<svg width="16" height="16" viewBox="0 0 16 16" fill="none" xmlns="http://www.w3.org/2000/svg">
<rect width="16" height="16" rx="2.5" fill="url(#paint0_linear_184_14165)"/>
<rect width="16" height="16" rx="2.5" fill="url(#paint1_linear_184_14165)"/>
<rect width="16" height="16" rx="2.5" fill="url(#paint2_linear_184_14165)"/>
<rect width="16" height="16" rx="2.5" fill="url(#paint3_linear_184_14165)"/>
<rect width="16" height="16" rx="2.5" fill="url(#paint4_linear_184_14165)"/>
<rect width="16" height="16" rx="2.5" fill="url(#paint5_linear_184_14165)"/>
<path d="M12.9117 8.17816L13.9994 9.92343H12.9392L12.0534 8.43707V9.92343H11.1447V6.56714H12.0534V8.00076L12.8841 6.56714H13.8938L12.9117 8.17816Z" fill="white"/>
<path d="M9.19487 7.43498L8.53651 9.92344H7.62748L8.55219 6.56713H10.0455L10.9702 9.92344H10.0612L9.40285 7.43498H9.19487Z" fill="white"/>
<path d="M2.81283 9.76516C2.56033 9.61487 2.36181 9.40723 2.21708 9.14216C2.07234 8.8772 2 8.57824 2 8.24531C2 7.91245 2.07234 7.61349 2.21708 7.3484C2.36181 7.08344 2.56033 6.87573 2.81283 6.72546C3.0653 6.57516 3.34593 6.5 3.65464 6.5C3.96016 6.5 4.23915 6.57516 4.49165 6.72546C4.74408 6.87573 4.94268 7.08344 5.08743 7.3484C5.23212 7.61349 5.30451 7.91245 5.30451 8.24531C5.30451 8.57824 5.23212 8.8772 5.08743 9.14216C4.94268 9.40723 4.74408 9.61487 4.49165 9.76516C4.23915 9.91545 3.96016 9.99056 3.65464 9.99056C3.34593 9.99056 3.0653 9.91545 2.81283 9.76516ZM4.03817 9.00886C4.15228 8.93613 4.24321 8.83431 4.31074 8.70343C4.37825 8.57253 4.41204 8.4198 4.41204 8.24531C4.41204 8.07076 4.37825 7.91805 4.31074 7.78715C4.24321 7.65625 4.15228 7.55446 4.03817 7.48174C3.924 7.409 3.79612 7.37267 3.65464 7.37267C3.51312 7.37267 3.38451 7.409 3.26873 7.48174C3.15295 7.55446 3.06128 7.65625 2.99375 7.78715C2.92621 7.91805 2.89245 8.07076 2.89245 8.24531C2.89245 8.4198 2.92621 8.57253 2.99375 8.70343C3.06128 8.83431 3.15295 8.93613 3.26873 9.00886C3.38451 9.08156 3.51312 9.11794 3.65464 9.11794C3.79612 9.11794 3.924 9.08156 4.03817 9.00886Z" fill="white"/>
<path d="M5.30067 6.56713V7.43019V7.46854H6.20331V9.92344H7.10591V7.46854H8.00852V7.43019V6.56713H5.30067Z" fill="white"/>
<defs>
<linearGradient id="paint0_linear_184_14165" x1="3.625" y1="-2.02963" x2="22.8801" y2="6.09907" gradientUnits="userSpaceOnUse">
<stop offset="0.00262629" stop-color="#6FCEE2"/>
<stop offset="0.5" stop-color="#229E44"/>
<stop offset="1" stop-color="#2CA24B"/>
</linearGradient>
<linearGradient id="paint1_linear_184_14165" x1="3.22917" y1="18.4444" x2="20.9331" y2="4.80124" gradientUnits="userSpaceOnUse">
<stop offset="0" stop-color="#01596C"/>
<stop offset="0.336915" stop-color="#31AC78"/>
<stop offset="0.548729" stop-color="#5FC185"/>
<stop offset="1" stop-color="#F2FF5B"/>
</linearGradient>
<linearGradient id="paint2_linear_184_14165" x1="1.225" y1="16.6074" x2="18.2619" y2="6.877" gradientUnits="userSpaceOnUse">
<stop offset="0" stop-color="#01596C"/>
<stop offset="0.465554" stop-color="#31AC78"/>
<stop offset="0.639087" stop-color="#5FC185"/>
<stop offset="1" stop-color="#B7FF96"/>
</linearGradient>
<linearGradient id="paint3_linear_184_14165" x1="1.225" y1="16.6074" x2="18.8875" y2="5.87861" gradientUnits="userSpaceOnUse">
<stop offset="0" stop-color="#01596C"/>
<stop offset="0.421394" stop-color="#3BA498"/>
<stop offset="0.626982" stop-color="#5FC19E"/>
<stop offset="1" stop-color="#A7D5C7"/>
</linearGradient>
<linearGradient id="paint4_linear_184_14165" x1="1.225" y1="16.6074" x2="20.0132" y2="6.61347" gradientUnits="userSpaceOnUse">
<stop offset="0" stop-color="#01596C"/>
<stop offset="0.421394" stop-color="#3BA498"/>
<stop offset="0.741443" stop-color="#4AC491"/>
<stop offset="1" stop-color="#7DDBA8"/>
</linearGradient>
<linearGradient id="paint5_linear_184_14165" x1="-10" y1="26.5" x2="21.3802" y2="14.2529" gradientUnits="userSpaceOnUse">
<stop offset="0" stop-color="#01596C"/>
<stop offset="0.421394" stop-color="#3BA4A4"/>
<stop offset="0.803004" stop-color="#4AC491"/>
<stop offset="1" stop-color="#7DDBA8"/>
</linearGradient>
</defs>
</svg>
