<svg width="1160" height="456" viewBox="0 0 1160 456" fill="none" xmlns="http://www.w3.org/2000/svg">
<rect width="1160" height="456" fill="white"/>
<line x1="57" y1="344.5" x2="1135" y2="344.5" stroke="#CEE0ED"/>
<line x1="57" y1="35.5" x2="1135" y2="35.5002" stroke="#CEE0ED"/>
<line x1="57" y1="79.5" x2="1135" y2="79.5002" stroke="#CEE0ED"/>
<line x1="57" y1="124.5" x2="1135" y2="124.5" stroke="#CEE0ED"/>
<line x1="57" y1="168.5" x2="1135" y2="168.5" stroke="#CEE0ED"/>
<line x1="57" y1="212.5" x2="1135" y2="212.5" stroke="#CEE0ED"/>
<line x1="57" y1="256.5" x2="1135" y2="256.5" stroke="#ABBEC9"/>
<line x1="57" y1="300.5" x2="1135" y2="300.5" stroke="#CEE0ED"/>
<path d="M61 280.734L84.7277 237.121L102.211 290.25L129.685 341L153.413 339.414L175.892 324.348L197.122 315.625H222.099L244.577 305.316L270.803 302.938L287.038 298.973L308.268 283.113L331.995 252.188L356.972 264.875L375.704 232.363L384.446 199.059L399.432 138L424.408 163.375L446.887 175.27L466.869 195.094L490.596 199.059L511.826 206.988H538.052L561.779 219.676L588.005 241.879L631.714 261.703L654.192 263.289L677.92 258.531L707.892 256.152L719.131 258.531L740.361 273.598L769.084 283.113L787.817 286.285L809.047 298.973L832.775 302.938L859 313.246L875.235 321.969L898.962 283.113L927.685 292.629L942.671 298.973H965.15H988.878L1008.86 283.113L1036.33 268.84H1065.06L1083.79 263.289L1101.27 248.223L1125 238.707" stroke="#A0CDF7" stroke-width="2" stroke-miterlimit="16" stroke-linecap="round" stroke-linejoin="round"/>
<path d="M59 267.61L86.4936 273.899L103.989 315.566L126.484 310.063L165.225 312.421L203.966 303.774C208.548 300.629 218.213 294.654 220.212 295.912C222.212 297.17 232.709 300.105 237.708 301.415L286.447 300.629L308.941 273.899H332.686L398.92 200L422.665 236.95L447.659 221.226L467.654 226.73L491.399 221.226L518.892 226.73L538.887 234.591L560.132 236.95L590.125 247.956L617.619 260.535L645.113 295.912H665.108L682.604 288.05H698.85L716.346 293.553L740.09 306.132C748.422 305.346 765.584 304.245 767.584 306.132C769.583 308.019 795.91 316.876 808.824 321.069L830.069 306.132L852.564 325L875.059 317.925L896.304 315.566L920.048 293.553H945.042L967.537 277.044L990.032 266.038L1016.28 260.535L1036.27 269.182L1060.02 266.038L1081.26 251.101L1101.26 263.679L1125 247.956" stroke="#2D6894" stroke-width="2" stroke-miterlimit="16" stroke-linecap="round" stroke-linejoin="round"/>
<path d="M20.1745 36.832L19.7905 35.932L22.6705 34.552H23.3545V43H22.3225V35.836L20.1745 36.832ZM24.8849 38.8C24.8849 37.504 25.1849 36.46 25.7969 35.68C26.3969 34.9 27.2849 34.504 28.4489 34.504C30.8369 34.504 32.0249 36.076 32.0249 38.8C32.0249 40.108 31.7249 41.14 31.1369 41.92C30.5369 42.7 29.6489 43.096 28.4729 43.096C27.3449 43.096 26.4689 42.7 25.8329 41.908C25.1969 41.116 24.8849 40.084 24.8849 38.8ZM25.9889 38.8C25.9889 40.852 26.9249 42.076 28.4729 42.076C30.1049 42.076 30.9209 40.984 30.9209 38.8C30.9209 36.616 30.0929 35.524 28.4489 35.524C26.7809 35.524 25.9889 36.724 25.9889 38.8ZM32.9212 38.8C32.9212 37.504 33.2212 36.46 33.8332 35.68C34.4332 34.9 35.3212 34.504 36.4852 34.504C38.8732 34.504 40.0612 36.076 40.0612 38.8C40.0612 40.108 39.7612 41.14 39.1732 41.92C38.5732 42.7 37.6852 43.096 36.5092 43.096C35.3812 43.096 34.5052 42.7 33.8692 41.908C33.2332 41.116 32.9212 40.084 32.9212 38.8ZM34.0252 38.8C34.0252 40.852 34.9612 42.076 36.5092 42.076C38.1412 42.076 38.9572 40.984 38.9572 38.8C38.9572 36.616 38.1292 35.524 36.4852 35.524C34.8172 35.524 34.0252 36.724 34.0252 38.8ZM43.0454 43.18L42.2534 42.724L48.4574 34.336L49.2134 34.888L43.0454 43.18ZM40.9574 36.616C40.9574 36.016 41.1614 35.524 41.5814 35.14C42.0014 34.756 42.5174 34.564 43.1534 34.564C43.7774 34.564 44.2934 34.756 44.7134 35.14C45.1334 35.524 45.3374 36.016 45.3374 36.616C45.3374 37.204 45.1334 37.696 44.7134 38.08C44.2934 38.464 43.7774 38.656 43.1534 38.656C42.5174 38.656 42.0014 38.464 41.5814 38.08C41.1614 37.696 40.9574 37.204 40.9574 36.616ZM41.9654 36.616C41.9654 37.3 42.5174 37.804 43.1534 37.804C43.8134 37.804 44.3294 37.324 44.3294 36.616C44.3294 35.908 43.7894 35.428 43.1534 35.428C42.4934 35.428 41.9654 35.908 41.9654 36.616ZM46.7294 42.472C46.3094 42.088 46.1054 41.596 46.1054 40.996C46.1054 40.396 46.3094 39.904 46.7294 39.52C47.1494 39.148 47.6654 38.956 48.3014 38.956C48.9254 38.956 49.4414 39.148 49.8614 39.52C50.2814 39.904 50.4854 40.396 50.4854 40.996C50.4854 41.584 50.2814 42.076 49.8614 42.46C49.4414 42.856 48.9254 43.048 48.3014 43.048C47.6654 43.048 47.1494 42.856 46.7294 42.472ZM47.1134 40.996C47.1134 41.68 47.6654 42.184 48.3014 42.184C48.9614 42.184 49.4774 41.704 49.4774 40.996C49.4774 40.288 48.9374 39.808 48.3014 39.808C47.6414 39.808 47.1134 40.288 47.1134 40.996Z" fill="#76848D"/>
<path d="M28.3492 82.212H28.7213C29.2612 82.212 29.7052 82.08 30.0773 81.828C30.4373 81.576 30.6172 81.24 30.6172 80.844C30.6172 79.944 29.9093 79.488 28.5052 79.488C27.1612 79.488 26.4292 79.98 26.4292 80.844C26.4292 81.624 27.2332 82.212 28.3492 82.212ZM28.6973 83.16H28.3972C27.7493 83.16 27.2092 83.304 26.7892 83.58C26.3692 83.856 26.1532 84.204 26.1532 84.624C26.1532 85.536 26.9932 86.112 28.5172 86.112C30.0652 86.112 30.8932 85.56 30.8932 84.636C30.8932 83.712 30.0052 83.16 28.6973 83.16ZM31.0612 86.46C30.4492 86.892 29.5972 87.108 28.5293 87.108C27.4612 87.108 26.6092 86.892 25.9852 86.472C25.3612 86.052 25.0492 85.476 25.0492 84.732C25.0492 83.76 25.6852 82.992 26.7052 82.656C25.7812 82.356 25.3252 81.624 25.3252 80.772C25.3252 79.38 26.5012 78.492 28.5172 78.492C30.5453 78.492 31.7213 79.38 31.7213 80.772C31.7213 81.576 31.2773 82.188 30.3893 82.596C31.4572 82.92 31.9853 83.616 31.9853 84.684C31.9853 85.44 31.6732 86.04 31.0612 86.46ZM32.9212 82.8C32.9212 81.504 33.2212 80.46 33.8332 79.68C34.4332 78.9 35.3212 78.504 36.4852 78.504C38.8732 78.504 40.0612 80.076 40.0612 82.8C40.0612 84.108 39.7612 85.14 39.1732 85.92C38.5732 86.7 37.6852 87.096 36.5092 87.096C35.3812 87.096 34.5052 86.7 33.8692 85.908C33.2332 85.116 32.9212 84.084 32.9212 82.8ZM34.0252 82.8C34.0252 84.852 34.9612 86.076 36.5092 86.076C38.1412 86.076 38.9572 84.984 38.9572 82.8C38.9572 80.616 38.1292 79.524 36.4852 79.524C34.8172 79.524 34.0252 80.724 34.0252 82.8ZM43.0454 87.18L42.2534 86.724L48.4574 78.336L49.2134 78.888L43.0454 87.18ZM40.9574 80.616C40.9574 80.016 41.1614 79.524 41.5814 79.14C42.0014 78.756 42.5174 78.564 43.1534 78.564C43.7774 78.564 44.2934 78.756 44.7134 79.14C45.1334 79.524 45.3374 80.016 45.3374 80.616C45.3374 81.204 45.1334 81.696 44.7134 82.08C44.2934 82.464 43.7774 82.656 43.1534 82.656C42.5174 82.656 42.0014 82.464 41.5814 82.08C41.1614 81.696 40.9574 81.204 40.9574 80.616ZM41.9654 80.616C41.9654 81.3 42.5174 81.804 43.1534 81.804C43.8134 81.804 44.3294 81.324 44.3294 80.616C44.3294 79.908 43.7894 79.428 43.1534 79.428C42.4934 79.428 41.9654 79.908 41.9654 80.616ZM46.7294 86.472C46.3094 86.088 46.1054 85.596 46.1054 84.996C46.1054 84.396 46.3094 83.904 46.7294 83.52C47.1494 83.148 47.6654 82.956 48.3014 82.956C48.9254 82.956 49.4414 83.148 49.8614 83.52C50.2814 83.904 50.4854 84.396 50.4854 84.996C50.4854 85.584 50.2814 86.076 49.8614 86.46C49.4414 86.856 48.9254 87.048 48.3014 87.048C47.6654 87.048 47.1494 86.856 46.7294 86.472ZM47.1134 84.996C47.1134 85.68 47.6654 86.184 48.3014 86.184C48.9614 86.184 49.4774 85.704 49.4774 84.996C49.4774 84.288 48.9374 83.808 48.3014 83.808C47.6414 83.808 47.1134 84.288 47.1134 84.996Z" fill="#76848D"/>
<path d="M25.0607 126.028C25.0607 124.576 25.4207 123.46 26.1287 122.668C26.8367 121.888 27.7247 121.492 28.7927 121.492C30.1967 121.492 31.3007 122.128 31.7687 123.136L30.9527 123.688C30.4607 122.908 29.7287 122.524 28.7447 122.524C28.0007 122.524 27.3767 122.812 26.8727 123.388C26.3687 123.976 26.1167 124.768 26.1287 125.788C26.5967 124.912 27.6887 124.384 28.8887 124.384C29.8607 124.384 30.6407 124.636 31.2047 125.152C31.7687 125.668 32.0567 126.352 32.0567 127.192C32.0567 128.044 31.7447 128.752 31.1087 129.292C30.4727 129.832 29.6807 130.108 28.7327 130.108C26.4647 130.108 25.0607 128.632 25.0607 126.028ZM26.2607 127.048C26.4887 128.236 27.3887 129.076 28.7207 129.076C29.3687 129.076 29.9087 128.908 30.3287 128.56C30.7487 128.224 30.9527 127.78 30.9527 127.24C30.9527 126.052 30.1127 125.416 28.8287 125.416C28.1207 125.416 27.5327 125.584 27.0767 125.92C26.6087 126.256 26.3447 126.628 26.2607 127.048ZM32.9212 125.8C32.9212 124.504 33.2212 123.46 33.8332 122.68C34.4332 121.9 35.3212 121.504 36.4852 121.504C38.8732 121.504 40.0612 123.076 40.0612 125.8C40.0612 127.108 39.7612 128.14 39.1732 128.92C38.5732 129.7 37.6852 130.096 36.5092 130.096C35.3812 130.096 34.5052 129.7 33.8692 128.908C33.2332 128.116 32.9212 127.084 32.9212 125.8ZM34.0252 125.8C34.0252 127.852 34.9612 129.076 36.5092 129.076C38.1412 129.076 38.9572 127.984 38.9572 125.8C38.9572 123.616 38.1292 122.524 36.4852 122.524C34.8172 122.524 34.0252 123.724 34.0252 125.8ZM43.0454 130.18L42.2534 129.724L48.4574 121.336L49.2134 121.888L43.0454 130.18ZM40.9574 123.616C40.9574 123.016 41.1614 122.524 41.5814 122.14C42.0014 121.756 42.5174 121.564 43.1534 121.564C43.7774 121.564 44.2934 121.756 44.7134 122.14C45.1334 122.524 45.3374 123.016 45.3374 123.616C45.3374 124.204 45.1334 124.696 44.7134 125.08C44.2934 125.464 43.7774 125.656 43.1534 125.656C42.5174 125.656 42.0014 125.464 41.5814 125.08C41.1614 124.696 40.9574 124.204 40.9574 123.616ZM41.9654 123.616C41.9654 124.3 42.5174 124.804 43.1534 124.804C43.8134 124.804 44.3294 124.324 44.3294 123.616C44.3294 122.908 43.7894 122.428 43.1534 122.428C42.4934 122.428 41.9654 122.908 41.9654 123.616ZM46.7294 129.472C46.3094 129.088 46.1054 128.596 46.1054 127.996C46.1054 127.396 46.3094 126.904 46.7294 126.52C47.1494 126.148 47.6654 125.956 48.3014 125.956C48.9254 125.956 49.4414 126.148 49.8614 126.52C50.2814 126.904 50.4854 127.396 50.4854 127.996C50.4854 128.584 50.2814 129.076 49.8614 129.46C49.4414 129.856 48.9254 130.048 48.3014 130.048C47.6654 130.048 47.1494 129.856 46.7294 129.472ZM47.1134 127.996C47.1134 128.68 47.6654 129.184 48.3014 129.184C48.9614 129.184 49.4774 128.704 49.4774 127.996C49.4774 127.288 48.9374 126.808 48.3014 126.808C47.6414 126.808 47.1134 127.288 47.1134 127.996Z" fill="#76848D"/>
<path d="M30.7747 175H29.7307V173.284H24.5947V172.588L29.8507 166.6H30.7747V172.312H32.3347V173.284H30.7747V175ZM29.7307 168.28L26.0347 172.312H29.7307V168.28ZM32.9212 170.8C32.9212 169.504 33.2212 168.46 33.8332 167.68C34.4332 166.9 35.3212 166.504 36.4852 166.504C38.8732 166.504 40.0612 168.076 40.0612 170.8C40.0612 172.108 39.7612 173.14 39.1732 173.92C38.5732 174.7 37.6852 175.096 36.5092 175.096C35.3812 175.096 34.5052 174.7 33.8692 173.908C33.2332 173.116 32.9212 172.084 32.9212 170.8ZM34.0252 170.8C34.0252 172.852 34.9612 174.076 36.5092 174.076C38.1412 174.076 38.9572 172.984 38.9572 170.8C38.9572 168.616 38.1292 167.524 36.4852 167.524C34.8172 167.524 34.0252 168.724 34.0252 170.8ZM43.0454 175.18L42.2534 174.724L48.4574 166.336L49.2134 166.888L43.0454 175.18ZM40.9574 168.616C40.9574 168.016 41.1614 167.524 41.5814 167.14C42.0014 166.756 42.5174 166.564 43.1534 166.564C43.7774 166.564 44.2934 166.756 44.7134 167.14C45.1334 167.524 45.3374 168.016 45.3374 168.616C45.3374 169.204 45.1334 169.696 44.7134 170.08C44.2934 170.464 43.7774 170.656 43.1534 170.656C42.5174 170.656 42.0014 170.464 41.5814 170.08C41.1614 169.696 40.9574 169.204 40.9574 168.616ZM41.9654 168.616C41.9654 169.3 42.5174 169.804 43.1534 169.804C43.8134 169.804 44.3294 169.324 44.3294 168.616C44.3294 167.908 43.7894 167.428 43.1534 167.428C42.4934 167.428 41.9654 167.908 41.9654 168.616ZM46.7294 174.472C46.3094 174.088 46.1054 173.596 46.1054 172.996C46.1054 172.396 46.3094 171.904 46.7294 171.52C47.1494 171.148 47.6654 170.956 48.3014 170.956C48.9254 170.956 49.4414 171.148 49.8614 171.52C50.2814 171.904 50.4854 172.396 50.4854 172.996C50.4854 173.584 50.2814 174.076 49.8614 174.46C49.4414 174.856 48.9254 175.048 48.3014 175.048C47.6654 175.048 47.1494 174.856 46.7294 174.472ZM47.1134 172.996C47.1134 173.68 47.6654 174.184 48.3014 174.184C48.9614 174.184 49.4774 173.704 49.4774 172.996C49.4774 172.288 48.9374 171.808 48.3014 171.808C47.6414 171.808 47.1134 172.288 47.1134 172.996Z" fill="#76848D"/>
<path d="M26.6535 212.372L25.7775 212.06C26.0775 210.572 27.2055 209.504 28.9935 209.504C30.7215 209.504 31.7775 210.5 31.7775 212.024C31.7775 212.828 31.4295 213.632 30.9975 214.208C30.7815 214.508 30.5055 214.796 30.1815 215.096C29.5215 215.684 29.0535 215.996 28.3695 216.428L27.4455 217.004H32.0895V218H25.5495V217.184L27.3735 215.972C27.6975 215.768 27.9255 215.612 28.0575 215.516C28.1895 215.432 28.4055 215.276 28.6935 215.072C28.9815 214.868 29.1975 214.688 29.3415 214.556C29.4735 214.424 29.6535 214.256 29.8575 214.04C30.4095 213.44 30.6135 212.888 30.6735 212.132C30.6735 211.04 29.9655 210.548 28.9215 210.548C28.2735 210.548 27.7575 210.728 27.3855 211.088C27.0135 211.448 26.7615 211.88 26.6535 212.372ZM32.9212 213.8C32.9212 212.504 33.2212 211.46 33.8332 210.68C34.4332 209.9 35.3212 209.504 36.4852 209.504C38.8732 209.504 40.0612 211.076 40.0612 213.8C40.0612 215.108 39.7612 216.14 39.1732 216.92C38.5732 217.7 37.6852 218.096 36.5092 218.096C35.3812 218.096 34.5052 217.7 33.8692 216.908C33.2332 216.116 32.9212 215.084 32.9212 213.8ZM34.0252 213.8C34.0252 215.852 34.9612 217.076 36.5092 217.076C38.1412 217.076 38.9572 215.984 38.9572 213.8C38.9572 211.616 38.1292 210.524 36.4852 210.524C34.8172 210.524 34.0252 211.724 34.0252 213.8ZM43.0454 218.18L42.2534 217.724L48.4574 209.336L49.2134 209.888L43.0454 218.18ZM40.9574 211.616C40.9574 211.016 41.1614 210.524 41.5814 210.14C42.0014 209.756 42.5174 209.564 43.1534 209.564C43.7774 209.564 44.2934 209.756 44.7134 210.14C45.1334 210.524 45.3374 211.016 45.3374 211.616C45.3374 212.204 45.1334 212.696 44.7134 213.08C44.2934 213.464 43.7774 213.656 43.1534 213.656C42.5174 213.656 42.0014 213.464 41.5814 213.08C41.1614 212.696 40.9574 212.204 40.9574 211.616ZM41.9654 211.616C41.9654 212.3 42.5174 212.804 43.1534 212.804C43.8134 212.804 44.3294 212.324 44.3294 211.616C44.3294 210.908 43.7894 210.428 43.1534 210.428C42.4934 210.428 41.9654 210.908 41.9654 211.616ZM46.7294 217.472C46.3094 217.088 46.1054 216.596 46.1054 215.996C46.1054 215.396 46.3094 214.904 46.7294 214.52C47.1494 214.148 47.6654 213.956 48.3014 213.956C48.9254 213.956 49.4414 214.148 49.8614 214.52C50.2814 214.904 50.4854 215.396 50.4854 215.996C50.4854 216.584 50.2814 217.076 49.8614 217.46C49.4414 217.856 48.9254 218.048 48.3014 218.048C47.6654 218.048 47.1494 217.856 46.7294 217.472ZM47.1134 215.996C47.1134 216.68 47.6654 217.184 48.3014 217.184C48.9614 217.184 49.4774 216.704 49.4774 215.996C49.4774 215.288 48.9374 214.808 48.3014 214.808C47.6414 214.808 47.1134 215.288 47.1134 215.996Z" fill="#76848D"/>
<path d="M32.9212 257.8C32.9212 256.504 33.2212 255.46 33.8332 254.68C34.4332 253.9 35.3212 253.504 36.4852 253.504C38.8732 253.504 40.0612 255.076 40.0612 257.8C40.0612 259.108 39.7612 260.14 39.1732 260.92C38.5732 261.7 37.6852 262.096 36.5092 262.096C35.3812 262.096 34.5052 261.7 33.8692 260.908C33.2332 260.116 32.9212 259.084 32.9212 257.8ZM34.0252 257.8C34.0252 259.852 34.9612 261.076 36.5092 261.076C38.1412 261.076 38.9572 259.984 38.9572 257.8C38.9572 255.616 38.1292 254.524 36.4852 254.524C34.8172 254.524 34.0252 255.724 34.0252 257.8ZM43.0454 262.18L42.2534 261.724L48.4574 253.336L49.2134 253.888L43.0454 262.18ZM40.9574 255.616C40.9574 255.016 41.1614 254.524 41.5814 254.14C42.0014 253.756 42.5174 253.564 43.1534 253.564C43.7774 253.564 44.2934 253.756 44.7134 254.14C45.1334 254.524 45.3374 255.016 45.3374 255.616C45.3374 256.204 45.1334 256.696 44.7134 257.08C44.2934 257.464 43.7774 257.656 43.1534 257.656C42.5174 257.656 42.0014 257.464 41.5814 257.08C41.1614 256.696 40.9574 256.204 40.9574 255.616ZM41.9654 255.616C41.9654 256.3 42.5174 256.804 43.1534 256.804C43.8134 256.804 44.3294 256.324 44.3294 255.616C44.3294 254.908 43.7894 254.428 43.1534 254.428C42.4934 254.428 41.9654 254.908 41.9654 255.616ZM46.7294 261.472C46.3094 261.088 46.1054 260.596 46.1054 259.996C46.1054 259.396 46.3094 258.904 46.7294 258.52C47.1494 258.148 47.6654 257.956 48.3014 257.956C48.9254 257.956 49.4414 258.148 49.8614 258.52C50.2814 258.904 50.4854 259.396 50.4854 259.996C50.4854 260.584 50.2814 261.076 49.8614 261.46C49.4414 261.856 48.9254 262.048 48.3014 262.048C47.6654 262.048 47.1494 261.856 46.7294 261.472ZM47.1134 259.996C47.1134 260.68 47.6654 261.184 48.3014 261.184C48.9614 261.184 49.4774 260.704 49.4774 259.996C49.4774 259.288 48.9374 258.808 48.3014 258.808C47.6414 258.808 47.1134 259.288 47.1134 259.996Z" fill="#76848D"/>
<path d="M24.6234 302.136H19.0554V301.236H24.6234V302.136ZM26.6535 300.372L25.7775 300.06C26.0775 298.572 27.2055 297.504 28.9935 297.504C30.7215 297.504 31.7775 298.5 31.7775 300.024C31.7775 300.828 31.4295 301.632 30.9975 302.208C30.7815 302.508 30.5055 302.796 30.1815 303.096C29.5215 303.684 29.0535 303.996 28.3695 304.428L27.4455 305.004H32.0895V306H25.5495V305.184L27.3735 303.972C27.6975 303.768 27.9255 303.612 28.0575 303.516C28.1895 303.432 28.4055 303.276 28.6935 303.072C28.9815 302.868 29.1975 302.688 29.3415 302.556C29.4735 302.424 29.6535 302.256 29.8575 302.04C30.4095 301.44 30.6135 300.888 30.6735 300.132C30.6735 299.04 29.9655 298.548 28.9215 298.548C28.2735 298.548 27.7575 298.728 27.3855 299.088C27.0135 299.448 26.7615 299.88 26.6535 300.372ZM32.9212 301.8C32.9212 300.504 33.2212 299.46 33.8332 298.68C34.4332 297.9 35.3212 297.504 36.4852 297.504C38.8732 297.504 40.0612 299.076 40.0612 301.8C40.0612 303.108 39.7612 304.14 39.1732 304.92C38.5732 305.7 37.6852 306.096 36.5092 306.096C35.3812 306.096 34.5052 305.7 33.8692 304.908C33.2332 304.116 32.9212 303.084 32.9212 301.8ZM34.0252 301.8C34.0252 303.852 34.9612 305.076 36.5092 305.076C38.1412 305.076 38.9572 303.984 38.9572 301.8C38.9572 299.616 38.1292 298.524 36.4852 298.524C34.8172 298.524 34.0252 299.724 34.0252 301.8ZM43.0454 306.18L42.2534 305.724L48.4574 297.336L49.2134 297.888L43.0454 306.18ZM40.9574 299.616C40.9574 299.016 41.1614 298.524 41.5814 298.14C42.0014 297.756 42.5174 297.564 43.1534 297.564C43.7774 297.564 44.2934 297.756 44.7134 298.14C45.1334 298.524 45.3374 299.016 45.3374 299.616C45.3374 300.204 45.1334 300.696 44.7134 301.08C44.2934 301.464 43.7774 301.656 43.1534 301.656C42.5174 301.656 42.0014 301.464 41.5814 301.08C41.1614 300.696 40.9574 300.204 40.9574 299.616ZM41.9654 299.616C41.9654 300.3 42.5174 300.804 43.1534 300.804C43.8134 300.804 44.3294 300.324 44.3294 299.616C44.3294 298.908 43.7894 298.428 43.1534 298.428C42.4934 298.428 41.9654 298.908 41.9654 299.616ZM46.7294 305.472C46.3094 305.088 46.1054 304.596 46.1054 303.996C46.1054 303.396 46.3094 302.904 46.7294 302.52C47.1494 302.148 47.6654 301.956 48.3014 301.956C48.9254 301.956 49.4414 302.148 49.8614 302.52C50.2814 302.904 50.4854 303.396 50.4854 303.996C50.4854 304.584 50.2814 305.076 49.8614 305.46C49.4414 305.856 48.9254 306.048 48.3014 306.048C47.6654 306.048 47.1494 305.856 46.7294 305.472ZM47.1134 303.996C47.1134 304.68 47.6654 305.184 48.3014 305.184C48.9614 305.184 49.4774 304.704 49.4774 303.996C49.4774 303.288 48.9374 302.808 48.3014 302.808C47.6414 302.808 47.1134 303.288 47.1134 303.996Z" fill="#76848D"/>
<path d="M23.9086 347.136H18.3406V346.236H23.9086V347.136ZM30.7747 351H29.7307V349.284H24.5947V348.588L29.8507 342.6H30.7747V348.312H32.3347V349.284H30.7747V351ZM29.7307 344.28L26.0347 348.312H29.7307V344.28ZM32.9212 346.8C32.9212 345.504 33.2212 344.46 33.8332 343.68C34.4332 342.9 35.3212 342.504 36.4852 342.504C38.8732 342.504 40.0612 344.076 40.0612 346.8C40.0612 348.108 39.7612 349.14 39.1732 349.92C38.5732 350.7 37.6852 351.096 36.5092 351.096C35.3812 351.096 34.5052 350.7 33.8692 349.908C33.2332 349.116 32.9212 348.084 32.9212 346.8ZM34.0252 346.8C34.0252 348.852 34.9612 350.076 36.5092 350.076C38.1412 350.076 38.9572 348.984 38.9572 346.8C38.9572 344.616 38.1292 343.524 36.4852 343.524C34.8172 343.524 34.0252 344.724 34.0252 346.8ZM43.0454 351.18L42.2534 350.724L48.4574 342.336L49.2134 342.888L43.0454 351.18ZM40.9574 344.616C40.9574 344.016 41.1614 343.524 41.5814 343.14C42.0014 342.756 42.5174 342.564 43.1534 342.564C43.7774 342.564 44.2934 342.756 44.7134 343.14C45.1334 343.524 45.3374 344.016 45.3374 344.616C45.3374 345.204 45.1334 345.696 44.7134 346.08C44.2934 346.464 43.7774 346.656 43.1534 346.656C42.5174 346.656 42.0014 346.464 41.5814 346.08C41.1614 345.696 40.9574 345.204 40.9574 344.616ZM41.9654 344.616C41.9654 345.3 42.5174 345.804 43.1534 345.804C43.8134 345.804 44.3294 345.324 44.3294 344.616C44.3294 343.908 43.7894 343.428 43.1534 343.428C42.4934 343.428 41.9654 343.908 41.9654 344.616ZM46.7294 350.472C46.3094 350.088 46.1054 349.596 46.1054 348.996C46.1054 348.396 46.3094 347.904 46.7294 347.52C47.1494 347.148 47.6654 346.956 48.3014 346.956C48.9254 346.956 49.4414 347.148 49.8614 347.52C50.2814 347.904 50.4854 348.396 50.4854 348.996C50.4854 349.584 50.2814 350.076 49.8614 350.46C49.4414 350.856 48.9254 351.048 48.3014 351.048C47.6654 351.048 47.1494 350.856 46.7294 350.472ZM47.1134 348.996C47.1134 349.68 47.6654 350.184 48.3014 350.184C48.9614 350.184 49.4774 349.704 49.4774 348.996C49.4774 348.288 48.9374 347.808 48.3014 347.808C47.6414 347.808 47.1134 348.288 47.1134 348.996Z" fill="#76848D"/>
<line x1="22" y1="389.5" x2="1135" y2="389.5" stroke="#CEE0ED"/>
<path d="M46.576 402.84H57.472V403.812H46.576V402.84ZM61.276 404.328H66.892V402.312H61.408C61.408 402.936 61.372 403.62 61.276 404.328ZM66.892 399.468H61.408V401.46H66.892V399.468ZM67.816 398.592V407.616C67.816 408.24 67.636 408.552 67.192 408.696C66.736 408.852 65.944 408.864 64.66 408.864C64.6 408.612 64.432 408.192 64.288 407.94C65.284 407.976 66.244 407.964 66.52 407.964C66.796 407.952 66.892 407.868 66.892 407.604V405.204H61.132C60.832 406.56 60.232 407.916 59.068 408.936C58.948 408.744 58.588 408.42 58.408 408.288C60.316 406.608 60.508 404.172 60.508 402.264V398.592H67.816ZM51.724 416.372L50.848 416.06C51.148 414.572 52.276 413.504 54.064 413.504C55.792 413.504 56.848 414.5 56.848 416.024C56.848 416.828 56.5 417.632 56.068 418.208C55.852 418.508 55.576 418.796 55.252 419.096C54.592 419.684 54.124 419.996 53.44 420.428L52.516 421.004H57.16V422H50.62V421.184L52.444 419.972C52.768 419.768 52.996 419.612 53.128 419.516C53.26 419.432 53.476 419.276 53.764 419.072C54.052 418.868 54.268 418.688 54.412 418.556C54.544 418.424 54.724 418.256 54.928 418.04C55.48 417.44 55.684 416.888 55.744 416.132C55.744 415.04 55.036 414.548 53.992 414.548C53.344 414.548 52.828 414.728 52.456 415.088C52.084 415.448 51.832 415.88 51.724 416.372ZM58.1117 417.8C58.1117 416.504 58.4117 415.46 59.0237 414.68C59.6237 413.9 60.5117 413.504 61.6757 413.504C64.0637 413.504 65.2517 415.076 65.2517 417.8C65.2517 419.108 64.9517 420.14 64.3637 420.92C63.7637 421.7 62.8757 422.096 61.6997 422.096C60.5717 422.096 59.6957 421.7 59.0597 420.908C58.4237 420.116 58.1117 419.084 58.1117 417.8ZM59.2157 417.8C59.2157 419.852 60.1517 421.076 61.6997 421.076C63.3317 421.076 64.1477 419.984 64.1477 417.8C64.1477 415.616 63.3197 414.524 61.6757 414.524C60.0077 414.524 59.2157 415.724 59.2157 417.8Z" fill="#76848D"/>
<path d="M92.536 397.096H101.608V397.996H92.536V397.096ZM93.304 401.02H100.66V401.92H93.304V401.02ZM91.84 405.184H102.256V406.096H91.84V405.184ZM105.976 396.556H112.24V397.432H105.976V396.556ZM105.976 399.448H112.288V400.312H105.976V399.448ZM105.88 402.352H112.228V403.216H105.88V402.352ZM105.424 396.556H106.336V400.264C106.336 402.34 106.036 405.172 103.972 406.972C103.84 406.78 103.48 406.456 103.288 406.324C105.22 404.632 105.424 402.196 105.424 400.264V396.556ZM111.844 396.556H112.78V405.64C112.78 406.276 112.612 406.588 112.156 406.744C111.688 406.9 110.896 406.912 109.6 406.912C109.54 406.648 109.372 406.216 109.216 405.964C110.212 406 111.196 405.988 111.472 405.988C111.748 405.976 111.844 405.892 111.844 405.628V396.556Z" fill="#76848D"/>
<path d="M364.536 397.096H373.608V397.996H364.536V397.096ZM365.304 401.02H372.66V401.92H365.304V401.02ZM363.84 405.184H374.256V406.096H363.84V405.184ZM377.976 396.556H384.24V397.432H377.976V396.556ZM377.976 399.448H384.288V400.312H377.976V399.448ZM377.88 402.352H384.228V403.216H377.88V402.352ZM377.424 396.556H378.336V400.264C378.336 402.34 378.036 405.172 375.972 406.972C375.84 406.78 375.48 406.456 375.288 406.324C377.22 404.632 377.424 402.196 377.424 400.264V396.556ZM383.844 396.556H384.78V405.64C384.78 406.276 384.612 406.588 384.156 406.744C383.688 406.9 382.896 406.912 381.6 406.912C381.54 406.648 381.372 406.216 381.216 405.964C382.212 406 383.196 405.988 383.472 405.988C383.748 405.976 383.844 405.892 383.844 405.628V396.556Z" fill="#76848D"/>
<path d="M635.536 397.096H644.608V397.996H635.536V397.096ZM636.304 401.02H643.66V401.92H636.304V401.02ZM634.84 405.184H645.256V406.096H634.84V405.184ZM648.976 396.556H655.24V397.432H648.976V396.556ZM648.976 399.448H655.288V400.312H648.976V399.448ZM648.88 402.352H655.228V403.216H648.88V402.352ZM648.424 396.556H649.336V400.264C649.336 402.34 649.036 405.172 646.972 406.972C646.84 406.78 646.48 406.456 646.288 406.324C648.22 404.632 648.424 402.196 648.424 400.264V396.556ZM654.844 396.556H655.78V405.64C655.78 406.276 655.612 406.588 655.156 406.744C654.688 406.9 653.896 406.912 652.6 406.912C652.54 406.648 652.372 406.216 652.216 405.964C653.212 406 654.196 405.988 654.472 405.988C654.748 405.976 654.844 405.892 654.844 405.628V396.556Z" fill="#76848D"/>
<path d="M906.536 397.096H915.608V397.996H906.536V397.096ZM907.304 401.02H914.66V401.92H907.304V401.02ZM905.84 405.184H916.256V406.096H905.84V405.184ZM919.976 396.556H926.24V397.432H919.976V396.556ZM919.976 399.448H926.288V400.312H919.976V399.448ZM919.88 402.352H926.228V403.216H919.88V402.352ZM919.424 396.556H920.336V400.264C920.336 402.34 920.036 405.172 917.972 406.972C917.84 406.78 917.48 406.456 917.288 406.324C919.22 404.632 919.424 402.196 919.424 400.264V396.556ZM925.844 396.556H926.78V405.64C926.78 406.276 926.612 406.588 926.156 406.744C925.688 406.9 924.896 406.912 923.6 406.912C923.54 406.648 923.372 406.216 923.216 405.964C924.212 406 925.196 405.988 925.472 405.988C925.748 405.976 925.844 405.892 925.844 405.628V396.556Z" fill="#76848D"/>
<path d="M137.988 397.096H147.06V397.984H137.988V397.096ZM137.232 405.412H147.912V406.312H137.232V405.412ZM141.504 397.408H142.5C142.032 400.156 141.3 403.864 140.796 405.964H139.788C140.352 403.804 141.096 400.084 141.504 397.408ZM138.456 400.624H145.92V405.82H144.996V401.512H138.456V400.624ZM151.476 396.556H157.74V397.432H151.476V396.556ZM151.476 399.448H157.788V400.312H151.476V399.448ZM151.38 402.352H157.728V403.216H151.38V402.352ZM150.924 396.556H151.836V400.264C151.836 402.34 151.536 405.172 149.472 406.972C149.34 406.78 148.98 406.456 148.788 406.324C150.72 404.632 150.924 402.196 150.924 400.264V396.556ZM157.344 396.556H158.28V405.64C158.28 406.276 158.112 406.588 157.656 406.744C157.188 406.9 156.396 406.912 155.1 406.912C155.04 406.648 154.872 406.216 154.716 405.964C155.712 406 156.696 405.988 156.972 405.988C157.248 405.976 157.344 405.892 157.344 405.628V396.556Z" fill="#76848D"/>
<path d="M409.488 397.096H418.56V397.984H409.488V397.096ZM408.732 405.412H419.412V406.312H408.732V405.412ZM413.004 397.408H414C413.532 400.156 412.8 403.864 412.296 405.964H411.288C411.852 403.804 412.596 400.084 413.004 397.408ZM409.956 400.624H417.42V405.82H416.496V401.512H409.956V400.624ZM422.976 396.556H429.24V397.432H422.976V396.556ZM422.976 399.448H429.288V400.312H422.976V399.448ZM422.88 402.352H429.228V403.216H422.88V402.352ZM422.424 396.556H423.336V400.264C423.336 402.34 423.036 405.172 420.972 406.972C420.84 406.78 420.48 406.456 420.288 406.324C422.22 404.632 422.424 402.196 422.424 400.264V396.556ZM428.844 396.556H429.78V405.64C429.78 406.276 429.612 406.588 429.156 406.744C428.688 406.9 427.896 406.912 426.6 406.912C426.54 406.648 426.372 406.216 426.216 405.964C427.212 406 428.196 405.988 428.472 405.988C428.748 405.976 428.844 405.892 428.844 405.628V396.556Z" fill="#76848D"/>
<path d="M680.488 397.096H689.56V397.984H680.488V397.096ZM679.732 405.412H690.412V406.312H679.732V405.412ZM684.004 397.408H685C684.532 400.156 683.8 403.864 683.296 405.964H682.288C682.852 403.804 683.596 400.084 684.004 397.408ZM680.956 400.624H688.42V405.82H687.496V401.512H680.956V400.624ZM693.976 396.556H700.24V397.432H693.976V396.556ZM693.976 399.448H700.288V400.312H693.976V399.448ZM693.88 402.352H700.228V403.216H693.88V402.352ZM693.424 396.556H694.336V400.264C694.336 402.34 694.036 405.172 691.972 406.972C691.84 406.78 691.48 406.456 691.288 406.324C693.22 404.632 693.424 402.196 693.424 400.264V396.556ZM699.844 396.556H700.78V405.64C700.78 406.276 700.612 406.588 700.156 406.744C699.688 406.9 698.896 406.912 697.6 406.912C697.54 406.648 697.372 406.216 697.216 405.964C698.212 406 699.196 405.988 699.472 405.988C699.748 405.976 699.844 405.892 699.844 405.628V396.556Z" fill="#76848D"/>
<path d="M951.988 397.096H961.06V397.984H951.988V397.096ZM951.232 405.412H961.912V406.312H951.232V405.412ZM955.504 397.408H956.5C956.032 400.156 955.3 403.864 954.796 405.964H953.788C954.352 403.804 955.096 400.084 955.504 397.408ZM952.456 400.624H959.92V405.82H958.996V401.512H952.456V400.624ZM965.476 396.556H971.74V397.432H965.476V396.556ZM965.476 399.448H971.788V400.312H965.476V399.448ZM965.38 402.352H971.728V403.216H965.38V402.352ZM964.924 396.556H965.836V400.264C965.836 402.34 965.536 405.172 963.472 406.972C963.34 406.78 962.98 406.456 962.788 406.324C964.72 404.632 964.924 402.196 964.924 400.264V396.556ZM971.344 396.556H972.28V405.64C972.28 406.276 972.112 406.588 971.656 406.744C971.188 406.9 970.396 406.912 969.1 406.912C969.04 406.648 968.872 406.216 968.716 405.964C969.712 406 970.696 405.988 970.972 405.988C971.248 405.976 971.344 405.892 971.344 405.628V396.556Z" fill="#76848D"/>
<path d="M182.648 400.708L193.352 398.98L193.508 399.904L182.792 401.608L182.648 400.708ZM186.116 396.136H187.076V404.728C187.076 405.472 187.232 405.652 188.096 405.652C188.528 405.652 190.664 405.652 191.18 405.652C191.984 405.652 192.104 405.22 192.224 403.432C192.464 403.612 192.884 403.792 193.136 403.864C192.992 405.856 192.692 406.54 191.204 406.54C190.856 406.54 188.396 406.54 188.06 406.54C186.572 406.54 186.116 406.168 186.116 404.716V396.136ZM196.976 396.556H203.24V397.432H196.976V396.556ZM196.976 399.448H203.288V400.312H196.976V399.448ZM196.88 402.352H203.228V403.216H196.88V402.352ZM196.424 396.556H197.336V400.264C197.336 402.34 197.036 405.172 194.972 406.972C194.84 406.78 194.48 406.456 194.288 406.324C196.22 404.632 196.424 402.196 196.424 400.264V396.556ZM202.844 396.556H203.78V405.64C203.78 406.276 203.612 406.588 203.156 406.744C202.688 406.9 201.896 406.912 200.6 406.912C200.54 406.648 200.372 406.216 200.216 405.964C201.212 406 202.196 405.988 202.472 405.988C202.748 405.976 202.844 405.892 202.844 405.628V396.556Z" fill="#76848D"/>
<path d="M453.648 400.708L464.352 398.98L464.508 399.904L453.792 401.608L453.648 400.708ZM457.116 396.136H458.076V404.728C458.076 405.472 458.232 405.652 459.096 405.652C459.528 405.652 461.664 405.652 462.18 405.652C462.984 405.652 463.104 405.22 463.224 403.432C463.464 403.612 463.884 403.792 464.136 403.864C463.992 405.856 463.692 406.54 462.204 406.54C461.856 406.54 459.396 406.54 459.06 406.54C457.572 406.54 457.116 406.168 457.116 404.716V396.136ZM467.976 396.556H474.24V397.432H467.976V396.556ZM467.976 399.448H474.288V400.312H467.976V399.448ZM467.88 402.352H474.228V403.216H467.88V402.352ZM467.424 396.556H468.336V400.264C468.336 402.34 468.036 405.172 465.972 406.972C465.84 406.78 465.48 406.456 465.288 406.324C467.22 404.632 467.424 402.196 467.424 400.264V396.556ZM473.844 396.556H474.78V405.64C474.78 406.276 474.612 406.588 474.156 406.744C473.688 406.9 472.896 406.912 471.6 406.912C471.54 406.648 471.372 406.216 471.216 405.964C472.212 406 473.196 405.988 473.472 405.988C473.748 405.976 473.844 405.892 473.844 405.628V396.556Z" fill="#76848D"/>
<path d="M724.648 400.708L735.352 398.98L735.508 399.904L724.792 401.608L724.648 400.708ZM728.116 396.136H729.076V404.728C729.076 405.472 729.232 405.652 730.096 405.652C730.528 405.652 732.664 405.652 733.18 405.652C733.984 405.652 734.104 405.22 734.224 403.432C734.464 403.612 734.884 403.792 735.136 403.864C734.992 405.856 734.692 406.54 733.204 406.54C732.856 406.54 730.396 406.54 730.06 406.54C728.572 406.54 728.116 406.168 728.116 404.716V396.136ZM738.976 396.556H745.24V397.432H738.976V396.556ZM738.976 399.448H745.288V400.312H738.976V399.448ZM738.88 402.352H745.228V403.216H738.88V402.352ZM738.424 396.556H739.336V400.264C739.336 402.34 739.036 405.172 736.972 406.972C736.84 406.78 736.48 406.456 736.288 406.324C738.22 404.632 738.424 402.196 738.424 400.264V396.556ZM744.844 396.556H745.78V405.64C745.78 406.276 745.612 406.588 745.156 406.744C744.688 406.9 743.896 406.912 742.6 406.912C742.54 406.648 742.372 406.216 742.216 405.964C743.212 406 744.196 405.988 744.472 405.988C744.748 405.976 744.844 405.892 744.844 405.628V396.556Z" fill="#76848D"/>
<path d="M996.648 400.708L1007.35 398.98L1007.51 399.904L996.792 401.608L996.648 400.708ZM1000.12 396.136H1001.08V404.728C1001.08 405.472 1001.23 405.652 1002.1 405.652C1002.53 405.652 1004.66 405.652 1005.18 405.652C1005.98 405.652 1006.1 405.22 1006.22 403.432C1006.46 403.612 1006.88 403.792 1007.14 403.864C1006.99 405.856 1006.69 406.54 1005.2 406.54C1004.86 406.54 1002.4 406.54 1002.06 406.54C1000.57 406.54 1000.12 406.168 1000.12 404.716V396.136ZM1010.98 396.556H1017.24V397.432H1010.98V396.556ZM1010.98 399.448H1017.29V400.312H1010.98V399.448ZM1010.88 402.352H1017.23V403.216H1010.88V402.352ZM1010.42 396.556H1011.34V400.264C1011.34 402.34 1011.04 405.172 1008.97 406.972C1008.84 406.78 1008.48 406.456 1008.29 406.324C1010.22 404.632 1010.42 402.196 1010.42 400.264V396.556ZM1016.84 396.556H1017.78V405.64C1017.78 406.276 1017.61 406.588 1017.16 406.744C1016.69 406.9 1015.9 406.912 1014.6 406.912C1014.54 406.648 1014.37 406.216 1014.22 405.964C1015.21 406 1016.2 405.988 1016.47 405.988C1016.75 405.976 1016.84 405.892 1016.84 405.628V396.556Z" fill="#76848D"/>
<path d="M231.296 396.052H232.268C232.232 400.648 232.22 404.884 228.128 406.972C227.996 406.744 227.696 406.42 227.456 406.252C231.38 404.368 231.284 400.408 231.296 396.052ZM228.008 399.004H235.448V399.904H228.008V399.004ZM234.896 399.004H235.82V405.4C235.82 405.832 235.88 405.904 236.252 405.904C236.42 405.904 237.26 405.904 237.488 405.904C237.824 405.904 237.884 405.616 237.92 404.164C238.136 404.332 238.52 404.5 238.772 404.572C238.688 406.252 238.448 406.792 237.56 406.792C237.356 406.792 236.312 406.792 236.12 406.792C235.196 406.792 234.896 406.504 234.896 405.4V399.004ZM241.976 396.556H248.24V397.432H241.976V396.556ZM241.976 399.448H248.288V400.312H241.976V399.448ZM241.88 402.352H248.228V403.216H241.88V402.352ZM241.424 396.556H242.336V400.264C242.336 402.34 242.036 405.172 239.972 406.972C239.84 406.78 239.48 406.456 239.288 406.324C241.22 404.632 241.424 402.196 241.424 400.264V396.556ZM247.844 396.556H248.78V405.64C248.78 406.276 248.612 406.588 248.156 406.744C247.688 406.9 246.896 406.912 245.6 406.912C245.54 406.648 245.372 406.216 245.216 405.964C246.212 406 247.196 405.988 247.472 405.988C247.748 405.976 247.844 405.892 247.844 405.628V396.556Z" fill="#76848D"/>
<path d="M502.296 396.052H503.268C503.232 400.648 503.22 404.884 499.128 406.972C498.996 406.744 498.696 406.42 498.456 406.252C502.38 404.368 502.284 400.408 502.296 396.052ZM499.008 399.004H506.448V399.904H499.008V399.004ZM505.896 399.004H506.82V405.4C506.82 405.832 506.88 405.904 507.252 405.904C507.42 405.904 508.26 405.904 508.488 405.904C508.824 405.904 508.884 405.616 508.92 404.164C509.136 404.332 509.52 404.5 509.772 404.572C509.688 406.252 509.448 406.792 508.56 406.792C508.356 406.792 507.312 406.792 507.12 406.792C506.196 406.792 505.896 406.504 505.896 405.4V399.004ZM512.976 396.556H519.24V397.432H512.976V396.556ZM512.976 399.448H519.288V400.312H512.976V399.448ZM512.88 402.352H519.228V403.216H512.88V402.352ZM512.424 396.556H513.336V400.264C513.336 402.34 513.036 405.172 510.972 406.972C510.84 406.78 510.48 406.456 510.288 406.324C512.22 404.632 512.424 402.196 512.424 400.264V396.556ZM518.844 396.556H519.78V405.64C519.78 406.276 519.612 406.588 519.156 406.744C518.688 406.9 517.896 406.912 516.6 406.912C516.54 406.648 516.372 406.216 516.216 405.964C517.212 406 518.196 405.988 518.472 405.988C518.748 405.976 518.844 405.892 518.844 405.628V396.556Z" fill="#76848D"/>
<path d="M773.796 396.052H774.768C774.732 400.648 774.72 404.884 770.628 406.972C770.496 406.744 770.196 406.42 769.956 406.252C773.88 404.368 773.784 400.408 773.796 396.052ZM770.508 399.004H777.948V399.904H770.508V399.004ZM777.396 399.004H778.32V405.4C778.32 405.832 778.38 405.904 778.752 405.904C778.92 405.904 779.76 405.904 779.988 405.904C780.324 405.904 780.384 405.616 780.42 404.164C780.636 404.332 781.02 404.5 781.272 404.572C781.188 406.252 780.948 406.792 780.06 406.792C779.856 406.792 778.812 406.792 778.62 406.792C777.696 406.792 777.396 406.504 777.396 405.4V399.004ZM784.476 396.556H790.74V397.432H784.476V396.556ZM784.476 399.448H790.788V400.312H784.476V399.448ZM784.38 402.352H790.728V403.216H784.38V402.352ZM783.924 396.556H784.836V400.264C784.836 402.34 784.536 405.172 782.472 406.972C782.34 406.78 781.98 406.456 781.788 406.324C783.72 404.632 783.924 402.196 783.924 400.264V396.556ZM790.344 396.556H791.28V405.64C791.28 406.276 791.112 406.588 790.656 406.744C790.188 406.9 789.396 406.912 788.1 406.912C788.04 406.648 787.872 406.216 787.716 405.964C788.712 406 789.696 405.988 789.972 405.988C790.248 405.976 790.344 405.892 790.344 405.628V396.556Z" fill="#76848D"/>
<path d="M1045.3 396.052H1046.27C1046.23 400.648 1046.22 404.884 1042.13 406.972C1042 406.744 1041.7 406.42 1041.46 406.252C1045.38 404.368 1045.28 400.408 1045.3 396.052ZM1042.01 399.004H1049.45V399.904H1042.01V399.004ZM1048.9 399.004H1049.82V405.4C1049.82 405.832 1049.88 405.904 1050.25 405.904C1050.42 405.904 1051.26 405.904 1051.49 405.904C1051.82 405.904 1051.88 405.616 1051.92 404.164C1052.14 404.332 1052.52 404.5 1052.77 404.572C1052.69 406.252 1052.45 406.792 1051.56 406.792C1051.36 406.792 1050.31 406.792 1050.12 406.792C1049.2 406.792 1048.9 406.504 1048.9 405.4V399.004ZM1055.98 396.556H1062.24V397.432H1055.98V396.556ZM1055.98 399.448H1062.29V400.312H1055.98V399.448ZM1055.88 402.352H1062.23V403.216H1055.88V402.352ZM1055.42 396.556H1056.34V400.264C1056.34 402.34 1056.04 405.172 1053.97 406.972C1053.84 406.78 1053.48 406.456 1053.29 406.324C1055.22 404.632 1055.42 402.196 1055.42 400.264V396.556ZM1061.84 396.556H1062.78V405.64C1062.78 406.276 1062.61 406.588 1062.16 406.744C1061.69 406.9 1060.9 406.912 1059.6 406.912C1059.54 406.648 1059.37 406.216 1059.22 405.964C1060.21 406 1061.2 405.988 1061.47 405.988C1061.75 405.976 1061.84 405.892 1061.84 405.628V396.556Z" fill="#76848D"/>
<path d="M266.78 400.408H277.544V401.332H266.78V400.408ZM271.652 395.932H272.612V406.96H271.652V395.932ZM278.528 400.828H289.508V401.812H278.528V400.828ZM292.916 396.556H299.18V397.432H292.916V396.556ZM292.916 399.448H299.228V400.312H292.916V399.448ZM292.82 402.352H299.168V403.216H292.82V402.352ZM292.364 396.556H293.276V400.264C293.276 402.34 292.976 405.172 290.912 406.972C290.78 406.78 290.42 406.456 290.228 406.324C292.16 404.632 292.364 402.196 292.364 400.264V396.556ZM298.784 396.556H299.72V405.64C299.72 406.276 299.552 406.588 299.096 406.744C298.628 406.9 297.836 406.912 296.54 406.912C296.48 406.648 296.312 406.216 296.156 405.964C297.152 406 298.136 405.988 298.412 405.988C298.688 405.976 298.784 405.892 298.784 405.628V396.556Z" fill="#76848D"/>
<path d="M537.78 400.408H548.544V401.332H537.78V400.408ZM542.652 395.932H543.612V406.96H542.652V395.932ZM549.528 400.828H560.508V401.812H549.528V400.828ZM563.916 396.556H570.18V397.432H563.916V396.556ZM563.916 399.448H570.228V400.312H563.916V399.448ZM563.82 402.352H570.168V403.216H563.82V402.352ZM563.364 396.556H564.276V400.264C564.276 402.34 563.976 405.172 561.912 406.972C561.78 406.78 561.42 406.456 561.228 406.324C563.16 404.632 563.364 402.196 563.364 400.264V396.556ZM569.784 396.556H570.72V405.64C570.72 406.276 570.552 406.588 570.096 406.744C569.628 406.9 568.836 406.912 567.54 406.912C567.48 406.648 567.312 406.216 567.156 405.964C568.152 406 569.136 405.988 569.412 405.988C569.688 405.976 569.784 405.892 569.784 405.628V396.556Z" fill="#76848D"/>
<path d="M809.78 400.408H820.544V401.332H809.78V400.408ZM814.652 395.932H815.612V406.96H814.652V395.932ZM821.528 400.828H832.508V401.812H821.528V400.828ZM835.916 396.556H842.18V397.432H835.916V396.556ZM835.916 399.448H842.228V400.312H835.916V399.448ZM835.82 402.352H842.168V403.216H835.82V402.352ZM835.364 396.556H836.276V400.264C836.276 402.34 835.976 405.172 833.912 406.972C833.78 406.78 833.42 406.456 833.228 406.324C835.16 404.632 835.364 402.196 835.364 400.264V396.556ZM841.784 396.556H842.72V405.64C842.72 406.276 842.552 406.588 842.096 406.744C841.628 406.9 840.836 406.912 839.54 406.912C839.48 406.648 839.312 406.216 839.156 405.964C840.152 406 841.136 405.988 841.412 405.988C841.688 405.976 841.784 405.892 841.784 405.628V396.556Z" fill="#76848D"/>
<path d="M317.576 402.84H328.472V403.812H317.576V402.84ZM332.276 404.328H337.892V402.312H332.408C332.408 402.936 332.372 403.62 332.276 404.328ZM337.892 399.468H332.408V401.46H337.892V399.468ZM338.816 398.592V407.616C338.816 408.24 338.636 408.552 338.192 408.696C337.736 408.852 336.944 408.864 335.66 408.864C335.6 408.612 335.432 408.192 335.288 407.94C336.284 407.976 337.244 407.964 337.52 407.964C337.796 407.952 337.892 407.868 337.892 407.604V405.204H332.132C331.832 406.56 331.232 407.916 330.068 408.936C329.948 408.744 329.588 408.42 329.408 408.288C331.316 406.608 331.508 404.172 331.508 402.264V398.592H338.816ZM324.435 416.372L323.559 416.06C323.859 414.572 324.987 413.504 326.775 413.504C328.503 413.504 329.559 414.5 329.559 416.024C329.559 416.828 329.211 417.632 328.779 418.208C328.563 418.508 328.287 418.796 327.963 419.096C327.303 419.684 326.835 419.996 326.151 420.428L325.227 421.004H329.871V422H323.331V421.184L325.155 419.972C325.479 419.768 325.707 419.612 325.839 419.516C325.971 419.432 326.187 419.276 326.475 419.072C326.763 418.868 326.979 418.688 327.123 418.556C327.255 418.424 327.435 418.256 327.639 418.04C328.191 417.44 328.395 416.888 328.455 416.132C328.455 415.04 327.747 414.548 326.703 414.548C326.055 414.548 325.539 414.728 325.167 415.088C324.795 415.448 324.543 415.88 324.435 416.372ZM330.727 415.832L330.343 414.932L333.223 413.552H333.907V422H332.875V414.836L330.727 415.832Z" fill="#76848D"/>
<path d="M589.576 402.84H600.472V403.812H589.576V402.84ZM604.276 404.328H609.892V402.312H604.408C604.408 402.936 604.372 403.62 604.276 404.328ZM609.892 399.468H604.408V401.46H609.892V399.468ZM610.816 398.592V407.616C610.816 408.24 610.636 408.552 610.192 408.696C609.736 408.852 608.944 408.864 607.66 408.864C607.6 408.612 607.432 408.192 607.288 407.94C608.284 407.976 609.244 407.964 609.52 407.964C609.796 407.952 609.892 407.868 609.892 407.604V405.204H604.132C603.832 406.56 603.232 407.916 602.068 408.936C601.948 408.744 601.588 408.42 601.408 408.288C603.316 406.608 603.508 404.172 603.508 402.264V398.592H610.816ZM595.128 416.372L594.252 416.06C594.552 414.572 595.68 413.504 597.468 413.504C599.196 413.504 600.252 414.5 600.252 416.024C600.252 416.828 599.904 417.632 599.472 418.208C599.256 418.508 598.98 418.796 598.656 419.096C597.996 419.684 597.528 419.996 596.844 420.428L595.92 421.004H600.564V422H594.024V421.184L595.848 419.972C596.172 419.768 596.4 419.612 596.532 419.516C596.664 419.432 596.88 419.276 597.168 419.072C597.456 418.868 597.672 418.688 597.816 418.556C597.948 418.424 598.128 418.256 598.332 418.04C598.884 417.44 599.088 416.888 599.148 416.132C599.148 415.04 598.44 414.548 597.396 414.548C596.748 414.548 596.232 414.728 595.86 415.088C595.488 415.448 595.236 415.88 595.128 416.372ZM602.476 416.372L601.6 416.06C601.9 414.572 603.028 413.504 604.816 413.504C606.544 413.504 607.6 414.5 607.6 416.024C607.6 416.828 607.252 417.632 606.82 418.208C606.604 418.508 606.328 418.796 606.004 419.096C605.344 419.684 604.876 419.996 604.192 420.428L603.268 421.004H607.912V422H601.372V421.184L603.196 419.972C603.52 419.768 603.748 419.612 603.88 419.516C604.012 419.432 604.228 419.276 604.516 419.072C604.804 418.868 605.02 418.688 605.164 418.556C605.296 418.424 605.476 418.256 605.68 418.04C606.232 417.44 606.436 416.888 606.496 416.132C606.496 415.04 605.788 414.548 604.744 414.548C604.096 414.548 603.58 414.728 603.208 415.088C602.836 415.448 602.584 415.88 602.476 416.372Z" fill="#76848D"/>
<path d="M860.576 402.84H871.472V403.812H860.576V402.84ZM875.276 404.328H880.892V402.312H875.408C875.408 402.936 875.372 403.62 875.276 404.328ZM880.892 399.468H875.408V401.46H880.892V399.468ZM881.816 398.592V407.616C881.816 408.24 881.636 408.552 881.192 408.696C880.736 408.852 879.944 408.864 878.66 408.864C878.6 408.612 878.432 408.192 878.288 407.94C879.284 407.976 880.244 407.964 880.52 407.964C880.796 407.952 880.892 407.868 880.892 407.604V405.204H875.132C874.832 406.56 874.232 407.916 873.068 408.936C872.948 408.744 872.588 408.42 872.408 408.288C874.316 406.608 874.508 404.172 874.508 402.264V398.592H881.816ZM866.099 416.372L865.223 416.06C865.523 414.572 866.651 413.504 868.439 413.504C870.167 413.504 871.223 414.5 871.223 416.024C871.223 416.828 870.875 417.632 870.443 418.208C870.227 418.508 869.951 418.796 869.627 419.096C868.967 419.684 868.499 419.996 867.815 420.428L866.891 421.004H871.535V422H864.995V421.184L866.819 419.972C867.143 419.768 867.371 419.612 867.503 419.516C867.635 419.432 867.851 419.276 868.139 419.072C868.427 418.868 868.643 418.688 868.787 418.556C868.919 418.424 869.099 418.256 869.303 418.04C869.855 417.44 870.059 416.888 870.119 416.132C870.119 415.04 869.411 414.548 868.367 414.548C867.719 414.548 867.203 414.728 866.831 415.088C866.459 415.448 866.207 415.88 866.099 416.372ZM873.315 416.048L872.415 415.64C872.859 414.344 874.023 413.492 875.763 413.492C876.591 413.492 877.275 413.684 877.803 414.068C878.331 414.452 878.595 414.968 878.595 415.604C878.595 416.576 878.079 417.296 877.119 417.572C878.043 417.632 878.787 418.328 878.787 419.576C878.787 420.368 878.499 420.992 877.923 421.436C877.347 421.88 876.615 422.108 875.715 422.108C873.879 422.108 872.607 421.232 872.187 419.852L873.159 419.432C873.675 420.524 874.551 421.076 875.787 421.076C876.951 421.076 877.683 420.536 877.683 419.588C877.683 418.664 876.963 418.196 875.523 418.196H874.587V417.2H875.331C876.639 417.2 877.491 416.612 877.491 415.808C877.491 414.98 876.807 414.512 875.715 414.512C874.431 414.512 873.651 415.172 873.315 416.048Z" fill="#76848D"/>
<path d="M1086.28 400.408H1097.04V401.332H1086.28V400.408ZM1091.15 395.932H1092.11V406.96H1091.15V395.932ZM1098.03 400.828H1109.01V401.812H1098.03V400.828ZM1112.42 396.556H1118.68V397.432H1112.42V396.556ZM1112.42 399.448H1118.73V400.312H1112.42V399.448ZM1112.32 402.352H1118.67V403.216H1112.32V402.352ZM1111.86 396.556H1112.78V400.264C1112.78 402.34 1112.48 405.172 1110.41 406.972C1110.28 406.78 1109.92 406.456 1109.73 406.324C1111.66 404.632 1111.86 402.196 1111.86 400.264V396.556ZM1118.28 396.556H1119.22V405.64C1119.22 406.276 1119.05 406.588 1118.6 406.744C1118.13 406.9 1117.34 406.912 1116.04 406.912C1115.98 406.648 1115.81 406.216 1115.66 405.964C1116.65 406 1117.64 405.988 1117.91 405.988C1118.19 405.976 1118.28 405.892 1118.28 405.628V396.556Z" fill="#76848D"/>
<path d="M59 258.883L103.989 230.324L127.734 245.397H150.229L172.723 198.592L196.468 225.564L217.713 198.592L240.207 196.212L262.702 242.223L286.447 258.883L311.441 239.844L333.936 160.514L355.181 32L376.426 201.765L398.92 207.318L421.415 223.184L445.159 227.944L466.404 215.251L488.899 251.743L512.644 243.81L537.638 221.598L557.633 225.564L582.627 219.218L603.872 254.916L625.117 316L648.862 297.754L672.606 295.374L693.851 279.508L717.596 249.363L740.09 266.022L762.585 241.43L805.075 267.609L831.319 262.849L852.564 284.268L876.308 289.028L897.553 176.38L968.787 239.844L987.532 269.989L1012.53 235.084L1035.02 261.263L1058.77 221.598L1080.01 228.737L1103.75 227.151L1125 211.285" stroke="#CAD5F0" stroke-width="2" stroke-miterlimit="16" stroke-linecap="round" stroke-linejoin="round"/>
<path d="M61 269.412L80.9906 263.892L105.979 267.835L129.718 250.485L150.958 223.67L169.699 231.557L198.435 228.402L223.424 231.557L247.162 228.402L269.652 220.515L290.892 206.32L313.381 209.474L329.624 185.814L354.612 159L379.6 179.505L400.84 185.814L420.831 218.149H473.306L520.784 220.515L539.525 226.036L559.515 246.541L582.005 237.866L608.242 259.948L629.482 257.582L648.224 278.876L671.962 293.861H700.699L719.44 289.129L740.68 293.861L765.668 287.552L811.897 297.804L874.367 312L900.605 289.129L941.835 278.876H991.812L1011.8 268.624H1040.54L1056.78 263.103L1080.52 261.526L1103.01 246.541L1123 237.866" stroke="#737AF9" stroke-width="2" stroke-miterlimit="16" stroke-linecap="round" stroke-linejoin="round"/>
<path d="M59 270.468L85.2438 250L126.484 361L150.229 331.085L192.719 307.468L237.708 285.426L265.202 275.979L287.696 285.426L312.69 275.979L332.686 259.447L352.681 275.979L378.925 231.106L400.17 65L422.665 159.468L446.409 182.298L465.155 215.362L485.15 220.872L508.894 227.17L536.388 240.553L560.132 232.681L587.626 246.064L606.372 264.17H630.116H648.862L671.356 278.34L706.348 271.255L738.841 266.532L775.082 271.255L811.324 285.426L828.819 294.872L876.308 287.787L897.553 271.255L921.298 274.404L947.542 266.532L968.787 264.17L988.782 253.936L1007.53 261.021L1031.27 259.447L1050.02 236.617L1060.02 227.17L1080.01 220.085L1102.51 205.915L1125 201.191" stroke="#60CCCC" stroke-width="2" stroke-miterlimit="16" stroke-linecap="round" stroke-linejoin="round"/>
<path d="M59 267.915L87.7433 276.574L108.988 298.617L128.984 306.489L151.478 286.021L195.218 290.745H227.71L276.449 276.574L288.946 271.851L332.686 234.851L353.931 206.511L377.675 201.787L400.17 164L422.665 219.894L442.66 211.234L491.399 215.17L512.644 227.766L536.388 219.894L557.633 239.574L585.127 244.298L606.372 256.106L626.367 260.83L648.862 303.34L671.356 312L701.349 293.894L718.845 286.809L745.089 290.745L762.585 297.83L785.08 293.894L807.574 305.702L835.068 303.34L871.309 312L901.302 286.809L920.048 258.468L945.042 252.17L966.287 260.83L993.781 259.255L1032.52 239.574L1062.51 237.213L1076.26 239.574H1102.51L1125 232.489" stroke="#4A4CCC" stroke-width="2" stroke-miterlimit="16" stroke-linecap="round" stroke-linejoin="round"/>
<path d="M61 261.748L85.9765 244.313L128.437 341L150.915 317.224L170.897 314.847L205.864 304.544L228.343 298.997L248.324 287.901L285.789 285.524L313.263 281.561L334.493 275.221L355.723 288.694L369.46 246.69L380.7 210.235L400.681 108L421.911 173.779L450.634 188.044L478.108 196.762L513.075 203.895H536.803L559.282 212.612L581.761 196.762L605.488 223.707L626.718 212.612L660.437 223.707L682.915 230.84L719.131 237.973L741.61 241.935L766.587 241.143L785.319 246.69L812.793 260.163L852.756 269.673H877.732L943.92 288.694L968.897 281.561L985.131 266.503L1020.1 269.673L1036.33 266.503H1067.55L1102.52 252.238L1125 250.653" stroke="#2F80DE" stroke-width="2" stroke-miterlimit="16" stroke-linecap="round" stroke-linejoin="round"/>
<path d="M106 293.196L129.709 332L149.675 299.531H173.384L198.341 293.196L217.059 269.438L248.255 248.848L265.725 243.304L288.187 248.848L309.4 243.304L334.357 214.795L355.571 203.708L379.28 163.32L401.741 77L422.955 171.239L445.416 163.32L470.373 177.575L491.587 210.835L515.296 221.13L536.509 245.68L563.962 251.224L585.175 253.599L606.389 274.981L626.355 284.484L648.816 281.317L673.773 289.236H693.739L714.952 276.565L737.414 284.484L764.866 281.317L796.063 291.433H833.498L854.712 303.491L877.173 297.155L899.634 266.27L932.079 270.23L960.779 263.102L985.736 255.975L1015.68 253.599L1041.89 248.848L1066.85 238.553L1103.03 233.009L1123 214.795" stroke="#ACAEEA" stroke-width="2" stroke-miterlimit="16" stroke-linecap="round" stroke-linejoin="round"/>
</svg>
