<svg width="335" height="279" viewBox="0 0 335 279" fill="none" xmlns="http://www.w3.org/2000/svg">
<line x1="37" y1="149.5" x2="335" y2="149.5" stroke="#ABBEC9"/>
<line x1="3.96473e-08" y1="258.5" x2="335" y2="258.5" stroke="#CEE0ED"/>
<path d="M9.23672 187.136H3.66872V186.236H9.23672V187.136ZM10.2108 184.832L9.82678 183.932L12.7068 182.552H13.3908V191H12.3588V183.836L10.2108 184.832ZM14.9212 186.8C14.9212 185.504 15.2212 184.46 15.8332 183.68C16.4332 182.9 17.3212 182.504 18.4852 182.504C20.8732 182.504 22.0612 184.076 22.0612 186.8C22.0612 188.108 21.7612 189.14 21.1732 189.92C20.5732 190.7 19.6852 191.096 18.5092 191.096C17.3812 191.096 16.5052 190.7 15.8692 189.908C15.2332 189.116 14.9212 188.084 14.9212 186.8ZM16.0252 186.8C16.0252 188.852 16.9612 190.076 18.5092 190.076C20.1412 190.076 20.9572 188.984 20.9572 186.8C20.9572 184.616 20.1292 183.524 18.4852 183.524C16.8172 183.524 16.0252 184.724 16.0252 186.8ZM25.0454 191.18L24.2534 190.724L30.4574 182.336L31.2134 182.888L25.0454 191.18ZM22.9574 184.616C22.9574 184.016 23.1614 183.524 23.5814 183.14C24.0014 182.756 24.5174 182.564 25.1534 182.564C25.7774 182.564 26.2934 182.756 26.7134 183.14C27.1334 183.524 27.3374 184.016 27.3374 184.616C27.3374 185.204 27.1334 185.696 26.7134 186.08C26.2934 186.464 25.7774 186.656 25.1534 186.656C24.5174 186.656 24.0014 186.464 23.5814 186.08C23.1614 185.696 22.9574 185.204 22.9574 184.616ZM23.9654 184.616C23.9654 185.3 24.5174 185.804 25.1534 185.804C25.8134 185.804 26.3294 185.324 26.3294 184.616C26.3294 183.908 25.7894 183.428 25.1534 183.428C24.4934 183.428 23.9654 183.908 23.9654 184.616ZM28.7294 190.472C28.3094 190.088 28.1054 189.596 28.1054 188.996C28.1054 188.396 28.3094 187.904 28.7294 187.52C29.1494 187.148 29.6654 186.956 30.3014 186.956C30.9254 186.956 31.4414 187.148 31.8614 187.52C32.2814 187.904 32.4854 188.396 32.4854 188.996C32.4854 189.584 32.2814 190.076 31.8614 190.46C31.4414 190.856 30.9254 191.048 30.3014 191.048C29.6654 191.048 29.1494 190.856 28.7294 190.472ZM29.1134 188.996C29.1134 189.68 29.6654 190.184 30.3014 190.184C30.9614 190.184 31.4774 189.704 31.4774 188.996C31.4774 188.288 30.9374 187.808 30.3014 187.808C29.6414 187.808 29.1134 188.288 29.1134 188.996Z" fill="#76848D"/>
<path d="M10.2108 110.832L9.82678 109.932L12.7068 108.552H13.3908V117H12.3588V109.836L10.2108 110.832ZM14.9212 112.8C14.9212 111.504 15.2212 110.46 15.8332 109.68C16.4332 108.9 17.3212 108.504 18.4852 108.504C20.8732 108.504 22.0612 110.076 22.0612 112.8C22.0612 114.108 21.7612 115.14 21.1732 115.92C20.5732 116.7 19.6852 117.096 18.5092 117.096C17.3812 117.096 16.5052 116.7 15.8692 115.908C15.2332 115.116 14.9212 114.084 14.9212 112.8ZM16.0252 112.8C16.0252 114.852 16.9612 116.076 18.5092 116.076C20.1412 116.076 20.9572 114.984 20.9572 112.8C20.9572 110.616 20.1292 109.524 18.4852 109.524C16.8172 109.524 16.0252 110.724 16.0252 112.8ZM25.0454 117.18L24.2534 116.724L30.4574 108.336L31.2134 108.888L25.0454 117.18ZM22.9574 110.616C22.9574 110.016 23.1614 109.524 23.5814 109.14C24.0014 108.756 24.5174 108.564 25.1534 108.564C25.7774 108.564 26.2934 108.756 26.7134 109.14C27.1334 109.524 27.3374 110.016 27.3374 110.616C27.3374 111.204 27.1334 111.696 26.7134 112.08C26.2934 112.464 25.7774 112.656 25.1534 112.656C24.5174 112.656 24.0014 112.464 23.5814 112.08C23.1614 111.696 22.9574 111.204 22.9574 110.616ZM23.9654 110.616C23.9654 111.3 24.5174 111.804 25.1534 111.804C25.8134 111.804 26.3294 111.324 26.3294 110.616C26.3294 109.908 25.7894 109.428 25.1534 109.428C24.4934 109.428 23.9654 109.908 23.9654 110.616ZM28.7294 116.472C28.3094 116.088 28.1054 115.596 28.1054 114.996C28.1054 114.396 28.3094 113.904 28.7294 113.52C29.1494 113.148 29.6654 112.956 30.3014 112.956C30.9254 112.956 31.4414 113.148 31.8614 113.52C32.2814 113.904 32.4854 114.396 32.4854 114.996C32.4854 115.584 32.2814 116.076 31.8614 116.46C31.4414 116.856 30.9254 117.048 30.3014 117.048C29.6654 117.048 29.1494 116.856 28.7294 116.472ZM29.1134 114.996C29.1134 115.68 29.6654 116.184 30.3014 116.184C30.9614 116.184 31.4774 115.704 31.4774 114.996C31.4774 114.288 30.9374 113.808 30.3014 113.808C29.6414 113.808 29.1134 114.288 29.1134 114.996Z" fill="#76848D"/>
<path d="M8.6535 75.372L7.7775 75.06C8.0775 73.572 9.2055 72.504 10.9935 72.504C12.7215 72.504 13.7775 73.5 13.7775 75.024C13.7775 75.828 13.4295 76.632 12.9975 77.208C12.7815 77.508 12.5055 77.796 12.1815 78.096C11.5215 78.684 11.0535 78.996 10.3695 79.428L9.4455 80.004H14.0895V81H7.5495V80.184L9.3735 78.972C9.6975 78.768 9.9255 78.612 10.0575 78.516C10.1895 78.432 10.4055 78.276 10.6935 78.072C10.9815 77.868 11.1975 77.688 11.3415 77.556C11.4735 77.424 11.6535 77.256 11.8575 77.04C12.4095 76.44 12.6135 75.888 12.6735 75.132C12.6735 74.04 11.9655 73.548 10.9215 73.548C10.2735 73.548 9.7575 73.728 9.3855 74.088C9.0135 74.448 8.7615 74.88 8.6535 75.372ZM14.9212 76.8C14.9212 75.504 15.2212 74.46 15.8332 73.68C16.4332 72.9 17.3212 72.504 18.4852 72.504C20.8732 72.504 22.0612 74.076 22.0612 76.8C22.0612 78.108 21.7612 79.14 21.1732 79.92C20.5732 80.7 19.6852 81.096 18.5092 81.096C17.3812 81.096 16.5052 80.7 15.8692 79.908C15.2332 79.116 14.9212 78.084 14.9212 76.8ZM16.0252 76.8C16.0252 78.852 16.9612 80.076 18.5092 80.076C20.1412 80.076 20.9572 78.984 20.9572 76.8C20.9572 74.616 20.1292 73.524 18.4852 73.524C16.8172 73.524 16.0252 74.724 16.0252 76.8ZM25.0454 81.18L24.2534 80.724L30.4574 72.336L31.2134 72.888L25.0454 81.18ZM22.9574 74.616C22.9574 74.016 23.1614 73.524 23.5814 73.14C24.0014 72.756 24.5174 72.564 25.1534 72.564C25.7774 72.564 26.2934 72.756 26.7134 73.14C27.1334 73.524 27.3374 74.016 27.3374 74.616C27.3374 75.204 27.1334 75.696 26.7134 76.08C26.2934 76.464 25.7774 76.656 25.1534 76.656C24.5174 76.656 24.0014 76.464 23.5814 76.08C23.1614 75.696 22.9574 75.204 22.9574 74.616ZM23.9654 74.616C23.9654 75.3 24.5174 75.804 25.1534 75.804C25.8134 75.804 26.3294 75.324 26.3294 74.616C26.3294 73.908 25.7894 73.428 25.1534 73.428C24.4934 73.428 23.9654 73.908 23.9654 74.616ZM28.7294 80.472C28.3094 80.088 28.1054 79.596 28.1054 78.996C28.1054 78.396 28.3094 77.904 28.7294 77.52C29.1494 77.148 29.6654 76.956 30.3014 76.956C30.9254 76.956 31.4414 77.148 31.8614 77.52C32.2814 77.904 32.4854 78.396 32.4854 78.996C32.4854 79.584 32.2814 80.076 31.8614 80.46C31.4414 80.856 30.9254 81.048 30.3014 81.048C29.6654 81.048 29.1494 80.856 28.7294 80.472ZM29.1134 78.996C29.1134 79.68 29.6654 80.184 30.3014 80.184C30.9614 80.184 31.4774 79.704 31.4774 78.996C31.4774 78.288 30.9374 77.808 30.3014 77.808C29.6414 77.808 29.1134 78.288 29.1134 78.996Z" fill="#76848D"/>
<path d="M8.46291 39.048L7.56291 38.64C8.00691 37.344 9.17091 36.492 10.9109 36.492C11.7389 36.492 12.4229 36.684 12.9509 37.068C13.4789 37.452 13.7429 37.968 13.7429 38.604C13.7429 39.576 13.2269 40.296 12.2669 40.572C13.1909 40.632 13.9349 41.328 13.9349 42.576C13.9349 43.368 13.6469 43.992 13.0709 44.436C12.4949 44.88 11.7629 45.108 10.8629 45.108C9.02691 45.108 7.75491 44.232 7.33491 42.852L8.30691 42.432C8.82291 43.524 9.69891 44.076 10.9349 44.076C12.0989 44.076 12.8309 43.536 12.8309 42.588C12.8309 41.664 12.1109 41.196 10.6709 41.196H9.73491V40.2H10.4789C11.7869 40.2 12.6389 39.612 12.6389 38.808C12.6389 37.98 11.9549 37.512 10.8629 37.512C9.57891 37.512 8.79891 38.172 8.46291 39.048ZM14.9212 40.8C14.9212 39.504 15.2212 38.46 15.8332 37.68C16.4332 36.9 17.3212 36.504 18.4852 36.504C20.8732 36.504 22.0612 38.076 22.0612 40.8C22.0612 42.108 21.7612 43.14 21.1732 43.92C20.5732 44.7 19.6852 45.096 18.5092 45.096C17.3812 45.096 16.5052 44.7 15.8692 43.908C15.2332 43.116 14.9212 42.084 14.9212 40.8ZM16.0252 40.8C16.0252 42.852 16.9612 44.076 18.5092 44.076C20.1412 44.076 20.9572 42.984 20.9572 40.8C20.9572 38.616 20.1292 37.524 18.4852 37.524C16.8172 37.524 16.0252 38.724 16.0252 40.8ZM25.0454 45.18L24.2534 44.724L30.4574 36.336L31.2134 36.888L25.0454 45.18ZM22.9574 38.616C22.9574 38.016 23.1614 37.524 23.5814 37.14C24.0014 36.756 24.5174 36.564 25.1534 36.564C25.7774 36.564 26.2934 36.756 26.7134 37.14C27.1334 37.524 27.3374 38.016 27.3374 38.616C27.3374 39.204 27.1334 39.696 26.7134 40.08C26.2934 40.464 25.7774 40.656 25.1534 40.656C24.5174 40.656 24.0014 40.464 23.5814 40.08C23.1614 39.696 22.9574 39.204 22.9574 38.616ZM23.9654 38.616C23.9654 39.3 24.5174 39.804 25.1534 39.804C25.8134 39.804 26.3294 39.324 26.3294 38.616C26.3294 37.908 25.7894 37.428 25.1534 37.428C24.4934 37.428 23.9654 37.908 23.9654 38.616ZM28.7294 44.472C28.3094 44.088 28.1054 43.596 28.1054 42.996C28.1054 42.396 28.3094 41.904 28.7294 41.52C29.1494 41.148 29.6654 40.956 30.3014 40.956C30.9254 40.956 31.4414 41.148 31.8614 41.52C32.2814 41.904 32.4854 42.396 32.4854 42.996C32.4854 43.584 32.2814 44.076 31.8614 44.46C31.4414 44.856 30.9254 45.048 30.3014 45.048C29.6654 45.048 29.1494 44.856 28.7294 44.472ZM29.1134 42.996C29.1134 43.68 29.6654 44.184 30.3014 44.184C30.9614 44.184 31.4774 43.704 31.4774 42.996C31.4774 42.288 30.9374 41.808 30.3014 41.808C29.6414 41.808 29.1134 42.288 29.1134 42.996Z" fill="#76848D"/>
<path d="M12.7747 9H11.7307V7.284H6.59466V6.588L11.8507 0.599999H12.7747V6.312H14.3347V7.284H12.7747V9ZM11.7307 2.28L8.03466 6.312H11.7307V2.28ZM14.9212 4.8C14.9212 3.504 15.2212 2.46 15.8332 1.68C16.4332 0.9 17.3212 0.504 18.4852 0.504C20.8732 0.504 22.0612 2.076 22.0612 4.8C22.0612 6.108 21.7612 7.14 21.1732 7.92C20.5732 8.7 19.6852 9.096 18.5092 9.096C17.3812 9.096 16.5052 8.7 15.8692 7.908C15.2332 7.116 14.9212 6.084 14.9212 4.8ZM16.0252 4.8C16.0252 6.852 16.9612 8.076 18.5092 8.076C20.1412 8.076 20.9572 6.984 20.9572 4.8C20.9572 2.616 20.1292 1.524 18.4852 1.524C16.8172 1.524 16.0252 2.724 16.0252 4.8ZM25.0454 9.18L24.2534 8.724L30.4574 0.335999L31.2134 0.887999L25.0454 9.18ZM22.9574 2.616C22.9574 2.016 23.1614 1.524 23.5814 1.14C24.0014 0.756 24.5174 0.564 25.1534 0.564C25.7774 0.564 26.2934 0.756 26.7134 1.14C27.1334 1.524 27.3374 2.016 27.3374 2.616C27.3374 3.204 27.1334 3.696 26.7134 4.08C26.2934 4.464 25.7774 4.656 25.1534 4.656C24.5174 4.656 24.0014 4.464 23.5814 4.08C23.1614 3.696 22.9574 3.204 22.9574 2.616ZM23.9654 2.616C23.9654 3.3 24.5174 3.804 25.1534 3.804C25.8134 3.804 26.3294 3.324 26.3294 2.616C26.3294 1.908 25.7894 1.428 25.1534 1.428C24.4934 1.428 23.9654 1.908 23.9654 2.616ZM28.7294 8.472C28.3094 8.088 28.1054 7.596 28.1054 6.996C28.1054 6.396 28.3094 5.904 28.7294 5.52C29.1494 5.148 29.6654 4.956 30.3014 4.956C30.9254 4.956 31.4414 5.148 31.8614 5.52C32.2814 5.904 32.4854 6.396 32.4854 6.996C32.4854 7.584 32.2814 8.076 31.8614 8.46C31.4414 8.856 30.9254 9.048 30.3014 9.048C29.6654 9.048 29.1494 8.856 28.7294 8.472ZM29.1134 6.996C29.1134 7.68 29.6654 8.184 30.3014 8.184C30.9614 8.184 31.4774 7.704 31.4774 6.996C31.4774 6.288 30.9374 5.808 30.3014 5.808C29.6414 5.808 29.1134 6.288 29.1134 6.996Z" fill="#76848D"/>
<path d="M14.9212 148.8C14.9212 147.504 15.2212 146.46 15.8332 145.68C16.4332 144.9 17.3212 144.504 18.4852 144.504C20.8732 144.504 22.0612 146.076 22.0612 148.8C22.0612 150.108 21.7612 151.14 21.1732 151.92C20.5732 152.7 19.6852 153.096 18.5092 153.096C17.3812 153.096 16.5052 152.7 15.8692 151.908C15.2332 151.116 14.9212 150.084 14.9212 148.8ZM16.0252 148.8C16.0252 150.852 16.9612 152.076 18.5092 152.076C20.1412 152.076 20.9572 150.984 20.9572 148.8C20.9572 146.616 20.1292 145.524 18.4852 145.524C16.8172 145.524 16.0252 146.724 16.0252 148.8ZM25.0454 153.18L24.2534 152.724L30.4574 144.336L31.2134 144.888L25.0454 153.18ZM22.9574 146.616C22.9574 146.016 23.1614 145.524 23.5814 145.14C24.0014 144.756 24.5174 144.564 25.1534 144.564C25.7774 144.564 26.2934 144.756 26.7134 145.14C27.1334 145.524 27.3374 146.016 27.3374 146.616C27.3374 147.204 27.1334 147.696 26.7134 148.08C26.2934 148.464 25.7774 148.656 25.1534 148.656C24.5174 148.656 24.0014 148.464 23.5814 148.08C23.1614 147.696 22.9574 147.204 22.9574 146.616ZM23.9654 146.616C23.9654 147.3 24.5174 147.804 25.1534 147.804C25.8134 147.804 26.3294 147.324 26.3294 146.616C26.3294 145.908 25.7894 145.428 25.1534 145.428C24.4934 145.428 23.9654 145.908 23.9654 146.616ZM28.7294 152.472C28.3094 152.088 28.1054 151.596 28.1054 150.996C28.1054 150.396 28.3094 149.904 28.7294 149.52C29.1494 149.148 29.6654 148.956 30.3014 148.956C30.9254 148.956 31.4414 149.148 31.8614 149.52C32.2814 149.904 32.4854 150.396 32.4854 150.996C32.4854 151.584 32.2814 152.076 31.8614 152.46C31.4414 152.856 30.9254 153.048 30.3014 153.048C29.6654 153.048 29.1494 152.856 28.7294 152.472ZM29.1134 150.996C29.1134 151.68 29.6654 152.184 30.3014 152.184C30.9614 152.184 31.4774 151.704 31.4774 150.996C31.4774 150.288 30.9374 149.808 30.3014 149.808C29.6414 149.808 29.1134 150.288 29.1134 150.996Z" fill="#76848D"/>
<path d="M6.62344 223.136H1.05544V222.236H6.62344V223.136ZM8.6535 221.372L7.7775 221.06C8.0775 219.572 9.2055 218.504 10.9935 218.504C12.7215 218.504 13.7775 219.5 13.7775 221.024C13.7775 221.828 13.4295 222.632 12.9975 223.208C12.7815 223.508 12.5055 223.796 12.1815 224.096C11.5215 224.684 11.0535 224.996 10.3695 225.428L9.4455 226.004H14.0895V227H7.5495V226.184L9.3735 224.972C9.6975 224.768 9.9255 224.612 10.0575 224.516C10.1895 224.432 10.4055 224.276 10.6935 224.072C10.9815 223.868 11.1975 223.688 11.3415 223.556C11.4735 223.424 11.6535 223.256 11.8575 223.04C12.4095 222.44 12.6135 221.888 12.6735 221.132C12.6735 220.04 11.9655 219.548 10.9215 219.548C10.2735 219.548 9.7575 219.728 9.3855 220.088C9.0135 220.448 8.7615 220.88 8.6535 221.372ZM14.9212 222.8C14.9212 221.504 15.2212 220.46 15.8332 219.68C16.4332 218.9 17.3212 218.504 18.4852 218.504C20.8732 218.504 22.0612 220.076 22.0612 222.8C22.0612 224.108 21.7612 225.14 21.1732 225.92C20.5732 226.7 19.6852 227.096 18.5092 227.096C17.3812 227.096 16.5052 226.7 15.8692 225.908C15.2332 225.116 14.9212 224.084 14.9212 222.8ZM16.0252 222.8C16.0252 224.852 16.9612 226.076 18.5092 226.076C20.1412 226.076 20.9572 224.984 20.9572 222.8C20.9572 220.616 20.1292 219.524 18.4852 219.524C16.8172 219.524 16.0252 220.724 16.0252 222.8ZM25.0454 227.18L24.2534 226.724L30.4574 218.336L31.2134 218.888L25.0454 227.18ZM22.9574 220.616C22.9574 220.016 23.1614 219.524 23.5814 219.14C24.0014 218.756 24.5174 218.564 25.1534 218.564C25.7774 218.564 26.2934 218.756 26.7134 219.14C27.1334 219.524 27.3374 220.016 27.3374 220.616C27.3374 221.204 27.1334 221.696 26.7134 222.08C26.2934 222.464 25.7774 222.656 25.1534 222.656C24.5174 222.656 24.0014 222.464 23.5814 222.08C23.1614 221.696 22.9574 221.204 22.9574 220.616ZM23.9654 220.616C23.9654 221.3 24.5174 221.804 25.1534 221.804C25.8134 221.804 26.3294 221.324 26.3294 220.616C26.3294 219.908 25.7894 219.428 25.1534 219.428C24.4934 219.428 23.9654 219.908 23.9654 220.616ZM28.7294 226.472C28.3094 226.088 28.1054 225.596 28.1054 224.996C28.1054 224.396 28.3094 223.904 28.7294 223.52C29.1494 223.148 29.6654 222.956 30.3014 222.956C30.9254 222.956 31.4414 223.148 31.8614 223.52C32.2814 223.904 32.4854 224.396 32.4854 224.996C32.4854 225.584 32.2814 226.076 31.8614 226.46C31.4414 226.856 30.9254 227.048 30.3014 227.048C29.6654 227.048 29.1494 226.856 28.7294 226.472ZM29.1134 224.996C29.1134 225.68 29.6654 226.184 30.3014 226.184C30.9614 226.184 31.4774 225.704 31.4774 224.996C31.4774 224.288 30.9374 223.808 30.3014 223.808C29.6414 223.808 29.1134 224.288 29.1134 224.996Z" fill="#76848D"/>
<line x1="37" y1="77.5" x2="335" y2="77.5001" stroke="#CEE0ED"/>
<line x1="37" y1="41.5" x2="335" y2="41.5001" stroke="#CEE0ED"/>
<line x1="37" y1="5.5" x2="335" y2="5.50005" stroke="#CEE0ED"/>
<line x1="37" y1="186.5" x2="335" y2="186.5" stroke="#CEE0ED"/>
<line x1="37" y1="113.5" x2="335" y2="113.5" stroke="#CEE0ED"/>
<line x1="37" y1="222.5" x2="335" y2="222.5" stroke="#CEE0ED"/>
<path d="M39.863 269.372L38.987 269.06C39.287 267.572 40.415 266.504 42.203 266.504C43.931 266.504 44.987 267.5 44.987 269.024C44.987 269.828 44.639 270.632 44.207 271.208C43.991 271.508 43.715 271.796 43.391 272.096C42.731 272.684 42.263 272.996 41.579 273.428L40.655 274.004H45.299V275H38.759V274.184L40.583 272.972C40.907 272.768 41.135 272.612 41.267 272.516C41.399 272.432 41.615 272.276 41.903 272.072C42.191 271.868 42.407 271.688 42.551 271.556C42.683 271.424 42.863 271.256 43.067 271.04C43.619 270.44 43.823 269.888 43.883 269.132C43.883 268.04 43.175 267.548 42.131 267.548C41.483 267.548 40.967 267.728 40.595 268.088C40.223 268.448 39.971 268.88 39.863 269.372ZM46.1307 270.8C46.1307 269.504 46.4307 268.46 47.0427 267.68C47.6427 266.9 48.5307 266.504 49.6947 266.504C52.0827 266.504 53.2707 268.076 53.2707 270.8C53.2707 272.108 52.9707 273.14 52.3827 273.92C51.7827 274.7 50.8947 275.096 49.7187 275.096C48.5907 275.096 47.7147 274.7 47.0787 273.908C46.4427 273.116 46.1307 272.084 46.1307 270.8ZM47.2347 270.8C47.2347 272.852 48.1707 274.076 49.7187 274.076C51.3507 274.076 52.1667 272.984 52.1667 270.8C52.1667 268.616 51.3387 267.524 49.6947 267.524C48.0267 267.524 47.2347 268.724 47.2347 270.8ZM55.1269 269.372L54.2509 269.06C54.5509 267.572 55.6789 266.504 57.4669 266.504C59.1949 266.504 60.2509 267.5 60.2509 269.024C60.2509 269.828 59.9029 270.632 59.4709 271.208C59.2549 271.508 58.9789 271.796 58.6549 272.096C57.9949 272.684 57.5269 272.996 56.8429 273.428L55.9189 274.004H60.5629V275H54.0229V274.184L55.8469 272.972C56.1709 272.768 56.3989 272.612 56.5309 272.516C56.6629 272.432 56.8789 272.276 57.1669 272.072C57.4549 271.868 57.6709 271.688 57.8149 271.556C57.9469 271.424 58.1269 271.256 58.3309 271.04C58.8829 270.44 59.0869 269.888 59.1469 269.132C59.1469 268.04 58.4389 267.548 57.3949 267.548C56.7469 267.548 56.2309 267.728 55.8589 268.088C55.4869 268.448 55.2349 268.88 55.1269 269.372ZM61.2986 268.832L60.9146 267.932L63.7946 266.552H64.4786V275H63.4466V267.836L61.2986 268.832Z" fill="#76848D"/>
<path d="M168.056 269.372L167.18 269.06C167.48 267.572 168.608 266.504 170.396 266.504C172.124 266.504 173.18 267.5 173.18 269.024C173.18 269.828 172.832 270.632 172.4 271.208C172.184 271.508 171.908 271.796 171.584 272.096C170.924 272.684 170.456 272.996 169.772 273.428L168.848 274.004H173.492V275H166.952V274.184L168.776 272.972C169.1 272.768 169.328 272.612 169.46 272.516C169.592 272.432 169.808 272.276 170.096 272.072C170.384 271.868 170.6 271.688 170.744 271.556C170.876 271.424 171.056 271.256 171.26 271.04C171.812 270.44 172.016 269.888 172.076 269.132C172.076 268.04 171.368 267.548 170.324 267.548C169.676 267.548 169.16 267.728 168.788 268.088C168.416 268.448 168.164 268.88 168.056 269.372ZM174.324 270.8C174.324 269.504 174.624 268.46 175.236 267.68C175.836 266.9 176.724 266.504 177.888 266.504C180.276 266.504 181.464 268.076 181.464 270.8C181.464 272.108 181.164 273.14 180.576 273.92C179.976 274.7 179.088 275.096 177.912 275.096C176.784 275.096 175.908 274.7 175.272 273.908C174.636 273.116 174.324 272.084 174.324 270.8ZM175.428 270.8C175.428 272.852 176.364 274.076 177.912 274.076C179.544 274.076 180.36 272.984 180.36 270.8C180.36 268.616 179.532 267.524 177.888 267.524C176.22 267.524 175.428 268.724 175.428 270.8ZM183.32 269.372L182.444 269.06C182.744 267.572 183.872 266.504 185.66 266.504C187.388 266.504 188.444 267.5 188.444 269.024C188.444 269.828 188.096 270.632 187.664 271.208C187.448 271.508 187.172 271.796 186.848 272.096C186.188 272.684 185.72 272.996 185.036 273.428L184.112 274.004H188.756V275H182.216V274.184L184.04 272.972C184.364 272.768 184.592 272.612 184.724 272.516C184.856 272.432 185.072 272.276 185.36 272.072C185.648 271.868 185.864 271.688 186.008 271.556C186.14 271.424 186.32 271.256 186.524 271.04C187.076 270.44 187.28 269.888 187.34 269.132C187.34 268.04 186.632 267.548 185.588 267.548C184.94 267.548 184.424 267.728 184.052 268.088C183.68 268.448 183.428 268.88 183.32 269.372ZM190.548 269.372L189.672 269.06C189.972 267.572 191.1 266.504 192.888 266.504C194.616 266.504 195.672 267.5 195.672 269.024C195.672 269.828 195.324 270.632 194.892 271.208C194.676 271.508 194.4 271.796 194.076 272.096C193.416 272.684 192.948 272.996 192.264 273.428L191.34 274.004H195.984V275H189.444V274.184L191.268 272.972C191.592 272.768 191.82 272.612 191.952 272.516C192.084 272.432 192.3 272.276 192.588 272.072C192.876 271.868 193.092 271.688 193.236 271.556C193.368 271.424 193.548 271.256 193.752 271.04C194.304 270.44 194.508 269.888 194.568 269.132C194.568 268.04 193.86 267.548 192.816 267.548C192.168 267.548 191.652 267.728 191.28 268.088C190.908 268.448 190.656 268.88 190.548 269.372Z" fill="#76848D"/>
<path d="M297.027 269.372L296.151 269.06C296.451 267.572 297.579 266.504 299.367 266.504C301.095 266.504 302.151 267.5 302.151 269.024C302.151 269.828 301.803 270.632 301.371 271.208C301.155 271.508 300.879 271.796 300.555 272.096C299.895 272.684 299.427 272.996 298.743 273.428L297.819 274.004H302.463V275H295.923V274.184L297.747 272.972C298.071 272.768 298.299 272.612 298.431 272.516C298.563 272.432 298.779 272.276 299.067 272.072C299.355 271.868 299.571 271.688 299.715 271.556C299.847 271.424 300.027 271.256 300.231 271.04C300.783 270.44 300.987 269.888 301.047 269.132C301.047 268.04 300.339 267.548 299.295 267.548C298.647 267.548 298.131 267.728 297.759 268.088C297.387 268.448 297.135 268.88 297.027 269.372ZM303.295 270.8C303.295 269.504 303.595 268.46 304.207 267.68C304.807 266.9 305.695 266.504 306.859 266.504C309.247 266.504 310.435 268.076 310.435 270.8C310.435 272.108 310.135 273.14 309.547 273.92C308.947 274.7 308.059 275.096 306.883 275.096C305.755 275.096 304.879 274.7 304.243 273.908C303.607 273.116 303.295 272.084 303.295 270.8ZM304.399 270.8C304.399 272.852 305.335 274.076 306.883 274.076C308.515 274.076 309.331 272.984 309.331 270.8C309.331 268.616 308.503 267.524 306.859 267.524C305.191 267.524 304.399 268.724 304.399 270.8ZM312.291 269.372L311.415 269.06C311.715 267.572 312.843 266.504 314.631 266.504C316.359 266.504 317.415 267.5 317.415 269.024C317.415 269.828 317.067 270.632 316.635 271.208C316.419 271.508 316.143 271.796 315.819 272.096C315.159 272.684 314.691 272.996 314.007 273.428L313.083 274.004H317.727V275H311.187V274.184L313.011 272.972C313.335 272.768 313.563 272.612 313.695 272.516C313.827 272.432 314.043 272.276 314.331 272.072C314.619 271.868 314.835 271.688 314.979 271.556C315.111 271.424 315.291 271.256 315.495 271.04C316.047 270.44 316.251 269.888 316.311 269.132C316.311 268.04 315.603 267.548 314.559 267.548C313.911 267.548 313.395 267.728 313.023 268.088C312.651 268.448 312.399 268.88 312.291 269.372ZM319.387 269.048L318.487 268.64C318.931 267.344 320.095 266.492 321.835 266.492C322.663 266.492 323.347 266.684 323.875 267.068C324.403 267.452 324.667 267.968 324.667 268.604C324.667 269.576 324.151 270.296 323.191 270.572C324.115 270.632 324.859 271.328 324.859 272.576C324.859 273.368 324.571 273.992 323.995 274.436C323.419 274.88 322.687 275.108 321.787 275.108C319.951 275.108 318.679 274.232 318.259 272.852L319.231 272.432C319.747 273.524 320.623 274.076 321.859 274.076C323.023 274.076 323.755 273.536 323.755 272.588C323.755 271.664 323.035 271.196 321.595 271.196H320.659V270.2H321.403C322.711 270.2 323.563 269.612 323.563 268.808C323.563 267.98 322.879 267.512 321.787 267.512C320.503 267.512 319.723 268.172 319.387 269.048Z" fill="#76848D"/>
<path d="M48 173.074L55.6934 112.407L63.1467 79.1222C63.4536 77.7519 64.67 76.7778 66.0742 76.7778H94.7658C95.6469 76.7778 96.4835 77.1652 97.0536 77.8372L106.374 88.8246C107.481 90.1302 109.455 90.2457 110.707 89.0783L113.249 86.7086C114.848 85.2174 117.454 85.8835 118.142 87.9591L124.328 106.623C124.536 107.252 124.947 107.794 125.495 108.165L131.003 111.887C131.504 112.226 131.891 112.709 132.113 113.272L139.454 131.876C139.648 132.37 139.97 132.803 140.387 133.131L147.486 138.729C148.013 139.145 148.385 139.725 148.544 140.376L154.853 166.333L159.569 192.693C160.149 195.933 164.768 196.011 165.456 192.792L169.589 173.453C169.642 173.201 169.728 172.958 169.844 172.728L174.524 163.456C175.748 161.031 179.308 161.352 180.079 163.957L184.421 178.629C184.798 179.903 185.968 180.778 187.297 180.778H191.791C192.587 180.778 193.351 181.094 193.914 181.658L200.394 188.147C200.615 188.369 200.801 188.623 200.943 188.902L211.556 209.667L220.842 223.789C221.915 225.42 224.234 225.609 225.556 224.173L230.316 219.002C230.717 218.566 230.981 218.021 231.072 217.435L237.782 174.605C238.148 172.269 240.983 171.288 242.761 172.846V172.846C244.407 174.288 247.027 173.569 247.648 171.47L252.261 155.879C252.972 153.479 256.135 152.952 257.584 154.993L260.172 158.637C260.608 159.251 261.26 159.679 261.998 159.835L267.29 160.953C268.807 161.273 270.319 160.384 270.776 158.903L276.66 139.846C276.758 139.531 276.906 139.234 277.1 138.968L291.295 119.422C291.86 118.645 292.762 118.185 293.723 118.185H297.469C298.746 118.185 299.883 117.376 300.303 116.17L307.154 96.4455C307.248 96.1746 307.303 95.8916 307.317 95.6052L311 19" stroke="#737AF9" stroke-width="4" stroke-linecap="round" stroke-linejoin="round"/>
<path d="M47 149.561L54.4286 112.364L62.4433 79.3671C62.77 78.0221 63.9744 77.0751 65.3586 77.0751H95.5124C95.7415 77.0751 95.9698 77.0489 96.1929 76.997L106.322 74.6379C107.437 74.3784 108.602 74.7755 109.326 75.6617L116.451 84.3834C116.626 84.5969 116.77 84.8334 116.88 85.0863L124.892 103.531C124.964 103.697 125.051 103.856 125.151 104.006L138.429 123.809L146.784 140.543C146.927 140.831 147.023 141.139 147.069 141.456L153.768 188.045C153.827 188.454 153.969 188.846 154.187 189.197L161.457 200.94C162.193 202.129 163.652 202.652 164.975 202.201L174.384 198.996C175.739 198.535 177.231 199.094 177.948 200.332L183.016 209.083C184.012 210.803 186.375 211.096 187.762 209.672L191.545 205.786C192.11 205.206 192.885 204.879 193.695 204.879H198.379C199.468 204.879 200.471 205.469 201 206.42L205.487 214.485C206.5 216.305 209.014 216.564 210.377 214.989L213.686 211.166C214.481 210.247 215.752 209.898 216.905 210.283L222.581 212.178C223.223 212.392 223.773 212.817 224.143 213.382L227.405 218.374C228.707 220.366 231.699 220.121 232.661 217.944L238.341 205.076C238.399 204.945 238.448 204.809 238.487 204.671L245.531 179.414C245.893 178.117 247.074 177.22 248.421 177.22H252.846C253.323 177.22 253.793 177.106 254.217 176.888L260.139 173.847C260.699 173.559 261.154 173.103 261.44 172.543L268.823 158.096C269.123 157.509 269.608 157.037 270.203 156.753L277.286 153.376L283.393 150.239C284.226 149.812 285.21 149.797 286.055 150.2L290.347 152.247C291.703 152.893 293.328 152.437 294.149 151.18L299.426 143.107C299.523 142.959 299.606 142.803 299.675 142.64L307.08 125.247C307.216 124.927 307.296 124.585 307.315 124.238L311 58" stroke="#7BC3F8" stroke-width="4" stroke-linecap="round" stroke-linejoin="round"/>
</svg>
