<svg width="335" height="243" viewBox="0 0 335 243" fill="none" xmlns="http://www.w3.org/2000/svg">
<line x1="3.96473e-08" y1="223.5" x2="335" y2="223.5" stroke="#CEE0ED"/>
<path d="M2.9015 178.048L2.0015 177.64C2.4455 176.344 3.6095 175.492 5.3495 175.492C6.1775 175.492 6.8615 175.684 7.3895 176.068C7.9175 176.452 8.1815 176.968 8.1815 177.604C8.1815 178.576 7.6655 179.296 6.7055 179.572C7.6295 179.632 8.3735 180.328 8.3735 181.576C8.3735 182.368 8.0855 182.992 7.5095 183.436C6.9335 183.88 6.2015 184.108 5.3015 184.108C3.4655 184.108 2.1935 183.232 1.7735 181.852L2.7455 181.432C3.2615 182.524 4.1375 183.076 5.3735 183.076C6.5375 183.076 7.2695 182.536 7.2695 181.588C7.2695 180.664 6.5495 180.196 5.1095 180.196H4.1735V179.2H4.9175C6.2255 179.2 7.0775 178.612 7.0775 177.808C7.0775 176.98 6.3935 176.512 5.3015 176.512C4.0175 176.512 3.2375 177.172 2.9015 178.048ZM9.35975 179.8C9.35975 178.504 9.65975 177.46 10.2718 176.68C10.8718 175.9 11.7598 175.504 12.9238 175.504C15.3118 175.504 16.4998 177.076 16.4998 179.8C16.4998 181.108 16.1998 182.14 15.6118 182.92C15.0117 183.7 14.1238 184.096 12.9478 184.096C11.8198 184.096 10.9438 183.7 10.3078 182.908C9.67175 182.116 9.35975 181.084 9.35975 179.8ZM10.4638 179.8C10.4638 181.852 11.3998 183.076 12.9478 183.076C14.5798 183.076 15.3958 181.984 15.3958 179.8C15.3958 177.616 14.5678 176.524 12.9238 176.524C11.2558 176.524 10.4638 177.724 10.4638 179.8Z" fill="#76848D"/>
<path d="M3.51087 134.048L2.61087 133.64C3.05487 132.344 4.21887 131.492 5.95888 131.492C6.78688 131.492 7.47088 131.684 7.99888 132.068C8.52688 132.452 8.79088 132.968 8.79088 133.604C8.79088 134.576 8.27487 135.296 7.31488 135.572C8.23888 135.632 8.98288 136.328 8.98288 137.576C8.98288 138.368 8.69488 138.992 8.11888 139.436C7.54288 139.88 6.81088 140.108 5.91087 140.108C4.07487 140.108 2.80287 139.232 2.38287 137.852L3.35487 137.432C3.87087 138.524 4.74687 139.076 5.98288 139.076C7.14688 139.076 7.87888 138.536 7.87888 137.588C7.87888 136.664 7.15887 136.196 5.71887 136.196H4.78288V135.2H5.52687C6.83488 135.2 7.68687 134.612 7.68687 133.808C7.68687 132.98 7.00288 132.512 5.91087 132.512C4.62688 132.512 3.84687 133.172 3.51087 134.048ZM11.1931 136.136L10.3291 135.908L10.8211 131.6H16.1011V132.62H11.7451L11.4331 134.876C11.8531 134.564 12.4891 134.408 13.3411 134.408C14.3251 134.408 15.0931 134.672 15.6571 135.188C16.2091 135.716 16.4851 136.388 16.4851 137.216C16.4851 138.044 16.1731 138.74 15.5611 139.28C14.9371 139.832 14.1571 140.108 13.2331 140.108C11.6611 140.108 10.3531 139.364 9.81313 138.056L10.7731 137.648C11.1211 138.452 12.0211 139.088 13.2331 139.088C14.6131 139.088 15.3811 138.296 15.3811 137.252C15.3811 136.136 14.4811 135.416 13.0531 135.416C12.2851 135.416 11.6611 135.656 11.1931 136.136Z" fill="#76848D"/>
<path d="M7.21325 96H6.16925V94.284H1.03325V93.588L6.28925 87.6H7.21325V93.312H8.77325V94.284H7.21325V96ZM6.16925 89.28L2.47325 93.312H6.16925V89.28ZM9.35975 91.8C9.35975 90.504 9.65975 89.46 10.2718 88.68C10.8718 87.9 11.7598 87.504 12.9238 87.504C15.3118 87.504 16.4998 89.076 16.4998 91.8C16.4998 93.108 16.1998 94.14 15.6118 94.92C15.0118 95.7 14.1238 96.096 12.9478 96.096C11.8198 96.096 10.9438 95.7 10.3078 94.908C9.67175 94.116 9.35975 93.084 9.35975 91.8ZM10.4638 91.8C10.4638 93.852 11.3998 95.076 12.9478 95.076C14.5798 95.076 15.3958 93.984 15.3958 91.8C15.3958 89.616 14.5678 88.524 12.9238 88.524C11.2558 88.524 10.4638 89.724 10.4638 91.8Z" fill="#76848D"/>
<path d="M7.82263 54H6.77863V52.284H1.64262V51.588L6.89863 45.6H7.82263V51.312H9.38263V52.284H7.82263V54ZM6.77863 47.28L3.08263 51.312H6.77863V47.28ZM11.1931 50.136L10.3291 49.908L10.8211 45.6H16.1011V46.62H11.7451L11.4331 48.876C11.8531 48.564 12.4891 48.408 13.3411 48.408C14.3251 48.408 15.0931 48.672 15.6571 49.188C16.2091 49.716 16.4851 50.388 16.4851 51.216C16.4851 52.044 16.1731 52.74 15.5611 53.28C14.9371 53.832 14.1571 54.108 13.2331 54.108C11.6611 54.108 10.3531 53.364 9.81313 52.056L10.7731 51.648C11.1211 52.452 12.0211 53.088 13.2331 53.088C14.6131 53.088 15.3811 52.296 15.3811 51.252C15.3811 50.136 14.4811 49.416 13.0531 49.416C12.2851 49.416 11.6611 49.656 11.1931 50.136Z" fill="#76848D"/>
<path d="M3.15688 5.136L2.29287 4.908L2.78487 0.599999H8.06488V1.62H3.70888L3.39687 3.876C3.81687 3.564 4.45288 3.408 5.30487 3.408C6.28888 3.408 7.05688 3.672 7.62088 4.188C8.17288 4.716 8.44888 5.388 8.44888 6.216C8.44888 7.044 8.13687 7.74 7.52487 8.28C6.90088 8.832 6.12088 9.108 5.19688 9.108C3.62488 9.108 2.31687 8.364 1.77687 7.056L2.73687 6.648C3.08488 7.452 3.98488 8.088 5.19688 8.088C6.57687 8.088 7.34488 7.296 7.34488 6.252C7.34488 5.136 6.44488 4.416 5.01688 4.416C4.24888 4.416 3.62488 4.656 3.15688 5.136ZM9.35975 4.8C9.35975 3.504 9.65975 2.46 10.2718 1.68C10.8718 0.9 11.7598 0.504 12.9238 0.504C15.3118 0.504 16.4998 2.076 16.4998 4.8C16.4998 6.108 16.1998 7.14 15.6118 7.92C15.0117 8.7 14.1238 9.096 12.9478 9.096C11.8198 9.096 10.9438 8.7 10.3078 7.908C9.67175 7.116 9.35975 6.084 9.35975 4.8ZM10.4638 4.8C10.4638 6.852 11.3998 8.076 12.9478 8.076C14.5798 8.076 15.3958 6.984 15.3958 4.8C15.3958 2.616 14.5678 1.524 12.9238 1.524C11.2558 1.524 10.4638 2.724 10.4638 4.8Z" fill="#76848D"/>
<line x1="22" y1="6.5" x2="335" y2="6.50007" stroke="#CEE0ED"/>
<line x1="22" y1="180.5" x2="334" y2="180.5" stroke="#CEE0ED"/>
<line x1="22" y1="94.5" x2="335" y2="94.5" stroke="#CEE0ED"/>
<line x1="22" y1="135.5" x2="335" y2="135.5" stroke="#CEE0ED"/>
<line x1="22" y1="50.5" x2="335" y2="50.5" stroke="#CEE0ED"/>
<path d="M21.476 234.372L20.6 234.06C20.9 232.572 22.028 231.504 23.816 231.504C25.544 231.504 26.6 232.5 26.6 234.024C26.6 234.828 26.252 235.632 25.82 236.208C25.604 236.508 25.328 236.796 25.004 237.096C24.344 237.684 23.876 237.996 23.192 238.428L22.268 239.004H26.912V240H20.372V239.184L22.196 237.972C22.52 237.768 22.748 237.612 22.88 237.516C23.012 237.432 23.228 237.276 23.516 237.072C23.804 236.868 24.02 236.688 24.164 236.556C24.296 236.424 24.476 236.256 24.68 236.04C25.232 235.44 25.436 234.888 25.496 234.132C25.496 233.04 24.788 232.548 23.744 232.548C23.096 232.548 22.58 232.728 22.208 233.088C21.836 233.448 21.584 233.88 21.476 234.372ZM27.7437 235.8C27.7437 234.504 28.0437 233.46 28.6557 232.68C29.2557 231.9 30.1437 231.504 31.3077 231.504C33.6957 231.504 34.8837 233.076 34.8837 235.8C34.8837 237.108 34.5837 238.14 33.9957 238.92C33.3957 239.7 32.5077 240.096 31.3317 240.096C30.2037 240.096 29.3277 239.7 28.6917 238.908C28.0557 238.116 27.7437 237.084 27.7437 235.8ZM28.8477 235.8C28.8477 237.852 29.7837 239.076 31.3317 239.076C32.9637 239.076 33.7797 237.984 33.7797 235.8C33.7797 233.616 32.9517 232.524 31.3077 232.524C29.6397 232.524 28.8477 233.724 28.8477 235.8ZM35.6839 233.832L35.2999 232.932L38.1799 231.552H38.8639V240H37.8319V232.836L35.6839 233.832ZM45.2063 232.62H40.1183V231.6H46.4903V232.284L42.3143 240H41.1743L45.2063 232.62Z" fill="#76848D"/>
<path d="M63.476 234.372L62.6 234.06C62.9 232.572 64.028 231.504 65.816 231.504C67.544 231.504 68.6 232.5 68.6 234.024C68.6 234.828 68.252 235.632 67.82 236.208C67.604 236.508 67.328 236.796 67.004 237.096C66.344 237.684 65.876 237.996 65.192 238.428L64.268 239.004H68.912V240H62.372V239.184L64.196 237.972C64.52 237.768 64.748 237.612 64.88 237.516C65.012 237.432 65.228 237.276 65.516 237.072C65.804 236.868 66.02 236.688 66.164 236.556C66.296 236.424 66.476 236.256 66.68 236.04C67.232 235.44 67.436 234.888 67.496 234.132C67.496 233.04 66.788 232.548 65.744 232.548C65.096 232.548 64.58 232.728 64.208 233.088C63.836 233.448 63.584 233.88 63.476 234.372ZM69.7437 235.8C69.7437 234.504 70.0437 233.46 70.6557 232.68C71.2557 231.9 72.1437 231.504 73.3077 231.504C75.6957 231.504 76.8837 233.076 76.8837 235.8C76.8837 237.108 76.5837 238.14 75.9957 238.92C75.3957 239.7 74.5077 240.096 73.3317 240.096C72.2037 240.096 71.3277 239.7 70.6917 238.908C70.0557 238.116 69.7437 237.084 69.7437 235.8ZM70.8477 235.8C70.8477 237.852 71.7837 239.076 73.3317 239.076C74.9637 239.076 75.7797 237.984 75.7797 235.8C75.7797 233.616 74.9517 232.524 73.3077 232.524C71.6397 232.524 70.8477 233.724 70.8477 235.8ZM77.6839 233.832L77.2999 232.932L80.1799 231.552H80.8639V240H79.8319V232.836L77.6839 233.832ZM85.7063 235.212H86.0783C86.6183 235.212 87.0623 235.08 87.4343 234.828C87.7943 234.576 87.9743 234.24 87.9743 233.844C87.9743 232.944 87.2663 232.488 85.8623 232.488C84.5183 232.488 83.7863 232.98 83.7863 233.844C83.7863 234.624 84.5903 235.212 85.7063 235.212ZM86.0543 236.16H85.7543C85.1063 236.16 84.5663 236.304 84.1463 236.58C83.7263 236.856 83.5103 237.204 83.5103 237.624C83.5103 238.536 84.3503 239.112 85.8743 239.112C87.4223 239.112 88.2503 238.56 88.2503 237.636C88.2503 236.712 87.3623 236.16 86.0543 236.16ZM88.4183 239.46C87.8063 239.892 86.9543 240.108 85.8863 240.108C84.8183 240.108 83.9663 239.892 83.3423 239.472C82.7183 239.052 82.4063 238.476 82.4063 237.732C82.4063 236.76 83.0423 235.992 84.0623 235.656C83.1383 235.356 82.6823 234.624 82.6823 233.772C82.6823 232.38 83.8583 231.492 85.8743 231.492C87.9023 231.492 89.0783 232.38 89.0783 233.772C89.0783 234.576 88.6343 235.188 87.7463 235.596C88.8143 235.92 89.3423 236.616 89.3423 237.684C89.3423 238.44 89.0303 239.04 88.4183 239.46Z" fill="#76848D"/>
<path d="M107.476 234.372L106.6 234.06C106.9 232.572 108.028 231.504 109.816 231.504C111.544 231.504 112.6 232.5 112.6 234.024C112.6 234.828 112.252 235.632 111.82 236.208C111.604 236.508 111.328 236.796 111.004 237.096C110.344 237.684 109.876 237.996 109.192 238.428L108.268 239.004H112.912V240H106.372V239.184L108.196 237.972C108.52 237.768 108.748 237.612 108.88 237.516C109.012 237.432 109.228 237.276 109.516 237.072C109.804 236.868 110.02 236.688 110.164 236.556C110.296 236.424 110.476 236.256 110.68 236.04C111.232 235.44 111.436 234.888 111.496 234.132C111.496 233.04 110.788 232.548 109.744 232.548C109.096 232.548 108.58 232.728 108.208 233.088C107.836 233.448 107.584 233.88 107.476 234.372ZM113.744 235.8C113.744 234.504 114.044 233.46 114.656 232.68C115.256 231.9 116.144 231.504 117.308 231.504C119.696 231.504 120.884 233.076 120.884 235.8C120.884 237.108 120.584 238.14 119.996 238.92C119.396 239.7 118.508 240.096 117.332 240.096C116.204 240.096 115.328 239.7 114.692 238.908C114.056 238.116 113.744 237.084 113.744 235.8ZM114.848 235.8C114.848 237.852 115.784 239.076 117.332 239.076C118.964 239.076 119.78 237.984 119.78 235.8C119.78 233.616 118.952 232.524 117.308 232.524C115.64 232.524 114.848 233.724 114.848 235.8ZM121.684 233.832L121.3 232.932L124.18 231.552H124.864V240H123.832V232.836L121.684 233.832ZM133.378 235.644C133.378 237.072 133.042 238.176 132.358 238.944C131.674 239.724 130.762 240.108 129.622 240.108C128.23 240.108 127.138 239.52 126.598 238.62L127.462 238.02C127.942 238.692 128.818 239.076 129.766 239.076C130.546 239.076 131.17 238.764 131.662 238.14C132.154 237.528 132.358 236.76 132.298 235.848C131.902 236.76 130.906 237.432 129.574 237.432C128.638 237.432 127.87 237.168 127.27 236.628C126.658 236.1 126.358 235.404 126.358 234.552C126.358 233.616 126.682 232.872 127.33 232.32C127.978 231.768 128.842 231.492 129.91 231.492C132.07 231.492 133.378 233.004 133.378 235.644ZM132.118 234.516C131.938 233.4 131.17 232.524 129.79 232.524C128.35 232.524 127.462 233.268 127.462 234.516C127.462 235.704 128.362 236.4 129.766 236.4C130.402 236.4 130.942 236.208 131.362 235.824C131.782 235.44 132.034 235.008 132.118 234.516Z" fill="#76848D"/>
<path d="M149.476 234.372L148.6 234.06C148.9 232.572 150.028 231.504 151.816 231.504C153.544 231.504 154.6 232.5 154.6 234.024C154.6 234.828 154.252 235.632 153.82 236.208C153.604 236.508 153.328 236.796 153.004 237.096C152.344 237.684 151.876 237.996 151.192 238.428L150.268 239.004H154.912V240H148.372V239.184L150.196 237.972C150.52 237.768 150.748 237.612 150.88 237.516C151.012 237.432 151.228 237.276 151.516 237.072C151.804 236.868 152.02 236.688 152.164 236.556C152.296 236.424 152.476 236.256 152.68 236.04C153.232 235.44 153.436 234.888 153.496 234.132C153.496 233.04 152.788 232.548 151.744 232.548C151.096 232.548 150.58 232.728 150.208 233.088C149.836 233.448 149.584 233.88 149.476 234.372ZM155.744 235.8C155.744 234.504 156.044 233.46 156.656 232.68C157.256 231.9 158.144 231.504 159.308 231.504C161.696 231.504 162.884 233.076 162.884 235.8C162.884 237.108 162.584 238.14 161.996 238.92C161.396 239.7 160.508 240.096 159.332 240.096C158.204 240.096 157.328 239.7 156.692 238.908C156.056 238.116 155.744 237.084 155.744 235.8ZM156.848 235.8C156.848 237.852 157.784 239.076 159.332 239.076C160.964 239.076 161.78 237.984 161.78 235.8C161.78 233.616 160.952 232.524 159.308 232.524C157.64 232.524 156.848 233.724 156.848 235.8ZM164.74 234.372L163.864 234.06C164.164 232.572 165.292 231.504 167.08 231.504C168.808 231.504 169.864 232.5 169.864 234.024C169.864 234.828 169.516 235.632 169.084 236.208C168.868 236.508 168.592 236.796 168.268 237.096C167.608 237.684 167.14 237.996 166.456 238.428L165.532 239.004H170.176V240H163.636V239.184L165.46 237.972C165.784 237.768 166.012 237.612 166.144 237.516C166.276 237.432 166.492 237.276 166.78 237.072C167.068 236.868 167.284 236.688 167.428 236.556C167.56 236.424 167.74 236.256 167.944 236.04C168.496 235.44 168.7 234.888 168.76 234.132C168.76 233.04 168.052 232.548 167.008 232.548C166.36 232.548 165.844 232.728 165.472 233.088C165.1 233.448 164.848 233.88 164.74 234.372ZM171.008 235.8C171.008 234.504 171.308 233.46 171.92 232.68C172.52 231.9 173.408 231.504 174.572 231.504C176.96 231.504 178.148 233.076 178.148 235.8C178.148 237.108 177.848 238.14 177.26 238.92C176.66 239.7 175.772 240.096 174.596 240.096C173.468 240.096 172.592 239.7 171.956 238.908C171.32 238.116 171.008 237.084 171.008 235.8ZM172.112 235.8C172.112 237.852 173.048 239.076 174.596 239.076C176.228 239.076 177.044 237.984 177.044 235.8C177.044 233.616 176.216 232.524 174.572 232.524C172.904 232.524 172.112 233.724 172.112 235.8Z" fill="#76848D"/>
<path d="M192.476 234.372L191.6 234.06C191.9 232.572 193.028 231.504 194.816 231.504C196.544 231.504 197.6 232.5 197.6 234.024C197.6 234.828 197.252 235.632 196.82 236.208C196.604 236.508 196.328 236.796 196.004 237.096C195.344 237.684 194.876 237.996 194.192 238.428L193.268 239.004H197.912V240H191.372V239.184L193.196 237.972C193.52 237.768 193.748 237.612 193.88 237.516C194.012 237.432 194.228 237.276 194.516 237.072C194.804 236.868 195.02 236.688 195.164 236.556C195.296 236.424 195.476 236.256 195.68 236.04C196.232 235.44 196.436 234.888 196.496 234.132C196.496 233.04 195.788 232.548 194.744 232.548C194.096 232.548 193.58 232.728 193.208 233.088C192.836 233.448 192.584 233.88 192.476 234.372ZM198.744 235.8C198.744 234.504 199.044 233.46 199.656 232.68C200.256 231.9 201.144 231.504 202.308 231.504C204.696 231.504 205.884 233.076 205.884 235.8C205.884 237.108 205.584 238.14 204.996 238.92C204.396 239.7 203.508 240.096 202.332 240.096C201.204 240.096 200.328 239.7 199.692 238.908C199.056 238.116 198.744 237.084 198.744 235.8ZM199.848 235.8C199.848 237.852 200.784 239.076 202.332 239.076C203.964 239.076 204.78 237.984 204.78 235.8C204.78 233.616 203.952 232.524 202.308 232.524C200.64 232.524 199.848 233.724 199.848 235.8ZM207.74 234.372L206.864 234.06C207.164 232.572 208.292 231.504 210.08 231.504C211.808 231.504 212.864 232.5 212.864 234.024C212.864 234.828 212.516 235.632 212.084 236.208C211.868 236.508 211.592 236.796 211.268 237.096C210.608 237.684 210.14 237.996 209.456 238.428L208.532 239.004H213.176V240H206.636V239.184L208.46 237.972C208.784 237.768 209.012 237.612 209.144 237.516C209.276 237.432 209.492 237.276 209.78 237.072C210.068 236.868 210.284 236.688 210.428 236.556C210.56 236.424 210.74 236.256 210.944 236.04C211.496 235.44 211.7 234.888 211.76 234.132C211.76 233.04 211.052 232.548 210.008 232.548C209.36 232.548 208.844 232.728 208.472 233.088C208.1 233.448 207.848 233.88 207.74 234.372ZM213.912 233.832L213.528 232.932L216.408 231.552H217.092V240H216.06V232.836L213.912 233.832Z" fill="#76848D"/>
<path d="M233.476 234.372L232.6 234.06C232.9 232.572 234.028 231.504 235.816 231.504C237.544 231.504 238.6 232.5 238.6 234.024C238.6 234.828 238.252 235.632 237.82 236.208C237.604 236.508 237.328 236.796 237.004 237.096C236.344 237.684 235.876 237.996 235.192 238.428L234.268 239.004H238.912V240H232.372V239.184L234.196 237.972C234.52 237.768 234.748 237.612 234.88 237.516C235.012 237.432 235.228 237.276 235.516 237.072C235.804 236.868 236.02 236.688 236.164 236.556C236.296 236.424 236.476 236.256 236.68 236.04C237.232 235.44 237.436 234.888 237.496 234.132C237.496 233.04 236.788 232.548 235.744 232.548C235.096 232.548 234.58 232.728 234.208 233.088C233.836 233.448 233.584 233.88 233.476 234.372ZM239.744 235.8C239.744 234.504 240.044 233.46 240.656 232.68C241.256 231.9 242.144 231.504 243.308 231.504C245.696 231.504 246.884 233.076 246.884 235.8C246.884 237.108 246.584 238.14 245.996 238.92C245.396 239.7 244.508 240.096 243.332 240.096C242.204 240.096 241.328 239.7 240.692 238.908C240.056 238.116 239.744 237.084 239.744 235.8ZM240.848 235.8C240.848 237.852 241.784 239.076 243.332 239.076C244.964 239.076 245.78 237.984 245.78 235.8C245.78 233.616 244.952 232.524 243.308 232.524C241.64 232.524 240.848 233.724 240.848 235.8ZM248.74 234.372L247.864 234.06C248.164 232.572 249.292 231.504 251.08 231.504C252.808 231.504 253.864 232.5 253.864 234.024C253.864 234.828 253.516 235.632 253.084 236.208C252.868 236.508 252.592 236.796 252.268 237.096C251.608 237.684 251.14 237.996 250.456 238.428L249.532 239.004H254.176V240H247.636V239.184L249.46 237.972C249.784 237.768 250.012 237.612 250.144 237.516C250.276 237.432 250.492 237.276 250.78 237.072C251.068 236.868 251.284 236.688 251.428 236.556C251.56 236.424 251.74 236.256 251.944 236.04C252.496 235.44 252.7 234.888 252.76 234.132C252.76 233.04 252.052 232.548 251.008 232.548C250.36 232.548 249.844 232.728 249.472 233.088C249.1 233.448 248.848 233.88 248.74 234.372ZM255.968 234.372L255.092 234.06C255.392 232.572 256.52 231.504 258.308 231.504C260.036 231.504 261.092 232.5 261.092 234.024C261.092 234.828 260.744 235.632 260.312 236.208C260.096 236.508 259.82 236.796 259.496 237.096C258.836 237.684 258.368 237.996 257.684 238.428L256.76 239.004H261.404V240H254.864V239.184L256.688 237.972C257.012 237.768 257.24 237.612 257.372 237.516C257.504 237.432 257.72 237.276 258.008 237.072C258.296 236.868 258.512 236.688 258.656 236.556C258.788 236.424 258.968 236.256 259.172 236.04C259.724 235.44 259.928 234.888 259.988 234.132C259.988 233.04 259.28 232.548 258.236 232.548C257.588 232.548 257.072 232.728 256.7 233.088C256.328 233.448 256.076 233.88 255.968 234.372Z" fill="#76848D"/>
<path d="M275.476 234.372L274.6 234.06C274.9 232.572 276.028 231.504 277.816 231.504C279.544 231.504 280.6 232.5 280.6 234.024C280.6 234.828 280.252 235.632 279.82 236.208C279.604 236.508 279.328 236.796 279.004 237.096C278.344 237.684 277.876 237.996 277.192 238.428L276.268 239.004H280.912V240H274.372V239.184L276.196 237.972C276.52 237.768 276.748 237.612 276.88 237.516C277.012 237.432 277.228 237.276 277.516 237.072C277.804 236.868 278.02 236.688 278.164 236.556C278.296 236.424 278.476 236.256 278.68 236.04C279.232 235.44 279.436 234.888 279.496 234.132C279.496 233.04 278.788 232.548 277.744 232.548C277.096 232.548 276.58 232.728 276.208 233.088C275.836 233.448 275.584 233.88 275.476 234.372ZM281.744 235.8C281.744 234.504 282.044 233.46 282.656 232.68C283.256 231.9 284.144 231.504 285.308 231.504C287.696 231.504 288.884 233.076 288.884 235.8C288.884 237.108 288.584 238.14 287.996 238.92C287.396 239.7 286.508 240.096 285.332 240.096C284.204 240.096 283.328 239.7 282.692 238.908C282.056 238.116 281.744 237.084 281.744 235.8ZM282.848 235.8C282.848 237.852 283.784 239.076 285.332 239.076C286.964 239.076 287.78 237.984 287.78 235.8C287.78 233.616 286.952 232.524 285.308 232.524C283.64 232.524 282.848 233.724 282.848 235.8ZM290.74 234.372L289.864 234.06C290.164 232.572 291.292 231.504 293.08 231.504C294.808 231.504 295.864 232.5 295.864 234.024C295.864 234.828 295.516 235.632 295.084 236.208C294.868 236.508 294.592 236.796 294.268 237.096C293.608 237.684 293.14 237.996 292.456 238.428L291.532 239.004H296.176V240H289.636V239.184L291.46 237.972C291.784 237.768 292.012 237.612 292.144 237.516C292.276 237.432 292.492 237.276 292.78 237.072C293.068 236.868 293.284 236.688 293.428 236.556C293.56 236.424 293.74 236.256 293.944 236.04C294.496 235.44 294.7 234.888 294.76 234.132C294.76 233.04 294.052 232.548 293.008 232.548C292.36 232.548 291.844 232.728 291.472 233.088C291.1 233.448 290.848 233.88 290.74 234.372ZM297.836 234.048L296.936 233.64C297.38 232.344 298.544 231.492 300.284 231.492C301.112 231.492 301.796 231.684 302.324 232.068C302.852 232.452 303.116 232.968 303.116 233.604C303.116 234.576 302.6 235.296 301.64 235.572C302.564 235.632 303.308 236.328 303.308 237.576C303.308 238.368 303.02 238.992 302.444 239.436C301.868 239.88 301.136 240.108 300.236 240.108C298.4 240.108 297.128 239.232 296.708 237.852L297.68 237.432C298.196 238.524 299.072 239.076 300.308 239.076C301.472 239.076 302.204 238.536 302.204 237.588C302.204 236.664 301.484 236.196 300.044 236.196H299.108V235.2H299.852C301.16 235.2 302.012 234.612 302.012 233.808C302.012 232.98 301.328 232.512 300.236 232.512C298.952 232.512 298.172 233.172 297.836 234.048Z" fill="#76848D"/>
<path d="M36 78.5843L40.2491 84.747L44.4982 78.5843L53.7045 70.1807L57.5995 72.4217L60.4322 70.1807L67.8681 69.0602L73.8877 63.4578L78.1368 56.7349H82.3858L85.5727 59.5361L92.6545 51.1325L95.8413 52.8133L102.923 50.012L106.464 51.1325L109.297 48.8916L113.192 52.8133L116.733 51.6928L119.919 56.7349L124.523 50.012L128.418 47.2108L134.437 48.3313L137.978 45.5301L141.165 39.3675L145.06 41.6084H152.142L155.328 43.8494H158.869L162.41 57.2952L168.784 130.127L170.2 157.578L171.263 179.988L171.971 191.753L172.679 204.639M284.571 74.1024L282.093 75.7831L277.49 76.9036L271.47 69.6205H263.326L253.411 89.7892L249.162 73.5422C249.162 73.5422 246.115 95.4452 245.982 94.434M172.679 204.639L174.449 182.789L176.22 162.06L183.656 153.657L190.383 135.169L196.757 108.277L200.652 107.157L204.193 123.404L208.088 111.078L210.921 92.0301C210.921 92.0301 212.223 89.6498 213.045 88.1084C213.742 86.8027 214.816 84.747 214.816 84.747L220.835 92.5904L224.73 84.747L228.625 90.9096L234.999 74.1024C234.999 74.1024 241.018 66.8193 241.727 66.8193C242.435 66.8193 245.982 94.434 245.982 94.434M172.679 204.639V208M245.976 94.2711C245.976 94.2711 245.978 94.3994 245.982 94.434M287.404 77.4639L291.299 56.1747L295.194 48.3313L298.381 32.0843L299.797 28.1627L301.568 24.241L301.922 24.8012L304.4 34.8855L304.755 36.5663L309.004 30.4036L312.545 25.3614L322.813 26.4819L326 22M284.926 74.6627L287.404 78.0241" stroke="#737AF9" stroke-width="3" stroke-miterlimit="16" stroke-linecap="round" stroke-linejoin="round"/>
<path d="M35 89.8144L38.5488 130.102L42.4524 74.1468L45.6463 80.8615L48.8402 70.7895L53.0988 71.349L56.2927 56.241L59.4866 55.1219L63.0354 67.9917L66.939 60.7175L70.4878 64.6343L74.0366 51.7645L77.2305 66.313L80.7793 105.482L84.328 55.1219L87.8768 61.8366L91.4256 48.4072L94.9744 53.4432L98.5232 38.3352L101.717 35.5374L105.266 51.7645L108.815 39.4543L112.363 50.6454L116.267 40.5734L122.655 100.446L126.559 43.3712L130.107 55.6814L133.656 45.6094L136.85 47.2881L140.754 25.4654C141.582 25.8384 143.309 26.6964 143.593 27.144C143.877 27.5917 146.077 37.7756 147.141 42.8116L150.69 28.8227L154.594 38.8947L158.143 30.5014L164.885 122.828L168.434 130.102L171.983 209L175.177 160.319H179.08L182.274 145.211L186.888 137.377L189.727 135.698L193.276 111.637L196.115 106.601L200.373 92.6122L203.567 132.9L206.761 155.842L210.665 90.9335L214.923 89.8144L218.117 88.6953L220.601 92.6122L224.15 71.349L227.699 82.5402L231.602 81.9806L234.796 61.8366L238.345 66.8726L241.894 50.6454L245.443 102.125L248.991 122.828L252.54 82.5402L256.444 89.8144L259.283 75.8255L262.832 69.6704L266.38 56.241L270.284 57.9197L273.833 72.4681L277.382 66.8726L280.576 72.4681L284.124 60.1579L287.318 94.2909L290.867 103.803L294.416 43.3712L298.32 37.7756L301.513 21.5485L305.417 34.9778L308.611 16.5125L312.16 10.3573L315.354 24.9058L318.902 16.5125L322.806 23.2271L326 7" stroke="#7BC3F8" stroke-width="3" stroke-miterlimit="16" stroke-linecap="round" stroke-linejoin="round"/>
</svg>
