<svg width="375" height="460" viewBox="0 0 375 460" fill="none" xmlns="http://www.w3.org/2000/svg" xmlns:xlink="http://www.w3.org/1999/xlink">
<rect x="-29.1846" y="43.8721" width="419.039" height="415.522" fill="url(#pattern0_854_32233)"/>
<path d="M22.43 30.6021V33.4921C22.8 33.3321 23.18 33.1621 23.57 33.0121L23.72 33.6721C22.66 34.1621 21.53 34.6621 20.65 35.0521L20.36 34.3121C20.73 34.1821 21.21 33.9921 21.73 33.7721V30.6021H20.45V29.8921H21.73V27.6221H22.43V29.8921H23.6V30.6021H22.43ZM25.78 35.7421H28.19C28.77 35.7421 28.87 35.4721 28.94 34.3221C29.12 34.4521 29.4 34.5721 29.61 34.6121C29.49 35.9721 29.26 36.4121 28.21 36.4121H25.76C24.63 36.4121 24.29 36.1421 24.29 35.0721V31.9221L23.5 32.2521L23.21 31.6021L24.29 31.1521V28.4321H25V30.8421L26.34 30.2821V27.5021H27.05V29.9821L28.37 29.4321L28.53 29.2921L28.67 29.1821L29.19 29.3821L29.15 29.5221C29.15 31.3921 29.13 32.8821 29.05 33.2621C29 33.6721 28.8 33.8521 28.52 33.9221C28.24 33.9921 27.86 33.9921 27.58 33.9921C27.55 33.7921 27.49 33.5121 27.4 33.3521C27.64 33.3621 27.96 33.3621 28.07 33.3621C28.22 33.3621 28.32 33.3221 28.37 33.1021C28.42 32.8621 28.44 31.7521 28.44 30.1621L27.05 30.7521V34.4221H26.34V31.0521L25 31.6221V35.0821C25 35.6121 25.13 35.7421 25.78 35.7421ZM33.53 33.8621L33.66 34.5721C32.59 34.9321 31.45 35.3221 30.56 35.6121L30.39 34.8621C30.76 34.7521 31.22 34.6121 31.73 34.4421V31.7421H30.6V31.0521H31.73V28.8821H30.49V28.1821L33.59 28.1821V28.8821H32.44V31.0521H33.44V31.7421H32.44V34.2221L33.53 33.8621ZM34.76 30.4921V31.7621H36.28V30.4921H34.76ZM34.76 28.6121V29.8721H36.28V28.6121H34.76ZM38.45 29.8721V28.6121H36.92V29.8721H38.45ZM38.45 31.7621V30.4921H36.92V31.7621H38.45ZM36.98 35.6321H39.63V36.3121H33.19V35.6321H36.23V34.2621H33.96V33.5821H36.23V32.4121H34.08V27.9621H39.16V32.4121H36.98V33.5821H39.31V34.2621H36.98V35.6321ZM40.61 32.4921L41.01 31.9921C41.61 32.2521 42.45 32.6521 42.88 32.9021L42.47 33.4721C42.05 33.2021 41.22 32.7821 40.61 32.4921ZM43.44 31.1721L43.01 31.7221C42.6 31.4321 41.79 30.9321 41.19 30.6021L41.62 30.1221C42.19 30.4221 43.02 30.8821 43.44 31.1721ZM41.3 36.6121L40.78 36.0021C41.44 35.4121 42.42 34.4021 43.18 33.5021L43.59 34.0521C42.91 34.8921 42.04 35.8521 41.3 36.6121ZM46.37 29.0621H43.6V30.0221H42.85V29.0621H40.62V28.3721H42.85V27.5121H43.6V28.3721H46.37V27.5121H47.12V28.3721H49.41V29.0621H47.12V30.0221H46.37V29.0621ZM45.67 35.7621L48.1 35.7621C48.68 35.7621 48.78 35.5321 48.85 34.4121C49.04 34.5321 49.34 34.6621 49.56 34.7121C49.45 36.0721 49.2 36.4621 48.12 36.4621L45.63 36.4621C44.47 36.4621 44.11 36.2121 44.11 35.2021V30.4721H48.67V32.9921C48.67 33.4121 48.58 33.6221 48.25 33.7421C47.9 33.8621 47.35 33.8721 46.51 33.8721C46.46 33.6521 46.33 33.3621 46.22 33.1621C46.93 33.1821 47.53 33.1821 47.71 33.1721C47.9 33.1621 47.94 33.1221 47.94 32.9921V31.1821H44.87V35.2021C44.87 35.6621 45 35.7621 45.67 35.7621ZM55.29 32.5421H57.85C57.85 32.5421 57.84 32.7221 57.82 32.8221C57.72 33.8521 57.61 34.3121 57.42 34.5021C57.28 34.6421 57.13 34.6921 56.92 34.7121C56.73 34.7221 56.36 34.7321 55.98 34.7121C55.97 34.5221 55.9 34.2821 55.82 34.1121C56.18 34.1521 56.49 34.1521 56.61 34.1521C56.74 34.1521 56.82 34.1521 56.89 34.0821C56.97 33.9821 57.05 33.7321 57.12 33.1721H55.29V35.2121H54.59V33.1721H52.11V32.5421H54.59V31.6921H52.67V31.0921H54.59V30.2721H52.25V29.6521H54.59V28.8421H55.29V29.6521H57.76V30.2721H55.29V31.0921H57.37V31.6921H55.29V32.5421ZM51.55 35.5021H58.44V28.5721L51.55 28.5721V35.5021ZM50.85 27.9121L59.17 27.9121V36.6321H58.44V36.1421H51.55V36.6321H50.85V27.9121ZM62.5 31.0121C62.1 31.0121 61.75 30.7221 61.75 30.2721C61.75 29.8121 62.1 29.5121 62.5 29.5121C62.9 29.5121 63.26 29.8121 63.26 30.2721C63.26 30.7221 62.9 31.0121 62.5 31.0121ZM62.5 35.9121C62.1 35.9121 61.75 35.6121 61.75 35.1621C61.75 34.7021 62.1 34.4121 62.5 34.4121C62.9 34.4121 63.26 34.7021 63.26 35.1621C63.26 35.6121 62.9 35.9121 62.5 35.9121ZM72.85 32.8621V33.7621H77.25V32.8621H72.85ZM77.25 28.6021L72.85 28.6021V29.4521H77.25V28.6021ZM77.25 31.4321H72.85V32.2921H77.25V31.4321ZM77.25 30.8621V30.0221H72.85V30.8621H77.25ZM79.47 33.7621V34.4421H70.55V33.7621H72.14V27.9821L77.99 27.9821V33.7621H79.47ZM73.29 34.5221L73.99 34.9721C73.21 35.5821 71.98 36.2421 70.98 36.6421C70.85 36.4921 70.61 36.2421 70.44 36.0921C71.44 35.7121 72.68 35.0621 73.29 34.5221ZM76.05 35.0021L76.52 34.4921C77.64 34.9921 78.84 35.6221 79.58 36.0821L78.99 36.6421C78.29 36.1621 77.15 35.5221 76.05 35.0021ZM82.54 27.5421L83.23 27.7521C82.99 28.4621 82.68 29.1821 82.34 29.8621V36.6221H81.63V31.0921C81.36 31.5121 81.07 31.9021 80.78 32.2421C80.7 32.0721 80.48 31.6821 80.35 31.5121C81.23 30.5421 82.04 29.0521 82.54 27.5421ZM89.5 30.2321H87C87.59 31.9021 88.62 33.5621 89.7 34.4321C89.52 34.5621 89.27 34.8221 89.14 35.0221C88.09 34.0621 87.13 32.3821 86.52 30.6421V34.1121H88.13V34.7921H86.52V36.5821H85.8V34.7921H84.17V34.1121H85.8V30.7121C85.16 32.4421 84.2 34.0821 83.15 35.0421C83.02 34.8721 82.78 34.6121 82.61 34.4821C83.7 33.6021 84.74 31.9221 85.35 30.2321H83V29.5121H85.8V27.5421H86.52V29.5121H89.5V30.2321ZM93.35 31.8621L93.44 32.5421L92.35 32.9021V35.7121C92.35 36.1221 92.26 36.3121 92.01 36.4321C91.78 36.5521 91.4 36.5821 90.76 36.5721C90.74 36.3921 90.65 36.0921 90.55 35.8821C90.98 35.8921 91.37 35.8921 91.48 35.8921C91.61 35.8921 91.66 35.8521 91.66 35.7021V33.1321C91.25 33.2621 90.86 33.3921 90.51 33.5021L90.32 32.7821C90.69 32.6921 91.15 32.5521 91.66 32.3921V30.2021H90.45V29.5121H91.66V27.5121H92.35V29.5121H93.41V30.2021H92.35V32.1821L93.35 31.8621ZM96.21 32.0221H94.71V33.3921H96.21V32.0221ZM98.41 33.3921V32.0221H96.88V33.3921H98.41ZM96.88 35.4521H98.41V34.0421H96.88V35.4521ZM94.71 34.0421V35.4521H96.21V34.0421H94.71ZM94.03 36.6321V31.3521L99.13 31.3521V36.5821H98.41V36.1121H94.71V36.6321H94.03ZM98.18 28.9321H99.48V29.6121H98.18V30.9121H97.46V29.6121H95.69V30.9121H94.97V29.6121L93.59 29.6121V28.9321L94.97 28.9321V27.5121H95.69V28.9321H97.46V27.5121H98.18V28.9321ZM108.91 28.9021L108.35 29.3021C108.09 28.9621 107.53 28.4321 107.09 28.0621L107.64 27.7221C108.08 28.0621 108.65 28.5721 108.91 28.9021ZM105.91 35.1721V30.9121C105.3 32.3521 104.45 33.6621 103.56 34.4321C103.44 34.2621 103.21 34.0121 103.04 33.8821C104.03 33.1221 104.98 31.6321 105.55 30.1421H103.22V29.4521H105.91V27.6021H106.64V29.4521H109.35V30.1421H106.76C107.77 31.2221 108.89 32.6421 109.41 33.5921L108.82 34.0021C108.4 33.1921 107.52 31.9921 106.64 30.9621V35.1721H105.91ZM102.82 29.6921L102.2 30.0921C101.9 29.5921 101.25 28.8221 100.72 28.2621L101.29 27.9321C101.84 28.4621 102.5 29.2021 102.82 29.6921ZM102.68 31.0521V34.7721C102.89 34.8821 103.1 35.0521 103.45 35.2521C104.09 35.6021 104.94 35.6721 106.01 35.6721C107.14 35.6721 108.61 35.6021 109.57 35.4921C109.49 35.6821 109.37 36.0321 109.36 36.2421C108.65 36.2921 106.92 36.3421 105.99 36.3421C104.82 36.3421 103.97 36.2421 103.29 35.8521C102.88 35.6121 102.56 35.3221 102.33 35.3221C101.97 35.3221 101.45 35.8421 100.91 36.4621L100.45 35.8321C100.98 35.3221 101.5 34.9021 101.96 34.7421V31.7521H100.51V31.0521H102.68ZM115.39 35.5821H119.44V36.3121H110.6V35.5821H114.6V33.1221H111.52V32.4121H114.6V30.2221H111.06V29.4921H115.45C115.06 29.0321 114.35 28.4021 113.75 27.9621L114.35 27.5421C114.99 28.0021 115.79 28.6821 116.18 29.1521L115.71 29.4921H118.94V30.2221H115.39V32.4121H118.53V33.1221H115.39V35.5821ZM126.72 33.5421H123.78C123.56 33.8621 123.32 34.1821 123.11 34.4421C123.85 34.5921 124.59 34.7621 125.3 34.9221C125.92 34.5721 126.38 34.1221 126.72 33.5421ZM121.93 30.0521V31.4021L123.43 31.4021V30.0521L121.93 30.0521ZM124.14 28.6021V29.4421H125.75V28.6021H124.14ZM128.12 30.0521H126.46V31.4021H128.12V30.0521ZM124.14 31.4021H125.75V30.0521H124.14V31.4021ZM129.43 33.5421H127.53C127.22 34.2021 126.77 34.7321 126.2 35.1521C127.36 35.4521 128.41 35.7621 129.2 36.0621L128.58 36.6421C127.77 36.3121 126.67 35.9521 125.41 35.6321C124.3 36.1821 122.82 36.4721 120.93 36.6321C120.87 36.4121 120.75 36.1421 120.63 35.9821C122.15 35.8921 123.37 35.7021 124.35 35.3521C123.57 35.1721 122.74 34.9921 121.9 34.8321C122.22 34.4821 122.58 34.0221 122.92 33.5421H120.57V32.8921H123.36C123.56 32.5921 123.74 32.2921 123.87 32.0121H121.22V29.4421L123.43 29.4421V28.6021L120.73 28.6021V27.9421L129.27 27.9421V28.6021H126.46V29.4421H128.85V32.0121H124.21L124.66 32.1221C124.53 32.3621 124.38 32.6321 124.22 32.8921H129.43V33.5421ZM133.22 28.6421V30.4421H134.96V31.1321H133.22V31.3921C133.6 31.7921 134.64 33.0121 134.89 33.3221L134.44 33.9321C134.21 33.5521 133.65 32.8021 133.22 32.2421V36.6121H132.49V32.2121C132 33.3721 131.35 34.5021 130.71 35.1921C130.62 34.9921 130.43 34.6921 130.29 34.5121C131.05 33.7521 131.85 32.3821 132.3 31.1321H130.54V30.4421H132.49V28.7821C131.93 28.8721 131.37 28.9521 130.84 29.0221C130.8 28.8421 130.72 28.6021 130.63 28.4321C131.95 28.2521 133.51 27.9521 134.39 27.6021L134.89 28.1821C134.43 28.3521 133.84 28.5121 133.22 28.6421ZM136.03 34.6521H138.26V29.1421H136.03V34.6521ZM135.3 28.4321H139V36.1221H138.26V35.3721H136.03V36.1921L135.3 36.1921V28.4321ZM29.29 42.4021L28.82 42.8021C28.55 42.5621 28.03 42.1521 27.64 41.8721L28.09 41.5321C28.47 41.7821 29 42.1621 29.29 42.4021ZM24.18 47.5321L24.23 48.1821L23.2 48.3921V50.5821H22.53V48.5221C21.81 48.6621 21.14 48.8021 20.57 48.9121L20.4 48.1821C20.98 48.1021 21.73 47.9721 22.53 47.8221V46.4121H21.52C21.19 46.4121 20.89 46.4721 20.81 46.5421V46.5521V46.5421L20.8 46.5521V46.5121C20.75 46.3521 20.65 46.0621 20.57 45.8921C20.75 45.8521 20.88 45.5321 21.04 45.0921C21.14 44.8421 21.35 44.1821 21.56 43.3821H20.46V42.6921H21.73C21.81 42.3021 21.89 41.9121 21.94 41.5121L22.67 41.6621C22.6 42.0021 22.53 42.3521 22.44 42.6921H24.05V43.3821H22.27C22.03 44.2321 21.76 45.0621 21.47 45.7521H22.53V44.2021H23.2V45.7521H24.08V46.4121H23.2V47.7021L24.18 47.5321ZM28.52 45.0321H27.28V46.0821H28.52V45.0321ZM27.28 47.8021H28.52V46.7121H27.28V47.8021ZM25.37 47.8021H26.64V46.7121H25.37V47.8021ZM25.37 45.0321V46.0821H26.64V45.0321H25.37ZM29.54 43.5021H27.31V44.3821H29.19V49.8221C29.19 50.1621 29.14 50.3521 28.91 50.4721C28.7 50.5821 28.36 50.6021 27.9 50.6021C27.87 50.4121 27.78 50.1321 27.69 49.9421C28.02 49.9621 28.31 49.9521 28.4 49.9521C28.5 49.9521 28.52 49.9221 28.52 49.8121V48.4421H27.28V50.5621H26.64V48.4421H25.37V50.6121H24.71V44.3821H26.61V43.5021H24.42V42.8621H26.61V41.5121H27.31V42.8621H29.54V43.5021ZM31.77 46.9121V48.6321C32.35 48.5121 32.98 48.3721 33.64 48.2321V46.9121H31.77ZM33.64 42.6721H31.77V44.1321H33.64V42.6721ZM33.64 46.2421V44.8021H31.77V46.2421H33.64ZM34.89 47.9621L34.94 48.6321C33.38 49.0021 31.7 49.3921 30.51 49.6621L30.38 48.9121L31.09 48.7721V41.9921H34.34V48.0821L34.89 47.9621ZM37.01 43.7621H39.27C39.27 43.7621 39.26 44.0421 39.26 44.1321C39.16 48.3221 39.06 49.7421 38.73 50.1821C38.54 50.4421 38.33 50.5221 38.01 50.5621C37.71 50.5921 37.17 50.5721 36.64 50.5521C36.62 50.3321 36.55 50.0321 36.42 49.8421C36.99 49.8821 37.51 49.8821 37.72 49.8821C37.89 49.8921 38 49.8621 38.09 49.7321C38.34 49.4321 38.45 48.1121 38.54 44.4721H36.98C36.83 47.0721 36.28 49.3221 34.26 50.6621C34.15 50.4821 33.91 50.2221 33.72 50.1121C35.62 48.9221 36.12 46.8621 36.26 44.4721H34.67V43.7621H36.29C36.32 43.0321 36.32 42.2821 36.32 41.5121H37.04C37.04 42.2821 37.04 43.0321 37.01 43.7621ZM45.46 47.0321H48.44C47.88 46.7021 47.39 46.2821 46.96 45.8521C46.5 46.3121 45.99 46.7121 45.46 47.0321ZM45.7 49.6021H48.2V47.6821H45.7V49.6021ZM44.23 46.4121V46.8921C45.03 46.5521 45.82 46.0221 46.5 45.3321C46.13 44.8821 45.83 44.4121 45.58 43.9621C45.3 44.4021 44.99 44.7821 44.67 45.1121C44.56 45.0021 44.33 44.7921 44.15 44.6721V44.9721H43V46.4121H44.23ZM41.58 42.5721V44.3221H43.46V42.5721H41.58ZM47.96 43.1721H46.04L45.94 43.3621C46.19 43.8521 46.52 44.3721 46.93 44.8621C47.35 44.3521 47.71 43.7921 47.96 43.1721ZM48.41 42.4921L48.87 42.7021C48.55 43.7421 48.03 44.6221 47.41 45.3621C48.03 45.9621 48.79 46.4921 49.69 46.8321C49.54 46.9721 49.33 47.2521 49.23 47.4421C49.13 47.3921 49.02 47.3421 48.91 47.2921V50.5921H48.2V50.2621H45.7V50.6221H45.01V47.2821C44.81 47.3921 44.61 47.4821 44.41 47.5721C44.34 47.4221 44.19 47.2121 44.05 47.0721H43V48.8621C43.43 48.7621 43.87 48.6621 44.31 48.5521L44.38 49.2221C43.02 49.5521 41.6 49.8921 40.55 50.1521L40.41 49.4321L40.92 49.3221V45.9121H41.55V49.1921L42.32 49.0121V44.9721H40.92V41.9221H44.15V44.5721C44.94 43.8221 45.59 42.7021 45.96 41.5021L46.67 41.6721C46.57 41.9621 46.46 42.2521 46.35 42.5221H48.28L48.41 42.4921ZM58.89 42.5421L58.46 43.0021C58.15 42.7321 57.52 42.3421 57.03 42.1021L57.45 41.6921C57.94 41.9021 58.58 42.2821 58.89 42.5421ZM51.87 47.0521L53.85 46.6921C53.83 46.8821 53.83 47.1721 53.85 47.3121C51.36 47.8221 51.03 47.9121 50.82 48.0321C50.78 47.8821 50.68 47.5521 50.59 47.3521C50.8 47.3121 51.03 47.0721 51.33 46.7021C51.52 46.5021 51.91 46.0021 52.34 45.3521C51.14 45.5121 50.9 45.5721 50.75 45.6521C50.72 45.4921 50.6 45.1421 50.52 44.9421C50.7 44.9021 50.87 44.6721 51.09 44.3321C51.3 44.0021 52.02 42.7321 52.42 41.5421L53.12 41.8621C52.68 42.8921 52.11 43.9721 51.52 44.8221L52.77 44.7021C53 44.3321 53.21 43.9621 53.4 43.5921L54.02 43.9721C53.38 45.0721 52.64 46.1621 51.87 47.0521ZM53.89 48.4221L54 49.0521L50.73 50.0221L50.58 49.3021C51.4 49.1121 52.66 48.7521 53.89 48.4221ZM58.84 46.3821L59.46 46.6721C58.96 47.4521 58.29 48.1621 57.5 48.7521C57.81 49.4821 58.19 49.8921 58.62 49.8921C58.89 49.8921 59 49.6521 59.04 48.7721C59.2 48.9421 59.42 49.1021 59.59 49.1621C59.46 50.2821 59.23 50.6121 58.55 50.6121C57.84 50.6121 57.31 50.0821 56.9 49.1821C56.11 49.7021 55.21 50.1421 54.28 50.4621C54.19 50.2721 53.99 50.0221 53.82 49.8521C54.84 49.5421 55.8 49.0921 56.65 48.5321C56.44 47.9021 56.28 47.1621 56.16 46.3321L54.25 46.7021L54.13 46.0321L56.07 45.6721C56.02 45.2421 55.97 44.7921 55.94 44.3321L54.47 44.5621L54.34 43.8921L55.91 43.6621C55.87 42.9621 55.85 42.2421 55.84 41.4921H56.57C56.57 42.2121 56.58 42.8921 56.61 43.5521L59 43.2021L59.12 43.8521L56.65 44.2321C56.69 44.6921 56.73 45.1221 56.78 45.5421L59.27 45.0721L59.4 45.7221L56.86 46.2021C56.97 46.9121 57.11 47.5521 57.27 48.0921C57.9 47.5821 58.44 47.0121 58.84 46.3821ZM61.57 50.9421L61.35 50.4121C62.12 50.0921 62.56 49.6221 62.61 48.9421C62.55 48.9521 62.5 48.9521 62.44 48.9521C62.03 48.9521 61.69 48.7121 61.69 48.2421C61.69 47.7721 62.04 47.5221 62.45 47.5221C63 47.5221 63.3 47.9721 63.3 48.6721C63.3 49.7521 62.62 50.5721 61.57 50.9421ZM73.95 43.2321L73.23 43.5521C73.07 43.0721 72.63 42.3321 72.21 41.7821L72.89 41.4921C73.32 42.0321 73.78 42.7521 73.95 43.2321ZM73.64 46.4221L76.4 46.4221V44.2721L73.64 44.2721V46.1821V46.4221ZM79.45 46.4221V47.1421H77.17V50.6421H76.4V47.1421L73.59 47.1421C73.45 48.4721 72.93 49.7821 71.12 50.7121C71.01 50.5321 70.75 50.2521 70.59 50.1121C72.17 49.3121 72.67 48.2421 72.82 47.1421H70.57V46.4221H72.88V46.1721V44.2721H70.94V43.5621L76.1 43.5621C76.44 42.9521 76.81 42.1121 77.02 41.4821L77.86 41.7321C77.56 42.3321 77.22 43.0221 76.9 43.5621H79.14V44.2721H77.17V46.4221H79.45ZM82.33 47.8921L83.33 47.5221L83.46 48.1821C82.51 48.5721 81.49 48.9821 80.69 49.2921L80.45 48.5521C80.79 48.4521 81.19 48.3021 81.64 48.1421V44.6221H80.58V43.9321H81.64V41.6221H82.33V43.9321H83.33V44.6221H82.33V47.8921ZM87.86 47.4321H84.94V48.2621H87.86V47.4321ZM84.94 49.5621H87.86V48.8121H84.94V49.5621ZM84.25 50.6121V46.8621H88.57V50.6121H87.86V50.1421H84.94V50.6121H84.25ZM84.43 41.7921L85.05 41.5321C85.33 41.8621 85.64 42.3221 85.77 42.6421L85.13 42.9521C84.99 42.6421 84.69 42.1521 84.43 41.7921ZM84.66 43.9321L85.09 43.7721C85.39 44.2121 85.68 44.7921 85.79 45.1721L85.34 45.3621C85.24 44.9721 84.96 44.3721 84.66 43.9321ZM87.27 45.3821L86.89 45.2221C87.15 44.8421 87.5 44.2021 87.67 43.7721L88.18 43.9621C87.89 44.4521 87.55 45.0221 87.27 45.3821ZM88.4 45.7121V43.4821H86.68V45.7121H88.4ZM84.35 43.4821V45.7121H86.1V43.4821H84.35ZM87.67 42.9521H89.04V46.2421H83.73V42.9521H86.9C87.2 42.5521 87.55 41.9221 87.75 41.4821L88.51 41.7521C88.24 42.1621 87.94 42.6021 87.67 42.9521ZM94.9 43.3821V43.7621C94.82 48.1821 94.75 49.6321 94.44 50.0621C94.26 50.3221 94.08 50.4121 93.78 50.4421C93.51 50.4821 93.05 50.4821 92.61 50.4521C92.59 50.2321 92.52 49.9121 92.39 49.7021C92.85 49.7421 93.28 49.7421 93.46 49.7421C93.62 49.7521 93.72 49.7221 93.79 49.5821C94.02 49.3021 94.11 47.9421 94.18 44.1121H92.67C92.58 46.7921 92.24 49.1821 90.89 50.6421C90.78 50.4821 90.51 50.2421 90.33 50.1321C91.57 48.8221 91.87 46.6121 91.95 44.1121H90.57V43.3821H91.97C91.98 42.8121 91.98 42.2321 91.98 41.6421H92.71C92.71 42.2321 92.7 42.8121 92.69 43.3821H94.9ZM96.42 49.0421H98.36V43.4621H96.42V49.0421ZM95.72 42.7421H99.1V50.4121H98.36V49.7521H96.42V50.4821H95.72V42.7421ZM108.12 46.4721H108.92V50.6221H108.12V50.0521H101.08V46.4721H101.88V49.3221H104.58V45.8421H101.52V42.4221H102.29V45.1121H104.58V41.5121H105.38V45.1121H107.73V42.4121H108.53V45.8421H105.38V49.3221H108.12V46.4721ZM112.06 48.7921H117.94V43.2821H112.06V48.7921ZM111.31 42.5421H118.73V50.3421H117.94V49.5421H112.06V50.3921H111.31V42.5421ZM123.22 42.6421V44.4421H124.96V45.1321H123.22V45.3921C123.6 45.7921 124.64 47.0121 124.89 47.3221L124.44 47.9321C124.21 47.5521 123.65 46.8021 123.22 46.2421V50.6121H122.49V46.2121C122 47.3721 121.35 48.5021 120.71 49.1921C120.62 48.9921 120.43 48.6921 120.29 48.5121C121.05 47.7521 121.85 46.3821 122.3 45.1321H120.54V44.4421H122.49V42.7821C121.93 42.8721 121.37 42.9521 120.84 43.0221C120.8 42.8421 120.72 42.6021 120.63 42.4321C121.95 42.2521 123.51 41.9521 124.39 41.6021L124.89 42.1821C124.43 42.3521 123.84 42.5121 123.22 42.6421ZM126.03 48.6521H128.26V43.1421H126.03V48.6521ZM125.3 42.4321H129V50.1221H128.26V49.3721H126.03V50.1921H125.3V42.4321ZM135.54 44.0221V45.1921C135.54 45.3921 135.54 45.5921 135.52 45.8021H137.19V44.0221H135.54ZM137.19 46.5221H135.44C135.29 47.4721 134.91 48.4321 134.03 49.1021C133.93 48.9621 133.65 48.6821 133.49 48.5721C134.24 48.0121 134.57 47.2721 134.71 46.5221H133.34V45.8021H134.79C134.81 45.5921 134.81 45.3921 134.81 45.1821V44.0221H133.4V43.3021H134.81V41.7121H135.54V43.3021H137.19V41.7121H137.92V43.3021H139.2V44.0221H137.92V45.8021H139.4V46.5221H137.92V49.0521H137.19V46.5221ZM132.93 43.3221L132.37 43.7921C132.06 43.3321 131.4 42.6121 130.85 42.1121L131.38 41.7121C131.93 42.1921 132.61 42.8821 132.93 43.3221ZM132.64 45.1021V48.6921C132.83 48.8121 133.04 49.0021 133.37 49.2021C134.02 49.6121 134.85 49.6821 135.98 49.6821C137.15 49.6821 138.64 49.6021 139.6 49.4921C139.52 49.6921 139.4 50.0521 139.38 50.2621C138.68 50.3121 136.91 50.3721 135.95 50.3721C134.72 50.3721 133.89 50.2521 133.2 49.8221C132.8 49.5521 132.47 49.2221 132.26 49.2221C131.92 49.2221 131.43 49.8121 130.92 50.4921L130.43 49.8221C130.96 49.2621 131.47 48.8121 131.91 48.6421V45.8021H130.54V45.1021H132.64ZM22.06 62.7921H27.94V57.2821H22.06V62.7921ZM21.31 56.5421H28.73V64.3421H27.94V63.5421H22.06V64.3921H21.31L21.31 56.5421ZM38.81 56.1321V56.8321H33.81V56.1321H38.81ZM39.27 62.5721L38.62 62.9221C38.52 62.7121 38.38 62.4521 38.22 62.1721C34.5 62.4921 34.06 62.5321 33.77 62.6621C33.72 62.5021 33.59 62.1221 33.5 61.9121C33.68 61.8821 33.84 61.6621 34.04 61.3421C34.23 61.0721 34.78 60.1021 35.16 59.1021H33.15V58.4021H39.51V59.1021H36.05C35.64 60.0421 35.12 61.0121 34.59 61.7821L37.87 61.5221C37.54 60.9521 37.19 60.3521 36.86 59.8421L37.47 59.5621C38.09 60.5321 38.89 61.8221 39.27 62.5721ZM32.98 57.3221L32.47 57.8621C32.08 57.5021 31.3 56.9221 30.72 56.5121L31.21 56.0521C31.78 56.4221 32.58 56.9721 32.98 57.3221ZM32.54 58.9821V62.8021C32.76 62.9021 32.98 63.1121 33.37 63.3421C34.04 63.7621 34.88 63.8321 35.98 63.8321C37.11 63.8321 38.61 63.7521 39.64 63.6421C39.54 63.8521 39.42 64.2321 39.4 64.4521C38.73 64.4921 37.04 64.5521 35.96 64.5521C34.74 64.5521 33.91 64.4321 33.21 64.0021C32.81 63.7521 32.47 63.4321 32.25 63.4321C31.91 63.4321 31.41 64.0221 30.92 64.6821L30.41 63.9921C30.9 63.4621 31.39 63.0321 31.82 62.8321V59.6721H30.45V58.9821H32.54ZM43.63 61.4721L43.69 62.1021L42.87 62.3121V64.6321H42.22V62.4821C41.64 62.6321 41.09 62.7721 40.62 62.8821L40.46 62.1921C40.94 62.1021 41.55 61.9521 42.22 61.8021V60.4221L41.44 60.4221C41.12 60.4221 40.83 60.4821 40.74 60.5721C40.71 60.4321 40.6 60.1021 40.52 59.9421C40.68 59.8921 40.8 59.5721 40.94 59.1321C41.03 58.8721 41.23 58.2021 41.39 57.3821H40.5V56.7021H41.53C41.6 56.3121 41.66 55.9221 41.7 55.5221L42.39 55.6321C42.34 55.9821 42.27 56.3421 42.2 56.7021H43.68V57.3821L42.05 57.3821C41.85 58.2321 41.6 59.0521 41.35 59.7421L42.22 59.7421V58.2521H42.87V59.7421H43.66V60.4221H42.87V61.6521L43.63 61.4721ZM44.77 61.9921H46.14V61.1721H44.77V61.9921ZM46.14 59.8221H44.77V60.6021H46.14V59.8221ZM46.76 59.2221V63.8521C46.76 64.1721 46.71 64.3521 46.5 64.4621C46.3 64.5721 45.99 64.5821 45.56 64.5821C45.54 64.4021 45.46 64.1421 45.37 63.9621C45.68 63.9721 45.94 63.9721 46.03 63.9721C46.12 63.9621 46.14 63.9421 46.14 63.8521V62.5521H44.77V64.6021H44.16V59.2221H46.76ZM48.59 63.7921V59.0421H49.19V63.7921C49.19 64.1521 49.12 64.3321 48.88 64.4321C48.63 64.5421 48.24 64.5521 47.65 64.5521C47.62 64.3821 47.55 64.1221 47.45 63.9421C47.91 63.9521 48.3 63.9521 48.43 63.9421C48.55 63.9421 48.59 63.9121 48.59 63.7921ZM47.9 59.4021V62.9921H47.32V59.4021H47.9ZM45.05 57.9521H48.25C47.64 57.5621 47.08 57.1121 46.58 56.5521C46.13 57.0721 45.61 57.5521 45.05 57.9521ZM46.57 55.4721L47.19 55.7521C47.12 55.8521 47.04 55.9621 46.97 56.0721C47.73 56.9221 48.67 57.4821 49.7 57.9321C49.53 58.0821 49.33 58.3221 49.23 58.5121C48.96 58.3721 48.7 58.2321 48.46 58.0821L48.45 58.5621H44.78V58.1421C44.51 58.3221 44.25 58.4721 43.97 58.6121C43.87 58.4421 43.67 58.2121 43.49 58.0621C44.7 57.5021 45.93 56.5221 46.57 55.4721ZM53.47 57.1721L52.97 57.7221C52.64 57.2921 51.95 56.6221 51.4 56.1621L51.88 55.6821C52.43 56.1221 53.13 56.7621 53.47 57.1721ZM52.82 62.8721L54.04 62.0521C54.09 62.2421 54.22 62.5521 54.28 62.7021C52.42 64.0221 52.14 64.2421 51.98 64.4521C51.91 64.2521 51.72 63.9321 51.59 63.7721C51.78 63.6421 52.07 63.3621 52.07 62.9421V59.3621H50.5V58.6321H52.82V62.8721ZM59.56 58.8121V59.5621H57.03V64.6421H56.26V59.5621H53.72V58.8121H56.26V55.5421H57.03V58.8121H59.56ZM65.05 57.0921L64.53 57.5421C64.25 57.1521 63.62 56.5421 63.1 56.1321L63.6 55.7321C64.12 56.1221 64.76 56.7021 65.05 57.0921ZM65.94 58.5321L62.8 58.8921C62.93 59.8221 63.12 60.6821 63.32 61.3921C63.85 60.7121 64.29 59.9521 64.62 59.1221L65.33 59.3321C64.88 60.4121 64.28 61.3621 63.59 62.1921C63.97 63.2421 64.43 63.8721 64.84 63.8721C65.09 63.8721 65.2 63.4221 65.26 62.2621C65.43 62.4221 65.69 62.5921 65.89 62.6521C65.75 64.1621 65.48 64.6021 64.8 64.6021C64.11 64.6021 63.51 63.9221 63.04 62.7921C62.4 63.4321 61.7 63.9821 60.95 64.4321C60.84 64.2721 60.58 63.9821 60.42 63.8421C61.29 63.3821 62.08 62.7721 62.76 62.0521C62.47 61.1721 62.24 60.1221 62.08 58.9621L60.48 59.1521L60.4 58.4521L62 58.2721C61.9 57.3821 61.84 56.4621 61.83 55.5221H62.58C62.58 56.4521 62.63 57.3421 62.72 58.1921L65.87 57.8321L65.94 58.5321ZM67.17 56.6121V62.0621H66.46V56.6121H67.17ZM68.37 55.6221L69.1 55.6121V63.6621C69.1 64.1521 68.98 64.3621 68.68 64.4821C68.37 64.6121 67.87 64.6321 67.01 64.6321C66.97 64.4321 66.86 64.1121 66.76 63.9021C67.39 63.9221 67.96 63.9121 68.13 63.9021C68.3 63.9021 68.37 63.8521 68.37 63.6721V55.6221Z" fill="#5B6A78"/>
<path d="M221.79 9.48207V10.2021L215.61 10.2021V9.48207L221.79 9.48207ZM217.62 7.38207L223.87 7.38207C223.87 7.38207 223.86 7.64207 223.84 7.74207C223.56 10.5921 223.28 11.7321 222.83 12.1621C222.58 12.4221 222.32 12.4921 221.9 12.5121C221.54 12.5321 220.82 12.5221 220.12 12.4721C220.1 12.2521 219.99 11.9421 219.84 11.7421C220.62 11.8121 221.39 11.8121 221.68 11.8121C221.93 11.8121 222.08 11.8021 222.19 11.6921C222.57 11.4021 222.82 10.3721 223.05 8.08207H217.29L216.67 8.07207C216.98 6.97207 217.38 5.09207 217.62 3.72207L218.37 3.80207C218.3 4.14207 218.24 4.51207 218.16 4.88207L223.72 4.88207V5.59207L218.02 5.59207C217.88 6.22207 217.75 6.84207 217.62 7.38207ZM230.85 4.58207V5.00207C230.85 5.89207 230.59 6.96207 229.43 7.67207C229.33 7.51207 229.08 7.23207 228.96 7.12207C230.01 6.50207 230.18 5.69207 230.18 4.98207V3.88207L233.24 3.88207V6.20207C233.24 6.48207 233.26 6.57207 233.4 6.57207H233.98C234.11 6.57207 234.29 6.55207 234.42 6.52207C234.43 6.71207 234.46 6.99207 234.47 7.16207C234.37 7.20207 234.17 7.21207 233.99 7.21207H233.35C232.7 7.21207 232.56 6.93207 232.56 6.18207V4.58207H230.85ZM226.75 8.59207H228.2V6.89207H226.77V7.44207C226.77 7.79207 226.77 8.18207 226.75 8.59207ZM228.2 4.55207H226.77V6.21207H228.2V4.55207ZM228.87 3.87207V11.6921C228.87 12.0721 228.79 12.2921 228.55 12.4221C228.31 12.5421 227.94 12.5521 227.3 12.5521C227.27 12.3721 227.19 12.0521 227.1 11.8621C227.53 11.8721 227.91 11.8721 228.03 11.8721C228.15 11.8621 228.2 11.8121 228.2 11.6821V9.28207H226.71C226.63 10.4521 226.43 11.6921 225.98 12.6421C225.85 12.5321 225.55 12.3621 225.38 12.3021C226.05 10.9021 226.1 8.91207 226.1 7.45207V3.87207L228.87 3.87207ZM233.1 8.59207H230.32C230.65 9.32207 231.11 9.98207 231.7 10.5221C232.29 10.0021 232.77 9.35207 233.1 8.59207ZM233.58 7.86207L234.02 8.05207C233.65 9.27207 233.03 10.2321 232.24 10.9621C232.92 11.4421 233.71 11.8021 234.61 12.0121C234.46 12.1721 234.26 12.4621 234.17 12.6621C233.22 12.4021 232.39 11.9821 231.68 11.4221C230.95 11.9721 230.12 12.3621 229.24 12.6321C229.17 12.4221 229.01 12.1421 228.88 11.9821C229.69 11.7721 230.48 11.4321 231.16 10.9521C230.53 10.3121 230.03 9.54207 229.67 8.65207L229.82 8.59207H229.25V7.89207H233.46L233.58 7.86207ZM237.6 9.26207L238.33 9.45207C237.86 10.5021 237.1 11.5521 236.38 12.2321C236.24 12.0921 235.93 11.8621 235.75 11.7421C236.48 11.1321 237.19 10.2021 237.6 9.26207ZM243.7 8.46207H240.82V11.6221C240.82 12.0621 240.72 12.2821 240.42 12.4021C240.11 12.5321 239.6 12.5521 238.89 12.5521C238.86 12.3421 238.73 12.0021 238.61 11.7921C239.19 11.8121 239.72 11.8121 239.88 11.8021C240.04 11.7921 240.08 11.7521 240.08 11.6121V8.46207H237.88C237.29 8.46207 236.9 8.51207 236.81 8.61207C236.76 8.44207 236.63 8.05207 236.53 7.84207C236.76 7.78207 236.97 7.50207 237.28 7.06207C237.45 6.83207 237.82 6.25207 238.22 5.53207H235.81V4.82207H238.59C238.82 4.38207 239.03 3.91207 239.22 3.45207L239.99 3.78207C239.84 4.12207 239.67 4.48207 239.49 4.82207L244.12 4.82207V5.53207L239.11 5.53207C238.67 6.33207 238.19 7.09207 237.72 7.74207L240.08 7.74207V6.28207H240.82V7.74207H243.71L243.7 8.46207ZM241.64 9.55207L242.25 9.24207C243.03 9.99207 243.95 11.0421 244.37 11.7421L243.7 12.1021C243.31 11.4221 242.42 10.3321 241.64 9.55207ZM248.68 7.86207V5.77207H246.58V7.86207H248.68ZM246.58 10.9221H248.68V8.52207H246.58V10.9221ZM247.42 3.48207L248.22 3.63207C248.05 4.12207 247.87 4.67207 247.7 5.10207H249.36V11.5921H246.58V12.3821H245.9V5.10207H247.02C247.17 4.62207 247.35 3.95207 247.42 3.48207ZM254.25 5.07207V5.45207C254.09 10.0121 253.96 11.5521 253.56 12.0421C253.34 12.3221 253.11 12.4121 252.77 12.4421C252.42 12.4821 251.85 12.4621 251.29 12.4321C251.27 12.2121 251.18 11.9121 251.04 11.7021C251.69 11.7621 252.29 11.7621 252.52 11.7621C252.72 11.7621 252.83 11.7421 252.93 11.6121C253.26 11.2621 253.41 9.74207 253.54 5.76207H251C250.72 6.43207 250.41 7.04207 250.06 7.51207C249.93 7.39207 249.61 7.19207 249.45 7.09207C250.12 6.21207 250.66 4.83207 250.98 3.46207L251.69 3.63207C251.57 4.12207 251.43 4.60207 251.26 5.07207H254.25ZM252.67 9.57207L252.04 9.96207C251.74 9.36207 251.07 8.37207 250.52 7.65207L251.1 7.31207C251.66 8.02207 252.35 8.98207 252.67 9.57207ZM264.5 7.93207V8.67207H260.42V11.6521C260.42 12.1521 260.29 12.3821 259.91 12.4921C259.54 12.6221 258.91 12.6321 257.95 12.6321C257.9 12.4121 257.76 12.0821 257.63 11.8721C258.44 11.9021 259.17 11.8921 259.39 11.8821C259.59 11.8721 259.66 11.8221 259.66 11.6421V8.67207H255.54V7.93207L259.66 7.93207V6.49207C260.49 6.11207 261.46 5.49207 262.16 4.91207L256.53 4.91207V4.18207H262.97L263.13 4.14207L263.69 4.56207C262.84 5.40207 261.56 6.29207 260.42 6.87207V7.93207L264.5 7.93207ZM268.26 3.80207L269.05 4.02207C268.38 5.64207 267.32 7.15207 266.24 8.13207C266.08 7.98207 265.74 7.72207 265.55 7.60207C266.67 6.72207 267.67 5.29207 268.26 3.80207ZM271.11 9.13207L271.8 8.81207C272.67 9.87207 273.69 11.2721 274.18 12.1721L273.46 12.5721C273.3 12.2521 273.06 11.8621 272.8 11.4521C267.55 11.8121 267.01 11.8421 266.64 11.9821C266.6 11.8221 266.46 11.4121 266.35 11.2021C266.61 11.1421 266.88 10.8421 267.26 10.3621C267.65 9.92207 268.86 8.19207 269.66 6.53207L270.46 6.89207C269.64 8.40207 268.66 9.88207 267.68 11.0421L272.33 10.7621C271.93 10.2021 271.5 9.62207 271.11 9.13207ZM270.91 4.01207L271.64 3.73207C272.3 5.09207 273.57 6.67207 274.6 7.50207C274.41 7.65207 274.13 7.93207 273.98 8.13207C272.95 7.18207 271.68 5.51207 270.91 4.01207ZM280.55 8.30207H277.34V10.1621H280.55V8.30207ZM281.28 10.8221H277.34V11.5521H276.61V7.64207L281.28 7.64207V10.8221ZM281.96 5.90207V6.57207L275.98 6.57207V5.90207L281.96 5.90207ZM283.85 4.15207V11.5321C283.85 12.0421 283.74 12.3021 283.4 12.4321C283.05 12.5621 282.43 12.5721 281.54 12.5721C281.51 12.3521 281.4 11.9821 281.28 11.7721C281.97 11.7921 282.66 11.7921 282.86 11.7821C283.05 11.7721 283.1 11.7221 283.1 11.5321V4.86207L275.91 4.86207V4.15207L283.85 4.15207ZM288.22 4.64207V6.44207L289.96 6.44207V7.13207L288.22 7.13207V7.39207C288.6 7.79207 289.64 9.01207 289.89 9.32207L289.44 9.93207C289.21 9.55207 288.65 8.80207 288.22 8.24207V12.6121H287.49V8.21207C287 9.37207 286.35 10.5021 285.71 11.1921C285.62 10.9921 285.43 10.6921 285.29 10.5121C286.05 9.75207 286.85 8.38207 287.3 7.13207H285.54V6.44207H287.49V4.78207C286.93 4.87207 286.37 4.95207 285.84 5.02207C285.8 4.84207 285.72 4.60207 285.63 4.43207C286.95 4.25207 288.51 3.95207 289.39 3.60207L289.89 4.18207C289.43 4.35207 288.84 4.51207 288.22 4.64207ZM291.03 10.6521H293.26V5.14207H291.03V10.6521ZM290.3 4.43207H294V12.1221H293.26V11.3721H291.03V12.1921H290.3V4.43207ZM298.11 3.90207L298.59 4.18207C298.32 5.03207 297.98 6.04207 297.66 6.87207C298.33 7.72207 298.49 8.47207 298.49 9.10207C298.49 9.65207 298.38 10.0921 298.12 10.2821C297.99 10.3921 297.81 10.4521 297.62 10.4721C297.44 10.5021 297.2 10.5021 297 10.4921C296.99 10.2921 296.93 10.0221 296.82 9.82207C297.03 9.85207 297.2 9.85207 297.35 9.84207C297.46 9.83207 297.56 9.80207 297.63 9.75207C297.77 9.64207 297.82 9.35207 297.82 9.03207C297.82 8.47207 297.67 7.76207 297.02 6.95207C297.28 6.21207 297.55 5.29207 297.74 4.60207H296.52V12.6421H295.86V3.93207L298 3.93207L298.11 3.90207ZM300.16 3.51207L300.84 3.69207C300.63 4.39207 300.35 5.09207 300.04 5.73207V12.5821H299.37V6.94207C299.15 7.30207 298.9 7.64207 298.66 7.92207C298.57 7.77207 298.33 7.46207 298.18 7.31207C299.02 6.38207 299.73 4.96207 300.16 3.51207ZM304.6 5.79207V6.48207H303.72V11.6821C303.72 12.1321 303.61 12.3421 303.34 12.4721C303.06 12.6021 302.62 12.6321 301.88 12.6221C301.85 12.4221 301.75 12.1021 301.64 11.8921C302.18 11.9021 302.65 11.9021 302.79 11.9021C302.94 11.8921 303 11.8421 303 11.6821V6.48207L300.52 6.48207V5.79207L303 5.79207V3.63207H303.72V5.79207H304.6ZM302.36 9.71207L301.76 10.0121C301.55 9.40207 301.1 8.45207 300.74 7.73207L301.3 7.48207C301.7 8.19207 302.16 9.11207 302.36 9.71207ZM313.1 4.53207L307.16 4.53207V5.42207L313.1 5.42207V4.53207ZM313.83 6.02207L307.16 6.02207V6.85207C307.16 8.53207 307.02 10.9521 306 12.5721C305.87 12.4621 305.55 12.2721 305.36 12.2121C306.34 10.6421 306.43 8.43207 306.43 6.85207V3.94207L313.83 3.94207V6.02207ZM308.61 8.78207H310.36V8.06207H308.61V8.78207ZM312.85 8.06207L311.05 8.06207V8.78207L312.85 8.78207V8.06207ZM313.99 9.82207V11.9721C313.99 12.2921 313.93 12.4421 313.67 12.5321C313.44 12.6321 313.04 12.6321 312.41 12.6321C312.38 12.4621 312.29 12.2621 312.21 12.1021C312.65 12.1221 313.03 12.1221 313.14 12.1121C313.27 12.1021 313.3 12.0721 313.3 11.9721V10.3521H311.05V11.1221L311.96 11.0921C311.86 10.9321 311.76 10.7821 311.67 10.6521L312.11 10.5121C312.44 10.9421 312.82 11.5321 313 11.8821L312.54 12.0621C312.47 11.9321 312.38 11.7721 312.27 11.5921C310.95 11.6521 309.63 11.7221 308.66 11.7621L308.62 11.2021C309.1 11.1921 309.71 11.1721 310.36 11.1521V10.3521L308.22 10.3521V12.6521H307.53V9.82207L310.36 9.82207V9.25207L307.93 9.25207V7.59207H310.36V7.05207C309.53 7.10207 308.67 7.13207 307.88 7.13207C307.86 6.99207 307.79 6.78207 307.73 6.64207C309.54 6.61207 311.76 6.48207 312.95 6.26207L313.4 6.71207C312.75 6.83207 311.93 6.93207 311.05 7.00207V7.59207L313.55 7.59207V9.25207H311.05V9.82207H313.99ZM318.26 3.80207L319.05 4.02207C318.38 5.64207 317.32 7.15207 316.24 8.13207C316.08 7.98207 315.74 7.72207 315.55 7.60207C316.67 6.72207 317.67 5.29207 318.26 3.80207ZM321.11 9.13207L321.8 8.81207C322.67 9.87207 323.69 11.2721 324.18 12.1721L323.46 12.5721C323.3 12.2521 323.06 11.8621 322.8 11.4521C317.55 11.8121 317.01 11.8421 316.64 11.9821C316.6 11.8221 316.46 11.4121 316.35 11.2021C316.61 11.1421 316.88 10.8421 317.26 10.3621C317.65 9.92207 318.86 8.19207 319.66 6.53207L320.46 6.89207C319.64 8.40207 318.66 9.88207 317.68 11.0421L322.33 10.7621C321.93 10.2021 321.5 9.62207 321.11 9.13207ZM320.91 4.01207L321.64 3.73207C322.3 5.09207 323.57 6.67207 324.6 7.50207C324.41 7.65207 324.13 7.93207 323.98 8.13207C322.95 7.18207 321.68 5.51207 320.91 4.01207ZM330.55 8.30207H327.34V10.1621H330.55V8.30207ZM331.28 10.8221L327.34 10.8221V11.5521H326.61V7.64207L331.28 7.64207V10.8221ZM331.96 5.90207V6.57207L325.98 6.57207V5.90207L331.96 5.90207ZM333.85 4.15207V11.5321C333.85 12.0421 333.74 12.3021 333.4 12.4321C333.05 12.5621 332.43 12.5721 331.54 12.5721C331.51 12.3521 331.4 11.9821 331.28 11.7721C331.97 11.7921 332.66 11.7921 332.86 11.7821C333.05 11.7721 333.1 11.7221 333.1 11.5321V4.86207L325.91 4.86207V4.15207L333.85 4.15207ZM221.95 22.0721C221.95 20.1221 222.74 18.5321 223.94 17.3121L224.54 17.6221C223.39 18.8121 222.68 20.2921 222.68 22.0721C222.68 23.8521 223.39 25.3321 224.54 26.5221L223.94 26.8321C222.74 25.6121 221.95 24.0221 221.95 22.0721ZM229.8 24.0121C229.8 22.2821 225.48 23.2821 225.48 20.7021C225.48 20.1621 225.72 19.7021 226.2 19.3321C226.67 18.9621 227.3 18.7821 228.07 18.7821C229.24 18.7821 230.09 19.1221 230.62 19.8021L230.03 20.3921C229.53 19.8921 228.87 19.6421 228.05 19.6421C227.64 19.6421 227.27 19.7221 226.93 19.8921C226.59 20.0621 226.42 20.3321 226.42 20.6821C226.42 21.5521 227.5 21.7221 228.58 22.0121C229.66 22.3021 230.74 22.6921 230.74 23.9421C230.74 24.5321 230.5 25.0221 230.02 25.3921C229.54 25.7721 228.93 25.9621 228.2 25.9621C227.6 25.9621 227.04 25.8321 226.51 25.5621C225.98 25.3021 225.58 24.9821 225.33 24.6121L225.92 23.9721C226.41 24.6121 227.28 25.1021 228.29 25.1021C229.13 25.1021 229.8 24.6821 229.8 24.0121ZM235.933 24.0121C235.933 22.2821 231.613 23.2821 231.613 20.7021C231.613 20.1621 231.853 19.7021 232.333 19.3321C232.803 18.9621 233.433 18.7821 234.203 18.7821C235.373 18.7821 236.223 19.1221 236.753 19.8021L236.163 20.3921C235.663 19.8921 235.003 19.6421 234.183 19.6421C233.773 19.6421 233.403 19.7221 233.063 19.8921C232.723 20.0621 232.553 20.3321 232.553 20.6821C232.553 21.5521 233.633 21.7221 234.713 22.0121C235.793 22.3021 236.873 22.6921 236.873 23.9421C236.873 24.5321 236.633 25.0221 236.153 25.3921C235.673 25.7721 235.063 25.9621 234.333 25.9621C233.733 25.9621 233.173 25.8321 232.643 25.5621C232.113 25.3021 231.713 24.9821 231.463 24.6121L232.053 23.9721C232.543 24.6121 233.413 25.1021 234.423 25.1021C235.263 25.1021 235.933 24.6821 235.933 24.0121ZM238.206 25.8721H237.276L240.346 18.8521H241.066L244.136 25.8721H243.186L242.406 24.1021H238.976L238.206 25.8721ZM242.066 23.3021L240.686 20.1221L239.316 23.3021H242.066ZM247.95 24.4521C247.95 23.7521 246.76 23.6421 245.81 23.3721C245.16 23.1821 244.64 22.7521 244.64 22.0421C244.64 21.1221 245.51 20.5521 246.8 20.5521C247.67 20.5521 248.37 20.9221 248.74 21.4521L248.15 22.0021C247.82 21.5621 247.32 21.3421 246.65 21.3421C246.05 21.3421 245.53 21.5721 245.53 22.0021C245.53 22.6121 246.72 22.7221 247.67 23.0121C248.31 23.2121 248.83 23.6921 248.83 24.4421C248.83 25.4521 248.02 25.9621 246.75 25.9621C245.68 25.9621 244.77 25.4821 244.4 24.7321L245.07 24.2621C245.38 24.8121 246.09 25.1721 246.89 25.1721C247.6 25.1721 247.95 24.9321 247.95 24.4521ZM252.171 22.0721C252.171 24.0221 251.381 25.6121 250.181 26.8321L249.581 26.5221C250.731 25.3321 251.441 23.8521 251.441 22.0721C251.441 20.2921 250.731 18.8121 249.581 17.6221L250.181 17.3121C251.381 18.5321 252.171 20.1221 252.171 22.0721ZM262.091 23.2421H265.731C265.841 22.4621 265.921 21.7121 265.991 21.1021H262.531C262.381 21.8621 262.231 22.6121 262.091 23.2421ZM266.171 25.5521H268.601V26.2821H259.681V25.5521H265.401C265.481 25.0521 265.561 24.5021 265.641 23.9421H261.101C261.451 22.6321 261.891 20.4521 262.161 18.8021H260.011V18.0821H268.301V18.8021H262.951C262.871 19.3121 262.771 19.8421 262.661 20.4021H266.141L266.281 20.3621L266.831 20.4321C266.701 21.7821 266.411 23.9121 266.171 25.5521ZM273.891 18.3221V18.9921L270.051 18.9921V18.3221L273.891 18.3221ZM274.241 24.9921L273.581 25.2021C273.531 25.0221 273.471 24.7921 273.401 24.5421C270.641 25.1621 270.281 25.2721 270.051 25.4121V25.3721C270.041 25.3821 270.041 25.3921 270.041 25.4021C270.011 25.2521 269.891 24.9021 269.811 24.7121C269.971 24.6721 270.101 24.4021 270.261 24.0321C270.401 23.7021 270.821 22.5321 271.071 21.3721L269.691 21.3721V20.6921L274.061 20.6921V21.3721H271.841C271.581 22.4221 271.211 23.5221 270.821 24.4221L273.191 23.9221C273.011 23.4121 272.811 22.8721 272.611 22.4021L273.231 22.2321C273.611 23.1221 274.051 24.2921 274.241 24.9921ZM276.341 19.8021H278.541C278.541 19.8021 278.531 20.0721 278.531 20.1721C278.401 24.2621 278.281 25.6721 277.941 26.1121C277.731 26.3721 277.541 26.4521 277.221 26.4921C276.911 26.5221 276.371 26.5121 275.841 26.4821C275.821 26.2621 275.741 25.9621 275.611 25.7521C276.171 25.8021 276.691 25.8021 276.911 25.8021C277.081 25.8121 277.191 25.7821 277.291 25.6521C277.551 25.3621 277.691 24.0521 277.801 20.5121H276.311C276.171 22.9721 275.751 25.2321 274.291 26.6321C274.161 26.4521 273.901 26.2021 273.711 26.0921C275.061 24.8521 275.461 22.7821 275.581 20.5121H274.191V19.8021H275.611C275.641 19.1021 275.641 18.3821 275.641 17.6721H276.371C276.371 18.3821 276.361 19.1021 276.341 19.8021ZM282.801 21.8621V19.7721H280.701V21.8621H282.801ZM280.701 24.9221H282.801V22.5221H280.701V24.9221ZM281.541 17.4821L282.341 17.6321C282.171 18.1221 281.991 18.6721 281.821 19.1021H283.481V25.5921H280.701V26.3821H280.021V19.1021H281.141C281.291 18.6221 281.471 17.9521 281.541 17.4821ZM288.371 19.0721V19.4521C288.211 24.0121 288.081 25.5521 287.681 26.0421C287.461 26.3221 287.231 26.4121 286.891 26.4421C286.541 26.4821 285.971 26.4621 285.411 26.4321C285.391 26.2121 285.301 25.9121 285.161 25.7021C285.811 25.7621 286.411 25.7621 286.641 25.7621C286.841 25.7621 286.951 25.7421 287.051 25.6121C287.381 25.2621 287.531 23.7421 287.661 19.7621H285.121C284.841 20.4321 284.531 21.0421 284.181 21.5121C284.051 21.3921 283.731 21.1921 283.571 21.0921C284.241 20.2121 284.781 18.8321 285.101 17.4621L285.811 17.6321C285.691 18.1221 285.551 18.6021 285.381 19.0721H288.371ZM286.791 23.5721L286.161 23.9621C285.861 23.3621 285.191 22.3721 284.641 21.6521L285.221 21.3121C285.781 22.0221 286.471 22.9821 286.791 23.5721ZM292.941 21.7821L293.031 22.4721L291.711 22.8821V25.7621C291.711 26.1821 291.611 26.3821 291.351 26.5021C291.101 26.6221 290.701 26.6421 290.031 26.6321C290.001 26.4421 289.901 26.1421 289.801 25.9521C290.251 25.9621 290.671 25.9621 290.791 25.9521C290.931 25.9521 290.981 25.9121 290.981 25.7621V23.1021C290.511 23.2421 290.071 23.3721 289.681 23.4921L289.471 22.7721C289.891 22.6621 290.411 22.5221 290.981 22.3621V20.2121H289.591V19.5221H290.981V17.5121H291.711V19.5221L292.881 19.5221V20.2121L291.711 20.2121V22.1421C292.111 22.0321 292.531 21.9121 292.941 21.7821ZM297.481 22.9121H294.241V23.9021H297.481V22.9121ZM294.241 25.5621H297.481V24.5121H294.241V25.5621ZM293.531 26.6321V22.2721H298.211V26.5921H297.481V26.1721H294.241V26.6321H293.531ZM295.021 20.7621H297.261C297.811 20.7621 297.901 20.5921 297.961 19.5121C298.131 19.6421 298.441 19.7521 298.641 19.8021C298.531 21.1021 298.301 21.4421 297.311 21.4421H294.981C293.841 21.4421 293.531 21.2221 293.531 20.3621V17.5421H294.261V19.0321C295.441 18.7821 296.711 18.4321 297.461 18.1021L298.031 18.6521C297.021 19.0521 295.561 19.3921 294.261 19.6421V20.3621C294.261 20.7021 294.381 20.7621 295.021 20.7621ZM306.631 18.5521H301.271V19.6021H306.631V18.5521ZM306.591 21.9321H302.621C301.001 21.9321 300.511 21.7321 300.511 20.8021V17.9021H307.361V20.2621H301.271V20.7921C301.271 21.2121 301.481 21.3121 302.571 21.3121H306.551C307.361 21.3121 307.511 21.1721 307.591 20.4421C307.781 20.5521 308.081 20.6421 308.301 20.6821C308.171 21.6921 307.851 21.9321 306.591 21.9321ZM308.541 22.9621L308.531 23.6521H306.341V25.7421C306.341 26.1921 306.221 26.3921 305.871 26.4921C305.521 26.6021 304.921 26.6021 303.961 26.6021C303.921 26.4021 303.811 26.1321 303.701 25.9321C304.431 25.9621 305.151 25.9521 305.341 25.9421C305.531 25.9421 305.591 25.8921 305.591 25.7321V23.6521H301.841C302.451 24.1621 303.121 24.8421 303.431 25.3421L302.881 25.8321C302.581 25.3121 301.881 24.5521 301.261 24.0321L301.701 23.6521H299.771V22.9621H305.591V22.1921H306.341V22.9621H308.541ZM318.441 19.9521L313.351 19.9521C313.321 20.4821 313.281 21.0121 313.211 21.5421L317.471 21.5421C317.471 21.5421 317.461 21.7921 317.441 21.9021C317.251 24.7121 317.051 25.7921 316.661 26.1821C316.421 26.4321 316.191 26.5021 315.801 26.5321C315.451 26.5521 314.791 26.5421 314.131 26.5021C314.111 26.2721 314.011 25.9721 313.861 25.7721C314.581 25.8321 315.271 25.8421 315.541 25.8421C315.771 25.8421 315.891 25.8221 316.011 25.7321C316.311 25.4721 316.501 24.5121 316.671 22.2621L313.101 22.2621C312.781 24.0221 312.041 25.6621 310.161 26.6621C310.041 26.4721 309.811 26.2121 309.621 26.0721C312.181 24.8021 312.431 22.2321 312.541 19.9521H309.841V19.2321H314.201C314.081 18.8321 313.781 18.1921 313.531 17.7321L314.231 17.4521C314.511 17.9221 314.811 18.5221 314.961 18.9321L314.261 19.2321L318.441 19.2321V19.9521ZM323.351 19.3721H320.861C320.541 19.8521 320.201 20.2721 319.851 20.6221C319.791 20.4721 319.591 20.0921 319.471 19.9321C320.101 19.3521 320.681 18.4521 321.011 17.5321L321.671 17.7321C321.561 18.0421 321.421 18.3621 321.261 18.6621H323.351V19.3721ZM321.971 25.3221L323.431 24.6021C323.451 24.8021 323.511 25.0921 323.561 25.2421C321.611 26.2621 321.331 26.4121 321.151 26.5821C321.091 26.4021 320.931 26.0921 320.801 25.9321C320.981 25.8221 321.261 25.5921 321.261 25.1821V23.1121H319.761V22.4321H321.261V21.0821H320.231V20.4121H323.101V21.0821H321.971V22.4321H323.301V23.1121H321.971V25.3221ZM328.631 20.8421V21.5721H326.481V26.6321H325.731V21.5721H323.401V20.8421H325.731V17.5921H326.481V20.8421H328.631Z" fill="#5B6A78"/>
<path d="M85.81 133.132V133.832H80.81V133.132H85.81ZM86.27 139.572L85.62 139.922C85.52 139.712 85.38 139.452 85.22 139.172C81.5 139.492 81.06 139.532 80.77 139.662C80.72 139.502 80.59 139.122 80.5 138.912C80.68 138.882 80.84 138.662 81.04 138.342C81.23 138.072 81.78 137.102 82.16 136.102H80.15V135.402H86.51V136.102H83.05C82.64 137.042 82.12 138.012 81.59 138.782L84.87 138.522C84.54 137.952 84.19 137.352 83.86 136.842L84.47 136.562C85.09 137.532 85.89 138.822 86.27 139.572ZM79.98 134.322L79.47 134.862C79.08 134.502 78.3 133.922 77.72 133.512L78.21 133.052C78.78 133.422 79.58 133.972 79.98 134.322ZM79.54 135.982V139.802C79.76 139.902 79.98 140.112 80.37 140.342C81.04 140.762 81.88 140.832 82.98 140.832C84.11 140.832 85.61 140.752 86.64 140.642C86.54 140.852 86.42 141.232 86.4 141.452C85.73 141.492 84.04 141.552 82.96 141.552C81.74 141.552 80.91 141.432 80.21 141.002C79.81 140.752 79.47 140.432 79.25 140.432C78.91 140.432 78.41 141.022 77.92 141.682L77.41 140.992C77.9 140.462 78.39 140.032 78.82 139.832V136.672H77.45V135.982H79.54ZM90.63 138.472L90.69 139.102L89.87 139.312V141.632H89.22V139.482C88.64 139.632 88.09 139.772 87.62 139.882L87.46 139.192C87.94 139.102 88.55 138.952 89.22 138.802V137.422H88.44C88.12 137.422 87.83 137.482 87.74 137.572C87.71 137.432 87.6 137.102 87.52 136.942C87.68 136.892 87.8 136.572 87.94 136.132C88.03 135.872 88.23 135.202 88.39 134.382H87.5V133.702H88.53C88.6 133.312 88.66 132.922 88.7 132.522L89.39 132.632C89.34 132.982 89.27 133.342 89.2 133.702H90.68V134.382H89.05C88.85 135.232 88.6 136.052 88.35 136.742H89.22V135.252H89.87V136.742H90.66V137.422H89.87V138.652L90.63 138.472ZM91.77 138.992H93.14V138.172H91.77V138.992ZM93.14 136.822H91.77V137.602H93.14V136.822ZM93.76 136.222V140.852C93.76 141.172 93.71 141.352 93.5 141.462C93.3 141.572 92.99 141.582 92.56 141.582C92.54 141.402 92.46 141.142 92.37 140.962C92.68 140.972 92.94 140.972 93.03 140.972C93.12 140.962 93.14 140.942 93.14 140.852V139.552H91.77V141.602H91.16V136.222H93.76ZM95.59 140.792V136.042H96.19V140.792C96.19 141.152 96.12 141.332 95.88 141.432C95.63 141.542 95.24 141.552 94.65 141.552C94.62 141.382 94.55 141.122 94.45 140.942C94.91 140.952 95.3 140.952 95.43 140.942C95.55 140.942 95.59 140.912 95.59 140.792ZM94.9 136.402V139.992H94.32V136.402H94.9ZM92.05 134.952H95.25C94.64 134.562 94.08 134.112 93.58 133.552C93.13 134.072 92.61 134.552 92.05 134.952ZM93.57 132.472L94.19 132.752C94.12 132.852 94.04 132.962 93.97 133.072C94.73 133.922 95.67 134.482 96.7 134.932C96.53 135.082 96.33 135.322 96.23 135.512C95.96 135.372 95.7 135.232 95.46 135.082L95.45 135.562H91.78V135.142C91.51 135.322 91.25 135.472 90.97 135.612C90.87 135.442 90.67 135.212 90.49 135.062C91.7 134.502 92.93 133.522 93.57 132.472ZM100.22 133.642V135.442H101.96V136.132H100.22V136.392C100.6 136.792 101.64 138.012 101.89 138.322L101.44 138.932C101.21 138.552 100.65 137.802 100.22 137.242V141.612H99.49V137.212C99 138.372 98.35 139.502 97.71 140.192C97.62 139.992 97.43 139.692 97.29 139.512C98.05 138.752 98.85 137.382 99.3 136.132H97.54V135.442H99.49V133.782C98.93 133.872 98.37 133.952 97.84 134.022C97.8 133.842 97.72 133.602 97.63 133.432C98.95 133.252 100.51 132.952 101.39 132.602L101.89 133.182C101.43 133.352 100.84 133.512 100.22 133.642ZM103.03 139.652H105.26V134.142H103.03V139.652ZM102.3 133.432H106V141.122H105.26V140.372H103.03V141.192H102.3V133.432ZM111.19 137.602L109.93 138.002V141.642H109.24V138.222C108.65 138.402 108.08 138.582 107.59 138.732L107.39 138.022C107.9 137.882 108.54 137.712 109.24 137.492V135.262H108.33C108.21 135.822 108.07 136.332 107.89 136.742C107.76 136.652 107.48 136.472 107.32 136.412C107.7 135.562 107.89 134.302 108.01 133.082L108.66 133.192C108.61 133.642 108.54 134.102 108.47 134.542H109.24V132.512H109.93V134.542H110.95V135.262H109.93V137.302L111.09 136.942L111.19 137.602ZM112.58 134.172H116.47C116.47 134.172 116.47 134.462 116.46 134.552C116.24 139.082 116.02 140.632 115.62 141.132C115.43 141.392 115.23 141.482 114.93 141.512C114.66 141.552 114.23 141.542 113.79 141.512C113.78 141.292 113.71 140.982 113.58 140.782C114.03 140.822 114.43 140.832 114.63 140.832C114.79 140.832 114.89 140.792 115 140.662C115.32 140.312 115.54 138.832 115.74 134.872H115.26C114.76 137.492 113.66 140.152 112 141.472C111.86 141.312 111.6 141.132 111.38 141.022C113.02 139.842 114.1 137.382 114.62 134.872H113.8C113.35 136.582 112.43 138.452 111.34 139.402C111.2 139.252 110.96 139.082 110.75 138.972C111.81 138.142 112.7 136.472 113.16 134.872H112.3C111.97 135.602 111.59 136.262 111.16 136.772C111.04 136.652 110.74 136.442 110.59 136.342C111.41 135.452 112.01 134.012 112.34 132.502L113.02 132.642C112.9 133.172 112.75 133.682 112.58 134.172ZM126.43 136.782L125.84 137.182C125.72 136.972 125.55 136.722 125.36 136.462C121.26 136.732 120.8 136.762 120.51 136.882C120.48 136.702 120.37 136.332 120.31 136.182C120.5 136.132 120.78 136.072 120.98 135.892C121.17 135.712 121.74 135.012 122.15 134.472H120.19V133.802H123.03C122.91 133.452 122.74 133.022 122.58 132.672L123.25 132.512C123.46 132.912 123.68 133.422 123.78 133.802H126.42V134.472H122.99C122.61 134.972 122.14 135.592 121.76 136.042L124.89 135.852C124.64 135.542 124.36 135.232 124.12 134.962L124.68 134.632C125.31 135.282 126.07 136.202 126.43 136.782ZM120.01 133.852L119.57 134.442C119.22 134.062 118.48 133.512 117.88 133.152L118.31 132.632C118.9 132.972 119.66 133.482 120.01 133.852ZM119.66 136.372L119.25 136.992C118.86 136.652 118.08 136.182 117.44 135.892L117.83 135.342C118.46 135.612 119.26 136.042 119.66 136.372ZM119.58 137.802L120.12 138.292C119.59 139.342 118.89 140.582 118.31 141.502L117.69 141.002C118.22 140.242 119 138.932 119.58 137.802ZM121 138.272V137.252H121.68V138.282C121.68 139.382 121.52 140.652 120.18 141.612C120.07 141.462 119.82 141.222 119.66 141.122C120.87 140.282 121 139.182 121 138.272ZM122.76 141.202V137.262H123.43V141.202H122.76ZM125.44 140.872H125.73C125.82 140.872 125.89 140.862 125.94 140.822C125.99 140.792 126.02 140.702 126.05 140.562C126.06 140.392 126.07 140.032 126.08 139.552C126.21 139.662 126.42 139.772 126.6 139.832C126.59 140.272 126.56 140.792 126.51 140.972C126.46 141.162 126.37 141.282 126.24 141.362C126.13 141.432 125.93 141.462 125.77 141.462H125.28C125.09 141.462 124.87 141.412 124.73 141.292C124.59 141.172 124.54 141.012 124.54 140.402V137.252H125.23V140.482C125.23 140.672 125.23 140.782 125.28 140.822C125.32 140.852 125.39 140.872 125.44 140.872ZM128.77 137.572H130.3V135.892H128.79V136.442C128.79 136.782 128.78 137.172 128.77 137.572ZM130.3 133.562H128.79V135.202H130.3V133.562ZM130.99 132.872V140.752C130.99 141.152 130.91 141.372 130.65 141.502C130.4 141.632 130 141.642 129.32 141.642C129.31 141.452 129.21 141.122 129.11 140.932C129.57 140.942 129.99 140.942 130.11 140.932C130.25 140.922 130.3 140.882 130.3 140.742V138.282H128.73C128.64 139.462 128.43 140.712 127.98 141.652C127.85 141.532 127.55 141.362 127.37 141.292C128.06 139.892 128.11 137.912 128.11 136.442V132.872H130.99ZM135.56 136.962H133.47C133.74 137.782 134.1 138.542 134.56 139.202C134.99 138.562 135.33 137.812 135.56 136.962ZM135.94 136.252L136.37 136.402C136.11 137.762 135.63 138.882 135 139.772C135.48 140.322 136.04 140.772 136.67 141.082C136.5 141.222 136.3 141.472 136.19 141.652C135.59 141.312 135.05 140.862 134.57 140.302C134.12 140.832 133.61 141.262 133.06 141.582C132.96 141.412 132.77 141.162 132.62 141.032C133.17 140.732 133.69 140.302 134.15 139.762C133.59 138.952 133.15 137.992 132.82 136.962H132.57V141.642H131.87V132.902H136.09V134.822C136.09 135.202 136 135.392 135.7 135.502C135.38 135.602 134.88 135.602 134.13 135.602C134.1 135.402 133.99 135.152 133.89 134.972C134.5 134.982 135.02 134.982 135.17 134.972C135.33 134.972 135.37 134.932 135.37 134.812V133.592H132.57V136.272H135.81L135.94 136.252ZM142.04 138.052H145.66C145.66 138.052 145.65 138.282 145.62 138.382C145.41 140.192 145.18 140.942 144.84 141.252C144.62 141.452 144.4 141.502 144.03 141.522C143.74 141.532 143.14 141.532 142.55 141.492C142.54 141.292 142.45 141.022 142.32 140.832C142.95 140.892 143.58 140.902 143.83 140.902C144.03 140.902 144.15 140.892 144.26 140.812C144.49 140.622 144.69 140.012 144.86 138.702H141.83C141.2 140.312 139.97 141.152 138.01 141.622C137.93 141.452 137.74 141.142 137.6 140.992C139.36 140.652 140.47 139.982 141.04 138.702H138.29V138.052H141.27C141.35 137.752 141.42 137.422 141.46 137.062L142.23 137.122C142.18 137.452 142.11 137.772 142.04 138.052ZM140.39 134.172L140.24 134.312C140.68 134.862 141.31 135.292 142.08 135.622C143.02 135.242 143.84 134.762 144.43 134.172H140.39ZM145.13 133.492L145.58 133.802C144.98 134.702 144.05 135.392 142.95 135.932C143.99 136.252 145.23 136.432 146.56 136.512C146.41 136.682 146.24 136.972 146.15 137.182C144.62 137.052 143.23 136.782 142.07 136.302C140.74 136.822 139.24 137.122 137.79 137.302C137.74 137.112 137.61 136.822 137.49 136.652C138.76 136.532 140.07 136.292 141.25 135.912C140.67 135.592 140.17 135.202 139.76 134.732C139.36 135.062 138.9 135.362 138.39 135.652C138.29 135.482 138.09 135.222 137.93 135.102C139.33 134.392 140.32 133.362 140.83 132.492L141.61 132.652C141.42 132.942 141.21 133.242 140.97 133.532H145L145.13 133.492ZM150.68 136.862V134.772H148.58V136.862H150.68ZM148.58 139.922H150.68V137.522H148.58V139.922ZM149.42 132.482L150.22 132.632C150.05 133.122 149.87 133.672 149.7 134.102H151.36V140.592H148.58V141.382H147.9V134.102H149.02C149.17 133.622 149.35 132.952 149.42 132.482ZM156.25 134.072V134.452C156.09 139.012 155.96 140.552 155.56 141.042C155.34 141.322 155.11 141.412 154.77 141.442C154.42 141.482 153.85 141.462 153.29 141.432C153.27 141.212 153.18 140.912 153.04 140.702C153.69 140.762 154.29 140.762 154.52 140.762C154.72 140.762 154.83 140.742 154.93 140.612C155.26 140.262 155.41 138.742 155.54 134.762H153C152.72 135.432 152.41 136.042 152.06 136.512C151.93 136.392 151.61 136.192 151.45 136.092C152.12 135.212 152.66 133.832 152.98 132.462L153.69 132.632C153.57 133.122 153.43 133.602 153.26 134.072H156.25ZM154.67 138.572L154.04 138.962C153.74 138.362 153.07 137.372 152.52 136.652L153.1 136.312C153.66 137.022 154.35 137.982 154.67 138.572ZM157.61 137.492L158.01 136.992C158.61 137.252 159.45 137.652 159.88 137.902L159.47 138.472C159.05 138.202 158.22 137.782 157.61 137.492ZM160.44 136.172L160.01 136.722C159.6 136.432 158.79 135.932 158.19 135.602L158.62 135.122C159.19 135.422 160.02 135.882 160.44 136.172ZM158.3 141.612L157.78 141.002C158.44 140.412 159.42 139.402 160.18 138.502L160.59 139.052C159.91 139.892 159.04 140.852 158.3 141.612ZM163.37 134.062H160.6V135.022H159.85V134.062H157.62V133.372H159.85V132.512H160.6V133.372H163.37V132.512H164.12V133.372H166.41V134.062H164.12V135.022H163.37V134.062ZM162.67 140.762H165.1C165.68 140.762 165.78 140.532 165.85 139.412C166.04 139.532 166.34 139.662 166.56 139.712C166.45 141.072 166.2 141.462 165.12 141.462H162.63C161.47 141.462 161.11 141.212 161.11 140.202V135.472H165.67V137.992C165.67 138.412 165.58 138.622 165.25 138.742C164.9 138.862 164.35 138.872 163.51 138.872C163.46 138.652 163.33 138.362 163.22 138.162C163.93 138.182 164.53 138.182 164.71 138.172C164.9 138.162 164.94 138.122 164.94 137.992V136.182H161.87V140.202C161.87 140.662 162 140.762 162.67 140.762ZM172.29 137.542H174.85C174.85 137.542 174.84 137.722 174.82 137.822C174.72 138.852 174.61 139.312 174.42 139.502C174.28 139.642 174.13 139.692 173.92 139.712C173.73 139.722 173.36 139.732 172.98 139.712C172.97 139.522 172.9 139.282 172.82 139.112C173.18 139.152 173.49 139.152 173.61 139.152C173.74 139.152 173.82 139.152 173.89 139.082C173.97 138.982 174.05 138.732 174.12 138.172H172.29V140.212H171.59V138.172H169.11V137.542L171.59 137.542V136.692L169.67 136.692V136.092L171.59 136.092V135.272L169.25 135.272V134.652L171.59 134.652V133.842H172.29V134.652H174.76V135.272H172.29V136.092H174.37V136.692H172.29V137.542ZM168.55 140.502L175.44 140.502V133.572L168.55 133.572V140.502ZM167.85 132.912L176.17 132.912V141.632H175.44V141.142L168.55 141.142V141.632H167.85V132.912Z" fill="#5B6A78"/>
<path d="M265.85 411.792L266.49 412.082C266.16 412.722 265.73 413.472 265.37 413.942L264.81 413.682C265.15 413.192 265.6 412.372 265.85 411.792ZM261.11 413.412H258.67C258.4 413.862 258.1 414.252 257.79 414.582C257.73 414.432 257.53 414.072 257.41 413.912C258 413.332 258.51 412.452 258.81 411.532L259.45 411.722C259.35 412.052 259.21 412.382 259.05 412.702H261.11V413.412ZM259.77 415.082V416.432H261.16V417.112H259.77V419.212L260.9 418.622C260.92 418.812 260.99 419.102 261.05 419.252C259.39 420.182 259.12 420.342 258.96 420.512C258.9 420.332 258.74 420.042 258.61 419.892C258.79 419.782 259.08 419.512 259.08 419.082V417.112H257.66V416.432H259.08V415.082H258.09V414.412H260.94V415.082H259.77ZM262.95 413.652L262.34 413.972C262.18 413.482 261.78 412.702 261.38 412.132L261.96 411.852C262.37 412.412 262.79 413.162 262.95 413.652ZM262.2 417.822H265.53V416.752H262.2V417.822ZM265.53 415.042H262.2V416.102H265.53V415.042ZM265.53 414.332H266.2V419.702C266.2 420.092 266.12 420.302 265.85 420.422C265.57 420.542 265.12 420.552 264.36 420.552C264.33 420.362 264.24 420.062 264.13 419.872C264.69 419.892 265.19 419.892 265.33 419.882C265.48 419.872 265.53 419.832 265.53 419.692V418.462H262.2V420.642H261.52V414.342H263.56V411.492H264.25V414.342L265.53 414.332ZM274.65 418.252H269.5V419.562H274.65V418.252ZM268.76 420.662V417.642H275.4V420.662H274.65V420.182H269.5V420.662H268.76ZM269.5 415.592V416.332H272.06V415.592H269.5ZM272.06 413.852V413.172H269.5V413.852H272.06ZM272.06 415.062V414.382H269.5V415.062H272.06ZM272.78 416.332H275.99V416.912H269.5V417.312H268.77V414.022C268.48 414.382 268.18 414.702 267.88 414.972C267.77 414.842 267.51 414.552 267.35 414.422C268.21 413.712 269.03 412.612 269.52 411.482L270.22 411.702C270.08 412.002 269.91 412.312 269.75 412.612H272.12C271.99 412.312 271.82 411.972 271.66 411.692L272.34 411.502C272.55 411.842 272.79 412.272 272.93 412.612H275.77V413.172H272.78V413.852H275.29V414.382H272.78V415.062H275.32V415.592H272.78V416.332ZM280.22 412.262L279.87 412.792C279.5 412.532 278.78 412.192 278.2 411.982L278.53 411.522C279.11 411.692 279.84 412.012 280.22 412.262ZM278.25 416.892L277.73 416.352C278.3 415.832 279.13 414.962 279.81 414.162L280.26 414.652C279.63 415.392 278.88 416.222 278.25 416.892ZM279.55 413.642L279.19 414.182C278.81 413.922 278.06 413.582 277.46 413.392L277.81 412.892C278.39 413.062 279.16 413.372 279.55 413.642ZM284.99 413.672H281.46V414.542H284.99V413.672ZM286.41 417.882H283.03C283.89 418.742 285.29 419.452 286.6 419.802C286.43 419.952 286.21 420.232 286.11 420.422C284.74 419.992 283.29 419.142 282.35 418.122V420.642H281.61V418.082C280.69 419.122 279.22 420.032 277.9 420.502C277.79 420.312 277.57 420.032 277.4 419.882C278.65 419.502 280.03 418.742 280.91 417.882H277.6V417.222H281.61V416.432H280.74V411.842H286.16V412.432H281.46V413.142H285.71V415.072H281.46V415.822H286.35V416.432H282.35V417.222H286.41V417.882ZM294.87 415.672V414.852H291.55V415.672H294.87ZM294.87 417.032V416.192H291.55V417.032H294.87ZM294.87 418.392V417.552H291.55V418.392H294.87ZM290.85 414.282H292.53C292.61 414.022 292.7 413.722 292.75 413.442H290.13V412.822H291.82C291.69 412.502 291.41 412.062 291.15 411.722L291.77 411.462C292.05 411.802 292.36 412.262 292.49 412.582L291.97 412.822H293.81C294.09 412.442 294.41 411.892 294.58 411.512L295.3 411.722C295.07 412.082 294.81 412.492 294.57 412.822H296.44V413.442H293.58C293.46 413.742 293.34 414.022 293.22 414.282H295.6V418.952H290.85V414.282ZM289.71 413.512L289.1 413.922C288.82 413.472 288.2 412.752 287.69 412.242L288.25 411.892C288.77 412.372 289.41 413.062 289.71 413.512ZM289.64 415.052V418.852C289.84 418.952 290.06 419.122 290.4 419.322C291.05 419.672 291.9 419.742 292.99 419.742C294.14 419.742 295.62 419.672 296.58 419.562C296.5 419.752 296.39 420.082 296.37 420.302C295.66 420.342 293.91 420.402 292.97 420.402C291.79 420.402 290.93 420.302 290.25 419.912C289.83 419.662 289.52 419.372 289.28 419.372C288.94 419.372 288.43 419.902 287.91 420.512L287.46 419.912C287.97 419.402 288.48 418.992 288.92 418.822V415.752H287.54V415.052H289.64ZM298.57 420.942L298.35 420.412C299.12 420.092 299.56 419.622 299.61 418.942C299.55 418.952 299.5 418.952 299.44 418.952C299.03 418.952 298.69 418.712 298.69 418.242C298.69 417.772 299.04 417.522 299.45 417.522C300 417.522 300.3 417.972 300.3 418.672C300.3 419.752 299.62 420.572 298.57 420.942ZM313.79 417.482V418.202H307.61V417.482H313.79ZM309.62 415.382H315.87C315.87 415.382 315.86 415.642 315.84 415.742C315.56 418.592 315.28 419.732 314.83 420.162C314.58 420.422 314.32 420.492 313.9 420.512C313.54 420.532 312.82 420.522 312.12 420.472C312.1 420.252 311.99 419.942 311.84 419.742C312.62 419.812 313.39 419.812 313.68 419.812C313.93 419.812 314.08 419.802 314.19 419.692C314.57 419.402 314.82 418.372 315.05 416.082H309.29L308.67 416.072C308.98 414.972 309.38 413.092 309.62 411.722L310.37 411.802C310.3 412.142 310.24 412.512 310.16 412.882H315.72V413.592H310.02C309.88 414.222 309.75 414.842 309.62 415.382ZM324.798 418.012C324.798 416.282 320.478 417.282 320.478 414.702C320.478 414.162 320.718 413.702 321.198 413.332C321.668 412.962 322.298 412.782 323.068 412.782C324.238 412.782 325.088 413.122 325.618 413.802L325.028 414.392C324.528 413.892 323.868 413.642 323.048 413.642C322.638 413.642 322.268 413.722 321.928 413.892C321.588 414.062 321.418 414.332 321.418 414.682C321.418 415.552 322.498 415.722 323.578 416.012C324.658 416.302 325.738 416.692 325.738 417.942C325.738 418.532 325.498 419.022 325.018 419.392C324.538 419.772 323.928 419.962 323.198 419.962C322.598 419.962 322.038 419.832 321.508 419.562C320.978 419.302 320.578 418.982 320.328 418.612L320.918 417.972C321.408 418.612 322.278 419.102 323.288 419.102C324.128 419.102 324.798 418.682 324.798 418.012ZM330.931 418.012C330.931 416.282 326.611 417.282 326.611 414.702C326.611 414.162 326.851 413.702 327.331 413.332C327.801 412.962 328.431 412.782 329.201 412.782C330.371 412.782 331.221 413.122 331.751 413.802L331.161 414.392C330.661 413.892 330.001 413.642 329.181 413.642C328.771 413.642 328.401 413.722 328.061 413.892C327.721 414.062 327.551 414.332 327.551 414.682C327.551 415.552 328.631 415.722 329.711 416.012C330.791 416.302 331.871 416.692 331.871 417.942C331.871 418.532 331.631 419.022 331.151 419.392C330.671 419.772 330.061 419.962 329.331 419.962C328.731 419.962 328.171 419.832 327.641 419.562C327.111 419.302 326.711 418.982 326.461 418.612L327.051 417.972C327.541 418.612 328.411 419.102 329.421 419.102C330.261 419.102 330.931 418.682 330.931 418.012ZM333.204 419.872H332.274L335.344 412.852H336.064L339.134 419.872H338.184L337.404 418.102H333.974L333.204 419.872ZM337.064 417.302L335.684 414.122L334.314 417.302H337.064ZM342.948 418.452C342.948 417.752 341.758 417.642 340.808 417.372C340.158 417.182 339.638 416.752 339.638 416.042C339.638 415.122 340.508 414.552 341.798 414.552C342.668 414.552 343.368 414.922 343.738 415.452L343.148 416.002C342.818 415.562 342.318 415.342 341.648 415.342C341.048 415.342 340.528 415.572 340.528 416.002C340.528 416.612 341.718 416.722 342.668 417.012C343.308 417.212 343.828 417.692 343.828 418.442C343.828 419.452 343.018 419.962 341.748 419.962C340.678 419.962 339.768 419.482 339.398 418.732L340.068 418.262C340.378 418.812 341.088 419.172 341.888 419.172C342.598 419.172 342.948 418.932 342.948 418.452ZM260.68 429.862V427.772H258.58V429.862H260.68ZM258.58 432.922H260.68V430.522H258.58V432.922ZM259.42 425.482L260.22 425.632C260.05 426.122 259.87 426.672 259.7 427.102H261.36V433.592H258.58V434.382H257.9V427.102H259.02C259.17 426.622 259.35 425.952 259.42 425.482ZM266.25 427.072V427.452C266.09 432.012 265.96 433.552 265.56 434.042C265.34 434.322 265.11 434.412 264.77 434.442C264.42 434.482 263.85 434.462 263.29 434.432C263.27 434.212 263.18 433.912 263.04 433.702C263.69 433.762 264.29 433.762 264.52 433.762C264.72 433.762 264.83 433.742 264.93 433.612C265.26 433.262 265.41 431.742 265.54 427.762H263C262.72 428.432 262.41 429.042 262.06 429.512C261.93 429.392 261.61 429.192 261.45 429.092C262.12 428.212 262.66 426.832 262.98 425.462L263.69 425.632C263.57 426.122 263.43 426.602 263.26 427.072H266.25ZM264.67 431.572L264.04 431.962C263.74 431.362 263.07 430.372 262.52 429.652L263.1 429.312C263.66 430.022 264.35 430.982 264.67 431.572ZM269.97 431.242H273.61C273.72 430.462 273.8 429.712 273.87 429.102H270.41C270.26 429.862 270.11 430.612 269.97 431.242ZM274.05 433.552H276.48V434.282H267.56V433.552H273.28C273.36 433.052 273.44 432.502 273.52 431.942H268.98C269.33 430.632 269.77 428.452 270.04 426.802H267.89V426.082H276.18V426.802H270.83C270.75 427.312 270.65 427.842 270.54 428.402H274.02L274.16 428.362L274.71 428.432C274.58 429.782 274.29 431.912 274.05 433.552ZM281.77 426.322V426.992H277.93V426.322H281.77ZM282.12 432.992L281.46 433.202C281.41 433.022 281.35 432.792 281.28 432.542C278.52 433.162 278.16 433.272 277.93 433.412V433.372C277.92 433.382 277.92 433.392 277.92 433.402C277.89 433.252 277.77 432.902 277.69 432.712C277.85 432.672 277.98 432.402 278.14 432.032C278.28 431.702 278.7 430.532 278.95 429.372H277.57V428.692H281.94V429.372H279.72C279.46 430.422 279.09 431.522 278.7 432.422L281.07 431.922C280.89 431.412 280.69 430.872 280.49 430.402L281.11 430.232C281.49 431.122 281.93 432.292 282.12 432.992ZM284.22 427.802H286.42C286.42 427.802 286.41 428.072 286.41 428.172C286.28 432.262 286.16 433.672 285.82 434.112C285.61 434.372 285.42 434.452 285.1 434.492C284.79 434.522 284.25 434.512 283.72 434.482C283.7 434.262 283.62 433.962 283.49 433.752C284.05 433.802 284.57 433.802 284.79 433.802C284.96 433.812 285.07 433.782 285.17 433.652C285.43 433.362 285.57 432.052 285.68 428.512H284.19C284.05 430.972 283.63 433.232 282.17 434.632C282.04 434.452 281.78 434.202 281.59 434.092C282.94 432.852 283.34 430.782 283.46 428.512H282.07V427.802H283.49C283.52 427.102 283.52 426.382 283.52 425.672H284.25C284.25 426.382 284.24 427.102 284.22 427.802Z" fill="#5B6A78"/>
<path d="M21.58 380.342V381.802H20.85V379.632H24.74C24.62 379.322 24.43 378.942 24.27 378.652L24.99 378.442C25.21 378.812 25.46 379.302 25.58 379.632H29.14V381.802H28.39V380.342H21.58ZM25.37 384.612V386.612C25.87 386.712 26.42 386.742 27.01 386.742C27.37 386.742 29.08 386.742 29.56 386.722C29.44 386.912 29.32 387.252 29.28 387.472H26.97C24.89 387.472 23.4 387.112 22.49 385.412C22.15 386.342 21.66 387.102 21 387.672C20.88 387.532 20.58 387.272 20.4 387.162C21.51 386.312 22.05 384.892 22.27 383.092L23.01 383.172C22.95 383.632 22.87 384.062 22.78 384.462C23.16 385.522 23.8 386.102 24.61 386.412V382.282H22.13V381.572H27.92V382.282H25.37V383.912H28.33V384.612H25.37ZM32.7 378.512L33.4 378.722C33.14 379.452 32.8 380.192 32.43 380.882V387.632H31.7V382.102C31.43 382.512 31.14 382.882 30.85 383.202C30.76 383.032 30.54 382.642 30.42 382.482C31.34 381.512 32.19 380.022 32.7 378.512ZM34.4 383.732V382.382H35.14V383.742C35.14 384.892 34.95 386.532 33.39 387.712C33.27 387.542 33.04 387.312 32.85 387.192C34.29 386.192 34.4 384.672 34.4 383.732ZM37.22 387.612V382.362H37.97V387.612H37.22ZM35.97 378.482L36.75 378.622C36.68 378.762 36.61 378.922 36.54 379.072C37.25 380.272 38.51 381.482 39.67 382.092C39.5 382.222 39.26 382.492 39.15 382.672C38.08 382.052 36.95 380.922 36.17 379.732C35.48 380.862 34.47 381.972 33.05 382.812C32.96 382.632 32.74 382.362 32.59 382.232C34.36 381.232 35.46 379.742 35.97 378.482ZM43.41 381.522H42.35V387.632H41.64V381.522H40.52V380.832H41.64V378.502H42.35V380.832H43.41V381.522ZM43.88 382.142L44.54 382.262C44.33 383.312 43.94 384.362 43.49 385.052C43.37 384.942 43.09 384.742 42.93 384.662C43.37 384.032 43.7 383.092 43.88 382.142ZM48.29 380.392V380.772C48.18 385.202 48.09 386.682 47.75 387.132C47.55 387.402 47.34 387.482 47.02 387.522C46.71 387.552 46.17 387.542 45.65 387.512C45.63 387.302 45.55 387.002 45.42 386.802C45.99 386.842 46.51 386.852 46.73 386.852C46.9 386.852 47.01 386.822 47.11 386.692C47.37 386.382 47.48 384.972 47.57 381.112H46.19C46.13 383.202 45.71 385.702 43.39 387.652C43.27 387.492 43.01 387.252 42.83 387.152C45.02 385.342 45.42 383.042 45.48 381.112H43.72V380.392H45.49V378.602H46.2V380.392H48.29ZM48.37 382.302L48.99 382.172C49.28 383.082 49.58 384.262 49.68 384.962L49 385.132C48.91 384.422 48.64 383.222 48.37 382.302ZM57.07 380.762L56.4 381.072C56.24 380.522 55.81 379.632 55.41 378.972L56.05 378.712C56.46 379.372 56.9 380.222 57.07 380.762ZM52.96 380.272L52.4 380.732C52.15 380.312 51.62 379.662 51.16 379.192L51.68 378.792C52.15 379.242 52.71 379.872 52.96 380.272ZM52.62 385.952L53.82 385.122C53.87 385.322 53.98 385.602 54.05 385.752C52.31 386.992 52.05 387.192 51.9 387.382C51.81 387.232 51.6 386.972 51.46 386.862C51.64 386.702 51.89 386.372 51.89 385.862V382.342H50.5V381.622H52.62V385.952ZM58.29 379.122L59.05 379.242C58.66 381.512 58.07 383.532 56.86 385.132C57.61 385.972 58.55 386.602 59.72 387.022C59.54 387.182 59.3 387.482 59.2 387.672C58.04 387.222 57.11 386.562 56.36 385.732C55.64 386.522 54.73 387.192 53.56 387.712C53.46 387.532 53.27 387.252 53.13 387.102C54.3 386.602 55.19 385.952 55.89 385.162C54.8 383.672 54.15 381.722 53.73 379.362L54.41 379.252C54.78 381.362 55.38 383.162 56.39 384.542C57.45 383.062 57.97 381.192 58.29 379.122ZM63.22 379.642V381.442H64.96V382.132H63.22V382.392C63.6 382.792 64.64 384.012 64.89 384.322L64.44 384.932C64.21 384.552 63.65 383.802 63.22 383.242V387.612H62.49V383.212C62 384.372 61.35 385.502 60.71 386.192C60.62 385.992 60.43 385.692 60.29 385.512C61.05 384.752 61.85 383.382 62.3 382.132H60.54V381.442H62.49V379.782C61.93 379.872 61.37 379.952 60.84 380.022C60.8 379.842 60.72 379.602 60.63 379.432C61.95 379.252 63.51 378.952 64.39 378.602L64.89 379.182C64.43 379.352 63.84 379.512 63.22 379.642ZM66.03 385.652H68.26V380.142H66.03V385.652ZM65.3 379.432H69V387.122H68.26V386.372H66.03V387.192H65.3V379.432ZM72.27 378.912L72.89 378.602C73.31 379.112 73.74 379.812 73.92 380.272L73.27 380.632C73.09 380.162 72.67 379.432 72.27 378.912ZM79.32 383.872H75.64C76.39 385.332 77.75 386.412 79.57 386.862C79.39 387.032 79.15 387.342 79.05 387.562C77.28 387.052 75.97 385.962 75.15 384.432C74.7 385.582 73.61 386.732 71.06 387.622C70.95 387.452 70.72 387.132 70.52 386.982C73.18 386.072 74.13 384.942 74.45 383.872H70.72V383.142H74.6C74.61 382.942 74.62 382.762 74.62 382.572V381.362H71.32V380.632H76C76.39 380.032 76.84 379.172 77.1 378.542L77.89 378.822C77.56 379.412 77.16 380.092 76.8 380.632H78.78V381.362H75.45V382.582C75.45 382.772 75.44 382.952 75.43 383.142H79.32V383.872ZM84.24 383.702L83.81 384.292C83.64 384.002 83.22 383.432 82.88 383.002V387.642H82.15V383.232C81.74 384.252 81.22 385.252 80.71 385.872C80.63 385.672 80.44 385.362 80.32 385.192C80.94 384.482 81.63 383.192 82.02 382.052H80.51V381.352H82.15V379.722C81.69 379.812 81.22 379.892 80.78 379.952C80.75 379.792 80.65 379.542 80.57 379.372C81.65 379.202 82.92 378.902 83.65 378.582L84.1 379.182C83.75 379.322 83.33 379.452 82.88 379.562V381.352H84.2V382.052H82.88V382.292C83.15 382.552 84.04 383.462 84.24 383.702ZM85.2 381.162V382.992H88.31V381.162H85.2ZM88.04 386.842H88.73C88.95 386.842 88.98 386.682 89.01 385.592C89.16 385.712 89.44 385.822 89.64 385.882C89.57 387.172 89.39 387.502 88.8 387.502H87.94C87.26 387.502 87.1 387.292 87.1 386.562V383.652H86.27C86.11 385.442 85.69 386.872 83.95 387.672C83.87 387.492 83.66 387.222 83.49 387.092C85.08 386.432 85.42 385.182 85.56 383.652H84.49V380.492H85.72C85.57 380.032 85.22 379.322 84.86 378.802L85.48 378.542C85.84 379.072 86.23 379.762 86.37 380.232L85.81 380.492H87.21C87.5 379.922 87.86 379.112 88.04 378.512L88.78 378.772C88.53 379.332 88.24 379.982 87.97 380.492H89.04V383.652H87.79V386.562C87.79 386.802 87.83 386.842 88.04 386.842ZM96.21 381.052L96.14 381.222C96.37 382.402 96.69 383.492 97.15 384.412C97.63 383.492 97.94 382.372 98.14 381.052H96.21ZM99.56 381.052H98.89C98.62 382.712 98.22 384.052 97.57 385.142C98.11 385.972 98.79 386.612 99.65 387.012C99.49 387.162 99.26 387.452 99.14 387.642C98.32 387.212 97.66 386.582 97.13 385.802C96.56 386.552 95.82 387.172 94.88 387.662C94.8 387.492 94.59 387.172 94.45 387.012C95.43 386.542 96.16 385.922 96.72 385.122C96.28 384.302 95.95 383.342 95.69 382.282C95.49 382.682 95.27 383.052 95.04 383.372C94.92 383.242 94.61 382.992 94.45 382.882L94.5 382.812H93.38V385.352L95.09 384.962L95.16 385.632C93.52 386.032 91.75 386.452 90.51 386.732L90.37 385.992L90.96 385.872V381.432H91.64V385.722L92.66 385.502V379.932H90.54V379.212H95.11V379.932H93.38V382.112H94.74V382.462C95.41 381.422 95.86 380.002 96.13 378.502L96.87 378.632C96.75 379.222 96.6 379.812 96.44 380.352H99.56V381.052ZM102.41 380.022H101.92C101.63 380.462 101.31 380.862 100.98 381.172C100.84 381.062 100.54 380.852 100.37 380.762C101.01 380.202 101.61 379.332 101.94 378.472L102.64 378.652C102.54 378.902 102.43 379.142 102.3 379.382H104.86V380.022H103.15C103.34 380.342 103.5 380.702 103.58 380.942L102.93 381.182C102.84 380.872 102.62 380.412 102.41 380.022ZM105.44 383.472V384.412C106.23 385.292 107.81 386.222 109.63 386.622C109.48 386.782 109.27 387.082 109.16 387.272C107.63 386.862 106.3 386.042 105.44 385.232V387.632H104.66V385.212C103.68 386.172 102.31 386.932 100.93 387.312C100.84 387.122 100.63 386.842 100.46 386.692C102.11 386.312 103.78 385.422 104.66 384.332V383.472H102.2V385.392H101.43V382.822H104.66V382.052H100.71V381.392H104.66V381.062C104.51 380.942 104.32 380.802 104.18 380.742C104.86 380.202 105.46 379.362 105.77 378.472L106.5 378.642C106.4 378.902 106.29 379.142 106.17 379.382H109.38V380.022H107.32C107.53 380.342 107.71 380.682 107.8 380.932L107.15 381.162C107.04 380.852 106.8 380.402 106.55 380.022H105.79C105.61 380.282 105.41 380.542 105.22 380.762H105.44V381.392H109.25V382.052H105.44V382.822H108.68V384.662C108.68 385.022 108.61 385.172 108.35 385.282C108.1 385.382 107.7 385.382 107.14 385.382C107.1 385.192 106.98 384.962 106.89 384.792C107.29 384.812 107.68 384.802 107.79 384.802C107.91 384.802 107.94 384.762 107.94 384.662V383.472H105.44Z" fill="#5B6A78"/>
<line x1="49.0095" y1="154.527" x2="49.0095" y2="74.1362" stroke="#A2BFD0" stroke-width="0.502445"/>
<circle cx="49.0098" cy="74.1358" r="2.00978" fill="#81E7D2"/>
<path d="M255.01 76.5273L255.01 36.1362" stroke="#A2BFD0" stroke-width="0.502445"/>
<circle cx="255.01" cy="36.1358" r="2.00978" fill="#81E7D2"/>
<path d="M58 345.872L58 364.872" stroke="#A2BFD0" stroke-width="0.502445"/>
<circle cx="2" cy="2" r="2" transform="matrix(1 0 0 -1 56 368.872)" fill="#B39BFD"/>
<path d="M152 187.872L152 152.872" stroke="#A2BFD0" stroke-width="0.502445"/>
<circle cx="152" cy="150.872" r="2" fill="#B39BFD"/>
<path d="M295 375.872L295 394.872" stroke="#A2BFD0" stroke-width="0.502445"/>
<circle cx="2" cy="2" r="2" transform="matrix(1 0 0 -1 293 398.872)" fill="#1E85E1"/>
<defs>
<pattern id="pattern0_854_32233" patternContentUnits="objectBoundingBox" width="1" height="1">
</pattern>
</defs>
</svg>
