<svg width="270" height="384" viewBox="0 0 270 384" fill="none" xmlns="http://www.w3.org/2000/svg">
<rect y="3" width="10" height="10" fill="#737AF9"/>
<path d="M23.268 4.924H29.388V5.728H23.268V4.924ZM24.84 6.916H27.72V7.72H24.84V6.916ZM24.312 6.916H25.152V9.532C25.152 10.936 24.936 12.796 23.7 14.02C23.556 13.864 23.208 13.612 23.004 13.516C24.168 12.376 24.312 10.78 24.312 9.52V6.916ZM27.216 6.916H28.068V12.484C28.068 12.796 28.08 12.964 28.128 13.012C28.164 13.06 28.236 13.072 28.308 13.072C28.38 13.072 28.512 13.072 28.608 13.072C28.692 13.072 28.8 13.06 28.836 13.012C28.896 12.964 28.932 12.868 28.956 12.676C28.98 12.46 28.992 11.992 28.992 11.38C29.16 11.524 29.4 11.644 29.604 11.716C29.592 12.268 29.556 12.94 29.508 13.18C29.436 13.42 29.34 13.588 29.196 13.684C29.064 13.792 28.848 13.828 28.632 13.828C28.488 13.828 28.212 13.828 28.092 13.828C27.864 13.828 27.624 13.768 27.444 13.612C27.276 13.444 27.216 13.24 27.216 12.424V6.916ZM19.656 4.36H22.368V5.092H19.656V4.36ZM22.14 4.36H22.944V12.904C22.944 13.336 22.848 13.576 22.56 13.72C22.272 13.864 21.828 13.876 21.096 13.876C21.06 13.66 20.94 13.3 20.832 13.084C21.348 13.108 21.792 13.096 21.936 13.096C22.092 13.084 22.14 13.036 22.14 12.904V4.36ZM19.308 4.36H20.112V8.872C20.112 10.492 19.98 12.652 19.092 14.056C18.948 13.912 18.6 13.684 18.396 13.612C19.236 12.28 19.308 10.372 19.308 8.884V4.36ZM20.388 5.908L20.976 5.68C21.24 6.22 21.564 6.928 21.708 7.372L21.108 7.636C20.964 7.168 20.664 6.448 20.388 5.908ZM20.76 2.836L21.672 3.028C21.456 3.64 21.204 4.336 21.012 4.78L20.292 4.6C20.46 4.108 20.664 3.352 20.76 2.836ZM18.468 8.152H22.704V8.896H18.468V8.152ZM20.364 9.592L20.94 9.352C21.264 9.928 21.648 10.696 21.84 11.176L21.228 11.452C21.072 10.948 20.688 10.18 20.364 9.592ZM25.152 3.064L25.98 2.8C26.304 3.376 26.664 4.132 26.844 4.612L25.98 4.924C25.812 4.42 25.452 3.64 25.152 3.064ZM35.508 9.412H36.456V13.144H35.508V9.412ZM30.9 4.384H41.112V6.808H40.188V5.224H31.8V7.096H30.9V4.384ZM32.172 8.884H39.888V9.7H32.172V8.884ZM30.924 12.736H41.112V13.564H30.924V12.736ZM36.768 6.568L37.32 5.968C38.52 6.556 40.164 7.456 41.016 8.02L40.428 8.728C39.612 8.152 37.98 7.192 36.768 6.568ZM34.596 5.932L35.232 6.472C34.272 7.324 32.94 8.236 31.548 8.836L31.02 8.056C32.436 7.54 33.672 6.724 34.596 5.932ZM35.076 3.112L36.024 2.848C36.312 3.388 36.672 4.12 36.84 4.576L35.856 4.9C35.7 4.444 35.376 3.676 35.076 3.112Z" fill="#76848D"/>
<rect x="66" y="3" width="10" height="10" fill="#8FB7EF"/>
<path d="M86.024 3.793L86.761 4.013C86.321 5.223 85.584 6.444 84.77 7.225C84.704 7.049 84.484 6.631 84.341 6.444C85.034 5.806 85.661 4.816 86.024 3.793ZM85.716 5.003H88.719V5.784H85.562L85.716 5.003ZM86.211 13.825L86.101 13.088L86.387 12.769L88.587 11.658C88.62 11.878 88.686 12.197 88.741 12.362C86.695 13.462 86.387 13.649 86.211 13.825ZM85.199 6.983H88.433V7.731H85.199V6.983ZM84.649 9.227H88.708V9.975H84.649V9.227ZM88.906 8.677H94.472V9.469H88.906V8.677ZM89.841 5.74H94.208V6.51H89.61L89.841 5.74ZM89.643 4.2L90.424 4.321C90.215 5.751 89.852 7.148 89.324 8.061C89.181 7.94 88.84 7.742 88.642 7.654C89.17 6.807 89.489 5.509 89.643 4.2ZM91.282 3.826H92.085V7.203C92.085 9.293 91.865 12.054 89.06 13.869C88.95 13.704 88.664 13.418 88.477 13.275C91.194 11.636 91.282 9.073 91.282 7.203V3.826ZM92.052 9.007C92.426 10.866 93.251 12.45 94.615 13.165C94.428 13.319 94.175 13.627 94.043 13.847C92.602 12.989 91.788 11.273 91.348 9.161L92.052 9.007ZM86.211 13.825C86.134 13.627 85.947 13.275 85.804 13.099C86.002 12.978 86.31 12.714 86.31 12.263V7.203H87.102V12.989C87.102 12.989 86.211 13.528 86.211 13.825ZM100.83 12.736H104.46V13.462H100.83V12.736ZM101.369 4.893H104.273V5.608H101.369V4.893ZM100.511 9.898H104.834V13.825H104.042V10.613H101.27V13.858H100.511V9.898ZM103.976 4.893H104.119L104.273 4.86L104.801 5.08C103.954 7.786 101.941 9.59 99.851 10.481C99.752 10.294 99.532 10.008 99.367 9.854C101.314 9.106 103.261 7.335 103.976 5.036V4.893ZM101.556 3.76L102.348 3.947C101.853 5.443 101.039 6.84 100.126 7.753C99.994 7.61 99.675 7.346 99.477 7.225C100.379 6.4 101.138 5.113 101.556 3.76ZM101.336 5.344C101.974 6.917 103.448 8.809 105.703 9.667C105.527 9.821 105.296 10.14 105.186 10.349C102.92 9.37 101.468 7.379 100.797 5.795L101.336 5.344ZM95.979 8.644H96.672V12.637H95.979V8.644ZM96.716 4.948V6.884H98.784V4.948H96.716ZM95.979 4.222H99.554V7.61H95.979V4.222ZM97.53 7.247H98.278V12.274H97.53V7.247ZM95.407 12.549C96.496 12.329 98.146 11.944 99.73 11.57L99.807 12.307C98.3 12.681 96.716 13.066 95.561 13.352L95.407 12.549ZM97.794 9.205H99.653V9.942H97.794V9.205Z" fill="#76848D"/>
<rect x="130" y="3" width="10" height="10" fill="#CFD4FB"/>
<path d="M153.256 4.336H159.508V5.128H153.256V4.336ZM153.1 6.1H158.464V6.856H153.1V6.1ZM151.996 7.864H157.72V8.668H151.996V7.864ZM153.532 2.932L154.384 3.148C153.868 4.624 153.028 6.04 152.14 6.952C151.984 6.796 151.624 6.52 151.408 6.4C152.308 5.56 153.076 4.264 153.532 2.932ZM157.228 7.864H158.092C158.104 10.852 158.176 13.144 158.788 13.144C158.956 13.144 159.016 12.448 159.04 11.5C159.196 11.692 159.436 11.908 159.616 12.028C159.544 13.444 159.388 13.984 158.716 13.984C157.336 13.984 157.276 11.512 157.228 7.864ZM149.164 3.82L149.68 3.172C150.352 3.508 151.264 4.048 151.72 4.42L151.18 5.152C150.748 4.756 149.86 4.192 149.164 3.82ZM148.444 7.108L148.924 6.448C149.62 6.736 150.568 7.216 151.036 7.552L150.544 8.308C150.076 7.96 149.152 7.456 148.444 7.108ZM148.816 13.12C149.392 12.232 150.208 10.732 150.82 9.424L151.504 10.012C150.952 11.212 150.232 12.64 149.596 13.72L148.816 13.12ZM160.912 4.672H171.076V5.536H160.912V4.672ZM160.732 10.804H171.292V11.68H160.732V10.804ZM166.072 6.292H167.02V13.972H166.072V6.292ZM162.004 9.148C161.956 8.944 161.788 8.476 161.68 8.224C161.932 8.152 162.184 7.792 162.508 7.264C162.856 6.748 163.948 4.744 164.584 2.86L165.604 3.148C164.788 5.164 163.696 7.192 162.664 8.596V8.62C162.664 8.62 162.004 8.944 162.004 9.148ZM162.004 9.148V8.428L162.58 8.116H170.296V8.98H163.3C162.58 8.98 162.136 9.04 162.004 9.148Z" fill="#76848D"/>
<rect x="196" y="3" width="10" height="10" fill="url(#paint0_linear_7005_27948)"/>
<path d="M218.932 6.256H219.784C219.568 8.176 219.22 10.744 218.968 12.208H218.092C218.392 10.696 218.752 8.116 218.932 6.256ZM220.684 7.372L221.188 7.048C221.692 7.42 222.28 7.984 222.556 8.38L222.028 8.752C221.764 8.356 221.188 7.78 220.684 7.372ZM220.372 9.928L220.9 9.592C221.428 10.012 222.052 10.612 222.352 11.032L221.8 11.416C221.524 10.996 220.9 10.36 220.372 9.928ZM219.04 4.288H225.256V5.104H219.04V4.288ZM219.328 6.256H224.14V7.048H219.328V6.256ZM217.408 8.74H225.556V9.568H217.408V8.74ZM218.548 11.416H225.22V12.208H218.548V11.416ZM219.292 2.92L220.168 3.136C219.664 4.648 218.872 6.148 218.056 7.12C217.876 6.988 217.492 6.736 217.276 6.628C218.128 5.716 218.86 4.312 219.292 2.92ZM223.864 6.256H224.704C224.704 6.256 224.704 6.568 224.692 6.688C224.5 11.344 224.308 12.916 223.9 13.42C223.672 13.72 223.42 13.816 223.06 13.852C222.712 13.888 222.124 13.864 221.536 13.828C221.512 13.6 221.428 13.276 221.296 13.06C221.92 13.108 222.472 13.12 222.712 13.12C222.916 13.12 223.036 13.096 223.156 12.952C223.492 12.568 223.696 10.936 223.864 6.448V6.256ZM215.128 3.7L215.644 3.088C216.364 3.4 217.276 3.916 217.744 4.3L217.216 4.996C216.76 4.6 215.86 4.048 215.128 3.7ZM214.492 7.192L214.996 6.58C215.68 6.892 216.544 7.384 216.976 7.768L216.46 8.452C216.04 8.068 215.188 7.528 214.492 7.192ZM214.852 13.264C215.344 12.328 216.028 10.732 216.52 9.352L217.204 9.856C216.76 11.128 216.16 12.64 215.644 13.768L214.852 13.264Z" fill="#76848D"/>
<path d="M64 346L112 346L112 358C112 359.105 111.105 360 110 360L66 360C64.8954 360 64 359.105 64 358L64 346Z" fill="url(#paint1_linear_7005_27948)"/>
<path opacity="0.2" d="M76 346L100 346L100 360L76 360L76 346Z" fill="url(#paint2_linear_7005_27948)"/>
<path opacity="0.04" d="M100 346L110 346C111.105 346 112 346.895 112 348L112 360L100 360L100 346Z" fill="#0D262C"/>
<path opacity="0.5" d="M64 346L76 346L76 360L66 360C64.8954 360 64 359.105 64 358L64 346Z" fill="url(#paint3_linear_7005_27948)"/>
<rect x="64" y="328" width="48" height="18" fill="url(#paint4_linear_7005_27948)"/>
<path opacity="0.2" d="M76 328L100 328L100 346L76 346L76 328Z" fill="url(#paint5_linear_7005_27948)"/>
<path opacity="0.04" d="M100 328L110 328C111.105 328 112 328.895 112 330L112 346L100 346L100 328Z" fill="#0D262C"/>
<rect opacity="0.5" x="64" y="328" width="12" height="18" fill="url(#paint6_linear_7005_27948)"/>
<path d="M64 42C64 40.8954 64.8954 40 66 40L110 40C111.105 40 112 40.8954 112 42L112 260L64 260L64 42Z" fill="url(#paint7_linear_7005_27948)"/>
<path opacity="0.2" d="M76 40L100 40L100 260L76 260L76 40Z" fill="url(#paint8_linear_7005_27948)"/>
<path opacity="0.04" d="M100 40L110 40C111.105 40 112 40.8954 112 42L112 260L100 260L100 40Z" fill="#0D262C"/>
<path opacity="0.5" d="M64 42C64 40.8954 64.8954 40 66 40L76 40L76 260L64 260L64 42Z" fill="url(#paint9_linear_7005_27948)"/>
<rect opacity="0.42" x="64" y="260" width="48" height="68" fill="url(#paint10_linear_7005_27948)"/>
<path opacity="0.2" d="M76 260L100 260L100 328L76 328L76 260Z" fill="url(#paint11_linear_7005_27948)"/>
<path opacity="0.04" d="M100 260L110 260C111.105 260 112 260.895 112 262L112 328L100 328L100 260Z" fill="#0D262C"/>
<rect opacity="0.5" x="64" y="260" width="12" height="68" fill="url(#paint12_linear_7005_27948)"/>
<path d="M74.5271 375.372L73.6511 375.06C73.9511 373.572 75.0791 372.504 76.8671 372.504C78.5951 372.504 79.6511 373.5 79.6511 375.024C79.6511 375.828 79.3031 376.632 78.8711 377.208C78.6551 377.508 78.3791 377.796 78.0551 378.096C77.3951 378.684 76.9271 378.996 76.2431 379.428L75.3191 380.004H79.9631V381H73.4231V380.184L75.2471 378.972C75.5711 378.768 75.7991 378.612 75.9311 378.516C76.0631 378.432 76.2791 378.276 76.5671 378.072C76.8551 377.868 77.0711 377.688 77.2151 377.556C77.3471 377.424 77.5271 377.256 77.7311 377.04C78.2831 376.44 78.4871 375.888 78.5471 375.132C78.5471 374.04 77.8391 373.548 76.7951 373.548C76.1471 373.548 75.6311 373.728 75.2591 374.088C74.8871 374.448 74.6351 374.88 74.5271 375.372ZM80.7948 376.8C80.7948 375.504 81.0948 374.46 81.7068 373.68C82.3068 372.9 83.1948 372.504 84.3588 372.504C86.7468 372.504 87.9348 374.076 87.9348 376.8C87.9348 378.108 87.6348 379.14 87.0468 379.92C86.4468 380.7 85.5588 381.096 84.3828 381.096C83.2548 381.096 82.3788 380.7 81.7428 379.908C81.1068 379.116 80.7948 378.084 80.7948 376.8ZM81.8988 376.8C81.8988 378.852 82.8348 380.076 84.3828 380.076C86.0148 380.076 86.8308 378.984 86.8308 376.8C86.8308 374.616 86.0028 373.524 84.3588 373.524C82.6908 373.524 81.8988 374.724 81.8988 376.8ZM89.791 375.372L88.915 375.06C89.215 373.572 90.343 372.504 92.131 372.504C93.859 372.504 94.915 373.5 94.915 375.024C94.915 375.828 94.567 376.632 94.135 377.208C93.919 377.508 93.643 377.796 93.319 378.096C92.659 378.684 92.191 378.996 91.507 379.428L90.583 380.004H95.227V381H88.687V380.184L90.511 378.972C90.835 378.768 91.063 378.612 91.195 378.516C91.327 378.432 91.543 378.276 91.831 378.072C92.119 377.868 92.335 377.688 92.479 377.556C92.611 377.424 92.791 377.256 92.995 377.04C93.547 376.44 93.751 375.888 93.811 375.132C93.811 374.04 93.103 373.548 92.059 373.548C91.411 373.548 90.895 373.728 90.523 374.088C90.151 374.448 89.899 374.88 89.791 375.372ZM96.8867 375.048L95.9867 374.64C96.4307 373.344 97.5947 372.492 99.3347 372.492C100.163 372.492 100.847 372.684 101.375 373.068C101.903 373.452 102.167 373.968 102.167 374.604C102.167 375.576 101.651 376.296 100.691 376.572C101.615 376.632 102.359 377.328 102.359 378.576C102.359 379.368 102.071 379.992 101.495 380.436C100.919 380.88 100.187 381.108 99.2867 381.108C97.4507 381.108 96.1787 380.232 95.7587 378.852L96.7307 378.432C97.2467 379.524 98.1227 380.076 99.3587 380.076C100.523 380.076 101.255 379.536 101.255 378.588C101.255 377.664 100.535 377.196 99.0947 377.196H98.1587V376.2H98.9027C100.211 376.2 101.063 375.612 101.063 374.808C101.063 373.98 100.379 373.512 99.2867 373.512C98.0027 373.512 97.2227 374.172 96.8867 375.048Z" fill="#76848D"/>
<path d="M122.49 352.804L122.042 351.754L125.402 350.144H126.2V360H124.996V351.642L122.49 352.804ZM128.083 359.202C128.083 358.81 128.447 358.418 128.951 358.418C129.413 358.418 129.791 358.81 129.791 359.202C129.791 359.65 129.441 360.028 128.951 360.028C128.447 360.028 128.083 359.65 128.083 359.202ZM131.915 353.056L130.865 352.58C131.383 351.068 132.741 350.074 134.771 350.074C135.737 350.074 136.535 350.298 137.151 350.746C137.767 351.194 138.075 351.796 138.075 352.538C138.075 353.672 137.473 354.512 136.353 354.834C137.431 354.904 138.299 355.716 138.299 357.172C138.299 358.096 137.963 358.824 137.291 359.342C136.619 359.86 135.765 360.126 134.715 360.126C132.573 360.126 131.089 359.104 130.599 357.494L131.733 357.004C132.335 358.278 133.357 358.922 134.799 358.922C136.157 358.922 137.011 358.292 137.011 357.186C137.011 356.108 136.171 355.562 134.491 355.562H133.399V354.4H134.267C135.793 354.4 136.787 353.714 136.787 352.776C136.787 351.81 135.989 351.264 134.715 351.264C133.217 351.264 132.307 352.034 131.915 353.056Z" fill="#1A3341"/>
<path d="M122.49 330.804L122.042 329.754L125.402 328.144H126.2V338H124.996V329.642L122.49 330.804ZM128.083 337.202C128.083 336.81 128.447 336.418 128.951 336.418C129.413 336.418 129.791 336.81 129.791 337.202C129.791 337.65 129.441 338.028 128.951 338.028C128.447 338.028 128.083 337.65 128.083 337.202ZM134.813 332.414H135.247C135.877 332.414 136.395 332.26 136.829 331.966C137.249 331.672 137.459 331.28 137.459 330.818C137.459 329.768 136.633 329.236 134.995 329.236C133.427 329.236 132.573 329.81 132.573 330.818C132.573 331.728 133.511 332.414 134.813 332.414ZM135.219 333.52H134.869C134.113 333.52 133.483 333.688 132.993 334.01C132.503 334.332 132.251 334.738 132.251 335.228C132.251 336.292 133.231 336.964 135.009 336.964C136.815 336.964 137.781 336.32 137.781 335.242C137.781 334.164 136.745 333.52 135.219 333.52ZM137.977 337.37C137.263 337.874 136.269 338.126 135.023 338.126C133.777 338.126 132.783 337.874 132.055 337.384C131.327 336.894 130.963 336.222 130.963 335.354C130.963 334.22 131.705 333.324 132.895 332.932C131.817 332.582 131.285 331.728 131.285 330.734C131.285 329.11 132.657 328.074 135.009 328.074C137.375 328.074 138.747 329.11 138.747 330.734C138.747 331.672 138.229 332.386 137.193 332.862C138.439 333.24 139.055 334.052 139.055 335.298C139.055 336.18 138.691 336.88 137.977 337.37Z" fill="#1A3341"/>
<path d="M122.602 265.366C122.602 263.672 123.022 262.37 123.848 261.446C124.674 260.536 125.71 260.074 126.956 260.074C128.594 260.074 129.882 260.816 130.428 261.992L129.476 262.636C128.902 261.726 128.048 261.278 126.9 261.278C126.032 261.278 125.304 261.614 124.716 262.286C124.128 262.972 123.834 263.896 123.848 265.086C124.394 264.064 125.668 263.448 127.068 263.448C128.202 263.448 129.112 263.742 129.77 264.344C130.428 264.946 130.764 265.744 130.764 266.724C130.764 267.718 130.4 268.544 129.658 269.174C128.916 269.804 127.992 270.126 126.886 270.126C124.24 270.126 122.602 268.404 122.602 265.366ZM124.002 266.556C124.268 267.942 125.318 268.922 126.872 268.922C127.628 268.922 128.258 268.726 128.748 268.32C129.238 267.928 129.476 267.41 129.476 266.78C129.476 265.394 128.496 264.652 126.998 264.652C126.172 264.652 125.486 264.848 124.954 265.24C124.408 265.632 124.1 266.066 124.002 266.556ZM131.871 269.202C131.871 268.81 132.235 268.418 132.739 268.418C133.201 268.418 133.579 268.81 133.579 269.202C133.579 269.65 133.229 270.028 132.739 270.028C132.235 270.028 131.871 269.65 131.871 269.202ZM136.164 265.492L135.156 265.226L135.73 260.2H141.89V261.39H136.808L136.444 264.022C136.934 263.658 137.676 263.476 138.67 263.476C139.818 263.476 140.714 263.784 141.372 264.386C142.016 265.002 142.338 265.786 142.338 266.752C142.338 267.718 141.974 268.53 141.26 269.16C140.532 269.804 139.622 270.126 138.544 270.126C136.71 270.126 135.184 269.258 134.554 267.732L135.674 267.256C136.08 268.194 137.13 268.936 138.544 268.936C140.154 268.936 141.05 268.012 141.05 266.794C141.05 265.492 140 264.652 138.334 264.652C137.438 264.652 136.71 264.932 136.164 265.492Z" fill="#1A3341"/>
<path d="M130.75 44.918C130.75 46.584 130.358 47.872 129.56 48.768C128.762 49.678 127.698 50.126 126.368 50.126C124.744 50.126 123.47 49.44 122.84 48.39L123.848 47.69C124.408 48.474 125.43 48.922 126.536 48.922C127.446 48.922 128.174 48.558 128.748 47.83C129.322 47.116 129.56 46.22 129.49 45.156C129.028 46.22 127.866 47.004 126.312 47.004C125.22 47.004 124.324 46.696 123.624 46.066C122.91 45.45 122.56 44.638 122.56 43.644C122.56 42.552 122.938 41.684 123.694 41.04C124.45 40.396 125.458 40.074 126.704 40.074C129.224 40.074 130.75 41.838 130.75 44.918ZM129.28 43.602C129.07 42.3 128.174 41.278 126.564 41.278C124.884 41.278 123.848 42.146 123.848 43.602C123.848 44.988 124.898 45.8 126.536 45.8C127.278 45.8 127.908 45.576 128.398 45.128C128.888 44.68 129.182 44.176 129.28 43.602ZM131.8 45.1C131.8 43.588 132.15 42.37 132.864 41.46C133.564 40.55 134.6 40.088 135.958 40.088C138.744 40.088 140.13 41.922 140.13 45.1C140.13 46.626 139.78 47.83 139.094 48.74C138.394 49.65 137.358 50.112 135.986 50.112C134.67 50.112 133.648 49.65 132.906 48.726C132.164 47.802 131.8 46.598 131.8 45.1ZM133.088 45.1C133.088 47.494 134.18 48.922 135.986 48.922C137.89 48.922 138.842 47.648 138.842 45.1C138.842 42.552 137.876 41.278 135.958 41.278C134.012 41.278 133.088 42.678 133.088 45.1ZM141.274 49.202C141.274 48.81 141.638 48.418 142.142 48.418C142.604 48.418 142.982 48.81 142.982 49.202C142.982 49.65 142.632 50.028 142.142 50.028C141.638 50.028 141.274 49.65 141.274 49.202ZM150.901 50H149.683V47.998L143.691 47.998V47.186L149.823 40.2H150.901V46.864H152.721V47.998H150.901V50ZM149.683 42.16L145.371 46.864L149.683 46.864V42.16Z" fill="#1A3341"/>
<path d="M172 344L220 344L220 358C220 359.105 219.105 360 218 360L174 360C172.895 360 172 359.105 172 358L172 344Z" fill="url(#paint13_linear_7005_27948)"/>
<path opacity="0.2" d="M184 344L208 344L208 360L184 360L184 344Z" fill="url(#paint14_linear_7005_27948)"/>
<path opacity="0.04" d="M208 344L218 344C219.105 344 220 344.895 220 346L220 360L208 360L208 344Z" fill="#0D262C"/>
<path opacity="0.5" d="M172 344L184 344L184 360L174 360C172.895 360 172 359.105 172 358L172 344Z" fill="url(#paint15_linear_7005_27948)"/>
<rect x="172" y="319" width="48" height="25" fill="url(#paint16_linear_7005_27948)"/>
<path opacity="0.2" d="M184 319L208 319L208 344L184 344L184 319Z" fill="url(#paint17_linear_7005_27948)"/>
<path opacity="0.04" d="M208 319L218 319C219.105 319 220 319.895 220 321L220 344L208 344L208 319Z" fill="#0D262C"/>
<rect opacity="0.5" x="172" y="319" width="12" height="25" fill="url(#paint18_linear_7005_27948)"/>
<path d="M172 42C172 40.8954 172.895 40 174 40L218 40C219.105 40 220 40.8954 220 42L220 247L172 247L172 42Z" fill="url(#paint19_linear_7005_27948)"/>
<path opacity="0.2" d="M184 40L208 40L208 247L184 247L184 40Z" fill="url(#paint20_linear_7005_27948)"/>
<path opacity="0.04" d="M208 40L218 40C219.105 40 220 40.8954 220 42L220 247L208 247L208 40Z" fill="#0D262C"/>
<path opacity="0.5" d="M172 42C172 40.8954 172.895 40 174 40L184 40L184 247L172 247L172 42Z" fill="url(#paint21_linear_7005_27948)"/>
<rect opacity="0.42" x="172" y="247" width="48" height="72" fill="url(#paint22_linear_7005_27948)"/>
<path opacity="0.2" d="M184 247L208 247L208 319L184 319L184 247Z" fill="url(#paint23_linear_7005_27948)"/>
<path opacity="0.04" d="M208 247L218 247C219.105 247 220 247.895 220 249L220 319L208 319L208 247Z" fill="#0D262C"/>
<rect opacity="0.5" x="172" y="247" width="12" height="72" fill="url(#paint24_linear_7005_27948)"/>
<path d="M182.556 375.372L181.68 375.06C181.98 373.572 183.108 372.504 184.896 372.504C186.624 372.504 187.68 373.5 187.68 375.024C187.68 375.828 187.332 376.632 186.9 377.208C186.684 377.508 186.408 377.796 186.084 378.096C185.424 378.684 184.956 378.996 184.272 379.428L183.348 380.004H187.992V381H181.452V380.184L183.276 378.972C183.6 378.768 183.828 378.612 183.96 378.516C184.092 378.432 184.308 378.276 184.596 378.072C184.884 377.868 185.1 377.688 185.244 377.556C185.376 377.424 185.556 377.256 185.76 377.04C186.312 376.44 186.516 375.888 186.576 375.132C186.576 374.04 185.868 373.548 184.824 373.548C184.176 373.548 183.66 373.728 183.288 374.088C182.916 374.448 182.664 374.88 182.556 375.372ZM188.824 376.8C188.824 375.504 189.124 374.46 189.736 373.68C190.336 372.9 191.224 372.504 192.388 372.504C194.776 372.504 195.964 374.076 195.964 376.8C195.964 378.108 195.664 379.14 195.076 379.92C194.476 380.7 193.588 381.096 192.412 381.096C191.284 381.096 190.408 380.7 189.772 379.908C189.136 379.116 188.824 378.084 188.824 376.8ZM189.928 376.8C189.928 378.852 190.864 380.076 192.412 380.076C194.044 380.076 194.86 378.984 194.86 376.8C194.86 374.616 194.032 373.524 192.388 373.524C190.72 373.524 189.928 374.724 189.928 376.8ZM197.82 375.372L196.944 375.06C197.244 373.572 198.372 372.504 200.16 372.504C201.888 372.504 202.944 373.5 202.944 375.024C202.944 375.828 202.596 376.632 202.164 377.208C201.948 377.508 201.672 377.796 201.348 378.096C200.688 378.684 200.22 378.996 199.536 379.428L198.612 380.004H203.256V381H196.716V380.184L198.54 378.972C198.864 378.768 199.092 378.612 199.224 378.516C199.356 378.432 199.572 378.276 199.86 378.072C200.148 377.868 200.364 377.688 200.508 377.556C200.64 377.424 200.82 377.256 201.024 377.04C201.576 376.44 201.78 375.888 201.84 375.132C201.84 374.04 201.132 373.548 200.088 373.548C199.44 373.548 198.924 373.728 198.552 374.088C198.18 374.448 197.928 374.88 197.82 375.372ZM205.048 375.372L204.172 375.06C204.472 373.572 205.6 372.504 207.388 372.504C209.116 372.504 210.172 373.5 210.172 375.024C210.172 375.828 209.824 376.632 209.392 377.208C209.176 377.508 208.9 377.796 208.576 378.096C207.916 378.684 207.448 378.996 206.764 379.428L205.84 380.004H210.484V381H203.944V380.184L205.768 378.972C206.092 378.768 206.32 378.612 206.452 378.516C206.584 378.432 206.8 378.276 207.088 378.072C207.376 377.868 207.592 377.688 207.736 377.556C207.868 377.424 208.048 377.256 208.252 377.04C208.804 376.44 209.008 375.888 209.068 375.132C209.068 374.04 208.36 373.548 207.316 373.548C206.668 373.548 206.152 373.728 205.78 374.088C205.408 374.448 205.156 374.88 205.048 375.372Z" fill="#76848D"/>
<path d="M230.49 352.804L230.042 351.754L233.402 350.144H234.2V360H232.996V351.642L230.49 352.804ZM236.083 359.202C236.083 358.81 236.447 358.418 236.951 358.418C237.413 358.418 237.791 358.81 237.791 359.202C237.791 359.65 237.441 360.028 236.951 360.028C236.447 360.028 236.083 359.65 236.083 359.202ZM240.377 355.492L239.369 355.226L239.943 350.2H246.103V351.39H241.021L240.657 354.022C241.147 353.658 241.889 353.476 242.883 353.476C244.031 353.476 244.927 353.784 245.585 354.386C246.229 355.002 246.551 355.786 246.551 356.752C246.551 357.718 246.187 358.53 245.473 359.16C244.745 359.804 243.835 360.126 242.757 360.126C240.923 360.126 239.397 359.258 238.767 357.732L239.887 357.256C240.293 358.194 241.343 358.936 242.757 358.936C244.367 358.936 245.263 358.012 245.263 356.794C245.263 355.492 244.213 354.652 242.547 354.652C241.651 354.652 240.923 354.932 240.377 355.492Z" fill="#1A3341"/>
<path d="M231.722 322.434L230.7 322.07C231.05 320.334 232.366 319.088 234.452 319.088C236.468 319.088 237.7 320.25 237.7 322.028C237.7 322.966 237.294 323.904 236.79 324.576C236.538 324.926 236.216 325.262 235.838 325.612C235.068 326.298 234.522 326.662 233.724 327.166L232.646 327.838H238.064V329H230.434V328.048L232.562 326.634C232.94 326.396 233.206 326.214 233.36 326.102C233.514 326.004 233.766 325.822 234.102 325.584C234.438 325.346 234.69 325.136 234.858 324.982C235.012 324.828 235.222 324.632 235.46 324.38C236.104 323.68 236.342 323.036 236.412 322.154C236.412 320.88 235.586 320.306 234.368 320.306C233.612 320.306 233.01 320.516 232.576 320.936C232.142 321.356 231.848 321.86 231.722 322.434ZM239.132 328.202C239.132 327.81 239.496 327.418 240 327.418C240.462 327.418 240.84 327.81 240.84 328.202C240.84 328.65 240.49 329.028 240 329.028C239.496 329.028 239.132 328.65 239.132 328.202ZM248.76 329H247.542V326.998H241.55V326.186L247.682 319.2H248.76V325.864H250.58V326.998H248.76V329ZM247.542 321.16L243.23 325.864H247.542V321.16Z" fill="#1A3341"/>
<path d="M230.602 252.366C230.602 250.672 231.022 249.37 231.848 248.446C232.674 247.536 233.71 247.074 234.956 247.074C236.594 247.074 237.882 247.816 238.428 248.992L237.476 249.636C236.902 248.726 236.048 248.278 234.9 248.278C234.032 248.278 233.304 248.614 232.716 249.286C232.128 249.972 231.834 250.896 231.848 252.086C232.394 251.064 233.668 250.448 235.068 250.448C236.202 250.448 237.112 250.742 237.77 251.344C238.428 251.946 238.764 252.744 238.764 253.724C238.764 254.718 238.4 255.544 237.658 256.174C236.916 256.804 235.992 257.126 234.886 257.126C232.24 257.126 230.602 255.404 230.602 252.366ZM232.002 253.556C232.268 254.942 233.318 255.922 234.872 255.922C235.628 255.922 236.258 255.726 236.748 255.32C237.238 254.928 237.476 254.41 237.476 253.78C237.476 252.394 236.496 251.652 234.998 251.652C234.172 251.652 233.486 251.848 232.954 252.24C232.408 252.632 232.1 253.066 232.002 253.556ZM239.871 256.202C239.871 255.81 240.235 255.418 240.739 255.418C241.201 255.418 241.579 255.81 241.579 256.202C241.579 256.65 241.229 257.028 240.739 257.028C240.235 257.028 239.871 256.65 239.871 256.202ZM250.884 251.918C250.884 253.584 250.492 254.872 249.694 255.768C248.896 256.678 247.832 257.126 246.502 257.126C244.878 257.126 243.604 256.44 242.974 255.39L243.982 254.69C244.542 255.474 245.564 255.922 246.67 255.922C247.58 255.922 248.308 255.558 248.882 254.83C249.456 254.116 249.694 253.22 249.624 252.156C249.162 253.22 248 254.004 246.446 254.004C245.354 254.004 244.458 253.696 243.758 253.066C243.044 252.45 242.694 251.638 242.694 250.644C242.694 249.552 243.072 248.684 243.828 248.04C244.584 247.396 245.592 247.074 246.838 247.074C249.358 247.074 250.884 248.838 250.884 251.918ZM249.414 250.602C249.204 249.3 248.308 248.278 246.698 248.278C245.018 248.278 243.982 249.146 243.982 250.602C243.982 251.988 245.032 252.8 246.67 252.8C247.412 252.8 248.042 252.576 248.532 252.128C249.022 251.68 249.316 251.176 249.414 250.602Z" fill="#1A3341"/>
<path d="M234.466 44.414H234.9C235.53 44.414 236.048 44.26 236.482 43.966C236.902 43.672 237.112 43.28 237.112 42.818C237.112 41.768 236.286 41.236 234.648 41.236C233.08 41.236 232.226 41.81 232.226 42.818C232.226 43.728 233.164 44.414 234.466 44.414ZM234.872 45.52H234.522C233.766 45.52 233.136 45.688 232.646 46.01C232.156 46.332 231.904 46.738 231.904 47.228C231.904 48.292 232.884 48.964 234.662 48.964C236.468 48.964 237.434 48.32 237.434 47.242C237.434 46.164 236.398 45.52 234.872 45.52ZM237.63 49.37C236.916 49.874 235.922 50.126 234.676 50.126C233.43 50.126 232.436 49.874 231.708 49.384C230.98 48.894 230.616 48.222 230.616 47.354C230.616 46.22 231.358 45.324 232.548 44.932C231.47 44.582 230.938 43.728 230.938 42.734C230.938 41.11 232.31 40.074 234.662 40.074C237.028 40.074 238.4 41.11 238.4 42.734C238.4 43.672 237.882 44.386 236.846 44.862C238.092 45.24 238.708 46.052 238.708 47.298C238.708 48.18 238.344 48.88 237.63 49.37ZM247.948 44.918C247.948 46.584 247.556 47.872 246.758 48.768C245.96 49.678 244.896 50.126 243.566 50.126C241.942 50.126 240.668 49.44 240.038 48.39L241.046 47.69C241.606 48.474 242.628 48.922 243.734 48.922C244.644 48.922 245.372 48.558 245.946 47.83C246.52 47.116 246.758 46.22 246.688 45.156C246.226 46.22 245.064 47.004 243.51 47.004C242.418 47.004 241.522 46.696 240.822 46.066C240.108 45.45 239.758 44.638 239.758 43.644C239.758 42.552 240.136 41.684 240.892 41.04C241.648 40.396 242.656 40.074 243.902 40.074C246.422 40.074 247.948 41.838 247.948 44.918ZM246.478 43.602C246.268 42.3 245.372 41.278 243.762 41.278C242.082 41.278 241.046 42.146 241.046 43.602C241.046 44.988 242.096 45.8 243.734 45.8C244.476 45.8 245.106 45.576 245.596 45.128C246.086 44.68 246.38 44.176 246.478 43.602ZM249.096 49.202C249.096 48.81 249.46 48.418 249.964 48.418C250.426 48.418 250.804 48.81 250.804 49.202C250.804 49.65 250.454 50.028 249.964 50.028C249.46 50.028 249.096 49.65 249.096 49.202ZM253.081 43.434L252.059 43.07C252.409 41.334 253.725 40.088 255.811 40.088C257.827 40.088 259.059 41.25 259.059 43.028C259.059 43.966 258.653 44.904 258.149 45.576C257.897 45.926 257.575 46.262 257.197 46.612C256.427 47.298 255.881 47.662 255.083 48.166L254.005 48.838L259.423 48.838V50L251.793 50V49.048L253.921 47.634C254.299 47.396 254.565 47.214 254.719 47.102C254.873 47.004 255.125 46.822 255.461 46.584C255.797 46.346 256.049 46.136 256.217 45.982C256.371 45.828 256.581 45.632 256.819 45.38C257.463 44.68 257.701 44.036 257.771 43.154C257.771 41.88 256.945 41.306 255.727 41.306C254.971 41.306 254.369 41.516 253.935 41.936C253.501 42.356 253.207 42.86 253.081 43.434Z" fill="#1A3341"/>
<defs>
<linearGradient id="paint0_linear_7005_27948" x1="201" y1="3" x2="201" y2="13" gradientUnits="userSpaceOnUse">
<stop stop-color="#CDE3E9"/>
<stop offset="1" stop-color="#D3E8ED"/>
</linearGradient>
<linearGradient id="paint1_linear_7005_27948" x1="88" y1="346" x2="88" y2="360" gradientUnits="userSpaceOnUse">
<stop stop-color="#6D73F9"/>
<stop offset="1" stop-color="#9BB8F1"/>
</linearGradient>
<linearGradient id="paint2_linear_7005_27948" x1="88" y1="346" x2="88" y2="360" gradientUnits="userSpaceOnUse">
<stop stop-color="white" stop-opacity="0"/>
<stop offset="0.739583" stop-color="white"/>
</linearGradient>
<linearGradient id="paint3_linear_7005_27948" x1="70" y1="318.7" x2="70" y2="360" gradientUnits="userSpaceOnUse">
<stop stop-color="white" stop-opacity="0.05"/>
<stop offset="0.75" stop-color="white" stop-opacity="0.8"/>
</linearGradient>
<linearGradient id="paint4_linear_7005_27948" x1="88" y1="328" x2="88" y2="346" gradientUnits="userSpaceOnUse">
<stop stop-color="#6AA2E2"/>
<stop offset="1" stop-color="#9DBCFA"/>
</linearGradient>
<linearGradient id="paint5_linear_7005_27948" x1="88" y1="328" x2="88" y2="346" gradientUnits="userSpaceOnUse">
<stop stop-color="white" stop-opacity="0"/>
<stop offset="0.739583" stop-color="white"/>
</linearGradient>
<linearGradient id="paint6_linear_7005_27948" x1="70" y1="292.9" x2="70" y2="346" gradientUnits="userSpaceOnUse">
<stop stop-color="white" stop-opacity="0.05"/>
<stop offset="0.75" stop-color="white" stop-opacity="0.8"/>
</linearGradient>
<linearGradient id="paint7_linear_7005_27948" x1="88" y1="40" x2="88" y2="260" gradientUnits="userSpaceOnUse">
<stop stop-color="#CDE3E9"/>
<stop offset="1" stop-color="#D3E8ED"/>
</linearGradient>
<linearGradient id="paint8_linear_7005_27948" x1="88" y1="40" x2="88" y2="260" gradientUnits="userSpaceOnUse">
<stop stop-color="white" stop-opacity="0"/>
<stop offset="0.739583" stop-color="white"/>
</linearGradient>
<linearGradient id="paint9_linear_7005_27948" x1="70" y1="-389" x2="70" y2="260" gradientUnits="userSpaceOnUse">
<stop stop-color="white" stop-opacity="0.05"/>
<stop offset="0.75" stop-color="white" stop-opacity="0.8"/>
</linearGradient>
<linearGradient id="paint10_linear_7005_27948" x1="88" y1="260" x2="88" y2="328" gradientUnits="userSpaceOnUse">
<stop stop-color="#6D73F9"/>
<stop offset="1" stop-color="#9BB8F1"/>
</linearGradient>
<linearGradient id="paint11_linear_7005_27948" x1="88" y1="260" x2="88" y2="328" gradientUnits="userSpaceOnUse">
<stop stop-color="white" stop-opacity="0"/>
<stop offset="0.739583" stop-color="white"/>
</linearGradient>
<linearGradient id="paint12_linear_7005_27948" x1="70" y1="127.4" x2="70" y2="328" gradientUnits="userSpaceOnUse">
<stop stop-color="white" stop-opacity="0.05"/>
<stop offset="0.75" stop-color="white" stop-opacity="0.8"/>
</linearGradient>
<linearGradient id="paint13_linear_7005_27948" x1="196" y1="344" x2="196" y2="360" gradientUnits="userSpaceOnUse">
<stop stop-color="#6D73F9"/>
<stop offset="1" stop-color="#9BB8F1"/>
</linearGradient>
<linearGradient id="paint14_linear_7005_27948" x1="196" y1="344" x2="196" y2="360" gradientUnits="userSpaceOnUse">
<stop stop-color="white" stop-opacity="0"/>
<stop offset="0.739583" stop-color="white"/>
</linearGradient>
<linearGradient id="paint15_linear_7005_27948" x1="178" y1="312.8" x2="178" y2="360" gradientUnits="userSpaceOnUse">
<stop stop-color="white" stop-opacity="0.05"/>
<stop offset="0.75" stop-color="white" stop-opacity="0.8"/>
</linearGradient>
<linearGradient id="paint16_linear_7005_27948" x1="196" y1="319" x2="196" y2="344" gradientUnits="userSpaceOnUse">
<stop stop-color="#6AA2E2"/>
<stop offset="1" stop-color="#9DBCFA"/>
</linearGradient>
<linearGradient id="paint17_linear_7005_27948" x1="196" y1="319" x2="196" y2="344" gradientUnits="userSpaceOnUse">
<stop stop-color="white" stop-opacity="0"/>
<stop offset="0.739583" stop-color="white"/>
</linearGradient>
<linearGradient id="paint18_linear_7005_27948" x1="178" y1="270.25" x2="178" y2="344" gradientUnits="userSpaceOnUse">
<stop stop-color="white" stop-opacity="0.05"/>
<stop offset="0.75" stop-color="white" stop-opacity="0.8"/>
</linearGradient>
<linearGradient id="paint19_linear_7005_27948" x1="196" y1="40" x2="196" y2="247" gradientUnits="userSpaceOnUse">
<stop stop-color="#CDE3E9"/>
<stop offset="1" stop-color="#D3E8ED"/>
</linearGradient>
<linearGradient id="paint20_linear_7005_27948" x1="196" y1="40" x2="196" y2="247" gradientUnits="userSpaceOnUse">
<stop stop-color="white" stop-opacity="0"/>
<stop offset="0.739583" stop-color="white"/>
</linearGradient>
<linearGradient id="paint21_linear_7005_27948" x1="178" y1="-363.65" x2="178" y2="247" gradientUnits="userSpaceOnUse">
<stop stop-color="white" stop-opacity="0.05"/>
<stop offset="0.75" stop-color="white" stop-opacity="0.8"/>
</linearGradient>
<linearGradient id="paint22_linear_7005_27948" x1="196" y1="247" x2="196" y2="319" gradientUnits="userSpaceOnUse">
<stop stop-color="#6D73F9"/>
<stop offset="1" stop-color="#9BB8F1"/>
</linearGradient>
<linearGradient id="paint23_linear_7005_27948" x1="196" y1="247" x2="196" y2="319" gradientUnits="userSpaceOnUse">
<stop stop-color="white" stop-opacity="0"/>
<stop offset="0.739583" stop-color="white"/>
</linearGradient>
<linearGradient id="paint24_linear_7005_27948" x1="178" y1="106.6" x2="178" y2="319" gradientUnits="userSpaceOnUse">
<stop stop-color="white" stop-opacity="0.05"/>
<stop offset="0.75" stop-color="white" stop-opacity="0.8"/>
</linearGradient>
</defs>
</svg>
