<svg width="1120" height="245" viewBox="0 0 1120 245" fill="none" xmlns="http://www.w3.org/2000/svg">
<rect y="3" width="10" height="10" fill="#737AF9"/>
<path d="M23.268 4.924H29.388V5.728H23.268V4.924ZM24.84 6.916H27.72V7.72H24.84V6.916ZM24.312 6.916H25.152V9.532C25.152 10.936 24.936 12.796 23.7 14.02C23.556 13.864 23.208 13.612 23.004 13.516C24.168 12.376 24.312 10.78 24.312 9.52V6.916ZM27.216 6.916H28.068V12.484C28.068 12.796 28.08 12.964 28.128 13.012C28.164 13.06 28.236 13.072 28.308 13.072C28.38 13.072 28.512 13.072 28.608 13.072C28.692 13.072 28.8 13.06 28.836 13.012C28.896 12.964 28.932 12.868 28.956 12.676C28.98 12.46 28.992 11.992 28.992 11.38C29.16 11.524 29.4 11.644 29.604 11.716C29.592 12.268 29.556 12.94 29.508 13.18C29.436 13.42 29.34 13.588 29.196 13.684C29.064 13.792 28.848 13.828 28.632 13.828C28.488 13.828 28.212 13.828 28.092 13.828C27.864 13.828 27.624 13.768 27.444 13.612C27.276 13.444 27.216 13.24 27.216 12.424V6.916ZM19.656 4.36H22.368V5.092H19.656V4.36ZM22.14 4.36H22.944V12.904C22.944 13.336 22.848 13.576 22.56 13.72C22.272 13.864 21.828 13.876 21.096 13.876C21.06 13.66 20.94 13.3 20.832 13.084C21.348 13.108 21.792 13.096 21.936 13.096C22.092 13.084 22.14 13.036 22.14 12.904V4.36ZM19.308 4.36H20.112V8.872C20.112 10.492 19.98 12.652 19.092 14.056C18.948 13.912 18.6 13.684 18.396 13.612C19.236 12.28 19.308 10.372 19.308 8.884V4.36ZM20.388 5.908L20.976 5.68C21.24 6.22 21.564 6.928 21.708 7.372L21.108 7.636C20.964 7.168 20.664 6.448 20.388 5.908ZM20.76 2.836L21.672 3.028C21.456 3.64 21.204 4.336 21.012 4.78L20.292 4.6C20.46 4.108 20.664 3.352 20.76 2.836ZM18.468 8.152H22.704V8.896H18.468V8.152ZM20.364 9.592L20.94 9.352C21.264 9.928 21.648 10.696 21.84 11.176L21.228 11.452C21.072 10.948 20.688 10.18 20.364 9.592ZM25.152 3.064L25.98 2.8C26.304 3.376 26.664 4.132 26.844 4.612L25.98 4.924C25.812 4.42 25.452 3.64 25.152 3.064ZM35.508 9.412H36.456V13.144H35.508V9.412ZM30.9 4.384H41.112V6.808H40.188V5.224H31.8V7.096H30.9V4.384ZM32.172 8.884H39.888V9.7H32.172V8.884ZM30.924 12.736H41.112V13.564H30.924V12.736ZM36.768 6.568L37.32 5.968C38.52 6.556 40.164 7.456 41.016 8.02L40.428 8.728C39.612 8.152 37.98 7.192 36.768 6.568ZM34.596 5.932L35.232 6.472C34.272 7.324 32.94 8.236 31.548 8.836L31.02 8.056C32.436 7.54 33.672 6.724 34.596 5.932ZM35.076 3.112L36.024 2.848C36.312 3.388 36.672 4.12 36.84 4.576L35.856 4.9C35.7 4.444 35.376 3.676 35.076 3.112Z" fill="#76848D"/>
<rect x="66" y="3" width="10" height="10" fill="#8FB7EF"/>
<path d="M86.024 3.793L86.761 4.013C86.321 5.223 85.584 6.444 84.77 7.225C84.704 7.049 84.484 6.631 84.341 6.444C85.034 5.806 85.661 4.816 86.024 3.793ZM85.716 5.003H88.719V5.784H85.562L85.716 5.003ZM86.211 13.825L86.101 13.088L86.387 12.769L88.587 11.658C88.62 11.878 88.686 12.197 88.741 12.362C86.695 13.462 86.387 13.649 86.211 13.825ZM85.199 6.983H88.433V7.731H85.199V6.983ZM84.649 9.227H88.708V9.975H84.649V9.227ZM88.906 8.677H94.472V9.469H88.906V8.677ZM89.841 5.74H94.208V6.51H89.61L89.841 5.74ZM89.643 4.2L90.424 4.321C90.215 5.751 89.852 7.148 89.324 8.061C89.181 7.94 88.84 7.742 88.642 7.654C89.17 6.807 89.489 5.509 89.643 4.2ZM91.282 3.826H92.085V7.203C92.085 9.293 91.865 12.054 89.06 13.869C88.95 13.704 88.664 13.418 88.477 13.275C91.194 11.636 91.282 9.073 91.282 7.203V3.826ZM92.052 9.007C92.426 10.866 93.251 12.45 94.615 13.165C94.428 13.319 94.175 13.627 94.043 13.847C92.602 12.989 91.788 11.273 91.348 9.161L92.052 9.007ZM86.211 13.825C86.134 13.627 85.947 13.275 85.804 13.099C86.002 12.978 86.31 12.714 86.31 12.263V7.203H87.102V12.989C87.102 12.989 86.211 13.528 86.211 13.825ZM100.83 12.736H104.46V13.462H100.83V12.736ZM101.369 4.893H104.273V5.608H101.369V4.893ZM100.511 9.898H104.834V13.825H104.042V10.613H101.27V13.858H100.511V9.898ZM103.976 4.893H104.119L104.273 4.86L104.801 5.08C103.954 7.786 101.941 9.59 99.851 10.481C99.752 10.294 99.532 10.008 99.367 9.854C101.314 9.106 103.261 7.335 103.976 5.036V4.893ZM101.556 3.76L102.348 3.947C101.853 5.443 101.039 6.84 100.126 7.753C99.994 7.61 99.675 7.346 99.477 7.225C100.379 6.4 101.138 5.113 101.556 3.76ZM101.336 5.344C101.974 6.917 103.448 8.809 105.703 9.667C105.527 9.821 105.296 10.14 105.186 10.349C102.92 9.37 101.468 7.379 100.797 5.795L101.336 5.344ZM95.979 8.644H96.672V12.637H95.979V8.644ZM96.716 4.948V6.884H98.784V4.948H96.716ZM95.979 4.222H99.554V7.61H95.979V4.222ZM97.53 7.247H98.278V12.274H97.53V7.247ZM95.407 12.549C96.496 12.329 98.146 11.944 99.73 11.57L99.807 12.307C98.3 12.681 96.716 13.066 95.561 13.352L95.407 12.549ZM97.794 9.205H99.653V9.942H97.794V9.205Z" fill="#76848D"/>
<rect x="130" y="3" width="10" height="10" fill="#CFD4FB"/>
<path d="M153.256 4.336H159.508V5.128H153.256V4.336ZM153.1 6.1H158.464V6.856H153.1V6.1ZM151.996 7.864H157.72V8.668H151.996V7.864ZM153.532 2.932L154.384 3.148C153.868 4.624 153.028 6.04 152.14 6.952C151.984 6.796 151.624 6.52 151.408 6.4C152.308 5.56 153.076 4.264 153.532 2.932ZM157.228 7.864H158.092C158.104 10.852 158.176 13.144 158.788 13.144C158.956 13.144 159.016 12.448 159.04 11.5C159.196 11.692 159.436 11.908 159.616 12.028C159.544 13.444 159.388 13.984 158.716 13.984C157.336 13.984 157.276 11.512 157.228 7.864ZM149.164 3.82L149.68 3.172C150.352 3.508 151.264 4.048 151.72 4.42L151.18 5.152C150.748 4.756 149.86 4.192 149.164 3.82ZM148.444 7.108L148.924 6.448C149.62 6.736 150.568 7.216 151.036 7.552L150.544 8.308C150.076 7.96 149.152 7.456 148.444 7.108ZM148.816 13.12C149.392 12.232 150.208 10.732 150.82 9.424L151.504 10.012C150.952 11.212 150.232 12.64 149.596 13.72L148.816 13.12ZM160.912 4.672H171.076V5.536H160.912V4.672ZM160.732 10.804H171.292V11.68H160.732V10.804ZM166.072 6.292H167.02V13.972H166.072V6.292ZM162.004 9.148C161.956 8.944 161.788 8.476 161.68 8.224C161.932 8.152 162.184 7.792 162.508 7.264C162.856 6.748 163.948 4.744 164.584 2.86L165.604 3.148C164.788 5.164 163.696 7.192 162.664 8.596V8.62C162.664 8.62 162.004 8.944 162.004 9.148ZM162.004 9.148V8.428L162.58 8.116H170.296V8.98H163.3C162.58 8.98 162.136 9.04 162.004 9.148Z" fill="#76848D"/>
<rect x="196" y="3" width="10" height="10" fill="url(#paint0_linear_7005_17835)"/>
<path d="M218.932 6.256H219.784C219.568 8.176 219.22 10.744 218.968 12.208H218.092C218.392 10.696 218.752 8.116 218.932 6.256ZM220.684 7.372L221.188 7.048C221.692 7.42 222.28 7.984 222.556 8.38L222.028 8.752C221.764 8.356 221.188 7.78 220.684 7.372ZM220.372 9.928L220.9 9.592C221.428 10.012 222.052 10.612 222.352 11.032L221.8 11.416C221.524 10.996 220.9 10.36 220.372 9.928ZM219.04 4.288H225.256V5.104H219.04V4.288ZM219.328 6.256H224.14V7.048H219.328V6.256ZM217.408 8.74H225.556V9.568H217.408V8.74ZM218.548 11.416H225.22V12.208H218.548V11.416ZM219.292 2.92L220.168 3.136C219.664 4.648 218.872 6.148 218.056 7.12C217.876 6.988 217.492 6.736 217.276 6.628C218.128 5.716 218.86 4.312 219.292 2.92ZM223.864 6.256H224.704C224.704 6.256 224.704 6.568 224.692 6.688C224.5 11.344 224.308 12.916 223.9 13.42C223.672 13.72 223.42 13.816 223.06 13.852C222.712 13.888 222.124 13.864 221.536 13.828C221.512 13.6 221.428 13.276 221.296 13.06C221.92 13.108 222.472 13.12 222.712 13.12C222.916 13.12 223.036 13.096 223.156 12.952C223.492 12.568 223.696 10.936 223.864 6.448V6.256ZM215.128 3.7L215.644 3.088C216.364 3.4 217.276 3.916 217.744 4.3L217.216 4.996C216.76 4.6 215.86 4.048 215.128 3.7ZM214.492 7.192L214.996 6.58C215.68 6.892 216.544 7.384 216.976 7.768L216.46 8.452C216.04 8.068 215.188 7.528 214.492 7.192ZM214.852 13.264C215.344 12.328 216.028 10.732 216.52 9.352L217.204 9.856C216.76 11.128 216.16 12.64 215.644 13.768L214.852 13.264Z" fill="#76848D"/>
<path d="M93 89L93 137L49 137C47.8954 137 47 136.105 47 135L47 91C47 89.8954 47.8954 89 49 89L93 89Z" fill="url(#paint1_linear_7005_17835)"/>
<path opacity="0.2" d="M93 101L93 125L47 125L47 101L93 101Z" fill="url(#paint2_linear_7005_17835)"/>
<path opacity="0.04" d="M93 125L93 135C93 136.105 92.1046 137 91 137L47 137L47 125L93 125Z" fill="#0D262C"/>
<path opacity="0.5" d="M93 89L93 101L47 101L47 91C47 89.8954 47.8954 89 49 89L93 89Z" fill="url(#paint3_linear_7005_17835)"/>
<rect x="155" y="89" width="48" height="62" transform="rotate(90 155 89)" fill="url(#paint4_linear_7005_17835)"/>
<path opacity="0.2" d="M155 101L155 125L93 125L93 101L155 101Z" fill="url(#paint5_linear_7005_17835)"/>
<path opacity="0.04" d="M155 125L155 135C155 136.105 154.105 137 153 137L93 137L93 125L155 125Z" fill="#0D262C"/>
<rect opacity="0.5" x="155" y="89" width="12" height="62" transform="rotate(90 155 89)" fill="url(#paint6_linear_7005_17835)"/>
<path d="M1118 89C1119.1 89 1120 89.8954 1120 91L1120 135C1120 136.105 1119.1 137 1118 137L377 137L377 89L1118 89Z" fill="url(#paint7_linear_7005_17835)"/>
<path opacity="0.2" d="M1120 101L1120 125L377 125L377 101L1120 101Z" fill="url(#paint8_linear_7005_17835)"/>
<path opacity="0.04" d="M1120 125L1120 135C1120 136.105 1119.1 137 1118 137L377 137L377 125L1120 125Z" fill="#0D262C"/>
<path opacity="0.5" d="M1118 89C1119.1 89 1120 89.8954 1120 91L1120 101L377 101L377 89L1118 89Z" fill="url(#paint9_linear_7005_17835)"/>
<rect opacity="0.42" x="377" y="89" width="48" height="222" transform="rotate(90 377 89)" fill="url(#paint10_linear_7005_17835)"/>
<path opacity="0.2" d="M377 101L377 125L155 125L155 101L377 101Z" fill="url(#paint11_linear_7005_17835)"/>
<path opacity="0.04" d="M377 125L377 135C377 136.105 376.105 137 375 137L155 137L155 125L377 125Z" fill="#0D262C"/>
<rect opacity="0.5" x="377" y="89" width="12" height="222" transform="rotate(90 377 89)" fill="url(#paint12_linear_7005_17835)"/>
<path d="M1.57819 110.372L0.702188 110.06C1.00219 108.572 2.13019 107.504 3.91819 107.504C5.64619 107.504 6.70219 108.5 6.70219 110.024C6.70219 110.828 6.35419 111.632 5.92219 112.208C5.70619 112.508 5.43019 112.796 5.10619 113.096C4.44619 113.684 3.97819 113.996 3.29419 114.428L2.37019 115.004H7.01419V116H0.474188V115.184L2.29819 113.972C2.62219 113.768 2.85019 113.612 2.98219 113.516C3.11419 113.432 3.33019 113.276 3.61819 113.072C3.90619 112.868 4.12219 112.688 4.26619 112.556C4.39819 112.424 4.57819 112.256 4.78219 112.04C5.33419 111.44 5.53819 110.888 5.59819 110.132C5.59819 109.04 4.89019 108.548 3.84619 108.548C3.19819 108.548 2.68219 108.728 2.31019 109.088C1.93819 109.448 1.68619 109.88 1.57819 110.372ZM7.84584 111.8C7.84584 110.504 8.14584 109.46 8.75784 108.68C9.35784 107.9 10.2458 107.504 11.4098 107.504C13.7978 107.504 14.9858 109.076 14.9858 111.8C14.9858 113.108 14.6858 114.14 14.0978 114.92C13.4978 115.7 12.6098 116.096 11.4338 116.096C10.3058 116.096 9.42984 115.7 8.79384 114.908C8.15784 114.116 7.84584 113.084 7.84584 111.8ZM8.94984 111.8C8.94984 113.852 9.88584 115.076 11.4338 115.076C13.0658 115.076 13.8818 113.984 13.8818 111.8C13.8818 109.616 13.0538 108.524 11.4098 108.524C9.74184 108.524 8.94984 109.724 8.94984 111.8ZM16.8421 110.372L15.9661 110.06C16.2661 108.572 17.3941 107.504 19.1821 107.504C20.9101 107.504 21.9661 108.5 21.9661 110.024C21.9661 110.828 21.6181 111.632 21.1861 112.208C20.9701 112.508 20.6941 112.796 20.3701 113.096C19.7101 113.684 19.2421 113.996 18.5581 114.428L17.6341 115.004H22.2781V116H15.7381V115.184L17.5621 113.972C17.8861 113.768 18.1141 113.612 18.2461 113.516C18.3781 113.432 18.5941 113.276 18.8821 113.072C19.1701 112.868 19.3861 112.688 19.5301 112.556C19.6621 112.424 19.8421 112.256 20.0461 112.04C20.5981 111.44 20.8021 110.888 20.8621 110.132C20.8621 109.04 20.1541 108.548 19.1101 108.548C18.4621 108.548 17.9461 108.728 17.5741 109.088C17.2021 109.448 16.9501 109.88 16.8421 110.372ZM23.9378 110.048L23.0378 109.64C23.4818 108.344 24.6458 107.492 26.3858 107.492C27.2138 107.492 27.8978 107.684 28.4258 108.068C28.9538 108.452 29.2178 108.968 29.2178 109.604C29.2178 110.576 28.7018 111.296 27.7418 111.572C28.6658 111.632 29.4098 112.328 29.4098 113.576C29.4098 114.368 29.1218 114.992 28.5458 115.436C27.9698 115.88 27.2378 116.108 26.3378 116.108C24.5018 116.108 23.2298 115.232 22.8098 113.852L23.7818 113.432C24.2978 114.524 25.1738 115.076 26.4098 115.076C27.5738 115.076 28.3058 114.536 28.3058 113.588C28.3058 112.664 27.5858 112.196 26.1458 112.196H25.2098V111.2H25.9538C27.2618 111.2 28.1138 110.612 28.1138 109.808C28.1138 108.98 27.4298 108.512 26.3378 108.512C25.0538 108.512 24.2738 109.172 23.9378 110.048Z" fill="#76848D"/>
<path d="M76.5024 66.804L76.0544 65.754L79.4144 64.144H80.2124V74H79.0084V65.642L76.5024 66.804ZM82.0959 73.202C82.0959 72.81 82.4599 72.418 82.9639 72.418C83.4259 72.418 83.8039 72.81 83.8039 73.202C83.8039 73.65 83.4539 74.028 82.9639 74.028C82.4599 74.028 82.0959 73.65 82.0959 73.202ZM85.9274 67.056L84.8774 66.58C85.3954 65.068 86.7534 64.074 88.7834 64.074C89.7494 64.074 90.5474 64.298 91.1634 64.746C91.7794 65.194 92.0874 65.796 92.0874 66.538C92.0874 67.672 91.4854 68.512 90.3654 68.834C91.4434 68.904 92.3114 69.716 92.3114 71.172C92.3114 72.096 91.9754 72.824 91.3034 73.342C90.6314 73.86 89.7774 74.126 88.7274 74.126C86.5854 74.126 85.1014 73.104 84.6114 71.494L85.7454 71.004C86.3474 72.278 87.3694 72.922 88.8114 72.922C90.1694 72.922 91.0234 72.292 91.0234 71.186C91.0234 70.108 90.1834 69.562 88.5034 69.562H87.4114V68.4H88.2794C89.8054 68.4 90.7994 67.714 90.7994 66.776C90.7994 65.81 90.0014 65.264 88.7274 65.264C87.2294 65.264 86.3194 66.034 85.9274 67.056Z" fill="#1A3341"/>
<path d="M137.805 66.804L137.357 65.754L140.717 64.144H141.515V74H140.311V65.642L137.805 66.804ZM143.399 73.202C143.399 72.81 143.763 72.418 144.267 72.418C144.729 72.418 145.107 72.81 145.107 73.202C145.107 73.65 144.757 74.028 144.267 74.028C143.763 74.028 143.399 73.65 143.399 73.202ZM150.128 68.414H150.562C151.192 68.414 151.71 68.26 152.144 67.966C152.564 67.672 152.774 67.28 152.774 66.818C152.774 65.768 151.948 65.236 150.31 65.236C148.742 65.236 147.888 65.81 147.888 66.818C147.888 67.728 148.826 68.414 150.128 68.414ZM150.534 69.52H150.184C149.428 69.52 148.798 69.688 148.308 70.01C147.818 70.332 147.566 70.738 147.566 71.228C147.566 72.292 148.546 72.964 150.324 72.964C152.13 72.964 153.096 72.32 153.096 71.242C153.096 70.164 152.06 69.52 150.534 69.52ZM153.292 73.37C152.578 73.874 151.584 74.126 150.338 74.126C149.092 74.126 148.098 73.874 147.37 73.384C146.642 72.894 146.278 72.222 146.278 71.354C146.278 70.22 147.02 69.324 148.21 68.932C147.132 68.582 146.6 67.728 146.6 66.734C146.6 65.11 147.972 64.074 150.324 64.074C152.69 64.074 154.062 65.11 154.062 66.734C154.062 67.672 153.544 68.386 152.508 68.862C153.754 69.24 154.37 70.052 154.37 71.298C154.37 72.18 154.006 72.88 153.292 73.37Z" fill="#1A3341"/>
<path d="M356.663 69.366C356.663 67.672 357.083 66.37 357.909 65.446C358.735 64.536 359.771 64.074 361.017 64.074C362.655 64.074 363.943 64.816 364.489 65.992L363.537 66.636C362.963 65.726 362.109 65.278 360.961 65.278C360.093 65.278 359.365 65.614 358.777 66.286C358.189 66.972 357.895 67.896 357.909 69.086C358.455 68.064 359.729 67.448 361.129 67.448C362.263 67.448 363.173 67.742 363.831 68.344C364.489 68.946 364.825 69.744 364.825 70.724C364.825 71.718 364.461 72.544 363.719 73.174C362.977 73.804 362.053 74.126 360.947 74.126C358.301 74.126 356.663 72.404 356.663 69.366ZM358.063 70.556C358.329 71.942 359.379 72.922 360.933 72.922C361.689 72.922 362.319 72.726 362.809 72.32C363.299 71.928 363.537 71.41 363.537 70.78C363.537 69.394 362.557 68.652 361.059 68.652C360.233 68.652 359.547 68.848 359.015 69.24C358.469 69.632 358.161 70.066 358.063 70.556ZM365.932 73.202C365.932 72.81 366.296 72.418 366.8 72.418C367.262 72.418 367.64 72.81 367.64 73.202C367.64 73.65 367.29 74.028 366.8 74.028C366.296 74.028 365.932 73.65 365.932 73.202ZM370.225 69.492L369.217 69.226L369.791 64.2H375.951V65.39H370.869L370.505 68.022C370.995 67.658 371.737 67.476 372.731 67.476C373.879 67.476 374.775 67.784 375.433 68.386C376.077 69.002 376.399 69.786 376.399 70.752C376.399 71.718 376.035 72.53 375.321 73.16C374.593 73.804 373.683 74.126 372.605 74.126C370.771 74.126 369.245 73.258 368.615 71.732L369.735 71.256C370.141 72.194 371.191 72.936 372.605 72.936C374.215 72.936 375.111 72.012 375.111 70.794C375.111 69.492 374.061 68.652 372.395 68.652C371.499 68.652 370.771 68.932 370.225 69.492Z" fill="#1A3341"/>
<path d="M1097.81 68.918C1097.81 70.584 1097.41 71.872 1096.62 72.768C1095.82 73.678 1094.75 74.126 1093.42 74.126C1091.8 74.126 1090.53 73.44 1089.9 72.39L1090.9 71.69C1091.46 72.474 1092.49 72.922 1093.59 72.922C1094.5 72.922 1095.23 72.558 1095.8 71.83C1096.38 71.116 1096.62 70.22 1096.55 69.156C1096.08 70.22 1094.92 71.004 1093.37 71.004C1092.28 71.004 1091.38 70.696 1090.68 70.066C1089.97 69.45 1089.62 68.638 1089.62 67.644C1089.62 66.552 1089.99 65.684 1090.75 65.04C1091.51 64.396 1092.51 64.074 1093.76 64.074C1096.28 64.074 1097.81 65.838 1097.81 68.918ZM1096.34 67.602C1096.13 66.3 1095.23 65.278 1093.62 65.278C1091.94 65.278 1090.9 66.146 1090.9 67.602C1090.9 68.988 1091.95 69.8 1093.59 69.8C1094.33 69.8 1094.96 69.576 1095.45 69.128C1095.94 68.68 1096.24 68.176 1096.34 67.602ZM1098.86 69.1C1098.86 67.588 1099.21 66.37 1099.92 65.46C1100.62 64.55 1101.66 64.088 1103.01 64.088C1105.8 64.088 1107.19 65.922 1107.19 69.1C1107.19 70.626 1106.84 71.83 1106.15 72.74C1105.45 73.65 1104.41 74.112 1103.04 74.112C1101.73 74.112 1100.7 73.65 1099.96 72.726C1099.22 71.802 1098.86 70.598 1098.86 69.1ZM1100.14 69.1C1100.14 71.494 1101.24 72.922 1103.04 72.922C1104.95 72.922 1105.9 71.648 1105.9 69.1C1105.9 66.552 1104.93 65.278 1103.01 65.278C1101.07 65.278 1100.14 66.678 1100.14 69.1ZM1108.33 73.202C1108.33 72.81 1108.69 72.418 1109.2 72.418C1109.66 72.418 1110.04 72.81 1110.04 73.202C1110.04 73.65 1109.69 74.028 1109.2 74.028C1108.69 74.028 1108.33 73.65 1108.33 73.202ZM1117.96 74H1116.74V71.998H1110.75V71.186L1116.88 64.2H1117.96V70.864H1119.78V71.998H1117.96V74ZM1116.74 66.16L1112.43 70.864H1116.74V66.16Z" fill="#1A3341"/>
<path d="M100 197L100 245L49 245C47.8954 245 47 244.105 47 243L47 199C47 197.895 47.8954 197 49 197L100 197Z" fill="url(#paint13_linear_7005_17835)"/>
<path opacity="0.2" d="M100 209L100 233L47 233L47 209L100 209Z" fill="url(#paint14_linear_7005_17835)"/>
<path opacity="0.04" d="M100 233L100 243C100 244.105 99.1046 245 98 245L47 245L47 233L100 233Z" fill="#0D262C"/>
<path opacity="0.5" d="M100 197L100 209L47 209L47 199C47 197.895 47.8954 197 49 197L100 197Z" fill="url(#paint15_linear_7005_17835)"/>
<rect x="181" y="197" width="48" height="81" transform="rotate(90 181 197)" fill="url(#paint16_linear_7005_17835)"/>
<path opacity="0.2" d="M181 209L181 233L100 233L100 209L181 209Z" fill="url(#paint17_linear_7005_17835)"/>
<path opacity="0.04" d="M181 233L181 243C181 244.105 180.105 245 179 245L100 245L100 233L181 233Z" fill="#0D262C"/>
<rect opacity="0.5" x="181" y="197" width="12" height="81" transform="rotate(90 181 197)" fill="url(#paint18_linear_7005_17835)"/>
<path d="M1118 197C1119.1 197 1120 197.895 1120 199L1120 243C1120 244.105 1119.1 245 1118 245L420 245L420 197L1118 197Z" fill="url(#paint19_linear_7005_17835)"/>
<path opacity="0.2" d="M1120 209L1120 233L420 233L420 209L1120 209Z" fill="url(#paint20_linear_7005_17835)"/>
<path opacity="0.04" d="M1120 233L1120 243C1120 244.105 1119.1 245 1118 245L420 245L420 233L1120 233Z" fill="#0D262C"/>
<path opacity="0.5" d="M1118 197C1119.1 197 1120 197.895 1120 199L1120 209L420 209L420 197L1118 197Z" fill="url(#paint21_linear_7005_17835)"/>
<rect opacity="0.42" x="420" y="197" width="48" height="239" transform="rotate(90 420 197)" fill="url(#paint22_linear_7005_17835)"/>
<path opacity="0.2" d="M420 209L420 233L181 233L181 209L420 209Z" fill="url(#paint23_linear_7005_17835)"/>
<path opacity="0.04" d="M420 233L420 243C420 244.105 419.105 245 418 245L181 245L181 233L420 233Z" fill="#0D262C"/>
<rect opacity="0.5" x="420" y="197" width="12" height="239" transform="rotate(90 420 197)" fill="url(#paint24_linear_7005_17835)"/>
<path d="M1.63678 218.372L0.760782 218.06C1.06078 216.572 2.18878 215.504 3.97678 215.504C5.70478 215.504 6.76078 216.5 6.76078 218.024C6.76078 218.828 6.41278 219.632 5.98078 220.208C5.76478 220.508 5.48878 220.796 5.16478 221.096C4.50478 221.684 4.03678 221.996 3.35278 222.428L2.42878 223.004H7.07278V224H0.532782V223.184L2.35678 221.972C2.68078 221.768 2.90878 221.612 3.04078 221.516C3.17278 221.432 3.38878 221.276 3.67678 221.072C3.96478 220.868 4.18078 220.688 4.32478 220.556C4.45678 220.424 4.63678 220.256 4.84078 220.04C5.39278 219.44 5.59678 218.888 5.65678 218.132C5.65678 217.04 4.94878 216.548 3.90478 216.548C3.25678 216.548 2.74078 216.728 2.36878 217.088C1.99678 217.448 1.74478 217.88 1.63678 218.372ZM7.90444 219.8C7.90444 218.504 8.20444 217.46 8.81644 216.68C9.41644 215.9 10.3044 215.504 11.4684 215.504C13.8564 215.504 15.0444 217.076 15.0444 219.8C15.0444 221.108 14.7444 222.14 14.1564 222.92C13.5564 223.7 12.6684 224.096 11.4924 224.096C10.3644 224.096 9.48844 223.7 8.85244 222.908C8.21644 222.116 7.90444 221.084 7.90444 219.8ZM9.00844 219.8C9.00844 221.852 9.94444 223.076 11.4924 223.076C13.1244 223.076 13.9404 221.984 13.9404 219.8C13.9404 217.616 13.1124 216.524 11.4684 216.524C9.80044 216.524 9.00844 217.724 9.00844 219.8ZM16.9007 218.372L16.0247 218.06C16.3247 216.572 17.4527 215.504 19.2407 215.504C20.9687 215.504 22.0247 216.5 22.0247 218.024C22.0247 218.828 21.6767 219.632 21.2447 220.208C21.0287 220.508 20.7527 220.796 20.4287 221.096C19.7687 221.684 19.3007 221.996 18.6167 222.428L17.6927 223.004H22.3367V224H15.7967V223.184L17.6207 221.972C17.9447 221.768 18.1727 221.612 18.3047 221.516C18.4367 221.432 18.6527 221.276 18.9407 221.072C19.2287 220.868 19.4447 220.688 19.5887 220.556C19.7207 220.424 19.9007 220.256 20.1047 220.04C20.6567 219.44 20.8607 218.888 20.9207 218.132C20.9207 217.04 20.2127 216.548 19.1687 216.548C18.5207 216.548 18.0047 216.728 17.6327 217.088C17.2607 217.448 17.0087 217.88 16.9007 218.372ZM24.1283 218.372L23.2523 218.06C23.5523 216.572 24.6803 215.504 26.4683 215.504C28.1963 215.504 29.2523 216.5 29.2523 218.024C29.2523 218.828 28.9043 219.632 28.4723 220.208C28.2563 220.508 27.9803 220.796 27.6563 221.096C26.9963 221.684 26.5283 221.996 25.8443 222.428L24.9203 223.004H29.5643V224H23.0243V223.184L24.8483 221.972C25.1723 221.768 25.4003 221.612 25.5323 221.516C25.6643 221.432 25.8803 221.276 26.1683 221.072C26.4563 220.868 26.6723 220.688 26.8163 220.556C26.9483 220.424 27.1283 220.256 27.3323 220.04C27.8843 219.44 28.0883 218.888 28.1483 218.132C28.1483 217.04 27.4403 216.548 26.3963 216.548C25.7483 216.548 25.2323 216.728 24.8603 217.088C24.4883 217.448 24.2363 217.88 24.1283 218.372Z" fill="#76848D"/>
<path d="M83.3384 174.804L82.8904 173.754L86.2504 172.144H87.0484V182H85.8444V173.642L83.3384 174.804ZM88.9318 181.202C88.9318 180.81 89.2958 180.418 89.7998 180.418C90.2618 180.418 90.6398 180.81 90.6398 181.202C90.6398 181.65 90.2898 182.028 89.7998 182.028C89.2958 182.028 88.9318 181.65 88.9318 181.202ZM93.2253 177.492L92.2173 177.226L92.7913 172.2H98.9513V173.39H93.8693L93.5053 176.022C93.9953 175.658 94.7373 175.476 95.7313 175.476C96.8793 175.476 97.7753 175.784 98.4333 176.386C99.0773 177.002 99.3993 177.786 99.3993 178.752C99.3993 179.718 99.0353 180.53 98.3213 181.16C97.5933 181.804 96.6833 182.126 95.6053 182.126C93.7713 182.126 92.2453 181.258 91.6153 179.732L92.7353 179.256C93.1413 180.194 94.1913 180.936 95.6053 180.936C97.2153 180.936 98.1113 180.012 98.1113 178.794C98.1113 177.492 97.0613 176.652 95.3953 176.652C94.4993 176.652 93.7713 176.932 93.2253 177.492Z" fill="#1A3341"/>
<path d="M161.92 175.434L160.898 175.07C161.248 173.334 162.564 172.088 164.65 172.088C166.666 172.088 167.898 173.25 167.898 175.028C167.898 175.966 167.492 176.904 166.988 177.576C166.736 177.926 166.414 178.262 166.036 178.612C165.266 179.298 164.72 179.662 163.922 180.166L162.844 180.838H168.262V182H160.632V181.048L162.76 179.634C163.138 179.396 163.404 179.214 163.558 179.102C163.712 179.004 163.964 178.822 164.3 178.584C164.636 178.346 164.888 178.136 165.056 177.982C165.21 177.828 165.42 177.632 165.658 177.38C166.302 176.68 166.54 176.036 166.61 175.154C166.61 173.88 165.784 173.306 164.566 173.306C163.81 173.306 163.208 173.516 162.774 173.936C162.34 174.356 162.046 174.86 161.92 175.434ZM169.33 181.202C169.33 180.81 169.694 180.418 170.198 180.418C170.66 180.418 171.038 180.81 171.038 181.202C171.038 181.65 170.688 182.028 170.198 182.028C169.694 182.028 169.33 181.65 169.33 181.202ZM178.958 182H177.74V179.998H171.748V179.186L177.88 172.2H178.958V178.864H180.778V179.998H178.958V182ZM177.74 174.16L173.428 178.864H177.74V174.16Z" fill="#1A3341"/>
<path d="M399.13 177.366C399.13 175.672 399.55 174.37 400.376 173.446C401.202 172.536 402.238 172.074 403.484 172.074C405.122 172.074 406.41 172.816 406.956 173.992L406.004 174.636C405.43 173.726 404.576 173.278 403.428 173.278C402.56 173.278 401.832 173.614 401.244 174.286C400.656 174.972 400.362 175.896 400.376 177.086C400.922 176.064 402.196 175.448 403.596 175.448C404.73 175.448 405.64 175.742 406.298 176.344C406.956 176.946 407.292 177.744 407.292 178.724C407.292 179.718 406.928 180.544 406.186 181.174C405.444 181.804 404.52 182.126 403.414 182.126C400.768 182.126 399.13 180.404 399.13 177.366ZM400.53 178.556C400.796 179.942 401.846 180.922 403.4 180.922C404.156 180.922 404.786 180.726 405.276 180.32C405.766 179.928 406.004 179.41 406.004 178.78C406.004 177.394 405.024 176.652 403.526 176.652C402.7 176.652 402.014 176.848 401.482 177.24C400.936 177.632 400.628 178.066 400.53 178.556ZM408.399 181.202C408.399 180.81 408.763 180.418 409.267 180.418C409.729 180.418 410.107 180.81 410.107 181.202C410.107 181.65 409.757 182.028 409.267 182.028C408.763 182.028 408.399 181.65 408.399 181.202ZM419.412 176.918C419.412 178.584 419.02 179.872 418.222 180.768C417.424 181.678 416.36 182.126 415.03 182.126C413.406 182.126 412.132 181.44 411.502 180.39L412.51 179.69C413.07 180.474 414.092 180.922 415.198 180.922C416.108 180.922 416.836 180.558 417.41 179.83C417.984 179.116 418.222 178.22 418.152 177.156C417.69 178.22 416.528 179.004 414.974 179.004C413.882 179.004 412.986 178.696 412.286 178.066C411.572 177.45 411.222 176.638 411.222 175.644C411.222 174.552 411.6 173.684 412.356 173.04C413.112 172.396 414.12 172.074 415.366 172.074C417.886 172.074 419.412 173.838 419.412 176.918ZM417.942 175.602C417.732 174.3 416.836 173.278 415.226 173.278C413.546 173.278 412.51 174.146 412.51 175.602C412.51 176.988 413.56 177.8 415.198 177.8C415.94 177.8 416.57 177.576 417.06 177.128C417.55 176.68 417.844 176.176 417.942 175.602Z" fill="#1A3341"/>
<path d="M1094.53 176.414H1094.97C1095.6 176.414 1096.12 176.26 1096.55 175.966C1096.97 175.672 1097.18 175.28 1097.18 174.818C1097.18 173.768 1096.35 173.236 1094.72 173.236C1093.15 173.236 1092.29 173.81 1092.29 174.818C1092.29 175.728 1093.23 176.414 1094.53 176.414ZM1094.94 177.52H1094.59C1093.83 177.52 1093.2 177.688 1092.71 178.01C1092.22 178.332 1091.97 178.738 1091.97 179.228C1091.97 180.292 1092.95 180.964 1094.73 180.964C1096.54 180.964 1097.5 180.32 1097.5 179.242C1097.5 178.164 1096.47 177.52 1094.94 177.52ZM1097.7 181.37C1096.98 181.874 1095.99 182.126 1094.74 182.126C1093.5 182.126 1092.5 181.874 1091.78 181.384C1091.05 180.894 1090.68 180.222 1090.68 179.354C1090.68 178.22 1091.43 177.324 1092.62 176.932C1091.54 176.582 1091.01 175.728 1091.01 174.734C1091.01 173.11 1092.38 172.074 1094.73 172.074C1097.1 172.074 1098.47 173.11 1098.47 174.734C1098.47 175.672 1097.95 176.386 1096.91 176.862C1098.16 177.24 1098.78 178.052 1098.78 179.298C1098.78 180.18 1098.41 180.88 1097.7 181.37ZM1108.02 176.918C1108.02 178.584 1107.62 179.872 1106.83 180.768C1106.03 181.678 1104.96 182.126 1103.63 182.126C1102.01 182.126 1100.74 181.44 1100.11 180.39L1101.11 179.69C1101.67 180.474 1102.7 180.922 1103.8 180.922C1104.71 180.922 1105.44 180.558 1106.01 179.83C1106.59 179.116 1106.83 178.22 1106.76 177.156C1106.29 178.22 1105.13 179.004 1103.58 179.004C1102.49 179.004 1101.59 178.696 1100.89 178.066C1100.18 177.45 1099.83 176.638 1099.83 175.644C1099.83 174.552 1100.2 173.684 1100.96 173.04C1101.72 172.396 1102.72 172.074 1103.97 172.074C1106.49 172.074 1108.02 173.838 1108.02 176.918ZM1106.55 175.602C1106.34 174.3 1105.44 173.278 1103.83 173.278C1102.15 173.278 1101.11 174.146 1101.11 175.602C1101.11 176.988 1102.16 177.8 1103.8 177.8C1104.54 177.8 1105.17 177.576 1105.66 177.128C1106.15 176.68 1106.45 176.176 1106.55 175.602ZM1109.16 181.202C1109.16 180.81 1109.53 180.418 1110.03 180.418C1110.49 180.418 1110.87 180.81 1110.87 181.202C1110.87 181.65 1110.52 182.028 1110.03 182.028C1109.53 182.028 1109.16 181.65 1109.16 181.202ZM1113.15 175.434L1112.13 175.07C1112.48 173.334 1113.79 172.088 1115.88 172.088C1117.9 172.088 1119.13 173.25 1119.13 175.028C1119.13 175.966 1118.72 176.904 1118.22 177.576C1117.97 177.926 1117.64 178.262 1117.27 178.612C1116.5 179.298 1115.95 179.662 1115.15 180.166L1114.07 180.838H1119.49V182H1111.86V181.048L1113.99 179.634C1114.37 179.396 1114.63 179.214 1114.79 179.102C1114.94 179.004 1115.19 178.822 1115.53 178.584C1115.87 178.346 1116.12 178.136 1116.29 177.982C1116.44 177.828 1116.65 177.632 1116.89 177.38C1117.53 176.68 1117.77 176.036 1117.84 175.154C1117.84 173.88 1117.01 173.306 1115.8 173.306C1115.04 173.306 1114.44 173.516 1114 173.936C1113.57 174.356 1113.28 174.86 1113.15 175.434Z" fill="#1A3341"/>
<defs>
<linearGradient id="paint0_linear_7005_17835" x1="201" y1="3" x2="201" y2="13" gradientUnits="userSpaceOnUse">
<stop stop-color="#CDE3E9"/>
<stop offset="1" stop-color="#D3E8ED"/>
</linearGradient>
<linearGradient id="paint1_linear_7005_17835" x1="93" y1="113" x2="47" y2="113" gradientUnits="userSpaceOnUse">
<stop stop-color="#6D73F9"/>
<stop offset="1" stop-color="#9BB8F1"/>
</linearGradient>
<linearGradient id="paint2_linear_7005_17835" x1="93" y1="113" x2="47" y2="113" gradientUnits="userSpaceOnUse">
<stop stop-color="white" stop-opacity="0"/>
<stop offset="0.739583" stop-color="white"/>
</linearGradient>
<linearGradient id="paint3_linear_7005_17835" x1="182.7" y1="95" x2="47" y2="95" gradientUnits="userSpaceOnUse">
<stop stop-color="white" stop-opacity="0.05"/>
<stop offset="0.75" stop-color="white" stop-opacity="0.8"/>
</linearGradient>
<linearGradient id="paint4_linear_7005_17835" x1="179" y1="89" x2="179" y2="151" gradientUnits="userSpaceOnUse">
<stop stop-color="#6AA2E2"/>
<stop offset="1" stop-color="#9DBCFA"/>
</linearGradient>
<linearGradient id="paint5_linear_7005_17835" x1="155" y1="113" x2="93" y2="113" gradientUnits="userSpaceOnUse">
<stop stop-color="white" stop-opacity="0"/>
<stop offset="0.739583" stop-color="white"/>
</linearGradient>
<linearGradient id="paint6_linear_7005_17835" x1="161" y1="-31.9" x2="161" y2="151" gradientUnits="userSpaceOnUse">
<stop stop-color="white" stop-opacity="0.05"/>
<stop offset="0.75" stop-color="white" stop-opacity="0.8"/>
</linearGradient>
<linearGradient id="paint7_linear_7005_17835" x1="1120" y1="113" x2="377" y2="113" gradientUnits="userSpaceOnUse">
<stop stop-color="#CDE3E9"/>
<stop offset="1" stop-color="#D3E8ED"/>
</linearGradient>
<linearGradient id="paint8_linear_7005_17835" x1="1120" y1="113" x2="377" y2="113" gradientUnits="userSpaceOnUse">
<stop stop-color="white" stop-opacity="0"/>
<stop offset="0.739583" stop-color="white"/>
</linearGradient>
<linearGradient id="paint9_linear_7005_17835" x1="2568.85" y1="95" x2="377" y2="94.9998" gradientUnits="userSpaceOnUse">
<stop stop-color="white" stop-opacity="0.05"/>
<stop offset="0.75" stop-color="white" stop-opacity="0.8"/>
</linearGradient>
<linearGradient id="paint10_linear_7005_17835" x1="401" y1="89" x2="401" y2="311" gradientUnits="userSpaceOnUse">
<stop stop-color="#6D73F9"/>
<stop offset="1" stop-color="#9BB8F1"/>
</linearGradient>
<linearGradient id="paint11_linear_7005_17835" x1="377" y1="113" x2="155" y2="113" gradientUnits="userSpaceOnUse">
<stop stop-color="white" stop-opacity="0"/>
<stop offset="0.739583" stop-color="white"/>
</linearGradient>
<linearGradient id="paint12_linear_7005_17835" x1="383" y1="-343.9" x2="383" y2="311" gradientUnits="userSpaceOnUse">
<stop stop-color="white" stop-opacity="0.05"/>
<stop offset="0.75" stop-color="white" stop-opacity="0.8"/>
</linearGradient>
<linearGradient id="paint13_linear_7005_17835" x1="100" y1="221" x2="47" y2="221" gradientUnits="userSpaceOnUse">
<stop stop-color="#6D73F9"/>
<stop offset="1" stop-color="#9BB8F1"/>
</linearGradient>
<linearGradient id="paint14_linear_7005_17835" x1="100" y1="221" x2="47" y2="221" gradientUnits="userSpaceOnUse">
<stop stop-color="white" stop-opacity="0"/>
<stop offset="0.739583" stop-color="white"/>
</linearGradient>
<linearGradient id="paint15_linear_7005_17835" x1="203.35" y1="203" x2="47" y2="203" gradientUnits="userSpaceOnUse">
<stop stop-color="white" stop-opacity="0.05"/>
<stop offset="0.75" stop-color="white" stop-opacity="0.8"/>
</linearGradient>
<linearGradient id="paint16_linear_7005_17835" x1="205" y1="197" x2="205" y2="278" gradientUnits="userSpaceOnUse">
<stop stop-color="#6AA2E2"/>
<stop offset="1" stop-color="#9DBCFA"/>
</linearGradient>
<linearGradient id="paint17_linear_7005_17835" x1="181" y1="221" x2="100" y2="221" gradientUnits="userSpaceOnUse">
<stop stop-color="white" stop-opacity="0"/>
<stop offset="0.739583" stop-color="white"/>
</linearGradient>
<linearGradient id="paint18_linear_7005_17835" x1="187" y1="39.05" x2="187" y2="278" gradientUnits="userSpaceOnUse">
<stop stop-color="white" stop-opacity="0.05"/>
<stop offset="0.75" stop-color="white" stop-opacity="0.8"/>
</linearGradient>
<linearGradient id="paint19_linear_7005_17835" x1="1120" y1="221" x2="420" y2="221" gradientUnits="userSpaceOnUse">
<stop stop-color="#CDE3E9"/>
<stop offset="1" stop-color="#D3E8ED"/>
</linearGradient>
<linearGradient id="paint20_linear_7005_17835" x1="1120" y1="221" x2="420" y2="221" gradientUnits="userSpaceOnUse">
<stop stop-color="white" stop-opacity="0"/>
<stop offset="0.739583" stop-color="white"/>
</linearGradient>
<linearGradient id="paint21_linear_7005_17835" x1="2485" y1="203" x2="420" y2="203" gradientUnits="userSpaceOnUse">
<stop stop-color="white" stop-opacity="0.05"/>
<stop offset="0.75" stop-color="white" stop-opacity="0.8"/>
</linearGradient>
<linearGradient id="paint22_linear_7005_17835" x1="444" y1="197" x2="444" y2="436" gradientUnits="userSpaceOnUse">
<stop stop-color="#6D73F9"/>
<stop offset="1" stop-color="#9BB8F1"/>
</linearGradient>
<linearGradient id="paint23_linear_7005_17835" x1="420" y1="221" x2="181" y2="221" gradientUnits="userSpaceOnUse">
<stop stop-color="white" stop-opacity="0"/>
<stop offset="0.739583" stop-color="white"/>
</linearGradient>
<linearGradient id="paint24_linear_7005_17835" x1="426" y1="-269.05" x2="426" y2="436" gradientUnits="userSpaceOnUse">
<stop stop-color="white" stop-opacity="0.05"/>
<stop offset="0.75" stop-color="white" stop-opacity="0.8"/>
</linearGradient>
</defs>
</svg>
