<svg width="917" height="289" viewBox="0 0 917 289" fill="none" xmlns="http://www.w3.org/2000/svg">
<path d="M750 0C768.942 2.25886e-07 787.592 4.67915 804.29 13.6217C820.989 22.5642 835.22 35.4931 845.719 51.2597C856.218 67.0263 862.66 85.1422 864.472 103.998C866.285 122.853 863.411 141.865 856.107 159.342L843.374 154.021C849.802 138.641 852.331 121.911 850.736 105.318C849.141 88.7251 843.472 72.7831 834.233 58.9085C824.994 45.034 812.47 33.6565 797.775 25.7871C783.081 17.9177 766.669 13.8 750 13.8V0Z" fill="url(#paint0_linear_164_8751)"/>
<path d="M856.024 159.541C848.806 176.723 837.52 191.894 823.137 203.746C808.755 215.599 791.708 223.779 773.463 227.581C755.218 231.383 736.323 230.695 718.403 225.574C700.483 220.454 684.077 211.055 670.596 198.186L680.124 188.204C691.988 199.528 706.425 207.799 722.195 212.305C737.964 216.811 754.592 217.417 770.648 214.071C786.703 210.725 801.705 203.527 814.361 193.097C827.017 182.666 836.949 169.316 843.301 154.196L856.024 159.541Z" fill="url(#paint1_linear_164_8751)"/>
<path d="M670.564 198.156C653.939 182.275 642.456 161.775 637.597 139.304C632.739 116.832 634.727 93.4195 643.306 72.089C651.885 50.7585 666.66 32.489 685.725 19.639C704.79 6.78899 727.269 -0.0516052 750.26 0.000289917L750.228 13.8003C729.996 13.7546 710.215 19.7743 693.438 31.0823C676.661 42.3903 663.659 58.4675 656.109 77.2383C648.56 96.0092 646.81 116.612 651.086 136.387C655.362 156.162 665.467 174.202 680.096 188.177L670.564 198.156Z" fill="url(#paint2_linear_164_8751)"/>
<path d="M872.568 16.056L871.518 15.58C872.036 14.068 873.394 13.074 875.424 13.074C876.39 13.074 877.188 13.298 877.804 13.746C878.42 14.194 878.728 14.796 878.728 15.538C878.728 16.672 878.126 17.512 877.006 17.834C878.084 17.904 878.952 18.716 878.952 20.172C878.952 21.096 878.616 21.824 877.944 22.342C877.272 22.86 876.418 23.126 875.368 23.126C873.226 23.126 871.742 22.104 871.252 20.494L872.386 20.004C872.988 21.278 874.01 21.922 875.452 21.922C876.81 21.922 877.664 21.292 877.664 20.186C877.664 19.108 876.824 18.562 875.144 18.562H874.052V17.4H874.92C876.446 17.4 877.44 16.714 877.44 15.776C877.44 14.81 876.642 14.264 875.368 14.264C873.87 14.264 872.96 15.034 872.568 16.056ZM880.131 15.804L879.683 14.754L883.043 13.144H883.841V23H882.637V14.642L880.131 15.804ZM885.864 22.202C885.864 21.81 886.228 21.418 886.732 21.418C887.194 21.418 887.572 21.81 887.572 22.202C887.572 22.65 887.222 23.028 886.732 23.028C886.228 23.028 885.864 22.65 885.864 22.202ZM889.836 16.056L888.786 15.58C889.304 14.068 890.662 13.074 892.692 13.074C893.658 13.074 894.456 13.298 895.072 13.746C895.688 14.194 895.996 14.796 895.996 15.538C895.996 16.672 895.394 17.512 894.274 17.834C895.352 17.904 896.22 18.716 896.22 20.172C896.22 21.096 895.884 21.824 895.212 22.342C894.54 22.86 893.686 23.126 892.636 23.126C890.494 23.126 889.01 22.104 888.52 20.494L889.654 20.004C890.256 21.278 891.278 21.922 892.72 21.922C894.078 21.922 894.932 21.292 894.932 20.186C894.932 19.108 894.092 18.562 892.412 18.562H891.32V17.4H892.188C893.714 17.4 894.708 16.714 894.708 15.776C894.708 14.81 893.91 14.264 892.636 14.264C891.138 14.264 890.228 15.034 889.836 16.056ZM899.946 23.21L899.022 22.678L906.26 12.892L907.142 13.536L899.946 23.21ZM897.51 15.552C897.51 14.852 897.748 14.278 898.238 13.83C898.728 13.382 899.33 13.158 900.072 13.158C900.8 13.158 901.402 13.382 901.892 13.83C902.382 14.278 902.62 14.852 902.62 15.552C902.62 16.238 902.382 16.812 901.892 17.26C901.402 17.708 900.8 17.932 900.072 17.932C899.33 17.932 898.728 17.708 898.238 17.26C897.748 16.812 897.51 16.238 897.51 15.552ZM898.686 15.552C898.686 16.35 899.33 16.938 900.072 16.938C900.842 16.938 901.444 16.378 901.444 15.552C901.444 14.726 900.814 14.166 900.072 14.166C899.302 14.166 898.686 14.726 898.686 15.552ZM904.244 22.384C903.754 21.936 903.516 21.362 903.516 20.662C903.516 19.962 903.754 19.388 904.244 18.94C904.734 18.506 905.336 18.282 906.078 18.282C906.806 18.282 907.408 18.506 907.898 18.94C908.388 19.388 908.626 19.962 908.626 20.662C908.626 21.348 908.388 21.922 907.898 22.37C907.408 22.832 906.806 23.056 906.078 23.056C905.336 23.056 904.734 22.832 904.244 22.384ZM904.692 20.662C904.692 21.46 905.336 22.048 906.078 22.048C906.848 22.048 907.45 21.488 907.45 20.662C907.45 19.836 906.82 19.276 906.078 19.276C905.308 19.276 904.692 19.836 904.692 20.662ZM872.722 36.434L871.7 36.07C872.05 34.334 873.366 33.088 875.452 33.088C877.468 33.088 878.7 34.25 878.7 36.028C878.7 36.966 878.294 37.904 877.79 38.576C877.538 38.926 877.216 39.262 876.838 39.612C876.068 40.298 875.522 40.662 874.724 41.166L873.646 41.838H879.064V43H871.434V42.048L873.562 40.634C873.94 40.396 874.206 40.214 874.36 40.102C874.514 40.004 874.766 39.822 875.102 39.584C875.438 39.346 875.69 39.136 875.858 38.982C876.012 38.828 876.222 38.632 876.46 38.38C877.104 37.68 877.342 37.036 877.412 36.154C877.412 34.88 876.586 34.306 875.368 34.306C874.612 34.306 874.01 34.516 873.576 34.936C873.142 35.356 872.848 35.86 872.722 36.434ZM880.062 35.804L879.614 34.754L882.974 33.144H883.772V43H882.568V34.642L880.062 35.804ZM885.586 35.804L885.138 34.754L888.498 33.144H889.296V43H888.092V34.642L885.586 35.804ZM892.159 43C891.641 43.056 891.249 42.762 891.249 42.258C891.249 41.768 891.557 41.46 892.103 41.46C892.719 41.46 893.125 41.88 893.125 42.664C893.125 44.064 892.355 44.778 891.333 45.016L891.039 44.358C891.347 44.274 891.627 44.106 891.879 43.84C892.117 43.574 892.215 43.294 892.159 43ZM894.172 35.804L893.724 34.754L897.084 33.144H897.882V43H896.678V34.642L894.172 35.804ZM900.927 36.434L899.905 36.07C900.255 34.334 901.571 33.088 903.657 33.088C905.673 33.088 906.905 34.25 906.905 36.028C906.905 36.966 906.499 37.904 905.995 38.576C905.743 38.926 905.421 39.262 905.043 39.612C904.273 40.298 903.727 40.662 902.929 41.166L901.851 41.838H907.269V43H899.639V42.048L901.767 40.634C902.145 40.396 902.411 40.214 902.565 40.102C902.719 40.004 902.971 39.822 903.307 39.584C903.643 39.346 903.895 39.136 904.063 38.982C904.217 38.828 904.427 38.632 904.665 38.38C905.309 37.68 905.547 37.036 905.617 36.154C905.617 34.88 904.791 34.306 903.573 34.306C902.817 34.306 902.215 34.516 901.781 34.936C901.347 35.356 901.053 35.86 900.927 36.434ZM909.499 36.434L908.477 36.07C908.827 34.334 910.143 33.088 912.229 33.088C914.245 33.088 915.477 34.25 915.477 36.028C915.477 36.966 915.071 37.904 914.567 38.576C914.315 38.926 913.993 39.262 913.615 39.612C912.845 40.298 912.299 40.662 911.501 41.166L910.423 41.838H915.841V43H908.211V42.048L910.339 40.634C910.717 40.396 910.983 40.214 911.137 40.102C911.291 40.004 911.543 39.822 911.879 39.584C912.215 39.346 912.467 39.136 912.635 38.982C912.789 38.828 912.999 38.632 913.237 38.38C913.881 37.68 914.119 37.036 914.189 36.154C914.189 34.88 913.363 34.306 912.145 34.306C911.389 34.306 910.787 34.516 910.353 34.936C909.919 35.356 909.625 35.86 909.499 36.434Z" fill="#1A3341"/>
<path d="M871.948 53.712L872.644 53.244C872.868 53.444 873.096 53.664 873.328 53.904C873.56 54.144 873.776 54.38 873.976 54.612C874.184 54.844 874.352 55.056 874.48 55.248L873.724 55.776C873.62 55.584 873.468 55.368 873.268 55.128C873.068 54.888 872.852 54.644 872.62 54.396C872.396 54.148 872.172 53.92 871.948 53.712ZM874.144 57.42V61.788H873.256V58.26H871.6V57.42H874.144ZM873.688 61.308C873.824 61.308 873.952 61.344 874.072 61.416C874.192 61.488 874.328 61.584 874.48 61.704C874.632 61.816 874.816 61.944 875.032 62.088C875.424 62.328 875.88 62.484 876.4 62.556C876.92 62.628 877.516 62.664 878.188 62.664C878.54 62.664 878.908 62.66 879.292 62.652C879.684 62.636 880.076 62.62 880.468 62.604C880.86 62.58 881.236 62.556 881.596 62.532C881.956 62.5 882.28 62.468 882.568 62.436C882.528 62.516 882.488 62.616 882.448 62.736C882.408 62.856 882.372 62.976 882.34 63.096C882.316 63.216 882.3 63.32 882.292 63.408C882.076 63.424 881.796 63.436 881.452 63.444C881.116 63.46 880.744 63.472 880.336 63.48C879.936 63.488 879.544 63.496 879.16 63.504C878.784 63.512 878.452 63.516 878.164 63.516C877.42 63.516 876.784 63.472 876.256 63.384C875.728 63.304 875.252 63.132 874.828 62.868C874.58 62.708 874.356 62.548 874.156 62.388C873.964 62.228 873.8 62.148 873.664 62.148C873.536 62.148 873.384 62.22 873.208 62.364C873.04 62.5 872.86 62.684 872.668 62.916C872.476 63.148 872.276 63.404 872.068 63.684L871.444 62.832C871.86 62.384 872.26 62.02 872.644 61.74C873.036 61.452 873.384 61.308 873.688 61.308ZM874.984 55.08H882.22V55.932H874.984V55.08ZM879.64 52.956H880.552V60.696C880.552 61 880.508 61.228 880.42 61.38C880.332 61.532 880.18 61.644 879.964 61.716C879.756 61.788 879.464 61.836 879.088 61.86C878.712 61.876 878.244 61.884 877.684 61.884C877.668 61.748 877.624 61.592 877.552 61.416C877.488 61.24 877.424 61.088 877.36 60.96C877.656 60.968 877.936 60.976 878.2 60.984C878.472 60.992 878.704 60.996 878.896 60.996C879.096 60.988 879.236 60.984 879.316 60.984C879.436 60.976 879.52 60.952 879.568 60.912C879.616 60.872 879.64 60.8 879.64 60.696V52.956ZM875.572 57.276L876.292 56.88C876.5 57.12 876.712 57.384 876.928 57.672C877.152 57.96 877.36 58.24 877.552 58.512C877.744 58.784 877.896 59.028 878.008 59.244L877.252 59.7C877.14 59.492 876.992 59.248 876.808 58.968C876.624 58.68 876.42 58.388 876.196 58.092C875.98 57.796 875.772 57.524 875.572 57.276ZM887.764 53.796H893.8V54.552H887.764V53.796ZM887.404 55.992H894.124V56.76H887.404V55.992ZM888.724 54.84L889.468 54.672C889.548 54.856 889.632 55.064 889.72 55.296C889.808 55.52 889.868 55.712 889.9 55.872L889.12 56.076C889.096 55.916 889.044 55.72 888.964 55.488C888.884 55.248 888.804 55.032 888.724 54.84ZM891.976 54.696L892.804 54.9C892.692 55.148 892.572 55.4 892.444 55.656C892.324 55.912 892.208 56.136 892.096 56.328L891.4 56.136C891.504 55.936 891.608 55.7 891.712 55.428C891.824 55.148 891.912 54.904 891.976 54.696ZM888.82 59.4V60.192H892.612V59.4H888.82ZM888.82 58.02V58.8H892.612V58.02H888.82ZM887.98 57.384H893.476V60.828H887.98V57.384ZM889.252 60.612H890.104C890.064 61.076 889.988 61.492 889.876 61.86C889.772 62.22 889.608 62.536 889.384 62.808C889.16 63.08 888.86 63.312 888.484 63.504C888.108 63.696 887.632 63.86 887.056 63.996C887.032 63.924 886.992 63.844 886.936 63.756C886.888 63.668 886.832 63.58 886.768 63.492C886.712 63.412 886.652 63.348 886.588 63.3C887.1 63.196 887.52 63.068 887.848 62.916C888.184 62.764 888.448 62.584 888.64 62.376C888.832 62.16 888.972 61.908 889.06 61.62C889.156 61.332 889.22 60.996 889.252 60.612ZM891.172 60.624H892.024V62.688C892.024 62.888 892.056 63.004 892.12 63.036C892.184 63.068 892.296 63.084 892.456 63.084C892.52 63.084 892.608 63.084 892.72 63.084C892.84 63.084 892.944 63.084 893.032 63.084C893.112 63.084 893.188 63.08 893.26 63.072C893.34 63.072 893.4 63.064 893.44 63.048C893.544 63.016 893.616 62.928 893.656 62.784C893.672 62.696 893.684 62.568 893.692 62.4C893.7 62.224 893.708 62.012 893.716 61.764C893.796 61.844 893.904 61.92 894.04 61.992C894.184 62.056 894.316 62.104 894.436 62.136C894.42 62.384 894.4 62.62 894.376 62.844C894.36 63.06 894.328 63.216 894.28 63.312C894.192 63.512 894.044 63.644 893.836 63.708C893.756 63.74 893.644 63.76 893.5 63.768C893.356 63.784 893.224 63.792 893.104 63.792C893.04 63.792 892.952 63.792 892.84 63.792C892.736 63.792 892.632 63.792 892.528 63.792C892.424 63.792 892.344 63.792 892.288 63.792C892.152 63.792 892.004 63.776 891.844 63.744C891.692 63.712 891.564 63.66 891.46 63.588C891.356 63.516 891.28 63.412 891.232 63.276C891.192 63.148 891.172 62.924 891.172 62.604V60.624ZM890.044 53.004L890.884 52.848C890.98 53.024 891.072 53.224 891.16 53.448C891.256 53.664 891.328 53.852 891.376 54.012L890.5 54.228C890.452 54.068 890.384 53.872 890.296 53.64C890.216 53.408 890.132 53.196 890.044 53.004ZM883.6 55.848H886.96V56.7H883.6V55.848ZM884.92 53.064H885.796V61.104H884.92V53.064ZM883.408 61.452C883.72 61.356 884.072 61.236 884.464 61.092C884.864 60.948 885.284 60.796 885.724 60.636C886.172 60.468 886.616 60.304 887.056 60.144L887.236 60.96C886.628 61.208 886.012 61.456 885.388 61.704C884.772 61.944 884.212 62.164 883.708 62.364L883.408 61.452Z" fill="#76848D"/>
<path d="M818.568 237.056L817.518 236.58C818.036 235.068 819.394 234.074 821.424 234.074C822.39 234.074 823.188 234.298 823.804 234.746C824.42 235.194 824.728 235.796 824.728 236.538C824.728 237.672 824.126 238.512 823.006 238.834C824.084 238.904 824.952 239.716 824.952 241.172C824.952 242.096 824.616 242.824 823.944 243.342C823.272 243.86 822.418 244.126 821.368 244.126C819.226 244.126 817.742 243.104 817.252 241.494L818.386 241.004C818.988 242.278 820.01 242.922 821.452 242.922C822.81 242.922 823.664 242.292 823.664 241.186C823.664 240.108 822.824 239.562 821.144 239.562H820.052V238.4H820.92C822.446 238.4 823.44 237.714 823.44 236.776C823.44 235.81 822.642 235.264 821.368 235.264C819.87 235.264 818.96 236.034 818.568 237.056ZM826.243 239.1C826.243 237.588 826.593 236.37 827.307 235.46C828.007 234.55 829.043 234.088 830.401 234.088C833.187 234.088 834.573 235.922 834.573 239.1C834.573 240.626 834.223 241.83 833.537 242.74C832.837 243.65 831.801 244.112 830.429 244.112C829.113 244.112 828.091 243.65 827.349 242.726C826.607 241.802 826.243 240.598 826.243 239.1ZM827.531 239.1C827.531 241.494 828.623 242.922 830.429 242.922C832.333 242.922 833.285 241.648 833.285 239.1C833.285 236.552 832.319 235.278 830.401 235.278C828.455 235.278 827.531 236.678 827.531 239.1ZM835.856 243.202C835.856 242.81 836.22 242.418 836.724 242.418C837.186 242.418 837.564 242.81 837.564 243.202C837.564 243.65 837.214 244.028 836.724 244.028C836.22 244.028 835.856 243.65 835.856 243.202ZM842.726 238.414H843.16C843.79 238.414 844.308 238.26 844.742 237.966C845.162 237.672 845.372 237.28 845.372 236.818C845.372 235.768 844.546 235.236 842.908 235.236C841.34 235.236 840.486 235.81 840.486 236.818C840.486 237.728 841.424 238.414 842.726 238.414ZM843.132 239.52H842.782C842.026 239.52 841.396 239.688 840.906 240.01C840.416 240.332 840.164 240.738 840.164 241.228C840.164 242.292 841.144 242.964 842.922 242.964C844.728 242.964 845.694 242.32 845.694 241.242C845.694 240.164 844.658 239.52 843.132 239.52ZM845.89 243.37C845.176 243.874 844.182 244.126 842.936 244.126C841.69 244.126 840.696 243.874 839.968 243.384C839.24 242.894 838.876 242.222 838.876 241.354C838.876 240.22 839.618 239.324 840.808 238.932C839.73 238.582 839.198 237.728 839.198 236.734C839.198 235.11 840.57 234.074 842.922 234.074C845.288 234.074 846.66 235.11 846.66 236.734C846.66 237.672 846.142 238.386 845.106 238.862C846.352 239.24 846.968 240.052 846.968 241.298C846.968 242.18 846.604 242.88 845.89 243.37ZM850.636 244.21L849.712 243.678L856.95 233.892L857.832 234.536L850.636 244.21ZM848.2 236.552C848.2 235.852 848.438 235.278 848.928 234.83C849.418 234.382 850.02 234.158 850.762 234.158C851.49 234.158 852.092 234.382 852.582 234.83C853.072 235.278 853.31 235.852 853.31 236.552C853.31 237.238 853.072 237.812 852.582 238.26C852.092 238.708 851.49 238.932 850.762 238.932C850.02 238.932 849.418 238.708 848.928 238.26C848.438 237.812 848.2 237.238 848.2 236.552ZM849.376 236.552C849.376 237.35 850.02 237.938 850.762 237.938C851.532 237.938 852.134 237.378 852.134 236.552C852.134 235.726 851.504 235.166 850.762 235.166C849.992 235.166 849.376 235.726 849.376 236.552ZM854.934 243.384C854.444 242.936 854.206 242.362 854.206 241.662C854.206 240.962 854.444 240.388 854.934 239.94C855.424 239.506 856.026 239.282 856.768 239.282C857.496 239.282 858.098 239.506 858.588 239.94C859.078 240.388 859.316 240.962 859.316 241.662C859.316 242.348 859.078 242.922 858.588 243.37C858.098 243.832 857.496 244.056 856.768 244.056C856.026 244.056 855.424 243.832 854.934 243.384ZM855.382 241.662C855.382 242.46 856.026 243.048 856.768 243.048C857.538 243.048 858.14 242.488 858.14 241.662C858.14 240.836 857.51 240.276 856.768 240.276C855.998 240.276 855.382 240.836 855.382 241.662ZM818.722 257.434L817.7 257.07C818.05 255.334 819.366 254.088 821.452 254.088C823.468 254.088 824.7 255.25 824.7 257.028C824.7 257.966 824.294 258.904 823.79 259.576C823.538 259.926 823.216 260.262 822.838 260.612C822.068 261.298 821.522 261.662 820.724 262.166L819.646 262.838H825.064V264H817.434V263.048L819.562 261.634C819.94 261.396 820.206 261.214 820.36 261.102C820.514 261.004 820.766 260.822 821.102 260.584C821.438 260.346 821.69 260.136 821.858 259.982C822.012 259.828 822.222 259.632 822.46 259.38C823.104 258.68 823.342 258.036 823.412 257.154C823.412 255.88 822.586 255.306 821.368 255.306C820.612 255.306 820.01 255.516 819.576 255.936C819.142 256.356 818.848 256.86 818.722 257.434ZM826.174 259.1C826.174 257.588 826.524 256.37 827.238 255.46C827.938 254.55 828.974 254.088 830.332 254.088C833.118 254.088 834.504 255.922 834.504 259.1C834.504 260.626 834.154 261.83 833.468 262.74C832.768 263.65 831.732 264.112 830.36 264.112C829.044 264.112 828.022 263.65 827.28 262.726C826.538 261.802 826.174 260.598 826.174 259.1ZM827.462 259.1C827.462 261.494 828.554 262.922 830.36 262.922C832.264 262.922 833.216 261.648 833.216 259.1C833.216 256.552 832.25 255.278 830.332 255.278C828.386 255.278 827.462 256.678 827.462 259.1ZM841.304 255.39H835.368V254.2H842.802V254.998L837.93 264H836.6L841.304 255.39ZM843.778 264C843.26 264.056 842.868 263.762 842.868 263.258C842.868 262.768 843.176 262.46 843.722 262.46C844.338 262.46 844.744 262.88 844.744 263.664C844.744 265.064 843.974 265.778 842.952 266.016L842.658 265.358C842.966 265.274 843.246 265.106 843.498 264.84C843.736 264.574 843.834 264.294 843.778 264ZM851.517 255.39H845.581V254.2H853.015V254.998L848.143 264H846.813L851.517 255.39ZM853.901 259.366C853.901 257.672 854.321 256.37 855.147 255.446C855.973 254.536 857.009 254.074 858.255 254.074C859.893 254.074 861.181 254.816 861.727 255.992L860.775 256.636C860.201 255.726 859.347 255.278 858.199 255.278C857.331 255.278 856.603 255.614 856.015 256.286C855.427 256.972 855.133 257.896 855.147 259.086C855.693 258.064 856.967 257.448 858.367 257.448C859.501 257.448 860.411 257.742 861.069 258.344C861.727 258.946 862.063 259.744 862.063 260.724C862.063 261.718 861.699 262.544 860.957 263.174C860.215 263.804 859.291 264.126 858.185 264.126C855.539 264.126 853.901 262.404 853.901 259.366ZM855.301 260.556C855.567 261.942 856.617 262.922 858.171 262.922C858.927 262.922 859.557 262.726 860.047 262.32C860.537 261.928 860.775 261.41 860.775 260.78C860.775 259.394 859.795 258.652 858.297 258.652C857.471 258.652 856.785 258.848 856.253 259.24C855.707 259.632 855.399 260.066 855.301 260.556ZM868.825 255.39H862.889V254.2H870.323V254.998L865.451 264H864.121L868.825 255.39Z" fill="#1A3341"/>
<path d="M826.744 279.92H827.704V284.9H826.744V284.216H818.296V279.92H819.256V283.34H822.496V279.164H818.824V275.06H819.748V278.288H822.496V273.968H823.456V278.288H826.276V275.048H827.236V279.164H823.456V283.34H826.744V279.92ZM831.472 282.704H838.528V276.092H831.472V282.704ZM830.572 275.204H839.476V284.564H838.528V283.604H831.472V284.624H830.572V275.204Z" fill="#76848D"/>
<path d="M598.017 13.056L596.967 12.58C597.485 11.068 598.843 10.074 600.873 10.074C601.839 10.074 602.637 10.298 603.253 10.746C603.869 11.194 604.177 11.796 604.177 12.538C604.177 13.672 603.575 14.512 602.455 14.834C603.533 14.904 604.401 15.716 604.401 17.172C604.401 18.096 604.065 18.824 603.393 19.342C602.721 19.86 601.867 20.126 600.817 20.126C598.675 20.126 597.191 19.104 596.701 17.494L597.835 17.004C598.437 18.278 599.459 18.922 600.901 18.922C602.259 18.922 603.113 18.292 603.113 17.186C603.113 16.108 602.273 15.562 600.593 15.562H599.501V14.4H600.369C601.895 14.4 602.889 13.714 602.889 12.776C602.889 11.81 602.091 11.264 600.817 11.264C599.319 11.264 598.409 12.034 598.017 13.056ZM611.306 11.39H605.37V10.2H612.804V10.998L607.932 20H606.602L611.306 11.39ZM612.94 19.202C612.94 18.81 613.304 18.418 613.808 18.418C614.27 18.418 614.648 18.81 614.648 19.202C614.648 19.65 614.298 20.028 613.808 20.028C613.304 20.028 612.94 19.65 612.94 19.202ZM624.094 14.918C624.094 16.584 623.702 17.872 622.904 18.768C622.106 19.678 621.042 20.126 619.712 20.126C618.088 20.126 616.814 19.44 616.184 18.39L617.192 17.69C617.752 18.474 618.774 18.922 619.88 18.922C620.79 18.922 621.518 18.558 622.092 17.83C622.666 17.116 622.904 16.22 622.834 15.156C622.372 16.22 621.21 17.004 619.656 17.004C618.564 17.004 617.668 16.696 616.968 16.066C616.254 15.45 615.904 14.638 615.904 13.644C615.904 12.552 616.282 11.684 617.038 11.04C617.794 10.396 618.802 10.074 620.048 10.074C622.568 10.074 624.094 11.838 624.094 14.918ZM622.624 13.602C622.414 12.3 621.518 11.278 619.908 11.278C618.228 11.278 617.192 12.146 617.192 13.602C617.192 14.988 618.242 15.8 619.88 15.8C620.622 15.8 621.252 15.576 621.742 15.128C622.232 14.68 622.526 14.176 622.624 13.602ZM627.72 20.21L626.796 19.678L634.034 9.892L634.916 10.536L627.72 20.21ZM625.284 12.552C625.284 11.852 625.522 11.278 626.012 10.83C626.502 10.382 627.104 10.158 627.846 10.158C628.574 10.158 629.176 10.382 629.666 10.83C630.156 11.278 630.394 11.852 630.394 12.552C630.394 13.238 630.156 13.812 629.666 14.26C629.176 14.708 628.574 14.932 627.846 14.932C627.104 14.932 626.502 14.708 626.012 14.26C625.522 13.812 625.284 13.238 625.284 12.552ZM626.46 12.552C626.46 13.35 627.104 13.938 627.846 13.938C628.616 13.938 629.218 13.378 629.218 12.552C629.218 11.726 628.588 11.166 627.846 11.166C627.076 11.166 626.46 11.726 626.46 12.552ZM632.018 19.384C631.528 18.936 631.29 18.362 631.29 17.662C631.29 16.962 631.528 16.388 632.018 15.94C632.508 15.506 633.11 15.282 633.852 15.282C634.58 15.282 635.182 15.506 635.672 15.94C636.162 16.388 636.4 16.962 636.4 17.662C636.4 18.348 636.162 18.922 635.672 19.37C635.182 19.832 634.58 20.056 633.852 20.056C633.11 20.056 632.508 19.832 632.018 19.384ZM632.466 17.662C632.466 18.46 633.11 19.048 633.852 19.048C634.622 19.048 635.224 18.488 635.224 17.662C635.224 16.836 634.594 16.276 633.852 16.276C633.082 16.276 632.466 16.836 632.466 17.662ZM586.81 33.434L585.788 33.07C586.138 31.334 587.454 30.088 589.54 30.088C591.556 30.088 592.788 31.25 592.788 33.028C592.788 33.966 592.382 34.904 591.878 35.576C591.626 35.926 591.304 36.262 590.926 36.612C590.156 37.298 589.61 37.662 588.812 38.166L587.734 38.838H593.152V40H585.522V39.048L587.65 37.634C588.028 37.396 588.294 37.214 588.448 37.102C588.602 37.004 588.854 36.822 589.19 36.584C589.526 36.346 589.778 36.136 589.946 35.982C590.1 35.828 590.31 35.632 590.548 35.38C591.192 34.68 591.43 34.036 591.5 33.154C591.5 31.88 590.674 31.306 589.456 31.306C588.7 31.306 588.098 31.516 587.664 31.936C587.23 32.356 586.936 32.86 586.81 33.434ZM595.69 35.492L594.682 35.226L595.256 30.2H601.416V31.39H596.334L595.97 34.022C596.46 33.658 597.202 33.476 598.196 33.476C599.344 33.476 600.24 33.784 600.898 34.386C601.542 35.002 601.864 35.786 601.864 36.752C601.864 37.718 601.5 38.53 600.786 39.16C600.058 39.804 599.148 40.126 598.07 40.126C596.236 40.126 594.71 39.258 594.08 37.732L595.2 37.256C595.606 38.194 596.656 38.936 598.07 38.936C599.68 38.936 600.576 38.012 600.576 36.794C600.576 35.492 599.526 34.652 597.86 34.652C596.964 34.652 596.236 34.932 595.69 35.492ZM604.495 35.492L603.487 35.226L604.061 30.2H610.221V31.39H605.139L604.775 34.022C605.265 33.658 606.007 33.476 607.001 33.476C608.149 33.476 609.045 33.784 609.703 34.386C610.347 35.002 610.669 35.786 610.669 36.752C610.669 37.718 610.305 38.53 609.591 39.16C608.863 39.804 607.953 40.126 606.875 40.126C605.041 40.126 603.515 39.258 602.885 37.732L604.005 37.256C604.411 38.194 605.461 38.936 606.875 38.936C608.485 38.936 609.381 38.012 609.381 36.794C609.381 35.492 608.331 34.652 606.665 34.652C605.769 34.652 605.041 34.932 604.495 35.492ZM612.81 40C612.292 40.056 611.9 39.762 611.9 39.258C611.9 38.768 612.208 38.46 612.754 38.46C613.37 38.46 613.776 38.88 613.776 39.664C613.776 41.064 613.006 41.778 611.984 42.016L611.69 41.358C611.998 41.274 612.278 41.106 612.53 40.84C612.768 40.574 612.866 40.294 612.81 40ZM614.822 32.804L614.374 31.754L617.734 30.144H618.532V40H617.328V31.642L614.822 32.804ZM621.577 33.434L620.555 33.07C620.905 31.334 622.221 30.088 624.307 30.088C626.323 30.088 627.555 31.25 627.555 33.028C627.555 33.966 627.149 34.904 626.645 35.576C626.393 35.926 626.071 36.262 625.693 36.612C624.923 37.298 624.377 37.662 623.579 38.166L622.501 38.838H627.919V40H620.289V39.048L622.417 37.634C622.795 37.396 623.061 37.214 623.215 37.102C623.369 37.004 623.621 36.822 623.957 36.584C624.293 36.346 624.545 36.136 624.713 35.982C624.867 35.828 625.077 35.632 625.315 35.38C625.959 34.68 626.197 34.036 626.267 33.154C626.267 31.88 625.441 31.306 624.223 31.306C623.467 31.306 622.865 31.516 622.431 31.936C621.997 32.356 621.703 32.86 621.577 33.434ZM630.15 33.434L629.128 33.07C629.478 31.334 630.794 30.088 632.88 30.088C634.896 30.088 636.128 31.25 636.128 33.028C636.128 33.966 635.722 34.904 635.218 35.576C634.966 35.926 634.644 36.262 634.266 36.612C633.496 37.298 632.95 37.662 632.152 38.166L631.074 38.838H636.492V40H628.862V39.048L630.99 37.634C631.368 37.396 631.634 37.214 631.788 37.102C631.942 37.004 632.194 36.822 632.53 36.584C632.866 36.346 633.118 36.136 633.286 35.982C633.44 35.828 633.65 35.632 633.888 35.38C634.532 34.68 634.77 34.036 634.84 33.154C634.84 31.88 634.014 31.306 632.796 31.306C632.04 31.306 631.438 31.516 631.004 31.936C630.57 32.356 630.276 32.86 630.15 33.434Z" fill="#1A3341"/>
<path d="M619.648 52.98V54.384C619.648 54.624 619.648 54.864 619.624 55.116H621.628V52.98H619.648ZM621.628 55.98H619.528C619.348 57.12 618.892 58.272 617.836 59.076C617.716 58.908 617.38 58.572 617.188 58.44C618.088 57.768 618.484 56.88 618.652 55.98H617.008V55.116H618.748C618.772 54.864 618.772 54.624 618.772 54.372V52.98H617.08V52.116H618.772V50.208H619.648V52.116H621.628V50.208H622.504V52.116H624.04V52.98H622.504V55.116H624.28V55.98H622.504V59.016H621.628V55.98ZM616.516 52.14L615.844 52.704C615.472 52.152 614.68 51.288 614.02 50.688L614.656 50.208C615.316 50.784 616.132 51.612 616.516 52.14ZM616.168 54.276V58.584C616.396 58.728 616.648 58.956 617.044 59.196C617.824 59.688 618.82 59.772 620.176 59.772C621.58 59.772 623.368 59.676 624.52 59.544C624.424 59.784 624.28 60.216 624.256 60.468C623.416 60.528 621.292 60.6 620.14 60.6C618.664 60.6 617.668 60.456 616.84 59.94C616.36 59.616 615.964 59.22 615.712 59.22C615.304 59.22 614.716 59.928 614.104 60.744L613.516 59.94C614.152 59.268 614.764 58.728 615.292 58.524V55.116H613.648V54.276H616.168ZM627.472 58.704H634.528V52.092H627.472V58.704ZM626.572 51.204H635.476V60.564H634.528V59.604H627.472V60.624H626.572V51.204Z" fill="#76848D"/>
<path d="M722.613 124.152V127H703.125V124.44L712.373 119.096C714.186 118.051 715.53 117.208 716.405 116.568C717.28 115.907 717.866 115.299 718.165 114.744C718.485 114.189 718.645 113.528 718.645 112.76V112.44C718.645 111.203 718.122 110.253 717.077 109.592C716.053 108.931 714.57 108.6 712.629 108.6C710.624 108.6 709.098 108.952 708.053 109.656C707.029 110.36 706.517 111.384 706.517 112.728V113.368H703.317V112.696C703.317 110.413 704.117 108.664 705.717 107.448C707.317 106.232 709.6 105.624 712.565 105.624C715.466 105.624 717.738 106.221 719.381 107.416C721.024 108.611 721.845 110.253 721.845 112.344V112.664C721.845 113.795 721.621 114.787 721.173 115.64C720.725 116.493 719.946 117.357 718.837 118.232C717.749 119.107 716.149 120.152 714.037 121.368L709.173 124.152H722.613ZM736.881 127.384C734.748 127.384 732.86 127 731.217 126.232C729.596 125.464 728.327 124.387 727.409 123C726.513 121.613 726.065 120.024 726.065 118.232V114.808C726.065 112.995 726.513 111.395 727.409 110.008C728.327 108.621 729.596 107.544 731.217 106.776C732.86 106.008 734.748 105.624 736.881 105.624C738.993 105.624 740.86 106.008 742.481 106.776C744.103 107.544 745.361 108.621 746.257 110.008C747.153 111.395 747.601 112.995 747.601 114.808V118.232C747.601 120.045 747.153 121.645 746.257 123.032C745.361 124.397 744.103 125.464 742.481 126.232C740.86 127 738.993 127.384 736.881 127.384ZM736.881 124.408C739.228 124.408 741.073 123.864 742.417 122.776C743.761 121.688 744.433 120.184 744.433 118.264V114.776C744.433 112.877 743.751 111.373 742.385 110.264C741.041 109.155 739.196 108.6 736.849 108.6C734.481 108.6 732.615 109.155 731.249 110.264C729.905 111.352 729.233 112.856 729.233 114.776V118.264C729.233 120.184 729.905 121.688 731.249 122.776C732.615 123.864 734.492 124.408 736.881 124.408ZM771.006 124.152V127H751.518V124.44L760.766 119.096C762.579 118.051 763.923 117.208 764.798 116.568C765.672 115.907 766.259 115.299 766.558 114.744C766.878 114.189 767.038 113.528 767.038 112.76V112.44C767.038 111.203 766.515 110.253 765.47 109.592C764.446 108.931 762.963 108.6 761.022 108.6C759.016 108.6 757.491 108.952 756.446 109.656C755.422 110.36 754.91 111.384 754.91 112.728V113.368H751.71V112.696C751.71 110.413 752.51 108.664 754.11 107.448C755.71 106.232 757.992 105.624 760.958 105.624C763.859 105.624 766.131 106.221 767.774 107.416C769.416 108.611 770.238 110.253 770.238 112.344V112.664C770.238 113.795 770.014 114.787 769.566 115.64C769.118 116.493 768.339 117.357 767.23 118.232C766.142 119.107 764.542 120.152 762.43 121.368L757.566 124.152H771.006ZM785.978 114.328C788.815 114.413 790.98 114.979 792.474 116.024C793.988 117.048 794.746 118.477 794.746 120.312V120.728C794.746 122.883 793.882 124.536 792.154 125.688C790.426 126.819 787.908 127.384 784.602 127.384C781.38 127.363 778.884 126.797 777.114 125.688C775.364 124.579 774.49 123.011 774.49 120.984V120.76H777.658V120.984C777.658 122.051 778.276 122.893 779.514 123.512C780.751 124.109 782.458 124.408 784.634 124.408C786.916 124.408 788.644 124.109 789.818 123.512C790.991 122.893 791.578 121.987 791.578 120.792V120.408C791.578 118.168 789.295 117.048 784.73 117.048H781.274V114.232L789.178 108.856H774.874V106.008H794.234V108.856L785.978 114.328Z" fill="#1A3341"/>
<path d="M295.602 182.366C295.602 180.672 296.022 179.37 296.848 178.446C297.674 177.536 298.71 177.074 299.956 177.074C301.594 177.074 302.882 177.816 303.428 178.992L302.476 179.636C301.902 178.726 301.048 178.278 299.9 178.278C299.032 178.278 298.304 178.614 297.716 179.286C297.128 179.972 296.834 180.896 296.848 182.086C297.394 181.064 298.668 180.448 300.068 180.448C301.202 180.448 302.112 180.742 302.77 181.344C303.428 181.946 303.764 182.744 303.764 183.724C303.764 184.718 303.4 185.544 302.658 186.174C301.916 186.804 300.992 187.126 299.886 187.126C297.24 187.126 295.602 185.404 295.602 182.366ZM297.002 183.556C297.268 184.942 298.318 185.922 299.872 185.922C300.628 185.922 301.258 185.726 301.748 185.32C302.238 184.928 302.476 184.41 302.476 183.78C302.476 182.394 301.496 181.652 299.998 181.652C299.172 181.652 298.486 181.848 297.954 182.24C297.408 182.632 297.1 183.066 297.002 183.556ZM304.913 182.1C304.913 180.588 305.263 179.37 305.977 178.46C306.677 177.55 307.713 177.088 309.071 177.088C311.857 177.088 313.243 178.922 313.243 182.1C313.243 183.626 312.893 184.83 312.207 185.74C311.507 186.65 310.471 187.112 309.099 187.112C307.783 187.112 306.761 186.65 306.019 185.726C305.277 184.802 304.913 183.598 304.913 182.1ZM306.201 182.1C306.201 184.494 307.293 185.922 309.099 185.922C311.003 185.922 311.955 184.648 311.955 182.1C311.955 179.552 310.989 178.278 309.071 178.278C307.125 178.278 306.201 179.678 306.201 182.1ZM314.526 186.202C314.526 185.81 314.89 185.418 315.394 185.418C315.856 185.418 316.234 185.81 316.234 186.202C316.234 186.65 315.884 187.028 315.394 187.028C314.89 187.028 314.526 186.65 314.526 186.202ZM318.498 180.056L317.448 179.58C317.966 178.068 319.324 177.074 321.354 177.074C322.32 177.074 323.118 177.298 323.734 177.746C324.35 178.194 324.658 178.796 324.658 179.538C324.658 180.672 324.056 181.512 322.936 181.834C324.014 181.904 324.882 182.716 324.882 184.172C324.882 185.096 324.546 185.824 323.874 186.342C323.202 186.86 322.348 187.126 321.298 187.126C319.156 187.126 317.672 186.104 317.182 184.494L318.316 184.004C318.918 185.278 319.94 185.922 321.382 185.922C322.74 185.922 323.594 185.292 323.594 184.186C323.594 183.108 322.754 182.562 321.074 182.562H319.982V181.4H320.85C322.376 181.4 323.37 180.714 323.37 179.776C323.37 178.81 322.572 178.264 321.298 178.264C319.8 178.264 318.89 179.034 318.498 180.056ZM328.608 187.21L327.684 186.678L334.922 176.892L335.804 177.536L328.608 187.21ZM326.172 179.552C326.172 178.852 326.41 178.278 326.9 177.83C327.39 177.382 327.992 177.158 328.734 177.158C329.462 177.158 330.064 177.382 330.554 177.83C331.044 178.278 331.282 178.852 331.282 179.552C331.282 180.238 331.044 180.812 330.554 181.26C330.064 181.708 329.462 181.932 328.734 181.932C327.992 181.932 327.39 181.708 326.9 181.26C326.41 180.812 326.172 180.238 326.172 179.552ZM327.348 179.552C327.348 180.35 327.992 180.938 328.734 180.938C329.504 180.938 330.106 180.378 330.106 179.552C330.106 178.726 329.476 178.166 328.734 178.166C327.964 178.166 327.348 178.726 327.348 179.552ZM332.906 186.384C332.416 185.936 332.178 185.362 332.178 184.662C332.178 183.962 332.416 183.388 332.906 182.94C333.396 182.506 333.998 182.282 334.74 182.282C335.468 182.282 336.07 182.506 336.56 182.94C337.05 183.388 337.288 183.962 337.288 184.662C337.288 185.348 337.05 185.922 336.56 186.37C336.07 186.832 335.468 187.056 334.74 187.056C333.998 187.056 333.396 186.832 332.906 186.384ZM333.354 184.662C333.354 185.46 333.998 186.048 334.74 186.048C335.51 186.048 336.112 185.488 336.112 184.662C336.112 183.836 335.482 183.276 334.74 183.276C333.97 183.276 333.354 183.836 333.354 184.662ZM302.364 207H301.146V204.998H295.154V204.186L301.286 197.2H302.364V203.864H304.184V204.998H302.364V207ZM301.146 199.16L296.834 203.864H301.146V199.16ZM304.896 199.804L304.448 198.754L307.808 197.144H308.606V207H307.402V198.642L304.896 199.804ZM310.532 202.1C310.532 200.588 310.882 199.37 311.596 198.46C312.296 197.55 313.332 197.088 314.69 197.088C317.476 197.088 318.862 198.922 318.862 202.1C318.862 203.626 318.512 204.83 317.826 205.74C317.126 206.65 316.09 207.112 314.718 207.112C313.402 207.112 312.38 206.65 311.638 205.726C310.896 204.802 310.532 203.598 310.532 202.1ZM311.82 202.1C311.82 204.494 312.912 205.922 314.718 205.922C316.622 205.922 317.574 204.648 317.574 202.1C317.574 199.552 316.608 198.278 314.69 198.278C312.744 198.278 311.82 199.678 311.82 202.1ZM320.985 207C320.467 207.056 320.075 206.762 320.075 206.258C320.075 205.768 320.383 205.46 320.929 205.46C321.545 205.46 321.951 205.88 321.951 206.664C321.951 208.064 321.181 208.778 320.159 209.016L319.865 208.358C320.173 208.274 320.453 208.106 320.705 207.84C320.943 207.574 321.041 207.294 320.985 207ZM323.11 202.366C323.11 200.672 323.53 199.37 324.356 198.446C325.182 197.536 326.218 197.074 327.464 197.074C329.102 197.074 330.39 197.816 330.936 198.992L329.984 199.636C329.41 198.726 328.556 198.278 327.408 198.278C326.54 198.278 325.812 198.614 325.224 199.286C324.636 199.972 324.342 200.896 324.356 202.086C324.902 201.064 326.176 200.448 327.576 200.448C328.71 200.448 329.62 200.742 330.278 201.344C330.936 201.946 331.272 202.744 331.272 203.724C331.272 204.718 330.908 205.544 330.166 206.174C329.424 206.804 328.5 207.126 327.394 207.126C324.748 207.126 323.11 205.404 323.11 202.366ZM324.51 203.556C324.776 204.942 325.826 205.922 327.38 205.922C328.136 205.922 328.766 205.726 329.256 205.32C329.746 204.928 329.984 204.41 329.984 203.78C329.984 202.394 329.004 201.652 327.506 201.652C326.68 201.652 325.994 201.848 325.462 202.24C324.916 202.632 324.608 203.066 324.51 203.556ZM333.386 200.056L332.336 199.58C332.854 198.068 334.212 197.074 336.242 197.074C337.208 197.074 338.006 197.298 338.622 197.746C339.238 198.194 339.546 198.796 339.546 199.538C339.546 200.672 338.944 201.512 337.824 201.834C338.902 201.904 339.77 202.716 339.77 204.172C339.77 205.096 339.434 205.824 338.762 206.342C338.09 206.86 337.236 207.126 336.186 207.126C334.044 207.126 332.56 206.104 332.07 204.494L333.204 204.004C333.806 205.278 334.828 205.922 336.27 205.922C337.628 205.922 338.482 205.292 338.482 204.186C338.482 203.108 337.642 202.562 335.962 202.562H334.87V201.4H335.738C337.264 201.4 338.258 200.714 338.258 199.776C338.258 198.81 337.46 198.264 336.186 198.264C334.688 198.264 333.778 199.034 333.386 200.056ZM344.925 201.414H345.359C345.989 201.414 346.507 201.26 346.941 200.966C347.361 200.672 347.571 200.28 347.571 199.818C347.571 198.768 346.745 198.236 345.107 198.236C343.539 198.236 342.685 198.81 342.685 199.818C342.685 200.728 343.623 201.414 344.925 201.414ZM345.331 202.52H344.981C344.225 202.52 343.595 202.688 343.105 203.01C342.615 203.332 342.363 203.738 342.363 204.228C342.363 205.292 343.343 205.964 345.121 205.964C346.927 205.964 347.893 205.32 347.893 204.242C347.893 203.164 346.857 202.52 345.331 202.52ZM348.089 206.37C347.375 206.874 346.381 207.126 345.135 207.126C343.889 207.126 342.895 206.874 342.167 206.384C341.439 205.894 341.075 205.222 341.075 204.354C341.075 203.22 341.817 202.324 343.007 201.932C341.929 201.582 341.397 200.728 341.397 199.734C341.397 198.11 342.769 197.074 345.121 197.074C347.487 197.074 348.859 198.11 348.859 199.734C348.859 200.672 348.341 201.386 347.305 201.862C348.551 202.24 349.167 203.052 349.167 204.298C349.167 205.18 348.803 205.88 348.089 206.37Z" fill="#1A3341"/>
<path d="M295.948 217.712L296.644 217.244C296.868 217.444 297.096 217.664 297.328 217.904C297.56 218.144 297.776 218.38 297.976 218.612C298.184 218.844 298.352 219.056 298.48 219.248L297.724 219.776C297.62 219.584 297.468 219.368 297.268 219.128C297.068 218.888 296.852 218.644 296.62 218.396C296.396 218.148 296.172 217.92 295.948 217.712ZM298.144 221.42V225.788H297.256V222.26H295.6V221.42H298.144ZM297.688 225.308C297.824 225.308 297.952 225.344 298.072 225.416C298.192 225.488 298.328 225.584 298.48 225.704C298.632 225.816 298.816 225.944 299.032 226.088C299.424 226.328 299.88 226.484 300.4 226.556C300.92 226.628 301.516 226.664 302.188 226.664C302.54 226.664 302.908 226.66 303.292 226.652C303.684 226.636 304.076 226.62 304.468 226.604C304.86 226.58 305.236 226.556 305.596 226.532C305.956 226.5 306.28 226.468 306.568 226.436C306.528 226.516 306.488 226.616 306.448 226.736C306.408 226.856 306.372 226.976 306.34 227.096C306.316 227.216 306.3 227.32 306.292 227.408C306.076 227.424 305.796 227.436 305.452 227.444C305.116 227.46 304.744 227.472 304.336 227.48C303.936 227.488 303.544 227.496 303.16 227.504C302.784 227.512 302.452 227.516 302.164 227.516C301.42 227.516 300.784 227.472 300.256 227.384C299.728 227.304 299.252 227.132 298.828 226.868C298.58 226.708 298.356 226.548 298.156 226.388C297.964 226.228 297.8 226.148 297.664 226.148C297.536 226.148 297.384 226.22 297.208 226.364C297.04 226.5 296.86 226.684 296.668 226.916C296.476 227.148 296.276 227.404 296.068 227.684L295.444 226.832C295.86 226.384 296.26 226.02 296.644 225.74C297.036 225.452 297.384 225.308 297.688 225.308ZM298.984 219.08H306.22V219.932H298.984V219.08ZM303.64 216.956H304.552V224.696C304.552 225 304.508 225.228 304.42 225.38C304.332 225.532 304.18 225.644 303.964 225.716C303.756 225.788 303.464 225.836 303.088 225.86C302.712 225.876 302.244 225.884 301.684 225.884C301.668 225.748 301.624 225.592 301.552 225.416C301.488 225.24 301.424 225.088 301.36 224.96C301.656 224.968 301.936 224.976 302.2 224.984C302.472 224.992 302.704 224.996 302.896 224.996C303.096 224.988 303.236 224.984 303.316 224.984C303.436 224.976 303.52 224.952 303.568 224.912C303.616 224.872 303.64 224.8 303.64 224.696V216.956ZM299.572 221.276L300.292 220.88C300.5 221.12 300.712 221.384 300.928 221.672C301.152 221.96 301.36 222.24 301.552 222.512C301.744 222.784 301.896 223.028 302.008 223.244L301.252 223.7C301.14 223.492 300.992 223.248 300.808 222.968C300.624 222.68 300.42 222.388 300.196 222.092C299.98 221.796 299.772 221.524 299.572 221.276ZM311.764 217.796H317.8V218.552H311.764V217.796ZM311.404 219.992H318.124V220.76H311.404V219.992ZM312.724 218.84L313.468 218.672C313.548 218.856 313.632 219.064 313.72 219.296C313.808 219.52 313.868 219.712 313.9 219.872L313.12 220.076C313.096 219.916 313.044 219.72 312.964 219.488C312.884 219.248 312.804 219.032 312.724 218.84ZM315.976 218.696L316.804 218.9C316.692 219.148 316.572 219.4 316.444 219.656C316.324 219.912 316.208 220.136 316.096 220.328L315.4 220.136C315.504 219.936 315.608 219.7 315.712 219.428C315.824 219.148 315.912 218.904 315.976 218.696ZM312.82 223.4V224.192H316.612V223.4H312.82ZM312.82 222.02V222.8H316.612V222.02H312.82ZM311.98 221.384H317.476V224.828H311.98V221.384ZM313.252 224.612H314.104C314.064 225.076 313.988 225.492 313.876 225.86C313.772 226.22 313.608 226.536 313.384 226.808C313.16 227.08 312.86 227.312 312.484 227.504C312.108 227.696 311.632 227.86 311.056 227.996C311.032 227.924 310.992 227.844 310.936 227.756C310.888 227.668 310.832 227.58 310.768 227.492C310.712 227.412 310.652 227.348 310.588 227.3C311.1 227.196 311.52 227.068 311.848 226.916C312.184 226.764 312.448 226.584 312.64 226.376C312.832 226.16 312.972 225.908 313.06 225.62C313.156 225.332 313.22 224.996 313.252 224.612ZM315.172 224.624H316.024V226.688C316.024 226.888 316.056 227.004 316.12 227.036C316.184 227.068 316.296 227.084 316.456 227.084C316.52 227.084 316.608 227.084 316.72 227.084C316.84 227.084 316.944 227.084 317.032 227.084C317.112 227.084 317.188 227.08 317.26 227.072C317.34 227.072 317.4 227.064 317.44 227.048C317.544 227.016 317.616 226.928 317.656 226.784C317.672 226.696 317.684 226.568 317.692 226.4C317.7 226.224 317.708 226.012 317.716 225.764C317.796 225.844 317.904 225.92 318.04 225.992C318.184 226.056 318.316 226.104 318.436 226.136C318.42 226.384 318.4 226.62 318.376 226.844C318.36 227.06 318.328 227.216 318.28 227.312C318.192 227.512 318.044 227.644 317.836 227.708C317.756 227.74 317.644 227.76 317.5 227.768C317.356 227.784 317.224 227.792 317.104 227.792C317.04 227.792 316.952 227.792 316.84 227.792C316.736 227.792 316.632 227.792 316.528 227.792C316.424 227.792 316.344 227.792 316.288 227.792C316.152 227.792 316.004 227.776 315.844 227.744C315.692 227.712 315.564 227.66 315.46 227.588C315.356 227.516 315.28 227.412 315.232 227.276C315.192 227.148 315.172 226.924 315.172 226.604V224.624ZM314.044 217.004L314.884 216.848C314.98 217.024 315.072 217.224 315.16 217.448C315.256 217.664 315.328 217.852 315.376 218.012L314.5 218.228C314.452 218.068 314.384 217.872 314.296 217.64C314.216 217.408 314.132 217.196 314.044 217.004ZM307.6 219.848H310.96V220.7H307.6V219.848ZM308.92 217.064H309.796V225.104H308.92V217.064ZM307.408 225.452C307.72 225.356 308.072 225.236 308.464 225.092C308.864 224.948 309.284 224.796 309.724 224.636C310.172 224.468 310.616 224.304 311.056 224.144L311.236 224.96C310.628 225.208 310.012 225.456 309.388 225.704C308.772 225.944 308.212 226.164 307.708 226.364L307.408 225.452Z" fill="#76848D"/>
<path d="M11.4021 151.804L10.9541 150.754L14.3141 149.144H15.1121V159H13.9081V150.642L11.4021 151.804ZM18.4655 154.492L17.4575 154.226L18.0315 149.2H24.1915V150.39H19.1095L18.7455 153.022C19.2355 152.658 19.9775 152.476 20.9715 152.476C22.1195 152.476 23.0155 152.784 23.6735 153.386C24.3175 154.002 24.6395 154.786 24.6395 155.752C24.6395 156.718 24.2755 157.53 23.5615 158.16C22.8335 158.804 21.9235 159.126 20.8455 159.126C19.0115 159.126 17.4855 158.258 16.8555 156.732L17.9755 156.256C18.3815 157.194 19.4315 157.936 20.8455 157.936C22.4555 157.936 23.3515 157.012 23.3515 155.794C23.3515 154.492 22.3015 153.652 20.6355 153.652C19.7395 153.652 19.0115 153.932 18.4655 154.492ZM25.9402 158.202C25.9402 157.81 26.3042 157.418 26.8082 157.418C27.2702 157.418 27.6482 157.81 27.6482 158.202C27.6482 158.65 27.2982 159.028 26.8082 159.028C26.3042 159.028 25.9402 158.65 25.9402 158.202ZM32.8098 153.414H33.2438C33.8738 153.414 34.3918 153.26 34.8258 152.966C35.2458 152.672 35.4558 152.28 35.4558 151.818C35.4558 150.768 34.6298 150.236 32.9918 150.236C31.4238 150.236 30.5698 150.81 30.5698 151.818C30.5698 152.728 31.5078 153.414 32.8098 153.414ZM33.2158 154.52H32.8658C32.1098 154.52 31.4798 154.688 30.9898 155.01C30.4998 155.332 30.2478 155.738 30.2478 156.228C30.2478 157.292 31.2278 157.964 33.0058 157.964C34.8118 157.964 35.7778 157.32 35.7778 156.242C35.7778 155.164 34.7418 154.52 33.2158 154.52ZM35.9738 158.37C35.2598 158.874 34.2658 159.126 33.0198 159.126C31.7738 159.126 30.7798 158.874 30.0518 158.384C29.3238 157.894 28.9598 157.222 28.9598 156.354C28.9598 155.22 29.7018 154.324 30.8918 153.932C29.8138 153.582 29.2818 152.728 29.2818 151.734C29.2818 150.11 30.6538 149.074 33.0058 149.074C35.3718 149.074 36.7438 150.11 36.7438 151.734C36.7438 152.672 36.2258 153.386 35.1898 153.862C36.4358 154.24 37.0518 155.052 37.0518 156.298C37.0518 157.18 36.6878 157.88 35.9738 158.37ZM40.7196 159.21L39.7956 158.678L47.0336 148.892L47.9156 149.536L40.7196 159.21ZM38.2836 151.552C38.2836 150.852 38.5216 150.278 39.0116 149.83C39.5016 149.382 40.1036 149.158 40.8456 149.158C41.5736 149.158 42.1756 149.382 42.6656 149.83C43.1556 150.278 43.3936 150.852 43.3936 151.552C43.3936 152.238 43.1556 152.812 42.6656 153.26C42.1756 153.708 41.5736 153.932 40.8456 153.932C40.1036 153.932 39.5016 153.708 39.0116 153.26C38.5216 152.812 38.2836 152.238 38.2836 151.552ZM39.4596 151.552C39.4596 152.35 40.1036 152.938 40.8456 152.938C41.6156 152.938 42.2176 152.378 42.2176 151.552C42.2176 150.726 41.5876 150.166 40.8456 150.166C40.0756 150.166 39.4596 150.726 39.4596 151.552ZM45.0176 158.384C44.5276 157.936 44.2896 157.362 44.2896 156.662C44.2896 155.962 44.5276 155.388 45.0176 154.94C45.5076 154.506 46.1096 154.282 46.8516 154.282C47.5796 154.282 48.1816 154.506 48.6716 154.94C49.1616 155.388 49.3996 155.962 49.3996 156.662C49.3996 157.348 49.1616 157.922 48.6716 158.37C48.1816 158.832 47.5796 159.056 46.8516 159.056C46.1096 159.056 45.5076 158.832 45.0176 158.384ZM45.4656 156.662C45.4656 157.46 46.1096 158.048 46.8516 158.048C47.6216 158.048 48.2236 157.488 48.2236 156.662C48.2236 155.836 47.5936 155.276 46.8516 155.276C46.0816 155.276 45.4656 155.836 45.4656 156.662ZM0.861094 171.804L0.413094 170.754L3.77309 169.144H4.57109V179H3.36709V170.642L0.861094 171.804ZM6.49653 174.1C6.49653 172.588 6.84653 171.37 7.56053 170.46C8.26053 169.55 9.29653 169.088 10.6545 169.088C13.4405 169.088 14.8265 170.922 14.8265 174.1C14.8265 175.626 14.4765 176.83 13.7905 177.74C13.0905 178.65 12.0545 179.112 10.6825 179.112C9.36653 179.112 8.34453 178.65 7.60253 177.726C6.86053 176.802 6.49653 175.598 6.49653 174.1ZM7.78453 174.1C7.78453 176.494 8.87653 177.922 10.6825 177.922C12.5865 177.922 13.5385 176.648 13.5385 174.1C13.5385 171.552 12.5725 170.278 10.6545 170.278C8.70853 170.278 7.78453 171.678 7.78453 174.1ZM21.6262 170.39H15.6902V169.2H23.1242V169.998L18.2522 179H16.9222L21.6262 170.39ZM24.1005 179C23.5825 179.056 23.1905 178.762 23.1905 178.258C23.1905 177.768 23.4985 177.46 24.0445 177.46C24.6605 177.46 25.0665 177.88 25.0665 178.664C25.0665 180.064 24.2965 180.778 23.2745 181.016L22.9805 180.358C23.2885 180.274 23.5685 180.106 23.8205 179.84C24.0585 179.574 24.1565 179.294 24.1005 179ZM34.373 173.918C34.373 175.584 33.981 176.872 33.183 177.768C32.385 178.678 31.321 179.126 29.991 179.126C28.367 179.126 27.093 178.44 26.463 177.39L27.471 176.69C28.031 177.474 29.053 177.922 30.159 177.922C31.069 177.922 31.797 177.558 32.371 176.83C32.945 176.116 33.183 175.22 33.113 174.156C32.651 175.22 31.489 176.004 29.935 176.004C28.843 176.004 27.947 175.696 27.247 175.066C26.533 174.45 26.183 173.638 26.183 172.644C26.183 171.552 26.561 170.684 27.317 170.04C28.073 169.396 29.081 169.074 30.327 169.074C32.847 169.074 34.373 170.838 34.373 173.918ZM32.903 172.602C32.693 171.3 31.797 170.278 30.187 170.278C28.507 170.278 27.471 171.146 27.471 172.602C27.471 173.988 28.521 174.8 30.159 174.8C30.901 174.8 31.531 174.576 32.021 174.128C32.511 173.68 32.805 173.176 32.903 172.602ZM35.5629 174.1C35.5629 172.588 35.9129 171.37 36.6269 170.46C37.3269 169.55 38.3629 169.088 39.7209 169.088C42.5069 169.088 43.8929 170.922 43.8929 174.1C43.8929 175.626 43.5429 176.83 42.8569 177.74C42.1569 178.65 41.1209 179.112 39.7489 179.112C38.4329 179.112 37.4109 178.65 36.6689 177.726C35.9269 176.802 35.5629 175.598 35.5629 174.1ZM36.8509 174.1C36.8509 176.494 37.9429 177.922 39.7489 177.922C41.6529 177.922 42.6049 176.648 42.6049 174.1C42.6049 171.552 41.6389 170.278 39.7209 170.278C37.7749 170.278 36.8509 171.678 36.8509 174.1ZM44.9666 171.804L44.5186 170.754L47.8786 169.144H48.6766V179H47.4726V170.642L44.9666 171.804Z" fill="#1A3341"/>
<path d="M35.744 194.92H36.704V199.9H35.744V199.216H27.296V194.92H28.256V198.34H31.496V194.164H27.824V190.06H28.748V193.288H31.496V188.968H32.456V193.288H35.276V190.048H36.236V194.164H32.456V198.34H35.744V194.92ZM40.472 197.704H47.528V191.092H40.472V197.704ZM39.572 190.204H48.476V199.564H47.528V198.604H40.472V199.624H39.572V190.204Z" fill="#76848D"/>
<path d="M22.7493 10.434L21.7273 10.07C22.0773 8.334 23.3933 7.088 25.4793 7.088C27.4953 7.088 28.7273 8.25 28.7273 10.028C28.7273 10.966 28.3213 11.904 27.8173 12.576C27.5653 12.926 27.2433 13.262 26.8653 13.612C26.0953 14.298 25.5493 14.662 24.7513 15.166L23.6733 15.838H29.0913V17H21.4613V16.048L23.5893 14.634C23.9673 14.396 24.2333 14.214 24.3873 14.102C24.5413 14.004 24.7933 13.822 25.1293 13.584C25.4653 13.346 25.7173 13.136 25.8853 12.982C26.0393 12.828 26.2493 12.632 26.4873 12.38C27.1313 11.68 27.3693 11.036 27.4393 10.154C27.4393 8.88 26.6133 8.306 25.3953 8.306C24.6393 8.306 24.0373 8.516 23.6033 8.936C23.1693 9.356 22.8753 9.86 22.7493 10.434ZM31.1676 10.056L30.1176 9.58C30.6356 8.068 31.9936 7.074 34.0236 7.074C34.9896 7.074 35.7876 7.298 36.4036 7.746C37.0196 8.194 37.3276 8.796 37.3276 9.538C37.3276 10.672 36.7256 11.512 35.6056 11.834C36.6836 11.904 37.5516 12.716 37.5516 14.172C37.5516 15.096 37.2156 15.824 36.5436 16.342C35.8716 16.86 35.0176 17.126 33.9676 17.126C31.8256 17.126 30.3416 16.104 29.8516 14.494L30.9856 14.004C31.5876 15.278 32.6096 15.922 34.0516 15.922C35.4096 15.922 36.2636 15.292 36.2636 14.186C36.2636 13.108 35.4236 12.562 33.7436 12.562H32.6516V11.4H33.5196C35.0456 11.4 36.0396 10.714 36.0396 9.776C36.0396 8.81 35.2416 8.264 33.9676 8.264C32.4696 8.264 31.5596 9.034 31.1676 10.056ZM38.9402 16.202C38.9402 15.81 39.3042 15.418 39.8082 15.418C40.2702 15.418 40.6482 15.81 40.6482 16.202C40.6482 16.65 40.2982 17.028 39.8082 17.028C39.3042 17.028 38.9402 16.65 38.9402 16.202ZM50.0938 11.918C50.0938 13.584 49.7018 14.872 48.9038 15.768C48.1058 16.678 47.0418 17.126 45.7118 17.126C44.0878 17.126 42.8138 16.44 42.1838 15.39L43.1917 14.69C43.7518 15.474 44.7738 15.922 45.8798 15.922C46.7898 15.922 47.5178 15.558 48.0918 14.83C48.6658 14.116 48.9038 13.22 48.8338 12.156C48.3718 13.22 47.2098 14.004 45.6558 14.004C44.5638 14.004 43.6678 13.696 42.9678 13.066C42.2538 12.45 41.9038 11.638 41.9038 10.644C41.9038 9.552 42.2818 8.684 43.0378 8.04C43.7938 7.396 44.8018 7.074 46.0478 7.074C48.5678 7.074 50.0938 8.838 50.0938 11.918ZM48.6238 10.602C48.4137 9.3 47.5178 8.278 45.9078 8.278C44.2278 8.278 43.1917 9.146 43.1917 10.602C43.1917 11.988 44.2418 12.8 45.8798 12.8C46.6218 12.8 47.2518 12.576 47.7418 12.128C48.2318 11.68 48.5258 11.176 48.6238 10.602ZM53.7196 17.21L52.7956 16.678L60.0336 6.892L60.9156 7.536L53.7196 17.21ZM51.2836 9.552C51.2836 8.852 51.5216 8.278 52.0116 7.83C52.5016 7.382 53.1036 7.158 53.8456 7.158C54.5736 7.158 55.1756 7.382 55.6656 7.83C56.1556 8.278 56.3936 8.852 56.3936 9.552C56.3936 10.238 56.1556 10.812 55.6656 11.26C55.1756 11.708 54.5736 11.932 53.8456 11.932C53.1036 11.932 52.5016 11.708 52.0116 11.26C51.5216 10.812 51.2836 10.238 51.2836 9.552ZM52.4596 9.552C52.4596 10.35 53.1036 10.938 53.8456 10.938C54.6156 10.938 55.2176 10.378 55.2176 9.552C55.2176 8.726 54.5876 8.166 53.8456 8.166C53.0756 8.166 52.4596 8.726 52.4596 9.552ZM58.0176 16.384C57.5276 15.936 57.2896 15.362 57.2896 14.662C57.2896 13.962 57.5276 13.388 58.0176 12.94C58.5076 12.506 59.1096 12.282 59.8516 12.282C60.5796 12.282 61.1816 12.506 61.6716 12.94C62.1616 13.388 62.3996 13.962 62.3996 14.662C62.3996 15.348 62.1616 15.922 61.6716 16.37C61.1816 16.832 60.5796 17.056 59.8516 17.056C59.1096 17.056 58.5076 16.832 58.0176 16.384ZM58.4656 14.662C58.4656 15.46 59.1096 16.048 59.8516 16.048C60.6216 16.048 61.2236 15.488 61.2236 14.662C61.2236 13.836 60.5936 13.276 59.8516 13.276C59.0816 13.276 58.4656 13.836 58.4656 14.662ZM9.56813 29.804L9.12013 28.754L12.4801 27.144H13.2781V37H12.0741V28.642L9.56813 29.804ZM15.2036 32.366C15.2036 30.672 15.6236 29.37 16.4496 28.446C17.2756 27.536 18.3116 27.074 19.5576 27.074C21.1956 27.074 22.4836 27.816 23.0296 28.992L22.0776 29.636C21.5036 28.726 20.6496 28.278 19.5016 28.278C18.6336 28.278 17.9056 28.614 17.3176 29.286C16.7296 29.972 16.4356 30.896 16.4496 32.086C16.9956 31.064 18.2696 30.448 19.6696 30.448C20.8036 30.448 21.7136 30.742 22.3716 31.344C23.0296 31.946 23.3656 32.744 23.3656 33.724C23.3656 34.718 23.0016 35.544 22.2596 36.174C21.5176 36.804 20.5936 37.126 19.4876 37.126C16.8416 37.126 15.2036 35.404 15.2036 32.366ZM16.6036 33.556C16.8696 34.942 17.9196 35.922 19.4736 35.922C20.2296 35.922 20.8596 35.726 21.3496 35.32C21.8396 34.928 22.0776 34.41 22.0776 33.78C22.0776 32.394 21.0976 31.652 19.5996 31.652C18.7736 31.652 18.0876 31.848 17.5556 32.24C17.0096 32.632 16.7016 33.066 16.6036 33.556ZM25.6341 30.434L24.6121 30.07C24.9621 28.334 26.2781 27.088 28.3641 27.088C30.3801 27.088 31.6121 28.25 31.6121 30.028C31.6121 30.966 31.2061 31.904 30.7021 32.576C30.4501 32.926 30.1281 33.262 29.7501 33.612C28.9801 34.298 28.4341 34.662 27.6361 35.166L26.5581 35.838H31.9761V37H24.3461V36.048L26.4741 34.634C26.8521 34.396 27.1181 34.214 27.2721 34.102C27.4261 34.004 27.6781 33.822 28.0141 33.584C28.3501 33.346 28.6021 33.136 28.7701 32.982C28.9241 32.828 29.1341 32.632 29.3721 32.38C30.0161 31.68 30.2541 31.036 30.3241 30.154C30.3241 28.88 29.4981 28.306 28.2801 28.306C27.5241 28.306 26.9221 28.516 26.4881 28.936C26.0541 29.356 25.7601 29.86 25.6341 30.434ZM34.0244 37C33.5064 37.056 33.1144 36.762 33.1144 36.258C33.1144 35.768 33.4224 35.46 33.9684 35.46C34.5844 35.46 34.9904 35.88 34.9904 36.664C34.9904 38.064 34.2204 38.778 33.1984 39.016L32.9044 38.358C33.2124 38.274 33.4924 38.106 33.7444 37.84C33.9824 37.574 34.0804 37.294 34.0244 37ZM36.1489 32.366C36.1489 30.672 36.5689 29.37 37.3949 28.446C38.2209 27.536 39.2569 27.074 40.5029 27.074C42.1409 27.074 43.4289 27.816 43.9749 28.992L43.0229 29.636C42.4489 28.726 41.5949 28.278 40.4469 28.278C39.5789 28.278 38.8509 28.614 38.2629 29.286C37.6749 29.972 37.3809 30.896 37.3949 32.086C37.9409 31.064 39.2149 30.448 40.6149 30.448C41.7489 30.448 42.6589 30.742 43.3169 31.344C43.9749 31.946 44.3109 32.744 44.3109 33.724C44.3109 34.718 43.9469 35.544 43.2049 36.174C42.4629 36.804 41.5389 37.126 40.4329 37.126C37.7869 37.126 36.1489 35.404 36.1489 32.366ZM37.5489 33.556C37.8149 34.942 38.8649 35.922 40.4189 35.922C41.1749 35.922 41.8049 35.726 42.2949 35.32C42.7849 34.928 43.0229 34.41 43.0229 33.78C43.0229 32.394 42.0429 31.652 40.5449 31.652C39.7189 31.652 39.0329 31.848 38.5009 32.24C37.9549 32.632 37.6469 33.066 37.5489 33.556ZM46.8874 32.492L45.8794 32.226L46.4534 27.2H52.6134V28.39H47.5314L47.1674 31.022C47.6574 30.658 48.3994 30.476 49.3934 30.476C50.5414 30.476 51.4374 30.784 52.0954 31.386C52.7394 32.002 53.0614 32.786 53.0614 33.752C53.0614 34.718 52.6974 35.53 51.9834 36.16C51.2554 36.804 50.3454 37.126 49.2674 37.126C47.4334 37.126 45.9074 36.258 45.2774 34.732L46.3974 34.256C46.8034 35.194 47.8534 35.936 49.2674 35.936C50.8774 35.936 51.7734 35.012 51.7734 33.794C51.7734 32.492 50.7234 31.652 49.0574 31.652C48.1614 31.652 47.4334 31.932 46.8874 32.492ZM58.1281 31.414H58.5621C59.1921 31.414 59.7101 31.26 60.1441 30.966C60.5641 30.672 60.7741 30.28 60.7741 29.818C60.7741 28.768 59.9481 28.236 58.3101 28.236C56.7421 28.236 55.8881 28.81 55.8881 29.818C55.8881 30.728 56.8261 31.414 58.1281 31.414ZM58.5341 32.52H58.1841C57.4281 32.52 56.7981 32.688 56.3081 33.01C55.8181 33.332 55.5661 33.738 55.5661 34.228C55.5661 35.292 56.5461 35.964 58.3241 35.964C60.1301 35.964 61.0961 35.32 61.0961 34.242C61.0961 33.164 60.0601 32.52 58.5341 32.52ZM61.2921 36.37C60.5781 36.874 59.5841 37.126 58.3381 37.126C57.0921 37.126 56.0981 36.874 55.3701 36.384C54.6421 35.894 54.2781 35.222 54.2781 34.354C54.2781 33.22 55.0201 32.324 56.2101 31.932C55.1321 31.582 54.6001 30.728 54.6001 29.734C54.6001 28.11 55.9721 27.074 58.3241 27.074C60.6901 27.074 62.0621 28.11 62.0621 29.734C62.0621 30.672 61.5441 31.386 60.5081 31.862C61.7541 32.24 62.3701 33.052 62.3701 34.298C62.3701 35.18 62.0061 35.88 61.2921 36.37Z" fill="#1A3341"/>
<path d="M45.648 49.98V51.384C45.648 51.624 45.648 51.864 45.624 52.116H47.628V49.98H45.648ZM47.628 52.98H45.528C45.348 54.12 44.892 55.272 43.836 56.076C43.716 55.908 43.38 55.572 43.188 55.44C44.088 54.768 44.484 53.88 44.652 52.98H43.008V52.116H44.748C44.772 51.864 44.772 51.624 44.772 51.372V49.98H43.08V49.116H44.772V47.208H45.648V49.116H47.628V47.208H48.504V49.116H50.04V49.98H48.504V52.116H50.28V52.98H48.504V56.016H47.628V52.98ZM42.516 49.14L41.844 49.704C41.472 49.152 40.68 48.288 40.02 47.688L40.656 47.208C41.316 47.784 42.132 48.612 42.516 49.14ZM42.168 51.276V55.584C42.396 55.728 42.648 55.956 43.044 56.196C43.824 56.688 44.82 56.772 46.176 56.772C47.58 56.772 49.368 56.676 50.52 56.544C50.424 56.784 50.28 57.216 50.256 57.468C49.416 57.528 47.292 57.6 46.14 57.6C44.664 57.6 43.668 57.456 42.84 56.94C42.36 56.616 41.964 56.22 41.712 56.22C41.304 56.22 40.716 56.928 40.104 57.744L39.516 56.94C40.152 56.268 40.764 55.728 41.292 55.524V52.116H39.648V51.276H42.168ZM53.472 55.704H60.528V49.092H53.472V55.704ZM52.572 48.204H61.476V57.564H60.528V56.604H53.472V57.624H52.572V48.204Z" fill="#76848D"/>
<path d="M152.175 124.152V127H132.687V124.44L141.935 119.096C143.749 118.051 145.093 117.208 145.967 116.568C146.842 115.907 147.429 115.299 147.727 114.744C148.047 114.189 148.207 113.528 148.207 112.76V112.44C148.207 111.203 147.685 110.253 146.639 109.592C145.615 108.931 144.133 108.6 142.191 108.6C140.186 108.6 138.661 108.952 137.615 109.656C136.591 110.36 136.079 111.384 136.079 112.728V113.368H132.879V112.696C132.879 110.413 133.679 108.664 135.279 107.448C136.879 106.232 139.162 105.624 142.127 105.624C145.029 105.624 147.301 106.221 148.943 107.416C150.586 108.611 151.407 110.253 151.407 112.344V112.664C151.407 113.795 151.183 114.787 150.736 115.64C150.287 116.493 149.509 117.357 148.399 118.232C147.311 119.107 145.711 120.152 143.599 121.368L138.735 124.152H152.175ZM166.444 127.384C164.31 127.384 162.422 127 160.78 126.232C159.158 125.464 157.889 124.387 156.972 123C156.076 121.613 155.628 120.024 155.628 118.232V114.808C155.628 112.995 156.076 111.395 156.972 110.008C157.889 108.621 159.158 107.544 160.78 106.776C162.422 106.008 164.31 105.624 166.444 105.624C168.556 105.624 170.422 106.008 172.044 106.776C173.665 107.544 174.924 108.621 175.82 110.008C176.716 111.395 177.164 112.995 177.164 114.808V118.232C177.164 120.045 176.716 121.645 175.82 123.032C174.924 124.397 173.665 125.464 172.044 126.232C170.422 127 168.556 127.384 166.444 127.384ZM166.444 124.408C168.79 124.408 170.636 123.864 171.98 122.776C173.324 121.688 173.996 120.184 173.996 118.264V114.776C173.996 112.877 173.313 111.373 171.948 110.264C170.604 109.155 168.758 108.6 166.412 108.6C164.044 108.6 162.177 109.155 160.812 110.264C159.468 111.352 158.796 112.856 158.796 114.776V118.264C158.796 120.184 159.468 121.688 160.812 122.776C162.177 123.864 164.054 124.408 166.444 124.408ZM200.568 124.152V127H181.08V124.44L190.328 119.096C192.141 118.051 193.485 117.208 194.36 116.568C195.235 115.907 195.821 115.299 196.12 114.744C196.44 114.189 196.6 113.528 196.6 112.76V112.44C196.6 111.203 196.077 110.253 195.032 109.592C194.008 108.931 192.525 108.6 190.584 108.6C188.579 108.6 187.053 108.952 186.008 109.656C184.984 110.36 184.472 111.384 184.472 112.728V113.368H181.272V112.696C181.272 110.413 182.072 108.664 183.672 107.448C185.272 106.232 187.555 105.624 190.52 105.624C193.421 105.624 195.693 106.221 197.336 107.416C198.979 108.611 199.8 110.253 199.8 112.344V112.664C199.8 113.795 199.576 114.787 199.128 115.64C198.68 116.493 197.901 117.357 196.792 118.232C195.704 119.107 194.104 120.152 191.992 121.368L187.128 124.152H200.568ZM223.764 124.152V127H204.276V124.44L213.524 119.096C215.338 118.051 216.682 117.208 217.556 116.568C218.431 115.907 219.018 115.299 219.316 114.744C219.636 114.189 219.796 113.528 219.796 112.76V112.44C219.796 111.203 219.274 110.253 218.228 109.592C217.204 108.931 215.722 108.6 213.78 108.6C211.775 108.6 210.25 108.952 209.204 109.656C208.18 110.36 207.668 111.384 207.668 112.728V113.368H204.468V112.696C204.468 110.413 205.268 108.664 206.868 107.448C208.468 106.232 210.751 105.624 213.716 105.624C216.618 105.624 218.89 106.221 220.532 107.416C222.175 108.611 222.996 110.253 222.996 112.344V112.664C222.996 113.795 222.772 114.787 222.324 115.64C221.876 116.493 221.098 117.357 219.988 118.232C218.9 119.107 217.3 120.152 215.188 121.368L210.324 124.152H223.764Z" fill="#76848D"/>
<path d="M179 0C197.24 2.17507e-07 215.218 4.33859 231.45 12.6576C247.682 20.9765 261.703 33.0372 272.354 47.8439C283.006 62.6505 289.983 79.7784 292.708 97.8134C295.434 115.848 293.831 134.273 288.032 151.566C282.232 168.859 272.402 184.525 259.354 197.27C246.305 210.014 230.412 219.472 212.987 224.863C195.562 230.254 177.105 231.422 159.139 228.272C141.173 225.122 124.215 217.744 109.663 206.746L117.983 195.737C130.789 205.414 145.713 211.907 161.522 214.679C177.332 217.451 193.575 216.423 208.909 211.679C224.243 206.936 238.229 198.613 249.711 187.397C261.194 176.182 269.844 162.396 274.948 147.178C280.052 131.96 281.462 115.747 279.063 99.8758C276.665 84.005 270.525 68.9325 261.152 55.9026C251.779 42.8728 239.441 32.2593 225.156 24.9386C210.872 17.618 195.051 13.8 179 13.8V0Z" fill="url(#paint3_linear_164_8751)"/>
<path d="M109.651 206.737C94.3937 195.203 82.2542 180.047 74.3313 162.639C66.4084 145.231 62.9522 126.122 64.2757 107.042L78.0426 107.997C76.878 124.788 79.9194 141.604 86.8916 156.922C93.8637 172.241 104.546 185.579 117.973 195.728L109.651 206.737Z" fill="url(#paint4_linear_164_8751)"/>
<path d="M64.2794 106.988C66.3085 77.9339 79.2861 50.7317 100.592 30.8739C121.898 11.0162 149.945 -0.0177155 179.07 1.52588e-05L179.062 13.8C153.432 13.7844 128.75 23.4943 110.001 40.9691C91.2518 58.4439 79.8315 82.3818 78.0459 107.95L64.2794 106.988Z" fill="url(#paint5_linear_164_8751)"/>
<defs>
<linearGradient id="paint0_linear_164_8751" x1="750" y1="0" x2="750" y2="230" gradientUnits="userSpaceOnUse">
<stop stop-color="#6D73F9"/>
<stop offset="1" stop-color="#9BB8F1"/>
</linearGradient>
<linearGradient id="paint1_linear_164_8751" x1="640.583" y1="115" x2="681" y2="207" gradientUnits="userSpaceOnUse">
<stop stop-color="#B7C6EF"/>
<stop offset="0.558752" stop-color="#BECCEE"/>
</linearGradient>
<linearGradient id="paint2_linear_164_8751" x1="865" y1="219.048" x2="865" y2="-1.06082e-05" gradientUnits="userSpaceOnUse">
<stop stop-color="#CEE8EF"/>
<stop offset="1" stop-color="#CEE8EF"/>
</linearGradient>
<linearGradient id="paint3_linear_164_8751" x1="179" y1="-2.96533e-06" x2="79.5" y2="415.5" gradientUnits="userSpaceOnUse">
<stop stop-color="#6D73F9"/>
<stop offset="1" stop-color="#9BB8F1"/>
</linearGradient>
<linearGradient id="paint4_linear_164_8751" x1="69.5826" y1="115" x2="110" y2="207" gradientUnits="userSpaceOnUse">
<stop stop-color="#B7C6EF"/>
<stop offset="0.558752" stop-color="#BECCEE"/>
</linearGradient>
<linearGradient id="paint5_linear_164_8751" x1="294" y1="219.048" x2="294" y2="-1.06082e-05" gradientUnits="userSpaceOnUse">
<stop stop-color="#CEE8EF"/>
<stop offset="1" stop-color="#CEE8EF"/>
</linearGradient>
</defs>
</svg>
