<svg width="1121" height="634" viewBox="0 0 1121 634" fill="none" xmlns="http://www.w3.org/2000/svg">
<path d="M461.48 592.154H470.3V593.078H461.48V592.154ZM463.104 589.186H469.712V590.096H463.104V589.186ZM465.442 587.296H466.492V592.56H465.442V587.296ZM463.244 587.674L464.238 587.884C463.846 589.27 463.174 590.642 462.446 591.524C462.25 591.37 461.816 591.09 461.564 590.978C462.32 590.152 462.894 588.92 463.244 587.674ZM466.492 592.63H467.528V596.326C467.528 596.676 467.584 596.718 467.934 596.718C468.074 596.718 468.858 596.718 469.054 596.718C469.39 596.718 469.46 596.536 469.488 595.066C469.698 595.248 470.132 595.402 470.426 595.486C470.314 597.264 470.048 597.712 469.166 597.712C468.942 597.712 467.99 597.712 467.794 597.712C466.744 597.712 466.492 597.39 466.492 596.34V592.63ZM464.042 592.658H465.092C464.868 595.094 464.252 596.858 461.746 597.838C461.62 597.572 461.326 597.194 461.102 596.998C463.37 596.2 463.86 594.702 464.042 592.658ZM457.84 588.29L458.638 587.716C459.478 588.374 460.43 589.326 460.878 589.998L460.024 590.642C459.604 589.956 458.666 588.976 457.84 588.29ZM460.514 592.616V598.02H459.492V593.596H457.77V592.616H460.514ZM460.416 597.586C460.85 597.586 461.172 597.95 461.872 598.37C462.754 598.888 463.93 598.972 465.414 598.972C467.01 598.972 469.138 598.874 470.524 598.72C470.398 599 470.23 599.518 470.216 599.812C469.124 599.882 466.758 599.966 465.4 599.966C463.762 599.966 462.6 599.812 461.69 599.28C461.13 598.944 460.71 598.538 460.402 598.538C459.87 598.538 459.114 599.252 458.33 600.12L457.63 599.224C458.596 598.314 459.632 597.586 460.416 597.586ZM471.77 589.998H484.244V590.964H471.77V589.998ZM481.654 587.408L482.76 587.8C482.13 588.71 481.346 589.732 480.73 590.404L479.876 590.054C480.464 589.354 481.234 588.206 481.654 587.408ZM473.198 587.982L474.08 587.548C474.654 588.164 475.312 589.032 475.606 589.606L474.654 590.11C474.402 589.536 473.758 588.64 473.198 587.982ZM476.544 587.548L477.426 587.17C477.944 587.828 478.518 588.738 478.742 589.34L477.804 589.774C477.594 589.172 477.062 588.234 476.544 587.548ZM475.466 590.46L476.362 590.782C475.466 592.56 473.814 594.1 472.092 594.884C471.938 594.646 471.63 594.282 471.406 594.086C473.072 593.414 474.668 592.014 475.466 590.46ZM480.562 590.432C481.388 591.874 483.012 593.288 484.636 593.918C484.398 594.128 484.076 594.506 483.922 594.772C482.256 593.988 480.604 592.42 479.68 590.754L480.562 590.432ZM474.262 593.666H481.822V594.66H474.262V593.666ZM472.288 596.382H483.824V597.376H472.288V596.382ZM477.468 591.944H478.518V600.134H477.468V591.944ZM488.822 599.784C487.912 598.678 486.708 597.488 485.714 596.676L486.624 595.878C487.632 596.69 488.892 597.95 489.774 598.972L488.822 599.784ZM499.462 594.66C500.68 594.352 502.472 593.848 504.208 593.358L504.334 594.31C502.738 594.8 501.072 595.304 499.77 595.668L499.462 594.66ZM499.63 590.068H504.18V591.062H499.63V590.068ZM501.562 587.254H502.584V598.79C502.584 599.378 502.458 599.672 502.08 599.826C501.716 599.994 501.128 600.022 500.162 600.022C500.12 599.756 499.98 599.322 499.854 599.042C500.512 599.07 501.114 599.056 501.296 599.056C501.492 599.056 501.562 598.986 501.562 598.79V587.254ZM505.244 591.776H507.848V592.77H505.244V591.776ZM508.338 587.464H509.402V598.118C509.402 598.678 509.458 598.79 509.822 598.79C509.99 598.79 510.872 598.79 511.082 598.79C511.39 598.79 511.446 598.356 511.474 596.788C511.74 596.998 512.146 597.194 512.454 597.264C512.356 599.112 512.118 599.784 511.152 599.784C510.956 599.784 509.85 599.784 509.654 599.784C508.632 599.784 508.338 599.42 508.338 598.104V587.464ZM511.418 590.488L512.202 591.188C511.292 592.042 510.074 592.966 509.108 593.596L508.478 592.952C509.402 592.336 510.676 591.3 511.418 590.488ZM504.782 599.91L504.656 598.916L505.062 598.496L507.722 597.376C507.736 597.67 507.806 598.09 507.89 598.314C505.398 599.448 505.02 599.672 504.782 599.91ZM504.782 599.91C504.698 599.63 504.46 599.182 504.278 598.972C504.502 598.832 504.782 598.51 504.782 597.922V587.45H505.818V598.832C505.818 598.832 504.782 599.49 504.782 599.91ZM518.796 592.546H525.782V593.47H518.796V592.546ZM518.81 595.346H525.768V596.27H518.81V595.346ZM518.796 598.174H526.342V599.126H518.796V598.174ZM519.23 587.366L520.196 587.604C519.384 589.956 518.124 592.224 516.71 593.68C516.556 593.498 516.178 593.12 515.954 592.938C517.34 591.622 518.516 589.522 519.23 587.366ZM519.076 589.746H526.062V590.67H519.076V600.12H518.096V590.572L518.866 589.746H519.076ZM522.044 590.264H523.066V598.706H522.044V590.264ZM521.484 587.744L522.38 587.338C522.814 587.954 523.276 588.766 523.5 589.312L522.548 589.788C522.352 589.228 521.89 588.374 521.484 587.744ZM513.658 588.29L514.582 587.856C515.296 588.822 516.164 590.138 516.542 590.95L515.548 591.468C515.198 590.642 514.372 589.284 513.658 588.29ZM513.672 598.972C514.288 597.824 515.17 595.92 515.814 594.254L516.738 594.772C516.164 596.34 515.38 598.146 514.736 599.462L513.672 598.972ZM530.822 599.784C529.912 598.678 528.708 597.488 527.714 596.676L528.624 595.878C529.632 596.69 530.892 597.95 531.774 598.972L530.822 599.784ZM553.082 587.59L553.866 588.472C551.822 589.172 548.686 589.69 546.026 590.012C545.984 589.76 545.83 589.368 545.718 589.116C548.322 588.78 551.36 588.22 553.082 587.59ZM545.242 593.246H554.44V594.254H545.242V593.246ZM545.788 598.58H554.216V599.588H545.788V598.58ZM549.414 589.144H550.464V598.86H549.414V589.144ZM543.59 590.964L544.626 589.928L544.64 589.956V600.12H543.59V590.964ZM545.116 587.254L546.138 587.576C545.144 590.012 543.576 592.434 541.938 594.03C541.826 593.778 541.504 593.232 541.294 592.966C542.806 591.594 544.248 589.452 545.116 587.254ZM559.13 590.936H564.73V591.902H559.13V590.936ZM557.24 593.064H561.062V597.866H557.24V596.928H560.054V593.988H557.24V593.064ZM562.532 593.05H566.648V594.002H563.568V600.134H562.532V593.05ZM566.256 593.05H567.278V597.012C567.278 597.572 567.18 597.866 566.774 598.034C566.368 598.216 565.71 598.216 564.646 598.216C564.604 597.922 564.478 597.516 564.338 597.236C565.136 597.25 565.794 597.25 566.004 597.236C566.2 597.236 566.256 597.18 566.256 597.012V593.05ZM556.778 593.064H557.758V599.056H556.778V593.064ZM562.056 587.072L562.896 587.688C561.454 589.69 558.696 591.58 556.078 592.434C555.952 592.14 555.7 591.706 555.476 591.426C558.066 590.726 560.754 588.948 562.056 587.072ZM562.504 587.814C563.736 589.326 566.2 590.782 568.524 591.37C568.258 591.608 567.936 592.056 567.754 592.378C565.416 591.65 562.994 589.998 561.608 588.192L562.504 587.814Z" fill="#3C525E"/>
<path d="M426.5 592H393" stroke="#ABBEC9"/>
<path d="M434 592L425 597.196L425 586.804L434 592Z" fill="#ABBEC9"/>
<path d="M462.278 623.344L462.418 624.338L460.738 624.842V628.776C460.738 629.42 460.57 629.714 460.178 629.882C459.772 630.064 459.114 630.078 458.008 630.078C457.98 629.798 457.826 629.364 457.672 629.084C458.456 629.112 459.17 629.098 459.366 629.084C459.604 629.084 459.702 629.014 459.702 628.776V625.15C459.016 625.346 458.372 625.542 457.798 625.696L457.518 624.646C458.12 624.506 458.876 624.31 459.702 624.072V621.118H457.714V620.096H459.702V617.296H460.738V620.096H462.306V621.118H460.738V623.778L462.278 623.344ZM468.704 623.47H465.358C465.82 624.604 466.436 625.682 467.206 626.62C467.892 625.668 468.396 624.59 468.704 623.47ZM469.264 622.49L469.936 622.714C469.572 624.436 468.886 626.046 467.892 627.39C468.648 628.146 469.502 628.762 470.44 629.154C470.188 629.364 469.866 629.756 469.712 630.036C468.788 629.588 467.962 628.944 467.22 628.174C466.52 628.944 465.694 629.588 464.742 630.106C464.588 629.854 464.294 629.532 464.042 629.336C465.008 628.846 465.848 628.188 466.562 627.418C465.638 626.27 464.91 624.94 464.378 623.47H463.958V630.05H462.936V617.758H469.502C469.502 617.758 469.502 618.052 469.488 618.206C469.404 620.166 469.278 620.964 468.984 621.272C468.718 621.524 468.424 621.608 467.962 621.636C467.514 621.664 466.632 621.65 465.708 621.608C465.694 621.328 465.582 620.978 465.414 620.726C466.338 620.81 467.248 620.81 467.528 620.81C467.822 620.81 467.99 620.796 468.088 620.698C468.27 620.53 468.354 619.984 468.41 618.724H463.958V622.532H469.082L469.264 622.49ZM481.458 625.766H474.668V628.44H481.458V625.766ZM473.632 630.204V624.8H482.508V630.176H481.458V629.42H474.668V630.204H473.632ZM478.854 622.448H484.146V623.428H471.91V622.448H477.776V620.25H474.346C473.926 620.964 473.478 621.622 473.016 622.126C472.806 621.986 472.344 621.706 472.078 621.566C473.1 620.572 473.982 618.976 474.5 617.422L475.536 617.66C475.34 618.22 475.102 618.766 474.85 619.298H477.776V617.282H478.854V619.298H483.11V620.25H478.854V622.448ZM487.198 630.498L486.89 629.756C487.968 629.308 488.584 628.65 488.654 627.698C488.57 627.712 488.5 627.712 488.416 627.712C487.842 627.712 487.366 627.376 487.366 626.718C487.366 626.06 487.856 625.71 488.43 625.71C489.2 625.71 489.62 626.34 489.62 627.32C489.62 628.832 488.668 629.98 487.198 630.498ZM510.326 619.648V618.542H505.692V619.648H510.326ZM510.326 621.496V620.376H505.692V621.496H510.326ZM511.32 617.758V622.294H504.74V617.758H511.32ZM503.718 623.386L503.844 624.338C503.34 624.52 502.822 624.674 502.304 624.856V628.776C502.304 629.35 502.178 629.616 501.828 629.784C501.506 629.952 500.974 629.994 500.092 629.98C500.05 629.728 499.924 629.308 499.784 629.014C500.386 629.028 500.946 629.028 501.1 629.028C501.268 629.028 501.338 628.972 501.338 628.762V625.164C500.764 625.36 500.218 625.528 499.714 625.682L499.462 624.674C499.98 624.548 500.624 624.352 501.338 624.128V621.062H499.616V620.096H501.338V617.31H502.304V620.096H503.844V621.062H502.304V623.82L503.718 623.386ZM508.506 626.662V628.86C508.912 628.916 509.36 628.944 509.822 628.944C510.158 628.944 512.048 628.944 512.524 628.93C512.384 629.154 512.258 629.588 512.216 629.854H509.78C507.764 629.854 506.294 629.476 505.384 627.516C505.006 628.566 504.446 629.42 503.718 630.078C503.55 629.91 503.158 629.588 502.934 629.448C504.18 628.468 504.796 626.9 505.02 624.828L505.972 624.94C505.902 625.458 505.818 625.962 505.706 626.424C506.098 627.614 506.728 628.258 507.526 628.594V624.17H504.11V623.288H512.104V624.17H508.506V625.808H511.404V626.662H508.506ZM524.368 624.24H525.488V630.05H524.368V629.252H514.512V624.24H515.632V628.23H519.412V623.358H515.128V618.57H516.206V622.336H519.412V617.296H520.532V622.336H523.822V618.556H524.942V623.358H520.532V628.23H524.368V624.24ZM538.298 619.298H536.114V620.348H538.298V619.298ZM538.298 622.266V621.174H536.114V622.266H538.298ZM535.12 620.348V619.298H532.53V618.472H535.12V617.296H536.114V618.472H539.236V620.348H540.202V621.174H539.236V623.092H536.114V624.17H539.558V624.954H536.114V626.046H540.076V626.886H536.114V628.272H535.12V626.886H531.732V626.046H535.12V624.954H532.32V624.17H535.12V623.092H532.432V622.266H535.12V621.174H531.62V620.348H535.12ZM531.102 622.098L531.69 622.266C531.48 624.226 531.074 625.822 530.514 627.124C531.872 628.468 533.79 628.776 536.156 628.776C536.702 628.776 539.712 628.776 540.426 628.762C540.272 629 540.09 629.448 540.034 629.728H536.128C533.552 629.728 531.536 629.378 530.08 627.978C529.59 628.86 529.002 629.546 528.33 630.078C528.162 629.868 527.798 629.504 527.56 629.364C528.288 628.846 528.904 628.132 529.408 627.208C528.89 626.494 528.47 625.612 528.134 624.492L528.904 624.184C529.156 625.024 529.45 625.724 529.842 626.298C530.192 625.374 530.472 624.296 530.654 623.05H528.96C528.736 623.162 528.4 623.344 528.4 623.484C528.33 623.288 528.106 622.868 527.966 622.644C528.232 622.588 528.568 622.252 528.848 621.818C529.1 621.468 529.8 620.32 530.346 619.088H527.924V618.164H530.738L531.074 618.01L531.746 618.444C531.102 619.788 530.402 621.09 529.716 622.126H530.92L531.102 622.098ZM550.898 620.446L549.96 620.88C549.736 620.11 549.134 618.864 548.574 617.94L549.47 617.576C550.044 618.5 550.66 619.69 550.898 620.446ZM545.144 619.76L544.36 620.404C544.01 619.816 543.268 618.906 542.624 618.248L543.352 617.688C544.01 618.318 544.794 619.2 545.144 619.76ZM544.668 627.712L546.348 626.55C546.418 626.83 546.572 627.222 546.67 627.432C544.234 629.168 543.87 629.448 543.66 629.714C543.534 629.504 543.24 629.14 543.044 628.986C543.296 628.762 543.646 628.3 543.646 627.586V622.658H541.7V621.65H544.668V627.712ZM552.606 618.15L553.67 618.318C553.124 621.496 552.298 624.324 550.604 626.564C551.654 627.74 552.97 628.622 554.608 629.21C554.356 629.434 554.02 629.854 553.88 630.12C552.256 629.49 550.954 628.566 549.904 627.404C548.896 628.51 547.622 629.448 545.984 630.176C545.844 629.924 545.578 629.532 545.382 629.322C547.02 628.622 548.266 627.712 549.246 626.606C547.72 624.52 546.81 621.79 546.222 618.486L547.174 618.332C547.692 621.286 548.532 623.806 549.946 625.738C551.43 623.666 552.158 621.048 552.606 618.15Z" fill="#3C525E"/>
<path d="M425 622H393" stroke="#7BC3F8"/>
<path d="M434 622L425 627.196L425 616.804L434 622Z" fill="#7BC3F8"/>
<path d="M444 386.196L435 381L435 391.393L444 386.196Z" fill="#ABBEC9"/>
<path d="M198 18L444 18" stroke="#ABBEC9"/>
<path d="M192 18L201 12.8038L201 23.1962L192 18Z" fill="#ABBEC9"/>
<path d="M843 254L668 254" stroke="#ABBEC9"/>
<path d="M1062.97 526L1120 526C1120 526 1120 464.892 1120 378M1058 18L1120 18L1120 242M1120 242C1120 242 1120 296.576 1120 378M1120 242L1058 242M1120 378L1058.32 378" stroke="#ABBEC9"/>
<path d="M1058 525.196L1067 520L1067 530.393L1058 525.196Z" fill="#ABBEC9"/>
<path d="M850 390.196L841 385L841 395.393L850 390.196Z" fill="#ABBEC9"/>
<path d="M850 18.1964L841 13.0003L841 23.3926L850 18.1964Z" fill="#ABBEC9"/>
<rect y="225" width="176" height="46" rx="2" fill="white" fill-opacity="0.85"/>
<path d="M52.426 244.424L52.636 244.368L53.35 244.606C52.608 250.08 50.424 253.342 47.442 254.966C47.288 254.7 46.854 254.28 46.602 254.112C48.226 253.286 49.584 252.012 50.578 250.192C49.99 249.646 49.066 248.932 48.31 248.428L48.94 247.742C49.612 248.162 50.438 248.75 51.026 249.254C51.502 248.148 51.88 246.874 52.118 245.404H49.458C48.926 246.86 48.254 248.148 47.47 249.128C47.302 248.946 46.84 248.61 46.616 248.47C47.89 247.028 48.772 244.718 49.276 242.282L50.298 242.478C50.144 243.15 49.99 243.794 49.794 244.424H52.426ZM55.618 246.804L55.996 246.496C57.2 247.448 58.712 248.778 59.454 249.66L58.628 250.374C57.998 249.576 56.724 248.4 55.618 247.462V255.064H54.554V242.296H55.618V246.804ZM67.728 243.934V244.886H61.176V243.934H64.074C63.92 243.472 63.696 242.926 63.5 242.492L64.41 242.226C64.704 242.772 64.984 243.458 65.152 243.934H67.728ZM63.836 247.378L62.898 247.63C62.772 246.986 62.408 245.992 62.03 245.236L62.912 245.012C63.332 245.74 63.71 246.72 63.836 247.378ZM66.37 250.85H62.548V253.384H66.37V250.85ZM61.568 254.98V249.912H67.392V254.868H66.37V254.308H62.548V254.98H61.568ZM66.076 244.97L67.112 245.194C66.79 246.006 66.412 246.958 66.062 247.686H68.036V248.638H60.77V247.686H65.054C65.432 246.902 65.852 245.754 66.076 244.97ZM72.516 242.982L73.23 243.458C72.726 244.732 72.082 246.328 71.494 247.616C72.74 248.932 73.048 250.01 73.048 250.99C73.048 251.788 72.866 252.474 72.418 252.768C72.18 252.936 71.872 253.034 71.55 253.062C71.2 253.104 70.752 253.104 70.36 253.09C70.346 252.81 70.248 252.39 70.08 252.096C70.486 252.138 70.878 252.138 71.158 252.124C71.368 252.11 71.564 252.068 71.718 251.984C71.998 251.802 72.096 251.368 72.082 250.892C72.082 250.01 71.732 249.002 70.486 247.728C71.004 246.552 71.55 245.068 71.928 243.99H69.702V255.05H68.764V243.038H72.348L72.516 242.982ZM84.906 247.504H81.518V249.03H84.906V247.504ZM81.518 251.508H84.906V249.912H81.518V251.508ZM77.066 251.508H80.454V249.912H77.066V251.508ZM80.454 247.504H77.066V249.03H80.454V247.504ZM81.518 245.236V246.58H85.928V253.16H84.906V252.432H81.518V255.05H80.454V252.432H77.066V253.216H76.072V246.58H80.454V245.236H81.518ZM81.616 243.78H86.782V246.062H85.718V244.788H76.24V246.062H75.218V243.78H80.65C80.482 243.388 80.244 242.87 80.02 242.492L81.07 242.184C81.35 242.674 81.686 243.318 81.84 243.71L81.616 243.78ZM92.858 244.62L92.158 245.39C91.696 244.788 90.73 243.85 89.96 243.206L90.632 242.534C91.402 243.15 92.382 244.046 92.858 244.62ZM91.948 252.6L93.656 251.452C93.726 251.718 93.908 252.152 93.992 252.362C91.388 254.21 90.996 254.518 90.772 254.812C90.674 254.532 90.408 254.084 90.226 253.86C90.492 253.678 90.898 253.286 90.898 252.698V247.686H88.7V246.664H91.948V252.6ZM101.384 246.916V247.966H97.842V255.078H96.764V247.966H93.208V246.916H96.764V242.338H97.842V246.916H101.384ZM104.576 250.066L107.628 249.506C107.6 249.786 107.614 250.164 107.628 250.374C103.848 251.144 103.358 251.27 103.05 251.424C103.008 251.242 102.854 250.766 102.742 250.528C103.036 250.444 103.4 250.108 103.848 249.59C104.128 249.31 104.744 248.568 105.416 247.658C103.512 247.896 103.162 247.994 102.952 248.092C102.91 247.882 102.756 247.392 102.644 247.112C102.896 247.056 103.148 246.734 103.47 246.258C103.806 245.796 104.898 243.99 105.528 242.282L106.466 242.73C105.78 244.228 104.926 245.754 104.044 246.958L106.06 246.734C106.382 246.244 106.704 245.74 106.984 245.25L107.81 245.74C106.844 247.308 105.71 248.834 104.576 250.066ZM107.53 252.068L107.628 252.95C105.962 253.384 104.226 253.818 102.91 254.154L102.728 253.146C103.918 252.922 105.738 252.474 107.53 252.068ZM109.728 251.102V253.818H113.144V251.102H109.728ZM113.144 243.934H109.728V246.538H113.144V243.934ZM109.728 247.49V250.164H113.144V247.49H109.728ZM114.166 253.818H115.37V254.77H107.32V253.818H108.734V242.982H114.166V253.818ZM127.382 248.442V244.27H123.182V248.442H127.382ZM128.446 243.276V249.436H122.16V243.276H128.446ZM118.52 250.108L121.6 249.534C121.572 249.814 121.572 250.22 121.6 250.444C117.778 251.2 117.302 251.326 116.994 251.522C116.938 251.312 116.784 250.836 116.658 250.57C116.966 250.5 117.302 250.178 117.736 249.66C118.002 249.38 118.59 248.666 119.22 247.756C117.428 247.994 117.092 248.078 116.896 248.162C116.84 247.952 116.672 247.462 116.546 247.182C116.812 247.112 117.05 246.79 117.358 246.314C117.694 245.852 118.73 244.032 119.304 242.338L120.298 242.8C119.654 244.298 118.814 245.838 117.946 247.042L119.836 246.846C120.172 246.356 120.48 245.824 120.76 245.32L121.614 245.824C120.69 247.364 119.626 248.862 118.52 250.108ZM121.544 252.138L121.656 253.048C119.934 253.468 118.156 253.902 116.812 254.252L116.616 253.216C117.848 252.978 119.724 252.558 121.544 252.138ZM123.154 250.794L124.232 251.032C123.756 252.6 122.93 254.084 122.006 255.064C121.81 254.91 121.348 254.602 121.082 254.462C122.02 253.58 122.734 252.222 123.154 250.794ZM126.318 251.116L127.256 250.766C128.026 251.956 128.838 253.538 129.16 254.532L128.138 254.938C127.83 253.944 127.046 252.334 126.318 251.116Z" fill="#3C525E"/>
<rect y="356" width="176" height="46" rx="2" fill="white" fill-opacity="0.85"/>
<path d="M64.564 373.702L65.67 374.01C64.732 376.278 63.248 378.392 61.736 379.764C61.512 379.554 61.036 379.19 60.77 379.022C62.338 377.79 63.738 375.788 64.564 373.702ZM68.554 381.164L69.52 380.716C70.738 382.2 72.166 384.16 72.852 385.42L71.844 385.98C71.62 385.532 71.284 384.986 70.92 384.412C63.57 384.916 62.814 384.958 62.296 385.154C62.24 384.93 62.044 384.356 61.89 384.062C62.254 383.978 62.632 383.558 63.164 382.886C63.71 382.27 65.404 379.848 66.524 377.524L67.644 378.028C66.496 380.142 65.124 382.214 63.752 383.838L70.262 383.446C69.702 382.662 69.1 381.85 68.554 381.164ZM68.274 373.996L69.296 373.604C70.22 375.508 71.998 377.72 73.44 378.882C73.174 379.092 72.782 379.484 72.572 379.764C71.13 378.434 69.352 376.096 68.274 373.996ZM81.77 380.002H77.276V382.606H81.77V380.002ZM82.792 383.53H77.276V384.552H76.254V379.078H82.792V383.53ZM83.744 376.642V377.58H75.372V376.642H83.744ZM86.39 374.192V384.524C86.39 385.238 86.236 385.602 85.76 385.784C85.27 385.966 84.402 385.98 83.156 385.98C83.114 385.672 82.96 385.154 82.792 384.86C83.758 384.888 84.724 384.888 85.004 384.874C85.27 384.86 85.34 384.79 85.34 384.524V375.186H75.274V374.192H86.39ZM98.584 375.298L97.94 376.082C97.366 375.48 96.19 374.57 95.252 373.968L95.896 373.282C96.82 373.842 98.01 374.696 98.584 375.298ZM93.81 382.354L92.998 382.046C93.572 380.954 93.88 379.148 94.034 377.734L94.832 377.916C94.664 379.344 94.356 381.248 93.81 382.354ZM93.32 380.87L92.676 381.71C92.494 381.29 92.088 380.506 91.724 379.848V386.092H90.744V380.282C90.268 381.584 89.666 382.83 89.064 383.642C88.966 383.348 88.7 382.9 88.518 382.648C89.302 381.64 90.17 379.834 90.646 378.252H88.826V377.272H90.744V375.018C90.254 375.13 89.75 375.228 89.288 375.312C89.246 375.074 89.092 374.724 88.98 374.486C90.296 374.234 91.808 373.828 92.69 373.394L93.348 374.234C92.872 374.444 92.312 374.626 91.724 374.794V377.272H93.348V378.252H91.724V378.56C92.088 379.008 93.096 380.492 93.32 380.87ZM101.44 382.256L100.488 382.536C100.32 381.402 99.774 379.694 99.172 378.392C98.458 380.114 97.59 381.654 96.568 382.998V384.37C96.568 384.93 96.652 385.028 97.17 385.028H98.822C99.298 385.028 99.382 384.664 99.438 382.942C99.662 383.138 100.068 383.306 100.334 383.348C100.222 385.35 99.956 385.938 98.906 385.938H97.044C95.882 385.938 95.574 385.602 95.574 384.356V384.174C95.014 384.776 94.412 385.336 93.768 385.826C93.6 385.63 93.166 385.28 92.928 385.112C93.922 384.412 94.79 383.572 95.574 382.634V376.292H96.568V381.276C97.884 379.26 98.85 376.838 99.592 374.15L100.572 374.346C100.18 375.774 99.718 377.118 99.2 378.378L100.082 378.112C100.698 379.428 101.244 381.136 101.44 382.256ZM115.272 375.606L114.628 376.39C114.068 375.844 112.92 374.99 112.024 374.402L112.64 373.716C113.522 374.276 114.684 375.088 115.272 375.606ZM108.916 376.74V379.47H112.15V376.74H108.916ZM113.172 379.47H115.188C115.188 379.47 115.174 379.806 115.146 379.96C114.936 382.746 114.726 383.852 114.32 384.272C114.026 384.566 113.704 384.664 113.228 384.692C112.808 384.72 111.968 384.706 111.1 384.664C111.086 384.356 110.946 383.95 110.764 383.67C111.646 383.754 112.528 383.754 112.864 383.754C113.144 383.754 113.298 383.74 113.452 383.614C113.718 383.376 113.914 382.494 114.082 380.464H108.916V386.064H107.88V380.464H102.896V379.47H107.88V376.74H103.82V375.732H107.88V373.338H108.916V375.732H113.172V379.47Z" fill="#3C525E"/>
<rect y="105" width="176" height="46" rx="2" fill="white" fill-opacity="0.85"/>
<path d="M65.6 124.676V133.692C65.6 134.364 65.446 134.7 64.97 134.868C64.48 135.05 63.612 135.05 62.366 135.05C62.324 134.77 62.17 134.28 62.016 134C62.996 134.042 63.948 134.042 64.242 134.028C64.494 134.014 64.578 133.93 64.578 133.678V125.698H60.518C60.49 126.272 60.42 126.888 60.266 127.518C61.652 128.736 63.36 130.374 64.214 131.41L63.36 132.082C62.646 131.144 61.246 129.716 59.958 128.512C59.44 129.856 58.432 131.158 56.556 132.264C56.402 132.04 56.052 131.662 55.814 131.48C58.894 129.842 59.398 127.532 59.482 125.698H55.45V135.092H54.428V124.676H59.496V122.282H60.532V124.676H65.6ZM74.728 123.934V124.886H68.176V123.934H71.074C70.92 123.472 70.696 122.926 70.5 122.492L71.41 122.226C71.704 122.772 71.984 123.458 72.152 123.934H74.728ZM70.836 127.378L69.898 127.63C69.772 126.986 69.408 125.992 69.03 125.236L69.912 125.012C70.332 125.74 70.71 126.72 70.836 127.378ZM73.37 130.85H69.548V133.384H73.37V130.85ZM68.568 134.98V129.912H74.392V134.868H73.37V134.308H69.548V134.98H68.568ZM73.076 124.97L74.112 125.194C73.79 126.006 73.412 126.958 73.062 127.686H75.036V128.638H67.77V127.686H72.054C72.432 126.902 72.852 125.754 73.076 124.97ZM79.516 122.982L80.23 123.458C79.726 124.732 79.082 126.328 78.494 127.616C79.74 128.932 80.048 130.01 80.048 130.99C80.048 131.788 79.866 132.474 79.418 132.768C79.18 132.936 78.872 133.034 78.55 133.062C78.2 133.104 77.752 133.104 77.36 133.09C77.346 132.81 77.248 132.39 77.08 132.096C77.486 132.138 77.878 132.138 78.158 132.124C78.368 132.11 78.564 132.068 78.718 131.984C78.998 131.802 79.096 131.368 79.082 130.892C79.082 130.01 78.732 129.002 77.486 127.728C78.004 126.552 78.55 125.068 78.928 123.99H76.702V135.05H75.764V123.038H79.348L79.516 122.982ZM91.906 127.504H88.518V129.03H91.906V127.504ZM88.518 131.508H91.906V129.912H88.518V131.508ZM84.066 131.508H87.454V129.912H84.066V131.508ZM87.454 127.504H84.066V129.03H87.454V127.504ZM88.518 125.236V126.58H92.928V133.16H91.906V132.432H88.518V135.05H87.454V132.432H84.066V133.216H83.072V126.58H87.454V125.236H88.518ZM88.616 123.78H93.782V126.062H92.718V124.788H83.24V126.062H82.218V123.78H87.65C87.482 123.388 87.244 122.87 87.02 122.492L88.07 122.184C88.35 122.674 88.686 123.318 88.84 123.71L88.616 123.78ZM99.858 124.62L99.158 125.39C98.696 124.788 97.73 123.85 96.96 123.206L97.632 122.534C98.402 123.15 99.382 124.046 99.858 124.62ZM98.948 132.6L100.656 131.452C100.726 131.718 100.908 132.152 100.992 132.362C98.388 134.21 97.996 134.518 97.772 134.812C97.674 134.532 97.408 134.084 97.226 133.86C97.492 133.678 97.898 133.286 97.898 132.698V127.686H95.7V126.664H98.948V132.6ZM108.384 126.916V127.966H104.842V135.078H103.764V127.966H100.208V126.916H103.764V122.338H104.842V126.916H108.384ZM112.766 123.822V125.404H119.276V123.822H112.766ZM111.702 122.912H120.382V126.328H111.702V122.912ZM115.384 129.408H116.476V130.71C116.476 132.166 115.846 133.958 110.666 135.12C110.54 134.896 110.218 134.476 109.98 134.266C114.992 133.272 115.384 131.788 115.384 130.682V129.408ZM116.392 133.048L116.91 132.292C118.562 132.838 120.844 133.664 122.062 134.252L121.516 135.12C120.368 134.532 118.1 133.636 116.392 133.048ZM111.212 127.546H120.942V132.572H119.836V128.526H112.262V132.67H111.212V127.546Z" fill="#3C525E"/>
<rect x="460" y="356" width="192" height="46" rx="2" fill="white" fill-opacity="0.85"/>
<path d="M498.977 379.54V377.09H492.425V379.54H498.977ZM500.111 376.11V380.52H491.333V376.11H493.741C493.489 375.466 492.901 374.486 492.327 373.758L493.209 373.352C493.811 374.066 494.441 375.032 494.693 375.69L493.839 376.11H496.709C497.269 375.284 497.899 374.164 498.235 373.31L499.299 373.744C498.851 374.528 498.333 375.396 497.857 376.11H500.111ZM494.469 381.234L495.197 380.646C496.121 381.262 497.213 382.2 497.717 382.844L496.961 383.516C496.443 382.83 495.379 381.85 494.469 381.234ZM490.297 385.294L489.345 384.832C489.933 384.132 490.409 382.9 490.661 381.836L491.627 382.032C491.389 383.152 490.927 384.454 490.297 385.294ZM494.777 384.972H497.759C498.445 384.972 498.557 384.776 498.641 383.558C498.879 383.712 499.313 383.88 499.621 383.936C499.467 385.518 499.131 385.91 497.843 385.91H494.721C493.069 385.91 492.663 385.616 492.663 384.482V381.612H493.727V384.482C493.727 384.902 493.895 384.972 494.777 384.972ZM499.271 381.99L500.069 381.528C500.895 382.466 501.735 383.712 502.043 384.58L501.203 385.098C500.895 384.23 500.069 382.942 499.271 381.99ZM516.169 378.994L515.581 379.848C514.783 379.316 513.271 378.532 511.969 377.958C510.835 378.756 509.575 379.4 508.343 379.862C508.203 379.61 507.909 379.218 507.713 379.008C509.897 378.266 512.263 376.796 513.537 374.99H508.623V374.024H514.209L514.391 373.982L515.133 374.388C514.587 375.508 513.761 376.488 512.795 377.314C514.013 377.832 515.399 378.518 516.169 378.994ZM505.235 380.982L508.007 380.492C507.979 380.772 507.979 381.192 507.993 381.416C504.437 382.13 503.947 382.256 503.639 382.424C503.597 382.214 503.429 381.71 503.303 381.444C503.625 381.374 503.961 381.024 504.395 380.534C504.675 380.254 505.263 379.554 505.893 378.672C504.115 378.91 503.765 378.98 503.555 379.092C503.499 378.868 503.331 378.364 503.205 378.084C503.471 378.028 503.723 377.706 504.031 377.23C504.353 376.768 505.417 374.976 506.005 373.282L506.999 373.744C506.341 375.214 505.501 376.726 504.647 377.916L506.565 377.706C506.887 377.23 507.195 376.712 507.475 376.208L508.385 376.782C507.433 378.294 506.355 379.778 505.235 380.982ZM507.965 383.096L508.077 383.992C506.453 384.426 504.773 384.86 503.513 385.196L503.303 384.16C504.465 383.922 506.243 383.502 507.965 383.096ZM512.529 381.318V384.706H516.099V385.686H507.895V384.706H511.507V381.318H508.749V380.352H515.441V381.318H512.529ZM521.629 382.186L521.811 383.18C520.313 383.684 518.717 384.23 517.471 384.636L517.233 383.586C517.751 383.432 518.395 383.236 519.109 382.998V379.218H517.527V378.252H519.109V375.214H517.373V374.234H521.713V375.214H520.103V378.252H521.503V379.218H520.103V382.69L521.629 382.186ZM523.351 377.468V379.246H525.479V377.468H523.351ZM523.351 374.836V376.6H525.479V374.836H523.351ZM528.517 376.6V374.836H526.375V376.6H528.517ZM528.517 379.246V377.468H526.375V379.246H528.517ZM526.459 384.664H530.169V385.616H521.153V384.664H525.409V382.746H522.231V381.794H525.409V380.156H522.399V373.926H529.511V380.156H526.459V381.794H529.721V382.746H526.459V384.664ZM534.971 387.044L534.173 387.856C533.137 386.96 532.381 385.938 531.905 384.79C531.429 383.642 531.191 382.508 531.191 381.374C531.191 379.134 532.073 376.768 534.187 374.878L534.957 375.69C533.249 377.286 532.395 379.176 532.395 381.374C532.395 383.46 533.347 385.476 534.971 387.044ZM540.058 382.186L540.24 383.18C538.742 383.684 537.146 384.23 535.9 384.636L535.662 383.586C536.18 383.432 536.824 383.236 537.538 382.998V379.218H535.956V378.252H537.538V375.214H535.802V374.234H540.142V375.214H538.532V378.252H539.932V379.218H538.532V382.69L540.058 382.186ZM541.78 377.468V379.246H543.908V377.468H541.78ZM541.78 374.836V376.6H543.908V374.836H541.78ZM546.946 376.6V374.836H544.804V376.6H546.946ZM546.946 379.246V377.468H544.804V379.246H546.946ZM544.888 384.664H548.598V385.616H539.582V384.664H543.838V382.746H540.66V381.794H543.838V380.156H540.828V373.926H547.94V380.156H544.888V381.794H548.15V382.746H544.888V384.664ZM559.952 383.152V382.102H556.592V383.152H559.952ZM556.592 380.296V381.276H559.952V380.296H556.592ZM552.546 377.818H555.556V376.81H552.546V377.818ZM559.728 376.81H556.592V377.818H559.728V376.81ZM562.43 381.276V382.102H560.988V384.58H559.952V383.95H556.592V384.916C556.592 385.56 556.396 385.798 555.976 385.952C555.542 386.106 554.814 386.12 553.652 386.12C553.596 385.854 553.428 385.476 553.288 385.238C554.128 385.266 554.968 385.252 555.206 385.252C555.472 385.238 555.556 385.154 555.556 384.916V383.95H551.034V383.152H555.556V382.102H549.83V381.276H555.556V380.296H551.16V379.526H555.556V378.546H551.552V376.082H555.556V375.27H550.096V374.416H555.556V373.296H556.592V374.416H562.164V375.27H556.592V376.082H560.764V378.546H556.592V379.526H560.988V381.276H562.43ZM564.418 381.29V380.282H575.912V381.29H569.808C568.94 382.438 567.96 383.558 566.952 384.468L573.308 383.992C572.804 383.404 572.216 382.802 571.684 382.312L572.566 381.836C573.812 382.956 575.128 384.44 575.744 385.49L574.82 386.064C574.624 385.728 574.344 385.322 574.036 384.902C566.658 385.518 565.874 385.574 565.356 385.77C565.286 385.546 565.118 385 565.006 384.692C565.3 384.636 565.622 384.37 566.042 383.964C566.434 383.642 567.484 382.536 568.394 381.29H564.418ZM570.172 373.296L571.166 373.73C571.026 373.912 570.886 374.108 570.76 374.29C572.034 375.592 574.302 377.132 576.556 377.902C576.318 378.112 575.996 378.532 575.828 378.826C573.658 377.944 571.474 376.348 570.158 374.99C569.29 375.942 568.212 376.838 567.008 377.608H573.476V378.574H566.826V377.72C566.098 378.182 565.328 378.602 564.516 378.966C564.362 378.7 563.998 378.28 563.76 378.07C566.476 376.922 568.926 375.172 570.172 373.296ZM584.662 384.594H590.332V385.616H577.956V384.594H583.556V381.15H579.244V380.156H583.556V377.09H578.6V376.068H584.746C584.2 375.424 583.206 374.542 582.366 373.926L583.206 373.338C584.102 373.982 585.222 374.934 585.768 375.592L585.11 376.068H589.632V377.09H584.662V380.156H589.058V381.15H584.662V384.594ZM601 379.54V378.168H597.388V379.54H601ZM602.008 376.054V377.3H604.276V378.168H602.008V380.394H599.74V381.486H603.52V384.37C603.52 384.888 603.422 385.154 603.016 385.308C602.624 385.462 601.994 385.462 600.986 385.462C600.944 385.182 600.804 384.832 600.692 384.552C601.448 384.58 602.078 384.58 602.26 384.566C602.442 384.566 602.498 384.524 602.498 384.356V382.396H599.74V386.106H598.718V382.396H596.072V385.49H595.05V381.486H598.718V380.394H596.408V378.168H594.294V377.3H596.408V376.054H597.388V377.3H601V376.054H602.008ZM599.432 374.696H604.402V375.648H593.832V378.7C593.832 380.856 593.664 384.02 592.46 386.134C592.278 385.938 591.83 385.658 591.606 385.546C592.74 383.544 592.838 380.716 592.838 378.7V374.696H598.27C598.102 374.304 597.878 373.842 597.668 373.478L598.662 373.184C598.942 373.66 599.25 374.234 599.432 374.696ZM613.583 379.68C613.583 382.41 612.477 384.636 610.797 386.344L609.957 385.91C611.567 384.244 612.561 382.172 612.561 379.68C612.561 377.188 611.567 375.116 609.957 373.45L610.797 373.016C612.477 374.724 613.583 376.95 613.583 379.68Z" fill="#3C525E"/>
<rect x="460" y="508" width="192" height="46" rx="2" fill="white" fill-opacity="0.85"/>
<path d="M539.942 534.186L540.124 535.18C538.626 535.684 537.03 536.23 535.784 536.636L535.546 535.586C536.064 535.432 536.708 535.236 537.422 534.998V531.218H535.84V530.252H537.422V527.214H535.686V526.234H540.026V527.214H538.416V530.252H539.816V531.218H538.416V534.69L539.942 534.186ZM541.664 529.468V531.246H543.792V529.468H541.664ZM541.664 526.836V528.6H543.792V526.836H541.664ZM546.83 528.6V526.836H544.688V528.6H546.83ZM546.83 531.246V529.468H544.688V531.246H546.83ZM544.772 536.664H548.482V537.616H539.466V536.664H543.722V534.746H540.544V533.794H543.722V532.156H540.712V525.926H547.824V532.156H544.772V533.794H548.034V534.746H544.772V536.664ZM559.836 535.152V534.102H556.476V535.152H559.836ZM556.476 532.296V533.276H559.836V532.296H556.476ZM552.43 529.818H555.44V528.81H552.43V529.818ZM559.612 528.81H556.476V529.818H559.612V528.81ZM562.314 533.276V534.102H560.872V536.58H559.836V535.95H556.476V536.916C556.476 537.56 556.28 537.798 555.86 537.952C555.426 538.106 554.698 538.12 553.536 538.12C553.48 537.854 553.312 537.476 553.172 537.238C554.012 537.266 554.852 537.252 555.09 537.252C555.356 537.238 555.44 537.154 555.44 536.916V535.95H550.918V535.152H555.44V534.102H549.714V533.276H555.44V532.296H551.044V531.526H555.44V530.546H551.436V528.082H555.44V527.27H549.98V526.416H555.44V525.296H556.476V526.416H562.048V527.27H556.476V528.082H560.648V530.546H556.476V531.526H560.872V533.276H562.314ZM564.302 533.29V532.282H575.796V533.29H569.692C568.824 534.438 567.844 535.558 566.836 536.468L573.192 535.992C572.688 535.404 572.1 534.802 571.568 534.312L572.45 533.836C573.696 534.956 575.012 536.44 575.628 537.49L574.704 538.064C574.508 537.728 574.228 537.322 573.92 536.902C566.542 537.518 565.758 537.574 565.24 537.77C565.17 537.546 565.002 537 564.89 536.692C565.184 536.636 565.506 536.37 565.926 535.964C566.318 535.642 567.368 534.536 568.278 533.29H564.302ZM570.056 525.296L571.05 525.73C570.91 525.912 570.77 526.108 570.644 526.29C571.918 527.592 574.186 529.132 576.44 529.902C576.202 530.112 575.88 530.532 575.712 530.826C573.542 529.944 571.358 528.348 570.042 526.99C569.174 527.942 568.096 528.838 566.892 529.608H573.36V530.574H566.71V529.72C565.982 530.182 565.212 530.602 564.4 530.966C564.246 530.7 563.882 530.28 563.644 530.07C566.36 528.922 568.81 527.172 570.056 525.296Z" fill="#3C525E"/>
<rect x="866" y="508" width="176" height="46" rx="2" fill="white" fill-opacity="0.85"/>
<path d="M928.254 533.766H924.39C924.068 534.186 923.746 534.606 923.424 534.942C924.46 535.166 925.496 535.39 926.49 535.628C927.26 535.152 927.834 534.536 928.254 533.766ZM926.49 531.82H925.692C925.496 532.156 925.272 532.506 925.048 532.856H932.314V533.766H929.402C929.01 534.648 928.45 535.362 927.736 535.95C929.444 536.384 930.984 536.832 932.16 537.252L931.208 538.008C930.06 537.574 928.506 537.07 926.714 536.608C925.16 537.434 923.06 537.868 920.316 538.092C920.246 537.784 920.078 537.406 919.896 537.154C922.122 537.028 923.872 536.762 925.244 536.23C924.124 535.964 922.934 535.698 921.702 535.46C922.164 534.984 922.668 534.396 923.144 533.766H919.7V532.856H923.816C924.166 532.366 924.474 531.862 924.726 531.386L925.468 531.582V529.09C924.166 530.476 922.066 531.666 920.204 532.254C920.05 532.016 919.756 531.638 919.56 531.442C921.198 530.994 923.018 530.084 924.25 529.048H919.854V528.152H925.468V526.752C923.984 526.864 922.444 526.934 921.044 526.976C921.03 526.738 920.918 526.374 920.82 526.15C924.012 526.066 927.918 525.786 929.976 525.31L930.746 526.052C929.57 526.318 928.086 526.528 926.49 526.668V528.152H932.146V529.048H927.75C928.968 530.028 930.788 530.882 932.426 531.288C932.216 531.512 931.908 531.904 931.768 532.156C929.892 531.596 927.806 530.434 926.49 529.09V531.82ZM936.766 526.822V528.404H943.276V526.822H936.766ZM935.702 525.912H944.382V529.328H935.702V525.912ZM939.384 532.408H940.476V533.71C940.476 535.166 939.846 536.958 934.666 538.12C934.54 537.896 934.218 537.476 933.98 537.266C938.992 536.272 939.384 534.788 939.384 533.682V532.408ZM940.392 536.048L940.91 535.292C942.562 535.838 944.844 536.664 946.062 537.252L945.516 538.12C944.368 537.532 942.1 536.636 940.392 536.048ZM935.212 530.546H944.942V535.572H943.836V531.526H936.262V535.67H935.212V530.546ZM948.302 533.29V532.282H959.796V533.29H953.692C952.824 534.438 951.844 535.558 950.836 536.468L957.192 535.992C956.688 535.404 956.1 534.802 955.568 534.312L956.45 533.836C957.696 534.956 959.012 536.44 959.628 537.49L958.704 538.064C958.508 537.728 958.228 537.322 957.92 536.902C950.542 537.518 949.758 537.574 949.24 537.77C949.17 537.546 949.002 537 948.89 536.692C949.184 536.636 949.506 536.37 949.926 535.964C950.318 535.642 951.368 534.536 952.278 533.29H948.302ZM954.056 525.296L955.05 525.73C954.91 525.912 954.77 526.108 954.644 526.29C955.918 527.592 958.186 529.132 960.44 529.902C960.202 530.112 959.88 530.532 959.712 530.826C957.542 529.944 955.358 528.348 954.042 526.99C953.174 527.942 952.096 528.838 950.892 529.608H957.36V530.574H950.71V529.72C949.982 530.182 949.212 530.602 948.4 530.966C948.246 530.7 947.882 530.28 947.644 530.07C950.36 528.922 952.81 527.172 954.056 525.296ZM971.584 527.298L970.94 528.082C970.366 527.48 969.19 526.57 968.252 525.968L968.896 525.282C969.82 525.842 971.01 526.696 971.584 527.298ZM966.81 534.354L965.998 534.046C966.572 532.954 966.88 531.148 967.034 529.734L967.832 529.916C967.664 531.344 967.356 533.248 966.81 534.354ZM966.32 532.87L965.676 533.71C965.494 533.29 965.088 532.506 964.724 531.848V538.092H963.744V532.282C963.268 533.584 962.666 534.83 962.064 535.642C961.966 535.348 961.7 534.9 961.518 534.648C962.302 533.64 963.17 531.834 963.646 530.252H961.826V529.272H963.744V527.018C963.254 527.13 962.75 527.228 962.288 527.312C962.246 527.074 962.092 526.724 961.98 526.486C963.296 526.234 964.808 525.828 965.69 525.394L966.348 526.234C965.872 526.444 965.312 526.626 964.724 526.794V529.272H966.348V530.252H964.724V530.56C965.088 531.008 966.096 532.492 966.32 532.87ZM974.44 534.256L973.488 534.536C973.32 533.402 972.774 531.694 972.172 530.392C971.458 532.114 970.59 533.654 969.568 534.998V536.37C969.568 536.93 969.652 537.028 970.17 537.028H971.822C972.298 537.028 972.382 536.664 972.438 534.942C972.662 535.138 973.068 535.306 973.334 535.348C973.222 537.35 972.956 537.938 971.906 537.938H970.044C968.882 537.938 968.574 537.602 968.574 536.356V536.174C968.014 536.776 967.412 537.336 966.768 537.826C966.6 537.63 966.166 537.28 965.928 537.112C966.922 536.412 967.79 535.572 968.574 534.634V528.292H969.568V533.276C970.884 531.26 971.85 528.838 972.592 526.15L973.572 526.346C973.18 527.774 972.718 529.118 972.2 530.378L973.082 530.112C973.698 531.428 974.244 533.136 974.44 534.256ZM988.272 527.606L987.628 528.39C987.068 527.844 985.92 526.99 985.024 526.402L985.64 525.716C986.522 526.276 987.684 527.088 988.272 527.606ZM981.916 528.74V531.47H985.15V528.74H981.916ZM986.172 531.47H988.188C988.188 531.47 988.174 531.806 988.146 531.96C987.936 534.746 987.726 535.852 987.32 536.272C987.026 536.566 986.704 536.664 986.228 536.692C985.808 536.72 984.968 536.706 984.1 536.664C984.086 536.356 983.946 535.95 983.764 535.67C984.646 535.754 985.528 535.754 985.864 535.754C986.144 535.754 986.298 535.74 986.452 535.614C986.718 535.376 986.914 534.494 987.082 532.464H981.916V538.064H980.88V532.464H975.896V531.47H980.88V528.74H976.82V527.732H980.88V525.338H981.916V527.732H986.172V531.47Z" fill="#3C525E"/>
<rect x="866" y="214" width="176" height="68" rx="2" fill="white" fill-opacity="0.85"/>
<path d="M883.412 231.338H884.56C884.546 231.842 884.532 232.542 884.462 233.368C884.672 235.034 885.512 240.886 890.454 243.084C890.16 243.322 889.852 243.672 889.698 243.966C886.198 242.328 884.7 238.87 884.028 236.266C883.384 239.066 881.9 242.202 878.484 244.022C878.302 243.742 877.966 243.42 877.644 243.21C883.454 240.27 883.37 233.466 883.412 231.338ZM897.832 234.334H903.656C903.656 234.334 903.642 234.726 903.628 234.88C903.32 240.62 903.026 242.706 902.41 243.406C902.088 243.798 901.752 243.91 901.22 243.966C900.73 244.008 899.834 243.98 898.98 243.924C898.966 243.616 898.84 243.168 898.63 242.86C899.582 242.944 900.478 242.958 900.828 242.958C901.122 242.958 901.304 242.916 901.472 242.748C901.976 242.272 902.284 240.298 902.55 235.37H897.776C897.58 238.268 896.656 241.656 892.596 244.134C892.428 243.882 892.05 243.476 891.798 243.308C895.592 241.054 896.488 237.988 896.698 235.37H892.218V234.334H896.754C896.754 234.124 896.754 233.928 896.754 233.732V231.31H897.832V233.732C897.832 233.928 897.832 234.124 897.832 234.334ZM909.69 233.214L909.144 234.026C908.514 233.536 907.24 232.892 906.232 232.514L906.75 231.786C907.758 232.136 909.046 232.738 909.69 233.214ZM909.774 234.838L909.928 235.748C908.584 236.196 907.156 236.672 906.036 237.036L905.742 236.07C906.75 235.79 908.262 235.314 909.774 234.838ZM916.564 241.586H915.514V238.758H908.612V241.684H907.59V237.806H916.564V241.586ZM911.636 239.164H912.644C912.182 241.95 910.894 243.448 906.204 244.106C906.134 243.868 905.91 243.462 905.742 243.252C910.166 242.706 911.216 241.474 911.636 239.164ZM912.224 241.922L912.798 241.166C914.506 241.698 916.83 242.552 918.048 243.168L917.432 244.022C916.27 243.406 913.96 242.496 912.224 241.922ZM916.536 233.396H914.464C914.394 233.648 914.31 233.872 914.226 234.11C914.996 235.314 916.494 236.252 918.244 236.63C918.02 236.812 917.754 237.19 917.614 237.442C916.06 237.008 914.702 236.112 913.82 234.922C913.162 236.056 912.07 236.966 910.138 237.54C910.04 237.316 909.774 236.966 909.578 236.784C912.056 236.112 913.008 234.838 913.414 233.396H911.762C911.37 233.956 910.894 234.502 910.306 234.992C910.138 234.754 909.802 234.474 909.578 234.348C910.698 233.48 911.426 232.304 911.776 231.338L912.77 231.478C912.63 231.842 912.462 232.206 912.266 232.57H916.998L917.166 232.528L917.922 232.738C917.572 233.508 917.138 234.348 916.802 234.894L915.892 234.628C916.102 234.306 916.312 233.844 916.536 233.396ZM923.2 232.934L922.584 233.76C922.052 233.34 921.016 232.654 920.26 232.164L920.862 231.45C921.618 231.884 922.668 232.528 923.2 232.934ZM922.542 236.574L921.926 237.414C921.394 237.008 920.358 236.35 919.574 235.916L920.176 235.188C920.932 235.608 921.996 236.196 922.542 236.574ZM921.996 238.814L922.808 239.388C922.234 240.858 921.45 242.58 920.792 243.868L919.868 243.294C920.484 242.216 921.352 240.382 921.996 238.814ZM924.768 232.92V235.79C924.768 238.226 924.53 241.684 922.878 244.022C922.71 243.84 922.262 243.574 922.024 243.476C923.606 241.236 923.746 238.086 923.746 235.79V231.968H932.258V232.92H924.768ZM926.056 240.116L926.994 240.368C926.532 241.39 925.832 242.51 925.23 243.238C925.034 243.084 924.642 242.846 924.39 242.706C925.034 242.034 925.65 241.04 926.056 240.116ZM926.504 237.302V238.534H930.76V237.302H926.504ZM926.504 235.328V236.546H930.76V235.328H926.504ZM931.726 239.332H929.066V242.986C929.066 243.504 928.982 243.77 928.59 243.924C928.212 244.078 927.624 244.078 926.686 244.064C926.644 243.798 926.518 243.434 926.392 243.168C927.064 243.196 927.68 243.182 927.834 243.182C928.016 243.168 928.072 243.126 928.072 242.972V239.332H925.566V234.53H927.68C927.834 234.082 928.002 233.508 928.086 233.116L929.248 233.354C929.052 233.76 928.856 234.166 928.674 234.53H931.726V239.332ZM930.004 240.354L930.9 240.004C931.446 240.858 932.146 242.006 932.496 242.678L931.544 243.098C931.236 242.398 930.55 241.236 930.004 240.354ZM936.822 243.784C935.926 242.678 934.722 241.474 933.728 240.662L934.638 239.864C935.646 240.676 936.906 241.95 937.774 242.972L936.822 243.784ZM951.13 234.18V233.256H947.854V232.332H951.13V231.296H952.152V232.332H955.792V231.296H956.814V232.332H960.188V233.256H956.814V234.18H955.792V233.256H952.152V234.18H951.13ZM949.086 240.578L949.87 240.774C949.52 241.656 948.946 242.552 948.372 243.14C948.232 243.028 947.924 242.776 947.728 242.678C948.288 242.118 948.792 241.334 949.086 240.578ZM953.972 240.298H951.508V242.888C951.508 243.364 951.424 243.602 951.102 243.742C950.808 243.882 950.332 243.896 949.674 243.896C949.632 243.644 949.52 243.294 949.38 243.042C949.856 243.07 950.262 243.07 950.402 243.056C950.542 243.056 950.584 243.014 950.584 242.888V240.298H947.966V239.472H950.584V238.436H947.77V237.624H949.338C949.282 237.19 949.1 236.588 948.89 236.14L949.702 235.944C949.968 236.434 950.178 237.106 950.234 237.54L949.912 237.624H951.536C951.802 237.106 952.096 236.392 952.25 235.888H947.994V235.076H950.514C950.36 234.726 950.192 234.362 950.01 234.054L950.892 233.83C951.116 234.194 951.382 234.67 951.55 235.076H953.93V235.888H952.362L953.174 236.126C952.95 236.63 952.684 237.176 952.46 237.624H954.112V238.436H951.508V239.472H953.972V240.298ZM952.096 240.858L952.754 240.536C953.132 241.096 953.538 241.852 953.734 242.328L953.034 242.72C952.852 242.216 952.46 241.432 952.096 240.858ZM960.356 237.722V238.632H958.55V244.05H957.556V238.632H955.722V238.842C955.722 240.508 955.484 242.692 954.042 244.12C953.902 243.91 953.538 243.546 953.342 243.434C954.63 242.118 954.77 240.312 954.77 238.842V235.202C956.338 234.936 958.116 234.53 959.124 234.124L959.936 234.838C958.802 235.272 957.192 235.622 955.722 235.86V237.722H960.356ZM965.858 237.848V235.412H965.144V237.652C965.144 237.82 965.172 237.848 965.312 237.848H965.732C965.788 237.848 965.83 237.848 965.858 237.848ZM962.666 242.202H965.858V240.76H962.666V242.202ZM963.338 235.412H962.666V238.758C963.24 238.072 963.338 237.246 963.338 236.574V235.412ZM963.912 232.766V234.544H964.556V232.766H963.912ZM965.844 238.45H965.27C964.724 238.45 964.556 238.324 964.556 237.666V235.412H963.912V236.574C963.912 237.4 963.744 238.492 963.002 239.276C962.932 239.192 962.792 239.052 962.666 238.968V239.976H965.858V238.45H965.844ZM965.284 232.766V234.544H966.642V243.812H965.858V243.028H962.666V244.008H961.896V234.544H963.212V232.766H961.644V231.912H966.852V232.766H965.284ZM967.538 235.23L968.182 235.412C968.098 236.686 967.916 238.212 967.37 239.136L966.796 238.66C967.272 237.862 967.468 236.448 967.538 235.23ZM968.392 237.134V231.576H969.26V237.134C969.26 239.766 969.078 242.188 967.608 244.12C967.426 243.938 967.09 243.672 966.852 243.546C968.224 241.796 968.392 239.556 968.392 237.134ZM969.288 235.636L969.918 235.37C970.268 236.364 970.548 237.624 970.632 238.478L969.946 238.758C969.876 237.904 969.61 236.616 969.288 235.636ZM972.984 231.534L973.88 231.548V244.064H972.984V238.45L972.396 238.702C972.27 237.918 971.892 236.728 971.5 235.776V243.784H970.646V231.786H971.5V235.496L972.046 235.244C972.424 236.056 972.774 237.078 972.984 237.876V231.534ZM979.508 232.878V235.398H981.944V236.364H979.508V236.728C980.04 237.288 981.496 238.996 981.846 239.43L981.216 240.284C980.894 239.752 980.11 238.702 979.508 237.918V244.036H978.486V237.876C977.8 239.5 976.89 241.082 975.994 242.048C975.868 241.768 975.602 241.348 975.406 241.096C976.47 240.032 977.59 238.114 978.22 236.364H975.756V235.398H978.486V233.074C977.702 233.2 976.918 233.312 976.176 233.41C976.12 233.158 976.008 232.822 975.882 232.584C977.73 232.332 979.914 231.912 981.146 231.422L981.846 232.234C981.202 232.472 980.376 232.696 979.508 232.878ZM983.442 241.292H986.564V233.578H983.442V241.292ZM982.42 232.584H987.6V243.35H986.564V242.3H983.442V243.448H982.42V232.584ZM993.564 231.702L994.67 232.01C993.732 234.278 992.248 236.392 990.736 237.764C990.512 237.554 990.036 237.19 989.77 237.022C991.338 235.79 992.738 233.788 993.564 231.702ZM997.554 239.164L998.52 238.716C999.738 240.2 1001.17 242.16 1001.85 243.42L1000.84 243.98C1000.62 243.532 1000.28 242.986 999.92 242.412C992.57 242.916 991.814 242.958 991.296 243.154C991.24 242.93 991.044 242.356 990.89 242.062C991.254 241.978 991.632 241.558 992.164 240.886C992.71 240.27 994.404 237.848 995.524 235.524L996.644 236.028C995.496 238.142 994.124 240.214 992.752 241.838L999.262 241.446C998.702 240.662 998.1 239.85 997.554 239.164ZM997.274 231.996L998.296 231.604C999.22 233.508 1001 235.72 1002.44 236.882C1002.17 237.092 1001.78 237.484 1001.57 237.764C1000.13 236.434 998.352 234.096 997.274 231.996ZM1010.77 238.002H1006.28V240.606H1010.77V238.002ZM1011.79 241.53H1006.28V242.552H1005.25V237.078H1011.79V241.53ZM1012.74 234.642V235.58H1004.37V234.642H1012.74ZM1015.39 232.192V242.524C1015.39 243.238 1015.24 243.602 1014.76 243.784C1014.27 243.966 1013.4 243.98 1012.16 243.98C1012.11 243.672 1011.96 243.154 1011.79 242.86C1012.76 242.888 1013.72 242.888 1014 242.874C1014.27 242.86 1014.34 242.79 1014.34 242.524V233.186H1004.27V232.192H1015.39ZM1021.7 232.906L1021.1 233.774C1020.51 233.34 1019.35 232.668 1018.47 232.206L1019.06 231.464C1019.91 231.87 1021.1 232.5 1021.7 232.906ZM1020.77 236.686L1020.19 237.526C1019.63 237.134 1018.47 236.462 1017.63 236.028L1018.19 235.272C1019.03 235.65 1020.18 236.28 1020.77 236.686ZM1018.85 243.882L1017.97 243.182C1018.72 242.132 1019.8 240.298 1020.61 238.716L1021.37 239.402C1020.63 240.872 1019.66 242.594 1018.85 243.882ZM1028.2 239.458H1023.19V242.51H1028.2V239.458ZM1022.18 244.092V238.492H1029.24V244.05H1028.2V243.476H1023.19V244.092H1022.18ZM1026.41 233.55L1027.28 233.102C1028.42 234.32 1029.64 235.986 1030.2 237.078L1029.28 237.61C1029.15 237.358 1028.98 237.05 1028.79 236.742C1022.75 237.148 1022.1 237.19 1021.66 237.358C1021.62 237.148 1021.44 236.644 1021.31 236.364C1021.61 236.308 1021.9 235.972 1022.28 235.454C1022.68 234.964 1023.96 233.088 1024.76 231.282L1025.83 231.59C1024.98 233.228 1023.97 234.852 1022.98 236.112L1028.17 235.818C1027.64 235.034 1027 234.222 1026.41 233.55ZM930.942 262.186L931.124 263.18C929.626 263.684 928.03 264.23 926.784 264.636L926.546 263.586C927.064 263.432 927.708 263.236 928.422 262.998V259.218H926.84V258.252H928.422V255.214H926.686V254.234H931.026V255.214H929.416V258.252H930.816V259.218H929.416V262.69L930.942 262.186ZM932.664 257.468V259.246H934.792V257.468H932.664ZM932.664 254.836V256.6H934.792V254.836H932.664ZM937.83 256.6V254.836H935.688V256.6H937.83ZM937.83 259.246V257.468H935.688V259.246H937.83ZM935.772 264.664H939.482V265.616H930.466V264.664H934.722V262.746H931.544V261.794H934.722V260.156H931.712V253.926H938.824V260.156H935.772V261.794H939.034V262.746H935.772V264.664ZM949.254 261.766H945.39C945.068 262.186 944.746 262.606 944.424 262.942C945.46 263.166 946.496 263.39 947.49 263.628C948.26 263.152 948.834 262.536 949.254 261.766ZM947.49 259.82H946.692C946.496 260.156 946.272 260.506 946.048 260.856H953.314V261.766H950.402C950.01 262.648 949.45 263.362 948.736 263.95C950.444 264.384 951.984 264.832 953.16 265.252L952.208 266.008C951.06 265.574 949.506 265.07 947.714 264.608C946.16 265.434 944.06 265.868 941.316 266.092C941.246 265.784 941.078 265.406 940.896 265.154C943.122 265.028 944.872 264.762 946.244 264.23C945.124 263.964 943.934 263.698 942.702 263.46C943.164 262.984 943.668 262.396 944.144 261.766H940.7V260.856H944.816C945.166 260.366 945.474 259.862 945.726 259.386L946.468 259.582V257.09C945.166 258.476 943.066 259.666 941.204 260.254C941.05 260.016 940.756 259.638 940.56 259.442C942.198 258.994 944.018 258.084 945.25 257.048H940.854V256.152H946.468V254.752C944.984 254.864 943.444 254.934 942.044 254.976C942.03 254.738 941.918 254.374 941.82 254.15C945.012 254.066 948.918 253.786 950.976 253.31L951.746 254.052C950.57 254.318 949.086 254.528 947.49 254.668V256.152H953.146V257.048H948.75C949.968 258.028 951.788 258.882 953.426 259.288C953.216 259.512 952.908 259.904 952.768 260.156C950.892 259.596 948.806 258.434 947.49 257.09V259.82ZM957.766 254.822V256.404H964.276V254.822H957.766ZM956.702 253.912H965.382V257.328H956.702V253.912ZM960.384 260.408H961.476V261.71C961.476 263.166 960.846 264.958 955.666 266.12C955.54 265.896 955.218 265.476 954.98 265.266C959.992 264.272 960.384 262.788 960.384 261.682V260.408ZM961.392 264.048L961.91 263.292C963.562 263.838 965.844 264.664 967.062 265.252L966.516 266.12C965.368 265.532 963.1 264.636 961.392 264.048ZM956.212 258.546H965.942V263.572H964.836V259.526H957.262V263.67H956.212V258.546ZM969.302 261.29V260.282H980.796V261.29H974.692C973.824 262.438 972.844 263.558 971.836 264.468L978.192 263.992C977.688 263.404 977.1 262.802 976.568 262.312L977.45 261.836C978.696 262.956 980.012 264.44 980.628 265.49L979.704 266.064C979.508 265.728 979.228 265.322 978.92 264.902C971.542 265.518 970.758 265.574 970.24 265.77C970.17 265.546 970.002 265 969.89 264.692C970.184 264.636 970.506 264.37 970.926 263.964C971.318 263.642 972.368 262.536 973.278 261.29H969.302ZM975.056 253.296L976.05 253.73C975.91 253.912 975.77 254.108 975.644 254.29C976.918 255.592 979.186 257.132 981.44 257.902C981.202 258.112 980.88 258.532 980.712 258.826C978.542 257.944 976.358 256.348 975.042 254.99C974.174 255.942 973.096 256.838 971.892 257.608H978.36V258.574H971.71V257.72C970.982 258.182 970.212 258.602 969.4 258.966C969.246 258.7 968.882 258.28 968.644 258.07C971.36 256.922 973.81 255.172 975.056 253.296Z" fill="#3C525E"/>
<rect x="866" y="4" width="176" height="46" rx="2" fill="white" fill-opacity="0.85"/>
<path d="M929.906 26.504H926.518V28.03H929.906V26.504ZM926.518 30.508H929.906V28.912H926.518V30.508ZM922.066 30.508H925.454V28.912H922.066V30.508ZM925.454 26.504H922.066V28.03H925.454V26.504ZM926.518 24.236V25.58H930.928V32.16H929.906V31.432H926.518V34.05H925.454V31.432H922.066V32.216H921.072V25.58H925.454V24.236H926.518ZM926.616 22.78H931.782V25.062H930.718V23.788H921.24V25.062H920.218V22.78H925.65C925.482 22.388 925.244 21.87 925.02 21.492L926.07 21.184C926.35 21.674 926.686 22.318 926.84 22.71L926.616 22.78ZM937.858 23.62L937.158 24.39C936.696 23.788 935.73 22.85 934.96 22.206L935.632 21.534C936.402 22.15 937.382 23.046 937.858 23.62ZM936.948 31.6L938.656 30.452C938.726 30.718 938.908 31.152 938.992 31.362C936.388 33.21 935.996 33.518 935.772 33.812C935.674 33.532 935.408 33.084 935.226 32.86C935.492 32.678 935.898 32.286 935.898 31.698V26.686H933.7V25.664H936.948V31.6ZM946.384 25.916V26.966H942.842V34.078H941.764V26.966H938.208V25.916H941.764V21.338H942.842V25.916H946.384ZM956.254 29.766H952.39C952.068 30.186 951.746 30.606 951.424 30.942C952.46 31.166 953.496 31.39 954.49 31.628C955.26 31.152 955.834 30.536 956.254 29.766ZM954.49 27.82H953.692C953.496 28.156 953.272 28.506 953.048 28.856H960.314V29.766H957.402C957.01 30.648 956.45 31.362 955.736 31.95C957.444 32.384 958.984 32.832 960.16 33.252L959.208 34.008C958.06 33.574 956.506 33.07 954.714 32.608C953.16 33.434 951.06 33.868 948.316 34.092C948.246 33.784 948.078 33.406 947.896 33.154C950.122 33.028 951.872 32.762 953.244 32.23C952.124 31.964 950.934 31.698 949.702 31.46C950.164 30.984 950.668 30.396 951.144 29.766H947.7V28.856H951.816C952.166 28.366 952.474 27.862 952.726 27.386L953.468 27.582V25.09C952.166 26.476 950.066 27.666 948.204 28.254C948.05 28.016 947.756 27.638 947.56 27.442C949.198 26.994 951.018 26.084 952.25 25.048H947.854V24.152H953.468V22.752C951.984 22.864 950.444 22.934 949.044 22.976C949.03 22.738 948.918 22.374 948.82 22.15C952.012 22.066 955.918 21.786 957.976 21.31L958.746 22.052C957.57 22.318 956.086 22.528 954.49 22.668V24.152H960.146V25.048H955.75C956.968 26.028 958.788 26.882 960.426 27.288C960.216 27.512 959.908 27.904 959.768 28.156C957.892 27.596 955.806 26.434 954.49 25.09V27.82ZM964.766 22.822V24.404H971.276V22.822H964.766ZM963.702 21.912H972.382V25.328H963.702V21.912ZM967.384 28.408H968.476V29.71C968.476 31.166 967.846 32.958 962.666 34.12C962.54 33.896 962.218 33.476 961.98 33.266C966.992 32.272 967.384 30.788 967.384 29.682V28.408ZM968.392 32.048L968.91 31.292C970.562 31.838 972.844 32.664 974.062 33.252L973.516 34.12C972.368 33.532 970.1 32.636 968.392 32.048ZM963.212 26.546H972.942V31.572H971.836V27.526H964.262V31.67H963.212V26.546ZM976.302 29.29V28.282H987.796V29.29H981.692C980.824 30.438 979.844 31.558 978.836 32.468L985.192 31.992C984.688 31.404 984.1 30.802 983.568 30.312L984.45 29.836C985.696 30.956 987.012 32.44 987.628 33.49L986.704 34.064C986.508 33.728 986.228 33.322 985.92 32.902C978.542 33.518 977.758 33.574 977.24 33.77C977.17 33.546 977.002 33 976.89 32.692C977.184 32.636 977.506 32.37 977.926 31.964C978.318 31.642 979.368 30.536 980.278 29.29H976.302ZM982.056 21.296L983.05 21.73C982.91 21.912 982.77 22.108 982.644 22.29C983.918 23.592 986.186 25.132 988.44 25.902C988.202 26.112 987.88 26.532 987.712 26.826C985.542 25.944 983.358 24.348 982.042 22.99C981.174 23.942 980.096 24.838 978.892 25.608H985.36V26.574H978.71V25.72C977.982 26.182 977.212 26.602 976.4 26.966C976.246 26.7 975.882 26.28 975.644 26.07C978.36 24.922 980.81 23.172 982.056 21.296Z" fill="#3C525E"/>
<rect x="460" y="4" width="192" height="46" rx="2" fill="white" fill-opacity="0.85"/>
<path d="M536.19 22.794V23.382C536.19 24.628 535.826 26.126 534.202 27.12C534.062 26.896 533.712 26.504 533.544 26.35C535.014 25.482 535.252 24.348 535.252 23.354V21.814H539.536V25.062C539.536 25.454 539.564 25.58 539.76 25.58H540.572C540.754 25.58 541.006 25.552 541.188 25.51C541.202 25.776 541.244 26.168 541.258 26.406C541.118 26.462 540.838 26.476 540.586 26.476H539.69C538.78 26.476 538.584 26.084 538.584 25.034V22.794H536.19ZM530.45 28.408H532.48V26.028H530.478V26.798C530.478 27.288 530.478 27.834 530.45 28.408ZM532.48 22.752H530.478V25.076H532.48V22.752ZM533.418 21.8V32.748C533.418 33.28 533.306 33.588 532.97 33.77C532.634 33.938 532.116 33.952 531.22 33.952C531.178 33.7 531.066 33.252 530.94 32.986C531.542 33 532.074 33 532.242 33C532.41 32.986 532.48 32.916 532.48 32.734V29.374H530.394C530.282 31.012 530.002 32.748 529.372 34.078C529.19 33.924 528.77 33.686 528.532 33.602C529.47 31.642 529.54 28.856 529.54 26.812V21.8H533.418ZM539.34 28.408H535.448C535.91 29.43 536.554 30.354 537.38 31.11C538.206 30.382 538.878 29.472 539.34 28.408ZM540.012 27.386L540.628 27.652C540.11 29.36 539.242 30.704 538.136 31.726C539.088 32.398 540.194 32.902 541.454 33.196C541.244 33.42 540.964 33.826 540.838 34.106C539.508 33.742 538.346 33.154 537.352 32.37C536.33 33.14 535.168 33.686 533.936 34.064C533.838 33.77 533.614 33.378 533.432 33.154C534.566 32.86 535.672 32.384 536.624 31.712C535.742 30.816 535.042 29.738 534.538 28.492L534.748 28.408H533.95V27.428H539.844L540.012 27.386ZM545.64 29.346L546.662 29.612C546.004 31.082 544.94 32.552 543.932 33.504C543.736 33.308 543.302 32.986 543.05 32.818C544.072 31.964 545.066 30.662 545.64 29.346ZM554.18 28.226H550.148V32.65C550.148 33.266 550.008 33.574 549.588 33.742C549.154 33.924 548.44 33.952 547.446 33.952C547.404 33.658 547.222 33.182 547.054 32.888C547.866 32.916 548.608 32.916 548.832 32.902C549.056 32.888 549.112 32.832 549.112 32.636V28.226H546.032C545.206 28.226 544.66 28.296 544.534 28.436C544.464 28.198 544.282 27.652 544.142 27.358C544.464 27.274 544.758 26.882 545.192 26.266C545.43 25.944 545.948 25.132 546.508 24.124H543.134V23.13H547.026C547.348 22.514 547.642 21.856 547.908 21.212L548.986 21.674C548.776 22.15 548.538 22.654 548.286 23.13H554.768V24.124H547.754C547.138 25.244 546.466 26.308 545.808 27.218H549.112V25.174H550.148V27.218H554.194L554.18 28.226ZM551.296 29.752L552.15 29.318C553.242 30.368 554.53 31.838 555.118 32.818L554.18 33.322C553.634 32.37 552.388 30.844 551.296 29.752ZM569.146 26.35H563.868C564.848 29.43 566.668 31.964 569.37 33.07C569.118 33.308 568.768 33.742 568.586 34.05C565.898 32.776 564.12 30.298 563.014 27.12C562.342 29.808 560.83 32.496 557.428 34.05C557.274 33.77 556.938 33.406 556.644 33.196C560.116 31.684 561.516 28.996 562.09 26.35H556.924V25.286H562.258C562.468 23.816 562.454 22.416 562.468 21.31H563.588C563.574 22.43 563.56 23.816 563.364 25.286H569.146V26.35ZM571.302 29.29V28.282H582.796V29.29H576.692C575.824 30.438 574.844 31.558 573.836 32.468L580.192 31.992C579.688 31.404 579.1 30.802 578.568 30.312L579.45 29.836C580.696 30.956 582.012 32.44 582.628 33.49L581.704 34.064C581.508 33.728 581.228 33.322 580.92 32.902C573.542 33.518 572.758 33.574 572.24 33.77C572.17 33.546 572.002 33 571.89 32.692C572.184 32.636 572.506 32.37 572.926 31.964C573.318 31.642 574.368 30.536 575.278 29.29H571.302ZM577.056 21.296L578.05 21.73C577.91 21.912 577.77 22.108 577.644 22.29C578.918 23.592 581.186 25.132 583.44 25.902C583.202 26.112 582.88 26.532 582.712 26.826C580.542 25.944 578.358 24.348 577.042 22.99C576.174 23.942 575.096 24.838 573.892 25.608H580.36V26.574H573.71V25.72C572.982 26.182 572.212 26.602 571.4 26.966C571.246 26.7 570.882 26.28 570.644 26.07C573.36 24.922 575.81 23.172 577.056 21.296Z" fill="#3C525E"/>
<rect y="4" width="176" height="46" rx="2" fill="white" fill-opacity="0.85"/>
<path d="M63.906 26.504H60.518V28.03H63.906V26.504ZM60.518 30.508H63.906V28.912H60.518V30.508ZM56.066 30.508H59.454V28.912H56.066V30.508ZM59.454 26.504H56.066V28.03H59.454V26.504ZM60.518 24.236V25.58H64.928V32.16H63.906V31.432H60.518V34.05H59.454V31.432H56.066V32.216H55.072V25.58H59.454V24.236H60.518ZM60.616 22.78H65.782V25.062H64.718V23.788H55.24V25.062H54.218V22.78H59.65C59.482 22.388 59.244 21.87 59.02 21.492L60.07 21.184C60.35 21.674 60.686 22.318 60.84 22.71L60.616 22.78ZM71.858 23.62L71.158 24.39C70.696 23.788 69.73 22.85 68.96 22.206L69.632 21.534C70.402 22.15 71.382 23.046 71.858 23.62ZM70.948 31.6L72.656 30.452C72.726 30.718 72.908 31.152 72.992 31.362C70.388 33.21 69.996 33.518 69.772 33.812C69.674 33.532 69.408 33.084 69.226 32.86C69.492 32.678 69.898 32.286 69.898 31.698V26.686H67.7V25.664H70.948V31.6ZM80.384 25.916V26.966H76.842V34.078H75.764V26.966H72.208V25.916H75.764V21.338H76.842V25.916H80.384ZM90.254 29.766H86.39C86.068 30.186 85.746 30.606 85.424 30.942C86.46 31.166 87.496 31.39 88.49 31.628C89.26 31.152 89.834 30.536 90.254 29.766ZM88.49 27.82H87.692C87.496 28.156 87.272 28.506 87.048 28.856H94.314V29.766H91.402C91.01 30.648 90.45 31.362 89.736 31.95C91.444 32.384 92.984 32.832 94.16 33.252L93.208 34.008C92.06 33.574 90.506 33.07 88.714 32.608C87.16 33.434 85.06 33.868 82.316 34.092C82.246 33.784 82.078 33.406 81.896 33.154C84.122 33.028 85.872 32.762 87.244 32.23C86.124 31.964 84.934 31.698 83.702 31.46C84.164 30.984 84.668 30.396 85.144 29.766H81.7V28.856H85.816C86.166 28.366 86.474 27.862 86.726 27.386L87.468 27.582V25.09C86.166 26.476 84.066 27.666 82.204 28.254C82.05 28.016 81.756 27.638 81.56 27.442C83.198 26.994 85.018 26.084 86.25 25.048H81.854V24.152H87.468V22.752C85.984 22.864 84.444 22.934 83.044 22.976C83.03 22.738 82.918 22.374 82.82 22.15C86.012 22.066 89.918 21.786 91.976 21.31L92.746 22.052C91.57 22.318 90.086 22.528 88.49 22.668V24.152H94.146V25.048H89.75C90.968 26.028 92.788 26.882 94.426 27.288C94.216 27.512 93.908 27.904 93.768 28.156C91.892 27.596 89.806 26.434 88.49 25.09V27.82ZM98.766 22.822V24.404H105.276V22.822H98.766ZM97.702 21.912H106.382V25.328H97.702V21.912ZM101.384 28.408H102.476V29.71C102.476 31.166 101.846 32.958 96.666 34.12C96.54 33.896 96.218 33.476 95.98 33.266C100.992 32.272 101.384 30.788 101.384 29.682V28.408ZM102.392 32.048L102.91 31.292C104.562 31.838 106.844 32.664 108.062 33.252L107.516 34.12C106.368 33.532 104.1 32.636 102.392 32.048ZM97.212 26.546H106.942V31.572H105.836V27.526H98.262V31.67H97.212V26.546ZM110.302 29.29V28.282H121.796V29.29H115.692C114.824 30.438 113.844 31.558 112.836 32.468L119.192 31.992C118.688 31.404 118.1 30.802 117.568 30.312L118.45 29.836C119.696 30.956 121.012 32.44 121.628 33.49L120.704 34.064C120.508 33.728 120.228 33.322 119.92 32.902C112.542 33.518 111.758 33.574 111.24 33.77C111.17 33.546 111.002 33 110.89 32.692C111.184 32.636 111.506 32.37 111.926 31.964C112.318 31.642 113.368 30.536 114.278 29.29H110.302ZM116.056 21.296L117.05 21.73C116.91 21.912 116.77 22.108 116.644 22.29C117.918 23.592 120.186 25.132 122.44 25.902C122.202 26.112 121.88 26.532 121.712 26.826C119.542 25.944 117.358 24.348 116.042 22.99C115.174 23.942 114.096 24.838 112.892 25.608H119.36V26.574H112.71V25.72C111.982 26.182 111.212 26.602 110.4 26.966C110.246 26.7 109.882 26.28 109.644 26.07C112.36 24.922 114.81 23.172 116.056 21.296Z" fill="#3C525E"/>
<path d="M849 30L806 30L806 378L850 378" stroke="#7BC3F8"/>
<path d="M444 30L435 35.1962L435 24.8038L444 30Z" fill="#7BC3F8"/>
<path d="M438.984 30L364 30L364 374L444 374" stroke="#7BC3F8"/>
<path d="M194 374L288 374L288 134L237.034 134L195.01 134" stroke="#ABBEC9"/>
<path d="M192 374.195L201 368.999L201 379.392L192 374.195Z" fill="#ABBEC9"/>
<path d="M192 134.197L201 129.001L201 139.394L192 134.197Z" fill="#ABBEC9"/>
<path d="M850 390L794 390L794 18L849.062 18" stroke="#ABBEC9"/>
<path d="M442.047 386L352 386L352 42L444 42" stroke="#ABBEC9"/>
<path d="M444 262L435 267.196L435 256.804L444 262Z" fill="#7BC3F8"/>
<path d="M192 250L201 244.804V255.196L192 250Z" fill="#ABBEC9"/>
<path d="M444 250L194 250" stroke="#ABBEC9"/>
<path d="M674 242L850 242" stroke="#7BC3F8"/>
<path d="M668 242L677 236.804L677 247.196L668 242Z" fill="#7BC3F8"/>
<path d="M543 82L543 206" stroke="#7BC3F8"/>
<path d="M543 78L548.196 87L537.804 87L543 78Z" fill="#7BC3F8"/>
<path d="M1061 538L1107.7 538C1107.7 538 1107.7 476.481 1107.7 390M1061.35 30L1107.7 30L1108 254M1108 254C1108 254 1107.7 308.959 1107.7 390M1108 254L1061.3 254M1107.7 390L1061 390" stroke="#7BC3F8"/>
<path d="M1058 30.1964L1067 25.0003L1067 35.3926L1058 30.1964Z" fill="#7BC3F8"/>
<path d="M1058 254.196L1067 249L1067 259.393L1058 254.196Z" fill="#7BC3F8"/>
<path d="M1058 390.195L1067 384.999L1067 395.392L1058 390.195Z" fill="#7BC3F8"/>
<path d="M564 199L564 122L192 122" stroke="#7BC3F8"/>
<path d="M564 206L558.804 197L569.196 197L564 206Z" fill="#7BC3F8"/>
<path d="M850 254L841 259.196L841 248.804L850 254Z" fill="#ABBEC9"/>
<path d="M192.5 238L442.59 238" stroke="#7BC3F8"/>
<path d="M444 238L435.538 243.196V232.804L444 238Z" fill="#7BC3F8"/>
<path d="M193 6L443.09 6" stroke="#7BC3F8"/>
<path d="M444.5 6L436.038 11.1962V0.803848L444.5 6Z" fill="#7BC3F8"/>
<path d="M548 485L548 419" stroke="#ABBEC9"/>
<path d="M548 490L542.804 481L553.196 481L548 490Z" fill="#ABBEC9"/>
<path d="M556 288L556 344" stroke="#7BC3F8"/>
<path d="M556 286L561.196 295L550.804 295L556 286Z" fill="#7BC3F8"/>
<path d="M571.434 454.474H573.226C573.394 454.04 573.59 453.466 573.744 452.99H571.084V452.066H577.258V452.99H574.724C574.528 453.48 574.332 454.026 574.15 454.474H576.852V460.984H575.886V455.272H572.372V461.012H571.434V454.474ZM570.986 455.412L570.342 456.14C569.824 455.37 568.802 454.166 567.864 453.2C567.164 454.474 566.282 455.664 565.232 456.588C565.078 456.406 564.742 456.112 564.518 455.958C565.932 454.768 567.122 452.92 567.738 451.268L568.648 451.534C568.536 451.814 568.41 452.094 568.284 452.388C569.278 453.354 570.44 454.614 570.986 455.412ZM566.898 455.356L567.584 454.95C568.102 455.454 568.69 456.112 568.97 456.546L568.27 457.036C567.99 456.574 567.402 455.86 566.898 455.356ZM569.726 457.54L570.384 457.96C569.838 459.29 568.844 460.914 568.102 461.964C568.592 462.454 569.04 462.944 569.32 463.322L568.578 463.924C567.976 463.098 566.716 461.81 565.666 460.9L566.352 460.368C566.702 460.662 567.066 460.984 567.444 461.334C567.99 460.564 568.648 459.458 569.082 458.52H565.456V457.596H569.558L569.726 457.54ZM573.702 455.902H574.584C574.542 461.026 574.262 463.042 570.706 464.148C570.622 463.924 570.384 463.588 570.188 463.406C573.506 462.44 573.66 460.746 573.702 455.902ZM574.15 461.656L574.766 461.11C575.69 461.796 576.894 462.79 577.468 463.42L576.824 464.064C576.25 463.42 575.06 462.384 574.15 461.656ZM588.514 452.752H581.01V454.222H588.514V452.752ZM588.458 457.484H582.9C580.632 457.484 579.946 457.204 579.946 455.902V451.842H589.536V455.146H581.01V455.888C581.01 456.476 581.304 456.616 582.83 456.616H588.402C589.536 456.616 589.746 456.42 589.858 455.398C590.124 455.552 590.544 455.678 590.852 455.734C590.67 457.148 590.222 457.484 588.458 457.484ZM591.188 458.926L591.174 459.892H588.108V462.818C588.108 463.448 587.94 463.728 587.45 463.868C586.96 464.022 586.12 464.022 584.776 464.022C584.72 463.742 584.566 463.364 584.412 463.084C585.434 463.126 586.442 463.112 586.708 463.098C586.974 463.098 587.058 463.028 587.058 462.804V459.892H581.808C582.662 460.606 583.6 461.558 584.034 462.258L583.264 462.944C582.844 462.216 581.864 461.152 580.996 460.424L581.612 459.892H578.91V458.926H587.058V457.848H588.108V458.926H591.188ZM595.822 463.784C594.926 462.678 593.722 461.474 592.728 460.662L593.638 459.864C594.646 460.676 595.906 461.95 596.774 462.972L595.822 463.784ZM608.576 459.066L611.628 458.506C611.6 458.786 611.614 459.164 611.628 459.374C607.848 460.144 607.358 460.27 607.05 460.424C607.008 460.242 606.854 459.766 606.742 459.528C607.036 459.444 607.4 459.108 607.848 458.59C608.128 458.31 608.744 457.568 609.416 456.658C607.512 456.896 607.162 456.994 606.952 457.092C606.91 456.882 606.756 456.392 606.644 456.112C606.896 456.056 607.148 455.734 607.47 455.258C607.806 454.796 608.898 452.99 609.528 451.282L610.466 451.73C609.78 453.228 608.926 454.754 608.044 455.958L610.06 455.734C610.382 455.244 610.704 454.74 610.984 454.25L611.81 454.74C610.844 456.308 609.71 457.834 608.576 459.066ZM611.53 461.068L611.628 461.95C609.962 462.384 608.226 462.818 606.91 463.154L606.728 462.146C607.918 461.922 609.738 461.474 611.53 461.068ZM613.728 460.102V462.818H617.144V460.102H613.728ZM617.144 452.934H613.728V455.538H617.144V452.934ZM613.728 456.49V459.164H617.144V456.49H613.728ZM618.166 462.818H619.37V463.77H611.32V462.818H612.734V451.982H618.166V462.818ZM631.382 457.442V453.27H627.182V457.442H631.382ZM632.446 452.276V458.436H626.16V452.276H632.446ZM622.52 459.108L625.6 458.534C625.572 458.814 625.572 459.22 625.6 459.444C621.778 460.2 621.302 460.326 620.994 460.522C620.938 460.312 620.784 459.836 620.658 459.57C620.966 459.5 621.302 459.178 621.736 458.66C622.002 458.38 622.59 457.666 623.22 456.756C621.428 456.994 621.092 457.078 620.896 457.162C620.84 456.952 620.672 456.462 620.546 456.182C620.812 456.112 621.05 455.79 621.358 455.314C621.694 454.852 622.73 453.032 623.304 451.338L624.298 451.8C623.654 453.298 622.814 454.838 621.946 456.042L623.836 455.846C624.172 455.356 624.48 454.824 624.76 454.32L625.614 454.824C624.69 456.364 623.626 457.862 622.52 459.108ZM625.544 461.138L625.656 462.048C623.934 462.468 622.156 462.902 620.812 463.252L620.616 462.216C621.848 461.978 623.724 461.558 625.544 461.138ZM627.154 459.794L628.232 460.032C627.756 461.6 626.93 463.084 626.006 464.064C625.81 463.91 625.348 463.602 625.082 463.462C626.02 462.58 626.734 461.222 627.154 459.794ZM630.318 460.116L631.256 459.766C632.026 460.956 632.838 462.538 633.16 463.532L632.138 463.938C631.83 462.944 631.046 461.334 630.318 460.116ZM641.532 461.964H647.258V463H634.77V461.964H640.398V453.928H635.498V452.864H646.558V453.928H641.532V461.964ZM652.018 451.338L653.012 451.66C652.634 452.668 652.13 453.69 651.584 454.656V464.05H650.548V456.266C650.114 456.882 649.638 457.442 649.162 457.932C649.064 457.694 648.756 457.12 648.56 456.896C649.946 455.552 651.234 453.466 652.018 451.338ZM661.412 454.614H657.1V456.616H661.09V457.582H657.1V459.696H661.286V460.676H657.1V464.064H656.05V454.614H655.084C654.482 455.734 653.796 456.742 653.096 457.526C652.928 457.344 652.522 456.994 652.284 456.826C653.544 455.524 654.678 453.508 655.364 451.464L656.358 451.73C656.134 452.374 655.868 453.004 655.588 453.62H661.412V454.614Z" fill="#1A3341" fill-opacity="0.6"/>
<rect x="866" y="357" width="176" height="46" rx="2" fill="white" fill-opacity="0.85"/>
<path d="M931.866 376.858L931.11 377.334C930.83 376.76 930.214 375.878 929.682 375.248L930.396 374.842C930.956 375.458 931.586 376.312 931.866 376.858ZM924.95 385.076V381.52H921.128V385.076H924.95ZM923.312 377.922V380.568H925.916V386.742H924.95V386.028H921.128V386.812H920.19V380.568H922.318V374.366H923.312V376.998H926.21V377.922H923.312ZM931.306 379.448L932.104 379.882C931.614 381.31 930.858 382.724 929.934 383.956C930.27 385.16 930.718 385.874 931.208 385.902C931.502 385.916 931.698 385.16 931.81 383.788C931.992 383.998 932.384 384.236 932.566 384.334C932.272 386.49 931.768 387.092 931.222 387.078C930.34 387.036 929.668 386.224 929.192 384.838C928.45 385.622 927.638 386.294 926.784 386.784C926.616 386.546 926.294 386.224 926.028 386.042C927.064 385.538 928.03 384.74 928.87 383.774C928.562 382.57 928.338 381.072 928.17 379.392L926.252 379.658L926.112 378.776L928.086 378.482C927.988 377.194 927.918 375.808 927.862 374.366H928.842C928.87 375.752 928.94 377.096 929.038 378.342L932.202 377.88L932.342 378.776L929.122 379.238C929.262 380.582 929.43 381.786 929.64 382.78C930.354 381.758 930.928 380.61 931.306 379.448ZM940.308 381.982H945.124C944.242 381.506 943.444 380.918 942.744 380.26C941.988 380.946 941.162 381.52 940.308 381.982ZM940.728 385.594H944.606V382.906H940.728V385.594ZM938.726 378.51V381.674C939.874 381.198 941.05 380.484 942.072 379.588C941.484 378.944 940.994 378.272 940.616 377.628C940.182 378.16 939.72 378.622 939.244 379.014C939.132 378.888 938.922 378.678 938.726 378.51ZM936.752 383.256H937.886V379.924H936.752V383.256ZM934.918 379.924V383.256H936.038V379.924H934.918ZM936.038 376.004H934.918V379.042H936.038V376.004ZM937.886 379.042V376.004H936.752V379.042H937.886ZM944.424 376.648H941.344L941.19 376.872C941.568 377.544 942.086 378.272 942.744 378.944C943.416 378.244 944.004 377.474 944.424 376.648ZM945.11 375.724L945.782 376.06C945.25 377.404 944.424 378.594 943.444 379.602C944.368 380.4 945.474 381.1 946.734 381.548C946.51 381.758 946.216 382.15 946.062 382.43C945.908 382.374 945.768 382.304 945.614 382.234V386.966H944.606V386.518H940.728V386.994H939.748V382.276C939.524 382.388 939.3 382.486 939.076 382.584C939.006 382.43 938.866 382.22 938.726 382.052V384.18H934.918V385.412H934.12V375.108H938.726V378.076C939.902 377.124 940.924 375.738 941.526 374.24L942.506 374.506C942.324 374.94 942.114 375.374 941.876 375.78H944.928L945.11 375.724ZM956.254 382.766H952.39C952.068 383.186 951.746 383.606 951.424 383.942C952.46 384.166 953.496 384.39 954.49 384.628C955.26 384.152 955.834 383.536 956.254 382.766ZM954.49 380.82H953.692C953.496 381.156 953.272 381.506 953.048 381.856H960.314V382.766H957.402C957.01 383.648 956.45 384.362 955.736 384.95C957.444 385.384 958.984 385.832 960.16 386.252L959.208 387.008C958.06 386.574 956.506 386.07 954.714 385.608C953.16 386.434 951.06 386.868 948.316 387.092C948.246 386.784 948.078 386.406 947.896 386.154C950.122 386.028 951.872 385.762 953.244 385.23C952.124 384.964 950.934 384.698 949.702 384.46C950.164 383.984 950.668 383.396 951.144 382.766H947.7V381.856H951.816C952.166 381.366 952.474 380.862 952.726 380.386L953.468 380.582V378.09C952.166 379.476 950.066 380.666 948.204 381.254C948.05 381.016 947.756 380.638 947.56 380.442C949.198 379.994 951.018 379.084 952.25 378.048H947.854V377.152H953.468V375.752C951.984 375.864 950.444 375.934 949.044 375.976C949.03 375.738 948.918 375.374 948.82 375.15C952.012 375.066 955.918 374.786 957.976 374.31L958.746 375.052C957.57 375.318 956.086 375.528 954.49 375.668V377.152H960.146V378.048H955.75C956.968 379.028 958.788 379.882 960.426 380.288C960.216 380.512 959.908 380.904 959.768 381.156C957.892 380.596 955.806 379.434 954.49 378.09V380.82ZM964.766 375.822V377.404H971.276V375.822H964.766ZM963.702 374.912H972.382V378.328H963.702V374.912ZM967.384 381.408H968.476V382.71C968.476 384.166 967.846 385.958 962.666 387.12C962.54 386.896 962.218 386.476 961.98 386.266C966.992 385.272 967.384 383.788 967.384 382.682V381.408ZM968.392 385.048L968.91 384.292C970.562 384.838 972.844 385.664 974.062 386.252L973.516 387.12C972.368 386.532 970.1 385.636 968.392 385.048ZM963.212 379.546H972.942V384.572H971.836V380.526H964.262V384.67H963.212V379.546ZM976.302 382.29V381.282H987.796V382.29H981.692C980.824 383.438 979.844 384.558 978.836 385.468L985.192 384.992C984.688 384.404 984.1 383.802 983.568 383.312L984.45 382.836C985.696 383.956 987.012 385.44 987.628 386.49L986.704 387.064C986.508 386.728 986.228 386.322 985.92 385.902C978.542 386.518 977.758 386.574 977.24 386.77C977.17 386.546 977.002 386 976.89 385.692C977.184 385.636 977.506 385.37 977.926 384.964C978.318 384.642 979.368 383.536 980.278 382.29H976.302ZM982.056 374.296L983.05 374.73C982.91 374.912 982.77 375.108 982.644 375.29C983.918 376.592 986.186 378.132 988.44 378.902C988.202 379.112 987.88 379.532 987.712 379.826C985.542 378.944 983.358 377.348 982.042 375.99C981.174 376.942 980.096 377.838 978.892 378.608H985.36V379.574H978.71V378.72C977.982 379.182 977.212 379.602 976.4 379.966C976.246 379.7 975.882 379.28 975.644 379.07C978.36 377.922 980.81 376.172 982.056 374.296Z" fill="#3C525E"/>
<path d="M672.885 530L719.651 530L720 26L668 26" stroke="#ABBEC9"/>
<path d="M668 530L677 524.804L677 535.196L668 530Z" fill="#ABBEC9"/>
<path d="M440 262H301V386L192 386" stroke="#7BC3F8"/>
<rect x="460" y="225" width="192" height="46" rx="2" fill="white" fill-opacity="0.85"/>
<path d="M539.13 244.942V244.102H535.882V243.248H539.13V242.296H540.152V243.248H543.792V242.296H544.814V243.248H548.118V244.102H544.814V244.872H543.792V244.102H540.152V244.942H539.13ZM538.262 250.892H541.44V250.038H538.262V250.892ZM538.262 248.624V249.45H541.44V248.624H538.262ZM545.738 248.624H542.462V249.45H545.738V248.624ZM545.738 250.892V250.038H542.462V250.892H545.738ZM542.462 253.846H548.216V254.63H535.798V253.846H541.44V252.992H536.848V252.264H541.44V251.522H537.282V247.98H541.44V247.308H535.896V246.552H541.44V245.796C539.942 245.866 538.416 245.908 536.974 245.908C536.96 245.712 536.876 245.404 536.806 245.222C540.124 245.194 544.1 245.012 546.298 244.732L546.956 245.39C545.696 245.558 544.128 245.67 542.462 245.754V246.552H548.132V247.308H542.462V247.98H546.76V251.522H542.462V252.264H547.208V252.992H542.462V253.846ZM559.836 252.152V251.102H556.476V252.152H559.836ZM556.476 249.296V250.276H559.836V249.296H556.476ZM552.43 246.818H555.44V245.81H552.43V246.818ZM559.612 245.81H556.476V246.818H559.612V245.81ZM562.314 250.276V251.102H560.872V253.58H559.836V252.95H556.476V253.916C556.476 254.56 556.28 254.798 555.86 254.952C555.426 255.106 554.698 255.12 553.536 255.12C553.48 254.854 553.312 254.476 553.172 254.238C554.012 254.266 554.852 254.252 555.09 254.252C555.356 254.238 555.44 254.154 555.44 253.916V252.95H550.918V252.152H555.44V251.102H549.714V250.276H555.44V249.296H551.044V248.526H555.44V247.546H551.436V245.082H555.44V244.27H549.98V243.416H555.44V242.296H556.476V243.416H562.048V244.27H556.476V245.082H560.648V247.546H556.476V248.526H560.872V250.276H562.314ZM564.302 250.29V249.282H575.796V250.29H569.692C568.824 251.438 567.844 252.558 566.836 253.468L573.192 252.992C572.688 252.404 572.1 251.802 571.568 251.312L572.45 250.836C573.696 251.956 575.012 253.44 575.628 254.49L574.704 255.064C574.508 254.728 574.228 254.322 573.92 253.902C566.542 254.518 565.758 254.574 565.24 254.77C565.17 254.546 565.002 254 564.89 253.692C565.184 253.636 565.506 253.37 565.926 252.964C566.318 252.642 567.368 251.536 568.278 250.29H564.302ZM570.056 242.296L571.05 242.73C570.91 242.912 570.77 243.108 570.644 243.29C571.918 244.592 574.186 246.132 576.44 246.902C576.202 247.112 575.88 247.532 575.712 247.826C573.542 246.944 571.358 245.348 570.042 243.99C569.174 244.942 568.096 245.838 566.892 246.608H573.36V247.574H566.71V246.72C565.982 247.182 565.212 247.602 564.4 247.966C564.246 247.7 563.882 247.28 563.644 247.07C566.36 245.922 568.81 244.172 570.056 242.296Z" fill="#3C525E"/>
</svg>
