<svg width="336" height="260" viewBox="0 0 336 260" fill="none" xmlns="http://www.w3.org/2000/svg">
<rect width="10" height="10" fill="url(#paint0_linear_829_17395)"/>
<path d="M19.476 3.372L18.6 3.06C18.9 1.572 20.028 0.504 21.816 0.504C23.544 0.504 24.6 1.5 24.6 3.024C24.6 3.828 24.252 4.632 23.82 5.208C23.604 5.508 23.328 5.796 23.004 6.096C22.344 6.684 21.876 6.996 21.192 7.428L20.268 8.004H24.912V9H18.372V8.184L20.196 6.972C20.52 6.768 20.748 6.612 20.88 6.516C21.012 6.432 21.228 6.276 21.516 6.072C21.804 5.868 22.02 5.688 22.164 5.556C22.296 5.424 22.476 5.256 22.68 5.04C23.232 4.44 23.436 3.888 23.496 3.132C23.496 2.04 22.788 1.548 21.744 1.548C21.096 1.548 20.58 1.728 20.208 2.088C19.836 2.448 19.584 2.88 19.476 3.372ZM25.7437 4.8C25.7437 3.504 26.0437 2.46 26.6557 1.68C27.2557 0.9 28.1437 0.504 29.3077 0.504C31.6957 0.504 32.8837 2.076 32.8837 4.8C32.8837 6.108 32.5837 7.14 31.9957 7.92C31.3957 8.7 30.5077 9.096 29.3317 9.096C28.2037 9.096 27.3277 8.7 26.6917 7.908C26.0557 7.116 25.7437 6.084 25.7437 4.8ZM26.8477 4.8C26.8477 6.852 27.7837 8.076 29.3317 8.076C30.9637 8.076 31.7797 6.984 31.7797 4.8C31.7797 2.616 30.9517 1.524 29.3077 1.524C27.6397 1.524 26.8477 2.724 26.8477 4.8ZM34.7399 3.372L33.8639 3.06C34.1639 1.572 35.2919 0.504 37.0799 0.504C38.8079 0.504 39.8639 1.5 39.8639 3.024C39.8639 3.828 39.5159 4.632 39.0839 5.208C38.8679 5.508 38.5919 5.796 38.2679 6.096C37.6079 6.684 37.1399 6.996 36.4559 7.428L35.5319 8.004H40.1759V9H33.6359V8.184L35.4599 6.972C35.7839 6.768 36.0119 6.612 36.1439 6.516C36.2759 6.432 36.4919 6.276 36.7799 6.072C37.0679 5.868 37.2839 5.688 37.4279 5.556C37.5599 5.424 37.7399 5.256 37.9439 5.04C38.4959 4.44 38.6999 3.888 38.7599 3.132C38.7599 2.04 38.0519 1.548 37.0079 1.548C36.3599 1.548 35.8439 1.728 35.4719 2.088C35.0999 2.448 34.8479 2.88 34.7399 3.372ZM41.9676 3.372L41.0916 3.06C41.3916 1.572 42.5196 0.504 44.3076 0.504C46.0356 0.504 47.0916 1.5 47.0916 3.024C47.0916 3.828 46.7436 4.632 46.3116 5.208C46.0956 5.508 45.8196 5.796 45.4956 6.096C44.8356 6.684 44.3676 6.996 43.6836 7.428L42.7596 8.004H47.4036V9H40.8636V8.184L42.6876 6.972C43.0116 6.768 43.2396 6.612 43.3716 6.516C43.5036 6.432 43.7196 6.276 44.0076 6.072C44.2956 5.868 44.5116 5.688 44.6556 5.556C44.7876 5.424 44.9676 5.256 45.1716 5.04C45.7236 4.44 45.9276 3.888 45.9876 3.132C45.9876 2.04 45.2796 1.548 44.2356 1.548C43.5876 1.548 43.0716 1.728 42.6996 2.088C42.3276 2.448 42.0756 2.88 41.9676 3.372Z" fill="#1A3341" fill-opacity="0.6"/>
<rect x="84" width="10" height="10" fill="url(#paint1_linear_829_17395)"/>
<path d="M103.476 3.372L102.6 3.06C102.9 1.572 104.028 0.504 105.816 0.504C107.544 0.504 108.6 1.5 108.6 3.024C108.6 3.828 108.252 4.632 107.82 5.208C107.604 5.508 107.328 5.796 107.004 6.096C106.344 6.684 105.876 6.996 105.192 7.428L104.268 8.004H108.912V9H102.372V8.184L104.196 6.972C104.52 6.768 104.748 6.612 104.88 6.516C105.012 6.432 105.228 6.276 105.516 6.072C105.804 5.868 106.02 5.688 106.164 5.556C106.296 5.424 106.476 5.256 106.68 5.04C107.232 4.44 107.436 3.888 107.496 3.132C107.496 2.04 106.788 1.548 105.744 1.548C105.096 1.548 104.58 1.728 104.208 2.088C103.836 2.448 103.584 2.88 103.476 3.372ZM109.744 4.8C109.744 3.504 110.044 2.46 110.656 1.68C111.256 0.9 112.144 0.504 113.308 0.504C115.696 0.504 116.884 2.076 116.884 4.8C116.884 6.108 116.584 7.14 115.996 7.92C115.396 8.7 114.508 9.096 113.332 9.096C112.204 9.096 111.328 8.7 110.692 7.908C110.056 7.116 109.744 6.084 109.744 4.8ZM110.848 4.8C110.848 6.852 111.784 8.076 113.332 8.076C114.964 8.076 115.78 6.984 115.78 4.8C115.78 2.616 114.952 1.524 113.308 1.524C111.64 1.524 110.848 2.724 110.848 4.8ZM118.74 3.372L117.864 3.06C118.164 1.572 119.292 0.504 121.08 0.504C122.808 0.504 123.864 1.5 123.864 3.024C123.864 3.828 123.516 4.632 123.084 5.208C122.868 5.508 122.592 5.796 122.268 6.096C121.608 6.684 121.14 6.996 120.456 7.428L119.532 8.004H124.176V9H117.636V8.184L119.46 6.972C119.784 6.768 120.012 6.612 120.144 6.516C120.276 6.432 120.492 6.276 120.78 6.072C121.068 5.868 121.284 5.688 121.428 5.556C121.56 5.424 121.74 5.256 121.944 5.04C122.496 4.44 122.7 3.888 122.76 3.132C122.76 2.04 122.052 1.548 121.008 1.548C120.36 1.548 119.844 1.728 119.472 2.088C119.1 2.448 118.848 2.88 118.74 3.372ZM125.836 3.048L124.936 2.64C125.38 1.344 126.544 0.491999 128.284 0.491999C129.112 0.491999 129.796 0.684 130.324 1.068C130.852 1.452 131.116 1.968 131.116 2.604C131.116 3.576 130.6 4.296 129.64 4.572C130.564 4.632 131.308 5.328 131.308 6.576C131.308 7.368 131.02 7.992 130.444 8.436C129.868 8.88 129.136 9.108 128.236 9.108C126.4 9.108 125.128 8.232 124.708 6.852L125.68 6.432C126.196 7.524 127.072 8.076 128.308 8.076C129.472 8.076 130.204 7.536 130.204 6.588C130.204 5.664 129.484 5.196 128.044 5.196H127.108V4.2H127.852C129.16 4.2 130.012 3.612 130.012 2.808C130.012 1.98 129.328 1.512 128.236 1.512C126.952 1.512 126.172 2.172 125.836 3.048Z" fill="#1A3341" fill-opacity="0.6"/>
<path d="M81 44H189C189.552 44 190 44.4477 190 45V61C190 61.5523 189.552 62 189 62H81V44Z" fill="url(#paint2_linear_829_17395)"/>
<path d="M198.49 49.804L198.042 48.754L201.402 47.144H202.2V57H200.996V48.642L198.49 49.804ZM205.105 50.434L204.083 50.07C204.433 48.334 205.749 47.088 207.835 47.088C209.851 47.088 211.083 48.25 211.083 50.028C211.083 50.966 210.677 51.904 210.173 52.576C209.921 52.926 209.599 53.262 209.221 53.612C208.451 54.298 207.905 54.662 207.107 55.166L206.029 55.838H211.447V57H203.817V56.048L205.945 54.634C206.323 54.396 206.589 54.214 206.743 54.102C206.897 54.004 207.149 53.822 207.485 53.584C207.821 53.346 208.073 53.136 208.241 52.982C208.395 52.828 208.605 52.632 208.843 52.38C209.487 51.68 209.725 51.036 209.795 50.154C209.795 48.88 208.969 48.306 207.751 48.306C206.995 48.306 206.393 48.516 205.959 48.936C205.525 49.356 205.231 49.86 205.105 50.434ZM220.566 51.918C220.566 53.584 220.174 54.872 219.376 55.768C218.578 56.678 217.514 57.126 216.184 57.126C214.56 57.126 213.286 56.44 212.656 55.39L213.664 54.69C214.224 55.474 215.246 55.922 216.352 55.922C217.262 55.922 217.99 55.558 218.564 54.83C219.138 54.116 219.376 53.22 219.306 52.156C218.844 53.22 217.682 54.004 216.128 54.004C215.036 54.004 214.14 53.696 213.44 53.066C212.726 52.45 212.376 51.638 212.376 50.644C212.376 49.552 212.754 48.684 213.51 48.04C214.266 47.396 215.274 47.074 216.52 47.074C219.04 47.074 220.566 48.838 220.566 51.918ZM219.096 50.602C218.886 49.3 217.99 48.278 216.38 48.278C214.7 48.278 213.664 49.146 213.664 50.602C213.664 51.988 214.714 52.8 216.352 52.8C217.094 52.8 217.724 52.576 218.214 52.128C218.704 51.68 218.998 51.176 219.096 50.602ZM222.554 57C222.036 57.056 221.644 56.762 221.644 56.258C221.644 55.768 221.952 55.46 222.498 55.46C223.114 55.46 223.52 55.88 223.52 56.664C223.52 58.064 222.75 58.778 221.728 59.016L221.434 58.358C221.742 58.274 222.022 58.106 222.274 57.84C222.512 57.574 222.61 57.294 222.554 57ZM224.538 52.366C224.538 50.672 224.958 49.37 225.784 48.446C226.61 47.536 227.646 47.074 228.892 47.074C230.53 47.074 231.818 47.816 232.364 48.992L231.412 49.636C230.838 48.726 229.984 48.278 228.836 48.278C227.968 48.278 227.24 48.614 226.652 49.286C226.064 49.972 225.77 50.896 225.784 52.086C226.33 51.064 227.604 50.448 229.004 50.448C230.138 50.448 231.048 50.742 231.706 51.344C232.364 51.946 232.7 52.744 232.7 53.724C232.7 54.718 232.336 55.544 231.594 56.174C230.852 56.804 229.928 57.126 228.822 57.126C226.176 57.126 224.538 55.404 224.538 52.366ZM225.938 53.556C226.204 54.942 227.254 55.922 228.808 55.922C229.564 55.922 230.194 55.726 230.684 55.32C231.174 54.928 231.412 54.41 231.412 53.78C231.412 52.394 230.432 51.652 228.934 51.652C228.108 51.652 227.422 51.848 226.89 52.24C226.344 52.632 226.036 53.066 225.938 53.556ZM234.675 50.056L233.625 49.58C234.143 48.068 235.501 47.074 237.531 47.074C238.497 47.074 239.295 47.298 239.911 47.746C240.527 48.194 240.835 48.796 240.835 49.538C240.835 50.672 240.233 51.512 239.113 51.834C240.191 51.904 241.059 52.716 241.059 54.172C241.059 55.096 240.723 55.824 240.051 56.342C239.379 56.86 238.525 57.126 237.475 57.126C235.333 57.126 233.849 56.104 233.359 54.494L234.493 54.004C235.095 55.278 236.117 55.922 237.559 55.922C238.917 55.922 239.771 55.292 239.771 54.186C239.771 53.108 238.931 52.562 237.251 52.562H236.159V51.4H237.027C238.553 51.4 239.547 50.714 239.547 49.776C239.547 48.81 238.749 48.264 237.475 48.264C235.977 48.264 235.067 49.034 234.675 50.056ZM243.329 50.434L242.307 50.07C242.657 48.334 243.973 47.088 246.059 47.088C248.075 47.088 249.307 48.25 249.307 50.028C249.307 50.966 248.901 51.904 248.397 52.576C248.145 52.926 247.823 53.262 247.445 53.612C246.675 54.298 246.129 54.662 245.331 55.166L244.253 55.838H249.671V57H242.041V56.048L244.169 54.634C244.547 54.396 244.813 54.214 244.967 54.102C245.121 54.004 245.373 53.822 245.709 53.584C246.045 53.346 246.297 53.136 246.465 52.982C246.619 52.828 246.829 52.632 247.067 52.38C247.711 51.68 247.949 51.036 248.019 50.154C248.019 48.88 247.193 48.306 245.975 48.306C245.219 48.306 244.617 48.516 244.183 48.936C243.749 49.356 243.455 49.86 243.329 50.434Z" fill="#1A3341"/>
<path d="M81 68H222C222.552 68 223 68.4477 223 69V85C223 85.5523 222.552 86 222 86H81V68Z" fill="url(#paint3_linear_829_17395)"/>
<path d="M231.49 73.804L231.042 72.754L234.402 71.144H235.2V81H233.996V72.642L231.49 73.804ZM242.599 72.39H236.663V71.2H244.097V71.998L239.225 81H237.895L242.599 72.39ZM244.843 76.1C244.843 74.588 245.193 73.37 245.907 72.46C246.607 71.55 247.643 71.088 249.001 71.088C251.787 71.088 253.173 72.922 253.173 76.1C253.173 77.626 252.823 78.83 252.137 79.74C251.437 80.65 250.401 81.112 249.029 81.112C247.713 81.112 246.691 80.65 245.949 79.726C245.207 78.802 244.843 77.598 244.843 76.1ZM246.131 76.1C246.131 78.494 247.223 79.922 249.029 79.922C250.933 79.922 251.885 78.648 251.885 76.1C251.885 73.552 250.919 72.278 249.001 72.278C247.055 72.278 246.131 73.678 246.131 76.1ZM255.157 81C254.639 81.056 254.247 80.762 254.247 80.258C254.247 79.768 254.555 79.46 255.101 79.46C255.717 79.46 256.123 79.88 256.123 80.664C256.123 82.064 255.353 82.778 254.331 83.016L254.037 82.358C254.345 82.274 254.625 82.106 254.877 81.84C255.115 81.574 255.213 81.294 255.157 81ZM257.142 76.1C257.142 74.588 257.492 73.37 258.206 72.46C258.906 71.55 259.942 71.088 261.3 71.088C264.086 71.088 265.472 72.922 265.472 76.1C265.472 77.626 265.122 78.83 264.436 79.74C263.736 80.65 262.7 81.112 261.328 81.112C260.012 81.112 258.99 80.65 258.248 79.726C257.506 78.802 257.142 77.598 257.142 76.1ZM258.43 76.1C258.43 78.494 259.522 79.922 261.328 79.922C263.232 79.922 264.184 78.648 264.184 76.1C264.184 73.552 263.218 72.278 261.3 72.278C259.354 72.278 258.43 73.678 258.43 76.1ZM272.131 72.39H266.195V71.2H273.629V71.998L268.757 81H267.427L272.131 72.39ZM278.239 75.414H278.673C279.303 75.414 279.821 75.26 280.255 74.966C280.675 74.672 280.885 74.28 280.885 73.818C280.885 72.768 280.059 72.236 278.421 72.236C276.853 72.236 275.999 72.81 275.999 73.818C275.999 74.728 276.937 75.414 278.239 75.414ZM278.645 76.52H278.295C277.539 76.52 276.909 76.688 276.419 77.01C275.929 77.332 275.677 77.738 275.677 78.228C275.677 79.292 276.657 79.964 278.435 79.964C280.241 79.964 281.207 79.32 281.207 78.242C281.207 77.164 280.171 76.52 278.645 76.52ZM281.403 80.37C280.689 80.874 279.695 81.126 278.449 81.126C277.203 81.126 276.209 80.874 275.481 80.384C274.753 79.894 274.389 79.222 274.389 78.354C274.389 77.22 275.131 76.324 276.321 75.932C275.243 75.582 274.711 74.728 274.711 73.734C274.711 72.11 276.083 71.074 278.435 71.074C280.801 71.074 282.173 72.11 282.173 73.734C282.173 74.672 281.655 75.386 280.619 75.862C281.865 76.24 282.481 77.052 282.481 78.298C282.481 79.18 282.117 79.88 281.403 80.37Z" fill="#1A3341"/>
<path opacity="0.6" d="M14.432 49.5V48.576H11.792V47.772H14.432V46.968H15.308V47.772H18.668V46.968H19.532V47.772H22.232V48.576H19.532V49.512H18.668V48.576H15.308V49.5H14.432ZM13.904 51.996V52.98H20.156V51.996H13.904ZM13.904 50.376V51.348H20.156V50.376H13.904ZM22.292 55.404H17.984C18.884 56.4 20.456 56.94 22.508 57.12C22.316 57.324 22.088 57.672 21.98 57.924C19.676 57.636 17.984 56.88 17.024 55.404H16.952C16.28 56.736 14.912 57.516 11.888 57.936C11.828 57.708 11.624 57.336 11.48 57.144C14.048 56.868 15.296 56.316 15.944 55.404H11.72V54.6H16.352C16.448 54.312 16.52 53.988 16.58 53.652H13.052V49.704H21.032V53.652H17.456C17.396 53.988 17.336 54.312 17.252 54.6H22.292V55.404ZM25.46 52.992V54.216H27.656V52.992H25.46ZM27.656 49.344H25.46V50.436H27.656V49.344ZM25.46 51.156V52.272H27.656V51.156H25.46ZM29.42 54.216V55.02H23.504V54.216H24.644V49.344H23.684V48.54H24.644V47.088H25.46V48.54H27.656V47.088H28.484V48.54H29.36V49.344H28.484V54.216H29.42ZM25.184 55.272L26.036 55.5C25.64 56.376 24.992 57.252 24.368 57.816C24.224 57.66 23.864 57.408 23.66 57.288C24.284 56.772 24.848 56.016 25.184 55.272ZM26.816 55.62L27.512 55.284C27.932 55.74 28.4 56.376 28.616 56.784L27.872 57.18C27.68 56.76 27.212 56.088 26.816 55.62ZM34.484 50.964V51.804H33.236V57.936H32.396V51.804H30.62V52.332C30.62 54.528 30.38 56.484 28.868 58.104C28.712 57.912 28.436 57.672 28.22 57.528C29.612 56.04 29.792 54.204 29.792 52.32V48.204C31.184 47.904 32.78 47.436 33.68 46.98L34.388 47.628C33.392 48.096 31.952 48.48 30.62 48.78V50.964H34.484ZM43.556 49.428L42.944 50.004C42.572 49.5 41.744 48.792 41.036 48.3L41.6 47.784C42.32 48.24 43.16 48.924 43.556 49.428ZM43.268 52.584L42.68 53.172C42.248 52.644 41.324 51.9 40.568 51.42L41.12 50.892C41.888 51.36 42.824 52.068 43.268 52.584ZM40.112 53.436L39.572 54.132C39.368 53.736 38.864 52.956 38.456 52.344V57.9H37.58V52.596C37.088 53.796 36.464 54.984 35.84 55.728C35.756 55.488 35.54 55.128 35.396 54.924C36.152 54.072 36.992 52.536 37.46 51.156H35.564V50.316H37.58V48.504C37.028 48.612 36.464 48.708 35.936 48.78C35.888 48.588 35.768 48.276 35.672 48.084C37.016 47.868 38.588 47.52 39.488 47.124L40.028 47.832C39.584 48.012 39.032 48.18 38.456 48.312V50.316H40.22V51.156H38.456V51.372C38.828 51.792 39.86 53.112 40.112 53.436ZM46.532 54.516L44.996 54.768V57.9H44.12V54.912L40.208 55.56L40.064 54.708L44.12 54.06V46.956H44.996V53.916L46.4 53.7L46.532 54.516ZM53.432 53.148H56.876V49.968H53.432V53.148ZM49.076 53.148H52.508V49.968H49.076V53.148ZM53.432 49.092H57.788V54.708H56.876V54.024H53.432V57.912H52.508V54.024H49.076V54.768H48.2V49.092H52.508V46.956H53.432V49.092ZM63.128 47.964L63.716 47.376C64.832 48.144 66.26 49.272 66.944 50.028L66.308 50.688C65.648 49.944 64.256 48.768 63.128 47.964ZM68.108 51.192L68.936 50.868C69.632 52.296 70.292 54.132 70.544 55.368L69.668 55.716C69.428 54.48 68.78 52.596 68.108 51.192ZM60.656 51.18L61.52 51.348C61.328 52.752 60.956 54.78 60.464 56.052L59.576 55.68C60.092 54.456 60.488 52.584 60.656 51.18ZM62.564 50.28H63.464V56.196C63.464 56.748 63.608 56.856 64.292 56.856H66.584C67.328 56.856 67.436 56.436 67.532 54.372C67.748 54.54 68.12 54.696 68.372 54.768C68.24 57.036 67.964 57.696 66.632 57.696H64.22C62.924 57.696 62.564 57.372 62.564 56.184V50.28Z" fill="#1A3341"/>
<path d="M81 119H92C92.5523 119 93 119.448 93 120V136C93 136.552 92.5523 137 92 137H81V119Z" fill="url(#paint4_linear_829_17395)"/>
<path d="M101.49 124.804L101.042 123.754L104.402 122.144H105.2V132H103.996V123.642L101.49 124.804ZM113.747 132H112.529V129.998H106.537V129.186L112.669 122.2H113.747V128.864H115.567V129.998H113.747V132ZM112.529 124.16L108.217 128.864H112.529V124.16ZM117.19 132C116.672 132.056 116.28 131.762 116.28 131.258C116.28 130.768 116.588 130.46 117.134 130.46C117.75 130.46 118.156 130.88 118.156 131.664C118.156 133.064 117.386 133.778 116.364 134.016L116.07 133.358C116.378 133.274 116.658 133.106 116.91 132.84C117.148 132.574 117.246 132.294 117.19 132ZM119.174 127.1C119.174 125.588 119.524 124.37 120.238 123.46C120.938 122.55 121.974 122.088 123.332 122.088C126.118 122.088 127.504 123.922 127.504 127.1C127.504 128.626 127.154 129.83 126.468 130.74C125.768 131.65 124.732 132.112 123.36 132.112C122.044 132.112 121.022 131.65 120.28 130.726C119.538 129.802 119.174 128.598 119.174 127.1ZM120.462 127.1C120.462 129.494 121.554 130.922 123.36 130.922C125.264 130.922 126.216 129.648 126.216 127.1C126.216 124.552 125.25 123.278 123.332 123.278C121.386 123.278 120.462 124.678 120.462 127.1ZM136.698 126.918C136.698 128.584 136.306 129.872 135.508 130.768C134.71 131.678 133.646 132.126 132.316 132.126C130.692 132.126 129.418 131.44 128.788 130.39L129.796 129.69C130.356 130.474 131.378 130.922 132.484 130.922C133.394 130.922 134.122 130.558 134.696 129.83C135.27 129.116 135.508 128.22 135.438 127.156C134.976 128.22 133.814 129.004 132.26 129.004C131.168 129.004 130.272 128.696 129.572 128.066C128.858 127.45 128.508 126.638 128.508 125.644C128.508 124.552 128.886 123.684 129.642 123.04C130.398 122.396 131.406 122.074 132.652 122.074C135.172 122.074 136.698 123.838 136.698 126.918ZM135.228 125.602C135.018 124.3 134.122 123.278 132.512 123.278C130.832 123.278 129.796 124.146 129.796 125.602C129.796 126.988 130.846 127.8 132.484 127.8C133.226 127.8 133.856 127.576 134.346 127.128C134.836 126.68 135.13 126.176 135.228 125.602ZM141.612 126.414H142.046C142.676 126.414 143.194 126.26 143.628 125.966C144.048 125.672 144.258 125.28 144.258 124.818C144.258 123.768 143.432 123.236 141.794 123.236C140.226 123.236 139.372 123.81 139.372 124.818C139.372 125.728 140.31 126.414 141.612 126.414ZM142.018 127.52H141.668C140.912 127.52 140.282 127.688 139.792 128.01C139.302 128.332 139.05 128.738 139.05 129.228C139.05 130.292 140.03 130.964 141.808 130.964C143.614 130.964 144.58 130.32 144.58 129.242C144.58 128.164 143.544 127.52 142.018 127.52ZM144.776 131.37C144.062 131.874 143.068 132.126 141.822 132.126C140.576 132.126 139.582 131.874 138.854 131.384C138.126 130.894 137.762 130.222 137.762 129.354C137.762 128.22 138.504 127.324 139.694 126.932C138.616 126.582 138.084 125.728 138.084 124.734C138.084 123.11 139.456 122.074 141.808 122.074C144.174 122.074 145.546 123.11 145.546 124.734C145.546 125.672 145.028 126.386 143.992 126.862C145.238 127.24 145.854 128.052 145.854 129.298C145.854 130.18 145.49 130.88 144.776 131.37Z" fill="#1A3341"/>
<path d="M81 143H129C129.552 143 130 143.448 130 144V160C130 160.552 129.552 161 129 161H81V143Z" fill="url(#paint5_linear_829_17395)"/>
<path d="M140.03 151.492L139.022 151.226L139.596 146.2H145.756V147.39H140.674L140.31 150.022C140.8 149.658 141.542 149.476 142.536 149.476C143.684 149.476 144.58 149.784 145.238 150.386C145.882 151.002 146.204 151.786 146.204 152.752C146.204 153.718 145.84 154.53 145.126 155.16C144.398 155.804 143.488 156.126 142.41 156.126C140.576 156.126 139.05 155.258 138.42 153.732L139.54 153.256C139.946 154.194 140.996 154.936 142.41 154.936C144.02 154.936 144.916 154.012 144.916 152.794C144.916 151.492 143.866 150.652 142.2 150.652C141.304 150.652 140.576 150.932 140.03 151.492ZM155.415 150.918C155.415 152.584 155.023 153.872 154.225 154.768C153.427 155.678 152.363 156.126 151.033 156.126C149.409 156.126 148.135 155.44 147.505 154.39L148.513 153.69C149.073 154.474 150.095 154.922 151.201 154.922C152.111 154.922 152.839 154.558 153.413 153.83C153.987 153.116 154.225 152.22 154.155 151.156C153.693 152.22 152.531 153.004 150.977 153.004C149.885 153.004 148.989 152.696 148.289 152.066C147.575 151.45 147.225 150.638 147.225 149.644C147.225 148.552 147.603 147.684 148.359 147.04C149.115 146.396 150.123 146.074 151.369 146.074C153.889 146.074 155.415 147.838 155.415 150.918ZM153.945 149.602C153.735 148.3 152.839 147.278 151.229 147.278C149.549 147.278 148.513 148.146 148.513 149.602C148.513 150.988 149.563 151.8 151.201 151.8C151.943 151.8 152.573 151.576 153.063 151.128C153.553 150.68 153.847 150.176 153.945 149.602ZM157.403 156C156.885 156.056 156.493 155.762 156.493 155.258C156.493 154.768 156.801 154.46 157.347 154.46C157.963 154.46 158.369 154.88 158.369 155.664C158.369 157.064 157.599 157.778 156.577 158.016L156.283 157.358C156.591 157.274 156.871 157.106 157.123 156.84C157.361 156.574 157.459 156.294 157.403 156ZM166.149 156H164.931V153.998H158.939V153.186L165.071 146.2H166.149V152.864H167.969V153.998H166.149V156ZM164.931 148.16L160.619 152.864H164.931V148.16ZM176.801 150.918C176.801 152.584 176.409 153.872 175.611 154.768C174.813 155.678 173.749 156.126 172.419 156.126C170.795 156.126 169.521 155.44 168.891 154.39L169.899 153.69C170.459 154.474 171.481 154.922 172.587 154.922C173.497 154.922 174.225 154.558 174.799 153.83C175.373 153.116 175.611 152.22 175.541 151.156C175.079 152.22 173.917 153.004 172.363 153.004C171.271 153.004 170.375 152.696 169.675 152.066C168.961 151.45 168.611 150.638 168.611 149.644C168.611 148.552 168.989 147.684 169.745 147.04C170.501 146.396 171.509 146.074 172.755 146.074C175.275 146.074 176.801 147.838 176.801 150.918ZM175.331 149.602C175.121 148.3 174.225 147.278 172.615 147.278C170.935 147.278 169.899 148.146 169.899 149.602C169.899 150.988 170.949 151.8 172.587 151.8C173.329 151.8 173.959 151.576 174.449 151.128C174.939 150.68 175.233 150.176 175.331 149.602ZM184.613 156H183.395V153.998H177.403V153.186L183.535 146.2H184.613V152.864H186.433V153.998H184.613V156ZM183.395 148.16L179.083 152.864H183.395V148.16Z" fill="#1A3341"/>
<path opacity="0.6" d="M20.64 144.16H27.336V141.364H20.64V144.16ZM27.336 137.764H20.64V140.488H27.336V137.764ZM23.664 136.876H28.26V145.864H27.336V145.048H20.64V145.924H19.764V136.876H22.692C22.956 136.264 23.208 135.484 23.352 134.92L24.456 135.124C24.228 135.712 23.94 136.348 23.664 136.876ZM41.28 137.62L40.584 137.956C40.356 137.356 39.828 136.396 39.348 135.688L40.02 135.4C40.512 136.096 41.052 137.032 41.28 137.62ZM32.832 135.028L33.648 135.268C33.396 136.048 33.072 136.852 32.712 137.62V145.924H31.86V139.204C31.512 139.792 31.116 140.332 30.732 140.812C30.648 140.596 30.408 140.128 30.264 139.9C31.296 138.7 32.256 136.876 32.832 135.028ZM40.26 140.032L41.052 140.248C40.608 141.34 40.032 142.336 39.348 143.2C39.624 144.388 40.008 145.084 40.464 145.084C40.704 145.084 40.836 144.508 40.872 143.104C41.052 143.284 41.34 143.476 41.544 143.56C41.412 145.384 41.148 145.936 40.356 145.936C39.588 145.936 39.06 145.216 38.688 143.992C38.148 144.568 37.572 145.072 36.972 145.504C36.852 145.336 36.552 145.012 36.372 144.856C37.128 144.376 37.824 143.764 38.448 143.056C38.232 142.036 38.088 140.824 37.992 139.456H36.048V141.292L37.656 140.86L37.752 141.664C37.188 141.832 36.612 141.976 36.048 142.144V144.832C36.048 145.36 35.928 145.588 35.604 145.732C35.268 145.876 34.716 145.9 33.9 145.9C33.864 145.66 33.744 145.3 33.624 145.06C34.236 145.072 34.8 145.072 34.968 145.06C35.148 145.06 35.208 145.012 35.208 144.832V142.372L33.384 142.876L33.132 142.012C33.696 141.892 34.428 141.712 35.208 141.496V139.456H33.228V138.664H35.208V136.756C34.632 136.912 34.032 137.044 33.48 137.164C33.456 136.96 33.324 136.66 33.216 136.468C34.56 136.156 36.132 135.712 37.02 135.268L37.68 135.952C37.212 136.156 36.648 136.36 36.048 136.54V138.664H37.968C37.908 137.536 37.884 136.336 37.872 135.088H38.748C38.736 136.36 38.76 137.56 38.808 138.664H41.28V139.456H38.844C38.916 140.464 39.012 141.376 39.144 142.144C39.588 141.496 39.96 140.788 40.26 140.032ZM51.768 138.04V136.24H49.74V138.04H51.768ZM48.912 138.04V136.24H46.944V138.04H48.912ZM46.116 138.04V136.24H44.196V138.04H46.116ZM52.656 135.472V138.82H46.92L47.484 139.012C47.268 139.348 47.016 139.696 46.728 140.02H51.372L51.528 139.984L52.116 140.356C50.652 143.764 47.244 145.276 43.476 145.936C43.38 145.72 43.14 145.324 42.96 145.156C44.664 144.892 46.272 144.472 47.64 143.788C47.124 143.188 46.32 142.456 45.612 141.928L46.308 141.496C47.016 142.024 47.856 142.768 48.408 143.356C49.44 142.708 50.292 141.868 50.868 140.812H45.948C45.264 141.436 44.472 141.988 43.656 142.384C43.536 142.204 43.26 141.868 43.092 141.712C44.508 141.064 45.876 139.924 46.536 138.82H43.344V135.472H52.656ZM56.46 140.992V142.216H58.656V140.992H56.46ZM58.656 137.344H56.46V138.436H58.656V137.344ZM56.46 139.156V140.272H58.656V139.156H56.46ZM60.42 142.216V143.02H54.504V142.216H55.644V137.344H54.684V136.54H55.644V135.088H56.46V136.54H58.656V135.088H59.484V136.54H60.36V137.344H59.484V142.216H60.42ZM56.184 143.272L57.036 143.5C56.64 144.376 55.992 145.252 55.368 145.816C55.224 145.66 54.864 145.408 54.66 145.288C55.284 144.772 55.848 144.016 56.184 143.272ZM57.816 143.62L58.512 143.284C58.932 143.74 59.4 144.376 59.616 144.784L58.872 145.18C58.68 144.76 58.212 144.088 57.816 143.62ZM65.484 138.964V139.804H64.236V145.936H63.396V139.804H61.62V140.332C61.62 142.528 61.38 144.484 59.868 146.104C59.712 145.912 59.436 145.672 59.22 145.528C60.612 144.04 60.792 142.204 60.792 140.32V136.204C62.184 135.904 63.78 135.436 64.68 134.98L65.388 135.628C64.392 136.096 62.952 136.48 61.62 136.78V138.964H65.484Z" fill="#1A3341"/>
<path d="M81 194H96C96.5523 194 97 194.448 97 195V211C97 211.552 96.5523 212 96 212H81V194Z" fill="url(#paint6_linear_829_17395)"/>
<path d="M105.49 199.804L105.042 198.754L108.402 197.144H109.2V207H107.996V198.642L105.49 199.804ZM114.849 201.414H115.283C115.913 201.414 116.431 201.26 116.865 200.966C117.285 200.672 117.495 200.28 117.495 199.818C117.495 198.768 116.669 198.236 115.031 198.236C113.463 198.236 112.609 198.81 112.609 199.818C112.609 200.728 113.547 201.414 114.849 201.414ZM115.255 202.52H114.905C114.149 202.52 113.519 202.688 113.029 203.01C112.539 203.332 112.287 203.738 112.287 204.228C112.287 205.292 113.267 205.964 115.045 205.964C116.851 205.964 117.817 205.32 117.817 204.242C117.817 203.164 116.781 202.52 115.255 202.52ZM118.013 206.37C117.299 206.874 116.305 207.126 115.059 207.126C113.813 207.126 112.819 206.874 112.091 206.384C111.363 205.894 110.999 205.222 110.999 204.354C110.999 203.22 111.741 202.324 112.931 201.932C111.853 201.582 111.321 200.728 111.321 199.734C111.321 198.11 112.693 197.074 115.045 197.074C117.411 197.074 118.783 198.11 118.783 199.734C118.783 200.672 118.265 201.386 117.229 201.862C118.475 202.24 119.091 203.052 119.091 204.298C119.091 205.18 118.727 205.88 118.013 206.37ZM121.121 207C120.603 207.056 120.211 206.762 120.211 206.258C120.211 205.768 120.519 205.46 121.065 205.46C121.681 205.46 122.087 205.88 122.087 206.664C122.087 208.064 121.317 208.778 120.295 209.016L120.001 208.358C120.309 208.274 120.589 208.106 120.841 207.84C121.079 207.574 121.177 207.294 121.121 207ZM131.254 201.918C131.254 203.584 130.862 204.872 130.064 205.768C129.266 206.678 128.202 207.126 126.872 207.126C125.248 207.126 123.974 206.44 123.344 205.39L124.352 204.69C124.912 205.474 125.934 205.922 127.04 205.922C127.95 205.922 128.678 205.558 129.252 204.83C129.826 204.116 130.064 203.22 129.994 202.156C129.532 203.22 128.37 204.004 126.816 204.004C125.724 204.004 124.828 203.696 124.128 203.066C123.414 202.45 123.064 201.638 123.064 200.644C123.064 199.552 123.442 198.684 124.198 198.04C124.954 197.396 125.962 197.074 127.208 197.074C129.728 197.074 131.254 198.838 131.254 201.918ZM129.784 200.602C129.574 199.3 128.678 198.278 127.068 198.278C125.388 198.278 124.352 199.146 124.352 200.602C124.352 201.988 125.402 202.8 127.04 202.8C127.782 202.8 128.412 202.576 128.902 202.128C129.392 201.68 129.686 201.176 129.784 200.602ZM133.424 200.434L132.402 200.07C132.752 198.334 134.068 197.088 136.154 197.088C138.17 197.088 139.402 198.25 139.402 200.028C139.402 200.966 138.996 201.904 138.492 202.576C138.24 202.926 137.918 203.262 137.54 203.612C136.77 204.298 136.224 204.662 135.426 205.166L134.348 205.838H139.766V207H132.136V206.048L134.264 204.634C134.642 204.396 134.908 204.214 135.062 204.102C135.216 204.004 135.468 203.822 135.804 203.584C136.14 203.346 136.392 203.136 136.56 202.982C136.714 202.828 136.924 202.632 137.162 202.38C137.806 201.68 138.044 201.036 138.114 200.154C138.114 198.88 137.288 198.306 136.07 198.306C135.314 198.306 134.712 198.516 134.278 198.936C133.844 199.356 133.55 199.86 133.424 200.434ZM144.6 201.414H145.034C145.664 201.414 146.182 201.26 146.616 200.966C147.036 200.672 147.246 200.28 147.246 199.818C147.246 198.768 146.42 198.236 144.782 198.236C143.214 198.236 142.36 198.81 142.36 199.818C142.36 200.728 143.298 201.414 144.6 201.414ZM145.006 202.52H144.656C143.9 202.52 143.27 202.688 142.78 203.01C142.29 203.332 142.038 203.738 142.038 204.228C142.038 205.292 143.018 205.964 144.796 205.964C146.602 205.964 147.568 205.32 147.568 204.242C147.568 203.164 146.532 202.52 145.006 202.52ZM147.764 206.37C147.05 206.874 146.056 207.126 144.81 207.126C143.564 207.126 142.57 206.874 141.842 206.384C141.114 205.894 140.75 205.222 140.75 204.354C140.75 203.22 141.492 202.324 142.682 201.932C141.604 201.582 141.072 200.728 141.072 199.734C141.072 198.11 142.444 197.074 144.796 197.074C147.162 197.074 148.534 198.11 148.534 199.734C148.534 200.672 148.016 201.386 146.98 201.862C148.226 202.24 148.842 203.052 148.842 204.298C148.842 205.18 148.478 205.88 147.764 206.37Z" fill="#1A3341"/>
<path d="M81 218H102C102.552 218 103 218.448 103 219V235C103 235.552 102.552 236 102 236H81V218Z" fill="url(#paint7_linear_829_17395)"/>
<path d="M112.722 224.434L111.7 224.07C112.05 222.334 113.366 221.088 115.452 221.088C117.468 221.088 118.7 222.25 118.7 224.028C118.7 224.966 118.294 225.904 117.79 226.576C117.538 226.926 117.216 227.262 116.838 227.612C116.068 228.298 115.522 228.662 114.724 229.166L113.646 229.838H119.064V231H111.434V230.048L113.562 228.634C113.94 228.396 114.206 228.214 114.36 228.102C114.514 228.004 114.766 227.822 115.102 227.584C115.438 227.346 115.69 227.136 115.858 226.982C116.012 226.828 116.222 226.632 116.46 226.38C117.104 225.68 117.342 225.036 117.412 224.154C117.412 222.88 116.586 222.306 115.368 222.306C114.612 222.306 114.01 222.516 113.576 222.936C113.142 223.356 112.848 223.86 112.722 224.434ZM121.462 226.492L120.454 226.226L121.028 221.2H127.188V222.39H122.106L121.742 225.022C122.232 224.658 122.974 224.476 123.968 224.476C125.116 224.476 126.012 224.784 126.67 225.386C127.314 226.002 127.636 226.786 127.636 227.752C127.636 228.718 127.272 229.53 126.558 230.16C125.83 230.804 124.92 231.126 123.842 231.126C122.008 231.126 120.482 230.258 119.852 228.732L120.972 228.256C121.378 229.194 122.428 229.936 123.842 229.936C125.452 229.936 126.348 229.012 126.348 227.794C126.348 226.492 125.298 225.652 123.632 225.652C122.736 225.652 122.008 225.932 121.462 226.492ZM129.637 231C129.119 231.056 128.727 230.762 128.727 230.258C128.727 229.768 129.035 229.46 129.581 229.46C130.197 229.46 130.603 229.88 130.603 230.664C130.603 232.064 129.833 232.778 128.811 233.016L128.517 232.358C128.825 232.274 129.105 232.106 129.357 231.84C129.595 231.574 129.693 231.294 129.637 231ZM133.049 226.492L132.041 226.226L132.615 221.2H138.775V222.39H133.693L133.329 225.022C133.819 224.658 134.561 224.476 135.555 224.476C136.703 224.476 137.599 224.784 138.257 225.386C138.901 226.002 139.223 226.786 139.223 227.752C139.223 228.718 138.859 229.53 138.145 230.16C137.417 230.804 136.507 231.126 135.429 231.126C133.595 231.126 132.069 230.258 131.439 228.732L132.559 228.256C132.965 229.194 134.015 229.936 135.429 229.936C137.039 229.936 137.935 229.012 137.935 227.794C137.935 226.492 136.885 225.652 135.219 225.652C134.323 225.652 133.595 225.932 133.049 226.492ZM141.714 226.492L140.706 226.226L141.28 221.2H147.44V222.39H142.358L141.994 225.022C142.484 224.658 143.226 224.476 144.22 224.476C145.368 224.476 146.264 224.784 146.922 225.386C147.566 226.002 147.888 226.786 147.888 227.752C147.888 228.718 147.524 229.53 146.81 230.16C146.082 230.804 145.172 231.126 144.094 231.126C142.26 231.126 140.734 230.258 140.104 228.732L141.224 228.256C141.63 229.194 142.68 229.936 144.094 229.936C145.704 229.936 146.6 229.012 146.6 227.794C146.6 226.492 145.55 225.652 143.884 225.652C142.988 225.652 142.26 225.932 141.714 226.492ZM148.951 226.1C148.951 224.588 149.301 223.37 150.015 222.46C150.715 221.55 151.751 221.088 153.109 221.088C155.895 221.088 157.281 222.922 157.281 226.1C157.281 227.626 156.931 228.83 156.245 229.74C155.545 230.65 154.509 231.112 153.137 231.112C151.821 231.112 150.799 230.65 150.057 229.726C149.315 228.802 148.951 227.598 148.951 226.1ZM150.239 226.1C150.239 228.494 151.331 229.922 153.137 229.922C155.041 229.922 155.993 228.648 155.993 226.1C155.993 223.552 155.027 222.278 153.109 222.278C151.163 222.278 150.239 223.678 150.239 226.1Z" fill="#1A3341"/>
<path opacity="0.6" d="M26.768 211.22V212.528H31.208V211.22H26.768ZM31.208 207.2H26.768V208.388H31.208V207.2ZM26.768 209.156V210.452H31.208V209.156H26.768ZM34.292 212.528L34.304 213.356H23.696V212.528H25.892V207.2H24.032V206.36H25.892V204.992H26.768V206.36H31.208V204.992H32.096V206.36H34.016V207.2H32.096V212.528H34.292ZM27.344 213.572L28.136 214.124C27.068 214.784 25.448 215.468 24.164 215.9C24.032 215.708 23.768 215.408 23.576 215.216C24.872 214.832 26.504 214.148 27.344 213.572ZM29.888 214.196L30.488 213.632C31.892 214.124 33.416 214.784 34.34 215.276L33.536 215.876C32.696 215.372 31.268 214.712 29.888 214.196ZM38.228 205.004L39.044 205.256C38.708 206.12 38.3 206.984 37.832 207.8V215.9H36.956V209.168C36.584 209.696 36.176 210.188 35.768 210.608C35.672 210.416 35.42 209.96 35.264 209.768C36.44 208.616 37.556 206.828 38.228 205.004ZM41.672 214.952H44.732C45.464 214.952 45.584 214.628 45.692 213.212C45.908 213.368 46.256 213.524 46.52 213.584C46.364 215.228 46.088 215.756 44.768 215.756H41.636C40.208 215.756 39.788 215.42 39.788 214.112V210.212L38.624 210.668L38.276 209.888L39.788 209.3V206.144H40.664V208.952L42.416 208.268V204.98H43.268V207.956L45.128 207.236L45.248 207.128L45.404 206.996L46.016 207.248L45.98 207.404C45.98 209.564 45.944 211.292 45.836 211.796C45.74 212.348 45.488 212.576 45.116 212.672C44.792 212.756 44.264 212.768 43.904 212.756C43.88 212.492 43.796 212.132 43.688 211.916C44.012 211.94 44.444 211.94 44.6 211.94C44.816 211.94 44.936 211.892 45.008 211.58C45.104 211.256 45.128 209.996 45.14 208.124L43.268 208.856V213.26H42.416V209.192L40.664 209.888V214.112C40.664 214.796 40.82 214.952 41.672 214.952ZM50.552 204.968L51.416 205.232C51.056 206.108 50.636 206.96 50.144 207.776V215.924H49.268V209.096C48.824 209.696 48.344 210.248 47.852 210.716C47.768 210.5 47.492 210.044 47.3 209.828C48.608 208.664 49.82 206.828 50.552 204.968ZM58.472 210.92H55.088V214.604H58.292V215.468H51.116V214.604H54.2V210.92H50.66V210.056H54.2V206.888C53.24 207.056 52.244 207.2 51.332 207.308C51.296 207.092 51.152 206.756 51.056 206.552C53.276 206.264 55.868 205.784 57.332 205.256L57.992 206C57.176 206.264 56.168 206.516 55.088 206.732V210.056H58.472V210.92ZM63.368 210.704H61.388V213.2H63.368V210.704ZM64.208 209.912V213.992H61.388V215H60.56V209.912H64.208ZM69.5 209.9V213.26C69.5 213.752 69.404 213.992 69.068 214.136C68.732 214.292 68.168 214.292 67.256 214.292C67.22 214.04 67.1 213.704 66.992 213.464C67.664 213.476 68.24 213.476 68.408 213.476C68.588 213.464 68.636 213.416 68.636 213.26V210.716H66.332V215.936H65.456V209.9H69.5ZM62.66 208.112H67.316C66.44 207.56 65.66 206.912 65.036 206.204C64.388 206.9 63.56 207.56 62.66 208.112ZM65.06 204.824L65.756 205.34C65.684 205.436 65.636 205.52 65.552 205.604C66.644 206.828 68.66 207.992 70.556 208.484C70.34 208.676 70.064 209.072 69.908 209.324C69.044 209.06 68.156 208.628 67.328 208.112V208.928H62.564V208.172C61.724 208.676 60.836 209.108 59.96 209.384C59.852 209.132 59.648 208.76 59.456 208.52C61.652 207.932 63.944 206.42 65.06 204.824Z" fill="#1A3341"/>
<line x1="81.5" y1="30" x2="81.5" y2="260" stroke="#ABBEC9"/>
<path d="M171.196 222L166 230L176.393 230L171.196 222Z" fill="#737AF9"/>
<path d="M210.765 149.056L209.715 148.58C210.233 147.068 211.591 146.074 213.621 146.074C214.587 146.074 215.385 146.298 216.001 146.746C216.617 147.194 216.925 147.796 216.925 148.538C216.925 149.672 216.323 150.512 215.203 150.834C216.281 150.904 217.149 151.716 217.149 153.172C217.149 154.096 216.813 154.824 216.141 155.342C215.469 155.86 214.615 156.126 213.565 156.126C211.423 156.126 209.939 155.104 209.449 153.494L210.583 153.004C211.185 154.278 212.207 154.922 213.649 154.922C215.007 154.922 215.861 154.292 215.861 153.186C215.861 152.108 215.021 151.562 213.341 151.562H212.249V150.4H213.117C214.643 150.4 215.637 149.714 215.637 148.776C215.637 147.81 214.839 147.264 213.565 147.264C212.067 147.264 211.157 148.034 210.765 149.056ZM219.42 149.434L218.398 149.07C218.748 147.334 220.064 146.088 222.15 146.088C224.166 146.088 225.398 147.25 225.398 149.028C225.398 149.966 224.992 150.904 224.488 151.576C224.236 151.926 223.914 152.262 223.536 152.612C222.766 153.298 222.22 153.662 221.422 154.166L220.344 154.838H225.762V156H218.132V155.048L220.26 153.634C220.638 153.396 220.904 153.214 221.058 153.102C221.212 153.004 221.464 152.822 221.8 152.584C222.136 152.346 222.388 152.136 222.556 151.982C222.71 151.828 222.92 151.632 223.158 151.38C223.802 150.68 224.04 150.036 224.11 149.154C224.11 147.88 223.284 147.306 222.066 147.306C221.31 147.306 220.708 147.516 220.274 147.936C219.84 148.356 219.546 148.86 219.42 149.434ZM227.852 149.434L226.83 149.07C227.18 147.334 228.496 146.088 230.582 146.088C232.598 146.088 233.83 147.25 233.83 149.028C233.83 149.966 233.424 150.904 232.92 151.576C232.668 151.926 232.346 152.262 231.968 152.612C231.198 153.298 230.652 153.662 229.854 154.166L228.776 154.838H234.194V156H226.564V155.048L228.692 153.634C229.07 153.396 229.336 153.214 229.49 153.102C229.644 153.004 229.896 152.822 230.232 152.584C230.568 152.346 230.82 152.136 230.988 151.982C231.142 151.828 231.352 151.632 231.59 151.38C232.234 150.68 232.472 150.036 232.542 149.154C232.542 147.88 231.716 147.306 230.498 147.306C229.742 147.306 229.14 147.516 228.706 147.936C228.272 148.356 227.978 148.86 227.852 149.434ZM237.6 156.21L236.676 155.678L243.914 145.892L244.796 146.536L237.6 156.21ZM235.164 148.552C235.164 147.852 235.402 147.278 235.892 146.83C236.382 146.382 236.984 146.158 237.726 146.158C238.454 146.158 239.056 146.382 239.546 146.83C240.036 147.278 240.274 147.852 240.274 148.552C240.274 149.238 240.036 149.812 239.546 150.26C239.056 150.708 238.454 150.932 237.726 150.932C236.984 150.932 236.382 150.708 235.892 150.26C235.402 149.812 235.164 149.238 235.164 148.552ZM236.34 148.552C236.34 149.35 236.984 149.938 237.726 149.938C238.496 149.938 239.098 149.378 239.098 148.552C239.098 147.726 238.468 147.166 237.726 147.166C236.956 147.166 236.34 147.726 236.34 148.552ZM241.898 155.384C241.408 154.936 241.17 154.362 241.17 153.662C241.17 152.962 241.408 152.388 241.898 151.94C242.388 151.506 242.99 151.282 243.732 151.282C244.46 151.282 245.062 151.506 245.552 151.94C246.042 152.388 246.28 152.962 246.28 153.662C246.28 154.348 246.042 154.922 245.552 155.37C245.062 155.832 244.46 156.056 243.732 156.056C242.99 156.056 242.388 155.832 241.898 155.384ZM242.346 153.662C242.346 154.46 242.99 155.048 243.732 155.048C244.502 155.048 245.104 154.488 245.104 153.662C245.104 152.836 244.474 152.276 243.732 152.276C242.962 152.276 242.346 152.836 242.346 153.662Z" fill="#737AF9"/>
<path d="M200.196 147L195 155L205.393 155L200.196 147Z" fill="#737AF9"/>
<path d="M181.765 224.056L180.715 223.58C181.233 222.068 182.591 221.074 184.621 221.074C185.587 221.074 186.385 221.298 187.001 221.746C187.617 222.194 187.925 222.796 187.925 223.538C187.925 224.672 187.323 225.512 186.203 225.834C187.281 225.904 188.149 226.716 188.149 228.172C188.149 229.096 187.813 229.824 187.141 230.342C186.469 230.86 185.615 231.126 184.565 231.126C182.423 231.126 180.939 230.104 180.449 228.494L181.583 228.004C182.185 229.278 183.207 229.922 184.649 229.922C186.007 229.922 186.861 229.292 186.861 228.186C186.861 227.108 186.021 226.562 184.341 226.562H183.249V225.4H184.117C185.643 225.4 186.637 224.714 186.637 223.776C186.637 222.81 185.839 222.264 184.565 222.264C183.067 222.264 182.157 223.034 181.765 224.056ZM190.728 226.492L189.72 226.226L190.294 221.2H196.454V222.39H191.372L191.008 225.022C191.498 224.658 192.24 224.476 193.234 224.476C194.382 224.476 195.278 224.784 195.936 225.386C196.58 226.002 196.902 226.786 196.902 227.752C196.902 228.718 196.538 229.53 195.824 230.16C195.096 230.804 194.186 231.126 193.108 231.126C191.274 231.126 189.748 230.258 189.118 228.732L190.238 228.256C190.644 229.194 191.694 229.936 193.108 229.936C194.718 229.936 195.614 229.012 195.614 227.794C195.614 226.492 194.564 225.652 192.898 225.652C192.002 225.652 191.274 225.932 190.728 226.492ZM200.401 231.21L199.477 230.678L206.715 220.892L207.597 221.536L200.401 231.21ZM197.965 223.552C197.965 222.852 198.203 222.278 198.693 221.83C199.183 221.382 199.785 221.158 200.527 221.158C201.255 221.158 201.857 221.382 202.347 221.83C202.837 222.278 203.075 222.852 203.075 223.552C203.075 224.238 202.837 224.812 202.347 225.26C201.857 225.708 201.255 225.932 200.527 225.932C199.785 225.932 199.183 225.708 198.693 225.26C198.203 224.812 197.965 224.238 197.965 223.552ZM199.141 223.552C199.141 224.35 199.785 224.938 200.527 224.938C201.297 224.938 201.899 224.378 201.899 223.552C201.899 222.726 201.269 222.166 200.527 222.166C199.757 222.166 199.141 222.726 199.141 223.552ZM204.699 230.384C204.209 229.936 203.971 229.362 203.971 228.662C203.971 227.962 204.209 227.388 204.699 226.94C205.189 226.506 205.791 226.282 206.533 226.282C207.261 226.282 207.863 226.506 208.353 226.94C208.843 227.388 209.081 227.962 209.081 228.662C209.081 229.348 208.843 229.922 208.353 230.37C207.863 230.832 207.261 231.056 206.533 231.056C205.791 231.056 205.189 230.832 204.699 230.384ZM205.147 228.662C205.147 229.46 205.791 230.048 206.533 230.048C207.303 230.048 207.905 229.488 207.905 228.662C207.905 227.836 207.275 227.276 206.533 227.276C205.763 227.276 205.147 227.836 205.147 228.662Z" fill="#737AF9"/>
<path d="M309.765 74.056L308.715 73.58C309.233 72.068 310.591 71.074 312.621 71.074C313.587 71.074 314.385 71.298 315.001 71.746C315.617 72.194 315.925 72.796 315.925 73.538C315.925 74.672 315.323 75.512 314.203 75.834C315.281 75.904 316.149 76.716 316.149 78.172C316.149 79.096 315.813 79.824 315.141 80.342C314.469 80.86 313.615 81.126 312.565 81.126C310.423 81.126 308.939 80.104 308.449 78.494L309.583 78.004C310.185 79.278 311.207 79.922 312.649 79.922C314.007 79.922 314.861 79.292 314.861 78.186C314.861 77.108 314.021 76.562 312.341 76.562H311.249V75.4H312.117C313.643 75.4 314.637 74.714 314.637 73.776C314.637 72.81 313.839 72.264 312.565 72.264C311.067 72.264 310.157 73.034 309.765 74.056ZM317.188 73.804L316.74 72.754L320.1 71.144H320.898V81H319.694V72.642L317.188 73.804ZM325.119 81.21L324.195 80.678L331.433 70.892L332.315 71.536L325.119 81.21ZM322.683 73.552C322.683 72.852 322.921 72.278 323.411 71.83C323.901 71.382 324.503 71.158 325.245 71.158C325.973 71.158 326.575 71.382 327.065 71.83C327.555 72.278 327.793 72.852 327.793 73.552C327.793 74.238 327.555 74.812 327.065 75.26C326.575 75.708 325.973 75.932 325.245 75.932C324.503 75.932 323.901 75.708 323.411 75.26C322.921 74.812 322.683 74.238 322.683 73.552ZM323.859 73.552C323.859 74.35 324.503 74.938 325.245 74.938C326.015 74.938 326.617 74.378 326.617 73.552C326.617 72.726 325.987 72.166 325.245 72.166C324.475 72.166 323.859 72.726 323.859 73.552ZM329.417 80.384C328.927 79.936 328.689 79.362 328.689 78.662C328.689 77.962 328.927 77.388 329.417 76.94C329.907 76.506 330.509 76.282 331.251 76.282C331.979 76.282 332.581 76.506 333.071 76.94C333.561 77.388 333.799 77.962 333.799 78.662C333.799 79.348 333.561 79.922 333.071 80.37C332.581 80.832 331.979 81.056 331.251 81.056C330.509 81.056 329.907 80.832 329.417 80.384ZM329.865 78.662C329.865 79.46 330.509 80.048 331.251 80.048C332.021 80.048 332.623 79.488 332.623 78.662C332.623 77.836 331.993 77.276 331.251 77.276C330.481 77.276 329.865 77.836 329.865 78.662Z" fill="#737AF9"/>
<path d="M299.196 72L294 80L304.393 80L299.196 72Z" fill="#737AF9"/>
<defs>
<linearGradient id="paint0_linear_829_17395" x1="5" y1="0" x2="5" y2="10" gradientUnits="userSpaceOnUse">
<stop stop-color="#CDE3E9"/>
<stop offset="1" stop-color="#D3E8ED"/>
</linearGradient>
<linearGradient id="paint1_linear_829_17395" x1="89" y1="0" x2="89" y2="10" gradientUnits="userSpaceOnUse">
<stop stop-color="#6D73F9"/>
<stop offset="1" stop-color="#9BB8F1"/>
</linearGradient>
<linearGradient id="paint2_linear_829_17395" x1="86.1905" y1="62" x2="190" y2="62" gradientUnits="userSpaceOnUse">
<stop stop-color="#CEE8EF"/>
<stop offset="1" stop-color="#CEE8EF"/>
</linearGradient>
<linearGradient id="paint3_linear_829_17395" x1="223" y1="77" x2="81" y2="77" gradientUnits="userSpaceOnUse">
<stop stop-color="#6D73F9"/>
<stop offset="1" stop-color="#9BB8F1"/>
</linearGradient>
<linearGradient id="paint4_linear_829_17395" x1="81.5714" y1="137" x2="93" y2="137" gradientUnits="userSpaceOnUse">
<stop stop-color="#CEE8EF"/>
<stop offset="1" stop-color="#CEE8EF"/>
</linearGradient>
<linearGradient id="paint5_linear_829_17395" x1="130" y1="152" x2="81" y2="152" gradientUnits="userSpaceOnUse">
<stop stop-color="#6D73F9"/>
<stop offset="1" stop-color="#9BB8F1"/>
</linearGradient>
<linearGradient id="paint6_linear_829_17395" x1="81.7619" y1="212" x2="97" y2="212" gradientUnits="userSpaceOnUse">
<stop stop-color="#CEE8EF"/>
<stop offset="1" stop-color="#CEE8EF"/>
</linearGradient>
<linearGradient id="paint7_linear_829_17395" x1="103" y1="227" x2="81" y2="227" gradientUnits="userSpaceOnUse">
<stop stop-color="#6D73F9"/>
<stop offset="1" stop-color="#9BB8F1"/>
</linearGradient>
</defs>
</svg>
