<svg width="533" height="265" viewBox="0 0 533 265" fill="none" xmlns="http://www.w3.org/2000/svg">
<path d="M81.384 151.978H73.4861V149.358H84.0431V159.439C82.8922 160.669 81.3046 161.662 79.3599 162.376C77.4152 163.13 75.4308 163.487 73.4464 163.487C69.2395 163.487 65.7866 162.177 63.0879 159.558C60.3494 156.978 59 153.525 59 149.239C59 145.231 60.3494 141.857 63.0879 139.119C65.8263 136.38 69.1601 134.991 73.1289 134.991C77.6137 134.991 81.0268 136.341 83.3684 139L81.7015 140.865C79.7171 138.682 76.939 137.611 73.367 137.611C69.9936 137.611 67.2154 138.682 65.1119 140.865C62.9688 143.048 61.8972 145.826 61.8972 149.239C61.8972 152.771 62.9688 155.589 65.1516 157.693C67.3345 159.796 70.1126 160.868 73.5258 160.868C76.6215 160.868 79.2409 159.955 81.384 158.169V151.978Z" fill="#1A3341"/>
<path d="M136.985 163.523H138.001V167.818C138.001 168.891 137.688 169.688 137.063 170.231C136.438 170.773 135.691 171.049 134.809 171.049C133.838 171.049 133.034 170.762 132.387 170.188C131.74 169.614 131.416 168.806 131.416 167.754V163.523H132.432V167.616C132.432 168.413 132.655 169.029 133.112 169.465C133.559 169.912 134.128 170.135 134.809 170.135C136.226 170.135 136.985 169.199 136.985 167.669V163.523Z" fill="#1A3341"/>
<path d="M130.474 171.049H124.83V163.523H130.375V164.437H125.831V166.781H130.067V167.673H125.831V170.135H130.474V171.049Z" fill="#1A3341"/>
<path d="M120.073 164.437H117.305V163.523H123.89V164.437H121.11V171.049H120.073V164.437Z" fill="#1A3341"/>
<path d="M116.408 168.072H114.416V167.202H117.306V169.938C116.676 170.619 115.582 171.049 114.519 171.049C113.415 171.049 112.506 170.703 111.794 170.011C111.082 169.33 110.721 168.418 110.721 167.286C110.721 166.228 111.072 165.337 111.784 164.613C112.486 163.89 113.363 163.523 114.405 163.523C115.634 163.523 116.542 163.89 117.13 164.634L116.542 165.253C116.057 164.708 115.365 164.435 114.467 164.435C113.642 164.435 112.971 164.697 112.465 165.221C111.959 165.745 111.701 166.437 111.701 167.286C111.701 168.156 111.97 168.848 112.496 169.361C113.022 169.875 113.703 170.137 114.54 170.137C115.283 170.137 115.902 169.927 116.408 169.508V168.072Z" fill="#1A3341"/>
<path d="M110.067 166.613H108.577V161.485H101.745V166.613H100.254V155.145H101.745V160.092H108.577V155.145H110.067V166.613Z" fill="#1A3341"/>
<path d="M97.0272 162.11H93.8652V160.751H98.4525V165.027C97.4532 166.091 95.7165 166.763 94.0291 166.763C92.276 166.763 90.8343 166.223 89.7039 165.141C88.5734 164.076 88 162.651 88 160.882C88 159.227 88.557 157.834 89.6875 156.704C90.8015 155.573 92.1941 155 93.8488 155C95.7984 155 97.2402 155.573 98.174 156.737L97.2402 157.703C96.4702 156.851 95.3725 156.425 93.9471 156.425C92.6365 156.425 91.5716 156.835 90.7688 157.654C89.966 158.473 89.5564 159.555 89.5564 160.882C89.5564 162.241 89.9824 163.323 90.8179 164.125C91.6535 164.928 92.7348 165.338 94.0618 165.338C95.2414 165.338 96.2244 165.01 97.0272 164.355V162.11Z" fill="#1A3341"/>
<path d="M202.031 128.211L204.182 130.61C201.99 133.713 197.606 135.698 192.932 135.698C188.382 135.698 184.742 134.333 182.053 131.644C179.365 128.956 178 125.357 178 120.849C178 116.589 179.365 113.073 182.053 110.219C184.742 107.406 188.258 106 192.642 106C197.606 106 201.659 107.985 203.769 110.798L201.328 113.156C198.971 110.798 196.075 109.598 192.725 109.598C189.375 109.598 186.769 110.633 184.825 112.701C182.881 114.769 181.929 117.499 181.929 120.849C181.929 124.241 182.963 126.971 185.032 128.997C187.1 131.065 189.83 132.099 193.18 132.099C196.778 132.099 199.715 130.817 202.031 128.211Z" fill="#1A3341"/>
<path d="M231.383 135.694V140H230V129H234.074C236.826 129 238.194 130.1 238.194 132.3C238.194 133.856 237.16 135.081 235.595 135.411L239 140H237.313L234.15 135.694H231.383ZM234.029 130.336H231.383V134.359H234.12C235.747 134.359 236.78 133.557 236.78 132.3C236.78 130.996 235.868 130.336 234.029 130.336Z" fill="#1A3341"/>
<path d="M227 140H219V129H226.86V130.336H220.419V133.761H226.423V135.066H220.419V138.664H227V140Z" fill="#1A3341"/>
<path d="M210.463 140H209V129H217V130.336H210.463V134.107H216.555V135.443H210.463V140Z" fill="#1A3341"/>
<path d="M276.897 136H268V106H277.329C289.595 106 294 112.729 294 120.571C294 125.114 292.575 128.8 289.681 131.671C286.787 134.543 282.555 136 276.897 136ZM277.243 109.643H271.93V132.357H277.156C285.794 132.357 289.94 127.771 289.94 120.571C289.94 113.843 286.096 109.643 277.243 109.643Z" fill="#1A3341"/>
<path d="M312.919 140.451H311.371V128.545H312.8L317.324 134.532L321.696 128.545H323.09V140.451H321.543V131.215L317.477 136.692H317.103L312.919 131.215V140.451Z" fill="#1A3341"/>
<path d="M301.843 140.451H300.295V128.545H301.843V134.294L307.864 128.545H309.888L304.275 133.937L310.296 140.451H308.255L303.118 134.957L301.843 136.182V140.451Z" fill="#1A3341"/>
<path d="M265.945 183.258C265.945 179.249 267.295 175.836 270.033 173.098C272.732 170.359 276.066 169.01 279.995 169.01C283.924 169.01 287.258 170.359 289.957 173.058C292.655 175.757 294.005 179.17 294.005 183.258C294.005 187.306 292.457 190.878 289.401 193.934L292.298 197.387L290.433 198.974L287.417 195.402C285.194 196.791 282.733 197.506 279.995 197.506C276.026 197.506 272.692 196.156 269.993 193.458C267.295 190.798 265.945 187.385 265.945 183.258ZM268.843 183.258C268.843 186.552 269.914 189.33 272.097 191.553C274.28 193.775 276.899 194.886 279.995 194.886C281.979 194.886 283.884 194.331 285.75 193.259L283.249 190.243L285.035 188.616L287.655 191.791C289.957 189.528 291.107 186.711 291.107 183.258C291.107 179.924 290.036 177.146 287.893 174.923C285.71 172.74 283.091 171.629 279.995 171.629C276.86 171.629 274.24 172.74 272.097 174.923C269.914 177.146 268.843 179.924 268.843 183.258Z" fill="#1A3341"/>
<path d="M327.261 199.227L328 200.116C327.246 201.265 325.739 202 324.133 202C322.569 202 321.318 201.494 320.393 200.499C319.469 199.503 319 198.17 319 196.5C319 194.922 319.469 193.62 320.393 192.563C321.318 191.521 322.526 191 324.033 191C325.739 191 327.133 191.735 327.858 192.777L327.019 193.65C326.209 192.777 325.213 192.333 324.062 192.333C322.91 192.333 322.014 192.716 321.346 193.482C320.678 194.248 320.351 195.259 320.351 196.5C320.351 197.756 320.706 198.767 321.417 199.518C322.128 200.284 323.066 200.667 324.218 200.667C325.455 200.667 326.464 200.192 327.261 199.227Z" fill="#1A3341"/>
<path d="M316.261 199.227L317 200.116C316.246 201.265 314.739 202 313.133 202C311.569 202 310.318 201.494 309.393 200.499C308.469 199.503 308 198.17 308 196.5C308 194.922 308.469 193.62 309.393 192.563C310.318 191.521 311.526 191 313.033 191C314.739 191 316.133 191.735 316.858 192.777L316.019 193.65C315.209 192.777 314.213 192.333 313.062 192.333C311.91 192.333 311.014 192.716 310.346 193.482C309.678 194.248 309.351 195.259 309.351 196.5C309.351 197.756 309.706 198.767 310.417 199.518C311.128 200.284 312.066 200.667 313.218 200.667C314.455 200.667 315.464 200.192 316.261 199.227Z" fill="#1A3341"/>
<path d="M308 202H300V191H301.439V200.664H308V202Z" fill="#1A3341"/>
<path d="M248.055 120.028L249.05 119.015L251.537 121.502L254.025 119.015L255.02 120.028L252.532 122.497L255.02 124.985L254.025 125.998L251.537 123.492L249.05 125.998L248.055 124.985L250.561 122.497L248.055 120.028Z" fill="#1A3341"/>
<path d="M335.936 120.028L336.931 119.015L339.418 121.502L341.906 119.015L342.901 120.028L340.413 122.497L342.901 124.985L341.906 125.998L339.418 123.492L336.931 125.998L335.936 124.985L338.442 122.497L335.936 120.028Z" fill="#1A3341"/>
<path d="M379.031 128.211L381.182 130.61C378.99 133.713 374.606 135.698 369.932 135.698C365.382 135.698 361.742 134.333 359.053 131.644C356.365 128.956 355 125.357 355 120.849C355 116.589 356.365 113.073 359.053 110.219C361.742 107.406 365.258 106 369.642 106C374.606 106 378.659 107.985 380.769 110.798L378.328 113.156C375.971 110.798 373.075 109.598 369.725 109.598C366.375 109.598 363.769 110.633 361.825 112.701C359.881 114.769 358.929 117.499 358.929 120.849C358.929 124.241 359.963 126.971 362.032 128.997C364.1 131.065 366.83 132.099 370.18 132.099C373.778 132.099 376.715 130.817 379.031 128.211Z" fill="#1A3341"/>
<path d="M410.811 137.305L409.824 136.744C410.283 135.655 411.44 134.924 412.75 134.924C414.332 134.924 415.335 135.723 415.335 136.999C415.335 138.207 414.57 139.295 413.022 140.265L411.967 140.945H415.641V142.153H409.858V141.098L411.542 140.01C413.09 138.989 413.991 138.156 413.991 137.254C413.991 136.506 413.549 136.131 412.682 136.131C411.865 136.131 411.236 136.523 410.811 137.305Z" fill="#1A3341"/>
<path d="M396.621 134.499C396.621 132.781 397.199 131.318 398.373 130.145C399.547 128.971 400.975 128.393 402.676 128.393C404.36 128.393 405.789 128.971 406.963 130.128C408.136 131.284 408.715 132.747 408.715 134.499C408.715 136.234 408.136 137.68 406.963 138.853C405.789 140.027 404.36 140.605 402.676 140.605C400.975 140.605 399.547 140.027 398.373 138.87C397.199 137.714 396.621 136.251 396.621 134.499ZM398.237 134.499C398.237 135.826 398.679 136.931 399.547 137.799C400.414 138.683 401.452 139.125 402.676 139.125C403.935 139.125 404.99 138.683 405.84 137.816C406.673 136.948 407.099 135.843 407.099 134.499C407.099 133.155 406.673 132.05 405.806 131.182C404.939 130.315 403.884 129.872 402.676 129.872C401.435 129.872 400.397 130.315 399.53 131.182C398.662 132.05 398.237 133.155 398.237 134.499Z" fill="#1A3341"/>
<path d="M395.414 137.526L396.298 138.513C395.397 139.789 393.594 140.605 391.672 140.605C389.801 140.605 388.304 140.044 387.198 138.938C386.093 137.833 385.531 136.353 385.531 134.499C385.531 132.747 386.093 131.301 387.198 130.128C388.304 128.971 389.75 128.393 391.552 128.393C393.594 128.393 395.26 129.209 396.128 130.366L395.124 131.335C394.155 130.366 392.964 129.872 391.587 129.872C390.209 129.872 389.137 130.298 388.338 131.148C387.538 131.999 387.147 133.121 387.147 134.499C387.147 135.894 387.572 137.016 388.423 137.85C389.273 138.7 390.396 139.125 391.774 139.125C393.253 139.125 394.461 138.598 395.414 137.526Z" fill="#1A3341"/>
<path d="M160.221 152.21H142.48V149.908H160.221V152.21ZM160.221 159.156H142.48V156.854H160.221V159.156Z" fill="#1A3341"/>
<path fill-rule="evenodd" clip-rule="evenodd" d="M418.936 154.625L179.391 154.625L179.391 153.208L418.936 153.208L418.936 154.625Z" fill="#ABBEC9"/>
<path d="M19.635 239.037V237.97H15.895V239.037H19.635ZM19.635 240.775V239.697H15.895V240.775H19.635ZM20.438 237.277V241.468H15.125V237.277H20.438ZM14.553 238.036L14.091 238.696C13.662 238.322 12.793 237.827 12.111 237.519L12.551 236.936C13.233 237.2 14.113 237.673 14.553 238.036ZM13.915 241.017L13.475 241.688C13.046 241.314 12.166 240.797 11.462 240.489L11.88 239.906C12.584 240.181 13.464 240.654 13.915 241.017ZM13.706 242.634L14.311 243.129C13.772 244.273 13.035 245.637 12.43 246.649L11.737 246.143C12.298 245.307 13.112 243.877 13.706 242.634ZM15.51 243.107V245.791H16.577V243.107H15.51ZM18.293 243.107H17.215V245.791H18.293V243.107ZM20.02 243.107H18.942V245.791H20.02V243.107ZM20.801 245.791H21.538V246.517H13.838V245.791H14.773V242.403H20.801V245.791ZM23.595 238.52V239.697H22.803V237.761H27.225C27.104 237.486 26.939 237.167 26.796 236.914L27.577 236.683C27.775 237.013 28.006 237.442 28.138 237.761H32.208V239.697H31.383V238.52H23.595ZM31.449 242.337L30.811 242.788C30.657 242.59 30.448 242.337 30.184 242.084C24.97 242.491 24.453 242.524 24.112 242.667C24.068 242.502 23.958 242.128 23.87 241.919C24.079 241.886 24.332 241.743 24.618 241.523C24.86 241.358 25.52 240.83 26.136 240.203H23.914V239.488H31.163V240.203H27.192C26.609 240.786 25.971 241.336 25.333 241.798L29.579 241.501C29.282 241.226 28.974 240.962 28.688 240.731L29.293 240.346C30.041 240.929 30.987 241.765 31.449 242.337ZM27.907 245.791H32.362V246.528H22.671V245.791H27.082V244.339H23.672V243.613H27.082V242.458H27.907V243.613H31.394V244.339H27.907V245.791ZM43.164 238.729H35.904C35.376 239.752 34.738 240.654 34.078 241.336C33.924 241.193 33.55 240.94 33.363 240.841C34.419 239.873 35.321 238.366 35.849 236.771L36.652 236.98C36.531 237.332 36.388 237.684 36.234 238.025H43.164V238.729ZM42.35 240.225H35.816V239.532H42.35V240.225ZM34.716 241.083H41.459C41.536 243.591 41.833 246.033 42.691 246.033C42.9 246.033 42.966 245.461 42.977 244.548C43.142 244.713 43.373 244.911 43.549 245.021C43.483 246.319 43.285 246.836 42.647 246.836C41.195 246.836 40.799 244.625 40.656 241.798H34.716V241.083ZM46.794 236.837L47.553 237.068C47.289 237.849 46.948 238.641 46.574 239.389V246.825H45.793V240.742C45.496 241.204 45.177 241.633 44.858 242.007C44.77 241.82 44.528 241.391 44.385 241.204C45.353 240.137 46.244 238.498 46.794 236.837ZM54.45 239.796H51.7C52.349 241.633 53.482 243.459 54.67 244.416C54.472 244.559 54.197 244.845 54.054 245.065C52.899 244.009 51.843 242.161 51.172 240.247V244.064H52.943V244.812H51.172V246.781H50.38V244.812H48.587V244.064H50.38V240.324C49.676 242.227 48.62 244.031 47.465 245.087C47.322 244.9 47.058 244.614 46.871 244.471C48.07 243.503 49.214 241.655 49.885 239.796H47.3V239.004H50.38V236.837H51.172V239.004H54.45V239.796ZM59.015 241.611L59.125 242.359C58.685 242.48 58.245 242.612 57.816 242.744V245.813C57.816 246.264 57.717 246.473 57.442 246.594C57.178 246.737 56.749 246.748 56.089 246.748C56.056 246.539 55.946 246.22 55.847 246C56.298 246.011 56.716 246.011 56.837 246.011C56.98 246.011 57.024 245.967 57.024 245.824V242.975L55.671 243.382L55.506 242.568C55.924 242.469 56.452 242.337 57.024 242.172V239.774H55.638V239.004H57.024V236.804H57.816V239.004H58.982V239.774H57.816V241.952L59.015 241.611ZM61.05 238.674V236.881H61.842V246.836H61.05V243.954H59.191V243.206H61.05V241.666H59.455V240.94H61.05V239.411H59.422V238.674H61.05ZM65.527 243.239V243.987H63.624V246.847H62.843V236.87H63.624V238.674H65.417V239.411H63.624V240.94H65.307V241.666H63.624V243.239H65.527ZM69.597 238.245L68.86 238.487C68.761 238.08 68.508 237.453 68.299 236.991L69.003 236.782C69.234 237.244 69.487 237.849 69.597 238.245ZM68.596 240.797H70.884C70.884 240.797 70.884 241.061 70.873 241.171C70.796 244.768 70.719 245.978 70.444 246.363C70.268 246.594 70.081 246.682 69.795 246.715C69.52 246.748 69.08 246.748 68.618 246.715C68.596 246.495 68.519 246.176 68.398 245.956C68.849 246 69.256 246.011 69.432 246.011C69.575 246.011 69.674 245.978 69.751 245.857C69.938 245.615 70.015 244.559 70.081 241.545H68.596V241.622C68.596 243.426 68.376 245.285 66.924 246.836C66.781 246.66 66.517 246.44 66.319 246.308C67.65 244.889 67.815 243.162 67.815 241.611V239.334H66.517V238.575H71.368V239.334H68.596V240.797ZM74.921 239.598H72.864C72.842 239.631 72.831 239.675 72.82 239.708C73.051 240.995 73.381 242.172 73.865 243.173C74.382 242.183 74.712 241.006 74.921 239.598ZM76.538 239.598H75.735C75.46 241.369 75.009 242.81 74.327 243.998C74.921 244.933 75.669 245.67 76.637 246.121C76.45 246.286 76.197 246.594 76.065 246.825C75.141 246.341 74.404 245.626 73.832 244.735C73.172 245.604 72.314 246.308 71.225 246.869C71.148 246.682 70.906 246.33 70.752 246.154C71.896 245.626 72.754 244.9 73.392 243.976C72.941 243.085 72.6 242.051 72.325 240.918C72.094 241.424 71.819 241.875 71.533 242.282C71.401 242.117 71.082 241.809 70.895 241.666C71.786 240.511 72.391 238.674 72.732 236.793L73.557 236.925C73.425 237.574 73.282 238.223 73.106 238.839H76.538V239.598ZM85.206 238.234V237.64H79.761V238.234H85.206ZM85.206 239.312V238.707H79.761V239.312H85.206ZM86.009 237.145V239.807H78.98V237.145H86.009ZM87.406 240.258V240.885H77.616V240.258H87.406ZM79.541 243.613H82.093V242.986H79.541V243.613ZM79.541 241.886V242.502H82.093V241.886H79.541ZM85.536 242.502V241.886H82.874V242.502H85.536ZM85.536 243.613V242.986H82.874V243.613H85.536ZM82.874 245.934H87.461V246.572H77.55V245.934H82.093V245.296H78.463V244.724H82.093V244.119H78.782V241.38H86.339V244.119H82.874V244.724H86.57V245.296H82.874V245.934ZM88.44 248.255L87.626 247.947L91.278 238.157L92.092 238.421L88.44 248.255ZM94.4228 239.235H91.7498V238.3H98.1078V239.235H95.4238V246H94.4228V239.235ZM104.587 246H98.9439V238.3H104.488V239.235H99.9449V241.633H104.18V242.546H99.9449V245.065H104.587V246ZM111.393 238.3H112.394V242.744C112.394 243.855 112.086 244.68 111.47 245.241C110.854 245.802 110.117 246.088 109.248 246.088C108.291 246.088 107.499 245.791 106.861 245.197C106.223 244.603 105.904 243.767 105.904 242.678V238.3H106.905V242.535C106.905 243.36 107.125 243.998 107.576 244.449C108.016 244.911 108.577 245.142 109.248 245.142C110.645 245.142 111.393 244.174 111.393 242.59V238.3ZM18.645 257.82C18.645 255.675 19.514 253.926 20.834 252.584L21.494 252.925C20.229 254.234 19.448 255.862 19.448 257.82C19.448 259.778 20.229 261.406 21.494 262.715L20.834 263.056C19.514 261.714 18.645 259.965 18.645 257.82ZM32.406 257.105V257.908H27.896V262.847H27.049V257.908H22.616V257.105H27.049V254.487C25.839 254.663 24.596 254.795 23.43 254.894C23.408 254.685 23.287 254.355 23.199 254.168C25.861 253.926 28.963 253.497 30.701 252.947L31.328 253.618C30.371 253.904 29.183 254.146 27.896 254.355V257.105H32.406ZM35.794 256.599V258.359H41.217V256.599H35.794ZM40.601 261.956H42.185C42.636 261.956 42.702 261.747 42.746 260.339C42.933 260.493 43.285 260.625 43.516 260.68C43.417 262.33 43.175 262.737 42.251 262.737H40.524C39.501 262.737 39.237 262.473 39.237 261.582V259.107H37.598C37.334 260.999 36.641 262.231 33.99 262.869C33.913 262.638 33.682 262.297 33.517 262.121C35.926 261.626 36.498 260.647 36.718 259.107H35.013V255.862H38.06V254.652H33.792V253.893H38.06V252.793H38.874V253.893H43.241V254.652H38.874V255.862H42.042V259.107H40.051V261.582C40.051 261.901 40.139 261.956 40.601 261.956ZM50.787 260.108L51.359 260.746C50.776 261.571 49.61 262.099 48.367 262.099C47.157 262.099 46.189 261.736 45.474 261.021C44.759 260.306 44.396 259.349 44.396 258.15C44.396 257.017 44.759 256.082 45.474 255.323C46.189 254.575 47.124 254.201 48.29 254.201C49.61 254.201 50.688 254.729 51.249 255.477L50.6 256.104C49.973 255.477 49.203 255.158 48.312 255.158C47.421 255.158 46.728 255.433 46.211 255.983C45.694 256.533 45.441 257.259 45.441 258.15C45.441 259.052 45.716 259.778 46.266 260.317C46.816 260.867 47.542 261.142 48.433 261.142C49.39 261.142 50.171 260.801 50.787 260.108ZM51.6792 258.15C51.6792 257.039 52.0532 256.093 52.8122 255.334C53.5712 254.575 54.4952 254.201 55.5952 254.201C56.6842 254.201 57.6082 254.575 58.3672 255.323C59.1262 256.071 59.5002 257.017 59.5002 258.15C59.5002 259.272 59.1262 260.207 58.3672 260.966C57.6082 261.725 56.6842 262.099 55.5952 262.099C54.4952 262.099 53.5712 261.725 52.8122 260.977C52.0532 260.229 51.6792 259.283 51.6792 258.15ZM52.7242 258.15C52.7242 259.008 53.0102 259.723 53.5712 260.284C54.1322 260.856 54.8032 261.142 55.5952 261.142C56.4092 261.142 57.0912 260.856 57.6412 260.295C58.1802 259.734 58.4552 259.019 58.4552 258.15C58.4552 257.281 58.1802 256.566 57.6192 256.005C57.0582 255.444 56.3762 255.158 55.5952 255.158C54.7922 255.158 54.1212 255.444 53.5602 256.005C52.9992 256.566 52.7242 257.281 52.7242 258.15ZM60.9654 259.965L60.3274 259.602C60.6244 258.898 61.3724 258.425 62.2194 258.425C63.2424 258.425 63.8914 258.942 63.8914 259.767C63.8914 260.548 63.3964 261.252 62.3954 261.879L61.7134 262.319H64.0894V263.1H60.3494V262.418L61.4384 261.714C62.4394 261.054 63.0224 260.515 63.0224 259.932C63.0224 259.448 62.7364 259.206 62.1754 259.206C61.6474 259.206 61.2404 259.459 60.9654 259.965ZM67.8404 257.82C67.8404 259.965 66.9714 261.714 65.6514 263.056L64.9914 262.715C66.2564 261.406 67.0374 259.778 67.0374 257.82C67.0374 255.862 66.2564 254.234 64.9914 252.925L65.6514 252.584C66.9714 253.926 67.8404 255.675 67.8404 257.82Z" fill="#3C525E"/>
<path d="M48.0656 5.641H40.8716C40.3326 6.51 39.7276 7.302 39.1336 7.896C38.9576 7.764 38.6166 7.533 38.4076 7.412C39.4196 6.532 40.3656 5.124 40.9376 3.738L41.7406 3.969C41.5976 4.277 41.4546 4.596 41.2896 4.904H48.0656V5.641ZM44.1386 11.691H45.9426C45.9866 11.24 46.0306 10.657 46.0746 9.909H40.8056C40.7176 10.547 40.6186 11.163 40.5306 11.691H43.9296C43.4676 11.262 42.6646 10.723 41.9606 10.36L42.4226 9.909C43.1706 10.261 44.0726 10.833 44.5126 11.284L44.1386 11.691ZM46.1736 7.478H41.1356C41.0586 8.039 40.9816 8.622 40.8936 9.205H44.1936C43.7646 8.809 42.9506 8.281 42.2356 7.973L42.6976 7.511C43.4126 7.819 44.2596 8.325 44.6996 8.721L44.2266 9.205H46.1076C46.1296 8.688 46.1516 8.127 46.1736 7.478ZM48.4396 9.931H46.8776C46.8336 10.646 46.8006 11.229 46.7456 11.691H48.0656V12.417H46.6576C46.5696 12.967 46.4596 13.264 46.3386 13.44C46.1296 13.704 45.8986 13.803 45.5686 13.836C45.2496 13.858 44.6996 13.847 44.1606 13.814C44.1496 13.627 44.0616 13.352 43.9516 13.165C44.5126 13.209 45.0186 13.22 45.2276 13.209C45.4256 13.209 45.5246 13.187 45.6346 13.055C45.7116 12.967 45.7886 12.758 45.8546 12.417H40.0136V12.406H39.5736C39.6946 11.746 39.8486 10.855 39.9916 9.931H38.4406V9.183H40.1016C40.2116 8.336 40.3326 7.489 40.4096 6.752H46.9876C46.9876 6.752 46.9766 7.049 46.9766 7.148C46.9546 7.918 46.9216 8.589 46.8996 9.183H48.4396V9.931ZM52.5206 4.123L53.3896 4.365C52.6526 6.147 51.4866 7.808 50.2986 8.886C50.1226 8.721 49.7486 8.435 49.5396 8.303C50.7716 7.335 51.8716 5.762 52.5206 4.123ZM55.6556 9.986L56.4146 9.634C57.3716 10.8 58.4936 12.34 59.0326 13.33L58.2406 13.77C58.0646 13.418 57.8006 12.989 57.5146 12.538C51.7396 12.934 51.1456 12.967 50.7386 13.121C50.6946 12.945 50.5406 12.494 50.4196 12.263C50.7056 12.197 51.0026 11.867 51.4206 11.339C51.8496 10.855 53.1806 8.952 54.0606 7.126L54.9406 7.522C54.0386 9.183 52.9606 10.811 51.8826 12.087L56.9976 11.779C56.5576 11.163 56.0846 10.525 55.6556 9.986ZM55.4356 4.354L56.2386 4.046C56.9646 5.542 58.3616 7.28 59.4946 8.193C59.2856 8.358 58.9776 8.666 58.8126 8.886C57.6796 7.841 56.2826 6.004 55.4356 4.354ZM62.4646 7.038V8.435H65.0826V7.038H62.4646ZM62.4646 4.97V6.334H65.0826V4.97H62.4646ZM68.5256 6.334V4.97H65.8636V6.334H68.5256ZM68.5256 8.435V7.038H65.8636V8.435H68.5256ZM65.9076 12.758H70.3076V13.528H60.5726V12.758H65.0386V11.196H61.3096V10.426H65.0386V9.172H61.6616V4.233H69.3616V9.172H65.9076V10.426H69.7246V11.196H65.9076V12.758ZM76.0826 11.064L74.6746 11.35V13.803H73.8936V11.515C73.0576 11.669 72.2546 11.834 71.5836 11.955L71.4076 11.141C72.0676 11.042 72.9476 10.888 73.8936 10.723V9.205H72.6836C72.2766 9.205 71.9466 9.271 71.8476 9.359C71.8036 9.183 71.6716 8.798 71.5726 8.589C71.7816 8.534 71.9466 8.193 72.1446 7.709C72.2656 7.434 72.5406 6.741 72.8046 5.872H71.4956V5.102H73.0356C73.1456 4.662 73.2556 4.211 73.3326 3.76L74.1796 3.947C74.0916 4.321 73.9816 4.717 73.8716 5.102H75.9286V5.872H73.6296C73.3326 6.807 72.9806 7.709 72.6176 8.457H73.8936V6.785H74.6746V8.457H75.9506V9.205H74.6746V10.58L76.0386 10.338L76.0826 11.064ZM80.3066 12.901H80.5706C80.7796 12.901 80.8126 12.626 80.8346 11.372C81.0436 11.537 81.3076 11.647 81.5166 11.691C81.4396 13.143 81.3406 13.583 80.6036 13.583H80.1636C79.6246 13.583 79.3276 13.385 79.3276 12.615V6.884H78.1506C78.1066 8.941 77.8316 11.713 76.2036 13.88C76.0606 13.737 75.7966 13.495 75.5876 13.363C77.1496 11.394 77.3696 8.776 77.4026 6.884H76.1596V6.114H77.4026V3.881H78.1506V6.114H80.0756V12.538C80.0756 12.857 80.1636 12.901 80.3066 12.901ZM90.5916 8.38V7.478H86.9396V8.38H90.5916ZM90.5916 9.876V8.952H86.9396V9.876H90.5916ZM90.5916 11.372V10.448H86.9396V11.372H90.5916ZM86.1696 6.851H88.0176C88.1056 6.565 88.2046 6.235 88.2596 5.927H85.3776V5.245H87.2366C87.0936 4.893 86.7856 4.409 86.4996 4.035L87.1816 3.749C87.4896 4.123 87.8306 4.629 87.9736 4.981L87.4016 5.245H89.4256C89.7336 4.827 90.0856 4.222 90.2726 3.804L91.0646 4.035C90.8116 4.431 90.5256 4.882 90.2616 5.245H92.3186V5.927H89.1726C89.0406 6.257 88.9086 6.565 88.7766 6.851H91.3946V11.988H86.1696V6.851ZM84.9156 6.004L84.2446 6.455C83.9366 5.96 83.2546 5.168 82.6936 4.607L83.3096 4.222C83.8816 4.75 84.5856 5.509 84.9156 6.004ZM84.8386 7.698V11.878C85.0586 11.988 85.3006 12.175 85.6746 12.395C86.3896 12.78 87.3246 12.857 88.5236 12.857C89.7886 12.857 91.4166 12.78 92.4726 12.659C92.3846 12.868 92.2636 13.231 92.2416 13.473C91.4606 13.517 89.5356 13.583 88.5016 13.583C87.2036 13.583 86.2576 13.473 85.5096 13.044C85.0476 12.769 84.7066 12.45 84.4426 12.45C84.0686 12.45 83.5076 13.033 82.9356 13.704L82.4406 13.044C83.0016 12.483 83.5626 12.032 84.0466 11.845V8.468H82.5286V7.698H84.8386ZM96.9826 8.589V6.29H94.6726V8.589H96.9826ZM94.6726 11.955H96.9826V9.315H94.6726V11.955ZM95.5966 3.771L96.4766 3.936C96.2896 4.475 96.0916 5.08 95.9046 5.553H97.7306V12.692H94.6726V13.561H93.9246V5.553H95.1566C95.3216 5.025 95.5196 4.288 95.5966 3.771ZM103.11 5.52V5.938C102.934 10.954 102.791 12.648 102.351 13.187C102.109 13.495 101.856 13.594 101.482 13.627C101.097 13.671 100.47 13.649 99.8536 13.616C99.8316 13.374 99.7326 13.044 99.5786 12.813C100.294 12.879 100.954 12.879 101.207 12.879C101.427 12.879 101.548 12.857 101.658 12.714C102.021 12.329 102.186 10.657 102.329 6.279H99.5346C99.2266 7.016 98.8856 7.687 98.5006 8.204C98.3576 8.072 98.0056 7.852 97.8296 7.742C98.5666 6.774 99.1606 5.256 99.5126 3.749L100.294 3.936C100.162 4.475 100.008 5.003 99.8206 5.52H103.11ZM101.372 10.47L100.679 10.899C100.349 10.239 99.6116 9.15 99.0066 8.358L99.6446 7.984C100.261 8.765 101.02 9.821 101.372 10.47ZM105.761 13H104.749V5.3H110.282V6.235H105.761V8.875H109.974V9.81H105.761V13ZM116.998 13H111.355V5.3H116.899V6.235H112.356V8.633H116.591V9.546H112.356V12.065H116.998V13ZM119.36 9.986V13H118.359V5.3H121.307C123.298 5.3 124.288 6.07 124.288 7.61C124.288 8.699 123.54 9.557 122.407 9.788L124.871 13H123.65L121.362 9.986H119.36ZM121.274 6.235H119.36V9.051H121.34C122.517 9.051 123.265 8.49 123.265 7.61C123.265 6.697 122.605 6.235 121.274 6.235ZM132.645 8.82C132.645 6.675 133.514 4.926 134.834 3.584L135.494 3.925C134.229 5.234 133.448 6.862 133.448 8.82C133.448 10.778 134.229 12.406 135.494 13.715L134.834 14.056C133.514 12.714 132.645 10.965 132.645 8.82ZM146.384 5.63L145.812 5.872C145.68 5.432 145.383 4.75 145.108 4.244L145.636 4.035C145.944 4.53 146.252 5.201 146.384 5.63ZM142.424 5.542H141.302C140.939 6.73 140.444 7.775 139.839 8.556C139.718 8.435 139.432 8.204 139.267 8.116C140.136 7.082 140.719 5.465 141.049 3.749L141.72 3.87C141.654 4.211 141.577 4.563 141.489 4.893H142.633L142.754 4.86L143.183 4.992C143.128 5.388 143.073 5.784 142.996 6.147H144.173V5.905V3.826H144.866V5.905V6.147H146.505V6.84H144.965C145.229 8.38 145.801 9.799 146.725 10.448C146.549 10.591 146.307 10.866 146.197 11.053C145.46 10.448 144.954 9.425 144.613 8.204C144.338 9.249 143.766 10.261 142.578 11.097C142.468 10.932 142.226 10.701 142.072 10.591C143.612 9.513 144.03 8.149 144.14 6.84H142.985V6.18C142.49 8.578 141.489 10.206 140.147 11.097C140.048 10.921 139.85 10.657 139.685 10.525C140.301 10.151 140.862 9.546 141.324 8.765C141.06 8.567 140.73 8.336 140.466 8.16L140.807 7.709C141.06 7.863 141.357 8.061 141.61 8.237C141.731 7.984 141.852 7.698 141.951 7.412C141.687 7.236 141.368 7.06 141.093 6.928L141.379 6.433C141.621 6.532 141.896 6.686 142.149 6.818C142.259 6.422 142.347 5.982 142.424 5.542ZM137.001 5.905L137.54 5.982C137.496 6.928 137.32 8.105 136.979 8.853L136.451 8.556C136.77 7.907 136.946 6.796 137.001 5.905ZM139.839 11.46L139.289 12.021C139.124 11.702 138.772 11.108 138.453 10.624C138.244 11.779 137.804 12.868 136.979 13.825C136.869 13.649 136.627 13.407 136.451 13.297C137.826 11.68 137.98 9.623 137.98 7.632V3.881H138.684V7.478C138.926 6.884 139.223 5.982 139.377 5.366L140.015 5.597C139.707 6.312 139.388 7.203 139.102 7.742L138.684 7.566V7.621C138.684 8.303 138.662 9.007 138.596 9.689C138.915 10.096 139.652 11.185 139.839 11.46ZM139.839 13.825L139.201 13.484C139.762 12.912 140.224 11.966 140.477 11.229L141.115 11.471C140.818 12.263 140.4 13.209 139.839 13.825ZM141.709 11.57L142.38 11.471C142.512 12.153 142.633 13.033 142.655 13.605L141.951 13.715C141.929 13.132 141.819 12.252 141.709 11.57ZM143.249 11.592L143.898 11.416C144.184 12.076 144.492 12.956 144.613 13.517L143.942 13.726C143.832 13.143 143.513 12.263 143.249 11.592ZM144.855 11.427L145.515 11.218C145.966 11.955 146.472 12.945 146.703 13.539L146.01 13.803C145.779 13.209 145.284 12.186 144.855 11.427ZM154.821 5.916L154.403 6.543C154.051 6.125 153.303 5.531 152.676 5.124L153.094 4.574C153.71 4.948 154.469 5.509 154.821 5.916ZM154.348 8.545L153.941 9.205C153.556 8.798 152.775 8.237 152.115 7.885L152.5 7.313C153.149 7.654 153.963 8.149 154.348 8.545ZM151.169 4.453L151.873 4.629C151.609 5.454 151.268 6.488 150.971 7.104L150.443 6.928C150.696 6.279 151.004 5.19 151.169 4.453ZM148.881 6.906L148.232 7.082C148.177 6.422 147.924 5.41 147.638 4.64L148.232 4.497C148.551 5.256 148.804 6.246 148.881 6.906ZM150.08 8.237V8.391C150.388 8.732 151.488 10.184 151.73 10.558L151.191 11.196C150.993 10.789 150.476 9.942 150.08 9.326V13.836H149.321V9.315C148.914 10.492 148.353 11.713 147.803 12.45C147.715 12.219 147.517 11.856 147.385 11.658C148.023 10.888 148.716 9.469 149.101 8.237H147.561V7.467H149.321V3.837H150.08V7.467H151.873V8.237H150.08ZM157.582 10.492L156.163 10.745V13.836H155.393V10.888L151.983 11.504L151.851 10.745L155.393 10.118V3.804H156.163V9.975L157.461 9.744L157.582 10.492ZM161.542 5.047V7.027H163.456V7.786H161.542V8.072C161.96 8.512 163.104 9.854 163.379 10.195L162.884 10.866C162.631 10.448 162.015 9.623 161.542 9.007V13.814H160.739V8.974C160.2 10.25 159.485 11.493 158.781 12.252C158.682 12.032 158.473 11.702 158.319 11.504C159.155 10.668 160.035 9.161 160.53 7.786H158.594V7.027H160.739V5.201C160.123 5.3 159.507 5.388 158.924 5.465C158.88 5.267 158.792 5.003 158.693 4.816C160.145 4.618 161.861 4.288 162.829 3.903L163.379 4.541C162.873 4.728 162.224 4.904 161.542 5.047ZM164.633 11.658H167.086V5.597H164.633V11.658ZM163.83 4.816H167.9V13.275H167.086V12.45H164.633V13.352H163.83V4.816ZM178.251 8.6H176.381C175.336 8.6 175.061 8.347 175.061 7.456V3.826H175.864V5.663C176.799 5.355 177.778 4.948 178.405 4.629L178.955 5.223C178.086 5.63 176.92 6.015 175.864 6.334V7.445C175.864 7.786 175.952 7.863 176.447 7.863H178.185C178.603 7.863 178.68 7.676 178.735 6.587C178.9 6.73 179.23 6.851 179.461 6.906C179.362 8.226 179.12 8.6 178.251 8.6ZM170.903 10.965H173.224V9.964H170.903V10.965ZM173.224 8.38H170.903V9.315H173.224V8.38ZM174.027 7.687V12.901C174.027 13.319 173.95 13.539 173.642 13.671C173.345 13.803 172.872 13.814 172.179 13.814C172.135 13.594 172.025 13.275 171.915 13.066C172.432 13.088 172.894 13.077 173.037 13.066C173.191 13.066 173.224 13.033 173.224 12.89V11.603H170.903V13.836H170.144V7.687H174.027ZM172.443 4.728L173.114 4.453C173.675 5.19 174.291 6.18 174.522 6.829L173.807 7.148C173.741 6.972 173.664 6.785 173.565 6.565C170.562 6.785 170.188 6.84 169.946 6.928C169.902 6.763 169.781 6.356 169.682 6.158C169.847 6.114 170.001 5.96 170.188 5.729C170.375 5.498 170.98 4.629 171.332 3.771L172.168 4.035C171.794 4.761 171.299 5.509 170.826 6.092L173.235 5.949C172.993 5.52 172.707 5.091 172.443 4.728ZM176.48 13.022H178.24C178.691 13.022 178.779 12.802 178.834 11.581C179.01 11.702 179.329 11.834 179.56 11.878C179.461 13.363 179.219 13.748 178.306 13.748H176.403C175.347 13.748 175.061 13.495 175.061 12.593V8.908H175.875V10.635C176.865 10.316 177.921 9.898 178.537 9.491L179.076 10.096C178.24 10.591 176.986 11.009 175.875 11.317V12.593C175.875 12.956 175.974 13.022 176.48 13.022ZM40.3 21.091L39.816 21.74C39.398 21.41 38.584 20.871 37.99 20.486L38.463 19.925C39.057 20.266 39.882 20.772 40.3 21.091ZM39.783 23.951L39.299 24.611C38.881 24.292 38.067 23.775 37.451 23.434L37.924 22.862C38.518 23.192 39.354 23.654 39.783 23.951ZM39.354 25.711L39.992 26.162C39.541 27.317 38.925 28.67 38.408 29.682L37.682 29.231C38.166 28.384 38.848 26.943 39.354 25.711ZM41.532 21.08V23.335C41.532 25.249 41.345 27.966 40.047 29.803C39.915 29.66 39.563 29.451 39.376 29.374C40.619 27.614 40.729 25.139 40.729 23.335V20.332H47.417V21.08H41.532ZM42.544 26.734L43.281 26.932C42.918 27.735 42.368 28.615 41.895 29.187C41.741 29.066 41.433 28.879 41.235 28.769C41.741 28.241 42.225 27.46 42.544 26.734ZM42.896 24.523V25.491H46.24V24.523H42.896ZM42.896 22.972V23.929H46.24V22.972H42.896ZM46.999 26.118H44.909V28.989C44.909 29.396 44.843 29.605 44.535 29.726C44.238 29.847 43.776 29.847 43.039 29.836C43.006 29.627 42.907 29.341 42.808 29.132C43.336 29.154 43.82 29.143 43.941 29.143C44.084 29.132 44.128 29.099 44.128 28.978V26.118H42.159V22.345H43.82C43.941 21.993 44.073 21.542 44.139 21.234L45.052 21.421C44.898 21.74 44.744 22.059 44.601 22.345H46.999V26.118ZM45.646 26.921L46.35 26.646C46.779 27.317 47.329 28.219 47.604 28.747L46.856 29.077C46.614 28.527 46.075 27.614 45.646 26.921ZM51.685 21.311L51.256 21.949C50.761 21.564 49.76 21.058 48.968 20.761L49.375 20.189C50.167 20.464 51.179 20.937 51.685 21.311ZM51.751 22.587L51.872 23.302C50.816 23.654 49.694 24.028 48.814 24.314L48.583 23.555C49.375 23.335 50.563 22.961 51.751 22.587ZM57.086 27.889H56.261V25.667H50.838V27.966H50.035V24.919H57.086V27.889ZM53.214 25.986H54.006C53.643 28.175 52.631 29.352 48.946 29.869C48.891 29.682 48.715 29.363 48.583 29.198C52.059 28.769 52.884 27.801 53.214 25.986ZM53.676 28.153L54.127 27.559C55.469 27.977 57.295 28.648 58.252 29.132L57.768 29.803C56.855 29.319 55.04 28.604 53.676 28.153ZM57.064 21.454H55.436C55.381 21.652 55.315 21.828 55.249 22.015C55.854 22.961 57.031 23.698 58.406 23.995C58.23 24.138 58.021 24.435 57.911 24.633C56.69 24.292 55.623 23.588 54.93 22.653C54.413 23.544 53.555 24.259 52.037 24.71C51.96 24.534 51.751 24.259 51.597 24.116C53.544 23.588 54.292 22.587 54.611 21.454H53.313C53.005 21.894 52.631 22.323 52.169 22.708C52.037 22.521 51.773 22.301 51.597 22.202C52.477 21.52 53.049 20.596 53.324 19.837L54.105 19.947C53.995 20.233 53.863 20.519 53.709 20.805H57.427L57.559 20.772L58.153 20.937C57.878 21.542 57.537 22.202 57.273 22.631L56.558 22.422C56.723 22.169 56.888 21.806 57.064 21.454ZM62.3 21.091L61.816 21.74C61.398 21.41 60.584 20.871 59.99 20.486L60.463 19.925C61.057 20.266 61.882 20.772 62.3 21.091ZM61.783 23.951L61.299 24.611C60.881 24.292 60.067 23.775 59.451 23.434L59.924 22.862C60.518 23.192 61.354 23.654 61.783 23.951ZM61.354 25.711L61.992 26.162C61.541 27.317 60.925 28.67 60.408 29.682L59.682 29.231C60.166 28.384 60.848 26.943 61.354 25.711ZM63.532 21.08V23.335C63.532 25.249 63.345 27.966 62.047 29.803C61.915 29.66 61.563 29.451 61.376 29.374C62.619 27.614 62.729 25.139 62.729 23.335V20.332H69.417V21.08H63.532ZM64.544 26.734L65.281 26.932C64.918 27.735 64.368 28.615 63.895 29.187C63.741 29.066 63.433 28.879 63.235 28.769C63.741 28.241 64.225 27.46 64.544 26.734ZM64.896 24.523V25.491H68.24V24.523H64.896ZM64.896 22.972V23.929H68.24V22.972H64.896ZM68.999 26.118H66.909V28.989C66.909 29.396 66.843 29.605 66.535 29.726C66.238 29.847 65.776 29.847 65.039 29.836C65.006 29.627 64.907 29.341 64.808 29.132C65.336 29.154 65.82 29.143 65.941 29.143C66.084 29.132 66.128 29.099 66.128 28.978V26.118H64.159V22.345H65.82C65.941 21.993 66.073 21.542 66.139 21.234L67.052 21.421C66.898 21.74 66.744 22.059 66.601 22.345H68.999V26.118ZM67.646 26.921L68.35 26.646C68.779 27.317 69.329 28.219 69.604 28.747L68.856 29.077C68.614 28.527 68.075 27.614 67.646 26.921ZM73.355 24.82C73.355 26.965 72.486 28.714 71.166 30.056L70.506 29.715C71.771 28.406 72.552 26.778 72.552 24.82C72.552 22.862 71.771 21.234 70.506 19.925L71.166 19.584C72.486 20.926 73.355 22.675 73.355 24.82ZM90.46 20.101L91.241 20.42C90.867 21.135 90.394 21.938 89.998 22.477L89.294 22.18C89.69 21.619 90.196 20.739 90.46 20.101ZM83.871 24.061L83.387 24.71C82.98 24.314 82.144 23.753 81.462 23.39L81.924 22.818C82.606 23.159 83.453 23.676 83.871 24.061ZM82.496 29.726L81.792 29.209C82.32 28.351 83.09 26.91 83.651 25.667L84.256 26.162C83.761 27.317 83.079 28.692 82.496 29.726ZM81.979 20.475L82.452 19.914C83.123 20.244 83.948 20.783 84.355 21.168L83.849 21.806C83.464 21.399 82.65 20.838 81.979 20.475ZM86.709 22.169L85.972 22.532C85.807 21.971 85.334 21.102 84.872 20.475L85.565 20.156C86.038 20.772 86.533 21.608 86.709 22.169ZM85.983 26.745H90.02V25.568H85.983V26.745ZM90.02 23.687H85.983V24.853H90.02V23.687ZM90.812 22.917V28.813C90.812 29.275 90.713 29.506 90.394 29.649C90.053 29.781 89.514 29.781 88.678 29.781C88.645 29.561 88.524 29.231 88.414 29C89.041 29.022 89.624 29.022 89.789 29.022C89.965 29.011 90.02 28.956 90.02 28.802V27.449H85.983V29.847H85.18V22.917H87.633V19.793H88.436V22.917H90.812ZM96.884 25.315H95.322C95.762 25.81 96.609 26.822 96.818 27.108L96.312 27.746C96.081 27.383 95.597 26.723 95.19 26.184V29.836H94.431V26.173C93.969 27.086 93.375 27.988 92.814 28.527C92.726 28.307 92.539 27.988 92.429 27.801C93.045 27.24 93.738 26.239 94.167 25.315H92.55V24.589H94.431V23.478H92.946V22.774H94.431V21.685H92.715V20.981H94.431V19.804H95.19V20.981H96.664V21.685H95.19V22.774H96.477V23.478H95.19V24.589H96.884V25.315ZM100.129 28.978H101.438C101.79 28.978 101.856 28.681 101.9 27.383C102.087 27.526 102.384 27.658 102.604 27.713C102.516 29.209 102.307 29.671 101.493 29.671H100.03C99.117 29.671 98.875 29.407 98.875 28.417V26.514L96.95 26.8L96.84 26.074L98.875 25.766V24.05L97.192 24.325L97.071 23.599L98.875 23.313V21.696C98.314 21.883 97.742 22.048 97.203 22.202C97.159 22.026 97.038 21.762 96.928 21.597C98.49 21.146 100.228 20.508 101.152 19.848L101.845 20.387C101.251 20.761 100.492 21.113 99.667 21.41V23.181L102.01 22.818L102.142 23.544L99.667 23.929V25.645L102.428 25.227L102.538 25.953L99.667 26.393V28.428C99.667 28.89 99.733 28.978 100.129 28.978ZM111.206 21.234V20.64H105.761V21.234H111.206ZM111.206 22.312V21.707H105.761V22.312H111.206ZM112.009 20.145V22.807H104.98V20.145H112.009ZM113.406 23.258V23.885H103.616V23.258H113.406ZM105.541 26.613H108.093V25.986H105.541V26.613ZM105.541 24.886V25.502H108.093V24.886H105.541ZM111.536 25.502V24.886H108.874V25.502H111.536ZM111.536 26.613V25.986H108.874V26.613H111.536ZM108.874 28.934H113.461V29.572H103.55V28.934H108.093V28.296H104.463V27.724H108.093V27.119H104.782V24.38H112.339V27.119H108.874V27.724H112.57V28.296H108.874V28.934ZM121.645 24.82C121.645 22.675 122.514 20.926 123.834 19.584L124.494 19.925C123.229 21.234 122.448 22.862 122.448 24.82C122.448 26.778 123.229 28.406 124.494 29.715L123.834 30.056C122.514 28.714 121.645 26.965 121.645 24.82ZM127.838 21.597H126.595V26.184H127.838V21.597ZM128.586 20.838V26.943H126.595V27.988H125.847V20.838H128.586ZM133.118 29.044H133.932C134.13 29.044 134.339 29.033 134.449 29C134.548 28.967 134.669 28.901 134.702 28.747C134.746 28.582 134.779 28.219 134.79 27.713C134.988 27.878 135.274 28.021 135.538 28.109C135.527 28.538 135.45 29.066 135.373 29.286C135.274 29.495 135.109 29.627 134.867 29.704C134.636 29.77 134.306 29.803 133.998 29.803H132.964C132.689 29.803 132.315 29.748 132.084 29.605C131.82 29.44 131.699 29.242 131.699 28.296V26.877H129.4V23.027H130.17V26.118H131.699V22.081H129.015V21.311H131.699V19.815H132.502V21.311H135.417V22.081H132.502V26.118H134.042V23.016H134.834V27.482H134.042V26.877H132.502V28.373C132.502 28.714 132.546 28.923 132.689 28.978C132.81 29.022 132.942 29.044 133.118 29.044ZM139.003 29.616C138.299 28.747 137.353 27.801 136.572 27.163L137.287 26.536C138.079 27.174 139.069 28.175 139.751 28.978L139.003 29.616ZM157.406 24.105V24.908H152.896V29.847H152.049V24.908H147.616V24.105H152.049V21.487C150.839 21.663 149.596 21.795 148.43 21.894C148.408 21.685 148.287 21.355 148.199 21.168C150.861 20.926 153.963 20.497 155.701 19.947L156.328 20.618C155.371 20.904 154.183 21.146 152.896 21.355V24.105H157.406ZM164.083 21.498L163.247 21.74C163.159 21.267 162.928 20.519 162.719 19.958L163.511 19.749C163.731 20.31 163.973 21.025 164.083 21.498ZM167.933 21.872V22.675H159.1V21.872H167.933ZM162.521 27.878L161.652 28.087C161.498 26.833 161.036 24.908 160.618 23.467L161.432 23.269C161.861 24.743 162.323 26.613 162.521 27.878ZM164.831 28.56H168.373V29.374H158.627V28.56H163.951C164.545 27.152 165.227 24.875 165.579 23.269L166.503 23.445C166.052 25.084 165.392 27.174 164.831 28.56ZM179.252 22.488H173.653C173.62 23.071 173.576 23.654 173.499 24.237H178.185C178.185 24.237 178.174 24.512 178.152 24.633C177.943 27.724 177.723 28.912 177.294 29.341C177.03 29.616 176.777 29.693 176.348 29.726C175.963 29.748 175.237 29.737 174.511 29.693C174.489 29.44 174.379 29.11 174.214 28.89C175.006 28.956 175.765 28.967 176.062 28.967C176.315 28.967 176.447 28.945 176.579 28.846C176.909 28.56 177.118 27.504 177.305 25.029H173.378C173.026 26.965 172.212 28.769 170.144 29.869C170.012 29.66 169.759 29.374 169.55 29.22C172.366 27.823 172.641 24.996 172.762 22.488H169.792V21.696H174.588C174.456 21.256 174.126 20.552 173.851 20.046L174.621 19.738C174.929 20.255 175.259 20.915 175.424 21.366L174.654 21.696H179.252V22.488ZM100.921 36.354L101.801 36.706C101.273 37.63 100.569 38.73 100.019 39.423L99.315 39.104C99.865 38.378 100.547 37.201 100.921 36.354ZM95.608 38.983L94.816 39.335C94.574 38.653 93.947 37.564 93.32 36.761L94.057 36.453C94.673 37.223 95.344 38.279 95.608 38.983ZM102.307 40.82H98.567C99.546 42.305 101.152 43.79 102.593 44.538C102.395 44.703 102.12 45.022 101.977 45.242C100.536 44.373 98.952 42.8 97.907 41.183V45.847H97.06V41.205C96.037 42.877 94.486 44.45 93.023 45.341C92.891 45.132 92.616 44.835 92.44 44.659C93.881 43.878 95.476 42.36 96.411 40.82H92.682V40.017H97.06V35.815H97.907V40.017H102.307V40.82ZM106.003 45.616C105.299 44.747 104.353 43.801 103.572 43.163L104.287 42.536C105.079 43.174 106.069 44.175 106.751 44.978L106.003 45.616ZM124.406 40.105V40.908H119.896V45.847H119.049V40.908H114.616V40.105H119.049V37.487C117.839 37.663 116.596 37.795 115.43 37.894C115.408 37.685 115.287 37.355 115.199 37.168C117.861 36.926 120.963 36.497 122.701 35.947L123.328 36.618C122.371 36.904 121.183 37.146 119.896 37.355V40.105H124.406ZM130.863 42.448L131.292 41.821C132.425 42.25 134.064 42.921 134.9 43.339L134.46 44.065C133.646 43.625 132.029 42.91 130.863 42.448ZM130.676 39.83H135.395V40.633H130.709V45.847H129.862V40.633H125.616V39.83H129.829V35.793H130.676V37.355H134.284V38.136H130.676V39.83ZM145.955 36.97L145.449 37.542C145.064 37.168 144.261 36.662 143.59 36.343L144.063 35.837C144.734 36.134 145.548 36.607 145.955 36.97ZM141.555 43.284L141.621 44.054C139.938 44.417 138.145 44.802 136.869 45.088L136.715 44.263C137.903 44.032 139.773 43.658 141.555 43.284ZM140.4 41.942V40.039H138.167V41.942H140.4ZM137.408 39.324H141.203V42.646H137.408V39.324ZM145.009 39.137L145.834 39.335C145.35 40.809 144.701 42.096 143.876 43.185C144.283 44.318 144.778 45 145.317 45C145.625 45 145.757 44.428 145.823 42.965C146.01 43.163 146.307 43.35 146.538 43.427C146.395 45.308 146.087 45.847 145.24 45.847C144.415 45.847 143.755 45.132 143.26 43.944C142.578 44.692 141.808 45.319 140.939 45.836C140.807 45.671 140.488 45.352 140.301 45.209C141.335 44.659 142.215 43.933 142.941 43.053C142.556 41.766 142.314 40.138 142.171 38.356H136.77V37.553H142.127C142.094 36.981 142.083 36.409 142.072 35.826H142.93C142.93 36.42 142.941 36.992 142.963 37.553H146.263V38.356H143.018C143.128 39.808 143.315 41.128 143.59 42.195C144.184 41.293 144.657 40.281 145.009 39.137ZM157.406 40.105V40.908H152.896V45.847H152.049V40.908H147.616V40.105H152.049V37.487C150.839 37.663 149.596 37.795 148.43 37.894C148.408 37.685 148.287 37.355 148.199 37.168C150.861 36.926 153.963 36.497 155.701 35.947L156.328 36.618C155.371 36.904 154.183 37.146 152.896 37.355V40.105H157.406ZM166.437 44.89H167.339C167.647 44.89 167.702 44.571 167.735 42.91C167.922 43.075 168.263 43.207 168.483 43.262C168.406 45.132 168.208 45.671 167.405 45.671H166.316C165.524 45.671 165.282 45.407 165.282 44.439V39.753H161.784C161.498 41.557 161.168 43.592 160.915 44.758L164.666 44.23C164.633 44.461 164.633 44.813 164.633 44.989C160.442 45.627 159.969 45.693 159.672 45.836C159.617 45.583 159.441 45.121 159.32 44.879C159.639 44.802 159.958 44.692 160.079 44.252C160.288 43.68 161.014 39.181 161.311 37.311H158.803V36.519H168.142V37.311H162.202C162.125 37.773 162.026 38.345 161.916 38.972H166.096V44.428C166.096 44.824 166.151 44.89 166.437 44.89ZM162.037 41.04L162.686 40.622C163.401 41.26 164.27 42.162 164.699 42.745L164.006 43.229C163.61 42.635 162.752 41.711 162.037 41.04ZM172.575 37.454H170.705V39.852H172.575V37.454ZM170.705 43.075H172.575V40.589H170.705V43.075ZM173.345 36.717V43.823H170.705V44.692H169.935V36.717H173.345ZM179.538 37.993V38.796H178.207V44.626C178.207 45.209 178.042 45.462 177.657 45.583C177.272 45.726 176.579 45.737 175.479 45.726C175.435 45.506 175.314 45.132 175.182 44.912C176.029 44.934 176.843 44.934 177.085 44.923C177.305 44.912 177.393 44.846 177.393 44.626V38.796H173.84V37.993H177.393V35.859H178.207V37.993H179.538ZM176.601 42.294L175.886 42.712C175.534 42.041 174.797 40.875 174.214 40.028L174.885 39.676C175.468 40.512 176.238 41.634 176.601 42.294ZM183.355 40.82C183.355 42.965 182.486 44.714 181.166 46.056L180.506 45.715C181.771 44.406 182.552 42.778 182.552 40.82C182.552 38.862 181.771 37.234 180.506 35.925L181.166 35.584C182.486 36.926 183.355 38.675 183.355 40.82Z" fill="#1A3341"/>
<path d="M296.006 9.876H299.284C298.668 9.513 298.129 9.051 297.656 8.578C297.15 9.084 296.589 9.524 296.006 9.876ZM296.27 12.703H299.02V10.591H296.27V12.703ZM294.653 9.194V9.722C295.533 9.348 296.402 8.765 297.15 8.006C296.743 7.511 296.413 6.994 296.138 6.499C295.83 6.983 295.489 7.401 295.137 7.764C295.016 7.643 294.763 7.412 294.565 7.28V7.61H293.3V9.194H294.653ZM291.738 4.97V6.895H293.806V4.97H291.738ZM298.756 5.63H296.644L296.534 5.839C296.809 6.378 297.172 6.95 297.623 7.489C298.085 6.928 298.481 6.312 298.756 5.63ZM299.251 4.882L299.757 5.113C299.405 6.257 298.833 7.225 298.151 8.039C298.833 8.699 299.669 9.282 300.659 9.656C300.494 9.81 300.263 10.118 300.153 10.327C300.043 10.272 299.922 10.217 299.801 10.162V13.792H299.02V13.429H296.27V13.825H295.511V10.151C295.291 10.272 295.071 10.371 294.851 10.47C294.774 10.305 294.609 10.074 294.455 9.92H293.3V11.889C293.773 11.779 294.257 11.669 294.741 11.548L294.818 12.285C293.322 12.648 291.76 13.022 290.605 13.308L290.451 12.516L291.012 12.395V8.644H291.705V12.252L292.552 12.054V7.61H291.012V4.255H294.565V7.17C295.434 6.345 296.149 5.113 296.556 3.793L297.337 3.98C297.227 4.299 297.106 4.618 296.985 4.915H299.108L299.251 4.882ZM310.779 4.937L310.306 5.443C309.965 5.146 309.272 4.717 308.733 4.453L309.195 4.002C309.734 4.233 310.438 4.651 310.779 4.937ZM303.057 9.898L305.235 9.502C305.213 9.711 305.213 10.03 305.235 10.184C302.496 10.745 302.133 10.844 301.902 10.976C301.858 10.811 301.748 10.448 301.649 10.228C301.88 10.184 302.133 9.92 302.463 9.513C302.672 9.293 303.101 8.743 303.574 8.028C302.254 8.204 301.99 8.27 301.825 8.358C301.792 8.182 301.66 7.797 301.572 7.577C301.77 7.533 301.957 7.28 302.199 6.906C302.43 6.543 303.222 5.146 303.662 3.837L304.432 4.189C303.948 5.322 303.321 6.51 302.672 7.445L304.047 7.313C304.3 6.906 304.531 6.499 304.74 6.092L305.422 6.51C304.718 7.72 303.904 8.919 303.057 9.898ZM305.279 11.405L305.4 12.098L301.803 13.165L301.638 12.373C302.54 12.164 303.926 11.768 305.279 11.405ZM310.724 9.161L311.406 9.48C310.856 10.338 310.119 11.119 309.25 11.768C309.591 12.571 310.009 13.022 310.482 13.022C310.779 13.022 310.9 12.758 310.944 11.79C311.12 11.977 311.362 12.153 311.549 12.219C311.406 13.451 311.153 13.814 310.405 13.814C309.624 13.814 309.041 13.231 308.59 12.241C307.721 12.813 306.731 13.297 305.708 13.649C305.609 13.44 305.389 13.165 305.202 12.978C306.324 12.637 307.38 12.142 308.315 11.526C308.084 10.833 307.908 10.019 307.776 9.106L305.675 9.513L305.543 8.776L307.677 8.38C307.622 7.907 307.567 7.412 307.534 6.906L305.917 7.159L305.774 6.422L307.501 6.169C307.457 5.399 307.435 4.607 307.424 3.782H308.227C308.227 4.574 308.238 5.322 308.271 6.048L310.9 5.663L311.032 6.378L308.315 6.796C308.359 7.302 308.403 7.775 308.458 8.237L311.197 7.72L311.34 8.435L308.546 8.963C308.667 9.744 308.821 10.448 308.997 11.042C309.69 10.481 310.284 9.854 310.724 9.161ZM320.085 8.71V6.785H314.937V8.71H320.085ZM320.976 6.015V9.48H314.079V6.015H315.971C315.773 5.509 315.311 4.739 314.86 4.167L315.553 3.848C316.026 4.409 316.521 5.168 316.719 5.685L316.048 6.015H318.303C318.743 5.366 319.238 4.486 319.502 3.815L320.338 4.156C319.986 4.772 319.579 5.454 319.205 6.015H320.976ZM316.543 10.041L317.115 9.579C317.841 10.063 318.699 10.8 319.095 11.306L318.501 11.834C318.094 11.295 317.258 10.525 316.543 10.041ZM313.265 13.231L312.517 12.868C312.979 12.318 313.353 11.35 313.551 10.514L314.31 10.668C314.123 11.548 313.76 12.571 313.265 13.231ZM316.785 12.978H319.128C319.667 12.978 319.755 12.824 319.821 11.867C320.008 11.988 320.349 12.12 320.591 12.164C320.47 13.407 320.206 13.715 319.194 13.715H316.741C315.443 13.715 315.124 13.484 315.124 12.593V10.338H315.96V12.593C315.96 12.923 316.092 12.978 316.785 12.978ZM320.316 10.635L320.943 10.272C321.592 11.009 322.252 11.988 322.494 12.67L321.834 13.077C321.592 12.395 320.943 11.383 320.316 10.635ZM325.53 7.038V8.435H328.148V7.038H325.53ZM325.53 4.97V6.334H328.148V4.97H325.53ZM331.591 6.334V4.97H328.929V6.334H331.591ZM331.591 8.435V7.038H328.929V8.435H331.591ZM328.973 12.758H333.373V13.528H323.638V12.758H328.104V11.196H324.375V10.426H328.104V9.172H324.727V4.233H332.427V9.172H328.973V10.426H332.79V11.196H328.973V12.758ZM343.141 6.983V4.97H339.841V6.983H343.141ZM343.944 4.255V7.687H339.093V4.255H343.944ZM338.653 9.821L338.158 10.47C337.982 10.162 337.531 9.557 337.157 9.106V13.814H336.365V8.952C335.914 10.063 335.331 11.163 334.77 11.834C334.693 11.603 334.495 11.284 334.363 11.086C335.056 10.316 335.815 8.897 336.255 7.643H334.572V6.873H336.365V5.201C335.826 5.311 335.265 5.399 334.759 5.476C334.715 5.289 334.605 5.025 334.506 4.838C335.738 4.64 337.179 4.321 337.982 3.958L338.554 4.574C338.158 4.739 337.674 4.893 337.157 5.014V6.873H338.532V7.643H337.157V8.314C337.498 8.6 338.433 9.568 338.653 9.821ZM341.887 12.813H344.56V13.55H338.191V12.813H341.073V11.394H338.939V10.679H341.073V9.37H338.686V8.644H344.318V9.37H341.887V10.679H344.076V11.394H341.887V12.813ZM297.645 24.82C297.645 22.675 298.514 20.926 299.834 19.584L300.494 19.925C299.229 21.234 298.448 22.862 298.448 24.82C298.448 26.778 299.229 28.406 300.494 29.715L299.834 30.056C298.514 28.714 297.645 26.965 297.645 24.82ZM304.586 20.123L305.455 20.365C304.718 22.147 303.552 23.808 302.364 24.886C302.188 24.721 301.814 24.435 301.605 24.303C302.837 23.335 303.937 21.762 304.586 20.123ZM307.721 25.986L308.48 25.634C309.437 26.8 310.559 28.34 311.098 29.33L310.306 29.77C310.13 29.418 309.866 28.989 309.58 28.538C303.805 28.934 303.211 28.967 302.804 29.121C302.76 28.945 302.606 28.494 302.485 28.263C302.771 28.197 303.068 27.867 303.486 27.339C303.915 26.855 305.246 24.952 306.126 23.126L307.006 23.522C306.104 25.183 305.026 26.811 303.948 28.087L309.063 27.779C308.623 27.163 308.15 26.525 307.721 25.986ZM307.501 20.354L308.304 20.046C309.03 21.542 310.427 23.28 311.56 24.193C311.351 24.358 311.043 24.666 310.878 24.886C309.745 23.841 308.348 22.004 307.501 20.354ZM314.53 23.038V24.435H317.148V23.038H314.53ZM314.53 20.97V22.334H317.148V20.97H314.53ZM320.591 22.334V20.97H317.929V22.334H320.591ZM320.591 24.435V23.038H317.929V24.435H320.591ZM317.973 28.758H322.373V29.528H312.638V28.758H317.104V27.196H313.375V26.426H317.104V25.172H313.727V20.233H321.427V25.172H317.973V26.426H321.79V27.196H317.973V28.758ZM326.355 24.82C326.355 26.965 325.486 28.714 324.166 30.056L323.506 29.715C324.771 28.406 325.552 26.778 325.552 24.82C325.552 22.862 324.771 21.234 323.506 19.925L324.166 19.584C325.486 20.926 326.355 22.675 326.355 24.82Z" fill="#1A3341"/>
<path d="M290.715 254.179V253.387H296.259V254.179H293.3C293.168 254.751 293.014 255.301 292.849 255.829H295.302L295.445 255.796L295.94 255.95C295.401 259.734 293.707 261.857 291.397 262.913C291.298 262.693 291.078 262.385 290.902 262.22C291.98 261.791 292.937 261.054 293.674 259.987C293.245 259.591 292.563 259.052 292.013 258.678L292.475 258.073C293.014 258.414 293.674 258.898 294.103 259.294C294.532 258.513 294.851 257.622 295.06 256.588H292.563C292.2 257.501 291.771 258.315 291.254 258.953C291.122 258.81 290.803 258.535 290.616 258.414C291.485 257.402 292.101 255.851 292.486 254.179H290.715ZM297.854 254.08V260.185H297.051V254.08H297.854ZM299.306 252.848H300.12V261.78C300.12 262.297 299.977 262.517 299.669 262.649C299.35 262.792 298.833 262.803 297.997 262.803C297.964 262.583 297.832 262.231 297.722 262.011C298.327 262.022 298.899 262.022 299.064 262.022C299.24 262.011 299.306 261.956 299.306 261.78V252.848ZM311.318 259.965V260.768H307.424V262.847H306.577V260.768H301.715V259.965H306.577V258.304H304.058C303.398 258.304 302.991 258.359 302.881 258.458C302.826 258.282 302.683 257.853 302.573 257.611C302.815 257.556 303.046 257.237 303.332 256.753C303.497 256.511 303.838 255.917 304.201 255.18H301.88V254.388H304.575C304.806 253.86 305.048 253.288 305.235 252.738L306.148 253.002C305.95 253.464 305.752 253.937 305.532 254.388H311.12V255.18H305.147C304.707 256.038 304.234 256.83 303.772 257.523H306.577V255.862H307.424V257.523H310.405V258.304H307.424V259.965H311.318ZM317.39 255.367V254.63H314.728V255.367H317.39ZM317.39 256.676V255.95H314.728V256.676H317.39ZM317.39 258.018V257.259H314.728V258.018H317.39ZM313.925 259.008V255.521C313.639 255.829 313.309 256.126 312.968 256.412C312.836 256.236 312.572 255.994 312.385 255.884C313.584 254.971 314.464 253.739 314.937 252.782L315.773 252.936C315.586 253.266 315.388 253.629 315.146 253.97H317.643C317.5 253.651 317.313 253.277 317.137 252.98L317.863 252.76C318.105 253.134 318.369 253.618 318.49 253.97H321.713V254.63H318.182V255.367H321.273V255.95H318.182V256.676H321.306V257.259H318.182V258.018H322.076V258.678H314.728V259.008H313.925ZM322.384 260.196H318.633C319.667 260.977 321.229 261.637 322.593 261.978C322.428 262.132 322.197 262.44 322.076 262.638C320.657 262.22 318.996 261.406 317.874 260.471V262.836H317.071V260.482C315.949 261.45 314.299 262.286 312.902 262.726C312.781 262.517 312.55 262.209 312.363 262.055C313.727 261.692 315.3 260.999 316.345 260.196H312.627V259.525H317.071V258.788H317.874V259.525H322.384V260.196ZM329.864 256.764V255.026H327.246V254.3H329.864V252.793H330.667V254.3H333.252V255.026H330.667V256.764H333.043V257.49H327.576V256.764H329.864ZM325.64 254.531L325.123 255.048C324.848 254.696 324.265 254.201 323.781 253.871L324.276 253.409C324.76 253.717 325.354 254.179 325.64 254.531ZM326.003 257.941V256.313C325.189 256.687 324.386 257.072 323.715 257.358L323.44 256.676C324.1 256.423 325.046 255.983 326.003 255.554V252.793H326.773V257.941H326.003ZM332.207 259.47L332.801 259.899C332.229 260.295 331.481 260.702 330.843 260.999C331.58 261.516 332.504 261.89 333.538 262.099C333.362 262.253 333.153 262.55 333.065 262.77C330.909 262.242 329.325 261.065 328.445 259.272C327.972 259.712 327.356 260.108 326.674 260.46V261.868L329.358 261.307C329.336 261.505 329.314 261.813 329.325 261.967C326.201 262.66 325.816 262.759 325.596 262.891C325.552 262.715 325.42 262.385 325.31 262.231C325.53 262.165 325.882 261.989 325.882 261.549V260.823C325.233 261.098 324.551 261.307 323.902 261.461C323.803 261.274 323.594 261.01 323.451 260.856C324.837 260.581 326.388 259.998 327.4 259.272H323.594V258.601H328.214C328.104 258.359 327.961 258.084 327.829 257.875L328.621 257.655C328.819 257.941 329.006 258.304 329.127 258.601H333.406V259.272H329.226C329.523 259.767 329.886 260.218 330.326 260.603C330.964 260.273 331.734 259.811 332.207 259.47ZM337.388 257.908V258.315C337.839 258.711 338.884 259.69 339.148 259.954L338.62 260.592C338.378 260.273 337.839 259.657 337.388 259.162V262.847H336.607V259.184C336.123 260.13 335.496 261.054 334.924 261.67C334.814 261.472 334.594 261.208 334.407 261.043C335.144 260.35 335.958 259.074 336.442 257.908H334.693V257.149H336.607V255.906H337.146C337.036 255.521 336.827 255.004 336.596 254.564H336.145C335.826 255.158 335.474 255.697 335.122 256.115C334.968 255.994 334.638 255.774 334.44 255.664C335.122 254.949 335.716 253.849 336.057 252.749L336.849 252.947C336.739 253.255 336.618 253.563 336.486 253.86H339.368V254.564H337.421C337.641 254.982 337.817 255.433 337.905 255.752L337.388 255.961V257.149H339.126V257.908H337.388ZM343.185 257.039H340.259V258.128H343.185V257.039ZM340.259 259.888H343.185V258.766H340.259V259.888ZM340.259 261.67H343.185V260.526H340.259V261.67ZM339.467 262.836V256.302H343.999V262.77H343.185V262.363H340.259V262.836H339.467ZM340.809 253.86H344.373V254.564H341.986C342.283 254.971 342.558 255.422 342.701 255.741L341.997 256.038C341.854 255.642 341.48 255.048 341.117 254.564H340.479C340.171 255.136 339.819 255.642 339.434 256.038C339.28 255.906 338.939 255.675 338.741 255.565C339.456 254.883 340.028 253.838 340.358 252.749L341.139 252.947C341.04 253.255 340.941 253.563 340.809 253.86ZM349.884 253.002L350.566 253.31C350.247 253.805 349.895 254.355 349.587 254.718L349.059 254.465C349.334 254.069 349.697 253.442 349.884 253.002ZM347.31 254.487L346.683 254.751C346.584 254.366 346.298 253.761 346.001 253.31L346.595 253.068C346.903 253.497 347.2 254.08 347.31 254.487ZM347.849 257.567V256.236C347.299 256.885 346.584 257.49 345.913 257.842C345.825 257.655 345.627 257.38 345.473 257.226C346.243 256.896 347.057 256.225 347.596 255.51H345.583V254.828H347.849V252.793H348.608V254.828H350.852V255.51H348.784C349.334 255.829 350.28 256.445 350.533 256.632L350.082 257.226C349.818 256.973 349.136 256.434 348.608 256.06V257.567H347.849ZM349.521 259.14H347.739C347.574 259.448 347.409 259.756 347.255 260.009C347.662 260.185 348.102 260.394 348.498 260.592C348.927 260.196 349.279 259.712 349.521 259.14ZM350.06 261.505L349.554 262.044C349.301 261.857 348.971 261.637 348.597 261.428C347.816 262.055 346.881 262.484 345.88 262.748C345.803 262.572 345.638 262.275 345.495 262.121C346.386 261.923 347.222 261.571 347.937 261.065C347.387 260.779 346.793 260.504 346.254 260.306C346.485 259.976 346.727 259.569 346.958 259.14H345.814V258.447H347.299C347.409 258.205 347.508 257.974 347.585 257.743L348.311 257.875C348.234 258.062 348.168 258.249 348.08 258.447H349.873L349.994 258.414L350.456 258.601C350.17 259.547 349.719 260.317 349.136 260.933C349.488 261.131 349.818 261.329 350.06 261.505ZM353.877 255.675H352.117C352.326 256.863 352.634 257.985 353.052 258.964C353.448 258.04 353.712 256.94 353.877 255.675ZM355.384 255.675H354.658C354.405 257.325 354.042 258.678 353.459 259.811C354.02 260.823 354.746 261.626 355.648 262.11C355.461 262.264 355.23 262.539 355.109 262.748C354.262 262.231 353.569 261.483 353.03 260.559C352.381 261.516 351.545 262.275 350.423 262.88C350.346 262.704 350.115 262.374 349.972 262.22C351.16 261.637 352.018 260.834 352.634 259.789C352.216 258.931 351.908 257.941 351.666 256.852C351.446 257.391 351.193 257.875 350.918 258.293C350.786 258.161 350.478 257.908 350.302 257.798C351.138 256.643 351.633 254.806 351.908 252.903L352.656 253.013C352.568 253.662 352.436 254.3 352.282 254.916H355.384V255.675ZM363.645 257.82C363.645 255.675 364.514 253.926 365.834 252.584L366.494 252.925C365.229 254.234 364.448 255.862 364.448 257.82C364.448 259.778 365.229 261.406 366.494 262.715L365.834 263.056C364.514 261.714 363.645 259.965 363.645 257.82ZM369.706 255.235H367.033V254.3H373.391V255.235H370.707V262H369.706V255.235ZM379.87 262H374.227V254.3H379.771V255.235H375.228V257.633H379.463V258.546H375.228V261.065H379.87V262ZM386.676 254.3H387.677V258.744C387.677 259.855 387.369 260.68 386.753 261.241C386.137 261.802 385.4 262.088 384.531 262.088C383.574 262.088 382.782 261.791 382.144 261.197C381.506 260.603 381.187 259.767 381.187 258.678V254.3H382.188V258.535C382.188 259.36 382.408 259.998 382.859 260.449C383.299 260.911 383.86 261.142 384.531 261.142C385.928 261.142 386.676 260.174 386.676 258.59V254.3ZM391.807 257.82C391.807 259.965 390.938 261.714 389.618 263.056L388.958 262.715C390.223 261.406 391.004 259.778 391.004 257.82C391.004 255.862 390.223 254.234 388.958 252.925L389.618 252.584C390.938 253.926 391.807 255.675 391.807 257.82Z" fill="#1A3341"/>
<path d="M384.787 11.108L385.359 11.746C384.776 12.571 383.61 13.099 382.367 13.099C381.157 13.099 380.189 12.736 379.474 12.021C378.759 11.306 378.396 10.349 378.396 9.15C378.396 8.017 378.759 7.082 379.474 6.323C380.189 5.575 381.124 5.201 382.29 5.201C383.61 5.201 384.688 5.729 385.249 6.477L384.6 7.104C383.973 6.477 383.203 6.158 382.312 6.158C381.421 6.158 380.728 6.433 380.211 6.983C379.694 7.533 379.441 8.259 379.441 9.15C379.441 10.052 379.716 10.778 380.266 11.317C380.816 11.867 381.542 12.142 382.433 12.142C383.39 12.142 384.171 11.801 384.787 11.108ZM385.679 9.15C385.679 8.039 386.053 7.093 386.812 6.334C387.571 5.575 388.495 5.201 389.595 5.201C390.684 5.201 391.608 5.575 392.367 6.323C393.126 7.071 393.5 8.017 393.5 9.15C393.5 10.272 393.126 11.207 392.367 11.966C391.608 12.725 390.684 13.099 389.595 13.099C388.495 13.099 387.571 12.725 386.812 11.977C386.053 11.229 385.679 10.283 385.679 9.15ZM386.724 9.15C386.724 10.008 387.01 10.723 387.571 11.284C388.132 11.856 388.803 12.142 389.595 12.142C390.409 12.142 391.091 11.856 391.641 11.295C392.18 10.734 392.455 10.019 392.455 9.15C392.455 8.281 392.18 7.566 391.619 7.005C391.058 6.444 390.376 6.158 389.595 6.158C388.792 6.158 388.121 6.444 387.56 7.005C386.999 7.566 386.724 8.281 386.724 9.15ZM394.965 10.965L394.327 10.602C394.624 9.898 395.372 9.425 396.219 9.425C397.242 9.425 397.891 9.942 397.891 10.767C397.891 11.548 397.396 12.252 396.395 12.879L395.713 13.319H398.089V14.1H394.349V13.418L395.438 12.714C396.439 12.054 397.022 11.515 397.022 10.932C397.022 10.448 396.736 10.206 396.175 10.206C395.647 10.206 395.24 10.459 394.965 10.965ZM402.5 8.611L402.61 9.359C402.17 9.48 401.73 9.612 401.301 9.744V12.813C401.301 13.264 401.202 13.473 400.927 13.594C400.663 13.737 400.234 13.748 399.574 13.748C399.541 13.539 399.431 13.22 399.332 13C399.783 13.011 400.201 13.011 400.322 13.011C400.465 13.011 400.509 12.967 400.509 12.824V9.975L399.156 10.382L398.991 9.568C399.409 9.469 399.937 9.337 400.509 9.172V6.774H399.123V6.004H400.509V3.804H401.301V6.004H402.467V6.774H401.301V8.952L402.5 8.611ZM404.535 5.674V3.881H405.327V13.836H404.535V10.954H402.676V10.206H404.535V8.666H402.94V7.94H404.535V6.411H402.907V5.674H404.535ZM409.012 10.239V10.987H407.109V13.847H406.328V3.87H407.109V5.674H408.902V6.411H407.109V7.94H408.792V8.666H407.109V10.239H409.012ZM413.082 5.245L412.345 5.487C412.246 5.08 411.993 4.453 411.784 3.991L412.488 3.782C412.719 4.244 412.972 4.849 413.082 5.245ZM412.081 7.797H414.369C414.369 7.797 414.369 8.061 414.358 8.171C414.281 11.768 414.204 12.978 413.929 13.363C413.753 13.594 413.566 13.682 413.28 13.715C413.005 13.748 412.565 13.748 412.103 13.715C412.081 13.495 412.004 13.176 411.883 12.956C412.334 13 412.741 13.011 412.917 13.011C413.06 13.011 413.159 12.978 413.236 12.857C413.423 12.615 413.5 11.559 413.566 8.545H412.081V8.622C412.081 10.426 411.861 12.285 410.409 13.836C410.266 13.66 410.002 13.44 409.804 13.308C411.135 11.889 411.3 10.162 411.3 8.611V6.334H410.002V5.575H414.853V6.334H412.081V7.797ZM418.406 6.598H416.349C416.327 6.631 416.316 6.675 416.305 6.708C416.536 7.995 416.866 9.172 417.35 10.173C417.867 9.183 418.197 8.006 418.406 6.598ZM420.023 6.598H419.22C418.945 8.369 418.494 9.81 417.812 10.998C418.406 11.933 419.154 12.67 420.122 13.121C419.935 13.286 419.682 13.594 419.55 13.825C418.626 13.341 417.889 12.626 417.317 11.735C416.657 12.604 415.799 13.308 414.71 13.869C414.633 13.682 414.391 13.33 414.237 13.154C415.381 12.626 416.239 11.9 416.877 10.976C416.426 10.085 416.085 9.051 415.81 7.918C415.579 8.424 415.304 8.875 415.018 9.282C414.886 9.117 414.567 8.809 414.38 8.666C415.271 7.511 415.876 5.674 416.217 3.793L417.042 3.925C416.91 4.574 416.767 5.223 416.591 5.839H420.023V6.598ZM423.653 10.525L424.467 10.811C423.807 11.691 422.839 12.604 422.014 13.187C421.849 13.033 421.519 12.758 421.299 12.648C422.179 12.12 423.081 11.306 423.653 10.525ZM429.219 9.623L426.502 9.821V12.758C426.502 13.22 426.403 13.44 426.04 13.572C425.688 13.715 425.138 13.715 424.335 13.715C424.302 13.473 424.159 13.143 424.027 12.912C424.687 12.934 425.281 12.934 425.457 12.934C425.644 12.923 425.677 12.879 425.677 12.747V9.887C422.674 10.107 422.245 10.173 421.937 10.294C421.904 10.129 421.783 9.755 421.684 9.535C422.047 9.491 422.531 9.282 423.213 8.941C423.587 8.765 424.39 8.325 425.336 7.753C423.103 7.885 422.751 7.929 422.542 8.017C422.509 7.863 422.388 7.489 422.3 7.28C422.52 7.258 422.784 7.093 423.103 6.84C423.389 6.664 424.203 6.015 424.907 5.267C423.895 5.355 422.861 5.421 421.904 5.465C421.882 5.256 421.783 4.937 421.695 4.75C424.346 4.607 427.525 4.321 429.285 3.881L429.868 4.552C428.823 4.805 427.47 5.014 426.051 5.157C425.325 5.905 424.522 6.62 423.741 7.181L426.403 7.049C426.997 6.653 427.602 6.213 428.152 5.762L428.779 6.29C427.173 7.511 425.501 8.523 423.862 9.315L428.658 9.007C428.372 8.688 428.064 8.391 427.778 8.116L428.394 7.797C429.252 8.545 430.187 9.557 430.638 10.217L429.989 10.613C429.802 10.338 429.527 9.986 429.219 9.623ZM427.47 10.888L428.119 10.47C429.021 11.13 430.154 12.098 430.737 12.714L430.044 13.209C429.505 12.593 428.383 11.592 427.47 10.888ZM436.369 4.002L437.051 4.31C436.732 4.805 436.38 5.355 436.072 5.718L435.544 5.465C435.819 5.069 436.182 4.442 436.369 4.002ZM433.795 5.487L433.168 5.751C433.069 5.366 432.783 4.761 432.486 4.31L433.08 4.068C433.388 4.497 433.685 5.08 433.795 5.487ZM434.334 8.567V7.236C433.784 7.885 433.069 8.49 432.398 8.842C432.31 8.655 432.112 8.38 431.958 8.226C432.728 7.896 433.542 7.225 434.081 6.51H432.068V5.828H434.334V3.793H435.093V5.828H437.337V6.51H435.269C435.819 6.829 436.765 7.445 437.018 7.632L436.567 8.226C436.303 7.973 435.621 7.434 435.093 7.06V8.567H434.334ZM436.006 10.14H434.224C434.059 10.448 433.894 10.756 433.74 11.009C434.147 11.185 434.587 11.394 434.983 11.592C435.412 11.196 435.764 10.712 436.006 10.14ZM436.545 12.505L436.039 13.044C435.786 12.857 435.456 12.637 435.082 12.428C434.301 13.055 433.366 13.484 432.365 13.748C432.288 13.572 432.123 13.275 431.98 13.121C432.871 12.923 433.707 12.571 434.422 12.065C433.872 11.779 433.278 11.504 432.739 11.306C432.97 10.976 433.212 10.569 433.443 10.14H432.299V9.447H433.784C433.894 9.205 433.993 8.974 434.07 8.743L434.796 8.875C434.719 9.062 434.653 9.249 434.565 9.447H436.358L436.479 9.414L436.941 9.601C436.655 10.547 436.204 11.317 435.621 11.933C435.973 12.131 436.303 12.329 436.545 12.505ZM440.362 6.675H438.602C438.811 7.863 439.119 8.985 439.537 9.964C439.933 9.04 440.197 7.94 440.362 6.675ZM441.869 6.675H441.143C440.89 8.325 440.527 9.678 439.944 10.811C440.505 11.823 441.231 12.626 442.133 13.11C441.946 13.264 441.715 13.539 441.594 13.748C440.747 13.231 440.054 12.483 439.515 11.559C438.866 12.516 438.03 13.275 436.908 13.88C436.831 13.704 436.6 13.374 436.457 13.22C437.645 12.637 438.503 11.834 439.119 10.789C438.701 9.931 438.393 8.941 438.151 7.852C437.931 8.391 437.678 8.875 437.403 9.293C437.271 9.161 436.963 8.908 436.787 8.798C437.623 7.643 438.118 5.806 438.393 3.903L439.141 4.013C439.053 4.662 438.921 5.3 438.767 5.916H441.869V6.675ZM450.13 8.82C450.13 6.675 450.999 4.926 452.319 3.584L452.979 3.925C451.714 5.234 450.933 6.862 450.933 8.82C450.933 10.778 451.714 12.406 452.979 13.715L452.319 14.056C450.999 12.714 450.13 10.965 450.13 8.82ZM456.323 5.597H455.08V10.184H456.323V5.597ZM457.071 4.838V10.943H455.08V11.988H454.332V4.838H457.071ZM461.603 13.044H462.417C462.615 13.044 462.824 13.033 462.934 13C463.033 12.967 463.154 12.901 463.187 12.747C463.231 12.582 463.264 12.219 463.275 11.713C463.473 11.878 463.759 12.021 464.023 12.109C464.012 12.538 463.935 13.066 463.858 13.286C463.759 13.495 463.594 13.627 463.352 13.704C463.121 13.77 462.791 13.803 462.483 13.803H461.449C461.174 13.803 460.8 13.748 460.569 13.605C460.305 13.44 460.184 13.242 460.184 12.296V10.877H457.885V7.027H458.655V10.118H460.184V6.081H457.5V5.311H460.184V3.815H460.987V5.311H463.902V6.081H460.987V10.118H462.527V7.016H463.319V11.482H462.527V10.877H460.987V12.373C460.987 12.714 461.031 12.923 461.174 12.978C461.295 13.022 461.427 13.044 461.603 13.044ZM471.272 11.108L471.844 11.746C471.261 12.571 470.095 13.099 468.852 13.099C467.642 13.099 466.674 12.736 465.959 12.021C465.244 11.306 464.881 10.349 464.881 9.15C464.881 8.017 465.244 7.082 465.959 6.323C466.674 5.575 467.609 5.201 468.775 5.201C470.095 5.201 471.173 5.729 471.734 6.477L471.085 7.104C470.458 6.477 469.688 6.158 468.797 6.158C467.906 6.158 467.213 6.433 466.696 6.983C466.179 7.533 465.926 8.259 465.926 9.15C465.926 10.052 466.201 10.778 466.751 11.317C467.301 11.867 468.027 12.142 468.918 12.142C469.875 12.142 470.656 11.801 471.272 11.108ZM472.165 9.15C472.165 8.039 472.539 7.093 473.298 6.334C474.057 5.575 474.981 5.201 476.081 5.201C477.17 5.201 478.094 5.575 478.853 6.323C479.612 7.071 479.986 8.017 479.986 9.15C479.986 10.272 479.612 11.207 478.853 11.966C478.094 12.725 477.17 13.099 476.081 13.099C474.981 13.099 474.057 12.725 473.298 11.977C472.539 11.229 472.165 10.283 472.165 9.15ZM473.21 9.15C473.21 10.008 473.496 10.723 474.057 11.284C474.618 11.856 475.289 12.142 476.081 12.142C476.895 12.142 477.577 11.856 478.127 11.295C478.666 10.734 478.941 10.019 478.941 9.15C478.941 8.281 478.666 7.566 478.105 7.005C477.544 6.444 476.862 6.158 476.081 6.158C475.278 6.158 474.607 6.444 474.046 7.005C473.485 7.566 473.21 8.281 473.21 9.15ZM481.451 10.965L480.813 10.602C481.11 9.898 481.858 9.425 482.705 9.425C483.728 9.425 484.377 9.942 484.377 10.767C484.377 11.548 483.882 12.252 482.881 12.879L482.199 13.319H484.575V14.1H480.835V13.418L481.924 12.714C482.925 12.054 483.508 11.515 483.508 10.932C483.508 10.448 483.222 10.206 482.661 10.206C482.133 10.206 481.726 10.459 481.451 10.965ZM485.411 15.255L484.597 14.947L488.249 5.157L489.063 5.421L485.411 15.255ZM491.526 5.597H490.283V10.184H491.526V5.597ZM492.274 4.838V10.943H490.283V11.988H489.535V4.838H492.274ZM496.806 13.044H497.62C497.818 13.044 498.027 13.033 498.137 13C498.236 12.967 498.357 12.901 498.39 12.747C498.434 12.582 498.467 12.219 498.478 11.713C498.676 11.878 498.962 12.021 499.226 12.109C499.215 12.538 499.138 13.066 499.061 13.286C498.962 13.495 498.797 13.627 498.555 13.704C498.324 13.77 497.994 13.803 497.686 13.803H496.652C496.377 13.803 496.003 13.748 495.772 13.605C495.508 13.44 495.387 13.242 495.387 12.296V10.877H493.088V7.027H493.858V10.118H495.387V6.081H492.703V5.311H495.387V3.815H496.19V5.311H499.105V6.081H496.19V10.118H497.73V7.016H498.522V11.482H497.73V10.877H496.19V12.373C496.19 12.714 496.234 12.923 496.377 12.978C496.498 13.022 496.63 13.044 496.806 13.044ZM509.643 4.97L509.137 5.542C508.752 5.168 507.949 4.662 507.278 4.343L507.751 3.837C508.422 4.134 509.236 4.607 509.643 4.97ZM505.242 11.284L505.309 12.054C503.626 12.417 501.833 12.802 500.557 13.088L500.403 12.263C501.591 12.032 503.461 11.658 505.242 11.284ZM504.088 9.942V8.039H501.855V9.942H504.088ZM501.096 7.324H504.891V10.646H501.096V7.324ZM508.697 7.137L509.522 7.335C509.038 8.809 508.389 10.096 507.564 11.185C507.971 12.318 508.466 13 509.005 13C509.313 13 509.445 12.428 509.511 10.965C509.698 11.163 509.995 11.35 510.226 11.427C510.083 13.308 509.775 13.847 508.928 13.847C508.103 13.847 507.443 13.132 506.948 11.944C506.266 12.692 505.495 13.319 504.627 13.836C504.495 13.671 504.176 13.352 503.989 13.209C505.023 12.659 505.902 11.933 506.629 11.053C506.244 9.766 506.002 8.138 505.859 6.356H500.458V5.553H505.815C505.782 4.981 505.771 4.409 505.76 3.826H506.618C506.618 4.42 506.629 4.992 506.651 5.553H509.951V6.356H506.706C506.816 7.808 507.003 9.128 507.278 10.195C507.872 9.293 508.345 8.281 508.697 7.137ZM521.094 8.105V8.908H516.584V13.847H515.737V8.908H511.304V8.105H515.737V5.487C514.527 5.663 513.284 5.795 512.118 5.894C512.096 5.685 511.975 5.355 511.887 5.168C514.549 4.926 517.651 4.497 519.389 3.947L520.016 4.618C519.059 4.904 517.871 5.146 516.584 5.355V8.105H521.094ZM527.771 5.498L526.935 5.74C526.847 5.267 526.616 4.519 526.407 3.958L527.199 3.749C527.419 4.31 527.661 5.025 527.771 5.498ZM531.621 5.872V6.675H522.788V5.872H531.621ZM526.209 11.878L525.34 12.087C525.186 10.833 524.724 8.908 524.306 7.467L525.12 7.269C525.549 8.743 526.011 10.613 526.209 11.878ZM528.519 12.56H532.061V13.374H522.315V12.56H527.639C528.233 11.152 528.915 8.875 529.267 7.269L530.191 7.445C529.74 9.084 529.08 11.174 528.519 12.56ZM388.252 22.488H382.653C382.62 23.071 382.576 23.654 382.499 24.237H387.185C387.185 24.237 387.174 24.512 387.152 24.633C386.943 27.724 386.723 28.912 386.294 29.341C386.03 29.616 385.777 29.693 385.348 29.726C384.963 29.748 384.237 29.737 383.511 29.693C383.489 29.44 383.379 29.11 383.214 28.89C384.006 28.956 384.765 28.967 385.062 28.967C385.315 28.967 385.447 28.945 385.579 28.846C385.909 28.56 386.118 27.504 386.305 25.029H382.378C382.026 26.965 381.212 28.769 379.144 29.869C379.012 29.66 378.759 29.374 378.55 29.22C381.366 27.823 381.641 24.996 381.762 22.488H378.792V21.696H383.588C383.456 21.256 383.126 20.552 382.851 20.046L383.621 19.738C383.929 20.255 384.259 20.915 384.424 21.366L383.654 21.696H388.252V22.488ZM397.921 20.354L398.801 20.706C398.273 21.63 397.569 22.73 397.019 23.423L396.315 23.104C396.865 22.378 397.547 21.201 397.921 20.354ZM392.608 22.983L391.816 23.335C391.574 22.653 390.947 21.564 390.32 20.761L391.057 20.453C391.673 21.223 392.344 22.279 392.608 22.983ZM399.307 24.82H395.567C396.546 26.305 398.152 27.79 399.593 28.538C399.395 28.703 399.12 29.022 398.977 29.242C397.536 28.373 395.952 26.8 394.907 25.183V29.847H394.06V25.205C393.037 26.877 391.486 28.45 390.023 29.341C389.891 29.132 389.616 28.835 389.44 28.659C390.881 27.878 392.476 26.36 393.411 24.82H389.682V24.017H394.06V19.815H394.907V24.017H399.307V24.82ZM410.384 21.63L409.812 21.872C409.68 21.432 409.383 20.75 409.108 20.244L409.636 20.035C409.944 20.53 410.252 21.201 410.384 21.63ZM406.424 21.542H405.302C404.939 22.73 404.444 23.775 403.839 24.556C403.718 24.435 403.432 24.204 403.267 24.116C404.136 23.082 404.719 21.465 405.049 19.749L405.72 19.87C405.654 20.211 405.577 20.563 405.489 20.893H406.633L406.754 20.86L407.183 20.992C407.128 21.388 407.073 21.784 406.996 22.147H408.173V21.905V19.826H408.866V21.905V22.147H410.505V22.84H408.965C409.229 24.38 409.801 25.799 410.725 26.448C410.549 26.591 410.307 26.866 410.197 27.053C409.46 26.448 408.954 25.425 408.613 24.204C408.338 25.249 407.766 26.261 406.578 27.097C406.468 26.932 406.226 26.701 406.072 26.591C407.612 25.513 408.03 24.149 408.14 22.84H406.985V22.18C406.49 24.578 405.489 26.206 404.147 27.097C404.048 26.921 403.85 26.657 403.685 26.525C404.301 26.151 404.862 25.546 405.324 24.765C405.06 24.567 404.73 24.336 404.466 24.16L404.807 23.709C405.06 23.863 405.357 24.061 405.61 24.237C405.731 23.984 405.852 23.698 405.951 23.412C405.687 23.236 405.368 23.06 405.093 22.928L405.379 22.433C405.621 22.532 405.896 22.686 406.149 22.818C406.259 22.422 406.347 21.982 406.424 21.542ZM401.001 21.905L401.54 21.982C401.496 22.928 401.32 24.105 400.979 24.853L400.451 24.556C400.77 23.907 400.946 22.796 401.001 21.905ZM403.839 27.46L403.289 28.021C403.124 27.702 402.772 27.108 402.453 26.624C402.244 27.779 401.804 28.868 400.979 29.825C400.869 29.649 400.627 29.407 400.451 29.297C401.826 27.68 401.98 25.623 401.98 23.632V19.881H402.684V23.478C402.926 22.884 403.223 21.982 403.377 21.366L404.015 21.597C403.707 22.312 403.388 23.203 403.102 23.742L402.684 23.566V23.621C402.684 24.303 402.662 25.007 402.596 25.689C402.915 26.096 403.652 27.185 403.839 27.46ZM403.839 29.825L403.201 29.484C403.762 28.912 404.224 27.966 404.477 27.229L405.115 27.471C404.818 28.263 404.4 29.209 403.839 29.825ZM405.709 27.57L406.38 27.471C406.512 28.153 406.633 29.033 406.655 29.605L405.951 29.715C405.929 29.132 405.819 28.252 405.709 27.57ZM407.249 27.592L407.898 27.416C408.184 28.076 408.492 28.956 408.613 29.517L407.942 29.726C407.832 29.143 407.513 28.263 407.249 27.592ZM408.855 27.427L409.515 27.218C409.966 27.955 410.472 28.945 410.703 29.539L410.01 29.803C409.779 29.209 409.284 28.186 408.855 27.427ZM418.821 21.916L418.403 22.543C418.051 22.125 417.303 21.531 416.676 21.124L417.094 20.574C417.71 20.948 418.469 21.509 418.821 21.916ZM418.348 24.545L417.941 25.205C417.556 24.798 416.775 24.237 416.115 23.885L416.5 23.313C417.149 23.654 417.963 24.149 418.348 24.545ZM415.169 20.453L415.873 20.629C415.609 21.454 415.268 22.488 414.971 23.104L414.443 22.928C414.696 22.279 415.004 21.19 415.169 20.453ZM412.881 22.906L412.232 23.082C412.177 22.422 411.924 21.41 411.638 20.64L412.232 20.497C412.551 21.256 412.804 22.246 412.881 22.906ZM414.08 24.237V24.391C414.388 24.732 415.488 26.184 415.73 26.558L415.191 27.196C414.993 26.789 414.476 25.942 414.08 25.326V29.836H413.321V25.315C412.914 26.492 412.353 27.713 411.803 28.45C411.715 28.219 411.517 27.856 411.385 27.658C412.023 26.888 412.716 25.469 413.101 24.237H411.561V23.467H413.321V19.837H414.08V23.467H415.873V24.237H414.08ZM421.582 26.492L420.163 26.745V29.836H419.393V26.888L415.983 27.504L415.851 26.745L419.393 26.118V19.804H420.163V25.975L421.461 25.744L421.582 26.492ZM423.727 30.177L423.485 29.594C424.332 29.242 424.816 28.725 424.871 27.977C424.805 27.988 424.75 27.988 424.684 27.988C424.233 27.988 423.859 27.724 423.859 27.207C423.859 26.69 424.244 26.415 424.695 26.415C425.3 26.415 425.63 26.91 425.63 27.68C425.63 28.868 424.882 29.77 423.727 30.177ZM435.838 21.597H434.595V26.184H435.838V21.597ZM436.586 20.838V26.943H434.595V27.988H433.847V20.838H436.586ZM441.118 29.044H441.932C442.13 29.044 442.339 29.033 442.449 29C442.548 28.967 442.669 28.901 442.702 28.747C442.746 28.582 442.779 28.219 442.79 27.713C442.988 27.878 443.274 28.021 443.538 28.109C443.527 28.538 443.45 29.066 443.373 29.286C443.274 29.495 443.109 29.627 442.867 29.704C442.636 29.77 442.306 29.803 441.998 29.803H440.964C440.689 29.803 440.315 29.748 440.084 29.605C439.82 29.44 439.699 29.242 439.699 28.296V26.877H437.4V23.027H438.17V26.118H439.699V22.081H437.015V21.311H439.699V19.815H440.502V21.311H443.417V22.081H440.502V26.118H442.042V23.016H442.834V27.482H442.042V26.877H440.502V28.373C440.502 28.714 440.546 28.923 440.689 28.978C440.81 29.022 440.942 29.044 441.118 29.044ZM450.787 27.108L451.359 27.746C450.776 28.571 449.61 29.099 448.367 29.099C447.157 29.099 446.189 28.736 445.474 28.021C444.759 27.306 444.396 26.349 444.396 25.15C444.396 24.017 444.759 23.082 445.474 22.323C446.189 21.575 447.124 21.201 448.29 21.201C449.61 21.201 450.688 21.729 451.249 22.477L450.6 23.104C449.973 22.477 449.203 22.158 448.312 22.158C447.421 22.158 446.728 22.433 446.211 22.983C445.694 23.533 445.441 24.259 445.441 25.15C445.441 26.052 445.716 26.778 446.266 27.317C446.816 27.867 447.542 28.142 448.433 28.142C449.39 28.142 450.171 27.801 450.787 27.108ZM451.679 25.15C451.679 24.039 452.053 23.093 452.812 22.334C453.571 21.575 454.495 21.201 455.595 21.201C456.684 21.201 457.608 21.575 458.367 22.323C459.126 23.071 459.5 24.017 459.5 25.15C459.5 26.272 459.126 27.207 458.367 27.966C457.608 28.725 456.684 29.099 455.595 29.099C454.495 29.099 453.571 28.725 452.812 27.977C452.053 27.229 451.679 26.283 451.679 25.15ZM452.724 25.15C452.724 26.008 453.01 26.723 453.571 27.284C454.132 27.856 454.803 28.142 455.595 28.142C456.409 28.142 457.091 27.856 457.641 27.295C458.18 26.734 458.455 26.019 458.455 25.15C458.455 24.281 458.18 23.566 457.619 23.005C457.058 22.444 456.376 22.158 455.595 22.158C454.792 22.158 454.121 22.444 453.56 23.005C452.999 23.566 452.724 24.281 452.724 25.15ZM460.965 26.965L460.327 26.602C460.624 25.898 461.372 25.425 462.219 25.425C463.242 25.425 463.891 25.942 463.891 26.767C463.891 27.548 463.396 28.252 462.395 28.879L461.713 29.319H464.089V30.1H460.349V29.418L461.438 28.714C462.439 28.054 463.022 27.515 463.022 26.932C463.022 26.448 462.736 26.206 462.175 26.206C461.647 26.206 461.24 26.459 460.965 26.965ZM464.925 31.255L464.111 30.947L467.763 21.157L468.577 21.421L464.925 31.255ZM478.608 24.105V24.908H474.098V29.847H473.251V24.908H468.818V24.105H473.251V21.487C472.041 21.663 470.798 21.795 469.632 21.894C469.61 21.685 469.489 21.355 469.401 21.168C472.063 20.926 475.165 20.497 476.903 19.947L477.53 20.618C476.573 20.904 475.385 21.146 474.098 21.355V24.105H478.608ZM488.42 20.695L489.223 21.102C488.64 22.004 487.903 23.093 487.298 23.786L486.671 23.423C487.254 22.719 488.002 21.542 488.42 20.695ZM482.524 23.39L481.787 23.808C481.512 23.093 480.808 21.982 480.148 21.157L480.83 20.805C481.49 21.608 482.216 22.686 482.524 23.39ZM483.008 24.127V19.936H483.811V24.127C483.811 26.481 483.404 28.593 480.335 29.913C480.236 29.715 480.005 29.385 479.84 29.231C481.996 28.329 482.711 27.031 482.92 25.546C481.941 26.041 480.94 26.514 480.126 26.91L479.752 26.107C480.566 25.799 481.787 25.271 482.997 24.732C483.008 24.534 483.008 24.336 483.008 24.127ZM486.803 28.923H488.486C488.871 28.923 488.937 28.648 489.003 27.592C489.201 27.746 489.509 27.889 489.751 27.944C489.641 29.253 489.41 29.704 488.53 29.704H486.704C485.714 29.704 485.439 29.407 485.439 28.285V19.936H486.242V24.567L486.484 24.303C487.584 24.875 488.981 25.744 489.674 26.382L489.157 27.042C488.541 26.459 487.298 25.612 486.242 25.007V28.285C486.242 28.813 486.33 28.923 486.803 28.923ZM496.065 26.448L496.494 25.821C497.627 26.25 499.266 26.921 500.102 27.339L499.662 28.065C498.848 27.625 497.231 26.91 496.065 26.448ZM495.878 23.83H500.597V24.633H495.911V29.847H495.064V24.633H490.818V23.83H495.031V19.793H495.878V21.355H499.486V22.136H495.878V23.83ZM502.478 29.869L501.719 29.561C502.214 29.033 502.786 28.197 503.149 27.449L503.908 27.658C503.523 28.417 502.973 29.308 502.478 29.869ZM505.756 23.962L504.37 24.358V26.228C504.37 26.668 504.271 26.877 503.985 26.998C503.71 27.13 503.27 27.141 502.555 27.141C502.522 26.932 502.423 26.613 502.313 26.404C502.819 26.415 503.281 26.415 503.413 26.415C503.556 26.404 503.611 26.371 503.611 26.228V24.567C503.006 24.743 502.434 24.908 501.95 25.051L501.741 24.259C502.258 24.138 502.896 23.973 503.611 23.786V22.092H501.972V21.322H503.611V19.804H504.37V21.322H505.646V22.092H504.37V23.577C504.799 23.456 505.239 23.346 505.668 23.225L505.756 23.962ZM504.997 27.768L505.745 27.691C505.888 28.329 506.009 29.165 506.02 29.649L505.217 29.77C505.217 29.264 505.118 28.417 504.997 27.768ZM507.252 27.746L508 27.603C508.308 28.23 508.605 29.066 508.715 29.583L507.912 29.759C507.813 29.242 507.527 28.395 507.252 27.746ZM509.617 22.081H508.143C508.099 22.972 508.011 23.742 507.835 24.413C508.418 24.787 508.968 25.15 509.331 25.447L508.913 26.096C508.594 25.821 508.132 25.48 507.615 25.117C507.252 26.008 506.691 26.657 505.778 27.174C505.679 26.987 505.448 26.712 505.261 26.58C506.119 26.118 506.636 25.513 506.955 24.677C506.57 24.446 506.196 24.204 505.855 23.995L506.251 23.445C506.537 23.61 506.845 23.797 507.153 23.973C507.274 23.423 507.34 22.807 507.373 22.081H505.91V21.377H507.395C507.406 20.882 507.417 20.354 507.417 19.782H508.198C508.187 20.354 508.187 20.882 508.165 21.377H510.398C510.321 24.798 510.31 26.503 510.904 26.492C511.102 26.492 511.179 26.206 511.212 25.293C511.388 25.425 511.663 25.557 511.85 25.623C511.762 26.866 511.52 27.229 510.871 27.229C509.573 27.229 509.584 25.304 509.617 22.081ZM509.507 27.691L510.222 27.372C510.772 28.032 511.421 28.945 511.696 29.528L510.948 29.891C510.673 29.308 510.046 28.362 509.507 27.691ZM521.453 24.6H519.583C518.538 24.6 518.263 24.347 518.263 23.456V19.826H519.066V21.663C520.001 21.355 520.98 20.948 521.607 20.629L522.157 21.223C521.288 21.63 520.122 22.015 519.066 22.334V23.445C519.066 23.786 519.154 23.863 519.649 23.863H521.387C521.805 23.863 521.882 23.676 521.937 22.587C522.102 22.73 522.432 22.851 522.663 22.906C522.564 24.226 522.322 24.6 521.453 24.6ZM514.105 26.965H516.426V25.964H514.105V26.965ZM516.426 24.38H514.105V25.315H516.426V24.38ZM517.229 23.687V28.901C517.229 29.319 517.152 29.539 516.844 29.671C516.547 29.803 516.074 29.814 515.381 29.814C515.337 29.594 515.227 29.275 515.117 29.066C515.634 29.088 516.096 29.077 516.239 29.066C516.393 29.066 516.426 29.033 516.426 28.89V27.603H514.105V29.836H513.346V23.687H517.229ZM515.645 20.728L516.316 20.453C516.877 21.19 517.493 22.18 517.724 22.829L517.009 23.148C516.943 22.972 516.866 22.785 516.767 22.565C513.764 22.785 513.39 22.84 513.148 22.928C513.104 22.763 512.983 22.356 512.884 22.158C513.049 22.114 513.203 21.96 513.39 21.729C513.577 21.498 514.182 20.629 514.534 19.771L515.37 20.035C514.996 20.761 514.501 21.509 514.028 22.092L516.437 21.949C516.195 21.52 515.909 21.091 515.645 20.728ZM519.682 29.022H521.442C521.893 29.022 521.981 28.802 522.036 27.581C522.212 27.702 522.531 27.834 522.762 27.878C522.663 29.363 522.421 29.748 521.508 29.748H519.605C518.549 29.748 518.263 29.495 518.263 28.593V24.908H519.077V26.635C520.067 26.316 521.123 25.898 521.739 25.491L522.278 26.096C521.442 26.591 520.188 27.009 519.077 27.317V28.593C519.077 28.956 519.176 29.022 519.682 29.022ZM524.929 30.177L524.687 29.594C525.534 29.242 526.018 28.725 526.073 27.977C526.007 27.988 525.952 27.988 525.886 27.988C525.435 27.988 525.061 27.724 525.061 27.207C525.061 26.69 525.446 26.415 525.897 26.415C526.502 26.415 526.832 26.91 526.832 27.68C526.832 28.868 526.084 29.77 524.929 30.177ZM388.406 40.105V40.908H383.896V45.847H383.049V40.908H378.616V40.105H383.049V37.487C381.839 37.663 380.596 37.795 379.43 37.894C379.408 37.685 379.287 37.355 379.199 37.168C381.861 36.926 384.963 36.497 386.701 35.947L387.328 36.618C386.371 36.904 385.183 37.146 383.896 37.355V40.105H388.406ZM391.794 39.599V41.359H397.217V39.599H391.794ZM396.601 44.956H398.185C398.636 44.956 398.702 44.747 398.746 43.339C398.933 43.493 399.285 43.625 399.516 43.68C399.417 45.33 399.175 45.737 398.251 45.737H396.524C395.501 45.737 395.237 45.473 395.237 44.582V42.107H393.598C393.334 43.999 392.641 45.231 389.99 45.869C389.913 45.638 389.682 45.297 389.517 45.121C391.926 44.626 392.498 43.647 392.718 42.107H391.013V38.862H394.06V37.652H389.792V36.893H394.06V35.793H394.874V36.893H399.241V37.652H394.874V38.862H398.042V42.107H396.051V44.582C396.051 44.901 396.139 44.956 396.601 44.956ZM406.787 43.108L407.359 43.746C406.776 44.571 405.61 45.099 404.367 45.099C403.157 45.099 402.189 44.736 401.474 44.021C400.759 43.306 400.396 42.349 400.396 41.15C400.396 40.017 400.759 39.082 401.474 38.323C402.189 37.575 403.124 37.201 404.29 37.201C405.61 37.201 406.688 37.729 407.249 38.477L406.6 39.104C405.973 38.477 405.203 38.158 404.312 38.158C403.421 38.158 402.728 38.433 402.211 38.983C401.694 39.533 401.441 40.259 401.441 41.15C401.441 42.052 401.716 42.778 402.266 43.317C402.816 43.867 403.542 44.142 404.433 44.142C405.39 44.142 406.171 43.801 406.787 43.108ZM407.679 41.15C407.679 40.039 408.053 39.093 408.812 38.334C409.571 37.575 410.495 37.201 411.595 37.201C412.684 37.201 413.608 37.575 414.367 38.323C415.126 39.071 415.5 40.017 415.5 41.15C415.5 42.272 415.126 43.207 414.367 43.966C413.608 44.725 412.684 45.099 411.595 45.099C410.495 45.099 409.571 44.725 408.812 43.977C408.053 43.229 407.679 42.283 407.679 41.15ZM408.724 41.15C408.724 42.008 409.01 42.723 409.571 43.284C410.132 43.856 410.803 44.142 411.595 44.142C412.409 44.142 413.091 43.856 413.641 43.295C414.18 42.734 414.455 42.019 414.455 41.15C414.455 40.281 414.18 39.566 413.619 39.005C413.058 38.444 412.376 38.158 411.595 38.158C410.792 38.158 410.121 38.444 409.56 39.005C408.999 39.566 408.724 40.281 408.724 41.15ZM416.965 42.965L416.327 42.602C416.624 41.898 417.372 41.425 418.219 41.425C419.242 41.425 419.891 41.942 419.891 42.767C419.891 43.548 419.396 44.252 418.395 44.879L417.713 45.319H420.089V46.1H416.349V45.418L417.438 44.714C418.439 44.054 419.022 43.515 419.022 42.932C419.022 42.448 418.736 42.206 418.175 42.206C417.647 42.206 417.24 42.459 416.965 42.965ZM420.925 47.255L420.111 46.947L423.763 37.157L424.577 37.421L420.925 47.255ZM434.608 40.105V40.908H430.098V45.847H429.251V40.908H424.818V40.105H429.251V37.487C428.041 37.663 426.798 37.795 425.632 37.894C425.61 37.685 425.489 37.355 425.401 37.168C428.063 36.926 431.165 36.497 432.903 35.947L433.53 36.618C432.573 36.904 431.385 37.146 430.098 37.355V40.105H434.608ZM443.639 44.89H444.541C444.849 44.89 444.904 44.571 444.937 42.91C445.124 43.075 445.465 43.207 445.685 43.262C445.608 45.132 445.41 45.671 444.607 45.671H443.518C442.726 45.671 442.484 45.407 442.484 44.439V39.753H438.986C438.7 41.557 438.37 43.592 438.117 44.758L441.868 44.23C441.835 44.461 441.835 44.813 441.835 44.989C437.644 45.627 437.171 45.693 436.874 45.836C436.819 45.583 436.643 45.121 436.522 44.879C436.841 44.802 437.16 44.692 437.281 44.252C437.49 43.68 438.216 39.181 438.513 37.311H436.005V36.519H445.344V37.311H439.404C439.327 37.773 439.228 38.345 439.118 38.972H443.298V44.428C443.298 44.824 443.353 44.89 443.639 44.89ZM439.239 41.04L439.888 40.622C440.603 41.26 441.472 42.162 441.901 42.745L441.208 43.229C440.812 42.635 439.954 41.711 439.239 41.04ZM449.777 37.454H447.907V39.852H449.777V37.454ZM447.907 43.075H449.777V40.589H447.907V43.075ZM450.547 36.717V43.823H447.907V44.692H447.137V36.717H450.547ZM456.74 37.993V38.796H455.409V44.626C455.409 45.209 455.244 45.462 454.859 45.583C454.474 45.726 453.781 45.737 452.681 45.726C452.637 45.506 452.516 45.132 452.384 44.912C453.231 44.934 454.045 44.934 454.287 44.923C454.507 44.912 454.595 44.846 454.595 44.626V38.796H451.042V37.993H454.595V35.859H455.409V37.993H456.74ZM453.803 42.294L453.088 42.712C452.736 42.041 451.999 40.875 451.416 40.028L452.087 39.676C452.67 40.512 453.44 41.634 453.803 42.294ZM459.468 42.085H462.174V40.512H459.468V42.085ZM462.174 38.18H459.468V39.753H462.174V38.18ZM465.859 38.18H463.032V39.753H465.859V38.18ZM463.032 42.085H465.859V40.512H463.032V42.085ZM463.813 44.835H466.123C466.739 44.835 466.849 44.483 466.937 43.053C467.135 43.207 467.487 43.35 467.74 43.416C467.597 45.066 467.333 45.649 466.178 45.649H463.758C462.537 45.649 462.174 45.33 462.174 44.043V42.888H459.468V43.559H458.632V37.388H462.174V35.815H463.032V37.388H466.673V42.888H463.032V44.065C463.032 44.703 463.153 44.835 463.813 44.835ZM477.453 40.6H475.583C474.538 40.6 474.263 40.347 474.263 39.456V35.826H475.066V37.663C476.001 37.355 476.98 36.948 477.607 36.629L478.157 37.223C477.288 37.63 476.122 38.015 475.066 38.334V39.445C475.066 39.786 475.154 39.863 475.649 39.863H477.387C477.805 39.863 477.882 39.676 477.937 38.587C478.102 38.73 478.432 38.851 478.663 38.906C478.564 40.226 478.322 40.6 477.453 40.6ZM470.105 42.965H472.426V41.964H470.105V42.965ZM472.426 40.38H470.105V41.315H472.426V40.38ZM473.229 39.687V44.901C473.229 45.319 473.152 45.539 472.844 45.671C472.547 45.803 472.074 45.814 471.381 45.814C471.337 45.594 471.227 45.275 471.117 45.066C471.634 45.088 472.096 45.077 472.239 45.066C472.393 45.066 472.426 45.033 472.426 44.89V43.603H470.105V45.836H469.346V39.687H473.229ZM471.645 36.728L472.316 36.453C472.877 37.19 473.493 38.18 473.724 38.829L473.009 39.148C472.943 38.972 472.866 38.785 472.767 38.565C469.764 38.785 469.39 38.84 469.148 38.928C469.104 38.763 468.983 38.356 468.884 38.158C469.049 38.114 469.203 37.96 469.39 37.729C469.577 37.498 470.182 36.629 470.534 35.771L471.37 36.035C470.996 36.761 470.501 37.509 470.028 38.092L472.437 37.949C472.195 37.52 471.909 37.091 471.645 36.728ZM475.682 45.022H477.442C477.893 45.022 477.981 44.802 478.036 43.581C478.212 43.702 478.531 43.834 478.762 43.878C478.663 45.363 478.421 45.748 477.508 45.748H475.605C474.549 45.748 474.263 45.495 474.263 44.593V40.908H475.077V42.635C476.067 42.316 477.123 41.898 477.739 41.491L478.278 42.096C477.442 42.591 476.188 43.009 475.077 43.317V44.593C475.077 44.956 475.176 45.022 475.682 45.022ZM482.557 40.82C482.557 42.965 481.688 44.714 480.368 46.056L479.708 45.715C480.973 44.406 481.754 42.778 481.754 40.82C481.754 38.862 480.973 37.234 479.708 35.925L480.368 35.584C481.688 36.926 482.557 38.675 482.557 40.82Z" fill="#1A3341"/>
<path d="M190 87L192.887 82L187.113 82L190 87ZM190.5 82.5L190.5 5.96243e-09L189.5 -5.96243e-09L189.5 82.5L190.5 82.5Z" fill="#CEE0ED"/>
<path d="M280 87L282.887 82L277.113 82L280 87ZM280.5 82.5L280.5 5.96243e-09L279.5 -5.96243e-09L279.5 82.5L280.5 82.5Z" fill="#CEE0ED"/>
<path d="M280 217L277.113 222L282.887 222L280 217ZM279.5 221.5L279.5 265L280.5 265L280.5 221.5L279.5 221.5Z" fill="#CEE0ED"/>
<path d="M368 87L370.887 82L365.113 82L368 87ZM368.5 82.5L368.5 5.96243e-09L367.5 -5.96243e-09L367.5 82.5L368.5 82.5Z" fill="#CEE0ED"/>
<path d="M1 152H0.5V151.5H1V152ZM41 152L36 154.887V149.113L41 152ZM0.5 265V152H1.5V265H0.5ZM1 151.5H36.5V152.5H1V151.5Z" fill="#CEE0ED"/>
</svg>
