<svg width="1090" height="769" viewBox="0 0 1090 769" fill="none" xmlns="http://www.w3.org/2000/svg">
<path d="M46 60H253C253.552 60 254 60.4477 254 61V77C254 77.5523 253.552 78 253 78H46V60Z" fill="url(#paint0_linear_164_8751)"/>
<path d="M269.364 73H268.146V70.998H262.154V70.186L268.286 63.2H269.364V69.864H271.184V70.998H269.364V73ZM268.146 65.16L263.834 69.864H268.146V65.16ZM272.806 73C272.288 73.056 271.896 72.762 271.896 72.258C271.896 71.768 272.204 71.46 272.75 71.46C273.366 71.46 273.772 71.88 273.772 72.664C273.772 74.064 273.002 74.778 271.98 75.016L271.686 74.358C271.994 74.274 272.274 74.106 272.526 73.84C272.764 73.574 272.862 73.294 272.806 73ZM281.553 73H280.335V70.998H274.343V70.186L280.475 63.2H281.553V69.864H283.373V70.998H281.553V73ZM280.335 65.16L276.023 69.864H280.335V65.16ZM284.057 68.366C284.057 66.672 284.477 65.37 285.303 64.446C286.129 63.536 287.165 63.074 288.411 63.074C290.049 63.074 291.337 63.816 291.883 64.992L290.931 65.636C290.357 64.726 289.503 64.278 288.355 64.278C287.487 64.278 286.759 64.614 286.171 65.286C285.583 65.972 285.289 66.896 285.303 68.086C285.849 67.064 287.123 66.448 288.523 66.448C289.657 66.448 290.567 66.742 291.225 67.344C291.883 67.946 292.219 68.744 292.219 69.724C292.219 70.718 291.855 71.544 291.113 72.174C290.371 72.804 289.447 73.126 288.341 73.126C285.695 73.126 284.057 71.404 284.057 68.366ZM285.457 69.556C285.723 70.942 286.773 71.922 288.327 71.922C289.083 71.922 289.713 71.726 290.203 71.32C290.693 70.928 290.931 70.41 290.931 69.78C290.931 68.394 289.951 67.652 288.453 67.652C287.627 67.652 286.941 67.848 286.409 68.24C285.863 68.632 285.555 69.066 285.457 69.556ZM293.228 68.1C293.228 66.588 293.578 65.37 294.292 64.46C294.992 63.55 296.028 63.088 297.386 63.088C300.172 63.088 301.558 64.922 301.558 68.1C301.558 69.626 301.208 70.83 300.522 71.74C299.822 72.65 298.786 73.112 297.414 73.112C296.098 73.112 295.076 72.65 294.334 71.726C293.592 70.802 293.228 69.598 293.228 68.1ZM294.516 68.1C294.516 70.494 295.608 71.922 297.414 71.922C299.318 71.922 300.27 70.648 300.27 68.1C300.27 65.552 299.304 64.278 297.386 64.278C295.44 64.278 294.516 65.678 294.516 68.1Z" fill="#1A3341"/>
<path d="M46 84H877C877.552 84 878 84.4477 878 85V101C878 101.552 877.552 102 877 102H46V84Z" fill="url(#paint1_linear_164_8751)"/>
<path d="M886.49 89.804L886.042 88.754L889.402 87.144H890.2V97H888.996V88.642L886.49 89.804ZM895.849 91.414H896.283C896.913 91.414 897.431 91.26 897.865 90.966C898.285 90.672 898.495 90.28 898.495 89.818C898.495 88.768 897.669 88.236 896.031 88.236C894.463 88.236 893.609 88.81 893.609 89.818C893.609 90.728 894.547 91.414 895.849 91.414ZM896.255 92.52H895.905C895.149 92.52 894.519 92.688 894.029 93.01C893.539 93.332 893.287 93.738 893.287 94.228C893.287 95.292 894.267 95.964 896.045 95.964C897.851 95.964 898.817 95.32 898.817 94.242C898.817 93.164 897.781 92.52 896.255 92.52ZM899.013 96.37C898.299 96.874 897.305 97.126 896.059 97.126C894.813 97.126 893.819 96.874 893.091 96.384C892.363 95.894 891.999 95.222 891.999 94.354C891.999 93.22 892.741 92.324 893.931 91.932C892.853 91.582 892.321 90.728 892.321 89.734C892.321 88.11 893.693 87.074 896.045 87.074C898.411 87.074 899.783 88.11 899.783 89.734C899.783 90.672 899.265 91.386 898.229 91.862C899.475 92.24 900.091 93.052 900.091 94.298C900.091 95.18 899.727 95.88 899.013 96.37ZM902.121 97C901.603 97.056 901.211 96.762 901.211 96.258C901.211 95.768 901.519 95.46 902.065 95.46C902.681 95.46 903.087 95.88 903.087 96.664C903.087 98.064 902.317 98.778 901.295 99.016L901.001 98.358C901.309 98.274 901.589 98.106 901.841 97.84C902.079 97.574 902.177 97.294 902.121 97ZM904.106 92.1C904.106 90.588 904.456 89.37 905.17 88.46C905.87 87.55 906.906 87.088 908.264 87.088C911.05 87.088 912.436 88.922 912.436 92.1C912.436 93.626 912.086 94.83 911.4 95.74C910.7 96.65 909.664 97.112 908.292 97.112C906.976 97.112 905.954 96.65 905.212 95.726C904.47 94.802 904.106 93.598 904.106 92.1ZM905.394 92.1C905.394 94.494 906.486 95.922 908.292 95.922C910.196 95.922 911.148 94.648 911.148 92.1C911.148 89.552 910.182 88.278 908.264 88.278C906.318 88.278 905.394 89.678 905.394 92.1ZM913.481 92.366C913.481 90.672 913.901 89.37 914.727 88.446C915.553 87.536 916.589 87.074 917.835 87.074C919.473 87.074 920.761 87.816 921.307 88.992L920.355 89.636C919.781 88.726 918.927 88.278 917.779 88.278C916.911 88.278 916.183 88.614 915.595 89.286C915.007 89.972 914.713 90.896 914.727 92.086C915.273 91.064 916.547 90.448 917.947 90.448C919.081 90.448 919.991 90.742 920.649 91.344C921.307 91.946 921.643 92.744 921.643 93.724C921.643 94.718 921.279 95.544 920.537 96.174C919.795 96.804 918.871 97.126 917.765 97.126C915.119 97.126 913.481 95.404 913.481 92.366ZM914.881 93.556C915.147 94.942 916.197 95.922 917.751 95.922C918.507 95.922 919.137 95.726 919.627 95.32C920.117 94.928 920.355 94.41 920.355 93.78C920.355 92.394 919.375 91.652 917.877 91.652C917.051 91.652 916.365 91.848 915.833 92.24C915.287 92.632 914.979 93.066 914.881 93.556ZM923.772 90.434L922.75 90.07C923.1 88.334 924.416 87.088 926.502 87.088C928.518 87.088 929.75 88.25 929.75 90.028C929.75 90.966 929.344 91.904 928.84 92.576C928.588 92.926 928.266 93.262 927.888 93.612C927.118 94.298 926.572 94.662 925.774 95.166L924.696 95.838H930.114V97H922.484V96.048L924.612 94.634C924.99 94.396 925.256 94.214 925.41 94.102C925.564 94.004 925.816 93.822 926.152 93.584C926.488 93.346 926.74 93.136 926.908 92.982C927.062 92.828 927.272 92.632 927.51 92.38C928.154 91.68 928.392 91.036 928.462 90.154C928.462 88.88 927.636 88.306 926.418 88.306C925.662 88.306 925.06 88.516 924.626 88.936C924.192 89.356 923.898 89.86 923.772 90.434Z" fill="#1A3341"/>
<path opacity="0.6" d="M12.576 67.84H23.472V68.812H12.576V67.84ZM27.276 69.328H32.892V67.312H27.408C27.408 67.936 27.372 68.62 27.276 69.328ZM32.892 64.468H27.408V66.46H32.892V64.468ZM33.816 63.592V72.616C33.816 73.24 33.636 73.552 33.192 73.696C32.736 73.852 31.944 73.864 30.66 73.864C30.6 73.612 30.432 73.192 30.288 72.94C31.284 72.976 32.244 72.964 32.52 72.964C32.796 72.952 32.892 72.868 32.892 72.604V70.204H27.132C26.832 71.56 26.232 72.916 25.068 73.936C24.948 73.744 24.588 73.42 24.408 73.288C26.316 71.608 26.508 69.172 26.508 67.264V63.592H33.816Z" fill="#1A3341"/>
<path d="M46 414H691C691.552 414 692 414.448 692 415V431C692 431.552 691.552 432 691 432H46V414Z" fill="url(#paint2_linear_164_8751)"/>
<path d="M700.49 419.804L700.042 418.754L703.402 417.144H704.2V427H702.996V418.642L700.49 419.804ZM706.951 420.056L705.901 419.58C706.419 418.068 707.777 417.074 709.807 417.074C710.773 417.074 711.571 417.298 712.187 417.746C712.803 418.194 713.111 418.796 713.111 419.538C713.111 420.672 712.509 421.512 711.389 421.834C712.467 421.904 713.335 422.716 713.335 424.172C713.335 425.096 712.999 425.824 712.327 426.342C711.655 426.86 710.801 427.126 709.751 427.126C707.609 427.126 706.125 426.104 705.635 424.494L706.769 424.004C707.371 425.278 708.393 425.922 709.835 425.922C711.193 425.922 712.047 425.292 712.047 424.186C712.047 423.108 711.207 422.562 709.527 422.562H708.435V421.4H709.303C710.829 421.4 711.823 420.714 711.823 419.776C711.823 418.81 711.025 418.264 709.751 418.264C708.253 418.264 707.343 419.034 706.951 420.056ZM715.424 427C714.906 427.056 714.514 426.762 714.514 426.258C714.514 425.768 714.822 425.46 715.368 425.46C715.984 425.46 716.39 425.88 716.39 426.664C716.39 428.064 715.62 428.778 714.598 429.016L714.304 428.358C714.612 428.274 714.892 428.106 715.144 427.84C715.382 427.574 715.48 427.294 715.424 427ZM725.557 421.918C725.557 423.584 725.165 424.872 724.367 425.768C723.569 426.678 722.505 427.126 721.175 427.126C719.551 427.126 718.277 426.44 717.647 425.39L718.655 424.69C719.215 425.474 720.237 425.922 721.343 425.922C722.253 425.922 722.981 425.558 723.555 424.83C724.129 424.116 724.367 423.22 724.297 422.156C723.835 423.22 722.673 424.004 721.119 424.004C720.027 424.004 719.131 423.696 718.431 423.066C717.717 422.45 717.367 421.638 717.367 420.644C717.367 419.552 717.745 418.684 718.501 418.04C719.257 417.396 720.265 417.074 721.511 417.074C724.031 417.074 725.557 418.838 725.557 421.918ZM724.087 420.602C723.877 419.3 722.981 418.278 721.371 418.278C719.691 418.278 718.655 419.146 718.655 420.602C718.655 421.988 719.705 422.8 721.343 422.8C722.085 422.8 722.715 422.576 723.205 422.128C723.695 421.68 723.989 421.176 724.087 420.602ZM732.22 418.39H726.284V417.2H733.718V417.998L728.846 427H727.516L732.22 418.39ZM740.078 418.39H734.142V417.2H741.576V417.998L736.704 427H735.374L740.078 418.39Z" fill="#1A3341"/>
<path d="M46 438H761C761.552 438 762 438.448 762 439V455C762 455.552 761.552 456 761 456H46V438Z" fill="url(#paint3_linear_164_8751)"/>
<path d="M770.49 443.804L770.042 442.754L773.402 441.144H774.2V451H772.996V442.642L770.49 443.804ZM777.413 446.492L776.405 446.226L776.979 441.2H783.139V442.39H778.057L777.693 445.022C778.183 444.658 778.925 444.476 779.919 444.476C781.067 444.476 781.963 444.784 782.621 445.386C783.265 446.002 783.587 446.786 783.587 447.752C783.587 448.718 783.223 449.53 782.509 450.16C781.781 450.804 780.871 451.126 779.793 451.126C777.959 451.126 776.433 450.258 775.803 448.732L776.923 448.256C777.329 449.194 778.379 449.936 779.793 449.936C781.403 449.936 782.299 449.012 782.299 447.794C782.299 446.492 781.249 445.652 779.583 445.652C778.687 445.652 777.959 445.932 777.413 446.492ZM785.588 451C785.07 451.056 784.678 450.762 784.678 450.258C784.678 449.768 784.986 449.46 785.532 449.46C786.148 449.46 786.554 449.88 786.554 450.664C786.554 452.064 785.784 452.778 784.762 453.016L784.468 452.358C784.776 452.274 785.056 452.106 785.308 451.84C785.546 451.574 785.644 451.294 785.588 451ZM789.001 446.492L787.993 446.226L788.567 441.2H794.727V442.39H789.645L789.281 445.022C789.771 444.658 790.513 444.476 791.507 444.476C792.655 444.476 793.551 444.784 794.209 445.386C794.853 446.002 795.175 446.786 795.175 447.752C795.175 448.718 794.811 449.53 794.097 450.16C793.369 450.804 792.459 451.126 791.381 451.126C789.547 451.126 788.021 450.258 787.391 448.732L788.511 448.256C788.917 449.194 789.967 449.936 791.381 449.936C792.991 449.936 793.887 449.012 793.887 447.794C793.887 446.492 792.837 445.652 791.171 445.652C790.275 445.652 789.547 445.932 789.001 446.492ZM797.203 444.056L796.153 443.58C796.671 442.068 798.029 441.074 800.059 441.074C801.025 441.074 801.823 441.298 802.439 441.746C803.055 442.194 803.363 442.796 803.363 443.538C803.363 444.672 802.761 445.512 801.641 445.834C802.719 445.904 803.587 446.716 803.587 448.172C803.587 449.096 803.251 449.824 802.579 450.342C801.907 450.86 801.053 451.126 800.003 451.126C797.861 451.126 796.377 450.104 795.887 448.494L797.021 448.004C797.623 449.278 798.645 449.922 800.087 449.922C801.445 449.922 802.299 449.292 802.299 448.186C802.299 447.108 801.459 446.562 799.779 446.562H798.687V445.4H799.555C801.081 445.4 802.075 444.714 802.075 443.776C802.075 442.81 801.277 442.264 800.003 442.264C798.505 442.264 797.595 443.034 797.203 444.056ZM808.602 445.414H809.036C809.666 445.414 810.184 445.26 810.618 444.966C811.038 444.672 811.248 444.28 811.248 443.818C811.248 442.768 810.422 442.236 808.784 442.236C807.216 442.236 806.362 442.81 806.362 443.818C806.362 444.728 807.3 445.414 808.602 445.414ZM809.008 446.52H808.658C807.902 446.52 807.272 446.688 806.782 447.01C806.292 447.332 806.04 447.738 806.04 448.228C806.04 449.292 807.02 449.964 808.798 449.964C810.604 449.964 811.57 449.32 811.57 448.242C811.57 447.164 810.534 446.52 809.008 446.52ZM811.766 450.37C811.052 450.874 810.058 451.126 808.812 451.126C807.566 451.126 806.572 450.874 805.844 450.384C805.116 449.894 804.752 449.222 804.752 448.354C804.752 447.22 805.494 446.324 806.684 445.932C805.606 445.582 805.074 444.728 805.074 443.734C805.074 442.11 806.446 441.074 808.798 441.074C811.164 441.074 812.536 442.11 812.536 443.734C812.536 444.672 812.018 445.386 810.982 445.862C812.228 446.24 812.844 447.052 812.844 448.298C812.844 449.18 812.48 449.88 811.766 450.37Z" fill="#1A3341"/>
<path opacity="0.6" d="M18.036 426.616H21.108C21.9 426.616 22.02 426.208 22.14 424.432C22.368 424.6 22.788 424.78 23.04 424.852C22.884 426.82 22.596 427.492 21.132 427.492H18C16.524 427.492 16.08 427.12 16.08 425.704V422.068L12.78 422.596L12.636 421.708L16.08 421.156V417.172H17.016V421.012L23.256 420.004L23.4 420.904L17.016 421.912V425.716C17.016 426.448 17.184 426.616 18.036 426.616ZM27.276 423.328H32.892V421.312H27.408C27.408 421.936 27.372 422.62 27.276 423.328ZM32.892 418.468H27.408V420.46H32.892V418.468ZM33.816 417.592V426.616C33.816 427.24 33.636 427.552 33.192 427.696C32.736 427.852 31.944 427.864 30.66 427.864C30.6 427.612 30.432 427.192 30.288 426.94C31.284 426.976 32.244 426.964 32.52 426.964C32.796 426.952 32.892 426.868 32.892 426.604V424.204H27.132C26.832 425.56 26.232 426.916 25.068 427.936C24.948 427.744 24.588 427.42 24.408 427.288C26.316 425.608 26.508 423.172 26.508 421.264V417.592H33.816Z" fill="#1A3341"/>
<path d="M46 237H451C451.552 237 452 237.448 452 238V254C452 254.552 451.552 255 451 255H46V237Z" fill="url(#paint4_linear_164_8751)"/>
<path d="M464.466 244.414H464.9C465.53 244.414 466.048 244.26 466.482 243.966C466.902 243.672 467.112 243.28 467.112 242.818C467.112 241.768 466.286 241.236 464.648 241.236C463.08 241.236 462.226 241.81 462.226 242.818C462.226 243.728 463.164 244.414 464.466 244.414ZM464.872 245.52H464.522C463.766 245.52 463.136 245.688 462.646 246.01C462.156 246.332 461.904 246.738 461.904 247.228C461.904 248.292 462.884 248.964 464.662 248.964C466.468 248.964 467.434 248.32 467.434 247.242C467.434 246.164 466.398 245.52 464.872 245.52ZM467.63 249.37C466.916 249.874 465.922 250.126 464.676 250.126C463.43 250.126 462.436 249.874 461.708 249.384C460.98 248.894 460.616 248.222 460.616 247.354C460.616 246.22 461.358 245.324 462.548 244.932C461.47 244.582 460.938 243.728 460.938 242.734C460.938 241.11 462.31 240.074 464.662 240.074C467.028 240.074 468.4 241.11 468.4 242.734C468.4 243.672 467.882 244.386 466.846 244.862C468.092 245.24 468.708 246.052 468.708 247.298C468.708 248.18 468.344 248.88 467.63 249.37ZM470.738 250C470.22 250.056 469.828 249.762 469.828 249.258C469.828 248.768 470.136 248.46 470.682 248.46C471.298 248.46 471.704 248.88 471.704 249.664C471.704 251.064 470.934 251.778 469.912 252.016L469.618 251.358C469.926 251.274 470.206 251.106 470.458 250.84C470.696 250.574 470.794 250.294 470.738 250ZM478.336 241.39H472.4V240.2H479.834V240.998L474.962 250H473.632L478.336 241.39ZM484.444 244.414H484.878C485.508 244.414 486.026 244.26 486.46 243.966C486.88 243.672 487.09 243.28 487.09 242.818C487.09 241.768 486.264 241.236 484.626 241.236C483.058 241.236 482.204 241.81 482.204 242.818C482.204 243.728 483.142 244.414 484.444 244.414ZM484.85 245.52H484.5C483.744 245.52 483.114 245.688 482.624 246.01C482.134 246.332 481.882 246.738 481.882 247.228C481.882 248.292 482.862 248.964 484.64 248.964C486.446 248.964 487.412 248.32 487.412 247.242C487.412 246.164 486.376 245.52 484.85 245.52ZM487.608 249.37C486.894 249.874 485.9 250.126 484.654 250.126C483.408 250.126 482.414 249.874 481.686 249.384C480.958 248.894 480.594 248.222 480.594 247.354C480.594 246.22 481.336 245.324 482.526 244.932C481.448 244.582 480.916 243.728 480.916 242.734C480.916 241.11 482.288 240.074 484.64 240.074C487.006 240.074 488.378 241.11 488.378 242.734C488.378 243.672 487.86 244.386 486.824 244.862C488.07 245.24 488.686 246.052 488.686 247.298C488.686 248.18 488.322 248.88 487.608 249.37ZM493.642 244.414H494.076C494.706 244.414 495.224 244.26 495.658 243.966C496.078 243.672 496.288 243.28 496.288 242.818C496.288 241.768 495.462 241.236 493.824 241.236C492.256 241.236 491.402 241.81 491.402 242.818C491.402 243.728 492.34 244.414 493.642 244.414ZM494.048 245.52H493.698C492.942 245.52 492.312 245.688 491.822 246.01C491.332 246.332 491.08 246.738 491.08 247.228C491.08 248.292 492.06 248.964 493.838 248.964C495.644 248.964 496.61 248.32 496.61 247.242C496.61 246.164 495.574 245.52 494.048 245.52ZM496.806 249.37C496.092 249.874 495.098 250.126 493.852 250.126C492.606 250.126 491.612 249.874 490.884 249.384C490.156 248.894 489.792 248.222 489.792 247.354C489.792 246.22 490.534 245.324 491.724 244.932C490.646 244.582 490.114 243.728 490.114 242.734C490.114 241.11 491.486 240.074 493.838 240.074C496.204 240.074 497.576 241.11 497.576 242.734C497.576 243.672 497.058 244.386 496.022 244.862C497.268 245.24 497.884 246.052 497.884 247.298C497.884 248.18 497.52 248.88 496.806 249.37Z" fill="#1A3341"/>
<path d="M46 261H932C932.552 261 933 261.448 933 262V278C933 278.552 932.552 279 932 279H46V261Z" fill="url(#paint5_linear_164_8751)"/>
<path d="M941.49 266.804L941.042 265.754L944.402 264.144H945.2V274H943.996V265.642L941.49 266.804ZM955.133 268.918C955.133 270.584 954.741 271.872 953.943 272.768C953.145 273.678 952.081 274.126 950.751 274.126C949.127 274.126 947.853 273.44 947.223 272.39L948.231 271.69C948.791 272.474 949.813 272.922 950.919 272.922C951.829 272.922 952.557 272.558 953.131 271.83C953.705 271.116 953.943 270.22 953.873 269.156C953.411 270.22 952.249 271.004 950.695 271.004C949.603 271.004 948.707 270.696 948.007 270.066C947.293 269.45 946.943 268.638 946.943 267.644C946.943 266.552 947.321 265.684 948.077 265.04C948.833 264.396 949.841 264.074 951.087 264.074C953.607 264.074 955.133 265.838 955.133 268.918ZM953.663 267.602C953.453 266.3 952.557 265.278 950.947 265.278C949.267 265.278 948.231 266.146 948.231 267.602C948.231 268.988 949.281 269.8 950.919 269.8C951.661 269.8 952.291 269.576 952.781 269.128C953.271 268.68 953.565 268.176 953.663 267.602ZM957.121 274C956.603 274.056 956.211 273.762 956.211 273.258C956.211 272.768 956.519 272.46 957.065 272.46C957.681 272.46 958.087 272.88 958.087 273.664C958.087 275.064 957.317 275.778 956.295 276.016L956.001 275.358C956.309 275.274 956.589 275.106 956.841 274.84C957.079 274.574 957.177 274.294 957.121 274ZM960.226 267.434L959.204 267.07C959.554 265.334 960.87 264.088 962.956 264.088C964.972 264.088 966.204 265.25 966.204 267.028C966.204 267.966 965.798 268.904 965.294 269.576C965.042 269.926 964.72 270.262 964.342 270.612C963.572 271.298 963.026 271.662 962.228 272.166L961.15 272.838H966.568V274H958.938V273.048L961.066 271.634C961.444 271.396 961.71 271.214 961.864 271.102C962.018 271.004 962.27 270.822 962.606 270.584C962.942 270.346 963.194 270.136 963.362 269.982C963.516 269.828 963.726 269.632 963.964 269.38C964.608 268.68 964.846 268.036 964.916 267.154C964.916 265.88 964.09 265.306 962.872 265.306C962.116 265.306 961.514 265.516 961.08 265.936C960.646 266.356 960.352 266.86 960.226 267.434ZM968.658 267.434L967.636 267.07C967.986 265.334 969.302 264.088 971.388 264.088C973.404 264.088 974.636 265.25 974.636 267.028C974.636 267.966 974.23 268.904 973.726 269.576C973.474 269.926 973.152 270.262 972.774 270.612C972.004 271.298 971.458 271.662 970.66 272.166L969.582 272.838H975V274H967.37V273.048L969.498 271.634C969.876 271.396 970.142 271.214 970.296 271.102C970.45 271.004 970.702 270.822 971.038 270.584C971.374 270.346 971.626 270.136 971.794 269.982C971.948 269.828 972.158 269.632 972.396 269.38C973.04 268.68 973.278 268.036 973.348 267.154C973.348 265.88 972.522 265.306 971.304 265.306C970.548 265.306 969.946 265.516 969.512 265.936C969.078 266.356 968.784 266.86 968.658 267.434ZM977.398 269.492L976.39 269.226L976.964 264.2H983.124V265.39H978.042L977.678 268.022C978.168 267.658 978.91 267.476 979.904 267.476C981.052 267.476 981.948 267.784 982.606 268.386C983.25 269.002 983.572 269.786 983.572 270.752C983.572 271.718 983.208 272.53 982.494 273.16C981.766 273.804 980.856 274.126 979.778 274.126C977.944 274.126 976.418 273.258 975.788 271.732L976.908 271.256C977.314 272.194 978.364 272.936 979.778 272.936C981.388 272.936 982.284 272.012 982.284 270.794C982.284 269.492 981.234 268.652 979.568 268.652C978.672 268.652 977.944 268.932 977.398 269.492Z" fill="#1A3341"/>
<path opacity="0.6" d="M13.992 248.764H21.948V241.864H19.608V245.62C19.608 246.004 19.656 246.148 19.908 246.148H21.072C21.276 246.148 21.6 246.136 21.768 246.088C21.78 246.34 21.804 246.628 21.828 246.844C21.684 246.904 21.384 246.904 21.108 246.904H19.812C18.972 246.904 18.768 246.532 18.768 245.596V241.864H17.112C17.04 245.092 16.74 246.868 14.676 247.864C14.58 247.648 14.328 247.336 14.136 247.168C15.96 246.316 16.176 244.792 16.236 241.864H13.992V248.764ZM13.104 241H22.86V250.432H21.948V249.628H13.992V250.516H13.104V241ZM27.276 246.328H32.892V244.312H27.408C27.408 244.936 27.372 245.62 27.276 246.328ZM32.892 241.468H27.408V243.46H32.892V241.468ZM33.816 240.592V249.616C33.816 250.24 33.636 250.552 33.192 250.696C32.736 250.852 31.944 250.864 30.66 250.864C30.6 250.612 30.432 250.192 30.288 249.94C31.284 249.976 32.244 249.964 32.52 249.964C32.796 249.952 32.892 249.868 32.892 249.604V247.204H27.132C26.832 248.56 26.232 249.916 25.068 250.936C24.948 250.744 24.588 250.42 24.408 250.288C26.316 248.608 26.508 246.172 26.508 244.264V240.592H33.816Z" fill="#1A3341"/>
<path d="M46 591H826C826.552 591 827 591.448 827 592V608C827 608.552 826.552 609 826 609H46V591Z" fill="url(#paint6_linear_164_8751)"/>
<path d="M835.49 596.804L835.042 595.754L838.402 594.144H839.2V604H837.996V595.642L835.49 596.804ZM840.985 599.366C840.985 597.672 841.405 596.37 842.231 595.446C843.057 594.536 844.093 594.074 845.339 594.074C846.977 594.074 848.265 594.816 848.811 595.992L847.859 596.636C847.285 595.726 846.431 595.278 845.283 595.278C844.415 595.278 843.687 595.614 843.099 596.286C842.511 596.972 842.217 597.896 842.231 599.086C842.777 598.064 844.051 597.448 845.451 597.448C846.585 597.448 847.495 597.742 848.153 598.344C848.811 598.946 849.147 599.744 849.147 600.724C849.147 601.718 848.783 602.544 848.041 603.174C847.299 603.804 846.375 604.126 845.269 604.126C842.623 604.126 840.985 602.404 840.985 599.366ZM842.385 600.556C842.651 601.942 843.701 602.922 845.255 602.922C846.011 602.922 846.641 602.726 847.131 602.32C847.621 601.928 847.859 601.41 847.859 600.78C847.859 599.394 846.879 598.652 845.381 598.652C844.555 598.652 843.869 598.848 843.337 599.24C842.791 599.632 842.483 600.066 842.385 600.556ZM851.094 604C850.576 604.056 850.184 603.762 850.184 603.258C850.184 602.768 850.492 602.46 851.038 602.46C851.654 602.46 852.06 602.88 852.06 603.664C852.06 605.064 851.29 605.778 850.268 606.016L849.974 605.358C850.282 605.274 850.562 605.106 850.814 604.84C851.052 604.574 851.15 604.294 851.094 604ZM856.942 598.414H857.376C858.006 598.414 858.524 598.26 858.958 597.966C859.378 597.672 859.588 597.28 859.588 596.818C859.588 595.768 858.762 595.236 857.124 595.236C855.556 595.236 854.702 595.81 854.702 596.818C854.702 597.728 855.64 598.414 856.942 598.414ZM857.348 599.52H856.998C856.242 599.52 855.612 599.688 855.122 600.01C854.632 600.332 854.38 600.738 854.38 601.228C854.38 602.292 855.36 602.964 857.138 602.964C858.944 602.964 859.91 602.32 859.91 601.242C859.91 600.164 858.874 599.52 857.348 599.52ZM860.106 603.37C859.392 603.874 858.398 604.126 857.152 604.126C855.906 604.126 854.912 603.874 854.184 603.384C853.456 602.894 853.092 602.222 853.092 601.354C853.092 600.22 853.834 599.324 855.024 598.932C853.946 598.582 853.414 597.728 853.414 596.734C853.414 595.11 854.786 594.074 857.138 594.074C859.504 594.074 860.876 595.11 860.876 596.734C860.876 597.672 860.358 598.386 859.322 598.862C860.568 599.24 861.184 600.052 861.184 601.298C861.184 602.18 860.82 602.88 860.106 603.37ZM867.89 595.39H861.954V594.2H869.388V594.998L864.516 604H863.186L867.89 595.39ZM878.282 598.918C878.282 600.584 877.89 601.872 877.092 602.768C876.294 603.678 875.23 604.126 873.9 604.126C872.276 604.126 871.002 603.44 870.372 602.39L871.38 601.69C871.94 602.474 872.962 602.922 874.068 602.922C874.978 602.922 875.706 602.558 876.28 601.83C876.854 601.116 877.092 600.22 877.022 599.156C876.56 600.22 875.398 601.004 873.844 601.004C872.752 601.004 871.856 600.696 871.156 600.066C870.442 599.45 870.092 598.638 870.092 597.644C870.092 596.552 870.47 595.684 871.226 595.04C871.982 594.396 872.99 594.074 874.236 594.074C876.756 594.074 878.282 595.838 878.282 598.918ZM876.812 597.602C876.602 596.3 875.706 595.278 874.096 595.278C872.416 595.278 871.38 596.146 871.38 597.602C871.38 598.988 872.43 599.8 874.068 599.8C874.81 599.8 875.44 599.576 875.93 599.128C876.42 598.68 876.714 598.176 876.812 597.602Z" fill="#1A3341"/>
<path d="M46 615H623C623.552 615 624 615.448 624 616V632C624 632.552 623.552 633 623 633H46V615Z" fill="url(#paint7_linear_164_8751)"/>
<path d="M632.49 620.804L632.042 619.754L635.402 618.144H636.2V628H634.996V619.642L632.49 620.804ZM639.105 621.434L638.083 621.07C638.433 619.334 639.749 618.088 641.835 618.088C643.851 618.088 645.083 619.25 645.083 621.028C645.083 621.966 644.677 622.904 644.173 623.576C643.921 623.926 643.599 624.262 643.221 624.612C642.451 625.298 641.905 625.662 641.107 626.166L640.029 626.838H645.447V628H637.817V627.048L639.945 625.634C640.323 625.396 640.589 625.214 640.743 625.102C640.897 625.004 641.149 624.822 641.485 624.584C641.821 624.346 642.073 624.136 642.241 623.982C642.395 623.828 642.605 623.632 642.843 623.38C643.487 622.68 643.725 622.036 643.795 621.154C643.795 619.88 642.969 619.306 641.751 619.306C640.995 619.306 640.393 619.516 639.959 619.936C639.525 620.356 639.231 620.86 639.105 621.434ZM647.356 628C646.838 628.056 646.446 627.762 646.446 627.258C646.446 626.768 646.754 626.46 647.3 626.46C647.916 626.46 648.322 626.88 648.322 627.664C648.322 629.064 647.552 629.778 646.53 630.016L646.236 629.358C646.544 629.274 646.824 629.106 647.076 628.84C647.314 628.574 647.412 628.294 647.356 628ZM656.102 628H654.884V625.998H648.892V625.186L655.024 618.2H656.102V624.864H657.922V625.998H656.102V628ZM654.884 620.16L650.572 624.864H654.884V620.16ZM658.606 623.366C658.606 621.672 659.026 620.37 659.852 619.446C660.678 618.536 661.714 618.074 662.96 618.074C664.598 618.074 665.886 618.816 666.432 619.992L665.48 620.636C664.906 619.726 664.052 619.278 662.904 619.278C662.036 619.278 661.308 619.614 660.72 620.286C660.132 620.972 659.838 621.896 659.852 623.086C660.398 622.064 661.672 621.448 663.072 621.448C664.206 621.448 665.116 621.742 665.774 622.344C666.432 622.946 666.768 623.744 666.768 624.724C666.768 625.718 666.404 626.544 665.662 627.174C664.92 627.804 663.996 628.126 662.89 628.126C660.244 628.126 658.606 626.404 658.606 623.366ZM660.006 624.556C660.272 625.942 661.322 626.922 662.876 626.922C663.632 626.922 664.262 626.726 664.752 626.32C665.242 625.928 665.48 625.41 665.48 624.78C665.48 623.394 664.5 622.652 663.002 622.652C662.176 622.652 661.49 622.848 660.958 623.24C660.412 623.632 660.104 624.066 660.006 624.556ZM671.641 622.414H672.075C672.705 622.414 673.223 622.26 673.657 621.966C674.077 621.672 674.287 621.28 674.287 620.818C674.287 619.768 673.461 619.236 671.823 619.236C670.255 619.236 669.401 619.81 669.401 620.818C669.401 621.728 670.339 622.414 671.641 622.414ZM672.047 623.52H671.697C670.941 623.52 670.311 623.688 669.821 624.01C669.331 624.332 669.079 624.738 669.079 625.228C669.079 626.292 670.059 626.964 671.837 626.964C673.643 626.964 674.609 626.32 674.609 625.242C674.609 624.164 673.573 623.52 672.047 623.52ZM674.805 627.37C674.091 627.874 673.097 628.126 671.851 628.126C670.605 628.126 669.611 627.874 668.883 627.384C668.155 626.894 667.791 626.222 667.791 625.354C667.791 624.22 668.533 623.324 669.723 622.932C668.645 622.582 668.113 621.728 668.113 620.734C668.113 619.11 669.485 618.074 671.837 618.074C674.203 618.074 675.575 619.11 675.575 620.734C675.575 621.672 675.057 622.386 674.021 622.862C675.267 623.24 675.883 624.052 675.883 625.298C675.883 626.18 675.519 626.88 674.805 627.37Z" fill="#1A3341"/>
<path opacity="0.6" d="M23.388 598.42V599.332H18.492V604.912H17.544V599.332H12.708V598.42H17.544V593.98H18.492V598.42H23.388ZM27.276 600.328H32.892V598.312H27.408C27.408 598.936 27.372 599.62 27.276 600.328ZM32.892 595.468H27.408V597.46H32.892V595.468ZM33.816 594.592V603.616C33.816 604.24 33.636 604.552 33.192 604.696C32.736 604.852 31.944 604.864 30.66 604.864C30.6 604.612 30.432 604.192 30.288 603.94C31.284 603.976 32.244 603.964 32.52 603.964C32.796 603.952 32.892 603.868 32.892 603.604V601.204H27.132C26.832 602.56 26.232 603.916 25.068 604.936C24.948 604.744 24.588 604.42 24.408 604.288C26.316 602.608 26.508 600.172 26.508 598.264V594.592H33.816Z" fill="#1A3341"/>
<path d="M46 119H225C225.552 119 226 119.448 226 120V136C226 136.552 225.552 137 225 137H46V119Z" fill="url(#paint8_linear_164_8751)"/>
<path d="M235.568 125.056L234.518 124.58C235.036 123.068 236.394 122.074 238.424 122.074C239.39 122.074 240.188 122.298 240.804 122.746C241.42 123.194 241.728 123.796 241.728 124.538C241.728 125.672 241.126 126.512 240.006 126.834C241.084 126.904 241.952 127.716 241.952 129.172C241.952 130.096 241.616 130.824 240.944 131.342C240.272 131.86 239.418 132.126 238.368 132.126C236.226 132.126 234.742 131.104 234.252 129.494L235.386 129.004C235.988 130.278 237.01 130.922 238.452 130.922C239.81 130.922 240.664 130.292 240.664 129.186C240.664 128.108 239.824 127.562 238.144 127.562H237.052V126.4H237.92C239.446 126.4 240.44 125.714 240.44 124.776C240.44 123.81 239.642 123.264 238.368 123.264C236.87 123.264 235.96 124.034 235.568 125.056ZM244.041 132C243.523 132.056 243.131 131.762 243.131 131.258C243.131 130.768 243.439 130.46 243.985 130.46C244.601 130.46 245.007 130.88 245.007 131.664C245.007 133.064 244.237 133.778 243.215 134.016L242.921 133.358C243.229 133.274 243.509 133.106 243.761 132.84C243.999 132.574 244.097 132.294 244.041 132ZM249.889 126.414H250.323C250.953 126.414 251.471 126.26 251.905 125.966C252.325 125.672 252.535 125.28 252.535 124.818C252.535 123.768 251.709 123.236 250.071 123.236C248.503 123.236 247.649 123.81 247.649 124.818C247.649 125.728 248.587 126.414 249.889 126.414ZM250.295 127.52H249.945C249.189 127.52 248.559 127.688 248.069 128.01C247.579 128.332 247.327 128.738 247.327 129.228C247.327 130.292 248.307 130.964 250.085 130.964C251.891 130.964 252.857 130.32 252.857 129.242C252.857 128.164 251.821 127.52 250.295 127.52ZM253.053 131.37C252.339 131.874 251.345 132.126 250.099 132.126C248.853 132.126 247.859 131.874 247.131 131.384C246.403 130.894 246.039 130.222 246.039 129.354C246.039 128.22 246.781 127.324 247.971 126.932C246.893 126.582 246.361 125.728 246.361 124.734C246.361 123.11 247.733 122.074 250.085 122.074C252.451 122.074 253.823 123.11 253.823 124.734C253.823 125.672 253.305 126.386 252.269 126.862C253.515 127.24 254.131 128.052 254.131 129.298C254.131 130.18 253.767 130.88 253.053 131.37ZM256.651 127.492L255.643 127.226L256.217 122.2H262.377V123.39H257.295L256.931 126.022C257.421 125.658 258.163 125.476 259.157 125.476C260.305 125.476 261.201 125.784 261.859 126.386C262.503 127.002 262.825 127.786 262.825 128.752C262.825 129.718 262.461 130.53 261.747 131.16C261.019 131.804 260.109 132.126 259.031 132.126C257.197 132.126 255.671 131.258 255.041 129.732L256.161 129.256C256.567 130.194 257.617 130.936 259.031 130.936C260.641 130.936 261.537 130.012 261.537 128.794C261.537 127.492 260.487 126.652 258.821 126.652C257.925 126.652 257.197 126.932 256.651 127.492ZM267.752 126.414H268.186C268.816 126.414 269.334 126.26 269.768 125.966C270.188 125.672 270.398 125.28 270.398 124.818C270.398 123.768 269.572 123.236 267.934 123.236C266.366 123.236 265.512 123.81 265.512 124.818C265.512 125.728 266.45 126.414 267.752 126.414ZM268.158 127.52H267.808C267.052 127.52 266.422 127.688 265.932 128.01C265.442 128.332 265.19 128.738 265.19 129.228C265.19 130.292 266.17 130.964 267.948 130.964C269.754 130.964 270.72 130.32 270.72 129.242C270.72 128.164 269.684 127.52 268.158 127.52ZM270.916 131.37C270.202 131.874 269.208 132.126 267.962 132.126C266.716 132.126 265.722 131.874 264.994 131.384C264.266 130.894 263.902 130.222 263.902 129.354C263.902 128.22 264.644 127.324 265.834 126.932C264.756 126.582 264.224 125.728 264.224 124.734C264.224 123.11 265.596 122.074 267.948 122.074C270.314 122.074 271.686 123.11 271.686 124.734C271.686 125.672 271.168 126.386 270.132 126.862C271.378 127.24 271.994 128.052 271.994 129.298C271.994 130.18 271.63 130.88 270.916 131.37Z" fill="#1A3341"/>
<path d="M46 143H987C987.552 143 988 143.448 988 144V160C988 160.552 987.552 161 987 161H46V143Z" fill="url(#paint9_linear_164_8751)"/>
<path d="M997.722 149.434L996.7 149.07C997.05 147.334 998.366 146.088 1000.45 146.088C1002.47 146.088 1003.7 147.25 1003.7 149.028C1003.7 149.966 1003.29 150.904 1002.79 151.576C1002.54 151.926 1002.22 152.262 1001.84 152.612C1001.07 153.298 1000.52 153.662 999.724 154.166L998.646 154.838H1004.06V156H996.434V155.048L998.562 153.634C998.94 153.396 999.206 153.214 999.36 153.102C999.514 153.004 999.766 152.822 1000.1 152.584C1000.44 152.346 1000.69 152.136 1000.86 151.982C1001.01 151.828 1001.22 151.632 1001.46 151.38C1002.1 150.68 1002.34 150.036 1002.41 149.154C1002.41 147.88 1001.59 147.306 1000.37 147.306C999.612 147.306 999.01 147.516 998.576 147.936C998.142 148.356 997.848 148.86 997.722 149.434ZM1005.03 151.1C1005.03 149.588 1005.38 148.37 1006.1 147.46C1006.8 146.55 1007.83 146.088 1009.19 146.088C1011.98 146.088 1013.36 147.922 1013.36 151.1C1013.36 152.626 1013.01 153.83 1012.33 154.74C1011.63 155.65 1010.59 156.112 1009.22 156.112C1007.9 156.112 1006.88 155.65 1006.14 154.726C1005.4 153.802 1005.03 152.598 1005.03 151.1ZM1006.32 151.1C1006.32 153.494 1007.41 154.922 1009.22 154.922C1011.12 154.922 1012.08 153.648 1012.08 151.1C1012.08 148.552 1011.11 147.278 1009.19 147.278C1007.25 147.278 1006.32 148.678 1006.32 151.1ZM1015.35 156C1014.83 156.056 1014.44 155.762 1014.44 155.258C1014.44 154.768 1014.75 154.46 1015.29 154.46C1015.91 154.46 1016.31 154.88 1016.31 155.664C1016.31 157.064 1015.54 157.778 1014.52 158.016L1014.23 157.358C1014.54 157.274 1014.82 157.106 1015.07 156.84C1015.31 156.574 1015.4 156.294 1015.35 156ZM1018.3 149.056L1017.25 148.58C1017.77 147.068 1019.12 146.074 1021.15 146.074C1022.12 146.074 1022.92 146.298 1023.53 146.746C1024.15 147.194 1024.46 147.796 1024.46 148.538C1024.46 149.672 1023.86 150.512 1022.74 150.834C1023.81 150.904 1024.68 151.716 1024.68 153.172C1024.68 154.096 1024.35 154.824 1023.67 155.342C1023 155.86 1022.15 156.126 1021.1 156.126C1018.96 156.126 1017.47 155.104 1016.98 153.494L1018.12 153.004C1018.72 154.278 1019.74 154.922 1021.18 154.922C1022.54 154.922 1023.39 154.292 1023.39 153.186C1023.39 152.108 1022.55 151.562 1020.87 151.562H1019.78V150.4H1020.65C1022.18 150.4 1023.17 149.714 1023.17 148.776C1023.17 147.81 1022.37 147.264 1021.1 147.264C1019.6 147.264 1018.69 148.034 1018.3 149.056ZM1027.26 151.492L1026.25 151.226L1026.83 146.2H1032.99V147.39H1027.91L1027.54 150.022C1028.03 149.658 1028.77 149.476 1029.77 149.476C1030.92 149.476 1031.81 149.784 1032.47 150.386C1033.11 151.002 1033.44 151.786 1033.44 152.752C1033.44 153.718 1033.07 154.53 1032.36 155.16C1031.63 155.804 1030.72 156.126 1029.64 156.126C1027.81 156.126 1026.28 155.258 1025.65 153.732L1026.77 153.256C1027.18 154.194 1028.23 154.936 1029.64 154.936C1031.25 154.936 1032.15 154.012 1032.15 152.794C1032.15 151.492 1031.1 150.652 1029.43 150.652C1028.54 150.652 1027.81 150.932 1027.26 151.492ZM1034.5 151.1C1034.5 149.588 1034.85 148.37 1035.56 147.46C1036.26 146.55 1037.3 146.088 1038.66 146.088C1041.44 146.088 1042.83 147.922 1042.83 151.1C1042.83 152.626 1042.48 153.83 1041.79 154.74C1041.09 155.65 1040.06 156.112 1038.68 156.112C1037.37 156.112 1036.35 155.65 1035.6 154.726C1034.86 153.802 1034.5 152.598 1034.5 151.1ZM1035.79 151.1C1035.79 153.494 1036.88 154.922 1038.68 154.922C1040.59 154.922 1041.54 153.648 1041.54 151.1C1041.54 148.552 1040.57 147.278 1038.66 147.278C1036.71 147.278 1035.79 148.678 1035.79 151.1Z" fill="#1A3341"/>
<path opacity="0.6" d="M13.728 123.684H22.284V124.632H13.728V123.684ZM12.72 130.752H23.292V131.724H12.72V130.752ZM27.276 128.328H32.892V126.312H27.408C27.408 126.936 27.372 127.62 27.276 128.328ZM32.892 123.468H27.408V125.46H32.892V123.468ZM33.816 122.592V131.616C33.816 132.24 33.636 132.552 33.192 132.696C32.736 132.852 31.944 132.864 30.66 132.864C30.6 132.612 30.432 132.192 30.288 131.94C31.284 131.976 32.244 131.964 32.52 131.964C32.796 131.952 32.892 131.868 32.892 131.604V129.204H27.132C26.832 130.56 26.232 131.916 25.068 132.936C24.948 132.744 24.588 132.42 24.408 132.288C26.316 130.608 26.508 128.172 26.508 126.264V122.592H33.816Z" fill="#1A3341"/>
<path d="M46 473H701C701.552 473 702 473.448 702 474V490C702 490.552 701.552 491 701 491H46V473Z" fill="url(#paint10_linear_164_8751)"/>
<path d="M710.49 478.804L710.042 477.754L713.402 476.144H714.2V486H712.996V477.642L710.49 478.804ZM722.747 486H721.529V483.998H715.537V483.186L721.669 476.2H722.747V482.864H724.567V483.998H722.747V486ZM721.529 478.16L717.217 482.864H721.529V478.16ZM726.19 486C725.672 486.056 725.28 485.762 725.28 485.258C725.28 484.768 725.588 484.46 726.134 484.46C726.75 484.46 727.156 484.88 727.156 485.664C727.156 487.064 726.386 487.778 725.364 488.016L725.07 487.358C725.378 487.274 725.658 487.106 725.91 486.84C726.148 486.574 726.246 486.294 726.19 486ZM728.062 478.804L727.614 477.754L730.974 476.144H731.772V486H730.568V477.642L728.062 478.804ZM741.706 480.918C741.706 482.584 741.314 483.872 740.516 484.768C739.718 485.678 738.654 486.126 737.324 486.126C735.7 486.126 734.426 485.44 733.796 484.39L734.804 483.69C735.364 484.474 736.386 484.922 737.492 484.922C738.402 484.922 739.13 484.558 739.704 483.83C740.278 483.116 740.516 482.22 740.446 481.156C739.984 482.22 738.822 483.004 737.268 483.004C736.176 483.004 735.28 482.696 734.58 482.066C733.866 481.45 733.516 480.638 733.516 479.644C733.516 478.552 733.894 477.684 734.65 477.04C735.406 476.396 736.414 476.074 737.66 476.074C740.18 476.074 741.706 477.838 741.706 480.918ZM740.236 479.602C740.026 478.3 739.13 477.278 737.52 477.278C735.84 477.278 734.804 478.146 734.804 479.602C734.804 480.988 735.854 481.8 737.492 481.8C738.234 481.8 738.864 481.576 739.354 481.128C739.844 480.68 740.138 480.176 740.236 479.602ZM743.722 479.056L742.672 478.58C743.19 477.068 744.548 476.074 746.578 476.074C747.544 476.074 748.342 476.298 748.958 476.746C749.574 477.194 749.882 477.796 749.882 478.538C749.882 479.672 749.28 480.512 748.16 480.834C749.238 480.904 750.106 481.716 750.106 483.172C750.106 484.096 749.77 484.824 749.098 485.342C748.426 485.86 747.572 486.126 746.522 486.126C744.38 486.126 742.896 485.104 742.406 483.494L743.54 483.004C744.142 484.278 745.164 484.922 746.606 484.922C747.964 484.922 748.818 484.292 748.818 483.186C748.818 482.108 747.978 481.562 746.298 481.562H745.206V480.4H746.074C747.6 480.4 748.594 479.714 748.594 478.776C748.594 477.81 747.796 477.264 746.522 477.264C745.024 477.264 744.114 478.034 743.722 479.056Z" fill="#1A3341"/>
<path d="M46 497H775C775.552 497 776 497.448 776 498V514C776 514.552 775.552 515 775 515H46V497Z" fill="url(#paint11_linear_164_8751)"/>
<path d="M784.49 502.804L784.042 501.754L787.402 500.144H788.2V510H786.996V501.642L784.49 502.804ZM791.413 505.492L790.405 505.226L790.979 500.2H797.139V501.39H792.057L791.693 504.022C792.183 503.658 792.925 503.476 793.919 503.476C795.067 503.476 795.963 503.784 796.621 504.386C797.265 505.002 797.587 505.786 797.587 506.752C797.587 507.718 797.223 508.53 796.509 509.16C795.781 509.804 794.871 510.126 793.793 510.126C791.959 510.126 790.433 509.258 789.803 507.732L790.923 507.256C791.329 508.194 792.379 508.936 793.793 508.936C795.403 508.936 796.299 508.012 796.299 506.794C796.299 505.492 795.249 504.652 793.583 504.652C792.687 504.652 791.959 504.932 791.413 505.492ZM799.588 510C799.07 510.056 798.678 509.762 798.678 509.258C798.678 508.768 798.986 508.46 799.532 508.46C800.148 508.46 800.554 508.88 800.554 509.664C800.554 511.064 799.784 511.778 798.762 512.016L798.468 511.358C798.776 511.274 799.056 511.106 799.308 510.84C799.546 510.574 799.644 510.294 799.588 510ZM805.437 504.414H805.871C806.501 504.414 807.019 504.26 807.453 503.966C807.873 503.672 808.083 503.28 808.083 502.818C808.083 501.768 807.257 501.236 805.619 501.236C804.051 501.236 803.197 501.81 803.197 502.818C803.197 503.728 804.135 504.414 805.437 504.414ZM805.843 505.52H805.493C804.737 505.52 804.107 505.688 803.617 506.01C803.127 506.332 802.875 506.738 802.875 507.228C802.875 508.292 803.855 508.964 805.633 508.964C807.439 508.964 808.405 508.32 808.405 507.242C808.405 506.164 807.369 505.52 805.843 505.52ZM808.601 509.37C807.887 509.874 806.893 510.126 805.647 510.126C804.401 510.126 803.407 509.874 802.679 509.384C801.951 508.894 801.587 508.222 801.587 507.354C801.587 506.22 802.329 505.324 803.519 504.932C802.441 504.582 801.909 503.728 801.909 502.734C801.909 501.11 803.281 500.074 805.633 500.074C807.999 500.074 809.371 501.11 809.371 502.734C809.371 503.672 808.853 504.386 807.817 504.862C809.063 505.24 809.679 506.052 809.679 507.298C809.679 508.18 809.315 508.88 808.601 509.37ZM810.771 505.1C810.771 503.588 811.121 502.37 811.835 501.46C812.535 500.55 813.571 500.088 814.929 500.088C817.715 500.088 819.101 501.922 819.101 505.1C819.101 506.626 818.751 507.83 818.065 508.74C817.365 509.65 816.329 510.112 814.957 510.112C813.641 510.112 812.619 509.65 811.877 508.726C811.135 507.802 810.771 506.598 810.771 505.1ZM812.059 505.1C812.059 507.494 813.151 508.922 814.957 508.922C816.861 508.922 817.813 507.648 817.813 505.1C817.813 502.552 816.847 501.278 814.929 501.278C812.983 501.278 812.059 502.678 812.059 505.1ZM820.146 505.1C820.146 503.588 820.496 502.37 821.21 501.46C821.91 500.55 822.946 500.088 824.304 500.088C827.09 500.088 828.476 501.922 828.476 505.1C828.476 506.626 828.126 507.83 827.44 508.74C826.74 509.65 825.704 510.112 824.332 510.112C823.016 510.112 821.994 509.65 821.252 508.726C820.51 507.802 820.146 506.598 820.146 505.1ZM821.434 505.1C821.434 507.494 822.526 508.922 824.332 508.922C826.236 508.922 827.188 507.648 827.188 505.1C827.188 502.552 826.222 501.278 824.304 501.278C822.358 501.278 821.434 502.678 821.434 505.1Z" fill="#1A3341"/>
<path opacity="0.6" d="M12.0863 477.132L13.0463 477.204C12.7223 480.72 12.0863 484.68 9.47034 486.864C9.33834 486.672 9.02634 486.36 8.84634 486.192C11.2943 484.164 11.8463 480.42 12.0863 477.132ZM16.3103 476.856C16.3463 477.732 16.6343 483.648 20.0423 486.24C19.7303 486.408 19.4543 486.624 19.2743 486.852C15.8183 484.116 15.5063 477.9 15.4343 476.916L16.3103 476.856ZM23.6783 482.328H29.2943V480.312H23.8103C23.8103 480.936 23.7743 481.62 23.6783 482.328ZM29.2943 477.468H23.8103V479.46H29.2943V477.468ZM30.2183 476.592V485.616C30.2183 486.24 30.0383 486.552 29.5943 486.696C29.1383 486.852 28.3463 486.864 27.0623 486.864C27.0023 486.612 26.8343 486.192 26.6903 485.94C27.6863 485.976 28.6463 485.964 28.9223 485.964C29.1983 485.952 29.2943 485.868 29.2943 485.604V483.204H23.5343C23.2343 484.56 22.6343 485.916 21.4703 486.936C21.3503 486.744 20.9903 486.42 20.8103 486.288C22.7183 484.608 22.9103 482.172 22.9103 480.264V476.592H30.2183Z" fill="#1A3341"/>
<path d="M46 296H424C424.552 296 425 296.448 425 297V313C425 313.552 424.552 314 424 314H46V296Z" fill="url(#paint12_linear_164_8751)"/>
<path d="M437.466 303.414H437.9C438.53 303.414 439.048 303.26 439.482 302.966C439.902 302.672 440.112 302.28 440.112 301.818C440.112 300.768 439.286 300.236 437.648 300.236C436.08 300.236 435.226 300.81 435.226 301.818C435.226 302.728 436.164 303.414 437.466 303.414ZM437.872 304.52H437.522C436.766 304.52 436.136 304.688 435.646 305.01C435.156 305.332 434.904 305.738 434.904 306.228C434.904 307.292 435.884 307.964 437.662 307.964C439.468 307.964 440.434 307.32 440.434 306.242C440.434 305.164 439.398 304.52 437.872 304.52ZM440.63 308.37C439.916 308.874 438.922 309.126 437.676 309.126C436.43 309.126 435.436 308.874 434.708 308.384C433.98 307.894 433.616 307.222 433.616 306.354C433.616 305.22 434.358 304.324 435.548 303.932C434.47 303.582 433.938 302.728 433.938 301.734C433.938 300.11 435.31 299.074 437.662 299.074C440.028 299.074 441.4 300.11 441.4 301.734C441.4 302.672 440.882 303.386 439.846 303.862C441.092 304.24 441.708 305.052 441.708 306.298C441.708 307.18 441.344 307.88 440.63 308.37ZM443.738 309C443.22 309.056 442.828 308.762 442.828 308.258C442.828 307.768 443.136 307.46 443.682 307.46C444.298 307.46 444.704 307.88 444.704 308.664C444.704 310.064 443.934 310.778 442.912 311.016L442.618 310.358C442.926 310.274 443.206 310.106 443.458 309.84C443.696 309.574 443.794 309.294 443.738 309ZM445.61 301.804L445.162 300.754L448.522 299.144H449.32V309H448.116V300.642L445.61 301.804ZM454.97 303.414H455.404C456.034 303.414 456.552 303.26 456.986 302.966C457.406 302.672 457.616 302.28 457.616 301.818C457.616 300.768 456.79 300.236 455.152 300.236C453.584 300.236 452.73 300.81 452.73 301.818C452.73 302.728 453.668 303.414 454.97 303.414ZM455.376 304.52H455.026C454.27 304.52 453.64 304.688 453.15 305.01C452.66 305.332 452.408 305.738 452.408 306.228C452.408 307.292 453.388 307.964 455.166 307.964C456.972 307.964 457.938 307.32 457.938 306.242C457.938 305.164 456.902 304.52 455.376 304.52ZM458.134 308.37C457.42 308.874 456.426 309.126 455.18 309.126C453.934 309.126 452.94 308.874 452.212 308.384C451.484 307.894 451.12 307.222 451.12 306.354C451.12 305.22 451.862 304.324 453.052 303.932C451.974 303.582 451.442 302.728 451.442 301.734C451.442 300.11 452.814 299.074 455.166 299.074C457.532 299.074 458.904 300.11 458.904 301.734C458.904 302.672 458.386 303.386 457.35 303.862C458.596 304.24 459.212 305.052 459.212 306.298C459.212 307.18 458.848 307.88 458.134 308.37ZM461.424 302.434L460.402 302.07C460.752 300.334 462.068 299.088 464.154 299.088C466.17 299.088 467.402 300.25 467.402 302.028C467.402 302.966 466.996 303.904 466.492 304.576C466.24 304.926 465.918 305.262 465.54 305.612C464.77 306.298 464.224 306.662 463.426 307.166L462.348 307.838H467.766V309H460.136V308.048L462.264 306.634C462.642 306.396 462.908 306.214 463.062 306.102C463.216 306.004 463.468 305.822 463.804 305.584C464.14 305.346 464.392 305.136 464.56 304.982C464.714 304.828 464.924 304.632 465.162 304.38C465.806 303.68 466.044 303.036 466.114 302.154C466.114 300.88 465.288 300.306 464.07 300.306C463.314 300.306 462.712 300.516 462.278 300.936C461.844 301.356 461.55 301.86 461.424 302.434Z" fill="#1A3341"/>
<path d="M46 320H843C843.552 320 844 320.448 844 321V337C844 337.552 843.552 338 843 338H46V320Z" fill="url(#paint13_linear_164_8751)"/>
<path d="M852.49 325.804L852.042 324.754L855.402 323.144H856.2V333H854.996V324.642L852.49 325.804ZM863.599 324.39H857.663V323.2H865.097V323.998L860.225 333H858.895L863.599 324.39ZM865.934 333C865.416 333.056 865.024 332.762 865.024 332.258C865.024 331.768 865.332 331.46 865.878 331.46C866.494 331.46 866.9 331.88 866.9 332.664C866.9 334.064 866.13 334.778 865.108 335.016L864.814 334.358C865.122 334.274 865.402 334.106 865.654 333.84C865.892 333.574 865.99 333.294 865.934 333ZM869.038 326.434L868.016 326.07C868.366 324.334 869.682 323.088 871.768 323.088C873.784 323.088 875.016 324.25 875.016 326.028C875.016 326.966 874.61 327.904 874.106 328.576C873.854 328.926 873.532 329.262 873.154 329.612C872.384 330.298 871.838 330.662 871.04 331.166L869.962 331.838H875.38V333H867.75V332.048L869.878 330.634C870.256 330.396 870.522 330.214 870.676 330.102C870.83 330.004 871.082 329.822 871.418 329.584C871.754 329.346 872.006 329.136 872.174 328.982C872.328 328.828 872.538 328.632 872.776 328.38C873.42 327.68 873.658 327.036 873.728 326.154C873.728 324.88 872.902 324.306 871.684 324.306C870.928 324.306 870.326 324.516 869.892 324.936C869.458 325.356 869.164 325.86 869.038 326.434ZM881.965 324.39H876.029V323.2H883.463V323.998L878.591 333H877.261L881.965 324.39ZM892.357 327.918C892.357 329.584 891.965 330.872 891.167 331.768C890.369 332.678 889.305 333.126 887.975 333.126C886.351 333.126 885.077 332.44 884.447 331.39L885.455 330.69C886.015 331.474 887.037 331.922 888.143 331.922C889.053 331.922 889.781 331.558 890.355 330.83C890.929 330.116 891.167 329.22 891.097 328.156C890.635 329.22 889.473 330.004 887.919 330.004C886.827 330.004 885.931 329.696 885.231 329.066C884.517 328.45 884.167 327.638 884.167 326.644C884.167 325.552 884.545 324.684 885.301 324.04C886.057 323.396 887.065 323.074 888.311 323.074C890.831 323.074 892.357 324.838 892.357 327.918ZM890.887 326.602C890.677 325.3 889.781 324.278 888.171 324.278C886.491 324.278 885.455 325.146 885.455 326.602C885.455 327.988 886.505 328.8 888.143 328.8C888.885 328.8 889.515 328.576 890.005 328.128C890.495 327.68 890.789 327.176 890.887 326.602Z" fill="#1A3341"/>
<path opacity="0.6" d="M20.328 304.464H17.316C17.088 305.892 16.836 307.296 16.608 308.388H19.956C20.088 307.116 20.232 305.58 20.328 304.464ZM20.88 308.388H23.316V309.264H12.72V308.388H15.636C15.876 307.296 16.128 305.892 16.368 304.464H14.136V303.588H16.512C16.656 302.7 16.788 301.812 16.896 301.008H13.476V300.132H22.452V301.008H17.844C17.724 301.812 17.592 302.712 17.448 303.588H20.472L20.628 303.54L21.312 303.612C21.228 304.932 21.06 306.828 20.88 308.388ZM27.276 305.328H32.892V303.312H27.408C27.408 303.936 27.372 304.62 27.276 305.328ZM32.892 300.468H27.408V302.46H32.892V300.468ZM33.816 299.592V308.616C33.816 309.24 33.636 309.552 33.192 309.696C32.736 309.852 31.944 309.864 30.66 309.864C30.6 309.612 30.432 309.192 30.288 308.94C31.284 308.976 32.244 308.964 32.52 308.964C32.796 308.952 32.892 308.868 32.892 308.604V306.204H27.132C26.832 307.56 26.232 308.916 25.068 309.936C24.948 309.744 24.588 309.42 24.408 309.288C26.316 307.608 26.508 305.172 26.508 303.264V299.592H33.816Z" fill="#1A3341"/>
<path d="M46 650H1038C1038.55 650 1039 650.448 1039 651V667C1039 667.552 1038.55 668 1038 668H46V650Z" fill="url(#paint14_linear_164_8751)"/>
<path d="M1048.72 656.434L1047.7 656.07C1048.05 654.334 1049.37 653.088 1051.45 653.088C1053.47 653.088 1054.7 654.25 1054.7 656.028C1054.7 656.966 1054.29 657.904 1053.79 658.576C1053.54 658.926 1053.22 659.262 1052.84 659.612C1052.07 660.298 1051.52 660.662 1050.72 661.166L1049.65 661.838H1055.06V663H1047.43V662.048L1049.56 660.634C1049.94 660.396 1050.21 660.214 1050.36 660.102C1050.51 660.004 1050.77 659.822 1051.1 659.584C1051.44 659.346 1051.69 659.136 1051.86 658.982C1052.01 658.828 1052.22 658.632 1052.46 658.38C1053.1 657.68 1053.34 657.036 1053.41 656.154C1053.41 654.88 1052.59 654.306 1051.37 654.306C1050.61 654.306 1050.01 654.516 1049.58 654.936C1049.14 655.356 1048.85 655.86 1048.72 656.434ZM1055.92 655.804L1055.47 654.754L1058.83 653.144H1059.63V663H1058.43V654.642L1055.92 655.804ZM1062.36 663C1061.84 663.056 1061.45 662.762 1061.45 662.258C1061.45 661.768 1061.75 661.46 1062.3 661.46C1062.92 661.46 1063.32 661.88 1063.32 662.664C1063.32 664.064 1062.55 664.778 1061.53 665.016L1061.24 664.358C1061.54 664.274 1061.82 664.106 1062.08 663.84C1062.31 663.574 1062.41 663.294 1062.36 663ZM1065.77 658.492L1064.76 658.226L1065.33 653.2H1071.49V654.39H1066.41L1066.05 657.022C1066.54 656.658 1067.28 656.476 1068.27 656.476C1069.42 656.476 1070.32 656.784 1070.98 657.386C1071.62 658.002 1071.94 658.786 1071.94 659.752C1071.94 660.718 1071.58 661.53 1070.86 662.16C1070.14 662.804 1069.23 663.126 1068.15 663.126C1066.31 663.126 1064.79 662.258 1064.16 660.732L1065.28 660.256C1065.68 661.194 1066.73 661.936 1068.15 661.936C1069.76 661.936 1070.65 661.012 1070.65 659.794C1070.65 658.492 1069.6 657.652 1067.94 657.652C1067.04 657.652 1066.31 657.932 1065.77 658.492ZM1073.97 656.056L1072.92 655.58C1073.44 654.068 1074.8 653.074 1076.83 653.074C1077.79 653.074 1078.59 653.298 1079.21 653.746C1079.82 654.194 1080.13 654.796 1080.13 655.538C1080.13 656.672 1079.53 657.512 1078.41 657.834C1079.49 657.904 1080.35 658.716 1080.35 660.172C1080.35 661.096 1080.02 661.824 1079.35 662.342C1078.67 662.86 1077.82 663.126 1076.77 663.126C1074.63 663.126 1073.14 662.104 1072.65 660.494L1073.79 660.004C1074.39 661.278 1075.41 661.922 1076.85 661.922C1078.21 661.922 1079.07 661.292 1079.07 660.186C1079.07 659.108 1078.23 658.562 1076.55 658.562H1075.45V657.4H1076.32C1077.85 657.4 1078.84 656.714 1078.84 655.776C1078.84 654.81 1078.04 654.264 1076.77 654.264C1075.27 654.264 1074.36 655.034 1073.97 656.056ZM1082.93 658.492L1081.93 658.226L1082.5 653.2H1088.66V654.39H1083.58L1083.21 657.022C1083.7 656.658 1084.45 656.476 1085.44 656.476C1086.59 656.476 1087.48 656.784 1088.14 657.386C1088.79 658.002 1089.11 658.786 1089.11 659.752C1089.11 660.718 1088.74 661.53 1088.03 662.16C1087.3 662.804 1086.39 663.126 1085.31 663.126C1083.48 663.126 1081.95 662.258 1081.32 660.732L1082.44 660.256C1082.85 661.194 1083.9 661.936 1085.31 661.936C1086.92 661.936 1087.82 661.012 1087.82 659.794C1087.82 658.492 1086.77 657.652 1085.1 657.652C1084.21 657.652 1083.48 657.932 1082.93 658.492Z" fill="#1A3341"/>
<path d="M46 674H714C714.552 674 715 674.448 715 675V691C715 691.552 714.552 692 714 692H46V674Z" fill="url(#paint15_linear_164_8751)"/>
<path d="M723.49 679.804L723.042 678.754L726.402 677.144H727.2V687H725.996V678.642L723.49 679.804ZM735.747 687H734.529V684.998H728.537V684.186L734.669 677.2H735.747V683.864H737.567V684.998H735.747V687ZM734.529 679.16L730.217 683.864H734.529V679.16ZM739.19 687C738.672 687.056 738.28 686.762 738.28 686.258C738.28 685.768 738.588 685.46 739.134 685.46C739.75 685.46 740.156 685.88 740.156 686.664C740.156 688.064 739.386 688.778 738.364 689.016L738.07 688.358C738.378 688.274 738.658 688.106 738.91 687.84C739.148 687.574 739.246 687.294 739.19 687ZM747.936 687H746.718V684.998H740.726V684.186L746.858 677.2H747.936V683.864H749.756V684.998H747.936V687ZM746.718 679.16L742.406 683.864H746.718V679.16ZM756.054 678.39H750.118V677.2H757.552V677.998L752.68 687H751.35L756.054 678.39ZM758.298 682.1C758.298 680.588 758.648 679.37 759.362 678.46C760.062 677.55 761.098 677.088 762.456 677.088C765.242 677.088 766.628 678.922 766.628 682.1C766.628 683.626 766.278 684.83 765.592 685.74C764.892 686.65 763.856 687.112 762.484 687.112C761.168 687.112 760.146 686.65 759.404 685.726C758.662 684.802 758.298 683.598 758.298 682.1ZM759.586 682.1C759.586 684.494 760.678 685.922 762.484 685.922C764.388 685.922 765.34 684.648 765.34 682.1C765.34 679.552 764.374 678.278 762.456 678.278C760.51 678.278 759.586 679.678 759.586 682.1Z" fill="#1A3341"/>
<path opacity="0.6" d="M11.388 657.42V658.332H6.492V663.912H5.544V658.332H0.708V657.42H5.544V652.98H6.492V657.42H11.388ZM12.576 657.84H23.472V658.812H12.576V657.84ZM27.276 659.328H32.892V657.312H27.408C27.408 657.936 27.372 658.62 27.276 659.328ZM32.892 654.468H27.408V656.46H32.892V654.468ZM33.816 653.592V662.616C33.816 663.24 33.636 663.552 33.192 663.696C32.736 663.852 31.944 663.864 30.66 663.864C30.6 663.612 30.432 663.192 30.288 662.94C31.284 662.976 32.244 662.964 32.52 662.964C32.796 662.952 32.892 662.868 32.892 662.604V660.204H27.132C26.832 661.56 26.232 662.916 25.068 663.936C24.948 663.744 24.588 663.42 24.408 663.288C26.316 661.608 26.508 659.172 26.508 657.264V653.592H33.816Z" fill="#1A3341"/>
<path d="M46 178H526C526.552 178 527 178.448 527 179V195C527 195.552 526.552 196 526 196H46V178Z" fill="url(#paint16_linear_164_8751)"/>
<path d="M535.49 183.804L535.042 182.754L538.402 181.144H539.2V191H537.996V182.642L535.49 183.804ZM540.985 186.1C540.985 184.588 541.335 183.37 542.049 182.46C542.749 181.55 543.785 181.088 545.143 181.088C547.929 181.088 549.315 182.922 549.315 186.1C549.315 187.626 548.965 188.83 548.279 189.74C547.579 190.65 546.543 191.112 545.171 191.112C543.855 191.112 542.833 190.65 542.091 189.726C541.349 188.802 540.985 187.598 540.985 186.1ZM542.273 186.1C542.273 188.494 543.365 189.922 545.171 189.922C547.075 189.922 548.027 188.648 548.027 186.1C548.027 183.552 547.061 182.278 545.143 182.278C543.197 182.278 542.273 183.678 542.273 186.1ZM551.299 191C550.781 191.056 550.389 190.762 550.389 190.258C550.389 189.768 550.697 189.46 551.243 189.46C551.859 189.46 552.265 189.88 552.265 190.664C552.265 192.064 551.495 192.778 550.473 193.016L550.179 192.358C550.487 192.274 550.767 192.106 551.019 191.84C551.257 191.574 551.355 191.294 551.299 191ZM560.046 191H558.828V188.998H552.836V188.186L558.968 181.2H560.046V187.864H561.866V188.998H560.046V191ZM558.828 183.16L554.516 187.864H558.828V183.16ZM563.516 184.056L562.466 183.58C562.984 182.068 564.342 181.074 566.372 181.074C567.338 181.074 568.136 181.298 568.752 181.746C569.368 182.194 569.676 182.796 569.676 183.538C569.676 184.672 569.074 185.512 567.954 185.834C569.032 185.904 569.9 186.716 569.9 188.172C569.9 189.096 569.564 189.824 568.892 190.342C568.22 190.86 567.366 191.126 566.316 191.126C564.174 191.126 562.69 190.104 562.2 188.494L563.334 188.004C563.936 189.278 564.958 189.922 566.4 189.922C567.758 189.922 568.612 189.292 568.612 188.186C568.612 187.108 567.772 186.562 566.092 186.562H565V185.4H565.868C567.394 185.4 568.388 184.714 568.388 183.776C568.388 182.81 567.59 182.264 566.316 182.264C564.818 182.264 563.908 183.034 563.516 184.056ZM577.812 191H576.594V188.998H570.602V188.186L576.734 181.2H577.812V187.864H579.632V188.998H577.812V191ZM576.594 183.16L572.282 187.864H576.594V183.16Z" fill="#1A3341"/>
<path d="M46 202H886C886.552 202 887 202.448 887 203V219C887 219.552 886.552 220 886 220H46V202Z" fill="url(#paint17_linear_164_8751)"/>
<path d="M895.49 207.804L895.042 206.754L898.402 205.144H899.2V215H897.996V206.642L895.49 207.804ZM904.849 209.414H905.283C905.913 209.414 906.431 209.26 906.865 208.966C907.285 208.672 907.495 208.28 907.495 207.818C907.495 206.768 906.669 206.236 905.031 206.236C903.463 206.236 902.609 206.81 902.609 207.818C902.609 208.728 903.547 209.414 904.849 209.414ZM905.255 210.52H904.905C904.149 210.52 903.519 210.688 903.029 211.01C902.539 211.332 902.287 211.738 902.287 212.228C902.287 213.292 903.267 213.964 905.045 213.964C906.851 213.964 907.817 213.32 907.817 212.242C907.817 211.164 906.781 210.52 905.255 210.52ZM908.013 214.37C907.299 214.874 906.305 215.126 905.059 215.126C903.813 215.126 902.819 214.874 902.091 214.384C901.363 213.894 900.999 213.222 900.999 212.354C900.999 211.22 901.741 210.324 902.931 209.932C901.853 209.582 901.321 208.728 901.321 207.734C901.321 206.11 902.693 205.074 905.045 205.074C907.411 205.074 908.783 206.11 908.783 207.734C908.783 208.672 908.265 209.386 907.229 209.862C908.475 210.24 909.091 211.052 909.091 212.298C909.091 213.18 908.727 213.88 908.013 214.37ZM911.121 215C910.603 215.056 910.211 214.762 910.211 214.258C910.211 213.768 910.519 213.46 911.065 213.46C911.681 213.46 912.087 213.88 912.087 214.664C912.087 216.064 911.317 216.778 910.295 217.016L910.001 216.358C910.309 216.274 910.589 216.106 910.841 215.84C911.079 215.574 911.177 215.294 911.121 215ZM914.226 208.434L913.204 208.07C913.554 206.334 914.87 205.088 916.956 205.088C918.972 205.088 920.204 206.25 920.204 208.028C920.204 208.966 919.798 209.904 919.294 210.576C919.042 210.926 918.72 211.262 918.342 211.612C917.572 212.298 917.026 212.662 916.228 213.166L915.15 213.838H920.568V215H912.938V214.048L915.066 212.634C915.444 212.396 915.71 212.214 915.864 212.102C916.018 212.004 916.27 211.822 916.606 211.584C916.942 211.346 917.194 211.136 917.362 210.982C917.516 210.828 917.726 210.632 917.964 210.38C918.608 209.68 918.846 209.036 918.916 208.154C918.916 206.88 918.09 206.306 916.872 206.306C916.116 206.306 915.514 206.516 915.08 206.936C914.646 207.356 914.352 207.86 914.226 208.434ZM928.3 215H927.082V212.998H921.09V212.186L927.222 205.2H928.3V211.864H930.12V212.998H928.3V215ZM927.082 207.16L922.77 211.864H927.082V207.16ZM930.804 210.1C930.804 208.588 931.154 207.37 931.868 206.46C932.568 205.55 933.604 205.088 934.962 205.088C937.748 205.088 939.134 206.922 939.134 210.1C939.134 211.626 938.784 212.83 938.098 213.74C937.398 214.65 936.362 215.112 934.99 215.112C933.674 215.112 932.652 214.65 931.91 213.726C931.168 212.802 930.804 211.598 930.804 210.1ZM932.092 210.1C932.092 212.494 933.184 213.922 934.99 213.922C936.894 213.922 937.846 212.648 937.846 210.1C937.846 207.552 936.88 206.278 934.962 206.278C933.016 206.278 932.092 207.678 932.092 210.1Z" fill="#1A3341"/>
<path opacity="0.6" d="M13.512 182.12H22.512V183.008H13.512V182.12ZM14.28 186.008H21.576V186.908H14.28V186.008ZM12.828 190.148H23.16V191.048H12.828V190.148ZM27.276 187.328H32.892V185.312H27.408C27.408 185.936 27.372 186.62 27.276 187.328ZM32.892 182.468H27.408V184.46H32.892V182.468ZM33.816 181.592V190.616C33.816 191.24 33.636 191.552 33.192 191.696C32.736 191.852 31.944 191.864 30.66 191.864C30.6 191.612 30.432 191.192 30.288 190.94C31.284 190.976 32.244 190.964 32.52 190.964C32.796 190.952 32.892 190.868 32.892 190.604V188.204H27.132C26.832 189.56 26.232 190.916 25.068 191.936C24.948 191.744 24.588 191.42 24.408 191.288C26.316 189.608 26.508 187.172 26.508 185.264V181.592H33.816Z" fill="#1A3341"/>
<path d="M46 532H668C668.552 532 669 532.448 669 533V549C669 549.552 668.552 550 668 550H46V532Z" fill="url(#paint18_linear_164_8751)"/>
<path d="M677.49 537.804L677.042 536.754L680.402 535.144H681.2V545H679.996V536.642L677.49 537.804ZM683.951 538.056L682.901 537.58C683.419 536.068 684.777 535.074 686.807 535.074C687.773 535.074 688.571 535.298 689.187 535.746C689.803 536.194 690.111 536.796 690.111 537.538C690.111 538.672 689.509 539.512 688.389 539.834C689.467 539.904 690.335 540.716 690.335 542.172C690.335 543.096 689.999 543.824 689.327 544.342C688.655 544.86 687.801 545.126 686.751 545.126C684.609 545.126 683.125 544.104 682.635 542.494L683.769 542.004C684.371 543.278 685.393 543.922 686.835 543.922C688.193 543.922 689.047 543.292 689.047 542.186C689.047 541.108 688.207 540.562 686.527 540.562H685.435V539.4H686.303C687.829 539.4 688.823 538.714 688.823 537.776C688.823 536.81 688.025 536.264 686.751 536.264C685.253 536.264 684.343 537.034 683.951 538.056ZM692.424 545C691.906 545.056 691.514 544.762 691.514 544.258C691.514 543.768 691.822 543.46 692.368 543.46C692.984 543.46 693.39 543.88 693.39 544.664C693.39 546.064 692.62 546.778 691.598 547.016L691.304 546.358C691.612 546.274 691.892 546.106 692.144 545.84C692.382 545.574 692.48 545.294 692.424 545ZM701.171 545H699.953V542.998H693.961V542.186L700.093 535.2H701.171V541.864H702.991V542.998H701.171V545ZM699.953 537.16L695.641 541.864H699.953V537.16ZM703.675 540.366C703.675 538.672 704.095 537.37 704.921 536.446C705.747 535.536 706.783 535.074 708.029 535.074C709.667 535.074 710.955 535.816 711.501 536.992L710.549 537.636C709.975 536.726 709.121 536.278 707.973 536.278C707.105 536.278 706.377 536.614 705.789 537.286C705.201 537.972 704.907 538.896 704.921 540.086C705.467 539.064 706.741 538.448 708.141 538.448C709.275 538.448 710.185 538.742 710.843 539.344C711.501 539.946 711.837 540.744 711.837 541.724C711.837 542.718 711.473 543.544 710.731 544.174C709.989 544.804 709.065 545.126 707.959 545.126C705.313 545.126 703.675 543.404 703.675 540.366ZM705.075 541.556C705.341 542.942 706.391 543.922 707.945 543.922C708.701 543.922 709.331 543.726 709.821 543.32C710.311 542.928 710.549 542.41 710.549 541.78C710.549 540.394 709.569 539.652 708.071 539.652C707.245 539.652 706.559 539.848 706.027 540.24C705.481 540.632 705.173 541.066 705.075 541.556ZM718.459 536.39H712.523V535.2H719.957V535.998L715.085 545H713.755L718.459 536.39Z" fill="#1A3341"/>
<path d="M46 556H729C729.552 556 730 556.448 730 557V573C730 573.552 729.552 574 729 574H46V556Z" fill="url(#paint19_linear_164_8751)"/>
<path d="M738.49 561.804L738.042 560.754L741.402 559.144H742.2V569H740.996V560.642L738.49 561.804ZM750.747 569H749.529V566.998H743.537V566.186L749.669 559.2H750.747V565.864H752.567V566.998H750.747V569ZM749.529 561.16L745.217 565.864H749.529V561.16ZM754.19 569C753.672 569.056 753.28 568.762 753.28 568.258C753.28 567.768 753.588 567.46 754.134 567.46C754.75 567.46 755.156 567.88 755.156 568.664C755.156 570.064 754.386 570.778 753.364 571.016L753.07 570.358C753.378 570.274 753.658 570.106 753.91 569.84C754.148 569.574 754.246 569.294 754.19 569ZM760.038 563.414H760.472C761.102 563.414 761.62 563.26 762.054 562.966C762.474 562.672 762.684 562.28 762.684 561.818C762.684 560.768 761.858 560.236 760.22 560.236C758.652 560.236 757.798 560.81 757.798 561.818C757.798 562.728 758.736 563.414 760.038 563.414ZM760.444 564.52H760.094C759.338 564.52 758.708 564.688 758.218 565.01C757.728 565.332 757.476 565.738 757.476 566.228C757.476 567.292 758.456 567.964 760.234 567.964C762.04 567.964 763.006 567.32 763.006 566.242C763.006 565.164 761.97 564.52 760.444 564.52ZM763.202 568.37C762.488 568.874 761.494 569.126 760.248 569.126C759.002 569.126 758.008 568.874 757.28 568.384C756.552 567.894 756.188 567.222 756.188 566.354C756.188 565.22 756.93 564.324 758.12 563.932C757.042 563.582 756.51 562.728 756.51 561.734C756.51 560.11 757.882 559.074 760.234 559.074C762.6 559.074 763.972 560.11 763.972 561.734C763.972 562.672 763.454 563.386 762.418 563.862C763.664 564.24 764.28 565.052 764.28 566.298C764.28 567.18 763.916 567.88 763.202 568.37ZM765.372 564.1C765.372 562.588 765.722 561.37 766.436 560.46C767.136 559.55 768.172 559.088 769.53 559.088C772.316 559.088 773.702 560.922 773.702 564.1C773.702 565.626 773.352 566.83 772.666 567.74C771.966 568.65 770.93 569.112 769.558 569.112C768.242 569.112 767.22 568.65 766.478 567.726C765.736 566.802 765.372 565.598 765.372 564.1ZM766.66 564.1C766.66 566.494 767.752 567.922 769.558 567.922C771.462 567.922 772.414 566.648 772.414 564.1C772.414 561.552 771.448 560.278 769.53 560.278C767.584 560.278 766.66 561.678 766.66 564.1ZM778.612 563.414H779.046C779.676 563.414 780.194 563.26 780.628 562.966C781.048 562.672 781.258 562.28 781.258 561.818C781.258 560.768 780.432 560.236 778.794 560.236C777.226 560.236 776.372 560.81 776.372 561.818C776.372 562.728 777.31 563.414 778.612 563.414ZM779.018 564.52H778.668C777.912 564.52 777.282 564.688 776.792 565.01C776.302 565.332 776.05 565.738 776.05 566.228C776.05 567.292 777.03 567.964 778.808 567.964C780.614 567.964 781.58 567.32 781.58 566.242C781.58 565.164 780.544 564.52 779.018 564.52ZM781.776 568.37C781.062 568.874 780.068 569.126 778.822 569.126C777.576 569.126 776.582 568.874 775.854 568.384C775.126 567.894 774.762 567.222 774.762 566.354C774.762 565.22 775.504 564.324 776.694 563.932C775.616 563.582 775.084 562.728 775.084 561.734C775.084 560.11 776.456 559.074 778.808 559.074C781.174 559.074 782.546 560.11 782.546 561.734C782.546 562.672 782.028 563.386 780.992 563.862C782.238 564.24 782.854 565.052 782.854 566.298C782.854 567.18 782.49 567.88 781.776 568.37Z" fill="#1A3341"/>
<path opacity="0.6" d="M21.18 544.868H22.404C22.74 544.868 22.8 544.58 22.836 543.14C23.04 543.32 23.424 543.464 23.664 543.536C23.58 545.204 23.352 545.744 22.464 545.744H21.048C20.124 545.744 19.836 545.456 19.836 544.364V538.904H17.088C16.836 541.904 15.996 544.448 13.104 545.912C12.984 545.696 12.684 545.372 12.444 545.204C15.156 543.92 15.936 541.628 16.164 538.904H12.996V538.016H16.224C16.26 537.08 16.26 536.096 16.26 535.088H17.208C17.196 536.084 17.196 537.068 17.148 538.016H20.376V538.028H20.736V544.376C20.736 544.796 20.796 544.868 21.18 544.868ZM27.276 541.328H32.892V539.312H27.408C27.408 539.936 27.372 540.62 27.276 541.328ZM32.892 536.468H27.408V538.46H32.892V536.468ZM33.816 535.592V544.616C33.816 545.24 33.636 545.552 33.192 545.696C32.736 545.852 31.944 545.864 30.66 545.864C30.6 545.612 30.432 545.192 30.288 544.94C31.284 544.976 32.244 544.964 32.52 544.964C32.796 544.952 32.892 544.868 32.892 544.604V542.204H27.132C26.832 543.56 26.232 544.916 25.068 545.936C24.948 545.744 24.588 545.42 24.408 545.288C26.316 543.608 26.508 541.172 26.508 539.264V535.592H33.816Z" fill="#1A3341"/>
<path d="M46 355H572C572.552 355 573 355.448 573 356V372C573 372.552 572.552 373 572 373H46V355Z" fill="url(#paint20_linear_164_8751)"/>
<path d="M581.49 360.804L581.042 359.754L584.402 358.144H585.2V368H583.996V359.642L581.49 360.804ZM586.873 360.804L586.425 359.754L589.785 358.144H590.583V368H589.379V359.642L586.873 360.804ZM593.307 368C592.789 368.056 592.397 367.762 592.397 367.258C592.397 366.768 592.705 366.46 593.251 366.46C593.867 366.46 594.273 366.88 594.273 367.664C594.273 369.064 593.503 369.778 592.481 370.016L592.187 369.358C592.495 369.274 592.775 369.106 593.027 368.84C593.265 368.574 593.363 368.294 593.307 368ZM596.257 361.056L595.207 360.58C595.725 359.068 597.083 358.074 599.113 358.074C600.079 358.074 600.877 358.298 601.493 358.746C602.109 359.194 602.417 359.796 602.417 360.538C602.417 361.672 601.815 362.512 600.695 362.834C601.773 362.904 602.641 363.716 602.641 365.172C602.641 366.096 602.305 366.824 601.633 367.342C600.961 367.86 600.107 368.126 599.057 368.126C596.915 368.126 595.431 367.104 594.941 365.494L596.075 365.004C596.677 366.278 597.699 366.922 599.141 366.922C600.499 366.922 601.353 366.292 601.353 365.186C601.353 364.108 600.513 363.562 598.833 363.562H597.741V362.4H598.609C600.135 362.4 601.129 361.714 601.129 360.776C601.129 359.81 600.331 359.264 599.057 359.264C597.559 359.264 596.649 360.034 596.257 361.056ZM603.792 363.366C603.792 361.672 604.212 360.37 605.038 359.446C605.864 358.536 606.9 358.074 608.146 358.074C609.784 358.074 611.072 358.816 611.618 359.992L610.666 360.636C610.092 359.726 609.238 359.278 608.09 359.278C607.222 359.278 606.494 359.614 605.906 360.286C605.318 360.972 605.024 361.896 605.038 363.086C605.584 362.064 606.858 361.448 608.258 361.448C609.392 361.448 610.302 361.742 610.96 362.344C611.618 362.946 611.954 363.744 611.954 364.724C611.954 365.718 611.59 366.544 610.848 367.174C610.106 367.804 609.182 368.126 608.076 368.126C605.43 368.126 603.792 366.404 603.792 363.366ZM605.192 364.556C605.458 365.942 606.508 366.922 608.062 366.922C608.818 366.922 609.448 366.726 609.938 366.32C610.428 365.928 610.666 365.41 610.666 364.78C610.666 363.394 609.686 362.652 608.188 362.652C607.362 362.652 606.676 362.848 606.144 363.24C605.598 363.632 605.29 364.066 605.192 364.556ZM614.391 363.492L613.383 363.226L613.957 358.2H620.117V359.39H615.035L614.671 362.022C615.161 361.658 615.903 361.476 616.897 361.476C618.045 361.476 618.941 361.784 619.599 362.386C620.243 363.002 620.565 363.786 620.565 364.752C620.565 365.718 620.201 366.53 619.487 367.16C618.759 367.804 617.849 368.126 616.771 368.126C614.937 368.126 613.411 367.258 612.781 365.732L613.901 365.256C614.307 366.194 615.357 366.936 616.771 366.936C618.381 366.936 619.277 366.012 619.277 364.794C619.277 363.492 618.227 362.652 616.561 362.652C615.665 362.652 614.937 362.932 614.391 363.492Z" fill="#1A3341"/>
<path d="M46 379H636C636.552 379 637 379.448 637 380V396C637 396.552 636.552 397 636 397H46V379Z" fill="url(#paint21_linear_164_8751)"/>
<path d="M645.49 384.804L645.042 383.754L648.402 382.144H649.2V392H647.996V383.642L645.49 384.804ZM652.105 385.434L651.083 385.07C651.433 383.334 652.749 382.088 654.835 382.088C656.851 382.088 658.083 383.25 658.083 385.028C658.083 385.966 657.677 386.904 657.173 387.576C656.921 387.926 656.599 388.262 656.221 388.612C655.451 389.298 654.905 389.662 654.107 390.166L653.029 390.838H658.447V392H650.817V391.048L652.945 389.634C653.323 389.396 653.589 389.214 653.743 389.102C653.897 389.004 654.149 388.822 654.485 388.584C654.821 388.346 655.073 388.136 655.241 387.982C655.395 387.828 655.605 387.632 655.843 387.38C656.487 386.68 656.725 386.036 656.795 385.154C656.795 383.88 655.969 383.306 654.751 383.306C653.995 383.306 653.393 383.516 652.959 383.936C652.525 384.356 652.231 384.86 652.105 385.434ZM660.356 392C659.838 392.056 659.446 391.762 659.446 391.258C659.446 390.768 659.754 390.46 660.3 390.46C660.916 390.46 661.322 390.88 661.322 391.664C661.322 393.064 660.552 393.778 659.53 394.016L659.236 393.358C659.544 393.274 659.824 393.106 660.076 392.84C660.314 392.574 660.412 392.294 660.356 392ZM667.954 383.39H662.018V382.2H669.452V382.998L664.58 392H663.25L667.954 383.39ZM674.062 386.414H674.496C675.126 386.414 675.644 386.26 676.078 385.966C676.498 385.672 676.708 385.28 676.708 384.818C676.708 383.768 675.882 383.236 674.244 383.236C672.676 383.236 671.822 383.81 671.822 384.818C671.822 385.728 672.76 386.414 674.062 386.414ZM674.468 387.52H674.118C673.362 387.52 672.732 387.688 672.242 388.01C671.752 388.332 671.5 388.738 671.5 389.228C671.5 390.292 672.48 390.964 674.258 390.964C676.064 390.964 677.03 390.32 677.03 389.242C677.03 388.164 675.994 387.52 674.468 387.52ZM677.226 391.37C676.512 391.874 675.518 392.126 674.272 392.126C673.026 392.126 672.032 391.874 671.304 391.384C670.576 390.894 670.212 390.222 670.212 389.354C670.212 388.22 670.954 387.324 672.144 386.932C671.066 386.582 670.534 385.728 670.534 384.734C670.534 383.11 671.906 382.074 674.258 382.074C676.624 382.074 677.996 383.11 677.996 384.734C677.996 385.672 677.478 386.386 676.442 386.862C677.688 387.24 678.304 388.052 678.304 389.298C678.304 390.18 677.94 390.88 677.226 391.37ZM680.516 385.434L679.494 385.07C679.844 383.334 681.16 382.088 683.246 382.088C685.262 382.088 686.494 383.25 686.494 385.028C686.494 385.966 686.088 386.904 685.584 387.576C685.332 387.926 685.01 388.262 684.632 388.612C683.862 389.298 683.316 389.662 682.518 390.166L681.44 390.838H686.858V392H679.228V391.048L681.356 389.634C681.734 389.396 682 389.214 682.154 389.102C682.308 389.004 682.56 388.822 682.896 388.584C683.232 388.346 683.484 388.136 683.652 387.982C683.806 387.828 684.016 387.632 684.254 387.38C684.898 386.68 685.136 386.036 685.206 385.154C685.206 383.88 684.38 383.306 683.162 383.306C682.406 383.306 681.804 383.516 681.37 383.936C680.936 384.356 680.642 384.86 680.516 385.434Z" fill="#1A3341"/>
<path opacity="0.6" d="M12.732 361.124H23.304V362.036H12.732V361.124ZM15.72 363.416L16.692 363.728C15.816 365.576 14.556 367.556 13.452 368.84C13.248 368.672 12.816 368.372 12.564 368.216C13.716 367.028 14.928 365.156 15.72 363.416ZM19.248 363.716L20.076 363.32C21.192 364.88 22.656 367.004 23.364 368.252L22.464 368.768C21.804 367.508 20.364 365.324 19.248 363.716ZM16.896 358.328L17.796 358.016C18.216 358.808 18.72 359.864 18.96 360.476L18 360.848C17.772 360.224 17.292 359.132 16.896 358.328ZM27.276 364.328H32.892V362.312H27.408C27.408 362.936 27.372 363.62 27.276 364.328ZM32.892 359.468H27.408V361.46H32.892V359.468ZM33.816 358.592V367.616C33.816 368.24 33.636 368.552 33.192 368.696C32.736 368.852 31.944 368.864 30.66 368.864C30.6 368.612 30.432 368.192 30.288 367.94C31.284 367.976 32.244 367.964 32.52 367.964C32.796 367.952 32.892 367.868 32.892 367.604V365.204H27.132C26.832 366.56 26.232 367.916 25.068 368.936C24.948 368.744 24.588 368.42 24.408 368.288C26.316 366.608 26.508 364.172 26.508 362.264V358.592H33.816Z" fill="#1A3341"/>
<path d="M46 709H1034C1034.55 709 1035 709.448 1035 710V726C1035 726.552 1034.55 727 1034 727H46V709Z" fill="url(#paint22_linear_164_8751)"/>
<path d="M1044.72 715.434L1043.7 715.07C1044.05 713.334 1045.37 712.088 1047.45 712.088C1049.47 712.088 1050.7 713.25 1050.7 715.028C1050.7 715.966 1050.29 716.904 1049.79 717.576C1049.54 717.926 1049.22 718.262 1048.84 718.612C1048.07 719.298 1047.52 719.662 1046.72 720.166L1045.65 720.838H1051.06V722H1043.43V721.048L1045.56 719.634C1045.94 719.396 1046.21 719.214 1046.36 719.102C1046.51 719.004 1046.77 718.822 1047.1 718.584C1047.44 718.346 1047.69 718.136 1047.86 717.982C1048.01 717.828 1048.22 717.632 1048.46 717.38C1049.1 716.68 1049.34 716.036 1049.41 715.154C1049.41 713.88 1048.59 713.306 1047.37 713.306C1046.61 713.306 1046.01 713.516 1045.58 713.936C1045.14 714.356 1044.85 714.86 1044.72 715.434ZM1051.92 714.804L1051.47 713.754L1054.83 712.144H1055.63V722H1054.43V713.642L1051.92 714.804ZM1058.36 722C1057.84 722.056 1057.45 721.762 1057.45 721.258C1057.45 720.768 1057.75 720.46 1058.3 720.46C1058.92 720.46 1059.32 720.88 1059.32 721.664C1059.32 723.064 1058.55 723.778 1057.53 724.016L1057.24 723.358C1057.54 723.274 1057.82 723.106 1058.08 722.84C1058.31 722.574 1058.41 722.294 1058.36 722ZM1067.1 722H1065.88V719.998H1059.89V719.186L1066.02 712.2H1067.1V718.864H1068.92V719.998H1067.1V722ZM1065.88 714.16L1061.57 718.864H1065.88V714.16ZM1070.73 715.434L1069.7 715.07C1070.05 713.334 1071.37 712.088 1073.46 712.088C1075.47 712.088 1076.7 713.25 1076.7 715.028C1076.7 715.966 1076.3 716.904 1075.79 717.576C1075.54 717.926 1075.22 718.262 1074.84 718.612C1074.07 719.298 1073.53 719.662 1072.73 720.166L1071.65 720.838H1077.07V722H1069.44V721.048L1071.57 719.634C1071.94 719.396 1072.21 719.214 1072.36 719.102C1072.52 719.004 1072.77 718.822 1073.11 718.584C1073.44 718.346 1073.69 718.136 1073.86 717.982C1074.02 717.828 1074.23 717.632 1074.46 717.38C1075.11 716.68 1075.35 716.036 1075.42 715.154C1075.42 713.88 1074.59 713.306 1073.37 713.306C1072.62 713.306 1072.01 713.516 1071.58 713.936C1071.15 714.356 1070.85 714.86 1070.73 715.434ZM1079.16 715.434L1078.14 715.07C1078.49 713.334 1079.8 712.088 1081.89 712.088C1083.9 712.088 1085.14 713.25 1085.14 715.028C1085.14 715.966 1084.73 716.904 1084.23 717.576C1083.97 717.926 1083.65 718.262 1083.27 718.612C1082.5 719.298 1081.96 719.662 1081.16 720.166L1080.08 720.838H1085.5V722H1077.87V721.048L1080 719.634C1080.38 719.396 1080.64 719.214 1080.8 719.102C1080.95 719.004 1081.2 718.822 1081.54 718.584C1081.87 718.346 1082.13 718.136 1082.29 717.982C1082.45 717.828 1082.66 717.632 1082.9 717.38C1083.54 716.68 1083.78 716.036 1083.85 715.154C1083.85 713.88 1083.02 713.306 1081.8 713.306C1081.05 713.306 1080.45 713.516 1080.01 713.936C1079.58 714.356 1079.28 714.86 1079.16 715.434Z" fill="#1A3341"/>
<path d="M46 733H812C812.552 733 813 733.448 813 734V750C813 750.552 812.552 751 812 751H46V733Z" fill="url(#paint23_linear_164_8751)"/>
<path d="M821.49 738.804L821.042 737.754L824.402 736.144H825.2V746H823.996V737.642L821.49 738.804ZM826.985 741.366C826.985 739.672 827.405 738.37 828.231 737.446C829.057 736.536 830.093 736.074 831.339 736.074C832.977 736.074 834.265 736.816 834.811 737.992L833.859 738.636C833.285 737.726 832.431 737.278 831.283 737.278C830.415 737.278 829.687 737.614 829.099 738.286C828.511 738.972 828.217 739.896 828.231 741.086C828.777 740.064 830.051 739.448 831.451 739.448C832.585 739.448 833.495 739.742 834.153 740.344C834.811 740.946 835.147 741.744 835.147 742.724C835.147 743.718 834.783 744.544 834.041 745.174C833.299 745.804 832.375 746.126 831.269 746.126C828.623 746.126 826.985 744.404 826.985 741.366ZM828.385 742.556C828.651 743.942 829.701 744.922 831.255 744.922C832.011 744.922 832.641 744.726 833.131 744.32C833.621 743.928 833.859 743.41 833.859 742.78C833.859 741.394 832.879 740.652 831.381 740.652C830.555 740.652 829.869 740.848 829.337 741.24C828.791 741.632 828.483 742.066 828.385 742.556ZM837.094 746C836.576 746.056 836.184 745.762 836.184 745.258C836.184 744.768 836.492 744.46 837.038 744.46C837.654 744.46 838.06 744.88 838.06 745.664C838.06 747.064 837.29 747.778 836.268 748.016L835.974 747.358C836.282 747.274 836.562 747.106 836.814 746.84C837.052 746.574 837.15 746.294 837.094 746ZM839.078 741.366C839.078 739.672 839.498 738.37 840.324 737.446C841.15 736.536 842.186 736.074 843.432 736.074C845.07 736.074 846.358 736.816 846.904 737.992L845.952 738.636C845.378 737.726 844.524 737.278 843.376 737.278C842.508 737.278 841.78 737.614 841.192 738.286C840.604 738.972 840.31 739.896 840.324 741.086C840.87 740.064 842.144 739.448 843.544 739.448C844.678 739.448 845.588 739.742 846.246 740.344C846.904 740.946 847.24 741.744 847.24 742.724C847.24 743.718 846.876 744.544 846.134 745.174C845.392 745.804 844.468 746.126 843.362 746.126C840.716 746.126 839.078 744.404 839.078 741.366ZM840.478 742.556C840.744 743.942 841.794 744.922 843.348 744.922C844.104 744.922 844.734 744.726 845.224 744.32C845.714 743.928 845.952 743.41 845.952 742.78C845.952 741.394 844.972 740.652 843.474 740.652C842.648 740.652 841.962 740.848 841.43 741.24C840.884 741.632 840.576 742.066 840.478 742.556ZM848.249 741.1C848.249 739.588 848.599 738.37 849.313 737.46C850.013 736.55 851.049 736.088 852.407 736.088C855.193 736.088 856.579 737.922 856.579 741.1C856.579 742.626 856.229 743.83 855.543 744.74C854.843 745.65 853.807 746.112 852.435 746.112C851.119 746.112 850.097 745.65 849.355 744.726C848.613 743.802 848.249 742.598 848.249 741.1ZM849.537 741.1C849.537 743.494 850.629 744.922 852.435 744.922C854.339 744.922 855.291 743.648 855.291 741.1C855.291 738.552 854.325 737.278 852.407 737.278C850.461 737.278 849.537 738.678 849.537 741.1ZM857.625 741.366C857.625 739.672 858.045 738.37 858.871 737.446C859.697 736.536 860.733 736.074 861.979 736.074C863.617 736.074 864.905 736.816 865.451 737.992L864.499 738.636C863.925 737.726 863.071 737.278 861.923 737.278C861.055 737.278 860.327 737.614 859.739 738.286C859.151 738.972 858.857 739.896 858.871 741.086C859.417 740.064 860.691 739.448 862.091 739.448C863.225 739.448 864.135 739.742 864.793 740.344C865.451 740.946 865.787 741.744 865.787 742.724C865.787 743.718 865.423 744.544 864.681 745.174C863.939 745.804 863.015 746.126 861.909 746.126C859.263 746.126 857.625 744.404 857.625 741.366ZM859.025 742.556C859.291 743.942 860.341 744.922 861.895 744.922C862.651 744.922 863.281 744.726 863.771 744.32C864.261 743.928 864.499 743.41 864.499 742.78C864.499 741.394 863.519 740.652 862.021 740.652C861.195 740.652 860.509 740.848 859.977 741.24C859.431 741.632 859.123 742.066 859.025 742.556Z" fill="#1A3341"/>
<path opacity="0.6" d="M11.388 716.42V717.332H6.492V722.912H5.544V717.332H0.708V716.42H5.544V711.98H6.492V716.42H11.388ZM13.728 713.684H22.284V714.632H13.728V713.684ZM12.72 720.752H23.292V721.724H12.72V720.752ZM27.276 718.328H32.892V716.312H27.408C27.408 716.936 27.372 717.62 27.276 718.328ZM32.892 713.468H27.408V715.46H32.892V713.468ZM33.816 712.592V721.616C33.816 722.24 33.636 722.552 33.192 722.696C32.736 722.852 31.944 722.864 30.66 722.864C30.6 722.612 30.432 722.192 30.288 721.94C31.284 721.976 32.244 721.964 32.52 721.964C32.796 721.952 32.892 721.868 32.892 721.604V719.204H27.132C26.832 720.56 26.232 721.916 25.068 722.936C24.948 722.744 24.588 722.42 24.408 722.288C26.316 720.608 26.508 718.172 26.508 716.264V712.592H33.816Z" fill="#1A3341"/>
<line x1="46.5" y1="46" x2="46.5" y2="769" stroke="#ABBEC9"/>
<rect width="10" height="10" fill="url(#paint24_linear_164_8751)"/>
<path d="M19.476 3.372L18.6 3.06C18.9 1.572 20.028 0.504 21.816 0.504C23.544 0.504 24.6 1.5 24.6 3.024C24.6 3.828 24.252 4.632 23.82 5.208C23.604 5.508 23.328 5.796 23.004 6.096C22.344 6.684 21.876 6.996 21.192 7.428L20.268 8.004H24.912V9H18.372V8.184L20.196 6.972C20.52 6.768 20.748 6.612 20.88 6.516C21.012 6.432 21.228 6.276 21.516 6.072C21.804 5.868 22.02 5.688 22.164 5.556C22.296 5.424 22.476 5.256 22.68 5.04C23.232 4.44 23.436 3.888 23.496 3.132C23.496 2.04 22.788 1.548 21.744 1.548C21.096 1.548 20.58 1.728 20.208 2.088C19.836 2.448 19.584 2.88 19.476 3.372ZM25.7437 4.8C25.7437 3.504 26.0437 2.46 26.6557 1.68C27.2557 0.9 28.1437 0.504 29.3077 0.504C31.6957 0.504 32.8837 2.076 32.8837 4.8C32.8837 6.108 32.5837 7.14 31.9957 7.92C31.3957 8.7 30.5077 9.096 29.3317 9.096C28.2037 9.096 27.3277 8.7 26.6917 7.908C26.0557 7.116 25.7437 6.084 25.7437 4.8ZM26.8477 4.8C26.8477 6.852 27.7837 8.076 29.3317 8.076C30.9637 8.076 31.7797 6.984 31.7797 4.8C31.7797 2.616 30.9517 1.524 29.3077 1.524C27.6397 1.524 26.8477 2.724 26.8477 4.8ZM34.7399 3.372L33.8639 3.06C34.1639 1.572 35.2919 0.504 37.0799 0.504C38.8079 0.504 39.8639 1.5 39.8639 3.024C39.8639 3.828 39.5159 4.632 39.0839 5.208C38.8679 5.508 38.5919 5.796 38.2679 6.096C37.6079 6.684 37.1399 6.996 36.4559 7.428L35.5319 8.004H40.1759V9H33.6359V8.184L35.4599 6.972C35.7839 6.768 36.0119 6.612 36.1439 6.516C36.2759 6.432 36.4919 6.276 36.7799 6.072C37.0679 5.868 37.2839 5.688 37.4279 5.556C37.5599 5.424 37.7399 5.256 37.9439 5.04C38.4959 4.44 38.6999 3.888 38.7599 3.132C38.7599 2.04 38.0519 1.548 37.0079 1.548C36.3599 1.548 35.8439 1.728 35.4719 2.088C35.0999 2.448 34.8479 2.88 34.7399 3.372ZM41.9676 3.372L41.0916 3.06C41.3916 1.572 42.5196 0.504 44.3076 0.504C46.0356 0.504 47.0916 1.5 47.0916 3.024C47.0916 3.828 46.7436 4.632 46.3116 5.208C46.0956 5.508 45.8196 5.796 45.4956 6.096C44.8356 6.684 44.3676 6.996 43.6836 7.428L42.7596 8.004H47.4036V9H40.8636V8.184L42.6876 6.972C43.0116 6.768 43.2396 6.612 43.3716 6.516C43.5036 6.432 43.7196 6.276 44.0076 6.072C44.2956 5.868 44.5116 5.688 44.6556 5.556C44.7876 5.424 44.9676 5.256 45.1716 5.04C45.7236 4.44 45.9276 3.888 45.9876 3.132C45.9876 2.04 45.2796 1.548 44.2356 1.548C43.5876 1.548 43.0716 1.728 42.6996 2.088C42.3276 2.448 42.0756 2.88 41.9676 3.372Z" fill="#76848D"/>
<rect x="84" width="10" height="10" fill="url(#paint25_linear_164_8751)"/>
<path d="M103.476 3.372L102.6 3.06C102.9 1.572 104.028 0.504 105.816 0.504C107.544 0.504 108.6 1.5 108.6 3.024C108.6 3.828 108.252 4.632 107.82 5.208C107.604 5.508 107.328 5.796 107.004 6.096C106.344 6.684 105.876 6.996 105.192 7.428L104.268 8.004H108.912V9H102.372V8.184L104.196 6.972C104.52 6.768 104.748 6.612 104.88 6.516C105.012 6.432 105.228 6.276 105.516 6.072C105.804 5.868 106.02 5.688 106.164 5.556C106.296 5.424 106.476 5.256 106.68 5.04C107.232 4.44 107.436 3.888 107.496 3.132C107.496 2.04 106.788 1.548 105.744 1.548C105.096 1.548 104.58 1.728 104.208 2.088C103.836 2.448 103.584 2.88 103.476 3.372ZM109.744 4.8C109.744 3.504 110.044 2.46 110.656 1.68C111.256 0.9 112.144 0.504 113.308 0.504C115.696 0.504 116.884 2.076 116.884 4.8C116.884 6.108 116.584 7.14 115.996 7.92C115.396 8.7 114.508 9.096 113.332 9.096C112.204 9.096 111.328 8.7 110.692 7.908C110.056 7.116 109.744 6.084 109.744 4.8ZM110.848 4.8C110.848 6.852 111.784 8.076 113.332 8.076C114.964 8.076 115.78 6.984 115.78 4.8C115.78 2.616 114.952 1.524 113.308 1.524C111.64 1.524 110.848 2.724 110.848 4.8ZM118.74 3.372L117.864 3.06C118.164 1.572 119.292 0.504 121.08 0.504C122.808 0.504 123.864 1.5 123.864 3.024C123.864 3.828 123.516 4.632 123.084 5.208C122.868 5.508 122.592 5.796 122.268 6.096C121.608 6.684 121.14 6.996 120.456 7.428L119.532 8.004H124.176V9H117.636V8.184L119.46 6.972C119.784 6.768 120.012 6.612 120.144 6.516C120.276 6.432 120.492 6.276 120.78 6.072C121.068 5.868 121.284 5.688 121.428 5.556C121.56 5.424 121.74 5.256 121.944 5.04C122.496 4.44 122.7 3.888 122.76 3.132C122.76 2.04 122.052 1.548 121.008 1.548C120.36 1.548 119.844 1.728 119.472 2.088C119.1 2.448 118.848 2.88 118.74 3.372ZM125.836 3.048L124.936 2.64C125.38 1.344 126.544 0.491999 128.284 0.491999C129.112 0.491999 129.796 0.684 130.324 1.068C130.852 1.452 131.116 1.968 131.116 2.604C131.116 3.576 130.6 4.296 129.64 4.572C130.564 4.632 131.308 5.328 131.308 6.576C131.308 7.368 131.02 7.992 130.444 8.436C129.868 8.88 129.136 9.108 128.236 9.108C126.4 9.108 125.128 8.232 124.708 6.852L125.68 6.432C126.196 7.524 127.072 8.076 128.308 8.076C129.472 8.076 130.204 7.536 130.204 6.588C130.204 5.664 129.484 5.196 128.044 5.196H127.108V4.2H127.852C129.16 4.2 130.012 3.612 130.012 2.808C130.012 1.98 129.328 1.512 128.236 1.512C126.952 1.512 126.172 2.172 125.836 3.048Z" fill="#76848D"/>
<defs>
<linearGradient id="paint0_linear_164_8751" x1="55.9048" y1="78" x2="254" y2="78" gradientUnits="userSpaceOnUse">
<stop stop-color="#CEE8EF"/>
<stop offset="1" stop-color="#CEE8EF"/>
</linearGradient>
<linearGradient id="paint1_linear_164_8751" x1="878" y1="93" x2="46" y2="93" gradientUnits="userSpaceOnUse">
<stop stop-color="#6D73F9"/>
<stop offset="1" stop-color="#9BB8F1"/>
</linearGradient>
<linearGradient id="paint2_linear_164_8751" x1="76.7619" y1="432" x2="692" y2="432" gradientUnits="userSpaceOnUse">
<stop stop-color="#CEE8EF"/>
<stop offset="1" stop-color="#CEE8EF"/>
</linearGradient>
<linearGradient id="paint3_linear_164_8751" x1="762" y1="447" x2="46" y2="447" gradientUnits="userSpaceOnUse">
<stop stop-color="#6D73F9"/>
<stop offset="1" stop-color="#9BB8F1"/>
</linearGradient>
<linearGradient id="paint4_linear_164_8751" x1="65.3333" y1="255" x2="452" y2="255" gradientUnits="userSpaceOnUse">
<stop stop-color="#CEE8EF"/>
<stop offset="1" stop-color="#CEE8EF"/>
</linearGradient>
<linearGradient id="paint5_linear_164_8751" x1="933" y1="270" x2="46" y2="270" gradientUnits="userSpaceOnUse">
<stop stop-color="#6D73F9"/>
<stop offset="1" stop-color="#9BB8F1"/>
</linearGradient>
<linearGradient id="paint6_linear_164_8751" x1="83.1905" y1="609" x2="827" y2="609" gradientUnits="userSpaceOnUse">
<stop stop-color="#CEE8EF"/>
<stop offset="1" stop-color="#CEE8EF"/>
</linearGradient>
<linearGradient id="paint7_linear_164_8751" x1="624" y1="624" x2="46" y2="624" gradientUnits="userSpaceOnUse">
<stop stop-color="#6D73F9"/>
<stop offset="1" stop-color="#9BB8F1"/>
</linearGradient>
<linearGradient id="paint8_linear_164_8751" x1="54.5714" y1="137" x2="226" y2="137" gradientUnits="userSpaceOnUse">
<stop stop-color="#CEE8EF"/>
<stop offset="1" stop-color="#CEE8EF"/>
</linearGradient>
<linearGradient id="paint9_linear_164_8751" x1="988" y1="152" x2="46" y2="152" gradientUnits="userSpaceOnUse">
<stop stop-color="#6D73F9"/>
<stop offset="1" stop-color="#9BB8F1"/>
</linearGradient>
<linearGradient id="paint10_linear_164_8751" x1="77.2381" y1="491" x2="702" y2="491" gradientUnits="userSpaceOnUse">
<stop stop-color="#CEE8EF"/>
<stop offset="1" stop-color="#CEE8EF"/>
</linearGradient>
<linearGradient id="paint11_linear_164_8751" x1="776" y1="506" x2="46" y2="506" gradientUnits="userSpaceOnUse">
<stop stop-color="#6D73F9"/>
<stop offset="1" stop-color="#9BB8F1"/>
</linearGradient>
<linearGradient id="paint12_linear_164_8751" x1="64.0476" y1="314" x2="425" y2="314" gradientUnits="userSpaceOnUse">
<stop stop-color="#CEE8EF"/>
<stop offset="1" stop-color="#CEE8EF"/>
</linearGradient>
<linearGradient id="paint13_linear_164_8751" x1="844" y1="329" x2="46" y2="329" gradientUnits="userSpaceOnUse">
<stop stop-color="#6D73F9"/>
<stop offset="1" stop-color="#9BB8F1"/>
</linearGradient>
<linearGradient id="paint14_linear_164_8751" x1="93.2857" y1="668" x2="1039" y2="668" gradientUnits="userSpaceOnUse">
<stop stop-color="#CEE8EF"/>
<stop offset="1" stop-color="#CEE8EF"/>
</linearGradient>
<linearGradient id="paint15_linear_164_8751" x1="715" y1="683" x2="46" y2="683" gradientUnits="userSpaceOnUse">
<stop stop-color="#6D73F9"/>
<stop offset="1" stop-color="#9BB8F1"/>
</linearGradient>
<linearGradient id="paint16_linear_164_8751" x1="68.9048" y1="196" x2="527" y2="196" gradientUnits="userSpaceOnUse">
<stop stop-color="#CEE8EF"/>
<stop offset="1" stop-color="#CEE8EF"/>
</linearGradient>
<linearGradient id="paint17_linear_164_8751" x1="887" y1="211" x2="46" y2="211" gradientUnits="userSpaceOnUse">
<stop stop-color="#6D73F9"/>
<stop offset="1" stop-color="#9BB8F1"/>
</linearGradient>
<linearGradient id="paint18_linear_164_8751" x1="75.6667" y1="550" x2="669" y2="550" gradientUnits="userSpaceOnUse">
<stop stop-color="#CEE8EF"/>
<stop offset="1" stop-color="#CEE8EF"/>
</linearGradient>
<linearGradient id="paint19_linear_164_8751" x1="730" y1="565" x2="46" y2="565" gradientUnits="userSpaceOnUse">
<stop stop-color="#6D73F9"/>
<stop offset="1" stop-color="#9BB8F1"/>
</linearGradient>
<linearGradient id="paint20_linear_164_8751" x1="71.0952" y1="373" x2="573" y2="373" gradientUnits="userSpaceOnUse">
<stop stop-color="#CEE8EF"/>
<stop offset="1" stop-color="#CEE8EF"/>
</linearGradient>
<linearGradient id="paint21_linear_164_8751" x1="637" y1="388" x2="46" y2="388" gradientUnits="userSpaceOnUse">
<stop stop-color="#6D73F9"/>
<stop offset="1" stop-color="#9BB8F1"/>
</linearGradient>
<linearGradient id="paint22_linear_164_8751" x1="93.0952" y1="727" x2="1035" y2="727" gradientUnits="userSpaceOnUse">
<stop stop-color="#CEE8EF"/>
<stop offset="1" stop-color="#CEE8EF"/>
</linearGradient>
<linearGradient id="paint23_linear_164_8751" x1="813" y1="742" x2="46" y2="742" gradientUnits="userSpaceOnUse">
<stop stop-color="#6D73F9"/>
<stop offset="1" stop-color="#9BB8F1"/>
</linearGradient>
<linearGradient id="paint24_linear_164_8751" x1="5" y1="0" x2="5" y2="10" gradientUnits="userSpaceOnUse">
<stop stop-color="#CDE3E9"/>
<stop offset="1" stop-color="#D3E8ED"/>
</linearGradient>
<linearGradient id="paint25_linear_164_8751" x1="89" y1="0" x2="89" y2="10" gradientUnits="userSpaceOnUse">
<stop stop-color="#6D73F9"/>
<stop offset="1" stop-color="#9BB8F1"/>
</linearGradient>
</defs>
</svg>
