<svg width="1121" height="554" viewBox="0 0 1121 554" fill="none" xmlns="http://www.w3.org/2000/svg">
<path d="M198 18L444 18" stroke="#ABBEC9"/>
<path d="M192 18L201 12.8038L201 23.1962L192 18Z" fill="#ABBEC9"/>
<path d="M843 254L668 254" stroke="#ABBEC9"/>
<path d="M1062.97 526L1120 526C1120 526 1120 464.892 1120 378M1058 18L1120 18L1120 242M1120 242C1120 242 1120 296.576 1120 378M1120 242L1058 242M1120 378L1058.32 378" stroke="#ABBEC9"/>
<path d="M1058 525.196L1067 520L1067 530.393L1058 525.196Z" fill="#ABBEC9"/>
<path d="M850 390.196L841 385L841 395.393L850 390.196Z" fill="#ABBEC9"/>
<path d="M850 18.1964L841 13.0003L841 23.3926L850 18.1964Z" fill="#ABBEC9"/>
<path d="M192 250L201 244.804V255.196L192 250Z" fill="#ABBEC9"/>
<rect y="216" width="176" height="46" rx="2" fill="white" fill-opacity="0.85"/>
<path d="M52.426 235.424L52.636 235.368L53.35 235.606C52.608 241.08 50.424 244.342 47.442 245.966C47.288 245.7 46.854 245.28 46.602 245.112C48.226 244.286 49.584 243.012 50.578 241.192C49.99 240.646 49.066 239.932 48.31 239.428L48.94 238.742C49.612 239.162 50.438 239.75 51.026 240.254C51.502 239.148 51.88 237.874 52.118 236.404H49.458C48.926 237.86 48.254 239.148 47.47 240.128C47.302 239.946 46.84 239.61 46.616 239.47C47.89 238.028 48.772 235.718 49.276 233.282L50.298 233.478C50.144 234.15 49.99 234.794 49.794 235.424H52.426ZM55.618 237.804L55.996 237.496C57.2 238.448 58.712 239.778 59.454 240.66L58.628 241.374C57.998 240.576 56.724 239.4 55.618 238.462V246.064H54.554V233.296H55.618V237.804ZM67.728 234.934V235.886H61.176V234.934H64.074C63.92 234.472 63.696 233.926 63.5 233.492L64.41 233.226C64.704 233.772 64.984 234.458 65.152 234.934H67.728ZM63.836 238.378L62.898 238.63C62.772 237.986 62.408 236.992 62.03 236.236L62.912 236.012C63.332 236.74 63.71 237.72 63.836 238.378ZM66.37 241.85H62.548V244.384H66.37V241.85ZM61.568 245.98V240.912H67.392V245.868H66.37V245.308H62.548V245.98H61.568ZM66.076 235.97L67.112 236.194C66.79 237.006 66.412 237.958 66.062 238.686H68.036V239.638H60.77V238.686H65.054C65.432 237.902 65.852 236.754 66.076 235.97ZM72.516 233.982L73.23 234.458C72.726 235.732 72.082 237.328 71.494 238.616C72.74 239.932 73.048 241.01 73.048 241.99C73.048 242.788 72.866 243.474 72.418 243.768C72.18 243.936 71.872 244.034 71.55 244.062C71.2 244.104 70.752 244.104 70.36 244.09C70.346 243.81 70.248 243.39 70.08 243.096C70.486 243.138 70.878 243.138 71.158 243.124C71.368 243.11 71.564 243.068 71.718 242.984C71.998 242.802 72.096 242.368 72.082 241.892C72.082 241.01 71.732 240.002 70.486 238.728C71.004 237.552 71.55 236.068 71.928 234.99H69.702V246.05H68.764V234.038H72.348L72.516 233.982ZM84.906 238.504H81.518V240.03H84.906V238.504ZM81.518 242.508H84.906V240.912H81.518V242.508ZM77.066 242.508H80.454V240.912H77.066V242.508ZM80.454 238.504H77.066V240.03H80.454V238.504ZM81.518 236.236V237.58H85.928V244.16H84.906V243.432H81.518V246.05H80.454V243.432H77.066V244.216H76.072V237.58H80.454V236.236H81.518ZM81.616 234.78H86.782V237.062H85.718V235.788H76.24V237.062H75.218V234.78H80.65C80.482 234.388 80.244 233.87 80.02 233.492L81.07 233.184C81.35 233.674 81.686 234.318 81.84 234.71L81.616 234.78ZM92.858 235.62L92.158 236.39C91.696 235.788 90.73 234.85 89.96 234.206L90.632 233.534C91.402 234.15 92.382 235.046 92.858 235.62ZM91.948 243.6L93.656 242.452C93.726 242.718 93.908 243.152 93.992 243.362C91.388 245.21 90.996 245.518 90.772 245.812C90.674 245.532 90.408 245.084 90.226 244.86C90.492 244.678 90.898 244.286 90.898 243.698V238.686H88.7V237.664H91.948V243.6ZM101.384 237.916V238.966H97.842V246.078H96.764V238.966H93.208V237.916H96.764V233.338H97.842V237.916H101.384ZM104.576 241.066L107.628 240.506C107.6 240.786 107.614 241.164 107.628 241.374C103.848 242.144 103.358 242.27 103.05 242.424C103.008 242.242 102.854 241.766 102.742 241.528C103.036 241.444 103.4 241.108 103.848 240.59C104.128 240.31 104.744 239.568 105.416 238.658C103.512 238.896 103.162 238.994 102.952 239.092C102.91 238.882 102.756 238.392 102.644 238.112C102.896 238.056 103.148 237.734 103.47 237.258C103.806 236.796 104.898 234.99 105.528 233.282L106.466 233.73C105.78 235.228 104.926 236.754 104.044 237.958L106.06 237.734C106.382 237.244 106.704 236.74 106.984 236.25L107.81 236.74C106.844 238.308 105.71 239.834 104.576 241.066ZM107.53 243.068L107.628 243.95C105.962 244.384 104.226 244.818 102.91 245.154L102.728 244.146C103.918 243.922 105.738 243.474 107.53 243.068ZM109.728 242.102V244.818H113.144V242.102H109.728ZM113.144 234.934H109.728V237.538H113.144V234.934ZM109.728 238.49V241.164H113.144V238.49H109.728ZM114.166 244.818H115.37V245.77H107.32V244.818H108.734V233.982H114.166V244.818ZM127.382 239.442V235.27H123.182V239.442H127.382ZM128.446 234.276V240.436H122.16V234.276H128.446ZM118.52 241.108L121.6 240.534C121.572 240.814 121.572 241.22 121.6 241.444C117.778 242.2 117.302 242.326 116.994 242.522C116.938 242.312 116.784 241.836 116.658 241.57C116.966 241.5 117.302 241.178 117.736 240.66C118.002 240.38 118.59 239.666 119.22 238.756C117.428 238.994 117.092 239.078 116.896 239.162C116.84 238.952 116.672 238.462 116.546 238.182C116.812 238.112 117.05 237.79 117.358 237.314C117.694 236.852 118.73 235.032 119.304 233.338L120.298 233.8C119.654 235.298 118.814 236.838 117.946 238.042L119.836 237.846C120.172 237.356 120.48 236.824 120.76 236.32L121.614 236.824C120.69 238.364 119.626 239.862 118.52 241.108ZM121.544 243.138L121.656 244.048C119.934 244.468 118.156 244.902 116.812 245.252L116.616 244.216C117.848 243.978 119.724 243.558 121.544 243.138ZM123.154 241.794L124.232 242.032C123.756 243.6 122.93 245.084 122.006 246.064C121.81 245.91 121.348 245.602 121.082 245.462C122.02 244.58 122.734 243.222 123.154 241.794ZM126.318 242.116L127.256 241.766C128.026 242.956 128.838 244.538 129.16 245.532L128.138 245.938C127.83 244.944 127.046 243.334 126.318 242.116Z" fill="#3C525E"/>
<rect y="347" width="176" height="46" rx="2" fill="white" fill-opacity="0.85"/>
<path d="M64.564 364.702L65.67 365.01C64.732 367.278 63.248 369.392 61.736 370.764C61.512 370.554 61.036 370.19 60.77 370.022C62.338 368.79 63.738 366.788 64.564 364.702ZM68.554 372.164L69.52 371.716C70.738 373.2 72.166 375.16 72.852 376.42L71.844 376.98C71.62 376.532 71.284 375.986 70.92 375.412C63.57 375.916 62.814 375.958 62.296 376.154C62.24 375.93 62.044 375.356 61.89 375.062C62.254 374.978 62.632 374.558 63.164 373.886C63.71 373.27 65.404 370.848 66.524 368.524L67.644 369.028C66.496 371.142 65.124 373.214 63.752 374.838L70.262 374.446C69.702 373.662 69.1 372.85 68.554 372.164ZM68.274 364.996L69.296 364.604C70.22 366.508 71.998 368.72 73.44 369.882C73.174 370.092 72.782 370.484 72.572 370.764C71.13 369.434 69.352 367.096 68.274 364.996ZM81.77 371.002H77.276V373.606H81.77V371.002ZM82.792 374.53H77.276V375.552H76.254V370.078H82.792V374.53ZM83.744 367.642V368.58H75.372V367.642H83.744ZM86.39 365.192V375.524C86.39 376.238 86.236 376.602 85.76 376.784C85.27 376.966 84.402 376.98 83.156 376.98C83.114 376.672 82.96 376.154 82.792 375.86C83.758 375.888 84.724 375.888 85.004 375.874C85.27 375.86 85.34 375.79 85.34 375.524V366.186H75.274V365.192H86.39ZM98.584 366.298L97.94 367.082C97.366 366.48 96.19 365.57 95.252 364.968L95.896 364.282C96.82 364.842 98.01 365.696 98.584 366.298ZM93.81 373.354L92.998 373.046C93.572 371.954 93.88 370.148 94.034 368.734L94.832 368.916C94.664 370.344 94.356 372.248 93.81 373.354ZM93.32 371.87L92.676 372.71C92.494 372.29 92.088 371.506 91.724 370.848V377.092H90.744V371.282C90.268 372.584 89.666 373.83 89.064 374.642C88.966 374.348 88.7 373.9 88.518 373.648C89.302 372.64 90.17 370.834 90.646 369.252H88.826V368.272H90.744V366.018C90.254 366.13 89.75 366.228 89.288 366.312C89.246 366.074 89.092 365.724 88.98 365.486C90.296 365.234 91.808 364.828 92.69 364.394L93.348 365.234C92.872 365.444 92.312 365.626 91.724 365.794V368.272H93.348V369.252H91.724V369.56C92.088 370.008 93.096 371.492 93.32 371.87ZM101.44 373.256L100.488 373.536C100.32 372.402 99.774 370.694 99.172 369.392C98.458 371.114 97.59 372.654 96.568 373.998V375.37C96.568 375.93 96.652 376.028 97.17 376.028H98.822C99.298 376.028 99.382 375.664 99.438 373.942C99.662 374.138 100.068 374.306 100.334 374.348C100.222 376.35 99.956 376.938 98.906 376.938H97.044C95.882 376.938 95.574 376.602 95.574 375.356V375.174C95.014 375.776 94.412 376.336 93.768 376.826C93.6 376.63 93.166 376.28 92.928 376.112C93.922 375.412 94.79 374.572 95.574 373.634V367.292H96.568V372.276C97.884 370.26 98.85 367.838 99.592 365.15L100.572 365.346C100.18 366.774 99.718 368.118 99.2 369.378L100.082 369.112C100.698 370.428 101.244 372.136 101.44 373.256ZM115.272 366.606L114.628 367.39C114.068 366.844 112.92 365.99 112.024 365.402L112.64 364.716C113.522 365.276 114.684 366.088 115.272 366.606ZM108.916 367.74V370.47H112.15V367.74H108.916ZM113.172 370.47H115.188C115.188 370.47 115.174 370.806 115.146 370.96C114.936 373.746 114.726 374.852 114.32 375.272C114.026 375.566 113.704 375.664 113.228 375.692C112.808 375.72 111.968 375.706 111.1 375.664C111.086 375.356 110.946 374.95 110.764 374.67C111.646 374.754 112.528 374.754 112.864 374.754C113.144 374.754 113.298 374.74 113.452 374.614C113.718 374.376 113.914 373.494 114.082 371.464H108.916V377.064H107.88V371.464H102.896V370.47H107.88V367.74H103.82V366.732H107.88V364.338H108.916V366.732H113.172V370.47Z" fill="#3C525E"/>
<rect y="105" width="176" height="46" rx="2" fill="white" fill-opacity="0.85"/>
<path d="M65.6 124.676V133.692C65.6 134.364 65.446 134.7 64.97 134.868C64.48 135.05 63.612 135.05 62.366 135.05C62.324 134.77 62.17 134.28 62.016 134C62.996 134.042 63.948 134.042 64.242 134.028C64.494 134.014 64.578 133.93 64.578 133.678V125.698H60.518C60.49 126.272 60.42 126.888 60.266 127.518C61.652 128.736 63.36 130.374 64.214 131.41L63.36 132.082C62.646 131.144 61.246 129.716 59.958 128.512C59.44 129.856 58.432 131.158 56.556 132.264C56.402 132.04 56.052 131.662 55.814 131.48C58.894 129.842 59.398 127.532 59.482 125.698H55.45V135.092H54.428V124.676H59.496V122.282H60.532V124.676H65.6ZM74.728 123.934V124.886H68.176V123.934H71.074C70.92 123.472 70.696 122.926 70.5 122.492L71.41 122.226C71.704 122.772 71.984 123.458 72.152 123.934H74.728ZM70.836 127.378L69.898 127.63C69.772 126.986 69.408 125.992 69.03 125.236L69.912 125.012C70.332 125.74 70.71 126.72 70.836 127.378ZM73.37 130.85H69.548V133.384H73.37V130.85ZM68.568 134.98V129.912H74.392V134.868H73.37V134.308H69.548V134.98H68.568ZM73.076 124.97L74.112 125.194C73.79 126.006 73.412 126.958 73.062 127.686H75.036V128.638H67.77V127.686H72.054C72.432 126.902 72.852 125.754 73.076 124.97ZM79.516 122.982L80.23 123.458C79.726 124.732 79.082 126.328 78.494 127.616C79.74 128.932 80.048 130.01 80.048 130.99C80.048 131.788 79.866 132.474 79.418 132.768C79.18 132.936 78.872 133.034 78.55 133.062C78.2 133.104 77.752 133.104 77.36 133.09C77.346 132.81 77.248 132.39 77.08 132.096C77.486 132.138 77.878 132.138 78.158 132.124C78.368 132.11 78.564 132.068 78.718 131.984C78.998 131.802 79.096 131.368 79.082 130.892C79.082 130.01 78.732 129.002 77.486 127.728C78.004 126.552 78.55 125.068 78.928 123.99H76.702V135.05H75.764V123.038H79.348L79.516 122.982ZM91.906 127.504H88.518V129.03H91.906V127.504ZM88.518 131.508H91.906V129.912H88.518V131.508ZM84.066 131.508H87.454V129.912H84.066V131.508ZM87.454 127.504H84.066V129.03H87.454V127.504ZM88.518 125.236V126.58H92.928V133.16H91.906V132.432H88.518V135.05H87.454V132.432H84.066V133.216H83.072V126.58H87.454V125.236H88.518ZM88.616 123.78H93.782V126.062H92.718V124.788H83.24V126.062H82.218V123.78H87.65C87.482 123.388 87.244 122.87 87.02 122.492L88.07 122.184C88.35 122.674 88.686 123.318 88.84 123.71L88.616 123.78ZM99.858 124.62L99.158 125.39C98.696 124.788 97.73 123.85 96.96 123.206L97.632 122.534C98.402 123.15 99.382 124.046 99.858 124.62ZM98.948 132.6L100.656 131.452C100.726 131.718 100.908 132.152 100.992 132.362C98.388 134.21 97.996 134.518 97.772 134.812C97.674 134.532 97.408 134.084 97.226 133.86C97.492 133.678 97.898 133.286 97.898 132.698V127.686H95.7V126.664H98.948V132.6ZM108.384 126.916V127.966H104.842V135.078H103.764V127.966H100.208V126.916H103.764V122.338H104.842V126.916H108.384ZM112.766 123.822V125.404H119.276V123.822H112.766ZM111.702 122.912H120.382V126.328H111.702V122.912ZM115.384 129.408H116.476V130.71C116.476 132.166 115.846 133.958 110.666 135.12C110.54 134.896 110.218 134.476 109.98 134.266C114.992 133.272 115.384 131.788 115.384 130.682V129.408ZM116.392 133.048L116.91 132.292C118.562 132.838 120.844 133.664 122.062 134.252L121.516 135.12C120.368 134.532 118.1 133.636 116.392 133.048ZM111.212 127.546H120.942V132.572H119.836V128.526H112.262V132.67H111.212V127.546Z" fill="#3C525E"/>
<rect x="460" y="337" width="192" height="46" rx="2" fill="white" fill-opacity="0.85"/>
<path d="M498.977 360.54V358.09H492.425V360.54H498.977ZM500.111 357.11V361.52H491.333V357.11H493.741C493.489 356.466 492.901 355.486 492.327 354.758L493.209 354.352C493.811 355.066 494.441 356.032 494.693 356.69L493.839 357.11H496.709C497.269 356.284 497.899 355.164 498.235 354.31L499.299 354.744C498.851 355.528 498.333 356.396 497.857 357.11H500.111ZM494.469 362.234L495.197 361.646C496.121 362.262 497.213 363.2 497.717 363.844L496.961 364.516C496.443 363.83 495.379 362.85 494.469 362.234ZM490.297 366.294L489.345 365.832C489.933 365.132 490.409 363.9 490.661 362.836L491.627 363.032C491.389 364.152 490.927 365.454 490.297 366.294ZM494.777 365.972H497.759C498.445 365.972 498.557 365.776 498.641 364.558C498.879 364.712 499.313 364.88 499.621 364.936C499.467 366.518 499.131 366.91 497.843 366.91H494.721C493.069 366.91 492.663 366.616 492.663 365.482V362.612H493.727V365.482C493.727 365.902 493.895 365.972 494.777 365.972ZM499.271 362.99L500.069 362.528C500.895 363.466 501.735 364.712 502.043 365.58L501.203 366.098C500.895 365.23 500.069 363.942 499.271 362.99ZM516.169 359.994L515.581 360.848C514.783 360.316 513.271 359.532 511.969 358.958C510.835 359.756 509.575 360.4 508.343 360.862C508.203 360.61 507.909 360.218 507.713 360.008C509.897 359.266 512.263 357.796 513.537 355.99H508.623V355.024H514.209L514.391 354.982L515.133 355.388C514.587 356.508 513.761 357.488 512.795 358.314C514.013 358.832 515.399 359.518 516.169 359.994ZM505.235 361.982L508.007 361.492C507.979 361.772 507.979 362.192 507.993 362.416C504.437 363.13 503.947 363.256 503.639 363.424C503.597 363.214 503.429 362.71 503.303 362.444C503.625 362.374 503.961 362.024 504.395 361.534C504.675 361.254 505.263 360.554 505.893 359.672C504.115 359.91 503.765 359.98 503.555 360.092C503.499 359.868 503.331 359.364 503.205 359.084C503.471 359.028 503.723 358.706 504.031 358.23C504.353 357.768 505.417 355.976 506.005 354.282L506.999 354.744C506.341 356.214 505.501 357.726 504.647 358.916L506.565 358.706C506.887 358.23 507.195 357.712 507.475 357.208L508.385 357.782C507.433 359.294 506.355 360.778 505.235 361.982ZM507.965 364.096L508.077 364.992C506.453 365.426 504.773 365.86 503.513 366.196L503.303 365.16C504.465 364.922 506.243 364.502 507.965 364.096ZM512.529 362.318V365.706H516.099V366.686H507.895V365.706H511.507V362.318H508.749V361.352H515.441V362.318H512.529ZM521.629 363.186L521.811 364.18C520.313 364.684 518.717 365.23 517.471 365.636L517.233 364.586C517.751 364.432 518.395 364.236 519.109 363.998V360.218H517.527V359.252H519.109V356.214H517.373V355.234H521.713V356.214H520.103V359.252H521.503V360.218H520.103V363.69L521.629 363.186ZM523.351 358.468V360.246H525.479V358.468H523.351ZM523.351 355.836V357.6H525.479V355.836H523.351ZM528.517 357.6V355.836H526.375V357.6H528.517ZM528.517 360.246V358.468H526.375V360.246H528.517ZM526.459 365.664H530.169V366.616H521.153V365.664H525.409V363.746H522.231V362.794H525.409V361.156H522.399V354.926H529.511V361.156H526.459V362.794H529.721V363.746H526.459V365.664ZM534.971 368.044L534.173 368.856C533.137 367.96 532.381 366.938 531.905 365.79C531.429 364.642 531.191 363.508 531.191 362.374C531.191 360.134 532.073 357.768 534.187 355.878L534.957 356.69C533.249 358.286 532.395 360.176 532.395 362.374C532.395 364.46 533.347 366.476 534.971 368.044ZM540.058 363.186L540.24 364.18C538.742 364.684 537.146 365.23 535.9 365.636L535.662 364.586C536.18 364.432 536.824 364.236 537.538 363.998V360.218H535.956V359.252H537.538V356.214H535.802V355.234H540.142V356.214H538.532V359.252H539.932V360.218H538.532V363.69L540.058 363.186ZM541.78 358.468V360.246H543.908V358.468H541.78ZM541.78 355.836V357.6H543.908V355.836H541.78ZM546.946 357.6V355.836H544.804V357.6H546.946ZM546.946 360.246V358.468H544.804V360.246H546.946ZM544.888 365.664H548.598V366.616H539.582V365.664H543.838V363.746H540.66V362.794H543.838V361.156H540.828V354.926H547.94V361.156H544.888V362.794H548.15V363.746H544.888V365.664ZM559.952 364.152V363.102H556.592V364.152H559.952ZM556.592 361.296V362.276H559.952V361.296H556.592ZM552.546 358.818H555.556V357.81H552.546V358.818ZM559.728 357.81H556.592V358.818H559.728V357.81ZM562.43 362.276V363.102H560.988V365.58H559.952V364.95H556.592V365.916C556.592 366.56 556.396 366.798 555.976 366.952C555.542 367.106 554.814 367.12 553.652 367.12C553.596 366.854 553.428 366.476 553.288 366.238C554.128 366.266 554.968 366.252 555.206 366.252C555.472 366.238 555.556 366.154 555.556 365.916V364.95H551.034V364.152H555.556V363.102H549.83V362.276H555.556V361.296H551.16V360.526H555.556V359.546H551.552V357.082H555.556V356.27H550.096V355.416H555.556V354.296H556.592V355.416H562.164V356.27H556.592V357.082H560.764V359.546H556.592V360.526H560.988V362.276H562.43ZM564.418 362.29V361.282H575.912V362.29H569.808C568.94 363.438 567.96 364.558 566.952 365.468L573.308 364.992C572.804 364.404 572.216 363.802 571.684 363.312L572.566 362.836C573.812 363.956 575.128 365.44 575.744 366.49L574.82 367.064C574.624 366.728 574.344 366.322 574.036 365.902C566.658 366.518 565.874 366.574 565.356 366.77C565.286 366.546 565.118 366 565.006 365.692C565.3 365.636 565.622 365.37 566.042 364.964C566.434 364.642 567.484 363.536 568.394 362.29H564.418ZM570.172 354.296L571.166 354.73C571.026 354.912 570.886 355.108 570.76 355.29C572.034 356.592 574.302 358.132 576.556 358.902C576.318 359.112 575.996 359.532 575.828 359.826C573.658 358.944 571.474 357.348 570.158 355.99C569.29 356.942 568.212 357.838 567.008 358.608H573.476V359.574H566.826V358.72C566.098 359.182 565.328 359.602 564.516 359.966C564.362 359.7 563.998 359.28 563.76 359.07C566.476 357.922 568.926 356.172 570.172 354.296ZM584.662 365.594H590.332V366.616H577.956V365.594H583.556V362.15H579.244V361.156H583.556V358.09H578.6V357.068H584.746C584.2 356.424 583.206 355.542 582.366 354.926L583.206 354.338C584.102 354.982 585.222 355.934 585.768 356.592L585.11 357.068H589.632V358.09H584.662V361.156H589.058V362.15H584.662V365.594ZM601 360.54V359.168H597.388V360.54H601ZM602.008 357.054V358.3H604.276V359.168H602.008V361.394H599.74V362.486H603.52V365.37C603.52 365.888 603.422 366.154 603.016 366.308C602.624 366.462 601.994 366.462 600.986 366.462C600.944 366.182 600.804 365.832 600.692 365.552C601.448 365.58 602.078 365.58 602.26 365.566C602.442 365.566 602.498 365.524 602.498 365.356V363.396H599.74V367.106H598.718V363.396H596.072V366.49H595.05V362.486H598.718V361.394H596.408V359.168H594.294V358.3H596.408V357.054H597.388V358.3H601V357.054H602.008ZM599.432 355.696H604.402V356.648H593.832V359.7C593.832 361.856 593.664 365.02 592.46 367.134C592.278 366.938 591.83 366.658 591.606 366.546C592.74 364.544 592.838 361.716 592.838 359.7V355.696H598.27C598.102 355.304 597.878 354.842 597.668 354.478L598.662 354.184C598.942 354.66 599.25 355.234 599.432 355.696ZM613.583 360.68C613.583 363.41 612.477 365.636 610.797 367.344L609.957 366.91C611.567 365.244 612.561 363.172 612.561 360.68C612.561 358.188 611.567 356.116 609.957 354.45L610.797 354.016C612.477 355.724 613.583 357.95 613.583 360.68Z" fill="#3C525E"/>
<rect x="460" y="508" width="192" height="46" rx="2" fill="white" fill-opacity="0.85"/>
<path d="M539.942 534.186L540.124 535.18C538.626 535.684 537.03 536.23 535.784 536.636L535.546 535.586C536.064 535.432 536.708 535.236 537.422 534.998V531.218H535.84V530.252H537.422V527.214H535.686V526.234H540.026V527.214H538.416V530.252H539.816V531.218H538.416V534.69L539.942 534.186ZM541.664 529.468V531.246H543.792V529.468H541.664ZM541.664 526.836V528.6H543.792V526.836H541.664ZM546.83 528.6V526.836H544.688V528.6H546.83ZM546.83 531.246V529.468H544.688V531.246H546.83ZM544.772 536.664H548.482V537.616H539.466V536.664H543.722V534.746H540.544V533.794H543.722V532.156H540.712V525.926H547.824V532.156H544.772V533.794H548.034V534.746H544.772V536.664ZM559.836 535.152V534.102H556.476V535.152H559.836ZM556.476 532.296V533.276H559.836V532.296H556.476ZM552.43 529.818H555.44V528.81H552.43V529.818ZM559.612 528.81H556.476V529.818H559.612V528.81ZM562.314 533.276V534.102H560.872V536.58H559.836V535.95H556.476V536.916C556.476 537.56 556.28 537.798 555.86 537.952C555.426 538.106 554.698 538.12 553.536 538.12C553.48 537.854 553.312 537.476 553.172 537.238C554.012 537.266 554.852 537.252 555.09 537.252C555.356 537.238 555.44 537.154 555.44 536.916V535.95H550.918V535.152H555.44V534.102H549.714V533.276H555.44V532.296H551.044V531.526H555.44V530.546H551.436V528.082H555.44V527.27H549.98V526.416H555.44V525.296H556.476V526.416H562.048V527.27H556.476V528.082H560.648V530.546H556.476V531.526H560.872V533.276H562.314ZM564.302 533.29V532.282H575.796V533.29H569.692C568.824 534.438 567.844 535.558 566.836 536.468L573.192 535.992C572.688 535.404 572.1 534.802 571.568 534.312L572.45 533.836C573.696 534.956 575.012 536.44 575.628 537.49L574.704 538.064C574.508 537.728 574.228 537.322 573.92 536.902C566.542 537.518 565.758 537.574 565.24 537.77C565.17 537.546 565.002 537 564.89 536.692C565.184 536.636 565.506 536.37 565.926 535.964C566.318 535.642 567.368 534.536 568.278 533.29H564.302ZM570.056 525.296L571.05 525.73C570.91 525.912 570.77 526.108 570.644 526.29C571.918 527.592 574.186 529.132 576.44 529.902C576.202 530.112 575.88 530.532 575.712 530.826C573.542 529.944 571.358 528.348 570.042 526.99C569.174 527.942 568.096 528.838 566.892 529.608H573.36V530.574H566.71V529.72C565.982 530.182 565.212 530.602 564.4 530.966C564.246 530.7 563.882 530.28 563.644 530.07C566.36 528.922 568.81 527.172 570.056 525.296Z" fill="#3C525E"/>
<rect x="866" y="508" width="176" height="46" rx="2" fill="white" fill-opacity="0.85"/>
<path d="M928.254 533.766H924.39C924.068 534.186 923.746 534.606 923.424 534.942C924.46 535.166 925.496 535.39 926.49 535.628C927.26 535.152 927.834 534.536 928.254 533.766ZM926.49 531.82H925.692C925.496 532.156 925.272 532.506 925.048 532.856H932.314V533.766H929.402C929.01 534.648 928.45 535.362 927.736 535.95C929.444 536.384 930.984 536.832 932.16 537.252L931.208 538.008C930.06 537.574 928.506 537.07 926.714 536.608C925.16 537.434 923.06 537.868 920.316 538.092C920.246 537.784 920.078 537.406 919.896 537.154C922.122 537.028 923.872 536.762 925.244 536.23C924.124 535.964 922.934 535.698 921.702 535.46C922.164 534.984 922.668 534.396 923.144 533.766H919.7V532.856H923.816C924.166 532.366 924.474 531.862 924.726 531.386L925.468 531.582V529.09C924.166 530.476 922.066 531.666 920.204 532.254C920.05 532.016 919.756 531.638 919.56 531.442C921.198 530.994 923.018 530.084 924.25 529.048H919.854V528.152H925.468V526.752C923.984 526.864 922.444 526.934 921.044 526.976C921.03 526.738 920.918 526.374 920.82 526.15C924.012 526.066 927.918 525.786 929.976 525.31L930.746 526.052C929.57 526.318 928.086 526.528 926.49 526.668V528.152H932.146V529.048H927.75C928.968 530.028 930.788 530.882 932.426 531.288C932.216 531.512 931.908 531.904 931.768 532.156C929.892 531.596 927.806 530.434 926.49 529.09V531.82ZM936.766 526.822V528.404H943.276V526.822H936.766ZM935.702 525.912H944.382V529.328H935.702V525.912ZM939.384 532.408H940.476V533.71C940.476 535.166 939.846 536.958 934.666 538.12C934.54 537.896 934.218 537.476 933.98 537.266C938.992 536.272 939.384 534.788 939.384 533.682V532.408ZM940.392 536.048L940.91 535.292C942.562 535.838 944.844 536.664 946.062 537.252L945.516 538.12C944.368 537.532 942.1 536.636 940.392 536.048ZM935.212 530.546H944.942V535.572H943.836V531.526H936.262V535.67H935.212V530.546ZM948.302 533.29V532.282H959.796V533.29H953.692C952.824 534.438 951.844 535.558 950.836 536.468L957.192 535.992C956.688 535.404 956.1 534.802 955.568 534.312L956.45 533.836C957.696 534.956 959.012 536.44 959.628 537.49L958.704 538.064C958.508 537.728 958.228 537.322 957.92 536.902C950.542 537.518 949.758 537.574 949.24 537.77C949.17 537.546 949.002 537 948.89 536.692C949.184 536.636 949.506 536.37 949.926 535.964C950.318 535.642 951.368 534.536 952.278 533.29H948.302ZM954.056 525.296L955.05 525.73C954.91 525.912 954.77 526.108 954.644 526.29C955.918 527.592 958.186 529.132 960.44 529.902C960.202 530.112 959.88 530.532 959.712 530.826C957.542 529.944 955.358 528.348 954.042 526.99C953.174 527.942 952.096 528.838 950.892 529.608H957.36V530.574H950.71V529.72C949.982 530.182 949.212 530.602 948.4 530.966C948.246 530.7 947.882 530.28 947.644 530.07C950.36 528.922 952.81 527.172 954.056 525.296ZM971.584 527.298L970.94 528.082C970.366 527.48 969.19 526.57 968.252 525.968L968.896 525.282C969.82 525.842 971.01 526.696 971.584 527.298ZM966.81 534.354L965.998 534.046C966.572 532.954 966.88 531.148 967.034 529.734L967.832 529.916C967.664 531.344 967.356 533.248 966.81 534.354ZM966.32 532.87L965.676 533.71C965.494 533.29 965.088 532.506 964.724 531.848V538.092H963.744V532.282C963.268 533.584 962.666 534.83 962.064 535.642C961.966 535.348 961.7 534.9 961.518 534.648C962.302 533.64 963.17 531.834 963.646 530.252H961.826V529.272H963.744V527.018C963.254 527.13 962.75 527.228 962.288 527.312C962.246 527.074 962.092 526.724 961.98 526.486C963.296 526.234 964.808 525.828 965.69 525.394L966.348 526.234C965.872 526.444 965.312 526.626 964.724 526.794V529.272H966.348V530.252H964.724V530.56C965.088 531.008 966.096 532.492 966.32 532.87ZM974.44 534.256L973.488 534.536C973.32 533.402 972.774 531.694 972.172 530.392C971.458 532.114 970.59 533.654 969.568 534.998V536.37C969.568 536.93 969.652 537.028 970.17 537.028H971.822C972.298 537.028 972.382 536.664 972.438 534.942C972.662 535.138 973.068 535.306 973.334 535.348C973.222 537.35 972.956 537.938 971.906 537.938H970.044C968.882 537.938 968.574 537.602 968.574 536.356V536.174C968.014 536.776 967.412 537.336 966.768 537.826C966.6 537.63 966.166 537.28 965.928 537.112C966.922 536.412 967.79 535.572 968.574 534.634V528.292H969.568V533.276C970.884 531.26 971.85 528.838 972.592 526.15L973.572 526.346C973.18 527.774 972.718 529.118 972.2 530.378L973.082 530.112C973.698 531.428 974.244 533.136 974.44 534.256ZM988.272 527.606L987.628 528.39C987.068 527.844 985.92 526.99 985.024 526.402L985.64 525.716C986.522 526.276 987.684 527.088 988.272 527.606ZM981.916 528.74V531.47H985.15V528.74H981.916ZM986.172 531.47H988.188C988.188 531.47 988.174 531.806 988.146 531.96C987.936 534.746 987.726 535.852 987.32 536.272C987.026 536.566 986.704 536.664 986.228 536.692C985.808 536.72 984.968 536.706 984.1 536.664C984.086 536.356 983.946 535.95 983.764 535.67C984.646 535.754 985.528 535.754 985.864 535.754C986.144 535.754 986.298 535.74 986.452 535.614C986.718 535.376 986.914 534.494 987.082 532.464H981.916V538.064H980.88V532.464H975.896V531.47H980.88V528.74H976.82V527.732H980.88V525.338H981.916V527.732H986.172V531.47Z" fill="#3C525E"/>
<rect x="866" y="200" width="176" height="68" rx="2" fill="white" fill-opacity="0.85"/>
<path d="M883.412 217.338H884.56C884.546 217.842 884.532 218.542 884.462 219.368C884.672 221.034 885.512 226.886 890.454 229.084C890.16 229.322 889.852 229.672 889.698 229.966C886.198 228.328 884.7 224.87 884.028 222.266C883.384 225.066 881.9 228.202 878.484 230.022C878.302 229.742 877.966 229.42 877.644 229.21C883.454 226.27 883.37 219.466 883.412 217.338ZM897.832 220.334H903.656C903.656 220.334 903.642 220.726 903.628 220.88C903.32 226.62 903.026 228.706 902.41 229.406C902.088 229.798 901.752 229.91 901.22 229.966C900.73 230.008 899.834 229.98 898.98 229.924C898.966 229.616 898.84 229.168 898.63 228.86C899.582 228.944 900.478 228.958 900.828 228.958C901.122 228.958 901.304 228.916 901.472 228.748C901.976 228.272 902.284 226.298 902.55 221.37H897.776C897.58 224.268 896.656 227.656 892.596 230.134C892.428 229.882 892.05 229.476 891.798 229.308C895.592 227.054 896.488 223.988 896.698 221.37H892.218V220.334H896.754C896.754 220.124 896.754 219.928 896.754 219.732V217.31H897.832V219.732C897.832 219.928 897.832 220.124 897.832 220.334ZM909.69 219.214L909.144 220.026C908.514 219.536 907.24 218.892 906.232 218.514L906.75 217.786C907.758 218.136 909.046 218.738 909.69 219.214ZM909.774 220.838L909.928 221.748C908.584 222.196 907.156 222.672 906.036 223.036L905.742 222.07C906.75 221.79 908.262 221.314 909.774 220.838ZM916.564 227.586H915.514V224.758H908.612V227.684H907.59V223.806H916.564V227.586ZM911.636 225.164H912.644C912.182 227.95 910.894 229.448 906.204 230.106C906.134 229.868 905.91 229.462 905.742 229.252C910.166 228.706 911.216 227.474 911.636 225.164ZM912.224 227.922L912.798 227.166C914.506 227.698 916.83 228.552 918.048 229.168L917.432 230.022C916.27 229.406 913.96 228.496 912.224 227.922ZM916.536 219.396H914.464C914.394 219.648 914.31 219.872 914.226 220.11C914.996 221.314 916.494 222.252 918.244 222.63C918.02 222.812 917.754 223.19 917.614 223.442C916.06 223.008 914.702 222.112 913.82 220.922C913.162 222.056 912.07 222.966 910.138 223.54C910.04 223.316 909.774 222.966 909.578 222.784C912.056 222.112 913.008 220.838 913.414 219.396H911.762C911.37 219.956 910.894 220.502 910.306 220.992C910.138 220.754 909.802 220.474 909.578 220.348C910.698 219.48 911.426 218.304 911.776 217.338L912.77 217.478C912.63 217.842 912.462 218.206 912.266 218.57H916.998L917.166 218.528L917.922 218.738C917.572 219.508 917.138 220.348 916.802 220.894L915.892 220.628C916.102 220.306 916.312 219.844 916.536 219.396ZM923.2 218.934L922.584 219.76C922.052 219.34 921.016 218.654 920.26 218.164L920.862 217.45C921.618 217.884 922.668 218.528 923.2 218.934ZM922.542 222.574L921.926 223.414C921.394 223.008 920.358 222.35 919.574 221.916L920.176 221.188C920.932 221.608 921.996 222.196 922.542 222.574ZM921.996 224.814L922.808 225.388C922.234 226.858 921.45 228.58 920.792 229.868L919.868 229.294C920.484 228.216 921.352 226.382 921.996 224.814ZM924.768 218.92V221.79C924.768 224.226 924.53 227.684 922.878 230.022C922.71 229.84 922.262 229.574 922.024 229.476C923.606 227.236 923.746 224.086 923.746 221.79V217.968H932.258V218.92H924.768ZM926.056 226.116L926.994 226.368C926.532 227.39 925.832 228.51 925.23 229.238C925.034 229.084 924.642 228.846 924.39 228.706C925.034 228.034 925.65 227.04 926.056 226.116ZM926.504 223.302V224.534H930.76V223.302H926.504ZM926.504 221.328V222.546H930.76V221.328H926.504ZM931.726 225.332H929.066V228.986C929.066 229.504 928.982 229.77 928.59 229.924C928.212 230.078 927.624 230.078 926.686 230.064C926.644 229.798 926.518 229.434 926.392 229.168C927.064 229.196 927.68 229.182 927.834 229.182C928.016 229.168 928.072 229.126 928.072 228.972V225.332H925.566V220.53H927.68C927.834 220.082 928.002 219.508 928.086 219.116L929.248 219.354C929.052 219.76 928.856 220.166 928.674 220.53H931.726V225.332ZM930.004 226.354L930.9 226.004C931.446 226.858 932.146 228.006 932.496 228.678L931.544 229.098C931.236 228.398 930.55 227.236 930.004 226.354ZM936.822 229.784C935.926 228.678 934.722 227.474 933.728 226.662L934.638 225.864C935.646 226.676 936.906 227.95 937.774 228.972L936.822 229.784ZM951.13 220.18V219.256H947.854V218.332H951.13V217.296H952.152V218.332H955.792V217.296H956.814V218.332H960.188V219.256H956.814V220.18H955.792V219.256H952.152V220.18H951.13ZM949.086 226.578L949.87 226.774C949.52 227.656 948.946 228.552 948.372 229.14C948.232 229.028 947.924 228.776 947.728 228.678C948.288 228.118 948.792 227.334 949.086 226.578ZM953.972 226.298H951.508V228.888C951.508 229.364 951.424 229.602 951.102 229.742C950.808 229.882 950.332 229.896 949.674 229.896C949.632 229.644 949.52 229.294 949.38 229.042C949.856 229.07 950.262 229.07 950.402 229.056C950.542 229.056 950.584 229.014 950.584 228.888V226.298H947.966V225.472H950.584V224.436H947.77V223.624H949.338C949.282 223.19 949.1 222.588 948.89 222.14L949.702 221.944C949.968 222.434 950.178 223.106 950.234 223.54L949.912 223.624H951.536C951.802 223.106 952.096 222.392 952.25 221.888H947.994V221.076H950.514C950.36 220.726 950.192 220.362 950.01 220.054L950.892 219.83C951.116 220.194 951.382 220.67 951.55 221.076H953.93V221.888H952.362L953.174 222.126C952.95 222.63 952.684 223.176 952.46 223.624H954.112V224.436H951.508V225.472H953.972V226.298ZM952.096 226.858L952.754 226.536C953.132 227.096 953.538 227.852 953.734 228.328L953.034 228.72C952.852 228.216 952.46 227.432 952.096 226.858ZM960.356 223.722V224.632H958.55V230.05H957.556V224.632H955.722V224.842C955.722 226.508 955.484 228.692 954.042 230.12C953.902 229.91 953.538 229.546 953.342 229.434C954.63 228.118 954.77 226.312 954.77 224.842V221.202C956.338 220.936 958.116 220.53 959.124 220.124L959.936 220.838C958.802 221.272 957.192 221.622 955.722 221.86V223.722H960.356ZM965.858 223.848V221.412H965.144V223.652C965.144 223.82 965.172 223.848 965.312 223.848H965.732C965.788 223.848 965.83 223.848 965.858 223.848ZM962.666 228.202H965.858V226.76H962.666V228.202ZM963.338 221.412H962.666V224.758C963.24 224.072 963.338 223.246 963.338 222.574V221.412ZM963.912 218.766V220.544H964.556V218.766H963.912ZM965.844 224.45H965.27C964.724 224.45 964.556 224.324 964.556 223.666V221.412H963.912V222.574C963.912 223.4 963.744 224.492 963.002 225.276C962.932 225.192 962.792 225.052 962.666 224.968V225.976H965.858V224.45H965.844ZM965.284 218.766V220.544H966.642V229.812H965.858V229.028H962.666V230.008H961.896V220.544H963.212V218.766H961.644V217.912H966.852V218.766H965.284ZM967.538 221.23L968.182 221.412C968.098 222.686 967.916 224.212 967.37 225.136L966.796 224.66C967.272 223.862 967.468 222.448 967.538 221.23ZM968.392 223.134V217.576H969.26V223.134C969.26 225.766 969.078 228.188 967.608 230.12C967.426 229.938 967.09 229.672 966.852 229.546C968.224 227.796 968.392 225.556 968.392 223.134ZM969.288 221.636L969.918 221.37C970.268 222.364 970.548 223.624 970.632 224.478L969.946 224.758C969.876 223.904 969.61 222.616 969.288 221.636ZM972.984 217.534L973.88 217.548V230.064H972.984V224.45L972.396 224.702C972.27 223.918 971.892 222.728 971.5 221.776V229.784H970.646V217.786H971.5V221.496L972.046 221.244C972.424 222.056 972.774 223.078 972.984 223.876V217.534ZM979.508 218.878V221.398H981.944V222.364H979.508V222.728C980.04 223.288 981.496 224.996 981.846 225.43L981.216 226.284C980.894 225.752 980.11 224.702 979.508 223.918V230.036H978.486V223.876C977.8 225.5 976.89 227.082 975.994 228.048C975.868 227.768 975.602 227.348 975.406 227.096C976.47 226.032 977.59 224.114 978.22 222.364H975.756V221.398H978.486V219.074C977.702 219.2 976.918 219.312 976.176 219.41C976.12 219.158 976.008 218.822 975.882 218.584C977.73 218.332 979.914 217.912 981.146 217.422L981.846 218.234C981.202 218.472 980.376 218.696 979.508 218.878ZM983.442 227.292H986.564V219.578H983.442V227.292ZM982.42 218.584H987.6V229.35H986.564V228.3H983.442V229.448H982.42V218.584ZM993.564 217.702L994.67 218.01C993.732 220.278 992.248 222.392 990.736 223.764C990.512 223.554 990.036 223.19 989.77 223.022C991.338 221.79 992.738 219.788 993.564 217.702ZM997.554 225.164L998.52 224.716C999.738 226.2 1001.17 228.16 1001.85 229.42L1000.84 229.98C1000.62 229.532 1000.28 228.986 999.92 228.412C992.57 228.916 991.814 228.958 991.296 229.154C991.24 228.93 991.044 228.356 990.89 228.062C991.254 227.978 991.632 227.558 992.164 226.886C992.71 226.27 994.404 223.848 995.524 221.524L996.644 222.028C995.496 224.142 994.124 226.214 992.752 227.838L999.262 227.446C998.702 226.662 998.1 225.85 997.554 225.164ZM997.274 217.996L998.296 217.604C999.22 219.508 1001 221.72 1002.44 222.882C1002.17 223.092 1001.78 223.484 1001.57 223.764C1000.13 222.434 998.352 220.096 997.274 217.996ZM1010.77 224.002H1006.28V226.606H1010.77V224.002ZM1011.79 227.53H1006.28V228.552H1005.25V223.078H1011.79V227.53ZM1012.74 220.642V221.58H1004.37V220.642H1012.74ZM1015.39 218.192V228.524C1015.39 229.238 1015.24 229.602 1014.76 229.784C1014.27 229.966 1013.4 229.98 1012.16 229.98C1012.11 229.672 1011.96 229.154 1011.79 228.86C1012.76 228.888 1013.72 228.888 1014 228.874C1014.27 228.86 1014.34 228.79 1014.34 228.524V219.186H1004.27V218.192H1015.39ZM1021.7 218.906L1021.1 219.774C1020.51 219.34 1019.35 218.668 1018.47 218.206L1019.06 217.464C1019.91 217.87 1021.1 218.5 1021.7 218.906ZM1020.77 222.686L1020.19 223.526C1019.63 223.134 1018.47 222.462 1017.63 222.028L1018.19 221.272C1019.03 221.65 1020.18 222.28 1020.77 222.686ZM1018.85 229.882L1017.97 229.182C1018.72 228.132 1019.8 226.298 1020.61 224.716L1021.37 225.402C1020.63 226.872 1019.66 228.594 1018.85 229.882ZM1028.2 225.458H1023.19V228.51H1028.2V225.458ZM1022.18 230.092V224.492H1029.24V230.05H1028.2V229.476H1023.19V230.092H1022.18ZM1026.41 219.55L1027.28 219.102C1028.42 220.32 1029.64 221.986 1030.2 223.078L1029.28 223.61C1029.15 223.358 1028.98 223.05 1028.79 222.742C1022.75 223.148 1022.1 223.19 1021.66 223.358C1021.62 223.148 1021.44 222.644 1021.31 222.364C1021.61 222.308 1021.9 221.972 1022.28 221.454C1022.68 220.964 1023.96 219.088 1024.76 217.282L1025.83 217.59C1024.98 219.228 1023.97 220.852 1022.98 222.112L1028.17 221.818C1027.64 221.034 1027 220.222 1026.41 219.55ZM930.942 248.186L931.124 249.18C929.626 249.684 928.03 250.23 926.784 250.636L926.546 249.586C927.064 249.432 927.708 249.236 928.422 248.998V245.218H926.84V244.252H928.422V241.214H926.686V240.234H931.026V241.214H929.416V244.252H930.816V245.218H929.416V248.69L930.942 248.186ZM932.664 243.468V245.246H934.792V243.468H932.664ZM932.664 240.836V242.6H934.792V240.836H932.664ZM937.83 242.6V240.836H935.688V242.6H937.83ZM937.83 245.246V243.468H935.688V245.246H937.83ZM935.772 250.664H939.482V251.616H930.466V250.664H934.722V248.746H931.544V247.794H934.722V246.156H931.712V239.926H938.824V246.156H935.772V247.794H939.034V248.746H935.772V250.664ZM949.254 247.766H945.39C945.068 248.186 944.746 248.606 944.424 248.942C945.46 249.166 946.496 249.39 947.49 249.628C948.26 249.152 948.834 248.536 949.254 247.766ZM947.49 245.82H946.692C946.496 246.156 946.272 246.506 946.048 246.856H953.314V247.766H950.402C950.01 248.648 949.45 249.362 948.736 249.95C950.444 250.384 951.984 250.832 953.16 251.252L952.208 252.008C951.06 251.574 949.506 251.07 947.714 250.608C946.16 251.434 944.06 251.868 941.316 252.092C941.246 251.784 941.078 251.406 940.896 251.154C943.122 251.028 944.872 250.762 946.244 250.23C945.124 249.964 943.934 249.698 942.702 249.46C943.164 248.984 943.668 248.396 944.144 247.766H940.7V246.856H944.816C945.166 246.366 945.474 245.862 945.726 245.386L946.468 245.582V243.09C945.166 244.476 943.066 245.666 941.204 246.254C941.05 246.016 940.756 245.638 940.56 245.442C942.198 244.994 944.018 244.084 945.25 243.048H940.854V242.152H946.468V240.752C944.984 240.864 943.444 240.934 942.044 240.976C942.03 240.738 941.918 240.374 941.82 240.15C945.012 240.066 948.918 239.786 950.976 239.31L951.746 240.052C950.57 240.318 949.086 240.528 947.49 240.668V242.152H953.146V243.048H948.75C949.968 244.028 951.788 244.882 953.426 245.288C953.216 245.512 952.908 245.904 952.768 246.156C950.892 245.596 948.806 244.434 947.49 243.09V245.82ZM957.766 240.822V242.404H964.276V240.822H957.766ZM956.702 239.912H965.382V243.328H956.702V239.912ZM960.384 246.408H961.476V247.71C961.476 249.166 960.846 250.958 955.666 252.12C955.54 251.896 955.218 251.476 954.98 251.266C959.992 250.272 960.384 248.788 960.384 247.682V246.408ZM961.392 250.048L961.91 249.292C963.562 249.838 965.844 250.664 967.062 251.252L966.516 252.12C965.368 251.532 963.1 250.636 961.392 250.048ZM956.212 244.546H965.942V249.572H964.836V245.526H957.262V249.67H956.212V244.546ZM969.302 247.29V246.282H980.796V247.29H974.692C973.824 248.438 972.844 249.558 971.836 250.468L978.192 249.992C977.688 249.404 977.1 248.802 976.568 248.312L977.45 247.836C978.696 248.956 980.012 250.44 980.628 251.49L979.704 252.064C979.508 251.728 979.228 251.322 978.92 250.902C971.542 251.518 970.758 251.574 970.24 251.77C970.17 251.546 970.002 251 969.89 250.692C970.184 250.636 970.506 250.37 970.926 249.964C971.318 249.642 972.368 248.536 973.278 247.29H969.302ZM975.056 239.296L976.05 239.73C975.91 239.912 975.77 240.108 975.644 240.29C976.918 241.592 979.186 243.132 981.44 243.902C981.202 244.112 980.88 244.532 980.712 244.826C978.542 243.944 976.358 242.348 975.042 240.99C974.174 241.942 973.096 242.838 971.892 243.608H978.36V244.574H971.71V243.72C970.982 244.182 970.212 244.602 969.4 244.966C969.246 244.7 968.882 244.28 968.644 244.07C971.36 242.922 973.81 241.172 975.056 239.296Z" fill="#3C525E"/>
<rect x="866" y="4" width="176" height="46" rx="2" fill="white" fill-opacity="0.85"/>
<path d="M929.906 26.504H926.518V28.03H929.906V26.504ZM926.518 30.508H929.906V28.912H926.518V30.508ZM922.066 30.508H925.454V28.912H922.066V30.508ZM925.454 26.504H922.066V28.03H925.454V26.504ZM926.518 24.236V25.58H930.928V32.16H929.906V31.432H926.518V34.05H925.454V31.432H922.066V32.216H921.072V25.58H925.454V24.236H926.518ZM926.616 22.78H931.782V25.062H930.718V23.788H921.24V25.062H920.218V22.78H925.65C925.482 22.388 925.244 21.87 925.02 21.492L926.07 21.184C926.35 21.674 926.686 22.318 926.84 22.71L926.616 22.78ZM937.858 23.62L937.158 24.39C936.696 23.788 935.73 22.85 934.96 22.206L935.632 21.534C936.402 22.15 937.382 23.046 937.858 23.62ZM936.948 31.6L938.656 30.452C938.726 30.718 938.908 31.152 938.992 31.362C936.388 33.21 935.996 33.518 935.772 33.812C935.674 33.532 935.408 33.084 935.226 32.86C935.492 32.678 935.898 32.286 935.898 31.698V26.686H933.7V25.664H936.948V31.6ZM946.384 25.916V26.966H942.842V34.078H941.764V26.966H938.208V25.916H941.764V21.338H942.842V25.916H946.384ZM956.254 29.766H952.39C952.068 30.186 951.746 30.606 951.424 30.942C952.46 31.166 953.496 31.39 954.49 31.628C955.26 31.152 955.834 30.536 956.254 29.766ZM954.49 27.82H953.692C953.496 28.156 953.272 28.506 953.048 28.856H960.314V29.766H957.402C957.01 30.648 956.45 31.362 955.736 31.95C957.444 32.384 958.984 32.832 960.16 33.252L959.208 34.008C958.06 33.574 956.506 33.07 954.714 32.608C953.16 33.434 951.06 33.868 948.316 34.092C948.246 33.784 948.078 33.406 947.896 33.154C950.122 33.028 951.872 32.762 953.244 32.23C952.124 31.964 950.934 31.698 949.702 31.46C950.164 30.984 950.668 30.396 951.144 29.766H947.7V28.856H951.816C952.166 28.366 952.474 27.862 952.726 27.386L953.468 27.582V25.09C952.166 26.476 950.066 27.666 948.204 28.254C948.05 28.016 947.756 27.638 947.56 27.442C949.198 26.994 951.018 26.084 952.25 25.048H947.854V24.152H953.468V22.752C951.984 22.864 950.444 22.934 949.044 22.976C949.03 22.738 948.918 22.374 948.82 22.15C952.012 22.066 955.918 21.786 957.976 21.31L958.746 22.052C957.57 22.318 956.086 22.528 954.49 22.668V24.152H960.146V25.048H955.75C956.968 26.028 958.788 26.882 960.426 27.288C960.216 27.512 959.908 27.904 959.768 28.156C957.892 27.596 955.806 26.434 954.49 25.09V27.82ZM964.766 22.822V24.404H971.276V22.822H964.766ZM963.702 21.912H972.382V25.328H963.702V21.912ZM967.384 28.408H968.476V29.71C968.476 31.166 967.846 32.958 962.666 34.12C962.54 33.896 962.218 33.476 961.98 33.266C966.992 32.272 967.384 30.788 967.384 29.682V28.408ZM968.392 32.048L968.91 31.292C970.562 31.838 972.844 32.664 974.062 33.252L973.516 34.12C972.368 33.532 970.1 32.636 968.392 32.048ZM963.212 26.546H972.942V31.572H971.836V27.526H964.262V31.67H963.212V26.546ZM976.302 29.29V28.282H987.796V29.29H981.692C980.824 30.438 979.844 31.558 978.836 32.468L985.192 31.992C984.688 31.404 984.1 30.802 983.568 30.312L984.45 29.836C985.696 30.956 987.012 32.44 987.628 33.49L986.704 34.064C986.508 33.728 986.228 33.322 985.92 32.902C978.542 33.518 977.758 33.574 977.24 33.77C977.17 33.546 977.002 33 976.89 32.692C977.184 32.636 977.506 32.37 977.926 31.964C978.318 31.642 979.368 30.536 980.278 29.29H976.302ZM982.056 21.296L983.05 21.73C982.91 21.912 982.77 22.108 982.644 22.29C983.918 23.592 986.186 25.132 988.44 25.902C988.202 26.112 987.88 26.532 987.712 26.826C985.542 25.944 983.358 24.348 982.042 22.99C981.174 23.942 980.096 24.838 978.892 25.608H985.36V26.574H978.71V25.72C977.982 26.182 977.212 26.602 976.4 26.966C976.246 26.7 975.882 26.28 975.644 26.07C978.36 24.922 980.81 23.172 982.056 21.296Z" fill="#3C525E"/>
<path d="M536.19 12.794V13.382C536.19 14.628 535.826 16.126 534.202 17.12C534.062 16.896 533.712 16.504 533.544 16.35C535.014 15.482 535.252 14.348 535.252 13.354V11.814H539.536V15.062C539.536 15.454 539.564 15.58 539.76 15.58H540.572C540.754 15.58 541.006 15.552 541.188 15.51C541.202 15.776 541.244 16.168 541.258 16.406C541.118 16.462 540.838 16.476 540.586 16.476H539.69C538.78 16.476 538.584 16.084 538.584 15.034V12.794H536.19ZM530.45 18.408H532.48V16.028H530.478V16.798C530.478 17.288 530.478 17.834 530.45 18.408ZM532.48 12.752H530.478V15.076H532.48V12.752ZM533.418 11.8V22.748C533.418 23.28 533.306 23.588 532.97 23.77C532.634 23.938 532.116 23.952 531.22 23.952C531.178 23.7 531.066 23.252 530.94 22.986C531.542 23 532.074 23 532.242 23C532.41 22.986 532.48 22.916 532.48 22.734V19.374H530.394C530.282 21.012 530.002 22.748 529.372 24.078C529.19 23.924 528.77 23.686 528.532 23.602C529.47 21.642 529.54 18.856 529.54 16.812V11.8H533.418ZM539.34 18.408H535.448C535.91 19.43 536.554 20.354 537.38 21.11C538.206 20.382 538.878 19.472 539.34 18.408ZM540.012 17.386L540.628 17.652C540.11 19.36 539.242 20.704 538.136 21.726C539.088 22.398 540.194 22.902 541.454 23.196C541.244 23.42 540.964 23.826 540.838 24.106C539.508 23.742 538.346 23.154 537.352 22.37C536.33 23.14 535.168 23.686 533.936 24.064C533.838 23.77 533.614 23.378 533.432 23.154C534.566 22.86 535.672 22.384 536.624 21.712C535.742 20.816 535.042 19.738 534.538 18.492L534.748 18.408H533.95V17.428H539.844L540.012 17.386ZM545.64 19.346L546.662 19.612C546.004 21.082 544.94 22.552 543.932 23.504C543.736 23.308 543.302 22.986 543.05 22.818C544.072 21.964 545.066 20.662 545.64 19.346ZM554.18 18.226H550.148V22.65C550.148 23.266 550.008 23.574 549.588 23.742C549.154 23.924 548.44 23.952 547.446 23.952C547.404 23.658 547.222 23.182 547.054 22.888C547.866 22.916 548.608 22.916 548.832 22.902C549.056 22.888 549.112 22.832 549.112 22.636V18.226H546.032C545.206 18.226 544.66 18.296 544.534 18.436C544.464 18.198 544.282 17.652 544.142 17.358C544.464 17.274 544.758 16.882 545.192 16.266C545.43 15.944 545.948 15.132 546.508 14.124H543.134V13.13H547.026C547.348 12.514 547.642 11.856 547.908 11.212L548.986 11.674C548.776 12.15 548.538 12.654 548.286 13.13H554.768V14.124H547.754C547.138 15.244 546.466 16.308 545.808 17.218H549.112V15.174H550.148V17.218H554.194L554.18 18.226ZM551.296 19.752L552.15 19.318C553.242 20.368 554.53 21.838 555.118 22.818L554.18 23.322C553.634 22.37 552.388 20.844 551.296 19.752ZM569.146 16.35H563.868C564.848 19.43 566.668 21.964 569.37 23.07C569.118 23.308 568.768 23.742 568.586 24.05C565.898 22.776 564.12 20.298 563.014 17.12C562.342 19.808 560.83 22.496 557.428 24.05C557.274 23.77 556.938 23.406 556.644 23.196C560.116 21.684 561.516 18.996 562.09 16.35H556.924V15.286H562.258C562.468 13.816 562.454 12.416 562.468 11.31H563.588C563.574 12.43 563.56 13.816 563.364 15.286H569.146V16.35ZM571.302 19.29V18.282H582.796V19.29H576.692C575.824 20.438 574.844 21.558 573.836 22.468L580.192 21.992C579.688 21.404 579.1 20.802 578.568 20.312L579.45 19.836C580.696 20.956 582.012 22.44 582.628 23.49L581.704 24.064C581.508 23.728 581.228 23.322 580.92 22.902C573.542 23.518 572.758 23.574 572.24 23.77C572.17 23.546 572.002 23 571.89 22.692C572.184 22.636 572.506 22.37 572.926 21.964C573.318 21.642 574.368 20.536 575.278 19.29H571.302ZM577.056 11.296L578.05 11.73C577.91 11.912 577.77 12.108 577.644 12.29C578.918 13.592 581.186 15.132 583.44 15.902C583.202 16.112 582.88 16.532 582.712 16.826C580.542 15.944 578.358 14.348 577.042 12.99C576.174 13.942 575.096 14.838 573.892 15.608H580.36V16.574H573.71V15.72C572.982 16.182 572.212 16.602 571.4 16.966C571.246 16.7 570.882 16.28 570.644 16.07C573.36 14.922 575.81 13.172 577.056 11.296Z" fill="#3C525E"/>
<path d="M20.906 16.504H17.518V18.03H20.906V16.504ZM17.518 20.508H20.906V18.912H17.518V20.508ZM13.066 20.508H16.454V18.912H13.066V20.508ZM16.454 16.504H13.066V18.03H16.454V16.504ZM17.518 14.236V15.58H21.928V22.16H20.906V21.432H17.518V24.05H16.454V21.432H13.066V22.216H12.072V15.58H16.454V14.236H17.518ZM17.616 12.78H22.782V15.062H21.718V13.788H12.24V15.062H11.218V12.78H16.65C16.482 12.388 16.244 11.87 16.02 11.492L17.07 11.184C17.35 11.674 17.686 12.318 17.84 12.71L17.616 12.78ZM28.858 13.62L28.158 14.39C27.696 13.788 26.73 12.85 25.96 12.206L26.632 11.534C27.402 12.15 28.382 13.046 28.858 13.62ZM27.948 21.6L29.656 20.452C29.726 20.718 29.908 21.152 29.992 21.362C27.388 23.21 26.996 23.518 26.772 23.812C26.674 23.532 26.408 23.084 26.226 22.86C26.492 22.678 26.898 22.286 26.898 21.698V16.686H24.7V15.664H27.948V21.6ZM37.384 15.916V16.966H33.842V24.078H32.764V16.966H29.208V15.916H32.764V11.338H33.842V15.916H37.384ZM47.254 19.766H43.39C43.068 20.186 42.746 20.606 42.424 20.942C43.46 21.166 44.496 21.39 45.49 21.628C46.26 21.152 46.834 20.536 47.254 19.766ZM45.49 17.82H44.692C44.496 18.156 44.272 18.506 44.048 18.856H51.314V19.766H48.402C48.01 20.648 47.45 21.362 46.736 21.95C48.444 22.384 49.984 22.832 51.16 23.252L50.208 24.008C49.06 23.574 47.506 23.07 45.714 22.608C44.16 23.434 42.06 23.868 39.316 24.092C39.246 23.784 39.078 23.406 38.896 23.154C41.122 23.028 42.872 22.762 44.244 22.23C43.124 21.964 41.934 21.698 40.702 21.46C41.164 20.984 41.668 20.396 42.144 19.766H38.7V18.856H42.816C43.166 18.366 43.474 17.862 43.726 17.386L44.468 17.582V15.09C43.166 16.476 41.066 17.666 39.204 18.254C39.05 18.016 38.756 17.638 38.56 17.442C40.198 16.994 42.018 16.084 43.25 15.048H38.854V14.152H44.468V12.752C42.984 12.864 41.444 12.934 40.044 12.976C40.03 12.738 39.918 12.374 39.82 12.15C43.012 12.066 46.918 11.786 48.976 11.31L49.746 12.052C48.57 12.318 47.086 12.528 45.49 12.668V14.152H51.146V15.048H46.75C47.968 16.028 49.788 16.882 51.426 17.288C51.216 17.512 50.908 17.904 50.768 18.156C48.892 17.596 46.806 16.434 45.49 15.09V17.82ZM55.766 12.822V14.404H62.276V12.822H55.766ZM54.702 11.912H63.382V15.328H54.702V11.912ZM58.384 18.408H59.476V19.71C59.476 21.166 58.846 22.958 53.666 24.12C53.54 23.896 53.218 23.476 52.98 23.266C57.992 22.272 58.384 20.788 58.384 19.682V18.408ZM59.392 22.048L59.91 21.292C61.562 21.838 63.844 22.664 65.062 23.252L64.516 24.12C63.368 23.532 61.1 22.636 59.392 22.048ZM54.212 16.546H63.942V21.572H62.836V17.526H55.262V21.67H54.212V16.546ZM67.302 19.29V18.282H78.796V19.29H72.692C71.824 20.438 70.844 21.558 69.836 22.468L76.192 21.992C75.688 21.404 75.1 20.802 74.568 20.312L75.45 19.836C76.696 20.956 78.012 22.44 78.628 23.49L77.704 24.064C77.508 23.728 77.228 23.322 76.92 22.902C69.542 23.518 68.758 23.574 68.24 23.77C68.17 23.546 68.002 23 67.89 22.692C68.184 22.636 68.506 22.37 68.926 21.964C69.318 21.642 70.368 20.536 71.278 19.29H67.302ZM73.056 11.296L74.05 11.73C73.91 11.912 73.77 12.108 73.644 12.29C74.918 13.592 77.186 15.132 79.44 15.902C79.202 16.112 78.88 16.532 78.712 16.826C76.542 15.944 74.358 14.348 73.042 12.99C72.174 13.942 71.096 14.838 69.892 15.608H76.36V16.574H69.71V15.72C68.982 16.182 68.212 16.602 67.4 16.966C67.246 16.7 66.882 16.28 66.644 16.07C69.36 14.922 71.81 13.172 73.056 11.296Z" fill="#3C525E"/>
<path d="M850 30L806 30L806 378L850 378" stroke="#7BC3F8"/>
<path d="M444 30L435 35.1962L435 24.8038L444 30Z" fill="#7BC3F8"/>
<path d="M438.984 30L364 30L364 378L444 378" stroke="#7BC3F8"/>
<path d="M194 374L288 374L288 134L237.034 134L195.01 134" stroke="#ABBEC9"/>
<path d="M192 374.196L201 369L201 379.392L192 374.196Z" fill="#ABBEC9"/>
<path d="M192 134.197L201 129.001L201 139.393L192 134.197Z" fill="#ABBEC9"/>
<path d="M848.501 390L794.001 390L794.001 18L849.063 18" stroke="#ABBEC9"/>
<path d="M442.047 390L352 390L352 42L444 42" stroke="#ABBEC9"/>
<path d="M444 262L435 267.196L435 256.804L444 262Z" fill="#7BC3F8"/>
<path d="M444 250L193 250" stroke="#ABBEC9"/>
<path d="M674 242L850 242" stroke="#7BC3F8"/>
<path d="M668 242L677 236.804L677 247.196L668 242Z" fill="#7BC3F8"/>
<path d="M543 82L543 206" stroke="#7BC3F8"/>
<path d="M543 78L548.196 87L537.804 87L543 78Z" fill="#7BC3F8"/>
<path d="M1061 538L1107.7 538C1107.7 538 1107.7 476.481 1107.7 389.999M1061.35 29.9995L1107.7 29.9995L1108 253.999M1108 253.999C1108 253.999 1107.7 308.959 1107.7 389.999M1108 253.999L1061.3 253.999M1107.7 389.999L1061 389.999" stroke="#7BC3F8"/>
<path d="M1058 30.1959L1067 24.9998L1067 35.3921L1058 30.1959Z" fill="#7BC3F8"/>
<path d="M1058 254.196L1067 249L1067 259.392L1058 254.196Z" fill="#7BC3F8"/>
<path d="M1058 390.196L1067 385L1067 395.392L1058 390.196Z" fill="#7BC3F8"/>
<path d="M564 199L564 122L192 122" stroke="#7BC3F8"/>
<path d="M564 206L558.804 197L569.196 197L564 206Z" fill="#7BC3F8"/>
<path d="M68.48 510.154H77.3V511.078H68.48V510.154ZM70.104 507.186H76.712V508.096H70.104V507.186ZM72.442 505.296H73.492V510.56H72.442V505.296ZM70.244 505.674L71.238 505.884C70.846 507.27 70.174 508.642 69.446 509.524C69.25 509.37 68.816 509.09 68.564 508.978C69.32 508.152 69.894 506.92 70.244 505.674ZM73.492 510.63H74.528V514.326C74.528 514.676 74.584 514.718 74.934 514.718C75.074 514.718 75.858 514.718 76.054 514.718C76.39 514.718 76.46 514.536 76.488 513.066C76.698 513.248 77.132 513.402 77.426 513.486C77.314 515.264 77.048 515.712 76.166 515.712C75.942 515.712 74.99 515.712 74.794 515.712C73.744 515.712 73.492 515.39 73.492 514.34V510.63ZM71.042 510.658H72.092C71.868 513.094 71.252 514.858 68.746 515.838C68.62 515.572 68.326 515.194 68.102 514.998C70.37 514.2 70.86 512.702 71.042 510.658ZM64.84 506.29L65.638 505.716C66.478 506.374 67.43 507.326 67.878 507.998L67.024 508.642C66.604 507.956 65.666 506.976 64.84 506.29ZM67.514 510.616V516.02H66.492V511.596H64.77V510.616H67.514ZM67.416 515.586C67.85 515.586 68.172 515.95 68.872 516.37C69.754 516.888 70.93 516.972 72.414 516.972C74.01 516.972 76.138 516.874 77.524 516.72C77.398 517 77.23 517.518 77.216 517.812C76.124 517.882 73.758 517.966 72.4 517.966C70.762 517.966 69.6 517.812 68.69 517.28C68.13 516.944 67.71 516.538 67.402 516.538C66.87 516.538 66.114 517.252 65.33 518.12L64.63 517.224C65.596 516.314 66.632 515.586 67.416 515.586ZM78.77 507.998H91.244V508.964H78.77V507.998ZM88.654 505.408L89.76 505.8C89.13 506.71 88.346 507.732 87.73 508.404L86.876 508.054C87.464 507.354 88.234 506.206 88.654 505.408ZM80.198 505.982L81.08 505.548C81.654 506.164 82.312 507.032 82.606 507.606L81.654 508.11C81.402 507.536 80.758 506.64 80.198 505.982ZM83.544 505.548L84.426 505.17C84.944 505.828 85.518 506.738 85.742 507.34L84.804 507.774C84.594 507.172 84.062 506.234 83.544 505.548ZM82.466 508.46L83.362 508.782C82.466 510.56 80.814 512.1 79.092 512.884C78.938 512.646 78.63 512.282 78.406 512.086C80.072 511.414 81.668 510.014 82.466 508.46ZM87.562 508.432C88.388 509.874 90.012 511.288 91.636 511.918C91.398 512.128 91.076 512.506 90.922 512.772C89.256 511.988 87.604 510.42 86.68 508.754L87.562 508.432ZM81.262 511.666H88.822V512.66H81.262V511.666ZM79.288 514.382H90.824V515.376H79.288V514.382ZM84.468 509.944H85.518V518.134H84.468V509.944ZM95.822 517.784C94.912 516.678 93.708 515.488 92.714 514.676L93.624 513.878C94.632 514.69 95.892 515.95 96.774 516.972L95.822 517.784ZM106.462 512.66C107.68 512.352 109.472 511.848 111.208 511.358L111.334 512.31C109.738 512.8 108.072 513.304 106.77 513.668L106.462 512.66ZM106.63 508.068H111.18V509.062H106.63V508.068ZM108.562 505.254H109.584V516.79C109.584 517.378 109.458 517.672 109.08 517.826C108.716 517.994 108.128 518.022 107.162 518.022C107.12 517.756 106.98 517.322 106.854 517.042C107.512 517.07 108.114 517.056 108.296 517.056C108.492 517.056 108.562 516.986 108.562 516.79V505.254ZM112.244 509.776H114.848V510.77H112.244V509.776ZM115.338 505.464H116.402V516.118C116.402 516.678 116.458 516.79 116.822 516.79C116.99 516.79 117.872 516.79 118.082 516.79C118.39 516.79 118.446 516.356 118.474 514.788C118.74 514.998 119.146 515.194 119.454 515.264C119.356 517.112 119.118 517.784 118.152 517.784C117.956 517.784 116.85 517.784 116.654 517.784C115.632 517.784 115.338 517.42 115.338 516.104V505.464ZM118.418 508.488L119.202 509.188C118.292 510.042 117.074 510.966 116.108 511.596L115.478 510.952C116.402 510.336 117.676 509.3 118.418 508.488ZM111.782 517.91L111.656 516.916L112.062 516.496L114.722 515.376C114.736 515.67 114.806 516.09 114.89 516.314C112.398 517.448 112.02 517.672 111.782 517.91ZM111.782 517.91C111.698 517.63 111.46 517.182 111.278 516.972C111.502 516.832 111.782 516.51 111.782 515.922V505.45H112.818V516.832C112.818 516.832 111.782 517.49 111.782 517.91ZM125.796 510.546H132.782V511.47H125.796V510.546ZM125.81 513.346H132.768V514.27H125.81V513.346ZM125.796 516.174H133.342V517.126H125.796V516.174ZM126.23 505.366L127.196 505.604C126.384 507.956 125.124 510.224 123.71 511.68C123.556 511.498 123.178 511.12 122.954 510.938C124.34 509.622 125.516 507.522 126.23 505.366ZM126.076 507.746H133.062V508.67H126.076V518.12H125.096V508.572L125.866 507.746H126.076ZM129.044 508.264H130.066V516.706H129.044V508.264ZM128.484 505.744L129.38 505.338C129.814 505.954 130.276 506.766 130.5 507.312L129.548 507.788C129.352 507.228 128.89 506.374 128.484 505.744ZM120.658 506.29L121.582 505.856C122.296 506.822 123.164 508.138 123.542 508.95L122.548 509.468C122.198 508.642 121.372 507.284 120.658 506.29ZM120.672 516.972C121.288 515.824 122.17 513.92 122.814 512.254L123.738 512.772C123.164 514.34 122.38 516.146 121.736 517.462L120.672 516.972ZM137.822 517.784C136.912 516.678 135.708 515.488 134.714 514.676L135.624 513.878C136.632 514.69 137.892 515.95 138.774 516.972L137.822 517.784ZM160.082 505.59L160.866 506.472C158.822 507.172 155.686 507.69 153.026 508.012C152.984 507.76 152.83 507.368 152.718 507.116C155.322 506.78 158.36 506.22 160.082 505.59ZM152.242 511.246H161.44V512.254H152.242V511.246ZM152.788 516.58H161.216V517.588H152.788V516.58ZM156.414 507.144H157.464V516.86H156.414V507.144ZM150.59 508.964L151.626 507.928L151.64 507.956V518.12H150.59V508.964ZM152.116 505.254L153.138 505.576C152.144 508.012 150.576 510.434 148.938 512.03C148.826 511.778 148.504 511.232 148.294 510.966C149.806 509.594 151.248 507.452 152.116 505.254ZM166.13 508.936H171.73V509.902H166.13V508.936ZM164.24 511.064H168.062V515.866H164.24V514.928H167.054V511.988H164.24V511.064ZM169.532 511.05H173.648V512.002H170.568V518.134H169.532V511.05ZM173.256 511.05H174.278V515.012C174.278 515.572 174.18 515.866 173.774 516.034C173.368 516.216 172.71 516.216 171.646 516.216C171.604 515.922 171.478 515.516 171.338 515.236C172.136 515.25 172.794 515.25 173.004 515.236C173.2 515.236 173.256 515.18 173.256 515.012V511.05ZM163.778 511.064H164.758V517.056H163.778V511.064ZM169.056 505.072L169.896 505.688C168.454 507.69 165.696 509.58 163.078 510.434C162.952 510.14 162.7 509.706 162.476 509.426C165.066 508.726 167.754 506.948 169.056 505.072ZM169.504 505.814C170.736 507.326 173.2 508.782 175.524 509.37C175.258 509.608 174.936 510.056 174.754 510.378C172.416 509.65 169.994 507.998 168.608 506.192L169.504 505.814Z" fill="#3C525E"/>
<path d="M33.5 510H0" stroke="#ABBEC9"/>
<path d="M41 510L32 515.196L32 504.804L41 510Z" fill="#ABBEC9"/>
<path d="M850 254L841 259.196L841 248.804L850 254Z" fill="#ABBEC9"/>
<path d="M192.5 238L442.59 238" stroke="#7BC3F8"/>
<path d="M444 238L435.538 243.196V232.804L444 238Z" fill="#7BC3F8"/>
<path d="M548 485L548 442" stroke="#ABBEC9"/>
<path d="M548 490L542.804 481L553.196 481L548 490Z" fill="#ABBEC9"/>
<path d="M556 288L556 324" stroke="#7BC3F8"/>
<path d="M556 286L561.196 295L550.804 295L556 286Z" fill="#7BC3F8"/>
<path d="M439.5 6L192 6" stroke="#7BC3F8"/>
<path d="M571.434 454.474H573.226C573.394 454.04 573.59 453.466 573.744 452.99H571.084V452.066H577.258V452.99H574.724C574.528 453.48 574.332 454.026 574.15 454.474H576.852V460.984H575.886V455.272H572.372V461.012H571.434V454.474ZM570.986 455.412L570.342 456.14C569.824 455.37 568.802 454.166 567.864 453.2C567.164 454.474 566.282 455.664 565.232 456.588C565.078 456.406 564.742 456.112 564.518 455.958C565.932 454.768 567.122 452.92 567.738 451.268L568.648 451.534C568.536 451.814 568.41 452.094 568.284 452.388C569.278 453.354 570.44 454.614 570.986 455.412ZM566.898 455.356L567.584 454.95C568.102 455.454 568.69 456.112 568.97 456.546L568.27 457.036C567.99 456.574 567.402 455.86 566.898 455.356ZM569.726 457.54L570.384 457.96C569.838 459.29 568.844 460.914 568.102 461.964C568.592 462.454 569.04 462.944 569.32 463.322L568.578 463.924C567.976 463.098 566.716 461.81 565.666 460.9L566.352 460.368C566.702 460.662 567.066 460.984 567.444 461.334C567.99 460.564 568.648 459.458 569.082 458.52H565.456V457.596H569.558L569.726 457.54ZM573.702 455.902H574.584C574.542 461.026 574.262 463.042 570.706 464.148C570.622 463.924 570.384 463.588 570.188 463.406C573.506 462.44 573.66 460.746 573.702 455.902ZM574.15 461.656L574.766 461.11C575.69 461.796 576.894 462.79 577.468 463.42L576.824 464.064C576.25 463.42 575.06 462.384 574.15 461.656ZM588.514 452.752H581.01V454.222H588.514V452.752ZM588.458 457.484H582.9C580.632 457.484 579.946 457.204 579.946 455.902V451.842H589.536V455.146H581.01V455.888C581.01 456.476 581.304 456.616 582.83 456.616H588.402C589.536 456.616 589.746 456.42 589.858 455.398C590.124 455.552 590.544 455.678 590.852 455.734C590.67 457.148 590.222 457.484 588.458 457.484ZM591.188 458.926L591.174 459.892H588.108V462.818C588.108 463.448 587.94 463.728 587.45 463.868C586.96 464.022 586.12 464.022 584.776 464.022C584.72 463.742 584.566 463.364 584.412 463.084C585.434 463.126 586.442 463.112 586.708 463.098C586.974 463.098 587.058 463.028 587.058 462.804V459.892H581.808C582.662 460.606 583.6 461.558 584.034 462.258L583.264 462.944C582.844 462.216 581.864 461.152 580.996 460.424L581.612 459.892H578.91V458.926H587.058V457.848H588.108V458.926H591.188ZM595.822 463.784C594.926 462.678 593.722 461.474 592.728 460.662L593.638 459.864C594.646 460.676 595.906 461.95 596.774 462.972L595.822 463.784ZM608.576 459.066L611.628 458.506C611.6 458.786 611.614 459.164 611.628 459.374C607.848 460.144 607.358 460.27 607.05 460.424C607.008 460.242 606.854 459.766 606.742 459.528C607.036 459.444 607.4 459.108 607.848 458.59C608.128 458.31 608.744 457.568 609.416 456.658C607.512 456.896 607.162 456.994 606.952 457.092C606.91 456.882 606.756 456.392 606.644 456.112C606.896 456.056 607.148 455.734 607.47 455.258C607.806 454.796 608.898 452.99 609.528 451.282L610.466 451.73C609.78 453.228 608.926 454.754 608.044 455.958L610.06 455.734C610.382 455.244 610.704 454.74 610.984 454.25L611.81 454.74C610.844 456.308 609.71 457.834 608.576 459.066ZM611.53 461.068L611.628 461.95C609.962 462.384 608.226 462.818 606.91 463.154L606.728 462.146C607.918 461.922 609.738 461.474 611.53 461.068ZM613.728 460.102V462.818H617.144V460.102H613.728ZM617.144 452.934H613.728V455.538H617.144V452.934ZM613.728 456.49V459.164H617.144V456.49H613.728ZM618.166 462.818H619.37V463.77H611.32V462.818H612.734V451.982H618.166V462.818ZM631.382 457.442V453.27H627.182V457.442H631.382ZM632.446 452.276V458.436H626.16V452.276H632.446ZM622.52 459.108L625.6 458.534C625.572 458.814 625.572 459.22 625.6 459.444C621.778 460.2 621.302 460.326 620.994 460.522C620.938 460.312 620.784 459.836 620.658 459.57C620.966 459.5 621.302 459.178 621.736 458.66C622.002 458.38 622.59 457.666 623.22 456.756C621.428 456.994 621.092 457.078 620.896 457.162C620.84 456.952 620.672 456.462 620.546 456.182C620.812 456.112 621.05 455.79 621.358 455.314C621.694 454.852 622.73 453.032 623.304 451.338L624.298 451.8C623.654 453.298 622.814 454.838 621.946 456.042L623.836 455.846C624.172 455.356 624.48 454.824 624.76 454.32L625.614 454.824C624.69 456.364 623.626 457.862 622.52 459.108ZM625.544 461.138L625.656 462.048C623.934 462.468 622.156 462.902 620.812 463.252L620.616 462.216C621.848 461.978 623.724 461.558 625.544 461.138ZM627.154 459.794L628.232 460.032C627.756 461.6 626.93 463.084 626.006 464.064C625.81 463.91 625.348 463.602 625.082 463.462C626.02 462.58 626.734 461.222 627.154 459.794ZM630.318 460.116L631.256 459.766C632.026 460.956 632.838 462.538 633.16 463.532L632.138 463.938C631.83 462.944 631.046 461.334 630.318 460.116ZM641.532 461.964H647.258V463H634.77V461.964H640.398V453.928H635.498V452.864H646.558V453.928H641.532V461.964ZM652.018 451.338L653.012 451.66C652.634 452.668 652.13 453.69 651.584 454.656V464.05H650.548V456.266C650.114 456.882 649.638 457.442 649.162 457.932C649.064 457.694 648.756 457.12 648.56 456.896C649.946 455.552 651.234 453.466 652.018 451.338ZM661.412 454.614H657.1V456.616H661.09V457.582H657.1V459.696H661.286V460.676H657.1V464.064H656.05V454.614H655.084C654.482 455.734 653.796 456.742 653.096 457.526C652.928 457.344 652.522 456.994 652.284 456.826C653.544 455.524 654.678 453.508 655.364 451.464L656.358 451.73C656.134 452.374 655.868 453.004 655.588 453.62H661.412V454.614Z" fill="#1A3341" fill-opacity="0.6"/>
<path d="M70.65 542.518H76.194V543.484H70.65V542.518ZM72.218 543.036C73.156 545.724 75.06 548.16 77.482 549.196C77.23 549.406 76.908 549.812 76.74 550.092C74.248 548.86 72.344 546.284 71.308 543.288L72.218 543.036ZM75.914 542.518H76.11L76.306 542.476L76.978 542.7C76.306 545.892 74.528 548.678 71.756 550.148C71.588 549.91 71.28 549.588 71.042 549.378C73.66 548.062 75.354 545.458 75.914 542.742V542.518ZM75.48 537.716H76.544C76.544 537.716 76.53 538.01 76.516 538.164C76.446 540.138 76.32 540.95 76.012 541.258C75.76 541.524 75.438 541.594 74.976 541.636C74.542 541.65 73.646 541.65 72.708 541.594C72.694 541.328 72.582 540.964 72.428 540.712C73.338 540.796 74.262 540.796 74.542 540.796C74.836 540.796 74.99 540.782 75.116 540.684C75.312 540.488 75.396 539.746 75.48 537.87V537.716ZM64.448 544.66C65.68 544.352 67.514 543.834 69.278 543.33L69.39 544.338C67.78 544.842 66.044 545.36 64.728 545.724L64.448 544.66ZM64.644 540.068H69.292V541.104H64.644V540.068ZM66.646 537.254H67.71V548.818C67.71 549.476 67.542 549.77 67.136 549.924C66.716 550.106 66.058 550.12 64.952 550.12C64.91 549.854 64.756 549.406 64.602 549.126C65.386 549.154 66.114 549.14 66.324 549.126C66.562 549.126 66.646 549.056 66.646 548.818V537.254ZM69.922 537.716H75.802V538.71H70.958V550.092H69.922V537.716ZM78.84 542.434H91.188V543.428H78.84V542.434ZM81.108 539.27H90.152V540.236H81.108V539.27ZM81.15 548.482H88.99V549.462H81.15V548.482ZM84.748 537.24H85.854V543.008H84.748V537.24ZM80.576 544.814H89.55V550.232H88.458V545.794H81.64V550.246H80.576V544.814ZM81.472 537.366L82.508 537.618C81.906 539.34 80.94 541.02 79.96 542.126C79.75 541.972 79.274 541.692 79.008 541.552C80.044 540.544 80.926 538.948 81.472 537.366ZM94.198 550.498L93.876 549.77C95.024 549.294 95.654 548.58 95.654 547.53L95.388 546.34L96.144 547.404C95.948 547.656 95.668 547.726 95.402 547.726C94.828 547.726 94.352 547.39 94.352 546.718C94.352 546.06 94.856 545.71 95.416 545.71C96.2 545.71 96.62 546.354 96.62 547.334C96.62 548.846 95.668 549.994 94.198 550.498ZM112.692 540.362V541.482H117.368V540.362H112.692ZM112.692 538.5V539.62H117.368V538.5H112.692ZM111.726 537.702H118.376V542.294H111.726V537.702ZM111.082 543.302H119.146V544.184H111.082V543.302ZM114.526 543.736H115.506V549.462L114.526 549.056V543.736ZM112.65 546.312C113.364 548.636 114.904 548.986 116.85 548.986C117.2 548.986 119.09 548.986 119.58 548.972C119.44 549.196 119.3 549.644 119.272 549.91H116.808C114.47 549.91 112.86 549.406 112.006 546.55L112.65 546.312ZM115.198 545.822H118.446V546.69H115.198V545.822ZM112.006 544.842L112.958 544.954C112.678 547.264 111.95 549 110.69 550.12C110.522 549.952 110.116 549.644 109.906 549.49C111.152 548.496 111.782 546.914 112.006 544.842ZM106.392 544.688C107.484 544.394 109.108 543.89 110.676 543.386L110.83 544.352C109.374 544.828 107.848 545.332 106.658 545.71L106.392 544.688ZM106.546 540.068H110.816V541.048H106.546V540.068ZM108.282 537.254H109.262V548.818C109.262 549.392 109.136 549.672 108.786 549.84C108.464 550.008 107.918 550.036 107.036 550.036C106.994 549.784 106.868 549.35 106.728 549.056C107.344 549.07 107.876 549.07 108.044 549.07C108.226 549.07 108.282 549.014 108.282 548.804V537.254ZM126.398 537.254H127.546V548.748H126.398V537.254ZM131.382 544.24H132.53V550.092H131.382V544.24ZM122.086 538.514H123.178V542.322H130.836V538.514H131.97V543.344H122.086V538.514ZM121.456 544.24H122.604V548.258H131.942V549.308H121.456V544.24ZM138.606 540.32H147.23V541.16H138.606V540.32ZM139.306 544.17H146.586V544.968H139.306V544.17ZM138.704 546.088H147.104V546.928H138.704V546.088ZM142.134 537.254H143.128V548.314H142.134V537.254ZM139.516 538.444H146.264V543.092H139.418V542.252H145.312V539.284H139.516V538.444ZM134.882 538.122H138.088V539.06H134.882V538.122ZM135.904 542.126H138.046V543.05H135.778L135.904 542.126ZM137.696 542.126H137.892L138.074 542.098L138.676 542.252C138.242 546.228 137.038 548.776 135.288 550.12C135.12 549.924 134.742 549.56 134.504 549.42C136.24 548.188 137.332 545.864 137.696 542.322V542.126ZM135.876 544.198C136.996 548.118 139.586 548.832 143.156 548.832C143.716 548.832 146.74 548.832 147.468 548.818C147.3 549.042 147.118 549.504 147.062 549.784H143.128C139.096 549.784 136.394 548.93 135.078 544.492L135.876 544.198ZM135.344 543.498C135.274 543.288 135.064 542.868 134.924 542.644C135.176 542.588 135.526 542.252 135.806 541.804C136.1 541.384 137.08 539.746 137.654 538.206V538.136L138.046 537.954L138.718 538.402C137.906 540.138 136.968 541.804 136.1 542.952V542.966C136.1 542.966 135.344 543.288 135.344 543.498ZM154.174 538.276C155.112 543.68 157.142 547.656 161.65 549.252C161.398 549.476 161.062 549.896 160.908 550.176C156.246 548.342 154.244 544.268 153.18 538.444L154.174 538.276ZM155.574 537.898L156.47 537.52C157.044 538.444 157.674 539.662 157.912 540.418L156.96 540.866C156.736 540.096 156.148 538.836 155.574 537.898ZM159.648 538.108L160.712 538.276C159.788 543.596 158.108 547.922 152.97 550.218C152.83 549.966 152.55 549.574 152.354 549.364C157.268 547.25 158.85 543.106 159.648 538.108ZM149.568 538.206L150.324 537.646C150.968 538.276 151.766 539.158 152.116 539.718L151.318 540.39C150.968 539.788 150.212 538.878 149.568 538.206ZM150.618 549.756L150.436 548.776L150.73 548.342L153.32 546.564C153.39 546.844 153.558 547.25 153.656 547.446C151.192 549.21 150.828 549.49 150.618 549.756ZM148.644 541.636H151.486V542.644H148.644V541.636ZM150.618 549.756C150.492 549.546 150.184 549.168 150.002 549.014C150.24 548.804 150.618 548.314 150.618 547.6V541.636H151.626V548.356C151.626 548.356 150.618 549.336 150.618 549.756Z" fill="#3C525E"/>
<path d="M32 542H-5.06639e-07" stroke="#7BC3F8"/>
<path d="M41 542L32 547.196L32 536.804L41 542Z" fill="#7BC3F8"/>
<rect x="866" y="357" width="176" height="46" rx="2" fill="white" fill-opacity="0.85"/>
<path d="M931.866 376.858L931.11 377.334C930.83 376.76 930.214 375.878 929.682 375.248L930.396 374.842C930.956 375.458 931.586 376.312 931.866 376.858ZM924.95 385.076V381.52H921.128V385.076H924.95ZM923.312 377.922V380.568H925.916V386.742H924.95V386.028H921.128V386.812H920.19V380.568H922.318V374.366H923.312V376.998H926.21V377.922H923.312ZM931.306 379.448L932.104 379.882C931.614 381.31 930.858 382.724 929.934 383.956C930.27 385.16 930.718 385.874 931.208 385.902C931.502 385.916 931.698 385.16 931.81 383.788C931.992 383.998 932.384 384.236 932.566 384.334C932.272 386.49 931.768 387.092 931.222 387.078C930.34 387.036 929.668 386.224 929.192 384.838C928.45 385.622 927.638 386.294 926.784 386.784C926.616 386.546 926.294 386.224 926.028 386.042C927.064 385.538 928.03 384.74 928.87 383.774C928.562 382.57 928.338 381.072 928.17 379.392L926.252 379.658L926.112 378.776L928.086 378.482C927.988 377.194 927.918 375.808 927.862 374.366H928.842C928.87 375.752 928.94 377.096 929.038 378.342L932.202 377.88L932.342 378.776L929.122 379.238C929.262 380.582 929.43 381.786 929.64 382.78C930.354 381.758 930.928 380.61 931.306 379.448ZM940.308 381.982H945.124C944.242 381.506 943.444 380.918 942.744 380.26C941.988 380.946 941.162 381.52 940.308 381.982ZM940.728 385.594H944.606V382.906H940.728V385.594ZM938.726 378.51V381.674C939.874 381.198 941.05 380.484 942.072 379.588C941.484 378.944 940.994 378.272 940.616 377.628C940.182 378.16 939.72 378.622 939.244 379.014C939.132 378.888 938.922 378.678 938.726 378.51ZM936.752 383.256H937.886V379.924H936.752V383.256ZM934.918 379.924V383.256H936.038V379.924H934.918ZM936.038 376.004H934.918V379.042H936.038V376.004ZM937.886 379.042V376.004H936.752V379.042H937.886ZM944.424 376.648H941.344L941.19 376.872C941.568 377.544 942.086 378.272 942.744 378.944C943.416 378.244 944.004 377.474 944.424 376.648ZM945.11 375.724L945.782 376.06C945.25 377.404 944.424 378.594 943.444 379.602C944.368 380.4 945.474 381.1 946.734 381.548C946.51 381.758 946.216 382.15 946.062 382.43C945.908 382.374 945.768 382.304 945.614 382.234V386.966H944.606V386.518H940.728V386.994H939.748V382.276C939.524 382.388 939.3 382.486 939.076 382.584C939.006 382.43 938.866 382.22 938.726 382.052V384.18H934.918V385.412H934.12V375.108H938.726V378.076C939.902 377.124 940.924 375.738 941.526 374.24L942.506 374.506C942.324 374.94 942.114 375.374 941.876 375.78H944.928L945.11 375.724ZM956.254 382.766H952.39C952.068 383.186 951.746 383.606 951.424 383.942C952.46 384.166 953.496 384.39 954.49 384.628C955.26 384.152 955.834 383.536 956.254 382.766ZM954.49 380.82H953.692C953.496 381.156 953.272 381.506 953.048 381.856H960.314V382.766H957.402C957.01 383.648 956.45 384.362 955.736 384.95C957.444 385.384 958.984 385.832 960.16 386.252L959.208 387.008C958.06 386.574 956.506 386.07 954.714 385.608C953.16 386.434 951.06 386.868 948.316 387.092C948.246 386.784 948.078 386.406 947.896 386.154C950.122 386.028 951.872 385.762 953.244 385.23C952.124 384.964 950.934 384.698 949.702 384.46C950.164 383.984 950.668 383.396 951.144 382.766H947.7V381.856H951.816C952.166 381.366 952.474 380.862 952.726 380.386L953.468 380.582V378.09C952.166 379.476 950.066 380.666 948.204 381.254C948.05 381.016 947.756 380.638 947.56 380.442C949.198 379.994 951.018 379.084 952.25 378.048H947.854V377.152H953.468V375.752C951.984 375.864 950.444 375.934 949.044 375.976C949.03 375.738 948.918 375.374 948.82 375.15C952.012 375.066 955.918 374.786 957.976 374.31L958.746 375.052C957.57 375.318 956.086 375.528 954.49 375.668V377.152H960.146V378.048H955.75C956.968 379.028 958.788 379.882 960.426 380.288C960.216 380.512 959.908 380.904 959.768 381.156C957.892 380.596 955.806 379.434 954.49 378.09V380.82ZM964.766 375.822V377.404H971.276V375.822H964.766ZM963.702 374.912H972.382V378.328H963.702V374.912ZM967.384 381.408H968.476V382.71C968.476 384.166 967.846 385.958 962.666 387.12C962.54 386.896 962.218 386.476 961.98 386.266C966.992 385.272 967.384 383.788 967.384 382.682V381.408ZM968.392 385.048L968.91 384.292C970.562 384.838 972.844 385.664 974.062 386.252L973.516 387.12C972.368 386.532 970.1 385.636 968.392 385.048ZM963.212 379.546H972.942V384.572H971.836V380.526H964.262V384.67H963.212V379.546ZM976.302 382.29V381.282H987.796V382.29H981.692C980.824 383.438 979.844 384.558 978.836 385.468L985.192 384.992C984.688 384.404 984.1 383.802 983.568 383.312L984.45 382.836C985.696 383.956 987.012 385.44 987.628 386.49L986.704 387.064C986.508 386.728 986.228 386.322 985.92 385.902C978.542 386.518 977.758 386.574 977.24 386.77C977.17 386.546 977.002 386 976.89 385.692C977.184 385.636 977.506 385.37 977.926 384.964C978.318 384.642 979.368 383.536 980.278 382.29H976.302ZM982.056 374.296L983.05 374.73C982.91 374.912 982.77 375.108 982.644 375.29C983.918 376.592 986.186 378.132 988.44 378.902C988.202 379.112 987.88 379.532 987.712 379.826C985.542 378.944 983.358 377.348 982.042 375.99C981.174 376.942 980.096 377.838 978.892 378.608H985.36V379.574H978.71V378.72C977.982 379.182 977.212 379.602 976.4 379.966C976.246 379.7 975.882 379.28 975.644 379.07C978.36 377.922 980.81 376.172 982.056 374.296Z" fill="#3C525E"/>
<path d="M672.885 530L719.651 530L720 26L668 26" stroke="#ABBEC9"/>
<path d="M668 530L677 524.804L677 535.196L668 530Z" fill="#ABBEC9"/>
<path d="M444 6L435 11.1962L435 0.803847L444 6Z" fill="#7BC3F8"/>
<path d="M440 262H301V386L192 386" stroke="#7BC3F8"/>
<rect x="460" y="226" width="192" height="46" rx="2" fill="white" fill-opacity="0.85"/>
<path d="M539.13 245.942V245.102H535.882V244.248H539.13V243.296H540.152V244.248H543.792V243.296H544.814V244.248H548.118V245.102H544.814V245.872H543.792V245.102H540.152V245.942H539.13ZM538.262 251.892H541.44V251.038H538.262V251.892ZM538.262 249.624V250.45H541.44V249.624H538.262ZM545.738 249.624H542.462V250.45H545.738V249.624ZM545.738 251.892V251.038H542.462V251.892H545.738ZM542.462 254.846H548.216V255.63H535.798V254.846H541.44V253.992H536.848V253.264H541.44V252.522H537.282V248.98H541.44V248.308H535.896V247.552H541.44V246.796C539.942 246.866 538.416 246.908 536.974 246.908C536.96 246.712 536.876 246.404 536.806 246.222C540.124 246.194 544.1 246.012 546.298 245.732L546.956 246.39C545.696 246.558 544.128 246.67 542.462 246.754V247.552H548.132V248.308H542.462V248.98H546.76V252.522H542.462V253.264H547.208V253.992H542.462V254.846ZM559.836 253.152V252.102H556.476V253.152H559.836ZM556.476 250.296V251.276H559.836V250.296H556.476ZM552.43 247.818H555.44V246.81H552.43V247.818ZM559.612 246.81H556.476V247.818H559.612V246.81ZM562.314 251.276V252.102H560.872V254.58H559.836V253.95H556.476V254.916C556.476 255.56 556.28 255.798 555.86 255.952C555.426 256.106 554.698 256.12 553.536 256.12C553.48 255.854 553.312 255.476 553.172 255.238C554.012 255.266 554.852 255.252 555.09 255.252C555.356 255.238 555.44 255.154 555.44 254.916V253.95H550.918V253.152H555.44V252.102H549.714V251.276H555.44V250.296H551.044V249.526H555.44V248.546H551.436V246.082H555.44V245.27H549.98V244.416H555.44V243.296H556.476V244.416H562.048V245.27H556.476V246.082H560.648V248.546H556.476V249.526H560.872V251.276H562.314ZM564.302 251.29V250.282H575.796V251.29H569.692C568.824 252.438 567.844 253.558 566.836 254.468L573.192 253.992C572.688 253.404 572.1 252.802 571.568 252.312L572.45 251.836C573.696 252.956 575.012 254.44 575.628 255.49L574.704 256.064C574.508 255.728 574.228 255.322 573.92 254.902C566.542 255.518 565.758 255.574 565.24 255.77C565.17 255.546 565.002 255 564.89 254.692C565.184 254.636 565.506 254.37 565.926 253.964C566.318 253.642 567.368 252.536 568.278 251.29H564.302ZM570.056 243.296L571.05 243.73C570.91 243.912 570.77 244.108 570.644 244.29C571.918 245.592 574.186 247.132 576.44 247.902C576.202 248.112 575.88 248.532 575.712 248.826C573.542 247.944 571.358 246.348 570.042 244.99C569.174 245.942 568.096 246.838 566.892 247.608H573.36V248.574H566.71V247.72C565.982 248.182 565.212 248.602 564.4 248.966C564.246 248.7 563.882 248.28 563.644 248.07C566.36 246.922 568.81 245.172 570.056 243.296Z" fill="#3C525E"/>
</svg>
