<svg width="352" height="310" viewBox="0 0 352 310" fill="none" xmlns="http://www.w3.org/2000/svg">
<path d="M274.722 7.434L273.7 7.07C274.05 5.334 275.366 4.088 277.452 4.088C279.468 4.088 280.7 5.25 280.7 7.028C280.7 7.966 280.294 8.904 279.79 9.576C279.538 9.926 279.216 10.262 278.838 10.612C278.068 11.298 277.522 11.662 276.724 12.166L275.646 12.838H281.064V14H273.434V13.048L275.562 11.634C275.94 11.396 276.206 11.214 276.36 11.102C276.514 11.004 276.766 10.822 277.102 10.584C277.438 10.346 277.69 10.136 277.858 9.982C278.012 9.828 278.222 9.632 278.46 9.38C279.104 8.68 279.342 8.036 279.412 7.154C279.412 5.88 278.586 5.306 277.368 5.306C276.612 5.306 276.01 5.516 275.576 5.936C275.142 6.356 274.848 6.86 274.722 7.434ZM283.154 7.434L282.132 7.07C282.482 5.334 283.798 4.088 285.884 4.088C287.9 4.088 289.132 5.25 289.132 7.028C289.132 7.966 288.726 8.904 288.222 9.576C287.97 9.926 287.648 10.262 287.27 10.612C286.5 11.298 285.954 11.662 285.156 12.166L284.078 12.838H289.496V14H281.866V13.048L283.994 11.634C284.372 11.396 284.638 11.214 284.792 11.102C284.946 11.004 285.198 10.822 285.534 10.584C285.87 10.346 286.122 10.136 286.29 9.982C286.444 9.828 286.654 9.632 286.892 9.38C287.536 8.68 287.774 8.036 287.844 7.154C287.844 5.88 287.018 5.306 285.8 5.306C285.044 5.306 284.442 5.516 284.008 5.936C283.574 6.356 283.28 6.86 283.154 7.434ZM290.565 13.202C290.565 12.81 290.929 12.418 291.433 12.418C291.895 12.418 292.273 12.81 292.273 13.202C292.273 13.65 291.923 14.028 291.433 14.028C290.929 14.028 290.565 13.65 290.565 13.202ZM299.044 5.39H293.108V4.2H300.542V4.998L295.67 14H294.34L299.044 5.39ZM303.724 14.21L302.8 13.678L310.038 3.892L310.92 4.536L303.724 14.21ZM301.288 6.552C301.288 5.852 301.526 5.278 302.016 4.83C302.506 4.382 303.108 4.158 303.85 4.158C304.578 4.158 305.18 4.382 305.67 4.83C306.16 5.278 306.398 5.852 306.398 6.552C306.398 7.238 306.16 7.812 305.67 8.26C305.18 8.708 304.578 8.932 303.85 8.932C303.108 8.932 302.506 8.708 302.016 8.26C301.526 7.812 301.288 7.238 301.288 6.552ZM302.464 6.552C302.464 7.35 303.108 7.938 303.85 7.938C304.62 7.938 305.222 7.378 305.222 6.552C305.222 5.726 304.592 5.166 303.85 5.166C303.08 5.166 302.464 5.726 302.464 6.552ZM308.022 13.384C307.532 12.936 307.294 12.362 307.294 11.662C307.294 10.962 307.532 10.388 308.022 9.94C308.512 9.506 309.114 9.282 309.856 9.282C310.584 9.282 311.186 9.506 311.676 9.94C312.166 10.388 312.404 10.962 312.404 11.662C312.404 12.348 312.166 12.922 311.676 13.37C311.186 13.832 310.584 14.056 309.856 14.056C309.114 14.056 308.512 13.832 308.022 13.384ZM308.47 11.662C308.47 12.46 309.114 13.048 309.856 13.048C310.626 13.048 311.228 12.488 311.228 11.662C311.228 10.836 310.598 10.276 309.856 10.276C309.086 10.276 308.47 10.836 308.47 11.662Z" fill="#1A3341"/>
<path d="M277.212 27.364H284.412V28.204H277.212V27.364ZM282.348 27.76H283.224V33.82C283.224 34.092 283.184 34.296 283.104 34.432C283.032 34.576 282.896 34.684 282.696 34.756C282.488 34.82 282.212 34.86 281.868 34.876C281.524 34.892 281.092 34.9 280.572 34.9C280.548 34.78 280.504 34.636 280.44 34.468C280.376 34.308 280.312 34.168 280.248 34.048C280.52 34.056 280.78 34.06 281.028 34.06C281.276 34.068 281.488 34.072 281.664 34.072C281.848 34.072 281.976 34.072 282.048 34.072C282.16 34.064 282.236 34.04 282.276 34C282.324 33.968 282.348 33.904 282.348 33.808V27.76ZM276.144 26.776L277.008 27.052C276.76 27.572 276.472 28.084 276.144 28.588C275.816 29.084 275.46 29.548 275.076 29.98C274.7 30.404 274.316 30.78 273.924 31.108C273.892 31.044 273.84 30.964 273.768 30.868C273.696 30.764 273.62 30.664 273.54 30.568C273.468 30.464 273.4 30.384 273.336 30.328C273.896 29.896 274.424 29.368 274.92 28.744C275.416 28.12 275.824 27.464 276.144 26.776ZM277.788 29.32H281.172V32.716H277.788V31.96H280.344V30.076H277.788V29.32ZM277.356 29.32H278.196V33.436H277.356V29.32ZM273.744 24.88H284.328V25.708H273.744V24.88ZM276.468 23.92H277.344V26.812H276.468V23.92ZM280.632 23.92H281.532V26.812H280.632V23.92ZM275.112 29.188L275.988 28.324L276 28.336V34.948H275.112V29.188ZM287.544 24.328L288.288 23.956C288.472 24.172 288.656 24.408 288.84 24.664C289.032 24.912 289.208 25.156 289.368 25.396C289.528 25.636 289.652 25.852 289.74 26.044L288.936 26.476C288.856 26.284 288.74 26.064 288.588 25.816C288.436 25.56 288.268 25.304 288.084 25.048C287.908 24.792 287.728 24.552 287.544 24.328ZM293.592 23.92L294.516 24.22C294.332 24.54 294.132 24.872 293.916 25.216C293.708 25.552 293.496 25.876 293.28 26.188C293.064 26.5 292.86 26.776 292.668 27.016L291.912 26.74C292.096 26.492 292.292 26.204 292.5 25.876C292.708 25.548 292.908 25.212 293.1 24.868C293.3 24.516 293.464 24.2 293.592 23.92ZM286.788 29.932H295.032V30.832H286.788V29.932ZM285.66 33.46H296.292V34.348H285.66V33.46ZM286.14 26.632H295.872V27.52H286.14V26.632Z" fill="#76848D"/>
<path d="M312.49 166.804L312.042 165.754L315.402 164.144H316.2V174H314.996V165.642L312.49 166.804ZM321.849 168.414H322.283C322.913 168.414 323.431 168.26 323.865 167.966C324.285 167.672 324.495 167.28 324.495 166.818C324.495 165.768 323.669 165.236 322.031 165.236C320.463 165.236 319.609 165.81 319.609 166.818C319.609 167.728 320.547 168.414 321.849 168.414ZM322.255 169.52H321.905C321.149 169.52 320.519 169.688 320.029 170.01C319.539 170.332 319.287 170.738 319.287 171.228C319.287 172.292 320.267 172.964 322.045 172.964C323.851 172.964 324.817 172.32 324.817 171.242C324.817 170.164 323.781 169.52 322.255 169.52ZM325.013 173.37C324.299 173.874 323.305 174.126 322.059 174.126C320.813 174.126 319.819 173.874 319.091 173.384C318.363 172.894 317.999 172.222 317.999 171.354C317.999 170.22 318.741 169.324 319.931 168.932C318.853 168.582 318.321 167.728 318.321 166.734C318.321 165.11 319.693 164.074 322.045 164.074C324.411 164.074 325.783 165.11 325.783 166.734C325.783 167.672 325.265 168.386 324.229 168.862C325.475 169.24 326.091 170.052 326.091 171.298C326.091 172.18 325.727 172.88 325.013 173.37ZM327.281 173.202C327.281 172.81 327.645 172.418 328.149 172.418C328.611 172.418 328.989 172.81 328.989 173.202C328.989 173.65 328.639 174.028 328.149 174.028C327.645 174.028 327.281 173.65 327.281 173.202ZM336.909 174H335.691V171.998H329.699V171.186L335.831 164.2H336.909V170.864H338.729V171.998H336.909V174ZM335.691 166.16L331.379 170.864H335.691V166.16ZM341.849 174.21L340.925 173.678L348.163 163.892L349.045 164.536L341.849 174.21ZM339.413 166.552C339.413 165.852 339.651 165.278 340.141 164.83C340.631 164.382 341.233 164.158 341.975 164.158C342.703 164.158 343.305 164.382 343.795 164.83C344.285 165.278 344.523 165.852 344.523 166.552C344.523 167.238 344.285 167.812 343.795 168.26C343.305 168.708 342.703 168.932 341.975 168.932C341.233 168.932 340.631 168.708 340.141 168.26C339.651 167.812 339.413 167.238 339.413 166.552ZM340.589 166.552C340.589 167.35 341.233 167.938 341.975 167.938C342.745 167.938 343.347 167.378 343.347 166.552C343.347 165.726 342.717 165.166 341.975 165.166C341.205 165.166 340.589 165.726 340.589 166.552ZM346.147 173.384C345.657 172.936 345.419 172.362 345.419 171.662C345.419 170.962 345.657 170.388 346.147 169.94C346.637 169.506 347.239 169.282 347.981 169.282C348.709 169.282 349.311 169.506 349.801 169.94C350.291 170.388 350.529 170.962 350.529 171.662C350.529 172.348 350.291 172.922 349.801 173.37C349.311 173.832 348.709 174.056 347.981 174.056C347.239 174.056 346.637 173.832 346.147 173.384ZM346.595 171.662C346.595 172.46 347.239 173.048 347.981 173.048C348.751 173.048 349.353 172.488 349.353 171.662C349.353 170.836 348.723 170.276 347.981 170.276C347.211 170.276 346.595 170.836 346.595 171.662Z" fill="#1A3341"/>
<path d="M315.924 184.904H323.472V185.648H315.924V184.904ZM315.816 190.292H323.532V191.036H315.816V190.292ZM318.828 191.36L319.5 191.12C319.66 191.352 319.824 191.612 319.992 191.9C320.168 192.18 320.304 192.412 320.4 192.596L319.692 192.896C319.604 192.696 319.476 192.452 319.308 192.164C319.14 191.868 318.98 191.6 318.828 191.36ZM317.592 191.96H318.396V193.772C318.396 193.9 318.428 193.984 318.492 194.024C318.556 194.064 318.704 194.084 318.936 194.084C318.992 194.084 319.092 194.084 319.236 194.084C319.38 194.084 319.536 194.084 319.704 194.084C319.88 194.084 320.044 194.084 320.196 194.084C320.356 194.084 320.472 194.084 320.544 194.084C320.672 194.084 320.768 194.06 320.832 194.012C320.904 193.964 320.952 193.86 320.976 193.7C321.008 193.532 321.032 193.28 321.048 192.944C321.128 193.008 321.24 193.068 321.384 193.124C321.528 193.172 321.656 193.208 321.768 193.232C321.736 193.648 321.684 193.968 321.612 194.192C321.54 194.424 321.424 194.584 321.264 194.672C321.112 194.76 320.9 194.804 320.628 194.804C320.572 194.804 320.46 194.804 320.292 194.804C320.132 194.804 319.948 194.804 319.74 194.804C319.54 194.804 319.356 194.804 319.188 194.804C319.028 194.804 318.916 194.804 318.852 194.804C318.524 194.804 318.264 194.772 318.072 194.708C317.888 194.652 317.76 194.548 317.688 194.396C317.624 194.252 317.592 194.048 317.592 193.784V191.96ZM316.404 191.888L317.112 192.164C316.992 192.54 316.84 192.948 316.656 193.388C316.48 193.828 316.276 194.208 316.044 194.528L315.336 194.132C315.496 193.94 315.644 193.716 315.78 193.46C315.916 193.204 316.036 192.94 316.14 192.668C316.252 192.388 316.34 192.128 316.404 191.888ZM321.636 192.044L322.32 191.768C322.48 192.008 322.64 192.268 322.8 192.548C322.96 192.828 323.108 193.1 323.244 193.364C323.38 193.628 323.484 193.864 323.556 194.072L322.824 194.396C322.752 194.188 322.652 193.948 322.524 193.676C322.404 193.404 322.264 193.124 322.104 192.836C321.952 192.548 321.796 192.284 321.636 192.044ZM320.976 187.196V188.828H322.26V187.196H320.976ZM319.056 187.196V188.828H320.316V187.196H319.056ZM317.184 187.196V188.828H318.396V187.196H317.184ZM316.452 186.512H323.028V189.512H316.452V186.512ZM319.26 183.884L320.208 183.932C320.16 184.26 320.108 184.596 320.052 184.94C319.996 185.284 319.94 185.616 319.884 185.936C319.828 186.256 319.772 186.536 319.716 186.776L318.888 186.692C318.944 186.444 318.996 186.156 319.044 185.828C319.092 185.492 319.136 185.156 319.176 184.82C319.216 184.476 319.244 184.164 319.26 183.884ZM315.132 186.524L315.948 186.812C315.684 187.324 315.38 187.84 315.036 188.36C314.7 188.872 314.348 189.36 313.98 189.824C313.612 190.28 313.248 190.688 312.888 191.048C312.856 190.984 312.804 190.9 312.732 190.796C312.668 190.692 312.6 190.588 312.528 190.484C312.456 190.38 312.392 190.296 312.336 190.232C312.68 189.92 313.02 189.564 313.356 189.164C313.7 188.764 314.024 188.34 314.328 187.892C314.64 187.436 314.908 186.98 315.132 186.524ZM314.916 183.92L315.732 184.268C315.484 184.604 315.196 184.956 314.868 185.324C314.548 185.684 314.216 186.036 313.872 186.38C313.528 186.716 313.196 187.016 312.876 187.28C312.844 187.216 312.8 187.14 312.744 187.052C312.688 186.964 312.632 186.876 312.576 186.788C312.52 186.692 312.464 186.616 312.408 186.56C312.704 186.328 313.008 186.064 313.32 185.768C313.64 185.464 313.94 185.152 314.22 184.832C314.5 184.504 314.732 184.2 314.916 183.92ZM314.1 188.768L314.532 188.336L314.952 188.48V194.96H314.1V188.768ZM326.784 186.32H332.952V187.124H326.784V186.32ZM327.12 188.84H332.664V189.62H327.12V188.84ZM326.616 191.648H333.204V192.416H326.616V191.648ZM329.388 186.572H330.24V192.068H329.388V186.572ZM330.984 190.16L331.572 189.836C331.804 190.028 332.032 190.248 332.256 190.496C332.488 190.744 332.668 190.964 332.796 191.156L332.172 191.528C332.052 191.336 331.88 191.112 331.656 190.856C331.432 190.592 331.208 190.36 330.984 190.16ZM324.912 184.46H334.848V194.96H333.9V185.3H325.824V194.96H324.912V184.46ZM325.392 193.52H334.332V194.36H325.392V193.52Z" fill="#76848D"/>
<path d="M250.75 261.918C250.75 263.584 250.358 264.872 249.56 265.768C248.762 266.678 247.698 267.126 246.368 267.126C244.744 267.126 243.47 266.44 242.84 265.39L243.848 264.69C244.408 265.474 245.43 265.922 246.536 265.922C247.446 265.922 248.174 265.558 248.748 264.83C249.322 264.116 249.56 263.22 249.49 262.156C249.028 263.22 247.866 264.004 246.312 264.004C245.22 264.004 244.324 263.696 243.624 263.066C242.91 262.45 242.56 261.638 242.56 260.644C242.56 259.552 242.938 258.684 243.694 258.04C244.45 257.396 245.458 257.074 246.704 257.074C249.224 257.074 250.75 258.838 250.75 261.918ZM249.28 260.602C249.07 259.3 248.174 258.278 246.564 258.278C244.884 258.278 243.848 259.146 243.848 260.602C243.848 261.988 244.898 262.8 246.536 262.8C247.278 262.8 247.908 262.576 248.398 262.128C248.888 261.68 249.182 261.176 249.28 260.602ZM251.898 266.202C251.898 265.81 252.262 265.418 252.766 265.418C253.228 265.418 253.606 265.81 253.606 266.202C253.606 266.65 253.256 267.028 252.766 267.028C252.262 267.028 251.898 266.65 251.898 266.202ZM255.729 260.056L254.679 259.58C255.197 258.068 256.555 257.074 258.585 257.074C259.551 257.074 260.349 257.298 260.965 257.746C261.581 258.194 261.889 258.796 261.889 259.538C261.889 260.672 261.287 261.512 260.167 261.834C261.245 261.904 262.113 262.716 262.113 264.172C262.113 265.096 261.777 265.824 261.105 266.342C260.433 266.86 259.579 267.126 258.529 267.126C256.387 267.126 254.903 266.104 254.413 264.494L255.547 264.004C256.149 265.278 257.171 265.922 258.613 265.922C259.971 265.922 260.825 265.292 260.825 264.186C260.825 263.108 259.985 262.562 258.305 262.562H257.213V261.4H258.081C259.607 261.4 260.601 260.714 260.601 259.776C260.601 258.81 259.803 258.264 258.529 258.264C257.031 258.264 256.121 259.034 255.729 260.056ZM265.7 267.21L264.776 266.678L272.014 256.892L272.896 257.536L265.7 267.21ZM263.264 259.552C263.264 258.852 263.502 258.278 263.992 257.83C264.482 257.382 265.084 257.158 265.826 257.158C266.554 257.158 267.156 257.382 267.646 257.83C268.136 258.278 268.374 258.852 268.374 259.552C268.374 260.238 268.136 260.812 267.646 261.26C267.156 261.708 266.554 261.932 265.826 261.932C265.084 261.932 264.482 261.708 263.992 261.26C263.502 260.812 263.264 260.238 263.264 259.552ZM264.44 259.552C264.44 260.35 265.084 260.938 265.826 260.938C266.596 260.938 267.198 260.378 267.198 259.552C267.198 258.726 266.568 258.166 265.826 258.166C265.056 258.166 264.44 258.726 264.44 259.552ZM269.998 266.384C269.508 265.936 269.27 265.362 269.27 264.662C269.27 263.962 269.508 263.388 269.998 262.94C270.488 262.506 271.09 262.282 271.832 262.282C272.56 262.282 273.162 262.506 273.652 262.94C274.142 263.388 274.38 263.962 274.38 264.662C274.38 265.348 274.142 265.922 273.652 266.37C273.162 266.832 272.56 267.056 271.832 267.056C271.09 267.056 270.488 266.832 269.998 266.384ZM270.446 264.662C270.446 265.46 271.09 266.048 271.832 266.048C272.602 266.048 273.204 265.488 273.204 264.662C273.204 263.836 272.574 263.276 271.832 263.276C271.062 263.276 270.446 263.836 270.446 264.662Z" fill="#1A3341"/>
<path d="M245.576 285.212H246.452V286.76C246.452 286.904 246.496 286.996 246.584 287.036C246.672 287.076 246.872 287.096 247.184 287.096C247.256 287.096 247.384 287.096 247.568 287.096C247.76 287.096 247.972 287.096 248.204 287.096C248.436 287.096 248.652 287.096 248.852 287.096C249.06 287.096 249.212 287.096 249.308 287.096C249.476 287.096 249.6 287.068 249.68 287.012C249.768 286.964 249.828 286.856 249.86 286.688C249.9 286.512 249.928 286.244 249.944 285.884C250.048 285.948 250.176 286.008 250.328 286.064C250.48 286.12 250.616 286.16 250.736 286.184C250.704 286.64 250.644 286.984 250.556 287.216C250.468 287.456 250.332 287.62 250.148 287.708C249.964 287.804 249.708 287.852 249.38 287.852C249.332 287.852 249.228 287.852 249.068 287.852C248.916 287.852 248.74 287.852 248.54 287.852C248.348 287.852 248.152 287.852 247.952 287.852C247.752 287.852 247.572 287.852 247.412 287.852C247.26 287.852 247.16 287.852 247.112 287.852C246.704 287.852 246.388 287.82 246.164 287.756C245.94 287.7 245.784 287.592 245.696 287.432C245.616 287.272 245.576 287.048 245.576 286.76V285.212ZM246.896 284.984L247.424 284.48C247.648 284.592 247.88 284.724 248.12 284.876C248.36 285.028 248.588 285.184 248.804 285.344C249.02 285.496 249.196 285.636 249.332 285.764L248.768 286.328C248.64 286.192 248.468 286.044 248.252 285.884C248.044 285.724 247.82 285.564 247.58 285.404C247.348 285.244 247.12 285.104 246.896 284.984ZM250.892 285.32L251.6 284.996C251.808 285.204 252.016 285.432 252.224 285.68C252.432 285.92 252.62 286.164 252.788 286.412C252.964 286.652 253.096 286.872 253.184 287.072L252.428 287.444C252.34 287.244 252.212 287.024 252.044 286.784C251.884 286.536 251.704 286.284 251.504 286.028C251.304 285.772 251.1 285.536 250.892 285.32ZM244.172 285.116L244.928 285.452C244.752 285.812 244.544 286.196 244.304 286.604C244.064 287.012 243.788 287.36 243.476 287.648L242.732 287.204C243.036 286.94 243.312 286.616 243.56 286.232C243.816 285.84 244.02 285.468 244.172 285.116ZM243.416 277.808H252.572V278.54H243.416V277.808ZM242.876 279.74H253.196V280.472H242.876V279.74ZM245.228 278.708L246.044 278.516C246.164 278.708 246.272 278.92 246.368 279.152C246.472 279.384 246.544 279.584 246.584 279.752L245.72 279.968C245.688 279.792 245.624 279.588 245.528 279.356C245.44 279.116 245.34 278.9 245.228 278.708ZM249.956 278.492L250.868 278.696C250.732 278.96 250.596 279.216 250.46 279.464C250.332 279.704 250.204 279.92 250.076 280.112L249.296 279.896C249.408 279.696 249.524 279.464 249.644 279.2C249.772 278.928 249.876 278.692 249.956 278.492ZM245.132 283.124V283.964H250.904V283.124H245.132ZM245.132 281.708V282.524H250.904V281.708H245.132ZM244.28 281.084H251.804V284.588H244.28V281.084ZM247.316 277.016L248.18 276.812C248.308 277.004 248.436 277.224 248.564 277.472C248.692 277.712 248.784 277.92 248.84 278.096L247.928 278.324C247.872 278.148 247.784 277.936 247.664 277.688C247.552 277.44 247.436 277.216 247.316 277.016ZM254.624 280.364H265.184V281.288H254.624V280.364ZM260.468 280.736C260.74 281.704 261.096 282.608 261.536 283.448C261.984 284.28 262.528 285.008 263.168 285.632C263.816 286.256 264.552 286.744 265.376 287.096C265.304 287.16 265.224 287.24 265.136 287.336C265.056 287.44 264.976 287.544 264.896 287.648C264.816 287.752 264.752 287.848 264.704 287.936C263.84 287.52 263.076 286.972 262.412 286.292C261.756 285.612 261.196 284.82 260.732 283.916C260.268 283.012 259.884 282.024 259.58 280.952L260.468 280.736ZM259.412 276.932H260.384C260.384 277.452 260.368 278.032 260.336 278.672C260.312 279.304 260.252 279.964 260.156 280.652C260.06 281.332 259.9 282.02 259.676 282.716C259.46 283.404 259.156 284.072 258.764 284.72C258.38 285.36 257.888 285.956 257.288 286.508C256.688 287.06 255.952 287.536 255.08 287.936C255.008 287.816 254.904 287.684 254.768 287.54C254.64 287.404 254.516 287.288 254.396 287.192C255.244 286.824 255.956 286.384 256.532 285.872C257.116 285.36 257.592 284.8 257.96 284.192C258.328 283.584 258.612 282.956 258.812 282.308C259.012 281.66 259.152 281.016 259.232 280.376C259.312 279.728 259.36 279.112 259.376 278.528C259.4 277.944 259.412 277.412 259.412 276.932ZM266.36 280.532H272.072V281.372H266.36V280.532ZM272.876 278.348H273.752V284.972H272.876V278.348ZM268.868 277.928H269.756V287.936H268.868V277.928ZM275.816 277.148H276.716V286.76C276.716 287.072 276.672 287.304 276.584 287.456C276.504 287.608 276.368 287.724 276.176 287.804C275.976 287.876 275.7 287.92 275.348 287.936C275.004 287.96 274.556 287.972 274.004 287.972C273.988 287.884 273.96 287.784 273.92 287.672C273.88 287.568 273.84 287.46 273.8 287.348C273.76 287.236 273.716 287.14 273.668 287.06C274.092 287.068 274.476 287.072 274.82 287.072C275.164 287.072 275.392 287.072 275.504 287.072C275.616 287.064 275.696 287.04 275.744 287C275.792 286.952 275.816 286.872 275.816 286.76V277.148ZM271.256 276.992L271.928 277.676C271.472 277.86 270.94 278.028 270.332 278.18C269.724 278.332 269.092 278.464 268.436 278.576C267.788 278.688 267.16 278.784 266.552 278.864C266.528 278.76 266.488 278.64 266.432 278.504C266.384 278.368 266.328 278.252 266.264 278.156C266.712 278.092 267.168 278.02 267.632 277.94C268.104 277.852 268.56 277.76 269 277.664C269.448 277.56 269.864 277.452 270.248 277.34C270.64 277.228 270.976 277.112 271.256 276.992ZM268.844 280.916L269.48 281.192C269.328 281.648 269.144 282.116 268.928 282.596C268.712 283.076 268.476 283.544 268.22 284C267.964 284.456 267.696 284.884 267.416 285.284C267.136 285.676 266.856 286.012 266.576 286.292C266.544 286.204 266.496 286.112 266.432 286.016C266.376 285.912 266.316 285.808 266.252 285.704C266.196 285.6 266.14 285.512 266.084 285.44C266.356 285.192 266.624 284.896 266.888 284.552C267.16 284.2 267.42 283.82 267.668 283.412C267.916 283.004 268.14 282.588 268.34 282.164C268.548 281.732 268.716 281.316 268.844 280.916ZM269.636 282.164C269.756 282.244 269.924 282.376 270.14 282.56C270.364 282.744 270.604 282.944 270.86 283.16C271.116 283.376 271.348 283.576 271.556 283.76C271.772 283.944 271.928 284.08 272.024 284.168L271.508 284.924C271.388 284.788 271.224 284.616 271.016 284.408C270.808 284.192 270.588 283.972 270.356 283.748C270.124 283.524 269.9 283.312 269.684 283.112C269.468 282.912 269.288 282.756 269.144 282.644L269.636 282.164Z" fill="#76848D"/>
<path d="M149.466 279.414H149.9C150.53 279.414 151.048 279.26 151.482 278.966C151.902 278.672 152.112 278.28 152.112 277.818C152.112 276.768 151.286 276.236 149.648 276.236C148.08 276.236 147.226 276.81 147.226 277.818C147.226 278.728 148.164 279.414 149.466 279.414ZM149.872 280.52H149.522C148.766 280.52 148.136 280.688 147.646 281.01C147.156 281.332 146.904 281.738 146.904 282.228C146.904 283.292 147.884 283.964 149.662 283.964C151.468 283.964 152.434 283.32 152.434 282.242C152.434 281.164 151.398 280.52 149.872 280.52ZM152.63 284.37C151.916 284.874 150.922 285.126 149.676 285.126C148.43 285.126 147.436 284.874 146.708 284.384C145.98 283.894 145.616 283.222 145.616 282.354C145.616 281.22 146.358 280.324 147.548 279.932C146.47 279.582 145.938 278.728 145.938 277.734C145.938 276.11 147.31 275.074 149.662 275.074C152.028 275.074 153.4 276.11 153.4 277.734C153.4 278.672 152.882 279.386 151.846 279.862C153.092 280.24 153.708 281.052 153.708 282.298C153.708 283.18 153.344 283.88 152.63 284.37ZM154.898 284.202C154.898 283.81 155.262 283.418 155.766 283.418C156.228 283.418 156.606 283.81 156.606 284.202C156.606 284.65 156.256 285.028 155.766 285.028C155.262 285.028 154.898 284.65 154.898 284.202ZM158.883 278.434L157.861 278.07C158.211 276.334 159.527 275.088 161.613 275.088C163.629 275.088 164.861 276.25 164.861 278.028C164.861 278.966 164.455 279.904 163.951 280.576C163.699 280.926 163.377 281.262 162.999 281.612C162.229 282.298 161.683 282.662 160.885 283.166L159.807 283.838H165.225V285H157.595V284.048L159.723 282.634C160.101 282.396 160.367 282.214 160.521 282.102C160.675 282.004 160.927 281.822 161.263 281.584C161.599 281.346 161.851 281.136 162.019 280.982C162.173 280.828 162.383 280.632 162.621 280.38C163.265 279.68 163.503 279.036 163.573 278.154C163.573 276.88 162.747 276.306 161.529 276.306C160.773 276.306 160.171 276.516 159.737 276.936C159.303 277.356 159.009 277.86 158.883 278.434ZM168.632 285.21L167.708 284.678L174.946 274.892L175.828 275.536L168.632 285.21ZM166.196 277.552C166.196 276.852 166.434 276.278 166.924 275.83C167.414 275.382 168.016 275.158 168.758 275.158C169.486 275.158 170.088 275.382 170.578 275.83C171.068 276.278 171.306 276.852 171.306 277.552C171.306 278.238 171.068 278.812 170.578 279.26C170.088 279.708 169.486 279.932 168.758 279.932C168.016 279.932 167.414 279.708 166.924 279.26C166.434 278.812 166.196 278.238 166.196 277.552ZM167.372 277.552C167.372 278.35 168.016 278.938 168.758 278.938C169.528 278.938 170.13 278.378 170.13 277.552C170.13 276.726 169.5 276.166 168.758 276.166C167.988 276.166 167.372 276.726 167.372 277.552ZM172.93 284.384C172.44 283.936 172.202 283.362 172.202 282.662C172.202 281.962 172.44 281.388 172.93 280.94C173.42 280.506 174.022 280.282 174.764 280.282C175.492 280.282 176.094 280.506 176.584 280.94C177.074 281.388 177.312 281.962 177.312 282.662C177.312 283.348 177.074 283.922 176.584 284.37C176.094 284.832 175.492 285.056 174.764 285.056C174.022 285.056 173.42 284.832 172.93 284.384ZM173.378 282.662C173.378 283.46 174.022 284.048 174.764 284.048C175.534 284.048 176.136 283.488 176.136 282.662C176.136 281.836 175.506 281.276 174.764 281.276C173.994 281.276 173.378 281.836 173.378 282.662Z" fill="#1A3341"/>
<path d="M146.14 295.7L146.644 295.052C146.908 295.156 147.184 295.28 147.472 295.424C147.76 295.568 148.032 295.716 148.288 295.868C148.552 296.02 148.768 296.164 148.936 296.3L148.42 297.056C148.252 296.912 148.04 296.76 147.784 296.6C147.536 296.432 147.268 296.272 146.98 296.12C146.692 295.96 146.412 295.82 146.14 295.7ZM145.504 298.964L145.996 298.292C146.244 298.396 146.508 298.52 146.788 298.664C147.076 298.8 147.348 298.944 147.604 299.096C147.86 299.24 148.068 299.38 148.228 299.516L147.724 300.26C147.564 300.124 147.36 299.98 147.112 299.828C146.864 299.668 146.6 299.512 146.32 299.36C146.04 299.208 145.768 299.076 145.504 298.964ZM145.912 305.192C146.128 304.888 146.368 304.524 146.632 304.1C146.896 303.668 147.164 303.212 147.436 302.732C147.708 302.244 147.96 301.776 148.192 301.328L148.852 301.916C148.644 302.34 148.412 302.78 148.156 303.236C147.908 303.692 147.656 304.14 147.4 304.58C147.152 305.02 146.908 305.428 146.668 305.804L145.912 305.192ZM152.176 294.92H153.076V300.56H152.176V294.92ZM149.068 300.008H156.244V300.86H149.068V300.008ZM149.596 296.984H155.752V297.836H149.596V296.984ZM153.448 302.468L154.168 302.12C154.456 302.464 154.74 302.844 155.02 303.26C155.3 303.668 155.552 304.072 155.776 304.472C156.008 304.872 156.18 305.228 156.292 305.54L155.5 305.948C155.396 305.636 155.236 305.28 155.02 304.88C154.804 304.472 154.556 304.056 154.276 303.632C154.004 303.208 153.728 302.82 153.448 302.468ZM149.632 305.54L149.596 304.832L150.112 304.508L155.008 303.956C155.008 304.076 155.016 304.212 155.032 304.364C155.048 304.516 155.064 304.644 155.08 304.748C154.16 304.86 153.388 304.952 152.764 305.024C152.148 305.104 151.644 305.172 151.252 305.228C150.868 305.284 150.572 305.328 150.364 305.36C150.156 305.4 149.996 305.432 149.884 305.456C149.78 305.488 149.696 305.516 149.632 305.54ZM149.632 305.54C149.616 305.476 149.588 305.388 149.548 305.276C149.516 305.164 149.476 305.052 149.428 304.94C149.388 304.82 149.352 304.72 149.32 304.64C149.44 304.616 149.56 304.536 149.68 304.4C149.808 304.264 149.944 304.084 150.088 303.86C150.176 303.756 150.296 303.58 150.448 303.332C150.6 303.084 150.768 302.792 150.952 302.456C151.144 302.12 151.332 301.76 151.516 301.376C151.708 300.984 151.88 300.592 152.032 300.2L152.992 300.524C152.736 301.076 152.456 301.624 152.152 302.168C151.856 302.712 151.544 303.228 151.216 303.716C150.896 304.196 150.576 304.632 150.256 305.024V305.048C150.256 305.048 150.224 305.064 150.16 305.096C150.096 305.128 150.02 305.168 149.932 305.216C149.852 305.272 149.78 305.328 149.716 305.384C149.66 305.448 149.632 305.5 149.632 305.54ZM159.784 297.32H165.952V298.124H159.784V297.32ZM160.12 299.84H165.664V300.62H160.12V299.84ZM159.616 302.648H166.204V303.416H159.616V302.648ZM162.388 297.572H163.24V303.068H162.388V297.572ZM163.984 301.16L164.572 300.836C164.804 301.028 165.032 301.248 165.256 301.496C165.488 301.744 165.668 301.964 165.796 302.156L165.172 302.528C165.052 302.336 164.88 302.112 164.656 301.856C164.432 301.592 164.208 301.36 163.984 301.16ZM157.912 295.46H167.848V305.96H166.9V296.3H158.824V305.96H157.912V295.46ZM158.392 304.52H167.332V305.36H158.392V304.52Z" fill="#76848D"/>
<path d="M85.5403 256.39H79.6043V255.2H87.0383V255.998L82.1663 265H80.8363L85.5403 256.39ZM87.0347 264.202C87.0347 263.81 87.3987 263.418 87.9027 263.418C88.3647 263.418 88.7427 263.81 88.7427 264.202C88.7427 264.65 88.3927 265.028 87.9027 265.028C87.3987 265.028 87.0347 264.65 87.0347 264.202ZM89.7882 257.804L89.3402 256.754L92.7002 255.144H93.4982V265H92.2942V256.642L89.7882 257.804ZM97.7196 265.21L96.7956 264.678L104.034 254.892L104.916 255.536L97.7196 265.21ZM95.2836 257.552C95.2836 256.852 95.5216 256.278 96.0116 255.83C96.5016 255.382 97.1036 255.158 97.8456 255.158C98.5736 255.158 99.1756 255.382 99.6656 255.83C100.156 256.278 100.394 256.852 100.394 257.552C100.394 258.238 100.156 258.812 99.6656 259.26C99.1756 259.708 98.5736 259.932 97.8456 259.932C97.1036 259.932 96.5016 259.708 96.0116 259.26C95.5216 258.812 95.2836 258.238 95.2836 257.552ZM96.4596 257.552C96.4596 258.35 97.1036 258.938 97.8456 258.938C98.6156 258.938 99.2176 258.378 99.2176 257.552C99.2176 256.726 98.5876 256.166 97.8456 256.166C97.0756 256.166 96.4596 256.726 96.4596 257.552ZM102.018 264.384C101.528 263.936 101.29 263.362 101.29 262.662C101.29 261.962 101.528 261.388 102.018 260.94C102.508 260.506 103.11 260.282 103.852 260.282C104.58 260.282 105.182 260.506 105.672 260.94C106.162 261.388 106.4 261.962 106.4 262.662C106.4 263.348 106.162 263.922 105.672 264.37C105.182 264.832 104.58 265.056 103.852 265.056C103.11 265.056 102.508 264.832 102.018 264.384ZM102.466 262.662C102.466 263.46 103.11 264.048 103.852 264.048C104.622 264.048 105.224 263.488 105.224 262.662C105.224 261.836 104.594 261.276 103.852 261.276C103.082 261.276 102.466 261.836 102.466 262.662Z" fill="#1A3341"/>
<path d="M73.112 284.328H81.452V285.168H73.112V284.328ZM72.596 278.316H81.968V285.876H81.068V279.144H73.472V285.912H72.596V278.316ZM71.948 275.7H82.508V276.576H71.948V275.7ZM75.512 276.228H76.328V278.796C76.328 279.252 76.272 279.72 76.16 280.2C76.048 280.68 75.824 281.14 75.488 281.58C75.16 282.012 74.664 282.392 74 282.72C73.968 282.656 73.92 282.584 73.856 282.504C73.792 282.416 73.724 282.332 73.652 282.252C73.58 282.164 73.516 282.1 73.46 282.06C74.068 281.772 74.516 281.448 74.804 281.088C75.092 280.72 75.28 280.34 75.368 279.948C75.464 279.556 75.512 279.164 75.512 278.772V276.228ZM78.056 276.216H78.932V281.04C78.932 281.2 78.956 281.304 79.004 281.352C79.052 281.392 79.18 281.412 79.388 281.412C79.436 281.412 79.524 281.412 79.652 281.412C79.78 281.412 79.924 281.412 80.084 281.412C80.244 281.412 80.392 281.412 80.528 281.412C80.664 281.412 80.764 281.412 80.828 281.412C80.932 281.412 81.004 281.408 81.044 281.4C81.084 281.392 81.108 281.376 81.116 281.352C81.212 281.416 81.332 281.48 81.476 281.544C81.628 281.6 81.772 281.644 81.908 281.676C81.852 281.892 81.748 282.044 81.596 282.132C81.452 282.22 81.224 282.264 80.912 282.264C80.856 282.264 80.748 282.264 80.588 282.264C80.436 282.264 80.268 282.264 80.084 282.264C79.9 282.264 79.732 282.264 79.58 282.264C79.428 282.264 79.328 282.264 79.28 282.264C78.96 282.264 78.712 282.232 78.536 282.168C78.36 282.096 78.236 281.972 78.164 281.796C78.092 281.62 78.056 281.368 78.056 281.04V276.216ZM90.452 275.748H94.412V276.576H90.452V275.748ZM89.648 284.688H94.64V285.528H89.648V284.688ZM90.656 280.14H94.22V280.956H90.656V280.14ZM91.976 276.072H92.828V285.132H91.976V276.072ZM89.372 274.92H90.188V280.044C90.188 280.66 90.156 281.248 90.092 281.808C90.036 282.36 89.92 282.888 89.744 283.392C89.568 283.888 89.308 284.352 88.964 284.784C88.62 285.216 88.16 285.612 87.584 285.972C87.544 285.908 87.492 285.832 87.428 285.744C87.364 285.664 87.292 285.584 87.212 285.504C87.14 285.432 87.076 285.372 87.02 285.324C87.54 285.004 87.956 284.652 88.268 284.268C88.58 283.876 88.816 283.46 88.976 283.02C89.136 282.572 89.24 282.1 89.288 281.604C89.344 281.1 89.372 280.58 89.372 280.044V274.92ZM83.624 275.808H87.152V276.636H83.624V275.808ZM83.792 279.672H86.972V280.488H83.792V279.672ZM83.492 284.112C83.964 284.008 84.524 283.88 85.172 283.728C85.828 283.568 86.496 283.404 87.176 283.236L87.272 284.052C86.64 284.22 86.008 284.384 85.376 284.544C84.744 284.696 84.172 284.836 83.66 284.964L83.492 284.112ZM84.98 276.12H85.808V283.968L84.98 284.148V276.12ZM87.632 277.404L88.364 277.488C88.356 278.032 88.336 278.572 88.304 279.108C88.28 279.644 88.224 280.148 88.136 280.62C88.048 281.092 87.912 281.5 87.728 281.844L87.068 281.376C87.228 281.08 87.348 280.724 87.428 280.308C87.508 279.884 87.56 279.424 87.584 278.928C87.616 278.432 87.632 277.924 87.632 277.404ZM97.292 279.684H106.268V280.56H97.292V279.684ZM96.452 275.556H105.704V276.432H96.452V275.556ZM102.644 275.904H103.556V284.784C103.556 285.08 103.512 285.304 103.424 285.456C103.344 285.608 103.208 285.72 103.016 285.792C102.824 285.864 102.56 285.912 102.224 285.936C101.888 285.96 101.46 285.968 100.94 285.96C100.924 285.88 100.896 285.784 100.856 285.672C100.824 285.56 100.784 285.448 100.736 285.336C100.696 285.232 100.648 285.136 100.592 285.048C101 285.064 101.364 285.072 101.684 285.072C102.012 285.072 102.232 285.072 102.344 285.072C102.456 285.064 102.532 285.04 102.572 285C102.62 284.96 102.644 284.888 102.644 284.784V275.904ZM102.068 279.996L102.86 280.368C102.468 280.888 102.012 281.392 101.492 281.88C100.972 282.36 100.416 282.816 99.824 283.248C99.232 283.68 98.624 284.072 98 284.424C97.384 284.768 96.776 285.06 96.176 285.3C96.12 285.22 96.056 285.132 95.984 285.036C95.912 284.948 95.836 284.856 95.756 284.76C95.676 284.664 95.6 284.58 95.528 284.508C96.128 284.3 96.736 284.036 97.352 283.716C97.976 283.396 98.58 283.036 99.164 282.636C99.748 282.236 100.288 281.812 100.784 281.364C101.28 280.916 101.708 280.46 102.068 279.996ZM97.568 276.972L98.456 277.068C98.368 277.452 98.268 277.86 98.156 278.292C98.052 278.716 97.944 279.128 97.832 279.528C97.72 279.92 97.616 280.264 97.52 280.56H96.608C96.712 280.248 96.82 279.884 96.932 279.468C97.052 279.052 97.164 278.628 97.268 278.196C97.38 277.756 97.48 277.348 97.568 276.972Z" fill="#76848D"/>
<path d="M27.7173 206.366C27.7173 204.672 28.1373 203.37 28.9633 202.446C29.7893 201.536 30.8253 201.074 32.0713 201.074C33.7093 201.074 34.9973 201.816 35.5433 202.992L34.5913 203.636C34.0173 202.726 33.1633 202.278 32.0153 202.278C31.1473 202.278 30.4193 202.614 29.8313 203.286C29.2433 203.972 28.9493 204.896 28.9633 206.086C29.5093 205.064 30.7833 204.448 32.1833 204.448C33.3173 204.448 34.2273 204.742 34.8853 205.344C35.5433 205.946 35.8793 206.744 35.8793 207.724C35.8793 208.718 35.5153 209.544 34.7733 210.174C34.0313 210.804 33.1073 211.126 32.0013 211.126C29.3553 211.126 27.7173 209.404 27.7173 206.366ZM29.1173 207.556C29.3833 208.942 30.4333 209.922 31.9873 209.922C32.7433 209.922 33.3733 209.726 33.8633 209.32C34.3533 208.928 34.5913 208.41 34.5913 207.78C34.5913 206.394 33.6113 205.652 32.1133 205.652C31.2873 205.652 30.6013 205.848 30.0693 206.24C29.5233 206.632 29.2153 207.066 29.1173 207.556ZM36.9859 210.202C36.9859 209.81 37.3499 209.418 37.8539 209.418C38.3159 209.418 38.6939 209.81 38.6939 210.202C38.6939 210.65 38.3439 211.028 37.8539 211.028C37.3499 211.028 36.9859 210.65 36.9859 210.202ZM40.9714 204.434L39.9494 204.07C40.2994 202.334 41.6154 201.088 43.7014 201.088C45.7174 201.088 46.9494 202.25 46.9494 204.028C46.9494 204.966 46.5434 205.904 46.0394 206.576C45.7874 206.926 45.4654 207.262 45.0874 207.612C44.3174 208.298 43.7714 208.662 42.9734 209.166L41.8954 209.838H47.3134V211H39.6834V210.048L41.8114 208.634C42.1894 208.396 42.4554 208.214 42.6094 208.102C42.7634 208.004 43.0154 207.822 43.3514 207.584C43.6874 207.346 43.9394 207.136 44.1074 206.982C44.2614 206.828 44.4714 206.632 44.7094 206.38C45.3534 205.68 45.5914 205.036 45.6614 204.154C45.6614 202.88 44.8354 202.306 43.6174 202.306C42.8614 202.306 42.2594 202.516 41.8254 202.936C41.3914 203.356 41.0974 203.86 40.9714 204.434ZM50.7196 211.21L49.7956 210.678L57.0336 200.892L57.9156 201.536L50.7196 211.21ZM48.2836 203.552C48.2836 202.852 48.5216 202.278 49.0116 201.83C49.5016 201.382 50.1036 201.158 50.8456 201.158C51.5736 201.158 52.1756 201.382 52.6656 201.83C53.1556 202.278 53.3936 202.852 53.3936 203.552C53.3936 204.238 53.1556 204.812 52.6656 205.26C52.1756 205.708 51.5736 205.932 50.8456 205.932C50.1036 205.932 49.5016 205.708 49.0116 205.26C48.5216 204.812 48.2836 204.238 48.2836 203.552ZM49.4596 203.552C49.4596 204.35 50.1036 204.938 50.8456 204.938C51.6156 204.938 52.2176 204.378 52.2176 203.552C52.2176 202.726 51.5876 202.166 50.8456 202.166C50.0756 202.166 49.4596 202.726 49.4596 203.552ZM55.0176 210.384C54.5276 209.936 54.2896 209.362 54.2896 208.662C54.2896 207.962 54.5276 207.388 55.0176 206.94C55.5076 206.506 56.1096 206.282 56.8516 206.282C57.5796 206.282 58.1816 206.506 58.6716 206.94C59.1616 207.388 59.3996 207.962 59.3996 208.662C59.3996 209.348 59.1616 209.922 58.6716 210.37C58.1816 210.832 57.5796 211.056 56.8516 211.056C56.1096 211.056 55.5076 210.832 55.0176 210.384ZM55.4656 208.662C55.4656 209.46 56.1096 210.048 56.8516 210.048C57.6216 210.048 58.2236 209.488 58.2236 208.662C58.2236 207.836 57.5936 207.276 56.8516 207.276C56.0816 207.276 55.4656 207.836 55.4656 208.662Z" fill="#1A3341"/>
<path d="M40.956 222.66H47.016V223.5H40.956V222.66ZM40.98 225.612H46.284V226.428H40.98V225.612ZM43.404 220.908H44.28V226.044H43.404V220.908ZM40.488 222.66H41.352V225.696C41.352 226.168 41.332 226.676 41.292 227.22C41.26 227.756 41.188 228.304 41.076 228.864C40.972 229.424 40.816 229.972 40.608 230.508C40.408 231.036 40.136 231.516 39.792 231.948C39.744 231.9 39.672 231.844 39.576 231.78C39.488 231.724 39.396 231.668 39.3 231.612C39.204 231.564 39.12 231.528 39.048 231.504C39.376 231.08 39.636 230.624 39.828 230.136C40.02 229.64 40.164 229.136 40.26 228.624C40.356 228.104 40.416 227.596 40.44 227.1C40.472 226.596 40.488 226.124 40.488 225.684V222.66ZM46.776 222.66H46.92L47.076 222.624L47.724 222.792C47.572 223.224 47.404 223.664 47.22 224.112C47.044 224.552 46.872 224.928 46.704 225.24L45.924 224.988C46.068 224.708 46.216 224.368 46.368 223.968C46.528 223.56 46.664 223.172 46.776 222.804V222.66ZM42.384 226.092C42.672 226.916 43.068 227.672 43.572 228.36C44.084 229.04 44.696 229.624 45.408 230.112C46.128 230.592 46.94 230.952 47.844 231.192C47.78 231.248 47.708 231.32 47.628 231.408C47.556 231.504 47.484 231.6 47.412 231.696C47.348 231.792 47.296 231.88 47.256 231.96C45.856 231.528 44.688 230.824 43.752 229.848C42.816 228.872 42.104 227.696 41.616 226.32L42.384 226.092ZM37.344 221.676L37.86 221.04C38.1 221.152 38.352 221.284 38.616 221.436C38.88 221.588 39.128 221.744 39.36 221.904C39.6 222.056 39.796 222.2 39.948 222.336L39.42 223.056C39.268 222.92 39.076 222.772 38.844 222.612C38.612 222.444 38.364 222.28 38.1 222.12C37.836 221.952 37.584 221.804 37.344 221.676ZM36.696 224.928L37.2 224.256C37.44 224.368 37.696 224.496 37.968 224.64C38.24 224.776 38.496 224.92 38.736 225.072C38.976 225.216 39.176 225.352 39.336 225.48L38.82 226.224C38.668 226.088 38.472 225.944 38.232 225.792C37.992 225.632 37.736 225.476 37.464 225.324C37.192 225.172 36.936 225.04 36.696 224.928ZM36.984 231.252C37.176 230.94 37.384 230.572 37.608 230.148C37.84 229.716 38.072 229.26 38.304 228.78C38.536 228.3 38.752 227.836 38.952 227.388L39.66 227.928C39.484 228.344 39.288 228.78 39.072 229.236C38.856 229.692 38.636 230.14 38.412 230.58C38.196 231.02 37.984 231.428 37.776 231.804L36.984 231.252ZM45.948 225.612H46.14L46.308 225.588L46.872 225.84C46.576 226.944 46.148 227.9 45.588 228.708C45.036 229.508 44.388 230.176 43.644 230.712C42.9 231.248 42.1 231.672 41.244 231.984C41.204 231.912 41.148 231.828 41.076 231.732C41.012 231.636 40.944 231.54 40.872 231.444C40.8 231.356 40.728 231.288 40.656 231.24C41.496 230.96 42.268 230.58 42.972 230.1C43.684 229.62 44.296 229.024 44.808 228.312C45.328 227.6 45.708 226.76 45.948 225.792V225.612ZM50.664 221.328L51.408 220.956C51.592 221.172 51.776 221.408 51.96 221.664C52.152 221.912 52.328 222.156 52.488 222.396C52.648 222.636 52.772 222.852 52.86 223.044L52.056 223.476C51.976 223.284 51.86 223.064 51.708 222.816C51.556 222.56 51.388 222.304 51.204 222.048C51.028 221.792 50.848 221.552 50.664 221.328ZM56.712 220.92L57.636 221.22C57.452 221.54 57.252 221.872 57.036 222.216C56.828 222.552 56.616 222.876 56.4 223.188C56.184 223.5 55.98 223.776 55.788 224.016L55.032 223.74C55.216 223.492 55.412 223.204 55.62 222.876C55.828 222.548 56.028 222.212 56.22 221.868C56.42 221.516 56.584 221.2 56.712 220.92ZM49.908 226.932H58.152V227.832H49.908V226.932ZM48.78 230.46H59.412V231.348H48.78V230.46ZM49.26 223.632H58.992V224.52H49.26V223.632Z" fill="#76848D"/>
<path d="M2.77395 144.366C2.77395 142.672 3.19395 141.37 4.01995 140.446C4.84595 139.536 5.88195 139.074 7.12795 139.074C8.76595 139.074 10.054 139.816 10.6 140.992L9.64795 141.636C9.07395 140.726 8.21995 140.278 7.07195 140.278C6.20395 140.278 5.47595 140.614 4.88795 141.286C4.29995 141.972 4.00595 142.896 4.01995 144.086C4.56595 143.064 5.83995 142.448 7.23995 142.448C8.37395 142.448 9.28395 142.742 9.94195 143.344C10.6 143.946 10.936 144.744 10.936 145.724C10.936 146.718 10.572 147.544 9.82995 148.174C9.08795 148.804 8.16395 149.126 7.05795 149.126C4.41195 149.126 2.77395 147.404 2.77395 144.366ZM4.17395 145.556C4.43995 146.942 5.48995 147.922 7.04395 147.922C7.79995 147.922 8.42995 147.726 8.91995 147.32C9.40995 146.928 9.64795 146.41 9.64795 145.78C9.64795 144.394 8.66795 143.652 7.16995 143.652C6.34395 143.652 5.65795 143.848 5.12595 144.24C4.57995 144.632 4.27195 145.066 4.17395 145.556ZM12.0425 148.202C12.0425 147.81 12.4065 147.418 12.9105 147.418C13.3725 147.418 13.7505 147.81 13.7505 148.202C13.7505 148.65 13.4005 149.028 12.9105 149.028C12.4065 149.028 12.0425 148.65 12.0425 148.202ZM14.908 144.1C14.908 142.588 15.258 141.37 15.972 140.46C16.672 139.55 17.708 139.088 19.066 139.088C21.852 139.088 23.238 140.922 23.238 144.1C23.238 145.626 22.888 146.83 22.202 147.74C21.502 148.65 20.466 149.112 19.094 149.112C17.778 149.112 16.756 148.65 16.014 147.726C15.272 146.802 14.908 145.598 14.908 144.1ZM16.196 144.1C16.196 146.494 17.288 147.922 19.094 147.922C20.998 147.922 21.95 146.648 21.95 144.1C21.95 141.552 20.984 140.278 19.066 140.278C17.12 140.278 16.196 141.678 16.196 144.1ZM26.7196 149.21L25.7956 148.678L33.0336 138.892L33.9156 139.536L26.7196 149.21ZM24.2836 141.552C24.2836 140.852 24.5216 140.278 25.0116 139.83C25.5016 139.382 26.1036 139.158 26.8456 139.158C27.5736 139.158 28.1756 139.382 28.6656 139.83C29.1556 140.278 29.3936 140.852 29.3936 141.552C29.3936 142.238 29.1556 142.812 28.6656 143.26C28.1756 143.708 27.5736 143.932 26.8456 143.932C26.1036 143.932 25.5016 143.708 25.0116 143.26C24.5216 142.812 24.2836 142.238 24.2836 141.552ZM25.4596 141.552C25.4596 142.35 26.1036 142.938 26.8456 142.938C27.6156 142.938 28.2176 142.378 28.2176 141.552C28.2176 140.726 27.5876 140.166 26.8456 140.166C26.0756 140.166 25.4596 140.726 25.4596 141.552ZM31.0176 148.384C30.5276 147.936 30.2896 147.362 30.2896 146.662C30.2896 145.962 30.5276 145.388 31.0176 144.94C31.5076 144.506 32.1096 144.282 32.8516 144.282C33.5796 144.282 34.1816 144.506 34.6716 144.94C35.1616 145.388 35.3996 145.962 35.3996 146.662C35.3996 147.348 35.1616 147.922 34.6716 148.37C34.1816 148.832 33.5796 149.056 32.8516 149.056C32.1096 149.056 31.5076 148.832 31.0176 148.384ZM31.4656 146.662C31.4656 147.46 32.1096 148.048 32.8516 148.048C33.6216 148.048 34.2236 147.488 34.2236 146.662C34.2236 145.836 33.5936 145.276 32.8516 145.276C32.0816 145.276 31.4656 145.836 31.4656 146.662Z" fill="#1A3341"/>
<path d="M2.388 162.628H5.712V163.528H2.388V162.628ZM10.62 161.128L11.376 161.92C11.016 162.232 10.612 162.544 10.164 162.856C9.724 163.168 9.264 163.468 8.784 163.756C8.312 164.044 7.844 164.32 7.38 164.584C7.348 164.48 7.288 164.36 7.2 164.224C7.112 164.088 7.028 163.976 6.948 163.888C7.396 163.64 7.844 163.36 8.292 163.048C8.748 162.728 9.176 162.404 9.576 162.076C9.984 161.748 10.332 161.432 10.62 161.128ZM6.648 158.98H7.572V167.98C7.572 168.324 7.612 168.544 7.692 168.64C7.772 168.736 7.948 168.784 8.22 168.784C8.284 168.784 8.388 168.784 8.532 168.784C8.684 168.784 8.852 168.784 9.036 168.784C9.22 168.784 9.392 168.784 9.552 168.784C9.712 168.784 9.832 168.784 9.912 168.784C10.112 168.784 10.26 168.708 10.356 168.556C10.46 168.396 10.532 168.116 10.572 167.716C10.62 167.308 10.656 166.736 10.68 166C10.76 166.056 10.848 166.116 10.944 166.18C11.048 166.236 11.152 166.288 11.256 166.336C11.368 166.376 11.464 166.404 11.544 166.42C11.512 167.22 11.448 167.856 11.352 168.328C11.264 168.8 11.116 169.136 10.908 169.336C10.7 169.544 10.388 169.648 9.972 169.648C9.916 169.648 9.8 169.648 9.624 169.648C9.448 169.648 9.256 169.648 9.048 169.648C8.84 169.648 8.648 169.648 8.472 169.648C8.296 169.648 8.18 169.648 8.124 169.648C7.74 169.648 7.44 169.6 7.224 169.504C7.008 169.408 6.856 169.236 6.768 168.988C6.688 168.74 6.648 168.396 6.648 167.956V158.98ZM1.74 169.864C1.724 169.792 1.688 169.704 1.632 169.6C1.584 169.504 1.528 169.408 1.464 169.312C1.408 169.216 1.352 169.14 1.296 169.084C1.4 169.02 1.508 168.916 1.62 168.772C1.732 168.628 1.788 168.428 1.788 168.172V159.052H2.736V168.892C2.736 168.892 2.7 168.916 2.628 168.964C2.564 169.004 2.484 169.06 2.388 169.132C2.292 169.204 2.192 169.284 2.088 169.372C1.992 169.46 1.908 169.544 1.836 169.624C1.772 169.712 1.74 169.792 1.74 169.864ZM1.74 169.864L1.62 168.964L2.064 168.604L5.688 167.488C5.688 167.576 5.688 167.68 5.688 167.8C5.696 167.912 5.704 168.02 5.712 168.124C5.72 168.228 5.732 168.32 5.748 168.4C4.924 168.664 4.26 168.88 3.756 169.048C3.26 169.216 2.88 169.348 2.616 169.444C2.352 169.548 2.156 169.632 2.028 169.696C1.9 169.76 1.804 169.816 1.74 169.864ZM12.72 162.532H18.432V163.372H12.72V162.532ZM19.236 160.348H20.112V166.972H19.236V160.348ZM15.228 159.928H16.116V169.936H15.228V159.928ZM22.176 159.148H23.076V168.76C23.076 169.072 23.032 169.304 22.944 169.456C22.864 169.608 22.728 169.724 22.536 169.804C22.336 169.876 22.06 169.92 21.708 169.936C21.364 169.96 20.916 169.972 20.364 169.972C20.348 169.884 20.32 169.784 20.28 169.672C20.24 169.568 20.2 169.46 20.16 169.348C20.12 169.236 20.076 169.14 20.028 169.06C20.452 169.068 20.836 169.072 21.18 169.072C21.524 169.072 21.752 169.072 21.864 169.072C21.976 169.064 22.056 169.04 22.104 169C22.152 168.952 22.176 168.872 22.176 168.76V159.148ZM17.616 158.992L18.288 159.676C17.832 159.86 17.3 160.028 16.692 160.18C16.084 160.332 15.452 160.464 14.796 160.576C14.148 160.688 13.52 160.784 12.912 160.864C12.888 160.76 12.848 160.64 12.792 160.504C12.744 160.368 12.688 160.252 12.624 160.156C13.072 160.092 13.528 160.02 13.992 159.94C14.464 159.852 14.92 159.76 15.36 159.664C15.808 159.56 16.224 159.452 16.608 159.34C17 159.228 17.336 159.112 17.616 158.992ZM15.204 162.916L15.84 163.192C15.688 163.648 15.504 164.116 15.288 164.596C15.072 165.076 14.836 165.544 14.58 166C14.324 166.456 14.056 166.884 13.776 167.284C13.496 167.676 13.216 168.012 12.936 168.292C12.904 168.204 12.856 168.112 12.792 168.016C12.736 167.912 12.676 167.808 12.612 167.704C12.556 167.6 12.5 167.512 12.444 167.44C12.716 167.192 12.984 166.896 13.248 166.552C13.52 166.2 13.78 165.82 14.028 165.412C14.276 165.004 14.5 164.588 14.7 164.164C14.908 163.732 15.076 163.316 15.204 162.916ZM15.996 164.164C16.116 164.244 16.284 164.376 16.5 164.56C16.724 164.744 16.964 164.944 17.22 165.16C17.476 165.376 17.708 165.576 17.916 165.76C18.132 165.944 18.288 166.08 18.384 166.168L17.868 166.924C17.748 166.788 17.584 166.616 17.376 166.408C17.168 166.192 16.948 165.972 16.716 165.748C16.484 165.524 16.26 165.312 16.044 165.112C15.828 164.912 15.648 164.756 15.504 164.644L15.996 164.164ZM25.416 159.928H28.728V167.728H25.416V166.912H27.888V160.744H25.416V159.928ZM25.452 163.372H28.2V164.176H25.452V163.372ZM24.972 159.928H25.836V168.7H24.972V159.928ZM29.28 161.32H35.544V162.22H29.28V161.32ZM33.168 158.98H34.08V168.604C34.08 168.932 34.032 169.172 33.936 169.324C33.848 169.484 33.696 169.6 33.48 169.672C33.264 169.752 32.96 169.8 32.568 169.816C32.176 169.832 31.68 169.84 31.08 169.84C31.056 169.712 31.012 169.556 30.948 169.372C30.884 169.196 30.816 169.044 30.744 168.916C31.064 168.924 31.364 168.932 31.644 168.94C31.932 168.948 32.18 168.952 32.388 168.952C32.596 168.944 32.744 168.936 32.832 168.928C32.952 168.928 33.036 168.904 33.084 168.856C33.14 168.808 33.168 168.724 33.168 168.604V158.98ZM29.688 163.576L30.432 163.18C30.648 163.484 30.876 163.812 31.116 164.164C31.356 164.516 31.58 164.856 31.788 165.184C32.004 165.512 32.18 165.8 32.316 166.048L31.524 166.504C31.396 166.256 31.228 165.964 31.02 165.628C30.82 165.284 30.6 164.932 30.36 164.572C30.128 164.212 29.904 163.88 29.688 163.576Z" fill="#76848D"/>
<path d="M20.618 90H19.4V87.998H13.408V87.186L19.54 80.2H20.618V86.864H22.438V87.998H20.618V90ZM19.4 82.16L15.088 86.864H19.4V82.16ZM23.2202 89.202C23.2202 88.81 23.5842 88.418 24.0882 88.418C24.5502 88.418 24.9282 88.81 24.9282 89.202C24.9282 89.65 24.5782 90.028 24.0882 90.028C23.5842 90.028 23.2202 89.65 23.2202 89.202ZM34.2337 84.918C34.2337 86.584 33.8417 87.872 33.0437 88.768C32.2457 89.678 31.1817 90.126 29.8517 90.126C28.2277 90.126 26.9537 89.44 26.3237 88.39L27.3317 87.69C27.8917 88.474 28.9137 88.922 30.0197 88.922C30.9297 88.922 31.6577 88.558 32.2317 87.83C32.8057 87.116 33.0437 86.22 32.9737 85.156C32.5117 86.22 31.3497 87.004 29.7957 87.004C28.7037 87.004 27.8077 86.696 27.1077 86.066C26.3937 85.45 26.0437 84.638 26.0437 83.644C26.0437 82.552 26.4217 81.684 27.1777 81.04C27.9337 80.396 28.9417 80.074 30.1877 80.074C32.7077 80.074 34.2337 81.838 34.2337 84.918ZM32.7637 83.602C32.5537 82.3 31.6577 81.278 30.0477 81.278C28.3677 81.278 27.3317 82.146 27.3317 83.602C27.3317 84.988 28.3817 85.8 30.0197 85.8C30.7617 85.8 31.3917 85.576 31.8817 85.128C32.3717 84.68 32.6657 84.176 32.7637 83.602ZM37.7196 90.21L36.7956 89.678L44.0336 79.892L44.9156 80.536L37.7196 90.21ZM35.2836 82.552C35.2836 81.852 35.5216 81.278 36.0116 80.83C36.5016 80.382 37.1036 80.158 37.8456 80.158C38.5736 80.158 39.1756 80.382 39.6656 80.83C40.1556 81.278 40.3936 81.852 40.3936 82.552C40.3936 83.238 40.1556 83.812 39.6656 84.26C39.1756 84.708 38.5736 84.932 37.8456 84.932C37.1036 84.932 36.5016 84.708 36.0116 84.26C35.5216 83.812 35.2836 83.238 35.2836 82.552ZM36.4596 82.552C36.4596 83.35 37.1036 83.938 37.8456 83.938C38.6156 83.938 39.2176 83.378 39.2176 82.552C39.2176 81.726 38.5876 81.166 37.8456 81.166C37.0756 81.166 36.4596 81.726 36.4596 82.552ZM42.0176 89.384C41.5276 88.936 41.2896 88.362 41.2896 87.662C41.2896 86.962 41.5276 86.388 42.0176 85.94C42.5076 85.506 43.1096 85.282 43.8516 85.282C44.5796 85.282 45.1816 85.506 45.6716 85.94C46.1616 86.388 46.3996 86.962 46.3996 87.662C46.3996 88.348 46.1616 88.922 45.6716 89.37C45.1816 89.832 44.5796 90.056 43.8516 90.056C43.1096 90.056 42.5076 89.832 42.0176 89.384ZM42.4656 87.662C42.4656 88.46 43.1096 89.048 43.8516 89.048C44.6216 89.048 45.2236 88.488 45.2236 87.662C45.2236 86.836 44.5936 86.276 43.8516 86.276C43.0816 86.276 42.4656 86.836 42.4656 87.662Z" fill="#1A3341"/>
<path d="M17.936 108.572H21.668V109.436H17.936V108.572ZM17.612 101.036H22.076V110.336H21.164V101.9H18.488V110.42H17.612V101.036ZM14.204 100.928H15.092V110.936H14.204V100.928ZM11.84 103.472H17.192V104.312H11.84V103.472ZM14.156 103.772L14.792 103.988C14.648 104.46 14.476 104.944 14.276 105.44C14.076 105.928 13.852 106.408 13.604 106.88C13.364 107.352 13.112 107.792 12.848 108.2C12.584 108.6 12.316 108.944 12.044 109.232C11.996 109.104 11.92 108.96 11.816 108.8C11.72 108.64 11.632 108.504 11.552 108.392C11.808 108.136 12.064 107.832 12.32 107.48C12.576 107.12 12.82 106.732 13.052 106.316C13.284 105.9 13.492 105.476 13.676 105.044C13.868 104.604 14.028 104.18 14.156 103.772ZM16.508 100.028L17.108 100.736C16.684 100.896 16.196 101.044 15.644 101.18C15.092 101.308 14.52 101.42 13.928 101.516C13.336 101.612 12.764 101.692 12.212 101.756C12.196 101.652 12.16 101.532 12.104 101.396C12.056 101.26 12.008 101.14 11.96 101.036C12.488 100.964 13.036 100.88 13.604 100.784C14.172 100.68 14.708 100.564 15.212 100.436C15.724 100.308 16.156 100.172 16.508 100.028ZM15.032 104.552C15.104 104.624 15.212 104.74 15.356 104.9C15.5 105.06 15.66 105.24 15.836 105.44C16.012 105.64 16.184 105.84 16.352 106.04C16.528 106.24 16.684 106.424 16.82 106.592C16.956 106.752 17.052 106.872 17.108 106.952L16.556 107.696C16.46 107.536 16.324 107.332 16.148 107.084C15.972 106.836 15.784 106.576 15.584 106.304C15.384 106.032 15.192 105.78 15.008 105.548C14.824 105.308 14.68 105.12 14.576 104.984L15.032 104.552ZM27.44 100.988H34.448V101.732H27.44V100.988ZM30.872 107.66H33.992V108.392H30.872V107.66ZM27.272 104.156H34.736V104.9H27.272V104.156ZM27.968 102.536H33.884V106.604H27.968V105.896H33.044V103.256H27.968V102.536ZM30.416 99.92H31.268V110.348L30.416 109.916V99.92ZM28.1 106.808L28.94 106.916C28.804 107.796 28.588 108.584 28.292 109.28C27.996 109.968 27.608 110.544 27.128 111.008C27.088 110.952 27.024 110.892 26.936 110.828C26.848 110.764 26.76 110.7 26.672 110.636C26.584 110.572 26.504 110.524 26.432 110.492C26.904 110.076 27.272 109.556 27.536 108.932C27.808 108.3 27.996 107.592 28.1 106.808ZM28.616 107.9C28.832 108.492 29.116 108.944 29.468 109.256C29.828 109.568 30.252 109.784 30.74 109.904C31.236 110.016 31.784 110.072 32.384 110.072C32.456 110.072 32.596 110.072 32.804 110.072C33.02 110.072 33.256 110.072 33.512 110.072C33.768 110.072 34.008 110.072 34.232 110.072C34.464 110.072 34.632 110.068 34.736 110.06C34.696 110.124 34.656 110.204 34.616 110.3C34.576 110.396 34.54 110.492 34.508 110.588C34.484 110.692 34.468 110.78 34.46 110.852H33.944H32.348C31.62 110.852 30.976 110.78 30.416 110.636C29.864 110.492 29.384 110.224 28.976 109.832C28.576 109.44 28.236 108.884 27.956 108.164L28.616 107.9ZM23.456 106.148C23.92 106.012 24.48 105.844 25.136 105.644C25.8 105.436 26.472 105.224 27.152 105.008L27.284 105.836C26.66 106.044 26.032 106.252 25.4 106.46C24.768 106.668 24.196 106.852 23.684 107.012L23.456 106.148ZM23.624 102.344H27.26V103.184H23.624V102.344ZM25.124 99.932H25.964V109.916C25.964 110.156 25.932 110.344 25.868 110.48C25.812 110.616 25.708 110.72 25.556 110.792C25.412 110.864 25.22 110.912 24.98 110.936C24.74 110.96 24.428 110.968 24.044 110.96C24.036 110.856 24.004 110.72 23.948 110.552C23.9 110.392 23.848 110.248 23.792 110.12C24.048 110.128 24.28 110.132 24.488 110.132C24.704 110.14 24.848 110.14 24.92 110.132C24.992 110.132 25.044 110.116 25.076 110.084C25.108 110.06 25.124 110.004 25.124 109.916V99.932ZM38.036 104.096V106.028H43.976V104.096H38.036ZM37.16 103.292H44.9V106.844H37.16V103.292ZM35.84 101.12H46.208V101.948H35.84V101.12ZM40.508 99.908H41.42V103.652H40.508V99.908ZM41.792 106.352H42.716V109.568C42.716 109.744 42.752 109.856 42.824 109.904C42.896 109.952 43.06 109.976 43.316 109.976C43.372 109.976 43.476 109.976 43.628 109.976C43.788 109.976 43.96 109.976 44.144 109.976C44.336 109.976 44.512 109.976 44.672 109.976C44.84 109.976 44.968 109.976 45.056 109.976C45.216 109.976 45.336 109.936 45.416 109.856C45.496 109.776 45.552 109.612 45.584 109.364C45.624 109.108 45.652 108.724 45.668 108.212C45.74 108.26 45.824 108.312 45.92 108.368C46.016 108.416 46.116 108.46 46.22 108.5C46.332 108.532 46.428 108.56 46.508 108.584C46.476 109.184 46.416 109.648 46.328 109.976C46.24 110.304 46.104 110.528 45.92 110.648C45.736 110.776 45.472 110.84 45.128 110.84C45.08 110.84 44.992 110.84 44.864 110.84C44.736 110.84 44.588 110.84 44.42 110.84C44.252 110.84 44.084 110.84 43.916 110.84C43.756 110.84 43.612 110.84 43.484 110.84C43.356 110.84 43.268 110.84 43.22 110.84C42.844 110.84 42.552 110.804 42.344 110.732C42.136 110.66 41.992 110.532 41.912 110.348C41.832 110.164 41.792 109.908 41.792 109.58V106.352ZM39.068 106.652H40.028C39.964 107.204 39.856 107.708 39.704 108.164C39.56 108.612 39.344 109.016 39.056 109.376C38.776 109.728 38.392 110.036 37.904 110.3C37.416 110.572 36.796 110.8 36.044 110.984C36.02 110.904 35.976 110.812 35.912 110.708C35.856 110.604 35.792 110.5 35.72 110.396C35.656 110.3 35.588 110.22 35.516 110.156C36.204 110.012 36.764 109.836 37.196 109.628C37.636 109.412 37.98 109.16 38.228 108.872C38.484 108.576 38.672 108.244 38.792 107.876C38.92 107.508 39.012 107.1 39.068 106.652Z" fill="#76848D"/>
<path d="M60.382 6.804L59.934 5.754L63.294 4.144H64.092V14H62.888V5.642L60.382 6.804ZM71.4915 5.39H65.5555V4.2H72.9895V4.998L68.1175 14H66.7875L71.4915 5.39ZM72.9859 13.202C72.9859 12.81 73.3499 12.418 73.8539 12.418C74.3159 12.418 74.6939 12.81 74.6939 13.202C74.6939 13.65 74.3439 14.028 73.8539 14.028C73.3499 14.028 72.9859 13.65 72.9859 13.202ZM76.9714 7.434L75.9494 7.07C76.2994 5.334 77.6154 4.088 79.7014 4.088C81.7174 4.088 82.9494 5.25 82.9494 7.028C82.9494 7.966 82.5434 8.904 82.0394 9.576C81.7874 9.926 81.4654 10.262 81.0874 10.612C80.3174 11.298 79.7714 11.662 78.9734 12.166L77.8954 12.838H83.3134V14H75.6834V13.048L77.8114 11.634C78.1894 11.396 78.4554 11.214 78.6094 11.102C78.7634 11.004 79.0154 10.822 79.3514 10.584C79.6874 10.346 79.9394 10.136 80.1074 9.982C80.2614 9.828 80.4714 9.632 80.7094 9.38C81.3534 8.68 81.5914 8.036 81.6614 7.154C81.6614 5.88 80.8354 5.306 79.6174 5.306C78.8614 5.306 78.2594 5.516 77.8254 5.936C77.3914 6.356 77.0974 6.86 76.9714 7.434ZM86.7196 14.21L85.7956 13.678L93.0336 3.892L93.9156 4.536L86.7196 14.21ZM84.2836 6.552C84.2836 5.852 84.5216 5.278 85.0116 4.83C85.5016 4.382 86.1036 4.158 86.8456 4.158C87.5736 4.158 88.1756 4.382 88.6656 4.83C89.1556 5.278 89.3936 5.852 89.3936 6.552C89.3936 7.238 89.1556 7.812 88.6656 8.26C88.1756 8.708 87.5736 8.932 86.8456 8.932C86.1036 8.932 85.5016 8.708 85.0116 8.26C84.5216 7.812 84.2836 7.238 84.2836 6.552ZM85.4596 6.552C85.4596 7.35 86.1036 7.938 86.8456 7.938C87.6156 7.938 88.2176 7.378 88.2176 6.552C88.2176 5.726 87.5876 5.166 86.8456 5.166C86.0756 5.166 85.4596 5.726 85.4596 6.552ZM91.0176 13.384C90.5276 12.936 90.2896 12.362 90.2896 11.662C90.2896 10.962 90.5276 10.388 91.0176 9.94C91.5076 9.506 92.1096 9.282 92.8516 9.282C93.5796 9.282 94.1816 9.506 94.6716 9.94C95.1616 10.388 95.3996 10.962 95.3996 11.662C95.3996 12.348 95.1616 12.922 94.6716 13.37C94.1816 13.832 93.5796 14.056 92.8516 14.056C92.1096 14.056 91.5076 13.832 91.0176 13.384ZM91.4656 11.662C91.4656 12.46 92.1096 13.048 92.8516 13.048C93.6216 13.048 94.2236 12.488 94.2236 11.662C94.2236 10.836 93.5936 10.276 92.8516 10.276C92.0816 10.276 91.4656 10.836 91.4656 11.662Z" fill="#1A3341"/>
<path d="M72.768 31.54H83.472V32.38H72.768V31.54ZM73.116 25.324H83.184V26.164H73.116V25.324ZM75.552 27.364H80.712V28.144H75.552V27.364ZM75.552 29.452H80.712V30.22H75.552V29.452ZM74.988 23.932H75.876V31.912H74.988V23.932ZM80.352 23.932H81.252V31.912H80.352V23.932ZM78.996 33.22L79.62 32.656C80.092 32.816 80.564 32.996 81.036 33.196C81.516 33.388 81.968 33.58 82.392 33.772C82.824 33.964 83.196 34.144 83.508 34.312L82.68 34.912C82.408 34.736 82.072 34.552 81.672 34.36C81.28 34.168 80.852 33.976 80.388 33.784C79.932 33.584 79.468 33.396 78.996 33.22ZM76.452 32.584L77.256 33.148C76.904 33.372 76.496 33.596 76.032 33.82C75.576 34.036 75.104 34.24 74.616 34.432C74.136 34.624 73.68 34.792 73.248 34.936C73.184 34.84 73.092 34.724 72.972 34.588C72.86 34.452 72.756 34.34 72.66 34.252C73.092 34.124 73.548 33.968 74.028 33.784C74.508 33.592 74.96 33.392 75.384 33.184C75.816 32.976 76.172 32.776 76.452 32.584ZM91.44 23.944H92.292V32.284H91.44V23.944ZM87.252 28.876L94.476 26.08L94.812 26.872L87.6 29.68L87.252 28.876ZM88.776 25.12H89.664V33.136C89.664 33.368 89.688 33.544 89.736 33.664C89.784 33.784 89.88 33.868 90.024 33.916C90.176 33.956 90.392 33.976 90.672 33.976C90.752 33.976 90.892 33.976 91.092 33.976C91.3 33.976 91.532 33.976 91.788 33.976C92.044 33.976 92.304 33.976 92.568 33.976C92.832 33.976 93.068 33.976 93.276 33.976C93.492 33.976 93.652 33.976 93.756 33.976C94.004 33.976 94.192 33.932 94.32 33.844C94.448 33.748 94.54 33.576 94.596 33.328C94.652 33.072 94.692 32.708 94.716 32.236C94.828 32.308 94.964 32.38 95.124 32.452C95.284 32.516 95.428 32.564 95.556 32.596C95.508 33.148 95.428 33.588 95.316 33.916C95.212 34.236 95.04 34.464 94.8 34.6C94.568 34.736 94.228 34.804 93.78 34.804C93.716 34.804 93.576 34.804 93.36 34.804C93.152 34.804 92.908 34.804 92.628 34.804C92.348 34.804 92.068 34.804 91.788 34.804C91.516 34.804 91.272 34.804 91.056 34.804C90.848 34.804 90.712 34.804 90.648 34.804C90.168 34.804 89.788 34.756 89.508 34.66C89.236 34.564 89.044 34.396 88.932 34.156C88.828 33.916 88.776 33.576 88.776 33.136V25.12ZM94.164 26.284H94.068L94.272 26.104L94.44 25.972L95.064 26.224L95.016 26.38C95.016 27.1 95.012 27.764 95.004 28.372C94.996 28.98 94.98 29.496 94.956 29.92C94.94 30.336 94.912 30.632 94.872 30.808C94.824 31.08 94.736 31.28 94.608 31.408C94.488 31.536 94.336 31.628 94.152 31.684C93.984 31.724 93.784 31.752 93.552 31.768C93.32 31.776 93.112 31.776 92.928 31.768C92.92 31.64 92.896 31.496 92.856 31.336C92.816 31.168 92.768 31.032 92.712 30.928C92.88 30.936 93.056 30.94 93.24 30.94C93.424 30.94 93.552 30.94 93.624 30.94C93.728 30.94 93.812 30.92 93.876 30.88C93.948 30.84 94.004 30.74 94.044 30.58C94.076 30.452 94.1 30.2 94.116 29.824C94.132 29.44 94.144 28.952 94.152 28.36C94.16 27.76 94.164 27.068 94.164 26.284ZM87.192 23.968L88.032 24.22C87.776 24.892 87.472 25.56 87.12 26.224C86.768 26.88 86.388 27.5 85.98 28.084C85.572 28.66 85.152 29.172 84.72 29.62C84.696 29.556 84.652 29.468 84.588 29.356C84.532 29.244 84.468 29.132 84.396 29.02C84.332 28.908 84.272 28.82 84.216 28.756C84.616 28.364 85 27.912 85.368 27.4C85.736 26.888 86.076 26.34 86.388 25.756C86.708 25.164 86.976 24.568 87.192 23.968ZM85.92 27.052L86.796 26.188L86.808 26.2V34.936H85.92V27.052Z" fill="#76848D"/>
<path d="M182 20C210.876 20 238.695 30.863 259.929 50.4304C281.164 69.9979 294.261 96.8377 296.617 125.617L282.863 126.743C280.789 101.417 269.264 77.7981 250.578 60.5788C231.891 43.3594 207.411 33.8 182 33.8V20Z" fill="url(#paint0_linear_7005_17830)"/>
<path d="M295.81 118.5C299.188 141.802 295.333 165.579 284.764 186.619C274.195 207.66 257.423 224.949 236.713 236.151L230.147 224.013C248.372 214.155 263.132 198.94 272.432 180.425C281.733 161.91 285.126 140.986 282.153 120.48L295.81 118.5Z" fill="url(#paint1_linear_7005_17830)"/>
<path d="M258.95 220.462C240.351 237.208 216.798 247.43 191.863 249.576L190.679 235.827C212.622 233.938 233.349 224.943 249.716 210.206L258.95 220.462Z" fill="url(#paint2_linear_7005_17830)"/>
<path d="M198.741 248.775C176.665 252.023 154.12 248.779 133.855 239.437L139.633 226.905C157.466 235.125 177.305 237.981 196.732 235.122L198.741 248.775Z" fill="url(#paint3_linear_7005_17830)"/>
<path d="M140.353 242.194C122.069 235.09 105.906 223.428 93.4012 208.316L104.033 199.518C115.038 212.817 129.261 223.08 145.351 229.331L140.353 242.194Z" fill="url(#paint4_linear_7005_17830)"/>
<path d="M97.9008 213.437C86.0221 200.701 77.1914 185.433 72.0748 168.785L85.2658 164.731C89.7684 179.381 97.5395 192.816 107.993 204.024L97.9008 213.437Z" fill="url(#paint5_linear_7005_17830)"/>
<path d="M74.3382 175.422C68.388 159.574 66.01 142.608 67.3738 125.735L81.129 126.847C79.9288 141.695 82.0215 156.625 87.2577 170.571L74.3382 175.422Z" fill="url(#paint6_linear_7005_17830)"/>
<path d="M67.024 132.649C67.3154 118.401 70.2526 104.33 75.686 91.1556L88.4437 96.4169C83.6623 108.011 81.0776 120.392 80.8212 132.931L67.024 132.649Z" fill="#AECEE5"/>
<path d="M73.2788 97.5207C81.0809 74.888 95.7518 55.2544 115.245 41.3579C134.739 27.4615 158.084 19.9951 182.023 20L182.021 33.8C160.954 33.7957 140.41 40.3661 123.256 52.595C106.102 64.8238 93.1912 82.1014 86.3253 102.018L73.2788 97.5207Z" fill="#DBE9EE"/>
<path d="M154.613 142.152V145H135.125V142.44L144.373 137.096C146.186 136.051 147.53 135.208 148.405 134.568C149.28 133.907 149.866 133.299 150.165 132.744C150.485 132.189 150.645 131.528 150.645 130.76V130.44C150.645 129.203 150.122 128.253 149.077 127.592C148.053 126.931 146.57 126.6 144.629 126.6C142.624 126.6 141.098 126.952 140.053 127.656C139.029 128.36 138.517 129.384 138.517 130.728V131.368H135.317V130.696C135.317 128.413 136.117 126.664 137.717 125.448C139.317 124.232 141.6 123.624 144.565 123.624C147.466 123.624 149.738 124.221 151.381 125.416C153.024 126.611 153.845 128.253 153.845 130.344V130.664C153.845 131.795 153.621 132.787 153.173 133.64C152.725 134.493 151.946 135.357 150.837 136.232C149.749 137.107 148.149 138.152 146.037 139.368L141.173 142.152H154.613ZM168.881 145.384C166.748 145.384 164.86 145 163.217 144.232C161.596 143.464 160.327 142.387 159.409 141C158.513 139.613 158.065 138.024 158.065 136.232V132.808C158.065 130.995 158.513 129.395 159.409 128.008C160.327 126.621 161.596 125.544 163.217 124.776C164.86 124.008 166.748 123.624 168.881 123.624C170.993 123.624 172.86 124.008 174.481 124.776C176.103 125.544 177.361 126.621 178.257 128.008C179.153 129.395 179.601 130.995 179.601 132.808V136.232C179.601 138.045 179.153 139.645 178.257 141.032C177.361 142.397 176.103 143.464 174.481 144.232C172.86 145 170.993 145.384 168.881 145.384ZM168.881 142.408C171.228 142.408 173.073 141.864 174.417 140.776C175.761 139.688 176.433 138.184 176.433 136.264V132.776C176.433 130.877 175.751 129.373 174.385 128.264C173.041 127.155 171.196 126.6 168.849 126.6C166.481 126.6 164.615 127.155 163.249 128.264C161.905 129.352 161.233 130.856 161.233 132.776V136.264C161.233 138.184 161.905 139.688 163.249 140.776C164.615 141.864 166.492 142.408 168.881 142.408ZM203.006 142.152V145H183.518V142.44L192.766 137.096C194.579 136.051 195.923 135.208 196.798 134.568C197.672 133.907 198.259 133.299 198.558 132.744C198.878 132.189 199.038 131.528 199.038 130.76V130.44C199.038 129.203 198.515 128.253 197.47 127.592C196.446 126.931 194.963 126.6 193.022 126.6C191.016 126.6 189.491 126.952 188.446 127.656C187.422 128.36 186.91 129.384 186.91 130.728V131.368H183.71V130.696C183.71 128.413 184.51 126.664 186.11 125.448C187.71 124.232 189.992 123.624 192.958 123.624C195.859 123.624 198.131 124.221 199.774 125.416C201.416 126.611 202.238 128.253 202.238 130.344V130.664C202.238 131.795 202.014 132.787 201.566 133.64C201.118 134.493 200.339 135.357 199.23 136.232C198.142 137.107 196.542 138.152 194.43 139.368L189.566 142.152H203.006ZM217.978 132.328C220.815 132.413 222.98 132.979 224.474 134.024C225.988 135.048 226.746 136.477 226.746 138.312V138.728C226.746 140.883 225.882 142.536 224.154 143.688C222.426 144.819 219.908 145.384 216.602 145.384C213.38 145.363 210.884 144.797 209.114 143.688C207.364 142.579 206.49 141.011 206.49 138.984V138.76H209.658V138.984C209.658 140.051 210.276 140.893 211.514 141.512C212.751 142.109 214.458 142.408 216.634 142.408C218.916 142.408 220.644 142.109 221.818 141.512C222.991 140.893 223.578 139.987 223.578 138.792V138.408C223.578 136.168 221.295 135.048 216.73 135.048H213.274V132.232L221.178 126.856H206.874V124.008H226.234V126.856L217.978 132.328Z" fill="#1A3341"/>
<defs>
<linearGradient id="paint0_linear_7005_17830" x1="188" y1="3.00004" x2="297" y2="122" gradientUnits="userSpaceOnUse">
<stop stop-color="#5358CC"/>
<stop offset="1" stop-color="#3B38CE"/>
</linearGradient>
<linearGradient id="paint1_linear_7005_17830" x1="297" y1="113.5" x2="187.5" y2="331" gradientUnits="userSpaceOnUse">
<stop stop-color="#6D73F9"/>
<stop offset="1" stop-color="#9BB8F1"/>
</linearGradient>
<linearGradient id="paint2_linear_7005_17830" x1="266.5" y1="216.5" x2="201.5" y2="250" gradientUnits="userSpaceOnUse">
<stop stop-color="#ACAEEA"/>
<stop offset="1" stop-color="#A4B9F0"/>
</linearGradient>
<linearGradient id="paint3_linear_7005_17830" x1="141.5" y1="233.5" x2="196.5" y2="241.5" gradientUnits="userSpaceOnUse">
<stop stop-color="#C9D2EA"/>
<stop offset="1" stop-color="#D1DCFB"/>
</linearGradient>
<linearGradient id="paint4_linear_7005_17830" x1="141.5" y1="233.5" x2="98" y2="190" gradientUnits="userSpaceOnUse">
<stop stop-color="#476DD3"/>
<stop offset="1" stop-color="#7094F1"/>
</linearGradient>
<linearGradient id="paint5_linear_7005_17830" x1="109" y1="204" x2="87.5" y2="168" gradientUnits="userSpaceOnUse">
<stop stop-color="#A0CEF7"/>
<stop offset="1" stop-color="#7FB1EC"/>
</linearGradient>
<linearGradient id="paint6_linear_7005_17830" x1="79.5" y1="174" x2="82" y2="126" gradientUnits="userSpaceOnUse">
<stop stop-color="#CADFF3"/>
<stop offset="1" stop-color="#D2E6FE"/>
</linearGradient>
</defs>
</svg>
