<svg width="335" height="595" viewBox="0 0 335 595" fill="none" xmlns="http://www.w3.org/2000/svg">
<path d="M44.8468 501.671H43.6288V499.669H37.6368V498.857L43.7688 491.871H44.8468V498.535H46.6668V499.669H44.8468V501.671ZM43.6288 493.831L39.3168 498.535H43.6288V493.831ZM47.449 500.873C47.449 500.481 47.813 500.089 48.317 500.089C48.779 500.089 49.157 500.481 49.157 500.873C49.157 501.321 48.807 501.699 48.317 501.699C47.813 501.699 47.449 501.321 47.449 500.873ZM51.7425 497.163L50.7345 496.897L51.3085 491.871H57.4685V493.061H52.3865L52.0225 495.693C52.5125 495.329 53.2545 495.147 54.2485 495.147C55.3965 495.147 56.2925 495.455 56.9505 496.057C57.5945 496.673 57.9165 497.457 57.9165 498.423C57.9165 499.389 57.5525 500.201 56.8385 500.831C56.1105 501.475 55.2005 501.797 54.1225 501.797C52.2885 501.797 50.7625 500.929 50.1325 499.403L51.2525 498.927C51.6585 499.865 52.7085 500.607 54.1225 500.607C55.7325 500.607 56.6285 499.683 56.6285 498.465C56.6285 497.163 55.5785 496.323 53.9125 496.323C53.0165 496.323 52.2885 496.603 51.7425 497.163Z" fill="#1A3341"/>
<path d="M34.5271 574.043L33.6511 573.731C33.9511 572.243 35.0791 571.175 36.8671 571.175C38.5951 571.175 39.6511 572.171 39.6511 573.695C39.6511 574.499 39.3031 575.303 38.8711 575.879C38.6551 576.179 38.3791 576.467 38.0551 576.767C37.3951 577.355 36.9271 577.667 36.2431 578.099L35.3191 578.675H39.9631V579.671H33.4231V578.855L35.2471 577.643C35.5711 577.439 35.7991 577.283 35.9311 577.187C36.0631 577.103 36.2791 576.947 36.5671 576.743C36.8551 576.539 37.0711 576.359 37.2151 576.227C37.3471 576.095 37.5271 575.927 37.7311 575.711C38.2831 575.111 38.4871 574.559 38.5471 573.803C38.5471 572.711 37.8391 572.219 36.7951 572.219C36.1471 572.219 35.6311 572.399 35.2591 572.759C34.8871 573.119 34.6351 573.551 34.5271 574.043ZM40.7948 575.471C40.7948 574.175 41.0948 573.131 41.7068 572.351C42.3068 571.571 43.1948 571.175 44.3588 571.175C46.7468 571.175 47.9348 572.747 47.9348 575.471C47.9348 576.779 47.6348 577.811 47.0468 578.591C46.4468 579.371 45.5588 579.767 44.3828 579.767C43.2548 579.767 42.3788 579.371 41.7428 578.579C41.1068 577.787 40.7948 576.755 40.7948 575.471ZM41.8988 575.471C41.8988 577.523 42.8348 578.747 44.3828 578.747C46.0148 578.747 46.8308 577.655 46.8308 575.471C46.8308 573.287 46.0028 572.195 44.3588 572.195C42.6908 572.195 41.8988 573.395 41.8988 575.471ZM49.791 574.043L48.915 573.731C49.215 572.243 50.343 571.175 52.131 571.175C53.859 571.175 54.915 572.171 54.915 573.695C54.915 574.499 54.567 575.303 54.135 575.879C53.919 576.179 53.643 576.467 53.319 576.767C52.659 577.355 52.191 577.667 51.507 578.099L50.583 578.675H55.227V579.671H48.687V578.855L50.511 577.643C50.835 577.439 51.063 577.283 51.195 577.187C51.327 577.103 51.543 576.947 51.831 576.743C52.119 576.539 52.335 576.359 52.479 576.227C52.611 576.095 52.791 575.927 52.995 575.711C53.547 575.111 53.751 574.559 53.811 573.803C53.811 572.711 53.103 572.219 52.059 572.219C51.411 572.219 50.895 572.399 50.523 572.759C50.151 573.119 49.899 573.551 49.791 574.043ZM56.8867 573.719L55.9867 573.311C56.4307 572.015 57.5947 571.163 59.3347 571.163C60.1627 571.163 60.8467 571.355 61.3747 571.739C61.9027 572.123 62.1667 572.639 62.1667 573.275C62.1667 574.247 61.6507 574.967 60.6907 575.243C61.6147 575.303 62.3587 575.999 62.3587 577.247C62.3587 578.039 62.0707 578.663 61.4947 579.107C60.9187 579.551 60.1867 579.779 59.2867 579.779C57.4507 579.779 56.1787 578.903 55.7587 577.523L56.7307 577.103C57.2467 578.195 58.1227 578.747 59.3587 578.747C60.5227 578.747 61.2547 578.207 61.2547 577.259C61.2547 576.335 60.5347 575.867 59.0947 575.867H58.1587V574.871H58.9027C60.2107 574.871 61.0627 574.283 61.0627 573.479C61.0627 572.651 60.3787 572.183 59.2867 572.183C58.0027 572.183 57.2227 572.843 56.8867 573.719ZM41.4256 589.471C41.4256 588.259 41.8336 587.227 42.6616 586.399C43.4896 585.571 44.4976 585.163 45.6976 585.163C46.8856 585.163 47.8936 585.571 48.7216 586.387C49.5496 587.203 49.9576 588.235 49.9576 589.471C49.9576 590.659 49.5136 591.715 48.6256 592.615L49.4656 593.623L48.7216 594.247L47.8576 593.203C47.1736 593.587 46.4536 593.779 45.6976 593.779C44.4736 593.779 43.4536 593.371 42.6496 592.555C41.8336 591.751 41.4256 590.719 41.4256 589.471ZM42.5656 589.471C42.5656 590.419 42.8656 591.199 43.4656 591.811C44.0656 592.423 44.8096 592.735 45.6976 592.735C46.2376 592.735 46.7296 592.603 47.1976 592.327L46.4776 591.463L47.1736 590.851L47.9416 591.775C48.5296 591.163 48.8176 590.395 48.8176 589.471C48.8176 588.523 48.5176 587.743 47.9176 587.131C47.3176 586.519 46.5736 586.207 45.6976 586.207C44.8096 586.207 44.0656 586.507 43.4656 587.119C42.8656 587.731 42.5656 588.523 42.5656 589.471ZM50.692 587.503L50.308 586.603L53.188 585.223H53.872V593.671H52.84V586.507L50.692 587.503Z" fill="#76848D"/>
<path d="M24 513.671C24 512.566 24.8954 511.671 26 511.671H70C71.1046 511.671 72 512.566 72 513.671V564.671H24V513.671Z" fill="url(#paint0_linear_5796_19167)"/>
<path opacity="0.2" d="M36 511.671H60V564.671H36V511.671Z" fill="url(#paint1_linear_5796_19167)"/>
<path opacity="0.04" d="M60 511.671H70C71.1046 511.671 72 512.566 72 513.671V564.671H60V511.671Z" fill="#0D262C"/>
<path opacity="0.5" d="M24 513.671C24 512.566 24.8954 511.671 26 511.671H36V564.671H24V513.671Z" fill="url(#paint2_linear_5796_19167)"/>
<path d="M118.215 473.366C118.215 471.672 118.635 470.37 119.461 469.446C120.287 468.536 121.323 468.074 122.569 468.074C124.207 468.074 125.495 468.816 126.041 469.992L125.089 470.636C124.515 469.726 123.661 469.278 122.513 469.278C121.645 469.278 120.917 469.614 120.329 470.286C119.741 470.972 119.447 471.896 119.461 473.086C120.007 472.064 121.281 471.448 122.681 471.448C123.815 471.448 124.725 471.742 125.383 472.344C126.041 472.946 126.377 473.744 126.377 474.724C126.377 475.718 126.013 476.544 125.271 477.174C124.529 477.804 123.605 478.126 122.499 478.126C119.853 478.126 118.215 476.404 118.215 473.366ZM119.615 474.556C119.881 475.942 120.931 476.922 122.485 476.922C123.241 476.922 123.871 476.726 124.361 476.32C124.851 475.928 125.089 475.41 125.089 474.78C125.089 473.394 124.109 472.652 122.611 472.652C121.785 472.652 121.099 472.848 120.567 473.24C120.021 473.632 119.713 474.066 119.615 474.556ZM127.483 477.202C127.483 476.81 127.847 476.418 128.351 476.418C128.813 476.418 129.191 476.81 129.191 477.202C129.191 477.65 128.841 478.028 128.351 478.028C127.847 478.028 127.483 477.65 127.483 477.202ZM131.315 471.056L130.265 470.58C130.783 469.068 132.141 468.074 134.171 468.074C135.137 468.074 135.935 468.298 136.551 468.746C137.167 469.194 137.475 469.796 137.475 470.538C137.475 471.672 136.873 472.512 135.753 472.834C136.831 472.904 137.699 473.716 137.699 475.172C137.699 476.096 137.363 476.824 136.691 477.342C136.019 477.86 135.165 478.126 134.115 478.126C131.973 478.126 130.489 477.104 129.999 475.494L131.133 475.004C131.735 476.278 132.757 476.922 134.199 476.922C135.557 476.922 136.411 476.292 136.411 475.186C136.411 474.108 135.571 473.562 133.891 473.562H132.799V472.4H133.667C135.193 472.4 136.187 471.714 136.187 470.776C136.187 469.81 135.389 469.264 134.115 469.264C132.617 469.264 131.707 470.034 131.315 471.056Z" fill="#1A3341"/>
<path d="M114.527 574.372L113.651 574.06C113.951 572.572 115.079 571.504 116.867 571.504C118.595 571.504 119.651 572.5 119.651 574.024C119.651 574.828 119.303 575.632 118.871 576.208C118.655 576.508 118.379 576.796 118.055 577.096C117.395 577.684 116.927 577.996 116.243 578.428L115.319 579.004H119.963V580H113.423V579.184L115.247 577.972C115.571 577.768 115.799 577.612 115.931 577.516C116.063 577.432 116.279 577.276 116.567 577.072C116.855 576.868 117.071 576.688 117.215 576.556C117.347 576.424 117.527 576.256 117.731 576.04C118.283 575.44 118.487 574.888 118.547 574.132C118.547 573.04 117.839 572.548 116.795 572.548C116.147 572.548 115.631 572.728 115.259 573.088C114.887 573.448 114.635 573.88 114.527 574.372ZM120.795 575.8C120.795 574.504 121.095 573.46 121.707 572.68C122.307 571.9 123.195 571.504 124.359 571.504C126.747 571.504 127.935 573.076 127.935 575.8C127.935 577.108 127.635 578.14 127.047 578.92C126.447 579.7 125.559 580.096 124.383 580.096C123.255 580.096 122.379 579.7 121.743 578.908C121.107 578.116 120.795 577.084 120.795 575.8ZM121.899 575.8C121.899 577.852 122.835 579.076 124.383 579.076C126.015 579.076 126.831 577.984 126.831 575.8C126.831 573.616 126.003 572.524 124.359 572.524C122.691 572.524 121.899 573.724 121.899 575.8ZM129.791 574.372L128.915 574.06C129.215 572.572 130.343 571.504 132.131 571.504C133.859 571.504 134.915 572.5 134.915 574.024C134.915 574.828 134.567 575.632 134.135 576.208C133.919 576.508 133.643 576.796 133.319 577.096C132.659 577.684 132.191 577.996 131.507 578.428L130.583 579.004H135.227V580H128.687V579.184L130.511 577.972C130.835 577.768 131.063 577.612 131.195 577.516C131.327 577.432 131.543 577.276 131.831 577.072C132.119 576.868 132.335 576.688 132.479 576.556C132.611 576.424 132.791 576.256 132.995 576.04C133.547 575.44 133.751 574.888 133.811 574.132C133.811 573.04 133.103 572.548 132.059 572.548C131.411 572.548 130.895 572.728 130.523 573.088C130.151 573.448 129.899 573.88 129.791 574.372ZM136.887 574.048L135.987 573.64C136.431 572.344 137.595 571.492 139.335 571.492C140.163 571.492 140.847 571.684 141.375 572.068C141.903 572.452 142.167 572.968 142.167 573.604C142.167 574.576 141.651 575.296 140.691 575.572C141.615 575.632 142.359 576.328 142.359 577.576C142.359 578.368 142.071 578.992 141.495 579.436C140.919 579.88 140.187 580.108 139.287 580.108C137.451 580.108 136.179 579.232 135.759 577.852L136.731 577.432C137.247 578.524 138.123 579.076 139.359 579.076C140.523 579.076 141.255 578.536 141.255 577.588C141.255 576.664 140.535 576.196 139.095 576.196H138.159V575.2H138.903C140.211 575.2 141.063 574.612 141.063 573.808C141.063 572.98 140.379 572.512 139.287 572.512C138.003 572.512 137.223 573.172 136.887 574.048ZM120.119 589.8C120.119 588.588 120.527 587.556 121.355 586.728C122.183 585.9 123.191 585.492 124.391 585.492C125.579 585.492 126.587 585.9 127.415 586.716C128.243 587.532 128.651 588.564 128.651 589.8C128.651 590.988 128.207 592.044 127.319 592.944L128.159 593.952L127.415 594.576L126.551 593.532C125.867 593.916 125.147 594.108 124.391 594.108C123.167 594.108 122.147 593.7 121.343 592.884C120.527 592.08 120.119 591.048 120.119 589.8ZM121.259 589.8C121.259 590.748 121.559 591.528 122.159 592.14C122.759 592.752 123.503 593.064 124.391 593.064C124.931 593.064 125.423 592.932 125.891 592.656L125.171 591.792L125.867 591.18L126.635 592.104C127.223 591.492 127.511 590.724 127.511 589.8C127.511 588.852 127.211 588.072 126.611 587.46C126.011 586.848 125.267 586.536 124.391 586.536C123.503 586.536 122.759 586.836 122.159 587.448C121.559 588.06 121.259 588.852 121.259 589.8ZM130.441 588.372L129.565 588.06C129.865 586.572 130.993 585.504 132.781 585.504C134.509 585.504 135.565 586.5 135.565 588.024C135.565 588.828 135.217 589.632 134.785 590.208C134.569 590.508 134.293 590.796 133.969 591.096C133.309 591.684 132.841 591.996 132.157 592.428L131.233 593.004H135.877V594H129.337V593.184L131.161 591.972C131.485 591.768 131.713 591.612 131.845 591.516C131.977 591.432 132.193 591.276 132.481 591.072C132.769 590.868 132.985 590.688 133.129 590.556C133.261 590.424 133.441 590.256 133.645 590.04C134.197 589.44 134.401 588.888 134.461 588.132C134.461 587.04 133.753 586.548 132.709 586.548C132.061 586.548 131.545 586.728 131.173 587.088C130.801 587.448 130.549 587.88 130.441 588.372Z" fill="#76848D"/>
<path d="M104 490C104 488.895 104.895 488 106 488H150C151.105 488 152 488.895 152 490V565H104V490Z" fill="url(#paint3_linear_5796_19167)"/>
<path opacity="0.2" d="M116 488H140V565H116V488Z" fill="url(#paint4_linear_5796_19167)"/>
<path opacity="0.04" d="M140 488H150C151.105 488 152 488.895 152 490V565H140V488Z" fill="#0D262C"/>
<path opacity="0.5" d="M104 490C104 488.895 104.895 488 106 488H116V565H104V490Z" fill="url(#paint5_linear_5796_19167)"/>
<path d="M204.58 497.493H203.362V495.491H197.37V494.679L203.502 487.693H204.58V494.357H206.4V495.491H204.58V497.493ZM203.362 489.653L199.05 494.357H203.362V489.653ZM207.182 496.695C207.182 496.303 207.546 495.911 208.05 495.911C208.512 495.911 208.89 496.303 208.89 496.695C208.89 497.143 208.54 497.521 208.05 497.521C207.546 497.521 207.182 497.143 207.182 496.695ZM218.196 492.411C218.196 494.077 217.804 495.365 217.006 496.261C216.208 497.171 215.144 497.619 213.814 497.619C212.19 497.619 210.916 496.933 210.286 495.883L211.294 495.183C211.854 495.967 212.876 496.415 213.982 496.415C214.892 496.415 215.62 496.051 216.194 495.323C216.768 494.609 217.006 493.713 216.936 492.649C216.474 493.713 215.312 494.497 213.758 494.497C212.666 494.497 211.77 494.189 211.07 493.559C210.356 492.943 210.006 492.131 210.006 491.137C210.006 490.045 210.384 489.177 211.14 488.533C211.896 487.889 212.904 487.567 214.15 487.567C216.67 487.567 218.196 489.331 218.196 492.411ZM216.726 491.095C216.516 489.793 215.62 488.771 214.01 488.771C212.33 488.771 211.294 489.639 211.294 491.095C211.294 492.481 212.344 493.293 213.982 493.293C214.724 493.293 215.354 493.069 215.844 492.621C216.334 492.173 216.628 491.669 216.726 491.095Z" fill="#1A3341"/>
<path d="M194.527 573.865L193.651 573.553C193.951 572.065 195.079 570.997 196.867 570.997C198.595 570.997 199.651 571.993 199.651 573.517C199.651 574.321 199.303 575.125 198.871 575.701C198.655 576.001 198.379 576.289 198.055 576.589C197.395 577.177 196.927 577.489 196.243 577.921L195.319 578.497H199.963V579.493H193.423V578.677L195.247 577.465C195.571 577.261 195.799 577.105 195.931 577.009C196.063 576.925 196.279 576.769 196.567 576.565C196.855 576.361 197.071 576.181 197.215 576.049C197.347 575.917 197.527 575.749 197.731 575.533C198.283 574.933 198.487 574.381 198.547 573.625C198.547 572.533 197.839 572.041 196.795 572.041C196.147 572.041 195.631 572.221 195.259 572.581C194.887 572.941 194.635 573.373 194.527 573.865ZM200.795 575.293C200.795 573.997 201.095 572.953 201.707 572.173C202.307 571.393 203.195 570.997 204.359 570.997C206.747 570.997 207.935 572.569 207.935 575.293C207.935 576.601 207.635 577.633 207.047 578.413C206.447 579.193 205.559 579.589 204.383 579.589C203.255 579.589 202.379 579.193 201.743 578.401C201.107 577.609 200.795 576.577 200.795 575.293ZM201.899 575.293C201.899 577.345 202.835 578.569 204.383 578.569C206.015 578.569 206.831 577.477 206.831 575.293C206.831 573.109 206.003 572.017 204.359 572.017C202.691 572.017 201.899 573.217 201.899 575.293ZM209.791 573.865L208.915 573.553C209.215 572.065 210.343 570.997 212.131 570.997C213.859 570.997 214.915 571.993 214.915 573.517C214.915 574.321 214.567 575.125 214.135 575.701C213.919 576.001 213.643 576.289 213.319 576.589C212.659 577.177 212.191 577.489 211.507 577.921L210.583 578.497H215.227V579.493H208.687V578.677L210.511 577.465C210.835 577.261 211.063 577.105 211.195 577.009C211.327 576.925 211.543 576.769 211.831 576.565C212.119 576.361 212.335 576.181 212.479 576.049C212.611 575.917 212.791 575.749 212.995 575.533C213.547 574.933 213.751 574.381 213.811 573.625C213.811 572.533 213.103 572.041 212.059 572.041C211.411 572.041 210.895 572.221 210.523 572.581C210.151 572.941 209.899 573.373 209.791 573.865ZM216.887 573.541L215.987 573.133C216.431 571.837 217.595 570.985 219.335 570.985C220.163 570.985 220.847 571.177 221.375 571.561C221.903 571.945 222.167 572.461 222.167 573.097C222.167 574.069 221.651 574.789 220.691 575.065C221.615 575.125 222.359 575.821 222.359 577.069C222.359 577.861 222.071 578.485 221.495 578.929C220.919 579.373 220.187 579.601 219.287 579.601C217.451 579.601 216.179 578.725 215.759 577.345L216.731 576.925C217.247 578.017 218.123 578.569 219.359 578.569C220.523 578.569 221.255 578.029 221.255 577.081C221.255 576.157 220.535 575.689 219.095 575.689H218.159V574.693H218.903C220.211 574.693 221.063 574.105 221.063 573.301C221.063 572.473 220.379 572.005 219.287 572.005C218.003 572.005 217.223 572.665 216.887 573.541ZM200.09 589.293C200.09 588.081 200.498 587.049 201.326 586.221C202.154 585.393 203.162 584.985 204.362 584.985C205.55 584.985 206.558 585.393 207.386 586.209C208.214 587.025 208.622 588.057 208.622 589.293C208.622 590.481 208.178 591.537 207.29 592.437L208.13 593.445L207.386 594.069L206.522 593.025C205.838 593.409 205.118 593.601 204.362 593.601C203.138 593.601 202.118 593.193 201.314 592.377C200.498 591.573 200.09 590.541 200.09 589.293ZM201.23 589.293C201.23 590.241 201.53 591.021 202.13 591.633C202.73 592.245 203.474 592.557 204.362 592.557C204.902 592.557 205.394 592.425 205.862 592.149L205.142 591.285L205.838 590.673L206.606 591.597C207.194 590.985 207.482 590.217 207.482 589.293C207.482 588.345 207.182 587.565 206.582 586.953C205.982 586.341 205.238 586.029 204.362 586.029C203.474 586.029 202.73 586.329 202.13 586.941C201.53 587.553 201.23 588.345 201.23 589.293ZM210.28 587.541L209.38 587.133C209.824 585.837 210.988 584.985 212.728 584.985C213.556 584.985 214.24 585.177 214.768 585.561C215.296 585.945 215.56 586.461 215.56 587.097C215.56 588.069 215.044 588.789 214.084 589.065C215.008 589.125 215.752 589.821 215.752 591.069C215.752 591.861 215.464 592.485 214.888 592.929C214.312 593.373 213.58 593.601 212.68 593.601C210.844 593.601 209.572 592.725 209.152 591.345L210.124 590.925C210.64 592.017 211.516 592.569 212.752 592.569C213.916 592.569 214.648 592.029 214.648 591.081C214.648 590.157 213.928 589.689 212.488 589.689H211.552V588.693H212.296C213.604 588.693 214.456 588.105 214.456 587.301C214.456 586.473 213.772 586.005 212.68 586.005C211.396 586.005 210.616 586.665 210.28 587.541Z" fill="#76848D"/>
<path d="M184 509.493C184 508.389 184.895 507.493 186 507.493H230C231.105 507.493 232 508.389 232 509.493V564.493H184V509.493Z" fill="url(#paint6_linear_5796_19167)"/>
<path opacity="0.2" d="M196 507.493H220V564.493H196V507.493Z" fill="url(#paint7_linear_5796_19167)"/>
<path opacity="0.04" d="M220 507.493H230C231.105 507.493 232 508.389 232 509.493V564.493H220V507.493Z" fill="#0D262C"/>
<path opacity="0.5" d="M184 509.493C184 508.389 184.895 507.493 186 507.493H196V564.493H184V509.493Z" fill="url(#paint8_linear_5796_19167)"/>
<path d="M279.93 481.846L278.922 481.58L279.496 476.554H285.656V477.744H280.574L280.21 480.376C280.7 480.012 281.442 479.83 282.436 479.83C283.584 479.83 284.48 480.138 285.138 480.74C285.782 481.356 286.104 482.14 286.104 483.106C286.104 484.072 285.74 484.884 285.026 485.514C284.298 486.158 283.388 486.48 282.31 486.48C280.476 486.48 278.95 485.612 278.32 484.086L279.44 483.61C279.846 484.548 280.896 485.29 282.31 485.29C283.92 485.29 284.816 484.366 284.816 483.148C284.816 481.846 283.766 481.006 282.1 481.006C281.204 481.006 280.476 481.286 279.93 481.846ZM287.264 485.556C287.264 485.164 287.628 484.772 288.132 484.772C288.594 484.772 288.972 485.164 288.972 485.556C288.972 486.004 288.622 486.382 288.132 486.382C287.628 486.382 287.264 486.004 287.264 485.556ZM291.25 479.788L290.228 479.424C290.578 477.688 291.894 476.442 293.98 476.442C295.996 476.442 297.228 477.604 297.228 479.382C297.228 480.32 296.822 481.258 296.318 481.93C296.066 482.28 295.744 482.616 295.366 482.966C294.596 483.652 294.05 484.016 293.252 484.52L292.174 485.192H297.592V486.354H289.962V485.402L292.09 483.988C292.468 483.75 292.734 483.568 292.888 483.456C293.042 483.358 293.294 483.176 293.63 482.938C293.966 482.7 294.218 482.49 294.386 482.336C294.54 482.182 294.75 481.986 294.988 481.734C295.632 481.034 295.87 480.39 295.94 479.508C295.94 478.234 295.114 477.66 293.896 477.66C293.14 477.66 292.538 477.87 292.104 478.29C291.67 478.71 291.376 479.214 291.25 479.788Z" fill="#1A3341"/>
<path d="M274.527 573.726L273.651 573.414C273.951 571.926 275.079 570.858 276.867 570.858C278.595 570.858 279.651 571.854 279.651 573.378C279.651 574.182 279.303 574.986 278.871 575.562C278.655 575.862 278.379 576.15 278.055 576.45C277.395 577.038 276.927 577.35 276.243 577.782L275.319 578.358H279.963V579.354H273.423V578.538L275.247 577.326C275.571 577.122 275.799 576.966 275.931 576.87C276.063 576.786 276.279 576.63 276.567 576.426C276.855 576.222 277.071 576.042 277.215 575.91C277.347 575.778 277.527 575.61 277.731 575.394C278.283 574.794 278.487 574.242 278.547 573.486C278.547 572.394 277.839 571.902 276.795 571.902C276.147 571.902 275.631 572.082 275.259 572.442C274.887 572.802 274.635 573.234 274.527 573.726ZM280.795 575.154C280.795 573.858 281.095 572.814 281.707 572.034C282.307 571.254 283.195 570.858 284.359 570.858C286.747 570.858 287.935 572.43 287.935 575.154C287.935 576.462 287.635 577.494 287.047 578.274C286.447 579.054 285.559 579.45 284.383 579.45C283.255 579.45 282.379 579.054 281.743 578.262C281.107 577.47 280.795 576.438 280.795 575.154ZM281.899 575.154C281.899 577.206 282.835 578.43 284.383 578.43C286.015 578.43 286.831 577.338 286.831 575.154C286.831 572.97 286.003 571.878 284.359 571.878C282.691 571.878 281.899 573.078 281.899 575.154ZM289.791 573.726L288.915 573.414C289.215 571.926 290.343 570.858 292.131 570.858C293.859 570.858 294.915 571.854 294.915 573.378C294.915 574.182 294.567 574.986 294.135 575.562C293.919 575.862 293.643 576.15 293.319 576.45C292.659 577.038 292.191 577.35 291.507 577.782L290.583 578.358H295.227V579.354H288.687V578.538L290.511 577.326C290.835 577.122 291.063 576.966 291.195 576.87C291.327 576.786 291.543 576.63 291.831 576.426C292.119 576.222 292.335 576.042 292.479 575.91C292.611 575.778 292.791 575.61 292.995 575.394C293.547 574.794 293.751 574.242 293.811 573.486C293.811 572.394 293.103 571.902 292.059 571.902C291.411 571.902 290.895 572.082 290.523 572.442C290.151 572.802 289.899 573.234 289.791 573.726ZM296.887 573.402L295.987 572.994C296.431 571.698 297.595 570.846 299.335 570.846C300.163 570.846 300.847 571.038 301.375 571.422C301.903 571.806 302.167 572.322 302.167 572.958C302.167 573.93 301.651 574.65 300.691 574.926C301.615 574.986 302.359 575.682 302.359 576.93C302.359 577.722 302.071 578.346 301.495 578.79C300.919 579.234 300.187 579.462 299.287 579.462C297.451 579.462 296.179 578.586 295.759 577.206L296.731 576.786C297.247 577.878 298.123 578.43 299.359 578.43C300.523 578.43 301.255 577.89 301.255 576.942C301.255 576.018 300.535 575.55 299.095 575.55H298.159V574.554H298.903C300.211 574.554 301.063 573.966 301.063 573.162C301.063 572.334 300.379 571.866 299.287 571.866C298.003 571.866 297.223 572.526 296.887 573.402ZM279.762 589.154C279.762 587.942 280.17 586.91 280.998 586.082C281.826 585.254 282.834 584.846 284.034 584.846C285.222 584.846 286.23 585.254 287.058 586.07C287.886 586.886 288.294 587.918 288.294 589.154C288.294 590.342 287.85 591.398 286.962 592.298L287.802 593.306L287.058 593.93L286.194 592.886C285.51 593.27 284.79 593.462 284.034 593.462C282.81 593.462 281.79 593.054 280.986 592.238C280.17 591.434 279.762 590.402 279.762 589.154ZM280.902 589.154C280.902 590.102 281.202 590.882 281.802 591.494C282.402 592.106 283.146 592.418 284.034 592.418C284.574 592.418 285.066 592.286 285.534 592.01L284.814 591.146L285.51 590.534L286.278 591.458C286.866 590.846 287.154 590.078 287.154 589.154C287.154 588.206 286.854 587.426 286.254 586.814C285.654 586.202 284.91 585.89 284.034 585.89C283.146 585.89 282.402 586.19 281.802 586.802C281.202 587.414 280.902 588.206 280.902 589.154ZM294.92 593.354H293.876V591.638H288.74V590.942L293.996 584.954H294.92V590.666H296.48V591.638H294.92V593.354ZM293.876 586.634L290.18 590.666H293.876V586.634Z" fill="#76848D"/>
<path d="M264 498.354C264 497.25 264.895 496.354 266 496.354H310C311.105 496.354 312 497.25 312 498.354V564.354H264V498.354Z" fill="url(#paint9_linear_5796_19167)"/>
<path opacity="0.2" d="M276 496.354H300V564.354H276V496.354Z" fill="url(#paint10_linear_5796_19167)"/>
<path opacity="0.04" d="M300 496.354H310C311.105 496.354 312 497.25 312 498.354V564.354H300V496.354Z" fill="#0D262C"/>
<path opacity="0.5" d="M264 498.354C264 497.25 264.895 496.354 266 496.354H276V564.354H264V498.354Z" fill="url(#paint11_linear_5796_19167)"/>
<line x1="-4.37114e-08" y1="564.082" x2="335" y2="564.082" stroke="#ABBEC9"/>
<path d="M45.5802 324H44.3622V321.998H38.3702V321.186L44.5022 314.2H45.5802V320.864H47.4002V321.998H45.5802V324ZM44.3622 316.16L40.0502 320.864H44.3622V316.16ZM48.1824 323.202C48.1824 322.81 48.5464 322.418 49.0504 322.418C49.5124 322.418 49.8904 322.81 49.8904 323.202C49.8904 323.65 49.5404 324.028 49.0504 324.028C48.5464 324.028 48.1824 323.65 48.1824 323.202ZM54.9119 318.414H55.3459C55.9759 318.414 56.4939 318.26 56.9279 317.966C57.3479 317.672 57.5579 317.28 57.5579 316.818C57.5579 315.768 56.7319 315.236 55.0939 315.236C53.5259 315.236 52.6719 315.81 52.6719 316.818C52.6719 317.728 53.6099 318.414 54.9119 318.414ZM55.3179 319.52H54.9679C54.2119 319.52 53.5819 319.688 53.0919 320.01C52.6019 320.332 52.3499 320.738 52.3499 321.228C52.3499 322.292 53.3299 322.964 55.1079 322.964C56.9139 322.964 57.8799 322.32 57.8799 321.242C57.8799 320.164 56.8439 319.52 55.3179 319.52ZM58.0759 323.37C57.3619 323.874 56.3679 324.126 55.1219 324.126C53.8759 324.126 52.8819 323.874 52.1539 323.384C51.4259 322.894 51.0619 322.222 51.0619 321.354C51.0619 320.22 51.8039 319.324 52.9939 318.932C51.9159 318.582 51.3839 317.728 51.3839 316.734C51.3839 315.11 52.7559 314.074 55.1079 314.074C57.4739 314.074 58.8459 315.11 58.8459 316.734C58.8459 317.672 58.3279 318.386 57.2919 318.862C58.5379 319.24 59.1539 320.052 59.1539 321.298C59.1539 322.18 58.7899 322.88 58.0759 323.37Z" fill="#1A3341"/>
<path d="M35.5564 397.372L34.6804 397.06C34.9804 395.572 36.1084 394.504 37.8964 394.504C39.6244 394.504 40.6804 395.5 40.6804 397.024C40.6804 397.828 40.3324 398.632 39.9004 399.208C39.6844 399.508 39.4084 399.796 39.0844 400.096C38.4244 400.684 37.9564 400.996 37.2724 401.428L36.3484 402.004H40.9924V403H34.4524V402.184L36.2764 400.972C36.6004 400.768 36.8284 400.612 36.9604 400.516C37.0924 400.432 37.3084 400.276 37.5964 400.072C37.8844 399.868 38.1004 399.688 38.2444 399.556C38.3764 399.424 38.5564 399.256 38.7604 399.04C39.3124 398.44 39.5164 397.888 39.5764 397.132C39.5764 396.04 38.8684 395.548 37.8244 395.548C37.1764 395.548 36.6604 395.728 36.2884 396.088C35.9164 396.448 35.6644 396.88 35.5564 397.372ZM41.824 398.8C41.824 397.504 42.124 396.46 42.736 395.68C43.336 394.9 44.224 394.504 45.388 394.504C47.776 394.504 48.964 396.076 48.964 398.8C48.964 400.108 48.664 401.14 48.076 401.92C47.476 402.7 46.588 403.096 45.412 403.096C44.284 403.096 43.408 402.7 42.772 401.908C42.136 401.116 41.824 400.084 41.824 398.8ZM42.928 398.8C42.928 400.852 43.864 402.076 45.412 402.076C47.044 402.076 47.86 400.984 47.86 398.8C47.86 396.616 47.032 395.524 45.388 395.524C43.72 395.524 42.928 396.724 42.928 398.8ZM50.8203 397.372L49.9443 397.06C50.2443 395.572 51.3723 394.504 53.1603 394.504C54.8883 394.504 55.9443 395.5 55.9443 397.024C55.9443 397.828 55.5963 398.632 55.1643 399.208C54.9483 399.508 54.6723 399.796 54.3483 400.096C53.6883 400.684 53.2203 400.996 52.5363 401.428L51.6123 402.004H56.2563V403H49.7163V402.184L51.5403 400.972C51.8643 400.768 52.0923 400.612 52.2243 400.516C52.3563 400.432 52.5723 400.276 52.8603 400.072C53.1483 399.868 53.3643 399.688 53.5083 399.556C53.6403 399.424 53.8203 399.256 54.0243 399.04C54.5763 398.44 54.7803 397.888 54.8403 397.132C54.8403 396.04 54.1323 395.548 53.0883 395.548C52.4403 395.548 51.9243 395.728 51.5523 396.088C51.1803 396.448 50.9283 396.88 50.8203 397.372ZM58.048 397.372L57.172 397.06C57.472 395.572 58.6 394.504 60.388 394.504C62.116 394.504 63.172 395.5 63.172 397.024C63.172 397.828 62.824 398.632 62.392 399.208C62.176 399.508 61.9 399.796 61.576 400.096C60.916 400.684 60.448 400.996 59.764 401.428L58.84 402.004H63.484V403H56.944V402.184L58.768 400.972C59.092 400.768 59.32 400.612 59.452 400.516C59.584 400.432 59.8 400.276 60.088 400.072C60.376 399.868 60.592 399.688 60.736 399.556C60.868 399.424 61.048 399.256 61.252 399.04C61.804 398.44 62.008 397.888 62.068 397.132C62.068 396.04 61.36 395.548 60.316 395.548C59.668 395.548 59.152 395.728 58.78 396.088C58.408 396.448 58.156 396.88 58.048 397.372ZM42.4256 412.8C42.4256 411.588 42.8336 410.556 43.6616 409.728C44.4896 408.9 45.4976 408.492 46.6976 408.492C47.8856 408.492 48.8936 408.9 49.7216 409.716C50.5496 410.532 50.9576 411.564 50.9576 412.8C50.9576 413.988 50.5136 415.044 49.6256 415.944L50.4656 416.952L49.7216 417.576L48.8576 416.532C48.1736 416.916 47.4536 417.108 46.6976 417.108C45.4736 417.108 44.4536 416.7 43.6496 415.884C42.8336 415.08 42.4256 414.048 42.4256 412.8ZM43.5656 412.8C43.5656 413.748 43.8656 414.528 44.4656 415.14C45.0656 415.752 45.8096 416.064 46.6976 416.064C47.2376 416.064 47.7296 415.932 48.1976 415.656L47.4776 414.792L48.1736 414.18L48.9416 415.104C49.5296 414.492 49.8176 413.724 49.8176 412.8C49.8176 411.852 49.5176 411.072 48.9176 410.46C48.3176 409.848 47.5736 409.536 46.6976 409.536C45.8096 409.536 45.0656 409.836 44.4656 410.448C43.8656 411.06 43.5656 411.852 43.5656 412.8ZM51.692 410.832L51.308 409.932L54.188 408.552H54.872V417H53.84V409.836L51.692 410.832Z" fill="#76848D"/>
<path d="M25 336C25 334.895 25.8954 334 27 334H71C72.1046 334 73 334.895 73 336V388H25V336Z" fill="url(#paint12_linear_5796_19167)"/>
<path opacity="0.2" d="M37 334H61V388H37V334Z" fill="url(#paint13_linear_5796_19167)"/>
<path opacity="0.04" d="M61 334H71C72.1046 334 73 334.895 73 336V388H61V334Z" fill="#0D262C"/>
<path opacity="0.5" d="M25 336C25 334.895 25.8954 334 27 334H37V388H25V336Z" fill="url(#paint14_linear_5796_19167)"/>
<path d="M118.729 368.404C118.729 366.892 119.079 365.674 119.793 364.764C120.493 363.854 121.529 363.392 122.887 363.392C125.673 363.392 127.059 365.226 127.059 368.404C127.059 369.93 126.709 371.134 126.023 372.044C125.323 372.954 124.287 373.416 122.915 373.416C121.599 373.416 120.577 372.954 119.835 372.03C119.093 371.106 118.729 369.902 118.729 368.404ZM120.017 368.404C120.017 370.798 121.109 372.226 122.915 372.226C124.819 372.226 125.771 370.952 125.771 368.404C125.771 365.856 124.805 364.582 122.887 364.582C120.941 364.582 120.017 365.982 120.017 368.404ZM128.203 372.506C128.203 372.114 128.567 371.722 129.071 371.722C129.533 371.722 129.911 372.114 129.911 372.506C129.911 372.954 129.561 373.332 129.071 373.332C128.567 373.332 128.203 372.954 128.203 372.506ZM137.83 373.304H136.612V371.302H130.62V370.49L136.752 363.504H137.83V370.168H139.65V371.302H137.83V373.304ZM136.612 365.464L132.3 370.168H136.612V365.464Z" fill="#1A3341"/>
<path d="M115.556 397.676L114.68 397.364C114.98 395.876 116.108 394.808 117.896 394.808C119.624 394.808 120.68 395.804 120.68 397.328C120.68 398.132 120.332 398.936 119.9 399.512C119.684 399.812 119.408 400.1 119.084 400.4C118.424 400.988 117.956 401.3 117.272 401.732L116.348 402.308H120.992V403.304H114.452V402.488L116.276 401.276C116.6 401.072 116.828 400.916 116.96 400.82C117.092 400.736 117.308 400.58 117.596 400.376C117.884 400.172 118.1 399.992 118.244 399.86C118.376 399.728 118.556 399.56 118.76 399.344C119.312 398.744 119.516 398.192 119.576 397.436C119.576 396.344 118.868 395.852 117.824 395.852C117.176 395.852 116.66 396.032 116.288 396.392C115.916 396.752 115.664 397.184 115.556 397.676ZM121.824 399.104C121.824 397.808 122.124 396.764 122.736 395.984C123.336 395.204 124.224 394.808 125.388 394.808C127.776 394.808 128.964 396.38 128.964 399.104C128.964 400.412 128.664 401.444 128.076 402.224C127.476 403.004 126.588 403.4 125.412 403.4C124.284 403.4 123.408 403.004 122.772 402.212C122.136 401.42 121.824 400.388 121.824 399.104ZM122.928 399.104C122.928 401.156 123.864 402.38 125.412 402.38C127.044 402.38 127.86 401.288 127.86 399.104C127.86 396.92 127.032 395.828 125.388 395.828C123.72 395.828 122.928 397.028 122.928 399.104ZM130.82 397.676L129.944 397.364C130.244 395.876 131.372 394.808 133.16 394.808C134.888 394.808 135.944 395.804 135.944 397.328C135.944 398.132 135.596 398.936 135.164 399.512C134.948 399.812 134.672 400.1 134.348 400.4C133.688 400.988 133.22 401.3 132.536 401.732L131.612 402.308H136.256V403.304H129.716V402.488L131.54 401.276C131.864 401.072 132.092 400.916 132.224 400.82C132.356 400.736 132.572 400.58 132.86 400.376C133.148 400.172 133.364 399.992 133.508 399.86C133.64 399.728 133.82 399.56 134.024 399.344C134.576 398.744 134.78 398.192 134.84 397.436C134.84 396.344 134.132 395.852 133.088 395.852C132.44 395.852 131.924 396.032 131.552 396.392C131.18 396.752 130.928 397.184 130.82 397.676ZM138.048 397.676L137.172 397.364C137.472 395.876 138.6 394.808 140.388 394.808C142.116 394.808 143.172 395.804 143.172 397.328C143.172 398.132 142.824 398.936 142.392 399.512C142.176 399.812 141.9 400.1 141.576 400.4C140.916 400.988 140.448 401.3 139.764 401.732L138.84 402.308H143.484V403.304H136.944V402.488L138.768 401.276C139.092 401.072 139.32 400.916 139.452 400.82C139.584 400.736 139.8 400.58 140.088 400.376C140.376 400.172 140.592 399.992 140.736 399.86C140.868 399.728 141.048 399.56 141.252 399.344C141.804 398.744 142.008 398.192 142.068 397.436C142.068 396.344 141.36 395.852 140.316 395.852C139.668 395.852 139.152 396.032 138.78 396.392C138.408 396.752 138.156 397.184 138.048 397.676ZM121.119 413.104C121.119 411.892 121.527 410.86 122.355 410.032C123.183 409.204 124.191 408.796 125.391 408.796C126.579 408.796 127.587 409.204 128.415 410.02C129.243 410.836 129.651 411.868 129.651 413.104C129.651 414.292 129.207 415.348 128.319 416.248L129.159 417.256L128.415 417.88L127.551 416.836C126.867 417.22 126.147 417.412 125.391 417.412C124.167 417.412 123.147 417.004 122.343 416.188C121.527 415.384 121.119 414.352 121.119 413.104ZM122.259 413.104C122.259 414.052 122.559 414.832 123.159 415.444C123.759 416.056 124.503 416.368 125.391 416.368C125.931 416.368 126.423 416.236 126.891 415.96L126.171 415.096L126.867 414.484L127.635 415.408C128.223 414.796 128.511 414.028 128.511 413.104C128.511 412.156 128.211 411.376 127.611 410.764C127.011 410.152 126.267 409.84 125.391 409.84C124.503 409.84 123.759 410.14 123.159 410.752C122.559 411.364 122.259 412.156 122.259 413.104ZM131.441 411.676L130.565 411.364C130.865 409.876 131.993 408.808 133.781 408.808C135.509 408.808 136.565 409.804 136.565 411.328C136.565 412.132 136.217 412.936 135.785 413.512C135.569 413.812 135.293 414.1 134.969 414.4C134.309 414.988 133.841 415.3 133.157 415.732L132.233 416.308H136.877V417.304H130.337V416.488L132.161 415.276C132.485 415.072 132.713 414.916 132.845 414.82C132.977 414.736 133.193 414.58 133.481 414.376C133.769 414.172 133.985 413.992 134.129 413.86C134.261 413.728 134.441 413.56 134.645 413.344C135.197 412.744 135.401 412.192 135.461 411.436C135.461 410.344 134.753 409.852 133.709 409.852C133.061 409.852 132.545 410.032 132.173 410.392C131.801 410.752 131.549 411.184 131.441 411.676Z" fill="#76848D"/>
<path d="M105 385.304C105 384.199 105.895 383.304 107 383.304H151C152.105 383.304 153 384.199 153 385.304V388.304H105V385.304Z" fill="url(#paint15_linear_5796_19167)"/>
<path opacity="0.2" d="M117 383.304H141V388.304H117V383.304Z" fill="url(#paint16_linear_5796_19167)"/>
<path opacity="0.04" d="M141 383.304H151C152.105 383.304 153 384.199 153 385.304V388.304H141V383.304Z" fill="#0D262C"/>
<path opacity="0.5" d="M105 385.304C105 384.199 105.895 383.304 107 383.304H117V388.304H105V385.304Z" fill="url(#paint17_linear_5796_19167)"/>
<path d="M200.167 328.196L199.117 327.72C199.635 326.208 200.993 325.214 203.023 325.214C203.989 325.214 204.787 325.438 205.403 325.886C206.019 326.334 206.327 326.936 206.327 327.678C206.327 328.812 205.725 329.652 204.605 329.974C205.683 330.044 206.551 330.856 206.551 332.312C206.551 333.236 206.215 333.964 205.543 334.482C204.871 335 204.017 335.266 202.967 335.266C200.825 335.266 199.341 334.244 198.851 332.634L199.985 332.144C200.587 333.418 201.609 334.062 203.051 334.062C204.409 334.062 205.263 333.432 205.263 332.326C205.263 331.248 204.423 330.702 202.743 330.702H201.651V329.54H202.519C204.045 329.54 205.039 328.854 205.039 327.916C205.039 326.95 204.241 326.404 202.967 326.404C201.469 326.404 200.559 327.174 200.167 328.196ZM207.8 334.342C207.8 333.95 208.164 333.558 208.668 333.558C209.13 333.558 209.508 333.95 209.508 334.342C209.508 334.79 209.158 335.168 208.668 335.168C208.164 335.168 207.8 334.79 207.8 334.342ZM218.813 330.058C218.813 331.724 218.421 333.012 217.623 333.908C216.825 334.818 215.761 335.266 214.431 335.266C212.807 335.266 211.533 334.58 210.903 333.53L211.911 332.83C212.471 333.614 213.493 334.062 214.599 334.062C215.509 334.062 216.237 333.698 216.811 332.97C217.385 332.256 217.623 331.36 217.553 330.296C217.091 331.36 215.929 332.144 214.375 332.144C213.283 332.144 212.387 331.836 211.687 331.206C210.973 330.59 210.623 329.778 210.623 328.784C210.623 327.692 211.001 326.824 211.757 326.18C212.513 325.536 213.521 325.214 214.767 325.214C217.287 325.214 218.813 326.978 218.813 330.058ZM217.343 328.742C217.133 327.44 216.237 326.418 214.627 326.418C212.947 326.418 211.911 327.286 211.911 328.742C211.911 330.128 212.961 330.94 214.599 330.94C215.341 330.94 215.971 330.716 216.461 330.268C216.951 329.82 217.245 329.316 217.343 328.742Z" fill="#1A3341"/>
<path d="M195.556 397.512L194.68 397.2C194.98 395.712 196.108 394.644 197.896 394.644C199.624 394.644 200.68 395.64 200.68 397.164C200.68 397.968 200.332 398.772 199.9 399.348C199.684 399.648 199.408 399.936 199.084 400.236C198.424 400.824 197.956 401.136 197.272 401.568L196.348 402.144H200.992V403.14H194.452V402.324L196.276 401.112C196.6 400.908 196.828 400.752 196.96 400.656C197.092 400.572 197.308 400.416 197.596 400.212C197.884 400.008 198.1 399.828 198.244 399.696C198.376 399.564 198.556 399.396 198.76 399.18C199.312 398.58 199.516 398.028 199.576 397.272C199.576 396.18 198.868 395.688 197.824 395.688C197.176 395.688 196.66 395.868 196.288 396.228C195.916 396.588 195.664 397.02 195.556 397.512ZM201.824 398.94C201.824 397.644 202.124 396.6 202.736 395.82C203.336 395.04 204.224 394.644 205.388 394.644C207.776 394.644 208.964 396.216 208.964 398.94C208.964 400.248 208.664 401.28 208.076 402.06C207.476 402.84 206.588 403.236 205.412 403.236C204.284 403.236 203.408 402.84 202.772 402.048C202.136 401.256 201.824 400.224 201.824 398.94ZM202.928 398.94C202.928 400.992 203.864 402.216 205.412 402.216C207.044 402.216 207.86 401.124 207.86 398.94C207.86 396.756 207.032 395.664 205.388 395.664C203.72 395.664 202.928 396.864 202.928 398.94ZM210.82 397.512L209.944 397.2C210.244 395.712 211.372 394.644 213.16 394.644C214.888 394.644 215.944 395.64 215.944 397.164C215.944 397.968 215.596 398.772 215.164 399.348C214.948 399.648 214.672 399.936 214.348 400.236C213.688 400.824 213.22 401.136 212.536 401.568L211.612 402.144H216.256V403.14H209.716V402.324L211.54 401.112C211.864 400.908 212.092 400.752 212.224 400.656C212.356 400.572 212.572 400.416 212.86 400.212C213.148 400.008 213.364 399.828 213.508 399.696C213.64 399.564 213.82 399.396 214.024 399.18C214.576 398.58 214.78 398.028 214.84 397.272C214.84 396.18 214.132 395.688 213.088 395.688C212.44 395.688 211.924 395.868 211.552 396.228C211.18 396.588 210.928 397.02 210.82 397.512ZM218.048 397.512L217.172 397.2C217.472 395.712 218.6 394.644 220.388 394.644C222.116 394.644 223.172 395.64 223.172 397.164C223.172 397.968 222.824 398.772 222.392 399.348C222.176 399.648 221.9 399.936 221.576 400.236C220.916 400.824 220.448 401.136 219.764 401.568L218.84 402.144H223.484V403.14H216.944V402.324L218.768 401.112C219.092 400.908 219.32 400.752 219.452 400.656C219.584 400.572 219.8 400.416 220.088 400.212C220.376 400.008 220.592 399.828 220.736 399.696C220.868 399.564 221.048 399.396 221.252 399.18C221.804 398.58 222.008 398.028 222.068 397.272C222.068 396.18 221.36 395.688 220.316 395.688C219.668 395.688 219.152 395.868 218.78 396.228C218.408 396.588 218.156 397.02 218.048 397.512ZM201.09 412.94C201.09 411.728 201.498 410.696 202.326 409.868C203.154 409.04 204.162 408.632 205.362 408.632C206.55 408.632 207.558 409.04 208.386 409.856C209.214 410.672 209.622 411.704 209.622 412.94C209.622 414.128 209.178 415.184 208.29 416.084L209.13 417.092L208.386 417.716L207.522 416.672C206.838 417.056 206.118 417.248 205.362 417.248C204.138 417.248 203.118 416.84 202.314 416.024C201.498 415.22 201.09 414.188 201.09 412.94ZM202.23 412.94C202.23 413.888 202.53 414.668 203.13 415.28C203.73 415.892 204.474 416.204 205.362 416.204C205.902 416.204 206.394 416.072 206.862 415.796L206.142 414.932L206.838 414.32L207.606 415.244C208.194 414.632 208.482 413.864 208.482 412.94C208.482 411.992 208.182 411.212 207.582 410.6C206.982 409.988 206.238 409.676 205.362 409.676C204.474 409.676 203.73 409.976 203.13 410.588C202.53 411.2 202.23 411.992 202.23 412.94ZM211.28 411.188L210.38 410.78C210.824 409.484 211.988 408.632 213.728 408.632C214.556 408.632 215.24 408.824 215.768 409.208C216.296 409.592 216.56 410.108 216.56 410.744C216.56 411.716 216.044 412.436 215.084 412.712C216.008 412.772 216.752 413.468 216.752 414.716C216.752 415.508 216.464 416.132 215.888 416.576C215.312 417.02 214.58 417.248 213.68 417.248C211.844 417.248 210.572 416.372 210.152 414.992L211.124 414.572C211.64 415.664 212.516 416.216 213.752 416.216C214.916 416.216 215.648 415.676 215.648 414.728C215.648 413.804 214.928 413.336 213.488 413.336H212.552V412.34H213.296C214.604 412.34 215.456 411.752 215.456 410.948C215.456 410.12 214.772 409.652 213.68 409.652C212.396 409.652 211.616 410.312 211.28 411.188Z" fill="#76848D"/>
<path d="M185 347.14C185 346.035 185.895 345.14 187 345.14H231C232.105 345.14 233 346.035 233 347.14V388.14H185V347.14Z" fill="url(#paint18_linear_5796_19167)"/>
<path opacity="0.2" d="M197 345.14H221V388.14H197V345.14Z" fill="url(#paint19_linear_5796_19167)"/>
<path opacity="0.04" d="M221 345.14H231C232.105 345.14 233 346.035 233 347.14V388.14H221V345.14Z" fill="#0D262C"/>
<path opacity="0.5" d="M185 347.14C185 346.035 185.895 345.14 187 345.14H197V388.14H185V347.14Z" fill="url(#paint20_linear_5796_19167)"/>
<path d="M280.355 338.32L279.333 337.956C279.683 336.22 280.999 334.974 283.085 334.974C285.101 334.974 286.333 336.136 286.333 337.914C286.333 338.852 285.927 339.79 285.423 340.462C285.171 340.812 284.849 341.148 284.471 341.498C283.701 342.184 283.155 342.548 282.357 343.052L281.279 343.724H286.697V344.886H279.067V343.934L281.195 342.52C281.573 342.282 281.839 342.1 281.993 341.988C282.147 341.89 282.399 341.708 282.735 341.47C283.071 341.232 283.323 341.022 283.491 340.868C283.645 340.714 283.855 340.518 284.093 340.266C284.737 339.566 284.975 338.922 285.045 338.04C285.045 336.766 284.219 336.192 283.001 336.192C282.245 336.192 281.643 336.402 281.209 336.822C280.775 337.242 280.481 337.746 280.355 338.32ZM287.765 344.088C287.765 343.696 288.129 343.304 288.633 343.304C289.095 343.304 289.473 343.696 289.473 344.088C289.473 344.536 289.123 344.914 288.633 344.914C288.129 344.914 287.765 344.536 287.765 344.088ZM298.779 339.804C298.779 341.47 298.387 342.758 297.589 343.654C296.791 344.564 295.727 345.012 294.397 345.012C292.773 345.012 291.499 344.326 290.869 343.276L291.877 342.576C292.437 343.36 293.459 343.808 294.565 343.808C295.475 343.808 296.203 343.444 296.777 342.716C297.351 342.002 297.589 341.106 297.519 340.042C297.057 341.106 295.895 341.89 294.341 341.89C293.249 341.89 292.353 341.582 291.653 340.952C290.939 340.336 290.589 339.524 290.589 338.53C290.589 337.438 290.967 336.57 291.723 335.926C292.479 335.282 293.487 334.96 294.733 334.96C297.253 334.96 298.779 336.724 298.779 339.804ZM297.309 338.488C297.099 337.186 296.203 336.164 294.593 336.164C292.913 336.164 291.877 337.032 291.877 338.488C291.877 339.874 292.927 340.686 294.565 340.686C295.307 340.686 295.937 340.462 296.427 340.014C296.917 339.566 297.211 339.062 297.309 338.488Z" fill="#1A3341"/>
<path d="M275.556 397.258L274.68 396.946C274.98 395.458 276.108 394.39 277.896 394.39C279.624 394.39 280.68 395.386 280.68 396.91C280.68 397.714 280.332 398.518 279.9 399.094C279.684 399.394 279.408 399.682 279.084 399.982C278.424 400.57 277.956 400.882 277.272 401.314L276.348 401.89H280.992V402.886H274.452V402.07L276.276 400.858C276.6 400.654 276.828 400.498 276.96 400.402C277.092 400.318 277.308 400.162 277.596 399.958C277.884 399.754 278.1 399.574 278.244 399.442C278.376 399.31 278.556 399.142 278.76 398.926C279.312 398.326 279.516 397.774 279.576 397.018C279.576 395.926 278.868 395.434 277.824 395.434C277.176 395.434 276.66 395.614 276.288 395.974C275.916 396.334 275.664 396.766 275.556 397.258ZM281.824 398.686C281.824 397.39 282.124 396.346 282.736 395.566C283.336 394.786 284.224 394.39 285.388 394.39C287.776 394.39 288.964 395.962 288.964 398.686C288.964 399.994 288.664 401.026 288.076 401.806C287.476 402.586 286.588 402.982 285.412 402.982C284.284 402.982 283.408 402.586 282.772 401.794C282.136 401.002 281.824 399.97 281.824 398.686ZM282.928 398.686C282.928 400.738 283.864 401.962 285.412 401.962C287.044 401.962 287.86 400.87 287.86 398.686C287.86 396.502 287.032 395.41 285.388 395.41C283.72 395.41 282.928 396.61 282.928 398.686ZM290.82 397.258L289.944 396.946C290.244 395.458 291.372 394.39 293.16 394.39C294.888 394.39 295.944 395.386 295.944 396.91C295.944 397.714 295.596 398.518 295.164 399.094C294.948 399.394 294.672 399.682 294.348 399.982C293.688 400.57 293.22 400.882 292.536 401.314L291.612 401.89H296.256V402.886H289.716V402.07L291.54 400.858C291.864 400.654 292.092 400.498 292.224 400.402C292.356 400.318 292.572 400.162 292.86 399.958C293.148 399.754 293.364 399.574 293.508 399.442C293.64 399.31 293.82 399.142 294.024 398.926C294.576 398.326 294.78 397.774 294.84 397.018C294.84 395.926 294.132 395.434 293.088 395.434C292.44 395.434 291.924 395.614 291.552 395.974C291.18 396.334 290.928 396.766 290.82 397.258ZM298.048 397.258L297.172 396.946C297.472 395.458 298.6 394.39 300.388 394.39C302.116 394.39 303.172 395.386 303.172 396.91C303.172 397.714 302.824 398.518 302.392 399.094C302.176 399.394 301.9 399.682 301.576 399.982C300.916 400.57 300.448 400.882 299.764 401.314L298.84 401.89H303.484V402.886H296.944V402.07L298.768 400.858C299.092 400.654 299.32 400.498 299.452 400.402C299.584 400.318 299.8 400.162 300.088 399.958C300.376 399.754 300.592 399.574 300.736 399.442C300.868 399.31 301.048 399.142 301.252 398.926C301.804 398.326 302.008 397.774 302.068 397.018C302.068 395.926 301.36 395.434 300.316 395.434C299.668 395.434 299.152 395.614 298.78 395.974C298.408 396.334 298.156 396.766 298.048 397.258ZM280.762 412.686C280.762 411.474 281.17 410.442 281.998 409.614C282.826 408.786 283.834 408.378 285.034 408.378C286.222 408.378 287.23 408.786 288.058 409.602C288.886 410.418 289.294 411.45 289.294 412.686C289.294 413.874 288.85 414.93 287.962 415.83L288.802 416.838L288.058 417.462L287.194 416.418C286.51 416.802 285.79 416.994 285.034 416.994C283.81 416.994 282.79 416.586 281.986 415.77C281.17 414.966 280.762 413.934 280.762 412.686ZM281.902 412.686C281.902 413.634 282.202 414.414 282.802 415.026C283.402 415.638 284.146 415.95 285.034 415.95C285.574 415.95 286.066 415.818 286.534 415.542L285.814 414.678L286.51 414.066L287.278 414.99C287.866 414.378 288.154 413.61 288.154 412.686C288.154 411.738 287.854 410.958 287.254 410.346C286.654 409.734 285.91 409.422 285.034 409.422C284.146 409.422 283.402 409.722 282.802 410.334C282.202 410.946 281.902 411.738 281.902 412.686ZM295.92 416.886H294.876V415.17H289.74V414.474L294.996 408.486H295.92V414.198H297.48V415.17H295.92V416.886ZM294.876 410.166L291.18 414.198H294.876V410.166Z" fill="#76848D"/>
<path d="M265 356.886C265 355.781 265.895 354.886 267 354.886H311C312.105 354.886 313 355.781 313 356.886V387.886H265V356.886Z" fill="url(#paint21_linear_5796_19167)"/>
<path opacity="0.2" d="M277 354.886H301V387.886H277V354.886Z" fill="url(#paint22_linear_5796_19167)"/>
<path opacity="0.04" d="M301 354.886H311C312.105 354.886 313 355.781 313 356.886V387.886H301V354.886Z" fill="#0D262C"/>
<path opacity="0.5" d="M265 356.886C265 355.781 265.895 354.886 267 354.886H277V387.886H265V356.886Z" fill="url(#paint23_linear_5796_19167)"/>
<line x1="-4.37114e-08" y1="387.804" x2="335" y2="387.804" stroke="#ABBEC9"/>
<path d="M35.3973 2.804L34.9493 1.754L38.3093 0.143999H39.1073V10H37.9033V1.642L35.3973 2.804ZM44.7567 4.414H45.1907C45.8207 4.414 46.3387 4.26 46.7727 3.966C47.1927 3.672 47.4027 3.28 47.4027 2.818C47.4027 1.768 46.5767 1.236 44.9387 1.236C43.3707 1.236 42.5167 1.81 42.5167 2.818C42.5167 3.728 43.4547 4.414 44.7567 4.414ZM45.1627 5.52H44.8127C44.0567 5.52 43.4267 5.688 42.9367 6.01C42.4467 6.332 42.1947 6.738 42.1947 7.228C42.1947 8.292 43.1747 8.964 44.9527 8.964C46.7587 8.964 47.7247 8.32 47.7247 7.242C47.7247 6.164 46.6887 5.52 45.1627 5.52ZM47.9207 9.37C47.2067 9.874 46.2127 10.126 44.9667 10.126C43.7207 10.126 42.7267 9.874 41.9987 9.384C41.2707 8.894 40.9067 8.222 40.9067 7.354C40.9067 6.22 41.6487 5.324 42.8387 4.932C41.7607 4.582 41.2287 3.728 41.2287 2.734C41.2287 1.11 42.6007 0.0739993 44.9527 0.0739993C47.3187 0.0739993 48.6907 1.11 48.6907 2.734C48.6907 3.672 48.1727 4.386 47.1367 4.862C48.3827 5.24 48.9987 6.052 48.9987 7.298C48.9987 8.18 48.6347 8.88 47.9207 9.37ZM50.1886 9.202C50.1886 8.81 50.5526 8.418 51.0566 8.418C51.5186 8.418 51.8966 8.81 51.8966 9.202C51.8966 9.65 51.5466 10.028 51.0566 10.028C50.5526 10.028 50.1886 9.65 50.1886 9.202ZM54.0201 3.056L52.9701 2.58C53.4881 1.068 54.8461 0.0739993 56.8761 0.0739993C57.8421 0.0739993 58.6401 0.298 59.2561 0.746C59.8721 1.194 60.1801 1.796 60.1801 2.538C60.1801 3.672 59.5781 4.512 58.4581 4.834C59.5361 4.904 60.4041 5.716 60.4041 7.172C60.4041 8.096 60.0681 8.824 59.3961 9.342C58.7241 9.86 57.8701 10.126 56.8201 10.126C54.6781 10.126 53.1941 9.104 52.7041 7.494L53.8381 7.004C54.4401 8.278 55.4621 8.922 56.9041 8.922C58.2621 8.922 59.1161 8.292 59.1161 7.186C59.1161 6.108 58.2761 5.562 56.5961 5.562H55.5041V4.4H56.3721C57.8981 4.4 58.8921 3.714 58.8921 2.776C58.8921 1.81 58.0941 1.264 56.8201 1.264C55.3221 1.264 54.4121 2.034 54.0201 3.056Z" fill="#1A3341"/>
<path d="M35.863 249.372L34.987 249.06C35.287 247.572 36.415 246.504 38.203 246.504C39.931 246.504 40.987 247.5 40.987 249.024C40.987 249.828 40.639 250.632 40.207 251.208C39.991 251.508 39.715 251.796 39.391 252.096C38.731 252.684 38.263 252.996 37.579 253.428L36.655 254.004H41.299V255H34.759V254.184L36.583 252.972C36.907 252.768 37.135 252.612 37.267 252.516C37.399 252.432 37.615 252.276 37.903 252.072C38.191 251.868 38.407 251.688 38.551 251.556C38.683 251.424 38.863 251.256 39.067 251.04C39.619 250.44 39.823 249.888 39.883 249.132C39.883 248.04 39.175 247.548 38.131 247.548C37.483 247.548 36.967 247.728 36.595 248.088C36.223 248.448 35.971 248.88 35.863 249.372ZM42.1307 250.8C42.1307 249.504 42.4307 248.46 43.0427 247.68C43.6427 246.9 44.5307 246.504 45.6947 246.504C48.0827 246.504 49.2707 248.076 49.2707 250.8C49.2707 252.108 48.9707 253.14 48.3827 253.92C47.7827 254.7 46.8947 255.096 45.7187 255.096C44.5907 255.096 43.7147 254.7 43.0787 253.908C42.4427 253.116 42.1307 252.084 42.1307 250.8ZM43.2347 250.8C43.2347 252.852 44.1707 254.076 45.7187 254.076C47.3507 254.076 48.1667 252.984 48.1667 250.8C48.1667 248.616 47.3387 247.524 45.6947 247.524C44.0267 247.524 43.2347 248.724 43.2347 250.8ZM51.1269 249.372L50.2509 249.06C50.5509 247.572 51.6789 246.504 53.4669 246.504C55.1949 246.504 56.2509 247.5 56.2509 249.024C56.2509 249.828 55.9029 250.632 55.4709 251.208C55.2549 251.508 54.9789 251.796 54.6549 252.096C53.9949 252.684 53.5269 252.996 52.8429 253.428L51.9189 254.004H56.5629V255H50.0229V254.184L51.8469 252.972C52.1709 252.768 52.3989 252.612 52.5309 252.516C52.6629 252.432 52.8789 252.276 53.1669 252.072C53.4549 251.868 53.6709 251.688 53.8149 251.556C53.9469 251.424 54.1269 251.256 54.3309 251.04C54.8829 250.44 55.0869 249.888 55.1469 249.132C55.1469 248.04 54.4389 247.548 53.3949 247.548C52.7469 247.548 52.2309 247.728 51.8589 248.088C51.4869 248.448 51.2349 248.88 51.1269 249.372ZM57.2986 248.832L56.9146 247.932L59.7946 246.552H60.4786V255H59.4466V247.836L57.2986 248.832ZM41.4256 264.8C41.4256 263.588 41.8336 262.556 42.6616 261.728C43.4896 260.9 44.4976 260.492 45.6976 260.492C46.8856 260.492 47.8936 260.9 48.7216 261.716C49.5496 262.532 49.9576 263.564 49.9576 264.8C49.9576 265.988 49.5136 267.044 48.6256 267.944L49.4656 268.952L48.7216 269.576L47.8576 268.532C47.1736 268.916 46.4536 269.108 45.6976 269.108C44.4736 269.108 43.4536 268.7 42.6496 267.884C41.8336 267.08 41.4256 266.048 41.4256 264.8ZM42.5656 264.8C42.5656 265.748 42.8656 266.528 43.4656 267.14C44.0656 267.752 44.8096 268.064 45.6976 268.064C46.2376 268.064 46.7296 267.932 47.1976 267.656L46.4776 266.792L47.1736 266.18L47.9416 267.104C48.5296 266.492 48.8176 265.724 48.8176 264.8C48.8176 263.852 48.5176 263.072 47.9176 262.46C47.3176 261.848 46.5736 261.536 45.6976 261.536C44.8096 261.536 44.0656 261.836 43.4656 262.448C42.8656 263.06 42.5656 263.852 42.5656 264.8ZM50.692 262.832L50.308 261.932L53.188 260.552H53.872V269H52.84V261.836L50.692 262.832Z" fill="#76848D"/>
<path d="M24 22C24 20.8954 24.8954 20 26 20H70C71.1046 20 72 20.8954 72 22V240H24V22Z" fill="url(#paint24_linear_5796_19167)"/>
<path opacity="0.2" d="M36 20H60V240H36V20Z" fill="url(#paint25_linear_5796_19167)"/>
<path opacity="0.04" d="M60 20H70C71.1046 20 72 20.8954 72 22V240H60V20Z" fill="#0D262C"/>
<path opacity="0.5" d="M24 22C24 20.8954 24.8954 20 26 20H36V240H24V22Z" fill="url(#paint26_linear_5796_19167)"/>
<path d="M124.56 120.39H118.624V119.2H126.058V119.998L121.186 129H119.856L124.56 120.39ZM126.054 128.202C126.054 127.81 126.418 127.418 126.922 127.418C127.384 127.418 127.762 127.81 127.762 128.202C127.762 128.65 127.412 129.028 126.922 129.028C126.418 129.028 126.054 128.65 126.054 128.202ZM137.068 123.918C137.068 125.584 136.676 126.872 135.878 127.768C135.08 128.678 134.016 129.126 132.686 129.126C131.062 129.126 129.788 128.44 129.158 127.39L130.166 126.69C130.726 127.474 131.748 127.922 132.854 127.922C133.764 127.922 134.492 127.558 135.066 126.83C135.64 126.116 135.878 125.22 135.808 124.156C135.346 125.22 134.184 126.004 132.63 126.004C131.538 126.004 130.642 125.696 129.942 125.066C129.228 124.45 128.878 123.638 128.878 122.644C128.878 121.552 129.256 120.684 130.012 120.04C130.768 119.396 131.776 119.074 133.022 119.074C135.542 119.074 137.068 120.838 137.068 123.918ZM135.598 122.602C135.388 121.3 134.492 120.278 132.882 120.278C131.202 120.278 130.166 121.146 130.166 122.602C130.166 123.988 131.216 124.8 132.854 124.8C133.596 124.8 134.226 124.576 134.716 124.128C135.206 123.68 135.5 123.176 135.598 122.602Z" fill="#1A3341"/>
<path d="M115.863 249.372L114.987 249.06C115.287 247.572 116.415 246.504 118.203 246.504C119.931 246.504 120.987 247.5 120.987 249.024C120.987 249.828 120.639 250.632 120.207 251.208C119.991 251.508 119.715 251.796 119.391 252.096C118.731 252.684 118.263 252.996 117.579 253.428L116.655 254.004H121.299V255H114.759V254.184L116.583 252.972C116.907 252.768 117.135 252.612 117.267 252.516C117.399 252.432 117.615 252.276 117.903 252.072C118.191 251.868 118.407 251.688 118.551 251.556C118.683 251.424 118.863 251.256 119.067 251.04C119.619 250.44 119.823 249.888 119.883 249.132C119.883 248.04 119.175 247.548 118.131 247.548C117.483 247.548 116.967 247.728 116.595 248.088C116.223 248.448 115.971 248.88 115.863 249.372ZM122.131 250.8C122.131 249.504 122.431 248.46 123.043 247.68C123.643 246.9 124.531 246.504 125.695 246.504C128.083 246.504 129.271 248.076 129.271 250.8C129.271 252.108 128.971 253.14 128.383 253.92C127.783 254.7 126.895 255.096 125.719 255.096C124.591 255.096 123.715 254.7 123.079 253.908C122.443 253.116 122.131 252.084 122.131 250.8ZM123.235 250.8C123.235 252.852 124.171 254.076 125.719 254.076C127.351 254.076 128.167 252.984 128.167 250.8C128.167 248.616 127.339 247.524 125.695 247.524C124.027 247.524 123.235 248.724 123.235 250.8ZM131.127 249.372L130.251 249.06C130.551 247.572 131.679 246.504 133.467 246.504C135.195 246.504 136.251 247.5 136.251 249.024C136.251 249.828 135.903 250.632 135.471 251.208C135.255 251.508 134.979 251.796 134.655 252.096C133.995 252.684 133.527 252.996 132.843 253.428L131.919 254.004H136.563V255H130.023V254.184L131.847 252.972C132.171 252.768 132.399 252.612 132.531 252.516C132.663 252.432 132.879 252.276 133.167 252.072C133.455 251.868 133.671 251.688 133.815 251.556C133.947 251.424 134.127 251.256 134.331 251.04C134.883 250.44 135.087 249.888 135.147 249.132C135.147 248.04 134.439 247.548 133.395 247.548C132.747 247.548 132.231 247.728 131.859 248.088C131.487 248.448 131.235 248.88 131.127 249.372ZM137.299 248.832L136.915 247.932L139.795 246.552H140.479V255H139.447V247.836L137.299 248.832ZM120.119 264.8C120.119 263.588 120.527 262.556 121.355 261.728C122.183 260.9 123.191 260.492 124.391 260.492C125.579 260.492 126.587 260.9 127.415 261.716C128.243 262.532 128.651 263.564 128.651 264.8C128.651 265.988 128.207 267.044 127.319 267.944L128.159 268.952L127.415 269.576L126.551 268.532C125.867 268.916 125.147 269.108 124.391 269.108C123.167 269.108 122.147 268.7 121.343 267.884C120.527 267.08 120.119 266.048 120.119 264.8ZM121.259 264.8C121.259 265.748 121.559 266.528 122.159 267.14C122.759 267.752 123.503 268.064 124.391 268.064C124.931 268.064 125.423 267.932 125.891 267.656L125.171 266.792L125.867 266.18L126.635 267.104C127.223 266.492 127.511 265.724 127.511 264.8C127.511 263.852 127.211 263.072 126.611 262.46C126.011 261.848 125.267 261.536 124.391 261.536C123.503 261.536 122.759 261.836 122.159 262.448C121.559 263.06 121.259 263.852 121.259 264.8ZM130.441 263.372L129.565 263.06C129.865 261.572 130.993 260.504 132.781 260.504C134.509 260.504 135.565 261.5 135.565 263.024C135.565 263.828 135.217 264.632 134.785 265.208C134.569 265.508 134.293 265.796 133.969 266.096C133.309 266.684 132.841 266.996 132.157 267.428L131.233 268.004H135.877V269H129.337V268.184L131.161 266.972C131.485 266.768 131.713 266.612 131.845 266.516C131.977 266.432 132.193 266.276 132.481 266.072C132.769 265.868 132.985 265.688 133.129 265.556C133.261 265.424 133.441 265.256 133.645 265.04C134.197 264.44 134.401 263.888 134.461 263.132C134.461 262.04 133.753 261.548 132.709 261.548C132.061 261.548 131.545 261.728 131.173 262.088C130.801 262.448 130.549 262.88 130.441 263.372Z" fill="#76848D"/>
<path d="M104 141C104 139.895 104.895 139 106 139H150C151.105 139 152 139.895 152 141V240H104V141Z" fill="url(#paint27_linear_5796_19167)"/>
<path opacity="0.2" d="M116 139H140V240H116V139Z" fill="url(#paint28_linear_5796_19167)"/>
<path opacity="0.04" d="M140 139H150C151.105 139 152 139.895 152 141V240H140V139Z" fill="#0D262C"/>
<path opacity="0.5" d="M104 141C104 139.895 104.895 139 106 139H116V240H104V141Z" fill="url(#paint29_linear_5796_19167)"/>
<path d="M204.58 170H203.362V167.998H197.37V167.186L203.502 160.2H204.58V166.864H206.4V167.998H204.58V170ZM203.362 162.16L199.05 166.864H203.362V162.16ZM207.182 169.202C207.182 168.81 207.546 168.418 208.05 168.418C208.512 168.418 208.89 168.81 208.89 169.202C208.89 169.65 208.54 170.028 208.05 170.028C207.546 170.028 207.182 169.65 207.182 169.202ZM218.196 164.918C218.196 166.584 217.804 167.872 217.006 168.768C216.208 169.678 215.144 170.126 213.814 170.126C212.19 170.126 210.916 169.44 210.286 168.39L211.294 167.69C211.854 168.474 212.876 168.922 213.982 168.922C214.892 168.922 215.62 168.558 216.194 167.83C216.768 167.116 217.006 166.22 216.936 165.156C216.474 166.22 215.312 167.004 213.758 167.004C212.666 167.004 211.77 166.696 211.07 166.066C210.356 165.45 210.006 164.638 210.006 163.644C210.006 162.552 210.384 161.684 211.14 161.04C211.896 160.396 212.904 160.074 214.15 160.074C216.67 160.074 218.196 161.838 218.196 164.918ZM216.726 163.602C216.516 162.3 215.62 161.278 214.01 161.278C212.33 161.278 211.294 162.146 211.294 163.602C211.294 164.988 212.344 165.8 213.982 165.8C214.724 165.8 215.354 165.576 215.844 165.128C216.334 164.68 216.628 164.176 216.726 163.602Z" fill="#1A3341"/>
<path d="M195.863 249.372L194.987 249.06C195.287 247.572 196.415 246.504 198.203 246.504C199.931 246.504 200.987 247.5 200.987 249.024C200.987 249.828 200.639 250.632 200.207 251.208C199.991 251.508 199.715 251.796 199.391 252.096C198.731 252.684 198.263 252.996 197.579 253.428L196.655 254.004H201.299V255H194.759V254.184L196.583 252.972C196.907 252.768 197.135 252.612 197.267 252.516C197.399 252.432 197.615 252.276 197.903 252.072C198.191 251.868 198.407 251.688 198.551 251.556C198.683 251.424 198.863 251.256 199.067 251.04C199.619 250.44 199.823 249.888 199.883 249.132C199.883 248.04 199.175 247.548 198.131 247.548C197.483 247.548 196.967 247.728 196.595 248.088C196.223 248.448 195.971 248.88 195.863 249.372ZM202.131 250.8C202.131 249.504 202.431 248.46 203.043 247.68C203.643 246.9 204.531 246.504 205.695 246.504C208.083 246.504 209.271 248.076 209.271 250.8C209.271 252.108 208.971 253.14 208.383 253.92C207.783 254.7 206.895 255.096 205.719 255.096C204.591 255.096 203.715 254.7 203.079 253.908C202.443 253.116 202.131 252.084 202.131 250.8ZM203.235 250.8C203.235 252.852 204.171 254.076 205.719 254.076C207.351 254.076 208.167 252.984 208.167 250.8C208.167 248.616 207.339 247.524 205.695 247.524C204.027 247.524 203.235 248.724 203.235 250.8ZM211.127 249.372L210.251 249.06C210.551 247.572 211.679 246.504 213.467 246.504C215.195 246.504 216.251 247.5 216.251 249.024C216.251 249.828 215.903 250.632 215.471 251.208C215.255 251.508 214.979 251.796 214.655 252.096C213.995 252.684 213.527 252.996 212.843 253.428L211.919 254.004H216.563V255H210.023V254.184L211.847 252.972C212.171 252.768 212.399 252.612 212.531 252.516C212.663 252.432 212.879 252.276 213.167 252.072C213.455 251.868 213.671 251.688 213.815 251.556C213.947 251.424 214.127 251.256 214.331 251.04C214.883 250.44 215.087 249.888 215.147 249.132C215.147 248.04 214.439 247.548 213.395 247.548C212.747 247.548 212.231 247.728 211.859 248.088C211.487 248.448 211.235 248.88 211.127 249.372ZM217.299 248.832L216.915 247.932L219.795 246.552H220.479V255H219.447V247.836L217.299 248.832ZM200.09 264.8C200.09 263.588 200.498 262.556 201.326 261.728C202.154 260.9 203.162 260.492 204.362 260.492C205.55 260.492 206.558 260.9 207.386 261.716C208.214 262.532 208.622 263.564 208.622 264.8C208.622 265.988 208.178 267.044 207.29 267.944L208.13 268.952L207.386 269.576L206.522 268.532C205.838 268.916 205.118 269.108 204.362 269.108C203.138 269.108 202.118 268.7 201.314 267.884C200.498 267.08 200.09 266.048 200.09 264.8ZM201.23 264.8C201.23 265.748 201.53 266.528 202.13 267.14C202.73 267.752 203.474 268.064 204.362 268.064C204.902 268.064 205.394 267.932 205.862 267.656L205.142 266.792L205.838 266.18L206.606 267.104C207.194 266.492 207.482 265.724 207.482 264.8C207.482 263.852 207.182 263.072 206.582 262.46C205.982 261.848 205.238 261.536 204.362 261.536C203.474 261.536 202.73 261.836 202.13 262.448C201.53 263.06 201.23 263.852 201.23 264.8ZM210.28 263.048L209.38 262.64C209.824 261.344 210.988 260.492 212.728 260.492C213.556 260.492 214.24 260.684 214.768 261.068C215.296 261.452 215.56 261.968 215.56 262.604C215.56 263.576 215.044 264.296 214.084 264.572C215.008 264.632 215.752 265.328 215.752 266.576C215.752 267.368 215.464 267.992 214.888 268.436C214.312 268.88 213.58 269.108 212.68 269.108C210.844 269.108 209.572 268.232 209.152 266.852L210.124 266.432C210.64 267.524 211.516 268.076 212.752 268.076C213.916 268.076 214.648 267.536 214.648 266.588C214.648 265.664 213.928 265.196 212.488 265.196H211.552V264.2H212.296C213.604 264.2 214.456 263.612 214.456 262.808C214.456 261.98 213.772 261.512 212.68 261.512C211.396 261.512 210.616 262.172 210.28 263.048Z" fill="#76848D"/>
<path d="M184 182C184 180.895 184.895 180 186 180H230C231.105 180 232 180.895 232 182V240H184V182Z" fill="url(#paint30_linear_5796_19167)"/>
<path opacity="0.2" d="M196 180H220V240H196V180Z" fill="url(#paint31_linear_5796_19167)"/>
<path opacity="0.04" d="M220 180H230C231.105 180 232 180.895 232 182V240H220V180Z" fill="#0D262C"/>
<path opacity="0.5" d="M184 182C184 180.895 184.895 180 186 180H196V240H184V182Z" fill="url(#paint32_linear_5796_19167)"/>
<path d="M284.491 182H283.273V179.998H277.281V179.186L283.413 172.2H284.491V178.864H286.311V179.998H284.491V182ZM283.273 174.16L278.961 178.864H283.273V174.16ZM287.094 181.202C287.094 180.81 287.458 180.418 287.962 180.418C288.424 180.418 288.802 180.81 288.802 181.202C288.802 181.65 288.452 182.028 287.962 182.028C287.458 182.028 287.094 181.65 287.094 181.202ZM289.959 177.1C289.959 175.588 290.309 174.37 291.023 173.46C291.723 172.55 292.759 172.088 294.117 172.088C296.903 172.088 298.289 173.922 298.289 177.1C298.289 178.626 297.939 179.83 297.253 180.74C296.553 181.65 295.517 182.112 294.145 182.112C292.829 182.112 291.807 181.65 291.065 180.726C290.323 179.802 289.959 178.598 289.959 177.1ZM291.247 177.1C291.247 179.494 292.339 180.922 294.145 180.922C296.049 180.922 297.001 179.648 297.001 177.1C297.001 174.552 296.035 173.278 294.117 173.278C292.171 173.278 291.247 174.678 291.247 177.1Z" fill="#1A3341"/>
<path d="M275.863 249.372L274.987 249.06C275.287 247.572 276.415 246.504 278.203 246.504C279.931 246.504 280.987 247.5 280.987 249.024C280.987 249.828 280.639 250.632 280.207 251.208C279.991 251.508 279.715 251.796 279.391 252.096C278.731 252.684 278.263 252.996 277.579 253.428L276.655 254.004H281.299V255H274.759V254.184L276.583 252.972C276.907 252.768 277.135 252.612 277.267 252.516C277.399 252.432 277.615 252.276 277.903 252.072C278.191 251.868 278.407 251.688 278.551 251.556C278.683 251.424 278.863 251.256 279.067 251.04C279.619 250.44 279.823 249.888 279.883 249.132C279.883 248.04 279.175 247.548 278.131 247.548C277.483 247.548 276.967 247.728 276.595 248.088C276.223 248.448 275.971 248.88 275.863 249.372ZM282.131 250.8C282.131 249.504 282.431 248.46 283.043 247.68C283.643 246.9 284.531 246.504 285.695 246.504C288.083 246.504 289.271 248.076 289.271 250.8C289.271 252.108 288.971 253.14 288.383 253.92C287.783 254.7 286.895 255.096 285.719 255.096C284.591 255.096 283.715 254.7 283.079 253.908C282.443 253.116 282.131 252.084 282.131 250.8ZM283.235 250.8C283.235 252.852 284.171 254.076 285.719 254.076C287.351 254.076 288.167 252.984 288.167 250.8C288.167 248.616 287.339 247.524 285.695 247.524C284.027 247.524 283.235 248.724 283.235 250.8ZM291.127 249.372L290.251 249.06C290.551 247.572 291.679 246.504 293.467 246.504C295.195 246.504 296.251 247.5 296.251 249.024C296.251 249.828 295.903 250.632 295.471 251.208C295.255 251.508 294.979 251.796 294.655 252.096C293.995 252.684 293.527 252.996 292.843 253.428L291.919 254.004H296.563V255H290.023V254.184L291.847 252.972C292.171 252.768 292.399 252.612 292.531 252.516C292.663 252.432 292.879 252.276 293.167 252.072C293.455 251.868 293.671 251.688 293.815 251.556C293.947 251.424 294.127 251.256 294.331 251.04C294.883 250.44 295.087 249.888 295.147 249.132C295.147 248.04 294.439 247.548 293.395 247.548C292.747 247.548 292.231 247.728 291.859 248.088C291.487 248.448 291.235 248.88 291.127 249.372ZM297.299 248.832L296.915 247.932L299.795 246.552H300.479V255H299.447V247.836L297.299 248.832ZM279.762 264.8C279.762 263.588 280.17 262.556 280.998 261.728C281.826 260.9 282.834 260.492 284.034 260.492C285.222 260.492 286.23 260.9 287.058 261.716C287.886 262.532 288.294 263.564 288.294 264.8C288.294 265.988 287.85 267.044 286.962 267.944L287.802 268.952L287.058 269.576L286.194 268.532C285.51 268.916 284.79 269.108 284.034 269.108C282.81 269.108 281.79 268.7 280.986 267.884C280.17 267.08 279.762 266.048 279.762 264.8ZM280.902 264.8C280.902 265.748 281.202 266.528 281.802 267.14C282.402 267.752 283.146 268.064 284.034 268.064C284.574 268.064 285.066 267.932 285.534 267.656L284.814 266.792L285.51 266.18L286.278 267.104C286.866 266.492 287.154 265.724 287.154 264.8C287.154 263.852 286.854 263.072 286.254 262.46C285.654 261.848 284.91 261.536 284.034 261.536C283.146 261.536 282.402 261.836 281.802 262.448C281.202 263.06 280.902 263.852 280.902 264.8ZM294.92 269H293.876V267.284H288.74V266.588L293.996 260.6H294.92V266.312H296.48V267.284H294.92V269ZM293.876 262.28L290.18 266.312H293.876V262.28Z" fill="#76848D"/>
<path d="M264 194C264 192.895 264.895 192 266 192H310C311.105 192 312 192.895 312 194V240H264V194Z" fill="url(#paint33_linear_5796_19167)"/>
<path opacity="0.2" d="M276 192H300V240H276V192Z" fill="url(#paint34_linear_5796_19167)"/>
<path opacity="0.04" d="M300 192H310C311.105 192 312 192.895 312 194V240H300V192Z" fill="#0D262C"/>
<path opacity="0.5" d="M264 194C264 192.895 264.895 192 266 192H276V240H264V194Z" fill="url(#paint35_linear_5796_19167)"/>
<line x1="-4.37114e-08" y1="239.5" x2="335" y2="239.5" stroke="#ABBEC9"/>
<defs>
<linearGradient id="paint0_linear_5796_19167" x1="48" y1="511.671" x2="48" y2="564.671" gradientUnits="userSpaceOnUse">
<stop stop-color="#6D73F9"/>
<stop offset="1" stop-color="#9BB8F1"/>
</linearGradient>
<linearGradient id="paint1_linear_5796_19167" x1="48" y1="511.671" x2="48" y2="564.671" gradientUnits="userSpaceOnUse">
<stop stop-color="white" stop-opacity="0"/>
<stop offset="0.739583" stop-color="white"/>
</linearGradient>
<linearGradient id="paint2_linear_5796_19167" x1="30" y1="408.321" x2="30" y2="564.671" gradientUnits="userSpaceOnUse">
<stop stop-color="white" stop-opacity="0.05"/>
<stop offset="0.75" stop-color="white" stop-opacity="0.8"/>
</linearGradient>
<linearGradient id="paint3_linear_5796_19167" x1="128" y1="488" x2="128" y2="565" gradientUnits="userSpaceOnUse">
<stop stop-color="#6D73F9"/>
<stop offset="1" stop-color="#9BB8F1"/>
</linearGradient>
<linearGradient id="paint4_linear_5796_19167" x1="128" y1="488" x2="128" y2="565" gradientUnits="userSpaceOnUse">
<stop stop-color="white" stop-opacity="0"/>
<stop offset="0.739583" stop-color="white"/>
</linearGradient>
<linearGradient id="paint5_linear_5796_19167" x1="110" y1="337.85" x2="110" y2="565" gradientUnits="userSpaceOnUse">
<stop stop-color="white" stop-opacity="0.05"/>
<stop offset="0.75" stop-color="white" stop-opacity="0.8"/>
</linearGradient>
<linearGradient id="paint6_linear_5796_19167" x1="208" y1="507.493" x2="208" y2="564.493" gradientUnits="userSpaceOnUse">
<stop stop-color="#6D73F9"/>
<stop offset="1" stop-color="#9BB8F1"/>
</linearGradient>
<linearGradient id="paint7_linear_5796_19167" x1="208" y1="507.493" x2="208" y2="564.493" gradientUnits="userSpaceOnUse">
<stop stop-color="white" stop-opacity="0"/>
<stop offset="0.739583" stop-color="white"/>
</linearGradient>
<linearGradient id="paint8_linear_5796_19167" x1="190" y1="396.343" x2="190" y2="564.493" gradientUnits="userSpaceOnUse">
<stop stop-color="white" stop-opacity="0.05"/>
<stop offset="0.75" stop-color="white" stop-opacity="0.8"/>
</linearGradient>
<linearGradient id="paint9_linear_5796_19167" x1="288" y1="496.354" x2="288" y2="564.354" gradientUnits="userSpaceOnUse">
<stop stop-color="#6D73F9"/>
<stop offset="1" stop-color="#9BB8F1"/>
</linearGradient>
<linearGradient id="paint10_linear_5796_19167" x1="288" y1="496.354" x2="288" y2="564.354" gradientUnits="userSpaceOnUse">
<stop stop-color="white" stop-opacity="0"/>
<stop offset="0.739583" stop-color="white"/>
</linearGradient>
<linearGradient id="paint11_linear_5796_19167" x1="270" y1="363.754" x2="270" y2="564.354" gradientUnits="userSpaceOnUse">
<stop stop-color="white" stop-opacity="0.05"/>
<stop offset="0.75" stop-color="white" stop-opacity="0.8"/>
</linearGradient>
<linearGradient id="paint12_linear_5796_19167" x1="49" y1="334" x2="49" y2="388" gradientUnits="userSpaceOnUse">
<stop stop-color="#6D73F9"/>
<stop offset="1" stop-color="#9BB8F1"/>
</linearGradient>
<linearGradient id="paint13_linear_5796_19167" x1="49" y1="334" x2="49" y2="388" gradientUnits="userSpaceOnUse">
<stop stop-color="white" stop-opacity="0"/>
<stop offset="0.739583" stop-color="white"/>
</linearGradient>
<linearGradient id="paint14_linear_5796_19167" x1="31" y1="228.7" x2="31" y2="388" gradientUnits="userSpaceOnUse">
<stop stop-color="white" stop-opacity="0.05"/>
<stop offset="0.75" stop-color="white" stop-opacity="0.8"/>
</linearGradient>
<linearGradient id="paint15_linear_5796_19167" x1="129" y1="383.304" x2="129" y2="388.304" gradientUnits="userSpaceOnUse">
<stop stop-color="#6D73F9"/>
<stop offset="1" stop-color="#9BB8F1"/>
</linearGradient>
<linearGradient id="paint16_linear_5796_19167" x1="129" y1="383.304" x2="129" y2="388.304" gradientUnits="userSpaceOnUse">
<stop stop-color="white" stop-opacity="0"/>
<stop offset="0.739583" stop-color="white"/>
</linearGradient>
<linearGradient id="paint17_linear_5796_19167" x1="111" y1="373.554" x2="111" y2="388.304" gradientUnits="userSpaceOnUse">
<stop stop-color="white" stop-opacity="0.05"/>
<stop offset="0.75" stop-color="white" stop-opacity="0.8"/>
</linearGradient>
<linearGradient id="paint18_linear_5796_19167" x1="209" y1="345.14" x2="209" y2="388.14" gradientUnits="userSpaceOnUse">
<stop stop-color="#6D73F9"/>
<stop offset="1" stop-color="#9BB8F1"/>
</linearGradient>
<linearGradient id="paint19_linear_5796_19167" x1="209" y1="345.14" x2="209" y2="388.14" gradientUnits="userSpaceOnUse">
<stop stop-color="white" stop-opacity="0"/>
<stop offset="0.739583" stop-color="white"/>
</linearGradient>
<linearGradient id="paint20_linear_5796_19167" x1="191" y1="261.29" x2="191" y2="388.14" gradientUnits="userSpaceOnUse">
<stop stop-color="white" stop-opacity="0.05"/>
<stop offset="0.75" stop-color="white" stop-opacity="0.8"/>
</linearGradient>
<linearGradient id="paint21_linear_5796_19167" x1="289" y1="354.886" x2="289" y2="387.886" gradientUnits="userSpaceOnUse">
<stop stop-color="#6D73F9"/>
<stop offset="1" stop-color="#9BB8F1"/>
</linearGradient>
<linearGradient id="paint22_linear_5796_19167" x1="289" y1="354.886" x2="289" y2="387.886" gradientUnits="userSpaceOnUse">
<stop stop-color="white" stop-opacity="0"/>
<stop offset="0.739583" stop-color="white"/>
</linearGradient>
<linearGradient id="paint23_linear_5796_19167" x1="271" y1="290.536" x2="271" y2="387.886" gradientUnits="userSpaceOnUse">
<stop stop-color="white" stop-opacity="0.05"/>
<stop offset="0.75" stop-color="white" stop-opacity="0.8"/>
</linearGradient>
<linearGradient id="paint24_linear_5796_19167" x1="48" y1="20" x2="48" y2="240" gradientUnits="userSpaceOnUse">
<stop stop-color="#6D73F9"/>
<stop offset="1" stop-color="#9BB8F1"/>
</linearGradient>
<linearGradient id="paint25_linear_5796_19167" x1="48" y1="20" x2="48" y2="240" gradientUnits="userSpaceOnUse">
<stop stop-color="white" stop-opacity="0"/>
<stop offset="0.739583" stop-color="white"/>
</linearGradient>
<linearGradient id="paint26_linear_5796_19167" x1="30" y1="-409" x2="30" y2="240" gradientUnits="userSpaceOnUse">
<stop stop-color="white" stop-opacity="0.05"/>
<stop offset="0.75" stop-color="white" stop-opacity="0.8"/>
</linearGradient>
<linearGradient id="paint27_linear_5796_19167" x1="128" y1="139" x2="128" y2="240" gradientUnits="userSpaceOnUse">
<stop stop-color="#6D73F9"/>
<stop offset="1" stop-color="#9BB8F1"/>
</linearGradient>
<linearGradient id="paint28_linear_5796_19167" x1="128" y1="139" x2="128" y2="240" gradientUnits="userSpaceOnUse">
<stop stop-color="white" stop-opacity="0"/>
<stop offset="0.739583" stop-color="white"/>
</linearGradient>
<linearGradient id="paint29_linear_5796_19167" x1="110" y1="-57.95" x2="110" y2="240" gradientUnits="userSpaceOnUse">
<stop stop-color="white" stop-opacity="0.05"/>
<stop offset="0.75" stop-color="white" stop-opacity="0.8"/>
</linearGradient>
<linearGradient id="paint30_linear_5796_19167" x1="208" y1="180" x2="208" y2="240" gradientUnits="userSpaceOnUse">
<stop stop-color="#6D73F9"/>
<stop offset="1" stop-color="#9BB8F1"/>
</linearGradient>
<linearGradient id="paint31_linear_5796_19167" x1="208" y1="180" x2="208" y2="240" gradientUnits="userSpaceOnUse">
<stop stop-color="white" stop-opacity="0"/>
<stop offset="0.739583" stop-color="white"/>
</linearGradient>
<linearGradient id="paint32_linear_5796_19167" x1="190" y1="63" x2="190" y2="240" gradientUnits="userSpaceOnUse">
<stop stop-color="white" stop-opacity="0.05"/>
<stop offset="0.75" stop-color="white" stop-opacity="0.8"/>
</linearGradient>
<linearGradient id="paint33_linear_5796_19167" x1="288" y1="192" x2="288" y2="240" gradientUnits="userSpaceOnUse">
<stop stop-color="#6D73F9"/>
<stop offset="1" stop-color="#9BB8F1"/>
</linearGradient>
<linearGradient id="paint34_linear_5796_19167" x1="288" y1="192" x2="288" y2="240" gradientUnits="userSpaceOnUse">
<stop stop-color="white" stop-opacity="0"/>
<stop offset="0.739583" stop-color="white"/>
</linearGradient>
<linearGradient id="paint35_linear_5796_19167" x1="270" y1="98.4" x2="270" y2="240" gradientUnits="userSpaceOnUse">
<stop stop-color="white" stop-opacity="0.05"/>
<stop offset="0.75" stop-color="white" stop-opacity="0.8"/>
</linearGradient>
</defs>
</svg>
