<svg width="544" height="213" viewBox="0 0 544 213" fill="none" xmlns="http://www.w3.org/2000/svg">
<path d="M188.433 69.1C188.433 67.588 188.783 66.37 189.497 65.46C190.197 64.55 191.233 64.088 192.591 64.088C195.377 64.088 196.763 65.922 196.763 69.1C196.763 70.626 196.413 71.83 195.727 72.74C195.027 73.65 193.991 74.112 192.619 74.112C191.303 74.112 190.281 73.65 189.539 72.726C188.797 71.802 188.433 70.598 188.433 69.1ZM189.721 69.1C189.721 71.494 190.813 72.922 192.619 72.922C194.523 72.922 195.475 71.648 195.475 69.1C195.475 66.552 194.509 65.278 192.591 65.278C190.645 65.278 189.721 66.678 189.721 69.1ZM197.907 73.202C197.907 72.81 198.271 72.418 198.775 72.418C199.237 72.418 199.615 72.81 199.615 73.202C199.615 73.65 199.265 74.028 198.775 74.028C198.271 74.028 197.907 73.65 197.907 73.202ZM206.387 65.39H200.451V64.2H207.885V64.998L203.013 74H201.683L206.387 65.39Z" fill="#2A3C3C"/>
<path d="M188.433 69.1C188.433 67.588 188.783 66.37 189.497 65.46C190.197 64.55 191.233 64.088 192.591 64.088C195.377 64.088 196.763 65.922 196.763 69.1C196.763 70.626 196.413 71.83 195.727 72.74C195.027 73.65 193.991 74.112 192.619 74.112C191.303 74.112 190.281 73.65 189.539 72.726C188.797 71.802 188.433 70.598 188.433 69.1ZM189.721 69.1C189.721 71.494 190.813 72.922 192.619 72.922C194.523 72.922 195.475 71.648 195.475 69.1C195.475 66.552 194.509 65.278 192.591 65.278C190.645 65.278 189.721 66.678 189.721 69.1ZM197.907 73.202C197.907 72.81 198.271 72.418 198.775 72.418C199.237 72.418 199.615 72.81 199.615 73.202C199.615 73.65 199.265 74.028 198.775 74.028C198.271 74.028 197.907 73.65 197.907 73.202ZM206.387 65.39H200.451V64.2H207.885V64.998L203.013 74H201.683L206.387 65.39Z" fill="#1A3341"/>
<path d="M170 86C170 84.8954 170.895 84 172 84H224C225.105 84 226 84.8954 226 86V181H170V86Z" fill="url(#paint0_linear_7005_17825)"/>
<path opacity="0.2" d="M182 84H214V181H182V84Z" fill="url(#paint1_linear_7005_17825)"/>
<path opacity="0.04" d="M214 84H224C225.105 84 226 84.8954 226 86V181H214V84Z" fill="#0D262C"/>
<path opacity="0.5" d="M170 86C170 84.8954 170.895 84 172 84H182V181H170V86Z" fill="url(#paint2_linear_7005_17825)"/>
<path d="M299.763 45.1C299.763 43.588 300.113 42.37 300.827 41.46C301.527 40.55 302.563 40.088 303.921 40.088C306.707 40.088 308.093 41.922 308.093 45.1C308.093 46.626 307.743 47.83 307.057 48.74C306.357 49.65 305.321 50.112 303.949 50.112C302.633 50.112 301.611 49.65 300.869 48.726C300.127 47.802 299.763 46.598 299.763 45.1ZM301.051 45.1C301.051 47.494 302.143 48.922 303.949 48.922C305.853 48.922 306.805 47.648 306.805 45.1C306.805 42.552 305.839 41.278 303.921 41.278C301.975 41.278 301.051 42.678 301.051 45.1ZM309.237 49.202C309.237 48.81 309.601 48.418 310.105 48.418C310.567 48.418 310.945 48.81 310.945 49.202C310.945 49.65 310.595 50.028 310.105 50.028C309.601 50.028 309.237 49.65 309.237 49.202ZM320.251 44.918C320.251 46.584 319.859 47.872 319.061 48.768C318.263 49.678 317.199 50.126 315.869 50.126C314.245 50.126 312.971 49.44 312.341 48.39L313.349 47.69C313.909 48.474 314.931 48.922 316.037 48.922C316.947 48.922 317.675 48.558 318.249 47.83C318.823 47.116 319.061 46.22 318.991 45.156C318.529 46.22 317.367 47.004 315.813 47.004C314.721 47.004 313.825 46.696 313.125 46.066C312.411 45.45 312.061 44.638 312.061 43.644C312.061 42.552 312.439 41.684 313.195 41.04C313.951 40.396 314.959 40.074 316.205 40.074C318.725 40.074 320.251 41.838 320.251 44.918ZM318.781 43.602C318.571 42.3 317.675 41.278 316.065 41.278C314.385 41.278 313.349 42.146 313.349 43.602C313.349 44.988 314.399 45.8 316.037 45.8C316.779 45.8 317.409 45.576 317.899 45.128C318.389 44.68 318.683 44.176 318.781 43.602Z" fill="#2A3C3C"/>
<path d="M299.763 45.1C299.763 43.588 300.113 42.37 300.827 41.46C301.527 40.55 302.563 40.088 303.921 40.088C306.707 40.088 308.093 41.922 308.093 45.1C308.093 46.626 307.743 47.83 307.057 48.74C306.357 49.65 305.321 50.112 303.949 50.112C302.633 50.112 301.611 49.65 300.869 48.726C300.127 47.802 299.763 46.598 299.763 45.1ZM301.051 45.1C301.051 47.494 302.143 48.922 303.949 48.922C305.853 48.922 306.805 47.648 306.805 45.1C306.805 42.552 305.839 41.278 303.921 41.278C301.975 41.278 301.051 42.678 301.051 45.1ZM309.237 49.202C309.237 48.81 309.601 48.418 310.105 48.418C310.567 48.418 310.945 48.81 310.945 49.202C310.945 49.65 310.595 50.028 310.105 50.028C309.601 50.028 309.237 49.65 309.237 49.202ZM320.251 44.918C320.251 46.584 319.859 47.872 319.061 48.768C318.263 49.678 317.199 50.126 315.869 50.126C314.245 50.126 312.971 49.44 312.341 48.39L313.349 47.69C313.909 48.474 314.931 48.922 316.037 48.922C316.947 48.922 317.675 48.558 318.249 47.83C318.823 47.116 319.061 46.22 318.991 45.156C318.529 46.22 317.367 47.004 315.813 47.004C314.721 47.004 313.825 46.696 313.125 46.066C312.411 45.45 312.061 44.638 312.061 43.644C312.061 42.552 312.439 41.684 313.195 41.04C313.951 40.396 314.959 40.074 316.205 40.074C318.725 40.074 320.251 41.838 320.251 44.918ZM318.781 43.602C318.571 42.3 317.675 41.278 316.065 41.278C314.385 41.278 313.349 42.146 313.349 43.602C313.349 44.988 314.399 45.8 316.037 45.8C316.779 45.8 317.409 45.576 317.899 45.128C318.389 44.68 318.683 44.176 318.781 43.602Z" fill="#1A3341"/>
<path d="M288.904 190.332H295.06V191.136H288.904V190.332ZM289.24 192.84H294.772V193.632H289.24V192.84ZM288.724 195.66H295.324V196.428H288.724V195.66ZM291.508 190.584H292.348V196.068H291.508V190.584ZM293.104 194.16L293.68 193.836C294.136 194.232 294.664 194.784 294.904 195.156L294.292 195.528C294.052 195.156 293.536 194.568 293.104 194.16ZM287.02 188.472H296.968V198.972H296.008V189.3H287.932V198.972H287.02V188.472ZM287.512 197.532H296.452V198.36H287.512V197.532ZM299.02 188.436H302.032V189.252H299.884V198.96H299.02V188.436ZM301.816 188.436H301.972L302.128 188.4L302.764 188.748C302.392 189.732 301.936 190.92 301.528 191.868C302.416 192.876 302.632 193.74 302.632 194.496C302.632 195.144 302.488 195.66 302.128 195.9C301.96 196.02 301.732 196.092 301.48 196.128C301.228 196.152 300.916 196.152 300.64 196.14C300.628 195.912 300.544 195.576 300.4 195.348C300.676 195.36 300.928 195.372 301.108 195.36C301.264 195.348 301.396 195.312 301.504 195.252C301.684 195.12 301.756 194.784 301.756 194.412C301.756 193.752 301.54 192.924 300.652 191.964C301.108 190.884 301.552 189.504 301.816 188.688V188.436ZM303.532 188.844H308.776V189.684H303.532V188.844ZM303.016 191.712H309.424V192.552H303.016V191.712ZM305.584 192.12H306.496V197.82C306.496 198.336 306.4 198.612 306.04 198.768C305.692 198.924 305.128 198.936 304.288 198.936C304.264 198.672 304.132 198.288 304.012 198.012C304.636 198.036 305.188 198.024 305.356 198.024C305.536 198.012 305.584 197.964 305.584 197.82V192.12ZM307.3 194.112L308.068 193.872C308.656 195.036 309.244 196.56 309.436 197.508L308.608 197.808C308.428 196.86 307.864 195.3 307.3 194.112ZM303.844 193.896L304.672 194.088C304.3 195.468 303.7 196.872 303.04 197.796C302.884 197.664 302.524 197.424 302.32 197.316C302.992 196.464 303.52 195.168 303.844 193.896ZM315.496 194.328H316.444V195.384C316.444 196.584 315.88 198.036 311.32 198.948C311.212 198.768 310.96 198.42 310.756 198.228C315.136 197.436 315.496 196.26 315.496 195.36V194.328ZM316.324 197.196L316.816 196.56C318.28 196.98 320.236 197.7 321.28 198.252L320.776 198.96C319.78 198.408 317.836 197.652 316.324 197.196ZM312.316 193.008H319.864V196.74H318.916V193.848H313.216V196.812H312.316V193.008ZM320.464 188.316L321.076 188.952C319.48 189.768 316.948 190.38 314.716 190.8C314.668 190.62 314.548 190.332 314.452 190.152C316.636 189.72 319.12 189.072 320.464 188.316ZM316.252 187.98H317.152V191.088C317.152 191.436 317.248 191.496 317.848 191.496C318.124 191.496 319.552 191.496 319.912 191.496C320.392 191.496 320.476 191.34 320.536 190.284C320.728 190.416 321.088 190.548 321.328 190.596C321.232 191.94 320.968 192.288 319.984 192.288C319.72 192.288 318.028 192.288 317.776 192.288C316.564 192.288 316.252 192.048 316.252 191.1V187.98ZM313.948 187.872L314.752 188.172C313.84 189.36 312.4 190.452 311.128 191.16C310.984 190.992 310.672 190.668 310.456 190.512C311.764 189.9 313.132 188.916 313.948 187.872ZM312.724 189.576L313.372 188.928L313.636 189V192.516H312.724V189.576ZM327.496 189.336H328.42V198.948H327.496V189.336ZM323.8 191.604H331.792V192.48H324.712V197.568H323.8V191.604ZM331.336 191.604H332.26V196.332C332.26 196.848 332.152 197.124 331.756 197.268C331.36 197.424 330.712 197.436 329.74 197.436C329.704 197.172 329.56 196.788 329.428 196.524C330.196 196.548 330.868 196.548 331.072 196.536C331.276 196.524 331.336 196.476 331.336 196.308V191.604ZM332.668 188.268L333.028 189.084C330.484 189.516 326.38 189.756 323.068 189.804C323.056 189.552 322.948 189.204 322.864 189C326.2 188.916 330.304 188.676 332.668 188.268ZM287.104 203.084H296.932V203.852H287.104V203.084ZM287.488 211.88H296.572V212.636H287.488V211.88ZM289.468 204.644H294.52V205.328H289.468V204.644ZM289.468 206.156H294.52V206.84H289.468V206.156ZM286.54 207.704H297.448V208.46H286.54V207.704ZM289.06 209.852H294.952V210.596H289.06V209.852ZM288.928 201.932H289.828V208.124H288.928V201.932ZM294.208 201.932H295.108V208.124H294.208V201.932ZM291.508 208.844H292.432V212.3H291.508V208.844ZM289.564 207.908L290.32 208.196C289.588 209.432 288.268 210.572 287.008 211.16C286.876 210.956 286.624 210.644 286.42 210.476C287.632 209.996 288.916 208.964 289.564 207.908ZM294.472 207.908C295.108 208.928 296.356 209.876 297.604 210.32C297.4 210.488 297.136 210.8 297.004 211.016C295.732 210.476 294.46 209.36 293.764 208.184L294.472 207.908ZM300.892 205.52H307.096V206.36H300.892V205.52ZM299.356 207.992H308.656V208.82H299.356V207.992ZM298.816 211.784H309.196V212.612H298.816V211.784ZM303.484 205.892H304.444V212.204H303.484V205.892ZM300.376 209.396L301.108 209.096C301.576 209.756 302.08 210.68 302.272 211.268L301.48 211.604C301.3 211.016 300.832 210.08 300.376 209.396ZM306.784 209.084L307.636 209.42C307.192 210.188 306.652 211.052 306.208 211.616L305.524 211.316C305.944 210.728 306.484 209.768 306.784 209.084ZM304.348 202.436C305.488 203.78 307.732 205.136 309.664 205.736C309.448 205.94 309.172 206.288 309.028 206.528C307.108 205.82 304.876 204.332 303.592 202.808L304.348 202.436ZM303.988 201.812L304.816 202.196C303.52 204.176 301.324 205.712 298.972 206.564C298.84 206.312 298.588 205.964 298.36 205.748C300.628 205.016 302.836 203.6 303.988 201.812ZM314.56 211.88H321.508V212.708H314.56V211.88ZM316.24 205.592H320.164V206.408H316.24V205.592ZM316.252 208.712H320.176V209.528H316.252V208.712ZM315.772 202.52H320.464V212.3H319.564V203.348H316.624V212.3H315.772V202.52ZM310.864 209.816C310.828 209.648 310.684 209.24 310.588 209.024C310.852 208.964 311.152 208.664 311.548 208.232C311.98 207.8 313.336 206.108 314.26 204.464L314.98 204.908C313.936 206.576 312.688 208.196 311.464 209.36V209.372C311.464 209.372 310.864 209.636 310.864 209.816ZM310.864 209.816L310.828 209.12L311.26 208.808L314.812 208.148C314.788 208.388 314.8 208.724 314.812 208.892C311.548 209.564 311.116 209.672 310.864 209.816ZM310.78 206.936C310.732 206.756 310.6 206.324 310.504 206.096C310.72 206.036 310.936 205.76 311.212 205.352C311.512 204.944 312.448 203.384 312.988 201.92L313.816 202.304C313.132 203.804 312.232 205.364 311.332 206.444V206.468C311.332 206.468 310.78 206.756 310.78 206.936ZM310.78 206.936L310.768 206.276L311.188 206L313.588 205.748C313.552 205.964 313.528 206.3 313.528 206.48C311.332 206.756 310.984 206.84 310.78 206.936ZM310.576 211.316C311.608 211.1 313.192 210.728 314.716 210.368L314.812 211.124C313.372 211.508 311.872 211.88 310.744 212.18L310.576 211.316ZM322.804 209.9C322.756 209.72 322.624 209.3 322.516 209.072C322.78 209.024 323.068 208.724 323.452 208.292C323.872 207.86 325.192 206.168 326.056 204.536L326.8 204.98C325.804 206.636 324.592 208.256 323.404 209.432V209.444C323.404 209.444 322.804 209.72 322.804 209.9ZM322.804 209.9L322.756 209.156L323.2 208.844L326.788 208.184C326.764 208.424 326.764 208.772 326.788 208.964C323.5 209.624 323.08 209.732 322.804 209.9ZM322.72 207.008C322.672 206.816 322.528 206.384 322.42 206.144C322.648 206.084 322.864 205.808 323.128 205.388C323.404 204.992 324.304 203.42 324.796 201.968L325.66 202.352C325.024 203.852 324.136 205.412 323.272 206.504V206.528C323.272 206.528 322.72 206.828 322.72 207.008ZM322.72 207.008L322.708 206.36L323.14 206.084L325.42 205.844C325.384 206.06 325.348 206.384 325.348 206.564C323.26 206.84 322.924 206.912 322.72 207.008ZM322.48 211.364C323.536 211.148 325.168 210.788 326.74 210.416L326.824 211.22C325.348 211.592 323.8 211.964 322.648 212.264L322.48 211.364ZM328.156 203.636V207.236H331.78V203.636H328.156ZM327.268 202.772H332.692V208.1H327.268V202.772ZM330.844 209.54L331.672 209.24C332.332 210.284 333.052 211.64 333.316 212.492L332.428 212.852C332.164 212 331.492 210.596 330.844 209.54ZM328.12 209.264L329.056 209.468C328.648 210.836 327.94 212.12 327.136 212.96C326.968 212.816 326.572 212.564 326.344 212.432C327.148 211.676 327.772 210.5 328.12 209.264Z" fill="#76848D"/>
<path d="M282 62C282 60.8954 282.895 60 284 60H336C337.105 60 338 60.8954 338 62V181H282V62Z" fill="url(#paint3_linear_7005_17825)"/>
<path opacity="0.2" d="M294 60H326V181H294V60Z" fill="url(#paint4_linear_7005_17825)"/>
<path opacity="0.04" d="M326 60H336C337.105 60 338 60.8954 338 62V181H326V60Z" fill="#0D262C"/>
<path opacity="0.5" d="M282 62C282 60.8954 282.895 60 284 60H294V181H282V62Z" fill="url(#paint5_linear_7005_17825)"/>
<path d="M414.03 2.804L413.582 1.754L416.942 0.143999H417.74V10H416.536V1.642L414.03 2.804ZM419.624 9.202C419.624 8.81 419.988 8.418 420.492 8.418C420.954 8.418 421.332 8.81 421.332 9.202C421.332 9.65 420.982 10.028 420.492 10.028C419.988 10.028 419.624 9.65 419.624 9.202ZM423.609 3.434L422.587 3.07C422.937 1.334 424.253 0.0879999 426.339 0.0879999C428.355 0.0879999 429.587 1.25 429.587 3.028C429.587 3.966 429.181 4.904 428.677 5.576C428.425 5.926 428.103 6.262 427.725 6.612C426.955 7.298 426.409 7.662 425.611 8.166L424.533 8.838H429.951V10H422.321V9.048L424.449 7.634C424.827 7.396 425.093 7.214 425.247 7.102C425.401 7.004 425.653 6.822 425.989 6.584C426.325 6.346 426.577 6.136 426.745 5.982C426.899 5.828 427.109 5.632 427.347 5.38C427.991 4.68 428.229 4.036 428.299 3.154C428.299 1.88 427.473 1.306 426.255 1.306C425.499 1.306 424.897 1.516 424.463 1.936C424.029 2.356 423.735 2.86 423.609 3.434Z" fill="#2A3C3C"/>
<path d="M414.03 2.804L413.582 1.754L416.942 0.143999H417.74V10H416.536V1.642L414.03 2.804ZM419.624 9.202C419.624 8.81 419.988 8.418 420.492 8.418C420.954 8.418 421.332 8.81 421.332 9.202C421.332 9.65 420.982 10.028 420.492 10.028C419.988 10.028 419.624 9.65 419.624 9.202ZM423.609 3.434L422.587 3.07C422.937 1.334 424.253 0.0879999 426.339 0.0879999C428.355 0.0879999 429.587 1.25 429.587 3.028C429.587 3.966 429.181 4.904 428.677 5.576C428.425 5.926 428.103 6.262 427.725 6.612C426.955 7.298 426.409 7.662 425.611 8.166L424.533 8.838H429.951V10H422.321V9.048L424.449 7.634C424.827 7.396 425.093 7.214 425.247 7.102C425.401 7.004 425.653 6.822 425.989 6.584C426.325 6.346 426.577 6.136 426.745 5.982C426.899 5.828 427.109 5.632 427.347 5.38C427.991 4.68 428.229 4.036 428.299 3.154C428.299 1.88 427.473 1.306 426.255 1.306C425.499 1.306 424.897 1.516 424.463 1.936C424.029 2.356 423.735 2.86 423.609 3.434Z" fill="#1A3341"/>
<path opacity="0.4" d="M394 22C394 20.8954 394.895 20 396 20H448C449.105 20 450 20.8954 450 22V180H394V22Z" fill="url(#paint6_linear_7005_17825)"/>
<path opacity="0.2" d="M406 20H438V180H406V20Z" fill="url(#paint7_linear_7005_17825)"/>
<path opacity="0.04" d="M438 20H448C449.105 20 450 20.8954 450 22V180H438V20Z" fill="#0D262C"/>
<path opacity="0.5" d="M394 22C394 20.8954 394.895 20 396 20H406V180H394V22Z" fill="url(#paint8_linear_7005_17825)"/>
<path d="M75.7772 85.1C75.7772 83.588 76.1272 82.37 76.8412 81.46C77.5412 80.55 78.5772 80.088 79.9352 80.088C82.7212 80.088 84.1072 81.922 84.1072 85.1C84.1072 86.626 83.7572 87.83 83.0712 88.74C82.3712 89.65 81.3352 90.112 79.9632 90.112C78.6472 90.112 77.6252 89.65 76.8832 88.726C76.1412 87.802 75.7772 86.598 75.7772 85.1ZM77.0652 85.1C77.0652 87.494 78.1572 88.922 79.9632 88.922C81.8672 88.922 82.8192 87.648 82.8192 85.1C82.8192 82.552 81.8532 81.278 79.9352 81.278C77.9892 81.278 77.0652 82.678 77.0652 85.1ZM85.2508 89.202C85.2508 88.81 85.6148 88.418 86.1188 88.418C86.5808 88.418 86.9588 88.81 86.9588 89.202C86.9588 89.65 86.6088 90.028 86.1188 90.028C85.6148 90.028 85.2508 89.65 85.2508 89.202ZM88.1163 85.366C88.1163 83.672 88.5363 82.37 89.3623 81.446C90.1883 80.536 91.2243 80.074 92.4703 80.074C94.1083 80.074 95.3963 80.816 95.9423 81.992L94.9903 82.636C94.4163 81.726 93.5623 81.278 92.4143 81.278C91.5463 81.278 90.8183 81.614 90.2303 82.286C89.6423 82.972 89.3483 83.896 89.3623 85.086C89.9083 84.064 91.1823 83.448 92.5823 83.448C93.7163 83.448 94.6263 83.742 95.2843 84.344C95.9423 84.946 96.2783 85.744 96.2783 86.724C96.2783 87.718 95.9143 88.544 95.1723 89.174C94.4303 89.804 93.5063 90.126 92.4003 90.126C89.7543 90.126 88.1163 88.404 88.1163 85.366ZM89.5163 86.556C89.7823 87.942 90.8323 88.922 92.3863 88.922C93.1423 88.922 93.7723 88.726 94.2623 88.32C94.7523 87.928 94.9903 87.41 94.9903 86.78C94.9903 85.394 94.0103 84.652 92.5123 84.652C91.6863 84.652 91.0003 84.848 90.4683 85.24C89.9223 85.632 89.6143 86.066 89.5163 86.556Z" fill="#2A3C3C"/>
<path d="M75.7772 85.1C75.7772 83.588 76.1272 82.37 76.8412 81.46C77.5412 80.55 78.5772 80.088 79.9352 80.088C82.7212 80.088 84.1072 81.922 84.1072 85.1C84.1072 86.626 83.7572 87.83 83.0712 88.74C82.3712 89.65 81.3352 90.112 79.9632 90.112C78.6472 90.112 77.6252 89.65 76.8832 88.726C76.1412 87.802 75.7772 86.598 75.7772 85.1ZM77.0652 85.1C77.0652 87.494 78.1572 88.922 79.9632 88.922C81.8672 88.922 82.8192 87.648 82.8192 85.1C82.8192 82.552 81.8532 81.278 79.9352 81.278C77.9892 81.278 77.0652 82.678 77.0652 85.1ZM85.2508 89.202C85.2508 88.81 85.6148 88.418 86.1188 88.418C86.5808 88.418 86.9588 88.81 86.9588 89.202C86.9588 89.65 86.6088 90.028 86.1188 90.028C85.6148 90.028 85.2508 89.65 85.2508 89.202ZM88.1163 85.366C88.1163 83.672 88.5363 82.37 89.3623 81.446C90.1883 80.536 91.2243 80.074 92.4703 80.074C94.1083 80.074 95.3963 80.816 95.9423 81.992L94.9903 82.636C94.4163 81.726 93.5623 81.278 92.4143 81.278C91.5463 81.278 90.8183 81.614 90.2303 82.286C89.6423 82.972 89.3483 83.896 89.3623 85.086C89.9083 84.064 91.1823 83.448 92.5823 83.448C93.7163 83.448 94.6263 83.742 95.2843 84.344C95.9423 84.946 96.2783 85.744 96.2783 86.724C96.2783 87.718 95.9143 88.544 95.1723 89.174C94.4303 89.804 93.5063 90.126 92.4003 90.126C89.7543 90.126 88.1163 88.404 88.1163 85.366ZM89.5163 86.556C89.7823 87.942 90.8323 88.922 92.3863 88.922C93.1423 88.922 93.7723 88.726 94.2623 88.32C94.7523 87.928 94.9903 87.41 94.9903 86.78C94.9903 85.394 94.0103 84.652 92.5123 84.652C91.6863 84.652 91.0003 84.848 90.4683 85.24C89.9223 85.632 89.6143 86.066 89.5163 86.556Z" fill="#1A3341"/>
<path d="M62.768 194.816C62.72 194.636 62.576 194.192 62.468 193.952C62.744 193.904 63.032 193.604 63.428 193.172C63.848 192.74 65.18 191.072 66.068 189.44L66.86 189.932C65.84 191.576 64.604 193.184 63.404 194.324V194.36C63.404 194.36 62.768 194.636 62.768 194.816ZM62.768 194.816L62.72 194.06L63.176 193.748L66.548 193.136C66.512 193.388 66.512 193.748 66.524 193.928C63.452 194.552 63.032 194.672 62.768 194.816ZM62.684 191.936C62.636 191.744 62.492 191.3 62.384 191.06C62.612 191.012 62.84 190.736 63.092 190.328C63.38 189.932 64.292 188.372 64.796 186.92L65.66 187.316C65 188.816 64.112 190.352 63.236 191.432V191.468C63.236 191.468 62.684 191.744 62.684 191.936ZM62.684 191.936L62.672 191.252L63.116 190.964L65.516 190.712C65.468 190.952 65.444 191.288 65.432 191.468C63.248 191.756 62.9 191.828 62.684 191.936ZM62.468 196.316C63.488 196.112 65 195.74 66.5 195.38L66.596 196.184C65.204 196.556 63.74 196.928 62.648 197.216L62.468 196.316ZM67.076 187.568H71.972V188.396H67.076V187.568ZM71.708 187.568H71.888L72.068 187.52L72.704 187.856C71.588 190.148 69.152 191.744 66.824 192.608C66.704 192.38 66.464 192.032 66.284 191.852C68.432 191.132 70.772 189.596 71.708 187.724V187.568ZM66.452 196.796H73.532V197.636H66.452V196.796ZM69.548 193.568H70.448V197.108H69.548V193.568ZM67.172 193.016H72.956V193.856H67.172V193.016ZM69.572 190.784L70.064 190.148C71.24 190.604 72.8 191.348 73.592 191.852L73.076 192.596C72.308 192.068 70.76 191.288 69.572 190.784ZM76.976 190.844H83.036V191.684H76.976V190.844ZM76.76 196.424H83.192V197.276H76.76V196.424ZM76.352 193.124H83.804V197.9H82.856V193.94H77.252V197.936H76.352V193.124ZM80.192 186.896L80.984 187.292C79.652 189.296 77.444 191.024 75.128 192.044C74.972 191.804 74.72 191.468 74.468 191.252C76.76 190.352 78.968 188.756 80.192 186.896ZM80.372 187.592C81.836 189.212 83.6 190.268 85.616 191.12C85.388 191.324 85.124 191.66 84.992 191.936C82.94 190.952 81.2 189.812 79.604 187.988L80.372 187.592ZM90.56 196.88H97.508V197.708H90.56V196.88ZM92.24 190.592H96.164V191.408H92.24V190.592ZM92.252 193.712H96.176V194.528H92.252V193.712ZM91.772 187.52H96.464V197.3H95.564V188.348H92.624V197.3H91.772V187.52ZM86.864 194.816C86.828 194.648 86.684 194.24 86.588 194.024C86.852 193.964 87.152 193.664 87.548 193.232C87.98 192.8 89.336 191.108 90.26 189.464L90.98 189.908C89.936 191.576 88.688 193.196 87.464 194.36V194.372C87.464 194.372 86.864 194.636 86.864 194.816ZM86.864 194.816L86.828 194.12L87.26 193.808L90.812 193.148C90.788 193.388 90.8 193.724 90.812 193.892C87.548 194.564 87.116 194.672 86.864 194.816ZM86.78 191.936C86.732 191.756 86.6 191.324 86.504 191.096C86.72 191.036 86.936 190.76 87.212 190.352C87.512 189.944 88.448 188.384 88.988 186.92L89.816 187.304C89.132 188.804 88.232 190.364 87.332 191.444V191.468C87.332 191.468 86.78 191.756 86.78 191.936ZM86.78 191.936L86.768 191.276L87.188 191L89.588 190.748C89.552 190.964 89.528 191.3 89.528 191.48C87.332 191.756 86.984 191.84 86.78 191.936ZM86.576 196.316C87.608 196.1 89.192 195.728 90.716 195.368L90.812 196.124C89.372 196.508 87.872 196.88 86.744 197.18L86.576 196.316ZM98.804 194.9C98.756 194.72 98.624 194.3 98.516 194.072C98.78 194.024 99.068 193.724 99.452 193.292C99.872 192.86 101.192 191.168 102.056 189.536L102.8 189.98C101.804 191.636 100.592 193.256 99.404 194.432V194.444C99.404 194.444 98.804 194.72 98.804 194.9ZM98.804 194.9L98.756 194.156L99.2 193.844L102.788 193.184C102.764 193.424 102.764 193.772 102.788 193.964C99.5 194.624 99.08 194.732 98.804 194.9ZM98.72 192.008C98.672 191.816 98.528 191.384 98.42 191.144C98.648 191.084 98.864 190.808 99.128 190.388C99.404 189.992 100.304 188.42 100.796 186.968L101.66 187.352C101.024 188.852 100.136 190.412 99.272 191.504V191.528C99.272 191.528 98.72 191.828 98.72 192.008ZM98.72 192.008L98.708 191.36L99.14 191.084L101.42 190.844C101.384 191.06 101.348 191.384 101.348 191.564C99.26 191.84 98.924 191.912 98.72 192.008ZM98.48 196.364C99.536 196.148 101.168 195.788 102.74 195.416L102.824 196.22C101.348 196.592 99.8 196.964 98.648 197.264L98.48 196.364ZM104.156 188.636V192.236H107.78V188.636H104.156ZM103.268 187.772H108.692V193.1H103.268V187.772ZM106.844 194.54L107.672 194.24C108.332 195.284 109.052 196.64 109.316 197.492L108.428 197.852C108.164 197 107.492 195.596 106.844 194.54ZM104.12 194.264L105.056 194.468C104.648 195.836 103.94 197.12 103.136 197.96C102.968 197.816 102.572 197.564 102.344 197.432C103.148 196.676 103.772 195.5 104.12 194.264Z" fill="#76848D"/>
<path d="M58 102C58 100.895 58.8954 100 60 100H112C113.105 100 114 100.895 114 102V180H58V102Z" fill="url(#paint9_linear_7005_17825)"/>
<path opacity="0.2" d="M70 100H102V180H70V100Z" fill="url(#paint10_linear_7005_17825)"/>
<path opacity="0.04" d="M102 100H112C113.105 100 114 100.895 114 102V180H102V100Z" fill="#0D262C"/>
<path opacity="0.5" d="M58 102C58 100.895 58.8954 100 60 100H70V180H58V102Z" fill="url(#paint11_linear_7005_17825)"/>
<path d="M397.016 190.152L397.82 190.32C397.556 191.208 397.244 192.072 396.884 192.912C396.532 193.744 396.144 194.52 395.72 195.24C395.304 195.96 394.852 196.596 394.364 197.148C394.316 197.092 394.248 197.032 394.16 196.968C394.08 196.904 393.996 196.84 393.908 196.776C393.82 196.704 393.744 196.652 393.68 196.62C394.168 196.1 394.62 195.5 395.036 194.82C395.452 194.132 395.824 193.392 396.152 192.6C396.488 191.8 396.776 190.984 397.016 190.152ZM393.716 190.956L394.4 190.596C394.752 191.052 395.104 191.536 395.456 192.048C395.808 192.552 396.144 193.06 396.464 193.572C396.784 194.084 397.076 194.58 397.34 195.06C397.604 195.532 397.816 195.956 397.976 196.332L397.196 196.764C397.044 196.388 396.84 195.96 396.584 195.48C396.336 195 396.052 194.5 395.732 193.98C395.42 193.452 395.092 192.932 394.748 192.42C394.404 191.9 394.06 191.412 393.716 190.956ZM399.236 189.84H402.92V190.668H399.236V189.84ZM399.332 187.896L400.184 188.028C400.024 189.02 399.8 189.956 399.512 190.836C399.224 191.716 398.876 192.456 398.468 193.056C398.42 193.016 398.348 192.968 398.252 192.912C398.156 192.848 398.06 192.788 397.964 192.732C397.868 192.676 397.784 192.632 397.712 192.6C397.992 192.224 398.236 191.788 398.444 191.292C398.652 190.796 398.828 190.26 398.972 189.684C399.124 189.108 399.244 188.512 399.332 187.896ZM402.728 189.84H402.872L403.016 189.792L403.616 189.984C403.536 190.336 403.448 190.704 403.352 191.088C403.256 191.472 403.152 191.836 403.04 192.18C402.936 192.524 402.828 192.832 402.716 193.104L402.008 192.876C402.104 192.636 402.196 192.352 402.284 192.024C402.372 191.696 402.456 191.356 402.536 191.004C402.616 190.652 402.68 190.32 402.728 190.008V189.84ZM400.856 192.936C401 193.784 401.184 194.528 401.408 195.168C401.632 195.808 401.916 196.376 402.26 196.872C402.604 197.368 403.036 197.828 403.556 198.252C403.444 198.332 403.332 198.436 403.22 198.564C403.108 198.692 403.02 198.816 402.956 198.936C402.412 198.448 401.956 197.932 401.588 197.388C401.22 196.836 400.916 196.212 400.676 195.516C400.444 194.812 400.252 194 400.1 193.08L400.856 192.936ZM400.1 191.376H400.94V192.228C400.94 192.7 400.916 193.22 400.868 193.788C400.82 194.348 400.716 194.932 400.556 195.54C400.404 196.14 400.168 196.736 399.848 197.328C399.536 197.92 399.112 198.484 398.576 199.02C398.536 198.948 398.48 198.872 398.408 198.792C398.336 198.712 398.26 198.632 398.18 198.552C398.108 198.48 398.036 198.42 397.964 198.372C398.46 197.884 398.848 197.372 399.128 196.836C399.416 196.3 399.628 195.76 399.764 195.216C399.908 194.664 400 194.132 400.04 193.62C400.08 193.108 400.1 192.64 400.1 192.216V191.376ZM398.096 188.784V189.612H393.776V197.652H398.108V198.468H392.888V188.784H398.096ZM410.624 188.28H414.164V189.024H410.624V188.28ZM410.636 190.08H414.176V190.752H410.636V190.08ZM410.528 191.844H414.176V192.516H410.528V191.844ZM410.192 188.28H411.032V190.788C411.032 191.212 410.992 191.66 410.912 192.132C410.84 192.596 410.692 193.048 410.468 193.488C410.244 193.928 409.908 194.32 409.46 194.664C409.428 194.608 409.372 194.544 409.292 194.472C409.22 194.392 409.14 194.316 409.052 194.244C408.972 194.164 408.9 194.108 408.836 194.076C409.244 193.764 409.544 193.424 409.736 193.056C409.928 192.68 410.052 192.296 410.108 191.904C410.164 191.512 410.192 191.136 410.192 190.776V188.28ZM413.852 188.28H414.74V193.548C414.74 193.772 414.708 193.948 414.644 194.076C414.58 194.204 414.464 194.3 414.296 194.364C414.128 194.436 413.9 194.48 413.612 194.496C413.332 194.512 412.992 194.52 412.592 194.52C412.568 194.4 412.524 194.268 412.46 194.124C412.396 193.972 412.332 193.844 412.268 193.74C412.58 193.748 412.86 193.752 413.108 193.752C413.364 193.752 413.536 193.752 413.624 193.752C413.712 193.744 413.772 193.728 413.804 193.704C413.836 193.672 413.852 193.616 413.852 193.536V188.28ZM405.596 190.488H408.512V191.196H405.596V190.488ZM405.188 188.472H406.016V193.872H405.188V188.472ZM405.596 188.472H409.028V193.212H405.596V192.492H408.2V189.204H405.596V188.472ZM404.504 197.82H415.46V198.624H404.504V197.82ZM405.908 194.892H414.128V198.24H413.252V195.624H411.632V198.24H410.792V195.624H409.184V198.24H408.344V195.624H406.748V198.24H405.908V194.892ZM416.552 194.46H427.46V195.24H416.552V194.46ZM424.16 194.748L425.036 195C424.78 195.656 424.428 196.22 423.98 196.692C423.532 197.156 422.98 197.54 422.324 197.844C421.676 198.148 420.916 198.388 420.044 198.564C419.18 198.74 418.196 198.876 417.092 198.972C417.068 198.844 417.02 198.704 416.948 198.552C416.876 198.408 416.8 198.28 416.72 198.168C418.128 198.088 419.324 197.928 420.308 197.688C421.3 197.44 422.112 197.08 422.744 196.608C423.376 196.136 423.848 195.516 424.16 194.748ZM416.696 190.38H427.292V191.16H416.696V190.38ZM421.532 188.772H422.42V193.548H421.532V188.772ZM421.076 190.572L421.808 190.884C421.536 191.22 421.212 191.544 420.836 191.856C420.468 192.16 420.068 192.444 419.636 192.708C419.212 192.964 418.772 193.2 418.316 193.416C417.868 193.624 417.424 193.8 416.984 193.944C416.92 193.832 416.832 193.708 416.72 193.572C416.616 193.428 416.516 193.312 416.42 193.224C416.852 193.104 417.292 192.956 417.74 192.78C418.188 192.596 418.62 192.388 419.036 192.156C419.452 191.924 419.832 191.676 420.176 191.412C420.528 191.14 420.828 190.86 421.076 190.572ZM422.876 190.584C423.212 190.944 423.632 191.292 424.136 191.628C424.648 191.956 425.2 192.248 425.792 192.504C426.392 192.752 426.98 192.952 427.556 193.104C427.492 193.168 427.42 193.244 427.34 193.332C427.268 193.42 427.2 193.512 427.136 193.608C427.072 193.696 427.016 193.776 426.968 193.848C426.528 193.712 426.08 193.544 425.624 193.344C425.176 193.144 424.736 192.916 424.304 192.66C423.88 192.404 423.484 192.128 423.116 191.832C422.748 191.528 422.424 191.216 422.144 190.896L422.876 190.584ZM425.42 187.932L426.092 188.58C425.556 188.7 424.952 188.808 424.28 188.904C423.608 188.992 422.9 189.068 422.156 189.132C421.412 189.196 420.66 189.248 419.9 189.288C419.148 189.32 418.42 189.348 417.716 189.372C417.708 189.268 417.684 189.148 417.644 189.012C417.604 188.868 417.564 188.748 417.524 188.652C418.212 188.644 418.924 188.62 419.66 188.58C420.404 188.532 421.132 188.48 421.844 188.424C422.556 188.36 423.22 188.288 423.836 188.208C424.452 188.128 424.98 188.036 425.42 187.932ZM418.28 196.692L418.988 196.104C419.772 196.256 420.552 196.42 421.328 196.596C422.104 196.772 422.852 196.956 423.572 197.148C424.3 197.332 424.98 197.52 425.612 197.712C426.252 197.896 426.82 198.076 427.316 198.252L426.488 198.9C425.88 198.668 425.144 198.424 424.28 198.168C423.424 197.912 422.484 197.66 421.46 197.412C420.444 197.156 419.384 196.916 418.28 196.692ZM418.292 196.692C418.588 196.388 418.896 196.04 419.216 195.648C419.536 195.248 419.844 194.836 420.14 194.412C420.436 193.98 420.688 193.572 420.896 193.188L421.808 193.428C421.6 193.812 421.352 194.208 421.064 194.616C420.784 195.016 420.496 195.4 420.2 195.768C419.904 196.128 419.632 196.436 419.384 196.692H418.292ZM431.216 189.24V190.608H436.82V189.24H431.216ZM430.28 188.46H437.804V191.388H430.28V188.46ZM433.46 194.076H434.42V195.192C434.42 195.448 434.388 195.712 434.324 195.984C434.26 196.248 434.132 196.516 433.94 196.788C433.748 197.06 433.464 197.328 433.088 197.592C432.72 197.856 432.232 198.108 431.624 198.348C431.024 198.588 430.276 198.808 429.38 199.008C429.348 198.936 429.296 198.852 429.224 198.756C429.16 198.668 429.088 198.58 429.008 198.492C428.936 198.404 428.864 198.328 428.792 198.264C429.656 198.096 430.372 197.912 430.94 197.712C431.508 197.512 431.96 197.304 432.296 197.088C432.64 196.872 432.892 196.652 433.052 196.428C433.22 196.204 433.328 195.988 433.376 195.78C433.432 195.572 433.46 195.372 433.46 195.18V194.076ZM434.348 197.22L434.792 196.56C435.152 196.672 435.536 196.8 435.944 196.944C436.352 197.088 436.756 197.236 437.156 197.388C437.564 197.54 437.948 197.688 438.308 197.832C438.668 197.976 438.976 198.112 439.232 198.24L438.776 199.008C438.528 198.88 438.228 198.74 437.876 198.588C437.524 198.436 437.144 198.28 436.736 198.12C436.336 197.96 435.928 197.804 435.512 197.652C435.104 197.492 434.716 197.348 434.348 197.22ZM429.86 192.468H438.272V196.812H437.312V193.308H430.784V196.896H429.86V192.468ZM441.068 193.956H451.016V194.832H441.068V193.956ZM443.168 191.64H448.892V192.48H443.168V191.64ZM447.356 195.708L448.112 195.3C448.472 195.62 448.828 195.968 449.18 196.344C449.54 196.712 449.864 197.08 450.152 197.448C450.448 197.816 450.684 198.152 450.86 198.456L450.056 198.948C449.888 198.644 449.656 198.304 449.36 197.928C449.072 197.544 448.752 197.16 448.4 196.776C448.056 196.384 447.708 196.028 447.356 195.708ZM446.048 187.92L446.912 188.292C446.272 189.22 445.456 190.068 444.464 190.836C443.472 191.604 442.372 192.268 441.164 192.828C441.124 192.748 441.064 192.66 440.984 192.564C440.904 192.46 440.82 192.364 440.732 192.276C440.652 192.18 440.576 192.104 440.504 192.048C441.288 191.712 442.036 191.328 442.748 190.896C443.46 190.464 444.096 189.996 444.656 189.492C445.224 188.98 445.688 188.456 446.048 187.92ZM446.192 188.376C446.44 188.68 446.752 189 447.128 189.336C447.512 189.664 447.944 189.988 448.424 190.308C448.904 190.628 449.408 190.928 449.936 191.208C450.472 191.48 451.012 191.708 451.556 191.892C451.492 191.956 451.416 192.036 451.328 192.132C451.248 192.22 451.172 192.316 451.1 192.42C451.036 192.516 450.976 192.604 450.92 192.684C450.384 192.468 449.852 192.212 449.324 191.916C448.804 191.612 448.308 191.288 447.836 190.944C447.372 190.592 446.944 190.24 446.552 189.888C446.168 189.536 445.848 189.204 445.592 188.892L446.192 188.376ZM441.884 198.696C441.868 198.632 441.84 198.54 441.8 198.42C441.768 198.308 441.732 198.192 441.692 198.072C441.652 197.952 441.612 197.852 441.572 197.772C441.708 197.74 441.848 197.672 441.992 197.568C442.136 197.456 442.3 197.312 442.484 197.136C442.58 197.048 442.724 196.908 442.916 196.716C443.108 196.516 443.32 196.28 443.552 196.008C443.784 195.736 444.024 195.444 444.272 195.132C444.52 194.812 444.748 194.488 444.956 194.16L445.82 194.712C445.332 195.368 444.808 196 444.248 196.608C443.688 197.208 443.124 197.736 442.556 198.192V198.216C442.556 198.216 442.52 198.232 442.448 198.264C442.384 198.296 442.308 198.336 442.22 198.384C442.132 198.432 442.052 198.484 441.98 198.54C441.916 198.596 441.884 198.648 441.884 198.696ZM441.884 198.696L441.872 197.976L442.52 197.628L449.6 197.088C449.616 197.216 449.64 197.36 449.672 197.52C449.712 197.68 449.748 197.808 449.78 197.904C448.66 198 447.692 198.08 446.876 198.144C446.068 198.216 445.388 198.276 444.836 198.324C444.284 198.372 443.832 198.412 443.48 198.444C443.128 198.484 442.848 198.516 442.64 198.54C442.44 198.572 442.284 198.596 442.172 198.612C442.06 198.636 441.964 198.664 441.884 198.696Z" fill="#76848D"/>
<path d="M174.612 190.92H185.4V191.796H174.612V190.92ZM176.364 188.244H177.3V197.304H185.064V198.18H176.364V188.244ZM179.484 187.98H180.384V194.772H182.676V188.112H183.612V195.6H179.484V187.98ZM188.772 191.064V192.372H195.216V191.064H188.772ZM188.772 189.072V190.356H195.216V189.072H188.772ZM187.884 188.304H196.14V193.128H187.884V188.304ZM193.32 192.624C193.608 193.016 193.972 193.38 194.412 193.716C194.86 194.052 195.352 194.348 195.888 194.604C196.432 194.86 196.984 195.06 197.544 195.204C197.48 195.26 197.408 195.336 197.328 195.432C197.248 195.528 197.172 195.624 197.1 195.72C197.036 195.808 196.98 195.892 196.932 195.972C196.364 195.788 195.804 195.548 195.252 195.252C194.7 194.948 194.192 194.6 193.728 194.208C193.264 193.808 192.876 193.38 192.564 192.924L193.32 192.624ZM190.728 192.624L191.52 192.948C191.2 193.396 190.804 193.816 190.332 194.208C189.86 194.6 189.348 194.952 188.796 195.264C188.252 195.576 187.7 195.832 187.14 196.032C187.1 195.944 187.044 195.856 186.972 195.768C186.908 195.68 186.836 195.592 186.756 195.504C186.684 195.416 186.612 195.34 186.54 195.276C187.084 195.124 187.62 194.912 188.148 194.64C188.684 194.368 189.176 194.06 189.624 193.716C190.072 193.372 190.44 193.008 190.728 192.624ZM189.732 194.748H190.656V195.48C190.656 195.768 190.624 196.072 190.56 196.392C190.504 196.704 190.388 197.02 190.212 197.34C190.036 197.652 189.772 197.952 189.42 198.24C189.076 198.528 188.612 198.792 188.028 199.032C187.988 198.952 187.932 198.868 187.86 198.78C187.788 198.692 187.712 198.604 187.632 198.516C187.552 198.436 187.48 198.368 187.416 198.312C187.944 198.112 188.36 197.896 188.664 197.664C188.976 197.424 189.208 197.18 189.36 196.932C189.52 196.676 189.62 196.424 189.66 196.176C189.708 195.92 189.732 195.68 189.732 195.456V194.748ZM191.532 188.712H192.432V192.78H191.532V188.712ZM193.548 194.748H194.472V198.936H193.548V194.748ZM204 188.448H208.776V193.704H204V192.912H207.948V189.24H204V188.448ZM204.036 190.692H208.308V191.448H204.036V190.692ZM206.16 193.26C206.336 194.004 206.576 194.696 206.88 195.336C207.184 195.976 207.564 196.532 208.02 197.004C208.476 197.468 209.012 197.832 209.628 198.096C209.556 198.152 209.484 198.224 209.412 198.312C209.34 198.408 209.268 198.504 209.196 198.6C209.132 198.696 209.08 198.788 209.04 198.876C208.4 198.556 207.844 198.132 207.372 197.604C206.908 197.076 206.52 196.456 206.208 195.744C205.896 195.032 205.644 194.252 205.452 193.404L206.16 193.26ZM208.836 194.112L209.412 194.748C209.188 194.932 208.94 195.124 208.668 195.324C208.404 195.516 208.136 195.7 207.864 195.876C207.592 196.044 207.336 196.196 207.096 196.332L206.64 195.768C206.864 195.624 207.112 195.46 207.384 195.276C207.656 195.084 207.92 194.888 208.176 194.688C208.44 194.48 208.66 194.288 208.836 194.112ZM203.52 198.96L203.448 198.168L203.88 197.832L206.556 197.184C206.556 197.312 206.56 197.456 206.568 197.616C206.576 197.768 206.588 197.896 206.604 198C205.98 198.168 205.476 198.304 205.092 198.408C204.716 198.52 204.424 198.608 204.216 198.672C204.008 198.736 203.852 198.788 203.748 198.828C203.652 198.876 203.576 198.92 203.52 198.96ZM203.52 198.96C203.496 198.888 203.46 198.808 203.412 198.72C203.364 198.632 203.312 198.54 203.256 198.444C203.208 198.348 203.16 198.272 203.112 198.216C203.2 198.16 203.296 198.068 203.4 197.94C203.504 197.812 203.556 197.62 203.556 197.364V188.448H204.432V198.072C204.432 198.072 204.4 198.092 204.336 198.132C204.28 198.18 204.204 198.236 204.108 198.3C204.02 198.364 203.928 198.432 203.832 198.504C203.744 198.584 203.668 198.664 203.604 198.744C203.548 198.824 203.52 198.896 203.52 198.96ZM200.136 187.956L200.952 188.184C200.8 188.624 200.616 189.06 200.4 189.492C200.184 189.916 199.944 190.32 199.68 190.704C199.424 191.08 199.156 191.412 198.876 191.7C198.852 191.636 198.812 191.552 198.756 191.448C198.7 191.336 198.64 191.224 198.576 191.112C198.52 191 198.464 190.916 198.408 190.86C198.768 190.5 199.1 190.064 199.404 189.552C199.716 189.04 199.96 188.508 200.136 187.956ZM199.92 189.288H202.86V190.152H199.752L199.92 189.288ZM199.32 191.436H202.704V192.252H199.32V191.436ZM198.696 193.872H202.968V194.7H198.696V193.872ZM200.292 198.876L200.184 198.072L200.508 197.712L202.944 196.536C202.96 196.656 202.98 196.792 203.004 196.944C203.036 197.096 203.068 197.216 203.1 197.304C202.532 197.6 202.072 197.836 201.72 198.012C201.376 198.196 201.108 198.34 200.916 198.444C200.732 198.556 200.596 198.64 200.508 198.696C200.42 198.76 200.348 198.82 200.292 198.876ZM200.292 198.876C200.276 198.804 200.248 198.716 200.208 198.612C200.168 198.516 200.12 198.42 200.064 198.324C200.016 198.236 199.968 198.16 199.92 198.096C200.016 198.048 200.116 197.968 200.22 197.856C200.324 197.744 200.376 197.568 200.376 197.328V191.724H201.24V198.072C201.24 198.072 201.208 198.088 201.144 198.12C201.08 198.16 201 198.208 200.904 198.264C200.816 198.32 200.724 198.384 200.628 198.456C200.532 198.528 200.452 198.6 200.388 198.672C200.324 198.744 200.292 198.812 200.292 198.876ZM215.22 188.64H221.124V189.504H215.22V188.64ZM218.736 192.216H219.648V197.808C219.648 198.088 219.608 198.3 219.528 198.444C219.448 198.596 219.308 198.712 219.108 198.792C218.9 198.856 218.616 198.892 218.256 198.9C217.904 198.916 217.432 198.924 216.84 198.924C216.824 198.804 216.788 198.66 216.732 198.492C216.676 198.324 216.612 198.172 216.54 198.036C216.828 198.044 217.1 198.052 217.356 198.06C217.612 198.068 217.836 198.068 218.028 198.06C218.22 198.06 218.352 198.06 218.424 198.06C218.536 198.052 218.616 198.032 218.664 198C218.712 197.96 218.736 197.892 218.736 197.796V192.216ZM214.692 191.952H221.46V192.816H214.692V191.952ZM212.304 192.888L213.096 192.096L213.192 192.144V198.996H212.304V192.888ZM213.684 190.488L214.536 190.8C214.232 191.304 213.88 191.808 213.48 192.312C213.08 192.816 212.66 193.288 212.22 193.728C211.788 194.16 211.36 194.548 210.936 194.892C210.888 194.828 210.824 194.748 210.744 194.652C210.672 194.556 210.596 194.46 210.516 194.364C210.436 194.268 210.364 194.192 210.3 194.136C210.716 193.84 211.128 193.496 211.536 193.104C211.952 192.712 212.344 192.292 212.712 191.844C213.088 191.396 213.412 190.944 213.684 190.488ZM213.204 187.908L214.068 188.268C213.804 188.612 213.496 188.968 213.144 189.336C212.8 189.696 212.436 190.044 212.052 190.38C211.676 190.708 211.308 191 210.948 191.256C210.908 191.192 210.856 191.116 210.792 191.028C210.736 190.932 210.672 190.84 210.6 190.752C210.536 190.656 210.476 190.584 210.42 190.536C210.756 190.304 211.096 190.04 211.44 189.744C211.792 189.448 212.12 189.14 212.424 188.82C212.736 188.5 212.996 188.196 213.204 187.908Z" fill="#76848D"/>
<line y1="180.5" x2="544" y2="180.5" stroke="#ABBEC9"/>
<defs>
<linearGradient id="paint0_linear_7005_17825" x1="198" y1="84" x2="198" y2="181" gradientUnits="userSpaceOnUse">
<stop stop-color="#6AA2E2"/>
<stop offset="1" stop-color="#9DBCFA"/>
</linearGradient>
<linearGradient id="paint1_linear_7005_17825" x1="198" y1="84" x2="198" y2="181" gradientUnits="userSpaceOnUse">
<stop stop-color="white" stop-opacity="0"/>
<stop offset="0.739583" stop-color="white"/>
</linearGradient>
<linearGradient id="paint2_linear_7005_17825" x1="176" y1="-105.15" x2="176" y2="181" gradientUnits="userSpaceOnUse">
<stop stop-color="white" stop-opacity="0.05"/>
<stop offset="0.75" stop-color="white" stop-opacity="0.8"/>
</linearGradient>
<linearGradient id="paint3_linear_7005_17825" x1="310" y1="60" x2="310" y2="181" gradientUnits="userSpaceOnUse">
<stop stop-color="#6D73F9"/>
<stop offset="1" stop-color="#9BB8F1"/>
</linearGradient>
<linearGradient id="paint4_linear_7005_17825" x1="310" y1="60" x2="310" y2="181" gradientUnits="userSpaceOnUse">
<stop stop-color="white" stop-opacity="0"/>
<stop offset="0.739583" stop-color="white"/>
</linearGradient>
<linearGradient id="paint5_linear_7005_17825" x1="288" y1="-175.95" x2="288" y2="181" gradientUnits="userSpaceOnUse">
<stop stop-color="white" stop-opacity="0.05"/>
<stop offset="0.75" stop-color="white" stop-opacity="0.8"/>
</linearGradient>
<linearGradient id="paint6_linear_7005_17825" x1="422" y1="20" x2="422" y2="180" gradientUnits="userSpaceOnUse">
<stop stop-color="#6D73F9"/>
<stop offset="1" stop-color="#9BB8F1"/>
</linearGradient>
<linearGradient id="paint7_linear_7005_17825" x1="422" y1="20" x2="422" y2="180" gradientUnits="userSpaceOnUse">
<stop stop-color="white" stop-opacity="0"/>
<stop offset="0.739583" stop-color="white"/>
</linearGradient>
<linearGradient id="paint8_linear_7005_17825" x1="400" y1="-292" x2="400" y2="180" gradientUnits="userSpaceOnUse">
<stop stop-color="white" stop-opacity="0.05"/>
<stop offset="0.75" stop-color="white" stop-opacity="0.8"/>
</linearGradient>
<linearGradient id="paint9_linear_7005_17825" x1="86" y1="100" x2="86" y2="180" gradientUnits="userSpaceOnUse">
<stop stop-color="#CDE3E9"/>
<stop offset="1" stop-color="#D3E8ED"/>
</linearGradient>
<linearGradient id="paint10_linear_7005_17825" x1="86" y1="100" x2="86" y2="180" gradientUnits="userSpaceOnUse">
<stop stop-color="white" stop-opacity="0"/>
<stop offset="0.739583" stop-color="white"/>
</linearGradient>
<linearGradient id="paint11_linear_7005_17825" x1="64" y1="-56" x2="64" y2="180" gradientUnits="userSpaceOnUse">
<stop stop-color="white" stop-opacity="0.05"/>
<stop offset="0.75" stop-color="white" stop-opacity="0.8"/>
</linearGradient>
</defs>
</svg>
