<svg width="335" height="216" viewBox="0 0 335 216" fill="none" xmlns="http://www.w3.org/2000/svg">
<path d="M123.433 69.1C123.433 67.588 123.783 66.37 124.497 65.46C125.197 64.55 126.233 64.088 127.591 64.088C130.377 64.088 131.763 65.922 131.763 69.1C131.763 70.626 131.413 71.83 130.727 72.74C130.027 73.65 128.991 74.112 127.619 74.112C126.303 74.112 125.281 73.65 124.539 72.726C123.797 71.802 123.433 70.598 123.433 69.1ZM124.721 69.1C124.721 71.494 125.813 72.922 127.619 72.922C129.523 72.922 130.475 71.648 130.475 69.1C130.475 66.552 129.509 65.278 127.591 65.278C125.645 65.278 124.721 66.678 124.721 69.1ZM132.907 73.202C132.907 72.81 133.271 72.418 133.775 72.418C134.237 72.418 134.615 72.81 134.615 73.202C134.615 73.65 134.265 74.028 133.775 74.028C133.271 74.028 132.907 73.65 132.907 73.202ZM141.387 65.39H135.451V64.2H142.885V64.998L138.013 74H136.683L141.387 65.39Z" fill="#2A3C3C"/>
<path d="M123.433 69.1C123.433 67.588 123.783 66.37 124.497 65.46C125.197 64.55 126.233 64.088 127.591 64.088C130.377 64.088 131.763 65.922 131.763 69.1C131.763 70.626 131.413 71.83 130.727 72.74C130.027 73.65 128.991 74.112 127.619 74.112C126.303 74.112 125.281 73.65 124.539 72.726C123.797 71.802 123.433 70.598 123.433 69.1ZM124.721 69.1C124.721 71.494 125.813 72.922 127.619 72.922C129.523 72.922 130.475 71.648 130.475 69.1C130.475 66.552 129.509 65.278 127.591 65.278C125.645 65.278 124.721 66.678 124.721 69.1ZM132.907 73.202C132.907 72.81 133.271 72.418 133.775 72.418C134.237 72.418 134.615 72.81 134.615 73.202C134.615 73.65 134.265 74.028 133.775 74.028C133.271 74.028 132.907 73.65 132.907 73.202ZM141.387 65.39H135.451V64.2H142.885V64.998L138.013 74H136.683L141.387 65.39Z" fill="#1A3341"/>
<path d="M105 86C105 84.8954 105.895 84 107 84H159C160.105 84 161 84.8954 161 86V181H105V86Z" fill="url(#paint0_linear_5796_19354)"/>
<path opacity="0.2" d="M117 84H149V181H117V84Z" fill="url(#paint1_linear_5796_19354)"/>
<path opacity="0.04" d="M149 84H159C160.105 84 161 84.8954 161 86V181H149V84Z" fill="#0D262C"/>
<path opacity="0.5" d="M105 86C105 84.8954 105.895 84 107 84H117V181H105V86Z" fill="url(#paint2_linear_5796_19354)"/>
<path d="M190.763 45.1C190.763 43.588 191.113 42.37 191.827 41.46C192.527 40.55 193.563 40.088 194.921 40.088C197.707 40.088 199.093 41.922 199.093 45.1C199.093 46.626 198.743 47.83 198.057 48.74C197.357 49.65 196.321 50.112 194.949 50.112C193.633 50.112 192.611 49.65 191.869 48.726C191.127 47.802 190.763 46.598 190.763 45.1ZM192.051 45.1C192.051 47.494 193.143 48.922 194.949 48.922C196.853 48.922 197.805 47.648 197.805 45.1C197.805 42.552 196.839 41.278 194.921 41.278C192.975 41.278 192.051 42.678 192.051 45.1ZM200.237 49.202C200.237 48.81 200.601 48.418 201.105 48.418C201.567 48.418 201.945 48.81 201.945 49.202C201.945 49.65 201.595 50.028 201.105 50.028C200.601 50.028 200.237 49.65 200.237 49.202ZM211.251 44.918C211.251 46.584 210.859 47.872 210.061 48.768C209.263 49.678 208.199 50.126 206.869 50.126C205.245 50.126 203.971 49.44 203.341 48.39L204.349 47.69C204.909 48.474 205.931 48.922 207.037 48.922C207.947 48.922 208.675 48.558 209.249 47.83C209.823 47.116 210.061 46.22 209.991 45.156C209.529 46.22 208.367 47.004 206.813 47.004C205.721 47.004 204.825 46.696 204.125 46.066C203.411 45.45 203.061 44.638 203.061 43.644C203.061 42.552 203.439 41.684 204.195 41.04C204.951 40.396 205.959 40.074 207.205 40.074C209.725 40.074 211.251 41.838 211.251 44.918ZM209.781 43.602C209.571 42.3 208.675 41.278 207.065 41.278C205.385 41.278 204.349 42.146 204.349 43.602C204.349 44.988 205.399 45.8 207.037 45.8C207.779 45.8 208.409 45.576 208.899 45.128C209.389 44.68 209.683 44.176 209.781 43.602Z" fill="#2A3C3C"/>
<path d="M190.763 45.1C190.763 43.588 191.113 42.37 191.827 41.46C192.527 40.55 193.563 40.088 194.921 40.088C197.707 40.088 199.093 41.922 199.093 45.1C199.093 46.626 198.743 47.83 198.057 48.74C197.357 49.65 196.321 50.112 194.949 50.112C193.633 50.112 192.611 49.65 191.869 48.726C191.127 47.802 190.763 46.598 190.763 45.1ZM192.051 45.1C192.051 47.494 193.143 48.922 194.949 48.922C196.853 48.922 197.805 47.648 197.805 45.1C197.805 42.552 196.839 41.278 194.921 41.278C192.975 41.278 192.051 42.678 192.051 45.1ZM200.237 49.202C200.237 48.81 200.601 48.418 201.105 48.418C201.567 48.418 201.945 48.81 201.945 49.202C201.945 49.65 201.595 50.028 201.105 50.028C200.601 50.028 200.237 49.65 200.237 49.202ZM211.251 44.918C211.251 46.584 210.859 47.872 210.061 48.768C209.263 49.678 208.199 50.126 206.869 50.126C205.245 50.126 203.971 49.44 203.341 48.39L204.349 47.69C204.909 48.474 205.931 48.922 207.037 48.922C207.947 48.922 208.675 48.558 209.249 47.83C209.823 47.116 210.061 46.22 209.991 45.156C209.529 46.22 208.367 47.004 206.813 47.004C205.721 47.004 204.825 46.696 204.125 46.066C203.411 45.45 203.061 44.638 203.061 43.644C203.061 42.552 203.439 41.684 204.195 41.04C204.951 40.396 205.959 40.074 207.205 40.074C209.725 40.074 211.251 41.838 211.251 44.918ZM209.781 43.602C209.571 42.3 208.675 41.278 207.065 41.278C205.385 41.278 204.349 42.146 204.349 43.602C204.349 44.988 205.399 45.8 207.037 45.8C207.779 45.8 208.409 45.576 208.899 45.128C209.389 44.68 209.683 44.176 209.781 43.602Z" fill="#1A3341"/>
<path d="M173 62C173 60.8954 173.895 60 175 60H227C228.105 60 229 60.8954 229 62V181H173V62Z" fill="url(#paint3_linear_5796_19354)"/>
<path opacity="0.2" d="M185 60H217V181H185V60Z" fill="url(#paint4_linear_5796_19354)"/>
<path opacity="0.04" d="M217 60H227C228.105 60 229 60.8954 229 62V181H217V60Z" fill="#0D262C"/>
<path opacity="0.5" d="M173 62C173 60.8954 173.895 60 175 60H185V181H173V62Z" fill="url(#paint5_linear_5796_19354)"/>
<path d="M261.03 2.804L260.582 1.754L263.942 0.143999H264.74V10H263.536V1.642L261.03 2.804ZM266.624 9.202C266.624 8.81 266.988 8.418 267.492 8.418C267.954 8.418 268.332 8.81 268.332 9.202C268.332 9.65 267.982 10.028 267.492 10.028C266.988 10.028 266.624 9.65 266.624 9.202ZM270.609 3.434L269.587 3.07C269.937 1.334 271.253 0.0879999 273.339 0.0879999C275.355 0.0879999 276.587 1.25 276.587 3.028C276.587 3.966 276.181 4.904 275.677 5.576C275.425 5.926 275.103 6.262 274.725 6.612C273.955 7.298 273.409 7.662 272.611 8.166L271.533 8.838H276.951V10H269.321V9.048L271.449 7.634C271.827 7.396 272.093 7.214 272.247 7.102C272.401 7.004 272.653 6.822 272.989 6.584C273.325 6.346 273.577 6.136 273.745 5.982C273.899 5.828 274.109 5.632 274.347 5.38C274.991 4.68 275.229 4.036 275.299 3.154C275.299 1.88 274.473 1.306 273.255 1.306C272.499 1.306 271.897 1.516 271.463 1.936C271.029 2.356 270.735 2.86 270.609 3.434Z" fill="#2A3C3C"/>
<path d="M261.03 2.804L260.582 1.754L263.942 0.143999H264.74V10H263.536V1.642L261.03 2.804ZM266.624 9.202C266.624 8.81 266.988 8.418 267.492 8.418C267.954 8.418 268.332 8.81 268.332 9.202C268.332 9.65 267.982 10.028 267.492 10.028C266.988 10.028 266.624 9.65 266.624 9.202ZM270.609 3.434L269.587 3.07C269.937 1.334 271.253 0.0879999 273.339 0.0879999C275.355 0.0879999 276.587 1.25 276.587 3.028C276.587 3.966 276.181 4.904 275.677 5.576C275.425 5.926 275.103 6.262 274.725 6.612C273.955 7.298 273.409 7.662 272.611 8.166L271.533 8.838H276.951V10H269.321V9.048L271.449 7.634C271.827 7.396 272.093 7.214 272.247 7.102C272.401 7.004 272.653 6.822 272.989 6.584C273.325 6.346 273.577 6.136 273.745 5.982C273.899 5.828 274.109 5.632 274.347 5.38C274.991 4.68 275.229 4.036 275.299 3.154C275.299 1.88 274.473 1.306 273.255 1.306C272.499 1.306 271.897 1.516 271.463 1.936C271.029 2.356 270.735 2.86 270.609 3.434Z" fill="#1A3341"/>
<path opacity="0.4" d="M241 22C241 20.8954 241.895 20 243 20H295C296.105 20 297 20.8954 297 22V180H241V22Z" fill="url(#paint6_linear_5796_19354)"/>
<path opacity="0.2" d="M253 20H285V180H253V20Z" fill="url(#paint7_linear_5796_19354)"/>
<path opacity="0.04" d="M285 20H295C296.105 20 297 20.8954 297 22V180H285V20Z" fill="#0D262C"/>
<path opacity="0.5" d="M241 22C241 20.8954 241.895 20 243 20H253V180H241V22Z" fill="url(#paint8_linear_5796_19354)"/>
<path d="M54.7772 85.1C54.7772 83.588 55.1272 82.37 55.8412 81.46C56.5412 80.55 57.5772 80.088 58.9352 80.088C61.7212 80.088 63.1072 81.922 63.1072 85.1C63.1072 86.626 62.7572 87.83 62.0712 88.74C61.3712 89.65 60.3352 90.112 58.9632 90.112C57.6472 90.112 56.6252 89.65 55.8832 88.726C55.1412 87.802 54.7772 86.598 54.7772 85.1ZM56.0652 85.1C56.0652 87.494 57.1572 88.922 58.9632 88.922C60.8672 88.922 61.8192 87.648 61.8192 85.1C61.8192 82.552 60.8532 81.278 58.9352 81.278C56.9892 81.278 56.0652 82.678 56.0652 85.1ZM64.2508 89.202C64.2508 88.81 64.6148 88.418 65.1188 88.418C65.5808 88.418 65.9588 88.81 65.9588 89.202C65.9588 89.65 65.6088 90.028 65.1188 90.028C64.6148 90.028 64.2508 89.65 64.2508 89.202ZM67.1163 85.366C67.1163 83.672 67.5363 82.37 68.3623 81.446C69.1883 80.536 70.2243 80.074 71.4703 80.074C73.1083 80.074 74.3963 80.816 74.9423 81.992L73.9903 82.636C73.4163 81.726 72.5623 81.278 71.4143 81.278C70.5463 81.278 69.8183 81.614 69.2303 82.286C68.6423 82.972 68.3483 83.896 68.3623 85.086C68.9083 84.064 70.1823 83.448 71.5823 83.448C72.7163 83.448 73.6263 83.742 74.2843 84.344C74.9423 84.946 75.2783 85.744 75.2783 86.724C75.2783 87.718 74.9143 88.544 74.1723 89.174C73.4303 89.804 72.5063 90.126 71.4003 90.126C68.7543 90.126 67.1163 88.404 67.1163 85.366ZM68.5163 86.556C68.7823 87.942 69.8323 88.922 71.3863 88.922C72.1423 88.922 72.7723 88.726 73.2623 88.32C73.7523 87.928 73.9903 87.41 73.9903 86.78C73.9903 85.394 73.0103 84.652 71.5123 84.652C70.6863 84.652 70.0003 84.848 69.4683 85.24C68.9223 85.632 68.6143 86.066 68.5163 86.556Z" fill="#2A3C3C"/>
<path d="M54.7772 85.1C54.7772 83.588 55.1272 82.37 55.8412 81.46C56.5412 80.55 57.5772 80.088 58.9352 80.088C61.7212 80.088 63.1072 81.922 63.1072 85.1C63.1072 86.626 62.7572 87.83 62.0712 88.74C61.3712 89.65 60.3352 90.112 58.9632 90.112C57.6472 90.112 56.6252 89.65 55.8832 88.726C55.1412 87.802 54.7772 86.598 54.7772 85.1ZM56.0652 85.1C56.0652 87.494 57.1572 88.922 58.9632 88.922C60.8672 88.922 61.8192 87.648 61.8192 85.1C61.8192 82.552 60.8532 81.278 58.9352 81.278C56.9892 81.278 56.0652 82.678 56.0652 85.1ZM64.2508 89.202C64.2508 88.81 64.6148 88.418 65.1188 88.418C65.5808 88.418 65.9588 88.81 65.9588 89.202C65.9588 89.65 65.6088 90.028 65.1188 90.028C64.6148 90.028 64.2508 89.65 64.2508 89.202ZM67.1163 85.366C67.1163 83.672 67.5363 82.37 68.3623 81.446C69.1883 80.536 70.2243 80.074 71.4703 80.074C73.1083 80.074 74.3963 80.816 74.9423 81.992L73.9903 82.636C73.4163 81.726 72.5623 81.278 71.4143 81.278C70.5463 81.278 69.8183 81.614 69.2303 82.286C68.6423 82.972 68.3483 83.896 68.3623 85.086C68.9083 84.064 70.1823 83.448 71.5823 83.448C72.7163 83.448 73.6263 83.742 74.2843 84.344C74.9423 84.946 75.2783 85.744 75.2783 86.724C75.2783 87.718 74.9143 88.544 74.1723 89.174C73.4303 89.804 72.5063 90.126 71.4003 90.126C68.7543 90.126 67.1163 88.404 67.1163 85.366ZM68.5163 86.556C68.7823 87.942 69.8323 88.922 71.3863 88.922C72.1423 88.922 72.7723 88.726 73.2623 88.32C73.7523 87.928 73.9903 87.41 73.9903 86.78C73.9903 85.394 73.0103 84.652 71.5123 84.652C70.6863 84.652 70.0003 84.848 69.4683 85.24C68.9223 85.632 68.6143 86.066 68.5163 86.556Z" fill="#1A3341"/>
<path d="M37 102C37 100.895 37.8954 100 39 100H91C92.1046 100 93 100.895 93 102V180H37V102Z" fill="url(#paint9_linear_5796_19354)"/>
<path opacity="0.2" d="M49 100H81V180H49V100Z" fill="url(#paint10_linear_5796_19354)"/>
<path opacity="0.04" d="M81 100H91C92.1046 100 93 100.895 93 102V180H81V100Z" fill="#0D262C"/>
<path opacity="0.5" d="M37 102C37 100.895 37.8954 100 39 100H49V180H37V102Z" fill="url(#paint11_linear_5796_19354)"/>
<path d="M183.36 197.636H186.3V198.392H179.76V197.636H182.52V195.62H180.264V194.852H182.52V193.148H179.928V192.344H186.06V193.148H183.36V194.852H185.76V195.62H183.36V197.636ZM184.116 196.148L184.68 195.836C185.124 196.22 185.652 196.772 185.892 197.144L185.28 197.504C185.052 197.132 184.548 196.556 184.116 196.148ZM178.968 199.496H186.996V191.336H178.968V199.496ZM178.08 190.508H187.92V200.924H186.996V200.324H178.968V200.924H178.08V190.508ZM199.74 190.88V191.72H194.544V190.88H199.74ZM193.152 190.436L193.776 190.784C193.416 191.756 192.96 192.932 192.54 193.88C193.44 194.876 193.656 195.74 193.656 196.496C193.656 197.12 193.512 197.636 193.164 197.876C192.984 198.008 192.756 198.068 192.504 198.104C192.264 198.128 191.952 198.128 191.676 198.116C191.664 197.9 191.58 197.564 191.436 197.336C191.712 197.348 191.952 197.36 192.156 197.348C192.3 197.336 192.432 197.3 192.528 197.24C192.72 197.108 192.792 196.772 192.792 196.412C192.792 195.752 192.564 194.936 191.688 193.988C192.036 193.124 192.408 192.092 192.66 191.288H190.92V200.912H190.068V190.472H193.008L193.152 190.436ZM194.868 195.896L195.684 196.076C195.312 197.456 194.712 198.836 194.064 199.76C193.908 199.628 193.548 199.376 193.344 199.292C194.004 198.44 194.544 197.156 194.868 195.896ZM200.388 194.564H197.472V199.784C197.472 200.288 197.376 200.564 197.028 200.708C196.692 200.864 196.14 200.888 195.3 200.888C195.264 200.624 195.144 200.24 195.024 199.976C195.648 200 196.2 199.988 196.356 199.988C196.536 199.976 196.584 199.928 196.584 199.784V194.564H194.028V193.724H200.388V194.564ZM198.288 196.1L199.032 195.872C199.608 197.024 200.196 198.536 200.4 199.472L199.572 199.76C199.404 198.824 198.852 197.276 198.288 196.1ZM207.264 193.112V192.512C206.748 192.62 206.232 192.716 205.728 192.812C205.692 192.632 205.572 192.344 205.464 192.164C206.064 192.044 206.664 191.924 207.264 191.78V190.016H208.14V191.552C209.436 191.204 210.636 190.796 211.428 190.34L212.028 190.976C211.008 191.504 209.616 191.948 208.14 192.296V193.112C208.14 193.448 208.248 193.52 208.848 193.52H210.888C211.356 193.52 211.452 193.352 211.5 192.296C211.692 192.44 212.052 192.572 212.292 192.62C212.196 193.94 211.92 194.288 210.96 194.288H208.776C207.576 194.288 207.264 194.048 207.264 193.112ZM210.828 198.716H209.904V195.836H204.24V198.788H203.34V195.008H210.828V198.716ZM203.76 194.528V192.14C203.232 192.536 202.692 192.884 202.176 193.172C202.044 193.004 201.72 192.68 201.516 192.536C202.824 191.924 204.156 190.94 204.96 189.908L205.776 190.208C205.464 190.616 205.068 191.024 204.648 191.408V194.528H203.76ZM207.444 196.316V197.36C207.444 198.56 206.88 200.012 202.356 200.912C202.272 200.732 202.008 200.384 201.804 200.204C206.16 199.424 206.52 198.248 206.52 197.336V196.316H207.444ZM207.324 199.16L207.804 198.536C209.268 198.956 211.2 199.664 212.244 200.228L211.74 200.924C210.756 200.372 208.824 199.616 207.324 199.16ZM223.236 193.616V198.308C223.236 198.812 223.128 199.088 222.744 199.232C222.348 199.376 221.712 199.4 220.74 199.388C220.692 199.136 220.548 198.752 220.428 198.5C221.196 198.524 221.868 198.524 222.072 198.512C222.264 198.512 222.324 198.464 222.324 198.284V194.48H219.42V200.9H218.508V194.48H215.736V199.532H214.836V193.616H218.508V191.66C217.008 191.756 215.496 191.804 214.104 191.828C214.092 191.576 213.984 191.24 213.912 191.024C217.224 190.94 221.292 190.712 223.632 190.292L223.992 191.108C222.756 191.324 221.148 191.48 219.42 191.6V193.616H223.236ZM183.42 212.572V213.832H187.56V214.588H178.512V213.832H182.532V212.572H180.084V211.84H182.532V210.832H183.42V211.84H185.928V212.572H183.42ZM180.84 208.84V209.692H185.196V208.84H180.84ZM185.196 205.864H180.84V206.668H185.196V205.864ZM180.84 207.34V208.168H185.196V207.34H180.84ZM188.412 210.448H185.868C186.54 211.24 187.56 211.936 188.568 212.296C188.364 212.464 188.112 212.776 187.98 212.98C186.816 212.5 185.652 211.504 184.932 210.448H181.176C180.42 211.564 179.208 212.596 178.044 213.136C177.912 212.92 177.672 212.62 177.468 212.452C178.464 212.056 179.496 211.3 180.18 210.448H177.588V209.692H179.964V205.864H178.14V205.12H179.964V203.968H180.84V205.12H185.196V203.968H186.096V205.12H187.896V205.864H186.096V209.692H188.412V210.448ZM192.204 207.532H197.928C196.848 206.896 195.792 206.092 195.012 205.276C194.22 206.14 193.26 206.908 192.204 207.532ZM198.072 208.36H195.432V209.992H199.62V210.808H195.432V213.736H200.16V214.564H189.852V213.736H194.508V210.808H190.392V209.992H194.508V208.36H191.916V207.7C191.304 208.036 190.656 208.336 190.008 208.564C189.876 208.324 189.636 207.976 189.408 207.76C191.64 207.028 193.848 205.624 194.988 203.848L195.804 204.232C195.72 204.364 195.612 204.52 195.504 204.664C196.692 205.936 198.804 207.184 200.628 207.76C200.412 207.94 200.136 208.3 200.004 208.528C199.38 208.3 198.72 207.988 198.072 207.616V208.36ZM197.196 213.568L196.524 213.28C196.944 212.692 197.484 211.744 197.772 211.072L198.624 211.396C198.18 212.152 197.628 213.004 197.196 213.568ZM191.4 211.372L192.144 211.072C192.6 211.744 193.092 212.644 193.284 213.22L192.504 213.544C192.336 212.992 191.856 212.044 191.4 211.372ZM203.208 210.628L205.824 210.148C205.8 210.388 205.812 210.712 205.824 210.892C202.584 211.552 202.164 211.66 201.9 211.792C201.864 211.636 201.732 211.228 201.636 211.024C201.888 210.952 202.2 210.664 202.584 210.22C202.824 209.98 203.352 209.344 203.928 208.564C202.296 208.768 201.996 208.852 201.816 208.936C201.78 208.756 201.648 208.336 201.552 208.096C201.768 208.048 201.984 207.772 202.26 207.364C202.548 206.968 203.484 205.42 204.024 203.956L204.828 204.34C204.24 205.624 203.508 206.932 202.752 207.964L204.48 207.772C204.756 207.352 205.032 206.92 205.272 206.5L205.98 206.92C205.152 208.264 204.18 209.572 203.208 210.628ZM205.74 212.344L205.824 213.1C204.396 213.472 202.908 213.844 201.78 214.132L201.624 213.268C202.644 213.076 204.204 212.692 205.74 212.344ZM207.624 211.516V213.844H210.552V211.516H207.624ZM210.552 205.372H207.624V207.604H210.552V205.372ZM207.624 208.42V210.712H210.552V208.42H207.624ZM211.428 213.844H212.46V214.66H205.56V213.844H206.772V204.556H211.428V213.844ZM222.756 209.236V205.66H219.156V209.236H222.756ZM223.668 204.808V210.088H218.28V204.808H223.668ZM215.16 210.664L217.8 210.172C217.776 210.412 217.776 210.76 217.8 210.952C214.524 211.6 214.116 211.708 213.852 211.876C213.804 211.696 213.672 211.288 213.564 211.06C213.828 211 214.116 210.724 214.488 210.28C214.716 210.04 215.22 209.428 215.76 208.648C214.224 208.852 213.936 208.924 213.768 208.996C213.72 208.816 213.576 208.396 213.468 208.156C213.696 208.096 213.9 207.82 214.164 207.412C214.452 207.016 215.34 205.456 215.832 204.004L216.684 204.4C216.132 205.684 215.412 207.004 214.668 208.036L216.288 207.868C216.576 207.448 216.84 206.992 217.08 206.56L217.812 206.992C217.02 208.312 216.108 209.596 215.16 210.664ZM217.752 212.404L217.848 213.184C216.372 213.544 214.848 213.916 213.696 214.216L213.528 213.328C214.584 213.124 216.192 212.764 217.752 212.404ZM219.132 211.252L220.056 211.456C219.648 212.8 218.94 214.072 218.148 214.912C217.98 214.78 217.584 214.516 217.356 214.396C218.16 213.64 218.772 212.476 219.132 211.252ZM221.844 211.528L222.648 211.228C223.308 212.248 224.004 213.604 224.28 214.456L223.404 214.804C223.14 213.952 222.468 212.572 221.844 211.528Z" fill="#76848D"/>
<path d="M52.556 194.852L52.052 195.584C51.368 195.128 50.072 194.456 48.956 193.964C47.984 194.648 46.904 195.2 45.848 195.596C45.728 195.38 45.476 195.044 45.308 194.864C47.18 194.228 49.208 192.968 50.3 191.42H46.088V190.592H50.876L51.032 190.556L51.668 190.904C51.2 191.864 50.492 192.704 49.664 193.412C50.708 193.856 51.896 194.444 52.556 194.852ZM43.184 196.556L45.56 196.136C45.536 196.376 45.536 196.736 45.548 196.928C42.5 197.54 42.08 197.648 41.816 197.792C41.78 197.612 41.636 197.18 41.528 196.952C41.804 196.892 42.092 196.592 42.464 196.172C42.704 195.932 43.208 195.332 43.748 194.576C42.224 194.78 41.924 194.84 41.744 194.936C41.696 194.744 41.552 194.312 41.444 194.072C41.672 194.024 41.888 193.748 42.152 193.34C42.428 192.944 43.34 191.408 43.844 189.956L44.696 190.352C44.132 191.612 43.412 192.908 42.68 193.928L44.324 193.748C44.6 193.34 44.864 192.896 45.104 192.464L45.884 192.956C45.068 194.252 44.144 195.524 43.184 196.556ZM45.524 198.368L45.62 199.136C44.228 199.508 42.788 199.88 41.708 200.168L41.528 199.28C42.524 199.076 44.048 198.716 45.524 198.368ZM49.436 196.844V199.748H52.496V200.588H45.464V199.748H48.56V196.844H46.196V196.016H51.932V196.844H49.436ZM61.844 196.916H56.276V199.4H61.844V196.916ZM55.376 200.9V196.124H62.768V200.852H61.844V200.228H56.276V200.9H55.376ZM56.324 193.856H61.988C60.932 193.208 59.972 192.452 59.072 191.492C58.292 192.392 57.344 193.184 56.324 193.856ZM59.192 189.932L59.972 190.316C59.852 190.508 59.72 190.676 59.588 190.856C60.992 192.344 62.66 193.328 64.568 194.132C64.34 194.324 64.088 194.66 63.956 194.936C63.272 194.6 62.624 194.264 62.012 193.868V194.684H56V194.072C55.4 194.432 54.788 194.768 54.164 195.044C54.008 194.804 53.768 194.468 53.516 194.264C55.784 193.364 57.98 191.78 59.192 189.932ZM67.208 196.628L69.824 196.148C69.8 196.388 69.812 196.712 69.824 196.892C66.584 197.552 66.164 197.66 65.9 197.792C65.864 197.636 65.732 197.228 65.636 197.024C65.888 196.952 66.2 196.664 66.584 196.22C66.824 195.98 67.352 195.344 67.928 194.564C66.296 194.768 65.996 194.852 65.816 194.936C65.78 194.756 65.648 194.336 65.552 194.096C65.768 194.048 65.984 193.772 66.26 193.364C66.548 192.968 67.484 191.42 68.024 189.956L68.828 190.34C68.24 191.624 67.508 192.932 66.752 193.964L68.48 193.772C68.756 193.352 69.032 192.92 69.272 192.5L69.98 192.92C69.152 194.264 68.18 195.572 67.208 196.628ZM69.74 198.344L69.824 199.1C68.396 199.472 66.908 199.844 65.78 200.132L65.624 199.268C66.644 199.076 68.204 198.692 69.74 198.344ZM71.624 197.516V199.844H74.552V197.516H71.624ZM74.552 191.372H71.624V193.604H74.552V191.372ZM71.624 194.42V196.712H74.552V194.42H71.624ZM75.428 199.844H76.46V200.66H69.56V199.844H70.772V190.556H75.428V199.844ZM86.756 195.236V191.66H83.156V195.236H86.756ZM87.668 190.808V196.088H82.28V190.808H87.668ZM79.16 196.664L81.8 196.172C81.776 196.412 81.776 196.76 81.8 196.952C78.524 197.6 78.116 197.708 77.852 197.876C77.804 197.696 77.672 197.288 77.564 197.06C77.828 197 78.116 196.724 78.488 196.28C78.716 196.04 79.22 195.428 79.76 194.648C78.224 194.852 77.936 194.924 77.768 194.996C77.72 194.816 77.576 194.396 77.468 194.156C77.696 194.096 77.9 193.82 78.164 193.412C78.452 193.016 79.34 191.456 79.832 190.004L80.684 190.4C80.132 191.684 79.412 193.004 78.668 194.036L80.288 193.868C80.576 193.448 80.84 192.992 81.08 192.56L81.812 192.992C81.02 194.312 80.108 195.596 79.16 196.664ZM81.752 198.404L81.848 199.184C80.372 199.544 78.848 199.916 77.696 200.216L77.528 199.328C78.584 199.124 80.192 198.764 81.752 198.404ZM83.132 197.252L84.056 197.456C83.648 198.8 82.94 200.072 82.148 200.912C81.98 200.78 81.584 200.516 81.356 200.396C82.16 199.64 82.772 198.476 83.132 197.252ZM85.844 197.528L86.648 197.228C87.308 198.248 88.004 199.604 88.28 200.456L87.404 200.804C87.14 199.952 86.468 198.572 85.844 197.528Z" fill="#76848D"/>
<path d="M249.572 192.692H246.548C246.248 193.604 245.888 194.432 245.456 195.068C245.3 194.936 244.928 194.72 244.712 194.612C245.552 193.508 246.056 191.756 246.32 189.944L247.16 190.076C247.052 190.7 246.932 191.3 246.788 191.876H249.836L249.98 191.828L250.556 192.02C250.34 193.076 249.992 194.324 249.68 195.116L248.972 194.888C249.2 194.336 249.404 193.484 249.572 192.692ZM240.8 193.052V198.5C241.484 197.756 242.108 196.82 242.636 195.776C242.06 194.828 241.424 193.88 240.8 193.052ZM247.916 193.412V194.24C247.916 194.564 247.904 194.9 247.892 195.272C248.312 197.612 249.032 199.016 250.508 200.228C250.292 200.396 250.04 200.672 249.932 200.9C248.792 199.892 248.072 198.8 247.592 197.312C247.292 198.56 246.704 199.856 245.576 200.984C245.468 200.816 245.264 200.6 245.084 200.444H239.936V190.832H245.084V191.648H240.8V192.944L241.424 192.62C241.964 193.328 242.516 194.12 243.044 194.912C243.416 194.048 243.752 193.112 244.016 192.188L244.82 192.344C244.472 193.52 244.04 194.66 243.548 195.704C244.148 196.664 244.664 197.6 244.976 198.32L244.208 198.752C243.956 198.152 243.572 197.384 243.116 196.568C242.588 197.552 242.012 198.416 241.388 199.124C241.268 199.004 241.004 198.788 240.8 198.656V199.628H245.096V200.204C246.92 198.296 247.076 195.872 247.076 194.228V193.412H247.916ZM260.828 191.06H258.008V192.116H260.828V191.06ZM257.948 193.868H260.828V192.788H258.008V192.824C258.008 193.148 257.996 193.508 257.948 193.868ZM260.828 194.528H257.816C257.612 195.308 257.216 196.076 256.46 196.664C256.34 196.484 256.016 196.184 255.836 196.076C257.036 195.152 257.192 193.88 257.192 192.812V190.34H261.704V195.548C261.704 196.004 261.596 196.232 261.272 196.364C260.936 196.496 260.384 196.508 259.58 196.508C259.52 196.268 259.364 195.956 259.244 195.74C259.868 195.764 260.444 195.752 260.612 195.752C260.78 195.74 260.828 195.692 260.828 195.548V194.528ZM255.224 191.24H253.052V192.524H255.224V191.24ZM253.052 194.492H255.224V193.22H253.052V194.492ZM253.052 195.212V195.86H252.236V190.508H256.04V195.212H253.052ZM253.784 197.6V199.784H255.368V197.6H253.784ZM257.78 197.6H256.196V199.784H257.78V197.6ZM260.228 197.6H258.608V199.784H260.228V197.6ZM261.092 199.784H262.424V200.576H251.552V199.784H252.944V196.868H261.092V199.784ZM270.932 197.228H267.62C267.344 197.588 267.068 197.948 266.792 198.236C267.68 198.428 268.568 198.62 269.42 198.824C270.08 198.416 270.572 197.888 270.932 197.228ZM269.42 195.56H268.736C268.568 195.848 268.376 196.148 268.184 196.448H274.412V197.228H271.916C271.58 197.984 271.1 198.596 270.488 199.1C271.952 199.472 273.272 199.856 274.28 200.216L273.464 200.864C272.48 200.492 271.148 200.06 269.612 199.664C268.28 200.372 266.48 200.744 264.128 200.936C264.068 200.672 263.924 200.348 263.768 200.132C265.676 200.024 267.176 199.796 268.352 199.34C267.392 199.112 266.372 198.884 265.316 198.68C265.712 198.272 266.144 197.768 266.552 197.228H263.6V196.448H267.128C267.428 196.028 267.692 195.596 267.908 195.188L268.544 195.356V193.22C267.428 194.408 265.628 195.428 264.032 195.932C263.9 195.728 263.648 195.404 263.48 195.236C264.884 194.852 266.444 194.072 267.5 193.184H263.732V192.416H268.544V191.216C267.272 191.312 265.952 191.372 264.752 191.408C264.74 191.204 264.644 190.892 264.56 190.7C267.296 190.628 270.644 190.388 272.408 189.98L273.068 190.616C272.06 190.844 270.788 191.024 269.42 191.144V192.416H274.268V193.184H270.5C271.544 194.024 273.104 194.756 274.508 195.104C274.328 195.296 274.064 195.632 273.944 195.848C272.336 195.368 270.548 194.372 269.42 193.22V195.56ZM278.228 191.276V192.632H283.808V191.276H278.228ZM277.316 190.496H284.756V193.424H277.316V190.496ZM280.472 196.064H281.408V197.18C281.408 198.428 280.868 199.964 276.428 200.96C276.32 200.768 276.044 200.408 275.84 200.228C280.136 199.376 280.472 198.104 280.472 197.156V196.064ZM281.336 199.184L281.78 198.536C283.196 199.004 285.152 199.712 286.196 200.216L285.728 200.96C284.744 200.456 282.8 199.688 281.336 199.184ZM276.896 194.468H285.236V198.776H284.288V195.308H277.796V198.86H276.896V194.468ZM288.116 196.82V195.956H297.968V196.82H292.736C291.992 197.804 291.152 198.764 290.288 199.544L295.736 199.136C295.304 198.632 294.8 198.116 294.344 197.696L295.1 197.288C296.168 198.248 297.296 199.52 297.824 200.42L297.032 200.912C296.864 200.624 296.624 200.276 296.36 199.916C290.036 200.444 289.364 200.492 288.92 200.66C288.86 200.468 288.716 200 288.62 199.736C288.872 199.688 289.148 199.46 289.508 199.112C289.844 198.836 290.744 197.888 291.524 196.82H288.116ZM293.048 189.968L293.9 190.34C293.78 190.496 293.66 190.664 293.552 190.82C294.644 191.936 296.588 193.256 298.52 193.916C298.316 194.096 298.04 194.456 297.896 194.708C296.036 193.952 294.164 192.584 293.036 191.42C292.292 192.236 291.368 193.004 290.336 193.664H295.88V194.492H290.18V193.76C289.556 194.156 288.896 194.516 288.2 194.828C288.068 194.6 287.756 194.24 287.552 194.06C289.88 193.076 291.98 191.576 293.048 189.968Z" fill="#76848D"/>
<path d="M117.664 193.808H115.372V196.772H117.664V193.808ZM118.576 197.6H114.496V193.808H112.312V199.268H120.028V200.144H111.388V193.808H109.648V192.944H111.388V190.292H112.312V192.944H114.496V190.016H115.372V192.944H117.664V190.16H118.576V192.944H120.364V193.808H118.576V197.6ZM124.756 197.444V196.748H125.656V197.48C125.656 198.62 125.38 200.06 123.064 200.996C122.932 200.768 122.644 200.456 122.452 200.276C124.54 199.508 124.756 198.344 124.756 197.444ZM123.796 193.088V194.384H126.544V193.088H123.796ZM123.796 191.108V192.38H126.544V191.108H123.796ZM130.192 192.38V191.108H127.42V192.38H130.192ZM130.192 194.384V193.088H127.42V194.384H130.192ZM131.104 195.14H128.752C129.652 196.064 131.068 196.832 132.496 197.204C132.292 197.384 132.028 197.732 131.908 197.96C131.056 197.696 130.216 197.276 129.46 196.76V200.9H128.548V196.748H129.436C128.776 196.28 128.164 195.74 127.708 195.14H126.388C125.404 196.4 123.748 197.456 122.176 198.008C122.032 197.78 121.78 197.456 121.576 197.276C122.956 196.88 124.396 196.076 125.308 195.14H122.92V190.352H131.104V195.14ZM137.872 192.188H135.064C134.716 192.776 134.32 193.292 133.912 193.724C133.84 193.52 133.6 193.076 133.444 192.872C134.164 192.176 134.8 191.108 135.172 189.992L135.976 190.232C135.844 190.604 135.7 190.976 135.52 191.336H137.872V192.188ZM136.264 199.34L137.956 198.524C137.98 198.74 138.052 199.112 138.112 199.28C135.868 200.444 135.532 200.624 135.328 200.828C135.268 200.624 135.1 200.252 134.968 200.072C135.148 199.976 135.412 199.772 135.412 199.316V196.688H133.744V195.872H135.412V194.252H134.356V193.448H137.716V194.252H136.264V195.872H137.968V196.688H136.264V199.34ZM139.432 193.472V194.924H142.924V193.472H139.432ZM142.924 191.276H139.432V192.728H142.924V191.276ZM143.812 196.112L144.376 196.736C143.776 197.24 142.984 197.78 142.324 198.176C142.9 199.016 143.644 199.676 144.58 200.072C144.388 200.24 144.124 200.6 144.004 200.828C142.18 199.94 141.1 198.092 140.512 195.716H139.432V199.676L141.544 199.16C141.532 199.424 141.556 199.784 141.58 199.976C139.12 200.648 138.748 200.768 138.52 200.924C138.448 200.72 138.268 200.36 138.124 200.192C138.304 200.096 138.556 199.844 138.556 199.352V190.484H143.74V195.716H141.244C141.436 196.376 141.664 196.988 141.952 197.54C142.588 197.132 143.344 196.568 143.812 196.112ZM156.076 190.688V191.528H150.22V190.688H156.076ZM148.216 189.956L149.068 190.292C148.288 191.348 147.064 192.512 145.996 193.268C145.864 193.076 145.624 192.728 145.468 192.56C146.464 191.888 147.616 190.808 148.216 189.956ZM148.708 192.512L149.536 192.824C149.164 193.436 148.708 194.048 148.216 194.636V200.948H147.328V195.62C146.872 196.088 146.416 196.52 145.972 196.868C145.84 196.688 145.528 196.304 145.348 196.124C146.584 195.248 147.88 193.868 148.708 192.512ZM156.424 193.964V194.816H154.612V199.772C154.612 200.324 154.48 200.6 154.084 200.744C153.676 200.876 153.004 200.876 151.828 200.876C151.792 200.636 151.672 200.264 151.54 200.012C152.392 200.036 153.184 200.036 153.412 200.024C153.64 200.012 153.712 199.964 153.712 199.76V194.816H149.704V193.964H156.424Z" fill="#76848D"/>
<line x1="-4.37114e-08" y1="180.5" x2="335" y2="180.5" stroke="#ABBEC9"/>
<defs>
<linearGradient id="paint0_linear_5796_19354" x1="133" y1="84" x2="133" y2="181" gradientUnits="userSpaceOnUse">
<stop stop-color="#6AA2E2"/>
<stop offset="1" stop-color="#9DBCFA"/>
</linearGradient>
<linearGradient id="paint1_linear_5796_19354" x1="133" y1="84" x2="133" y2="181" gradientUnits="userSpaceOnUse">
<stop stop-color="white" stop-opacity="0"/>
<stop offset="0.739583" stop-color="white"/>
</linearGradient>
<linearGradient id="paint2_linear_5796_19354" x1="111" y1="-105.15" x2="111" y2="181" gradientUnits="userSpaceOnUse">
<stop stop-color="white" stop-opacity="0.05"/>
<stop offset="0.75" stop-color="white" stop-opacity="0.8"/>
</linearGradient>
<linearGradient id="paint3_linear_5796_19354" x1="201" y1="60" x2="201" y2="181" gradientUnits="userSpaceOnUse">
<stop stop-color="#6D73F9"/>
<stop offset="1" stop-color="#9BB8F1"/>
</linearGradient>
<linearGradient id="paint4_linear_5796_19354" x1="201" y1="60" x2="201" y2="181" gradientUnits="userSpaceOnUse">
<stop stop-color="white" stop-opacity="0"/>
<stop offset="0.739583" stop-color="white"/>
</linearGradient>
<linearGradient id="paint5_linear_5796_19354" x1="179" y1="-175.95" x2="179" y2="181" gradientUnits="userSpaceOnUse">
<stop stop-color="white" stop-opacity="0.05"/>
<stop offset="0.75" stop-color="white" stop-opacity="0.8"/>
</linearGradient>
<linearGradient id="paint6_linear_5796_19354" x1="269" y1="20" x2="269" y2="180" gradientUnits="userSpaceOnUse">
<stop stop-color="#6D73F9"/>
<stop offset="1" stop-color="#9BB8F1"/>
</linearGradient>
<linearGradient id="paint7_linear_5796_19354" x1="269" y1="20" x2="269" y2="180" gradientUnits="userSpaceOnUse">
<stop stop-color="white" stop-opacity="0"/>
<stop offset="0.739583" stop-color="white"/>
</linearGradient>
<linearGradient id="paint8_linear_5796_19354" x1="247" y1="-292" x2="247" y2="180" gradientUnits="userSpaceOnUse">
<stop stop-color="white" stop-opacity="0.05"/>
<stop offset="0.75" stop-color="white" stop-opacity="0.8"/>
</linearGradient>
<linearGradient id="paint9_linear_5796_19354" x1="65" y1="100" x2="65" y2="180" gradientUnits="userSpaceOnUse">
<stop stop-color="#CDE3E9"/>
<stop offset="1" stop-color="#D3E8ED"/>
</linearGradient>
<linearGradient id="paint10_linear_5796_19354" x1="65" y1="100" x2="65" y2="180" gradientUnits="userSpaceOnUse">
<stop stop-color="white" stop-opacity="0"/>
<stop offset="0.739583" stop-color="white"/>
</linearGradient>
<linearGradient id="paint11_linear_5796_19354" x1="43" y1="-56" x2="43" y2="180" gradientUnits="userSpaceOnUse">
<stop stop-color="white" stop-opacity="0.05"/>
<stop offset="0.75" stop-color="white" stop-opacity="0.8"/>
</linearGradient>
</defs>
</svg>
