<svg width="339" height="150" viewBox="0 0 339 150" fill="none" xmlns="http://www.w3.org/2000/svg">
<path d="M35.3675 23.0025C24.5201 19.7656 18.038 18 6 18V136H326V71.2618C308.933 71.2618 303.071 72.711 297.165 74.1711L297.029 74.2045C285.854 76.9667 278.583 85.5935 267.794 85.5935C260.603 85.5935 255.095 87.0471 238.823 84.5037C230.754 83.2424 226.389 80.9726 209.853 83.2424C203.792 84.0744 189.742 93.6259 180.618 93.6259C167.654 93.6259 166.86 88.9177 151.515 82.4439C144.453 79.4648 128.37 71.6789 122.412 67.7307C116.194 63.611 107.993 56.8429 93.3088 53.606C84.0939 51.5746 79.9479 46.2494 64.2059 36.5387C58.2773 32.8815 46.0595 26.193 35.3675 23.0025Z" fill="url(#paint0_linear_5796_19222)" fill-opacity="0.3"/>
<path d="M1.384 145.56H8.648V146.208H1.384V145.56ZM11.184 146.552H14.928V145.208H11.272C11.272 145.624 11.248 146.08 11.184 146.552ZM14.928 143.312H11.272V144.64H14.928V143.312ZM15.544 142.728V148.744C15.544 149.16 15.424 149.368 15.128 149.464C14.824 149.568 14.296 149.576 13.44 149.576C13.4 149.408 13.288 149.128 13.192 148.96C13.856 148.984 14.496 148.976 14.68 148.976C14.864 148.968 14.928 148.912 14.928 148.736V147.136H11.088C10.888 148.04 10.488 148.944 9.712 149.624C9.632 149.496 9.392 149.28 9.272 149.192C10.544 148.072 10.672 146.448 10.672 145.176V142.728H15.544Z" fill="#76848D"/>
<path d="M144.488 144.416H151.536V145.024H144.488V144.416ZM146.48 145.944L147.128 146.152C146.544 147.384 145.704 148.704 144.968 149.56C144.832 149.448 144.544 149.248 144.376 149.144C145.144 148.352 145.952 147.104 146.48 145.944ZM148.832 146.144L149.384 145.88C150.128 146.92 151.104 148.336 151.576 149.168L150.976 149.512C150.536 148.672 149.576 147.216 148.832 146.144ZM147.264 142.552L147.864 142.344C148.144 142.872 148.48 143.576 148.64 143.984L148 144.232C147.848 143.816 147.528 143.088 147.264 142.552ZM154.184 146.552H157.928V145.208H154.272C154.272 145.624 154.248 146.08 154.184 146.552ZM157.928 143.312H154.272V144.64H157.928V143.312ZM158.544 142.728V148.744C158.544 149.16 158.424 149.368 158.128 149.464C157.824 149.568 157.296 149.576 156.44 149.576C156.4 149.408 156.288 149.128 156.192 148.96C156.856 148.984 157.496 148.976 157.68 148.976C157.864 148.968 157.928 148.912 157.928 148.736V147.136H154.088C153.888 148.04 153.488 148.944 152.712 149.624C152.632 149.496 152.392 149.28 152.272 149.192C153.544 148.072 153.672 146.448 153.672 145.176V142.728H158.544Z" fill="#76848D"/>
<path d="M30.152 143.456H35.856V144.088H30.152V143.456ZM29.48 148.168H36.528V148.816H29.48V148.168ZM39.184 146.552H42.928V145.208H39.272C39.272 145.624 39.248 146.08 39.184 146.552ZM42.928 143.312H39.272V144.64H42.928V143.312ZM43.544 142.728V148.744C43.544 149.16 43.424 149.368 43.128 149.464C42.824 149.568 42.296 149.576 41.44 149.576C41.4 149.408 41.288 149.128 41.192 148.96C41.856 148.984 42.496 148.976 42.68 148.976C42.864 148.968 42.928 148.912 42.928 148.736V147.136H39.088C38.888 148.04 38.488 148.944 37.712 149.624C37.632 149.496 37.392 149.28 37.272 149.192C38.544 148.072 38.672 146.448 38.672 145.176V142.728H43.544Z" fill="#76848D"/>
<path d="M177.024 148.744H179.072C179.6 148.744 179.68 148.472 179.76 147.288C179.912 147.4 180.192 147.52 180.36 147.568C180.256 148.88 180.064 149.328 179.088 149.328H177C176.016 149.328 175.72 149.08 175.72 148.136V145.712L173.52 146.064L173.424 145.472L175.72 145.104V142.448H176.344V145.008L180.504 144.336L180.6 144.936L176.344 145.608V148.144C176.344 148.632 176.456 148.744 177.024 148.744ZM183.184 146.552H186.928V145.208H183.272C183.272 145.624 183.248 146.08 183.184 146.552ZM186.928 143.312H183.272V144.64H186.928V143.312ZM187.544 142.728V148.744C187.544 149.16 187.424 149.368 187.128 149.464C186.824 149.568 186.296 149.576 185.44 149.576C185.4 149.408 185.288 149.128 185.192 148.96C185.856 148.984 186.496 148.976 186.68 148.976C186.864 148.968 186.928 148.912 186.928 148.736V147.136H183.088C182.888 148.04 182.488 148.944 181.712 149.624C181.632 149.496 181.392 149.28 181.272 149.192C182.544 148.072 182.672 146.448 182.672 145.176V142.728H187.544Z" fill="#76848D"/>
<path d="M59.008 143.08H65.008V143.672H59.008V143.08ZM59.52 145.672H64.384V146.272H59.52V145.672ZM58.552 148.432H65.44V149.032H58.552V148.432ZM68.184 146.552H71.928V145.208H68.272C68.272 145.624 68.248 146.08 68.184 146.552ZM71.928 143.312H68.272V144.64H71.928V143.312ZM72.544 142.728V148.744C72.544 149.16 72.424 149.368 72.128 149.464C71.824 149.568 71.296 149.576 70.44 149.576C70.4 149.408 70.288 149.128 70.192 148.96C70.856 148.984 71.496 148.976 71.68 148.976C71.864 148.968 71.928 148.912 71.928 148.736V147.136H68.088C67.888 148.04 67.488 148.944 66.712 149.624C66.632 149.496 66.392 149.28 66.272 149.192C67.544 148.072 67.672 146.448 67.672 145.176V142.728H72.544Z" fill="#76848D"/>
<path d="M203.456 143.088L204.096 143.136C203.88 145.48 203.456 148.12 201.712 149.576C201.624 149.448 201.416 149.24 201.296 149.128C202.928 147.776 203.296 145.28 203.456 143.088ZM206.272 142.904C206.296 143.488 206.488 147.432 208.76 149.16C208.552 149.272 208.368 149.416 208.248 149.568C205.944 147.744 205.736 143.6 205.688 142.944L206.272 142.904ZM211.184 146.552H214.928V145.208H211.272C211.272 145.624 211.248 146.08 211.184 146.552ZM214.928 143.312H211.272V144.64H214.928V143.312ZM215.544 142.728V148.744C215.544 149.16 215.424 149.368 215.128 149.464C214.824 149.568 214.296 149.576 213.44 149.576C213.4 149.408 213.288 149.128 213.192 148.96C213.856 148.984 214.496 148.976 214.68 148.976C214.864 148.968 214.928 148.912 214.928 148.736V147.136H211.088C210.888 148.04 210.488 148.944 209.712 149.624C209.632 149.496 209.392 149.28 209.272 149.192C210.544 148.072 210.672 146.448 210.672 145.176V142.728H215.544Z" fill="#76848D"/>
<path d="M88.328 148.176H93.632V143.576H92.072V146.08C92.072 146.336 92.104 146.432 92.272 146.432H93.048C93.184 146.432 93.4 146.424 93.512 146.392C93.52 146.56 93.536 146.752 93.552 146.896C93.456 146.936 93.256 146.936 93.072 146.936H92.208C91.648 146.936 91.512 146.688 91.512 146.064V143.576H90.408C90.36 145.728 90.16 146.912 88.784 147.576C88.72 147.432 88.552 147.224 88.424 147.112C89.64 146.544 89.784 145.528 89.824 143.576H88.328V148.176ZM87.736 143H94.24V149.288H93.632V148.752H88.328V149.344H87.736V143ZM97.184 146.552H100.928V145.208H97.272C97.272 145.624 97.248 146.08 97.184 146.552ZM100.928 143.312H97.272V144.64H100.928V143.312ZM101.544 142.728V148.744C101.544 149.16 101.424 149.368 101.128 149.464C100.824 149.568 100.296 149.576 99.44 149.576C99.4 149.408 99.288 149.128 99.192 148.96C99.856 148.984 100.496 148.976 100.68 148.976C100.864 148.968 100.928 148.912 100.928 148.736V147.136H97.088C96.888 148.04 96.488 148.944 95.712 149.624C95.632 149.496 95.392 149.28 95.272 149.192C96.544 148.072 96.672 146.448 96.672 145.176V142.728H101.544Z" fill="#76848D"/>
<path d="M237.12 148.912H237.936C238.16 148.912 238.2 148.72 238.224 147.76C238.36 147.88 238.616 147.976 238.776 148.024C238.72 149.136 238.568 149.496 237.976 149.496H237.032C236.416 149.496 236.224 149.304 236.224 148.576V144.936H234.392C234.224 146.936 233.664 148.632 231.736 149.608C231.656 149.464 231.456 149.248 231.296 149.136C233.104 148.28 233.624 146.752 233.776 144.936H231.664V144.344H233.816C233.84 143.72 233.84 143.064 233.84 142.392H234.472C234.464 143.056 234.464 143.712 234.432 144.344H236.584V144.352H236.824V148.584C236.824 148.864 236.864 148.912 237.12 148.912ZM241.184 146.552H244.928V145.208H241.272C241.272 145.624 241.248 146.08 241.184 146.552ZM244.928 143.312H241.272V144.64H244.928V143.312ZM245.544 142.728V148.744C245.544 149.16 245.424 149.368 245.128 149.464C244.824 149.568 244.296 149.576 243.44 149.576C243.4 149.408 243.288 149.128 243.192 148.96C243.856 148.984 244.496 148.976 244.68 148.976C244.864 148.968 244.928 148.912 244.928 148.736V147.136H241.088C240.888 148.04 240.488 148.944 239.712 149.624C239.632 149.496 239.392 149.28 239.272 149.192C240.544 148.072 240.672 146.448 240.672 145.176V142.728H245.544Z" fill="#76848D"/>
<path d="M121.552 145.976H119.544C119.392 146.928 119.224 147.864 119.072 148.592H121.304C121.392 147.744 121.488 146.72 121.552 145.976ZM121.92 148.592H123.544V149.176H116.48V148.592H118.424C118.584 147.864 118.752 146.928 118.912 145.976H117.424V145.392H119.008C119.104 144.8 119.192 144.208 119.264 143.672H116.984V143.088H122.968V143.672H119.896C119.816 144.208 119.728 144.808 119.632 145.392H121.648L121.752 145.36L122.208 145.408C122.152 146.288 122.04 147.552 121.92 148.592ZM126.184 146.552H129.928V145.208H126.272C126.272 145.624 126.248 146.08 126.184 146.552ZM129.928 143.312H126.272V144.64H129.928V143.312ZM130.544 142.728V148.744C130.544 149.16 130.424 149.368 130.128 149.464C129.824 149.568 129.296 149.576 128.44 149.576C128.4 149.408 128.288 149.128 128.192 148.96C128.856 148.984 129.496 148.976 129.68 148.976C129.864 148.968 129.928 148.912 129.928 148.736V147.136H126.088C125.888 148.04 125.488 148.944 124.712 149.624C124.632 149.496 124.392 149.28 124.272 149.192C125.544 148.072 125.672 146.448 125.672 145.176V142.728H130.544Z" fill="#76848D"/>
<path d="M267.592 145.28V145.888H264.328V149.608H263.696V145.888H260.472V145.28H263.696V142.32H264.328V145.28H267.592ZM270.184 146.552H273.928V145.208H270.272C270.272 145.624 270.248 146.08 270.184 146.552ZM273.928 143.312H270.272V144.64H273.928V143.312ZM274.544 142.728V148.744C274.544 149.16 274.424 149.368 274.128 149.464C273.824 149.568 273.296 149.576 272.44 149.576C272.4 149.408 272.288 149.128 272.192 148.96C272.856 148.984 273.496 148.976 273.68 148.976C273.864 148.968 273.928 148.912 273.928 148.736V147.136H270.088C269.888 148.04 269.488 148.944 268.712 149.624C268.632 149.496 268.392 149.28 268.272 149.192C269.544 148.072 269.672 146.448 269.672 145.176V142.728H274.544Z" fill="#76848D"/>
<path d="M291.592 145.28V145.888H288.328V149.608H287.696V145.888H284.472V145.28H287.696V142.32H288.328V145.28H291.592ZM292.384 145.56H299.648V146.208H292.384V145.56ZM302.184 146.552H305.928V145.208H302.272C302.272 145.624 302.248 146.08 302.184 146.552ZM305.928 143.312H302.272V144.64H305.928V143.312ZM306.544 142.728V148.744C306.544 149.16 306.424 149.368 306.128 149.464C305.824 149.568 305.296 149.576 304.44 149.576C304.4 149.408 304.288 149.128 304.192 148.96C304.856 148.984 305.496 148.976 305.68 148.976C305.864 148.968 305.928 148.912 305.928 148.736V147.136H302.088C301.888 148.04 301.488 148.944 300.712 149.624C300.632 149.496 300.392 149.28 300.272 149.192C301.544 148.072 301.672 146.448 301.672 145.176V142.728H306.544Z" fill="#76848D"/>
<path d="M322.592 145.28V145.888H319.328V149.608H318.696V145.888H315.472V145.28H318.696V142.32H319.328V145.28H322.592ZM324.152 143.456H329.856V144.088H324.152V143.456ZM323.48 148.168H330.528V148.816H323.48V148.168ZM333.184 146.552H336.928V145.208H333.272C333.272 145.624 333.248 146.08 333.184 146.552ZM336.928 143.312H333.272V144.64H336.928V143.312ZM337.544 142.728V148.744C337.544 149.16 337.424 149.368 337.128 149.464C336.824 149.568 336.296 149.576 335.44 149.576C335.4 149.408 335.288 149.128 335.192 148.96C335.856 148.984 336.496 148.976 336.68 148.976C336.864 148.968 336.928 148.912 336.928 148.736V147.136H333.088C332.888 148.04 332.488 148.944 331.712 149.624C331.632 149.496 331.392 149.28 331.272 149.192C332.544 148.072 332.672 146.448 332.672 145.176V142.728H337.544Z" fill="#76848D"/>
<line x1="2.25727e-08" y1="134.5" x2="335" y2="134.5" stroke="#ABBEC9"/>
<path d="M6.38672 17.6934C18.2828 17.6934 24.6883 19.4466 35.4079 22.6608C45.9738 25.829 58.0474 32.4706 63.9061 36.1022C79.4625 45.7449 83.5596 51.0329 92.6658 53.05C107.176 56.2642 115.281 62.9849 121.426 67.0758C127.314 70.9963 143.207 78.7277 150.185 81.6859C165.349 88.1144 166.134 92.7897 178.945 92.7897C187.962 92.7897 201.846 83.305 207.835 82.4789C224.176 80.2249 228.49 82.4789 236.464 83.7314C252.544 86.2569 257.987 84.8135 265.093 84.8135C275.755 84.8135 282.94 76.2471 293.984 73.5042C299.866 72.0432 305.618 70.5822 322.613 70.5822" stroke="#737AF9" stroke-width="2.93345"/>
<circle cx="8.73356" cy="17.6935" r="4.19352" fill="#6D73F9" stroke="white"/>
<path d="M5.41784 8H4.72184V6.856H1.29784V6.392L4.80184 2.4H5.41784V6.208H6.45784V6.856H5.41784V8ZM4.72184 3.52L2.25784 6.208H4.72184V3.52ZM9.05684 4.808H9.30484C9.66484 4.808 9.96084 4.72 10.2088 4.552C10.4488 4.384 10.5688 4.16 10.5688 3.896C10.5688 3.296 10.0968 2.992 9.16084 2.992C8.26484 2.992 7.77684 3.32 7.77684 3.896C7.77684 4.416 8.31284 4.808 9.05684 4.808ZM9.28884 5.44H9.08884C8.65684 5.44 8.29684 5.536 8.01684 5.72C7.73684 5.904 7.59284 6.136 7.59284 6.416C7.59284 7.024 8.15284 7.408 9.16884 7.408C10.2008 7.408 10.7528 7.04 10.7528 6.424C10.7528 5.808 10.1608 5.44 9.28884 5.44ZM10.8648 7.64C10.4568 7.928 9.88884 8.072 9.17684 8.072C8.46484 8.072 7.89684 7.928 7.48084 7.648C7.06484 7.368 6.85684 6.984 6.85684 6.488C6.85684 5.84 7.28084 5.328 7.96084 5.104C7.34484 4.904 7.04084 4.416 7.04084 3.848C7.04084 2.92 7.82484 2.328 9.16884 2.328C10.5208 2.328 11.3048 2.92 11.3048 3.848C11.3048 4.384 11.0088 4.792 10.4168 5.064C11.1288 5.28 11.4808 5.744 11.4808 6.456C11.4808 6.96 11.2728 7.36 10.8648 7.64ZM12.1608 7.544C12.1608 7.32 12.3688 7.096 12.6568 7.096C12.9208 7.096 13.1368 7.32 13.1368 7.544C13.1368 7.8 12.9368 8.016 12.6568 8.016C12.3688 8.016 12.1608 7.8 12.1608 7.544ZM16.0062 4.808H16.2542C16.6142 4.808 16.9102 4.72 17.1582 4.552C17.3982 4.384 17.5182 4.16 17.5182 3.896C17.5182 3.296 17.0462 2.992 16.1102 2.992C15.2142 2.992 14.7262 3.32 14.7262 3.896C14.7262 4.416 15.2622 4.808 16.0062 4.808ZM16.2382 5.44H16.0382C15.6062 5.44 15.2462 5.536 14.9662 5.72C14.6862 5.904 14.5422 6.136 14.5422 6.416C14.5422 7.024 15.1022 7.408 16.1182 7.408C17.1502 7.408 17.7022 7.04 17.7022 6.424C17.7022 5.808 17.1102 5.44 16.2382 5.44ZM17.8142 7.64C17.4062 7.928 16.8382 8.072 16.1262 8.072C15.4142 8.072 14.8462 7.928 14.4302 7.648C14.0142 7.368 13.8062 6.984 13.8062 6.488C13.8062 5.84 14.2302 5.328 14.9102 5.104C14.2942 4.904 13.9902 4.416 13.9902 3.848C13.9902 2.92 14.7742 2.328 16.1182 2.328C17.4702 2.328 18.2542 2.92 18.2542 3.848C18.2542 4.384 17.9582 4.792 17.3662 5.064C18.0782 5.28 18.4302 5.744 18.4302 6.456C18.4302 6.96 18.2222 7.36 17.8142 7.64Z" fill="#2A3C3C"/>
<path d="M5.41784 8H4.72184V6.856H1.29784V6.392L4.80184 2.4H5.41784V6.208H6.45784V6.856H5.41784V8ZM4.72184 3.52L2.25784 6.208H4.72184V3.52ZM9.05684 4.808H9.30484C9.66484 4.808 9.96084 4.72 10.2088 4.552C10.4488 4.384 10.5688 4.16 10.5688 3.896C10.5688 3.296 10.0968 2.992 9.16084 2.992C8.26484 2.992 7.77684 3.32 7.77684 3.896C7.77684 4.416 8.31284 4.808 9.05684 4.808ZM9.28884 5.44H9.08884C8.65684 5.44 8.29684 5.536 8.01684 5.72C7.73684 5.904 7.59284 6.136 7.59284 6.416C7.59284 7.024 8.15284 7.408 9.16884 7.408C10.2008 7.408 10.7528 7.04 10.7528 6.424C10.7528 5.808 10.1608 5.44 9.28884 5.44ZM10.8648 7.64C10.4568 7.928 9.88884 8.072 9.17684 8.072C8.46484 8.072 7.89684 7.928 7.48084 7.648C7.06484 7.368 6.85684 6.984 6.85684 6.488C6.85684 5.84 7.28084 5.328 7.96084 5.104C7.34484 4.904 7.04084 4.416 7.04084 3.848C7.04084 2.92 7.82484 2.328 9.16884 2.328C10.5208 2.328 11.3048 2.92 11.3048 3.848C11.3048 4.384 11.0088 4.792 10.4168 5.064C11.1288 5.28 11.4808 5.744 11.4808 6.456C11.4808 6.96 11.2728 7.36 10.8648 7.64ZM12.1608 7.544C12.1608 7.32 12.3688 7.096 12.6568 7.096C12.9208 7.096 13.1368 7.32 13.1368 7.544C13.1368 7.8 12.9368 8.016 12.6568 8.016C12.3688 8.016 12.1608 7.8 12.1608 7.544ZM16.0062 4.808H16.2542C16.6142 4.808 16.9102 4.72 17.1582 4.552C17.3982 4.384 17.5182 4.16 17.5182 3.896C17.5182 3.296 17.0462 2.992 16.1102 2.992C15.2142 2.992 14.7262 3.32 14.7262 3.896C14.7262 4.416 15.2622 4.808 16.0062 4.808ZM16.2382 5.44H16.0382C15.6062 5.44 15.2462 5.536 14.9662 5.72C14.6862 5.904 14.5422 6.136 14.5422 6.416C14.5422 7.024 15.1022 7.408 16.1182 7.408C17.1502 7.408 17.7022 7.04 17.7022 6.424C17.7022 5.808 17.1102 5.44 16.2382 5.44ZM17.8142 7.64C17.4062 7.928 16.8382 8.072 16.1262 8.072C15.4142 8.072 14.8462 7.928 14.4302 7.648C14.0142 7.368 13.8062 6.984 13.8062 6.488C13.8062 5.84 14.2302 5.328 14.9102 5.104C14.2942 4.904 13.9902 4.416 13.9902 3.848C13.9902 2.92 14.7742 2.328 16.1182 2.328C17.4702 2.328 18.2542 2.92 18.2542 3.848C18.2542 4.384 17.9582 4.792 17.3662 5.064C18.0782 5.28 18.4302 5.744 18.4302 6.456C18.4302 6.96 18.2222 7.36 17.8142 7.64Z" fill="#1A3341"/>
<circle cx="37.4816" cy="22.3869" r="4.19352" fill="#6D73F9" stroke="white"/>
<path d="M34.5702 12H33.8742V10.856H30.4502V10.392L33.9542 6.4H34.5702V10.208H35.6102V10.856H34.5702V12ZM33.8742 7.52L31.4102 10.208H33.8742V7.52ZM38.2092 8.808H38.4572C38.8172 8.808 39.1132 8.72 39.3612 8.552C39.6012 8.384 39.7212 8.16 39.7212 7.896C39.7212 7.296 39.2492 6.992 38.3132 6.992C37.4172 6.992 36.9292 7.32 36.9292 7.896C36.9292 8.416 37.4652 8.808 38.2092 8.808ZM38.4412 9.44H38.2412C37.8092 9.44 37.4492 9.536 37.1692 9.72C36.8892 9.904 36.7452 10.136 36.7452 10.416C36.7452 11.024 37.3052 11.408 38.3212 11.408C39.3532 11.408 39.9052 11.04 39.9052 10.424C39.9052 9.808 39.3132 9.44 38.4412 9.44ZM40.0172 11.64C39.6092 11.928 39.0412 12.072 38.3292 12.072C37.6172 12.072 37.0492 11.928 36.6332 11.648C36.2172 11.368 36.0092 10.984 36.0092 10.488C36.0092 9.84 36.4332 9.328 37.1132 9.104C36.4972 8.904 36.1932 8.416 36.1932 7.848C36.1932 6.92 36.9772 6.328 38.3212 6.328C39.6732 6.328 40.4572 6.92 40.4572 7.848C40.4572 8.384 40.1612 8.792 39.5692 9.064C40.2812 9.28 40.6332 9.744 40.6332 10.456C40.6332 10.96 40.4252 11.36 40.0172 11.64ZM41.3131 11.544C41.3131 11.32 41.5211 11.096 41.8091 11.096C42.0731 11.096 42.2891 11.32 42.2891 11.544C42.2891 11.8 42.0891 12.016 41.8091 12.016C41.5211 12.016 41.3131 11.8 41.3131 11.544ZM43.7666 9.424L43.1906 9.272L43.5186 6.4H47.0386V7.08H44.1346L43.9266 8.584C44.2066 8.376 44.6306 8.272 45.1986 8.272C45.8546 8.272 46.3666 8.448 46.7426 8.792C47.1106 9.144 47.2946 9.592 47.2946 10.144C47.2946 10.696 47.0866 11.16 46.6786 11.52C46.2626 11.888 45.7426 12.072 45.1266 12.072C44.0786 12.072 43.2066 11.576 42.8466 10.704L43.4866 10.432C43.7186 10.968 44.3186 11.392 45.1266 11.392C46.0466 11.392 46.5586 10.864 46.5586 10.168C46.5586 9.424 45.9586 8.944 45.0066 8.944C44.4946 8.944 44.0786 9.104 43.7666 9.424Z" fill="#2A3C3C"/>
<path d="M34.5702 12H33.8742V10.856H30.4502V10.392L33.9542 6.4H34.5702V10.208H35.6102V10.856H34.5702V12ZM33.8742 7.52L31.4102 10.208H33.8742V7.52ZM38.2092 8.808H38.4572C38.8172 8.808 39.1132 8.72 39.3612 8.552C39.6012 8.384 39.7212 8.16 39.7212 7.896C39.7212 7.296 39.2492 6.992 38.3132 6.992C37.4172 6.992 36.9292 7.32 36.9292 7.896C36.9292 8.416 37.4652 8.808 38.2092 8.808ZM38.4412 9.44H38.2412C37.8092 9.44 37.4492 9.536 37.1692 9.72C36.8892 9.904 36.7452 10.136 36.7452 10.416C36.7452 11.024 37.3052 11.408 38.3212 11.408C39.3532 11.408 39.9052 11.04 39.9052 10.424C39.9052 9.808 39.3132 9.44 38.4412 9.44ZM40.0172 11.64C39.6092 11.928 39.0412 12.072 38.3292 12.072C37.6172 12.072 37.0492 11.928 36.6332 11.648C36.2172 11.368 36.0092 10.984 36.0092 10.488C36.0092 9.84 36.4332 9.328 37.1132 9.104C36.4972 8.904 36.1932 8.416 36.1932 7.848C36.1932 6.92 36.9772 6.328 38.3212 6.328C39.6732 6.328 40.4572 6.92 40.4572 7.848C40.4572 8.384 40.1612 8.792 39.5692 9.064C40.2812 9.28 40.6332 9.744 40.6332 10.456C40.6332 10.96 40.4252 11.36 40.0172 11.64ZM41.3131 11.544C41.3131 11.32 41.5211 11.096 41.8091 11.096C42.0731 11.096 42.2891 11.32 42.2891 11.544C42.2891 11.8 42.0891 12.016 41.8091 12.016C41.5211 12.016 41.3131 11.8 41.3131 11.544ZM43.7666 9.424L43.1906 9.272L43.5186 6.4H47.0386V7.08H44.1346L43.9266 8.584C44.2066 8.376 44.6306 8.272 45.1986 8.272C45.8546 8.272 46.3666 8.448 46.7426 8.792C47.1106 9.144 47.2946 9.592 47.2946 10.144C47.2946 10.696 47.0866 11.16 46.6786 11.52C46.2626 11.888 45.7426 12.072 45.1266 12.072C44.0786 12.072 43.2066 11.576 42.8466 10.704L43.4866 10.432C43.7186 10.968 44.3186 11.392 45.1266 11.392C46.0466 11.392 46.5586 10.864 46.5586 10.168C46.5586 9.424 45.9586 8.944 45.0066 8.944C44.4946 8.944 44.0786 9.104 43.7666 9.424Z" fill="#1A3341"/>
<circle cx="66.2297" cy="35.881" r="4.19352" fill="#6D73F9" stroke="white"/>
<path d="M62.2421 26H61.5461V24.856H58.1221V24.392L61.6261 20.4H62.2421V24.208H63.2821V24.856H62.2421V26ZM61.5461 21.52L59.0821 24.208H61.5461V21.52ZM66.8811 21.08H63.4891V20.4H67.7371V20.856L64.9531 26H64.1931L66.8811 21.08ZM67.735 25.544C67.735 25.32 67.943 25.096 68.231 25.096C68.495 25.096 68.711 25.32 68.711 25.544C68.711 25.8 68.511 26.016 68.231 26.016C67.943 26.016 67.735 25.8 67.735 25.544ZM69.9244 22.032L69.3244 21.76C69.6204 20.896 70.3964 20.328 71.5564 20.328C72.1084 20.328 72.5644 20.456 72.9164 20.712C73.2684 20.968 73.4444 21.312 73.4444 21.736C73.4444 22.384 73.1004 22.864 72.4604 23.048C73.0764 23.088 73.5724 23.552 73.5724 24.384C73.5724 24.912 73.3804 25.328 72.9964 25.624C72.6124 25.92 72.1244 26.072 71.5244 26.072C70.3004 26.072 69.4524 25.488 69.1724 24.568L69.8204 24.288C70.1644 25.016 70.7484 25.384 71.5724 25.384C72.3484 25.384 72.8364 25.024 72.8364 24.392C72.8364 23.776 72.3564 23.464 71.3964 23.464H70.7724V22.8H71.2684C72.1404 22.8 72.7084 22.408 72.7084 21.872C72.7084 21.32 72.2524 21.008 71.5244 21.008C70.6684 21.008 70.1484 21.448 69.9244 22.032Z" fill="#2A3C3C"/>
<path d="M62.2421 26H61.5461V24.856H58.1221V24.392L61.6261 20.4H62.2421V24.208H63.2821V24.856H62.2421V26ZM61.5461 21.52L59.0821 24.208H61.5461V21.52ZM66.8811 21.08H63.4891V20.4H67.7371V20.856L64.9531 26H64.1931L66.8811 21.08ZM67.735 25.544C67.735 25.32 67.943 25.096 68.231 25.096C68.495 25.096 68.711 25.32 68.711 25.544C68.711 25.8 68.511 26.016 68.231 26.016C67.943 26.016 67.735 25.8 67.735 25.544ZM69.9244 22.032L69.3244 21.76C69.6204 20.896 70.3964 20.328 71.5564 20.328C72.1084 20.328 72.5644 20.456 72.9164 20.712C73.2684 20.968 73.4444 21.312 73.4444 21.736C73.4444 22.384 73.1004 22.864 72.4604 23.048C73.0764 23.088 73.5724 23.552 73.5724 24.384C73.5724 24.912 73.3804 25.328 72.9964 25.624C72.6124 25.92 72.1244 26.072 71.5244 26.072C70.3004 26.072 69.4524 25.488 69.1724 24.568L69.8204 24.288C70.1644 25.016 70.7484 25.384 71.5724 25.384C72.3484 25.384 72.8364 25.024 72.8364 24.392C72.8364 23.776 72.3564 23.464 71.3964 23.464H70.7724V22.8H71.2684C72.1404 22.8 72.7084 22.408 72.7084 21.872C72.7084 21.32 72.2524 21.008 71.5244 21.008C70.6684 21.008 70.1484 21.448 69.9244 22.032Z" fill="#1A3341"/>
<circle cx="94.9777" cy="52.8947" r="4.19352" fill="#6D73F9" stroke="white"/>
<path d="M89.5702 43H88.8742V41.856H85.4502V41.392L88.9542 37.4H89.5702V41.208H90.6102V41.856H89.5702V43ZM88.8742 38.52L86.4102 41.208H88.8742V38.52ZM91.8172 40.424L91.2412 40.272L91.5692 37.4H95.0892V38.08H92.1852L91.9772 39.584C92.2572 39.376 92.6812 39.272 93.2492 39.272C93.9052 39.272 94.4172 39.448 94.7932 39.792C95.1612 40.144 95.3452 40.592 95.3452 41.144C95.3452 41.696 95.1372 42.16 94.7292 42.52C94.3132 42.888 93.7932 43.072 93.1772 43.072C92.1292 43.072 91.2572 42.576 90.8972 41.704L91.5372 41.432C91.7692 41.968 92.3692 42.392 93.1772 42.392C94.0972 42.392 94.6092 41.864 94.6092 41.168C94.6092 40.424 94.0092 39.944 93.0572 39.944C92.5452 39.944 92.1292 40.104 91.8172 40.424ZM96.0084 42.544C96.0084 42.32 96.2164 42.096 96.5044 42.096C96.7684 42.096 96.9844 42.32 96.9844 42.544C96.9844 42.8 96.7844 43.016 96.5044 43.016C96.2164 43.016 96.0084 42.8 96.0084 42.544ZM99.8539 39.808H100.102C100.462 39.808 100.758 39.72 101.006 39.552C101.246 39.384 101.366 39.16 101.366 38.896C101.366 38.296 100.894 37.992 99.9579 37.992C99.0619 37.992 98.5739 38.32 98.5739 38.896C98.5739 39.416 99.1099 39.808 99.8539 39.808ZM100.086 40.44H99.8859C99.4539 40.44 99.0939 40.536 98.8139 40.72C98.5339 40.904 98.3899 41.136 98.3899 41.416C98.3899 42.024 98.9499 42.408 99.9659 42.408C100.998 42.408 101.55 42.04 101.55 41.424C101.55 40.808 100.958 40.44 100.086 40.44ZM101.662 42.64C101.254 42.928 100.686 43.072 99.9739 43.072C99.2619 43.072 98.6939 42.928 98.2779 42.648C97.8619 42.368 97.6539 41.984 97.6539 41.488C97.6539 40.84 98.0779 40.328 98.7579 40.104C98.1419 39.904 97.8379 39.416 97.8379 38.848C97.8379 37.92 98.6219 37.328 99.9659 37.328C101.318 37.328 102.102 37.92 102.102 38.848C102.102 39.384 101.806 39.792 101.214 40.064C101.926 40.28 102.278 40.744 102.278 41.456C102.278 41.96 102.07 42.36 101.662 42.64Z" fill="#2A3C3C"/>
<path d="M89.5702 43H88.8742V41.856H85.4502V41.392L88.9542 37.4H89.5702V41.208H90.6102V41.856H89.5702V43ZM88.8742 38.52L86.4102 41.208H88.8742V38.52ZM91.8172 40.424L91.2412 40.272L91.5692 37.4H95.0892V38.08H92.1852L91.9772 39.584C92.2572 39.376 92.6812 39.272 93.2492 39.272C93.9052 39.272 94.4172 39.448 94.7932 39.792C95.1612 40.144 95.3452 40.592 95.3452 41.144C95.3452 41.696 95.1372 42.16 94.7292 42.52C94.3132 42.888 93.7932 43.072 93.1772 43.072C92.1292 43.072 91.2572 42.576 90.8972 41.704L91.5372 41.432C91.7692 41.968 92.3692 42.392 93.1772 42.392C94.0972 42.392 94.6092 41.864 94.6092 41.168C94.6092 40.424 94.0092 39.944 93.0572 39.944C92.5452 39.944 92.1292 40.104 91.8172 40.424ZM96.0084 42.544C96.0084 42.32 96.2164 42.096 96.5044 42.096C96.7684 42.096 96.9844 42.32 96.9844 42.544C96.9844 42.8 96.7844 43.016 96.5044 43.016C96.2164 43.016 96.0084 42.8 96.0084 42.544ZM99.8539 39.808H100.102C100.462 39.808 100.758 39.72 101.006 39.552C101.246 39.384 101.366 39.16 101.366 38.896C101.366 38.296 100.894 37.992 99.9579 37.992C99.0619 37.992 98.5739 38.32 98.5739 38.896C98.5739 39.416 99.1099 39.808 99.8539 39.808ZM100.086 40.44H99.8859C99.4539 40.44 99.0939 40.536 98.8139 40.72C98.5339 40.904 98.3899 41.136 98.3899 41.416C98.3899 42.024 98.9499 42.408 99.9659 42.408C100.998 42.408 101.55 42.04 101.55 41.424C101.55 40.808 100.958 40.44 100.086 40.44ZM101.662 42.64C101.254 42.928 100.686 43.072 99.9739 43.072C99.2619 43.072 98.6939 42.928 98.2779 42.648C97.8619 42.368 97.6539 41.984 97.6539 41.488C97.6539 40.84 98.0779 40.328 98.7579 40.104C98.1419 39.904 97.8379 39.416 97.8379 38.848C97.8379 37.92 98.6219 37.328 99.9659 37.328C101.318 37.328 102.102 37.92 102.102 38.848C102.102 39.384 101.806 39.792 101.214 40.064C101.926 40.28 102.278 40.744 102.278 41.456C102.278 41.96 102.07 42.36 101.662 42.64Z" fill="#1A3341"/>
<circle cx="124.312" cy="66.9757" r="4.19352" fill="#6D73F9" stroke="white"/>
<path d="M119.398 57H118.702V55.856H115.278V55.392L118.782 51.4H119.398V55.208H120.438V55.856H119.398V57ZM118.702 52.52L116.238 55.208H118.702V52.52ZM124.693 57H123.997V55.856H120.573V55.392L124.077 51.4H124.693V55.208H125.733V55.856H124.693V57ZM123.997 52.52L121.533 55.208H123.997V52.52ZM126.18 56.544C126.18 56.32 126.388 56.096 126.676 56.096C126.94 56.096 127.156 56.32 127.156 56.544C127.156 56.8 126.956 57.016 126.676 57.016C126.388 57.016 126.18 56.8 126.18 56.544ZM130.026 53.808H130.274C130.634 53.808 130.93 53.72 131.178 53.552C131.418 53.384 131.538 53.16 131.538 52.896C131.538 52.296 131.066 51.992 130.13 51.992C129.234 51.992 128.746 52.32 128.746 52.896C128.746 53.416 129.282 53.808 130.026 53.808ZM130.258 54.44H130.058C129.626 54.44 129.266 54.536 128.986 54.72C128.706 54.904 128.562 55.136 128.562 55.416C128.562 56.024 129.122 56.408 130.138 56.408C131.17 56.408 131.722 56.04 131.722 55.424C131.722 54.808 131.13 54.44 130.258 54.44ZM131.834 56.64C131.426 56.928 130.858 57.072 130.146 57.072C129.434 57.072 128.866 56.928 128.45 56.648C128.034 56.368 127.826 55.984 127.826 55.488C127.826 54.84 128.25 54.328 128.93 54.104C128.314 53.904 128.01 53.416 128.01 52.848C128.01 51.92 128.794 51.328 130.138 51.328C131.49 51.328 132.274 51.92 132.274 52.848C132.274 53.384 131.978 53.792 131.386 54.064C132.098 54.28 132.45 54.744 132.45 55.456C132.45 55.96 132.242 56.36 131.834 56.64Z" fill="#2A3C3C"/>
<path d="M119.398 57H118.702V55.856H115.278V55.392L118.782 51.4H119.398V55.208H120.438V55.856H119.398V57ZM118.702 52.52L116.238 55.208H118.702V52.52ZM124.693 57H123.997V55.856H120.573V55.392L124.077 51.4H124.693V55.208H125.733V55.856H124.693V57ZM123.997 52.52L121.533 55.208H123.997V52.52ZM126.18 56.544C126.18 56.32 126.388 56.096 126.676 56.096C126.94 56.096 127.156 56.32 127.156 56.544C127.156 56.8 126.956 57.016 126.676 57.016C126.388 57.016 126.18 56.8 126.18 56.544ZM130.026 53.808H130.274C130.634 53.808 130.93 53.72 131.178 53.552C131.418 53.384 131.538 53.16 131.538 52.896C131.538 52.296 131.066 51.992 130.13 51.992C129.234 51.992 128.746 52.32 128.746 52.896C128.746 53.416 129.282 53.808 130.026 53.808ZM130.258 54.44H130.058C129.626 54.44 129.266 54.536 128.986 54.72C128.706 54.904 128.562 55.136 128.562 55.416C128.562 56.024 129.122 56.408 130.138 56.408C131.17 56.408 131.722 56.04 131.722 55.424C131.722 54.808 131.13 54.44 130.258 54.44ZM131.834 56.64C131.426 56.928 130.858 57.072 130.146 57.072C129.434 57.072 128.866 56.928 128.45 56.648C128.034 56.368 127.826 55.984 127.826 55.488C127.826 54.84 128.25 54.328 128.93 54.104C128.314 53.904 128.01 53.416 128.01 52.848C128.01 51.92 128.794 51.328 130.138 51.328C131.49 51.328 132.274 51.92 132.274 52.848C132.274 53.384 131.978 53.792 131.386 54.064C132.098 54.28 132.45 54.744 132.45 55.456C132.45 55.96 132.242 56.36 131.834 56.64Z" fill="#1A3341"/>
<circle cx="152.473" cy="82.2297" r="4.19352" fill="#6D73F9" stroke="white"/>
<path d="M148.098 72H147.402V70.856H143.978V70.392L147.482 66.4H148.098V70.208H149.138V70.856H148.098V72ZM147.402 67.52L144.938 70.208H147.402V67.52ZM150.081 68.032L149.481 67.76C149.777 66.896 150.553 66.328 151.713 66.328C152.265 66.328 152.721 66.456 153.073 66.712C153.425 66.968 153.601 67.312 153.601 67.736C153.601 68.384 153.257 68.864 152.617 69.048C153.233 69.088 153.729 69.552 153.729 70.384C153.729 70.912 153.537 71.328 153.153 71.624C152.769 71.92 152.281 72.072 151.681 72.072C150.457 72.072 149.609 71.488 149.329 70.568L149.977 70.288C150.321 71.016 150.905 71.384 151.729 71.384C152.505 71.384 152.993 71.024 152.993 70.392C152.993 69.776 152.513 69.464 151.553 69.464H150.929V68.8H151.425C152.297 68.8 152.865 68.408 152.865 67.872C152.865 67.32 152.409 67.008 151.681 67.008C150.825 67.008 150.305 67.448 150.081 68.032ZM154.442 71.544C154.442 71.32 154.65 71.096 154.938 71.096C155.202 71.096 155.418 71.32 155.418 71.544C155.418 71.8 155.218 72.016 154.938 72.016C154.65 72.016 154.442 71.8 154.442 71.544ZM159.943 72H159.247V70.856H155.823V70.392L159.327 66.4H159.943V70.208H160.983V70.856H159.943V72ZM159.247 67.52L156.783 70.208H159.247V67.52Z" fill="#2A3C3C"/>
<path d="M148.098 72H147.402V70.856H143.978V70.392L147.482 66.4H148.098V70.208H149.138V70.856H148.098V72ZM147.402 67.52L144.938 70.208H147.402V67.52ZM150.081 68.032L149.481 67.76C149.777 66.896 150.553 66.328 151.713 66.328C152.265 66.328 152.721 66.456 153.073 66.712C153.425 66.968 153.601 67.312 153.601 67.736C153.601 68.384 153.257 68.864 152.617 69.048C153.233 69.088 153.729 69.552 153.729 70.384C153.729 70.912 153.537 71.328 153.153 71.624C152.769 71.92 152.281 72.072 151.681 72.072C150.457 72.072 149.609 71.488 149.329 70.568L149.977 70.288C150.321 71.016 150.905 71.384 151.729 71.384C152.505 71.384 152.993 71.024 152.993 70.392C152.993 69.776 152.513 69.464 151.553 69.464H150.929V68.8H151.425C152.297 68.8 152.865 68.408 152.865 67.872C152.865 67.32 152.409 67.008 151.681 67.008C150.825 67.008 150.305 67.448 150.081 68.032ZM154.442 71.544C154.442 71.32 154.65 71.096 154.938 71.096C155.202 71.096 155.418 71.32 155.418 71.544C155.418 71.8 155.218 72.016 154.938 72.016C154.65 72.016 154.442 71.8 154.442 71.544ZM159.943 72H159.247V70.856H155.823V70.392L159.327 66.4H159.943V70.208H160.983V70.856H159.943V72ZM159.247 67.52L156.783 70.208H159.247V67.52Z" fill="#1A3341"/>
<circle cx="181.221" cy="92.7902" r="4.19352" fill="#6D73F9" stroke="white"/>
<path d="M177.519 83H176.823V81.856H173.399V81.392L176.903 77.4H177.519V81.208H178.559V81.856H177.519V83ZM176.823 78.52L174.359 81.208H176.823V78.52ZM179.59 79.248L179.006 79.04C179.206 78.048 179.958 77.336 181.15 77.336C182.302 77.336 183.006 78 183.006 79.016C183.006 79.552 182.774 80.088 182.486 80.472C182.342 80.672 182.158 80.864 181.942 81.064C181.502 81.456 181.19 81.664 180.734 81.952L180.118 82.336H183.214V83H178.854V82.456L180.07 81.648C180.286 81.512 180.438 81.408 180.526 81.344C180.614 81.288 180.758 81.184 180.95 81.048C181.142 80.912 181.286 80.792 181.382 80.704C181.47 80.616 181.59 80.504 181.726 80.36C182.094 79.96 182.23 79.592 182.27 79.088C182.27 78.36 181.798 78.032 181.102 78.032C180.67 78.032 180.326 78.152 180.078 78.392C179.83 78.632 179.662 78.92 179.59 79.248ZM183.825 82.544C183.825 82.32 184.033 82.096 184.321 82.096C184.585 82.096 184.801 82.32 184.801 82.544C184.801 82.8 184.601 83.016 184.321 83.016C184.033 83.016 183.825 82.8 183.825 82.544ZM188.67 78.08H185.278V77.4H189.526V77.856L186.742 83H185.982L188.67 78.08Z" fill="#2A3C3C"/>
<path d="M177.519 83H176.823V81.856H173.399V81.392L176.903 77.4H177.519V81.208H178.559V81.856H177.519V83ZM176.823 78.52L174.359 81.208H176.823V78.52ZM179.59 79.248L179.006 79.04C179.206 78.048 179.958 77.336 181.15 77.336C182.302 77.336 183.006 78 183.006 79.016C183.006 79.552 182.774 80.088 182.486 80.472C182.342 80.672 182.158 80.864 181.942 81.064C181.502 81.456 181.19 81.664 180.734 81.952L180.118 82.336H183.214V83H178.854V82.456L180.07 81.648C180.286 81.512 180.438 81.408 180.526 81.344C180.614 81.288 180.758 81.184 180.95 81.048C181.142 80.912 181.286 80.792 181.382 80.704C181.47 80.616 181.59 80.504 181.726 80.36C182.094 79.96 182.23 79.592 182.27 79.088C182.27 78.36 181.798 78.032 181.102 78.032C180.67 78.032 180.326 78.152 180.078 78.392C179.83 78.632 179.662 78.92 179.59 79.248ZM183.825 82.544C183.825 82.32 184.033 82.096 184.321 82.096C184.585 82.096 184.801 82.32 184.801 82.544C184.801 82.8 184.601 83.016 184.321 83.016C184.033 83.016 183.825 82.8 183.825 82.544ZM188.67 78.08H185.278V77.4H189.526V77.856L186.742 83H185.982L188.67 78.08Z" fill="#1A3341"/>
<circle cx="209.969" cy="82.8166" r="4.19352" fill="#6D73F9" stroke="white"/>
<path d="M204.769 73H204.073V71.856H200.649V71.392L204.153 67.4H204.769V71.208H205.809V71.856H204.769V73ZM204.073 68.52L201.609 71.208H204.073V68.52ZM206.752 69.032L206.152 68.76C206.448 67.896 207.224 67.328 208.384 67.328C208.936 67.328 209.392 67.456 209.744 67.712C210.096 67.968 210.272 68.312 210.272 68.736C210.272 69.384 209.928 69.864 209.288 70.048C209.904 70.088 210.4 70.552 210.4 71.384C210.4 71.912 210.208 72.328 209.824 72.624C209.44 72.92 208.952 73.072 208.352 73.072C207.128 73.072 206.28 72.488 206 71.568L206.648 71.288C206.992 72.016 207.576 72.384 208.4 72.384C209.176 72.384 209.664 72.024 209.664 71.392C209.664 70.776 209.184 70.464 208.224 70.464H207.6V69.8H208.096C208.968 69.8 209.536 69.408 209.536 68.872C209.536 68.32 209.08 68.008 208.352 68.008C207.496 68.008 206.976 68.448 206.752 69.032ZM211.114 72.544C211.114 72.32 211.322 72.096 211.61 72.096C211.874 72.096 212.09 72.32 212.09 72.544C212.09 72.8 211.89 73.016 211.61 73.016C211.322 73.016 211.114 72.8 211.114 72.544ZM213.567 70.424L212.991 70.272L213.319 67.4H216.839V68.08H213.935L213.727 69.584C214.007 69.376 214.431 69.272 214.999 69.272C215.655 69.272 216.167 69.448 216.543 69.792C216.911 70.144 217.095 70.592 217.095 71.144C217.095 71.696 216.887 72.16 216.479 72.52C216.063 72.888 215.543 73.072 214.927 73.072C213.879 73.072 213.007 72.576 212.647 71.704L213.287 71.432C213.519 71.968 214.119 72.392 214.927 72.392C215.847 72.392 216.359 71.864 216.359 71.168C216.359 70.424 215.759 69.944 214.807 69.944C214.295 69.944 213.879 70.104 213.567 70.424Z" fill="#2A3C3C"/>
<path d="M204.769 73H204.073V71.856H200.649V71.392L204.153 67.4H204.769V71.208H205.809V71.856H204.769V73ZM204.073 68.52L201.609 71.208H204.073V68.52ZM206.752 69.032L206.152 68.76C206.448 67.896 207.224 67.328 208.384 67.328C208.936 67.328 209.392 67.456 209.744 67.712C210.096 67.968 210.272 68.312 210.272 68.736C210.272 69.384 209.928 69.864 209.288 70.048C209.904 70.088 210.4 70.552 210.4 71.384C210.4 71.912 210.208 72.328 209.824 72.624C209.44 72.92 208.952 73.072 208.352 73.072C207.128 73.072 206.28 72.488 206 71.568L206.648 71.288C206.992 72.016 207.576 72.384 208.4 72.384C209.176 72.384 209.664 72.024 209.664 71.392C209.664 70.776 209.184 70.464 208.224 70.464H207.6V69.8H208.096C208.968 69.8 209.536 69.408 209.536 68.872C209.536 68.32 209.08 68.008 208.352 68.008C207.496 68.008 206.976 68.448 206.752 69.032ZM211.114 72.544C211.114 72.32 211.322 72.096 211.61 72.096C211.874 72.096 212.09 72.32 212.09 72.544C212.09 72.8 211.89 73.016 211.61 73.016C211.322 73.016 211.114 72.8 211.114 72.544ZM213.567 70.424L212.991 70.272L213.319 67.4H216.839V68.08H213.935L213.727 69.584C214.007 69.376 214.431 69.272 214.999 69.272C215.655 69.272 216.167 69.448 216.543 69.792C216.911 70.144 217.095 70.592 217.095 71.144C217.095 71.696 216.887 72.16 216.479 72.52C216.063 72.888 215.543 73.072 214.927 73.072C213.879 73.072 213.007 72.576 212.647 71.704L213.287 71.432C213.519 71.968 214.119 72.392 214.927 72.392C215.847 72.392 216.359 71.864 216.359 71.168C216.359 70.424 215.759 69.944 214.807 69.944C214.295 69.944 213.879 70.104 213.567 70.424Z" fill="#1A3341"/>
<circle cx="239.303" cy="83.4025" r="4.19352" fill="#6D73F9" stroke="white"/>
<path d="M234.598 73H233.902V71.856H230.478V71.392L233.982 67.4H234.598V71.208H235.638V71.856H234.598V73ZM233.902 68.52L231.438 71.208H233.902V68.52ZM236.581 69.032L235.981 68.76C236.277 67.896 237.053 67.328 238.213 67.328C238.765 67.328 239.221 67.456 239.573 67.712C239.925 67.968 240.101 68.312 240.101 68.736C240.101 69.384 239.757 69.864 239.117 70.048C239.733 70.088 240.229 70.552 240.229 71.384C240.229 71.912 240.037 72.328 239.653 72.624C239.269 72.92 238.781 73.072 238.181 73.072C236.957 73.072 236.109 72.488 235.829 71.568L236.477 71.288C236.821 72.016 237.405 72.384 238.229 72.384C239.005 72.384 239.493 72.024 239.493 71.392C239.493 70.776 239.013 70.464 238.053 70.464H237.429V69.8H237.925C238.797 69.8 239.365 69.408 239.365 68.872C239.365 68.32 238.909 68.008 238.181 68.008C237.325 68.008 236.805 68.448 236.581 69.032ZM240.942 72.544C240.942 72.32 241.15 72.096 241.438 72.096C241.702 72.096 241.918 72.32 241.918 72.544C241.918 72.8 241.718 73.016 241.438 73.016C241.15 73.016 240.942 72.8 240.942 72.544ZM246.443 73H245.747V71.856H242.323V71.392L245.827 67.4H246.443V71.208H247.483V71.856H246.443V73ZM245.747 68.52L243.283 71.208H245.747V68.52Z" fill="#2A3C3C"/>
<path d="M234.598 73H233.902V71.856H230.478V71.392L233.982 67.4H234.598V71.208H235.638V71.856H234.598V73ZM233.902 68.52L231.438 71.208H233.902V68.52ZM236.581 69.032L235.981 68.76C236.277 67.896 237.053 67.328 238.213 67.328C238.765 67.328 239.221 67.456 239.573 67.712C239.925 67.968 240.101 68.312 240.101 68.736C240.101 69.384 239.757 69.864 239.117 70.048C239.733 70.088 240.229 70.552 240.229 71.384C240.229 71.912 240.037 72.328 239.653 72.624C239.269 72.92 238.781 73.072 238.181 73.072C236.957 73.072 236.109 72.488 235.829 71.568L236.477 71.288C236.821 72.016 237.405 72.384 238.229 72.384C239.005 72.384 239.493 72.024 239.493 71.392C239.493 70.776 239.013 70.464 238.053 70.464H237.429V69.8H237.925C238.797 69.8 239.365 69.408 239.365 68.872C239.365 68.32 238.909 68.008 238.181 68.008C237.325 68.008 236.805 68.448 236.581 69.032ZM240.942 72.544C240.942 72.32 241.15 72.096 241.438 72.096C241.702 72.096 241.918 72.32 241.918 72.544C241.918 72.8 241.718 73.016 241.438 73.016C241.15 73.016 240.942 72.8 240.942 72.544ZM246.443 73H245.747V71.856H242.323V71.392L245.827 67.4H246.443V71.208H247.483V71.856H246.443V73ZM245.747 68.52L243.283 71.208H245.747V68.52Z" fill="#1A3341"/>
<circle cx="268.051" cy="84.5763" r="4.19352" fill="#6D73F9" stroke="white"/>
<path d="M263.707 74H263.011V72.856H259.587V72.392L263.091 68.4H263.707V72.208H264.747V72.856H263.707V74ZM263.011 69.52L260.547 72.208H263.011V69.52ZM265.69 70.032L265.09 69.76C265.386 68.896 266.162 68.328 267.322 68.328C267.874 68.328 268.33 68.456 268.682 68.712C269.034 68.968 269.21 69.312 269.21 69.736C269.21 70.384 268.866 70.864 268.226 71.048C268.842 71.088 269.338 71.552 269.338 72.384C269.338 72.912 269.146 73.328 268.762 73.624C268.378 73.92 267.89 74.072 267.29 74.072C266.066 74.072 265.218 73.488 264.938 72.568L265.586 72.288C265.93 73.016 266.514 73.384 267.338 73.384C268.114 73.384 268.602 73.024 268.602 72.392C268.602 71.776 268.122 71.464 267.162 71.464H266.538V70.8H267.034C267.906 70.8 268.474 70.408 268.474 69.872C268.474 69.32 268.018 69.008 267.29 69.008C266.434 69.008 265.914 69.448 265.69 70.032ZM270.051 73.544C270.051 73.32 270.259 73.096 270.547 73.096C270.811 73.096 271.027 73.32 271.027 73.544C271.027 73.8 270.827 74.016 270.547 74.016C270.259 74.016 270.051 73.8 270.051 73.544ZM271.625 69.888L271.369 69.288L273.289 68.368H273.745V74H273.057V69.224L271.625 69.888Z" fill="#2A3C3C"/>
<path d="M263.707 74H263.011V72.856H259.587V72.392L263.091 68.4H263.707V72.208H264.747V72.856H263.707V74ZM263.011 69.52L260.547 72.208H263.011V69.52ZM265.69 70.032L265.09 69.76C265.386 68.896 266.162 68.328 267.322 68.328C267.874 68.328 268.33 68.456 268.682 68.712C269.034 68.968 269.21 69.312 269.21 69.736C269.21 70.384 268.866 70.864 268.226 71.048C268.842 71.088 269.338 71.552 269.338 72.384C269.338 72.912 269.146 73.328 268.762 73.624C268.378 73.92 267.89 74.072 267.29 74.072C266.066 74.072 265.218 73.488 264.938 72.568L265.586 72.288C265.93 73.016 266.514 73.384 267.338 73.384C268.114 73.384 268.602 73.024 268.602 72.392C268.602 71.776 268.122 71.464 267.162 71.464H266.538V70.8H267.034C267.906 70.8 268.474 70.408 268.474 69.872C268.474 69.32 268.018 69.008 267.29 69.008C266.434 69.008 265.914 69.448 265.69 70.032ZM270.051 73.544C270.051 73.32 270.259 73.096 270.547 73.096C270.811 73.096 271.027 73.32 271.027 73.544C271.027 73.8 270.827 74.016 270.547 74.016C270.259 74.016 270.051 73.8 270.051 73.544ZM271.625 69.888L271.369 69.288L273.289 68.368H273.745V74H273.057V69.224L271.625 69.888Z" fill="#1A3341"/>
<circle cx="296.799" cy="73.4289" r="4.19352" fill="#6D73F9" stroke="white"/>
<path d="M291.617 63H290.921V61.856H287.497V61.392L291.001 57.4H291.617V61.208H292.657V61.856H291.617V63ZM290.921 58.52L288.457 61.208H290.921V58.52ZM296.912 63H296.216V61.856H292.792V61.392L296.296 57.4H296.912V61.208H297.952V61.856H296.912V63ZM296.216 58.52L293.752 61.208H296.216V58.52ZM298.399 62.544C298.399 62.32 298.607 62.096 298.895 62.096C299.159 62.096 299.375 62.32 299.375 62.544C299.375 62.8 299.175 63.016 298.895 63.016C298.607 63.016 298.399 62.8 298.399 62.544ZM300.677 59.248L300.093 59.04C300.293 58.048 301.045 57.336 302.237 57.336C303.389 57.336 304.093 58 304.093 59.016C304.093 59.552 303.861 60.088 303.573 60.472C303.429 60.672 303.245 60.864 303.029 61.064C302.589 61.456 302.277 61.664 301.821 61.952L301.205 62.336H304.301V63H299.941V62.456L301.157 61.648C301.373 61.512 301.525 61.408 301.613 61.344C301.701 61.288 301.845 61.184 302.037 61.048C302.229 60.912 302.373 60.792 302.469 60.704C302.557 60.616 302.677 60.504 302.813 60.36C303.181 59.96 303.317 59.592 303.357 59.088C303.357 58.36 302.885 58.032 302.189 58.032C301.757 58.032 301.413 58.152 301.165 58.392C300.917 58.632 300.749 58.92 300.677 59.248Z" fill="#2A3C3C"/>
<path d="M291.617 63H290.921V61.856H287.497V61.392L291.001 57.4H291.617V61.208H292.657V61.856H291.617V63ZM290.921 58.52L288.457 61.208H290.921V58.52ZM296.912 63H296.216V61.856H292.792V61.392L296.296 57.4H296.912V61.208H297.952V61.856H296.912V63ZM296.216 58.52L293.752 61.208H296.216V58.52ZM298.399 62.544C298.399 62.32 298.607 62.096 298.895 62.096C299.159 62.096 299.375 62.32 299.375 62.544C299.375 62.8 299.175 63.016 298.895 63.016C298.607 63.016 298.399 62.8 298.399 62.544ZM300.677 59.248L300.093 59.04C300.293 58.048 301.045 57.336 302.237 57.336C303.389 57.336 304.093 58 304.093 59.016C304.093 59.552 303.861 60.088 303.573 60.472C303.429 60.672 303.245 60.864 303.029 61.064C302.589 61.456 302.277 61.664 301.821 61.952L301.205 62.336H304.301V63H299.941V62.456L301.157 61.648C301.373 61.512 301.525 61.408 301.613 61.344C301.701 61.288 301.845 61.184 302.037 61.048C302.229 60.912 302.373 60.792 302.469 60.704C302.557 60.616 302.677 60.504 302.813 60.36C303.181 59.96 303.317 59.592 303.357 59.088C303.357 58.36 302.885 58.032 302.189 58.032C301.757 58.032 301.413 58.152 301.165 58.392C300.917 58.632 300.749 58.92 300.677 59.248Z" fill="#1A3341"/>
<circle cx="325.546" cy="70.4953" r="4.19352" fill="#6D73F9" stroke="white"/>
<path d="M320.379 60H319.683V58.856H316.259V58.392L319.763 54.4H320.379V58.208H321.419V58.856H320.379V60ZM319.683 55.52L317.219 58.208H319.683V55.52ZM325.674 60H324.978V58.856H321.554V58.392L325.058 54.4H325.674V58.208H326.714V58.856H325.674V60ZM324.978 55.52L322.514 58.208H324.978V55.52ZM327.161 59.544C327.161 59.32 327.369 59.096 327.657 59.096C327.921 59.096 328.137 59.32 328.137 59.544C328.137 59.8 327.937 60.016 327.657 60.016C327.369 60.016 327.161 59.8 327.161 59.544ZM332.662 60H331.966V58.856H328.542V58.392L332.046 54.4H332.662V58.208H333.702V58.856H332.662V60ZM331.966 55.52L329.502 58.208H331.966V55.52Z" fill="#2A3C3C"/>
<path d="M320.379 60H319.683V58.856H316.259V58.392L319.763 54.4H320.379V58.208H321.419V58.856H320.379V60ZM319.683 55.52L317.219 58.208H319.683V55.52ZM325.674 60H324.978V58.856H321.554V58.392L325.058 54.4H325.674V58.208H326.714V58.856H325.674V60ZM324.978 55.52L322.514 58.208H324.978V55.52ZM327.161 59.544C327.161 59.32 327.369 59.096 327.657 59.096C327.921 59.096 328.137 59.32 328.137 59.544C328.137 59.8 327.937 60.016 327.657 60.016C327.369 60.016 327.161 59.8 327.161 59.544ZM332.662 60H331.966V58.856H328.542V58.392L332.046 54.4H332.662V58.208H333.702V58.856H332.662V60ZM331.966 55.52L329.502 58.208H331.966V55.52Z" fill="#1A3341"/>
<defs>
<linearGradient id="paint0_linear_5796_19222" x1="166" y1="18" x2="166" y2="136" gradientUnits="userSpaceOnUse">
<stop stop-color="#6D73F9"/>
<stop offset="1" stop-color="white"/>
</linearGradient>
</defs>
</svg>
