<svg width="544" height="279" viewBox="0 0 544 279" fill="none" xmlns="http://www.w3.org/2000/svg">
<path opacity="0.7" d="M167 0C188.901 2.61164e-07 210.435 5.61934 229.544 16.3205C248.652 27.0217 264.695 42.4467 276.138 61.1202C287.581 79.7936 294.041 101.091 294.901 122.975C295.761 144.859 290.992 166.597 281.049 186.111C271.106 205.624 256.323 222.261 238.113 234.428C219.903 246.596 198.876 253.887 177.043 255.605C155.21 257.324 133.301 253.411 113.412 244.242C93.5226 235.073 76.3188 220.955 63.4458 203.237L167 128V0Z" fill="url(#paint0_radial_7002_27702)" fill-opacity="0.6"/>
<path d="M12.8259 151.144L12.3339 149.944L15.1539 148.576H16.0659V157H14.6739V150.292L12.8259 151.144ZM18.2194 151.264L16.9594 150.76C17.3794 149.32 18.6634 148.516 20.3074 148.516C22.2154 148.516 23.3314 149.512 23.3314 151C23.3314 152.092 22.8634 152.98 22.0354 153.748C21.6154 154.144 21.0394 154.588 20.3074 155.104L19.3474 155.656H23.5954V157H17.0794V155.932L18.9754 154.552C19.0354 154.504 19.2034 154.372 19.5034 154.144C19.8034 153.916 19.9954 153.76 20.0914 153.676C20.1874 153.592 20.3554 153.448 20.6074 153.244C20.8474 153.04 21.0154 152.872 21.1234 152.74C21.3154 152.5 21.6634 152.08 21.7714 151.744C21.8194 151.576 21.8434 151.408 21.8434 151.228C21.8434 150.412 21.2554 149.908 20.2834 149.908C19.2394 149.908 18.5554 150.484 18.2194 151.264ZM24.0774 156.124C24.0774 155.68 24.4854 155.248 25.0494 155.248C25.5774 155.248 26.0094 155.692 26.0094 156.124C26.0094 156.604 25.5894 157.024 25.0494 157.024C24.4734 157.024 24.0774 156.604 24.0774 156.124ZM26.5851 151.144L26.0931 149.944L28.9131 148.576H29.8251V157H28.4331V150.292L26.5851 151.144Z" fill="#1A3341"/>
<path d="M39.184 209.8C39.184 208.528 39.508 207.496 40.144 206.704C40.78 205.912 41.668 205.516 42.808 205.516C43.96 205.516 44.86 205.912 45.496 206.704C46.132 207.496 46.456 208.528 46.456 209.8C46.456 211.084 46.144 212.116 45.508 212.896C44.872 213.688 43.984 214.084 42.832 214.084C41.68 214.084 40.78 213.688 40.144 212.896C39.508 212.116 39.184 211.084 39.184 209.8ZM41.224 207.652C40.852 208.156 40.672 208.876 40.672 209.8C40.672 210.724 40.864 211.444 41.248 211.948C41.62 212.452 42.148 212.704 42.832 212.704C44.26 212.704 44.968 211.732 44.968 209.8C44.968 207.916 44.248 206.896 42.808 206.896C42.124 206.896 41.596 207.148 41.224 207.652ZM46.9563 213.124C46.9563 212.68 47.3643 212.248 47.9283 212.248C48.4563 212.248 48.8883 212.692 48.8883 213.124C48.8883 213.604 48.4683 214.024 47.9283 214.024C47.3523 214.024 46.9563 213.604 46.9563 213.124ZM53.94 206.956H49.128V205.6H55.656V206.512L51.696 214H50.172L53.94 206.956Z" fill="#1A3341"/>
<path d="M229.144 239.902C207.909 251.695 183.757 257.202 159.509 255.781C135.262 254.359 111.919 246.068 92.2072 231.875L101.182 219.41C118.528 231.9 139.07 239.196 160.408 240.447C181.746 241.698 203 236.851 221.686 226.474L229.144 239.902Z" fill="url(#paint1_linear_7002_27702)"/>
<path d="M92.7665 232.275C84.0192 226.048 76.0902 218.745 69.1664 210.538L80.9064 200.634C86.9994 207.856 93.9769 214.283 101.675 219.762L92.7665 232.275Z" fill="url(#paint2_linear_7002_27702)"/>
<path d="M64.3798 204.505C53.9283 190.486 46.4601 174.475 42.4358 157.458C38.4116 140.441 37.9166 122.78 40.9815 105.565L56.1037 108.257C53.4066 123.406 53.8422 138.948 57.3835 153.923C60.9249 168.898 67.4969 182.988 76.6942 195.325L64.3798 204.505Z" fill="url(#paint3_linear_7002_27702)"/>
<path d="M40.8857 106.11C46.0425 76.4005 61.5222 49.4656 84.5959 30.0533C107.67 10.641 136.856 -0.00213623 167.009 3.05176e-05L167.008 15.36C140.473 15.3581 114.789 24.7241 94.4844 41.8069C74.1795 58.8897 60.5574 82.5924 56.0194 108.737L40.8857 106.11Z" fill="#DBE9EE"/>
<path d="M167 0C195.407 3.38747e-07 223.006 9.44948 245.452 26.8602C267.898 44.2708 283.914 68.6534 290.979 96.1677C298.043 123.682 295.754 152.765 284.473 178.835C273.191 204.905 253.557 226.482 228.664 240.167L221.265 226.707C243.171 214.664 260.448 195.677 270.376 172.735C280.304 149.793 282.318 124.2 276.101 99.9876C269.884 75.775 255.79 54.3183 236.038 38.9969C216.286 23.6755 191.998 15.36 167 15.36V0Z" fill="#5A96A8"/>
<path d="M69.3127 210.711C67.2854 208.317 65.3469 205.849 63.501 203.312L75.9209 194.275C77.5453 196.507 79.2512 198.679 81.0352 200.786L69.3127 210.711Z" fill="#184977"/>
<path d="M265.372 24.502H263.968V22.906H259.216V21.97L264.172 16.102H265.372V21.622H266.8V22.906H265.372V24.502ZM263.968 18.394L261.136 21.622H263.968V18.394ZM268.156 18.766L266.896 18.262C267.316 16.822 268.6 16.018 270.244 16.018C272.152 16.018 273.268 17.014 273.268 18.502C273.268 19.594 272.8 20.482 271.972 21.25C271.552 21.646 270.976 22.09 270.244 22.606L269.284 23.158H273.532V24.502H267.016V23.434L268.912 22.054C268.972 22.006 269.14 21.874 269.44 21.646C269.74 21.418 269.932 21.262 270.028 21.178C270.124 21.094 270.292 20.95 270.544 20.746C270.784 20.542 270.952 20.374 271.06 20.242C271.252 20.002 271.6 19.582 271.708 19.246C271.756 19.078 271.78 18.91 271.78 18.73C271.78 17.914 271.192 17.41 270.22 17.41C269.176 17.41 268.492 17.986 268.156 18.766ZM274.014 23.626C274.014 23.182 274.422 22.75 274.986 22.75C275.514 22.75 275.946 23.194 275.946 23.626C275.946 24.106 275.526 24.526 274.986 24.526C274.41 24.526 274.014 24.106 274.014 23.626ZM277.625 18.766L276.365 18.262C276.785 16.822 278.069 16.018 279.713 16.018C281.621 16.018 282.737 17.014 282.737 18.502C282.737 19.594 282.269 20.482 281.441 21.25C281.021 21.646 280.445 22.09 279.713 22.606L278.753 23.158H283.001V24.502H276.485V23.434L278.381 22.054C278.441 22.006 278.609 21.874 278.909 21.646C279.209 21.418 279.401 21.262 279.497 21.178C279.593 21.094 279.761 20.95 280.013 20.746C280.253 20.542 280.421 20.374 280.529 20.242C280.721 20.002 281.069 19.582 281.177 19.246C281.225 19.078 281.249 18.91 281.249 18.73C281.249 17.914 280.661 17.41 279.689 17.41C278.645 17.41 277.961 17.986 277.625 18.766Z" fill="#1A3341"/>
<path d="M148.516 270.144L148.024 268.944L150.844 267.576H151.756V276H150.364V269.292L148.516 270.144ZM156.19 271.068H156.538C157.45 271.068 158.182 270.612 158.182 269.928C158.182 269.208 157.534 268.824 156.346 268.824C155.29 268.824 154.522 269.232 154.522 269.916C154.522 270.588 155.194 271.068 156.19 271.068ZM156.514 272.304H156.226C155.038 272.304 154.258 272.844 154.258 273.528C154.258 274.296 155.05 274.788 156.358 274.788C157.642 274.788 158.446 274.32 158.446 273.552C158.446 272.772 157.75 272.304 156.514 272.304ZM156.37 276.096C155.302 276.096 154.426 275.88 153.766 275.436C153.106 275.004 152.77 274.416 152.77 273.66C152.77 272.736 153.274 271.968 154.174 271.644C153.418 271.32 153.034 270.732 153.034 269.856C153.034 268.416 154.282 267.504 156.358 267.504C158.482 267.504 159.682 268.416 159.682 269.856C159.682 270.624 159.238 271.32 158.422 271.62C159.442 271.872 159.946 272.544 159.946 273.612C159.946 274.38 159.61 274.98 158.938 275.424C158.266 275.868 157.414 276.096 156.37 276.096ZM160.482 275.124C160.482 274.68 160.89 274.248 161.454 274.248C161.982 274.248 162.414 274.692 162.414 275.124C162.414 275.604 161.994 276.024 161.454 276.024C160.878 276.024 160.482 275.604 160.482 275.124ZM164.166 270L162.93 269.448C163.362 268.236 164.634 267.492 166.206 267.492C167.094 267.492 167.826 267.684 168.39 268.068C168.954 268.464 169.242 268.968 169.242 269.604C169.242 270.552 168.69 271.284 167.886 271.524C168.738 271.728 169.422 272.34 169.422 273.492C169.422 274.272 169.122 274.908 168.522 275.376C167.91 275.856 167.166 276.096 166.266 276.096C165.306 276.096 164.394 275.868 163.602 275.208C163.206 274.884 162.918 274.476 162.762 274.008L164.082 273.456C164.25 273.828 164.538 274.128 164.934 274.356C165.33 274.584 165.726 274.704 166.146 274.704C167.166 274.704 167.922 274.26 167.922 273.504C167.922 272.652 167.178 272.364 165.882 272.364H165.066V271.044H165.93C167.022 271.044 167.754 270.564 167.754 269.904C167.754 269.58 167.598 269.316 167.286 269.136C166.974 268.956 166.578 268.86 166.086 268.86C165.594 268.86 165.21 268.956 164.91 269.148C164.61 269.34 164.37 269.628 164.166 270Z" fill="#1A3341"/>
<path d="M64.2892 237H62.8852V235.404H58.1332V234.468L63.0892 228.6H64.2892V234.12H65.7172V235.404H64.2892V237ZM62.8852 230.892L60.0532 234.12H62.8852V230.892ZM65.9928 236.124C65.9928 235.68 66.4008 235.248 66.9648 235.248C67.4928 235.248 67.9248 235.692 67.9248 236.124C67.9248 236.604 67.5048 237.024 66.9648 237.024C66.3888 237.024 65.9928 236.604 65.9928 236.124ZM74.3566 237H72.9526V235.404H68.2006V234.468L73.1566 228.6H74.3566V234.12H75.7846V235.404H74.3566V237ZM72.9526 230.892L70.1206 234.12H72.9526V230.892Z" fill="#1A3341"/>
<path d="M58.8998 13.264L57.6398 12.76C58.0598 11.32 59.3438 10.516 60.9878 10.516C62.8958 10.516 64.0118 11.512 64.0118 13C64.0118 14.092 63.5438 14.98 62.7158 15.748C62.2958 16.144 61.7198 16.588 60.9878 17.104L60.0278 17.656H64.2758V19H57.7598V17.932L59.6558 16.552C59.7158 16.504 59.8838 16.372 60.1838 16.144C60.4838 15.916 60.6758 15.76 60.7718 15.676C60.8678 15.592 61.0358 15.448 61.2878 15.244C61.5278 15.04 61.6958 14.872 61.8038 14.74C61.9958 14.5 62.3438 14.08 62.4518 13.744C62.4998 13.576 62.5238 13.408 62.5238 13.228C62.5238 12.412 61.9358 11.908 60.9638 11.908C59.9198 11.908 59.2358 12.484 58.8998 13.264ZM65.8378 13.264L64.5778 12.76C64.9978 11.32 66.2818 10.516 67.9258 10.516C69.8338 10.516 70.9498 11.512 70.9498 13C70.9498 14.092 70.4818 14.98 69.6538 15.748C69.2338 16.144 68.6578 16.588 67.9258 17.104L66.9658 17.656H71.2138V19H64.6978V17.932L66.5938 16.552C66.6538 16.504 66.8218 16.372 67.1218 16.144C67.4218 15.916 67.6138 15.76 67.7098 15.676C67.8058 15.592 67.9738 15.448 68.2258 15.244C68.4658 15.04 68.6338 14.872 68.7418 14.74C68.9338 14.5 69.2818 14.08 69.3898 13.744C69.4378 13.576 69.4618 13.408 69.4618 13.228C69.4618 12.412 68.8738 11.908 67.9018 11.908C66.8578 11.908 66.1738 12.484 65.8378 13.264ZM71.6958 18.124C71.6958 17.68 72.1038 17.248 72.6678 17.248C73.1958 17.248 73.6278 17.692 73.6278 18.124C73.6278 18.604 73.2078 19.024 72.6678 19.024C72.0918 19.024 71.6958 18.604 71.6958 18.124ZM75.3795 13L74.1435 12.448C74.5755 11.236 75.8475 10.492 77.4195 10.492C78.3075 10.492 79.0395 10.684 79.6035 11.068C80.1675 11.464 80.4555 11.968 80.4555 12.604C80.4555 13.552 79.9035 14.284 79.0995 14.524C79.9515 14.728 80.6355 15.34 80.6355 16.492C80.6355 17.272 80.3355 17.908 79.7355 18.376C79.1235 18.856 78.3795 19.096 77.4795 19.096C76.5195 19.096 75.6075 18.868 74.8155 18.208C74.4195 17.884 74.1315 17.476 73.9755 17.008L75.2955 16.456C75.4635 16.828 75.7515 17.128 76.1475 17.356C76.5435 17.584 76.9395 17.704 77.3595 17.704C78.3795 17.704 79.1355 17.26 79.1355 16.504C79.1355 15.652 78.3915 15.364 77.0955 15.364H76.2795V14.044H77.1435C78.2355 14.044 78.9675 13.564 78.9675 12.904C78.9675 12.58 78.8115 12.316 78.4995 12.136C78.1875 11.956 77.7915 11.86 77.2995 11.86C76.8075 11.86 76.4235 11.956 76.1235 12.148C75.8235 12.34 75.5835 12.628 75.3795 13Z" fill="#1A3341"/>
<path d="M127.565 111.816C130.744 111.816 133.187 112.36 134.893 113.448C136.6 114.515 137.453 116.072 137.453 118.12V118.568C137.453 120.701 136.547 122.376 134.733 123.592C132.941 124.787 130.477 125.384 127.341 125.384C125.123 125.384 123.192 125.064 121.549 124.424C119.928 123.784 118.68 122.867 117.805 121.672C116.952 120.477 116.525 119.069 116.525 117.448V112.136C116.525 109.469 117.464 107.389 119.341 105.896C121.24 104.381 123.864 103.624 127.213 103.624C129.219 103.624 130.968 103.891 132.461 104.424C133.955 104.957 135.096 105.725 135.885 106.728C136.696 107.709 137.101 108.872 137.101 110.216V110.472H133.933V110.216C133.933 109.085 133.336 108.2 132.141 107.56C130.947 106.92 129.304 106.6 127.213 106.6C124.781 106.6 122.915 107.069 121.613 108.008C120.333 108.947 119.693 110.301 119.693 112.072V114.056C121.549 112.563 124.173 111.816 127.565 111.816ZM134.285 118.248C134.285 115.923 132.035 114.76 127.533 114.76C125.677 114.76 124.067 114.984 122.701 115.432C121.336 115.859 120.333 116.477 119.693 117.288V117.48C119.693 119.016 120.365 120.221 121.709 121.096C123.053 121.971 124.941 122.408 127.373 122.408C129.549 122.408 131.245 122.088 132.461 121.448C133.677 120.808 134.285 119.891 134.285 118.696V118.248ZM151.217 111.4C154.375 111.4 156.85 111.987 158.642 113.16C160.455 114.333 161.361 115.955 161.361 118.024V118.536C161.361 120.712 160.476 122.397 158.705 123.592C156.935 124.787 154.439 125.384 151.217 125.384C147.975 125.384 145.468 124.883 143.697 123.88C141.948 122.877 141.073 121.448 141.073 119.592V119.336H144.273V119.592C144.273 120.467 144.881 121.16 146.097 121.672C147.314 122.163 148.988 122.408 151.122 122.408C153.319 122.408 155.047 122.067 156.306 121.384C157.564 120.701 158.194 119.763 158.194 118.568V118.056C158.194 116.904 157.554 115.997 156.274 115.336C155.015 114.675 153.266 114.344 151.026 114.344C149.063 114.344 147.452 114.6 146.194 115.112C144.935 115.603 144.273 116.253 144.209 117.064H141.073L141.777 104.008H160.017V106.856H144.593L144.273 113.032C145.916 111.944 148.231 111.4 151.217 111.4ZM167.177 125.384C166.601 125.384 166.131 125.203 165.769 124.84C165.406 124.477 165.225 124.019 165.225 123.464C165.225 122.909 165.406 122.451 165.769 122.088C166.131 121.725 166.601 121.544 167.177 121.544C167.753 121.544 168.222 121.725 168.585 122.088C168.947 122.451 169.129 122.909 169.129 123.464C169.129 124.019 168.947 124.477 168.585 124.84C168.222 125.203 167.753 125.384 167.177 125.384ZM183.966 111.816C187.145 111.816 189.588 112.36 191.294 113.448C193.001 114.515 193.854 116.072 193.854 118.12V118.568C193.854 120.701 192.948 122.376 191.134 123.592C189.342 124.787 186.878 125.384 183.742 125.384C181.524 125.384 179.593 125.064 177.95 124.424C176.329 123.784 175.081 122.867 174.206 121.672C173.353 120.477 172.926 119.069 172.926 117.448V112.136C172.926 109.469 173.865 107.389 175.742 105.896C177.641 104.381 180.265 103.624 183.614 103.624C185.62 103.624 187.369 103.891 188.862 104.424C190.356 104.957 191.497 105.725 192.286 106.728C193.097 107.709 193.502 108.872 193.502 110.216V110.472H190.334V110.216C190.334 109.085 189.737 108.2 188.542 107.56C187.348 106.92 185.705 106.6 183.614 106.6C181.182 106.6 179.316 107.069 178.014 108.008C176.734 108.947 176.094 110.301 176.094 112.072V114.056C177.95 112.563 180.574 111.816 183.966 111.816ZM190.686 118.248C190.686 115.923 188.436 114.76 183.934 114.76C182.078 114.76 180.468 114.984 179.102 115.432C177.737 115.859 176.734 116.477 176.094 117.288V117.48C176.094 119.016 176.766 120.221 178.11 121.096C179.454 121.971 181.342 122.408 183.774 122.408C185.95 122.408 187.646 122.088 188.862 121.448C190.078 120.808 190.686 119.891 190.686 118.696V118.248Z" fill="#1A3341"/>
<path d="M204.774 123.33L203.322 122.494L214.696 107.116L216.082 108.128L204.774 123.33ZM200.946 111.296C200.946 110.196 201.32 109.294 202.09 108.59C202.86 107.886 203.806 107.534 204.972 107.534C206.116 107.534 207.062 107.886 207.832 108.59C208.602 109.294 208.976 110.196 208.976 111.296C208.976 112.374 208.602 113.276 207.832 113.98C207.062 114.684 206.116 115.036 204.972 115.036C203.806 115.036 202.86 114.684 202.09 113.98C201.32 113.276 200.946 112.374 200.946 111.296ZM202.794 111.296C202.794 112.55 203.806 113.474 204.972 113.474C206.182 113.474 207.128 112.594 207.128 111.296C207.128 109.998 206.138 109.118 204.972 109.118C203.762 109.118 202.794 109.998 202.794 111.296ZM211.528 122.032C210.758 121.328 210.384 120.426 210.384 119.326C210.384 118.226 210.758 117.324 211.528 116.62C212.298 115.938 213.244 115.586 214.41 115.586C215.554 115.586 216.5 115.938 217.27 116.62C218.04 117.324 218.414 118.226 218.414 119.326C218.414 120.404 218.04 121.306 217.27 122.01C216.5 122.736 215.554 123.088 214.41 123.088C213.244 123.088 212.298 122.736 211.528 122.032ZM212.232 119.326C212.232 120.58 213.244 121.504 214.41 121.504C215.62 121.504 216.566 120.624 216.566 119.326C216.566 118.028 215.576 117.148 214.41 117.148C213.2 117.148 212.232 118.028 212.232 119.326Z" fill="#1A3341"/>
<path d="M90.196 140.341H100.843V141.16H90.196V140.341ZM90.612 149.857H100.466V150.689H90.612V149.857ZM92.757 142.031H98.23V142.759H92.757V142.031ZM92.757 143.669H98.23V144.41H92.757V143.669ZM89.598 145.333H101.415V146.165H89.598V145.333ZM92.315 147.673H98.698V148.479H92.315V147.673ZM92.185 139.08H93.16V145.801H92.185V139.08ZM97.892 139.093H98.88V145.801H97.892V139.093ZM94.98 146.581H95.968V150.312H94.98V146.581ZM92.874 145.567L93.68 145.866C93.42 146.317 93.095 146.746 92.705 147.153C92.3237 147.56 91.9077 147.933 91.457 148.271C91.015 148.6 90.5643 148.873 90.105 149.09C90.0617 149.012 90.001 148.93 89.923 148.843C89.845 148.748 89.767 148.657 89.689 148.57C89.611 148.475 89.5373 148.397 89.468 148.336C89.9013 148.163 90.3347 147.933 90.768 147.647C91.2013 147.361 91.6 147.036 91.964 146.672C92.328 146.308 92.6313 145.94 92.874 145.567ZM98.191 145.567C98.4163 145.931 98.7067 146.282 99.062 146.62C99.4173 146.958 99.8117 147.261 100.245 147.53C100.687 147.79 101.129 148.002 101.571 148.167C101.51 148.228 101.437 148.306 101.35 148.401C101.263 148.488 101.185 148.579 101.116 148.674C101.047 148.769 100.982 148.856 100.921 148.934C100.47 148.735 100.02 148.475 99.569 148.154C99.127 147.833 98.7197 147.478 98.347 147.088C97.983 146.689 97.671 146.278 97.411 145.853L98.191 145.567ZM102.663 139.769H107.096V140.666H102.663V139.769ZM103.924 143.773H106.797V149.402H103.924V148.531H105.965V144.657H103.924V143.773ZM104.327 140.211L105.237 140.406C105.081 141.221 104.89 142.018 104.665 142.798C104.448 143.578 104.188 144.31 103.885 144.995C103.582 145.671 103.226 146.269 102.819 146.789C102.802 146.702 102.767 146.594 102.715 146.464C102.663 146.334 102.607 146.2 102.546 146.061C102.485 145.922 102.429 145.814 102.377 145.736C102.871 145.069 103.274 144.254 103.586 143.292C103.907 142.321 104.154 141.294 104.327 140.211ZM103.508 143.773H104.34V150.442H103.508V143.773ZM107.798 140.315H108.682V143.643H112.829V140.315H113.752V144.527H107.798V140.315ZM110.32 139.158H111.282V149.909H110.32V139.158ZM113.154 145.45H114.09V150.91H113.154V145.45ZM107.486 145.45H108.474V149.272H113.7V150.221H107.486V145.45ZM116.586 139.912L117.223 139.314C117.457 139.505 117.7 139.717 117.951 139.951C118.211 140.185 118.454 140.419 118.679 140.653C118.904 140.878 119.082 141.082 119.212 141.264L118.549 141.953C118.419 141.762 118.241 141.55 118.016 141.316C117.799 141.082 117.565 140.844 117.314 140.601C117.063 140.35 116.82 140.12 116.586 139.912ZM117.275 150.78L117.093 149.896L117.34 149.506L119.784 147.725C119.819 147.855 119.871 148.002 119.94 148.167C120.018 148.323 120.083 148.449 120.135 148.544C119.563 148.969 119.095 149.315 118.731 149.584C118.376 149.844 118.103 150.048 117.912 150.195C117.721 150.351 117.578 150.468 117.483 150.546C117.396 150.633 117.327 150.711 117.275 150.78ZM115.559 143.162H117.873V144.098H115.559V143.162ZM121.656 139.548H125.049V140.458H121.656V139.548ZM119.992 144.826H126.063V145.736H119.992V144.826ZM125.751 144.826H125.933L126.115 144.787L126.713 145.047C126.444 145.896 126.08 146.65 125.621 147.309C125.17 147.968 124.642 148.54 124.035 149.025C123.437 149.51 122.787 149.918 122.085 150.247C121.392 150.576 120.664 150.841 119.901 151.04C119.866 150.919 119.801 150.771 119.706 150.598C119.611 150.433 119.52 150.299 119.433 150.195C120.135 150.03 120.815 149.801 121.474 149.506C122.133 149.211 122.744 148.852 123.307 148.427C123.87 147.994 124.36 147.491 124.776 146.919C125.201 146.347 125.526 145.701 125.751 144.982V144.826ZM121.305 145.515C121.652 146.304 122.12 147.014 122.709 147.647C123.298 148.28 124 148.813 124.815 149.246C125.63 149.679 126.531 150 127.519 150.208C127.45 150.277 127.376 150.364 127.298 150.468C127.22 150.572 127.146 150.676 127.077 150.78C127.008 150.884 126.956 150.984 126.921 151.079C125.387 150.706 124.078 150.069 122.995 149.168C121.912 148.267 121.075 147.144 120.486 145.801L121.305 145.515ZM121.383 139.548H122.306V141.017C122.306 141.416 122.245 141.832 122.124 142.265C122.003 142.698 121.777 143.11 121.448 143.5C121.119 143.89 120.642 144.237 120.018 144.54C119.975 144.471 119.914 144.393 119.836 144.306C119.758 144.211 119.676 144.12 119.589 144.033C119.511 143.938 119.442 143.864 119.381 143.812C119.953 143.552 120.382 143.266 120.668 142.954C120.954 142.633 121.145 142.308 121.24 141.979C121.335 141.641 121.383 141.312 121.383 140.991V139.548ZM124.607 139.548H125.53V142.564C125.53 142.755 125.543 142.885 125.569 142.954C125.595 143.023 125.66 143.058 125.764 143.058C125.816 143.058 125.903 143.058 126.024 143.058C126.145 143.058 126.267 143.058 126.388 143.058C126.518 143.058 126.609 143.058 126.661 143.058C126.756 143.058 126.86 143.054 126.973 143.045C127.094 143.028 127.194 143.01 127.272 142.993C127.281 143.114 127.294 143.257 127.311 143.422C127.328 143.587 127.346 143.725 127.363 143.838C127.285 143.864 127.181 143.881 127.051 143.89C126.93 143.899 126.804 143.903 126.674 143.903C126.613 143.903 126.514 143.903 126.375 143.903C126.236 143.903 126.102 143.903 125.972 143.903C125.842 143.903 125.751 143.903 125.699 143.903C125.396 143.903 125.166 143.86 125.01 143.773C124.854 143.686 124.746 143.543 124.685 143.344C124.633 143.145 124.607 142.88 124.607 142.551V139.548ZM117.275 150.78C117.249 150.702 117.206 150.611 117.145 150.507C117.084 150.403 117.015 150.299 116.937 150.195C116.868 150.091 116.803 150.009 116.742 149.948C116.829 149.896 116.92 149.814 117.015 149.701C117.119 149.588 117.206 149.454 117.275 149.298C117.353 149.142 117.392 148.964 117.392 148.765V143.162H118.341V149.61C118.341 149.61 118.285 149.653 118.172 149.74C118.068 149.818 117.947 149.918 117.808 150.039C117.669 150.169 117.544 150.299 117.431 150.429C117.327 150.568 117.275 150.685 117.275 150.78ZM134.955 140.9H140.402V141.797H134.955V140.9ZM136.827 142.291H137.672V148.843H136.827V142.291ZM135.28 139.067L136.216 139.262C135.999 140.172 135.705 141.034 135.332 141.849C134.959 142.655 134.539 143.335 134.071 143.89C134.019 143.838 133.95 143.773 133.863 143.695C133.776 143.608 133.685 143.522 133.59 143.435C133.495 143.348 133.408 143.283 133.33 143.24C133.781 142.737 134.171 142.118 134.5 141.381C134.829 140.644 135.089 139.873 135.28 139.067ZM133.564 145.892L139.271 143.201L139.622 144.007L133.915 146.685L133.564 145.892ZM134.682 143.305H135.566V149.532C135.566 149.783 135.614 149.948 135.709 150.026C135.813 150.104 136.047 150.143 136.411 150.143C136.489 150.143 136.645 150.143 136.879 150.143C137.113 150.143 137.369 150.143 137.646 150.143C137.923 150.143 138.183 150.143 138.426 150.143C138.677 150.143 138.859 150.143 138.972 150.143C139.163 150.143 139.306 150.104 139.401 150.026C139.505 149.948 139.574 149.801 139.609 149.584C139.652 149.367 139.683 149.051 139.7 148.635C139.813 148.713 139.947 148.787 140.103 148.856C140.268 148.917 140.411 148.96 140.532 148.986C140.497 149.497 140.432 149.896 140.337 150.182C140.242 150.477 140.09 150.685 139.882 150.806C139.683 150.927 139.397 150.988 139.024 150.988C138.963 150.988 138.842 150.988 138.66 150.988C138.478 150.988 138.266 150.988 138.023 150.988C137.789 150.988 137.555 150.988 137.321 150.988C137.087 150.988 136.879 150.988 136.697 150.988C136.524 150.988 136.407 150.988 136.346 150.988C135.913 150.988 135.575 150.945 135.332 150.858C135.089 150.78 134.92 150.633 134.825 150.416C134.73 150.208 134.682 149.909 134.682 149.519V143.305ZM139.05 143.422H138.933L139.154 143.227L139.323 143.097L139.947 143.344L139.895 143.487C139.895 143.955 139.891 144.401 139.882 144.826C139.882 145.251 139.878 145.641 139.869 145.996C139.869 146.343 139.865 146.637 139.856 146.88C139.847 147.114 139.834 147.274 139.817 147.361C139.8 147.569 139.739 147.729 139.635 147.842C139.531 147.955 139.397 148.033 139.232 148.076C139.093 148.111 138.929 148.137 138.738 148.154C138.556 148.163 138.391 148.163 138.244 148.154C138.235 148.033 138.214 147.903 138.179 147.764C138.144 147.617 138.101 147.491 138.049 147.387C138.17 147.396 138.296 147.4 138.426 147.4C138.565 147.4 138.664 147.4 138.725 147.4C138.794 147.4 138.851 147.387 138.894 147.361C138.946 147.335 138.981 147.27 138.998 147.166C139.007 147.105 139.015 146.971 139.024 146.763C139.033 146.546 139.037 146.273 139.037 145.944C139.037 145.606 139.037 145.225 139.037 144.8C139.046 144.367 139.05 143.907 139.05 143.422ZM128.572 141.199H133.733V142.122H128.572V141.199ZM130.444 143.903H132.732V144.813H130.444V143.903ZM129.989 141.719H130.925C130.908 142.629 130.877 143.526 130.834 144.41C130.791 145.294 130.713 146.143 130.6 146.958C130.487 147.773 130.314 148.527 130.08 149.22C129.855 149.913 129.551 150.52 129.17 151.04C129.083 150.927 128.966 150.806 128.819 150.676C128.68 150.555 128.55 150.459 128.429 150.39C128.776 149.922 129.049 149.367 129.248 148.726C129.456 148.076 129.612 147.374 129.716 146.62C129.82 145.857 129.889 145.06 129.924 144.228C129.959 143.396 129.98 142.56 129.989 141.719ZM132.407 143.903H133.304C133.304 143.903 133.304 143.933 133.304 143.994C133.304 144.046 133.304 144.107 133.304 144.176C133.304 144.245 133.304 144.302 133.304 144.345C133.278 145.42 133.252 146.325 133.226 147.062C133.2 147.799 133.17 148.405 133.135 148.882C133.1 149.35 133.053 149.714 132.992 149.974C132.94 150.234 132.871 150.42 132.784 150.533C132.68 150.68 132.567 150.78 132.446 150.832C132.333 150.884 132.19 150.923 132.017 150.949C131.87 150.966 131.67 150.975 131.419 150.975C131.168 150.975 130.908 150.966 130.639 150.949C130.63 150.819 130.604 150.667 130.561 150.494C130.518 150.329 130.461 150.186 130.392 150.065C130.652 150.091 130.89 150.104 131.107 150.104C131.332 150.113 131.497 150.117 131.601 150.117C131.774 150.126 131.904 150.069 131.991 149.948C132.069 149.853 132.134 149.606 132.186 149.207C132.238 148.808 132.281 148.202 132.316 147.387C132.351 146.572 132.381 145.476 132.407 144.098V143.903ZM130.47 139.34L131.315 139.106C131.48 139.392 131.631 139.708 131.77 140.055C131.909 140.402 132.013 140.696 132.082 140.939L131.198 141.225C131.137 140.974 131.038 140.67 130.899 140.315C130.76 139.96 130.617 139.635 130.47 139.34ZM145.485 141.966H153.402V142.954H145.485V141.966ZM150.763 139.236H151.764V149.701C151.764 150.074 151.708 150.347 151.595 150.52C151.482 150.693 151.305 150.819 151.062 150.897C150.811 150.975 150.455 151.023 149.996 151.04C149.537 151.057 148.956 151.062 148.254 151.053C148.237 150.966 148.206 150.862 148.163 150.741C148.12 150.628 148.072 150.511 148.02 150.39C147.968 150.277 147.916 150.173 147.864 150.078C148.228 150.095 148.579 150.104 148.917 150.104C149.264 150.113 149.563 150.113 149.814 150.104C150.065 150.104 150.239 150.104 150.334 150.104C150.49 150.095 150.598 150.061 150.659 150C150.728 149.948 150.763 149.848 150.763 149.701V139.236ZM146.304 144.722L147.149 144.319C147.374 144.657 147.608 145.021 147.851 145.411C148.102 145.801 148.341 146.178 148.566 146.542C148.791 146.906 148.973 147.222 149.112 147.491L148.202 147.985C148.072 147.708 147.899 147.383 147.682 147.01C147.474 146.637 147.249 146.252 147.006 145.853C146.763 145.446 146.529 145.069 146.304 144.722ZM143.418 142.616L144.393 141.641V141.654V151.014H143.418V142.616ZM144.835 139.158L145.784 139.457C145.489 140.211 145.147 140.952 144.757 141.68C144.367 142.408 143.947 143.093 143.496 143.734C143.045 144.367 142.577 144.93 142.092 145.424C142.057 145.346 142.001 145.246 141.923 145.125C141.854 144.995 141.78 144.869 141.702 144.748C141.624 144.627 141.55 144.527 141.481 144.449C141.932 144.024 142.365 143.53 142.781 142.967C143.197 142.404 143.578 141.797 143.925 141.147C144.28 140.497 144.584 139.834 144.835 139.158ZM162.801 143.292H163.724V143.916C163.724 144.41 163.698 144.956 163.646 145.554C163.594 146.143 163.481 146.754 163.308 147.387C163.135 148.02 162.866 148.648 162.502 149.272C162.147 149.896 161.661 150.49 161.046 151.053C160.985 150.984 160.912 150.906 160.825 150.819C160.738 150.741 160.647 150.663 160.552 150.585C160.457 150.516 160.37 150.455 160.292 150.403C160.873 149.883 161.332 149.337 161.67 148.765C162.008 148.193 162.255 147.621 162.411 147.049C162.576 146.477 162.68 145.922 162.723 145.385C162.775 144.839 162.801 144.345 162.801 143.903V143.292ZM163.633 144.891C163.789 145.671 163.993 146.416 164.244 147.127C164.504 147.829 164.829 148.449 165.219 148.986C165.618 149.515 166.086 149.926 166.623 150.221C166.554 150.282 166.476 150.36 166.389 150.455C166.302 150.55 166.22 150.646 166.142 150.741C166.073 150.845 166.008 150.94 165.947 151.027C165.384 150.672 164.898 150.195 164.491 149.597C164.084 148.999 163.75 148.314 163.49 147.543C163.23 146.763 163.018 145.927 162.853 145.034L163.633 144.891ZM154.663 140.315H160.669V141.147H154.663V140.315ZM154.507 145.879H160.799V146.711H154.507V145.879ZM154.962 142.265H160.409V143.084H154.962V142.265ZM155.105 144.059H160.253V144.878H155.105V144.059ZM157.224 146.204H158.134V150.013C158.134 150.247 158.108 150.429 158.056 150.559C158.004 150.689 157.896 150.793 157.731 150.871C157.575 150.94 157.371 150.979 157.12 150.988C156.877 151.005 156.57 151.014 156.197 151.014C156.18 150.893 156.141 150.75 156.08 150.585C156.028 150.429 155.972 150.29 155.911 150.169C156.171 150.178 156.405 150.182 156.613 150.182C156.821 150.182 156.96 150.178 157.029 150.169C157.159 150.169 157.224 150.113 157.224 150V146.204ZM157.211 139.119H158.134V142.785H157.211V139.119ZM155.612 147.153L156.431 147.361C156.266 147.838 156.071 148.332 155.846 148.843C155.621 149.346 155.404 149.783 155.196 150.156C155.109 150.095 154.984 150.026 154.819 149.948C154.663 149.87 154.529 149.814 154.416 149.779C154.641 149.424 154.858 149.012 155.066 148.544C155.283 148.067 155.465 147.604 155.612 147.153ZM158.888 147.452L159.629 147.153C159.75 147.37 159.876 147.604 160.006 147.855C160.136 148.098 160.257 148.336 160.37 148.57C160.483 148.804 160.569 149.012 160.63 149.194L159.85 149.558C159.789 149.376 159.703 149.168 159.59 148.934C159.486 148.691 159.373 148.44 159.252 148.18C159.139 147.911 159.018 147.669 158.888 147.452ZM161.735 141.433H165.674V142.33H161.735V141.433ZM161.8 139.08L162.749 139.223C162.645 139.968 162.511 140.696 162.346 141.407C162.181 142.118 161.991 142.781 161.774 143.396C161.557 144.011 161.306 144.553 161.02 145.021C160.959 144.969 160.881 144.908 160.786 144.839C160.691 144.761 160.587 144.692 160.474 144.631C160.37 144.562 160.279 144.501 160.201 144.449C160.487 144.024 160.734 143.526 160.942 142.954C161.15 142.382 161.323 141.767 161.462 141.108C161.601 140.449 161.713 139.773 161.8 139.08ZM165.414 141.433H165.557L165.726 141.394L166.376 141.589C166.298 141.979 166.203 142.382 166.09 142.798C165.986 143.214 165.873 143.613 165.752 143.994C165.639 144.367 165.527 144.696 165.414 144.982L164.608 144.748C164.712 144.479 164.816 144.167 164.92 143.812C165.024 143.448 165.115 143.075 165.193 142.694C165.28 142.313 165.353 141.953 165.414 141.615V141.433ZM176.035 145.06C176.035 144.211 176.139 143.418 176.347 142.681C176.564 141.944 176.867 141.26 177.257 140.627C177.647 139.986 178.102 139.401 178.622 138.872L179.402 139.275C178.908 139.786 178.479 140.345 178.115 140.952C177.751 141.55 177.469 142.191 177.27 142.876C177.079 143.552 176.984 144.28 176.984 145.06C176.984 145.831 177.079 146.559 177.27 147.244C177.469 147.929 177.751 148.57 178.115 149.168C178.479 149.766 178.908 150.325 179.402 150.845L178.622 151.248C178.102 150.711 177.647 150.126 177.257 149.493C176.867 148.86 176.564 148.176 176.347 147.439C176.139 146.694 176.035 145.901 176.035 145.06ZM182.392 139.106L183.276 139.366C183.103 139.843 182.895 140.315 182.652 140.783C182.409 141.251 182.141 141.689 181.846 142.096C181.551 142.503 181.244 142.859 180.923 143.162C180.897 143.093 180.854 143.002 180.793 142.889C180.732 142.776 180.667 142.659 180.598 142.538C180.529 142.417 180.468 142.321 180.416 142.252C180.823 141.871 181.2 141.403 181.547 140.848C181.902 140.293 182.184 139.713 182.392 139.106ZM182.028 140.536H185.59V141.472H181.846L182.028 140.536ZM182.613 150.975L182.496 150.104L182.834 149.727L185.421 148.414C185.438 148.544 185.469 148.691 185.512 148.856C185.555 149.012 185.59 149.142 185.616 149.246C185.018 149.567 184.528 149.827 184.147 150.026C183.774 150.234 183.484 150.394 183.276 150.507C183.077 150.628 182.929 150.724 182.834 150.793C182.739 150.862 182.665 150.923 182.613 150.975ZM181.417 142.889H185.252V143.773H181.417V142.889ZM180.767 145.528H185.577V146.425H180.767V145.528ZM185.811 144.891H192.389V145.827H185.811V144.891ZM186.903 141.42H192.077V142.317H186.63L186.903 141.42ZM186.682 139.6L187.605 139.743C187.484 140.584 187.315 141.394 187.098 142.174C186.881 142.945 186.617 143.608 186.305 144.163C186.244 144.111 186.162 144.055 186.058 143.994C185.963 143.933 185.863 143.873 185.759 143.812C185.664 143.751 185.577 143.708 185.499 143.682C185.802 143.171 186.049 142.555 186.24 141.836C186.439 141.117 186.587 140.371 186.682 139.6ZM188.606 139.145H189.568V143.136C189.568 143.63 189.546 144.154 189.503 144.709C189.468 145.255 189.386 145.81 189.256 146.373C189.135 146.928 188.944 147.482 188.684 148.037C188.424 148.583 188.073 149.112 187.631 149.623C187.198 150.126 186.652 150.594 185.993 151.027C185.95 150.958 185.885 150.875 185.798 150.78C185.72 150.693 185.633 150.607 185.538 150.52C185.451 150.442 185.369 150.373 185.291 150.312C185.932 149.931 186.461 149.51 186.877 149.051C187.293 148.583 187.618 148.098 187.852 147.595C188.086 147.092 188.255 146.585 188.359 146.074C188.472 145.554 188.541 145.047 188.567 144.553C188.593 144.05 188.606 143.578 188.606 143.136V139.145ZM189.529 145.281C189.676 146.009 189.884 146.694 190.153 147.335C190.422 147.976 190.755 148.544 191.154 149.038C191.553 149.523 192.016 149.905 192.545 150.182C192.476 150.243 192.398 150.321 192.311 150.416C192.224 150.511 192.142 150.607 192.064 150.702C191.995 150.806 191.934 150.901 191.882 150.988C191.033 150.494 190.352 149.762 189.841 148.791C189.33 147.812 188.948 146.702 188.697 145.463L189.529 145.281ZM182.613 150.975C182.587 150.888 182.548 150.789 182.496 150.676C182.444 150.572 182.383 150.468 182.314 150.364C182.253 150.26 182.193 150.173 182.132 150.104C182.253 150.035 182.383 149.922 182.522 149.766C182.669 149.601 182.743 149.385 182.743 149.116V143.149H183.679V149.987C183.679 149.987 183.64 150.009 183.562 150.052C183.493 150.095 183.406 150.152 183.302 150.221C183.198 150.299 183.094 150.381 182.99 150.468C182.886 150.555 182.795 150.641 182.717 150.728C182.648 150.823 182.613 150.906 182.613 150.975ZM199.89 149.675H204.18V150.533H199.89V149.675ZM200.527 140.406H203.959V141.264H200.527V140.406ZM199.513 146.321H204.622V150.975H203.699V147.166H200.423V151.014H199.513V146.321ZM203.608 140.406H203.79L203.972 140.367L204.583 140.64C204.34 141.437 204.015 142.17 203.608 142.837C203.201 143.496 202.737 144.094 202.217 144.631C201.697 145.16 201.138 145.623 200.54 146.022C199.951 146.421 199.348 146.754 198.733 147.023C198.672 146.91 198.586 146.78 198.473 146.633C198.369 146.477 198.265 146.356 198.161 146.269C198.742 146.052 199.309 145.762 199.864 145.398C200.419 145.034 200.943 144.609 201.437 144.124C201.931 143.63 202.364 143.088 202.737 142.499C203.11 141.901 203.4 141.26 203.608 140.575V140.406ZM200.761 139.067L201.684 139.301C201.493 139.882 201.259 140.449 200.982 141.004C200.713 141.559 200.414 142.074 200.085 142.551C199.764 143.019 199.426 143.435 199.071 143.799C199.019 143.738 198.945 143.669 198.85 143.591C198.755 143.513 198.655 143.435 198.551 143.357C198.456 143.27 198.373 143.205 198.304 143.162C198.841 142.685 199.322 142.087 199.747 141.368C200.172 140.64 200.51 139.873 200.761 139.067ZM200.501 140.952C200.683 141.42 200.93 141.901 201.242 142.395C201.563 142.88 201.935 143.357 202.36 143.825C202.793 144.284 203.283 144.709 203.829 145.099C204.384 145.48 204.99 145.797 205.649 146.048C205.588 146.109 205.519 146.187 205.441 146.282C205.363 146.377 205.289 146.477 205.22 146.581C205.151 146.685 205.09 146.78 205.038 146.867C204.371 146.572 203.76 146.217 203.205 145.801C202.659 145.385 202.174 144.934 201.749 144.449C201.324 143.955 200.952 143.457 200.631 142.954C200.319 142.443 200.063 141.953 199.864 141.485L200.501 140.952ZM194.157 144.852H194.989V149.558H194.157V144.852ZM195.028 140.484V142.772H197.485V140.484H195.028ZM194.157 139.626H198.382V143.63H194.157V139.626ZM196.003 143.201H196.887V149.142H196.003V143.201ZM193.494 149.454C193.919 149.376 194.408 149.276 194.963 149.155C195.518 149.025 196.107 148.886 196.731 148.739C197.355 148.592 197.979 148.444 198.603 148.297L198.694 149.168C197.801 149.393 196.913 149.614 196.029 149.831C195.145 150.048 194.356 150.238 193.663 150.403L193.494 149.454ZM196.315 145.502H198.512V146.373H196.315V145.502ZM207.677 141.849H217.453V142.824H207.677V141.849ZM206.884 145.138H218.155V146.1H206.884V145.138ZM213.046 145.45C213.349 146.204 213.757 146.884 214.268 147.491C214.779 148.098 215.39 148.618 216.101 149.051C216.812 149.476 217.605 149.796 218.48 150.013C218.411 150.091 218.328 150.182 218.233 150.286C218.146 150.399 218.064 150.511 217.986 150.624C217.908 150.745 217.843 150.858 217.791 150.962C216.881 150.685 216.066 150.303 215.347 149.818C214.628 149.324 214.004 148.73 213.475 148.037C212.946 147.344 212.509 146.564 212.162 145.697L213.046 145.45ZM215.243 139.132L216.296 139.483C216.114 139.821 215.919 140.168 215.711 140.523C215.503 140.878 215.291 141.221 215.074 141.55C214.866 141.871 214.667 142.157 214.476 142.408L213.657 142.07C213.839 141.81 214.03 141.511 214.229 141.173C214.428 140.826 214.615 140.475 214.788 140.12C214.97 139.756 215.122 139.427 215.243 139.132ZM208.912 139.613L209.731 139.197C210.008 139.526 210.273 139.899 210.524 140.315C210.784 140.722 210.975 141.078 211.096 141.381L210.212 141.862C210.143 141.654 210.039 141.42 209.9 141.16C209.761 140.9 209.605 140.636 209.432 140.367C209.267 140.09 209.094 139.838 208.912 139.613ZM211.993 142.2H213.098V144.423C213.098 144.848 213.063 145.294 212.994 145.762C212.925 146.221 212.782 146.685 212.565 147.153C212.348 147.612 212.028 148.072 211.603 148.531C211.187 148.99 210.628 149.432 209.926 149.857C209.233 150.273 208.366 150.663 207.326 151.027C207.291 150.949 207.235 150.858 207.157 150.754C207.079 150.65 206.992 150.542 206.897 150.429C206.81 150.325 206.719 150.238 206.624 150.169C207.621 149.831 208.444 149.476 209.094 149.103C209.744 148.73 210.264 148.345 210.654 147.946C211.044 147.539 211.334 147.136 211.525 146.737C211.716 146.33 211.841 145.931 211.902 145.541C211.963 145.142 211.993 144.765 211.993 144.41V142.2ZM225.318 139.47L226.124 139.119C226.375 139.466 226.609 139.847 226.826 140.263C227.051 140.67 227.212 141.026 227.307 141.329L226.436 141.732C226.349 141.429 226.198 141.065 225.981 140.64C225.773 140.207 225.552 139.817 225.318 139.47ZM229.478 139.08L230.466 139.418C230.258 139.895 230.033 140.384 229.79 140.887C229.547 141.39 229.322 141.819 229.114 142.174L228.295 141.862C228.434 141.619 228.577 141.338 228.724 141.017C228.871 140.688 229.01 140.354 229.14 140.016C229.279 139.678 229.391 139.366 229.478 139.08ZM225.76 142.551V144.943H229.842V142.551H225.76ZM224.824 141.68H230.804V145.827H224.824V141.68ZM221.756 140.081H222.718V151.04H221.756V140.081ZM219.624 142.811H224.447V143.721H219.624V142.811ZM221.782 143.149L222.406 143.409C222.276 143.86 222.116 144.336 221.925 144.839C221.743 145.333 221.539 145.823 221.314 146.308C221.089 146.785 220.855 147.235 220.612 147.66C220.369 148.076 220.127 148.431 219.884 148.726C219.823 148.596 219.741 148.444 219.637 148.271C219.533 148.089 219.442 147.937 219.364 147.816C219.676 147.469 219.988 147.036 220.3 146.516C220.612 145.987 220.898 145.428 221.158 144.839C221.418 144.241 221.626 143.678 221.782 143.149ZM223.732 139.184L224.317 139.964C223.936 140.111 223.498 140.254 223.004 140.393C222.51 140.523 222.003 140.636 221.483 140.731C220.963 140.826 220.46 140.909 219.975 140.978C219.958 140.874 219.919 140.748 219.858 140.601C219.797 140.454 219.741 140.328 219.689 140.224C220.166 140.137 220.651 140.042 221.145 139.938C221.648 139.834 222.124 139.717 222.575 139.587C223.026 139.457 223.411 139.323 223.732 139.184ZM222.692 144.02C222.77 144.098 222.891 144.224 223.056 144.397C223.229 144.562 223.416 144.744 223.615 144.943C223.814 145.142 223.992 145.329 224.148 145.502C224.313 145.675 224.43 145.801 224.499 145.879L223.927 146.659C223.858 146.529 223.749 146.36 223.602 146.152C223.455 145.944 223.294 145.732 223.121 145.515C222.956 145.29 222.796 145.077 222.64 144.878C222.484 144.679 222.354 144.523 222.25 144.41L222.692 144.02ZM226.241 145.645H227.19C227.138 146.252 227.056 146.828 226.943 147.374C226.839 147.911 226.674 148.414 226.449 148.882C226.232 149.341 225.938 149.753 225.565 150.117C225.192 150.49 224.716 150.81 224.135 151.079C224.092 151.001 224.035 150.914 223.966 150.819C223.905 150.724 223.836 150.628 223.758 150.533C223.68 150.446 223.602 150.377 223.524 150.325C224.061 150.1 224.495 149.831 224.824 149.519C225.162 149.198 225.426 148.839 225.617 148.44C225.808 148.033 225.946 147.595 226.033 147.127C226.128 146.659 226.198 146.165 226.241 145.645ZM228.256 145.541H229.166V149.623C229.166 149.788 229.183 149.892 229.218 149.935C229.261 149.978 229.352 150 229.491 150C229.534 150 229.617 150 229.738 150C229.859 150 229.985 150 230.115 150C230.245 150 230.336 150 230.388 150C230.483 150 230.553 149.961 230.596 149.883C230.648 149.805 230.683 149.653 230.7 149.428C230.726 149.194 230.743 148.839 230.752 148.362C230.813 148.414 230.891 148.466 230.986 148.518C231.081 148.561 231.181 148.605 231.285 148.648C231.398 148.683 231.493 148.713 231.571 148.739C231.554 149.294 231.506 149.727 231.428 150.039C231.359 150.351 231.25 150.563 231.103 150.676C230.956 150.797 230.748 150.858 230.479 150.858C230.436 150.858 230.358 150.858 230.245 150.858C230.141 150.858 230.028 150.858 229.907 150.858C229.794 150.858 229.686 150.858 229.582 150.858C229.478 150.858 229.404 150.858 229.361 150.858C229.066 150.858 228.837 150.823 228.672 150.754C228.516 150.685 228.408 150.559 228.347 150.377C228.286 150.195 228.256 149.944 228.256 149.623V145.541ZM235.965 145.06C235.965 145.901 235.857 146.694 235.64 147.439C235.432 148.176 235.133 148.86 234.743 149.493C234.353 150.126 233.898 150.711 233.378 151.248L232.598 150.845C233.092 150.325 233.521 149.766 233.885 149.168C234.249 148.57 234.526 147.929 234.717 147.244C234.916 146.559 235.016 145.831 235.016 145.06C235.016 144.28 234.916 143.552 234.717 142.876C234.526 142.191 234.249 141.55 233.885 140.952C233.521 140.345 233.092 139.786 232.598 139.275L233.378 138.872C233.898 139.401 234.353 139.986 234.743 140.627C235.133 141.26 235.432 141.944 235.64 142.681C235.857 143.418 235.965 144.211 235.965 145.06Z" fill="#3C525E"/>
<path d="M353.104 100.084H362.932V100.84H353.104V100.084ZM353.488 108.868H362.584V109.636H353.488V108.868ZM355.468 101.644H360.52V102.316H355.468V101.644ZM355.468 103.156H360.52V103.84H355.468V103.156ZM352.552 104.692H363.46V105.46H352.552V104.692ZM355.06 106.852H360.952V107.596H355.06V106.852ZM354.94 98.92H355.84V105.124H354.94V98.92ZM360.208 98.932H361.12V105.124H360.208V98.932ZM357.52 105.844H358.432V109.288H357.52V105.844ZM355.576 104.908L356.32 105.184C356.08 105.6 355.78 105.996 355.42 106.372C355.068 106.748 354.684 107.092 354.268 107.404C353.86 107.708 353.444 107.96 353.02 108.16C352.98 108.088 352.924 108.012 352.852 107.932C352.78 107.844 352.708 107.76 352.636 107.68C352.564 107.592 352.496 107.52 352.432 107.464C352.832 107.304 353.232 107.092 353.632 106.828C354.032 106.564 354.4 106.264 354.736 105.928C355.072 105.592 355.352 105.252 355.576 104.908ZM360.484 104.908C360.692 105.244 360.96 105.568 361.288 105.88C361.616 106.192 361.98 106.472 362.38 106.72C362.788 106.96 363.196 107.156 363.604 107.308C363.548 107.364 363.48 107.436 363.4 107.524C363.32 107.604 363.248 107.688 363.184 107.776C363.12 107.864 363.06 107.944 363.004 108.016C362.588 107.832 362.172 107.592 361.756 107.296C361.348 107 360.972 106.672 360.628 106.312C360.292 105.944 360.004 105.564 359.764 105.172L360.484 104.908ZM364.612 99.556H368.704V100.384H364.612V99.556ZM365.776 103.252H368.428V108.448H365.776V107.644H367.66V104.068H365.776V103.252ZM366.148 99.964L366.988 100.144C366.844 100.896 366.668 101.632 366.46 102.352C366.26 103.072 366.02 103.748 365.74 104.38C365.46 105.004 365.132 105.556 364.756 106.036C364.74 105.956 364.708 105.856 364.66 105.736C364.612 105.616 364.56 105.492 364.504 105.364C364.448 105.236 364.396 105.136 364.348 105.064C364.804 104.448 365.176 103.696 365.464 102.808C365.76 101.912 365.988 100.964 366.148 99.964ZM365.392 103.252H366.16V109.408H365.392V103.252ZM369.352 100.06H370.168V103.132H373.996V100.06H374.848V103.948H369.352V100.06ZM371.68 98.992H372.568V108.916H371.68V98.992ZM374.296 104.8H375.16V109.84H374.296V104.8ZM369.064 104.8H369.976V108.328H374.8V109.204H369.064V104.8ZM377.464 99.688L378.052 99.136C378.268 99.312 378.492 99.508 378.724 99.724C378.964 99.94 379.188 100.156 379.396 100.372C379.604 100.58 379.768 100.768 379.888 100.936L379.276 101.572C379.156 101.396 378.992 101.2 378.784 100.984C378.584 100.768 378.368 100.548 378.136 100.324C377.904 100.092 377.68 99.88 377.464 99.688ZM378.1 109.72L377.932 108.904L378.16 108.544L380.416 106.9C380.448 107.02 380.496 107.156 380.56 107.308C380.632 107.452 380.692 107.568 380.74 107.656C380.212 108.048 379.78 108.368 379.444 108.616C379.116 108.856 378.864 109.044 378.688 109.18C378.512 109.324 378.38 109.432 378.292 109.504C378.212 109.584 378.148 109.656 378.1 109.72ZM376.516 102.688H378.652V103.552H376.516V102.688ZM382.144 99.352H385.276V100.192H382.144V99.352ZM380.608 104.224H386.212V105.064H380.608V104.224ZM385.924 104.224H386.092L386.26 104.188L386.812 104.428C386.564 105.212 386.228 105.908 385.804 106.516C385.388 107.124 384.9 107.652 384.34 108.1C383.788 108.548 383.188 108.924 382.54 109.228C381.9 109.532 381.228 109.776 380.524 109.96C380.492 109.848 380.432 109.712 380.344 109.552C380.256 109.4 380.172 109.276 380.092 109.18C380.74 109.028 381.368 108.816 381.976 108.544C382.584 108.272 383.148 107.94 383.668 107.548C384.188 107.148 384.64 106.684 385.024 106.156C385.416 105.628 385.716 105.032 385.924 104.368V104.224ZM381.82 104.86C382.14 105.588 382.572 106.244 383.116 106.828C383.66 107.412 384.308 107.904 385.06 108.304C385.812 108.704 386.644 109 387.556 109.192C387.492 109.256 387.424 109.336 387.352 109.432C387.28 109.528 387.212 109.624 387.148 109.72C387.084 109.816 387.036 109.908 387.004 109.996C385.588 109.652 384.38 109.064 383.38 108.232C382.38 107.4 381.608 106.364 381.064 105.124L381.82 104.86ZM381.892 99.352H382.744V100.708C382.744 101.076 382.688 101.46 382.576 101.86C382.464 102.26 382.256 102.64 381.952 103C381.648 103.36 381.208 103.68 380.632 103.96C380.592 103.896 380.536 103.824 380.464 103.744C380.392 103.656 380.316 103.572 380.236 103.492C380.164 103.404 380.1 103.336 380.044 103.288C380.572 103.048 380.968 102.784 381.232 102.496C381.496 102.2 381.672 101.9 381.76 101.596C381.848 101.284 381.892 100.98 381.892 100.684V99.352ZM384.868 99.352H385.72V102.136C385.72 102.312 385.732 102.432 385.756 102.496C385.78 102.56 385.84 102.592 385.936 102.592C385.984 102.592 386.064 102.592 386.176 102.592C386.288 102.592 386.4 102.592 386.512 102.592C386.632 102.592 386.716 102.592 386.764 102.592C386.852 102.592 386.948 102.588 387.052 102.58C387.164 102.564 387.256 102.548 387.328 102.532C387.336 102.644 387.348 102.776 387.364 102.928C387.38 103.08 387.396 103.208 387.412 103.312C387.34 103.336 387.244 103.352 387.124 103.36C387.012 103.368 386.896 103.372 386.776 103.372C386.72 103.372 386.628 103.372 386.5 103.372C386.372 103.372 386.248 103.372 386.128 103.372C386.008 103.372 385.924 103.372 385.876 103.372C385.596 103.372 385.384 103.332 385.24 103.252C385.096 103.172 384.996 103.04 384.94 102.856C384.892 102.672 384.868 102.428 384.868 102.124V99.352ZM378.1 109.72C378.076 109.648 378.036 109.564 377.98 109.468C377.924 109.372 377.86 109.276 377.788 109.18C377.724 109.084 377.664 109.008 377.608 108.952C377.688 108.904 377.772 108.828 377.86 108.724C377.956 108.62 378.036 108.496 378.1 108.352C378.172 108.208 378.208 108.044 378.208 107.86V102.688H379.084V108.64C379.084 108.64 379.032 108.68 378.928 108.76C378.832 108.832 378.72 108.924 378.592 109.036C378.464 109.156 378.348 109.276 378.244 109.396C378.148 109.524 378.1 109.632 378.1 109.72ZM394.42 100.6H399.448V101.428H394.42V100.6ZM396.148 101.884H396.928V107.932H396.148V101.884ZM394.72 98.908L395.584 99.088C395.384 99.928 395.112 100.724 394.768 101.476C394.424 102.22 394.036 102.848 393.604 103.36C393.556 103.312 393.492 103.252 393.412 103.18C393.332 103.1 393.248 103.02 393.16 102.94C393.072 102.86 392.992 102.8 392.92 102.76C393.336 102.296 393.696 101.724 394 101.044C394.304 100.364 394.544 99.652 394.72 98.908ZM393.136 105.208L398.404 102.724L398.728 103.468L393.46 105.94L393.136 105.208ZM394.168 102.82H394.984V108.568C394.984 108.8 395.028 108.952 395.116 109.024C395.212 109.096 395.428 109.132 395.764 109.132C395.836 109.132 395.98 109.132 396.196 109.132C396.412 109.132 396.648 109.132 396.904 109.132C397.16 109.132 397.4 109.132 397.624 109.132C397.856 109.132 398.024 109.132 398.128 109.132C398.304 109.132 398.436 109.096 398.524 109.024C398.62 108.952 398.684 108.816 398.716 108.616C398.756 108.416 398.784 108.124 398.8 107.74C398.904 107.812 399.028 107.88 399.172 107.944C399.324 108 399.456 108.04 399.568 108.064C399.536 108.536 399.476 108.904 399.388 109.168C399.3 109.44 399.16 109.632 398.968 109.744C398.784 109.856 398.52 109.912 398.176 109.912C398.12 109.912 398.008 109.912 397.84 109.912C397.672 109.912 397.476 109.912 397.252 109.912C397.036 109.912 396.82 109.912 396.604 109.912C396.388 109.912 396.196 109.912 396.028 109.912C395.868 109.912 395.76 109.912 395.704 109.912C395.304 109.912 394.992 109.872 394.768 109.792C394.544 109.72 394.388 109.584 394.3 109.384C394.212 109.192 394.168 108.916 394.168 108.556V102.82ZM398.2 102.928H398.092L398.296 102.748L398.452 102.628L399.028 102.856L398.98 102.988C398.98 103.42 398.976 103.832 398.968 104.224C398.968 104.616 398.964 104.976 398.956 105.304C398.956 105.624 398.952 105.896 398.944 106.12C398.936 106.336 398.924 106.484 398.908 106.564C398.892 106.756 398.836 106.904 398.74 107.008C398.644 107.112 398.52 107.184 398.368 107.224C398.24 107.256 398.088 107.28 397.912 107.296C397.744 107.304 397.592 107.304 397.456 107.296C397.448 107.184 397.428 107.064 397.396 106.936C397.364 106.8 397.324 106.684 397.276 106.588C397.388 106.596 397.504 106.6 397.624 106.6C397.752 106.6 397.844 106.6 397.9 106.6C397.964 106.6 398.016 106.588 398.056 106.564C398.104 106.54 398.136 106.48 398.152 106.384C398.16 106.328 398.168 106.204 398.176 106.012C398.184 105.812 398.188 105.56 398.188 105.256C398.188 104.944 398.188 104.592 398.188 104.2C398.196 103.8 398.2 103.376 398.2 102.928ZM388.528 100.876H393.292V101.728H388.528V100.876ZM390.256 103.372H392.368V104.212H390.256V103.372ZM389.836 101.356H390.7C390.684 102.196 390.656 103.024 390.616 103.84C390.576 104.656 390.504 105.44 390.4 106.192C390.296 106.944 390.136 107.64 389.92 108.28C389.712 108.92 389.432 109.48 389.08 109.96C389 109.856 388.892 109.744 388.756 109.624C388.628 109.512 388.508 109.424 388.396 109.36C388.716 108.928 388.968 108.416 389.152 107.824C389.344 107.224 389.488 106.576 389.584 105.88C389.68 105.176 389.744 104.44 389.776 103.672C389.808 102.904 389.828 102.132 389.836 101.356ZM392.068 103.372H392.896C392.896 103.372 392.896 103.4 392.896 103.456C392.896 103.504 392.896 103.56 392.896 103.624C392.896 103.688 392.896 103.74 392.896 103.78C392.872 104.772 392.848 105.608 392.824 106.288C392.8 106.968 392.772 107.528 392.74 107.968C392.708 108.4 392.664 108.736 392.608 108.976C392.56 109.216 392.496 109.388 392.416 109.492C392.32 109.628 392.216 109.72 392.104 109.768C392 109.816 391.868 109.852 391.708 109.876C391.572 109.892 391.388 109.9 391.156 109.9C390.924 109.9 390.684 109.892 390.436 109.876C390.428 109.756 390.404 109.616 390.364 109.456C390.324 109.304 390.272 109.172 390.208 109.06C390.448 109.084 390.668 109.096 390.868 109.096C391.076 109.104 391.228 109.108 391.324 109.108C391.484 109.116 391.604 109.064 391.684 108.952C391.756 108.864 391.816 108.636 391.864 108.268C391.912 107.9 391.952 107.34 391.984 106.588C392.016 105.836 392.044 104.824 392.068 103.552V103.372ZM390.28 99.16L391.06 98.944C391.212 99.208 391.352 99.5 391.48 99.82C391.608 100.14 391.704 100.412 391.768 100.636L390.952 100.9C390.896 100.668 390.804 100.388 390.676 100.06C390.548 99.732 390.416 99.432 390.28 99.16ZM404.14 101.584H411.448V102.496H404.14V101.584ZM409.012 99.064H409.936V108.724C409.936 109.068 409.884 109.32 409.78 109.48C409.676 109.64 409.512 109.756 409.288 109.828C409.056 109.9 408.728 109.944 408.304 109.96C407.88 109.976 407.344 109.98 406.696 109.972C406.68 109.892 406.652 109.796 406.612 109.684C406.572 109.58 406.528 109.472 406.48 109.36C406.432 109.256 406.384 109.16 406.336 109.072C406.672 109.088 406.996 109.096 407.308 109.096C407.628 109.104 407.904 109.104 408.136 109.096C408.368 109.096 408.528 109.096 408.616 109.096C408.76 109.088 408.86 109.056 408.916 109C408.98 108.952 409.012 108.86 409.012 108.724V99.064ZM404.896 104.128L405.676 103.756C405.884 104.068 406.1 104.404 406.324 104.764C406.556 105.124 406.776 105.472 406.984 105.808C407.192 106.144 407.36 106.436 407.488 106.684L406.648 107.14C406.528 106.884 406.368 106.584 406.168 106.24C405.976 105.896 405.768 105.54 405.544 105.172C405.32 104.796 405.104 104.448 404.896 104.128ZM402.232 102.184L403.132 101.284V101.296V109.936H402.232V102.184ZM403.54 98.992L404.416 99.268C404.144 99.964 403.828 100.648 403.468 101.32C403.108 101.992 402.72 102.624 402.304 103.216C401.888 103.8 401.456 104.32 401.008 104.776C400.976 104.704 400.924 104.612 400.852 104.5C400.788 104.38 400.72 104.264 400.648 104.152C400.576 104.04 400.508 103.948 400.444 103.876C400.86 103.484 401.26 103.028 401.644 102.508C402.028 101.988 402.38 101.428 402.7 100.828C403.028 100.228 403.308 99.616 403.54 98.992ZM420.124 102.808H420.976V103.384C420.976 103.84 420.952 104.344 420.904 104.896C420.856 105.44 420.752 106.004 420.592 106.588C420.432 107.172 420.184 107.752 419.848 108.328C419.52 108.904 419.072 109.452 418.504 109.972C418.448 109.908 418.38 109.836 418.3 109.756C418.22 109.684 418.136 109.612 418.048 109.54C417.96 109.476 417.88 109.42 417.808 109.372C418.344 108.892 418.768 108.388 419.08 107.86C419.392 107.332 419.62 106.804 419.764 106.276C419.916 105.748 420.012 105.236 420.052 104.74C420.1 104.236 420.124 103.78 420.124 103.372V102.808ZM420.892 104.284C421.036 105.004 421.224 105.692 421.456 106.348C421.696 106.996 421.996 107.568 422.356 108.064C422.724 108.552 423.156 108.932 423.652 109.204C423.588 109.26 423.516 109.332 423.436 109.42C423.356 109.508 423.28 109.596 423.208 109.684C423.144 109.78 423.084 109.868 423.028 109.948C422.508 109.62 422.06 109.18 421.684 108.628C421.308 108.076 421 107.444 420.76 106.732C420.52 106.012 420.324 105.24 420.172 104.416L420.892 104.284ZM412.612 100.06H418.156V100.828H412.612V100.06ZM412.468 105.196H418.276V105.964H412.468V105.196ZM412.888 101.86H417.916V102.616H412.888V101.86ZM413.02 103.516H417.772V104.272H413.02V103.516ZM414.976 105.496H415.816V109.012C415.816 109.228 415.792 109.396 415.744 109.516C415.696 109.636 415.596 109.732 415.444 109.804C415.3 109.868 415.112 109.904 414.88 109.912C414.656 109.928 414.372 109.936 414.028 109.936C414.012 109.824 413.976 109.692 413.92 109.54C413.872 109.396 413.82 109.268 413.764 109.156C414.004 109.164 414.22 109.168 414.412 109.168C414.604 109.168 414.732 109.164 414.796 109.156C414.916 109.156 414.976 109.104 414.976 109V105.496ZM414.964 98.956H415.816V102.34H414.964V98.956ZM413.488 106.372L414.244 106.564C414.092 107.004 413.912 107.46 413.704 107.932C413.496 108.396 413.296 108.8 413.104 109.144C413.024 109.088 412.908 109.024 412.756 108.952C412.612 108.88 412.488 108.828 412.384 108.796C412.592 108.468 412.792 108.088 412.984 107.656C413.184 107.216 413.352 106.788 413.488 106.372ZM416.512 106.648L417.196 106.372C417.308 106.572 417.424 106.788 417.544 107.02C417.664 107.244 417.776 107.464 417.88 107.68C417.984 107.896 418.064 108.088 418.12 108.256L417.4 108.592C417.344 108.424 417.264 108.232 417.16 108.016C417.064 107.792 416.96 107.56 416.848 107.32C416.744 107.072 416.632 106.848 416.512 106.648ZM419.14 101.092H422.776V101.92H419.14V101.092ZM419.2 98.92L420.076 99.052C419.98 99.74 419.856 100.412 419.704 101.068C419.552 101.724 419.376 102.336 419.176 102.904C418.976 103.472 418.744 103.972 418.48 104.404C418.424 104.356 418.352 104.3 418.264 104.236C418.176 104.164 418.08 104.1 417.976 104.044C417.88 103.98 417.796 103.924 417.724 103.876C417.988 103.484 418.216 103.024 418.408 102.496C418.6 101.968 418.76 101.4 418.888 100.792C419.016 100.184 419.12 99.56 419.2 98.92ZM422.536 101.092H422.668L422.824 101.056L423.424 101.236C423.352 101.596 423.264 101.968 423.16 102.352C423.064 102.736 422.96 103.104 422.848 103.456C422.744 103.8 422.64 104.104 422.536 104.368L421.792 104.152C421.888 103.904 421.984 103.616 422.08 103.288C422.176 102.952 422.26 102.608 422.332 102.256C422.412 101.904 422.48 101.572 422.536 101.26V101.092ZM432.34 104.44C432.34 103.656 432.436 102.924 432.628 102.244C432.828 101.564 433.108 100.932 433.468 100.348C433.828 99.756 434.248 99.216 434.728 98.728L435.448 99.1C434.992 99.572 434.596 100.088 434.26 100.648C433.924 101.2 433.664 101.792 433.48 102.424C433.304 103.048 433.216 103.72 433.216 104.44C433.216 105.152 433.304 105.824 433.48 106.456C433.664 107.088 433.924 107.68 434.26 108.232C434.596 108.784 434.992 109.3 435.448 109.78L434.728 110.152C434.248 109.656 433.828 109.116 433.468 108.532C433.108 107.948 432.828 107.316 432.628 106.636C432.436 105.948 432.34 105.216 432.34 104.44ZM438.208 98.944L439.024 99.184C438.864 99.624 438.672 100.06 438.448 100.492C438.224 100.924 437.976 101.328 437.704 101.704C437.432 102.08 437.148 102.408 436.852 102.688C436.828 102.624 436.788 102.54 436.732 102.436C436.676 102.332 436.616 102.224 436.552 102.112C436.488 102 436.432 101.912 436.384 101.848C436.76 101.496 437.108 101.064 437.428 100.552C437.756 100.04 438.016 99.504 438.208 98.944ZM437.872 100.264H441.16V101.128H437.704L437.872 100.264ZM438.412 109.9L438.304 109.096L438.616 108.748L441.004 107.536C441.02 107.656 441.048 107.792 441.088 107.944C441.128 108.088 441.16 108.208 441.184 108.304C440.632 108.6 440.18 108.84 439.828 109.024C439.484 109.216 439.216 109.364 439.024 109.468C438.84 109.58 438.704 109.668 438.616 109.732C438.528 109.796 438.46 109.852 438.412 109.9ZM437.308 102.436H440.848V103.252H437.308V102.436ZM436.708 104.872H441.148V105.7H436.708V104.872ZM441.364 104.284H447.436V105.148H441.364V104.284ZM442.372 101.08H447.148V101.908H442.12L442.372 101.08ZM442.168 99.4L443.02 99.532C442.908 100.308 442.752 101.056 442.552 101.776C442.352 102.488 442.108 103.1 441.82 103.612C441.764 103.564 441.688 103.512 441.592 103.456C441.504 103.4 441.412 103.344 441.316 103.288C441.228 103.232 441.148 103.192 441.076 103.168C441.356 102.696 441.584 102.128 441.76 101.464C441.944 100.8 442.08 100.112 442.168 99.4ZM443.944 98.98H444.832V102.664C444.832 103.12 444.812 103.604 444.772 104.116C444.74 104.62 444.664 105.132 444.544 105.652C444.432 106.164 444.256 106.676 444.016 107.188C443.776 107.692 443.452 108.18 443.044 108.652C442.644 109.116 442.14 109.548 441.532 109.948C441.492 109.884 441.432 109.808 441.352 109.72C441.28 109.64 441.2 109.56 441.112 109.48C441.032 109.408 440.956 109.344 440.884 109.288C441.476 108.936 441.964 108.548 442.348 108.124C442.732 107.692 443.032 107.244 443.248 106.78C443.464 106.316 443.62 105.848 443.716 105.376C443.82 104.896 443.884 104.428 443.908 103.972C443.932 103.508 443.944 103.072 443.944 102.664V98.98ZM444.796 104.644C444.932 105.316 445.124 105.948 445.372 106.54C445.62 107.132 445.928 107.656 446.296 108.112C446.664 108.56 447.092 108.912 447.58 109.168C447.516 109.224 447.444 109.296 447.364 109.384C447.284 109.472 447.208 109.56 447.136 109.648C447.072 109.744 447.016 109.832 446.968 109.912C446.184 109.456 445.556 108.78 445.084 107.884C444.612 106.98 444.26 105.956 444.028 104.812L444.796 104.644ZM438.412 109.9C438.388 109.82 438.352 109.728 438.304 109.624C438.256 109.528 438.2 109.432 438.136 109.336C438.08 109.24 438.024 109.16 437.968 109.096C438.08 109.032 438.2 108.928 438.328 108.784C438.464 108.632 438.532 108.432 438.532 108.184V102.676H439.396V108.988C439.396 108.988 439.36 109.008 439.288 109.048C439.224 109.088 439.144 109.14 439.048 109.204C438.952 109.276 438.856 109.352 438.76 109.432C438.664 109.512 438.58 109.592 438.508 109.672C438.444 109.76 438.412 109.836 438.412 109.9ZM454.36 108.7H458.32V109.492H454.36V108.7ZM454.948 100.144H458.116V100.936H454.948V100.144ZM454.012 105.604H458.728V109.9H457.876V106.384H454.852V109.936H454.012V105.604ZM457.792 100.144H457.96L458.128 100.108L458.692 100.36C458.468 101.096 458.168 101.772 457.792 102.388C457.416 102.996 456.988 103.548 456.508 104.044C456.028 104.532 455.512 104.96 454.96 105.328C454.416 105.696 453.86 106.004 453.292 106.252C453.236 106.148 453.156 106.028 453.052 105.892C452.956 105.748 452.86 105.636 452.764 105.556C453.3 105.356 453.824 105.088 454.336 104.752C454.848 104.416 455.332 104.024 455.788 103.576C456.244 103.12 456.644 102.62 456.988 102.076C457.332 101.524 457.6 100.932 457.792 100.3V100.144ZM455.164 98.908L456.016 99.124C455.84 99.66 455.624 100.184 455.368 100.696C455.12 101.208 454.844 101.684 454.54 102.124C454.244 102.556 453.932 102.94 453.604 103.276C453.556 103.22 453.488 103.156 453.4 103.084C453.312 103.012 453.22 102.94 453.124 102.868C453.036 102.788 452.96 102.728 452.896 102.688C453.392 102.248 453.836 101.696 454.228 101.032C454.62 100.36 454.932 99.652 455.164 98.908ZM454.924 100.648C455.092 101.08 455.32 101.524 455.608 101.98C455.904 102.428 456.248 102.868 456.64 103.3C457.04 103.724 457.492 104.116 457.996 104.476C458.508 104.828 459.068 105.12 459.676 105.352C459.62 105.408 459.556 105.48 459.484 105.568C459.412 105.656 459.344 105.748 459.28 105.844C459.216 105.94 459.16 106.028 459.112 106.108C458.496 105.836 457.932 105.508 457.42 105.124C456.916 104.74 456.468 104.324 456.076 103.876C455.684 103.42 455.34 102.96 455.044 102.496C454.756 102.024 454.52 101.572 454.336 101.14L454.924 100.648ZM449.068 104.248H449.836V108.592H449.068V104.248ZM449.872 100.216V102.328H452.14V100.216H449.872ZM449.068 99.424H452.968V103.12H449.068V99.424ZM450.772 102.724H451.588V108.208H450.772V102.724ZM448.456 108.496C448.848 108.424 449.3 108.332 449.812 108.22C450.324 108.1 450.868 107.972 451.444 107.836C452.02 107.7 452.596 107.564 453.172 107.428L453.256 108.232C452.432 108.44 451.612 108.644 450.796 108.844C449.98 109.044 449.252 109.22 448.612 109.372L448.456 108.496ZM451.06 104.848H453.088V105.652H451.06V104.848ZM461.548 101.476H470.572V102.376H461.548V101.476ZM460.816 104.512H471.22V105.4H460.816V104.512ZM466.504 104.8C466.784 105.496 467.16 106.124 467.632 106.684C468.104 107.244 468.668 107.724 469.324 108.124C469.98 108.516 470.712 108.812 471.52 109.012C471.456 109.084 471.38 109.168 471.292 109.264C471.212 109.368 471.136 109.472 471.064 109.576C470.992 109.688 470.932 109.792 470.884 109.888C470.044 109.632 469.292 109.28 468.628 108.832C467.964 108.376 467.388 107.828 466.9 107.188C466.412 106.548 466.008 105.828 465.688 105.028L466.504 104.8ZM468.532 98.968L469.504 99.292C469.336 99.604 469.156 99.924 468.964 100.252C468.772 100.58 468.576 100.896 468.376 101.2C468.184 101.496 468 101.76 467.824 101.992L467.068 101.68C467.236 101.44 467.412 101.164 467.596 100.852C467.78 100.532 467.952 100.208 468.112 99.88C468.28 99.544 468.42 99.24 468.532 98.968ZM462.688 99.412L463.444 99.028C463.7 99.332 463.944 99.676 464.176 100.06C464.416 100.436 464.592 100.764 464.704 101.044L463.888 101.488C463.824 101.296 463.728 101.08 463.6 100.84C463.472 100.6 463.328 100.356 463.168 100.108C463.016 99.852 462.856 99.62 462.688 99.412ZM465.532 101.8H466.552V103.852C466.552 104.244 466.52 104.656 466.456 105.088C466.392 105.512 466.26 105.94 466.06 106.372C465.86 106.796 465.564 107.22 465.172 107.644C464.788 108.068 464.272 108.476 463.624 108.868C462.984 109.252 462.184 109.612 461.224 109.948C461.192 109.876 461.14 109.792 461.068 109.696C460.996 109.6 460.916 109.5 460.828 109.396C460.748 109.3 460.664 109.22 460.576 109.156C461.496 108.844 462.256 108.516 462.856 108.172C463.456 107.828 463.936 107.472 464.296 107.104C464.656 106.728 464.924 106.356 465.1 105.988C465.276 105.612 465.392 105.244 465.448 104.884C465.504 104.516 465.532 104.168 465.532 103.84V101.8ZM477.832 99.28L478.576 98.956C478.808 99.276 479.024 99.628 479.224 100.012C479.432 100.388 479.58 100.716 479.668 100.996L478.864 101.368C478.784 101.088 478.644 100.752 478.444 100.36C478.252 99.96 478.048 99.6 477.832 99.28ZM481.672 98.92L482.584 99.232C482.392 99.672 482.184 100.124 481.96 100.588C481.736 101.052 481.528 101.448 481.336 101.776L480.58 101.488C480.708 101.264 480.84 101.004 480.976 100.708C481.112 100.404 481.24 100.096 481.36 99.784C481.488 99.472 481.592 99.184 481.672 98.92ZM478.24 102.124V104.332H482.008V102.124H478.24ZM477.376 101.32H482.896V105.148H477.376V101.32ZM474.544 99.844H475.432V109.96H474.544V99.844ZM472.576 102.364H477.028V103.204H472.576V102.364ZM474.568 102.676L475.144 102.916C475.024 103.332 474.876 103.772 474.7 104.236C474.532 104.692 474.344 105.144 474.136 105.592C473.928 106.032 473.712 106.448 473.488 106.84C473.264 107.224 473.04 107.552 472.816 107.824C472.76 107.704 472.684 107.564 472.588 107.404C472.492 107.236 472.408 107.096 472.336 106.984C472.624 106.664 472.912 106.264 473.2 105.784C473.488 105.296 473.752 104.78 473.992 104.236C474.232 103.684 474.424 103.164 474.568 102.676ZM476.368 99.016L476.908 99.736C476.556 99.872 476.152 100.004 475.696 100.132C475.24 100.252 474.772 100.356 474.292 100.444C473.812 100.532 473.348 100.608 472.9 100.672C472.884 100.576 472.848 100.46 472.792 100.324C472.736 100.188 472.684 100.072 472.636 99.976C473.076 99.896 473.524 99.808 473.98 99.712C474.444 99.616 474.884 99.508 475.3 99.388C475.716 99.268 476.072 99.144 476.368 99.016ZM475.408 103.48C475.48 103.552 475.592 103.668 475.744 103.828C475.904 103.98 476.076 104.148 476.26 104.332C476.444 104.516 476.608 104.688 476.752 104.848C476.904 105.008 477.012 105.124 477.076 105.196L476.548 105.916C476.484 105.796 476.384 105.64 476.248 105.448C476.112 105.256 475.964 105.06 475.804 104.86C475.652 104.652 475.504 104.456 475.36 104.272C475.216 104.088 475.096 103.944 475 103.84L475.408 103.48ZM478.684 104.98H479.56C479.512 105.54 479.436 106.072 479.332 106.576C479.236 107.072 479.084 107.536 478.876 107.968C478.676 108.392 478.404 108.772 478.06 109.108C477.716 109.452 477.276 109.748 476.74 109.996C476.7 109.924 476.648 109.844 476.584 109.756C476.528 109.668 476.464 109.58 476.392 109.492C476.32 109.412 476.248 109.348 476.176 109.3C476.672 109.092 477.072 108.844 477.376 108.556C477.688 108.26 477.932 107.928 478.108 107.56C478.284 107.184 478.412 106.78 478.492 106.348C478.58 105.916 478.644 105.46 478.684 104.98ZM480.544 104.884H481.384V108.652C481.384 108.804 481.4 108.9 481.432 108.94C481.472 108.98 481.556 109 481.684 109C481.724 109 481.8 109 481.912 109C482.024 109 482.14 109 482.26 109C482.38 109 482.464 109 482.512 109C482.6 109 482.664 108.964 482.704 108.892C482.752 108.82 482.784 108.68 482.8 108.472C482.824 108.256 482.84 107.928 482.848 107.488C482.904 107.536 482.976 107.584 483.064 107.632C483.152 107.672 483.244 107.712 483.34 107.752C483.444 107.784 483.532 107.812 483.604 107.836C483.588 108.348 483.544 108.748 483.472 109.036C483.408 109.324 483.308 109.52 483.172 109.624C483.036 109.736 482.844 109.792 482.596 109.792C482.556 109.792 482.484 109.792 482.38 109.792C482.284 109.792 482.18 109.792 482.068 109.792C481.964 109.792 481.864 109.792 481.768 109.792C481.672 109.792 481.604 109.792 481.564 109.792C481.292 109.792 481.08 109.76 480.928 109.696C480.784 109.632 480.684 109.516 480.628 109.348C480.572 109.18 480.544 108.948 480.544 108.652V104.884ZM487.66 104.44C487.66 105.216 487.56 105.948 487.36 106.636C487.168 107.316 486.892 107.948 486.532 108.532C486.172 109.116 485.752 109.656 485.272 110.152L484.552 109.78C485.008 109.3 485.404 108.784 485.74 108.232C486.076 107.68 486.332 107.088 486.508 106.456C486.692 105.824 486.784 105.152 486.784 104.44C486.784 103.72 486.692 103.048 486.508 102.424C486.332 101.792 486.076 101.2 485.74 100.648C485.404 100.088 485.008 99.572 484.552 99.1L485.272 98.728C485.752 99.216 486.172 99.756 486.532 100.348C486.892 100.932 487.168 101.564 487.36 102.244C487.56 102.924 487.66 103.656 487.66 104.44ZM499 103.168C498.76 103.168 498.548 103.088 498.364 102.928C498.18 102.768 498.088 102.552 498.088 102.28C498.088 102 498.18 101.78 498.364 101.62C498.548 101.452 498.76 101.368 499 101.368C499.24 101.368 499.452 101.452 499.636 101.62C499.82 101.78 499.912 102 499.912 102.28C499.912 102.552 499.82 102.768 499.636 102.928C499.452 103.088 499.24 103.168 499 103.168ZM499 109.048C498.76 109.048 498.548 108.968 498.364 108.808C498.18 108.64 498.088 108.42 498.088 108.148C498.088 107.876 498.18 107.66 498.364 107.5C498.548 107.332 498.76 107.248 499 107.248C499.24 107.248 499.452 107.332 499.636 107.5C499.82 107.66 499.912 107.876 499.912 108.148C499.912 108.42 499.82 108.64 499.636 108.808C499.452 108.968 499.24 109.048 499 109.048Z" fill="#1A3341" fill-opacity="0.6"/>
<rect x="352" y="131" width="10" height="10" fill="#5A96A8"/>
<path d="M377.752 132.216V134.016H379.78V132.216H377.752ZM374.92 132.216V134.016H376.924V132.216H374.92ZM372.16 132.216V134.016H374.092V132.216H372.16ZM371.296 131.436H380.68V134.808H371.296V131.436ZM373.588 137.94L374.284 137.496C375.124 138.12 376.168 139.044 376.672 139.68L375.928 140.184C375.46 139.56 374.452 138.588 373.588 137.94ZM373.684 136.008H379.396V136.824H373.684V136.008ZM374.572 134.7L375.472 135C374.656 136.344 373.168 137.64 371.62 138.408C371.488 138.204 371.224 137.88 371.044 137.724C372.52 137.028 373.936 135.852 374.572 134.7ZM379.18 136.008H379.372L379.54 135.972L380.14 136.356C378.676 139.788 375.244 141.324 371.428 141.984C371.344 141.756 371.092 141.36 370.912 141.18C374.656 140.616 377.956 139.212 379.18 136.164V136.008ZM382.636 132.528H388.336V133.32H382.636V132.528ZM383.992 134.424H387.04V135.156H383.992V134.424ZM383.992 136.272H387.076V137.004H383.992V136.272ZM382.456 138.228H388.42V139.032H382.456V138.228ZM383.608 131.052H384.436V138.576H383.608V131.052ZM386.644 131.052H387.484V138.576H386.644V131.052ZM384.148 139.284L385 139.524C384.604 140.4 383.956 141.288 383.332 141.864C383.176 141.708 382.828 141.444 382.612 141.324C383.236 140.808 383.812 140.04 384.148 139.284ZM385.792 139.644L386.512 139.296C386.92 139.764 387.388 140.4 387.604 140.82L386.86 141.216C386.656 140.796 386.188 140.124 385.792 139.644ZM389.116 134.964H393.532V135.804H389.116V134.964ZM391.408 135.408H392.272V141.972H391.408V135.408ZM392.716 130.944L393.436 131.592C392.284 132.132 390.568 132.576 389.092 132.864C389.044 132.672 388.912 132.372 388.804 132.18C390.196 131.868 391.816 131.412 392.716 130.944ZM388.804 132.18H389.632V136.332C389.632 138.54 389.392 140.508 387.868 142.14C387.712 141.96 387.424 141.72 387.22 141.564C388.612 140.064 388.804 138.228 388.804 136.332V132.18ZM396.208 130.956L397.012 131.196C396.532 132.516 395.728 133.848 394.84 134.7C394.768 134.508 394.528 134.052 394.372 133.848C395.128 133.152 395.812 132.072 396.208 130.956ZM395.872 132.276H399.148V133.128H395.704L395.872 132.276ZM396.412 141.9L396.292 141.096L396.604 140.748L399.004 139.536C399.04 139.776 399.112 140.124 399.172 140.304C396.94 141.504 396.604 141.708 396.412 141.9ZM395.308 134.436H398.836V135.252H395.308V134.436ZM394.708 136.884H399.136V137.7H394.708V136.884ZM399.352 136.284H405.424V137.148H399.352V136.284ZM400.372 133.08H405.136V133.92H400.12L400.372 133.08ZM400.156 131.4L401.008 131.532C400.78 133.092 400.384 134.616 399.808 135.612C399.652 135.48 399.28 135.264 399.064 135.168C399.64 134.244 399.988 132.828 400.156 131.4ZM401.944 130.992H402.82V134.676C402.82 136.956 402.58 139.968 399.52 141.948C399.4 141.768 399.088 141.456 398.884 141.3C401.848 139.512 401.944 136.716 401.944 134.676V130.992ZM402.784 136.644C403.192 138.672 404.092 140.4 405.58 141.18C405.376 141.348 405.1 141.684 404.956 141.924C403.384 140.988 402.496 139.116 402.016 136.812L402.784 136.644ZM396.412 141.9C396.328 141.684 396.124 141.3 395.968 141.108C396.184 140.976 396.52 140.688 396.52 140.196V134.676H397.384V140.988C397.384 140.988 396.412 141.576 396.412 141.9ZM412.36 140.712H416.32V141.504H412.36V140.712ZM412.948 132.156H416.116V132.936H412.948V132.156ZM412.012 137.616H416.728V141.9H415.864V138.396H412.84V141.936H412.012V137.616ZM415.792 132.156H415.948L416.116 132.12L416.692 132.36C415.768 135.312 413.572 137.28 411.292 138.252C411.184 138.048 410.944 137.736 410.764 137.568C412.888 136.752 415.012 134.82 415.792 132.312V132.156ZM413.152 130.92L414.016 131.124C413.476 132.756 412.588 134.28 411.592 135.276C411.448 135.12 411.1 134.832 410.884 134.7C411.868 133.8 412.696 132.396 413.152 130.92ZM412.912 132.648C413.608 134.364 415.216 136.428 417.676 137.364C417.484 137.532 417.232 137.88 417.112 138.108C414.64 137.04 413.056 134.868 412.324 133.14L412.912 132.648ZM407.068 136.248H407.824V140.604H407.068V136.248ZM407.872 132.216V134.328H410.128V132.216H407.872ZM407.068 131.424H410.968V135.12H407.068V131.424ZM408.76 134.724H409.576V140.208H408.76V134.724ZM406.444 140.508C407.632 140.268 409.432 139.848 411.16 139.44L411.244 140.244C409.6 140.652 407.872 141.072 406.612 141.384L406.444 140.508ZM409.048 136.86H411.076V137.664H409.048V136.86ZM419.8 131.364H422.248V132.192H419.8V131.364ZM419.764 134.184H422.104V135.012H419.764V134.184ZM419.74 137.064H422.116V137.904H419.74V137.064ZM419.272 131.364H420.088V135.672C420.088 137.544 419.98 140.196 419.14 141.972C418.984 141.828 418.612 141.636 418.408 141.552C419.212 139.86 419.272 137.46 419.272 135.684V131.364ZM421.816 131.364H422.644V140.832C422.644 141.288 422.536 141.552 422.248 141.708C421.96 141.852 421.504 141.864 420.736 141.864C420.7 141.648 420.592 141.252 420.484 141.024C421.012 141.036 421.468 141.036 421.624 141.036C421.756 141.024 421.816 140.964 421.816 140.808V131.364ZM424.408 131.388H427.48V132.228H424.408V131.388ZM423.088 136.224H428.32V137.076H423.088V136.224ZM428.008 136.224H428.176L428.32 136.188L428.848 136.416C427.936 139.5 425.656 141.18 423.088 141.948C423.004 141.708 422.812 141.36 422.644 141.168C425.044 140.556 427.228 138.948 428.008 136.368V136.224ZM424.3 136.884C425.176 139.032 427.048 140.628 429.58 141.204C429.388 141.396 429.148 141.744 429.04 141.996C426.436 141.288 424.576 139.572 423.592 137.148L424.3 136.884ZM424.216 131.388H425.032V132.732C425.032 133.812 424.72 135.096 423.316 135.948C423.196 135.768 422.896 135.42 422.728 135.288C424.012 134.544 424.216 133.56 424.216 132.708V131.388ZM427.084 131.388H427.912V134.172C427.912 134.508 427.936 134.628 428.092 134.628C428.212 134.628 428.68 134.628 428.812 134.628C428.956 134.628 429.172 134.604 429.328 134.568C429.34 134.796 429.376 135.132 429.4 135.336C429.268 135.396 429.028 135.408 428.812 135.408C428.668 135.408 428.164 135.408 428.032 135.408C427.252 135.408 427.084 135.072 427.084 134.16V131.388ZM433.108 130.968L433.96 131.22C433.24 133.248 432.124 135.288 430.912 136.644C430.828 136.44 430.564 135.972 430.396 135.756C431.488 134.592 432.496 132.792 433.108 130.968ZM431.932 134.112L432.808 133.236L432.82 133.248V141.96H431.932V134.112ZM436.036 131.244L436.912 131.436C436.336 133.524 435.316 135.324 433.948 136.476C433.852 136.284 433.564 135.876 433.384 135.696C434.644 134.7 435.544 133.092 436.036 131.244ZM434.728 135.624H439.636V136.464H434.728V135.624ZM439.336 135.624H440.224C440.224 135.624 440.224 135.924 440.212 136.044C440.032 139.728 439.864 141.036 439.492 141.48C439.276 141.744 439.048 141.84 438.7 141.876C438.388 141.9 437.848 141.9 437.296 141.864C437.284 141.612 437.188 141.252 437.044 141.024C437.596 141.072 438.1 141.084 438.316 141.084C438.508 141.084 438.616 141.06 438.724 140.928C439 140.616 439.18 139.32 439.336 135.792V135.624ZM436.288 136.188L437.188 136.248C436.9 139.044 436.072 140.844 434.236 141.984C434.116 141.816 433.816 141.468 433.624 141.312C435.364 140.364 436.072 138.684 436.288 136.188ZM439.048 131.16C439.552 133.284 440.296 134.544 441.664 135.612C441.424 135.792 441.16 136.104 441.04 136.368C439.552 135.108 438.772 133.668 438.232 131.316L439.048 131.16ZM449.332 137.724L450.172 137.328C451.228 138.612 452.452 140.316 453.052 141.396L452.164 141.888C451.588 140.784 450.364 139.008 449.332 137.724ZM445.888 131.28L446.836 131.544C446.044 133.512 444.76 135.336 443.44 136.512C443.26 136.344 442.84 136.02 442.612 135.864C443.968 134.808 445.168 133.08 445.888 131.28ZM449.98 131.184C450.772 132.84 452.32 134.748 453.556 135.744C453.328 135.936 452.98 136.284 452.8 136.512C451.552 135.36 450.016 133.344 449.092 131.544L449.98 131.184ZM443.932 141.18C443.884 140.976 443.716 140.496 443.584 140.22C443.896 140.148 444.232 139.776 444.664 139.224C445.144 138.684 446.62 136.584 447.568 134.58L448.552 135.012C447.412 137.112 446.02 139.188 444.652 140.628V140.652C444.652 140.652 443.932 140.964 443.932 141.18ZM443.932 141.18L443.908 140.424L444.544 140.064L451.276 139.668C451.312 139.932 451.408 140.316 451.48 140.532C445.048 140.964 444.376 141 443.932 141.18ZM455.056 131.7H464.104V132.564H455.056V131.7ZM455.128 133.824H462.364V134.628H455.128V133.824ZM463.744 131.7H464.644V140.616C464.644 141.24 464.524 141.552 464.104 141.72C463.684 141.876 462.928 141.888 461.86 141.888C461.812 141.612 461.68 141.168 461.536 140.904C462.376 140.928 463.192 140.928 463.444 140.916C463.672 140.904 463.744 140.844 463.744 140.616V131.7ZM455.896 135.924H456.772V140.652H455.896V135.924ZM456.616 135.924H461.536V139.764H456.616V138.972H460.648V136.728H456.616V135.924Z" fill="#1A3341" fill-opacity="0.6"/>
<rect width="10" height="10" transform="translate(352 151)" fill="#60CCCC"/>
<rect opacity="0.7" x="352" y="151" width="10" height="10" fill="#60CCCC"/>
<path d="M376.96 159H370.888V150.6H371.98V157.98H376.96V159ZM384.038 159H377.966V150.6H379.058V157.98H384.038V159ZM386.136 155.904V159H385.044V150.6H388.308C390.6 150.6 391.752 151.476 391.752 153.24C391.752 153.996 391.476 154.632 390.924 155.136C390.36 155.652 389.484 155.904 388.296 155.904H386.136ZM388.356 151.62H386.136V154.896H388.272C389.856 154.896 390.624 154.272 390.624 153.228C390.624 152.16 389.868 151.62 388.356 151.62ZM397.691 159H396.599V150.6H397.691V154.656L401.939 150.6H403.367L399.407 154.404L403.655 159H402.215L398.591 155.124L397.691 155.988V159ZM406.597 151.62H403.681V150.6H410.617V151.62H407.689V159H406.597V151.62ZM416.281 151.62H411.013V150.6H417.853V151.332L412.345 157.98H417.973V159H410.797V158.268L416.281 151.62ZM421.843 156.156H418.771V155.232H421.843V156.156ZM428.53 156.768C428.53 154.692 423.346 155.892 423.346 152.796C423.346 152.148 423.634 151.596 424.21 151.152C424.774 150.708 425.53 150.492 426.454 150.492C427.858 150.492 428.878 150.9 429.514 151.716L428.806 152.424C428.206 151.824 427.414 151.524 426.43 151.524C425.938 151.524 425.494 151.62 425.086 151.824C424.678 152.028 424.474 152.352 424.474 152.772C424.474 153.816 425.77 154.02 427.066 154.368C428.362 154.716 429.658 155.184 429.658 156.684C429.658 157.392 429.37 157.98 428.794 158.424C428.218 158.88 427.486 159.108 426.61 159.108C425.89 159.108 425.218 158.952 424.582 158.628C423.946 158.316 423.466 157.932 423.166 157.488L423.874 156.72C424.462 157.488 425.506 158.076 426.718 158.076C427.726 158.076 428.53 157.572 428.53 156.768ZM437.173 159H431.017V150.6H437.065V151.62H432.109V154.236H436.729V155.232H432.109V157.98H437.173V159Z" fill="#1A3341" fill-opacity="0.6"/>
<rect width="10" height="10" transform="translate(352 171)" fill="url(#paint4_linear_7002_27702)"/>
<path d="M372.184 180.184H379.792V181.084H372.184V180.184ZM372.124 176.488H379.804V177.376H372.124V176.488ZM371.716 172.852H380.284V181.912H379.348V173.752H372.616V181.96H371.716V172.852ZM375.34 170.884L376.456 171.088C376.12 171.904 375.724 172.804 375.388 173.404L374.512 173.2C374.812 172.552 375.172 171.58 375.34 170.884ZM384.784 170.992L385.624 171.22C384.94 173.296 383.872 175.408 382.684 176.812C382.6 176.596 382.36 176.116 382.204 175.888C383.26 174.688 384.208 172.84 384.784 170.992ZM383.824 173.932L384.652 173.104L384.676 173.128V181.96H383.824V173.932ZM389.02 171.232L389.692 171.928C388.552 172.432 386.884 172.852 385.468 173.14C385.42 172.936 385.288 172.636 385.18 172.432C386.548 172.132 388.12 171.676 389.02 171.232ZM385.192 174.652H393.316V175.456H385.192V174.652ZM387.196 172.18H388.048V180.868C388.048 181.396 387.928 181.636 387.592 181.78C387.256 181.924 386.704 181.936 385.876 181.936C385.84 181.708 385.72 181.336 385.6 181.096C386.212 181.108 386.788 181.108 386.956 181.096C387.136 181.096 387.196 181.048 387.196 180.868V172.18ZM385.108 178.024C386.236 177.76 387.988 177.304 389.668 176.872L389.764 177.676C388.216 178.108 386.56 178.564 385.348 178.9L385.108 178.024ZM389.872 171.052H390.76C390.7 176.74 391.324 181.12 392.476 181.12C392.74 181.12 392.86 180.532 392.896 179.128C393.076 179.32 393.376 179.512 393.58 179.596C393.448 181.42 393.172 181.984 392.38 181.984C390.364 181.972 389.908 176.944 389.872 171.052ZM392.284 176.032L393.088 176.248C392.188 178.468 390.688 180.328 388.984 181.54C388.852 181.372 388.552 181.06 388.372 180.904C390.076 179.824 391.492 178.072 392.284 176.032ZM391.372 171.652L392.044 171.364C392.536 172.06 393.076 172.996 393.304 173.596L392.596 173.944C392.38 173.344 391.852 172.372 391.372 171.652ZM401.752 172.216V174.016H403.78V172.216H401.752ZM398.92 172.216V174.016H400.924V172.216H398.92ZM396.16 172.216V174.016H398.092V172.216H396.16ZM395.296 171.436H404.68V174.808H395.296V171.436ZM397.588 177.94L398.284 177.496C399.124 178.12 400.168 179.044 400.672 179.68L399.928 180.184C399.46 179.56 398.452 178.588 397.588 177.94ZM397.684 176.008H403.396V176.824H397.684V176.008ZM398.572 174.7L399.472 175C398.656 176.344 397.168 177.64 395.62 178.408C395.488 178.204 395.224 177.88 395.044 177.724C396.52 177.028 397.936 175.852 398.572 174.7ZM403.18 176.008H403.372L403.54 175.972L404.14 176.356C402.676 179.788 399.244 181.324 395.428 181.984C395.344 181.756 395.092 181.36 394.912 181.18C398.656 180.616 401.956 179.212 403.18 176.164V176.008ZM406.636 172.528H412.336V173.32H406.636V172.528ZM407.992 174.424H411.04V175.156H407.992V174.424ZM407.992 176.272H411.076V177.004H407.992V176.272ZM406.456 178.228H412.42V179.032H406.456V178.228ZM407.608 171.052H408.436V178.576H407.608V171.052ZM410.644 171.052H411.484V178.576H410.644V171.052ZM408.148 179.284L409 179.524C408.604 180.4 407.956 181.288 407.332 181.864C407.176 181.708 406.828 181.444 406.612 181.324C407.236 180.808 407.812 180.04 408.148 179.284ZM409.792 179.644L410.512 179.296C410.92 179.764 411.388 180.4 411.604 180.82L410.86 181.216C410.656 180.796 410.188 180.124 409.792 179.644ZM413.116 174.964H417.532V175.804H413.116V174.964ZM415.408 175.408H416.272V181.972H415.408V175.408ZM416.716 170.944L417.436 171.592C416.284 172.132 414.568 172.576 413.092 172.864C413.044 172.672 412.912 172.372 412.804 172.18C414.196 171.868 415.816 171.412 416.716 170.944ZM412.804 172.18H413.632V176.332C413.632 178.54 413.392 180.508 411.868 182.14C411.712 181.96 411.424 181.72 411.22 181.564C412.612 180.064 412.804 178.228 412.804 176.332V172.18ZM420.208 170.956L421.012 171.196C420.532 172.516 419.728 173.848 418.84 174.7C418.768 174.508 418.528 174.052 418.372 173.848C419.128 173.152 419.812 172.072 420.208 170.956ZM419.872 172.276H423.148V173.128H419.704L419.872 172.276ZM420.412 181.9L420.292 181.096L420.604 180.748L423.004 179.536C423.04 179.776 423.112 180.124 423.172 180.304C420.94 181.504 420.604 181.708 420.412 181.9ZM419.308 174.436H422.836V175.252H419.308V174.436ZM418.708 176.884H423.136V177.7H418.708V176.884ZM423.352 176.284H429.424V177.148H423.352V176.284ZM424.372 173.08H429.136V173.92H424.12L424.372 173.08ZM424.156 171.4L425.008 171.532C424.78 173.092 424.384 174.616 423.808 175.612C423.652 175.48 423.28 175.264 423.064 175.168C423.64 174.244 423.988 172.828 424.156 171.4ZM425.944 170.992H426.82V174.676C426.82 176.956 426.58 179.968 423.52 181.948C423.4 181.768 423.088 181.456 422.884 181.3C425.848 179.512 425.944 176.716 425.944 174.676V170.992ZM426.784 176.644C427.192 178.672 428.092 180.4 429.58 181.18C429.376 181.348 429.1 181.684 428.956 181.924C427.384 180.988 426.496 179.116 426.016 176.812L426.784 176.644ZM420.412 181.9C420.328 181.684 420.124 181.3 419.968 181.108C420.184 180.976 420.52 180.688 420.52 180.196V174.676H421.384V180.988C421.384 180.988 420.412 181.576 420.412 181.9ZM436.36 180.712H440.32V181.504H436.36V180.712ZM436.948 172.156H440.116V172.936H436.948V172.156ZM436.012 177.616H440.728V181.9H439.864V178.396H436.84V181.936H436.012V177.616ZM439.792 172.156H439.948L440.116 172.12L440.692 172.36C439.768 175.312 437.572 177.28 435.292 178.252C435.184 178.048 434.944 177.736 434.764 177.568C436.888 176.752 439.012 174.82 439.792 172.312V172.156ZM437.152 170.92L438.016 171.124C437.476 172.756 436.588 174.28 435.592 175.276C435.448 175.12 435.1 174.832 434.884 174.7C435.868 173.8 436.696 172.396 437.152 170.92ZM436.912 172.648C437.608 174.364 439.216 176.428 441.676 177.364C441.484 177.532 441.232 177.88 441.112 178.108C438.64 177.04 437.056 174.868 436.324 173.14L436.912 172.648ZM431.068 176.248H431.824V180.604H431.068V176.248ZM431.872 172.216V174.328H434.128V172.216H431.872ZM431.068 171.424H434.968V175.12H431.068V171.424ZM432.76 174.724H433.576V180.208H432.76V174.724ZM430.444 180.508C431.632 180.268 433.432 179.848 435.16 179.44L435.244 180.244C433.6 180.652 431.872 181.072 430.612 181.384L430.444 180.508ZM433.048 176.86H435.076V177.664H433.048V176.86Z" fill="#1A3341" fill-opacity="0.6"/>
<rect width="10" height="10" transform="translate(352 191)" fill="#184977"/>
<rect x="352" y="191" width="10" height="10" fill="#184977"/>
<path d="M370.648 198.552H381.34V199.392H370.648V198.552ZM370.984 192.336H381.052V193.164H370.984V192.336ZM373.432 194.376H378.58V195.144H373.432V194.376ZM373.432 196.452H378.58V197.232H373.432V196.452ZM372.856 190.944H373.744V198.924H372.856V190.944ZM378.22 190.944H379.132V198.924H378.22V190.944ZM376.876 200.232L377.488 199.656C378.916 200.16 380.44 200.82 381.376 201.324L380.56 201.912C379.708 201.408 378.28 200.748 376.876 200.232ZM374.332 199.584L375.124 200.16C374.056 200.82 372.424 201.516 371.128 201.936C370.996 201.756 370.72 201.444 370.528 201.252C371.824 200.88 373.48 200.172 374.332 199.584ZM389.428 190.944H390.28V199.284H389.428V190.944ZM385.252 195.888L392.464 193.092L392.812 193.872L385.588 196.68L385.252 195.888ZM386.764 192.12H387.652V200.148C387.652 200.832 387.82 200.988 388.672 200.988C389.08 200.988 391.228 200.988 391.756 200.988C392.488 200.988 392.62 200.652 392.716 199.236C392.932 199.392 393.292 199.548 393.556 199.608C393.4 201.264 393.112 201.804 391.78 201.804C391.432 201.804 388.96 201.804 388.636 201.804C387.184 201.804 386.764 201.468 386.764 200.136V192.12ZM392.164 193.296H392.056L392.272 193.116L392.428 192.972L393.052 193.236L393.016 193.38C393.004 195.564 392.98 197.292 392.86 197.808C392.764 198.36 392.512 198.588 392.14 198.684C391.816 198.768 391.288 198.78 390.928 198.768C390.904 198.516 390.808 198.144 390.7 197.94C391.036 197.952 391.468 197.952 391.624 197.952C391.828 197.952 391.96 197.904 392.044 197.592C392.14 197.208 392.164 195.636 392.164 193.296ZM385.192 190.968L386.02 191.232C385.24 193.248 384.004 195.288 382.72 196.632C382.624 196.428 382.372 195.96 382.216 195.756C383.404 194.592 384.52 192.792 385.192 190.968ZM383.92 194.064L384.784 193.188L384.796 193.2V201.948H383.92V194.064Z" fill="#1A3341" fill-opacity="0.6"/>
<rect x="352" y="223" width="10" height="10" fill="url(#paint5_linear_7002_27702)"/>
<path d="M370.912 224.672H381.076V225.536H370.912V224.672ZM370.732 230.804H381.292V231.68H370.732V230.804ZM376.072 226.292H377.02V233.972H376.072V226.292ZM372.004 229.148C371.956 228.944 371.788 228.476 371.68 228.224C371.932 228.152 372.184 227.792 372.508 227.264C372.856 226.748 373.948 224.744 374.584 222.86L375.604 223.148C374.788 225.164 373.696 227.192 372.664 228.596V228.62C372.664 228.62 372.004 228.944 372.004 229.148ZM372.004 229.148V228.428L372.58 228.116H380.296V228.98H373.3C372.58 228.98 372.136 229.04 372.004 229.148ZM383.2 223.424H386.38V224.24H384.052V233.948H383.2V223.424ZM386.176 223.424H386.344L386.476 223.388L387.112 223.772C386.74 224.744 386.272 225.908 385.84 226.844C386.776 227.84 386.992 228.716 386.992 229.46C386.992 230.12 386.836 230.636 386.476 230.888C386.308 231.008 386.068 231.08 385.828 231.116C385.564 231.14 385.252 231.152 384.964 231.128C384.952 230.9 384.868 230.528 384.712 230.288C385 230.312 385.252 230.324 385.456 230.3C385.612 230.3 385.744 230.264 385.852 230.192C386.056 230.06 386.128 229.736 386.128 229.376C386.128 228.728 385.876 227.9 384.94 226.952C385.408 225.884 385.9 224.504 386.176 223.676V223.424ZM389.44 222.932H390.364C390.34 227.276 390.316 231.728 386.788 233.984C386.644 233.768 386.344 233.492 386.104 233.324C389.5 231.248 389.428 227.048 389.44 222.932ZM390.256 226.592C390.436 227.684 390.964 231.572 393.676 233.288C393.424 233.468 393.148 233.732 393.004 233.96C390.208 232.112 389.68 227.9 389.44 226.664L390.256 226.592ZM396.1 225.212H403.636V224.348H395.284V223.688H404.476V225.86H396.1V225.212ZM395.908 226.748H404.608V227.396H395.728L395.908 226.748ZM404.344 226.748H405.184C405.184 226.748 405.172 226.94 405.172 227.06C405.088 227.84 405.004 228.224 404.812 228.416C404.656 228.572 404.476 228.632 404.224 228.632C404.02 228.656 403.612 228.644 403.18 228.62C403.168 228.44 403.096 228.188 403.012 228.008C403.384 228.056 403.708 228.056 403.84 228.056C403.972 228.056 404.056 228.044 404.116 227.972C404.212 227.876 404.272 227.576 404.344 226.856V226.748ZM398.26 222.932H399.088V225.38C399.088 227.132 398.608 228.596 395.14 229.436C395.068 229.244 394.852 228.896 394.696 228.74C397.876 227.984 398.26 226.772 398.26 225.368V222.932ZM401.008 222.932H401.86V228.656H401.008V222.932ZM396.232 228.956H403.852V232.22H402.94V229.712H397.108V232.292H396.232V228.956ZM399.676 230.216H400.576C400.132 232.436 398.908 233.48 394.9 233.96C394.84 233.756 394.66 233.396 394.516 233.204C398.284 232.832 399.292 232.004 399.676 230.216ZM400.252 232.316L400.72 231.704C402.22 232.088 404.248 232.76 405.328 233.252L404.836 233.96C403.804 233.468 401.776 232.748 400.252 232.316ZM395.764 225.212H396.58C396.484 225.956 396.352 226.832 396.232 227.396H395.392C395.536 226.808 395.68 225.932 395.764 225.212ZM408.34 223.772H416.104V224.636H408.34V223.772ZM408.34 226.568H416.092V227.42H408.34V226.568ZM408.28 229.436H416.116V230.288H408.28V229.436ZM407.836 223.772H408.724V228.128C408.724 229.952 408.508 232.436 407.08 234.032C406.936 233.852 406.576 233.552 406.384 233.432C407.704 231.944 407.836 229.808 407.836 228.116V223.772ZM415.744 223.772H416.632V232.736C416.632 233.324 416.488 233.6 416.092 233.756C415.684 233.9 414.988 233.912 413.848 233.9C413.812 233.66 413.668 233.264 413.536 233.024C414.388 233.06 415.204 233.048 415.432 233.048C415.66 233.036 415.744 232.964 415.744 232.736V223.772ZM411.604 224.096H412.516V233.852H411.604V224.096Z" fill="#1A3341" fill-opacity="0.6"/>
<rect width="10" height="10" transform="translate(352 243)" fill="#DBE9EE"/>
<rect opacity="0.5" x="352" y="243" width="10" height="10" fill="#DBE9EE"/>
<path d="M370.648 250.552H381.34V251.392H370.648V250.552ZM370.984 244.336H381.052V245.164H370.984V244.336ZM373.432 246.376H378.58V247.144H373.432V246.376ZM373.432 248.452H378.58V249.232H373.432V248.452ZM372.856 242.944H373.744V250.924H372.856V242.944ZM378.22 242.944H379.132V250.924H378.22V242.944ZM376.876 252.232L377.488 251.656C378.916 252.16 380.44 252.82 381.376 253.324L380.56 253.912C379.708 253.408 378.28 252.748 376.876 252.232ZM374.332 251.584L375.124 252.16C374.056 252.82 372.424 253.516 371.128 253.936C370.996 253.756 370.72 253.444 370.528 253.252C371.824 252.88 373.48 252.172 374.332 251.584ZM389.428 242.944H390.28V251.284H389.428V242.944ZM385.252 247.888L392.464 245.092L392.812 245.872L385.588 248.68L385.252 247.888ZM386.764 244.12H387.652V252.148C387.652 252.832 387.82 252.988 388.672 252.988C389.08 252.988 391.228 252.988 391.756 252.988C392.488 252.988 392.62 252.652 392.716 251.236C392.932 251.392 393.292 251.548 393.556 251.608C393.4 253.264 393.112 253.804 391.78 253.804C391.432 253.804 388.96 253.804 388.636 253.804C387.184 253.804 386.764 253.468 386.764 252.136V244.12ZM392.164 245.296H392.056L392.272 245.116L392.428 244.972L393.052 245.236L393.016 245.38C393.004 247.564 392.98 249.292 392.86 249.808C392.764 250.36 392.512 250.588 392.14 250.684C391.816 250.768 391.288 250.78 390.928 250.768C390.904 250.516 390.808 250.144 390.7 249.94C391.036 249.952 391.468 249.952 391.624 249.952C391.828 249.952 391.96 249.904 392.044 249.592C392.14 249.208 392.164 247.636 392.164 245.296ZM385.192 242.968L386.02 243.232C385.24 245.248 384.004 247.288 382.72 248.632C382.624 248.428 382.372 247.96 382.216 247.756C383.404 246.592 384.52 244.792 385.192 242.968ZM383.92 246.064L384.784 245.188L384.796 245.2V253.948H383.92V246.064ZM396.1 245.212H403.636V244.348H395.284V243.688H404.476V245.86H396.1V245.212ZM395.908 246.748H404.608V247.396H395.728L395.908 246.748ZM404.344 246.748H405.184C405.184 246.748 405.172 246.94 405.172 247.06C405.088 247.84 405.004 248.224 404.812 248.416C404.656 248.572 404.476 248.632 404.224 248.632C404.02 248.656 403.612 248.644 403.18 248.62C403.168 248.44 403.096 248.188 403.012 248.008C403.384 248.056 403.708 248.056 403.84 248.056C403.972 248.056 404.056 248.044 404.116 247.972C404.212 247.876 404.272 247.576 404.344 246.856V246.748ZM398.26 242.932H399.088V245.38C399.088 247.132 398.608 248.596 395.14 249.436C395.068 249.244 394.852 248.896 394.696 248.74C397.876 247.984 398.26 246.772 398.26 245.368V242.932ZM401.008 242.932H401.86V248.656H401.008V242.932ZM396.232 248.956H403.852V252.22H402.94V249.712H397.108V252.292H396.232V248.956ZM399.676 250.216H400.576C400.132 252.436 398.908 253.48 394.9 253.96C394.84 253.756 394.66 253.396 394.516 253.204C398.284 252.832 399.292 252.004 399.676 250.216ZM400.252 252.316L400.72 251.704C402.22 252.088 404.248 252.76 405.328 253.252L404.836 253.96C403.804 253.468 401.776 252.748 400.252 252.316ZM395.764 245.212H396.58C396.484 245.956 396.352 246.832 396.232 247.396H395.392C395.536 246.808 395.68 245.932 395.764 245.212ZM408.34 243.772H416.104V244.636H408.34V243.772ZM408.34 246.568H416.092V247.42H408.34V246.568ZM408.28 249.436H416.116V250.288H408.28V249.436ZM407.836 243.772H408.724V248.128C408.724 249.952 408.508 252.436 407.08 254.032C406.936 253.852 406.576 253.552 406.384 253.432C407.704 251.944 407.836 249.808 407.836 248.116V243.772ZM415.744 243.772H416.632V252.736C416.632 253.324 416.488 253.6 416.092 253.756C415.684 253.9 414.988 253.912 413.848 253.9C413.812 253.66 413.668 253.264 413.536 253.024C414.388 253.06 415.204 253.048 415.432 253.048C415.66 253.036 415.744 252.964 415.744 252.736V243.772ZM411.604 244.096H412.516V253.852H411.604V244.096Z" fill="#1A3341" fill-opacity="0.6"/>
<defs>
<radialGradient id="paint0_radial_7002_27702" cx="0" cy="0" r="1" gradientUnits="userSpaceOnUse" gradientTransform="translate(-261 895) rotate(-59.0541) scale(1097.76 534.976)">
<stop stop-color="#51DDE6"/>
<stop offset="0.920242" stop-color="#E2FFF8" stop-opacity="0.7"/>
</radialGradient>
<linearGradient id="paint1_linear_7002_27702" x1="295" y1="128" x2="153.666" y2="278.927" gradientUnits="userSpaceOnUse">
<stop stop-color="#43C3BB"/>
<stop offset="1" stop-color="#78CCD1"/>
</linearGradient>
<linearGradient id="paint2_linear_7002_27702" x1="167" y1="256" x2="167" y2="1.93275e-05" gradientUnits="userSpaceOnUse">
<stop stop-color="#30B099"/>
<stop offset="1" stop-color="#94E5D7"/>
</linearGradient>
<linearGradient id="paint3_linear_7002_27702" x1="39" y1="128" x2="246.583" y2="13.3565" gradientUnits="userSpaceOnUse">
<stop stop-color="#66CFF0"/>
<stop offset="1" stop-color="#A6E0F2"/>
</linearGradient>
<linearGradient id="paint4_linear_7002_27702" x1="5" y1="0" x2="5" y2="10" gradientUnits="userSpaceOnUse">
<stop stop-color="#30B099"/>
<stop offset="1" stop-color="#94E5D7"/>
</linearGradient>
<linearGradient id="paint5_linear_7002_27702" x1="357" y1="223" x2="361.478" y2="231.109" gradientUnits="userSpaceOnUse">
<stop stop-color="#66CFF0"/>
<stop offset="1" stop-color="#A6E0F2"/>
</linearGradient>
</defs>
</svg>
