<svg width="320" height="210" viewBox="0 0 320 210" fill="none" xmlns="http://www.w3.org/2000/svg">
<rect y="197" width="10" height="10" fill="url(#paint0_linear_7002_27698)"/>
<path d="M22.488 206.736H29.508V207.576H22.488V206.736ZM24.132 200.544H27.804V201.36H24.132V200.544ZM24.12 203.592H27.804V204.42H24.12V203.592ZM23.712 197.604H28.38V207.204H27.468V198.444H24.6V207.204H23.712V197.604ZM20.472 197.916H21.336V207.936H20.472V197.916ZM18.492 200.304H23.004V201.156H18.492V200.304ZM20.52 200.628L21.084 200.868C20.616 202.56 19.704 204.66 18.804 205.776C18.708 205.524 18.492 205.152 18.336 204.948C19.176 203.976 20.112 202.116 20.52 200.628ZM22.464 197.088L23.016 197.82C21.912 198.252 20.256 198.576 18.888 198.768C18.84 198.564 18.72 198.264 18.624 198.06C19.98 197.844 21.552 197.496 22.464 197.088ZM21.312 201.336C21.624 201.672 22.764 203.136 23.016 203.484L22.476 204.204C22.176 203.616 21.252 202.188 20.892 201.72L21.312 201.336ZM39.996 197.028L40.536 197.628C39.024 197.928 36.66 198.108 34.716 198.156C34.692 197.976 34.608 197.7 34.524 197.544C36.432 197.472 38.736 197.28 39.996 197.028ZM33.9 199.152H41.328V199.848H33.9V199.152ZM34.416 201.132H40.776V201.84H34.416V201.132ZM37.068 197.7H37.932V201.3H37.068V197.7ZM33.504 196.92L34.332 197.232C33.48 198.312 32.148 199.368 30.972 200.028C30.828 199.86 30.504 199.524 30.3 199.38C31.488 198.804 32.748 197.892 33.504 196.92ZM32.364 198.72L32.988 198.096L33.228 198.156V202.032H32.364V198.72ZM35.508 203.748H36.444V204.54C36.444 205.632 35.976 207.084 31.5 208.008C31.38 207.804 31.128 207.468 30.912 207.288C35.232 206.52 35.508 205.344 35.508 204.516V203.748ZM36.276 206.256L36.744 205.608C38.136 206.04 39.972 206.772 40.932 207.3L40.428 208.02C39.504 207.48 37.68 206.712 36.276 206.256ZM32.256 202.572H39.852V205.908H38.928V203.364H33.156V205.944H32.256V202.572Z" fill="#76848D"/>
<rect x="74" y="197" width="10" height="10" fill="url(#paint1_linear_7002_27698)"/>
<path d="M97.484 196.932H98.468V206.784H97.484V196.932ZM101.756 202.92H102.74V207.936H101.756V202.92ZM93.788 198.012H94.724V201.276H101.288V198.012H102.26V202.152H93.788V198.012ZM93.248 202.92H94.232V206.364H102.236V207.264H93.248V202.92ZM108.488 206.736H115.508V207.576H108.488V206.736ZM110.132 200.544H113.804V201.36H110.132V200.544ZM110.12 203.592H113.804V204.42H110.12V203.592ZM109.712 197.604H114.38V207.204H113.468V198.444H110.6V207.204H109.712V197.604ZM106.472 197.916H107.336V207.936H106.472V197.916ZM104.492 200.304H109.004V201.156H104.492V200.304ZM106.52 200.628L107.084 200.868C106.616 202.56 105.704 204.66 104.804 205.776C104.708 205.524 104.492 205.152 104.336 204.948C105.176 203.976 106.112 202.116 106.52 200.628ZM108.464 197.088L109.016 197.82C107.912 198.252 106.256 198.576 104.888 198.768C104.84 198.564 104.72 198.264 104.624 198.06C105.98 197.844 107.552 197.496 108.464 197.088ZM107.312 201.336C107.624 201.672 108.764 203.136 109.016 203.484L108.476 204.204C108.176 203.616 107.252 202.188 106.892 201.72L107.312 201.336Z" fill="#76848D"/>
<rect x="148" y="197" width="10" height="10" fill="#DBE9EE"/>
<path d="M169.36 197.028H170.284V203.748H169.36V197.028ZM173.704 197.028H174.64V203.748H173.704V197.028ZM166.576 203.184H177.472V204.06H166.576V203.184ZM167.056 199.464H177.04V200.328H167.056V199.464ZM173.044 205.2L173.824 204.744C174.94 205.536 176.44 206.688 177.208 207.408L176.356 207.96C175.636 207.24 174.184 206.052 173.044 205.2ZM169.936 204.756L170.872 205.116C170.02 206.172 168.652 207.276 167.44 207.972C167.26 207.78 166.948 207.504 166.732 207.336C167.92 206.7 169.264 205.656 169.936 204.756ZM178.648 204.864H189.364V205.656H178.648V204.864ZM179.776 202.68H187.348V203.412H179.776V202.68ZM183.508 204.144H184.444V207.048C184.444 207.54 184.3 207.756 183.88 207.876C183.46 207.996 182.764 207.984 181.684 207.984C181.636 207.756 181.492 207.456 181.372 207.24C182.188 207.264 183.016 207.264 183.22 207.252C183.436 207.24 183.508 207.192 183.508 207.024V204.144ZM187.144 202.68H187.396L187.588 202.632L188.2 203.148C187.048 203.796 185.44 204.348 183.964 204.672C183.856 204.504 183.64 204.276 183.508 204.144C184.816 203.856 186.352 203.34 187.144 202.86V202.68ZM181.168 200.196V201.276H186.844V200.196H181.168ZM180.28 199.524H187.78V201.948H180.28V199.524ZM178.756 197.976H189.208V198.756H178.756V197.976ZM183.172 197.016L184.072 196.836C184.336 197.292 184.612 197.904 184.708 198.3L183.772 198.504C183.664 198.108 183.412 197.484 183.172 197.016Z" fill="#76848D"/>
<path d="M61.1107 14.492H58.4647V13.428H61.1107V10.768H62.2167V13.428H64.8907V14.492H62.2167V17.18H61.1107V14.492ZM67.4072 12.434L66.3852 12.07C66.7352 10.334 68.0512 9.088 70.1372 9.088C72.1532 9.088 73.3852 10.25 73.3852 12.028C73.3852 12.966 72.9792 13.904 72.4752 14.576C72.2232 14.926 71.9012 15.262 71.5232 15.612C70.7532 16.298 70.2072 16.662 69.4092 17.166L68.3312 17.838H73.7492V19H66.1192V18.048L68.2472 16.634C68.6252 16.396 68.8912 16.214 69.0452 16.102C69.1992 16.004 69.4512 15.822 69.7872 15.584C70.1232 15.346 70.3752 15.136 70.5432 14.982C70.6972 14.828 70.9072 14.632 71.1452 14.38C71.7892 13.68 72.0272 13.036 72.0972 12.154C72.0972 10.88 71.2712 10.306 70.0532 10.306C69.2972 10.306 68.6952 10.516 68.2612 10.936C67.8272 11.356 67.5332 11.86 67.4072 12.434ZM74.8175 18.202C74.8175 17.81 75.1815 17.418 75.6855 17.418C76.1475 17.418 76.5255 17.81 76.5255 18.202C76.5255 18.65 76.1755 19.028 75.6855 19.028C75.1815 19.028 74.8175 18.65 74.8175 18.202ZM84.445 19H83.227V16.998H77.235V16.186L83.367 9.2H84.445V15.864H86.265V16.998H84.445V19ZM83.227 11.16L78.915 15.864H83.227V11.16Z" fill="#1A3341"/>
<path d="M48 31C48 29.8954 48.8954 29 50 29H94C95.1046 29 96 29.8954 96 31V65H48V31Z" fill="url(#paint2_linear_7002_27698)"/>
<path opacity="0.2" d="M60 29H84V65H60V29Z" fill="url(#paint3_linear_7002_27698)"/>
<path opacity="0.04" d="M84 29H94C95.1046 29 96 29.8954 96 31V65H84V29Z" fill="#0D262C"/>
<path opacity="0.5" d="M48 31C48 29.8954 48.8954 29 50 29H60V65H48V31Z" fill="url(#paint4_linear_7002_27698)"/>
<path d="M155.191 5.492L152.545 5.492V4.428L155.191 4.428V1.768L156.297 1.768V4.428H158.971V5.492H156.297V8.18H155.191V5.492ZM161.334 3.056L160.284 2.58C160.802 1.068 162.16 0.0739993 164.19 0.0739993C165.156 0.0739993 165.954 0.298 166.57 0.746C167.186 1.194 167.494 1.796 167.494 2.538C167.494 3.672 166.892 4.512 165.772 4.834C166.85 4.904 167.718 5.716 167.718 7.172C167.718 8.096 167.382 8.824 166.71 9.342C166.038 9.86 165.184 10.126 164.134 10.126C161.992 10.126 160.508 9.104 160.018 7.494L161.152 7.004C161.754 8.278 162.776 8.922 164.218 8.922C165.576 8.922 166.43 8.292 166.43 7.186C166.43 6.108 165.59 5.562 163.91 5.562H162.818V4.4H163.686C165.212 4.4 166.206 3.714 166.206 2.776C166.206 1.81 165.408 1.264 164.134 1.264C162.636 1.264 161.726 2.034 161.334 3.056Z" fill="#1A3341"/>
<path d="M136 22C136 20.8954 136.895 20 138 20L182 20C183.105 20 184 20.8954 184 22V65H136V22Z" fill="url(#paint5_linear_7002_27698)"/>
<path opacity="0.2" d="M148 20L172 20V65H148V20Z" fill="url(#paint6_linear_7002_27698)"/>
<path opacity="0.04" d="M172 20H182C183.105 20 184 20.8954 184 22V65H172V20Z" fill="#0D262C"/>
<path opacity="0.5" d="M136 22C136 20.8954 136.895 20 138 20L148 20V65H136V22Z" fill="url(#paint7_linear_7002_27698)"/>
<path d="M224 143C224 144.105 224.895 145 226 145H270C271.105 145 272 144.105 272 143V65H224L224 143Z" fill="url(#paint8_linear_7002_27698)"/>
<path opacity="0.2" d="M236 145H260V65H236L236 145Z" fill="url(#paint9_linear_7002_27698)"/>
<path opacity="0.04" d="M260 145H270C271.105 145 272 144.105 272 143V65H260V145Z" fill="#0D262C"/>
<path opacity="0.5" d="M224 143C224 144.105 224.895 145 226 145H236L236 65H224L224 143Z" fill="url(#paint10_linear_7002_27698)"/>
<path d="M240.8 159.492H234.304V158.442H240.8V159.492ZM243.476 159.492L242.468 159.226L243.042 154.2H249.202V155.39H244.12L243.756 158.022C244.246 157.658 244.988 157.476 245.982 157.476C247.13 157.476 248.026 157.784 248.684 158.386C249.328 159.002 249.65 159.786 249.65 160.752C249.65 161.718 249.286 162.53 248.572 163.16C247.844 163.804 246.934 164.126 245.856 164.126C244.022 164.126 242.496 163.258 241.866 161.732L242.986 161.256C243.392 162.194 244.442 162.936 245.856 162.936C247.466 162.936 248.362 162.012 248.362 160.794C248.362 159.492 247.312 158.652 245.646 158.652C244.75 158.652 244.022 158.932 243.476 159.492ZM250.811 163.202C250.811 162.81 251.175 162.418 251.679 162.418C252.141 162.418 252.519 162.81 252.519 163.202C252.519 163.65 252.169 164.028 251.679 164.028C251.175 164.028 250.811 163.65 250.811 163.202ZM260.438 164H259.22V161.998H253.228V161.186L259.36 154.2H260.438V160.864H262.258V161.998H260.438V164ZM259.22 156.16L254.908 160.864H259.22V156.16Z" fill="#1A3341"/>
<line x1="4.37114e-08" y1="65.5" x2="320" y2="65.5" stroke="#ABBEC9"/>
<defs>
<linearGradient id="paint0_linear_7002_27698" x1="5" y1="197" x2="9.47826" y2="205.109" gradientUnits="userSpaceOnUse">
<stop stop-color="#66CFF0"/>
<stop offset="1" stop-color="#A6E0F2"/>
</linearGradient>
<linearGradient id="paint1_linear_7002_27698" x1="79" y1="197" x2="84.8956" y2="202.521" gradientUnits="userSpaceOnUse">
<stop stop-color="#43C3BB"/>
<stop offset="1" stop-color="#78CCD1"/>
</linearGradient>
<linearGradient id="paint2_linear_7002_27698" x1="72" y1="29" x2="72" y2="65" gradientUnits="userSpaceOnUse">
<stop stop-color="#5BB0E0"/>
<stop offset="1" stop-color="#8EDDFF"/>
</linearGradient>
<linearGradient id="paint3_linear_7002_27698" x1="72" y1="29" x2="72" y2="65" gradientUnits="userSpaceOnUse">
<stop stop-color="white" stop-opacity="0"/>
<stop offset="0.739583" stop-color="white"/>
</linearGradient>
<linearGradient id="paint4_linear_7002_27698" x1="54" y1="-41.2" x2="54" y2="65" gradientUnits="userSpaceOnUse">
<stop stop-color="white" stop-opacity="0.05"/>
<stop offset="0.75" stop-color="white" stop-opacity="0.8"/>
</linearGradient>
<linearGradient id="paint5_linear_7002_27698" x1="160" y1="20" x2="160" y2="65" gradientUnits="userSpaceOnUse">
<stop stop-color="#30B099"/>
<stop offset="1" stop-color="#94E5D7"/>
</linearGradient>
<linearGradient id="paint6_linear_7002_27698" x1="160" y1="20" x2="160" y2="65" gradientUnits="userSpaceOnUse">
<stop stop-color="white" stop-opacity="0"/>
<stop offset="0.739583" stop-color="white"/>
</linearGradient>
<linearGradient id="paint7_linear_7002_27698" x1="142" y1="-67.75" x2="142" y2="65" gradientUnits="userSpaceOnUse">
<stop stop-color="white" stop-opacity="0.05"/>
<stop offset="0.75" stop-color="white" stop-opacity="0.8"/>
</linearGradient>
<linearGradient id="paint8_linear_7002_27698" x1="248" y1="145" x2="248" y2="65" gradientUnits="userSpaceOnUse">
<stop stop-color="#CDE3E9"/>
<stop offset="1" stop-color="#D3E8ED"/>
</linearGradient>
<linearGradient id="paint9_linear_7002_27698" x1="248" y1="145" x2="248" y2="65" gradientUnits="userSpaceOnUse">
<stop stop-color="white" stop-opacity="0"/>
<stop offset="0.739583" stop-color="white"/>
</linearGradient>
<linearGradient id="paint10_linear_7002_27698" x1="230" y1="301" x2="230" y2="65" gradientUnits="userSpaceOnUse">
<stop stop-color="white" stop-opacity="0.05"/>
<stop offset="0.75" stop-color="white" stop-opacity="0.8"/>
</linearGradient>
</defs>
</svg>
