<svg width="543" height="250" viewBox="0 0 543 250" fill="none" xmlns="http://www.w3.org/2000/svg">
<path d="M113.654 86.366C113.654 84.672 114.074 83.37 114.9 82.446C115.726 81.536 116.762 81.074 118.008 81.074C119.646 81.074 120.934 81.816 121.48 82.992L120.528 83.636C119.954 82.726 119.1 82.278 117.952 82.278C117.084 82.278 116.356 82.614 115.768 83.286C115.18 83.972 114.886 84.896 114.9 86.086C115.446 85.064 116.72 84.448 118.12 84.448C119.254 84.448 120.164 84.742 120.822 85.344C121.48 85.946 121.816 86.744 121.816 87.724C121.816 88.718 121.452 89.544 120.71 90.174C119.968 90.804 119.044 91.126 117.938 91.126C115.292 91.126 113.654 89.404 113.654 86.366ZM115.054 87.556C115.32 88.942 116.37 89.922 117.924 89.922C118.68 89.922 119.31 89.726 119.8 89.32C120.29 88.928 120.528 88.41 120.528 87.78C120.528 86.394 119.548 85.652 118.05 85.652C117.224 85.652 116.538 85.848 116.006 86.24C115.46 86.632 115.152 87.066 115.054 87.556ZM123.763 91C123.245 91.056 122.853 90.762 122.853 90.258C122.853 89.768 123.161 89.46 123.707 89.46C124.323 89.46 124.729 89.88 124.729 90.664C124.729 92.064 123.959 92.778 122.937 93.016L122.643 92.358C122.951 92.274 123.231 92.106 123.483 91.84C123.721 91.574 123.819 91.294 123.763 91ZM129.612 85.414H130.046C130.676 85.414 131.194 85.26 131.628 84.966C132.048 84.672 132.258 84.28 132.258 83.818C132.258 82.768 131.432 82.236 129.794 82.236C128.226 82.236 127.372 82.81 127.372 83.818C127.372 84.728 128.31 85.414 129.612 85.414ZM130.018 86.52H129.668C128.912 86.52 128.282 86.688 127.792 87.01C127.302 87.332 127.05 87.738 127.05 88.228C127.05 89.292 128.03 89.964 129.808 89.964C131.614 89.964 132.58 89.32 132.58 88.242C132.58 87.164 131.544 86.52 130.018 86.52ZM132.776 90.37C132.062 90.874 131.068 91.126 129.822 91.126C128.576 91.126 127.582 90.874 126.854 90.384C126.126 89.894 125.762 89.222 125.762 88.354C125.762 87.22 126.504 86.324 127.694 85.932C126.616 85.582 126.084 84.728 126.084 83.734C126.084 82.11 127.456 81.074 129.808 81.074C132.174 81.074 133.546 82.11 133.546 83.734C133.546 84.672 133.028 85.386 131.992 85.862C133.238 86.24 133.854 87.052 133.854 88.298C133.854 89.18 133.49 89.88 132.776 90.37ZM138.809 85.414H139.243C139.873 85.414 140.391 85.26 140.825 84.966C141.245 84.672 141.455 84.28 141.455 83.818C141.455 82.768 140.629 82.236 138.991 82.236C137.423 82.236 136.569 82.81 136.569 83.818C136.569 84.728 137.507 85.414 138.809 85.414ZM139.215 86.52H138.865C138.109 86.52 137.479 86.688 136.989 87.01C136.499 87.332 136.247 87.738 136.247 88.228C136.247 89.292 137.227 89.964 139.005 89.964C140.811 89.964 141.777 89.32 141.777 88.242C141.777 87.164 140.741 86.52 139.215 86.52ZM141.973 90.37C141.259 90.874 140.265 91.126 139.019 91.126C137.773 91.126 136.779 90.874 136.051 90.384C135.323 89.894 134.959 89.222 134.959 88.354C134.959 87.22 135.701 86.324 136.891 85.932C135.813 85.582 135.281 84.728 135.281 83.734C135.281 82.11 136.653 81.074 139.005 81.074C141.371 81.074 142.743 82.11 142.743 83.734C142.743 84.672 142.225 85.386 141.189 85.862C142.435 86.24 143.051 87.052 143.051 88.298C143.051 89.18 142.687 89.88 141.973 90.37ZM150.905 91H149.687V88.998H143.695V88.186L149.827 81.2H150.905V87.864H152.725V88.998H150.905V91ZM149.687 83.16L145.375 87.864H149.687V83.16Z" fill="#1A3341"/>
<path d="M120.863 243.372L119.987 243.06C120.287 241.572 121.415 240.504 123.203 240.504C124.931 240.504 125.987 241.5 125.987 243.024C125.987 243.828 125.639 244.632 125.207 245.208C124.991 245.508 124.715 245.796 124.391 246.096C123.731 246.684 123.263 246.996 122.579 247.428L121.655 248.004H126.299V249H119.759V248.184L121.583 246.972C121.907 246.768 122.135 246.612 122.267 246.516C122.399 246.432 122.615 246.276 122.903 246.072C123.191 245.868 123.407 245.688 123.551 245.556C123.683 245.424 123.863 245.256 124.067 245.04C124.619 244.44 124.823 243.888 124.883 243.132C124.883 242.04 124.175 241.548 123.131 241.548C122.483 241.548 121.967 241.728 121.595 242.088C121.223 242.448 120.971 242.88 120.863 243.372ZM127.131 244.8C127.131 243.504 127.431 242.46 128.043 241.68C128.643 240.9 129.531 240.504 130.695 240.504C133.083 240.504 134.271 242.076 134.271 244.8C134.271 246.108 133.971 247.14 133.383 247.92C132.783 248.7 131.895 249.096 130.719 249.096C129.591 249.096 128.715 248.7 128.079 247.908C127.443 247.116 127.131 246.084 127.131 244.8ZM128.235 244.8C128.235 246.852 129.171 248.076 130.719 248.076C132.351 248.076 133.167 246.984 133.167 244.8C133.167 242.616 132.339 241.524 130.695 241.524C129.027 241.524 128.235 242.724 128.235 244.8ZM136.127 243.372L135.251 243.06C135.551 241.572 136.679 240.504 138.467 240.504C140.195 240.504 141.251 241.5 141.251 243.024C141.251 243.828 140.903 244.632 140.471 245.208C140.255 245.508 139.979 245.796 139.655 246.096C138.995 246.684 138.527 246.996 137.843 247.428L136.919 248.004H141.563V249H135.023V248.184L136.847 246.972C137.171 246.768 137.399 246.612 137.531 246.516C137.663 246.432 137.879 246.276 138.167 246.072C138.455 245.868 138.671 245.688 138.815 245.556C138.947 245.424 139.127 245.256 139.331 245.04C139.883 244.44 140.087 243.888 140.147 243.132C140.147 242.04 139.439 241.548 138.395 241.548C137.747 241.548 137.231 241.728 136.859 242.088C136.487 242.448 136.235 242.88 136.127 243.372ZM142.299 242.832L141.915 241.932L144.795 240.552H145.479V249H144.447V241.836L142.299 242.832Z" fill="#1A3341" fill-opacity="0.6"/>
<path d="M105 103C105 101.895 105.895 101 107 101H159C160.105 101 161 101.895 161 103V234H105V103Z" fill="url(#paint0_linear_7002_27705)"/>
<path opacity="0.2" d="M117 101H149V234H117V101Z" fill="url(#paint1_linear_7002_27705)"/>
<path opacity="0.04" d="M149 101H159C160.105 101 161 101.895 161 103V234H149V101Z" fill="#0D262C"/>
<path opacity="0.5" d="M105 103C105 101.895 105.895 101 107 101H117V234H105V103Z" fill="url(#paint2_linear_7002_27705)"/>
<path d="M266.327 137.366C266.327 135.672 266.747 134.37 267.573 133.446C268.399 132.536 269.435 132.074 270.681 132.074C272.319 132.074 273.607 132.816 274.153 133.992L273.201 134.636C272.627 133.726 271.773 133.278 270.625 133.278C269.757 133.278 269.029 133.614 268.441 134.286C267.853 134.972 267.559 135.896 267.573 137.086C268.119 136.064 269.393 135.448 270.793 135.448C271.927 135.448 272.837 135.742 273.495 136.344C274.153 136.946 274.489 137.744 274.489 138.724C274.489 139.718 274.125 140.544 273.383 141.174C272.641 141.804 271.717 142.126 270.611 142.126C267.965 142.126 266.327 140.404 266.327 137.366ZM267.727 138.556C267.993 139.942 269.043 140.922 270.597 140.922C271.353 140.922 271.983 140.726 272.473 140.32C272.963 139.928 273.201 139.41 273.201 138.78C273.201 137.394 272.221 136.652 270.723 136.652C269.897 136.652 269.211 136.848 268.679 137.24C268.133 137.632 267.825 138.066 267.727 138.556ZM276.436 142C275.918 142.056 275.526 141.762 275.526 141.258C275.526 140.768 275.834 140.46 276.38 140.46C276.996 140.46 277.402 140.88 277.402 141.664C277.402 143.064 276.632 143.778 275.61 144.016L275.316 143.358C275.624 143.274 275.904 143.106 276.156 142.84C276.394 142.574 276.492 142.294 276.436 142ZM278.308 134.804L277.86 133.754L281.22 132.144H282.018V142H280.814V133.642L278.308 134.804ZM284.924 135.434L283.902 135.07C284.252 133.334 285.568 132.088 287.654 132.088C289.67 132.088 290.902 133.25 290.902 135.028C290.902 135.966 290.496 136.904 289.992 137.576C289.74 137.926 289.418 138.262 289.04 138.612C288.27 139.298 287.724 139.662 286.926 140.166L285.848 140.838H291.266V142H283.636V141.048L285.764 139.634C286.142 139.396 286.408 139.214 286.562 139.102C286.716 139.004 286.968 138.822 287.304 138.584C287.64 138.346 287.892 138.136 288.06 137.982C288.214 137.828 288.424 137.632 288.662 137.38C289.306 136.68 289.544 136.036 289.614 135.154C289.614 133.88 288.788 133.306 287.57 133.306C286.814 133.306 286.212 133.516 285.778 133.936C285.344 134.356 285.05 134.86 284.924 135.434ZM293.202 135.056L292.152 134.58C292.67 133.068 294.028 132.074 296.058 132.074C297.024 132.074 297.822 132.298 298.438 132.746C299.054 133.194 299.362 133.796 299.362 134.538C299.362 135.672 298.76 136.512 297.64 136.834C298.718 136.904 299.586 137.716 299.586 139.172C299.586 140.096 299.25 140.824 298.578 141.342C297.906 141.86 297.052 142.126 296.002 142.126C293.86 142.126 292.376 141.104 291.886 139.494L293.02 139.004C293.622 140.278 294.644 140.922 296.086 140.922C297.444 140.922 298.298 140.292 298.298 139.186C298.298 138.108 297.458 137.562 295.778 137.562H294.686V136.4H295.554C297.08 136.4 298.074 135.714 298.074 134.776C298.074 133.81 297.276 133.264 296.002 133.264C294.504 133.264 293.594 134.034 293.202 135.056Z" fill="#1A3341"/>
<path d="M269.556 243.372L268.68 243.06C268.98 241.572 270.108 240.504 271.896 240.504C273.624 240.504 274.68 241.5 274.68 243.024C274.68 243.828 274.332 244.632 273.9 245.208C273.684 245.508 273.408 245.796 273.084 246.096C272.424 246.684 271.956 246.996 271.272 247.428L270.348 248.004H274.992V249H268.452V248.184L270.276 246.972C270.6 246.768 270.828 246.612 270.96 246.516C271.092 246.432 271.308 246.276 271.596 246.072C271.884 245.868 272.1 245.688 272.244 245.556C272.376 245.424 272.556 245.256 272.76 245.04C273.312 244.44 273.516 243.888 273.576 243.132C273.576 242.04 272.868 241.548 271.824 241.548C271.176 241.548 270.66 241.728 270.288 242.088C269.916 242.448 269.664 242.88 269.556 243.372ZM275.824 244.8C275.824 243.504 276.124 242.46 276.736 241.68C277.336 240.9 278.224 240.504 279.388 240.504C281.776 240.504 282.964 242.076 282.964 244.8C282.964 246.108 282.664 247.14 282.076 247.92C281.476 248.7 280.588 249.096 279.412 249.096C278.284 249.096 277.408 248.7 276.772 247.908C276.136 247.116 275.824 246.084 275.824 244.8ZM276.928 244.8C276.928 246.852 277.864 248.076 279.412 248.076C281.044 248.076 281.86 246.984 281.86 244.8C281.86 242.616 281.032 241.524 279.388 241.524C277.72 241.524 276.928 242.724 276.928 244.8ZM284.82 243.372L283.944 243.06C284.244 241.572 285.372 240.504 287.16 240.504C288.888 240.504 289.944 241.5 289.944 243.024C289.944 243.828 289.596 244.632 289.164 245.208C288.948 245.508 288.672 245.796 288.348 246.096C287.688 246.684 287.22 246.996 286.536 247.428L285.612 248.004H290.256V249H283.716V248.184L285.54 246.972C285.864 246.768 286.092 246.612 286.224 246.516C286.356 246.432 286.572 246.276 286.86 246.072C287.148 245.868 287.364 245.688 287.508 245.556C287.64 245.424 287.82 245.256 288.024 245.04C288.576 244.44 288.78 243.888 288.84 243.132C288.84 242.04 288.132 241.548 287.088 241.548C286.44 241.548 285.924 241.728 285.552 242.088C285.18 242.448 284.928 242.88 284.82 243.372ZM292.048 243.372L291.172 243.06C291.472 241.572 292.6 240.504 294.388 240.504C296.116 240.504 297.172 241.5 297.172 243.024C297.172 243.828 296.824 244.632 296.392 245.208C296.176 245.508 295.9 245.796 295.576 246.096C294.916 246.684 294.448 246.996 293.764 247.428L292.84 248.004H297.484V249H290.944V248.184L292.768 246.972C293.092 246.768 293.32 246.612 293.452 246.516C293.584 246.432 293.8 246.276 294.088 246.072C294.376 245.868 294.592 245.688 294.736 245.556C294.868 245.424 295.048 245.256 295.252 245.04C295.804 244.44 296.008 243.888 296.068 243.132C296.068 242.04 295.36 241.548 294.316 241.548C293.668 241.548 293.152 241.728 292.78 242.088C292.408 242.448 292.156 242.88 292.048 243.372Z" fill="#1A3341" fill-opacity="0.6"/>
<path d="M255 154C255 152.895 255.895 152 257 152H309C310.105 152 311 152.895 311 154V234H255V154Z" fill="url(#paint3_linear_7002_27705)"/>
<path opacity="0.2" d="M267 152H299V234H267V152Z" fill="url(#paint4_linear_7002_27705)"/>
<path opacity="0.04" d="M299 152H309C310.105 152 311 152.895 311 154V234H299V152Z" fill="#0D262C"/>
<path opacity="0.5" d="M255 154C255 152.895 255.895 152 257 152H267V234H255V154Z" fill="url(#paint5_linear_7002_27705)"/>
<path d="M413.778 107.366C413.778 105.672 414.198 104.37 415.024 103.446C415.85 102.536 416.886 102.074 418.132 102.074C419.77 102.074 421.058 102.816 421.604 103.992L420.652 104.636C420.078 103.726 419.224 103.278 418.076 103.278C417.208 103.278 416.48 103.614 415.892 104.286C415.304 104.972 415.01 105.896 415.024 107.086C415.57 106.064 416.844 105.448 418.244 105.448C419.378 105.448 420.288 105.742 420.946 106.344C421.604 106.946 421.94 107.744 421.94 108.724C421.94 109.718 421.576 110.544 420.834 111.174C420.092 111.804 419.168 112.126 418.062 112.126C415.416 112.126 413.778 110.404 413.778 107.366ZM415.178 108.556C415.444 109.942 416.494 110.922 418.048 110.922C418.804 110.922 419.434 110.726 419.924 110.32C420.414 109.928 420.652 109.41 420.652 108.78C420.652 107.394 419.672 106.652 418.174 106.652C417.348 106.652 416.662 106.848 416.13 107.24C415.584 107.632 415.276 108.066 415.178 108.556ZM423.886 112C423.368 112.056 422.976 111.762 422.976 111.258C422.976 110.768 423.284 110.46 423.83 110.46C424.446 110.46 424.852 110.88 424.852 111.664C424.852 113.064 424.082 113.778 423.06 114.016L422.766 113.358C423.074 113.274 423.354 113.106 423.606 112.84C423.844 112.574 423.942 112.294 423.886 112ZM427.299 107.492L426.291 107.226L426.865 102.2H433.025V103.39H427.943L427.579 106.022C428.069 105.658 428.811 105.476 429.805 105.476C430.953 105.476 431.849 105.784 432.507 106.386C433.151 107.002 433.473 107.786 433.473 108.752C433.473 109.718 433.109 110.53 432.395 111.16C431.667 111.804 430.757 112.126 429.679 112.126C427.845 112.126 426.319 111.258 425.689 109.732L426.809 109.256C427.215 110.194 428.265 110.936 429.679 110.936C431.289 110.936 432.185 110.012 432.185 108.794C432.185 107.492 431.135 106.652 429.469 106.652C428.573 106.652 427.845 106.932 427.299 107.492ZM434.535 107.1C434.535 105.588 434.885 104.37 435.599 103.46C436.299 102.55 437.335 102.088 438.693 102.088C441.479 102.088 442.865 103.922 442.865 107.1C442.865 108.626 442.515 109.83 441.829 110.74C441.129 111.65 440.093 112.112 438.721 112.112C437.405 112.112 436.383 111.65 435.641 110.726C434.899 109.802 434.535 108.598 434.535 107.1ZM435.823 107.1C435.823 109.494 436.915 110.922 438.721 110.922C440.625 110.922 441.577 109.648 441.577 107.1C441.577 104.552 440.611 103.278 438.693 103.278C436.747 103.278 435.823 104.678 435.823 107.1ZM443.911 107.1C443.911 105.588 444.261 104.37 444.975 103.46C445.675 102.55 446.711 102.088 448.069 102.088C450.855 102.088 452.241 103.922 452.241 107.1C452.241 108.626 451.891 109.83 451.205 110.74C450.505 111.65 449.469 112.112 448.097 112.112C446.781 112.112 445.759 111.65 445.017 110.726C444.275 109.802 443.911 108.598 443.911 107.1ZM445.199 107.1C445.199 109.494 446.291 110.922 448.097 110.922C450.001 110.922 450.953 109.648 450.953 107.1C450.953 104.552 449.987 103.278 448.069 103.278C446.123 103.278 445.199 104.678 445.199 107.1Z" fill="#1A3341"/>
<path d="M419.527 243.372L418.651 243.06C418.951 241.572 420.079 240.504 421.867 240.504C423.595 240.504 424.651 241.5 424.651 243.024C424.651 243.828 424.303 244.632 423.871 245.208C423.655 245.508 423.379 245.796 423.055 246.096C422.395 246.684 421.927 246.996 421.243 247.428L420.319 248.004H424.963V249H418.423V248.184L420.247 246.972C420.571 246.768 420.799 246.612 420.931 246.516C421.063 246.432 421.279 246.276 421.567 246.072C421.855 245.868 422.071 245.688 422.215 245.556C422.347 245.424 422.527 245.256 422.731 245.04C423.283 244.44 423.487 243.888 423.547 243.132C423.547 242.04 422.839 241.548 421.795 241.548C421.147 241.548 420.631 241.728 420.259 242.088C419.887 242.448 419.635 242.88 419.527 243.372ZM425.795 244.8C425.795 243.504 426.095 242.46 426.707 241.68C427.307 240.9 428.195 240.504 429.359 240.504C431.747 240.504 432.935 242.076 432.935 244.8C432.935 246.108 432.635 247.14 432.047 247.92C431.447 248.7 430.559 249.096 429.383 249.096C428.255 249.096 427.379 248.7 426.743 247.908C426.107 247.116 425.795 246.084 425.795 244.8ZM426.899 244.8C426.899 246.852 427.835 248.076 429.383 248.076C431.015 248.076 431.831 246.984 431.831 244.8C431.831 242.616 431.003 241.524 429.359 241.524C427.691 241.524 426.899 242.724 426.899 244.8ZM434.791 243.372L433.915 243.06C434.215 241.572 435.343 240.504 437.131 240.504C438.859 240.504 439.915 241.5 439.915 243.024C439.915 243.828 439.567 244.632 439.135 245.208C438.919 245.508 438.643 245.796 438.319 246.096C437.659 246.684 437.191 246.996 436.507 247.428L435.583 248.004H440.227V249H433.687V248.184L435.511 246.972C435.835 246.768 436.063 246.612 436.195 246.516C436.327 246.432 436.543 246.276 436.831 246.072C437.119 245.868 437.335 245.688 437.479 245.556C437.611 245.424 437.791 245.256 437.995 245.04C438.547 244.44 438.751 243.888 438.811 243.132C438.811 242.04 438.103 241.548 437.059 241.548C436.411 241.548 435.895 241.728 435.523 242.088C435.151 242.448 434.899 242.88 434.791 243.372ZM441.887 243.048L440.987 242.64C441.431 241.344 442.595 240.492 444.335 240.492C445.163 240.492 445.847 240.684 446.375 241.068C446.903 241.452 447.167 241.968 447.167 242.604C447.167 243.576 446.651 244.296 445.691 244.572C446.615 244.632 447.359 245.328 447.359 246.576C447.359 247.368 447.071 247.992 446.495 248.436C445.919 248.88 445.187 249.108 444.287 249.108C442.451 249.108 441.179 248.232 440.759 246.852L441.731 246.432C442.247 247.524 443.123 248.076 444.359 248.076C445.523 248.076 446.255 247.536 446.255 246.588C446.255 245.664 445.535 245.196 444.095 245.196H443.159V244.2H443.903C445.211 244.2 446.063 243.612 446.063 242.808C446.063 241.98 445.379 241.512 444.287 241.512C443.003 241.512 442.223 242.172 441.887 243.048Z" fill="#1A3341" fill-opacity="0.6"/>
<path d="M405 124C405 122.895 405.895 122 407 122H459C460.105 122 461 122.895 461 124V234H405V124Z" fill="url(#paint6_linear_7002_27705)"/>
<path opacity="0.2" d="M417 122H449V234H417V122Z" fill="url(#paint7_linear_7002_27705)"/>
<path opacity="0.04" d="M449 122H459C460.105 122 461 122.895 461 124V234H449V122Z" fill="#0D262C"/>
<path opacity="0.5" d="M405 124C405 122.895 405.895 122 407 122H417V234H405V124Z" fill="url(#paint8_linear_7002_27705)"/>
<path d="M233.927 174.354C234.122 174.158 234.122 173.842 233.927 173.646L230.745 170.464C230.55 170.269 230.233 170.269 230.038 170.464C229.843 170.66 229.843 170.976 230.038 171.172L232.867 174L230.038 176.828C229.843 177.024 229.843 177.34 230.038 177.536C230.233 177.731 230.55 177.731 230.745 177.536L233.927 174.354ZM182.18 174.5L233.574 174.5L233.574 173.5L182.18 173.5L182.18 174.5Z" fill="#7DA4C1"/>
<path d="M196.308 161.136H190.74V160.236H196.308V161.136ZM203.258 165H197.846V164.004H200.402V157.836L198.254 158.832L197.87 157.932L200.75 156.552H201.434V164.004H203.258V165ZM210.454 165H205.042V164.004H207.598V157.836L205.45 158.832L205.066 157.932L207.946 156.552H208.63V164.004H210.454V165ZM213.977 165.18L213.185 164.724L219.389 156.336L220.145 156.888L213.977 165.18ZM211.889 158.616C211.889 158.016 212.093 157.524 212.513 157.14C212.933 156.756 213.449 156.564 214.085 156.564C214.709 156.564 215.225 156.756 215.645 157.14C216.065 157.524 216.269 158.016 216.269 158.616C216.269 159.204 216.065 159.696 215.645 160.08C215.225 160.464 214.709 160.656 214.085 160.656C213.449 160.656 212.933 160.464 212.513 160.08C212.093 159.696 211.889 159.204 211.889 158.616ZM212.897 158.616C212.897 159.3 213.449 159.804 214.085 159.804C214.745 159.804 215.261 159.324 215.261 158.616C215.261 157.908 214.721 157.428 214.085 157.428C213.425 157.428 212.897 157.908 212.897 158.616ZM217.661 164.472C217.241 164.088 217.037 163.596 217.037 162.996C217.037 162.396 217.241 161.904 217.661 161.52C218.081 161.148 218.597 160.956 219.233 160.956C219.857 160.956 220.373 161.148 220.793 161.52C221.213 161.904 221.417 162.396 221.417 162.996C221.417 163.584 221.213 164.076 220.793 164.46C220.373 164.856 219.857 165.048 219.233 165.048C218.597 165.048 218.081 164.856 217.661 164.472ZM218.045 162.996C218.045 163.68 218.597 164.184 219.233 164.184C219.893 164.184 220.409 163.704 220.409 162.996C220.409 162.288 219.869 161.808 219.233 161.808C218.573 161.808 218.045 162.288 218.045 162.996Z" fill="#7DA4C1"/>
<path d="M383.927 174.354C384.122 174.158 384.122 173.842 383.927 173.646L380.745 170.464C380.55 170.269 380.233 170.269 380.038 170.464C379.843 170.66 379.843 170.976 380.038 171.172L382.867 174L380.038 176.828C379.843 177.024 379.843 177.34 380.038 177.536C380.233 177.731 380.55 177.731 380.745 177.536L383.927 174.354ZM332.18 174.5L383.574 174.5L383.574 173.5L332.18 173.5L332.18 174.5Z" fill="#318F73"/>
<path d="M341.717 161.136H339.449V160.224H341.717V157.944H342.665V160.224H344.957V161.136H342.665V163.44H341.717V161.136ZM346.214 161.028C346.214 159.576 346.538 158.448 347.186 157.668C347.834 156.888 348.674 156.492 349.706 156.492C351.026 156.492 351.938 157.044 352.442 158.136L351.626 158.688C351.134 157.908 350.618 157.524 349.658 157.524C348.206 157.524 347.27 158.712 347.282 160.788C347.786 159.852 348.626 159.384 349.802 159.384C351.722 159.384 352.73 160.464 352.73 162.192C352.73 163.056 352.442 163.752 351.866 164.292C351.278 164.832 350.546 165.108 349.646 165.108C347.534 165.108 346.214 163.62 346.214 161.028ZM347.414 162.048C347.678 163.404 348.422 164.076 349.634 164.076C350.894 164.076 351.626 163.356 351.626 162.24C351.626 161.028 351.002 160.416 349.742 160.416C348.35 160.416 347.594 161.172 347.414 162.048ZM353.553 164.316C353.553 163.98 353.865 163.644 354.297 163.644C354.693 163.644 355.017 163.98 355.017 164.316C355.017 164.7 354.717 165.024 354.297 165.024C353.865 165.024 353.553 164.7 353.553 164.316ZM357.089 159.372L356.213 159.06C356.513 157.56 357.593 156.504 359.369 156.504C361.097 156.504 362.093 157.5 362.093 159.024C362.057 160.284 361.469 161.28 360.581 162.084C359.957 162.672 359.465 163.008 358.805 163.428L357.881 164.004H362.405V165H356.105V164.184L357.809 162.972C358.805 162.264 359.453 161.772 359.753 161.496C360.581 160.74 360.989 159.948 360.989 159.132C360.989 158.028 360.317 157.548 359.297 157.548C358.001 157.548 357.329 158.364 357.089 159.372ZM365.413 165.18L364.621 164.724L370.825 156.336L371.581 156.888L365.413 165.18ZM363.325 158.616C363.325 158.016 363.529 157.524 363.949 157.14C364.369 156.756 364.885 156.564 365.521 156.564C366.145 156.564 366.661 156.756 367.081 157.14C367.501 157.524 367.705 158.016 367.705 158.616C367.705 159.204 367.501 159.696 367.081 160.08C366.661 160.464 366.145 160.656 365.521 160.656C364.885 160.656 364.369 160.464 363.949 160.08C363.529 159.696 363.325 159.204 363.325 158.616ZM364.333 158.616C364.333 159.3 364.885 159.804 365.521 159.804C366.181 159.804 366.697 159.324 366.697 158.616C366.697 157.908 366.157 157.428 365.521 157.428C364.861 157.428 364.333 157.908 364.333 158.616ZM369.097 164.472C368.677 164.088 368.473 163.596 368.473 162.996C368.473 162.396 368.677 161.904 369.097 161.52C369.517 161.148 370.033 160.956 370.669 160.956C371.293 160.956 371.809 161.148 372.229 161.52C372.649 161.904 372.853 162.396 372.853 162.996C372.853 163.584 372.649 164.076 372.229 164.46C371.809 164.856 371.293 165.048 370.669 165.048C370.033 165.048 369.517 164.856 369.097 164.472ZM369.481 162.996C369.481 163.68 370.033 164.184 370.669 164.184C371.329 164.184 371.845 163.704 371.845 162.996C371.845 162.288 371.305 161.808 370.669 161.808C370.009 161.808 369.481 162.288 369.481 162.996Z" fill="#318F73"/>
<path d="M130.5 51L284 36.5L435 24.5" stroke="url(#paint9_linear_7002_27705)" stroke-width="5"/>
<circle cx="131" cy="51" r="7" fill="#64BBEA" stroke="white" stroke-width="2"/>
<path d="M121.728 39H117.218V38.17H119.348V33.03L117.558 33.86L117.238 33.11L119.638 31.96H120.208V38.17H121.728V39ZM122.814 35.5C122.814 34.42 123.044 33.55 123.494 32.9C123.944 32.25 124.604 31.92 125.484 31.92C127.274 31.92 128.164 33.23 128.164 35.5C128.164 36.59 127.944 37.45 127.494 38.1C127.044 38.75 126.384 39.08 125.504 39.08C124.654 39.08 123.994 38.75 123.524 38.09C123.054 37.43 122.814 36.57 122.814 35.5ZM123.734 35.5C123.734 37.19 124.394 38.23 125.504 38.23C126.664 38.23 127.244 37.32 127.244 35.5C127.244 33.68 126.654 32.77 125.484 32.77C124.314 32.77 123.734 33.68 123.734 35.5ZM128.99 38.43C128.99 38.15 129.25 37.87 129.61 37.87C129.94 37.87 130.21 38.15 130.21 38.43C130.21 38.75 129.96 39.02 129.61 39.02C129.25 39.02 128.99 38.75 128.99 38.43ZM131.087 35.69C131.087 34.48 131.357 33.54 131.897 32.89C132.437 32.24 133.137 31.91 133.997 31.91C135.097 31.91 135.857 32.37 136.277 33.28L135.597 33.74C135.187 33.09 134.757 32.77 133.957 32.77C132.747 32.77 131.967 33.76 131.977 35.49C132.397 34.71 133.097 34.32 134.077 34.32C135.677 34.32 136.517 35.22 136.517 36.66C136.517 37.38 136.277 37.96 135.797 38.41C135.307 38.86 134.697 39.09 133.947 39.09C132.187 39.09 131.087 37.85 131.087 35.69ZM132.087 36.54C132.307 37.67 132.927 38.23 133.937 38.23C134.987 38.23 135.597 37.63 135.597 36.7C135.597 35.69 135.077 35.18 134.027 35.18C132.867 35.18 132.237 35.81 132.087 36.54ZM138.873 39.15L138.213 38.77L143.383 31.78L144.013 32.24L138.873 39.15ZM137.133 33.68C137.133 33.18 137.303 32.77 137.653 32.45C138.003 32.13 138.433 31.97 138.963 31.97C139.483 31.97 139.913 32.13 140.263 32.45C140.613 32.77 140.783 33.18 140.783 33.68C140.783 34.17 140.613 34.58 140.263 34.9C139.913 35.22 139.483 35.38 138.963 35.38C138.433 35.38 138.003 35.22 137.653 34.9C137.303 34.58 137.133 34.17 137.133 33.68ZM137.973 33.68C137.973 34.25 138.433 34.67 138.963 34.67C139.513 34.67 139.943 34.27 139.943 33.68C139.943 33.09 139.493 32.69 138.963 32.69C138.413 32.69 137.973 33.09 137.973 33.68ZM141.943 38.56C141.593 38.24 141.423 37.83 141.423 37.33C141.423 36.83 141.593 36.42 141.943 36.1C142.293 35.79 142.723 35.63 143.253 35.63C143.773 35.63 144.203 35.79 144.553 36.1C144.903 36.42 145.073 36.83 145.073 37.33C145.073 37.82 144.903 38.23 144.553 38.55C144.203 38.88 143.773 39.04 143.253 39.04C142.723 39.04 142.293 38.88 141.943 38.56ZM142.263 37.33C142.263 37.9 142.723 38.32 143.253 38.32C143.803 38.32 144.233 37.92 144.233 37.33C144.233 36.74 143.783 36.34 143.253 36.34C142.703 36.34 142.263 36.74 142.263 37.33Z" fill="#357D94"/>
<circle cx="285" cy="34" r="7" fill="#64BBEA" stroke="white" stroke-width="2"/>
<path d="M275.728 22H271.218V21.17H273.348V16.03L271.558 16.86L271.238 16.11L273.638 14.96H274.208V21.17H275.728V22ZM281.724 22H277.214V21.17H279.344V16.03L277.554 16.86L277.234 16.11L279.634 14.96H280.204V21.17H281.724V22ZM282.99 21.43C282.99 21.15 283.25 20.87 283.61 20.87C283.94 20.87 284.21 21.15 284.21 21.43C284.21 21.75 283.96 22.02 283.61 22.02C283.25 22.02 282.99 21.75 282.99 21.43ZM285.027 18.5C285.027 17.42 285.257 16.55 285.707 15.9C286.157 15.25 286.817 14.92 287.697 14.92C289.487 14.92 290.377 16.23 290.377 18.5C290.377 19.59 290.157 20.45 289.707 21.1C289.257 21.75 288.597 22.08 287.717 22.08C286.867 22.08 286.207 21.75 285.737 21.09C285.267 20.43 285.027 19.57 285.027 18.5ZM285.947 18.5C285.947 20.19 286.607 21.23 287.717 21.23C288.877 21.23 289.457 20.32 289.457 18.5C289.457 16.68 288.867 15.77 287.697 15.77C286.527 15.77 285.947 16.68 285.947 18.5ZM292.873 22.15L292.213 21.77L297.383 14.78L298.013 15.24L292.873 22.15ZM291.133 16.68C291.133 16.18 291.303 15.77 291.653 15.45C292.003 15.13 292.433 14.97 292.963 14.97C293.483 14.97 293.913 15.13 294.263 15.45C294.613 15.77 294.783 16.18 294.783 16.68C294.783 17.17 294.613 17.58 294.263 17.9C293.913 18.22 293.483 18.38 292.963 18.38C292.433 18.38 292.003 18.22 291.653 17.9C291.303 17.58 291.133 17.17 291.133 16.68ZM291.973 16.68C291.973 17.25 292.433 17.67 292.963 17.67C293.513 17.67 293.943 17.27 293.943 16.68C293.943 16.09 293.493 15.69 292.963 15.69C292.413 15.69 291.973 16.09 291.973 16.68ZM295.943 21.56C295.593 21.24 295.423 20.83 295.423 20.33C295.423 19.83 295.593 19.42 295.943 19.1C296.293 18.79 296.723 18.63 297.253 18.63C297.773 18.63 298.203 18.79 298.553 19.1C298.903 19.42 299.073 19.83 299.073 20.33C299.073 20.82 298.903 21.23 298.553 21.55C298.203 21.88 297.773 22.04 297.253 22.04C296.723 22.04 296.293 21.88 295.943 21.56ZM296.263 20.33C296.263 20.9 296.723 21.32 297.253 21.32C297.803 21.32 298.233 20.92 298.233 20.33C298.233 19.74 297.783 19.34 297.253 19.34C296.703 19.34 296.263 19.74 296.263 20.33Z" fill="#357D94"/>
<circle cx="433" cy="23" r="7" fill="#64BBEA" stroke="white" stroke-width="2"/>
<path d="M425.728 10H421.218V9.17H423.348V4.03L421.558 4.86L421.238 4.11L423.638 2.96H424.208V9.17H425.728V10ZM431.724 10H427.214V9.17H429.344V4.03L427.554 4.86L427.234 4.11L429.634 2.96H430.204V9.17H431.724V10ZM432.99 9.43C432.99 9.15 433.25 8.87 433.61 8.87C433.94 8.87 434.21 9.15 434.21 9.43C434.21 9.75 433.96 10.02 433.61 10.02C433.25 10.02 432.99 9.75 432.99 9.43ZM439.277 3.85H435.037V3H440.347V3.57L436.867 10H435.917L439.277 3.85ZM442.873 10.15L442.213 9.77L447.383 2.78L448.013 3.24L442.873 10.15ZM441.133 4.68C441.133 4.18 441.303 3.77 441.653 3.45C442.003 3.13 442.433 2.97 442.963 2.97C443.483 2.97 443.913 3.13 444.263 3.45C444.613 3.77 444.783 4.18 444.783 4.68C444.783 5.17 444.613 5.58 444.263 5.9C443.913 6.22 443.483 6.38 442.963 6.38C442.433 6.38 442.003 6.22 441.653 5.9C441.303 5.58 441.133 5.17 441.133 4.68ZM441.973 4.68C441.973 5.25 442.433 5.67 442.963 5.67C443.513 5.67 443.943 5.27 443.943 4.68C443.943 4.09 443.493 3.69 442.963 3.69C442.413 3.69 441.973 4.09 441.973 4.68ZM445.943 9.56C445.593 9.24 445.423 8.83 445.423 8.33C445.423 7.83 445.593 7.42 445.943 7.1C446.293 6.79 446.723 6.63 447.253 6.63C447.773 6.63 448.203 6.79 448.553 7.1C448.903 7.42 449.073 7.83 449.073 8.33C449.073 8.82 448.903 9.23 448.553 9.55C448.203 9.88 447.773 10.04 447.253 10.04C446.723 10.04 446.293 9.88 445.943 9.56ZM446.263 8.33C446.263 8.9 446.723 9.32 447.253 9.32C447.803 9.32 448.233 8.92 448.233 8.33C448.233 7.74 447.783 7.34 447.253 7.34C446.703 7.34 446.263 7.74 446.263 8.33Z" fill="#357D94"/>
<line y1="233.5" x2="543" y2="233.5" stroke="#ABBEC9"/>
<defs>
<linearGradient id="paint0_linear_7002_27705" x1="133" y1="101" x2="133" y2="234" gradientUnits="userSpaceOnUse">
<stop stop-color="#45B8DB"/>
<stop offset="1" stop-color="#ADE4E4"/>
</linearGradient>
<linearGradient id="paint1_linear_7002_27705" x1="133" y1="101" x2="133" y2="234" gradientUnits="userSpaceOnUse">
<stop stop-color="white" stop-opacity="0"/>
<stop offset="0.739583" stop-color="white"/>
</linearGradient>
<linearGradient id="paint2_linear_7002_27705" x1="111" y1="-158.35" x2="111" y2="234" gradientUnits="userSpaceOnUse">
<stop stop-color="white" stop-opacity="0.05"/>
<stop offset="0.75" stop-color="white" stop-opacity="0.8"/>
</linearGradient>
<linearGradient id="paint3_linear_7002_27705" x1="283" y1="152" x2="283" y2="234" gradientUnits="userSpaceOnUse">
<stop stop-color="#45B8DB"/>
<stop offset="1" stop-color="#ADE4E4"/>
</linearGradient>
<linearGradient id="paint4_linear_7002_27705" x1="283" y1="152" x2="283" y2="234" gradientUnits="userSpaceOnUse">
<stop stop-color="white" stop-opacity="0"/>
<stop offset="0.739583" stop-color="white"/>
</linearGradient>
<linearGradient id="paint5_linear_7002_27705" x1="261" y1="-7.89999" x2="261" y2="234" gradientUnits="userSpaceOnUse">
<stop stop-color="white" stop-opacity="0.05"/>
<stop offset="0.75" stop-color="white" stop-opacity="0.8"/>
</linearGradient>
<linearGradient id="paint6_linear_7002_27705" x1="433" y1="122" x2="433" y2="234" gradientUnits="userSpaceOnUse">
<stop stop-color="#45B8DB"/>
<stop offset="1" stop-color="#ADE4E4"/>
</linearGradient>
<linearGradient id="paint7_linear_7002_27705" x1="433" y1="122" x2="433" y2="234" gradientUnits="userSpaceOnUse">
<stop stop-color="white" stop-opacity="0"/>
<stop offset="0.739583" stop-color="white"/>
</linearGradient>
<linearGradient id="paint8_linear_7002_27705" x1="411" y1="-96.4" x2="411" y2="234" gradientUnits="userSpaceOnUse">
<stop stop-color="white" stop-opacity="0.05"/>
<stop offset="0.75" stop-color="white" stop-opacity="0.8"/>
</linearGradient>
<linearGradient id="paint9_linear_7002_27705" x1="435" y1="24.5" x2="130.5" y2="24.5" gradientUnits="userSpaceOnUse">
<stop stop-color="#56BCF6"/>
<stop offset="1" stop-color="#A2DEE7"/>
</linearGradient>
</defs>
</svg>
