<svg width="448" height="221" viewBox="0 0 448 221" fill="none" xmlns="http://www.w3.org/2000/svg">
<path d="M97.7792 79.222H91.8432V78.032H99.2772V78.83L94.4052 87.832H93.0752L97.7792 79.222ZM100.114 87.832C99.5956 87.888 99.2036 87.594 99.2036 87.09C99.2036 86.6 99.5116 86.292 100.058 86.292C100.674 86.292 101.08 86.712 101.08 87.496C101.08 88.896 100.31 89.61 99.2876 89.848L98.9936 89.19C99.3016 89.106 99.5816 88.938 99.8336 88.672C100.072 88.406 100.17 88.126 100.114 87.832ZM110.246 82.75C110.246 84.416 109.854 85.704 109.056 86.6C108.258 87.51 107.194 87.958 105.864 87.958C104.24 87.958 102.966 87.272 102.336 86.222L103.344 85.522C103.904 86.306 104.926 86.754 106.032 86.754C106.942 86.754 107.67 86.39 108.244 85.662C108.818 84.948 109.056 84.052 108.986 82.988C108.524 84.052 107.362 84.836 105.808 84.836C104.716 84.836 103.82 84.528 103.12 83.898C102.406 83.282 102.056 82.47 102.056 81.476C102.056 80.384 102.434 79.516 103.19 78.872C103.946 78.228 104.954 77.906 106.2 77.906C108.72 77.906 110.246 79.67 110.246 82.75ZM108.776 81.434C108.566 80.132 107.67 79.11 106.06 79.11C104.38 79.11 103.344 79.978 103.344 81.434C103.344 82.82 104.394 83.632 106.032 83.632C106.774 83.632 107.404 83.408 107.894 82.96C108.384 82.512 108.678 82.008 108.776 81.434ZM111.296 83.198C111.296 81.504 111.716 80.202 112.542 79.278C113.368 78.368 114.404 77.906 115.65 77.906C117.288 77.906 118.576 78.648 119.122 79.824L118.17 80.468C117.596 79.558 116.742 79.11 115.594 79.11C114.726 79.11 113.998 79.446 113.41 80.118C112.822 80.804 112.528 81.728 112.542 82.918C113.088 81.896 114.362 81.28 115.762 81.28C116.896 81.28 117.806 81.574 118.464 82.176C119.122 82.778 119.458 83.576 119.458 84.556C119.458 85.55 119.094 86.376 118.352 87.006C117.61 87.636 116.686 87.958 115.58 87.958C112.934 87.958 111.296 86.236 111.296 83.198ZM112.696 84.388C112.962 85.774 114.012 86.754 115.566 86.754C116.322 86.754 116.952 86.558 117.442 86.152C117.932 85.76 118.17 85.242 118.17 84.612C118.17 83.226 117.19 82.484 115.692 82.484C114.866 82.484 114.18 82.68 113.648 83.072C113.102 83.464 112.794 83.898 112.696 84.388ZM121.587 81.266L120.565 80.902C120.915 79.166 122.231 77.92 124.317 77.92C126.333 77.92 127.565 79.082 127.565 80.86C127.565 81.798 127.159 82.736 126.655 83.408C126.403 83.758 126.081 84.094 125.703 84.444C124.933 85.13 124.387 85.494 123.589 85.998L122.511 86.67H127.929V87.832H120.299V86.88L122.427 85.466C122.805 85.228 123.071 85.046 123.225 84.934C123.379 84.836 123.631 84.654 123.967 84.416C124.303 84.178 124.555 83.968 124.723 83.814C124.877 83.66 125.087 83.464 125.325 83.212C125.969 82.512 126.207 81.868 126.277 80.986C126.277 79.712 125.451 79.138 124.233 79.138C123.477 79.138 122.875 79.348 122.441 79.768C122.007 80.188 121.713 80.692 121.587 81.266Z" fill="#1A3341"/>
<path d="M97.863 215.204L96.987 214.892C97.287 213.404 98.415 212.336 100.203 212.336C101.931 212.336 102.987 213.332 102.987 214.856C102.987 215.66 102.639 216.464 102.207 217.04C101.991 217.34 101.715 217.628 101.391 217.928C100.731 218.516 100.263 218.828 99.579 219.26L98.655 219.836H103.299V220.832H96.759V220.016L98.583 218.804C98.907 218.6 99.135 218.444 99.267 218.348C99.399 218.264 99.615 218.108 99.903 217.904C100.191 217.7 100.407 217.52 100.551 217.388C100.683 217.256 100.863 217.088 101.067 216.872C101.619 216.272 101.823 215.72 101.883 214.964C101.883 213.872 101.175 213.38 100.131 213.38C99.483 213.38 98.967 213.56 98.595 213.92C98.223 214.28 97.971 214.712 97.863 215.204ZM104.131 216.632C104.131 215.336 104.431 214.292 105.043 213.512C105.643 212.732 106.531 212.336 107.695 212.336C110.083 212.336 111.271 213.908 111.271 216.632C111.271 217.94 110.971 218.972 110.383 219.752C109.783 220.532 108.895 220.928 107.719 220.928C106.591 220.928 105.715 220.532 105.079 219.74C104.443 218.948 104.131 217.916 104.131 216.632ZM105.235 216.632C105.235 218.684 106.171 219.908 107.719 219.908C109.351 219.908 110.167 218.816 110.167 216.632C110.167 214.448 109.339 213.356 107.695 213.356C106.027 213.356 105.235 214.556 105.235 216.632ZM113.127 215.204L112.251 214.892C112.551 213.404 113.679 212.336 115.467 212.336C117.195 212.336 118.251 213.332 118.251 214.856C118.251 215.66 117.903 216.464 117.471 217.04C117.255 217.34 116.979 217.628 116.655 217.928C115.995 218.516 115.527 218.828 114.843 219.26L113.919 219.836H118.563V220.832H112.023V220.016L113.847 218.804C114.171 218.6 114.399 218.444 114.531 218.348C114.663 218.264 114.879 218.108 115.167 217.904C115.455 217.7 115.671 217.52 115.815 217.388C115.947 217.256 116.127 217.088 116.331 216.872C116.883 216.272 117.087 215.72 117.147 214.964C117.147 213.872 116.439 213.38 115.395 213.38C114.747 213.38 114.231 213.56 113.859 213.92C113.487 214.28 113.235 214.712 113.127 215.204ZM119.299 214.664L118.915 213.764L121.795 212.384H122.479V220.832H121.447V213.668L119.299 214.664Z" fill="#1A3341" fill-opacity="0.6"/>
<path d="M82 99.832C82 98.7275 82.8954 97.832 84 97.832H136C137.105 97.832 138 98.7275 138 99.832V205.832H82V99.832Z" fill="url(#paint0_linear_7002_27703)"/>
<path opacity="0.2" d="M94 97.832H126V205.832H94V97.832Z" fill="url(#paint1_linear_7002_27703)"/>
<path opacity="0.04" d="M126 97.832H136C137.105 97.832 138 98.7275 138 99.832V205.832H126V97.832Z" fill="#0D262C"/>
<path opacity="0.5" d="M82 99.832C82 98.7275 82.8954 97.832 84 97.832H94V205.832H82V99.832Z" fill="url(#paint2_linear_7002_27703)"/>
<path d="M219.673 175.222H213.737V174.032H221.171V174.83L216.299 183.832H214.969L219.673 175.222ZM222.007 183.832C221.489 183.888 221.097 183.594 221.097 183.09C221.097 182.6 221.405 182.292 221.951 182.292C222.567 182.292 222.973 182.712 222.973 183.496C222.973 184.896 222.203 185.61 221.181 185.848L220.887 185.19C221.195 185.106 221.475 184.938 221.727 184.672C221.965 184.406 222.063 184.126 222.007 183.832ZM227.856 178.246H228.29C228.92 178.246 229.438 178.092 229.872 177.798C230.292 177.504 230.502 177.112 230.502 176.65C230.502 175.6 229.676 175.068 228.038 175.068C226.47 175.068 225.616 175.642 225.616 176.65C225.616 177.56 226.554 178.246 227.856 178.246ZM228.262 179.352H227.912C227.156 179.352 226.526 179.52 226.036 179.842C225.546 180.164 225.294 180.57 225.294 181.06C225.294 182.124 226.274 182.796 228.052 182.796C229.858 182.796 230.824 182.152 230.824 181.074C230.824 179.996 229.788 179.352 228.262 179.352ZM231.02 183.202C230.306 183.706 229.312 183.958 228.066 183.958C226.82 183.958 225.826 183.706 225.098 183.216C224.37 182.726 224.006 182.054 224.006 181.186C224.006 180.052 224.748 179.156 225.938 178.764C224.86 178.414 224.328 177.56 224.328 176.566C224.328 174.942 225.7 173.906 228.052 173.906C230.418 173.906 231.79 174.942 231.79 176.566C231.79 177.504 231.272 178.218 230.236 178.694C231.482 179.072 232.098 179.884 232.098 181.13C232.098 182.012 231.734 182.712 231.02 183.202ZM233.078 176.636L232.63 175.586L235.99 173.976H236.788V183.832H235.584V175.474L233.078 176.636ZM239.693 177.266L238.671 176.902C239.021 175.166 240.337 173.92 242.423 173.92C244.439 173.92 245.671 175.082 245.671 176.86C245.671 177.798 245.265 178.736 244.761 179.408C244.509 179.758 244.187 180.094 243.809 180.444C243.039 181.13 242.493 181.494 241.695 181.998L240.617 182.67H246.035V183.832H238.405V182.88L240.533 181.466C240.911 181.228 241.177 181.046 241.331 180.934C241.485 180.836 241.737 180.654 242.073 180.416C242.409 180.178 242.661 179.968 242.829 179.814C242.983 179.66 243.193 179.464 243.431 179.212C244.075 178.512 244.313 177.868 244.383 176.986C244.383 175.712 243.557 175.138 242.339 175.138C241.583 175.138 240.981 175.348 240.547 175.768C240.113 176.188 239.819 176.692 239.693 177.266Z" fill="#1A3341"/>
<path d="M216.556 215.204L215.68 214.892C215.98 213.404 217.108 212.336 218.896 212.336C220.624 212.336 221.68 213.332 221.68 214.856C221.68 215.66 221.332 216.464 220.9 217.04C220.684 217.34 220.408 217.628 220.084 217.928C219.424 218.516 218.956 218.828 218.272 219.26L217.348 219.836H221.992V220.832H215.452V220.016L217.276 218.804C217.6 218.6 217.828 218.444 217.96 218.348C218.092 218.264 218.308 218.108 218.596 217.904C218.884 217.7 219.1 217.52 219.244 217.388C219.376 217.256 219.556 217.088 219.76 216.872C220.312 216.272 220.516 215.72 220.576 214.964C220.576 213.872 219.868 213.38 218.824 213.38C218.176 213.38 217.66 213.56 217.288 213.92C216.916 214.28 216.664 214.712 216.556 215.204ZM222.824 216.632C222.824 215.336 223.124 214.292 223.736 213.512C224.336 212.732 225.224 212.336 226.388 212.336C228.776 212.336 229.964 213.908 229.964 216.632C229.964 217.94 229.664 218.972 229.076 219.752C228.476 220.532 227.588 220.928 226.412 220.928C225.284 220.928 224.408 220.532 223.772 219.74C223.136 218.948 222.824 217.916 222.824 216.632ZM223.928 216.632C223.928 218.684 224.864 219.908 226.412 219.908C228.044 219.908 228.86 218.816 228.86 216.632C228.86 214.448 228.032 213.356 226.388 213.356C224.72 213.356 223.928 214.556 223.928 216.632ZM231.82 215.204L230.944 214.892C231.244 213.404 232.372 212.336 234.16 212.336C235.888 212.336 236.944 213.332 236.944 214.856C236.944 215.66 236.596 216.464 236.164 217.04C235.948 217.34 235.672 217.628 235.348 217.928C234.688 218.516 234.22 218.828 233.536 219.26L232.612 219.836H237.256V220.832H230.716V220.016L232.54 218.804C232.864 218.6 233.092 218.444 233.224 218.348C233.356 218.264 233.572 218.108 233.86 217.904C234.148 217.7 234.364 217.52 234.508 217.388C234.64 217.256 234.82 217.088 235.024 216.872C235.576 216.272 235.78 215.72 235.84 214.964C235.84 213.872 235.132 213.38 234.088 213.38C233.44 213.38 232.924 213.56 232.552 213.92C232.18 214.28 231.928 214.712 231.82 215.204ZM239.048 215.204L238.172 214.892C238.472 213.404 239.6 212.336 241.388 212.336C243.116 212.336 244.172 213.332 244.172 214.856C244.172 215.66 243.824 216.464 243.392 217.04C243.176 217.34 242.9 217.628 242.576 217.928C241.916 218.516 241.448 218.828 240.764 219.26L239.84 219.836H244.484V220.832H237.944V220.016L239.768 218.804C240.092 218.6 240.32 218.444 240.452 218.348C240.584 218.264 240.8 218.108 241.088 217.904C241.376 217.7 241.592 217.52 241.736 217.388C241.868 217.256 242.048 217.088 242.252 216.872C242.804 216.272 243.008 215.72 243.068 214.964C243.068 213.872 242.36 213.38 241.316 213.38C240.668 213.38 240.152 213.56 239.78 213.92C239.408 214.28 239.156 214.712 239.048 215.204Z" fill="#1A3341" fill-opacity="0.6"/>
<path d="M202 195.832C202 194.727 202.895 193.832 204 193.832H256C257.105 193.832 258 194.727 258 195.832V205.832H202V195.832Z" fill="url(#paint3_linear_7002_27703)"/>
<path opacity="0.2" d="M214 193.832H246V205.832H214V193.832Z" fill="url(#paint4_linear_7002_27703)"/>
<path opacity="0.04" d="M246 193.832H256C257.105 193.832 258 194.727 258 195.832V205.832H246V193.832Z" fill="#0D262C"/>
<path opacity="0.5" d="M202 195.832C202 194.727 202.895 193.832 204 193.832H214V205.832H202V195.832Z" fill="url(#paint5_linear_7002_27703)"/>
<path d="M337.349 86.222H331.413V85.032H338.847V85.83L333.975 94.832H332.645L337.349 86.222ZM339.683 94.832C339.165 94.888 338.773 94.594 338.773 94.09C338.773 93.6 339.081 93.292 339.627 93.292C340.243 93.292 340.649 93.712 340.649 94.496C340.649 95.896 339.879 96.61 338.857 96.848L338.563 96.19C338.871 96.106 339.151 95.938 339.403 95.672C339.641 95.406 339.739 95.126 339.683 94.832ZM349.815 89.75C349.815 91.416 349.423 92.704 348.625 93.6C347.827 94.51 346.763 94.958 345.433 94.958C343.809 94.958 342.535 94.272 341.905 93.222L342.913 92.522C343.473 93.306 344.495 93.754 345.601 93.754C346.511 93.754 347.239 93.39 347.813 92.662C348.387 91.948 348.625 91.052 348.555 89.988C348.093 91.052 346.931 91.836 345.377 91.836C344.285 91.836 343.389 91.528 342.689 90.898C341.975 90.282 341.625 89.47 341.625 88.476C341.625 87.384 342.003 86.516 342.759 85.872C343.515 85.228 344.523 84.906 345.769 84.906C348.289 84.906 349.815 86.67 349.815 89.75ZM348.345 88.434C348.135 87.132 347.239 86.11 345.629 86.11C343.949 86.11 342.913 86.978 342.913 88.434C342.913 89.82 343.963 90.632 345.601 90.632C346.343 90.632 346.973 90.408 347.463 89.96C347.953 89.512 348.247 89.008 348.345 88.434ZM357.627 94.832H356.409V92.83H350.417V92.018L356.549 85.032H357.627V91.696H359.447V92.83H357.627V94.832ZM356.409 86.992L352.097 91.696H356.409V86.992ZM368.28 89.75C368.28 91.416 367.888 92.704 367.09 93.6C366.292 94.51 365.228 94.958 363.898 94.958C362.274 94.958 361 94.272 360.37 93.222L361.378 92.522C361.938 93.306 362.96 93.754 364.066 93.754C364.976 93.754 365.704 93.39 366.278 92.662C366.852 91.948 367.09 91.052 367.02 89.988C366.558 91.052 365.396 91.836 363.842 91.836C362.75 91.836 361.854 91.528 361.154 90.898C360.44 90.282 360.09 89.47 360.09 88.476C360.09 87.384 360.468 86.516 361.224 85.872C361.98 85.228 362.988 84.906 364.234 84.906C366.754 84.906 368.28 86.67 368.28 89.75ZM366.81 88.434C366.6 87.132 365.704 86.11 364.094 86.11C362.414 86.11 361.378 86.978 361.378 88.434C361.378 89.82 362.428 90.632 364.066 90.632C364.808 90.632 365.438 90.408 365.928 89.96C366.418 89.512 366.712 89.008 366.81 88.434Z" fill="#1A3341"/>
<path d="M336.527 215.204L335.651 214.892C335.951 213.404 337.079 212.336 338.867 212.336C340.595 212.336 341.651 213.332 341.651 214.856C341.651 215.66 341.303 216.464 340.871 217.04C340.655 217.34 340.379 217.628 340.055 217.928C339.395 218.516 338.927 218.828 338.243 219.26L337.319 219.836H341.963V220.832H335.423V220.016L337.247 218.804C337.571 218.6 337.799 218.444 337.931 218.348C338.063 218.264 338.279 218.108 338.567 217.904C338.855 217.7 339.071 217.52 339.215 217.388C339.347 217.256 339.527 217.088 339.731 216.872C340.283 216.272 340.487 215.72 340.547 214.964C340.547 213.872 339.839 213.38 338.795 213.38C338.147 213.38 337.631 213.56 337.259 213.92C336.887 214.28 336.635 214.712 336.527 215.204ZM342.795 216.632C342.795 215.336 343.095 214.292 343.707 213.512C344.307 212.732 345.195 212.336 346.359 212.336C348.747 212.336 349.935 213.908 349.935 216.632C349.935 217.94 349.635 218.972 349.047 219.752C348.447 220.532 347.559 220.928 346.383 220.928C345.255 220.928 344.379 220.532 343.743 219.74C343.107 218.948 342.795 217.916 342.795 216.632ZM343.899 216.632C343.899 218.684 344.835 219.908 346.383 219.908C348.015 219.908 348.831 218.816 348.831 216.632C348.831 214.448 348.003 213.356 346.359 213.356C344.691 213.356 343.899 214.556 343.899 216.632ZM351.791 215.204L350.915 214.892C351.215 213.404 352.343 212.336 354.131 212.336C355.859 212.336 356.915 213.332 356.915 214.856C356.915 215.66 356.567 216.464 356.135 217.04C355.919 217.34 355.643 217.628 355.319 217.928C354.659 218.516 354.191 218.828 353.507 219.26L352.583 219.836H357.227V220.832H350.687V220.016L352.511 218.804C352.835 218.6 353.063 218.444 353.195 218.348C353.327 218.264 353.543 218.108 353.831 217.904C354.119 217.7 354.335 217.52 354.479 217.388C354.611 217.256 354.791 217.088 354.995 216.872C355.547 216.272 355.751 215.72 355.811 214.964C355.811 213.872 355.103 213.38 354.059 213.38C353.411 213.38 352.895 213.56 352.523 213.92C352.151 214.28 351.899 214.712 351.791 215.204ZM358.887 214.88L357.987 214.472C358.431 213.176 359.595 212.324 361.335 212.324C362.163 212.324 362.847 212.516 363.375 212.9C363.903 213.284 364.167 213.8 364.167 214.436C364.167 215.408 363.651 216.128 362.691 216.404C363.615 216.464 364.359 217.16 364.359 218.408C364.359 219.2 364.071 219.824 363.495 220.268C362.919 220.712 362.187 220.94 361.287 220.94C359.451 220.94 358.179 220.064 357.759 218.684L358.731 218.264C359.247 219.356 360.123 219.908 361.359 219.908C362.523 219.908 363.255 219.368 363.255 218.42C363.255 217.496 362.535 217.028 361.095 217.028H360.159V216.032H360.903C362.211 216.032 363.063 215.444 363.063 214.64C363.063 213.812 362.379 213.344 361.287 213.344C360.003 213.344 359.223 214.004 358.887 214.88Z" fill="#1A3341" fill-opacity="0.6"/>
<path d="M322 106.832C322 105.727 322.895 104.832 324 104.832H376C377.105 104.832 378 105.727 378 106.832V205.832H322V106.832Z" fill="url(#paint6_linear_7002_27703)"/>
<path opacity="0.2" d="M334 104.832H366V205.832H334V104.832Z" fill="url(#paint7_linear_7002_27703)"/>
<path opacity="0.04" d="M366 104.832H376C377.105 104.832 378 105.727 378 106.832V205.832H366V104.832Z" fill="#0D262C"/>
<path opacity="0.5" d="M322 106.832C322 105.727 322.895 104.832 324 104.832H334V205.832H322V106.832Z" fill="url(#paint8_linear_7002_27703)"/>
<path d="M195.927 190.186C196.122 189.99 196.122 189.674 195.927 189.478L192.745 186.297C192.55 186.101 192.233 186.101 192.038 186.297C191.843 186.492 191.843 186.808 192.038 187.004L194.867 189.832L192.038 192.66C191.843 192.856 191.843 193.172 192.038 193.368C192.233 193.563 192.55 193.563 192.745 193.368L195.927 190.186ZM144.18 190.332L195.574 190.332L195.574 189.332L144.18 189.332L144.18 190.332Z" fill="#7DA4C1"/>
<path d="M161.906 176.968H156.338V176.068H161.906V176.968ZM164.056 175.204L163.18 174.892C163.48 173.392 164.56 172.336 166.336 172.336C168.064 172.336 169.06 173.332 169.06 174.856C169.024 176.116 168.436 177.112 167.548 177.916C166.924 178.504 166.432 178.84 165.772 179.26L164.848 179.836H169.372V180.832H163.072V180.016L164.776 178.804C165.772 178.096 166.42 177.604 166.72 177.328C167.548 176.572 167.956 175.78 167.956 174.964C167.956 173.86 167.284 173.38 166.264 173.38C164.968 173.38 164.296 174.196 164.056 175.204ZM172.379 181.012L171.587 180.556L177.791 172.168L178.547 172.72L172.379 181.012ZM170.291 174.448C170.291 173.848 170.495 173.356 170.915 172.972C171.335 172.588 171.851 172.396 172.487 172.396C173.111 172.396 173.627 172.588 174.047 172.972C174.467 173.356 174.671 173.848 174.671 174.448C174.671 175.036 174.467 175.528 174.047 175.912C173.627 176.296 173.111 176.488 172.487 176.488C171.851 176.488 171.335 176.296 170.915 175.912C170.495 175.528 170.291 175.036 170.291 174.448ZM171.299 174.448C171.299 175.132 171.851 175.636 172.487 175.636C173.147 175.636 173.663 175.156 173.663 174.448C173.663 173.74 173.123 173.26 172.487 173.26C171.827 173.26 171.299 173.74 171.299 174.448ZM176.063 180.304C175.643 179.92 175.439 179.428 175.439 178.828C175.439 178.228 175.643 177.736 176.063 177.352C176.483 176.98 176.999 176.788 177.635 176.788C178.259 176.788 178.775 176.98 179.195 177.352C179.615 177.736 179.819 178.228 179.819 178.828C179.819 179.416 179.615 179.908 179.195 180.292C178.775 180.688 178.259 180.88 177.635 180.88C176.999 180.88 176.483 180.688 176.063 180.304ZM176.447 178.828C176.447 179.512 176.999 180.016 177.635 180.016C178.295 180.016 178.811 179.536 178.811 178.828C178.811 178.12 178.271 177.64 177.635 177.64C176.975 177.64 176.447 178.12 176.447 178.828Z" fill="#7DA4C1"/>
<path d="M105.5 63.832L226 24.332L346 12.332" stroke="url(#paint9_linear_7002_27703)" stroke-width="5"/>
<circle cx="346" cy="12.832" r="7" fill="#64BBEA" stroke="white" stroke-width="2"/>
<circle cx="226" cy="23.832" r="7" fill="#64BBEA" stroke="white" stroke-width="2"/>
<circle cx="106" cy="63.832" r="7" fill="#64BBEA" stroke="white" stroke-width="2"/>
<path d="M96.728 49.832H92.218V49.002H94.348V43.862L92.558 44.692L92.238 43.942L94.638 42.792H95.208V49.002H96.728V49.832ZM98.7241 45.142L97.9941 44.882C98.2441 43.632 99.1441 42.752 100.624 42.752C102.064 42.752 102.894 43.582 102.894 44.852C102.864 45.902 102.374 46.732 101.634 47.402C101.114 47.892 100.704 48.172 100.154 48.522L99.3841 49.002H103.154V49.832H97.9041V49.152L99.3241 48.142C100.154 47.552 100.694 47.142 100.944 46.912C101.634 46.282 101.974 45.622 101.974 44.942C101.974 44.022 101.414 43.622 100.564 43.622C99.4841 43.622 98.9241 44.302 98.7241 45.142ZM103.99 49.262C103.99 48.982 104.25 48.702 104.61 48.702C104.94 48.702 105.21 48.982 105.21 49.262C105.21 49.582 104.96 49.852 104.61 49.852C104.25 49.852 103.99 49.582 103.99 49.262ZM106.927 44.872L106.177 44.532C106.597 43.342 107.497 42.742 108.867 42.742C109.557 42.742 110.127 42.902 110.567 43.222C111.007 43.542 111.227 43.972 111.227 44.502C111.227 45.312 110.797 45.912 109.997 46.142C110.767 46.192 111.387 46.772 111.387 47.812C111.387 48.472 111.147 48.992 110.667 49.362C110.187 49.732 109.577 49.922 108.827 49.922C107.307 49.922 106.347 49.202 105.987 48.042L106.797 47.692C107.197 48.562 107.727 49.062 108.887 49.062C109.857 49.062 110.467 48.612 110.467 47.822C110.467 47.052 109.867 46.662 108.667 46.662H107.887V45.832H108.507C109.597 45.832 110.307 45.342 110.307 44.672C110.307 43.982 109.737 43.592 108.827 43.592C107.897 43.592 107.257 44.022 106.927 44.872ZM113.873 49.982L113.213 49.602L118.383 42.612L119.013 43.072L113.873 49.982ZM112.133 44.512C112.133 44.012 112.303 43.602 112.653 43.282C113.003 42.962 113.433 42.802 113.963 42.802C114.483 42.802 114.913 42.962 115.263 43.282C115.613 43.602 115.783 44.012 115.783 44.512C115.783 45.002 115.613 45.412 115.263 45.732C114.913 46.052 114.483 46.212 113.963 46.212C113.433 46.212 113.003 46.052 112.653 45.732C112.303 45.412 112.133 45.002 112.133 44.512ZM112.973 44.512C112.973 45.082 113.433 45.502 113.963 45.502C114.513 45.502 114.943 45.102 114.943 44.512C114.943 43.922 114.493 43.522 113.963 43.522C113.413 43.522 112.973 43.922 112.973 44.512ZM116.943 49.392C116.593 49.072 116.423 48.662 116.423 48.162C116.423 47.662 116.593 47.252 116.943 46.932C117.293 46.622 117.723 46.462 118.253 46.462C118.773 46.462 119.203 46.622 119.553 46.932C119.903 47.252 120.073 47.662 120.073 48.162C120.073 48.652 119.903 49.062 119.553 49.382C119.203 49.712 118.773 49.872 118.253 49.872C117.723 49.872 117.293 49.712 116.943 49.392ZM117.263 48.162C117.263 48.732 117.723 49.152 118.253 49.152C118.803 49.152 119.233 48.752 119.233 48.162C119.233 47.572 118.783 47.172 118.253 47.172C117.703 47.172 117.263 47.572 117.263 48.162Z" fill="#357D94"/>
<path d="M216.728 10.832H212.218V10.002H214.348V4.86203L212.558 5.69203L212.238 4.94203L214.638 3.79203H215.208V10.002H216.728V10.832ZM222.314 10.832H221.444V9.40203H217.664V8.82203L221.544 3.83203H222.314V8.59203H223.414V9.40203H222.314V10.832ZM221.444 5.23203L218.864 8.59203H221.444V5.23203ZM223.99 10.262C223.99 9.98203 224.25 9.70203 224.61 9.70203C224.94 9.70203 225.21 9.98203 225.21 10.262C225.21 10.582 224.96 10.852 224.61 10.852C224.25 10.852 223.99 10.582 223.99 10.262ZM230.937 10.832H226.427V10.002H228.557V4.86203L226.767 5.69203L226.447 4.94203L228.847 3.79203H229.417V10.002H230.937V10.832ZM233.873 10.982L233.213 10.602L238.383 3.61203L239.013 4.07203L233.873 10.982ZM232.133 5.51203C232.133 5.01203 232.303 4.60203 232.653 4.28203C233.003 3.96203 233.433 3.80203 233.963 3.80203C234.483 3.80203 234.913 3.96203 235.263 4.28203C235.613 4.60203 235.783 5.01203 235.783 5.51203C235.783 6.00203 235.613 6.41203 235.263 6.73203C234.913 7.05203 234.483 7.21203 233.963 7.21203C233.433 7.21203 233.003 7.05203 232.653 6.73203C232.303 6.41203 232.133 6.00203 232.133 5.51203ZM232.973 5.51203C232.973 6.08203 233.433 6.50203 233.963 6.50203C234.513 6.50203 234.943 6.10203 234.943 5.51203C234.943 4.92203 234.493 4.52203 233.963 4.52203C233.413 4.52203 232.973 4.92203 232.973 5.51203ZM236.943 10.392C236.593 10.072 236.423 9.66203 236.423 9.16203C236.423 8.66203 236.593 8.25203 236.943 7.93203C237.293 7.62203 237.723 7.46203 238.253 7.46203C238.773 7.46203 239.203 7.62203 239.553 7.93203C239.903 8.25203 240.073 8.66203 240.073 9.16203C240.073 9.65203 239.903 10.062 239.553 10.382C239.203 10.712 238.773 10.872 238.253 10.872C237.723 10.872 237.293 10.712 236.943 10.392ZM237.263 9.16203C237.263 9.73203 237.723 10.152 238.253 10.152C238.803 10.152 239.233 9.75203 239.233 9.16203C239.233 8.57203 238.783 8.17203 238.253 8.17203C237.703 8.17203 237.263 8.57203 237.263 9.16203Z" fill="#357D94"/>
<path d="M338.728 34.832H334.218V34.002H336.348V28.862L334.558 29.692L334.238 28.942L336.638 27.792H337.208V34.002H338.728V34.832ZM344.314 34.832H343.444V33.402H339.664V32.822L343.544 27.832H344.314V32.592H345.414V33.402H344.314V34.832ZM343.444 29.232L340.864 32.592H343.444V29.232ZM345.99 34.262C345.99 33.982 346.25 33.702 346.61 33.702C346.94 33.702 347.21 33.982 347.21 34.262C347.21 34.582 346.96 34.852 346.61 34.852C346.25 34.852 345.99 34.582 345.99 34.262ZM348.927 29.872L348.177 29.532C348.597 28.342 349.497 27.742 350.867 27.742C351.557 27.742 352.127 27.902 352.567 28.222C353.007 28.542 353.227 28.972 353.227 29.502C353.227 30.312 352.797 30.912 351.997 31.142C352.767 31.192 353.387 31.772 353.387 32.812C353.387 33.472 353.147 33.992 352.667 34.362C352.187 34.732 351.577 34.922 350.827 34.922C349.307 34.922 348.347 34.202 347.987 33.042L348.797 32.692C349.197 33.562 349.727 34.062 350.887 34.062C351.857 34.062 352.467 33.612 352.467 32.822C352.467 32.052 351.867 31.662 350.667 31.662H349.887V30.832H350.507C351.597 30.832 352.307 30.342 352.307 29.672C352.307 28.982 351.737 28.592 350.827 28.592C349.897 28.592 349.257 29.022 348.927 29.872ZM355.873 34.982L355.213 34.602L360.383 27.612L361.013 28.072L355.873 34.982ZM354.133 29.512C354.133 29.012 354.303 28.602 354.653 28.282C355.003 27.962 355.433 27.802 355.963 27.802C356.483 27.802 356.913 27.962 357.263 28.282C357.613 28.602 357.783 29.012 357.783 29.512C357.783 30.002 357.613 30.412 357.263 30.732C356.913 31.052 356.483 31.212 355.963 31.212C355.433 31.212 355.003 31.052 354.653 30.732C354.303 30.412 354.133 30.002 354.133 29.512ZM354.973 29.512C354.973 30.082 355.433 30.502 355.963 30.502C356.513 30.502 356.943 30.102 356.943 29.512C356.943 28.922 356.493 28.522 355.963 28.522C355.413 28.522 354.973 28.922 354.973 29.512ZM358.943 34.392C358.593 34.072 358.423 33.662 358.423 33.162C358.423 32.662 358.593 32.252 358.943 31.932C359.293 31.622 359.723 31.462 360.253 31.462C360.773 31.462 361.203 31.622 361.553 31.932C361.903 32.252 362.073 32.662 362.073 33.162C362.073 33.652 361.903 34.062 361.553 34.382C361.203 34.712 360.773 34.872 360.253 34.872C359.723 34.872 359.293 34.712 358.943 34.392ZM359.263 33.162C359.263 33.732 359.723 34.152 360.253 34.152C360.803 34.152 361.233 33.752 361.233 33.162C361.233 32.572 360.783 32.172 360.253 32.172C359.703 32.172 359.263 32.572 359.263 33.162Z" fill="#357D94"/>
<path d="M315.141 190.186C315.336 189.99 315.336 189.674 315.141 189.478L311.959 186.296C311.764 186.101 311.447 186.101 311.252 186.296C311.057 186.492 311.057 186.808 311.252 187.004L314.08 189.832L311.252 192.66C311.057 192.856 311.057 193.172 311.252 193.368C311.447 193.563 311.764 193.563 311.959 193.368L315.141 190.186ZM264.363 190.332L314.788 190.332L314.788 189.332L264.363 189.332L264.363 190.332Z" fill="#318F73"/>
<path d="M280.145 176.968H277.877V176.056H280.145V173.776H281.093V176.056H283.385V176.968H281.093V179.272H280.145V176.968ZM285.662 175.204L284.786 174.892C285.086 173.392 286.166 172.336 287.942 172.336C289.67 172.336 290.666 173.332 290.666 174.856C290.63 176.116 290.042 177.112 289.154 177.916C288.53 178.504 288.038 178.84 287.378 179.26L286.454 179.836H290.978V180.832H284.678V180.016L286.382 178.804C287.378 178.096 288.026 177.604 288.326 177.328C289.154 176.572 289.562 175.78 289.562 174.964C289.562 173.86 288.89 173.38 287.87 173.38C286.574 173.38 285.902 174.196 285.662 175.204ZM293.985 181.012L293.193 180.556L299.397 172.168L300.153 172.72L293.985 181.012ZM291.897 174.448C291.897 173.848 292.101 173.356 292.521 172.972C292.941 172.588 293.457 172.396 294.093 172.396C294.717 172.396 295.233 172.588 295.653 172.972C296.073 173.356 296.277 173.848 296.277 174.448C296.277 175.036 296.073 175.528 295.653 175.912C295.233 176.296 294.717 176.488 294.093 176.488C293.457 176.488 292.941 176.296 292.521 175.912C292.101 175.528 291.897 175.036 291.897 174.448ZM292.905 174.448C292.905 175.132 293.457 175.636 294.093 175.636C294.753 175.636 295.269 175.156 295.269 174.448C295.269 173.74 294.729 173.26 294.093 173.26C293.433 173.26 292.905 173.74 292.905 174.448ZM297.669 180.304C297.249 179.92 297.045 179.428 297.045 178.828C297.045 178.228 297.249 177.736 297.669 177.352C298.089 176.98 298.605 176.788 299.241 176.788C299.865 176.788 300.381 176.98 300.801 177.352C301.221 177.736 301.425 178.228 301.425 178.828C301.425 179.416 301.221 179.908 300.801 180.292C300.381 180.688 299.865 180.88 299.241 180.88C298.605 180.88 298.089 180.688 297.669 180.304ZM298.053 178.828C298.053 179.512 298.605 180.016 299.241 180.016C299.901 180.016 300.417 179.536 300.417 178.828C300.417 178.12 299.877 177.64 299.241 177.64C298.581 177.64 298.053 178.12 298.053 178.828Z" fill="#318F73"/>
<line y1="205.332" x2="448" y2="205.332" stroke="#ABBEC9"/>
<defs>
<linearGradient id="paint0_linear_7002_27703" x1="110" y1="97.832" x2="110" y2="205.832" gradientUnits="userSpaceOnUse">
<stop stop-color="#45B8DB"/>
<stop offset="1" stop-color="#ADE4E4"/>
</linearGradient>
<linearGradient id="paint1_linear_7002_27703" x1="110" y1="97.832" x2="110" y2="205.832" gradientUnits="userSpaceOnUse">
<stop stop-color="white" stop-opacity="0"/>
<stop offset="0.739583" stop-color="white"/>
</linearGradient>
<linearGradient id="paint2_linear_7002_27703" x1="88" y1="-112.768" x2="88" y2="205.832" gradientUnits="userSpaceOnUse">
<stop stop-color="white" stop-opacity="0.05"/>
<stop offset="0.75" stop-color="white" stop-opacity="0.8"/>
</linearGradient>
<linearGradient id="paint3_linear_7002_27703" x1="230" y1="193.832" x2="230" y2="205.832" gradientUnits="userSpaceOnUse">
<stop stop-color="#45B8DB"/>
<stop offset="1" stop-color="#ADE4E4"/>
</linearGradient>
<linearGradient id="paint4_linear_7002_27703" x1="230" y1="193.832" x2="230" y2="205.832" gradientUnits="userSpaceOnUse">
<stop stop-color="white" stop-opacity="0"/>
<stop offset="0.739583" stop-color="white"/>
</linearGradient>
<linearGradient id="paint5_linear_7002_27703" x1="208" y1="170.432" x2="208" y2="205.832" gradientUnits="userSpaceOnUse">
<stop stop-color="white" stop-opacity="0.05"/>
<stop offset="0.75" stop-color="white" stop-opacity="0.8"/>
</linearGradient>
<linearGradient id="paint6_linear_7002_27703" x1="350" y1="104.832" x2="350" y2="205.832" gradientUnits="userSpaceOnUse">
<stop stop-color="#45B8DB"/>
<stop offset="1" stop-color="#ADE4E4"/>
</linearGradient>
<linearGradient id="paint7_linear_7002_27703" x1="350" y1="104.832" x2="350" y2="205.832" gradientUnits="userSpaceOnUse">
<stop stop-color="white" stop-opacity="0"/>
<stop offset="0.739583" stop-color="white"/>
</linearGradient>
<linearGradient id="paint8_linear_7002_27703" x1="328" y1="-92.118" x2="328" y2="205.832" gradientUnits="userSpaceOnUse">
<stop stop-color="white" stop-opacity="0.05"/>
<stop offset="0.75" stop-color="white" stop-opacity="0.8"/>
</linearGradient>
<linearGradient id="paint9_linear_7002_27703" x1="346" y1="12.332" x2="105.5" y2="12.332" gradientUnits="userSpaceOnUse">
<stop stop-color="#56BCF6"/>
<stop offset="1" stop-color="#A2DEE7"/>
</linearGradient>
</defs>
</svg>
