<svg width="284" height="271" viewBox="0 0 284 271" fill="none" xmlns="http://www.w3.org/2000/svg">
<path d="M215.559 185.42C201.722 198.571 184.632 207.801 166.045 212.16C147.459 216.519 128.047 215.85 109.805 210.221C91.5635 204.593 75.1495 194.208 62.2506 180.134C49.3517 166.06 40.4333 148.806 36.4121 130.144L49.0227 127.426C52.5613 143.849 60.4095 159.033 71.7605 171.418C83.1115 183.803 97.5559 192.941 113.609 197.895C129.662 202.848 146.744 203.437 163.1 199.601C179.456 195.765 194.495 187.643 206.672 176.069L215.559 185.42Z" fill="url(#paint0_linear_7002_27699)"/>
<path d="M39.1327 140.32C33.9534 124.165 32.671 107.014 35.3902 90.2689C38.1095 73.5236 44.7533 57.6597 54.7784 43.9741C64.8034 30.2885 77.9251 19.1698 93.0707 11.5271C108.216 3.88446 124.956 -0.0652116 141.92 0.00105875L141.87 12.9009C126.941 12.8426 112.21 16.3183 98.8822 23.0439C85.5541 29.7695 74.007 39.5539 65.185 51.5972C56.3629 63.6405 50.5164 77.6008 48.1234 92.3366C45.7305 107.072 46.859 122.165 51.4168 136.381L39.1327 140.32Z" fill="#184977"/>
<path d="M141.5 0.000244141C163.049 0.000244398 184.101 6.47663 201.924 18.5891C219.747 30.7015 233.518 47.8909 241.451 67.9268C249.384 87.9627 251.112 109.92 246.411 130.951C241.71 151.981 230.797 171.113 215.089 185.864L206.258 176.46C220.082 163.479 229.685 146.643 233.822 128.136C237.958 109.63 236.437 90.3072 229.457 72.6756C222.476 55.044 210.357 39.9173 194.673 29.2584C178.989 18.5994 160.463 12.9002 141.5 12.9002V0.000244141Z" fill="url(#paint1_linear_7002_27699)"/>
<path d="M249.774 52.056L248.724 51.58C249.242 50.068 250.6 49.074 252.63 49.074C253.596 49.074 254.394 49.298 255.01 49.746C255.626 50.194 255.934 50.796 255.934 51.538C255.934 52.672 255.332 53.512 254.212 53.834C255.29 53.904 256.158 54.716 256.158 56.172C256.158 57.096 255.822 57.824 255.15 58.342C254.478 58.86 253.624 59.126 252.574 59.126C250.432 59.126 248.948 58.104 248.458 56.494L249.592 56.004C250.194 57.278 251.216 57.922 252.658 57.922C254.016 57.922 254.87 57.292 254.87 56.186C254.87 55.108 254.03 54.562 252.35 54.562H251.258V53.4H252.126C253.652 53.4 254.646 52.714 254.646 51.776C254.646 50.81 253.848 50.264 252.574 50.264C251.076 50.264 250.166 51.034 249.774 52.056ZM258.246 59C257.728 59.056 257.336 58.762 257.336 58.258C257.336 57.768 257.644 57.46 258.19 57.46C258.806 57.46 259.212 57.88 259.212 58.664C259.212 60.064 258.442 60.778 257.42 61.016L257.126 60.358C257.434 60.274 257.714 60.106 257.966 59.84C258.204 59.574 258.302 59.294 258.246 59ZM260.231 54.1C260.231 52.588 260.581 51.37 261.295 50.46C261.995 49.55 263.031 49.088 264.389 49.088C267.175 49.088 268.561 50.922 268.561 54.1C268.561 55.626 268.211 56.83 267.525 57.74C266.825 58.65 265.789 59.112 264.417 59.112C263.101 59.112 262.079 58.65 261.337 57.726C260.595 56.802 260.231 55.598 260.231 54.1ZM261.519 54.1C261.519 56.494 262.611 57.922 264.417 57.922C266.321 57.922 267.273 56.648 267.273 54.1C267.273 51.552 266.307 50.278 264.389 50.278C262.443 50.278 261.519 51.678 261.519 54.1ZM269.495 51.804L269.047 50.754L272.407 49.144H273.205V59H272.001V50.642L269.495 51.804ZM281.752 59H280.534V56.998H274.542V56.186L280.674 49.2H281.752V55.864H283.572V56.998H281.752V59ZM280.534 51.16L276.222 55.864H280.534V51.16Z" fill="#1A3341"/>
<path d="M33.8135 208.434L32.7915 208.07C33.1415 206.334 34.4575 205.088 36.5435 205.088C38.5595 205.088 39.7915 206.25 39.7915 208.028C39.7915 208.966 39.3855 209.904 38.8815 210.576C38.6295 210.926 38.3075 211.262 37.9295 211.612C37.1595 212.298 36.6135 212.662 35.8155 213.166L34.7375 213.838H40.1555V215H32.5255V214.048L34.6535 212.634C35.0315 212.396 35.2975 212.214 35.4515 212.102C35.6055 212.004 35.8575 211.822 36.1935 211.584C36.5295 211.346 36.7815 211.136 36.9495 210.982C37.1035 210.828 37.3135 210.632 37.5515 210.38C38.1955 209.68 38.4335 209.036 38.5035 208.154C38.5035 206.88 37.6775 206.306 36.4595 206.306C35.7035 206.306 35.1015 206.516 34.6675 206.936C34.2335 207.356 33.9395 207.86 33.8135 208.434ZM42.0638 215C41.5458 215.056 41.1538 214.762 41.1538 214.258C41.1538 213.768 41.4618 213.46 42.0078 213.46C42.6238 213.46 43.0298 213.88 43.0298 214.664C43.0298 216.064 42.2598 216.778 41.2378 217.016L40.9438 216.358C41.2518 216.274 41.5318 216.106 41.7838 215.84C42.0218 215.574 42.1198 215.294 42.0638 215ZM52.1963 209.918C52.1963 211.584 51.8043 212.872 51.0063 213.768C50.2083 214.678 49.1443 215.126 47.8143 215.126C46.1903 215.126 44.9163 214.44 44.2863 213.39L45.2943 212.69C45.8543 213.474 46.8763 213.922 47.9823 213.922C48.8923 213.922 49.6203 213.558 50.1943 212.83C50.7683 212.116 51.0063 211.22 50.9363 210.156C50.4743 211.22 49.3123 212.004 47.7583 212.004C46.6663 212.004 45.7703 211.696 45.0703 211.066C44.3563 210.45 44.0063 209.638 44.0063 208.644C44.0063 207.552 44.3843 206.684 45.1403 206.04C45.8963 205.396 46.9043 205.074 48.1503 205.074C50.6703 205.074 52.1963 206.838 52.1963 209.918ZM50.7263 208.602C50.5163 207.3 49.6203 206.278 48.0103 206.278C46.3303 206.278 45.2943 207.146 45.2943 208.602C45.2943 209.988 46.3443 210.8 47.9823 210.8C48.7243 210.8 49.3543 210.576 49.8443 210.128C50.3343 209.68 50.6283 209.176 50.7263 208.602ZM58.8602 206.39H52.9242V205.2H60.3582V205.998L55.4862 215H54.1562L58.8602 206.39ZM67.8662 215H66.6482V212.998H60.6562V212.186L66.7882 205.2H67.8662V211.864H69.6862V212.998H67.8662V215ZM66.6482 207.16L62.3362 211.864H66.6482V207.16Z" fill="#1A3341"/>
<path d="M10.5925 36.434L9.57055 36.07C9.92055 34.334 11.2365 33.088 13.3225 33.088C15.3385 33.088 16.5705 34.25 16.5705 36.028C16.5705 36.966 16.1645 37.904 15.6605 38.576C15.4085 38.926 15.0865 39.262 14.7085 39.612C13.9385 40.298 13.3925 40.662 12.5945 41.166L11.5165 41.838H16.9345V43H9.30455V42.048L11.4325 40.634C11.8105 40.396 12.0765 40.214 12.2305 40.102C12.3845 40.004 12.6365 39.822 12.9725 39.584C13.3085 39.346 13.5605 39.136 13.7285 38.982C13.8825 38.828 14.0925 38.632 14.3305 38.38C14.9745 37.68 15.2125 37.036 15.2825 36.154C15.2825 34.88 14.4565 34.306 13.2385 34.306C12.4825 34.306 11.8805 34.516 11.4465 34.936C11.0125 35.356 10.7185 35.86 10.5925 36.434ZM18.8428 43C18.3248 43.056 17.9328 42.762 17.9328 42.258C17.9328 41.768 18.2408 41.46 18.7868 41.46C19.4028 41.46 19.8088 41.88 19.8088 42.664C19.8088 44.064 19.0388 44.778 18.0168 45.016L17.7228 44.358C18.0308 44.274 18.3108 44.106 18.5628 43.84C18.8008 43.574 18.8988 43.294 18.8428 43ZM24.6913 37.414H25.1253C25.7553 37.414 26.2733 37.26 26.7073 36.966C27.1273 36.672 27.3373 36.28 27.3373 35.818C27.3373 34.768 26.5113 34.236 24.8733 34.236C23.3053 34.236 22.4513 34.81 22.4513 35.818C22.4513 36.728 23.3893 37.414 24.6913 37.414ZM25.0973 38.52H24.7473C23.9913 38.52 23.3613 38.688 22.8713 39.01C22.3813 39.332 22.1293 39.738 22.1293 40.228C22.1293 41.292 23.1093 41.964 24.8873 41.964C26.6933 41.964 27.6593 41.32 27.6593 40.242C27.6593 39.164 26.6233 38.52 25.0973 38.52ZM27.8553 42.37C27.1413 42.874 26.1473 43.126 24.9013 43.126C23.6553 43.126 22.6613 42.874 21.9333 42.384C21.2053 41.894 20.8413 41.222 20.8413 40.354C20.8413 39.22 21.5833 38.324 22.7733 37.932C21.6953 37.582 21.1633 36.728 21.1633 35.734C21.1633 34.11 22.5353 33.074 24.8873 33.074C27.2533 33.074 28.6253 34.11 28.6253 35.734C28.6253 36.672 28.1073 37.386 27.0713 37.862C28.3173 38.24 28.9333 39.052 28.9333 40.298C28.9333 41.18 28.5693 41.88 27.8553 42.37ZM36.7872 43H35.5692V40.998H29.5772V40.186L35.7092 33.2H36.7872V39.864H38.6072V40.998H36.7872V43ZM35.5692 35.16L31.2572 39.864H35.5692V35.16ZM39.2915 38.366C39.2915 36.672 39.7115 35.37 40.5375 34.446C41.3635 33.536 42.3995 33.074 43.6455 33.074C45.2835 33.074 46.5715 33.816 47.1175 34.992L46.1655 35.636C45.5915 34.726 44.7375 34.278 43.5895 34.278C42.7215 34.278 41.9935 34.614 41.4055 35.286C40.8175 35.972 40.5235 36.896 40.5375 38.086C41.0835 37.064 42.3575 36.448 43.7575 36.448C44.8915 36.448 45.8015 36.742 46.4595 37.344C47.1175 37.946 47.4535 38.744 47.4535 39.724C47.4535 40.718 47.0895 41.544 46.3475 42.174C45.6055 42.804 44.6815 43.126 43.5755 43.126C40.9295 43.126 39.2915 41.404 39.2915 38.366ZM40.6915 39.556C40.9575 40.942 42.0075 41.922 43.5615 41.922C44.3175 41.922 44.9475 41.726 45.4375 41.32C45.9275 40.928 46.1655 40.41 46.1655 39.78C46.1655 38.394 45.1855 37.652 43.6875 37.652C42.8615 37.652 42.1755 37.848 41.6435 38.24C41.0975 38.632 40.7895 39.066 40.6915 39.556Z" fill="#1A3341"/>
<path d="M104.889 108.184C106.212 108.632 107.204 109.251 107.865 110.04C108.548 110.829 108.889 111.779 108.889 112.888V113.24C108.889 117.336 105.22 119.384 97.8809 119.384C90.5422 119.384 86.8729 117.336 86.8729 113.24V112.888C86.8729 111.779 87.2035 110.829 87.8649 110.04C88.5475 109.251 89.5502 108.632 90.8729 108.184C89.8702 107.736 89.1129 107.16 88.6009 106.456C88.0889 105.731 87.8329 104.909 87.8329 103.992V103.64C87.8329 102.445 88.2489 101.389 89.0809 100.472C89.9129 99.5547 91.0862 98.8507 92.6009 98.36C94.1155 97.8693 95.8755 97.624 97.8809 97.624C99.8862 97.624 101.646 97.8693 103.161 98.36C104.676 98.8507 105.849 99.5547 106.681 100.472C107.513 101.389 107.929 102.445 107.929 103.64V103.992C107.929 104.909 107.673 105.731 107.161 106.456C106.649 107.16 105.892 107.736 104.889 108.184ZM90.9689 103.896C90.9689 104.984 91.5235 105.784 92.6329 106.296C93.7635 106.808 95.5129 107.064 97.8809 107.064C100.228 107.064 101.956 106.808 103.065 106.296C104.196 105.784 104.761 104.984 104.761 103.896V103.64C104.761 101.549 102.468 100.504 97.8809 100.504C93.2729 100.504 90.9689 101.549 90.9689 103.64V103.896ZM105.721 113.112C105.721 111.981 105.102 111.171 103.865 110.68C102.649 110.168 100.654 109.912 97.8809 109.912C95.1075 109.912 93.1022 110.168 91.8649 110.68C90.6489 111.171 90.0409 111.981 90.0409 113.112V113.368C90.0409 114.456 90.6702 115.256 91.9289 115.768C93.1875 116.259 95.1715 116.504 97.8809 116.504C100.59 116.504 102.574 116.259 103.833 115.768C105.092 115.256 105.721 114.456 105.721 113.368V113.112ZM117.601 114.968V115.448L114.721 123.576H111.777L114.113 114.968H117.601ZM139.063 108.184C140.385 108.632 141.377 109.251 142.039 110.04C142.721 110.829 143.063 111.779 143.063 112.888V113.24C143.063 117.336 139.393 119.384 132.055 119.384C124.716 119.384 121.047 117.336 121.047 113.24V112.888C121.047 111.779 121.377 110.829 122.039 110.04C122.721 109.251 123.724 108.632 125.047 108.184C124.044 107.736 123.287 107.16 122.775 106.456C122.263 105.731 122.007 104.909 122.007 103.992V103.64C122.007 102.445 122.423 101.389 123.255 100.472C124.087 99.5547 125.26 98.8507 126.775 98.36C128.289 97.8693 130.049 97.624 132.055 97.624C134.06 97.624 135.82 97.8693 137.335 98.36C138.849 98.8507 140.023 99.5547 140.855 100.472C141.687 101.389 142.103 102.445 142.103 103.64V103.992C142.103 104.909 141.847 105.731 141.335 106.456C140.823 107.16 140.065 107.736 139.063 108.184ZM125.143 103.896C125.143 104.984 125.697 105.784 126.807 106.296C127.937 106.808 129.687 107.064 132.055 107.064C134.401 107.064 136.129 106.808 137.239 106.296C138.369 105.784 138.935 104.984 138.935 103.896V103.64C138.935 101.549 136.641 100.504 132.055 100.504C127.447 100.504 125.143 101.549 125.143 103.64V103.896ZM139.895 113.112C139.895 111.981 139.276 111.171 138.039 110.68C136.823 110.168 134.828 109.912 132.055 109.912C129.281 109.912 127.276 110.168 126.039 110.68C124.823 111.171 124.215 111.981 124.215 113.112V113.368C124.215 114.456 124.844 115.256 126.103 115.768C127.361 116.259 129.345 116.504 132.055 116.504C134.764 116.504 136.748 116.259 138.007 115.768C139.265 115.256 139.895 114.456 139.895 113.368V113.112ZM158.536 106.328C161.373 106.413 163.539 106.979 165.032 108.024C166.547 109.048 167.304 110.477 167.304 112.312V112.728C167.304 114.883 166.44 116.536 164.712 117.688C162.984 118.819 160.467 119.384 157.16 119.384C153.939 119.363 151.443 118.797 149.672 117.688C147.923 116.579 147.048 115.011 147.048 112.984V112.76H150.216V112.984C150.216 114.051 150.835 114.893 152.072 115.512C153.309 116.109 155.016 116.408 157.192 116.408C159.475 116.408 161.203 116.109 162.376 115.512C163.549 114.893 164.136 113.987 164.136 112.792V112.408C164.136 110.168 161.853 109.048 157.288 109.048H153.832V106.232L161.736 100.856H147.432V98.008H166.792V100.856L158.536 106.328ZM195.625 114.232H189.993V119H186.825V114.232H171.529V111.352C173.15 108.835 174.473 106.531 175.497 104.44C176.521 102.328 177.374 100.184 178.057 98.008H181.417V98.488C180.052 102.627 177.982 106.915 175.209 111.352H186.825V101.72H189.993V111.352H195.625V114.232Z" fill="#1A3341"/>
<rect y="258" width="10" height="10" fill="url(#paint2_linear_7002_27699)"/>
<path d="M22.488 267.736H29.508V268.576H22.488V267.736ZM24.132 261.544H27.804V262.36H24.132V261.544ZM24.12 264.592H27.804V265.42H24.12V264.592ZM23.712 258.604H28.38V268.204H27.468V259.444H24.6V268.204H23.712V258.604ZM20.472 258.916H21.336V268.936H20.472V258.916ZM18.492 261.304H23.004V262.156H18.492V261.304ZM20.52 261.628L21.084 261.868C20.616 263.56 19.704 265.66 18.804 266.776C18.708 266.524 18.492 266.152 18.336 265.948C19.176 264.976 20.112 263.116 20.52 261.628ZM22.464 258.088L23.016 258.82C21.912 259.252 20.256 259.576 18.888 259.768C18.84 259.564 18.72 259.264 18.624 259.06C19.98 258.844 21.552 258.496 22.464 258.088ZM21.312 262.336C21.624 262.672 22.764 264.136 23.016 264.484L22.476 265.204C22.176 264.616 21.252 263.188 20.892 262.72L21.312 262.336ZM39.996 258.028L40.536 258.628C39.024 258.928 36.66 259.108 34.716 259.156C34.692 258.976 34.608 258.7 34.524 258.544C36.432 258.472 38.736 258.28 39.996 258.028ZM33.9 260.152H41.328V260.848H33.9V260.152ZM34.416 262.132H40.776V262.84H34.416V262.132ZM37.068 258.7H37.932V262.3H37.068V258.7ZM33.504 257.92L34.332 258.232C33.48 259.312 32.148 260.368 30.972 261.028C30.828 260.86 30.504 260.524 30.3 260.38C31.488 259.804 32.748 258.892 33.504 257.92ZM32.364 259.72L32.988 259.096L33.228 259.156V263.032H32.364V259.72ZM35.508 264.748H36.444V265.54C36.444 266.632 35.976 268.084 31.5 269.008C31.38 268.804 31.128 268.468 30.912 268.288C35.232 267.52 35.508 266.344 35.508 265.516V264.748ZM36.276 267.256L36.744 266.608C38.136 267.04 39.972 267.772 40.932 268.3L40.428 269.02C39.504 268.48 37.68 267.712 36.276 267.256ZM32.256 263.572H39.852V266.908H38.928V264.364H33.156V266.944H32.256V263.572Z" fill="#76848D"/>
<rect x="74" y="258" width="10" height="10" fill="url(#paint3_linear_7002_27699)"/>
<path d="M97.484 257.932H98.468V267.784H97.484V257.932ZM101.756 263.92H102.74V268.936H101.756V263.92ZM93.788 259.012H94.724V262.276H101.288V259.012H102.26V263.152H93.788V259.012ZM93.248 263.92H94.232V267.364H102.236V268.264H93.248V263.92ZM108.488 267.736H115.508V268.576H108.488V267.736ZM110.132 261.544H113.804V262.36H110.132V261.544ZM110.12 264.592H113.804V265.42H110.12V264.592ZM109.712 258.604H114.38V268.204H113.468V259.444H110.6V268.204H109.712V258.604ZM106.472 258.916H107.336V268.936H106.472V258.916ZM104.492 261.304H109.004V262.156H104.492V261.304ZM106.52 261.628L107.084 261.868C106.616 263.56 105.704 265.66 104.804 266.776C104.708 266.524 104.492 266.152 104.336 265.948C105.176 264.976 106.112 263.116 106.52 261.628ZM108.464 258.088L109.016 258.82C107.912 259.252 106.256 259.576 104.888 259.768C104.84 259.564 104.72 259.264 104.624 259.06C105.98 258.844 107.552 258.496 108.464 258.088ZM107.312 262.336C107.624 262.672 108.764 264.136 109.016 264.484L108.476 265.204C108.176 264.616 107.252 263.188 106.892 262.72L107.312 262.336Z" fill="#76848D"/>
<rect x="148" y="258" width="10" height="10" fill="#184977"/>
<path d="M171.748 259.024L172.612 259.06C172.42 263.62 171.928 266.848 169.84 268.984C169.696 268.84 169.3 268.564 169.096 268.444C171.172 266.536 171.616 263.332 171.748 259.024ZM170.368 258.7H175.168V259.54H170.368V258.7ZM174.508 261.976H176.404V262.78H174.244L174.508 261.976ZM176.188 261.976H176.356L176.524 261.94L177.076 262.168C176.332 265.672 174.472 267.856 172.204 268.984C172.096 268.768 171.784 268.432 171.592 268.3C173.8 267.28 175.564 265.288 176.188 262.156V261.976ZM172.348 261.832C173.188 264.76 174.94 267.22 177.604 268.192C177.4 268.36 177.124 268.708 176.98 268.936C174.268 267.808 172.516 265.264 171.58 262.06L172.348 261.832ZM174.988 258.7H175.876C175.54 260.032 175.084 261.748 174.76 262.78H173.896C174.256 261.724 174.712 259.984 174.988 258.7ZM167.38 259.072H169.936V265.78H167.38V264.94H169.144V259.9H167.38V259.072ZM166.924 259.072H167.716V266.932H166.924V259.072ZM183.652 263.896H184.576C184.576 263.896 184.564 264.172 184.54 264.304C184.336 267.004 184.12 268.084 183.736 268.492C183.472 268.768 183.196 268.852 182.764 268.876C182.38 268.9 181.636 268.9 180.868 268.852C180.844 268.564 180.712 268.18 180.532 267.928C181.336 268 182.128 268 182.428 268C182.692 268 182.824 267.988 182.956 267.868C183.268 267.604 183.472 266.56 183.652 264.028V263.896ZM179.716 261.184H180.628C180.448 262.36 180.184 263.836 179.992 264.736H179.056C179.284 263.8 179.56 262.324 179.716 261.184ZM187.372 258.052H188.272V268.96H187.372V258.052ZM179.728 263.896H183.832V264.736H179.608L179.728 263.896ZM180.148 261.184H183.628V259.264H179.272V258.424H184.504V262.036H180.148V261.184Z" fill="#76848D"/>
<defs>
<linearGradient id="paint0_linear_7002_27699" x1="249" y1="107.5" x2="67.185" y2="341.662" gradientUnits="userSpaceOnUse">
<stop stop-color="#43C3BB"/>
<stop offset="1" stop-color="#78CCD1"/>
</linearGradient>
<linearGradient id="paint1_linear_7002_27699" x1="141.5" y1="0.000244141" x2="237.782" y2="174.337" gradientUnits="userSpaceOnUse">
<stop stop-color="#66CFF0"/>
<stop offset="1" stop-color="#A6E0F2"/>
</linearGradient>
<linearGradient id="paint2_linear_7002_27699" x1="5" y1="258" x2="9.47826" y2="266.109" gradientUnits="userSpaceOnUse">
<stop stop-color="#66CFF0"/>
<stop offset="1" stop-color="#A6E0F2"/>
</linearGradient>
<linearGradient id="paint3_linear_7002_27699" x1="79" y1="258" x2="84.8956" y2="263.521" gradientUnits="userSpaceOnUse">
<stop stop-color="#43C3BB"/>
<stop offset="1" stop-color="#78CCD1"/>
</linearGradient>
</defs>
</svg>
