<svg width="335" height="150" viewBox="0 0 335 150" fill="none" xmlns="http://www.w3.org/2000/svg">
<line y1="134.5" x2="335" y2="134.5" stroke="#ABBEC9"/>
<path d="M151.848 28H150.63V25.998H144.638V25.186L150.77 18.2H151.848V24.864H153.668V25.998H151.848V28ZM150.63 20.16L146.318 24.864H150.63V20.16ZM159.966 19.39H154.03V18.2H161.464V18.998L156.592 28H155.262L159.966 19.39ZM162.3 28C161.782 28.056 161.39 27.762 161.39 27.258C161.39 26.768 161.698 26.46 162.244 26.46C162.86 26.46 163.266 26.88 163.266 27.664C163.266 29.064 162.496 29.778 161.474 30.016L161.18 29.358C161.488 29.274 161.768 29.106 162.02 28.84C162.258 28.574 162.356 28.294 162.3 28ZM169.899 19.39H163.963V18.2H171.397V18.998L166.525 28H165.195L169.899 19.39ZM172.143 23.366C172.143 21.672 172.563 20.37 173.389 19.446C174.215 18.536 175.251 18.074 176.497 18.074C178.135 18.074 179.423 18.816 179.969 19.992L179.017 20.636C178.443 19.726 177.589 19.278 176.441 19.278C175.573 19.278 174.845 19.614 174.257 20.286C173.669 20.972 173.375 21.896 173.389 23.086C173.935 22.064 175.209 21.448 176.609 21.448C177.743 21.448 178.653 21.742 179.311 22.344C179.969 22.946 180.305 23.744 180.305 24.724C180.305 25.718 179.941 26.544 179.199 27.174C178.457 27.804 177.533 28.126 176.427 28.126C173.781 28.126 172.143 26.404 172.143 23.366ZM173.543 24.556C173.809 25.942 174.859 26.922 176.413 26.922C177.169 26.922 177.799 26.726 178.289 26.32C178.779 25.928 179.017 25.41 179.017 24.78C179.017 23.394 178.037 22.652 176.539 22.652C175.713 22.652 175.027 22.848 174.495 23.24C173.949 23.632 173.641 24.066 173.543 24.556ZM182.742 23.492L181.734 23.226L182.308 18.2H188.468V19.39H183.386L183.022 22.022C183.512 21.658 184.254 21.476 185.248 21.476C186.396 21.476 187.292 21.784 187.95 22.386C188.594 23.002 188.916 23.786 188.916 24.752C188.916 25.718 188.552 26.53 187.838 27.16C187.11 27.804 186.2 28.126 185.122 28.126C183.288 28.126 181.762 27.258 181.132 25.732L182.252 25.256C182.658 26.194 183.708 26.936 185.122 26.936C186.732 26.936 187.628 26.012 187.628 24.794C187.628 23.492 186.578 22.652 184.912 22.652C184.016 22.652 183.288 22.932 182.742 23.492Z" fill="#1A3341"/>
<path d="M153.556 143.372L152.68 143.06C152.98 141.572 154.108 140.504 155.896 140.504C157.624 140.504 158.68 141.5 158.68 143.024C158.68 143.828 158.332 144.632 157.9 145.208C157.684 145.508 157.408 145.796 157.084 146.096C156.424 146.684 155.956 146.996 155.272 147.428L154.348 148.004H158.992V149H152.452V148.184L154.276 146.972C154.6 146.768 154.828 146.612 154.96 146.516C155.092 146.432 155.308 146.276 155.596 146.072C155.884 145.868 156.1 145.688 156.244 145.556C156.376 145.424 156.556 145.256 156.76 145.04C157.312 144.44 157.516 143.888 157.576 143.132C157.576 142.04 156.868 141.548 155.824 141.548C155.176 141.548 154.66 141.728 154.288 142.088C153.916 142.448 153.664 142.88 153.556 143.372ZM159.824 144.8C159.824 143.504 160.124 142.46 160.736 141.68C161.336 140.9 162.224 140.504 163.388 140.504C165.776 140.504 166.964 142.076 166.964 144.8C166.964 146.108 166.664 147.14 166.076 147.92C165.476 148.7 164.588 149.096 163.412 149.096C162.284 149.096 161.408 148.7 160.772 147.908C160.136 147.116 159.824 146.084 159.824 144.8ZM160.928 144.8C160.928 146.852 161.864 148.076 163.412 148.076C165.044 148.076 165.86 146.984 165.86 144.8C165.86 142.616 165.032 141.524 163.388 141.524C161.72 141.524 160.928 142.724 160.928 144.8ZM168.82 143.372L167.944 143.06C168.244 141.572 169.372 140.504 171.16 140.504C172.888 140.504 173.944 141.5 173.944 143.024C173.944 143.828 173.596 144.632 173.164 145.208C172.948 145.508 172.672 145.796 172.348 146.096C171.688 146.684 171.22 146.996 170.536 147.428L169.612 148.004H174.256V149H167.716V148.184L169.54 146.972C169.864 146.768 170.092 146.612 170.224 146.516C170.356 146.432 170.572 146.276 170.86 146.072C171.148 145.868 171.364 145.688 171.508 145.556C171.64 145.424 171.82 145.256 172.024 145.04C172.576 144.44 172.78 143.888 172.84 143.132C172.84 142.04 172.132 141.548 171.088 141.548C170.44 141.548 169.924 141.728 169.552 142.088C169.18 142.448 168.928 142.88 168.82 143.372ZM176.048 143.372L175.172 143.06C175.472 141.572 176.6 140.504 178.388 140.504C180.116 140.504 181.172 141.5 181.172 143.024C181.172 143.828 180.824 144.632 180.392 145.208C180.176 145.508 179.9 145.796 179.576 146.096C178.916 146.684 178.448 146.996 177.764 147.428L176.84 148.004H181.484V149H174.944V148.184L176.768 146.972C177.092 146.768 177.32 146.612 177.452 146.516C177.584 146.432 177.8 146.276 178.088 146.072C178.376 145.868 178.592 145.688 178.736 145.556C178.868 145.424 179.048 145.256 179.252 145.04C179.804 144.44 180.008 143.888 180.068 143.132C180.068 142.04 179.36 141.548 178.316 141.548C177.668 141.548 177.152 141.728 176.78 142.088C176.408 142.448 176.156 142.88 176.048 143.372Z" fill="#1A3341" fill-opacity="0.6"/>
<path d="M139 40C139 38.8954 139.895 38 141 38H193C194.105 38 195 38.8954 195 40V134H139V40Z" fill="url(#paint0_linear_7002_37668)"/>
<path opacity="0.2" d="M151 38H183V134H151V38Z" fill="url(#paint1_linear_7002_37668)"/>
<path opacity="0.04" d="M183 38H193C194.105 38 195 38.8954 195 40V134H183V38Z" fill="#0D262C"/>
<path opacity="0.5" d="M139 40C139 38.8954 139.895 38 141 38H151V134H139V40Z" fill="url(#paint2_linear_7002_37668)"/>
<path d="M17.1954 5.492L16.1874 5.226L16.7614 0.199999H22.9214V1.39H17.8394L17.4754 4.022C17.9654 3.658 18.7074 3.476 19.7014 3.476C20.8494 3.476 21.7454 3.784 22.4034 4.386C23.0474 5.002 23.3694 5.786 23.3694 6.752C23.3694 7.718 23.0054 8.53 22.2914 9.16C21.5634 9.804 20.6534 10.126 19.5754 10.126C17.7414 10.126 16.2154 9.258 15.5854 7.732L16.7054 7.256C17.1114 8.194 18.1614 8.936 19.5754 8.936C21.1854 8.936 22.0814 8.012 22.0814 6.794C22.0814 5.492 21.0314 4.652 19.3654 4.652C18.4694 4.652 17.7414 4.932 17.1954 5.492ZM24.4321 5.366C24.4321 3.672 24.8521 2.37 25.6781 1.446C26.5041 0.535999 27.5401 0.0739993 28.7861 0.0739993C30.4241 0.0739993 31.7121 0.816 32.2581 1.992L31.3061 2.636C30.7321 1.726 29.8781 1.278 28.7301 1.278C27.8621 1.278 27.1341 1.614 26.5461 2.286C25.9581 2.972 25.6641 3.896 25.6781 5.086C26.2241 4.064 27.4981 3.448 28.8981 3.448C30.0321 3.448 30.9421 3.742 31.6001 4.344C32.2581 4.946 32.5941 5.744 32.5941 6.724C32.5941 7.718 32.2301 8.544 31.4881 9.174C30.7461 9.804 29.8221 10.126 28.7161 10.126C26.0701 10.126 24.4321 8.404 24.4321 5.366ZM25.8321 6.556C26.0981 7.942 27.1481 8.922 28.7021 8.922C29.4581 8.922 30.0881 8.726 30.5781 8.32C31.0681 7.928 31.3061 7.41 31.3061 6.78C31.3061 5.394 30.3261 4.652 28.8281 4.652C28.0021 4.652 27.3161 4.848 26.7841 5.24C26.2381 5.632 25.9301 6.066 25.8321 6.556ZM34.5407 10C34.0227 10.056 33.6307 9.762 33.6307 9.258C33.6307 8.768 33.9387 8.46 34.4847 8.46C35.1007 8.46 35.5067 8.88 35.5067 9.664C35.5067 11.064 34.7367 11.778 33.7147 12.016L33.4207 11.358C33.7287 11.274 34.0087 11.106 34.2607 10.84C34.4987 10.574 34.5967 10.294 34.5407 10ZM40.3892 4.414H40.8232C41.4532 4.414 41.9712 4.26 42.4052 3.966C42.8252 3.672 43.0352 3.28 43.0352 2.818C43.0352 1.768 42.2092 1.236 40.5712 1.236C39.0032 1.236 38.1492 1.81 38.1492 2.818C38.1492 3.728 39.0872 4.414 40.3892 4.414ZM40.7952 5.52H40.4452C39.6892 5.52 39.0592 5.688 38.5692 6.01C38.0792 6.332 37.8272 6.738 37.8272 7.228C37.8272 8.292 38.8072 8.964 40.5852 8.964C42.3912 8.964 43.3572 8.32 43.3572 7.242C43.3572 6.164 42.3212 5.52 40.7952 5.52ZM43.5532 9.37C42.8392 9.874 41.8452 10.126 40.5992 10.126C39.3532 10.126 38.3592 9.874 37.6312 9.384C36.9032 8.894 36.5392 8.222 36.5392 7.354C36.5392 6.22 37.2812 5.324 38.4712 4.932C37.3932 4.582 36.8612 3.728 36.8612 2.734C36.8612 1.11 38.2332 0.0739993 40.5852 0.0739993C42.9512 0.0739993 44.3232 1.11 44.3232 2.734C44.3232 3.672 43.8052 4.386 42.7692 4.862C44.0152 5.24 44.6312 6.052 44.6312 7.298C44.6312 8.18 44.2672 8.88 43.5532 9.37ZM53.8711 4.918C53.8711 6.584 53.4791 7.872 52.6811 8.768C51.8831 9.678 50.8191 10.126 49.4891 10.126C47.8651 10.126 46.5911 9.44 45.9611 8.39L46.9691 7.69C47.5291 8.474 48.5511 8.922 49.6571 8.922C50.5671 8.922 51.2951 8.558 51.8691 7.83C52.4431 7.116 52.6811 6.22 52.6111 5.156C52.1491 6.22 50.9871 7.004 49.4331 7.004C48.3411 7.004 47.4451 6.696 46.7451 6.066C46.0311 5.45 45.6811 4.638 45.6811 3.644C45.6811 2.552 46.0591 1.684 46.8151 1.04C47.5711 0.395999 48.5791 0.0739993 49.8251 0.0739993C52.3451 0.0739993 53.8711 1.838 53.8711 4.918ZM52.4011 3.602C52.1911 2.3 51.2951 1.278 49.6851 1.278C48.0051 1.278 46.9691 2.146 46.9691 3.602C46.9691 4.988 48.0191 5.8 49.6571 5.8C50.3991 5.8 51.0291 5.576 51.5191 5.128C52.0091 4.68 52.3031 4.176 52.4011 3.602ZM54.9209 5.1C54.9209 3.588 55.2709 2.37 55.9849 1.46C56.6849 0.55 57.7209 0.0879999 59.0789 0.0879999C61.8649 0.0879999 63.2509 1.922 63.2509 5.1C63.2509 6.626 62.9009 7.83 62.2149 8.74C61.5149 9.65 60.4789 10.112 59.1069 10.112C57.7909 10.112 56.7689 9.65 56.0269 8.726C55.2849 7.802 54.9209 6.598 54.9209 5.1ZM56.2089 5.1C56.2089 7.494 57.3009 8.922 59.1069 8.922C61.0109 8.922 61.9629 7.648 61.9629 5.1C61.9629 2.552 60.9969 1.278 59.0789 1.278C57.1329 1.278 56.2089 2.678 56.2089 5.1Z" fill="#1A3341"/>
<path d="M26.863 143.372L25.987 143.06C26.287 141.572 27.415 140.504 29.203 140.504C30.931 140.504 31.987 141.5 31.987 143.024C31.987 143.828 31.639 144.632 31.207 145.208C30.991 145.508 30.715 145.796 30.391 146.096C29.731 146.684 29.263 146.996 28.579 147.428L27.655 148.004H32.299V149H25.759V148.184L27.583 146.972C27.907 146.768 28.135 146.612 28.267 146.516C28.399 146.432 28.615 146.276 28.903 146.072C29.191 145.868 29.407 145.688 29.551 145.556C29.683 145.424 29.863 145.256 30.067 145.04C30.619 144.44 30.823 143.888 30.883 143.132C30.883 142.04 30.175 141.548 29.131 141.548C28.483 141.548 27.967 141.728 27.595 142.088C27.223 142.448 26.971 142.88 26.863 143.372ZM33.1307 144.8C33.1307 143.504 33.4307 142.46 34.0427 141.68C34.6427 140.9 35.5307 140.504 36.6947 140.504C39.0827 140.504 40.2707 142.076 40.2707 144.8C40.2707 146.108 39.9707 147.14 39.3827 147.92C38.7827 148.7 37.8947 149.096 36.7187 149.096C35.5907 149.096 34.7147 148.7 34.0787 147.908C33.4427 147.116 33.1307 146.084 33.1307 144.8ZM34.2347 144.8C34.2347 146.852 35.1707 148.076 36.7187 148.076C38.3507 148.076 39.1667 146.984 39.1667 144.8C39.1667 142.616 38.3387 141.524 36.6947 141.524C35.0267 141.524 34.2347 142.724 34.2347 144.8ZM42.1269 143.372L41.2509 143.06C41.5509 141.572 42.6789 140.504 44.4669 140.504C46.1949 140.504 47.2509 141.5 47.2509 143.024C47.2509 143.828 46.9029 144.632 46.4709 145.208C46.2549 145.508 45.9789 145.796 45.6549 146.096C44.9949 146.684 44.5269 146.996 43.8429 147.428L42.9189 148.004H47.5629V149H41.0229V148.184L42.8469 146.972C43.1709 146.768 43.3989 146.612 43.5309 146.516C43.6629 146.432 43.8789 146.276 44.1669 146.072C44.4549 145.868 44.6709 145.688 44.8149 145.556C44.9469 145.424 45.1269 145.256 45.3309 145.04C45.8829 144.44 46.0869 143.888 46.1469 143.132C46.1469 142.04 45.4389 141.548 44.3949 141.548C43.7469 141.548 43.2309 141.728 42.8589 142.088C42.4869 142.448 42.2349 142.88 42.1269 143.372ZM48.2986 142.832L47.9146 141.932L50.7946 140.552H51.4786V149H50.4466V141.836L48.2986 142.832Z" fill="#1A3341" fill-opacity="0.6"/>
<path d="M11 22C11 20.8954 11.8954 20 13 20H65C66.1046 20 67 20.8954 67 22V134H11V22Z" fill="url(#paint3_linear_7002_37668)"/>
<path opacity="0.2" d="M23 20H55V134H23V20Z" fill="url(#paint4_linear_7002_37668)"/>
<path opacity="0.04" d="M55 20H65C66.1046 20 67 20.8954 67 22V134H55V20Z" fill="#0D262C"/>
<path opacity="0.5" d="M11 22C11 20.8954 11.8954 20 13 20H23V134H11V22Z" fill="url(#paint5_linear_7002_37668)"/>
<path d="M281.037 30H279.819V27.998H273.827V27.186L279.959 20.2H281.037V26.864H282.857V27.998H281.037V30ZM279.819 22.16L275.507 26.864H279.819V22.16ZM289.155 21.39H283.219V20.2H290.653V20.998L285.781 30H284.451L289.155 21.39ZM291.49 30C290.972 30.056 290.58 29.762 290.58 29.258C290.58 28.768 290.888 28.46 291.434 28.46C292.05 28.46 292.456 28.88 292.456 29.664C292.456 31.064 291.686 31.778 290.664 32.016L290.37 31.358C290.678 31.274 290.958 31.106 291.21 30.84C291.448 30.574 291.546 30.294 291.49 30ZM294.902 25.492L293.894 25.226L294.468 20.2H300.628V21.39H295.546L295.182 24.022C295.672 23.658 296.414 23.476 297.408 23.476C298.556 23.476 299.452 23.784 300.11 24.386C300.754 25.002 301.076 25.786 301.076 26.752C301.076 27.718 300.712 28.53 299.998 29.16C299.27 29.804 298.36 30.126 297.282 30.126C295.448 30.126 293.922 29.258 293.292 27.732L294.412 27.256C294.818 28.194 295.868 28.936 297.282 28.936C298.892 28.936 299.788 28.012 299.788 26.794C299.788 25.492 298.738 24.652 297.072 24.652C296.176 24.652 295.448 24.932 294.902 25.492ZM308.901 30H307.683V27.998H301.691V27.186L307.823 20.2H308.901V26.864H310.721V27.998H308.901V30ZM307.683 22.16L303.371 26.864H307.683V22.16ZM311.293 22.804L310.845 21.754L314.205 20.144H315.003V30H313.799V21.642L311.293 22.804Z" fill="#1A3341"/>
<path d="M281.527 143.372L280.651 143.06C280.951 141.572 282.079 140.504 283.867 140.504C285.595 140.504 286.651 141.5 286.651 143.024C286.651 143.828 286.303 144.632 285.871 145.208C285.655 145.508 285.379 145.796 285.055 146.096C284.395 146.684 283.927 146.996 283.243 147.428L282.319 148.004H286.963V149H280.423V148.184L282.247 146.972C282.571 146.768 282.799 146.612 282.931 146.516C283.063 146.432 283.279 146.276 283.567 146.072C283.855 145.868 284.071 145.688 284.215 145.556C284.347 145.424 284.527 145.256 284.731 145.04C285.283 144.44 285.487 143.888 285.547 143.132C285.547 142.04 284.839 141.548 283.795 141.548C283.147 141.548 282.631 141.728 282.259 142.088C281.887 142.448 281.635 142.88 281.527 143.372ZM287.795 144.8C287.795 143.504 288.095 142.46 288.707 141.68C289.307 140.9 290.195 140.504 291.359 140.504C293.747 140.504 294.935 142.076 294.935 144.8C294.935 146.108 294.635 147.14 294.047 147.92C293.447 148.7 292.559 149.096 291.383 149.096C290.255 149.096 289.379 148.7 288.743 147.908C288.107 147.116 287.795 146.084 287.795 144.8ZM288.899 144.8C288.899 146.852 289.835 148.076 291.383 148.076C293.015 148.076 293.831 146.984 293.831 144.8C293.831 142.616 293.003 141.524 291.359 141.524C289.691 141.524 288.899 142.724 288.899 144.8ZM296.791 143.372L295.915 143.06C296.215 141.572 297.343 140.504 299.131 140.504C300.859 140.504 301.915 141.5 301.915 143.024C301.915 143.828 301.567 144.632 301.135 145.208C300.919 145.508 300.643 145.796 300.319 146.096C299.659 146.684 299.191 146.996 298.507 147.428L297.583 148.004H302.227V149H295.687V148.184L297.511 146.972C297.835 146.768 298.063 146.612 298.195 146.516C298.327 146.432 298.543 146.276 298.831 146.072C299.119 145.868 299.335 145.688 299.479 145.556C299.611 145.424 299.791 145.256 299.995 145.04C300.547 144.44 300.751 143.888 300.811 143.132C300.811 142.04 300.103 141.548 299.059 141.548C298.411 141.548 297.895 141.728 297.523 142.088C297.151 142.448 296.899 142.88 296.791 143.372ZM303.887 143.048L302.987 142.64C303.431 141.344 304.595 140.492 306.335 140.492C307.163 140.492 307.847 140.684 308.375 141.068C308.903 141.452 309.167 141.968 309.167 142.604C309.167 143.576 308.651 144.296 307.691 144.572C308.615 144.632 309.359 145.328 309.359 146.576C309.359 147.368 309.071 147.992 308.495 148.436C307.919 148.88 307.187 149.108 306.287 149.108C304.451 149.108 303.179 148.232 302.759 146.852L303.731 146.432C304.247 147.524 305.123 148.076 306.359 148.076C307.523 148.076 308.255 147.536 308.255 146.588C308.255 145.664 307.535 145.196 306.095 145.196H305.159V144.2H305.903C307.211 144.2 308.063 143.612 308.063 142.808C308.063 141.98 307.379 141.512 306.287 141.512C305.003 141.512 304.223 142.172 303.887 143.048Z" fill="#1A3341" fill-opacity="0.6"/>
<path d="M267 42C267 40.8954 267.895 40 269 40H321C322.105 40 323 40.8954 323 42V134H267V42Z" fill="url(#paint6_linear_7002_37668)"/>
<path opacity="0.2" d="M279 40H311V134H279V40Z" fill="url(#paint7_linear_7002_37668)"/>
<path opacity="0.04" d="M311 40H321C322.105 40 323 40.8954 323 42V134H311V40Z" fill="#0D262C"/>
<path opacity="0.5" d="M267 42C267 40.8954 267.895 40 269 40H279V134H267V42Z" fill="url(#paint8_linear_7002_37668)"/>
<path d="M91.3084 25.136H85.7404V24.236H91.3084V25.136ZM98.2584 29H92.8464V28.004H95.4024V21.836L93.2544 22.832L92.8704 21.932L95.7504 20.552H96.4344V28.004H98.2584V29ZM99.6337 25.028C99.6337 23.576 99.9577 22.448 100.606 21.668C101.254 20.888 102.094 20.492 103.126 20.492C104.446 20.492 105.358 21.044 105.862 22.136L105.046 22.688C104.554 21.908 104.038 21.524 103.078 21.524C101.626 21.524 100.69 22.712 100.702 24.788C101.206 23.852 102.046 23.384 103.222 23.384C105.142 23.384 106.15 24.464 106.15 26.192C106.15 27.056 105.862 27.752 105.286 28.292C104.698 28.832 103.966 29.108 103.066 29.108C100.954 29.108 99.6337 27.62 99.6337 25.028ZM100.834 26.048C101.098 27.404 101.842 28.076 103.054 28.076C104.314 28.076 105.046 27.356 105.046 26.24C105.046 25.028 104.422 24.416 103.162 24.416C101.77 24.416 101.014 25.172 100.834 26.048ZM108.977 29.18L108.185 28.724L114.389 20.336L115.145 20.888L108.977 29.18ZM106.889 22.616C106.889 22.016 107.093 21.524 107.513 21.14C107.933 20.756 108.449 20.564 109.085 20.564C109.709 20.564 110.225 20.756 110.645 21.14C111.065 21.524 111.269 22.016 111.269 22.616C111.269 23.204 111.065 23.696 110.645 24.08C110.225 24.464 109.709 24.656 109.085 24.656C108.449 24.656 107.933 24.464 107.513 24.08C107.093 23.696 106.889 23.204 106.889 22.616ZM107.897 22.616C107.897 23.3 108.449 23.804 109.085 23.804C109.745 23.804 110.261 23.324 110.261 22.616C110.261 21.908 109.721 21.428 109.085 21.428C108.425 21.428 107.897 21.908 107.897 22.616ZM112.661 28.472C112.241 28.088 112.037 27.596 112.037 26.996C112.037 26.396 112.241 25.904 112.661 25.52C113.081 25.148 113.597 24.956 114.233 24.956C114.857 24.956 115.373 25.148 115.793 25.52C116.213 25.904 116.417 26.396 116.417 26.996C116.417 27.584 116.213 28.076 115.793 28.46C115.373 28.856 114.857 29.048 114.233 29.048C113.597 29.048 113.081 28.856 112.661 28.472ZM113.045 26.996C113.045 27.68 113.597 28.184 114.233 28.184C114.893 28.184 115.409 27.704 115.409 26.996C115.409 26.288 114.869 25.808 114.233 25.808C113.573 25.808 113.045 26.288 113.045 26.996Z" fill="#7DA4C1"/>
<path d="M128.747 38.3536C128.943 38.1583 128.943 37.8417 128.747 37.6465L125.566 34.4645C125.37 34.2692 125.054 34.2692 124.858 34.4645C124.663 34.6597 124.663 34.9763 124.858 35.1716L127.687 38L124.858 40.8284C124.663 41.0237 124.663 41.3403 124.858 41.5355C125.054 41.7308 125.37 41.7308 125.566 41.5355L128.747 38.3536ZM77 38.5L128.394 38.5L128.394 37.5L77 37.5L77 38.5Z" fill="#7DA4C1"/>
<path d="M216.978 25.136H211.41V24.236H216.978V25.136ZM218.036 24.8C218.036 23.504 218.312 22.46 218.852 21.68C219.392 20.9 220.184 20.504 221.24 20.504C223.388 20.504 224.456 22.076 224.456 24.8C224.456 26.108 224.192 27.14 223.652 27.92C223.112 28.7 222.32 29.096 221.264 29.096C220.244 29.096 219.452 28.7 218.888 27.908C218.324 27.116 218.036 26.084 218.036 24.8ZM219.14 24.8C219.14 26.828 219.932 28.076 221.264 28.076C222.656 28.076 223.352 26.984 223.352 24.8C223.352 22.616 222.644 21.524 221.24 21.524C219.836 21.524 219.14 22.616 219.14 24.8ZM225.448 28.316C225.448 27.98 225.76 27.644 226.192 27.644C226.588 27.644 226.912 27.98 226.912 28.316C226.912 28.7 226.612 29.024 226.192 29.024C225.76 29.024 225.448 28.7 225.448 28.316ZM229.248 25.136L228.384 24.908L228.876 20.6H234.156V21.62H229.8L229.488 23.876C229.908 23.564 230.544 23.408 231.396 23.408C232.38 23.408 233.148 23.672 233.712 24.188C234.264 24.716 234.54 25.388 234.54 26.216C234.54 27.044 234.228 27.74 233.616 28.28C232.992 28.832 232.212 29.108 231.288 29.108C229.716 29.108 228.408 28.364 227.868 27.056L228.828 26.648C229.176 27.452 230.076 28.088 231.288 28.088C232.668 28.088 233.436 27.296 233.436 26.252C233.436 25.136 232.536 24.416 231.108 24.416C230.34 24.416 229.716 24.656 229.248 25.136ZM237.307 29.18L236.515 28.724L242.719 20.336L243.475 20.888L237.307 29.18ZM235.219 22.616C235.219 22.016 235.423 21.524 235.843 21.14C236.263 20.756 236.779 20.564 237.415 20.564C238.039 20.564 238.555 20.756 238.975 21.14C239.395 21.524 239.599 22.016 239.599 22.616C239.599 23.204 239.395 23.696 238.975 24.08C238.555 24.464 238.039 24.656 237.415 24.656C236.779 24.656 236.263 24.464 235.843 24.08C235.423 23.696 235.219 23.204 235.219 22.616ZM236.227 22.616C236.227 23.3 236.779 23.804 237.415 23.804C238.075 23.804 238.591 23.324 238.591 22.616C238.591 21.908 238.051 21.428 237.415 21.428C236.755 21.428 236.227 21.908 236.227 22.616ZM240.991 28.472C240.571 28.088 240.367 27.596 240.367 26.996C240.367 26.396 240.571 25.904 240.991 25.52C241.411 25.148 241.927 24.956 242.563 24.956C243.187 24.956 243.703 25.148 244.123 25.52C244.543 25.904 244.747 26.396 244.747 26.996C244.747 27.584 244.543 28.076 244.123 28.46C243.703 28.856 243.187 29.048 242.563 29.048C241.927 29.048 241.411 28.856 240.991 28.472ZM241.375 26.996C241.375 27.68 241.927 28.184 242.563 28.184C243.223 28.184 243.739 27.704 243.739 26.996C243.739 26.288 243.199 25.808 242.563 25.808C241.903 25.808 241.375 26.288 241.375 26.996Z" fill="#7DA4C1"/>
<path d="M255.778 38.3536C255.973 38.1583 255.973 37.8417 255.778 37.6464L252.596 34.4645C252.401 34.2692 252.084 34.2692 251.889 34.4645C251.693 34.6597 251.693 34.9763 251.889 35.1716L254.717 38L251.889 40.8284C251.693 41.0237 251.693 41.3403 251.889 41.5355C252.084 41.7308 252.401 41.7308 252.596 41.5355L255.778 38.3536ZM205 38.5L255.424 38.5L255.424 37.5L205 37.5L205 38.5Z" fill="#7DA4C1"/>
<defs>
<linearGradient id="paint0_linear_7002_37668" x1="167" y1="38" x2="167" y2="134" gradientUnits="userSpaceOnUse">
<stop stop-color="#45B8DB"/>
<stop offset="1" stop-color="#ADE4E4"/>
</linearGradient>
<linearGradient id="paint1_linear_7002_37668" x1="167" y1="38" x2="167" y2="134" gradientUnits="userSpaceOnUse">
<stop stop-color="white" stop-opacity="0"/>
<stop offset="0.739583" stop-color="white"/>
</linearGradient>
<linearGradient id="paint2_linear_7002_37668" x1="145" y1="-149.2" x2="145" y2="134" gradientUnits="userSpaceOnUse">
<stop stop-color="white" stop-opacity="0.05"/>
<stop offset="0.75" stop-color="white" stop-opacity="0.8"/>
</linearGradient>
<linearGradient id="paint3_linear_7002_37668" x1="39" y1="20" x2="39" y2="134" gradientUnits="userSpaceOnUse">
<stop stop-color="#45B8DB"/>
<stop offset="1" stop-color="#ADE4E4"/>
</linearGradient>
<linearGradient id="paint4_linear_7002_37668" x1="39" y1="20" x2="39" y2="134" gradientUnits="userSpaceOnUse">
<stop stop-color="white" stop-opacity="0"/>
<stop offset="0.739583" stop-color="white"/>
</linearGradient>
<linearGradient id="paint5_linear_7002_37668" x1="17" y1="-202.3" x2="17" y2="134" gradientUnits="userSpaceOnUse">
<stop stop-color="white" stop-opacity="0.05"/>
<stop offset="0.75" stop-color="white" stop-opacity="0.8"/>
</linearGradient>
<linearGradient id="paint6_linear_7002_37668" x1="295" y1="40" x2="295" y2="134" gradientUnits="userSpaceOnUse">
<stop stop-color="#45B8DB"/>
<stop offset="1" stop-color="#ADE4E4"/>
</linearGradient>
<linearGradient id="paint7_linear_7002_37668" x1="295" y1="40" x2="295" y2="134" gradientUnits="userSpaceOnUse">
<stop stop-color="white" stop-opacity="0"/>
<stop offset="0.739583" stop-color="white"/>
</linearGradient>
<linearGradient id="paint8_linear_7002_37668" x1="273" y1="-143.3" x2="273" y2="134" gradientUnits="userSpaceOnUse">
<stop stop-color="white" stop-opacity="0.05"/>
<stop offset="0.75" stop-color="white" stop-opacity="0.8"/>
</linearGradient>
</defs>
</svg>
