<svg width="335" height="243" viewBox="0 0 335 243" fill="none" xmlns="http://www.w3.org/2000/svg">
<path d="M19.7072 90.366C19.7072 88.672 20.1272 87.37 20.9532 86.446C21.7792 85.536 22.8152 85.074 24.0612 85.074C25.6992 85.074 26.9872 85.816 27.5332 86.992L26.5812 87.636C26.0072 86.726 25.1532 86.278 24.0052 86.278C23.1372 86.278 22.4092 86.614 21.8212 87.286C21.2332 87.972 20.9392 88.896 20.9532 90.086C21.4992 89.064 22.7732 88.448 24.1732 88.448C25.3072 88.448 26.2172 88.742 26.8752 89.344C27.5332 89.946 27.8692 90.744 27.8692 91.724C27.8692 92.718 27.5052 93.544 26.7632 94.174C26.0212 94.804 25.0972 95.126 23.9912 95.126C21.3452 95.126 19.7072 93.404 19.7072 90.366ZM21.1072 91.556C21.3732 92.942 22.4232 93.922 23.9772 93.922C24.7332 93.922 25.3632 93.726 25.8532 93.32C26.3432 92.928 26.5812 92.41 26.5812 91.78C26.5812 90.394 25.6012 89.652 24.1032 89.652C23.2772 89.652 22.5912 89.848 22.0592 90.24C21.5132 90.632 21.2052 91.066 21.1072 91.556ZM29.8157 95C29.2977 95.056 28.9057 94.762 28.9057 94.258C28.9057 93.768 29.2137 93.46 29.7597 93.46C30.3757 93.46 30.7817 93.88 30.7817 94.664C30.7817 96.064 30.0117 96.778 28.9897 97.016L28.6957 96.358C29.0037 96.274 29.2837 96.106 29.5357 95.84C29.7737 95.574 29.8717 95.294 29.8157 95ZM37.4142 86.39H31.4782V85.2H38.9122V85.998L34.0402 95H32.7102L37.4142 86.39ZM47.8063 89.918C47.8063 91.584 47.4143 92.872 46.6163 93.768C45.8183 94.678 44.7543 95.126 43.4243 95.126C41.8003 95.126 40.5263 94.44 39.8963 93.39L40.9043 92.69C41.4643 93.474 42.4863 93.922 43.5923 93.922C44.5023 93.922 45.2303 93.558 45.8043 92.83C46.3783 92.116 46.6163 91.22 46.5463 90.156C46.0843 91.22 44.9223 92.004 43.3683 92.004C42.2763 92.004 41.3803 91.696 40.6803 91.066C39.9663 90.45 39.6163 89.638 39.6163 88.644C39.6163 87.552 39.9943 86.684 40.7503 86.04C41.5063 85.396 42.5143 85.074 43.7603 85.074C46.2803 85.074 47.8063 86.838 47.8063 89.918ZM46.3363 88.602C46.1263 87.3 45.2303 86.278 43.6203 86.278C41.9403 86.278 40.9043 87.146 40.9043 88.602C40.9043 89.988 41.9543 90.8 43.5923 90.8C44.3343 90.8 44.9643 90.576 45.4543 90.128C45.9443 89.68 46.2383 89.176 46.3363 88.602ZM49.8222 88.056L48.7722 87.58C49.2902 86.068 50.6482 85.074 52.6782 85.074C53.6442 85.074 54.4422 85.298 55.0582 85.746C55.6742 86.194 55.9822 86.796 55.9822 87.538C55.9822 88.672 55.3802 89.512 54.2602 89.834C55.3382 89.904 56.2062 90.716 56.2062 92.172C56.2062 93.096 55.8702 93.824 55.1982 94.342C54.5262 94.86 53.6722 95.126 52.6222 95.126C50.4802 95.126 48.9962 94.104 48.5062 92.494L49.6402 92.004C50.2422 93.278 51.2642 93.922 52.7062 93.922C54.0642 93.922 54.9182 93.292 54.9182 92.186C54.9182 91.108 54.0782 90.562 52.3982 90.562H51.3062V89.4H52.1742C53.7002 89.4 54.6942 88.714 54.6942 87.776C54.6942 86.81 53.8962 86.264 52.6222 86.264C51.1242 86.264 50.2142 87.034 49.8222 88.056Z" fill="#1A3341"/>
<path d="M25.863 236.372L24.987 236.06C25.287 234.572 26.415 233.504 28.203 233.504C29.931 233.504 30.987 234.5 30.987 236.024C30.987 236.828 30.639 237.632 30.207 238.208C29.991 238.508 29.715 238.796 29.391 239.096C28.731 239.684 28.263 239.996 27.579 240.428L26.655 241.004H31.299V242H24.759V241.184L26.583 239.972C26.907 239.768 27.135 239.612 27.267 239.516C27.399 239.432 27.615 239.276 27.903 239.072C28.191 238.868 28.407 238.688 28.551 238.556C28.683 238.424 28.863 238.256 29.067 238.04C29.619 237.44 29.823 236.888 29.883 236.132C29.883 235.04 29.175 234.548 28.131 234.548C27.483 234.548 26.967 234.728 26.595 235.088C26.223 235.448 25.971 235.88 25.863 236.372ZM32.1307 237.8C32.1307 236.504 32.4307 235.46 33.0427 234.68C33.6427 233.9 34.5307 233.504 35.6947 233.504C38.0827 233.504 39.2707 235.076 39.2707 237.8C39.2707 239.108 38.9707 240.14 38.3827 240.92C37.7827 241.7 36.8947 242.096 35.7187 242.096C34.5907 242.096 33.7147 241.7 33.0787 240.908C32.4427 240.116 32.1307 239.084 32.1307 237.8ZM33.2347 237.8C33.2347 239.852 34.1707 241.076 35.7187 241.076C37.3507 241.076 38.1667 239.984 38.1667 237.8C38.1667 235.616 37.3387 234.524 35.6947 234.524C34.0267 234.524 33.2347 235.724 33.2347 237.8ZM41.1269 236.372L40.2509 236.06C40.5509 234.572 41.6789 233.504 43.4669 233.504C45.1949 233.504 46.2509 234.5 46.2509 236.024C46.2509 236.828 45.9029 237.632 45.4709 238.208C45.2549 238.508 44.9789 238.796 44.6549 239.096C43.9949 239.684 43.5269 239.996 42.8429 240.428L41.9189 241.004H46.5629V242H40.0229V241.184L41.8469 239.972C42.1709 239.768 42.3989 239.612 42.5309 239.516C42.6629 239.432 42.8789 239.276 43.1669 239.072C43.4549 238.868 43.6709 238.688 43.8149 238.556C43.9469 238.424 44.1269 238.256 44.3309 238.04C44.8829 237.44 45.0869 236.888 45.1469 236.132C45.1469 235.04 44.4389 234.548 43.3949 234.548C42.7469 234.548 42.2309 234.728 41.8589 235.088C41.4869 235.448 41.2349 235.88 41.1269 236.372ZM47.2986 235.832L46.9146 234.932L49.7946 233.552H50.4786V242H49.4466V234.836L47.2986 235.832Z" fill="#1A3341" fill-opacity="0.6"/>
<path d="M10 107C10 105.895 10.8954 105 12 105H64C65.1046 105 66 105.895 66 107V227H10V107Z" fill="url(#paint0_linear_5796_27098)"/>
<path opacity="0.2" d="M22 105H54V227H22V105Z" fill="url(#paint1_linear_5796_27098)"/>
<path opacity="0.04" d="M54 105H64C65.1046 105 66 105.895 66 107V227H54V105Z" fill="#0D262C"/>
<path opacity="0.5" d="M10 107C10 105.895 10.8954 105 12 105H22V227H10V107Z" fill="url(#paint2_linear_5796_27098)"/>
<path d="M144.575 103.366C144.575 101.672 144.995 100.37 145.821 99.446C146.647 98.536 147.683 98.074 148.929 98.074C150.567 98.074 151.855 98.816 152.401 99.992L151.449 100.636C150.875 99.726 150.021 99.278 148.873 99.278C148.005 99.278 147.277 99.614 146.689 100.286C146.101 100.972 145.807 101.896 145.821 103.086C146.367 102.064 147.641 101.448 149.041 101.448C150.175 101.448 151.085 101.742 151.743 102.344C152.401 102.946 152.737 103.744 152.737 104.724C152.737 105.718 152.373 106.544 151.631 107.174C150.889 107.804 149.965 108.126 148.859 108.126C146.213 108.126 144.575 106.404 144.575 103.366ZM145.975 104.556C146.241 105.942 147.291 106.922 148.845 106.922C149.601 106.922 150.231 106.726 150.721 106.32C151.211 105.928 151.449 105.41 151.449 104.78C151.449 103.394 150.469 102.652 148.971 102.652C148.145 102.652 147.459 102.848 146.927 103.24C146.381 103.632 146.073 104.066 145.975 104.556ZM154.684 108C154.166 108.056 153.774 107.762 153.774 107.258C153.774 106.768 154.082 106.46 154.628 106.46C155.244 106.46 155.65 106.88 155.65 107.664C155.65 109.064 154.88 109.778 153.858 110.016L153.564 109.358C153.872 109.274 154.152 109.106 154.404 108.84C154.642 108.574 154.74 108.294 154.684 108ZM163.43 108H162.212V105.998H156.22V105.186L162.352 98.2H163.43V104.864H165.25V105.998H163.43V108ZM162.212 100.16L157.9 104.864H162.212V100.16ZM165.935 103.366C165.935 101.672 166.355 100.37 167.181 99.446C168.007 98.536 169.043 98.074 170.289 98.074C171.927 98.074 173.215 98.816 173.761 99.992L172.809 100.636C172.235 99.726 171.381 99.278 170.233 99.278C169.365 99.278 168.637 99.614 168.049 100.286C167.461 100.972 167.167 101.896 167.181 103.086C167.727 102.064 169.001 101.448 170.401 101.448C171.535 101.448 172.445 101.742 173.103 102.344C173.761 102.946 174.097 103.744 174.097 104.724C174.097 105.718 173.733 106.544 172.991 107.174C172.249 107.804 171.325 108.126 170.219 108.126C167.573 108.126 165.935 106.404 165.935 103.366ZM167.335 104.556C167.601 105.942 168.651 106.922 170.205 106.922C170.961 106.922 171.591 106.726 172.081 106.32C172.571 105.928 172.809 105.41 172.809 104.78C172.809 103.394 171.829 102.652 170.331 102.652C169.505 102.652 168.819 102.848 168.287 103.24C167.741 103.632 167.433 104.066 167.335 104.556ZM174.993 100.804L174.545 99.754L177.905 98.144H178.703V108H177.499V99.642L174.993 100.804Z" fill="#1A3341"/>
<path d="M148.556 236.372L147.68 236.06C147.98 234.572 149.108 233.504 150.896 233.504C152.624 233.504 153.68 234.5 153.68 236.024C153.68 236.828 153.332 237.632 152.9 238.208C152.684 238.508 152.408 238.796 152.084 239.096C151.424 239.684 150.956 239.996 150.272 240.428L149.348 241.004H153.992V242H147.452V241.184L149.276 239.972C149.6 239.768 149.828 239.612 149.96 239.516C150.092 239.432 150.308 239.276 150.596 239.072C150.884 238.868 151.1 238.688 151.244 238.556C151.376 238.424 151.556 238.256 151.76 238.04C152.312 237.44 152.516 236.888 152.576 236.132C152.576 235.04 151.868 234.548 150.824 234.548C150.176 234.548 149.66 234.728 149.288 235.088C148.916 235.448 148.664 235.88 148.556 236.372ZM154.824 237.8C154.824 236.504 155.124 235.46 155.736 234.68C156.336 233.9 157.224 233.504 158.388 233.504C160.776 233.504 161.964 235.076 161.964 237.8C161.964 239.108 161.664 240.14 161.076 240.92C160.476 241.7 159.588 242.096 158.412 242.096C157.284 242.096 156.408 241.7 155.772 240.908C155.136 240.116 154.824 239.084 154.824 237.8ZM155.928 237.8C155.928 239.852 156.864 241.076 158.412 241.076C160.044 241.076 160.86 239.984 160.86 237.8C160.86 235.616 160.032 234.524 158.388 234.524C156.72 234.524 155.928 235.724 155.928 237.8ZM163.82 236.372L162.944 236.06C163.244 234.572 164.372 233.504 166.16 233.504C167.888 233.504 168.944 234.5 168.944 236.024C168.944 236.828 168.596 237.632 168.164 238.208C167.948 238.508 167.672 238.796 167.348 239.096C166.688 239.684 166.22 239.996 165.536 240.428L164.612 241.004H169.256V242H162.716V241.184L164.54 239.972C164.864 239.768 165.092 239.612 165.224 239.516C165.356 239.432 165.572 239.276 165.86 239.072C166.148 238.868 166.364 238.688 166.508 238.556C166.64 238.424 166.82 238.256 167.024 238.04C167.576 237.44 167.78 236.888 167.84 236.132C167.84 235.04 167.132 234.548 166.088 234.548C165.44 234.548 164.924 234.728 164.552 235.088C164.18 235.448 163.928 235.88 163.82 236.372ZM171.048 236.372L170.172 236.06C170.472 234.572 171.6 233.504 173.388 233.504C175.116 233.504 176.172 234.5 176.172 236.024C176.172 236.828 175.824 237.632 175.392 238.208C175.176 238.508 174.9 238.796 174.576 239.096C173.916 239.684 173.448 239.996 172.764 240.428L171.84 241.004H176.484V242H169.944V241.184L171.768 239.972C172.092 239.768 172.32 239.612 172.452 239.516C172.584 239.432 172.8 239.276 173.088 239.072C173.376 238.868 173.592 238.688 173.736 238.556C173.868 238.424 174.048 238.256 174.252 238.04C174.804 237.44 175.008 236.888 175.068 236.132C175.068 235.04 174.36 234.548 173.316 234.548C172.668 234.548 172.152 234.728 171.78 235.088C171.408 235.448 171.156 235.88 171.048 236.372Z" fill="#1A3341" fill-opacity="0.6"/>
<path d="M134 120C134 118.895 134.895 118 136 118H188C189.105 118 190 118.895 190 120V227H134V120Z" fill="url(#paint3_linear_5796_27098)"/>
<path opacity="0.2" d="M146 118H178V227H146V118Z" fill="url(#paint4_linear_5796_27098)"/>
<path opacity="0.04" d="M178 118H188C189.105 118 190 118.895 190 120V227H178V118Z" fill="#0D262C"/>
<path opacity="0.5" d="M134 120C134 118.895 134.895 118 136 118H146V227H134V120Z" fill="url(#paint5_linear_5796_27098)"/>
<path d="M266.832 109.366C266.832 107.672 267.252 106.37 268.078 105.446C268.904 104.536 269.94 104.074 271.186 104.074C272.824 104.074 274.112 104.816 274.658 105.992L273.706 106.636C273.132 105.726 272.278 105.278 271.13 105.278C270.262 105.278 269.534 105.614 268.946 106.286C268.358 106.972 268.064 107.896 268.078 109.086C268.624 108.064 269.898 107.448 271.298 107.448C272.432 107.448 273.342 107.742 274 108.344C274.658 108.946 274.994 109.744 274.994 110.724C274.994 111.718 274.63 112.544 273.888 113.174C273.146 113.804 272.222 114.126 271.116 114.126C268.47 114.126 266.832 112.404 266.832 109.366ZM268.232 110.556C268.498 111.942 269.548 112.922 271.102 112.922C271.858 112.922 272.488 112.726 272.978 112.32C273.468 111.928 273.706 111.41 273.706 110.78C273.706 109.394 272.726 108.652 271.228 108.652C270.402 108.652 269.716 108.848 269.184 109.24C268.638 109.632 268.33 110.066 268.232 110.556ZM276.941 114C276.423 114.056 276.031 113.762 276.031 113.258C276.031 112.768 276.339 112.46 276.885 112.46C277.501 112.46 277.907 112.88 277.907 113.664C277.907 115.064 277.137 115.778 276.115 116.016L275.821 115.358C276.129 115.274 276.409 115.106 276.661 114.84C276.899 114.574 276.997 114.294 276.941 114ZM285.687 114H284.469V111.998H278.477V111.186L284.609 104.2H285.687V110.864H287.507V111.998H285.687V114ZM284.469 106.16L280.157 110.864H284.469V106.16ZM289.619 109.492L288.611 109.226L289.185 104.2H295.345V105.39H290.263L289.899 108.022C290.389 107.658 291.131 107.476 292.125 107.476C293.273 107.476 294.169 107.784 294.827 108.386C295.471 109.002 295.793 109.786 295.793 110.752C295.793 111.718 295.429 112.53 294.715 113.16C293.987 113.804 293.077 114.126 291.999 114.126C290.165 114.126 288.639 113.258 288.009 111.732L289.129 111.256C289.535 112.194 290.585 112.936 291.999 112.936C293.609 112.936 294.505 112.012 294.505 110.794C294.505 109.492 293.455 108.652 291.789 108.652C290.893 108.652 290.165 108.932 289.619 109.492ZM296.856 109.1C296.856 107.588 297.206 106.37 297.92 105.46C298.62 104.55 299.656 104.088 301.014 104.088C303.8 104.088 305.186 105.922 305.186 109.1C305.186 110.626 304.836 111.83 304.15 112.74C303.45 113.65 302.414 114.112 301.042 114.112C299.726 114.112 298.704 113.65 297.962 112.726C297.22 111.802 296.856 110.598 296.856 109.1ZM298.144 109.1C298.144 111.494 299.236 112.922 301.042 112.922C302.946 112.922 303.898 111.648 303.898 109.1C303.898 106.552 302.932 105.278 301.014 105.278C299.068 105.278 298.144 106.678 298.144 109.1Z" fill="#1A3341"/>
<path d="M272.527 236.372L271.651 236.06C271.951 234.572 273.079 233.504 274.867 233.504C276.595 233.504 277.651 234.5 277.651 236.024C277.651 236.828 277.303 237.632 276.871 238.208C276.655 238.508 276.379 238.796 276.055 239.096C275.395 239.684 274.927 239.996 274.243 240.428L273.319 241.004H277.963V242H271.423V241.184L273.247 239.972C273.571 239.768 273.799 239.612 273.931 239.516C274.063 239.432 274.279 239.276 274.567 239.072C274.855 238.868 275.071 238.688 275.215 238.556C275.347 238.424 275.527 238.256 275.731 238.04C276.283 237.44 276.487 236.888 276.547 236.132C276.547 235.04 275.839 234.548 274.795 234.548C274.147 234.548 273.631 234.728 273.259 235.088C272.887 235.448 272.635 235.88 272.527 236.372ZM278.795 237.8C278.795 236.504 279.095 235.46 279.707 234.68C280.307 233.9 281.195 233.504 282.359 233.504C284.747 233.504 285.935 235.076 285.935 237.8C285.935 239.108 285.635 240.14 285.047 240.92C284.447 241.7 283.559 242.096 282.383 242.096C281.255 242.096 280.379 241.7 279.743 240.908C279.107 240.116 278.795 239.084 278.795 237.8ZM279.899 237.8C279.899 239.852 280.835 241.076 282.383 241.076C284.015 241.076 284.831 239.984 284.831 237.8C284.831 235.616 284.003 234.524 282.359 234.524C280.691 234.524 279.899 235.724 279.899 237.8ZM287.791 236.372L286.915 236.06C287.215 234.572 288.343 233.504 290.131 233.504C291.859 233.504 292.915 234.5 292.915 236.024C292.915 236.828 292.567 237.632 292.135 238.208C291.919 238.508 291.643 238.796 291.319 239.096C290.659 239.684 290.191 239.996 289.507 240.428L288.583 241.004H293.227V242H286.687V241.184L288.511 239.972C288.835 239.768 289.063 239.612 289.195 239.516C289.327 239.432 289.543 239.276 289.831 239.072C290.119 238.868 290.335 238.688 290.479 238.556C290.611 238.424 290.791 238.256 290.995 238.04C291.547 237.44 291.751 236.888 291.811 236.132C291.811 235.04 291.103 234.548 290.059 234.548C289.411 234.548 288.895 234.728 288.523 235.088C288.151 235.448 287.899 235.88 287.791 236.372ZM294.887 236.048L293.987 235.64C294.431 234.344 295.595 233.492 297.335 233.492C298.163 233.492 298.847 233.684 299.375 234.068C299.903 234.452 300.167 234.968 300.167 235.604C300.167 236.576 299.651 237.296 298.691 237.572C299.615 237.632 300.359 238.328 300.359 239.576C300.359 240.368 300.071 240.992 299.495 241.436C298.919 241.88 298.187 242.108 297.287 242.108C295.451 242.108 294.179 241.232 293.759 239.852L294.731 239.432C295.247 240.524 296.123 241.076 297.359 241.076C298.523 241.076 299.255 240.536 299.255 239.588C299.255 238.664 298.535 238.196 297.095 238.196H296.159V237.2H296.903C298.211 237.2 299.063 236.612 299.063 235.808C299.063 234.98 298.379 234.512 297.287 234.512C296.003 234.512 295.223 235.172 294.887 236.048Z" fill="#1A3341" fill-opacity="0.6"/>
<path d="M258 126C258 124.895 258.895 124 260 124H312C313.105 124 314 124.895 314 126V227H258V126Z" fill="url(#paint6_linear_5796_27098)"/>
<path opacity="0.2" d="M270 124H302V227H270V124Z" fill="url(#paint7_linear_5796_27098)"/>
<path opacity="0.04" d="M302 124H312C313.105 124 314 124.895 314 126V227H302V124Z" fill="#0D262C"/>
<path opacity="0.5" d="M258 126C258 124.895 258.895 124 260 124H270V227H258V126Z" fill="url(#paint8_linear_5796_27098)"/>
<path d="M125.927 166.354C126.122 166.158 126.122 165.842 125.927 165.646L122.745 162.464C122.55 162.269 122.233 162.269 122.038 162.464C121.843 162.66 121.843 162.976 122.038 163.172L124.867 166L122.038 168.828C121.843 169.024 121.843 169.34 122.038 169.536C122.233 169.731 122.55 169.731 122.745 169.536L125.927 166.354ZM74.1797 166.5L125.574 166.5L125.574 165.5L74.1797 165.5L74.1797 166.5Z" fill="#7DA4C1"/>
<path d="M91.906 153.136H86.338V152.236H91.906V153.136ZM94.3201 153.136L93.4561 152.908L93.9481 148.6H99.2281V149.62H94.8721L94.5601 151.876C94.9801 151.564 95.6161 151.408 96.4681 151.408C97.4521 151.408 98.2201 151.672 98.7841 152.188C99.3361 152.716 99.6121 153.388 99.6121 154.216C99.6121 155.044 99.3001 155.74 98.6881 156.28C98.0641 156.832 97.2841 157.108 96.3601 157.108C94.7881 157.108 93.4801 156.364 92.9401 155.056L93.9001 154.648C94.2481 155.452 95.1481 156.088 96.3601 156.088C97.7401 156.088 98.5081 155.296 98.5081 154.252C98.5081 153.136 97.6081 152.416 96.1801 152.416C95.4121 152.416 94.7881 152.656 94.3201 153.136ZM102.379 157.18L101.587 156.724L107.791 148.336L108.547 148.888L102.379 157.18ZM100.291 150.616C100.291 150.016 100.495 149.524 100.915 149.14C101.335 148.756 101.851 148.564 102.487 148.564C103.111 148.564 103.627 148.756 104.047 149.14C104.467 149.524 104.671 150.016 104.671 150.616C104.671 151.204 104.467 151.696 104.047 152.08C103.627 152.464 103.111 152.656 102.487 152.656C101.851 152.656 101.335 152.464 100.915 152.08C100.495 151.696 100.291 151.204 100.291 150.616ZM101.299 150.616C101.299 151.3 101.851 151.804 102.487 151.804C103.147 151.804 103.663 151.324 103.663 150.616C103.663 149.908 103.123 149.428 102.487 149.428C101.827 149.428 101.299 149.908 101.299 150.616ZM106.063 156.472C105.643 156.088 105.439 155.596 105.439 154.996C105.439 154.396 105.643 153.904 106.063 153.52C106.483 153.148 106.999 152.956 107.635 152.956C108.259 152.956 108.775 153.148 109.195 153.52C109.615 153.904 109.819 154.396 109.819 154.996C109.819 155.584 109.615 156.076 109.195 156.46C108.775 156.856 108.259 157.048 107.635 157.048C106.999 157.048 106.483 156.856 106.063 156.472ZM106.447 154.996C106.447 155.68 106.999 156.184 107.635 156.184C108.295 156.184 108.811 155.704 108.811 154.996C108.811 154.288 108.271 153.808 107.635 153.808C106.975 153.808 106.447 154.288 106.447 154.996Z" fill="#7DA4C1"/>
<path d="M249.927 166.354C250.122 166.158 250.122 165.842 249.927 165.646L246.745 162.464C246.55 162.269 246.233 162.269 246.038 162.464C245.843 162.66 245.843 162.976 246.038 163.172L248.867 166L246.038 168.828C245.843 169.024 245.843 169.34 246.038 169.536C246.233 169.731 246.55 169.731 246.745 169.536L249.927 166.354ZM198.18 166.5L249.574 166.5L249.574 165.5L198.18 165.5L198.18 166.5Z" fill="#7DA4C1"/>
<path d="M210.978 153.136H205.41V152.236H210.978V153.136ZM212.036 152.8C212.036 151.504 212.312 150.46 212.852 149.68C213.392 148.9 214.184 148.504 215.24 148.504C217.388 148.504 218.456 150.076 218.456 152.8C218.456 154.108 218.192 155.14 217.652 155.92C217.112 156.7 216.32 157.096 215.264 157.096C214.244 157.096 213.452 156.7 212.888 155.908C212.324 155.116 212.036 154.084 212.036 152.8ZM213.14 152.8C213.14 154.828 213.932 156.076 215.264 156.076C216.656 156.076 217.352 154.984 217.352 152.8C217.352 150.616 216.644 149.524 215.24 149.524C213.836 149.524 213.14 150.616 213.14 152.8ZM219.448 156.316C219.448 155.98 219.76 155.644 220.192 155.644C220.588 155.644 220.912 155.98 220.912 156.316C220.912 156.7 220.612 157.024 220.192 157.024C219.76 157.024 219.448 156.7 219.448 156.316ZM222.984 151.372L222.108 151.06C222.408 149.56 223.488 148.504 225.264 148.504C226.992 148.504 227.988 149.5 227.988 151.024C227.952 152.284 227.364 153.28 226.476 154.084C225.852 154.672 225.36 155.008 224.7 155.428L223.776 156.004H228.3V157H222V156.184L223.704 154.972C224.7 154.264 225.348 153.772 225.648 153.496C226.476 152.74 226.884 151.948 226.884 151.132C226.884 150.028 226.212 149.548 225.192 149.548C223.896 149.548 223.224 150.364 222.984 151.372ZM231.307 157.18L230.515 156.724L236.719 148.336L237.475 148.888L231.307 157.18ZM229.219 150.616C229.219 150.016 229.423 149.524 229.843 149.14C230.263 148.756 230.779 148.564 231.415 148.564C232.039 148.564 232.555 148.756 232.975 149.14C233.395 149.524 233.599 150.016 233.599 150.616C233.599 151.204 233.395 151.696 232.975 152.08C232.555 152.464 232.039 152.656 231.415 152.656C230.779 152.656 230.263 152.464 229.843 152.08C229.423 151.696 229.219 151.204 229.219 150.616ZM230.227 150.616C230.227 151.3 230.779 151.804 231.415 151.804C232.075 151.804 232.591 151.324 232.591 150.616C232.591 149.908 232.051 149.428 231.415 149.428C230.755 149.428 230.227 149.908 230.227 150.616ZM234.991 156.472C234.571 156.088 234.367 155.596 234.367 154.996C234.367 154.396 234.571 153.904 234.991 153.52C235.411 153.148 235.927 152.956 236.563 152.956C237.187 152.956 237.703 153.148 238.123 153.52C238.543 153.904 238.747 154.396 238.747 154.996C238.747 155.584 238.543 156.076 238.123 156.46C237.703 156.856 237.187 157.048 236.563 157.048C235.927 157.048 235.411 156.856 234.991 156.472ZM235.375 154.996C235.375 155.68 235.927 156.184 236.563 156.184C237.223 156.184 237.739 155.704 237.739 154.996C237.739 154.288 237.199 153.808 236.563 153.808C235.903 153.808 235.375 154.288 235.375 154.996Z" fill="#7DA4C1"/>
<line y1="226.5" x2="335" y2="226.5" stroke="#ABBEC9"/>
<path d="M33 41L165.433 23H297" stroke="url(#paint9_linear_5796_27098)" stroke-width="5"/>
<circle cx="297" cy="23" r="7" fill="#64BBEA" stroke="white" stroke-width="2"/>
<circle cx="166" cy="23" r="7" fill="#64BBEA" stroke="white" stroke-width="2"/>
<circle cx="34" cy="40" r="7" fill="#64BBEA" stroke="white" stroke-width="2"/>
<path d="M25.228 28H20.718V27.17H22.848V22.03L21.058 22.86L20.738 22.11L23.138 20.96H23.708V27.17H25.228V28ZM26.3141 24.5C26.3141 23.42 26.5441 22.55 26.9941 21.9C27.4441 21.25 28.1041 20.92 28.9841 20.92C30.7741 20.92 31.6641 22.23 31.6641 24.5C31.6641 25.59 31.4441 26.45 30.9941 27.1C30.5441 27.75 29.8841 28.08 29.0041 28.08C28.1541 28.08 27.4941 27.75 27.0241 27.09C26.5541 26.43 26.3141 25.57 26.3141 24.5ZM27.2341 24.5C27.2341 26.19 27.8941 27.23 29.0041 27.23C30.1641 27.23 30.7441 26.32 30.7441 24.5C30.7441 22.68 30.1541 21.77 28.9841 21.77C27.8141 21.77 27.2341 22.68 27.2341 24.5ZM32.4902 27.43C32.4902 27.15 32.7502 26.87 33.1102 26.87C33.4402 26.87 33.7102 27.15 33.7102 27.43C33.7102 27.75 33.4602 28.02 33.1102 28.02C32.7502 28.02 32.4902 27.75 32.4902 27.43ZM35.657 24.78L34.937 24.59L35.347 21H39.747V21.85H36.117L35.857 23.73C36.207 23.47 36.737 23.34 37.447 23.34C38.267 23.34 38.907 23.56 39.377 23.99C39.837 24.43 40.067 24.99 40.067 25.68C40.067 26.37 39.807 26.95 39.297 27.4C38.777 27.86 38.127 28.09 37.357 28.09C36.047 28.09 34.957 27.47 34.507 26.38L35.307 26.04C35.597 26.71 36.347 27.24 37.357 27.24C38.507 27.24 39.147 26.58 39.147 25.71C39.147 24.78 38.397 24.18 37.207 24.18C36.567 24.18 36.047 24.38 35.657 24.78ZM42.3731 28.15L41.7131 27.77L46.8831 20.78L47.5131 21.24L42.3731 28.15ZM40.6331 22.68C40.6331 22.18 40.8031 21.77 41.1531 21.45C41.5031 21.13 41.9331 20.97 42.4631 20.97C42.9831 20.97 43.4131 21.13 43.7631 21.45C44.1131 21.77 44.2831 22.18 44.2831 22.68C44.2831 23.17 44.1131 23.58 43.7631 23.9C43.4131 24.22 42.9831 24.38 42.4631 24.38C41.9331 24.38 41.5031 24.22 41.1531 23.9C40.8031 23.58 40.6331 23.17 40.6331 22.68ZM41.4731 22.68C41.4731 23.25 41.9331 23.67 42.4631 23.67C43.0131 23.67 43.4431 23.27 43.4431 22.68C43.4431 22.09 42.9931 21.69 42.4631 21.69C41.9131 21.69 41.4731 22.09 41.4731 22.68ZM45.4431 27.56C45.0931 27.24 44.9231 26.83 44.9231 26.33C44.9231 25.83 45.0931 25.42 45.4431 25.1C45.7931 24.79 46.2231 24.63 46.7531 24.63C47.2731 24.63 47.7031 24.79 48.0531 25.1C48.4031 25.42 48.5731 25.83 48.5731 26.33C48.5731 26.82 48.4031 27.23 48.0531 27.55C47.7031 27.88 47.2731 28.04 46.7531 28.04C46.2231 28.04 45.7931 27.88 45.4431 27.56ZM45.7631 26.33C45.7631 26.9 46.2231 27.32 46.7531 27.32C47.3031 27.32 47.7331 26.92 47.7331 26.33C47.7331 25.74 47.2831 25.34 46.7531 25.34C46.2031 25.34 45.7631 25.74 45.7631 26.33Z" fill="#357D94"/>
<path d="M156.228 12H151.718V11.17H153.848V6.03L152.058 6.86L151.738 6.11L154.138 4.96H154.708V11.17H156.228V12ZM162.224 12H157.714V11.17H159.844V6.03L158.054 6.86L157.734 6.11L160.134 4.96H160.704V11.17H162.224V12ZM163.49 11.43C163.49 11.15 163.75 10.87 164.11 10.87C164.44 10.87 164.71 11.15 164.71 11.43C164.71 11.75 164.46 12.02 164.11 12.02C163.75 12.02 163.49 11.75 163.49 11.43ZM165.587 8.69C165.587 7.48 165.857 6.54 166.397 5.89C166.937 5.24 167.637 4.91 168.497 4.91C169.597 4.91 170.357 5.37 170.777 6.28L170.097 6.74C169.687 6.09 169.257 5.77 168.457 5.77C167.247 5.77 166.467 6.76 166.477 8.49C166.897 7.71 167.597 7.32 168.577 7.32C170.177 7.32 171.017 8.22 171.017 9.66C171.017 10.38 170.777 10.96 170.297 11.41C169.807 11.86 169.197 12.09 168.447 12.09C166.687 12.09 165.587 10.85 165.587 8.69ZM166.587 9.54C166.807 10.67 167.427 11.23 168.437 11.23C169.487 11.23 170.097 10.63 170.097 9.7C170.097 8.69 169.577 8.18 168.527 8.18C167.367 8.18 166.737 8.81 166.587 9.54ZM173.373 12.15L172.713 11.77L177.883 4.78L178.513 5.24L173.373 12.15ZM171.633 6.68C171.633 6.18 171.803 5.77 172.153 5.45C172.503 5.13 172.933 4.97 173.463 4.97C173.983 4.97 174.413 5.13 174.763 5.45C175.113 5.77 175.283 6.18 175.283 6.68C175.283 7.17 175.113 7.58 174.763 7.9C174.413 8.22 173.983 8.38 173.463 8.38C172.933 8.38 172.503 8.22 172.153 7.9C171.803 7.58 171.633 7.17 171.633 6.68ZM172.473 6.68C172.473 7.25 172.933 7.67 173.463 7.67C174.013 7.67 174.443 7.27 174.443 6.68C174.443 6.09 173.993 5.69 173.463 5.69C172.913 5.69 172.473 6.09 172.473 6.68ZM176.443 11.56C176.093 11.24 175.923 10.83 175.923 10.33C175.923 9.83 176.093 9.42 176.443 9.1C176.793 8.79 177.223 8.63 177.753 8.63C178.273 8.63 178.703 8.79 179.053 9.1C179.403 9.42 179.573 9.83 179.573 10.33C179.573 10.82 179.403 11.23 179.053 11.55C178.703 11.88 178.273 12.04 177.753 12.04C177.223 12.04 176.793 11.88 176.443 11.56ZM176.763 10.33C176.763 10.9 177.223 11.32 177.753 11.32C178.303 11.32 178.733 10.92 178.733 10.33C178.733 9.74 178.283 9.34 177.753 9.34C177.203 9.34 176.763 9.74 176.763 10.33Z" fill="#357D94"/>
<path d="M289.728 10H285.218V9.17H287.348V4.03L285.558 4.86L285.238 4.11L287.638 2.96H288.208V9.17H289.728V10ZM295.724 10H291.214V9.17H293.344V4.03L291.554 4.86L291.234 4.11L293.634 2.96H294.204V9.17H295.724V10ZM296.99 9.43C296.99 9.15 297.25 8.87 297.61 8.87C297.94 8.87 298.21 9.15 298.21 9.43C298.21 9.75 297.96 10.02 297.61 10.02C297.25 10.02 296.99 9.75 296.99 9.43ZM299.087 6.69C299.087 5.48 299.357 4.54 299.897 3.89C300.437 3.24 301.137 2.91 301.997 2.91C303.097 2.91 303.857 3.37 304.277 4.28L303.597 4.74C303.187 4.09 302.757 3.77 301.957 3.77C300.747 3.77 299.967 4.76 299.977 6.49C300.397 5.71 301.097 5.32 302.077 5.32C303.677 5.32 304.517 6.22 304.517 7.66C304.517 8.38 304.277 8.96 303.797 9.41C303.307 9.86 302.697 10.09 301.947 10.09C300.187 10.09 299.087 8.85 299.087 6.69ZM300.087 7.54C300.307 8.67 300.927 9.23 301.937 9.23C302.987 9.23 303.597 8.63 303.597 7.7C303.597 6.69 303.077 6.18 302.027 6.18C300.867 6.18 300.237 6.81 300.087 7.54ZM306.873 10.15L306.213 9.77L311.383 2.78L312.013 3.24L306.873 10.15ZM305.133 4.68C305.133 4.18 305.303 3.77 305.653 3.45C306.003 3.13 306.433 2.97 306.963 2.97C307.483 2.97 307.913 3.13 308.263 3.45C308.613 3.77 308.783 4.18 308.783 4.68C308.783 5.17 308.613 5.58 308.263 5.9C307.913 6.22 307.483 6.38 306.963 6.38C306.433 6.38 306.003 6.22 305.653 5.9C305.303 5.58 305.133 5.17 305.133 4.68ZM305.973 4.68C305.973 5.25 306.433 5.67 306.963 5.67C307.513 5.67 307.943 5.27 307.943 4.68C307.943 4.09 307.493 3.69 306.963 3.69C306.413 3.69 305.973 4.09 305.973 4.68ZM309.943 9.56C309.593 9.24 309.423 8.83 309.423 8.33C309.423 7.83 309.593 7.42 309.943 7.1C310.293 6.79 310.723 6.63 311.253 6.63C311.773 6.63 312.203 6.79 312.553 7.1C312.903 7.42 313.073 7.83 313.073 8.33C313.073 8.82 312.903 9.23 312.553 9.55C312.203 9.88 311.773 10.04 311.253 10.04C310.723 10.04 310.293 9.88 309.943 9.56ZM310.263 8.33C310.263 8.9 310.723 9.32 311.253 9.32C311.803 9.32 312.233 8.92 312.233 8.33C312.233 7.74 311.783 7.34 311.253 7.34C310.703 7.34 310.263 7.74 310.263 8.33Z" fill="#357D94"/>
<defs>
<linearGradient id="paint0_linear_5796_27098" x1="38" y1="105" x2="38" y2="227" gradientUnits="userSpaceOnUse">
<stop stop-color="#45B8DB"/>
<stop offset="1" stop-color="#ADE4E4"/>
</linearGradient>
<linearGradient id="paint1_linear_5796_27098" x1="38" y1="105" x2="38" y2="227" gradientUnits="userSpaceOnUse">
<stop stop-color="white" stop-opacity="0"/>
<stop offset="0.739583" stop-color="white"/>
</linearGradient>
<linearGradient id="paint2_linear_5796_27098" x1="16" y1="-132.9" x2="16" y2="227" gradientUnits="userSpaceOnUse">
<stop stop-color="white" stop-opacity="0.05"/>
<stop offset="0.75" stop-color="white" stop-opacity="0.8"/>
</linearGradient>
<linearGradient id="paint3_linear_5796_27098" x1="162" y1="118" x2="162" y2="227" gradientUnits="userSpaceOnUse">
<stop stop-color="#45B8DB"/>
<stop offset="1" stop-color="#ADE4E4"/>
</linearGradient>
<linearGradient id="paint4_linear_5796_27098" x1="162" y1="118" x2="162" y2="227" gradientUnits="userSpaceOnUse">
<stop stop-color="white" stop-opacity="0"/>
<stop offset="0.739583" stop-color="white"/>
</linearGradient>
<linearGradient id="paint5_linear_5796_27098" x1="140" y1="-94.55" x2="140" y2="227" gradientUnits="userSpaceOnUse">
<stop stop-color="white" stop-opacity="0.05"/>
<stop offset="0.75" stop-color="white" stop-opacity="0.8"/>
</linearGradient>
<linearGradient id="paint6_linear_5796_27098" x1="286" y1="124" x2="286" y2="227" gradientUnits="userSpaceOnUse">
<stop stop-color="#45B8DB"/>
<stop offset="1" stop-color="#ADE4E4"/>
</linearGradient>
<linearGradient id="paint7_linear_5796_27098" x1="286" y1="124" x2="286" y2="227" gradientUnits="userSpaceOnUse">
<stop stop-color="white" stop-opacity="0"/>
<stop offset="0.739583" stop-color="white"/>
</linearGradient>
<linearGradient id="paint8_linear_5796_27098" x1="264" y1="-76.85" x2="264" y2="227" gradientUnits="userSpaceOnUse">
<stop stop-color="white" stop-opacity="0.05"/>
<stop offset="0.75" stop-color="white" stop-opacity="0.8"/>
</linearGradient>
<linearGradient id="paint9_linear_5796_27098" x1="297" y1="23" x2="33" y2="23" gradientUnits="userSpaceOnUse">
<stop stop-color="#56BCF6"/>
<stop offset="1" stop-color="#A2DEE7"/>
</linearGradient>
</defs>
</svg>
