<svg width="335" height="223" viewBox="0 0 335 223" fill="none" xmlns="http://www.w3.org/2000/svg">
<path d="M25.9497 146H24.7317V143.998H18.7397V143.186L24.8717 136.2H25.9497V142.864H27.7697V143.998H25.9497V146ZM24.7317 138.16L20.4197 142.864H24.7317V138.16ZM29.3919 146C28.8739 146.056 28.4819 145.762 28.4819 145.258C28.4819 144.768 28.7899 144.46 29.3359 144.46C29.9519 144.46 30.3579 144.88 30.3579 145.664C30.3579 147.064 29.5879 147.778 28.5659 148.016L28.2719 147.358C28.5799 147.274 28.8599 147.106 29.1119 146.84C29.3499 146.574 29.4479 146.294 29.3919 146ZM31.3764 141.366C31.3764 139.672 31.7964 138.37 32.6224 137.446C33.4484 136.536 34.4844 136.074 35.7304 136.074C37.3684 136.074 38.6564 136.816 39.2024 137.992L38.2504 138.636C37.6764 137.726 36.8224 137.278 35.6744 137.278C34.8064 137.278 34.0784 137.614 33.4904 138.286C32.9024 138.972 32.6084 139.896 32.6224 141.086C33.1684 140.064 34.4424 139.448 35.8424 139.448C36.9764 139.448 37.8864 139.742 38.5444 140.344C39.2024 140.946 39.5384 141.744 39.5384 142.724C39.5384 143.718 39.1744 144.544 38.4324 145.174C37.6904 145.804 36.7664 146.126 35.6604 146.126C33.0144 146.126 31.3764 144.404 31.3764 141.366ZM32.7764 142.556C33.0424 143.942 34.0924 144.922 35.6464 144.922C36.4024 144.922 37.0324 144.726 37.5224 144.32C38.0124 143.928 38.2504 143.41 38.2504 142.78C38.2504 141.394 37.2704 140.652 35.7724 140.652C34.9464 140.652 34.2604 140.848 33.7284 141.24C33.1824 141.632 32.8744 142.066 32.7764 142.556ZM41.975 141.492L40.967 141.226L41.541 136.2H47.701V137.39H42.619L42.255 140.022C42.745 139.658 43.487 139.476 44.481 139.476C45.629 139.476 46.525 139.784 47.183 140.386C47.827 141.002 48.149 141.786 48.149 142.752C48.149 143.718 47.785 144.53 47.071 145.16C46.343 145.804 45.433 146.126 44.355 146.126C42.521 146.126 40.995 145.258 40.365 143.732L41.485 143.256C41.891 144.194 42.941 144.936 44.355 144.936C45.965 144.936 46.861 144.012 46.861 142.794C46.861 141.492 45.811 140.652 44.145 140.652C43.249 140.652 42.521 140.932 41.975 141.492ZM50.6396 141.492L49.6316 141.226L50.2056 136.2H56.3656V137.39H51.2836L50.9196 140.022C51.4096 139.658 52.1516 139.476 53.1456 139.476C54.2936 139.476 55.1897 139.784 55.8476 140.386C56.4916 141.002 56.8137 141.786 56.8137 142.752C56.8137 143.718 56.4496 144.53 55.7356 145.16C55.0076 145.804 54.0976 146.126 53.0197 146.126C51.1856 146.126 49.6596 145.258 49.0296 143.732L50.1496 143.256C50.5556 144.194 51.6056 144.936 53.0197 144.936C54.6296 144.936 55.5256 144.012 55.5256 142.794C55.5256 141.492 54.4757 140.652 52.8096 140.652C51.9136 140.652 51.1856 140.932 50.6396 141.492Z" fill="#1A3341"/>
<path d="M25.863 216.372L24.987 216.06C25.287 214.572 26.415 213.504 28.203 213.504C29.931 213.504 30.987 214.5 30.987 216.024C30.987 216.828 30.639 217.632 30.207 218.208C29.991 218.508 29.715 218.796 29.391 219.096C28.731 219.684 28.263 219.996 27.579 220.428L26.655 221.004H31.299V222H24.759V221.184L26.583 219.972C26.907 219.768 27.135 219.612 27.267 219.516C27.399 219.432 27.615 219.276 27.903 219.072C28.191 218.868 28.407 218.688 28.551 218.556C28.683 218.424 28.863 218.256 29.067 218.04C29.619 217.44 29.823 216.888 29.883 216.132C29.883 215.04 29.175 214.548 28.131 214.548C27.483 214.548 26.967 214.728 26.595 215.088C26.223 215.448 25.971 215.88 25.863 216.372ZM32.1307 217.8C32.1307 216.504 32.4307 215.46 33.0427 214.68C33.6427 213.9 34.5307 213.504 35.6947 213.504C38.0827 213.504 39.2707 215.076 39.2707 217.8C39.2707 219.108 38.9707 220.14 38.3827 220.92C37.7827 221.7 36.8947 222.096 35.7187 222.096C34.5907 222.096 33.7147 221.7 33.0787 220.908C32.4427 220.116 32.1307 219.084 32.1307 217.8ZM33.2347 217.8C33.2347 219.852 34.1707 221.076 35.7187 221.076C37.3507 221.076 38.1667 219.984 38.1667 217.8C38.1667 215.616 37.3387 214.524 35.6947 214.524C34.0267 214.524 33.2347 215.724 33.2347 217.8ZM41.1269 216.372L40.2509 216.06C40.5509 214.572 41.6789 213.504 43.4669 213.504C45.1949 213.504 46.2509 214.5 46.2509 216.024C46.2509 216.828 45.9029 217.632 45.4709 218.208C45.2549 218.508 44.9789 218.796 44.6549 219.096C43.9949 219.684 43.5269 219.996 42.8429 220.428L41.9189 221.004H46.5629V222H40.0229V221.184L41.8469 219.972C42.1709 219.768 42.3989 219.612 42.5309 219.516C42.6629 219.432 42.8789 219.276 43.1669 219.072C43.4549 218.868 43.6709 218.688 43.8149 218.556C43.9469 218.424 44.1269 218.256 44.3309 218.04C44.8829 217.44 45.0869 216.888 45.1469 216.132C45.1469 215.04 44.4389 214.548 43.3949 214.548C42.7469 214.548 42.2309 214.728 41.8589 215.088C41.4869 215.448 41.2349 215.88 41.1269 216.372ZM47.2986 215.832L46.9146 214.932L49.7946 213.552H50.4786V222H49.4466V214.836L47.2986 215.832Z" fill="#1A3341" fill-opacity="0.6"/>
<path d="M10 158C10 156.895 10.8954 156 12 156H64C65.1046 156 66 156.895 66 158V207H10V158Z" fill="url(#paint0_linear_5796_27053)"/>
<path opacity="0.2" d="M22 156H54V207H22V156Z" fill="url(#paint1_linear_5796_27053)"/>
<path opacity="0.04" d="M54 156H64C65.1046 156 66 156.895 66 158V207H54V156Z" fill="#0D262C"/>
<path opacity="0.5" d="M10 158C10 156.895 10.8954 156 12 156H22V207H10V158Z" fill="url(#paint2_linear_5796_27053)"/>
<path d="M151.577 126H150.359V123.998H144.367V123.186L150.499 116.2H151.577V122.864H153.397V123.998H151.577V126ZM150.359 118.16L146.047 122.864H150.359V118.16ZM155.019 126C154.501 126.056 154.109 125.762 154.109 125.258C154.109 124.768 154.417 124.46 154.963 124.46C155.579 124.46 155.985 124.88 155.985 125.664C155.985 127.064 155.215 127.778 154.193 128.016L153.899 127.358C154.207 127.274 154.487 127.106 154.739 126.84C154.977 126.574 155.075 126.294 155.019 126ZM160.867 120.414H161.301C161.931 120.414 162.449 120.26 162.883 119.966C163.303 119.672 163.513 119.28 163.513 118.818C163.513 117.768 162.687 117.236 161.049 117.236C159.481 117.236 158.627 117.81 158.627 118.818C158.627 119.728 159.565 120.414 160.867 120.414ZM161.273 121.52H160.923C160.167 121.52 159.537 121.688 159.047 122.01C158.557 122.332 158.305 122.738 158.305 123.228C158.305 124.292 159.285 124.964 161.063 124.964C162.869 124.964 163.835 124.32 163.835 123.242C163.835 122.164 162.799 121.52 161.273 121.52ZM164.031 125.37C163.317 125.874 162.323 126.126 161.077 126.126C159.831 126.126 158.837 125.874 158.109 125.384C157.381 124.894 157.017 124.222 157.017 123.354C157.017 122.22 157.759 121.324 158.949 120.932C157.871 120.582 157.339 119.728 157.339 118.734C157.339 117.11 158.711 116.074 161.063 116.074C163.429 116.074 164.801 117.11 164.801 118.734C164.801 119.672 164.283 120.386 163.247 120.862C164.493 121.24 165.109 122.052 165.109 123.298C165.109 124.18 164.745 124.88 164.031 125.37ZM166.089 118.804L165.641 117.754L169.001 116.144H169.799V126H168.595V117.642L166.089 118.804ZM173.013 121.492L172.005 121.226L172.579 116.2H178.739V117.39H173.657L173.293 120.022C173.783 119.658 174.525 119.476 175.519 119.476C176.667 119.476 177.563 119.784 178.221 120.386C178.865 121.002 179.187 121.786 179.187 122.752C179.187 123.718 178.823 124.53 178.109 125.16C177.381 125.804 176.471 126.126 175.393 126.126C173.559 126.126 172.033 125.258 171.403 123.732L172.523 123.256C172.929 124.194 173.979 124.936 175.393 124.936C177.003 124.936 177.899 124.012 177.899 122.794C177.899 121.492 176.849 120.652 175.183 120.652C174.287 120.652 173.559 120.932 173.013 121.492Z" fill="#1A3341"/>
<path d="M148.556 216.372L147.68 216.06C147.98 214.572 149.108 213.504 150.896 213.504C152.624 213.504 153.68 214.5 153.68 216.024C153.68 216.828 153.332 217.632 152.9 218.208C152.684 218.508 152.408 218.796 152.084 219.096C151.424 219.684 150.956 219.996 150.272 220.428L149.348 221.004H153.992V222H147.452V221.184L149.276 219.972C149.6 219.768 149.828 219.612 149.96 219.516C150.092 219.432 150.308 219.276 150.596 219.072C150.884 218.868 151.1 218.688 151.244 218.556C151.376 218.424 151.556 218.256 151.76 218.04C152.312 217.44 152.516 216.888 152.576 216.132C152.576 215.04 151.868 214.548 150.824 214.548C150.176 214.548 149.66 214.728 149.288 215.088C148.916 215.448 148.664 215.88 148.556 216.372ZM154.824 217.8C154.824 216.504 155.124 215.46 155.736 214.68C156.336 213.9 157.224 213.504 158.388 213.504C160.776 213.504 161.964 215.076 161.964 217.8C161.964 219.108 161.664 220.14 161.076 220.92C160.476 221.7 159.588 222.096 158.412 222.096C157.284 222.096 156.408 221.7 155.772 220.908C155.136 220.116 154.824 219.084 154.824 217.8ZM155.928 217.8C155.928 219.852 156.864 221.076 158.412 221.076C160.044 221.076 160.86 219.984 160.86 217.8C160.86 215.616 160.032 214.524 158.388 214.524C156.72 214.524 155.928 215.724 155.928 217.8ZM163.82 216.372L162.944 216.06C163.244 214.572 164.372 213.504 166.16 213.504C167.888 213.504 168.944 214.5 168.944 216.024C168.944 216.828 168.596 217.632 168.164 218.208C167.948 218.508 167.672 218.796 167.348 219.096C166.688 219.684 166.22 219.996 165.536 220.428L164.612 221.004H169.256V222H162.716V221.184L164.54 219.972C164.864 219.768 165.092 219.612 165.224 219.516C165.356 219.432 165.572 219.276 165.86 219.072C166.148 218.868 166.364 218.688 166.508 218.556C166.64 218.424 166.82 218.256 167.024 218.04C167.576 217.44 167.78 216.888 167.84 216.132C167.84 215.04 167.132 214.548 166.088 214.548C165.44 214.548 164.924 214.728 164.552 215.088C164.18 215.448 163.928 215.88 163.82 216.372ZM171.048 216.372L170.172 216.06C170.472 214.572 171.6 213.504 173.388 213.504C175.116 213.504 176.172 214.5 176.172 216.024C176.172 216.828 175.824 217.632 175.392 218.208C175.176 218.508 174.9 218.796 174.576 219.096C173.916 219.684 173.448 219.996 172.764 220.428L171.84 221.004H176.484V222H169.944V221.184L171.768 219.972C172.092 219.768 172.32 219.612 172.452 219.516C172.584 219.432 172.8 219.276 173.088 219.072C173.376 218.868 173.592 218.688 173.736 218.556C173.868 218.424 174.048 218.256 174.252 218.04C174.804 217.44 175.008 216.888 175.068 216.132C175.068 215.04 174.36 214.548 173.316 214.548C172.668 214.548 172.152 214.728 171.78 215.088C171.408 215.448 171.156 215.88 171.048 216.372Z" fill="#1A3341" fill-opacity="0.6"/>
<path d="M134 138C134 136.895 134.895 136 136 136H188C189.105 136 190 136.895 190 138V207H134V138Z" fill="url(#paint3_linear_5796_27053)"/>
<path opacity="0.2" d="M146 136H178V207H146V136Z" fill="url(#paint4_linear_5796_27053)"/>
<path opacity="0.04" d="M178 136H188C189.105 136 190 136.895 190 138V207H178V136Z" fill="#0D262C"/>
<path opacity="0.5" d="M134 138C134 136.895 134.895 136 136 136H146V207H134V138Z" fill="url(#paint5_linear_5796_27053)"/>
<path d="M270.546 149.056L269.496 148.58C270.014 147.068 271.372 146.074 273.402 146.074C274.368 146.074 275.166 146.298 275.782 146.746C276.398 147.194 276.706 147.796 276.706 148.538C276.706 149.672 276.104 150.512 274.984 150.834C276.062 150.904 276.93 151.716 276.93 153.172C276.93 154.096 276.594 154.824 275.922 155.342C275.25 155.86 274.396 156.126 273.346 156.126C271.204 156.126 269.72 155.104 269.23 153.494L270.364 153.004C270.966 154.278 271.988 154.922 273.43 154.922C274.788 154.922 275.642 154.292 275.642 153.186C275.642 152.108 274.802 151.562 273.122 151.562H272.03V150.4H272.898C274.424 150.4 275.418 149.714 275.418 148.776C275.418 147.81 274.62 147.264 273.346 147.264C271.848 147.264 270.938 148.034 270.546 149.056ZM279.019 156C278.501 156.056 278.109 155.762 278.109 155.258C278.109 154.768 278.417 154.46 278.963 154.46C279.579 154.46 279.985 154.88 279.985 155.664C279.985 157.064 279.215 157.778 278.193 158.016L277.899 157.358C278.207 157.274 278.487 157.106 278.739 156.84C278.977 156.574 279.075 156.294 279.019 156ZM282.123 149.434L281.101 149.07C281.451 147.334 282.767 146.088 284.853 146.088C286.869 146.088 288.101 147.25 288.101 149.028C288.101 149.966 287.695 150.904 287.191 151.576C286.939 151.926 286.617 152.262 286.239 152.612C285.469 153.298 284.923 153.662 284.125 154.166L283.047 154.838H288.465V156H280.835V155.048L282.963 153.634C283.341 153.396 283.607 153.214 283.761 153.102C283.915 153.004 284.167 152.822 284.503 152.584C284.839 152.346 285.091 152.136 285.259 151.982C285.413 151.828 285.623 151.632 285.861 151.38C286.505 150.68 286.743 150.036 286.813 149.154C286.813 147.88 285.987 147.306 284.769 147.306C284.013 147.306 283.411 147.516 282.977 147.936C282.543 148.356 282.249 148.86 282.123 149.434ZM289.324 148.804L288.876 147.754L292.236 146.144H293.034V156H291.83V147.642L289.324 148.804ZM296.247 151.492L295.239 151.226L295.813 146.2H301.973V147.39H296.891L296.527 150.022C297.017 149.658 297.759 149.476 298.753 149.476C299.901 149.476 300.797 149.784 301.455 150.386C302.099 151.002 302.421 151.786 302.421 152.752C302.421 153.718 302.057 154.53 301.343 155.16C300.615 155.804 299.705 156.126 298.627 156.126C296.793 156.126 295.267 155.258 294.637 153.732L295.757 153.256C296.163 154.194 297.213 154.936 298.627 154.936C300.237 154.936 301.133 154.012 301.133 152.794C301.133 151.492 300.083 150.652 298.417 150.652C297.521 150.652 296.793 150.932 296.247 151.492Z" fill="#1A3341"/>
<path d="M272.527 216.372L271.651 216.06C271.951 214.572 273.079 213.504 274.867 213.504C276.595 213.504 277.651 214.5 277.651 216.024C277.651 216.828 277.303 217.632 276.871 218.208C276.655 218.508 276.379 218.796 276.055 219.096C275.395 219.684 274.927 219.996 274.243 220.428L273.319 221.004H277.963V222H271.423V221.184L273.247 219.972C273.571 219.768 273.799 219.612 273.931 219.516C274.063 219.432 274.279 219.276 274.567 219.072C274.855 218.868 275.071 218.688 275.215 218.556C275.347 218.424 275.527 218.256 275.731 218.04C276.283 217.44 276.487 216.888 276.547 216.132C276.547 215.04 275.839 214.548 274.795 214.548C274.147 214.548 273.631 214.728 273.259 215.088C272.887 215.448 272.635 215.88 272.527 216.372ZM278.795 217.8C278.795 216.504 279.095 215.46 279.707 214.68C280.307 213.9 281.195 213.504 282.359 213.504C284.747 213.504 285.935 215.076 285.935 217.8C285.935 219.108 285.635 220.14 285.047 220.92C284.447 221.7 283.559 222.096 282.383 222.096C281.255 222.096 280.379 221.7 279.743 220.908C279.107 220.116 278.795 219.084 278.795 217.8ZM279.899 217.8C279.899 219.852 280.835 221.076 282.383 221.076C284.015 221.076 284.831 219.984 284.831 217.8C284.831 215.616 284.003 214.524 282.359 214.524C280.691 214.524 279.899 215.724 279.899 217.8ZM287.791 216.372L286.915 216.06C287.215 214.572 288.343 213.504 290.131 213.504C291.859 213.504 292.915 214.5 292.915 216.024C292.915 216.828 292.567 217.632 292.135 218.208C291.919 218.508 291.643 218.796 291.319 219.096C290.659 219.684 290.191 219.996 289.507 220.428L288.583 221.004H293.227V222H286.687V221.184L288.511 219.972C288.835 219.768 289.063 219.612 289.195 219.516C289.327 219.432 289.543 219.276 289.831 219.072C290.119 218.868 290.335 218.688 290.479 218.556C290.611 218.424 290.791 218.256 290.995 218.04C291.547 217.44 291.751 216.888 291.811 216.132C291.811 215.04 291.103 214.548 290.059 214.548C289.411 214.548 288.895 214.728 288.523 215.088C288.151 215.448 287.899 215.88 287.791 216.372ZM294.887 216.048L293.987 215.64C294.431 214.344 295.595 213.492 297.335 213.492C298.163 213.492 298.847 213.684 299.375 214.068C299.903 214.452 300.167 214.968 300.167 215.604C300.167 216.576 299.651 217.296 298.691 217.572C299.615 217.632 300.359 218.328 300.359 219.576C300.359 220.368 300.071 220.992 299.495 221.436C298.919 221.88 298.187 222.108 297.287 222.108C295.451 222.108 294.179 221.232 293.759 219.852L294.731 219.432C295.247 220.524 296.123 221.076 297.359 221.076C298.523 221.076 299.255 220.536 299.255 219.588C299.255 218.664 298.535 218.196 297.095 218.196H296.159V217.2H296.903C298.211 217.2 299.063 216.612 299.063 215.808C299.063 214.98 298.379 214.512 297.287 214.512C296.003 214.512 295.223 215.172 294.887 216.048Z" fill="#1A3341" fill-opacity="0.6"/>
<path d="M258 168C258 166.895 258.895 166 260 166H312C313.105 166 314 166.895 314 168V207H258V168Z" fill="url(#paint6_linear_5796_27053)"/>
<path opacity="0.2" d="M270 166H302V207H270V166Z" fill="url(#paint7_linear_5796_27053)"/>
<path opacity="0.04" d="M302 166H312C313.105 166 314 166.895 314 168V207H302V166Z" fill="#0D262C"/>
<path opacity="0.5" d="M258 168C258 166.895 258.895 166 260 166H270V207H258V168Z" fill="url(#paint8_linear_5796_27053)"/>
<path d="M125.927 151.354C126.122 151.158 126.122 150.842 125.927 150.646L122.745 147.464C122.55 147.269 122.233 147.269 122.038 147.464C121.843 147.66 121.843 147.976 122.038 148.172L124.867 151L122.038 153.828C121.843 154.024 121.843 154.34 122.038 154.536C122.233 154.731 122.55 154.731 122.745 154.536L125.927 151.354ZM74.1797 151.5L125.574 151.5L125.574 150.5L74.1797 150.5L74.1797 151.5Z" fill="#318F73"/>
<path d="M88.6445 138.136H86.3765V137.224H88.6445V134.944H89.5925V137.224H91.8845V138.136H89.5925V140.44H88.6445V138.136ZM94.1495 136.048L93.2495 135.64C93.7535 134.212 94.8335 133.492 96.4775 133.492C97.3055 133.492 97.9895 133.684 98.5175 134.068C99.0455 134.452 99.3095 134.968 99.3095 135.604C99.3095 136.576 98.7935 137.296 97.8335 137.572C98.7575 137.632 99.5015 138.328 99.5015 139.576C99.5015 140.368 99.2135 140.992 98.6375 141.436C98.0615 141.88 97.3295 142.108 96.4295 142.108C94.6055 142.108 93.4535 141.244 93.0215 139.852L93.9935 139.432C94.4735 140.476 95.1095 141.076 96.5015 141.076C97.6655 141.076 98.3975 140.536 98.3975 139.588C98.3975 138.664 97.6775 138.196 96.2375 138.196H95.3015V137.2H96.0455C97.3535 137.2 98.2055 136.612 98.2055 135.808C98.2055 134.98 97.5215 134.512 96.4295 134.512C95.3135 134.512 94.5455 135.028 94.1495 136.048ZM102.485 142.18L101.693 141.724L107.897 133.336L108.653 133.888L102.485 142.18ZM100.397 135.616C100.397 135.016 100.601 134.524 101.021 134.14C101.441 133.756 101.957 133.564 102.593 133.564C103.217 133.564 103.733 133.756 104.153 134.14C104.573 134.524 104.777 135.016 104.777 135.616C104.777 136.204 104.573 136.696 104.153 137.08C103.733 137.464 103.217 137.656 102.593 137.656C101.957 137.656 101.441 137.464 101.021 137.08C100.601 136.696 100.397 136.204 100.397 135.616ZM101.405 135.616C101.405 136.3 101.957 136.804 102.593 136.804C103.253 136.804 103.769 136.324 103.769 135.616C103.769 134.908 103.229 134.428 102.593 134.428C101.933 134.428 101.405 134.908 101.405 135.616ZM106.169 141.472C105.749 141.088 105.545 140.596 105.545 139.996C105.545 139.396 105.749 138.904 106.169 138.52C106.589 138.148 107.105 137.956 107.741 137.956C108.365 137.956 108.881 138.148 109.301 138.52C109.721 138.904 109.925 139.396 109.925 139.996C109.925 140.584 109.721 141.076 109.301 141.46C108.881 141.856 108.365 142.048 107.741 142.048C107.105 142.048 106.589 141.856 106.169 141.472ZM106.553 139.996C106.553 140.68 107.105 141.184 107.741 141.184C108.401 141.184 108.917 140.704 108.917 139.996C108.917 139.288 108.377 138.808 107.741 138.808C107.081 138.808 106.553 139.288 106.553 139.996Z" fill="#318F73"/>
<path d="M249.927 151.354C250.122 151.158 250.122 150.842 249.927 150.646L246.745 147.464C246.55 147.269 246.233 147.269 246.038 147.464C245.843 147.66 245.843 147.976 246.038 148.172L248.867 151L246.038 153.828C245.843 154.024 245.843 154.34 246.038 154.536C246.233 154.731 246.55 154.731 246.745 154.536L249.927 151.354ZM198.18 151.5L249.574 151.5L249.574 150.5L198.18 150.5L198.18 151.5Z" fill="#7DA4C1"/>
<path d="M207.381 138.136H201.813V137.236H207.381V138.136ZM209.519 136.048L208.619 135.64C209.123 134.212 210.203 133.492 211.847 133.492C212.675 133.492 213.359 133.684 213.887 134.068C214.415 134.452 214.679 134.968 214.679 135.604C214.679 136.576 214.163 137.296 213.203 137.572C214.127 137.632 214.871 138.328 214.871 139.576C214.871 140.368 214.583 140.992 214.007 141.436C213.431 141.88 212.699 142.108 211.799 142.108C209.975 142.108 208.823 141.244 208.391 139.852L209.363 139.432C209.843 140.476 210.479 141.076 211.871 141.076C213.035 141.076 213.767 140.536 213.767 139.588C213.767 138.664 213.047 138.196 211.607 138.196H210.671V137.2H211.415C212.723 137.2 213.575 136.612 213.575 135.808C213.575 134.98 212.891 134.512 211.799 134.512C210.683 134.512 209.915 135.028 209.519 136.048ZM216.714 136.048L215.814 135.64C216.318 134.212 217.398 133.492 219.042 133.492C219.87 133.492 220.554 133.684 221.082 134.068C221.61 134.452 221.874 134.968 221.874 135.604C221.874 136.576 221.358 137.296 220.398 137.572C221.322 137.632 222.066 138.328 222.066 139.576C222.066 140.368 221.778 140.992 221.202 141.436C220.626 141.88 219.894 142.108 218.994 142.108C217.17 142.108 216.018 141.244 215.586 139.852L216.558 139.432C217.038 140.476 217.674 141.076 219.066 141.076C220.23 141.076 220.962 140.536 220.962 139.588C220.962 138.664 220.242 138.196 218.802 138.196H217.866V137.2H218.61C219.918 137.2 220.77 136.612 220.77 135.808C220.77 134.98 220.086 134.512 218.994 134.512C217.878 134.512 217.11 135.028 216.714 136.048ZM223.045 141.316C223.045 140.98 223.357 140.644 223.789 140.644C224.185 140.644 224.509 140.98 224.509 141.316C224.509 141.7 224.209 142.024 223.789 142.024C223.357 142.024 223.045 141.7 223.045 141.316ZM226.581 136.372L225.705 136.06C226.005 134.56 227.085 133.504 228.861 133.504C230.589 133.504 231.585 134.5 231.585 136.024C231.549 137.284 230.961 138.28 230.073 139.084C229.449 139.672 228.957 140.008 228.297 140.428L227.373 141.004H231.897V142H225.597V141.184L227.301 139.972C228.297 139.264 228.945 138.772 229.245 138.496C230.073 137.74 230.481 136.948 230.481 136.132C230.481 135.028 229.809 134.548 228.789 134.548C227.493 134.548 226.821 135.364 226.581 136.372ZM234.905 142.18L234.113 141.724L240.317 133.336L241.073 133.888L234.905 142.18ZM232.817 135.616C232.817 135.016 233.021 134.524 233.441 134.14C233.861 133.756 234.377 133.564 235.013 133.564C235.637 133.564 236.153 133.756 236.573 134.14C236.993 134.524 237.197 135.016 237.197 135.616C237.197 136.204 236.993 136.696 236.573 137.08C236.153 137.464 235.637 137.656 235.013 137.656C234.377 137.656 233.861 137.464 233.441 137.08C233.021 136.696 232.817 136.204 232.817 135.616ZM233.825 135.616C233.825 136.3 234.377 136.804 235.013 136.804C235.673 136.804 236.189 136.324 236.189 135.616C236.189 134.908 235.649 134.428 235.013 134.428C234.353 134.428 233.825 134.908 233.825 135.616ZM238.589 141.472C238.169 141.088 237.965 140.596 237.965 139.996C237.965 139.396 238.169 138.904 238.589 138.52C239.009 138.148 239.525 137.956 240.161 137.956C240.785 137.956 241.301 138.148 241.721 138.52C242.141 138.904 242.345 139.396 242.345 139.996C242.345 140.584 242.141 141.076 241.721 141.46C241.301 141.856 240.785 142.048 240.161 142.048C239.525 142.048 239.009 141.856 238.589 141.472ZM238.973 139.996C238.973 140.68 239.525 141.184 240.161 141.184C240.821 141.184 241.337 140.704 241.337 139.996C241.337 139.288 240.797 138.808 240.161 138.808C239.501 138.808 238.973 139.288 238.973 139.996Z" fill="#7DA4C1"/>
<path d="M36.6387 63L160.062 25L282.663 95.5" stroke="url(#paint9_linear_5796_27053)" stroke-width="5"/>
<circle cx="284.492" cy="96" r="7" fill="#64BBEA" stroke="white" stroke-width="2"/>
<circle cx="161.068" cy="25" r="7" fill="#64BBEA" stroke="white" stroke-width="2"/>
<circle cx="38.4688" cy="64" r="7" fill="#64BBEA" stroke="white" stroke-width="2"/>
<path d="M30.0661 41.85H25.8261V41H31.1361V41.57L27.6561 48H26.7061L30.0661 41.85ZM31.9922 47.43C31.9922 47.15 32.2522 46.87 32.6122 46.87C32.9422 46.87 33.2122 47.15 33.2122 47.43C33.2122 47.75 32.9622 48.02 32.6122 48.02C32.2522 48.02 31.9922 47.75 31.9922 47.43ZM34.939 43.31L34.209 43.05C34.459 41.8 35.359 40.92 36.839 40.92C38.279 40.92 39.109 41.75 39.109 43.02C39.079 44.07 38.589 44.9 37.849 45.57C37.329 46.06 36.919 46.34 36.369 46.69L35.599 47.17H39.369V48H34.119V47.32L35.539 46.31C36.369 45.72 36.909 45.31 37.159 45.08C37.849 44.45 38.189 43.79 38.189 43.11C38.189 42.19 37.629 41.79 36.779 41.79C35.699 41.79 35.139 42.47 34.939 43.31ZM41.8751 48.15L41.2151 47.77L46.3851 40.78L47.0151 41.24L41.8751 48.15ZM40.1351 42.68C40.1351 42.18 40.3051 41.77 40.6551 41.45C41.0051 41.13 41.4351 40.97 41.9651 40.97C42.4851 40.97 42.9151 41.13 43.2651 41.45C43.6151 41.77 43.7851 42.18 43.7851 42.68C43.7851 43.17 43.6151 43.58 43.2651 43.9C42.9151 44.22 42.4851 44.38 41.9651 44.38C41.4351 44.38 41.0051 44.22 40.6551 43.9C40.3051 43.58 40.1351 43.17 40.1351 42.68ZM40.9751 42.68C40.9751 43.25 41.4351 43.67 41.9651 43.67C42.5151 43.67 42.9451 43.27 42.9451 42.68C42.9451 42.09 42.4951 41.69 41.9651 41.69C41.4151 41.69 40.9751 42.09 40.9751 42.68ZM44.9451 47.56C44.5951 47.24 44.4251 46.83 44.4251 46.33C44.4251 45.83 44.5951 45.42 44.9451 45.1C45.2951 44.79 45.7251 44.63 46.2551 44.63C46.7751 44.63 47.2051 44.79 47.5551 45.1C47.9051 45.42 48.0751 45.83 48.0751 46.33C48.0751 46.82 47.9051 47.23 47.5551 47.55C47.2051 47.88 46.7751 48.04 46.2551 48.04C45.7251 48.04 45.2951 47.88 44.9451 47.56ZM45.2651 46.33C45.2651 46.9 45.7251 47.32 46.2551 47.32C46.8051 47.32 47.2351 46.92 47.2351 46.33C47.2351 45.74 46.7851 45.34 46.2551 45.34C45.7051 45.34 45.2651 45.74 45.2651 46.33Z" fill="#357D94"/>
<path d="M154.249 6.01H154.559C154.929 6.01 155.259 5.9 155.529 5.69C155.799 5.48 155.939 5.2 155.939 4.87C155.939 4.12 155.419 3.74 154.379 3.74C153.359 3.74 152.849 4.12 152.849 4.87C152.849 5.52 153.439 6.01 154.249 6.01ZM154.539 6.8H154.289C153.239 6.8 152.619 7.3 152.619 8.02C152.619 8.78 153.239 9.26 154.389 9.26C155.539 9.26 156.169 8.8 156.169 8.03C156.169 7.24 155.609 6.8 154.539 6.8ZM154.399 10.09C152.729 10.09 151.699 9.35 151.699 8.11C151.699 7.28 152.149 6.66 152.979 6.38C152.269 6.11 151.929 5.52 151.929 4.81C151.929 3.66 152.869 2.91 154.389 2.91C155.959 2.91 156.859 3.65 156.859 4.81C156.859 5.51 156.519 6.02 155.849 6.33C156.759 6.61 157.079 7.18 157.079 8.07C157.079 9.34 156.029 10.09 154.399 10.09ZM157.885 9.43C157.885 9.15 158.145 8.87 158.505 8.87C158.835 8.87 159.105 9.15 159.105 9.43C159.105 9.75 158.855 10.02 158.505 10.02C158.145 10.02 157.885 9.75 157.885 9.43ZM164.172 3.85H159.932V3H165.242V3.57L161.762 10H160.812L164.172 3.85ZM167.768 10.15L167.108 9.77L172.278 2.78L172.908 3.24L167.768 10.15ZM166.028 4.68C166.028 4.18 166.198 3.77 166.548 3.45C166.898 3.13 167.328 2.97 167.858 2.97C168.378 2.97 168.808 3.13 169.158 3.45C169.508 3.77 169.678 4.18 169.678 4.68C169.678 5.17 169.508 5.58 169.158 5.9C168.808 6.22 168.378 6.38 167.858 6.38C167.328 6.38 166.898 6.22 166.548 5.9C166.198 5.58 166.028 5.17 166.028 4.68ZM166.868 4.68C166.868 5.25 167.328 5.67 167.858 5.67C168.408 5.67 168.838 5.27 168.838 4.68C168.838 4.09 168.388 3.69 167.858 3.69C167.308 3.69 166.868 4.09 166.868 4.68ZM170.838 9.56C170.488 9.24 170.318 8.83 170.318 8.33C170.318 7.83 170.488 7.42 170.838 7.1C171.188 6.79 171.618 6.63 172.148 6.63C172.668 6.63 173.098 6.79 173.448 7.1C173.798 7.42 173.968 7.83 173.968 8.33C173.968 8.82 173.798 9.23 173.448 9.55C173.098 9.88 172.668 10.04 172.148 10.04C171.618 10.04 171.188 9.88 170.838 9.56ZM171.158 8.33C171.158 8.9 171.618 9.32 172.148 9.32C172.698 9.32 173.128 8.92 173.128 8.33C173.128 7.74 172.678 7.34 172.148 7.34C171.598 7.34 171.158 7.74 171.158 8.33Z" fill="#357D94"/>
<path d="M273.741 78.78L273.021 78.59L273.431 75H277.831V75.85H274.201L273.941 77.73C274.291 77.47 274.821 77.34 275.531 77.34C276.351 77.34 276.991 77.56 277.461 77.99C277.921 78.43 278.151 78.99 278.151 79.68C278.151 80.37 277.891 80.95 277.381 81.4C276.861 81.86 276.211 82.09 275.441 82.09C274.131 82.09 273.041 81.47 272.591 80.38L273.391 80.04C273.681 80.71 274.431 81.24 275.441 81.24C276.591 81.24 277.231 80.58 277.231 79.71C277.231 78.78 276.481 78.18 275.291 78.18C274.651 78.18 274.131 78.38 273.741 78.78ZM278.787 81.43C278.787 81.15 279.047 80.87 279.407 80.87C279.737 80.87 280.007 81.15 280.007 81.43C280.007 81.75 279.757 82.02 279.407 82.02C279.047 82.02 278.787 81.75 278.787 81.43ZM283.364 78.01H283.674C284.044 78.01 284.374 77.9 284.644 77.69C284.914 77.48 285.054 77.2 285.054 76.87C285.054 76.12 284.534 75.74 283.494 75.74C282.474 75.74 281.964 76.12 281.964 76.87C281.964 77.52 282.554 78.01 283.364 78.01ZM283.654 78.8H283.404C282.354 78.8 281.734 79.3 281.734 80.02C281.734 80.78 282.354 81.26 283.504 81.26C284.654 81.26 285.284 80.8 285.284 80.03C285.284 79.24 284.724 78.8 283.654 78.8ZM283.514 82.09C281.844 82.09 280.814 81.35 280.814 80.11C280.814 79.28 281.264 78.66 282.094 78.38C281.384 78.11 281.044 77.52 281.044 76.81C281.044 75.66 281.984 74.91 283.504 74.91C285.074 74.91 285.974 75.65 285.974 76.81C285.974 77.51 285.634 78.02 284.964 78.33C285.874 78.61 286.194 79.18 286.194 80.07C286.194 81.34 285.144 82.09 283.514 82.09ZM288.67 82.15L288.01 81.77L293.18 74.78L293.81 75.24L288.67 82.15ZM286.93 76.68C286.93 76.18 287.1 75.77 287.45 75.45C287.8 75.13 288.23 74.97 288.76 74.97C289.28 74.97 289.71 75.13 290.06 75.45C290.41 75.77 290.58 76.18 290.58 76.68C290.58 77.17 290.41 77.58 290.06 77.9C289.71 78.22 289.28 78.38 288.76 78.38C288.23 78.38 287.8 78.22 287.45 77.9C287.1 77.58 286.93 77.17 286.93 76.68ZM287.77 76.68C287.77 77.25 288.23 77.67 288.76 77.67C289.31 77.67 289.74 77.27 289.74 76.68C289.74 76.09 289.29 75.69 288.76 75.69C288.21 75.69 287.77 76.09 287.77 76.68ZM291.74 81.56C291.39 81.24 291.22 80.83 291.22 80.33C291.22 79.83 291.39 79.42 291.74 79.1C292.09 78.79 292.52 78.63 293.05 78.63C293.57 78.63 294 78.79 294.35 79.1C294.7 79.42 294.87 79.83 294.87 80.33C294.87 80.82 294.7 81.23 294.35 81.55C294 81.88 293.57 82.04 293.05 82.04C292.52 82.04 292.09 81.88 291.74 81.56ZM292.06 80.33C292.06 80.9 292.52 81.32 293.05 81.32C293.6 81.32 294.03 80.92 294.03 80.33C294.03 79.74 293.58 79.34 293.05 79.34C292.5 79.34 292.06 79.74 292.06 80.33Z" fill="#357D94"/>
<line y1="206.5" x2="335" y2="206.5" stroke="#ABBEC9"/>
<defs>
<linearGradient id="paint0_linear_5796_27053" x1="38" y1="156" x2="38" y2="207" gradientUnits="userSpaceOnUse">
<stop stop-color="#45B8DB"/>
<stop offset="1" stop-color="#ADE4E4"/>
</linearGradient>
<linearGradient id="paint1_linear_5796_27053" x1="38" y1="156" x2="38" y2="207" gradientUnits="userSpaceOnUse">
<stop stop-color="white" stop-opacity="0"/>
<stop offset="0.739583" stop-color="white"/>
</linearGradient>
<linearGradient id="paint2_linear_5796_27053" x1="16" y1="56.55" x2="16" y2="207" gradientUnits="userSpaceOnUse">
<stop stop-color="white" stop-opacity="0.05"/>
<stop offset="0.75" stop-color="white" stop-opacity="0.8"/>
</linearGradient>
<linearGradient id="paint3_linear_5796_27053" x1="162" y1="136" x2="162" y2="207" gradientUnits="userSpaceOnUse">
<stop stop-color="#45B8DB"/>
<stop offset="1" stop-color="#ADE4E4"/>
</linearGradient>
<linearGradient id="paint4_linear_5796_27053" x1="162" y1="136" x2="162" y2="207" gradientUnits="userSpaceOnUse">
<stop stop-color="white" stop-opacity="0"/>
<stop offset="0.739583" stop-color="white"/>
</linearGradient>
<linearGradient id="paint5_linear_5796_27053" x1="140" y1="-2.45" x2="140" y2="207" gradientUnits="userSpaceOnUse">
<stop stop-color="white" stop-opacity="0.05"/>
<stop offset="0.75" stop-color="white" stop-opacity="0.8"/>
</linearGradient>
<linearGradient id="paint6_linear_5796_27053" x1="286" y1="166" x2="286" y2="207" gradientUnits="userSpaceOnUse">
<stop stop-color="#45B8DB"/>
<stop offset="1" stop-color="#ADE4E4"/>
</linearGradient>
<linearGradient id="paint7_linear_5796_27053" x1="286" y1="166" x2="286" y2="207" gradientUnits="userSpaceOnUse">
<stop stop-color="white" stop-opacity="0"/>
<stop offset="0.739583" stop-color="white"/>
</linearGradient>
<linearGradient id="paint8_linear_5796_27053" x1="264" y1="86.05" x2="264" y2="207" gradientUnits="userSpaceOnUse">
<stop stop-color="white" stop-opacity="0.05"/>
<stop offset="0.75" stop-color="white" stop-opacity="0.8"/>
</linearGradient>
<linearGradient id="paint9_linear_5796_27053" x1="282.663" y1="25" x2="36.6387" y2="25" gradientUnits="userSpaceOnUse">
<stop stop-color="#56BCF6"/>
<stop offset="1" stop-color="#A2DEE7"/>
</linearGradient>
</defs>
</svg>
