<svg width="335" height="221" viewBox="0 0 335 221" fill="none" xmlns="http://www.w3.org/2000/svg">
<path d="M33.5 63.0039L154 23.5039L274 11.5039" stroke="url(#paint0_linear_7002_37671)" stroke-width="5"/>
<path d="M25.7792 78.3939H19.8432V77.2039H27.2772V78.0019L22.4052 87.0039H21.0752L25.7792 78.3939ZM28.1136 87.0039C27.5956 87.0599 27.2036 86.7659 27.2036 86.2619C27.2036 85.7719 27.5116 85.4639 28.0576 85.4639C28.6736 85.4639 29.0796 85.8839 29.0796 86.6679C29.0796 88.0679 28.3096 88.7819 27.2876 89.0199L26.9936 88.3619C27.3016 88.2779 27.5816 88.1099 27.8336 87.8439C28.0716 87.5779 28.1696 87.2979 28.1136 87.0039ZM38.2461 81.9219C38.2461 83.5879 37.8541 84.8759 37.0561 85.7719C36.2581 86.6819 35.1941 87.1299 33.8641 87.1299C32.2401 87.1299 30.9661 86.4439 30.3361 85.3939L31.3441 84.6939C31.9041 85.4779 32.9261 85.9259 34.0321 85.9259C34.9421 85.9259 35.6701 85.5619 36.2441 84.8339C36.8181 84.1199 37.0561 83.2239 36.9861 82.1599C36.5241 83.2239 35.3621 84.0079 33.8081 84.0079C32.7161 84.0079 31.8201 83.6999 31.1201 83.0699C30.4061 82.4539 30.0561 81.6419 30.0561 80.6479C30.0561 79.5559 30.4341 78.6879 31.1901 78.0439C31.9461 77.3999 32.9541 77.0779 34.2001 77.0779C36.7201 77.0779 38.2461 78.8419 38.2461 81.9219ZM36.7761 80.6059C36.5661 79.3039 35.6701 78.2819 34.0601 78.2819C32.3801 78.2819 31.3441 79.1499 31.3441 80.6059C31.3441 81.9919 32.3941 82.8039 34.0321 82.8039C34.7741 82.8039 35.4041 82.5799 35.8941 82.1319C36.3841 81.6839 36.6781 81.1799 36.7761 80.6059ZM39.296 82.3699C39.296 80.6759 39.716 79.3739 40.542 78.4499C41.368 77.5399 42.404 77.0779 43.65 77.0779C45.288 77.0779 46.576 77.8199 47.122 78.9959L46.17 79.6399C45.596 78.7299 44.742 78.2819 43.594 78.2819C42.726 78.2819 41.998 78.6179 41.41 79.2899C40.822 79.9759 40.528 80.8999 40.542 82.0899C41.088 81.0679 42.362 80.4519 43.762 80.4519C44.896 80.4519 45.806 80.7459 46.464 81.3479C47.122 81.9499 47.458 82.7479 47.458 83.7279C47.458 84.7219 47.094 85.5479 46.352 86.1779C45.61 86.8079 44.686 87.1299 43.58 87.1299C40.934 87.1299 39.296 85.4079 39.296 82.3699ZM40.696 83.5599C40.962 84.9459 42.012 85.9259 43.566 85.9259C44.322 85.9259 44.952 85.7299 45.442 85.3239C45.932 84.9319 46.17 84.4139 46.17 83.7839C46.17 82.3979 45.19 81.6559 43.692 81.6559C42.866 81.6559 42.18 81.8519 41.648 82.2439C41.102 82.6359 40.794 83.0699 40.696 83.5599ZM49.5865 80.4379L48.5645 80.0739C48.9145 78.3379 50.2305 77.0919 52.3165 77.0919C54.3325 77.0919 55.5645 78.2539 55.5645 80.0319C55.5645 80.9699 55.1585 81.9079 54.6545 82.5799C54.4025 82.9299 54.0805 83.2659 53.7025 83.6159C52.9325 84.3019 52.3865 84.6659 51.5885 85.1699L50.5105 85.8419H55.9285V87.0039H48.2985V86.0519L50.4265 84.6379C50.8045 84.3999 51.0705 84.2179 51.2245 84.1059C51.3785 84.0079 51.6305 83.8259 51.9665 83.5879C52.3025 83.3499 52.5545 83.1399 52.7225 82.9859C52.8765 82.8319 53.0865 82.6359 53.3245 82.3839C53.9685 81.6839 54.2065 81.0399 54.2765 80.1579C54.2765 78.8839 53.4505 78.3099 52.2325 78.3099C51.4765 78.3099 50.8745 78.5199 50.4405 78.9399C50.0065 79.3599 49.7125 79.8639 49.5865 80.4379Z" fill="#1A3341"/>
<path d="M25.863 214.376L24.987 214.064C25.287 212.576 26.415 211.508 28.203 211.508C29.931 211.508 30.987 212.504 30.987 214.028C30.987 214.832 30.639 215.636 30.207 216.212C29.991 216.512 29.715 216.8 29.391 217.1C28.731 217.688 28.263 218 27.579 218.432L26.655 219.008H31.299V220.004H24.759V219.188L26.583 217.976C26.907 217.772 27.135 217.616 27.267 217.52C27.399 217.436 27.615 217.28 27.903 217.076C28.191 216.872 28.407 216.692 28.551 216.56C28.683 216.428 28.863 216.26 29.067 216.044C29.619 215.444 29.823 214.892 29.883 214.136C29.883 213.044 29.175 212.552 28.131 212.552C27.483 212.552 26.967 212.732 26.595 213.092C26.223 213.452 25.971 213.884 25.863 214.376ZM32.1307 215.804C32.1307 214.508 32.4307 213.464 33.0427 212.684C33.6427 211.904 34.5307 211.508 35.6947 211.508C38.0827 211.508 39.2707 213.08 39.2707 215.804C39.2707 217.112 38.9707 218.144 38.3827 218.924C37.7827 219.704 36.8947 220.1 35.7187 220.1C34.5907 220.1 33.7147 219.704 33.0787 218.912C32.4427 218.12 32.1307 217.088 32.1307 215.804ZM33.2347 215.804C33.2347 217.856 34.1707 219.08 35.7187 219.08C37.3507 219.08 38.1667 217.988 38.1667 215.804C38.1667 213.62 37.3387 212.528 35.6947 212.528C34.0267 212.528 33.2347 213.728 33.2347 215.804ZM41.1269 214.376L40.2509 214.064C40.5509 212.576 41.6789 211.508 43.4669 211.508C45.1949 211.508 46.2509 212.504 46.2509 214.028C46.2509 214.832 45.9029 215.636 45.4709 216.212C45.2549 216.512 44.9789 216.8 44.6549 217.1C43.9949 217.688 43.5269 218 42.8429 218.432L41.9189 219.008H46.5629V220.004H40.0229V219.188L41.8469 217.976C42.1709 217.772 42.3989 217.616 42.5309 217.52C42.6629 217.436 42.8789 217.28 43.1669 217.076C43.4549 216.872 43.6709 216.692 43.8149 216.56C43.9469 216.428 44.1269 216.26 44.3309 216.044C44.8829 215.444 45.0869 214.892 45.1469 214.136C45.1469 213.044 44.4389 212.552 43.3949 212.552C42.7469 212.552 42.2309 212.732 41.8589 213.092C41.4869 213.452 41.2349 213.884 41.1269 214.376ZM47.2986 213.836L46.9146 212.936L49.7946 211.556H50.4786V220.004H49.4466V212.84L47.2986 213.836Z" fill="#1A3341" fill-opacity="0.6"/>
<path d="M10 99.0039C10 97.8993 10.8954 97.0039 12 97.0039H64C65.1046 97.0039 66 97.8993 66 99.0039V205.004H10V99.0039Z" fill="url(#paint1_linear_7002_37671)"/>
<path opacity="0.2" d="M22 97.0039H54V205.004H22V97.0039Z" fill="url(#paint2_linear_7002_37671)"/>
<path opacity="0.04" d="M54 97.0039H64C65.1046 97.0039 66 97.8993 66 99.0039V205.004H54V97.0039Z" fill="#0D262C"/>
<path opacity="0.5" d="M10 99.0039C10 97.8993 10.8954 97.0039 12 97.0039H22V205.004H10V99.0039Z" fill="url(#paint3_linear_7002_37671)"/>
<path d="M147.673 92.3939H141.737V91.2039H149.171V92.0019L144.299 101.004H142.969L147.673 92.3939ZM150.007 101.004C149.489 101.06 149.097 100.766 149.097 100.262C149.097 99.7719 149.405 99.4639 149.951 99.4639C150.567 99.4639 150.973 99.8839 150.973 100.668C150.973 102.068 150.203 102.782 149.181 103.02L148.887 102.362C149.195 102.278 149.475 102.11 149.727 101.844C149.965 101.578 150.063 101.298 150.007 101.004ZM155.856 95.4179H156.29C156.92 95.4179 157.438 95.2639 157.872 94.9699C158.292 94.6759 158.502 94.2839 158.502 93.8219C158.502 92.7719 157.676 92.2399 156.038 92.2399C154.47 92.2399 153.616 92.8139 153.616 93.8219C153.616 94.7319 154.554 95.4179 155.856 95.4179ZM156.262 96.5239H155.912C155.156 96.5239 154.526 96.6919 154.036 97.0139C153.546 97.3359 153.294 97.7419 153.294 98.2319C153.294 99.2959 154.274 99.9679 156.052 99.9679C157.858 99.9679 158.824 99.3239 158.824 98.2459C158.824 97.1679 157.788 96.5239 156.262 96.5239ZM159.02 100.374C158.306 100.878 157.312 101.13 156.066 101.13C154.82 101.13 153.826 100.878 153.098 100.388C152.37 99.8979 152.006 99.2259 152.006 98.3579C152.006 97.2239 152.748 96.3279 153.938 95.9359C152.86 95.5859 152.328 94.7319 152.328 93.7379C152.328 92.1139 153.7 91.0779 156.052 91.0779C158.418 91.0779 159.79 92.1139 159.79 93.7379C159.79 94.6759 159.272 95.3899 158.236 95.8659C159.482 96.2439 160.098 97.0559 160.098 98.3019C160.098 99.1839 159.734 99.8839 159.02 100.374ZM161.078 93.8079L160.63 92.7579L163.99 91.1479H164.788V101.004H163.584V92.6459L161.078 93.8079ZM167.693 94.4379L166.671 94.0739C167.021 92.3379 168.337 91.0919 170.423 91.0919C172.439 91.0919 173.671 92.2539 173.671 94.0319C173.671 94.9699 173.265 95.9079 172.761 96.5799C172.509 96.9299 172.187 97.2659 171.809 97.6159C171.039 98.3019 170.493 98.6659 169.695 99.1699L168.617 99.8419H174.035V101.004H166.405V100.052L168.533 98.6379C168.911 98.3999 169.177 98.2179 169.331 98.1059C169.485 98.0079 169.737 97.8259 170.073 97.5879C170.409 97.3499 170.661 97.1399 170.829 96.9859C170.983 96.8319 171.193 96.6359 171.431 96.3839C172.075 95.6839 172.313 95.0399 172.383 94.1579C172.383 92.8839 171.557 92.3099 170.339 92.3099C169.583 92.3099 168.981 92.5199 168.547 92.9399C168.113 93.3599 167.819 93.8639 167.693 94.4379Z" fill="#1A3341"/>
<path d="M144.556 214.376L143.68 214.064C143.98 212.576 145.108 211.508 146.896 211.508C148.624 211.508 149.68 212.504 149.68 214.028C149.68 214.832 149.332 215.636 148.9 216.212C148.684 216.512 148.408 216.8 148.084 217.1C147.424 217.688 146.956 218 146.272 218.432L145.348 219.008H149.992V220.004H143.452V219.188L145.276 217.976C145.6 217.772 145.828 217.616 145.96 217.52C146.092 217.436 146.308 217.28 146.596 217.076C146.884 216.872 147.1 216.692 147.244 216.56C147.376 216.428 147.556 216.26 147.76 216.044C148.312 215.444 148.516 214.892 148.576 214.136C148.576 213.044 147.868 212.552 146.824 212.552C146.176 212.552 145.66 212.732 145.288 213.092C144.916 213.452 144.664 213.884 144.556 214.376ZM150.824 215.804C150.824 214.508 151.124 213.464 151.736 212.684C152.336 211.904 153.224 211.508 154.388 211.508C156.776 211.508 157.964 213.08 157.964 215.804C157.964 217.112 157.664 218.144 157.076 218.924C156.476 219.704 155.588 220.1 154.412 220.1C153.284 220.1 152.408 219.704 151.772 218.912C151.136 218.12 150.824 217.088 150.824 215.804ZM151.928 215.804C151.928 217.856 152.864 219.08 154.412 219.08C156.044 219.08 156.86 217.988 156.86 215.804C156.86 213.62 156.032 212.528 154.388 212.528C152.72 212.528 151.928 213.728 151.928 215.804ZM159.82 214.376L158.944 214.064C159.244 212.576 160.372 211.508 162.16 211.508C163.888 211.508 164.944 212.504 164.944 214.028C164.944 214.832 164.596 215.636 164.164 216.212C163.948 216.512 163.672 216.8 163.348 217.1C162.688 217.688 162.22 218 161.536 218.432L160.612 219.008H165.256V220.004H158.716V219.188L160.54 217.976C160.864 217.772 161.092 217.616 161.224 217.52C161.356 217.436 161.572 217.28 161.86 217.076C162.148 216.872 162.364 216.692 162.508 216.56C162.64 216.428 162.82 216.26 163.024 216.044C163.576 215.444 163.78 214.892 163.84 214.136C163.84 213.044 163.132 212.552 162.088 212.552C161.44 212.552 160.924 212.732 160.552 213.092C160.18 213.452 159.928 213.884 159.82 214.376ZM167.048 214.376L166.172 214.064C166.472 212.576 167.6 211.508 169.388 211.508C171.116 211.508 172.172 212.504 172.172 214.028C172.172 214.832 171.824 215.636 171.392 216.212C171.176 216.512 170.9 216.8 170.576 217.1C169.916 217.688 169.448 218 168.764 218.432L167.84 219.008H172.484V220.004H165.944V219.188L167.768 217.976C168.092 217.772 168.32 217.616 168.452 217.52C168.584 217.436 168.8 217.28 169.088 217.076C169.376 216.872 169.592 216.692 169.736 216.56C169.868 216.428 170.048 216.26 170.252 216.044C170.804 215.444 171.008 214.892 171.068 214.136C171.068 213.044 170.36 212.552 169.316 212.552C168.668 212.552 168.152 212.732 167.78 213.092C167.408 213.452 167.156 213.884 167.048 214.376Z" fill="#1A3341" fill-opacity="0.6"/>
<path d="M130 113.004C130 111.899 130.895 111.004 132 111.004H184C185.105 111.004 186 111.899 186 113.004V205.004H130V113.004Z" fill="url(#paint4_linear_7002_37671)"/>
<path opacity="0.2" d="M142 111.004H174V205.004H142V111.004Z" fill="url(#paint5_linear_7002_37671)"/>
<path opacity="0.04" d="M174 111.004H184C185.105 111.004 186 111.899 186 113.004V205.004H174V111.004Z" fill="#0D262C"/>
<path opacity="0.5" d="M130 113.004C130 111.899 130.895 111.004 132 111.004H142V205.004H130V113.004Z" fill="url(#paint6_linear_7002_37671)"/>
<path d="M265.349 85.3939H259.413V84.2039H266.847V85.0019L261.975 94.0039H260.645L265.349 85.3939ZM267.683 94.0039C267.165 94.0599 266.773 93.7659 266.773 93.2619C266.773 92.7719 267.081 92.4639 267.627 92.4639C268.243 92.4639 268.649 92.8839 268.649 93.6679C268.649 95.0679 267.879 95.7819 266.857 96.0199L266.563 95.3619C266.871 95.2779 267.151 95.1099 267.403 94.8439C267.641 94.5779 267.739 94.2979 267.683 94.0039ZM277.815 88.9219C277.815 90.5879 277.423 91.8759 276.625 92.7719C275.827 93.6819 274.763 94.1299 273.433 94.1299C271.809 94.1299 270.535 93.4439 269.905 92.3939L270.913 91.6939C271.473 92.4779 272.495 92.9259 273.601 92.9259C274.511 92.9259 275.239 92.5619 275.813 91.8339C276.387 91.1199 276.625 90.2239 276.555 89.1599C276.093 90.2239 274.931 91.0079 273.377 91.0079C272.285 91.0079 271.389 90.6999 270.689 90.0699C269.975 89.4539 269.625 88.6419 269.625 87.6479C269.625 86.5559 270.003 85.6879 270.759 85.0439C271.515 84.3999 272.523 84.0779 273.769 84.0779C276.289 84.0779 277.815 85.8419 277.815 88.9219ZM276.345 87.6059C276.135 86.3039 275.239 85.2819 273.629 85.2819C271.949 85.2819 270.913 86.1499 270.913 87.6059C270.913 88.9919 271.963 89.8039 273.601 89.8039C274.343 89.8039 274.973 89.5799 275.463 89.1319C275.953 88.6839 276.247 88.1799 276.345 87.6059ZM285.627 94.0039H284.409V92.0019H278.417V91.1899L284.549 84.2039H285.627V90.8679H287.447V92.0019H285.627V94.0039ZM284.409 86.1639L280.097 90.8679H284.409V86.1639ZM296.28 88.9219C296.28 90.5879 295.888 91.8759 295.09 92.7719C294.292 93.6819 293.228 94.1299 291.898 94.1299C290.274 94.1299 289 93.4439 288.37 92.3939L289.378 91.6939C289.938 92.4779 290.96 92.9259 292.066 92.9259C292.976 92.9259 293.704 92.5619 294.278 91.8339C294.852 91.1199 295.09 90.2239 295.02 89.1599C294.558 90.2239 293.396 91.0079 291.842 91.0079C290.75 91.0079 289.854 90.6999 289.154 90.0699C288.44 89.4539 288.09 88.6419 288.09 87.6479C288.09 86.5559 288.468 85.6879 289.224 85.0439C289.98 84.3999 290.988 84.0779 292.234 84.0779C294.754 84.0779 296.28 85.8419 296.28 88.9219ZM294.81 87.6059C294.6 86.3039 293.704 85.2819 292.094 85.2819C290.414 85.2819 289.378 86.1499 289.378 87.6059C289.378 88.9919 290.428 89.8039 292.066 89.8039C292.808 89.8039 293.438 89.5799 293.928 89.1319C294.418 88.6839 294.712 88.1799 294.81 87.6059Z" fill="#1A3341"/>
<path d="M264.527 214.376L263.651 214.064C263.951 212.576 265.079 211.508 266.867 211.508C268.595 211.508 269.651 212.504 269.651 214.028C269.651 214.832 269.303 215.636 268.871 216.212C268.655 216.512 268.379 216.8 268.055 217.1C267.395 217.688 266.927 218 266.243 218.432L265.319 219.008H269.963V220.004H263.423V219.188L265.247 217.976C265.571 217.772 265.799 217.616 265.931 217.52C266.063 217.436 266.279 217.28 266.567 217.076C266.855 216.872 267.071 216.692 267.215 216.56C267.347 216.428 267.527 216.26 267.731 216.044C268.283 215.444 268.487 214.892 268.547 214.136C268.547 213.044 267.839 212.552 266.795 212.552C266.147 212.552 265.631 212.732 265.259 213.092C264.887 213.452 264.635 213.884 264.527 214.376ZM270.795 215.804C270.795 214.508 271.095 213.464 271.707 212.684C272.307 211.904 273.195 211.508 274.359 211.508C276.747 211.508 277.935 213.08 277.935 215.804C277.935 217.112 277.635 218.144 277.047 218.924C276.447 219.704 275.559 220.1 274.383 220.1C273.255 220.1 272.379 219.704 271.743 218.912C271.107 218.12 270.795 217.088 270.795 215.804ZM271.899 215.804C271.899 217.856 272.835 219.08 274.383 219.08C276.015 219.08 276.831 217.988 276.831 215.804C276.831 213.62 276.003 212.528 274.359 212.528C272.691 212.528 271.899 213.728 271.899 215.804ZM279.791 214.376L278.915 214.064C279.215 212.576 280.343 211.508 282.131 211.508C283.859 211.508 284.915 212.504 284.915 214.028C284.915 214.832 284.567 215.636 284.135 216.212C283.919 216.512 283.643 216.8 283.319 217.1C282.659 217.688 282.191 218 281.507 218.432L280.583 219.008H285.227V220.004H278.687V219.188L280.511 217.976C280.835 217.772 281.063 217.616 281.195 217.52C281.327 217.436 281.543 217.28 281.831 217.076C282.119 216.872 282.335 216.692 282.479 216.56C282.611 216.428 282.791 216.26 282.995 216.044C283.547 215.444 283.751 214.892 283.811 214.136C283.811 213.044 283.103 212.552 282.059 212.552C281.411 212.552 280.895 212.732 280.523 213.092C280.151 213.452 279.899 213.884 279.791 214.376ZM286.887 214.052L285.987 213.644C286.431 212.348 287.595 211.496 289.335 211.496C290.163 211.496 290.847 211.688 291.375 212.072C291.903 212.456 292.167 212.972 292.167 213.608C292.167 214.58 291.651 215.3 290.691 215.576C291.615 215.636 292.359 216.332 292.359 217.58C292.359 218.372 292.071 218.996 291.495 219.44C290.919 219.884 290.187 220.112 289.287 220.112C287.451 220.112 286.179 219.236 285.759 217.856L286.731 217.436C287.247 218.528 288.123 219.08 289.359 219.08C290.523 219.08 291.255 218.54 291.255 217.592C291.255 216.668 290.535 216.2 289.095 216.2H288.159V215.204H288.903C290.211 215.204 291.063 214.616 291.063 213.812C291.063 212.984 290.379 212.516 289.287 212.516C288.003 212.516 287.223 213.176 286.887 214.052Z" fill="#1A3341" fill-opacity="0.6"/>
<path d="M250 106.004C250 104.899 250.895 104.004 252 104.004H304C305.105 104.004 306 104.899 306 106.004V205.004H250V106.004Z" fill="url(#paint7_linear_7002_37671)"/>
<path opacity="0.2" d="M262 104.004H294V205.004H262V104.004Z" fill="url(#paint8_linear_7002_37671)"/>
<path opacity="0.04" d="M294 104.004H304C305.105 104.004 306 104.899 306 106.004V205.004H294V104.004Z" fill="#0D262C"/>
<path opacity="0.5" d="M250 106.004C250 104.899 250.895 104.004 252 104.004H262V205.004H250V106.004Z" fill="url(#paint9_linear_7002_37671)"/>
<path d="M123.927 189.357C124.122 189.162 124.122 188.846 123.927 188.65L120.745 185.468C120.55 185.273 120.233 185.273 120.038 185.468C119.843 185.664 119.843 185.98 120.038 186.175L122.867 189.004L120.038 191.832C119.843 192.028 119.843 192.344 120.038 192.539C120.233 192.735 120.55 192.735 120.745 192.539L123.927 189.357ZM72.1797 189.504L123.574 189.504L123.574 188.504L72.1797 188.504L72.1797 189.504Z" fill="#7DA4C1"/>
<path d="M89.906 176.14H84.338V175.24H89.906V176.14ZM92.0561 174.376L91.1801 174.064C91.4801 172.564 92.5601 171.508 94.3361 171.508C96.0641 171.508 97.0601 172.504 97.0601 174.028C97.0241 175.288 96.4361 176.284 95.5481 177.088C94.9241 177.676 94.4321 178.012 93.7721 178.432L92.8481 179.008H97.3721V180.004H91.0721V179.188L92.7761 177.976C93.7721 177.268 94.4201 176.776 94.7201 176.5C95.5481 175.744 95.9561 174.952 95.9561 174.136C95.9561 173.032 95.2841 172.552 94.2641 172.552C92.9681 172.552 92.2961 173.368 92.0561 174.376ZM100.379 180.184L99.5874 179.728L105.791 171.34L106.547 171.892L100.379 180.184ZM98.2914 173.62C98.2914 173.02 98.4954 172.528 98.9154 172.144C99.3354 171.76 99.8514 171.568 100.487 171.568C101.111 171.568 101.627 171.76 102.047 172.144C102.467 172.528 102.671 173.02 102.671 173.62C102.671 174.208 102.467 174.7 102.047 175.084C101.627 175.468 101.111 175.66 100.487 175.66C99.8514 175.66 99.3354 175.468 98.9154 175.084C98.4954 174.7 98.2914 174.208 98.2914 173.62ZM99.2994 173.62C99.2994 174.304 99.8514 174.808 100.487 174.808C101.147 174.808 101.663 174.328 101.663 173.62C101.663 172.912 101.123 172.432 100.487 172.432C99.8274 172.432 99.2994 172.912 99.2994 173.62ZM104.063 179.476C103.643 179.092 103.439 178.6 103.439 178C103.439 177.4 103.643 176.908 104.063 176.524C104.483 176.152 104.999 175.96 105.635 175.96C106.259 175.96 106.775 176.152 107.195 176.524C107.615 176.908 107.819 177.4 107.819 178C107.819 178.588 107.615 179.08 107.195 179.464C106.775 179.86 106.259 180.052 105.635 180.052C104.999 180.052 104.483 179.86 104.063 179.476ZM104.447 178C104.447 178.684 104.999 179.188 105.635 179.188C106.295 179.188 106.811 178.708 106.811 178C106.811 177.292 106.271 176.812 105.635 176.812C104.975 176.812 104.447 177.292 104.447 178Z" fill="#7DA4C1"/>
<circle cx="34" cy="63.0039" r="7" fill="#64BBEA" stroke="white" stroke-width="2"/>
<circle cx="274" cy="12.0039" r="7" fill="#64BBEA" stroke="white" stroke-width="2"/>
<circle cx="154" cy="23.0039" r="7" fill="#64BBEA" stroke="white" stroke-width="2"/>
<path d="M24.728 49.0039H20.218V48.1739H22.348V43.0339L20.558 43.8639L20.238 43.1139L22.638 41.9639H23.208V48.1739H24.728V49.0039ZM26.7241 44.3139L25.9941 44.0539C26.2441 42.8039 27.1441 41.9239 28.6241 41.9239C30.0641 41.9239 30.8941 42.7539 30.8941 44.0239C30.8641 45.0739 30.3741 45.9039 29.6341 46.5739C29.1141 47.0639 28.7041 47.3439 28.1541 47.6939L27.3841 48.1739H31.1541V49.0039H25.9041V48.3239L27.3241 47.3139C28.1541 46.7239 28.6941 46.3139 28.9441 46.0839C29.6341 45.4539 29.9741 44.7939 29.9741 44.1139C29.9741 43.1939 29.4141 42.7939 28.5641 42.7939C27.4841 42.7939 26.9241 43.4739 26.7241 44.3139ZM31.9902 48.4339C31.9902 48.1539 32.2502 47.8739 32.6102 47.8739C32.9402 47.8739 33.2102 48.1539 33.2102 48.4339C33.2102 48.7539 32.9602 49.0239 32.6102 49.0239C32.2502 49.0239 31.9902 48.7539 31.9902 48.4339ZM34.927 44.0439L34.177 43.7039C34.597 42.5139 35.497 41.9139 36.867 41.9139C37.557 41.9139 38.127 42.0739 38.567 42.3939C39.007 42.7139 39.227 43.1439 39.227 43.6739C39.227 44.4839 38.797 45.0839 37.997 45.3139C38.767 45.3639 39.387 45.9439 39.387 46.9839C39.387 47.6439 39.147 48.1639 38.667 48.5339C38.187 48.9039 37.577 49.0939 36.827 49.0939C35.307 49.0939 34.347 48.3739 33.987 47.2139L34.797 46.8639C35.197 47.7339 35.727 48.2339 36.887 48.2339C37.857 48.2339 38.467 47.7839 38.467 46.9939C38.467 46.2239 37.867 45.8339 36.667 45.8339H35.887V45.0039H36.507C37.597 45.0039 38.307 44.5139 38.307 43.8439C38.307 43.1539 37.737 42.7639 36.827 42.7639C35.897 42.7639 35.257 43.1939 34.927 44.0439ZM41.8731 49.1539L41.2131 48.7739L46.3831 41.7839L47.0131 42.2439L41.8731 49.1539ZM40.1331 43.6839C40.1331 43.1839 40.3031 42.7739 40.6531 42.4539C41.0031 42.1339 41.4331 41.9739 41.9631 41.9739C42.4831 41.9739 42.9131 42.1339 43.2631 42.4539C43.6131 42.7739 43.7831 43.1839 43.7831 43.6839C43.7831 44.1739 43.6131 44.5839 43.2631 44.9039C42.9131 45.2239 42.4831 45.3839 41.9631 45.3839C41.4331 45.3839 41.0031 45.2239 40.6531 44.9039C40.3031 44.5839 40.1331 44.1739 40.1331 43.6839ZM40.9731 43.6839C40.9731 44.2539 41.4331 44.6739 41.9631 44.6739C42.5131 44.6739 42.9431 44.2739 42.9431 43.6839C42.9431 43.0939 42.4931 42.6939 41.9631 42.6939C41.4131 42.6939 40.9731 43.0939 40.9731 43.6839ZM44.9431 48.5639C44.5931 48.2439 44.4231 47.8339 44.4231 47.3339C44.4231 46.8339 44.5931 46.4239 44.9431 46.1039C45.2931 45.7939 45.7231 45.6339 46.2531 45.6339C46.7731 45.6339 47.2031 45.7939 47.5531 46.1039C47.9031 46.4239 48.0731 46.8339 48.0731 47.3339C48.0731 47.8239 47.9031 48.2339 47.5531 48.5539C47.2031 48.8839 46.7731 49.0439 46.2531 49.0439C45.7231 49.0439 45.2931 48.8839 44.9431 48.5639ZM45.2631 47.3339C45.2631 47.9039 45.7231 48.3239 46.2531 48.3239C46.8031 48.3239 47.2331 47.9239 47.2331 47.3339C47.2331 46.7439 46.7831 46.3439 46.2531 46.3439C45.7031 46.3439 45.2631 46.7439 45.2631 47.3339Z" fill="#357D94"/>
<path d="M144.728 10.0039H140.218V9.17391H142.348V4.03391L140.558 4.86391L140.238 4.11391L142.638 2.96391H143.208V9.17391H144.728V10.0039ZM150.314 10.0039H149.444V8.57391H145.664V7.99391L149.544 3.00391H150.314V7.76391H151.414V8.57391H150.314V10.0039ZM149.444 4.40391L146.864 7.76391H149.444V4.40391ZM151.99 9.43391C151.99 9.15391 152.25 8.87391 152.61 8.87391C152.94 8.87391 153.21 9.15391 153.21 9.43391C153.21 9.75391 152.96 10.0239 152.61 10.0239C152.25 10.0239 151.99 9.75391 151.99 9.43391ZM158.937 10.0039H154.427V9.17391H156.557V4.03391L154.767 4.86391L154.447 4.11391L156.847 2.96391H157.417V9.17391H158.937V10.0039ZM161.873 10.1539L161.213 9.77391L166.383 2.78391L167.013 3.24391L161.873 10.1539ZM160.133 4.68391C160.133 4.18391 160.303 3.77391 160.653 3.45391C161.003 3.13391 161.433 2.97391 161.963 2.97391C162.483 2.97391 162.913 3.13391 163.263 3.45391C163.613 3.77391 163.783 4.18391 163.783 4.68391C163.783 5.17391 163.613 5.58391 163.263 5.90391C162.913 6.22391 162.483 6.38391 161.963 6.38391C161.433 6.38391 161.003 6.22391 160.653 5.90391C160.303 5.58391 160.133 5.17391 160.133 4.68391ZM160.973 4.68391C160.973 5.25391 161.433 5.67391 161.963 5.67391C162.513 5.67391 162.943 5.27391 162.943 4.68391C162.943 4.09391 162.493 3.69391 161.963 3.69391C161.413 3.69391 160.973 4.09391 160.973 4.68391ZM164.943 9.56391C164.593 9.24391 164.423 8.83391 164.423 8.33391C164.423 7.83391 164.593 7.42391 164.943 7.10391C165.293 6.79391 165.723 6.63391 166.253 6.63391C166.773 6.63391 167.203 6.79391 167.553 7.10391C167.903 7.42391 168.073 7.83391 168.073 8.33391C168.073 8.82391 167.903 9.23391 167.553 9.55391C167.203 9.88391 166.773 10.0439 166.253 10.0439C165.723 10.0439 165.293 9.88391 164.943 9.56391ZM165.263 8.33391C165.263 8.90391 165.723 9.32391 166.253 9.32391C166.803 9.32391 167.233 8.92391 167.233 8.33391C167.233 7.74391 166.783 7.34391 166.253 7.34391C165.703 7.34391 165.263 7.74391 165.263 8.33391Z" fill="#357D94"/>
<path d="M266.728 34.0039H262.218V33.1739H264.348V28.0339L262.558 28.8639L262.238 28.1139L264.638 26.9639H265.208V33.1739H266.728V34.0039ZM272.314 34.0039H271.444V32.5739H267.664V31.9939L271.544 27.0039H272.314V31.7639H273.414V32.5739H272.314V34.0039ZM271.444 28.4039L268.864 31.7639H271.444V28.4039ZM273.99 33.4339C273.99 33.1539 274.25 32.8739 274.61 32.8739C274.94 32.8739 275.21 33.1539 275.21 33.4339C275.21 33.7539 274.96 34.0239 274.61 34.0239C274.25 34.0239 273.99 33.7539 273.99 33.4339ZM276.927 29.0439L276.177 28.7039C276.597 27.5139 277.497 26.9139 278.867 26.9139C279.557 26.9139 280.127 27.0739 280.567 27.3939C281.007 27.7139 281.227 28.1439 281.227 28.6739C281.227 29.4839 280.797 30.0839 279.997 30.3139C280.767 30.3639 281.387 30.9439 281.387 31.9839C281.387 32.6439 281.147 33.1639 280.667 33.5339C280.187 33.9039 279.577 34.0939 278.827 34.0939C277.307 34.0939 276.347 33.3739 275.987 32.2139L276.797 31.8639C277.197 32.7339 277.727 33.2339 278.887 33.2339C279.857 33.2339 280.467 32.7839 280.467 31.9939C280.467 31.2239 279.867 30.8339 278.667 30.8339H277.887V30.0039H278.507C279.597 30.0039 280.307 29.5139 280.307 28.8439C280.307 28.1539 279.737 27.7639 278.827 27.7639C277.897 27.7639 277.257 28.1939 276.927 29.0439ZM283.873 34.1539L283.213 33.7739L288.383 26.7839L289.013 27.2439L283.873 34.1539ZM282.133 28.6839C282.133 28.1839 282.303 27.7739 282.653 27.4539C283.003 27.1339 283.433 26.9739 283.963 26.9739C284.483 26.9739 284.913 27.1339 285.263 27.4539C285.613 27.7739 285.783 28.1839 285.783 28.6839C285.783 29.1739 285.613 29.5839 285.263 29.9039C284.913 30.2239 284.483 30.3839 283.963 30.3839C283.433 30.3839 283.003 30.2239 282.653 29.9039C282.303 29.5839 282.133 29.1739 282.133 28.6839ZM282.973 28.6839C282.973 29.2539 283.433 29.6739 283.963 29.6739C284.513 29.6739 284.943 29.2739 284.943 28.6839C284.943 28.0939 284.493 27.6939 283.963 27.6939C283.413 27.6939 282.973 28.0939 282.973 28.6839ZM286.943 33.5639C286.593 33.2439 286.423 32.8339 286.423 32.3339C286.423 31.8339 286.593 31.4239 286.943 31.1039C287.293 30.7939 287.723 30.6339 288.253 30.6339C288.773 30.6339 289.203 30.7939 289.553 31.1039C289.903 31.4239 290.073 31.8339 290.073 32.3339C290.073 32.8239 289.903 33.2339 289.553 33.5539C289.203 33.8839 288.773 34.0439 288.253 34.0439C287.723 34.0439 287.293 33.8839 286.943 33.5639ZM287.263 32.3339C287.263 32.9039 287.723 33.3239 288.253 33.3239C288.803 33.3239 289.233 32.9239 289.233 32.3339C289.233 31.7439 288.783 31.3439 288.253 31.3439C287.703 31.3439 287.263 31.7439 287.263 32.3339Z" fill="#357D94"/>
<path d="M243.141 189.357C243.336 189.162 243.336 188.846 243.141 188.65L239.959 185.468C239.764 185.273 239.447 185.273 239.252 185.468C239.057 185.664 239.057 185.98 239.252 186.175L242.08 189.004L239.252 191.832C239.057 192.028 239.057 192.344 239.252 192.539C239.447 192.735 239.764 192.735 239.959 192.539L243.141 189.357ZM192.363 189.504L242.788 189.504L242.788 188.504L192.363 188.504L192.363 189.504Z" fill="#318F73"/>
<path d="M208.145 176.14H205.877V175.228H208.145V172.948H209.093V175.228H211.385V176.14H209.093V178.444H208.145V176.14ZM213.662 174.376L212.786 174.064C213.086 172.564 214.166 171.508 215.942 171.508C217.67 171.508 218.666 172.504 218.666 174.028C218.63 175.288 218.042 176.284 217.154 177.088C216.53 177.676 216.038 178.012 215.378 178.432L214.454 179.008H218.978V180.004H212.678V179.188L214.382 177.976C215.378 177.268 216.026 176.776 216.326 176.5C217.154 175.744 217.562 174.952 217.562 174.136C217.562 173.032 216.89 172.552 215.87 172.552C214.574 172.552 213.902 173.368 213.662 174.376ZM221.985 180.184L221.193 179.728L227.397 171.34L228.153 171.892L221.985 180.184ZM219.897 173.62C219.897 173.02 220.101 172.528 220.521 172.144C220.941 171.76 221.457 171.568 222.093 171.568C222.717 171.568 223.233 171.76 223.653 172.144C224.073 172.528 224.277 173.02 224.277 173.62C224.277 174.208 224.073 174.7 223.653 175.084C223.233 175.468 222.717 175.66 222.093 175.66C221.457 175.66 220.941 175.468 220.521 175.084C220.101 174.7 219.897 174.208 219.897 173.62ZM220.905 173.62C220.905 174.304 221.457 174.808 222.093 174.808C222.753 174.808 223.269 174.328 223.269 173.62C223.269 172.912 222.729 172.432 222.093 172.432C221.433 172.432 220.905 172.912 220.905 173.62ZM225.669 179.476C225.249 179.092 225.045 178.6 225.045 178C225.045 177.4 225.249 176.908 225.669 176.524C226.089 176.152 226.605 175.96 227.241 175.96C227.865 175.96 228.381 176.152 228.801 176.524C229.221 176.908 229.425 177.4 229.425 178C229.425 178.588 229.221 179.08 228.801 179.464C228.381 179.86 227.865 180.052 227.241 180.052C226.605 180.052 226.089 179.86 225.669 179.476ZM226.053 178C226.053 178.684 226.605 179.188 227.241 179.188C227.901 179.188 228.417 178.708 228.417 178C228.417 177.292 227.877 176.812 227.241 176.812C226.581 176.812 226.053 177.292 226.053 178Z" fill="#318F73"/>
<line y1="204.504" x2="335" y2="204.504" stroke="#ABBEC9"/>
<defs>
<linearGradient id="paint0_linear_7002_37671" x1="274" y1="11.5039" x2="33.5" y2="11.5039" gradientUnits="userSpaceOnUse">
<stop stop-color="#56BCF6"/>
<stop offset="1" stop-color="#A2DEE7"/>
</linearGradient>
<linearGradient id="paint1_linear_7002_37671" x1="38" y1="97.0039" x2="38" y2="205.004" gradientUnits="userSpaceOnUse">
<stop stop-color="#45B8DB"/>
<stop offset="1" stop-color="#ADE4E4"/>
</linearGradient>
<linearGradient id="paint2_linear_7002_37671" x1="38" y1="97.0039" x2="38" y2="205.004" gradientUnits="userSpaceOnUse">
<stop stop-color="white" stop-opacity="0"/>
<stop offset="0.739583" stop-color="white"/>
</linearGradient>
<linearGradient id="paint3_linear_7002_37671" x1="16" y1="-113.596" x2="16" y2="205.004" gradientUnits="userSpaceOnUse">
<stop stop-color="white" stop-opacity="0.05"/>
<stop offset="0.75" stop-color="white" stop-opacity="0.8"/>
</linearGradient>
<linearGradient id="paint4_linear_7002_37671" x1="158" y1="111.004" x2="158" y2="205.004" gradientUnits="userSpaceOnUse">
<stop stop-color="#45B8DB"/>
<stop offset="1" stop-color="#ADE4E4"/>
</linearGradient>
<linearGradient id="paint5_linear_7002_37671" x1="158" y1="111.004" x2="158" y2="205.004" gradientUnits="userSpaceOnUse">
<stop stop-color="white" stop-opacity="0"/>
<stop offset="0.739583" stop-color="white"/>
</linearGradient>
<linearGradient id="paint6_linear_7002_37671" x1="136" y1="-72.2961" x2="136" y2="205.004" gradientUnits="userSpaceOnUse">
<stop stop-color="white" stop-opacity="0.05"/>
<stop offset="0.75" stop-color="white" stop-opacity="0.8"/>
</linearGradient>
<linearGradient id="paint7_linear_7002_37671" x1="278" y1="104.004" x2="278" y2="205.004" gradientUnits="userSpaceOnUse">
<stop stop-color="#45B8DB"/>
<stop offset="1" stop-color="#ADE4E4"/>
</linearGradient>
<linearGradient id="paint8_linear_7002_37671" x1="278" y1="104.004" x2="278" y2="205.004" gradientUnits="userSpaceOnUse">
<stop stop-color="white" stop-opacity="0"/>
<stop offset="0.739583" stop-color="white"/>
</linearGradient>
<linearGradient id="paint9_linear_7002_37671" x1="256" y1="-92.9461" x2="256" y2="205.004" gradientUnits="userSpaceOnUse">
<stop stop-color="white" stop-opacity="0.05"/>
<stop offset="0.75" stop-color="white" stop-opacity="0.8"/>
</linearGradient>
</defs>
</svg>
