<svg width="335" height="164" viewBox="0 0 335 164" fill="none" xmlns="http://www.w3.org/2000/svg">
<line y1="148.5" x2="335" y2="148.5" stroke="#ABBEC9"/>
<path d="M146.644 21.492L145.636 21.226L146.21 16.2H152.37V17.39H147.288L146.924 20.022C147.414 19.658 148.156 19.476 149.15 19.476C150.298 19.476 151.194 19.784 151.852 20.386C152.496 21.002 152.818 21.786 152.818 22.752C152.818 23.718 152.454 24.53 151.74 25.16C151.012 25.804 150.102 26.126 149.024 26.126C147.19 26.126 145.664 25.258 145.034 23.732L146.154 23.256C146.56 24.194 147.61 24.936 149.024 24.936C150.634 24.936 151.53 24.012 151.53 22.794C151.53 21.492 150.48 20.652 148.814 20.652C147.918 20.652 147.19 20.932 146.644 21.492ZM155.308 21.492L154.3 21.226L154.874 16.2H161.034V17.39H155.952L155.588 20.022C156.078 19.658 156.82 19.476 157.814 19.476C158.962 19.476 159.858 19.784 160.516 20.386C161.16 21.002 161.482 21.786 161.482 22.752C161.482 23.718 161.118 24.53 160.404 25.16C159.676 25.804 158.766 26.126 157.688 26.126C155.854 26.126 154.328 25.258 153.698 23.732L154.818 23.256C155.224 24.194 156.274 24.936 157.688 24.936C159.298 24.936 160.194 24.012 160.194 22.794C160.194 21.492 159.144 20.652 157.478 20.652C156.582 20.652 155.854 20.932 155.308 21.492ZM163.483 26C162.965 26.056 162.573 25.762 162.573 25.258C162.573 24.768 162.881 24.46 163.427 24.46C164.043 24.46 164.449 24.88 164.449 25.664C164.449 27.064 163.679 27.778 162.657 28.016L162.363 27.358C162.671 27.274 162.951 27.106 163.203 26.84C163.441 26.574 163.539 26.294 163.483 26ZM166.896 21.492L165.888 21.226L166.462 16.2H172.622V17.39H167.54L167.176 20.022C167.666 19.658 168.408 19.476 169.402 19.476C170.55 19.476 171.446 19.784 172.104 20.386C172.748 21.002 173.07 21.786 173.07 22.752C173.07 23.718 172.706 24.53 171.992 25.16C171.264 25.804 170.354 26.126 169.276 26.126C167.442 26.126 165.916 25.258 165.286 23.732L166.406 23.256C166.812 24.194 167.862 24.936 169.276 24.936C170.886 24.936 171.782 24.012 171.782 22.794C171.782 21.492 170.732 20.652 169.066 20.652C168.17 20.652 167.442 20.932 166.896 21.492ZM179.746 17.39H173.81V16.2H181.244V16.998L176.372 26H175.042L179.746 17.39ZM187.604 17.39H181.668V16.2H189.102V16.998L184.23 26H182.9L187.604 17.39Z" fill="#1A3341"/>
<path d="M153.556 157.372L152.68 157.06C152.98 155.572 154.108 154.504 155.896 154.504C157.624 154.504 158.68 155.5 158.68 157.024C158.68 157.828 158.332 158.632 157.9 159.208C157.684 159.508 157.408 159.796 157.084 160.096C156.424 160.684 155.956 160.996 155.272 161.428L154.348 162.004H158.992V163H152.452V162.184L154.276 160.972C154.6 160.768 154.828 160.612 154.96 160.516C155.092 160.432 155.308 160.276 155.596 160.072C155.884 159.868 156.1 159.688 156.244 159.556C156.376 159.424 156.556 159.256 156.76 159.04C157.312 158.44 157.516 157.888 157.576 157.132C157.576 156.04 156.868 155.548 155.824 155.548C155.176 155.548 154.66 155.728 154.288 156.088C153.916 156.448 153.664 156.88 153.556 157.372ZM159.824 158.8C159.824 157.504 160.124 156.46 160.736 155.68C161.336 154.9 162.224 154.504 163.388 154.504C165.776 154.504 166.964 156.076 166.964 158.8C166.964 160.108 166.664 161.14 166.076 161.92C165.476 162.7 164.588 163.096 163.412 163.096C162.284 163.096 161.408 162.7 160.772 161.908C160.136 161.116 159.824 160.084 159.824 158.8ZM160.928 158.8C160.928 160.852 161.864 162.076 163.412 162.076C165.044 162.076 165.86 160.984 165.86 158.8C165.86 156.616 165.032 155.524 163.388 155.524C161.72 155.524 160.928 156.724 160.928 158.8ZM168.82 157.372L167.944 157.06C168.244 155.572 169.372 154.504 171.16 154.504C172.888 154.504 173.944 155.5 173.944 157.024C173.944 157.828 173.596 158.632 173.164 159.208C172.948 159.508 172.672 159.796 172.348 160.096C171.688 160.684 171.22 160.996 170.536 161.428L169.612 162.004H174.256V163H167.716V162.184L169.54 160.972C169.864 160.768 170.092 160.612 170.224 160.516C170.356 160.432 170.572 160.276 170.86 160.072C171.148 159.868 171.364 159.688 171.508 159.556C171.64 159.424 171.82 159.256 172.024 159.04C172.576 158.44 172.78 157.888 172.84 157.132C172.84 156.04 172.132 155.548 171.088 155.548C170.44 155.548 169.924 155.728 169.552 156.088C169.18 156.448 168.928 156.88 168.82 157.372ZM176.048 157.372L175.172 157.06C175.472 155.572 176.6 154.504 178.388 154.504C180.116 154.504 181.172 155.5 181.172 157.024C181.172 157.828 180.824 158.632 180.392 159.208C180.176 159.508 179.9 159.796 179.576 160.096C178.916 160.684 178.448 160.996 177.764 161.428L176.84 162.004H181.484V163H174.944V162.184L176.768 160.972C177.092 160.768 177.32 160.612 177.452 160.516C177.584 160.432 177.8 160.276 178.088 160.072C178.376 159.868 178.592 159.688 178.736 159.556C178.868 159.424 179.048 159.256 179.252 159.04C179.804 158.44 180.008 157.888 180.068 157.132C180.068 156.04 179.36 155.548 178.316 155.548C177.668 155.548 177.152 155.728 176.78 156.088C176.408 156.448 176.156 156.88 176.048 157.372Z" fill="#1A3341" fill-opacity="0.6"/>
<path d="M139 38C139 36.8954 139.895 36 141 36H193C194.105 36 195 36.8954 195 38V148H139V38Z" fill="url(#paint0_linear_7002_37667)"/>
<path opacity="0.2" d="M151 36H183V148H151V36Z" fill="url(#paint1_linear_7002_37667)"/>
<path opacity="0.04" d="M183 36H193C194.105 36 195 36.8954 195 38V148H183V36Z" fill="#0D262C"/>
<path opacity="0.5" d="M139 38C139 36.8954 139.895 36 141 36H151V148H139V38Z" fill="url(#paint2_linear_7002_37667)"/>
<path d="M17.2293 5.366C17.2293 3.672 17.6493 2.37 18.4753 1.446C19.3013 0.535999 20.3373 0.0739993 21.5833 0.0739993C23.2213 0.0739993 24.5093 0.816 25.0553 1.992L24.1033 2.636C23.5293 1.726 22.6753 1.278 21.5273 1.278C20.6593 1.278 19.9313 1.614 19.3433 2.286C18.7553 2.972 18.4613 3.896 18.4753 5.086C19.0213 4.064 20.2953 3.448 21.6953 3.448C22.8293 3.448 23.7393 3.742 24.3973 4.344C25.0553 4.946 25.3913 5.744 25.3913 6.724C25.3913 7.718 25.0273 8.544 24.2853 9.174C23.5433 9.804 22.6193 10.126 21.5133 10.126C18.8673 10.126 17.2293 8.404 17.2293 5.366ZM18.6293 6.556C18.8953 7.942 19.9453 8.922 21.4993 8.922C22.2553 8.922 22.8853 8.726 23.3753 8.32C23.8653 7.928 24.1033 7.41 24.1033 6.78C24.1033 5.394 23.1233 4.652 21.6253 4.652C20.7993 4.652 20.1133 4.848 19.5813 5.24C19.0353 5.632 18.7273 6.066 18.6293 6.556ZM33.1619 10H31.9439V7.998H25.9519V7.186L32.0839 0.199999H33.1619V6.864H34.9819V7.998H33.1619V10ZM31.9439 2.16L27.6319 6.864H31.9439V2.16ZM36.6041 10C36.0861 10.056 35.6941 9.762 35.6941 9.258C35.6941 8.768 36.0021 8.46 36.5481 8.46C37.1641 8.46 37.5701 8.88 37.5701 9.664C37.5701 11.064 36.8001 11.778 35.7781 12.016L35.4841 11.358C35.7921 11.274 36.0721 11.106 36.3241 10.84C36.5621 10.574 36.6601 10.294 36.6041 10ZM42.4526 4.414H42.8866C43.5166 4.414 44.0346 4.26 44.4686 3.966C44.8886 3.672 45.0986 3.28 45.0986 2.818C45.0986 1.768 44.2726 1.236 42.6346 1.236C41.0666 1.236 40.2126 1.81 40.2126 2.818C40.2126 3.728 41.1506 4.414 42.4526 4.414ZM42.8586 5.52H42.5086C41.7526 5.52 41.1226 5.688 40.6326 6.01C40.1426 6.332 39.8906 6.738 39.8906 7.228C39.8906 8.292 40.8706 8.964 42.6486 8.964C44.4546 8.964 45.4206 8.32 45.4206 7.242C45.4206 6.164 44.3846 5.52 42.8586 5.52ZM45.6166 9.37C44.9026 9.874 43.9086 10.126 42.6626 10.126C41.4166 10.126 40.4226 9.874 39.6946 9.384C38.9666 8.894 38.6026 8.222 38.6026 7.354C38.6026 6.22 39.3446 5.324 40.5346 4.932C39.4566 4.582 38.9246 3.728 38.9246 2.734C38.9246 1.11 40.2966 0.0739993 42.6486 0.0739993C45.0146 0.0739993 46.3866 1.11 46.3866 2.734C46.3866 3.672 45.8686 4.386 44.8326 4.862C46.0786 5.24 46.6946 6.052 46.6946 7.298C46.6946 8.18 46.3306 8.88 45.6166 9.37ZM49.2145 5.492L48.2065 5.226L48.7805 0.199999H54.9405V1.39H49.8585L49.4945 4.022C49.9845 3.658 50.7265 3.476 51.7205 3.476C52.8685 3.476 53.7645 3.784 54.4225 4.386C55.0665 5.002 55.3885 5.786 55.3885 6.752C55.3885 7.718 55.0245 8.53 54.3105 9.16C53.5825 9.804 52.6725 10.126 51.5945 10.126C49.7605 10.126 48.2345 9.258 47.6045 7.732L48.7245 7.256C49.1305 8.194 50.1805 8.936 51.5945 8.936C53.2045 8.936 54.1005 8.012 54.1005 6.794C54.1005 5.492 53.0505 4.652 51.3845 4.652C50.4885 4.652 49.7605 4.932 49.2145 5.492ZM56.3392 2.804L55.8912 1.754L59.2512 0.143999H60.0492V10H58.8452V1.642L56.3392 2.804Z" fill="#1A3341"/>
<path d="M26.863 157.372L25.987 157.06C26.287 155.572 27.415 154.504 29.203 154.504C30.931 154.504 31.987 155.5 31.987 157.024C31.987 157.828 31.639 158.632 31.207 159.208C30.991 159.508 30.715 159.796 30.391 160.096C29.731 160.684 29.263 160.996 28.579 161.428L27.655 162.004H32.299V163H25.759V162.184L27.583 160.972C27.907 160.768 28.135 160.612 28.267 160.516C28.399 160.432 28.615 160.276 28.903 160.072C29.191 159.868 29.407 159.688 29.551 159.556C29.683 159.424 29.863 159.256 30.067 159.04C30.619 158.44 30.823 157.888 30.883 157.132C30.883 156.04 30.175 155.548 29.131 155.548C28.483 155.548 27.967 155.728 27.595 156.088C27.223 156.448 26.971 156.88 26.863 157.372ZM33.1307 158.8C33.1307 157.504 33.4307 156.46 34.0427 155.68C34.6427 154.9 35.5307 154.504 36.6947 154.504C39.0827 154.504 40.2707 156.076 40.2707 158.8C40.2707 160.108 39.9707 161.14 39.3827 161.92C38.7827 162.7 37.8947 163.096 36.7187 163.096C35.5907 163.096 34.7147 162.7 34.0787 161.908C33.4427 161.116 33.1307 160.084 33.1307 158.8ZM34.2347 158.8C34.2347 160.852 35.1707 162.076 36.7187 162.076C38.3507 162.076 39.1667 160.984 39.1667 158.8C39.1667 156.616 38.3387 155.524 36.6947 155.524C35.0267 155.524 34.2347 156.724 34.2347 158.8ZM42.1269 157.372L41.2509 157.06C41.5509 155.572 42.6789 154.504 44.4669 154.504C46.1949 154.504 47.2509 155.5 47.2509 157.024C47.2509 157.828 46.9029 158.632 46.4709 159.208C46.2549 159.508 45.9789 159.796 45.6549 160.096C44.9949 160.684 44.5269 160.996 43.8429 161.428L42.9189 162.004H47.5629V163H41.0229V162.184L42.8469 160.972C43.1709 160.768 43.3989 160.612 43.5309 160.516C43.6629 160.432 43.8789 160.276 44.1669 160.072C44.4549 159.868 44.6709 159.688 44.8149 159.556C44.9469 159.424 45.1269 159.256 45.3309 159.04C45.8829 158.44 46.0869 157.888 46.1469 157.132C46.1469 156.04 45.4389 155.548 44.3949 155.548C43.7469 155.548 43.2309 155.728 42.8589 156.088C42.4869 156.448 42.2349 156.88 42.1269 157.372ZM48.2986 156.832L47.9146 155.932L50.7946 154.552H51.4786V163H50.4466V155.836L48.2986 156.832Z" fill="#1A3341" fill-opacity="0.6"/>
<path d="M11 22C11 20.8954 11.8954 20 13 20H65C66.1046 20 67 20.8954 67 22V148H11V22Z" fill="url(#paint3_linear_7002_37667)"/>
<path opacity="0.2" d="M23 20H55V148H23V20Z" fill="url(#paint4_linear_7002_37667)"/>
<path opacity="0.04" d="M55 20H65C66.1046 20 67 20.8954 67 22V148H55V20Z" fill="#0D262C"/>
<path opacity="0.5" d="M11 22C11 20.8954 11.8954 20 13 20H23V148H11V22Z" fill="url(#paint5_linear_7002_37667)"/>
<path d="M274.91 23.492L273.902 23.226L274.476 18.2H280.636V19.39H275.554L275.19 22.022C275.68 21.658 276.422 21.476 277.416 21.476C278.564 21.476 279.46 21.784 280.118 22.386C280.762 23.002 281.084 23.786 281.084 24.752C281.084 25.718 280.72 26.53 280.006 27.16C279.278 27.804 278.368 28.126 277.29 28.126C275.456 28.126 273.93 27.258 273.3 25.732L274.42 25.256C274.826 26.194 275.876 26.936 277.29 26.936C278.9 26.936 279.796 26.012 279.796 24.794C279.796 23.492 278.746 22.652 277.08 22.652C276.184 22.652 275.456 22.932 274.91 23.492ZM283.575 23.492L282.567 23.226L283.141 18.2H289.301V19.39H284.219L283.855 22.022C284.345 21.658 285.087 21.476 286.081 21.476C287.229 21.476 288.125 21.784 288.783 22.386C289.427 23.002 289.749 23.786 289.749 24.752C289.749 25.718 289.385 26.53 288.671 27.16C287.943 27.804 287.033 28.126 285.955 28.126C284.121 28.126 282.595 27.258 281.965 25.732L283.085 25.256C283.491 26.194 284.541 26.936 285.955 26.936C287.565 26.936 288.461 26.012 288.461 24.794C288.461 23.492 287.411 22.652 285.745 22.652C284.849 22.652 284.121 22.932 283.575 23.492ZM291.75 28C291.232 28.056 290.84 27.762 290.84 27.258C290.84 26.768 291.148 26.46 291.694 26.46C292.31 26.46 292.716 26.88 292.716 27.664C292.716 29.064 291.946 29.778 290.924 30.016L290.63 29.358C290.938 29.274 291.218 29.106 291.47 28.84C291.708 28.574 291.806 28.294 291.75 28ZM300.496 28H299.278V25.998H293.286V25.186L299.418 18.2H300.496V24.864H302.316V25.998H300.496V28ZM299.278 20.16L294.966 24.864H299.278V20.16ZM311.148 22.918C311.148 24.584 310.756 25.872 309.958 26.768C309.16 27.678 308.096 28.126 306.766 28.126C305.142 28.126 303.868 27.44 303.238 26.39L304.246 25.69C304.806 26.474 305.828 26.922 306.934 26.922C307.844 26.922 308.572 26.558 309.146 25.83C309.72 25.116 309.958 24.22 309.888 23.156C309.426 24.22 308.264 25.004 306.71 25.004C305.618 25.004 304.722 24.696 304.022 24.066C303.308 23.45 302.958 22.638 302.958 21.644C302.958 20.552 303.336 19.684 304.092 19.04C304.848 18.396 305.856 18.074 307.102 18.074C309.622 18.074 311.148 19.838 311.148 22.918ZM309.678 21.602C309.468 20.3 308.572 19.278 306.962 19.278C305.282 19.278 304.246 20.146 304.246 21.602C304.246 22.988 305.296 23.8 306.934 23.8C307.676 23.8 308.306 23.576 308.796 23.128C309.286 22.68 309.58 22.176 309.678 21.602ZM312.086 20.804L311.638 19.754L314.998 18.144H315.796V28H314.592V19.642L312.086 20.804Z" fill="#1A3341"/>
<path d="M281.527 157.372L280.651 157.06C280.951 155.572 282.079 154.504 283.867 154.504C285.595 154.504 286.651 155.5 286.651 157.024C286.651 157.828 286.303 158.632 285.871 159.208C285.655 159.508 285.379 159.796 285.055 160.096C284.395 160.684 283.927 160.996 283.243 161.428L282.319 162.004H286.963V163H280.423V162.184L282.247 160.972C282.571 160.768 282.799 160.612 282.931 160.516C283.063 160.432 283.279 160.276 283.567 160.072C283.855 159.868 284.071 159.688 284.215 159.556C284.347 159.424 284.527 159.256 284.731 159.04C285.283 158.44 285.487 157.888 285.547 157.132C285.547 156.04 284.839 155.548 283.795 155.548C283.147 155.548 282.631 155.728 282.259 156.088C281.887 156.448 281.635 156.88 281.527 157.372ZM287.795 158.8C287.795 157.504 288.095 156.46 288.707 155.68C289.307 154.9 290.195 154.504 291.359 154.504C293.747 154.504 294.935 156.076 294.935 158.8C294.935 160.108 294.635 161.14 294.047 161.92C293.447 162.7 292.559 163.096 291.383 163.096C290.255 163.096 289.379 162.7 288.743 161.908C288.107 161.116 287.795 160.084 287.795 158.8ZM288.899 158.8C288.899 160.852 289.835 162.076 291.383 162.076C293.015 162.076 293.831 160.984 293.831 158.8C293.831 156.616 293.003 155.524 291.359 155.524C289.691 155.524 288.899 156.724 288.899 158.8ZM296.791 157.372L295.915 157.06C296.215 155.572 297.343 154.504 299.131 154.504C300.859 154.504 301.915 155.5 301.915 157.024C301.915 157.828 301.567 158.632 301.135 159.208C300.919 159.508 300.643 159.796 300.319 160.096C299.659 160.684 299.191 160.996 298.507 161.428L297.583 162.004H302.227V163H295.687V162.184L297.511 160.972C297.835 160.768 298.063 160.612 298.195 160.516C298.327 160.432 298.543 160.276 298.831 160.072C299.119 159.868 299.335 159.688 299.479 159.556C299.611 159.424 299.791 159.256 299.995 159.04C300.547 158.44 300.751 157.888 300.811 157.132C300.811 156.04 300.103 155.548 299.059 155.548C298.411 155.548 297.895 155.728 297.523 156.088C297.151 156.448 296.899 156.88 296.791 157.372ZM303.887 157.048L302.987 156.64C303.431 155.344 304.595 154.492 306.335 154.492C307.163 154.492 307.847 154.684 308.375 155.068C308.903 155.452 309.167 155.968 309.167 156.604C309.167 157.576 308.651 158.296 307.691 158.572C308.615 158.632 309.359 159.328 309.359 160.576C309.359 161.368 309.071 161.992 308.495 162.436C307.919 162.88 307.187 163.108 306.287 163.108C304.451 163.108 303.179 162.232 302.759 160.852L303.731 160.432C304.247 161.524 305.123 162.076 306.359 162.076C307.523 162.076 308.255 161.536 308.255 160.588C308.255 159.664 307.535 159.196 306.095 159.196H305.159V158.2H305.903C307.211 158.2 308.063 157.612 308.063 156.808C308.063 155.98 307.379 155.512 306.287 155.512C305.003 155.512 304.223 156.172 303.887 157.048Z" fill="#1A3341" fill-opacity="0.6"/>
<path d="M267 40C267 38.8954 267.895 38 269 38H321C322.105 38 323 38.8954 323 40V148H267V40Z" fill="url(#paint6_linear_7002_37667)"/>
<path opacity="0.2" d="M279 38H311V148H279V38Z" fill="url(#paint7_linear_7002_37667)"/>
<path opacity="0.04" d="M311 38H321C322.105 38 323 38.8954 323 40V148H311V38Z" fill="#0D262C"/>
<path opacity="0.5" d="M267 40C267 38.8954 267.895 38 269 38H279V148H267V40Z" fill="url(#paint8_linear_7002_37667)"/>
<path d="M91.3084 23.136H85.7404V22.236H91.3084V23.136ZM98.2584 27H92.8464V26.004H95.4024V19.836L93.2544 20.832L92.8704 19.932L95.7504 18.552H96.4344V26.004H98.2584V27ZM104.962 27H103.918V25.284H99.3817V24.588L104.038 18.6H104.962V24.312H106.282V25.284H104.962V27ZM103.918 20.28L100.822 24.312H103.918V20.28ZM108.977 27.18L108.185 26.724L114.389 18.336L115.145 18.888L108.977 27.18ZM106.889 20.616C106.889 20.016 107.093 19.524 107.513 19.14C107.933 18.756 108.449 18.564 109.085 18.564C109.709 18.564 110.225 18.756 110.645 19.14C111.065 19.524 111.269 20.016 111.269 20.616C111.269 21.204 111.065 21.696 110.645 22.08C110.225 22.464 109.709 22.656 109.085 22.656C108.449 22.656 107.933 22.464 107.513 22.08C107.093 21.696 106.889 21.204 106.889 20.616ZM107.897 20.616C107.897 21.3 108.449 21.804 109.085 21.804C109.745 21.804 110.261 21.324 110.261 20.616C110.261 19.908 109.721 19.428 109.085 19.428C108.425 19.428 107.897 19.908 107.897 20.616ZM112.661 26.472C112.241 26.088 112.037 25.596 112.037 24.996C112.037 24.396 112.241 23.904 112.661 23.52C113.081 23.148 113.597 22.956 114.233 22.956C114.857 22.956 115.373 23.148 115.793 23.52C116.213 23.904 116.417 24.396 116.417 24.996C116.417 25.584 116.213 26.076 115.793 26.46C115.373 26.856 114.857 27.048 114.233 27.048C113.597 27.048 113.081 26.856 112.661 26.472ZM113.045 24.996C113.045 25.68 113.597 26.184 114.233 26.184C114.893 26.184 115.409 25.704 115.409 24.996C115.409 24.288 114.869 23.808 114.233 23.808C113.573 23.808 113.045 24.288 113.045 24.996Z" fill="#7DA4C1"/>
<path d="M128.747 36.3536C128.943 36.1583 128.943 35.8417 128.747 35.6465L125.566 32.4645C125.37 32.2692 125.054 32.2692 124.858 32.4645C124.663 32.6597 124.663 32.9763 124.858 33.1716L127.687 36L124.858 38.8284C124.663 39.0237 124.663 39.3403 124.858 39.5355C125.054 39.7308 125.37 39.7308 125.566 39.5355L128.747 36.3536ZM77 36.5L128.394 36.5L128.394 35.5L77 35.5L77 36.5Z" fill="#7DA4C1"/>
<path d="M216.978 23.136H211.41V22.236H216.978V23.136ZM218.036 22.8C218.036 21.504 218.312 20.46 218.852 19.68C219.392 18.9 220.184 18.504 221.24 18.504C223.388 18.504 224.456 20.076 224.456 22.8C224.456 24.108 224.192 25.14 223.652 25.92C223.112 26.7 222.32 27.096 221.264 27.096C220.244 27.096 219.452 26.7 218.888 25.908C218.324 25.116 218.036 24.084 218.036 22.8ZM219.14 22.8C219.14 24.828 219.932 26.076 221.264 26.076C222.656 26.076 223.352 24.984 223.352 22.8C223.352 20.616 222.644 19.524 221.24 19.524C219.836 19.524 219.14 20.616 219.14 22.8ZM225.448 26.316C225.448 25.98 225.76 25.644 226.192 25.644C226.588 25.644 226.912 25.98 226.912 26.316C226.912 26.7 226.612 27.024 226.192 27.024C225.76 27.024 225.448 26.7 225.448 26.316ZM228.984 21.372L228.108 21.06C228.408 19.56 229.488 18.504 231.264 18.504C232.992 18.504 233.988 19.5 233.988 21.024C233.952 22.284 233.364 23.28 232.476 24.084C231.852 24.672 231.36 25.008 230.7 25.428L229.776 26.004H234.3V27H228V26.184L229.704 24.972C230.7 24.264 231.348 23.772 231.648 23.496C232.476 22.74 232.884 21.948 232.884 21.132C232.884 20.028 232.212 19.548 231.192 19.548C229.896 19.548 229.224 20.364 228.984 21.372ZM237.307 27.18L236.515 26.724L242.719 18.336L243.475 18.888L237.307 27.18ZM235.219 20.616C235.219 20.016 235.423 19.524 235.843 19.14C236.263 18.756 236.779 18.564 237.415 18.564C238.039 18.564 238.555 18.756 238.975 19.14C239.395 19.524 239.599 20.016 239.599 20.616C239.599 21.204 239.395 21.696 238.975 22.08C238.555 22.464 238.039 22.656 237.415 22.656C236.779 22.656 236.263 22.464 235.843 22.08C235.423 21.696 235.219 21.204 235.219 20.616ZM236.227 20.616C236.227 21.3 236.779 21.804 237.415 21.804C238.075 21.804 238.591 21.324 238.591 20.616C238.591 19.908 238.051 19.428 237.415 19.428C236.755 19.428 236.227 19.908 236.227 20.616ZM240.991 26.472C240.571 26.088 240.367 25.596 240.367 24.996C240.367 24.396 240.571 23.904 240.991 23.52C241.411 23.148 241.927 22.956 242.563 22.956C243.187 22.956 243.703 23.148 244.123 23.52C244.543 23.904 244.747 24.396 244.747 24.996C244.747 25.584 244.543 26.076 244.123 26.46C243.703 26.856 243.187 27.048 242.563 27.048C241.927 27.048 241.411 26.856 240.991 26.472ZM241.375 24.996C241.375 25.68 241.927 26.184 242.563 26.184C243.223 26.184 243.739 25.704 243.739 24.996C243.739 24.288 243.199 23.808 242.563 23.808C241.903 23.808 241.375 24.288 241.375 24.996Z" fill="#7DA4C1"/>
<path d="M255.778 36.3536C255.973 36.1583 255.973 35.8417 255.778 35.6464L252.596 32.4645C252.401 32.2692 252.084 32.2692 251.889 32.4645C251.693 32.6597 251.693 32.9763 251.889 33.1716L254.717 36L251.889 38.8284C251.693 39.0237 251.693 39.3403 251.889 39.5355C252.084 39.7308 252.401 39.7308 252.596 39.5355L255.778 36.3536ZM205 36.5L255.424 36.5L255.424 35.5L205 35.5L205 36.5Z" fill="#7DA4C1"/>
<defs>
<linearGradient id="paint0_linear_7002_37667" x1="167" y1="36" x2="167" y2="148" gradientUnits="userSpaceOnUse">
<stop stop-color="#45B8DB"/>
<stop offset="1" stop-color="#ADE4E4"/>
</linearGradient>
<linearGradient id="paint1_linear_7002_37667" x1="167" y1="36" x2="167" y2="148" gradientUnits="userSpaceOnUse">
<stop stop-color="white" stop-opacity="0"/>
<stop offset="0.739583" stop-color="white"/>
</linearGradient>
<linearGradient id="paint2_linear_7002_37667" x1="145" y1="-182.4" x2="145" y2="148" gradientUnits="userSpaceOnUse">
<stop stop-color="white" stop-opacity="0.05"/>
<stop offset="0.75" stop-color="white" stop-opacity="0.8"/>
</linearGradient>
<linearGradient id="paint3_linear_7002_37667" x1="39" y1="20" x2="39" y2="148" gradientUnits="userSpaceOnUse">
<stop stop-color="#45B8DB"/>
<stop offset="1" stop-color="#ADE4E4"/>
</linearGradient>
<linearGradient id="paint4_linear_7002_37667" x1="39" y1="20" x2="39" y2="148" gradientUnits="userSpaceOnUse">
<stop stop-color="white" stop-opacity="0"/>
<stop offset="0.739583" stop-color="white"/>
</linearGradient>
<linearGradient id="paint5_linear_7002_37667" x1="17" y1="-229.6" x2="17" y2="148" gradientUnits="userSpaceOnUse">
<stop stop-color="white" stop-opacity="0.05"/>
<stop offset="0.75" stop-color="white" stop-opacity="0.8"/>
</linearGradient>
<linearGradient id="paint6_linear_7002_37667" x1="295" y1="38" x2="295" y2="148" gradientUnits="userSpaceOnUse">
<stop stop-color="#45B8DB"/>
<stop offset="1" stop-color="#ADE4E4"/>
</linearGradient>
<linearGradient id="paint7_linear_7002_37667" x1="295" y1="38" x2="295" y2="148" gradientUnits="userSpaceOnUse">
<stop stop-color="white" stop-opacity="0"/>
<stop offset="0.739583" stop-color="white"/>
</linearGradient>
<linearGradient id="paint8_linear_7002_37667" x1="273" y1="-176.5" x2="273" y2="148" gradientUnits="userSpaceOnUse">
<stop stop-color="white" stop-opacity="0.05"/>
<stop offset="0.75" stop-color="white" stop-opacity="0.8"/>
</linearGradient>
</defs>
</svg>
