<svg width="527" height="336" viewBox="0 0 527 336" fill="none" xmlns="http://www.w3.org/2000/svg">
<path d="M276.271 100.032C281.906 98.1835 287.668 96.7512 293.513 95.7471L295.971 110.057C290.828 110.941 285.757 112.201 280.799 113.829L276.271 100.032Z" fill="#184977"/>
<path d="M314 94C337.608 94 360.7 100.906 380.432 113.867C400.163 126.829 415.672 145.279 425.048 166.945C434.424 188.611 437.257 212.547 433.198 235.803C429.139 259.06 418.366 280.621 402.205 297.83C386.044 315.04 365.202 327.146 342.247 332.657C319.291 338.168 295.225 336.843 273.013 328.846C250.8 320.85 231.413 306.53 217.238 287.651C203.063 268.772 194.721 246.159 193.239 222.598L207.73 221.686C209.035 242.42 216.376 262.319 228.85 278.933C241.323 295.546 258.384 308.148 277.931 315.185C297.478 322.222 318.656 323.388 338.857 318.538C359.058 313.688 377.399 303.035 391.62 287.89C405.842 272.746 415.323 253.773 418.894 233.307C422.466 212.841 419.973 191.778 411.722 172.712C403.472 153.645 389.824 137.409 372.46 126.003C355.096 114.597 334.775 108.52 314 108.52V94Z" fill="url(#paint0_linear_5181_14759)"/>
<path d="M193.271 223.086C191.909 202.75 195.705 182.4 204.309 163.924L217.472 170.053C209.901 186.312 206.56 204.22 207.758 222.115L193.271 223.086Z" fill="url(#paint1_linear_5181_14759)"/>
<path d="M204.35 163.835C209.719 152.329 216.865 141.74 225.527 132.456L236.144 142.361C228.522 150.531 222.233 159.85 217.508 169.975L204.35 163.835Z" fill="#0085D0"/>
<path d="M225.565 132.415C234.231 123.135 244.304 115.277 255.414 109.129L262.444 121.834C252.668 127.244 243.804 134.159 236.177 142.325L225.565 132.415Z" fill="#5A96A8"/>
<path d="M293.604 95.7315C300.352 94.5774 307.187 93.9982 314.033 94.0001L314.029 108.52C308.004 108.518 301.99 109.028 296.051 110.044L293.604 95.7315Z" fill="#9DDDDC"/>
<path d="M276.271 100.032C278.68 99.2422 281.112 98.5278 283.565 97.8903L287.217 111.943C285.058 112.504 282.918 113.133 280.799 113.829L276.271 100.032Z" fill="url(#paint2_linear_5181_14759)"/>
<path d="M255.405 109.134C262.062 105.449 269.051 102.401 276.281 100.029L280.807 113.826C274.445 115.913 268.295 118.596 262.437 121.838L255.405 109.134Z" fill="#8BB6C2"/>
<path d="M287.113 223.152V226H267.625V223.44L276.873 218.096C278.686 217.051 280.03 216.208 280.905 215.568C281.78 214.907 282.366 214.299 282.665 213.744C282.985 213.189 283.145 212.528 283.145 211.76V211.44C283.145 210.203 282.622 209.253 281.577 208.592C280.553 207.931 279.07 207.6 277.129 207.6C275.124 207.6 273.598 207.952 272.553 208.656C271.529 209.36 271.017 210.384 271.017 211.728V212.368H267.817V211.696C267.817 209.413 268.617 207.664 270.217 206.448C271.817 205.232 274.1 204.624 277.065 204.624C279.966 204.624 282.238 205.221 283.881 206.416C285.524 207.611 286.345 209.253 286.345 211.344V211.664C286.345 212.795 286.121 213.787 285.673 214.64C285.225 215.493 284.446 216.357 283.337 217.232C282.249 218.107 280.649 219.152 278.537 220.368L273.673 223.152H287.113ZM301.381 226.384C299.248 226.384 297.36 226 295.717 225.232C294.096 224.464 292.827 223.387 291.909 222C291.013 220.613 290.565 219.024 290.565 217.232V213.808C290.565 211.995 291.013 210.395 291.909 209.008C292.827 207.621 294.096 206.544 295.717 205.776C297.36 205.008 299.248 204.624 301.381 204.624C303.493 204.624 305.36 205.008 306.981 205.776C308.603 206.544 309.861 207.621 310.757 209.008C311.653 210.395 312.101 211.995 312.101 213.808V217.232C312.101 219.045 311.653 220.645 310.757 222.032C309.861 223.397 308.603 224.464 306.981 225.232C305.36 226 303.493 226.384 301.381 226.384ZM301.381 223.408C303.728 223.408 305.573 222.864 306.917 221.776C308.261 220.688 308.933 219.184 308.933 217.264V213.776C308.933 211.877 308.251 210.373 306.885 209.264C305.541 208.155 303.696 207.6 301.349 207.6C298.981 207.6 297.115 208.155 295.749 209.264C294.405 210.352 293.733 211.856 293.733 213.776V217.264C293.733 219.184 294.405 220.688 295.749 221.776C297.115 222.864 298.992 223.408 301.381 223.408ZM335.506 223.152V226H316.018V223.44L325.266 218.096C327.079 217.051 328.423 216.208 329.298 215.568C330.172 214.907 330.759 214.299 331.058 213.744C331.378 213.189 331.538 212.528 331.538 211.76V211.44C331.538 210.203 331.015 209.253 329.97 208.592C328.946 207.931 327.463 207.6 325.522 207.6C323.516 207.6 321.991 207.952 320.946 208.656C319.922 209.36 319.41 210.384 319.41 211.728V212.368H316.21V211.696C316.21 209.413 317.01 207.664 318.61 206.448C320.21 205.232 322.492 204.624 325.458 204.624C328.359 204.624 330.631 205.221 332.274 206.416C333.916 207.611 334.738 209.253 334.738 211.344V211.664C334.738 212.795 334.514 213.787 334.066 214.64C333.618 215.493 332.839 216.357 331.73 217.232C330.642 218.107 329.042 219.152 326.93 220.368L322.066 223.152H335.506ZM350.478 213.328C353.315 213.413 355.48 213.979 356.974 215.024C358.488 216.048 359.246 217.477 359.246 219.312V219.728C359.246 221.883 358.382 223.536 356.654 224.688C354.926 225.819 352.408 226.384 349.102 226.384C345.88 226.363 343.384 225.797 341.614 224.688C339.864 223.579 338.99 222.011 338.99 219.984V219.76H342.158V219.984C342.158 221.051 342.776 221.893 344.014 222.512C345.251 223.109 346.958 223.408 349.134 223.408C351.416 223.408 353.144 223.109 354.318 222.512C355.491 221.893 356.078 220.987 356.078 219.792V219.408C356.078 217.168 353.795 216.048 349.23 216.048H345.774V213.232L353.678 207.856H339.374V205.008H358.734V207.856L350.478 213.328Z" fill="#1A3341"/>
<path d="M305.5 11.832H291C291 11.832 291 75.5068 291 86.832" stroke="#CEE0ED"/>
<path d="M96 42H280C280 42 280 78.5556 280 90" stroke="#CEE0ED"/>
<path d="M85 72H256C256 72 256 86.7688 256 99" stroke="#CEE0ED"/>
<path d="M136 110.284H232C232 110.284 232 107.72 232 118" stroke="#CEE0ED"/>
<path d="M96 156L201 156" stroke="#CEE0ED"/>
<path d="M136 202L188 202" stroke="#CEE0ED"/>
<path d="M388.5 72.832H308L308 89.332" stroke="#CEE0ED"/>
<path d="M309.602 10.932C309.602 9.42003 309.952 8.20203 310.666 7.29203C311.366 6.38203 312.402 5.92003 313.76 5.92003C316.546 5.92003 317.932 7.75403 317.932 10.932C317.932 12.458 317.582 13.662 316.896 14.572C316.196 15.482 315.16 15.944 313.788 15.944C312.472 15.944 311.45 15.482 310.708 14.558C309.966 13.634 309.602 12.43 309.602 10.932ZM310.89 10.932C310.89 13.326 311.982 14.754 313.788 14.754C315.692 14.754 316.644 13.48 316.644 10.932C316.644 8.38403 315.678 7.11003 313.76 7.11003C311.814 7.11003 310.89 8.51003 310.89 10.932ZM319.076 15.034C319.076 14.642 319.44 14.25 319.944 14.25C320.406 14.25 320.784 14.642 320.784 15.034C320.784 15.482 320.434 15.86 319.944 15.86C319.44 15.86 319.076 15.482 319.076 15.034ZM327.555 7.22203H321.619V6.03203H329.053V6.83003L324.181 15.832H322.851L327.555 7.22203ZM332.235 16.042L331.311 15.51L338.549 5.72403L339.431 6.36803L332.235 16.042ZM329.799 8.38403C329.799 7.68403 330.037 7.11003 330.527 6.66203C331.017 6.21403 331.619 5.99003 332.361 5.99003C333.089 5.99003 333.691 6.21403 334.181 6.66203C334.671 7.11003 334.909 7.68403 334.909 8.38403C334.909 9.07003 334.671 9.64403 334.181 10.092C333.691 10.54 333.089 10.764 332.361 10.764C331.619 10.764 331.017 10.54 330.527 10.092C330.037 9.64403 329.799 9.07003 329.799 8.38403ZM330.975 8.38403C330.975 9.18203 331.619 9.77003 332.361 9.77003C333.131 9.77003 333.733 9.21003 333.733 8.38403C333.733 7.55803 333.103 6.99803 332.361 6.99803C331.591 6.99803 330.975 7.55803 330.975 8.38403ZM336.533 15.216C336.043 14.768 335.805 14.194 335.805 13.494C335.805 12.794 336.043 12.22 336.533 11.772C337.023 11.338 337.625 11.114 338.367 11.114C339.095 11.114 339.697 11.338 340.187 11.772C340.677 12.22 340.915 12.794 340.915 13.494C340.915 14.18 340.677 14.754 340.187 15.202C339.697 15.664 339.095 15.888 338.367 15.888C337.625 15.888 337.023 15.664 336.533 15.216ZM336.981 13.494C336.981 14.292 337.625 14.88 338.367 14.88C339.137 14.88 339.739 14.32 339.739 13.494C339.739 12.668 339.109 12.108 338.367 12.108C337.597 12.108 336.981 12.668 336.981 13.494Z" fill="#1A3341"/>
<path d="M348.973 8.06803V7.34803H346.189V6.61603H348.973V5.80003H349.849V6.61603H352.969V5.80003H353.845V6.61603H356.677V7.34803H353.845V8.00803H352.969V7.34803H349.849V8.06803H348.973ZM348.229 13.168H350.953V12.436H348.229V13.168ZM348.229 11.224V11.932H350.953V11.224H348.229ZM354.637 11.224H351.829V11.932H354.637V11.224ZM354.637 13.168V12.436H351.829V13.168H354.637ZM351.829 15.7H356.761V16.372H346.117V15.7H350.953V14.968H347.017V14.344H350.953V13.708H347.389V10.672H350.953V10.096H346.201V9.44803H350.953V8.80003C349.669 8.86003 348.361 8.89603 347.125 8.89603C347.113 8.72803 347.041 8.46403 346.981 8.30803C349.825 8.28403 353.233 8.12803 355.117 7.88803L355.681 8.45203C354.601 8.59603 353.257 8.69203 351.829 8.76403V9.44803H356.689V10.096H351.829V10.672H355.513V13.708H351.829V14.344H355.897V14.968H351.829V15.7ZM366.601 14.248V13.348H363.721V14.248H366.601ZM363.721 11.8V12.64H366.601V11.8H363.721ZM360.253 9.67603H362.833V8.81203H360.253V9.67603ZM366.409 8.81203H363.721V9.67603H366.409V8.81203ZM368.725 12.64V13.348H367.489V15.472H366.601V14.932H363.721V15.76C363.721 16.312 363.553 16.516 363.193 16.648C362.821 16.78 362.197 16.792 361.201 16.792C361.153 16.564 361.009 16.24 360.889 16.036C361.609 16.06 362.329 16.048 362.533 16.048C362.761 16.036 362.833 15.964 362.833 15.76V14.932H358.957V14.248H362.833V13.348H357.925V12.64H362.833V11.8H359.065V11.14H362.833V10.3H359.401V8.18803H362.833V7.49203H358.153V6.76003H362.833V5.80003H363.721V6.76003H368.497V7.49203H363.721V8.18803H367.297V10.3H363.721V11.14H367.489V12.64H368.725ZM370.309 12.652V11.788H380.161V12.652H374.929C374.185 13.636 373.345 14.596 372.481 15.376L377.929 14.968C377.497 14.464 376.993 13.948 376.537 13.528L377.293 13.12C378.361 14.08 379.489 15.352 380.017 16.252L379.225 16.744C379.057 16.456 378.817 16.108 378.553 15.748C372.229 16.276 371.557 16.324 371.113 16.492C371.053 16.3 370.909 15.832 370.813 15.568C371.065 15.52 371.341 15.292 371.701 14.944C372.037 14.668 372.937 13.72 373.717 12.652H370.309ZM375.241 5.80003L376.093 6.17203C375.973 6.32803 375.853 6.49603 375.745 6.65203C376.837 7.76803 378.781 9.08803 380.713 9.74803C380.509 9.92803 380.233 10.288 380.089 10.54C378.229 9.78403 376.357 8.41603 375.229 7.25203C374.485 8.06803 373.561 8.83603 372.529 9.49603H378.073V10.324H372.373V9.59203C371.749 9.98803 371.089 10.348 370.393 10.66C370.261 10.432 369.949 10.072 369.745 9.89203C372.073 8.90803 374.173 7.40803 375.241 5.80003ZM384.937 7.15603V9.31603H387.025V10.144H384.937V10.456C385.393 10.936 386.641 12.4 386.941 12.772L386.401 13.504C386.125 13.048 385.453 12.148 384.937 11.476V16.72H384.061V11.44C383.473 12.832 382.693 14.188 381.925 15.016C381.817 14.776 381.589 14.416 381.421 14.2C382.333 13.288 383.293 11.644 383.833 10.144H381.721V9.31603H384.061V7.32403C383.389 7.43203 382.717 7.52803 382.081 7.61203C382.033 7.39603 381.937 7.10803 381.829 6.90403C383.413 6.68803 385.285 6.32803 386.341 5.90803L386.941 6.60403C386.389 6.80803 385.681 7.00003 384.937 7.15603ZM388.309 14.368H390.985V7.75603H388.309V14.368ZM387.433 6.90403H391.873V16.132H390.985V15.232H388.309V16.216H387.433V6.90403ZM402.301 10.264H399.397V11.572H402.301V10.264ZM399.397 13.696H402.301V12.328H399.397V13.696ZM395.581 13.696H398.485V12.328H395.581V13.696ZM398.485 10.264H395.581V11.572H398.485V10.264ZM399.397 8.32003V9.47203H403.177V15.112H402.301V14.488H399.397V16.732H398.485V14.488H395.581V15.16H394.729V9.47203H398.485V8.32003H399.397ZM399.481 7.07203H403.909V9.02803H402.997V7.93603H394.873V9.02803H393.997V7.07203H398.653C398.509 6.73603 398.305 6.29203 398.113 5.96803L399.013 5.70403C399.253 6.12403 399.541 6.67603 399.673 7.01203L399.481 7.07203ZM408.997 7.79203L408.397 8.45203C408.001 7.93603 407.173 7.13203 406.513 6.58003L407.089 6.00403C407.749 6.53203 408.589 7.30003 408.997 7.79203ZM408.217 14.632L409.681 13.648C409.741 13.876 409.897 14.248 409.969 14.428C407.737 16.012 407.401 16.276 407.209 16.528C407.125 16.288 406.897 15.904 406.741 15.712C406.969 15.556 407.317 15.22 407.317 14.716V10.42H405.433V9.54403H408.217V14.632ZM416.305 9.76003V10.66H413.269V16.756H412.345V10.66H409.297V9.76003H412.345V5.83603H413.269V9.76003H416.305ZM424.645 13.06H421.333C421.057 13.42 420.781 13.78 420.505 14.068C421.393 14.26 422.281 14.452 423.133 14.656C423.793 14.248 424.285 13.72 424.645 13.06ZM423.133 11.392H422.449C422.281 11.68 422.089 11.98 421.897 12.28H428.125V13.06H425.629C425.293 13.816 424.813 14.428 424.201 14.932C425.665 15.304 426.985 15.688 427.993 16.048L427.177 16.696C426.193 16.324 424.861 15.892 423.325 15.496C421.993 16.204 420.193 16.576 417.841 16.768C417.781 16.504 417.637 16.18 417.481 15.964C419.389 15.856 420.889 15.628 422.065 15.172C421.105 14.944 420.085 14.716 419.029 14.512C419.425 14.104 419.857 13.6 420.265 13.06H417.313V12.28H420.841C421.141 11.86 421.405 11.428 421.621 11.02L422.257 11.188V9.05203C421.141 10.24 419.341 11.26 417.745 11.764C417.613 11.56 417.361 11.236 417.193 11.068C418.597 10.684 420.157 9.90403 421.213 9.01603H417.445V8.24803H422.257V7.04803C420.985 7.14403 419.665 7.20403 418.465 7.24003C418.453 7.03603 418.357 6.72403 418.273 6.53203C421.009 6.46003 424.357 6.22003 426.121 5.81203L426.781 6.44803C425.773 6.67603 424.501 6.85603 423.133 6.97603V8.24803H427.981V9.01603H424.213C425.257 9.85603 426.817 10.588 428.221 10.936C428.041 11.128 427.777 11.464 427.657 11.68C426.049 11.2 424.261 10.204 423.133 9.05203V11.392ZM431.821 7.10803V8.46403H437.401V7.10803H431.821ZM430.909 6.32803H438.349V9.25603H430.909V6.32803ZM434.065 11.896H435.001V13.012C435.001 14.26 434.461 15.796 430.021 16.792C429.913 16.6 429.637 16.24 429.433 16.06C433.729 15.208 434.065 13.936 434.065 12.988V11.896ZM434.929 15.016L435.373 14.368C436.789 14.836 438.745 15.544 439.789 16.048L439.321 16.792C438.337 16.288 436.393 15.52 434.929 15.016ZM430.489 10.3H438.829V14.608H437.881V11.14H431.389V14.692H430.489V10.3ZM441.589 12.652V11.788H451.441V12.652H446.209C445.465 13.636 444.625 14.596 443.761 15.376L449.209 14.968C448.777 14.464 448.273 13.948 447.817 13.528L448.573 13.12C449.641 14.08 450.769 15.352 451.297 16.252L450.505 16.744C450.337 16.456 450.097 16.108 449.833 15.748C443.509 16.276 442.837 16.324 442.393 16.492C442.333 16.3 442.189 15.832 442.093 15.568C442.345 15.52 442.621 15.292 442.981 14.944C443.317 14.668 444.217 13.72 444.997 12.652H441.589ZM446.521 5.80003L447.373 6.17203C447.253 6.32803 447.133 6.49603 447.025 6.65203C448.117 7.76803 450.061 9.08803 451.993 9.74803C451.789 9.92803 451.513 10.288 451.369 10.54C449.509 9.78403 447.637 8.41603 446.509 7.25203C445.765 8.06803 444.841 8.83603 443.809 9.49603H449.353V10.324H443.653V9.59203C443.029 9.98803 442.369 10.348 441.673 10.66C441.541 10.432 441.229 10.072 441.025 9.89203C443.353 8.90803 445.453 7.40803 446.521 5.80003ZM456.769 11.02V8.51203H454.249V11.02H456.769ZM454.249 14.692H456.769V11.812H454.249V14.692ZM455.257 5.76403L456.217 5.94403C456.013 6.53203 455.797 7.19203 455.593 7.70803H457.585V15.496H454.249V16.444H453.433V7.70803H454.777C454.957 7.13203 455.173 6.32803 455.257 5.76403ZM463.453 7.67203V8.12803C463.261 13.6 463.105 15.448 462.625 16.036C462.361 16.372 462.085 16.48 461.677 16.516C461.257 16.564 460.573 16.54 459.901 16.504C459.877 16.24 459.769 15.88 459.601 15.628C460.381 15.7 461.101 15.7 461.377 15.7C461.617 15.7 461.749 15.676 461.869 15.52C462.265 15.1 462.445 13.276 462.601 8.50003H459.553C459.217 9.30403 458.845 10.036 458.425 10.6C458.269 10.456 457.885 10.216 457.693 10.096C458.497 9.04003 459.145 7.38403 459.529 5.74003L460.381 5.94403C460.237 6.53203 460.069 7.10803 459.865 7.67203H463.453ZM461.557 13.072L460.801 13.54C460.441 12.82 459.637 11.632 458.977 10.768L459.673 10.36C460.345 11.212 461.173 12.364 461.557 13.072ZM468.097 7.18003L467.581 7.90003C467.089 7.55203 466.093 6.97603 465.361 6.58003L465.853 5.94403C466.585 6.29203 467.593 6.84403 468.097 7.18003ZM467.485 10.42L466.981 11.152C466.489 10.816 465.505 10.24 464.773 9.85603L465.265 9.20803C465.961 9.55603 466.957 10.084 467.485 10.42ZM465.805 16.588L465.061 15.988C465.709 15.088 466.633 13.504 467.329 12.148L467.977 12.736C467.353 13.996 466.513 15.484 465.805 16.588ZM474.037 15.412V12.94H469.777V15.412H474.037ZM475.669 10.144H472.381V12.112H474.889V16.684H474.037V16.24H469.777V16.744H468.949V12.112H471.529V10.144H468.073V9.28003H471.529V7.33603C470.653 7.46803 469.753 7.57603 468.901 7.66003C468.853 7.44403 468.733 7.10803 468.649 6.90403C470.713 6.68803 473.125 6.31603 474.457 5.83603L475.153 6.53203C474.373 6.79603 473.413 7.02403 472.381 7.20403V9.28003H475.669V10.144ZM481.837 6.77203V7.57603H477.229V6.77203H481.837ZM482.257 14.776L481.465 15.028C481.405 14.812 481.333 14.536 481.249 14.236C477.937 14.98 477.505 15.112 477.229 15.28V15.232C477.217 15.244 477.217 15.256 477.217 15.268C477.181 15.088 477.037 14.668 476.941 14.44C477.133 14.392 477.289 14.068 477.481 13.624C477.649 13.228 478.153 11.824 478.453 10.432H476.797V9.61603H482.041V10.432H479.377C479.065 11.692 478.621 13.012 478.153 14.092L480.997 13.492C480.781 12.88 480.541 12.232 480.301 11.668L481.045 11.464C481.501 12.532 482.029 13.936 482.257 14.776ZM484.777 8.54803H487.417C487.417 8.54803 487.405 8.87203 487.405 8.99203C487.249 13.9 487.105 15.592 486.697 16.12C486.445 16.432 486.217 16.528 485.833 16.576C485.461 16.612 484.813 16.6 484.177 16.564C484.153 16.3 484.057 15.94 483.901 15.688C484.573 15.748 485.197 15.748 485.461 15.748C485.665 15.76 485.797 15.724 485.917 15.568C486.229 15.22 486.397 13.648 486.529 9.40003H484.741C484.573 12.352 484.069 15.064 482.317 16.744C482.161 16.528 481.849 16.228 481.621 16.096C483.241 14.608 483.721 12.124 483.865 9.40003H482.197V8.54803H483.901C483.937 7.70803 483.937 6.84403 483.937 5.99203H484.813C484.813 6.84403 484.801 7.70803 484.777 8.54803ZM490.369 9.60403H492.037C492.169 9.31603 492.229 9.01603 492.253 8.70403H490.525C490.477 9.01603 490.417 9.31603 490.369 9.60403ZM493.093 7.20403V8.05603H494.989V7.20403H493.093ZM497.617 7.20403H495.841V8.05603H497.617V7.20403ZM494.989 9.60403V8.70403H493.081C493.057 9.01603 493.009 9.31603 492.925 9.60403H494.989ZM490.261 15.1V11.944C489.949 12.064 489.577 12.172 489.181 12.256C489.097 12.064 488.881 11.728 488.737 11.572C490.225 11.224 491.101 10.768 491.605 10.24H489.445C489.565 9.65203 489.709 8.77603 489.793 8.06803H490.129V8.05603H492.277V7.20403H489.325V6.55603H492.277V5.80003H493.093V6.55603H494.989V5.80003H495.841V6.55603H498.433V8.70403H495.841V9.60403H499.141C499.141 9.60403 499.129 9.78403 499.129 9.90403C499.045 10.672 498.949 11.068 498.781 11.248C498.625 11.404 498.445 11.464 498.193 11.464C497.989 11.488 497.569 11.476 497.149 11.452C497.137 11.284 497.053 11.02 496.969 10.84C497.353 10.888 497.677 10.888 497.809 10.888C497.941 10.888 498.025 10.876 498.097 10.816C498.157 10.744 498.205 10.576 498.253 10.24H495.841V11.488H494.989V10.24H492.649C492.313 10.828 491.725 11.356 490.681 11.776H497.809V15.016H496.921V12.532H491.113V15.1H490.261ZM493.681 13.024H494.569C494.125 15.22 492.913 16.276 488.929 16.756C488.869 16.54 488.701 16.192 488.557 16C492.301 15.628 493.297 14.812 493.681 13.024ZM494.245 15.112L494.713 14.512C496.189 14.896 498.217 15.556 499.285 16.048L498.793 16.756C497.785 16.264 495.769 15.544 494.245 15.112ZM506.377 12.244H509.605V10.252H506.377V12.244ZM502.573 12.244H505.489V10.252H502.621V10.96C502.621 11.356 502.609 11.8 502.573 12.244ZM505.489 7.49203H502.621V9.41203H505.489V7.49203ZM509.605 9.41203V7.49203H506.377V9.41203H509.605ZM510.481 6.64003V15.544C510.481 16.12 510.325 16.384 509.941 16.54C509.533 16.684 508.837 16.696 507.709 16.684C507.673 16.444 507.529 16.06 507.409 15.82C508.249 15.856 509.065 15.844 509.281 15.844C509.521 15.832 509.605 15.76 509.605 15.532V13.096H506.377V16.636H505.489V13.096H502.489C502.309 14.428 501.901 15.796 500.989 16.816C500.857 16.636 500.497 16.336 500.305 16.228C501.625 14.74 501.745 12.628 501.745 10.96V6.64003H510.481Z" fill="#76848D"/>
<path d="M0.49 37.636L0.042 36.586L3.402 34.976H4.2V44.832H2.996V36.474L0.49 37.636ZM6.08344 44.034C6.08344 43.642 6.44744 43.25 6.95144 43.25C7.41344 43.25 7.79144 43.642 7.79144 44.034C7.79144 44.482 7.44144 44.86 6.95144 44.86C6.44744 44.86 6.08344 44.482 6.08344 44.034ZM8.94895 39.932C8.94895 38.42 9.29895 37.202 10.013 36.292C10.713 35.382 11.749 34.92 13.107 34.92C15.893 34.92 17.279 36.754 17.279 39.932C17.279 41.458 16.929 42.662 16.243 43.572C15.543 44.482 14.507 44.944 13.135 44.944C11.819 44.944 10.797 44.482 10.055 43.558C9.31295 42.634 8.94895 41.43 8.94895 39.932ZM10.237 39.932C10.237 42.326 11.329 43.754 13.135 43.754C15.039 43.754 15.991 42.48 15.991 39.932C15.991 37.384 15.025 36.11 13.107 36.11C11.161 36.11 10.237 37.51 10.237 39.932ZM20.7606 45.042L19.8366 44.51L27.0746 34.724L27.9566 35.368L20.7606 45.042ZM18.3246 37.384C18.3246 36.684 18.5626 36.11 19.0526 35.662C19.5426 35.214 20.1446 34.99 20.8866 34.99C21.6146 34.99 22.2166 35.214 22.7066 35.662C23.1966 36.11 23.4346 36.684 23.4346 37.384C23.4346 38.07 23.1966 38.644 22.7066 39.092C22.2166 39.54 21.6146 39.764 20.8866 39.764C20.1446 39.764 19.5426 39.54 19.0526 39.092C18.5626 38.644 18.3246 38.07 18.3246 37.384ZM19.5006 37.384C19.5006 38.182 20.1446 38.77 20.8866 38.77C21.6566 38.77 22.2586 38.21 22.2586 37.384C22.2586 36.558 21.6286 35.998 20.8866 35.998C20.1166 35.998 19.5006 36.558 19.5006 37.384ZM25.0586 44.216C24.5686 43.768 24.3306 43.194 24.3306 42.494C24.3306 41.794 24.5686 41.22 25.0586 40.772C25.5486 40.338 26.1506 40.114 26.8926 40.114C27.6206 40.114 28.2226 40.338 28.7126 40.772C29.2026 41.22 29.4406 41.794 29.4406 42.494C29.4406 43.18 29.2026 43.754 28.7126 44.202C28.2226 44.664 27.6206 44.888 26.8926 44.888C26.1506 44.888 25.5486 44.664 25.0586 44.216ZM25.5066 42.494C25.5066 43.292 26.1506 43.88 26.8926 43.88C27.6626 43.88 28.2646 43.32 28.2646 42.494C28.2646 41.668 27.6346 41.108 26.8926 41.108C26.1226 41.108 25.5066 41.668 25.5066 42.494Z" fill="#1A3341"/>
<path d="M37.7982 36.336L37.3182 37.044C36.8502 36.648 35.8782 36.144 35.0862 35.844L35.5302 35.208C36.3102 35.472 37.2942 35.952 37.7982 36.336ZM37.9422 38.256L38.0862 38.976C37.0062 39.504 35.8662 40.044 34.9542 40.44L34.6062 39.588C35.4222 39.3 36.7062 38.772 37.9422 38.256ZM42.8982 42.324H37.1502V44.472H42.8982V42.324ZM36.2382 45.876V41.52H43.8462V45.828H42.8982V45.276H37.1502V45.876H36.2382ZM43.9662 36.9H41.9742C41.9382 37.152 41.8902 37.392 41.8302 37.632C42.2982 39.168 43.3782 40.104 45.3102 40.416C45.1182 40.596 44.8902 40.932 44.7822 41.172C43.1262 40.8 42.0702 40.008 41.4702 38.7C40.9302 39.864 39.9462 40.716 38.0262 41.244C37.9422 41.04 37.7142 40.692 37.5222 40.524C40.1022 39.888 40.7982 38.64 41.0742 36.9H39.7062C39.3942 37.5 39.0462 38.04 38.6622 38.46C38.4942 38.328 38.1102 38.088 37.8942 37.98C38.6622 37.2 39.2622 36.012 39.5982 34.776L40.4622 34.968C40.3542 35.352 40.2222 35.736 40.0782 36.096H44.3142L44.4582 36.06L45.0702 36.24C44.7702 37.056 44.4222 37.968 44.1102 38.544L43.3782 38.328C43.5702 37.956 43.7742 37.428 43.9662 36.9ZM49.6422 36.792L48.9942 37.392C48.6582 36.9 47.9382 36.12 47.3622 35.568L47.9622 35.052C48.5622 35.58 49.3062 36.3 49.6422 36.792ZM49.0542 43.428L50.3022 42.54C50.3622 42.768 50.5182 43.116 50.5902 43.272C48.5742 44.784 48.2502 45.036 48.0822 45.276C47.9982 45.06 47.7702 44.688 47.6142 44.508C47.8302 44.376 48.1902 44.016 48.1902 43.488V39.396H46.5102V38.532H49.0542V43.428ZM53.9982 39.312H51.9462V40.596H53.9982V39.312ZM51.9462 42.612H53.9982V41.316H51.9462V42.612ZM54.8022 43.344H51.9462V44.076H51.1182V38.58H54.8022V43.344ZM52.2942 36.576H57.2142C57.2142 36.576 57.2142 36.924 57.2022 37.056C57.0102 42.708 56.8422 44.604 56.3742 45.192C56.1102 45.54 55.8582 45.648 55.4382 45.684C55.0542 45.732 54.3822 45.72 53.7342 45.684C53.7102 45.42 53.6022 45.06 53.4462 44.808C54.1662 44.868 54.8142 44.88 55.1022 44.88C55.3182 44.88 55.4502 44.844 55.5822 44.676C55.9662 44.256 56.1702 42.384 56.3262 37.404H51.8622C51.4422 38.16 50.9622 38.832 50.4822 39.36C50.3142 39.204 49.9422 38.916 49.7142 38.772C50.6862 37.812 51.5262 36.3 52.0422 34.788L52.9422 35.028C52.7502 35.556 52.5342 36.072 52.2942 36.576ZM60.3342 38.604H62.0022C62.1342 38.316 62.1942 38.016 62.2182 37.704H60.4902C60.4422 38.016 60.3822 38.316 60.3342 38.604ZM63.0582 36.204V37.056H64.9542V36.204H63.0582ZM67.5822 36.204H65.8062V37.056H67.5822V36.204ZM64.9542 38.604V37.704H63.0462C63.0222 38.016 62.9742 38.316 62.8902 38.604H64.9542ZM60.2262 44.1V40.944C59.9142 41.064 59.5422 41.172 59.1462 41.256C59.0622 41.064 58.8462 40.728 58.7022 40.572C60.1902 40.224 61.0662 39.768 61.5702 39.24H59.4102C59.5302 38.652 59.6742 37.776 59.7582 37.068H60.0942V37.056H62.2422V36.204H59.2902V35.556H62.2422V34.8H63.0582V35.556H64.9542V34.8H65.8062V35.556H68.3982V37.704H65.8062V38.604H69.1062C69.1062 38.604 69.0942 38.784 69.0942 38.904C69.0102 39.672 68.9142 40.068 68.7462 40.248C68.5902 40.404 68.4102 40.464 68.1582 40.464C67.9542 40.488 67.5342 40.476 67.1142 40.452C67.1022 40.284 67.0182 40.02 66.9342 39.84C67.3182 39.888 67.6422 39.888 67.7742 39.888C67.9062 39.888 67.9902 39.876 68.0622 39.816C68.1222 39.744 68.1702 39.576 68.2182 39.24H65.8062V40.488H64.9542V39.24H62.6142C62.2782 39.828 61.6902 40.356 60.6462 40.776H67.7742V44.016H66.8862V41.532H61.0782V44.1H60.2262ZM63.6462 42.024H64.5342C64.0902 44.22 62.8782 45.276 58.8942 45.756C58.8342 45.54 58.6662 45.192 58.5222 45C62.2662 44.628 63.2622 43.812 63.6462 42.024ZM64.2102 44.112L64.6782 43.512C66.1542 43.896 68.1822 44.556 69.2502 45.048L68.7582 45.756C67.7502 45.264 65.7342 44.544 64.2102 44.112ZM76.4622 41.244H79.6902V39.252H76.4622V41.244ZM72.6582 41.244H75.5742V39.252H72.7062V39.96C72.7062 40.356 72.6942 40.8 72.6582 41.244ZM75.5742 36.492H72.7062V38.412H75.5742V36.492ZM79.6902 38.412V36.492H76.4622V38.412H79.6902ZM80.5662 35.64V44.544C80.5662 45.12 80.4102 45.384 80.0262 45.54C79.6182 45.684 78.9222 45.696 77.7942 45.684C77.7582 45.444 77.6142 45.06 77.4942 44.82C78.3342 44.856 79.1502 44.844 79.3662 44.844C79.6062 44.832 79.6902 44.76 79.6902 44.532V42.096H76.4622V45.636H75.5742V42.096H72.5742C72.3942 43.428 71.9862 44.796 71.0742 45.816C70.9422 45.636 70.5822 45.336 70.3902 45.228C71.7102 43.74 71.8302 41.628 71.8302 39.96V35.64H80.5662Z" fill="#76848D"/>
<path d="M1.568 69.888L0.518 69.412C1.036 67.9 2.394 66.906 4.424 66.906C5.39 66.906 6.188 67.13 6.804 67.578C7.42 68.026 7.728 68.628 7.728 69.37C7.728 70.504 7.126 71.344 6.006 71.666C7.084 71.736 7.952 72.548 7.952 74.004C7.952 74.928 7.616 75.656 6.944 76.174C6.272 76.692 5.418 76.958 4.368 76.958C2.226 76.958 0.742 75.936 0.252 74.326L1.386 73.836C1.988 75.11 3.01 75.754 4.452 75.754C5.81 75.754 6.664 75.124 6.664 74.018C6.664 72.94 5.824 72.394 4.144 72.394H3.052V71.232H3.92C5.446 71.232 6.44 70.546 6.44 69.608C6.44 68.642 5.642 68.096 4.368 68.096C2.87 68.096 1.96 68.866 1.568 69.888ZM9.20062 76.034C9.20062 75.642 9.56462 75.25 10.0686 75.25C10.5306 75.25 10.9086 75.642 10.9086 76.034C10.9086 76.482 10.5586 76.86 10.0686 76.86C9.56462 76.86 9.20062 76.482 9.20062 76.034ZM12.0661 71.932C12.0661 70.42 12.4161 69.202 13.1301 68.292C13.8301 67.382 14.8661 66.92 16.2241 66.92C19.0101 66.92 20.3961 68.754 20.3961 71.932C20.3961 73.458 20.0461 74.662 19.3601 75.572C18.6601 76.482 17.6241 76.944 16.2521 76.944C14.9361 76.944 13.9141 76.482 13.1721 75.558C12.4301 74.634 12.0661 73.43 12.0661 71.932ZM13.3541 71.932C13.3541 74.326 14.4461 75.754 16.2521 75.754C18.1561 75.754 19.1081 74.48 19.1081 71.932C19.1081 69.384 18.1421 68.11 16.2241 68.11C14.2781 68.11 13.3541 69.51 13.3541 71.932ZM23.8778 77.042L22.9538 76.51L30.1918 66.724L31.0738 67.368L23.8778 77.042ZM21.4418 69.384C21.4418 68.684 21.6798 68.11 22.1698 67.662C22.6598 67.214 23.2618 66.99 24.0038 66.99C24.7318 66.99 25.3338 67.214 25.8238 67.662C26.3138 68.11 26.5518 68.684 26.5518 69.384C26.5518 70.07 26.3138 70.644 25.8238 71.092C25.3338 71.54 24.7318 71.764 24.0038 71.764C23.2618 71.764 22.6598 71.54 22.1698 71.092C21.6798 70.644 21.4418 70.07 21.4418 69.384ZM22.6178 69.384C22.6178 70.182 23.2618 70.77 24.0038 70.77C24.7738 70.77 25.3758 70.21 25.3758 69.384C25.3758 68.558 24.7458 67.998 24.0038 67.998C23.2338 67.998 22.6178 68.558 22.6178 69.384ZM28.1758 76.216C27.6858 75.768 27.4478 75.194 27.4478 74.494C27.4478 73.794 27.6858 73.22 28.1758 72.772C28.6658 72.338 29.2678 72.114 30.0098 72.114C30.7378 72.114 31.3398 72.338 31.8298 72.772C32.3198 73.22 32.5578 73.794 32.5578 74.494C32.5578 75.18 32.3198 75.754 31.8298 76.202C31.3398 76.664 30.7378 76.888 30.0098 76.888C29.2678 76.888 28.6658 76.664 28.1758 76.216ZM28.6238 74.494C28.6238 75.292 29.2678 75.88 30.0098 75.88C30.7798 75.88 31.3818 75.32 31.3818 74.494C31.3818 73.668 30.7518 73.108 30.0098 73.108C29.2398 73.108 28.6238 73.668 28.6238 74.494Z" fill="#1A3341"/>
<path d="M48.3194 72.908H42.0554C41.8874 73.244 41.7194 73.568 41.5154 73.868H47.4074V74.696H44.6474V76.4H48.2714V77.24H39.7634V76.4H43.7354V74.696H41.3354V74.144C40.5314 75.308 39.5234 76.244 38.2274 76.976C38.1194 76.784 37.7834 76.4 37.5794 76.22C39.1274 75.44 40.2434 74.336 41.0474 72.908H37.8434V72.068H41.4674C41.6234 71.732 41.7434 71.372 41.8754 71.012H38.9474V70.208H42.1154C42.2114 69.884 42.2834 69.536 42.3554 69.188H38.3714V68.36H40.7474C40.5434 67.964 40.2554 67.496 39.9554 67.136L40.7234 66.824C41.1314 67.28 41.5274 67.904 41.7194 68.36H44.4674C44.7914 67.904 45.1634 67.232 45.3794 66.776L46.3394 67.064C46.0634 67.496 45.7394 67.976 45.4514 68.36H47.8634V69.188H43.3154C43.2314 69.536 43.1474 69.884 43.0514 70.208H47.2754V71.012H42.8234C42.7034 71.372 42.5714 71.732 42.4394 72.068H48.3194V72.908ZM52.6994 68.408L51.9074 68.696C51.7874 68.252 51.4994 67.568 51.2594 67.052L52.0154 66.788C52.2914 67.304 52.5794 67.964 52.6994 68.408ZM51.7154 71.168H53.8994C53.8994 71.168 53.8994 71.444 53.8874 71.576C53.7914 75.5 53.6954 76.808 53.4074 77.216C53.2274 77.468 53.0114 77.564 52.7234 77.588C52.4594 77.624 52.0394 77.624 51.6074 77.6C51.5954 77.36 51.5114 77.024 51.3794 76.808C51.8234 76.844 52.1954 76.856 52.3634 76.856C52.5194 76.856 52.6034 76.832 52.6994 76.688C52.8794 76.424 52.9874 75.26 53.0714 71.984H51.7154C51.6674 73.844 51.3674 75.92 50.0114 77.72C49.8794 77.552 49.5794 77.336 49.3754 77.216C50.7434 75.368 50.8994 73.184 50.8994 71.444V69.62H49.6154V68.78H54.2474V69.62H51.7154V71.168ZM60.2714 69.2H55.7714C55.4354 69.884 55.0274 70.496 54.6074 70.976C54.4514 70.844 54.1034 70.568 53.8994 70.436C54.7514 69.56 55.3994 68.204 55.7474 66.788L56.6114 66.944C56.4794 67.448 56.3114 67.928 56.1314 68.384H60.2714V69.2ZM59.6354 71.624L60.2834 72.176C59.7314 72.716 59.0114 73.304 58.4114 73.724C58.8674 75.092 59.5274 76.208 60.4394 76.844C60.2354 77 59.9594 77.324 59.8274 77.564C58.2314 76.364 57.4274 73.976 57.0194 71.132C56.6594 71.228 56.2874 71.312 55.9274 71.396V76.292L57.7274 75.5C57.7394 75.74 57.7994 76.1 57.8594 76.292C55.6634 77.312 55.3274 77.468 55.1234 77.672C55.0394 77.48 54.7994 77.144 54.6674 77C54.8354 76.856 55.0754 76.568 55.0754 76.016V70.844C56.6114 70.52 58.3514 70.028 59.3234 69.548L60.0434 70.172C59.3954 70.448 58.6034 70.712 57.7754 70.94C57.8834 71.636 58.0034 72.32 58.1834 72.968C58.6994 72.548 59.2634 72.044 59.6354 71.624ZM63.2114 70.604H64.8794C65.0114 70.316 65.0714 70.016 65.0954 69.704H63.3674C63.3194 70.016 63.2594 70.316 63.2114 70.604ZM65.9354 68.204V69.056H67.8314V68.204H65.9354ZM70.4594 68.204H68.6834V69.056H70.4594V68.204ZM67.8314 70.604V69.704H65.9234C65.8994 70.016 65.8514 70.316 65.7674 70.604H67.8314ZM63.1034 76.1V72.944C62.7914 73.064 62.4194 73.172 62.0234 73.256C61.9394 73.064 61.7234 72.728 61.5794 72.572C63.0674 72.224 63.9434 71.768 64.4474 71.24H62.2874C62.4074 70.652 62.5514 69.776 62.6354 69.068H62.9714V69.056H65.1194V68.204H62.1674V67.556H65.1194V66.8H65.9354V67.556H67.8314V66.8H68.6834V67.556H71.2754V69.704H68.6834V70.604H71.9834C71.9834 70.604 71.9714 70.784 71.9714 70.904C71.8874 71.672 71.7914 72.068 71.6234 72.248C71.4674 72.404 71.2874 72.464 71.0354 72.464C70.8314 72.488 70.4114 72.476 69.9914 72.452C69.9794 72.284 69.8954 72.02 69.8114 71.84C70.1954 71.888 70.5194 71.888 70.6514 71.888C70.7834 71.888 70.8674 71.876 70.9394 71.816C70.9994 71.744 71.0474 71.576 71.0954 71.24H68.6834V72.488H67.8314V71.24H65.4914C65.1554 71.828 64.5674 72.356 63.5234 72.776H70.6514V76.016H69.7634V73.532H63.9554V76.1H63.1034ZM66.5234 74.024H67.4114C66.9674 76.22 65.7554 77.276 61.7714 77.756C61.7114 77.54 61.5434 77.192 61.3994 77C65.1434 76.628 66.1394 75.812 66.5234 74.024ZM67.0874 76.112L67.5554 75.512C69.0314 75.896 71.0594 76.556 72.1274 77.048L71.6354 77.756C70.6274 77.264 68.6114 76.544 67.0874 76.112Z" fill="#76848D"/>
<path d="M2.03 106.492L1.022 106.226L1.596 101.2H7.756V102.39H2.674L2.31 105.022C2.8 104.658 3.542 104.476 4.536 104.476C5.684 104.476 6.58 104.784 7.238 105.386C7.882 106.002 8.204 106.786 8.204 107.752C8.204 108.718 7.84 109.53 7.126 110.16C6.398 110.804 5.488 111.126 4.41 111.126C2.576 111.126 1.05 110.258 0.42 108.732L1.54 108.256C1.946 109.194 2.996 109.936 4.41 109.936C6.02 109.936 6.916 109.012 6.916 107.794C6.916 106.492 5.866 105.652 4.2 105.652C3.304 105.652 2.576 105.932 2.03 106.492ZM9.36469 110.202C9.36469 109.81 9.72869 109.418 10.2327 109.418C10.6947 109.418 11.0727 109.81 11.0727 110.202C11.0727 110.65 10.7227 111.028 10.2327 111.028C9.72869 111.028 9.36469 110.65 9.36469 110.202ZM12.2302 106.1C12.2302 104.588 12.5802 103.37 13.2942 102.46C13.9942 101.55 15.0302 101.088 16.3882 101.088C19.1742 101.088 20.5602 102.922 20.5602 106.1C20.5602 107.626 20.2102 108.83 19.5242 109.74C18.8242 110.65 17.7882 111.112 16.4162 111.112C15.1002 111.112 14.0782 110.65 13.3362 109.726C12.5942 108.802 12.2302 107.598 12.2302 106.1ZM13.5182 106.1C13.5182 108.494 14.6102 109.922 16.4162 109.922C18.3202 109.922 19.2722 108.648 19.2722 106.1C19.2722 103.552 18.3062 102.278 16.3882 102.278C14.4422 102.278 13.5182 103.678 13.5182 106.1ZM24.0418 111.21L23.1178 110.678L30.3558 100.892L31.2378 101.536L24.0418 111.21ZM21.6058 103.552C21.6058 102.852 21.8438 102.278 22.3338 101.83C22.8238 101.382 23.4258 101.158 24.1678 101.158C24.8958 101.158 25.4978 101.382 25.9878 101.83C26.4778 102.278 26.7158 102.852 26.7158 103.552C26.7158 104.238 26.4778 104.812 25.9878 105.26C25.4978 105.708 24.8958 105.932 24.1678 105.932C23.4258 105.932 22.8238 105.708 22.3338 105.26C21.8438 104.812 21.6058 104.238 21.6058 103.552ZM22.7818 103.552C22.7818 104.35 23.4258 104.938 24.1678 104.938C24.9378 104.938 25.5398 104.378 25.5398 103.552C25.5398 102.726 24.9098 102.166 24.1678 102.166C23.3978 102.166 22.7818 102.726 22.7818 103.552ZM28.3398 110.384C27.8498 109.936 27.6118 109.362 27.6118 108.662C27.6118 107.962 27.8498 107.388 28.3398 106.94C28.8298 106.506 29.4318 106.282 30.1738 106.282C30.9018 106.282 31.5038 106.506 31.9938 106.94C32.4838 107.388 32.7218 107.962 32.7218 108.662C32.7218 109.348 32.4838 109.922 31.9938 110.37C31.5038 110.832 30.9018 111.056 30.1738 111.056C29.4318 111.056 28.8298 110.832 28.3398 110.384ZM28.7878 108.662C28.7878 109.46 29.4318 110.048 30.1738 110.048C30.9438 110.048 31.5458 109.488 31.5458 108.662C31.5458 107.836 30.9158 107.276 30.1738 107.276C29.4038 107.276 28.7878 107.836 28.7878 108.662Z" fill="#1A3341"/>
<path d="M44.4635 104.64H42.4595V105.696H44.4635V104.64ZM47.3555 104.64H45.2675V105.696H47.3555V104.64ZM45.2675 107.448H47.3555V106.356H45.2675V107.448ZM42.4595 107.448H44.4635V106.356H42.4595V107.448ZM42.4595 108.132V110.124H41.6075V103.956H45.0155C44.2835 103.596 43.4075 103.212 42.6755 102.936L43.2395 102.432C43.7675 102.624 44.3915 102.876 44.9795 103.128C45.5675 102.852 46.1795 102.468 46.6715 102.108H41.6195V101.4H47.4755L47.6555 101.352L48.1955 101.772C47.5475 102.396 46.6355 103.02 45.7475 103.488C46.0835 103.644 46.3955 103.812 46.6355 103.956H48.2075V109.236C48.2075 109.68 48.1115 109.884 47.7995 110.016C47.4875 110.148 46.9835 110.16 46.1795 110.16C46.1435 109.932 46.0475 109.632 45.9395 109.416C46.5035 109.44 47.0075 109.428 47.1515 109.428C47.3075 109.428 47.3555 109.38 47.3555 109.224V108.132H45.2675V110.088H44.4635V108.132H42.4595ZM40.7315 103.404L40.0835 103.992C39.6635 103.44 38.7635 102.564 38.0435 101.94L38.6675 101.436C39.3755 102.024 40.2995 102.864 40.7315 103.404ZM40.3355 105.432V109.68C40.5755 109.812 40.8275 110.04 41.2595 110.292C42.0515 110.784 43.0715 110.88 44.4035 110.88C45.7955 110.88 47.5955 110.772 48.8195 110.652C48.7235 110.88 48.6035 111.276 48.5795 111.528C47.7515 111.576 45.6635 111.648 44.3795 111.648C42.9035 111.648 41.9195 111.504 41.0675 110.988C40.5995 110.7 40.1795 110.304 39.9035 110.304C39.4955 110.304 38.9075 110.988 38.3075 111.792L37.7435 111.06C38.3555 110.412 38.9555 109.872 39.4715 109.656V106.272H37.7915V105.432H40.3355ZM57.2555 102.516L56.4515 102.864C56.2955 102.444 55.9235 101.76 55.6235 101.268L56.3795 100.956C56.7275 101.46 57.0875 102.096 57.2555 102.516ZM52.2275 101.004L53.0195 101.244C52.7435 102.048 52.3955 102.852 52.0115 103.608V111.96H51.1835V105.048C50.8235 105.624 50.4275 106.14 50.0435 106.596C49.9595 106.404 49.7075 105.972 49.5515 105.768C50.6315 104.604 51.6155 102.816 52.2275 101.004ZM58.8395 108.816H54.3395V110.712H58.8395V108.816ZM53.5595 111.924V108.072H59.6315V111.888H58.8395V111.456H54.3395V111.924H53.5595ZM53.7275 107.064V106.332H59.5115V107.064H53.7275ZM59.5115 104.652V105.384H53.7275V104.652H59.5115ZM52.8635 102.936H60.4595V103.692H52.8635V102.936ZM64.8635 102.324V104.484H66.9515V105.312H64.8635V105.624C65.3195 106.104 66.5675 107.568 66.8675 107.94L66.3275 108.672C66.0515 108.216 65.3795 107.316 64.8635 106.644V111.888H63.9875V106.608C63.3995 108 62.6195 109.356 61.8515 110.184C61.7435 109.944 61.5155 109.584 61.3475 109.368C62.2595 108.456 63.2195 106.812 63.7595 105.312H61.6475V104.484H63.9875V102.492C63.3155 102.6 62.6435 102.696 62.0075 102.78C61.9595 102.564 61.8635 102.276 61.7555 102.072C63.3395 101.856 65.2115 101.496 66.2675 101.076L66.8675 101.772C66.3155 101.976 65.6075 102.168 64.8635 102.324ZM68.2355 109.536H70.9115V102.924H68.2355V109.536ZM67.3595 102.072H71.7995V111.3H70.9115V110.4H68.2355V111.384H67.3595V102.072ZM81.0155 102.516L80.2115 102.864C80.0555 102.444 79.6835 101.76 79.3835 101.268L80.1395 100.956C80.4875 101.46 80.8475 102.096 81.0155 102.516ZM75.9875 101.004L76.7795 101.244C76.5035 102.048 76.1555 102.852 75.7715 103.608V111.96H74.9435V105.048C74.5835 105.624 74.1875 106.14 73.8035 106.596C73.7195 106.404 73.4675 105.972 73.3115 105.768C74.3915 104.604 75.3755 102.816 75.9875 101.004ZM82.5995 108.816H78.0995V110.712H82.5995V108.816ZM77.3195 111.924V108.072H83.3915V111.888H82.5995V111.456H78.0995V111.924H77.3195ZM77.4875 107.064V106.332H83.2715V107.064H77.4875ZM83.2715 104.652V105.384H77.4875V104.652H83.2715ZM76.6235 102.936H84.2195V103.692H76.6235V102.936ZM87.9755 106.068V107.028H93.5075V106.068H87.9755ZM87.9755 104.424V105.384H93.5075V104.424H87.9755ZM87.9755 102.78V103.74H93.5075V102.78H87.9755ZM89.7995 108.108L90.4355 107.748H87.1115V102.072H89.8955C90.0755 101.688 90.2555 101.184 90.3515 100.836L91.3835 101.016C91.2155 101.388 91.0115 101.772 90.8195 102.072H94.3955V107.748H90.5075C91.1195 108.276 91.8035 109.044 92.1155 109.548L91.3955 109.992C91.0955 109.464 90.4115 108.672 89.7995 108.108ZM86.1635 111.348L85.3475 110.964C85.8155 110.304 86.2835 109.284 86.5715 108.54L87.3395 108.876C87.0155 109.608 86.5955 110.664 86.1635 111.348ZM89.7275 110.88H92.3555C92.9915 110.88 93.0995 110.7 93.1595 109.488C93.3635 109.644 93.7355 109.776 93.9875 109.824C93.8675 111.348 93.5795 111.708 92.4155 111.708H89.6795C88.2875 111.708 87.9275 111.456 87.9275 110.508V108.552H88.8155V110.496C88.8155 110.82 88.9475 110.88 89.7275 110.88ZM93.8915 108.684L94.6835 108.348C95.2475 109.068 95.8355 110.064 96.0515 110.724L95.2235 111.108C95.0195 110.448 94.4435 109.428 93.8915 108.684ZM101.007 106.2L101.127 107.016C100.647 107.16 100.155 107.304 99.6875 107.448V110.844C99.6875 111.348 99.5555 111.588 99.2435 111.732C98.9435 111.876 98.4395 111.9 97.6115 111.888C97.5875 111.66 97.4555 111.312 97.3355 111.072C97.9115 111.084 98.4275 111.084 98.5715 111.072C98.7395 111.072 98.8115 111.012 98.8115 110.844V107.712L97.3715 108.132L97.1195 107.256C97.5995 107.148 98.1755 107.004 98.8115 106.824V104.208H97.2755V103.368H98.8115V100.968H99.6875V103.368H101.007V104.208H99.6875V106.584C100.119 106.464 100.575 106.332 101.007 106.2ZM106.359 106.284H102.663C103.071 107.328 103.671 108.276 104.427 109.044C105.255 108.3 105.927 107.376 106.359 106.284ZM106.923 105.42L107.511 105.672C107.007 107.316 106.155 108.624 105.075 109.62C105.939 110.328 106.971 110.844 108.171 111.168C107.979 111.348 107.727 111.696 107.595 111.936C106.347 111.552 105.279 110.976 104.391 110.196C103.371 110.976 102.207 111.528 100.983 111.912C100.887 111.672 100.671 111.3 100.503 111.108C101.667 110.796 102.783 110.292 103.755 109.584C102.915 108.684 102.255 107.58 101.787 106.296L101.823 106.284H101.427V105.456H103.995V103.668H101.187V102.84H103.995V100.956H104.871V102.84H107.739V103.668H104.871V105.456H106.779L106.923 105.42ZM118.599 102.876L117.927 103.512C117.471 103.02 116.523 102.252 115.791 101.724L116.439 101.184C117.159 101.676 118.119 102.408 118.599 102.876ZM119.607 104.856H115.383C116.499 106.704 118.407 108.672 120.015 109.68C119.787 109.848 119.463 110.208 119.307 110.448C117.855 109.404 116.211 107.592 115.023 105.768V111.924H114.063V106.128C112.911 107.976 111.303 109.608 109.659 110.544C109.503 110.316 109.203 109.968 108.999 109.788C110.859 108.828 112.755 106.872 113.811 104.856H109.359V103.98H114.063V100.98H115.023V103.98H119.607V104.856ZM122.283 112.284L122.019 111.648C122.943 111.264 123.471 110.7 123.531 109.884C123.459 109.896 123.399 109.896 123.327 109.896C122.835 109.896 122.427 109.608 122.427 109.044C122.427 108.48 122.847 108.18 123.339 108.18C123.999 108.18 124.359 108.72 124.359 109.56C124.359 110.856 123.543 111.84 122.283 112.284ZM9.528 123.416H3.276C2.64 124.316 1.932 125.096 1.2 125.696C1.032 125.528 0.684 125.192 0.456 125.048C1.776 124.076 2.952 122.528 3.648 120.896L4.548 121.16C4.332 121.652 4.08 122.12 3.816 122.564H10.44V122.984C10.308 126.968 10.188 128.36 9.852 128.792C9.648 129.068 9.42 129.164 9.096 129.2C8.784 129.236 8.268 129.236 7.704 129.2C7.692 128.948 7.596 128.588 7.476 128.348C7.992 128.396 8.472 128.408 8.676 128.396C8.856 128.408 8.964 128.384 9.072 128.24C9.3 127.952 9.432 126.74 9.528 123.416ZM6.372 125.456H3.252V127.388H6.372V125.456ZM4.752 130.82H9.312C10.332 130.82 10.5 130.556 10.632 129.32C10.848 129.464 11.232 129.596 11.484 129.644C11.304 131.216 10.944 131.66 9.324 131.66H4.8C2.928 131.66 2.376 131.336 2.376 130.004V124.652H7.248V128.192H3.252V130.004C3.252 130.652 3.48 130.82 4.752 130.82ZM16.224 126.176L16.332 126.992C15.828 127.148 15.324 127.304 14.82 127.46V130.832C14.82 131.348 14.7 131.588 14.388 131.732C14.088 131.876 13.608 131.888 12.804 131.888C12.768 131.66 12.636 131.3 12.528 131.06C13.08 131.072 13.596 131.072 13.74 131.072C13.908 131.06 13.968 131.012 13.968 130.832V127.724L12.564 128.132L12.324 127.256C12.78 127.148 13.356 126.992 13.968 126.824V124.208H12.468V123.368H13.968V120.968H14.82V123.368H16.2V124.208H14.82V126.584C15.276 126.452 15.756 126.308 16.224 126.176ZM21.84 130.628V128.288H17.748V130.628H21.84ZM23.364 125.42H20.22V127.472H22.716V131.876H21.84V131.444H17.748V131.924H16.884V127.472H19.344V125.42H16.488V124.568H19.344V122.492C18.528 122.612 17.688 122.72 16.896 122.792C16.86 122.588 16.752 122.264 16.644 122.072C18.612 121.856 20.94 121.484 22.236 121.04L22.836 121.76C22.104 121.988 21.204 122.192 20.22 122.36V124.568H23.364V125.42ZM28.104 123.5V124.76H30.996V125.576H28.104V126.776H30.576V130.052C30.576 130.46 30.516 130.688 30.216 130.832C29.94 130.964 29.484 130.976 28.824 130.976C28.788 130.736 28.68 130.424 28.56 130.196C29.076 130.208 29.472 130.208 29.592 130.196C29.724 130.196 29.76 130.16 29.76 130.04V127.592H28.104V131.9H27.252V127.592H25.704V130.94H24.888V126.776H27.252V125.576H24.336V124.76H27.252V123.5H25.692C25.5 123.968 25.296 124.4 25.092 124.736C24.912 124.628 24.516 124.472 24.3 124.4C24.84 123.596 25.26 122.396 25.5 121.244L26.34 121.412C26.232 121.832 26.112 122.276 25.98 122.684H27.252V121.004H28.104V122.684H30.528V123.5H28.104ZM32.7 122.048V128.648H31.86V122.048H32.7ZM33.984 121.088H34.848V130.688C34.848 131.276 34.716 131.54 34.356 131.696C33.984 131.852 33.324 131.876 32.436 131.876C32.388 131.624 32.268 131.216 32.148 130.94C32.856 130.964 33.528 130.964 33.732 130.964C33.924 130.952 33.984 130.904 33.984 130.7V121.088ZM39.084 121.004L39.936 121.28C39.612 122.144 39.18 123.02 38.712 123.848V131.9H37.824V125.228C37.452 125.756 37.044 126.236 36.636 126.656C36.552 126.452 36.288 125.96 36.12 125.768C37.308 124.616 38.412 122.828 39.084 121.004ZM47.136 123.812H43.44V125.528H46.86V126.356H43.44V128.168H47.028V129.008H43.44V131.912H42.54V123.812H41.712C41.196 124.772 40.608 125.636 40.008 126.308C39.864 126.152 39.516 125.852 39.312 125.708C40.392 124.592 41.364 122.864 41.952 121.112L42.804 121.34C42.612 121.892 42.384 122.432 42.144 122.96H47.136V123.812ZM55.56 121.556L56.088 121.016C56.832 121.388 57.768 121.964 58.236 122.384L57.684 122.996C57.228 122.576 56.316 121.964 55.56 121.556ZM57.264 124.796L58.164 125.024C57.648 126.572 56.94 127.94 56.052 129.08C56.496 130.256 57.048 130.94 57.66 130.94C57.996 130.94 58.14 130.316 58.224 128.72C58.428 128.924 58.752 129.128 58.992 129.2C58.824 131.24 58.5 131.828 57.588 131.828C56.664 131.828 55.944 131.096 55.392 129.86C54.672 130.64 53.844 131.312 52.92 131.852C52.788 131.672 52.476 131.312 52.272 131.144C53.34 130.568 54.264 129.824 55.032 128.924C54.6 127.568 54.312 125.804 54.156 123.872H50.016V125.432H53.076V125.816C53.016 128.504 52.944 129.512 52.692 129.824C52.512 130.052 52.308 130.136 51.972 130.172C51.672 130.196 51.132 130.196 50.544 130.172C50.532 129.896 50.436 129.56 50.292 129.332C50.844 129.38 51.36 129.392 51.564 129.392C51.732 129.392 51.852 129.368 51.924 129.26C52.092 129.08 52.152 128.324 52.2 126.26H50.016V126.356C50.016 128.036 49.836 130.448 48.756 132.008C48.6 131.828 48.216 131.516 48.012 131.408C48.996 129.944 49.104 127.892 49.104 126.344V122.996H54.108C54.06 122.336 54.048 121.664 54.036 120.98H54.96C54.96 121.676 54.972 122.348 55.008 122.996H58.884V123.872H55.068C55.188 125.468 55.404 126.896 55.728 128.036C56.376 127.088 56.892 126.008 57.264 124.796ZM70.608 124.364H66.9C67.764 126.392 69.276 128.288 70.932 129.224C70.704 129.416 70.392 129.74 70.248 129.98C68.472 128.864 66.924 126.704 66.024 124.364H65.856V128.792H68.64V129.68H65.856V131.912H64.932V129.68H62.148V128.792H64.932V124.364H64.74C63.816 126.704 62.268 128.84 60.54 130.016C60.396 129.8 60.108 129.476 59.904 129.308C61.488 128.336 62.964 126.392 63.84 124.364H60.216V123.476H64.932V120.968H65.856V123.476H70.608V124.364Z" fill="#76848D"/>
<path d="M2.03 156.324L1.022 156.058L1.596 151.032H7.756V152.222H2.674L2.31 154.854C2.8 154.49 3.542 154.308 4.536 154.308C5.684 154.308 6.58 154.616 7.238 155.218C7.882 155.834 8.204 156.618 8.204 157.584C8.204 158.55 7.84 159.362 7.126 159.992C6.398 160.636 5.488 160.958 4.41 160.958C2.576 160.958 1.05 160.09 0.42 158.564L1.54 158.088C1.946 159.026 2.996 159.768 4.41 159.768C6.02 159.768 6.916 158.844 6.916 157.626C6.916 156.324 5.866 155.484 4.2 155.484C3.304 155.484 2.576 155.764 2.03 156.324ZM9.36469 160.034C9.36469 159.642 9.72869 159.25 10.2327 159.25C10.6947 159.25 11.0727 159.642 11.0727 160.034C11.0727 160.482 10.7227 160.86 10.2327 160.86C9.72869 160.86 9.36469 160.482 9.36469 160.034ZM12.1182 153.636L11.6702 152.586L15.0302 150.976H15.8282V160.832H14.6242V152.474L12.1182 153.636ZM20.0496 161.042L19.1256 160.51L26.3636 150.724L27.2456 151.368L20.0496 161.042ZM17.6136 153.384C17.6136 152.684 17.8516 152.11 18.3416 151.662C18.8316 151.214 19.4336 150.99 20.1756 150.99C20.9036 150.99 21.5056 151.214 21.9956 151.662C22.4856 152.11 22.7236 152.684 22.7236 153.384C22.7236 154.07 22.4856 154.644 21.9956 155.092C21.5056 155.54 20.9036 155.764 20.1756 155.764C19.4336 155.764 18.8316 155.54 18.3416 155.092C17.8516 154.644 17.6136 154.07 17.6136 153.384ZM18.7896 153.384C18.7896 154.182 19.4336 154.77 20.1756 154.77C20.9456 154.77 21.5476 154.21 21.5476 153.384C21.5476 152.558 20.9176 151.998 20.1756 151.998C19.4056 151.998 18.7896 152.558 18.7896 153.384ZM24.3476 160.216C23.8576 159.768 23.6196 159.194 23.6196 158.494C23.6196 157.794 23.8576 157.22 24.3476 156.772C24.8376 156.338 25.4396 156.114 26.1816 156.114C26.9096 156.114 27.5116 156.338 28.0016 156.772C28.4916 157.22 28.7296 157.794 28.7296 158.494C28.7296 159.18 28.4916 159.754 28.0016 160.202C27.5116 160.664 26.9096 160.888 26.1816 160.888C25.4396 160.888 24.8376 160.664 24.3476 160.216ZM24.7956 158.494C24.7956 159.292 25.4396 159.88 26.1816 159.88C26.9516 159.88 27.5536 159.32 27.5536 158.494C27.5536 157.668 26.9236 157.108 26.1816 157.108C25.4116 157.108 24.7956 157.668 24.7956 158.494Z" fill="#1A3341"/>
<path d="M38.8753 152.996H42.2833C42.2833 152.996 42.2713 153.356 42.2713 153.488C42.0793 158.636 41.8993 160.436 41.4313 161.012C41.1433 161.36 40.8673 161.48 40.4233 161.516C40.0033 161.564 39.2353 161.54 38.5033 161.504C38.4913 161.228 38.3593 160.832 38.1913 160.556C38.9953 160.628 39.7273 160.628 40.0393 160.628C40.2793 160.64 40.4113 160.604 40.5553 160.448C40.9273 160.064 41.1313 158.324 41.2873 153.884H38.8513C38.7433 156.44 38.0833 159.56 34.5193 161.804C34.3633 161.588 34.0273 161.24 33.7993 161.072C37.1473 159.02 37.7953 156.212 37.9033 153.884H34.3273V152.996H37.9273V152.888V150.812H38.8753V152.888V152.996ZM35.4793 154.892L36.2833 155.228C35.9113 156.296 35.3353 157.688 34.6513 158.588L33.8353 158.108C34.5553 157.28 35.1553 155.948 35.4793 154.892ZM42.5713 155.072L43.3753 154.796C43.9393 155.972 44.5153 157.532 44.7313 158.492L43.8433 158.804C43.6753 157.844 43.1233 156.272 42.5713 155.072ZM49.0393 151.148L49.9873 151.412C49.1833 153.356 47.9113 155.168 46.6153 156.344C46.4233 156.164 46.0153 155.852 45.7873 155.708C47.1313 154.652 48.3313 152.936 49.0393 151.148ZM52.4593 157.544L53.2873 157.16C54.3313 158.432 55.5553 160.112 56.1433 161.192L55.2793 161.672C55.0873 161.288 54.7993 160.82 54.4873 160.328C48.1873 160.76 47.5393 160.796 47.0953 160.964C47.0473 160.772 46.8793 160.28 46.7473 160.028C47.0593 159.956 47.3833 159.596 47.8393 159.02C48.3073 158.492 49.7593 156.416 50.7193 154.424L51.6793 154.856C50.6953 156.668 49.5193 158.444 48.3433 159.836L53.9233 159.5C53.4433 158.828 52.9273 158.132 52.4593 157.544ZM52.2193 151.4L53.0953 151.064C53.8873 152.696 55.4113 154.592 56.6473 155.588C56.4193 155.768 56.0833 156.104 55.9033 156.344C54.6673 155.204 53.1433 153.2 52.2193 151.4ZM59.3833 154.604H61.0513C61.1833 154.316 61.2433 154.016 61.2673 153.704H59.5393C59.4913 154.016 59.4313 154.316 59.3833 154.604ZM62.1073 152.204V153.056H64.0033V152.204H62.1073ZM66.6313 152.204H64.8553V153.056H66.6313V152.204ZM64.0033 154.604V153.704H62.0953C62.0713 154.016 62.0233 154.316 61.9393 154.604H64.0033ZM59.2753 160.1V156.944C58.9633 157.064 58.5913 157.172 58.1953 157.256C58.1113 157.064 57.8953 156.728 57.7513 156.572C59.2393 156.224 60.1153 155.768 60.6193 155.24H58.4593C58.5793 154.652 58.7233 153.776 58.8073 153.068H59.1433V153.056H61.2913V152.204H58.3393V151.556H61.2913V150.8H62.1073V151.556H64.0033V150.8H64.8553V151.556H67.4473V153.704H64.8553V154.604H68.1553C68.1553 154.604 68.1433 154.784 68.1433 154.904C68.0593 155.672 67.9633 156.068 67.7953 156.248C67.6393 156.404 67.4593 156.464 67.2073 156.464C67.0033 156.488 66.5833 156.476 66.1633 156.452C66.1513 156.284 66.0673 156.02 65.9833 155.84C66.3673 155.888 66.6913 155.888 66.8233 155.888C66.9553 155.888 67.0393 155.876 67.1113 155.816C67.1713 155.744 67.2193 155.576 67.2673 155.24H64.8553V156.488H64.0033V155.24H61.6633C61.3273 155.828 60.7393 156.356 59.6953 156.776H66.8233V160.016H65.9353V157.532H60.1273V160.1H59.2753ZM62.6953 158.024H63.5833C63.1393 160.22 61.9273 161.276 57.9433 161.756C57.8833 161.54 57.7153 161.192 57.5713 161C61.3153 160.628 62.3113 159.812 62.6953 158.024ZM63.2593 160.112L63.7273 159.512C65.2033 159.896 67.2313 160.556 68.2993 161.048L67.8073 161.756C66.7993 161.264 64.7833 160.544 63.2593 160.112ZM75.3913 157.244H78.6193V155.252H75.3913V157.244ZM71.5873 157.244H74.5033V155.252H71.6353V155.96C71.6353 156.356 71.6233 156.8 71.5873 157.244ZM74.5033 152.492H71.6353V154.412H74.5033V152.492ZM78.6193 154.412V152.492H75.3913V154.412H78.6193ZM79.4953 151.64V160.544C79.4953 161.12 79.3393 161.384 78.9553 161.54C78.5473 161.684 77.8513 161.696 76.7233 161.684C76.6873 161.444 76.5433 161.06 76.4233 160.82C77.2633 160.856 78.0793 160.844 78.2953 160.844C78.5353 160.832 78.6193 160.76 78.6193 160.532V158.096H75.3913V161.636H74.5033V158.096H71.5033C71.3233 159.428 70.9153 160.796 70.0033 161.816C69.8713 161.636 69.5113 161.336 69.3193 161.228C70.6393 159.74 70.7593 157.628 70.7593 155.96V151.64H79.4953Z" fill="#76848D"/>
<path d="M4.466 197.414H4.9C5.53 197.414 6.048 197.26 6.482 196.966C6.902 196.672 7.112 196.28 7.112 195.818C7.112 194.768 6.286 194.236 4.648 194.236C3.08 194.236 2.226 194.81 2.226 195.818C2.226 196.728 3.164 197.414 4.466 197.414ZM4.872 198.52H4.522C3.766 198.52 3.136 198.688 2.646 199.01C2.156 199.332 1.904 199.738 1.904 200.228C1.904 201.292 2.884 201.964 4.662 201.964C6.468 201.964 7.434 201.32 7.434 200.242C7.434 199.164 6.398 198.52 4.872 198.52ZM7.63 202.37C6.916 202.874 5.922 203.126 4.676 203.126C3.43 203.126 2.436 202.874 1.708 202.384C0.98 201.894 0.616 201.222 0.616 200.354C0.616 199.22 1.358 198.324 2.548 197.932C1.47 197.582 0.938 196.728 0.938 195.734C0.938 194.11 2.31 193.074 4.662 193.074C7.028 193.074 8.4 194.11 8.4 195.734C8.4 196.672 7.882 197.386 6.846 197.862C8.092 198.24 8.708 199.052 8.708 200.298C8.708 201.18 8.344 201.88 7.63 202.37ZM9.89789 202.202C9.89789 201.81 10.2619 201.418 10.7659 201.418C11.2279 201.418 11.6059 201.81 11.6059 202.202C11.6059 202.65 11.2559 203.028 10.7659 203.028C10.2619 203.028 9.89789 202.65 9.89789 202.202ZM12.7634 198.1C12.7634 196.588 13.1134 195.37 13.8274 194.46C14.5274 193.55 15.5634 193.088 16.9214 193.088C19.7074 193.088 21.0934 194.922 21.0934 198.1C21.0934 199.626 20.7434 200.83 20.0574 201.74C19.3574 202.65 18.3214 203.112 16.9494 203.112C15.6334 203.112 14.6114 202.65 13.8694 201.726C13.1274 200.802 12.7634 199.598 12.7634 198.1ZM14.0514 198.1C14.0514 200.494 15.1434 201.922 16.9494 201.922C18.8534 201.922 19.8054 200.648 19.8054 198.1C19.8054 195.552 18.8394 194.278 16.9214 194.278C14.9754 194.278 14.0514 195.678 14.0514 198.1ZM24.575 203.21L23.651 202.678L30.889 192.892L31.771 193.536L24.575 203.21ZM22.139 195.552C22.139 194.852 22.377 194.278 22.867 193.83C23.357 193.382 23.959 193.158 24.701 193.158C25.429 193.158 26.031 193.382 26.521 193.83C27.011 194.278 27.249 194.852 27.249 195.552C27.249 196.238 27.011 196.812 26.521 197.26C26.031 197.708 25.429 197.932 24.701 197.932C23.959 197.932 23.357 197.708 22.867 197.26C22.377 196.812 22.139 196.238 22.139 195.552ZM23.315 195.552C23.315 196.35 23.959 196.938 24.701 196.938C25.471 196.938 26.073 196.378 26.073 195.552C26.073 194.726 25.443 194.166 24.701 194.166C23.931 194.166 23.315 194.726 23.315 195.552ZM28.873 202.384C28.383 201.936 28.145 201.362 28.145 200.662C28.145 199.962 28.383 199.388 28.873 198.94C29.363 198.506 29.965 198.282 30.707 198.282C31.435 198.282 32.037 198.506 32.527 198.94C33.017 199.388 33.255 199.962 33.255 200.662C33.255 201.348 33.017 201.922 32.527 202.37C32.037 202.832 31.435 203.056 30.707 203.056C29.965 203.056 29.363 202.832 28.873 202.384ZM29.321 200.662C29.321 201.46 29.965 202.048 30.707 202.048C31.477 202.048 32.079 201.488 32.079 200.662C32.079 199.836 31.449 199.276 30.707 199.276C29.937 199.276 29.321 199.836 29.321 200.662Z" fill="#1A3341"/>
<path d="M49.0167 194.768V195.644H40.4487V198.2C40.4487 199.964 40.2447 202.424 39.0087 204.056C38.8527 203.864 38.4927 203.528 38.2767 203.408C39.4047 201.908 39.5127 199.796 39.5127 198.2V194.768H43.9767C43.8567 194.3 43.6167 193.64 43.4007 193.136L44.3007 192.944C44.5647 193.496 44.8407 194.204 44.9487 194.66L44.5287 194.768H49.0167ZM58.6167 200.228H52.7967V202.52H58.6167V200.228ZM51.9087 204.032V199.4H59.5167V204.008H58.6167V203.36H52.7967V204.032H51.9087ZM56.3847 197.384H60.9207V198.224H50.4327V197.384H55.4607V195.5H52.5207C52.1607 196.112 51.7767 196.676 51.3807 197.108C51.2007 196.988 50.8047 196.748 50.5767 196.628C51.4527 195.776 52.2087 194.408 52.6527 193.076L53.5407 193.28C53.3727 193.76 53.1687 194.228 52.9527 194.684H55.4607V192.956H56.3847V194.684H60.0327V195.5H56.3847V197.384ZM65.3967 194.324V196.484H67.4847V197.312H65.3967V197.624C65.8527 198.104 67.1007 199.568 67.4007 199.94L66.8607 200.672C66.5847 200.216 65.9127 199.316 65.3967 198.644V203.888H64.5207V198.608C63.9327 200 63.1527 201.356 62.3847 202.184C62.2767 201.944 62.0487 201.584 61.8807 201.368C62.7927 200.456 63.7527 198.812 64.2927 197.312H62.1807V196.484H64.5207V194.492C63.8487 194.6 63.1767 194.696 62.5407 194.78C62.4927 194.564 62.3967 194.276 62.2887 194.072C63.8727 193.856 65.7447 193.496 66.8007 193.076L67.4007 193.772C66.8487 193.976 66.1407 194.168 65.3967 194.324ZM68.7687 201.536H71.4447V194.924H68.7687V201.536ZM67.8927 194.072H72.3327V203.3H71.4447V202.4H68.7687V203.384H67.8927V194.072ZM81.8127 196.592V194.324H77.0487V196.592H81.8127ZM82.7127 193.472V197.444H76.1847V193.472H82.7127ZM77.8047 199.568H75.2967V202.412H77.8047V199.568ZM74.4447 203.924V198.704H78.6807V203.816H77.8047V203.276H75.2967V203.924H74.4447ZM80.8527 202.412H83.5767V199.568H80.8527V202.412ZM79.9887 198.704H84.4527V203.84H83.5767V203.276H80.8527V203.924H79.9887V198.704ZM91.3407 197.996H92.8047C92.9847 197.576 93.0567 197.144 93.0807 196.736H91.3407V197.996ZM91.3407 194.816V196.064H93.0807V194.816H91.3407ZM95.5887 196.064V194.816H93.8487V196.064H95.5887ZM95.5887 197.996V196.736H93.8487C93.8247 197.156 93.7767 197.576 93.6447 197.996H95.5887ZM96.4047 198.704H93.3327C92.9367 199.4 92.2407 200.06 91.0527 200.564C90.9327 200.408 90.6447 200.18 90.4647 200.06C91.3887 199.664 92.0007 199.196 92.3847 198.704H90.5367V194.108H92.4207C92.6007 193.712 92.7807 193.256 92.8767 192.92L93.8847 193.124C93.7047 193.448 93.5007 193.796 93.3207 194.108H96.4047V198.704ZM87.3327 197.012V197.78C87.3327 198.092 87.3327 198.428 87.3207 198.764H89.6487V203.9H88.8447V199.532H87.2967C87.2127 201.044 87.0087 202.652 86.5167 203.936C86.3367 203.828 85.9887 203.708 85.7487 203.636C86.4447 201.92 86.5407 199.52 86.5407 197.78V193.208H87.3327V196.232H88.4847V192.968H89.2647V196.232H90.2607V197.012H87.3327ZM96.7407 200.66V201.428H94.8807V203.9H94.0287V201.428H90.0207V200.66H94.0287V198.98H94.8807V200.66H96.7407ZM103.209 200.648V202.268H105.225V200.648H103.209ZM105.225 197.468V195.92H103.209V197.468H105.225ZM105.225 199.844V198.272H103.209V199.844H105.225ZM108.585 202.268V203.084H103.209V203.924H102.345V196.916C102.045 197.42 101.709 197.876 101.373 198.272L101.337 198.224L101.457 198.992L100.089 199.436V202.82C100.089 203.336 99.9687 203.576 99.6687 203.732C99.3807 203.876 98.9247 203.912 98.1567 203.9C98.1327 203.66 98.0127 203.288 97.8927 203.036C98.4087 203.048 98.8767 203.048 99.0087 203.036C99.1647 203.036 99.2247 203 99.2247 202.82V199.712L97.8207 200.18L97.5927 199.316C98.0487 199.184 98.6127 199.028 99.2247 198.824V196.172H97.7007V195.344H99.2247V192.968H100.089V195.344H101.421V196.172H100.089V198.56L101.289 198.188C101.133 198.008 100.869 197.756 100.713 197.636C101.757 196.52 102.657 194.792 103.197 193.028L104.037 193.244C103.833 193.868 103.581 194.492 103.317 195.092H105.681C105.537 194.612 105.177 193.88 104.853 193.352L105.621 193.052C105.981 193.604 106.353 194.312 106.497 194.792L105.801 195.092H108.345V195.92H106.065V197.468H108.153V198.272H106.065V199.844H108.141V200.648H106.065V202.268H108.585ZM120.297 194.768V195.644H111.729V198.2C111.729 199.964 111.525 202.424 110.289 204.056C110.133 203.864 109.773 203.528 109.557 203.408C110.685 201.908 110.793 199.796 110.793 198.2V194.768H115.257C115.137 194.3 114.897 193.64 114.681 193.136L115.581 192.944C115.845 193.496 116.121 194.204 116.229 194.66L115.809 194.768H120.297ZM2.376 216.772H4.044C4.176 216.484 4.236 216.184 4.26 215.872H2.532C2.484 216.184 2.424 216.484 2.376 216.772ZM5.1 214.372V215.224H6.996V214.372H5.1ZM9.624 214.372H7.848V215.224H9.624V214.372ZM6.996 216.772V215.872H5.088C5.064 216.184 5.016 216.484 4.932 216.772H6.996ZM2.268 222.268V219.112C1.956 219.232 1.584 219.34 1.188 219.424C1.104 219.232 0.888 218.896 0.744 218.74C2.232 218.392 3.108 217.936 3.612 217.408H1.452C1.572 216.82 1.716 215.944 1.8 215.236H2.136V215.224H4.284V214.372H1.332V213.724H4.284V212.968H5.1V213.724H6.996V212.968H7.848V213.724H10.44V215.872H7.848V216.772H11.148C11.148 216.772 11.136 216.952 11.136 217.072C11.052 217.84 10.956 218.236 10.788 218.416C10.632 218.572 10.452 218.632 10.2 218.632C9.996 218.656 9.576 218.644 9.156 218.62C9.144 218.452 9.06 218.188 8.976 218.008C9.36 218.056 9.684 218.056 9.816 218.056C9.948 218.056 10.032 218.044 10.104 217.984C10.164 217.912 10.212 217.744 10.26 217.408H7.848V218.656H6.996V217.408H4.656C4.32 217.996 3.732 218.524 2.688 218.944H9.816V222.184H8.928V219.7H3.12V222.268H2.268ZM5.688 220.192H6.576C6.132 222.388 4.92 223.444 0.936 223.924C0.876 223.708 0.708 223.36 0.564 223.168C4.308 222.796 5.304 221.98 5.688 220.192ZM6.252 222.28L6.72 221.68C8.196 222.064 10.224 222.724 11.292 223.216L10.8 223.924C9.792 223.432 7.776 222.712 6.252 222.28ZM18.384 219.412H21.612V217.42H18.384V219.412ZM14.58 219.412H17.496V217.42H14.628V218.128C14.628 218.524 14.616 218.968 14.58 219.412ZM17.496 214.66H14.628V216.58H17.496V214.66ZM21.612 216.58V214.66H18.384V216.58H21.612ZM22.488 213.808V222.712C22.488 223.288 22.332 223.552 21.948 223.708C21.54 223.852 20.844 223.864 19.716 223.852C19.68 223.612 19.536 223.228 19.416 222.988C20.256 223.024 21.072 223.012 21.288 223.012C21.528 223 21.612 222.928 21.612 222.7V220.264H18.384V223.804H17.496V220.264H14.496C14.316 221.596 13.908 222.964 12.996 223.984C12.864 223.804 12.504 223.504 12.312 223.396C13.632 221.908 13.752 219.796 13.752 218.128V213.808H22.488Z" fill="#76848D"/>
<path d="M397.722 70.266L396.7 69.902C397.05 68.166 398.366 66.92 400.452 66.92C402.468 66.92 403.7 68.082 403.7 69.86C403.7 70.798 403.294 71.736 402.79 72.408C402.538 72.758 402.216 73.094 401.838 73.444C401.068 74.13 400.522 74.494 399.724 74.998L398.646 75.67H404.064V76.832H396.434V75.88L398.562 74.466C398.94 74.228 399.206 74.046 399.36 73.934C399.514 73.836 399.766 73.654 400.102 73.416C400.438 73.178 400.69 72.968 400.858 72.814C401.012 72.66 401.222 72.464 401.46 72.212C402.104 71.512 402.342 70.868 402.412 69.986C402.412 68.712 401.586 68.138 400.368 68.138C399.612 68.138 399.01 68.348 398.576 68.768C398.142 69.188 397.848 69.692 397.722 70.266ZM405.132 76.034C405.132 75.642 405.496 75.25 406 75.25C406.462 75.25 406.84 75.642 406.84 76.034C406.84 76.482 406.49 76.86 406 76.86C405.496 76.86 405.132 76.482 405.132 76.034ZM413.612 68.222H407.676V67.032H415.11V67.83L410.238 76.832H408.908L413.612 68.222ZM418.292 77.042L417.368 76.51L424.606 66.724L425.488 67.368L418.292 77.042ZM415.856 69.384C415.856 68.684 416.094 68.11 416.584 67.662C417.074 67.214 417.676 66.99 418.418 66.99C419.146 66.99 419.748 67.214 420.238 67.662C420.728 68.11 420.966 68.684 420.966 69.384C420.966 70.07 420.728 70.644 420.238 71.092C419.748 71.54 419.146 71.764 418.418 71.764C417.676 71.764 417.074 71.54 416.584 71.092C416.094 70.644 415.856 70.07 415.856 69.384ZM417.032 69.384C417.032 70.182 417.676 70.77 418.418 70.77C419.188 70.77 419.79 70.21 419.79 69.384C419.79 68.558 419.16 67.998 418.418 67.998C417.648 67.998 417.032 68.558 417.032 69.384ZM422.59 76.216C422.1 75.768 421.862 75.194 421.862 74.494C421.862 73.794 422.1 73.22 422.59 72.772C423.08 72.338 423.682 72.114 424.424 72.114C425.152 72.114 425.754 72.338 426.244 72.772C426.734 73.22 426.972 73.794 426.972 74.494C426.972 75.18 426.734 75.754 426.244 76.202C425.754 76.664 425.152 76.888 424.424 76.888C423.682 76.888 423.08 76.664 422.59 76.216ZM423.038 74.494C423.038 75.292 423.682 75.88 424.424 75.88C425.194 75.88 425.796 75.32 425.796 74.494C425.796 73.668 425.166 73.108 424.424 73.108C423.654 73.108 423.038 73.668 423.038 74.494Z" fill="#1A3341"/>
<path d="M435.257 73.052V74.36H439.697V73.052H435.257ZM439.697 69.032H435.257V70.22H439.697V69.032ZM435.257 70.988V72.284H439.697V70.988H435.257ZM442.781 74.36L442.793 75.188H432.185V74.36H434.381V69.032H432.521V68.192H434.381V66.824H435.257V68.192H439.697V66.824H440.585V68.192H442.505V69.032H440.585V74.36H442.781ZM435.833 75.404L436.625 75.956C435.557 76.616 433.937 77.3 432.653 77.732C432.521 77.54 432.257 77.24 432.065 77.048C433.361 76.664 434.993 75.98 435.833 75.404ZM438.377 76.028L438.977 75.464C440.381 75.956 441.905 76.616 442.829 77.108L442.025 77.708C441.185 77.204 439.757 76.544 438.377 76.028ZM446.597 66.836L447.413 67.088C447.077 67.952 446.669 68.816 446.201 69.632V77.732H445.325V71C444.953 71.528 444.545 72.02 444.137 72.44C444.041 72.248 443.789 71.792 443.633 71.6C444.809 70.448 445.925 68.66 446.597 66.836ZM450.041 76.784H453.101C453.833 76.784 453.953 76.46 454.061 75.044C454.277 75.2 454.625 75.356 454.889 75.416C454.733 77.06 454.457 77.588 453.137 77.588H450.005C448.577 77.588 448.157 77.252 448.157 75.944V72.044L446.993 72.5L446.645 71.72L448.157 71.132V67.976H449.033V70.784L450.785 70.1V66.812H451.637V69.788L453.497 69.068L453.617 68.96L453.773 68.828L454.385 69.08L454.349 69.236C454.349 71.396 454.313 73.124 454.205 73.628C454.109 74.18 453.857 74.408 453.485 74.504C453.161 74.588 452.633 74.6 452.273 74.588C452.249 74.324 452.165 73.964 452.057 73.748C452.381 73.772 452.813 73.772 452.969 73.772C453.185 73.772 453.305 73.724 453.377 73.412C453.473 73.088 453.497 71.828 453.509 69.956L451.637 70.688V75.092H450.785V71.024L449.033 71.72V75.944C449.033 76.628 449.189 76.784 450.041 76.784ZM457.625 70.604H459.293C459.425 70.316 459.485 70.016 459.509 69.704H457.781C457.733 70.016 457.673 70.316 457.625 70.604ZM460.349 68.204V69.056H462.245V68.204H460.349ZM464.873 68.204H463.097V69.056H464.873V68.204ZM462.245 70.604V69.704H460.337C460.313 70.016 460.265 70.316 460.181 70.604H462.245ZM457.517 76.1V72.944C457.205 73.064 456.833 73.172 456.437 73.256C456.353 73.064 456.137 72.728 455.993 72.572C457.481 72.224 458.357 71.768 458.861 71.24H456.701C456.821 70.652 456.965 69.776 457.049 69.068H457.385V69.056H459.533V68.204H456.581V67.556H459.533V66.8H460.349V67.556H462.245V66.8H463.097V67.556H465.689V69.704H463.097V70.604H466.397C466.397 70.604 466.385 70.784 466.385 70.904C466.301 71.672 466.205 72.068 466.037 72.248C465.881 72.404 465.701 72.464 465.449 72.464C465.245 72.488 464.825 72.476 464.405 72.452C464.393 72.284 464.309 72.02 464.225 71.84C464.609 71.888 464.933 71.888 465.065 71.888C465.197 71.888 465.281 71.876 465.353 71.816C465.413 71.744 465.461 71.576 465.509 71.24H463.097V72.488H462.245V71.24H459.905C459.569 71.828 458.981 72.356 457.937 72.776H465.065V76.016H464.177V73.532H458.369V76.1H457.517ZM460.937 74.024H461.825C461.381 76.22 460.169 77.276 456.185 77.756C456.125 77.54 455.957 77.192 455.813 77C459.557 76.628 460.553 75.812 460.937 74.024ZM461.501 76.112L461.969 75.512C463.445 75.896 465.473 76.556 466.541 77.048L466.049 77.756C465.041 77.264 463.025 76.544 461.501 76.112ZM473.633 73.244H476.861V71.252H473.633V73.244ZM469.829 73.244H472.745V71.252H469.877V71.96C469.877 72.356 469.865 72.8 469.829 73.244ZM472.745 68.492H469.877V70.412H472.745V68.492ZM476.861 70.412V68.492H473.633V70.412H476.861ZM477.737 67.64V76.544C477.737 77.12 477.581 77.384 477.197 77.54C476.789 77.684 476.093 77.696 474.965 77.684C474.929 77.444 474.785 77.06 474.665 76.82C475.505 76.856 476.321 76.844 476.537 76.844C476.777 76.832 476.861 76.76 476.861 76.532V74.096H473.633V77.636H472.745V74.096H469.745C469.565 75.428 469.157 76.796 468.245 77.816C468.113 77.636 467.753 77.336 467.561 77.228C468.881 75.74 469.001 73.628 469.001 71.96V67.64H477.737Z" fill="#76848D"/>
<path d="M451.216 201.222H445.28V200.032H452.714V200.83L447.842 209.832H446.512L451.216 201.222ZM460.222 209.832H459.004V207.83H453.012V207.018L459.144 200.032H460.222V206.696H462.042V207.83H460.222V209.832ZM459.004 201.992L454.692 206.696H459.004V201.992ZM462.824 209.034C462.824 208.642 463.188 208.25 463.692 208.25C464.154 208.25 464.532 208.642 464.532 209.034C464.532 209.482 464.182 209.86 463.692 209.86C463.188 209.86 462.824 209.482 462.824 209.034ZM472.452 209.832H471.234V207.83H465.242V207.018L471.374 200.032H472.452V206.696H474.272V207.83H472.452V209.832ZM471.234 201.992L466.922 206.696H471.234V201.992ZM477.392 210.042L476.468 209.51L483.706 199.724L484.588 200.368L477.392 210.042ZM474.956 202.384C474.956 201.684 475.194 201.11 475.684 200.662C476.174 200.214 476.776 199.99 477.518 199.99C478.246 199.99 478.848 200.214 479.338 200.662C479.828 201.11 480.066 201.684 480.066 202.384C480.066 203.07 479.828 203.644 479.338 204.092C478.848 204.54 478.246 204.764 477.518 204.764C476.776 204.764 476.174 204.54 475.684 204.092C475.194 203.644 474.956 203.07 474.956 202.384ZM476.132 202.384C476.132 203.182 476.776 203.77 477.518 203.77C478.288 203.77 478.89 203.21 478.89 202.384C478.89 201.558 478.26 200.998 477.518 200.998C476.748 200.998 476.132 201.558 476.132 202.384ZM481.69 209.216C481.2 208.768 480.962 208.194 480.962 207.494C480.962 206.794 481.2 206.22 481.69 205.772C482.18 205.338 482.782 205.114 483.524 205.114C484.252 205.114 484.854 205.338 485.344 205.772C485.834 206.22 486.072 206.794 486.072 207.494C486.072 208.18 485.834 208.754 485.344 209.202C484.854 209.664 484.252 209.888 483.524 209.888C482.782 209.888 482.18 209.664 481.69 209.216ZM482.138 207.494C482.138 208.292 482.782 208.88 483.524 208.88C484.294 208.88 484.896 208.32 484.896 207.494C484.896 206.668 484.266 206.108 483.524 206.108C482.754 206.108 482.138 206.668 482.138 207.494Z" fill="#1A3341"/>
<path d="M496.086 199.836H497.07C497.058 200.268 497.046 200.868 496.986 201.576C497.166 203.004 497.886 208.02 502.122 209.904C501.87 210.108 501.606 210.408 501.474 210.66C498.474 209.256 497.19 206.292 496.614 204.06C496.062 206.46 494.79 209.148 491.862 210.708C491.706 210.468 491.418 210.192 491.142 210.012C496.122 207.492 496.05 201.66 496.086 199.836ZM511.758 208.248V207.348H508.878V208.248H511.758ZM508.878 205.8V206.64H511.758V205.8H508.878ZM505.41 203.676H507.99V202.812H505.41V203.676ZM511.566 202.812H508.878V203.676H511.566V202.812ZM513.882 206.64V207.348H512.646V209.472H511.758V208.932H508.878V209.76C508.878 210.312 508.71 210.516 508.35 210.648C507.978 210.78 507.354 210.792 506.358 210.792C506.31 210.564 506.166 210.24 506.046 210.036C506.766 210.06 507.486 210.048 507.69 210.048C507.918 210.036 507.99 209.964 507.99 209.76V208.932H504.114V208.248H507.99V207.348H503.082V206.64H507.99V205.8H504.222V205.14H507.99V204.3H504.558V202.188H507.99V201.492H503.31V200.76H507.99V199.8H508.878V200.76H513.654V201.492H508.878V202.188H512.454V204.3H508.878V205.14H512.646V206.64H513.882ZM516.726 203.604H518.394C518.526 203.316 518.586 203.016 518.61 202.704H516.882C516.834 203.016 516.774 203.316 516.726 203.604ZM519.45 201.204V202.056H521.346V201.204H519.45ZM523.974 201.204H522.198V202.056H523.974V201.204ZM521.346 203.604V202.704H519.438C519.414 203.016 519.366 203.316 519.282 203.604H521.346ZM516.618 209.1V205.944C516.306 206.064 515.934 206.172 515.538 206.256C515.454 206.064 515.238 205.728 515.094 205.572C516.582 205.224 517.458 204.768 517.962 204.24H515.802C515.922 203.652 516.066 202.776 516.15 202.068H516.486V202.056H518.634V201.204H515.682V200.556H518.634V199.8H519.45V200.556H521.346V199.8H522.198V200.556H524.79V202.704H522.198V203.604H525.498C525.498 203.604 525.486 203.784 525.486 203.904C525.402 204.672 525.306 205.068 525.138 205.248C524.982 205.404 524.802 205.464 524.55 205.464C524.346 205.488 523.926 205.476 523.506 205.452C523.494 205.284 523.41 205.02 523.326 204.84C523.71 204.888 524.034 204.888 524.166 204.888C524.298 204.888 524.382 204.876 524.454 204.816C524.514 204.744 524.562 204.576 524.61 204.24H522.198V205.488H521.346V204.24H519.006C518.67 204.828 518.082 205.356 517.038 205.776H524.166V209.016H523.278V206.532H517.47V209.1H516.618ZM520.038 207.024H520.926C520.482 209.22 519.27 210.276 515.286 210.756C515.226 210.54 515.058 210.192 514.914 210C518.658 209.628 519.654 208.812 520.038 207.024ZM520.602 209.112L521.07 208.512C522.546 208.896 524.574 209.556 525.642 210.048L525.15 210.756C524.142 210.264 522.126 209.544 520.602 209.112Z" fill="#76848D"/>
<defs>
<linearGradient id="paint0_linear_5181_14759" x1="314" y1="94" x2="451.07" y2="389.883" gradientUnits="userSpaceOnUse">
<stop stop-color="#66CFF0"/>
<stop offset="1" stop-color="#A6E0F2"/>
</linearGradient>
<linearGradient id="paint1_linear_5181_14759" x1="435" y1="215" x2="301.395" y2="357.673" gradientUnits="userSpaceOnUse">
<stop stop-color="#43C3BB"/>
<stop offset="1" stop-color="#78CCD1"/>
</linearGradient>
<linearGradient id="paint2_linear_5181_14759" x1="314" y1="99.8739" x2="217.2" y2="142.4" gradientUnits="userSpaceOnUse">
<stop stop-color="#B7C6EF"/>
<stop offset="0.558752" stop-color="#BECCEE"/>
</linearGradient>
</defs>
</svg>
