<svg width="480" height="164" viewBox="0 0 480 164" fill="none" xmlns="http://www.w3.org/2000/svg">
<line y1="148.5" x2="480" y2="148.5" stroke="#ABBEC9"/>
<path d="M219.644 21.492L218.636 21.226L219.21 16.2H225.37V17.39H220.288L219.924 20.022C220.414 19.658 221.156 19.476 222.15 19.476C223.298 19.476 224.194 19.784 224.852 20.386C225.496 21.002 225.818 21.786 225.818 22.752C225.818 23.718 225.454 24.53 224.74 25.16C224.012 25.804 223.102 26.126 222.024 26.126C220.19 26.126 218.664 25.258 218.034 23.732L219.154 23.256C219.56 24.194 220.61 24.936 222.024 24.936C223.634 24.936 224.53 24.012 224.53 22.794C224.53 21.492 223.48 20.652 221.814 20.652C220.918 20.652 220.19 20.932 219.644 21.492ZM228.308 21.492L227.3 21.226L227.874 16.2H234.034V17.39H228.952L228.588 20.022C229.078 19.658 229.82 19.476 230.814 19.476C231.962 19.476 232.858 19.784 233.516 20.386C234.16 21.002 234.482 21.786 234.482 22.752C234.482 23.718 234.118 24.53 233.404 25.16C232.676 25.804 231.766 26.126 230.688 26.126C228.854 26.126 227.328 25.258 226.698 23.732L227.818 23.256C228.224 24.194 229.274 24.936 230.688 24.936C232.298 24.936 233.194 24.012 233.194 22.794C233.194 21.492 232.144 20.652 230.478 20.652C229.582 20.652 228.854 20.932 228.308 21.492ZM236.483 26C235.965 26.056 235.573 25.762 235.573 25.258C235.573 24.768 235.881 24.46 236.427 24.46C237.043 24.46 237.449 24.88 237.449 25.664C237.449 27.064 236.679 27.778 235.657 28.016L235.363 27.358C235.671 27.274 235.951 27.106 236.203 26.84C236.441 26.574 236.539 26.294 236.483 26ZM239.896 21.492L238.888 21.226L239.462 16.2H245.622V17.39H240.54L240.176 20.022C240.666 19.658 241.408 19.476 242.402 19.476C243.55 19.476 244.446 19.784 245.104 20.386C245.748 21.002 246.07 21.786 246.07 22.752C246.07 23.718 245.706 24.53 244.992 25.16C244.264 25.804 243.354 26.126 242.276 26.126C240.442 26.126 238.916 25.258 238.286 23.732L239.406 23.256C239.812 24.194 240.862 24.936 242.276 24.936C243.886 24.936 244.782 24.012 244.782 22.794C244.782 21.492 243.732 20.652 242.066 20.652C241.17 20.652 240.442 20.932 239.896 21.492ZM252.746 17.39H246.81V16.2H254.244V16.998L249.372 26H248.042L252.746 17.39ZM260.604 17.39H254.668V16.2H262.102V16.998L257.23 26H255.9L260.604 17.39Z" fill="#1A3341"/>
<path d="M226.556 157.372L225.68 157.06C225.98 155.572 227.108 154.504 228.896 154.504C230.624 154.504 231.68 155.5 231.68 157.024C231.68 157.828 231.332 158.632 230.9 159.208C230.684 159.508 230.408 159.796 230.084 160.096C229.424 160.684 228.956 160.996 228.272 161.428L227.348 162.004H231.992V163H225.452V162.184L227.276 160.972C227.6 160.768 227.828 160.612 227.96 160.516C228.092 160.432 228.308 160.276 228.596 160.072C228.884 159.868 229.1 159.688 229.244 159.556C229.376 159.424 229.556 159.256 229.76 159.04C230.312 158.44 230.516 157.888 230.576 157.132C230.576 156.04 229.868 155.548 228.824 155.548C228.176 155.548 227.66 155.728 227.288 156.088C226.916 156.448 226.664 156.88 226.556 157.372ZM232.824 158.8C232.824 157.504 233.124 156.46 233.736 155.68C234.336 154.9 235.224 154.504 236.388 154.504C238.776 154.504 239.964 156.076 239.964 158.8C239.964 160.108 239.664 161.14 239.076 161.92C238.476 162.7 237.588 163.096 236.412 163.096C235.284 163.096 234.408 162.7 233.772 161.908C233.136 161.116 232.824 160.084 232.824 158.8ZM233.928 158.8C233.928 160.852 234.864 162.076 236.412 162.076C238.044 162.076 238.86 160.984 238.86 158.8C238.86 156.616 238.032 155.524 236.388 155.524C234.72 155.524 233.928 156.724 233.928 158.8ZM241.82 157.372L240.944 157.06C241.244 155.572 242.372 154.504 244.16 154.504C245.888 154.504 246.944 155.5 246.944 157.024C246.944 157.828 246.596 158.632 246.164 159.208C245.948 159.508 245.672 159.796 245.348 160.096C244.688 160.684 244.22 160.996 243.536 161.428L242.612 162.004H247.256V163H240.716V162.184L242.54 160.972C242.864 160.768 243.092 160.612 243.224 160.516C243.356 160.432 243.572 160.276 243.86 160.072C244.148 159.868 244.364 159.688 244.508 159.556C244.64 159.424 244.82 159.256 245.024 159.04C245.576 158.44 245.78 157.888 245.84 157.132C245.84 156.04 245.132 155.548 244.088 155.548C243.44 155.548 242.924 155.728 242.552 156.088C242.18 156.448 241.928 156.88 241.82 157.372ZM249.048 157.372L248.172 157.06C248.472 155.572 249.6 154.504 251.388 154.504C253.116 154.504 254.172 155.5 254.172 157.024C254.172 157.828 253.824 158.632 253.392 159.208C253.176 159.508 252.9 159.796 252.576 160.096C251.916 160.684 251.448 160.996 250.764 161.428L249.84 162.004H254.484V163H247.944V162.184L249.768 160.972C250.092 160.768 250.32 160.612 250.452 160.516C250.584 160.432 250.8 160.276 251.088 160.072C251.376 159.868 251.592 159.688 251.736 159.556C251.868 159.424 252.048 159.256 252.252 159.04C252.804 158.44 253.008 157.888 253.068 157.132C253.068 156.04 252.36 155.548 251.316 155.548C250.668 155.548 250.152 155.728 249.78 156.088C249.408 156.448 249.156 156.88 249.048 157.372Z" fill="#1A3341" fill-opacity="0.6"/>
<path d="M212 38C212 36.8954 212.895 36 214 36H266C267.105 36 268 36.8954 268 38V148H212V38Z" fill="url(#paint0_linear_7026_9114)"/>
<path opacity="0.2" d="M224 36H256V148H224V36Z" fill="url(#paint1_linear_7026_9114)"/>
<path opacity="0.04" d="M256 36H266C267.105 36 268 36.8954 268 38V148H256V36Z" fill="#0D262C"/>
<path opacity="0.5" d="M212 38C212 36.8954 212.895 36 214 36H224V148H212V38Z" fill="url(#paint2_linear_7026_9114)"/>
<path d="M90.2293 5.366C90.2293 3.672 90.6493 2.37 91.4753 1.446C92.3013 0.535999 93.3373 0.0739993 94.5833 0.0739993C96.2213 0.0739993 97.5093 0.816 98.0553 1.992L97.1033 2.636C96.5293 1.726 95.6753 1.278 94.5273 1.278C93.6593 1.278 92.9313 1.614 92.3433 2.286C91.7553 2.972 91.4613 3.896 91.4753 5.086C92.0213 4.064 93.2953 3.448 94.6953 3.448C95.8293 3.448 96.7393 3.742 97.3973 4.344C98.0553 4.946 98.3913 5.744 98.3913 6.724C98.3913 7.718 98.0273 8.544 97.2853 9.174C96.5433 9.804 95.6193 10.126 94.5133 10.126C91.8673 10.126 90.2293 8.404 90.2293 5.366ZM91.6293 6.556C91.8953 7.942 92.9453 8.922 94.4993 8.922C95.2553 8.922 95.8853 8.726 96.3753 8.32C96.8653 7.928 97.1033 7.41 97.1033 6.78C97.1033 5.394 96.1233 4.652 94.6253 4.652C93.7993 4.652 93.1133 4.848 92.5813 5.24C92.0353 5.632 91.7273 6.066 91.6293 6.556ZM106.162 10H104.944V7.998H98.9519V7.186L105.084 0.199999H106.162V6.864H107.982V7.998H106.162V10ZM104.944 2.16L100.632 6.864H104.944V2.16ZM109.604 10C109.086 10.056 108.694 9.762 108.694 9.258C108.694 8.768 109.002 8.46 109.548 8.46C110.164 8.46 110.57 8.88 110.57 9.664C110.57 11.064 109.8 11.778 108.778 12.016L108.484 11.358C108.792 11.274 109.072 11.106 109.324 10.84C109.562 10.574 109.66 10.294 109.604 10ZM115.453 4.414H115.887C116.517 4.414 117.035 4.26 117.469 3.966C117.889 3.672 118.099 3.28 118.099 2.818C118.099 1.768 117.273 1.236 115.635 1.236C114.067 1.236 113.213 1.81 113.213 2.818C113.213 3.728 114.151 4.414 115.453 4.414ZM115.859 5.52H115.509C114.753 5.52 114.123 5.688 113.633 6.01C113.143 6.332 112.891 6.738 112.891 7.228C112.891 8.292 113.871 8.964 115.649 8.964C117.455 8.964 118.421 8.32 118.421 7.242C118.421 6.164 117.385 5.52 115.859 5.52ZM118.617 9.37C117.903 9.874 116.909 10.126 115.663 10.126C114.417 10.126 113.423 9.874 112.695 9.384C111.967 8.894 111.603 8.222 111.603 7.354C111.603 6.22 112.345 5.324 113.535 4.932C112.457 4.582 111.925 3.728 111.925 2.734C111.925 1.11 113.297 0.0739993 115.649 0.0739993C118.015 0.0739993 119.387 1.11 119.387 2.734C119.387 3.672 118.869 4.386 117.833 4.862C119.079 5.24 119.695 6.052 119.695 7.298C119.695 8.18 119.331 8.88 118.617 9.37ZM122.215 5.492L121.207 5.226L121.781 0.199999H127.941V1.39H122.859L122.495 4.022C122.985 3.658 123.727 3.476 124.721 3.476C125.869 3.476 126.765 3.784 127.423 4.386C128.067 5.002 128.389 5.786 128.389 6.752C128.389 7.718 128.025 8.53 127.311 9.16C126.583 9.804 125.673 10.126 124.595 10.126C122.761 10.126 121.235 9.258 120.605 7.732L121.725 7.256C122.131 8.194 123.181 8.936 124.595 8.936C126.205 8.936 127.101 8.012 127.101 6.794C127.101 5.492 126.051 4.652 124.385 4.652C123.489 4.652 122.761 4.932 122.215 5.492ZM129.339 2.804L128.891 1.754L132.251 0.143999H133.049V10H131.845V1.642L129.339 2.804Z" fill="#1A3341"/>
<path d="M99.863 157.372L98.987 157.06C99.287 155.572 100.415 154.504 102.203 154.504C103.931 154.504 104.987 155.5 104.987 157.024C104.987 157.828 104.639 158.632 104.207 159.208C103.991 159.508 103.715 159.796 103.391 160.096C102.731 160.684 102.263 160.996 101.579 161.428L100.655 162.004H105.299V163H98.759V162.184L100.583 160.972C100.907 160.768 101.135 160.612 101.267 160.516C101.399 160.432 101.615 160.276 101.903 160.072C102.191 159.868 102.407 159.688 102.551 159.556C102.683 159.424 102.863 159.256 103.067 159.04C103.619 158.44 103.823 157.888 103.883 157.132C103.883 156.04 103.175 155.548 102.131 155.548C101.483 155.548 100.967 155.728 100.595 156.088C100.223 156.448 99.971 156.88 99.863 157.372ZM106.131 158.8C106.131 157.504 106.431 156.46 107.043 155.68C107.643 154.9 108.531 154.504 109.695 154.504C112.083 154.504 113.271 156.076 113.271 158.8C113.271 160.108 112.971 161.14 112.383 161.92C111.783 162.7 110.895 163.096 109.719 163.096C108.591 163.096 107.715 162.7 107.079 161.908C106.443 161.116 106.131 160.084 106.131 158.8ZM107.235 158.8C107.235 160.852 108.171 162.076 109.719 162.076C111.351 162.076 112.167 160.984 112.167 158.8C112.167 156.616 111.339 155.524 109.695 155.524C108.027 155.524 107.235 156.724 107.235 158.8ZM115.127 157.372L114.251 157.06C114.551 155.572 115.679 154.504 117.467 154.504C119.195 154.504 120.251 155.5 120.251 157.024C120.251 157.828 119.903 158.632 119.471 159.208C119.255 159.508 118.979 159.796 118.655 160.096C117.995 160.684 117.527 160.996 116.843 161.428L115.919 162.004H120.563V163H114.023V162.184L115.847 160.972C116.171 160.768 116.399 160.612 116.531 160.516C116.663 160.432 116.879 160.276 117.167 160.072C117.455 159.868 117.671 159.688 117.815 159.556C117.947 159.424 118.127 159.256 118.331 159.04C118.883 158.44 119.087 157.888 119.147 157.132C119.147 156.04 118.439 155.548 117.395 155.548C116.747 155.548 116.231 155.728 115.859 156.088C115.487 156.448 115.235 156.88 115.127 157.372ZM121.299 156.832L120.915 155.932L123.795 154.552H124.479V163H123.447V155.836L121.299 156.832Z" fill="#1A3341" fill-opacity="0.6"/>
<path d="M84 22C84 20.8954 84.8954 20 86 20H138C139.105 20 140 20.8954 140 22V148H84V22Z" fill="url(#paint3_linear_7026_9114)"/>
<path opacity="0.2" d="M96 20H128V148H96V20Z" fill="url(#paint4_linear_7026_9114)"/>
<path opacity="0.04" d="M128 20H138C139.105 20 140 20.8954 140 22V148H128V20Z" fill="#0D262C"/>
<path opacity="0.5" d="M84 22C84 20.8954 84.8954 20 86 20H96V148H84V22Z" fill="url(#paint5_linear_7026_9114)"/>
<path d="M347.91 23.492L346.902 23.226L347.476 18.2H353.636V19.39H348.554L348.19 22.022C348.68 21.658 349.422 21.476 350.416 21.476C351.564 21.476 352.46 21.784 353.118 22.386C353.762 23.002 354.084 23.786 354.084 24.752C354.084 25.718 353.72 26.53 353.006 27.16C352.278 27.804 351.368 28.126 350.29 28.126C348.456 28.126 346.93 27.258 346.3 25.732L347.42 25.256C347.826 26.194 348.876 26.936 350.29 26.936C351.9 26.936 352.796 26.012 352.796 24.794C352.796 23.492 351.746 22.652 350.08 22.652C349.184 22.652 348.456 22.932 347.91 23.492ZM356.575 23.492L355.567 23.226L356.141 18.2H362.301V19.39H357.219L356.855 22.022C357.345 21.658 358.087 21.476 359.081 21.476C360.229 21.476 361.125 21.784 361.783 22.386C362.427 23.002 362.749 23.786 362.749 24.752C362.749 25.718 362.385 26.53 361.671 27.16C360.943 27.804 360.033 28.126 358.955 28.126C357.121 28.126 355.595 27.258 354.965 25.732L356.085 25.256C356.491 26.194 357.541 26.936 358.955 26.936C360.565 26.936 361.461 26.012 361.461 24.794C361.461 23.492 360.411 22.652 358.745 22.652C357.849 22.652 357.121 22.932 356.575 23.492ZM364.75 28C364.232 28.056 363.84 27.762 363.84 27.258C363.84 26.768 364.148 26.46 364.694 26.46C365.31 26.46 365.716 26.88 365.716 27.664C365.716 29.064 364.946 29.778 363.924 30.016L363.63 29.358C363.938 29.274 364.218 29.106 364.47 28.84C364.708 28.574 364.806 28.294 364.75 28ZM373.496 28H372.278V25.998H366.286V25.186L372.418 18.2H373.496V24.864H375.316V25.998H373.496V28ZM372.278 20.16L367.966 24.864H372.278V20.16ZM384.148 22.918C384.148 24.584 383.756 25.872 382.958 26.768C382.16 27.678 381.096 28.126 379.766 28.126C378.142 28.126 376.868 27.44 376.238 26.39L377.246 25.69C377.806 26.474 378.828 26.922 379.934 26.922C380.844 26.922 381.572 26.558 382.146 25.83C382.72 25.116 382.958 24.22 382.888 23.156C382.426 24.22 381.264 25.004 379.71 25.004C378.618 25.004 377.722 24.696 377.022 24.066C376.308 23.45 375.958 22.638 375.958 21.644C375.958 20.552 376.336 19.684 377.092 19.04C377.848 18.396 378.856 18.074 380.102 18.074C382.622 18.074 384.148 19.838 384.148 22.918ZM382.678 21.602C382.468 20.3 381.572 19.278 379.962 19.278C378.282 19.278 377.246 20.146 377.246 21.602C377.246 22.988 378.296 23.8 379.934 23.8C380.676 23.8 381.306 23.576 381.796 23.128C382.286 22.68 382.58 22.176 382.678 21.602ZM385.086 20.804L384.638 19.754L387.998 18.144H388.796V28H387.592V19.642L385.086 20.804Z" fill="#1A3341"/>
<path d="M354.527 157.372L353.651 157.06C353.951 155.572 355.079 154.504 356.867 154.504C358.595 154.504 359.651 155.5 359.651 157.024C359.651 157.828 359.303 158.632 358.871 159.208C358.655 159.508 358.379 159.796 358.055 160.096C357.395 160.684 356.927 160.996 356.243 161.428L355.319 162.004H359.963V163H353.423V162.184L355.247 160.972C355.571 160.768 355.799 160.612 355.931 160.516C356.063 160.432 356.279 160.276 356.567 160.072C356.855 159.868 357.071 159.688 357.215 159.556C357.347 159.424 357.527 159.256 357.731 159.04C358.283 158.44 358.487 157.888 358.547 157.132C358.547 156.04 357.839 155.548 356.795 155.548C356.147 155.548 355.631 155.728 355.259 156.088C354.887 156.448 354.635 156.88 354.527 157.372ZM360.795 158.8C360.795 157.504 361.095 156.46 361.707 155.68C362.307 154.9 363.195 154.504 364.359 154.504C366.747 154.504 367.935 156.076 367.935 158.8C367.935 160.108 367.635 161.14 367.047 161.92C366.447 162.7 365.559 163.096 364.383 163.096C363.255 163.096 362.379 162.7 361.743 161.908C361.107 161.116 360.795 160.084 360.795 158.8ZM361.899 158.8C361.899 160.852 362.835 162.076 364.383 162.076C366.015 162.076 366.831 160.984 366.831 158.8C366.831 156.616 366.003 155.524 364.359 155.524C362.691 155.524 361.899 156.724 361.899 158.8ZM369.791 157.372L368.915 157.06C369.215 155.572 370.343 154.504 372.131 154.504C373.859 154.504 374.915 155.5 374.915 157.024C374.915 157.828 374.567 158.632 374.135 159.208C373.919 159.508 373.643 159.796 373.319 160.096C372.659 160.684 372.191 160.996 371.507 161.428L370.583 162.004H375.227V163H368.687V162.184L370.511 160.972C370.835 160.768 371.063 160.612 371.195 160.516C371.327 160.432 371.543 160.276 371.831 160.072C372.119 159.868 372.335 159.688 372.479 159.556C372.611 159.424 372.791 159.256 372.995 159.04C373.547 158.44 373.751 157.888 373.811 157.132C373.811 156.04 373.103 155.548 372.059 155.548C371.411 155.548 370.895 155.728 370.523 156.088C370.151 156.448 369.899 156.88 369.791 157.372ZM376.887 157.048L375.987 156.64C376.431 155.344 377.595 154.492 379.335 154.492C380.163 154.492 380.847 154.684 381.375 155.068C381.903 155.452 382.167 155.968 382.167 156.604C382.167 157.576 381.651 158.296 380.691 158.572C381.615 158.632 382.359 159.328 382.359 160.576C382.359 161.368 382.071 161.992 381.495 162.436C380.919 162.88 380.187 163.108 379.287 163.108C377.451 163.108 376.179 162.232 375.759 160.852L376.731 160.432C377.247 161.524 378.123 162.076 379.359 162.076C380.523 162.076 381.255 161.536 381.255 160.588C381.255 159.664 380.535 159.196 379.095 159.196H378.159V158.2H378.903C380.211 158.2 381.063 157.612 381.063 156.808C381.063 155.98 380.379 155.512 379.287 155.512C378.003 155.512 377.223 156.172 376.887 157.048Z" fill="#1A3341" fill-opacity="0.6"/>
<path d="M340 40C340 38.8954 340.895 38 342 38H394C395.105 38 396 38.8954 396 40V148H340V40Z" fill="url(#paint6_linear_7026_9114)"/>
<path opacity="0.2" d="M352 38H384V148H352V38Z" fill="url(#paint7_linear_7026_9114)"/>
<path opacity="0.04" d="M384 38H394C395.105 38 396 38.8954 396 40V148H384V38Z" fill="#0D262C"/>
<path opacity="0.5" d="M340 40C340 38.8954 340.895 38 342 38H352V148H340V40Z" fill="url(#paint8_linear_7026_9114)"/>
<path d="M164.308 23.136H158.74V22.236H164.308V23.136ZM171.258 27H165.846V26.004H168.402V19.836L166.254 20.832L165.87 19.932L168.75 18.552H169.434V26.004H171.258V27ZM177.962 27H176.918V25.284H172.382V24.588L177.038 18.6H177.962V24.312H179.282V25.284H177.962V27ZM176.918 20.28L173.822 24.312H176.918V20.28ZM181.977 27.18L181.185 26.724L187.389 18.336L188.145 18.888L181.977 27.18ZM179.889 20.616C179.889 20.016 180.093 19.524 180.513 19.14C180.933 18.756 181.449 18.564 182.085 18.564C182.709 18.564 183.225 18.756 183.645 19.14C184.065 19.524 184.269 20.016 184.269 20.616C184.269 21.204 184.065 21.696 183.645 22.08C183.225 22.464 182.709 22.656 182.085 22.656C181.449 22.656 180.933 22.464 180.513 22.08C180.093 21.696 179.889 21.204 179.889 20.616ZM180.897 20.616C180.897 21.3 181.449 21.804 182.085 21.804C182.745 21.804 183.261 21.324 183.261 20.616C183.261 19.908 182.721 19.428 182.085 19.428C181.425 19.428 180.897 19.908 180.897 20.616ZM185.661 26.472C185.241 26.088 185.037 25.596 185.037 24.996C185.037 24.396 185.241 23.904 185.661 23.52C186.081 23.148 186.597 22.956 187.233 22.956C187.857 22.956 188.373 23.148 188.793 23.52C189.213 23.904 189.417 24.396 189.417 24.996C189.417 25.584 189.213 26.076 188.793 26.46C188.373 26.856 187.857 27.048 187.233 27.048C186.597 27.048 186.081 26.856 185.661 26.472ZM186.045 24.996C186.045 25.68 186.597 26.184 187.233 26.184C187.893 26.184 188.409 25.704 188.409 24.996C188.409 24.288 187.869 23.808 187.233 23.808C186.573 23.808 186.045 24.288 186.045 24.996Z" fill="#7DA4C1"/>
<path d="M201.747 36.3536C201.943 36.1583 201.943 35.8417 201.747 35.6465L198.566 32.4645C198.37 32.2692 198.054 32.2692 197.858 32.4645C197.663 32.6597 197.663 32.9763 197.858 33.1716L200.687 36L197.858 38.8284C197.663 39.0237 197.663 39.3403 197.858 39.5355C198.054 39.7308 198.37 39.7308 198.566 39.5355L201.747 36.3536ZM150 36.5L201.394 36.5L201.394 35.5L150 35.5L150 36.5Z" fill="#7DA4C1"/>
<path d="M289.978 23.136H284.41V22.236H289.978V23.136ZM291.036 22.8C291.036 21.504 291.312 20.46 291.852 19.68C292.392 18.9 293.184 18.504 294.24 18.504C296.388 18.504 297.456 20.076 297.456 22.8C297.456 24.108 297.192 25.14 296.652 25.92C296.112 26.7 295.32 27.096 294.264 27.096C293.244 27.096 292.452 26.7 291.888 25.908C291.324 25.116 291.036 24.084 291.036 22.8ZM292.14 22.8C292.14 24.828 292.932 26.076 294.264 26.076C295.656 26.076 296.352 24.984 296.352 22.8C296.352 20.616 295.644 19.524 294.24 19.524C292.836 19.524 292.14 20.616 292.14 22.8ZM298.448 26.316C298.448 25.98 298.76 25.644 299.192 25.644C299.588 25.644 299.912 25.98 299.912 26.316C299.912 26.7 299.612 27.024 299.192 27.024C298.76 27.024 298.448 26.7 298.448 26.316ZM301.984 21.372L301.108 21.06C301.408 19.56 302.488 18.504 304.264 18.504C305.992 18.504 306.988 19.5 306.988 21.024C306.952 22.284 306.364 23.28 305.476 24.084C304.852 24.672 304.36 25.008 303.7 25.428L302.776 26.004H307.3V27H301V26.184L302.704 24.972C303.7 24.264 304.348 23.772 304.648 23.496C305.476 22.74 305.884 21.948 305.884 21.132C305.884 20.028 305.212 19.548 304.192 19.548C302.896 19.548 302.224 20.364 301.984 21.372ZM310.307 27.18L309.515 26.724L315.719 18.336L316.475 18.888L310.307 27.18ZM308.219 20.616C308.219 20.016 308.423 19.524 308.843 19.14C309.263 18.756 309.779 18.564 310.415 18.564C311.039 18.564 311.555 18.756 311.975 19.14C312.395 19.524 312.599 20.016 312.599 20.616C312.599 21.204 312.395 21.696 311.975 22.08C311.555 22.464 311.039 22.656 310.415 22.656C309.779 22.656 309.263 22.464 308.843 22.08C308.423 21.696 308.219 21.204 308.219 20.616ZM309.227 20.616C309.227 21.3 309.779 21.804 310.415 21.804C311.075 21.804 311.591 21.324 311.591 20.616C311.591 19.908 311.051 19.428 310.415 19.428C309.755 19.428 309.227 19.908 309.227 20.616ZM313.991 26.472C313.571 26.088 313.367 25.596 313.367 24.996C313.367 24.396 313.571 23.904 313.991 23.52C314.411 23.148 314.927 22.956 315.563 22.956C316.187 22.956 316.703 23.148 317.123 23.52C317.543 23.904 317.747 24.396 317.747 24.996C317.747 25.584 317.543 26.076 317.123 26.46C316.703 26.856 316.187 27.048 315.563 27.048C314.927 27.048 314.411 26.856 313.991 26.472ZM314.375 24.996C314.375 25.68 314.927 26.184 315.563 26.184C316.223 26.184 316.739 25.704 316.739 24.996C316.739 24.288 316.199 23.808 315.563 23.808C314.903 23.808 314.375 24.288 314.375 24.996Z" fill="#7DA4C1"/>
<path d="M328.778 36.3536C328.973 36.1583 328.973 35.8417 328.778 35.6464L325.596 32.4645C325.401 32.2692 325.084 32.2692 324.889 32.4645C324.693 32.6597 324.693 32.9763 324.889 33.1716L327.717 36L324.889 38.8284C324.693 39.0237 324.693 39.3403 324.889 39.5355C325.084 39.7308 325.401 39.7308 325.596 39.5355L328.778 36.3536ZM278 36.5L328.424 36.5L328.424 35.5L278 35.5L278 36.5Z" fill="#7DA4C1"/>
<defs>
<linearGradient id="paint0_linear_7026_9114" x1="240" y1="36" x2="240" y2="148" gradientUnits="userSpaceOnUse">
<stop stop-color="#45B8DB"/>
<stop offset="1" stop-color="#ADE4E4"/>
</linearGradient>
<linearGradient id="paint1_linear_7026_9114" x1="240" y1="36" x2="240" y2="148" gradientUnits="userSpaceOnUse">
<stop stop-color="white" stop-opacity="0"/>
<stop offset="0.739583" stop-color="white"/>
</linearGradient>
<linearGradient id="paint2_linear_7026_9114" x1="218" y1="-182.4" x2="218" y2="148" gradientUnits="userSpaceOnUse">
<stop stop-color="white" stop-opacity="0.05"/>
<stop offset="0.75" stop-color="white" stop-opacity="0.8"/>
</linearGradient>
<linearGradient id="paint3_linear_7026_9114" x1="112" y1="20" x2="112" y2="148" gradientUnits="userSpaceOnUse">
<stop stop-color="#45B8DB"/>
<stop offset="1" stop-color="#ADE4E4"/>
</linearGradient>
<linearGradient id="paint4_linear_7026_9114" x1="112" y1="20" x2="112" y2="148" gradientUnits="userSpaceOnUse">
<stop stop-color="white" stop-opacity="0"/>
<stop offset="0.739583" stop-color="white"/>
</linearGradient>
<linearGradient id="paint5_linear_7026_9114" x1="90" y1="-229.6" x2="90" y2="148" gradientUnits="userSpaceOnUse">
<stop stop-color="white" stop-opacity="0.05"/>
<stop offset="0.75" stop-color="white" stop-opacity="0.8"/>
</linearGradient>
<linearGradient id="paint6_linear_7026_9114" x1="368" y1="38" x2="368" y2="148" gradientUnits="userSpaceOnUse">
<stop stop-color="#45B8DB"/>
<stop offset="1" stop-color="#ADE4E4"/>
</linearGradient>
<linearGradient id="paint7_linear_7026_9114" x1="368" y1="38" x2="368" y2="148" gradientUnits="userSpaceOnUse">
<stop stop-color="white" stop-opacity="0"/>
<stop offset="0.739583" stop-color="white"/>
</linearGradient>
<linearGradient id="paint8_linear_7026_9114" x1="346" y1="-176.5" x2="346" y2="148" gradientUnits="userSpaceOnUse">
<stop stop-color="white" stop-opacity="0.05"/>
<stop offset="0.75" stop-color="white" stop-opacity="0.8"/>
</linearGradient>
</defs>
</svg>
