<svg width="1120" height="225" viewBox="0 0 1120 225" fill="none" xmlns="http://www.w3.org/2000/svg">
<rect y="131" width="10" height="10" fill="url(#paint0_linear_3006_39323)"/>
<path d="M18.432 135.8C18.432 134.588 18.84 133.556 19.668 132.728C20.496 131.9 21.504 131.492 22.704 131.492C23.892 131.492 24.9 131.9 25.728 132.716C26.556 133.532 26.964 134.564 26.964 135.8C26.964 137.024 26.556 138.044 25.728 138.872C24.9 139.7 23.892 140.108 22.704 140.108C21.504 140.108 20.496 139.7 19.668 138.884C18.84 138.068 18.432 137.036 18.432 135.8ZM19.572 135.8C19.572 136.736 19.884 137.516 20.496 138.128C21.108 138.752 21.84 139.064 22.704 139.064C23.592 139.064 24.336 138.752 24.936 138.14C25.524 137.528 25.824 136.748 25.824 135.8C25.824 134.852 25.524 134.072 24.912 133.46C24.3 132.848 23.556 132.536 22.704 132.536C21.828 132.536 21.096 132.848 20.484 133.46C19.872 134.072 19.572 134.852 19.572 135.8ZM33.4464 140H28.0104V133.76H29.0184V139.04H32.5104V133.76H33.5184V139.04H34.3944V141.512H33.4464V140ZM39.9801 138.212L40.6281 138.812C40.0521 139.676 39.2241 140.108 38.1321 140.108C37.1361 140.108 36.3321 139.808 35.7201 139.22C35.1081 138.632 34.8081 137.852 34.8081 136.868C34.8081 135.92 35.0841 135.14 35.6481 134.528C36.2001 133.916 36.9801 133.616 37.9881 133.616C38.8161 133.616 39.5121 133.88 40.0521 134.396C40.5921 134.912 40.8681 135.596 40.8681 136.448C40.8681 136.724 40.8441 136.976 40.8081 137.204H35.8881C35.9481 138.44 36.8601 139.16 38.1681 139.16C38.9001 139.16 39.5961 138.776 39.9801 138.212ZM37.9161 134.54C36.7761 134.54 36.0321 135.236 35.8761 136.292H39.8001C39.7401 135.188 39.0321 134.54 37.9161 134.54ZM47.4841 140H46.4761V137.3H42.8761V140H41.8681V133.76H42.8761V136.352H46.4761V133.76H47.4841V140ZM49.8342 140H48.8262V133.76H49.8342V136.556L52.9902 133.76H54.3462L51.1182 136.628L54.5022 140H53.1582L50.3502 137.252L49.8342 137.732V140ZM55.4323 135.26L54.9163 134.504C55.4923 133.964 56.4883 133.616 57.4123 133.616C59.0803 133.616 59.9683 134.528 59.9683 136.148V140H58.9603V139.076C58.5643 139.652 57.7843 140.084 56.7763 140.084C55.4203 140.084 54.5083 139.328 54.5083 138.176C54.5083 136.868 55.6243 136.244 57.4963 136.244C58.0843 136.244 58.5643 136.304 58.9603 136.424C58.9603 135.212 58.5283 134.564 57.2923 134.564C56.6683 134.564 56.0443 134.792 55.4323 135.26ZM57.0163 139.172C57.4843 139.172 57.9043 139.04 58.2523 138.788C58.6003 138.536 58.8283 138.248 58.9603 137.948V137.312C58.6123 137.192 58.1683 137.132 57.6283 137.132C56.2603 137.132 55.5763 137.468 55.5763 138.14C55.5763 138.776 56.1523 139.172 57.0163 139.172ZM70.2641 140H69.2561V134.708H65.7281V140H64.7201V133.76H70.2641V140ZM71.2599 136.868C71.2599 135.92 71.5719 135.14 72.1839 134.528C72.7959 133.916 73.5879 133.616 74.5599 133.616C75.5439 133.616 76.3479 133.916 76.9599 134.528C77.5719 135.14 77.8839 135.92 77.8839 136.868C77.8839 137.816 77.5719 138.584 76.9599 139.196C76.3359 139.808 75.5319 140.108 74.5599 140.108C73.5879 140.108 72.7959 139.808 72.1839 139.196C71.5719 138.584 71.2599 137.816 71.2599 136.868ZM72.3279 136.868C72.3279 137.528 72.5319 138.08 72.9519 138.512C73.3719 138.944 73.8999 139.16 74.5599 139.16C75.2199 139.16 75.7719 138.944 76.1919 138.524C76.6119 138.104 76.8159 137.552 76.8159 136.868C76.8159 136.184 76.5999 135.632 76.1799 135.2C75.7479 134.78 75.2079 134.564 74.5599 134.564C73.9119 134.564 73.3839 134.78 72.9639 135.2C72.5439 135.62 72.3279 136.184 72.3279 136.868ZM87.0881 135.332L83.2841 140H82.3601V133.76H83.3681V138.44L87.1601 133.76H88.0961V140H87.0881V135.332ZM91.1034 134.708H88.7154V133.76H94.5234V134.708H92.1114V140H91.1034V134.708ZM94.569 136.868C94.569 135.92 94.881 135.14 95.493 134.528C96.105 133.916 96.897 133.616 97.869 133.616C98.853 133.616 99.657 133.916 100.269 134.528C100.881 135.14 101.193 135.92 101.193 136.868C101.193 137.816 100.881 138.584 100.269 139.196C99.645 139.808 98.841 140.108 97.869 140.108C96.897 140.108 96.105 139.808 95.493 139.196C94.881 138.584 94.569 137.816 94.569 136.868ZM95.637 136.868C95.637 137.528 95.841 138.08 96.261 138.512C96.681 138.944 97.209 139.16 97.869 139.16C98.529 139.16 99.081 138.944 99.501 138.524C99.921 138.104 100.125 137.552 100.125 136.868C100.125 136.184 99.909 135.632 99.489 135.2C99.057 134.78 98.517 134.564 97.869 134.564C97.221 134.564 96.693 134.78 96.273 135.2C95.853 135.62 95.637 136.184 95.637 136.868ZM103.2 140H102.192V133.76H106.74V134.708H103.2V140ZM107.649 135.26L107.133 134.504C107.709 133.964 108.705 133.616 109.629 133.616C111.297 133.616 112.185 134.528 112.185 136.148V140H111.177V139.076C110.781 139.652 110.001 140.084 108.993 140.084C107.637 140.084 106.725 139.328 106.725 138.176C106.725 136.868 107.841 136.244 109.713 136.244C110.301 136.244 110.781 136.304 111.177 136.424C111.177 135.212 110.745 134.564 109.509 134.564C108.885 134.564 108.261 134.792 107.649 135.26ZM109.233 139.172C109.701 139.172 110.121 139.04 110.469 138.788C110.817 138.536 111.045 138.248 111.177 137.948V137.312C110.829 137.192 110.385 137.132 109.845 137.132C108.477 137.132 107.793 137.468 107.793 138.14C107.793 138.776 108.369 139.172 109.233 139.172ZM114.467 140H113.459V133.76H114.383L116.687 136.808L118.931 133.76H119.795V140H118.787V135.536L116.675 138.416L114.467 135.536V140ZM125.366 134.372L124.49 134.06C124.79 132.572 125.918 131.504 127.706 131.504C129.434 131.504 130.49 132.5 130.49 134.024C130.49 134.828 130.142 135.632 129.71 136.208C129.494 136.508 129.218 136.796 128.894 137.096C128.234 137.684 127.766 137.996 127.082 138.428L126.158 139.004H130.802V140H124.262V139.184L126.086 137.972C126.41 137.768 126.638 137.612 126.77 137.516C126.902 137.432 127.118 137.276 127.406 137.072C127.694 136.868 127.91 136.688 128.054 136.556C128.186 136.424 128.366 136.256 128.57 136.04C129.122 135.44 129.326 134.888 129.386 134.132C129.386 133.04 128.678 132.548 127.634 132.548C126.986 132.548 126.47 132.728 126.098 133.088C125.726 133.448 125.474 133.88 125.366 134.372ZM131.633 135.8C131.633 134.504 131.933 133.46 132.545 132.68C133.145 131.9 134.033 131.504 135.197 131.504C137.585 131.504 138.773 133.076 138.773 135.8C138.773 137.108 138.473 138.14 137.885 138.92C137.285 139.7 136.397 140.096 135.221 140.096C134.093 140.096 133.217 139.7 132.581 138.908C131.945 138.116 131.633 137.084 131.633 135.8ZM132.737 135.8C132.737 137.852 133.673 139.076 135.221 139.076C136.853 139.076 137.669 137.984 137.669 135.8C137.669 133.616 136.841 132.524 135.197 132.524C133.529 132.524 132.737 133.724 132.737 135.8ZM140.63 134.372L139.754 134.06C140.054 132.572 141.182 131.504 142.97 131.504C144.698 131.504 145.754 132.5 145.754 134.024C145.754 134.828 145.406 135.632 144.974 136.208C144.758 136.508 144.482 136.796 144.158 137.096C143.498 137.684 143.03 137.996 142.346 138.428L141.422 139.004H146.066V140H139.526V139.184L141.35 137.972C141.674 137.768 141.902 137.612 142.034 137.516C142.166 137.432 142.382 137.276 142.67 137.072C142.958 136.868 143.174 136.688 143.318 136.556C143.45 136.424 143.63 136.256 143.834 136.04C144.386 135.44 144.59 134.888 144.65 134.132C144.65 133.04 143.942 132.548 142.898 132.548C142.25 132.548 141.734 132.728 141.362 133.088C140.99 133.448 140.738 133.88 140.63 134.372ZM147.857 134.372L146.981 134.06C147.281 132.572 148.409 131.504 150.197 131.504C151.925 131.504 152.981 132.5 152.981 134.024C152.981 134.828 152.633 135.632 152.201 136.208C151.985 136.508 151.709 136.796 151.385 137.096C150.725 137.684 150.257 137.996 149.573 138.428L148.649 139.004H153.293V140H146.753V139.184L148.577 137.972C148.901 137.768 149.129 137.612 149.261 137.516C149.393 137.432 149.609 137.276 149.897 137.072C150.185 136.868 150.401 136.688 150.545 136.556C150.677 136.424 150.857 136.256 151.061 136.04C151.613 135.44 151.817 134.888 151.877 134.132C151.877 133.04 151.169 132.548 150.125 132.548C149.477 132.548 148.961 132.728 148.589 133.088C148.217 133.448 147.965 133.88 147.857 134.372ZM158.827 140H157.819V133.76H162.367V134.708H158.827V140ZM162.437 136.868C162.437 135.92 162.749 135.14 163.361 134.528C163.973 133.916 164.765 133.616 165.737 133.616C166.721 133.616 167.525 133.916 168.137 134.528C168.749 135.14 169.061 135.92 169.061 136.868C169.061 137.816 168.749 138.584 168.137 139.196C167.513 139.808 166.709 140.108 165.737 140.108C164.765 140.108 163.973 139.808 163.361 139.196C162.749 138.584 162.437 137.816 162.437 136.868ZM163.505 136.868C163.505 137.528 163.709 138.08 164.129 138.512C164.549 138.944 165.077 139.16 165.737 139.16C166.397 139.16 166.949 138.944 167.369 138.524C167.789 138.104 167.993 137.552 167.993 136.868C167.993 136.184 167.777 135.632 167.357 135.2C166.925 134.78 166.385 134.564 165.737 134.564C165.089 134.564 164.561 134.78 164.141 135.2C163.721 135.62 163.505 136.184 163.505 136.868ZM170.042 141.512H169.082V139.04H169.778C170.414 138.068 170.654 136.7 170.654 134.336V133.76H175.238V139.04H176.138V141.512H175.178V140H170.042V141.512ZM174.23 134.72H171.602V135.152C171.602 136.748 171.35 138.044 170.858 139.04H174.23V134.72ZM177.439 135.26L176.923 134.504C177.499 133.964 178.495 133.616 179.419 133.616C181.087 133.616 181.975 134.528 181.975 136.148V140H180.967V139.076C180.571 139.652 179.791 140.084 178.783 140.084C177.427 140.084 176.515 139.328 176.515 138.176C176.515 136.868 177.631 136.244 179.503 136.244C180.091 136.244 180.571 136.304 180.967 136.424C180.967 135.212 180.535 134.564 179.299 134.564C178.675 134.564 178.051 134.792 177.439 135.26ZM179.023 139.172C179.491 139.172 179.911 139.04 180.259 138.788C180.607 138.536 180.835 138.248 180.967 137.948V137.312C180.619 137.192 180.175 137.132 179.635 137.132C178.267 137.132 177.583 137.468 177.583 138.14C177.583 138.776 178.159 139.172 179.023 139.172Z" fill="#76848D"/>
<rect y="155" width="10" height="10" fill="#737AF9"/>
<path d="M18.432 159.8C18.432 158.588 18.84 157.556 19.668 156.728C20.496 155.9 21.504 155.492 22.704 155.492C23.892 155.492 24.9 155.9 25.728 156.716C26.556 157.532 26.964 158.564 26.964 159.8C26.964 161.024 26.556 162.044 25.728 162.872C24.9 163.7 23.892 164.108 22.704 164.108C21.504 164.108 20.496 163.7 19.668 162.884C18.84 162.068 18.432 161.036 18.432 159.8ZM19.572 159.8C19.572 160.736 19.884 161.516 20.496 162.128C21.108 162.752 21.84 163.064 22.704 163.064C23.592 163.064 24.336 162.752 24.936 162.14C25.524 161.528 25.824 160.748 25.824 159.8C25.824 158.852 25.524 158.072 24.912 157.46C24.3 156.848 23.556 156.536 22.704 156.536C21.828 156.536 21.096 156.848 20.484 157.46C19.872 158.072 19.572 158.852 19.572 159.8ZM33.4464 164H28.0104V157.76H29.0184V163.04H32.5104V157.76H33.5184V163.04H34.3944V165.512H33.4464V164ZM39.9801 162.212L40.6281 162.812C40.0521 163.676 39.2241 164.108 38.1321 164.108C37.1361 164.108 36.3321 163.808 35.7201 163.22C35.1081 162.632 34.8081 161.852 34.8081 160.868C34.8081 159.92 35.0841 159.14 35.6481 158.528C36.2001 157.916 36.9801 157.616 37.9881 157.616C38.8161 157.616 39.5121 157.88 40.0521 158.396C40.5921 158.912 40.8681 159.596 40.8681 160.448C40.8681 160.724 40.8441 160.976 40.8081 161.204H35.8881C35.9481 162.44 36.8601 163.16 38.1681 163.16C38.9001 163.16 39.5961 162.776 39.9801 162.212ZM37.9161 158.54C36.7761 158.54 36.0321 159.236 35.8761 160.292H39.8001C39.7401 159.188 39.0321 158.54 37.9161 158.54ZM47.4841 164H46.4761V161.3H42.8761V164H41.8681V157.76H42.8761V160.352H46.4761V157.76H47.4841V164ZM49.8342 164H48.8262V157.76H49.8342V160.556L52.9902 157.76H54.3462L51.1182 160.628L54.5022 164H53.1582L50.3502 161.252L49.8342 161.732V164ZM55.4323 159.26L54.9163 158.504C55.4923 157.964 56.4883 157.616 57.4123 157.616C59.0803 157.616 59.9683 158.528 59.9683 160.148V164H58.9603V163.076C58.5643 163.652 57.7843 164.084 56.7763 164.084C55.4203 164.084 54.5083 163.328 54.5083 162.176C54.5083 160.868 55.6243 160.244 57.4963 160.244C58.0843 160.244 58.5643 160.304 58.9603 160.424C58.9603 159.212 58.5283 158.564 57.2923 158.564C56.6683 158.564 56.0443 158.792 55.4323 159.26ZM57.0163 163.172C57.4843 163.172 57.9043 163.04 58.2523 162.788C58.6003 162.536 58.8283 162.248 58.9603 161.948V161.312C58.6123 161.192 58.1683 161.132 57.6283 161.132C56.2603 161.132 55.5763 161.468 55.5763 162.14C55.5763 162.776 56.1523 163.172 57.0163 163.172ZM70.2641 164H69.2561V158.708H65.7281V164H64.7201V157.76H70.2641V164ZM71.2599 160.868C71.2599 159.92 71.5719 159.14 72.1839 158.528C72.7959 157.916 73.5879 157.616 74.5599 157.616C75.5439 157.616 76.3479 157.916 76.9599 158.528C77.5719 159.14 77.8839 159.92 77.8839 160.868C77.8839 161.816 77.5719 162.584 76.9599 163.196C76.3359 163.808 75.5319 164.108 74.5599 164.108C73.5879 164.108 72.7959 163.808 72.1839 163.196C71.5719 162.584 71.2599 161.816 71.2599 160.868ZM72.3279 160.868C72.3279 161.528 72.5319 162.08 72.9519 162.512C73.3719 162.944 73.8999 163.16 74.5599 163.16C75.2199 163.16 75.7719 162.944 76.1919 162.524C76.6119 162.104 76.8159 161.552 76.8159 160.868C76.8159 160.184 76.5999 159.632 76.1799 159.2C75.7479 158.78 75.2079 158.564 74.5599 158.564C73.9119 158.564 73.3839 158.78 72.9639 159.2C72.5439 159.62 72.3279 160.184 72.3279 160.868ZM87.0881 159.332L83.2841 164H82.3601V157.76H83.3681V162.44L87.1601 157.76H88.0961V164H87.0881V159.332ZM91.1034 158.708H88.7154V157.76H94.5234V158.708H92.1114V164H91.1034V158.708ZM94.569 160.868C94.569 159.92 94.881 159.14 95.493 158.528C96.105 157.916 96.897 157.616 97.869 157.616C98.853 157.616 99.657 157.916 100.269 158.528C100.881 159.14 101.193 159.92 101.193 160.868C101.193 161.816 100.881 162.584 100.269 163.196C99.645 163.808 98.841 164.108 97.869 164.108C96.897 164.108 96.105 163.808 95.493 163.196C94.881 162.584 94.569 161.816 94.569 160.868ZM95.637 160.868C95.637 161.528 95.841 162.08 96.261 162.512C96.681 162.944 97.209 163.16 97.869 163.16C98.529 163.16 99.081 162.944 99.501 162.524C99.921 162.104 100.125 161.552 100.125 160.868C100.125 160.184 99.909 159.632 99.489 159.2C99.057 158.78 98.517 158.564 97.869 158.564C97.221 158.564 96.693 158.78 96.273 159.2C95.853 159.62 95.637 160.184 95.637 160.868ZM103.2 164H102.192V157.76H106.74V158.708H103.2V164ZM107.649 159.26L107.133 158.504C107.709 157.964 108.705 157.616 109.629 157.616C111.297 157.616 112.185 158.528 112.185 160.148V164H111.177V163.076C110.781 163.652 110.001 164.084 108.993 164.084C107.637 164.084 106.725 163.328 106.725 162.176C106.725 160.868 107.841 160.244 109.713 160.244C110.301 160.244 110.781 160.304 111.177 160.424C111.177 159.212 110.745 158.564 109.509 158.564C108.885 158.564 108.261 158.792 107.649 159.26ZM109.233 163.172C109.701 163.172 110.121 163.04 110.469 162.788C110.817 162.536 111.045 162.248 111.177 161.948V161.312C110.829 161.192 110.385 161.132 109.845 161.132C108.477 161.132 107.793 161.468 107.793 162.14C107.793 162.776 108.369 163.172 109.233 163.172ZM114.467 164H113.459V157.76H114.383L116.687 160.808L118.931 157.76H119.795V164H118.787V159.536L116.675 162.416L114.467 159.536V164ZM125.366 158.372L124.49 158.06C124.79 156.572 125.918 155.504 127.706 155.504C129.434 155.504 130.49 156.5 130.49 158.024C130.49 158.828 130.142 159.632 129.71 160.208C129.494 160.508 129.218 160.796 128.894 161.096C128.234 161.684 127.766 161.996 127.082 162.428L126.158 163.004H130.802V164H124.262V163.184L126.086 161.972C126.41 161.768 126.638 161.612 126.77 161.516C126.902 161.432 127.118 161.276 127.406 161.072C127.694 160.868 127.91 160.688 128.054 160.556C128.186 160.424 128.366 160.256 128.57 160.04C129.122 159.44 129.326 158.888 129.386 158.132C129.386 157.04 128.678 156.548 127.634 156.548C126.986 156.548 126.47 156.728 126.098 157.088C125.726 157.448 125.474 157.88 125.366 158.372ZM131.633 159.8C131.633 158.504 131.933 157.46 132.545 156.68C133.145 155.9 134.033 155.504 135.197 155.504C137.585 155.504 138.773 157.076 138.773 159.8C138.773 161.108 138.473 162.14 137.885 162.92C137.285 163.7 136.397 164.096 135.221 164.096C134.093 164.096 133.217 163.7 132.581 162.908C131.945 162.116 131.633 161.084 131.633 159.8ZM132.737 159.8C132.737 161.852 133.673 163.076 135.221 163.076C136.853 163.076 137.669 161.984 137.669 159.8C137.669 157.616 136.841 156.524 135.197 156.524C133.529 156.524 132.737 157.724 132.737 159.8ZM140.63 158.372L139.754 158.06C140.054 156.572 141.182 155.504 142.97 155.504C144.698 155.504 145.754 156.5 145.754 158.024C145.754 158.828 145.406 159.632 144.974 160.208C144.758 160.508 144.482 160.796 144.158 161.096C143.498 161.684 143.03 161.996 142.346 162.428L141.422 163.004H146.066V164H139.526V163.184L141.35 161.972C141.674 161.768 141.902 161.612 142.034 161.516C142.166 161.432 142.382 161.276 142.67 161.072C142.958 160.868 143.174 160.688 143.318 160.556C143.45 160.424 143.63 160.256 143.834 160.04C144.386 159.44 144.59 158.888 144.65 158.132C144.65 157.04 143.942 156.548 142.898 156.548C142.25 156.548 141.734 156.728 141.362 157.088C140.99 157.448 140.738 157.88 140.63 158.372ZM147.725 158.048L146.825 157.64C147.269 156.344 148.433 155.492 150.173 155.492C151.001 155.492 151.685 155.684 152.213 156.068C152.741 156.452 153.005 156.968 153.005 157.604C153.005 158.576 152.489 159.296 151.529 159.572C152.453 159.632 153.197 160.328 153.197 161.576C153.197 162.368 152.909 162.992 152.333 163.436C151.757 163.88 151.025 164.108 150.125 164.108C148.289 164.108 147.017 163.232 146.597 161.852L147.569 161.432C148.085 162.524 148.961 163.076 150.197 163.076C151.361 163.076 152.093 162.536 152.093 161.588C152.093 160.664 151.373 160.196 149.933 160.196H148.997V159.2H149.741C151.049 159.2 151.901 158.612 151.901 157.808C151.901 156.98 151.217 156.512 150.125 156.512C148.841 156.512 148.061 157.172 147.725 158.048ZM158.885 164H157.877V157.76H162.425V158.708H158.885V164ZM162.495 160.868C162.495 159.92 162.807 159.14 163.419 158.528C164.031 157.916 164.823 157.616 165.795 157.616C166.779 157.616 167.583 157.916 168.195 158.528C168.807 159.14 169.119 159.92 169.119 160.868C169.119 161.816 168.807 162.584 168.195 163.196C167.571 163.808 166.767 164.108 165.795 164.108C164.823 164.108 164.031 163.808 163.419 163.196C162.807 162.584 162.495 161.816 162.495 160.868ZM163.563 160.868C163.563 161.528 163.767 162.08 164.187 162.512C164.607 162.944 165.135 163.16 165.795 163.16C166.455 163.16 167.007 162.944 167.427 162.524C167.847 162.104 168.051 161.552 168.051 160.868C168.051 160.184 167.835 159.632 167.415 159.2C166.983 158.78 166.443 158.564 165.795 158.564C165.147 158.564 164.619 158.78 164.199 159.2C163.779 159.62 163.563 160.184 163.563 160.868ZM170.101 165.512H169.141V163.04H169.837C170.473 162.068 170.713 160.7 170.713 158.336V157.76H175.297V163.04H176.197V165.512H175.237V164H170.101V165.512ZM174.289 158.72H171.661V159.152C171.661 160.748 171.409 162.044 170.917 163.04H174.289V158.72ZM177.497 159.26L176.981 158.504C177.557 157.964 178.553 157.616 179.477 157.616C181.145 157.616 182.033 158.528 182.033 160.148V164H181.025V163.076C180.629 163.652 179.849 164.084 178.841 164.084C177.485 164.084 176.573 163.328 176.573 162.176C176.573 160.868 177.689 160.244 179.561 160.244C180.149 160.244 180.629 160.304 181.025 160.424C181.025 159.212 180.593 158.564 179.357 158.564C178.733 158.564 178.109 158.792 177.497 159.26ZM179.081 163.172C179.549 163.172 179.969 163.04 180.317 162.788C180.665 162.536 180.893 162.248 181.025 161.948V161.312C180.677 161.192 180.233 161.132 179.693 161.132C178.325 161.132 177.641 161.468 177.641 162.14C177.641 162.776 178.217 163.172 179.081 163.172Z" fill="#76848D"/>
<rect y="179" width="10" height="10" fill="#CDD3FB"/>
<path d="M26.028 188H24.936V180.62H19.98V188H18.888V179.6H26.028V188ZM28.538 190.4H27.53V181.76H28.538V182.54C28.958 181.928 29.63 181.616 30.554 181.616C31.466 181.616 32.198 181.904 32.738 182.492C33.278 183.08 33.542 183.836 33.542 184.772C33.542 185.732 33.254 186.524 32.678 187.16C32.09 187.796 31.346 188.108 30.434 188.108C29.594 188.108 28.958 187.892 28.538 187.472V190.4ZM30.446 182.564C29.534 182.564 28.826 183.152 28.538 183.86V186.188C28.898 186.836 29.498 187.16 30.35 187.16C30.962 187.16 31.478 186.944 31.874 186.512C32.27 186.08 32.474 185.528 32.474 184.844C32.474 183.452 31.694 182.564 30.446 182.564ZM34.187 184.868C34.187 183.92 34.499 183.14 35.111 182.528C35.723 181.916 36.515 181.616 37.487 181.616C38.471 181.616 39.275 181.916 39.887 182.528C40.499 183.14 40.811 183.92 40.811 184.868C40.811 185.816 40.499 186.584 39.887 187.196C39.263 187.808 38.459 188.108 37.487 188.108C36.515 188.108 35.723 187.808 35.111 187.196C34.499 186.584 34.187 185.816 34.187 184.868ZM35.255 184.868C35.255 185.528 35.459 186.08 35.879 186.512C36.299 186.944 36.827 187.16 37.487 187.16C38.147 187.16 38.699 186.944 39.119 186.524C39.539 186.104 39.743 185.552 39.743 184.868C39.743 184.184 39.527 183.632 39.107 183.2C38.675 182.78 38.135 182.564 37.487 182.564C36.839 182.564 36.311 182.78 35.891 183.2C35.471 183.62 35.255 184.184 35.255 184.868ZM42.8175 188H41.8095V181.76H46.3575V182.708H42.8175V188ZM52.6141 188H51.6061V185.3H48.0061V188H46.9981V181.76H48.0061V184.352H51.6061V181.76H52.6141V188ZM53.6082 184.868C53.6082 183.92 53.9202 183.14 54.5322 182.528C55.1442 181.916 55.9362 181.616 56.9082 181.616C57.8922 181.616 58.6962 181.916 59.3082 182.528C59.9202 183.14 60.2322 183.92 60.2322 184.868C60.2322 185.816 59.9202 186.584 59.3082 187.196C58.6842 187.808 57.8802 188.108 56.9082 188.108C55.9362 188.108 55.1442 187.808 54.5322 187.196C53.9202 186.584 53.6082 185.816 53.6082 184.868ZM54.6762 184.868C54.6762 185.528 54.8802 186.08 55.3002 186.512C55.7202 186.944 56.2482 187.16 56.9082 187.16C57.5682 187.16 58.1202 186.944 58.5402 186.524C58.9602 186.104 59.1642 185.552 59.1642 184.868C59.1642 184.184 58.9482 183.632 58.5282 183.2C58.0962 182.78 57.5562 182.564 56.9082 182.564C56.2602 182.564 55.7322 182.78 55.3122 183.2C54.8922 183.62 54.6762 184.184 54.6762 184.868ZM63.4867 188.12C62.2027 188.12 61.2547 187.64 60.6667 186.692L61.4587 186.14C61.8067 186.776 62.5747 187.184 63.4987 187.184C64.4947 187.184 65.2027 186.776 65.2027 186.104C65.2027 185.552 64.7827 185.276 63.9547 185.276H62.4907V184.364H63.8827C64.4947 184.364 64.9747 184.004 64.9747 183.464C64.9747 182.876 64.3507 182.54 63.4507 182.54C62.6947 182.54 62.0707 182.828 61.6027 183.416L60.8587 182.924C61.2787 182.204 62.2387 181.604 63.5467 181.604C65.1187 181.604 66.0427 182.264 66.0427 183.308C66.0427 183.896 65.7907 184.352 65.2987 184.652C66.0187 185 66.2707 185.42 66.2707 186.08C66.2707 186.716 66.0067 187.208 65.4907 187.568C64.9747 187.94 64.3027 188.12 63.4867 188.12ZM76.3685 188H75.3605V185.3H71.7605V188H70.7525V181.76H71.7605V184.352H75.3605V181.76H76.3685V188ZM78.1906 183.26L77.6746 182.504C78.2506 181.964 79.2466 181.616 80.1706 181.616C81.8386 181.616 82.7266 182.528 82.7266 184.148V188H81.7186V187.076C81.3226 187.652 80.5426 188.084 79.5346 188.084C78.1786 188.084 77.2666 187.328 77.2666 186.176C77.2666 184.868 78.3826 184.244 80.2546 184.244C80.8426 184.244 81.3226 184.304 81.7186 184.424C81.7186 183.212 81.2866 182.564 80.0506 182.564C79.4266 182.564 78.8026 182.792 78.1906 183.26ZM79.7746 187.172C80.2426 187.172 80.6626 187.04 81.0106 186.788C81.3586 186.536 81.5866 186.248 81.7186 185.948V185.312C81.3706 185.192 80.9266 185.132 80.3866 185.132C79.0186 185.132 78.3346 185.468 78.3346 186.14C78.3346 186.776 78.9106 187.172 79.7746 187.172ZM88.2224 182.372L87.3464 182.06C87.6464 180.572 88.7744 179.504 90.5624 179.504C92.2904 179.504 93.3464 180.5 93.3464 182.024C93.3464 182.828 92.9984 183.632 92.5664 184.208C92.3504 184.508 92.0744 184.796 91.7504 185.096C91.0904 185.684 90.6224 185.996 89.9384 186.428L89.0144 187.004H93.6584V188H87.1184V187.184L88.9424 185.972C89.2664 185.768 89.4944 185.612 89.6264 185.516C89.7584 185.432 89.9744 185.276 90.2624 185.072C90.5504 184.868 90.7664 184.688 90.9104 184.556C91.0424 184.424 91.2224 184.256 91.4264 184.04C91.9784 183.44 92.1824 182.888 92.2424 182.132C92.2424 181.04 91.5344 180.548 90.4904 180.548C89.8424 180.548 89.3264 180.728 88.9544 181.088C88.5824 181.448 88.3304 181.88 88.2224 182.372ZM94.4901 183.8C94.4901 182.504 94.7901 181.46 95.4021 180.68C96.0021 179.9 96.8901 179.504 98.0541 179.504C100.442 179.504 101.63 181.076 101.63 183.8C101.63 185.108 101.33 186.14 100.742 186.92C100.142 187.7 99.2541 188.096 98.0781 188.096C96.9501 188.096 96.0741 187.7 95.4381 186.908C94.8021 186.116 94.4901 185.084 94.4901 183.8ZM95.5941 183.8C95.5941 185.852 96.5301 187.076 98.0781 187.076C99.7101 187.076 100.526 185.984 100.526 183.8C100.526 181.616 99.6981 180.524 98.0541 180.524C96.3861 180.524 95.5941 181.724 95.5941 183.8ZM103.486 182.372L102.61 182.06C102.91 180.572 104.038 179.504 105.826 179.504C107.554 179.504 108.61 180.5 108.61 182.024C108.61 182.828 108.262 183.632 107.83 184.208C107.614 184.508 107.338 184.796 107.014 185.096C106.354 185.684 105.886 185.996 105.202 186.428L104.278 187.004H108.922V188H102.382V187.184L104.206 185.972C104.53 185.768 104.758 185.612 104.89 185.516C105.022 185.432 105.238 185.276 105.526 185.072C105.814 184.868 106.03 184.688 106.174 184.556C106.306 184.424 106.486 184.256 106.69 184.04C107.242 183.44 107.446 182.888 107.506 182.132C107.506 181.04 106.798 180.548 105.754 180.548C105.106 180.548 104.59 180.728 104.218 181.088C103.846 181.448 103.594 181.88 103.486 182.372ZM115.55 188H114.506V186.284H109.37V185.588L114.626 179.6H115.55V185.312H117.11V186.284H115.55V188ZM114.506 181.28L110.81 185.312H114.506V181.28ZM122.398 188H121.39V181.76H125.938V182.708H122.398V188ZM126.008 184.868C126.008 183.92 126.32 183.14 126.932 182.528C127.544 181.916 128.336 181.616 129.308 181.616C130.292 181.616 131.096 181.916 131.708 182.528C132.32 183.14 132.632 183.92 132.632 184.868C132.632 185.816 132.32 186.584 131.708 187.196C131.084 187.808 130.28 188.108 129.308 188.108C128.336 188.108 127.544 187.808 126.932 187.196C126.32 186.584 126.008 185.816 126.008 184.868ZM127.076 184.868C127.076 185.528 127.28 186.08 127.7 186.512C128.12 186.944 128.648 187.16 129.308 187.16C129.968 187.16 130.52 186.944 130.94 186.524C131.36 186.104 131.564 185.552 131.564 184.868C131.564 184.184 131.348 183.632 130.928 183.2C130.496 182.78 129.956 182.564 129.308 182.564C128.66 182.564 128.132 182.78 127.712 183.2C127.292 183.62 127.076 184.184 127.076 184.868ZM133.614 189.512H132.654V187.04H133.35C133.986 186.068 134.226 184.7 134.226 182.336V181.76H138.81V187.04H139.71V189.512H138.75V188H133.614V189.512ZM137.802 182.72H135.174V183.152C135.174 184.748 134.922 186.044 134.43 187.04H137.802V182.72Z" fill="#76848D"/>
<path d="M300.863 221H297.527V212.6H300.923C303.071 212.6 303.887 213.38 303.887 214.688C303.887 215.624 303.491 216.26 302.699 216.608C303.623 216.8 304.187 217.508 304.187 218.6C304.187 220.244 302.963 221 300.863 221ZM300.971 217.208H298.619V219.98H300.851C302.375 219.98 303.059 219.536 303.059 218.54C303.059 217.652 302.363 217.208 300.971 217.208ZM300.827 213.62H298.619V216.212H301.007C302.075 216.212 302.771 215.732 302.771 214.916C302.771 214.016 302.255 213.62 300.827 213.62ZM310.162 219.2L310.882 219.716C310.414 220.592 309.358 221.108 308.314 221.108C307.318 221.108 306.514 220.808 305.902 220.22C305.29 219.632 304.978 218.852 304.978 217.868C304.978 216.932 305.278 216.152 305.89 215.54C306.502 214.928 307.282 214.616 308.254 214.616C309.37 214.616 310.366 215.12 310.786 215.888L310.006 216.416C309.586 215.852 309.01 215.564 308.278 215.564C307.63 215.564 307.102 215.78 306.682 216.212C306.262 216.644 306.046 217.196 306.046 217.868C306.046 218.552 306.262 219.104 306.706 219.524C307.138 219.944 307.702 220.16 308.41 220.16C309.154 220.16 309.742 219.836 310.162 219.2ZM316.076 219.212L316.724 219.812C316.148 220.676 315.32 221.108 314.228 221.108C313.232 221.108 312.428 220.808 311.816 220.22C311.204 219.632 310.904 218.852 310.904 217.868C310.904 216.92 311.18 216.14 311.744 215.528C312.296 214.916 313.076 214.616 314.084 214.616C314.912 214.616 315.608 214.88 316.148 215.396C316.688 215.912 316.964 216.596 316.964 217.448C316.964 217.724 316.94 217.976 316.904 218.204H311.984C312.044 219.44 312.956 220.16 314.264 220.16C314.996 220.16 315.692 219.776 316.076 219.212ZM314.012 215.54C312.872 215.54 312.128 216.236 311.972 217.292H315.896C315.836 216.188 315.128 215.54 314.012 215.54ZM318.972 221H317.964V214.76H318.888L321.192 217.808L323.436 214.76H324.3V221H323.292V216.536L321.18 219.416L318.972 216.536V221ZM330.377 216.332L326.573 221H325.649V214.76H326.657V219.44L330.449 214.76H331.385V221H330.377V216.332ZM333.733 223.4H332.725V214.76H333.733V215.54C334.153 214.928 334.825 214.616 335.749 214.616C336.661 214.616 337.393 214.904 337.933 215.492C338.473 216.08 338.737 216.836 338.737 217.772C338.737 218.732 338.449 219.524 337.873 220.16C337.285 220.796 336.541 221.108 335.629 221.108C334.789 221.108 334.153 220.892 333.733 220.472V223.4ZM335.641 215.564C334.729 215.564 334.021 216.152 333.733 216.86V219.188C334.093 219.836 334.693 220.16 335.545 220.16C336.157 220.16 336.673 219.944 337.069 219.512C337.465 219.08 337.669 218.528 337.669 217.844C337.669 216.452 336.889 215.564 335.641 215.564ZM345.345 221H344.337V218.3H340.737V221H339.729V214.76H340.737V217.352H344.337V214.76H345.345V221ZM348.944 221H346.688V214.76H347.696V216.704H349.04C350.876 216.704 351.608 217.556 351.608 218.84C351.608 220.1 350.804 221 348.944 221ZM348.932 217.664H347.696V220.04H348.92C350.072 220.04 350.54 219.632 350.54 218.852C350.54 218.06 350 217.664 348.932 217.664ZM353.516 221H352.496V214.76H353.516V221ZM359.581 216.332L355.777 221H354.853V214.76H355.861V219.44L359.653 214.76H360.589V221H359.581V216.332ZM355.813 212.072H356.761C356.773 212.66 357.157 213.056 357.829 213.056C358.465 213.056 358.861 212.66 358.861 212.072H359.809C359.797 213.164 358.945 213.86 357.829 213.86C356.629 213.86 355.825 213.176 355.813 212.072ZM370.734 212.084L370.914 213.008C370.566 213.14 370.014 213.248 369.234 213.332C368.454 213.416 367.914 213.536 367.614 213.68C366.714 214.124 366.186 214.952 366.054 216.176L366.102 216.188C366.618 215.372 367.458 214.964 368.61 214.964C369.486 214.964 370.194 215.228 370.734 215.744C371.274 216.272 371.538 217.004 371.538 217.928C371.538 218.828 371.238 219.584 370.65 220.196C370.062 220.808 369.294 221.12 368.37 221.12C366.342 221.12 365.082 219.764 365.082 217.376C365.082 216.176 365.238 215.216 365.55 214.484C365.85 213.764 366.402 213.2 367.182 212.804C367.602 212.6 368.226 212.444 369.054 212.36C369.882 212.276 370.446 212.18 370.734 212.084ZM366.15 217.556V217.64C366.15 218.408 366.354 219.02 366.774 219.476C367.182 219.932 367.71 220.16 368.358 220.16C368.994 220.16 369.498 219.956 369.894 219.536C370.278 219.128 370.47 218.612 370.47 217.988C370.47 216.728 369.726 215.924 368.394 215.924C367.242 215.924 366.402 216.656 366.15 217.556ZM373.008 216.26L372.492 215.504C373.068 214.964 374.064 214.616 374.988 214.616C376.656 214.616 377.544 215.528 377.544 217.148V221H376.536V220.076C376.14 220.652 375.36 221.084 374.352 221.084C372.996 221.084 372.084 220.328 372.084 219.176C372.084 217.868 373.2 217.244 375.072 217.244C375.66 217.244 376.14 217.304 376.536 217.424C376.536 216.212 376.104 215.564 374.868 215.564C374.244 215.564 373.62 215.792 373.008 216.26ZM374.592 220.172C375.06 220.172 375.48 220.04 375.828 219.788C376.176 219.536 376.404 219.248 376.536 218.948V218.312C376.188 218.192 375.744 218.132 375.204 218.132C373.836 218.132 373.152 218.468 373.152 219.14C373.152 219.776 373.728 220.172 374.592 220.172ZM384.434 221H383.426V218.3H379.826V221H378.818V214.76H379.826V217.352H383.426V214.76H384.434V221ZM386.784 221H385.776V214.76H386.784V217.556L389.94 214.76H391.296L388.068 217.628L391.452 221H390.108L387.3 218.252L386.784 218.732V221Z" fill="#76848D"/>
<path d="M560.039 221H558.947V212.6H560.039V221ZM562.791 221H561.699V212.6H562.707L565.899 216.824L568.983 212.6H569.967V221H568.875V214.484L566.007 218.348H565.743L562.791 214.484V221ZM572.726 221H571.622V212.6H577.658V213.62H572.726V216.5H577.322V217.52H572.726V221Z" fill="#76848D"/>
<path d="M790.087 212.6H791.179V217.448C791.179 218.66 790.843 219.56 790.171 220.172C789.499 220.784 788.695 221.096 787.747 221.096C786.703 221.096 785.839 220.772 785.143 220.124C784.447 219.476 784.099 218.564 784.099 217.376V212.6H785.191V217.22C785.191 218.12 785.431 218.816 785.923 219.308C786.403 219.812 787.015 220.064 787.747 220.064C789.271 220.064 790.087 219.008 790.087 217.28V212.6ZM799.849 212.6V221H798.997L793.849 214.592V221H792.793V212.6H793.657L798.793 219.032V212.6H799.849Z" fill="#76848D"/>
<path d="M999.651 216.8C999.651 215.588 1000.06 214.556 1000.89 213.728C1001.71 212.9 1002.72 212.492 1003.92 212.492C1005.11 212.492 1006.12 212.9 1006.95 213.716C1007.77 214.532 1008.18 215.564 1008.18 216.8C1008.18 218.024 1007.77 219.044 1006.95 219.872C1006.12 220.7 1005.11 221.108 1003.92 221.108C1002.72 221.108 1001.71 220.7 1000.89 219.884C1000.06 219.068 999.651 218.036 999.651 216.8ZM1000.79 216.8C1000.79 217.736 1001.1 218.516 1001.71 219.128C1002.33 219.752 1003.06 220.064 1003.92 220.064C1004.81 220.064 1005.55 219.752 1006.15 219.14C1006.74 218.528 1007.04 217.748 1007.04 216.8C1007.04 215.852 1006.74 215.072 1006.13 214.46C1005.52 213.848 1004.77 213.536 1003.92 213.536C1003.05 213.536 1002.31 213.848 1001.7 214.46C1001.09 215.072 1000.79 215.852 1000.79 216.8ZM1015 217.22H1010.62V216.2H1014.99C1014.8 214.556 1013.63 213.512 1011.82 213.512C1010.86 213.512 1009.76 214.016 1009.13 214.796L1008.4 214.1C1009.17 213.08 1010.55 212.492 1011.89 212.492C1013.2 212.492 1014.23 212.876 1014.99 213.644C1015.74 214.412 1016.12 215.456 1016.12 216.764C1016.12 218.048 1015.73 219.092 1014.96 219.896C1014.2 220.7 1013.14 221.108 1011.8 221.108C1010.49 221.108 1009.16 220.592 1008.38 219.5L1009.12 218.876C1009.68 219.644 1010.79 220.088 1011.86 220.088C1012.74 220.088 1013.48 219.824 1014.04 219.296C1014.6 218.768 1014.93 218.072 1015 217.22ZM1023.97 218.936L1024.59 219.632C1023.95 220.532 1022.68 221.108 1021.33 221.108C1020.01 221.108 1018.95 220.712 1018.17 219.932C1017.39 219.152 1016.99 218.108 1016.99 216.8C1016.99 215.564 1017.39 214.544 1018.17 213.716C1018.95 212.9 1019.97 212.492 1021.24 212.492C1022.68 212.492 1023.86 213.068 1024.47 213.884L1023.76 214.568C1023.08 213.884 1022.24 213.536 1021.27 213.536C1020.29 213.536 1019.54 213.836 1018.97 214.436C1018.41 215.036 1018.13 215.828 1018.13 216.8C1018.13 217.784 1018.43 218.576 1019.03 219.164C1019.63 219.764 1020.43 220.064 1021.4 220.064C1022.44 220.064 1023.29 219.692 1023.97 218.936ZM1026.8 217.904V221H1025.71V212.6H1028.98C1031.27 212.6 1032.42 213.476 1032.42 215.24C1032.42 215.996 1032.14 216.632 1031.59 217.136C1031.03 217.652 1030.15 217.904 1028.96 217.904H1026.8ZM1029.02 213.62H1026.8V216.896H1028.94C1030.52 216.896 1031.29 216.272 1031.29 215.228C1031.29 214.16 1030.54 213.62 1029.02 213.62Z" fill="#76848D"/>
<path d="M335.389 49.434L334.367 49.07C334.717 47.334 336.033 46.088 338.119 46.088C340.135 46.088 341.367 47.25 341.367 49.028C341.367 49.966 340.961 50.904 340.457 51.576C340.205 51.926 339.883 52.262 339.505 52.612C338.735 53.298 338.189 53.662 337.391 54.166L336.313 54.838H341.731V56H334.101V55.048L336.229 53.634C336.607 53.396 336.873 53.214 337.027 53.102C337.181 53.004 337.433 52.822 337.769 52.584C338.105 52.346 338.357 52.136 338.525 51.982C338.679 51.828 338.889 51.632 339.127 51.38C339.771 50.68 340.009 50.036 340.079 49.154C340.079 47.88 339.253 47.306 338.035 47.306C337.279 47.306 336.677 47.516 336.243 47.936C335.809 48.356 335.515 48.86 335.389 49.434ZM343.64 56C343.122 56.056 342.73 55.762 342.73 55.258C342.73 54.768 343.038 54.46 343.584 54.46C344.2 54.46 344.606 54.88 344.606 55.664C344.606 57.064 343.836 57.778 342.814 58.016L342.52 57.358C342.828 57.274 343.108 57.106 343.36 56.84C343.598 56.574 343.696 56.294 343.64 56ZM345.624 51.366C345.624 49.672 346.044 48.37 346.87 47.446C347.696 46.536 348.732 46.074 349.978 46.074C351.616 46.074 352.904 46.816 353.45 47.992L352.498 48.636C351.924 47.726 351.07 47.278 349.922 47.278C349.054 47.278 348.326 47.614 347.738 48.286C347.15 48.972 346.856 49.896 346.87 51.086C347.416 50.064 348.69 49.448 350.09 49.448C351.224 49.448 352.134 49.742 352.792 50.344C353.45 50.946 353.786 51.744 353.786 52.724C353.786 53.718 353.422 54.544 352.68 55.174C351.938 55.804 351.014 56.126 349.908 56.126C347.262 56.126 345.624 54.404 345.624 51.366ZM347.024 52.556C347.29 53.942 348.34 54.922 349.894 54.922C350.65 54.922 351.28 54.726 351.77 54.32C352.26 53.928 352.498 53.41 352.498 52.78C352.498 51.394 351.518 50.652 350.02 50.652C349.194 50.652 348.508 50.848 347.976 51.24C347.43 51.632 347.122 52.066 347.024 52.556Z" fill="#2A3C3C"/>
<path d="M335.389 49.434L334.367 49.07C334.717 47.334 336.033 46.088 338.119 46.088C340.135 46.088 341.367 47.25 341.367 49.028C341.367 49.966 340.961 50.904 340.457 51.576C340.205 51.926 339.883 52.262 339.505 52.612C338.735 53.298 338.189 53.662 337.391 54.166L336.313 54.838H341.731V56H334.101V55.048L336.229 53.634C336.607 53.396 336.873 53.214 337.027 53.102C337.181 53.004 337.433 52.822 337.769 52.584C338.105 52.346 338.357 52.136 338.525 51.982C338.679 51.828 338.889 51.632 339.127 51.38C339.771 50.68 340.009 50.036 340.079 49.154C340.079 47.88 339.253 47.306 338.035 47.306C337.279 47.306 336.677 47.516 336.243 47.936C335.809 48.356 335.515 48.86 335.389 49.434ZM343.64 56C343.122 56.056 342.73 55.762 342.73 55.258C342.73 54.768 343.038 54.46 343.584 54.46C344.2 54.46 344.606 54.88 344.606 55.664C344.606 57.064 343.836 57.778 342.814 58.016L342.52 57.358C342.828 57.274 343.108 57.106 343.36 56.84C343.598 56.574 343.696 56.294 343.64 56ZM345.624 51.366C345.624 49.672 346.044 48.37 346.87 47.446C347.696 46.536 348.732 46.074 349.978 46.074C351.616 46.074 352.904 46.816 353.45 47.992L352.498 48.636C351.924 47.726 351.07 47.278 349.922 47.278C349.054 47.278 348.326 47.614 347.738 48.286C347.15 48.972 346.856 49.896 346.87 51.086C347.416 50.064 348.69 49.448 350.09 49.448C351.224 49.448 352.134 49.742 352.792 50.344C353.45 50.946 353.786 51.744 353.786 52.724C353.786 53.718 353.422 54.544 352.68 55.174C351.938 55.804 351.014 56.126 349.908 56.126C347.262 56.126 345.624 54.404 345.624 51.366ZM347.024 52.556C347.29 53.942 348.34 54.922 349.894 54.922C350.65 54.922 351.28 54.726 351.77 54.32C352.26 53.928 352.498 53.41 352.498 52.78C352.498 51.394 351.518 50.652 350.02 50.652C349.194 50.652 348.508 50.848 347.976 51.24C347.43 51.632 347.122 52.066 347.024 52.556Z" fill="#1A3341"/>
<path d="M320 68C320 66.8954 320.895 66 322 66H366C367.105 66 368 66.8954 368 68V205H320V68Z" fill="url(#paint1_linear_3006_39323)"/>
<path opacity="0.2" d="M332 66H356V205H332V66Z" fill="url(#paint2_linear_3006_39323)"/>
<path opacity="0.04" d="M356 66H366C367.105 66 368 66.8954 368 68V205H356V66Z" fill="#0D262C"/>
<path opacity="0.5" d="M320 68C320 66.8954 320.895 66 322 66H332V205H320V68Z" fill="url(#paint3_linear_3006_39323)"/>
<path d="M399.341 60.434L398.319 60.07C398.669 58.334 399.985 57.088 402.071 57.088C404.087 57.088 405.319 58.25 405.319 60.028C405.319 60.966 404.913 61.904 404.409 62.576C404.157 62.926 403.835 63.262 403.457 63.612C402.687 64.298 402.141 64.662 401.343 65.166L400.265 65.838H405.683V67H398.053V66.048L400.181 64.634C400.559 64.396 400.825 64.214 400.979 64.102C401.133 64.004 401.385 63.822 401.721 63.584C402.057 63.346 402.309 63.136 402.477 62.982C402.631 62.828 402.841 62.632 403.079 62.38C403.723 61.68 403.961 61.036 404.031 60.154C404.031 58.88 403.205 58.306 401.987 58.306C401.231 58.306 400.629 58.516 400.195 58.936C399.761 59.356 399.467 59.86 399.341 60.434ZM407.592 67C407.074 67.056 406.682 66.762 406.682 66.258C406.682 65.768 406.99 65.46 407.536 65.46C408.152 65.46 408.558 65.88 408.558 66.664C408.558 68.064 407.788 68.778 406.766 69.016L406.472 68.358C406.78 68.274 407.06 68.106 407.312 67.84C407.55 67.574 407.648 67.294 407.592 67ZM416.338 67H415.12V64.998H409.128V64.186L415.26 57.2H416.338V63.864H418.158V64.998H416.338V67ZM415.12 59.16L410.808 63.864H415.12V59.16Z" fill="#2A3C3C"/>
<path d="M399.341 60.434L398.319 60.07C398.669 58.334 399.985 57.088 402.071 57.088C404.087 57.088 405.319 58.25 405.319 60.028C405.319 60.966 404.913 61.904 404.409 62.576C404.157 62.926 403.835 63.262 403.457 63.612C402.687 64.298 402.141 64.662 401.343 65.166L400.265 65.838H405.683V67H398.053V66.048L400.181 64.634C400.559 64.396 400.825 64.214 400.979 64.102C401.133 64.004 401.385 63.822 401.721 63.584C402.057 63.346 402.309 63.136 402.477 62.982C402.631 62.828 402.841 62.632 403.079 62.38C403.723 61.68 403.961 61.036 404.031 60.154C404.031 58.88 403.205 58.306 401.987 58.306C401.231 58.306 400.629 58.516 400.195 58.936C399.761 59.356 399.467 59.86 399.341 60.434ZM407.592 67C407.074 67.056 406.682 66.762 406.682 66.258C406.682 65.768 406.99 65.46 407.536 65.46C408.152 65.46 408.558 65.88 408.558 66.664C408.558 68.064 407.788 68.778 406.766 69.016L406.472 68.358C406.78 68.274 407.06 68.106 407.312 67.84C407.55 67.574 407.648 67.294 407.592 67ZM416.338 67H415.12V64.998H409.128V64.186L415.26 57.2H416.338V63.864H418.158V64.998H416.338V67ZM415.12 59.16L410.808 63.864H415.12V59.16Z" fill="#1A3341"/>
<path opacity="0.4" d="M384 79C384 77.8954 384.895 77 386 77H430C431.105 77 432 77.8954 432 79V205H384V79Z" fill="url(#paint4_linear_3006_39323)"/>
<path opacity="0.2" d="M396 77H420V205H396V77Z" fill="url(#paint5_linear_3006_39323)"/>
<path opacity="0.04" d="M420 77H430C431.105 77 432 77.8954 432 79V205H420V77Z" fill="#0D262C"/>
<path opacity="0.5" d="M384 79C384 77.8954 384.895 77 386 77H396V205H384V79Z" fill="url(#paint6_linear_3006_39323)"/>
<path d="M271.099 28.056L270.049 27.58C270.567 26.068 271.925 25.074 273.955 25.074C274.921 25.074 275.719 25.298 276.335 25.746C276.951 26.194 277.259 26.796 277.259 27.538C277.259 28.672 276.657 29.512 275.537 29.834C276.615 29.904 277.483 30.716 277.483 32.172C277.483 33.096 277.147 33.824 276.475 34.342C275.803 34.86 274.949 35.126 273.899 35.126C271.757 35.126 270.273 34.104 269.783 32.494L270.917 32.004C271.519 33.278 272.541 33.922 273.983 33.922C275.341 33.922 276.195 33.292 276.195 32.186C276.195 31.108 275.355 30.562 273.675 30.562H272.583V29.4H273.451C274.977 29.4 275.971 28.714 275.971 27.776C275.971 26.81 275.173 26.264 273.899 26.264C272.401 26.264 271.491 27.034 271.099 28.056ZM279.571 35C279.053 35.056 278.661 34.762 278.661 34.258C278.661 33.768 278.969 33.46 279.515 33.46C280.131 33.46 280.537 33.88 280.537 34.664C280.537 36.064 279.767 36.778 278.745 37.016L278.451 36.358C278.759 36.274 279.039 36.106 279.291 35.84C279.529 35.574 279.627 35.294 279.571 35ZM281.556 30.1C281.556 28.588 281.906 27.37 282.62 26.46C283.32 25.55 284.356 25.088 285.714 25.088C288.5 25.088 289.886 26.922 289.886 30.1C289.886 31.626 289.536 32.83 288.85 33.74C288.15 34.65 287.114 35.112 285.742 35.112C284.426 35.112 283.404 34.65 282.662 33.726C281.92 32.802 281.556 31.598 281.556 30.1ZM282.844 30.1C282.844 32.494 283.936 33.922 285.742 33.922C287.646 33.922 288.598 32.648 288.598 30.1C288.598 27.552 287.632 26.278 285.714 26.278C283.768 26.278 282.844 27.678 282.844 30.1Z" fill="#2A3C3C"/>
<path d="M271.099 28.056L270.049 27.58C270.567 26.068 271.925 25.074 273.955 25.074C274.921 25.074 275.719 25.298 276.335 25.746C276.951 26.194 277.259 26.796 277.259 27.538C277.259 28.672 276.657 29.512 275.537 29.834C276.615 29.904 277.483 30.716 277.483 32.172C277.483 33.096 277.147 33.824 276.475 34.342C275.803 34.86 274.949 35.126 273.899 35.126C271.757 35.126 270.273 34.104 269.783 32.494L270.917 32.004C271.519 33.278 272.541 33.922 273.983 33.922C275.341 33.922 276.195 33.292 276.195 32.186C276.195 31.108 275.355 30.562 273.675 30.562H272.583V29.4H273.451C274.977 29.4 275.971 28.714 275.971 27.776C275.971 26.81 275.173 26.264 273.899 26.264C272.401 26.264 271.491 27.034 271.099 28.056ZM279.571 35C279.053 35.056 278.661 34.762 278.661 34.258C278.661 33.768 278.969 33.46 279.515 33.46C280.131 33.46 280.537 33.88 280.537 34.664C280.537 36.064 279.767 36.778 278.745 37.016L278.451 36.358C278.759 36.274 279.039 36.106 279.291 35.84C279.529 35.574 279.627 35.294 279.571 35ZM281.556 30.1C281.556 28.588 281.906 27.37 282.62 26.46C283.32 25.55 284.356 25.088 285.714 25.088C288.5 25.088 289.886 26.922 289.886 30.1C289.886 31.626 289.536 32.83 288.85 33.74C288.15 34.65 287.114 35.112 285.742 35.112C284.426 35.112 283.404 34.65 282.662 33.726C281.92 32.802 281.556 31.598 281.556 30.1ZM282.844 30.1C282.844 32.494 283.936 33.922 285.742 33.922C287.646 33.922 288.598 32.648 288.598 30.1C288.598 27.552 287.632 26.278 285.714 26.278C283.768 26.278 282.844 27.678 282.844 30.1Z" fill="#1A3341"/>
<path d="M256 47C256 45.8954 256.895 45 258 45H302C303.105 45 304 45.8954 304 47V205H256V47Z" fill="url(#paint7_linear_3006_39323)"/>
<path opacity="0.2" d="M268 45H292V205H268V45Z" fill="url(#paint8_linear_3006_39323)"/>
<path opacity="0.04" d="M292 45H302C303.105 45 304 45.8954 304 47V205H292V45Z" fill="#0D262C"/>
<path opacity="0.5" d="M256 47C256 45.8954 256.895 45 258 45H268V205H256V47Z" fill="url(#paint9_linear_3006_39323)"/>
<path d="M561.095 24.0559L560.045 23.5799C560.563 22.0679 561.921 21.0739 563.951 21.0739C564.917 21.0739 565.715 21.2979 566.331 21.7459C566.947 22.1939 567.255 22.7959 567.255 23.5379C567.255 24.6719 566.653 25.5119 565.533 25.8339C566.611 25.9039 567.479 26.7159 567.479 28.1719C567.479 29.0959 567.143 29.8239 566.471 30.3419C565.799 30.8599 564.945 31.1259 563.895 31.1259C561.753 31.1259 560.269 30.1039 559.779 28.4939L560.913 28.0039C561.515 29.2779 562.537 29.9219 563.979 29.9219C565.337 29.9219 566.191 29.2919 566.191 28.1859C566.191 27.1079 565.351 26.5619 563.671 26.5619H562.579V25.3999H563.447C564.973 25.3999 565.967 24.7139 565.967 23.7759C565.967 22.8099 565.169 22.2639 563.895 22.2639C562.397 22.2639 561.487 23.0339 561.095 24.0559ZM569.567 30.9999C569.049 31.0559 568.657 30.7619 568.657 30.2579C568.657 29.7679 568.965 29.4599 569.511 29.4599C570.127 29.4599 570.533 29.8799 570.533 30.6639C570.533 32.0639 569.763 32.7779 568.741 33.0159L568.447 32.3579C568.755 32.2739 569.035 32.1059 569.287 31.8399C569.525 31.5739 569.623 31.2939 569.567 30.9999ZM571.44 23.8039L570.992 22.7539L574.352 21.1439H575.15V30.9999H573.946V22.6419L571.44 23.8039Z" fill="#2A3C3C"/>
<path d="M561.095 24.0559L560.045 23.5799C560.563 22.0679 561.921 21.0739 563.951 21.0739C564.917 21.0739 565.715 21.2979 566.331 21.7459C566.947 22.1939 567.255 22.7959 567.255 23.5379C567.255 24.6719 566.653 25.5119 565.533 25.8339C566.611 25.9039 567.479 26.7159 567.479 28.1719C567.479 29.0959 567.143 29.8239 566.471 30.3419C565.799 30.8599 564.945 31.1259 563.895 31.1259C561.753 31.1259 560.269 30.1039 559.779 28.4939L560.913 28.0039C561.515 29.2779 562.537 29.9219 563.979 29.9219C565.337 29.9219 566.191 29.2919 566.191 28.1859C566.191 27.1079 565.351 26.5619 563.671 26.5619H562.579V25.3999H563.447C564.973 25.3999 565.967 24.7139 565.967 23.7759C565.967 22.8099 565.169 22.2639 563.895 22.2639C562.397 22.2639 561.487 23.0339 561.095 24.0559ZM569.567 30.9999C569.049 31.0559 568.657 30.7619 568.657 30.2579C568.657 29.7679 568.965 29.4599 569.511 29.4599C570.127 29.4599 570.533 29.8799 570.533 30.6639C570.533 32.0639 569.763 32.7779 568.741 33.0159L568.447 32.3579C568.755 32.2739 569.035 32.1059 569.287 31.8399C569.525 31.5739 569.623 31.2939 569.567 30.9999ZM571.44 23.8039L570.992 22.7539L574.352 21.1439H575.15V30.9999H573.946V22.6419L571.44 23.8039Z" fill="#1A3341"/>
<path d="M544 42.9999C544 41.8953 544.895 40.9999 546 40.9999H590C591.105 40.9999 592 41.8953 592 42.9999V205H544V42.9999Z" fill="url(#paint10_linear_3006_39323)"/>
<path opacity="0.2" d="M556 40.9999H580V205H556V40.9999Z" fill="url(#paint11_linear_3006_39323)"/>
<path opacity="0.04" d="M580 40.9999H590C591.105 40.9999 592 41.8953 592 42.9999V205H580V40.9999Z" fill="#0D262C"/>
<path opacity="0.5" d="M544 42.9999C544 41.8953 544.895 40.9999 546 40.9999H556V205H544V42.9999Z" fill="url(#paint12_linear_3006_39323)"/>
<path d="M625.095 24.0559L624.045 23.5799C624.563 22.0679 625.921 21.0739 627.951 21.0739C628.917 21.0739 629.715 21.2979 630.331 21.7459C630.947 22.1939 631.255 22.7959 631.255 23.5379C631.255 24.6719 630.653 25.5119 629.533 25.8339C630.611 25.9039 631.479 26.7159 631.479 28.1719C631.479 29.0959 631.143 29.8239 630.471 30.3419C629.799 30.8599 628.945 31.1259 627.895 31.1259C625.753 31.1259 624.269 30.1039 623.779 28.4939L624.913 28.0039C625.515 29.2779 626.537 29.9219 627.979 29.9219C629.337 29.9219 630.191 29.2919 630.191 28.1859C630.191 27.1079 629.351 26.5619 627.671 26.5619H626.579V25.3999H627.447C628.973 25.3999 629.967 24.7139 629.967 23.7759C629.967 22.8099 629.169 22.2639 627.895 22.2639C626.397 22.2639 625.487 23.0339 625.095 24.0559ZM633.567 30.9999C633.049 31.0559 632.657 30.7619 632.657 30.2579C632.657 29.7679 632.965 29.4599 633.511 29.4599C634.127 29.4599 634.533 29.8799 634.533 30.6639C634.533 32.0639 633.763 32.7779 632.741 33.0159L632.447 32.3579C632.755 32.2739 633.035 32.1059 633.287 31.8399C633.525 31.5739 633.623 31.2939 633.567 30.9999ZM635.44 23.8039L634.992 22.7539L638.352 21.1439H639.15V30.9999H637.946V22.6419L635.44 23.8039Z" fill="#2A3C3C"/>
<path d="M625.095 24.0559L624.045 23.5799C624.563 22.0679 625.921 21.0739 627.951 21.0739C628.917 21.0739 629.715 21.2979 630.331 21.7459C630.947 22.1939 631.255 22.7959 631.255 23.5379C631.255 24.6719 630.653 25.5119 629.533 25.8339C630.611 25.9039 631.479 26.7159 631.479 28.1719C631.479 29.0959 631.143 29.8239 630.471 30.3419C629.799 30.8599 628.945 31.1259 627.895 31.1259C625.753 31.1259 624.269 30.1039 623.779 28.4939L624.913 28.0039C625.515 29.2779 626.537 29.9219 627.979 29.9219C629.337 29.9219 630.191 29.2919 630.191 28.1859C630.191 27.1079 629.351 26.5619 627.671 26.5619H626.579V25.3999H627.447C628.973 25.3999 629.967 24.7139 629.967 23.7759C629.967 22.8099 629.169 22.2639 627.895 22.2639C626.397 22.2639 625.487 23.0339 625.095 24.0559ZM633.567 30.9999C633.049 31.0559 632.657 30.7619 632.657 30.2579C632.657 29.7679 632.965 29.4599 633.511 29.4599C634.127 29.4599 634.533 29.8799 634.533 30.6639C634.533 32.0639 633.763 32.7779 632.741 33.0159L632.447 32.3579C632.755 32.2739 633.035 32.1059 633.287 31.8399C633.525 31.5739 633.623 31.2939 633.567 30.9999ZM635.44 23.8039L634.992 22.7539L638.352 21.1439H639.15V30.9999H637.946V22.6419L635.44 23.8039Z" fill="#1A3341"/>
<path opacity="0.4" d="M608 42.9999C608 41.8953 608.895 40.9999 610 40.9999H654C655.105 40.9999 656 41.8953 656 42.9999V205H608V42.9999Z" fill="url(#paint13_linear_3006_39323)"/>
<path opacity="0.2" d="M620 40.9999H644V205H620V40.9999Z" fill="url(#paint14_linear_3006_39323)"/>
<path opacity="0.04" d="M644 40.9999H654C655.105 40.9999 656 41.8953 656 42.9999V205H644V40.9999Z" fill="#0D262C"/>
<path opacity="0.5" d="M608 42.9999C608 41.8953 608.895 40.9999 610 40.9999H620V205H608V42.9999Z" fill="url(#paint15_linear_3006_39323)"/>
<path d="M495.454 3.05588L494.404 2.57988C494.922 1.06788 496.28 0.0738772 498.31 0.0738772C499.276 0.0738772 500.074 0.297878 500.69 0.745878C501.306 1.19388 501.614 1.79588 501.614 2.53788C501.614 3.67188 501.012 4.51188 499.892 4.83388C500.97 4.90388 501.838 5.71588 501.838 7.17188C501.838 8.09588 501.502 8.82388 500.83 9.34188C500.158 9.85988 499.304 10.1259 498.254 10.1259C496.112 10.1259 494.628 9.10388 494.138 7.49388L495.272 7.00388C495.874 8.27788 496.896 8.92188 498.338 8.92188C499.696 8.92188 500.55 8.29188 500.55 7.18588C500.55 6.10788 499.71 5.56188 498.03 5.56188H496.938V4.39988H497.806C499.332 4.39988 500.326 3.71388 500.326 2.77588C500.326 1.80988 499.528 1.26388 498.254 1.26388C496.756 1.26388 495.846 2.03388 495.454 3.05588ZM503.927 9.99988C503.409 10.0559 503.017 9.76188 503.017 9.25788C503.017 8.76788 503.325 8.45988 503.871 8.45988C504.487 8.45988 504.893 8.87988 504.893 9.66388C504.893 11.0639 504.123 11.7779 503.101 12.0159L502.807 11.3579C503.115 11.2739 503.395 11.1059 503.647 10.8399C503.885 10.5739 503.983 10.2939 503.927 9.99988ZM507.339 5.49188L506.331 5.22588L506.905 0.199877H513.065V1.38988H507.983L507.619 4.02188C508.109 3.65788 508.851 3.47588 509.845 3.47588C510.993 3.47588 511.889 3.78388 512.547 4.38588C513.191 5.00188 513.513 5.78588 513.513 6.75188C513.513 7.71788 513.149 8.52988 512.435 9.15988C511.707 9.80388 510.797 10.1259 509.719 10.1259C507.885 10.1259 506.359 9.25788 505.729 7.73188L506.849 7.25588C507.255 8.19388 508.305 8.93588 509.719 8.93588C511.329 8.93588 512.225 8.01188 512.225 6.79388C512.225 5.49188 511.175 4.65188 509.509 4.65188C508.613 4.65188 507.885 4.93188 507.339 5.49188Z" fill="#2A3C3C"/>
<path d="M495.454 3.05588L494.404 2.57988C494.922 1.06788 496.28 0.0738772 498.31 0.0738772C499.276 0.0738772 500.074 0.297878 500.69 0.745878C501.306 1.19388 501.614 1.79588 501.614 2.53788C501.614 3.67188 501.012 4.51188 499.892 4.83388C500.97 4.90388 501.838 5.71588 501.838 7.17188C501.838 8.09588 501.502 8.82388 500.83 9.34188C500.158 9.85988 499.304 10.1259 498.254 10.1259C496.112 10.1259 494.628 9.10388 494.138 7.49388L495.272 7.00388C495.874 8.27788 496.896 8.92188 498.338 8.92188C499.696 8.92188 500.55 8.29188 500.55 7.18588C500.55 6.10788 499.71 5.56188 498.03 5.56188H496.938V4.39988H497.806C499.332 4.39988 500.326 3.71388 500.326 2.77588C500.326 1.80988 499.528 1.26388 498.254 1.26388C496.756 1.26388 495.846 2.03388 495.454 3.05588ZM503.927 9.99988C503.409 10.0559 503.017 9.76188 503.017 9.25788C503.017 8.76788 503.325 8.45988 503.871 8.45988C504.487 8.45988 504.893 8.87988 504.893 9.66388C504.893 11.0639 504.123 11.7779 503.101 12.0159L502.807 11.3579C503.115 11.2739 503.395 11.1059 503.647 10.8399C503.885 10.5739 503.983 10.2939 503.927 9.99988ZM507.339 5.49188L506.331 5.22588L506.905 0.199877H513.065V1.38988H507.983L507.619 4.02188C508.109 3.65788 508.851 3.47588 509.845 3.47588C510.993 3.47588 511.889 3.78388 512.547 4.38588C513.191 5.00188 513.513 5.78588 513.513 6.75188C513.513 7.71788 513.149 8.52988 512.435 9.15988C511.707 9.80388 510.797 10.1259 509.719 10.1259C507.885 10.1259 506.359 9.25788 505.729 7.73188L506.849 7.25588C507.255 8.19388 508.305 8.93588 509.719 8.93588C511.329 8.93588 512.225 8.01188 512.225 6.79388C512.225 5.49188 511.175 4.65188 509.509 4.65188C508.613 4.65188 507.885 4.93188 507.339 5.49188Z" fill="#1A3341"/>
<path d="M480 21.9999C480 20.8953 480.895 19.9999 482 19.9999H526C527.105 19.9999 528 20.8953 528 21.9999V205H480V21.9999Z" fill="url(#paint16_linear_3006_39323)"/>
<path opacity="0.2" d="M492 19.9999H516V205H492V19.9999Z" fill="url(#paint17_linear_3006_39323)"/>
<path opacity="0.04" d="M516 19.9999H526C527.105 19.9999 528 20.8953 528 21.9999V205H516V19.9999Z" fill="#0D262C"/>
<path opacity="0.5" d="M480 21.9999C480 20.8953 480.895 19.9999 482 19.9999H492V205H480V21.9999Z" fill="url(#paint18_linear_3006_39323)"/>
<path d="M784.046 45.434L783.024 45.07C783.374 43.334 784.69 42.088 786.776 42.088C788.792 42.088 790.024 43.25 790.024 45.028C790.024 45.966 789.618 46.904 789.114 47.576C788.862 47.926 788.54 48.262 788.162 48.612C787.392 49.298 786.846 49.662 786.048 50.166L784.97 50.838H790.388V52H782.758V51.048L784.886 49.634C785.264 49.396 785.53 49.214 785.684 49.102C785.838 49.004 786.09 48.822 786.426 48.584C786.762 48.346 787.014 48.136 787.182 47.982C787.336 47.828 787.546 47.632 787.784 47.38C788.428 46.68 788.666 46.036 788.736 45.154C788.736 43.88 787.91 43.306 786.692 43.306C785.936 43.306 785.334 43.516 784.9 43.936C784.466 44.356 784.172 44.86 784.046 45.434ZM792.296 52C791.778 52.056 791.386 51.762 791.386 51.258C791.386 50.768 791.694 50.46 792.24 50.46C792.856 50.46 793.262 50.88 793.262 51.664C793.262 53.064 792.492 53.778 791.47 54.016L791.176 53.358C791.484 53.274 791.764 53.106 792.016 52.84C792.254 52.574 792.352 52.294 792.296 52ZM799.894 43.39H793.958V42.2H801.392V42.998L796.52 52H795.19L799.894 43.39Z" fill="#2A3C3C"/>
<path d="M784.046 45.434L783.024 45.07C783.374 43.334 784.69 42.088 786.776 42.088C788.792 42.088 790.024 43.25 790.024 45.028C790.024 45.966 789.618 46.904 789.114 47.576C788.862 47.926 788.54 48.262 788.162 48.612C787.392 49.298 786.846 49.662 786.048 50.166L784.97 50.838H790.388V52H782.758V51.048L784.886 49.634C785.264 49.396 785.53 49.214 785.684 49.102C785.838 49.004 786.09 48.822 786.426 48.584C786.762 48.346 787.014 48.136 787.182 47.982C787.336 47.828 787.546 47.632 787.784 47.38C788.428 46.68 788.666 46.036 788.736 45.154C788.736 43.88 787.91 43.306 786.692 43.306C785.936 43.306 785.334 43.516 784.9 43.936C784.466 44.356 784.172 44.86 784.046 45.434ZM792.296 52C791.778 52.056 791.386 51.762 791.386 51.258C791.386 50.768 791.694 50.46 792.24 50.46C792.856 50.46 793.262 50.88 793.262 51.664C793.262 53.064 792.492 53.778 791.47 54.016L791.176 53.358C791.484 53.274 791.764 53.106 792.016 52.84C792.254 52.574 792.352 52.294 792.296 52ZM799.894 43.39H793.958V42.2H801.392V42.998L796.52 52H795.19L799.894 43.39Z" fill="#1A3341"/>
<path d="M768 64C768 62.8954 768.895 62 770 62H814C815.105 62 816 62.8954 816 64V205H768V64Z" fill="url(#paint19_linear_3006_39323)"/>
<path opacity="0.2" d="M780 62H804V205H780V62Z" fill="url(#paint20_linear_3006_39323)"/>
<path opacity="0.04" d="M804 62H814C815.105 62 816 62.8954 816 64V205H804V62Z" fill="#0D262C"/>
<path opacity="0.5" d="M768 64C768 62.8954 768.895 62 770 62H780V205H768V64Z" fill="url(#paint21_linear_3006_39323)"/>
<path d="M847.341 61.434L846.319 61.07C846.669 59.334 847.985 58.088 850.071 58.088C852.087 58.088 853.319 59.25 853.319 61.028C853.319 61.966 852.913 62.904 852.409 63.576C852.157 63.926 851.835 64.262 851.457 64.612C850.687 65.298 850.141 65.662 849.343 66.166L848.265 66.838H853.683V68H846.053V67.048L848.181 65.634C848.559 65.396 848.825 65.214 848.979 65.102C849.133 65.004 849.385 64.822 849.721 64.584C850.057 64.346 850.309 64.136 850.477 63.982C850.631 63.828 850.841 63.632 851.079 63.38C851.723 62.68 851.961 62.036 852.031 61.154C852.031 59.88 851.205 59.306 849.987 59.306C849.231 59.306 848.629 59.516 848.195 59.936C847.761 60.356 847.467 60.86 847.341 61.434ZM855.592 68C855.074 68.056 854.682 67.762 854.682 67.258C854.682 66.768 854.99 66.46 855.536 66.46C856.152 66.46 856.558 66.88 856.558 67.664C856.558 69.064 855.788 69.778 854.766 70.016L854.472 69.358C854.78 69.274 855.06 69.106 855.312 68.84C855.55 68.574 855.648 68.294 855.592 68ZM864.338 68H863.12V65.998H857.128V65.186L863.26 58.2H864.338V64.864H866.158V65.998H864.338V68ZM863.12 60.16L858.808 64.864H863.12V60.16Z" fill="#2A3C3C"/>
<path d="M847.341 61.434L846.319 61.07C846.669 59.334 847.985 58.088 850.071 58.088C852.087 58.088 853.319 59.25 853.319 61.028C853.319 61.966 852.913 62.904 852.409 63.576C852.157 63.926 851.835 64.262 851.457 64.612C850.687 65.298 850.141 65.662 849.343 66.166L848.265 66.838H853.683V68H846.053V67.048L848.181 65.634C848.559 65.396 848.825 65.214 848.979 65.102C849.133 65.004 849.385 64.822 849.721 64.584C850.057 64.346 850.309 64.136 850.477 63.982C850.631 63.828 850.841 63.632 851.079 63.38C851.723 62.68 851.961 62.036 852.031 61.154C852.031 59.88 851.205 59.306 849.987 59.306C849.231 59.306 848.629 59.516 848.195 59.936C847.761 60.356 847.467 60.86 847.341 61.434ZM855.592 68C855.074 68.056 854.682 67.762 854.682 67.258C854.682 66.768 854.99 66.46 855.536 66.46C856.152 66.46 856.558 66.88 856.558 67.664C856.558 69.064 855.788 69.778 854.766 70.016L854.472 69.358C854.78 69.274 855.06 69.106 855.312 68.84C855.55 68.574 855.648 68.294 855.592 68ZM864.338 68H863.12V65.998H857.128V65.186L863.26 58.2H864.338V64.864H866.158V65.998H864.338V68ZM863.12 60.16L858.808 64.864H863.12V60.16Z" fill="#1A3341"/>
<path opacity="0.4" d="M832 80C832 78.8954 832.895 78 834 78H878C879.105 78 880 78.8954 880 80V205H832V80Z" fill="url(#paint22_linear_3006_39323)"/>
<path opacity="0.2" d="M844 78H868V205H844V78Z" fill="url(#paint23_linear_3006_39323)"/>
<path opacity="0.04" d="M868 78H878C879.105 78 880 78.8954 880 80V205H868V78Z" fill="#0D262C"/>
<path opacity="0.5" d="M832 80C832 78.8954 832.895 78 834 78H844V205H832V80Z" fill="url(#paint24_linear_3006_39323)"/>
<path d="M721.095 24.056L720.045 23.58C720.563 22.068 721.921 21.074 723.951 21.074C724.917 21.074 725.715 21.298 726.331 21.746C726.947 22.194 727.255 22.796 727.255 23.538C727.255 24.672 726.653 25.512 725.533 25.834C726.611 25.904 727.479 26.716 727.479 28.172C727.479 29.096 727.143 29.824 726.471 30.342C725.799 30.86 724.945 31.126 723.895 31.126C721.753 31.126 720.269 30.104 719.779 28.494L720.913 28.004C721.515 29.278 722.537 29.922 723.979 29.922C725.337 29.922 726.191 29.292 726.191 28.186C726.191 27.108 725.351 26.562 723.671 26.562H722.579V25.4H723.447C724.973 25.4 725.967 24.714 725.967 23.776C725.967 22.81 725.169 22.264 723.895 22.264C722.397 22.264 721.487 23.034 721.095 24.056ZM729.567 31C729.049 31.056 728.657 30.762 728.657 30.258C728.657 29.768 728.965 29.46 729.511 29.46C730.127 29.46 730.533 29.88 730.533 30.664C730.533 32.064 729.763 32.778 728.741 33.016L728.447 32.358C728.755 32.274 729.035 32.106 729.287 31.84C729.525 31.574 729.623 31.294 729.567 31ZM731.44 23.804L730.992 22.754L734.352 21.144H735.15V31H733.946V22.642L731.44 23.804Z" fill="#2A3C3C"/>
<path d="M721.095 24.056L720.045 23.58C720.563 22.068 721.921 21.074 723.951 21.074C724.917 21.074 725.715 21.298 726.331 21.746C726.947 22.194 727.255 22.796 727.255 23.538C727.255 24.672 726.653 25.512 725.533 25.834C726.611 25.904 727.479 26.716 727.479 28.172C727.479 29.096 727.143 29.824 726.471 30.342C725.799 30.86 724.945 31.126 723.895 31.126C721.753 31.126 720.269 30.104 719.779 28.494L720.913 28.004C721.515 29.278 722.537 29.922 723.979 29.922C725.337 29.922 726.191 29.292 726.191 28.186C726.191 27.108 725.351 26.562 723.671 26.562H722.579V25.4H723.447C724.973 25.4 725.967 24.714 725.967 23.776C725.967 22.81 725.169 22.264 723.895 22.264C722.397 22.264 721.487 23.034 721.095 24.056ZM729.567 31C729.049 31.056 728.657 30.762 728.657 30.258C728.657 29.768 728.965 29.46 729.511 29.46C730.127 29.46 730.533 29.88 730.533 30.664C730.533 32.064 729.763 32.778 728.741 33.016L728.447 32.358C728.755 32.274 729.035 32.106 729.287 31.84C729.525 31.574 729.623 31.294 729.567 31ZM731.44 23.804L730.992 22.754L734.352 21.144H735.15V31H733.946V22.642L731.44 23.804Z" fill="#1A3341"/>
<path d="M704 43C704 41.8954 704.895 41 706 41H750C751.105 41 752 41.8954 752 43V205H704V43Z" fill="url(#paint25_linear_3006_39323)"/>
<path opacity="0.2" d="M716 41H740V205H716V41Z" fill="url(#paint26_linear_3006_39323)"/>
<path opacity="0.04" d="M740 41H750C751.105 41 752 41.8954 752 43V205H740V41Z" fill="#0D262C"/>
<path opacity="0.5" d="M704 43C704 41.8954 704.895 41 706 41H716V205H704V43Z" fill="url(#paint27_linear_3006_39323)"/>
<path d="M1007.38 34.434L1006.35 34.07C1006.7 32.334 1008.02 31.088 1010.11 31.088C1012.12 31.088 1013.35 32.25 1013.35 34.028C1013.35 34.966 1012.95 35.904 1012.44 36.576C1012.19 36.926 1011.87 37.262 1011.49 37.612C1010.72 38.298 1010.18 38.662 1009.38 39.166L1008.3 39.838H1013.72V41H1006.09V40.048L1008.22 38.634C1008.59 38.396 1008.86 38.214 1009.01 38.102C1009.17 38.004 1009.42 37.822 1009.76 37.584C1010.09 37.346 1010.34 37.136 1010.51 36.982C1010.67 36.828 1010.88 36.632 1011.11 36.38C1011.76 35.68 1012 35.036 1012.07 34.154C1012.07 32.88 1011.24 32.306 1010.02 32.306C1009.27 32.306 1008.66 32.516 1008.23 32.936C1007.8 33.356 1007.5 33.86 1007.38 34.434ZM1015.63 41C1015.11 41.056 1014.72 40.762 1014.72 40.258C1014.72 39.768 1015.02 39.46 1015.57 39.46C1016.19 39.46 1016.59 39.88 1016.59 40.664C1016.59 42.064 1015.82 42.778 1014.8 43.016L1014.51 42.358C1014.81 42.274 1015.09 42.106 1015.35 41.84C1015.58 41.574 1015.68 41.294 1015.63 41ZM1025.76 35.918C1025.76 37.584 1025.37 38.872 1024.57 39.768C1023.77 40.678 1022.71 41.126 1021.38 41.126C1019.75 41.126 1018.48 40.44 1017.85 39.39L1018.86 38.69C1019.42 39.474 1020.44 39.922 1021.54 39.922C1022.45 39.922 1023.18 39.558 1023.76 38.83C1024.33 38.116 1024.57 37.22 1024.5 36.156C1024.04 37.22 1022.87 38.004 1021.32 38.004C1020.23 38.004 1019.33 37.696 1018.63 37.066C1017.92 36.45 1017.57 35.638 1017.57 34.644C1017.57 33.552 1017.95 32.684 1018.7 32.04C1019.46 31.396 1020.47 31.074 1021.71 31.074C1024.23 31.074 1025.76 32.838 1025.76 35.918ZM1024.29 34.602C1024.08 33.3 1023.18 32.278 1021.57 32.278C1019.89 32.278 1018.86 33.146 1018.86 34.602C1018.86 35.988 1019.91 36.8 1021.54 36.8C1022.29 36.8 1022.92 36.576 1023.41 36.128C1023.9 35.68 1024.19 35.176 1024.29 34.602Z" fill="#2A3C3C"/>
<path d="M1007.38 34.434L1006.35 34.07C1006.7 32.334 1008.02 31.088 1010.11 31.088C1012.12 31.088 1013.35 32.25 1013.35 34.028C1013.35 34.966 1012.95 35.904 1012.44 36.576C1012.19 36.926 1011.87 37.262 1011.49 37.612C1010.72 38.298 1010.18 38.662 1009.38 39.166L1008.3 39.838H1013.72V41H1006.09V40.048L1008.22 38.634C1008.59 38.396 1008.86 38.214 1009.01 38.102C1009.17 38.004 1009.42 37.822 1009.76 37.584C1010.09 37.346 1010.34 37.136 1010.51 36.982C1010.67 36.828 1010.88 36.632 1011.11 36.38C1011.76 35.68 1012 35.036 1012.07 34.154C1012.07 32.88 1011.24 32.306 1010.02 32.306C1009.27 32.306 1008.66 32.516 1008.23 32.936C1007.8 33.356 1007.5 33.86 1007.38 34.434ZM1015.63 41C1015.11 41.056 1014.72 40.762 1014.72 40.258C1014.72 39.768 1015.02 39.46 1015.57 39.46C1016.19 39.46 1016.59 39.88 1016.59 40.664C1016.59 42.064 1015.82 42.778 1014.8 43.016L1014.51 42.358C1014.81 42.274 1015.09 42.106 1015.35 41.84C1015.58 41.574 1015.68 41.294 1015.63 41ZM1025.76 35.918C1025.76 37.584 1025.37 38.872 1024.57 39.768C1023.77 40.678 1022.71 41.126 1021.38 41.126C1019.75 41.126 1018.48 40.44 1017.85 39.39L1018.86 38.69C1019.42 39.474 1020.44 39.922 1021.54 39.922C1022.45 39.922 1023.18 39.558 1023.76 38.83C1024.33 38.116 1024.57 37.22 1024.5 36.156C1024.04 37.22 1022.87 38.004 1021.32 38.004C1020.23 38.004 1019.33 37.696 1018.63 37.066C1017.92 36.45 1017.57 35.638 1017.57 34.644C1017.57 33.552 1017.95 32.684 1018.7 32.04C1019.46 31.396 1020.47 31.074 1021.71 31.074C1024.23 31.074 1025.76 32.838 1025.76 35.918ZM1024.29 34.602C1024.08 33.3 1023.18 32.278 1021.57 32.278C1019.89 32.278 1018.86 33.146 1018.86 34.602C1018.86 35.988 1019.91 36.8 1021.54 36.8C1022.29 36.8 1022.92 36.576 1023.41 36.128C1023.9 35.68 1024.19 35.176 1024.29 34.602Z" fill="#1A3341"/>
<path d="M992 53C992 51.8954 992.895 51 994 51H1038C1039.1 51 1040 51.8954 1040 53V205H992V53Z" fill="url(#paint28_linear_3006_39323)"/>
<path opacity="0.2" d="M1004 51H1028V205H1004V51Z" fill="url(#paint29_linear_3006_39323)"/>
<path opacity="0.04" d="M1028 51H1038C1039.1 51 1040 51.8954 1040 53V205H1028V51Z" fill="#0D262C"/>
<path opacity="0.5" d="M992 53C992 51.8954 992.895 51 994 51H1004V205H992V53Z" fill="url(#paint30_linear_3006_39323)"/>
<path d="M1071.38 34.434L1070.35 34.07C1070.7 32.334 1072.02 31.088 1074.11 31.088C1076.12 31.088 1077.35 32.25 1077.35 34.028C1077.35 34.966 1076.95 35.904 1076.44 36.576C1076.19 36.926 1075.87 37.262 1075.49 37.612C1074.72 38.298 1074.18 38.662 1073.38 39.166L1072.3 39.838H1077.72V41H1070.09V40.048L1072.22 38.634C1072.59 38.396 1072.86 38.214 1073.01 38.102C1073.17 38.004 1073.42 37.822 1073.76 37.584C1074.09 37.346 1074.34 37.136 1074.51 36.982C1074.67 36.828 1074.88 36.632 1075.11 36.38C1075.76 35.68 1076 35.036 1076.07 34.154C1076.07 32.88 1075.24 32.306 1074.02 32.306C1073.27 32.306 1072.66 32.516 1072.23 32.936C1071.8 33.356 1071.5 33.86 1071.38 34.434ZM1079.63 41C1079.11 41.056 1078.72 40.762 1078.72 40.258C1078.72 39.768 1079.02 39.46 1079.57 39.46C1080.19 39.46 1080.59 39.88 1080.59 40.664C1080.59 42.064 1079.82 42.778 1078.8 43.016L1078.51 42.358C1078.81 42.274 1079.09 42.106 1079.35 41.84C1079.58 41.574 1079.68 41.294 1079.63 41ZM1089.76 35.918C1089.76 37.584 1089.37 38.872 1088.57 39.768C1087.77 40.678 1086.71 41.126 1085.38 41.126C1083.75 41.126 1082.48 40.44 1081.85 39.39L1082.86 38.69C1083.42 39.474 1084.44 39.922 1085.54 39.922C1086.45 39.922 1087.18 39.558 1087.76 38.83C1088.33 38.116 1088.57 37.22 1088.5 36.156C1088.04 37.22 1086.87 38.004 1085.32 38.004C1084.23 38.004 1083.33 37.696 1082.63 37.066C1081.92 36.45 1081.57 35.638 1081.57 34.644C1081.57 33.552 1081.95 32.684 1082.7 32.04C1083.46 31.396 1084.47 31.074 1085.71 31.074C1088.23 31.074 1089.76 32.838 1089.76 35.918ZM1088.29 34.602C1088.08 33.3 1087.18 32.278 1085.57 32.278C1083.89 32.278 1082.86 33.146 1082.86 34.602C1082.86 35.988 1083.91 36.8 1085.54 36.8C1086.29 36.8 1086.92 36.576 1087.41 36.128C1087.9 35.68 1088.19 35.176 1088.29 34.602Z" fill="#2A3C3C"/>
<path d="M1071.38 34.434L1070.35 34.07C1070.7 32.334 1072.02 31.088 1074.11 31.088C1076.12 31.088 1077.35 32.25 1077.35 34.028C1077.35 34.966 1076.95 35.904 1076.44 36.576C1076.19 36.926 1075.87 37.262 1075.49 37.612C1074.72 38.298 1074.18 38.662 1073.38 39.166L1072.3 39.838H1077.72V41H1070.09V40.048L1072.22 38.634C1072.59 38.396 1072.86 38.214 1073.01 38.102C1073.17 38.004 1073.42 37.822 1073.76 37.584C1074.09 37.346 1074.34 37.136 1074.51 36.982C1074.67 36.828 1074.88 36.632 1075.11 36.38C1075.76 35.68 1076 35.036 1076.07 34.154C1076.07 32.88 1075.24 32.306 1074.02 32.306C1073.27 32.306 1072.66 32.516 1072.23 32.936C1071.8 33.356 1071.5 33.86 1071.38 34.434ZM1079.63 41C1079.11 41.056 1078.72 40.762 1078.72 40.258C1078.72 39.768 1079.02 39.46 1079.57 39.46C1080.19 39.46 1080.59 39.88 1080.59 40.664C1080.59 42.064 1079.82 42.778 1078.8 43.016L1078.51 42.358C1078.81 42.274 1079.09 42.106 1079.35 41.84C1079.58 41.574 1079.68 41.294 1079.63 41ZM1089.76 35.918C1089.76 37.584 1089.37 38.872 1088.57 39.768C1087.77 40.678 1086.71 41.126 1085.38 41.126C1083.75 41.126 1082.48 40.44 1081.85 39.39L1082.86 38.69C1083.42 39.474 1084.44 39.922 1085.54 39.922C1086.45 39.922 1087.18 39.558 1087.76 38.83C1088.33 38.116 1088.57 37.22 1088.5 36.156C1088.04 37.22 1086.87 38.004 1085.32 38.004C1084.23 38.004 1083.33 37.696 1082.63 37.066C1081.92 36.45 1081.57 35.638 1081.57 34.644C1081.57 33.552 1081.95 32.684 1082.7 32.04C1083.46 31.396 1084.47 31.074 1085.71 31.074C1088.23 31.074 1089.76 32.838 1089.76 35.918ZM1088.29 34.602C1088.08 33.3 1087.18 32.278 1085.57 32.278C1083.89 32.278 1082.86 33.146 1082.86 34.602C1082.86 35.988 1083.91 36.8 1085.54 36.8C1086.29 36.8 1086.92 36.576 1087.41 36.128C1087.9 35.68 1088.19 35.176 1088.29 34.602Z" fill="#1A3341"/>
<path opacity="0.4" d="M1056 53C1056 51.8954 1056.9 51 1058 51H1102C1103.1 51 1104 51.8954 1104 53V205H1056V53Z" fill="url(#paint31_linear_3006_39323)"/>
<path opacity="0.2" d="M1068 51H1092V205H1068V51Z" fill="url(#paint32_linear_3006_39323)"/>
<path opacity="0.04" d="M1092 51H1102C1103.1 51 1104 51.8954 1104 53V205H1092V51Z" fill="#0D262C"/>
<path opacity="0.5" d="M1056 53C1056 51.8954 1056.9 51 1058 51H1068V205H1056V53Z" fill="url(#paint33_linear_3006_39323)"/>
<path d="M943.536 13.056L942.486 12.58C943.004 11.068 944.362 10.074 946.392 10.074C947.358 10.074 948.156 10.298 948.772 10.746C949.388 11.194 949.696 11.796 949.696 12.538C949.696 13.672 949.094 14.512 947.974 14.834C949.052 14.904 949.92 15.716 949.92 17.172C949.92 18.096 949.584 18.824 948.912 19.342C948.24 19.86 947.386 20.126 946.336 20.126C944.194 20.126 942.71 19.104 942.22 17.494L943.354 17.004C943.956 18.278 944.978 18.922 946.42 18.922C947.778 18.922 948.632 18.292 948.632 17.186C948.632 16.108 947.792 15.562 946.112 15.562H945.02V14.4H945.888C947.414 14.4 948.408 13.714 948.408 12.776C948.408 11.81 947.61 11.264 946.336 11.264C944.838 11.264 943.928 12.034 943.536 13.056ZM952.009 20C951.491 20.056 951.099 19.762 951.099 19.258C951.099 18.768 951.407 18.46 951.953 18.46C952.569 18.46 952.975 18.88 952.975 19.664C952.975 21.064 952.205 21.778 951.183 22.016L950.889 21.358C951.197 21.274 951.477 21.106 951.729 20.84C951.967 20.574 952.065 20.294 952.009 20ZM954.959 13.056L953.909 12.58C954.427 11.068 955.785 10.074 957.815 10.074C958.781 10.074 959.579 10.298 960.195 10.746C960.811 11.194 961.119 11.796 961.119 12.538C961.119 13.672 960.517 14.512 959.397 14.834C960.475 14.904 961.343 15.716 961.343 17.172C961.343 18.096 961.007 18.824 960.335 19.342C959.663 19.86 958.809 20.126 957.759 20.126C955.617 20.126 954.133 19.104 953.643 17.494L954.777 17.004C955.379 18.278 956.401 18.922 957.843 18.922C959.201 18.922 960.055 18.292 960.055 17.186C960.055 16.108 959.215 15.562 957.535 15.562H956.443V14.4H957.311C958.837 14.4 959.831 13.714 959.831 12.776C959.831 11.81 959.033 11.264 957.759 11.264C956.261 11.264 955.351 12.034 954.959 13.056Z" fill="#2A3C3C"/>
<path d="M943.536 13.056L942.486 12.58C943.004 11.068 944.362 10.074 946.392 10.074C947.358 10.074 948.156 10.298 948.772 10.746C949.388 11.194 949.696 11.796 949.696 12.538C949.696 13.672 949.094 14.512 947.974 14.834C949.052 14.904 949.92 15.716 949.92 17.172C949.92 18.096 949.584 18.824 948.912 19.342C948.24 19.86 947.386 20.126 946.336 20.126C944.194 20.126 942.71 19.104 942.22 17.494L943.354 17.004C943.956 18.278 944.978 18.922 946.42 18.922C947.778 18.922 948.632 18.292 948.632 17.186C948.632 16.108 947.792 15.562 946.112 15.562H945.02V14.4H945.888C947.414 14.4 948.408 13.714 948.408 12.776C948.408 11.81 947.61 11.264 946.336 11.264C944.838 11.264 943.928 12.034 943.536 13.056ZM952.009 20C951.491 20.056 951.099 19.762 951.099 19.258C951.099 18.768 951.407 18.46 951.953 18.46C952.569 18.46 952.975 18.88 952.975 19.664C952.975 21.064 952.205 21.778 951.183 22.016L950.889 21.358C951.197 21.274 951.477 21.106 951.729 20.84C951.967 20.574 952.065 20.294 952.009 20ZM954.959 13.056L953.909 12.58C954.427 11.068 955.785 10.074 957.815 10.074C958.781 10.074 959.579 10.298 960.195 10.746C960.811 11.194 961.119 11.796 961.119 12.538C961.119 13.672 960.517 14.512 959.397 14.834C960.475 14.904 961.343 15.716 961.343 17.172C961.343 18.096 961.007 18.824 960.335 19.342C959.663 19.86 958.809 20.126 957.759 20.126C955.617 20.126 954.133 19.104 953.643 17.494L954.777 17.004C955.379 18.278 956.401 18.922 957.843 18.922C959.201 18.922 960.055 18.292 960.055 17.186C960.055 16.108 959.215 15.562 957.535 15.562H956.443V14.4H957.311C958.837 14.4 959.831 13.714 959.831 12.776C959.831 11.81 959.033 11.264 957.759 11.264C956.261 11.264 955.351 12.034 954.959 13.056Z" fill="#1A3341"/>
<path d="M928 32C928 30.8954 928.895 30 930 30H974C975.105 30 976 30.8954 976 32V205H928V32Z" fill="url(#paint34_linear_3006_39323)"/>
<path opacity="0.2" d="M940 30H964V205H940V30Z" fill="url(#paint35_linear_3006_39323)"/>
<path opacity="0.04" d="M964 30H974C975.105 30 976 30.8954 976 32V205H964V30Z" fill="#0D262C"/>
<path opacity="0.5" d="M928 32C928 30.8954 928.895 30 930 30H940V205H928V32Z" fill="url(#paint36_linear_3006_39323)"/>
<line x1="-4.37114e-08" y1="204.5" x2="1120" y2="204.5" stroke="#ABBEC9"/>
<defs>
<linearGradient id="paint0_linear_3006_39323" x1="0.476191" y1="141" x2="10" y2="141" gradientUnits="userSpaceOnUse">
<stop offset="0" stop-color="#CEE8EF"/>
<stop offset="1" stop-color="#CEE8EF"/>
</linearGradient>
<linearGradient id="paint1_linear_3006_39323" x1="344" y1="66" x2="344" y2="205" gradientUnits="userSpaceOnUse">
<stop offset="0" stop-color="#6D73F9"/>
<stop offset="1" stop-color="#9BB8F1"/>
</linearGradient>
<linearGradient id="paint2_linear_3006_39323" x1="344" y1="66" x2="344" y2="205" gradientUnits="userSpaceOnUse">
<stop offset="0" stop-color="white" stop-opacity="0"/>
<stop offset="0.739583" stop-color="white"/>
</linearGradient>
<linearGradient id="paint3_linear_3006_39323" x1="326" y1="-205.05" x2="326" y2="205" gradientUnits="userSpaceOnUse">
<stop offset="0" stop-color="white" stop-opacity="0.05"/>
<stop offset="0.75" stop-color="white" stop-opacity="0.8"/>
</linearGradient>
<linearGradient id="paint4_linear_3006_39323" x1="408" y1="77" x2="408" y2="205" gradientUnits="userSpaceOnUse">
<stop offset="0" stop-color="#6D73F9"/>
<stop offset="1" stop-color="#9BB8F1"/>
</linearGradient>
<linearGradient id="paint5_linear_3006_39323" x1="408" y1="77" x2="408" y2="205" gradientUnits="userSpaceOnUse">
<stop offset="0" stop-color="white" stop-opacity="0"/>
<stop offset="0.739583" stop-color="white"/>
</linearGradient>
<linearGradient id="paint6_linear_3006_39323" x1="390" y1="-172.6" x2="390" y2="205" gradientUnits="userSpaceOnUse">
<stop offset="0" stop-color="white" stop-opacity="0.05"/>
<stop offset="0.75" stop-color="white" stop-opacity="0.8"/>
</linearGradient>
<linearGradient id="paint7_linear_3006_39323" x1="280" y1="45" x2="280" y2="205" gradientUnits="userSpaceOnUse">
<stop offset="0" stop-color="#CDE3E9"/>
<stop offset="1" stop-color="#D3E8ED"/>
</linearGradient>
<linearGradient id="paint8_linear_3006_39323" x1="280" y1="45" x2="280" y2="205" gradientUnits="userSpaceOnUse">
<stop offset="0" stop-color="white" stop-opacity="0"/>
<stop offset="0.739583" stop-color="white"/>
</linearGradient>
<linearGradient id="paint9_linear_3006_39323" x1="262" y1="-267" x2="262" y2="205" gradientUnits="userSpaceOnUse">
<stop offset="0" stop-color="white" stop-opacity="0.05"/>
<stop offset="0.75" stop-color="white" stop-opacity="0.8"/>
</linearGradient>
<linearGradient id="paint10_linear_3006_39323" x1="568" y1="40.9999" x2="568" y2="205" gradientUnits="userSpaceOnUse">
<stop offset="0" stop-color="#6D73F9"/>
<stop offset="1" stop-color="#9BB8F1"/>
</linearGradient>
<linearGradient id="paint11_linear_3006_39323" x1="568" y1="40.9999" x2="568" y2="205" gradientUnits="userSpaceOnUse">
<stop offset="0" stop-color="white" stop-opacity="0"/>
<stop offset="0.739583" stop-color="white"/>
</linearGradient>
<linearGradient id="paint12_linear_3006_39323" x1="550" y1="-278.8" x2="550" y2="205" gradientUnits="userSpaceOnUse">
<stop offset="0" stop-color="white" stop-opacity="0.05"/>
<stop offset="0.75" stop-color="white" stop-opacity="0.8"/>
</linearGradient>
<linearGradient id="paint13_linear_3006_39323" x1="632" y1="40.9999" x2="632" y2="205" gradientUnits="userSpaceOnUse">
<stop offset="0" stop-color="#6D73F9"/>
<stop offset="1" stop-color="#9BB8F1"/>
</linearGradient>
<linearGradient id="paint14_linear_3006_39323" x1="632" y1="40.9999" x2="632" y2="205" gradientUnits="userSpaceOnUse">
<stop offset="0" stop-color="white" stop-opacity="0"/>
<stop offset="0.739583" stop-color="white"/>
</linearGradient>
<linearGradient id="paint15_linear_3006_39323" x1="614" y1="-278.8" x2="614" y2="205" gradientUnits="userSpaceOnUse">
<stop offset="0" stop-color="white" stop-opacity="0.05"/>
<stop offset="0.75" stop-color="white" stop-opacity="0.8"/>
</linearGradient>
<linearGradient id="paint16_linear_3006_39323" x1="504" y1="19.9999" x2="504" y2="205" gradientUnits="userSpaceOnUse">
<stop offset="0" stop-color="#CDE3E9"/>
<stop offset="1" stop-color="#D3E8ED"/>
</linearGradient>
<linearGradient id="paint17_linear_3006_39323" x1="504" y1="19.9999" x2="504" y2="205" gradientUnits="userSpaceOnUse">
<stop offset="0" stop-color="white" stop-opacity="0"/>
<stop offset="0.739583" stop-color="white"/>
</linearGradient>
<linearGradient id="paint18_linear_3006_39323" x1="486" y1="-340.75" x2="486" y2="205" gradientUnits="userSpaceOnUse">
<stop offset="0" stop-color="white" stop-opacity="0.05"/>
<stop offset="0.75" stop-color="white" stop-opacity="0.8"/>
</linearGradient>
<linearGradient id="paint19_linear_3006_39323" x1="792" y1="62" x2="792" y2="205" gradientUnits="userSpaceOnUse">
<stop offset="0" stop-color="#6D73F9"/>
<stop offset="1" stop-color="#9BB8F1"/>
</linearGradient>
<linearGradient id="paint20_linear_3006_39323" x1="792" y1="62" x2="792" y2="205" gradientUnits="userSpaceOnUse">
<stop offset="0" stop-color="white" stop-opacity="0"/>
<stop offset="0.739583" stop-color="white"/>
</linearGradient>
<linearGradient id="paint21_linear_3006_39323" x1="774" y1="-216.85" x2="774" y2="205" gradientUnits="userSpaceOnUse">
<stop offset="0" stop-color="white" stop-opacity="0.05"/>
<stop offset="0.75" stop-color="white" stop-opacity="0.8"/>
</linearGradient>
<linearGradient id="paint22_linear_3006_39323" x1="856" y1="78" x2="856" y2="205" gradientUnits="userSpaceOnUse">
<stop offset="0" stop-color="#6D73F9"/>
<stop offset="1" stop-color="#9BB8F1"/>
</linearGradient>
<linearGradient id="paint23_linear_3006_39323" x1="856" y1="78" x2="856" y2="205" gradientUnits="userSpaceOnUse">
<stop offset="0" stop-color="white" stop-opacity="0"/>
<stop offset="0.739583" stop-color="white"/>
</linearGradient>
<linearGradient id="paint24_linear_3006_39323" x1="838" y1="-169.65" x2="838" y2="205" gradientUnits="userSpaceOnUse">
<stop offset="0" stop-color="white" stop-opacity="0.05"/>
<stop offset="0.75" stop-color="white" stop-opacity="0.8"/>
</linearGradient>
<linearGradient id="paint25_linear_3006_39323" x1="728" y1="41" x2="728" y2="205" gradientUnits="userSpaceOnUse">
<stop offset="0" stop-color="#CDE3E9"/>
<stop offset="1" stop-color="#D3E8ED"/>
</linearGradient>
<linearGradient id="paint26_linear_3006_39323" x1="728" y1="41" x2="728" y2="205" gradientUnits="userSpaceOnUse">
<stop offset="0" stop-color="white" stop-opacity="0"/>
<stop offset="0.739583" stop-color="white"/>
</linearGradient>
<linearGradient id="paint27_linear_3006_39323" x1="710" y1="-278.8" x2="710" y2="205" gradientUnits="userSpaceOnUse">
<stop offset="0" stop-color="white" stop-opacity="0.05"/>
<stop offset="0.75" stop-color="white" stop-opacity="0.8"/>
</linearGradient>
<linearGradient id="paint28_linear_3006_39323" x1="1016" y1="51" x2="1016" y2="205" gradientUnits="userSpaceOnUse">
<stop offset="0" stop-color="#6D73F9"/>
<stop offset="1" stop-color="#9BB8F1"/>
</linearGradient>
<linearGradient id="paint29_linear_3006_39323" x1="1016" y1="51" x2="1016" y2="205" gradientUnits="userSpaceOnUse">
<stop offset="0" stop-color="white" stop-opacity="0"/>
<stop offset="0.739583" stop-color="white"/>
</linearGradient>
<linearGradient id="paint30_linear_3006_39323" x1="998" y1="-249.3" x2="998" y2="205" gradientUnits="userSpaceOnUse">
<stop offset="0" stop-color="white" stop-opacity="0.05"/>
<stop offset="0.75" stop-color="white" stop-opacity="0.8"/>
</linearGradient>
<linearGradient id="paint31_linear_3006_39323" x1="1080" y1="51" x2="1080" y2="205" gradientUnits="userSpaceOnUse">
<stop offset="0" stop-color="#6D73F9"/>
<stop offset="1" stop-color="#9BB8F1"/>
</linearGradient>
<linearGradient id="paint32_linear_3006_39323" x1="1080" y1="51" x2="1080" y2="205" gradientUnits="userSpaceOnUse">
<stop offset="0" stop-color="white" stop-opacity="0"/>
<stop offset="0.739583" stop-color="white"/>
</linearGradient>
<linearGradient id="paint33_linear_3006_39323" x1="1062" y1="-249.3" x2="1062" y2="205" gradientUnits="userSpaceOnUse">
<stop offset="0" stop-color="white" stop-opacity="0.05"/>
<stop offset="0.75" stop-color="white" stop-opacity="0.8"/>
</linearGradient>
<linearGradient id="paint34_linear_3006_39323" x1="952" y1="30" x2="952" y2="205" gradientUnits="userSpaceOnUse">
<stop offset="0" stop-color="#CDE3E9"/>
<stop offset="1" stop-color="#D3E8ED"/>
</linearGradient>
<linearGradient id="paint35_linear_3006_39323" x1="952" y1="30" x2="952" y2="205" gradientUnits="userSpaceOnUse">
<stop offset="0" stop-color="white" stop-opacity="0"/>
<stop offset="0.739583" stop-color="white"/>
</linearGradient>
<linearGradient id="paint36_linear_3006_39323" x1="934" y1="-311.25" x2="934" y2="205" gradientUnits="userSpaceOnUse">
<stop offset="0" stop-color="white" stop-opacity="0.05"/>
<stop offset="0.75" stop-color="white" stop-opacity="0.8"/>
</linearGradient>
</defs>
</svg>
