<svg width="3945" height="791" viewBox="0 0 3945 791" fill="none" xmlns="http://www.w3.org/2000/svg">
<path opacity="0.86" d="M2326 405H1252" stroke="url(#paint0_linear_7003_50999)" stroke-width="32.5751"/>
<path opacity="0.86" d="M2326 102L2084.58 102C2038.48 102 1994.54 121.533 1963.66 155.755L1794.01 343.745C1763.13 377.967 1719.19 397.5 1673.09 397.5H1081" stroke="url(#paint1_linear_7003_50999)" stroke-width="34.2039"/>
<path opacity="0.85" d="M2327 233L2276.31 233C2244.6 233 2214.33 246.201 2192.76 269.433L2105.35 363.567C2083.77 386.799 2053.5 400 2021.8 400H1417" stroke="url(#paint2_linear_7003_50999)" stroke-width="22.8026"/>
<path opacity="0.17" d="M3944.5 12H2311.86C2258.49 12 2208.51 38.1496 2178.07 81.9933L2005.9 330.007C1975.46 373.85 1925.47 400 1872.1 400H1" stroke="url(#paint3_linear_7003_50999)" stroke-width="22.8026"/>
<path opacity="0.17" d="M3945 784H1938.75C1883.42 784 1831.88 755.914 1801.88 709.422L1665.21 497.578C1635.22 451.086 1583.68 423 1528.35 423H0" stroke="url(#paint4_linear_7003_50999)" stroke-width="13.03"/>
<path opacity="0.86" d="M2327 580.5H2141.02C2110.89 580.5 2082.31 567.185 2062.93 544.123L1980.17 445.657C1958.51 419.882 1926.56 405 1892.89 405H1496" stroke="url(#paint5_linear_7003_50999)" stroke-width="32.5751"/>
<path d="M2327 706L2040.05 706C1970.36 706 1905.08 671.884 1865.28 614.666L1782.99 496.334C1743.19 439.116 1677.91 405 1608.22 405H0.5" stroke="url(#paint6_linear_7003_50999)" stroke-width="48.8627"/>
<path d="M2394.24 232.89C2395.22 234.822 2396.75 236.358 2398.81 237.498C2400.87 238.638 2403.41 239.388 2406.41 239.748C2406.27 239.88 2406.14 240.042 2406.01 240.234C2405.88 240.438 2405.75 240.642 2405.61 240.846C2405.49 241.062 2405.4 241.248 2405.33 241.404C2403.26 241.104 2401.42 240.618 2399.8 239.946C2398.19 239.274 2396.79 238.404 2395.61 237.336C2394.42 236.256 2393.43 234.966 2392.65 233.466L2394.24 232.89ZM2391.18 231.558H2402.82V233.232H2391.18V231.558ZM2390.31 227.382H2405.61V229.074H2390.31V227.382ZM2397.06 224.808H2398.83V232.314H2397.06V224.808ZM2402.41 231.558H2402.77L2403.09 231.504L2404.28 232.188C2403.72 233.604 2402.97 234.84 2402.03 235.896C2401.11 236.94 2400.04 237.834 2398.83 238.578C2397.63 239.31 2396.32 239.91 2394.9 240.378C2393.49 240.858 2392.01 241.236 2390.46 241.512C2390.42 241.356 2390.34 241.176 2390.22 240.972C2390.12 240.768 2390 240.564 2389.88 240.36C2389.76 240.156 2389.65 239.994 2389.54 239.874C2391.04 239.658 2392.47 239.352 2393.82 238.956C2395.18 238.548 2396.42 238.032 2397.55 237.408C2398.68 236.772 2399.66 235.998 2400.48 235.086C2401.31 234.174 2401.95 233.106 2402.41 231.882V231.558ZM2414.36 227.022H2423.52V228.57H2414.36V227.022ZM2413.7 233.844H2424.24V235.41H2413.7V233.844ZM2413.5 230.532H2424.37V232.098H2413.5V230.532ZM2418.14 224.88H2419.76V231.36H2418.14V224.88ZM2420.48 231.792H2422.12V239.604C2422.12 240.06 2422.06 240.408 2421.94 240.648C2421.83 240.9 2421.63 241.098 2421.33 241.242C2421.04 241.362 2420.66 241.434 2420.19 241.458C2419.73 241.494 2419.16 241.512 2418.5 241.512C2418.47 241.272 2418.4 240.996 2418.3 240.684C2418.21 240.372 2418.11 240.102 2418 239.874C2418.45 239.898 2418.89 239.916 2419.31 239.928C2419.73 239.928 2420.01 239.922 2420.14 239.91C2420.27 239.898 2420.36 239.874 2420.41 239.838C2420.46 239.79 2420.48 239.706 2420.48 239.586V231.792ZM2414.87 236.472L2416.22 235.716C2416.47 236.028 2416.73 236.37 2416.99 236.742C2417.27 237.114 2417.51 237.48 2417.73 237.84C2417.96 238.188 2418.13 238.512 2418.25 238.812L2416.81 239.676C2416.7 239.376 2416.54 239.046 2416.32 238.686C2416.12 238.314 2415.89 237.936 2415.64 237.552C2415.39 237.156 2415.13 236.796 2414.87 236.472ZM2407.45 234.186C2408.16 234.006 2409.02 233.772 2410.02 233.484C2411.04 233.196 2412.07 232.896 2413.1 232.584L2413.34 234.132C2412.39 234.42 2411.43 234.714 2410.47 235.014C2409.51 235.314 2408.64 235.584 2407.85 235.824L2407.45 234.186ZM2407.72 228.336H2413.23V229.92H2407.72V228.336ZM2409.92 224.826H2411.48V239.55C2411.48 239.982 2411.43 240.318 2411.34 240.558C2411.24 240.798 2411.07 240.984 2410.82 241.116C2410.59 241.248 2410.28 241.338 2409.9 241.386C2409.51 241.434 2409.03 241.452 2408.46 241.44C2408.43 241.224 2408.38 240.96 2408.3 240.648C2408.21 240.348 2408.12 240.084 2408.01 239.856C2408.37 239.868 2408.7 239.874 2409 239.874C2409.3 239.874 2409.5 239.874 2409.61 239.874C2409.72 239.874 2409.8 239.85 2409.84 239.802C2409.89 239.754 2409.92 239.67 2409.92 239.55V224.826ZM2437.17 225.87H2445.99V227.49H2437.17V225.87ZM2442.14 231.342H2443.87V239.442C2443.87 239.934 2443.8 240.312 2443.67 240.576C2443.55 240.852 2443.32 241.056 2442.97 241.188C2442.63 241.32 2442.18 241.398 2441.62 241.422C2441.07 241.446 2440.37 241.458 2439.51 241.458C2439.48 241.218 2439.41 240.936 2439.3 240.612C2439.2 240.288 2439.09 240.006 2438.97 239.766C2439.37 239.778 2439.75 239.79 2440.13 239.802C2440.5 239.802 2440.82 239.802 2441.1 239.802C2441.37 239.802 2441.57 239.796 2441.67 239.784C2441.85 239.784 2441.97 239.76 2442.03 239.712C2442.11 239.652 2442.14 239.556 2442.14 239.424V231.342ZM2436.4 230.838H2446.5V232.458H2436.4V230.838ZM2432.6 232.548L2434.1 231.054L2434.31 231.144V241.548H2432.6V232.548ZM2434.67 228.678L2436.27 229.29C2435.82 230.07 2435.28 230.844 2434.67 231.612C2434.06 232.38 2433.42 233.106 2432.76 233.79C2432.1 234.474 2431.45 235.074 2430.8 235.59C2430.73 235.47 2430.62 235.32 2430.48 235.14C2430.33 234.948 2430.18 234.762 2430.03 234.582C2429.88 234.39 2429.75 234.24 2429.63 234.132C2430.24 233.7 2430.86 233.19 2431.47 232.602C2432.09 232.014 2432.68 231.384 2433.23 230.712C2433.78 230.04 2434.26 229.362 2434.67 228.678ZM2433.95 224.79L2435.59 225.474C2435.18 226.014 2434.71 226.566 2434.17 227.13C2433.63 227.682 2433.07 228.216 2432.49 228.732C2431.92 229.236 2431.35 229.686 2430.78 230.082C2430.71 229.95 2430.62 229.8 2430.5 229.632C2430.39 229.452 2430.27 229.278 2430.15 229.11C2430.03 228.942 2429.92 228.804 2429.81 228.696C2430.32 228.36 2430.83 227.97 2431.34 227.526C2431.87 227.082 2432.36 226.62 2432.82 226.14C2433.27 225.66 2433.65 225.21 2433.95 224.79ZM2448.26 238.92H2464.28V240.63H2448.26V238.92ZM2453.14 225.024H2454.89V239.586H2453.14V225.024ZM2457.64 225.024H2459.39V239.694H2457.64V225.024ZM2462.46 228.84L2464.01 229.578C2463.74 230.286 2463.42 231.03 2463.08 231.81C2462.74 232.578 2462.39 233.322 2462.03 234.042C2461.67 234.762 2461.33 235.404 2461.01 235.968L2459.6 235.248C2459.93 234.684 2460.26 234.042 2460.61 233.322C2460.97 232.59 2461.31 231.834 2461.64 231.054C2461.96 230.262 2462.24 229.524 2462.46 228.84ZM2448.59 229.254L2450.15 228.786C2450.46 229.47 2450.78 230.208 2451.09 231C2451.4 231.78 2451.69 232.542 2451.97 233.286C2452.25 234.03 2452.46 234.672 2452.62 235.212L2450.93 235.842C2450.78 235.29 2450.58 234.636 2450.33 233.88C2450.08 233.124 2449.8 232.344 2449.49 231.54C2449.19 230.724 2448.89 229.962 2448.59 229.254ZM2477.5 225.546L2484.99 225.546V232.458L2477.41 232.458V231.072L2483.33 231.072V226.932L2477.5 226.932V225.546ZM2477.43 228.336L2483.96 228.336V229.596L2477.43 229.596V228.336ZM2485.1 232.278L2486.43 233.322C2485.86 233.718 2485.28 234.114 2484.66 234.51C2484.05 234.894 2483.48 235.218 2482.95 235.482L2481.95 234.618C2482.28 234.426 2482.64 234.192 2483.03 233.916C2483.42 233.64 2483.8 233.358 2484.16 233.07C2484.52 232.782 2484.83 232.518 2485.1 232.278ZM2474.3 231.234V238.416H2472.66V232.8H2470.37V231.234H2474.3ZM2470.75 226.374L2472.05 225.456C2472.37 225.732 2472.71 226.044 2473.05 226.392C2473.4 226.728 2473.73 227.064 2474.03 227.4C2474.34 227.736 2474.58 228.048 2474.76 228.336L2473.4 229.362C2473.23 229.086 2472.99 228.774 2472.69 228.426C2472.41 228.066 2472.09 227.712 2471.74 227.364C2471.4 227.004 2471.07 226.674 2470.75 226.374ZM2473.67 237.804C2473.97 237.804 2474.26 237.912 2474.55 238.128C2474.85 238.332 2475.25 238.566 2475.75 238.83C2476.35 239.142 2477.05 239.346 2477.84 239.442C2478.63 239.538 2479.52 239.586 2480.49 239.586C2481.15 239.586 2481.87 239.574 2482.65 239.55C2483.43 239.514 2484.19 239.472 2484.93 239.424C2485.69 239.364 2486.36 239.298 2486.93 239.226C2486.88 239.37 2486.82 239.544 2486.75 239.748C2486.68 239.952 2486.62 240.156 2486.57 240.36C2486.52 240.564 2486.49 240.744 2486.48 240.9C2486.17 240.924 2485.76 240.942 2485.26 240.954C2484.77 240.978 2484.23 241.002 2483.64 241.026C2483.06 241.05 2482.49 241.068 2481.93 241.08C2481.38 241.092 2480.88 241.098 2480.43 241.098C2479.37 241.098 2478.42 241.032 2477.61 240.9C2476.8 240.78 2476.08 240.546 2475.45 240.198C2475.05 239.982 2474.7 239.772 2474.4 239.568C2474.12 239.364 2473.86 239.262 2473.65 239.262C2473.43 239.262 2473.19 239.358 2472.91 239.55C2472.63 239.742 2472.35 239.994 2472.05 240.306C2471.76 240.63 2471.46 240.972 2471.15 241.332L2470.1 239.892C2470.74 239.292 2471.37 238.794 2471.99 238.398C2472.62 238.002 2473.17 237.804 2473.67 237.804ZM2479.59 233.682L2480.72 232.836C2481.35 233.28 2481.99 233.772 2482.67 234.312C2483.35 234.852 2483.99 235.398 2484.59 235.95C2485.2 236.49 2485.7 236.988 2486.07 237.444L2484.83 238.434C2484.48 237.978 2484.01 237.474 2483.42 236.922C2482.85 236.358 2482.22 235.794 2481.55 235.23C2480.88 234.666 2480.22 234.15 2479.59 233.682ZM2476.44 238.506C2476.4 238.374 2476.34 238.224 2476.26 238.056C2476.17 237.876 2476.08 237.708 2475.97 237.552C2475.87 237.384 2475.78 237.252 2475.7 237.156C2475.87 237.048 2476.04 236.886 2476.22 236.67C2476.4 236.442 2476.49 236.13 2476.49 235.734V225.546H2478.2V236.832C2478.2 236.832 2478.14 236.874 2478.02 236.958C2477.9 237.03 2477.76 237.126 2477.59 237.246C2477.42 237.366 2477.25 237.504 2477.07 237.66C2476.89 237.804 2476.74 237.954 2476.62 238.11C2476.5 238.254 2476.44 238.386 2476.44 238.506ZM2476.44 238.506L2476.35 237.156L2477.09 236.598L2481.12 235.68C2481.12 235.908 2481.12 236.16 2481.14 236.436C2481.16 236.712 2481.18 236.934 2481.21 237.102C2480.26 237.342 2479.5 237.54 2478.92 237.696C2478.35 237.852 2477.89 237.978 2477.55 238.074C2477.23 238.17 2476.99 238.248 2476.83 238.308C2476.68 238.368 2476.55 238.434 2476.44 238.506ZM2493.81 226.194H2504.28V227.778H2493.81V226.194ZM2493.95 231.846H2502.38V233.43H2493.95V231.846ZM2497.44 226.662L2499.19 226.824C2499.08 227.676 2498.96 228.576 2498.81 229.524C2498.68 230.472 2498.54 231.432 2498.38 232.404C2498.24 233.364 2498.09 234.306 2497.93 235.23C2497.79 236.154 2497.64 237.03 2497.5 237.858C2497.35 238.674 2497.22 239.412 2497.08 240.072H2495.32C2495.46 239.388 2495.61 238.626 2495.77 237.786C2495.93 236.946 2496.08 236.058 2496.24 235.122C2496.41 234.174 2496.56 233.214 2496.71 232.242C2496.85 231.258 2496.98 230.292 2497.1 229.344C2497.23 228.396 2497.35 227.502 2497.44 226.662ZM2493.02 239.208H2504.88V240.792H2493.02V239.208ZM2492.22 224.844L2493.81 225.348C2493.42 226.38 2492.96 227.406 2492.42 228.426C2491.89 229.434 2491.32 230.388 2490.69 231.288C2490.08 232.188 2489.45 232.986 2488.79 233.682C2488.75 233.55 2488.68 233.376 2488.57 233.16C2488.46 232.932 2488.35 232.71 2488.23 232.494C2488.11 232.266 2488 232.086 2487.9 231.954C2488.48 231.378 2489.03 230.712 2489.56 229.956C2490.1 229.188 2490.6 228.372 2491.05 227.508C2491.52 226.632 2491.91 225.744 2492.22 224.844ZM2490.48 229.614L2492.12 227.994L2492.15 228.012V241.512H2490.48V229.614ZM2501.58 231.846H2501.76L2502.05 231.774L2503.31 231.864C2503.28 232.476 2503.23 233.136 2503.17 233.844C2503.12 234.552 2503.06 235.284 2502.99 236.04C2502.92 236.784 2502.84 237.528 2502.75 238.272C2502.68 239.004 2502.6 239.7 2502.52 240.36L2500.83 240.252C2500.91 239.592 2500.99 238.884 2501.06 238.128C2501.15 237.36 2501.22 236.604 2501.3 235.86C2501.37 235.104 2501.43 234.396 2501.48 233.736C2501.52 233.076 2501.56 232.512 2501.58 232.044V231.846ZM2506.8 225.51H2522.23V229.452H2520.5V226.986H2508.46V229.452H2506.8V225.51ZM2508.75 229.488H2520.23V230.964H2508.75V229.488ZM2506.89 237.156H2522.25V238.704H2506.89V237.156ZM2514.29 231.738H2516V241.494H2514.29V231.738ZM2509.32 235.374C2509.3 235.254 2509.25 235.098 2509.18 234.906C2509.12 234.702 2509.05 234.498 2508.98 234.294C2508.91 234.09 2508.84 233.91 2508.77 233.754C2508.95 233.706 2509.11 233.586 2509.27 233.394C2509.44 233.19 2509.62 232.926 2509.81 232.602C2509.92 232.458 2510.06 232.206 2510.24 231.846C2510.42 231.486 2510.63 231.06 2510.85 230.568C2511.08 230.076 2511.3 229.554 2511.52 229.002C2511.74 228.438 2511.93 227.868 2512.1 227.292L2513.84 227.832C2513.54 228.624 2513.2 229.422 2512.82 230.226C2512.44 231.018 2512.05 231.774 2511.63 232.494C2511.22 233.214 2510.81 233.862 2510.39 234.438V234.474C2510.39 234.474 2510.33 234.504 2510.22 234.564C2510.12 234.624 2509.99 234.702 2509.85 234.798C2509.71 234.894 2509.59 234.996 2509.49 235.104C2509.38 235.2 2509.32 235.29 2509.32 235.374ZM2509.32 235.374V234.096L2510.24 233.61H2520.77V235.104H2511.2C2510.7 235.104 2510.29 235.128 2509.95 235.176C2509.62 235.224 2509.41 235.29 2509.32 235.374ZM2531.45 224.844H2533.39C2533.37 225.42 2533.33 226.128 2533.28 226.968C2533.25 227.796 2533.15 228.714 2532.99 229.722C2532.85 230.73 2532.62 231.774 2532.29 232.854C2531.97 233.922 2531.52 234.984 2530.94 236.04C2530.38 237.084 2529.66 238.074 2528.78 239.01C2527.91 239.946 2526.83 240.762 2525.56 241.458C2525.42 241.242 2525.21 241.008 2524.95 240.756C2524.7 240.504 2524.43 240.282 2524.16 240.09C2525.4 239.454 2526.45 238.704 2527.29 237.84C2528.13 236.976 2528.81 236.058 2529.34 235.086C2529.87 234.102 2530.28 233.112 2530.56 232.116C2530.85 231.12 2531.06 230.16 2531.18 229.236C2531.3 228.3 2531.37 227.454 2531.39 226.698C2531.43 225.942 2531.45 225.324 2531.45 224.844ZM2533.21 227.058C2533.23 227.274 2533.28 227.67 2533.35 228.246C2533.43 228.822 2533.55 229.506 2533.73 230.298C2533.92 231.09 2534.19 231.936 2534.54 232.836C2534.89 233.736 2535.35 234.63 2535.91 235.518C2536.47 236.394 2537.17 237.216 2538 237.984C2538.84 238.752 2539.83 239.394 2540.99 239.91C2540.73 240.114 2540.49 240.348 2540.27 240.612C2540.04 240.876 2539.86 241.128 2539.73 241.368C2538.53 240.804 2537.49 240.108 2536.63 239.28C2535.77 238.44 2535.04 237.54 2534.45 236.58C2533.86 235.608 2533.39 234.636 2533.03 233.664C2532.67 232.68 2532.39 231.756 2532.18 230.892C2531.99 230.016 2531.85 229.26 2531.75 228.624C2531.67 227.976 2531.61 227.514 2531.57 227.238L2533.21 227.058Z" fill="#3C525E"/>
<path d="M2389.95 399.896H2406.12V401.318H2389.95V399.896ZM2393.27 398.366L2394.81 397.718C2395.09 398.066 2395.38 398.462 2395.68 398.906C2395.99 399.35 2396.22 399.728 2396.38 400.04L2394.74 400.796C2394.61 400.472 2394.39 400.082 2394.09 399.626C2393.81 399.158 2393.53 398.738 2393.27 398.366ZM2395.37 405.782L2396.56 405.332C2396.76 405.644 2396.97 405.986 2397.17 406.358C2397.39 406.73 2397.59 407.096 2397.77 407.456C2397.95 407.804 2398.08 408.11 2398.18 408.374L2396.92 408.914C2396.82 408.638 2396.69 408.32 2396.52 407.96C2396.36 407.6 2396.17 407.228 2395.97 406.844C2395.77 406.46 2395.58 406.106 2395.37 405.782ZM2402.81 405.692L2404.07 405.206C2404.31 405.53 2404.55 405.89 2404.8 406.286C2405.06 406.67 2405.29 407.048 2405.51 407.42C2405.73 407.792 2405.91 408.122 2406.03 408.41L2404.68 408.986C2404.57 408.686 2404.41 408.35 2404.19 407.978C2403.99 407.594 2403.77 407.198 2403.53 406.79C2403.29 406.382 2403.05 406.016 2402.81 405.692ZM2400.81 397.754L2402.75 398.276C2402.44 398.72 2402.11 399.152 2401.76 399.572C2401.43 399.992 2401.12 400.358 2400.84 400.67L2399.44 400.166C2399.6 399.926 2399.76 399.668 2399.93 399.392C2400.09 399.116 2400.26 398.834 2400.41 398.546C2400.57 398.246 2400.7 397.982 2400.81 397.754ZM2393.93 409.598H2395.62V412.172C2395.62 412.412 2395.69 412.568 2395.82 412.64C2395.97 412.7 2396.29 412.73 2396.79 412.73C2396.91 412.73 2397.11 412.73 2397.39 412.73C2397.68 412.73 2397.99 412.73 2398.32 412.73C2398.67 412.73 2399 412.73 2399.3 412.73C2399.6 412.73 2399.82 412.73 2399.98 412.73C2400.27 412.73 2400.48 412.688 2400.63 412.604C2400.77 412.508 2400.87 412.304 2400.93 411.992C2400.99 411.68 2401.04 411.206 2401.06 410.57C2401.19 410.666 2401.35 410.756 2401.53 410.84C2401.71 410.924 2401.89 410.996 2402.09 411.056C2402.28 411.116 2402.45 411.164 2402.59 411.2C2402.53 412.016 2402.42 412.646 2402.25 413.09C2402.09 413.534 2401.85 413.834 2401.51 413.99C2401.17 414.158 2400.71 414.242 2400.11 414.242C2400.02 414.242 2399.86 414.242 2399.62 414.242C2399.39 414.242 2399.13 414.242 2398.83 414.242C2398.53 414.242 2398.23 414.242 2397.93 414.242C2397.64 414.242 2397.38 414.242 2397.14 414.242C2396.9 414.242 2396.73 414.242 2396.65 414.242C2395.94 414.242 2395.38 414.182 2394.98 414.062C2394.58 413.942 2394.3 413.732 2394.15 413.432C2394 413.132 2393.93 412.718 2393.93 412.19V409.598ZM2396.76 409.652L2398.04 408.986C2398.34 409.286 2398.65 409.628 2398.99 410.012C2399.33 410.396 2399.59 410.726 2399.78 411.002L2398.47 411.74C2398.29 411.464 2398.03 411.128 2397.69 410.732C2397.37 410.324 2397.06 409.964 2396.76 409.652ZM2402.45 409.652L2403.78 408.86C2404.04 409.232 2404.32 409.634 2404.62 410.066C2404.94 410.498 2405.23 410.918 2405.51 411.326C2405.79 411.722 2406.02 412.07 2406.19 412.37L2404.77 413.306C2404.61 412.994 2404.4 412.628 2404.12 412.208C2403.86 411.776 2403.57 411.338 2403.27 410.894C2402.99 410.45 2402.71 410.036 2402.45 409.652ZM2391.48 409.31L2392.94 409.958C2392.81 410.33 2392.66 410.738 2392.49 411.182C2392.32 411.614 2392.14 412.04 2391.95 412.46C2391.76 412.88 2391.56 413.258 2391.36 413.594L2389.83 412.82C2390.04 412.508 2390.25 412.154 2390.46 411.758C2390.66 411.35 2390.85 410.936 2391.03 410.516C2391.21 410.084 2391.36 409.682 2391.48 409.31ZM2390.71 405.26C2390.69 405.164 2390.64 405.038 2390.58 404.882C2390.54 404.714 2390.48 404.546 2390.42 404.378C2390.36 404.198 2390.31 404.054 2390.26 403.946C2390.54 403.886 2390.84 403.7 2391.18 403.388C2391.3 403.28 2391.49 403.094 2391.75 402.83C2392.02 402.554 2392.3 402.236 2392.6 401.876C2392.91 401.516 2393.19 401.144 2393.43 400.76L2394.74 401.372C2394.27 401.984 2393.76 402.572 2393.19 403.136C2392.64 403.688 2392.1 404.156 2391.57 404.54V404.576C2391.57 404.576 2391.53 404.6 2391.45 404.648C2391.36 404.684 2391.26 404.738 2391.14 404.81C2391.02 404.882 2390.92 404.96 2390.84 405.044C2390.75 405.116 2390.71 405.188 2390.71 405.26ZM2390.69 405.242L2390.66 404.216L2391.36 403.802L2395.57 403.514C2395.55 403.694 2395.52 403.892 2395.5 404.108C2395.47 404.324 2395.46 404.504 2395.44 404.648C2394.48 404.732 2393.71 404.804 2393.12 404.864C2392.53 404.924 2392.08 404.978 2391.75 405.026C2391.43 405.062 2391.19 405.098 2391.03 405.134C2390.89 405.17 2390.78 405.206 2390.69 405.242ZM2390.75 408.698C2390.72 408.602 2390.68 408.464 2390.62 408.284C2390.56 408.104 2390.5 407.924 2390.44 407.744C2390.38 407.564 2390.33 407.408 2390.28 407.276C2390.49 407.24 2390.72 407.15 2390.96 407.006C2391.21 406.85 2391.51 406.652 2391.84 406.412C2392.01 406.28 2392.26 406.076 2392.58 405.8C2392.92 405.524 2393.3 405.194 2393.72 404.81C2394.14 404.414 2394.57 403.988 2395.01 403.532C2395.46 403.064 2395.87 402.59 2396.25 402.11L2397.48 403.01C2396.61 403.958 2395.69 404.864 2394.71 405.728C2393.73 406.58 2392.76 407.324 2391.79 407.96V407.996C2391.79 407.996 2391.74 408.02 2391.63 408.068C2391.52 408.104 2391.39 408.158 2391.25 408.23C2391.12 408.302 2391 408.38 2390.89 408.464C2390.79 408.548 2390.75 408.626 2390.75 408.698ZM2390.75 408.698L2390.73 407.618L2391.5 407.168L2396.85 406.862C2396.85 407.054 2396.85 407.27 2396.87 407.51C2396.89 407.75 2396.91 407.948 2396.94 408.104C2395.67 408.188 2394.64 408.26 2393.86 408.32C2393.09 408.38 2392.5 408.434 2392.08 408.482C2391.67 408.518 2391.37 408.554 2391.18 408.59C2391 408.626 2390.85 408.662 2390.75 408.698ZM2398.07 405.332C2398.05 405.224 2398.01 405.086 2397.95 404.918C2397.89 404.75 2397.83 404.582 2397.77 404.414C2397.71 404.234 2397.65 404.078 2397.59 403.946C2397.86 403.91 2398.16 403.724 2398.47 403.388C2398.58 403.28 2398.75 403.094 2398.99 402.83C2399.23 402.554 2399.49 402.236 2399.76 401.876C2400.04 401.504 2400.29 401.126 2400.5 400.742L2401.89 401.372C2401.47 401.984 2401 402.572 2400.48 403.136C2399.97 403.7 2399.46 404.18 2398.95 404.576V404.594C2398.95 404.594 2398.91 404.618 2398.81 404.666C2398.73 404.714 2398.62 404.774 2398.5 404.846C2398.4 404.918 2398.29 405.002 2398.2 405.098C2398.11 405.182 2398.07 405.26 2398.07 405.332ZM2398.07 405.332L2398.04 404.288L2398.74 403.874L2402.54 403.622C2402.5 403.802 2402.46 404.006 2402.43 404.234C2402.4 404.462 2402.39 404.642 2402.39 404.774C2401.54 404.858 2400.84 404.924 2400.3 404.972C2399.78 405.02 2399.36 405.068 2399.06 405.116C2398.77 405.152 2398.56 405.188 2398.41 405.224C2398.27 405.26 2398.16 405.296 2398.07 405.332ZM2398.54 408.644C2398.52 408.536 2398.47 408.398 2398.41 408.23C2398.37 408.05 2398.31 407.87 2398.25 407.69C2398.19 407.498 2398.13 407.342 2398.07 407.222C2398.29 407.186 2398.5 407.09 2398.72 406.934C2398.95 406.778 2399.21 406.574 2399.49 406.322C2399.65 406.202 2399.88 406.004 2400.18 405.728C2400.48 405.452 2400.81 405.122 2401.19 404.738C2401.56 404.342 2401.94 403.916 2402.34 403.46C2402.73 403.004 2403.1 402.542 2403.44 402.074L2404.88 402.74C2404.05 403.736 2403.18 404.678 2402.27 405.566C2401.37 406.454 2400.47 407.222 2399.57 407.87V407.906C2399.57 407.906 2399.51 407.93 2399.4 407.978C2399.31 408.014 2399.19 408.074 2399.06 408.158C2398.93 408.23 2398.81 408.308 2398.7 408.392C2398.59 408.476 2398.54 408.56 2398.54 408.644ZM2398.54 408.644L2398.52 407.6L2399.28 407.168L2404.64 406.79C2404.64 406.97 2404.65 407.174 2404.66 407.402C2404.68 407.63 2404.71 407.816 2404.73 407.96C2403.45 408.068 2402.42 408.158 2401.65 408.23C2400.89 408.29 2400.29 408.344 2399.87 408.392C2399.46 408.428 2399.16 408.47 2398.97 408.518C2398.79 408.554 2398.65 408.596 2398.54 408.644ZM2411.14 412.586H2420.88V413.936H2411.14V412.586ZM2410.19 409.562H2421.94V414.458H2420.19V410.894H2411.86V414.512H2410.19V409.562ZM2408.94 399.734H2423.09V400.994H2408.94V399.734ZM2408.46 404.324H2423.63V405.602H2408.46V404.324ZM2410.08 402.038H2421.94V403.28H2410.08V402.038ZM2407.88 407.294H2424.15V408.626H2407.88V407.294ZM2415.08 400.346H2416.83V407.852H2415.08V400.346ZM2411.34 398.222L2412.89 397.808C2413.09 398.06 2413.28 398.348 2413.46 398.672C2413.65 398.984 2413.79 399.26 2413.86 399.5L2412.24 400.004C2412.17 399.752 2412.04 399.458 2411.86 399.122C2411.69 398.786 2411.52 398.486 2411.34 398.222ZM2410.38 405.908L2411.93 405.548C2412.15 405.812 2412.35 406.112 2412.53 406.448C2412.72 406.772 2412.86 407.06 2412.96 407.312L2411.3 407.762C2411.24 407.51 2411.12 407.21 2410.94 406.862C2410.76 406.502 2410.58 406.184 2410.38 405.908ZM2418.95 397.772L2420.72 398.096C2420.5 398.48 2420.28 398.846 2420.05 399.194C2419.83 399.53 2419.64 399.83 2419.46 400.094L2417.93 399.752C2418.11 399.464 2418.29 399.134 2418.48 398.762C2418.68 398.39 2418.83 398.06 2418.95 397.772ZM2419.82 405.584L2421.56 405.89C2421.36 406.274 2421.16 406.64 2420.97 406.988C2420.78 407.324 2420.6 407.624 2420.43 407.888L2418.86 407.582C2419.02 407.294 2419.19 406.964 2419.37 406.592C2419.56 406.208 2419.71 405.872 2419.82 405.584ZM2435.06 410.588H2440.55V412.208H2435.06V410.588ZM2434.43 399.482H2441.38V413.558H2439.63V401.12H2436.11V413.684H2434.43V399.482ZM2429.25 399.428H2430.96V414.494H2429.25V399.428ZM2425.85 403.136H2433.87V404.72H2425.85V403.136ZM2429.16 403.73L2430.31 404.126C2430.12 404.846 2429.88 405.584 2429.59 406.34C2429.3 407.084 2428.98 407.816 2428.64 408.536C2428.29 409.244 2427.92 409.91 2427.52 410.534C2427.14 411.146 2426.74 411.674 2426.33 412.118C2426.25 411.866 2426.12 411.59 2425.94 411.29C2425.76 410.99 2425.59 410.738 2425.43 410.534C2425.82 410.138 2426.19 409.676 2426.55 409.148C2426.92 408.62 2427.27 408.056 2427.61 407.456C2427.95 406.844 2428.25 406.22 2428.51 405.584C2428.77 404.948 2428.99 404.33 2429.16 403.73ZM2432.72 397.97L2433.84 399.302C2433.18 399.542 2432.43 399.764 2431.59 399.968C2430.76 400.16 2429.9 400.328 2429.01 400.472C2428.13 400.616 2427.27 400.736 2426.46 400.832C2426.42 400.64 2426.36 400.418 2426.26 400.166C2426.16 399.902 2426.07 399.68 2425.97 399.5C2426.76 399.392 2427.57 399.26 2428.4 399.104C2429.24 398.948 2430.03 398.774 2430.78 398.582C2431.53 398.378 2432.18 398.174 2432.72 397.97ZM2430.81 404.972C2430.93 405.08 2431.1 405.254 2431.3 405.494C2431.52 405.722 2431.75 405.98 2432 406.268C2432.25 406.556 2432.51 406.85 2432.76 407.15C2433.02 407.438 2433.25 407.702 2433.44 407.942C2433.63 408.17 2433.78 408.338 2433.87 408.446L2432.87 409.868C2432.71 409.604 2432.51 409.286 2432.25 408.914C2432 408.542 2431.73 408.158 2431.44 407.762C2431.17 407.366 2430.9 406.994 2430.63 406.646C2430.37 406.298 2430.15 406.016 2429.99 405.8L2430.81 404.972ZM2445.41 397.898L2446.78 398.096C2446.64 398.636 2446.46 399.164 2446.24 399.68C2446.04 400.184 2445.76 400.664 2445.41 401.12C2445.26 400.988 2445.06 400.856 2444.82 400.724C2444.58 400.592 2444.37 400.49 2444.19 400.418C2444.49 400.046 2444.74 399.632 2444.94 399.176C2445.15 398.72 2445.3 398.294 2445.41 397.898ZM2445.81 398.96H2451.28V400.094H2445.12L2445.81 398.96ZM2447.5 397.79H2449.05V401.588H2447.5V397.79ZM2443.95 401.156H2451.68V402.308H2443.95V401.156ZM2446.08 401.93H2447.5C2447.43 402.554 2447.29 403.106 2447.09 403.586C2446.88 404.066 2446.57 404.486 2446.15 404.846C2445.74 405.206 2445.18 405.512 2444.46 405.764C2444.39 405.596 2444.27 405.41 2444.1 405.206C2443.94 404.99 2443.79 404.822 2443.65 404.702C2444.24 404.522 2444.69 404.306 2445.02 404.054C2445.35 403.79 2445.6 403.484 2445.75 403.136C2445.91 402.788 2446.02 402.386 2446.08 401.93ZM2453.31 397.898L2454.66 398.096C2454.5 398.636 2454.3 399.164 2454.07 399.68C2453.84 400.196 2453.54 400.688 2453.17 401.156C2453.01 401.012 2452.82 400.874 2452.59 400.742C2452.37 400.61 2452.16 400.514 2451.96 400.454C2452.3 400.07 2452.58 399.65 2452.79 399.194C2453.02 398.738 2453.19 398.306 2453.31 397.898ZM2453.75 398.978H2459.38V400.13H2453.06L2453.75 398.978ZM2455.37 397.808H2456.95V401.552H2455.37V397.808ZM2452.14 401.156H2459.99V402.308H2452.14V401.156ZM2454.11 401.912H2455.47C2455.41 402.5 2455.29 403.022 2455.11 403.478C2454.93 403.934 2454.66 404.33 2454.3 404.666C2453.94 404.99 2453.44 405.266 2452.79 405.494C2452.72 405.338 2452.6 405.152 2452.43 404.936C2452.28 404.72 2452.12 404.558 2451.96 404.45C2452.76 404.21 2453.3 403.892 2453.58 403.496C2453.87 403.088 2454.05 402.56 2454.11 401.912ZM2456.28 401.84H2457.67V403.622C2457.67 403.79 2457.69 403.892 2457.72 403.928C2457.76 403.964 2457.85 403.982 2457.99 403.982C2458.04 403.982 2458.12 403.982 2458.23 403.982C2458.35 403.982 2458.46 403.982 2458.57 403.982C2458.69 403.982 2458.77 403.982 2458.82 403.982C2458.97 403.982 2459.06 403.934 2459.11 403.838C2459.16 403.73 2459.19 403.466 2459.2 403.046C2459.33 403.142 2459.51 403.238 2459.74 403.334C2459.98 403.418 2460.2 403.478 2460.39 403.514C2460.33 404.162 2460.2 404.6 2459.99 404.828C2459.79 405.056 2459.47 405.17 2459.04 405.17C2458.97 405.17 2458.87 405.17 2458.75 405.17C2458.64 405.17 2458.52 405.17 2458.39 405.17C2458.27 405.17 2458.15 405.17 2458.03 405.17C2457.92 405.17 2457.84 405.17 2457.78 405.17C2457.37 405.17 2457.06 405.128 2456.84 405.044C2456.63 404.948 2456.48 404.792 2456.39 404.576C2456.32 404.348 2456.28 404.036 2456.28 403.64V401.84ZM2448.36 405.386L2448.31 404.36L2448.89 403.928L2452.04 403.244C2452.01 403.412 2451.99 403.61 2451.98 403.838C2451.97 404.054 2451.97 404.234 2451.98 404.378C2451.27 404.546 2450.7 404.684 2450.25 404.792C2449.81 404.9 2449.46 404.99 2449.21 405.062C2448.96 405.134 2448.77 405.194 2448.65 405.242C2448.53 405.29 2448.44 405.338 2448.36 405.386ZM2448.36 405.386C2448.33 405.23 2448.26 405.05 2448.15 404.846C2448.04 404.63 2447.94 404.468 2447.84 404.36C2447.99 404.288 2448.14 404.162 2448.29 403.982C2448.46 403.802 2448.54 403.52 2448.54 403.136V401.93L2449.97 401.948V404.09C2449.97 404.09 2449.88 404.132 2449.71 404.216C2449.56 404.3 2449.37 404.408 2449.16 404.54C2448.95 404.672 2448.77 404.816 2448.6 404.972C2448.44 405.116 2448.36 405.254 2448.36 405.386ZM2452.38 411.992L2453.22 410.714C2453.73 410.858 2454.27 411.026 2454.84 411.218C2455.43 411.41 2456.01 411.614 2456.57 411.83C2457.15 412.046 2457.69 412.268 2458.19 412.496C2458.71 412.724 2459.15 412.934 2459.52 413.126L2458.61 414.584C2458.27 414.38 2457.86 414.164 2457.36 413.936C2456.87 413.708 2456.34 413.474 2455.76 413.234C2455.2 413.006 2454.62 412.784 2454.03 412.568C2453.46 412.352 2452.91 412.16 2452.38 411.992ZM2446.31 405.728H2457.78V411.362H2456V407.168H2448V411.452H2446.31V405.728ZM2451.08 408.032H2452.77V409.31C2452.77 409.886 2452.67 410.432 2452.45 410.948C2452.23 411.464 2451.86 411.95 2451.33 412.406C2450.82 412.85 2450.09 413.252 2449.16 413.612C2448.23 413.972 2447.06 414.272 2445.63 414.512C2445.58 414.38 2445.5 414.224 2445.38 414.044C2445.26 413.864 2445.12 413.684 2444.98 413.504C2444.85 413.324 2444.72 413.18 2444.6 413.072C2445.98 412.844 2447.1 412.592 2447.95 412.316C2448.8 412.04 2449.46 411.74 2449.91 411.416C2450.37 411.092 2450.67 410.75 2450.83 410.39C2451 410.018 2451.08 409.64 2451.08 409.256V408.032ZM2469.42 401.804H2476.88V403.406H2469.42V401.804ZM2476.16 401.804H2477.79C2477.79 401.804 2477.79 401.858 2477.79 401.966C2477.79 402.062 2477.79 402.176 2477.78 402.308C2477.78 402.428 2477.78 402.524 2477.78 402.596C2477.74 404.48 2477.7 406.076 2477.65 407.384C2477.6 408.692 2477.54 409.766 2477.47 410.606C2477.41 411.434 2477.33 412.082 2477.22 412.55C2477.12 413.018 2477 413.348 2476.86 413.54C2476.67 413.816 2476.46 414.008 2476.25 414.116C2476.03 414.224 2475.77 414.302 2475.45 414.35C2475.18 414.386 2474.81 414.398 2474.36 414.386C2473.91 414.386 2473.46 414.38 2472.99 414.368C2472.98 414.128 2472.92 413.846 2472.83 413.522C2472.74 413.21 2472.63 412.946 2472.48 412.73C2472.96 412.766 2473.41 412.79 2473.82 412.802C2474.22 412.814 2474.52 412.82 2474.7 412.82C2474.85 412.82 2474.99 412.802 2475.09 412.766C2475.2 412.718 2475.3 412.64 2475.38 412.532C2475.5 412.388 2475.6 412.106 2475.67 411.686C2475.75 411.254 2475.83 410.636 2475.89 409.832C2475.95 409.028 2475.99 407.996 2476.03 406.736C2476.08 405.476 2476.12 403.952 2476.16 402.164V401.804ZM2472.16 397.808H2473.82C2473.82 399.248 2473.8 400.646 2473.76 402.002C2473.73 403.346 2473.63 404.63 2473.47 405.854C2473.33 407.078 2473.08 408.224 2472.74 409.292C2472.39 410.36 2471.9 411.338 2471.26 412.226C2470.64 413.114 2469.83 413.882 2468.85 414.53C2468.73 414.326 2468.55 414.098 2468.31 413.846C2468.07 413.606 2467.85 413.408 2467.64 413.252C2468.57 412.664 2469.32 411.968 2469.89 411.164C2470.48 410.36 2470.93 409.466 2471.24 408.482C2471.55 407.498 2471.77 406.442 2471.89 405.314C2472.02 404.186 2472.1 402.992 2472.12 401.732C2472.15 400.46 2472.16 399.152 2472.16 397.808ZM2462.82 398.618H2468.88V410.354H2467.28V400.166H2464.35V411.506H2462.82V398.618ZM2461.54 411.002C2462.22 410.87 2463.01 410.72 2463.9 410.552C2464.8 410.372 2465.75 410.174 2466.76 409.958C2467.77 409.742 2468.77 409.526 2469.77 409.31L2469.93 410.84C2468.98 411.068 2468.02 411.296 2467.05 411.524C2466.09 411.752 2465.16 411.968 2464.28 412.172C2463.39 412.376 2462.58 412.568 2461.85 412.748L2461.54 411.002ZM2463.61 402.452H2468.06V403.964H2463.61V402.452ZM2463.61 406.25H2468.06V407.744H2463.61V406.25Z" fill="#3C525E"/>
<path d="M2389.94 704.144H2394.81V705.71H2389.94V704.144ZM2389.68 698.96H2395.21V700.526H2389.68V698.96ZM2389.56 710.966C2390.25 710.762 2391.09 710.504 2392.06 710.192C2393.03 709.868 2394.02 709.532 2395.01 709.184L2395.28 710.714C2394.37 711.038 2393.45 711.362 2392.51 711.686C2391.59 712.01 2390.73 712.304 2389.95 712.568L2389.56 710.966ZM2391.72 699.914H2393.3V710.372L2391.72 710.786V699.914ZM2396.02 698.888H2406.1V700.508H2396.02V698.888ZM2400.68 699.788L2402.39 700.238C2401.96 701.462 2401.44 702.644 2400.84 703.784C2400.26 704.912 2399.6 705.962 2398.88 706.934C2398.17 707.894 2397.43 708.734 2396.65 709.454C2396.55 709.334 2396.42 709.19 2396.25 709.022C2396.1 708.854 2395.93 708.686 2395.75 708.518C2395.58 708.35 2395.44 708.212 2395.32 708.104C2396.1 707.468 2396.82 706.718 2397.5 705.854C2398.17 704.978 2398.77 704.024 2399.31 702.992C2399.85 701.96 2400.31 700.892 2400.68 699.788ZM2401.17 704.288L2402.46 703.406C2402.91 703.886 2403.36 704.414 2403.83 704.99C2404.3 705.554 2404.74 706.112 2405.15 706.664C2405.57 707.216 2405.9 707.708 2406.15 708.14L2404.75 709.184C2404.52 708.752 2404.2 708.254 2403.8 707.69C2403.4 707.126 2402.97 706.544 2402.52 705.944C2402.06 705.344 2401.61 704.792 2401.17 704.288ZM2399.71 703.01L2401.4 702.326V714.476H2399.71V703.01ZM2414.15 699.032H2423.29V700.418H2414.15V699.032ZM2413.61 702.308H2423.76V703.748H2413.61V702.308ZM2415.51 700.814L2416.9 700.526C2417.02 700.79 2417.14 701.084 2417.26 701.408C2417.38 701.72 2417.46 701.996 2417.51 702.236L2416.07 702.596C2416.02 702.356 2415.95 702.068 2415.84 701.732C2415.73 701.396 2415.62 701.09 2415.51 700.814ZM2420.37 700.562L2421.94 700.868C2421.76 701.24 2421.59 701.606 2421.42 701.966C2421.25 702.314 2421.09 702.614 2420.93 702.866L2419.62 702.56C2419.75 702.272 2419.89 701.936 2420.03 701.552C2420.19 701.168 2420.3 700.838 2420.37 700.562ZM2415.96 707.69V708.698H2421.2V707.69H2415.96ZM2415.96 705.656V706.646H2421.2V705.656H2415.96ZM2414.42 704.522H2422.84V709.832H2414.42V704.522ZM2416.16 709.436H2417.76C2417.7 710.12 2417.59 710.738 2417.42 711.29C2417.27 711.83 2417.02 712.31 2416.68 712.73C2416.36 713.138 2415.91 713.492 2415.33 713.792C2414.76 714.104 2414.03 714.362 2413.16 714.566C2413.11 714.434 2413.04 714.284 2412.94 714.116C2412.84 713.96 2412.74 713.798 2412.62 713.63C2412.5 713.474 2412.38 713.348 2412.27 713.252C2413.04 713.108 2413.67 712.928 2414.15 712.712C2414.64 712.484 2415.02 712.22 2415.3 711.92C2415.57 711.608 2415.77 711.248 2415.89 710.84C2416.02 710.432 2416.11 709.964 2416.16 709.436ZM2419.2 709.454H2420.79V712.388C2420.79 712.652 2420.83 712.808 2420.91 712.856C2421 712.916 2421.14 712.946 2421.33 712.946C2421.41 712.946 2421.52 712.946 2421.65 712.946C2421.8 712.946 2421.92 712.946 2422.03 712.946C2422.14 712.946 2422.23 712.94 2422.32 712.928C2422.41 712.916 2422.49 712.904 2422.55 712.892C2422.67 712.844 2422.76 712.718 2422.82 712.514C2422.85 712.394 2422.86 712.208 2422.86 711.956C2422.87 711.704 2422.88 711.404 2422.89 711.056C2423.04 711.188 2423.24 711.32 2423.51 711.452C2423.77 711.584 2424.01 711.686 2424.23 711.758C2424.21 712.118 2424.18 712.46 2424.14 712.784C2424.1 713.108 2424.05 713.342 2423.99 713.486C2423.84 713.798 2423.6 714.008 2423.27 714.116C2423.14 714.164 2422.97 714.2 2422.75 714.224C2422.53 714.248 2422.34 714.26 2422.17 714.26C2422.08 714.26 2421.95 714.26 2421.8 714.26C2421.64 714.26 2421.48 714.26 2421.33 714.26C2421.18 714.26 2421.06 714.26 2420.97 714.26C2420.75 714.26 2420.52 714.23 2420.27 714.17C2420.03 714.122 2419.83 714.032 2419.67 713.9C2419.5 713.78 2419.38 713.606 2419.31 713.378C2419.24 713.162 2419.2 712.802 2419.2 712.298V709.454ZM2417.49 697.988L2419.08 697.682C2419.22 697.946 2419.36 698.246 2419.49 698.582C2419.62 698.906 2419.72 699.188 2419.78 699.428L2418.12 699.824C2418.06 699.584 2417.97 699.29 2417.85 698.942C2417.73 698.594 2417.61 698.276 2417.49 697.988ZM2407.81 702.164H2413.01V703.766H2407.81V702.164ZM2409.7 698.024H2411.36V710.102H2409.7V698.024ZM2407.52 710.498C2408 710.354 2408.55 710.18 2409.16 709.976C2409.77 709.76 2410.42 709.526 2411.1 709.274C2411.79 709.022 2412.47 708.77 2413.16 708.518L2413.5 710.084C2412.56 710.456 2411.62 710.834 2410.67 711.218C2409.74 711.59 2408.87 711.932 2408.08 712.244L2407.52 710.498ZM2435.64 704.072H2437.35V714.512H2435.64V704.072ZM2430.62 706.538H2442.24V708.086H2430.62V706.538ZM2437.74 707.204C2438.09 707.888 2438.54 708.566 2439.08 709.238C2439.62 709.898 2440.2 710.51 2440.84 711.074C2441.48 711.626 2442.11 712.082 2442.75 712.442C2442.62 712.55 2442.47 712.682 2442.32 712.838C2442.16 712.994 2442.02 713.156 2441.88 713.324C2441.75 713.504 2441.64 713.66 2441.54 713.792C2440.89 713.36 2440.25 712.82 2439.62 712.172C2438.98 711.512 2438.39 710.798 2437.85 710.03C2437.31 709.262 2436.84 708.476 2436.45 707.672L2437.74 707.204ZM2435.33 707.06L2436.68 707.546C2436.27 708.374 2435.78 709.184 2435.21 709.976C2434.63 710.768 2434 711.488 2433.32 712.136C2432.63 712.784 2431.93 713.324 2431.21 713.756C2431.13 713.612 2431.01 713.456 2430.87 713.288C2430.74 713.132 2430.6 712.976 2430.45 712.82C2430.31 712.652 2430.17 712.514 2430.04 712.406C2430.74 712.058 2431.42 711.602 2432.09 711.038C2432.78 710.462 2433.39 709.832 2433.95 709.148C2434.51 708.464 2434.97 707.768 2435.33 707.06ZM2433.5 700.13V703.046H2439.6V700.13H2433.5ZM2431.89 698.636H2441.29V704.576H2431.89V698.636ZM2429.81 697.844L2431.39 698.366C2430.99 699.374 2430.53 700.382 2429.99 701.39C2429.45 702.386 2428.86 703.322 2428.24 704.198C2427.62 705.074 2426.97 705.854 2426.31 706.538C2426.25 706.394 2426.17 706.214 2426.06 705.998C2425.95 705.782 2425.83 705.566 2425.7 705.35C2425.58 705.134 2425.47 704.954 2425.38 704.81C2425.97 704.246 2426.53 703.598 2427.07 702.866C2427.62 702.122 2428.13 701.324 2428.6 700.472C2429.07 699.608 2429.47 698.732 2429.81 697.844ZM2427.99 702.632L2429.61 701.03L2429.63 701.048V714.458H2427.99V702.632ZM2443.58 707.186C2444.1 707.066 2444.7 706.916 2445.38 706.736C2446.05 706.556 2446.76 706.364 2447.5 706.16C2448.24 705.944 2448.99 705.728 2449.73 705.512L2449.97 707.078C2448.95 707.39 2447.91 707.702 2446.85 708.014C2445.81 708.326 2444.85 708.602 2443.99 708.842L2443.58 707.186ZM2443.86 701.336H2449.84V702.974H2443.86V701.336ZM2446.22 697.826H2447.88V712.46C2447.88 712.892 2447.83 713.234 2447.73 713.486C2447.64 713.75 2447.46 713.954 2447.19 714.098C2446.94 714.242 2446.61 714.332 2446.2 714.368C2445.81 714.404 2445.31 714.422 2444.71 714.422C2444.67 714.206 2444.61 713.936 2444.53 713.612C2444.45 713.288 2444.34 713.006 2444.22 712.766C2444.6 712.778 2444.94 712.784 2445.25 712.784C2445.57 712.784 2445.79 712.784 2445.9 712.784C2446.02 712.784 2446.1 712.76 2446.15 712.712C2446.2 712.664 2446.22 712.58 2446.22 712.46V697.826ZM2452.13 705.53H2458.89V707.15H2452.13V705.53ZM2452.05 700.904H2459.74V708.212H2458.05V702.434H2452.05V700.904ZM2450.92 700.904H2452.63V705.638C2452.63 706.322 2452.59 707.06 2452.52 707.852C2452.46 708.632 2452.34 709.424 2452.16 710.228C2451.99 711.032 2451.74 711.806 2451.41 712.55C2451.08 713.294 2450.64 713.966 2450.09 714.566C2450.01 714.446 2449.88 714.302 2449.71 714.134C2449.55 713.978 2449.37 713.822 2449.19 713.666C2449.01 713.522 2448.86 713.42 2448.72 713.36C2449.23 712.808 2449.62 712.214 2449.91 711.578C2450.2 710.93 2450.42 710.264 2450.56 709.58C2450.7 708.884 2450.8 708.2 2450.85 707.528C2450.9 706.856 2450.92 706.22 2450.92 705.62V700.904ZM2453.6 698.438L2455.13 697.862C2455.46 698.246 2455.77 698.678 2456.07 699.158C2456.38 699.626 2456.61 700.034 2456.75 700.382L2455.15 701.048C2455.02 700.688 2454.8 700.268 2454.5 699.788C2454.21 699.296 2453.91 698.846 2453.6 698.438Z" fill="#3C525E"/>
<path d="M2391.18 576.206H2396.47V577.556H2391.18V576.206ZM2390.37 570.572H2396.22V572.03H2390.37V570.572ZM2389.65 573.578H2398.4V575.054H2389.65V573.578ZM2392.6 568.808H2394.18V574.316H2392.6V568.808ZM2397.44 569.222L2399.03 569.672C2398.15 571.904 2396.99 573.866 2395.55 575.558C2394.12 577.25 2392.49 578.63 2390.64 579.698C2390.57 579.578 2390.46 579.44 2390.31 579.284C2390.17 579.116 2390.02 578.954 2389.86 578.798C2389.72 578.63 2389.59 578.498 2389.47 578.402C2391.29 577.454 2392.88 576.2 2394.24 574.64C2395.61 573.068 2396.67 571.262 2397.44 569.222ZM2393.37 579.014H2394.98V583.82C2394.98 584.204 2394.93 584.504 2394.83 584.72C2394.74 584.948 2394.55 585.122 2394.27 585.242C2393.99 585.362 2393.63 585.434 2393.21 585.458C2392.8 585.482 2392.32 585.494 2391.75 585.494C2391.72 585.266 2391.65 585.014 2391.56 584.738C2391.46 584.474 2391.35 584.24 2391.23 584.036C2391.65 584.048 2392.03 584.054 2392.37 584.054C2392.71 584.054 2392.95 584.048 2393.07 584.036C2393.19 584.036 2393.27 584.018 2393.3 583.982C2393.35 583.946 2393.37 583.88 2393.37 583.784V579.014ZM2396.11 576.206H2396.47L2396.78 576.116L2397.75 576.836C2397.27 577.388 2396.7 577.94 2396.06 578.492C2395.42 579.044 2394.8 579.506 2394.2 579.878C2394.11 579.746 2393.97 579.596 2393.79 579.428C2393.62 579.248 2393.48 579.11 2393.36 579.014C2393.7 578.786 2394.05 578.528 2394.4 578.24C2394.75 577.94 2395.07 577.64 2395.37 577.34C2395.67 577.028 2395.92 576.74 2396.11 576.476V576.206ZM2389.61 580.544C2390.36 580.472 2391.21 580.394 2392.17 580.31C2393.14 580.226 2394.17 580.136 2395.25 580.04C2396.34 579.932 2397.42 579.83 2398.5 579.734V581.192C2397.47 581.3 2396.43 581.408 2395.39 581.516C2394.35 581.624 2393.34 581.726 2392.38 581.822C2391.42 581.918 2390.56 582.002 2389.79 582.074L2389.61 580.544ZM2399.87 572.138H2406.37V573.704H2399.87V572.138ZM2400.25 568.79L2401.96 569.078C2401.76 570.23 2401.5 571.352 2401.19 572.444C2400.87 573.536 2400.51 574.55 2400.09 575.486C2399.68 576.422 2399.21 577.244 2398.67 577.952C2398.58 577.844 2398.46 577.712 2398.29 577.556C2398.12 577.4 2397.95 577.25 2397.77 577.106C2397.59 576.962 2397.43 576.848 2397.3 576.764C2397.8 576.14 2398.24 575.408 2398.61 574.568C2399 573.728 2399.32 572.816 2399.58 571.832C2399.86 570.848 2400.08 569.834 2400.25 568.79ZM2403.58 573.038L2405.31 573.218C2405.03 575.282 2404.61 577.1 2404.05 578.672C2403.5 580.232 2402.73 581.582 2401.76 582.722C2400.8 583.85 2399.57 584.804 2398.05 585.584C2398.01 585.44 2397.92 585.272 2397.8 585.08C2397.68 584.888 2397.56 584.696 2397.42 584.504C2397.29 584.312 2397.17 584.156 2397.06 584.036C2398.46 583.4 2399.59 582.578 2400.47 581.57C2401.35 580.562 2402.04 579.35 2402.52 577.934C2403.01 576.518 2403.36 574.886 2403.58 573.038ZM2400.77 573.416C2401.02 575.012 2401.38 576.512 2401.85 577.916C2402.33 579.308 2402.95 580.538 2403.71 581.606C2404.47 582.662 2405.42 583.478 2406.53 584.054C2406.4 584.162 2406.26 584.3 2406.1 584.468C2405.94 584.648 2405.8 584.828 2405.67 585.008C2405.54 585.2 2405.42 585.374 2405.33 585.53C2404.14 584.822 2403.15 583.886 2402.36 582.722C2401.56 581.558 2400.92 580.214 2400.41 578.69C2399.92 577.154 2399.52 575.48 2399.22 573.668L2400.77 573.416ZM2410.44 576.332H2420.64V577.736H2412.13V585.53H2410.44V576.332ZM2419.96 576.332H2421.69V583.766C2421.69 584.222 2421.61 584.564 2421.45 584.792C2421.31 585.02 2421.06 585.194 2420.7 585.314C2420.33 585.422 2419.84 585.482 2419.24 585.494C2418.65 585.506 2417.91 585.512 2417.03 585.512C2416.99 585.308 2416.91 585.074 2416.79 584.81C2416.68 584.546 2416.58 584.318 2416.47 584.126C2416.88 584.138 2417.29 584.15 2417.71 584.162C2418.13 584.174 2418.5 584.174 2418.83 584.162C2419.15 584.162 2419.37 584.162 2419.47 584.162C2419.65 584.15 2419.78 584.114 2419.85 584.054C2419.92 584.006 2419.96 583.904 2419.96 583.748V576.332ZM2411.59 578.906H2420.48V580.112H2411.59V578.906ZM2408.06 570.482H2423.97V571.994H2408.06V570.482ZM2417.73 572.444L2419.04 571.616C2419.5 571.964 2419.98 572.354 2420.5 572.786C2421.03 573.206 2421.53 573.62 2422.01 574.028C2422.49 574.436 2422.89 574.796 2423.22 575.108L2421.81 576.098C2421.51 575.786 2421.13 575.42 2420.66 575C2420.19 574.568 2419.7 574.13 2419.19 573.686C2418.67 573.242 2418.18 572.828 2417.73 572.444ZM2411.59 581.282H2420.43V582.506H2411.59V581.282ZM2409.9 575.738C2409.87 575.606 2409.83 575.438 2409.75 575.234C2409.69 575.018 2409.62 574.802 2409.54 574.586C2409.47 574.358 2409.4 574.166 2409.34 574.01C2409.52 573.974 2409.71 573.908 2409.9 573.812C2410.1 573.716 2410.32 573.59 2410.56 573.434C2410.72 573.326 2410.97 573.14 2411.32 572.876C2411.68 572.612 2412.07 572.294 2412.49 571.922C2412.92 571.55 2413.32 571.16 2413.7 570.752L2415.57 571.436C2415.1 571.892 2414.6 572.33 2414.07 572.75C2413.56 573.17 2413.04 573.56 2412.51 573.92C2411.99 574.28 2411.49 574.592 2411 574.856V574.892C2411 574.892 2410.94 574.922 2410.83 574.982C2410.73 575.03 2410.6 575.096 2410.46 575.18C2410.31 575.264 2410.18 575.354 2410.06 575.45C2409.95 575.546 2409.9 575.642 2409.9 575.738ZM2409.9 575.738L2409.88 574.532L2410.92 573.992L2420.84 573.524C2420.88 573.74 2420.92 573.98 2420.97 574.244C2421.03 574.508 2421.08 574.718 2421.13 574.874C2419.23 574.994 2417.65 575.09 2416.38 575.162C2415.11 575.234 2414.07 575.294 2413.28 575.342C2412.49 575.39 2411.87 575.438 2411.43 575.486C2410.98 575.522 2410.65 575.558 2410.44 575.594C2410.22 575.63 2410.04 575.678 2409.9 575.738ZM2414.65 569.096L2416.34 568.628C2416.57 568.988 2416.8 569.39 2417.04 569.834C2417.3 570.278 2417.49 570.65 2417.62 570.95L2415.84 571.508C2415.72 571.208 2415.54 570.83 2415.3 570.374C2415.07 569.906 2414.85 569.48 2414.65 569.096ZM2432.49 576.746C2433.28 578.654 2434.51 580.232 2436.18 581.48C2437.86 582.728 2439.96 583.574 2442.48 584.018C2442.36 584.138 2442.23 584.288 2442.08 584.468C2441.95 584.648 2441.82 584.834 2441.7 585.026C2441.58 585.218 2441.48 585.392 2441.4 585.548C2439.67 585.176 2438.14 584.618 2436.81 583.874C2435.49 583.13 2434.35 582.2 2433.39 581.084C2432.44 579.968 2431.65 578.666 2431.03 577.178L2432.49 576.746ZM2438.66 576.134H2439L2439.33 576.062L2440.52 576.602C2440.1 577.874 2439.54 579.002 2438.86 579.986C2438.18 580.958 2437.38 581.804 2436.48 582.524C2435.6 583.232 2434.62 583.832 2433.55 584.324C2432.49 584.828 2431.38 585.236 2430.2 585.548C2430.12 585.32 2429.99 585.062 2429.81 584.774C2429.63 584.486 2429.46 584.252 2429.3 584.072C2430.37 583.82 2431.4 583.478 2432.38 583.046C2433.36 582.614 2434.27 582.086 2435.1 581.462C2435.93 580.826 2436.65 580.088 2437.26 579.248C2437.87 578.408 2438.34 577.466 2438.66 576.422V576.134ZM2431.98 576.134H2438.93V577.79H2431.48L2431.98 576.134ZM2433.06 568.718L2434.95 569.024C2434.73 570.764 2434.41 572.384 2434 573.884C2433.6 575.384 2433.08 576.764 2432.43 578.024C2431.8 579.284 2431.01 580.424 2430.08 581.444C2429.14 582.452 2428.02 583.34 2426.71 584.108C2426.64 583.988 2426.53 583.844 2426.39 583.676C2426.24 583.496 2426.09 583.322 2425.92 583.154C2425.75 582.986 2425.59 582.854 2425.45 582.758C2427.07 581.834 2428.39 580.688 2429.41 579.32C2430.43 577.952 2431.23 576.38 2431.8 574.604C2432.38 572.816 2432.8 570.854 2433.06 568.718ZM2437.08 569.762L2438.39 568.97C2438.64 569.234 2438.91 569.522 2439.2 569.834C2439.49 570.146 2439.76 570.446 2440.01 570.734C2440.28 571.022 2440.49 571.28 2440.66 571.508L2439.27 572.408C2439.13 572.18 2438.93 571.916 2438.66 571.616C2438.41 571.304 2438.14 570.986 2437.85 570.662C2437.58 570.338 2437.32 570.038 2437.08 569.762ZM2427.52 574.748C2427.48 574.628 2427.43 574.472 2427.36 574.28C2427.3 574.088 2427.23 573.896 2427.16 573.704C2427.09 573.5 2427.02 573.332 2426.96 573.2C2427.08 573.152 2427.2 573.068 2427.32 572.948C2427.44 572.816 2427.56 572.654 2427.66 572.462C2427.74 572.33 2427.85 572.102 2428.01 571.778C2428.16 571.454 2428.32 571.07 2428.47 570.626C2428.64 570.182 2428.78 569.726 2428.89 569.258L2430.71 569.564C2430.55 570.08 2430.36 570.602 2430.15 571.13C2429.94 571.646 2429.73 572.132 2429.5 572.588C2429.27 573.044 2429.05 573.446 2428.83 573.794V573.812C2428.83 573.812 2428.77 573.842 2428.64 573.902C2428.5 573.962 2428.35 574.04 2428.17 574.136C2428 574.232 2427.85 574.34 2427.72 574.46C2427.59 574.568 2427.52 574.664 2427.52 574.748ZM2427.52 574.748V573.47L2428.58 572.786H2441.87V574.406H2429.43C2428.89 574.406 2428.46 574.436 2428.13 574.496C2427.81 574.556 2427.6 574.64 2427.52 574.748ZM2447.66 575.684H2459.4V577.124H2447.66V575.684ZM2447.21 578.726H2460.15V580.184H2447.21V578.726ZM2450.18 574.118H2451.75V579.482H2450.18V574.118ZM2454.95 574.118H2456.55V579.446H2454.95V574.118ZM2445.45 569.636H2447.16V574.946C2447.16 575.714 2447.13 576.56 2447.09 577.484C2447.04 578.396 2446.94 579.332 2446.8 580.292C2446.65 581.252 2446.44 582.182 2446.15 583.082C2445.86 583.982 2445.48 584.804 2445 585.548C2444.89 585.452 2444.74 585.344 2444.55 585.224C2444.37 585.116 2444.18 585.008 2443.99 584.9C2443.8 584.804 2443.63 584.726 2443.49 584.666C2443.94 583.97 2444.3 583.208 2444.55 582.38C2444.81 581.552 2445 580.706 2445.12 579.842C2445.26 578.966 2445.34 578.114 2445.38 577.286C2445.42 576.446 2445.45 575.666 2445.45 574.946V569.636ZM2446.47 569.636H2459.13V574.1H2446.47V572.642H2457.42V571.094H2446.47V569.636ZM2453.94 579.284C2454.45 580.532 2455.24 581.57 2456.32 582.398C2457.41 583.214 2458.76 583.784 2460.37 584.108C2460.19 584.276 2460 584.498 2459.81 584.774C2459.62 585.05 2459.46 585.296 2459.34 585.512C2457.64 585.092 2456.22 584.384 2455.1 583.388C2453.98 582.392 2453.13 581.132 2452.54 579.608L2453.94 579.284ZM2458.07 580.13L2459.34 581.03C2458.85 581.39 2458.31 581.744 2457.72 582.092C2457.14 582.428 2456.6 582.716 2456.12 582.956L2455.02 582.128C2455.35 581.96 2455.7 581.762 2456.07 581.534C2456.44 581.306 2456.8 581.072 2457.15 580.832C2457.5 580.58 2457.8 580.346 2458.07 580.13ZM2448.72 585.566L2448.67 584.288L2449.34 583.748L2454.09 582.758C2454.05 582.974 2454.02 583.22 2454 583.496C2453.97 583.772 2453.97 583.994 2453.98 584.162C2452.91 584.414 2452.05 584.618 2451.39 584.774C2450.74 584.942 2450.24 585.068 2449.88 585.152C2449.53 585.248 2449.27 585.326 2449.1 585.386C2448.95 585.446 2448.82 585.506 2448.72 585.566ZM2448.72 585.566C2448.7 585.434 2448.65 585.278 2448.56 585.098C2448.49 584.93 2448.41 584.756 2448.33 584.576C2448.24 584.408 2448.16 584.276 2448.08 584.18C2448.26 584.072 2448.45 583.898 2448.65 583.658C2448.87 583.406 2448.98 583.07 2448.98 582.65V579.392L2450.56 579.446V583.82C2450.56 583.82 2450.5 583.862 2450.38 583.946C2450.26 584.018 2450.1 584.12 2449.91 584.252C2449.73 584.384 2449.55 584.528 2449.37 584.684C2449.19 584.84 2449.04 584.996 2448.9 585.152C2448.78 585.308 2448.72 585.446 2448.72 585.566Z" fill="#3C525E"/>
<path d="M2394.11 98.04V99.786H2401.94V98.04H2394.11ZM2392.33 96.582H2403.81V101.262H2392.33V96.582ZM2396.97 105.258H2398.83V106.914C2398.83 107.286 2398.77 107.676 2398.67 108.084C2398.56 108.492 2398.35 108.906 2398.05 109.326C2397.77 109.734 2397.34 110.136 2396.78 110.532C2396.22 110.916 2395.49 111.282 2394.58 111.63C2393.68 111.99 2392.56 112.32 2391.23 112.62C2391.17 112.5 2391.08 112.35 2390.94 112.17C2390.81 112.002 2390.67 111.828 2390.51 111.648C2390.37 111.48 2390.23 111.342 2390.1 111.234C2391.36 110.994 2392.41 110.73 2393.25 110.442C2394.1 110.154 2394.77 109.86 2395.26 109.56C2395.77 109.248 2396.14 108.936 2396.38 108.624C2396.62 108.312 2396.78 108.012 2396.85 107.724C2396.93 107.424 2396.97 107.142 2396.97 106.878V105.258ZM2398.58 110.01L2399.4 108.75C2399.92 108.906 2400.48 109.086 2401.08 109.29C2401.68 109.494 2402.28 109.71 2402.88 109.938C2403.48 110.154 2404.05 110.37 2404.59 110.586C2405.13 110.79 2405.59 110.982 2405.97 111.162L2405.11 112.602C2404.74 112.422 2404.29 112.218 2403.76 111.99C2403.24 111.762 2402.69 111.528 2402.09 111.288C2401.49 111.06 2400.89 110.838 2400.29 110.622C2399.69 110.394 2399.12 110.19 2398.58 110.01ZM2391.65 102.666H2404.57V109.128H2402.73V104.25H2393.39V109.308H2391.65V102.666ZM2408.84 97.77H2423.22V99.534H2408.84V97.77ZM2407.88 109.488H2424.17V111.198H2407.88V109.488ZM2414.99 98.706H2416.9V110.172H2414.99V98.706ZM2427.3 99.552L2440.93 99.552V101.244L2427.3 101.244V99.552ZM2426.17 104.142L2441.9 104.142V105.816L2426.17 105.816V104.142ZM2434.9 104.664C2435.32 105.672 2435.88 106.584 2436.57 107.4C2437.28 108.204 2438.12 108.888 2439.09 109.452C2440.08 110.016 2441.19 110.442 2442.42 110.73C2442.29 110.862 2442.15 111.024 2441.99 111.216C2441.85 111.42 2441.7 111.624 2441.56 111.828C2441.43 112.044 2441.31 112.236 2441.22 112.404C2439.92 112.032 2438.77 111.51 2437.76 110.838C2436.77 110.154 2435.9 109.332 2435.17 108.372C2434.45 107.4 2433.84 106.302 2433.35 105.078L2434.9 104.664ZM2437.64 95.844L2439.49 96.456C2439.23 96.936 2438.94 97.422 2438.64 97.914C2438.36 98.406 2438.06 98.874 2437.76 99.318C2437.47 99.762 2437.2 100.152 2436.93 100.488L2435.48 99.93C2435.74 99.558 2436 99.138 2436.27 98.67C2436.53 98.202 2436.78 97.722 2437.02 97.23C2437.28 96.726 2437.48 96.264 2437.64 95.844ZM2428.87 96.636L2430.31 95.916C2430.69 96.372 2431.06 96.882 2431.41 97.446C2431.77 98.01 2432.03 98.502 2432.2 98.922L2430.67 99.768C2430.57 99.48 2430.43 99.156 2430.24 98.796C2430.05 98.436 2429.83 98.064 2429.59 97.68C2429.36 97.296 2429.12 96.948 2428.87 96.636ZM2433.12 100.164H2435.08V103.512C2435.08 104.124 2435.03 104.748 2434.92 105.384C2434.81 106.02 2434.6 106.662 2434.29 107.31C2433.98 107.946 2433.52 108.57 2432.92 109.182C2432.32 109.794 2431.53 110.382 2430.56 110.946C2429.6 111.51 2428.41 112.032 2426.98 112.512C2426.9 112.368 2426.78 112.2 2426.64 112.008C2426.51 111.828 2426.36 111.642 2426.19 111.45C2426.03 111.27 2425.88 111.114 2425.72 110.982C2427.06 110.562 2428.18 110.112 2429.07 109.632C2429.96 109.152 2430.67 108.654 2431.21 108.138C2431.75 107.61 2432.16 107.082 2432.43 106.554C2432.71 106.026 2432.89 105.504 2432.97 104.988C2433.07 104.472 2433.12 103.974 2433.12 103.494V100.164ZM2446.08 95.808H2447.77V112.494H2446.08V95.808ZM2444.35 99.318L2445.66 99.498C2445.64 100.002 2445.59 100.554 2445.5 101.154C2445.43 101.754 2445.33 102.342 2445.21 102.918C2445.09 103.494 2444.96 104.01 2444.8 104.466L2443.45 103.998C2443.61 103.59 2443.74 103.116 2443.85 102.576C2443.97 102.036 2444.07 101.484 2444.15 100.92C2444.25 100.344 2444.31 99.81 2444.35 99.318ZM2447.7 99.246L2448.96 98.706C2449.14 99.066 2449.32 99.45 2449.5 99.858C2449.68 100.266 2449.85 100.662 2450 101.046C2450.16 101.43 2450.27 101.76 2450.34 102.036L2449.01 102.702C2448.94 102.402 2448.83 102.054 2448.69 101.658C2448.54 101.262 2448.39 100.854 2448.22 100.434C2448.05 100.002 2447.88 99.606 2447.7 99.246ZM2449.34 96.888H2460.1V98.508H2449.34V96.888ZM2454.41 97.788L2456.1 98.274C2455.62 99.51 2455.05 100.698 2454.38 101.838C2453.72 102.966 2452.99 104.01 2452.2 104.97C2451.41 105.918 2450.57 106.746 2449.7 107.454C2449.61 107.346 2449.49 107.208 2449.34 107.04C2449.18 106.86 2449.01 106.686 2448.83 106.518C2448.66 106.338 2448.51 106.2 2448.38 106.104C2449.25 105.48 2450.06 104.736 2450.81 103.872C2451.57 103.008 2452.25 102.06 2452.86 101.028C2453.48 99.996 2453.99 98.916 2454.41 97.788ZM2454.9 102.288L2456.16 101.37C2456.64 101.838 2457.14 102.36 2457.67 102.936C2458.21 103.5 2458.71 104.058 2459.18 104.61C2459.66 105.15 2460.04 105.642 2460.32 106.086L2458.97 107.166C2458.7 106.734 2458.34 106.236 2457.89 105.672C2457.43 105.108 2456.94 104.532 2456.41 103.944C2455.89 103.344 2455.39 102.792 2454.9 102.288ZM2453.44 101.01L2455.13 100.326V112.476H2453.44V101.01Z" fill="#3C525E"/>
<circle cx="2326.5" cy="232.5" r="33.5" fill="white"/>
<path d="M2322.32 228.528L2319.8 227.52C2320.64 224.64 2323.21 223.032 2326.5 223.032C2330.31 223.032 2332.55 225.024 2332.55 228C2332.55 230.184 2331.61 231.96 2329.95 233.496C2329.11 234.288 2327.96 235.176 2326.5 236.208L2324.58 237.312H2333.07V240H2320.04V237.864L2323.83 235.104C2323.95 235.008 2324.29 234.744 2324.89 234.288C2325.49 233.832 2325.87 233.52 2326.07 233.352C2326.26 233.184 2326.59 232.896 2327.1 232.488C2327.58 232.08 2327.91 231.744 2328.13 231.48C2328.51 231 2329.21 230.16 2329.43 229.488C2329.52 229.152 2329.57 228.816 2329.57 228.456C2329.57 226.824 2328.39 225.816 2326.45 225.816C2324.36 225.816 2322.99 226.968 2322.32 228.528Z" fill="#1A3341" fill-opacity="0.6"/>
<circle cx="2326.5" cy="103.5" r="33.5" fill="white"/>
<path d="M2322.76 99.288L2321.78 96.888L2327.42 94.152H2329.24V111H2326.46V97.584L2322.76 99.288Z" fill="#1A3341" fill-opacity="0.6"/>
<circle cx="2326.5" cy="405.5" r="33.5" fill="white"/>
<path d="M2322.57 401L2320.1 399.896C2320.96 397.472 2323.51 395.984 2326.65 395.984C2328.43 395.984 2329.89 396.368 2331.02 397.136C2332.15 397.928 2332.72 398.936 2332.72 400.208C2332.72 402.104 2331.62 403.568 2330.01 404.048C2331.72 404.456 2333.08 405.68 2333.08 407.984C2333.08 409.544 2332.48 410.816 2331.28 411.752C2330.06 412.712 2328.57 413.192 2326.77 413.192C2324.85 413.192 2323.03 412.736 2321.44 411.416C2320.65 410.768 2320.08 409.952 2319.76 409.016L2322.4 407.912C2322.74 408.656 2323.32 409.256 2324.11 409.712C2324.9 410.168 2325.69 410.408 2326.53 410.408C2328.57 410.408 2330.08 409.52 2330.08 408.008C2330.08 406.304 2328.6 405.728 2326 405.728H2324.37V403.088H2326.1C2328.28 403.088 2329.75 402.128 2329.75 400.808C2329.75 400.16 2329.44 399.632 2328.81 399.272C2328.19 398.912 2327.4 398.72 2326.41 398.72C2325.43 398.72 2324.66 398.912 2324.06 399.296C2323.46 399.68 2322.98 400.256 2322.57 401Z" fill="#1A3341" fill-opacity="0.6"/>
<circle cx="2326.5" cy="576.5" r="33.5" fill="white"/>
<path d="M2331.23 584H2328.42V580.808H2318.92V578.936L2328.83 567.2H2331.23V578.24H2334.08V580.808H2331.23V584ZM2328.42 571.784L2322.76 578.24H2328.42V571.784Z" fill="#1A3341" fill-opacity="0.6"/>
<circle cx="2326.5" cy="705.5" r="33.5" fill="white"/>
<path d="M2323 705.632L2320.58 705.392L2321.35 696.2H2332.32V698.912H2323.89L2323.53 702.632C2324.32 702.224 2325.33 702.032 2326.51 702.032C2330.54 702.032 2332.8 704.192 2332.8 707.552C2332.8 709.256 2332.2 710.6 2331 711.632C2329.77 712.664 2328.24 713.192 2326.34 713.192C2323.75 713.192 2320.82 712.184 2319.74 709.112L2322.43 708.128C2322.98 709.568 2324.64 710.408 2326.48 710.408C2328.57 710.408 2329.82 709.28 2329.82 707.648C2329.82 705.752 2328.45 704.648 2326.17 704.648C2324.85 704.648 2323.8 704.984 2323 705.632Z" fill="#1A3341" fill-opacity="0.6"/>
<path d="M1468.02 334.2H1472.34V333.03H1468.02V334.2ZM1468.02 330.014V331.184H1472.34V330.014H1468.02ZM1480.01 330.014H1475.46V331.184H1480.01V330.014ZM1480.01 334.2V333.03H1475.46V334.2H1480.01ZM1475.46 341.09H1485.83V343.534H1462.25V341.09H1472.34V339.712H1464.15V337.398H1472.34V336.228H1465V327.986H1472.34V326.998H1462.4V324.58H1472.34V323.436C1469.84 323.54 1467.29 323.618 1464.95 323.644C1464.93 322.942 1464.59 321.902 1464.33 321.278C1470.39 321.148 1477.43 320.706 1481.83 319.978L1483.26 322.37C1480.99 322.734 1478.29 323.02 1475.46 323.228V324.58H1485.65V326.998H1475.46V327.986H1483.18V336.228H1475.46V337.398H1484.14V339.712H1475.46V341.09ZM1505.9 333.784V330.482H1493.97V333.784H1505.9ZM1509.05 327.622V336.644H1491.03V327.622H1498.31V319.978H1501.46V322.266H1510.76V325.152H1501.46V327.622H1509.05ZM1490.67 344.158L1487.81 342.78C1489.08 341.636 1490.33 339.582 1491.06 337.71L1494.05 338.438C1493.29 340.518 1492.04 342.78 1490.67 344.158ZM1495.32 338.62L1498.26 338.334C1498.65 340.102 1498.93 342.338 1498.99 343.69L1495.84 344.08C1495.84 342.728 1495.63 340.414 1495.32 338.62ZM1500.62 338.646L1503.46 338.022C1504.26 339.66 1505.12 341.818 1505.43 343.17L1502.44 343.95C1502.16 342.598 1501.38 340.362 1500.62 338.646ZM1505.9 338.49L1508.68 337.502C1509.93 339.14 1511.44 341.402 1512.09 342.936L1509.1 344.08C1508.55 342.598 1507.15 340.232 1505.9 338.49ZM1526.55 326.166H1529.8C1530.03 325.464 1530.32 324.658 1530.52 323.93H1525.95V321.226H1537.91V323.93H1533.36C1533.05 324.71 1532.73 325.464 1532.45 326.166H1537.34V338.23H1534.45V328.376H1529.28V338.334H1526.55V326.166ZM1526.42 327.492L1524.54 329.624C1523.69 328.298 1522 326.348 1520.38 324.71C1519.06 326.92 1517.47 328.948 1515.63 330.534C1515.18 329.962 1514.2 329 1513.57 328.506C1516.22 326.426 1518.51 322.968 1519.71 319.9L1522.36 320.68C1522.15 321.226 1521.92 321.772 1521.66 322.318C1523.37 324.008 1525.43 326.114 1526.42 327.492ZM1518.1 328.064L1520.05 326.868C1521.01 327.778 1522.18 329 1522.75 329.754L1520.77 331.184C1520.2 330.352 1519.06 329.026 1518.1 328.064ZM1523.45 331.236L1525.4 332.458C1524.41 334.98 1522.7 337.866 1521.27 340.024C1522.07 340.83 1522.75 341.61 1523.22 342.26L1521.01 344.08C1519.97 342.52 1517.6 340.076 1515.78 338.282L1517.84 336.748C1518.3 337.19 1518.82 337.658 1519.37 338.126C1520.15 336.904 1521.01 335.396 1521.68 334.018H1515.7V331.392H1522.96L1523.45 331.236ZM1532.08 339.426L1533.44 338.256C1535.02 339.504 1537.15 341.272 1538.17 342.442L1536.19 344.288C1535.28 343.144 1533.36 341.402 1531.82 340.102C1530.84 342.13 1529.15 343.482 1526.13 344.444C1525.87 343.794 1525.19 342.806 1524.65 342.286C1530.47 340.544 1530.6 337.606 1530.63 329.286H1533.15C1533.12 333.81 1533.02 337.06 1532.08 339.426ZM1546.98 334.486L1547.87 337.216C1545.58 338.568 1543.06 339.998 1540.92 341.142L1539.75 338.022C1540.48 337.71 1541.37 337.294 1542.33 336.852V329.104H1539.99V326.14H1542.33V320.316H1545.21V326.14H1547.16V329.104H1545.21V335.37L1546.98 334.486ZM1560.74 328.064L1563.49 328.584C1562.69 331.99 1561.54 335.032 1560.03 337.632C1560.48 339.946 1561.07 341.35 1561.7 341.35C1562.06 341.35 1562.27 340.388 1562.35 338.074C1562.92 338.802 1563.78 339.452 1564.43 339.79C1563.99 343.248 1563.23 344.236 1561.28 344.236C1559.83 344.236 1558.73 342.858 1557.93 340.648C1556.86 341.974 1555.64 343.118 1554.29 344.08C1553.87 343.56 1552.73 342.572 1552.08 342.13C1553.33 341.35 1554.42 340.414 1555.41 339.374C1552.65 340.102 1549.74 340.882 1547.5 341.454L1546.77 338.568C1549.04 338.152 1552.44 337.372 1555.72 336.644L1555.95 338.698C1556.34 338.23 1556.71 337.762 1557.04 337.268C1556.45 334.174 1556.11 330.378 1555.95 326.348H1547.55V323.54H1555.85C1555.82 322.344 1555.8 321.174 1555.8 319.978H1558.73C1558.71 321.174 1558.71 322.344 1558.73 323.54H1561.49C1560.84 322.864 1559.98 322.084 1559.23 321.486L1560.97 319.978C1561.98 320.706 1563.23 321.746 1563.83 322.5L1562.71 323.54H1563.86V326.348H1558.81C1558.92 328.714 1559.07 330.924 1559.31 332.9C1559.9 331.392 1560.35 329.806 1560.74 328.064ZM1552.57 333.628V330.456H1550.57V333.628H1552.57ZM1548.31 328.09H1554.99V335.994H1548.31V328.09Z" fill="#1A3341"/>
<defs>
<linearGradient id="paint0_linear_7003_50999" x1="2360.6" y1="-1.50083e+14" x2="1615.32" y2="-1.50083e+14" gradientUnits="userSpaceOnUse">
<stop stop-color="#92F7CC"/>
<stop offset="1" stop-color="#2B5F90"/>
</linearGradient>
<linearGradient id="paint1_linear_7003_50999" x1="2201.41" y1="252.5" x2="1681.69" y2="252.5" gradientUnits="userSpaceOnUse">
<stop stop-color="#70D4AA"/>
<stop offset="1" stop-color="#228D9C"/>
</linearGradient>
<linearGradient id="paint2_linear_7003_50999" x1="2302.45" y1="316.525" x2="1804.64" y2="316.525" gradientUnits="userSpaceOnUse">
<stop stop-color="#49BC77"/>
<stop offset="1" stop-color="#0D5F8D"/>
</linearGradient>
<linearGradient id="paint3_linear_7003_50999" x1="2607.33" y1="215.374" x2="1960.54" y2="215.374" gradientUnits="userSpaceOnUse">
<stop stop-color="#39EC2A"/>
<stop offset="1" stop-color="#7EDEEC"/>
</linearGradient>
<linearGradient id="paint4_linear_7003_50999" x1="1839.92" y1="576.824" x2="1073.62" y2="576.824" gradientUnits="userSpaceOnUse">
<stop stop-color="#69D88F"/>
<stop offset="1" stop-color="#4D809E"/>
</linearGradient>
<linearGradient id="paint5_linear_7003_50999" x1="2248.24" y1="507.5" x2="1898.68" y2="507.5" gradientUnits="userSpaceOnUse">
<stop stop-color="#70D4AA"/>
<stop offset="1" stop-color="#3AA7B6"/>
</linearGradient>
<linearGradient id="paint6_linear_7003_50999" x1="2482.62" y1="555.5" x2="1431.81" y2="544.479" gradientUnits="userSpaceOnUse">
<stop stop-color="#99F452" stop-opacity="0.68"/>
<stop offset="1" stop-color="#1DA858"/>
</linearGradient>
</defs>
</svg>
