<svg width="84" height="25" viewBox="0 0 84 25" fill="none" xmlns="http://www.w3.org/2000/svg">
<path d="M4.88099 23.0461C3.32276 22.2118 2.1215 21.0426 1.27721 19.5426C0.430909 18.0405 0.00976562 16.3098 0.00976562 14.3525V0.466797H6.6157V14.3525C6.6157 15.4434 6.95462 16.3278 7.63446 17.0057C8.3123 17.6855 9.21876 18.0245 10.3538 18.0245C11.4889 18.0245 12.4235 17.6855 13.0913 17.0057C13.7591 16.3278 14.092 15.4414 14.092 14.3525V0.466797H20.6999V14.3525C20.6999 16.3098 20.2768 18.0405 19.4325 19.5426C18.5862 21.0447 17.3849 22.2118 15.8287 23.0461C14.2705 23.8803 12.4455 24.2975 10.3538 24.2975C8.26217 24.2975 6.43721 23.8803 4.87898 23.0461H4.88099Z" fill="white"/>
<path d="M35.5381 23.8302H28.9302V6.74183H22.3884V0.466797H42.0819V6.74183H35.5401V23.8302H35.5381Z" fill="white"/>
<path d="M60.6885 23.8302H43.7666V0.466797H50.3745V17.5552H60.6885V23.8302Z" fill="white"/>
<path d="M66.5704 22.7297C64.7435 21.6829 63.3056 20.2389 62.2587 18.3919C61.2119 16.5469 60.6885 14.4673 60.6885 12.149C60.6885 9.83068 61.2119 7.75104 62.2587 5.90603C63.3056 4.06102 64.7435 2.6151 66.5704 1.57026C68.3974 0.523421 70.4289 0 72.663 0C74.7567 0 76.6137 0.445208 78.2321 1.33362C79.8485 2.22203 81.148 3.39321 82.1247 4.84315C83.1013 6.29509 83.731 7.85332 84.0098 9.51783H77.5502C77.2715 8.57327 76.712 7.76307 75.8737 7.08724C75.0354 6.4114 73.9645 6.07449 72.663 6.07449C71.6382 6.07449 70.7077 6.32717 69.8694 6.83455C69.0311 7.33992 68.3673 8.04985 67.88 8.96032C67.3907 9.87079 67.146 10.9337 67.146 12.149C67.146 13.3643 67.3907 14.4272 67.88 15.3376C68.3693 16.2481 69.0331 16.958 69.8694 17.4634C70.7077 17.9688 71.6382 18.2235 72.663 18.2235C73.9886 18.2235 75.0715 17.8685 75.9098 17.1606C76.7481 16.4527 77.2936 15.5923 77.5502 14.5796H84.0098C83.7531 16.2902 83.1374 17.8865 82.1588 19.3726C81.1821 20.8586 79.8826 22.0499 78.2662 22.9503C76.6478 23.8507 74.7807 24.3 72.663 24.3C70.4289 24.3 68.3974 23.7765 66.5704 22.7317V22.7297Z" fill="white"/>
</svg>
