<svg width="335" height="350" viewBox="0 0 335 350" fill="none" xmlns="http://www.w3.org/2000/svg">
<path d="M23.4518 117.028C23.4518 115.576 23.8238 114.448 24.5798 113.668C25.3358 112.888 26.2958 112.492 27.4718 112.492C28.6118 112.492 29.5238 112.852 30.2078 113.584L29.4038 114.604C28.8638 114.136 28.2038 113.896 27.4478 113.896C26.7278 113.896 26.1158 114.124 25.6238 114.592C25.1318 115.06 24.8798 115.708 24.8918 116.548C25.4198 115.78 26.4158 115.264 27.4358 115.264C29.4398 115.264 30.6398 116.368 30.6398 118.096C30.6398 118.984 30.3278 119.704 29.7038 120.268C29.0678 120.832 28.2638 121.108 27.2798 121.108C26.1158 121.108 25.1798 120.748 24.4958 120.04C23.7998 119.332 23.4518 118.324 23.4518 117.028ZM25.1198 117.94C25.2758 118.948 25.9958 119.716 27.3398 119.716C28.3598 119.716 29.1518 119.08 29.1518 118.168C29.1518 117.172 28.4918 116.62 27.2798 116.62C26.7878 116.62 26.3318 116.764 25.8998 117.052C25.4678 117.352 25.2038 117.64 25.1198 117.94Z" fill="#1A3341"/>
<path d="M46.3564 77H44.9524V75.404H40.2004V74.468L45.1564 68.6H46.3564V74.12H47.7844V75.404H46.3564V77ZM44.9524 70.892L42.1204 74.12H44.9524V70.892Z" fill="#1A3341"/>
<path d="M30.7672 176.068H31.1152C32.0272 176.068 32.7592 175.612 32.7592 174.928C32.7592 174.208 32.1112 173.824 30.9232 173.824C29.8672 173.824 29.0992 174.232 29.0992 174.916C29.0992 175.588 29.7712 176.068 30.7672 176.068ZM31.0912 177.304H30.8032C29.6152 177.304 28.8352 177.844 28.8352 178.528C28.8352 179.296 29.6272 179.788 30.9352 179.788C32.2192 179.788 33.0232 179.32 33.0232 178.552C33.0232 177.772 32.3272 177.304 31.0912 177.304ZM30.9472 181.096C29.8792 181.096 29.0032 180.88 28.3432 180.436C27.6832 180.004 27.3472 179.416 27.3472 178.66C27.3472 177.736 27.8512 176.968 28.7512 176.644C27.9952 176.32 27.6112 175.732 27.6112 174.856C27.6112 173.416 28.8592 172.504 30.9352 172.504C33.0592 172.504 34.2592 173.416 34.2592 174.856C34.2592 175.624 33.8152 176.32 32.9992 176.62C34.0192 176.872 34.5232 177.544 34.5232 178.612C34.5232 179.38 34.1872 179.98 33.5152 180.424C32.8432 180.868 31.9912 181.096 30.9472 181.096Z" fill="#1A3341"/>
<path d="M293.732 164.987C288.667 191.539 275.325 215.806 255.62 234.31C235.915 252.813 210.858 264.604 184.04 267.991L182.115 252.752C205.715 249.771 227.765 239.396 245.106 223.113C262.446 206.83 274.187 185.475 278.644 162.109L293.732 164.987Z" fill="url(#paint0_linear_7002_37659)"/>
<path d="M184.037 267.991C158.581 271.206 132.746 266.696 109.884 255.046C87.0228 243.397 68.1902 225.145 55.8301 202.66L69.2905 195.26C80.1674 215.047 96.7401 231.109 116.858 241.361C136.976 251.613 159.711 255.581 182.113 252.752L184.037 267.991Z" fill="url(#paint1_linear_7002_37659)"/>
<path d="M55.824 202.649C45.44 183.754 39.9969 162.542 40 140.982L55.36 140.984C55.3573 159.957 60.1472 178.623 69.2851 195.251L55.824 202.649Z" fill="#8BB6C2"/>
<path d="M48.9956 93.8625C52.9498 83.8796 58.1444 74.434 64.457 65.7482L76.8821 74.7784C71.327 82.4219 66.7558 90.7341 63.2761 99.519L48.9956 93.8625Z" fill="url(#paint2_linear_7002_37659)"/>
<path d="M40 141C40 124.867 43.0497 108.88 48.9886 93.8801L63.27 99.5345C58.0438 112.734 55.36 126.803 55.36 141L40 141Z" fill="#5A96A8"/>
<path d="M64.4484 65.76C67.601 61.421 71.0233 57.2845 74.695 53.3748L85.8916 63.8899C82.6605 67.3304 79.6489 70.9705 76.8745 74.7888L64.4484 65.76Z" fill="#0085D0"/>
<path d="M74.6805 53.3902C86.649 40.6418 101.103 30.4808 117.15 23.5341C133.197 16.5874 150.497 13.0023 167.983 13L167.985 28.36C152.597 28.362 137.373 31.5169 123.252 37.63C109.13 43.7431 96.4111 52.6848 85.8789 63.9034L74.6805 53.3902Z" fill="#184977"/>
<path d="M168 13C186.842 13 205.451 17.1597 222.5 25.1821C239.548 33.2046 254.615 44.8919 266.626 59.4097C278.636 73.9275 287.293 90.9178 291.979 109.168C296.664 127.417 297.263 146.477 293.733 164.985L278.645 162.107C281.752 145.82 281.225 129.047 277.101 112.988C272.978 96.9277 265.36 81.9762 254.791 69.2005C244.222 56.4249 230.962 46.14 215.96 39.0803C200.957 32.0205 184.581 28.36 168 28.36V13Z" fill="url(#paint3_linear_7002_37659)"/>
<path d="M261.62 31.766L260.36 31.262C260.78 29.822 262.064 29.018 263.708 29.018C265.616 29.018 266.732 30.014 266.732 31.502C266.732 32.594 266.264 33.482 265.436 34.25C265.016 34.646 264.44 35.09 263.708 35.606L262.748 36.158H266.996V37.502H260.48V36.434L262.376 35.054C262.436 35.006 262.604 34.874 262.904 34.646C263.204 34.418 263.396 34.262 263.492 34.178C263.588 34.094 263.756 33.95 264.008 33.746C264.248 33.542 264.416 33.374 264.524 33.242C264.716 33.002 265.064 32.582 265.172 32.246C265.22 32.078 265.244 31.91 265.244 31.73C265.244 30.914 264.656 30.41 263.684 30.41C262.64 30.41 261.956 30.986 261.62 31.766ZM270.838 32.57H271.186C272.098 32.57 272.83 32.114 272.83 31.43C272.83 30.71 272.182 30.326 270.994 30.326C269.938 30.326 269.17 30.734 269.17 31.418C269.17 32.09 269.842 32.57 270.838 32.57ZM271.162 33.806H270.874C269.686 33.806 268.906 34.346 268.906 35.03C268.906 35.798 269.698 36.29 271.006 36.29C272.29 36.29 273.094 35.822 273.094 35.054C273.094 34.274 272.398 33.806 271.162 33.806ZM271.018 37.598C269.95 37.598 269.074 37.382 268.414 36.938C267.754 36.506 267.418 35.918 267.418 35.162C267.418 34.238 267.922 33.47 268.822 33.146C268.066 32.822 267.682 32.234 267.682 31.358C267.682 29.918 268.93 29.006 271.006 29.006C273.13 29.006 274.33 29.918 274.33 31.358C274.33 32.126 273.886 32.822 273.07 33.122C274.09 33.374 274.594 34.046 274.594 35.114C274.594 35.882 274.258 36.482 273.586 36.926C272.914 37.37 272.062 37.598 271.018 37.598Z" fill="#1A3341"/>
<path d="M264.995 239.709L263.735 239.205C264.155 237.765 265.439 236.961 267.083 236.961C268.991 236.961 270.107 237.957 270.107 239.445C270.107 240.537 269.639 241.425 268.811 242.193C268.391 242.589 267.815 243.033 267.083 243.549L266.123 244.101H270.371V245.445H263.855V244.377L265.751 242.997C265.811 242.949 265.979 242.817 266.279 242.589C266.579 242.361 266.771 242.205 266.867 242.121C266.963 242.037 267.131 241.893 267.383 241.689C267.623 241.485 267.791 241.317 267.899 241.185C268.091 240.945 268.439 240.525 268.547 240.189C268.595 240.021 268.619 239.853 268.619 239.673C268.619 238.857 268.031 238.353 267.059 238.353C266.015 238.353 265.331 238.929 264.995 239.709ZM270.757 241.245C270.757 239.973 271.081 238.941 271.717 238.149C272.353 237.357 273.241 236.961 274.381 236.961C275.533 236.961 276.433 237.357 277.069 238.149C277.705 238.941 278.029 239.973 278.029 241.245C278.029 242.529 277.717 243.561 277.081 244.341C276.445 245.133 275.557 245.529 274.405 245.529C273.253 245.529 272.353 245.133 271.717 244.341C271.081 243.561 270.757 242.529 270.757 241.245ZM272.797 239.097C272.425 239.601 272.245 240.321 272.245 241.245C272.245 242.169 272.437 242.889 272.821 243.393C273.193 243.897 273.721 244.149 274.405 244.149C275.833 244.149 276.541 243.177 276.541 241.245C276.541 239.361 275.821 238.341 274.381 238.341C273.697 238.341 273.169 238.593 272.797 239.097Z" fill="#1A3341"/>
<path d="M84.8593 259.305L84.3673 258.105L87.1873 256.737H88.0993V265.161H86.7073V258.453L84.8593 259.305ZM96.1088 260.733C96.1088 262.209 95.7488 263.325 95.0288 264.105C94.2968 264.885 93.3608 265.269 92.2088 265.269C91.0688 265.269 90.1568 264.909 89.4728 264.177L90.2768 263.157C90.8168 263.625 91.4768 263.865 92.2328 263.865C92.9408 263.865 93.5168 263.637 93.9728 263.181C94.4288 262.737 94.6568 262.137 94.6568 261.381C94.2368 262.017 93.2408 262.449 92.1848 262.449C91.2128 262.449 90.4328 262.197 89.8568 261.681C89.2808 261.165 88.9928 260.493 88.9928 259.665C88.9928 258.789 89.3168 258.069 89.9768 257.505C90.6368 256.941 91.4168 256.653 92.3408 256.653C93.4808 256.653 94.4048 257.013 95.0888 257.721C95.7728 258.429 96.1088 259.437 96.1088 260.733ZM94.4888 259.977C94.4768 259.485 94.2848 259.041 93.9008 258.645C93.5048 258.249 92.9888 258.045 92.3528 258.045C91.8488 258.045 91.4168 258.189 91.0448 258.477C90.6728 258.765 90.4808 259.137 90.4808 259.593C90.4808 260.553 91.2488 261.141 92.3528 261.141C92.8088 261.141 93.2648 261.021 93.7088 260.769C94.1528 260.517 94.4048 260.253 94.4888 259.977Z" fill="#1A3341"/>
<path d="M100.914 7.144L100.422 5.944L103.242 4.576H104.154V13H102.762V6.292L100.914 7.144ZM106.379 7L105.143 6.448C105.575 5.236 106.847 4.492 108.419 4.492C109.307 4.492 110.039 4.684 110.603 5.068C111.167 5.464 111.455 5.968 111.455 6.604C111.455 7.552 110.903 8.284 110.099 8.524C110.951 8.728 111.636 9.34 111.636 10.492C111.636 11.272 111.335 11.908 110.735 12.376C110.123 12.856 109.379 13.096 108.479 13.096C107.519 13.096 106.607 12.868 105.815 12.208C105.419 11.884 105.131 11.476 104.975 11.008L106.295 10.456C106.463 10.828 106.751 11.128 107.147 11.356C107.543 11.584 107.939 11.704 108.359 11.704C109.379 11.704 110.135 11.26 110.135 10.504C110.135 9.652 109.391 9.364 108.095 9.364H107.279V8.044H108.143C109.235 8.044 109.967 7.564 109.967 6.904C109.967 6.58 109.811 6.316 109.499 6.136C109.187 5.956 108.791 5.86 108.299 5.86C107.807 5.86 107.423 5.956 107.123 6.148C106.823 6.34 106.583 6.628 106.379 7Z" fill="#1A3341"/>
<path d="M58.202 47.264L56.942 46.76C57.362 45.32 58.646 44.516 60.29 44.516C62.198 44.516 63.314 45.512 63.314 47C63.314 48.092 62.846 48.98 62.018 49.748C61.598 50.144 61.022 50.588 60.29 51.104L59.33 51.656H63.578V53H57.062V51.932L58.958 50.552C59.018 50.504 59.186 50.372 59.486 50.144C59.786 49.916 59.978 49.76 60.074 49.676C60.17 49.592 60.338 49.448 60.59 49.244C60.83 49.04 60.998 48.872 61.106 48.74C61.298 48.5 61.646 48.08 61.754 47.744C61.802 47.576 61.826 47.408 61.826 47.228C61.826 46.412 61.238 45.908 60.266 45.908C59.222 45.908 58.538 46.484 58.202 47.264Z" fill="#1A3341"/>
<path d="M141.613 136.152V139H122.125V136.44L131.373 131.096C133.186 130.051 134.53 129.208 135.405 128.568C136.28 127.907 136.866 127.299 137.165 126.744C137.485 126.189 137.645 125.528 137.645 124.76V124.44C137.645 123.203 137.122 122.253 136.077 121.592C135.053 120.931 133.57 120.6 131.629 120.6C129.624 120.6 128.098 120.952 127.053 121.656C126.029 122.36 125.517 123.384 125.517 124.728V125.368H122.317V124.696C122.317 122.413 123.117 120.664 124.717 119.448C126.317 118.232 128.6 117.624 131.565 117.624C134.466 117.624 136.738 118.221 138.381 119.416C140.024 120.611 140.845 122.253 140.845 124.344V124.664C140.845 125.795 140.621 126.787 140.173 127.64C139.725 128.493 138.946 129.357 137.837 130.232C136.749 131.107 135.149 132.152 133.037 133.368L128.173 136.152H141.613ZM155.881 139.384C153.748 139.384 151.86 139 150.217 138.232C148.596 137.464 147.327 136.387 146.409 135C145.513 133.613 145.065 132.024 145.065 130.232V126.808C145.065 124.995 145.513 123.395 146.409 122.008C147.327 120.621 148.596 119.544 150.217 118.776C151.86 118.008 153.748 117.624 155.881 117.624C157.993 117.624 159.86 118.008 161.481 118.776C163.103 119.544 164.361 120.621 165.257 122.008C166.153 123.395 166.601 124.995 166.601 126.808V130.232C166.601 132.045 166.153 133.645 165.257 135.032C164.361 136.397 163.103 137.464 161.481 138.232C159.86 139 157.993 139.384 155.881 139.384ZM155.881 136.408C158.228 136.408 160.073 135.864 161.417 134.776C162.761 133.688 163.433 132.184 163.433 130.264V126.776C163.433 124.877 162.751 123.373 161.385 122.264C160.041 121.155 158.196 120.6 155.849 120.6C153.481 120.6 151.615 121.155 150.249 122.264C148.905 123.352 148.233 124.856 148.233 126.776V130.264C148.233 132.184 148.905 133.688 150.249 134.776C151.615 135.864 153.492 136.408 155.881 136.408ZM190.006 136.152V139H170.518V136.44L179.766 131.096C181.579 130.051 182.923 129.208 183.798 128.568C184.672 127.907 185.259 127.299 185.558 126.744C185.878 126.189 186.038 125.528 186.038 124.76V124.44C186.038 123.203 185.515 122.253 184.47 121.592C183.446 120.931 181.963 120.6 180.022 120.6C178.016 120.6 176.491 120.952 175.446 121.656C174.422 122.36 173.91 123.384 173.91 124.728V125.368H170.71V124.696C170.71 122.413 171.51 120.664 173.11 119.448C174.71 118.232 176.992 117.624 179.958 117.624C182.859 117.624 185.131 118.221 186.774 119.416C188.416 120.611 189.238 122.253 189.238 124.344V124.664C189.238 125.795 189.014 126.787 188.566 127.64C188.118 128.493 187.339 129.357 186.23 130.232C185.142 131.107 183.542 132.152 181.43 133.368L176.566 136.152H190.006ZM204.978 126.328C207.815 126.413 209.98 126.979 211.474 128.024C212.988 129.048 213.746 130.477 213.746 132.312V132.728C213.746 134.883 212.882 136.536 211.154 137.688C209.426 138.819 206.908 139.384 203.602 139.384C200.38 139.363 197.884 138.797 196.114 137.688C194.364 136.579 193.49 135.011 193.49 132.984V132.76H196.658V132.984C196.658 134.051 197.276 134.893 198.514 135.512C199.751 136.109 201.458 136.408 203.634 136.408C205.916 136.408 207.644 136.109 208.818 135.512C209.991 134.893 210.578 133.987 210.578 132.792V132.408C210.578 130.168 208.295 129.048 203.73 129.048H200.274V126.232L208.178 120.856H193.874V118.008H213.234V120.856L204.978 126.328Z" fill="#1A3341"/>
<path d="M119.146 165.61H125.932V166.481H119.146V165.61ZM120.862 154.976L121.798 155.301C121.443 155.882 121.031 156.445 120.563 156.991C120.095 157.528 119.597 158.022 119.068 158.473C118.539 158.924 118.006 159.318 117.469 159.656C117.417 159.587 117.348 159.509 117.261 159.422C117.174 159.335 117.083 159.249 116.988 159.162C116.893 159.067 116.806 158.993 116.728 158.941C117.274 158.638 117.803 158.282 118.314 157.875C118.834 157.459 119.311 157.004 119.744 156.51C120.186 156.016 120.559 155.505 120.862 154.976ZM125.62 156.445H125.828L125.997 156.393L126.673 156.835C126.188 157.606 125.577 158.308 124.84 158.941C124.112 159.565 123.302 160.124 122.409 160.618C121.516 161.103 120.593 161.524 119.64 161.879C118.695 162.226 117.768 162.507 116.858 162.724C116.823 162.637 116.78 162.538 116.728 162.425C116.676 162.312 116.62 162.204 116.559 162.1C116.498 161.996 116.438 161.914 116.377 161.853C117.07 161.714 117.781 161.528 118.509 161.294C119.237 161.06 119.952 160.783 120.654 160.462C121.356 160.141 122.023 159.782 122.656 159.383C123.289 158.984 123.856 158.551 124.359 158.083C124.87 157.615 125.291 157.121 125.62 156.601V156.445ZM119.861 157.043C120.294 157.598 120.823 158.126 121.447 158.629C122.071 159.132 122.764 159.591 123.527 160.007C124.298 160.414 125.113 160.77 125.971 161.073C126.829 161.376 127.704 161.615 128.597 161.788C128.528 161.857 128.45 161.948 128.363 162.061C128.285 162.165 128.211 162.273 128.142 162.386C128.073 162.49 128.012 162.585 127.96 162.672C127.067 162.473 126.192 162.208 125.334 161.879C124.476 161.541 123.657 161.151 122.877 160.709C122.106 160.258 121.395 159.76 120.745 159.214C120.095 158.659 119.527 158.061 119.042 157.42L119.861 157.043ZM118.639 162.386H126.348V167.053H125.321V163.283H119.614V167.092H118.639V162.386ZM120.368 156.445H125.854V157.303H119.783L120.368 156.445ZM138.126 157.446L139.049 157.875C138.581 158.395 138.013 158.859 137.346 159.266C136.687 159.665 135.959 160.011 135.162 160.306C134.373 160.592 133.546 160.839 132.679 161.047C131.812 161.246 130.95 161.415 130.092 161.554C130.049 161.476 129.988 161.385 129.91 161.281C129.841 161.168 129.767 161.06 129.689 160.956C129.611 160.852 129.537 160.761 129.468 160.683C130.352 160.579 131.219 160.44 132.068 160.267C132.926 160.085 133.736 159.864 134.499 159.604C135.27 159.344 135.964 159.036 136.579 158.681C137.203 158.326 137.719 157.914 138.126 157.446ZM131.964 160.462H139.764V166.975H138.776V161.242H132.913V167.014H131.964V160.462ZM132.523 162.191H139.127V162.919H132.523V162.191ZM132.523 163.92H139.127V164.635H132.523V163.92ZM132.523 165.649H139.127V166.416H132.523V165.649ZM132.458 155.821L133.42 156.081C133.212 156.506 132.965 156.922 132.679 157.329C132.393 157.736 132.09 158.118 131.769 158.473C131.457 158.828 131.141 159.14 130.82 159.409C130.759 159.348 130.677 159.283 130.573 159.214C130.469 159.145 130.365 159.075 130.261 159.006C130.157 158.937 130.066 158.88 129.988 158.837C130.482 158.473 130.95 158.027 131.392 157.498C131.834 156.961 132.189 156.402 132.458 155.821ZM137.632 156.224L138.399 155.73C138.754 155.999 139.118 156.298 139.491 156.627C139.864 156.956 140.21 157.286 140.531 157.615C140.852 157.944 141.112 158.243 141.311 158.512L140.479 159.084C140.306 158.815 140.059 158.512 139.738 158.174C139.426 157.836 139.084 157.494 138.711 157.147C138.347 156.8 137.987 156.493 137.632 156.224ZM134.889 155.093H135.851V159.422H134.889V155.093ZM146.94 155.899H153.492V156.822H146.94V155.899ZM146.082 158.863H154.415V159.786H146.082V158.863ZM150.944 160.761L151.75 160.384C152.019 160.809 152.3 161.264 152.595 161.749C152.898 162.234 153.184 162.707 153.453 163.166C153.722 163.617 153.938 164.007 154.103 164.336L153.232 164.791C153.076 164.453 152.868 164.054 152.608 163.595C152.348 163.127 152.071 162.646 151.776 162.152C151.49 161.649 151.213 161.186 150.944 160.761ZM145.276 159.63V164.986H144.327V160.54H142.546V159.63H145.276ZM142.884 156.406L143.534 155.782C143.785 155.947 144.054 156.133 144.34 156.341C144.635 156.54 144.916 156.735 145.185 156.926C145.462 157.117 145.688 157.29 145.861 157.446L145.185 158.148C145.02 157.992 144.804 157.814 144.535 157.615C144.266 157.407 143.989 157.199 143.703 156.991C143.417 156.774 143.144 156.579 142.884 156.406ZM144.912 164.544C145.12 164.544 145.324 164.622 145.523 164.778C145.722 164.925 146.004 165.112 146.368 165.337C146.81 165.614 147.308 165.792 147.863 165.87C148.426 165.939 149.068 165.974 149.787 165.974C150.16 165.974 150.554 165.97 150.97 165.961C151.386 165.944 151.806 165.926 152.231 165.909C152.656 165.883 153.067 165.857 153.466 165.831C153.865 165.796 154.233 165.762 154.571 165.727C154.536 165.814 154.493 165.922 154.441 166.052C154.398 166.182 154.359 166.312 154.324 166.442C154.298 166.572 154.281 166.689 154.272 166.793C154.047 166.81 153.752 166.828 153.388 166.845C153.033 166.862 152.638 166.875 152.205 166.884C151.78 166.893 151.351 166.901 150.918 166.91C150.493 166.919 150.108 166.923 149.761 166.923C148.955 166.923 148.266 166.871 147.694 166.767C147.131 166.672 146.619 166.485 146.16 166.208C145.909 166.043 145.67 165.879 145.445 165.714C145.22 165.549 145.033 165.467 144.886 165.467C144.747 165.467 144.583 165.545 144.392 165.701C144.21 165.848 144.015 166.043 143.807 166.286C143.599 166.529 143.387 166.797 143.17 167.092L142.481 166.195C142.776 165.874 143.062 165.593 143.339 165.35C143.625 165.099 143.902 164.904 144.171 164.765C144.44 164.618 144.687 164.544 144.912 164.544ZM146.875 164.453C146.858 164.375 146.827 164.28 146.784 164.167C146.749 164.046 146.71 163.924 146.667 163.803C146.624 163.673 146.58 163.56 146.537 163.465C146.65 163.439 146.762 163.361 146.875 163.231C146.988 163.092 147.113 162.919 147.252 162.711C147.313 162.616 147.408 162.455 147.538 162.23C147.668 162.005 147.811 161.736 147.967 161.424C148.132 161.112 148.292 160.778 148.448 160.423C148.604 160.059 148.743 159.695 148.864 159.331L149.93 159.656C149.713 160.167 149.471 160.683 149.202 161.203C148.933 161.714 148.656 162.2 148.37 162.659C148.093 163.118 147.811 163.53 147.525 163.894V163.92C147.525 163.92 147.49 163.937 147.421 163.972C147.36 164.007 147.287 164.054 147.2 164.115C147.113 164.167 147.035 164.223 146.966 164.284C146.905 164.345 146.875 164.401 146.875 164.453ZM146.875 164.453L146.862 163.673L147.46 163.322L153.115 162.893C153.132 163.032 153.163 163.183 153.206 163.348C153.249 163.513 153.284 163.647 153.31 163.751C152.227 163.846 151.317 163.929 150.58 163.998C149.852 164.059 149.263 164.111 148.812 164.154C148.361 164.197 148.01 164.236 147.759 164.271C147.508 164.306 147.317 164.336 147.187 164.362C147.066 164.388 146.962 164.418 146.875 164.453ZM155.611 156.64H159.771V157.524H155.611V156.64ZM157.847 158.655H158.705V167.027H157.847V158.655ZM155.546 163.829C156.083 163.725 156.72 163.586 157.457 163.413C158.194 163.24 158.943 163.066 159.706 162.893L159.784 163.712C159.082 163.903 158.38 164.089 157.678 164.271C156.976 164.444 156.339 164.605 155.767 164.752L155.546 163.829ZM155.923 161.71C155.906 161.649 155.88 161.571 155.845 161.476C155.81 161.372 155.771 161.268 155.728 161.164C155.693 161.051 155.659 160.96 155.624 160.891C155.737 160.865 155.836 160.757 155.923 160.566C156.01 160.367 156.096 160.12 156.183 159.825C156.235 159.678 156.304 159.444 156.391 159.123C156.478 158.802 156.573 158.421 156.677 157.979C156.781 157.537 156.876 157.069 156.963 156.575C157.05 156.081 157.115 155.587 157.158 155.093L158.068 155.249C157.973 155.934 157.843 156.636 157.678 157.355C157.513 158.066 157.327 158.75 157.119 159.409C156.92 160.068 156.712 160.657 156.495 161.177V161.203C156.495 161.203 156.465 161.22 156.404 161.255C156.343 161.29 156.274 161.333 156.196 161.385C156.127 161.437 156.062 161.493 156.001 161.554C155.949 161.606 155.923 161.658 155.923 161.71ZM155.923 161.71V160.891L156.43 160.631H159.745V161.528H156.82C156.612 161.528 156.421 161.545 156.248 161.58C156.083 161.615 155.975 161.658 155.923 161.71ZM161.201 158.278H166.011V159.084H161.201V158.278ZM160.395 159.942H163.242V160.722H161.201V166.988H160.395V159.942ZM162.982 159.942H163.801V166.013C163.801 166.221 163.779 166.386 163.736 166.507C163.693 166.637 163.602 166.741 163.463 166.819C163.333 166.88 163.164 166.919 162.956 166.936C162.757 166.953 162.514 166.962 162.228 166.962C162.219 166.849 162.189 166.715 162.137 166.559C162.094 166.403 162.042 166.269 161.981 166.156C162.18 166.165 162.358 166.169 162.514 166.169C162.67 166.169 162.778 166.169 162.839 166.169C162.934 166.16 162.982 166.108 162.982 166.013V159.942ZM160.967 161.749H163.554V162.503H160.967V161.749ZM160.954 163.569H163.541V164.31H160.954V163.569ZM164.542 160.189H165.309V164.895H164.542V160.189ZM166.193 159.708H166.986V165.935C166.986 166.169 166.956 166.347 166.895 166.468C166.843 166.598 166.735 166.702 166.57 166.78C166.414 166.841 166.206 166.88 165.946 166.897C165.686 166.914 165.361 166.923 164.971 166.923C164.962 166.81 164.932 166.676 164.88 166.52C164.828 166.373 164.772 166.238 164.711 166.117C165.014 166.126 165.283 166.13 165.517 166.13C165.751 166.13 165.911 166.13 165.998 166.13C166.128 166.121 166.193 166.056 166.193 165.935V159.708ZM163.567 155.041L164.36 155.392C164.039 155.895 163.654 156.384 163.203 156.861C162.761 157.329 162.28 157.758 161.76 158.148C161.24 158.538 160.707 158.872 160.161 159.149C160.083 159.036 159.983 158.911 159.862 158.772C159.749 158.633 159.637 158.516 159.524 158.421C160.044 158.17 160.56 157.871 161.071 157.524C161.582 157.169 162.055 156.779 162.488 156.354C162.921 155.929 163.281 155.492 163.567 155.041ZM163.879 155.6C164.39 156.224 164.967 156.744 165.608 157.16C166.258 157.576 166.943 157.94 167.662 158.252C167.549 158.347 167.432 158.464 167.311 158.603C167.19 158.742 167.099 158.88 167.038 159.019C166.284 158.629 165.582 158.191 164.932 157.706C164.282 157.221 163.675 156.623 163.112 155.912L163.879 155.6ZM170.431 159.994H177.88V160.956H170.431V159.994ZM177.542 159.994H178.556C178.556 159.994 178.556 160.024 178.556 160.085C178.556 160.146 178.556 160.215 178.556 160.293C178.556 160.362 178.552 160.419 178.543 160.462C178.491 161.459 178.439 162.308 178.387 163.01C178.344 163.712 178.292 164.297 178.231 164.765C178.17 165.224 178.097 165.588 178.01 165.857C177.932 166.117 177.837 166.312 177.724 166.442C177.585 166.607 177.438 166.719 177.282 166.78C177.126 166.841 176.935 166.88 176.71 166.897C176.493 166.914 176.199 166.919 175.826 166.91C175.453 166.91 175.063 166.897 174.656 166.871C174.639 166.724 174.604 166.559 174.552 166.377C174.5 166.195 174.426 166.035 174.331 165.896C174.756 165.931 175.15 165.952 175.514 165.961C175.878 165.97 176.134 165.974 176.281 165.974C176.541 165.974 176.727 165.922 176.84 165.818C176.961 165.697 177.061 165.437 177.139 165.038C177.226 164.639 177.299 164.05 177.36 163.27C177.429 162.481 177.49 161.45 177.542 160.176V159.994ZM172.212 155.34L173.252 155.626C172.957 156.354 172.606 157.052 172.199 157.719C171.8 158.378 171.363 158.989 170.886 159.552C170.418 160.107 169.924 160.592 169.404 161.008C169.352 160.939 169.274 160.856 169.17 160.761C169.066 160.666 168.958 160.575 168.845 160.488C168.741 160.393 168.65 160.315 168.572 160.254C169.092 159.881 169.582 159.439 170.041 158.928C170.5 158.417 170.912 157.858 171.276 157.251C171.649 156.636 171.961 155.999 172.212 155.34ZM176.749 155.314C176.957 155.747 177.204 156.194 177.49 156.653C177.776 157.112 178.084 157.554 178.413 157.979C178.751 158.404 179.098 158.794 179.453 159.149C179.808 159.504 180.155 159.812 180.493 160.072C180.415 160.133 180.324 160.211 180.22 160.306C180.125 160.401 180.029 160.501 179.934 160.605C179.847 160.709 179.769 160.804 179.7 160.891C179.362 160.596 179.015 160.25 178.66 159.851C178.305 159.452 177.954 159.023 177.607 158.564C177.269 158.105 176.948 157.628 176.645 157.134C176.342 156.64 176.077 156.155 175.852 155.678L176.749 155.314ZM173.018 160.267H174.045C173.967 160.978 173.85 161.671 173.694 162.347C173.547 163.014 173.308 163.647 172.979 164.245C172.658 164.843 172.216 165.385 171.653 165.87C171.09 166.347 170.353 166.75 169.443 167.079C169.408 166.992 169.356 166.897 169.287 166.793C169.218 166.698 169.144 166.598 169.066 166.494C168.988 166.399 168.914 166.316 168.845 166.247C169.694 165.97 170.379 165.619 170.899 165.194C171.419 164.769 171.822 164.293 172.108 163.764C172.394 163.227 172.598 162.663 172.719 162.074C172.849 161.485 172.949 160.882 173.018 160.267ZM181.793 157.069H193.233V158.018H181.793V157.069ZM187.617 158.642H188.605V167.053H187.617V158.642ZM183.886 160.397H191.972V161.32H184.861V165.831H183.886V160.397ZM191.543 160.397H192.518V164.596C192.518 164.856 192.483 165.06 192.414 165.207C192.345 165.354 192.206 165.467 191.998 165.545C191.799 165.614 191.517 165.658 191.153 165.675C190.798 165.692 190.343 165.701 189.788 165.701C189.771 165.562 189.727 165.415 189.658 165.259C189.597 165.094 189.532 164.947 189.463 164.817C189.74 164.826 190 164.83 190.243 164.83C190.494 164.83 190.707 164.83 190.88 164.83C191.062 164.83 191.188 164.83 191.257 164.83C191.37 164.821 191.443 164.8 191.478 164.765C191.521 164.73 191.543 164.67 191.543 164.583V160.397ZM186.187 155.067L187.188 155.301C186.876 156.306 186.482 157.303 186.005 158.291C185.537 159.27 184.969 160.189 184.302 161.047C183.643 161.896 182.872 162.633 181.988 163.257C181.945 163.17 181.888 163.079 181.819 162.984C181.75 162.88 181.676 162.776 181.598 162.672C181.529 162.568 181.464 162.486 181.403 162.425C182.018 162.009 182.577 161.524 183.08 160.969C183.583 160.406 184.033 159.799 184.432 159.149C184.831 158.499 185.173 157.827 185.459 157.134C185.754 156.441 185.996 155.752 186.187 155.067ZM199.551 162.529H204.738V163.27H199.551V162.529ZM198.342 156.094H206.064V156.848H198.342V156.094ZM198.654 157.68H205.739V158.395H198.654V157.68ZM197.952 159.292H206.454V160.046H197.952V159.292ZM199.564 164.258H204.777V164.999H199.564V164.258ZM198.888 160.8H204.725V161.554H199.798V167.027H198.888V160.8ZM204.504 160.8H205.427V165.948C205.427 166.191 205.392 166.381 205.323 166.52C205.262 166.659 205.141 166.763 204.959 166.832C204.777 166.91 204.534 166.953 204.231 166.962C203.928 166.979 203.546 166.988 203.087 166.988C203.07 166.867 203.031 166.724 202.97 166.559C202.918 166.403 202.862 166.264 202.801 166.143C203.13 166.152 203.434 166.156 203.711 166.156C203.997 166.165 204.183 166.165 204.27 166.156C204.426 166.147 204.504 166.074 204.504 165.935V160.8ZM201.67 155.08H202.632V159.526H201.67V155.08ZM195.976 155.08H196.86V167.027H195.976V155.08ZM194.949 157.589L195.677 157.68C195.66 158.018 195.625 158.399 195.573 158.824C195.53 159.24 195.469 159.656 195.391 160.072C195.313 160.488 195.222 160.861 195.118 161.19L194.351 160.93C194.455 160.635 194.546 160.293 194.624 159.903C194.702 159.513 194.767 159.114 194.819 158.707C194.88 158.3 194.923 157.927 194.949 157.589ZM196.977 157.238L197.627 156.978C197.774 157.273 197.917 157.598 198.056 157.953C198.195 158.3 198.294 158.59 198.355 158.824L197.666 159.162C197.605 158.911 197.51 158.603 197.38 158.239C197.25 157.875 197.116 157.541 196.977 157.238ZM215.788 160.852H216.724V165.506C216.724 165.697 216.75 165.822 216.802 165.883C216.863 165.935 216.98 165.961 217.153 165.961C217.188 165.961 217.253 165.961 217.348 165.961C217.452 165.961 217.565 165.961 217.686 165.961C217.807 165.961 217.92 165.961 218.024 165.961C218.128 165.961 218.206 165.961 218.258 165.961C218.379 165.961 218.47 165.913 218.531 165.818C218.592 165.723 218.635 165.532 218.661 165.246C218.687 164.96 218.704 164.527 218.713 163.946C218.782 163.998 218.869 164.05 218.973 164.102C219.077 164.154 219.185 164.202 219.298 164.245C219.411 164.28 219.506 164.31 219.584 164.336C219.558 164.995 219.506 165.506 219.428 165.87C219.35 166.234 219.224 166.485 219.051 166.624C218.886 166.771 218.657 166.845 218.362 166.845C218.301 166.845 218.21 166.845 218.089 166.845C217.968 166.845 217.833 166.845 217.686 166.845C217.539 166.845 217.404 166.845 217.283 166.845C217.162 166.845 217.075 166.845 217.023 166.845C216.694 166.845 216.438 166.806 216.256 166.728C216.083 166.65 215.961 166.511 215.892 166.312C215.823 166.121 215.788 165.857 215.788 165.519V160.852ZM207.923 156.458L208.599 155.821C208.876 156.029 209.158 156.263 209.444 156.523C209.73 156.783 209.999 157.043 210.25 157.303C210.501 157.554 210.701 157.784 210.848 157.992L210.12 158.72C209.981 158.503 209.791 158.261 209.548 157.992C209.314 157.723 209.054 157.455 208.768 157.186C208.482 156.917 208.2 156.675 207.923 156.458ZM207.52 164.843C207.763 164.505 208.036 164.102 208.339 163.634C208.642 163.166 208.946 162.668 209.249 162.139C209.561 161.61 209.847 161.099 210.107 160.605L210.77 161.268C210.536 161.736 210.276 162.221 209.99 162.724C209.713 163.227 209.427 163.721 209.132 164.206C208.837 164.691 208.56 165.133 208.3 165.532L207.52 164.843ZM212.707 156.627V160.15H217.673V156.627H212.707ZM211.771 155.691H218.661V161.086H211.771V155.691ZM213.279 160.8H214.267C214.224 161.58 214.15 162.295 214.046 162.945C213.942 163.586 213.769 164.167 213.526 164.687C213.283 165.198 212.941 165.649 212.499 166.039C212.057 166.429 211.481 166.763 210.77 167.04C210.709 166.919 210.618 166.78 210.497 166.624C210.384 166.477 210.272 166.36 210.159 166.273C210.818 166.039 211.346 165.753 211.745 165.415C212.144 165.077 212.447 164.683 212.655 164.232C212.863 163.773 213.01 163.261 213.097 162.698C213.184 162.126 213.244 161.493 213.279 160.8Z" fill="#3C525E"/>
<rect y="296.161" width="335" height="1" fill="#ABBEC9"/>
<g opacity="0.8">
<rect opacity="0.9" y="316.161" width="10" height="10" fill="url(#paint4_linear_7002_37659)"/>
</g>
<path d="M19.872 325.489H28.212V326.329H19.872V325.489ZM19.356 319.477H28.728V327.037H27.816V320.317H20.232V327.073H19.356V319.477ZM18.708 316.873H29.256V317.749H18.708V316.873ZM22.272 317.401H23.088V319.969C23.088 321.337 22.728 322.909 20.76 323.881C20.664 323.701 20.376 323.365 20.208 323.233C22.02 322.357 22.272 321.109 22.272 319.945V317.401ZM24.816 317.377H25.68V322.201C25.68 322.537 25.728 322.585 26.148 322.585C26.316 322.585 27.336 322.585 27.576 322.585C27.792 322.585 27.852 322.573 27.876 322.525C28.056 322.657 28.404 322.777 28.656 322.837C28.548 323.281 28.284 323.437 27.66 323.437C27.456 323.437 26.232 323.437 26.04 323.437C25.056 323.437 24.816 323.185 24.816 322.213V317.377ZM31.104 317.473H40.884V319.909H39.948V318.313H32.016V319.909H31.104V317.473ZM38.016 321.205L38.964 321.421C37.824 324.781 35.28 326.281 31.548 327.097C31.452 326.869 31.164 326.473 30.984 326.269C34.68 325.621 37.08 324.229 38.016 321.205ZM30.816 320.773H41.208V321.637H30.816V320.773ZM34.956 316.285L35.892 316.069C36.168 316.573 36.516 317.269 36.672 317.677L35.712 317.941C35.556 317.521 35.232 316.813 34.956 316.285ZM32.292 323.509L32.952 322.849C35.664 323.677 39.168 325.117 40.956 326.269L40.212 327.049C38.52 325.909 35.064 324.385 32.292 323.509ZM32.304 323.497C33.24 322.309 34.428 320.353 35.052 318.817L36.024 319.021C35.364 320.581 34.2 322.453 33.384 323.557L32.304 323.497Z" fill="#1A3341" fill-opacity="0.6"/>
<rect width="10" height="10" transform="translate(0 336.161)" fill="#60CCCC"/>
<rect opacity="0.7" y="336.161" width="10" height="10" fill="#60CCCC"/>
<path d="M18.624 346.005H29.388V346.749H18.624V346.005ZM18.684 338.217H29.316V338.961H18.684V338.217ZM19.512 344.253H28.62V344.973H19.512V344.253ZM23.496 337.005H24.396V346.365H23.496V337.005ZM27.672 336.153L28.152 336.849C26.004 337.245 22.584 337.449 19.776 337.509C19.776 337.293 19.668 336.981 19.584 336.789C22.38 336.717 25.776 336.501 27.672 336.153ZM20.772 341.841V342.765H27.264V341.841H20.772ZM20.772 340.329V341.241H27.264V340.329H20.772ZM19.896 339.681H28.176V343.413H19.896V339.681ZM31.884 337.581H41.412V338.445H31.884V337.581ZM31.392 337.581H32.28V340.821C32.28 342.633 32.124 345.309 31.116 347.097C30.948 346.953 30.552 346.689 30.336 346.605C31.296 344.913 31.392 342.513 31.392 340.809V337.581ZM35.472 336.393L36.276 336.069C36.708 336.573 37.14 337.257 37.332 337.725L36.492 338.109C36.324 337.629 35.892 336.909 35.472 336.393ZM32.952 340.785H41.184V341.637H32.952V340.785ZM36.54 338.817H37.488C37.272 341.721 36.864 345.345 33.06 347.097C32.94 346.881 32.676 346.569 32.46 346.401C36.096 344.829 36.36 341.409 36.54 338.817ZM37.176 341.373C37.968 343.497 39.588 345.417 41.544 346.269C41.34 346.449 41.04 346.809 40.896 347.049C38.892 346.041 37.272 344.001 36.36 341.637L37.176 341.373Z" fill="#1A3341" fill-opacity="0.6"/>
<rect width="10" height="10" transform="translate(82 316.161)" fill="#5A96A8"/>
<rect opacity="0.5" x="82" y="316.161" width="10" height="10" fill="url(#paint5_linear_7002_37659)"/>
<path d="M101.008 318.373H106.708V319.201H101.008V318.373ZM100.6 321.505H107.008V322.345H100.6V321.505ZM103.516 318.889H104.392V320.029C104.392 321.853 104.188 324.781 101.188 327.109C101.044 326.941 100.732 326.665 100.492 326.533C103.42 324.397 103.516 321.661 103.516 320.017V318.889ZM105.388 316.153L106.3 316.417C105.916 317.233 105.436 318.157 105.04 318.769L104.296 318.517C104.68 317.893 105.148 316.861 105.388 316.153ZM101.644 316.489L102.388 316.165C102.844 316.693 103.276 317.413 103.468 317.905L102.664 318.277C102.484 317.785 102.064 317.029 101.644 316.489ZM103.3 323.293L103.936 322.801C104.956 323.689 106.204 324.949 106.78 325.777L106.084 326.353C105.532 325.513 104.32 324.217 103.3 323.293ZM107.356 316.705H110.884V317.557H108.244V327.121H107.356V316.705ZM110.62 316.705H110.8L110.944 316.669L111.592 317.089C111.112 318.229 110.488 319.621 109.924 320.713C111.148 321.841 111.436 322.801 111.448 323.641C111.448 324.385 111.268 324.949 110.848 325.225C110.644 325.369 110.368 325.453 110.068 325.489C109.768 325.525 109.372 325.525 109.024 325.501C109.012 325.249 108.928 324.877 108.772 324.613C109.12 324.649 109.468 324.649 109.708 324.637C109.9 324.625 110.08 324.589 110.224 324.505C110.488 324.337 110.56 323.989 110.56 323.545C110.56 322.801 110.212 321.889 109 320.845C109.6 319.609 110.26 317.941 110.62 317.005V316.705ZM114.832 316.285H115.72V320.005C115.72 322.489 115.48 325.129 113.32 327.097C113.176 326.893 112.876 326.581 112.672 326.425C114.628 324.625 114.832 322.225 114.832 320.017V316.285ZM118.264 316.561H119.14V326.305H118.264V316.561ZM121.84 316.249H122.728V326.977H121.84V316.249ZM113.476 319.045L114.244 319.261C114.016 320.329 113.668 321.709 113.116 322.549L112.348 322.225C112.9 321.397 113.284 320.089 113.476 319.045ZM116.02 319.525L116.764 319.249C117.196 320.221 117.604 321.469 117.724 322.225L116.932 322.561C116.824 321.781 116.44 320.509 116.02 319.525ZM119.404 319.465L120.112 319.141C120.676 320.065 121.276 321.289 121.48 322.081L120.724 322.465C120.52 321.685 119.968 320.425 119.404 319.465Z" fill="#1A3341" fill-opacity="0.6"/>
<g opacity="0.8">
<rect width="10" height="10" transform="translate(82 336.161)" fill="#5A96A8"/>
</g>
<path d="M106.948 336.117L107.644 336.669C106.852 337.173 105.808 337.677 105.016 338.001L104.464 337.509C105.244 337.161 106.324 336.561 106.948 336.117ZM104.368 344.733L104.308 344.037L104.656 343.737L106.876 343.125C106.876 343.341 106.9 343.641 106.936 343.797C104.872 344.445 104.548 344.589 104.368 344.733ZM108.196 337.221H110.716V337.989H108.976V347.133H108.196V337.221ZM110.296 337.221H111.1V343.989C111.1 344.397 111.016 344.637 110.752 344.769C110.476 344.913 110.068 344.925 109.396 344.925C109.36 344.709 109.252 344.361 109.144 344.157C109.612 344.169 110.008 344.169 110.128 344.157C110.248 344.157 110.296 344.109 110.296 343.977V337.221ZM106.54 338.109H107.296V341.589C107.296 343.401 107.068 345.729 104.728 347.109C104.632 346.953 104.404 346.677 104.224 346.545C106.384 345.333 106.54 343.149 106.54 341.589V338.109ZM104.368 344.733C104.308 344.541 104.14 344.229 104.008 344.061C104.2 343.965 104.464 343.773 104.464 343.281V337.509H105.256V343.941C105.256 343.941 104.368 344.433 104.368 344.733ZM100.672 338.637H103.924V339.465H100.672V338.637ZM101.992 336.081H102.772V347.109H101.992V336.081ZM102.004 339.153L102.592 339.321C102.28 341.205 101.632 343.629 100.864 344.877C100.756 344.637 100.54 344.301 100.396 344.109C101.092 342.981 101.752 340.857 102.004 339.153ZM102.712 339.861C102.964 340.173 103.9 341.613 104.104 341.949L103.624 342.669C103.372 342.081 102.628 340.749 102.328 340.281L102.712 339.861ZM116.284 337.557H118.66V338.349H116.284V337.557ZM118.396 337.557H118.54L118.684 337.521L119.2 337.665C118.864 341.733 117.844 344.877 116.344 346.545C116.212 346.353 115.936 346.065 115.732 345.921C117.088 344.505 118.108 341.337 118.396 337.761V337.557ZM116.08 339.885L116.668 339.441C117.712 341.049 118.972 343.173 119.524 344.421L118.864 344.973C118.324 343.689 117.1 341.505 116.08 339.885ZM119.368 338.733H123.496V339.549H119.368V338.733ZM121.72 336.129H122.548V345.957C122.548 346.485 122.416 346.749 122.08 346.881C121.768 347.037 121.216 347.061 120.28 347.061C120.256 346.833 120.136 346.449 120.004 346.197C120.688 346.221 121.288 346.221 121.468 346.209C121.648 346.209 121.72 346.149 121.72 345.957V336.129ZM119.608 340.977L120.268 340.701C120.772 341.493 121.3 342.537 121.54 343.233L120.844 343.557C120.616 342.849 120.088 341.769 119.608 340.977ZM112.624 338.637H115.84V339.465H112.624V338.637ZM113.956 336.081H114.76V347.109H113.956V336.081ZM113.968 339.153L114.544 339.321C114.256 341.193 113.596 343.617 112.84 344.865C112.732 344.625 112.528 344.301 112.372 344.109C113.068 342.981 113.716 340.857 113.968 339.153ZM114.724 339.861C114.964 340.233 115.936 341.949 116.128 342.333L115.636 343.053C115.372 342.393 114.604 340.809 114.316 340.281L114.724 339.861Z" fill="#1A3341" fill-opacity="0.6"/>
<rect width="10" height="10" transform="translate(164 316.161)" fill="#0085D0"/>
<rect opacity="0.6" x="164" y="316.161" width="10" height="10" fill="url(#paint6_linear_7002_37659)"/>
<path d="M184.976 320.005H191.036V320.845H184.976V320.005ZM184.76 325.585H191.192V326.437H184.76V325.585ZM184.352 322.285H191.804V327.061H190.856V323.101H185.252V327.097H184.352V322.285ZM188.192 316.057L188.984 316.453C187.652 318.457 185.444 320.185 183.128 321.205C182.972 320.965 182.72 320.629 182.468 320.413C184.76 319.513 186.968 317.917 188.192 316.057ZM188.372 316.753C189.836 318.373 191.6 319.429 193.616 320.281C193.388 320.485 193.124 320.821 192.992 321.097C190.94 320.113 189.2 318.973 187.604 317.149L188.372 316.753ZM195.632 316.453H198.26V317.281H195.632V316.453ZM195.632 319.261H198.284V320.089H195.632V319.261ZM200.048 321.001H204.536V321.853H200.048V321.001ZM195.608 322.141H198.272V322.969H195.608V322.141ZM195.248 316.453H196.064V320.797C196.064 322.681 195.956 325.345 195.152 327.145C194.984 327.001 194.624 326.797 194.408 326.725C195.188 325.009 195.248 322.585 195.248 320.797V316.453ZM197.768 316.453H198.608V325.945C198.608 326.425 198.512 326.701 198.2 326.845C197.888 327.001 197.408 327.025 196.616 327.025C196.58 326.785 196.46 326.377 196.34 326.137C196.892 326.161 197.396 326.161 197.552 326.161C197.696 326.149 197.768 326.089 197.768 325.933V316.453ZM199.976 316.669H204.992V322.489H204.128V317.521H199.976V316.669ZM199.544 316.669H200.408V325.261C200.408 325.933 200.54 326.065 201.26 326.065C201.608 326.065 203.384 326.065 203.816 326.065C204.512 326.065 204.62 325.633 204.704 323.893C204.932 324.061 205.292 324.205 205.544 324.265C205.4 326.245 205.124 326.929 203.852 326.929C203.552 326.929 201.5 326.929 201.2 326.929C199.94 326.929 199.544 326.593 199.544 325.249V316.669ZM201.884 316.993H202.664V321.445H201.884V316.993Z" fill="#1A3341" fill-opacity="0.6"/>
<rect width="10" height="10" transform="translate(164 336.161)" fill="#184977"/>
<rect opacity="0.5" x="164" y="336.161" width="10" height="10" fill="#184977"/>
<path d="M182.648 343.713H193.34V344.553H182.648V343.713ZM182.984 337.497H193.052V338.325H182.984V337.497ZM185.432 339.537H190.58V340.305H185.432V339.537ZM185.432 341.613H190.58V342.393H185.432V341.613ZM184.856 336.105H185.744V344.085H184.856V336.105ZM190.22 336.105H191.132V344.085H190.22V336.105ZM188.876 345.393L189.488 344.817C190.916 345.321 192.44 345.981 193.376 346.485L192.56 347.073C191.708 346.569 190.28 345.909 188.876 345.393ZM186.332 344.745L187.124 345.321C186.056 345.981 184.424 346.677 183.128 347.097C182.996 346.917 182.72 346.605 182.528 346.413C183.824 346.041 185.48 345.333 186.332 344.745ZM201.428 336.105H202.28V344.445H201.428V336.105ZM197.252 341.049L204.464 338.253L204.812 339.033L197.588 341.841L197.252 341.049ZM198.764 337.281H199.652V345.309C199.652 345.993 199.82 346.149 200.672 346.149C201.08 346.149 203.228 346.149 203.756 346.149C204.488 346.149 204.62 345.813 204.716 344.397C204.932 344.553 205.292 344.709 205.556 344.769C205.4 346.425 205.112 346.965 203.78 346.965C203.432 346.965 200.96 346.965 200.636 346.965C199.184 346.965 198.764 346.629 198.764 345.297V337.281ZM204.164 338.457H204.056L204.272 338.277L204.428 338.133L205.052 338.397L205.016 338.541C205.004 340.725 204.98 342.453 204.86 342.969C204.764 343.521 204.512 343.749 204.14 343.845C203.816 343.929 203.288 343.941 202.928 343.929C202.904 343.677 202.808 343.305 202.7 343.101C203.036 343.113 203.468 343.113 203.624 343.113C203.828 343.113 203.96 343.065 204.044 342.753C204.14 342.369 204.164 340.797 204.164 338.457ZM197.192 336.129L198.02 336.393C197.24 338.409 196.004 340.449 194.72 341.793C194.624 341.589 194.372 341.121 194.216 340.917C195.404 339.753 196.52 337.953 197.192 336.129ZM195.92 339.225L196.784 338.349L196.796 338.361V347.109H195.92V339.225Z" fill="#1A3341" fill-opacity="0.6"/>
<rect width="10" height="10" transform="translate(246 316.161)" fill="url(#paint7_linear_7002_37659)"/>
<path d="M266.04 320.581H269.028V321.421H266.04V320.581ZM268.668 320.581H269.544C269.544 320.581 269.544 320.845 269.544 320.965C269.484 323.677 269.412 324.685 269.16 325.021C268.968 325.237 268.776 325.321 268.44 325.357C268.128 325.393 267.588 325.381 267 325.357C266.976 325.093 266.88 324.745 266.748 324.517C267.288 324.565 267.816 324.565 268.02 324.565C268.188 324.565 268.308 324.553 268.392 324.445C268.572 324.229 268.632 323.329 268.668 320.737V320.581ZM272.052 316.693L272.592 316.129C273.336 316.513 274.284 317.089 274.752 317.509L274.188 318.121C273.732 317.701 272.808 317.089 272.052 316.693ZM273.768 319.945L274.668 320.161C273.648 323.293 271.86 325.609 269.4 327.061C269.268 326.881 268.932 326.509 268.74 326.329C271.176 325.033 272.868 322.837 273.768 319.945ZM266.112 318.121H275.4V319.009H266.112V318.121ZM265.536 318.121H266.472V321.505C266.472 323.209 266.28 325.633 265.188 327.205C265.032 327.025 264.648 326.713 264.432 326.605C265.428 325.129 265.536 323.065 265.536 321.493V318.121ZM270.516 316.105H271.452C271.428 321.625 272.604 326.125 274.164 326.125C274.5 326.125 274.656 325.501 274.728 323.905C274.932 324.109 275.268 324.313 275.508 324.397C275.34 326.449 275.004 327.037 274.092 327.037C271.644 327.037 270.564 321.853 270.516 316.105ZM277.056 317.485H281.256V318.277H277.056V317.485ZM278.328 325.597H281.688V326.365H278.328V325.597ZM278.316 323.605H281.7V324.325H278.316V323.605ZM276.516 319.717H282.72V320.521H276.516V319.717ZM278.916 316.189H279.756V320.233H278.916V316.189ZM282.096 316.501L282.912 316.741C281.592 319.741 279.456 322.045 276.816 323.497C276.708 323.305 276.42 322.945 276.252 322.765C278.856 321.469 280.908 319.285 282.096 316.501ZM278.604 321.685H281.664V322.441H278.604V327.073H277.776V322.213L278.28 321.685H278.604ZM281.304 321.685H282.18V326.905H281.304V321.685ZM283.224 316.777H286.812V317.617H284.124V327.121H283.224V316.777ZM286.584 316.777H286.764L286.908 316.729L287.556 317.149C287.052 318.277 286.404 319.669 285.816 320.773C287.076 321.889 287.4 322.837 287.4 323.701C287.412 324.445 287.232 324.997 286.788 325.285C286.572 325.429 286.296 325.513 285.984 325.549C285.66 325.585 285.228 325.585 284.856 325.561C284.844 325.321 284.736 324.925 284.592 324.685C284.976 324.721 285.336 324.733 285.6 324.709C285.816 324.697 286.02 324.649 286.164 324.565C286.452 324.409 286.536 324.061 286.536 323.617C286.536 322.861 286.152 321.949 284.88 320.905C285.528 319.657 286.2 318.025 286.584 317.053V316.777Z" fill="#1A3341" fill-opacity="0.6"/>
<rect width="10" height="10" transform="translate(246 336.161)" fill="url(#paint8_linear_7002_37659)"/>
<rect opacity="0.7" x="246" y="336.161" width="10" height="10" fill="#F7F7F8"/>
<path d="M272.652 336.789L273.276 336.321C273.948 336.801 274.74 337.521 275.112 338.013L274.452 338.553C274.092 338.049 273.312 337.305 272.652 336.789ZM264.648 339.009H275.34V339.849H264.648V339.009ZM268.356 341.961H270.78V342.765H268.356V341.961ZM265.608 336.801H270.192V337.629H265.608V336.801ZM264.504 346.065C266.124 345.813 268.716 345.357 271.128 344.925L271.188 345.753C268.908 346.185 266.436 346.641 264.732 346.953L264.504 346.065ZM267.852 340.281H268.716V345.909H267.852V340.281ZM265.596 341.181H266.436V346.197H265.596V341.181ZM271.152 336.141H272.064C272.016 341.841 272.868 346.257 274.284 346.257C274.608 346.257 274.74 345.585 274.8 343.977C275.004 344.169 275.328 344.373 275.568 344.457C275.412 346.545 275.1 347.145 274.212 347.145C271.92 347.145 271.188 342.057 271.152 336.141ZM280.32 337.005H286.248V337.857H280.32V337.005ZM281.64 337.701C282.516 341.745 284.352 344.997 287.64 346.353C287.436 346.521 287.172 346.869 287.04 347.073C283.632 345.549 281.808 342.225 280.824 337.869L281.64 337.701ZM286.044 337.005H286.188L286.332 336.957L286.896 337.149C286.056 342.765 283.38 345.729 279.9 347.121C279.792 346.893 279.576 346.545 279.384 346.365C282.66 345.189 285.264 342.261 286.044 337.197V337.005ZM277.092 336.909L277.548 336.285C278.34 336.621 279.324 337.149 279.828 337.581L279.348 338.289C278.868 337.857 277.896 337.269 277.092 336.909ZM276.492 340.185L276.936 339.537C277.704 339.861 278.688 340.389 279.192 340.785L278.736 341.505C278.256 341.097 277.272 340.533 276.492 340.185ZM276.84 346.353C277.488 345.441 278.424 343.857 279.108 342.489L279.72 343.065C279.084 344.337 278.256 345.837 277.548 346.953L276.84 346.353Z" fill="#1A3341" fill-opacity="0.6"/>
<defs>
<linearGradient id="paint0_linear_7002_37659" x1="296" y1="141" x2="154.666" y2="291.927" gradientUnits="userSpaceOnUse">
<stop stop-color="#43C3BB"/>
<stop offset="1" stop-color="#78CCD1"/>
</linearGradient>
<linearGradient id="paint1_linear_7002_37659" x1="168" y1="269" x2="168" y2="13" gradientUnits="userSpaceOnUse">
<stop stop-color="#CDE3E9"/>
<stop offset="1" stop-color="#D3E8ED"/>
</linearGradient>
<linearGradient id="paint2_linear_7002_37659" x1="168" y1="19.2136" x2="65.6" y2="64.2001" gradientUnits="userSpaceOnUse">
<stop stop-color="#B7C6EF"/>
<stop offset="0.558752" stop-color="#BECCEE"/>
</linearGradient>
<linearGradient id="paint3_linear_7002_37659" x1="168" y1="13" x2="282.643" y2="220.583" gradientUnits="userSpaceOnUse">
<stop stop-color="#66CFF0"/>
<stop offset="1" stop-color="#A6E0F2"/>
</linearGradient>
<linearGradient id="paint4_linear_7002_37659" x1="5" y1="316.161" x2="5" y2="326.161" gradientUnits="userSpaceOnUse">
<stop stop-color="#45B8DB"/>
<stop offset="1" stop-color="#ADE4E4"/>
</linearGradient>
<linearGradient id="paint5_linear_7002_37659" x1="82" y1="316.661" x2="91.5" y2="326.161" gradientUnits="userSpaceOnUse">
<stop stop-color="#66CFF0"/>
<stop offset="1" stop-color="#A6E0F2"/>
</linearGradient>
<linearGradient id="paint6_linear_7002_37659" x1="169.261" y1="315.422" x2="174" y2="320.596" gradientUnits="userSpaceOnUse">
<stop stop-color="#5358CC"/>
<stop offset="1" stop-color="#3B38CE"/>
</linearGradient>
<linearGradient id="paint7_linear_7002_37659" x1="5" y1="0" x2="5" y2="10" gradientUnits="userSpaceOnUse">
<stop stop-color="#CDE3E9"/>
<stop offset="1" stop-color="#D3E8ED"/>
</linearGradient>
<linearGradient id="paint8_linear_7002_37659" x1="9.75728" y1="5" x2="8" y2="1" gradientUnits="userSpaceOnUse">
<stop stop-color="#B7C6EF"/>
<stop offset="0.558752" stop-color="#BECCEE"/>
</linearGradient>
</defs>
</svg>
