<svg width="681" height="488" viewBox="0 0 681 488" fill="none" xmlns="http://www.w3.org/2000/svg">
<rect x="241" width="200" height="60" rx="2" fill="#BAEABF"/>
<path d="M308.78 26.504L308.072 26.948C307.856 26.504 307.376 25.82 306.944 25.352L307.616 24.956C308.072 25.424 308.576 26.072 308.78 26.504ZM310.112 31.52L309.548 32.252C309.296 31.904 308.756 31.268 308.3 30.764V35.912H307.424V31.028C306.884 31.568 306.32 32.048 305.768 32.408C305.696 32.156 305.492 31.712 305.36 31.544C306.68 30.764 308.072 29.324 308.84 27.836H305.684V27.02H309.308L309.476 26.984L309.956 27.332C309.596 28.22 309.068 29.096 308.456 29.864C308.936 30.32 309.848 31.256 310.112 31.52ZM313.664 34.58H316.472V35.456H309.62V34.58H312.776V29.564H310.184V28.7H312.776V24.944H313.664V28.7H316.22V29.564H313.664V34.58ZM319.076 34.712H328.376V35.564H318.2V25.616H328.076V26.468H319.076V34.712ZM326.948 33.236L326.24 33.872C325.64 33.128 324.716 32.156 323.672 31.172C322.664 32.216 321.56 33.152 320.444 33.872C320.288 33.704 319.952 33.356 319.736 33.212C320.9 32.516 322.04 31.604 323.048 30.572C322.076 29.672 321.056 28.772 320.12 28.004L320.744 27.476C321.656 28.208 322.676 29.084 323.636 29.948C324.452 29.048 325.172 28.052 325.748 27.044L326.576 27.38C325.916 28.496 325.136 29.552 324.272 30.524C325.34 31.508 326.312 32.468 326.948 33.236ZM338.912 25.112L339.62 25.904C337.16 26.348 333.464 26.636 330.356 26.744C330.332 26.492 330.224 26.132 330.128 25.904C333.2 25.796 336.848 25.52 338.912 25.112ZM337.544 30.044L336.836 29.708C337.424 28.928 338.156 27.656 338.588 26.756L339.476 27.104C338.9 28.1 338.156 29.276 337.544 30.044ZM335.564 29.036L334.7 29.312C334.616 28.724 334.316 27.812 333.956 27.104L334.772 26.864C335.132 27.548 335.48 28.448 335.564 29.036ZM332.696 29.432L331.892 29.768C331.724 29.168 331.256 28.244 330.752 27.56L331.508 27.248C332.024 27.92 332.528 28.82 332.696 29.432ZM340.256 31.388H336.104C337.22 32.732 338.972 34.028 340.544 34.664C340.34 34.856 340.04 35.204 339.884 35.456C338.324 34.712 336.608 33.332 335.432 31.844V35.9H334.508V31.892C333.344 33.392 331.664 34.724 330.116 35.468C329.972 35.228 329.672 34.88 329.468 34.688C331.04 34.04 332.756 32.756 333.836 31.388H329.756V30.524H334.508V29.432H335.432V30.524H340.256V31.388ZM342.704 26.48V32.888H341.996V25.676H345.944V32.852H345.212V26.48H342.704ZM344.348 27.428V30.548C344.348 32.24 344.084 34.472 341.996 35.888C341.888 35.72 341.66 35.48 341.492 35.336C343.484 34.124 343.616 32.036 343.616 30.548V27.428H344.348ZM344.144 33.596L344.756 33.164C345.332 33.788 346.064 34.676 346.4 35.216L345.776 35.708C345.44 35.144 344.732 34.232 344.144 33.596ZM350.684 33.092L350 33.368C349.952 33.152 349.904 32.9 349.82 32.612C347.396 33.116 347.048 33.224 346.82 33.356C346.772 33.176 346.664 32.792 346.556 32.576C346.736 32.528 346.88 32.264 347.06 31.856C347.24 31.472 347.792 29.972 348.032 28.592L348.86 28.832C348.548 30.032 348.104 31.304 347.648 32.312L349.604 31.928C349.424 31.412 349.232 30.872 349.028 30.404L349.664 30.212C350.084 31.148 350.516 32.384 350.684 33.092ZM348.14 26.852H352.148C352.148 26.852 352.148 27.2 352.136 27.308C351.968 32.972 351.836 34.832 351.404 35.408C351.152 35.744 350.912 35.84 350.528 35.9C350.18 35.936 349.592 35.924 349.004 35.888C348.992 35.624 348.896 35.252 348.74 35C349.376 35.06 349.94 35.06 350.192 35.06C350.396 35.06 350.504 35.024 350.636 34.856C350.972 34.46 351.128 32.636 351.272 27.668H347.804C347.468 28.376 347.096 29.024 346.712 29.528C346.556 29.384 346.208 29.096 346.004 28.988C346.808 28.004 347.456 26.492 347.84 24.956L348.692 25.148C348.536 25.724 348.344 26.3 348.14 26.852ZM359.084 27.608V26.708H357.344V25.952H359.084V24.968H359.936V25.952H361.76V24.968H362.624V25.952H364.292V26.708H362.624V27.62H361.76V26.708H359.936V27.608H359.084ZM357.404 30.908L356.84 31.568C356.672 31.16 356.3 30.392 355.976 29.768V35.912H355.124V30.524C354.776 31.688 354.332 32.78 353.888 33.488C353.792 33.224 353.576 32.84 353.42 32.624C354.116 31.628 354.8 29.72 355.124 28.1H353.648V27.26H355.124V24.956H355.976V27.26H357.212V28.1H355.976V28.568C356.288 29.024 357.188 30.536 357.404 30.908ZM358.664 29.996V30.848H362.816V29.996H358.664ZM358.664 28.508V29.36H362.816V28.508H358.664ZM364.28 33.272H361.592C362.18 34.232 363.2 34.892 364.556 35.18C364.364 35.348 364.112 35.684 363.992 35.912C362.456 35.492 361.352 34.604 360.752 33.296C360.272 34.568 359.312 35.408 357.224 35.912C357.152 35.72 356.924 35.384 356.768 35.216C358.52 34.82 359.372 34.184 359.828 33.272H357.08V32.516H360.092C360.164 32.216 360.212 31.868 360.26 31.52H357.836V27.836H363.668V31.52H361.136C361.1 31.868 361.04 32.204 360.98 32.516H364.28V33.272ZM375.824 26.48L375.2 27.044C374.852 26.624 374.108 25.976 373.496 25.544L374.096 25.052C374.708 25.46 375.464 26.072 375.824 26.48ZM369.14 30.704V33.992C369.98 33.812 370.844 33.644 371.708 33.452L371.78 34.232C369.752 34.724 367.556 35.228 366.032 35.564L365.756 34.688C366.428 34.556 367.304 34.376 368.264 34.184V30.704H366.128V29.84H371.384V30.704H369.14ZM376.316 28.052H372.812C373.1 32.096 374.048 35.012 375.236 35.012C375.56 35.012 375.704 34.352 375.776 32.756C375.98 32.96 376.316 33.152 376.568 33.248C376.412 35.324 376.076 35.936 375.164 35.936C373.208 35.936 372.212 32.492 371.9 28.052H365.708V27.188H371.84C371.804 26.48 371.792 25.748 371.78 25.016H372.716C372.716 25.76 372.728 26.48 372.764 27.188H376.316V28.052Z" fill="#1A3341"/>
<rect x="241" y="92" width="200" height="60" rx="2" fill="#BAEADC"/>
<rect width="200" height="60" rx="2" fill="#BAEADC"/>
<path d="M80.716 25.94V26.72H71.332V25.94H75.616C75.532 25.664 75.412 25.376 75.28 25.124L76.144 24.92C76.324 25.22 76.48 25.616 76.576 25.94H80.716ZM81.304 28.172V28.916H70.708V28.172H73.516C73.408 27.812 73.228 27.416 73.048 27.08L73.864 26.852C74.092 27.248 74.32 27.776 74.452 28.172H77.56C77.776 27.74 77.992 27.224 78.124 26.84L79.012 27.056C78.832 27.44 78.652 27.824 78.472 28.172H81.304ZM73.168 30.38V31.868H78.832V30.38H73.168ZM78.244 34.964H79.96C80.404 34.964 80.488 34.772 80.536 33.476C80.728 33.608 81.1 33.752 81.34 33.812C81.244 35.384 80.98 35.768 80.044 35.768H78.16C77.044 35.768 76.768 35.516 76.768 34.616V32.612H75.184C74.848 34.436 73.936 35.408 70.996 35.924C70.912 35.696 70.708 35.348 70.528 35.168C73.216 34.76 73.996 34.04 74.272 32.612H72.304V29.624H79.732V32.612H77.656V34.604C77.656 34.904 77.74 34.964 78.244 34.964ZM91.012 32.384V30.992H88.372V32.384H91.012ZM88.372 28.868V30.176H91.012V28.868H88.372ZM89.416 26.732H86.032C85.648 27.188 85.204 27.644 84.712 28.064H88.276C88.684 27.692 89.092 27.188 89.416 26.732ZM93.496 30.176V30.992H91.888V33.2H88.372V34.796C88.372 35.372 88.228 35.612 87.808 35.756C87.4 35.9 86.728 35.912 85.66 35.9C85.6 35.66 85.432 35.3 85.312 35.048C86.176 35.072 86.956 35.072 87.172 35.06C87.4 35.048 87.472 34.988 87.472 34.784V33.2H83.728V32.384H87.472V30.992H82.552V30.176H87.472V28.868H84.208V28.46C84.016 28.604 83.812 28.748 83.608 28.88C83.452 28.688 83.152 28.4 82.936 28.268C84.508 27.32 85.648 26.012 86.248 24.944L87.208 25.112C87.052 25.388 86.86 25.664 86.656 25.952H90.016L90.16 25.904L90.796 26.336C90.436 26.912 89.908 27.536 89.368 28.064H91.888V30.176H93.496ZM95.068 30.536L94.372 30.296C94.696 29.504 94.912 28.196 94.996 27.224L95.668 27.32C95.608 28.304 95.38 29.66 95.068 30.536ZM96.1 35.912V24.956H96.988V35.912H96.1ZM97.072 27.164L97.696 26.876C98.056 27.524 98.428 28.376 98.572 28.88L97.9 29.204C97.768 28.688 97.408 27.824 97.072 27.164ZM102.34 34.652H105.34V35.504H98.02V34.652H101.452V31.652H98.908V30.824H101.452V28.34H99.7C99.46 29.06 99.184 29.684 98.86 30.2C98.68 30.08 98.284 29.888 98.068 29.792C98.764 28.748 99.244 27.14 99.52 25.508L100.384 25.652C100.264 26.276 100.12 26.9 99.952 27.488H101.452V25.004H102.34V27.488H105.052V28.34H102.34V30.824H104.788V31.652H102.34V34.652ZM115.912 25.112L116.62 25.904C114.16 26.348 110.464 26.636 107.356 26.744C107.332 26.492 107.224 26.132 107.128 25.904C110.2 25.796 113.848 25.52 115.912 25.112ZM114.544 30.044L113.836 29.708C114.424 28.928 115.156 27.656 115.588 26.756L116.476 27.104C115.9 28.1 115.156 29.276 114.544 30.044ZM112.564 29.036L111.7 29.312C111.616 28.724 111.316 27.812 110.956 27.104L111.772 26.864C112.132 27.548 112.48 28.448 112.564 29.036ZM109.696 29.432L108.892 29.768C108.724 29.168 108.256 28.244 107.752 27.56L108.508 27.248C109.024 27.92 109.528 28.82 109.696 29.432ZM117.256 31.388H113.104C114.22 32.732 115.972 34.028 117.544 34.664C117.34 34.856 117.04 35.204 116.884 35.456C115.324 34.712 113.608 33.332 112.432 31.844V35.9H111.508V31.892C110.344 33.392 108.664 34.724 107.116 35.468C106.972 35.228 106.672 34.88 106.468 34.688C108.04 34.04 109.756 32.756 110.836 31.388H106.756V30.524H111.508V29.432H112.432V30.524H117.256V31.388ZM119.704 26.48V32.888H118.996V25.676H122.944V32.852H122.212V26.48H119.704ZM121.348 27.428V30.548C121.348 32.24 121.084 34.472 118.996 35.888C118.888 35.72 118.66 35.48 118.492 35.336C120.484 34.124 120.616 32.036 120.616 30.548V27.428H121.348ZM121.144 33.596L121.756 33.164C122.332 33.788 123.064 34.676 123.4 35.216L122.776 35.708C122.44 35.144 121.732 34.232 121.144 33.596ZM127.684 33.092L127 33.368C126.952 33.152 126.904 32.9 126.82 32.612C124.396 33.116 124.048 33.224 123.82 33.356C123.772 33.176 123.664 32.792 123.556 32.576C123.736 32.528 123.88 32.264 124.06 31.856C124.24 31.472 124.792 29.972 125.032 28.592L125.86 28.832C125.548 30.032 125.104 31.304 124.648 32.312L126.604 31.928C126.424 31.412 126.232 30.872 126.028 30.404L126.664 30.212C127.084 31.148 127.516 32.384 127.684 33.092ZM125.14 26.852H129.148C129.148 26.852 129.148 27.2 129.136 27.308C128.968 32.972 128.836 34.832 128.404 35.408C128.152 35.744 127.912 35.84 127.528 35.9C127.18 35.936 126.592 35.924 126.004 35.888C125.992 35.624 125.896 35.252 125.74 35C126.376 35.06 126.94 35.06 127.192 35.06C127.396 35.06 127.504 35.024 127.636 34.856C127.972 34.46 128.128 32.636 128.272 27.668H124.804C124.468 28.376 124.096 29.024 123.712 29.528C123.556 29.384 123.208 29.096 123.004 28.988C123.808 28.004 124.456 26.492 124.84 24.956L125.692 25.148C125.536 25.724 125.344 26.3 125.14 26.852Z" fill="#1A3341"/>
<path d="M302.312 118.756H301.592C301.22 119.368 300.788 119.92 300.368 120.34C300.188 120.208 299.84 119.968 299.624 119.848C300.44 119.14 301.124 118.06 301.508 116.932L302.36 117.136C302.252 117.436 302.132 117.712 302 118H304.916V118.756H303.224C303.452 119.152 303.668 119.596 303.776 119.896L302.996 120.22C302.876 119.824 302.588 119.248 302.312 118.756ZM300.32 127.9V121.576H301.184V127.9H300.32ZM300.86 120.544L301.508 120.1C302.012 120.532 302.612 121.144 302.876 121.564L302.192 122.056C301.94 121.624 301.364 120.988 300.86 120.544ZM303.632 125.776H306.428V124.708H303.632V125.776ZM306.428 123.052H303.632V124.048H306.428V123.052ZM307.232 122.356V126.472H302.852V122.356H307.232ZM309.692 120.556V126.844C309.692 127.348 309.572 127.576 309.224 127.708C308.876 127.84 308.288 127.852 307.376 127.852C307.34 127.612 307.22 127.288 307.088 127.06C307.76 127.084 308.408 127.084 308.576 127.072C308.768 127.06 308.816 127.012 308.816 126.844V121.372H303.224V120.556H309.692ZM306.668 118.012H310.112V118.768H308.168C308.456 119.176 308.708 119.62 308.84 119.944L308.072 120.292C307.928 119.884 307.568 119.272 307.22 118.768H306.296C306.02 119.284 305.684 119.74 305.348 120.112C305.192 119.968 304.832 119.716 304.616 119.608C305.288 118.96 305.84 117.976 306.14 116.944L306.98 117.136C306.896 117.436 306.8 117.724 306.668 118.012ZM314.78 116.968L315.656 117.244C315.32 118.06 314.9 118.864 314.444 119.608V127.924H313.52V121C313.076 121.588 312.62 122.128 312.14 122.572C312.032 122.38 311.732 121.912 311.552 121.72C312.824 120.58 314.048 118.804 314.78 116.968ZM318.836 126.82H320.804C321.44 126.82 321.524 126.304 321.62 124.264C321.86 124.444 322.232 124.636 322.496 124.696C322.376 126.928 322.112 127.696 320.852 127.696H318.74C317.54 127.696 317.204 127.336 317.204 126.004V123.94C316.652 124.3 316.088 124.624 315.536 124.9C315.392 124.72 315.104 124.408 314.876 124.228C315.644 123.856 316.436 123.388 317.204 122.86V117.184H318.14V122.152C319.388 121.156 320.528 119.98 321.356 118.696L322.232 119.272C321.14 120.796 319.676 122.176 318.14 123.292V126.028C318.14 126.688 318.26 126.82 318.836 126.82ZM333.716 117.94V118.72H324.332V117.94H328.616C328.532 117.664 328.412 117.376 328.28 117.124L329.144 116.92C329.324 117.22 329.48 117.616 329.576 117.94H333.716ZM334.304 120.172V120.916H323.708V120.172H326.516C326.408 119.812 326.228 119.416 326.048 119.08L326.864 118.852C327.092 119.248 327.32 119.776 327.452 120.172H330.56C330.776 119.74 330.992 119.224 331.124 118.84L332.012 119.056C331.832 119.44 331.652 119.824 331.472 120.172H334.304ZM326.168 122.38V123.868H331.832V122.38H326.168ZM331.244 126.964H332.96C333.404 126.964 333.488 126.772 333.536 125.476C333.728 125.608 334.1 125.752 334.34 125.812C334.244 127.384 333.98 127.768 333.044 127.768H331.16C330.044 127.768 329.768 127.516 329.768 126.616V124.612H328.184C327.848 126.436 326.936 127.408 323.996 127.924C323.912 127.696 323.708 127.348 323.528 127.168C326.216 126.76 326.996 126.04 327.272 124.612H325.304V121.624H332.732V124.612H330.656V126.604C330.656 126.904 330.74 126.964 331.244 126.964ZM344.012 124.384V122.992H341.372V124.384H344.012ZM341.372 120.868V122.176H344.012V120.868H341.372ZM342.416 118.732H339.032C338.648 119.188 338.204 119.644 337.712 120.064H341.276C341.684 119.692 342.092 119.188 342.416 118.732ZM346.496 122.176V122.992H344.888V125.2H341.372V126.796C341.372 127.372 341.228 127.612 340.808 127.756C340.4 127.9 339.728 127.912 338.66 127.9C338.6 127.66 338.432 127.3 338.312 127.048C339.176 127.072 339.956 127.072 340.172 127.06C340.4 127.048 340.472 126.988 340.472 126.784V125.2H336.728V124.384H340.472V122.992H335.552V122.176H340.472V120.868H337.208V120.46C337.016 120.604 336.812 120.748 336.608 120.88C336.452 120.688 336.152 120.4 335.936 120.268C337.508 119.32 338.648 118.012 339.248 116.944L340.208 117.112C340.052 117.388 339.86 117.664 339.656 117.952H343.016L343.16 117.904L343.796 118.336C343.436 118.912 342.908 119.536 342.368 120.064H344.888V122.176H346.496ZM348.068 122.536L347.372 122.296C347.696 121.504 347.912 120.196 347.996 119.224L348.668 119.32C348.608 120.304 348.38 121.66 348.068 122.536ZM349.1 127.912V116.956H349.988V127.912H349.1ZM350.072 119.164L350.696 118.876C351.056 119.524 351.428 120.376 351.572 120.88L350.9 121.204C350.768 120.688 350.408 119.824 350.072 119.164ZM355.34 126.652H358.34V127.504H351.02V126.652H354.452V123.652H351.908V122.824H354.452V120.34H352.7C352.46 121.06 352.184 121.684 351.86 122.2C351.68 122.08 351.284 121.888 351.068 121.792C351.764 120.748 352.244 119.14 352.52 117.508L353.384 117.652C353.264 118.276 353.12 118.9 352.952 119.488H354.452V117.004H355.34V119.488H358.052V120.34H355.34V122.824H357.788V123.652H355.34V126.652ZM368.912 117.112L369.62 117.904C367.16 118.348 363.464 118.636 360.356 118.744C360.332 118.492 360.224 118.132 360.128 117.904C363.2 117.796 366.848 117.52 368.912 117.112ZM367.544 122.044L366.836 121.708C367.424 120.928 368.156 119.656 368.588 118.756L369.476 119.104C368.9 120.1 368.156 121.276 367.544 122.044ZM365.564 121.036L364.7 121.312C364.616 120.724 364.316 119.812 363.956 119.104L364.772 118.864C365.132 119.548 365.48 120.448 365.564 121.036ZM362.696 121.432L361.892 121.768C361.724 121.168 361.256 120.244 360.752 119.56L361.508 119.248C362.024 119.92 362.528 120.82 362.696 121.432ZM370.256 123.388H366.104C367.22 124.732 368.972 126.028 370.544 126.664C370.34 126.856 370.04 127.204 369.884 127.456C368.324 126.712 366.608 125.332 365.432 123.844V127.9H364.508V123.892C363.344 125.392 361.664 126.724 360.116 127.468C359.972 127.228 359.672 126.88 359.468 126.688C361.04 126.04 362.756 124.756 363.836 123.388H359.756V122.524H364.508V121.432H365.432V122.524H370.256V123.388ZM372.704 118.48V124.888H371.996V117.676H375.944V124.852H375.212V118.48H372.704ZM374.348 119.428V122.548C374.348 124.24 374.084 126.472 371.996 127.888C371.888 127.72 371.66 127.48 371.492 127.336C373.484 126.124 373.616 124.036 373.616 122.548V119.428H374.348ZM374.144 125.596L374.756 125.164C375.332 125.788 376.064 126.676 376.4 127.216L375.776 127.708C375.44 127.144 374.732 126.232 374.144 125.596ZM380.684 125.092L380 125.368C379.952 125.152 379.904 124.9 379.82 124.612C377.396 125.116 377.048 125.224 376.82 125.356C376.772 125.176 376.664 124.792 376.556 124.576C376.736 124.528 376.88 124.264 377.06 123.856C377.24 123.472 377.792 121.972 378.032 120.592L378.86 120.832C378.548 122.032 378.104 123.304 377.648 124.312L379.604 123.928C379.424 123.412 379.232 122.872 379.028 122.404L379.664 122.212C380.084 123.148 380.516 124.384 380.684 125.092ZM378.14 118.852H382.148C382.148 118.852 382.148 119.2 382.136 119.308C381.968 124.972 381.836 126.832 381.404 127.408C381.152 127.744 380.912 127.84 380.528 127.9C380.18 127.936 379.592 127.924 379.004 127.888C378.992 127.624 378.896 127.252 378.74 127C379.376 127.06 379.94 127.06 380.192 127.06C380.396 127.06 380.504 127.024 380.636 126.856C380.972 126.46 381.128 124.636 381.272 119.668H377.804C377.468 120.376 377.096 121.024 376.712 121.528C376.556 121.384 376.208 121.096 376.004 120.988C376.808 120.004 377.456 118.492 377.84 116.956L378.692 117.148C378.536 117.724 378.344 118.3 378.14 118.852Z" fill="#1A3341"/>
<rect x="481" y="92" width="200" height="60" rx="2" fill="white"/>
<path d="M539.132 124.396L538.46 125.032C538.088 124.264 537.38 123.136 536.66 122.176C536.276 124.54 535.604 126.448 534.392 127.9C534.236 127.744 533.768 127.432 533.528 127.288C535.496 125.2 535.976 121.66 536.168 117.244L537.128 117.28C537.056 118.612 536.96 119.86 536.828 121.012C537.716 122.068 538.676 123.472 539.132 124.396ZM540.74 117.22L541.7 117.268C541.604 118.696 541.484 119.992 541.292 121.192C541.724 123.196 542.636 125.74 544.448 126.976C544.268 127.144 543.944 127.528 543.8 127.768C542.348 126.64 541.46 124.732 540.944 122.992C540.44 125.02 539.636 126.64 538.316 127.864C538.16 127.708 537.692 127.384 537.452 127.24C539.84 125.248 540.476 121.804 540.74 117.22ZM547.688 123.052H550.52V121.768H547.688V123.052ZM547.688 119.788V121.048H550.52V119.788H547.688ZM554.396 121.048V119.788H551.42V121.048H554.396ZM554.396 123.052V121.768H551.42V123.052H554.396ZM556.328 124.948V125.776H551.42V127.912H550.52V125.776H545.684V124.948H550.52V123.808H546.812V119.032H549.02C548.756 118.552 548.288 117.868 547.856 117.376L548.6 117.016C549.104 117.556 549.656 118.288 549.896 118.78L549.404 119.032H552.296C552.716 118.456 553.208 117.616 553.496 117.016L554.444 117.34C554.096 117.904 553.664 118.528 553.292 119.032H555.296V123.808H551.42V124.948H556.328ZM557.576 121.84H568.472V122.812H557.576V121.84ZM572.252 116.992L573.092 117.256C572.756 118.12 572.336 118.996 571.868 119.824V127.9H570.992V121.168C570.62 121.708 570.212 122.2 569.804 122.62C569.708 122.416 569.456 121.96 569.3 121.744C570.476 120.604 571.58 118.804 572.252 116.992ZM574.808 124.852L575.66 125.116C575.06 126.16 574.172 127.204 573.368 127.888C573.212 127.732 572.864 127.444 572.66 127.336C573.476 126.712 574.304 125.776 574.808 124.852ZM577.52 125.284L578.216 124.888C579.044 125.668 579.932 126.736 580.352 127.432L579.596 127.936C579.2 127.192 578.312 126.076 577.52 125.284ZM575.432 120.376V123.304H577.772V120.376H575.432ZM578.636 123.304H580.484V124.18H572.732V123.304H574.568V120.376H573.02V119.512H574.568V117.1H575.432V119.512H577.772V117.088H578.636V119.512H580.34V120.376H578.636V123.304ZM592.268 119.344H583.376V121.756C583.376 123.556 583.22 126.22 582.248 128.008C582.104 127.852 581.684 127.6 581.492 127.516C582.404 125.812 582.488 123.448 582.488 121.756V118.492H587.252C587.096 118.072 586.844 117.52 586.616 117.088L587.48 116.872C587.78 117.388 588.104 118.072 588.26 118.492H592.268V119.344ZM588.608 124.312L587.768 124.552C587.6 123.448 587.168 121.756 586.772 120.46L587.576 120.244C587.984 121.528 588.428 123.196 588.608 124.312ZM586.304 124.888L585.476 125.224C585.248 124.12 584.672 122.416 584.18 121.132L584.948 120.82C585.476 122.116 586.052 123.784 586.304 124.888ZM589.184 126.508H592.424V127.36H583.532V126.508H588.272C589.424 124.66 590.336 122.224 590.804 120.172L591.74 120.508C591.164 122.488 590.276 124.66 589.184 126.508ZM597.764 121.708L598.412 122.008C597.788 122.728 596.84 123.532 596.084 124.048C596.012 123.892 595.808 123.508 595.676 123.352C596.384 122.896 597.212 122.284 597.764 121.708ZM600.416 124.336H597.56V125.728H600.416V124.336ZM601.16 126.388H597.56V126.94H596.78V123.664H601.16V126.388ZM602.576 123.376L602.048 124C601.532 123.496 600.5 122.716 599.708 122.152L600.212 121.624C600.992 122.152 602.036 122.908 602.576 123.376ZM603.584 120.748V126.928C603.584 127.396 603.464 127.6 603.116 127.732C602.756 127.84 602.156 127.852 601.136 127.852C601.088 127.636 600.98 127.36 600.86 127.168C601.604 127.192 602.3 127.18 602.492 127.168C602.684 127.156 602.756 127.108 602.756 126.916V121.492H595.316V127.9H594.464V120.748H599.996C600.32 120.256 600.68 119.596 600.884 119.116L601.832 119.32C601.532 119.812 601.22 120.328 600.908 120.748H603.584ZM596.312 119.308L597.116 119.044C597.368 119.452 597.716 120.028 597.872 120.376L597.056 120.7C596.9 120.352 596.576 119.752 596.312 119.308ZM599.732 118.252H604.244V119.02H593.78V118.252H598.76C598.628 117.892 598.46 117.472 598.292 117.148L599.156 116.92C599.36 117.34 599.6 117.856 599.732 118.252ZM614.912 117.112L615.62 117.904C613.16 118.348 609.464 118.636 606.356 118.744C606.332 118.492 606.224 118.132 606.128 117.904C609.2 117.796 612.848 117.52 614.912 117.112ZM613.544 122.044L612.836 121.708C613.424 120.928 614.156 119.656 614.588 118.756L615.476 119.104C614.9 120.1 614.156 121.276 613.544 122.044ZM611.564 121.036L610.7 121.312C610.616 120.724 610.316 119.812 609.956 119.104L610.772 118.864C611.132 119.548 611.48 120.448 611.564 121.036ZM608.696 121.432L607.892 121.768C607.724 121.168 607.256 120.244 606.752 119.56L607.508 119.248C608.024 119.92 608.528 120.82 608.696 121.432ZM616.256 123.388H612.104C613.22 124.732 614.972 126.028 616.544 126.664C616.34 126.856 616.04 127.204 615.884 127.456C614.324 126.712 612.608 125.332 611.432 123.844V127.9H610.508V123.892C609.344 125.392 607.664 126.724 606.116 127.468C605.972 127.228 605.672 126.88 605.468 126.688C607.04 126.04 608.756 124.756 609.836 123.388H605.756V122.524H610.508V121.432H611.432V122.524H616.256V123.388ZM618.704 118.48V124.888H617.996V117.676H621.944V124.852H621.212V118.48H618.704ZM620.348 119.428V122.548C620.348 124.24 620.084 126.472 617.996 127.888C617.888 127.72 617.66 127.48 617.492 127.336C619.484 126.124 619.616 124.036 619.616 122.548V119.428H620.348ZM620.144 125.596L620.756 125.164C621.332 125.788 622.064 126.676 622.4 127.216L621.776 127.708C621.44 127.144 620.732 126.232 620.144 125.596ZM626.684 125.092L626 125.368C625.952 125.152 625.904 124.9 625.82 124.612C623.396 125.116 623.048 125.224 622.82 125.356C622.772 125.176 622.664 124.792 622.556 124.576C622.736 124.528 622.88 124.264 623.06 123.856C623.24 123.472 623.792 121.972 624.032 120.592L624.86 120.832C624.548 122.032 624.104 123.304 623.648 124.312L625.604 123.928C625.424 123.412 625.232 122.872 625.028 122.404L625.664 122.212C626.084 123.148 626.516 124.384 626.684 125.092ZM624.14 118.852H628.148C628.148 118.852 628.148 119.2 628.136 119.308C627.968 124.972 627.836 126.832 627.404 127.408C627.152 127.744 626.912 127.84 626.528 127.9C626.18 127.936 625.592 127.924 625.004 127.888C624.992 127.624 624.896 127.252 624.74 127C625.376 127.06 625.94 127.06 626.192 127.06C626.396 127.06 626.504 127.024 626.636 126.856C626.972 126.46 627.128 124.636 627.272 119.668H623.804C623.468 120.376 623.096 121.024 622.712 121.528C622.556 121.384 622.208 121.096 622.004 120.988C622.808 120.004 623.456 118.492 623.84 116.956L624.692 117.148C624.536 117.724 624.344 118.3 624.14 118.852Z" fill="#1A3341"/>
<rect y="92" width="200" height="60" rx="2" fill="white"/>
<path d="M92.452 122.164L92.56 123.016L91.06 123.46V126.844C91.06 127.36 90.94 127.6 90.64 127.744C90.328 127.9 89.848 127.924 89.02 127.912C88.984 127.684 88.864 127.324 88.744 127.072C89.296 127.084 89.8 127.084 89.944 127.072C90.112 127.072 90.172 127.024 90.172 126.844V123.736C89.644 123.88 89.14 124.036 88.684 124.168L88.444 123.256C88.924 123.148 89.524 122.992 90.172 122.812V120.244H88.612V119.368H90.172V116.968H91.06V119.368H92.452V120.244H91.06V122.56L92.452 122.164ZM93.964 126.388H97.972V123.556H93.964V126.388ZM97.972 119.956H93.964V122.704H97.972V119.956ZM95.968 119.104H98.872V127.804H97.972V127.228H93.964V127.888H93.088V119.104H95.08C95.296 118.444 95.5 117.592 95.596 116.98L96.616 117.1C96.424 117.772 96.184 118.516 95.968 119.104ZM109.756 122.596L109.084 122.2C109.348 121.864 109.648 121.384 109.888 120.904H101.032V120.124H105.58V119.02H101.764V118.228H105.58V116.992H106.48V118.228H110.404V119.02H106.48V120.124H110.332L110.488 120.076L111.112 120.34C110.728 121.156 110.224 122.032 109.756 122.596ZM105.58 122.164L105.1 122.728C104.608 122.368 103.636 121.912 102.844 121.66L103.3 121.132C104.092 121.36 105.064 121.792 105.58 122.164ZM101.644 122.8L102.064 122.248C102.856 122.464 103.828 122.872 104.332 123.22L103.876 123.82C103.396 123.472 102.424 123.04 101.644 122.8ZM111.22 124.804H106.528C105.844 126.4 104.404 127.408 101.272 127.936C101.212 127.708 100.996 127.372 100.84 127.18C103.552 126.76 104.86 126.004 105.532 124.804H100.816V124H105.88C106.12 123.22 106.204 122.308 106.264 121.216H107.188C107.116 122.272 107.02 123.208 106.816 124H111.22V124.804ZM106.492 126.112L106.9 125.452C108.532 125.944 110.272 126.616 111.34 127.18L110.836 127.9C109.804 127.336 108.136 126.628 106.492 126.112Z" fill="#1A3341"/>
<rect y="176" width="200" height="60" rx="2" fill="white"/>
<path d="M91.684 202.96L91.036 203.56C90.7 203.068 89.98 202.288 89.404 201.736L90.004 201.22C90.604 201.748 91.348 202.468 91.684 202.96ZM91.096 209.596L92.344 208.708C92.404 208.936 92.56 209.284 92.632 209.44C90.616 210.952 90.292 211.204 90.124 211.444C90.04 211.228 89.812 210.856 89.656 210.676C89.872 210.544 90.232 210.184 90.232 209.656V205.564H88.552V204.7H91.096V209.596ZM96.04 205.48H93.988V206.764H96.04V205.48ZM93.988 208.78H96.04V207.484H93.988V208.78ZM96.844 209.512H93.988V210.244H93.16V204.748H96.844V209.512ZM94.336 202.744H99.256C99.256 202.744 99.256 203.092 99.244 203.224C99.052 208.876 98.884 210.772 98.416 211.36C98.152 211.708 97.9 211.816 97.48 211.852C97.096 211.9 96.424 211.888 95.776 211.852C95.752 211.588 95.644 211.228 95.488 210.976C96.208 211.036 96.856 211.048 97.144 211.048C97.36 211.048 97.492 211.012 97.624 210.844C98.008 210.424 98.212 208.552 98.368 203.572H93.904C93.484 204.328 93.004 205 92.524 205.528C92.356 205.372 91.984 205.084 91.756 204.94C92.728 203.98 93.568 202.468 94.084 200.956L94.984 201.196C94.792 201.724 94.576 202.24 94.336 202.744ZM103.24 200.968L104.08 201.22C103.768 202.096 103.36 202.984 102.916 203.812V211.912H102.04V205.276C101.716 205.768 101.368 206.212 101.02 206.596C100.912 206.392 100.648 205.924 100.504 205.732C101.608 204.568 102.628 202.78 103.24 200.968ZM105.28 207.232V205.612H106.168V207.244C106.168 208.624 105.94 210.592 104.068 212.008C103.924 211.804 103.648 211.528 103.42 211.384C105.148 210.184 105.28 208.36 105.28 207.232ZM108.664 211.888V205.588H109.564V211.888H108.664ZM107.164 200.932L108.1 201.1C108.016 201.268 107.932 201.46 107.848 201.64C108.7 203.08 110.212 204.532 111.604 205.264C111.4 205.42 111.112 205.744 110.98 205.96C109.696 205.216 108.34 203.86 107.404 202.432C106.576 203.788 105.364 205.12 103.66 206.128C103.552 205.912 103.288 205.588 103.108 205.432C105.232 204.232 106.552 202.444 107.164 200.932Z" fill="#1A3341"/>
<rect x="241" y="176" width="200" height="60" rx="2" fill="white"/>
<path d="M320.492 209.344L321.32 209.656C320.54 210.412 319.412 211.204 318.464 211.684C318.32 211.528 317.984 211.24 317.78 211.096C318.764 210.664 319.832 209.992 320.492 209.344ZM326.552 208.528L323.612 208.72V210.88C323.612 211.348 323.504 211.576 323.12 211.72C322.736 211.852 322.148 211.864 321.272 211.864C321.224 211.6 321.08 211.276 320.948 211.036C321.68 211.06 322.316 211.06 322.496 211.048C322.7 211.036 322.748 211 322.748 210.856V208.768C319.28 208.996 318.824 209.044 318.5 209.14C318.464 208.984 318.356 208.576 318.26 208.372C318.656 208.324 319.184 208.156 319.88 207.868C320.264 207.736 321.104 207.364 322.088 206.896C319.88 207.04 319.556 207.088 319.364 207.16C319.328 207.004 319.208 206.596 319.124 206.392C319.364 206.356 319.64 206.248 319.976 206.068C320.312 205.912 321.38 205.336 322.22 204.676H318.68V206.14H317.84V203.908H322.544V202.792H317.96V202.012H322.544V200.956H323.456V202.012H328.04V202.792H323.456V203.908H328.196V206.14H327.32V204.676H322.76L323.12 204.952C322.376 205.492 321.548 205.984 320.72 206.38L323.396 206.224C323.972 205.924 324.548 205.588 325.076 205.252L325.7 205.792C324.08 206.764 322.388 207.58 320.72 208.204L325.94 207.928C325.616 207.616 325.28 207.304 324.968 207.052L325.604 206.656C326.444 207.34 327.512 208.348 328.016 208.984L327.344 209.464C327.152 209.2 326.876 208.876 326.552 208.528ZM324.584 209.728L325.256 209.284C326.252 209.8 327.536 210.592 328.208 211.144L327.5 211.648C326.888 211.108 325.604 210.28 324.584 209.728ZM331.28 207.28V209.164C331.904 209.068 332.576 208.96 333.284 208.852V207.28H331.28ZM333.284 202.336H331.28V204.004H333.284V202.336ZM331.28 204.784V206.512H333.284V204.784H331.28ZM335.216 209.308L334.16 209.5V211.9H333.284V209.656C331.988 209.896 330.716 210.112 329.708 210.292L329.516 209.416C329.78 209.38 330.092 209.332 330.416 209.296V202.336H329.612V201.52H335.036V202.336H334.16V208.708L335.168 208.54L335.216 209.308ZM339.176 203.152H336.464C336.74 204.868 337.136 206.428 337.748 207.76C338.408 206.464 338.9 204.916 339.176 203.152ZM339.572 202.276L340.112 202.432C339.788 205 339.14 207.052 338.216 208.684C338.828 209.728 339.608 210.568 340.568 211.132C340.364 211.3 340.088 211.612 339.944 211.828C339.044 211.252 338.312 210.472 337.712 209.5C337.016 210.508 336.212 211.312 335.336 211.924C335.204 211.696 334.964 211.408 334.76 211.252C335.684 210.676 336.536 209.8 337.244 208.66C336.488 207.124 335.996 205.252 335.648 203.152H335.072V202.312H339.416L339.572 202.276ZM344.24 200.968L345.08 201.22C344.768 202.096 344.36 202.984 343.916 203.812V211.912H343.04V205.276C342.716 205.768 342.368 206.212 342.02 206.596C341.912 206.392 341.648 205.924 341.504 205.732C342.608 204.568 343.628 202.78 344.24 200.968ZM346.28 207.232V205.612H347.168V207.244C347.168 208.624 346.94 210.592 345.068 212.008C344.924 211.804 344.648 211.528 344.42 211.384C346.148 210.184 346.28 208.36 346.28 207.232ZM349.664 211.888V205.588H350.564V211.888H349.664ZM348.164 200.932L349.1 201.1C349.016 201.268 348.932 201.46 348.848 201.64C349.7 203.08 351.212 204.532 352.604 205.264C352.4 205.42 352.112 205.744 351.98 205.96C350.696 205.216 349.34 203.86 348.404 202.432C347.576 203.788 346.364 205.12 344.66 206.128C344.552 205.912 344.288 205.588 344.108 205.432C346.232 204.232 347.552 202.444 348.164 200.932ZM359.144 207.544H363.116C362.348 207.172 361.676 206.704 361.1 206.188C360.488 206.716 359.828 207.172 359.144 207.544ZM359.372 210.616H362.72V208.312H359.372V210.616ZM359.888 203.02L359.744 203.236C360.068 203.848 360.512 204.472 361.088 205.06C361.664 204.46 362.156 203.776 362.504 203.02H359.888ZM363.068 202.204L363.62 202.468C363.2 203.704 362.516 204.748 361.688 205.612C362.504 206.296 363.5 206.86 364.676 207.22C364.496 207.388 364.244 207.736 364.124 207.964C363.932 207.892 363.74 207.82 363.56 207.748V211.876H362.72V211.396H359.372V211.924H358.556V207.832C358.244 207.988 357.932 208.108 357.608 208.228C357.512 208 357.284 207.676 357.104 207.508C358.304 207.124 359.492 206.476 360.5 205.612C359.996 205.072 359.576 204.496 359.252 203.932C358.88 204.412 358.484 204.844 358.076 205.204C357.92 205.036 357.572 204.736 357.368 204.604C357.464 204.52 357.572 204.436 357.668 204.352H356.3V204.892C356.648 205.276 357.584 206.428 357.812 206.716L357.284 207.412C357.092 207.064 356.672 206.428 356.3 205.912V211.9H355.448V206.236C355.016 207.58 354.44 208.876 353.852 209.668C353.756 209.428 353.54 209.08 353.384 208.876C354.176 207.868 354.968 205.996 355.352 204.352H353.66V203.524H355.448V200.956H356.3V203.524H357.848V204.184C358.736 203.332 359.504 202.168 359.972 200.944L360.836 201.184C360.692 201.544 360.524 201.892 360.344 202.24H362.912L363.068 202.204Z" fill="#1A3341"/>
<rect x="481" y="176" width="200" height="60" rx="2" fill="white"/>
<path d="M556.58 201.136H557.528V210.676C557.528 211.336 557.348 211.6 556.928 211.756C556.496 211.9 555.752 211.924 554.636 211.912C554.576 211.66 554.408 211.24 554.264 210.988C555.14 211.024 556.004 211.012 556.232 211C556.484 211 556.58 210.916 556.58 210.676V201.136ZM559.448 204.16L560.288 203.836C561.344 205.516 562.352 207.7 562.652 209.128L561.716 209.524C561.428 208.108 560.468 205.876 559.448 204.16ZM553.448 203.92L554.432 204.1C554.048 205.84 553.352 207.988 552.272 209.32C552.056 209.164 551.672 208.948 551.432 208.852C552.5 207.592 553.16 205.528 553.448 203.92ZM567.488 206.176L567.596 206.98C567.092 207.124 566.6 207.28 566.108 207.436V210.784C566.108 211.288 565.976 211.528 565.664 211.66C565.364 211.804 564.86 211.828 564.044 211.828C564.008 211.6 563.876 211.24 563.768 211C564.332 211.024 564.86 211.012 565.004 211.012C565.172 211.012 565.232 210.952 565.232 210.784V207.688L563.708 208.132L563.444 207.268C563.948 207.148 564.56 206.98 565.232 206.8V204.208H563.588V203.368H565.232V200.968H566.108V203.368H567.464V204.208H566.108V206.56L567.488 206.176ZM568.844 210.256L570.476 209.572C570.488 209.824 570.56 210.184 570.62 210.376C568.496 211.336 568.172 211.528 567.98 211.732C567.896 211.492 567.692 211.12 567.548 210.94C567.728 210.808 567.968 210.544 567.968 210.04V201.136H568.844V204.832H570.584V205.672H568.844V210.256ZM572.24 210.772H573.332C573.584 210.772 573.632 210.424 573.668 209.08C573.896 209.26 574.232 209.428 574.496 209.488C574.412 211.048 574.208 211.624 573.392 211.624H572.12C571.244 211.624 571.004 211.312 571.004 210.208V201.148H571.892V205.252C572.516 204.772 573.176 204.196 573.608 203.728L574.28 204.316C573.572 204.976 572.672 205.684 571.892 206.2V210.208C571.892 210.676 571.94 210.772 572.24 210.772ZM583.952 202.528V201.88H578.012V202.528H583.952ZM583.952 203.704V203.044H578.012V203.704H583.952ZM584.828 201.34V204.244H577.16V201.34H584.828ZM586.352 204.736V205.42H575.672V204.736H586.352ZM577.772 208.396H580.556V207.712H577.772V208.396ZM577.772 206.512V207.184H580.556V206.512H577.772ZM584.312 207.184V206.512H581.408V207.184H584.312ZM584.312 208.396V207.712H581.408V208.396H584.312ZM581.408 210.928H586.412V211.624H575.6V210.928H580.556V210.232H576.596V209.608H580.556V208.948H576.944V205.96H585.188V208.948H581.408V209.608H585.44V210.232H581.408V210.928ZM596.912 201.112L597.62 201.904C595.16 202.348 591.464 202.636 588.356 202.744C588.332 202.492 588.224 202.132 588.128 201.904C591.2 201.796 594.848 201.52 596.912 201.112ZM595.544 206.044L594.836 205.708C595.424 204.928 596.156 203.656 596.588 202.756L597.476 203.104C596.9 204.1 596.156 205.276 595.544 206.044ZM593.564 205.036L592.7 205.312C592.616 204.724 592.316 203.812 591.956 203.104L592.772 202.864C593.132 203.548 593.48 204.448 593.564 205.036ZM590.696 205.432L589.892 205.768C589.724 205.168 589.256 204.244 588.752 203.56L589.508 203.248C590.024 203.92 590.528 204.82 590.696 205.432ZM598.256 207.388H594.104C595.22 208.732 596.972 210.028 598.544 210.664C598.34 210.856 598.04 211.204 597.884 211.456C596.324 210.712 594.608 209.332 593.432 207.844V211.9H592.508V207.892C591.344 209.392 589.664 210.724 588.116 211.468C587.972 211.228 587.672 210.88 587.468 210.688C589.04 210.04 590.756 208.756 591.836 207.388H587.756V206.524H592.508V205.432H593.432V206.524H598.256V207.388ZM600.704 202.48V208.888H599.996V201.676H603.944V208.852H603.212V202.48H600.704ZM602.348 203.428V206.548C602.348 208.24 602.084 210.472 599.996 211.888C599.888 211.72 599.66 211.48 599.492 211.336C601.484 210.124 601.616 208.036 601.616 206.548V203.428H602.348ZM602.144 209.596L602.756 209.164C603.332 209.788 604.064 210.676 604.4 211.216L603.776 211.708C603.44 211.144 602.732 210.232 602.144 209.596ZM608.684 209.092L608 209.368C607.952 209.152 607.904 208.9 607.82 208.612C605.396 209.116 605.048 209.224 604.82 209.356C604.772 209.176 604.664 208.792 604.556 208.576C604.736 208.528 604.88 208.264 605.06 207.856C605.24 207.472 605.792 205.972 606.032 204.592L606.86 204.832C606.548 206.032 606.104 207.304 605.648 208.312L607.604 207.928C607.424 207.412 607.232 206.872 607.028 206.404L607.664 206.212C608.084 207.148 608.516 208.384 608.684 209.092ZM606.14 202.852H610.148C610.148 202.852 610.148 203.2 610.136 203.308C609.968 208.972 609.836 210.832 609.404 211.408C609.152 211.744 608.912 211.84 608.528 211.9C608.18 211.936 607.592 211.924 607.004 211.888C606.992 211.624 606.896 211.252 606.74 211C607.376 211.06 607.94 211.06 608.192 211.06C608.396 211.06 608.504 211.024 608.636 210.856C608.972 210.46 609.128 208.636 609.272 203.668H605.804C605.468 204.376 605.096 205.024 604.712 205.528C604.556 205.384 604.208 205.096 604.004 204.988C604.808 204.004 605.456 202.492 605.84 200.956L606.692 201.148C606.536 201.724 606.344 202.3 606.14 202.852Z" fill="#1A3341"/>
<rect y="260" width="200" height="60" rx="2" fill="white"/>
<path d="M92.188 290.14L92.32 290.956L90.892 291.424V294.844C90.892 295.348 90.784 295.588 90.472 295.744C90.184 295.9 89.728 295.924 88.96 295.924C88.936 295.684 88.816 295.312 88.696 295.048C89.212 295.072 89.68 295.072 89.812 295.06C89.968 295.06 90.028 295.012 90.028 294.844V291.7L88.612 292.156L88.384 291.304C88.84 291.172 89.404 291.004 90.028 290.812V288.196H88.552V287.368H90.028V284.968H90.892V287.368H92.332V288.196H90.892V290.548L92.188 290.14ZM97.96 291.82H93.916V294.52H97.96V291.82ZM93.052 295.912V291.016H98.848V295.864H97.96V295.336H93.916V295.912H93.052ZM92.692 285.544H99.016C99.016 285.544 99.016 285.808 99.004 285.94C98.872 288.556 98.752 289.552 98.428 289.9C98.236 290.14 98.02 290.224 97.696 290.248C97.408 290.272 96.88 290.272 96.34 290.248C96.328 289.984 96.232 289.636 96.076 289.408C96.616 289.456 97.12 289.456 97.3 289.456C97.492 289.456 97.6 289.444 97.696 289.336C97.888 289.12 98.008 288.352 98.116 286.372H95.632C95.392 288.172 94.768 289.696 92.86 290.572C92.764 290.356 92.512 290.032 92.32 289.876C94 289.168 94.528 287.848 94.744 286.372H92.692V285.544ZM110.776 285.88V286.72H105.58V285.88H110.776ZM104.944 290.68L104.416 291.388C104.224 291.004 103.732 290.26 103.336 289.672V295.912H102.448V289.948C102.016 291.232 101.44 292.48 100.828 293.248C100.732 292.996 100.492 292.636 100.324 292.42C101.092 291.52 101.872 289.816 102.256 288.328H100.636V287.488H102.448V284.968H103.336V287.488H104.884V288.328H103.336V288.64C103.696 289.072 104.716 290.368 104.944 290.68ZM105.892 290.896L106.708 291.076C106.336 292.456 105.736 293.848 105.088 294.76C104.932 294.64 104.584 294.388 104.38 294.292C105.04 293.452 105.58 292.168 105.892 290.896ZM111.412 289.564H108.508V294.784C108.508 295.288 108.412 295.552 108.064 295.696C107.728 295.864 107.176 295.876 106.336 295.876C106.3 295.612 106.168 295.228 106.06 294.964C106.684 294.988 107.236 294.988 107.392 294.976C107.572 294.964 107.62 294.928 107.62 294.772V289.564H105.064V288.724H111.412V289.564ZM109.324 291.1L110.068 290.872C110.644 292.024 111.232 293.536 111.436 294.484L110.608 294.772C110.44 293.836 109.888 292.276 109.324 291.1Z" fill="#1A3341"/>
<rect y="344" width="200" height="60" rx="2" fill="white"/>
<path d="M80.716 369.94V370.72H71.332V369.94H75.616C75.532 369.664 75.412 369.376 75.28 369.124L76.144 368.92C76.324 369.22 76.48 369.616 76.576 369.94H80.716ZM81.304 372.172V372.916H70.708V372.172H73.516C73.408 371.812 73.228 371.416 73.048 371.08L73.864 370.852C74.092 371.248 74.32 371.776 74.452 372.172H77.56C77.776 371.74 77.992 371.224 78.124 370.84L79.012 371.056C78.832 371.44 78.652 371.824 78.472 372.172H81.304ZM73.168 374.38V375.868H78.832V374.38H73.168ZM78.244 378.964H79.96C80.404 378.964 80.488 378.772 80.536 377.476C80.728 377.608 81.1 377.752 81.34 377.812C81.244 379.384 80.98 379.768 80.044 379.768H78.16C77.044 379.768 76.768 379.516 76.768 378.616V376.612H75.184C74.848 378.436 73.936 379.408 70.996 379.924C70.912 379.696 70.708 379.348 70.528 379.168C73.216 378.76 73.996 378.04 74.272 376.612H72.304V373.624H79.732V376.612H77.656V378.604C77.656 378.904 77.74 378.964 78.244 378.964ZM91.012 376.384V374.992H88.372V376.384H91.012ZM88.372 372.868V374.176H91.012V372.868H88.372ZM89.416 370.732H86.032C85.648 371.188 85.204 371.644 84.712 372.064H88.276C88.684 371.692 89.092 371.188 89.416 370.732ZM93.496 374.176V374.992H91.888V377.2H88.372V378.796C88.372 379.372 88.228 379.612 87.808 379.756C87.4 379.9 86.728 379.912 85.66 379.9C85.6 379.66 85.432 379.3 85.312 379.048C86.176 379.072 86.956 379.072 87.172 379.06C87.4 379.048 87.472 378.988 87.472 378.784V377.2H83.728V376.384H87.472V374.992H82.552V374.176H87.472V372.868H84.208V372.46C84.016 372.604 83.812 372.748 83.608 372.88C83.452 372.688 83.152 372.4 82.936 372.268C84.508 371.32 85.648 370.012 86.248 368.944L87.208 369.112C87.052 369.388 86.86 369.664 86.656 369.952H90.016L90.16 369.904L90.796 370.336C90.436 370.912 89.908 371.536 89.368 372.064H91.888V374.176H93.496ZM95.068 374.536L94.372 374.296C94.696 373.504 94.912 372.196 94.996 371.224L95.668 371.32C95.608 372.304 95.38 373.66 95.068 374.536ZM96.1 379.912V368.956H96.988V379.912H96.1ZM97.072 371.164L97.696 370.876C98.056 371.524 98.428 372.376 98.572 372.88L97.9 373.204C97.768 372.688 97.408 371.824 97.072 371.164ZM102.34 378.652H105.34V379.504H98.02V378.652H101.452V375.652H98.908V374.824H101.452V372.34H99.7C99.46 373.06 99.184 373.684 98.86 374.2C98.68 374.08 98.284 373.888 98.068 373.792C98.764 372.748 99.244 371.14 99.52 369.508L100.384 369.652C100.264 370.276 100.12 370.9 99.952 371.488H101.452V369.004H102.34V371.488H105.052V372.34H102.34V374.824H104.788V375.652H102.34V378.652ZM116.056 369.712L116.932 370.024C116.488 370.708 115.96 371.5 115.528 372.004L114.856 371.716C115.252 371.188 115.768 370.312 116.056 369.712ZM111.364 369.808L112.12 369.976C111.916 370.732 111.52 371.644 111.016 372.196L110.272 371.872C110.74 371.392 111.148 370.564 111.364 369.808ZM117.352 373.876L116.788 374.56C116.092 373.96 114.76 373.072 113.584 372.388C113.116 373.432 112.252 374.128 110.656 374.584C110.572 374.38 110.332 374.044 110.152 373.876C112.876 373.156 113.188 371.776 113.296 368.968H114.172C114.124 370.024 114.052 370.9 113.86 371.644C115.072 372.304 116.572 373.24 117.352 373.876ZM115.54 377.404L114.832 377.116C115.3 376.528 115.888 375.544 116.212 374.86L117.112 375.172C116.632 375.952 116.02 376.84 115.54 377.404ZM111.004 377.476L110.248 377.116C110.716 376.612 111.112 375.712 111.316 374.896L112.108 375.04C111.904 375.904 111.52 376.876 111.004 377.476ZM109.828 371.032L109.192 371.584C108.832 371.116 108.112 370.372 107.5 369.856L108.112 369.376C108.712 369.868 109.48 370.576 109.828 371.032ZM109.264 377.884L110.02 377.344C110.092 377.572 110.224 377.92 110.32 378.076C108.772 379.252 108.484 379.492 108.328 379.696V379.708C108.244 379.516 108.004 379.192 107.848 379.06C108.064 378.892 108.412 378.496 108.412 377.92V373.564H106.6V372.712H109.264V377.884ZM113.296 373.924H114.172C114.148 374.572 114.1 375.16 114.04 375.7C114.484 377.5 115.564 378.784 117.616 379.132C117.424 379.312 117.196 379.66 117.076 379.9C115.36 379.516 114.328 378.556 113.716 377.116C113.236 378.496 112.252 379.372 110.152 379.912C110.08 379.696 109.84 379.336 109.648 379.144C112.828 378.412 113.176 376.948 113.296 373.924ZM120.904 371.932L120.124 372.268C119.896 371.656 119.368 370.684 118.936 369.952L119.668 369.664C120.124 370.396 120.652 371.32 120.904 371.932ZM122.284 373.384V373.816C122.284 374.344 122.272 374.872 122.212 375.4H124.804V376.24H122.08C121.804 377.68 121.132 379.012 119.608 379.984C119.452 379.804 119.152 379.504 118.924 379.348C120.256 378.52 120.88 377.416 121.168 376.24H118.6V375.4H121.324C121.384 374.872 121.408 374.344 121.408 373.816V373.384H119.044V372.544H121.408V369.016H122.284V372.544H124.516V373.384H122.284ZM124.012 369.604L124.816 369.844C124.444 370.696 123.94 371.716 123.532 372.376C123.352 372.244 122.992 372.088 122.776 372.004C123.22 371.344 123.688 370.42 124.012 369.604ZM126.424 370.408V377.008H125.548V370.408H126.424ZM128.044 369.196H128.92V378.748C128.92 379.348 128.752 379.612 128.38 379.756C127.984 379.912 127.324 379.936 126.22 379.924C126.172 379.696 126.028 379.276 125.896 379.036C126.748 379.06 127.492 379.048 127.732 379.048C127.948 379.036 128.044 378.964 128.044 378.748V369.196Z" fill="#1A3341"/>
<rect y="428" width="200" height="60" rx="2" fill="white"/>
<path d="M71.224 456.64H69.22V457.696H71.224V456.64ZM74.116 456.64H72.028V457.696H74.116V456.64ZM72.028 459.448H74.116V458.356H72.028V459.448ZM69.22 459.448H71.224V458.356H69.22V459.448ZM69.22 460.132V462.124H68.368V455.956H71.776C71.044 455.596 70.168 455.212 69.436 454.936L70 454.432C70.528 454.624 71.152 454.876 71.74 455.128C72.328 454.852 72.94 454.468 73.432 454.108H68.38V453.4H74.236L74.416 453.352L74.956 453.772C74.308 454.396 73.396 455.02 72.508 455.488C72.844 455.644 73.156 455.812 73.396 455.956H74.968V461.236C74.968 461.68 74.872 461.884 74.56 462.016C74.248 462.148 73.744 462.16 72.94 462.16C72.904 461.932 72.808 461.632 72.7 461.416C73.264 461.44 73.768 461.428 73.912 461.428C74.068 461.428 74.116 461.38 74.116 461.224V460.132H72.028V462.088H71.224V460.132H69.22ZM67.492 455.404L66.844 455.992C66.424 455.44 65.524 454.564 64.804 453.94L65.428 453.436C66.136 454.024 67.06 454.864 67.492 455.404ZM67.096 457.432V461.68C67.336 461.812 67.588 462.04 68.02 462.292C68.812 462.784 69.832 462.88 71.164 462.88C72.556 462.88 74.356 462.772 75.58 462.652C75.484 462.88 75.364 463.276 75.34 463.528C74.512 463.576 72.424 463.648 71.14 463.648C69.664 463.648 68.68 463.504 67.828 462.988C67.36 462.7 66.94 462.304 66.664 462.304C66.256 462.304 65.668 462.988 65.068 463.792L64.504 463.06C65.116 462.412 65.716 461.872 66.232 461.656V458.272H64.552V457.432H67.096ZM84.628 460.696V455.956H80.02V455.104H84.628V453.004H85.516V455.104H87.172V455.956H85.516V460.696C85.516 461.296 85.36 461.56 84.94 461.692C84.532 461.836 83.8 461.86 82.672 461.86C82.636 461.608 82.492 461.212 82.36 460.96C83.224 460.984 84.064 460.984 84.304 460.984C84.544 460.972 84.628 460.9 84.628 460.696ZM80.584 457.288L81.292 456.904C81.892 457.636 82.66 458.62 83.008 459.244L82.252 459.7C81.916 459.076 81.196 458.032 80.584 457.288ZM79.492 455.272L78.76 455.788C78.424 455.224 77.656 454.348 76.996 453.736L77.68 453.28C78.34 453.88 79.132 454.708 79.492 455.272ZM79.168 457.432V461.452C79.396 461.596 79.648 461.812 80.056 462.064C80.824 462.544 81.856 462.64 83.176 462.64C84.58 462.64 86.368 462.532 87.532 462.412C87.412 462.652 87.268 463.096 87.256 463.372C86.404 463.432 84.304 463.492 83.152 463.492C81.676 463.492 80.68 463.36 79.852 462.832C79.36 462.52 78.964 462.124 78.7 462.124C78.304 462.124 77.728 462.832 77.116 463.648L76.492 462.808C77.128 462.124 77.764 461.596 78.292 461.392V458.272H76.648V457.432H79.168ZM98.296 454.828L97.576 455.32C97.252 454.864 96.58 454.108 96.064 453.556L96.748 453.124C97.264 453.652 97.96 454.396 98.296 454.828ZM96.892 458.668H93.136C93.592 459.616 94.24 460.456 95.056 461.14C95.824 460.468 96.46 459.64 96.892 458.668ZM97.492 457.756L98.092 458.056C97.6 459.568 96.796 460.756 95.764 461.68C96.808 462.388 98.068 462.892 99.532 463.168C99.34 463.348 99.1 463.708 98.98 463.96C97.456 463.624 96.148 463.048 95.08 462.244C93.976 463.036 92.716 463.588 91.384 463.948C91.288 463.72 91.072 463.372 90.916 463.18C92.152 462.892 93.352 462.388 94.372 461.668C93.664 461.008 93.064 460.228 92.584 459.328C91.756 460.804 90.628 462.028 89.08 462.988C88.948 462.784 88.636 462.46 88.42 462.304C90.604 460.972 91.924 459.016 92.716 456.532H91.048C90.292 456.532 89.884 456.604 89.776 456.736C89.716 456.544 89.572 456.1 89.476 455.896C89.644 455.848 89.776 455.68 89.908 455.416C90.052 455.176 90.496 454.204 90.712 453.292L91.648 453.472C91.444 454.24 91.096 455.044 90.784 455.668H92.944C93.172 454.804 93.34 453.892 93.448 452.92L94.444 453.064C94.312 453.988 94.156 454.852 93.964 455.668H99.136L99.124 456.532H93.724C93.592 456.964 93.448 457.396 93.304 457.804H97.324L97.492 457.756ZM103.24 452.968L104.08 453.22C103.768 454.096 103.36 454.984 102.916 455.812V463.912H102.04V457.276C101.716 457.768 101.368 458.212 101.02 458.596C100.912 458.392 100.648 457.924 100.504 457.732C101.608 456.568 102.628 454.78 103.24 452.968ZM105.28 459.232V457.612H106.168V459.244C106.168 460.624 105.94 462.592 104.068 464.008C103.924 463.804 103.648 463.528 103.42 463.384C105.148 462.184 105.28 460.36 105.28 459.232ZM108.664 463.888V457.588H109.564V463.888H108.664ZM107.164 452.932L108.1 453.1C108.016 453.268 107.932 453.46 107.848 453.64C108.7 455.08 110.212 456.532 111.604 457.264C111.4 457.42 111.112 457.744 110.98 457.96C109.696 457.216 108.34 455.86 107.404 454.432C106.576 455.788 105.364 457.12 103.66 458.128C103.552 457.912 103.288 457.588 103.108 457.432C105.232 456.232 106.552 454.444 107.164 452.932ZM121.912 453.112L122.62 453.904C120.16 454.348 116.464 454.636 113.356 454.744C113.332 454.492 113.224 454.132 113.128 453.904C116.2 453.796 119.848 453.52 121.912 453.112ZM120.544 458.044L119.836 457.708C120.424 456.928 121.156 455.656 121.588 454.756L122.476 455.104C121.9 456.1 121.156 457.276 120.544 458.044ZM118.564 457.036L117.7 457.312C117.616 456.724 117.316 455.812 116.956 455.104L117.772 454.864C118.132 455.548 118.48 456.448 118.564 457.036ZM115.696 457.432L114.892 457.768C114.724 457.168 114.256 456.244 113.752 455.56L114.508 455.248C115.024 455.92 115.528 456.82 115.696 457.432ZM123.256 459.388H119.104C120.22 460.732 121.972 462.028 123.544 462.664C123.34 462.856 123.04 463.204 122.884 463.456C121.324 462.712 119.608 461.332 118.432 459.844V463.9H117.508V459.892C116.344 461.392 114.664 462.724 113.116 463.468C112.972 463.228 112.672 462.88 112.468 462.688C114.04 462.04 115.756 460.756 116.836 459.388H112.756V458.524H117.508V457.432H118.432V458.524H123.256V459.388ZM125.704 454.48V460.888H124.996V453.676H128.944V460.852H128.212V454.48H125.704ZM127.348 455.428V458.548C127.348 460.24 127.084 462.472 124.996 463.888C124.888 463.72 124.66 463.48 124.492 463.336C126.484 462.124 126.616 460.036 126.616 458.548V455.428H127.348ZM127.144 461.596L127.756 461.164C128.332 461.788 129.064 462.676 129.4 463.216L128.776 463.708C128.44 463.144 127.732 462.232 127.144 461.596ZM133.684 461.092L133 461.368C132.952 461.152 132.904 460.9 132.82 460.612C130.396 461.116 130.048 461.224 129.82 461.356C129.772 461.176 129.664 460.792 129.556 460.576C129.736 460.528 129.88 460.264 130.06 459.856C130.24 459.472 130.792 457.972 131.032 456.592L131.86 456.832C131.548 458.032 131.104 459.304 130.648 460.312L132.604 459.928C132.424 459.412 132.232 458.872 132.028 458.404L132.664 458.212C133.084 459.148 133.516 460.384 133.684 461.092ZM131.14 454.852H135.148C135.148 454.852 135.148 455.2 135.136 455.308C134.968 460.972 134.836 462.832 134.404 463.408C134.152 463.744 133.912 463.84 133.528 463.9C133.18 463.936 132.592 463.924 132.004 463.888C131.992 463.624 131.896 463.252 131.74 463C132.376 463.06 132.94 463.06 133.192 463.06C133.396 463.06 133.504 463.024 133.636 462.856C133.972 462.46 134.128 460.636 134.272 455.668H130.804C130.468 456.376 130.096 457.024 129.712 457.528C129.556 457.384 129.208 457.096 129.004 456.988C129.808 456.004 130.456 454.492 130.84 452.956L131.692 453.148C131.536 453.724 131.344 454.3 131.14 454.852Z" fill="#1A3341"/>
<rect x="481" width="200" height="60" rx="2" fill="#BAEADC"/>
<path d="M549.26 26.78V25.016H550.16V35.912H549.26V33.044H545.72V32.18H549.26V30.308H546.176V29.456H549.26V27.656H545.996V26.78H549.26ZM556.448 32.18V33.056H552.86V35.924H551.948V25.028H552.86V26.78H556.244V27.656H552.86V29.456H556.004V30.308H552.86V32.18H556.448ZM567.716 25.94V26.72H558.332V25.94H562.616C562.532 25.664 562.412 25.376 562.28 25.124L563.144 24.92C563.324 25.22 563.48 25.616 563.576 25.94H567.716ZM568.304 28.172V28.916H557.708V28.172H560.516C560.408 27.812 560.228 27.416 560.048 27.08L560.864 26.852C561.092 27.248 561.32 27.776 561.452 28.172H564.56C564.776 27.74 564.992 27.224 565.124 26.84L566.012 27.056C565.832 27.44 565.652 27.824 565.472 28.172H568.304ZM560.168 30.38V31.868H565.832V30.38H560.168ZM565.244 34.964H566.96C567.404 34.964 567.488 34.772 567.536 33.476C567.728 33.608 568.1 33.752 568.34 33.812C568.244 35.384 567.98 35.768 567.044 35.768H565.16C564.044 35.768 563.768 35.516 563.768 34.616V32.612H562.184C561.848 34.436 560.936 35.408 557.996 35.924C557.912 35.696 557.708 35.348 557.528 35.168C560.216 34.76 560.996 34.04 561.272 32.612H559.304V29.624H566.732V32.612H564.656V34.604C564.656 34.904 564.74 34.964 565.244 34.964ZM578.012 32.384V30.992H575.372V32.384H578.012ZM575.372 28.868V30.176H578.012V28.868H575.372ZM576.416 26.732H573.032C572.648 27.188 572.204 27.644 571.712 28.064H575.276C575.684 27.692 576.092 27.188 576.416 26.732ZM580.496 30.176V30.992H578.888V33.2H575.372V34.796C575.372 35.372 575.228 35.612 574.808 35.756C574.4 35.9 573.728 35.912 572.66 35.9C572.6 35.66 572.432 35.3 572.312 35.048C573.176 35.072 573.956 35.072 574.172 35.06C574.4 35.048 574.472 34.988 574.472 34.784V33.2H570.728V32.384H574.472V30.992H569.552V30.176H574.472V28.868H571.208V28.46C571.016 28.604 570.812 28.748 570.608 28.88C570.452 28.688 570.152 28.4 569.936 28.268C571.508 27.32 572.648 26.012 573.248 24.944L574.208 25.112C574.052 25.388 573.86 25.664 573.656 25.952H577.016L577.16 25.904L577.796 26.336C577.436 26.912 576.908 27.536 576.368 28.064H578.888V30.176H580.496ZM582.068 30.536L581.372 30.296C581.696 29.504 581.912 28.196 581.996 27.224L582.668 27.32C582.608 28.304 582.38 29.66 582.068 30.536ZM583.1 35.912V24.956H583.988V35.912H583.1ZM584.072 27.164L584.696 26.876C585.056 27.524 585.428 28.376 585.572 28.88L584.9 29.204C584.768 28.688 584.408 27.824 584.072 27.164ZM589.34 34.652H592.34V35.504H585.02V34.652H588.452V31.652H585.908V30.824H588.452V28.34H586.7C586.46 29.06 586.184 29.684 585.86 30.2C585.68 30.08 585.284 29.888 585.068 29.792C585.764 28.748 586.244 27.14 586.52 25.508L587.384 25.652C587.264 26.276 587.12 26.9 586.952 27.488H588.452V25.004H589.34V27.488H592.052V28.34H589.34V30.824H591.788V31.652H589.34V34.652ZM602.912 25.112L603.62 25.904C601.16 26.348 597.464 26.636 594.356 26.744C594.332 26.492 594.224 26.132 594.128 25.904C597.2 25.796 600.848 25.52 602.912 25.112ZM601.544 30.044L600.836 29.708C601.424 28.928 602.156 27.656 602.588 26.756L603.476 27.104C602.9 28.1 602.156 29.276 601.544 30.044ZM599.564 29.036L598.7 29.312C598.616 28.724 598.316 27.812 597.956 27.104L598.772 26.864C599.132 27.548 599.48 28.448 599.564 29.036ZM596.696 29.432L595.892 29.768C595.724 29.168 595.256 28.244 594.752 27.56L595.508 27.248C596.024 27.92 596.528 28.82 596.696 29.432ZM604.256 31.388H600.104C601.22 32.732 602.972 34.028 604.544 34.664C604.34 34.856 604.04 35.204 603.884 35.456C602.324 34.712 600.608 33.332 599.432 31.844V35.9H598.508V31.892C597.344 33.392 595.664 34.724 594.116 35.468C593.972 35.228 593.672 34.88 593.468 34.688C595.04 34.04 596.756 32.756 597.836 31.388H593.756V30.524H598.508V29.432H599.432V30.524H604.256V31.388ZM606.704 26.48V32.888H605.996V25.676H609.944V32.852H609.212V26.48H606.704ZM608.348 27.428V30.548C608.348 32.24 608.084 34.472 605.996 35.888C605.888 35.72 605.66 35.48 605.492 35.336C607.484 34.124 607.616 32.036 607.616 30.548V27.428H608.348ZM608.144 33.596L608.756 33.164C609.332 33.788 610.064 34.676 610.4 35.216L609.776 35.708C609.44 35.144 608.732 34.232 608.144 33.596ZM614.684 33.092L614 33.368C613.952 33.152 613.904 32.9 613.82 32.612C611.396 33.116 611.048 33.224 610.82 33.356C610.772 33.176 610.664 32.792 610.556 32.576C610.736 32.528 610.88 32.264 611.06 31.856C611.24 31.472 611.792 29.972 612.032 28.592L612.86 28.832C612.548 30.032 612.104 31.304 611.648 32.312L613.604 31.928C613.424 31.412 613.232 30.872 613.028 30.404L613.664 30.212C614.084 31.148 614.516 32.384 614.684 33.092ZM612.14 26.852H616.148C616.148 26.852 616.148 27.2 616.136 27.308C615.968 32.972 615.836 34.832 615.404 35.408C615.152 35.744 614.912 35.84 614.528 35.9C614.18 35.936 613.592 35.924 613.004 35.888C612.992 35.624 612.896 35.252 612.74 35C613.376 35.06 613.94 35.06 614.192 35.06C614.396 35.06 614.504 35.024 614.636 34.856C614.972 34.46 615.128 32.636 615.272 27.668H611.804C611.468 28.376 611.096 29.024 610.712 29.528C610.556 29.384 610.208 29.096 610.004 28.988C610.808 28.004 611.456 26.492 611.84 24.956L612.692 25.148C612.536 25.724 612.344 26.3 612.14 26.852Z" fill="#1A3341"/>
<path d="M209 30L214 32.8867L214 27.1132L209 30ZM241 29.5L213.5 29.5L213.5 30.5L241 30.5L241 29.5Z" fill="#9FC0C7"/>
<path d="M473 30L468 27.1132L468 32.8868L473 30ZM441 30.5L468.5 30.5L468.5 29.5L441 29.5L441 30.5Z" fill="#9FC0C7"/>
<path d="M341 84L343.887 79L338.113 79L341 84ZM340.5 60L340.5 79.5L341.5 79.5L341.5 60L340.5 60Z" fill="#9FC0C7"/>
<path d="M100 71L87 60H113L100 71Z" fill="#BAEADC"/>
<path d="M581 71L568 60H594L581 71Z" fill="#BAEADC"/>
<path d="M341 163L328 152H354L341 163Z" fill="#BAEADC"/>
</svg>
