<svg width="335" height="721" viewBox="0 0 335 721" fill="none" xmlns="http://www.w3.org/2000/svg">
<rect y="2" width="10" height="10" fill="url(#paint0_linear_7005_27934)"/>
<path d="M20.784 2.992L21.624 3.22C20.94 5.296 19.872 7.408 18.684 8.812C18.6 8.596 18.36 8.116 18.204 7.888C19.26 6.688 20.208 4.84 20.784 2.992ZM19.824 5.932L20.652 5.104L20.676 5.128V13.96H19.824V5.932ZM25.02 3.232L25.692 3.928C24.552 4.432 22.884 4.852 21.468 5.14C21.42 4.936 21.288 4.636 21.18 4.432C22.548 4.132 24.12 3.676 25.02 3.232ZM21.192 6.652H29.316V7.456H21.192V6.652ZM23.196 4.18H24.048V12.868C24.048 13.396 23.928 13.636 23.592 13.78C23.256 13.924 22.704 13.936 21.876 13.936C21.84 13.708 21.72 13.336 21.6 13.096C22.212 13.108 22.788 13.108 22.956 13.096C23.136 13.096 23.196 13.048 23.196 12.868V4.18ZM21.108 10.024C22.236 9.76 23.988 9.304 25.668 8.872L25.764 9.676C24.216 10.108 22.56 10.564 21.348 10.9L21.108 10.024ZM25.872 3.052H26.76C26.7 8.74 27.324 13.12 28.476 13.12C28.74 13.12 28.86 12.532 28.896 11.128C29.076 11.32 29.376 11.512 29.58 11.596C29.448 13.42 29.172 13.984 28.38 13.984C26.364 13.972 25.908 8.944 25.872 3.052ZM28.284 8.032L29.088 8.248C28.188 10.468 26.688 12.328 24.984 13.54C24.852 13.372 24.552 13.06 24.372 12.904C26.076 11.824 27.492 10.072 28.284 8.032ZM27.372 3.652L28.044 3.364C28.536 4.06 29.076 4.996 29.304 5.596L28.596 5.944C28.38 5.344 27.852 4.372 27.372 3.652ZM37.752 4.216V6.016H39.78V4.216H37.752ZM34.92 4.216V6.016H36.924V4.216H34.92ZM32.16 4.216V6.016H34.092V4.216H32.16ZM31.296 3.436H40.68V6.808H31.296V3.436ZM33.588 9.94L34.284 9.496C35.124 10.12 36.168 11.044 36.672 11.68L35.928 12.184C35.46 11.56 34.452 10.588 33.588 9.94ZM33.684 8.008H39.396V8.824H33.684V8.008ZM34.572 6.7L35.472 7C34.656 8.344 33.168 9.64 31.62 10.408C31.488 10.204 31.224 9.88 31.044 9.724C32.52 9.028 33.936 7.852 34.572 6.7ZM39.18 8.008H39.372L39.54 7.972L40.14 8.356C38.676 11.788 35.244 13.324 31.428 13.984C31.344 13.756 31.092 13.36 30.912 13.18C34.656 12.616 37.956 11.212 39.18 8.164V8.008ZM42.636 4.528H48.336V5.32H42.636V4.528ZM43.992 6.424H47.04V7.156H43.992V6.424ZM43.992 8.272H47.076V9.004H43.992V8.272ZM42.456 10.228H48.42V11.032H42.456V10.228ZM43.608 3.052H44.436V10.576H43.608V3.052ZM46.644 3.052H47.484V10.576H46.644V3.052ZM44.148 11.284L45 11.524C44.604 12.4 43.956 13.288 43.332 13.864C43.176 13.708 42.828 13.444 42.612 13.324C43.236 12.808 43.812 12.04 44.148 11.284ZM45.792 11.644L46.512 11.296C46.92 11.764 47.388 12.4 47.604 12.82L46.86 13.216C46.656 12.796 46.188 12.124 45.792 11.644ZM49.116 6.964H53.532V7.804H49.116V6.964ZM51.408 7.408H52.272V13.972H51.408V7.408ZM52.716 2.944L53.436 3.592C52.284 4.132 50.568 4.576 49.092 4.864C49.044 4.672 48.912 4.372 48.804 4.18C50.196 3.868 51.816 3.412 52.716 2.944ZM48.804 4.18H49.632V8.332C49.632 10.54 49.392 12.508 47.868 14.14C47.712 13.96 47.424 13.72 47.22 13.564C48.612 12.064 48.804 10.228 48.804 8.332V4.18Z" fill="#76848D"/>
<rect x="90" y="2" width="10" height="10" fill="#737AF9"/>
<path d="M110.184 12.184H117.792V13.084H110.184V12.184ZM110.124 8.488H117.804V9.376H110.124V8.488ZM109.716 4.852H118.284V13.912H117.348V5.752H110.616V13.96H109.716V4.852ZM113.34 2.884L114.456 3.088C114.12 3.904 113.724 4.804 113.388 5.404L112.512 5.2C112.812 4.552 113.172 3.58 113.34 2.884ZM122.784 2.992L123.624 3.22C122.94 5.296 121.872 7.408 120.684 8.812C120.6 8.596 120.36 8.116 120.204 7.888C121.26 6.688 122.208 4.84 122.784 2.992ZM121.824 5.932L122.652 5.104L122.676 5.128V13.96H121.824V5.932ZM127.02 3.232L127.692 3.928C126.552 4.432 124.884 4.852 123.468 5.14C123.42 4.936 123.288 4.636 123.18 4.432C124.548 4.132 126.12 3.676 127.02 3.232ZM123.192 6.652H131.316V7.456H123.192V6.652ZM125.196 4.18H126.048V12.868C126.048 13.396 125.928 13.636 125.592 13.78C125.256 13.924 124.704 13.936 123.876 13.936C123.84 13.708 123.72 13.336 123.6 13.096C124.212 13.108 124.788 13.108 124.956 13.096C125.136 13.096 125.196 13.048 125.196 12.868V4.18ZM123.108 10.024C124.236 9.76 125.988 9.304 127.668 8.872L127.764 9.676C126.216 10.108 124.56 10.564 123.348 10.9L123.108 10.024ZM127.872 3.052H128.76C128.7 8.74 129.324 13.12 130.476 13.12C130.74 13.12 130.86 12.532 130.896 11.128C131.076 11.32 131.376 11.512 131.58 11.596C131.448 13.42 131.172 13.984 130.38 13.984C128.364 13.972 127.908 8.944 127.872 3.052ZM130.284 8.032L131.088 8.248C130.188 10.468 128.688 12.328 126.984 13.54C126.852 13.372 126.552 13.06 126.372 12.904C128.076 11.824 129.492 10.072 130.284 8.032ZM129.372 3.652L130.044 3.364C130.536 4.06 131.076 4.996 131.304 5.596L130.596 5.944C130.38 5.344 129.852 4.372 129.372 3.652ZM139.752 4.216V6.016H141.78V4.216H139.752ZM136.92 4.216V6.016H138.924V4.216H136.92ZM134.16 4.216V6.016H136.092V4.216H134.16ZM133.296 3.436H142.68V6.808H133.296V3.436ZM135.588 9.94L136.284 9.496C137.124 10.12 138.168 11.044 138.672 11.68L137.928 12.184C137.46 11.56 136.452 10.588 135.588 9.94ZM135.684 8.008H141.396V8.824H135.684V8.008ZM136.572 6.7L137.472 7C136.656 8.344 135.168 9.64 133.62 10.408C133.488 10.204 133.224 9.88 133.044 9.724C134.52 9.028 135.936 7.852 136.572 6.7ZM141.18 8.008H141.372L141.54 7.972L142.14 8.356C140.676 11.788 137.244 13.324 133.428 13.984C133.344 13.756 133.092 13.36 132.912 13.18C136.656 12.616 139.956 11.212 141.18 8.164V8.008ZM144.636 4.528H150.336V5.32H144.636V4.528ZM145.992 6.424H149.04V7.156H145.992V6.424ZM145.992 8.272H149.076V9.004H145.992V8.272ZM144.456 10.228H150.42V11.032H144.456V10.228ZM145.608 3.052H146.436V10.576H145.608V3.052ZM148.644 3.052H149.484V10.576H148.644V3.052ZM146.148 11.284L147 11.524C146.604 12.4 145.956 13.288 145.332 13.864C145.176 13.708 144.828 13.444 144.612 13.324C145.236 12.808 145.812 12.04 146.148 11.284ZM147.792 11.644L148.512 11.296C148.92 11.764 149.388 12.4 149.604 12.82L148.86 13.216C148.656 12.796 148.188 12.124 147.792 11.644ZM151.116 6.964H155.532V7.804H151.116V6.964ZM153.408 7.408H154.272V13.972H153.408V7.408ZM154.716 2.944L155.436 3.592C154.284 4.132 152.568 4.576 151.092 4.864C151.044 4.672 150.912 4.372 150.804 4.18C152.196 3.868 153.816 3.412 154.716 2.944ZM150.804 4.18H151.632V8.332C151.632 10.54 151.392 12.508 149.868 14.14C149.712 13.96 149.424 13.72 149.22 13.564C150.612 12.064 150.804 10.228 150.804 8.332V4.18Z" fill="#76848D"/>
<path d="M20.9275 226.492H14.4315V225.442H20.9275V226.492ZM27.7899 222.39H21.8539V221.2H29.2879V221.998L24.4159 231H23.0859L27.7899 222.39ZM29.2843 230.202C29.2843 229.81 29.6483 229.418 30.1523 229.418C30.6143 229.418 30.9923 229.81 30.9923 230.202C30.9923 230.65 30.6423 231.028 30.1523 231.028C29.6483 231.028 29.2843 230.65 29.2843 230.202ZM33.5778 226.492L32.5698 226.226L33.1438 221.2H39.3038V222.39H34.2218L33.8578 225.022C34.3478 224.658 35.0898 224.476 36.0838 224.476C37.2318 224.476 38.1278 224.784 38.7858 225.386C39.4298 226.002 39.7518 226.786 39.7518 227.752C39.7518 228.718 39.3878 229.53 38.6738 230.16C37.9458 230.804 37.0358 231.126 35.9578 231.126C34.1238 231.126 32.5978 230.258 31.9678 228.732L33.0878 228.256C33.4938 229.194 34.5438 229.936 35.9578 229.936C37.5678 229.936 38.4638 229.012 38.4638 227.794C38.4638 226.492 37.4138 225.652 35.7478 225.652C34.8518 225.652 34.1238 225.932 33.5778 226.492Z" fill="#1A3341"/>
<path d="M11 210.333C11 211.254 11.7462 212 12.6667 212H41.3333C42.2538 212 43 211.254 43 210.333V137H11V210.333Z" fill="url(#paint1_linear_7005_27934)"/>
<path opacity="0.2" d="M21 212H33V137H21V212Z" fill="url(#paint2_linear_7005_27934)"/>
<path opacity="0.04" d="M33 212H41.3333C42.2538 212 43 211.254 43 210.333V137H33V212Z" fill="#0D262C"/>
<path opacity="0.5" d="M11 210.333C11 211.254 11.7462 212 12.6667 212H21V137H11V210.333Z" fill="url(#paint3_linear_7005_27934)"/>
<path d="M96.2371 238.492H89.7411V237.442H96.2371V238.492ZM101.349 237.414H101.783C102.413 237.414 102.931 237.26 103.365 236.966C103.785 236.672 103.995 236.28 103.995 235.818C103.995 234.768 103.169 234.236 101.531 234.236C99.9635 234.236 99.1095 234.81 99.1095 235.818C99.1095 236.728 100.047 237.414 101.349 237.414ZM101.755 238.52H101.405C100.649 238.52 100.019 238.688 99.5295 239.01C99.0395 239.332 98.7875 239.738 98.7875 240.228C98.7875 241.292 99.7675 241.964 101.545 241.964C103.351 241.964 104.317 241.32 104.317 240.242C104.317 239.164 103.281 238.52 101.755 238.52ZM104.513 242.37C103.799 242.874 102.805 243.126 101.559 243.126C100.313 243.126 99.3195 242.874 98.5915 242.384C97.8635 241.894 97.4995 241.222 97.4995 240.354C97.4995 239.22 98.2415 238.324 99.4315 237.932C98.3535 237.582 97.8215 236.728 97.8215 235.734C97.8215 234.11 99.1935 233.074 101.545 233.074C103.911 233.074 105.283 234.11 105.283 235.734C105.283 236.672 104.765 237.386 103.729 237.862C104.975 238.24 105.591 239.052 105.591 240.298C105.591 241.18 105.227 241.88 104.513 242.37ZM106.781 242.202C106.781 241.81 107.145 241.418 107.649 241.418C108.111 241.418 108.489 241.81 108.489 242.202C108.489 242.65 108.139 243.028 107.649 243.028C107.145 243.028 106.781 242.65 106.781 242.202ZM115.261 234.39H109.325V233.2H116.759V233.998L111.887 243H110.557L115.261 234.39Z" fill="#1A3341"/>
<path d="M87 222.333C87 223.254 87.7462 224 88.6667 224H117.333C118.254 224 119 223.254 119 222.333V137H87V222.333Z" fill="url(#paint4_linear_7005_27934)"/>
<path opacity="0.2" d="M97 224H109V137H97V224Z" fill="url(#paint5_linear_7005_27934)"/>
<path opacity="0.04" d="M109 224H117.333C118.254 224 119 223.254 119 222.333V137H109V224Z" fill="#0D262C"/>
<path opacity="0.5" d="M87 222.333C87 223.254 87.7462 224 88.6667 224H97V137H87V222.333Z" fill="url(#paint6_linear_7005_27934)"/>
<path d="M179.533 199.492H173.037V198.442H179.533V199.492ZM187.543 204H186.325V201.998H180.333V201.186L186.465 194.2H187.543V200.864H189.363V201.998H187.543V204ZM186.325 196.16L182.013 200.864H186.325V196.16ZM190.146 203.202C190.146 202.81 190.51 202.418 191.014 202.418C191.476 202.418 191.854 202.81 191.854 203.202C191.854 203.65 191.504 204.028 191.014 204.028C190.51 204.028 190.146 203.65 190.146 203.202ZM196.875 198.414H197.309C197.939 198.414 198.457 198.26 198.891 197.966C199.311 197.672 199.521 197.28 199.521 196.818C199.521 195.768 198.695 195.236 197.057 195.236C195.489 195.236 194.635 195.81 194.635 196.818C194.635 197.728 195.573 198.414 196.875 198.414ZM197.281 199.52H196.931C196.175 199.52 195.545 199.688 195.055 200.01C194.565 200.332 194.313 200.738 194.313 201.228C194.313 202.292 195.293 202.964 197.071 202.964C198.877 202.964 199.843 202.32 199.843 201.242C199.843 200.164 198.807 199.52 197.281 199.52ZM200.039 203.37C199.325 203.874 198.331 204.126 197.085 204.126C195.839 204.126 194.845 203.874 194.117 203.384C193.389 202.894 193.025 202.222 193.025 201.354C193.025 200.22 193.767 199.324 194.957 198.932C193.879 198.582 193.347 197.728 193.347 196.734C193.347 195.11 194.719 194.074 197.071 194.074C199.437 194.074 200.809 195.11 200.809 196.734C200.809 197.672 200.291 198.386 199.255 198.862C200.501 199.24 201.117 200.052 201.117 201.298C201.117 202.18 200.753 202.88 200.039 203.37Z" fill="#1A3341"/>
<path d="M171 183.333C171 184.254 171.746 185 172.667 185H201.333C202.254 185 203 184.254 203 183.333V137H171V183.333Z" fill="url(#paint7_linear_7005_27934)"/>
<path opacity="0.2" d="M181 185H193V137H181V185Z" fill="url(#paint8_linear_7005_27934)"/>
<path opacity="0.04" d="M193 185H201.333C202.254 185 203 184.254 203 183.333V137H193V185Z" fill="#0D262C"/>
<path opacity="0.5" d="M171 183.333C171 184.254 171.746 185 172.667 185H181V137H171V183.333Z" fill="url(#paint9_linear_7005_27934)"/>
<path d="M261.099 39.414H261.533C262.163 39.414 262.681 39.26 263.115 38.966C263.535 38.672 263.745 38.28 263.745 37.818C263.745 36.768 262.919 36.236 261.281 36.236C259.713 36.236 258.859 36.81 258.859 37.818C258.859 38.728 259.797 39.414 261.099 39.414ZM261.505 40.52H261.155C260.399 40.52 259.769 40.688 259.279 41.01C258.789 41.332 258.537 41.738 258.537 42.228C258.537 43.292 259.517 43.964 261.295 43.964C263.101 43.964 264.067 43.32 264.067 42.242C264.067 41.164 263.031 40.52 261.505 40.52ZM264.263 44.37C263.549 44.874 262.555 45.126 261.309 45.126C260.063 45.126 259.069 44.874 258.341 44.384C257.613 43.894 257.249 43.222 257.249 42.354C257.249 41.22 257.991 40.324 259.181 39.932C258.103 39.582 257.571 38.728 257.571 37.734C257.571 36.11 258.943 35.074 261.295 35.074C263.661 35.074 265.033 36.11 265.033 37.734C265.033 38.672 264.515 39.386 263.479 39.862C264.725 40.24 265.341 41.052 265.341 42.298C265.341 43.18 264.977 43.88 264.263 44.37ZM266.531 44.202C266.531 43.81 266.895 43.418 267.399 43.418C267.861 43.418 268.239 43.81 268.239 44.202C268.239 44.65 267.889 45.028 267.399 45.028C266.895 45.028 266.531 44.65 266.531 44.202ZM270.517 38.434L269.495 38.07C269.845 36.334 271.161 35.088 273.247 35.088C275.263 35.088 276.495 36.25 276.495 38.028C276.495 38.966 276.089 39.904 275.585 40.576C275.333 40.926 275.011 41.262 274.633 41.612C273.863 42.298 273.317 42.662 272.519 43.166L271.441 43.838H276.859V45H269.229V44.048L271.357 42.634C271.735 42.396 272.001 42.214 272.155 42.102C272.309 42.004 272.561 41.822 272.897 41.584C273.233 41.346 273.485 41.136 273.653 40.982C273.807 40.828 274.017 40.632 274.255 40.38C274.899 39.68 275.137 39.036 275.207 38.154C275.207 36.88 274.381 36.306 273.163 36.306C272.407 36.306 271.805 36.516 271.371 36.936C270.937 37.356 270.643 37.86 270.517 38.434Z" fill="#1A3341"/>
<path d="M251 56.6667C251 55.7462 251.746 55 252.667 55H281.333C282.254 55 283 55.7462 283 56.6667V137H251V56.6667Z" fill="url(#paint10_linear_7005_27934)"/>
<path opacity="0.2" d="M261 54.9998H273V137H261V54.9998Z" fill="url(#paint11_linear_7005_27934)"/>
<path opacity="0.04" d="M273 54.9998H281.333C282.254 54.9998 283 55.746 283 56.6665V137H273V54.9998Z" fill="#0D262C"/>
<path opacity="0.5" d="M251 56.6667C251 55.7462 251.746 55 252.667 55H261V137H251V56.6667Z" fill="url(#paint12_linear_7005_27934)"/>
<path d="M59.95 182.492H53.454V181.442H59.95V182.492ZM62.3184 180.434L61.2964 180.07C61.6464 178.334 62.9624 177.088 65.0484 177.088C67.0644 177.088 68.2964 178.25 68.2964 180.028C68.2964 180.966 67.8904 181.904 67.3864 182.576C67.1344 182.926 66.8124 183.262 66.4344 183.612C65.6644 184.298 65.1184 184.662 64.3204 185.166L63.2424 185.838H68.6604V187H61.0304V186.048L63.1584 184.634C63.5364 184.396 63.8024 184.214 63.9564 184.102C64.1104 184.004 64.3624 183.822 64.6984 183.584C65.0344 183.346 65.2864 183.136 65.4544 182.982C65.6084 182.828 65.8184 182.632 66.0564 182.38C66.7004 181.68 66.9384 181.036 67.0084 180.154C67.0084 178.88 66.1824 178.306 64.9644 178.306C64.2084 178.306 63.6064 178.516 63.1724 178.936C62.7384 179.356 62.4444 179.86 62.3184 180.434ZM69.7286 186.202C69.7286 185.81 70.0926 185.418 70.5966 185.418C71.0586 185.418 71.4366 185.81 71.4366 186.202C71.4366 186.65 71.0866 187.028 70.5966 187.028C70.0926 187.028 69.7286 186.65 69.7286 186.202ZM80.7421 181.918C80.7421 183.584 80.3501 184.872 79.5521 185.768C78.7541 186.678 77.6901 187.126 76.3601 187.126C74.7361 187.126 73.4621 186.44 72.8321 185.39L73.8401 184.69C74.4001 185.474 75.4221 185.922 76.5281 185.922C77.4381 185.922 78.1661 185.558 78.7401 184.83C79.3141 184.116 79.5521 183.22 79.4821 182.156C79.0201 183.22 77.8581 184.004 76.3041 184.004C75.2121 184.004 74.3161 183.696 73.6161 183.066C72.9021 182.45 72.5521 181.638 72.5521 180.644C72.5521 179.552 72.9301 178.684 73.6861 178.04C74.4421 177.396 75.4501 177.074 76.6961 177.074C79.2161 177.074 80.7421 178.838 80.7421 181.918ZM79.2721 180.602C79.0621 179.3 78.1661 178.278 76.5561 178.278C74.8761 178.278 73.8401 179.146 73.8401 180.602C73.8401 181.988 74.8901 182.8 76.5281 182.8C77.2701 182.8 77.9001 182.576 78.3901 182.128C78.8801 181.68 79.1741 181.176 79.2721 180.602Z" fill="#1A3341"/>
<path d="M51 166.333C51 167.254 51.7462 168 52.6667 168H81.3333C82.2538 168 83 167.254 83 166.333V137H51V166.333Z" fill="url(#paint13_linear_7005_27934)"/>
<path opacity="0.2" d="M61 168H73V137H61V168Z" fill="url(#paint14_linear_7005_27934)"/>
<path opacity="0.04" d="M73 168H81.3333C82.2538 168 83 167.254 83 166.333V137H73V168Z" fill="#0D262C"/>
<path opacity="0.5" d="M51 166.333C51 167.254 51.7462 168 52.6667 168H61V137H51V166.333Z" fill="url(#paint15_linear_7005_27934)"/>
<path d="M141.44 192.492H134.944V191.442H141.44V192.492ZM149.451 197H148.233V194.998H142.241V194.186L148.373 187.2H149.451V193.864H151.271V194.998H149.451V197ZM148.233 189.16L143.921 193.864H148.233V189.16ZM152.053 196.202C152.053 195.81 152.417 195.418 152.921 195.418C153.383 195.418 153.761 195.81 153.761 196.202C153.761 196.65 153.411 197.028 152.921 197.028C152.417 197.028 152.053 196.65 152.053 196.202ZM154.806 189.804L154.358 188.754L157.718 187.144H158.516V197H157.312V188.642L154.806 189.804Z" fill="#1A3341"/>
<path d="M131 176.333C131 177.254 131.746 178 132.667 178H161.333C162.254 178 163 177.254 163 176.333V137H131V176.333Z" fill="url(#paint16_linear_7005_27934)"/>
<path opacity="0.2" d="M141 178H153V137H141V178Z" fill="url(#paint17_linear_7005_27934)"/>
<path opacity="0.04" d="M153 178H161.333C162.254 178 163 177.254 163 176.333V137H153V178Z" fill="#0D262C"/>
<path opacity="0.5" d="M131 176.333C131 177.254 131.746 178 132.667 178H141V137H131V176.333Z" fill="url(#paint18_linear_7005_27934)"/>
<path d="M219.929 187.492H213.433V186.442H219.929V187.492ZM222.144 185.056L221.094 184.58C221.612 183.068 222.97 182.074 225 182.074C225.966 182.074 226.764 182.298 227.38 182.746C227.996 183.194 228.304 183.796 228.304 184.538C228.304 185.672 227.702 186.512 226.582 186.834C227.66 186.904 228.528 187.716 228.528 189.172C228.528 190.096 228.192 190.824 227.52 191.342C226.848 191.86 225.994 192.126 224.944 192.126C222.802 192.126 221.318 191.104 220.828 189.494L221.962 189.004C222.564 190.278 223.586 190.922 225.028 190.922C226.386 190.922 227.24 190.292 227.24 189.186C227.24 188.108 226.4 187.562 224.72 187.562H223.628V186.4H224.496C226.022 186.4 227.016 185.714 227.016 184.776C227.016 183.81 226.218 183.264 224.944 183.264C223.446 183.264 222.536 184.034 222.144 185.056ZM229.776 191.202C229.776 190.81 230.14 190.418 230.644 190.418C231.106 190.418 231.484 190.81 231.484 191.202C231.484 191.65 231.134 192.028 230.644 192.028C230.14 192.028 229.776 191.65 229.776 191.202ZM232.642 187.366C232.642 185.672 233.062 184.37 233.888 183.446C234.714 182.536 235.75 182.074 236.996 182.074C238.634 182.074 239.922 182.816 240.468 183.992L239.516 184.636C238.942 183.726 238.088 183.278 236.94 183.278C236.072 183.278 235.344 183.614 234.756 184.286C234.168 184.972 233.874 185.896 233.888 187.086C234.434 186.064 235.708 185.448 237.108 185.448C238.242 185.448 239.152 185.742 239.81 186.344C240.468 186.946 240.804 187.744 240.804 188.724C240.804 189.718 240.44 190.544 239.698 191.174C238.956 191.804 238.032 192.126 236.926 192.126C234.28 192.126 232.642 190.404 232.642 187.366ZM234.042 188.556C234.308 189.942 235.358 190.922 236.912 190.922C237.668 190.922 238.298 190.726 238.788 190.32C239.278 189.928 239.516 189.41 239.516 188.78C239.516 187.394 238.536 186.652 237.038 186.652C236.212 186.652 235.526 186.848 234.994 187.24C234.448 187.632 234.14 188.066 234.042 188.556Z" fill="#1A3341"/>
<path d="M211 171.333C211 172.254 211.746 173 212.667 173H241.333C242.254 173 243 172.254 243 171.333V137H211V171.333Z" fill="url(#paint19_linear_7005_27934)"/>
<path opacity="0.2" d="M221 173H233V137H221V173Z" fill="url(#paint20_linear_7005_27934)"/>
<path opacity="0.04" d="M233 173H241.333C242.254 173 243 172.254 243 171.333V137H233V173Z" fill="#0D262C"/>
<path opacity="0.5" d="M211 171.333C211 172.254 211.746 173 212.667 173H221V137H211V171.333Z" fill="url(#paint21_linear_7005_27934)"/>
<path d="M294.226 14.804L293.778 13.754L297.138 12.144H297.936V22H296.732V13.642L294.226 14.804ZM299.722 17.1C299.722 15.588 300.072 14.37 300.786 13.46C301.486 12.55 302.522 12.088 303.88 12.088C306.666 12.088 308.052 13.922 308.052 17.1C308.052 18.626 307.702 19.83 307.016 20.74C306.316 21.65 305.28 22.112 303.908 22.112C302.592 22.112 301.57 21.65 300.828 20.726C300.086 19.802 299.722 18.598 299.722 17.1ZM301.01 17.1C301.01 19.494 302.102 20.922 303.908 20.922C305.812 20.922 306.764 19.648 306.764 17.1C306.764 14.552 305.798 13.278 303.88 13.278C301.934 13.278 301.01 14.678 301.01 17.1ZM309.195 21.202C309.195 20.81 309.559 20.418 310.063 20.418C310.525 20.418 310.903 20.81 310.903 21.202C310.903 21.65 310.553 22.028 310.063 22.028C309.559 22.028 309.195 21.65 309.195 21.202ZM313.489 17.492L312.481 17.226L313.055 12.2H319.215V13.39H314.133L313.769 16.022C314.259 15.658 315.001 15.476 315.995 15.476C317.143 15.476 318.039 15.784 318.697 16.386C319.341 17.002 319.663 17.786 319.663 18.752C319.663 19.718 319.299 20.53 318.585 21.16C317.857 21.804 316.947 22.126 315.869 22.126C314.035 22.126 312.509 21.258 311.879 19.732L312.999 19.256C313.405 20.194 314.455 20.936 315.869 20.936C317.479 20.936 318.375 20.012 318.375 18.794C318.375 17.492 317.325 16.652 315.659 16.652C314.763 16.652 314.035 16.932 313.489 17.492Z" fill="#1A3341"/>
<path d="M291 33.6667C291 32.7462 291.746 32 292.667 32H321.333C322.254 32 323 32.7462 323 33.6667V137H291V33.6667Z" fill="url(#paint22_linear_7005_27934)"/>
<path opacity="0.2" d="M301 31.9998H313V137H301V31.9998Z" fill="url(#paint23_linear_7005_27934)"/>
<path opacity="0.04" d="M313 31.9998H321.333C322.254 31.9998 323 32.746 323 33.6665V137H313V31.9998Z" fill="#0D262C"/>
<path opacity="0.5" d="M291 33.6667C291 32.7462 291.746 32 292.667 32H301V137H291V33.6667Z" fill="url(#paint24_linear_7005_27934)"/>
<line x1="-4.37114e-08" y1="136.5" x2="335" y2="136.5" stroke="#ABBEC9"/>
<path d="M20.744 270.84H31.64V271.812H20.744V270.84ZM35.444 272.328H41.06V270.312H35.576C35.576 270.936 35.54 271.62 35.444 272.328ZM41.06 267.468H35.576V269.46H41.06V267.468ZM41.984 266.592V275.616C41.984 276.24 41.804 276.552 41.36 276.696C40.904 276.852 40.112 276.864 38.828 276.864C38.768 276.612 38.6 276.192 38.456 275.94C39.452 275.976 40.412 275.964 40.688 275.964C40.964 275.952 41.06 275.868 41.06 275.604V273.204H35.3C35 274.56 34.4 275.916 33.236 276.936C33.116 276.744 32.756 276.42 32.576 276.288C34.484 274.608 34.676 272.172 34.676 270.264V266.592H41.984ZM48.152 273.156H45.08V272.232H48.152V273.156ZM50.5541 270.372L49.6781 270.06C49.9781 268.572 51.1061 267.504 52.8941 267.504C54.6221 267.504 55.6781 268.5 55.6781 270.024C55.6781 270.828 55.3301 271.632 54.8981 272.208C54.6821 272.508 54.4061 272.796 54.0821 273.096C53.4221 273.684 52.9541 273.996 52.2701 274.428L51.3461 275.004H55.9901V276H49.4501V275.184L51.2741 273.972C51.5981 273.768 51.8261 273.612 51.9581 273.516C52.0901 273.432 52.3061 273.276 52.5941 273.072C52.8821 272.868 53.0981 272.688 53.2421 272.556C53.3741 272.424 53.5541 272.256 53.7581 272.04C54.3101 271.44 54.5141 270.888 54.5741 270.132C54.5741 269.04 53.8661 268.548 52.8221 268.548C52.1741 268.548 51.6581 268.728 51.2861 269.088C50.9141 269.448 50.6621 269.88 50.5541 270.372ZM57.7698 270.048L56.8698 269.64C57.3138 268.344 58.4778 267.492 60.2178 267.492C61.0458 267.492 61.7298 267.684 62.2578 268.068C62.7858 268.452 63.0498 268.968 63.0498 269.604C63.0498 270.576 62.5338 271.296 61.5738 271.572C62.4978 271.632 63.2418 272.328 63.2418 273.576C63.2418 274.368 62.9538 274.992 62.3778 275.436C61.8018 275.88 61.0698 276.108 60.1698 276.108C58.3338 276.108 57.0618 275.232 56.6418 273.852L57.6138 273.432C58.1298 274.524 59.0058 275.076 60.2418 275.076C61.4058 275.076 62.1378 274.536 62.1378 273.588C62.1378 272.664 61.4178 272.196 59.9778 272.196H59.0418V271.2H59.7858C61.0938 271.2 61.9458 270.612 61.9458 269.808C61.9458 268.98 61.2618 268.512 60.1698 268.512C58.8858 268.512 58.1058 269.172 57.7698 270.048Z" fill="#76848D"/>
<path d="M105.563 267.684H114.119V268.632H105.563V267.684ZM104.555 274.752H115.127V275.724H104.555V274.752ZM119.111 272.328H124.727V270.312H119.243C119.243 270.936 119.207 271.62 119.111 272.328ZM124.727 267.468H119.243V269.46H124.727V267.468ZM125.651 266.592V275.616C125.651 276.24 125.471 276.552 125.027 276.696C124.571 276.852 123.779 276.864 122.495 276.864C122.435 276.612 122.267 276.192 122.123 275.94C123.119 275.976 124.079 275.964 124.355 275.964C124.631 275.952 124.727 275.868 124.727 275.604V273.204H118.967C118.667 274.56 118.067 275.916 116.903 276.936C116.783 276.744 116.423 276.42 116.243 276.288C118.151 274.608 118.343 272.172 118.343 270.264V266.592H125.651ZM131.819 273.156H128.747V272.232H131.819V273.156ZM134.221 270.372L133.345 270.06C133.645 268.572 134.773 267.504 136.561 267.504C138.289 267.504 139.345 268.5 139.345 270.024C139.345 270.828 138.997 271.632 138.565 272.208C138.349 272.508 138.073 272.796 137.749 273.096C137.089 273.684 136.621 273.996 135.937 274.428L135.013 275.004H139.657V276H133.117V275.184L134.941 273.972C135.265 273.768 135.493 273.612 135.625 273.516C135.757 273.432 135.973 273.276 136.261 273.072C136.549 272.868 136.765 272.688 136.909 272.556C137.041 272.424 137.221 272.256 137.425 272.04C137.977 271.44 138.181 270.888 138.241 270.132C138.241 269.04 137.533 268.548 136.489 268.548C135.841 268.548 135.325 268.728 134.953 269.088C134.581 269.448 134.329 269.88 134.221 270.372ZM141.437 270.048L140.537 269.64C140.981 268.344 142.145 267.492 143.885 267.492C144.713 267.492 145.397 267.684 145.925 268.068C146.453 268.452 146.717 268.968 146.717 269.604C146.717 270.576 146.201 271.296 145.241 271.572C146.165 271.632 146.909 272.328 146.909 273.576C146.909 274.368 146.621 274.992 146.045 275.436C145.469 275.88 144.737 276.108 143.837 276.108C142.001 276.108 140.729 275.232 140.309 273.852L141.281 273.432C141.797 274.524 142.673 275.076 143.909 275.076C145.073 275.076 145.805 274.536 145.805 273.588C145.805 272.664 145.085 272.196 143.645 272.196H142.709V271.2H143.453C144.761 271.2 145.613 270.612 145.613 269.808C145.613 268.98 144.929 268.512 143.837 268.512C142.553 268.512 141.773 269.172 141.437 270.048Z" fill="#76848D"/>
<path d="M189.013 267.12H198.013V268.008H189.013V267.12ZM189.781 271.008H197.077V271.908H189.781V271.008ZM188.329 275.148H198.661V276.048H188.329V275.148ZM202.777 272.328H208.393V270.312H202.909C202.909 270.936 202.873 271.62 202.777 272.328ZM208.393 267.468H202.909V269.46H208.393V267.468ZM209.317 266.592V275.616C209.317 276.24 209.137 276.552 208.693 276.696C208.237 276.852 207.445 276.864 206.161 276.864C206.101 276.612 205.933 276.192 205.789 275.94C206.785 275.976 207.745 275.964 208.021 275.964C208.297 275.952 208.393 275.868 208.393 275.604V273.204H202.633C202.333 274.56 201.733 275.916 200.569 276.936C200.449 276.744 200.089 276.42 199.909 276.288C201.817 274.608 202.009 272.172 202.009 270.264V266.592H209.317ZM215.485 273.156H212.413V272.232H215.485V273.156ZM217.887 270.372L217.011 270.06C217.311 268.572 218.439 267.504 220.227 267.504C221.955 267.504 223.011 268.5 223.011 270.024C223.011 270.828 222.663 271.632 222.231 272.208C222.015 272.508 221.739 272.796 221.415 273.096C220.755 273.684 220.287 273.996 219.603 274.428L218.679 275.004H223.323V276H216.783V275.184L218.607 273.972C218.931 273.768 219.159 273.612 219.291 273.516C219.423 273.432 219.639 273.276 219.927 273.072C220.215 272.868 220.431 272.688 220.575 272.556C220.707 272.424 220.887 272.256 221.091 272.04C221.643 271.44 221.847 270.888 221.907 270.132C221.907 269.04 221.199 268.548 220.155 268.548C219.507 268.548 218.991 268.728 218.619 269.088C218.247 269.448 217.995 269.88 217.887 270.372ZM225.103 270.048L224.203 269.64C224.647 268.344 225.811 267.492 227.551 267.492C228.379 267.492 229.063 267.684 229.591 268.068C230.119 268.452 230.383 268.968 230.383 269.604C230.383 270.576 229.867 271.296 228.907 271.572C229.831 271.632 230.575 272.328 230.575 273.576C230.575 274.368 230.287 274.992 229.711 275.436C229.135 275.88 228.403 276.108 227.503 276.108C225.667 276.108 224.395 275.232 223.975 273.852L224.947 273.432C225.463 274.524 226.339 275.076 227.575 275.076C228.739 275.076 229.471 274.536 229.471 273.588C229.471 272.664 228.751 272.196 227.311 272.196H226.375V271.2H227.119C228.427 271.2 229.279 270.612 229.279 269.808C229.279 268.98 228.595 268.512 227.503 268.512C226.219 268.512 225.439 269.172 225.103 270.048Z" fill="#76848D"/>
<path d="M273.16 274.764H281.116V267.864H278.776V271.62C278.776 272.004 278.824 272.148 279.076 272.148H280.24C280.444 272.148 280.768 272.136 280.936 272.088C280.948 272.34 280.972 272.628 280.996 272.844C280.852 272.904 280.552 272.904 280.276 272.904H278.98C278.14 272.904 277.936 272.532 277.936 271.596V267.864H276.28C276.208 271.092 275.908 272.868 273.844 273.864C273.748 273.648 273.496 273.336 273.304 273.168C275.128 272.316 275.344 270.792 275.404 267.864H273.16V274.764ZM272.272 267H282.028V276.432H281.116V275.628H273.16V276.516H272.272V267ZM286.444 272.328H292.06V270.312H286.576C286.576 270.936 286.54 271.62 286.444 272.328ZM292.06 267.468H286.576V269.46H292.06V267.468ZM292.984 266.592V275.616C292.984 276.24 292.804 276.552 292.36 276.696C291.904 276.852 291.112 276.864 289.828 276.864C289.768 276.612 289.6 276.192 289.456 275.94C290.452 275.976 291.412 275.964 291.688 275.964C291.964 275.952 292.06 275.868 292.06 275.604V273.204H286.3C286 274.56 285.4 275.916 284.236 276.936C284.116 276.744 283.756 276.42 283.576 276.288C285.484 274.608 285.676 272.172 285.676 270.264V266.592H292.984ZM299.152 273.156H296.08V272.232H299.152V273.156ZM301.554 270.372L300.678 270.06C300.978 268.572 302.106 267.504 303.894 267.504C305.622 267.504 306.678 268.5 306.678 270.024C306.678 270.828 306.33 271.632 305.898 272.208C305.682 272.508 305.406 272.796 305.082 273.096C304.422 273.684 303.954 273.996 303.27 274.428L302.346 275.004H306.99V276H300.45V275.184L302.274 273.972C302.598 273.768 302.826 273.612 302.958 273.516C303.09 273.432 303.306 273.276 303.594 273.072C303.882 272.868 304.098 272.688 304.242 272.556C304.374 272.424 304.554 272.256 304.758 272.04C305.31 271.44 305.514 270.888 305.574 270.132C305.574 269.04 304.866 268.548 303.822 268.548C303.174 268.548 302.658 268.728 302.286 269.088C301.914 269.448 301.662 269.88 301.554 270.372ZM308.77 270.048L307.87 269.64C308.314 268.344 309.478 267.492 311.218 267.492C312.046 267.492 312.73 267.684 313.258 268.068C313.786 268.452 314.05 268.968 314.05 269.604C314.05 270.576 313.534 271.296 312.574 271.572C313.498 271.632 314.242 272.328 314.242 273.576C314.242 274.368 313.954 274.992 313.378 275.436C312.802 275.88 312.07 276.108 311.17 276.108C309.334 276.108 308.062 275.232 307.642 273.852L308.614 273.432C309.13 274.524 310.006 275.076 311.242 275.076C312.406 275.076 313.138 274.536 313.138 273.588C313.138 272.664 312.418 272.196 310.978 272.196H310.042V271.2H310.786C312.094 271.2 312.946 270.612 312.946 269.808C312.946 268.98 312.262 268.512 311.17 268.512C309.886 268.512 309.106 269.172 308.77 270.048Z" fill="#76848D"/>
<path d="M24.014 363.918C24.014 365.584 23.622 366.872 22.824 367.768C22.026 368.678 20.962 369.126 19.632 369.126C18.008 369.126 16.734 368.44 16.104 367.39L17.112 366.69C17.672 367.474 18.694 367.922 19.8 367.922C20.71 367.922 21.438 367.558 22.012 366.83C22.586 366.116 22.824 365.22 22.754 364.156C22.292 365.22 21.13 366.004 19.576 366.004C18.484 366.004 17.588 365.696 16.888 365.066C16.174 364.45 15.824 363.638 15.824 362.644C15.824 361.552 16.202 360.684 16.958 360.04C17.714 359.396 18.722 359.074 19.968 359.074C22.488 359.074 24.014 360.838 24.014 363.918ZM22.544 362.602C22.334 361.3 21.438 360.278 19.828 360.278C18.148 360.278 17.112 361.146 17.112 362.602C17.112 363.988 18.162 364.8 19.8 364.8C20.542 364.8 21.172 364.576 21.662 364.128C22.152 363.68 22.446 363.176 22.544 362.602ZM25.1619 368.202C25.1619 367.81 25.5259 367.418 26.0299 367.418C26.4919 367.418 26.8699 367.81 26.8699 368.202C26.8699 368.65 26.5199 369.028 26.0299 369.028C25.5259 369.028 25.1619 368.65 25.1619 368.202ZM28.0274 364.366C28.0274 362.672 28.4474 361.37 29.2734 360.446C30.0994 359.536 31.1354 359.074 32.3814 359.074C34.0194 359.074 35.3074 359.816 35.8534 360.992L34.9014 361.636C34.3274 360.726 33.4734 360.278 32.3254 360.278C31.4574 360.278 30.7294 360.614 30.1414 361.286C29.5534 361.972 29.2594 362.896 29.2734 364.086C29.8194 363.064 31.0934 362.448 32.4934 362.448C33.6274 362.448 34.5374 362.742 35.1954 363.344C35.8534 363.946 36.1894 364.744 36.1894 365.724C36.1894 366.718 35.8254 367.544 35.0834 368.174C34.3414 368.804 33.4174 369.126 32.3114 369.126C29.6654 369.126 28.0274 367.404 28.0274 364.366ZM29.4274 365.556C29.6934 366.942 30.7434 367.922 32.2974 367.922C33.0534 367.922 33.6834 367.726 34.1734 367.32C34.6634 366.928 34.9014 366.41 34.9014 365.78C34.9014 364.394 33.9214 363.652 32.4234 363.652C31.5974 363.652 30.9114 363.848 30.3794 364.24C29.8334 364.632 29.5254 365.066 29.4274 365.556Z" fill="#1A3341"/>
<path d="M10 380.667C10 379.746 10.7462 379 11.6667 379H40.3333C41.2538 379 42 379.746 42 380.667V475H10V380.667Z" fill="url(#paint25_linear_7005_27934)"/>
<path opacity="0.2" d="M20 379H32V475H20V379Z" fill="url(#paint26_linear_7005_27934)"/>
<path opacity="0.04" d="M32 379H40.3333C41.2538 379 42 379.746 42 380.666V475H32V379Z" fill="#0D262C"/>
<path opacity="0.5" d="M10 380.667C10 379.746 10.7462 379 11.6667 379H20V475H10V380.667Z" fill="url(#paint27_linear_7005_27934)"/>
<path d="M94.3084 354.804L93.8604 353.754L97.2204 352.144H98.0184V362H96.8144V353.642L94.3084 354.804ZM99.8038 357.1C99.8038 355.588 100.154 354.37 100.868 353.46C101.568 352.55 102.604 352.088 103.962 352.088C106.748 352.088 108.134 353.922 108.134 357.1C108.134 358.626 107.784 359.83 107.098 360.74C106.398 361.65 105.362 362.112 103.99 362.112C102.674 362.112 101.652 361.65 100.91 360.726C100.168 359.802 99.8038 358.598 99.8038 357.1ZM101.092 357.1C101.092 359.494 102.184 360.922 103.99 360.922C105.894 360.922 106.846 359.648 106.846 357.1C106.846 354.552 105.88 353.278 103.962 353.278C102.016 353.278 101.092 354.678 101.092 357.1ZM109.277 361.202C109.277 360.81 109.641 360.418 110.145 360.418C110.607 360.418 110.985 360.81 110.985 361.202C110.985 361.65 110.635 362.028 110.145 362.028C109.641 362.028 109.277 361.65 109.277 361.202ZM113.109 355.056L112.059 354.58C112.577 353.068 113.935 352.074 115.965 352.074C116.931 352.074 117.729 352.298 118.345 352.746C118.961 353.194 119.269 353.796 119.269 354.538C119.269 355.672 118.667 356.512 117.547 356.834C118.625 356.904 119.493 357.716 119.493 359.172C119.493 360.096 119.157 360.824 118.485 361.342C117.813 361.86 116.959 362.126 115.909 362.126C113.767 362.126 112.283 361.104 111.793 359.494L112.927 359.004C113.529 360.278 114.551 360.922 115.993 360.922C117.351 360.922 118.205 360.292 118.205 359.186C118.205 358.108 117.365 357.562 115.685 357.562H114.593V356.4H115.461C116.987 356.4 117.981 355.714 117.981 354.776C117.981 353.81 117.183 353.264 115.909 353.264C114.411 353.264 113.501 354.034 113.109 355.056Z" fill="#1A3341"/>
<path d="M91 373.667C91 372.746 91.7462 372 92.6667 372H121.333C122.254 372 123 372.746 123 373.667V475H91V373.667Z" fill="url(#paint28_linear_7005_27934)"/>
<path opacity="0.2" d="M101 372H113V475H101V372Z" fill="url(#paint29_linear_7005_27934)"/>
<path opacity="0.04" d="M113 372H121.333C122.254 372 123 372.746 123 373.666V475H113V372Z" fill="#0D262C"/>
<path opacity="0.5" d="M91 373.667C91 372.746 91.7462 372 92.6667 372H101V475H91V373.667Z" fill="url(#paint30_linear_7005_27934)"/>
<path d="M173.96 349.804L173.512 348.754L176.872 347.144H177.67V357H176.466V348.642L173.96 349.804ZM179.455 352.1C179.455 350.588 179.805 349.37 180.519 348.46C181.219 347.55 182.255 347.088 183.613 347.088C186.399 347.088 187.785 348.922 187.785 352.1C187.785 353.626 187.435 354.83 186.749 355.74C186.049 356.65 185.013 357.112 183.641 357.112C182.325 357.112 181.303 356.65 180.561 355.726C179.819 354.802 179.455 353.598 179.455 352.1ZM180.743 352.1C180.743 354.494 181.835 355.922 183.641 355.922C185.545 355.922 186.497 354.648 186.497 352.1C186.497 349.552 185.531 348.278 183.613 348.278C181.667 348.278 180.743 349.678 180.743 352.1ZM188.929 356.202C188.929 355.81 189.293 355.418 189.797 355.418C190.259 355.418 190.637 355.81 190.637 356.202C190.637 356.65 190.287 357.028 189.797 357.028C189.293 357.028 188.929 356.65 188.929 356.202ZM195.658 351.414H196.092C196.722 351.414 197.24 351.26 197.674 350.966C198.094 350.672 198.304 350.28 198.304 349.818C198.304 348.768 197.478 348.236 195.84 348.236C194.272 348.236 193.418 348.81 193.418 349.818C193.418 350.728 194.356 351.414 195.658 351.414ZM196.064 352.52H195.714C194.958 352.52 194.328 352.688 193.838 353.01C193.348 353.332 193.096 353.738 193.096 354.228C193.096 355.292 194.076 355.964 195.854 355.964C197.66 355.964 198.626 355.32 198.626 354.242C198.626 353.164 197.59 352.52 196.064 352.52ZM198.822 356.37C198.108 356.874 197.114 357.126 195.868 357.126C194.622 357.126 193.628 356.874 192.9 356.384C192.172 355.894 191.808 355.222 191.808 354.354C191.808 353.22 192.55 352.324 193.74 351.932C192.662 351.582 192.13 350.728 192.13 349.734C192.13 348.11 193.502 347.074 195.854 347.074C198.22 347.074 199.592 348.11 199.592 349.734C199.592 350.672 199.074 351.386 198.038 351.862C199.284 352.24 199.9 353.052 199.9 354.298C199.9 355.18 199.536 355.88 198.822 356.37Z" fill="#1A3341"/>
<path d="M171 368.667C171 367.746 171.746 367 172.667 367H201.333C202.254 367 203 367.746 203 368.667V475H171V368.667Z" fill="url(#paint31_linear_7005_27934)"/>
<path opacity="0.2" d="M181 367H193V475H181V367Z" fill="url(#paint32_linear_7005_27934)"/>
<path opacity="0.04" d="M193 367H201.333C202.254 367 203 367.746 203 368.666V475H193V367Z" fill="#0D262C"/>
<path opacity="0.5" d="M171 368.667C171 367.746 171.746 367 172.667 367H181V475H171V368.667Z" fill="url(#paint33_linear_7005_27934)"/>
<path d="M255.867 347.804L255.419 346.754L258.779 345.144H259.577V355H258.373V346.642L255.867 347.804ZM261.25 347.804L260.802 346.754L264.162 345.144H264.96V355H263.756V346.642L261.25 347.804ZM266.844 354.202C266.844 353.81 267.208 353.418 267.712 353.418C268.174 353.418 268.552 353.81 268.552 354.202C268.552 354.65 268.202 355.028 267.712 355.028C267.208 355.028 266.844 354.65 266.844 354.202ZM269.709 350.1C269.709 348.588 270.059 347.37 270.773 346.46C271.473 345.55 272.509 345.088 273.867 345.088C276.653 345.088 278.039 346.922 278.039 350.1C278.039 351.626 277.689 352.83 277.003 353.74C276.303 354.65 275.267 355.112 273.895 355.112C272.579 355.112 271.557 354.65 270.815 353.726C270.073 352.802 269.709 351.598 269.709 350.1ZM270.997 350.1C270.997 352.494 272.089 353.922 273.895 353.922C275.799 353.922 276.751 352.648 276.751 350.1C276.751 347.552 275.785 346.278 273.867 346.278C271.921 346.278 270.997 347.678 270.997 350.1Z" fill="#1A3341"/>
<path d="M251 366.667C251 365.746 251.746 365 252.667 365H281.333C282.254 365 283 365.746 283 366.667V475H251V366.667Z" fill="url(#paint34_linear_7005_27934)"/>
<path opacity="0.2" d="M261 365H273V475H261V365Z" fill="url(#paint35_linear_7005_27934)"/>
<path opacity="0.04" d="M273 365H281.333C282.254 365 283 365.746 283 366.666V475H273V365Z" fill="#0D262C"/>
<path opacity="0.5" d="M251 366.667C251 365.746 251.746 365 252.667 365H261V475H251V366.667Z" fill="url(#paint36_linear_7005_27934)"/>
<path d="M54.6639 322.804L54.2159 321.754L57.5759 320.144H58.3739V330H57.1699V321.642L54.6639 322.804ZM61.1253 323.056L60.0753 322.58C60.5933 321.068 61.9513 320.074 63.9813 320.074C64.9473 320.074 65.7453 320.298 66.3613 320.746C66.9773 321.194 67.2853 321.796 67.2853 322.538C67.2853 323.672 66.6833 324.512 65.5633 324.834C66.6413 324.904 67.5093 325.716 67.5093 327.172C67.5093 328.096 67.1733 328.824 66.5013 329.342C65.8293 329.86 64.9753 330.126 63.9253 330.126C61.7833 330.126 60.2993 329.104 59.8093 327.494L60.9433 327.004C61.5453 328.278 62.5673 328.922 64.0093 328.922C65.3673 328.922 66.2213 328.292 66.2213 327.186C66.2213 326.108 65.3813 325.562 63.7013 325.562H62.6093V324.4H63.4773C65.0033 324.4 65.9973 323.714 65.9973 322.776C65.9973 321.81 65.1993 321.264 63.9253 321.264C62.4273 321.264 61.5173 322.034 61.1253 323.056ZM68.7579 329.202C68.7579 328.81 69.1219 328.418 69.6259 328.418C70.0879 328.418 70.4659 328.81 70.4659 329.202C70.4659 329.65 70.1159 330.028 69.6259 330.028C69.1219 330.028 68.7579 329.65 68.7579 329.202ZM73.0514 325.492L72.0434 325.226L72.6174 320.2H78.7774V321.39H73.6954L73.3314 324.022C73.8214 323.658 74.5634 323.476 75.5574 323.476C76.7054 323.476 77.6014 323.784 78.2594 324.386C78.9034 325.002 79.2254 325.786 79.2254 326.752C79.2254 327.718 78.8614 328.53 78.1474 329.16C77.4194 329.804 76.5094 330.126 75.4314 330.126C73.5974 330.126 72.0714 329.258 71.4414 327.732L72.5614 327.256C72.9674 328.194 74.0174 328.936 75.4314 328.936C77.0414 328.936 77.9374 328.012 77.9374 326.794C77.9374 325.492 76.8874 324.652 75.2214 324.652C74.3254 324.652 73.5974 324.932 73.0514 325.492Z" fill="#1A3341"/>
<path d="M51 341.667C51 340.746 51.7462 340 52.6667 340H81.3333C82.2538 340 83 340.746 83 341.667V475H51V341.667Z" fill="url(#paint37_linear_7005_27934)"/>
<path opacity="0.2" d="M61 340H73V475H61V340Z" fill="url(#paint38_linear_7005_27934)"/>
<path opacity="0.04" d="M73 340H81.3333C82.2538 340 83 340.746 83 341.666V475H73V340Z" fill="#0D262C"/>
<path opacity="0.5" d="M51 341.667C51 340.746 51.7462 340 52.6667 340H61V475H51V341.667Z" fill="url(#paint39_linear_7005_27934)"/>
<path d="M134.431 329.804L133.983 328.754L137.343 327.144H138.141V337H136.937V328.642L134.431 329.804ZM141.047 330.434L140.025 330.07C140.375 328.334 141.691 327.088 143.777 327.088C145.793 327.088 147.025 328.25 147.025 330.028C147.025 330.966 146.619 331.904 146.115 332.576C145.863 332.926 145.541 333.262 145.163 333.612C144.393 334.298 143.847 334.662 143.049 335.166L141.971 335.838H147.389V337H139.759V336.048L141.887 334.634C142.265 334.396 142.531 334.214 142.685 334.102C142.839 334.004 143.091 333.822 143.427 333.584C143.763 333.346 144.015 333.136 144.183 332.982C144.337 332.828 144.547 332.632 144.785 332.38C145.429 331.68 145.667 331.036 145.737 330.154C145.737 328.88 144.911 328.306 143.693 328.306C142.937 328.306 142.335 328.516 141.901 328.936C141.467 329.356 141.173 329.86 141.047 330.434ZM148.457 336.202C148.457 335.81 148.821 335.418 149.325 335.418C149.787 335.418 150.165 335.81 150.165 336.202C150.165 336.65 149.815 337.028 149.325 337.028C148.821 337.028 148.457 336.65 148.457 336.202ZM155.187 331.414H155.621C156.251 331.414 156.769 331.26 157.203 330.966C157.623 330.672 157.833 330.28 157.833 329.818C157.833 328.768 157.007 328.236 155.369 328.236C153.801 328.236 152.947 328.81 152.947 329.818C152.947 330.728 153.885 331.414 155.187 331.414ZM155.593 332.52H155.243C154.487 332.52 153.857 332.688 153.367 333.01C152.877 333.332 152.625 333.738 152.625 334.228C152.625 335.292 153.605 335.964 155.383 335.964C157.189 335.964 158.155 335.32 158.155 334.242C158.155 333.164 157.119 332.52 155.593 332.52ZM158.351 336.37C157.637 336.874 156.643 337.126 155.397 337.126C154.151 337.126 153.157 336.874 152.429 336.384C151.701 335.894 151.337 335.222 151.337 334.354C151.337 333.22 152.079 332.324 153.269 331.932C152.191 331.582 151.659 330.728 151.659 329.734C151.659 328.11 153.031 327.074 155.383 327.074C157.749 327.074 159.121 328.11 159.121 329.734C159.121 330.672 158.603 331.386 157.567 331.862C158.813 332.24 159.429 333.052 159.429 334.298C159.429 335.18 159.065 335.88 158.351 336.37Z" fill="#1A3341"/>
<path d="M131 348.667C131 347.746 131.746 347 132.667 347H161.333C162.254 347 163 347.746 163 348.667V475H131V348.667Z" fill="url(#paint40_linear_7005_27934)"/>
<path opacity="0.2" d="M141 347H153V475H141V347Z" fill="url(#paint41_linear_7005_27934)"/>
<path opacity="0.04" d="M153 347H161.333C162.254 347 163 347.746 163 348.666V475H153V347Z" fill="#0D262C"/>
<path opacity="0.5" d="M131 348.667C131 347.746 131.746 347 132.667 347H141V475H131V348.667Z" fill="url(#paint42_linear_7005_27934)"/>
<path d="M221.065 376.414H221.499C222.129 376.414 222.647 376.26 223.081 375.966C223.501 375.672 223.711 375.28 223.711 374.818C223.711 373.768 222.885 373.236 221.247 373.236C219.679 373.236 218.825 373.81 218.825 374.818C218.825 375.728 219.763 376.414 221.065 376.414ZM221.471 377.52H221.121C220.365 377.52 219.735 377.688 219.245 378.01C218.755 378.332 218.503 378.738 218.503 379.228C218.503 380.292 219.483 380.964 221.261 380.964C223.067 380.964 224.033 380.32 224.033 379.242C224.033 378.164 222.997 377.52 221.471 377.52ZM224.229 381.37C223.515 381.874 222.521 382.126 221.275 382.126C220.029 382.126 219.035 381.874 218.307 381.384C217.579 380.894 217.215 380.222 217.215 379.354C217.215 378.22 217.957 377.324 219.147 376.932C218.069 376.582 217.537 375.728 217.537 374.734C217.537 373.11 218.909 372.074 221.261 372.074C223.627 372.074 224.999 373.11 224.999 374.734C224.999 375.672 224.481 376.386 223.445 376.862C224.691 377.24 225.307 378.052 225.307 379.298C225.307 380.18 224.943 380.88 224.229 381.37ZM226.497 381.202C226.497 380.81 226.861 380.418 227.365 380.418C227.827 380.418 228.205 380.81 228.205 381.202C228.205 381.65 227.855 382.028 227.365 382.028C226.861 382.028 226.497 381.65 226.497 381.202ZM230.328 375.056L229.278 374.58C229.796 373.068 231.154 372.074 233.184 372.074C234.15 372.074 234.948 372.298 235.564 372.746C236.18 373.194 236.488 373.796 236.488 374.538C236.488 375.672 235.886 376.512 234.766 376.834C235.844 376.904 236.712 377.716 236.712 379.172C236.712 380.096 236.376 380.824 235.704 381.342C235.032 381.86 234.178 382.126 233.128 382.126C230.986 382.126 229.502 381.104 229.012 379.494L230.146 379.004C230.748 380.278 231.77 380.922 233.212 380.922C234.57 380.922 235.424 380.292 235.424 379.186C235.424 378.108 234.584 377.562 232.904 377.562H231.812V376.4H232.68C234.206 376.4 235.2 375.714 235.2 374.776C235.2 373.81 234.402 373.264 233.128 373.264C231.63 373.264 230.72 374.034 230.328 375.056Z" fill="#1A3341"/>
<path d="M211 393.667C211 392.746 211.746 392 212.667 392H241.333C242.254 392 243 392.746 243 393.667V475H211V393.667Z" fill="url(#paint43_linear_7005_27934)"/>
<path opacity="0.2" d="M221 392H233V475H221V392Z" fill="url(#paint44_linear_7005_27934)"/>
<path opacity="0.04" d="M233 392H241.333C242.254 392 243 392.746 243 393.666V475H233V392Z" fill="#0D262C"/>
<path opacity="0.5" d="M211 393.667C211 392.746 211.746 392 212.667 392H221V475H211V393.667Z" fill="url(#paint45_linear_7005_27934)"/>
<path d="M296.339 345.804L295.891 344.754L299.251 343.144H300.049V353H298.845V344.642L296.339 345.804ZM301.722 345.804L301.274 344.754L304.634 343.144H305.432V353H304.228V344.642L301.722 345.804ZM307.316 352.202C307.316 351.81 307.68 351.418 308.184 351.418C308.646 351.418 309.024 351.81 309.024 352.202C309.024 352.65 308.674 353.028 308.184 353.028C307.68 353.028 307.316 352.65 307.316 352.202ZM311.301 346.434L310.279 346.07C310.629 344.334 311.945 343.088 314.031 343.088C316.047 343.088 317.279 344.25 317.279 346.028C317.279 346.966 316.873 347.904 316.369 348.576C316.117 348.926 315.795 349.262 315.417 349.612C314.647 350.298 314.101 350.662 313.303 351.166L312.225 351.838H317.643V353H310.013V352.048L312.141 350.634C312.519 350.396 312.785 350.214 312.939 350.102C313.093 350.004 313.345 349.822 313.681 349.584C314.017 349.346 314.269 349.136 314.437 348.982C314.591 348.828 314.801 348.632 315.039 348.38C315.683 347.68 315.921 347.036 315.991 346.154C315.991 344.88 315.165 344.306 313.947 344.306C313.191 344.306 312.589 344.516 312.155 344.936C311.721 345.356 311.427 345.86 311.301 346.434Z" fill="#1A3341"/>
<path d="M291 364.667C291 363.746 291.746 363 292.667 363H321.333C322.254 363 323 363.746 323 364.667V475H291V364.667Z" fill="url(#paint46_linear_7005_27934)"/>
<path opacity="0.2" d="M301 363H313V475H301V363Z" fill="url(#paint47_linear_7005_27934)"/>
<path opacity="0.04" d="M313 363H321.333C322.254 363 323 363.746 323 364.666V475H313V363Z" fill="#0D262C"/>
<path opacity="0.5" d="M291 364.667C291 363.746 291.746 363 292.667 363H301V475H291V364.667Z" fill="url(#paint48_linear_7005_27934)"/>
<path d="M28.496 490.464H25.484C25.256 491.892 25.004 493.296 24.776 494.388H28.124C28.256 493.116 28.4 491.58 28.496 490.464ZM29.048 494.388H31.484V495.264H20.888V494.388H23.804C24.044 493.296 24.296 491.892 24.536 490.464H22.304V489.588H24.68C24.824 488.7 24.956 487.812 25.064 487.008H21.644V486.132H30.62V487.008H26.012C25.892 487.812 25.76 488.712 25.616 489.588H28.64L28.796 489.54L29.48 489.612C29.396 490.932 29.228 492.828 29.048 494.388ZM35.444 491.328H41.06V489.312H35.576C35.576 489.936 35.54 490.62 35.444 491.328ZM41.06 486.468H35.576V488.46H41.06V486.468ZM41.984 485.592V494.616C41.984 495.24 41.804 495.552 41.36 495.696C40.904 495.852 40.112 495.864 38.828 495.864C38.768 495.612 38.6 495.192 38.456 494.94C39.452 494.976 40.412 494.964 40.688 494.964C40.964 494.952 41.06 494.868 41.06 494.604V492.204H35.3C35 493.56 34.4 494.916 33.236 495.936C33.116 495.744 32.756 495.42 32.576 495.288C34.484 493.608 34.676 491.172 34.676 489.264V485.592H41.984ZM48.152 492.156H45.08V491.232H48.152V492.156ZM50.5541 489.372L49.6781 489.06C49.9781 487.572 51.1061 486.504 52.8941 486.504C54.6221 486.504 55.6781 487.5 55.6781 489.024C55.6781 489.828 55.3301 490.632 54.8981 491.208C54.6821 491.508 54.4061 491.796 54.0821 492.096C53.4221 492.684 52.9541 492.996 52.2701 493.428L51.3461 494.004H55.9901V495H49.4501V494.184L51.2741 492.972C51.5981 492.768 51.8261 492.612 51.9581 492.516C52.0901 492.432 52.3061 492.276 52.5941 492.072C52.8821 491.868 53.0981 491.688 53.2421 491.556C53.3741 491.424 53.5541 491.256 53.7581 491.04C54.3101 490.44 54.5141 489.888 54.5741 489.132C54.5741 488.04 53.8661 487.548 52.8221 487.548C52.1741 487.548 51.6581 487.728 51.2861 488.088C50.9141 488.448 50.6621 488.88 50.5541 489.372ZM57.7698 489.048L56.8698 488.64C57.3138 487.344 58.4778 486.492 60.2178 486.492C61.0458 486.492 61.7298 486.684 62.2578 487.068C62.7858 487.452 63.0498 487.968 63.0498 488.604C63.0498 489.576 62.5338 490.296 61.5738 490.572C62.4978 490.632 63.2418 491.328 63.2418 492.576C63.2418 493.368 62.9538 493.992 62.3778 494.436C61.8018 494.88 61.0698 495.108 60.1698 495.108C58.3338 495.108 57.0618 494.232 56.6418 492.852L57.6138 492.432C58.1298 493.524 59.0058 494.076 60.2418 494.076C61.4058 494.076 62.1378 493.536 62.1378 492.588C62.1378 491.664 61.4178 491.196 59.9778 491.196H59.0418V490.2H59.7858C61.0938 490.2 61.9458 489.612 61.9458 488.808C61.9458 487.98 61.2618 487.512 60.1698 487.512C58.8858 487.512 58.1058 488.172 57.7698 489.048Z" fill="#76848D"/>
<path d="M104.567 488.124H115.139V489.036H104.567V488.124ZM107.555 490.416L108.527 490.728C107.651 492.576 106.391 494.556 105.287 495.84C105.083 495.672 104.651 495.372 104.399 495.216C105.551 494.028 106.763 492.156 107.555 490.416ZM111.083 490.716L111.911 490.32C113.027 491.88 114.491 494.004 115.199 495.252L114.299 495.768C113.639 494.508 112.199 492.324 111.083 490.716ZM108.731 485.328L109.631 485.016C110.051 485.808 110.555 486.864 110.795 487.476L109.835 487.848C109.607 487.224 109.127 486.132 108.731 485.328ZM119.111 491.328H124.727V489.312H119.243C119.243 489.936 119.207 490.62 119.111 491.328ZM124.727 486.468H119.243V488.46H124.727V486.468ZM125.651 485.592V494.616C125.651 495.24 125.471 495.552 125.027 495.696C124.571 495.852 123.779 495.864 122.495 495.864C122.435 495.612 122.267 495.192 122.123 494.94C123.119 494.976 124.079 494.964 124.355 494.964C124.631 494.952 124.727 494.868 124.727 494.604V492.204H118.967C118.667 493.56 118.067 494.916 116.903 495.936C116.783 495.744 116.423 495.42 116.243 495.288C118.151 493.608 118.343 491.172 118.343 489.264V485.592H125.651ZM131.819 492.156H128.747V491.232H131.819V492.156ZM134.221 489.372L133.345 489.06C133.645 487.572 134.773 486.504 136.561 486.504C138.289 486.504 139.345 487.5 139.345 489.024C139.345 489.828 138.997 490.632 138.565 491.208C138.349 491.508 138.073 491.796 137.749 492.096C137.089 492.684 136.621 492.996 135.937 493.428L135.013 494.004H139.657V495H133.117V494.184L134.941 492.972C135.265 492.768 135.493 492.612 135.625 492.516C135.757 492.432 135.973 492.276 136.261 492.072C136.549 491.868 136.765 491.688 136.909 491.556C137.041 491.424 137.221 491.256 137.425 491.04C137.977 490.44 138.181 489.888 138.241 489.132C138.241 488.04 137.533 487.548 136.489 487.548C135.841 487.548 135.325 487.728 134.953 488.088C134.581 488.448 134.329 488.88 134.221 489.372ZM141.437 489.048L140.537 488.64C140.981 487.344 142.145 486.492 143.885 486.492C144.713 486.492 145.397 486.684 145.925 487.068C146.453 487.452 146.717 487.968 146.717 488.604C146.717 489.576 146.201 490.296 145.241 490.572C146.165 490.632 146.909 491.328 146.909 492.576C146.909 493.368 146.621 493.992 146.045 494.436C145.469 494.88 144.737 495.108 143.837 495.108C142.001 495.108 140.729 494.232 140.309 492.852L141.281 492.432C141.797 493.524 142.673 494.076 143.909 494.076C145.073 494.076 145.805 493.536 145.805 492.588C145.805 491.664 145.085 491.196 143.645 491.196H142.709V490.2H143.453C144.761 490.2 145.613 489.612 145.613 488.808C145.613 487.98 144.929 487.512 143.837 487.512C142.553 487.512 141.773 488.172 141.437 489.048Z" fill="#76848D"/>
<path d="M193.537 494.616H196.609C197.401 494.616 197.521 494.208 197.641 492.432C197.869 492.6 198.289 492.78 198.541 492.852C198.385 494.82 198.097 495.492 196.633 495.492H193.501C192.025 495.492 191.581 495.12 191.581 493.704V490.068L188.281 490.596L188.137 489.708L191.581 489.156V485.172H192.517V489.012L198.757 488.004L198.901 488.904L192.517 489.912V493.716C192.517 494.448 192.685 494.616 193.537 494.616ZM202.777 491.328H208.393V489.312H202.909C202.909 489.936 202.873 490.62 202.777 491.328ZM208.393 486.468H202.909V488.46H208.393V486.468ZM209.317 485.592V494.616C209.317 495.24 209.137 495.552 208.693 495.696C208.237 495.852 207.445 495.864 206.161 495.864C206.101 495.612 205.933 495.192 205.789 494.94C206.785 494.976 207.745 494.964 208.021 494.964C208.297 494.952 208.393 494.868 208.393 494.604V492.204H202.633C202.333 493.56 201.733 494.916 200.569 495.936C200.449 495.744 200.089 495.42 199.909 495.288C201.817 493.608 202.009 491.172 202.009 489.264V485.592H209.317ZM215.485 492.156H212.413V491.232H215.485V492.156ZM217.887 489.372L217.011 489.06C217.311 487.572 218.439 486.504 220.227 486.504C221.955 486.504 223.011 487.5 223.011 489.024C223.011 489.828 222.663 490.632 222.231 491.208C222.015 491.508 221.739 491.796 221.415 492.096C220.755 492.684 220.287 492.996 219.603 493.428L218.679 494.004H223.323V495H216.783V494.184L218.607 492.972C218.931 492.768 219.159 492.612 219.291 492.516C219.423 492.432 219.639 492.276 219.927 492.072C220.215 491.868 220.431 491.688 220.575 491.556C220.707 491.424 220.887 491.256 221.091 491.04C221.643 490.44 221.847 489.888 221.907 489.132C221.907 488.04 221.199 487.548 220.155 487.548C219.507 487.548 218.991 487.728 218.619 488.088C218.247 488.448 217.995 488.88 217.887 489.372ZM225.103 489.048L224.203 488.64C224.647 487.344 225.811 486.492 227.551 486.492C228.379 486.492 229.063 486.684 229.591 487.068C230.119 487.452 230.383 487.968 230.383 488.604C230.383 489.576 229.867 490.296 228.907 490.572C229.831 490.632 230.575 491.328 230.575 492.576C230.575 493.368 230.287 493.992 229.711 494.436C229.135 494.88 228.403 495.108 227.503 495.108C225.667 495.108 224.395 494.232 223.975 492.852L224.947 492.432C225.463 493.524 226.339 494.076 227.575 494.076C228.739 494.076 229.471 493.536 229.471 492.588C229.471 491.664 228.751 491.196 227.311 491.196H226.375V490.2H227.119C228.427 490.2 229.279 489.612 229.279 488.808C229.279 487.98 228.595 487.512 227.503 487.512C226.219 487.512 225.439 488.172 225.103 489.048Z" fill="#76848D"/>
<path d="M274.852 486.132L275.812 486.204C275.488 489.72 274.852 493.68 272.236 495.864C272.104 495.672 271.792 495.36 271.612 495.192C274.06 493.164 274.612 489.42 274.852 486.132ZM279.076 485.856C279.112 486.732 279.4 492.648 282.808 495.24C282.496 495.408 282.22 495.624 282.04 495.852C278.584 493.116 278.272 486.9 278.2 485.916L279.076 485.856ZM286.444 491.328H292.06V489.312H286.576C286.576 489.936 286.54 490.62 286.444 491.328ZM292.06 486.468H286.576V488.46H292.06V486.468ZM292.984 485.592V494.616C292.984 495.24 292.804 495.552 292.36 495.696C291.904 495.852 291.112 495.864 289.828 495.864C289.768 495.612 289.6 495.192 289.456 494.94C290.452 494.976 291.412 494.964 291.688 494.964C291.964 494.952 292.06 494.868 292.06 494.604V492.204H286.3C286 493.56 285.4 494.916 284.236 495.936C284.116 495.744 283.756 495.42 283.576 495.288C285.484 493.608 285.676 491.172 285.676 489.264V485.592H292.984ZM299.152 492.156H296.08V491.232H299.152V492.156ZM301.554 489.372L300.678 489.06C300.978 487.572 302.106 486.504 303.894 486.504C305.622 486.504 306.678 487.5 306.678 489.024C306.678 489.828 306.33 490.632 305.898 491.208C305.682 491.508 305.406 491.796 305.082 492.096C304.422 492.684 303.954 492.996 303.27 493.428L302.346 494.004H306.99V495H300.45V494.184L302.274 492.972C302.598 492.768 302.826 492.612 302.958 492.516C303.09 492.432 303.306 492.276 303.594 492.072C303.882 491.868 304.098 491.688 304.242 491.556C304.374 491.424 304.554 491.256 304.758 491.04C305.31 490.44 305.514 489.888 305.574 489.132C305.574 488.04 304.866 487.548 303.822 487.548C303.174 487.548 302.658 487.728 302.286 488.088C301.914 488.448 301.662 488.88 301.554 489.372ZM308.77 489.048L307.87 488.64C308.314 487.344 309.478 486.492 311.218 486.492C312.046 486.492 312.73 486.684 313.258 487.068C313.786 487.452 314.05 487.968 314.05 488.604C314.05 489.576 313.534 490.296 312.574 490.572C313.498 490.632 314.242 491.328 314.242 492.576C314.242 493.368 313.954 493.992 313.378 494.436C312.802 494.88 312.07 495.108 311.17 495.108C309.334 495.108 308.062 494.232 307.642 492.852L308.614 492.432C309.13 493.524 310.006 494.076 311.242 494.076C312.406 494.076 313.138 493.536 313.138 492.588C313.138 491.664 312.418 491.196 310.978 491.196H310.042V490.2H310.786C312.094 490.2 312.946 489.612 312.946 488.808C312.946 487.98 312.262 487.512 311.17 487.512C309.886 487.512 309.106 488.172 308.77 489.048Z" fill="#76848D"/>
<line x1="-4.37114e-08" y1="474.5" x2="335" y2="474.5" stroke="#ABBEC9"/>
<path d="M14.8143 559.804L14.3663 558.754L17.7263 557.144H18.5243V567H17.3203V558.642L14.8143 559.804ZM21.4297 560.434L20.4077 560.07C20.7577 558.334 22.0737 557.088 24.1597 557.088C26.1757 557.088 27.4077 558.25 27.4077 560.028C27.4077 560.966 27.0017 561.904 26.4977 562.576C26.2457 562.926 25.9237 563.262 25.5457 563.612C24.7757 564.298 24.2297 564.662 23.4317 565.166L22.3537 565.838H27.7717V567H20.1417V566.048L22.2697 564.634C22.6477 564.396 22.9137 564.214 23.0677 564.102C23.2217 564.004 23.4737 563.822 23.8097 563.584C24.1457 563.346 24.3977 563.136 24.5657 562.982C24.7197 562.828 24.9297 562.632 25.1677 562.38C25.8117 561.68 26.0497 561.036 26.1197 560.154C26.1197 558.88 25.2937 558.306 24.0757 558.306C23.3197 558.306 22.7177 558.516 22.2837 558.936C21.8497 559.356 21.5557 559.86 21.4297 560.434ZM28.84 566.202C28.84 565.81 29.204 565.418 29.708 565.418C30.17 565.418 30.548 565.81 30.548 566.202C30.548 566.65 30.198 567.028 29.708 567.028C29.204 567.028 28.84 566.65 28.84 566.202ZM32.8255 560.434L31.8035 560.07C32.1535 558.334 33.4695 557.088 35.5555 557.088C37.5715 557.088 38.8035 558.25 38.8035 560.028C38.8035 560.966 38.3975 561.904 37.8935 562.576C37.6415 562.926 37.3195 563.262 36.9415 563.612C36.1715 564.298 35.6255 564.662 34.8275 565.166L33.7495 565.838H39.1675V567H31.5375V566.048L33.6655 564.634C34.0435 564.396 34.3095 564.214 34.4635 564.102C34.6175 564.004 34.8695 563.822 35.2055 563.584C35.5415 563.346 35.7935 563.136 35.9615 562.982C36.1155 562.828 36.3255 562.632 36.5635 562.38C37.2075 561.68 37.4455 561.036 37.5155 560.154C37.5155 558.88 36.6895 558.306 35.4715 558.306C34.7155 558.306 34.1135 558.516 33.6795 558.936C33.2455 559.356 32.9515 559.86 32.8255 560.434Z" fill="#1A3341"/>
<path d="M11 578.667C11 577.746 11.7462 577 12.6667 577H41.3333C42.2538 577 43 577.746 43 578.667V699H11V578.667Z" fill="url(#paint49_linear_7005_27934)"/>
<path opacity="0.2" d="M21 577H33V699H21V577Z" fill="url(#paint50_linear_7005_27934)"/>
<path opacity="0.04" d="M33 577H41.3333C42.2538 577 43 577.746 43 578.666V699H33V577Z" fill="#0D262C"/>
<path opacity="0.5" d="M11 578.667C11 577.746 11.7462 577 12.6667 577H21V699H11V578.667Z" fill="url(#paint51_linear_7005_27934)"/>
<path d="M95.1014 554.804L94.6534 553.754L98.0134 552.144H98.8114V562H97.6074V553.642L95.1014 554.804ZM101.717 555.434L100.695 555.07C101.045 553.334 102.361 552.088 104.447 552.088C106.463 552.088 107.695 553.25 107.695 555.028C107.695 555.966 107.289 556.904 106.785 557.576C106.533 557.926 106.211 558.262 105.833 558.612C105.063 559.298 104.517 559.662 103.719 560.166L102.641 560.838H108.059V562H100.429V561.048L102.557 559.634C102.935 559.396 103.201 559.214 103.355 559.102C103.509 559.004 103.761 558.822 104.097 558.584C104.433 558.346 104.685 558.136 104.853 557.982C105.007 557.828 105.217 557.632 105.455 557.38C106.099 556.68 106.337 556.036 106.407 555.154C106.407 553.88 105.581 553.306 104.363 553.306C103.607 553.306 103.005 553.516 102.571 553.936C102.137 554.356 101.843 554.86 101.717 555.434ZM109.127 561.202C109.127 560.81 109.491 560.418 109.995 560.418C110.457 560.418 110.835 560.81 110.835 561.202C110.835 561.65 110.485 562.028 109.995 562.028C109.491 562.028 109.127 561.65 109.127 561.202ZM117.607 553.39H111.671V552.2H119.105V552.998L114.233 562H112.903L117.607 553.39Z" fill="#1A3341"/>
<path d="M91 573.667C91 572.746 91.7462 572 92.6667 572H121.333C122.254 572 123 572.746 123 573.667V699H91V573.667Z" fill="url(#paint52_linear_7005_27934)"/>
<path opacity="0.2" d="M101 572H113V699H101V572Z" fill="url(#paint53_linear_7005_27934)"/>
<path opacity="0.04" d="M113 572H121.333C122.254 572 123 572.746 123 573.666V699H113V572Z" fill="#0D262C"/>
<path opacity="0.5" d="M91 573.667C91 572.746 91.7462 572 92.6667 572H101V699H91V573.667Z" fill="url(#paint54_linear_7005_27934)"/>
<path d="M174.226 576.804L173.778 575.754L177.138 574.144H177.936V584H176.732V575.642L174.226 576.804ZM179.722 579.1C179.722 577.588 180.072 576.37 180.786 575.46C181.486 574.55 182.522 574.088 183.88 574.088C186.666 574.088 188.052 575.922 188.052 579.1C188.052 580.626 187.702 581.83 187.016 582.74C186.316 583.65 185.28 584.112 183.908 584.112C182.592 584.112 181.57 583.65 180.828 582.726C180.086 581.802 179.722 580.598 179.722 579.1ZM181.01 579.1C181.01 581.494 182.102 582.922 183.908 582.922C185.812 582.922 186.764 581.648 186.764 579.1C186.764 576.552 185.798 575.278 183.88 575.278C181.934 575.278 181.01 576.678 181.01 579.1ZM189.195 583.202C189.195 582.81 189.559 582.418 190.063 582.418C190.525 582.418 190.903 582.81 190.903 583.202C190.903 583.65 190.553 584.028 190.063 584.028C189.559 584.028 189.195 583.65 189.195 583.202ZM193.489 579.492L192.481 579.226L193.055 574.2H199.215V575.39H194.133L193.769 578.022C194.259 577.658 195.001 577.476 195.995 577.476C197.143 577.476 198.039 577.784 198.697 578.386C199.341 579.002 199.663 579.786 199.663 580.752C199.663 581.718 199.299 582.53 198.585 583.16C197.857 583.804 196.947 584.126 195.869 584.126C194.035 584.126 192.509 583.258 191.879 581.732L192.999 581.256C193.405 582.194 194.455 582.936 195.869 582.936C197.479 582.936 198.375 582.012 198.375 580.794C198.375 579.492 197.325 578.652 195.659 578.652C194.763 578.652 194.035 578.932 193.489 579.492Z" fill="#1A3341"/>
<path d="M171 595.667C171 594.746 171.746 594 172.667 594H201.333C202.254 594 203 594.746 203 595.667V699H171V595.667Z" fill="url(#paint55_linear_7005_27934)"/>
<path opacity="0.2" d="M181 594H193V699H181V594Z" fill="url(#paint56_linear_7005_27934)"/>
<path opacity="0.04" d="M193 594H201.333C202.254 594 203 594.746 203 595.666V699H193V594Z" fill="#0D262C"/>
<path opacity="0.5" d="M171 595.667C171 594.746 171.746 594 172.667 594H181V699H171V595.667Z" fill="url(#paint57_linear_7005_27934)"/>
<path d="M254.343 579.804L253.895 578.754L257.255 577.144H258.053V587H256.849V578.642L254.343 579.804ZM259.838 582.1C259.838 580.588 260.188 579.37 260.902 578.46C261.602 577.55 262.638 577.088 263.996 577.088C266.782 577.088 268.168 578.922 268.168 582.1C268.168 583.626 267.818 584.83 267.132 585.74C266.432 586.65 265.396 587.112 264.024 587.112C262.708 587.112 261.686 586.65 260.944 585.726C260.202 584.802 259.838 583.598 259.838 582.1ZM261.126 582.1C261.126 584.494 262.218 585.922 264.024 585.922C265.928 585.922 266.88 584.648 266.88 582.1C266.88 579.552 265.914 578.278 263.996 578.278C262.05 578.278 261.126 579.678 261.126 582.1ZM269.312 586.202C269.312 585.81 269.676 585.418 270.18 585.418C270.642 585.418 271.02 585.81 271.02 586.202C271.02 586.65 270.67 587.028 270.18 587.028C269.676 587.028 269.312 586.65 269.312 586.202ZM273.297 580.434L272.275 580.07C272.625 578.334 273.941 577.088 276.027 577.088C278.043 577.088 279.275 578.25 279.275 580.028C279.275 580.966 278.869 581.904 278.365 582.576C278.113 582.926 277.791 583.262 277.413 583.612C276.643 584.298 276.097 584.662 275.299 585.166L274.221 585.838H279.639V587H272.009V586.048L274.137 584.634C274.515 584.396 274.781 584.214 274.935 584.102C275.089 584.004 275.341 583.822 275.677 583.584C276.013 583.346 276.265 583.136 276.433 582.982C276.587 582.828 276.797 582.632 277.035 582.38C277.679 581.68 277.917 581.036 277.987 580.154C277.987 578.88 277.161 578.306 275.943 578.306C275.187 578.306 274.585 578.516 274.151 578.936C273.717 579.356 273.423 579.86 273.297 580.434Z" fill="#1A3341"/>
<path d="M251 598.667C251 597.746 251.746 597 252.667 597H281.333C282.254 597 283 597.746 283 598.667V699H251V598.667Z" fill="url(#paint58_linear_7005_27934)"/>
<path opacity="0.2" d="M261 597H273V699H261V597Z" fill="url(#paint59_linear_7005_27934)"/>
<path opacity="0.04" d="M273 597H281.333C282.254 597 283 597.746 283 598.666V699H273V597Z" fill="#0D262C"/>
<path opacity="0.5" d="M251 598.667C251 597.746 251.746 597 252.667 597H261V699H251V598.667Z" fill="url(#paint60_linear_7005_27934)"/>
<path d="M54.8143 559.804L54.3663 558.754L57.7263 557.144H58.5243V567H57.3203V558.642L54.8143 559.804ZM61.4297 560.434L60.4077 560.07C60.7577 558.334 62.0737 557.088 64.1597 557.088C66.1757 557.088 67.4077 558.25 67.4077 560.028C67.4077 560.966 67.0017 561.904 66.4977 562.576C66.2457 562.926 65.9237 563.262 65.5457 563.612C64.7757 564.298 64.2297 564.662 63.4317 565.166L62.3537 565.838H67.7717V567H60.1417V566.048L62.2697 564.634C62.6477 564.396 62.9137 564.214 63.0677 564.102C63.2217 564.004 63.4737 563.822 63.8097 563.584C64.1457 563.346 64.3977 563.136 64.5657 562.982C64.7197 562.828 64.9297 562.632 65.1677 562.38C65.8117 561.68 66.0497 561.036 66.1197 560.154C66.1197 558.88 65.2937 558.306 64.0757 558.306C63.3197 558.306 62.7177 558.516 62.2837 558.936C61.8497 559.356 61.5557 559.86 61.4297 560.434ZM68.84 566.202C68.84 565.81 69.204 565.418 69.708 565.418C70.17 565.418 70.548 565.81 70.548 566.202C70.548 566.65 70.198 567.028 69.708 567.028C69.204 567.028 68.84 566.65 68.84 566.202ZM72.8255 560.434L71.8035 560.07C72.1535 558.334 73.4695 557.088 75.5555 557.088C77.5715 557.088 78.8035 558.25 78.8035 560.028C78.8035 560.966 78.3975 561.904 77.8935 562.576C77.6415 562.926 77.3195 563.262 76.9415 563.612C76.1715 564.298 75.6255 564.662 74.8275 565.166L73.7495 565.838H79.1675V567H71.5375V566.048L73.6655 564.634C74.0435 564.396 74.3095 564.214 74.4635 564.102C74.6175 564.004 74.8695 563.822 75.2055 563.584C75.5415 563.346 75.7935 563.136 75.9615 562.982C76.1155 562.828 76.3255 562.632 76.5635 562.38C77.2075 561.68 77.4455 561.036 77.5155 560.154C77.5155 558.88 76.6895 558.306 75.4715 558.306C74.7155 558.306 74.1135 558.516 73.6795 558.936C73.2455 559.356 72.9515 559.86 72.8255 560.434Z" fill="#1A3341"/>
<path d="M51 578.667C51 577.746 51.7462 577 52.6667 577H81.3333C82.2538 577 83 577.746 83 578.667V699H51V578.667Z" fill="url(#paint61_linear_7005_27934)"/>
<path opacity="0.2" d="M61 577H73V699H61V577Z" fill="url(#paint62_linear_7005_27934)"/>
<path opacity="0.04" d="M73 577H81.3333C82.2538 577 83 577.746 83 578.666V699H73V577Z" fill="#0D262C"/>
<path opacity="0.5" d="M51 578.667C51 577.746 51.7462 577 52.6667 577H61V699H51V578.667Z" fill="url(#paint63_linear_7005_27934)"/>
<path d="M134.281 527.804L133.833 526.754L137.193 525.144H137.991V535H136.787V526.642L134.281 527.804ZM141.204 530.492L140.196 530.226L140.77 525.2H146.93V526.39H141.848L141.484 529.022C141.974 528.658 142.716 528.476 143.71 528.476C144.858 528.476 145.754 528.784 146.412 529.386C147.056 530.002 147.378 530.786 147.378 531.752C147.378 532.718 147.014 533.53 146.3 534.16C145.572 534.804 144.662 535.126 143.584 535.126C141.75 535.126 140.224 534.258 139.594 532.732L140.714 532.256C141.12 533.194 142.17 533.936 143.584 533.936C145.194 533.936 146.09 533.012 146.09 531.794C146.09 530.492 145.04 529.652 143.374 529.652C142.478 529.652 141.75 529.932 141.204 530.492ZM148.539 534.202C148.539 533.81 148.903 533.418 149.407 533.418C149.869 533.418 150.247 533.81 150.247 534.202C150.247 534.65 149.897 535.028 149.407 535.028C148.903 535.028 148.539 534.65 148.539 534.202ZM158.167 535H156.949V532.998H150.957V532.186L157.089 525.2H158.167V531.864H159.987V532.998H158.167V535ZM156.949 527.16L152.637 531.864H156.949V527.16Z" fill="#1A3341"/>
<path d="M131 546.667C131 545.746 131.746 545 132.667 545H161.333C162.254 545 163 545.746 163 546.667V699H131V546.667Z" fill="url(#paint64_linear_7005_27934)"/>
<path opacity="0.2" d="M141 545H153V699H141V545Z" fill="url(#paint65_linear_7005_27934)"/>
<path opacity="0.04" d="M153 545H161.333C162.254 545 163 545.746 163 546.666V699H153V545Z" fill="#0D262C"/>
<path opacity="0.5" d="M131 546.667C131 545.746 131.746 545 132.667 545H141V699H131V546.667Z" fill="url(#paint66_linear_7005_27934)"/>
<path d="M214.363 547.804L213.915 546.754L217.275 545.144H218.073V555H216.869V546.642L214.363 547.804ZM220.825 548.056L219.775 547.58C220.293 546.068 221.651 545.074 223.681 545.074C224.647 545.074 225.445 545.298 226.061 545.746C226.677 546.194 226.985 546.796 226.985 547.538C226.985 548.672 226.383 549.512 225.263 549.834C226.341 549.904 227.209 550.716 227.209 552.172C227.209 553.096 226.873 553.824 226.201 554.342C225.529 554.86 224.675 555.126 223.625 555.126C221.483 555.126 219.999 554.104 219.509 552.494L220.643 552.004C221.245 553.278 222.267 553.922 223.709 553.922C225.067 553.922 225.921 553.292 225.921 552.186C225.921 551.108 225.081 550.562 223.401 550.562H222.309V549.4H223.177C224.703 549.4 225.697 548.714 225.697 547.776C225.697 546.81 224.899 546.264 223.625 546.264C222.127 546.264 221.217 547.034 220.825 548.056ZM228.457 554.202C228.457 553.81 228.821 553.418 229.325 553.418C229.787 553.418 230.165 553.81 230.165 554.202C230.165 554.65 229.815 555.028 229.325 555.028C228.821 555.028 228.457 554.65 228.457 554.202ZM238.085 555H236.867V552.998H230.875V552.186L237.007 545.2H238.085V551.864H239.905V552.998H238.085V555ZM236.867 547.16L232.555 551.864H236.867V547.16Z" fill="#1A3341"/>
<path d="M211 566.667C211 565.746 211.746 565 212.667 565H241.333C242.254 565 243 565.746 243 566.667V699H211V566.667Z" fill="url(#paint67_linear_7005_27934)"/>
<path opacity="0.2" d="M221 565H233V699H221V565Z" fill="url(#paint68_linear_7005_27934)"/>
<path opacity="0.04" d="M233 565H241.333C242.254 565 243 565.746 243 566.666V699H233V565Z" fill="#0D262C"/>
<path opacity="0.5" d="M211 566.667C211 565.746 211.746 565 212.667 565H221V699H211V566.667Z" fill="url(#paint69_linear_7005_27934)"/>
<path d="M296.626 564.804L296.178 563.754L299.538 562.144H300.336V572H299.132V563.642L296.626 564.804ZM302.009 564.804L301.561 563.754L304.921 562.144H305.719V572H304.515V563.642L302.009 564.804ZM307.603 571.202C307.603 570.81 307.967 570.418 308.471 570.418C308.933 570.418 309.311 570.81 309.311 571.202C309.311 571.65 308.961 572.028 308.471 572.028C307.967 572.028 307.603 571.65 307.603 571.202ZM316.082 563.39H310.146V562.2H317.58V562.998L312.708 572H311.378L316.082 563.39Z" fill="#1A3341"/>
<path d="M291 583.667C291 582.746 291.746 582 292.667 582H321.333C322.254 582 323 582.746 323 583.667V699H291V583.667Z" fill="url(#paint70_linear_7005_27934)"/>
<path opacity="0.2" d="M301 582H313V699H301V582Z" fill="url(#paint71_linear_7005_27934)"/>
<path opacity="0.04" d="M313 582H321.333C322.254 582 323 582.746 323 583.666V699H313V582Z" fill="#0D262C"/>
<path opacity="0.5" d="M291 583.667C291 582.746 291.746 582 292.667 582H301V699H291V583.667Z" fill="url(#paint72_linear_7005_27934)"/>
<path d="M29.348 718.868H30.572C30.908 718.868 30.968 718.58 31.004 717.14C31.208 717.32 31.592 717.464 31.832 717.536C31.748 719.204 31.52 719.744 30.632 719.744H29.216C28.292 719.744 28.004 719.456 28.004 718.364V712.904H25.256C25.004 715.904 24.164 718.448 21.272 719.912C21.152 719.696 20.852 719.372 20.612 719.204C23.324 717.92 24.104 715.628 24.332 712.904H21.164V712.016H24.392C24.428 711.08 24.428 710.096 24.428 709.088H25.376C25.364 710.084 25.364 711.068 25.316 712.016H28.544V712.028H28.904V718.376C28.904 718.796 28.964 718.868 29.348 718.868ZM35.444 715.328H41.06V713.312H35.576C35.576 713.936 35.54 714.62 35.444 715.328ZM41.06 710.468H35.576V712.46H41.06V710.468ZM41.984 709.592V718.616C41.984 719.24 41.804 719.552 41.36 719.696C40.904 719.852 40.112 719.864 38.828 719.864C38.768 719.612 38.6 719.192 38.456 718.94C39.452 718.976 40.412 718.964 40.688 718.964C40.964 718.952 41.06 718.868 41.06 718.604V716.204H35.3C35 717.56 34.4 718.916 33.236 719.936C33.116 719.744 32.756 719.42 32.576 719.288C34.484 717.608 34.676 715.172 34.676 713.264V709.592H41.984ZM48.152 716.156H45.08V715.232H48.152V716.156ZM50.5541 713.372L49.6781 713.06C49.9781 711.572 51.1061 710.504 52.8941 710.504C54.6221 710.504 55.6781 711.5 55.6781 713.024C55.6781 713.828 55.3301 714.632 54.8981 715.208C54.6821 715.508 54.4061 715.796 54.0821 716.096C53.4221 716.684 52.9541 716.996 52.2701 717.428L51.3461 718.004H55.9901V719H49.4501V718.184L51.2741 716.972C51.5981 716.768 51.8261 716.612 51.9581 716.516C52.0901 716.432 52.3061 716.276 52.5941 716.072C52.8821 715.868 53.0981 715.688 53.2421 715.556C53.3741 715.424 53.5541 715.256 53.7581 715.04C54.3101 714.44 54.5141 713.888 54.5741 713.132C54.5741 712.04 53.8661 711.548 52.8221 711.548C52.1741 711.548 51.6581 711.728 51.2861 712.088C50.9141 712.448 50.6621 712.88 50.5541 713.372ZM57.7698 713.048L56.8698 712.64C57.3138 711.344 58.4778 710.492 60.2178 710.492C61.0458 710.492 61.7298 710.684 62.2578 711.068C62.7858 711.452 63.0498 711.968 63.0498 712.604C63.0498 713.576 62.5338 714.296 61.5738 714.572C62.4978 714.632 63.2418 715.328 63.2418 716.576C63.2418 717.368 62.9538 717.992 62.3778 718.436C61.8018 718.88 61.0698 719.108 60.1698 719.108C58.3338 719.108 57.0618 718.232 56.6418 716.852L57.6138 716.432C58.1298 717.524 59.0058 718.076 60.2418 718.076C61.4058 718.076 62.1378 717.536 62.1378 716.588C62.1378 715.664 61.4178 715.196 59.9778 715.196H59.0418V714.2H59.7858C61.0938 714.2 61.9458 713.612 61.9458 712.808C61.9458 711.98 61.2618 711.512 60.1698 711.512C58.8858 711.512 58.1058 712.172 57.7698 713.048Z" fill="#76848D"/>
<path d="M107.223 713.42V714.332H102.327V719.912H101.379V714.332H96.5427V713.42H101.379V708.98H102.327V713.42H107.223ZM111.111 715.328H116.727V713.312H111.243C111.243 713.936 111.207 714.62 111.111 715.328ZM116.727 710.468H111.243V712.46H116.727V710.468ZM117.651 709.592V718.616C117.651 719.24 117.471 719.552 117.027 719.696C116.571 719.852 115.779 719.864 114.495 719.864C114.435 719.612 114.267 719.192 114.123 718.94C115.119 718.976 116.079 718.964 116.355 718.964C116.631 718.952 116.727 718.868 116.727 718.604V716.204H110.967C110.667 717.56 110.067 718.916 108.903 719.936C108.783 719.744 108.423 719.42 108.243 719.288C110.151 717.608 110.343 715.172 110.343 713.264V709.592H117.651ZM123.819 716.156H120.747V715.232H123.819V716.156ZM126.221 713.372L125.345 713.06C125.645 711.572 126.773 710.504 128.561 710.504C130.289 710.504 131.345 711.5 131.345 713.024C131.345 713.828 130.997 714.632 130.565 715.208C130.349 715.508 130.073 715.796 129.749 716.096C129.089 716.684 128.621 716.996 127.937 717.428L127.013 718.004H131.657V719H125.117V718.184L126.941 716.972C127.265 716.768 127.493 716.612 127.625 716.516C127.757 716.432 127.973 716.276 128.261 716.072C128.549 715.868 128.765 715.688 128.909 715.556C129.041 715.424 129.221 715.256 129.425 715.04C129.977 714.44 130.181 713.888 130.241 713.132C130.241 712.04 129.533 711.548 128.489 711.548C127.841 711.548 127.325 711.728 126.953 712.088C126.581 712.448 126.329 712.88 126.221 713.372ZM133.437 713.048L132.537 712.64C132.981 711.344 134.145 710.492 135.885 710.492C136.713 710.492 137.397 710.684 137.925 711.068C138.453 711.452 138.717 711.968 138.717 712.604C138.717 713.576 138.201 714.296 137.241 714.572C138.165 714.632 138.909 715.328 138.909 716.576C138.909 717.368 138.621 717.992 138.045 718.436C137.469 718.88 136.737 719.108 135.837 719.108C134.001 719.108 132.729 718.232 132.309 716.852L133.281 716.432C133.797 717.524 134.673 718.076 135.909 718.076C137.073 718.076 137.805 717.536 137.805 716.588C137.805 715.664 137.085 715.196 135.645 715.196H134.709V714.2H135.453C136.761 714.2 137.613 713.612 137.613 712.808C137.613 711.98 136.929 711.512 135.837 711.512C134.553 711.512 133.773 712.172 133.437 713.048Z" fill="#76848D"/>
<path d="M182.889 713.42V714.332H177.993V719.912H177.045V714.332H172.209V713.42H177.045V708.98H177.993V713.42H182.889ZM184.077 713.84H194.973V714.812H184.077V713.84ZM198.777 715.328H204.393V713.312H198.909C198.909 713.936 198.873 714.62 198.777 715.328ZM204.393 710.468H198.909V712.46H204.393V710.468ZM205.317 709.592V718.616C205.317 719.24 205.137 719.552 204.693 719.696C204.237 719.852 203.445 719.864 202.161 719.864C202.101 719.612 201.933 719.192 201.789 718.94C202.785 718.976 203.745 718.964 204.021 718.964C204.297 718.952 204.393 718.868 204.393 718.604V716.204H198.633C198.333 717.56 197.733 718.916 196.569 719.936C196.449 719.744 196.089 719.42 195.909 719.288C197.817 717.608 198.009 715.172 198.009 713.264V709.592H205.317ZM211.485 716.156H208.413V715.232H211.485V716.156ZM213.887 713.372L213.011 713.06C213.311 711.572 214.439 710.504 216.227 710.504C217.955 710.504 219.011 711.5 219.011 713.024C219.011 713.828 218.663 714.632 218.231 715.208C218.015 715.508 217.739 715.796 217.415 716.096C216.755 716.684 216.287 716.996 215.603 717.428L214.679 718.004H219.323V719H212.783V718.184L214.607 716.972C214.931 716.768 215.159 716.612 215.291 716.516C215.423 716.432 215.639 716.276 215.927 716.072C216.215 715.868 216.431 715.688 216.575 715.556C216.707 715.424 216.887 715.256 217.091 715.04C217.643 714.44 217.847 713.888 217.907 713.132C217.907 712.04 217.199 711.548 216.155 711.548C215.507 711.548 214.991 711.728 214.619 712.088C214.247 712.448 213.995 712.88 213.887 713.372ZM221.103 713.048L220.203 712.64C220.647 711.344 221.811 710.492 223.551 710.492C224.379 710.492 225.063 710.684 225.591 711.068C226.119 711.452 226.383 711.968 226.383 712.604C226.383 713.576 225.867 714.296 224.907 714.572C225.831 714.632 226.575 715.328 226.575 716.576C226.575 717.368 226.287 717.992 225.711 718.436C225.135 718.88 224.403 719.108 223.503 719.108C221.667 719.108 220.395 718.232 219.975 716.852L220.947 716.432C221.463 717.524 222.339 718.076 223.575 718.076C224.739 718.076 225.471 717.536 225.471 716.588C225.471 715.664 224.751 715.196 223.311 715.196H222.375V714.2H223.119C224.427 714.2 225.279 713.612 225.279 712.808C225.279 711.98 224.595 711.512 223.503 711.512C222.219 711.512 221.439 712.172 221.103 713.048Z" fill="#76848D"/>
<path d="M270.556 713.42V714.332H265.66V719.912H264.712V714.332H259.876V713.42H264.712V708.98H265.66V713.42H270.556ZM272.896 710.684H281.452V711.632H272.896V710.684ZM271.888 717.752H282.46V718.724H271.888V717.752ZM286.444 715.328H292.06V713.312H286.576C286.576 713.936 286.54 714.62 286.444 715.328ZM292.06 710.468H286.576V712.46H292.06V710.468ZM292.984 709.592V718.616C292.984 719.24 292.804 719.552 292.36 719.696C291.904 719.852 291.112 719.864 289.828 719.864C289.768 719.612 289.6 719.192 289.456 718.94C290.452 718.976 291.412 718.964 291.688 718.964C291.964 718.952 292.06 718.868 292.06 718.604V716.204H286.3C286 717.56 285.4 718.916 284.236 719.936C284.116 719.744 283.756 719.42 283.576 719.288C285.484 717.608 285.676 715.172 285.676 713.264V709.592H292.984ZM299.152 716.156H296.08V715.232H299.152V716.156ZM301.554 713.372L300.678 713.06C300.978 711.572 302.106 710.504 303.894 710.504C305.622 710.504 306.678 711.5 306.678 713.024C306.678 713.828 306.33 714.632 305.898 715.208C305.682 715.508 305.406 715.796 305.082 716.096C304.422 716.684 303.954 716.996 303.27 717.428L302.346 718.004H306.99V719H300.45V718.184L302.274 716.972C302.598 716.768 302.826 716.612 302.958 716.516C303.09 716.432 303.306 716.276 303.594 716.072C303.882 715.868 304.098 715.688 304.242 715.556C304.374 715.424 304.554 715.256 304.758 715.04C305.31 714.44 305.514 713.888 305.574 713.132C305.574 712.04 304.866 711.548 303.822 711.548C303.174 711.548 302.658 711.728 302.286 712.088C301.914 712.448 301.662 712.88 301.554 713.372ZM308.77 713.048L307.87 712.64C308.314 711.344 309.478 710.492 311.218 710.492C312.046 710.492 312.73 710.684 313.258 711.068C313.786 711.452 314.05 711.968 314.05 712.604C314.05 713.576 313.534 714.296 312.574 714.572C313.498 714.632 314.242 715.328 314.242 716.576C314.242 717.368 313.954 717.992 313.378 718.436C312.802 718.88 312.07 719.108 311.17 719.108C309.334 719.108 308.062 718.232 307.642 716.852L308.614 716.432C309.13 717.524 310.006 718.076 311.242 718.076C312.406 718.076 313.138 717.536 313.138 716.588C313.138 715.664 312.418 715.196 310.978 715.196H310.042V714.2H310.786C312.094 714.2 312.946 713.612 312.946 712.808C312.946 711.98 312.262 711.512 311.17 711.512C309.886 711.512 309.106 712.172 308.77 713.048Z" fill="#76848D"/>
<line x1="-4.37114e-08" y1="698.5" x2="335" y2="698.5" stroke="#ABBEC9"/>
<defs>
<linearGradient id="paint0_linear_7005_27934" x1="0.476191" y1="12" x2="10" y2="12" gradientUnits="userSpaceOnUse">
<stop stop-color="#CEE8EF"/>
<stop offset="1" stop-color="#CEE8EF"/>
</linearGradient>
<linearGradient id="paint1_linear_7005_27934" x1="27" y1="212" x2="27" y2="137" gradientUnits="userSpaceOnUse">
<stop stop-color="#CDE3E9"/>
<stop offset="1" stop-color="#D3E8ED"/>
</linearGradient>
<linearGradient id="paint2_linear_7005_27934" x1="27" y1="212" x2="27" y2="137" gradientUnits="userSpaceOnUse">
<stop stop-color="white" stop-opacity="0"/>
<stop offset="0.739583" stop-color="white"/>
</linearGradient>
<linearGradient id="paint3_linear_7005_27934" x1="16" y1="358.25" x2="16" y2="137" gradientUnits="userSpaceOnUse">
<stop stop-color="white" stop-opacity="0.05"/>
<stop offset="0.75" stop-color="white" stop-opacity="0.8"/>
</linearGradient>
<linearGradient id="paint4_linear_7005_27934" x1="103" y1="224" x2="103" y2="137" gradientUnits="userSpaceOnUse">
<stop stop-color="#CDE3E9"/>
<stop offset="1" stop-color="#D3E8ED"/>
</linearGradient>
<linearGradient id="paint5_linear_7005_27934" x1="103" y1="224" x2="103" y2="137" gradientUnits="userSpaceOnUse">
<stop stop-color="white" stop-opacity="0"/>
<stop offset="0.739583" stop-color="white"/>
</linearGradient>
<linearGradient id="paint6_linear_7005_27934" x1="92" y1="393.65" x2="92" y2="137" gradientUnits="userSpaceOnUse">
<stop stop-color="white" stop-opacity="0.05"/>
<stop offset="0.75" stop-color="white" stop-opacity="0.8"/>
</linearGradient>
<linearGradient id="paint7_linear_7005_27934" x1="187" y1="185" x2="187" y2="137" gradientUnits="userSpaceOnUse">
<stop stop-color="#CDE3E9"/>
<stop offset="1" stop-color="#D3E8ED"/>
</linearGradient>
<linearGradient id="paint8_linear_7005_27934" x1="187" y1="185" x2="187" y2="137" gradientUnits="userSpaceOnUse">
<stop stop-color="white" stop-opacity="0"/>
<stop offset="0.739583" stop-color="white"/>
</linearGradient>
<linearGradient id="paint9_linear_7005_27934" x1="176" y1="278.6" x2="176" y2="137" gradientUnits="userSpaceOnUse">
<stop stop-color="white" stop-opacity="0.05"/>
<stop offset="0.75" stop-color="white" stop-opacity="0.8"/>
</linearGradient>
<linearGradient id="paint10_linear_7005_27934" x1="267" y1="55" x2="267" y2="137" gradientUnits="userSpaceOnUse">
<stop stop-color="#CDE3E9"/>
<stop offset="1" stop-color="#D3E8ED"/>
</linearGradient>
<linearGradient id="paint11_linear_7005_27934" x1="267" y1="54.9998" x2="267" y2="137" gradientUnits="userSpaceOnUse">
<stop stop-color="white" stop-opacity="0"/>
<stop offset="0.739583" stop-color="white"/>
</linearGradient>
<linearGradient id="paint12_linear_7005_27934" x1="256" y1="-104.9" x2="256" y2="137" gradientUnits="userSpaceOnUse">
<stop stop-color="white" stop-opacity="0.05"/>
<stop offset="0.75" stop-color="white" stop-opacity="0.8"/>
</linearGradient>
<linearGradient id="paint13_linear_7005_27934" x1="67" y1="168" x2="67" y2="137" gradientUnits="userSpaceOnUse">
<stop stop-color="#6D73F9"/>
<stop offset="1" stop-color="#9BB8F1"/>
</linearGradient>
<linearGradient id="paint14_linear_7005_27934" x1="67" y1="168" x2="67" y2="137" gradientUnits="userSpaceOnUse">
<stop stop-color="white" stop-opacity="0"/>
<stop offset="0.739583" stop-color="white"/>
</linearGradient>
<linearGradient id="paint15_linear_7005_27934" x1="56" y1="228.45" x2="56" y2="137" gradientUnits="userSpaceOnUse">
<stop stop-color="white" stop-opacity="0.05"/>
<stop offset="0.75" stop-color="white" stop-opacity="0.8"/>
</linearGradient>
<linearGradient id="paint16_linear_7005_27934" x1="147" y1="178" x2="147" y2="137" gradientUnits="userSpaceOnUse">
<stop stop-color="#6D73F9"/>
<stop offset="1" stop-color="#9BB8F1"/>
</linearGradient>
<linearGradient id="paint17_linear_7005_27934" x1="147" y1="178" x2="147" y2="137" gradientUnits="userSpaceOnUse">
<stop stop-color="white" stop-opacity="0"/>
<stop offset="0.739583" stop-color="white"/>
</linearGradient>
<linearGradient id="paint18_linear_7005_27934" x1="136" y1="257.95" x2="136" y2="137" gradientUnits="userSpaceOnUse">
<stop stop-color="white" stop-opacity="0.05"/>
<stop offset="0.75" stop-color="white" stop-opacity="0.8"/>
</linearGradient>
<linearGradient id="paint19_linear_7005_27934" x1="227" y1="173" x2="227" y2="137" gradientUnits="userSpaceOnUse">
<stop stop-color="#6D73F9"/>
<stop offset="1" stop-color="#9BB8F1"/>
</linearGradient>
<linearGradient id="paint20_linear_7005_27934" x1="227" y1="173" x2="227" y2="137" gradientUnits="userSpaceOnUse">
<stop stop-color="white" stop-opacity="0"/>
<stop offset="0.739583" stop-color="white"/>
</linearGradient>
<linearGradient id="paint21_linear_7005_27934" x1="216" y1="243.2" x2="216" y2="137" gradientUnits="userSpaceOnUse">
<stop stop-color="white" stop-opacity="0.05"/>
<stop offset="0.75" stop-color="white" stop-opacity="0.8"/>
</linearGradient>
<linearGradient id="paint22_linear_7005_27934" x1="307" y1="32" x2="307" y2="137" gradientUnits="userSpaceOnUse">
<stop stop-color="#6D73F9"/>
<stop offset="1" stop-color="#9BB8F1"/>
</linearGradient>
<linearGradient id="paint23_linear_7005_27934" x1="307" y1="31.9998" x2="307" y2="137" gradientUnits="userSpaceOnUse">
<stop stop-color="white" stop-opacity="0"/>
<stop offset="0.739583" stop-color="white"/>
</linearGradient>
<linearGradient id="paint24_linear_7005_27934" x1="296" y1="-172.75" x2="296" y2="137" gradientUnits="userSpaceOnUse">
<stop stop-color="white" stop-opacity="0.05"/>
<stop offset="0.75" stop-color="white" stop-opacity="0.8"/>
</linearGradient>
<linearGradient id="paint25_linear_7005_27934" x1="26" y1="379" x2="26" y2="475" gradientUnits="userSpaceOnUse">
<stop stop-color="#CDE3E9"/>
<stop offset="1" stop-color="#D3E8ED"/>
</linearGradient>
<linearGradient id="paint26_linear_7005_27934" x1="26" y1="379" x2="26" y2="475" gradientUnits="userSpaceOnUse">
<stop stop-color="white" stop-opacity="0"/>
<stop offset="0.739583" stop-color="white"/>
</linearGradient>
<linearGradient id="paint27_linear_7005_27934" x1="15" y1="191.8" x2="15" y2="475" gradientUnits="userSpaceOnUse">
<stop stop-color="white" stop-opacity="0.05"/>
<stop offset="0.75" stop-color="white" stop-opacity="0.8"/>
</linearGradient>
<linearGradient id="paint28_linear_7005_27934" x1="107" y1="372" x2="107" y2="475" gradientUnits="userSpaceOnUse">
<stop stop-color="#CDE3E9"/>
<stop offset="1" stop-color="#D3E8ED"/>
</linearGradient>
<linearGradient id="paint29_linear_7005_27934" x1="107" y1="372" x2="107" y2="475" gradientUnits="userSpaceOnUse">
<stop stop-color="white" stop-opacity="0"/>
<stop offset="0.739583" stop-color="white"/>
</linearGradient>
<linearGradient id="paint30_linear_7005_27934" x1="96" y1="171.15" x2="96" y2="475" gradientUnits="userSpaceOnUse">
<stop stop-color="white" stop-opacity="0.05"/>
<stop offset="0.75" stop-color="white" stop-opacity="0.8"/>
</linearGradient>
<linearGradient id="paint31_linear_7005_27934" x1="187" y1="367" x2="187" y2="475" gradientUnits="userSpaceOnUse">
<stop stop-color="#CDE3E9"/>
<stop offset="1" stop-color="#D3E8ED"/>
</linearGradient>
<linearGradient id="paint32_linear_7005_27934" x1="187" y1="367" x2="187" y2="475" gradientUnits="userSpaceOnUse">
<stop stop-color="white" stop-opacity="0"/>
<stop offset="0.739583" stop-color="white"/>
</linearGradient>
<linearGradient id="paint33_linear_7005_27934" x1="176" y1="156.4" x2="176" y2="475" gradientUnits="userSpaceOnUse">
<stop stop-color="white" stop-opacity="0.05"/>
<stop offset="0.75" stop-color="white" stop-opacity="0.8"/>
</linearGradient>
<linearGradient id="paint34_linear_7005_27934" x1="267" y1="365" x2="267" y2="475" gradientUnits="userSpaceOnUse">
<stop stop-color="#CDE3E9"/>
<stop offset="1" stop-color="#D3E8ED"/>
</linearGradient>
<linearGradient id="paint35_linear_7005_27934" x1="267" y1="365" x2="267" y2="475" gradientUnits="userSpaceOnUse">
<stop stop-color="white" stop-opacity="0"/>
<stop offset="0.739583" stop-color="white"/>
</linearGradient>
<linearGradient id="paint36_linear_7005_27934" x1="256" y1="150.5" x2="256" y2="475" gradientUnits="userSpaceOnUse">
<stop stop-color="white" stop-opacity="0.05"/>
<stop offset="0.75" stop-color="white" stop-opacity="0.8"/>
</linearGradient>
<linearGradient id="paint37_linear_7005_27934" x1="67" y1="340" x2="67" y2="475" gradientUnits="userSpaceOnUse">
<stop stop-color="#6D73F9"/>
<stop offset="1" stop-color="#9BB8F1"/>
</linearGradient>
<linearGradient id="paint38_linear_7005_27934" x1="67" y1="340" x2="67" y2="475" gradientUnits="userSpaceOnUse">
<stop stop-color="white" stop-opacity="0"/>
<stop offset="0.739583" stop-color="white"/>
</linearGradient>
<linearGradient id="paint39_linear_7005_27934" x1="56" y1="76.75" x2="56" y2="475" gradientUnits="userSpaceOnUse">
<stop stop-color="white" stop-opacity="0.05"/>
<stop offset="0.75" stop-color="white" stop-opacity="0.8"/>
</linearGradient>
<linearGradient id="paint40_linear_7005_27934" x1="147" y1="347" x2="147" y2="475" gradientUnits="userSpaceOnUse">
<stop stop-color="#6D73F9"/>
<stop offset="1" stop-color="#9BB8F1"/>
</linearGradient>
<linearGradient id="paint41_linear_7005_27934" x1="147" y1="347" x2="147" y2="475" gradientUnits="userSpaceOnUse">
<stop stop-color="white" stop-opacity="0"/>
<stop offset="0.739583" stop-color="white"/>
</linearGradient>
<linearGradient id="paint42_linear_7005_27934" x1="136" y1="97.4" x2="136" y2="475" gradientUnits="userSpaceOnUse">
<stop stop-color="white" stop-opacity="0.05"/>
<stop offset="0.75" stop-color="white" stop-opacity="0.8"/>
</linearGradient>
<linearGradient id="paint43_linear_7005_27934" x1="227" y1="392" x2="227" y2="475" gradientUnits="userSpaceOnUse">
<stop stop-color="#6D73F9"/>
<stop offset="1" stop-color="#9BB8F1"/>
</linearGradient>
<linearGradient id="paint44_linear_7005_27934" x1="227" y1="392" x2="227" y2="475" gradientUnits="userSpaceOnUse">
<stop stop-color="white" stop-opacity="0"/>
<stop offset="0.739583" stop-color="white"/>
</linearGradient>
<linearGradient id="paint45_linear_7005_27934" x1="216" y1="230.15" x2="216" y2="475" gradientUnits="userSpaceOnUse">
<stop stop-color="white" stop-opacity="0.05"/>
<stop offset="0.75" stop-color="white" stop-opacity="0.8"/>
</linearGradient>
<linearGradient id="paint46_linear_7005_27934" x1="307" y1="363" x2="307" y2="475" gradientUnits="userSpaceOnUse">
<stop stop-color="#6D73F9"/>
<stop offset="1" stop-color="#9BB8F1"/>
</linearGradient>
<linearGradient id="paint47_linear_7005_27934" x1="307" y1="363" x2="307" y2="475" gradientUnits="userSpaceOnUse">
<stop stop-color="white" stop-opacity="0"/>
<stop offset="0.739583" stop-color="white"/>
</linearGradient>
<linearGradient id="paint48_linear_7005_27934" x1="296" y1="144.6" x2="296" y2="475" gradientUnits="userSpaceOnUse">
<stop stop-color="white" stop-opacity="0.05"/>
<stop offset="0.75" stop-color="white" stop-opacity="0.8"/>
</linearGradient>
<linearGradient id="paint49_linear_7005_27934" x1="27" y1="577" x2="27" y2="699" gradientUnits="userSpaceOnUse">
<stop stop-color="#CDE3E9"/>
<stop offset="1" stop-color="#D3E8ED"/>
</linearGradient>
<linearGradient id="paint50_linear_7005_27934" x1="27" y1="577" x2="27" y2="699" gradientUnits="userSpaceOnUse">
<stop stop-color="white" stop-opacity="0"/>
<stop offset="0.739583" stop-color="white"/>
</linearGradient>
<linearGradient id="paint51_linear_7005_27934" x1="16" y1="339.1" x2="16" y2="699" gradientUnits="userSpaceOnUse">
<stop stop-color="white" stop-opacity="0.05"/>
<stop offset="0.75" stop-color="white" stop-opacity="0.8"/>
</linearGradient>
<linearGradient id="paint52_linear_7005_27934" x1="107" y1="572" x2="107" y2="699" gradientUnits="userSpaceOnUse">
<stop stop-color="#CDE3E9"/>
<stop offset="1" stop-color="#D3E8ED"/>
</linearGradient>
<linearGradient id="paint53_linear_7005_27934" x1="107" y1="572" x2="107" y2="699" gradientUnits="userSpaceOnUse">
<stop stop-color="white" stop-opacity="0"/>
<stop offset="0.739583" stop-color="white"/>
</linearGradient>
<linearGradient id="paint54_linear_7005_27934" x1="96" y1="324.35" x2="96" y2="699" gradientUnits="userSpaceOnUse">
<stop stop-color="white" stop-opacity="0.05"/>
<stop offset="0.75" stop-color="white" stop-opacity="0.8"/>
</linearGradient>
<linearGradient id="paint55_linear_7005_27934" x1="187" y1="594" x2="187" y2="699" gradientUnits="userSpaceOnUse">
<stop stop-color="#CDE3E9"/>
<stop offset="1" stop-color="#D3E8ED"/>
</linearGradient>
<linearGradient id="paint56_linear_7005_27934" x1="187" y1="594" x2="187" y2="699" gradientUnits="userSpaceOnUse">
<stop stop-color="white" stop-opacity="0"/>
<stop offset="0.739583" stop-color="white"/>
</linearGradient>
<linearGradient id="paint57_linear_7005_27934" x1="176" y1="389.25" x2="176" y2="699" gradientUnits="userSpaceOnUse">
<stop stop-color="white" stop-opacity="0.05"/>
<stop offset="0.75" stop-color="white" stop-opacity="0.8"/>
</linearGradient>
<linearGradient id="paint58_linear_7005_27934" x1="267" y1="597" x2="267" y2="699" gradientUnits="userSpaceOnUse">
<stop stop-color="#CDE3E9"/>
<stop offset="1" stop-color="#D3E8ED"/>
</linearGradient>
<linearGradient id="paint59_linear_7005_27934" x1="267" y1="597" x2="267" y2="699" gradientUnits="userSpaceOnUse">
<stop stop-color="white" stop-opacity="0"/>
<stop offset="0.739583" stop-color="white"/>
</linearGradient>
<linearGradient id="paint60_linear_7005_27934" x1="256" y1="398.1" x2="256" y2="699" gradientUnits="userSpaceOnUse">
<stop stop-color="white" stop-opacity="0.05"/>
<stop offset="0.75" stop-color="white" stop-opacity="0.8"/>
</linearGradient>
<linearGradient id="paint61_linear_7005_27934" x1="67" y1="577" x2="67" y2="699" gradientUnits="userSpaceOnUse">
<stop stop-color="#6D73F9"/>
<stop offset="1" stop-color="#9BB8F1"/>
</linearGradient>
<linearGradient id="paint62_linear_7005_27934" x1="67" y1="577" x2="67" y2="699" gradientUnits="userSpaceOnUse">
<stop stop-color="white" stop-opacity="0"/>
<stop offset="0.739583" stop-color="white"/>
</linearGradient>
<linearGradient id="paint63_linear_7005_27934" x1="56" y1="339.1" x2="56" y2="699" gradientUnits="userSpaceOnUse">
<stop stop-color="white" stop-opacity="0.05"/>
<stop offset="0.75" stop-color="white" stop-opacity="0.8"/>
</linearGradient>
<linearGradient id="paint64_linear_7005_27934" x1="147" y1="545" x2="147" y2="699" gradientUnits="userSpaceOnUse">
<stop stop-color="#6D73F9"/>
<stop offset="1" stop-color="#9BB8F1"/>
</linearGradient>
<linearGradient id="paint65_linear_7005_27934" x1="147" y1="545" x2="147" y2="699" gradientUnits="userSpaceOnUse">
<stop stop-color="white" stop-opacity="0"/>
<stop offset="0.739583" stop-color="white"/>
</linearGradient>
<linearGradient id="paint66_linear_7005_27934" x1="136" y1="244.7" x2="136" y2="699" gradientUnits="userSpaceOnUse">
<stop stop-color="white" stop-opacity="0.05"/>
<stop offset="0.75" stop-color="white" stop-opacity="0.8"/>
</linearGradient>
<linearGradient id="paint67_linear_7005_27934" x1="227" y1="565" x2="227" y2="699" gradientUnits="userSpaceOnUse">
<stop stop-color="#6D73F9"/>
<stop offset="1" stop-color="#9BB8F1"/>
</linearGradient>
<linearGradient id="paint68_linear_7005_27934" x1="227" y1="565" x2="227" y2="699" gradientUnits="userSpaceOnUse">
<stop stop-color="white" stop-opacity="0"/>
<stop offset="0.739583" stop-color="white"/>
</linearGradient>
<linearGradient id="paint69_linear_7005_27934" x1="216" y1="303.7" x2="216" y2="699" gradientUnits="userSpaceOnUse">
<stop stop-color="white" stop-opacity="0.05"/>
<stop offset="0.75" stop-color="white" stop-opacity="0.8"/>
</linearGradient>
<linearGradient id="paint70_linear_7005_27934" x1="307" y1="582" x2="307" y2="699" gradientUnits="userSpaceOnUse">
<stop stop-color="#6D73F9"/>
<stop offset="1" stop-color="#9BB8F1"/>
</linearGradient>
<linearGradient id="paint71_linear_7005_27934" x1="307" y1="582" x2="307" y2="699" gradientUnits="userSpaceOnUse">
<stop stop-color="white" stop-opacity="0"/>
<stop offset="0.739583" stop-color="white"/>
</linearGradient>
<linearGradient id="paint72_linear_7005_27934" x1="296" y1="353.85" x2="296" y2="699" gradientUnits="userSpaceOnUse">
<stop stop-color="white" stop-opacity="0.05"/>
<stop offset="0.75" stop-color="white" stop-opacity="0.8"/>
</linearGradient>
</defs>
</svg>
