<svg width="336" height="395" viewBox="0 0 336 395" fill="none" xmlns="http://www.w3.org/2000/svg">
<rect x="28.5" y="0.5" width="58" height="58" fill="#F5E386" stroke="white"/>
<rect x="28.5" y="118.5" width="58" height="58" fill="#88C591" stroke="white"/>
<rect x="28.5" y="59.5" width="58" height="58" fill="#F5E386" stroke="white"/>
<rect x="28.5" y="177.5" width="58" height="58" fill="#88C591" stroke="white"/>
<rect x="28.5" y="236.5" width="58" height="58" fill="#88C591" stroke="white"/>
<rect x="87.5" y="0.5" width="58" height="58" fill="#F5E386" stroke="white"/>
<rect x="87.5" y="118.5" width="58" height="58" fill="#F5E386" stroke="white"/>
<rect x="87.5" y="59.5" width="58" height="58" fill="#F5E386" stroke="white"/>
<rect x="87.5" y="177.5" width="58" height="58" fill="#88C591" stroke="white"/>
<rect x="87.5" y="236.5" width="58" height="58" fill="#88C591" stroke="white"/>
<rect x="146.5" y="0.5" width="58" height="58" fill="#F87B7B" stroke="white"/>
<rect x="146.5" y="118.5" width="58" height="58" fill="#F5E386" stroke="white"/>
<rect x="146.5" y="59.5" width="58" height="58" fill="#F5E386" stroke="white"/>
<rect x="146.5" y="177.5" width="58" height="58" fill="#F5E386" stroke="white"/>
<rect x="146.5" y="236.5" width="58" height="58" fill="#88C591" stroke="white"/>
<rect x="205.5" y="0.5" width="58" height="58" fill="#F87B7B" stroke="white"/>
<rect x="205.5" y="118.5" width="58" height="58" fill="#F5E386" stroke="white"/>
<rect x="205.5" y="59.5" width="58" height="58" fill="#F87B7B" stroke="white"/>
<rect x="205.5" y="177.5" width="58" height="58" fill="#F5E386" stroke="white"/>
<rect x="205.5" y="236.5" width="58" height="58" fill="#F5E386" stroke="white"/>
<rect x="264.5" y="0.5" width="58" height="58" fill="#F87B7B" stroke="white"/>
<rect x="264.5" y="118.5" width="58" height="58" fill="#F87B7B" stroke="white"/>
<rect x="264.5" y="59.5" width="58" height="58" fill="#F87B7B" stroke="white"/>
<rect x="264.5" y="177.5" width="58" height="58" fill="#F87B7B" stroke="white"/>
<rect x="264.5" y="236.5" width="58" height="58" fill="#F87B7B" stroke="white"/>
<path d="M166.086 309.75H174.762V311.046H166.086V309.75ZM171.486 305.898H172.89V320.586C172.89 321.066 172.824 321.42 172.692 321.648C172.572 321.876 172.356 322.044 172.044 322.152C171.756 322.272 171.342 322.344 170.802 322.368C170.262 322.404 169.608 322.422 168.84 322.422C168.804 322.23 168.738 321.996 168.642 321.72C168.546 321.456 168.45 321.228 168.354 321.036C168.942 321.048 169.494 321.054 170.01 321.054C170.526 321.054 170.868 321.048 171.036 321.036C171.204 321.036 171.318 321.006 171.378 320.946C171.45 320.886 171.486 320.772 171.486 320.604V305.898ZM171.342 310.344L172.422 311.01C172.086 311.802 171.678 312.606 171.198 313.422C170.73 314.226 170.208 315.012 169.632 315.78C169.068 316.536 168.474 317.238 167.85 317.886C167.238 318.534 166.62 319.098 165.996 319.578C165.888 319.398 165.744 319.2 165.564 318.984C165.384 318.768 165.21 318.594 165.042 318.462C165.654 318.054 166.266 317.544 166.878 316.932C167.49 316.32 168.072 315.648 168.624 314.916C169.188 314.184 169.698 313.434 170.154 312.666C170.622 311.886 171.018 311.112 171.342 310.344ZM158.58 309.732H165.42V311.046H158.58V309.732ZM161.586 305.88H162.936V322.422H161.586V305.88ZM161.532 310.542L162.468 310.866C162.288 311.61 162.06 312.372 161.784 313.152C161.52 313.92 161.22 314.676 160.884 315.42C160.56 316.164 160.212 316.86 159.84 317.508C159.48 318.144 159.108 318.69 158.724 319.146C158.64 318.942 158.52 318.72 158.364 318.48C158.22 318.228 158.088 318.018 157.968 317.85C158.328 317.442 158.688 316.962 159.048 316.41C159.408 315.846 159.744 315.234 160.056 314.574C160.368 313.914 160.65 313.242 160.902 312.558C161.154 311.874 161.364 311.202 161.532 310.542ZM162.828 311.406C162.936 311.514 163.098 311.688 163.314 311.928C163.53 312.156 163.764 312.414 164.016 312.702C164.268 312.99 164.514 313.284 164.754 313.584C165.006 313.872 165.234 314.136 165.438 314.376C165.642 314.604 165.792 314.778 165.888 314.898L165.024 316.05C164.88 315.81 164.676 315.51 164.412 315.15C164.16 314.778 163.884 314.394 163.584 313.998C163.296 313.602 163.014 313.236 162.738 312.9C162.474 312.552 162.264 312.282 162.108 312.09L162.828 311.406ZM179.244 305.934H180.504V322.422H179.244V305.934ZM176.346 311.928H183.456V313.188H176.346V311.928ZM179.064 312.594L179.874 312.936C179.718 313.56 179.52 314.208 179.28 314.88C179.052 315.54 178.8 316.194 178.524 316.842C178.248 317.49 177.96 318.102 177.66 318.678C177.36 319.242 177.06 319.728 176.76 320.136C176.712 320.004 176.646 319.86 176.562 319.704C176.49 319.548 176.406 319.392 176.31 319.236C176.226 319.068 176.142 318.93 176.058 318.822C176.442 318.354 176.826 317.766 177.21 317.058C177.606 316.35 177.966 315.606 178.29 314.826C178.614 314.034 178.872 313.29 179.064 312.594ZM180.486 313.422C180.582 313.53 180.72 313.704 180.9 313.944C181.092 314.184 181.302 314.454 181.53 314.754C181.77 315.054 182.004 315.354 182.232 315.654C182.46 315.954 182.664 316.23 182.844 316.482C183.024 316.722 183.15 316.902 183.222 317.022L182.322 318.084C182.214 317.844 182.052 317.538 181.836 317.166C181.62 316.782 181.38 316.386 181.116 315.978C180.864 315.558 180.618 315.168 180.378 314.808C180.15 314.448 179.964 314.172 179.82 313.98L180.486 313.422ZM176.472 307.284L177.462 307.014C177.642 307.434 177.798 307.884 177.93 308.364C178.074 308.844 178.2 309.312 178.308 309.768C178.416 310.224 178.488 310.638 178.524 311.01L177.444 311.28C177.432 310.92 177.372 310.512 177.264 310.056C177.168 309.588 177.048 309.114 176.904 308.634C176.772 308.142 176.628 307.692 176.472 307.284ZM182.286 306.96L183.474 307.266C183.33 307.71 183.168 308.184 182.988 308.688C182.82 309.18 182.646 309.66 182.466 310.128C182.298 310.584 182.136 310.986 181.98 311.334L181.098 311.046C181.242 310.686 181.386 310.266 181.53 309.786C181.686 309.294 181.83 308.802 181.962 308.31C182.106 307.806 182.214 307.356 182.286 306.96ZM189.27 305.88H190.566V322.422H189.27V305.88ZM183.42 317.346L192.672 315.672L192.888 316.914L183.654 318.588L183.42 317.346ZM184.788 308.094L185.472 307.158C185.82 307.362 186.174 307.596 186.534 307.86C186.906 308.112 187.254 308.37 187.578 308.634C187.902 308.898 188.16 309.144 188.352 309.372L187.632 310.398C187.452 310.17 187.2 309.918 186.876 309.642C186.564 309.366 186.222 309.09 185.85 308.814C185.49 308.538 185.136 308.298 184.788 308.094ZM183.87 312.63L184.5 311.676C184.86 311.856 185.232 312.066 185.616 312.306C186 312.534 186.366 312.774 186.714 313.026C187.062 313.266 187.338 313.494 187.542 313.71L186.876 314.79C186.66 314.574 186.384 314.34 186.048 314.088C185.712 313.824 185.352 313.566 184.968 313.314C184.596 313.05 184.23 312.822 183.87 312.63Z" fill="#1A3341" fill-opacity="0.6"/>
<path d="M3.86999 154.286L3.86999 148.652L5.05799 148.652L5.05799 154.286L3.86999 154.286ZM7.14599 158.858L7.14599 155.546L8.15399 155.546L8.15399 158.858L7.14599 158.858ZM12.852 156.968L12.456 156.05C12.84 155.834 13.254 155.624 13.698 155.42C14.142 155.216 14.574 155.03 14.994 154.862C15.402 154.694 15.762 154.562 16.074 154.466L16.542 155.456C16.23 155.54 15.864 155.666 15.444 155.834C15.012 156.002 14.568 156.188 14.112 156.392C13.656 156.584 13.236 156.776 12.852 156.968ZM3.92399 158.894L3.92399 155.06L11.484 155.06L11.484 158.894L10.368 158.894L10.368 156.104L5.05799 156.104L5.05799 158.894L3.92399 158.894ZM4.21199 151.496L4.21199 150.398L4.75199 150.398C5.51999 150.398 6.37199 150.422 7.30799 150.47C8.23199 150.518 9.20999 150.626 10.242 150.794C11.274 150.95 12.324 151.202 13.392 151.55C14.448 151.886 15.492 152.348 16.524 152.936C17.556 153.512 18.546 154.244 19.494 155.132C19.386 155.252 19.266 155.408 19.134 155.6C19.002 155.792 18.9 155.972 18.828 156.14C17.928 155.264 16.986 154.538 16.002 153.962C15.006 153.386 14.004 152.936 12.996 152.612C11.976 152.276 10.98 152.03 10.008 151.874C9.02399 151.706 8.08799 151.604 7.19999 151.568C6.31199 151.52 5.50199 151.496 4.76999 151.496L4.21199 151.496ZM12.24 151.712L12.24 150.65L17.748 150.65C17.808 150.65 17.868 150.644 17.928 150.632C17.976 150.608 18.012 150.578 18.036 150.542C18.096 150.47 18.126 150.362 18.126 150.218C18.126 150.158 18.126 150.086 18.126 150.002C18.126 149.906 18.126 149.822 18.126 149.75C18.126 149.666 18.12 149.588 18.108 149.516C18.096 149.444 18.072 149.384 18.036 149.336C18 149.3 17.946 149.264 17.874 149.228C17.802 149.192 17.712 149.168 17.604 149.156C17.448 149.132 17.19 149.12 16.83 149.12C16.47 149.108 16.062 149.102 15.606 149.102C15.69 149.006 15.774 148.88 15.858 148.724C15.942 148.568 16.008 148.424 16.056 148.292C16.5 148.304 16.944 148.322 17.388 148.346C17.832 148.37 18.138 148.406 18.306 148.454C18.654 148.538 18.9 148.688 19.044 148.904C19.104 148.988 19.152 149.108 19.188 149.264C19.224 149.408 19.242 149.558 19.242 149.714C19.242 149.81 19.242 149.942 19.242 150.11C19.242 150.278 19.242 150.404 19.242 150.488C19.242 150.644 19.218 150.806 19.17 150.974C19.134 151.142 19.062 151.286 18.954 151.406C18.846 151.526 18.702 151.61 18.522 151.658C18.354 151.694 18.072 151.712 17.676 151.712L12.24 151.712ZM17.874 159.434L16.74 159.596L16.182 159.2L14.22 155.726C14.376 155.69 14.544 155.642 14.724 155.582C14.904 155.51 15.048 155.45 15.156 155.402C15.672 156.242 16.092 156.914 16.416 157.418C16.728 157.922 16.98 158.312 17.172 158.588C17.352 158.852 17.496 159.044 17.604 159.164C17.7 159.284 17.79 159.374 17.874 159.434ZM11.538 154.286L10.494 154.286L10.152 153.566L10.152 148.382L11.304 148.382L11.304 152.972C11.304 153.284 11.328 153.56 11.376 153.8C11.412 154.04 11.466 154.202 11.538 154.286ZM11.52 154.286C11.436 154.298 11.328 154.334 11.196 154.394C11.052 154.454 10.92 154.514 10.8 154.574C10.668 154.634 10.56 154.688 10.476 154.736C10.44 154.616 10.392 154.526 10.332 154.466C10.272 154.394 10.164 154.334 10.008 154.286C9.89999 154.25 9.68399 154.202 9.35999 154.142C9.02399 154.07 8.65199 154.004 8.24399 153.944C7.82399 153.872 7.42199 153.806 7.03799 153.746C6.65399 153.686 6.35999 153.644 6.15599 153.62L6.15599 152.522C6.40799 152.57 6.73799 152.63 7.14599 152.702C7.55399 152.762 7.98599 152.834 8.44199 152.918C8.88599 152.99 9.31199 153.062 9.71999 153.134C10.128 153.206 10.464 153.272 10.728 153.332C10.728 153.332 10.758 153.38 10.818 153.476C10.866 153.572 10.932 153.68 11.016 153.8C11.1 153.92 11.19 154.034 11.286 154.142C11.37 154.238 11.448 154.286 11.52 154.286ZM17.874 159.434C17.778 159.47 17.676 159.53 17.568 159.614C17.448 159.698 17.334 159.788 17.226 159.884C17.106 159.968 17.01 160.052 16.938 160.136C16.818 159.992 16.62 159.836 16.344 159.668C16.056 159.488 15.708 159.398 15.3 159.398L3.92399 159.398L3.92399 158.3L16.362 158.3C16.362 158.3 16.422 158.36 16.542 158.48C16.65 158.588 16.788 158.72 16.956 158.876C17.112 159.02 17.274 159.152 17.442 159.272C17.61 159.38 17.754 159.434 17.874 159.434ZM6.69599 164.546L6.69599 159.884L7.95599 159.884L7.95599 164.546L6.69599 164.546ZM2.87999 162.656L2.87999 161.432L19.422 161.432L19.422 162.656L2.87999 162.656ZM7.46999 162.62L7.73999 161.738C8.43599 161.846 9.17399 161.99 9.95399 162.17C10.722 162.338 11.49 162.53 12.258 162.746C13.014 162.962 13.722 163.202 14.382 163.466C15.03 163.718 15.588 163.982 16.056 164.258C15.876 164.342 15.678 164.456 15.462 164.6C15.234 164.732 15.048 164.852 14.904 164.96C14.484 164.708 13.986 164.462 13.41 164.222C12.822 163.982 12.192 163.76 11.52 163.556C10.848 163.34 10.164 163.154 9.46799 162.998C8.77199 162.842 8.10599 162.716 7.46999 162.62ZM8.53199 161.504C8.65199 161.42 8.85599 161.294 9.14399 161.126C9.43199 160.946 9.74999 160.76 10.098 160.568C10.434 160.364 10.746 160.178 11.034 160.01C11.31 159.842 11.514 159.722 11.646 159.65L12.744 160.424C12.528 160.508 12.258 160.628 11.934 160.784C11.598 160.928 11.256 161.09 10.908 161.27C10.548 161.438 10.218 161.594 9.91799 161.738C9.60599 161.882 9.35999 162.008 9.17999 162.116L8.53199 161.504ZM12.888 139.22L12.888 137.78L19.44 137.78L19.44 139.22L12.888 139.22ZM14.364 146.582L14.364 130.4L15.624 130.4L15.624 146.582L14.364 146.582ZM4.49999 146.222L4.49999 130.562L5.74199 130.562L5.74199 146.222L4.49999 146.222ZM6.42599 132.578L7.10999 131.444C7.52999 131.852 7.94399 132.302 8.35199 132.794C8.74799 133.274 9.09599 133.724 9.39599 134.144L8.72999 135.134C8.53799 134.858 8.30999 134.564 8.04599 134.252C7.76999 133.94 7.49399 133.64 7.21799 133.352C6.92999 133.052 6.66599 132.794 6.42599 132.578ZM10.026 137.582L9.61199 136.574C9.91199 136.298 10.248 136.028 10.62 135.764C10.992 135.488 11.352 135.236 11.7 135.008C12.048 134.78 12.366 134.6 12.654 134.468L13.14 135.548C12.852 135.656 12.528 135.824 12.168 136.052C11.808 136.268 11.442 136.508 11.07 136.772C10.686 137.036 10.338 137.306 10.026 137.582ZM11.934 146.492C11.694 145.928 11.394 145.25 11.034 144.458C10.662 143.654 10.278 142.844 9.88199 142.028L10.908 141.758C11.28 142.454 11.652 143.156 12.024 143.864C12.396 144.56 12.726 145.208 13.014 145.808L11.934 146.492ZM7.21799 145.97L6.47999 145.052C6.67199 144.728 6.88799 144.392 7.12799 144.044C7.35599 143.684 7.59599 143.354 7.84799 143.054C8.08799 142.742 8.30999 142.484 8.51399 142.28L9.34199 143.252C9.13799 143.432 8.90999 143.678 8.65799 143.99C8.40599 144.29 8.15399 144.614 7.90199 144.962C7.63799 145.31 7.40999 145.646 7.21799 145.97ZM10.656 135.314L9.93599 134.36C10.164 133.952 10.428 133.52 10.728 133.064C11.016 132.608 11.31 132.176 11.61 131.768C11.898 131.36 12.162 131.024 12.402 130.76L13.212 131.768C12.972 132.02 12.702 132.344 12.402 132.74C12.102 133.136 11.802 133.562 11.502 134.018C11.19 134.462 10.908 134.894 10.656 135.314ZM9.30599 141.416C9.22199 141.44 9.10799 141.476 8.96399 141.524C8.81999 141.56 8.67599 141.602 8.53199 141.65C8.38799 141.698 8.26199 141.746 8.15399 141.794C8.12999 141.674 8.06999 141.548 7.97399 141.416C7.86599 141.272 7.73399 141.134 7.57799 141.002C7.46999 140.894 7.27799 140.732 7.00199 140.516C6.71399 140.288 6.37799 140.042 5.99399 139.778C5.60999 139.514 5.21999 139.286 4.82399 139.094L5.29199 137.924C5.93999 138.308 6.55799 138.746 7.14599 139.238C7.72199 139.718 8.21999 140.186 8.63999 140.642L8.67599 140.642C8.67599 140.642 8.69399 140.684 8.72999 140.768C8.76599 140.84 8.81999 140.93 8.89199 141.038C8.95199 141.134 9.01799 141.224 9.08999 141.308C9.16199 141.38 9.23399 141.416 9.30599 141.416ZM9.30599 141.416L8.36999 141.416L7.97399 140.75L7.77599 137.24C7.93199 137.3 8.11799 137.354 8.33399 137.402C8.54999 137.438 8.72399 137.468 8.85599 137.492C8.90399 138.272 8.95199 138.902 8.99999 139.382C9.04799 139.862 9.08999 140.24 9.12599 140.516C9.14999 140.78 9.17999 140.978 9.21599 141.11C9.23999 141.242 9.26999 141.344 9.30599 141.416ZM12.888 141.776C12.804 141.788 12.696 141.818 12.564 141.866C12.42 141.914 12.276 141.962 12.132 142.01C11.976 142.058 11.838 142.106 11.718 142.154C11.682 141.95 11.586 141.728 11.43 141.488C11.274 141.248 11.07 140.978 10.818 140.678C10.686 140.51 10.47 140.264 10.17 139.94C9.86999 139.616 9.51599 139.25 9.10799 138.842C8.69999 138.434 8.25599 138.014 7.77599 137.582C7.28399 137.15 6.79199 136.748 6.29999 136.376L6.92999 135.278C7.96199 136.166 8.93999 137.096 9.86399 138.068C10.788 139.04 11.586 140.006 12.258 140.966L12.294 140.966C12.294 140.966 12.312 141.008 12.348 141.092C12.384 141.164 12.438 141.254 12.51 141.362C12.57 141.47 12.636 141.566 12.708 141.65C12.768 141.734 12.828 141.776 12.888 141.776ZM12.888 141.776L11.97 141.794L11.556 141.11L11.088 135.602C11.256 135.614 11.442 135.626 11.646 135.638C11.85 135.638 12.018 135.632 12.15 135.62C12.27 136.904 12.372 137.93 12.456 138.698C12.528 139.466 12.588 140.06 12.636 140.48C12.684 140.888 12.732 141.182 12.78 141.362C12.816 141.542 12.852 141.68 12.888 141.776ZM3.09599 139.67L2.75399 138.356C3.04199 138.128 3.37199 137.906 3.74399 137.69C4.10399 137.462 4.42199 137.288 4.69799 137.168L5.12999 138.536C4.85399 138.644 4.52399 138.812 4.13999 139.04C3.75599 139.256 3.40799 139.466 3.09599 139.67Z" fill="#1A3341" fill-opacity="0.6"/>
<g opacity="0.8">
<rect opacity="0.9" x="28" y="341" width="10" height="10" fill="#F87B7B"/>
</g>
<path d="M47.236 344.32H56.764V345.196H47.236V344.32ZM47.788 347.836H56.272V348.712H47.788V347.836ZM46.672 351.676H57.376V352.552H46.672V351.676ZM51.508 345.028H52.48V352.132H51.508V345.028ZM50.488 342.46L51.22 341.968C51.476 342.144 51.744 342.348 52.024 342.58C52.312 342.812 52.58 343.044 52.828 343.276C53.076 343.5 53.28 343.708 53.44 343.9L52.66 344.464C52.516 344.28 52.32 344.072 52.072 343.84C51.832 343.6 51.572 343.36 51.292 343.12C51.02 342.872 50.752 342.652 50.488 342.46ZM58.648 348.424H69.364V349.228H58.648V348.424ZM58.828 342.436H69.16V343.24H58.828V342.436ZM66.304 348.748L67.156 349C66.884 349.648 66.516 350.204 66.052 350.668C65.588 351.124 65.024 351.504 64.36 351.808C63.696 352.112 62.924 352.352 62.044 352.528C61.164 352.712 60.176 352.848 59.08 352.936C59.048 352.808 58.996 352.672 58.924 352.528C58.86 352.384 58.788 352.26 58.708 352.156C60.116 352.076 61.324 351.916 62.332 351.676C63.34 351.428 64.168 351.068 64.816 350.596C65.472 350.124 65.968 349.508 66.304 348.748ZM60.232 350.788L60.88 350.152C61.648 350.288 62.412 350.44 63.172 350.608C63.94 350.776 64.68 350.952 65.392 351.136C66.112 351.32 66.784 351.508 67.408 351.7C68.04 351.892 68.6 352.08 69.088 352.264L68.32 352.96C67.72 352.712 66.992 352.456 66.136 352.192C65.288 351.936 64.36 351.688 63.352 351.448C62.352 351.208 61.312 350.988 60.232 350.788ZM62.104 342.736H62.956V346.936H62.104V342.736ZM64.912 342.736H65.764V346.936H64.912V342.736ZM60.28 345.004V346.636H67.768V345.004H60.28ZM59.428 344.26H68.656V347.368H59.428V344.26ZM60.232 350.788C60.512 350.484 60.8 350.132 61.096 349.732C61.4 349.332 61.692 348.92 61.972 348.496C62.252 348.072 62.488 347.668 62.68 347.284L63.592 347.5C63.4 347.884 63.168 348.28 62.896 348.688C62.632 349.088 62.36 349.472 62.08 349.84C61.8 350.208 61.544 350.524 61.312 350.788H60.232ZM72.292 342.496H79.6V343.372H72.292V342.496ZM71.908 342.496H72.832V346.06C72.832 346.564 72.812 347.116 72.772 347.716C72.732 348.316 72.656 348.928 72.544 349.552C72.44 350.176 72.28 350.784 72.064 351.376C71.856 351.96 71.576 352.492 71.224 352.972C71.176 352.916 71.104 352.848 71.008 352.768C70.92 352.688 70.828 352.612 70.732 352.54C70.636 352.468 70.552 352.412 70.48 352.372C70.808 351.916 71.068 351.424 71.26 350.896C71.452 350.36 71.592 349.812 71.68 349.252C71.776 348.684 71.836 348.128 71.86 347.584C71.892 347.04 71.908 346.532 71.908 346.06V342.496ZM79.12 342.496H80.02C80.012 343.632 80.008 344.684 80.008 345.652C80.008 346.62 80.02 347.488 80.044 348.256C80.068 349.024 80.108 349.68 80.164 350.224C80.22 350.768 80.296 351.184 80.392 351.472C80.496 351.76 80.628 351.904 80.788 351.904C80.852 351.904 80.9 351.824 80.932 351.664C80.972 351.496 81 351.276 81.016 351.004C81.04 350.724 81.056 350.42 81.064 350.092C81.136 350.196 81.232 350.308 81.352 350.428C81.472 350.548 81.572 350.644 81.652 350.716C81.628 351.244 81.584 351.664 81.52 351.976C81.456 352.288 81.36 352.508 81.232 352.636C81.112 352.772 80.94 352.84 80.716 352.84C80.308 352.84 79.992 352.62 79.768 352.18C79.552 351.74 79.4 351.088 79.312 350.224C79.224 349.36 79.172 348.284 79.156 346.996C79.14 345.7 79.128 344.2 79.12 342.496ZM73.384 345.1L74.128 344.704C74.552 345.184 74.988 345.704 75.436 346.264C75.884 346.816 76.32 347.372 76.744 347.932C77.176 348.492 77.568 349.032 77.92 349.552C78.28 350.064 78.58 350.528 78.82 350.944L77.98 351.424C77.756 351.024 77.472 350.564 77.128 350.044C76.784 349.516 76.4 348.968 75.976 348.4C75.56 347.824 75.128 347.252 74.68 346.684C74.24 346.116 73.808 345.588 73.384 345.1ZM77.32 344.212L78.112 344.44C77.872 345.16 77.592 345.868 77.272 346.564C76.952 347.26 76.596 347.924 76.204 348.556C75.812 349.18 75.392 349.752 74.944 350.272C74.504 350.792 74.04 351.232 73.552 351.592C73.496 351.52 73.428 351.44 73.348 351.352C73.268 351.264 73.188 351.18 73.108 351.1C73.028 351.02 72.948 350.952 72.868 350.896C73.348 350.584 73.808 350.184 74.248 349.696C74.688 349.208 75.1 348.668 75.484 348.076C75.876 347.476 76.224 346.848 76.528 346.192C76.84 345.536 77.104 344.876 77.32 344.212ZM83.02 342.4H85.684V343.216H83.836V352.924H83.02V342.4ZM85.528 342.4H85.684L85.816 342.364L86.404 342.712C86.228 343.2 86.036 343.724 85.828 344.284C85.62 344.836 85.416 345.352 85.216 345.832C85.648 346.336 85.932 346.808 86.068 347.248C86.212 347.68 86.284 348.084 86.284 348.46C86.284 348.78 86.248 349.064 86.176 349.312C86.104 349.552 85.984 349.736 85.816 349.864C85.728 349.928 85.632 349.976 85.528 350.008C85.424 350.04 85.308 350.068 85.18 350.092C85.068 350.1 84.94 350.104 84.796 350.104C84.66 350.104 84.52 350.104 84.376 350.104C84.368 350 84.344 349.872 84.304 349.72C84.272 349.56 84.224 349.424 84.16 349.312C84.296 349.32 84.42 349.324 84.532 349.324C84.652 349.324 84.76 349.324 84.856 349.324C85.016 349.308 85.14 349.272 85.228 349.216C85.316 349.144 85.38 349.032 85.42 348.88C85.46 348.728 85.48 348.56 85.48 348.376C85.48 348.048 85.408 347.68 85.264 347.272C85.12 346.864 84.832 346.42 84.4 345.94C84.512 345.66 84.62 345.372 84.724 345.076C84.828 344.78 84.928 344.484 85.024 344.188C85.128 343.892 85.22 343.612 85.3 343.348C85.388 343.084 85.464 342.852 85.528 342.652V342.4ZM90.112 342.316C90.296 342.62 90.528 342.936 90.808 343.264C91.088 343.584 91.392 343.9 91.72 344.212C92.056 344.524 92.396 344.816 92.74 345.088C93.084 345.352 93.42 345.58 93.748 345.772C93.692 345.836 93.632 345.92 93.568 346.024C93.512 346.12 93.46 346.22 93.412 346.324C93.364 346.42 93.32 346.508 93.28 346.588C92.824 346.276 92.356 345.908 91.876 345.484C91.396 345.052 90.944 344.6 90.52 344.128C90.096 343.648 89.74 343.188 89.452 342.748L90.112 342.316ZM89.668 341.836L90.46 342.112C90.164 342.728 89.808 343.316 89.392 343.876C88.976 344.436 88.528 344.956 88.048 345.436C87.568 345.908 87.072 346.32 86.56 346.672C86.528 346.608 86.476 346.532 86.404 346.444C86.34 346.348 86.272 346.256 86.2 346.168C86.136 346.072 86.076 345.996 86.02 345.94C86.516 345.628 86.992 345.26 87.448 344.836C87.904 344.412 88.324 343.944 88.708 343.432C89.092 342.92 89.412 342.388 89.668 341.836ZM87.76 345.64H91.828V346.42H87.76V345.64ZM87.052 347.74L87.772 347.56C87.892 347.856 88.004 348.18 88.108 348.532C88.22 348.876 88.316 349.216 88.396 349.552C88.484 349.88 88.544 350.172 88.576 350.428L87.832 350.644C87.8 350.38 87.744 350.08 87.664 349.744C87.584 349.408 87.492 349.068 87.388 348.724C87.284 348.372 87.172 348.044 87.052 347.74ZM89.344 347.404L90.064 347.308C90.144 347.604 90.22 347.928 90.292 348.28C90.364 348.624 90.424 348.96 90.472 349.288C90.528 349.608 90.564 349.9 90.58 350.164L89.836 350.284C89.82 350.028 89.784 349.732 89.728 349.396C89.68 349.06 89.62 348.72 89.548 348.376C89.484 348.024 89.416 347.7 89.344 347.404ZM92.272 347.308L93.076 347.524C92.884 348.004 92.672 348.512 92.44 349.048C92.208 349.584 91.968 350.104 91.72 350.608C91.48 351.112 91.248 351.552 91.024 351.928L90.376 351.724C90.536 351.436 90.704 351.112 90.88 350.752C91.064 350.384 91.24 350 91.408 349.6C91.576 349.192 91.736 348.792 91.888 348.4C92.04 348.008 92.168 347.644 92.272 347.308ZM86.404 351.58H93.472V352.384H86.404V351.58ZM100.072 342.592H105.4V343.384H100.072V342.592ZM102.436 343.084L103.252 343.288C103.132 343.608 103.008 343.932 102.88 344.26C102.76 344.58 102.644 344.86 102.532 345.1L101.824 344.896C101.936 344.648 102.048 344.352 102.16 344.008C102.28 343.656 102.372 343.348 102.436 343.084ZM100.372 344.656H105.052V350.296H104.212V345.352H101.188V350.32H100.372V344.656ZM102.34 345.904H103.096C103.088 346.792 103.064 347.58 103.024 348.268C102.984 348.948 102.904 349.544 102.784 350.056C102.664 350.568 102.484 351.012 102.244 351.388C102.004 351.756 101.684 352.072 101.284 352.336C100.884 352.6 100.376 352.824 99.76 353.008C99.728 352.912 99.664 352.8 99.568 352.672C99.472 352.552 99.384 352.456 99.304 352.384C99.88 352.216 100.352 352.016 100.72 351.784C101.088 351.552 101.38 351.272 101.596 350.944C101.82 350.616 101.98 350.22 102.076 349.756C102.18 349.292 102.248 348.744 102.28 348.112C102.312 347.48 102.332 346.744 102.34 345.904ZM102.712 350.872L103.252 350.392C103.524 350.592 103.808 350.812 104.104 351.052C104.4 351.292 104.68 351.528 104.944 351.76C105.208 351.992 105.424 352.2 105.592 352.384L105.016 352.936C104.856 352.752 104.644 352.54 104.38 352.3C104.124 352.06 103.848 351.816 103.552 351.568C103.256 351.312 102.976 351.08 102.712 350.872ZM97.192 341.908L97.972 342.124C97.652 342.932 97.24 343.72 96.736 344.488C96.24 345.256 95.672 345.928 95.032 346.504C94.984 346.448 94.92 346.384 94.84 346.312C94.768 346.24 94.692 346.172 94.612 346.108C94.54 346.036 94.472 345.98 94.408 345.94C94.816 345.596 95.196 345.2 95.548 344.752C95.908 344.304 96.228 343.836 96.508 343.348C96.788 342.852 97.016 342.372 97.192 341.908ZM95.404 350.212L96.004 349.756C96.3 350.012 96.612 350.292 96.94 350.596C97.268 350.9 97.576 351.204 97.864 351.508C98.152 351.804 98.384 352.068 98.56 352.3L97.912 352.84C97.744 352.6 97.52 352.324 97.24 352.012C96.96 351.708 96.66 351.396 96.34 351.076C96.02 350.756 95.708 350.468 95.404 350.212ZM95.212 347.368H98.896V348.16H95.212V347.368ZM96.46 345.424L97.048 345.076C97.28 345.292 97.508 345.528 97.732 345.784C97.956 346.04 98.128 346.264 98.248 346.456L97.648 346.876C97.52 346.676 97.344 346.44 97.12 346.168C96.896 345.896 96.676 345.648 96.46 345.424ZM98.62 347.368H98.752L98.896 347.32L99.472 347.668C99.296 348.092 99.08 348.54 98.824 349.012C98.568 349.476 98.304 349.92 98.032 350.344C97.76 350.768 97.512 351.132 97.288 351.436C97.208 351.372 97.104 351.292 96.976 351.196C96.848 351.1 96.736 351.024 96.64 350.968C96.792 350.776 96.96 350.54 97.144 350.26C97.328 349.98 97.516 349.68 97.708 349.36C97.9 349.04 98.072 348.724 98.224 348.412C98.384 348.1 98.516 347.816 98.62 347.56V347.368ZM96.964 343.228L97.492 342.7C97.788 342.98 98.096 343.292 98.416 343.636C98.744 343.972 99.048 344.3 99.328 344.62C99.608 344.94 99.828 345.224 99.988 345.472L99.436 346.108C99.268 345.852 99.048 345.556 98.776 345.22C98.504 344.884 98.208 344.544 97.888 344.2C97.568 343.848 97.26 343.524 96.964 343.228ZM106.516 344.848H109.72V345.7H106.516V344.848ZM107.788 342.064H108.628V350.104H107.788V342.064ZM106.432 350.452C106.856 350.276 107.36 350.052 107.944 349.78C108.536 349.5 109.136 349.208 109.744 348.904L109.996 349.708C109.444 349.996 108.884 350.284 108.316 350.572C107.756 350.852 107.24 351.108 106.768 351.34L106.432 350.452ZM109.924 343.696H117.388V344.524H109.924V343.696ZM109.528 350.764C109.888 350.684 110.296 350.588 110.752 350.476C111.216 350.356 111.708 350.228 112.228 350.092C112.748 349.956 113.268 349.82 113.788 349.684L113.872 350.44C113.152 350.648 112.432 350.856 111.712 351.064C110.992 351.272 110.34 351.46 109.756 351.628L109.528 350.764ZM113.944 341.932H114.808C114.808 342.876 114.824 343.784 114.856 344.656C114.888 345.52 114.936 346.332 115 347.092C115.064 347.844 115.144 348.528 115.24 349.144C115.344 349.752 115.46 350.28 115.588 350.728C115.716 351.168 115.856 351.508 116.008 351.748C116.16 351.98 116.32 352.096 116.488 352.096C116.608 352.096 116.696 351.964 116.752 351.7C116.816 351.436 116.86 350.992 116.884 350.368C116.972 350.464 117.076 350.556 117.196 350.644C117.324 350.724 117.436 350.788 117.532 350.836C117.492 351.372 117.428 351.792 117.34 352.096C117.26 352.4 117.144 352.616 116.992 352.744C116.84 352.88 116.636 352.948 116.38 352.948C116.068 352.948 115.792 352.812 115.552 352.54C115.312 352.276 115.1 351.896 114.916 351.4C114.74 350.904 114.588 350.32 114.46 349.648C114.34 348.968 114.244 348.216 114.172 347.392C114.1 346.568 114.044 345.696 114.004 344.776C113.972 343.848 113.952 342.9 113.944 341.932ZM115.288 342.4L115.804 341.944C116.068 342.12 116.34 342.328 116.62 342.568C116.908 342.8 117.128 343.004 117.28 343.18L116.728 343.708C116.576 343.516 116.364 343.3 116.092 343.06C115.82 342.812 115.552 342.592 115.288 342.4ZM116.344 345.652L117.16 345.82C116.744 347.38 116.168 348.752 115.432 349.936C114.696 351.12 113.788 352.092 112.708 352.852C112.668 352.804 112.608 352.74 112.528 352.66C112.448 352.58 112.364 352.504 112.276 352.432C112.196 352.36 112.12 352.304 112.048 352.264C113.136 351.576 114.032 350.672 114.736 349.552C115.44 348.424 115.976 347.124 116.344 345.652ZM110.98 346.384V348.412H112.552V346.384H110.98ZM110.284 345.652H113.284V349.144H110.284V345.652Z" fill="#76848D"/>
<rect width="10" height="10" transform="translate(28 361)" fill="#F5E386"/>
<path d="M46.624 371.844H57.388V372.576H46.624V371.844ZM46.696 364.044H57.328V364.788H46.696V364.044ZM47.524 370.08H56.632V370.8H47.524V370.08ZM51.508 362.832H52.408V372.192H51.508V362.832ZM55.684 361.992L56.164 362.688C55.628 362.784 55.02 362.872 54.34 362.952C53.668 363.024 52.96 363.088 52.216 363.144C51.472 363.192 50.724 363.236 49.972 363.276C49.22 363.308 48.492 363.328 47.788 363.336C47.788 363.232 47.764 363.112 47.716 362.976C47.676 362.832 47.636 362.716 47.596 362.628C48.292 362.604 49.012 362.576 49.756 362.544C50.508 362.504 51.244 362.46 51.964 362.412C52.692 362.356 53.372 362.292 54.004 362.22C54.644 362.148 55.204 362.072 55.684 361.992ZM48.784 367.68V368.592H55.264V367.68H48.784ZM48.784 366.168V367.068H55.264V366.168H48.784ZM47.908 365.52H56.176V369.252H47.908V365.52ZM58.744 365.364H69.304V366.288H58.744V365.364ZM64.588 365.736C64.86 366.704 65.216 367.608 65.656 368.448C66.104 369.28 66.648 370.008 67.288 370.632C67.936 371.256 68.672 371.744 69.496 372.096C69.424 372.16 69.344 372.24 69.256 372.336C69.176 372.44 69.096 372.544 69.016 372.648C68.936 372.752 68.872 372.848 68.824 372.936C67.96 372.52 67.196 371.972 66.532 371.292C65.876 370.612 65.316 369.82 64.852 368.916C64.388 368.012 64.004 367.024 63.7 365.952L64.588 365.736ZM63.532 361.932H64.504C64.504 362.452 64.488 363.032 64.456 363.672C64.432 364.304 64.372 364.964 64.276 365.652C64.18 366.332 64.02 367.02 63.796 367.716C63.58 368.404 63.276 369.072 62.884 369.72C62.5 370.36 62.008 370.956 61.408 371.508C60.808 372.06 60.072 372.536 59.2 372.936C59.128 372.816 59.024 372.684 58.888 372.54C58.76 372.404 58.636 372.288 58.516 372.192C59.364 371.824 60.076 371.384 60.652 370.872C61.236 370.36 61.712 369.8 62.08 369.192C62.448 368.584 62.732 367.956 62.932 367.308C63.132 366.66 63.272 366.016 63.352 365.376C63.432 364.728 63.48 364.112 63.496 363.528C63.52 362.944 63.532 362.412 63.532 361.932ZM72.292 362.496H79.6V363.372H72.292V362.496ZM71.908 362.496H72.832V366.06C72.832 366.564 72.812 367.116 72.772 367.716C72.732 368.316 72.656 368.928 72.544 369.552C72.44 370.176 72.28 370.784 72.064 371.376C71.856 371.96 71.576 372.492 71.224 372.972C71.176 372.916 71.104 372.848 71.008 372.768C70.92 372.688 70.828 372.612 70.732 372.54C70.636 372.468 70.552 372.412 70.48 372.372C70.808 371.916 71.068 371.424 71.26 370.896C71.452 370.36 71.592 369.812 71.68 369.252C71.776 368.684 71.836 368.128 71.86 367.584C71.892 367.04 71.908 366.532 71.908 366.06V362.496ZM79.12 362.496H80.02C80.012 363.632 80.008 364.684 80.008 365.652C80.008 366.62 80.02 367.488 80.044 368.256C80.068 369.024 80.108 369.68 80.164 370.224C80.22 370.768 80.296 371.184 80.392 371.472C80.496 371.76 80.628 371.904 80.788 371.904C80.852 371.904 80.9 371.824 80.932 371.664C80.972 371.496 81 371.276 81.016 371.004C81.04 370.724 81.056 370.42 81.064 370.092C81.136 370.196 81.232 370.308 81.352 370.428C81.472 370.548 81.572 370.644 81.652 370.716C81.628 371.244 81.584 371.664 81.52 371.976C81.456 372.288 81.36 372.508 81.232 372.636C81.112 372.772 80.94 372.84 80.716 372.84C80.308 372.84 79.992 372.62 79.768 372.18C79.552 371.74 79.4 371.088 79.312 370.224C79.224 369.36 79.172 368.284 79.156 366.996C79.14 365.7 79.128 364.2 79.12 362.496ZM73.384 365.1L74.128 364.704C74.552 365.184 74.988 365.704 75.436 366.264C75.884 366.816 76.32 367.372 76.744 367.932C77.176 368.492 77.568 369.032 77.92 369.552C78.28 370.064 78.58 370.528 78.82 370.944L77.98 371.424C77.756 371.024 77.472 370.564 77.128 370.044C76.784 369.516 76.4 368.968 75.976 368.4C75.56 367.824 75.128 367.252 74.68 366.684C74.24 366.116 73.808 365.588 73.384 365.1ZM77.32 364.212L78.112 364.44C77.872 365.16 77.592 365.868 77.272 366.564C76.952 367.26 76.596 367.924 76.204 368.556C75.812 369.18 75.392 369.752 74.944 370.272C74.504 370.792 74.04 371.232 73.552 371.592C73.496 371.52 73.428 371.44 73.348 371.352C73.268 371.264 73.188 371.18 73.108 371.1C73.028 371.02 72.948 370.952 72.868 370.896C73.348 370.584 73.808 370.184 74.248 369.696C74.688 369.208 75.1 368.668 75.484 368.076C75.876 367.476 76.224 366.848 76.528 366.192C76.84 365.536 77.104 364.876 77.32 364.212ZM83.02 362.4H85.684V363.216H83.836V372.924H83.02V362.4ZM85.528 362.4H85.684L85.816 362.364L86.404 362.712C86.228 363.2 86.036 363.724 85.828 364.284C85.62 364.836 85.416 365.352 85.216 365.832C85.648 366.336 85.932 366.808 86.068 367.248C86.212 367.68 86.284 368.084 86.284 368.46C86.284 368.78 86.248 369.064 86.176 369.312C86.104 369.552 85.984 369.736 85.816 369.864C85.728 369.928 85.632 369.976 85.528 370.008C85.424 370.04 85.308 370.068 85.18 370.092C85.068 370.1 84.94 370.104 84.796 370.104C84.66 370.104 84.52 370.104 84.376 370.104C84.368 370 84.344 369.872 84.304 369.72C84.272 369.56 84.224 369.424 84.16 369.312C84.296 369.32 84.42 369.324 84.532 369.324C84.652 369.324 84.76 369.324 84.856 369.324C85.016 369.308 85.14 369.272 85.228 369.216C85.316 369.144 85.38 369.032 85.42 368.88C85.46 368.728 85.48 368.56 85.48 368.376C85.48 368.048 85.408 367.68 85.264 367.272C85.12 366.864 84.832 366.42 84.4 365.94C84.512 365.66 84.62 365.372 84.724 365.076C84.828 364.78 84.928 364.484 85.024 364.188C85.128 363.892 85.22 363.612 85.3 363.348C85.388 363.084 85.464 362.852 85.528 362.652V362.4ZM90.112 362.316C90.296 362.62 90.528 362.936 90.808 363.264C91.088 363.584 91.392 363.9 91.72 364.212C92.056 364.524 92.396 364.816 92.74 365.088C93.084 365.352 93.42 365.58 93.748 365.772C93.692 365.836 93.632 365.92 93.568 366.024C93.512 366.12 93.46 366.22 93.412 366.324C93.364 366.42 93.32 366.508 93.28 366.588C92.824 366.276 92.356 365.908 91.876 365.484C91.396 365.052 90.944 364.6 90.52 364.128C90.096 363.648 89.74 363.188 89.452 362.748L90.112 362.316ZM89.668 361.836L90.46 362.112C90.164 362.728 89.808 363.316 89.392 363.876C88.976 364.436 88.528 364.956 88.048 365.436C87.568 365.908 87.072 366.32 86.56 366.672C86.528 366.608 86.476 366.532 86.404 366.444C86.34 366.348 86.272 366.256 86.2 366.168C86.136 366.072 86.076 365.996 86.02 365.94C86.516 365.628 86.992 365.26 87.448 364.836C87.904 364.412 88.324 363.944 88.708 363.432C89.092 362.92 89.412 362.388 89.668 361.836ZM87.76 365.64H91.828V366.42H87.76V365.64ZM87.052 367.74L87.772 367.56C87.892 367.856 88.004 368.18 88.108 368.532C88.22 368.876 88.316 369.216 88.396 369.552C88.484 369.88 88.544 370.172 88.576 370.428L87.832 370.644C87.8 370.38 87.744 370.08 87.664 369.744C87.584 369.408 87.492 369.068 87.388 368.724C87.284 368.372 87.172 368.044 87.052 367.74ZM89.344 367.404L90.064 367.308C90.144 367.604 90.22 367.928 90.292 368.28C90.364 368.624 90.424 368.96 90.472 369.288C90.528 369.608 90.564 369.9 90.58 370.164L89.836 370.284C89.82 370.028 89.784 369.732 89.728 369.396C89.68 369.06 89.62 368.72 89.548 368.376C89.484 368.024 89.416 367.7 89.344 367.404ZM92.272 367.308L93.076 367.524C92.884 368.004 92.672 368.512 92.44 369.048C92.208 369.584 91.968 370.104 91.72 370.608C91.48 371.112 91.248 371.552 91.024 371.928L90.376 371.724C90.536 371.436 90.704 371.112 90.88 370.752C91.064 370.384 91.24 370 91.408 369.6C91.576 369.192 91.736 368.792 91.888 368.4C92.04 368.008 92.168 367.644 92.272 367.308ZM86.404 371.58H93.472V372.384H86.404V371.58ZM100.072 362.592H105.4V363.384H100.072V362.592ZM102.436 363.084L103.252 363.288C103.132 363.608 103.008 363.932 102.88 364.26C102.76 364.58 102.644 364.86 102.532 365.1L101.824 364.896C101.936 364.648 102.048 364.352 102.16 364.008C102.28 363.656 102.372 363.348 102.436 363.084ZM100.372 364.656H105.052V370.296H104.212V365.352H101.188V370.32H100.372V364.656ZM102.34 365.904H103.096C103.088 366.792 103.064 367.58 103.024 368.268C102.984 368.948 102.904 369.544 102.784 370.056C102.664 370.568 102.484 371.012 102.244 371.388C102.004 371.756 101.684 372.072 101.284 372.336C100.884 372.6 100.376 372.824 99.76 373.008C99.728 372.912 99.664 372.8 99.568 372.672C99.472 372.552 99.384 372.456 99.304 372.384C99.88 372.216 100.352 372.016 100.72 371.784C101.088 371.552 101.38 371.272 101.596 370.944C101.82 370.616 101.98 370.22 102.076 369.756C102.18 369.292 102.248 368.744 102.28 368.112C102.312 367.48 102.332 366.744 102.34 365.904ZM102.712 370.872L103.252 370.392C103.524 370.592 103.808 370.812 104.104 371.052C104.4 371.292 104.68 371.528 104.944 371.76C105.208 371.992 105.424 372.2 105.592 372.384L105.016 372.936C104.856 372.752 104.644 372.54 104.38 372.3C104.124 372.06 103.848 371.816 103.552 371.568C103.256 371.312 102.976 371.08 102.712 370.872ZM97.192 361.908L97.972 362.124C97.652 362.932 97.24 363.72 96.736 364.488C96.24 365.256 95.672 365.928 95.032 366.504C94.984 366.448 94.92 366.384 94.84 366.312C94.768 366.24 94.692 366.172 94.612 366.108C94.54 366.036 94.472 365.98 94.408 365.94C94.816 365.596 95.196 365.2 95.548 364.752C95.908 364.304 96.228 363.836 96.508 363.348C96.788 362.852 97.016 362.372 97.192 361.908ZM95.404 370.212L96.004 369.756C96.3 370.012 96.612 370.292 96.94 370.596C97.268 370.9 97.576 371.204 97.864 371.508C98.152 371.804 98.384 372.068 98.56 372.3L97.912 372.84C97.744 372.6 97.52 372.324 97.24 372.012C96.96 371.708 96.66 371.396 96.34 371.076C96.02 370.756 95.708 370.468 95.404 370.212ZM95.212 367.368H98.896V368.16H95.212V367.368ZM96.46 365.424L97.048 365.076C97.28 365.292 97.508 365.528 97.732 365.784C97.956 366.04 98.128 366.264 98.248 366.456L97.648 366.876C97.52 366.676 97.344 366.44 97.12 366.168C96.896 365.896 96.676 365.648 96.46 365.424ZM98.62 367.368H98.752L98.896 367.32L99.472 367.668C99.296 368.092 99.08 368.54 98.824 369.012C98.568 369.476 98.304 369.92 98.032 370.344C97.76 370.768 97.512 371.132 97.288 371.436C97.208 371.372 97.104 371.292 96.976 371.196C96.848 371.1 96.736 371.024 96.64 370.968C96.792 370.776 96.96 370.54 97.144 370.26C97.328 369.98 97.516 369.68 97.708 369.36C97.9 369.04 98.072 368.724 98.224 368.412C98.384 368.1 98.516 367.816 98.62 367.56V367.368ZM96.964 363.228L97.492 362.7C97.788 362.98 98.096 363.292 98.416 363.636C98.744 363.972 99.048 364.3 99.328 364.62C99.608 364.94 99.828 365.224 99.988 365.472L99.436 366.108C99.268 365.852 99.048 365.556 98.776 365.22C98.504 364.884 98.208 364.544 97.888 364.2C97.568 363.848 97.26 363.524 96.964 363.228ZM106.516 364.848H109.72V365.7H106.516V364.848ZM107.788 362.064H108.628V370.104H107.788V362.064ZM106.432 370.452C106.856 370.276 107.36 370.052 107.944 369.78C108.536 369.5 109.136 369.208 109.744 368.904L109.996 369.708C109.444 369.996 108.884 370.284 108.316 370.572C107.756 370.852 107.24 371.108 106.768 371.34L106.432 370.452ZM109.924 363.696H117.388V364.524H109.924V363.696ZM109.528 370.764C109.888 370.684 110.296 370.588 110.752 370.476C111.216 370.356 111.708 370.228 112.228 370.092C112.748 369.956 113.268 369.82 113.788 369.684L113.872 370.44C113.152 370.648 112.432 370.856 111.712 371.064C110.992 371.272 110.34 371.46 109.756 371.628L109.528 370.764ZM113.944 361.932H114.808C114.808 362.876 114.824 363.784 114.856 364.656C114.888 365.52 114.936 366.332 115 367.092C115.064 367.844 115.144 368.528 115.24 369.144C115.344 369.752 115.46 370.28 115.588 370.728C115.716 371.168 115.856 371.508 116.008 371.748C116.16 371.98 116.32 372.096 116.488 372.096C116.608 372.096 116.696 371.964 116.752 371.7C116.816 371.436 116.86 370.992 116.884 370.368C116.972 370.464 117.076 370.556 117.196 370.644C117.324 370.724 117.436 370.788 117.532 370.836C117.492 371.372 117.428 371.792 117.34 372.096C117.26 372.4 117.144 372.616 116.992 372.744C116.84 372.88 116.636 372.948 116.38 372.948C116.068 372.948 115.792 372.812 115.552 372.54C115.312 372.276 115.1 371.896 114.916 371.4C114.74 370.904 114.588 370.32 114.46 369.648C114.34 368.968 114.244 368.216 114.172 367.392C114.1 366.568 114.044 365.696 114.004 364.776C113.972 363.848 113.952 362.9 113.944 361.932ZM115.288 362.4L115.804 361.944C116.068 362.12 116.34 362.328 116.62 362.568C116.908 362.8 117.128 363.004 117.28 363.18L116.728 363.708C116.576 363.516 116.364 363.3 116.092 363.06C115.82 362.812 115.552 362.592 115.288 362.4ZM116.344 365.652L117.16 365.82C116.744 367.38 116.168 368.752 115.432 369.936C114.696 371.12 113.788 372.092 112.708 372.852C112.668 372.804 112.608 372.74 112.528 372.66C112.448 372.58 112.364 372.504 112.276 372.432C112.196 372.36 112.12 372.304 112.048 372.264C113.136 371.576 114.032 370.672 114.736 369.552C115.44 368.424 115.976 367.124 116.344 365.652ZM110.98 366.384V368.412H112.552V366.384H110.98ZM110.284 365.652H113.284V369.144H110.284V365.652Z" fill="#76848D"/>
<rect width="10" height="10" transform="translate(28 381)" fill="#88C591"/>
<path d="M51.448 381.92L52.408 382.1C52.256 382.78 52.076 383.444 51.868 384.092C51.66 384.74 51.428 385.348 51.172 385.916C50.916 386.476 50.636 386.968 50.332 387.392C50.276 387.344 50.192 387.288 50.08 387.224C49.968 387.152 49.856 387.088 49.744 387.032C49.64 386.968 49.548 386.92 49.468 386.888C49.78 386.488 50.06 386.024 50.308 385.496C50.556 384.968 50.776 384.4 50.968 383.792C51.168 383.184 51.328 382.56 51.448 381.92ZM51.328 383.96H56.476V384.848H50.932L51.328 383.96ZM56.212 383.96H56.344L56.524 383.912L57.184 384.272C57.08 384.664 56.956 385.06 56.812 385.46C56.668 385.86 56.516 386.24 56.356 386.6C56.204 386.952 56.06 387.268 55.924 387.548C55.86 387.508 55.78 387.468 55.684 387.428C55.588 387.38 55.496 387.332 55.408 387.284C55.32 387.236 55.236 387.196 55.156 387.164C55.284 386.916 55.416 386.62 55.552 386.276C55.688 385.932 55.816 385.576 55.936 385.208C56.056 384.84 56.148 384.5 56.212 384.188V383.96ZM46.684 383.396L47.224 382.748C47.496 382.892 47.78 383.056 48.076 383.24C48.38 383.424 48.664 383.612 48.928 383.804C49.192 383.988 49.408 384.164 49.576 384.332L49 385.064C48.84 384.896 48.628 384.712 48.364 384.512C48.108 384.312 47.832 384.112 47.536 383.912C47.248 383.712 46.964 383.54 46.684 383.396ZM46.504 391.124C46.736 390.828 46.996 390.48 47.284 390.08C47.572 389.672 47.864 389.244 48.16 388.796C48.464 388.34 48.744 387.892 49 387.452L49.696 388.052C49.456 388.46 49.2 388.88 48.928 389.312C48.664 389.744 48.392 390.168 48.112 390.584C47.84 391 47.58 391.388 47.332 391.748L46.504 391.124ZM53.668 386.624C53.836 387.496 54.08 388.296 54.4 389.024C54.728 389.752 55.148 390.38 55.66 390.908C56.172 391.428 56.796 391.82 57.532 392.084C57.468 392.14 57.396 392.216 57.316 392.312C57.236 392.408 57.16 392.504 57.088 392.6C57.024 392.704 56.972 392.796 56.932 392.876C56.156 392.548 55.504 392.096 54.976 391.52C54.448 390.936 54.016 390.244 53.68 389.444C53.352 388.636 53.088 387.74 52.888 386.756L53.668 386.624ZM52.828 385.436H53.788V386.192C53.788 386.584 53.764 387.008 53.716 387.464C53.668 387.92 53.568 388.392 53.416 388.88C53.264 389.36 53.032 389.844 52.72 390.332C52.416 390.812 52.008 391.28 51.496 391.736C50.984 392.192 50.34 392.616 49.564 393.008C49.524 392.936 49.46 392.856 49.372 392.768C49.292 392.68 49.208 392.592 49.12 392.504C49.04 392.424 48.96 392.36 48.88 392.312C49.616 391.952 50.224 391.564 50.704 391.148C51.192 390.732 51.576 390.308 51.856 389.876C52.144 389.436 52.356 389 52.492 388.568C52.636 388.128 52.728 387.708 52.768 387.308C52.808 386.9 52.828 386.524 52.828 386.18V385.436ZM58.648 388.424H69.364V389.228H58.648V388.424ZM58.828 382.436H69.16V383.24H58.828V382.436ZM66.304 388.748L67.156 389C66.884 389.648 66.516 390.204 66.052 390.668C65.588 391.124 65.024 391.504 64.36 391.808C63.696 392.112 62.924 392.352 62.044 392.528C61.164 392.712 60.176 392.848 59.08 392.936C59.048 392.808 58.996 392.672 58.924 392.528C58.86 392.384 58.788 392.26 58.708 392.156C60.116 392.076 61.324 391.916 62.332 391.676C63.34 391.428 64.168 391.068 64.816 390.596C65.472 390.124 65.968 389.508 66.304 388.748ZM60.232 390.788L60.88 390.152C61.648 390.288 62.412 390.44 63.172 390.608C63.94 390.776 64.68 390.952 65.392 391.136C66.112 391.32 66.784 391.508 67.408 391.7C68.04 391.892 68.6 392.08 69.088 392.264L68.32 392.96C67.72 392.712 66.992 392.456 66.136 392.192C65.288 391.936 64.36 391.688 63.352 391.448C62.352 391.208 61.312 390.988 60.232 390.788ZM62.104 382.736H62.956V386.936H62.104V382.736ZM64.912 382.736H65.764V386.936H64.912V382.736ZM60.28 385.004V386.636H67.768V385.004H60.28ZM59.428 384.26H68.656V387.368H59.428V384.26ZM60.232 390.788C60.512 390.484 60.8 390.132 61.096 389.732C61.4 389.332 61.692 388.92 61.972 388.496C62.252 388.072 62.488 387.668 62.68 387.284L63.592 387.5C63.4 387.884 63.168 388.28 62.896 388.688C62.632 389.088 62.36 389.472 62.08 389.84C61.8 390.208 61.544 390.524 61.312 390.788H60.232ZM72.292 382.496H79.6V383.372H72.292V382.496ZM71.908 382.496H72.832V386.06C72.832 386.564 72.812 387.116 72.772 387.716C72.732 388.316 72.656 388.928 72.544 389.552C72.44 390.176 72.28 390.784 72.064 391.376C71.856 391.96 71.576 392.492 71.224 392.972C71.176 392.916 71.104 392.848 71.008 392.768C70.92 392.688 70.828 392.612 70.732 392.54C70.636 392.468 70.552 392.412 70.48 392.372C70.808 391.916 71.068 391.424 71.26 390.896C71.452 390.36 71.592 389.812 71.68 389.252C71.776 388.684 71.836 388.128 71.86 387.584C71.892 387.04 71.908 386.532 71.908 386.06V382.496ZM79.12 382.496H80.02C80.012 383.632 80.008 384.684 80.008 385.652C80.008 386.62 80.02 387.488 80.044 388.256C80.068 389.024 80.108 389.68 80.164 390.224C80.22 390.768 80.296 391.184 80.392 391.472C80.496 391.76 80.628 391.904 80.788 391.904C80.852 391.904 80.9 391.824 80.932 391.664C80.972 391.496 81 391.276 81.016 391.004C81.04 390.724 81.056 390.42 81.064 390.092C81.136 390.196 81.232 390.308 81.352 390.428C81.472 390.548 81.572 390.644 81.652 390.716C81.628 391.244 81.584 391.664 81.52 391.976C81.456 392.288 81.36 392.508 81.232 392.636C81.112 392.772 80.94 392.84 80.716 392.84C80.308 392.84 79.992 392.62 79.768 392.18C79.552 391.74 79.4 391.088 79.312 390.224C79.224 389.36 79.172 388.284 79.156 386.996C79.14 385.7 79.128 384.2 79.12 382.496ZM73.384 385.1L74.128 384.704C74.552 385.184 74.988 385.704 75.436 386.264C75.884 386.816 76.32 387.372 76.744 387.932C77.176 388.492 77.568 389.032 77.92 389.552C78.28 390.064 78.58 390.528 78.82 390.944L77.98 391.424C77.756 391.024 77.472 390.564 77.128 390.044C76.784 389.516 76.4 388.968 75.976 388.4C75.56 387.824 75.128 387.252 74.68 386.684C74.24 386.116 73.808 385.588 73.384 385.1ZM77.32 384.212L78.112 384.44C77.872 385.16 77.592 385.868 77.272 386.564C76.952 387.26 76.596 387.924 76.204 388.556C75.812 389.18 75.392 389.752 74.944 390.272C74.504 390.792 74.04 391.232 73.552 391.592C73.496 391.52 73.428 391.44 73.348 391.352C73.268 391.264 73.188 391.18 73.108 391.1C73.028 391.02 72.948 390.952 72.868 390.896C73.348 390.584 73.808 390.184 74.248 389.696C74.688 389.208 75.1 388.668 75.484 388.076C75.876 387.476 76.224 386.848 76.528 386.192C76.84 385.536 77.104 384.876 77.32 384.212ZM83.02 382.4H85.684V383.216H83.836V392.924H83.02V382.4ZM85.528 382.4H85.684L85.816 382.364L86.404 382.712C86.228 383.2 86.036 383.724 85.828 384.284C85.62 384.836 85.416 385.352 85.216 385.832C85.648 386.336 85.932 386.808 86.068 387.248C86.212 387.68 86.284 388.084 86.284 388.46C86.284 388.78 86.248 389.064 86.176 389.312C86.104 389.552 85.984 389.736 85.816 389.864C85.728 389.928 85.632 389.976 85.528 390.008C85.424 390.04 85.308 390.068 85.18 390.092C85.068 390.1 84.94 390.104 84.796 390.104C84.66 390.104 84.52 390.104 84.376 390.104C84.368 390 84.344 389.872 84.304 389.72C84.272 389.56 84.224 389.424 84.16 389.312C84.296 389.32 84.42 389.324 84.532 389.324C84.652 389.324 84.76 389.324 84.856 389.324C85.016 389.308 85.14 389.272 85.228 389.216C85.316 389.144 85.38 389.032 85.42 388.88C85.46 388.728 85.48 388.56 85.48 388.376C85.48 388.048 85.408 387.68 85.264 387.272C85.12 386.864 84.832 386.42 84.4 385.94C84.512 385.66 84.62 385.372 84.724 385.076C84.828 384.78 84.928 384.484 85.024 384.188C85.128 383.892 85.22 383.612 85.3 383.348C85.388 383.084 85.464 382.852 85.528 382.652V382.4ZM90.112 382.316C90.296 382.62 90.528 382.936 90.808 383.264C91.088 383.584 91.392 383.9 91.72 384.212C92.056 384.524 92.396 384.816 92.74 385.088C93.084 385.352 93.42 385.58 93.748 385.772C93.692 385.836 93.632 385.92 93.568 386.024C93.512 386.12 93.46 386.22 93.412 386.324C93.364 386.42 93.32 386.508 93.28 386.588C92.824 386.276 92.356 385.908 91.876 385.484C91.396 385.052 90.944 384.6 90.52 384.128C90.096 383.648 89.74 383.188 89.452 382.748L90.112 382.316ZM89.668 381.836L90.46 382.112C90.164 382.728 89.808 383.316 89.392 383.876C88.976 384.436 88.528 384.956 88.048 385.436C87.568 385.908 87.072 386.32 86.56 386.672C86.528 386.608 86.476 386.532 86.404 386.444C86.34 386.348 86.272 386.256 86.2 386.168C86.136 386.072 86.076 385.996 86.02 385.94C86.516 385.628 86.992 385.26 87.448 384.836C87.904 384.412 88.324 383.944 88.708 383.432C89.092 382.92 89.412 382.388 89.668 381.836ZM87.76 385.64H91.828V386.42H87.76V385.64ZM87.052 387.74L87.772 387.56C87.892 387.856 88.004 388.18 88.108 388.532C88.22 388.876 88.316 389.216 88.396 389.552C88.484 389.88 88.544 390.172 88.576 390.428L87.832 390.644C87.8 390.38 87.744 390.08 87.664 389.744C87.584 389.408 87.492 389.068 87.388 388.724C87.284 388.372 87.172 388.044 87.052 387.74ZM89.344 387.404L90.064 387.308C90.144 387.604 90.22 387.928 90.292 388.28C90.364 388.624 90.424 388.96 90.472 389.288C90.528 389.608 90.564 389.9 90.58 390.164L89.836 390.284C89.82 390.028 89.784 389.732 89.728 389.396C89.68 389.06 89.62 388.72 89.548 388.376C89.484 388.024 89.416 387.7 89.344 387.404ZM92.272 387.308L93.076 387.524C92.884 388.004 92.672 388.512 92.44 389.048C92.208 389.584 91.968 390.104 91.72 390.608C91.48 391.112 91.248 391.552 91.024 391.928L90.376 391.724C90.536 391.436 90.704 391.112 90.88 390.752C91.064 390.384 91.24 390 91.408 389.6C91.576 389.192 91.736 388.792 91.888 388.4C92.04 388.008 92.168 387.644 92.272 387.308ZM86.404 391.58H93.472V392.384H86.404V391.58ZM100.072 382.592H105.4V383.384H100.072V382.592ZM102.436 383.084L103.252 383.288C103.132 383.608 103.008 383.932 102.88 384.26C102.76 384.58 102.644 384.86 102.532 385.1L101.824 384.896C101.936 384.648 102.048 384.352 102.16 384.008C102.28 383.656 102.372 383.348 102.436 383.084ZM100.372 384.656H105.052V390.296H104.212V385.352H101.188V390.32H100.372V384.656ZM102.34 385.904H103.096C103.088 386.792 103.064 387.58 103.024 388.268C102.984 388.948 102.904 389.544 102.784 390.056C102.664 390.568 102.484 391.012 102.244 391.388C102.004 391.756 101.684 392.072 101.284 392.336C100.884 392.6 100.376 392.824 99.76 393.008C99.728 392.912 99.664 392.8 99.568 392.672C99.472 392.552 99.384 392.456 99.304 392.384C99.88 392.216 100.352 392.016 100.72 391.784C101.088 391.552 101.38 391.272 101.596 390.944C101.82 390.616 101.98 390.22 102.076 389.756C102.18 389.292 102.248 388.744 102.28 388.112C102.312 387.48 102.332 386.744 102.34 385.904ZM102.712 390.872L103.252 390.392C103.524 390.592 103.808 390.812 104.104 391.052C104.4 391.292 104.68 391.528 104.944 391.76C105.208 391.992 105.424 392.2 105.592 392.384L105.016 392.936C104.856 392.752 104.644 392.54 104.38 392.3C104.124 392.06 103.848 391.816 103.552 391.568C103.256 391.312 102.976 391.08 102.712 390.872ZM97.192 381.908L97.972 382.124C97.652 382.932 97.24 383.72 96.736 384.488C96.24 385.256 95.672 385.928 95.032 386.504C94.984 386.448 94.92 386.384 94.84 386.312C94.768 386.24 94.692 386.172 94.612 386.108C94.54 386.036 94.472 385.98 94.408 385.94C94.816 385.596 95.196 385.2 95.548 384.752C95.908 384.304 96.228 383.836 96.508 383.348C96.788 382.852 97.016 382.372 97.192 381.908ZM95.404 390.212L96.004 389.756C96.3 390.012 96.612 390.292 96.94 390.596C97.268 390.9 97.576 391.204 97.864 391.508C98.152 391.804 98.384 392.068 98.56 392.3L97.912 392.84C97.744 392.6 97.52 392.324 97.24 392.012C96.96 391.708 96.66 391.396 96.34 391.076C96.02 390.756 95.708 390.468 95.404 390.212ZM95.212 387.368H98.896V388.16H95.212V387.368ZM96.46 385.424L97.048 385.076C97.28 385.292 97.508 385.528 97.732 385.784C97.956 386.04 98.128 386.264 98.248 386.456L97.648 386.876C97.52 386.676 97.344 386.44 97.12 386.168C96.896 385.896 96.676 385.648 96.46 385.424ZM98.62 387.368H98.752L98.896 387.32L99.472 387.668C99.296 388.092 99.08 388.54 98.824 389.012C98.568 389.476 98.304 389.92 98.032 390.344C97.76 390.768 97.512 391.132 97.288 391.436C97.208 391.372 97.104 391.292 96.976 391.196C96.848 391.1 96.736 391.024 96.64 390.968C96.792 390.776 96.96 390.54 97.144 390.26C97.328 389.98 97.516 389.68 97.708 389.36C97.9 389.04 98.072 388.724 98.224 388.412C98.384 388.1 98.516 387.816 98.62 387.56V387.368ZM96.964 383.228L97.492 382.7C97.788 382.98 98.096 383.292 98.416 383.636C98.744 383.972 99.048 384.3 99.328 384.62C99.608 384.94 99.828 385.224 99.988 385.472L99.436 386.108C99.268 385.852 99.048 385.556 98.776 385.22C98.504 384.884 98.208 384.544 97.888 384.2C97.568 383.848 97.26 383.524 96.964 383.228ZM106.516 384.848H109.72V385.7H106.516V384.848ZM107.788 382.064H108.628V390.104H107.788V382.064ZM106.432 390.452C106.856 390.276 107.36 390.052 107.944 389.78C108.536 389.5 109.136 389.208 109.744 388.904L109.996 389.708C109.444 389.996 108.884 390.284 108.316 390.572C107.756 390.852 107.24 391.108 106.768 391.34L106.432 390.452ZM109.924 383.696H117.388V384.524H109.924V383.696ZM109.528 390.764C109.888 390.684 110.296 390.588 110.752 390.476C111.216 390.356 111.708 390.228 112.228 390.092C112.748 389.956 113.268 389.82 113.788 389.684L113.872 390.44C113.152 390.648 112.432 390.856 111.712 391.064C110.992 391.272 110.34 391.46 109.756 391.628L109.528 390.764ZM113.944 381.932H114.808C114.808 382.876 114.824 383.784 114.856 384.656C114.888 385.52 114.936 386.332 115 387.092C115.064 387.844 115.144 388.528 115.24 389.144C115.344 389.752 115.46 390.28 115.588 390.728C115.716 391.168 115.856 391.508 116.008 391.748C116.16 391.98 116.32 392.096 116.488 392.096C116.608 392.096 116.696 391.964 116.752 391.7C116.816 391.436 116.86 390.992 116.884 390.368C116.972 390.464 117.076 390.556 117.196 390.644C117.324 390.724 117.436 390.788 117.532 390.836C117.492 391.372 117.428 391.792 117.34 392.096C117.26 392.4 117.144 392.616 116.992 392.744C116.84 392.88 116.636 392.948 116.38 392.948C116.068 392.948 115.792 392.812 115.552 392.54C115.312 392.276 115.1 391.896 114.916 391.4C114.74 390.904 114.588 390.32 114.46 389.648C114.34 388.968 114.244 388.216 114.172 387.392C114.1 386.568 114.044 385.696 114.004 384.776C113.972 383.848 113.952 382.9 113.944 381.932ZM115.288 382.4L115.804 381.944C116.068 382.12 116.34 382.328 116.62 382.568C116.908 382.8 117.128 383.004 117.28 383.18L116.728 383.708C116.576 383.516 116.364 383.3 116.092 383.06C115.82 382.812 115.552 382.592 115.288 382.4ZM116.344 385.652L117.16 385.82C116.744 387.38 116.168 388.752 115.432 389.936C114.696 391.12 113.788 392.092 112.708 392.852C112.668 392.804 112.608 392.74 112.528 392.66C112.448 392.58 112.364 392.504 112.276 392.432C112.196 392.36 112.12 392.304 112.048 392.264C113.136 391.576 114.032 390.672 114.736 389.552C115.44 388.424 115.976 387.124 116.344 385.652ZM110.98 386.384V388.412H112.552V386.384H110.98ZM110.284 385.652H113.284V389.144H110.284V385.652Z" fill="#76848D"/>
</svg>
