<svg width="147" height="165" viewBox="0 0 147 165" fill="none" xmlns="http://www.w3.org/2000/svg">
<path d="M93.3383 3.434L92.3163 3.07C92.6663 1.334 93.9823 0.0879999 96.0683 0.0879999C98.0843 0.0879999 99.3163 1.25 99.3163 3.028C99.3163 3.966 98.9103 4.904 98.4063 5.576C98.1543 5.926 97.8323 6.262 97.4543 6.612C96.6843 7.298 96.1383 7.662 95.3403 8.166L94.2623 8.838H99.6803V10H92.0503V9.048L94.1783 7.634C94.5563 7.396 94.8223 7.214 94.9763 7.102C95.1303 7.004 95.3823 6.822 95.7183 6.584C96.0543 6.346 96.3063 6.136 96.4743 5.982C96.6283 5.828 96.8383 5.632 97.0763 5.38C97.7203 4.68 97.9583 4.036 98.0283 3.154C98.0283 1.88 97.2023 1.306 95.9843 1.306C95.2283 1.306 94.6263 1.516 94.1923 1.936C93.7583 2.356 93.4643 2.86 93.3383 3.434ZM100.651 5.1C100.651 3.588 101.001 2.37 101.715 1.46C102.415 0.55 103.451 0.0879999 104.809 0.0879999C107.595 0.0879999 108.981 1.922 108.981 5.1C108.981 6.626 108.631 7.83 107.945 8.74C107.245 9.65 106.209 10.112 104.837 10.112C103.521 10.112 102.499 9.65 101.757 8.726C101.015 7.802 100.651 6.598 100.651 5.1ZM101.939 5.1C101.939 7.494 103.031 8.922 104.837 8.922C106.741 8.922 107.693 7.648 107.693 5.1C107.693 2.552 106.727 1.278 104.809 1.278C102.863 1.278 101.939 2.678 101.939 5.1ZM115.64 1.39H109.704V0.199999H117.138V0.998L112.266 10H110.936L115.64 1.39ZM117.975 10C117.457 10.056 117.065 9.762 117.065 9.258C117.065 8.768 117.373 8.46 117.919 8.46C118.535 8.46 118.941 8.88 118.941 9.664C118.941 11.064 118.171 11.778 117.149 12.016L116.855 11.358C117.163 11.274 117.443 11.106 117.695 10.84C117.933 10.574 118.031 10.294 117.975 10ZM125.573 1.39H119.637V0.199999H127.071V0.998L122.199 10H120.869L125.573 1.39ZM127.817 5.366C127.817 3.672 128.237 2.37 129.063 1.446C129.889 0.535999 130.925 0.0739993 132.171 0.0739993C133.809 0.0739993 135.097 0.816 135.643 1.992L134.691 2.636C134.117 1.726 133.263 1.278 132.115 1.278C131.247 1.278 130.519 1.614 129.931 2.286C129.343 2.972 129.049 3.896 129.063 5.086C129.609 4.064 130.883 3.448 132.283 3.448C133.417 3.448 134.327 3.742 134.985 4.344C135.643 4.946 135.979 5.744 135.979 6.724C135.979 7.718 135.615 8.544 134.873 9.174C134.131 9.804 133.207 10.126 132.101 10.126C129.455 10.126 127.817 8.404 127.817 5.366ZM129.217 6.556C129.483 7.942 130.533 8.922 132.087 8.922C132.843 8.922 133.473 8.726 133.963 8.32C134.453 7.928 134.691 7.41 134.691 6.78C134.691 5.394 133.711 4.652 132.213 4.652C131.387 4.652 130.701 4.848 130.169 5.24C129.623 5.632 129.315 6.066 129.217 6.556ZM142.602 1.39H136.666V0.199999H144.1V0.998L139.228 10H137.898L142.602 1.39Z" fill="#1A3341"/>
<path d="M104.527 158.372L103.651 158.06C103.951 156.572 105.079 155.504 106.867 155.504C108.595 155.504 109.651 156.5 109.651 158.024C109.651 158.828 109.303 159.632 108.871 160.208C108.655 160.508 108.379 160.796 108.055 161.096C107.395 161.684 106.927 161.996 106.243 162.428L105.319 163.004H109.963V164H103.423V163.184L105.247 161.972C105.571 161.768 105.799 161.612 105.931 161.516C106.063 161.432 106.279 161.276 106.567 161.072C106.855 160.868 107.071 160.688 107.215 160.556C107.347 160.424 107.527 160.256 107.731 160.04C108.283 159.44 108.487 158.888 108.547 158.132C108.547 157.04 107.839 156.548 106.795 156.548C106.147 156.548 105.631 156.728 105.259 157.088C104.887 157.448 104.635 157.88 104.527 158.372ZM110.795 159.8C110.795 158.504 111.095 157.46 111.707 156.68C112.307 155.9 113.195 155.504 114.359 155.504C116.747 155.504 117.935 157.076 117.935 159.8C117.935 161.108 117.635 162.14 117.047 162.92C116.447 163.7 115.559 164.096 114.383 164.096C113.255 164.096 112.379 163.7 111.743 162.908C111.107 162.116 110.795 161.084 110.795 159.8ZM111.899 159.8C111.899 161.852 112.835 163.076 114.383 163.076C116.015 163.076 116.831 161.984 116.831 159.8C116.831 157.616 116.003 156.524 114.359 156.524C112.691 156.524 111.899 157.724 111.899 159.8ZM119.791 158.372L118.915 158.06C119.215 156.572 120.343 155.504 122.131 155.504C123.859 155.504 124.915 156.5 124.915 158.024C124.915 158.828 124.567 159.632 124.135 160.208C123.919 160.508 123.643 160.796 123.319 161.096C122.659 161.684 122.191 161.996 121.507 162.428L120.583 163.004H125.227V164H118.687V163.184L120.511 161.972C120.835 161.768 121.063 161.612 121.195 161.516C121.327 161.432 121.543 161.276 121.831 161.072C122.119 160.868 122.335 160.688 122.479 160.556C122.611 160.424 122.791 160.256 122.995 160.04C123.547 159.44 123.751 158.888 123.811 158.132C123.811 157.04 123.103 156.548 122.059 156.548C121.411 156.548 120.895 156.728 120.523 157.088C120.151 157.448 119.899 157.88 119.791 158.372ZM126.887 158.048L125.987 157.64C126.431 156.344 127.595 155.492 129.335 155.492C130.163 155.492 130.847 155.684 131.375 156.068C131.903 156.452 132.167 156.968 132.167 157.604C132.167 158.576 131.651 159.296 130.691 159.572C131.615 159.632 132.359 160.328 132.359 161.576C132.359 162.368 132.071 162.992 131.495 163.436C130.919 163.88 130.187 164.108 129.287 164.108C127.451 164.108 126.179 163.232 125.759 161.852L126.731 161.432C127.247 162.524 128.123 163.076 129.359 163.076C130.523 163.076 131.255 162.536 131.255 161.588C131.255 160.664 130.535 160.196 129.095 160.196H128.159V159.2H128.903C130.211 159.2 131.063 158.612 131.063 157.808C131.063 156.98 130.379 156.512 129.287 156.512C128.003 156.512 127.223 157.172 126.887 158.048Z" fill="#76848D"/>
<path d="M89 22C89 20.8954 89.8954 20 91 20H145C146.105 20 147 20.8954 147 22V149H89V22Z" fill="url(#paint0_linear_164_8751)"/>
<path opacity="0.2" d="M101 20H135V149H101V20Z" fill="url(#paint1_linear_164_8751)"/>
<path opacity="0.04" d="M135 20H145C146.105 20 147 20.8954 147 22V149H135V20Z" fill="#0D262C"/>
<path opacity="0.5" d="M89 22C89 20.8954 89.8954 20 91 20H101V149H89V22Z" fill="url(#paint2_linear_164_8751)"/>
<path d="M8.12223 121.804L7.67423 120.754L11.0342 119.144H11.8322V129H10.6282V120.642L8.12223 121.804ZM15.0457 124.492L14.0377 124.226L14.6117 119.2H20.7717V120.39H15.6897L15.3257 123.022C15.8157 122.658 16.5577 122.476 17.5517 122.476C18.6997 122.476 19.5957 122.784 20.2537 123.386C20.8977 124.002 21.2197 124.786 21.2197 125.752C21.2197 126.718 20.8557 127.53 20.1417 128.16C19.4137 128.804 18.5037 129.126 17.4257 129.126C15.5917 129.126 14.0657 128.258 13.4357 126.732L14.5557 126.256C14.9617 127.194 16.0117 127.936 17.4257 127.936C19.0357 127.936 19.9317 127.012 19.9317 125.794C19.9317 124.492 18.8817 123.652 17.2157 123.652C16.3197 123.652 15.5917 123.932 15.0457 124.492ZM23.2204 129C22.7024 129.056 22.3104 128.762 22.3104 128.258C22.3104 127.768 22.6184 127.46 23.1644 127.46C23.7804 127.46 24.1864 127.88 24.1864 128.664C24.1864 130.064 23.4164 130.778 22.3944 131.016L22.1004 130.358C22.4084 130.274 22.6884 130.106 22.9404 129.84C23.1784 129.574 23.2764 129.294 23.2204 129ZM26.1709 122.056L25.1209 121.58C25.6389 120.068 26.9969 119.074 29.0269 119.074C29.9929 119.074 30.7909 119.298 31.4069 119.746C32.0229 120.194 32.3309 120.796 32.3309 121.538C32.3309 122.672 31.7289 123.512 30.6089 123.834C31.6869 123.904 32.5549 124.716 32.5549 126.172C32.5549 127.096 32.2189 127.824 31.5469 128.342C30.8749 128.86 30.0209 129.126 28.9709 129.126C26.8289 129.126 25.3449 128.104 24.8549 126.494L25.9889 126.004C26.5909 127.278 27.6129 127.922 29.0549 127.922C30.4129 127.922 31.2669 127.292 31.2669 126.186C31.2669 125.108 30.4269 124.562 28.7469 124.562H27.6549V123.4H28.5229C30.0489 123.4 31.0429 122.714 31.0429 121.776C31.0429 120.81 30.2449 120.264 28.9709 120.264C27.4729 120.264 26.5629 121.034 26.1709 122.056ZM39.3195 120.39H33.3835V119.2H40.8175V119.998L35.9455 129H34.6155L39.3195 120.39ZM48.3255 129H47.1075V126.998H41.1155V126.186L47.2475 119.2H48.3255V125.864H50.1455V126.998H48.3255V129ZM47.1075 121.16L42.7955 125.864H47.1075V121.16Z" fill="#1A3341"/>
<path d="M15.5564 158.372L14.6804 158.06C14.9804 156.572 16.1084 155.504 17.8964 155.504C19.6244 155.504 20.6804 156.5 20.6804 158.024C20.6804 158.828 20.3324 159.632 19.9004 160.208C19.6844 160.508 19.4084 160.796 19.0844 161.096C18.4244 161.684 17.9564 161.996 17.2724 162.428L16.3484 163.004H20.9924V164H14.4524V163.184L16.2764 161.972C16.6004 161.768 16.8284 161.612 16.9604 161.516C17.0924 161.432 17.3084 161.276 17.5964 161.072C17.8844 160.868 18.1004 160.688 18.2444 160.556C18.3764 160.424 18.5564 160.256 18.7604 160.04C19.3124 159.44 19.5164 158.888 19.5764 158.132C19.5764 157.04 18.8684 156.548 17.8244 156.548C17.1764 156.548 16.6604 156.728 16.2884 157.088C15.9164 157.448 15.6644 157.88 15.5564 158.372ZM21.824 159.8C21.824 158.504 22.124 157.46 22.736 156.68C23.336 155.9 24.224 155.504 25.388 155.504C27.776 155.504 28.964 157.076 28.964 159.8C28.964 161.108 28.664 162.14 28.076 162.92C27.476 163.7 26.588 164.096 25.412 164.096C24.284 164.096 23.408 163.7 22.772 162.908C22.136 162.116 21.824 161.084 21.824 159.8ZM22.928 159.8C22.928 161.852 23.864 163.076 25.412 163.076C27.044 163.076 27.86 161.984 27.86 159.8C27.86 157.616 27.032 156.524 25.388 156.524C23.72 156.524 22.928 157.724 22.928 159.8ZM30.8203 158.372L29.9443 158.06C30.2443 156.572 31.3723 155.504 33.1603 155.504C34.8883 155.504 35.9443 156.5 35.9443 158.024C35.9443 158.828 35.5963 159.632 35.1643 160.208C34.9483 160.508 34.6723 160.796 34.3483 161.096C33.6883 161.684 33.2203 161.996 32.5363 162.428L31.6123 163.004H36.2563V164H29.7163V163.184L31.5403 161.972C31.8643 161.768 32.0923 161.612 32.2243 161.516C32.3563 161.432 32.5723 161.276 32.8603 161.072C33.1483 160.868 33.3643 160.688 33.5083 160.556C33.6403 160.424 33.8203 160.256 34.0243 160.04C34.5763 159.44 34.7803 158.888 34.8403 158.132C34.8403 157.04 34.1323 156.548 33.0883 156.548C32.4403 156.548 31.9243 156.728 31.5523 157.088C31.1803 157.448 30.9283 157.88 30.8203 158.372ZM38.048 158.372L37.172 158.06C37.472 156.572 38.6 155.504 40.388 155.504C42.116 155.504 43.172 156.5 43.172 158.024C43.172 158.828 42.824 159.632 42.392 160.208C42.176 160.508 41.9 160.796 41.576 161.096C40.916 161.684 40.448 161.996 39.764 162.428L38.84 163.004H43.484V164H36.944V163.184L38.768 161.972C39.092 161.768 39.32 161.612 39.452 161.516C39.584 161.432 39.8 161.276 40.088 161.072C40.376 160.868 40.592 160.688 40.736 160.556C40.868 160.424 41.048 160.256 41.252 160.04C41.804 159.44 42.008 158.888 42.068 158.132C42.068 157.04 41.36 156.548 40.316 156.548C39.668 156.548 39.152 156.728 38.78 157.088C38.408 157.448 38.156 157.88 38.048 158.372Z" fill="#76848D"/>
<path d="M0 141C0 139.895 0.895431 139 2 139H56C57.1046 139 58 139.895 58 141V149H0V141Z" fill="url(#paint3_linear_164_8751)"/>
<path opacity="0.2" d="M12 139H46V149H12V139Z" fill="url(#paint4_linear_164_8751)"/>
<path opacity="0.04" d="M46 139H56C57.1046 139 58 139.895 58 141V149H46V139Z" fill="#0D262C"/>
<path opacity="0.5" d="M0 141C0 139.895 0.895431 139 2 139H12V149H0V141Z" fill="url(#paint5_linear_164_8751)"/>
<defs>
<linearGradient id="paint0_linear_164_8751" x1="118" y1="20" x2="118" y2="149" gradientUnits="userSpaceOnUse">
<stop stop-color="#6D73F9"/>
<stop offset="1" stop-color="#9BB8F1"/>
</linearGradient>
<linearGradient id="paint1_linear_164_8751" x1="118" y1="20" x2="118" y2="149" gradientUnits="userSpaceOnUse">
<stop stop-color="white" stop-opacity="0"/>
<stop offset="0.739583" stop-color="white"/>
</linearGradient>
<linearGradient id="paint2_linear_164_8751" x1="95" y1="-231.55" x2="95" y2="149" gradientUnits="userSpaceOnUse">
<stop stop-color="white" stop-opacity="0.05"/>
<stop offset="0.75" stop-color="white" stop-opacity="0.8"/>
</linearGradient>
<linearGradient id="paint3_linear_164_8751" x1="29" y1="139" x2="29" y2="149" gradientUnits="userSpaceOnUse">
<stop stop-color="#6D73F9"/>
<stop offset="1" stop-color="#9BB8F1"/>
</linearGradient>
<linearGradient id="paint4_linear_164_8751" x1="29" y1="139" x2="29" y2="149" gradientUnits="userSpaceOnUse">
<stop stop-color="white" stop-opacity="0"/>
<stop offset="0.739583" stop-color="white"/>
</linearGradient>
<linearGradient id="paint5_linear_164_8751" x1="6" y1="119.5" x2="6" y2="149" gradientUnits="userSpaceOnUse">
<stop stop-color="white" stop-opacity="0.05"/>
<stop offset="0.75" stop-color="white" stop-opacity="0.8"/>
</linearGradient>
</defs>
</svg>
