<svg width="1120" height="363" viewBox="0 0 1120 363" fill="none" xmlns="http://www.w3.org/2000/svg">
<rect y="2" width="10" height="10" fill="url(#paint0_linear_7005_17827)"/>
<path d="M20.784 2.992L21.624 3.22C20.94 5.296 19.872 7.408 18.684 8.812C18.6 8.596 18.36 8.116 18.204 7.888C19.26 6.688 20.208 4.84 20.784 2.992ZM19.824 5.932L20.652 5.104L20.676 5.128V13.96H19.824V5.932ZM25.02 3.232L25.692 3.928C24.552 4.432 22.884 4.852 21.468 5.14C21.42 4.936 21.288 4.636 21.18 4.432C22.548 4.132 24.12 3.676 25.02 3.232ZM21.192 6.652H29.316V7.456H21.192V6.652ZM23.196 4.18H24.048V12.868C24.048 13.396 23.928 13.636 23.592 13.78C23.256 13.924 22.704 13.936 21.876 13.936C21.84 13.708 21.72 13.336 21.6 13.096C22.212 13.108 22.788 13.108 22.956 13.096C23.136 13.096 23.196 13.048 23.196 12.868V4.18ZM21.108 10.024C22.236 9.76 23.988 9.304 25.668 8.872L25.764 9.676C24.216 10.108 22.56 10.564 21.348 10.9L21.108 10.024ZM25.872 3.052H26.76C26.7 8.74 27.324 13.12 28.476 13.12C28.74 13.12 28.86 12.532 28.896 11.128C29.076 11.32 29.376 11.512 29.58 11.596C29.448 13.42 29.172 13.984 28.38 13.984C26.364 13.972 25.908 8.944 25.872 3.052ZM28.284 8.032L29.088 8.248C28.188 10.468 26.688 12.328 24.984 13.54C24.852 13.372 24.552 13.06 24.372 12.904C26.076 11.824 27.492 10.072 28.284 8.032ZM27.372 3.652L28.044 3.364C28.536 4.06 29.076 4.996 29.304 5.596L28.596 5.944C28.38 5.344 27.852 4.372 27.372 3.652ZM37.752 4.216V6.016H39.78V4.216H37.752ZM34.92 4.216V6.016H36.924V4.216H34.92ZM32.16 4.216V6.016H34.092V4.216H32.16ZM31.296 3.436H40.68V6.808H31.296V3.436ZM33.588 9.94L34.284 9.496C35.124 10.12 36.168 11.044 36.672 11.68L35.928 12.184C35.46 11.56 34.452 10.588 33.588 9.94ZM33.684 8.008H39.396V8.824H33.684V8.008ZM34.572 6.7L35.472 7C34.656 8.344 33.168 9.64 31.62 10.408C31.488 10.204 31.224 9.88 31.044 9.724C32.52 9.028 33.936 7.852 34.572 6.7ZM39.18 8.008H39.372L39.54 7.972L40.14 8.356C38.676 11.788 35.244 13.324 31.428 13.984C31.344 13.756 31.092 13.36 30.912 13.18C34.656 12.616 37.956 11.212 39.18 8.164V8.008ZM42.636 4.528H48.336V5.32H42.636V4.528ZM43.992 6.424H47.04V7.156H43.992V6.424ZM43.992 8.272H47.076V9.004H43.992V8.272ZM42.456 10.228H48.42V11.032H42.456V10.228ZM43.608 3.052H44.436V10.576H43.608V3.052ZM46.644 3.052H47.484V10.576H46.644V3.052ZM44.148 11.284L45 11.524C44.604 12.4 43.956 13.288 43.332 13.864C43.176 13.708 42.828 13.444 42.612 13.324C43.236 12.808 43.812 12.04 44.148 11.284ZM45.792 11.644L46.512 11.296C46.92 11.764 47.388 12.4 47.604 12.82L46.86 13.216C46.656 12.796 46.188 12.124 45.792 11.644ZM49.116 6.964H53.532V7.804H49.116V6.964ZM51.408 7.408H52.272V13.972H51.408V7.408ZM52.716 2.944L53.436 3.592C52.284 4.132 50.568 4.576 49.092 4.864C49.044 4.672 48.912 4.372 48.804 4.18C50.196 3.868 51.816 3.412 52.716 2.944ZM48.804 4.18H49.632V8.332C49.632 10.54 49.392 12.508 47.868 14.14C47.712 13.96 47.424 13.72 47.22 13.564C48.612 12.064 48.804 10.228 48.804 8.332V4.18Z" fill="#76848D"/>
<rect x="90" y="2" width="10" height="10" fill="#737AF9"/>
<path d="M110.184 12.184H117.792V13.084H110.184V12.184ZM110.124 8.488H117.804V9.376H110.124V8.488ZM109.716 4.852H118.284V13.912H117.348V5.752H110.616V13.96H109.716V4.852ZM113.34 2.884L114.456 3.088C114.12 3.904 113.724 4.804 113.388 5.404L112.512 5.2C112.812 4.552 113.172 3.58 113.34 2.884ZM122.784 2.992L123.624 3.22C122.94 5.296 121.872 7.408 120.684 8.812C120.6 8.596 120.36 8.116 120.204 7.888C121.26 6.688 122.208 4.84 122.784 2.992ZM121.824 5.932L122.652 5.104L122.676 5.128V13.96H121.824V5.932ZM127.02 3.232L127.692 3.928C126.552 4.432 124.884 4.852 123.468 5.14C123.42 4.936 123.288 4.636 123.18 4.432C124.548 4.132 126.12 3.676 127.02 3.232ZM123.192 6.652H131.316V7.456H123.192V6.652ZM125.196 4.18H126.048V12.868C126.048 13.396 125.928 13.636 125.592 13.78C125.256 13.924 124.704 13.936 123.876 13.936C123.84 13.708 123.72 13.336 123.6 13.096C124.212 13.108 124.788 13.108 124.956 13.096C125.136 13.096 125.196 13.048 125.196 12.868V4.18ZM123.108 10.024C124.236 9.76 125.988 9.304 127.668 8.872L127.764 9.676C126.216 10.108 124.56 10.564 123.348 10.9L123.108 10.024ZM127.872 3.052H128.76C128.7 8.74 129.324 13.12 130.476 13.12C130.74 13.12 130.86 12.532 130.896 11.128C131.076 11.32 131.376 11.512 131.58 11.596C131.448 13.42 131.172 13.984 130.38 13.984C128.364 13.972 127.908 8.944 127.872 3.052ZM130.284 8.032L131.088 8.248C130.188 10.468 128.688 12.328 126.984 13.54C126.852 13.372 126.552 13.06 126.372 12.904C128.076 11.824 129.492 10.072 130.284 8.032ZM129.372 3.652L130.044 3.364C130.536 4.06 131.076 4.996 131.304 5.596L130.596 5.944C130.38 5.344 129.852 4.372 129.372 3.652ZM139.752 4.216V6.016H141.78V4.216H139.752ZM136.92 4.216V6.016H138.924V4.216H136.92ZM134.16 4.216V6.016H136.092V4.216H134.16ZM133.296 3.436H142.68V6.808H133.296V3.436ZM135.588 9.94L136.284 9.496C137.124 10.12 138.168 11.044 138.672 11.68L137.928 12.184C137.46 11.56 136.452 10.588 135.588 9.94ZM135.684 8.008H141.396V8.824H135.684V8.008ZM136.572 6.7L137.472 7C136.656 8.344 135.168 9.64 133.62 10.408C133.488 10.204 133.224 9.88 133.044 9.724C134.52 9.028 135.936 7.852 136.572 6.7ZM141.18 8.008H141.372L141.54 7.972L142.14 8.356C140.676 11.788 137.244 13.324 133.428 13.984C133.344 13.756 133.092 13.36 132.912 13.18C136.656 12.616 139.956 11.212 141.18 8.164V8.008ZM144.636 4.528H150.336V5.32H144.636V4.528ZM145.992 6.424H149.04V7.156H145.992V6.424ZM145.992 8.272H149.076V9.004H145.992V8.272ZM144.456 10.228H150.42V11.032H144.456V10.228ZM145.608 3.052H146.436V10.576H145.608V3.052ZM148.644 3.052H149.484V10.576H148.644V3.052ZM146.148 11.284L147 11.524C146.604 12.4 145.956 13.288 145.332 13.864C145.176 13.708 144.828 13.444 144.612 13.324C145.236 12.808 145.812 12.04 146.148 11.284ZM147.792 11.644L148.512 11.296C148.92 11.764 149.388 12.4 149.604 12.82L148.86 13.216C148.656 12.796 148.188 12.124 147.792 11.644ZM151.116 6.964H155.532V7.804H151.116V6.964ZM153.408 7.408H154.272V13.972H153.408V7.408ZM154.716 2.944L155.436 3.592C154.284 4.132 152.568 4.576 151.092 4.864C151.044 4.672 150.912 4.372 150.804 4.18C152.196 3.868 153.816 3.412 154.716 2.944ZM150.804 4.18H151.632V8.332C151.632 10.54 151.392 12.508 149.868 14.14C149.712 13.96 149.424 13.72 149.22 13.564C150.612 12.064 150.804 10.228 150.804 8.332V4.18Z" fill="#76848D"/>
<path d="M25.4275 307.492H18.9315V306.442H25.4275V307.492ZM32.2899 303.39H26.3539V302.2H33.7879V302.998L28.9159 312H27.5859L32.2899 303.39ZM33.7843 311.202C33.7843 310.81 34.1483 310.418 34.6523 310.418C35.1143 310.418 35.4923 310.81 35.4923 311.202C35.4923 311.65 35.1423 312.028 34.6523 312.028C34.1483 312.028 33.7843 311.65 33.7843 311.202ZM38.0778 307.492L37.0698 307.226L37.6438 302.2H43.8038V303.39H38.7218L38.3578 306.022C38.8478 305.658 39.5898 305.476 40.5838 305.476C41.7318 305.476 42.6278 305.784 43.2858 306.386C43.9298 307.002 44.2518 307.786 44.2518 308.752C44.2518 309.718 43.8878 310.53 43.1738 311.16C42.4458 311.804 41.5358 312.126 40.4578 312.126C38.6238 312.126 37.0978 311.258 36.4678 309.732L37.5878 309.256C37.9938 310.194 39.0438 310.936 40.4578 310.936C42.0678 310.936 42.9638 310.012 42.9638 308.794C42.9638 307.492 41.9138 306.652 40.2478 306.652C39.3518 306.652 38.6238 306.932 38.0778 307.492Z" fill="#1A3341"/>
<path d="M14 291.333C14 292.254 14.7462 293 15.6667 293H47.3333C48.2538 293 49 292.254 49 291.333V218H14V291.333Z" fill="url(#paint1_linear_7005_17827)"/>
<path opacity="0.2" d="M24 293H39V218H24V293Z" fill="url(#paint2_linear_7005_17827)"/>
<path opacity="0.04" d="M39 293H47.3333C48.2538 293 49 292.254 49 291.333V218H39V293Z" fill="#0D262C"/>
<path opacity="0.5" d="M14 291.333C14 292.254 14.7462 293 15.6667 293H24V218H14V291.333Z" fill="url(#paint3_linear_7005_17827)"/>
<path d="M115.737 319.492H109.241V318.442H115.737V319.492ZM120.849 318.414H121.283C121.913 318.414 122.431 318.26 122.865 317.966C123.285 317.672 123.495 317.28 123.495 316.818C123.495 315.768 122.669 315.236 121.031 315.236C119.463 315.236 118.609 315.81 118.609 316.818C118.609 317.728 119.547 318.414 120.849 318.414ZM121.255 319.52H120.905C120.149 319.52 119.519 319.688 119.029 320.01C118.539 320.332 118.287 320.738 118.287 321.228C118.287 322.292 119.267 322.964 121.045 322.964C122.851 322.964 123.817 322.32 123.817 321.242C123.817 320.164 122.781 319.52 121.255 319.52ZM124.013 323.37C123.299 323.874 122.305 324.126 121.059 324.126C119.813 324.126 118.819 323.874 118.091 323.384C117.363 322.894 116.999 322.222 116.999 321.354C116.999 320.22 117.741 319.324 118.931 318.932C117.853 318.582 117.321 317.728 117.321 316.734C117.321 315.11 118.693 314.074 121.045 314.074C123.411 314.074 124.783 315.11 124.783 316.734C124.783 317.672 124.265 318.386 123.229 318.862C124.475 319.24 125.091 320.052 125.091 321.298C125.091 322.18 124.727 322.88 124.013 323.37ZM126.281 323.202C126.281 322.81 126.645 322.418 127.149 322.418C127.611 322.418 127.989 322.81 127.989 323.202C127.989 323.65 127.639 324.028 127.149 324.028C126.645 324.028 126.281 323.65 126.281 323.202ZM134.761 315.39H128.825V314.2H136.259V314.998L131.387 324H130.057L134.761 315.39Z" fill="#1A3341"/>
<path d="M105 303.333C105 304.254 105.746 305 106.667 305H138.333C139.254 305 140 304.254 140 303.333V218H105V303.333Z" fill="url(#paint4_linear_7005_17827)"/>
<path opacity="0.2" d="M115 305H130V218H115V305Z" fill="url(#paint5_linear_7005_17827)"/>
<path opacity="0.04" d="M130 305H138.333C139.254 305 140 304.254 140 303.333V218H130V305Z" fill="#0D262C"/>
<path opacity="0.5" d="M105 303.333C105 304.254 105.746 305 106.667 305H115V218H105V303.333Z" fill="url(#paint6_linear_7005_17827)"/>
<path d="M206.033 280.492H199.537V279.442H206.033V280.492ZM214.043 285H212.825V282.998H206.833V282.186L212.965 275.2H214.043V281.864H215.863V282.998H214.043V285ZM212.825 277.16L208.513 281.864H212.825V277.16ZM216.646 284.202C216.646 283.81 217.01 283.418 217.514 283.418C217.976 283.418 218.354 283.81 218.354 284.202C218.354 284.65 218.004 285.028 217.514 285.028C217.01 285.028 216.646 284.65 216.646 284.202ZM223.375 279.414H223.809C224.439 279.414 224.957 279.26 225.391 278.966C225.811 278.672 226.021 278.28 226.021 277.818C226.021 276.768 225.195 276.236 223.557 276.236C221.989 276.236 221.135 276.81 221.135 277.818C221.135 278.728 222.073 279.414 223.375 279.414ZM223.781 280.52H223.431C222.675 280.52 222.045 280.688 221.555 281.01C221.065 281.332 220.813 281.738 220.813 282.228C220.813 283.292 221.793 283.964 223.571 283.964C225.377 283.964 226.343 283.32 226.343 282.242C226.343 281.164 225.307 280.52 223.781 280.52ZM226.539 284.37C225.825 284.874 224.831 285.126 223.585 285.126C222.339 285.126 221.345 284.874 220.617 284.384C219.889 283.894 219.525 283.222 219.525 282.354C219.525 281.22 220.267 280.324 221.457 279.932C220.379 279.582 219.847 278.728 219.847 277.734C219.847 276.11 221.219 275.074 223.571 275.074C225.937 275.074 227.309 276.11 227.309 277.734C227.309 278.672 226.791 279.386 225.755 279.862C227.001 280.24 227.617 281.052 227.617 282.298C227.617 283.18 227.253 283.88 226.539 284.37Z" fill="#1A3341"/>
<path d="M196 264.333C196 265.254 196.746 266 197.667 266H229.333C230.254 266 231 265.254 231 264.333V218H196V264.333Z" fill="url(#paint7_linear_7005_17827)"/>
<path opacity="0.2" d="M206 266H221V218H206V266Z" fill="url(#paint8_linear_7005_17827)"/>
<path opacity="0.04" d="M221 266H229.333C230.254 266 231 265.254 231 264.333V218H221V266Z" fill="#0D262C"/>
<path opacity="0.5" d="M196 264.333C196 265.254 196.746 266 197.667 266H206V218H196V264.333Z" fill="url(#paint9_linear_7005_17827)"/>
<path d="M298.599 120.414H299.033C299.663 120.414 300.181 120.26 300.615 119.966C301.035 119.672 301.245 119.28 301.245 118.818C301.245 117.768 300.419 117.236 298.781 117.236C297.213 117.236 296.359 117.81 296.359 118.818C296.359 119.728 297.297 120.414 298.599 120.414ZM299.005 121.52H298.655C297.899 121.52 297.269 121.688 296.779 122.01C296.289 122.332 296.037 122.738 296.037 123.228C296.037 124.292 297.017 124.964 298.795 124.964C300.601 124.964 301.567 124.32 301.567 123.242C301.567 122.164 300.531 121.52 299.005 121.52ZM301.763 125.37C301.049 125.874 300.055 126.126 298.809 126.126C297.563 126.126 296.569 125.874 295.841 125.384C295.113 124.894 294.749 124.222 294.749 123.354C294.749 122.22 295.491 121.324 296.681 120.932C295.603 120.582 295.071 119.728 295.071 118.734C295.071 117.11 296.443 116.074 298.795 116.074C301.161 116.074 302.533 117.11 302.533 118.734C302.533 119.672 302.015 120.386 300.979 120.862C302.225 121.24 302.841 122.052 302.841 123.298C302.841 124.18 302.477 124.88 301.763 125.37ZM304.031 125.202C304.031 124.81 304.395 124.418 304.899 124.418C305.361 124.418 305.739 124.81 305.739 125.202C305.739 125.65 305.389 126.028 304.899 126.028C304.395 126.028 304.031 125.65 304.031 125.202ZM308.017 119.434L306.995 119.07C307.345 117.334 308.661 116.088 310.747 116.088C312.763 116.088 313.995 117.25 313.995 119.028C313.995 119.966 313.589 120.904 313.085 121.576C312.833 121.926 312.511 122.262 312.133 122.612C311.363 123.298 310.817 123.662 310.019 124.166L308.941 124.838H314.359V126H306.729V125.048L308.857 123.634C309.235 123.396 309.501 123.214 309.655 123.102C309.809 123.004 310.061 122.822 310.397 122.584C310.733 122.346 310.985 122.136 311.153 121.982C311.307 121.828 311.517 121.632 311.755 121.38C312.399 120.68 312.637 120.036 312.707 119.154C312.707 117.88 311.881 117.306 310.663 117.306C309.907 117.306 309.305 117.516 308.871 117.936C308.437 118.356 308.143 118.86 308.017 119.434Z" fill="#1A3341"/>
<path d="M287 137.667C287 136.746 287.746 136 288.667 136H320.333C321.254 136 322 136.746 322 137.667V218H287V137.667Z" fill="url(#paint10_linear_7005_17827)"/>
<path opacity="0.2" d="M297 136H312V218H297V136Z" fill="url(#paint11_linear_7005_17827)"/>
<path opacity="0.04" d="M312 136H320.333C321.254 136 322 136.746 322 137.667V218H312V136Z" fill="#0D262C"/>
<path opacity="0.5" d="M287 137.667C287 136.746 287.746 136 288.667 136H297V218H287V137.667Z" fill="url(#paint12_linear_7005_17827)"/>
<path d="M393.514 106.918C393.514 108.584 393.122 109.872 392.324 110.768C391.526 111.678 390.462 112.126 389.132 112.126C387.508 112.126 386.234 111.44 385.604 110.39L386.612 109.69C387.172 110.474 388.194 110.922 389.3 110.922C390.21 110.922 390.938 110.558 391.512 109.83C392.086 109.116 392.324 108.22 392.254 107.156C391.792 108.22 390.63 109.004 389.076 109.004C387.984 109.004 387.088 108.696 386.388 108.066C385.674 107.45 385.324 106.638 385.324 105.644C385.324 104.552 385.702 103.684 386.458 103.04C387.214 102.396 388.222 102.074 389.468 102.074C391.988 102.074 393.514 103.838 393.514 106.918ZM392.044 105.602C391.834 104.3 390.938 103.278 389.328 103.278C387.648 103.278 386.612 104.146 386.612 105.602C386.612 106.988 387.662 107.8 389.3 107.8C390.042 107.8 390.672 107.576 391.162 107.128C391.652 106.68 391.946 106.176 392.044 105.602ZM394.662 111.202C394.662 110.81 395.026 110.418 395.53 110.418C395.992 110.418 396.37 110.81 396.37 111.202C396.37 111.65 396.02 112.028 395.53 112.028C395.026 112.028 394.662 111.65 394.662 111.202ZM397.527 107.366C397.527 105.672 397.947 104.37 398.773 103.446C399.599 102.536 400.635 102.074 401.881 102.074C403.519 102.074 404.807 102.816 405.353 103.992L404.401 104.636C403.827 103.726 402.973 103.278 401.825 103.278C400.957 103.278 400.229 103.614 399.641 104.286C399.053 104.972 398.759 105.896 398.773 107.086C399.319 106.064 400.593 105.448 401.993 105.448C403.127 105.448 404.037 105.742 404.695 106.344C405.353 106.946 405.689 107.744 405.689 108.724C405.689 109.718 405.325 110.544 404.583 111.174C403.841 111.804 402.917 112.126 401.811 112.126C399.165 112.126 397.527 110.404 397.527 107.366ZM398.927 108.556C399.193 109.942 400.243 110.922 401.797 110.922C402.553 110.922 403.183 110.726 403.673 110.32C404.163 109.928 404.401 109.41 404.401 108.78C404.401 107.394 403.421 106.652 401.923 106.652C401.097 106.652 400.411 106.848 399.879 107.24C399.333 107.632 399.025 108.066 398.927 108.556Z" fill="#1A3341"/>
<path d="M378 123.667C378 122.746 378.746 122 379.667 122H411.333C412.254 122 413 122.746 413 123.667V218H378V123.667Z" fill="url(#paint13_linear_7005_17827)"/>
<path opacity="0.2" d="M388 122H403V218H388V122Z" fill="url(#paint14_linear_7005_17827)"/>
<path opacity="0.04" d="M403 122H411.333C412.254 122 413 122.746 413 123.667V218H403V122Z" fill="#0D262C"/>
<path opacity="0.5" d="M378 123.667C378 122.746 378.746 122 379.667 122H388V218H378V123.667Z" fill="url(#paint15_linear_7005_17827)"/>
<path d="M473.808 97.804L473.36 96.754L476.72 95.144H477.518V105H476.314V96.642L473.808 97.804ZM479.304 100.1C479.304 98.588 479.654 97.37 480.368 96.46C481.068 95.55 482.104 95.088 483.462 95.088C486.248 95.088 487.634 96.922 487.634 100.1C487.634 101.626 487.284 102.83 486.598 103.74C485.898 104.65 484.862 105.112 483.49 105.112C482.174 105.112 481.152 104.65 480.41 103.726C479.668 102.802 479.304 101.598 479.304 100.1ZM480.592 100.1C480.592 102.494 481.684 103.922 483.49 103.922C485.394 103.922 486.346 102.648 486.346 100.1C486.346 97.552 485.38 96.278 483.462 96.278C481.516 96.278 480.592 97.678 480.592 100.1ZM488.777 104.202C488.777 103.81 489.141 103.418 489.645 103.418C490.107 103.418 490.485 103.81 490.485 104.202C490.485 104.65 490.135 105.028 489.645 105.028C489.141 105.028 488.777 104.65 488.777 104.202ZM492.609 98.056L491.559 97.58C492.077 96.068 493.435 95.074 495.465 95.074C496.431 95.074 497.229 95.298 497.845 95.746C498.461 96.194 498.769 96.796 498.769 97.538C498.769 98.672 498.167 99.512 497.047 99.834C498.125 99.904 498.993 100.716 498.993 102.172C498.993 103.096 498.657 103.824 497.985 104.342C497.313 104.86 496.459 105.126 495.409 105.126C493.267 105.126 491.783 104.104 491.293 102.494L492.427 102.004C493.029 103.278 494.051 103.922 495.493 103.922C496.851 103.922 497.705 103.292 497.705 102.186C497.705 101.108 496.865 100.562 495.185 100.562H494.093V99.4H494.961C496.487 99.4 497.481 98.714 497.481 97.776C497.481 96.81 496.683 96.264 495.409 96.264C493.911 96.264 493.001 97.034 492.609 98.056Z" fill="#1A3341"/>
<path d="M469 116.667C469 115.746 469.746 115 470.667 115H502.333C503.254 115 504 115.746 504 116.667V218H469V116.667Z" fill="url(#paint16_linear_7005_17827)"/>
<path opacity="0.2" d="M479 115H494V218H479V115Z" fill="url(#paint17_linear_7005_17827)"/>
<path opacity="0.04" d="M494 115H502.333C503.254 115 504 115.746 504 116.667V218H494V115Z" fill="#0D262C"/>
<path opacity="0.5" d="M469 116.667C469 115.746 469.746 115 470.667 115H479V218H469V116.667Z" fill="url(#paint18_linear_7005_17827)"/>
<path d="M564.46 92.804L564.012 91.754L567.372 90.144H568.17V100H566.966V91.642L564.46 92.804ZM569.955 95.1C569.955 93.588 570.305 92.37 571.019 91.46C571.719 90.55 572.755 90.088 574.113 90.088C576.899 90.088 578.285 91.922 578.285 95.1C578.285 96.626 577.935 97.83 577.249 98.74C576.549 99.65 575.513 100.112 574.141 100.112C572.825 100.112 571.803 99.65 571.061 98.726C570.319 97.802 569.955 96.598 569.955 95.1ZM571.243 95.1C571.243 97.494 572.335 98.922 574.141 98.922C576.045 98.922 576.997 97.648 576.997 95.1C576.997 92.552 576.031 91.278 574.113 91.278C572.167 91.278 571.243 92.678 571.243 95.1ZM579.429 99.202C579.429 98.81 579.793 98.418 580.297 98.418C580.759 98.418 581.137 98.81 581.137 99.202C581.137 99.65 580.787 100.028 580.297 100.028C579.793 100.028 579.429 99.65 579.429 99.202ZM586.158 94.414H586.592C587.222 94.414 587.74 94.26 588.174 93.966C588.594 93.672 588.804 93.28 588.804 92.818C588.804 91.768 587.978 91.236 586.34 91.236C584.772 91.236 583.918 91.81 583.918 92.818C583.918 93.728 584.856 94.414 586.158 94.414ZM586.564 95.52H586.214C585.458 95.52 584.828 95.688 584.338 96.01C583.848 96.332 583.596 96.738 583.596 97.228C583.596 98.292 584.576 98.964 586.354 98.964C588.16 98.964 589.126 98.32 589.126 97.242C589.126 96.164 588.09 95.52 586.564 95.52ZM589.322 99.37C588.608 99.874 587.614 100.126 586.368 100.126C585.122 100.126 584.128 99.874 583.4 99.384C582.672 98.894 582.308 98.222 582.308 97.354C582.308 96.22 583.05 95.324 584.24 94.932C583.162 94.582 582.63 93.728 582.63 92.734C582.63 91.11 584.002 90.074 586.354 90.074C588.72 90.074 590.092 91.11 590.092 92.734C590.092 93.672 589.574 94.386 588.538 94.862C589.784 95.24 590.4 96.052 590.4 97.298C590.4 98.18 590.036 98.88 589.322 99.37Z" fill="#1A3341"/>
<path d="M560 111.667C560 110.746 560.746 110 561.667 110H593.333C594.254 110 595 110.746 595 111.667V218H560V111.667Z" fill="url(#paint19_linear_7005_17827)"/>
<path opacity="0.2" d="M570 110H585V218H570V110Z" fill="url(#paint20_linear_7005_17827)"/>
<path opacity="0.04" d="M585 110H593.333C594.254 110 595 110.746 595 111.667V218H585V110Z" fill="#0D262C"/>
<path opacity="0.5" d="M560 111.667C560 110.746 560.746 110 561.667 110H570V218H560V111.667Z" fill="url(#paint21_linear_7005_17827)"/>
<path d="M657.367 90.804L656.919 89.754L660.279 88.144H661.077V98H659.873V89.642L657.367 90.804ZM662.75 90.804L662.302 89.754L665.662 88.144H666.46V98H665.256V89.642L662.75 90.804ZM668.344 97.202C668.344 96.81 668.708 96.418 669.212 96.418C669.674 96.418 670.052 96.81 670.052 97.202C670.052 97.65 669.702 98.028 669.212 98.028C668.708 98.028 668.344 97.65 668.344 97.202ZM671.209 93.1C671.209 91.588 671.559 90.37 672.273 89.46C672.973 88.55 674.009 88.088 675.367 88.088C678.153 88.088 679.539 89.922 679.539 93.1C679.539 94.626 679.189 95.83 678.503 96.74C677.803 97.65 676.767 98.112 675.395 98.112C674.079 98.112 673.057 97.65 672.315 96.726C671.573 95.802 671.209 94.598 671.209 93.1ZM672.497 93.1C672.497 95.494 673.589 96.922 675.395 96.922C677.299 96.922 678.251 95.648 678.251 93.1C678.251 90.552 677.285 89.278 675.367 89.278C673.421 89.278 672.497 90.678 672.497 93.1Z" fill="#1A3341"/>
<path d="M651 109.667C651 108.746 651.746 108 652.667 108H684.333C685.254 108 686 108.746 686 109.667V218H651V109.667Z" fill="url(#paint22_linear_7005_17827)"/>
<path opacity="0.2" d="M661 108H676V218H661V108Z" fill="url(#paint23_linear_7005_17827)"/>
<path opacity="0.04" d="M676 108H684.333C685.254 108 686 108.746 686 109.667V218H676V108Z" fill="#0D262C"/>
<path opacity="0.5" d="M651 109.667C651 108.746 651.746 108 652.667 108H661V218H651V109.667Z" fill="url(#paint24_linear_7005_17827)"/>
<path d="M747.314 78.804L746.866 77.754L750.226 76.144H751.024V86H749.82V77.642L747.314 78.804ZM753.93 79.434L752.908 79.07C753.258 77.334 754.574 76.088 756.66 76.088C758.676 76.088 759.908 77.25 759.908 79.028C759.908 79.966 759.502 80.904 758.998 81.576C758.746 81.926 758.424 82.262 758.046 82.612C757.276 83.298 756.73 83.662 755.932 84.166L754.854 84.838H760.272V86H752.642V85.048L754.77 83.634C755.148 83.396 755.414 83.214 755.568 83.102C755.722 83.004 755.974 82.822 756.31 82.584C756.646 82.346 756.898 82.136 757.066 81.982C757.22 81.828 757.43 81.632 757.668 81.38C758.312 80.68 758.55 80.036 758.62 79.154C758.62 77.88 757.794 77.306 756.576 77.306C755.82 77.306 755.218 77.516 754.784 77.936C754.35 78.356 754.056 78.86 753.93 79.434ZM761.34 85.202C761.34 84.81 761.704 84.418 762.208 84.418C762.67 84.418 763.048 84.81 763.048 85.202C763.048 85.65 762.698 86.028 762.208 86.028C761.704 86.028 761.34 85.65 761.34 85.202ZM765.325 79.434L764.303 79.07C764.653 77.334 765.969 76.088 768.055 76.088C770.071 76.088 771.303 77.25 771.303 79.028C771.303 79.966 770.897 80.904 770.393 81.576C770.141 81.926 769.819 82.262 769.441 82.612C768.671 83.298 768.125 83.662 767.327 84.166L766.249 84.838H771.667V86H764.037V85.048L766.165 83.634C766.543 83.396 766.809 83.214 766.963 83.102C767.117 83.004 767.369 82.822 767.705 82.584C768.041 82.346 768.293 82.136 768.461 81.982C768.615 81.828 768.825 81.632 769.063 81.38C769.707 80.68 769.945 80.036 770.015 79.154C770.015 77.88 769.189 77.306 767.971 77.306C767.215 77.306 766.613 77.516 766.179 77.936C765.745 78.356 765.451 78.86 765.325 79.434Z" fill="#1A3341"/>
<path d="M742 97.6667C742 96.7462 742.746 96 743.667 96H775.333C776.254 96 777 96.7462 777 97.6667V218H742V97.6667Z" fill="url(#paint25_linear_7005_17827)"/>
<path opacity="0.2" d="M752 95.9999H767V218H752V95.9999Z" fill="url(#paint26_linear_7005_17827)"/>
<path opacity="0.04" d="M767 95.9999H775.333C776.254 95.9999 777 96.7461 777 97.6665V218H767V95.9999Z" fill="#0D262C"/>
<path opacity="0.5" d="M742 97.6667C742 96.7462 742.746 96 743.667 96H752V218H742V97.6667Z" fill="url(#paint27_linear_7005_17827)"/>
<path d="M838.601 73.804L838.153 72.754L841.513 71.144H842.311V81H841.107V72.642L838.601 73.804ZM845.217 74.434L844.195 74.07C844.545 72.334 845.861 71.088 847.947 71.088C849.963 71.088 851.195 72.25 851.195 74.028C851.195 74.966 850.789 75.904 850.285 76.576C850.033 76.926 849.711 77.262 849.333 77.612C848.563 78.298 848.017 78.662 847.219 79.166L846.141 79.838H851.559V81H843.929V80.048L846.057 78.634C846.435 78.396 846.701 78.214 846.855 78.102C847.009 78.004 847.261 77.822 847.597 77.584C847.933 77.346 848.185 77.136 848.353 76.982C848.507 76.828 848.717 76.632 848.955 76.38C849.599 75.68 849.837 75.036 849.907 74.154C849.907 72.88 849.081 72.306 847.863 72.306C847.107 72.306 846.505 72.516 846.071 72.936C845.637 73.356 845.343 73.86 845.217 74.434ZM852.627 80.202C852.627 79.81 852.991 79.418 853.495 79.418C853.957 79.418 854.335 79.81 854.335 80.202C854.335 80.65 853.985 81.028 853.495 81.028C852.991 81.028 852.627 80.65 852.627 80.202ZM861.107 72.39H855.171V71.2H862.605V71.998L857.733 81H856.403L861.107 72.39Z" fill="#1A3341"/>
<path d="M833 92.6667C833 91.7462 833.746 91 834.667 91H866.333C867.254 91 868 91.7462 868 92.6667V218H833V92.6667Z" fill="url(#paint28_linear_7005_17827)"/>
<path opacity="0.2" d="M843 90.9999H858V218H843V90.9999Z" fill="url(#paint29_linear_7005_17827)"/>
<path opacity="0.04" d="M858 90.9999H866.333C867.254 90.9999 868 91.7461 868 92.6665V218H858V90.9999Z" fill="#0D262C"/>
<path opacity="0.5" d="M833 92.6667C833 91.7462 833.746 91 834.667 91H843V218H833V92.6667Z" fill="url(#paint30_linear_7005_17827)"/>
<path d="M928.726 95.804L928.278 94.754L931.638 93.144H932.436V103H931.232V94.642L928.726 95.804ZM934.222 98.1C934.222 96.588 934.572 95.37 935.286 94.46C935.986 93.55 937.022 93.088 938.38 93.088C941.166 93.088 942.552 94.922 942.552 98.1C942.552 99.626 942.202 100.83 941.516 101.74C940.816 102.65 939.78 103.112 938.408 103.112C937.092 103.112 936.07 102.65 935.328 101.726C934.586 100.802 934.222 99.598 934.222 98.1ZM935.51 98.1C935.51 100.494 936.602 101.922 938.408 101.922C940.312 101.922 941.264 100.648 941.264 98.1C941.264 95.552 940.298 94.278 938.38 94.278C936.434 94.278 935.51 95.678 935.51 98.1ZM943.695 102.202C943.695 101.81 944.059 101.418 944.563 101.418C945.025 101.418 945.403 101.81 945.403 102.202C945.403 102.65 945.053 103.028 944.563 103.028C944.059 103.028 943.695 102.65 943.695 102.202ZM947.989 98.492L946.981 98.226L947.555 93.2H953.715V94.39H948.633L948.269 97.022C948.759 96.658 949.501 96.476 950.495 96.476C951.643 96.476 952.539 96.784 953.197 97.386C953.841 98.002 954.163 98.786 954.163 99.752C954.163 100.718 953.799 101.53 953.085 102.16C952.357 102.804 951.447 103.126 950.369 103.126C948.535 103.126 947.009 102.258 946.379 100.732L947.499 100.256C947.905 101.194 948.955 101.936 950.369 101.936C951.979 101.936 952.875 101.012 952.875 99.794C952.875 98.492 951.825 97.652 950.159 97.652C949.263 97.652 948.535 97.932 947.989 98.492Z" fill="#1A3341"/>
<path d="M924 114.667C924 113.746 924.746 113 925.667 113H957.333C958.254 113 959 113.746 959 114.667V218H924V114.667Z" fill="url(#paint31_linear_7005_17827)"/>
<path opacity="0.2" d="M934 113H949V218H934V113Z" fill="url(#paint32_linear_7005_17827)"/>
<path opacity="0.04" d="M949 113H957.333C958.254 113 959 113.746 959 114.667V218H949V113Z" fill="#0D262C"/>
<path opacity="0.5" d="M924 114.667C924 113.746 924.746 113 925.667 113H934V218H924V114.667Z" fill="url(#paint33_linear_7005_17827)"/>
<path d="M1019.84 98.804L1019.39 97.754L1022.75 96.144H1023.55V106H1022.35V97.642L1019.84 98.804ZM1025.34 101.1C1025.34 99.588 1025.69 98.37 1026.4 97.46C1027.1 96.55 1028.14 96.088 1029.5 96.088C1032.28 96.088 1033.67 97.922 1033.67 101.1C1033.67 102.626 1033.32 103.83 1032.63 104.74C1031.93 105.65 1030.9 106.112 1029.52 106.112C1028.21 106.112 1027.19 105.65 1026.44 104.726C1025.7 103.802 1025.34 102.598 1025.34 101.1ZM1026.63 101.1C1026.63 103.494 1027.72 104.922 1029.52 104.922C1031.43 104.922 1032.38 103.648 1032.38 101.1C1032.38 98.552 1031.41 97.278 1029.5 97.278C1027.55 97.278 1026.63 98.678 1026.63 101.1ZM1034.81 105.202C1034.81 104.81 1035.18 104.418 1035.68 104.418C1036.14 104.418 1036.52 104.81 1036.52 105.202C1036.52 105.65 1036.17 106.028 1035.68 106.028C1035.18 106.028 1034.81 105.65 1034.81 105.202ZM1038.8 99.434L1037.78 99.07C1038.13 97.334 1039.44 96.088 1041.53 96.088C1043.54 96.088 1044.78 97.25 1044.78 99.028C1044.78 99.966 1044.37 100.904 1043.87 101.576C1043.61 101.926 1043.29 102.262 1042.91 102.612C1042.14 103.298 1041.6 103.662 1040.8 104.166L1039.72 104.838H1045.14V106H1037.51V105.048L1039.64 103.634C1040.02 103.396 1040.28 103.214 1040.44 103.102C1040.59 103.004 1040.84 102.822 1041.18 102.584C1041.51 102.346 1041.77 102.136 1041.93 101.982C1042.09 101.828 1042.3 101.632 1042.54 101.38C1043.18 100.68 1043.42 100.036 1043.49 99.154C1043.49 97.88 1042.66 97.306 1041.44 97.306C1040.69 97.306 1040.09 97.516 1039.65 97.936C1039.22 98.356 1038.92 98.86 1038.8 99.434Z" fill="#1A3341"/>
<path d="M1015 117.667C1015 116.746 1015.75 116 1016.67 116H1048.33C1049.25 116 1050 116.746 1050 117.667V218H1015V117.667Z" fill="url(#paint34_linear_7005_17827)"/>
<path opacity="0.2" d="M1025 116H1040V218H1025V116Z" fill="url(#paint35_linear_7005_17827)"/>
<path opacity="0.04" d="M1040 116H1048.33C1049.25 116 1050 116.746 1050 117.667V218H1040V116Z" fill="#0D262C"/>
<path opacity="0.5" d="M1015 117.667C1015 116.746 1015.75 116 1016.67 116H1025V218H1015V117.667Z" fill="url(#paint36_linear_7005_17827)"/>
<line x1="-4.37114e-08" y1="217.5" x2="1120" y2="217.5" stroke="#ABBEC9"/>
<path d="M69.45 263.492H62.954V262.442H69.45V263.492ZM71.8184 261.434L70.7964 261.07C71.1464 259.334 72.4624 258.088 74.5484 258.088C76.5644 258.088 77.7964 259.25 77.7964 261.028C77.7964 261.966 77.3904 262.904 76.8864 263.576C76.6344 263.926 76.3124 264.262 75.9344 264.612C75.1644 265.298 74.6184 265.662 73.8204 266.166L72.7424 266.838H78.1604V268H70.5304V267.048L72.6584 265.634C73.0364 265.396 73.3024 265.214 73.4564 265.102C73.6104 265.004 73.8624 264.822 74.1984 264.584C74.5344 264.346 74.7864 264.136 74.9544 263.982C75.1084 263.828 75.3184 263.632 75.5564 263.38C76.2004 262.68 76.4384 262.036 76.5084 261.154C76.5084 259.88 75.6824 259.306 74.4644 259.306C73.7084 259.306 73.1064 259.516 72.6724 259.936C72.2384 260.356 71.9444 260.86 71.8184 261.434ZM79.2286 267.202C79.2286 266.81 79.5926 266.418 80.0966 266.418C80.5586 266.418 80.9366 266.81 80.9366 267.202C80.9366 267.65 80.5866 268.028 80.0966 268.028C79.5926 268.028 79.2286 267.65 79.2286 267.202ZM90.2421 262.918C90.2421 264.584 89.8501 265.872 89.0521 266.768C88.2541 267.678 87.1901 268.126 85.8601 268.126C84.2361 268.126 82.9621 267.44 82.3321 266.39L83.3401 265.69C83.9001 266.474 84.9221 266.922 86.0281 266.922C86.9381 266.922 87.6661 266.558 88.2401 265.83C88.8141 265.116 89.0521 264.22 88.9821 263.156C88.5201 264.22 87.3581 265.004 85.8041 265.004C84.7121 265.004 83.8161 264.696 83.1161 264.066C82.4021 263.45 82.0521 262.638 82.0521 261.644C82.0521 260.552 82.4301 259.684 83.1861 259.04C83.9421 258.396 84.9501 258.074 86.1961 258.074C88.7161 258.074 90.2421 259.838 90.2421 262.918ZM88.7721 261.602C88.5621 260.3 87.6661 259.278 86.0561 259.278C84.3761 259.278 83.3401 260.146 83.3401 261.602C83.3401 262.988 84.3901 263.8 86.0281 263.8C86.7701 263.8 87.4001 263.576 87.8901 263.128C88.3801 262.68 88.6741 262.176 88.7721 261.602Z" fill="#1A3341"/>
<path d="M59 247.333C59 248.254 59.7462 249 60.6667 249H92.3333C93.2538 249 94 248.254 94 247.333V218H59V247.333Z" fill="url(#paint37_linear_7005_17827)"/>
<path opacity="0.2" d="M69 249H84V218H69V249Z" fill="url(#paint38_linear_7005_17827)"/>
<path opacity="0.04" d="M84 249H92.3333C93.2538 249 94 248.254 94 247.333V218H84V249Z" fill="#0D262C"/>
<path opacity="0.5" d="M59 247.333C59 248.254 59.7462 249 60.6667 249H69V218H59V247.333Z" fill="url(#paint39_linear_7005_17827)"/>
<path d="M161.94 273.492H155.444V272.442H161.94V273.492ZM169.951 278H168.733V275.998H162.741V275.186L168.873 268.2H169.951V274.864H171.771V275.998H169.951V278ZM168.733 270.16L164.421 274.864H168.733V270.16ZM172.553 277.202C172.553 276.81 172.917 276.418 173.421 276.418C173.883 276.418 174.261 276.81 174.261 277.202C174.261 277.65 173.911 278.028 173.421 278.028C172.917 278.028 172.553 277.65 172.553 277.202ZM175.306 270.804L174.858 269.754L178.218 268.144H179.016V278H177.812V269.642L175.306 270.804Z" fill="#1A3341"/>
<path d="M150 257.333C150 258.254 150.746 259 151.667 259H183.333C184.254 259 185 258.254 185 257.333V218H150V257.333Z" fill="url(#paint40_linear_7005_17827)"/>
<path opacity="0.2" d="M160 259H175V218H160V259Z" fill="url(#paint41_linear_7005_17827)"/>
<path opacity="0.04" d="M175 259H183.333C184.254 259 185 258.254 185 257.333V218H175V259Z" fill="#0D262C"/>
<path opacity="0.5" d="M150 257.333C150 258.254 150.746 259 151.667 259H160V218H150V257.333Z" fill="url(#paint42_linear_7005_17827)"/>
<path d="M251.429 268.492H244.933V267.442H251.429V268.492ZM253.644 266.056L252.594 265.58C253.112 264.068 254.47 263.074 256.5 263.074C257.466 263.074 258.264 263.298 258.88 263.746C259.496 264.194 259.804 264.796 259.804 265.538C259.804 266.672 259.202 267.512 258.082 267.834C259.16 267.904 260.028 268.716 260.028 270.172C260.028 271.096 259.692 271.824 259.02 272.342C258.348 272.86 257.494 273.126 256.444 273.126C254.302 273.126 252.818 272.104 252.328 270.494L253.462 270.004C254.064 271.278 255.086 271.922 256.528 271.922C257.886 271.922 258.74 271.292 258.74 270.186C258.74 269.108 257.9 268.562 256.22 268.562H255.128V267.4H255.996C257.522 267.4 258.516 266.714 258.516 265.776C258.516 264.81 257.718 264.264 256.444 264.264C254.946 264.264 254.036 265.034 253.644 266.056ZM261.276 272.202C261.276 271.81 261.64 271.418 262.144 271.418C262.606 271.418 262.984 271.81 262.984 272.202C262.984 272.65 262.634 273.028 262.144 273.028C261.64 273.028 261.276 272.65 261.276 272.202ZM264.142 268.366C264.142 266.672 264.562 265.37 265.388 264.446C266.214 263.536 267.25 263.074 268.496 263.074C270.134 263.074 271.422 263.816 271.968 264.992L271.016 265.636C270.442 264.726 269.588 264.278 268.44 264.278C267.572 264.278 266.844 264.614 266.256 265.286C265.668 265.972 265.374 266.896 265.388 268.086C265.934 267.064 267.208 266.448 268.608 266.448C269.742 266.448 270.652 266.742 271.31 267.344C271.968 267.946 272.304 268.744 272.304 269.724C272.304 270.718 271.94 271.544 271.198 272.174C270.456 272.804 269.532 273.126 268.426 273.126C265.78 273.126 264.142 271.404 264.142 268.366ZM265.542 269.556C265.808 270.942 266.858 271.922 268.412 271.922C269.168 271.922 269.798 271.726 270.288 271.32C270.778 270.928 271.016 270.41 271.016 269.78C271.016 268.394 270.036 267.652 268.538 267.652C267.712 267.652 267.026 267.848 266.494 268.24C265.948 268.632 265.64 269.066 265.542 269.556Z" fill="#1A3341"/>
<path d="M241 252.333C241 253.254 241.746 254 242.667 254H274.333C275.254 254 276 253.254 276 252.333V218H241V252.333Z" fill="url(#paint43_linear_7005_17827)"/>
<path opacity="0.2" d="M251 254H266V218H251V254Z" fill="url(#paint44_linear_7005_17827)"/>
<path opacity="0.04" d="M266 254H274.333C275.254 254 276 253.254 276 252.333V218H266V254Z" fill="#0D262C"/>
<path opacity="0.5" d="M241 252.333C241 253.254 241.746 254 242.667 254H251V218H241V252.333Z" fill="url(#paint45_linear_7005_17827)"/>
<path d="M336.726 95.804L336.278 94.754L339.638 93.144H340.436V103H339.232V94.642L336.726 95.804ZM342.222 98.1C342.222 96.588 342.572 95.37 343.286 94.46C343.986 93.55 345.022 93.088 346.38 93.088C349.166 93.088 350.552 94.922 350.552 98.1C350.552 99.626 350.202 100.83 349.516 101.74C348.816 102.65 347.78 103.112 346.408 103.112C345.092 103.112 344.07 102.65 343.328 101.726C342.586 100.802 342.222 99.598 342.222 98.1ZM343.51 98.1C343.51 100.494 344.602 101.922 346.408 101.922C348.312 101.922 349.264 100.648 349.264 98.1C349.264 95.552 348.298 94.278 346.38 94.278C344.434 94.278 343.51 95.678 343.51 98.1ZM351.695 102.202C351.695 101.81 352.059 101.418 352.563 101.418C353.025 101.418 353.403 101.81 353.403 102.202C353.403 102.65 353.053 103.028 352.563 103.028C352.059 103.028 351.695 102.65 351.695 102.202ZM355.989 98.492L354.981 98.226L355.555 93.2H361.715V94.39H356.633L356.269 97.022C356.759 96.658 357.501 96.476 358.495 96.476C359.643 96.476 360.539 96.784 361.197 97.386C361.841 98.002 362.163 98.786 362.163 99.752C362.163 100.718 361.799 101.53 361.085 102.16C360.357 102.804 359.447 103.126 358.369 103.126C356.535 103.126 355.009 102.258 354.379 100.732L355.499 100.256C355.905 101.194 356.955 101.936 358.369 101.936C359.979 101.936 360.875 101.012 360.875 99.794C360.875 98.492 359.825 97.652 358.159 97.652C357.263 97.652 356.535 97.932 355.989 98.492Z" fill="#1A3341"/>
<path d="M332 114.667C332 113.746 332.746 113 333.667 113H365.333C366.254 113 367 113.746 367 114.667V218H332V114.667Z" fill="url(#paint46_linear_7005_17827)"/>
<path opacity="0.2" d="M342 113H357V218H342V113Z" fill="url(#paint47_linear_7005_17827)"/>
<path opacity="0.04" d="M357 113H365.333C366.254 113 367 113.746 367 114.667V218H357V113Z" fill="#0D262C"/>
<path opacity="0.5" d="M332 114.667C332 113.746 332.746 113 333.667 113H342V218H332V114.667Z" fill="url(#paint48_linear_7005_17827)"/>
<path d="M428.164 65.804L427.716 64.754L431.076 63.144H431.874V73H430.67V64.642L428.164 65.804ZM434.625 66.056L433.575 65.58C434.093 64.068 435.451 63.074 437.481 63.074C438.447 63.074 439.245 63.298 439.861 63.746C440.477 64.194 440.785 64.796 440.785 65.538C440.785 66.672 440.183 67.512 439.063 67.834C440.141 67.904 441.009 68.716 441.009 70.172C441.009 71.096 440.673 71.824 440.001 72.342C439.329 72.86 438.475 73.126 437.425 73.126C435.283 73.126 433.799 72.104 433.309 70.494L434.443 70.004C435.045 71.278 436.067 71.922 437.509 71.922C438.867 71.922 439.721 71.292 439.721 70.186C439.721 69.108 438.881 68.562 437.201 68.562H436.109V67.4H436.977C438.503 67.4 439.497 66.714 439.497 65.776C439.497 64.81 438.699 64.264 437.425 64.264C435.927 64.264 435.017 65.034 434.625 66.056ZM442.258 72.202C442.258 71.81 442.622 71.418 443.126 71.418C443.588 71.418 443.966 71.81 443.966 72.202C443.966 72.65 443.616 73.028 443.126 73.028C442.622 73.028 442.258 72.65 442.258 72.202ZM446.551 68.492L445.543 68.226L446.117 63.2H452.277V64.39H447.195L446.831 67.022C447.321 66.658 448.063 66.476 449.057 66.476C450.205 66.476 451.101 66.784 451.759 67.386C452.403 68.002 452.725 68.786 452.725 69.752C452.725 70.718 452.361 71.53 451.647 72.16C450.919 72.804 450.009 73.126 448.931 73.126C447.097 73.126 445.571 72.258 444.941 70.732L446.061 70.256C446.467 71.194 447.517 71.936 448.931 71.936C450.541 71.936 451.437 71.012 451.437 69.794C451.437 68.492 450.387 67.652 448.721 67.652C447.825 67.652 447.097 67.932 446.551 68.492Z" fill="#1A3341"/>
<path d="M423 84.6667C423 83.7462 423.746 83 424.667 83H456.333C457.254 83 458 83.7462 458 84.6667V218H423V84.6667Z" fill="url(#paint49_linear_7005_17827)"/>
<path opacity="0.2" d="M433 82.9999H448V218H433V82.9999Z" fill="url(#paint50_linear_7005_17827)"/>
<path opacity="0.04" d="M448 82.9999H456.333C457.254 82.9999 458 83.7461 458 84.6665V218H448V82.9999Z" fill="#0D262C"/>
<path opacity="0.5" d="M423 84.6667C423 83.7462 423.746 83 424.667 83H433V218H423V84.6667Z" fill="url(#paint51_linear_7005_17827)"/>
<path d="M518.931 72.804L518.483 71.754L521.843 70.144H522.641V80H521.437V71.642L518.931 72.804ZM525.547 73.434L524.525 73.07C524.875 71.334 526.191 70.088 528.277 70.088C530.293 70.088 531.525 71.25 531.525 73.028C531.525 73.966 531.119 74.904 530.615 75.576C530.363 75.926 530.041 76.262 529.663 76.612C528.893 77.298 528.347 77.662 527.549 78.166L526.471 78.838H531.889V80H524.259V79.048L526.387 77.634C526.765 77.396 527.031 77.214 527.185 77.102C527.339 77.004 527.591 76.822 527.927 76.584C528.263 76.346 528.515 76.136 528.683 75.982C528.837 75.828 529.047 75.632 529.285 75.38C529.929 74.68 530.167 74.036 530.237 73.154C530.237 71.88 529.411 71.306 528.193 71.306C527.437 71.306 526.835 71.516 526.401 71.936C525.967 72.356 525.673 72.86 525.547 73.434ZM532.957 79.202C532.957 78.81 533.321 78.418 533.825 78.418C534.287 78.418 534.665 78.81 534.665 79.202C534.665 79.65 534.315 80.028 533.825 80.028C533.321 80.028 532.957 79.65 532.957 79.202ZM539.687 74.414H540.121C540.751 74.414 541.269 74.26 541.703 73.966C542.123 73.672 542.333 73.28 542.333 72.818C542.333 71.768 541.507 71.236 539.869 71.236C538.301 71.236 537.447 71.81 537.447 72.818C537.447 73.728 538.385 74.414 539.687 74.414ZM540.093 75.52H539.743C538.987 75.52 538.357 75.688 537.867 76.01C537.377 76.332 537.125 76.738 537.125 77.228C537.125 78.292 538.105 78.964 539.883 78.964C541.689 78.964 542.655 78.32 542.655 77.242C542.655 76.164 541.619 75.52 540.093 75.52ZM542.851 79.37C542.137 79.874 541.143 80.126 539.897 80.126C538.651 80.126 537.657 79.874 536.929 79.384C536.201 78.894 535.837 78.222 535.837 77.354C535.837 76.22 536.579 75.324 537.769 74.932C536.691 74.582 536.159 73.728 536.159 72.734C536.159 71.11 537.531 70.074 539.883 70.074C542.249 70.074 543.621 71.11 543.621 72.734C543.621 73.672 543.103 74.386 542.067 74.862C543.313 75.24 543.929 76.052 543.929 77.298C543.929 78.18 543.565 78.88 542.851 79.37Z" fill="#1A3341"/>
<path d="M514 91.6667C514 90.7462 514.746 90 515.667 90H547.333C548.254 90 549 90.7462 549 91.6667V218H514V91.6667Z" fill="url(#paint52_linear_7005_17827)"/>
<path opacity="0.2" d="M524 89.9999H539V218H524V89.9999Z" fill="url(#paint53_linear_7005_17827)"/>
<path opacity="0.04" d="M539 89.9999H547.333C548.254 89.9999 549 90.7461 549 91.6665V218H539V89.9999Z" fill="#0D262C"/>
<path opacity="0.5" d="M514 91.6667C514 90.7462 514.746 90 515.667 90H524V218H514V91.6667Z" fill="url(#paint54_linear_7005_17827)"/>
<path d="M616.565 119.414H616.999C617.629 119.414 618.147 119.26 618.581 118.966C619.001 118.672 619.211 118.28 619.211 117.818C619.211 116.768 618.385 116.236 616.747 116.236C615.179 116.236 614.325 116.81 614.325 117.818C614.325 118.728 615.263 119.414 616.565 119.414ZM616.971 120.52H616.621C615.865 120.52 615.235 120.688 614.745 121.01C614.255 121.332 614.003 121.738 614.003 122.228C614.003 123.292 614.983 123.964 616.761 123.964C618.567 123.964 619.533 123.32 619.533 122.242C619.533 121.164 618.497 120.52 616.971 120.52ZM619.729 124.37C619.015 124.874 618.021 125.126 616.775 125.126C615.529 125.126 614.535 124.874 613.807 124.384C613.079 123.894 612.715 123.222 612.715 122.354C612.715 121.22 613.457 120.324 614.647 119.932C613.569 119.582 613.037 118.728 613.037 117.734C613.037 116.11 614.409 115.074 616.761 115.074C619.127 115.074 620.499 116.11 620.499 117.734C620.499 118.672 619.981 119.386 618.945 119.862C620.191 120.24 620.807 121.052 620.807 122.298C620.807 123.18 620.443 123.88 619.729 124.37ZM621.997 124.202C621.997 123.81 622.361 123.418 622.865 123.418C623.327 123.418 623.705 123.81 623.705 124.202C623.705 124.65 623.355 125.028 622.865 125.028C622.361 125.028 621.997 124.65 621.997 124.202ZM625.828 118.056L624.778 117.58C625.296 116.068 626.654 115.074 628.684 115.074C629.65 115.074 630.448 115.298 631.064 115.746C631.68 116.194 631.988 116.796 631.988 117.538C631.988 118.672 631.386 119.512 630.266 119.834C631.344 119.904 632.212 120.716 632.212 122.172C632.212 123.096 631.876 123.824 631.204 124.342C630.532 124.86 629.678 125.126 628.628 125.126C626.486 125.126 625.002 124.104 624.512 122.494L625.646 122.004C626.248 123.278 627.27 123.922 628.712 123.922C630.07 123.922 630.924 123.292 630.924 122.186C630.924 121.108 630.084 120.562 628.404 120.562H627.312V119.4H628.18C629.706 119.4 630.7 118.714 630.7 117.776C630.7 116.81 629.902 116.264 628.628 116.264C627.13 116.264 626.22 117.034 625.828 118.056Z" fill="#1A3341"/>
<path d="M605 136.667C605 135.746 605.746 135 606.667 135H638.333C639.254 135 640 135.746 640 136.667V218H605V136.667Z" fill="url(#paint55_linear_7005_17827)"/>
<path opacity="0.2" d="M615 135H630V218H615V135Z" fill="url(#paint56_linear_7005_17827)"/>
<path opacity="0.04" d="M630 135H638.333C639.254 135 640 135.746 640 136.667V218H630V135Z" fill="#0D262C"/>
<path opacity="0.5" d="M605 136.667C605 135.746 605.746 135 606.667 135H615V218H605V136.667Z" fill="url(#paint57_linear_7005_17827)"/>
<path d="M702.839 88.804L702.391 87.754L705.751 86.144H706.549V96H705.345V87.642L702.839 88.804ZM708.222 88.804L707.774 87.754L711.134 86.144H711.932V96H710.728V87.642L708.222 88.804ZM713.816 95.202C713.816 94.81 714.18 94.418 714.684 94.418C715.146 94.418 715.524 94.81 715.524 95.202C715.524 95.65 715.174 96.028 714.684 96.028C714.18 96.028 713.816 95.65 713.816 95.202ZM717.801 89.434L716.779 89.07C717.129 87.334 718.445 86.088 720.531 86.088C722.547 86.088 723.779 87.25 723.779 89.028C723.779 89.966 723.373 90.904 722.869 91.576C722.617 91.926 722.295 92.262 721.917 92.612C721.147 93.298 720.601 93.662 719.803 94.166L718.725 94.838H724.143V96H716.513V95.048L718.641 93.634C719.019 93.396 719.285 93.214 719.439 93.102C719.593 93.004 719.845 92.822 720.181 92.584C720.517 92.346 720.769 92.136 720.937 91.982C721.091 91.828 721.301 91.632 721.539 91.38C722.183 90.68 722.421 90.036 722.491 89.154C722.491 87.88 721.665 87.306 720.447 87.306C719.691 87.306 719.089 87.516 718.655 87.936C718.221 88.356 717.927 88.86 717.801 89.434Z" fill="#1A3341"/>
<path d="M696 107.667C696 106.746 696.746 106 697.667 106H729.333C730.254 106 731 106.746 731 107.667V218H696V107.667Z" fill="url(#paint58_linear_7005_17827)"/>
<path opacity="0.2" d="M706 106H721V218H706V106Z" fill="url(#paint59_linear_7005_17827)"/>
<path opacity="0.04" d="M721 106H729.333C730.254 106 731 106.746 731 107.667V218H721V106Z" fill="#0D262C"/>
<path opacity="0.5" d="M696 107.667C696 106.746 696.746 106 697.667 106H706V218H696V107.667Z" fill="url(#paint60_linear_7005_17827)"/>
<path d="M792.314 78.804L791.866 77.754L795.226 76.144H796.024V86H794.82V77.642L792.314 78.804ZM798.93 79.434L797.908 79.07C798.258 77.334 799.574 76.088 801.66 76.088C803.676 76.088 804.908 77.25 804.908 79.028C804.908 79.966 804.502 80.904 803.998 81.576C803.746 81.926 803.424 82.262 803.046 82.612C802.276 83.298 801.73 83.662 800.932 84.166L799.854 84.838H805.272V86H797.642V85.048L799.77 83.634C800.148 83.396 800.414 83.214 800.568 83.102C800.722 83.004 800.974 82.822 801.31 82.584C801.646 82.346 801.898 82.136 802.066 81.982C802.22 81.828 802.43 81.632 802.668 81.38C803.312 80.68 803.55 80.036 803.62 79.154C803.62 77.88 802.794 77.306 801.576 77.306C800.82 77.306 800.218 77.516 799.784 77.936C799.35 78.356 799.056 78.86 798.93 79.434ZM806.34 85.202C806.34 84.81 806.704 84.418 807.208 84.418C807.67 84.418 808.048 84.81 808.048 85.202C808.048 85.65 807.698 86.028 807.208 86.028C806.704 86.028 806.34 85.65 806.34 85.202ZM810.325 79.434L809.303 79.07C809.653 77.334 810.969 76.088 813.055 76.088C815.071 76.088 816.303 77.25 816.303 79.028C816.303 79.966 815.897 80.904 815.393 81.576C815.141 81.926 814.819 82.262 814.441 82.612C813.671 83.298 813.125 83.662 812.327 84.166L811.249 84.838H816.667V86H809.037V85.048L811.165 83.634C811.543 83.396 811.809 83.214 811.963 83.102C812.117 83.004 812.369 82.822 812.705 82.584C813.041 82.346 813.293 82.136 813.461 81.982C813.615 81.828 813.825 81.632 814.063 81.38C814.707 80.68 814.945 80.036 815.015 79.154C815.015 77.88 814.189 77.306 812.971 77.306C812.215 77.306 811.613 77.516 811.179 77.936C810.745 78.356 810.451 78.86 810.325 79.434Z" fill="#1A3341"/>
<path d="M787 97.6667C787 96.7462 787.746 96 788.667 96H820.333C821.254 96 822 96.7462 822 97.6667V218H787V97.6667Z" fill="url(#paint61_linear_7005_17827)"/>
<path opacity="0.2" d="M797 95.9999H812V218H797V95.9999Z" fill="url(#paint62_linear_7005_17827)"/>
<path opacity="0.04" d="M812 95.9999H820.333C821.254 95.9999 822 96.7461 822 97.6665V218H812V95.9999Z" fill="#0D262C"/>
<path opacity="0.5" d="M787 97.6667C787 96.7462 787.746 96 788.667 96H797V218H787V97.6667Z" fill="url(#paint63_linear_7005_17827)"/>
<path d="M882.781 46.804L882.333 45.754L885.693 44.144H886.491V54H885.287V45.642L882.781 46.804ZM889.704 49.492L888.696 49.226L889.27 44.2H895.43V45.39H890.348L889.984 48.022C890.474 47.658 891.216 47.476 892.21 47.476C893.358 47.476 894.254 47.784 894.912 48.386C895.556 49.002 895.878 49.786 895.878 50.752C895.878 51.718 895.514 52.53 894.8 53.16C894.072 53.804 893.162 54.126 892.084 54.126C890.25 54.126 888.724 53.258 888.094 51.732L889.214 51.256C889.62 52.194 890.67 52.936 892.084 52.936C893.694 52.936 894.59 52.012 894.59 50.794C894.59 49.492 893.54 48.652 891.874 48.652C890.978 48.652 890.25 48.932 889.704 49.492ZM897.039 53.202C897.039 52.81 897.403 52.418 897.907 52.418C898.369 52.418 898.747 52.81 898.747 53.202C898.747 53.65 898.397 54.028 897.907 54.028C897.403 54.028 897.039 53.65 897.039 53.202ZM906.667 54H905.449V51.998H899.457V51.186L905.589 44.2H906.667V50.864H908.487V51.998H906.667V54ZM905.449 46.16L901.137 50.864H905.449V46.16Z" fill="#1A3341"/>
<path d="M878 65.6667C878 64.7462 878.746 64 879.667 64H911.333C912.254 64 913 64.7462 913 65.6667V218H878V65.6667Z" fill="url(#paint64_linear_7005_17827)"/>
<path opacity="0.2" d="M888 63.9999H903V218H888V63.9999Z" fill="url(#paint65_linear_7005_17827)"/>
<path opacity="0.04" d="M903 63.9999H911.333C912.254 63.9999 913 64.7461 913 65.6665V218H903V63.9999Z" fill="#0D262C"/>
<path opacity="0.5" d="M878 65.6667C878 64.7462 878.746 64 879.667 64H888V218H878V65.6667Z" fill="url(#paint66_linear_7005_17827)"/>
<path d="M973.863 66.804L973.415 65.754L976.775 64.144H977.573V74H976.369V65.642L973.863 66.804ZM980.325 67.056L979.275 66.58C979.793 65.068 981.151 64.074 983.181 64.074C984.147 64.074 984.945 64.298 985.561 64.746C986.177 65.194 986.485 65.796 986.485 66.538C986.485 67.672 985.883 68.512 984.763 68.834C985.841 68.904 986.709 69.716 986.709 71.172C986.709 72.096 986.373 72.824 985.701 73.342C985.029 73.86 984.175 74.126 983.125 74.126C980.983 74.126 979.499 73.104 979.009 71.494L980.143 71.004C980.745 72.278 981.767 72.922 983.209 72.922C984.567 72.922 985.421 72.292 985.421 71.186C985.421 70.108 984.581 69.562 982.901 69.562H981.809V68.4H982.677C984.203 68.4 985.197 67.714 985.197 66.776C985.197 65.81 984.399 65.264 983.125 65.264C981.627 65.264 980.717 66.034 980.325 67.056ZM987.957 73.202C987.957 72.81 988.321 72.418 988.825 72.418C989.287 72.418 989.665 72.81 989.665 73.202C989.665 73.65 989.315 74.028 988.825 74.028C988.321 74.028 987.957 73.65 987.957 73.202ZM997.585 74H996.367V71.998H990.375V71.186L996.507 64.2H997.585V70.864H999.405V71.998H997.585V74ZM996.367 66.16L992.055 70.864H996.367V66.16Z" fill="#1A3341"/>
<path d="M969 85.6667C969 84.7462 969.746 84 970.667 84H1002.33C1003.25 84 1004 84.7462 1004 85.6667V218H969V85.6667Z" fill="url(#paint67_linear_7005_17827)"/>
<path opacity="0.2" d="M979 83.9999H994V218H979V83.9999Z" fill="url(#paint68_linear_7005_17827)"/>
<path opacity="0.04" d="M994 83.9999H1002.33C1003.25 83.9999 1004 84.7461 1004 85.6665V218H994V83.9999Z" fill="#0D262C"/>
<path opacity="0.5" d="M969 85.6667C969 84.7462 969.746 84 970.667 84H979V218H969V85.6667Z" fill="url(#paint69_linear_7005_17827)"/>
<path d="M1067.13 83.804L1066.68 82.754L1070.04 81.144H1070.84V91H1069.63V82.642L1067.13 83.804ZM1072.51 83.804L1072.06 82.754L1075.42 81.144H1076.22V91H1075.02V82.642L1072.51 83.804ZM1078.1 90.202C1078.1 89.81 1078.47 89.418 1078.97 89.418C1079.43 89.418 1079.81 89.81 1079.81 90.202C1079.81 90.65 1079.46 91.028 1078.97 91.028C1078.47 91.028 1078.1 90.65 1078.1 90.202ZM1086.58 82.39H1080.65V81.2H1088.08V81.998L1083.21 91H1081.88L1086.58 82.39Z" fill="#1A3341"/>
<path d="M1060 102.667C1060 101.746 1060.75 101 1061.67 101H1093.33C1094.25 101 1095 101.746 1095 102.667V218H1060V102.667Z" fill="url(#paint70_linear_7005_17827)"/>
<path opacity="0.2" d="M1070 101H1085V218H1070V101Z" fill="url(#paint71_linear_7005_17827)"/>
<path opacity="0.04" d="M1085 101H1093.33C1094.25 101 1095 101.746 1095 102.667V218H1085V101Z" fill="#0D262C"/>
<path opacity="0.5" d="M1060 102.667C1060 101.746 1060.75 101 1061.67 101H1070V218H1060V102.667Z" fill="url(#paint72_linear_7005_17827)"/>
<path d="M32.696 355.828H43.688V356.812H32.696V355.828ZM47.216 351.556H53.468V352.432H47.216V351.556ZM47.216 354.448H53.528V355.3H47.216V354.448ZM47.12 357.34H53.468V358.216H47.12V357.34ZM46.652 351.556H47.564V355.252C47.564 355.772 47.536 356.328 47.48 356.92C47.432 357.512 47.328 358.112 47.168 358.72C47.008 359.32 46.768 359.9 46.448 360.46C46.136 361.02 45.72 361.524 45.2 361.972C45.16 361.908 45.096 361.832 45.008 361.744C44.928 361.656 44.844 361.572 44.756 361.492C44.668 361.42 44.588 361.364 44.516 361.324C45.004 360.892 45.388 360.428 45.668 359.932C45.956 359.428 46.168 358.908 46.304 358.372C46.448 357.836 46.54 357.304 46.58 356.776C46.628 356.24 46.652 355.732 46.652 355.252V351.556ZM53.072 351.556H54.02V360.628C54.02 360.948 53.972 361.192 53.876 361.36C53.78 361.528 53.62 361.652 53.396 361.732C53.164 361.812 52.84 361.86 52.424 361.876C52.008 361.9 51.48 361.912 50.84 361.912C50.824 361.816 50.792 361.712 50.744 361.6C50.704 361.488 50.656 361.372 50.6 361.252C50.552 361.14 50.504 361.044 50.456 360.964C50.792 360.972 51.112 360.98 51.416 360.988C51.728 360.988 51.996 360.988 52.22 360.988C52.452 360.98 52.612 360.976 52.7 360.976C52.844 360.968 52.94 360.94 52.988 360.892C53.044 360.836 53.072 360.744 53.072 360.616V351.556ZM60.152 358.156H57.08V357.232H60.152V358.156ZM62.5541 355.372L61.6781 355.06C61.9781 353.572 63.1061 352.504 64.8941 352.504C66.6221 352.504 67.6781 353.5 67.6781 355.024C67.6781 355.828 67.3301 356.632 66.8981 357.208C66.6821 357.508 66.4061 357.796 66.0821 358.096C65.4221 358.684 64.9541 358.996 64.2701 359.428L63.3461 360.004H67.9901V361H61.4501V360.184L63.2741 358.972C63.5981 358.768 63.8261 358.612 63.9581 358.516C64.0901 358.432 64.3061 358.276 64.5941 358.072C64.8821 357.868 65.0981 357.688 65.2421 357.556C65.3741 357.424 65.5541 357.256 65.7581 357.04C66.3101 356.44 66.5141 355.888 66.5741 355.132C66.5741 354.04 65.8661 353.548 64.8221 353.548C64.1741 353.548 63.6581 353.728 63.2861 354.088C62.9141 354.448 62.6621 354.88 62.5541 355.372ZM69.7698 355.048L68.8698 354.64C69.3138 353.344 70.4778 352.492 72.2178 352.492C73.0458 352.492 73.7298 352.684 74.2578 353.068C74.7858 353.452 75.0498 353.968 75.0498 354.604C75.0498 355.576 74.5338 356.296 73.5738 356.572C74.4978 356.632 75.2418 357.328 75.2418 358.576C75.2418 359.368 74.9538 359.992 74.3778 360.436C73.8018 360.88 73.0698 361.108 72.1698 361.108C70.3338 361.108 69.0618 360.232 68.6418 358.852L69.6138 358.432C70.1298 359.524 71.0058 360.076 72.2418 360.076C73.4058 360.076 74.1378 359.536 74.1378 358.588C74.1378 357.664 73.4178 357.196 71.9778 357.196H71.0418V356.2H71.7858C73.0938 356.2 73.9458 355.612 73.9458 354.808C73.9458 353.98 73.2618 353.512 72.1698 353.512C70.8858 353.512 70.1058 354.172 69.7698 355.048Z" fill="#76848D"/>
<path d="M124.896 352.684H133.452V353.632H124.896V352.684ZM123.888 359.752H134.46V360.724H123.888V359.752ZM138.444 357.328H144.06V355.312H138.576C138.576 355.936 138.54 356.62 138.444 357.328ZM144.06 352.468H138.576V354.46H144.06V352.468ZM144.984 351.592V360.616C144.984 361.24 144.804 361.552 144.36 361.696C143.904 361.852 143.112 361.864 141.828 361.864C141.768 361.612 141.6 361.192 141.456 360.94C142.452 360.976 143.412 360.964 143.688 360.964C143.964 360.952 144.06 360.868 144.06 360.604V358.204H138.3C138 359.56 137.4 360.916 136.236 361.936C136.116 361.744 135.756 361.42 135.576 361.288C137.484 359.608 137.676 357.172 137.676 355.264V351.592H144.984ZM151.152 358.156H148.08V357.232H151.152V358.156ZM153.554 355.372L152.678 355.06C152.978 353.572 154.106 352.504 155.894 352.504C157.622 352.504 158.678 353.5 158.678 355.024C158.678 355.828 158.33 356.632 157.898 357.208C157.682 357.508 157.406 357.796 157.082 358.096C156.422 358.684 155.954 358.996 155.27 359.428L154.346 360.004H158.99V361H152.45V360.184L154.274 358.972C154.598 358.768 154.826 358.612 154.958 358.516C155.09 358.432 155.306 358.276 155.594 358.072C155.882 357.868 156.098 357.688 156.242 357.556C156.374 357.424 156.554 357.256 156.758 357.04C157.31 356.44 157.514 355.888 157.574 355.132C157.574 354.04 156.866 353.548 155.822 353.548C155.174 353.548 154.658 353.728 154.286 354.088C153.914 354.448 153.662 354.88 153.554 355.372ZM160.77 355.048L159.87 354.64C160.314 353.344 161.478 352.492 163.218 352.492C164.046 352.492 164.73 352.684 165.258 353.068C165.786 353.452 166.05 353.968 166.05 354.604C166.05 355.576 165.534 356.296 164.574 356.572C165.498 356.632 166.242 357.328 166.242 358.576C166.242 359.368 165.954 359.992 165.378 360.436C164.802 360.88 164.07 361.108 163.17 361.108C161.334 361.108 160.062 360.232 159.642 358.852L160.614 358.432C161.13 359.524 162.006 360.076 163.242 360.076C164.406 360.076 165.138 359.536 165.138 358.588C165.138 357.664 164.418 357.196 162.978 357.196H162.042V356.2H162.786C164.094 356.2 164.946 355.612 164.946 354.808C164.946 353.98 164.262 353.512 163.17 353.512C161.886 353.512 161.106 354.172 160.77 355.048Z" fill="#76848D"/>
<path d="M215.68 352.12H224.68V353.008H215.68V352.12ZM216.448 356.008H223.744V356.908H216.448V356.008ZM214.996 360.148H225.328V361.048H214.996V360.148ZM229.444 357.328H235.06V355.312H229.576C229.576 355.936 229.54 356.62 229.444 357.328ZM235.06 352.468H229.576V354.46H235.06V352.468ZM235.984 351.592V360.616C235.984 361.24 235.804 361.552 235.36 361.696C234.904 361.852 234.112 361.864 232.828 361.864C232.768 361.612 232.6 361.192 232.456 360.94C233.452 360.976 234.412 360.964 234.688 360.964C234.964 360.952 235.06 360.868 235.06 360.604V358.204H229.3C229 359.56 228.4 360.916 227.236 361.936C227.116 361.744 226.756 361.42 226.576 361.288C228.484 359.608 228.676 357.172 228.676 355.264V351.592H235.984ZM242.152 358.156H239.08V357.232H242.152V358.156ZM244.554 355.372L243.678 355.06C243.978 353.572 245.106 352.504 246.894 352.504C248.622 352.504 249.678 353.5 249.678 355.024C249.678 355.828 249.33 356.632 248.898 357.208C248.682 357.508 248.406 357.796 248.082 358.096C247.422 358.684 246.954 358.996 246.27 359.428L245.346 360.004H249.99V361H243.45V360.184L245.274 358.972C245.598 358.768 245.826 358.612 245.958 358.516C246.09 358.432 246.306 358.276 246.594 358.072C246.882 357.868 247.098 357.688 247.242 357.556C247.374 357.424 247.554 357.256 247.758 357.04C248.31 356.44 248.514 355.888 248.574 355.132C248.574 354.04 247.866 353.548 246.822 353.548C246.174 353.548 245.658 353.728 245.286 354.088C244.914 354.448 244.662 354.88 244.554 355.372ZM251.77 355.048L250.87 354.64C251.314 353.344 252.478 352.492 254.218 352.492C255.046 352.492 255.73 352.684 256.258 353.068C256.786 353.452 257.05 353.968 257.05 354.604C257.05 355.576 256.534 356.296 255.574 356.572C256.498 356.632 257.242 357.328 257.242 358.576C257.242 359.368 256.954 359.992 256.378 360.436C255.802 360.88 255.07 361.108 254.17 361.108C252.334 361.108 251.062 360.232 250.642 358.852L251.614 358.432C252.13 359.524 253.006 360.076 254.242 360.076C255.406 360.076 256.138 359.536 256.138 358.588C256.138 357.664 255.418 357.196 253.978 357.196H253.042V356.2H253.786C255.094 356.2 255.946 355.612 255.946 354.808C255.946 353.98 255.262 353.512 254.17 353.512C252.886 353.512 252.106 354.172 251.77 355.048Z" fill="#76848D"/>
<path d="M307.16 359.764H315.116V352.864H312.776V356.62C312.776 357.004 312.824 357.148 313.076 357.148H314.24C314.444 357.148 314.768 357.136 314.936 357.088C314.948 357.34 314.972 357.628 314.996 357.844C314.852 357.904 314.552 357.904 314.276 357.904H312.98C312.14 357.904 311.936 357.532 311.936 356.596V352.864H310.28C310.208 356.092 309.908 357.868 307.844 358.864C307.748 358.648 307.496 358.336 307.304 358.168C309.128 357.316 309.344 355.792 309.404 352.864H307.16V359.764ZM306.272 352H316.028V361.432H315.116V360.628H307.16V361.516H306.272V352ZM320.444 357.328H326.06V355.312H320.576C320.576 355.936 320.54 356.62 320.444 357.328ZM326.06 352.468H320.576V354.46H326.06V352.468ZM326.984 351.592V360.616C326.984 361.24 326.804 361.552 326.36 361.696C325.904 361.852 325.112 361.864 323.828 361.864C323.768 361.612 323.6 361.192 323.456 360.94C324.452 360.976 325.412 360.964 325.688 360.964C325.964 360.952 326.06 360.868 326.06 360.604V358.204H320.3C320 359.56 319.4 360.916 318.236 361.936C318.116 361.744 317.756 361.42 317.576 361.288C319.484 359.608 319.676 357.172 319.676 355.264V351.592H326.984ZM333.152 358.156H330.08V357.232H333.152V358.156ZM335.554 355.372L334.678 355.06C334.978 353.572 336.106 352.504 337.894 352.504C339.622 352.504 340.678 353.5 340.678 355.024C340.678 355.828 340.33 356.632 339.898 357.208C339.682 357.508 339.406 357.796 339.082 358.096C338.422 358.684 337.954 358.996 337.27 359.428L336.346 360.004H340.99V361H334.45V360.184L336.274 358.972C336.598 358.768 336.826 358.612 336.958 358.516C337.09 358.432 337.306 358.276 337.594 358.072C337.882 357.868 338.098 357.688 338.242 357.556C338.374 357.424 338.554 357.256 338.758 357.04C339.31 356.44 339.514 355.888 339.574 355.132C339.574 354.04 338.866 353.548 337.822 353.548C337.174 353.548 336.658 353.728 336.286 354.088C335.914 354.448 335.662 354.88 335.554 355.372ZM342.77 355.048L341.87 354.64C342.314 353.344 343.478 352.492 345.218 352.492C346.046 352.492 346.73 352.684 347.258 353.068C347.786 353.452 348.05 353.968 348.05 354.604C348.05 355.576 347.534 356.296 346.574 356.572C347.498 356.632 348.242 357.328 348.242 358.576C348.242 359.368 347.954 359.992 347.378 360.436C346.802 360.88 346.07 361.108 345.17 361.108C343.334 361.108 342.062 360.232 341.642 358.852L342.614 358.432C343.13 359.524 344.006 360.076 345.242 360.076C346.406 360.076 347.138 359.536 347.138 358.588C347.138 357.664 346.418 357.196 344.978 357.196H344.042V356.2H344.786C346.094 356.2 346.946 355.612 346.946 354.808C346.946 353.98 346.262 353.512 345.17 353.512C343.886 353.512 343.106 354.172 342.77 355.048Z" fill="#76848D"/>
<path d="M404.496 356.464H401.484C401.256 357.892 401.004 359.296 400.776 360.388H404.124C404.256 359.116 404.4 357.58 404.496 356.464ZM405.048 360.388H407.484V361.264H396.888V360.388H399.804C400.044 359.296 400.296 357.892 400.536 356.464H398.304V355.588H400.68C400.824 354.7 400.956 353.812 401.064 353.008H397.644V352.132H406.62V353.008H402.012C401.892 353.812 401.76 354.712 401.616 355.588H404.64L404.796 355.54L405.48 355.612C405.396 356.932 405.228 358.828 405.048 360.388ZM411.444 357.328H417.06V355.312H411.576C411.576 355.936 411.54 356.62 411.444 357.328ZM417.06 352.468H411.576V354.46H417.06V352.468ZM417.984 351.592V360.616C417.984 361.24 417.804 361.552 417.36 361.696C416.904 361.852 416.112 361.864 414.828 361.864C414.768 361.612 414.6 361.192 414.456 360.94C415.452 360.976 416.412 360.964 416.688 360.964C416.964 360.952 417.06 360.868 417.06 360.604V358.204H411.3C411 359.56 410.4 360.916 409.236 361.936C409.116 361.744 408.756 361.42 408.576 361.288C410.484 359.608 410.676 357.172 410.676 355.264V351.592H417.984ZM424.152 358.156H421.08V357.232H424.152V358.156ZM426.554 355.372L425.678 355.06C425.978 353.572 427.106 352.504 428.894 352.504C430.622 352.504 431.678 353.5 431.678 355.024C431.678 355.828 431.33 356.632 430.898 357.208C430.682 357.508 430.406 357.796 430.082 358.096C429.422 358.684 428.954 358.996 428.27 359.428L427.346 360.004H431.99V361H425.45V360.184L427.274 358.972C427.598 358.768 427.826 358.612 427.958 358.516C428.09 358.432 428.306 358.276 428.594 358.072C428.882 357.868 429.098 357.688 429.242 357.556C429.374 357.424 429.554 357.256 429.758 357.04C430.31 356.44 430.514 355.888 430.574 355.132C430.574 354.04 429.866 353.548 428.822 353.548C428.174 353.548 427.658 353.728 427.286 354.088C426.914 354.448 426.662 354.88 426.554 355.372ZM433.77 355.048L432.87 354.64C433.314 353.344 434.478 352.492 436.218 352.492C437.046 352.492 437.73 352.684 438.258 353.068C438.786 353.452 439.05 353.968 439.05 354.604C439.05 355.576 438.534 356.296 437.574 356.572C438.498 356.632 439.242 357.328 439.242 358.576C439.242 359.368 438.954 359.992 438.378 360.436C437.802 360.88 437.07 361.108 436.17 361.108C434.334 361.108 433.062 360.232 432.642 358.852L433.614 358.432C434.13 359.524 435.006 360.076 436.242 360.076C437.406 360.076 438.138 359.536 438.138 358.588C438.138 357.664 437.418 357.196 435.978 357.196H435.042V356.2H435.786C437.094 356.2 437.946 355.612 437.946 354.808C437.946 353.98 437.262 353.512 436.17 353.512C434.886 353.512 434.106 354.172 433.77 355.048Z" fill="#76848D"/>
<path d="M487.9 354.124H498.472V355.036H487.9V354.124ZM490.888 356.416L491.86 356.728C490.984 358.576 489.724 360.556 488.62 361.84C488.416 361.672 487.984 361.372 487.732 361.216C488.884 360.028 490.096 358.156 490.888 356.416ZM494.416 356.716L495.244 356.32C496.36 357.88 497.824 360.004 498.532 361.252L497.632 361.768C496.972 360.508 495.532 358.324 494.416 356.716ZM492.064 351.328L492.964 351.016C493.384 351.808 493.888 352.864 494.128 353.476L493.168 353.848C492.94 353.224 492.46 352.132 492.064 351.328ZM502.444 357.328H508.06V355.312H502.576C502.576 355.936 502.54 356.62 502.444 357.328ZM508.06 352.468H502.576V354.46H508.06V352.468ZM508.984 351.592V360.616C508.984 361.24 508.804 361.552 508.36 361.696C507.904 361.852 507.112 361.864 505.828 361.864C505.768 361.612 505.6 361.192 505.456 360.94C506.452 360.976 507.412 360.964 507.688 360.964C507.964 360.952 508.06 360.868 508.06 360.604V358.204H502.3C502 359.56 501.4 360.916 500.236 361.936C500.116 361.744 499.756 361.42 499.576 361.288C501.484 359.608 501.676 357.172 501.676 355.264V351.592H508.984ZM515.152 358.156H512.08V357.232H515.152V358.156ZM517.554 355.372L516.678 355.06C516.978 353.572 518.106 352.504 519.894 352.504C521.622 352.504 522.678 353.5 522.678 355.024C522.678 355.828 522.33 356.632 521.898 357.208C521.682 357.508 521.406 357.796 521.082 358.096C520.422 358.684 519.954 358.996 519.27 359.428L518.346 360.004H522.99V361H516.45V360.184L518.274 358.972C518.598 358.768 518.826 358.612 518.958 358.516C519.09 358.432 519.306 358.276 519.594 358.072C519.882 357.868 520.098 357.688 520.242 357.556C520.374 357.424 520.554 357.256 520.758 357.04C521.31 356.44 521.514 355.888 521.574 355.132C521.574 354.04 520.866 353.548 519.822 353.548C519.174 353.548 518.658 353.728 518.286 354.088C517.914 354.448 517.662 354.88 517.554 355.372ZM524.77 355.048L523.87 354.64C524.314 353.344 525.478 352.492 527.218 352.492C528.046 352.492 528.73 352.684 529.258 353.068C529.786 353.452 530.05 353.968 530.05 354.604C530.05 355.576 529.534 356.296 528.574 356.572C529.498 356.632 530.242 357.328 530.242 358.576C530.242 359.368 529.954 359.992 529.378 360.436C528.802 360.88 528.07 361.108 527.17 361.108C525.334 361.108 524.062 360.232 523.642 358.852L524.614 358.432C525.13 359.524 526.006 360.076 527.242 360.076C528.406 360.076 529.138 359.536 529.138 358.588C529.138 357.664 528.418 357.196 526.978 357.196H526.042V356.2H526.786C528.094 356.2 528.946 355.612 528.946 354.808C528.946 353.98 528.262 353.512 527.17 353.512C525.886 353.512 525.106 354.172 524.77 355.048Z" fill="#76848D"/>
<path d="M584.204 360.616H587.276C588.068 360.616 588.188 360.208 588.308 358.432C588.536 358.6 588.956 358.78 589.208 358.852C589.052 360.82 588.764 361.492 587.3 361.492H584.168C582.692 361.492 582.248 361.12 582.248 359.704V356.068L578.948 356.596L578.804 355.708L582.248 355.156V351.172H583.184V355.012L589.424 354.004L589.568 354.904L583.184 355.912V359.716C583.184 360.448 583.352 360.616 584.204 360.616ZM593.444 357.328H599.06V355.312H593.576C593.576 355.936 593.54 356.62 593.444 357.328ZM599.06 352.468H593.576V354.46H599.06V352.468ZM599.984 351.592V360.616C599.984 361.24 599.804 361.552 599.36 361.696C598.904 361.852 598.112 361.864 596.828 361.864C596.768 361.612 596.6 361.192 596.456 360.94C597.452 360.976 598.412 360.964 598.688 360.964C598.964 360.952 599.06 360.868 599.06 360.604V358.204H593.3C593 359.56 592.4 360.916 591.236 361.936C591.116 361.744 590.756 361.42 590.576 361.288C592.484 359.608 592.676 357.172 592.676 355.264V351.592H599.984ZM606.152 358.156H603.08V357.232H606.152V358.156ZM608.554 355.372L607.678 355.06C607.978 353.572 609.106 352.504 610.894 352.504C612.622 352.504 613.678 353.5 613.678 355.024C613.678 355.828 613.33 356.632 612.898 357.208C612.682 357.508 612.406 357.796 612.082 358.096C611.422 358.684 610.954 358.996 610.27 359.428L609.346 360.004H613.99V361H607.45V360.184L609.274 358.972C609.598 358.768 609.826 358.612 609.958 358.516C610.09 358.432 610.306 358.276 610.594 358.072C610.882 357.868 611.098 357.688 611.242 357.556C611.374 357.424 611.554 357.256 611.758 357.04C612.31 356.44 612.514 355.888 612.574 355.132C612.574 354.04 611.866 353.548 610.822 353.548C610.174 353.548 609.658 353.728 609.286 354.088C608.914 354.448 608.662 354.88 608.554 355.372ZM615.77 355.048L614.87 354.64C615.314 353.344 616.478 352.492 618.218 352.492C619.046 352.492 619.73 352.684 620.258 353.068C620.786 353.452 621.05 353.968 621.05 354.604C621.05 355.576 620.534 356.296 619.574 356.572C620.498 356.632 621.242 357.328 621.242 358.576C621.242 359.368 620.954 359.992 620.378 360.436C619.802 360.88 619.07 361.108 618.17 361.108C616.334 361.108 615.062 360.232 614.642 358.852L615.614 358.432C616.13 359.524 617.006 360.076 618.242 360.076C619.406 360.076 620.138 359.536 620.138 358.588C620.138 357.664 619.418 357.196 617.978 357.196H617.042V356.2H617.786C619.094 356.2 619.946 355.612 619.946 354.808C619.946 353.98 619.262 353.512 618.17 353.512C616.886 353.512 616.106 354.172 615.77 355.048Z" fill="#76848D"/>
<path d="M672.852 352.132L673.812 352.204C673.488 355.72 672.852 359.68 670.236 361.864C670.104 361.672 669.792 361.36 669.612 361.192C672.06 359.164 672.612 355.42 672.852 352.132ZM677.076 351.856C677.112 352.732 677.4 358.648 680.808 361.24C680.496 361.408 680.22 361.624 680.04 361.852C676.584 359.116 676.272 352.9 676.2 351.916L677.076 351.856ZM684.444 357.328H690.06V355.312H684.576C684.576 355.936 684.54 356.62 684.444 357.328ZM690.06 352.468H684.576V354.46H690.06V352.468ZM690.984 351.592V360.616C690.984 361.24 690.804 361.552 690.36 361.696C689.904 361.852 689.112 361.864 687.828 361.864C687.768 361.612 687.6 361.192 687.456 360.94C688.452 360.976 689.412 360.964 689.688 360.964C689.964 360.952 690.06 360.868 690.06 360.604V358.204H684.3C684 359.56 683.4 360.916 682.236 361.936C682.116 361.744 681.756 361.42 681.576 361.288C683.484 359.608 683.676 357.172 683.676 355.264V351.592H690.984ZM697.152 358.156H694.08V357.232H697.152V358.156ZM699.554 355.372L698.678 355.06C698.978 353.572 700.106 352.504 701.894 352.504C703.622 352.504 704.678 353.5 704.678 355.024C704.678 355.828 704.33 356.632 703.898 357.208C703.682 357.508 703.406 357.796 703.082 358.096C702.422 358.684 701.954 358.996 701.27 359.428L700.346 360.004H704.99V361H698.45V360.184L700.274 358.972C700.598 358.768 700.826 358.612 700.958 358.516C701.09 358.432 701.306 358.276 701.594 358.072C701.882 357.868 702.098 357.688 702.242 357.556C702.374 357.424 702.554 357.256 702.758 357.04C703.31 356.44 703.514 355.888 703.574 355.132C703.574 354.04 702.866 353.548 701.822 353.548C701.174 353.548 700.658 353.728 700.286 354.088C699.914 354.448 699.662 354.88 699.554 355.372ZM706.77 355.048L705.87 354.64C706.314 353.344 707.478 352.492 709.218 352.492C710.046 352.492 710.73 352.684 711.258 353.068C711.786 353.452 712.05 353.968 712.05 354.604C712.05 355.576 711.534 356.296 710.574 356.572C711.498 356.632 712.242 357.328 712.242 358.576C712.242 359.368 711.954 359.992 711.378 360.436C710.802 360.88 710.07 361.108 709.17 361.108C707.334 361.108 706.062 360.232 705.642 358.852L706.614 358.432C707.13 359.524 708.006 360.076 709.242 360.076C710.406 360.076 711.138 359.536 711.138 358.588C711.138 357.664 710.418 357.196 708.978 357.196H708.042V356.2H708.786C710.094 356.2 710.946 355.612 710.946 354.808C710.946 353.98 710.262 353.512 709.17 353.512C707.886 353.512 707.106 354.172 706.77 355.048Z" fill="#76848D"/>
<path d="M769.348 360.868H770.572C770.908 360.868 770.968 360.58 771.004 359.14C771.208 359.32 771.592 359.464 771.832 359.536C771.748 361.204 771.52 361.744 770.632 361.744H769.216C768.292 361.744 768.004 361.456 768.004 360.364V354.904H765.256C765.004 357.904 764.164 360.448 761.272 361.912C761.152 361.696 760.852 361.372 760.612 361.204C763.324 359.92 764.104 357.628 764.332 354.904H761.164V354.016H764.392C764.428 353.08 764.428 352.096 764.428 351.088H765.376C765.364 352.084 765.364 353.068 765.316 354.016H768.544V354.028H768.904V360.376C768.904 360.796 768.964 360.868 769.348 360.868ZM775.444 357.328H781.06V355.312H775.576C775.576 355.936 775.54 356.62 775.444 357.328ZM781.06 352.468H775.576V354.46H781.06V352.468ZM781.984 351.592V360.616C781.984 361.24 781.804 361.552 781.36 361.696C780.904 361.852 780.112 361.864 778.828 361.864C778.768 361.612 778.6 361.192 778.456 360.94C779.452 360.976 780.412 360.964 780.688 360.964C780.964 360.952 781.06 360.868 781.06 360.604V358.204H775.3C775 359.56 774.4 360.916 773.236 361.936C773.116 361.744 772.756 361.42 772.576 361.288C774.484 359.608 774.676 357.172 774.676 355.264V351.592H781.984ZM788.152 358.156H785.08V357.232H788.152V358.156ZM790.554 355.372L789.678 355.06C789.978 353.572 791.106 352.504 792.894 352.504C794.622 352.504 795.678 353.5 795.678 355.024C795.678 355.828 795.33 356.632 794.898 357.208C794.682 357.508 794.406 357.796 794.082 358.096C793.422 358.684 792.954 358.996 792.27 359.428L791.346 360.004H795.99V361H789.45V360.184L791.274 358.972C791.598 358.768 791.826 358.612 791.958 358.516C792.09 358.432 792.306 358.276 792.594 358.072C792.882 357.868 793.098 357.688 793.242 357.556C793.374 357.424 793.554 357.256 793.758 357.04C794.31 356.44 794.514 355.888 794.574 355.132C794.574 354.04 793.866 353.548 792.822 353.548C792.174 353.548 791.658 353.728 791.286 354.088C790.914 354.448 790.662 354.88 790.554 355.372ZM797.77 355.048L796.87 354.64C797.314 353.344 798.478 352.492 800.218 352.492C801.046 352.492 801.73 352.684 802.258 353.068C802.786 353.452 803.05 353.968 803.05 354.604C803.05 355.576 802.534 356.296 801.574 356.572C802.498 356.632 803.242 357.328 803.242 358.576C803.242 359.368 802.954 359.992 802.378 360.436C801.802 360.88 801.07 361.108 800.17 361.108C798.334 361.108 797.062 360.232 796.642 358.852L797.614 358.432C798.13 359.524 799.006 360.076 800.242 360.076C801.406 360.076 802.138 359.536 802.138 358.588C802.138 357.664 801.418 357.196 799.978 357.196H799.042V356.2H799.786C801.094 356.2 801.946 355.612 801.946 354.808C801.946 353.98 801.262 353.512 800.17 353.512C798.886 353.512 798.106 354.172 797.77 355.048Z" fill="#76848D"/>
<path d="M862.556 355.42V356.332H857.66V361.912H856.712V356.332H851.876V355.42H856.712V350.98H857.66V355.42H862.556ZM866.444 357.328H872.06V355.312H866.576C866.576 355.936 866.54 356.62 866.444 357.328ZM872.06 352.468H866.576V354.46H872.06V352.468ZM872.984 351.592V360.616C872.984 361.24 872.804 361.552 872.36 361.696C871.904 361.852 871.112 361.864 869.828 361.864C869.768 361.612 869.6 361.192 869.456 360.94C870.452 360.976 871.412 360.964 871.688 360.964C871.964 360.952 872.06 360.868 872.06 360.604V358.204H866.3C866 359.56 865.4 360.916 864.236 361.936C864.116 361.744 863.756 361.42 863.576 361.288C865.484 359.608 865.676 357.172 865.676 355.264V351.592H872.984ZM879.152 358.156H876.08V357.232H879.152V358.156ZM881.554 355.372L880.678 355.06C880.978 353.572 882.106 352.504 883.894 352.504C885.622 352.504 886.678 353.5 886.678 355.024C886.678 355.828 886.33 356.632 885.898 357.208C885.682 357.508 885.406 357.796 885.082 358.096C884.422 358.684 883.954 358.996 883.27 359.428L882.346 360.004H886.99V361H880.45V360.184L882.274 358.972C882.598 358.768 882.826 358.612 882.958 358.516C883.09 358.432 883.306 358.276 883.594 358.072C883.882 357.868 884.098 357.688 884.242 357.556C884.374 357.424 884.554 357.256 884.758 357.04C885.31 356.44 885.514 355.888 885.574 355.132C885.574 354.04 884.866 353.548 883.822 353.548C883.174 353.548 882.658 353.728 882.286 354.088C881.914 354.448 881.662 354.88 881.554 355.372ZM888.77 355.048L887.87 354.64C888.314 353.344 889.478 352.492 891.218 352.492C892.046 352.492 892.73 352.684 893.258 353.068C893.786 353.452 894.05 353.968 894.05 354.604C894.05 355.576 893.534 356.296 892.574 356.572C893.498 356.632 894.242 357.328 894.242 358.576C894.242 359.368 893.954 359.992 893.378 360.436C892.802 360.88 892.07 361.108 891.17 361.108C889.334 361.108 888.062 360.232 887.642 358.852L888.614 358.432C889.13 359.524 890.006 360.076 891.242 360.076C892.406 360.076 893.138 359.536 893.138 358.588C893.138 357.664 892.418 357.196 890.978 357.196H890.042V356.2H890.786C892.094 356.2 892.946 355.612 892.946 354.808C892.946 353.98 892.262 353.512 891.17 353.512C889.886 353.512 889.106 354.172 888.77 355.048Z" fill="#76848D"/>
<path d="M947.556 355.42V356.332H942.66V361.912H941.712V356.332H936.876V355.42H941.712V350.98H942.66V355.42H947.556ZM948.744 355.84H959.64V356.812H948.744V355.84ZM963.444 357.328H969.06V355.312H963.576C963.576 355.936 963.54 356.62 963.444 357.328ZM969.06 352.468H963.576V354.46H969.06V352.468ZM969.984 351.592V360.616C969.984 361.24 969.804 361.552 969.36 361.696C968.904 361.852 968.112 361.864 966.828 361.864C966.768 361.612 966.6 361.192 966.456 360.94C967.452 360.976 968.412 360.964 968.688 360.964C968.964 360.952 969.06 360.868 969.06 360.604V358.204H963.3C963 359.56 962.4 360.916 961.236 361.936C961.116 361.744 960.756 361.42 960.576 361.288C962.484 359.608 962.676 357.172 962.676 355.264V351.592H969.984ZM976.152 358.156H973.08V357.232H976.152V358.156ZM978.554 355.372L977.678 355.06C977.978 353.572 979.106 352.504 980.894 352.504C982.622 352.504 983.678 353.5 983.678 355.024C983.678 355.828 983.33 356.632 982.898 357.208C982.682 357.508 982.406 357.796 982.082 358.096C981.422 358.684 980.954 358.996 980.27 359.428L979.346 360.004H983.99V361H977.45V360.184L979.274 358.972C979.598 358.768 979.826 358.612 979.958 358.516C980.09 358.432 980.306 358.276 980.594 358.072C980.882 357.868 981.098 357.688 981.242 357.556C981.374 357.424 981.554 357.256 981.758 357.04C982.31 356.44 982.514 355.888 982.574 355.132C982.574 354.04 981.866 353.548 980.822 353.548C980.174 353.548 979.658 353.728 979.286 354.088C978.914 354.448 978.662 354.88 978.554 355.372ZM985.77 355.048L984.87 354.64C985.314 353.344 986.478 352.492 988.218 352.492C989.046 352.492 989.73 352.684 990.258 353.068C990.786 353.452 991.05 353.968 991.05 354.604C991.05 355.576 990.534 356.296 989.574 356.572C990.498 356.632 991.242 357.328 991.242 358.576C991.242 359.368 990.954 359.992 990.378 360.436C989.802 360.88 989.07 361.108 988.17 361.108C986.334 361.108 985.062 360.232 984.642 358.852L985.614 358.432C986.13 359.524 987.006 360.076 988.242 360.076C989.406 360.076 990.138 359.536 990.138 358.588C990.138 357.664 989.418 357.196 987.978 357.196H987.042V356.2H987.786C989.094 356.2 989.946 355.612 989.946 354.808C989.946 353.98 989.262 353.512 988.17 353.512C986.886 353.512 986.106 354.172 985.77 355.048Z" fill="#76848D"/>
<path d="M1038.56 355.42V356.332H1033.66V361.912H1032.71V356.332H1027.88V355.42H1032.71V350.98H1033.66V355.42H1038.56ZM1040.9 352.684H1049.45V353.632H1040.9V352.684ZM1039.89 359.752H1050.46V360.724H1039.89V359.752ZM1054.44 357.328H1060.06V355.312H1054.58C1054.58 355.936 1054.54 356.62 1054.44 357.328ZM1060.06 352.468H1054.58V354.46H1060.06V352.468ZM1060.98 351.592V360.616C1060.98 361.24 1060.8 361.552 1060.36 361.696C1059.9 361.852 1059.11 361.864 1057.83 361.864C1057.77 361.612 1057.6 361.192 1057.46 360.94C1058.45 360.976 1059.41 360.964 1059.69 360.964C1059.96 360.952 1060.06 360.868 1060.06 360.604V358.204H1054.3C1054 359.56 1053.4 360.916 1052.24 361.936C1052.12 361.744 1051.76 361.42 1051.58 361.288C1053.48 359.608 1053.68 357.172 1053.68 355.264V351.592H1060.98ZM1067.15 358.156H1064.08V357.232H1067.15V358.156ZM1069.55 355.372L1068.68 355.06C1068.98 353.572 1070.11 352.504 1071.89 352.504C1073.62 352.504 1074.68 353.5 1074.68 355.024C1074.68 355.828 1074.33 356.632 1073.9 357.208C1073.68 357.508 1073.41 357.796 1073.08 358.096C1072.42 358.684 1071.95 358.996 1071.27 359.428L1070.35 360.004H1074.99V361H1068.45V360.184L1070.27 358.972C1070.6 358.768 1070.83 358.612 1070.96 358.516C1071.09 358.432 1071.31 358.276 1071.59 358.072C1071.88 357.868 1072.1 357.688 1072.24 357.556C1072.37 357.424 1072.55 357.256 1072.76 357.04C1073.31 356.44 1073.51 355.888 1073.57 355.132C1073.57 354.04 1072.87 353.548 1071.82 353.548C1071.17 353.548 1070.66 353.728 1070.29 354.088C1069.91 354.448 1069.66 354.88 1069.55 355.372ZM1076.77 355.048L1075.87 354.64C1076.31 353.344 1077.48 352.492 1079.22 352.492C1080.05 352.492 1080.73 352.684 1081.26 353.068C1081.79 353.452 1082.05 353.968 1082.05 354.604C1082.05 355.576 1081.53 356.296 1080.57 356.572C1081.5 356.632 1082.24 357.328 1082.24 358.576C1082.24 359.368 1081.95 359.992 1081.38 360.436C1080.8 360.88 1080.07 361.108 1079.17 361.108C1077.33 361.108 1076.06 360.232 1075.64 358.852L1076.61 358.432C1077.13 359.524 1078.01 360.076 1079.24 360.076C1080.41 360.076 1081.14 359.536 1081.14 358.588C1081.14 357.664 1080.42 357.196 1078.98 357.196H1078.04V356.2H1078.79C1080.09 356.2 1080.95 355.612 1080.95 354.808C1080.95 353.98 1080.26 353.512 1079.17 353.512C1077.89 353.512 1077.11 354.172 1076.77 355.048Z" fill="#76848D"/>
<defs>
<linearGradient id="paint0_linear_7005_17827" x1="0.476191" y1="12" x2="10" y2="12" gradientUnits="userSpaceOnUse">
<stop stop-color="#CEE8EF"/>
<stop offset="1" stop-color="#CEE8EF"/>
</linearGradient>
<linearGradient id="paint1_linear_7005_17827" x1="31.5" y1="293" x2="31.5" y2="218" gradientUnits="userSpaceOnUse">
<stop stop-color="#CDE3E9"/>
<stop offset="1" stop-color="#D3E8ED"/>
</linearGradient>
<linearGradient id="paint2_linear_7005_17827" x1="31.5" y1="293" x2="31.5" y2="218" gradientUnits="userSpaceOnUse">
<stop stop-color="white" stop-opacity="0"/>
<stop offset="0.739583" stop-color="white"/>
</linearGradient>
<linearGradient id="paint3_linear_7005_17827" x1="19" y1="439.25" x2="19" y2="218" gradientUnits="userSpaceOnUse">
<stop stop-color="white" stop-opacity="0.05"/>
<stop offset="0.75" stop-color="white" stop-opacity="0.8"/>
</linearGradient>
<linearGradient id="paint4_linear_7005_17827" x1="122.5" y1="305" x2="122.5" y2="218" gradientUnits="userSpaceOnUse">
<stop stop-color="#CDE3E9"/>
<stop offset="1" stop-color="#D3E8ED"/>
</linearGradient>
<linearGradient id="paint5_linear_7005_17827" x1="122.5" y1="305" x2="122.5" y2="218" gradientUnits="userSpaceOnUse">
<stop stop-color="white" stop-opacity="0"/>
<stop offset="0.739583" stop-color="white"/>
</linearGradient>
<linearGradient id="paint6_linear_7005_17827" x1="110" y1="474.65" x2="110" y2="218" gradientUnits="userSpaceOnUse">
<stop stop-color="white" stop-opacity="0.05"/>
<stop offset="0.75" stop-color="white" stop-opacity="0.8"/>
</linearGradient>
<linearGradient id="paint7_linear_7005_17827" x1="213.5" y1="266" x2="213.5" y2="218" gradientUnits="userSpaceOnUse">
<stop stop-color="#CDE3E9"/>
<stop offset="1" stop-color="#D3E8ED"/>
</linearGradient>
<linearGradient id="paint8_linear_7005_17827" x1="213.5" y1="266" x2="213.5" y2="218" gradientUnits="userSpaceOnUse">
<stop stop-color="white" stop-opacity="0"/>
<stop offset="0.739583" stop-color="white"/>
</linearGradient>
<linearGradient id="paint9_linear_7005_17827" x1="201" y1="359.6" x2="201" y2="218" gradientUnits="userSpaceOnUse">
<stop stop-color="white" stop-opacity="0.05"/>
<stop offset="0.75" stop-color="white" stop-opacity="0.8"/>
</linearGradient>
<linearGradient id="paint10_linear_7005_17827" x1="304.5" y1="136" x2="304.5" y2="218" gradientUnits="userSpaceOnUse">
<stop stop-color="#CDE3E9"/>
<stop offset="1" stop-color="#D3E8ED"/>
</linearGradient>
<linearGradient id="paint11_linear_7005_17827" x1="304.5" y1="136" x2="304.5" y2="218" gradientUnits="userSpaceOnUse">
<stop stop-color="white" stop-opacity="0"/>
<stop offset="0.739583" stop-color="white"/>
</linearGradient>
<linearGradient id="paint12_linear_7005_17827" x1="292" y1="-23.9" x2="292" y2="218" gradientUnits="userSpaceOnUse">
<stop stop-color="white" stop-opacity="0.05"/>
<stop offset="0.75" stop-color="white" stop-opacity="0.8"/>
</linearGradient>
<linearGradient id="paint13_linear_7005_17827" x1="395.5" y1="122" x2="395.5" y2="218" gradientUnits="userSpaceOnUse">
<stop stop-color="#CDE3E9"/>
<stop offset="1" stop-color="#D3E8ED"/>
</linearGradient>
<linearGradient id="paint14_linear_7005_17827" x1="395.5" y1="122" x2="395.5" y2="218" gradientUnits="userSpaceOnUse">
<stop stop-color="white" stop-opacity="0"/>
<stop offset="0.739583" stop-color="white"/>
</linearGradient>
<linearGradient id="paint15_linear_7005_17827" x1="383" y1="-65.2" x2="383" y2="218" gradientUnits="userSpaceOnUse">
<stop stop-color="white" stop-opacity="0.05"/>
<stop offset="0.75" stop-color="white" stop-opacity="0.8"/>
</linearGradient>
<linearGradient id="paint16_linear_7005_17827" x1="486.5" y1="115" x2="486.5" y2="218" gradientUnits="userSpaceOnUse">
<stop stop-color="#CDE3E9"/>
<stop offset="1" stop-color="#D3E8ED"/>
</linearGradient>
<linearGradient id="paint17_linear_7005_17827" x1="486.5" y1="115" x2="486.5" y2="218" gradientUnits="userSpaceOnUse">
<stop stop-color="white" stop-opacity="0"/>
<stop offset="0.739583" stop-color="white"/>
</linearGradient>
<linearGradient id="paint18_linear_7005_17827" x1="474" y1="-85.85" x2="474" y2="218" gradientUnits="userSpaceOnUse">
<stop stop-color="white" stop-opacity="0.05"/>
<stop offset="0.75" stop-color="white" stop-opacity="0.8"/>
</linearGradient>
<linearGradient id="paint19_linear_7005_17827" x1="577.5" y1="110" x2="577.5" y2="218" gradientUnits="userSpaceOnUse">
<stop stop-color="#CDE3E9"/>
<stop offset="1" stop-color="#D3E8ED"/>
</linearGradient>
<linearGradient id="paint20_linear_7005_17827" x1="577.5" y1="110" x2="577.5" y2="218" gradientUnits="userSpaceOnUse">
<stop stop-color="white" stop-opacity="0"/>
<stop offset="0.739583" stop-color="white"/>
</linearGradient>
<linearGradient id="paint21_linear_7005_17827" x1="565" y1="-100.6" x2="565" y2="218" gradientUnits="userSpaceOnUse">
<stop stop-color="white" stop-opacity="0.05"/>
<stop offset="0.75" stop-color="white" stop-opacity="0.8"/>
</linearGradient>
<linearGradient id="paint22_linear_7005_17827" x1="668.5" y1="108" x2="668.5" y2="218" gradientUnits="userSpaceOnUse">
<stop stop-color="#CDE3E9"/>
<stop offset="1" stop-color="#D3E8ED"/>
</linearGradient>
<linearGradient id="paint23_linear_7005_17827" x1="668.5" y1="108" x2="668.5" y2="218" gradientUnits="userSpaceOnUse">
<stop stop-color="white" stop-opacity="0"/>
<stop offset="0.739583" stop-color="white"/>
</linearGradient>
<linearGradient id="paint24_linear_7005_17827" x1="656" y1="-106.5" x2="656" y2="218" gradientUnits="userSpaceOnUse">
<stop stop-color="white" stop-opacity="0.05"/>
<stop offset="0.75" stop-color="white" stop-opacity="0.8"/>
</linearGradient>
<linearGradient id="paint25_linear_7005_17827" x1="759.5" y1="96" x2="759.5" y2="218" gradientUnits="userSpaceOnUse">
<stop stop-color="#CDE3E9"/>
<stop offset="1" stop-color="#D3E8ED"/>
</linearGradient>
<linearGradient id="paint26_linear_7005_17827" x1="759.5" y1="95.9999" x2="759.5" y2="218" gradientUnits="userSpaceOnUse">
<stop stop-color="white" stop-opacity="0"/>
<stop offset="0.739583" stop-color="white"/>
</linearGradient>
<linearGradient id="paint27_linear_7005_17827" x1="747" y1="-141.9" x2="747" y2="218" gradientUnits="userSpaceOnUse">
<stop stop-color="white" stop-opacity="0.05"/>
<stop offset="0.75" stop-color="white" stop-opacity="0.8"/>
</linearGradient>
<linearGradient id="paint28_linear_7005_17827" x1="850.5" y1="91" x2="850.5" y2="218" gradientUnits="userSpaceOnUse">
<stop stop-color="#CDE3E9"/>
<stop offset="1" stop-color="#D3E8ED"/>
</linearGradient>
<linearGradient id="paint29_linear_7005_17827" x1="850.5" y1="90.9999" x2="850.5" y2="218" gradientUnits="userSpaceOnUse">
<stop stop-color="white" stop-opacity="0"/>
<stop offset="0.739583" stop-color="white"/>
</linearGradient>
<linearGradient id="paint30_linear_7005_17827" x1="838" y1="-156.65" x2="838" y2="218" gradientUnits="userSpaceOnUse">
<stop stop-color="white" stop-opacity="0.05"/>
<stop offset="0.75" stop-color="white" stop-opacity="0.8"/>
</linearGradient>
<linearGradient id="paint31_linear_7005_17827" x1="941.5" y1="113" x2="941.5" y2="218" gradientUnits="userSpaceOnUse">
<stop stop-color="#CDE3E9"/>
<stop offset="1" stop-color="#D3E8ED"/>
</linearGradient>
<linearGradient id="paint32_linear_7005_17827" x1="941.5" y1="113" x2="941.5" y2="218" gradientUnits="userSpaceOnUse">
<stop stop-color="white" stop-opacity="0"/>
<stop offset="0.739583" stop-color="white"/>
</linearGradient>
<linearGradient id="paint33_linear_7005_17827" x1="929" y1="-91.75" x2="929" y2="218" gradientUnits="userSpaceOnUse">
<stop stop-color="white" stop-opacity="0.05"/>
<stop offset="0.75" stop-color="white" stop-opacity="0.8"/>
</linearGradient>
<linearGradient id="paint34_linear_7005_17827" x1="1032.5" y1="116" x2="1032.5" y2="218" gradientUnits="userSpaceOnUse">
<stop stop-color="#CDE3E9"/>
<stop offset="1" stop-color="#D3E8ED"/>
</linearGradient>
<linearGradient id="paint35_linear_7005_17827" x1="1032.5" y1="116" x2="1032.5" y2="218" gradientUnits="userSpaceOnUse">
<stop stop-color="white" stop-opacity="0"/>
<stop offset="0.739583" stop-color="white"/>
</linearGradient>
<linearGradient id="paint36_linear_7005_17827" x1="1020" y1="-82.9" x2="1020" y2="218" gradientUnits="userSpaceOnUse">
<stop stop-color="white" stop-opacity="0.05"/>
<stop offset="0.75" stop-color="white" stop-opacity="0.8"/>
</linearGradient>
<linearGradient id="paint37_linear_7005_17827" x1="76.5" y1="249" x2="76.5" y2="218" gradientUnits="userSpaceOnUse">
<stop stop-color="#6D73F9"/>
<stop offset="1" stop-color="#9BB8F1"/>
</linearGradient>
<linearGradient id="paint38_linear_7005_17827" x1="76.5" y1="249" x2="76.5" y2="218" gradientUnits="userSpaceOnUse">
<stop stop-color="white" stop-opacity="0"/>
<stop offset="0.739583" stop-color="white"/>
</linearGradient>
<linearGradient id="paint39_linear_7005_17827" x1="64" y1="309.45" x2="64" y2="218" gradientUnits="userSpaceOnUse">
<stop stop-color="white" stop-opacity="0.05"/>
<stop offset="0.75" stop-color="white" stop-opacity="0.8"/>
</linearGradient>
<linearGradient id="paint40_linear_7005_17827" x1="167.5" y1="259" x2="167.5" y2="218" gradientUnits="userSpaceOnUse">
<stop stop-color="#6D73F9"/>
<stop offset="1" stop-color="#9BB8F1"/>
</linearGradient>
<linearGradient id="paint41_linear_7005_17827" x1="167.5" y1="259" x2="167.5" y2="218" gradientUnits="userSpaceOnUse">
<stop stop-color="white" stop-opacity="0"/>
<stop offset="0.739583" stop-color="white"/>
</linearGradient>
<linearGradient id="paint42_linear_7005_17827" x1="155" y1="338.95" x2="155" y2="218" gradientUnits="userSpaceOnUse">
<stop stop-color="white" stop-opacity="0.05"/>
<stop offset="0.75" stop-color="white" stop-opacity="0.8"/>
</linearGradient>
<linearGradient id="paint43_linear_7005_17827" x1="258.5" y1="254" x2="258.5" y2="218" gradientUnits="userSpaceOnUse">
<stop stop-color="#6D73F9"/>
<stop offset="1" stop-color="#9BB8F1"/>
</linearGradient>
<linearGradient id="paint44_linear_7005_17827" x1="258.5" y1="254" x2="258.5" y2="218" gradientUnits="userSpaceOnUse">
<stop stop-color="white" stop-opacity="0"/>
<stop offset="0.739583" stop-color="white"/>
</linearGradient>
<linearGradient id="paint45_linear_7005_17827" x1="246" y1="324.2" x2="246" y2="218" gradientUnits="userSpaceOnUse">
<stop stop-color="white" stop-opacity="0.05"/>
<stop offset="0.75" stop-color="white" stop-opacity="0.8"/>
</linearGradient>
<linearGradient id="paint46_linear_7005_17827" x1="349.5" y1="113" x2="349.5" y2="218" gradientUnits="userSpaceOnUse">
<stop stop-color="#6D73F9"/>
<stop offset="1" stop-color="#9BB8F1"/>
</linearGradient>
<linearGradient id="paint47_linear_7005_17827" x1="349.5" y1="113" x2="349.5" y2="218" gradientUnits="userSpaceOnUse">
<stop stop-color="white" stop-opacity="0"/>
<stop offset="0.739583" stop-color="white"/>
</linearGradient>
<linearGradient id="paint48_linear_7005_17827" x1="337" y1="-91.75" x2="337" y2="218" gradientUnits="userSpaceOnUse">
<stop stop-color="white" stop-opacity="0.05"/>
<stop offset="0.75" stop-color="white" stop-opacity="0.8"/>
</linearGradient>
<linearGradient id="paint49_linear_7005_17827" x1="440.5" y1="83" x2="440.5" y2="218" gradientUnits="userSpaceOnUse">
<stop stop-color="#6D73F9"/>
<stop offset="1" stop-color="#9BB8F1"/>
</linearGradient>
<linearGradient id="paint50_linear_7005_17827" x1="440.5" y1="82.9999" x2="440.5" y2="218" gradientUnits="userSpaceOnUse">
<stop stop-color="white" stop-opacity="0"/>
<stop offset="0.739583" stop-color="white"/>
</linearGradient>
<linearGradient id="paint51_linear_7005_17827" x1="428" y1="-180.25" x2="428" y2="218" gradientUnits="userSpaceOnUse">
<stop stop-color="white" stop-opacity="0.05"/>
<stop offset="0.75" stop-color="white" stop-opacity="0.8"/>
</linearGradient>
<linearGradient id="paint52_linear_7005_17827" x1="531.5" y1="90" x2="531.5" y2="218" gradientUnits="userSpaceOnUse">
<stop stop-color="#6D73F9"/>
<stop offset="1" stop-color="#9BB8F1"/>
</linearGradient>
<linearGradient id="paint53_linear_7005_17827" x1="531.5" y1="89.9999" x2="531.5" y2="218" gradientUnits="userSpaceOnUse">
<stop stop-color="white" stop-opacity="0"/>
<stop offset="0.739583" stop-color="white"/>
</linearGradient>
<linearGradient id="paint54_linear_7005_17827" x1="519" y1="-159.6" x2="519" y2="218" gradientUnits="userSpaceOnUse">
<stop stop-color="white" stop-opacity="0.05"/>
<stop offset="0.75" stop-color="white" stop-opacity="0.8"/>
</linearGradient>
<linearGradient id="paint55_linear_7005_17827" x1="622.5" y1="135" x2="622.5" y2="218" gradientUnits="userSpaceOnUse">
<stop stop-color="#6D73F9"/>
<stop offset="1" stop-color="#9BB8F1"/>
</linearGradient>
<linearGradient id="paint56_linear_7005_17827" x1="622.5" y1="135" x2="622.5" y2="218" gradientUnits="userSpaceOnUse">
<stop stop-color="white" stop-opacity="0"/>
<stop offset="0.739583" stop-color="white"/>
</linearGradient>
<linearGradient id="paint57_linear_7005_17827" x1="610" y1="-26.85" x2="610" y2="218" gradientUnits="userSpaceOnUse">
<stop stop-color="white" stop-opacity="0.05"/>
<stop offset="0.75" stop-color="white" stop-opacity="0.8"/>
</linearGradient>
<linearGradient id="paint58_linear_7005_17827" x1="713.5" y1="106" x2="713.5" y2="218" gradientUnits="userSpaceOnUse">
<stop stop-color="#6D73F9"/>
<stop offset="1" stop-color="#9BB8F1"/>
</linearGradient>
<linearGradient id="paint59_linear_7005_17827" x1="713.5" y1="106" x2="713.5" y2="218" gradientUnits="userSpaceOnUse">
<stop stop-color="white" stop-opacity="0"/>
<stop offset="0.739583" stop-color="white"/>
</linearGradient>
<linearGradient id="paint60_linear_7005_17827" x1="701" y1="-112.4" x2="701" y2="218" gradientUnits="userSpaceOnUse">
<stop stop-color="white" stop-opacity="0.05"/>
<stop offset="0.75" stop-color="white" stop-opacity="0.8"/>
</linearGradient>
<linearGradient id="paint61_linear_7005_17827" x1="804.5" y1="96" x2="804.5" y2="218" gradientUnits="userSpaceOnUse">
<stop stop-color="#6D73F9"/>
<stop offset="1" stop-color="#9BB8F1"/>
</linearGradient>
<linearGradient id="paint62_linear_7005_17827" x1="804.5" y1="95.9999" x2="804.5" y2="218" gradientUnits="userSpaceOnUse">
<stop stop-color="white" stop-opacity="0"/>
<stop offset="0.739583" stop-color="white"/>
</linearGradient>
<linearGradient id="paint63_linear_7005_17827" x1="792" y1="-141.9" x2="792" y2="218" gradientUnits="userSpaceOnUse">
<stop stop-color="white" stop-opacity="0.05"/>
<stop offset="0.75" stop-color="white" stop-opacity="0.8"/>
</linearGradient>
<linearGradient id="paint64_linear_7005_17827" x1="895.5" y1="64" x2="895.5" y2="218" gradientUnits="userSpaceOnUse">
<stop stop-color="#6D73F9"/>
<stop offset="1" stop-color="#9BB8F1"/>
</linearGradient>
<linearGradient id="paint65_linear_7005_17827" x1="895.5" y1="63.9999" x2="895.5" y2="218" gradientUnits="userSpaceOnUse">
<stop stop-color="white" stop-opacity="0"/>
<stop offset="0.739583" stop-color="white"/>
</linearGradient>
<linearGradient id="paint66_linear_7005_17827" x1="883" y1="-236.3" x2="883" y2="218" gradientUnits="userSpaceOnUse">
<stop stop-color="white" stop-opacity="0.05"/>
<stop offset="0.75" stop-color="white" stop-opacity="0.8"/>
</linearGradient>
<linearGradient id="paint67_linear_7005_17827" x1="986.5" y1="84" x2="986.5" y2="218" gradientUnits="userSpaceOnUse">
<stop stop-color="#6D73F9"/>
<stop offset="1" stop-color="#9BB8F1"/>
</linearGradient>
<linearGradient id="paint68_linear_7005_17827" x1="986.5" y1="83.9999" x2="986.5" y2="218" gradientUnits="userSpaceOnUse">
<stop stop-color="white" stop-opacity="0"/>
<stop offset="0.739583" stop-color="white"/>
</linearGradient>
<linearGradient id="paint69_linear_7005_17827" x1="974" y1="-177.3" x2="974" y2="218" gradientUnits="userSpaceOnUse">
<stop stop-color="white" stop-opacity="0.05"/>
<stop offset="0.75" stop-color="white" stop-opacity="0.8"/>
</linearGradient>
<linearGradient id="paint70_linear_7005_17827" x1="1077.5" y1="101" x2="1077.5" y2="218" gradientUnits="userSpaceOnUse">
<stop stop-color="#6D73F9"/>
<stop offset="1" stop-color="#9BB8F1"/>
</linearGradient>
<linearGradient id="paint71_linear_7005_17827" x1="1077.5" y1="101" x2="1077.5" y2="218" gradientUnits="userSpaceOnUse">
<stop stop-color="white" stop-opacity="0"/>
<stop offset="0.739583" stop-color="white"/>
</linearGradient>
<linearGradient id="paint72_linear_7005_17827" x1="1065" y1="-127.15" x2="1065" y2="218" gradientUnits="userSpaceOnUse">
<stop stop-color="white" stop-opacity="0.05"/>
<stop offset="0.75" stop-color="white" stop-opacity="0.8"/>
</linearGradient>
</defs>
</svg>
