<svg width="335" height="238" viewBox="0 0 335 238" fill="none" xmlns="http://www.w3.org/2000/svg">
<path d="M268.369 3.434L267.347 3.07C267.697 1.334 269.013 0.0879999 271.099 0.0879999C273.115 0.0879999 274.347 1.25 274.347 3.028C274.347 3.966 273.941 4.904 273.437 5.576C273.185 5.926 272.863 6.262 272.485 6.612C271.715 7.298 271.169 7.662 270.371 8.166L269.293 8.838H274.711V10H267.081V9.048L269.209 7.634C269.587 7.396 269.853 7.214 270.007 7.102C270.161 7.004 270.413 6.822 270.749 6.584C271.085 6.346 271.337 6.136 271.505 5.982C271.659 5.828 271.869 5.632 272.107 5.38C272.751 4.68 272.989 4.036 273.059 3.154C273.059 1.88 272.233 1.306 271.015 1.306C270.259 1.306 269.657 1.516 269.223 1.936C268.789 2.356 268.495 2.86 268.369 3.434ZM275.779 9.202C275.779 8.81 276.143 8.418 276.647 8.418C277.109 8.418 277.487 8.81 277.487 9.202C277.487 9.65 277.137 10.028 276.647 10.028C276.143 10.028 275.779 9.65 275.779 9.202ZM278.645 5.366C278.645 3.672 279.065 2.37 279.891 1.446C280.717 0.535999 281.753 0.0739993 282.999 0.0739993C284.637 0.0739993 285.925 0.816 286.471 1.992L285.519 2.636C284.945 1.726 284.091 1.278 282.943 1.278C282.075 1.278 281.347 1.614 280.759 2.286C280.171 2.972 279.877 3.896 279.891 5.086C280.437 4.064 281.711 3.448 283.111 3.448C284.245 3.448 285.155 3.742 285.813 4.344C286.471 4.946 286.807 5.744 286.807 6.724C286.807 7.718 286.443 8.544 285.701 9.174C284.959 9.804 284.035 10.126 282.929 10.126C280.283 10.126 278.645 8.404 278.645 5.366ZM280.045 6.556C280.311 7.942 281.361 8.922 282.915 8.922C283.671 8.922 284.301 8.726 284.791 8.32C285.281 7.928 285.519 7.41 285.519 6.78C285.519 5.394 284.539 4.652 283.041 4.652C282.215 4.652 281.529 4.848 280.997 5.24C280.451 5.632 280.143 6.066 280.045 6.556Z" fill="#2A3C3C"/>
<path d="M268.369 3.434L267.347 3.07C267.697 1.334 269.013 0.0879999 271.099 0.0879999C273.115 0.0879999 274.347 1.25 274.347 3.028C274.347 3.966 273.941 4.904 273.437 5.576C273.185 5.926 272.863 6.262 272.485 6.612C271.715 7.298 271.169 7.662 270.371 8.166L269.293 8.838H274.711V10H267.081V9.048L269.209 7.634C269.587 7.396 269.853 7.214 270.007 7.102C270.161 7.004 270.413 6.822 270.749 6.584C271.085 6.346 271.337 6.136 271.505 5.982C271.659 5.828 271.869 5.632 272.107 5.38C272.751 4.68 272.989 4.036 273.059 3.154C273.059 1.88 272.233 1.306 271.015 1.306C270.259 1.306 269.657 1.516 269.223 1.936C268.789 2.356 268.495 2.86 268.369 3.434ZM275.779 9.202C275.779 8.81 276.143 8.418 276.647 8.418C277.109 8.418 277.487 8.81 277.487 9.202C277.487 9.65 277.137 10.028 276.647 10.028C276.143 10.028 275.779 9.65 275.779 9.202ZM278.645 5.366C278.645 3.672 279.065 2.37 279.891 1.446C280.717 0.535999 281.753 0.0739993 282.999 0.0739993C284.637 0.0739993 285.925 0.816 286.471 1.992L285.519 2.636C284.945 1.726 284.091 1.278 282.943 1.278C282.075 1.278 281.347 1.614 280.759 2.286C280.171 2.972 279.877 3.896 279.891 5.086C280.437 4.064 281.711 3.448 283.111 3.448C284.245 3.448 285.155 3.742 285.813 4.344C286.471 4.946 286.807 5.744 286.807 6.724C286.807 7.718 286.443 8.544 285.701 9.174C284.959 9.804 284.035 10.126 282.929 10.126C280.283 10.126 278.645 8.404 278.645 5.366ZM280.045 6.556C280.311 7.942 281.361 8.922 282.915 8.922C283.671 8.922 284.301 8.726 284.791 8.32C285.281 7.928 285.519 7.41 285.519 6.78C285.519 5.394 284.539 4.652 283.041 4.652C282.215 4.652 281.529 4.848 280.997 5.24C280.451 5.632 280.143 6.066 280.045 6.556Z" fill="#1A3341"/>
<path d="M249 22C249 20.8954 249.895 20 251 20H303C304.105 20 305 20.8954 305 22V205H249V22Z" fill="url(#paint0_linear_7005_27937)"/>
<path opacity="0.2" d="M261 20H293V205H261V20Z" fill="url(#paint1_linear_7005_27937)"/>
<path opacity="0.04" d="M293 20H303C304.105 20 305 20.8954 305 22V205H293V20Z" fill="#0D262C"/>
<path opacity="0.5" d="M249 22C249 20.8954 249.895 20 251 20H261V205H249V22Z" fill="url(#paint2_linear_7005_27937)"/>
<path d="M164.648 59.804L164.2 58.754L167.56 57.144H168.358V67H167.154V58.642L164.648 59.804ZM170.241 66.202C170.241 65.81 170.605 65.418 171.109 65.418C171.571 65.418 171.949 65.81 171.949 66.202C171.949 66.65 171.599 67.028 171.109 67.028C170.605 67.028 170.241 66.65 170.241 66.202ZM176.971 61.414H177.405C178.035 61.414 178.553 61.26 178.987 60.966C179.407 60.672 179.617 60.28 179.617 59.818C179.617 58.768 178.791 58.236 177.153 58.236C175.585 58.236 174.731 58.81 174.731 59.818C174.731 60.728 175.669 61.414 176.971 61.414ZM177.377 62.52H177.027C176.271 62.52 175.641 62.688 175.151 63.01C174.661 63.332 174.409 63.738 174.409 64.228C174.409 65.292 175.389 65.964 177.167 65.964C178.973 65.964 179.939 65.32 179.939 64.242C179.939 63.164 178.903 62.52 177.377 62.52ZM180.135 66.37C179.421 66.874 178.427 67.126 177.181 67.126C175.935 67.126 174.941 66.874 174.213 66.384C173.485 65.894 173.121 65.222 173.121 64.354C173.121 63.22 173.863 62.324 175.053 61.932C173.975 61.582 173.443 60.728 173.443 59.734C173.443 58.11 174.815 57.074 177.167 57.074C179.533 57.074 180.905 58.11 180.905 59.734C180.905 60.672 180.387 61.386 179.351 61.862C180.597 62.24 181.213 63.052 181.213 64.298C181.213 65.18 180.849 65.88 180.135 66.37Z" fill="#2A3C3C"/>
<path d="M164.648 59.804L164.2 58.754L167.56 57.144H168.358V67H167.154V58.642L164.648 59.804ZM170.241 66.202C170.241 65.81 170.605 65.418 171.109 65.418C171.571 65.418 171.949 65.81 171.949 66.202C171.949 66.65 171.599 67.028 171.109 67.028C170.605 67.028 170.241 66.65 170.241 66.202ZM176.971 61.414H177.405C178.035 61.414 178.553 61.26 178.987 60.966C179.407 60.672 179.617 60.28 179.617 59.818C179.617 58.768 178.791 58.236 177.153 58.236C175.585 58.236 174.731 58.81 174.731 59.818C174.731 60.728 175.669 61.414 176.971 61.414ZM177.377 62.52H177.027C176.271 62.52 175.641 62.688 175.151 63.01C174.661 63.332 174.409 63.738 174.409 64.228C174.409 65.292 175.389 65.964 177.167 65.964C178.973 65.964 179.939 65.32 179.939 64.242C179.939 63.164 178.903 62.52 177.377 62.52ZM180.135 66.37C179.421 66.874 178.427 67.126 177.181 67.126C175.935 67.126 174.941 66.874 174.213 66.384C173.485 65.894 173.121 65.222 173.121 64.354C173.121 63.22 173.863 62.324 175.053 61.932C173.975 61.582 173.443 60.728 173.443 59.734C173.443 58.11 174.815 57.074 177.167 57.074C179.533 57.074 180.905 58.11 180.905 59.734C180.905 60.672 180.387 61.386 179.351 61.862C180.597 62.24 181.213 63.052 181.213 64.298C181.213 65.18 180.849 65.88 180.135 66.37Z" fill="#1A3341"/>
<path d="M145 79C145 77.8954 145.895 77 147 77H199C200.105 77 201 77.8954 201 79V205H145V79Z" fill="url(#paint3_linear_7005_27937)"/>
<path opacity="0.2" d="M157 77H189V205H157V77Z" fill="url(#paint4_linear_7005_27937)"/>
<path opacity="0.04" d="M189 77H199C200.105 77 201 77.8954 201 79V205H189V77Z" fill="#0D262C"/>
<path opacity="0.5" d="M145 79C145 77.8954 145.895 77 147 77H157V205H145V79Z" fill="url(#paint5_linear_7005_27937)"/>
<path d="M60.9962 94.804L60.5482 93.754L63.9082 92.144H64.7062V102H63.5022V93.642L60.9962 94.804ZM66.5896 101.202C66.5896 100.81 66.9536 100.418 67.4576 100.418C67.9196 100.418 68.2976 100.81 68.2976 101.202C68.2976 101.65 67.9476 102.028 67.4576 102.028C66.9536 102.028 66.5896 101.65 66.5896 101.202ZM70.4212 95.056L69.3712 94.58C69.8892 93.068 71.2472 92.074 73.2772 92.074C74.2432 92.074 75.0412 92.298 75.6572 92.746C76.2732 93.194 76.5812 93.796 76.5812 94.538C76.5812 95.672 75.9792 96.512 74.8592 96.834C75.9372 96.904 76.8052 97.716 76.8052 99.172C76.8052 100.096 76.4692 100.824 75.7972 101.342C75.1252 101.86 74.2712 102.126 73.2212 102.126C71.0792 102.126 69.5952 101.104 69.1052 99.494L70.2392 99.004C70.8412 100.278 71.8632 100.922 73.3052 100.922C74.6632 100.922 75.5172 100.292 75.5172 99.186C75.5172 98.108 74.6772 97.562 72.9972 97.562H71.9052V96.4H72.7732C74.2992 96.4 75.2932 95.714 75.2932 94.776C75.2932 93.81 74.4952 93.264 73.2212 93.264C71.7232 93.264 70.8132 94.034 70.4212 95.056Z" fill="#2A3C3C"/>
<path d="M60.9962 94.804L60.5482 93.754L63.9082 92.144H64.7062V102H63.5022V93.642L60.9962 94.804ZM66.5896 101.202C66.5896 100.81 66.9536 100.418 67.4576 100.418C67.9196 100.418 68.2976 100.81 68.2976 101.202C68.2976 101.65 67.9476 102.028 67.4576 102.028C66.9536 102.028 66.5896 101.65 66.5896 101.202ZM70.4212 95.056L69.3712 94.58C69.8892 93.068 71.2472 92.074 73.2772 92.074C74.2432 92.074 75.0412 92.298 75.6572 92.746C76.2732 93.194 76.5812 93.796 76.5812 94.538C76.5812 95.672 75.9792 96.512 74.8592 96.834C75.9372 96.904 76.8052 97.716 76.8052 99.172C76.8052 100.096 76.4692 100.824 75.7972 101.342C75.1252 101.86 74.2712 102.126 73.2212 102.126C71.0792 102.126 69.5952 101.104 69.1052 99.494L70.2392 99.004C70.8412 100.278 71.8632 100.922 73.3052 100.922C74.6632 100.922 75.5172 100.292 75.5172 99.186C75.5172 98.108 74.6772 97.562 72.9972 97.562H71.9052V96.4H72.7732C74.2992 96.4 75.2932 95.714 75.2932 94.776C75.2932 93.81 74.4952 93.264 73.2212 93.264C71.7232 93.264 70.8132 94.034 70.4212 95.056Z" fill="#1A3341"/>
<path d="M41 114C41 112.895 41.8954 112 43 112H95C96.1046 112 97 112.895 97 114V205H41V114Z" fill="url(#paint6_linear_7005_27937)"/>
<path opacity="0.2" d="M53 112H85V205H53V112Z" fill="url(#paint7_linear_7005_27937)"/>
<path opacity="0.04" d="M85 112H95C96.1046 112 97 112.895 97 114V205H85V112Z" fill="#0D262C"/>
<path opacity="0.5" d="M41 114C41 112.895 41.8954 112 43 112H53V205H41V114Z" fill="url(#paint8_linear_7005_27937)"/>
<path d="M160.736 216.852L160.232 217.584C159.548 217.128 158.252 216.456 157.136 215.964C156.164 216.648 155.084 217.2 154.028 217.596C153.908 217.38 153.656 217.044 153.488 216.864C155.36 216.228 157.388 214.968 158.48 213.42H154.268V212.592H159.056L159.212 212.556L159.848 212.904C159.38 213.864 158.672 214.704 157.844 215.412C158.888 215.856 160.076 216.444 160.736 216.852ZM151.364 218.556L153.74 218.136C153.716 218.376 153.716 218.736 153.728 218.928C150.68 219.54 150.26 219.648 149.996 219.792C149.96 219.612 149.816 219.18 149.708 218.952C149.984 218.892 150.272 218.592 150.644 218.172C150.884 217.932 151.388 217.332 151.928 216.576C150.404 216.78 150.104 216.84 149.924 216.936C149.876 216.744 149.732 216.312 149.624 216.072C149.852 216.024 150.068 215.748 150.332 215.34C150.608 214.944 151.52 213.408 152.024 211.956L152.876 212.352C152.312 213.612 151.592 214.908 150.86 215.928L152.504 215.748C152.78 215.34 153.044 214.896 153.284 214.464L154.064 214.956C153.248 216.252 152.324 217.524 151.364 218.556ZM153.704 220.368L153.8 221.136C152.408 221.508 150.968 221.88 149.888 222.168L149.708 221.28C150.704 221.076 152.228 220.716 153.704 220.368ZM157.616 218.844V221.748H160.676V222.588H153.644V221.748H156.74V218.844H154.376V218.016H160.112V218.844H157.616ZM169.904 218.916H164.336V221.4H169.904V218.916ZM163.436 222.9V218.124H170.828V222.852H169.904V222.228H164.336V222.9H163.436ZM164.384 215.856H170.048C168.992 215.208 168.032 214.452 167.132 213.492C166.352 214.392 165.404 215.184 164.384 215.856ZM167.252 211.932L168.032 212.316C167.912 212.508 167.78 212.676 167.648 212.856C169.052 214.344 170.72 215.328 172.628 216.132C172.4 216.324 172.148 216.66 172.016 216.936C171.332 216.6 170.684 216.264 170.072 215.868V216.684H164.06V216.072C163.46 216.432 162.848 216.768 162.224 217.044C162.068 216.804 161.828 216.468 161.576 216.264C163.844 215.364 166.04 213.78 167.252 211.932ZM175.148 218.628L177.764 218.148C177.74 218.388 177.752 218.712 177.764 218.892C174.524 219.552 174.104 219.66 173.84 219.792C173.804 219.636 173.672 219.228 173.576 219.024C173.828 218.952 174.14 218.664 174.524 218.22C174.764 217.98 175.292 217.344 175.868 216.564C174.236 216.768 173.936 216.852 173.756 216.936C173.72 216.756 173.588 216.336 173.492 216.096C173.708 216.048 173.924 215.772 174.2 215.364C174.488 214.968 175.424 213.42 175.964 211.956L176.768 212.34C176.18 213.624 175.448 214.932 174.692 215.964L176.42 215.772C176.696 215.352 176.972 214.92 177.212 214.5L177.92 214.92C177.092 216.264 176.12 217.572 175.148 218.628ZM177.68 220.344L177.764 221.1C176.336 221.472 174.848 221.844 173.72 222.132L173.564 221.268C174.584 221.076 176.144 220.692 177.68 220.344ZM179.564 219.516V221.844H182.492V219.516H179.564ZM182.492 213.372H179.564V215.604H182.492V213.372ZM179.564 216.42V218.712H182.492V216.42H179.564ZM183.368 221.844H184.4V222.66H177.5V221.844H178.712V212.556H183.368V221.844ZM194.576 217.236V213.66H190.976V217.236H194.576ZM195.488 212.808V218.088H190.1V212.808H195.488ZM186.98 218.664L189.62 218.172C189.596 218.412 189.596 218.76 189.62 218.952C186.344 219.6 185.936 219.708 185.672 219.876C185.624 219.696 185.492 219.288 185.384 219.06C185.648 219 185.936 218.724 186.308 218.28C186.536 218.04 187.04 217.428 187.58 216.648C186.044 216.852 185.756 216.924 185.588 216.996C185.54 216.816 185.396 216.396 185.288 216.156C185.516 216.096 185.72 215.82 185.984 215.412C186.272 215.016 187.16 213.456 187.652 212.004L188.504 212.4C187.952 213.684 187.232 215.004 186.488 216.036L188.108 215.868C188.396 215.448 188.66 214.992 188.9 214.56L189.632 214.992C188.84 216.312 187.928 217.596 186.98 218.664ZM189.572 220.404L189.668 221.184C188.192 221.544 186.668 221.916 185.516 222.216L185.348 221.328C186.404 221.124 188.012 220.764 189.572 220.404ZM190.952 219.252L191.876 219.456C191.468 220.8 190.76 222.072 189.968 222.912C189.8 222.78 189.404 222.516 189.176 222.396C189.98 221.64 190.592 220.476 190.952 219.252ZM193.664 219.528L194.468 219.228C195.128 220.248 195.824 221.604 196.1 222.456L195.224 222.804C194.96 221.952 194.288 220.572 193.664 219.528Z" fill="#76848D"/>
<path d="M259.54 219.636H262.48V220.392H255.94V219.636H258.7V217.62H256.444V216.852H258.7V215.148H256.108V214.344H262.24V215.148H259.54V216.852H261.94V217.62H259.54V219.636ZM260.296 218.148L260.86 217.836C261.304 218.22 261.832 218.772 262.072 219.144L261.46 219.504C261.232 219.132 260.728 218.556 260.296 218.148ZM255.148 221.496H263.176V213.336H255.148V221.496ZM254.26 212.508H264.1V222.924H263.176V222.324H255.148V222.924H254.26V212.508ZM275.8 212.88V213.72H270.604V212.88H275.8ZM269.212 212.436L269.836 212.784C269.476 213.756 269.02 214.932 268.6 215.88C269.5 216.876 269.716 217.74 269.716 218.496C269.716 219.12 269.572 219.636 269.224 219.876C269.044 220.008 268.816 220.068 268.564 220.104C268.324 220.128 268.012 220.128 267.736 220.116C267.724 219.9 267.64 219.564 267.496 219.336C267.772 219.348 268.012 219.36 268.216 219.348C268.36 219.336 268.492 219.3 268.588 219.24C268.78 219.108 268.852 218.772 268.852 218.412C268.852 217.752 268.624 216.936 267.748 215.988C268.096 215.124 268.468 214.092 268.72 213.288H266.98V222.912H266.128V212.472H269.068L269.212 212.436ZM270.928 217.896L271.744 218.076C271.372 219.456 270.772 220.836 270.124 221.76C269.968 221.628 269.608 221.376 269.404 221.292C270.064 220.44 270.604 219.156 270.928 217.896ZM276.448 216.564H273.532V221.784C273.532 222.288 273.436 222.564 273.088 222.708C272.752 222.864 272.2 222.888 271.36 222.888C271.324 222.624 271.204 222.24 271.084 221.976C271.708 222 272.26 221.988 272.416 221.988C272.596 221.976 272.644 221.928 272.644 221.784V216.564H270.088V215.724H276.448V216.564ZM274.348 218.1L275.092 217.872C275.668 219.024 276.256 220.536 276.46 221.472L275.632 221.76C275.464 220.824 274.912 219.276 274.348 218.1ZM283.204 215.112V214.512C282.688 214.62 282.172 214.716 281.668 214.812C281.632 214.632 281.512 214.344 281.404 214.164C282.004 214.044 282.604 213.924 283.204 213.78V212.016H284.08V213.552C285.376 213.204 286.576 212.796 287.368 212.34L287.968 212.976C286.948 213.504 285.556 213.948 284.08 214.296V215.112C284.08 215.448 284.188 215.52 284.788 215.52H286.828C287.296 215.52 287.392 215.352 287.44 214.296C287.632 214.44 287.992 214.572 288.232 214.62C288.136 215.94 287.86 216.288 286.9 216.288H284.716C283.516 216.288 283.204 216.048 283.204 215.112ZM286.768 220.716H285.844V217.836H280.18V220.788H279.28V217.008H286.768V220.716ZM279.7 216.528V214.14C279.172 214.536 278.632 214.884 278.116 215.172C277.984 215.004 277.66 214.68 277.456 214.536C278.764 213.924 280.096 212.94 280.9 211.908L281.716 212.208C281.404 212.616 281.008 213.024 280.588 213.408V216.528H279.7ZM283.384 218.316V219.36C283.384 220.56 282.82 222.012 278.296 222.912C278.212 222.732 277.948 222.384 277.744 222.204C282.1 221.424 282.46 220.248 282.46 219.336V218.316H283.384ZM283.264 221.16L283.744 220.536C285.208 220.956 287.14 221.664 288.184 222.228L287.68 222.924C286.696 222.372 284.764 221.616 283.264 221.16ZM299.056 215.616V220.308C299.056 220.812 298.948 221.088 298.564 221.232C298.168 221.376 297.532 221.4 296.56 221.388C296.512 221.136 296.368 220.752 296.248 220.5C297.016 220.524 297.688 220.524 297.892 220.512C298.084 220.512 298.144 220.464 298.144 220.284V216.48H295.24V222.9H294.328V216.48H291.556V221.532H290.656V215.616H294.328V213.66C292.828 213.756 291.316 213.804 289.924 213.828C289.912 213.576 289.804 213.24 289.732 213.024C293.044 212.94 297.112 212.712 299.452 212.292L299.812 213.108C298.576 213.324 296.968 213.48 295.24 213.6V215.616H299.056ZM259.6 234.572V235.832H263.74V236.588H254.692V235.832H258.712V234.572H256.264V233.84H258.712V232.832H259.6V233.84H262.108V234.572H259.6ZM257.02 230.84V231.692H261.376V230.84H257.02ZM261.376 227.864H257.02V228.668H261.376V227.864ZM257.02 229.34V230.168H261.376V229.34H257.02ZM264.592 232.448H262.048C262.72 233.24 263.74 233.936 264.748 234.296C264.544 234.464 264.292 234.776 264.16 234.98C262.996 234.5 261.832 233.504 261.112 232.448H257.356C256.6 233.564 255.388 234.596 254.224 235.136C254.092 234.92 253.852 234.62 253.648 234.452C254.644 234.056 255.676 233.3 256.36 232.448H253.768V231.692H256.144V227.864H254.32V227.12H256.144V225.968H257.02V227.12H261.376V225.968H262.276V227.12H264.076V227.864H262.276V231.692H264.592V232.448ZM268.264 229.532H273.988C272.908 228.896 271.852 228.092 271.072 227.276C270.28 228.14 269.32 228.908 268.264 229.532ZM274.132 230.36H271.492V231.992H275.68V232.808H271.492V235.736H276.22V236.564H265.912V235.736H270.568V232.808H266.452V231.992H270.568V230.36H267.976V229.7C267.364 230.036 266.716 230.336 266.068 230.564C265.936 230.324 265.696 229.976 265.468 229.76C267.7 229.028 269.908 227.624 271.048 225.848L271.864 226.232C271.78 226.364 271.672 226.52 271.564 226.664C272.752 227.936 274.864 229.184 276.688 229.76C276.472 229.94 276.196 230.3 276.064 230.528C275.44 230.3 274.78 229.988 274.132 229.616V230.36ZM273.256 235.568L272.584 235.28C273.004 234.692 273.544 233.744 273.832 233.072L274.684 233.396C274.24 234.152 273.688 235.004 273.256 235.568ZM267.46 233.372L268.204 233.072C268.66 233.744 269.152 234.644 269.344 235.22L268.564 235.544C268.396 234.992 267.916 234.044 267.46 233.372ZM279.148 232.628L281.764 232.148C281.74 232.388 281.752 232.712 281.764 232.892C278.524 233.552 278.104 233.66 277.84 233.792C277.804 233.636 277.672 233.228 277.576 233.024C277.828 232.952 278.14 232.664 278.524 232.22C278.764 231.98 279.292 231.344 279.868 230.564C278.236 230.768 277.936 230.852 277.756 230.936C277.72 230.756 277.588 230.336 277.492 230.096C277.708 230.048 277.924 229.772 278.2 229.364C278.488 228.968 279.424 227.42 279.964 225.956L280.768 226.34C280.18 227.624 279.448 228.932 278.692 229.964L280.42 229.772C280.696 229.352 280.972 228.92 281.212 228.5L281.92 228.92C281.092 230.264 280.12 231.572 279.148 232.628ZM281.68 234.344L281.764 235.1C280.336 235.472 278.848 235.844 277.72 236.132L277.564 235.268C278.584 235.076 280.144 234.692 281.68 234.344ZM283.564 233.516V235.844H286.492V233.516H283.564ZM286.492 227.372H283.564V229.604H286.492V227.372ZM283.564 230.42V232.712H286.492V230.42H283.564ZM287.368 235.844H288.4V236.66H281.5V235.844H282.712V226.556H287.368V235.844ZM298.576 231.236V227.66H294.976V231.236H298.576ZM299.488 226.808V232.088H294.1V226.808H299.488ZM290.98 232.664L293.62 232.172C293.596 232.412 293.596 232.76 293.62 232.952C290.344 233.6 289.936 233.708 289.672 233.876C289.624 233.696 289.492 233.288 289.384 233.06C289.648 233 289.936 232.724 290.308 232.28C290.536 232.04 291.04 231.428 291.58 230.648C290.044 230.852 289.756 230.924 289.588 230.996C289.54 230.816 289.396 230.396 289.288 230.156C289.516 230.096 289.72 229.82 289.984 229.412C290.272 229.016 291.16 227.456 291.652 226.004L292.504 226.4C291.952 227.684 291.232 229.004 290.488 230.036L292.108 229.868C292.396 229.448 292.66 228.992 292.9 228.56L293.632 228.992C292.84 230.312 291.928 231.596 290.98 232.664ZM293.572 234.404L293.668 235.184C292.192 235.544 290.668 235.916 289.516 236.216L289.348 235.328C290.404 235.124 292.012 234.764 293.572 234.404ZM294.952 233.252L295.876 233.456C295.468 234.8 294.76 236.072 293.968 236.912C293.8 236.78 293.404 236.516 293.176 236.396C293.98 235.64 294.592 234.476 294.952 233.252ZM297.664 233.528L298.468 233.228C299.128 234.248 299.824 235.604 300.1 236.456L299.224 236.804C298.96 235.952 298.288 234.572 297.664 233.528Z" fill="#76848D"/>
<path d="M45.792 214.92H56.58V215.796H45.792V214.92ZM47.544 212.244H48.48V221.304H56.244V222.18H47.544V212.244ZM50.664 211.98H51.564V218.772H53.856V212.112H54.792V219.6H50.664V211.98ZM59.832 215.064V216.372H66.276V215.064H59.832ZM59.832 213.072V214.356H66.276V213.072H59.832ZM58.944 212.304H67.2V217.128H58.944V212.304ZM64.38 216.624C64.668 217.016 65.032 217.38 65.472 217.716C65.92 218.052 66.412 218.348 66.948 218.604C67.492 218.86 68.044 219.06 68.604 219.204C68.54 219.26 68.468 219.336 68.388 219.432C68.308 219.528 68.232 219.624 68.16 219.72C68.096 219.808 68.04 219.892 67.992 219.972C67.424 219.788 66.864 219.548 66.312 219.252C65.76 218.948 65.252 218.6 64.788 218.208C64.324 217.808 63.936 217.38 63.624 216.924L64.38 216.624ZM61.788 216.624L62.58 216.948C62.26 217.396 61.864 217.816 61.392 218.208C60.92 218.6 60.408 218.952 59.856 219.264C59.312 219.576 58.76 219.832 58.2 220.032C58.16 219.944 58.104 219.856 58.032 219.768C57.968 219.68 57.896 219.592 57.816 219.504C57.744 219.416 57.672 219.34 57.6 219.276C58.144 219.124 58.68 218.912 59.208 218.64C59.744 218.368 60.236 218.06 60.684 217.716C61.132 217.372 61.5 217.008 61.788 216.624ZM60.792 218.748H61.716V219.48C61.716 219.768 61.684 220.072 61.62 220.392C61.564 220.704 61.448 221.02 61.272 221.34C61.096 221.652 60.832 221.952 60.48 222.24C60.136 222.528 59.672 222.792 59.088 223.032C59.048 222.952 58.992 222.868 58.92 222.78C58.848 222.692 58.772 222.604 58.692 222.516C58.612 222.436 58.54 222.368 58.476 222.312C59.004 222.112 59.42 221.896 59.724 221.664C60.036 221.424 60.268 221.18 60.42 220.932C60.58 220.676 60.68 220.424 60.72 220.176C60.768 219.92 60.792 219.68 60.792 219.456V218.748ZM62.592 212.712H63.492V216.78H62.592V212.712ZM64.608 218.748H65.532V222.936H64.608V218.748ZM74.94 212.448H79.716V217.704H74.94V216.912H78.888V213.24H74.94V212.448ZM74.976 214.692H79.248V215.448H74.976V214.692ZM77.1 217.26C77.276 218.004 77.516 218.696 77.82 219.336C78.124 219.976 78.504 220.532 78.96 221.004C79.416 221.468 79.952 221.832 80.568 222.096C80.496 222.152 80.424 222.224 80.352 222.312C80.28 222.408 80.208 222.504 80.136 222.6C80.072 222.696 80.02 222.788 79.98 222.876C79.34 222.556 78.784 222.132 78.312 221.604C77.848 221.076 77.46 220.456 77.148 219.744C76.836 219.032 76.584 218.252 76.392 217.404L77.1 217.26ZM79.776 218.112L80.352 218.748C80.128 218.932 79.88 219.124 79.608 219.324C79.344 219.516 79.076 219.7 78.804 219.876C78.532 220.044 78.276 220.196 78.036 220.332L77.58 219.768C77.804 219.624 78.052 219.46 78.324 219.276C78.596 219.084 78.86 218.888 79.116 218.688C79.38 218.48 79.6 218.288 79.776 218.112ZM74.46 222.96L74.388 222.168L74.82 221.832L77.496 221.184C77.496 221.312 77.5 221.456 77.508 221.616C77.516 221.768 77.528 221.896 77.544 222C76.92 222.168 76.416 222.304 76.032 222.408C75.656 222.52 75.364 222.608 75.156 222.672C74.948 222.736 74.792 222.788 74.688 222.828C74.592 222.876 74.516 222.92 74.46 222.96ZM74.46 222.96C74.436 222.888 74.4 222.808 74.352 222.72C74.304 222.632 74.252 222.54 74.196 222.444C74.148 222.348 74.1 222.272 74.052 222.216C74.14 222.16 74.236 222.068 74.34 221.94C74.444 221.812 74.496 221.62 74.496 221.364V212.448H75.372V222.072C75.372 222.072 75.34 222.092 75.276 222.132C75.22 222.18 75.144 222.236 75.048 222.3C74.96 222.364 74.868 222.432 74.772 222.504C74.684 222.584 74.608 222.664 74.544 222.744C74.488 222.824 74.46 222.896 74.46 222.96ZM71.076 211.956L71.892 212.184C71.74 212.624 71.556 213.06 71.34 213.492C71.124 213.916 70.884 214.32 70.62 214.704C70.364 215.08 70.096 215.412 69.816 215.7C69.792 215.636 69.752 215.552 69.696 215.448C69.64 215.336 69.58 215.224 69.516 215.112C69.46 215 69.404 214.916 69.348 214.86C69.708 214.5 70.04 214.064 70.344 213.552C70.656 213.04 70.9 212.508 71.076 211.956ZM70.86 213.288H73.8V214.152H70.692L70.86 213.288ZM70.26 215.436H73.644V216.252H70.26V215.436ZM69.636 217.872H73.908V218.7H69.636V217.872ZM71.232 222.876L71.124 222.072L71.448 221.712L73.884 220.536C73.9 220.656 73.92 220.792 73.944 220.944C73.976 221.096 74.008 221.216 74.04 221.304C73.472 221.6 73.012 221.836 72.66 222.012C72.316 222.196 72.048 222.34 71.856 222.444C71.672 222.556 71.536 222.64 71.448 222.696C71.36 222.76 71.288 222.82 71.232 222.876ZM71.232 222.876C71.216 222.804 71.188 222.716 71.148 222.612C71.108 222.516 71.06 222.42 71.004 222.324C70.956 222.236 70.908 222.16 70.86 222.096C70.956 222.048 71.056 221.968 71.16 221.856C71.264 221.744 71.316 221.568 71.316 221.328V215.724H72.18V222.072C72.18 222.072 72.148 222.088 72.084 222.12C72.02 222.16 71.94 222.208 71.844 222.264C71.756 222.32 71.664 222.384 71.568 222.456C71.472 222.528 71.392 222.6 71.328 222.672C71.264 222.744 71.232 222.812 71.232 222.876ZM86.04 212.64H91.944V213.504H86.04V212.64ZM89.556 216.216H90.468V221.808C90.468 222.088 90.428 222.3 90.348 222.444C90.268 222.596 90.128 222.712 89.928 222.792C89.72 222.856 89.436 222.892 89.076 222.9C88.724 222.916 88.252 222.924 87.66 222.924C87.644 222.804 87.608 222.66 87.552 222.492C87.496 222.324 87.432 222.172 87.36 222.036C87.648 222.044 87.92 222.052 88.176 222.06C88.432 222.068 88.656 222.068 88.848 222.06C89.04 222.06 89.172 222.06 89.244 222.06C89.356 222.052 89.436 222.032 89.484 222C89.532 221.96 89.556 221.892 89.556 221.796V216.216ZM85.512 215.952H92.28V216.816H85.512V215.952ZM83.124 216.888L83.916 216.096L84.012 216.144V222.996H83.124V216.888ZM84.504 214.488L85.356 214.8C85.052 215.304 84.7 215.808 84.3 216.312C83.9 216.816 83.48 217.288 83.04 217.728C82.608 218.16 82.18 218.548 81.756 218.892C81.708 218.828 81.644 218.748 81.564 218.652C81.492 218.556 81.416 218.46 81.336 218.364C81.256 218.268 81.184 218.192 81.12 218.136C81.536 217.84 81.948 217.496 82.356 217.104C82.772 216.712 83.164 216.292 83.532 215.844C83.908 215.396 84.232 214.944 84.504 214.488ZM84.024 211.908L84.888 212.268C84.624 212.612 84.316 212.968 83.964 213.336C83.62 213.696 83.256 214.044 82.872 214.38C82.496 214.708 82.128 215 81.768 215.256C81.728 215.192 81.676 215.116 81.612 215.028C81.556 214.932 81.492 214.84 81.42 214.752C81.356 214.656 81.296 214.584 81.24 214.536C81.576 214.304 81.916 214.04 82.26 213.744C82.612 213.448 82.94 213.14 83.244 212.82C83.556 212.5 83.816 212.196 84.024 211.908Z" fill="#76848D"/>
<line x1="-4.37114e-08" y1="204.5" x2="335" y2="204.5" stroke="#ABBEC9"/>
<defs>
<linearGradient id="paint0_linear_7005_27937" x1="277" y1="20" x2="277" y2="205" gradientUnits="userSpaceOnUse">
<stop stop-color="#6D73F9"/>
<stop offset="1" stop-color="#9BB8F1"/>
</linearGradient>
<linearGradient id="paint1_linear_7005_27937" x1="277" y1="20" x2="277" y2="205" gradientUnits="userSpaceOnUse">
<stop stop-color="white" stop-opacity="0"/>
<stop offset="0.739583" stop-color="white"/>
</linearGradient>
<linearGradient id="paint2_linear_7005_27937" x1="255" y1="-340.75" x2="255" y2="205" gradientUnits="userSpaceOnUse">
<stop stop-color="white" stop-opacity="0.05"/>
<stop offset="0.75" stop-color="white" stop-opacity="0.8"/>
</linearGradient>
<linearGradient id="paint3_linear_7005_27937" x1="173" y1="77" x2="173" y2="205" gradientUnits="userSpaceOnUse">
<stop stop-color="#6AA2E2"/>
<stop offset="1" stop-color="#9DBCFA"/>
</linearGradient>
<linearGradient id="paint4_linear_7005_27937" x1="173" y1="77" x2="173" y2="205" gradientUnits="userSpaceOnUse">
<stop stop-color="white" stop-opacity="0"/>
<stop offset="0.739583" stop-color="white"/>
</linearGradient>
<linearGradient id="paint5_linear_7005_27937" x1="151" y1="-172.6" x2="151" y2="205" gradientUnits="userSpaceOnUse">
<stop stop-color="white" stop-opacity="0.05"/>
<stop offset="0.75" stop-color="white" stop-opacity="0.8"/>
</linearGradient>
<linearGradient id="paint6_linear_7005_27937" x1="69" y1="112" x2="69" y2="205" gradientUnits="userSpaceOnUse">
<stop stop-color="#CDE3E9"/>
<stop offset="1" stop-color="#D3E8ED"/>
</linearGradient>
<linearGradient id="paint7_linear_7005_27937" x1="69" y1="112" x2="69" y2="205" gradientUnits="userSpaceOnUse">
<stop stop-color="white" stop-opacity="0"/>
<stop offset="0.739583" stop-color="white"/>
</linearGradient>
<linearGradient id="paint8_linear_7005_27937" x1="47" y1="-69.35" x2="47" y2="205" gradientUnits="userSpaceOnUse">
<stop stop-color="white" stop-opacity="0.05"/>
<stop offset="0.75" stop-color="white" stop-opacity="0.8"/>
</linearGradient>
</defs>
</svg>
