<svg width="335" height="514" viewBox="0 0 335 514" fill="none" xmlns="http://www.w3.org/2000/svg">
<rect y="2" width="10" height="10" fill="url(#paint0_linear_7005_27933)"/>
<path d="M20.784 2.992L21.624 3.22C20.94 5.296 19.872 7.408 18.684 8.812C18.6 8.596 18.36 8.116 18.204 7.888C19.26 6.688 20.208 4.84 20.784 2.992ZM19.824 5.932L20.652 5.104L20.676 5.128V13.96H19.824V5.932ZM25.02 3.232L25.692 3.928C24.552 4.432 22.884 4.852 21.468 5.14C21.42 4.936 21.288 4.636 21.18 4.432C22.548 4.132 24.12 3.676 25.02 3.232ZM21.192 6.652H29.316V7.456H21.192V6.652ZM23.196 4.18H24.048V12.868C24.048 13.396 23.928 13.636 23.592 13.78C23.256 13.924 22.704 13.936 21.876 13.936C21.84 13.708 21.72 13.336 21.6 13.096C22.212 13.108 22.788 13.108 22.956 13.096C23.136 13.096 23.196 13.048 23.196 12.868V4.18ZM21.108 10.024C22.236 9.76 23.988 9.304 25.668 8.872L25.764 9.676C24.216 10.108 22.56 10.564 21.348 10.9L21.108 10.024ZM25.872 3.052H26.76C26.7 8.74 27.324 13.12 28.476 13.12C28.74 13.12 28.86 12.532 28.896 11.128C29.076 11.32 29.376 11.512 29.58 11.596C29.448 13.42 29.172 13.984 28.38 13.984C26.364 13.972 25.908 8.944 25.872 3.052ZM28.284 8.032L29.088 8.248C28.188 10.468 26.688 12.328 24.984 13.54C24.852 13.372 24.552 13.06 24.372 12.904C26.076 11.824 27.492 10.072 28.284 8.032ZM27.372 3.652L28.044 3.364C28.536 4.06 29.076 4.996 29.304 5.596L28.596 5.944C28.38 5.344 27.852 4.372 27.372 3.652ZM37.752 4.216V6.016H39.78V4.216H37.752ZM34.92 4.216V6.016H36.924V4.216H34.92ZM32.16 4.216V6.016H34.092V4.216H32.16ZM31.296 3.436H40.68V6.808H31.296V3.436ZM33.588 9.94L34.284 9.496C35.124 10.12 36.168 11.044 36.672 11.68L35.928 12.184C35.46 11.56 34.452 10.588 33.588 9.94ZM33.684 8.008H39.396V8.824H33.684V8.008ZM34.572 6.7L35.472 7C34.656 8.344 33.168 9.64 31.62 10.408C31.488 10.204 31.224 9.88 31.044 9.724C32.52 9.028 33.936 7.852 34.572 6.7ZM39.18 8.008H39.372L39.54 7.972L40.14 8.356C38.676 11.788 35.244 13.324 31.428 13.984C31.344 13.756 31.092 13.36 30.912 13.18C34.656 12.616 37.956 11.212 39.18 8.164V8.008ZM42.636 4.528H48.336V5.32H42.636V4.528ZM43.992 6.424H47.04V7.156H43.992V6.424ZM43.992 8.272H47.076V9.004H43.992V8.272ZM42.456 10.228H48.42V11.032H42.456V10.228ZM43.608 3.052H44.436V10.576H43.608V3.052ZM46.644 3.052H47.484V10.576H46.644V3.052ZM44.148 11.284L45 11.524C44.604 12.4 43.956 13.288 43.332 13.864C43.176 13.708 42.828 13.444 42.612 13.324C43.236 12.808 43.812 12.04 44.148 11.284ZM45.792 11.644L46.512 11.296C46.92 11.764 47.388 12.4 47.604 12.82L46.86 13.216C46.656 12.796 46.188 12.124 45.792 11.644ZM49.116 6.964H53.532V7.804H49.116V6.964ZM51.408 7.408H52.272V13.972H51.408V7.408ZM52.716 2.944L53.436 3.592C52.284 4.132 50.568 4.576 49.092 4.864C49.044 4.672 48.912 4.372 48.804 4.18C50.196 3.868 51.816 3.412 52.716 2.944ZM48.804 4.18H49.632V8.332C49.632 10.54 49.392 12.508 47.868 14.14C47.712 13.96 47.424 13.72 47.22 13.564C48.612 12.064 48.804 10.228 48.804 8.332V4.18Z" fill="#76848D"/>
<rect x="90" y="2" width="10" height="10" fill="#737AF9"/>
<path d="M110.184 12.184H117.792V13.084H110.184V12.184ZM110.124 8.488H117.804V9.376H110.124V8.488ZM109.716 4.852H118.284V13.912H117.348V5.752H110.616V13.96H109.716V4.852ZM113.34 2.884L114.456 3.088C114.12 3.904 113.724 4.804 113.388 5.404L112.512 5.2C112.812 4.552 113.172 3.58 113.34 2.884ZM122.784 2.992L123.624 3.22C122.94 5.296 121.872 7.408 120.684 8.812C120.6 8.596 120.36 8.116 120.204 7.888C121.26 6.688 122.208 4.84 122.784 2.992ZM121.824 5.932L122.652 5.104L122.676 5.128V13.96H121.824V5.932ZM127.02 3.232L127.692 3.928C126.552 4.432 124.884 4.852 123.468 5.14C123.42 4.936 123.288 4.636 123.18 4.432C124.548 4.132 126.12 3.676 127.02 3.232ZM123.192 6.652H131.316V7.456H123.192V6.652ZM125.196 4.18H126.048V12.868C126.048 13.396 125.928 13.636 125.592 13.78C125.256 13.924 124.704 13.936 123.876 13.936C123.84 13.708 123.72 13.336 123.6 13.096C124.212 13.108 124.788 13.108 124.956 13.096C125.136 13.096 125.196 13.048 125.196 12.868V4.18ZM123.108 10.024C124.236 9.76 125.988 9.304 127.668 8.872L127.764 9.676C126.216 10.108 124.56 10.564 123.348 10.9L123.108 10.024ZM127.872 3.052H128.76C128.7 8.74 129.324 13.12 130.476 13.12C130.74 13.12 130.86 12.532 130.896 11.128C131.076 11.32 131.376 11.512 131.58 11.596C131.448 13.42 131.172 13.984 130.38 13.984C128.364 13.972 127.908 8.944 127.872 3.052ZM130.284 8.032L131.088 8.248C130.188 10.468 128.688 12.328 126.984 13.54C126.852 13.372 126.552 13.06 126.372 12.904C128.076 11.824 129.492 10.072 130.284 8.032ZM129.372 3.652L130.044 3.364C130.536 4.06 131.076 4.996 131.304 5.596L130.596 5.944C130.38 5.344 129.852 4.372 129.372 3.652ZM139.752 4.216V6.016H141.78V4.216H139.752ZM136.92 4.216V6.016H138.924V4.216H136.92ZM134.16 4.216V6.016H136.092V4.216H134.16ZM133.296 3.436H142.68V6.808H133.296V3.436ZM135.588 9.94L136.284 9.496C137.124 10.12 138.168 11.044 138.672 11.68L137.928 12.184C137.46 11.56 136.452 10.588 135.588 9.94ZM135.684 8.008H141.396V8.824H135.684V8.008ZM136.572 6.7L137.472 7C136.656 8.344 135.168 9.64 133.62 10.408C133.488 10.204 133.224 9.88 133.044 9.724C134.52 9.028 135.936 7.852 136.572 6.7ZM141.18 8.008H141.372L141.54 7.972L142.14 8.356C140.676 11.788 137.244 13.324 133.428 13.984C133.344 13.756 133.092 13.36 132.912 13.18C136.656 12.616 139.956 11.212 141.18 8.164V8.008ZM144.636 4.528H150.336V5.32H144.636V4.528ZM145.992 6.424H149.04V7.156H145.992V6.424ZM145.992 8.272H149.076V9.004H145.992V8.272ZM144.456 10.228H150.42V11.032H144.456V10.228ZM145.608 3.052H146.436V10.576H145.608V3.052ZM148.644 3.052H149.484V10.576H148.644V3.052ZM146.148 11.284L147 11.524C146.604 12.4 145.956 13.288 145.332 13.864C145.176 13.708 144.828 13.444 144.612 13.324C145.236 12.808 145.812 12.04 146.148 11.284ZM147.792 11.644L148.512 11.296C148.92 11.764 149.388 12.4 149.604 12.82L148.86 13.216C148.656 12.796 148.188 12.124 147.792 11.644ZM151.116 6.964H155.532V7.804H151.116V6.964ZM153.408 7.408H154.272V13.972H153.408V7.408ZM154.716 2.944L155.436 3.592C154.284 4.132 152.568 4.576 151.092 4.864C151.044 4.672 150.912 4.372 150.804 4.18C152.196 3.868 153.816 3.412 154.716 2.944ZM150.804 4.18H151.632V8.332C151.632 10.54 151.392 12.508 149.868 14.14C149.712 13.96 149.424 13.72 149.22 13.564C150.612 12.064 150.804 10.228 150.804 8.332V4.18Z" fill="#76848D"/>
<path d="M18.0781 39.056L17.0281 38.58C17.5461 37.068 18.9041 36.074 20.9341 36.074C21.9001 36.074 22.6981 36.298 23.3141 36.746C23.9301 37.194 24.2381 37.796 24.2381 38.538C24.2381 39.672 23.6361 40.512 22.5161 40.834C23.5941 40.904 24.4621 41.716 24.4621 43.172C24.4621 44.096 24.1261 44.824 23.4541 45.342C22.7821 45.86 21.9281 46.126 20.8781 46.126C18.7361 46.126 17.2521 45.104 16.7621 43.494L17.8961 43.004C18.4981 44.278 19.5201 44.922 20.9621 44.922C22.3201 44.922 23.1741 44.292 23.1741 43.186C23.1741 42.108 22.3341 41.562 20.6541 41.562H19.5621V40.4H20.4301C21.9561 40.4 22.9501 39.714 22.9501 38.776C22.9501 37.81 22.1521 37.264 20.8781 37.264C19.3801 37.264 18.4701 38.034 18.0781 39.056ZM25.7107 45.202C25.7107 44.81 26.0747 44.418 26.5787 44.418C27.0407 44.418 27.4187 44.81 27.4187 45.202C27.4187 45.65 27.0687 46.028 26.5787 46.028C26.0747 46.028 25.7107 45.65 25.7107 45.202ZM28.5763 41.1C28.5763 39.588 28.9263 38.37 29.6403 37.46C30.3403 36.55 31.3763 36.088 32.7343 36.088C35.5203 36.088 36.9063 37.922 36.9063 41.1C36.9063 42.626 36.5563 43.83 35.8703 44.74C35.1703 45.65 34.1343 46.112 32.7623 46.112C31.4463 46.112 30.4243 45.65 29.6823 44.726C28.9403 43.802 28.5763 42.598 28.5763 41.1ZM29.8643 41.1C29.8643 43.494 30.9563 44.922 32.7623 44.922C34.6663 44.922 35.6183 43.648 35.6183 41.1C35.6183 38.552 34.6523 37.278 32.7343 37.278C30.7883 37.278 29.8643 38.678 29.8643 41.1Z" fill="#1A3341"/>
<path d="M11 58C11 56.8954 11.8954 56 13 56H41C42.1046 56 43 56.8954 43 58V94H11V58Z" fill="url(#paint1_linear_7005_27933)"/>
<path opacity="0.2" d="M23 56H31V94H23V56Z" fill="url(#paint2_linear_7005_27933)"/>
<path opacity="0.04" d="M31 56H41C42.1046 56 43 56.8954 43 58V94H31V56Z" fill="#0D262C"/>
<path opacity="0.5" d="M11 58C11 56.8954 11.8954 56 13 56H23V94H11V58Z" fill="url(#paint3_linear_7005_27933)"/>
<path d="M51 97C51 98.1046 51.8954 99 53 99H81C82.1046 99 83 98.1046 83 97V94H51V97Z" fill="url(#paint4_linear_7005_27933)"/>
<path opacity="0.2" d="M63 99H71V94H63V99Z" fill="url(#paint5_linear_7005_27933)"/>
<path opacity="0.04" d="M71 99H81C82.1046 99 83 98.1046 83 97V94H71V99Z" fill="#0D262C"/>
<path opacity="0.5" d="M51 97C51 98.1046 51.8954 99 53 99H63V94H51V97Z" fill="url(#paint6_linear_7005_27933)"/>
<path d="M61.3855 113.492H54.8895V112.442H61.3855V113.492ZM62.6339 113.1C62.6339 111.588 62.9839 110.37 63.6979 109.46C64.3979 108.55 65.4339 108.088 66.7919 108.088C69.5779 108.088 70.9639 109.922 70.9639 113.1C70.9639 114.626 70.6139 115.83 69.9279 116.74C69.2279 117.65 68.1919 118.112 66.8199 118.112C65.5039 118.112 64.4819 117.65 63.7399 116.726C62.9979 115.802 62.6339 114.598 62.6339 113.1ZM63.9219 113.1C63.9219 115.494 65.0139 116.922 66.8199 116.922C68.7239 116.922 69.6759 115.648 69.6759 113.1C69.6759 110.552 68.7099 109.278 66.7919 109.278C64.8459 109.278 63.9219 110.678 63.9219 113.1ZM72.1075 117.202C72.1075 116.81 72.4715 116.418 72.9755 116.418C73.4375 116.418 73.8155 116.81 73.8155 117.202C73.8155 117.65 73.4655 118.028 72.9755 118.028C72.4715 118.028 72.1075 117.65 72.1075 117.202ZM74.8611 110.804L74.4131 109.754L77.7731 108.144H78.5711V118H77.3671V109.642L74.8611 110.804Z" fill="#2A3C3C"/>
<path d="M61.3855 113.492H54.8895V112.442H61.3855V113.492ZM62.6339 113.1C62.6339 111.588 62.9839 110.37 63.6979 109.46C64.3979 108.55 65.4339 108.088 66.7919 108.088C69.5779 108.088 70.9639 109.922 70.9639 113.1C70.9639 114.626 70.6139 115.83 69.9279 116.74C69.2279 117.65 68.1919 118.112 66.8199 118.112C65.5039 118.112 64.4819 117.65 63.7399 116.726C62.9979 115.802 62.6339 114.598 62.6339 113.1ZM63.9219 113.1C63.9219 115.494 65.0139 116.922 66.8199 116.922C68.7239 116.922 69.6759 115.648 69.6759 113.1C69.6759 110.552 68.7099 109.278 66.7919 109.278C64.8459 109.278 63.9219 110.678 63.9219 113.1ZM72.1075 117.202C72.1075 116.81 72.4715 116.418 72.9755 116.418C73.4375 116.418 73.8155 116.81 73.8155 117.202C73.8155 117.65 73.4655 118.028 72.9755 118.028C72.4715 118.028 72.1075 117.65 72.1075 117.202ZM74.8611 110.804L74.4131 109.754L77.7731 108.144H78.5711V118H77.3671V109.642L74.8611 110.804Z" fill="#1A3341"/>
<path d="M251 128C251 129.105 251.895 130 253 130H281C282.105 130 283 129.105 283 128V94H251V128Z" fill="url(#paint7_linear_7005_27933)"/>
<path opacity="0.2" d="M263 130H271V94H263V130Z" fill="url(#paint8_linear_7005_27933)"/>
<path opacity="0.04" d="M271 130H281C282.105 130 283 129.105 283 128V94H271V130Z" fill="#0D262C"/>
<path opacity="0.5" d="M251 128C251 129.105 251.895 130 253 130H263V94H251V128Z" fill="url(#paint9_linear_7005_27933)"/>
<path d="M260.62 144.492H254.124V143.442H260.62V144.492ZM262.988 142.434L261.966 142.07C262.316 140.334 263.632 139.088 265.718 139.088C267.734 139.088 268.966 140.25 268.966 142.028C268.966 142.966 268.56 143.904 268.056 144.576C267.804 144.926 267.482 145.262 267.104 145.612C266.334 146.298 265.788 146.662 264.99 147.166L263.912 147.838H269.33V149H261.7V148.048L263.828 146.634C264.206 146.396 264.472 146.214 264.626 146.102C264.78 146.004 265.032 145.822 265.368 145.584C265.704 145.346 265.956 145.136 266.124 144.982C266.278 144.828 266.488 144.632 266.726 144.38C267.37 143.68 267.608 143.036 267.678 142.154C267.678 140.88 266.852 140.306 265.634 140.306C264.878 140.306 264.276 140.516 263.842 140.936C263.408 141.356 263.114 141.86 262.988 142.434ZM270.399 148.202C270.399 147.81 270.763 147.418 271.267 147.418C271.729 147.418 272.107 147.81 272.107 148.202C272.107 148.65 271.757 149.028 271.267 149.028C270.763 149.028 270.399 148.65 270.399 148.202ZM278.878 140.39H272.942V139.2H280.376V139.998L275.504 149H274.174L278.878 140.39Z" fill="#1A3341"/>
<path d="M291 151C291 152.105 291.895 153 293 153H321C322.105 153 323 152.105 323 151V94H291V151Z" fill="url(#paint10_linear_7005_27933)"/>
<path opacity="0.2" d="M303 153H311V94H303V153Z" fill="url(#paint11_linear_7005_27933)"/>
<path opacity="0.04" d="M311 153H321C322.105 153 323 152.105 323 151V94H311V153Z" fill="#0D262C"/>
<path opacity="0.5" d="M291 151C291 152.105 291.895 153 293 153H303V94H291V151Z" fill="url(#paint12_linear_7005_27933)"/>
<path d="M299.8 167.492H293.304V166.442H299.8V167.492ZM307.81 172H306.592V169.998H300.6V169.186L306.732 162.2H307.81V168.864H309.63V169.998H307.81V172ZM306.592 164.16L302.28 168.864H306.592V164.16ZM310.412 171.202C310.412 170.81 310.776 170.418 311.28 170.418C311.742 170.418 312.12 170.81 312.12 171.202C312.12 171.65 311.77 172.028 311.28 172.028C310.776 172.028 310.412 171.65 310.412 171.202ZM314.706 167.492L313.698 167.226L314.272 162.2H320.432V163.39H315.35L314.986 166.022C315.476 165.658 316.218 165.476 317.212 165.476C318.36 165.476 319.256 165.784 319.914 166.386C320.558 167.002 320.88 167.786 320.88 168.752C320.88 169.718 320.516 170.53 319.802 171.16C319.074 171.804 318.164 172.126 317.086 172.126C315.252 172.126 313.726 171.258 313.096 169.732L314.216 169.256C314.622 170.194 315.672 170.936 317.086 170.936C318.696 170.936 319.592 170.012 319.592 168.794C319.592 167.492 318.542 166.652 316.876 166.652C315.98 166.652 315.252 166.932 314.706 167.492Z" fill="#2A3C3C"/>
<path d="M299.8 167.492H293.304V166.442H299.8V167.492ZM307.81 172H306.592V169.998H300.6V169.186L306.732 162.2H307.81V168.864H309.63V169.998H307.81V172ZM306.592 164.16L302.28 168.864H306.592V164.16ZM310.412 171.202C310.412 170.81 310.776 170.418 311.28 170.418C311.742 170.418 312.12 170.81 312.12 171.202C312.12 171.65 311.77 172.028 311.28 172.028C310.776 172.028 310.412 171.65 310.412 171.202ZM314.706 167.492L313.698 167.226L314.272 162.2H320.432V163.39H315.35L314.986 166.022C315.476 165.658 316.218 165.476 317.212 165.476C318.36 165.476 319.256 165.784 319.914 166.386C320.558 167.002 320.88 167.786 320.88 168.752C320.88 169.718 320.516 170.53 319.802 171.16C319.074 171.804 318.164 172.126 317.086 172.126C315.252 172.126 313.726 171.258 313.096 169.732L314.216 169.256C314.622 170.194 315.672 170.936 317.086 170.936C318.696 170.936 319.592 170.012 319.592 168.794C319.592 167.492 318.542 166.652 316.876 166.652C315.98 166.652 315.252 166.932 314.706 167.492Z" fill="#1A3341"/>
<path d="M91 151C91 152.105 91.8954 153 93 153H121C122.105 153 123 152.105 123 151V94H91V151Z" fill="url(#paint13_linear_7005_27933)"/>
<path opacity="0.2" d="M103 153H111V94H103V153Z" fill="url(#paint14_linear_7005_27933)"/>
<path opacity="0.04" d="M111 153H121C122.105 153 123 152.105 123 151V94H111V153Z" fill="#0D262C"/>
<path opacity="0.5" d="M91 151C91 152.105 91.8954 153 93 153H103V94H91V151Z" fill="url(#paint15_linear_7005_27933)"/>
<path d="M99.7996 167.492H93.3036V166.442H99.7996V167.492ZM107.81 172H106.592V169.998H100.6V169.186L106.732 162.2H107.81V168.864H109.63V169.998H107.81V172ZM106.592 164.16L102.28 168.864H106.592V164.16ZM110.412 171.202C110.412 170.81 110.776 170.418 111.28 170.418C111.742 170.418 112.12 170.81 112.12 171.202C112.12 171.65 111.77 172.028 111.28 172.028C110.776 172.028 110.412 171.65 110.412 171.202ZM114.706 167.492L113.698 167.226L114.272 162.2H120.432V163.39H115.35L114.986 166.022C115.476 165.658 116.218 165.476 117.212 165.476C118.36 165.476 119.256 165.784 119.914 166.386C120.558 167.002 120.88 167.786 120.88 168.752C120.88 169.718 120.516 170.53 119.802 171.16C119.074 171.804 118.164 172.126 117.086 172.126C115.252 172.126 113.726 171.258 113.096 169.732L114.216 169.256C114.622 170.194 115.672 170.936 117.086 170.936C118.696 170.936 119.592 170.012 119.592 168.794C119.592 167.492 118.542 166.652 116.876 166.652C115.98 166.652 115.252 166.932 114.706 167.492Z" fill="#1A3341"/>
<path d="M131 195C131 196.105 131.895 197 133 197H161C162.105 197 163 196.105 163 195V94H131V195Z" fill="url(#paint16_linear_7005_27933)"/>
<path opacity="0.2" d="M143 197H151V94H143V197Z" fill="url(#paint17_linear_7005_27933)"/>
<path opacity="0.04" d="M151 197H161C162.105 197 163 196.105 163 195V94H151V197Z" fill="#0D262C"/>
<path opacity="0.5" d="M131 195C131 196.105 131.895 197 133 197H143V94H131V195Z" fill="url(#paint18_linear_7005_27933)"/>
<path d="M140.661 211.492H134.165V210.442H140.661V211.492ZM147.523 207.39H141.587V206.2H149.021V206.998L144.149 216H142.819L147.523 207.39ZM149.018 215.202C149.018 214.81 149.382 214.418 149.886 214.418C150.348 214.418 150.726 214.81 150.726 215.202C150.726 215.65 150.376 216.028 149.886 216.028C149.382 216.028 149.018 215.65 149.018 215.202ZM160.031 210.918C160.031 212.584 159.639 213.872 158.841 214.768C158.043 215.678 156.979 216.126 155.649 216.126C154.025 216.126 152.751 215.44 152.121 214.39L153.129 213.69C153.689 214.474 154.711 214.922 155.817 214.922C156.727 214.922 157.455 214.558 158.029 213.83C158.603 213.116 158.841 212.22 158.771 211.156C158.309 212.22 157.147 213.004 155.593 213.004C154.501 213.004 153.605 212.696 152.905 212.066C152.191 211.45 151.841 210.638 151.841 209.644C151.841 208.552 152.219 207.684 152.975 207.04C153.731 206.396 154.739 206.074 155.985 206.074C158.505 206.074 160.031 207.838 160.031 210.918ZM158.561 209.602C158.351 208.3 157.455 207.278 155.845 207.278C154.165 207.278 153.129 208.146 153.129 209.602C153.129 210.988 154.179 211.8 155.817 211.8C156.559 211.8 157.189 211.576 157.679 211.128C158.169 210.68 158.463 210.176 158.561 209.602Z" fill="#2A3C3C"/>
<path d="M140.661 211.492H134.165V210.442H140.661V211.492ZM147.523 207.39H141.587V206.2H149.021V206.998L144.149 216H142.819L147.523 207.39ZM149.018 215.202C149.018 214.81 149.382 214.418 149.886 214.418C150.348 214.418 150.726 214.81 150.726 215.202C150.726 215.65 150.376 216.028 149.886 216.028C149.382 216.028 149.018 215.65 149.018 215.202ZM160.031 210.918C160.031 212.584 159.639 213.872 158.841 214.768C158.043 215.678 156.979 216.126 155.649 216.126C154.025 216.126 152.751 215.44 152.121 214.39L153.129 213.69C153.689 214.474 154.711 214.922 155.817 214.922C156.727 214.922 157.455 214.558 158.029 213.83C158.603 213.116 158.841 212.22 158.771 211.156C158.309 212.22 157.147 213.004 155.593 213.004C154.501 213.004 153.605 212.696 152.905 212.066C152.191 211.45 151.841 210.638 151.841 209.644C151.841 208.552 152.219 207.684 152.975 207.04C153.731 206.396 154.739 206.074 155.985 206.074C158.505 206.074 160.031 207.838 160.031 210.918ZM158.561 209.602C158.351 208.3 157.455 207.278 155.845 207.278C154.165 207.278 153.129 208.146 153.129 209.602C153.129 210.988 154.179 211.8 155.817 211.8C156.559 211.8 157.189 211.576 157.679 211.128C158.169 210.68 158.463 210.176 158.561 209.602Z" fill="#1A3341"/>
<path d="M171 138C171 139.105 171.895 140 173 140H201C202.105 140 203 139.105 203 138V94H171V138Z" fill="url(#paint19_linear_7005_27933)"/>
<path opacity="0.2" d="M183 140H191V94H183V140Z" fill="url(#paint20_linear_7005_27933)"/>
<path opacity="0.04" d="M191 140H201C202.105 140 203 139.105 203 138V94H191V140Z" fill="#0D262C"/>
<path opacity="0.5" d="M171 138C171 139.105 171.895 140 173 140H183V94H171V138Z" fill="url(#paint21_linear_7005_27933)"/>
<path d="M180.182 154.492H173.686V153.442H180.182V154.492ZM182.397 152.056L181.347 151.58C181.865 150.068 183.223 149.074 185.253 149.074C186.219 149.074 187.017 149.298 187.633 149.746C188.249 150.194 188.557 150.796 188.557 151.538C188.557 152.672 187.955 153.512 186.835 153.834C187.913 153.904 188.781 154.716 188.781 156.172C188.781 157.096 188.445 157.824 187.773 158.342C187.101 158.86 186.247 159.126 185.197 159.126C183.055 159.126 181.571 158.104 181.081 156.494L182.215 156.004C182.817 157.278 183.839 157.922 185.281 157.922C186.639 157.922 187.493 157.292 187.493 156.186C187.493 155.108 186.653 154.562 184.973 154.562H183.881V153.4H184.749C186.275 153.4 187.269 152.714 187.269 151.776C187.269 150.81 186.471 150.264 185.197 150.264C183.699 150.264 182.789 151.034 182.397 152.056ZM190.029 158.202C190.029 157.81 190.393 157.418 190.897 157.418C191.359 157.418 191.737 157.81 191.737 158.202C191.737 158.65 191.387 159.028 190.897 159.028C190.393 159.028 190.029 158.65 190.029 158.202ZM194.323 154.492L193.315 154.226L193.889 149.2H200.049V150.39H194.967L194.603 153.022C195.093 152.658 195.835 152.476 196.829 152.476C197.977 152.476 198.873 152.784 199.531 153.386C200.175 154.002 200.497 154.786 200.497 155.752C200.497 156.718 200.133 157.53 199.419 158.16C198.691 158.804 197.781 159.126 196.703 159.126C194.869 159.126 193.343 158.258 192.713 156.732L193.833 156.256C194.239 157.194 195.289 157.936 196.703 157.936C198.313 157.936 199.209 157.012 199.209 155.794C199.209 154.492 198.159 153.652 196.493 153.652C195.597 153.652 194.869 153.932 194.323 154.492Z" fill="#1A3341"/>
<path d="M211 161C211 162.105 211.895 163 213 163H241C242.105 163 243 162.105 243 161V94H211V161Z" fill="url(#paint22_linear_7005_27933)"/>
<path opacity="0.2" d="M223 163H231V94H223V163Z" fill="url(#paint23_linear_7005_27933)"/>
<path opacity="0.04" d="M231 163H241C242.105 163 243 162.105 243 161V94H231V163Z" fill="#0D262C"/>
<path opacity="0.5" d="M211 161C211 162.105 211.895 163 213 163H223V94H211V161Z" fill="url(#paint24_linear_7005_27933)"/>
<path d="M220.182 177.492H213.686V176.442H220.182V177.492ZM222.859 177.492L221.851 177.226L222.425 172.2H228.585V173.39H223.503L223.139 176.022C223.629 175.658 224.371 175.476 225.365 175.476C226.513 175.476 227.409 175.784 228.067 176.386C228.711 177.002 229.033 177.786 229.033 178.752C229.033 179.718 228.669 180.53 227.955 181.16C227.227 181.804 226.317 182.126 225.239 182.126C223.405 182.126 221.879 181.258 221.249 179.732L222.369 179.256C222.775 180.194 223.825 180.936 225.239 180.936C226.849 180.936 227.745 180.012 227.745 178.794C227.745 177.492 226.695 176.652 225.029 176.652C224.133 176.652 223.405 176.932 222.859 177.492ZM230.193 181.202C230.193 180.81 230.557 180.418 231.061 180.418C231.523 180.418 231.901 180.81 231.901 181.202C231.901 181.65 231.551 182.028 231.061 182.028C230.557 182.028 230.193 181.65 230.193 181.202ZM234.025 175.056L232.975 174.58C233.493 173.068 234.851 172.074 236.881 172.074C237.847 172.074 238.645 172.298 239.261 172.746C239.877 173.194 240.185 173.796 240.185 174.538C240.185 175.672 239.583 176.512 238.463 176.834C239.541 176.904 240.409 177.716 240.409 179.172C240.409 180.096 240.073 180.824 239.401 181.342C238.729 181.86 237.875 182.126 236.825 182.126C234.683 182.126 233.199 181.104 232.709 179.494L233.843 179.004C234.445 180.278 235.467 180.922 236.909 180.922C238.267 180.922 239.121 180.292 239.121 179.186C239.121 178.108 238.281 177.562 236.601 177.562H235.509V176.4H236.377C237.903 176.4 238.897 175.714 238.897 174.776C238.897 173.81 238.099 173.264 236.825 173.264C235.327 173.264 234.417 174.034 234.025 175.056Z" fill="#2A3C3C"/>
<path d="M220.182 177.492H213.686V176.442H220.182V177.492ZM222.859 177.492L221.851 177.226L222.425 172.2H228.585V173.39H223.503L223.139 176.022C223.629 175.658 224.371 175.476 225.365 175.476C226.513 175.476 227.409 175.784 228.067 176.386C228.711 177.002 229.033 177.786 229.033 178.752C229.033 179.718 228.669 180.53 227.955 181.16C227.227 181.804 226.317 182.126 225.239 182.126C223.405 182.126 221.879 181.258 221.249 179.732L222.369 179.256C222.775 180.194 223.825 180.936 225.239 180.936C226.849 180.936 227.745 180.012 227.745 178.794C227.745 177.492 226.695 176.652 225.029 176.652C224.133 176.652 223.405 176.932 222.859 177.492ZM230.193 181.202C230.193 180.81 230.557 180.418 231.061 180.418C231.523 180.418 231.901 180.81 231.901 181.202C231.901 181.65 231.551 182.028 231.061 182.028C230.557 182.028 230.193 181.65 230.193 181.202ZM234.025 175.056L232.975 174.58C233.493 173.068 234.851 172.074 236.881 172.074C237.847 172.074 238.645 172.298 239.261 172.746C239.877 173.194 240.185 173.796 240.185 174.538C240.185 175.672 239.583 176.512 238.463 176.834C239.541 176.904 240.409 177.716 240.409 179.172C240.409 180.096 240.073 180.824 239.401 181.342C238.729 181.86 237.875 182.126 236.825 182.126C234.683 182.126 233.199 181.104 232.709 179.494L233.843 179.004C234.445 180.278 235.467 180.922 236.909 180.922C238.267 180.922 239.121 180.292 239.121 179.186C239.121 178.108 238.281 177.562 236.601 177.562H235.509V176.4H236.377C237.903 176.4 238.897 175.714 238.897 174.776C238.897 173.81 238.099 173.264 236.825 173.264C235.327 173.264 234.417 174.034 234.025 175.056Z" fill="#1A3341"/>
<line x1="-4.37114e-08" y1="94.5" x2="335" y2="94.5" stroke="#ABBEC9"/>
<path d="M33.5564 230.372L32.6804 230.06C32.9804 228.572 34.1084 227.504 35.8964 227.504C37.6244 227.504 38.6804 228.5 38.6804 230.024C38.6804 230.828 38.3324 231.632 37.9004 232.208C37.6844 232.508 37.4084 232.796 37.0844 233.096C36.4244 233.684 35.9564 233.996 35.2724 234.428L34.3484 235.004H38.9924V236H32.4524V235.184L34.2764 233.972C34.6004 233.768 34.8284 233.612 34.9604 233.516C35.0924 233.432 35.3084 233.276 35.5964 233.072C35.8844 232.868 36.1004 232.688 36.2444 232.556C36.3764 232.424 36.5564 232.256 36.7604 232.04C37.3124 231.44 37.5164 230.888 37.5764 230.132C37.5764 229.04 36.8684 228.548 35.8244 228.548C35.1764 228.548 34.6604 228.728 34.2884 229.088C33.9164 229.448 33.6644 229.88 33.5564 230.372ZM39.824 231.8C39.824 230.504 40.124 229.46 40.736 228.68C41.336 227.9 42.224 227.504 43.388 227.504C45.776 227.504 46.964 229.076 46.964 231.8C46.964 233.108 46.664 234.14 46.076 234.92C45.476 235.7 44.588 236.096 43.412 236.096C42.284 236.096 41.408 235.7 40.772 234.908C40.136 234.116 39.824 233.084 39.824 231.8ZM40.928 231.8C40.928 233.852 41.864 235.076 43.412 235.076C45.044 235.076 45.86 233.984 45.86 231.8C45.86 229.616 45.032 228.524 43.388 228.524C41.72 228.524 40.928 229.724 40.928 231.8ZM48.8203 230.372L47.9443 230.06C48.2443 228.572 49.3723 227.504 51.1603 227.504C52.8883 227.504 53.9443 228.5 53.9443 230.024C53.9443 230.828 53.5963 231.632 53.1643 232.208C52.9483 232.508 52.6723 232.796 52.3483 233.096C51.6883 233.684 51.2203 233.996 50.5363 234.428L49.6123 235.004H54.2563V236H47.7163V235.184L49.5403 233.972C49.8643 233.768 50.0923 233.612 50.2243 233.516C50.3563 233.432 50.5723 233.276 50.8603 233.072C51.1483 232.868 51.3643 232.688 51.5083 232.556C51.6403 232.424 51.8203 232.256 52.0243 232.04C52.5763 231.44 52.7803 230.888 52.8403 230.132C52.8403 229.04 52.1323 228.548 51.0883 228.548C50.4403 228.548 49.9243 228.728 49.5523 229.088C49.1803 229.448 48.9283 229.88 48.8203 230.372ZM56.048 230.372L55.172 230.06C55.472 228.572 56.6 227.504 58.388 227.504C60.116 227.504 61.172 228.5 61.172 230.024C61.172 230.828 60.824 231.632 60.392 232.208C60.176 232.508 59.9 232.796 59.576 233.096C58.916 233.684 58.448 233.996 57.764 234.428L56.84 235.004H61.484V236H54.944V235.184L56.768 233.972C57.092 233.768 57.32 233.612 57.452 233.516C57.584 233.432 57.8 233.276 58.088 233.072C58.376 232.868 58.592 232.688 58.736 232.556C58.868 232.424 59.048 232.256 59.252 232.04C59.804 231.44 60.008 230.888 60.068 230.132C60.068 229.04 59.36 228.548 58.316 228.548C57.668 228.548 57.152 228.728 56.78 229.088C56.408 229.448 56.156 229.88 56.048 230.372ZM40.4256 245.8C40.4256 244.588 40.8336 243.556 41.6616 242.728C42.4896 241.9 43.4976 241.492 44.6976 241.492C45.8856 241.492 46.8936 241.9 47.7216 242.716C48.5496 243.532 48.9576 244.564 48.9576 245.8C48.9576 246.988 48.5136 248.044 47.6256 248.944L48.4656 249.952L47.7216 250.576L46.8576 249.532C46.1736 249.916 45.4536 250.108 44.6976 250.108C43.4736 250.108 42.4536 249.7 41.6496 248.884C40.8336 248.08 40.4256 247.048 40.4256 245.8ZM41.5656 245.8C41.5656 246.748 41.8656 247.528 42.4656 248.14C43.0656 248.752 43.8096 249.064 44.6976 249.064C45.2376 249.064 45.7296 248.932 46.1976 248.656L45.4776 247.792L46.1736 247.18L46.9416 248.104C47.5296 247.492 47.8176 246.724 47.8176 245.8C47.8176 244.852 47.5176 244.072 46.9176 243.46C46.3176 242.848 45.5736 242.536 44.6976 242.536C43.8096 242.536 43.0656 242.836 42.4656 243.448C41.8656 244.06 41.5656 244.852 41.5656 245.8ZM49.692 243.832L49.308 242.932L52.188 241.552H52.872V250H51.84V242.836L49.692 243.832Z" fill="#76848D"/>
<path d="M119.119 245.8C119.119 244.588 119.527 243.556 120.355 242.728C121.183 241.9 122.191 241.492 123.391 241.492C124.579 241.492 125.587 241.9 126.415 242.716C127.243 243.532 127.651 244.564 127.651 245.8C127.651 246.988 127.207 248.044 126.319 248.944L127.159 249.952L126.415 250.576L125.551 249.532C124.867 249.916 124.147 250.108 123.391 250.108C122.167 250.108 121.147 249.7 120.343 248.884C119.527 248.08 119.119 247.048 119.119 245.8ZM120.259 245.8C120.259 246.748 120.559 247.528 121.159 248.14C121.759 248.752 122.503 249.064 123.391 249.064C123.931 249.064 124.423 248.932 124.891 248.656L124.171 247.792L124.867 247.18L125.635 248.104C126.223 247.492 126.511 246.724 126.511 245.8C126.511 244.852 126.211 244.072 125.611 243.46C125.011 242.848 124.267 242.536 123.391 242.536C122.503 242.536 121.759 242.836 121.159 243.448C120.559 244.06 120.259 244.852 120.259 245.8ZM129.441 244.372L128.565 244.06C128.865 242.572 129.993 241.504 131.781 241.504C133.509 241.504 134.565 242.5 134.565 244.024C134.565 244.828 134.217 245.632 133.785 246.208C133.569 246.508 133.293 246.796 132.969 247.096C132.309 247.684 131.841 247.996 131.157 248.428L130.233 249.004H134.877V250H128.337V249.184L130.161 247.972C130.485 247.768 130.713 247.612 130.845 247.516C130.977 247.432 131.193 247.276 131.481 247.072C131.769 246.868 131.985 246.688 132.129 246.556C132.261 246.424 132.441 246.256 132.645 246.04C133.197 245.44 133.401 244.888 133.461 244.132C133.461 243.04 132.753 242.548 131.709 242.548C131.061 242.548 130.545 242.728 130.173 243.088C129.801 243.448 129.549 243.88 129.441 244.372Z" fill="#76848D"/>
<path d="M199.09 245.8C199.09 244.588 199.498 243.556 200.326 242.728C201.154 241.9 202.162 241.492 203.362 241.492C204.55 241.492 205.558 241.9 206.386 242.716C207.214 243.532 207.622 244.564 207.622 245.8C207.622 246.988 207.178 248.044 206.29 248.944L207.13 249.952L206.386 250.576L205.522 249.532C204.838 249.916 204.118 250.108 203.362 250.108C202.138 250.108 201.118 249.7 200.314 248.884C199.498 248.08 199.09 247.048 199.09 245.8ZM200.23 245.8C200.23 246.748 200.53 247.528 201.13 248.14C201.73 248.752 202.474 249.064 203.362 249.064C203.902 249.064 204.394 248.932 204.862 248.656L204.142 247.792L204.838 247.18L205.606 248.104C206.194 247.492 206.482 246.724 206.482 245.8C206.482 244.852 206.182 244.072 205.582 243.46C204.982 242.848 204.238 242.536 203.362 242.536C202.474 242.536 201.73 242.836 201.13 243.448C200.53 244.06 200.23 244.852 200.23 245.8ZM209.28 244.048L208.38 243.64C208.824 242.344 209.988 241.492 211.728 241.492C212.556 241.492 213.24 241.684 213.768 242.068C214.296 242.452 214.56 242.968 214.56 243.604C214.56 244.576 214.044 245.296 213.084 245.572C214.008 245.632 214.752 246.328 214.752 247.576C214.752 248.368 214.464 248.992 213.888 249.436C213.312 249.88 212.58 250.108 211.68 250.108C209.844 250.108 208.572 249.232 208.152 247.852L209.124 247.432C209.64 248.524 210.516 249.076 211.752 249.076C212.916 249.076 213.648 248.536 213.648 247.588C213.648 246.664 212.928 246.196 211.488 246.196H210.552V245.2H211.296C212.604 245.2 213.456 244.612 213.456 243.808C213.456 242.98 212.772 242.512 211.68 242.512C210.396 242.512 209.616 243.172 209.28 244.048Z" fill="#76848D"/>
<path d="M278.762 245.8C278.762 244.588 279.17 243.556 279.998 242.728C280.826 241.9 281.834 241.492 283.034 241.492C284.222 241.492 285.23 241.9 286.058 242.716C286.886 243.532 287.294 244.564 287.294 245.8C287.294 246.988 286.85 248.044 285.962 248.944L286.802 249.952L286.058 250.576L285.194 249.532C284.51 249.916 283.79 250.108 283.034 250.108C281.81 250.108 280.79 249.7 279.986 248.884C279.17 248.08 278.762 247.048 278.762 245.8ZM279.902 245.8C279.902 246.748 280.202 247.528 280.802 248.14C281.402 248.752 282.146 249.064 283.034 249.064C283.574 249.064 284.066 248.932 284.534 248.656L283.814 247.792L284.51 247.18L285.278 248.104C285.866 247.492 286.154 246.724 286.154 245.8C286.154 244.852 285.854 244.072 285.254 243.46C284.654 242.848 283.91 242.536 283.034 242.536C282.146 242.536 281.402 242.836 280.802 243.448C280.202 244.06 279.902 244.852 279.902 245.8ZM293.92 250H292.876V248.284H287.74V247.588L292.996 241.6H293.92V247.312H295.48V248.284H293.92V250ZM292.876 243.28L289.18 247.312H292.876V243.28Z" fill="#76848D"/>
<path d="M11 436C11 437.105 11.8954 438 13 438H41C42.1046 438 43 437.105 43 436V414H11V436Z" fill="url(#paint25_linear_7005_27933)"/>
<path opacity="0.2" d="M23 438H31V414H23V438Z" fill="url(#paint26_linear_7005_27933)"/>
<path opacity="0.04" d="M31 438H41C42.1046 438 43 437.105 43 436V414H31V438Z" fill="#0D262C"/>
<path opacity="0.5" d="M11 436C11 437.105 11.8954 438 13 438H23V414H11V436Z" fill="url(#paint27_linear_7005_27933)"/>
<path d="M21.4744 452.492H14.9784V451.442H21.4744V452.492ZM22.6108 449.804L22.1628 448.754L25.5228 447.144H26.3208V457H25.1168V448.642L22.6108 449.804ZM28.2042 456.202C28.2042 455.81 28.5682 455.418 29.0722 455.418C29.5342 455.418 29.9122 455.81 29.9122 456.202C29.9122 456.65 29.5622 457.028 29.0722 457.028C28.5682 457.028 28.2042 456.65 28.2042 456.202ZM34.9337 451.414H35.3677C35.9977 451.414 36.5157 451.26 36.9497 450.966C37.3697 450.672 37.5797 450.28 37.5797 449.818C37.5797 448.768 36.7537 448.236 35.1157 448.236C33.5477 448.236 32.6937 448.81 32.6937 449.818C32.6937 450.728 33.6317 451.414 34.9337 451.414ZM35.3397 452.52H34.9897C34.2337 452.52 33.6037 452.688 33.1137 453.01C32.6237 453.332 32.3717 453.738 32.3717 454.228C32.3717 455.292 33.3517 455.964 35.1297 455.964C36.9357 455.964 37.9017 455.32 37.9017 454.242C37.9017 453.164 36.8657 452.52 35.3397 452.52ZM38.0977 456.37C37.3837 456.874 36.3897 457.126 35.1437 457.126C33.8977 457.126 32.9037 456.874 32.1757 456.384C31.4477 455.894 31.0837 455.222 31.0837 454.354C31.0837 453.22 31.8257 452.324 33.0157 451.932C31.9377 451.582 31.4057 450.728 31.4057 449.734C31.4057 448.11 32.7777 447.074 35.1297 447.074C37.4957 447.074 38.8677 448.11 38.8677 449.734C38.8677 450.672 38.3497 451.386 37.3137 451.862C38.5597 452.24 39.1757 453.052 39.1757 454.298C39.1757 455.18 38.8117 455.88 38.0977 456.37Z" fill="#1A3341"/>
<path d="M51 437C51 438.105 51.8954 439 53 439H81C82.1046 439 83 438.105 83 437V414H51V437Z" fill="url(#paint28_linear_7005_27933)"/>
<path opacity="0.2" d="M63 439H71V414H63V439Z" fill="url(#paint29_linear_7005_27933)"/>
<path opacity="0.04" d="M71 439H81C82.1046 439 83 438.105 83 437V414H71V439Z" fill="#0D262C"/>
<path opacity="0.5" d="M51 437C51 438.105 51.8954 439 53 439H63V414H51V437Z" fill="url(#paint30_linear_7005_27933)"/>
<path d="M61.4744 453.492H54.9784V452.442H61.4744V453.492ZM62.6108 450.804L62.1628 449.754L65.5228 448.144H66.3208V458H65.1168V449.642L62.6108 450.804ZM68.2042 457.202C68.2042 456.81 68.5682 456.418 69.0722 456.418C69.5342 456.418 69.9122 456.81 69.9122 457.202C69.9122 457.65 69.5622 458.028 69.0722 458.028C68.5682 458.028 68.2042 457.65 68.2042 457.202ZM79.2177 452.918C79.2177 454.584 78.8257 455.872 78.0277 456.768C77.2297 457.678 76.1657 458.126 74.8357 458.126C73.2117 458.126 71.9377 457.44 71.3077 456.39L72.3157 455.69C72.8757 456.474 73.8977 456.922 75.0037 456.922C75.9137 456.922 76.6417 456.558 77.2157 455.83C77.7897 455.116 78.0277 454.22 77.9577 453.156C77.4957 454.22 76.3337 455.004 74.7797 455.004C73.6877 455.004 72.7917 454.696 72.0917 454.066C71.3777 453.45 71.0277 452.638 71.0277 451.644C71.0277 450.552 71.4057 449.684 72.1617 449.04C72.9177 448.396 73.9257 448.074 75.1717 448.074C77.6917 448.074 79.2177 449.838 79.2177 452.918ZM77.7477 451.602C77.5377 450.3 76.6417 449.278 75.0317 449.278C73.3517 449.278 72.3157 450.146 72.3157 451.602C72.3157 452.988 73.3657 453.8 75.0037 453.8C75.7457 453.8 76.3757 453.576 76.8657 453.128C77.3557 452.68 77.6497 452.176 77.7477 451.602Z" fill="#2A3C3C"/>
<path d="M61.4744 453.492H54.9784V452.442H61.4744V453.492ZM62.6108 450.804L62.1628 449.754L65.5228 448.144H66.3208V458H65.1168V449.642L62.6108 450.804ZM68.2042 457.202C68.2042 456.81 68.5682 456.418 69.0722 456.418C69.5342 456.418 69.9122 456.81 69.9122 457.202C69.9122 457.65 69.5622 458.028 69.0722 458.028C68.5682 458.028 68.2042 457.65 68.2042 457.202ZM79.2177 452.918C79.2177 454.584 78.8257 455.872 78.0277 456.768C77.2297 457.678 76.1657 458.126 74.8357 458.126C73.2117 458.126 71.9377 457.44 71.3077 456.39L72.3157 455.69C72.8757 456.474 73.8977 456.922 75.0037 456.922C75.9137 456.922 76.6417 456.558 77.2157 455.83C77.7897 455.116 78.0277 454.22 77.9577 453.156C77.4957 454.22 76.3337 455.004 74.7797 455.004C73.6877 455.004 72.7917 454.696 72.0917 454.066C71.3777 453.45 71.0277 452.638 71.0277 451.644C71.0277 450.552 71.4057 449.684 72.1617 449.04C72.9177 448.396 73.9257 448.074 75.1717 448.074C77.6917 448.074 79.2177 449.838 79.2177 452.918ZM77.7477 451.602C77.5377 450.3 76.6417 449.278 75.0317 449.278C73.3517 449.278 72.3157 450.146 72.3157 451.602C72.3157 452.988 73.3657 453.8 75.0037 453.8C75.7457 453.8 76.3757 453.576 76.8657 453.128C77.3557 452.68 77.6497 452.176 77.7477 451.602Z" fill="#1A3341"/>
<path d="M103.58 341H102.362V338.998H96.3702V338.186L102.502 331.2H103.58V337.864H105.4V338.998H103.58V341ZM102.362 333.16L98.0502 337.864H102.362V333.16ZM106.182 340.202C106.182 339.81 106.546 339.418 107.05 339.418C107.512 339.418 107.89 339.81 107.89 340.202C107.89 340.65 107.54 341.028 107.05 341.028C106.546 341.028 106.182 340.65 106.182 340.202ZM117.196 335.918C117.196 337.584 116.804 338.872 116.006 339.768C115.208 340.678 114.144 341.126 112.814 341.126C111.19 341.126 109.916 340.44 109.286 339.39L110.294 338.69C110.854 339.474 111.876 339.922 112.982 339.922C113.892 339.922 114.62 339.558 115.194 338.83C115.768 338.116 116.006 337.22 115.936 336.156C115.474 337.22 114.312 338.004 112.758 338.004C111.666 338.004 110.77 337.696 110.07 337.066C109.356 336.45 109.006 335.638 109.006 334.644C109.006 333.552 109.384 332.684 110.14 332.04C110.896 331.396 111.904 331.074 113.15 331.074C115.67 331.074 117.196 332.838 117.196 335.918ZM115.726 334.602C115.516 333.3 114.62 332.278 113.01 332.278C111.33 332.278 110.294 333.146 110.294 334.602C110.294 335.988 111.344 336.8 112.982 336.8C113.724 336.8 114.354 336.576 114.844 336.128C115.334 335.68 115.628 335.176 115.726 334.602Z" fill="#1A3341"/>
<path d="M91 353C91 351.895 91.8954 351 93 351H121C122.105 351 123 351.895 123 353V414H91V353Z" fill="url(#paint31_linear_7005_27933)"/>
<path opacity="0.2" d="M103 351H111V414H103V351Z" fill="url(#paint32_linear_7005_27933)"/>
<path opacity="0.04" d="M111 351H121C122.105 351 123 351.895 123 353V414H111V351Z" fill="#0D262C"/>
<path opacity="0.5" d="M91 353C91 351.895 91.8954 351 93 351H103V414H91V353Z" fill="url(#paint33_linear_7005_27933)"/>
<path d="M180.454 333.492L179.446 333.226L180.02 328.2H186.18V329.39H181.098L180.734 332.022C181.224 331.658 181.966 331.476 182.96 331.476C184.108 331.476 185.004 331.784 185.662 332.386C186.306 333.002 186.628 333.786 186.628 334.752C186.628 335.718 186.264 336.53 185.55 337.16C184.822 337.804 183.912 338.126 182.834 338.126C181 338.126 179.474 337.258 178.844 335.732L179.964 335.256C180.37 336.194 181.42 336.936 182.834 336.936C184.444 336.936 185.34 336.012 185.34 334.794C185.34 333.492 184.29 332.652 182.624 332.652C181.728 332.652 181 332.932 180.454 333.492ZM187.789 337.202C187.789 336.81 188.153 336.418 188.657 336.418C189.119 336.418 189.497 336.81 189.497 337.202C189.497 337.65 189.147 338.028 188.657 338.028C188.153 338.028 187.789 337.65 187.789 337.202ZM190.542 330.804L190.094 329.754L193.454 328.144H194.252V338H193.048V329.642L190.542 330.804Z" fill="#1A3341"/>
<path d="M171 350C171 348.895 171.895 348 173 348H201C202.105 348 203 348.895 203 350V414H171V350Z" fill="url(#paint34_linear_7005_27933)"/>
<path opacity="0.2" d="M183 348H191V414H183V348Z" fill="url(#paint35_linear_7005_27933)"/>
<path opacity="0.04" d="M191 348H201C202.105 348 203 348.895 203 350V414H191V348Z" fill="#0D262C"/>
<path opacity="0.5" d="M171 350C171 348.895 171.895 348 173 348H183V414H171V350Z" fill="url(#paint36_linear_7005_27933)"/>
<path d="M138.773 320.366C138.773 318.672 139.193 317.37 140.019 316.446C140.845 315.536 141.881 315.074 143.127 315.074C144.765 315.074 146.053 315.816 146.599 316.992L145.647 317.636C145.073 316.726 144.219 316.278 143.071 316.278C142.203 316.278 141.475 316.614 140.887 317.286C140.299 317.972 140.005 318.896 140.019 320.086C140.565 319.064 141.839 318.448 143.239 318.448C144.373 318.448 145.283 318.742 145.941 319.344C146.599 319.946 146.935 320.744 146.935 321.724C146.935 322.718 146.571 323.544 145.829 324.174C145.087 324.804 144.163 325.126 143.057 325.126C140.411 325.126 138.773 323.404 138.773 320.366ZM140.173 321.556C140.439 322.942 141.489 323.922 143.043 323.922C143.799 323.922 144.429 323.726 144.919 323.32C145.409 322.928 145.647 322.41 145.647 321.78C145.647 320.394 144.667 319.652 143.169 319.652C142.343 319.652 141.657 319.848 141.125 320.24C140.579 320.632 140.271 321.066 140.173 321.556ZM148.042 324.202C148.042 323.81 148.406 323.418 148.91 323.418C149.372 323.418 149.75 323.81 149.75 324.202C149.75 324.65 149.4 325.028 148.91 325.028C148.406 325.028 148.042 324.65 148.042 324.202ZM150.795 317.804L150.347 316.754L153.707 315.144H154.505V325H153.301V316.642L150.795 317.804Z" fill="#1A3341"/>
<path d="M131 337C131 335.895 131.895 335 133 335H161C162.105 335 163 335.895 163 337V414H131V337Z" fill="url(#paint37_linear_7005_27933)"/>
<path opacity="0.2" d="M143 335H151V414H143V335Z" fill="url(#paint38_linear_7005_27933)"/>
<path opacity="0.04" d="M151 335H161C162.105 335 163 335.895 163 337V414H151V335Z" fill="#0D262C"/>
<path opacity="0.5" d="M131 337C131 335.895 131.895 335 133 335H143V414H131V337Z" fill="url(#paint39_linear_7005_27933)"/>
<path d="M217.249 319.366C217.249 317.672 217.669 316.37 218.495 315.446C219.321 314.536 220.357 314.074 221.603 314.074C223.241 314.074 224.529 314.816 225.075 315.992L224.123 316.636C223.549 315.726 222.695 315.278 221.547 315.278C220.679 315.278 219.951 315.614 219.363 316.286C218.775 316.972 218.481 317.896 218.495 319.086C219.041 318.064 220.315 317.448 221.715 317.448C222.849 317.448 223.759 317.742 224.417 318.344C225.075 318.946 225.411 319.744 225.411 320.724C225.411 321.718 225.047 322.544 224.305 323.174C223.563 323.804 222.639 324.126 221.533 324.126C218.887 324.126 217.249 322.404 217.249 319.366ZM218.649 320.556C218.915 321.942 219.965 322.922 221.519 322.922C222.275 322.922 222.905 322.726 223.395 322.32C223.885 321.928 224.123 321.41 224.123 320.78C224.123 319.394 223.143 318.652 221.645 318.652C220.819 318.652 220.133 318.848 219.601 319.24C219.055 319.632 218.747 320.066 218.649 320.556ZM226.517 323.202C226.517 322.81 226.881 322.418 227.385 322.418C227.847 322.418 228.225 322.81 228.225 323.202C228.225 323.65 227.875 324.028 227.385 324.028C226.881 324.028 226.517 323.65 226.517 323.202ZM230.503 317.434L229.481 317.07C229.831 315.334 231.147 314.088 233.233 314.088C235.249 314.088 236.481 315.25 236.481 317.028C236.481 317.966 236.075 318.904 235.571 319.576C235.319 319.926 234.997 320.262 234.619 320.612C233.849 321.298 233.303 321.662 232.505 322.166L231.427 322.838H236.845V324H229.215V323.048L231.343 321.634C231.721 321.396 231.987 321.214 232.141 321.102C232.295 321.004 232.547 320.822 232.883 320.584C233.219 320.346 233.471 320.136 233.639 319.982C233.793 319.828 234.003 319.632 234.241 319.38C234.885 318.68 235.123 318.036 235.193 317.154C235.193 315.88 234.367 315.306 233.149 315.306C232.393 315.306 231.791 315.516 231.357 315.936C230.923 316.356 230.629 316.86 230.503 317.434Z" fill="#1A3341"/>
<path d="M211 336C211 334.895 211.895 334 213 334H241C242.105 334 243 334.895 243 336V414H211V336Z" fill="url(#paint40_linear_7005_27933)"/>
<path opacity="0.2" d="M223 334H231V414H223V334Z" fill="url(#paint41_linear_7005_27933)"/>
<path opacity="0.04" d="M231 334H241C242.105 334 243 334.895 243 336V414H231V334Z" fill="#0D262C"/>
<path opacity="0.5" d="M211 336C211 334.895 211.895 334 213 334H223V414H211V336Z" fill="url(#paint42_linear_7005_27933)"/>
<path d="M303.58 345H302.362V342.998H296.37V342.186L302.502 335.2H303.58V341.864H305.4V342.998H303.58V345ZM302.362 337.16L298.05 341.864H302.362V337.16ZM306.182 344.202C306.182 343.81 306.546 343.418 307.05 343.418C307.512 343.418 307.89 343.81 307.89 344.202C307.89 344.65 307.54 345.028 307.05 345.028C306.546 345.028 306.182 344.65 306.182 344.202ZM312.912 339.414H313.346C313.976 339.414 314.494 339.26 314.928 338.966C315.348 338.672 315.558 338.28 315.558 337.818C315.558 336.768 314.732 336.236 313.094 336.236C311.526 336.236 310.672 336.81 310.672 337.818C310.672 338.728 311.61 339.414 312.912 339.414ZM313.318 340.52H312.968C312.212 340.52 311.582 340.688 311.092 341.01C310.602 341.332 310.35 341.738 310.35 342.228C310.35 343.292 311.33 343.964 313.108 343.964C314.914 343.964 315.88 343.32 315.88 342.242C315.88 341.164 314.844 340.52 313.318 340.52ZM316.076 344.37C315.362 344.874 314.368 345.126 313.122 345.126C311.876 345.126 310.882 344.874 310.154 344.384C309.426 343.894 309.062 343.222 309.062 342.354C309.062 341.22 309.804 340.324 310.994 339.932C309.916 339.582 309.384 338.728 309.384 337.734C309.384 336.11 310.756 335.074 313.108 335.074C315.474 335.074 316.846 336.11 316.846 337.734C316.846 338.672 316.328 339.386 315.292 339.862C316.538 340.24 317.154 341.052 317.154 342.298C317.154 343.18 316.79 343.88 316.076 344.37Z" fill="#1A3341"/>
<path d="M291 357C291 355.895 291.895 355 293 355H321C322.105 355 323 355.895 323 357V414H291V357Z" fill="url(#paint43_linear_7005_27933)"/>
<path opacity="0.2" d="M303 355H311V414H303V355Z" fill="url(#paint44_linear_7005_27933)"/>
<path opacity="0.04" d="M311 355H321C322.105 355 323 355.895 323 357V414H311V355Z" fill="#0D262C"/>
<path opacity="0.5" d="M291 357C291 355.895 291.895 355 293 355H303V414H291V357Z" fill="url(#paint45_linear_7005_27933)"/>
<path d="M258.814 328.492L257.806 328.226L258.38 323.2H264.54V324.39H259.458L259.094 327.022C259.584 326.658 260.326 326.476 261.32 326.476C262.468 326.476 263.364 326.784 264.022 327.386C264.666 328.002 264.988 328.786 264.988 329.752C264.988 330.718 264.624 331.53 263.91 332.16C263.182 332.804 262.272 333.126 261.194 333.126C259.36 333.126 257.834 332.258 257.204 330.732L258.324 330.256C258.73 331.194 259.78 331.936 261.194 331.936C262.804 331.936 263.7 331.012 263.7 329.794C263.7 328.492 262.65 327.652 260.984 327.652C260.088 327.652 259.36 327.932 258.814 328.492ZM266.148 332.202C266.148 331.81 266.512 331.418 267.016 331.418C267.478 331.418 267.856 331.81 267.856 332.202C267.856 332.65 267.506 333.028 267.016 333.028C266.512 333.028 266.148 332.65 266.148 332.202ZM270.442 328.492L269.434 328.226L270.008 323.2H276.168V324.39H271.086L270.722 327.022C271.212 326.658 271.954 326.476 272.948 326.476C274.096 326.476 274.992 326.784 275.65 327.386C276.294 328.002 276.616 328.786 276.616 329.752C276.616 330.718 276.252 331.53 275.538 332.16C274.81 332.804 273.9 333.126 272.822 333.126C270.988 333.126 269.462 332.258 268.832 330.732L269.952 330.256C270.358 331.194 271.408 331.936 272.822 331.936C274.432 331.936 275.328 331.012 275.328 329.794C275.328 328.492 274.278 327.652 272.612 327.652C271.716 327.652 270.988 327.932 270.442 328.492Z" fill="#1A3341"/>
<path d="M251 345C251 343.895 251.895 343 253 343H281C282.105 343 283 343.895 283 345V414H251V345Z" fill="url(#paint46_linear_7005_27933)"/>
<path opacity="0.2" d="M263 343H271V414H263V343Z" fill="url(#paint47_linear_7005_27933)"/>
<path opacity="0.04" d="M271 343H281C282.105 343 283 343.895 283 345V414H271V343Z" fill="#0D262C"/>
<path opacity="0.5" d="M251 345C251 343.895 251.895 343 253 343H263V414H251V345Z" fill="url(#paint48_linear_7005_27933)"/>
<line x1="-4.37114e-08" y1="414.5" x2="335" y2="414.5" stroke="#ABBEC9"/>
<path d="M33.5271 490.372L32.6511 490.06C32.9511 488.572 34.0791 487.504 35.8671 487.504C37.5951 487.504 38.6511 488.5 38.6511 490.024C38.6511 490.828 38.3031 491.632 37.8711 492.208C37.6551 492.508 37.3791 492.796 37.0551 493.096C36.3951 493.684 35.9271 493.996 35.2431 494.428L34.3191 495.004H38.9631V496H32.4231V495.184L34.2471 493.972C34.5711 493.768 34.7991 493.612 34.9311 493.516C35.0631 493.432 35.2791 493.276 35.5671 493.072C35.8551 492.868 36.0711 492.688 36.2151 492.556C36.3471 492.424 36.5271 492.256 36.7311 492.04C37.2831 491.44 37.4871 490.888 37.5471 490.132C37.5471 489.04 36.8391 488.548 35.7951 488.548C35.1471 488.548 34.6311 488.728 34.2591 489.088C33.8871 489.448 33.6351 489.88 33.5271 490.372ZM39.7948 491.8C39.7948 490.504 40.0948 489.46 40.7068 488.68C41.3068 487.9 42.1948 487.504 43.3588 487.504C45.7468 487.504 46.9348 489.076 46.9348 491.8C46.9348 493.108 46.6348 494.14 46.0468 494.92C45.4468 495.7 44.5588 496.096 43.3828 496.096C42.2548 496.096 41.3788 495.7 40.7428 494.908C40.1068 494.116 39.7948 493.084 39.7948 491.8ZM40.8988 491.8C40.8988 493.852 41.8348 495.076 43.3828 495.076C45.0148 495.076 45.8308 493.984 45.8308 491.8C45.8308 489.616 45.0028 488.524 43.3588 488.524C41.6908 488.524 40.8988 489.724 40.8988 491.8ZM48.791 490.372L47.915 490.06C48.215 488.572 49.343 487.504 51.131 487.504C52.859 487.504 53.915 488.5 53.915 490.024C53.915 490.828 53.567 491.632 53.135 492.208C52.919 492.508 52.643 492.796 52.319 493.096C51.659 493.684 51.191 493.996 50.507 494.428L49.583 495.004H54.227V496H47.687V495.184L49.511 493.972C49.835 493.768 50.063 493.612 50.195 493.516C50.327 493.432 50.543 493.276 50.831 493.072C51.119 492.868 51.335 492.688 51.479 492.556C51.611 492.424 51.791 492.256 51.995 492.04C52.547 491.44 52.751 490.888 52.811 490.132C52.811 489.04 52.103 488.548 51.059 488.548C50.411 488.548 49.895 488.728 49.523 489.088C49.151 489.448 48.899 489.88 48.791 490.372ZM55.8867 490.048L54.9867 489.64C55.4307 488.344 56.5947 487.492 58.3347 487.492C59.1627 487.492 59.8467 487.684 60.3747 488.068C60.9027 488.452 61.1667 488.968 61.1667 489.604C61.1667 490.576 60.6507 491.296 59.6907 491.572C60.6147 491.632 61.3587 492.328 61.3587 493.576C61.3587 494.368 61.0707 494.992 60.4947 495.436C59.9187 495.88 59.1867 496.108 58.2867 496.108C56.4507 496.108 55.1787 495.232 54.7587 493.852L55.7307 493.432C56.2467 494.524 57.1227 495.076 58.3587 495.076C59.5227 495.076 60.2547 494.536 60.2547 493.588C60.2547 492.664 59.5347 492.196 58.0947 492.196H57.1587V491.2H57.9027C59.2107 491.2 60.0627 490.612 60.0627 489.808C60.0627 488.98 59.3787 488.512 58.2867 488.512C57.0027 488.512 56.2227 489.172 55.8867 490.048ZM40.4256 505.8C40.4256 504.588 40.8336 503.556 41.6616 502.728C42.4896 501.9 43.4976 501.492 44.6976 501.492C45.8856 501.492 46.8936 501.9 47.7216 502.716C48.5496 503.532 48.9576 504.564 48.9576 505.8C48.9576 506.988 48.5136 508.044 47.6256 508.944L48.4656 509.952L47.7216 510.576L46.8576 509.532C46.1736 509.916 45.4536 510.108 44.6976 510.108C43.4736 510.108 42.4536 509.7 41.6496 508.884C40.8336 508.08 40.4256 507.048 40.4256 505.8ZM41.5656 505.8C41.5656 506.748 41.8656 507.528 42.4656 508.14C43.0656 508.752 43.8096 509.064 44.6976 509.064C45.2376 509.064 45.7296 508.932 46.1976 508.656L45.4776 507.792L46.1736 507.18L46.9416 508.104C47.5296 507.492 47.8176 506.724 47.8176 505.8C47.8176 504.852 47.5176 504.072 46.9176 503.46C46.3176 502.848 45.5736 502.536 44.6976 502.536C43.8096 502.536 43.0656 502.836 42.4656 503.448C41.8656 504.06 41.5656 504.852 41.5656 505.8ZM49.692 503.832L49.308 502.932L52.188 501.552H52.872V510H51.84V502.836L49.692 503.832Z" fill="#76848D"/>
<path d="M119.119 505.8C119.119 504.588 119.527 503.556 120.355 502.728C121.183 501.9 122.191 501.492 123.391 501.492C124.579 501.492 125.587 501.9 126.415 502.716C127.243 503.532 127.651 504.564 127.651 505.8C127.651 506.988 127.207 508.044 126.319 508.944L127.159 509.952L126.415 510.576L125.551 509.532C124.867 509.916 124.147 510.108 123.391 510.108C122.167 510.108 121.147 509.7 120.343 508.884C119.527 508.08 119.119 507.048 119.119 505.8ZM120.259 505.8C120.259 506.748 120.559 507.528 121.159 508.14C121.759 508.752 122.503 509.064 123.391 509.064C123.931 509.064 124.423 508.932 124.891 508.656L124.171 507.792L124.867 507.18L125.635 508.104C126.223 507.492 126.511 506.724 126.511 505.8C126.511 504.852 126.211 504.072 125.611 503.46C125.011 502.848 124.267 502.536 123.391 502.536C122.503 502.536 121.759 502.836 121.159 503.448C120.559 504.06 120.259 504.852 120.259 505.8ZM129.441 504.372L128.565 504.06C128.865 502.572 129.993 501.504 131.781 501.504C133.509 501.504 134.565 502.5 134.565 504.024C134.565 504.828 134.217 505.632 133.785 506.208C133.569 506.508 133.293 506.796 132.969 507.096C132.309 507.684 131.841 507.996 131.157 508.428L130.233 509.004H134.877V510H128.337V509.184L130.161 507.972C130.485 507.768 130.713 507.612 130.845 507.516C130.977 507.432 131.193 507.276 131.481 507.072C131.769 506.868 131.985 506.688 132.129 506.556C132.261 506.424 132.441 506.256 132.645 506.04C133.197 505.44 133.401 504.888 133.461 504.132C133.461 503.04 132.753 502.548 131.709 502.548C131.061 502.548 130.545 502.728 130.173 503.088C129.801 503.448 129.549 503.88 129.441 504.372Z" fill="#76848D"/>
<path d="M199.09 505.8C199.09 504.588 199.498 503.556 200.326 502.728C201.154 501.9 202.162 501.492 203.362 501.492C204.55 501.492 205.558 501.9 206.386 502.716C207.214 503.532 207.622 504.564 207.622 505.8C207.622 506.988 207.178 508.044 206.29 508.944L207.13 509.952L206.386 510.576L205.522 509.532C204.838 509.916 204.118 510.108 203.362 510.108C202.138 510.108 201.118 509.7 200.314 508.884C199.498 508.08 199.09 507.048 199.09 505.8ZM200.23 505.8C200.23 506.748 200.53 507.528 201.13 508.14C201.73 508.752 202.474 509.064 203.362 509.064C203.902 509.064 204.394 508.932 204.862 508.656L204.142 507.792L204.838 507.18L205.606 508.104C206.194 507.492 206.482 506.724 206.482 505.8C206.482 504.852 206.182 504.072 205.582 503.46C204.982 502.848 204.238 502.536 203.362 502.536C202.474 502.536 201.73 502.836 201.13 503.448C200.53 504.06 200.23 504.852 200.23 505.8ZM209.28 504.048L208.38 503.64C208.824 502.344 209.988 501.492 211.728 501.492C212.556 501.492 213.24 501.684 213.768 502.068C214.296 502.452 214.56 502.968 214.56 503.604C214.56 504.576 214.044 505.296 213.084 505.572C214.008 505.632 214.752 506.328 214.752 507.576C214.752 508.368 214.464 508.992 213.888 509.436C213.312 509.88 212.58 510.108 211.68 510.108C209.844 510.108 208.572 509.232 208.152 507.852L209.124 507.432C209.64 508.524 210.516 509.076 211.752 509.076C212.916 509.076 213.648 508.536 213.648 507.588C213.648 506.664 212.928 506.196 211.488 506.196H210.552V505.2H211.296C212.604 505.2 213.456 504.612 213.456 503.808C213.456 502.98 212.772 502.512 211.68 502.512C210.396 502.512 209.616 503.172 209.28 504.048Z" fill="#76848D"/>
<path d="M278.762 505.8C278.762 504.588 279.17 503.556 279.998 502.728C280.826 501.9 281.834 501.492 283.034 501.492C284.222 501.492 285.23 501.9 286.058 502.716C286.886 503.532 287.294 504.564 287.294 505.8C287.294 506.988 286.85 508.044 285.962 508.944L286.802 509.952L286.058 510.576L285.194 509.532C284.51 509.916 283.79 510.108 283.034 510.108C281.81 510.108 280.79 509.7 279.986 508.884C279.17 508.08 278.762 507.048 278.762 505.8ZM279.902 505.8C279.902 506.748 280.202 507.528 280.802 508.14C281.402 508.752 282.146 509.064 283.034 509.064C283.574 509.064 284.066 508.932 284.534 508.656L283.814 507.792L284.51 507.18L285.278 508.104C285.866 507.492 286.154 506.724 286.154 505.8C286.154 504.852 285.854 504.072 285.254 503.46C284.654 502.848 283.91 502.536 283.034 502.536C282.146 502.536 281.402 502.836 280.802 503.448C280.202 504.06 279.902 504.852 279.902 505.8ZM293.92 510H292.876V508.284H287.74V507.588L292.996 501.6H293.92V507.312H295.48V508.284H293.92V510ZM292.876 503.28L289.18 507.312H292.876V503.28Z" fill="#76848D"/>
<defs>
<linearGradient id="paint0_linear_7005_27933" x1="0.476191" y1="12" x2="10" y2="12" gradientUnits="userSpaceOnUse">
<stop stop-color="#CEE8EF"/>
<stop offset="1" stop-color="#CEE8EF"/>
</linearGradient>
<linearGradient id="paint1_linear_7005_27933" x1="27" y1="56" x2="27" y2="94" gradientUnits="userSpaceOnUse">
<stop stop-color="#CDE3E9"/>
<stop offset="1" stop-color="#D3E8ED"/>
</linearGradient>
<linearGradient id="paint2_linear_7005_27933" x1="27" y1="56" x2="27" y2="94" gradientUnits="userSpaceOnUse">
<stop stop-color="white" stop-opacity="0"/>
<stop offset="0.739583" stop-color="white"/>
</linearGradient>
<linearGradient id="paint3_linear_7005_27933" x1="17" y1="-18.1" x2="17" y2="94" gradientUnits="userSpaceOnUse">
<stop stop-color="white" stop-opacity="0.05"/>
<stop offset="0.75" stop-color="white" stop-opacity="0.8"/>
</linearGradient>
<linearGradient id="paint4_linear_7005_27933" x1="67" y1="99" x2="67" y2="94" gradientUnits="userSpaceOnUse">
<stop stop-color="#6D73F9"/>
<stop offset="1" stop-color="#9BB8F1"/>
</linearGradient>
<linearGradient id="paint5_linear_7005_27933" x1="67" y1="99" x2="67" y2="94" gradientUnits="userSpaceOnUse">
<stop stop-color="white" stop-opacity="0"/>
<stop offset="0.739583" stop-color="white"/>
</linearGradient>
<linearGradient id="paint6_linear_7005_27933" x1="57" y1="108.75" x2="57" y2="94" gradientUnits="userSpaceOnUse">
<stop stop-color="white" stop-opacity="0.05"/>
<stop offset="0.75" stop-color="white" stop-opacity="0.8"/>
</linearGradient>
<linearGradient id="paint7_linear_7005_27933" x1="267" y1="130" x2="267" y2="94" gradientUnits="userSpaceOnUse">
<stop stop-color="#CDE3E9"/>
<stop offset="1" stop-color="#D3E8ED"/>
</linearGradient>
<linearGradient id="paint8_linear_7005_27933" x1="267" y1="130" x2="267" y2="94" gradientUnits="userSpaceOnUse">
<stop stop-color="white" stop-opacity="0"/>
<stop offset="0.739583" stop-color="white"/>
</linearGradient>
<linearGradient id="paint9_linear_7005_27933" x1="257" y1="200.2" x2="257" y2="94" gradientUnits="userSpaceOnUse">
<stop stop-color="white" stop-opacity="0.05"/>
<stop offset="0.75" stop-color="white" stop-opacity="0.8"/>
</linearGradient>
<linearGradient id="paint10_linear_7005_27933" x1="307" y1="153" x2="307" y2="94" gradientUnits="userSpaceOnUse">
<stop stop-color="#6D73F9"/>
<stop offset="1" stop-color="#9BB8F1"/>
</linearGradient>
<linearGradient id="paint11_linear_7005_27933" x1="307" y1="153" x2="307" y2="94" gradientUnits="userSpaceOnUse">
<stop stop-color="white" stop-opacity="0"/>
<stop offset="0.739583" stop-color="white"/>
</linearGradient>
<linearGradient id="paint12_linear_7005_27933" x1="297" y1="268.05" x2="297" y2="94" gradientUnits="userSpaceOnUse">
<stop stop-color="white" stop-opacity="0.05"/>
<stop offset="0.75" stop-color="white" stop-opacity="0.8"/>
</linearGradient>
<linearGradient id="paint13_linear_7005_27933" x1="107" y1="153" x2="107" y2="94" gradientUnits="userSpaceOnUse">
<stop stop-color="#CDE3E9"/>
<stop offset="1" stop-color="#D3E8ED"/>
</linearGradient>
<linearGradient id="paint14_linear_7005_27933" x1="107" y1="153" x2="107" y2="94" gradientUnits="userSpaceOnUse">
<stop stop-color="white" stop-opacity="0"/>
<stop offset="0.739583" stop-color="white"/>
</linearGradient>
<linearGradient id="paint15_linear_7005_27933" x1="97" y1="268.05" x2="97" y2="94" gradientUnits="userSpaceOnUse">
<stop stop-color="white" stop-opacity="0.05"/>
<stop offset="0.75" stop-color="white" stop-opacity="0.8"/>
</linearGradient>
<linearGradient id="paint16_linear_7005_27933" x1="147" y1="197" x2="147" y2="94" gradientUnits="userSpaceOnUse">
<stop stop-color="#6D73F9"/>
<stop offset="1" stop-color="#9BB8F1"/>
</linearGradient>
<linearGradient id="paint17_linear_7005_27933" x1="147" y1="197" x2="147" y2="94" gradientUnits="userSpaceOnUse">
<stop stop-color="white" stop-opacity="0"/>
<stop offset="0.739583" stop-color="white"/>
</linearGradient>
<linearGradient id="paint18_linear_7005_27933" x1="137" y1="397.85" x2="137" y2="94" gradientUnits="userSpaceOnUse">
<stop stop-color="white" stop-opacity="0.05"/>
<stop offset="0.75" stop-color="white" stop-opacity="0.8"/>
</linearGradient>
<linearGradient id="paint19_linear_7005_27933" x1="187" y1="140" x2="187" y2="94" gradientUnits="userSpaceOnUse">
<stop stop-color="#CDE3E9"/>
<stop offset="1" stop-color="#D3E8ED"/>
</linearGradient>
<linearGradient id="paint20_linear_7005_27933" x1="187" y1="140" x2="187" y2="94" gradientUnits="userSpaceOnUse">
<stop stop-color="white" stop-opacity="0"/>
<stop offset="0.739583" stop-color="white"/>
</linearGradient>
<linearGradient id="paint21_linear_7005_27933" x1="177" y1="229.7" x2="177" y2="94" gradientUnits="userSpaceOnUse">
<stop stop-color="white" stop-opacity="0.05"/>
<stop offset="0.75" stop-color="white" stop-opacity="0.8"/>
</linearGradient>
<linearGradient id="paint22_linear_7005_27933" x1="227" y1="163" x2="227" y2="94" gradientUnits="userSpaceOnUse">
<stop stop-color="#6D73F9"/>
<stop offset="1" stop-color="#9BB8F1"/>
</linearGradient>
<linearGradient id="paint23_linear_7005_27933" x1="227" y1="163" x2="227" y2="94" gradientUnits="userSpaceOnUse">
<stop stop-color="white" stop-opacity="0"/>
<stop offset="0.739583" stop-color="white"/>
</linearGradient>
<linearGradient id="paint24_linear_7005_27933" x1="217" y1="297.55" x2="217" y2="94" gradientUnits="userSpaceOnUse">
<stop stop-color="white" stop-opacity="0.05"/>
<stop offset="0.75" stop-color="white" stop-opacity="0.8"/>
</linearGradient>
<linearGradient id="paint25_linear_7005_27933" x1="27" y1="438" x2="27" y2="414" gradientUnits="userSpaceOnUse">
<stop stop-color="#CDE3E9"/>
<stop offset="1" stop-color="#D3E8ED"/>
</linearGradient>
<linearGradient id="paint26_linear_7005_27933" x1="27" y1="438" x2="27" y2="414" gradientUnits="userSpaceOnUse">
<stop stop-color="white" stop-opacity="0"/>
<stop offset="0.739583" stop-color="white"/>
</linearGradient>
<linearGradient id="paint27_linear_7005_27933" x1="17" y1="484.8" x2="17" y2="414" gradientUnits="userSpaceOnUse">
<stop stop-color="white" stop-opacity="0.05"/>
<stop offset="0.75" stop-color="white" stop-opacity="0.8"/>
</linearGradient>
<linearGradient id="paint28_linear_7005_27933" x1="67" y1="439" x2="67" y2="414" gradientUnits="userSpaceOnUse">
<stop stop-color="#6D73F9"/>
<stop offset="1" stop-color="#9BB8F1"/>
</linearGradient>
<linearGradient id="paint29_linear_7005_27933" x1="67" y1="439" x2="67" y2="414" gradientUnits="userSpaceOnUse">
<stop stop-color="white" stop-opacity="0"/>
<stop offset="0.739583" stop-color="white"/>
</linearGradient>
<linearGradient id="paint30_linear_7005_27933" x1="57" y1="487.75" x2="57" y2="414" gradientUnits="userSpaceOnUse">
<stop stop-color="white" stop-opacity="0.05"/>
<stop offset="0.75" stop-color="white" stop-opacity="0.8"/>
</linearGradient>
<linearGradient id="paint31_linear_7005_27933" x1="107" y1="351" x2="107" y2="414" gradientUnits="userSpaceOnUse">
<stop stop-color="#CDE3E9"/>
<stop offset="1" stop-color="#D3E8ED"/>
</linearGradient>
<linearGradient id="paint32_linear_7005_27933" x1="107" y1="351" x2="107" y2="414" gradientUnits="userSpaceOnUse">
<stop stop-color="white" stop-opacity="0"/>
<stop offset="0.739583" stop-color="white"/>
</linearGradient>
<linearGradient id="paint33_linear_7005_27933" x1="97" y1="228.15" x2="97" y2="414" gradientUnits="userSpaceOnUse">
<stop stop-color="white" stop-opacity="0.05"/>
<stop offset="0.75" stop-color="white" stop-opacity="0.8"/>
</linearGradient>
<linearGradient id="paint34_linear_7005_27933" x1="187" y1="348" x2="187" y2="414" gradientUnits="userSpaceOnUse">
<stop stop-color="#CDE3E9"/>
<stop offset="1" stop-color="#D3E8ED"/>
</linearGradient>
<linearGradient id="paint35_linear_7005_27933" x1="187" y1="348" x2="187" y2="414" gradientUnits="userSpaceOnUse">
<stop stop-color="white" stop-opacity="0"/>
<stop offset="0.739583" stop-color="white"/>
</linearGradient>
<linearGradient id="paint36_linear_7005_27933" x1="177" y1="219.3" x2="177" y2="414" gradientUnits="userSpaceOnUse">
<stop stop-color="white" stop-opacity="0.05"/>
<stop offset="0.75" stop-color="white" stop-opacity="0.8"/>
</linearGradient>
<linearGradient id="paint37_linear_7005_27933" x1="147" y1="335" x2="147" y2="414" gradientUnits="userSpaceOnUse">
<stop stop-color="#6D73F9"/>
<stop offset="1" stop-color="#9BB8F1"/>
</linearGradient>
<linearGradient id="paint38_linear_7005_27933" x1="147" y1="335" x2="147" y2="414" gradientUnits="userSpaceOnUse">
<stop stop-color="white" stop-opacity="0"/>
<stop offset="0.739583" stop-color="white"/>
</linearGradient>
<linearGradient id="paint39_linear_7005_27933" x1="137" y1="180.95" x2="137" y2="414" gradientUnits="userSpaceOnUse">
<stop stop-color="white" stop-opacity="0.05"/>
<stop offset="0.75" stop-color="white" stop-opacity="0.8"/>
</linearGradient>
<linearGradient id="paint40_linear_7005_27933" x1="227" y1="334" x2="227" y2="414" gradientUnits="userSpaceOnUse">
<stop stop-color="#6D73F9"/>
<stop offset="1" stop-color="#9BB8F1"/>
</linearGradient>
<linearGradient id="paint41_linear_7005_27933" x1="227" y1="334" x2="227" y2="414" gradientUnits="userSpaceOnUse">
<stop stop-color="white" stop-opacity="0"/>
<stop offset="0.739583" stop-color="white"/>
</linearGradient>
<linearGradient id="paint42_linear_7005_27933" x1="217" y1="178" x2="217" y2="414" gradientUnits="userSpaceOnUse">
<stop stop-color="white" stop-opacity="0.05"/>
<stop offset="0.75" stop-color="white" stop-opacity="0.8"/>
</linearGradient>
<linearGradient id="paint43_linear_7005_27933" x1="307" y1="355" x2="307" y2="414" gradientUnits="userSpaceOnUse">
<stop stop-color="#6D73F9"/>
<stop offset="1" stop-color="#9BB8F1"/>
</linearGradient>
<linearGradient id="paint44_linear_7005_27933" x1="307" y1="355" x2="307" y2="414" gradientUnits="userSpaceOnUse">
<stop stop-color="white" stop-opacity="0"/>
<stop offset="0.739583" stop-color="white"/>
</linearGradient>
<linearGradient id="paint45_linear_7005_27933" x1="297" y1="239.95" x2="297" y2="414" gradientUnits="userSpaceOnUse">
<stop stop-color="white" stop-opacity="0.05"/>
<stop offset="0.75" stop-color="white" stop-opacity="0.8"/>
</linearGradient>
<linearGradient id="paint46_linear_7005_27933" x1="267" y1="343" x2="267" y2="414" gradientUnits="userSpaceOnUse">
<stop stop-color="#CDE3E9"/>
<stop offset="1" stop-color="#D3E8ED"/>
</linearGradient>
<linearGradient id="paint47_linear_7005_27933" x1="267" y1="343" x2="267" y2="414" gradientUnits="userSpaceOnUse">
<stop stop-color="white" stop-opacity="0"/>
<stop offset="0.739583" stop-color="white"/>
</linearGradient>
<linearGradient id="paint48_linear_7005_27933" x1="257" y1="204.55" x2="257" y2="414" gradientUnits="userSpaceOnUse">
<stop stop-color="white" stop-opacity="0.05"/>
<stop offset="0.75" stop-color="white" stop-opacity="0.8"/>
</linearGradient>
</defs>
</svg>
