<svg width="280" height="846" viewBox="0 0 280 846" fill="none" xmlns="http://www.w3.org/2000/svg">
<rect y="2" width="10" height="10" fill="url(#paint0_linear_7005_27935)"/>
<path d="M20.724 3.448L21.468 3.076C21.972 3.688 22.488 4.528 22.704 5.08L21.924 5.512C21.708 4.948 21.204 4.072 20.724 3.448ZM29.184 9.4H24.768C25.668 11.152 27.3 12.448 29.484 12.988C29.268 13.192 28.98 13.564 28.86 13.828C26.736 13.216 25.164 11.908 24.18 10.072C23.64 11.452 22.332 12.832 19.272 13.9C19.14 13.696 18.864 13.312 18.624 13.132C21.816 12.04 22.956 10.684 23.34 9.4H18.864V8.524H23.52C23.532 8.284 23.544 8.068 23.544 7.84V6.388H19.584V5.512H25.2C25.668 4.792 26.208 3.76 26.52 3.004L27.468 3.34C27.072 4.048 26.592 4.864 26.16 5.512H28.536V6.388H24.54V7.852C24.54 8.08 24.528 8.296 24.516 8.524H29.184V9.4ZM32.772 12.16L33.948 11.368C34.008 11.584 34.128 11.896 34.212 12.052C32.364 13.336 32.076 13.552 31.908 13.768C31.812 13.588 31.572 13.276 31.428 13.12C31.632 12.964 32.028 12.544 32.028 11.992V9.652H30.66V8.848H32.028V7.228H31.116V6.472C31.032 6.58 30.96 6.676 30.876 6.76C30.78 6.604 30.528 6.244 30.372 6.076C31.044 5.284 31.596 4.12 31.908 2.932L32.688 3.136C32.58 3.52 32.436 3.928 32.292 4.3H34.032V5.116H31.932C31.692 5.596 31.428 6.052 31.14 6.436H33.984V7.228H32.772V8.848H34.092V9.652H32.772V12.16ZM36.18 7.132L36.624 7.192C36.504 8.896 36.264 10.24 35.88 11.32C36.864 12.7 38.256 12.988 39.756 13C40.044 13 41.148 13 41.532 12.988C41.424 13.18 41.304 13.528 41.268 13.744H39.72C38.064 13.744 36.624 13.42 35.568 12.052C35.136 12.892 34.608 13.516 33.948 13.984C33.84 13.792 33.648 13.504 33.492 13.36C34.152 12.928 34.692 12.268 35.088 11.332C34.776 10.78 34.524 10.072 34.308 9.232L34.92 8.992C35.052 9.544 35.208 10.024 35.4 10.456C35.604 9.724 35.76 8.872 35.856 7.9H34.608C34.5 7.972 34.416 8.056 34.416 8.116C34.356 7.948 34.164 7.636 34.056 7.492C34.248 7.456 34.536 7.132 34.716 6.76C34.884 6.472 35.34 5.512 35.688 4.492H34.248V3.664H35.94L36.204 3.544L36.708 3.88C36.3 5.056 35.796 6.244 35.292 7.156H36.048L36.18 7.132ZM40.152 7.18V6.208H39.06V7.18H40.152ZM39.06 4.576V5.512H40.152V4.576H39.06ZM40.812 5.512H41.532V6.208H40.812V7.828H39.06V8.74H41.004V9.436H39.06V10.42H41.268V11.128H39.06V12.592H38.34V11.128H36.588V10.42H38.34V9.436H36.9V8.74H38.34V7.828H36.936V7.18H38.34V6.208H36.636V5.512H38.34V4.576H36.936V3.916H38.34V3.004H39.06V3.916H40.812V5.512ZM46.008 4.348V6.556H48.3V7.372H46.008V8.248C46.548 8.668 47.916 9.844 48.264 10.156L47.748 10.888C47.388 10.492 46.62 9.724 46.008 9.16V13.888H45.144V8.716C44.52 10.084 43.68 11.44 42.864 12.256C42.756 12.016 42.528 11.644 42.372 11.428C43.332 10.516 44.376 8.86 44.964 7.372H42.636V6.556H45.144V4.528C44.364 4.672 43.572 4.792 42.828 4.9C42.792 4.684 42.66 4.384 42.552 4.192C44.304 3.928 46.392 3.52 47.508 3.028L48.168 3.712C47.568 3.952 46.812 4.168 46.008 4.348ZM49.968 4.384V10.948H49.104V4.384H49.968ZM52.032 3.196H52.92V12.724C52.92 13.336 52.752 13.612 52.38 13.768C51.984 13.9 51.312 13.924 50.22 13.924C50.172 13.684 50.04 13.276 49.896 13.024C50.736 13.048 51.492 13.048 51.72 13.036C51.936 13.036 52.032 12.964 52.032 12.736V3.196ZM62.652 9.436L61.944 9.748C61.884 9.556 61.764 9.34 61.62 9.112C58.5 9.412 58.08 9.472 57.84 9.592C57.792 9.424 57.672 9.028 57.576 8.812C57.852 8.776 58.152 8.548 58.572 8.224C58.8 8.032 59.316 7.564 59.892 6.976C58.512 7.084 58.248 7.144 58.068 7.216C58.032 7.048 57.912 6.652 57.816 6.46C57.996 6.436 58.164 6.292 58.344 6.076C58.5 5.92 58.908 5.428 59.268 4.852H54.9V4.036H59.784C59.628 3.736 59.412 3.376 59.232 3.1L60.096 2.872C60.36 3.22 60.648 3.7 60.804 4.036H65.256V4.852H60.204C59.844 5.38 59.448 5.896 59.064 6.316L60.588 6.22C60.864 5.908 61.152 5.572 61.392 5.224L62.124 5.644C61.176 6.748 60.132 7.804 59.1 8.632L61.2 8.464C61.008 8.2 60.804 7.924 60.612 7.696L61.272 7.42C61.812 8.032 62.412 8.872 62.652 9.436ZM65.112 9.268L64.452 9.796C63.96 9.328 62.94 8.608 62.1 8.116L62.736 7.636C63.54 8.092 64.584 8.776 65.112 9.268ZM63.912 5.308L64.656 5.764C64.116 6.316 63.42 6.892 62.868 7.264L62.22 6.844C62.76 6.46 63.504 5.8 63.912 5.308ZM55.068 5.836L55.668 5.344C56.304 5.728 57.096 6.292 57.492 6.7L56.868 7.24C56.496 6.832 55.716 6.232 55.068 5.836ZM57.66 7.612L57.84 8.272C56.928 8.764 55.956 9.28 55.164 9.676L54.72 8.956C55.464 8.656 56.58 8.128 57.66 7.612ZM65.352 10.564V11.392H60.468V13.924H59.532V11.392H54.66V10.564H59.532V9.58H60.468V10.564H65.352ZM67.884 14.284L67.62 13.648C68.544 13.264 69.072 12.7 69.132 11.884C69.06 11.896 69 11.896 68.928 11.896C68.436 11.896 68.028 11.608 68.028 11.044C68.028 10.48 68.448 10.18 68.94 10.18C69.6 10.18 69.96 10.72 69.96 11.56C69.96 12.856 69.144 13.84 67.884 14.284ZM89.052 4.972H81.204C80.616 5.92 79.956 6.784 79.308 7.432C79.116 7.288 78.744 7.036 78.516 6.904C79.62 5.944 80.652 4.408 81.276 2.896L82.152 3.148C81.996 3.484 81.84 3.832 81.66 4.168H89.052V4.972ZM84.768 11.572H86.736C86.784 11.08 86.832 10.444 86.88 9.628H81.132C81.036 10.324 80.928 10.996 80.832 11.572H84.54C84.036 11.104 83.16 10.516 82.392 10.12L82.896 9.628C83.712 10.012 84.696 10.636 85.176 11.128L84.768 11.572ZM86.988 6.976H81.492C81.408 7.588 81.324 8.224 81.228 8.86H84.828C84.36 8.428 83.472 7.852 82.692 7.516L83.196 7.012C83.976 7.348 84.9 7.9 85.38 8.332L84.864 8.86H86.916C86.94 8.296 86.964 7.684 86.988 6.976ZM89.46 9.652H87.756C87.708 10.432 87.672 11.068 87.612 11.572H89.052V12.364H87.516C87.42 12.964 87.3 13.288 87.168 13.48C86.94 13.768 86.688 13.876 86.328 13.912C85.98 13.936 85.38 13.924 84.792 13.888C84.78 13.684 84.684 13.384 84.564 13.18C85.176 13.228 85.728 13.24 85.956 13.228C86.172 13.228 86.28 13.204 86.4 13.06C86.484 12.964 86.568 12.736 86.64 12.364H80.268V12.352H79.788C79.92 11.632 80.088 10.66 80.244 9.652H78.552V8.836H80.364C80.484 7.912 80.616 6.988 80.7 6.184H87.876C87.876 6.184 87.864 6.508 87.864 6.616C87.84 7.456 87.804 8.188 87.78 8.836H89.46V9.652ZM93.468 10.312H96.156V7.936H93.468V10.312ZM101.4 10.312V11.176H97.056V13.924H96.156V11.176H90.612V10.312H92.58V7.096H96.156V5.272H93.24C92.7 6.196 92.064 7.012 91.416 7.636C91.248 7.492 90.876 7.192 90.648 7.072C91.776 6.088 92.784 4.54 93.348 2.932L94.248 3.148C94.08 3.568 93.888 4 93.696 4.408H100.848V5.272H97.056V7.096H100.572V7.936H97.056V10.312H101.4ZM108.202 13.18L107.41 12.724L113.614 4.336L114.37 4.888L108.202 13.18ZM106.114 6.616C106.114 6.016 106.318 5.524 106.738 5.14C107.158 4.756 107.674 4.564 108.31 4.564C108.934 4.564 109.45 4.756 109.87 5.14C110.29 5.524 110.494 6.016 110.494 6.616C110.494 7.204 110.29 7.696 109.87 8.08C109.45 8.464 108.934 8.656 108.31 8.656C107.674 8.656 107.158 8.464 106.738 8.08C106.318 7.696 106.114 7.204 106.114 6.616ZM107.122 6.616C107.122 7.3 107.674 7.804 108.31 7.804C108.97 7.804 109.486 7.324 109.486 6.616C109.486 5.908 108.946 5.428 108.31 5.428C107.65 5.428 107.122 5.908 107.122 6.616ZM111.886 12.472C111.466 12.088 111.262 11.596 111.262 10.996C111.262 10.396 111.466 9.904 111.886 9.52C112.306 9.148 112.822 8.956 113.458 8.956C114.082 8.956 114.598 9.148 115.018 9.52C115.438 9.904 115.642 10.396 115.642 10.996C115.642 11.584 115.438 12.076 115.018 12.46C114.598 12.856 114.082 13.048 113.458 13.048C112.822 13.048 112.306 12.856 111.886 12.472ZM112.27 10.996C112.27 11.68 112.822 12.184 113.458 12.184C114.118 12.184 114.634 11.704 114.634 10.996C114.634 10.288 114.094 9.808 113.458 9.808C112.798 9.808 112.27 10.288 112.27 10.996Z" fill="#76848D"/>
<rect y="26" width="10" height="10" fill="#737AF9"/>
<path d="M21.06 31.432V35.956H20.208V32.272H18.504V31.432H21.06ZM18.768 27.928L19.392 27.4C20.112 27.988 21.036 28.84 21.48 29.38L20.808 29.98C20.388 29.428 19.488 28.552 18.768 27.928ZM23.412 28.912L23.988 28.408C25.104 28.816 26.616 29.464 27.42 29.944L26.82 30.508C26.064 30.052 24.564 29.356 23.412 28.912ZM22.356 29.944H28.56V30.64H23.208V36.16H22.356V29.944ZM28.128 29.944H28.992V35.26C28.992 35.704 28.908 35.908 28.584 36.04C28.272 36.184 27.768 36.184 26.964 36.184C26.928 35.956 26.82 35.644 26.712 35.44C27.276 35.464 27.78 35.452 27.936 35.452C28.092 35.452 28.128 35.404 28.128 35.248V29.944ZM22.356 27.364H28.344V28.084H22.356V27.364ZM22.824 31.696H28.476V32.368H22.824V31.696ZM22.824 33.46H28.476V34.156H22.824V33.46ZM25.224 30.232H26.04V36.112H25.224V30.232ZM28.044 27.364H28.248L28.44 27.316L28.992 27.748C28.2 28.516 26.988 29.296 25.908 29.776C25.8 29.608 25.572 29.368 25.428 29.236C26.4 28.84 27.504 28.108 28.044 27.532V27.364ZM20.652 35.596C21.036 35.596 21.324 35.908 21.996 36.34C22.8 36.832 23.808 36.916 25.152 36.916C26.568 36.916 28.38 36.82 29.616 36.688C29.52 36.916 29.388 37.324 29.364 37.576C28.536 37.624 26.424 37.696 25.14 37.696C23.652 37.696 22.644 37.552 21.804 37.036C21.324 36.748 20.916 36.34 20.64 36.34C20.232 36.34 19.632 37.036 19.032 37.84L18.456 37.096C19.248 36.244 20.04 35.596 20.652 35.596ZM35.496 33.328H36.444V34.384C36.444 35.584 35.88 37.036 31.32 37.948C31.212 37.768 30.96 37.42 30.756 37.228C35.136 36.436 35.496 35.26 35.496 34.36V33.328ZM36.324 36.196L36.816 35.56C38.28 35.98 40.236 36.7 41.28 37.252L40.776 37.96C39.78 37.408 37.836 36.652 36.324 36.196ZM32.316 32.008H39.864V35.74H38.916V32.848H33.216V35.812H32.316V32.008ZM40.464 27.316L41.076 27.952C39.48 28.768 36.948 29.38 34.716 29.8C34.668 29.62 34.548 29.332 34.452 29.152C36.636 28.72 39.12 28.072 40.464 27.316ZM36.252 26.98H37.152V30.088C37.152 30.436 37.248 30.496 37.848 30.496C38.124 30.496 39.552 30.496 39.912 30.496C40.392 30.496 40.476 30.34 40.536 29.284C40.728 29.416 41.088 29.548 41.328 29.596C41.232 30.94 40.968 31.288 39.984 31.288C39.72 31.288 38.028 31.288 37.776 31.288C36.564 31.288 36.252 31.048 36.252 30.1V26.98ZM33.948 26.872L34.752 27.172C33.84 28.36 32.4 29.452 31.128 30.16C30.984 29.992 30.672 29.668 30.456 29.512C31.764 28.9 33.132 27.916 33.948 26.872ZM32.724 28.576L33.372 27.928L33.636 28V31.516H32.724V28.576ZM43.512 27.364H45.636V28.192H43.512V27.364ZM43.464 30.184H45.708V31.012H43.464V30.184ZM43.44 33.064H45.72V33.904H43.44V33.064ZM43.104 27.364H43.848V31.624C43.848 33.472 43.728 36.16 42.888 37.96C42.756 37.804 42.444 37.528 42.288 37.432C43.044 35.752 43.104 33.364 43.104 31.624V27.364ZM45.216 27.364H45.948V36.82C45.948 37.252 45.864 37.492 45.576 37.636C45.3 37.768 44.856 37.78 44.112 37.78C44.076 37.576 43.98 37.228 43.872 37.024C44.412 37.036 44.88 37.036 45.024 37.036C45.168 37.024 45.216 36.964 45.216 36.808V27.364ZM46.224 36.496C47.304 36.316 48.972 35.968 50.592 35.644L50.664 36.364C49.164 36.7 47.592 37.036 46.428 37.288L46.224 36.496ZM46.8 34.264L47.436 34.048C47.712 34.564 47.964 35.26 48.06 35.716L47.376 35.968C47.292 35.5 47.052 34.792 46.8 34.264ZM46.248 28.06H50.616V28.804H46.248V28.06ZM46.512 29.8H50.34V30.532H46.512V29.8ZM48 26.932H48.804V30.184H48V26.932ZM47.388 31.924V33.112H49.392V31.924H47.388ZM46.632 31.264H50.172V33.772H46.632V31.264ZM52.416 27.16L53.196 27.424C52.68 28.54 51.852 29.68 51.012 30.412C50.856 30.22 50.604 29.992 50.388 29.848C51.144 29.212 51.972 28.144 52.416 27.16ZM52.476 30.484L53.28 30.748C52.752 31.936 51.9 33.1 50.988 33.844C50.832 33.652 50.592 33.412 50.364 33.256C51.192 32.62 52.044 31.528 52.476 30.484ZM52.644 33.964L53.436 34.204C52.872 35.776 51.828 37.168 50.484 38.02C50.352 37.816 50.1 37.552 49.896 37.384C51.132 36.664 52.14 35.368 52.644 33.964ZM49.2 33.988L50.028 34.216C49.704 34.984 49.332 35.92 49.032 36.508L48.408 36.292C48.684 35.68 49.032 34.672 49.2 33.988ZM55.596 27.364H58.032V28.192H55.596V27.364ZM55.548 30.184H57.888V31.012H55.548V30.184ZM55.536 33.064H57.9V33.904H55.536V33.064ZM55.2 27.364H55.98V31.672C55.98 33.532 55.872 36.184 55.08 37.96C54.924 37.816 54.576 37.624 54.372 37.552C55.14 35.86 55.2 33.448 55.2 31.672V27.364ZM57.54 27.364H58.356V36.832C58.356 37.288 58.26 37.552 57.972 37.708C57.66 37.852 57.216 37.864 56.448 37.864C56.424 37.636 56.304 37.252 56.196 37.024C56.724 37.036 57.18 37.036 57.336 37.036C57.48 37.024 57.54 36.964 57.54 36.808V27.364ZM58.608 31.6H65.376V32.476H58.608V31.6ZM62.64 32.08C63.12 34.216 64.128 36.112 65.58 37.012C65.376 37.168 65.1 37.48 64.968 37.72C63.432 36.64 62.4 34.624 61.86 32.272L62.64 32.08ZM59.712 38.032C59.652 37.804 59.472 37.42 59.316 37.228C59.544 37.12 59.868 36.892 59.868 36.412V27.16H60.792V37.168C60.792 37.168 59.712 37.684 59.712 38.032ZM64.092 27.448L64.968 27.724C64.212 29.104 63 30.412 61.848 31.252C61.704 31.084 61.356 30.724 61.152 30.568C62.304 29.824 63.42 28.672 64.092 27.448ZM59.712 38.032L59.616 37.228L59.976 36.868L62.724 35.872C62.724 36.136 62.748 36.496 62.796 36.688C60.288 37.708 59.916 37.852 59.712 38.032ZM71.52 33.592H72.468V37.96H71.52V33.592ZM66.612 34.588H77.388V35.428H66.612V34.588ZM66.852 28.012H77.292V28.828H66.852V28.012ZM75.936 29.284L76.692 29.74C76.152 30.304 75.456 30.88 74.892 31.264L74.232 30.832C74.772 30.436 75.528 29.764 75.936 29.284ZM72.612 31.696L73.272 31.408C73.824 32.032 74.424 32.884 74.676 33.448L73.956 33.76C73.728 33.208 73.152 32.32 72.612 31.696ZM66.672 32.956C67.416 32.644 68.544 32.116 69.636 31.6L69.816 32.272C68.892 32.776 67.92 33.292 67.116 33.688L66.672 32.956ZM67.02 29.824L67.632 29.332C68.268 29.704 69.072 30.28 69.48 30.676L68.832 31.228C68.46 30.832 67.668 30.22 67.02 29.824ZM74.112 32.116L74.76 31.624C75.564 32.092 76.62 32.788 77.16 33.28L76.488 33.82C75.984 33.34 74.952 32.608 74.112 32.116ZM70.056 31.204C70.008 31.036 69.888 30.652 69.792 30.448C69.96 30.412 70.14 30.268 70.332 30.052C70.524 29.848 71.196 29.02 71.604 28.228L72.384 28.54C71.856 29.392 71.184 30.22 70.572 30.772V30.796C70.572 30.796 70.056 31.024 70.056 31.204ZM70.056 31.204L70.044 30.58L70.488 30.328L72.828 30.184C72.768 30.4 72.696 30.724 72.672 30.916C70.596 31.06 70.248 31.12 70.056 31.204ZM69.816 33.604C69.768 33.436 69.648 33.04 69.552 32.824C69.828 32.788 70.14 32.548 70.536 32.212C70.992 31.864 72.42 30.532 73.416 29.2L74.136 29.62C72.972 31 71.64 32.284 70.356 33.184V33.208C70.356 33.208 69.816 33.436 69.816 33.604ZM69.816 33.604L69.792 32.98L70.26 32.704L73.932 32.404C73.908 32.62 73.896 32.932 73.92 33.1C70.5 33.424 70.08 33.496 69.816 33.604ZM71.208 27.064L72.096 26.836C72.396 27.244 72.72 27.784 72.876 28.144L71.964 28.432C71.832 28.06 71.496 27.484 71.208 27.064ZM79.884 38.284L79.608 37.66C80.592 37.252 81.132 36.64 81.132 35.74L80.904 34.72L81.552 35.632C81.384 35.848 81.144 35.908 80.916 35.908C80.424 35.908 80.016 35.62 80.016 35.044C80.016 34.48 80.448 34.18 80.928 34.18C81.6 34.18 81.96 34.732 81.96 35.572C81.96 36.868 81.144 37.852 79.884 38.284ZM93.324 26.884L94.224 27.112C93.564 28.888 92.496 30.556 91.38 31.636C91.2 31.48 90.828 31.18 90.6 31.06C91.74 30.064 92.736 28.504 93.324 26.884ZM93.132 28.372H100.872V29.248H92.7L93.132 28.372ZM92.544 31.096H100.608V31.936H93.444V34.78H92.544V31.096ZM90.564 34.324H101.436V35.2H90.564V34.324ZM96.144 28.828H97.068V37.972H96.144V28.828ZM104.964 29.656H111.072V30.448H104.964V29.656ZM105.576 31.708H106.416V36.4H105.576V31.708ZM106.032 31.708H110.424V35.524H106.032V34.744H109.584V32.464H106.032V31.708ZM103.044 27.544H112.632V28.408H103.92V37.984H103.044V27.544ZM112.08 27.544H112.968V36.82C112.968 37.384 112.824 37.66 112.452 37.804C112.092 37.96 111.492 37.984 110.448 37.972C110.412 37.732 110.268 37.336 110.124 37.096C110.88 37.12 111.588 37.12 111.792 37.108C112.008 37.096 112.08 37.024 112.08 36.82V27.544ZM116.136 30.64H119.472V31.528H116.136V30.64ZM124.38 29.14L125.136 29.92C124.032 30.856 122.52 31.816 121.14 32.596C121.056 32.38 120.852 32.08 120.708 31.9C122.028 31.156 123.504 30.028 124.38 29.14ZM120.396 26.98H121.332V35.992C121.332 36.676 121.428 36.796 121.98 36.796C122.22 36.796 123.36 36.796 123.66 36.796C124.272 36.796 124.344 36.232 124.428 34C124.668 34.18 125.04 34.36 125.292 34.432C125.184 36.82 124.956 37.66 123.732 37.66C123.492 37.66 122.112 37.66 121.884 37.66C120.72 37.66 120.396 37.3 120.396 35.956V26.98ZM115.5 37.876C115.428 37.648 115.2 37.264 115.056 37.096C115.26 36.964 115.536 36.688 115.536 36.172V27.052H116.484V36.892C116.484 36.892 115.5 37.516 115.5 37.876ZM115.5 37.876L115.38 36.976L115.824 36.616L119.448 35.5C119.424 35.776 119.46 36.184 119.496 36.4C116.22 37.468 115.764 37.66 115.5 37.876Z" fill="#76848D"/>
<rect y="50" width="10" height="10" fill="#7BC3F8"/>
<path d="M21.06 55.432V59.956H20.208V56.272H18.504V55.432H21.06ZM18.768 51.928L19.392 51.4C20.112 51.988 21.036 52.84 21.48 53.38L20.808 53.98C20.388 53.428 19.488 52.552 18.768 51.928ZM23.412 52.912L23.988 52.408C25.104 52.816 26.616 53.464 27.42 53.944L26.82 54.508C26.064 54.052 24.564 53.356 23.412 52.912ZM22.356 53.944H28.56V54.64H23.208V60.16H22.356V53.944ZM28.128 53.944H28.992V59.26C28.992 59.704 28.908 59.908 28.584 60.04C28.272 60.184 27.768 60.184 26.964 60.184C26.928 59.956 26.82 59.644 26.712 59.44C27.276 59.464 27.78 59.452 27.936 59.452C28.092 59.452 28.128 59.404 28.128 59.248V53.944ZM22.356 51.364H28.344V52.084H22.356V51.364ZM22.824 55.696H28.476V56.368H22.824V55.696ZM22.824 57.46H28.476V58.156H22.824V57.46ZM25.224 54.232H26.04V60.112H25.224V54.232ZM28.044 51.364H28.248L28.44 51.316L28.992 51.748C28.2 52.516 26.988 53.296 25.908 53.776C25.8 53.608 25.572 53.368 25.428 53.236C26.4 52.84 27.504 52.108 28.044 51.532V51.364ZM20.652 59.596C21.036 59.596 21.324 59.908 21.996 60.34C22.8 60.832 23.808 60.916 25.152 60.916C26.568 60.916 28.38 60.82 29.616 60.688C29.52 60.916 29.388 61.324 29.364 61.576C28.536 61.624 26.424 61.696 25.14 61.696C23.652 61.696 22.644 61.552 21.804 61.036C21.324 60.748 20.916 60.34 20.64 60.34C20.232 60.34 19.632 61.036 19.032 61.84L18.456 61.096C19.248 60.244 20.04 59.596 20.652 59.596ZM35.496 57.328H36.444V58.384C36.444 59.584 35.88 61.036 31.32 61.948C31.212 61.768 30.96 61.42 30.756 61.228C35.136 60.436 35.496 59.26 35.496 58.36V57.328ZM36.324 60.196L36.816 59.56C38.28 59.98 40.236 60.7 41.28 61.252L40.776 61.96C39.78 61.408 37.836 60.652 36.324 60.196ZM32.316 56.008H39.864V59.74H38.916V56.848H33.216V59.812H32.316V56.008ZM40.464 51.316L41.076 51.952C39.48 52.768 36.948 53.38 34.716 53.8C34.668 53.62 34.548 53.332 34.452 53.152C36.636 52.72 39.12 52.072 40.464 51.316ZM36.252 50.98H37.152V54.088C37.152 54.436 37.248 54.496 37.848 54.496C38.124 54.496 39.552 54.496 39.912 54.496C40.392 54.496 40.476 54.34 40.536 53.284C40.728 53.416 41.088 53.548 41.328 53.596C41.232 54.94 40.968 55.288 39.984 55.288C39.72 55.288 38.028 55.288 37.776 55.288C36.564 55.288 36.252 55.048 36.252 54.1V50.98ZM33.948 50.872L34.752 51.172C33.84 52.36 32.4 53.452 31.128 54.16C30.984 53.992 30.672 53.668 30.456 53.512C31.764 52.9 33.132 51.916 33.948 50.872ZM32.724 52.576L33.372 51.928L33.636 52V55.516H32.724V52.576ZM43.512 51.364H45.636V52.192H43.512V51.364ZM43.464 54.184H45.708V55.012H43.464V54.184ZM43.44 57.064H45.72V57.904H43.44V57.064ZM43.104 51.364H43.848V55.624C43.848 57.472 43.728 60.16 42.888 61.96C42.756 61.804 42.444 61.528 42.288 61.432C43.044 59.752 43.104 57.364 43.104 55.624V51.364ZM45.216 51.364H45.948V60.82C45.948 61.252 45.864 61.492 45.576 61.636C45.3 61.768 44.856 61.78 44.112 61.78C44.076 61.576 43.98 61.228 43.872 61.024C44.412 61.036 44.88 61.036 45.024 61.036C45.168 61.024 45.216 60.964 45.216 60.808V51.364ZM46.224 60.496C47.304 60.316 48.972 59.968 50.592 59.644L50.664 60.364C49.164 60.7 47.592 61.036 46.428 61.288L46.224 60.496ZM46.8 58.264L47.436 58.048C47.712 58.564 47.964 59.26 48.06 59.716L47.376 59.968C47.292 59.5 47.052 58.792 46.8 58.264ZM46.248 52.06H50.616V52.804H46.248V52.06ZM46.512 53.8H50.34V54.532H46.512V53.8ZM48 50.932H48.804V54.184H48V50.932ZM47.388 55.924V57.112H49.392V55.924H47.388ZM46.632 55.264H50.172V57.772H46.632V55.264ZM52.416 51.16L53.196 51.424C52.68 52.54 51.852 53.68 51.012 54.412C50.856 54.22 50.604 53.992 50.388 53.848C51.144 53.212 51.972 52.144 52.416 51.16ZM52.476 54.484L53.28 54.748C52.752 55.936 51.9 57.1 50.988 57.844C50.832 57.652 50.592 57.412 50.364 57.256C51.192 56.62 52.044 55.528 52.476 54.484ZM52.644 57.964L53.436 58.204C52.872 59.776 51.828 61.168 50.484 62.02C50.352 61.816 50.1 61.552 49.896 61.384C51.132 60.664 52.14 59.368 52.644 57.964ZM49.2 57.988L50.028 58.216C49.704 58.984 49.332 59.92 49.032 60.508L48.408 60.292C48.684 59.68 49.032 58.672 49.2 57.988ZM55.596 51.364H58.032V52.192H55.596V51.364ZM55.548 54.184H57.888V55.012H55.548V54.184ZM55.536 57.064H57.9V57.904H55.536V57.064ZM55.2 51.364H55.98V55.672C55.98 57.532 55.872 60.184 55.08 61.96C54.924 61.816 54.576 61.624 54.372 61.552C55.14 59.86 55.2 57.448 55.2 55.672V51.364ZM57.54 51.364H58.356V60.832C58.356 61.288 58.26 61.552 57.972 61.708C57.66 61.852 57.216 61.864 56.448 61.864C56.424 61.636 56.304 61.252 56.196 61.024C56.724 61.036 57.18 61.036 57.336 61.036C57.48 61.024 57.54 60.964 57.54 60.808V51.364ZM58.608 55.6H65.376V56.476H58.608V55.6ZM62.64 56.08C63.12 58.216 64.128 60.112 65.58 61.012C65.376 61.168 65.1 61.48 64.968 61.72C63.432 60.64 62.4 58.624 61.86 56.272L62.64 56.08ZM59.712 62.032C59.652 61.804 59.472 61.42 59.316 61.228C59.544 61.12 59.868 60.892 59.868 60.412V51.16H60.792V61.168C60.792 61.168 59.712 61.684 59.712 62.032ZM64.092 51.448L64.968 51.724C64.212 53.104 63 54.412 61.848 55.252C61.704 55.084 61.356 54.724 61.152 54.568C62.304 53.824 63.42 52.672 64.092 51.448ZM59.712 62.032L59.616 61.228L59.976 60.868L62.724 59.872C62.724 60.136 62.748 60.496 62.796 60.688C60.288 61.708 59.916 61.852 59.712 62.032ZM68.508 54.508H75.456V55.36H68.508V54.508ZM68.508 57.352H75.456V58.204H68.508V57.352ZM68.508 60.208H75.456V61.084H68.508V60.208ZM67.884 51.664H76.032V61.9H75.096V52.552H68.784V61.9H67.884V51.664ZM83.58 51.844H88.824V52.684H83.58V51.844ZM83.064 54.712H89.46V55.552H83.064V54.712ZM85.62 55.12H86.532V60.808C86.532 61.324 86.436 61.588 86.088 61.744C85.728 61.9 85.176 61.912 84.336 61.912C84.3 61.648 84.18 61.264 84.06 60.988C84.672 61.012 85.236 61.012 85.404 61C85.572 60.988 85.62 60.952 85.62 60.796V55.12ZM87.348 57.112L88.116 56.872C88.692 58.036 89.28 59.56 89.484 60.508L88.656 60.808C88.464 59.86 87.912 58.3 87.348 57.112ZM83.892 56.896L84.708 57.088C84.348 58.468 83.736 59.872 83.088 60.796C82.932 60.664 82.56 60.424 82.368 60.316C83.028 59.464 83.568 58.168 83.892 56.896ZM78.588 53.464H82.884V54.316H78.588V53.464ZM80.424 50.92H81.312V61.948H80.424V50.92ZM80.304 53.968L80.916 54.16C80.52 55.936 79.68 58.144 78.78 59.272C78.684 59.032 78.444 58.648 78.276 58.432C79.116 57.448 79.944 55.528 80.304 53.968ZM81.252 54.568C81.54 54.88 82.692 56.344 82.944 56.68L82.404 57.4C82.104 56.824 81.156 55.42 80.796 54.976L81.252 54.568Z" fill="#76848D"/>
<path d="M129.333 89C130.254 89 131 89.7462 131 90.6667V111.333C131 112.254 130.254 113 129.333 113H46V89H129.333Z" fill="#CDD3FB"/>
<path d="M143.328 99.712H143.7C144.24 99.712 144.684 99.58 145.056 99.328C145.416 99.076 145.596 98.74 145.596 98.344C145.596 97.444 144.888 96.988 143.484 96.988C142.14 96.988 141.408 97.48 141.408 98.344C141.408 99.124 142.212 99.712 143.328 99.712ZM143.676 100.66H143.376C142.728 100.66 142.188 100.804 141.768 101.08C141.348 101.356 141.132 101.704 141.132 102.124C141.132 103.036 141.972 103.612 143.496 103.612C145.044 103.612 145.872 103.06 145.872 102.136C145.872 101.212 144.984 100.66 143.676 100.66ZM146.04 103.96C145.428 104.392 144.576 104.608 143.508 104.608C142.44 104.608 141.588 104.392 140.964 103.972C140.34 103.552 140.028 102.976 140.028 102.232C140.028 101.26 140.664 100.492 141.684 100.156C140.76 99.856 140.304 99.124 140.304 98.272C140.304 96.88 141.48 95.992 143.496 95.992C145.524 95.992 146.7 96.88 146.7 98.272C146.7 99.076 146.256 99.688 145.368 100.096C146.436 100.42 146.964 101.116 146.964 102.184C146.964 102.94 146.652 103.54 146.04 103.96ZM147.984 103.816C147.984 103.48 148.296 103.144 148.728 103.144C149.124 103.144 149.448 103.48 149.448 103.816C149.448 104.2 149.148 104.524 148.728 104.524C148.296 104.524 147.984 104.2 147.984 103.816ZM151.664 100.636L150.8 100.408L151.292 96.1H156.572V97.12H152.216L151.904 99.376C152.324 99.064 152.96 98.908 153.812 98.908C154.796 98.908 155.564 99.172 156.128 99.688C156.68 100.216 156.956 100.888 156.956 101.716C156.956 102.544 156.644 103.24 156.032 103.78C155.408 104.332 154.628 104.608 153.704 104.608C152.132 104.608 150.824 103.864 150.284 102.556L151.244 102.148C151.592 102.952 152.492 103.588 153.704 103.588C155.084 103.588 155.852 102.796 155.852 101.752C155.852 100.636 154.952 99.916 153.524 99.916C152.756 99.916 152.132 100.156 151.664 100.636Z" fill="#1A3341"/>
<path d="M129.333 89C130.254 89 131 89.7462 131 90.6667V111.333C131 112.254 130.254 113 129.333 113H46V89H129.333Z" fill="#CDD3FB"/>
<path opacity="0.2" d="M131 99V103H46.0002V99H131Z" fill="#CDD3FB"/>
<path opacity="0.5" d="M129.333 89C130.254 89 131 89.7462 131 90.6667V99H46V89H129.333Z" fill="#CDD3FB"/>
<path d="M244.333 121C245.254 121 246 121.746 246 122.667V142.333C246 143.254 245.254 144 244.333 144H46V121L244.333 121Z" fill="#CDD3FB"/>
<path d="M255.976 130.872L255.1 130.56C255.4 129.072 256.528 128.004 258.316 128.004C260.044 128.004 261.1 129 261.1 130.524C261.1 131.328 260.752 132.132 260.32 132.708C260.104 133.008 259.828 133.296 259.504 133.596C258.844 134.184 258.376 134.496 257.692 134.928L256.768 135.504H261.412V136.5H254.872V135.684L256.696 134.472C257.02 134.268 257.248 134.112 257.38 134.016C257.512 133.932 257.728 133.776 258.016 133.572C258.304 133.368 258.52 133.188 258.664 133.056C258.796 132.924 258.976 132.756 259.18 132.54C259.732 131.94 259.936 131.388 259.996 130.632C259.996 129.54 259.288 129.048 258.244 129.048C257.596 129.048 257.08 129.228 256.708 129.588C256.336 129.948 256.084 130.38 255.976 130.872ZM262.244 132.3C262.244 131.004 262.544 129.96 263.156 129.18C263.756 128.4 264.644 128.004 265.808 128.004C268.196 128.004 269.384 129.576 269.384 132.3C269.384 133.608 269.084 134.64 268.496 135.42C267.896 136.2 267.008 136.596 265.832 136.596C264.704 136.596 263.828 136.2 263.192 135.408C262.556 134.616 262.244 133.584 262.244 132.3ZM263.348 132.3C263.348 134.352 264.284 135.576 265.832 135.576C267.464 135.576 268.28 134.484 268.28 132.3C268.28 130.116 267.452 129.024 265.808 129.024C264.14 129.024 263.348 130.224 263.348 132.3ZM270.364 135.816C270.364 135.48 270.676 135.144 271.108 135.144C271.504 135.144 271.828 135.48 271.828 135.816C271.828 136.2 271.528 136.524 271.108 136.524C270.676 136.524 270.364 136.2 270.364 135.816ZM272.82 132.3C272.82 131.004 273.12 129.96 273.732 129.18C274.332 128.4 275.22 128.004 276.384 128.004C278.772 128.004 279.96 129.576 279.96 132.3C279.96 133.608 279.66 134.64 279.072 135.42C278.472 136.2 277.584 136.596 276.408 136.596C275.28 136.596 274.404 136.2 273.768 135.408C273.132 134.616 272.82 133.584 272.82 132.3ZM273.924 132.3C273.924 134.352 274.86 135.576 276.408 135.576C278.04 135.576 278.856 134.484 278.856 132.3C278.856 130.116 278.028 129.024 276.384 129.024C274.716 129.024 273.924 130.224 273.924 132.3Z" fill="#1A3341"/>
<path d="M244.333 121C245.254 121 246 121.746 246 122.667V142.333C246 143.254 245.254 144 244.333 144H46V121L244.333 121Z" fill="#CDD3FB"/>
<path opacity="0.2" d="M246 131V134H46.0002V131H246Z" fill="#CDD3FB"/>
<path opacity="0.04" d="M246 134V142.333C246 143.254 245.254 144 244.334 144H46.0002V134H246Z" fill="#0D262C"/>
<path opacity="0.5" d="M244.333 121C245.254 121 246 121.746 246 122.667V131H46V121L244.333 121Z" fill="#CDD3FB"/>
<path d="M222.333 182C223.254 182 224 182.746 224 183.667V205.333C224 206.254 223.254 207 222.333 207H46V182H222.333Z" fill="#CDD3FB"/>
<path d="M232.92 191.332L232.536 190.432L235.416 189.052H236.1V197.5H235.068V190.336L232.92 191.332ZM242.442 190.12H237.354V189.1H243.726V189.784L239.55 197.5H238.41L242.442 190.12ZM243.723 196.816C243.723 196.48 244.035 196.144 244.467 196.144C244.863 196.144 245.187 196.48 245.187 196.816C245.187 197.2 244.887 197.524 244.467 197.524C244.035 197.524 243.723 197.2 243.723 196.816ZM249.491 192.712H249.863C250.403 192.712 250.847 192.58 251.219 192.328C251.579 192.076 251.759 191.74 251.759 191.344C251.759 190.444 251.051 189.988 249.647 189.988C248.303 189.988 247.571 190.48 247.571 191.344C247.571 192.124 248.375 192.712 249.491 192.712ZM249.839 193.66H249.539C248.891 193.66 248.351 193.804 247.931 194.08C247.511 194.356 247.295 194.704 247.295 195.124C247.295 196.036 248.135 196.612 249.659 196.612C251.207 196.612 252.035 196.06 252.035 195.136C252.035 194.212 251.147 193.66 249.839 193.66ZM252.203 196.96C251.591 197.392 250.739 197.608 249.671 197.608C248.603 197.608 247.751 197.392 247.127 196.972C246.503 196.552 246.191 195.976 246.191 195.232C246.191 194.26 246.827 193.492 247.847 193.156C246.923 192.856 246.467 192.124 246.467 191.272C246.467 189.88 247.643 188.992 249.659 188.992C251.687 188.992 252.863 189.88 252.863 191.272C252.863 192.076 252.419 192.688 251.531 193.096C252.599 193.42 253.127 194.116 253.127 195.184C253.127 195.94 252.815 196.54 252.203 196.96Z" fill="#1A3341"/>
<path d="M222.333 182C223.254 182 224 182.746 224 183.667V205.333C224 206.254 223.254 207 222.333 207H46V182H222.333Z" fill="#CDD3FB"/>
<path opacity="0.2" d="M224 192V197H46.0002V192H224Z" fill="#CDD3FB"/>
<path opacity="0.04" d="M224 197V205.333C224 206.254 223.254 207 222.334 207H46.0002V197H224Z" fill="#0D262C"/>
<path opacity="0.5" d="M222.333 182C223.254 182 224 182.746 224 183.667V192H46V182H222.333Z" fill="#CDD3FB"/>
<path d="M119.333 431C120.254 431 121 431.746 121 432.667V454.333C121 455.254 120.254 456 119.333 456H46V431H119.333Z" fill="#CDD3FB"/>
<path d="M134.828 439.12H129.74V438.1H136.112V438.784L131.936 446.5H130.796L134.828 439.12ZM136.109 445.816C136.109 445.48 136.421 445.144 136.853 445.144C137.249 445.144 137.573 445.48 137.573 445.816C137.573 446.2 137.273 446.524 136.853 446.524C136.421 446.524 136.109 446.2 136.109 445.816ZM139.789 442.636L138.925 442.408L139.417 438.1H144.697V439.12H140.341L140.029 441.376C140.449 441.064 141.085 440.908 141.937 440.908C142.921 440.908 143.689 441.172 144.253 441.688C144.805 442.216 145.081 442.888 145.081 443.716C145.081 444.544 144.769 445.24 144.157 445.78C143.533 446.332 142.753 446.608 141.829 446.608C140.257 446.608 138.949 445.864 138.409 444.556L139.369 444.148C139.717 444.952 140.617 445.588 141.829 445.588C143.209 445.588 143.977 444.796 143.977 443.752C143.977 442.636 143.077 441.916 141.649 441.916C140.881 441.916 140.257 442.156 139.789 442.636Z" fill="#1A3341"/>
<path d="M119.333 431C120.254 431 121 431.746 121 432.667V454.333C121 455.254 120.254 456 119.333 456H46V431H119.333Z" fill="#CDD3FB"/>
<path opacity="0.2" d="M121 441V446H46.0002V441H121Z" fill="#CDD3FB"/>
<path opacity="0.04" d="M121 446V454.333C121 455.254 120.254 456 119.334 456H46.0002V446H121Z" fill="#0D262C"/>
<path opacity="0.5" d="M119.333 431C120.254 431 121 431.746 121 432.667V441H46V431H119.333Z" fill="#CDD3FB"/>
<path d="M119.333 463C120.254 463 121 463.746 121 464.667V485.333C121 486.254 120.254 487 119.333 487H46V463H119.333Z" fill="#CDD3FB"/>
<path d="M134.828 471.12H129.74V470.1H136.112V470.784L131.936 478.5H130.796L134.828 471.12ZM136.109 477.816C136.109 477.48 136.421 477.144 136.853 477.144C137.249 477.144 137.573 477.48 137.573 477.816C137.573 478.2 137.273 478.524 136.853 478.524C136.421 478.524 136.109 478.2 136.109 477.816ZM139.789 474.636L138.925 474.408L139.417 470.1H144.697V471.12H140.341L140.029 473.376C140.449 473.064 141.085 472.908 141.937 472.908C142.921 472.908 143.689 473.172 144.253 473.688C144.805 474.216 145.081 474.888 145.081 475.716C145.081 476.544 144.769 477.24 144.157 477.78C143.533 478.332 142.753 478.608 141.829 478.608C140.257 478.608 138.949 477.864 138.409 476.556L139.369 476.148C139.717 476.952 140.617 477.588 141.829 477.588C143.209 477.588 143.977 476.796 143.977 475.752C143.977 474.636 143.077 473.916 141.649 473.916C140.881 473.916 140.257 474.156 139.789 474.636Z" fill="#1A3341"/>
<path d="M119.333 463C120.254 463 121 463.746 121 464.667V485.333C121 486.254 120.254 487 119.333 487H46V463H119.333Z" fill="#CDD3FB"/>
<path opacity="0.2" d="M121 473V477H46.0002V473H121Z" fill="#CDD3FB"/>
<path opacity="0.04" d="M121 477V485.333C121 486.254 120.254 487 119.334 487H46.0002V477H121Z" fill="#0D262C"/>
<path opacity="0.5" d="M119.333 463C120.254 463 121 463.746 121 464.667V473H46V463H119.333Z" fill="#CDD3FB"/>
<path d="M119.333 556C120.254 556 121 556.746 121 557.667V578.333C121 579.254 120.254 580 119.333 580H46V556H119.333Z" fill="#CDD3FB"/>
<path d="M134.828 564.12H129.74V563.1H136.112V563.784L131.936 571.5H130.796L134.828 564.12ZM136.109 570.816C136.109 570.48 136.421 570.144 136.853 570.144C137.249 570.144 137.573 570.48 137.573 570.816C137.573 571.2 137.273 571.524 136.853 571.524C136.421 571.524 136.109 571.2 136.109 570.816ZM139.789 567.636L138.925 567.408L139.417 563.1H144.697V564.12H140.341L140.029 566.376C140.449 566.064 141.085 565.908 141.937 565.908C142.921 565.908 143.689 566.172 144.253 566.688C144.805 567.216 145.081 567.888 145.081 568.716C145.081 569.544 144.769 570.24 144.157 570.78C143.533 571.332 142.753 571.608 141.829 571.608C140.257 571.608 138.949 570.864 138.409 569.556L139.369 569.148C139.717 569.952 140.617 570.588 141.829 570.588C143.209 570.588 143.977 569.796 143.977 568.752C143.977 567.636 143.077 566.916 141.649 566.916C140.881 566.916 140.257 567.156 139.789 567.636Z" fill="#1A3341"/>
<path d="M119.333 556C120.254 556 121 556.746 121 557.667V578.333C121 579.254 120.254 580 119.333 580H46V556H119.333Z" fill="#CDD3FB"/>
<path opacity="0.2" d="M121 566V570H46.0002V566H121Z" fill="#CDD3FB"/>
<path opacity="0.04" d="M121 570V578.333C121 579.254 120.254 580 119.334 580H46.0002V570H121Z" fill="#0D262C"/>
<path opacity="0.5" d="M119.333 556C120.254 556 121 556.746 121 557.667V566H46V556H119.333Z" fill="#CDD3FB"/>
<path d="M139.333 245C140.254 245 141 245.746 141 246.667V266.333C141 267.254 140.254 268 139.333 268H46V245H139.333Z" fill="#CDD3FB"/>
<path d="M157 256.144C157 257.572 156.664 258.676 155.98 259.444C155.296 260.224 154.384 260.608 153.244 260.608C151.852 260.608 150.76 260.02 150.22 259.12L151.084 258.52C151.564 259.192 152.44 259.576 153.388 259.576C154.168 259.576 154.792 259.264 155.284 258.64C155.776 258.028 155.98 257.26 155.92 256.348C155.524 257.26 154.528 257.932 153.196 257.932C152.26 257.932 151.492 257.668 150.892 257.128C150.28 256.6 149.98 255.904 149.98 255.052C149.98 254.116 150.304 253.372 150.952 252.82C151.6 252.268 152.464 251.992 153.532 251.992C155.692 251.992 157 253.504 157 256.144ZM155.74 255.016C155.56 253.9 154.792 253.024 153.412 253.024C151.972 253.024 151.084 253.768 151.084 255.016C151.084 256.204 151.984 256.9 153.388 256.9C154.024 256.9 154.564 256.708 154.984 256.324C155.404 255.94 155.656 255.508 155.74 255.016ZM157.984 259.816C157.984 259.48 158.296 259.144 158.728 259.144C159.124 259.144 159.448 259.48 159.448 259.816C159.448 260.2 159.148 260.524 158.728 260.524C158.296 260.524 157.984 260.2 157.984 259.816ZM161.664 256.636L160.8 256.408L161.292 252.1H166.572V253.12H162.216L161.904 255.376C162.324 255.064 162.96 254.908 163.812 254.908C164.796 254.908 165.564 255.172 166.128 255.688C166.68 256.216 166.956 256.888 166.956 257.716C166.956 258.544 166.644 259.24 166.032 259.78C165.408 260.332 164.628 260.608 163.704 260.608C162.132 260.608 160.824 259.864 160.284 258.556L161.244 258.148C161.592 258.952 162.492 259.588 163.704 259.588C165.084 259.588 165.852 258.796 165.852 257.752C165.852 256.636 164.952 255.916 163.524 255.916C162.756 255.916 162.132 256.156 161.664 256.636Z" fill="#1A3341"/>
<path d="M139.333 245C140.254 245 141 245.746 141 246.667V266.333C141 267.254 140.254 268 139.333 268H46V245H139.333Z" fill="#CDD3FB"/>
<path opacity="0.2" d="M141 255V258H46.0002V255H141Z" fill="#CDD3FB"/>
<path opacity="0.04" d="M141 258V266.333C141 267.254 140.254 268 139.334 268H46.0002V258H141Z" fill="#0D262C"/>
<path opacity="0.5" d="M139.333 245C140.254 245 141 245.746 141 246.667V255H46V245H139.333Z" fill="#CDD3FB"/>
<path d="M124.333 307C125.254 307 126 307.746 126 308.667V329.333C126 330.254 125.254 331 124.333 331H46V307H124.333Z" fill="#CDD3FB"/>
<path d="M138.328 317.712H138.7C139.24 317.712 139.684 317.58 140.056 317.328C140.416 317.076 140.596 316.74 140.596 316.344C140.596 315.444 139.888 314.988 138.484 314.988C137.14 314.988 136.408 315.48 136.408 316.344C136.408 317.124 137.212 317.712 138.328 317.712ZM138.676 318.66H138.376C137.728 318.66 137.188 318.804 136.768 319.08C136.348 319.356 136.132 319.704 136.132 320.124C136.132 321.036 136.972 321.612 138.496 321.612C140.044 321.612 140.872 321.06 140.872 320.136C140.872 319.212 139.984 318.66 138.676 318.66ZM141.04 321.96C140.428 322.392 139.576 322.608 138.508 322.608C137.44 322.608 136.588 322.392 135.964 321.972C135.34 321.552 135.028 320.976 135.028 320.232C135.028 319.26 135.664 318.492 136.684 318.156C135.76 317.856 135.304 317.124 135.304 316.272C135.304 314.88 136.48 313.992 138.496 313.992C140.524 313.992 141.7 314.88 141.7 316.272C141.7 317.076 141.256 317.688 140.368 318.096C141.436 318.42 141.964 319.116 141.964 320.184C141.964 320.94 141.652 321.54 141.04 321.96ZM142.984 321.816C142.984 321.48 143.296 321.144 143.728 321.144C144.124 321.144 144.448 321.48 144.448 321.816C144.448 322.2 144.148 322.524 143.728 322.524C143.296 322.524 142.984 322.2 142.984 321.816ZM145.44 318.3C145.44 317.004 145.74 315.96 146.352 315.18C146.952 314.4 147.84 314.004 149.004 314.004C151.392 314.004 152.58 315.576 152.58 318.3C152.58 319.608 152.28 320.64 151.692 321.42C151.092 322.2 150.204 322.596 149.028 322.596C147.9 322.596 147.024 322.2 146.388 321.408C145.752 320.616 145.44 319.584 145.44 318.3ZM146.544 318.3C146.544 320.352 147.48 321.576 149.028 321.576C150.66 321.576 151.476 320.484 151.476 318.3C151.476 316.116 150.648 315.024 149.004 315.024C147.336 315.024 146.544 316.224 146.544 318.3Z" fill="#1A3341"/>
<path d="M124.333 307C125.254 307 126 307.746 126 308.667V329.333C126 330.254 125.254 331 124.333 331H46V307H124.333Z" fill="#CDD3FB"/>
<path opacity="0.2" d="M126 317V321H46.0002V317H126Z" fill="#CDD3FB"/>
<path opacity="0.04" d="M126 321V329.333C126 330.254 125.254 331 124.334 331H46.0002V321H126Z" fill="#0D262C"/>
<path opacity="0.5" d="M124.333 307C125.254 307 126 307.746 126 308.667V317H46V307H124.333Z" fill="#CDD3FB"/>
<path d="M119.333 370C120.254 370 121 370.746 121 371.667V391.333C121 392.254 120.254 393 119.333 393H46V370H119.333Z" fill="#CDD3FB"/>
<path d="M134.828 378.12H129.74V377.1H136.112V377.784L131.936 385.5H130.796L134.828 378.12ZM136.109 384.816C136.109 384.48 136.421 384.144 136.853 384.144C137.249 384.144 137.573 384.48 137.573 384.816C137.573 385.2 137.273 385.524 136.853 385.524C136.421 385.524 136.109 385.2 136.109 384.816ZM139.789 381.636L138.925 381.408L139.417 377.1H144.697V378.12H140.341L140.029 380.376C140.449 380.064 141.085 379.908 141.937 379.908C142.921 379.908 143.689 380.172 144.253 380.688C144.805 381.216 145.081 381.888 145.081 382.716C145.081 383.544 144.769 384.24 144.157 384.78C143.533 385.332 142.753 385.608 141.829 385.608C140.257 385.608 138.949 384.864 138.409 383.556L139.369 383.148C139.717 383.952 140.617 384.588 141.829 384.588C143.209 384.588 143.977 383.796 143.977 382.752C143.977 381.636 143.077 380.916 141.649 380.916C140.881 380.916 140.257 381.156 139.789 381.636Z" fill="#1A3341"/>
<path d="M119.333 370C120.254 370 121 370.746 121 371.667V391.333C121 392.254 120.254 393 119.333 393H46V370H119.333Z" fill="#CDD3FB"/>
<path opacity="0.2" d="M121 380V383H46.0002V380H121Z" fill="#CDD3FB"/>
<path opacity="0.04" d="M121 383V391.333C121 392.254 120.254 393 119.334 393H46.0002V383H121Z" fill="#0D262C"/>
<path opacity="0.5" d="M119.333 370C120.254 370 121 370.746 121 371.667V380H46V370H119.333Z" fill="#CDD3FB"/>
<path d="M119.333 618C120.254 618 121 618.746 121 619.667V640.333C121 641.254 120.254 642 119.333 642H46V618H119.333Z" fill="#CDD3FB"/>
<path d="M134.828 626.12H129.74V625.1H136.112V625.784L131.936 633.5H130.796L134.828 626.12ZM136.109 632.816C136.109 632.48 136.421 632.144 136.853 632.144C137.249 632.144 137.573 632.48 137.573 632.816C137.573 633.2 137.273 633.524 136.853 633.524C136.421 633.524 136.109 633.2 136.109 632.816ZM139.789 629.636L138.925 629.408L139.417 625.1H144.697V626.12H140.341L140.029 628.376C140.449 628.064 141.085 627.908 141.937 627.908C142.921 627.908 143.689 628.172 144.253 628.688C144.805 629.216 145.081 629.888 145.081 630.716C145.081 631.544 144.769 632.24 144.157 632.78C143.533 633.332 142.753 633.608 141.829 633.608C140.257 633.608 138.949 632.864 138.409 631.556L139.369 631.148C139.717 631.952 140.617 632.588 141.829 632.588C143.209 632.588 143.977 631.796 143.977 630.752C143.977 629.636 143.077 628.916 141.649 628.916C140.881 628.916 140.257 629.156 139.789 629.636Z" fill="#1A3341"/>
<path d="M119.333 618C120.254 618 121 618.746 121 619.667V640.333C121 641.254 120.254 642 119.333 642H46V618H119.333Z" fill="#CDD3FB"/>
<path opacity="0.2" d="M121 628V632H46.0002V628H121Z" fill="#CDD3FB"/>
<path opacity="0.04" d="M121 632V640.333C121 641.254 120.254 642 119.334 642H46.0002V632H121Z" fill="#0D262C"/>
<path opacity="0.5" d="M119.333 618C120.254 618 121 618.746 121 619.667V628H46V618H119.333Z" fill="#CDD3FB"/>
<path d="M164.333 680C165.254 680 166 680.746 166 681.667V702.333C166 703.254 165.254 704 164.333 704H46V680H164.333Z" fill="#CDD3FB"/>
<path d="M174.92 689.332L174.536 688.432L177.416 687.052H178.1V695.5H177.068V688.336L174.92 689.332ZM180.59 689.872L179.714 689.56C180.014 688.072 181.142 687.004 182.93 687.004C184.658 687.004 185.714 688 185.714 689.524C185.714 690.328 185.366 691.132 184.934 691.708C184.718 692.008 184.442 692.296 184.118 692.596C183.458 693.184 182.99 693.496 182.306 693.928L181.382 694.504H186.026V695.5H179.486V694.684L181.31 693.472C181.634 693.268 181.862 693.112 181.994 693.016C182.126 692.932 182.342 692.776 182.63 692.572C182.918 692.368 183.134 692.188 183.278 692.056C183.41 691.924 183.59 691.756 183.794 691.54C184.346 690.94 184.55 690.388 184.61 689.632C184.61 688.54 183.902 688.048 182.858 688.048C182.21 688.048 181.694 688.228 181.322 688.588C180.95 688.948 180.698 689.38 180.59 689.872ZM186.942 694.816C186.942 694.48 187.254 694.144 187.686 694.144C188.082 694.144 188.406 694.48 188.406 694.816C188.406 695.2 188.106 695.524 187.686 695.524C187.254 695.524 186.942 695.2 186.942 694.816ZM189.398 691.3C189.398 690.004 189.698 688.96 190.31 688.18C190.91 687.4 191.798 687.004 192.962 687.004C195.35 687.004 196.538 688.576 196.538 691.3C196.538 692.608 196.238 693.64 195.65 694.42C195.05 695.2 194.162 695.596 192.986 695.596C191.858 695.596 190.982 695.2 190.346 694.408C189.71 693.616 189.398 692.584 189.398 691.3ZM190.502 691.3C190.502 693.352 191.438 694.576 192.986 694.576C194.618 694.576 195.434 693.484 195.434 691.3C195.434 689.116 194.606 688.024 192.962 688.024C191.294 688.024 190.502 689.224 190.502 691.3Z" fill="#1A3341"/>
<path d="M164.333 680C165.254 680 166 680.746 166 681.667V702.333C166 703.254 165.254 704 164.333 704H46V680H164.333Z" fill="#CDD3FB"/>
<path opacity="0.2" d="M166 690V694H46.0002V690H166Z" fill="#CDD3FB"/>
<path opacity="0.04" d="M166 694V702.333C166 703.254 165.254 704 164.334 704H46.0002V694H166Z" fill="#0D262C"/>
<path opacity="0.5" d="M164.333 680C165.254 680 166 680.746 166 681.667V690H46V680H164.333Z" fill="#CDD3FB"/>
<path d="M194.333 743C195.254 743 196 743.746 196 744.667V764.333C196 765.254 195.254 766 194.333 766H46V743H194.333Z" fill="#CDD3FB"/>
<path d="M204.92 752.332L204.536 751.432L207.416 750.052H208.1V758.5H207.068V751.336L204.92 752.332ZM210.854 754.636L209.99 754.408L210.482 750.1H215.762V751.12H211.406L211.094 753.376C211.514 753.064 212.15 752.908 213.002 752.908C213.986 752.908 214.754 753.172 215.318 753.688C215.87 754.216 216.146 754.888 216.146 755.716C216.146 756.544 215.834 757.24 215.222 757.78C214.598 758.332 213.818 758.608 212.894 758.608C211.322 758.608 210.014 757.864 209.474 756.556L210.434 756.148C210.782 756.952 211.682 757.588 212.894 757.588C214.274 757.588 215.042 756.796 215.042 755.752C215.042 754.636 214.142 753.916 212.714 753.916C211.946 753.916 211.322 754.156 210.854 754.636ZM217.141 757.816C217.141 757.48 217.453 757.144 217.885 757.144C218.281 757.144 218.605 757.48 218.605 757.816C218.605 758.2 218.305 758.524 217.885 758.524C217.453 758.524 217.141 758.2 217.141 757.816ZM219.597 754.3C219.597 753.004 219.897 751.96 220.509 751.18C221.109 750.4 221.997 750.004 223.161 750.004C225.549 750.004 226.737 751.576 226.737 754.3C226.737 755.608 226.437 756.64 225.849 757.42C225.249 758.2 224.361 758.596 223.185 758.596C222.057 758.596 221.181 758.2 220.545 757.408C219.909 756.616 219.597 755.584 219.597 754.3ZM220.701 754.3C220.701 756.352 221.637 757.576 223.185 757.576C224.817 757.576 225.633 756.484 225.633 754.3C225.633 752.116 224.805 751.024 223.161 751.024C221.493 751.024 220.701 752.224 220.701 754.3Z" fill="#1A3341"/>
<path d="M194.333 743C195.254 743 196 743.746 196 744.667V764.333C196 765.254 195.254 766 194.333 766H46V743H194.333Z" fill="#CDD3FB"/>
<path opacity="0.2" d="M196 753V756H46.0002V753H196Z" fill="#CDD3FB"/>
<path opacity="0.04" d="M196 756V764.333C196 765.254 195.254 766 194.334 766H46.0002V756H196Z" fill="#0D262C"/>
<path opacity="0.5" d="M194.333 743C195.254 743 196 743.746 196 744.667V753H46V743H194.333Z" fill="#CDD3FB"/>
<path d="M244.333 152C245.254 152 246 152.746 246 153.667V174.333C246 175.254 245.254 176 244.333 176H46V152H244.333Z" fill="#CDD3FB"/>
<path d="M255.976 161.872L255.1 161.56C255.4 160.072 256.528 159.004 258.316 159.004C260.044 159.004 261.1 160 261.1 161.524C261.1 162.328 260.752 163.132 260.32 163.708C260.104 164.008 259.828 164.296 259.504 164.596C258.844 165.184 258.376 165.496 257.692 165.928L256.768 166.504H261.412V167.5H254.872V166.684L256.696 165.472C257.02 165.268 257.248 165.112 257.38 165.016C257.512 164.932 257.728 164.776 258.016 164.572C258.304 164.368 258.52 164.188 258.664 164.056C258.796 163.924 258.976 163.756 259.18 163.54C259.732 162.94 259.936 162.388 259.996 161.632C259.996 160.54 259.288 160.048 258.244 160.048C257.596 160.048 257.08 160.228 256.708 160.588C256.336 160.948 256.084 161.38 255.976 161.872ZM262.244 163.3C262.244 162.004 262.544 160.96 263.156 160.18C263.756 159.4 264.644 159.004 265.808 159.004C268.196 159.004 269.384 160.576 269.384 163.3C269.384 164.608 269.084 165.64 268.496 166.42C267.896 167.2 267.008 167.596 265.832 167.596C264.704 167.596 263.828 167.2 263.192 166.408C262.556 165.616 262.244 164.584 262.244 163.3ZM263.348 163.3C263.348 165.352 264.284 166.576 265.832 166.576C267.464 166.576 268.28 165.484 268.28 163.3C268.28 161.116 267.452 160.024 265.808 160.024C264.14 160.024 263.348 161.224 263.348 163.3ZM270.364 166.816C270.364 166.48 270.676 166.144 271.108 166.144C271.504 166.144 271.828 166.48 271.828 166.816C271.828 167.2 271.528 167.524 271.108 167.524C270.676 167.524 270.364 167.2 270.364 166.816ZM272.82 163.3C272.82 162.004 273.12 160.96 273.732 160.18C274.332 159.4 275.22 159.004 276.384 159.004C278.772 159.004 279.96 160.576 279.96 163.3C279.96 164.608 279.66 165.64 279.072 166.42C278.472 167.2 277.584 167.596 276.408 167.596C275.28 167.596 274.404 167.2 273.768 166.408C273.132 165.616 272.82 164.584 272.82 163.3ZM273.924 163.3C273.924 165.352 274.86 166.576 276.408 166.576C278.04 166.576 278.856 165.484 278.856 163.3C278.856 161.116 278.028 160.024 276.384 160.024C274.716 160.024 273.924 161.224 273.924 163.3Z" fill="#1A3341"/>
<path d="M244.333 152C245.254 152 246 152.746 246 153.667V174.333C246 175.254 245.254 176 244.333 176H46V152H244.333Z" fill="#CDD3FB"/>
<path opacity="0.2" d="M246 162V166H46.0002V162H246Z" fill="#CDD3FB"/>
<path opacity="0.04" d="M246 166V174.333C246 175.254 245.254 176 244.334 176H46.0002V166H246Z" fill="#0D262C"/>
<path opacity="0.5" d="M244.333 152C245.254 152 246 152.746 246 153.667V162H46V152H244.333Z" fill="#CDD3FB"/>
<path d="M154.333 214C155.254 214 156 214.746 156 215.667V236.333C156 237.254 155.254 238 154.333 238H46V214H154.333Z" fill="#CDD3FB"/>
<path d="M164.92 223.332L164.536 222.432L167.416 221.052H168.1V229.5H167.068V222.336L164.92 223.332ZM169.534 223.332L169.15 222.432L172.03 221.052H172.714V229.5H171.682V222.336L169.534 223.332ZM174.329 228.816C174.329 228.48 174.641 228.144 175.073 228.144C175.469 228.144 175.793 228.48 175.793 228.816C175.793 229.2 175.493 229.524 175.073 229.524C174.641 229.524 174.329 229.2 174.329 228.816ZM176.785 225.3C176.785 224.004 177.085 222.96 177.697 222.18C178.297 221.4 179.185 221.004 180.349 221.004C182.737 221.004 183.925 222.576 183.925 225.3C183.925 226.608 183.625 227.64 183.037 228.42C182.437 229.2 181.549 229.596 180.373 229.596C179.245 229.596 178.369 229.2 177.733 228.408C177.097 227.616 176.785 226.584 176.785 225.3ZM177.889 225.3C177.889 227.352 178.825 228.576 180.373 228.576C182.005 228.576 182.821 227.484 182.821 225.3C182.821 223.116 181.993 222.024 180.349 222.024C178.681 222.024 177.889 223.224 177.889 225.3Z" fill="#1A3341"/>
<path d="M154.333 214C155.254 214 156 214.746 156 215.667V236.333C156 237.254 155.254 238 154.333 238H46V214H154.333Z" fill="#CDD3FB"/>
<path opacity="0.2" d="M156 224V228H46.0002V224H156Z" fill="#CDD3FB"/>
<path opacity="0.04" d="M156 228V236.333C156 237.254 155.254 238 154.334 238H46.0002V228H156Z" fill="#0D262C"/>
<path opacity="0.5" d="M154.333 214C155.254 214 156 214.746 156 215.667V224H46V214H154.333Z" fill="#CDD3FB"/>
<path d="M124.333 276C125.254 276 126 276.746 126 277.667V299.333C126 300.254 125.254 301 124.333 301H46V276H124.333Z" fill="#CDD3FB"/>
<path d="M138.328 286.712H138.7C139.24 286.712 139.684 286.58 140.056 286.328C140.416 286.076 140.596 285.74 140.596 285.344C140.596 284.444 139.888 283.988 138.484 283.988C137.14 283.988 136.408 284.48 136.408 285.344C136.408 286.124 137.212 286.712 138.328 286.712ZM138.676 287.66H138.376C137.728 287.66 137.188 287.804 136.768 288.08C136.348 288.356 136.132 288.704 136.132 289.124C136.132 290.036 136.972 290.612 138.496 290.612C140.044 290.612 140.872 290.06 140.872 289.136C140.872 288.212 139.984 287.66 138.676 287.66ZM141.04 290.96C140.428 291.392 139.576 291.608 138.508 291.608C137.44 291.608 136.588 291.392 135.964 290.972C135.34 290.552 135.028 289.976 135.028 289.232C135.028 288.26 135.664 287.492 136.684 287.156C135.76 286.856 135.304 286.124 135.304 285.272C135.304 283.88 136.48 282.992 138.496 282.992C140.524 282.992 141.7 283.88 141.7 285.272C141.7 286.076 141.256 286.688 140.368 287.096C141.436 287.42 141.964 288.116 141.964 289.184C141.964 289.94 141.652 290.54 141.04 290.96ZM142.984 290.816C142.984 290.48 143.296 290.144 143.728 290.144C144.124 290.144 144.448 290.48 144.448 290.816C144.448 291.2 144.148 291.524 143.728 291.524C143.296 291.524 142.984 291.2 142.984 290.816ZM145.44 287.3C145.44 286.004 145.74 284.96 146.352 284.18C146.952 283.4 147.84 283.004 149.004 283.004C151.392 283.004 152.58 284.576 152.58 287.3C152.58 288.608 152.28 289.64 151.692 290.42C151.092 291.2 150.204 291.596 149.028 291.596C147.9 291.596 147.024 291.2 146.388 290.408C145.752 289.616 145.44 288.584 145.44 287.3ZM146.544 287.3C146.544 289.352 147.48 290.576 149.028 290.576C150.66 290.576 151.476 289.484 151.476 287.3C151.476 285.116 150.648 284.024 149.004 284.024C147.336 284.024 146.544 285.224 146.544 287.3Z" fill="#1A3341"/>
<path d="M124.333 276C125.254 276 126 276.746 126 277.667V299.333C126 300.254 125.254 301 124.333 301H46V276H124.333Z" fill="#CDD3FB"/>
<path opacity="0.2" d="M126 286V291H46.0002V286H126Z" fill="#CDD3FB"/>
<path opacity="0.04" d="M126 291V299.333C126 300.254 125.254 301 124.334 301H46.0002V291H126Z" fill="#0D262C"/>
<path opacity="0.5" d="M124.333 276C125.254 276 126 276.746 126 277.667V286H46V276H124.333Z" fill="#CDD3FB"/>
<path d="M119.333 525C120.254 525 121 525.746 121 526.667V548.333C121 549.254 120.254 550 119.333 550H46V525H119.333Z" fill="#CDD3FB"/>
<path d="M134.828 533.12H129.74V532.1H136.112V532.784L131.936 540.5H130.796L134.828 533.12ZM136.109 539.816C136.109 539.48 136.421 539.144 136.853 539.144C137.249 539.144 137.573 539.48 137.573 539.816C137.573 540.2 137.273 540.524 136.853 540.524C136.421 540.524 136.109 540.2 136.109 539.816ZM139.789 536.636L138.925 536.408L139.417 532.1H144.697V533.12H140.341L140.029 535.376C140.449 535.064 141.085 534.908 141.937 534.908C142.921 534.908 143.689 535.172 144.253 535.688C144.805 536.216 145.081 536.888 145.081 537.716C145.081 538.544 144.769 539.24 144.157 539.78C143.533 540.332 142.753 540.608 141.829 540.608C140.257 540.608 138.949 539.864 138.409 538.556L139.369 538.148C139.717 538.952 140.617 539.588 141.829 539.588C143.209 539.588 143.977 538.796 143.977 537.752C143.977 536.636 143.077 535.916 141.649 535.916C140.881 535.916 140.257 536.156 139.789 536.636Z" fill="#1A3341"/>
<path d="M119.333 525C120.254 525 121 525.746 121 526.667V548.333C121 549.254 120.254 550 119.333 550H46V525H119.333Z" fill="#CDD3FB"/>
<path opacity="0.2" d="M121 535V540H46.0002V535H121Z" fill="#CDD3FB"/>
<path opacity="0.04" d="M121 540V548.333C121 549.254 120.254 550 119.334 550H46.0002V540H121Z" fill="#0D262C"/>
<path opacity="0.5" d="M119.333 525C120.254 525 121 525.746 121 526.667V535H46V525H119.333Z" fill="#CDD3FB"/>
<path d="M119.333 588C120.254 588 121 588.746 121 589.667V609.333C121 610.254 120.254 611 119.333 611H46V588H119.333Z" fill="#CDD3FB"/>
<path d="M134.828 596.12H129.74V595.1H136.112V595.784L131.936 603.5H130.796L134.828 596.12ZM136.109 602.816C136.109 602.48 136.421 602.144 136.853 602.144C137.249 602.144 137.573 602.48 137.573 602.816C137.573 603.2 137.273 603.524 136.853 603.524C136.421 603.524 136.109 603.2 136.109 602.816ZM139.789 599.636L138.925 599.408L139.417 595.1H144.697V596.12H140.341L140.029 598.376C140.449 598.064 141.085 597.908 141.937 597.908C142.921 597.908 143.689 598.172 144.253 598.688C144.805 599.216 145.081 599.888 145.081 600.716C145.081 601.544 144.769 602.24 144.157 602.78C143.533 603.332 142.753 603.608 141.829 603.608C140.257 603.608 138.949 602.864 138.409 601.556L139.369 601.148C139.717 601.952 140.617 602.588 141.829 602.588C143.209 602.588 143.977 601.796 143.977 600.752C143.977 599.636 143.077 598.916 141.649 598.916C140.881 598.916 140.257 599.156 139.789 599.636Z" fill="#1A3341"/>
<path d="M119.333 588C120.254 588 121 588.746 121 589.667V609.333C121 610.254 120.254 611 119.333 611H46V588H119.333Z" fill="#CDD3FB"/>
<path opacity="0.2" d="M121 598V601H46.0002V598H121Z" fill="#CDD3FB"/>
<path opacity="0.04" d="M121 601V609.333C121 610.254 120.254 611 119.334 611H46.0002V601H121Z" fill="#0D262C"/>
<path opacity="0.5" d="M119.333 588C120.254 588 121 588.746 121 589.667V598H46V588H119.333Z" fill="#CDD3FB"/>
<path d="M129.333 650C130.254 650 131 650.746 131 651.667V672.333C131 673.254 130.254 674 129.333 674H46V650H129.333Z" fill="#CDD3FB"/>
<path d="M143.328 660.712H143.7C144.24 660.712 144.684 660.58 145.056 660.328C145.416 660.076 145.596 659.74 145.596 659.344C145.596 658.444 144.888 657.988 143.484 657.988C142.14 657.988 141.408 658.48 141.408 659.344C141.408 660.124 142.212 660.712 143.328 660.712ZM143.676 661.66H143.376C142.728 661.66 142.188 661.804 141.768 662.08C141.348 662.356 141.132 662.704 141.132 663.124C141.132 664.036 141.972 664.612 143.496 664.612C145.044 664.612 145.872 664.06 145.872 663.136C145.872 662.212 144.984 661.66 143.676 661.66ZM146.04 664.96C145.428 665.392 144.576 665.608 143.508 665.608C142.44 665.608 141.588 665.392 140.964 664.972C140.34 664.552 140.028 663.976 140.028 663.232C140.028 662.26 140.664 661.492 141.684 661.156C140.76 660.856 140.304 660.124 140.304 659.272C140.304 657.88 141.48 656.992 143.496 656.992C145.524 656.992 146.7 657.88 146.7 659.272C146.7 660.076 146.256 660.688 145.368 661.096C146.436 661.42 146.964 662.116 146.964 663.184C146.964 663.94 146.652 664.54 146.04 664.96ZM147.984 664.816C147.984 664.48 148.296 664.144 148.728 664.144C149.124 664.144 149.448 664.48 149.448 664.816C149.448 665.2 149.148 665.524 148.728 665.524C148.296 665.524 147.984 665.2 147.984 664.816ZM151.664 661.636L150.8 661.408L151.292 657.1H156.572V658.12H152.216L151.904 660.376C152.324 660.064 152.96 659.908 153.812 659.908C154.796 659.908 155.564 660.172 156.128 660.688C156.68 661.216 156.956 661.888 156.956 662.716C156.956 663.544 156.644 664.24 156.032 664.78C155.408 665.332 154.628 665.608 153.704 665.608C152.132 665.608 150.824 664.864 150.284 663.556L151.244 663.148C151.592 663.952 152.492 664.588 153.704 664.588C155.084 664.588 155.852 663.796 155.852 662.752C155.852 661.636 154.952 660.916 153.524 660.916C152.756 660.916 152.132 661.156 151.664 661.636Z" fill="#1A3341"/>
<path d="M129.333 650C130.254 650 131 650.746 131 651.667V672.333C131 673.254 130.254 674 129.333 674H46V650H129.333Z" fill="#CDD3FB"/>
<path opacity="0.2" d="M131 660V664H46.0002V660H131Z" fill="#CDD3FB"/>
<path opacity="0.04" d="M131 664V672.333C131 673.254 130.254 674 129.334 674H46.0002V664H131Z" fill="#0D262C"/>
<path opacity="0.5" d="M129.333 650C130.254 650 131 650.746 131 651.667V660H46V650H129.333Z" fill="#CDD3FB"/>
<path d="M119.333 338C120.254 338 121 338.746 121 339.667V360.333C121 361.254 120.254 362 119.333 362H46V338H119.333Z" fill="#CDD3FB"/>
<path d="M134.828 346.12H129.74V345.1H136.112V345.784L131.936 353.5H130.796L134.828 346.12ZM136.109 352.816C136.109 352.48 136.421 352.144 136.853 352.144C137.249 352.144 137.573 352.48 137.573 352.816C137.573 353.2 137.273 353.524 136.853 353.524C136.421 353.524 136.109 353.2 136.109 352.816ZM139.789 349.636L138.925 349.408L139.417 345.1H144.697V346.12H140.341L140.029 348.376C140.449 348.064 141.085 347.908 141.937 347.908C142.921 347.908 143.689 348.172 144.253 348.688C144.805 349.216 145.081 349.888 145.081 350.716C145.081 351.544 144.769 352.24 144.157 352.78C143.533 353.332 142.753 353.608 141.829 353.608C140.257 353.608 138.949 352.864 138.409 351.556L139.369 351.148C139.717 351.952 140.617 352.588 141.829 352.588C143.209 352.588 143.977 351.796 143.977 350.752C143.977 349.636 143.077 348.916 141.649 348.916C140.881 348.916 140.257 349.156 139.789 349.636Z" fill="#1A3341"/>
<path d="M119.333 338C120.254 338 121 338.746 121 339.667V360.333C121 361.254 120.254 362 119.333 362H46V338H119.333Z" fill="#CDD3FB"/>
<path opacity="0.2" d="M121 348V352H46.0002V348H121Z" fill="#CDD3FB"/>
<path opacity="0.04" d="M121 352V360.333C121 361.254 120.254 362 119.334 362H46.0002V352H121Z" fill="#0D262C"/>
<path opacity="0.5" d="M119.333 338C120.254 338 121 338.746 121 339.667V348H46V338H119.333Z" fill="#CDD3FB"/>
<path d="M119.333 401C120.254 401 121 401.746 121 402.667V423.333C121 424.254 120.254 425 119.333 425H46V401H119.333Z" fill="#CDD3FB"/>
<path d="M134.828 409.12H129.74V408.1H136.112V408.784L131.936 416.5H130.796L134.828 409.12ZM136.109 415.816C136.109 415.48 136.421 415.144 136.853 415.144C137.249 415.144 137.573 415.48 137.573 415.816C137.573 416.2 137.273 416.524 136.853 416.524C136.421 416.524 136.109 416.2 136.109 415.816ZM139.789 412.636L138.925 412.408L139.417 408.1H144.697V409.12H140.341L140.029 411.376C140.449 411.064 141.085 410.908 141.937 410.908C142.921 410.908 143.689 411.172 144.253 411.688C144.805 412.216 145.081 412.888 145.081 413.716C145.081 414.544 144.769 415.24 144.157 415.78C143.533 416.332 142.753 416.608 141.829 416.608C140.257 416.608 138.949 415.864 138.409 414.556L139.369 414.148C139.717 414.952 140.617 415.588 141.829 415.588C143.209 415.588 143.977 414.796 143.977 413.752C143.977 412.636 143.077 411.916 141.649 411.916C140.881 411.916 140.257 412.156 139.789 412.636Z" fill="#1A3341"/>
<path d="M119.333 401C120.254 401 121 401.746 121 402.667V423.333C121 424.254 120.254 425 119.333 425H46V401H119.333Z" fill="#CDD3FB"/>
<path opacity="0.2" d="M121 411V415H46.0002V411H121Z" fill="#CDD3FB"/>
<path opacity="0.04" d="M121 415V423.333C121 424.254 120.254 425 119.334 425H46.0002V415H121Z" fill="#0D262C"/>
<path opacity="0.5" d="M119.333 401C120.254 401 121 401.746 121 402.667V411H46V401H119.333Z" fill="#CDD3FB"/>
<path d="M119.333 494C120.254 494 121 494.746 121 495.667V515.333C121 516.254 120.254 517 119.333 517H46V494H119.333Z" fill="#CDD3FB"/>
<path d="M134.828 502.12H129.74V501.1H136.112V501.784L131.936 509.5H130.796L134.828 502.12ZM136.109 508.816C136.109 508.48 136.421 508.144 136.853 508.144C137.249 508.144 137.573 508.48 137.573 508.816C137.573 509.2 137.273 509.524 136.853 509.524C136.421 509.524 136.109 509.2 136.109 508.816ZM139.789 505.636L138.925 505.408L139.417 501.1H144.697V502.12H140.341L140.029 504.376C140.449 504.064 141.085 503.908 141.937 503.908C142.921 503.908 143.689 504.172 144.253 504.688C144.805 505.216 145.081 505.888 145.081 506.716C145.081 507.544 144.769 508.24 144.157 508.78C143.533 509.332 142.753 509.608 141.829 509.608C140.257 509.608 138.949 508.864 138.409 507.556L139.369 507.148C139.717 507.952 140.617 508.588 141.829 508.588C143.209 508.588 143.977 507.796 143.977 506.752C143.977 505.636 143.077 504.916 141.649 504.916C140.881 504.916 140.257 505.156 139.789 505.636Z" fill="#1A3341"/>
<path d="M119.333 494C120.254 494 121 494.746 121 495.667V515.333C121 516.254 120.254 517 119.333 517H46V494H119.333Z" fill="#CDD3FB"/>
<path opacity="0.2" d="M121 504V507H46.0002V504H121Z" fill="#CDD3FB"/>
<path opacity="0.04" d="M121 507V515.333C121 516.254 120.254 517 119.334 517H46.0002V507H121Z" fill="#0D262C"/>
<path opacity="0.5" d="M119.333 494C120.254 494 121 494.746 121 495.667V504H46V494H119.333Z" fill="#CDD3FB"/>
<path d="M174.333 712C175.254 712 176 712.746 176 713.667V734.333C176 735.254 175.254 736 174.333 736H46V712H174.333Z" fill="#CDD3FB"/>
<path d="M184.92 721.332L184.536 720.432L187.416 719.052H188.1V727.5H187.068V720.336L184.92 721.332ZM190.458 721.548L189.558 721.14C190.002 719.844 191.166 718.992 192.906 718.992C193.734 718.992 194.418 719.184 194.946 719.568C195.474 719.952 195.738 720.468 195.738 721.104C195.738 722.076 195.222 722.796 194.262 723.072C195.186 723.132 195.93 723.828 195.93 725.076C195.93 725.868 195.642 726.492 195.066 726.936C194.49 727.38 193.758 727.608 192.858 727.608C191.022 727.608 189.75 726.732 189.33 725.352L190.302 724.932C190.818 726.024 191.694 726.576 192.93 726.576C194.094 726.576 194.826 726.036 194.826 725.088C194.826 724.164 194.106 723.696 192.666 723.696H191.73V722.7H192.474C193.782 722.7 194.634 722.112 194.634 721.308C194.634 720.48 193.95 720.012 192.858 720.012C191.574 720.012 190.794 720.672 190.458 721.548ZM197.001 726.816C197.001 726.48 197.313 726.144 197.745 726.144C198.141 726.144 198.465 726.48 198.465 726.816C198.465 727.2 198.165 727.524 197.745 727.524C197.313 727.524 197.001 727.2 197.001 726.816ZM199.457 723.3C199.457 722.004 199.757 720.96 200.369 720.18C200.969 719.4 201.857 719.004 203.021 719.004C205.409 719.004 206.597 720.576 206.597 723.3C206.597 724.608 206.297 725.64 205.709 726.42C205.109 727.2 204.221 727.596 203.045 727.596C201.917 727.596 201.041 727.2 200.405 726.408C199.769 725.616 199.457 724.584 199.457 723.3ZM200.561 723.3C200.561 725.352 201.497 726.576 203.045 726.576C204.677 726.576 205.493 725.484 205.493 723.3C205.493 721.116 204.665 720.024 203.021 720.024C201.353 720.024 200.561 721.224 200.561 723.3Z" fill="#1A3341"/>
<path d="M174.333 712C175.254 712 176 712.746 176 713.667V734.333C176 735.254 175.254 736 174.333 736H46V712H174.333Z" fill="#CDD3FB"/>
<path opacity="0.2" d="M176 722V726H46.0002V722H176Z" fill="#CDD3FB"/>
<path opacity="0.04" d="M176 726V734.333C176 735.254 175.254 736 174.334 736H46.0002V726H176Z" fill="#0D262C"/>
<path opacity="0.5" d="M174.333 712C175.254 712 176 712.746 176 713.667V722H46V712H174.333Z" fill="#CDD3FB"/>
<path d="M194.333 774C195.254 774 196 774.746 196 775.667V796.333C196 797.254 195.254 798 194.333 798H46V774H194.333Z" fill="#CDD3FB"/>
<path d="M204.92 783.332L204.536 782.432L207.416 781.052H208.1V789.5H207.068V782.336L204.92 783.332ZM210.854 785.636L209.99 785.408L210.482 781.1H215.762V782.12H211.406L211.094 784.376C211.514 784.064 212.15 783.908 213.002 783.908C213.986 783.908 214.754 784.172 215.318 784.688C215.87 785.216 216.146 785.888 216.146 786.716C216.146 787.544 215.834 788.24 215.222 788.78C214.598 789.332 213.818 789.608 212.894 789.608C211.322 789.608 210.014 788.864 209.474 787.556L210.434 787.148C210.782 787.952 211.682 788.588 212.894 788.588C214.274 788.588 215.042 787.796 215.042 786.752C215.042 785.636 214.142 784.916 212.714 784.916C211.946 784.916 211.322 785.156 210.854 785.636ZM217.141 788.816C217.141 788.48 217.453 788.144 217.885 788.144C218.281 788.144 218.605 788.48 218.605 788.816C218.605 789.2 218.305 789.524 217.885 789.524C217.453 789.524 217.141 789.2 217.141 788.816ZM219.597 785.3C219.597 784.004 219.897 782.96 220.509 782.18C221.109 781.4 221.997 781.004 223.161 781.004C225.549 781.004 226.737 782.576 226.737 785.3C226.737 786.608 226.437 787.64 225.849 788.42C225.249 789.2 224.361 789.596 223.185 789.596C222.057 789.596 221.181 789.2 220.545 788.408C219.909 787.616 219.597 786.584 219.597 785.3ZM220.701 785.3C220.701 787.352 221.637 788.576 223.185 788.576C224.817 788.576 225.633 787.484 225.633 785.3C225.633 783.116 224.805 782.024 223.161 782.024C221.493 782.024 220.701 783.224 220.701 785.3Z" fill="#1A3341"/>
<path d="M194.333 774C195.254 774 196 774.746 196 775.667V796.333C196 797.254 195.254 798 194.333 798H46V774H194.333Z" fill="#CDD3FB"/>
<path opacity="0.2" d="M196 784V788H46.0002V784H196Z" fill="#CDD3FB"/>
<path opacity="0.04" d="M196 788V796.333C196 797.254 195.254 798 194.334 798H46.0002V788H196Z" fill="#0D262C"/>
<path opacity="0.5" d="M194.333 774C195.254 774 196 774.746 196 775.667V784H46V774H194.333Z" fill="#CDD3FB"/>
<path d="M204.333 805C205.254 805 206 805.746 206 806.667V827.333C206 828.254 205.254 829 204.333 829H46V805H204.333Z" fill="#CDD3FB"/>
<path d="M214.92 814.332L214.536 813.432L217.416 812.052H218.1V820.5H217.068V813.336L214.92 814.332ZM219.63 816.528C219.63 815.076 219.99 813.96 220.698 813.168C221.406 812.388 222.294 811.992 223.362 811.992C224.766 811.992 225.87 812.628 226.338 813.636L225.522 814.188C225.03 813.408 224.298 813.024 223.314 813.024C222.57 813.024 221.946 813.312 221.442 813.888C220.938 814.476 220.686 815.268 220.698 816.288C221.166 815.412 222.258 814.884 223.458 814.884C224.43 814.884 225.21 815.136 225.774 815.652C226.338 816.168 226.626 816.852 226.626 817.692C226.626 818.544 226.314 819.252 225.678 819.792C225.042 820.332 224.25 820.608 223.302 820.608C221.034 820.608 219.63 819.132 219.63 816.528ZM220.83 817.548C221.058 818.736 221.958 819.576 223.29 819.576C223.938 819.576 224.478 819.408 224.898 819.06C225.318 818.724 225.522 818.28 225.522 817.74C225.522 816.552 224.682 815.916 223.398 815.916C222.69 815.916 222.102 816.084 221.646 816.42C221.178 816.756 220.914 817.128 220.83 817.548ZM227.575 819.816C227.575 819.48 227.887 819.144 228.319 819.144C228.715 819.144 229.039 819.48 229.039 819.816C229.039 820.2 228.739 820.524 228.319 820.524C227.887 820.524 227.575 820.2 227.575 819.816ZM230.031 816.3C230.031 815.004 230.331 813.96 230.943 813.18C231.543 812.4 232.431 812.004 233.595 812.004C235.983 812.004 237.171 813.576 237.171 816.3C237.171 817.608 236.871 818.64 236.283 819.42C235.683 820.2 234.795 820.596 233.619 820.596C232.491 820.596 231.615 820.2 230.979 819.408C230.343 818.616 230.031 817.584 230.031 816.3ZM231.135 816.3C231.135 818.352 232.071 819.576 233.619 819.576C235.251 819.576 236.067 818.484 236.067 816.3C236.067 814.116 235.239 813.024 233.595 813.024C231.927 813.024 231.135 814.224 231.135 816.3Z" fill="#1A3341"/>
<path d="M204.333 805C205.254 805 206 805.746 206 806.667V827.333C206 828.254 205.254 829 204.333 829H46V805H204.333Z" fill="#CDD3FB"/>
<path opacity="0.2" d="M206 815V819H46.0002V815H206Z" fill="#CDD3FB"/>
<path opacity="0.04" d="M206 819V827.333C206 828.254 205.254 829 204.334 829H46.0002V819H206Z" fill="#0D262C"/>
<path opacity="0.5" d="M204.333 805C205.254 805 206 805.746 206 806.667V815H46V805H204.333Z" fill="#CDD3FB"/>
<line x1="46.5" y1="80" x2="46.5001" y2="846" stroke="#ABBEC9"/>
<path d="M0.880688 94.84H11.7767V95.812H0.880688V94.84ZM15.5807 96.328H21.1967V94.312H15.7127C15.7127 94.936 15.6767 95.62 15.5807 96.328ZM21.1967 91.468H15.7127V93.46H21.1967V91.468ZM22.1207 90.592V99.616C22.1207 100.24 21.9407 100.552 21.4967 100.696C21.0407 100.852 20.2487 100.864 18.9647 100.864C18.9047 100.612 18.7367 100.192 18.5927 99.94C19.5887 99.976 20.5487 99.964 20.8247 99.964C21.1007 99.952 21.1967 99.868 21.1967 99.604V97.204H15.4367C15.1367 98.56 14.5367 99.916 13.3727 100.936C13.2527 100.744 12.8927 100.42 12.7127 100.288C14.6207 98.608 14.8127 96.172 14.8127 94.264V90.592H22.1207ZM25.7807 94.372L24.9047 94.06C25.2047 92.572 26.3327 91.504 28.1207 91.504C29.8487 91.504 30.9047 92.5 30.9047 94.024C30.9047 94.828 30.5567 95.632 30.1247 96.208C29.9087 96.508 29.6327 96.796 29.3087 97.096C28.6487 97.684 28.1807 97.996 27.4967 98.428L26.5727 99.004H31.2167V100H24.6767V99.184L26.5007 97.972C26.8247 97.768 27.0527 97.612 27.1847 97.516C27.3167 97.432 27.5327 97.276 27.8207 97.072C28.1087 96.868 28.3247 96.688 28.4687 96.556C28.6007 96.424 28.7807 96.256 28.9847 96.04C29.5367 95.44 29.7407 94.888 29.8007 94.132C29.8007 93.04 29.0927 92.548 28.0487 92.548C27.4007 92.548 26.8847 92.728 26.5127 93.088C26.1407 93.448 25.8887 93.88 25.7807 94.372ZM33.1283 94.372L32.2523 94.06C32.5523 92.572 33.6803 91.504 35.4683 91.504C37.1963 91.504 38.2523 92.5 38.2523 94.024C38.2523 94.828 37.9043 95.632 37.4723 96.208C37.2563 96.508 36.9803 96.796 36.6563 97.096C35.9963 97.684 35.5283 97.996 34.8443 98.428L33.9203 99.004H38.5643V100H32.0243V99.184L33.8483 97.972C34.1723 97.768 34.4003 97.612 34.5323 97.516C34.6643 97.432 34.8803 97.276 35.1683 97.072C35.4563 96.868 35.6723 96.688 35.8163 96.556C35.9483 96.424 36.1283 96.256 36.3323 96.04C36.8843 95.44 37.0883 94.888 37.1483 94.132C37.1483 93.04 36.4403 92.548 35.3963 92.548C34.7483 92.548 34.2323 92.728 33.8603 93.088C33.4883 93.448 33.2363 93.88 33.1283 94.372Z" fill="#76848D"/>
<path d="M0.822094 474.84H11.7181V475.812H0.822094V474.84ZM15.5221 476.328H21.1381V474.312H15.6541C15.6541 474.936 15.6181 475.62 15.5221 476.328ZM21.1381 471.468H15.6541V473.46H21.1381V471.468ZM22.0621 470.592V479.616C22.0621 480.24 21.8821 480.552 21.4381 480.696C20.9821 480.852 20.1901 480.864 18.9061 480.864C18.8461 480.612 18.6781 480.192 18.5341 479.94C19.5301 479.976 20.4901 479.964 20.7661 479.964C21.0421 479.952 21.1381 479.868 21.1381 479.604V477.204H15.3781C15.0781 478.56 14.4781 479.916 13.3141 480.936C13.1941 480.744 12.8341 480.42 12.6541 480.288C14.5621 478.608 14.7541 476.172 14.7541 474.264V470.592H22.0621ZM25.7221 474.372L24.8461 474.06C25.1461 472.572 26.2741 471.504 28.0621 471.504C29.7901 471.504 30.8461 472.5 30.8461 474.024C30.8461 474.828 30.4981 475.632 30.0661 476.208C29.8501 476.508 29.5741 476.796 29.2501 477.096C28.5901 477.684 28.1221 477.996 27.4381 478.428L26.5141 479.004H31.1581V480H24.6181V479.184L26.4421 477.972C26.7661 477.768 26.9941 477.612 27.1261 477.516C27.2581 477.432 27.4741 477.276 27.7621 477.072C28.0501 476.868 28.2661 476.688 28.4101 476.556C28.5421 476.424 28.7221 476.256 28.9261 476.04C29.4781 475.44 29.6821 474.888 29.7421 474.132C29.7421 473.04 29.0341 472.548 27.9901 472.548C27.3421 472.548 26.8261 472.728 26.4541 473.088C26.0821 473.448 25.8301 473.88 25.7221 474.372ZM32.9378 474.048L32.0378 473.64C32.4818 472.344 33.6458 471.492 35.3858 471.492C36.2138 471.492 36.8978 471.684 37.4258 472.068C37.9538 472.452 38.2178 472.968 38.2178 473.604C38.2178 474.576 37.7018 475.296 36.7418 475.572C37.6658 475.632 38.4098 476.328 38.4098 477.576C38.4098 478.368 38.1218 478.992 37.5458 479.436C36.9698 479.88 36.2378 480.108 35.3378 480.108C33.5018 480.108 32.2298 479.232 31.8098 477.852L32.7818 477.432C33.2978 478.524 34.1738 479.076 35.4098 479.076C36.5738 479.076 37.3058 478.536 37.3058 477.588C37.3058 476.664 36.5858 476.196 35.1458 476.196H34.2098V475.2H34.9538C36.2618 475.2 37.1138 474.612 37.1138 473.808C37.1138 472.98 36.4298 472.512 35.3378 472.512C34.0538 472.512 33.2738 473.172 32.9378 474.048Z" fill="#76848D"/>
<path d="M15.708 286.708L26.412 284.98L26.568 285.904L15.852 287.608L15.708 286.708ZM19.176 282.136H20.136V290.728C20.136 291.472 20.292 291.652 21.156 291.652C21.588 291.652 23.724 291.652 24.24 291.652C25.044 291.652 25.164 291.22 25.284 289.432C25.524 289.612 25.944 289.792 26.196 289.864C26.052 291.856 25.752 292.54 24.264 292.54C23.916 292.54 21.456 292.54 21.12 292.54C19.632 292.54 19.176 292.168 19.176 290.716V282.136ZM30.036 282.556H36.3V283.432H30.036V282.556ZM30.036 285.448H36.348V286.312H30.036V285.448ZM29.94 288.352H36.288V289.216H29.94V288.352ZM29.484 282.556H30.396V286.264C30.396 288.34 30.096 291.172 28.032 292.972C27.9 292.78 27.54 292.456 27.348 292.324C29.28 290.632 29.484 288.196 29.484 286.264V282.556ZM35.904 282.556H36.84V291.64C36.84 292.276 36.672 292.588 36.216 292.744C35.748 292.9 34.956 292.912 33.66 292.912C33.6 292.648 33.432 292.216 33.276 291.964C34.272 292 35.256 291.988 35.532 291.988C35.808 291.976 35.904 291.892 35.904 291.628V282.556Z" fill="#76848D"/>
<path d="M15.708 660.708L26.412 658.98L26.568 659.904L15.852 661.608L15.708 660.708ZM19.176 656.136H20.136V664.728C20.136 665.472 20.292 665.652 21.156 665.652C21.588 665.652 23.724 665.652 24.24 665.652C25.044 665.652 25.164 665.22 25.284 663.432C25.524 663.612 25.944 663.792 26.196 663.864C26.052 665.856 25.752 666.54 24.264 666.54C23.916 666.54 21.456 666.54 21.12 666.54C19.632 666.54 19.176 666.168 19.176 664.716V656.136ZM30.036 656.556H36.3V657.432H30.036V656.556ZM30.036 659.448H36.348V660.312H30.036V659.448ZM29.94 662.352H36.288V663.216H29.94V662.352ZM29.484 656.556H30.396V660.264C30.396 662.34 30.096 665.172 28.032 666.972C27.9 666.78 27.54 666.456 27.348 666.324C29.28 664.632 29.484 662.196 29.484 660.264V656.556ZM35.904 656.556H36.84V665.64C36.84 666.276 36.672 666.588 36.216 666.744C35.748 666.9 34.956 666.912 33.66 666.912C33.6 666.648 33.432 666.216 33.276 665.964C34.272 666 35.256 665.988 35.532 665.988C35.808 665.976 35.904 665.892 35.904 665.628V656.556Z" fill="#76848D"/>
<path d="M16.2 189.024H26.076V198.528H25.128V189.9H17.1V198.624H16.2V189.024ZM16.68 196.896H25.644V197.772H16.68V196.896ZM21.804 189.6H22.68V193.428C22.68 193.668 22.704 193.8 22.776 193.836C22.86 193.872 22.968 193.896 23.1 193.896C23.22 193.896 23.496 193.896 23.664 193.896C23.82 193.896 23.988 193.884 24.06 193.848C24.144 193.812 24.216 193.728 24.24 193.56C24.288 193.38 24.3 192.984 24.312 192.456C24.48 192.6 24.78 192.756 25.008 192.828C24.984 193.32 24.948 193.884 24.864 194.1C24.792 194.316 24.66 194.448 24.456 194.544C24.276 194.616 23.964 194.652 23.724 194.652C23.544 194.652 23.064 194.652 22.908 194.652C22.632 194.652 22.308 194.592 22.104 194.436C21.888 194.28 21.804 194.076 21.804 193.344V189.6ZM19.356 189.576H20.244C20.124 192.276 19.788 194.268 17.856 195.408C17.748 195.192 17.484 194.892 17.28 194.748C19.02 193.776 19.272 191.976 19.356 189.576ZM30.036 188.556H36.3V189.432H30.036V188.556ZM30.036 191.448H36.348V192.312H30.036V191.448ZM29.94 194.352H36.288V195.216H29.94V194.352ZM29.484 188.556H30.396V192.264C30.396 194.34 30.096 197.172 28.032 198.972C27.9 198.78 27.54 198.456 27.348 198.324C29.28 196.632 29.484 194.196 29.484 192.264V188.556ZM35.904 188.556H36.84V197.64C36.84 198.276 36.672 198.588 36.216 198.744C35.748 198.9 34.956 198.912 33.66 198.912C33.6 198.648 33.432 198.216 33.276 197.964C34.272 198 35.256 197.988 35.532 197.988C35.808 197.976 35.904 197.892 35.904 197.628V188.556Z" fill="#76848D"/>
<path d="M16.2 563.024H26.076V572.528H25.128V563.9H17.1V572.624H16.2V563.024ZM16.68 570.896H25.644V571.772H16.68V570.896ZM21.804 563.6H22.68V567.428C22.68 567.668 22.704 567.8 22.776 567.836C22.86 567.872 22.968 567.896 23.1 567.896C23.22 567.896 23.496 567.896 23.664 567.896C23.82 567.896 23.988 567.884 24.06 567.848C24.144 567.812 24.216 567.728 24.24 567.56C24.288 567.38 24.3 566.984 24.312 566.456C24.48 566.6 24.78 566.756 25.008 566.828C24.984 567.32 24.948 567.884 24.864 568.1C24.792 568.316 24.66 568.448 24.456 568.544C24.276 568.616 23.964 568.652 23.724 568.652C23.544 568.652 23.064 568.652 22.908 568.652C22.632 568.652 22.308 568.592 22.104 568.436C21.888 568.28 21.804 568.076 21.804 567.344V563.6ZM19.356 563.576H20.244C20.124 566.276 19.788 568.268 17.856 569.408C17.748 569.192 17.484 568.892 17.28 568.748C19.02 567.776 19.272 565.976 19.356 563.576ZM30.036 562.556H36.3V563.432H30.036V562.556ZM30.036 565.448H36.348V566.312H30.036V565.448ZM29.94 568.352H36.288V569.216H29.94V568.352ZM29.484 562.556H30.396V566.264C30.396 568.34 30.096 571.172 28.032 572.972C27.9 572.78 27.54 572.456 27.348 572.324C29.28 570.632 29.484 568.196 29.484 566.264V562.556ZM35.904 562.556H36.84V571.64C36.84 572.276 36.672 572.588 36.216 572.744C35.748 572.9 34.956 572.912 33.66 572.912C33.6 572.648 33.432 572.216 33.276 571.964C34.272 572 35.256 571.988 35.532 571.988C35.808 571.976 35.904 571.892 35.904 571.628V562.556Z" fill="#76848D"/>
<path d="M15.78 379.408H26.544V380.332H15.78V379.408ZM20.652 374.932H21.612V385.96H20.652V374.932ZM30.036 375.556H36.3V376.432H30.036V375.556ZM30.036 378.448H36.348V379.312H30.036V378.448ZM29.94 381.352H36.288V382.216H29.94V381.352ZM29.484 375.556H30.396V379.264C30.396 381.34 30.096 384.172 28.032 385.972C27.9 385.78 27.54 385.456 27.348 385.324C29.28 383.632 29.484 381.196 29.484 379.264V375.556ZM35.904 375.556H36.84V384.64C36.84 385.276 36.672 385.588 36.216 385.744C35.748 385.9 34.956 385.912 33.66 385.912C33.6 385.648 33.432 385.216 33.276 384.964C34.272 385 35.256 384.988 35.532 384.988C35.808 384.976 35.904 384.892 35.904 384.628V375.556Z" fill="#76848D"/>
<path d="M15.78 753.408H26.544V754.332H15.78V753.408ZM20.652 748.932H21.612V759.96H20.652V748.932ZM30.036 749.556H36.3V750.432H30.036V749.556ZM30.036 752.448H36.348V753.312H30.036V752.448ZM29.94 755.352H36.288V756.216H29.94V755.352ZM29.484 749.556H30.396V753.264C30.396 755.34 30.096 758.172 28.032 759.972C27.9 759.78 27.54 759.456 27.348 759.324C29.28 757.632 29.484 755.196 29.484 753.264V749.556ZM35.904 749.556H36.84V758.64C36.84 759.276 36.672 759.588 36.216 759.744C35.748 759.9 34.956 759.912 33.66 759.912C33.6 759.648 33.432 759.216 33.276 758.964C34.272 759 35.256 758.988 35.532 758.988C35.808 758.976 35.904 758.892 35.904 758.628V749.556Z" fill="#76848D"/>
<path d="M16.812 127.648H25.428V128.608H16.812V127.648ZM15.792 134.764H26.448V135.772H15.792V134.764ZM30.036 126.556H36.3V127.432H30.036V126.556ZM30.036 129.448H36.348V130.312H30.036V129.448ZM29.94 132.352H36.288V133.216H29.94V132.352ZM29.484 126.556H30.396V130.264C30.396 132.34 30.096 135.172 28.032 136.972C27.9 136.78 27.54 136.456 27.348 136.324C29.28 134.632 29.484 132.196 29.484 130.264V126.556ZM35.904 126.556H36.84V135.64C36.84 136.276 36.672 136.588 36.216 136.744C35.748 136.9 34.956 136.912 33.66 136.912C33.6 136.648 33.432 136.216 33.276 135.964C34.272 136 35.256 135.988 35.532 135.988C35.808 135.976 35.904 135.892 35.904 135.628V126.556Z" fill="#76848D"/>
<path d="M16.812 502.648H25.428V503.608H16.812V502.648ZM15.792 509.764H26.448V510.772H15.792V509.764ZM30.036 501.556H36.3V502.432H30.036V501.556ZM30.036 504.448H36.348V505.312H30.036V504.448ZM29.94 507.352H36.288V508.216H29.94V507.352ZM29.484 501.556H30.396V505.264C30.396 507.34 30.096 510.172 28.032 511.972C27.9 511.78 27.54 511.456 27.348 511.324C29.28 509.632 29.484 507.196 29.484 505.264V501.556ZM35.904 501.556H36.84V510.64C36.84 511.276 36.672 511.588 36.216 511.744C35.748 511.9 34.956 511.912 33.66 511.912C33.6 511.648 33.432 511.216 33.276 510.964C34.272 511 35.256 510.988 35.532 510.988C35.808 510.976 35.904 510.892 35.904 510.628V501.556Z" fill="#76848D"/>
<path d="M18.24 312.868H22.896V313.804H18.24V312.868ZM22.152 312.868H23.256C23.604 316.96 24.42 320.548 26.64 322.252C26.376 322.42 25.98 322.744 25.764 322.972C23.544 321.076 22.74 317.464 22.368 313.384H22.152V312.868ZM18.552 315.148L19.572 315.292C19.116 318.064 18.288 321.184 16.332 322.996C16.164 322.816 15.816 322.504 15.588 322.348C17.46 320.656 18.228 317.68 18.552 315.148ZM30.036 312.556H36.3V313.432H30.036V312.556ZM30.036 315.448H36.348V316.312H30.036V315.448ZM29.94 318.352H36.288V319.216H29.94V318.352ZM29.484 312.556H30.396V316.264C30.396 318.34 30.096 321.172 28.032 322.972C27.9 322.78 27.54 322.456 27.348 322.324C29.28 320.632 29.484 318.196 29.484 316.264V312.556ZM35.904 312.556H36.84V321.64C36.84 322.276 36.672 322.588 36.216 322.744C35.748 322.9 34.956 322.912 33.66 322.912C33.6 322.648 33.432 322.216 33.276 321.964C34.272 322 35.256 321.988 35.532 321.988C35.808 321.976 35.904 321.892 35.904 321.628V312.556Z" fill="#76848D"/>
<path d="M18.24 687.868H22.896V688.804H18.24V687.868ZM22.152 687.868H23.256C23.604 691.96 24.42 695.548 26.64 697.252C26.376 697.42 25.98 697.744 25.764 697.972C23.544 696.076 22.74 692.464 22.368 688.384H22.152V687.868ZM18.552 690.148L19.572 690.292C19.116 693.064 18.288 696.184 16.332 697.996C16.164 697.816 15.816 697.504 15.588 697.348C17.46 695.656 18.228 692.68 18.552 690.148ZM30.036 687.556H36.3V688.432H30.036V687.556ZM30.036 690.448H36.348V691.312H30.036V690.448ZM29.94 693.352H36.288V694.216H29.94V693.352ZM29.484 687.556H30.396V691.264C30.396 693.34 30.096 696.172 28.032 697.972C27.9 697.78 27.54 697.456 27.348 697.324C29.28 695.632 29.484 693.196 29.484 691.264V687.556ZM35.904 687.556H36.84V696.64C36.84 697.276 36.672 697.588 36.216 697.744C35.748 697.9 34.956 697.912 33.66 697.912C33.6 697.648 33.432 697.216 33.276 696.964C34.272 697 35.256 696.988 35.532 696.988C35.808 696.976 35.904 696.892 35.904 696.628V687.556Z" fill="#76848D"/>
<path d="M16.548 220.096H25.62V220.984H16.548V220.096ZM15.792 228.412H26.472V229.312H15.792V228.412ZM20.064 220.408H21.06C20.592 223.156 19.86 226.864 19.356 228.964H18.348C18.912 226.804 19.656 223.084 20.064 220.408ZM17.016 223.624H24.48V228.82H23.556V224.512H17.016V223.624ZM30.036 219.556H36.3V220.432H30.036V219.556ZM30.036 222.448H36.348V223.312H30.036V222.448ZM29.94 225.352H36.288V226.216H29.94V225.352ZM29.484 219.556H30.396V223.264C30.396 225.34 30.096 228.172 28.032 229.972C27.9 229.78 27.54 229.456 27.348 229.324C29.28 227.632 29.484 225.196 29.484 223.264V219.556ZM35.904 219.556H36.84V228.64C36.84 229.276 36.672 229.588 36.216 229.744C35.748 229.9 34.956 229.912 33.66 229.912C33.6 229.648 33.432 229.216 33.276 228.964C34.272 229 35.256 228.988 35.532 228.988C35.808 228.976 35.904 228.892 35.904 228.628V219.556Z" fill="#76848D"/>
<path d="M16.548 594.096H25.62V594.984H16.548V594.096ZM15.792 602.412H26.472V603.312H15.792V602.412ZM20.064 594.408H21.06C20.592 597.156 19.86 600.864 19.356 602.964H18.348C18.912 600.804 19.656 597.084 20.064 594.408ZM17.016 597.624H24.48V602.82H23.556V598.512H17.016V597.624ZM30.036 593.556H36.3V594.432H30.036V593.556ZM30.036 596.448H36.348V597.312H30.036V596.448ZM29.94 599.352H36.288V600.216H29.94V599.352ZM29.484 593.556H30.396V597.264C30.396 599.34 30.096 602.172 28.032 603.972C27.9 603.78 27.54 603.456 27.348 603.324C29.28 601.632 29.484 599.196 29.484 597.264V593.556ZM35.904 593.556H36.84V602.64C36.84 603.276 36.672 603.588 36.216 603.744C35.748 603.9 34.956 603.912 33.66 603.912C33.6 603.648 33.432 603.216 33.276 602.964C34.272 603 35.256 602.988 35.532 602.988C35.808 602.976 35.904 602.892 35.904 602.628V593.556Z" fill="#76848D"/>
<path d="M3.9 410.408H14.664V411.332H3.9V410.408ZM8.772 405.932H9.732V416.96H8.772V405.932ZM15.648 410.828H26.628V411.812H15.648V410.828ZM30.036 406.556H36.3V407.432H30.036V406.556ZM30.036 409.448H36.348V410.312H30.036V409.448ZM29.94 412.352H36.288V413.216H29.94V412.352ZM29.484 406.556H30.396V410.264C30.396 412.34 30.096 415.172 28.032 416.972C27.9 416.78 27.54 416.456 27.348 416.324C29.28 414.632 29.484 412.196 29.484 410.264V406.556ZM35.904 406.556H36.84V415.64C36.84 416.276 36.672 416.588 36.216 416.744C35.748 416.9 34.956 416.912 33.66 416.912C33.6 416.648 33.432 416.216 33.276 415.964C34.272 416 35.256 415.988 35.532 415.988C35.808 415.976 35.904 415.892 35.904 415.628V406.556Z" fill="#76848D"/>
<path d="M3.9 785.408H14.664V786.332H3.9V785.408ZM8.772 780.932H9.732V791.96H8.772V780.932ZM15.648 785.828H26.628V786.812H15.648V785.828ZM30.036 781.556H36.3V782.432H30.036V781.556ZM30.036 784.448H36.348V785.312H30.036V784.448ZM29.94 787.352H36.288V788.216H29.94V787.352ZM29.484 781.556H30.396V785.264C30.396 787.34 30.096 790.172 28.032 791.972C27.9 791.78 27.54 791.456 27.348 791.324C29.28 789.632 29.484 787.196 29.484 785.264V781.556ZM35.904 781.556H36.84V790.64C36.84 791.276 36.672 791.588 36.216 791.744C35.748 791.9 34.956 791.912 33.66 791.912C33.6 791.648 33.432 791.216 33.276 790.964C34.272 791 35.256 790.988 35.532 790.988C35.808 790.976 35.904 790.892 35.904 790.628V781.556Z" fill="#76848D"/>
<path d="M16.596 158.096H25.668V158.996H16.596V158.096ZM17.364 162.02H24.72V162.92H17.364V162.02ZM15.9 166.184H26.316V167.096H15.9V166.184ZM30.036 157.556H36.3V158.432H30.036V157.556ZM30.036 160.448H36.348V161.312H30.036V160.448ZM29.94 163.352H36.288V164.216H29.94V163.352ZM29.484 157.556H30.396V161.264C30.396 163.34 30.096 166.172 28.032 167.972C27.9 167.78 27.54 167.456 27.348 167.324C29.28 165.632 29.484 163.196 29.484 161.264V157.556ZM35.904 157.556H36.84V166.64C36.84 167.276 36.672 167.588 36.216 167.744C35.748 167.9 34.956 167.912 33.66 167.912C33.6 167.648 33.432 167.216 33.276 166.964C34.272 167 35.256 166.988 35.532 166.988C35.808 166.976 35.904 166.892 35.904 166.628V157.556Z" fill="#76848D"/>
<path d="M16.596 533.096H25.668V533.996H16.596V533.096ZM17.364 537.02H24.72V537.92H17.364V537.02ZM15.9 541.184H26.316V542.096H15.9V541.184ZM30.036 532.556H36.3V533.432H30.036V532.556ZM30.036 535.448H36.348V536.312H30.036V535.448ZM29.94 538.352H36.288V539.216H29.94V538.352ZM29.484 532.556H30.396V536.264C30.396 538.34 30.096 541.172 28.032 542.972C27.9 542.78 27.54 542.456 27.348 542.324C29.28 540.632 29.484 538.196 29.484 536.264V532.556ZM35.904 532.556H36.84V541.64C36.84 542.276 36.672 542.588 36.216 542.744C35.748 542.9 34.956 542.912 33.66 542.912C33.6 542.648 33.432 542.216 33.276 541.964C34.272 542 35.256 541.988 35.532 541.988C35.808 541.976 35.904 541.892 35.904 541.628V532.556Z" fill="#76848D"/>
<path d="M19.356 344.052H20.328C20.292 348.648 20.28 352.884 16.188 354.972C16.056 354.744 15.756 354.42 15.516 354.252C19.44 352.368 19.344 348.408 19.356 344.052ZM16.068 347.004H23.508V347.904H16.068V347.004ZM22.956 347.004H23.88V353.4C23.88 353.832 23.94 353.904 24.312 353.904C24.48 353.904 25.32 353.904 25.548 353.904C25.884 353.904 25.944 353.616 25.98 352.164C26.196 352.332 26.58 352.5 26.832 352.572C26.748 354.252 26.508 354.792 25.62 354.792C25.416 354.792 24.372 354.792 24.18 354.792C23.256 354.792 22.956 354.504 22.956 353.4V347.004ZM30.036 344.556H36.3V345.432H30.036V344.556ZM30.036 347.448H36.348V348.312H30.036V347.448ZM29.94 350.352H36.288V351.216H29.94V350.352ZM29.484 344.556H30.396V348.264C30.396 350.34 30.096 353.172 28.032 354.972C27.9 354.78 27.54 354.456 27.348 354.324C29.28 352.632 29.484 350.196 29.484 348.264V344.556ZM35.904 344.556H36.84V353.64C36.84 354.276 36.672 354.588 36.216 354.744C35.748 354.9 34.956 354.912 33.66 354.912C33.6 354.648 33.432 354.216 33.276 353.964C34.272 354 35.256 353.988 35.532 353.988C35.808 353.976 35.904 353.892 35.904 353.628V344.556Z" fill="#76848D"/>
<path d="M19.356 718.052H20.328C20.292 722.648 20.28 726.884 16.188 728.972C16.056 728.744 15.756 728.42 15.516 728.252C19.44 726.368 19.344 722.408 19.356 718.052ZM16.068 721.004H23.508V721.904H16.068V721.004ZM22.956 721.004H23.88V727.4C23.88 727.832 23.94 727.904 24.312 727.904C24.48 727.904 25.32 727.904 25.548 727.904C25.884 727.904 25.944 727.616 25.98 726.164C26.196 726.332 26.58 726.5 26.832 726.572C26.748 728.252 26.508 728.792 25.62 728.792C25.416 728.792 24.372 728.792 24.18 728.792C23.256 728.792 22.956 728.504 22.956 727.4V721.004ZM30.036 718.556H36.3V719.432H30.036V718.556ZM30.036 721.448H36.348V722.312H30.036V721.448ZM29.94 724.352H36.288V725.216H29.94V724.352ZM29.484 718.556H30.396V722.264C30.396 724.34 30.096 727.172 28.032 728.972C27.9 728.78 27.54 728.456 27.348 728.324C29.28 726.632 29.484 724.196 29.484 722.264V718.556ZM35.904 718.556H36.84V727.64C36.84 728.276 36.672 728.588 36.216 728.744C35.748 728.9 34.956 728.912 33.66 728.912C33.6 728.648 33.432 728.216 33.276 727.964C34.272 728 35.256 727.988 35.532 727.988C35.808 727.976 35.904 727.892 35.904 727.628V718.556Z" fill="#76848D"/>
<path d="M15.84 253.764H26.4V254.688H15.84V253.764ZM20.592 250.98H21.564V254.232H20.592V250.98ZM18.624 256.344L19.632 256.596C18.864 258.612 17.688 260.592 16.5 261.864C16.32 261.696 15.876 261.372 15.624 261.228C16.836 260.052 17.952 258.192 18.624 256.344ZM22.536 256.728L23.436 256.356C24.576 257.928 25.884 260.04 26.412 261.408L25.428 261.84C24.936 260.508 23.688 258.336 22.536 256.728ZM30.036 251.556H36.3V252.432H30.036V251.556ZM30.036 254.448H36.348V255.312H30.036V254.448ZM29.94 257.352H36.288V258.216H29.94V257.352ZM29.484 251.556H30.396V255.264C30.396 257.34 30.096 260.172 28.032 261.972C27.9 261.78 27.54 261.456 27.348 261.324C29.28 259.632 29.484 257.196 29.484 255.264V251.556ZM35.904 251.556H36.84V260.64C36.84 261.276 36.672 261.588 36.216 261.744C35.748 261.9 34.956 261.912 33.66 261.912C33.6 261.648 33.432 261.216 33.276 260.964C34.272 261 35.256 260.988 35.532 260.988C35.808 260.976 35.904 260.892 35.904 260.628V251.556Z" fill="#76848D"/>
<path d="M15.84 627.764H26.4V628.688H15.84V627.764ZM20.592 624.98H21.564V628.232H20.592V624.98ZM18.624 630.344L19.632 630.596C18.864 632.612 17.688 634.592 16.5 635.864C16.32 635.696 15.876 635.372 15.624 635.228C16.836 634.052 17.952 632.192 18.624 630.344ZM22.536 630.728L23.436 630.356C24.576 631.928 25.884 634.04 26.412 635.408L25.428 635.84C24.936 634.508 23.688 632.336 22.536 630.728ZM30.036 625.556H36.3V626.432H30.036V625.556ZM30.036 628.448H36.348V629.312H30.036V628.448ZM29.94 631.352H36.288V632.216H29.94V631.352ZM29.484 625.556H30.396V629.264C30.396 631.34 30.096 634.172 28.032 635.972C27.9 635.78 27.54 635.456 27.348 635.324C29.28 633.632 29.484 631.196 29.484 629.264V625.556ZM35.904 625.556H36.84V634.64C36.84 635.276 36.672 635.588 36.216 635.744C35.748 635.9 34.956 635.912 33.66 635.912C33.6 635.648 33.432 635.216 33.276 634.964C34.272 635 35.256 634.988 35.532 634.988C35.808 634.976 35.904 634.892 35.904 634.628V625.556Z" fill="#76848D"/>
<path d="M3.9 441.408H14.664V442.332H3.9V441.408ZM8.772 436.932H9.732V447.96H8.772V436.932ZM16.812 438.648H25.428V439.608H16.812V438.648ZM15.792 445.764H26.448V446.772H15.792V445.764ZM30.036 437.556H36.3V438.432H30.036V437.556ZM30.036 440.448H36.348V441.312H30.036V440.448ZM29.94 443.352H36.288V444.216H29.94V443.352ZM29.484 437.556H30.396V441.264C30.396 443.34 30.096 446.172 28.032 447.972C27.9 447.78 27.54 447.456 27.348 447.324C29.28 445.632 29.484 443.196 29.484 441.264V437.556ZM35.904 437.556H36.84V446.64C36.84 447.276 36.672 447.588 36.216 447.744C35.748 447.9 34.956 447.912 33.66 447.912C33.6 447.648 33.432 447.216 33.276 446.964C34.272 447 35.256 446.988 35.532 446.988C35.808 446.976 35.904 446.892 35.904 446.628V437.556Z" fill="#76848D"/>
<path d="M3.9 815.408H14.664V816.332H3.9V815.408ZM8.772 810.932H9.732V821.96H8.772V810.932ZM16.812 812.648H25.428V813.608H16.812V812.648ZM15.792 819.764H26.448V820.772H15.792V819.764ZM30.036 811.556H36.3V812.432H30.036V811.556ZM30.036 814.448H36.348V815.312H30.036V814.448ZM29.94 817.352H36.288V818.216H29.94V817.352ZM29.484 811.556H30.396V815.264C30.396 817.34 30.096 820.172 28.032 821.972C27.9 821.78 27.54 821.456 27.348 821.324C29.28 819.632 29.484 817.196 29.484 815.264V811.556ZM35.904 811.556H36.84V820.64C36.84 821.276 36.672 821.588 36.216 821.744C35.748 821.9 34.956 821.912 33.66 821.912C33.6 821.648 33.432 821.216 33.276 820.964C34.272 821 35.256 820.988 35.532 820.988C35.808 820.976 35.904 820.892 35.904 820.628V811.556Z" fill="#76848D"/>
<line x1="85" y1="80" x2="84.9999" y2="829" stroke="#7BC3F8" stroke-width="2"/>
<path d="M135.254 101C131.111 115.86 125.932 129.233 149.755 137.406C173.577 145.579 201.543 153.008 210.865 158.952C220.187 164.896 230.545 167.125 227.438 185.699C224.33 204.274 230.545 197.587 224.33 213.189C218.116 228.792 211.901 242.908 206.722 257.025C201.543 271.142 201.543 277.828 197.4 294.174C193.257 310.519 190.15 319.435 190.15 329.094C190.15 338.752 186.007 354.355 180.828 362.528C175.649 370.7 171.506 383.331 170.47 395.961C169.434 408.592 168.398 418.251 167.363 433.11C166.327 447.97 167.363 461.343 167.363 470.259C167.363 479.175 170.47 503.451 152.862 510.881C135.254 518.311 103.145 521.524 92.787 525.982C82.4293 530.44 70 534.898 70 557.187C70 579.477 71.7799 590.542 73.1073 598.794C76.2146 618.111 83.465 627.77 87.6081 643.373C91.7512 658.975 99.0016 679.778 102.109 697.61C105.216 715.441 112.467 734.016 116.61 753.333C120.753 772.65 135.321 809.183 140.5 828.5" stroke="#737AF9" stroke-width="3" stroke-linejoin="round"/>
<defs>
<linearGradient id="paint0_linear_7005_27935" x1="0.476191" y1="12" x2="10" y2="12" gradientUnits="userSpaceOnUse">
<stop stop-color="#CEE8EF"/>
<stop offset="1" stop-color="#CEE8EF"/>
</linearGradient>
</defs>
</svg>
