<svg width="1160" height="360" viewBox="0 0 1160 360" fill="none" xmlns="http://www.w3.org/2000/svg">
<rect width="1160" height="360" fill="white"/>
<line x1="46" y1="207.5" x2="1141" y2="207.5" stroke="#CEE0ED"/>
<line x1="46" y1="121.5" x2="1141" y2="121.5" stroke="#CEE0ED"/>
<line x1="46" y1="35.5" x2="1141" y2="35.5001" stroke="#CEE0ED"/>
<path d="M66.5145 65.804L66.0665 64.754L69.4265 63.144H70.2245V73H69.0205V64.642L66.5145 65.804ZM78.7719 73H77.5539V70.998H71.5619V70.186L77.6939 63.2H78.7719V69.864H80.5919V70.998H78.7719V73ZM77.5539 65.16L73.2419 69.864H77.5539V65.16ZM81.3741 72.202C81.3741 71.81 81.7381 71.418 82.2421 71.418C82.7041 71.418 83.0821 71.81 83.0821 72.202C83.0821 72.65 82.7321 73.028 82.2421 73.028C81.7381 73.028 81.3741 72.65 81.3741 72.202ZM88.1037 67.414H88.5377C89.1677 67.414 89.6857 67.26 90.1197 66.966C90.5397 66.672 90.7497 66.28 90.7497 65.818C90.7497 64.768 89.9237 64.236 88.2857 64.236C86.7177 64.236 85.8637 64.81 85.8637 65.818C85.8637 66.728 86.8017 67.414 88.1037 67.414ZM88.5097 68.52H88.1597C87.4037 68.52 86.7737 68.688 86.2837 69.01C85.7937 69.332 85.5417 69.738 85.5417 70.228C85.5417 71.292 86.5217 71.964 88.2997 71.964C90.1057 71.964 91.0717 71.32 91.0717 70.242C91.0717 69.164 90.0357 68.52 88.5097 68.52ZM91.2677 72.37C90.5537 72.874 89.5597 73.126 88.3137 73.126C87.0677 73.126 86.0737 72.874 85.3457 72.384C84.6177 71.894 84.2537 71.222 84.2537 70.354C84.2537 69.22 84.9957 68.324 86.1857 67.932C85.1077 67.582 84.5757 66.728 84.5757 65.734C84.5757 64.11 85.9477 63.074 88.2997 63.074C90.6657 63.074 92.0377 64.11 92.0377 65.734C92.0377 66.672 91.5197 67.386 90.4837 67.862C91.7297 68.24 92.3457 69.052 92.3457 70.298C92.3457 71.18 91.9817 71.88 91.2677 72.37Z" fill="#2A3C3C"/>
<path d="M66.5145 65.804L66.0665 64.754L69.4265 63.144H70.2245V73H69.0205V64.642L66.5145 65.804ZM78.7719 73H77.5539V70.998H71.5619V70.186L77.6939 63.2H78.7719V69.864H80.5919V70.998H78.7719V73ZM77.5539 65.16L73.2419 69.864H77.5539V65.16ZM81.3741 72.202C81.3741 71.81 81.7381 71.418 82.2421 71.418C82.7041 71.418 83.0821 71.81 83.0821 72.202C83.0821 72.65 82.7321 73.028 82.2421 73.028C81.7381 73.028 81.3741 72.65 81.3741 72.202ZM88.1037 67.414H88.5377C89.1677 67.414 89.6857 67.26 90.1197 66.966C90.5397 66.672 90.7497 66.28 90.7497 65.818C90.7497 64.768 89.9237 64.236 88.2857 64.236C86.7177 64.236 85.8637 64.81 85.8637 65.818C85.8637 66.728 86.8017 67.414 88.1037 67.414ZM88.5097 68.52H88.1597C87.4037 68.52 86.7737 68.688 86.2837 69.01C85.7937 69.332 85.5417 69.738 85.5417 70.228C85.5417 71.292 86.5217 71.964 88.2997 71.964C90.1057 71.964 91.0717 71.32 91.0717 70.242C91.0717 69.164 90.0357 68.52 88.5097 68.52ZM91.2677 72.37C90.5537 72.874 89.5597 73.126 88.3137 73.126C87.0677 73.126 86.0737 72.874 85.3457 72.384C84.6177 71.894 84.2537 71.222 84.2537 70.354C84.2537 69.22 84.9957 68.324 86.1857 67.932C85.1077 67.582 84.5757 66.728 84.5757 65.734C84.5757 64.11 85.9477 63.074 88.2997 63.074C90.6657 63.074 92.0377 64.11 92.0377 65.734C92.0377 66.672 91.5197 67.386 90.4837 67.862C91.7297 68.24 92.3457 69.052 92.3457 70.298C92.3457 71.18 91.9817 71.88 91.2677 72.37Z" fill="#1A3341"/>
<path d="M67.576 304.84H78.472V305.812H67.576V304.84ZM82.276 306.328H87.892V304.312H82.408C82.408 304.936 82.372 305.62 82.276 306.328ZM87.892 301.468H82.408V303.46H87.892V301.468ZM88.816 300.592V309.616C88.816 310.24 88.636 310.552 88.192 310.696C87.736 310.852 86.944 310.864 85.66 310.864C85.6 310.612 85.432 310.192 85.288 309.94C86.284 309.976 87.244 309.964 87.52 309.964C87.796 309.952 87.892 309.868 87.892 309.604V307.204H82.132C81.832 308.56 81.232 309.916 80.068 310.936C79.948 310.744 79.588 310.42 79.408 310.288C81.316 308.608 81.508 306.172 81.508 304.264V300.592H88.816ZM73.1283 318.372L72.2523 318.06C72.5523 316.572 73.6803 315.504 75.4683 315.504C77.1963 315.504 78.2523 316.5 78.2523 318.024C78.2523 318.828 77.9043 319.632 77.4723 320.208C77.2563 320.508 76.9803 320.796 76.6563 321.096C75.9963 321.684 75.5283 321.996 74.8443 322.428L73.9203 323.004H78.5643V324H72.0243V323.184L73.8483 321.972C74.1723 321.768 74.4003 321.612 74.5323 321.516C74.6643 321.432 74.8803 321.276 75.1683 321.072C75.4563 320.868 75.6723 320.688 75.8163 320.556C75.9483 320.424 76.1283 320.256 76.3323 320.04C76.8843 319.44 77.0883 318.888 77.1483 318.132C77.1483 317.04 76.4403 316.548 75.3963 316.548C74.7483 316.548 74.2323 316.728 73.8603 317.088C73.4883 317.448 73.2363 317.88 73.1283 318.372ZM80.476 318.372L79.6 318.06C79.9 316.572 81.028 315.504 82.816 315.504C84.544 315.504 85.6 316.5 85.6 318.024C85.6 318.828 85.252 319.632 84.82 320.208C84.604 320.508 84.328 320.796 84.004 321.096C83.344 321.684 82.876 321.996 82.192 322.428L81.268 323.004H85.912V324H79.372V323.184L81.196 321.972C81.52 321.768 81.748 321.612 81.88 321.516C82.012 321.432 82.228 321.276 82.516 321.072C82.804 320.868 83.02 320.688 83.164 320.556C83.296 320.424 83.476 320.256 83.68 320.04C84.232 319.44 84.436 318.888 84.496 318.132C84.496 317.04 83.788 316.548 82.744 316.548C82.096 316.548 81.58 316.728 81.208 317.088C80.836 317.448 80.584 317.88 80.476 318.372Z" fill="#76848D"/>
<path d="M112.931 194.804L112.483 193.754L115.843 192.144H116.641V202H115.437V193.642L112.931 194.804ZM119.547 195.434L118.525 195.07C118.875 193.334 120.191 192.088 122.277 192.088C124.293 192.088 125.525 193.25 125.525 195.028C125.525 195.966 125.119 196.904 124.615 197.576C124.363 197.926 124.041 198.262 123.663 198.612C122.893 199.298 122.347 199.662 121.549 200.166L120.471 200.838H125.889V202H118.259V201.048L120.387 199.634C120.765 199.396 121.031 199.214 121.185 199.102C121.339 199.004 121.591 198.822 121.927 198.584C122.263 198.346 122.515 198.136 122.683 197.982C122.837 197.828 123.047 197.632 123.285 197.38C123.929 196.68 124.167 196.036 124.237 195.154C124.237 193.88 123.411 193.306 122.193 193.306C121.437 193.306 120.835 193.516 120.401 193.936C119.967 194.356 119.673 194.86 119.547 195.434ZM126.957 201.202C126.957 200.81 127.321 200.418 127.825 200.418C128.287 200.418 128.665 200.81 128.665 201.202C128.665 201.65 128.315 202.028 127.825 202.028C127.321 202.028 126.957 201.65 126.957 201.202ZM133.687 196.414H134.121C134.751 196.414 135.269 196.26 135.703 195.966C136.123 195.672 136.333 195.28 136.333 194.818C136.333 193.768 135.507 193.236 133.869 193.236C132.301 193.236 131.447 193.81 131.447 194.818C131.447 195.728 132.385 196.414 133.687 196.414ZM134.093 197.52H133.743C132.987 197.52 132.357 197.688 131.867 198.01C131.377 198.332 131.125 198.738 131.125 199.228C131.125 200.292 132.105 200.964 133.883 200.964C135.689 200.964 136.655 200.32 136.655 199.242C136.655 198.164 135.619 197.52 134.093 197.52ZM136.851 201.37C136.137 201.874 135.143 202.126 133.897 202.126C132.651 202.126 131.657 201.874 130.929 201.384C130.201 200.894 129.837 200.222 129.837 199.354C129.837 198.22 130.579 197.324 131.769 196.932C130.691 196.582 130.159 195.728 130.159 194.734C130.159 193.11 131.531 192.074 133.883 192.074C136.249 192.074 137.621 193.11 137.621 194.734C137.621 195.672 137.103 196.386 136.067 196.862C137.313 197.24 137.929 198.052 137.929 199.298C137.929 200.18 137.565 200.88 136.851 201.37Z" fill="#2A3C3C"/>
<path d="M112.931 194.804L112.483 193.754L115.843 192.144H116.641V202H115.437V193.642L112.931 194.804ZM119.547 195.434L118.525 195.07C118.875 193.334 120.191 192.088 122.277 192.088C124.293 192.088 125.525 193.25 125.525 195.028C125.525 195.966 125.119 196.904 124.615 197.576C124.363 197.926 124.041 198.262 123.663 198.612C122.893 199.298 122.347 199.662 121.549 200.166L120.471 200.838H125.889V202H118.259V201.048L120.387 199.634C120.765 199.396 121.031 199.214 121.185 199.102C121.339 199.004 121.591 198.822 121.927 198.584C122.263 198.346 122.515 198.136 122.683 197.982C122.837 197.828 123.047 197.632 123.285 197.38C123.929 196.68 124.167 196.036 124.237 195.154C124.237 193.88 123.411 193.306 122.193 193.306C121.437 193.306 120.835 193.516 120.401 193.936C119.967 194.356 119.673 194.86 119.547 195.434ZM126.957 201.202C126.957 200.81 127.321 200.418 127.825 200.418C128.287 200.418 128.665 200.81 128.665 201.202C128.665 201.65 128.315 202.028 127.825 202.028C127.321 202.028 126.957 201.65 126.957 201.202ZM133.687 196.414H134.121C134.751 196.414 135.269 196.26 135.703 195.966C136.123 195.672 136.333 195.28 136.333 194.818C136.333 193.768 135.507 193.236 133.869 193.236C132.301 193.236 131.447 193.81 131.447 194.818C131.447 195.728 132.385 196.414 133.687 196.414ZM134.093 197.52H133.743C132.987 197.52 132.357 197.688 131.867 198.01C131.377 198.332 131.125 198.738 131.125 199.228C131.125 200.292 132.105 200.964 133.883 200.964C135.689 200.964 136.655 200.32 136.655 199.242C136.655 198.164 135.619 197.52 134.093 197.52ZM136.851 201.37C136.137 201.874 135.143 202.126 133.897 202.126C132.651 202.126 131.657 201.874 130.929 201.384C130.201 200.894 129.837 200.222 129.837 199.354C129.837 198.22 130.579 197.324 131.769 196.932C130.691 196.582 130.159 195.728 130.159 194.734C130.159 193.11 131.531 192.074 133.883 192.074C136.249 192.074 137.621 193.11 137.621 194.734C137.621 195.672 137.103 196.386 136.067 196.862C137.313 197.24 137.929 198.052 137.929 199.298C137.929 200.18 137.565 200.88 136.851 201.37Z" fill="#1A3341"/>
<path d="M114.752 299.648H123.368V300.608H114.752V299.648ZM113.732 306.764H124.388V307.772H113.732V306.764ZM127.976 298.556H134.24V299.432H127.976V298.556ZM127.976 301.448H134.288V302.312H127.976V301.448ZM127.88 304.352H134.228V305.216H127.88V304.352ZM127.424 298.556H128.336V302.264C128.336 304.34 128.036 307.172 125.972 308.972C125.84 308.78 125.48 308.456 125.288 308.324C127.22 306.632 127.424 304.196 127.424 302.264V298.556ZM133.844 298.556H134.78V307.64C134.78 308.276 134.612 308.588 134.156 308.744C133.688 308.9 132.896 308.912 131.6 308.912C131.54 308.648 131.372 308.216 131.216 307.964C132.212 308 133.196 307.988 133.472 307.988C133.748 307.976 133.844 307.892 133.844 307.628V298.556Z" fill="#76848D"/>
<path d="M158.698 50.804L158.25 49.754L161.61 48.144H162.408V58H161.204V49.642L158.698 50.804ZM165.621 53.492L164.613 53.226L165.187 48.2H171.347V49.39H166.265L165.901 52.022C166.391 51.658 167.133 51.476 168.127 51.476C169.275 51.476 170.171 51.784 170.829 52.386C171.473 53.002 171.795 53.786 171.795 54.752C171.795 55.718 171.431 56.53 170.717 57.16C169.989 57.804 169.079 58.126 168.001 58.126C166.167 58.126 164.641 57.258 164.011 55.732L165.131 55.256C165.537 56.194 166.587 56.936 168.001 56.936C169.611 56.936 170.507 56.012 170.507 54.794C170.507 53.492 169.457 52.652 167.791 52.652C166.895 52.652 166.167 52.932 165.621 53.492ZM172.956 57.202C172.956 56.81 173.32 56.418 173.824 56.418C174.286 56.418 174.664 56.81 174.664 57.202C174.664 57.65 174.314 58.028 173.824 58.028C173.32 58.028 172.956 57.65 172.956 57.202ZM176.942 51.434L175.92 51.07C176.27 49.334 177.586 48.088 179.672 48.088C181.688 48.088 182.92 49.25 182.92 51.028C182.92 51.966 182.514 52.904 182.01 53.576C181.758 53.926 181.436 54.262 181.058 54.612C180.288 55.298 179.742 55.662 178.944 56.166L177.866 56.838H183.284V58H175.654V57.048L177.782 55.634C178.16 55.396 178.426 55.214 178.58 55.102C178.734 55.004 178.986 54.822 179.322 54.584C179.658 54.346 179.91 54.136 180.078 53.982C180.232 53.828 180.442 53.632 180.68 53.38C181.324 52.68 181.562 52.036 181.632 51.154C181.632 49.88 180.806 49.306 179.588 49.306C178.832 49.306 178.23 49.516 177.796 49.936C177.362 50.356 177.068 50.86 176.942 51.434Z" fill="#2A3C3C"/>
<path d="M158.698 50.804L158.25 49.754L161.61 48.144H162.408V58H161.204V49.642L158.698 50.804ZM165.621 53.492L164.613 53.226L165.187 48.2H171.347V49.39H166.265L165.901 52.022C166.391 51.658 167.133 51.476 168.127 51.476C169.275 51.476 170.171 51.784 170.829 52.386C171.473 53.002 171.795 53.786 171.795 54.752C171.795 55.718 171.431 56.53 170.717 57.16C169.989 57.804 169.079 58.126 168.001 58.126C166.167 58.126 164.641 57.258 164.011 55.732L165.131 55.256C165.537 56.194 166.587 56.936 168.001 56.936C169.611 56.936 170.507 56.012 170.507 54.794C170.507 53.492 169.457 52.652 167.791 52.652C166.895 52.652 166.167 52.932 165.621 53.492ZM172.956 57.202C172.956 56.81 173.32 56.418 173.824 56.418C174.286 56.418 174.664 56.81 174.664 57.202C174.664 57.65 174.314 58.028 173.824 58.028C173.32 58.028 172.956 57.65 172.956 57.202ZM176.942 51.434L175.92 51.07C176.27 49.334 177.586 48.088 179.672 48.088C181.688 48.088 182.92 49.25 182.92 51.028C182.92 51.966 182.514 52.904 182.01 53.576C181.758 53.926 181.436 54.262 181.058 54.612C180.288 55.298 179.742 55.662 178.944 56.166L177.866 56.838H183.284V58H175.654V57.048L177.782 55.634C178.16 55.396 178.426 55.214 178.58 55.102C178.734 55.004 178.986 54.822 179.322 54.584C179.658 54.346 179.91 54.136 180.078 53.982C180.232 53.828 180.442 53.632 180.68 53.38C181.324 52.68 181.562 52.036 181.632 51.154C181.632 49.88 180.806 49.306 179.588 49.306C178.832 49.306 178.23 49.516 177.796 49.936C177.362 50.356 177.068 50.86 176.942 51.434Z" fill="#1A3341"/>
<path d="M160.536 299.096H169.608V299.996H160.536V299.096ZM161.304 303.02H168.66V303.92H161.304V303.02ZM159.84 307.184H170.256V308.096H159.84V307.184ZM173.976 298.556H180.24V299.432H173.976V298.556ZM173.976 301.448H180.288V302.312H173.976V301.448ZM173.88 304.352H180.228V305.216H173.88V304.352ZM173.424 298.556H174.336V302.264C174.336 304.34 174.036 307.172 171.972 308.972C171.84 308.78 171.48 308.456 171.288 308.324C173.22 306.632 173.424 304.196 173.424 302.264V298.556ZM179.844 298.556H180.78V307.64C180.78 308.276 180.612 308.588 180.156 308.744C179.688 308.9 178.896 308.912 177.6 308.912C177.54 308.648 177.372 308.216 177.216 307.964C178.212 308 179.196 307.988 179.472 307.988C179.748 307.976 179.844 307.892 179.844 307.628V298.556Z" fill="#76848D"/>
<path d="M204.781 121.804L204.333 120.754L207.693 119.144H208.491V129H207.287V120.642L204.781 121.804ZM217.038 129H215.82V126.998H209.828V126.186L215.96 119.2H217.038V125.864H218.858V126.998H217.038V129ZM215.82 121.16L211.508 125.864H215.82V121.16ZM219.641 128.202C219.641 127.81 220.005 127.418 220.509 127.418C220.971 127.418 221.349 127.81 221.349 128.202C221.349 128.65 220.999 129.028 220.509 129.028C220.005 129.028 219.641 128.65 219.641 128.202ZM223.934 124.492L222.926 124.226L223.5 119.2H229.66V120.39H224.578L224.214 123.022C224.704 122.658 225.446 122.476 226.44 122.476C227.588 122.476 228.484 122.784 229.142 123.386C229.786 124.002 230.108 124.786 230.108 125.752C230.108 126.718 229.744 127.53 229.03 128.16C228.302 128.804 227.392 129.126 226.314 129.126C224.48 129.126 222.954 128.258 222.324 126.732L223.444 126.256C223.85 127.194 224.9 127.936 226.314 127.936C227.924 127.936 228.82 127.012 228.82 125.794C228.82 124.492 227.77 123.652 226.104 123.652C225.208 123.652 224.48 123.932 223.934 124.492Z" fill="#2A3C3C"/>
<path d="M204.781 121.804L204.333 120.754L207.693 119.144H208.491V129H207.287V120.642L204.781 121.804ZM217.038 129H215.82V126.998H209.828V126.186L215.96 119.2H217.038V125.864H218.858V126.998H217.038V129ZM215.82 121.16L211.508 125.864H215.82V121.16ZM219.641 128.202C219.641 127.81 220.005 127.418 220.509 127.418C220.971 127.418 221.349 127.81 221.349 128.202C221.349 128.65 220.999 129.028 220.509 129.028C220.005 129.028 219.641 128.65 219.641 128.202ZM223.934 124.492L222.926 124.226L223.5 119.2H229.66V120.39H224.578L224.214 123.022C224.704 122.658 225.446 122.476 226.44 122.476C227.588 122.476 228.484 122.784 229.142 123.386C229.786 124.002 230.108 124.786 230.108 125.752C230.108 126.718 229.744 127.53 229.03 128.16C228.302 128.804 227.392 129.126 226.314 129.126C224.48 129.126 222.954 128.258 222.324 126.732L223.444 126.256C223.85 127.194 224.9 127.936 226.314 127.936C227.924 127.936 228.82 127.012 228.82 125.794C228.82 124.492 227.77 123.652 226.104 123.652C225.208 123.652 224.48 123.932 223.934 124.492Z" fill="#1A3341"/>
<path d="M206.14 299.024H216.016V308.528H215.068V299.9H207.04V308.624H206.14V299.024ZM206.62 306.896H215.584V307.772H206.62V306.896ZM211.744 299.6H212.62V303.428C212.62 303.668 212.644 303.8 212.716 303.836C212.8 303.872 212.908 303.896 213.04 303.896C213.16 303.896 213.436 303.896 213.604 303.896C213.76 303.896 213.928 303.884 214 303.848C214.084 303.812 214.156 303.728 214.18 303.56C214.228 303.38 214.24 302.984 214.252 302.456C214.42 302.6 214.72 302.756 214.948 302.828C214.924 303.32 214.888 303.884 214.804 304.1C214.732 304.316 214.6 304.448 214.396 304.544C214.216 304.616 213.904 304.652 213.664 304.652C213.484 304.652 213.004 304.652 212.848 304.652C212.572 304.652 212.248 304.592 212.044 304.436C211.828 304.28 211.744 304.076 211.744 303.344V299.6ZM209.296 299.576H210.184C210.064 302.276 209.728 304.268 207.796 305.408C207.688 305.192 207.424 304.892 207.22 304.748C208.96 303.776 209.212 301.976 209.296 299.576ZM219.976 298.556H226.24V299.432H219.976V298.556ZM219.976 301.448H226.288V302.312H219.976V301.448ZM219.88 304.352H226.228V305.216H219.88V304.352ZM219.424 298.556H220.336V302.264C220.336 304.34 220.036 307.172 217.972 308.972C217.84 308.78 217.48 308.456 217.288 308.324C219.22 306.632 219.424 304.196 219.424 302.264V298.556ZM225.844 298.556H226.78V307.64C226.78 308.276 226.612 308.588 226.156 308.744C225.688 308.9 224.896 308.912 223.6 308.912C223.54 308.648 223.372 308.216 223.216 307.964C224.212 308 225.196 307.988 225.472 307.988C225.748 307.976 225.844 307.892 225.844 307.628V298.556Z" fill="#76848D"/>
<path d="M249.829 29.804L249.381 28.754L252.741 27.144H253.539V37H252.335V28.642L249.829 29.804ZM256.752 32.492L255.744 32.226L256.318 27.2H262.478V28.39H257.396L257.032 31.022C257.522 30.658 258.264 30.476 259.258 30.476C260.406 30.476 261.302 30.784 261.96 31.386C262.604 32.002 262.926 32.786 262.926 33.752C262.926 34.718 262.562 35.53 261.848 36.16C261.12 36.804 260.21 37.126 259.132 37.126C257.298 37.126 255.772 36.258 255.142 34.732L256.262 34.256C256.668 35.194 257.718 35.936 259.132 35.936C260.742 35.936 261.638 35.012 261.638 33.794C261.638 32.492 260.588 31.652 258.922 31.652C258.026 31.652 257.298 31.932 256.752 32.492ZM264.087 36.202C264.087 35.81 264.451 35.418 264.955 35.418C265.417 35.418 265.795 35.81 265.795 36.202C265.795 36.65 265.445 37.028 264.955 37.028C264.451 37.028 264.087 36.65 264.087 36.202ZM266.953 32.366C266.953 30.672 267.373 29.37 268.199 28.446C269.025 27.536 270.061 27.074 271.307 27.074C272.945 27.074 274.233 27.816 274.779 28.992L273.827 29.636C273.253 28.726 272.399 28.278 271.251 28.278C270.383 28.278 269.655 28.614 269.067 29.286C268.479 29.972 268.185 30.896 268.199 32.086C268.745 31.064 270.019 30.448 271.419 30.448C272.553 30.448 273.463 30.742 274.121 31.344C274.779 31.946 275.115 32.744 275.115 33.724C275.115 34.718 274.751 35.544 274.009 36.174C273.267 36.804 272.343 37.126 271.237 37.126C268.591 37.126 266.953 35.404 266.953 32.366ZM268.353 33.556C268.619 34.942 269.669 35.922 271.223 35.922C271.979 35.922 272.609 35.726 273.099 35.32C273.589 34.928 273.827 34.41 273.827 33.78C273.827 32.394 272.847 31.652 271.349 31.652C270.523 31.652 269.837 31.848 269.305 32.24C268.759 32.632 268.451 33.066 268.353 33.556Z" fill="#2A3C3C"/>
<path d="M249.829 29.804L249.381 28.754L252.741 27.144H253.539V37H252.335V28.642L249.829 29.804ZM256.752 32.492L255.744 32.226L256.318 27.2H262.478V28.39H257.396L257.032 31.022C257.522 30.658 258.264 30.476 259.258 30.476C260.406 30.476 261.302 30.784 261.96 31.386C262.604 32.002 262.926 32.786 262.926 33.752C262.926 34.718 262.562 35.53 261.848 36.16C261.12 36.804 260.21 37.126 259.132 37.126C257.298 37.126 255.772 36.258 255.142 34.732L256.262 34.256C256.668 35.194 257.718 35.936 259.132 35.936C260.742 35.936 261.638 35.012 261.638 33.794C261.638 32.492 260.588 31.652 258.922 31.652C258.026 31.652 257.298 31.932 256.752 32.492ZM264.087 36.202C264.087 35.81 264.451 35.418 264.955 35.418C265.417 35.418 265.795 35.81 265.795 36.202C265.795 36.65 265.445 37.028 264.955 37.028C264.451 37.028 264.087 36.65 264.087 36.202ZM266.953 32.366C266.953 30.672 267.373 29.37 268.199 28.446C269.025 27.536 270.061 27.074 271.307 27.074C272.945 27.074 274.233 27.816 274.779 28.992L273.827 29.636C273.253 28.726 272.399 28.278 271.251 28.278C270.383 28.278 269.655 28.614 269.067 29.286C268.479 29.972 268.185 30.896 268.199 32.086C268.745 31.064 270.019 30.448 271.419 30.448C272.553 30.448 273.463 30.742 274.121 31.344C274.779 31.946 275.115 32.744 275.115 33.724C275.115 34.718 274.751 35.544 274.009 36.174C273.267 36.804 272.343 37.126 271.237 37.126C268.591 37.126 266.953 35.404 266.953 32.366ZM268.353 33.556C268.619 34.942 269.669 35.922 271.223 35.922C271.979 35.922 272.609 35.726 273.099 35.32C273.589 34.928 273.827 34.41 273.827 33.78C273.827 32.394 272.847 31.652 271.349 31.652C270.523 31.652 269.837 31.848 269.305 32.24C268.759 32.632 268.451 33.066 268.353 33.556Z" fill="#1A3341"/>
<path d="M251.988 299.096H261.06V299.984H251.988V299.096ZM251.232 307.412H261.912V308.312H251.232V307.412ZM255.504 299.408H256.5C256.032 302.156 255.3 305.864 254.796 307.964H253.788C254.352 305.804 255.096 302.084 255.504 299.408ZM252.456 302.624H259.92V307.82H258.996V303.512H252.456V302.624ZM265.476 298.556H271.74V299.432H265.476V298.556ZM265.476 301.448H271.788V302.312H265.476V301.448ZM265.38 304.352H271.728V305.216H265.38V304.352ZM264.924 298.556H265.836V302.264C265.836 304.34 265.536 307.172 263.472 308.972C263.34 308.78 262.98 308.456 262.788 308.324C264.72 306.632 264.924 304.196 264.924 302.264V298.556ZM271.344 298.556H272.28V307.64C272.28 308.276 272.112 308.588 271.656 308.744C271.188 308.9 270.396 308.912 269.1 308.912C269.04 308.648 268.872 308.216 268.716 307.964C269.712 308 270.696 307.988 270.972 307.988C271.248 307.976 271.344 307.892 271.344 307.628V298.556Z" fill="#76848D"/>
<path d="M295.664 43.804L295.216 42.754L298.576 41.144H299.374V51H298.17V42.642L295.664 43.804ZM302.587 46.492L301.579 46.226L302.153 41.2H308.313V42.39H303.231L302.867 45.022C303.357 44.658 304.099 44.476 305.093 44.476C306.241 44.476 307.137 44.784 307.795 45.386C308.439 46.002 308.761 46.786 308.761 47.752C308.761 48.718 308.397 49.53 307.683 50.16C306.955 50.804 306.045 51.126 304.967 51.126C303.133 51.126 301.607 50.258 300.977 48.732L302.097 48.256C302.503 49.194 303.553 49.936 304.967 49.936C306.577 49.936 307.473 49.012 307.473 47.794C307.473 46.492 306.423 45.652 304.757 45.652C303.861 45.652 303.133 45.932 302.587 46.492ZM309.922 50.202C309.922 49.81 310.286 49.418 310.79 49.418C311.252 49.418 311.63 49.81 311.63 50.202C311.63 50.65 311.28 51.028 310.79 51.028C310.286 51.028 309.922 50.65 309.922 50.202ZM313.754 44.056L312.704 43.58C313.222 42.068 314.58 41.074 316.61 41.074C317.576 41.074 318.374 41.298 318.99 41.746C319.606 42.194 319.914 42.796 319.914 43.538C319.914 44.672 319.312 45.512 318.192 45.834C319.27 45.904 320.138 46.716 320.138 48.172C320.138 49.096 319.802 49.824 319.13 50.342C318.458 50.86 317.604 51.126 316.554 51.126C314.412 51.126 312.928 50.104 312.438 48.494L313.572 48.004C314.174 49.278 315.196 49.922 316.638 49.922C317.996 49.922 318.85 49.292 318.85 48.186C318.85 47.108 318.01 46.562 316.33 46.562H315.238V45.4H316.106C317.632 45.4 318.626 44.714 318.626 43.776C318.626 42.81 317.828 42.264 316.554 42.264C315.056 42.264 314.146 43.034 313.754 44.056Z" fill="#2A3C3C"/>
<path d="M295.664 43.804L295.216 42.754L298.576 41.144H299.374V51H298.17V42.642L295.664 43.804ZM302.587 46.492L301.579 46.226L302.153 41.2H308.313V42.39H303.231L302.867 45.022C303.357 44.658 304.099 44.476 305.093 44.476C306.241 44.476 307.137 44.784 307.795 45.386C308.439 46.002 308.761 46.786 308.761 47.752C308.761 48.718 308.397 49.53 307.683 50.16C306.955 50.804 306.045 51.126 304.967 51.126C303.133 51.126 301.607 50.258 300.977 48.732L302.097 48.256C302.503 49.194 303.553 49.936 304.967 49.936C306.577 49.936 307.473 49.012 307.473 47.794C307.473 46.492 306.423 45.652 304.757 45.652C303.861 45.652 303.133 45.932 302.587 46.492ZM309.922 50.202C309.922 49.81 310.286 49.418 310.79 49.418C311.252 49.418 311.63 49.81 311.63 50.202C311.63 50.65 311.28 51.028 310.79 51.028C310.286 51.028 309.922 50.65 309.922 50.202ZM313.754 44.056L312.704 43.58C313.222 42.068 314.58 41.074 316.61 41.074C317.576 41.074 318.374 41.298 318.99 41.746C319.606 42.194 319.914 42.796 319.914 43.538C319.914 44.672 319.312 45.512 318.192 45.834C319.27 45.904 320.138 46.716 320.138 48.172C320.138 49.096 319.802 49.824 319.13 50.342C318.458 50.86 317.604 51.126 316.554 51.126C314.412 51.126 312.928 50.104 312.438 48.494L313.572 48.004C314.174 49.278 315.196 49.922 316.638 49.922C317.996 49.922 318.85 49.292 318.85 48.186C318.85 47.108 318.01 46.562 316.33 46.562H315.238V45.4H316.106C317.632 45.4 318.626 44.714 318.626 43.776C318.626 42.81 317.828 42.264 316.554 42.264C315.056 42.264 314.146 43.034 313.754 44.056Z" fill="#1A3341"/>
<path d="M297.28 300.764H307.84V301.688H297.28V300.764ZM302.032 297.98H303.004V301.232H302.032V297.98ZM300.064 303.344L301.072 303.596C300.304 305.612 299.128 307.592 297.94 308.864C297.76 308.696 297.316 308.372 297.064 308.228C298.276 307.052 299.392 305.192 300.064 303.344ZM303.976 303.728L304.876 303.356C306.016 304.928 307.324 307.04 307.852 308.408L306.868 308.84C306.376 307.508 305.128 305.336 303.976 303.728ZM311.476 298.556H317.74V299.432H311.476V298.556ZM311.476 301.448H317.788V302.312H311.476V301.448ZM311.38 304.352H317.728V305.216H311.38V304.352ZM310.924 298.556H311.836V302.264C311.836 304.34 311.536 307.172 309.472 308.972C309.34 308.78 308.98 308.456 308.788 308.324C310.72 306.632 310.924 304.196 310.924 302.264V298.556ZM317.344 298.556H318.28V307.64C318.28 308.276 318.112 308.588 317.656 308.744C317.188 308.9 316.396 308.912 315.1 308.912C315.04 308.648 314.872 308.216 314.716 307.964C315.712 308 316.696 307.988 316.972 307.988C317.248 307.976 317.344 307.892 317.344 307.628V298.556Z" fill="#76848D"/>
<path d="M342.722 54.804L342.274 53.754L345.634 52.144H346.432V62H345.228V53.642L342.722 54.804ZM349.646 57.492L348.638 57.226L349.212 52.2H355.372V53.39H350.29L349.926 56.022C350.416 55.658 351.158 55.476 352.152 55.476C353.3 55.476 354.196 55.784 354.854 56.386C355.498 57.002 355.82 57.786 355.82 58.752C355.82 59.718 355.456 60.53 354.742 61.16C354.014 61.804 353.104 62.126 352.026 62.126C350.192 62.126 348.666 61.258 348.036 59.732L349.156 59.256C349.562 60.194 350.612 60.936 352.026 60.936C353.636 60.936 354.532 60.012 354.532 58.794C354.532 57.492 353.482 56.652 351.816 56.652C350.92 56.652 350.192 56.932 349.646 57.492ZM356.981 61.202C356.981 60.81 357.345 60.418 357.849 60.418C358.311 60.418 358.689 60.81 358.689 61.202C358.689 61.65 358.339 62.028 357.849 62.028C357.345 62.028 356.981 61.65 356.981 61.202ZM359.734 54.804L359.286 53.754L362.646 52.144H363.444V62H362.24V53.642L359.734 54.804Z" fill="#2A3C3C"/>
<path d="M342.722 54.804L342.274 53.754L345.634 52.144H346.432V62H345.228V53.642L342.722 54.804ZM349.646 57.492L348.638 57.226L349.212 52.2H355.372V53.39H350.29L349.926 56.022C350.416 55.658 351.158 55.476 352.152 55.476C353.3 55.476 354.196 55.784 354.854 56.386C355.498 57.002 355.82 57.786 355.82 58.752C355.82 59.718 355.456 60.53 354.742 61.16C354.014 61.804 353.104 62.126 352.026 62.126C350.192 62.126 348.666 61.258 348.036 59.732L349.156 59.256C349.562 60.194 350.612 60.936 352.026 60.936C353.636 60.936 354.532 60.012 354.532 58.794C354.532 57.492 353.482 56.652 351.816 56.652C350.92 56.652 350.192 56.932 349.646 57.492ZM356.981 61.202C356.981 60.81 357.345 60.418 357.849 60.418C358.311 60.418 358.689 60.81 358.689 61.202C358.689 61.65 358.339 62.028 357.849 62.028C357.345 62.028 356.981 61.65 356.981 61.202ZM359.734 54.804L359.286 53.754L362.646 52.144H363.444V62H362.24V53.642L359.734 54.804Z" fill="#1A3341"/>
<path d="M341.648 302.708L352.352 300.98L352.508 301.904L341.792 303.608L341.648 302.708ZM345.116 298.136H346.076V306.728C346.076 307.472 346.232 307.652 347.096 307.652C347.528 307.652 349.664 307.652 350.18 307.652C350.984 307.652 351.104 307.22 351.224 305.432C351.464 305.612 351.884 305.792 352.136 305.864C351.992 307.856 351.692 308.54 350.204 308.54C349.856 308.54 347.396 308.54 347.06 308.54C345.572 308.54 345.116 308.168 345.116 306.716V298.136ZM355.976 298.556H362.24V299.432H355.976V298.556ZM355.976 301.448H362.288V302.312H355.976V301.448ZM355.88 304.352H362.228V305.216H355.88V304.352ZM355.424 298.556H356.336V302.264C356.336 304.34 356.036 307.172 353.972 308.972C353.84 308.78 353.48 308.456 353.288 308.324C355.22 306.632 355.424 304.196 355.424 302.264V298.556ZM361.844 298.556H362.78V307.64C362.78 308.276 362.612 308.588 362.156 308.744C361.688 308.9 360.896 308.912 359.6 308.912C359.54 308.648 359.372 308.216 359.216 307.964C360.212 308 361.196 307.988 361.472 307.988C361.748 307.976 361.844 307.892 361.844 307.628V298.556Z" fill="#76848D"/>
<path d="M383.514 69.804L383.066 68.754L386.426 67.144H387.224V77H386.02V68.642L383.514 69.804ZM395.772 77H394.554V74.998H388.562V74.186L394.694 67.2H395.772V73.864H397.592V74.998H395.772V77ZM394.554 69.16L390.242 73.864H394.554V69.16ZM398.374 76.202C398.374 75.81 398.738 75.418 399.242 75.418C399.704 75.418 400.082 75.81 400.082 76.202C400.082 76.65 399.732 77.028 399.242 77.028C398.738 77.028 398.374 76.65 398.374 76.202ZM405.104 71.414H405.538C406.168 71.414 406.686 71.26 407.12 70.966C407.54 70.672 407.75 70.28 407.75 69.818C407.75 68.768 406.924 68.236 405.286 68.236C403.718 68.236 402.864 68.81 402.864 69.818C402.864 70.728 403.802 71.414 405.104 71.414ZM405.51 72.52H405.16C404.404 72.52 403.774 72.688 403.284 73.01C402.794 73.332 402.542 73.738 402.542 74.228C402.542 75.292 403.522 75.964 405.3 75.964C407.106 75.964 408.072 75.32 408.072 74.242C408.072 73.164 407.036 72.52 405.51 72.52ZM408.268 76.37C407.554 76.874 406.56 77.126 405.314 77.126C404.068 77.126 403.074 76.874 402.346 76.384C401.618 75.894 401.254 75.222 401.254 74.354C401.254 73.22 401.996 72.324 403.186 71.932C402.108 71.582 401.576 70.728 401.576 69.734C401.576 68.11 402.948 67.074 405.3 67.074C407.666 67.074 409.038 68.11 409.038 69.734C409.038 70.672 408.52 71.386 407.484 71.862C408.73 72.24 409.346 73.052 409.346 74.298C409.346 75.18 408.982 75.88 408.268 76.37Z" fill="#2A3C3C"/>
<path d="M383.514 69.804L383.066 68.754L386.426 67.144H387.224V77H386.02V68.642L383.514 69.804ZM395.772 77H394.554V74.998H388.562V74.186L394.694 67.2H395.772V73.864H397.592V74.998H395.772V77ZM394.554 69.16L390.242 73.864H394.554V69.16ZM398.374 76.202C398.374 75.81 398.738 75.418 399.242 75.418C399.704 75.418 400.082 75.81 400.082 76.202C400.082 76.65 399.732 77.028 399.242 77.028C398.738 77.028 398.374 76.65 398.374 76.202ZM405.104 71.414H405.538C406.168 71.414 406.686 71.26 407.12 70.966C407.54 70.672 407.75 70.28 407.75 69.818C407.75 68.768 406.924 68.236 405.286 68.236C403.718 68.236 402.864 68.81 402.864 69.818C402.864 70.728 403.802 71.414 405.104 71.414ZM405.51 72.52H405.16C404.404 72.52 403.774 72.688 403.284 73.01C402.794 73.332 402.542 73.738 402.542 74.228C402.542 75.292 403.522 75.964 405.3 75.964C407.106 75.964 408.072 75.32 408.072 74.242C408.072 73.164 407.036 72.52 405.51 72.52ZM408.268 76.37C407.554 76.874 406.56 77.126 405.314 77.126C404.068 77.126 403.074 76.874 402.346 76.384C401.618 75.894 401.254 75.222 401.254 74.354C401.254 73.22 401.996 72.324 403.186 71.932C402.108 71.582 401.576 70.728 401.576 69.734C401.576 68.11 402.948 67.074 405.3 67.074C407.666 67.074 409.038 68.11 409.038 69.734C409.038 70.672 408.52 71.386 407.484 71.862C408.73 72.24 409.346 73.052 409.346 74.298C409.346 75.18 408.982 75.88 408.268 76.37Z" fill="#1A3341"/>
<path d="M387.18 298.868H391.836V299.804H387.18V298.868ZM391.092 298.868H392.196C392.544 302.96 393.36 306.548 395.58 308.252C395.316 308.42 394.92 308.744 394.704 308.972C392.484 307.076 391.68 303.464 391.308 299.384H391.092V298.868ZM387.492 301.148L388.512 301.292C388.056 304.064 387.228 307.184 385.272 308.996C385.104 308.816 384.756 308.504 384.528 308.348C386.4 306.656 387.168 303.68 387.492 301.148ZM398.976 298.556H405.24V299.432H398.976V298.556ZM398.976 301.448H405.288V302.312H398.976V301.448ZM398.88 304.352H405.228V305.216H398.88V304.352ZM398.424 298.556H399.336V302.264C399.336 304.34 399.036 307.172 396.972 308.972C396.84 308.78 396.48 308.456 396.288 308.324C398.22 306.632 398.424 304.196 398.424 302.264V298.556ZM404.844 298.556H405.78V307.64C405.78 308.276 405.612 308.588 405.156 308.744C404.688 308.9 403.896 308.912 402.6 308.912C402.54 308.648 402.372 308.216 402.216 307.964C403.212 308 404.196 307.988 404.472 307.988C404.748 307.976 404.844 307.892 404.844 307.628V298.556Z" fill="#76848D"/>
<path d="M428.664 169.804L428.216 168.754L431.576 167.144H432.374V177H431.17V168.642L428.664 169.804ZM435.125 170.056L434.075 169.58C434.593 168.068 435.951 167.074 437.981 167.074C438.947 167.074 439.745 167.298 440.361 167.746C440.977 168.194 441.285 168.796 441.285 169.538C441.285 170.672 440.683 171.512 439.563 171.834C440.641 171.904 441.509 172.716 441.509 174.172C441.509 175.096 441.173 175.824 440.501 176.342C439.829 176.86 438.975 177.126 437.925 177.126C435.783 177.126 434.299 176.104 433.809 174.494L434.943 174.004C435.545 175.278 436.567 175.922 438.009 175.922C439.367 175.922 440.221 175.292 440.221 174.186C440.221 173.108 439.381 172.562 437.701 172.562H436.609V171.4H437.477C439.003 171.4 439.997 170.714 439.997 169.776C439.997 168.81 439.199 168.264 437.925 168.264C436.427 168.264 435.517 169.034 435.125 170.056ZM442.758 176.202C442.758 175.81 443.122 175.418 443.626 175.418C444.088 175.418 444.466 175.81 444.466 176.202C444.466 176.65 444.116 177.028 443.626 177.028C443.122 177.028 442.758 176.65 442.758 176.202ZM447.051 172.492L446.043 172.226L446.617 167.2H452.777V168.39H447.695L447.331 171.022C447.821 170.658 448.563 170.476 449.557 170.476C450.705 170.476 451.601 170.784 452.259 171.386C452.903 172.002 453.225 172.786 453.225 173.752C453.225 174.718 452.861 175.53 452.147 176.16C451.419 176.804 450.509 177.126 449.431 177.126C447.597 177.126 446.071 176.258 445.441 174.732L446.561 174.256C446.967 175.194 448.017 175.936 449.431 175.936C451.041 175.936 451.937 175.012 451.937 173.794C451.937 172.492 450.887 171.652 449.221 171.652C448.325 171.652 447.597 171.932 447.051 172.492Z" fill="#2A3C3C"/>
<path d="M428.664 169.804L428.216 168.754L431.576 167.144H432.374V177H431.17V168.642L428.664 169.804ZM435.125 170.056L434.075 169.58C434.593 168.068 435.951 167.074 437.981 167.074C438.947 167.074 439.745 167.298 440.361 167.746C440.977 168.194 441.285 168.796 441.285 169.538C441.285 170.672 440.683 171.512 439.563 171.834C440.641 171.904 441.509 172.716 441.509 174.172C441.509 175.096 441.173 175.824 440.501 176.342C439.829 176.86 438.975 177.126 437.925 177.126C435.783 177.126 434.299 176.104 433.809 174.494L434.943 174.004C435.545 175.278 436.567 175.922 438.009 175.922C439.367 175.922 440.221 175.292 440.221 174.186C440.221 173.108 439.381 172.562 437.701 172.562H436.609V171.4H437.477C439.003 171.4 439.997 170.714 439.997 169.776C439.997 168.81 439.199 168.264 437.925 168.264C436.427 168.264 435.517 169.034 435.125 170.056ZM442.758 176.202C442.758 175.81 443.122 175.418 443.626 175.418C444.088 175.418 444.466 175.81 444.466 176.202C444.466 176.65 444.116 177.028 443.626 177.028C443.122 177.028 442.758 176.65 442.758 176.202ZM447.051 172.492L446.043 172.226L446.617 167.2H452.777V168.39H447.695L447.331 171.022C447.821 170.658 448.563 170.476 449.557 170.476C450.705 170.476 451.601 170.784 452.259 171.386C452.903 172.002 453.225 172.786 453.225 173.752C453.225 174.718 452.861 175.53 452.147 176.16C451.419 176.804 450.509 177.126 449.431 177.126C447.597 177.126 446.071 176.258 445.441 174.732L446.561 174.256C446.967 175.194 448.017 175.936 449.431 175.936C451.041 175.936 451.937 175.012 451.937 173.794C451.937 172.492 450.887 171.652 449.221 171.652C448.325 171.652 447.597 171.932 447.051 172.492Z" fill="#1A3341"/>
<path d="M433.796 298.052H434.768C434.732 302.648 434.72 306.884 430.628 308.972C430.496 308.744 430.196 308.42 429.956 308.252C433.88 306.368 433.784 302.408 433.796 298.052ZM430.508 301.004H437.948V301.904H430.508V301.004ZM437.396 301.004H438.32V307.4C438.32 307.832 438.38 307.904 438.752 307.904C438.92 307.904 439.76 307.904 439.988 307.904C440.324 307.904 440.384 307.616 440.42 306.164C440.636 306.332 441.02 306.5 441.272 306.572C441.188 308.252 440.948 308.792 440.06 308.792C439.856 308.792 438.812 308.792 438.62 308.792C437.696 308.792 437.396 308.504 437.396 307.4V301.004ZM444.476 298.556H450.74V299.432H444.476V298.556ZM444.476 301.448H450.788V302.312H444.476V301.448ZM444.38 304.352H450.728V305.216H444.38V304.352ZM443.924 298.556H444.836V302.264C444.836 304.34 444.536 307.172 442.472 308.972C442.34 308.78 441.98 308.456 441.788 308.324C443.72 306.632 443.924 304.196 443.924 302.264V298.556ZM450.344 298.556H451.28V307.64C451.28 308.276 451.112 308.588 450.656 308.744C450.188 308.9 449.396 308.912 448.1 308.912C448.04 308.648 447.872 308.216 447.716 307.964C448.712 308 449.696 307.988 449.972 307.988C450.248 307.976 450.344 307.892 450.344 307.628V298.556Z" fill="#76848D"/>
<path d="M473.926 97.804L473.478 96.754L476.838 95.144H477.636V105H476.432V96.642L473.926 97.804ZM486.183 105H484.965V102.998H478.973V102.186L485.105 95.2H486.183V101.864H488.003V102.998H486.183V105ZM484.965 97.16L480.653 101.864H484.965V97.16ZM488.785 104.202C488.785 103.81 489.149 103.418 489.653 103.418C490.115 103.418 490.493 103.81 490.493 104.202C490.493 104.65 490.143 105.028 489.653 105.028C489.149 105.028 488.785 104.65 488.785 104.202ZM491.651 100.1C491.651 98.588 492.001 97.37 492.715 96.46C493.415 95.55 494.451 95.088 495.809 95.088C498.595 95.088 499.981 96.922 499.981 100.1C499.981 101.626 499.631 102.83 498.945 103.74C498.245 104.65 497.209 105.112 495.837 105.112C494.521 105.112 493.499 104.65 492.757 103.726C492.015 102.802 491.651 101.598 491.651 100.1ZM492.939 100.1C492.939 102.494 494.031 103.922 495.837 103.922C497.741 103.922 498.693 102.648 498.693 100.1C498.693 97.552 497.727 96.278 495.809 96.278C493.863 96.278 492.939 97.678 492.939 100.1Z" fill="#2A3C3C"/>
<path d="M473.926 97.804L473.478 96.754L476.838 95.144H477.636V105H476.432V96.642L473.926 97.804ZM486.183 105H484.965V102.998H478.973V102.186L485.105 95.2H486.183V101.864H488.003V102.998H486.183V105ZM484.965 97.16L480.653 101.864H484.965V97.16ZM488.785 104.202C488.785 103.81 489.149 103.418 489.653 103.418C490.115 103.418 490.493 103.81 490.493 104.202C490.493 104.65 490.143 105.028 489.653 105.028C489.149 105.028 488.785 104.65 488.785 104.202ZM491.651 100.1C491.651 98.588 492.001 97.37 492.715 96.46C493.415 95.55 494.451 95.088 495.809 95.088C498.595 95.088 499.981 96.922 499.981 100.1C499.981 101.626 499.631 102.83 498.945 103.74C498.245 104.65 497.209 105.112 495.837 105.112C494.521 105.112 493.499 104.65 492.757 103.726C492.015 102.802 491.651 101.598 491.651 100.1ZM492.939 100.1C492.939 102.494 494.031 103.922 495.837 103.922C497.741 103.922 498.693 102.648 498.693 100.1C498.693 97.552 497.727 96.278 495.809 96.278C493.863 96.278 492.939 97.678 492.939 100.1Z" fill="#1A3341"/>
<path d="M475.72 302.408H486.484V303.332H475.72V302.408ZM480.592 297.932H481.552V308.96H480.592V297.932ZM489.976 298.556H496.24V299.432H489.976V298.556ZM489.976 301.448H496.288V302.312H489.976V301.448ZM489.88 304.352H496.228V305.216H489.88V304.352ZM489.424 298.556H490.336V302.264C490.336 304.34 490.036 307.172 487.972 308.972C487.84 308.78 487.48 308.456 487.288 308.324C489.22 306.632 489.424 304.196 489.424 302.264V298.556ZM495.844 298.556H496.78V307.64C496.78 308.276 496.612 308.588 496.156 308.744C495.688 308.9 494.896 308.912 493.6 308.912C493.54 308.648 493.372 308.216 493.216 307.964C494.212 308 495.196 307.988 495.472 307.988C495.748 307.976 495.844 307.892 495.844 307.628V298.556Z" fill="#76848D"/>
<path d="M520.567 155.804L520.119 154.754L523.479 153.144H524.277V163H523.073V154.642L520.567 155.804ZM527.029 156.056L525.979 155.58C526.497 154.068 527.855 153.074 529.885 153.074C530.851 153.074 531.649 153.298 532.265 153.746C532.881 154.194 533.189 154.796 533.189 155.538C533.189 156.672 532.587 157.512 531.467 157.834C532.545 157.904 533.413 158.716 533.413 160.172C533.413 161.096 533.077 161.824 532.405 162.342C531.733 162.86 530.879 163.126 529.829 163.126C527.687 163.126 526.203 162.104 525.713 160.494L526.847 160.004C527.449 161.278 528.471 161.922 529.913 161.922C531.271 161.922 532.125 161.292 532.125 160.186C532.125 159.108 531.285 158.562 529.605 158.562H528.513V157.4H529.381C530.907 157.4 531.901 156.714 531.901 155.776C531.901 154.81 531.103 154.264 529.829 154.264C528.331 154.264 527.421 155.034 527.029 156.056ZM534.661 162.202C534.661 161.81 535.025 161.418 535.529 161.418C535.991 161.418 536.369 161.81 536.369 162.202C536.369 162.65 536.019 163.028 535.529 163.028C535.025 163.028 534.661 162.65 534.661 162.202ZM543.141 154.39H537.205V153.2H544.639V153.998L539.767 163H538.437L543.141 154.39Z" fill="#2A3C3C"/>
<path d="M520.567 155.804L520.119 154.754L523.479 153.144H524.277V163H523.073V154.642L520.567 155.804ZM527.029 156.056L525.979 155.58C526.497 154.068 527.855 153.074 529.885 153.074C530.851 153.074 531.649 153.298 532.265 153.746C532.881 154.194 533.189 154.796 533.189 155.538C533.189 156.672 532.587 157.512 531.467 157.834C532.545 157.904 533.413 158.716 533.413 160.172C533.413 161.096 533.077 161.824 532.405 162.342C531.733 162.86 530.879 163.126 529.829 163.126C527.687 163.126 526.203 162.104 525.713 160.494L526.847 160.004C527.449 161.278 528.471 161.922 529.913 161.922C531.271 161.922 532.125 161.292 532.125 160.186C532.125 159.108 531.285 158.562 529.605 158.562H528.513V157.4H529.381C530.907 157.4 531.901 156.714 531.901 155.776C531.901 154.81 531.103 154.264 529.829 154.264C528.331 154.264 527.421 155.034 527.029 156.056ZM534.661 162.202C534.661 161.81 535.025 161.418 535.529 161.418C535.991 161.418 536.369 161.81 536.369 162.202C536.369 162.65 536.019 163.028 535.529 163.028C535.025 163.028 534.661 162.65 534.661 162.202ZM543.141 154.39H537.205V153.2H544.639V153.998L539.767 163H538.437L543.141 154.39Z" fill="#1A3341"/>
<path d="M514.78 302.408H525.544V303.332H514.78V302.408ZM519.652 297.932H520.612V308.96H519.652V297.932ZM526.528 302.828H537.508V303.812H526.528V302.828ZM540.916 298.556H547.18V299.432H540.916V298.556ZM540.916 301.448H547.228V302.312H540.916V301.448ZM540.82 304.352H547.168V305.216H540.82V304.352ZM540.364 298.556H541.276V302.264C541.276 304.34 540.976 307.172 538.912 308.972C538.78 308.78 538.42 308.456 538.228 308.324C540.16 306.632 540.364 304.196 540.364 302.264V298.556ZM546.784 298.556H547.72V307.64C547.72 308.276 547.552 308.588 547.096 308.744C546.628 308.9 545.836 308.912 544.54 308.912C544.48 308.648 544.312 308.216 544.156 307.964C545.152 308 546.136 307.988 546.412 307.988C546.688 307.976 546.784 307.892 546.784 307.628V298.556Z" fill="#76848D"/>
<path d="M565.922 96.804L565.474 95.754L568.834 94.144H569.632V104H568.428V95.642L565.922 96.804ZM578.179 104H576.961V101.998H570.969V101.186L577.101 94.2H578.179V100.864H579.999V101.998H578.179V104ZM576.961 96.16L572.649 100.864H576.961V96.16ZM580.781 103.202C580.781 102.81 581.145 102.418 581.649 102.418C582.111 102.418 582.489 102.81 582.489 103.202C582.489 103.65 582.139 104.028 581.649 104.028C581.145 104.028 580.781 103.65 580.781 103.202ZM583.535 96.804L583.087 95.754L586.447 94.144H587.245V104H586.041V95.642L583.535 96.804Z" fill="#2A3C3C"/>
<path d="M565.922 96.804L565.474 95.754L568.834 94.144H569.632V104H568.428V95.642L565.922 96.804ZM578.179 104H576.961V101.998H570.969V101.186L577.101 94.2H578.179V100.864H579.999V101.998H578.179V104ZM576.961 96.16L572.649 100.864H576.961V96.16ZM580.781 103.202C580.781 102.81 581.145 102.418 581.649 102.418C582.111 102.418 582.489 102.81 582.489 103.202C582.489 103.65 582.139 104.028 581.649 104.028C581.145 104.028 580.781 103.65 580.781 103.202ZM583.535 96.804L583.087 95.754L586.447 94.144H587.245V104H586.041V95.642L583.535 96.804Z" fill="#1A3341"/>
<path d="M559.78 302.408H570.544V303.332H559.78V302.408ZM564.652 297.932H565.612V308.96H564.652V297.932ZM572.692 299.648H581.308V300.608H572.692V299.648ZM571.672 306.764H582.328V307.772H571.672V306.764ZM585.916 298.556H592.18V299.432H585.916V298.556ZM585.916 301.448H592.228V302.312H585.916V301.448ZM585.82 304.352H592.168V305.216H585.82V304.352ZM585.364 298.556H586.276V302.264C586.276 304.34 585.976 307.172 583.912 308.972C583.78 308.78 583.42 308.456 583.228 308.324C585.16 306.632 585.364 304.196 585.364 302.264V298.556ZM591.784 298.556H592.72V307.64C592.72 308.276 592.552 308.588 592.096 308.744C591.628 308.9 590.836 308.912 589.54 308.912C589.48 308.648 589.312 308.216 589.156 307.964C590.152 308 591.136 307.988 591.412 307.988C591.688 307.976 591.784 307.892 591.784 307.628V298.556Z" fill="#76848D"/>
<path d="M607.746 126.804L607.298 125.754L610.658 124.144H611.456V134H610.252V125.642L607.746 126.804ZM614.207 127.056L613.157 126.58C613.675 125.068 615.033 124.074 617.063 124.074C618.029 124.074 618.827 124.298 619.443 124.746C620.059 125.194 620.367 125.796 620.367 126.538C620.367 127.672 619.765 128.512 618.645 128.834C619.723 128.904 620.591 129.716 620.591 131.172C620.591 132.096 620.255 132.824 619.583 133.342C618.911 133.86 618.057 134.126 617.007 134.126C614.865 134.126 613.381 133.104 612.891 131.494L614.025 131.004C614.627 132.278 615.649 132.922 617.091 132.922C618.449 132.922 619.303 132.292 619.303 131.186C619.303 130.108 618.463 129.562 616.783 129.562H615.691V128.4H616.559C618.085 128.4 619.079 127.714 619.079 126.776C619.079 125.81 618.281 125.264 617.007 125.264C615.509 125.264 614.599 126.034 614.207 127.056ZM621.84 133.202C621.84 132.81 622.204 132.418 622.708 132.418C623.17 132.418 623.548 132.81 623.548 133.202C623.548 133.65 623.198 134.028 622.708 134.028C622.204 134.028 621.84 133.65 621.84 133.202ZM625.671 127.056L624.621 126.58C625.139 125.068 626.497 124.074 628.527 124.074C629.493 124.074 630.291 124.298 630.907 124.746C631.523 125.194 631.831 125.796 631.831 126.538C631.831 127.672 631.229 128.512 630.109 128.834C631.187 128.904 632.055 129.716 632.055 131.172C632.055 132.096 631.719 132.824 631.047 133.342C630.375 133.86 629.521 134.126 628.471 134.126C626.329 134.126 624.845 133.104 624.355 131.494L625.489 131.004C626.091 132.278 627.113 132.922 628.555 132.922C629.913 132.922 630.767 132.292 630.767 131.186C630.767 130.108 629.927 129.562 628.247 129.562H627.155V128.4H628.023C629.549 128.4 630.543 127.714 630.543 126.776C630.543 125.81 629.745 125.264 628.471 125.264C626.973 125.264 626.063 126.034 625.671 127.056Z" fill="#2A3C3C"/>
<path d="M607.746 126.804L607.298 125.754L610.658 124.144H611.456V134H610.252V125.642L607.746 126.804ZM614.207 127.056L613.157 126.58C613.675 125.068 615.033 124.074 617.063 124.074C618.029 124.074 618.827 124.298 619.443 124.746C620.059 125.194 620.367 125.796 620.367 126.538C620.367 127.672 619.765 128.512 618.645 128.834C619.723 128.904 620.591 129.716 620.591 131.172C620.591 132.096 620.255 132.824 619.583 133.342C618.911 133.86 618.057 134.126 617.007 134.126C614.865 134.126 613.381 133.104 612.891 131.494L614.025 131.004C614.627 132.278 615.649 132.922 617.091 132.922C618.449 132.922 619.303 132.292 619.303 131.186C619.303 130.108 618.463 129.562 616.783 129.562H615.691V128.4H616.559C618.085 128.4 619.079 127.714 619.079 126.776C619.079 125.81 618.281 125.264 617.007 125.264C615.509 125.264 614.599 126.034 614.207 127.056ZM621.84 133.202C621.84 132.81 622.204 132.418 622.708 132.418C623.17 132.418 623.548 132.81 623.548 133.202C623.548 133.65 623.198 134.028 622.708 134.028C622.204 134.028 621.84 133.65 621.84 133.202ZM625.671 127.056L624.621 126.58C625.139 125.068 626.497 124.074 628.527 124.074C629.493 124.074 630.291 124.298 630.907 124.746C631.523 125.194 631.831 125.796 631.831 126.538C631.831 127.672 631.229 128.512 630.109 128.834C631.187 128.904 632.055 129.716 632.055 131.172C632.055 132.096 631.719 132.824 631.047 133.342C630.375 133.86 629.521 134.126 628.471 134.126C626.329 134.126 624.845 133.104 624.355 131.494L625.489 131.004C626.091 132.278 627.113 132.922 628.555 132.922C629.913 132.922 630.767 132.292 630.767 131.186C630.767 130.108 629.927 129.562 628.247 129.562H627.155V128.4H628.023C629.549 128.4 630.543 127.714 630.543 126.776C630.543 125.81 629.745 125.264 628.471 125.264C626.973 125.264 626.063 126.034 625.671 127.056Z" fill="#1A3341"/>
<path d="M608.576 304.84H619.472V305.812H608.576V304.84ZM623.276 306.328H628.892V304.312H623.408C623.408 304.936 623.372 305.62 623.276 306.328ZM628.892 301.468H623.408V303.46H628.892V301.468ZM629.816 300.592V309.616C629.816 310.24 629.636 310.552 629.192 310.696C628.736 310.852 627.944 310.864 626.66 310.864C626.6 310.612 626.432 310.192 626.288 309.94C627.284 309.976 628.244 309.964 628.52 309.964C628.796 309.952 628.892 309.868 628.892 309.604V307.204H623.132C622.832 308.56 622.232 309.916 621.068 310.936C620.948 310.744 620.588 310.42 620.408 310.288C622.316 308.608 622.508 306.172 622.508 304.264V300.592H629.816ZM614.099 318.372L613.223 318.06C613.523 316.572 614.651 315.504 616.439 315.504C618.167 315.504 619.223 316.5 619.223 318.024C619.223 318.828 618.875 319.632 618.443 320.208C618.227 320.508 617.951 320.796 617.627 321.096C616.967 321.684 616.499 321.996 615.815 322.428L614.891 323.004H619.535V324H612.995V323.184L614.819 321.972C615.143 321.768 615.371 321.612 615.503 321.516C615.635 321.432 615.851 321.276 616.139 321.072C616.427 320.868 616.643 320.688 616.787 320.556C616.919 320.424 617.099 320.256 617.303 320.04C617.855 319.44 618.059 318.888 618.119 318.132C618.119 317.04 617.411 316.548 616.367 316.548C615.719 316.548 615.203 316.728 614.831 317.088C614.459 317.448 614.207 317.88 614.099 318.372ZM621.315 318.048L620.415 317.64C620.859 316.344 622.023 315.492 623.763 315.492C624.591 315.492 625.275 315.684 625.803 316.068C626.331 316.452 626.595 316.968 626.595 317.604C626.595 318.576 626.079 319.296 625.119 319.572C626.043 319.632 626.787 320.328 626.787 321.576C626.787 322.368 626.499 322.992 625.923 323.436C625.347 323.88 624.615 324.108 623.715 324.108C621.879 324.108 620.607 323.232 620.187 321.852L621.159 321.432C621.675 322.524 622.551 323.076 623.787 323.076C624.951 323.076 625.683 322.536 625.683 321.588C625.683 320.664 624.963 320.196 623.523 320.196H622.587V319.2H623.331C624.639 319.2 625.491 318.612 625.491 317.808C625.491 316.98 624.807 316.512 623.715 316.512C622.431 316.512 621.651 317.172 621.315 318.048Z" fill="#76848D"/>
<path d="M652.956 236.804L652.508 235.754L655.868 234.144H656.666V244H655.462V235.642L652.956 236.804ZM658.339 236.804L657.891 235.754L661.251 234.144H662.049V244H660.845V235.642L658.339 236.804ZM663.933 243.202C663.933 242.81 664.297 242.418 664.801 242.418C665.263 242.418 665.641 242.81 665.641 243.202C665.641 243.65 665.291 244.028 664.801 244.028C664.297 244.028 663.933 243.65 663.933 243.202ZM674.946 238.918C674.946 240.584 674.554 241.872 673.756 242.768C672.958 243.678 671.894 244.126 670.564 244.126C668.94 244.126 667.666 243.44 667.036 242.39L668.044 241.69C668.604 242.474 669.626 242.922 670.732 242.922C671.642 242.922 672.37 242.558 672.944 241.83C673.518 241.116 673.756 240.22 673.686 239.156C673.224 240.22 672.062 241.004 670.508 241.004C669.416 241.004 668.52 240.696 667.82 240.066C667.106 239.45 666.756 238.638 666.756 237.644C666.756 236.552 667.134 235.684 667.89 235.04C668.646 234.396 669.654 234.074 670.9 234.074C673.42 234.074 674.946 235.838 674.946 238.918ZM673.476 237.602C673.266 236.3 672.37 235.278 670.76 235.278C669.08 235.278 668.044 236.146 668.044 237.602C668.044 238.988 669.094 239.8 670.732 239.8C671.474 239.8 672.104 239.576 672.594 239.128C673.084 238.68 673.378 238.176 673.476 237.602Z" fill="#2A3C3C"/>
<path d="M652.956 236.804L652.508 235.754L655.868 234.144H656.666V244H655.462V235.642L652.956 236.804ZM658.339 236.804L657.891 235.754L661.251 234.144H662.049V244H660.845V235.642L658.339 236.804ZM663.933 243.202C663.933 242.81 664.297 242.418 664.801 242.418C665.263 242.418 665.641 242.81 665.641 243.202C665.641 243.65 665.291 244.028 664.801 244.028C664.297 244.028 663.933 243.65 663.933 243.202ZM674.946 238.918C674.946 240.584 674.554 241.872 673.756 242.768C672.958 243.678 671.894 244.126 670.564 244.126C668.94 244.126 667.666 243.44 667.036 242.39L668.044 241.69C668.604 242.474 669.626 242.922 670.732 242.922C671.642 242.922 672.37 242.558 672.944 241.83C673.518 241.116 673.756 240.22 673.686 239.156C673.224 240.22 672.062 241.004 670.508 241.004C669.416 241.004 668.52 240.696 667.82 240.066C667.106 239.45 666.756 238.638 666.756 237.644C666.756 236.552 667.134 235.684 667.89 235.04C668.646 234.396 669.654 234.074 670.9 234.074C673.42 234.074 674.946 235.838 674.946 238.918ZM673.476 237.602C673.266 236.3 672.37 235.278 670.76 235.278C669.08 235.278 668.044 236.146 668.044 237.602C668.044 238.988 669.094 239.8 670.732 239.8C671.474 239.8 672.104 239.576 672.594 239.128C673.084 238.68 673.378 238.176 673.476 237.602Z" fill="#1A3341"/>
<path d="M653.752 299.648H662.368V300.608H653.752V299.648ZM652.732 306.764H663.388V307.772H652.732V306.764ZM666.976 298.556H673.24V299.432H666.976V298.556ZM666.976 301.448H673.288V302.312H666.976V301.448ZM666.88 304.352H673.228V305.216H666.88V304.352ZM666.424 298.556H667.336V302.264C667.336 304.34 667.036 307.172 664.972 308.972C664.84 308.78 664.48 308.456 664.288 308.324C666.22 306.632 666.424 304.196 666.424 302.264V298.556ZM672.844 298.556H673.78V307.64C673.78 308.276 673.612 308.588 673.156 308.744C672.688 308.9 671.896 308.912 670.6 308.912C670.54 308.648 670.372 308.216 670.216 307.964C671.212 308 672.196 307.988 672.472 307.988C672.748 307.976 672.844 307.892 672.844 307.628V298.556Z" fill="#76848D"/>
<path d="M697.514 58.804L697.066 57.754L700.426 56.144H701.224V66H700.02V57.642L697.514 58.804ZM709.772 66H708.554V63.998H702.562V63.186L708.694 56.2H709.772V62.864H711.592V63.998H709.772V66ZM708.554 58.16L704.242 62.864H708.554V58.16ZM712.374 65.202C712.374 64.81 712.738 64.418 713.242 64.418C713.704 64.418 714.082 64.81 714.082 65.202C714.082 65.65 713.732 66.028 713.242 66.028C712.738 66.028 712.374 65.65 712.374 65.202ZM719.104 60.414H719.538C720.168 60.414 720.686 60.26 721.12 59.966C721.54 59.672 721.75 59.28 721.75 58.818C721.75 57.768 720.924 57.236 719.286 57.236C717.718 57.236 716.864 57.81 716.864 58.818C716.864 59.728 717.802 60.414 719.104 60.414ZM719.51 61.52H719.16C718.404 61.52 717.774 61.688 717.284 62.01C716.794 62.332 716.542 62.738 716.542 63.228C716.542 64.292 717.522 64.964 719.3 64.964C721.106 64.964 722.072 64.32 722.072 63.242C722.072 62.164 721.036 61.52 719.51 61.52ZM722.268 65.37C721.554 65.874 720.56 66.126 719.314 66.126C718.068 66.126 717.074 65.874 716.346 65.384C715.618 64.894 715.254 64.222 715.254 63.354C715.254 62.22 715.996 61.324 717.186 60.932C716.108 60.582 715.576 59.728 715.576 58.734C715.576 57.11 716.948 56.074 719.3 56.074C721.666 56.074 723.038 57.11 723.038 58.734C723.038 59.672 722.52 60.386 721.484 60.862C722.73 61.24 723.346 62.052 723.346 63.298C723.346 64.18 722.982 64.88 722.268 65.37Z" fill="#2A3C3C"/>
<path d="M697.514 58.804L697.066 57.754L700.426 56.144H701.224V66H700.02V57.642L697.514 58.804ZM709.772 66H708.554V63.998H702.562V63.186L708.694 56.2H709.772V62.864H711.592V63.998H709.772V66ZM708.554 58.16L704.242 62.864H708.554V58.16ZM712.374 65.202C712.374 64.81 712.738 64.418 713.242 64.418C713.704 64.418 714.082 64.81 714.082 65.202C714.082 65.65 713.732 66.028 713.242 66.028C712.738 66.028 712.374 65.65 712.374 65.202ZM719.104 60.414H719.538C720.168 60.414 720.686 60.26 721.12 59.966C721.54 59.672 721.75 59.28 721.75 58.818C721.75 57.768 720.924 57.236 719.286 57.236C717.718 57.236 716.864 57.81 716.864 58.818C716.864 59.728 717.802 60.414 719.104 60.414ZM719.51 61.52H719.16C718.404 61.52 717.774 61.688 717.284 62.01C716.794 62.332 716.542 62.738 716.542 63.228C716.542 64.292 717.522 64.964 719.3 64.964C721.106 64.964 722.072 64.32 722.072 63.242C722.072 62.164 721.036 61.52 719.51 61.52ZM722.268 65.37C721.554 65.874 720.56 66.126 719.314 66.126C718.068 66.126 717.074 65.874 716.346 65.384C715.618 64.894 715.254 64.222 715.254 63.354C715.254 62.22 715.996 61.324 717.186 60.932C716.108 60.582 715.576 59.728 715.576 58.734C715.576 57.11 716.948 56.074 719.3 56.074C721.666 56.074 723.038 57.11 723.038 58.734C723.038 59.672 722.52 60.386 721.484 60.862C722.73 61.24 723.346 62.052 723.346 63.298C723.346 64.18 722.982 64.88 722.268 65.37Z" fill="#1A3341"/>
<path d="M699.536 299.096H708.608V299.996H699.536V299.096ZM700.304 303.02H707.66V303.92H700.304V303.02ZM698.84 307.184H709.256V308.096H698.84V307.184ZM712.976 298.556H719.24V299.432H712.976V298.556ZM712.976 301.448H719.288V302.312H712.976V301.448ZM712.88 304.352H719.228V305.216H712.88V304.352ZM712.424 298.556H713.336V302.264C713.336 304.34 713.036 307.172 710.972 308.972C710.84 308.78 710.48 308.456 710.288 308.324C712.22 306.632 712.424 304.196 712.424 302.264V298.556ZM718.844 298.556H719.78V307.64C719.78 308.276 719.612 308.588 719.156 308.744C718.688 308.9 717.896 308.912 716.6 308.912C716.54 308.648 716.372 308.216 716.216 307.964C717.212 308 718.196 307.988 718.472 307.988C718.748 307.976 718.844 307.892 718.844 307.628V298.556Z" fill="#76848D"/>
<path d="M743.926 143.804L743.478 142.754L746.838 141.144H747.636V151H746.432V142.642L743.926 143.804ZM756.183 151H754.965V148.998H748.973V148.186L755.105 141.2H756.183V147.864H758.003V148.998H756.183V151ZM754.965 143.16L750.653 147.864H754.965V143.16ZM758.785 150.202C758.785 149.81 759.149 149.418 759.653 149.418C760.115 149.418 760.493 149.81 760.493 150.202C760.493 150.65 760.143 151.028 759.653 151.028C759.149 151.028 758.785 150.65 758.785 150.202ZM761.651 146.1C761.651 144.588 762.001 143.37 762.715 142.46C763.415 141.55 764.451 141.088 765.809 141.088C768.595 141.088 769.981 142.922 769.981 146.1C769.981 147.626 769.631 148.83 768.945 149.74C768.245 150.65 767.209 151.112 765.837 151.112C764.521 151.112 763.499 150.65 762.757 149.726C762.015 148.802 761.651 147.598 761.651 146.1ZM762.939 146.1C762.939 148.494 764.031 149.922 765.837 149.922C767.741 149.922 768.693 148.648 768.693 146.1C768.693 143.552 767.727 142.278 765.809 142.278C763.863 142.278 762.939 143.678 762.939 146.1Z" fill="#2A3C3C"/>
<path d="M743.926 143.804L743.478 142.754L746.838 141.144H747.636V151H746.432V142.642L743.926 143.804ZM756.183 151H754.965V148.998H748.973V148.186L755.105 141.2H756.183V147.864H758.003V148.998H756.183V151ZM754.965 143.16L750.653 147.864H754.965V143.16ZM758.785 150.202C758.785 149.81 759.149 149.418 759.653 149.418C760.115 149.418 760.493 149.81 760.493 150.202C760.493 150.65 760.143 151.028 759.653 151.028C759.149 151.028 758.785 150.65 758.785 150.202ZM761.651 146.1C761.651 144.588 762.001 143.37 762.715 142.46C763.415 141.55 764.451 141.088 765.809 141.088C768.595 141.088 769.981 142.922 769.981 146.1C769.981 147.626 769.631 148.83 768.945 149.74C768.245 150.65 767.209 151.112 765.837 151.112C764.521 151.112 763.499 150.65 762.757 149.726C762.015 148.802 761.651 147.598 761.651 146.1ZM762.939 146.1C762.939 148.494 764.031 149.922 765.837 149.922C767.741 149.922 768.693 148.648 768.693 146.1C768.693 143.552 767.727 142.278 765.809 142.278C763.863 142.278 762.939 143.678 762.939 146.1Z" fill="#1A3341"/>
<path d="M746.14 299.024H756.016V308.528H755.068V299.9H747.04V308.624H746.14V299.024ZM746.62 306.896H755.584V307.772H746.62V306.896ZM751.744 299.6H752.62V303.428C752.62 303.668 752.644 303.8 752.716 303.836C752.8 303.872 752.908 303.896 753.04 303.896C753.16 303.896 753.436 303.896 753.604 303.896C753.76 303.896 753.928 303.884 754 303.848C754.084 303.812 754.156 303.728 754.18 303.56C754.228 303.38 754.24 302.984 754.252 302.456C754.42 302.6 754.72 302.756 754.948 302.828C754.924 303.32 754.888 303.884 754.804 304.1C754.732 304.316 754.6 304.448 754.396 304.544C754.216 304.616 753.904 304.652 753.664 304.652C753.484 304.652 753.004 304.652 752.848 304.652C752.572 304.652 752.248 304.592 752.044 304.436C751.828 304.28 751.744 304.076 751.744 303.344V299.6ZM749.296 299.576H750.184C750.064 302.276 749.728 304.268 747.796 305.408C747.688 305.192 747.424 304.892 747.22 304.748C748.96 303.776 749.212 301.976 749.296 299.576ZM759.976 298.556H766.24V299.432H759.976V298.556ZM759.976 301.448H766.288V302.312H759.976V301.448ZM759.88 304.352H766.228V305.216H759.88V304.352ZM759.424 298.556H760.336V302.264C760.336 304.34 760.036 307.172 757.972 308.972C757.84 308.78 757.48 308.456 757.288 308.324C759.22 306.632 759.424 304.196 759.424 302.264V298.556ZM765.844 298.556H766.78V307.64C766.78 308.276 766.612 308.588 766.156 308.744C765.688 308.9 764.896 308.912 763.6 308.912C763.54 308.648 763.372 308.216 763.216 307.964C764.212 308 765.196 307.988 765.472 307.988C765.748 307.976 765.844 307.892 765.844 307.628V298.556Z" fill="#76848D"/>
<path d="M790.722 50.804L790.274 49.754L793.634 48.144H794.432V58H793.228V49.642L790.722 50.804ZM797.646 53.492L796.638 53.226L797.212 48.2H803.372V49.39H798.29L797.926 52.022C798.416 51.658 799.158 51.476 800.152 51.476C801.3 51.476 802.196 51.784 802.854 52.386C803.498 53.002 803.82 53.786 803.82 54.752C803.82 55.718 803.456 56.53 802.742 57.16C802.014 57.804 801.104 58.126 800.026 58.126C798.192 58.126 796.666 57.258 796.036 55.732L797.156 55.256C797.562 56.194 798.612 56.936 800.026 56.936C801.636 56.936 802.532 56.012 802.532 54.794C802.532 53.492 801.482 52.652 799.816 52.652C798.92 52.652 798.192 52.932 797.646 53.492ZM804.981 57.202C804.981 56.81 805.345 56.418 805.849 56.418C806.311 56.418 806.689 56.81 806.689 57.202C806.689 57.65 806.339 58.028 805.849 58.028C805.345 58.028 804.981 57.65 804.981 57.202ZM807.734 50.804L807.286 49.754L810.646 48.144H811.444V58H810.24V49.642L807.734 50.804Z" fill="#2A3C3C"/>
<path d="M790.722 50.804L790.274 49.754L793.634 48.144H794.432V58H793.228V49.642L790.722 50.804ZM797.646 53.492L796.638 53.226L797.212 48.2H803.372V49.39H798.29L797.926 52.022C798.416 51.658 799.158 51.476 800.152 51.476C801.3 51.476 802.196 51.784 802.854 52.386C803.498 53.002 803.82 53.786 803.82 54.752C803.82 55.718 803.456 56.53 802.742 57.16C802.014 57.804 801.104 58.126 800.026 58.126C798.192 58.126 796.666 57.258 796.036 55.732L797.156 55.256C797.562 56.194 798.612 56.936 800.026 56.936C801.636 56.936 802.532 56.012 802.532 54.794C802.532 53.492 801.482 52.652 799.816 52.652C798.92 52.652 798.192 52.932 797.646 53.492ZM804.981 57.202C804.981 56.81 805.345 56.418 805.849 56.418C806.311 56.418 806.689 56.81 806.689 57.202C806.689 57.65 806.339 58.028 805.849 58.028C805.345 58.028 804.981 57.65 804.981 57.202ZM807.734 50.804L807.286 49.754L810.646 48.144H811.444V58H810.24V49.642L807.734 50.804Z" fill="#1A3341"/>
<path d="M790.488 299.096H799.56V299.984H790.488V299.096ZM789.732 307.412H800.412V308.312H789.732V307.412ZM794.004 299.408H795C794.532 302.156 793.8 305.864 793.296 307.964H792.288C792.852 305.804 793.596 302.084 794.004 299.408ZM790.956 302.624H798.42V307.82H797.496V303.512H790.956V302.624ZM803.976 298.556H810.24V299.432H803.976V298.556ZM803.976 301.448H810.288V302.312H803.976V301.448ZM803.88 304.352H810.228V305.216H803.88V304.352ZM803.424 298.556H804.336V302.264C804.336 304.34 804.036 307.172 801.972 308.972C801.84 308.78 801.48 308.456 801.288 308.324C803.22 306.632 803.424 304.196 803.424 302.264V298.556ZM809.844 298.556H810.78V307.64C810.78 308.276 810.612 308.588 810.156 308.744C809.688 308.9 808.896 308.912 807.6 308.912C807.54 308.648 807.372 308.216 807.216 307.964C808.212 308 809.196 307.988 809.472 307.988C809.748 307.976 809.844 307.892 809.844 307.628V298.556Z" fill="#76848D"/>
<path d="M830.514 62.804L830.066 61.754L833.426 60.144H834.224V70H833.02V61.642L830.514 62.804ZM842.772 70H841.554V67.998H835.562V67.186L841.694 60.2H842.772V66.864H844.592V67.998H842.772V70ZM841.554 62.16L837.242 66.864H841.554V62.16ZM845.374 69.202C845.374 68.81 845.738 68.418 846.242 68.418C846.704 68.418 847.082 68.81 847.082 69.202C847.082 69.65 846.732 70.028 846.242 70.028C845.738 70.028 845.374 69.65 845.374 69.202ZM852.104 64.414H852.538C853.168 64.414 853.686 64.26 854.12 63.966C854.54 63.672 854.75 63.28 854.75 62.818C854.75 61.768 853.924 61.236 852.286 61.236C850.718 61.236 849.864 61.81 849.864 62.818C849.864 63.728 850.802 64.414 852.104 64.414ZM852.51 65.52H852.16C851.404 65.52 850.774 65.688 850.284 66.01C849.794 66.332 849.542 66.738 849.542 67.228C849.542 68.292 850.522 68.964 852.3 68.964C854.106 68.964 855.072 68.32 855.072 67.242C855.072 66.164 854.036 65.52 852.51 65.52ZM855.268 69.37C854.554 69.874 853.56 70.126 852.314 70.126C851.068 70.126 850.074 69.874 849.346 69.384C848.618 68.894 848.254 68.222 848.254 67.354C848.254 66.22 848.996 65.324 850.186 64.932C849.108 64.582 848.576 63.728 848.576 62.734C848.576 61.11 849.948 60.074 852.3 60.074C854.666 60.074 856.038 61.11 856.038 62.734C856.038 63.672 855.52 64.386 854.484 64.862C855.73 65.24 856.346 66.052 856.346 67.298C856.346 68.18 855.982 68.88 855.268 69.37Z" fill="#2A3C3C"/>
<path d="M830.514 62.804L830.066 61.754L833.426 60.144H834.224V70H833.02V61.642L830.514 62.804ZM842.772 70H841.554V67.998H835.562V67.186L841.694 60.2H842.772V66.864H844.592V67.998H842.772V70ZM841.554 62.16L837.242 66.864H841.554V62.16ZM845.374 69.202C845.374 68.81 845.738 68.418 846.242 68.418C846.704 68.418 847.082 68.81 847.082 69.202C847.082 69.65 846.732 70.028 846.242 70.028C845.738 70.028 845.374 69.65 845.374 69.202ZM852.104 64.414H852.538C853.168 64.414 853.686 64.26 854.12 63.966C854.54 63.672 854.75 63.28 854.75 62.818C854.75 61.768 853.924 61.236 852.286 61.236C850.718 61.236 849.864 61.81 849.864 62.818C849.864 63.728 850.802 64.414 852.104 64.414ZM852.51 65.52H852.16C851.404 65.52 850.774 65.688 850.284 66.01C849.794 66.332 849.542 66.738 849.542 67.228C849.542 68.292 850.522 68.964 852.3 68.964C854.106 68.964 855.072 68.32 855.072 67.242C855.072 66.164 854.036 65.52 852.51 65.52ZM855.268 69.37C854.554 69.874 853.56 70.126 852.314 70.126C851.068 70.126 850.074 69.874 849.346 69.384C848.618 68.894 848.254 68.222 848.254 67.354C848.254 66.22 848.996 65.324 850.186 64.932C849.108 64.582 848.576 63.728 848.576 62.734C848.576 61.11 849.948 60.074 852.3 60.074C854.666 60.074 856.038 61.11 856.038 62.734C856.038 63.672 855.52 64.386 854.484 64.862C855.73 65.24 856.346 66.052 856.346 67.298C856.346 68.18 855.982 68.88 855.268 69.37Z" fill="#1A3341"/>
<path d="M831.78 300.764H842.34V301.688H831.78V300.764ZM836.532 297.98H837.504V301.232H836.532V297.98ZM834.564 303.344L835.572 303.596C834.804 305.612 833.628 307.592 832.44 308.864C832.26 308.696 831.816 308.372 831.564 308.228C832.776 307.052 833.892 305.192 834.564 303.344ZM838.476 303.728L839.376 303.356C840.516 304.928 841.824 307.04 842.352 308.408L841.368 308.84C840.876 307.508 839.628 305.336 838.476 303.728ZM845.976 298.556H852.24V299.432H845.976V298.556ZM845.976 301.448H852.288V302.312H845.976V301.448ZM845.88 304.352H852.228V305.216H845.88V304.352ZM845.424 298.556H846.336V302.264C846.336 304.34 846.036 307.172 843.972 308.972C843.84 308.78 843.48 308.456 843.288 308.324C845.22 306.632 845.424 304.196 845.424 302.264V298.556ZM851.844 298.556H852.78V307.64C852.78 308.276 852.612 308.588 852.156 308.744C851.688 308.9 850.896 308.912 849.6 308.912C849.54 308.648 849.372 308.216 849.216 307.964C850.212 308 851.196 307.988 851.472 307.988C851.748 307.976 851.844 307.892 851.844 307.628V298.556Z" fill="#76848D"/>
<path d="M872.726 53.804L872.278 52.754L875.638 51.144H876.436V61H875.232V52.642L872.726 53.804ZM879.65 56.492L878.642 56.226L879.216 51.2H885.376V52.39H880.294L879.93 55.022C880.42 54.658 881.162 54.476 882.156 54.476C883.304 54.476 884.2 54.784 884.858 55.386C885.502 56.002 885.824 56.786 885.824 57.752C885.824 58.718 885.46 59.53 884.746 60.16C884.018 60.804 883.108 61.126 882.03 61.126C880.196 61.126 878.67 60.258 878.04 58.732L879.16 58.256C879.566 59.194 880.616 59.936 882.03 59.936C883.64 59.936 884.536 59.012 884.536 57.794C884.536 56.492 883.486 55.652 881.82 55.652C880.924 55.652 880.196 55.932 879.65 56.492ZM886.984 60.202C886.984 59.81 887.348 59.418 887.852 59.418C888.314 59.418 888.692 59.81 888.692 60.202C888.692 60.65 888.342 61.028 887.852 61.028C887.348 61.028 886.984 60.65 886.984 60.202ZM889.85 56.1C889.85 54.588 890.2 53.37 890.914 52.46C891.614 51.55 892.65 51.088 894.008 51.088C896.794 51.088 898.18 52.922 898.18 56.1C898.18 57.626 897.83 58.83 897.144 59.74C896.444 60.65 895.408 61.112 894.036 61.112C892.72 61.112 891.698 60.65 890.956 59.726C890.214 58.802 889.85 57.598 889.85 56.1ZM891.138 56.1C891.138 58.494 892.23 59.922 894.036 59.922C895.94 59.922 896.892 58.648 896.892 56.1C896.892 53.552 895.926 52.278 894.008 52.278C892.062 52.278 891.138 53.678 891.138 56.1Z" fill="#2A3C3C"/>
<path d="M872.726 53.804L872.278 52.754L875.638 51.144H876.436V61H875.232V52.642L872.726 53.804ZM879.65 56.492L878.642 56.226L879.216 51.2H885.376V52.39H880.294L879.93 55.022C880.42 54.658 881.162 54.476 882.156 54.476C883.304 54.476 884.2 54.784 884.858 55.386C885.502 56.002 885.824 56.786 885.824 57.752C885.824 58.718 885.46 59.53 884.746 60.16C884.018 60.804 883.108 61.126 882.03 61.126C880.196 61.126 878.67 60.258 878.04 58.732L879.16 58.256C879.566 59.194 880.616 59.936 882.03 59.936C883.64 59.936 884.536 59.012 884.536 57.794C884.536 56.492 883.486 55.652 881.82 55.652C880.924 55.652 880.196 55.932 879.65 56.492ZM886.984 60.202C886.984 59.81 887.348 59.418 887.852 59.418C888.314 59.418 888.692 59.81 888.692 60.202C888.692 60.65 888.342 61.028 887.852 61.028C887.348 61.028 886.984 60.65 886.984 60.202ZM889.85 56.1C889.85 54.588 890.2 53.37 890.914 52.46C891.614 51.55 892.65 51.088 894.008 51.088C896.794 51.088 898.18 52.922 898.18 56.1C898.18 57.626 897.83 58.83 897.144 59.74C896.444 60.65 895.408 61.112 894.036 61.112C892.72 61.112 891.698 60.65 890.956 59.726C890.214 58.802 889.85 57.598 889.85 56.1ZM891.138 56.1C891.138 58.494 892.23 59.922 894.036 59.922C895.94 59.922 896.892 58.648 896.892 56.1C896.892 53.552 895.926 52.278 894.008 52.278C892.062 52.278 891.138 53.678 891.138 56.1Z" fill="#1A3341"/>
<path d="M873.648 302.708L884.352 300.98L884.508 301.904L873.792 303.608L873.648 302.708ZM877.116 298.136H878.076V306.728C878.076 307.472 878.232 307.652 879.096 307.652C879.528 307.652 881.664 307.652 882.18 307.652C882.984 307.652 883.104 307.22 883.224 305.432C883.464 305.612 883.884 305.792 884.136 305.864C883.992 307.856 883.692 308.54 882.204 308.54C881.856 308.54 879.396 308.54 879.06 308.54C877.572 308.54 877.116 308.168 877.116 306.716V298.136ZM887.976 298.556H894.24V299.432H887.976V298.556ZM887.976 301.448H894.288V302.312H887.976V301.448ZM887.88 304.352H894.228V305.216H887.88V304.352ZM887.424 298.556H888.336V302.264C888.336 304.34 888.036 307.172 885.972 308.972C885.84 308.78 885.48 308.456 885.288 308.324C887.22 306.632 887.424 304.196 887.424 302.264V298.556ZM893.844 298.556H894.78V307.64C894.78 308.276 894.612 308.588 894.156 308.744C893.688 308.9 892.896 308.912 891.6 308.912C891.54 308.648 891.372 308.216 891.216 307.964C892.212 308 893.196 307.988 893.472 307.988C893.748 307.976 893.844 307.892 893.844 307.628V298.556Z" fill="#76848D"/>
<path d="M914.664 42.804L914.216 41.754L917.576 40.144H918.374V50H917.17V41.642L914.664 42.804ZM921.587 45.492L920.579 45.226L921.153 40.2H927.313V41.39H922.231L921.867 44.022C922.357 43.658 923.099 43.476 924.093 43.476C925.241 43.476 926.137 43.784 926.795 44.386C927.439 45.002 927.761 45.786 927.761 46.752C927.761 47.718 927.397 48.53 926.683 49.16C925.955 49.804 925.045 50.126 923.967 50.126C922.133 50.126 920.607 49.258 919.977 47.732L921.097 47.256C921.503 48.194 922.553 48.936 923.967 48.936C925.577 48.936 926.473 48.012 926.473 46.794C926.473 45.492 925.423 44.652 923.757 44.652C922.861 44.652 922.133 44.932 921.587 45.492ZM928.922 49.202C928.922 48.81 929.286 48.418 929.79 48.418C930.252 48.418 930.63 48.81 930.63 49.202C930.63 49.65 930.28 50.028 929.79 50.028C929.286 50.028 928.922 49.65 928.922 49.202ZM932.754 43.056L931.704 42.58C932.222 41.068 933.58 40.074 935.61 40.074C936.576 40.074 937.374 40.298 937.99 40.746C938.606 41.194 938.914 41.796 938.914 42.538C938.914 43.672 938.312 44.512 937.192 44.834C938.27 44.904 939.138 45.716 939.138 47.172C939.138 48.096 938.802 48.824 938.13 49.342C937.458 49.86 936.604 50.126 935.554 50.126C933.412 50.126 931.928 49.104 931.438 47.494L932.572 47.004C933.174 48.278 934.196 48.922 935.638 48.922C936.996 48.922 937.85 48.292 937.85 47.186C937.85 46.108 937.01 45.562 935.33 45.562H934.238V44.4H935.106C936.632 44.4 937.626 43.714 937.626 42.776C937.626 41.81 936.828 41.264 935.554 41.264C934.056 41.264 933.146 42.034 932.754 43.056Z" fill="#2A3C3C"/>
<path d="M914.664 42.804L914.216 41.754L917.576 40.144H918.374V50H917.17V41.642L914.664 42.804ZM921.587 45.492L920.579 45.226L921.153 40.2H927.313V41.39H922.231L921.867 44.022C922.357 43.658 923.099 43.476 924.093 43.476C925.241 43.476 926.137 43.784 926.795 44.386C927.439 45.002 927.761 45.786 927.761 46.752C927.761 47.718 927.397 48.53 926.683 49.16C925.955 49.804 925.045 50.126 923.967 50.126C922.133 50.126 920.607 49.258 919.977 47.732L921.097 47.256C921.503 48.194 922.553 48.936 923.967 48.936C925.577 48.936 926.473 48.012 926.473 46.794C926.473 45.492 925.423 44.652 923.757 44.652C922.861 44.652 922.133 44.932 921.587 45.492ZM928.922 49.202C928.922 48.81 929.286 48.418 929.79 48.418C930.252 48.418 930.63 48.81 930.63 49.202C930.63 49.65 930.28 50.028 929.79 50.028C929.286 50.028 928.922 49.65 928.922 49.202ZM932.754 43.056L931.704 42.58C932.222 41.068 933.58 40.074 935.61 40.074C936.576 40.074 937.374 40.298 937.99 40.746C938.606 41.194 938.914 41.796 938.914 42.538C938.914 43.672 938.312 44.512 937.192 44.834C938.27 44.904 939.138 45.716 939.138 47.172C939.138 48.096 938.802 48.824 938.13 49.342C937.458 49.86 936.604 50.126 935.554 50.126C933.412 50.126 931.928 49.104 931.438 47.494L932.572 47.004C933.174 48.278 934.196 48.922 935.638 48.922C936.996 48.922 937.85 48.292 937.85 47.186C937.85 46.108 937.01 45.562 935.33 45.562H934.238V44.4H935.106C936.632 44.4 937.626 43.714 937.626 42.776C937.626 41.81 936.828 41.264 935.554 41.264C934.056 41.264 933.146 42.034 932.754 43.056Z" fill="#1A3341"/>
<path d="M918.68 298.868H923.336V299.804H918.68V298.868ZM922.592 298.868H923.696C924.044 302.96 924.86 306.548 927.08 308.252C926.816 308.42 926.42 308.744 926.204 308.972C923.984 307.076 923.18 303.464 922.808 299.384H922.592V298.868ZM918.992 301.148L920.012 301.292C919.556 304.064 918.728 307.184 916.772 308.996C916.604 308.816 916.256 308.504 916.028 308.348C917.9 306.656 918.668 303.68 918.992 301.148ZM930.476 298.556H936.74V299.432H930.476V298.556ZM930.476 301.448H936.788V302.312H930.476V301.448ZM930.38 304.352H936.728V305.216H930.38V304.352ZM929.924 298.556H930.836V302.264C930.836 304.34 930.536 307.172 928.472 308.972C928.34 308.78 927.98 308.456 927.788 308.324C929.72 306.632 929.924 304.196 929.924 302.264V298.556ZM936.344 298.556H937.28V307.64C937.28 308.276 937.112 308.588 936.656 308.744C936.188 308.9 935.396 308.912 934.1 308.912C934.04 308.648 933.872 308.216 933.716 307.964C934.712 308 935.696 307.988 935.972 307.988C936.248 307.976 936.344 307.892 936.344 307.628V298.556Z" fill="#76848D"/>
<path d="M958.726 54.804L958.278 53.754L961.638 52.144H962.436V62H961.232V53.642L958.726 54.804ZM965.65 57.492L964.642 57.226L965.216 52.2H971.376V53.39H966.294L965.93 56.022C966.42 55.658 967.162 55.476 968.156 55.476C969.304 55.476 970.2 55.784 970.858 56.386C971.502 57.002 971.824 57.786 971.824 58.752C971.824 59.718 971.46 60.53 970.746 61.16C970.018 61.804 969.108 62.126 968.03 62.126C966.196 62.126 964.67 61.258 964.04 59.732L965.16 59.256C965.566 60.194 966.616 60.936 968.03 60.936C969.64 60.936 970.536 60.012 970.536 58.794C970.536 57.492 969.486 56.652 967.82 56.652C966.924 56.652 966.196 56.932 965.65 57.492ZM972.984 61.202C972.984 60.81 973.348 60.418 973.852 60.418C974.314 60.418 974.692 60.81 974.692 61.202C974.692 61.65 974.342 62.028 973.852 62.028C973.348 62.028 972.984 61.65 972.984 61.202ZM975.85 57.1C975.85 55.588 976.2 54.37 976.914 53.46C977.614 52.55 978.65 52.088 980.008 52.088C982.794 52.088 984.18 53.922 984.18 57.1C984.18 58.626 983.83 59.83 983.144 60.74C982.444 61.65 981.408 62.112 980.036 62.112C978.72 62.112 977.698 61.65 976.956 60.726C976.214 59.802 975.85 58.598 975.85 57.1ZM977.138 57.1C977.138 59.494 978.23 60.922 980.036 60.922C981.94 60.922 982.892 59.648 982.892 57.1C982.892 54.552 981.926 53.278 980.008 53.278C978.062 53.278 977.138 54.678 977.138 57.1Z" fill="#2A3C3C"/>
<path d="M958.726 54.804L958.278 53.754L961.638 52.144H962.436V62H961.232V53.642L958.726 54.804ZM965.65 57.492L964.642 57.226L965.216 52.2H971.376V53.39H966.294L965.93 56.022C966.42 55.658 967.162 55.476 968.156 55.476C969.304 55.476 970.2 55.784 970.858 56.386C971.502 57.002 971.824 57.786 971.824 58.752C971.824 59.718 971.46 60.53 970.746 61.16C970.018 61.804 969.108 62.126 968.03 62.126C966.196 62.126 964.67 61.258 964.04 59.732L965.16 59.256C965.566 60.194 966.616 60.936 968.03 60.936C969.64 60.936 970.536 60.012 970.536 58.794C970.536 57.492 969.486 56.652 967.82 56.652C966.924 56.652 966.196 56.932 965.65 57.492ZM972.984 61.202C972.984 60.81 973.348 60.418 973.852 60.418C974.314 60.418 974.692 60.81 974.692 61.202C974.692 61.65 974.342 62.028 973.852 62.028C973.348 62.028 972.984 61.65 972.984 61.202ZM975.85 57.1C975.85 55.588 976.2 54.37 976.914 53.46C977.614 52.55 978.65 52.088 980.008 52.088C982.794 52.088 984.18 53.922 984.18 57.1C984.18 58.626 983.83 59.83 983.144 60.74C982.444 61.65 981.408 62.112 980.036 62.112C978.72 62.112 977.698 61.65 976.956 60.726C976.214 59.802 975.85 58.598 975.85 57.1ZM977.138 57.1C977.138 59.494 978.23 60.922 980.036 60.922C981.94 60.922 982.892 59.648 982.892 57.1C982.892 54.552 981.926 53.278 980.008 53.278C978.062 53.278 977.138 54.678 977.138 57.1Z" fill="#1A3341"/>
<path d="M963.796 298.052H964.768C964.732 302.648 964.72 306.884 960.628 308.972C960.496 308.744 960.196 308.42 959.956 308.252C963.88 306.368 963.784 302.408 963.796 298.052ZM960.508 301.004H967.948V301.904H960.508V301.004ZM967.396 301.004H968.32V307.4C968.32 307.832 968.38 307.904 968.752 307.904C968.92 307.904 969.76 307.904 969.988 307.904C970.324 307.904 970.384 307.616 970.42 306.164C970.636 306.332 971.02 306.5 971.272 306.572C971.188 308.252 970.948 308.792 970.06 308.792C969.856 308.792 968.812 308.792 968.62 308.792C967.696 308.792 967.396 308.504 967.396 307.4V301.004ZM974.476 298.556H980.74V299.432H974.476V298.556ZM974.476 301.448H980.788V302.312H974.476V301.448ZM974.38 304.352H980.728V305.216H974.38V304.352ZM973.924 298.556H974.836V302.264C974.836 304.34 974.536 307.172 972.472 308.972C972.34 308.78 971.98 308.456 971.788 308.324C973.72 306.632 973.924 304.196 973.924 302.264V298.556ZM980.344 298.556H981.28V307.64C981.28 308.276 981.112 308.588 980.656 308.744C980.188 308.9 979.396 308.912 978.1 308.912C978.04 308.648 977.872 308.216 977.716 307.964C978.712 308 979.696 307.988 979.972 307.988C980.248 307.976 980.344 307.892 980.344 307.628V298.556Z" fill="#76848D"/>
<path d="M1004.72 50.804L1004.27 49.754L1007.63 48.144H1008.43V58H1007.23V49.642L1004.72 50.804ZM1011.65 53.492L1010.64 53.226L1011.21 48.2H1017.37V49.39H1012.29L1011.93 52.022C1012.42 51.658 1013.16 51.476 1014.15 51.476C1015.3 51.476 1016.2 51.784 1016.85 52.386C1017.5 53.002 1017.82 53.786 1017.82 54.752C1017.82 55.718 1017.46 56.53 1016.74 57.16C1016.01 57.804 1015.1 58.126 1014.03 58.126C1012.19 58.126 1010.67 57.258 1010.04 55.732L1011.16 55.256C1011.56 56.194 1012.61 56.936 1014.03 56.936C1015.64 56.936 1016.53 56.012 1016.53 54.794C1016.53 53.492 1015.48 52.652 1013.82 52.652C1012.92 52.652 1012.19 52.932 1011.65 53.492ZM1018.98 57.202C1018.98 56.81 1019.34 56.418 1019.85 56.418C1020.31 56.418 1020.69 56.81 1020.69 57.202C1020.69 57.65 1020.34 58.028 1019.85 58.028C1019.34 58.028 1018.98 57.65 1018.98 57.202ZM1021.73 50.804L1021.29 49.754L1024.65 48.144H1025.44V58H1024.24V49.642L1021.73 50.804Z" fill="#2A3C3C"/>
<path d="M1004.72 50.804L1004.27 49.754L1007.63 48.144H1008.43V58H1007.23V49.642L1004.72 50.804ZM1011.65 53.492L1010.64 53.226L1011.21 48.2H1017.37V49.39H1012.29L1011.93 52.022C1012.42 51.658 1013.16 51.476 1014.15 51.476C1015.3 51.476 1016.2 51.784 1016.85 52.386C1017.5 53.002 1017.82 53.786 1017.82 54.752C1017.82 55.718 1017.46 56.53 1016.74 57.16C1016.01 57.804 1015.1 58.126 1014.03 58.126C1012.19 58.126 1010.67 57.258 1010.04 55.732L1011.16 55.256C1011.56 56.194 1012.61 56.936 1014.03 56.936C1015.64 56.936 1016.53 56.012 1016.53 54.794C1016.53 53.492 1015.48 52.652 1013.82 52.652C1012.92 52.652 1012.19 52.932 1011.65 53.492ZM1018.98 57.202C1018.98 56.81 1019.34 56.418 1019.85 56.418C1020.31 56.418 1020.69 56.81 1020.69 57.202C1020.69 57.65 1020.34 58.028 1019.85 58.028C1019.34 58.028 1018.98 57.65 1018.98 57.202ZM1021.73 50.804L1021.29 49.754L1024.65 48.144H1025.44V58H1024.24V49.642L1021.73 50.804Z" fill="#1A3341"/>
<path d="M1004.22 302.408H1014.98V303.332H1004.22V302.408ZM1009.09 297.932H1010.05V308.96H1009.09V297.932ZM1018.48 298.556H1024.74V299.432H1018.48V298.556ZM1018.48 301.448H1024.79V302.312H1018.48V301.448ZM1018.38 304.352H1024.73V305.216H1018.38V304.352ZM1017.92 298.556H1018.84V302.264C1018.84 304.34 1018.54 307.172 1016.47 308.972C1016.34 308.78 1015.98 308.456 1015.79 308.324C1017.72 306.632 1017.92 304.196 1017.92 302.264V298.556ZM1024.34 298.556H1025.28V307.64C1025.28 308.276 1025.11 308.588 1024.66 308.744C1024.19 308.9 1023.4 308.912 1022.1 308.912C1022.04 308.648 1021.87 308.216 1021.72 307.964C1022.71 308 1023.7 307.988 1023.97 307.988C1024.25 307.976 1024.34 307.892 1024.34 307.628V298.556Z" fill="#76848D"/>
<path d="M1047.55 113.804L1047.1 112.754L1050.46 111.144H1051.26V121H1050.05V112.642L1047.55 113.804ZM1059.81 121H1058.59V118.998H1052.6V118.186L1058.73 111.2H1059.81V117.864H1061.63V118.998H1059.81V121ZM1058.59 113.16L1054.28 117.864H1058.59V113.16ZM1063.25 121C1062.73 121.056 1062.34 120.762 1062.34 120.258C1062.34 119.768 1062.65 119.46 1063.19 119.46C1063.81 119.46 1064.21 119.88 1064.21 120.664C1064.21 122.064 1063.44 122.778 1062.42 123.016L1062.13 122.358C1062.44 122.274 1062.72 122.106 1062.97 121.84C1063.21 121.574 1063.3 121.294 1063.25 121ZM1065.23 116.366C1065.23 114.672 1065.65 113.37 1066.48 112.446C1067.3 111.536 1068.34 111.074 1069.59 111.074C1071.22 111.074 1072.51 111.816 1073.06 112.992L1072.11 113.636C1071.53 112.726 1070.68 112.278 1069.53 112.278C1068.66 112.278 1067.93 112.614 1067.35 113.286C1066.76 113.972 1066.46 114.896 1066.48 116.086C1067.02 115.064 1068.3 114.448 1069.7 114.448C1070.83 114.448 1071.74 114.742 1072.4 115.344C1073.06 115.946 1073.39 116.744 1073.39 117.724C1073.39 118.718 1073.03 119.544 1072.29 120.174C1071.55 120.804 1070.62 121.126 1069.52 121.126C1066.87 121.126 1065.23 119.404 1065.23 116.366ZM1066.63 117.556C1066.9 118.942 1067.95 119.922 1069.5 119.922C1070.26 119.922 1070.89 119.726 1071.38 119.32C1071.87 118.928 1072.11 118.41 1072.11 117.78C1072.11 116.394 1071.13 115.652 1069.63 115.652C1068.8 115.652 1068.12 115.848 1067.58 116.24C1067.04 116.632 1066.73 117.066 1066.63 117.556Z" fill="#2A3C3C"/>
<path d="M1047.55 113.804L1047.1 112.754L1050.46 111.144H1051.26V121H1050.05V112.642L1047.55 113.804ZM1059.81 121H1058.59V118.998H1052.6V118.186L1058.73 111.2H1059.81V117.864H1061.63V118.998H1059.81V121ZM1058.59 113.16L1054.28 117.864H1058.59V113.16ZM1063.25 121C1062.73 121.056 1062.34 120.762 1062.34 120.258C1062.34 119.768 1062.65 119.46 1063.19 119.46C1063.81 119.46 1064.21 119.88 1064.21 120.664C1064.21 122.064 1063.44 122.778 1062.42 123.016L1062.13 122.358C1062.44 122.274 1062.72 122.106 1062.97 121.84C1063.21 121.574 1063.3 121.294 1063.25 121ZM1065.23 116.366C1065.23 114.672 1065.65 113.37 1066.48 112.446C1067.3 111.536 1068.34 111.074 1069.59 111.074C1071.22 111.074 1072.51 111.816 1073.06 112.992L1072.11 113.636C1071.53 112.726 1070.68 112.278 1069.53 112.278C1068.66 112.278 1067.93 112.614 1067.35 113.286C1066.76 113.972 1066.46 114.896 1066.48 116.086C1067.02 115.064 1068.3 114.448 1069.7 114.448C1070.83 114.448 1071.74 114.742 1072.4 115.344C1073.06 115.946 1073.39 116.744 1073.39 117.724C1073.39 118.718 1073.03 119.544 1072.29 120.174C1071.55 120.804 1070.62 121.126 1069.52 121.126C1066.87 121.126 1065.23 119.404 1065.23 116.366ZM1066.63 117.556C1066.9 118.942 1067.95 119.922 1069.5 119.922C1070.26 119.922 1070.89 119.726 1071.38 119.32C1071.87 118.928 1072.11 118.41 1072.11 117.78C1072.11 116.394 1071.13 115.652 1069.63 115.652C1068.8 115.652 1068.12 115.848 1067.58 116.24C1067.04 116.632 1066.73 117.066 1066.63 117.556Z" fill="#1A3341"/>
<path d="M1042.78 302.408H1053.54V303.332H1042.78V302.408ZM1047.65 297.932H1048.61V308.96H1047.65V297.932ZM1054.53 302.828H1065.51V303.812H1054.53V302.828ZM1068.92 298.556H1075.18V299.432H1068.92V298.556ZM1068.92 301.448H1075.23V302.312H1068.92V301.448ZM1068.82 304.352H1075.17V305.216H1068.82V304.352ZM1068.36 298.556H1069.28V302.264C1069.28 304.34 1068.98 307.172 1066.91 308.972C1066.78 308.78 1066.42 308.456 1066.23 308.324C1068.16 306.632 1068.36 304.196 1068.36 302.264V298.556ZM1074.78 298.556H1075.72V307.64C1075.72 308.276 1075.55 308.588 1075.1 308.744C1074.63 308.9 1073.84 308.912 1072.54 308.912C1072.48 308.648 1072.31 308.216 1072.16 307.964C1073.15 308 1074.14 307.988 1074.41 307.988C1074.69 307.976 1074.78 307.892 1074.78 307.628V298.556Z" fill="#76848D"/>
<path d="M1093.72 50.804L1093.27 49.754L1096.63 48.144H1097.43V58H1096.23V49.642L1093.72 50.804ZM1100.65 53.492L1099.64 53.226L1100.21 48.2H1106.37V49.39H1101.29L1100.93 52.022C1101.42 51.658 1102.16 51.476 1103.15 51.476C1104.3 51.476 1105.2 51.784 1105.85 52.386C1106.5 53.002 1106.82 53.786 1106.82 54.752C1106.82 55.718 1106.46 56.53 1105.74 57.16C1105.01 57.804 1104.1 58.126 1103.03 58.126C1101.19 58.126 1099.67 57.258 1099.04 55.732L1100.16 55.256C1100.56 56.194 1101.61 56.936 1103.03 56.936C1104.64 56.936 1105.53 56.012 1105.53 54.794C1105.53 53.492 1104.48 52.652 1102.82 52.652C1101.92 52.652 1101.19 52.932 1100.65 53.492ZM1107.98 57.202C1107.98 56.81 1108.34 56.418 1108.85 56.418C1109.31 56.418 1109.69 56.81 1109.69 57.202C1109.69 57.65 1109.34 58.028 1108.85 58.028C1108.34 58.028 1107.98 57.65 1107.98 57.202ZM1110.73 50.804L1110.29 49.754L1113.65 48.144H1114.44V58H1113.24V49.642L1110.73 50.804Z" fill="#2A3C3C"/>
<path d="M1093.72 50.804L1093.27 49.754L1096.63 48.144H1097.43V58H1096.23V49.642L1093.72 50.804ZM1100.65 53.492L1099.64 53.226L1100.21 48.2H1106.37V49.39H1101.29L1100.93 52.022C1101.42 51.658 1102.16 51.476 1103.15 51.476C1104.3 51.476 1105.2 51.784 1105.85 52.386C1106.5 53.002 1106.82 53.786 1106.82 54.752C1106.82 55.718 1106.46 56.53 1105.74 57.16C1105.01 57.804 1104.1 58.126 1103.03 58.126C1101.19 58.126 1099.67 57.258 1099.04 55.732L1100.16 55.256C1100.56 56.194 1101.61 56.936 1103.03 56.936C1104.64 56.936 1105.53 56.012 1105.53 54.794C1105.53 53.492 1104.48 52.652 1102.82 52.652C1101.92 52.652 1101.19 52.932 1100.65 53.492ZM1107.98 57.202C1107.98 56.81 1108.34 56.418 1108.85 56.418C1109.31 56.418 1109.69 56.81 1109.69 57.202C1109.69 57.65 1109.34 58.028 1108.85 58.028C1108.34 58.028 1107.98 57.65 1107.98 57.202ZM1110.73 50.804L1110.29 49.754L1113.65 48.144H1114.44V58H1113.24V49.642L1110.73 50.804Z" fill="#1A3341"/>
<path d="M1086.78 302.408H1097.54V303.332H1086.78V302.408ZM1091.65 297.932H1092.61V308.96H1091.65V297.932ZM1099.69 299.648H1108.31V300.608H1099.69V299.648ZM1098.67 306.764H1109.33V307.772H1098.67V306.764ZM1112.92 298.556H1119.18V299.432H1112.92V298.556ZM1112.92 301.448H1119.23V302.312H1112.92V301.448ZM1112.82 304.352H1119.17V305.216H1112.82V304.352ZM1112.36 298.556H1113.28V302.264C1113.28 304.34 1112.98 307.172 1110.91 308.972C1110.78 308.78 1110.42 308.456 1110.23 308.324C1112.16 306.632 1112.36 304.196 1112.36 302.264V298.556ZM1118.78 298.556H1119.72V307.64C1119.72 308.276 1119.55 308.588 1119.1 308.744C1118.63 308.9 1117.84 308.912 1116.54 308.912C1116.48 308.648 1116.31 308.216 1116.16 307.964C1117.15 308 1118.14 307.988 1118.41 307.988C1118.69 307.976 1118.78 307.892 1118.78 307.628V298.556Z" fill="#76848D"/>
<line x1="21" y1="293.5" x2="1141" y2="293.5" stroke="#ABBEC9"/>
<path d="M80 89.8517L127.08 174.426L170.465 73.0892L219.071 103.841L262.62 55L309.536 69.6534L355.051 79.657L396.14 94.7798L441.792 147.74L486.812 121.282L533.383 134.383L577.633 117.318L622.298 155.801L664.513 212L710.176 83.3646L758.357 122.968L801.342 75.7148L844.328 88.7184L886.543 76.7148L928.403 66.2996L973.354 80.2455L1016.2 74.361L1060.95 94.6029L1104 74.361" stroke="#737AF9" stroke-width="4" stroke-linejoin="round"/>
<circle cx="168" cy="73" r="7" fill="#6D73F9" stroke="white" stroke-width="2"/>
<circle cx="124" cy="175" r="7" fill="#6D73F9" stroke="white" stroke-width="2"/>
<circle cx="77" cy="89" r="7" fill="#6D73F9" stroke="white" stroke-width="2"/>
<circle cx="216" cy="103" r="7" fill="#6D73F9" stroke="white" stroke-width="2"/>
<circle cx="260" cy="55" r="7" fill="#6D73F9" stroke="white" stroke-width="2"/>
<circle cx="306" cy="69" r="7" fill="#6D73F9" stroke="white" stroke-width="2"/>
<circle cx="352" cy="80" r="7" fill="#6D73F9" stroke="white" stroke-width="2"/>
<circle cx="393" cy="95" r="7" fill="#6D73F9" stroke="white" stroke-width="2"/>
<circle cx="438" cy="148" r="7" fill="#6D73F9" stroke="white" stroke-width="2"/>
<circle cx="484" cy="122" r="7" fill="#6D73F9" stroke="white" stroke-width="2"/>
<circle cx="530" cy="134" r="7" fill="#6D73F9" stroke="white" stroke-width="2"/>
<circle cx="574" cy="118" r="7" fill="#6D73F9" stroke="white" stroke-width="2"/>
<circle cx="618" cy="155" r="7" fill="#6D73F9" stroke="white" stroke-width="2"/>
<circle cx="661" cy="212" r="7" fill="#6D73F9" stroke="white" stroke-width="2"/>
<circle cx="708" cy="84" r="7" fill="#6D73F9" stroke="white" stroke-width="2"/>
<circle cx="756" cy="123" r="7" fill="#6D73F9" stroke="white" stroke-width="2"/>
<circle cx="798" cy="76" r="7" fill="#6D73F9" stroke="white" stroke-width="2"/>
<circle cx="841" cy="88" r="7" fill="#6D73F9" stroke="white" stroke-width="2"/>
<circle cx="884" cy="77" r="7" fill="#6D73F9" stroke="white" stroke-width="2"/>
<circle cx="925" cy="67" r="7" fill="#6D73F9" stroke="white" stroke-width="2"/>
<circle cx="970" cy="80" r="7" fill="#6D73F9" stroke="white" stroke-width="2"/>
<circle cx="1013" cy="74" r="7" fill="#6D73F9" stroke="white" stroke-width="2"/>
<circle cx="1058" cy="93" r="7" fill="#6D73F9" stroke="white" stroke-width="2"/>
<circle cx="1105" cy="74" r="7" fill="#6D73F9" stroke="white" stroke-width="2"/>
<path d="M21.42 204.832L21.036 203.932L23.916 202.552H24.6V211H23.568V203.836L21.42 204.832ZM27.0904 205.372L26.2144 205.06C26.5144 203.572 27.6424 202.504 29.4304 202.504C31.1584 202.504 32.2144 203.5 32.2144 205.024C32.2144 205.828 31.8664 206.632 31.4344 207.208C31.2184 207.508 30.9424 207.796 30.6184 208.096C29.9584 208.684 29.4904 208.996 28.8064 209.428L27.8824 210.004H32.5264V211H25.9864V210.184L27.8104 208.972C28.1344 208.768 28.3624 208.612 28.4944 208.516C28.6264 208.432 28.8424 208.276 29.1304 208.072C29.4184 207.868 29.6344 207.688 29.7784 207.556C29.9104 207.424 30.0904 207.256 30.2944 207.04C30.8464 206.44 31.0504 205.888 31.1104 205.132C31.1104 204.04 30.4024 203.548 29.3584 203.548C28.7104 203.548 28.1944 203.728 27.8224 204.088C27.4504 204.448 27.1984 204.88 27.0904 205.372Z" fill="#76848D"/>
<path d="M21.42 118.832L21.036 117.932L23.916 116.552H24.6V125H23.568V117.836L21.42 118.832ZM31.9264 125H30.8824V123.284H25.7464V122.588L31.0024 116.6H31.9264V122.312H33.4864V123.284H31.9264V125ZM30.8824 118.28L27.1864 122.312H30.8824V118.28Z" fill="#76848D"/>
<path d="M21.42 32.832L21.036 31.932L23.916 30.552H24.6V39H23.568V31.836L21.42 32.832ZM26.1304 35.028C26.1304 33.576 26.4904 32.46 27.1984 31.668C27.9064 30.888 28.7944 30.492 29.8624 30.492C31.2664 30.492 32.3704 31.128 32.8384 32.136L32.0224 32.688C31.5304 31.908 30.7984 31.524 29.8144 31.524C29.0704 31.524 28.4464 31.812 27.9424 32.388C27.4384 32.976 27.1864 33.768 27.1984 34.788C27.6664 33.912 28.7584 33.384 29.9584 33.384C30.9304 33.384 31.7104 33.636 32.2744 34.152C32.8384 34.668 33.1264 35.352 33.1264 36.192C33.1264 37.044 32.8144 37.752 32.1784 38.292C31.5424 38.832 30.7504 39.108 29.8024 39.108C27.5344 39.108 26.1304 37.632 26.1304 35.028ZM27.3304 36.048C27.5584 37.236 28.4584 38.076 29.7904 38.076C30.4384 38.076 30.9784 37.908 31.3984 37.56C31.8184 37.224 32.0224 36.78 32.0224 36.24C32.0224 35.052 31.1824 34.416 29.8984 34.416C29.1904 34.416 28.6024 34.584 28.1464 34.92C27.6784 35.256 27.4144 35.628 27.3304 36.048Z" fill="#76848D"/>
</svg>
