<svg width="1160" height="355" viewBox="0 0 1160 355" fill="none" xmlns="http://www.w3.org/2000/svg">
<rect width="1160" height="355" fill="white"/>
<rect x="146" y="41" width="21" height="248" fill="#F2FAFC"/>
<rect x="146" y="41" width="21" height="248" fill="url(#paint0_radial_7002_37651)" fill-opacity="0.2"/>
<line x1="78" y1="40.5" x2="1140" y2="40.5001" stroke="#CEE0ED"/>
<line x1="78" y1="188.5" x2="1140" y2="188.5" stroke="#CEE0ED"/>
<line x1="78" y1="140.5" x2="1140" y2="140.5" stroke="#CEE0ED"/>
<line x1="78" y1="90.5" x2="1140" y2="90.5001" stroke="#CEE0ED"/>
<line x1="78" y1="239.5" x2="1140" y2="239.5" stroke="#CEE0ED"/>
<path d="M103 250.845C113.052 251.704 135.778 254.248 146.267 257.548C159.378 261.673 169.211 264.767 184.944 261.157C200.678 257.548 211.167 257.548 222.311 257.548C233.456 257.548 254.433 256.517 263.611 252.907C272.789 249.298 274.1 249.298 287.211 249.298C300.322 249.298 314.089 251.36 319.989 233.829C325.889 216.298 340.967 176.595 344.9 165.767C348.833 154.939 352.767 142.564 355.389 137.408C358.011 132.251 362.6 125.548 371.122 130.704C379.644 135.861 401.933 148.751 408.489 152.361C415.044 155.97 422.911 159.064 426.844 152.361C430.778 145.658 442.578 127.611 445.856 122.97C449.133 118.329 466.833 98.7358 468.8 94.0952C470.767 89.4546 480.6 72.439 486.5 63.6734C492.4 54.9078 510.756 44.5953 516 42.5328C521.244 40.4703 535.011 36.3454 539.6 33.7672C543.752 31.7047 554.022 29.7454 561.889 38.4078C571.722 49.2359 576.311 48.7203 583.522 48.2047C590.733 47.6891 597.944 50.2672 602.533 56.9703C607.122 63.6734 616.3 70.8921 626.133 70.3765C635.967 69.8609 641.211 72.9546 643.833 79.1421C646.456 85.3296 664.156 106.47 671.367 114.72C678.578 122.97 691.033 134.314 708.078 135.861C725.122 137.408 731.022 138.954 738.889 142.048C746.756 145.142 764.456 150.814 772.322 163.704C780.189 176.595 795.267 199.282 798.544 207.532C801.822 215.782 816.244 232.798 822.144 237.954C828.044 243.11 836.567 253.938 841.811 257.548C847.056 261.157 850.333 262.704 862.133 261.157C873.933 259.61 886.389 261.157 894.256 262.704C902.122 264.251 926.378 265.798 938.178 264.251C949.978 262.704 964.4 264.251 976.2 267.345C988 270.438 999.8 268.892 1007.67 264.251C1015.53 259.61 1025.37 264.767 1039.79 268.376C1054.21 271.985 1052.9 277.141 1106 267.345" stroke="#737AF9" stroke-width="4" stroke-linecap="round" stroke-linejoin="round"/>
<path d="M104 276.029C110.99 276.371 128.377 276.234 142.008 272.955C159.046 268.856 172.152 267.319 180.016 268.343C187.879 269.368 194.433 267.831 204.917 266.294C215.402 264.757 227.853 266.294 237.683 266.294C247.512 266.294 263.895 262.707 280.933 266.294C297.971 269.88 318.941 266.806 330.081 263.219C341.221 259.633 375.953 259.633 392.991 260.658C410.029 261.682 439.518 262.707 450.658 260.658C461.798 258.608 488.01 254.509 505.704 256.559C523.397 258.608 569.269 259.633 586.307 259.121C603.345 258.608 625.625 262.195 647.25 260.658C668.876 259.121 699.675 262.707 710.16 262.707C720.645 262.707 742.27 266.806 757.997 266.294C773.725 265.781 792.729 272.442 816.32 272.955C839.911 273.467 915.927 275.004 940.173 276.541C964.419 278.079 1083.03 281.665 1104 279.103" stroke="#CDD3FB" stroke-width="4" stroke-linecap="round" stroke-linejoin="round"/>
<path d="M49.3613 140.048L48.4613 139.64C48.9053 138.344 50.0693 137.492 51.8093 137.492C52.6373 137.492 53.3213 137.684 53.8493 138.068C54.3773 138.452 54.6413 138.968 54.6413 139.604C54.6413 140.576 54.1253 141.296 53.1653 141.572C54.0893 141.632 54.8333 142.328 54.8333 143.576C54.8333 144.368 54.5453 144.992 53.9693 145.436C53.3933 145.88 52.6613 146.108 51.7613 146.108C49.9253 146.108 48.6533 145.232 48.2333 143.852L49.2053 143.432C49.7213 144.524 50.5973 145.076 51.8333 145.076C52.9973 145.076 53.7293 144.536 53.7293 143.588C53.7293 142.664 53.0093 142.196 51.5693 142.196H50.6333V141.2H51.3773C52.6853 141.2 53.5373 140.612 53.5373 139.808C53.5373 138.98 52.8533 138.512 51.7613 138.512C50.4773 138.512 49.6973 139.172 49.3613 140.048ZM55.9036 145.316C55.9036 144.98 56.2156 144.644 56.6476 144.644C57.0436 144.644 57.3676 144.98 57.3676 145.316C57.3676 145.7 57.0676 146.024 56.6476 146.024C56.2156 146.024 55.9036 145.7 55.9036 145.316ZM58.3598 141.8C58.3598 140.504 58.6598 139.46 59.2718 138.68C59.8718 137.9 60.7598 137.504 61.9238 137.504C64.3118 137.504 65.4998 139.076 65.4998 141.8C65.4998 143.108 65.1998 144.14 64.6118 144.92C64.0117 145.7 63.1238 146.096 61.9478 146.096C60.8198 146.096 59.9438 145.7 59.3078 144.908C58.6718 144.116 58.3598 143.084 58.3598 141.8ZM59.4638 141.8C59.4638 143.852 60.3998 145.076 61.9478 145.076C63.5798 145.076 64.3958 143.984 64.3958 141.8C64.3958 139.616 63.5678 138.524 61.9238 138.524C60.2558 138.524 59.4638 139.724 59.4638 141.8Z" fill="#76848D"/>
<path d="M55.6731 96H54.6291V94.284H49.4931V93.588L54.7491 87.6H55.6731V93.312H57.2331V94.284H55.6731V96ZM54.6291 89.28L50.9331 93.312H54.6291V89.28ZM57.9036 95.316C57.9036 94.98 58.2156 94.644 58.6476 94.644C59.0436 94.644 59.3676 94.98 59.3676 95.316C59.3676 95.7 59.0676 96.024 58.6476 96.024C58.2156 96.024 57.9036 95.7 57.9036 95.316ZM60.3598 91.8C60.3598 90.504 60.6598 89.46 61.2718 88.68C61.8718 87.9 62.7598 87.504 63.9238 87.504C66.3118 87.504 67.4998 89.076 67.4998 91.8C67.4998 93.108 67.1998 94.14 66.6118 94.92C66.0117 95.7 65.1238 96.096 63.9478 96.096C62.8198 96.096 61.9438 95.7 61.3078 94.908C60.6718 94.116 60.3598 93.084 60.3598 91.8ZM61.4638 91.8C61.4638 93.852 62.3998 95.076 63.9478 95.076C65.5798 95.076 66.3958 93.984 66.3958 91.8C66.3958 89.616 65.5678 88.524 63.9238 88.524C62.2558 88.524 61.4638 89.724 61.4638 91.8Z" fill="#76848D"/>
<path d="M51.6167 42.136L50.7527 41.908L51.2447 37.6H56.5247V38.62H52.1687L51.8567 40.876C52.2767 40.564 52.9127 40.408 53.7647 40.408C54.7487 40.408 55.5167 40.672 56.0807 41.188C56.6327 41.716 56.9087 42.388 56.9087 43.216C56.9087 44.044 56.5967 44.74 55.9847 45.28C55.3607 45.832 54.5807 46.108 53.6567 46.108C52.0847 46.108 50.7767 45.364 50.2367 44.056L51.1967 43.648C51.5447 44.452 52.4447 45.088 53.6567 45.088C55.0367 45.088 55.8047 44.296 55.8047 43.252C55.8047 42.136 54.9047 41.416 53.4767 41.416C52.7087 41.416 52.0847 41.656 51.6167 42.136ZM57.9036 45.316C57.9036 44.98 58.2156 44.644 58.6476 44.644C59.0436 44.644 59.3676 44.98 59.3676 45.316C59.3676 45.7 59.0676 46.024 58.6476 46.024C58.2156 46.024 57.9036 45.7 57.9036 45.316ZM60.3598 41.8C60.3598 40.504 60.6598 39.46 61.2718 38.68C61.8718 37.9 62.7598 37.504 63.9238 37.504C66.3118 37.504 67.4998 39.076 67.4998 41.8C67.4998 43.108 67.1998 44.14 66.6118 44.92C66.0117 45.7 65.1238 46.096 63.9478 46.096C62.8198 46.096 61.9438 45.7 61.3078 44.908C60.6718 44.116 60.3598 43.084 60.3598 41.8ZM61.4638 41.8C61.4638 43.852 62.3998 45.076 63.9478 45.076C65.5798 45.076 66.3958 43.984 66.3958 41.8C66.3958 39.616 65.5678 38.524 63.9238 38.524C62.2558 38.524 61.4638 39.724 61.4638 41.8Z" fill="#76848D"/>
<path d="M49.5519 189.372L48.6759 189.06C48.9759 187.572 50.1039 186.504 51.8919 186.504C53.6199 186.504 54.6759 187.5 54.6759 189.024C54.6759 189.828 54.3279 190.632 53.8959 191.208C53.6799 191.508 53.4039 191.796 53.0799 192.096C52.4199 192.684 51.9519 192.996 51.2679 193.428L50.3439 194.004H54.9879V195H48.4479V194.184L50.2719 192.972C50.5959 192.768 50.8239 192.612 50.9559 192.516C51.0879 192.432 51.3039 192.276 51.5919 192.072C51.8799 191.868 52.0959 191.688 52.2399 191.556C52.3719 191.424 52.5519 191.256 52.7559 191.04C53.3079 190.44 53.5119 189.888 53.5719 189.132C53.5719 188.04 52.8639 187.548 51.8199 187.548C51.1719 187.548 50.6559 187.728 50.2839 188.088C49.9119 188.448 49.6599 188.88 49.5519 189.372ZM55.9036 194.316C55.9036 193.98 56.2156 193.644 56.6476 193.644C57.0436 193.644 57.3676 193.98 57.3676 194.316C57.3676 194.7 57.0676 195.024 56.6476 195.024C56.2156 195.024 55.9036 194.7 55.9036 194.316ZM58.3598 190.8C58.3598 189.504 58.6598 188.46 59.2718 187.68C59.8718 186.9 60.7598 186.504 61.9238 186.504C64.3118 186.504 65.4998 188.076 65.4998 190.8C65.4998 192.108 65.1998 193.14 64.6118 193.92C64.0117 194.7 63.1238 195.096 61.9478 195.096C60.8198 195.096 59.9438 194.7 59.3078 193.908C58.6718 193.116 58.3598 192.084 58.3598 190.8ZM59.4638 190.8C59.4638 192.852 60.3998 194.076 61.9478 194.076C63.5798 194.076 64.3958 192.984 64.3958 190.8C64.3958 188.616 63.5678 187.524 61.9238 187.524C60.2558 187.524 59.4638 188.724 59.4638 190.8Z" fill="#76848D"/>
<path d="M49.1092 238.832L48.7252 237.932L51.6052 236.552H52.2892V245H51.2572V237.836L49.1092 238.832ZM53.9036 244.316C53.9036 243.98 54.2156 243.644 54.6476 243.644C55.0436 243.644 55.3676 243.98 55.3676 244.316C55.3676 244.7 55.0676 245.024 54.6476 245.024C54.2156 245.024 53.9036 244.7 53.9036 244.316ZM56.3598 240.8C56.3598 239.504 56.6598 238.46 57.2718 237.68C57.8718 236.9 58.7598 236.504 59.9238 236.504C62.3118 236.504 63.4998 238.076 63.4998 240.8C63.4998 242.108 63.1998 243.14 62.6118 243.92C62.0117 244.7 61.1238 245.096 59.9478 245.096C58.8198 245.096 57.9438 244.7 57.3078 243.908C56.6718 243.116 56.3598 242.084 56.3598 240.8ZM57.4638 240.8C57.4638 242.852 58.3998 244.076 59.9478 244.076C61.5798 244.076 62.3958 242.984 62.3958 240.8C62.3958 238.616 61.5678 237.524 59.9238 237.524C58.2558 237.524 57.4638 238.724 57.4638 240.8Z" fill="#76848D"/>
<line x1="49" y1="288.5" x2="1140" y2="288.5" stroke="#ABBEC9"/>
<path d="M109.84 335.928V325.032H110.812V335.928H109.84ZM111.328 321.228V315.612H109.312V321.096C109.936 321.096 110.62 321.132 111.328 321.228ZM106.468 315.612V321.096H108.46V315.612H106.468ZM105.592 314.688H114.616C115.24 314.688 115.552 314.868 115.696 315.312C115.852 315.768 115.864 316.56 115.864 317.844C115.612 317.904 115.192 318.072 114.94 318.216C114.976 317.22 114.964 316.26 114.964 315.984C114.952 315.708 114.868 315.612 114.604 315.612H112.204V321.372C113.56 321.672 114.916 322.272 115.936 323.436C115.744 323.556 115.42 323.916 115.288 324.096C113.608 322.188 111.172 321.996 109.264 321.996H105.592V314.688ZM109.372 311.028L109.06 311.904C107.572 311.604 106.504 310.476 106.504 308.688C106.504 306.96 107.5 305.904 109.024 305.904C109.828 305.904 110.632 306.252 111.208 306.684C111.508 306.9 111.796 307.176 112.096 307.5C112.684 308.16 112.996 308.628 113.428 309.312L114.004 310.236V305.592H115V312.132H114.184L112.972 310.308C112.768 309.984 112.612 309.756 112.516 309.624C112.432 309.492 112.276 309.276 112.072 308.988C111.868 308.7 111.688 308.484 111.556 308.34C111.424 308.208 111.256 308.028 111.04 307.824C110.44 307.272 109.888 307.068 109.132 307.008C108.04 307.008 107.548 307.716 107.548 308.76C107.548 309.408 107.728 309.924 108.088 310.296C108.448 310.668 108.88 310.92 109.372 311.028ZM110.8 304.64C109.504 304.64 108.46 304.34 107.68 303.728C106.9 303.128 106.504 302.24 106.504 301.076C106.504 298.688 108.076 297.5 110.8 297.5C112.108 297.5 113.14 297.8 113.92 298.388C114.7 298.988 115.096 299.876 115.096 301.052C115.096 302.18 114.7 303.056 113.908 303.692C113.116 304.328 112.084 304.64 110.8 304.64ZM110.8 303.536C112.852 303.536 114.076 302.6 114.076 301.052C114.076 299.42 112.984 298.604 110.8 298.604C108.616 298.604 107.524 299.432 107.524 301.076C107.524 302.744 108.724 303.536 110.8 303.536Z" fill="#76848D"/>
<path d="M127.684 319.272V310.716H128.632V319.272H127.684ZM134.752 320.28V309.708H135.724V320.28H134.752ZM132.328 305.724V300.108H130.312V305.592C130.936 305.592 131.62 305.628 132.328 305.724ZM127.468 300.108V305.592H129.46V300.108H127.468ZM126.592 299.184H135.616C136.24 299.184 136.552 299.364 136.696 299.808C136.852 300.264 136.864 301.056 136.864 302.34C136.612 302.4 136.192 302.568 135.94 302.712C135.976 301.716 135.964 300.756 135.964 300.48C135.952 300.204 135.868 300.108 135.604 300.108H133.204V305.868C134.56 306.168 135.916 306.768 136.936 307.932C136.744 308.052 136.42 308.412 136.288 308.592C134.608 306.684 132.172 306.492 130.264 306.492H126.592V299.184Z" fill="#76848D"/>
<path d="M148.12 319.488V310.488H149.008V319.488H148.12ZM152.008 318.72V311.424H152.908V318.72H152.008ZM156.148 320.172V309.84H157.048V320.172H156.148ZM153.328 305.724V300.108H151.312V305.592C151.936 305.592 152.62 305.628 153.328 305.724ZM148.468 300.108V305.592H150.46V300.108H148.468ZM147.592 299.184H156.616C157.24 299.184 157.552 299.364 157.696 299.808C157.852 300.264 157.864 301.056 157.864 302.34C157.612 302.4 157.192 302.568 156.94 302.712C156.976 301.716 156.964 300.756 156.964 300.48C156.952 300.204 156.868 300.108 156.604 300.108H154.204V305.868C155.56 306.168 156.916 306.768 157.936 307.932C157.744 308.052 157.42 308.412 157.288 308.592C155.608 306.684 153.172 306.492 151.264 306.492H147.592V299.184Z" fill="#76848D"/>
<path d="M176.764 319.008V311.052H169.864V313.392H173.62C174.004 313.392 174.148 313.344 174.148 313.092V311.928C174.148 311.724 174.136 311.4 174.088 311.232C174.34 311.22 174.628 311.196 174.844 311.172C174.904 311.316 174.904 311.616 174.904 311.892V313.188C174.904 314.028 174.532 314.232 173.596 314.232H169.864V315.888C173.092 315.96 174.868 316.26 175.864 318.324C175.648 318.42 175.336 318.672 175.168 318.864C174.316 317.04 172.792 316.824 169.864 316.764V319.008H176.764ZM169 319.896V310.14H178.432V311.052H177.628V319.008H178.516V319.896H169ZM174.328 305.724V300.108H172.312V305.592C172.936 305.592 173.62 305.628 174.328 305.724ZM169.468 300.108V305.592H171.46V300.108H169.468ZM168.592 299.184H177.616C178.24 299.184 178.552 299.364 178.696 299.808C178.852 300.264 178.864 301.056 178.864 302.34C178.612 302.4 178.192 302.568 177.94 302.712C177.976 301.716 177.964 300.756 177.964 300.48C177.952 300.204 177.868 300.108 177.604 300.108H175.204V305.868C176.56 306.168 177.916 306.768 178.936 307.932C178.744 308.052 178.42 308.412 178.288 308.592C176.608 306.684 174.172 306.492 172.264 306.492H168.592V299.184Z" fill="#76848D"/>
<path d="M194.464 312.672V315.684C195.892 315.912 197.296 316.164 198.388 316.392V313.044C197.116 312.912 195.58 312.768 194.464 312.672ZM198.388 312.12V309.684H199.264V320.28H198.388V317.364C197.296 317.124 195.892 316.872 194.464 316.632V318.864H193.588V316.488C192.7 316.344 191.812 316.212 191.008 316.104V319.524H190.132V310.548H191.008V315.156C191.812 315.276 192.712 315.408 193.588 315.552V312.528L193.54 312.372L193.612 311.688C194.932 311.772 196.828 311.94 198.388 312.12ZM195.328 305.724V300.108H193.312V305.592C193.936 305.592 194.62 305.628 195.328 305.724ZM190.468 300.108V305.592H192.46V300.108H190.468ZM189.592 299.184H198.616C199.24 299.184 199.552 299.364 199.696 299.808C199.852 300.264 199.864 301.056 199.864 302.34C199.612 302.4 199.192 302.568 198.94 302.712C198.976 301.716 198.964 300.756 198.964 300.48C198.952 300.204 198.868 300.108 198.604 300.108H196.204V305.868C197.56 306.168 198.916 306.768 199.936 307.932C199.744 308.052 199.42 308.412 199.288 308.592C197.608 306.684 195.172 306.492 193.264 306.492H189.592V299.184Z" fill="#76848D"/>
<path d="M213.124 320.268V309.696H214.036V320.268H213.124ZM215.416 317.28L215.728 316.308C217.576 317.184 219.556 318.444 220.84 319.548C220.672 319.752 220.372 320.184 220.216 320.436C219.028 319.284 217.156 318.072 215.416 317.28ZM215.716 313.752L215.32 312.924C216.88 311.808 219.004 310.344 220.252 309.636L220.768 310.536C219.508 311.196 217.324 312.636 215.716 313.752ZM210.328 316.104L210.016 315.204C210.808 314.784 211.864 314.28 212.476 314.04L212.848 315C212.224 315.228 211.132 315.708 210.328 316.104ZM216.328 305.724V300.108H214.312V305.592C214.936 305.592 215.62 305.628 216.328 305.724ZM211.468 300.108V305.592H213.46V300.108H211.468ZM210.592 299.184H219.616C220.24 299.184 220.552 299.364 220.696 299.808C220.852 300.264 220.864 301.056 220.864 302.34C220.612 302.4 220.192 302.568 219.94 302.712C219.976 301.716 219.964 300.756 219.964 300.48C219.952 300.204 219.868 300.108 219.604 300.108H217.204V305.868C218.56 306.168 219.916 306.768 220.936 307.932C220.744 308.052 220.42 308.412 220.288 308.592C218.608 306.684 216.172 306.492 214.264 306.492H210.592V299.184Z" fill="#76848D"/>
<path d="M240.616 314.964V311.892C240.616 311.1 240.208 310.98 238.432 310.86C238.6 310.632 238.78 310.212 238.852 309.96C240.82 310.116 241.492 310.404 241.492 311.868V315C241.492 316.476 241.12 316.92 239.704 316.92H236.068L236.596 320.22L235.708 320.364L235.156 316.92H231.172V315.984H235.012L234.004 309.744L234.904 309.6L235.912 315.984H239.716C240.448 315.984 240.616 315.816 240.616 314.964ZM237.328 305.724V300.108H235.312V305.592C235.936 305.592 236.62 305.628 237.328 305.724ZM232.468 300.108V305.592H234.46V300.108H232.468ZM231.592 299.184H240.616C241.24 299.184 241.552 299.364 241.696 299.808C241.852 300.264 241.864 301.056 241.864 302.34C241.612 302.4 241.192 302.568 240.94 302.712C240.976 301.716 240.964 300.756 240.964 300.48C240.952 300.204 240.868 300.108 240.604 300.108H238.204V305.868C239.56 306.168 240.916 306.768 241.936 307.932C241.744 308.052 241.42 308.412 241.288 308.592C239.608 306.684 237.172 306.492 235.264 306.492H231.592V299.184Z" fill="#76848D"/>
<path d="M253.132 317.316L253.204 316.356C256.72 316.68 260.68 317.316 262.864 319.932C262.672 320.064 262.36 320.376 262.192 320.556C260.164 318.108 256.42 317.556 253.132 317.316ZM252.856 313.092C253.732 313.056 259.648 312.768 262.24 309.36C262.408 309.672 262.624 309.948 262.852 310.128C260.116 313.584 253.9 313.896 252.916 313.968L252.856 313.092ZM258.328 305.724V300.108H256.312V305.592C256.936 305.592 257.62 305.628 258.328 305.724ZM253.468 300.108V305.592H255.46V300.108H253.468ZM252.592 299.184H261.616C262.24 299.184 262.552 299.364 262.696 299.808C262.852 300.264 262.864 301.056 262.864 302.34C262.612 302.4 262.192 302.568 261.94 302.712C261.976 301.716 261.964 300.756 261.964 300.48C261.952 300.204 261.868 300.108 261.604 300.108H259.204V305.868C260.56 306.168 261.916 306.768 262.936 307.932C262.744 308.052 262.42 308.412 262.288 308.592C260.608 306.684 258.172 306.492 256.264 306.492H252.592V299.184Z" fill="#76848D"/>
<path d="M282.868 311.82V310.596C282.868 310.26 282.58 310.2 281.14 310.164C281.32 309.96 281.464 309.576 281.536 309.336C283.204 309.42 283.744 309.648 283.744 310.536V311.952C283.744 312.876 283.456 313.164 282.364 313.164H276.904V315.912C279.904 316.164 282.448 317.004 283.912 319.896C283.696 320.016 283.372 320.316 283.204 320.556C281.92 317.844 279.628 317.064 276.904 316.836V320.004H276.016V316.776C275.08 316.74 274.096 316.74 273.088 316.74V315.792C274.084 315.804 275.068 315.804 276.016 315.852V312.624H276.028V312.264H282.376C282.796 312.264 282.868 312.204 282.868 311.82ZM279.328 305.724V300.108H277.312V305.592C277.936 305.592 278.62 305.628 279.328 305.724ZM274.468 300.108V305.592H276.46V300.108H274.468ZM273.592 299.184H282.616C283.24 299.184 283.552 299.364 283.696 299.808C283.852 300.264 283.864 301.056 283.864 302.34C283.612 302.4 283.192 302.568 282.94 302.712C282.976 301.716 282.964 300.756 282.964 300.48C282.952 300.204 282.868 300.108 282.604 300.108H280.204V305.868C281.56 306.168 282.916 306.768 283.936 307.932C283.744 308.052 283.42 308.412 283.288 308.592C281.608 306.684 279.172 306.492 277.264 306.492H273.592V299.184Z" fill="#76848D"/>
<path d="M298.42 309.612H299.332V314.508H304.912V315.456H299.332V320.292H298.42V315.456H293.98V314.508H298.42V309.612ZM300.328 305.724V300.108H298.312V305.592C298.936 305.592 299.62 305.628 300.328 305.724ZM295.468 300.108V305.592H297.46V300.108H295.468ZM294.592 299.184H303.616C304.24 299.184 304.552 299.364 304.696 299.808C304.852 300.264 304.864 301.056 304.864 302.34C304.612 302.4 304.192 302.568 303.94 302.712C303.976 301.716 303.964 300.756 303.964 300.48C303.952 300.204 303.868 300.108 303.604 300.108H301.204V305.868C302.56 306.168 303.916 306.768 304.936 307.932C304.744 308.052 304.42 308.412 304.288 308.592C302.608 306.684 300.172 306.492 298.264 306.492H294.592V299.184Z" fill="#76848D"/>
<path d="M319.42 321.612H320.332V326.508H325.912V327.456H320.332V332.292H319.42V327.456H314.98V326.508H319.42V321.612ZM319.84 320.424V309.528H320.812V320.424H319.84ZM321.328 305.724V300.108H319.312V305.592C319.936 305.592 320.62 305.628 321.328 305.724ZM316.468 300.108V305.592H318.46V300.108H316.468ZM315.592 299.184H324.616C325.24 299.184 325.552 299.364 325.696 299.808C325.852 300.264 325.864 301.056 325.864 302.34C325.612 302.4 325.192 302.568 324.94 302.712C324.976 301.716 324.964 300.756 324.964 300.48C324.952 300.204 324.868 300.108 324.604 300.108H322.204V305.868C323.56 306.168 324.916 306.768 325.936 307.932C325.744 308.052 325.42 308.412 325.288 308.592C323.608 306.684 321.172 306.492 319.264 306.492H315.592V299.184Z" fill="#76848D"/>
<path d="M340.42 321.612H341.332V326.508H346.912V327.456H341.332V332.292H340.42V327.456H335.98V326.508H340.42V321.612ZM337.684 319.272V310.716H338.632V319.272H337.684ZM344.752 320.28V309.708H345.724V320.28H344.752ZM342.328 305.724V300.108H340.312V305.592C340.936 305.592 341.62 305.628 342.328 305.724ZM337.468 300.108V305.592H339.46V300.108H337.468ZM336.592 299.184H345.616C346.24 299.184 346.552 299.364 346.696 299.808C346.852 300.264 346.864 301.056 346.864 302.34C346.612 302.4 346.192 302.568 345.94 302.712C345.976 301.716 345.964 300.756 345.964 300.48C345.952 300.204 345.868 300.108 345.604 300.108H343.204V305.868C344.56 306.168 345.916 306.768 346.936 307.932C346.744 308.052 346.42 308.412 346.288 308.592C344.608 306.684 342.172 306.492 340.264 306.492H336.592V299.184Z" fill="#76848D"/>
<path d="M361.84 332.506V321.61H362.812V332.506H361.84ZM363.328 317.806V312.19H361.312V317.674C361.936 317.674 362.62 317.71 363.328 317.806ZM358.468 312.19V317.674H360.46V312.19H358.468ZM357.592 311.266H366.616C367.24 311.266 367.552 311.446 367.696 311.89C367.852 312.346 367.864 313.138 367.864 314.422C367.612 314.482 367.192 314.65 366.94 314.794C366.976 313.798 366.964 312.838 366.964 312.562C366.952 312.286 366.868 312.19 366.604 312.19H364.204V317.95C365.56 318.25 366.916 318.85 367.936 320.014C367.744 320.134 367.42 320.494 367.288 320.674C365.608 318.766 363.172 318.574 361.264 318.574H357.592V311.266ZM361.372 307.606L361.06 308.482C359.572 308.182 358.504 307.054 358.504 305.266C358.504 303.538 359.5 302.482 361.024 302.482C361.828 302.482 362.632 302.83 363.208 303.262C363.508 303.478 363.796 303.754 364.096 304.078C364.684 304.738 364.996 305.206 365.428 305.89L366.004 306.814V302.17H367V308.71H366.184L364.972 306.886C364.768 306.562 364.612 306.334 364.516 306.202C364.432 306.07 364.276 305.854 364.072 305.566C363.868 305.278 363.688 305.062 363.556 304.918C363.424 304.786 363.256 304.606 363.04 304.402C362.44 303.85 361.888 303.646 361.132 303.586C360.04 303.586 359.548 304.294 359.548 305.338C359.548 305.986 359.728 306.502 360.088 306.874C360.448 307.246 360.88 307.498 361.372 307.606ZM360.832 301.314L359.932 301.698L358.552 298.818V298.134H367V299.166H359.836L360.832 301.314Z" fill="#76848D"/>
<path d="M379.684 319.272V310.716H380.632V319.272H379.684ZM386.752 320.28V309.708H387.724V320.28H386.752ZM384.328 305.724V300.108H382.312V305.592C382.936 305.592 383.62 305.628 384.328 305.724ZM379.468 300.108V305.592H381.46V300.108H379.468ZM378.592 299.184H387.616C388.24 299.184 388.552 299.364 388.696 299.808C388.852 300.264 388.864 301.056 388.864 302.34C388.612 302.4 388.192 302.568 387.94 302.712C387.976 301.716 387.964 300.756 387.964 300.48C387.952 300.204 387.868 300.108 387.604 300.108H385.204V305.868C386.56 306.168 387.916 306.768 388.936 307.932C388.744 308.052 388.42 308.412 388.288 308.592C386.608 306.684 384.172 306.492 382.264 306.492H378.592V299.184Z" fill="#76848D"/>
<path d="M400.12 319.488V310.488H401.008V319.488H400.12ZM404.008 318.72V311.424H404.908V318.72H404.008ZM408.148 320.172V309.84H409.048V320.172H408.148ZM405.328 305.724V300.108H403.312V305.592C403.936 305.592 404.62 305.628 405.328 305.724ZM400.468 300.108V305.592H402.46V300.108H400.468ZM399.592 299.184H408.616C409.24 299.184 409.552 299.364 409.696 299.808C409.852 300.264 409.864 301.056 409.864 302.34C409.612 302.4 409.192 302.568 408.94 302.712C408.976 301.716 408.964 300.756 408.964 300.48C408.952 300.204 408.868 300.108 408.604 300.108H406.204V305.868C407.56 306.168 408.916 306.768 409.936 307.932C409.744 308.052 409.42 308.412 409.288 308.592C407.608 306.684 405.172 306.492 403.264 306.492H399.592V299.184Z" fill="#76848D"/>
<path d="M428.764 319.008V311.052H421.864V313.392H425.62C426.004 313.392 426.148 313.344 426.148 313.092V311.928C426.148 311.724 426.136 311.4 426.088 311.232C426.34 311.22 426.628 311.196 426.844 311.172C426.904 311.316 426.904 311.616 426.904 311.892V313.188C426.904 314.028 426.532 314.232 425.596 314.232H421.864V315.888C425.092 315.96 426.868 316.26 427.864 318.324C427.648 318.42 427.336 318.672 427.168 318.864C426.316 317.04 424.792 316.824 421.864 316.764V319.008H428.764ZM421 319.896V310.14H430.432V311.052H429.628V319.008H430.516V319.896H421ZM426.328 305.724V300.108H424.312V305.592C424.936 305.592 425.62 305.628 426.328 305.724ZM421.468 300.108V305.592H423.46V300.108H421.468ZM420.592 299.184H429.616C430.24 299.184 430.552 299.364 430.696 299.808C430.852 300.264 430.864 301.056 430.864 302.34C430.612 302.4 430.192 302.568 429.94 302.712C429.976 301.716 429.964 300.756 429.964 300.48C429.952 300.204 429.868 300.108 429.604 300.108H427.204V305.868C428.56 306.168 429.916 306.768 430.936 307.932C430.744 308.052 430.42 308.412 430.288 308.592C428.608 306.684 426.172 306.492 424.264 306.492H420.592V299.184Z" fill="#76848D"/>
<path d="M446.464 312.672V315.684C447.892 315.912 449.296 316.164 450.388 316.392V313.044C449.116 312.912 447.58 312.768 446.464 312.672ZM450.388 312.12V309.684H451.264V320.28H450.388V317.364C449.296 317.124 447.892 316.872 446.464 316.632V318.864H445.588V316.488C444.7 316.344 443.812 316.212 443.008 316.104V319.524H442.132V310.548H443.008V315.156C443.812 315.276 444.712 315.408 445.588 315.552V312.528L445.54 312.372L445.612 311.688C446.932 311.772 448.828 311.94 450.388 312.12ZM447.328 305.724V300.108H445.312V305.592C445.936 305.592 446.62 305.628 447.328 305.724ZM442.468 300.108V305.592H444.46V300.108H442.468ZM441.592 299.184H450.616C451.24 299.184 451.552 299.364 451.696 299.808C451.852 300.264 451.864 301.056 451.864 302.34C451.612 302.4 451.192 302.568 450.94 302.712C450.976 301.716 450.964 300.756 450.964 300.48C450.952 300.204 450.868 300.108 450.604 300.108H448.204V305.868C449.56 306.168 450.916 306.768 451.936 307.932C451.744 308.052 451.42 308.412 451.288 308.592C449.608 306.684 447.172 306.492 445.264 306.492H441.592V299.184Z" fill="#76848D"/>
<path d="M465.124 320.268V309.696H466.036V320.268H465.124ZM467.416 317.28L467.728 316.308C469.576 317.184 471.556 318.444 472.84 319.548C472.672 319.752 472.372 320.184 472.216 320.436C471.028 319.284 469.156 318.072 467.416 317.28ZM467.716 313.752L467.32 312.924C468.88 311.808 471.004 310.344 472.252 309.636L472.768 310.536C471.508 311.196 469.324 312.636 467.716 313.752ZM462.328 316.104L462.016 315.204C462.808 314.784 463.864 314.28 464.476 314.04L464.848 315C464.224 315.228 463.132 315.708 462.328 316.104ZM468.328 305.724V300.108H466.312V305.592C466.936 305.592 467.62 305.628 468.328 305.724ZM463.468 300.108V305.592H465.46V300.108H463.468ZM462.592 299.184H471.616C472.24 299.184 472.552 299.364 472.696 299.808C472.852 300.264 472.864 301.056 472.864 302.34C472.612 302.4 472.192 302.568 471.94 302.712C471.976 301.716 471.964 300.756 471.964 300.48C471.952 300.204 471.868 300.108 471.604 300.108H469.204V305.868C470.56 306.168 471.916 306.768 472.936 307.932C472.744 308.052 472.42 308.412 472.288 308.592C470.608 306.684 468.172 306.492 466.264 306.492H462.592V299.184Z" fill="#76848D"/>
<path d="M492.616 314.964V311.892C492.616 311.1 492.208 310.98 490.432 310.86C490.6 310.632 490.78 310.212 490.852 309.96C492.82 310.116 493.492 310.404 493.492 311.868V315C493.492 316.476 493.12 316.92 491.704 316.92H488.068L488.596 320.22L487.708 320.364L487.156 316.92H483.172V315.984H487.012L486.004 309.744L486.904 309.6L487.912 315.984H491.716C492.448 315.984 492.616 315.816 492.616 314.964ZM489.328 305.724V300.108H487.312V305.592C487.936 305.592 488.62 305.628 489.328 305.724ZM484.468 300.108V305.592H486.46V300.108H484.468ZM483.592 299.184H492.616C493.24 299.184 493.552 299.364 493.696 299.808C493.852 300.264 493.864 301.056 493.864 302.34C493.612 302.4 493.192 302.568 492.94 302.712C492.976 301.716 492.964 300.756 492.964 300.48C492.952 300.204 492.868 300.108 492.604 300.108H490.204V305.868C491.56 306.168 492.916 306.768 493.936 307.932C493.744 308.052 493.42 308.412 493.288 308.592C491.608 306.684 489.172 306.492 487.264 306.492H483.592V299.184Z" fill="#76848D"/>
<path d="M505.132 317.316L505.204 316.356C508.72 316.68 512.68 317.316 514.864 319.932C514.672 320.064 514.36 320.376 514.192 320.556C512.164 318.108 508.42 317.556 505.132 317.316ZM504.856 313.092C505.732 313.056 511.648 312.768 514.24 309.36C514.408 309.672 514.624 309.948 514.852 310.128C512.116 313.584 505.9 313.896 504.916 313.968L504.856 313.092ZM510.328 305.724V300.108H508.312V305.592C508.936 305.592 509.62 305.628 510.328 305.724ZM505.468 300.108V305.592H507.46V300.108H505.468ZM504.592 299.184H513.616C514.24 299.184 514.552 299.364 514.696 299.808C514.852 300.264 514.864 301.056 514.864 302.34C514.612 302.4 514.192 302.568 513.94 302.712C513.976 301.716 513.964 300.756 513.964 300.48C513.952 300.204 513.868 300.108 513.604 300.108H511.204V305.868C512.56 306.168 513.916 306.768 514.936 307.932C514.744 308.052 514.42 308.412 514.288 308.592C512.608 306.684 510.172 306.492 508.264 306.492H504.592V299.184Z" fill="#76848D"/>
<path d="M534.868 311.82V310.596C534.868 310.26 534.58 310.2 533.14 310.164C533.32 309.96 533.464 309.576 533.536 309.336C535.204 309.42 535.744 309.648 535.744 310.536V311.952C535.744 312.876 535.456 313.164 534.364 313.164H528.904V315.912C531.904 316.164 534.448 317.004 535.912 319.896C535.696 320.016 535.372 320.316 535.204 320.556C533.92 317.844 531.628 317.064 528.904 316.836V320.004H528.016V316.776C527.08 316.74 526.096 316.74 525.088 316.74V315.792C526.084 315.804 527.068 315.804 528.016 315.852V312.624H528.028V312.264H534.376C534.796 312.264 534.868 312.204 534.868 311.82ZM531.328 305.724V300.108H529.312V305.592C529.936 305.592 530.62 305.628 531.328 305.724ZM526.468 300.108V305.592H528.46V300.108H526.468ZM525.592 299.184H534.616C535.24 299.184 535.552 299.364 535.696 299.808C535.852 300.264 535.864 301.056 535.864 302.34C535.612 302.4 535.192 302.568 534.94 302.712C534.976 301.716 534.964 300.756 534.964 300.48C534.952 300.204 534.868 300.108 534.604 300.108H532.204V305.868C533.56 306.168 534.916 306.768 535.936 307.932C535.744 308.052 535.42 308.412 535.288 308.592C533.608 306.684 531.172 306.492 529.264 306.492H525.592V299.184Z" fill="#76848D"/>
<path d="M550.42 309.612H551.332V314.508H556.912V315.456H551.332V320.292H550.42V315.456H545.98V314.508H550.42V309.612ZM552.328 305.724V300.108H550.312V305.592C550.936 305.592 551.62 305.628 552.328 305.724ZM547.468 300.108V305.592H549.46V300.108H547.468ZM546.592 299.184H555.616C556.24 299.184 556.552 299.364 556.696 299.808C556.852 300.264 556.864 301.056 556.864 302.34C556.612 302.4 556.192 302.568 555.94 302.712C555.976 301.716 555.964 300.756 555.964 300.48C555.952 300.204 555.868 300.108 555.604 300.108H553.204V305.868C554.56 306.168 555.916 306.768 556.936 307.932C556.744 308.052 556.42 308.412 556.288 308.592C554.608 306.684 552.172 306.492 550.264 306.492H546.592V299.184Z" fill="#76848D"/>
<path d="M571.42 321.612H572.332V326.508H577.912V327.456H572.332V332.292H571.42V327.456H566.98V326.508H571.42V321.612ZM571.84 320.424V309.528H572.812V320.424H571.84ZM573.328 305.724V300.108H571.312V305.592C571.936 305.592 572.62 305.628 573.328 305.724ZM568.468 300.108V305.592H570.46V300.108H568.468ZM567.592 299.184H576.616C577.24 299.184 577.552 299.364 577.696 299.808C577.852 300.264 577.864 301.056 577.864 302.34C577.612 302.4 577.192 302.568 576.94 302.712C576.976 301.716 576.964 300.756 576.964 300.48C576.952 300.204 576.868 300.108 576.604 300.108H574.204V305.868C575.56 306.168 576.916 306.768 577.936 307.932C577.744 308.052 577.42 308.412 577.288 308.592C575.608 306.684 573.172 306.492 571.264 306.492H567.592V299.184Z" fill="#76848D"/>
<path d="M592.42 321.612H593.332V326.508H598.912V327.456H593.332V332.292H592.42V327.456H587.98V326.508H592.42V321.612ZM589.684 319.272V310.716H590.632V319.272H589.684ZM596.752 320.28V309.708H597.724V320.28H596.752ZM594.328 305.724V300.108H592.312V305.592C592.936 305.592 593.62 305.628 594.328 305.724ZM589.468 300.108V305.592H591.46V300.108H589.468ZM588.592 299.184H597.616C598.24 299.184 598.552 299.364 598.696 299.808C598.852 300.264 598.864 301.056 598.864 302.34C598.612 302.4 598.192 302.568 597.94 302.712C597.976 301.716 597.964 300.756 597.964 300.48C597.952 300.204 597.868 300.108 597.604 300.108H595.204V305.868C596.56 306.168 597.916 306.768 598.936 307.932C598.744 308.052 598.42 308.412 598.288 308.592C596.608 306.684 594.172 306.492 592.264 306.492H588.592V299.184Z" fill="#76848D"/>
<path d="M613.84 335.119V324.223H614.812V335.119H613.84ZM615.328 320.419V314.803H613.312V320.287C613.936 320.287 614.62 320.323 615.328 320.419ZM610.468 314.803V320.287H612.46V314.803H610.468ZM609.592 313.879H618.616C619.24 313.879 619.552 314.059 619.696 314.503C619.852 314.959 619.864 315.751 619.864 317.035C619.612 317.095 619.192 317.263 618.94 317.407C618.976 316.411 618.964 315.451 618.964 315.175C618.952 314.899 618.868 314.803 618.604 314.803H616.204V320.563C617.56 320.863 618.916 321.463 619.936 322.627C619.744 322.747 619.42 323.107 619.288 323.287C617.608 321.379 615.172 321.187 613.264 321.187H609.592V313.879ZM613.372 310.219L613.06 311.095C611.572 310.795 610.504 309.667 610.504 307.879C610.504 306.151 611.5 305.095 613.024 305.095C613.828 305.095 614.632 305.443 615.208 305.875C615.508 306.091 615.796 306.367 616.096 306.691C616.684 307.351 616.996 307.819 617.428 308.503L618.004 309.427V304.783H619V311.323H618.184L616.972 309.499C616.768 309.175 616.612 308.947 616.516 308.815C616.432 308.683 616.276 308.467 616.072 308.179C615.868 307.891 615.688 307.675 615.556 307.531C615.424 307.399 615.256 307.219 615.04 307.015C614.44 306.463 613.888 306.259 613.132 306.199C612.04 306.199 611.548 306.907 611.548 307.951C611.548 308.599 611.728 309.115 612.088 309.487C612.448 309.859 612.88 310.111 613.372 310.219ZM613.372 302.872L613.06 303.748C611.572 303.448 610.504 302.32 610.504 300.532C610.504 298.804 611.5 297.748 613.024 297.748C613.828 297.748 614.632 298.096 615.208 298.528C615.508 298.744 615.796 299.02 616.096 299.344C616.684 300.004 616.996 300.472 617.428 301.156L618.004 302.08V297.436H619V303.976H618.184L616.972 302.152C616.768 301.828 616.612 301.6 616.516 301.468C616.432 301.336 616.276 301.12 616.072 300.832C615.868 300.544 615.688 300.328 615.556 300.184C615.424 300.052 615.256 299.872 615.04 299.668C614.44 299.116 613.888 298.912 613.132 298.852C612.04 298.852 611.548 299.56 611.548 300.604C611.548 301.252 611.728 301.768 612.088 302.14C612.448 302.512 612.88 302.764 613.372 302.872Z" fill="#76848D"/>
<path d="M631.684 319.272V310.716H632.632V319.272H631.684ZM638.752 320.28V309.708H639.724V320.28H638.752ZM636.328 305.724V300.108H634.312V305.592C634.936 305.592 635.62 305.628 636.328 305.724ZM631.468 300.108V305.592H633.46V300.108H631.468ZM630.592 299.184H639.616C640.24 299.184 640.552 299.364 640.696 299.808C640.852 300.264 640.864 301.056 640.864 302.34C640.612 302.4 640.192 302.568 639.94 302.712C639.976 301.716 639.964 300.756 639.964 300.48C639.952 300.204 639.868 300.108 639.604 300.108H637.204V305.868C638.56 306.168 639.916 306.768 640.936 307.932C640.744 308.052 640.42 308.412 640.288 308.592C638.608 306.684 636.172 306.492 634.264 306.492H630.592V299.184Z" fill="#76848D"/>
<path d="M652.12 319.488V310.488H653.008V319.488H652.12ZM656.008 318.72V311.424H656.908V318.72H656.008ZM660.148 320.172V309.84H661.048V320.172H660.148ZM657.328 305.724V300.108H655.312V305.592C655.936 305.592 656.62 305.628 657.328 305.724ZM652.468 300.108V305.592H654.46V300.108H652.468ZM651.592 299.184H660.616C661.24 299.184 661.552 299.364 661.696 299.808C661.852 300.264 661.864 301.056 661.864 302.34C661.612 302.4 661.192 302.568 660.94 302.712C660.976 301.716 660.964 300.756 660.964 300.48C660.952 300.204 660.868 300.108 660.604 300.108H658.204V305.868C659.56 306.168 660.916 306.768 661.936 307.932C661.744 308.052 661.42 308.412 661.288 308.592C659.608 306.684 657.172 306.492 655.264 306.492H651.592V299.184Z" fill="#76848D"/>
<path d="M680.764 319.008V311.052H673.864V313.392H677.62C678.004 313.392 678.148 313.344 678.148 313.092V311.928C678.148 311.724 678.136 311.4 678.088 311.232C678.34 311.22 678.628 311.196 678.844 311.172C678.904 311.316 678.904 311.616 678.904 311.892V313.188C678.904 314.028 678.532 314.232 677.596 314.232H673.864V315.888C677.092 315.96 678.868 316.26 679.864 318.324C679.648 318.42 679.336 318.672 679.168 318.864C678.316 317.04 676.792 316.824 673.864 316.764V319.008H680.764ZM673 319.896V310.14H682.432V311.052H681.628V319.008H682.516V319.896H673ZM678.328 305.724V300.108H676.312V305.592C676.936 305.592 677.62 305.628 678.328 305.724ZM673.468 300.108V305.592H675.46V300.108H673.468ZM672.592 299.184H681.616C682.24 299.184 682.552 299.364 682.696 299.808C682.852 300.264 682.864 301.056 682.864 302.34C682.612 302.4 682.192 302.568 681.94 302.712C681.976 301.716 681.964 300.756 681.964 300.48C681.952 300.204 681.868 300.108 681.604 300.108H679.204V305.868C680.56 306.168 681.916 306.768 682.936 307.932C682.744 308.052 682.42 308.412 682.288 308.592C680.608 306.684 678.172 306.492 676.264 306.492H672.592V299.184Z" fill="#76848D"/>
<path d="M698.464 312.672V315.684C699.892 315.912 701.296 316.164 702.388 316.392V313.044C701.116 312.912 699.58 312.768 698.464 312.672ZM702.388 312.12V309.684H703.264V320.28H702.388V317.364C701.296 317.124 699.892 316.872 698.464 316.632V318.864H697.588V316.488C696.7 316.344 695.812 316.212 695.008 316.104V319.524H694.132V310.548H695.008V315.156C695.812 315.276 696.712 315.408 697.588 315.552V312.528L697.54 312.372L697.612 311.688C698.932 311.772 700.828 311.94 702.388 312.12ZM699.328 305.724V300.108H697.312V305.592C697.936 305.592 698.62 305.628 699.328 305.724ZM694.468 300.108V305.592H696.46V300.108H694.468ZM693.592 299.184H702.616C703.24 299.184 703.552 299.364 703.696 299.808C703.852 300.264 703.864 301.056 703.864 302.34C703.612 302.4 703.192 302.568 702.94 302.712C702.976 301.716 702.964 300.756 702.964 300.48C702.952 300.204 702.868 300.108 702.604 300.108H700.204V305.868C701.56 306.168 702.916 306.768 703.936 307.932C703.744 308.052 703.42 308.412 703.288 308.592C701.608 306.684 699.172 306.492 697.264 306.492H693.592V299.184Z" fill="#76848D"/>
<path d="M717.124 320.268V309.696H718.036V320.268H717.124ZM719.416 317.28L719.728 316.308C721.576 317.184 723.556 318.444 724.84 319.548C724.672 319.752 724.372 320.184 724.216 320.436C723.028 319.284 721.156 318.072 719.416 317.28ZM719.716 313.752L719.32 312.924C720.88 311.808 723.004 310.344 724.252 309.636L724.768 310.536C723.508 311.196 721.324 312.636 719.716 313.752ZM714.328 316.104L714.016 315.204C714.808 314.784 715.864 314.28 716.476 314.04L716.848 315C716.224 315.228 715.132 315.708 714.328 316.104ZM720.328 305.724V300.108H718.312V305.592C718.936 305.592 719.62 305.628 720.328 305.724ZM715.468 300.108V305.592H717.46V300.108H715.468ZM714.592 299.184H723.616C724.24 299.184 724.552 299.364 724.696 299.808C724.852 300.264 724.864 301.056 724.864 302.34C724.612 302.4 724.192 302.568 723.94 302.712C723.976 301.716 723.964 300.756 723.964 300.48C723.952 300.204 723.868 300.108 723.604 300.108H721.204V305.868C722.56 306.168 723.916 306.768 724.936 307.932C724.744 308.052 724.42 308.412 724.288 308.592C722.608 306.684 720.172 306.492 718.264 306.492H714.592V299.184Z" fill="#76848D"/>
<path d="M744.616 314.964V311.892C744.616 311.1 744.208 310.98 742.432 310.86C742.6 310.632 742.78 310.212 742.852 309.96C744.82 310.116 745.492 310.404 745.492 311.868V315C745.492 316.476 745.12 316.92 743.704 316.92H740.068L740.596 320.22L739.708 320.364L739.156 316.92H735.172V315.984H739.012L738.004 309.744L738.904 309.6L739.912 315.984H743.716C744.448 315.984 744.616 315.816 744.616 314.964ZM741.328 305.724V300.108H739.312V305.592C739.936 305.592 740.62 305.628 741.328 305.724ZM736.468 300.108V305.592H738.46V300.108H736.468ZM735.592 299.184H744.616C745.24 299.184 745.552 299.364 745.696 299.808C745.852 300.264 745.864 301.056 745.864 302.34C745.612 302.4 745.192 302.568 744.94 302.712C744.976 301.716 744.964 300.756 744.964 300.48C744.952 300.204 744.868 300.108 744.604 300.108H742.204V305.868C743.56 306.168 744.916 306.768 745.936 307.932C745.744 308.052 745.42 308.412 745.288 308.592C743.608 306.684 741.172 306.492 739.264 306.492H735.592V299.184Z" fill="#76848D"/>
<path d="M757.132 317.316L757.204 316.356C760.72 316.68 764.68 317.316 766.864 319.932C766.672 320.064 766.36 320.376 766.192 320.556C764.164 318.108 760.42 317.556 757.132 317.316ZM756.856 313.092C757.732 313.056 763.648 312.768 766.24 309.36C766.408 309.672 766.624 309.948 766.852 310.128C764.116 313.584 757.9 313.896 756.916 313.968L756.856 313.092ZM762.328 305.724V300.108H760.312V305.592C760.936 305.592 761.62 305.628 762.328 305.724ZM757.468 300.108V305.592H759.46V300.108H757.468ZM756.592 299.184H765.616C766.24 299.184 766.552 299.364 766.696 299.808C766.852 300.264 766.864 301.056 766.864 302.34C766.612 302.4 766.192 302.568 765.94 302.712C765.976 301.716 765.964 300.756 765.964 300.48C765.952 300.204 765.868 300.108 765.604 300.108H763.204V305.868C764.56 306.168 765.916 306.768 766.936 307.932C766.744 308.052 766.42 308.412 766.288 308.592C764.608 306.684 762.172 306.492 760.264 306.492H756.592V299.184Z" fill="#76848D"/>
<path d="M786.868 311.82V310.596C786.868 310.26 786.58 310.2 785.14 310.164C785.32 309.96 785.464 309.576 785.536 309.336C787.204 309.42 787.744 309.648 787.744 310.536V311.952C787.744 312.876 787.456 313.164 786.364 313.164H780.904V315.912C783.904 316.164 786.448 317.004 787.912 319.896C787.696 320.016 787.372 320.316 787.204 320.556C785.92 317.844 783.628 317.064 780.904 316.836V320.004H780.016V316.776C779.08 316.74 778.096 316.74 777.088 316.74V315.792C778.084 315.804 779.068 315.804 780.016 315.852V312.624H780.028V312.264H786.376C786.796 312.264 786.868 312.204 786.868 311.82ZM783.328 305.724V300.108H781.312V305.592C781.936 305.592 782.62 305.628 783.328 305.724ZM778.468 300.108V305.592H780.46V300.108H778.468ZM777.592 299.184H786.616C787.24 299.184 787.552 299.364 787.696 299.808C787.852 300.264 787.864 301.056 787.864 302.34C787.612 302.4 787.192 302.568 786.94 302.712C786.976 301.716 786.964 300.756 786.964 300.48C786.952 300.204 786.868 300.108 786.604 300.108H784.204V305.868C785.56 306.168 786.916 306.768 787.936 307.932C787.744 308.052 787.42 308.412 787.288 308.592C785.608 306.684 783.172 306.492 781.264 306.492H777.592V299.184Z" fill="#76848D"/>
<path d="M802.42 309.612H803.332V314.508H808.912V315.456H803.332V320.292H802.42V315.456H797.98V314.508H802.42V309.612ZM804.328 305.724V300.108H802.312V305.592C802.936 305.592 803.62 305.628 804.328 305.724ZM799.468 300.108V305.592H801.46V300.108H799.468ZM798.592 299.184H807.616C808.24 299.184 808.552 299.364 808.696 299.808C808.852 300.264 808.864 301.056 808.864 302.34C808.612 302.4 808.192 302.568 807.94 302.712C807.976 301.716 807.964 300.756 807.964 300.48C807.952 300.204 807.868 300.108 807.604 300.108H805.204V305.868C806.56 306.168 807.916 306.768 808.936 307.932C808.744 308.052 808.42 308.412 808.288 308.592C806.608 306.684 804.172 306.492 802.264 306.492H798.592V299.184Z" fill="#76848D"/>
<path d="M823.42 321.612H824.332V326.508H829.912V327.456H824.332V332.292H823.42V327.456H818.98V326.508H823.42V321.612ZM823.84 320.424V309.528H824.812V320.424H823.84ZM825.328 305.724V300.108H823.312V305.592C823.936 305.592 824.62 305.628 825.328 305.724ZM820.468 300.108V305.592H822.46V300.108H820.468ZM819.592 299.184H828.616C829.24 299.184 829.552 299.364 829.696 299.808C829.852 300.264 829.864 301.056 829.864 302.34C829.612 302.4 829.192 302.568 828.94 302.712C828.976 301.716 828.964 300.756 828.964 300.48C828.952 300.204 828.868 300.108 828.604 300.108H826.204V305.868C827.56 306.168 828.916 306.768 829.936 307.932C829.744 308.052 829.42 308.412 829.288 308.592C827.608 306.684 825.172 306.492 823.264 306.492H819.592V299.184Z" fill="#76848D"/>
<path d="M844.42 321.612H845.332V326.508H850.912V327.456H845.332V332.292H844.42V327.456H839.98V326.508H844.42V321.612ZM841.684 319.272V310.716H842.632V319.272H841.684ZM848.752 320.28V309.708H849.724V320.28H848.752ZM846.328 305.724V300.108H844.312V305.592C844.936 305.592 845.62 305.628 846.328 305.724ZM841.468 300.108V305.592H843.46V300.108H841.468ZM840.592 299.184H849.616C850.24 299.184 850.552 299.364 850.696 299.808C850.852 300.264 850.864 301.056 850.864 302.34C850.612 302.4 850.192 302.568 849.94 302.712C849.976 301.716 849.964 300.756 849.964 300.48C849.952 300.204 849.868 300.108 849.604 300.108H847.204V305.868C848.56 306.168 849.916 306.768 850.936 307.932C850.744 308.052 850.42 308.412 850.288 308.592C848.608 306.684 846.172 306.492 844.264 306.492H840.592V299.184Z" fill="#76848D"/>
<path d="M865.84 335.178V324.282H866.812V335.178H865.84ZM867.328 320.478V314.862H865.312V320.346C865.936 320.346 866.62 320.382 867.328 320.478ZM862.468 314.862V320.346H864.46V314.862H862.468ZM861.592 313.938H870.616C871.24 313.938 871.552 314.118 871.696 314.562C871.852 315.018 871.864 315.81 871.864 317.094C871.612 317.154 871.192 317.322 870.94 317.466C870.976 316.47 870.964 315.51 870.964 315.234C870.952 314.958 870.868 314.862 870.604 314.862H868.204V320.622C869.56 320.922 870.916 321.522 871.936 322.686C871.744 322.806 871.42 323.166 871.288 323.346C869.608 321.438 867.172 321.246 865.264 321.246H861.592V313.938ZM865.372 310.278L865.06 311.154C863.572 310.854 862.504 309.726 862.504 307.938C862.504 306.21 863.5 305.154 865.024 305.154C865.828 305.154 866.632 305.502 867.208 305.934C867.508 306.15 867.796 306.426 868.096 306.75C868.684 307.41 868.996 307.878 869.428 308.562L870.004 309.486V304.842H871V311.382H870.184L868.972 309.558C868.768 309.234 868.612 309.006 868.516 308.874C868.432 308.742 868.276 308.526 868.072 308.238C867.868 307.95 867.688 307.734 867.556 307.59C867.424 307.458 867.256 307.278 867.04 307.074C866.44 306.522 865.888 306.318 865.132 306.258C864.04 306.258 863.548 306.966 863.548 308.01C863.548 308.658 863.728 309.174 864.088 309.546C864.448 309.918 864.88 310.17 865.372 310.278ZM865.048 303.062L864.64 303.962C863.344 303.518 862.492 302.354 862.492 300.614C862.492 299.786 862.684 299.102 863.068 298.574C863.452 298.046 863.968 297.782 864.604 297.782C865.576 297.782 866.296 298.298 866.572 299.258C866.632 298.334 867.328 297.59 868.576 297.59C869.368 297.59 869.992 297.878 870.436 298.454C870.88 299.03 871.108 299.762 871.108 300.662C871.108 302.498 870.232 303.77 868.852 304.19L868.432 303.218C869.524 302.702 870.076 301.826 870.076 300.59C870.076 299.426 869.536 298.694 868.588 298.694C867.664 298.694 867.196 299.414 867.196 300.854V301.79H866.2V301.046C866.2 299.738 865.612 298.886 864.808 298.886C863.98 298.886 863.512 299.57 863.512 300.662C863.512 301.946 864.172 302.726 865.048 303.062Z" fill="#76848D"/>
<path d="M883.684 319.272V310.716H884.632V319.272H883.684ZM890.752 320.28V309.708H891.724V320.28H890.752ZM888.328 305.724V300.108H886.312V305.592C886.936 305.592 887.62 305.628 888.328 305.724ZM883.468 300.108V305.592H885.46V300.108H883.468ZM882.592 299.184H891.616C892.24 299.184 892.552 299.364 892.696 299.808C892.852 300.264 892.864 301.056 892.864 302.34C892.612 302.4 892.192 302.568 891.94 302.712C891.976 301.716 891.964 300.756 891.964 300.48C891.952 300.204 891.868 300.108 891.604 300.108H889.204V305.868C890.56 306.168 891.916 306.768 892.936 307.932C892.744 308.052 892.42 308.412 892.288 308.592C890.608 306.684 888.172 306.492 886.264 306.492H882.592V299.184Z" fill="#76848D"/>
<path d="M904.12 319.488V310.488H905.008V319.488H904.12ZM908.008 318.72V311.424H908.908V318.72H908.008ZM912.148 320.172V309.84H913.048V320.172H912.148ZM909.328 305.724V300.108H907.312V305.592C907.936 305.592 908.62 305.628 909.328 305.724ZM904.468 300.108V305.592H906.46V300.108H904.468ZM903.592 299.184H912.616C913.24 299.184 913.552 299.364 913.696 299.808C913.852 300.264 913.864 301.056 913.864 302.34C913.612 302.4 913.192 302.568 912.94 302.712C912.976 301.716 912.964 300.756 912.964 300.48C912.952 300.204 912.868 300.108 912.604 300.108H910.204V305.868C911.56 306.168 912.916 306.768 913.936 307.932C913.744 308.052 913.42 308.412 913.288 308.592C911.608 306.684 909.172 306.492 907.264 306.492H903.592V299.184Z" fill="#76848D"/>
<path d="M932.764 319.008V311.052H925.864V313.392H929.62C930.004 313.392 930.148 313.344 930.148 313.092V311.928C930.148 311.724 930.136 311.4 930.088 311.232C930.34 311.22 930.628 311.196 930.844 311.172C930.904 311.316 930.904 311.616 930.904 311.892V313.188C930.904 314.028 930.532 314.232 929.596 314.232H925.864V315.888C929.092 315.96 930.868 316.26 931.864 318.324C931.648 318.42 931.336 318.672 931.168 318.864C930.316 317.04 928.792 316.824 925.864 316.764V319.008H932.764ZM925 319.896V310.14H934.432V311.052H933.628V319.008H934.516V319.896H925ZM930.328 305.724V300.108H928.312V305.592C928.936 305.592 929.62 305.628 930.328 305.724ZM925.468 300.108V305.592H927.46V300.108H925.468ZM924.592 299.184H933.616C934.24 299.184 934.552 299.364 934.696 299.808C934.852 300.264 934.864 301.056 934.864 302.34C934.612 302.4 934.192 302.568 933.94 302.712C933.976 301.716 933.964 300.756 933.964 300.48C933.952 300.204 933.868 300.108 933.604 300.108H931.204V305.868C932.56 306.168 933.916 306.768 934.936 307.932C934.744 308.052 934.42 308.412 934.288 308.592C932.608 306.684 930.172 306.492 928.264 306.492H924.592V299.184Z" fill="#76848D"/>
<path d="M950.464 312.672V315.684C951.892 315.912 953.296 316.164 954.388 316.392V313.044C953.116 312.912 951.58 312.768 950.464 312.672ZM954.388 312.12V309.684H955.264V320.28H954.388V317.364C953.296 317.124 951.892 316.872 950.464 316.632V318.864H949.588V316.488C948.7 316.344 947.812 316.212 947.008 316.104V319.524H946.132V310.548H947.008V315.156C947.812 315.276 948.712 315.408 949.588 315.552V312.528L949.54 312.372L949.612 311.688C950.932 311.772 952.828 311.94 954.388 312.12ZM951.328 305.724V300.108H949.312V305.592C949.936 305.592 950.62 305.628 951.328 305.724ZM946.468 300.108V305.592H948.46V300.108H946.468ZM945.592 299.184H954.616C955.24 299.184 955.552 299.364 955.696 299.808C955.852 300.264 955.864 301.056 955.864 302.34C955.612 302.4 955.192 302.568 954.94 302.712C954.976 301.716 954.964 300.756 954.964 300.48C954.952 300.204 954.868 300.108 954.604 300.108H952.204V305.868C953.56 306.168 954.916 306.768 955.936 307.932C955.744 308.052 955.42 308.412 955.288 308.592C953.608 306.684 951.172 306.492 949.264 306.492H945.592V299.184Z" fill="#76848D"/>
<path d="M969.124 320.268V309.696H970.036V320.268H969.124ZM971.416 317.28L971.728 316.308C973.576 317.184 975.556 318.444 976.84 319.548C976.672 319.752 976.372 320.184 976.216 320.436C975.028 319.284 973.156 318.072 971.416 317.28ZM971.716 313.752L971.32 312.924C972.88 311.808 975.004 310.344 976.252 309.636L976.768 310.536C975.508 311.196 973.324 312.636 971.716 313.752ZM966.328 316.104L966.016 315.204C966.808 314.784 967.864 314.28 968.476 314.04L968.848 315C968.224 315.228 967.132 315.708 966.328 316.104ZM972.328 305.724V300.108H970.312V305.592C970.936 305.592 971.62 305.628 972.328 305.724ZM967.468 300.108V305.592H969.46V300.108H967.468ZM966.592 299.184H975.616C976.24 299.184 976.552 299.364 976.696 299.808C976.852 300.264 976.864 301.056 976.864 302.34C976.612 302.4 976.192 302.568 975.94 302.712C975.976 301.716 975.964 300.756 975.964 300.48C975.952 300.204 975.868 300.108 975.604 300.108H973.204V305.868C974.56 306.168 975.916 306.768 976.936 307.932C976.744 308.052 976.42 308.412 976.288 308.592C974.608 306.684 972.172 306.492 970.264 306.492H966.592V299.184Z" fill="#76848D"/>
<path d="M996.616 314.964V311.892C996.616 311.1 996.208 310.98 994.432 310.86C994.6 310.632 994.78 310.212 994.852 309.96C996.82 310.116 997.492 310.404 997.492 311.868V315C997.492 316.476 997.12 316.92 995.704 316.92H992.068L992.596 320.22L991.708 320.364L991.156 316.92H987.172V315.984H991.012L990.004 309.744L990.904 309.6L991.912 315.984H995.716C996.448 315.984 996.616 315.816 996.616 314.964ZM993.328 305.724V300.108H991.312V305.592C991.936 305.592 992.62 305.628 993.328 305.724ZM988.468 300.108V305.592H990.46V300.108H988.468ZM987.592 299.184H996.616C997.24 299.184 997.552 299.364 997.696 299.808C997.852 300.264 997.864 301.056 997.864 302.34C997.612 302.4 997.192 302.568 996.94 302.712C996.976 301.716 996.964 300.756 996.964 300.48C996.952 300.204 996.868 300.108 996.604 300.108H994.204V305.868C995.56 306.168 996.916 306.768 997.936 307.932C997.744 308.052 997.42 308.412 997.288 308.592C995.608 306.684 993.172 306.492 991.264 306.492H987.592V299.184Z" fill="#76848D"/>
<path d="M1009.13 317.316L1009.2 316.356C1012.72 316.68 1016.68 317.316 1018.86 319.932C1018.67 320.064 1018.36 320.376 1018.19 320.556C1016.16 318.108 1012.42 317.556 1009.13 317.316ZM1008.86 313.092C1009.73 313.056 1015.65 312.768 1018.24 309.36C1018.41 309.672 1018.62 309.948 1018.85 310.128C1016.12 313.584 1009.9 313.896 1008.92 313.968L1008.86 313.092ZM1014.33 305.724V300.108H1012.31V305.592C1012.94 305.592 1013.62 305.628 1014.33 305.724ZM1009.47 300.108V305.592H1011.46V300.108H1009.47ZM1008.59 299.184H1017.62C1018.24 299.184 1018.55 299.364 1018.7 299.808C1018.85 300.264 1018.86 301.056 1018.86 302.34C1018.61 302.4 1018.19 302.568 1017.94 302.712C1017.98 301.716 1017.96 300.756 1017.96 300.48C1017.95 300.204 1017.87 300.108 1017.6 300.108H1015.2V305.868C1016.56 306.168 1017.92 306.768 1018.94 307.932C1018.74 308.052 1018.42 308.412 1018.29 308.592C1016.61 306.684 1014.17 306.492 1012.26 306.492H1008.59V299.184Z" fill="#76848D"/>
<path d="M1038.87 311.82V310.596C1038.87 310.26 1038.58 310.2 1037.14 310.164C1037.32 309.96 1037.46 309.576 1037.54 309.336C1039.2 309.42 1039.74 309.648 1039.74 310.536V311.952C1039.74 312.876 1039.46 313.164 1038.36 313.164H1032.9V315.912C1035.9 316.164 1038.45 317.004 1039.91 319.896C1039.7 320.016 1039.37 320.316 1039.2 320.556C1037.92 317.844 1035.63 317.064 1032.9 316.836V320.004H1032.02V316.776C1031.08 316.74 1030.1 316.74 1029.09 316.74V315.792C1030.08 315.804 1031.07 315.804 1032.02 315.852V312.624H1032.03V312.264H1038.38C1038.8 312.264 1038.87 312.204 1038.87 311.82ZM1035.33 305.724V300.108H1033.31V305.592C1033.94 305.592 1034.62 305.628 1035.33 305.724ZM1030.47 300.108V305.592H1032.46V300.108H1030.47ZM1029.59 299.184H1038.62C1039.24 299.184 1039.55 299.364 1039.7 299.808C1039.85 300.264 1039.86 301.056 1039.86 302.34C1039.61 302.4 1039.19 302.568 1038.94 302.712C1038.98 301.716 1038.96 300.756 1038.96 300.48C1038.95 300.204 1038.87 300.108 1038.6 300.108H1036.2V305.868C1037.56 306.168 1038.92 306.768 1039.94 307.932C1039.74 308.052 1039.42 308.412 1039.29 308.592C1037.61 306.684 1035.17 306.492 1033.26 306.492H1029.59V299.184Z" fill="#76848D"/>
<path d="M1054.42 309.612H1055.33V314.508H1060.91V315.456H1055.33V320.292H1054.42V315.456H1049.98V314.508H1054.42V309.612ZM1056.33 305.724V300.108H1054.31V305.592C1054.94 305.592 1055.62 305.628 1056.33 305.724ZM1051.47 300.108V305.592H1053.46V300.108H1051.47ZM1050.59 299.184H1059.62C1060.24 299.184 1060.55 299.364 1060.7 299.808C1060.85 300.264 1060.86 301.056 1060.86 302.34C1060.61 302.4 1060.19 302.568 1059.94 302.712C1059.98 301.716 1059.96 300.756 1059.96 300.48C1059.95 300.204 1059.87 300.108 1059.6 300.108H1057.2V305.868C1058.56 306.168 1059.92 306.768 1060.94 307.932C1060.74 308.052 1060.42 308.412 1060.29 308.592C1058.61 306.684 1056.17 306.492 1054.26 306.492H1050.59V299.184Z" fill="#76848D"/>
<path d="M1075.42 321.612H1076.33V326.508H1081.91V327.456H1076.33V332.292H1075.42V327.456H1070.98V326.508H1075.42V321.612ZM1075.84 320.424V309.528H1076.81V320.424H1075.84ZM1077.33 305.724V300.108H1075.31V305.592C1075.94 305.592 1076.62 305.628 1077.33 305.724ZM1072.47 300.108V305.592H1074.46V300.108H1072.47ZM1071.59 299.184H1080.62C1081.24 299.184 1081.55 299.364 1081.7 299.808C1081.85 300.264 1081.86 301.056 1081.86 302.34C1081.61 302.4 1081.19 302.568 1080.94 302.712C1080.98 301.716 1080.96 300.756 1080.96 300.48C1080.95 300.204 1080.87 300.108 1080.6 300.108H1078.2V305.868C1079.56 306.168 1080.92 306.768 1081.94 307.932C1081.74 308.052 1081.42 308.412 1081.29 308.592C1079.61 306.684 1077.17 306.492 1075.26 306.492H1071.59V299.184Z" fill="#76848D"/>
<path d="M1096.42 321.612H1097.33V326.508H1102.91V327.456H1097.33V332.292H1096.42V327.456H1091.98V326.508H1096.42V321.612ZM1093.68 319.272V310.716H1094.63V319.272H1093.68ZM1100.75 320.28V309.708H1101.72V320.28H1100.75ZM1098.33 305.724V300.108H1096.31V305.592C1096.94 305.592 1097.62 305.628 1098.33 305.724ZM1093.47 300.108V305.592H1095.46V300.108H1093.47ZM1092.59 299.184H1101.62C1102.24 299.184 1102.55 299.364 1102.7 299.808C1102.85 300.264 1102.86 301.056 1102.86 302.34C1102.61 302.4 1102.19 302.568 1101.94 302.712C1101.98 301.716 1101.96 300.756 1101.96 300.48C1101.95 300.204 1101.87 300.108 1101.6 300.108H1099.2V305.868C1100.56 306.168 1101.92 306.768 1102.94 307.932C1102.74 308.052 1102.42 308.412 1102.29 308.592C1100.61 306.684 1098.17 306.492 1096.26 306.492H1092.59V299.184Z" fill="#76848D"/>
<path d="M1100.82 250.1C1100.82 248.588 1101.17 247.37 1101.88 246.46C1102.58 245.55 1103.62 245.088 1104.98 245.088C1107.76 245.088 1109.15 246.922 1109.15 250.1C1109.15 251.626 1108.8 252.83 1108.11 253.74C1107.41 254.65 1106.38 255.112 1105.01 255.112C1103.69 255.112 1102.67 254.65 1101.93 253.726C1101.18 252.802 1100.82 251.598 1100.82 250.1ZM1102.11 250.1C1102.11 252.494 1103.2 253.922 1105.01 253.922C1106.91 253.922 1107.86 252.648 1107.86 250.1C1107.86 247.552 1106.9 246.278 1104.98 246.278C1103.03 246.278 1102.11 247.678 1102.11 250.1ZM1110.29 254.202C1110.29 253.81 1110.66 253.418 1111.16 253.418C1111.62 253.418 1112 253.81 1112 254.202C1112 254.65 1111.65 255.028 1111.16 255.028C1110.66 255.028 1110.29 254.65 1110.29 254.202ZM1119.92 255H1118.7V252.998H1112.71V252.186L1118.84 245.2H1119.92V251.864H1121.74V252.998H1119.92V255ZM1118.7 247.16L1114.39 251.864H1118.7V247.16ZM1128.04 246.39H1122.1V245.2H1129.54V245.998L1124.67 255H1123.34L1128.04 246.39ZM1132.72 255.21L1131.8 254.678L1139.03 244.892L1139.92 245.536L1132.72 255.21ZM1130.28 247.552C1130.28 246.852 1130.52 246.278 1131.01 245.83C1131.5 245.382 1132.1 245.158 1132.85 245.158C1133.57 245.158 1134.18 245.382 1134.67 245.83C1135.16 246.278 1135.39 246.852 1135.39 247.552C1135.39 248.238 1135.16 248.812 1134.67 249.26C1134.18 249.708 1133.57 249.932 1132.85 249.932C1132.1 249.932 1131.5 249.708 1131.01 249.26C1130.52 248.812 1130.28 248.238 1130.28 247.552ZM1131.46 247.552C1131.46 248.35 1132.1 248.938 1132.85 248.938C1133.62 248.938 1134.22 248.378 1134.22 247.552C1134.22 246.726 1133.59 246.166 1132.85 246.166C1132.08 246.166 1131.46 246.726 1131.46 247.552ZM1137.02 254.384C1136.53 253.936 1136.29 253.362 1136.29 252.662C1136.29 251.962 1136.53 251.388 1137.02 250.94C1137.51 250.506 1138.11 250.282 1138.85 250.282C1139.58 250.282 1140.18 250.506 1140.67 250.94C1141.16 251.388 1141.4 251.962 1141.4 252.662C1141.4 253.348 1141.16 253.922 1140.67 254.37C1140.18 254.832 1139.58 255.056 1138.85 255.056C1138.11 255.056 1137.51 254.832 1137.02 254.384ZM1137.47 252.662C1137.47 253.46 1138.11 254.048 1138.85 254.048C1139.62 254.048 1140.22 253.488 1140.22 252.662C1140.22 251.836 1139.59 251.276 1138.85 251.276C1138.08 251.276 1137.47 251.836 1137.47 252.662Z" fill="#1A3341"/>
<path d="M1104.7 278.1C1104.7 276.588 1105.05 275.37 1105.77 274.46C1106.47 273.55 1107.5 273.088 1108.86 273.088C1111.65 273.088 1113.03 274.922 1113.03 278.1C1113.03 279.626 1112.68 280.83 1112 281.74C1111.3 282.65 1110.26 283.112 1108.89 283.112C1107.57 283.112 1106.55 282.65 1105.81 281.726C1105.07 280.802 1104.7 279.598 1104.7 278.1ZM1105.99 278.1C1105.99 280.494 1107.08 281.922 1108.89 281.922C1110.79 281.922 1111.75 280.648 1111.75 278.1C1111.75 275.552 1110.78 274.278 1108.86 274.278C1106.92 274.278 1105.99 275.678 1105.99 278.1ZM1114.18 282.202C1114.18 281.81 1114.54 281.418 1115.04 281.418C1115.51 281.418 1115.88 281.81 1115.88 282.202C1115.88 282.65 1115.53 283.028 1115.04 283.028C1114.54 283.028 1114.18 282.65 1114.18 282.202ZM1116.93 275.804L1116.48 274.754L1119.84 273.144H1120.64V283H1119.44V274.642L1116.93 275.804ZM1128.04 274.39H1122.1V273.2H1129.54V273.998L1124.67 283H1123.34L1128.04 274.39ZM1132.72 283.21L1131.8 282.678L1139.03 272.892L1139.92 273.536L1132.72 283.21ZM1130.28 275.552C1130.28 274.852 1130.52 274.278 1131.01 273.83C1131.5 273.382 1132.1 273.158 1132.85 273.158C1133.57 273.158 1134.18 273.382 1134.67 273.83C1135.16 274.278 1135.39 274.852 1135.39 275.552C1135.39 276.238 1135.16 276.812 1134.67 277.26C1134.18 277.708 1133.57 277.932 1132.85 277.932C1132.1 277.932 1131.5 277.708 1131.01 277.26C1130.52 276.812 1130.28 276.238 1130.28 275.552ZM1131.46 275.552C1131.46 276.35 1132.1 276.938 1132.85 276.938C1133.62 276.938 1134.22 276.378 1134.22 275.552C1134.22 274.726 1133.59 274.166 1132.85 274.166C1132.08 274.166 1131.46 274.726 1131.46 275.552ZM1137.02 282.384C1136.53 281.936 1136.29 281.362 1136.29 280.662C1136.29 279.962 1136.53 279.388 1137.02 278.94C1137.51 278.506 1138.11 278.282 1138.85 278.282C1139.58 278.282 1140.18 278.506 1140.67 278.94C1141.16 279.388 1141.4 279.962 1141.4 280.662C1141.4 281.348 1141.16 281.922 1140.67 282.37C1140.18 282.832 1139.58 283.056 1138.85 283.056C1138.11 283.056 1137.51 282.832 1137.02 282.384ZM1137.47 280.662C1137.47 281.46 1138.11 282.048 1138.85 282.048C1139.62 282.048 1140.22 281.488 1140.22 280.662C1140.22 279.836 1139.59 279.276 1138.85 279.276C1138.08 279.276 1137.47 279.836 1137.47 280.662Z" fill="#1A3341"/>
<circle cx="168" cy="270" r="7" fill="#CDD3FB" stroke="white" stroke-width="2"/>
<circle cx="150" cy="270" r="7" fill="#CDD3FB" stroke="white" stroke-width="2"/>
<path d="M123.273 232.1C123.273 230.588 123.623 229.37 124.337 228.46C125.037 227.55 126.073 227.088 127.431 227.088C130.217 227.088 131.603 228.922 131.603 232.1C131.603 233.626 131.253 234.83 130.567 235.74C129.867 236.65 128.831 237.112 127.459 237.112C126.143 237.112 125.121 236.65 124.379 235.726C123.637 234.802 123.273 233.598 123.273 232.1ZM124.561 232.1C124.561 234.494 125.653 235.922 127.459 235.922C129.363 235.922 130.315 234.648 130.315 232.1C130.315 229.552 129.349 228.278 127.431 228.278C125.485 228.278 124.561 229.678 124.561 232.1ZM132.747 236.202C132.747 235.81 133.111 235.418 133.615 235.418C134.077 235.418 134.455 235.81 134.455 236.202C134.455 236.65 134.105 237.028 133.615 237.028C133.111 237.028 132.747 236.65 132.747 236.202ZM135.612 232.366C135.612 230.672 136.032 229.37 136.858 228.446C137.684 227.536 138.72 227.074 139.966 227.074C141.604 227.074 142.892 227.816 143.438 228.992L142.486 229.636C141.912 228.726 141.058 228.278 139.91 228.278C139.042 228.278 138.314 228.614 137.726 229.286C137.138 229.972 136.844 230.896 136.858 232.086C137.404 231.064 138.678 230.448 140.078 230.448C141.212 230.448 142.122 230.742 142.78 231.344C143.438 231.946 143.774 232.744 143.774 233.724C143.774 234.718 143.41 235.544 142.668 236.174C141.926 236.804 141.002 237.126 139.896 237.126C137.25 237.126 135.612 235.404 135.612 232.366ZM137.012 233.556C137.278 234.942 138.328 235.922 139.882 235.922C140.638 235.922 141.268 235.726 141.758 235.32C142.248 234.928 142.486 234.41 142.486 233.78C142.486 232.394 141.506 231.652 140.008 231.652C139.182 231.652 138.496 231.848 137.964 232.24C137.418 232.632 137.11 233.066 137.012 233.556ZM145.749 230.056L144.699 229.58C145.217 228.068 146.575 227.074 148.605 227.074C149.571 227.074 150.369 227.298 150.985 227.746C151.601 228.194 151.909 228.796 151.909 229.538C151.909 230.672 151.307 231.512 150.187 231.834C151.265 231.904 152.133 232.716 152.133 234.172C152.133 235.096 151.797 235.824 151.125 236.342C150.453 236.86 149.599 237.126 148.549 237.126C146.407 237.126 144.923 236.104 144.433 234.494L145.567 234.004C146.169 235.278 147.191 235.922 148.633 235.922C149.991 235.922 150.845 235.292 150.845 234.186C150.845 233.108 150.005 232.562 148.325 232.562H147.233V231.4H148.101C149.627 231.4 150.621 230.714 150.621 229.776C150.621 228.81 149.823 228.264 148.549 228.264C147.051 228.264 146.141 229.034 145.749 230.056ZM155.72 237.21L154.796 236.678L162.034 226.892L162.916 227.536L155.72 237.21ZM153.284 229.552C153.284 228.852 153.522 228.278 154.012 227.83C154.502 227.382 155.104 227.158 155.846 227.158C156.574 227.158 157.176 227.382 157.666 227.83C158.156 228.278 158.394 228.852 158.394 229.552C158.394 230.238 158.156 230.812 157.666 231.26C157.176 231.708 156.574 231.932 155.846 231.932C155.104 231.932 154.502 231.708 154.012 231.26C153.522 230.812 153.284 230.238 153.284 229.552ZM154.46 229.552C154.46 230.35 155.104 230.938 155.846 230.938C156.616 230.938 157.218 230.378 157.218 229.552C157.218 228.726 156.588 228.166 155.846 228.166C155.076 228.166 154.46 228.726 154.46 229.552ZM160.018 236.384C159.528 235.936 159.29 235.362 159.29 234.662C159.29 233.962 159.528 233.388 160.018 232.94C160.508 232.506 161.11 232.282 161.852 232.282C162.58 232.282 163.182 232.506 163.672 232.94C164.162 233.388 164.4 233.962 164.4 234.662C164.4 235.348 164.162 235.922 163.672 236.37C163.182 236.832 162.58 237.056 161.852 237.056C161.11 237.056 160.508 236.832 160.018 236.384ZM160.466 234.662C160.466 235.46 161.11 236.048 161.852 236.048C162.622 236.048 163.224 235.488 163.224 234.662C163.224 233.836 162.594 233.276 161.852 233.276C161.082 233.276 160.466 233.836 160.466 234.662Z" fill="#1A3341"/>
<path d="M125.012 282.1C125.012 280.588 125.362 279.37 126.076 278.46C126.776 277.55 127.812 277.088 129.17 277.088C131.956 277.088 133.342 278.922 133.342 282.1C133.342 283.626 132.992 284.83 132.306 285.74C131.606 286.65 130.57 287.112 129.198 287.112C127.882 287.112 126.86 286.65 126.118 285.726C125.376 284.802 125.012 283.598 125.012 282.1ZM126.3 282.1C126.3 284.494 127.392 285.922 129.198 285.922C131.102 285.922 132.054 284.648 132.054 282.1C132.054 279.552 131.088 278.278 129.17 278.278C127.224 278.278 126.3 279.678 126.3 282.1ZM134.485 286.202C134.485 285.81 134.849 285.418 135.353 285.418C135.815 285.418 136.193 285.81 136.193 286.202C136.193 286.65 135.843 287.028 135.353 287.028C134.849 287.028 134.485 286.65 134.485 286.202ZM138.317 280.056L137.267 279.58C137.785 278.068 139.143 277.074 141.173 277.074C142.139 277.074 142.937 277.298 143.553 277.746C144.169 278.194 144.477 278.796 144.477 279.538C144.477 280.672 143.875 281.512 142.755 281.834C143.833 281.904 144.701 282.716 144.701 284.172C144.701 285.096 144.365 285.824 143.693 286.342C143.021 286.86 142.167 287.126 141.117 287.126C138.975 287.126 137.491 286.104 137.001 284.494L138.135 284.004C138.737 285.278 139.759 285.922 141.201 285.922C142.559 285.922 143.413 285.292 143.413 284.186C143.413 283.108 142.573 282.562 140.893 282.562H139.801V281.4H140.669C142.195 281.4 143.189 280.714 143.189 279.776C143.189 278.81 142.391 278.264 141.117 278.264C139.619 278.264 138.709 279.034 138.317 280.056ZM146.971 280.434L145.949 280.07C146.299 278.334 147.615 277.088 149.701 277.088C151.717 277.088 152.949 278.25 152.949 280.028C152.949 280.966 152.543 281.904 152.039 282.576C151.787 282.926 151.465 283.262 151.087 283.612C150.317 284.298 149.771 284.662 148.973 285.166L147.895 285.838H153.313V287H145.683V286.048L147.811 284.634C148.189 284.396 148.455 284.214 148.609 284.102C148.763 284.004 149.015 283.822 149.351 283.584C149.687 283.346 149.939 283.136 150.107 282.982C150.261 282.828 150.471 282.632 150.709 282.38C151.353 281.68 151.591 281.036 151.661 280.154C151.661 278.88 150.835 278.306 149.617 278.306C148.861 278.306 148.259 278.516 147.825 278.936C147.391 279.356 147.097 279.86 146.971 280.434ZM156.72 287.21L155.796 286.678L163.034 276.892L163.916 277.536L156.72 287.21ZM154.284 279.552C154.284 278.852 154.522 278.278 155.012 277.83C155.502 277.382 156.104 277.158 156.846 277.158C157.574 277.158 158.176 277.382 158.666 277.83C159.156 278.278 159.394 278.852 159.394 279.552C159.394 280.238 159.156 280.812 158.666 281.26C158.176 281.708 157.574 281.932 156.846 281.932C156.104 281.932 155.502 281.708 155.012 281.26C154.522 280.812 154.284 280.238 154.284 279.552ZM155.46 279.552C155.46 280.35 156.104 280.938 156.846 280.938C157.616 280.938 158.218 280.378 158.218 279.552C158.218 278.726 157.588 278.166 156.846 278.166C156.076 278.166 155.46 278.726 155.46 279.552ZM161.018 286.384C160.528 285.936 160.29 285.362 160.29 284.662C160.29 283.962 160.528 283.388 161.018 282.94C161.508 282.506 162.11 282.282 162.852 282.282C163.58 282.282 164.182 282.506 164.672 282.94C165.162 283.388 165.4 283.962 165.4 284.662C165.4 285.348 165.162 285.922 164.672 286.37C164.182 286.832 163.58 287.056 162.852 287.056C162.11 287.056 161.508 286.832 161.018 286.384ZM161.466 284.662C161.466 285.46 162.11 286.048 162.852 286.048C163.622 286.048 164.224 285.488 164.224 284.662C164.224 283.836 163.594 283.276 162.852 283.276C162.082 283.276 161.466 283.836 161.466 284.662Z" fill="#1A3341"/>
<path d="M173.014 248.1C173.014 246.588 173.364 245.37 174.078 244.46C174.778 243.55 175.814 243.088 177.172 243.088C179.958 243.088 181.344 244.922 181.344 248.1C181.344 249.626 180.994 250.83 180.308 251.74C179.608 252.65 178.572 253.112 177.2 253.112C175.884 253.112 174.862 252.65 174.12 251.726C173.378 250.802 173.014 249.598 173.014 248.1ZM174.302 248.1C174.302 250.494 175.394 251.922 177.2 251.922C179.104 251.922 180.056 250.648 180.056 248.1C180.056 245.552 179.09 244.278 177.172 244.278C175.226 244.278 174.302 245.678 174.302 248.1ZM182.487 252.202C182.487 251.81 182.851 251.418 183.355 251.418C183.817 251.418 184.195 251.81 184.195 252.202C184.195 252.65 183.845 253.028 183.355 253.028C182.851 253.028 182.487 252.65 182.487 252.202ZM186.781 248.492L185.773 248.226L186.347 243.2H192.507V244.39H187.425L187.061 247.022C187.551 246.658 188.293 246.476 189.287 246.476C190.435 246.476 191.331 246.784 191.989 247.386C192.633 248.002 192.955 248.786 192.955 249.752C192.955 250.718 192.591 251.53 191.877 252.16C191.149 252.804 190.239 253.126 189.161 253.126C187.327 253.126 185.801 252.258 185.171 250.732L186.291 250.256C186.697 251.194 187.747 251.936 189.161 251.936C190.771 251.936 191.667 251.012 191.667 249.794C191.667 248.492 190.617 247.652 188.951 247.652C188.055 247.652 187.327 247.932 186.781 248.492ZM200.779 253H199.561V250.998H193.569V250.186L199.701 243.2H200.779V249.864H202.599V250.998H200.779V253ZM199.561 245.16L195.249 249.864H199.561V245.16ZM205.72 253.21L204.796 252.678L212.034 242.892L212.916 243.536L205.72 253.21ZM203.284 245.552C203.284 244.852 203.522 244.278 204.012 243.83C204.502 243.382 205.104 243.158 205.846 243.158C206.574 243.158 207.176 243.382 207.666 243.83C208.156 244.278 208.394 244.852 208.394 245.552C208.394 246.238 208.156 246.812 207.666 247.26C207.176 247.708 206.574 247.932 205.846 247.932C205.104 247.932 204.502 247.708 204.012 247.26C203.522 246.812 203.284 246.238 203.284 245.552ZM204.46 245.552C204.46 246.35 205.104 246.938 205.846 246.938C206.616 246.938 207.218 246.378 207.218 245.552C207.218 244.726 206.588 244.166 205.846 244.166C205.076 244.166 204.46 244.726 204.46 245.552ZM210.018 252.384C209.528 251.936 209.29 251.362 209.29 250.662C209.29 249.962 209.528 249.388 210.018 248.94C210.508 248.506 211.11 248.282 211.852 248.282C212.58 248.282 213.182 248.506 213.672 248.94C214.162 249.388 214.4 249.962 214.4 250.662C214.4 251.348 214.162 251.922 213.672 252.37C213.182 252.832 212.58 253.056 211.852 253.056C211.11 253.056 210.508 252.832 210.018 252.384ZM210.466 250.662C210.466 251.46 211.11 252.048 211.852 252.048C212.622 252.048 213.224 251.488 213.224 250.662C213.224 249.836 212.594 249.276 211.852 249.276C211.082 249.276 210.466 249.836 210.466 250.662Z" fill="#1A3341"/>
<path d="M177.303 277.1C177.303 275.588 177.653 274.37 178.367 273.46C179.067 272.55 180.103 272.088 181.461 272.088C184.247 272.088 185.633 273.922 185.633 277.1C185.633 278.626 185.283 279.83 184.597 280.74C183.897 281.65 182.861 282.112 181.489 282.112C180.173 282.112 179.151 281.65 178.409 280.726C177.667 279.802 177.303 278.598 177.303 277.1ZM178.591 277.1C178.591 279.494 179.683 280.922 181.489 280.922C183.393 280.922 184.345 279.648 184.345 277.1C184.345 274.552 183.379 273.278 181.461 273.278C179.515 273.278 178.591 274.678 178.591 277.1ZM186.776 281.202C186.776 280.81 187.14 280.418 187.644 280.418C188.106 280.418 188.484 280.81 188.484 281.202C188.484 281.65 188.134 282.028 187.644 282.028C187.14 282.028 186.776 281.65 186.776 281.202ZM196.404 282H195.186V279.998H189.194V279.186L195.326 272.2H196.404V278.864H198.224V279.998H196.404V282ZM195.186 274.16L190.874 278.864H195.186V274.16ZM198.908 277.1C198.908 275.588 199.258 274.37 199.972 273.46C200.672 272.55 201.708 272.088 203.066 272.088C205.852 272.088 207.238 273.922 207.238 277.1C207.238 278.626 206.888 279.83 206.202 280.74C205.502 281.65 204.466 282.112 203.094 282.112C201.778 282.112 200.756 281.65 200.014 280.726C199.272 279.802 198.908 278.598 198.908 277.1ZM200.196 277.1C200.196 279.494 201.288 280.922 203.094 280.922C204.998 280.922 205.95 279.648 205.95 277.1C205.95 274.552 204.984 273.278 203.066 273.278C201.12 273.278 200.196 274.678 200.196 277.1ZM210.72 282.21L209.796 281.678L217.034 271.892L217.916 272.536L210.72 282.21ZM208.284 274.552C208.284 273.852 208.522 273.278 209.012 272.83C209.502 272.382 210.104 272.158 210.846 272.158C211.574 272.158 212.176 272.382 212.666 272.83C213.156 273.278 213.394 273.852 213.394 274.552C213.394 275.238 213.156 275.812 212.666 276.26C212.176 276.708 211.574 276.932 210.846 276.932C210.104 276.932 209.502 276.708 209.012 276.26C208.522 275.812 208.284 275.238 208.284 274.552ZM209.46 274.552C209.46 275.35 210.104 275.938 210.846 275.938C211.616 275.938 212.218 275.378 212.218 274.552C212.218 273.726 211.588 273.166 210.846 273.166C210.076 273.166 209.46 273.726 209.46 274.552ZM215.018 281.384C214.528 280.936 214.29 280.362 214.29 279.662C214.29 278.962 214.528 278.388 215.018 277.94C215.508 277.506 216.11 277.282 216.852 277.282C217.58 277.282 218.182 277.506 218.672 277.94C219.162 278.388 219.4 278.962 219.4 279.662C219.4 280.348 219.162 280.922 218.672 281.37C218.182 281.832 217.58 282.056 216.852 282.056C216.11 282.056 215.508 281.832 215.018 281.384ZM215.466 279.662C215.466 280.46 216.11 281.048 216.852 281.048C217.622 281.048 218.224 280.488 218.224 279.662C218.224 278.836 217.594 278.276 216.852 278.276C216.082 278.276 215.466 278.836 215.466 279.662Z" fill="#1A3341"/>
<circle cx="169" cy="261" r="7" fill="#6D73F9" stroke="white" stroke-width="2"/>
<circle cx="152" cy="258" r="7" fill="#6D73F9" stroke="white" stroke-width="2"/>
<defs>
<radialGradient id="paint0_radial_7002_37651" cx="0" cy="0" r="1" gradientUnits="userSpaceOnUse" gradientTransform="translate(167 289) rotate(-94.8401) scale(248.888 55.5533)">
<stop stop-color="#C4FFF1"/>
<stop offset="0.625" stop-color="#A9D2B7" stop-opacity="0"/>
</radialGradient>
</defs>
</svg>
