<svg width="1120" height="193" viewBox="0 0 1120 193" fill="none" xmlns="http://www.w3.org/2000/svg">
<rect x="973" y="8" width="147" height="165" fill="#F2FAFC"/>
<rect x="973" y="8" width="147" height="165" fill="url(#paint0_radial_7001_17820)" fill-opacity="0.2"/>
<path d="M53.5466 183.372L52.6706 183.06C52.9706 181.572 54.0986 180.504 55.8866 180.504C57.6146 180.504 58.6706 181.5 58.6706 183.024C58.6706 183.828 58.3226 184.632 57.8906 185.208C57.6746 185.508 57.3986 185.796 57.0746 186.096C56.4146 186.684 55.9466 186.996 55.2626 187.428L54.3386 188.004H58.9826V189H52.4426V188.184L54.2666 186.972C54.5906 186.768 54.8186 186.612 54.9506 186.516C55.0826 186.432 55.2986 186.276 55.5866 186.072C55.8746 185.868 56.0906 185.688 56.2346 185.556C56.3666 185.424 56.5466 185.256 56.7506 185.04C57.3026 184.44 57.5066 183.888 57.5666 183.132C57.5666 182.04 56.8586 181.548 55.8146 181.548C55.1666 181.548 54.6506 181.728 54.2786 182.088C53.9066 182.448 53.6546 182.88 53.5466 183.372ZM59.8143 184.8C59.8143 183.504 60.1143 182.46 60.7263 181.68C61.3263 180.9 62.2143 180.504 63.3783 180.504C65.7663 180.504 66.9543 182.076 66.9543 184.8C66.9543 186.108 66.6543 187.14 66.0663 187.92C65.4663 188.7 64.5783 189.096 63.4023 189.096C62.2743 189.096 61.3983 188.7 60.7623 187.908C60.1263 187.116 59.8143 186.084 59.8143 184.8ZM60.9183 184.8C60.9183 186.852 61.8543 188.076 63.4023 188.076C65.0343 188.076 65.8503 186.984 65.8503 184.8C65.8503 182.616 65.0223 181.524 63.3783 181.524C61.7103 181.524 60.9183 182.724 60.9183 184.8ZM67.7545 182.832L67.3705 181.932L70.2505 180.552H70.9345V189H69.9025V181.836L67.7545 182.832ZM72.4649 185.028C72.4649 183.576 72.8249 182.46 73.5329 181.668C74.2409 180.888 75.1289 180.492 76.1969 180.492C77.6009 180.492 78.7049 181.128 79.1729 182.136L78.3569 182.688C77.8649 181.908 77.1329 181.524 76.1489 181.524C75.4049 181.524 74.7809 181.812 74.2769 182.388C73.7729 182.976 73.5209 183.768 73.5329 184.788C74.0009 183.912 75.0929 183.384 76.2929 183.384C77.2649 183.384 78.0449 183.636 78.6089 184.152C79.1729 184.668 79.4609 185.352 79.4609 186.192C79.4609 187.044 79.1489 187.752 78.5129 188.292C77.8769 188.832 77.0849 189.108 76.1369 189.108C73.8689 189.108 72.4649 187.632 72.4649 185.028ZM73.6649 186.048C73.8929 187.236 74.7929 188.076 76.1249 188.076C76.7729 188.076 77.3129 187.908 77.7329 187.56C78.1529 187.224 78.3569 186.78 78.3569 186.24C78.3569 185.052 77.5169 184.416 76.2329 184.416C75.5249 184.416 74.9369 184.584 74.4809 184.92C74.0129 185.256 73.7489 185.628 73.6649 186.048Z" fill="#76848D"/>
<path d="M544.652 183.372L543.776 183.06C544.076 181.572 545.204 180.504 546.992 180.504C548.72 180.504 549.776 181.5 549.776 183.024C549.776 183.828 549.428 184.632 548.996 185.208C548.78 185.508 548.504 185.796 548.18 186.096C547.52 186.684 547.052 186.996 546.368 187.428L545.444 188.004H550.088V189H543.548V188.184L545.372 186.972C545.696 186.768 545.924 186.612 546.056 186.516C546.188 186.432 546.404 186.276 546.692 186.072C546.98 185.868 547.196 185.688 547.34 185.556C547.472 185.424 547.652 185.256 547.856 185.04C548.408 184.44 548.612 183.888 548.672 183.132C548.672 182.04 547.964 181.548 546.92 181.548C546.272 181.548 545.756 181.728 545.384 182.088C545.012 182.448 544.76 182.88 544.652 183.372ZM550.92 184.8C550.92 183.504 551.22 182.46 551.832 181.68C552.432 180.9 553.32 180.504 554.484 180.504C556.872 180.504 558.06 182.076 558.06 184.8C558.06 186.108 557.76 187.14 557.172 187.92C556.572 188.7 555.684 189.096 554.508 189.096C553.38 189.096 552.504 188.7 551.868 187.908C551.232 187.116 550.92 186.084 550.92 184.8ZM552.024 184.8C552.024 186.852 552.96 188.076 554.508 188.076C556.14 188.076 556.956 186.984 556.956 184.8C556.956 182.616 556.128 181.524 554.484 181.524C552.816 181.524 552.024 182.724 552.024 184.8ZM559.916 183.372L559.04 183.06C559.34 181.572 560.468 180.504 562.256 180.504C563.984 180.504 565.04 181.5 565.04 183.024C565.04 183.828 564.692 184.632 564.26 185.208C564.044 185.508 563.768 185.796 563.444 186.096C562.784 186.684 562.316 186.996 561.632 187.428L560.708 188.004H565.352V189H558.812V188.184L560.636 186.972C560.96 186.768 561.188 186.612 561.32 186.516C561.452 186.432 561.668 186.276 561.956 186.072C562.244 185.868 562.46 185.688 562.604 185.556C562.736 185.424 562.916 185.256 563.12 185.04C563.672 184.44 563.876 183.888 563.936 183.132C563.936 182.04 563.228 181.548 562.184 181.548C561.536 181.548 561.02 181.728 560.648 182.088C560.276 182.448 560.024 182.88 559.916 183.372ZM566.184 184.8C566.184 183.504 566.484 182.46 567.096 181.68C567.696 180.9 568.584 180.504 569.748 180.504C572.136 180.504 573.324 182.076 573.324 184.8C573.324 186.108 573.024 187.14 572.436 187.92C571.836 188.7 570.948 189.096 569.772 189.096C568.644 189.096 567.768 188.7 567.132 187.908C566.496 187.116 566.184 186.084 566.184 184.8ZM567.288 184.8C567.288 186.852 568.224 188.076 569.772 188.076C571.404 188.076 572.22 186.984 572.22 184.8C572.22 182.616 571.392 181.524 569.748 181.524C568.08 181.524 567.288 182.724 567.288 184.8Z" fill="#76848D"/>
<path d="M299.035 183.372L298.159 183.06C298.459 181.572 299.587 180.504 301.375 180.504C303.103 180.504 304.159 181.5 304.159 183.024C304.159 183.828 303.811 184.632 303.379 185.208C303.163 185.508 302.887 185.796 302.563 186.096C301.903 186.684 301.435 186.996 300.751 187.428L299.827 188.004H304.471V189H297.931V188.184L299.755 186.972C300.079 186.768 300.307 186.612 300.439 186.516C300.571 186.432 300.787 186.276 301.075 186.072C301.363 185.868 301.579 185.688 301.723 185.556C301.855 185.424 302.035 185.256 302.239 185.04C302.791 184.44 302.995 183.888 303.055 183.132C303.055 182.04 302.347 181.548 301.303 181.548C300.655 181.548 300.139 181.728 299.767 182.088C299.395 182.448 299.143 182.88 299.035 183.372ZM305.303 184.8C305.303 183.504 305.603 182.46 306.215 181.68C306.815 180.9 307.703 180.504 308.867 180.504C311.255 180.504 312.443 182.076 312.443 184.8C312.443 186.108 312.143 187.14 311.555 187.92C310.955 188.7 310.067 189.096 308.891 189.096C307.763 189.096 306.887 188.7 306.251 187.908C305.615 187.116 305.303 186.084 305.303 184.8ZM306.407 184.8C306.407 186.852 307.343 188.076 308.891 188.076C310.523 188.076 311.339 186.984 311.339 184.8C311.339 182.616 310.511 181.524 308.867 181.524C307.199 181.524 306.407 182.724 306.407 184.8ZM313.243 182.832L312.859 181.932L315.739 180.552H316.423V189H315.391V181.836L313.243 182.832ZM321.265 184.212H321.637C322.177 184.212 322.621 184.08 322.993 183.828C323.353 183.576 323.533 183.24 323.533 182.844C323.533 181.944 322.825 181.488 321.421 181.488C320.077 181.488 319.345 181.98 319.345 182.844C319.345 183.624 320.149 184.212 321.265 184.212ZM321.613 185.16H321.313C320.665 185.16 320.125 185.304 319.705 185.58C319.285 185.856 319.069 186.204 319.069 186.624C319.069 187.536 319.909 188.112 321.433 188.112C322.981 188.112 323.809 187.56 323.809 186.636C323.809 185.712 322.921 185.16 321.613 185.16ZM323.977 188.46C323.365 188.892 322.513 189.108 321.445 189.108C320.377 189.108 319.525 188.892 318.901 188.472C318.277 188.052 317.965 187.476 317.965 186.732C317.965 185.76 318.601 184.992 319.621 184.656C318.697 184.356 318.241 183.624 318.241 182.772C318.241 181.38 319.417 180.492 321.433 180.492C323.461 180.492 324.637 181.38 324.637 182.772C324.637 183.576 324.193 184.188 323.305 184.596C324.373 184.92 324.901 185.616 324.901 186.684C324.901 187.44 324.589 188.04 323.977 188.46Z" fill="#76848D"/>
<path d="M789.556 183.372L788.68 183.06C788.98 181.572 790.108 180.504 791.896 180.504C793.624 180.504 794.68 181.5 794.68 183.024C794.68 183.828 794.332 184.632 793.9 185.208C793.684 185.508 793.408 185.796 793.084 186.096C792.424 186.684 791.956 186.996 791.272 187.428L790.348 188.004H794.992V189H788.452V188.184L790.276 186.972C790.6 186.768 790.828 186.612 790.96 186.516C791.092 186.432 791.308 186.276 791.596 186.072C791.884 185.868 792.1 185.688 792.244 185.556C792.376 185.424 792.556 185.256 792.76 185.04C793.312 184.44 793.516 183.888 793.576 183.132C793.576 182.04 792.868 181.548 791.824 181.548C791.176 181.548 790.66 181.728 790.288 182.088C789.916 182.448 789.664 182.88 789.556 183.372ZM795.824 184.8C795.824 183.504 796.124 182.46 796.736 181.68C797.336 180.9 798.224 180.504 799.388 180.504C801.776 180.504 802.964 182.076 802.964 184.8C802.964 186.108 802.664 187.14 802.076 187.92C801.476 188.7 800.588 189.096 799.412 189.096C798.284 189.096 797.408 188.7 796.772 187.908C796.136 187.116 795.824 186.084 795.824 184.8ZM796.928 184.8C796.928 186.852 797.864 188.076 799.412 188.076C801.044 188.076 801.86 186.984 801.86 184.8C801.86 182.616 801.032 181.524 799.388 181.524C797.72 181.524 796.928 182.724 796.928 184.8ZM804.82 183.372L803.944 183.06C804.244 181.572 805.372 180.504 807.16 180.504C808.888 180.504 809.944 181.5 809.944 183.024C809.944 183.828 809.596 184.632 809.164 185.208C808.948 185.508 808.672 185.796 808.348 186.096C807.688 186.684 807.22 186.996 806.536 187.428L805.612 188.004H810.256V189H803.716V188.184L805.54 186.972C805.864 186.768 806.092 186.612 806.224 186.516C806.356 186.432 806.572 186.276 806.86 186.072C807.148 185.868 807.364 185.688 807.508 185.556C807.64 185.424 807.82 185.256 808.024 185.04C808.576 184.44 808.78 183.888 808.84 183.132C808.84 182.04 808.132 181.548 807.088 181.548C806.44 181.548 805.924 181.728 805.552 182.088C805.18 182.448 804.928 182.88 804.82 183.372ZM812.048 183.372L811.172 183.06C811.472 181.572 812.6 180.504 814.388 180.504C816.116 180.504 817.172 181.5 817.172 183.024C817.172 183.828 816.824 184.632 816.392 185.208C816.176 185.508 815.9 185.796 815.576 186.096C814.916 186.684 814.448 186.996 813.764 187.428L812.84 188.004H817.484V189H810.944V188.184L812.768 186.972C813.092 186.768 813.32 186.612 813.452 186.516C813.584 186.432 813.8 186.276 814.088 186.072C814.376 185.868 814.592 185.688 814.736 185.556C814.868 185.424 815.048 185.256 815.252 185.04C815.804 184.44 816.008 183.888 816.068 183.132C816.068 182.04 815.36 181.548 814.316 181.548C813.668 181.548 813.152 181.728 812.78 182.088C812.408 182.448 812.156 182.88 812.048 183.372Z" fill="#76848D"/>
<path d="M176.609 183.372L175.733 183.06C176.033 181.572 177.161 180.504 178.949 180.504C180.677 180.504 181.733 181.5 181.733 183.024C181.733 183.828 181.385 184.632 180.953 185.208C180.737 185.508 180.461 185.796 180.137 186.096C179.477 186.684 179.009 186.996 178.325 187.428L177.401 188.004H182.045V189H175.505V188.184L177.329 186.972C177.653 186.768 177.881 186.612 178.013 186.516C178.145 186.432 178.361 186.276 178.649 186.072C178.937 185.868 179.153 185.688 179.297 185.556C179.429 185.424 179.609 185.256 179.813 185.04C180.365 184.44 180.569 183.888 180.629 183.132C180.629 182.04 179.921 181.548 178.877 181.548C178.229 181.548 177.713 181.728 177.341 182.088C176.969 182.448 176.717 182.88 176.609 183.372ZM182.877 184.8C182.877 183.504 183.177 182.46 183.789 181.68C184.389 180.9 185.277 180.504 186.441 180.504C188.829 180.504 190.017 182.076 190.017 184.8C190.017 186.108 189.717 187.14 189.129 187.92C188.529 188.7 187.641 189.096 186.465 189.096C185.337 189.096 184.461 188.7 183.825 187.908C183.189 187.116 182.877 186.084 182.877 184.8ZM183.981 184.8C183.981 186.852 184.917 188.076 186.465 188.076C188.097 188.076 188.913 186.984 188.913 184.8C188.913 182.616 188.085 181.524 186.441 181.524C184.773 181.524 183.981 182.724 183.981 184.8ZM190.817 182.832L190.433 181.932L193.313 180.552H193.997V189H192.965V181.836L190.817 182.832ZM200.339 181.62H195.251V180.6H201.623V181.284L197.447 189H196.307L200.339 181.62Z" fill="#76848D"/>
<path d="M666.363 183.372L665.487 183.06C665.787 181.572 666.915 180.504 668.703 180.504C670.431 180.504 671.487 181.5 671.487 183.024C671.487 183.828 671.139 184.632 670.707 185.208C670.491 185.508 670.215 185.796 669.891 186.096C669.231 186.684 668.763 186.996 668.079 187.428L667.155 188.004H671.799V189H665.259V188.184L667.083 186.972C667.407 186.768 667.635 186.612 667.767 186.516C667.899 186.432 668.115 186.276 668.403 186.072C668.691 185.868 668.907 185.688 669.051 185.556C669.183 185.424 669.363 185.256 669.567 185.04C670.119 184.44 670.323 183.888 670.383 183.132C670.383 182.04 669.675 181.548 668.631 181.548C667.983 181.548 667.467 181.728 667.095 182.088C666.723 182.448 666.471 182.88 666.363 183.372ZM672.631 184.8C672.631 183.504 672.931 182.46 673.543 181.68C674.143 180.9 675.031 180.504 676.195 180.504C678.583 180.504 679.771 182.076 679.771 184.8C679.771 186.108 679.471 187.14 678.883 187.92C678.283 188.7 677.395 189.096 676.219 189.096C675.091 189.096 674.215 188.7 673.579 187.908C672.943 187.116 672.631 186.084 672.631 184.8ZM673.735 184.8C673.735 186.852 674.671 188.076 676.219 188.076C677.851 188.076 678.667 186.984 678.667 184.8C678.667 182.616 677.839 181.524 676.195 181.524C674.527 181.524 673.735 182.724 673.735 184.8ZM681.627 183.372L680.751 183.06C681.051 181.572 682.179 180.504 683.967 180.504C685.695 180.504 686.751 181.5 686.751 183.024C686.751 183.828 686.403 184.632 685.971 185.208C685.755 185.508 685.479 185.796 685.155 186.096C684.495 186.684 684.027 186.996 683.343 187.428L682.419 188.004H687.063V189H680.523V188.184L682.347 186.972C682.671 186.768 682.899 186.612 683.031 186.516C683.163 186.432 683.379 186.276 683.667 186.072C683.955 185.868 684.171 185.688 684.315 185.556C684.447 185.424 684.627 185.256 684.831 185.04C685.383 184.44 685.587 183.888 685.647 183.132C685.647 182.04 684.939 181.548 683.895 181.548C683.247 181.548 682.731 181.728 682.359 182.088C681.987 182.448 681.735 182.88 681.627 183.372ZM687.799 182.832L687.415 181.932L690.295 180.552H690.979V189H689.947V181.836L687.799 182.832Z" fill="#76848D"/>
<path d="M420.035 183.372L419.159 183.06C419.459 181.572 420.587 180.504 422.375 180.504C424.103 180.504 425.159 181.5 425.159 183.024C425.159 183.828 424.811 184.632 424.379 185.208C424.163 185.508 423.887 185.796 423.563 186.096C422.903 186.684 422.435 186.996 421.751 187.428L420.827 188.004H425.471V189H418.931V188.184L420.755 186.972C421.079 186.768 421.307 186.612 421.439 186.516C421.571 186.432 421.787 186.276 422.075 186.072C422.363 185.868 422.579 185.688 422.723 185.556C422.855 185.424 423.035 185.256 423.239 185.04C423.791 184.44 423.995 183.888 424.055 183.132C424.055 182.04 423.347 181.548 422.303 181.548C421.655 181.548 421.139 181.728 420.767 182.088C420.395 182.448 420.143 182.88 420.035 183.372ZM426.303 184.8C426.303 183.504 426.603 182.46 427.215 181.68C427.815 180.9 428.703 180.504 429.867 180.504C432.255 180.504 433.443 182.076 433.443 184.8C433.443 186.108 433.143 187.14 432.555 187.92C431.955 188.7 431.067 189.096 429.891 189.096C428.763 189.096 427.887 188.7 427.251 187.908C426.615 187.116 426.303 186.084 426.303 184.8ZM427.407 184.8C427.407 186.852 428.343 188.076 429.891 188.076C431.523 188.076 432.339 186.984 432.339 184.8C432.339 182.616 431.511 181.524 429.867 181.524C428.199 181.524 427.407 182.724 427.407 184.8ZM434.243 182.832L433.859 181.932L436.739 180.552H437.423V189H436.391V181.836L434.243 182.832ZM445.937 184.644C445.937 186.072 445.601 187.176 444.917 187.944C444.233 188.724 443.321 189.108 442.181 189.108C440.789 189.108 439.697 188.52 439.157 187.62L440.021 187.02C440.501 187.692 441.377 188.076 442.325 188.076C443.105 188.076 443.729 187.764 444.221 187.14C444.713 186.528 444.917 185.76 444.857 184.848C444.461 185.76 443.465 186.432 442.133 186.432C441.197 186.432 440.429 186.168 439.829 185.628C439.217 185.1 438.917 184.404 438.917 183.552C438.917 182.616 439.241 181.872 439.889 181.32C440.537 180.768 441.401 180.492 442.469 180.492C444.629 180.492 445.937 182.004 445.937 184.644ZM444.677 183.516C444.497 182.4 443.729 181.524 442.349 181.524C440.909 181.524 440.021 182.268 440.021 183.516C440.021 184.704 440.921 185.4 442.325 185.4C442.961 185.4 443.501 185.208 443.921 184.824C444.341 184.44 444.593 184.008 444.677 183.516Z" fill="#76848D"/>
<path d="M909.527 183.372L908.651 183.06C908.951 181.572 910.079 180.504 911.867 180.504C913.595 180.504 914.651 181.5 914.651 183.024C914.651 183.828 914.303 184.632 913.871 185.208C913.655 185.508 913.379 185.796 913.055 186.096C912.395 186.684 911.927 186.996 911.243 187.428L910.319 188.004H914.963V189H908.423V188.184L910.247 186.972C910.571 186.768 910.799 186.612 910.931 186.516C911.063 186.432 911.279 186.276 911.567 186.072C911.855 185.868 912.071 185.688 912.215 185.556C912.347 185.424 912.527 185.256 912.731 185.04C913.283 184.44 913.487 183.888 913.547 183.132C913.547 182.04 912.839 181.548 911.795 181.548C911.147 181.548 910.631 181.728 910.259 182.088C909.887 182.448 909.635 182.88 909.527 183.372ZM915.795 184.8C915.795 183.504 916.095 182.46 916.707 181.68C917.307 180.9 918.195 180.504 919.359 180.504C921.747 180.504 922.935 182.076 922.935 184.8C922.935 186.108 922.635 187.14 922.047 187.92C921.447 188.7 920.559 189.096 919.383 189.096C918.255 189.096 917.379 188.7 916.743 187.908C916.107 187.116 915.795 186.084 915.795 184.8ZM916.899 184.8C916.899 186.852 917.835 188.076 919.383 188.076C921.015 188.076 921.831 186.984 921.831 184.8C921.831 182.616 921.003 181.524 919.359 181.524C917.691 181.524 916.899 182.724 916.899 184.8ZM924.791 183.372L923.915 183.06C924.215 181.572 925.343 180.504 927.131 180.504C928.859 180.504 929.915 181.5 929.915 183.024C929.915 183.828 929.567 184.632 929.135 185.208C928.919 185.508 928.643 185.796 928.319 186.096C927.659 186.684 927.191 186.996 926.507 187.428L925.583 188.004H930.227V189H923.687V188.184L925.511 186.972C925.835 186.768 926.063 186.612 926.195 186.516C926.327 186.432 926.543 186.276 926.831 186.072C927.119 185.868 927.335 185.688 927.479 185.556C927.611 185.424 927.791 185.256 927.995 185.04C928.547 184.44 928.751 183.888 928.811 183.132C928.811 182.04 928.103 181.548 927.059 181.548C926.411 181.548 925.895 181.728 925.523 182.088C925.151 182.448 924.899 182.88 924.791 183.372ZM931.887 183.048L930.987 182.64C931.431 181.344 932.595 180.492 934.335 180.492C935.163 180.492 935.847 180.684 936.375 181.068C936.903 181.452 937.167 181.968 937.167 182.604C937.167 183.576 936.651 184.296 935.691 184.572C936.615 184.632 937.359 185.328 937.359 186.576C937.359 187.368 937.071 187.992 936.495 188.436C935.919 188.88 935.187 189.108 934.287 189.108C932.451 189.108 931.179 188.232 930.759 186.852L931.731 186.432C932.247 187.524 933.123 188.076 934.359 188.076C935.523 188.076 936.255 187.536 936.255 186.588C936.255 185.664 935.535 185.196 934.095 185.196H933.159V184.2H933.903C935.211 184.2 936.063 183.612 936.063 182.808C936.063 181.98 935.379 181.512 934.287 181.512C933.003 181.512 932.223 182.172 931.887 183.048Z" fill="#76848D"/>
<path d="M1032.7 183.372L1031.82 183.06C1032.12 181.572 1033.25 180.504 1035.04 180.504C1036.77 180.504 1037.82 181.5 1037.82 183.024C1037.82 183.828 1037.47 184.632 1037.04 185.208C1036.83 185.508 1036.55 185.796 1036.23 186.096C1035.57 186.684 1035.1 186.996 1034.41 187.428L1033.49 188.004H1038.13V189H1031.59V188.184L1033.42 186.972C1033.74 186.768 1033.97 186.612 1034.1 186.516C1034.23 186.432 1034.45 186.276 1034.74 186.072C1035.03 185.868 1035.24 185.688 1035.39 185.556C1035.52 185.424 1035.7 185.256 1035.9 185.04C1036.45 184.44 1036.66 183.888 1036.72 183.132C1036.72 182.04 1036.01 181.548 1034.97 181.548C1034.32 181.548 1033.8 181.728 1033.43 182.088C1033.06 182.448 1032.81 182.88 1032.7 183.372ZM1038.97 184.8C1038.97 183.504 1039.27 182.46 1039.88 181.68C1040.48 180.9 1041.37 180.504 1042.53 180.504C1044.92 180.504 1046.11 182.076 1046.11 184.8C1046.11 186.108 1045.81 187.14 1045.22 187.92C1044.62 188.7 1043.73 189.096 1042.55 189.096C1041.43 189.096 1040.55 188.7 1039.91 187.908C1039.28 187.116 1038.97 186.084 1038.97 184.8ZM1040.07 184.8C1040.07 186.852 1041.01 188.076 1042.55 188.076C1044.19 188.076 1045 186.984 1045 184.8C1045 182.616 1044.17 181.524 1042.53 181.524C1040.86 181.524 1040.07 182.724 1040.07 184.8ZM1047.96 183.372L1047.09 183.06C1047.39 181.572 1048.51 180.504 1050.3 180.504C1052.03 180.504 1053.09 181.5 1053.09 183.024C1053.09 183.828 1052.74 184.632 1052.31 185.208C1052.09 185.508 1051.81 185.796 1051.49 186.096C1050.83 186.684 1050.36 186.996 1049.68 187.428L1048.75 188.004H1053.4V189H1046.86V188.184L1048.68 186.972C1049.01 186.768 1049.23 186.612 1049.37 186.516C1049.5 186.432 1049.71 186.276 1050 186.072C1050.29 185.868 1050.51 185.688 1050.65 185.556C1050.78 185.424 1050.96 185.256 1051.17 185.04C1051.72 184.44 1051.92 183.888 1051.98 183.132C1051.98 182.04 1051.27 181.548 1050.23 181.548C1049.58 181.548 1049.07 181.728 1048.69 182.088C1048.32 182.448 1048.07 182.88 1047.96 183.372ZM1060.03 189H1058.98V187.284H1053.85V186.588L1059.1 180.6H1060.03V186.312H1061.59V187.284H1060.03V189ZM1058.98 182.28L1055.29 186.312H1058.98V182.28Z" fill="#76848D"/>
<line x1="27" y1="72.5" x2="1120" y2="72.5" stroke="#ABBEC9"/>
<line x1="27" y1="39.5" x2="1120" y2="39.5" stroke="#CEE0ED"/>
<line x1="27" y1="137.5" x2="1120" y2="137.5" stroke="#CEE0ED"/>
<line x1="27" y1="172.5" x2="1120" y2="172.5" stroke="#CEE0ED"/>
<line x1="27" y1="7.5" x2="1120" y2="7.5" stroke="#CEE0ED"/>
<line x1="27" y1="106.5" x2="1120" y2="106.5" stroke="#CEE0ED"/>
<path d="M63 123C88.9387 120.833 162.131 117.1 227.09 117.5C308.29 118 306.598 117.5 348.889 120C417.384 124.049 444.374 120.841 479.147 109.5C528.204 93.5 556.117 83.5 584.029 77.5C614.267 71 648.291 54 715.978 54C765.036 54 802.252 63 819.169 71C831.657 76.9056 888.526 118 896.985 123C905.443 128 939.276 149 979.876 152.5C1016.37 155.646 1028.93 152.5 1056 157" stroke="#0085D0" stroke-width="3" stroke-linecap="round" stroke-linejoin="round"/>
<path d="M61 123.377C86.9461 121.199 160.159 117.445 225.137 117.847C306.359 118.35 304.667 117.847 346.971 120.361C415.485 124.432 442.482 121.206 477.265 109.803C526.337 93.7158 554.257 83.6612 582.177 77.6284C612.424 71.0929 646.457 54 714.164 54C763.236 54 800.463 63.0492 817.384 71.0929C829.875 77.0308 886.762 118.35 895.222 123.377C903.683 128.404 927.373 146 966.292 146C1011.98 146 1029.65 141.5 1057 143.5" stroke="#737AF9" stroke-width="3" stroke-linecap="round" stroke-linejoin="round"/>
<path d="M61 122.623C86.946 120.468 160.159 116.755 225.137 117.153C306.359 117.65 304.667 117.153 346.97 119.639C415.485 123.666 442.482 120.476 477.264 109.197C526.336 93.2841 554.256 83.3388 582.177 77.3716C612.424 70.9071 646.457 54 714.163 54C763.235 54 800.462 62.9508 817.383 70.9071C829.874 76.7804 886.76 117.65 895.221 122.623C903.682 127.596 931.355 145 970.274 145C1015.96 145 1022.98 137.044 1059 133.563" stroke="#CDD3FB" stroke-width="3" stroke-linecap="round" stroke-linejoin="round"/>
<path d="M11.3821 167.62H6.29414V166.6H12.6661V167.284L8.49014 175H7.35014L11.3821 167.62ZM13.3056 170.8C13.3056 169.504 13.6056 168.46 14.2176 167.68C14.8176 166.9 15.7056 166.504 16.8696 166.504C19.2576 166.504 20.4456 168.076 20.4456 170.8C20.4456 172.108 20.1456 173.14 19.5576 173.92C18.9576 174.7 18.0696 175.096 16.8936 175.096C15.7656 175.096 14.8896 174.7 14.2536 173.908C13.6176 173.116 13.3056 172.084 13.3056 170.8ZM14.4096 170.8C14.4096 172.852 15.3456 174.076 16.8936 174.076C18.5256 174.076 19.3416 172.984 19.3416 170.8C19.3416 168.616 18.5136 167.524 16.8696 167.524C15.2016 167.524 14.4096 168.724 14.4096 170.8Z" fill="#76848D"/>
<path d="M8.30792 135.212H8.67992C9.21992 135.212 9.66392 135.08 10.0359 134.828C10.3959 134.576 10.5759 134.24 10.5759 133.844C10.5759 132.944 9.86792 132.488 8.46392 132.488C7.11992 132.488 6.38792 132.98 6.38792 133.844C6.38792 134.624 7.19192 135.212 8.30792 135.212ZM8.65592 136.16H8.35592C7.70792 136.16 7.16792 136.304 6.74792 136.58C6.32792 136.856 6.11192 137.204 6.11192 137.624C6.11192 138.536 6.95192 139.112 8.47592 139.112C10.0239 139.112 10.8519 138.56 10.8519 137.636C10.8519 136.712 9.96392 136.16 8.65592 136.16ZM11.0199 139.46C10.4079 139.892 9.55592 140.108 8.48792 140.108C7.41992 140.108 6.56792 139.892 5.94392 139.472C5.31992 139.052 5.00792 138.476 5.00792 137.732C5.00792 136.76 5.64392 135.992 6.66392 135.656C5.73992 135.356 5.28392 134.624 5.28392 133.772C5.28392 132.38 6.45992 131.492 8.47592 131.492C10.5039 131.492 11.6799 132.38 11.6799 133.772C11.6799 134.576 11.2359 135.188 10.3479 135.596C11.4159 135.92 11.9439 136.616 11.9439 137.684C11.9439 138.44 11.6319 139.04 11.0199 139.46ZM12.8798 135.8C12.8798 134.504 13.1798 133.46 13.7918 132.68C14.3918 131.9 15.2798 131.504 16.4438 131.504C18.8318 131.504 20.0198 133.076 20.0198 135.8C20.0198 137.108 19.7198 138.14 19.1318 138.92C18.5318 139.7 17.6438 140.096 16.4678 140.096C15.3398 140.096 14.4638 139.7 13.8278 138.908C13.1918 138.116 12.8798 137.084 12.8798 135.8ZM13.9838 135.8C13.9838 137.852 14.9198 139.076 16.4678 139.076C18.0998 139.076 18.9158 137.984 18.9158 135.8C18.9158 133.616 18.0878 132.524 16.4438 132.524C14.7758 132.524 13.9838 133.724 13.9838 135.8Z" fill="#76848D"/>
<path d="M11.9799 103.644C11.9799 105.072 11.6439 106.176 10.9599 106.944C10.2759 107.724 9.36392 108.108 8.22392 108.108C6.83192 108.108 5.73992 107.52 5.19992 106.62L6.06392 106.02C6.54392 106.692 7.41992 107.076 8.36792 107.076C9.14792 107.076 9.77192 106.764 10.2639 106.14C10.7559 105.528 10.9599 104.76 10.8999 103.848C10.5039 104.76 9.50792 105.432 8.17592 105.432C7.23992 105.432 6.47192 105.168 5.87192 104.628C5.25992 104.1 4.95992 103.404 4.95992 102.552C4.95992 101.616 5.28392 100.872 5.93192 100.32C6.57992 99.768 7.44392 99.492 8.51192 99.492C10.6719 99.492 11.9799 101.004 11.9799 103.644ZM10.7199 102.516C10.5399 101.4 9.77192 100.524 8.39192 100.524C6.95192 100.524 6.06392 101.268 6.06392 102.516C6.06392 103.704 6.96392 104.4 8.36792 104.4C9.00392 104.4 9.54392 104.208 9.96392 103.824C10.3839 103.44 10.6359 103.008 10.7199 102.516ZM12.8798 103.8C12.8798 102.504 13.1798 101.46 13.7918 100.68C14.3918 99.9 15.2798 99.504 16.4438 99.504C18.8318 99.504 20.0198 101.076 20.0198 103.8C20.0198 105.108 19.7198 106.14 19.1318 106.92C18.5318 107.7 17.6438 108.096 16.4678 108.096C15.3398 108.096 14.4638 107.7 13.8278 106.908C13.1918 106.116 12.8798 105.084 12.8798 103.8ZM13.9838 103.8C13.9838 105.852 14.9198 107.076 16.4678 107.076C18.0998 107.076 18.9158 105.984 18.9158 103.8C18.9158 101.616 18.0878 100.524 16.4438 100.524C14.7758 100.524 13.9838 101.724 13.9838 103.8Z" fill="#76848D"/>
<path d="M11.9799 103.644C11.9799 105.072 11.6439 106.176 10.9599 106.944C10.2759 107.724 9.36392 108.108 8.22392 108.108C6.83192 108.108 5.73992 107.52 5.19992 106.62L6.06392 106.02C6.54392 106.692 7.41992 107.076 8.36792 107.076C9.14792 107.076 9.77192 106.764 10.2639 106.14C10.7559 105.528 10.9599 104.76 10.8999 103.848C10.5039 104.76 9.50792 105.432 8.17592 105.432C7.23992 105.432 6.47192 105.168 5.87192 104.628C5.25992 104.1 4.95992 103.404 4.95992 102.552C4.95992 101.616 5.28392 100.872 5.93192 100.32C6.57992 99.768 7.44392 99.492 8.51192 99.492C10.6719 99.492 11.9799 101.004 11.9799 103.644ZM10.7199 102.516C10.5399 101.4 9.77192 100.524 8.39192 100.524C6.95192 100.524 6.06392 101.268 6.06392 102.516C6.06392 103.704 6.96392 104.4 8.36792 104.4C9.00392 104.4 9.54392 104.208 9.96392 103.824C10.3839 103.44 10.6359 103.008 10.7199 102.516ZM12.8798 103.8C12.8798 102.504 13.1798 101.46 13.7918 100.68C14.3918 99.9 15.2798 99.504 16.4438 99.504C18.8318 99.504 20.0198 101.076 20.0198 103.8C20.0198 105.108 19.7198 106.14 19.1318 106.92C18.5318 107.7 17.6438 108.096 16.4678 108.096C15.3398 108.096 14.4638 107.7 13.8278 106.908C13.1918 106.116 12.8798 105.084 12.8798 103.8ZM13.9838 103.8C13.9838 105.852 14.9198 107.076 16.4678 107.076C18.0998 107.076 18.9158 105.984 18.9158 103.8C18.9158 101.616 18.0878 100.524 16.4438 100.524C14.7758 100.524 13.9838 101.724 13.9838 103.8Z" fill="#76848D"/>
<path d="M0.516562 68.832L0.132562 67.932L3.01256 66.552H3.69656V75H2.66456V67.836L0.516562 68.832ZM5.22694 70.8C5.22694 69.504 5.52694 68.46 6.13894 67.68C6.73894 66.9 7.62694 66.504 8.79094 66.504C11.1789 66.504 12.3669 68.076 12.3669 70.8C12.3669 72.108 12.0669 73.14 11.4789 73.92C10.8789 74.7 9.99094 75.096 8.81494 75.096C7.68694 75.096 6.81094 74.7 6.17494 73.908C5.53894 73.116 5.22694 72.084 5.22694 70.8ZM6.33094 70.8C6.33094 72.852 7.26694 74.076 8.81494 74.076C10.4469 74.076 11.2629 72.984 11.2629 70.8C11.2629 68.616 10.4349 67.524 8.79094 67.524C7.12294 67.524 6.33094 68.724 6.33094 70.8ZM13.2632 70.8C13.2632 69.504 13.5632 68.46 14.1752 67.68C14.7752 66.9 15.6632 66.504 16.8272 66.504C19.2152 66.504 20.4032 68.076 20.4032 70.8C20.4032 72.108 20.1032 73.14 19.5152 73.92C18.9152 74.7 18.0272 75.096 16.8512 75.096C15.7232 75.096 14.8472 74.7 14.2112 73.908C13.5752 73.116 13.2632 72.084 13.2632 70.8ZM14.3672 70.8C14.3672 72.852 15.3032 74.076 16.8512 74.076C18.4832 74.076 19.2992 72.984 19.2992 70.8C19.2992 68.616 18.4712 67.524 16.8272 67.524C15.1592 67.524 14.3672 68.724 14.3672 70.8Z" fill="#76848D"/>
<path d="M1.7275 35.832L1.3435 34.932L4.2235 33.552H4.9075V42H3.8755V34.836L1.7275 35.832ZM6.34188 35.832L5.95788 34.932L8.83788 33.552H9.52188V42H8.48988V34.836L6.34188 35.832ZM11.0523 37.8C11.0523 36.504 11.3523 35.46 11.9643 34.68C12.5643 33.9 13.4523 33.504 14.6163 33.504C17.0043 33.504 18.1923 35.076 18.1923 37.8C18.1923 39.108 17.8923 40.14 17.3043 40.92C16.7043 41.7 15.8163 42.096 14.6403 42.096C13.5123 42.096 12.6363 41.7 12.0003 40.908C11.3643 40.116 11.0523 39.084 11.0523 37.8ZM12.1563 37.8C12.1563 39.852 13.0923 41.076 14.6403 41.076C16.2723 41.076 17.0883 39.984 17.0883 37.8C17.0883 35.616 16.2603 34.524 14.6163 34.524C12.9483 34.524 12.1563 35.724 12.1563 37.8Z" fill="#76848D"/>
<path d="M0.420859 3.832L0.0368593 2.932L2.91686 1.552H3.60086V10H2.56886V2.836L0.420859 3.832ZM6.09123 4.372L5.21523 4.06C5.51523 2.572 6.64323 1.504 8.43123 1.504C10.1592 1.504 11.2152 2.5 11.2152 4.024C11.2152 4.828 10.8672 5.632 10.4352 6.208C10.2192 6.508 9.94323 6.796 9.61923 7.096C8.95923 7.684 8.49123 7.996 7.80723 8.428L6.88323 9.004H11.5272V10H4.98723V9.184L6.81123 7.972C7.13523 7.768 7.36323 7.612 7.49523 7.516C7.62723 7.432 7.84323 7.276 8.13123 7.072C8.41923 6.868 8.63523 6.688 8.77923 6.556C8.91123 6.424 9.09123 6.256 9.29523 6.04C9.84723 5.44 10.0512 4.888 10.1112 4.132C10.1112 3.04 9.40323 2.548 8.35923 2.548C7.71123 2.548 7.19523 2.728 6.82323 3.088C6.45123 3.448 6.19923 3.88 6.09123 4.372ZM12.3589 5.8C12.3589 4.504 12.6589 3.46 13.2709 2.68C13.8709 1.9 14.7589 1.504 15.9229 1.504C18.3109 1.504 19.4989 3.076 19.4989 5.8C19.4989 7.108 19.1989 8.14 18.6109 8.92C18.0109 9.7 17.1229 10.096 15.9469 10.096C14.8189 10.096 13.9429 9.7 13.3069 8.908C12.6709 8.116 12.3589 7.084 12.3589 5.8ZM13.4629 5.8C13.4629 7.852 14.3989 9.076 15.9469 9.076C17.5789 9.076 18.3949 7.984 18.3949 5.8C18.3949 3.616 17.5669 2.524 15.9229 2.524C14.2549 2.524 13.4629 3.724 13.4629 5.8Z" fill="#76848D"/>
<path d="M27.42 56.832L27.036 55.932L29.916 54.552H30.6V63H29.568V55.836L27.42 56.832ZM39.1144 58.644C39.1144 60.072 38.7784 61.176 38.0944 61.944C37.4104 62.724 36.4984 63.108 35.3584 63.108C33.9664 63.108 32.8744 62.52 32.3344 61.62L33.1984 61.02C33.6784 61.692 34.5544 62.076 35.5024 62.076C36.2824 62.076 36.9064 61.764 37.3984 61.14C37.8904 60.528 38.0944 59.76 38.0344 58.848C37.6384 59.76 36.6424 60.432 35.3104 60.432C34.3744 60.432 33.6064 60.168 33.0064 59.628C32.3944 59.1 32.0944 58.404 32.0944 57.552C32.0944 56.616 32.4184 55.872 33.0664 55.32C33.7144 54.768 34.5784 54.492 35.6464 54.492C37.8064 54.492 39.1144 56.004 39.1144 58.644ZM37.8544 57.516C37.6744 56.4 36.9064 55.524 35.5264 55.524C34.0864 55.524 33.1984 56.268 33.1984 57.516C33.1984 58.704 34.0984 59.4 35.5024 59.4C36.1384 59.4 36.6784 59.208 37.0984 58.824C37.5184 58.44 37.7704 58.008 37.8544 57.516ZM43.3263 58.212H43.6983C44.2383 58.212 44.6823 58.08 45.0543 57.828C45.4143 57.576 45.5943 57.24 45.5943 56.844C45.5943 55.944 44.8863 55.488 43.4823 55.488C42.1383 55.488 41.4063 55.98 41.4063 56.844C41.4063 57.624 42.2103 58.212 43.3263 58.212ZM43.6743 59.16H43.3743C42.7263 59.16 42.1863 59.304 41.7663 59.58C41.3463 59.856 41.1303 60.204 41.1303 60.624C41.1303 61.536 41.9703 62.112 43.4943 62.112C45.0423 62.112 45.8703 61.56 45.8703 60.636C45.8703 59.712 44.9823 59.16 43.6743 59.16ZM46.0383 62.46C45.4263 62.892 44.5743 63.108 43.5063 63.108C42.4383 63.108 41.5863 62.892 40.9623 62.472C40.3383 62.052 40.0263 61.476 40.0263 60.732C40.0263 59.76 40.6623 58.992 41.6823 58.656C40.7583 58.356 40.3023 57.624 40.3023 56.772C40.3023 55.38 41.4783 54.492 43.4943 54.492C45.5223 54.492 46.6983 55.38 46.6983 56.772C46.6983 57.576 46.2543 58.188 45.3663 58.596C46.4343 58.92 46.9623 59.616 46.9623 60.684C46.9623 61.44 46.6503 62.04 46.0383 62.46ZM47.8982 58.8C47.8982 57.504 48.1982 56.46 48.8102 55.68C49.4102 54.9 50.2982 54.504 51.4622 54.504C53.8502 54.504 55.0382 56.076 55.0382 58.8C55.0382 60.108 54.7382 61.14 54.1502 61.92C53.5502 62.7 52.6622 63.096 51.4862 63.096C50.3582 63.096 49.4822 62.7 48.8462 61.908C48.2102 61.116 47.8982 60.084 47.8982 58.8ZM49.0022 58.8C49.0022 60.852 49.9382 62.076 51.4862 62.076C53.1182 62.076 53.9342 60.984 53.9342 58.8C53.9342 56.616 53.1062 55.524 51.4622 55.524C49.7942 55.524 49.0022 56.724 49.0022 58.8ZM65.0881 58.056H59.7121V57.168H65.0881V58.056ZM65.0881 60.204H59.7121V59.316H65.0881V60.204ZM69.6698 56.832L69.2858 55.932L72.1658 54.552H72.8498V63H71.8178V55.836L69.6698 56.832ZM74.3802 58.8C74.3802 57.504 74.6802 56.46 75.2922 55.68C75.8922 54.9 76.7802 54.504 77.9442 54.504C80.3322 54.504 81.5202 56.076 81.5202 58.8C81.5202 60.108 81.2202 61.14 80.6322 61.92C80.0322 62.7 79.1442 63.096 77.9682 63.096C76.8402 63.096 75.9642 62.7 75.3282 61.908C74.6922 61.116 74.3802 60.084 74.3802 58.8ZM75.4842 58.8C75.4842 60.852 76.4202 62.076 77.9682 62.076C79.6002 62.076 80.4162 60.984 80.4162 58.8C80.4162 56.616 79.5882 55.524 77.9442 55.524C76.2762 55.524 75.4842 56.724 75.4842 58.8ZM82.4165 58.8C82.4165 57.504 82.7165 56.46 83.3285 55.68C83.9285 54.9 84.8165 54.504 85.9805 54.504C88.3685 54.504 89.5565 56.076 89.5565 58.8C89.5565 60.108 89.2565 61.14 88.6685 61.92C88.0685 62.7 87.1805 63.096 86.0045 63.096C84.8765 63.096 84.0005 62.7 83.3645 61.908C82.7285 61.116 82.4165 60.084 82.4165 58.8ZM83.5205 58.8C83.5205 60.852 84.4565 62.076 86.0045 62.076C87.6365 62.076 88.4525 60.984 88.4525 58.8C88.4525 56.616 87.6245 55.524 85.9805 55.524C84.3125 55.524 83.5205 56.724 83.5205 58.8Z" fill="#3C525E"/>
<path d="M1024.52 22.432H1033.64V23.32H1024.52V22.432ZM1023.82 19.36H1033.32V20.224H1023.82V19.36ZM1023.99 22.432H1024.92V24.1C1024.92 24.452 1024.91 24.844 1024.88 25.276C1024.84 25.7 1024.78 26.136 1024.68 26.584C1024.6 27.024 1024.47 27.456 1024.3 27.88C1024.14 28.304 1023.93 28.692 1023.66 29.044C1023.62 28.988 1023.54 28.916 1023.45 28.828C1023.36 28.748 1023.27 28.668 1023.17 28.588C1023.08 28.516 1022.99 28.46 1022.92 28.42C1023.24 27.988 1023.48 27.516 1023.63 27.004C1023.78 26.492 1023.88 25.98 1023.92 25.468C1023.96 24.956 1023.99 24.492 1023.99 24.076V22.432ZM1025.66 20.656L1026.44 20.332C1026.64 20.588 1026.84 20.88 1027.04 21.208C1027.24 21.528 1027.4 21.804 1027.5 22.036L1026.68 22.408C1026.59 22.168 1026.44 21.884 1026.24 21.556C1026.05 21.22 1025.86 20.92 1025.66 20.656ZM1030.77 20.392L1031.74 20.728C1031.53 21.08 1031.31 21.444 1031.08 21.82C1030.86 22.196 1030.65 22.516 1030.46 22.78L1029.75 22.492C1029.87 22.3 1029.99 22.084 1030.12 21.844C1030.25 21.596 1030.37 21.344 1030.48 21.088C1030.59 20.832 1030.69 20.6 1030.77 20.392ZM1027.6 18.148L1028.5 17.908C1028.68 18.116 1028.86 18.356 1029.03 18.628C1029.2 18.9 1029.32 19.14 1029.4 19.348L1028.45 19.648C1028.39 19.44 1028.27 19.196 1028.1 18.916C1027.94 18.628 1027.78 18.372 1027.6 18.148ZM1035.7 22.192H1039.5V22.96H1036.54V28.948H1035.7V22.192ZM1039.1 22.192H1039.98V27.916C1039.98 28.148 1039.96 28.328 1039.9 28.456C1039.84 28.592 1039.73 28.7 1039.56 28.78C1039.4 28.844 1039.18 28.884 1038.92 28.9C1038.65 28.916 1038.33 28.924 1037.96 28.924C1037.93 28.804 1037.89 28.664 1037.84 28.504C1037.78 28.344 1037.72 28.208 1037.66 28.096C1037.94 28.104 1038.19 28.108 1038.42 28.108C1038.66 28.116 1038.82 28.116 1038.9 28.108C1038.98 28.108 1039.04 28.092 1039.06 28.06C1039.08 28.036 1039.1 27.984 1039.1 27.904V22.192ZM1036.11 23.992H1039.56V24.7H1036.11V23.992ZM1036.11 25.792H1039.56V26.5H1036.11V25.792ZM1041.11 17.944H1042V21.916C1042 22.108 1042.04 22.232 1042.11 22.288C1042.19 22.344 1042.36 22.372 1042.64 22.372C1042.7 22.372 1042.82 22.372 1042.98 22.372C1043.16 22.372 1043.35 22.372 1043.56 22.372C1043.77 22.372 1043.96 22.372 1044.15 22.372C1044.33 22.372 1044.46 22.372 1044.54 22.372C1044.7 22.372 1044.82 22.34 1044.9 22.276C1044.98 22.204 1045.04 22.072 1045.07 21.88C1045.11 21.68 1045.14 21.38 1045.16 20.98C1045.24 21.052 1045.37 21.12 1045.53 21.184C1045.69 21.248 1045.83 21.296 1045.95 21.328C1045.92 21.816 1045.87 22.196 1045.78 22.468C1045.69 22.732 1045.56 22.92 1045.37 23.032C1045.2 23.136 1044.95 23.188 1044.63 23.188C1044.58 23.188 1044.48 23.188 1044.34 23.188C1044.2 23.188 1044.04 23.188 1043.86 23.188C1043.68 23.188 1043.49 23.188 1043.31 23.188C1043.13 23.188 1042.98 23.188 1042.84 23.188C1042.7 23.188 1042.61 23.188 1042.56 23.188C1042.18 23.188 1041.88 23.152 1041.68 23.08C1041.47 23 1041.32 22.868 1041.23 22.684C1041.15 22.5 1041.11 22.248 1041.11 21.928V17.944ZM1044.8 18.82L1045.4 19.492C1045.05 19.644 1044.67 19.8 1044.26 19.96C1043.84 20.112 1043.41 20.256 1042.97 20.392C1042.53 20.528 1042.1 20.656 1041.69 20.776C1041.67 20.688 1041.64 20.584 1041.58 20.464C1041.53 20.336 1041.48 20.228 1041.42 20.14C1041.82 20.02 1042.22 19.884 1042.64 19.732C1043.05 19.58 1043.45 19.428 1043.82 19.276C1044.2 19.116 1044.52 18.964 1044.8 18.82ZM1041.11 23.524H1042V27.592C1042 27.784 1042.04 27.908 1042.12 27.964C1042.21 28.02 1042.39 28.048 1042.67 28.048C1042.74 28.048 1042.86 28.048 1043.03 28.048C1043.21 28.048 1043.4 28.048 1043.61 28.048C1043.82 28.048 1044.02 28.048 1044.21 28.048C1044.39 28.048 1044.53 28.048 1044.62 28.048C1044.78 28.048 1044.91 28.012 1044.99 27.94C1045.08 27.868 1045.14 27.72 1045.17 27.496C1045.21 27.264 1045.24 26.92 1045.25 26.464C1045.36 26.536 1045.48 26.604 1045.64 26.668C1045.8 26.732 1045.94 26.78 1046.06 26.812C1046.02 27.348 1045.96 27.764 1045.88 28.06C1045.79 28.356 1045.65 28.56 1045.47 28.672C1045.28 28.792 1045.02 28.852 1044.69 28.852C1044.63 28.852 1044.53 28.852 1044.39 28.852C1044.25 28.852 1044.09 28.852 1043.91 28.852C1043.72 28.852 1043.54 28.852 1043.36 28.852C1043.17 28.852 1043.01 28.852 1042.86 28.852C1042.73 28.852 1042.64 28.852 1042.59 28.852C1042.2 28.852 1041.9 28.816 1041.69 28.744C1041.47 28.672 1041.32 28.544 1041.23 28.36C1041.15 28.176 1041.11 27.916 1041.11 27.58V23.524ZM1044.94 24.172L1045.53 24.844C1045.2 25.036 1044.82 25.22 1044.39 25.396C1043.96 25.564 1043.51 25.724 1043.04 25.876C1042.58 26.02 1042.13 26.152 1041.7 26.272C1041.68 26.184 1041.64 26.076 1041.58 25.948C1041.52 25.82 1041.47 25.712 1041.42 25.624C1041.84 25.504 1042.26 25.364 1042.7 25.204C1043.14 25.044 1043.55 24.876 1043.94 24.7C1044.34 24.524 1044.67 24.348 1044.94 24.172ZM1038.24 18.928L1038.98 18.64C1039.19 18.904 1039.4 19.192 1039.6 19.504C1039.81 19.816 1039.99 20.124 1040.15 20.428C1040.32 20.732 1040.44 21.004 1040.52 21.244L1039.74 21.604C1039.66 21.356 1039.53 21.08 1039.37 20.776C1039.22 20.464 1039.04 20.148 1038.84 19.828C1038.64 19.508 1038.44 19.208 1038.24 18.928ZM1035.51 21.364C1035.49 21.3 1035.46 21.216 1035.42 21.112C1035.39 21 1035.36 20.892 1035.32 20.788C1035.28 20.676 1035.24 20.58 1035.2 20.5C1035.29 20.476 1035.38 20.424 1035.47 20.344C1035.56 20.264 1035.66 20.16 1035.76 20.032C1035.83 19.944 1035.94 19.792 1036.08 19.576C1036.24 19.352 1036.4 19.096 1036.56 18.808C1036.73 18.512 1036.88 18.208 1037.01 17.896L1037.94 18.184C1037.77 18.512 1037.58 18.84 1037.37 19.168C1037.16 19.496 1036.95 19.808 1036.73 20.104C1036.52 20.392 1036.3 20.648 1036.08 20.872V20.884C1036.08 20.884 1036.05 20.9 1035.99 20.932C1035.93 20.964 1035.86 21.004 1035.78 21.052C1035.71 21.1 1035.65 21.152 1035.59 21.208C1035.54 21.264 1035.51 21.316 1035.51 21.364ZM1035.51 21.364L1035.48 20.74L1035.95 20.464L1039.85 20.236C1039.83 20.34 1039.81 20.464 1039.79 20.608C1039.78 20.744 1039.78 20.856 1039.78 20.944C1039.07 20.992 1038.47 21.036 1037.98 21.076C1037.5 21.108 1037.11 21.14 1036.8 21.172C1036.5 21.204 1036.26 21.232 1036.1 21.256C1035.93 21.272 1035.8 21.288 1035.71 21.304C1035.62 21.32 1035.56 21.34 1035.51 21.364ZM1047.33 18.76H1057.67V19.684H1047.33V18.76ZM1053.21 22.264L1053.88 21.688C1054.23 21.92 1054.6 22.172 1055 22.444C1055.39 22.708 1055.77 22.984 1056.15 23.272C1056.52 23.56 1056.87 23.84 1057.19 24.112C1057.52 24.384 1057.8 24.636 1058.02 24.868L1057.29 25.564C1057.07 25.332 1056.8 25.076 1056.48 24.796C1056.17 24.508 1055.83 24.216 1055.46 23.92C1055.1 23.624 1054.72 23.336 1054.32 23.056C1053.94 22.768 1053.57 22.504 1053.21 22.264ZM1052.99 19.084L1053.96 19.432C1053.52 20.256 1052.97 21.06 1052.33 21.844C1051.69 22.628 1050.98 23.352 1050.18 24.016C1049.4 24.68 1048.55 25.252 1047.64 25.732C1047.6 25.652 1047.54 25.564 1047.46 25.468C1047.39 25.372 1047.31 25.276 1047.23 25.18C1047.16 25.084 1047.09 25.004 1047.03 24.94C1047.68 24.612 1048.31 24.232 1048.9 23.8C1049.5 23.36 1050.06 22.884 1050.57 22.372C1051.08 21.852 1051.54 21.316 1051.95 20.764C1052.36 20.204 1052.71 19.644 1052.99 19.084ZM1052.01 21.472L1052.98 20.512V20.524V28.936H1052.01V21.472ZM1064.5 24.46H1069.08V25.312H1064.5V24.46ZM1061.81 24.976C1062.03 25.592 1062.31 26.096 1062.65 26.488C1063 26.872 1063.39 27.172 1063.84 27.388C1064.3 27.596 1064.8 27.74 1065.35 27.82C1065.9 27.892 1066.49 27.928 1067.12 27.928C1067.2 27.928 1067.33 27.928 1067.51 27.928C1067.7 27.928 1067.92 27.928 1068.16 27.928C1068.41 27.928 1068.66 27.928 1068.9 27.928C1069.16 27.928 1069.39 27.928 1069.6 27.928C1069.81 27.928 1069.96 27.924 1070.07 27.916C1070.02 27.988 1069.97 28.076 1069.92 28.18C1069.88 28.292 1069.84 28.4 1069.8 28.504C1069.77 28.616 1069.75 28.716 1069.73 28.804H1069.16H1067.08C1066.35 28.804 1065.68 28.752 1065.06 28.648C1064.45 28.552 1063.89 28.376 1063.38 28.12C1062.89 27.872 1062.44 27.52 1062.05 27.064C1061.67 26.6 1061.34 26.004 1061.07 25.276L1061.81 24.976ZM1064.1 22.336H1065.03V28.312L1064.1 28.012V22.336ZM1061.42 19.372V21.736H1067.81V19.372H1061.42ZM1060.53 18.508H1068.75V22.588H1060.53V18.508ZM1061.21 23.488L1062.16 23.608C1062.07 24.256 1061.93 24.92 1061.73 25.6C1061.54 26.272 1061.27 26.9 1060.94 27.484C1060.61 28.068 1060.18 28.56 1059.66 28.96C1059.62 28.904 1059.55 28.836 1059.47 28.756C1059.4 28.676 1059.32 28.6 1059.24 28.528C1059.16 28.456 1059.09 28.396 1059.03 28.348C1059.51 27.988 1059.9 27.54 1060.19 27.004C1060.49 26.46 1060.72 25.884 1060.88 25.276C1061.04 24.66 1061.16 24.064 1061.21 23.488Z" fill="#7DA4C1"/>
<path d="M1024.52 89.432H1033.64V90.32H1024.52V89.432ZM1023.82 86.36H1033.32V87.224H1023.82V86.36ZM1023.99 89.432H1024.92V91.1C1024.92 91.452 1024.91 91.844 1024.88 92.276C1024.84 92.7 1024.78 93.136 1024.68 93.584C1024.6 94.024 1024.47 94.456 1024.3 94.88C1024.14 95.304 1023.93 95.692 1023.66 96.044C1023.62 95.988 1023.54 95.916 1023.45 95.828C1023.36 95.748 1023.27 95.668 1023.17 95.588C1023.08 95.516 1022.99 95.46 1022.92 95.42C1023.24 94.988 1023.48 94.516 1023.63 94.004C1023.78 93.492 1023.88 92.98 1023.92 92.468C1023.96 91.956 1023.99 91.492 1023.99 91.076V89.432ZM1025.66 87.656L1026.44 87.332C1026.64 87.588 1026.84 87.88 1027.04 88.208C1027.24 88.528 1027.4 88.804 1027.5 89.036L1026.68 89.408C1026.59 89.168 1026.44 88.884 1026.24 88.556C1026.05 88.22 1025.86 87.92 1025.66 87.656ZM1030.77 87.392L1031.74 87.728C1031.53 88.08 1031.31 88.444 1031.08 88.82C1030.86 89.196 1030.65 89.516 1030.46 89.78L1029.75 89.492C1029.87 89.3 1029.99 89.084 1030.12 88.844C1030.25 88.596 1030.37 88.344 1030.48 88.088C1030.59 87.832 1030.69 87.6 1030.77 87.392ZM1027.6 85.148L1028.5 84.908C1028.68 85.116 1028.86 85.356 1029.03 85.628C1029.2 85.9 1029.32 86.14 1029.4 86.348L1028.45 86.648C1028.39 86.44 1028.27 86.196 1028.1 85.916C1027.94 85.628 1027.78 85.372 1027.6 85.148ZM1035.7 89.192H1039.5V89.96H1036.54V95.948H1035.7V89.192ZM1039.1 89.192H1039.98V94.916C1039.98 95.148 1039.96 95.328 1039.9 95.456C1039.84 95.592 1039.73 95.7 1039.56 95.78C1039.4 95.844 1039.18 95.884 1038.92 95.9C1038.65 95.916 1038.33 95.924 1037.96 95.924C1037.93 95.804 1037.89 95.664 1037.84 95.504C1037.78 95.344 1037.72 95.208 1037.66 95.096C1037.94 95.104 1038.19 95.108 1038.42 95.108C1038.66 95.116 1038.82 95.116 1038.9 95.108C1038.98 95.108 1039.04 95.092 1039.06 95.06C1039.08 95.036 1039.1 94.984 1039.1 94.904V89.192ZM1036.11 90.992H1039.56V91.7H1036.11V90.992ZM1036.11 92.792H1039.56V93.5H1036.11V92.792ZM1041.11 84.944H1042V88.916C1042 89.108 1042.04 89.232 1042.11 89.288C1042.19 89.344 1042.36 89.372 1042.64 89.372C1042.7 89.372 1042.82 89.372 1042.98 89.372C1043.16 89.372 1043.35 89.372 1043.56 89.372C1043.77 89.372 1043.96 89.372 1044.15 89.372C1044.33 89.372 1044.46 89.372 1044.54 89.372C1044.7 89.372 1044.82 89.34 1044.9 89.276C1044.98 89.204 1045.04 89.072 1045.07 88.88C1045.11 88.68 1045.14 88.38 1045.16 87.98C1045.24 88.052 1045.37 88.12 1045.53 88.184C1045.69 88.248 1045.83 88.296 1045.95 88.328C1045.92 88.816 1045.87 89.196 1045.78 89.468C1045.69 89.732 1045.56 89.92 1045.37 90.032C1045.2 90.136 1044.95 90.188 1044.63 90.188C1044.58 90.188 1044.48 90.188 1044.34 90.188C1044.2 90.188 1044.04 90.188 1043.86 90.188C1043.68 90.188 1043.49 90.188 1043.31 90.188C1043.13 90.188 1042.98 90.188 1042.84 90.188C1042.7 90.188 1042.61 90.188 1042.56 90.188C1042.18 90.188 1041.88 90.152 1041.68 90.08C1041.47 90 1041.32 89.868 1041.23 89.684C1041.15 89.5 1041.11 89.248 1041.11 88.928V84.944ZM1044.8 85.82L1045.4 86.492C1045.05 86.644 1044.67 86.8 1044.26 86.96C1043.84 87.112 1043.41 87.256 1042.97 87.392C1042.53 87.528 1042.1 87.656 1041.69 87.776C1041.67 87.688 1041.64 87.584 1041.58 87.464C1041.53 87.336 1041.48 87.228 1041.42 87.14C1041.82 87.02 1042.22 86.884 1042.64 86.732C1043.05 86.58 1043.45 86.428 1043.82 86.276C1044.2 86.116 1044.52 85.964 1044.8 85.82ZM1041.11 90.524H1042V94.592C1042 94.784 1042.04 94.908 1042.12 94.964C1042.21 95.02 1042.39 95.048 1042.67 95.048C1042.74 95.048 1042.86 95.048 1043.03 95.048C1043.21 95.048 1043.4 95.048 1043.61 95.048C1043.82 95.048 1044.02 95.048 1044.21 95.048C1044.39 95.048 1044.53 95.048 1044.62 95.048C1044.78 95.048 1044.91 95.012 1044.99 94.94C1045.08 94.868 1045.14 94.72 1045.17 94.496C1045.21 94.264 1045.24 93.92 1045.25 93.464C1045.36 93.536 1045.48 93.604 1045.64 93.668C1045.8 93.732 1045.94 93.78 1046.06 93.812C1046.02 94.348 1045.96 94.764 1045.88 95.06C1045.79 95.356 1045.65 95.56 1045.47 95.672C1045.28 95.792 1045.02 95.852 1044.69 95.852C1044.63 95.852 1044.53 95.852 1044.39 95.852C1044.25 95.852 1044.09 95.852 1043.91 95.852C1043.72 95.852 1043.54 95.852 1043.36 95.852C1043.17 95.852 1043.01 95.852 1042.86 95.852C1042.73 95.852 1042.64 95.852 1042.59 95.852C1042.2 95.852 1041.9 95.816 1041.69 95.744C1041.47 95.672 1041.32 95.544 1041.23 95.36C1041.15 95.176 1041.11 94.916 1041.11 94.58V90.524ZM1044.94 91.172L1045.53 91.844C1045.2 92.036 1044.82 92.22 1044.39 92.396C1043.96 92.564 1043.51 92.724 1043.04 92.876C1042.58 93.02 1042.13 93.152 1041.7 93.272C1041.68 93.184 1041.64 93.076 1041.58 92.948C1041.52 92.82 1041.47 92.712 1041.42 92.624C1041.84 92.504 1042.26 92.364 1042.7 92.204C1043.14 92.044 1043.55 91.876 1043.94 91.7C1044.34 91.524 1044.67 91.348 1044.94 91.172ZM1038.24 85.928L1038.98 85.64C1039.19 85.904 1039.4 86.192 1039.6 86.504C1039.81 86.816 1039.99 87.124 1040.15 87.428C1040.32 87.732 1040.44 88.004 1040.52 88.244L1039.74 88.604C1039.66 88.356 1039.53 88.08 1039.37 87.776C1039.22 87.464 1039.04 87.148 1038.84 86.828C1038.64 86.508 1038.44 86.208 1038.24 85.928ZM1035.51 88.364C1035.49 88.3 1035.46 88.216 1035.42 88.112C1035.39 88 1035.36 87.892 1035.32 87.788C1035.28 87.676 1035.24 87.58 1035.2 87.5C1035.29 87.476 1035.38 87.424 1035.47 87.344C1035.56 87.264 1035.66 87.16 1035.76 87.032C1035.83 86.944 1035.94 86.792 1036.08 86.576C1036.24 86.352 1036.4 86.096 1036.56 85.808C1036.73 85.512 1036.88 85.208 1037.01 84.896L1037.94 85.184C1037.77 85.512 1037.58 85.84 1037.37 86.168C1037.16 86.496 1036.95 86.808 1036.73 87.104C1036.52 87.392 1036.3 87.648 1036.08 87.872V87.884C1036.08 87.884 1036.05 87.9 1035.99 87.932C1035.93 87.964 1035.86 88.004 1035.78 88.052C1035.71 88.1 1035.65 88.152 1035.59 88.208C1035.54 88.264 1035.51 88.316 1035.51 88.364ZM1035.51 88.364L1035.48 87.74L1035.95 87.464L1039.85 87.236C1039.83 87.34 1039.81 87.464 1039.79 87.608C1039.78 87.744 1039.78 87.856 1039.78 87.944C1039.07 87.992 1038.47 88.036 1037.98 88.076C1037.5 88.108 1037.11 88.14 1036.8 88.172C1036.5 88.204 1036.26 88.232 1036.1 88.256C1035.93 88.272 1035.8 88.288 1035.71 88.304C1035.62 88.32 1035.56 88.34 1035.51 88.364ZM1047.45 85.712L1048.14 85.244C1048.37 85.444 1048.6 85.664 1048.83 85.904C1049.06 86.144 1049.28 86.38 1049.48 86.612C1049.68 86.844 1049.85 87.056 1049.98 87.248L1049.22 87.776C1049.12 87.584 1048.97 87.368 1048.77 87.128C1048.57 86.888 1048.35 86.644 1048.12 86.396C1047.9 86.148 1047.67 85.92 1047.45 85.712ZM1049.64 89.42V93.788H1048.76V90.26H1047.1V89.42H1049.64ZM1049.19 93.308C1049.32 93.308 1049.45 93.344 1049.57 93.416C1049.69 93.488 1049.83 93.584 1049.98 93.704C1050.13 93.816 1050.32 93.944 1050.53 94.088C1050.92 94.328 1051.38 94.484 1051.9 94.556C1052.42 94.628 1053.02 94.664 1053.69 94.664C1054.04 94.664 1054.41 94.66 1054.79 94.652C1055.18 94.636 1055.58 94.62 1055.97 94.604C1056.36 94.58 1056.74 94.556 1057.1 94.532C1057.46 94.5 1057.78 94.468 1058.07 94.436C1058.03 94.516 1057.99 94.616 1057.95 94.736C1057.91 94.856 1057.87 94.976 1057.84 95.096C1057.82 95.216 1057.8 95.32 1057.79 95.408C1057.58 95.424 1057.3 95.436 1056.95 95.444C1056.62 95.46 1056.24 95.472 1055.84 95.48C1055.44 95.488 1055.04 95.496 1054.66 95.504C1054.28 95.512 1053.95 95.516 1053.66 95.516C1052.92 95.516 1052.28 95.472 1051.76 95.384C1051.23 95.304 1050.75 95.132 1050.33 94.868C1050.08 94.708 1049.86 94.548 1049.66 94.388C1049.46 94.228 1049.3 94.148 1049.16 94.148C1049.04 94.148 1048.88 94.22 1048.71 94.364C1048.54 94.5 1048.36 94.684 1048.17 94.916C1047.98 95.148 1047.78 95.404 1047.57 95.684L1046.94 94.832C1047.36 94.384 1047.76 94.02 1048.14 93.74C1048.54 93.452 1048.88 93.308 1049.19 93.308ZM1050.48 87.08H1057.72V87.932H1050.48V87.08ZM1055.14 84.956H1056.05V92.696C1056.05 93 1056.01 93.228 1055.92 93.38C1055.83 93.532 1055.68 93.644 1055.46 93.716C1055.26 93.788 1054.96 93.836 1054.59 93.86C1054.21 93.876 1053.74 93.884 1053.18 93.884C1053.17 93.748 1053.12 93.592 1053.05 93.416C1052.99 93.24 1052.92 93.088 1052.86 92.96C1053.16 92.968 1053.44 92.976 1053.7 92.984C1053.97 92.992 1054.2 92.996 1054.4 92.996C1054.6 92.988 1054.74 92.984 1054.82 92.984C1054.94 92.976 1055.02 92.952 1055.07 92.912C1055.12 92.872 1055.14 92.8 1055.14 92.696V84.956ZM1051.07 89.276L1051.79 88.88C1052 89.12 1052.21 89.384 1052.43 89.672C1052.65 89.96 1052.86 90.24 1053.05 90.512C1053.24 90.784 1053.4 91.028 1053.51 91.244L1052.75 91.7C1052.64 91.492 1052.49 91.248 1052.31 90.968C1052.12 90.68 1051.92 90.388 1051.7 90.092C1051.48 89.796 1051.27 89.524 1051.07 89.276ZM1066.77 86.36H1067.58V93.02H1066.77V86.36ZM1060.83 88.376H1061.54V92.192H1060.83V88.376ZM1068.66 85.04H1069.54V94.808C1069.54 95.088 1069.5 95.3 1069.42 95.444C1069.35 95.588 1069.22 95.7 1069.05 95.78C1068.87 95.844 1068.64 95.884 1068.34 95.9C1068.04 95.924 1067.65 95.936 1067.16 95.936C1067.15 95.816 1067.11 95.672 1067.06 95.504C1067.01 95.344 1066.95 95.2 1066.88 95.072C1067.23 95.08 1067.54 95.084 1067.82 95.084C1068.1 95.092 1068.29 95.092 1068.39 95.084C1068.49 95.076 1068.56 95.052 1068.6 95.012C1068.64 94.98 1068.66 94.912 1068.66 94.808V85.04ZM1059.36 89.24H1061.2V89.9H1059.36V89.24ZM1059.16 87.272H1066.23V88.04H1059.16V87.272ZM1062.26 85.784L1063.11 85.652V95.9H1062.26V85.784ZM1059.17 91.172C1059.44 91.116 1059.75 91.052 1060.08 90.98C1060.43 90.9 1060.8 90.812 1061.19 90.716L1061.26 91.316C1060.93 91.412 1060.61 91.504 1060.29 91.592C1059.98 91.672 1059.67 91.756 1059.38 91.844L1059.17 91.172ZM1062.39 91.424L1063.04 91.664C1062.77 92.168 1062.45 92.668 1062.06 93.164C1061.69 93.652 1061.28 94.104 1060.85 94.52C1060.43 94.936 1060.01 95.284 1059.6 95.564C1059.56 95.492 1059.51 95.412 1059.44 95.324C1059.36 95.244 1059.29 95.164 1059.21 95.084C1059.14 95.004 1059.07 94.94 1059 94.892C1059.41 94.652 1059.83 94.348 1060.25 93.98C1060.68 93.604 1061.08 93.196 1061.45 92.756C1061.83 92.308 1062.14 91.864 1062.39 91.424ZM1065.52 88.964L1066.05 89.48C1065.78 89.656 1065.49 89.824 1065.16 89.984C1064.84 90.136 1064.54 90.264 1064.26 90.368C1064.24 90.296 1064.2 90.212 1064.15 90.116C1064.11 90.012 1064.07 89.928 1064.02 89.864C1064.29 89.736 1064.57 89.592 1064.85 89.432C1065.13 89.272 1065.35 89.116 1065.52 88.964ZM1065.04 84.968L1065.68 85.628C1065.3 85.748 1064.87 85.856 1064.39 85.952C1063.92 86.04 1063.42 86.12 1062.89 86.192C1062.36 86.256 1061.83 86.312 1061.3 86.36C1060.76 86.4 1060.24 86.428 1059.74 86.444C1059.72 86.348 1059.69 86.232 1059.64 86.096C1059.6 85.952 1059.55 85.832 1059.5 85.736C1059.98 85.704 1060.48 85.668 1061 85.628C1061.52 85.58 1062.03 85.524 1062.53 85.46C1063.04 85.396 1063.5 85.324 1063.92 85.244C1064.36 85.164 1064.73 85.072 1065.04 84.968ZM1063.79 88.376H1064.48V91.244C1064.48 91.356 1064.49 91.428 1064.51 91.46C1064.54 91.492 1064.61 91.508 1064.72 91.508C1064.75 91.508 1064.81 91.508 1064.9 91.508C1064.98 91.508 1065.07 91.508 1065.16 91.508C1065.26 91.508 1065.32 91.508 1065.36 91.508C1065.43 91.508 1065.48 91.492 1065.51 91.46C1065.54 91.42 1065.56 91.34 1065.58 91.22C1065.6 91.092 1065.62 90.904 1065.63 90.656C1065.69 90.712 1065.78 90.764 1065.89 90.812C1066.01 90.852 1066.12 90.884 1066.22 90.908C1066.18 91.38 1066.11 91.7 1066 91.868C1065.89 92.036 1065.71 92.12 1065.46 92.12C1065.41 92.12 1065.33 92.12 1065.21 92.12C1065.1 92.12 1064.98 92.12 1064.86 92.12C1064.75 92.12 1064.67 92.12 1064.62 92.12C1064.28 92.12 1064.06 92.06 1063.95 91.94C1063.84 91.82 1063.79 91.588 1063.79 91.244V88.376ZM1062.88 91.808C1063 91.88 1063.17 91.988 1063.38 92.132C1063.6 92.276 1063.84 92.44 1064.09 92.624C1064.36 92.8 1064.61 92.98 1064.86 93.164C1065.12 93.34 1065.34 93.504 1065.54 93.656C1065.75 93.808 1065.91 93.92 1066.01 93.992L1065.51 94.736C1065.39 94.624 1065.22 94.484 1065.02 94.316C1064.82 94.14 1064.6 93.956 1064.36 93.764C1064.12 93.572 1063.88 93.38 1063.64 93.188C1063.4 92.996 1063.17 92.82 1062.95 92.66C1062.74 92.5 1062.57 92.372 1062.42 92.276L1062.88 91.808Z" fill="#7DA4C1"/>
<defs>
<radialGradient id="paint0_radial_7001_17820" cx="0" cy="0" r="1" gradientUnits="userSpaceOnUse" gradientTransform="translate(1120 173) rotate(-131.698) scale(220.984 291.395)">
<stop stop-color="#C4FFF1"/>
<stop offset="0.625" stop-color="#A9D2B7" stop-opacity="0"/>
</radialGradient>
</defs>
</svg>
