<svg width="1120" height="298" viewBox="0 0 1120 298" fill="none" xmlns="http://www.w3.org/2000/svg">
<line x1="25" y1="180.5" x2="1120" y2="180.5" stroke="#CEE0ED"/>
<line x1="25" y1="94.5" x2="1120" y2="94.5001" stroke="#CEE0ED"/>
<line x1="25" y1="8.5" x2="1120" y2="8.50007" stroke="#CEE0ED"/>
<path d="M45.5145 45.804L45.0665 44.754L48.4265 43.144H49.2245V53H48.0205V44.642L45.5145 45.804ZM57.7719 53H56.5539V50.998H50.5619V50.186L56.6939 43.2H57.7719V49.864H59.5919V50.998H57.7719V53ZM56.5539 45.16L52.2419 49.864H56.5539V45.16ZM60.3741 52.202C60.3741 51.81 60.7381 51.418 61.2421 51.418C61.7041 51.418 62.0821 51.81 62.0821 52.202C62.0821 52.65 61.7321 53.028 61.2421 53.028C60.7381 53.028 60.3741 52.65 60.3741 52.202ZM67.1037 47.414H67.5377C68.1677 47.414 68.6857 47.26 69.1197 46.966C69.5397 46.672 69.7497 46.28 69.7497 45.818C69.7497 44.768 68.9237 44.236 67.2857 44.236C65.7177 44.236 64.8637 44.81 64.8637 45.818C64.8637 46.728 65.8017 47.414 67.1037 47.414ZM67.5097 48.52H67.1597C66.4037 48.52 65.7737 48.688 65.2837 49.01C64.7937 49.332 64.5417 49.738 64.5417 50.228C64.5417 51.292 65.5217 51.964 67.2997 51.964C69.1057 51.964 70.0717 51.32 70.0717 50.242C70.0717 49.164 69.0357 48.52 67.5097 48.52ZM70.2677 52.37C69.5537 52.874 68.5597 53.126 67.3137 53.126C66.0677 53.126 65.0737 52.874 64.3457 52.384C63.6177 51.894 63.2537 51.222 63.2537 50.354C63.2537 49.22 63.9957 48.324 65.1857 47.932C64.1077 47.582 63.5757 46.728 63.5757 45.734C63.5757 44.11 64.9477 43.074 67.2997 43.074C69.6657 43.074 71.0377 44.11 71.0377 45.734C71.0377 46.672 70.5197 47.386 69.4837 47.862C70.7297 48.24 71.3457 49.052 71.3457 50.298C71.3457 51.18 70.9817 51.88 70.2677 52.37Z" fill="#2A3C3C"/>
<path d="M45.5145 45.804L45.0665 44.754L48.4265 43.144H49.2245V53H48.0205V44.642L45.5145 45.804ZM57.7719 53H56.5539V50.998H50.5619V50.186L56.6939 43.2H57.7719V49.864H59.5919V50.998H57.7719V53ZM56.5539 45.16L52.2419 49.864H56.5539V45.16ZM60.3741 52.202C60.3741 51.81 60.7381 51.418 61.2421 51.418C61.7041 51.418 62.0821 51.81 62.0821 52.202C62.0821 52.65 61.7321 53.028 61.2421 53.028C60.7381 53.028 60.3741 52.65 60.3741 52.202ZM67.1037 47.414H67.5377C68.1677 47.414 68.6857 47.26 69.1197 46.966C69.5397 46.672 69.7497 46.28 69.7497 45.818C69.7497 44.768 68.9237 44.236 67.2857 44.236C65.7177 44.236 64.8637 44.81 64.8637 45.818C64.8637 46.728 65.8017 47.414 67.1037 47.414ZM67.5097 48.52H67.1597C66.4037 48.52 65.7737 48.688 65.2837 49.01C64.7937 49.332 64.5417 49.738 64.5417 50.228C64.5417 51.292 65.5217 51.964 67.2997 51.964C69.1057 51.964 70.0717 51.32 70.0717 50.242C70.0717 49.164 69.0357 48.52 67.5097 48.52ZM70.2677 52.37C69.5537 52.874 68.5597 53.126 67.3137 53.126C66.0677 53.126 65.0737 52.874 64.3457 52.384C63.6177 51.894 63.2537 51.222 63.2537 50.354C63.2537 49.22 63.9957 48.324 65.1857 47.932C64.1077 47.582 63.5757 46.728 63.5757 45.734C63.5757 44.11 64.9477 43.074 67.2997 43.074C69.6657 43.074 71.0377 44.11 71.0377 45.734C71.0377 46.672 70.5197 47.386 69.4837 47.862C70.7297 48.24 71.3457 49.052 71.3457 50.298C71.3457 51.18 70.9817 51.88 70.2677 52.37Z" fill="#1A3341"/>
<path d="M46.576 277.84H57.472V278.812H46.576V277.84ZM61.276 279.328H66.892V277.312H61.408C61.408 277.936 61.372 278.62 61.276 279.328ZM66.892 274.468H61.408V276.46H66.892V274.468ZM67.816 273.592V282.616C67.816 283.24 67.636 283.552 67.192 283.696C66.736 283.852 65.944 283.864 64.66 283.864C64.6 283.612 64.432 283.192 64.288 282.94C65.284 282.976 66.244 282.964 66.52 282.964C66.796 282.952 66.892 282.868 66.892 282.604V280.204H61.132C60.832 281.56 60.232 282.916 59.068 283.936C58.948 283.744 58.588 283.42 58.408 283.288C60.316 281.608 60.508 279.172 60.508 277.264V273.592H67.816ZM52.1283 291.372L51.2523 291.06C51.5523 289.572 52.6803 288.504 54.4683 288.504C56.1963 288.504 57.2523 289.5 57.2523 291.024C57.2523 291.828 56.9043 292.632 56.4723 293.208C56.2563 293.508 55.9803 293.796 55.6563 294.096C54.9963 294.684 54.5283 294.996 53.8443 295.428L52.9203 296.004H57.5643V297H51.0243V296.184L52.8483 294.972C53.1723 294.768 53.4003 294.612 53.5323 294.516C53.6643 294.432 53.8803 294.276 54.1683 294.072C54.4563 293.868 54.6723 293.688 54.8163 293.556C54.9483 293.424 55.1283 293.256 55.3323 293.04C55.8843 292.44 56.0883 291.888 56.1483 291.132C56.1483 290.04 55.4403 289.548 54.3963 289.548C53.7483 289.548 53.2323 289.728 52.8603 290.088C52.4883 290.448 52.2363 290.88 52.1283 291.372ZM59.476 291.372L58.6 291.06C58.9 289.572 60.028 288.504 61.816 288.504C63.544 288.504 64.6 289.5 64.6 291.024C64.6 291.828 64.252 292.632 63.82 293.208C63.604 293.508 63.328 293.796 63.004 294.096C62.344 294.684 61.876 294.996 61.192 295.428L60.268 296.004H64.912V297H58.372V296.184L60.196 294.972C60.52 294.768 60.748 294.612 60.88 294.516C61.012 294.432 61.228 294.276 61.516 294.072C61.804 293.868 62.02 293.688 62.164 293.556C62.296 293.424 62.476 293.256 62.68 293.04C63.232 292.44 63.436 291.888 63.496 291.132C63.496 290.04 62.788 289.548 61.744 289.548C61.096 289.548 60.58 289.728 60.208 290.088C59.836 290.448 59.584 290.88 59.476 291.372Z" fill="#76848D"/>
<path d="M91.9314 167.804L91.4834 166.754L94.8434 165.144H95.6414V175H94.4374V166.642L91.9314 167.804ZM98.5469 168.434L97.5249 168.07C97.8749 166.334 99.1909 165.088 101.277 165.088C103.293 165.088 104.525 166.25 104.525 168.028C104.525 168.966 104.119 169.904 103.615 170.576C103.363 170.926 103.041 171.262 102.663 171.612C101.893 172.298 101.347 172.662 100.549 173.166L99.4709 173.838H104.889V175H97.2589V174.048L99.3869 172.634C99.7649 172.396 100.031 172.214 100.185 172.102C100.339 172.004 100.591 171.822 100.927 171.584C101.263 171.346 101.515 171.136 101.683 170.982C101.837 170.828 102.047 170.632 102.285 170.38C102.929 169.68 103.167 169.036 103.237 168.154C103.237 166.88 102.411 166.306 101.193 166.306C100.437 166.306 99.8349 166.516 99.4009 166.936C98.9669 167.356 98.6729 167.86 98.5469 168.434ZM105.957 174.202C105.957 173.81 106.321 173.418 106.825 173.418C107.287 173.418 107.665 173.81 107.665 174.202C107.665 174.65 107.315 175.028 106.825 175.028C106.321 175.028 105.957 174.65 105.957 174.202ZM112.687 169.414H113.121C113.751 169.414 114.269 169.26 114.703 168.966C115.123 168.672 115.333 168.28 115.333 167.818C115.333 166.768 114.507 166.236 112.869 166.236C111.301 166.236 110.447 166.81 110.447 167.818C110.447 168.728 111.385 169.414 112.687 169.414ZM113.093 170.52H112.743C111.987 170.52 111.357 170.688 110.867 171.01C110.377 171.332 110.125 171.738 110.125 172.228C110.125 173.292 111.105 173.964 112.883 173.964C114.689 173.964 115.655 173.32 115.655 172.242C115.655 171.164 114.619 170.52 113.093 170.52ZM115.851 174.37C115.137 174.874 114.143 175.126 112.897 175.126C111.651 175.126 110.657 174.874 109.929 174.384C109.201 173.894 108.837 173.222 108.837 172.354C108.837 171.22 109.579 170.324 110.769 169.932C109.691 169.582 109.159 168.728 109.159 167.734C109.159 166.11 110.531 165.074 112.883 165.074C115.249 165.074 116.621 166.11 116.621 167.734C116.621 168.672 116.103 169.386 115.067 169.862C116.313 170.24 116.929 171.052 116.929 172.298C116.929 173.18 116.565 173.88 115.851 174.37Z" fill="#2A3C3C"/>
<path d="M91.9314 167.804L91.4834 166.754L94.8434 165.144H95.6414V175H94.4374V166.642L91.9314 167.804ZM98.5469 168.434L97.5249 168.07C97.8749 166.334 99.1909 165.088 101.277 165.088C103.293 165.088 104.525 166.25 104.525 168.028C104.525 168.966 104.119 169.904 103.615 170.576C103.363 170.926 103.041 171.262 102.663 171.612C101.893 172.298 101.347 172.662 100.549 173.166L99.4709 173.838H104.889V175H97.2589V174.048L99.3869 172.634C99.7649 172.396 100.031 172.214 100.185 172.102C100.339 172.004 100.591 171.822 100.927 171.584C101.263 171.346 101.515 171.136 101.683 170.982C101.837 170.828 102.047 170.632 102.285 170.38C102.929 169.68 103.167 169.036 103.237 168.154C103.237 166.88 102.411 166.306 101.193 166.306C100.437 166.306 99.8349 166.516 99.4009 166.936C98.9669 167.356 98.6729 167.86 98.5469 168.434ZM105.957 174.202C105.957 173.81 106.321 173.418 106.825 173.418C107.287 173.418 107.665 173.81 107.665 174.202C107.665 174.65 107.315 175.028 106.825 175.028C106.321 175.028 105.957 174.65 105.957 174.202ZM112.687 169.414H113.121C113.751 169.414 114.269 169.26 114.703 168.966C115.123 168.672 115.333 168.28 115.333 167.818C115.333 166.768 114.507 166.236 112.869 166.236C111.301 166.236 110.447 166.81 110.447 167.818C110.447 168.728 111.385 169.414 112.687 169.414ZM113.093 170.52H112.743C111.987 170.52 111.357 170.688 110.867 171.01C110.377 171.332 110.125 171.738 110.125 172.228C110.125 173.292 111.105 173.964 112.883 173.964C114.689 173.964 115.655 173.32 115.655 172.242C115.655 171.164 114.619 170.52 113.093 170.52ZM115.851 174.37C115.137 174.874 114.143 175.126 112.897 175.126C111.651 175.126 110.657 174.874 109.929 174.384C109.201 173.894 108.837 173.222 108.837 172.354C108.837 171.22 109.579 170.324 110.769 169.932C109.691 169.582 109.159 168.728 109.159 167.734C109.159 166.11 110.531 165.074 112.883 165.074C115.249 165.074 116.621 166.11 116.621 167.734C116.621 168.672 116.103 169.386 115.067 169.862C116.313 170.24 116.929 171.052 116.929 172.298C116.929 173.18 116.565 173.88 115.851 174.37Z" fill="#1A3341"/>
<path d="M93.692 274.648H102.308V275.608H93.692V274.648ZM92.672 281.764H103.328V282.772H92.672V281.764ZM107.036 273.556H113.3V274.432H107.036V273.556ZM107.036 276.448H113.348V277.312H107.036V276.448ZM106.94 279.352H113.288V280.216H106.94V279.352ZM106.484 273.556H107.396V277.264C107.396 279.34 107.096 282.172 105.032 283.972C104.9 283.78 104.54 283.456 104.348 283.324C106.28 281.632 106.484 279.196 106.484 277.264V273.556ZM112.904 273.556H113.84V282.64C113.84 283.276 113.672 283.588 113.216 283.744C112.748 283.9 111.956 283.912 110.66 283.912C110.6 283.648 110.432 283.216 110.276 282.964C111.272 283 112.256 282.988 112.532 282.988C112.808 282.976 112.904 282.892 112.904 282.628V273.556Z" fill="#76848D"/>
<path d="M137.698 23.804L137.25 22.754L140.61 21.144H141.408V31H140.204V22.642L137.698 23.804ZM144.621 26.492L143.613 26.226L144.187 21.2H150.347V22.39H145.265L144.901 25.022C145.391 24.658 146.133 24.476 147.127 24.476C148.275 24.476 149.171 24.784 149.829 25.386C150.473 26.002 150.795 26.786 150.795 27.752C150.795 28.718 150.431 29.53 149.717 30.16C148.989 30.804 148.079 31.126 147.001 31.126C145.167 31.126 143.641 30.258 143.011 28.732L144.131 28.256C144.537 29.194 145.587 29.936 147.001 29.936C148.611 29.936 149.507 29.012 149.507 27.794C149.507 26.492 148.457 25.652 146.791 25.652C145.895 25.652 145.167 25.932 144.621 26.492ZM151.956 30.202C151.956 29.81 152.32 29.418 152.824 29.418C153.286 29.418 153.664 29.81 153.664 30.202C153.664 30.65 153.314 31.028 152.824 31.028C152.32 31.028 151.956 30.65 151.956 30.202ZM155.942 24.434L154.92 24.07C155.27 22.334 156.586 21.088 158.672 21.088C160.688 21.088 161.92 22.25 161.92 24.028C161.92 24.966 161.514 25.904 161.01 26.576C160.758 26.926 160.436 27.262 160.058 27.612C159.288 28.298 158.742 28.662 157.944 29.166L156.866 29.838H162.284V31H154.654V30.048L156.782 28.634C157.16 28.396 157.426 28.214 157.58 28.102C157.734 28.004 157.986 27.822 158.322 27.584C158.658 27.346 158.91 27.136 159.078 26.982C159.232 26.828 159.442 26.632 159.68 26.38C160.324 25.68 160.562 25.036 160.632 24.154C160.632 22.88 159.806 22.306 158.588 22.306C157.832 22.306 157.23 22.516 156.796 22.936C156.362 23.356 156.068 23.86 155.942 24.434Z" fill="#2A3C3C"/>
<path d="M137.698 23.804L137.25 22.754L140.61 21.144H141.408V31H140.204V22.642L137.698 23.804ZM144.621 26.492L143.613 26.226L144.187 21.2H150.347V22.39H145.265L144.901 25.022C145.391 24.658 146.133 24.476 147.127 24.476C148.275 24.476 149.171 24.784 149.829 25.386C150.473 26.002 150.795 26.786 150.795 27.752C150.795 28.718 150.431 29.53 149.717 30.16C148.989 30.804 148.079 31.126 147.001 31.126C145.167 31.126 143.641 30.258 143.011 28.732L144.131 28.256C144.537 29.194 145.587 29.936 147.001 29.936C148.611 29.936 149.507 29.012 149.507 27.794C149.507 26.492 148.457 25.652 146.791 25.652C145.895 25.652 145.167 25.932 144.621 26.492ZM151.956 30.202C151.956 29.81 152.32 29.418 152.824 29.418C153.286 29.418 153.664 29.81 153.664 30.202C153.664 30.65 153.314 31.028 152.824 31.028C152.32 31.028 151.956 30.65 151.956 30.202ZM155.942 24.434L154.92 24.07C155.27 22.334 156.586 21.088 158.672 21.088C160.688 21.088 161.92 22.25 161.92 24.028C161.92 24.966 161.514 25.904 161.01 26.576C160.758 26.926 160.436 27.262 160.058 27.612C159.288 28.298 158.742 28.662 157.944 29.166L156.866 29.838H162.284V31H154.654V30.048L156.782 28.634C157.16 28.396 157.426 28.214 157.58 28.102C157.734 28.004 157.986 27.822 158.322 27.584C158.658 27.346 158.91 27.136 159.078 26.982C159.232 26.828 159.442 26.632 159.68 26.38C160.324 25.68 160.562 25.036 160.632 24.154C160.632 22.88 159.806 22.306 158.588 22.306C157.832 22.306 157.23 22.516 156.796 22.936C156.362 23.356 156.068 23.86 155.942 24.434Z" fill="#1A3341"/>
<path d="M139.476 274.096H148.548V274.996H139.476V274.096ZM140.244 278.02H147.6V278.92H140.244V278.02ZM138.78 282.184H149.196V283.096H138.78V282.184ZM153.036 273.556H159.3V274.432H153.036V273.556ZM153.036 276.448H159.348V277.312H153.036V276.448ZM152.94 279.352H159.288V280.216H152.94V279.352ZM152.484 273.556H153.396V277.264C153.396 279.34 153.096 282.172 151.032 283.972C150.9 283.78 150.54 283.456 150.348 283.324C152.28 281.632 152.484 279.196 152.484 277.264V273.556ZM158.904 273.556H159.84V282.64C159.84 283.276 159.672 283.588 159.216 283.744C158.748 283.9 157.956 283.912 156.66 283.912C156.6 283.648 156.432 283.216 156.276 282.964C157.272 283 158.256 282.988 158.532 282.988C158.808 282.976 158.904 282.892 158.904 282.628V273.556Z" fill="#76848D"/>
<path d="M183.781 94.804L183.333 93.754L186.693 92.144H187.491V102H186.287V93.642L183.781 94.804ZM196.038 102H194.82V99.998H188.828V99.186L194.96 92.2H196.038V98.864H197.858V99.998H196.038V102ZM194.82 94.16L190.508 98.864H194.82V94.16ZM198.641 101.202C198.641 100.81 199.005 100.418 199.509 100.418C199.971 100.418 200.349 100.81 200.349 101.202C200.349 101.65 199.999 102.028 199.509 102.028C199.005 102.028 198.641 101.65 198.641 101.202ZM202.934 97.492L201.926 97.226L202.5 92.2H208.66V93.39H203.578L203.214 96.022C203.704 95.658 204.446 95.476 205.44 95.476C206.588 95.476 207.484 95.784 208.142 96.386C208.786 97.002 209.108 97.786 209.108 98.752C209.108 99.718 208.744 100.53 208.03 101.16C207.302 101.804 206.392 102.126 205.314 102.126C203.48 102.126 201.954 101.258 201.324 99.732L202.444 99.256C202.85 100.194 203.9 100.936 205.314 100.936C206.924 100.936 207.82 100.012 207.82 98.794C207.82 97.492 206.77 96.652 205.104 96.652C204.208 96.652 203.48 96.932 202.934 97.492Z" fill="#2A3C3C"/>
<path d="M183.781 94.804L183.333 93.754L186.693 92.144H187.491V102H186.287V93.642L183.781 94.804ZM196.038 102H194.82V99.998H188.828V99.186L194.96 92.2H196.038V98.864H197.858V99.998H196.038V102ZM194.82 94.16L190.508 98.864H194.82V94.16ZM198.641 101.202C198.641 100.81 199.005 100.418 199.509 100.418C199.971 100.418 200.349 100.81 200.349 101.202C200.349 101.65 199.999 102.028 199.509 102.028C199.005 102.028 198.641 101.65 198.641 101.202ZM202.934 97.492L201.926 97.226L202.5 92.2H208.66V93.39H203.578L203.214 96.022C203.704 95.658 204.446 95.476 205.44 95.476C206.588 95.476 207.484 95.784 208.142 96.386C208.786 97.002 209.108 97.786 209.108 98.752C209.108 99.718 208.744 100.53 208.03 101.16C207.302 101.804 206.392 102.126 205.314 102.126C203.48 102.126 201.954 101.258 201.324 99.732L202.444 99.256C202.85 100.194 203.9 100.936 205.314 100.936C206.924 100.936 207.82 100.012 207.82 98.794C207.82 97.492 206.77 96.652 205.104 96.652C204.208 96.652 203.48 96.932 202.934 97.492Z" fill="#1A3341"/>
<path d="M185.056 273.976H194.908V283.468H193.972V274.84H185.956V283.564H185.056V273.976ZM185.536 281.788H194.5V282.664H185.536V281.788ZM188.212 274.516H189.1C189.04 277.96 188.8 279.844 186.652 280.888C186.556 280.672 186.292 280.348 186.1 280.192C188.02 279.28 188.176 277.684 188.212 274.516ZM190.78 274.672H191.632V278.62C191.632 279.016 191.68 279.148 191.932 279.148C192.124 279.148 192.904 279.148 193.096 279.148C193.288 279.148 193.624 279.136 193.792 279.1C193.804 279.34 193.828 279.64 193.864 279.868C193.708 279.916 193.408 279.916 193.12 279.916C192.892 279.916 192.004 279.916 191.812 279.916C190.972 279.916 190.78 279.532 190.78 278.596V274.672ZM199.036 273.556H205.3V274.432H199.036V273.556ZM199.036 276.448H205.348V277.312H199.036V276.448ZM198.94 279.352H205.288V280.216H198.94V279.352ZM198.484 273.556H199.396V277.264C199.396 279.34 199.096 282.172 197.032 283.972C196.9 283.78 196.54 283.456 196.348 283.324C198.28 281.632 198.484 279.196 198.484 277.264V273.556ZM204.904 273.556H205.84V282.64C205.84 283.276 205.672 283.588 205.216 283.744C204.748 283.9 203.956 283.912 202.66 283.912C202.6 283.648 202.432 283.216 202.276 282.964C203.272 283 204.256 282.988 204.532 282.988C204.808 282.976 204.904 282.892 204.904 282.628V273.556Z" fill="#76848D"/>
<path d="M228.829 2.804L228.381 1.754L231.741 0.143999H232.539V10H231.335V1.642L228.829 2.804ZM235.752 5.492L234.744 5.226L235.318 0.199999H241.478V1.39H236.396L236.032 4.022C236.522 3.658 237.264 3.476 238.258 3.476C239.406 3.476 240.302 3.784 240.96 4.386C241.604 5.002 241.926 5.786 241.926 6.752C241.926 7.718 241.562 8.53 240.848 9.16C240.12 9.804 239.21 10.126 238.132 10.126C236.298 10.126 234.772 9.258 234.142 7.732L235.262 7.256C235.668 8.194 236.718 8.936 238.132 8.936C239.742 8.936 240.638 8.012 240.638 6.794C240.638 5.492 239.588 4.652 237.922 4.652C237.026 4.652 236.298 4.932 235.752 5.492ZM243.087 9.202C243.087 8.81 243.451 8.418 243.955 8.418C244.417 8.418 244.795 8.81 244.795 9.202C244.795 9.65 244.445 10.028 243.955 10.028C243.451 10.028 243.087 9.65 243.087 9.202ZM245.953 5.366C245.953 3.672 246.373 2.37 247.199 1.446C248.025 0.535999 249.061 0.0739993 250.307 0.0739993C251.945 0.0739993 253.233 0.816 253.779 1.992L252.827 2.636C252.253 1.726 251.399 1.278 250.251 1.278C249.383 1.278 248.655 1.614 248.067 2.286C247.479 2.972 247.185 3.896 247.199 5.086C247.745 4.064 249.019 3.448 250.419 3.448C251.553 3.448 252.463 3.742 253.121 4.344C253.779 4.946 254.115 5.744 254.115 6.724C254.115 7.718 253.751 8.544 253.009 9.174C252.267 9.804 251.343 10.126 250.237 10.126C247.591 10.126 245.953 8.404 245.953 5.366ZM247.353 6.556C247.619 7.942 248.669 8.922 250.223 8.922C250.979 8.922 251.609 8.726 252.099 8.32C252.589 7.928 252.827 7.41 252.827 6.78C252.827 5.394 251.847 4.652 250.349 4.652C249.523 4.652 248.837 4.848 248.305 5.24C247.759 5.632 247.451 6.066 247.353 6.556Z" fill="#2A3C3C"/>
<path d="M228.829 2.804L228.381 1.754L231.741 0.143999H232.539V10H231.335V1.642L228.829 2.804ZM235.752 5.492L234.744 5.226L235.318 0.199999H241.478V1.39H236.396L236.032 4.022C236.522 3.658 237.264 3.476 238.258 3.476C239.406 3.476 240.302 3.784 240.96 4.386C241.604 5.002 241.926 5.786 241.926 6.752C241.926 7.718 241.562 8.53 240.848 9.16C240.12 9.804 239.21 10.126 238.132 10.126C236.298 10.126 234.772 9.258 234.142 7.732L235.262 7.256C235.668 8.194 236.718 8.936 238.132 8.936C239.742 8.936 240.638 8.012 240.638 6.794C240.638 5.492 239.588 4.652 237.922 4.652C237.026 4.652 236.298 4.932 235.752 5.492ZM243.087 9.202C243.087 8.81 243.451 8.418 243.955 8.418C244.417 8.418 244.795 8.81 244.795 9.202C244.795 9.65 244.445 10.028 243.955 10.028C243.451 10.028 243.087 9.65 243.087 9.202ZM245.953 5.366C245.953 3.672 246.373 2.37 247.199 1.446C248.025 0.535999 249.061 0.0739993 250.307 0.0739993C251.945 0.0739993 253.233 0.816 253.779 1.992L252.827 2.636C252.253 1.726 251.399 1.278 250.251 1.278C249.383 1.278 248.655 1.614 248.067 2.286C247.479 2.972 247.185 3.896 247.199 5.086C247.745 4.064 249.019 3.448 250.419 3.448C251.553 3.448 252.463 3.742 253.121 4.344C253.779 4.946 254.115 5.744 254.115 6.724C254.115 7.718 253.751 8.544 253.009 9.174C252.267 9.804 251.343 10.126 250.237 10.126C247.591 10.126 245.953 8.404 245.953 5.366ZM247.353 6.556C247.619 7.942 248.669 8.922 250.223 8.922C250.979 8.922 251.609 8.726 252.099 8.32C252.589 7.928 252.827 7.41 252.827 6.78C252.827 5.394 251.847 4.652 250.349 4.652C249.523 4.652 248.837 4.848 248.305 5.24C247.759 5.632 247.451 6.066 247.353 6.556Z" fill="#1A3341"/>
<path d="M230.928 274.096H240V274.984H230.928V274.096ZM230.172 282.412H240.852V283.312H230.172V282.412ZM234.444 274.408H235.44C235.044 277.144 234.432 280.84 233.988 282.928H233.004C233.484 280.78 234.108 277.072 234.444 274.408ZM231.588 277.588H238.224V278.464H231.588V277.588ZM237.876 277.588H237.984L238.14 277.552L238.836 277.612C238.752 279.112 238.536 281.344 238.32 283.012L237.396 282.94C237.6 281.272 237.804 278.896 237.876 277.708V277.588ZM244.536 273.556H250.8V274.432H244.536V273.556ZM244.536 276.448H250.848V277.312H244.536V276.448ZM244.44 279.352H250.788V280.216H244.44V279.352ZM243.984 273.556H244.896V277.264C244.896 279.34 244.596 282.172 242.532 283.972C242.4 283.78 242.04 283.456 241.848 283.324C243.78 281.632 243.984 279.196 243.984 277.264V273.556ZM250.404 273.556H251.34V282.64C251.34 283.276 251.172 283.588 250.716 283.744C250.248 283.9 249.456 283.912 248.16 283.912C248.1 283.648 247.932 283.216 247.776 282.964C248.772 283 249.756 282.988 250.032 282.988C250.308 282.976 250.404 282.892 250.404 282.628V273.556Z" fill="#76848D"/>
<path d="M274.664 16.804L274.216 15.754L277.576 14.144H278.374V24H277.17V15.642L274.664 16.804ZM281.587 19.492L280.579 19.226L281.153 14.2H287.313V15.39H282.231L281.867 18.022C282.357 17.658 283.099 17.476 284.093 17.476C285.241 17.476 286.137 17.784 286.795 18.386C287.439 19.002 287.761 19.786 287.761 20.752C287.761 21.718 287.397 22.53 286.683 23.16C285.955 23.804 285.045 24.126 283.967 24.126C282.133 24.126 280.607 23.258 279.977 21.732L281.097 21.256C281.503 22.194 282.553 22.936 283.967 22.936C285.577 22.936 286.473 22.012 286.473 20.794C286.473 19.492 285.423 18.652 283.757 18.652C282.861 18.652 282.133 18.932 281.587 19.492ZM288.922 23.202C288.922 22.81 289.286 22.418 289.79 22.418C290.252 22.418 290.63 22.81 290.63 23.202C290.63 23.65 290.28 24.028 289.79 24.028C289.286 24.028 288.922 23.65 288.922 23.202ZM292.754 17.056L291.704 16.58C292.222 15.068 293.58 14.074 295.61 14.074C296.576 14.074 297.374 14.298 297.99 14.746C298.606 15.194 298.914 15.796 298.914 16.538C298.914 17.672 298.312 18.512 297.192 18.834C298.27 18.904 299.138 19.716 299.138 21.172C299.138 22.096 298.802 22.824 298.13 23.342C297.458 23.86 296.604 24.126 295.554 24.126C293.412 24.126 291.928 23.104 291.438 21.494L292.572 21.004C293.174 22.278 294.196 22.922 295.638 22.922C296.996 22.922 297.85 22.292 297.85 21.186C297.85 20.108 297.01 19.562 295.33 19.562H294.238V18.4H295.106C296.632 18.4 297.626 17.714 297.626 16.776C297.626 15.81 296.828 15.264 295.554 15.264C294.056 15.264 293.146 16.034 292.754 17.056Z" fill="#2A3C3C"/>
<path d="M274.664 16.804L274.216 15.754L277.576 14.144H278.374V24H277.17V15.642L274.664 16.804ZM281.587 19.492L280.579 19.226L281.153 14.2H287.313V15.39H282.231L281.867 18.022C282.357 17.658 283.099 17.476 284.093 17.476C285.241 17.476 286.137 17.784 286.795 18.386C287.439 19.002 287.761 19.786 287.761 20.752C287.761 21.718 287.397 22.53 286.683 23.16C285.955 23.804 285.045 24.126 283.967 24.126C282.133 24.126 280.607 23.258 279.977 21.732L281.097 21.256C281.503 22.194 282.553 22.936 283.967 22.936C285.577 22.936 286.473 22.012 286.473 20.794C286.473 19.492 285.423 18.652 283.757 18.652C282.861 18.652 282.133 18.932 281.587 19.492ZM288.922 23.202C288.922 22.81 289.286 22.418 289.79 22.418C290.252 22.418 290.63 22.81 290.63 23.202C290.63 23.65 290.28 24.028 289.79 24.028C289.286 24.028 288.922 23.65 288.922 23.202ZM292.754 17.056L291.704 16.58C292.222 15.068 293.58 14.074 295.61 14.074C296.576 14.074 297.374 14.298 297.99 14.746C298.606 15.194 298.914 15.796 298.914 16.538C298.914 17.672 298.312 18.512 297.192 18.834C298.27 18.904 299.138 19.716 299.138 21.172C299.138 22.096 298.802 22.824 298.13 23.342C297.458 23.86 296.604 24.126 295.554 24.126C293.412 24.126 291.928 23.104 291.438 21.494L292.572 21.004C293.174 22.278 294.196 22.922 295.638 22.922C296.996 22.922 297.85 22.292 297.85 21.186C297.85 20.108 297.01 19.562 295.33 19.562H294.238V18.4H295.106C296.632 18.4 297.626 17.714 297.626 16.776C297.626 15.81 296.828 15.264 295.554 15.264C294.056 15.264 293.146 16.034 292.754 17.056Z" fill="#1A3341"/>
<path d="M276.184 276.1H286.84V277.024H276.184V276.1ZM279.196 278.416L280.18 278.74C279.292 280.6 278.032 282.592 276.916 283.888C276.712 283.72 276.268 283.42 276.016 283.264C277.168 282.064 278.404 280.168 279.196 278.416ZM282.748 278.728L283.588 278.332C284.716 279.904 286.192 282.028 286.9 283.3L285.976 283.816C285.316 282.544 283.876 280.348 282.748 278.728ZM280.372 273.28L281.296 272.98C281.704 273.772 282.22 274.828 282.472 275.452L281.488 275.836C281.272 275.2 280.78 274.108 280.372 273.28ZM290.536 273.556H296.8V274.432H290.536V273.556ZM290.536 276.448H296.848V277.312H290.536V276.448ZM290.44 279.352H296.788V280.216H290.44V279.352ZM289.984 273.556H290.896V277.264C290.896 279.34 290.596 282.172 288.532 283.972C288.4 283.78 288.04 283.456 287.848 283.324C289.78 281.632 289.984 279.196 289.984 277.264V273.556ZM296.404 273.556H297.34V282.64C297.34 283.276 297.172 283.588 296.716 283.744C296.248 283.9 295.456 283.912 294.16 283.912C294.1 283.648 293.932 283.216 293.776 282.964C294.772 283 295.756 282.988 296.032 282.988C296.308 282.976 296.404 282.892 296.404 282.628V273.556Z" fill="#76848D"/>
<path d="M321.722 27.804L321.274 26.754L324.634 25.144H325.432V35H324.228V26.642L321.722 27.804ZM328.646 30.492L327.638 30.226L328.212 25.2H334.372V26.39H329.29L328.926 29.022C329.416 28.658 330.158 28.476 331.152 28.476C332.3 28.476 333.196 28.784 333.854 29.386C334.498 30.002 334.82 30.786 334.82 31.752C334.82 32.718 334.456 33.53 333.742 34.16C333.014 34.804 332.104 35.126 331.026 35.126C329.192 35.126 327.666 34.258 327.036 32.732L328.156 32.256C328.562 33.194 329.612 33.936 331.026 33.936C332.636 33.936 333.532 33.012 333.532 31.794C333.532 30.492 332.482 29.652 330.816 29.652C329.92 29.652 329.192 29.932 328.646 30.492ZM335.981 34.202C335.981 33.81 336.345 33.418 336.849 33.418C337.311 33.418 337.689 33.81 337.689 34.202C337.689 34.65 337.339 35.028 336.849 35.028C336.345 35.028 335.981 34.65 335.981 34.202ZM338.734 27.804L338.286 26.754L341.646 25.144H342.444V35H341.24V26.642L338.734 27.804Z" fill="#2A3C3C"/>
<path d="M321.722 27.804L321.274 26.754L324.634 25.144H325.432V35H324.228V26.642L321.722 27.804ZM328.646 30.492L327.638 30.226L328.212 25.2H334.372V26.39H329.29L328.926 29.022C329.416 28.658 330.158 28.476 331.152 28.476C332.3 28.476 333.196 28.784 333.854 29.386C334.498 30.002 334.82 30.786 334.82 31.752C334.82 32.718 334.456 33.53 333.742 34.16C333.014 34.804 332.104 35.126 331.026 35.126C329.192 35.126 327.666 34.258 327.036 32.732L328.156 32.256C328.562 33.194 329.612 33.936 331.026 33.936C332.636 33.936 333.532 33.012 333.532 31.794C333.532 30.492 332.482 29.652 330.816 29.652C329.92 29.652 329.192 29.932 328.646 30.492ZM335.981 34.202C335.981 33.81 336.345 33.418 336.849 33.418C337.311 33.418 337.689 33.81 337.689 34.202C337.689 34.65 337.339 35.028 336.849 35.028C336.345 35.028 335.981 34.65 335.981 34.202ZM338.734 27.804L338.286 26.754L341.646 25.144H342.444V35H341.24V26.642L338.734 27.804Z" fill="#1A3341"/>
<path d="M320.588 277.708L331.292 275.98L331.448 276.904L320.732 278.608L320.588 277.708ZM324.056 273.136H325.016V281.728C325.016 282.472 325.172 282.652 326.036 282.652C326.468 282.652 328.604 282.652 329.12 282.652C329.924 282.652 330.044 282.22 330.164 280.432C330.404 280.612 330.824 280.792 331.076 280.864C330.932 282.856 330.632 283.54 329.144 283.54C328.796 283.54 326.336 283.54 326 283.54C324.512 283.54 324.056 283.168 324.056 281.716V273.136ZM335.036 273.556H341.3V274.432H335.036V273.556ZM335.036 276.448H341.348V277.312H335.036V276.448ZM334.94 279.352H341.288V280.216H334.94V279.352ZM334.484 273.556H335.396V277.264C335.396 279.34 335.096 282.172 333.032 283.972C332.9 283.78 332.54 283.456 332.348 283.324C334.28 281.632 334.484 279.196 334.484 277.264V273.556ZM340.904 273.556H341.84V282.64C341.84 283.276 341.672 283.588 341.216 283.744C340.748 283.9 339.956 283.912 338.66 283.912C338.6 283.648 338.432 283.216 338.276 282.964C339.272 283 340.256 282.988 340.532 282.988C340.808 282.976 340.904 282.892 340.904 282.628V273.556Z" fill="#76848D"/>
<path d="M362.514 45.804L362.066 44.754L365.426 43.144H366.224V53H365.02V44.642L362.514 45.804ZM374.772 53H373.554V50.998H367.562V50.186L373.694 43.2H374.772V49.864H376.592V50.998H374.772V53ZM373.554 45.16L369.242 49.864H373.554V45.16ZM377.374 52.202C377.374 51.81 377.738 51.418 378.242 51.418C378.704 51.418 379.082 51.81 379.082 52.202C379.082 52.65 378.732 53.028 378.242 53.028C377.738 53.028 377.374 52.65 377.374 52.202ZM384.104 47.414H384.538C385.168 47.414 385.686 47.26 386.12 46.966C386.54 46.672 386.75 46.28 386.75 45.818C386.75 44.768 385.924 44.236 384.286 44.236C382.718 44.236 381.864 44.81 381.864 45.818C381.864 46.728 382.802 47.414 384.104 47.414ZM384.51 48.52H384.16C383.404 48.52 382.774 48.688 382.284 49.01C381.794 49.332 381.542 49.738 381.542 50.228C381.542 51.292 382.522 51.964 384.3 51.964C386.106 51.964 387.072 51.32 387.072 50.242C387.072 49.164 386.036 48.52 384.51 48.52ZM387.268 52.37C386.554 52.874 385.56 53.126 384.314 53.126C383.068 53.126 382.074 52.874 381.346 52.384C380.618 51.894 380.254 51.222 380.254 50.354C380.254 49.22 380.996 48.324 382.186 47.932C381.108 47.582 380.576 46.728 380.576 45.734C380.576 44.11 381.948 43.074 384.3 43.074C386.666 43.074 388.038 44.11 388.038 45.734C388.038 46.672 387.52 47.386 386.484 47.862C387.73 48.24 388.346 49.052 388.346 50.298C388.346 51.18 387.982 51.88 387.268 52.37Z" fill="#2A3C3C"/>
<path d="M362.514 45.804L362.066 44.754L365.426 43.144H366.224V53H365.02V44.642L362.514 45.804ZM374.772 53H373.554V50.998H367.562V50.186L373.694 43.2H374.772V49.864H376.592V50.998H374.772V53ZM373.554 45.16L369.242 49.864H373.554V45.16ZM377.374 52.202C377.374 51.81 377.738 51.418 378.242 51.418C378.704 51.418 379.082 51.81 379.082 52.202C379.082 52.65 378.732 53.028 378.242 53.028C377.738 53.028 377.374 52.65 377.374 52.202ZM384.104 47.414H384.538C385.168 47.414 385.686 47.26 386.12 46.966C386.54 46.672 386.75 46.28 386.75 45.818C386.75 44.768 385.924 44.236 384.286 44.236C382.718 44.236 381.864 44.81 381.864 45.818C381.864 46.728 382.802 47.414 384.104 47.414ZM384.51 48.52H384.16C383.404 48.52 382.774 48.688 382.284 49.01C381.794 49.332 381.542 49.738 381.542 50.228C381.542 51.292 382.522 51.964 384.3 51.964C386.106 51.964 387.072 51.32 387.072 50.242C387.072 49.164 386.036 48.52 384.51 48.52ZM387.268 52.37C386.554 52.874 385.56 53.126 384.314 53.126C383.068 53.126 382.074 52.874 381.346 52.384C380.618 51.894 380.254 51.222 380.254 50.354C380.254 49.22 380.996 48.324 382.186 47.932C381.108 47.582 380.576 46.728 380.576 45.734C380.576 44.11 381.948 43.074 384.3 43.074C386.666 43.074 388.038 44.11 388.038 45.734C388.038 46.672 387.52 47.386 386.484 47.862C387.73 48.24 388.346 49.052 388.346 50.298C388.346 51.18 387.982 51.88 387.268 52.37Z" fill="#1A3341"/>
<path d="M366.648 270.096L367.644 270.18C367.308 273.72 366.66 277.692 364.032 279.912C363.888 279.72 363.576 279.396 363.384 279.228C365.868 277.176 366.42 273.408 366.648 270.096ZM370.908 269.808C370.956 270.684 371.256 276.672 374.676 279.276C374.364 279.444 374.076 279.672 373.896 279.9C370.416 277.128 370.104 270.864 370.032 269.88L370.908 269.808ZM378.036 269.556H384.3V270.432H378.036V269.556ZM378.036 272.448H384.348V273.312H378.036V272.448ZM377.94 275.352H384.288V276.216H377.94V275.352ZM377.484 269.556H378.396V273.264C378.396 275.34 378.096 278.172 376.032 279.972C375.9 279.78 375.54 279.456 375.348 279.324C377.28 277.632 377.484 275.196 377.484 273.264V269.556ZM383.904 269.556H384.84V278.64C384.84 279.276 384.672 279.588 384.216 279.744C383.748 279.9 382.956 279.912 381.66 279.912C381.6 279.648 381.432 279.216 381.276 278.964C382.272 279 383.256 278.988 383.532 278.988C383.808 278.976 383.904 278.892 383.904 278.628V269.556Z" fill="#76848D"/>
<path d="M407.664 142.804L407.216 141.754L410.576 140.144H411.374V150H410.17V141.642L407.664 142.804ZM414.125 143.056L413.075 142.58C413.593 141.068 414.951 140.074 416.981 140.074C417.947 140.074 418.745 140.298 419.361 140.746C419.977 141.194 420.285 141.796 420.285 142.538C420.285 143.672 419.683 144.512 418.563 144.834C419.641 144.904 420.509 145.716 420.509 147.172C420.509 148.096 420.173 148.824 419.501 149.342C418.829 149.86 417.975 150.126 416.925 150.126C414.783 150.126 413.299 149.104 412.809 147.494L413.943 147.004C414.545 148.278 415.567 148.922 417.009 148.922C418.367 148.922 419.221 148.292 419.221 147.186C419.221 146.108 418.381 145.562 416.701 145.562H415.609V144.4H416.477C418.003 144.4 418.997 143.714 418.997 142.776C418.997 141.81 418.199 141.264 416.925 141.264C415.427 141.264 414.517 142.034 414.125 143.056ZM421.758 149.202C421.758 148.81 422.122 148.418 422.626 148.418C423.088 148.418 423.466 148.81 423.466 149.202C423.466 149.65 423.116 150.028 422.626 150.028C422.122 150.028 421.758 149.65 421.758 149.202ZM426.051 145.492L425.043 145.226L425.617 140.2H431.777V141.39H426.695L426.331 144.022C426.821 143.658 427.563 143.476 428.557 143.476C429.705 143.476 430.601 143.784 431.259 144.386C431.903 145.002 432.225 145.786 432.225 146.752C432.225 147.718 431.861 148.53 431.147 149.16C430.419 149.804 429.509 150.126 428.431 150.126C426.597 150.126 425.071 149.258 424.441 147.732L425.561 147.256C425.967 148.194 427.017 148.936 428.431 148.936C430.041 148.936 430.937 148.012 430.937 146.794C430.937 145.492 429.887 144.652 428.221 144.652C427.325 144.652 426.597 144.932 426.051 145.492Z" fill="#2A3C3C"/>
<path d="M407.664 142.804L407.216 141.754L410.576 140.144H411.374V150H410.17V141.642L407.664 142.804ZM414.125 143.056L413.075 142.58C413.593 141.068 414.951 140.074 416.981 140.074C417.947 140.074 418.745 140.298 419.361 140.746C419.977 141.194 420.285 141.796 420.285 142.538C420.285 143.672 419.683 144.512 418.563 144.834C419.641 144.904 420.509 145.716 420.509 147.172C420.509 148.096 420.173 148.824 419.501 149.342C418.829 149.86 417.975 150.126 416.925 150.126C414.783 150.126 413.299 149.104 412.809 147.494L413.943 147.004C414.545 148.278 415.567 148.922 417.009 148.922C418.367 148.922 419.221 148.292 419.221 147.186C419.221 146.108 418.381 145.562 416.701 145.562H415.609V144.4H416.477C418.003 144.4 418.997 143.714 418.997 142.776C418.997 141.81 418.199 141.264 416.925 141.264C415.427 141.264 414.517 142.034 414.125 143.056ZM421.758 149.202C421.758 148.81 422.122 148.418 422.626 148.418C423.088 148.418 423.466 148.81 423.466 149.202C423.466 149.65 423.116 150.028 422.626 150.028C422.122 150.028 421.758 149.65 421.758 149.202ZM426.051 145.492L425.043 145.226L425.617 140.2H431.777V141.39H426.695L426.331 144.022C426.821 143.658 427.563 143.476 428.557 143.476C429.705 143.476 430.601 143.784 431.259 144.386C431.903 145.002 432.225 145.786 432.225 146.752C432.225 147.718 431.861 148.53 431.147 149.16C430.419 149.804 429.509 150.126 428.431 150.126C426.597 150.126 425.071 149.258 424.441 147.732L425.561 147.256C425.967 148.194 427.017 148.936 428.431 148.936C430.041 148.936 430.937 148.012 430.937 146.794C430.937 145.492 429.887 144.652 428.221 144.652C427.325 144.652 426.597 144.932 426.051 145.492Z" fill="#1A3341"/>
<path d="M412.736 273.052H413.708C413.672 277.648 413.66 281.884 409.568 283.972C409.436 283.744 409.136 283.42 408.896 283.252C412.82 281.368 412.724 277.408 412.736 273.052ZM409.448 276.004H416.888V276.904H409.448V276.004ZM416.336 276.004H417.26V282.4C417.26 282.832 417.32 282.904 417.692 282.904C417.86 282.904 418.7 282.904 418.928 282.904C419.264 282.904 419.324 282.616 419.36 281.164C419.576 281.332 419.96 281.5 420.212 281.572C420.128 283.252 419.888 283.792 419 283.792C418.796 283.792 417.752 283.792 417.56 283.792C416.636 283.792 416.336 283.504 416.336 282.4V276.004ZM423.536 273.556H429.8V274.432H423.536V273.556ZM423.536 276.448H429.848V277.312H423.536V276.448ZM423.44 279.352H429.788V280.216H423.44V279.352ZM422.984 273.556H423.896V277.264C423.896 279.34 423.596 282.172 421.532 283.972C421.4 283.78 421.04 283.456 420.848 283.324C422.78 281.632 422.984 279.196 422.984 277.264V273.556ZM429.404 273.556H430.34V282.64C430.34 283.276 430.172 283.588 429.716 283.744C429.248 283.9 428.456 283.912 427.16 283.912C427.1 283.648 426.932 283.216 426.776 282.964C427.772 283 428.756 282.988 429.032 282.988C429.308 282.976 429.404 282.892 429.404 282.628V273.556Z" fill="#76848D"/>
<path d="M452.926 70.804L452.478 69.754L455.838 68.144H456.636V78H455.432V69.642L452.926 70.804ZM465.183 78H463.965V75.998H457.973V75.186L464.105 68.2H465.183V74.864H467.003V75.998H465.183V78ZM463.965 70.16L459.653 74.864H463.965V70.16ZM467.785 77.202C467.785 76.81 468.149 76.418 468.653 76.418C469.115 76.418 469.493 76.81 469.493 77.202C469.493 77.65 469.143 78.028 468.653 78.028C468.149 78.028 467.785 77.65 467.785 77.202ZM470.651 73.1C470.651 71.588 471.001 70.37 471.715 69.46C472.415 68.55 473.451 68.088 474.809 68.088C477.595 68.088 478.981 69.922 478.981 73.1C478.981 74.626 478.631 75.83 477.945 76.74C477.245 77.65 476.209 78.112 474.837 78.112C473.521 78.112 472.499 77.65 471.757 76.726C471.015 75.802 470.651 74.598 470.651 73.1ZM471.939 73.1C471.939 75.494 473.031 76.922 474.837 76.922C476.741 76.922 477.693 75.648 477.693 73.1C477.693 70.552 476.727 69.278 474.809 69.278C472.863 69.278 471.939 70.678 471.939 73.1Z" fill="#2A3C3C"/>
<path d="M452.926 70.804L452.478 69.754L455.838 68.144H456.636V78H455.432V69.642L452.926 70.804ZM465.183 78H463.965V75.998H457.973V75.186L464.105 68.2H465.183V74.864H467.003V75.998H465.183V78ZM463.965 70.16L459.653 74.864H463.965V70.16ZM467.785 77.202C467.785 76.81 468.149 76.418 468.653 76.418C469.115 76.418 469.493 76.81 469.493 77.202C469.493 77.65 469.143 78.028 468.653 78.028C468.149 78.028 467.785 77.65 467.785 77.202ZM470.651 73.1C470.651 71.588 471.001 70.37 471.715 69.46C472.415 68.55 473.451 68.088 474.809 68.088C477.595 68.088 478.981 69.922 478.981 73.1C478.981 74.626 478.631 75.83 477.945 76.74C477.245 77.65 476.209 78.112 474.837 78.112C473.521 78.112 472.499 77.65 471.757 76.726C471.015 75.802 470.651 74.598 470.651 73.1ZM471.939 73.1C471.939 75.494 473.031 76.922 474.837 76.922C476.741 76.922 477.693 75.648 477.693 73.1C477.693 70.552 476.727 69.278 474.809 69.278C472.863 69.278 471.939 70.678 471.939 73.1Z" fill="#1A3341"/>
<path d="M454.66 277.408H465.424V278.332H454.66V277.408ZM459.532 272.932H460.492V283.96H459.532V272.932ZM469.036 273.556H475.3V274.432H469.036V273.556ZM469.036 276.448H475.348V277.312H469.036V276.448ZM468.94 279.352H475.288V280.216H468.94V279.352ZM468.484 273.556H469.396V277.264C469.396 279.34 469.096 282.172 467.032 283.972C466.9 283.78 466.54 283.456 466.348 283.324C468.28 281.632 468.484 279.196 468.484 277.264V273.556ZM474.904 273.556H475.84V282.64C475.84 283.276 475.672 283.588 475.216 283.744C474.748 283.9 473.956 283.912 472.66 283.912C472.6 283.648 472.432 283.216 472.276 282.964C473.272 283 474.256 282.988 474.532 282.988C474.808 282.976 474.904 282.892 474.904 282.628V273.556Z" fill="#76848D"/>
<path d="M499.567 128.804L499.119 127.754L502.479 126.144H503.277V136H502.073V127.642L499.567 128.804ZM506.029 129.056L504.979 128.58C505.497 127.068 506.855 126.074 508.885 126.074C509.851 126.074 510.649 126.298 511.265 126.746C511.881 127.194 512.189 127.796 512.189 128.538C512.189 129.672 511.587 130.512 510.467 130.834C511.545 130.904 512.413 131.716 512.413 133.172C512.413 134.096 512.077 134.824 511.405 135.342C510.733 135.86 509.879 136.126 508.829 136.126C506.687 136.126 505.203 135.104 504.713 133.494L505.847 133.004C506.449 134.278 507.471 134.922 508.913 134.922C510.271 134.922 511.125 134.292 511.125 133.186C511.125 132.108 510.285 131.562 508.605 131.562H507.513V130.4H508.381C509.907 130.4 510.901 129.714 510.901 128.776C510.901 127.81 510.103 127.264 508.829 127.264C507.331 127.264 506.421 128.034 506.029 129.056ZM513.661 135.202C513.661 134.81 514.025 134.418 514.529 134.418C514.991 134.418 515.369 134.81 515.369 135.202C515.369 135.65 515.019 136.028 514.529 136.028C514.025 136.028 513.661 135.65 513.661 135.202ZM522.141 127.39H516.205V126.2H523.639V126.998L518.767 136H517.437L522.141 127.39Z" fill="#2A3C3C"/>
<path d="M499.567 128.804L499.119 127.754L502.479 126.144H503.277V136H502.073V127.642L499.567 128.804ZM506.029 129.056L504.979 128.58C505.497 127.068 506.855 126.074 508.885 126.074C509.851 126.074 510.649 126.298 511.265 126.746C511.881 127.194 512.189 127.796 512.189 128.538C512.189 129.672 511.587 130.512 510.467 130.834C511.545 130.904 512.413 131.716 512.413 133.172C512.413 134.096 512.077 134.824 511.405 135.342C510.733 135.86 509.879 136.126 508.829 136.126C506.687 136.126 505.203 135.104 504.713 133.494L505.847 133.004C506.449 134.278 507.471 134.922 508.913 134.922C510.271 134.922 511.125 134.292 511.125 133.186C511.125 132.108 510.285 131.562 508.605 131.562H507.513V130.4H508.381C509.907 130.4 510.901 129.714 510.901 128.776C510.901 127.81 510.103 127.264 508.829 127.264C507.331 127.264 506.421 128.034 506.029 129.056ZM513.661 135.202C513.661 134.81 514.025 134.418 514.529 134.418C514.991 134.418 515.369 134.81 515.369 135.202C515.369 135.65 515.019 136.028 514.529 136.028C514.025 136.028 513.661 135.65 513.661 135.202ZM522.141 127.39H516.205V126.2H523.639V126.998L518.767 136H517.437L522.141 127.39Z" fill="#1A3341"/>
<path d="M493.66 277.408H504.424V278.332H493.66V277.408ZM498.532 272.932H499.492V283.96H498.532V272.932ZM505.528 277.828H516.508V278.812H505.528V277.828ZM520.036 273.556H526.3V274.432H520.036V273.556ZM520.036 276.448H526.348V277.312H520.036V276.448ZM519.94 279.352H526.288V280.216H519.94V279.352ZM519.484 273.556H520.396V277.264C520.396 279.34 520.096 282.172 518.032 283.972C517.9 283.78 517.54 283.456 517.348 283.324C519.28 281.632 519.484 279.196 519.484 277.264V273.556ZM525.904 273.556H526.84V282.64C526.84 283.276 526.672 283.588 526.216 283.744C525.748 283.9 524.956 283.912 523.66 283.912C523.6 283.648 523.432 283.216 523.276 282.964C524.272 283 525.256 282.988 525.532 282.988C525.808 282.976 525.904 282.892 525.904 282.628V273.556Z" fill="#76848D"/>
<path d="M544.922 69.804L544.474 68.754L547.834 67.144H548.632V77H547.428V68.642L544.922 69.804ZM557.179 77H555.961V74.998H549.969V74.186L556.101 67.2H557.179V73.864H558.999V74.998H557.179V77ZM555.961 69.16L551.649 73.864H555.961V69.16ZM559.781 76.202C559.781 75.81 560.145 75.418 560.649 75.418C561.111 75.418 561.489 75.81 561.489 76.202C561.489 76.65 561.139 77.028 560.649 77.028C560.145 77.028 559.781 76.65 559.781 76.202ZM562.535 69.804L562.087 68.754L565.447 67.144H566.245V77H565.041V68.642L562.535 69.804Z" fill="#2A3C3C"/>
<path d="M544.922 69.804L544.474 68.754L547.834 67.144H548.632V77H547.428V68.642L544.922 69.804ZM557.179 77H555.961V74.998H549.969V74.186L556.101 67.2H557.179V73.864H558.999V74.998H557.179V77ZM555.961 69.16L551.649 73.864H555.961V69.16ZM559.781 76.202C559.781 75.81 560.145 75.418 560.649 75.418C561.111 75.418 561.489 75.81 561.489 76.202C561.489 76.65 561.139 77.028 560.649 77.028C560.145 77.028 559.781 76.65 559.781 76.202ZM562.535 69.804L562.087 68.754L565.447 67.144H566.245V77H565.041V68.642L562.535 69.804Z" fill="#1A3341"/>
<path d="M538.66 277.408H549.424V278.332H538.66V277.408ZM543.532 272.932H544.492V283.96H543.532V272.932ZM551.692 274.648H560.308V275.608H551.692V274.648ZM550.672 281.764H561.328V282.772H550.672V281.764ZM565.036 273.556H571.3V274.432H565.036V273.556ZM565.036 276.448H571.348V277.312H565.036V276.448ZM564.94 279.352H571.288V280.216H564.94V279.352ZM564.484 273.556H565.396V277.264C565.396 279.34 565.096 282.172 563.032 283.972C562.9 283.78 562.54 283.456 562.348 283.324C564.28 281.632 564.484 279.196 564.484 277.264V273.556ZM570.904 273.556H571.84V282.64C571.84 283.276 571.672 283.588 571.216 283.744C570.748 283.9 569.956 283.912 568.66 283.912C568.6 283.648 568.432 283.216 568.276 282.964C569.272 283 570.256 282.988 570.532 282.988C570.808 282.976 570.904 282.892 570.904 282.628V273.556Z" fill="#76848D"/>
<path d="M586.746 99.804L586.298 98.754L589.658 97.144H590.456V107H589.252V98.642L586.746 99.804ZM593.207 100.056L592.157 99.58C592.675 98.068 594.033 97.074 596.063 97.074C597.029 97.074 597.827 97.298 598.443 97.746C599.059 98.194 599.367 98.796 599.367 99.538C599.367 100.672 598.765 101.512 597.645 101.834C598.723 101.904 599.591 102.716 599.591 104.172C599.591 105.096 599.255 105.824 598.583 106.342C597.911 106.86 597.057 107.126 596.007 107.126C593.865 107.126 592.381 106.104 591.891 104.494L593.025 104.004C593.627 105.278 594.649 105.922 596.091 105.922C597.449 105.922 598.303 105.292 598.303 104.186C598.303 103.108 597.463 102.562 595.783 102.562H594.691V101.4H595.559C597.085 101.4 598.079 100.714 598.079 99.776C598.079 98.81 597.281 98.264 596.007 98.264C594.509 98.264 593.599 99.034 593.207 100.056ZM600.84 106.202C600.84 105.81 601.204 105.418 601.708 105.418C602.17 105.418 602.548 105.81 602.548 106.202C602.548 106.65 602.198 107.028 601.708 107.028C601.204 107.028 600.84 106.65 600.84 106.202ZM604.671 100.056L603.621 99.58C604.139 98.068 605.497 97.074 607.527 97.074C608.493 97.074 609.291 97.298 609.907 97.746C610.523 98.194 610.831 98.796 610.831 99.538C610.831 100.672 610.229 101.512 609.109 101.834C610.187 101.904 611.055 102.716 611.055 104.172C611.055 105.096 610.719 105.824 610.047 106.342C609.375 106.86 608.521 107.126 607.471 107.126C605.329 107.126 603.845 106.104 603.355 104.494L604.489 104.004C605.091 105.278 606.113 105.922 607.555 105.922C608.913 105.922 609.767 105.292 609.767 104.186C609.767 103.108 608.927 102.562 607.247 102.562H606.155V101.4H607.023C608.549 101.4 609.543 100.714 609.543 99.776C609.543 98.81 608.745 98.264 607.471 98.264C605.973 98.264 605.063 99.034 604.671 100.056Z" fill="#2A3C3C"/>
<path d="M586.746 99.804L586.298 98.754L589.658 97.144H590.456V107H589.252V98.642L586.746 99.804ZM593.207 100.056L592.157 99.58C592.675 98.068 594.033 97.074 596.063 97.074C597.029 97.074 597.827 97.298 598.443 97.746C599.059 98.194 599.367 98.796 599.367 99.538C599.367 100.672 598.765 101.512 597.645 101.834C598.723 101.904 599.591 102.716 599.591 104.172C599.591 105.096 599.255 105.824 598.583 106.342C597.911 106.86 597.057 107.126 596.007 107.126C593.865 107.126 592.381 106.104 591.891 104.494L593.025 104.004C593.627 105.278 594.649 105.922 596.091 105.922C597.449 105.922 598.303 105.292 598.303 104.186C598.303 103.108 597.463 102.562 595.783 102.562H594.691V101.4H595.559C597.085 101.4 598.079 100.714 598.079 99.776C598.079 98.81 597.281 98.264 596.007 98.264C594.509 98.264 593.599 99.034 593.207 100.056ZM600.84 106.202C600.84 105.81 601.204 105.418 601.708 105.418C602.17 105.418 602.548 105.81 602.548 106.202C602.548 106.65 602.198 107.028 601.708 107.028C601.204 107.028 600.84 106.65 600.84 106.202ZM604.671 100.056L603.621 99.58C604.139 98.068 605.497 97.074 607.527 97.074C608.493 97.074 609.291 97.298 609.907 97.746C610.523 98.194 610.831 98.796 610.831 99.538C610.831 100.672 610.229 101.512 609.109 101.834C610.187 101.904 611.055 102.716 611.055 104.172C611.055 105.096 610.719 105.824 610.047 106.342C609.375 106.86 608.521 107.126 607.471 107.126C605.329 107.126 603.845 106.104 603.355 104.494L604.489 104.004C605.091 105.278 606.113 105.922 607.555 105.922C608.913 105.922 609.767 105.292 609.767 104.186C609.767 103.108 608.927 102.562 607.247 102.562H606.155V101.4H607.023C608.549 101.4 609.543 100.714 609.543 99.776C609.543 98.81 608.745 98.264 607.471 98.264C605.973 98.264 605.063 99.034 604.671 100.056Z" fill="#1A3341"/>
<path d="M587.576 277.84H598.472V278.812H587.576V277.84ZM602.276 279.328H607.892V277.312H602.408C602.408 277.936 602.372 278.62 602.276 279.328ZM607.892 274.468H602.408V276.46H607.892V274.468ZM608.816 273.592V282.616C608.816 283.24 608.636 283.552 608.192 283.696C607.736 283.852 606.944 283.864 605.66 283.864C605.6 283.612 605.432 283.192 605.288 282.94C606.284 282.976 607.244 282.964 607.52 282.964C607.796 282.952 607.892 282.868 607.892 282.604V280.204H602.132C601.832 281.56 601.232 282.916 600.068 283.936C599.948 283.744 599.588 283.42 599.408 283.288C601.316 281.608 601.508 279.172 601.508 277.264V273.592H608.816ZM593.099 291.372L592.223 291.06C592.523 289.572 593.651 288.504 595.439 288.504C597.167 288.504 598.223 289.5 598.223 291.024C598.223 291.828 597.875 292.632 597.443 293.208C597.227 293.508 596.951 293.796 596.627 294.096C595.967 294.684 595.499 294.996 594.815 295.428L593.891 296.004H598.535V297H591.995V296.184L593.819 294.972C594.143 294.768 594.371 294.612 594.503 294.516C594.635 294.432 594.851 294.276 595.139 294.072C595.427 293.868 595.643 293.688 595.787 293.556C595.919 293.424 596.099 293.256 596.303 293.04C596.855 292.44 597.059 291.888 597.119 291.132C597.119 290.04 596.411 289.548 595.367 289.548C594.719 289.548 594.203 289.728 593.831 290.088C593.459 290.448 593.207 290.88 593.099 291.372ZM600.315 291.048L599.415 290.64C599.859 289.344 601.023 288.492 602.763 288.492C603.591 288.492 604.275 288.684 604.803 289.068C605.331 289.452 605.595 289.968 605.595 290.604C605.595 291.576 605.079 292.296 604.119 292.572C605.043 292.632 605.787 293.328 605.787 294.576C605.787 295.368 605.499 295.992 604.923 296.436C604.347 296.88 603.615 297.108 602.715 297.108C600.879 297.108 599.607 296.232 599.187 294.852L600.159 294.432C600.675 295.524 601.551 296.076 602.787 296.076C603.951 296.076 604.683 295.536 604.683 294.588C604.683 293.664 603.963 293.196 602.523 293.196H601.587V292.2H602.331C603.639 292.2 604.491 291.612 604.491 290.808C604.491 289.98 603.807 289.512 602.715 289.512C601.431 289.512 600.651 290.172 600.315 291.048Z" fill="#76848D"/>
<path d="M631.956 209.804L631.508 208.754L634.868 207.144H635.666V217H634.462V208.642L631.956 209.804ZM637.339 209.804L636.891 208.754L640.251 207.144H641.049V217H639.845V208.642L637.339 209.804ZM642.933 216.202C642.933 215.81 643.297 215.418 643.801 215.418C644.263 215.418 644.641 215.81 644.641 216.202C644.641 216.65 644.291 217.028 643.801 217.028C643.297 217.028 642.933 216.65 642.933 216.202ZM653.946 211.918C653.946 213.584 653.554 214.872 652.756 215.768C651.958 216.678 650.894 217.126 649.564 217.126C647.94 217.126 646.666 216.44 646.036 215.39L647.044 214.69C647.604 215.474 648.626 215.922 649.732 215.922C650.642 215.922 651.37 215.558 651.944 214.83C652.518 214.116 652.756 213.22 652.686 212.156C652.224 213.22 651.062 214.004 649.508 214.004C648.416 214.004 647.52 213.696 646.82 213.066C646.106 212.45 645.756 211.638 645.756 210.644C645.756 209.552 646.134 208.684 646.89 208.04C647.646 207.396 648.654 207.074 649.9 207.074C652.42 207.074 653.946 208.838 653.946 211.918ZM652.476 210.602C652.266 209.3 651.37 208.278 649.76 208.278C648.08 208.278 647.044 209.146 647.044 210.602C647.044 211.988 648.094 212.8 649.732 212.8C650.474 212.8 651.104 212.576 651.594 212.128C652.084 211.68 652.378 211.176 652.476 210.602Z" fill="#2A3C3C"/>
<path d="M631.956 209.804L631.508 208.754L634.868 207.144H635.666V217H634.462V208.642L631.956 209.804ZM637.339 209.804L636.891 208.754L640.251 207.144H641.049V217H639.845V208.642L637.339 209.804ZM642.933 216.202C642.933 215.81 643.297 215.418 643.801 215.418C644.263 215.418 644.641 215.81 644.641 216.202C644.641 216.65 644.291 217.028 643.801 217.028C643.297 217.028 642.933 216.65 642.933 216.202ZM653.946 211.918C653.946 213.584 653.554 214.872 652.756 215.768C651.958 216.678 650.894 217.126 649.564 217.126C647.94 217.126 646.666 216.44 646.036 215.39L647.044 214.69C647.604 215.474 648.626 215.922 649.732 215.922C650.642 215.922 651.37 215.558 651.944 214.83C652.518 214.116 652.756 213.22 652.686 212.156C652.224 213.22 651.062 214.004 649.508 214.004C648.416 214.004 647.52 213.696 646.82 213.066C646.106 212.45 645.756 211.638 645.756 210.644C645.756 209.552 646.134 208.684 646.89 208.04C647.646 207.396 648.654 207.074 649.9 207.074C652.42 207.074 653.946 208.838 653.946 211.918ZM652.476 210.602C652.266 209.3 651.37 208.278 649.76 208.278C648.08 208.278 647.044 209.146 647.044 210.602C647.044 211.988 648.094 212.8 649.732 212.8C650.474 212.8 651.104 212.576 651.594 212.128C652.084 211.68 652.378 211.176 652.476 210.602Z" fill="#1A3341"/>
<path d="M632.692 274.648H641.308V275.608H632.692V274.648ZM631.672 281.764H642.328V282.772H631.672V281.764ZM646.036 273.556H652.3V274.432H646.036V273.556ZM646.036 276.448H652.348V277.312H646.036V276.448ZM645.94 279.352H652.288V280.216H645.94V279.352ZM645.484 273.556H646.396V277.264C646.396 279.34 646.096 282.172 644.032 283.972C643.9 283.78 643.54 283.456 643.348 283.324C645.28 281.632 645.484 279.196 645.484 277.264V273.556ZM651.904 273.556H652.84V282.64C652.84 283.276 652.672 283.588 652.216 283.744C651.748 283.9 650.956 283.912 649.66 283.912C649.6 283.648 649.432 283.216 649.276 282.964C650.272 283 651.256 282.988 651.532 282.988C651.808 282.976 651.904 282.892 651.904 282.628V273.556Z" fill="#76848D"/>
<path d="M676.514 31.804L676.066 30.754L679.426 29.144H680.224V39H679.02V30.642L676.514 31.804ZM688.772 39H687.554V36.998H681.562V36.186L687.694 29.2H688.772V35.864H690.592V36.998H688.772V39ZM687.554 31.16L683.242 35.864H687.554V31.16ZM691.374 38.202C691.374 37.81 691.738 37.418 692.242 37.418C692.704 37.418 693.082 37.81 693.082 38.202C693.082 38.65 692.732 39.028 692.242 39.028C691.738 39.028 691.374 38.65 691.374 38.202ZM698.104 33.414H698.538C699.168 33.414 699.686 33.26 700.12 32.966C700.54 32.672 700.75 32.28 700.75 31.818C700.75 30.768 699.924 30.236 698.286 30.236C696.718 30.236 695.864 30.81 695.864 31.818C695.864 32.728 696.802 33.414 698.104 33.414ZM698.51 34.52H698.16C697.404 34.52 696.774 34.688 696.284 35.01C695.794 35.332 695.542 35.738 695.542 36.228C695.542 37.292 696.522 37.964 698.3 37.964C700.106 37.964 701.072 37.32 701.072 36.242C701.072 35.164 700.036 34.52 698.51 34.52ZM701.268 38.37C700.554 38.874 699.56 39.126 698.314 39.126C697.068 39.126 696.074 38.874 695.346 38.384C694.618 37.894 694.254 37.222 694.254 36.354C694.254 35.22 694.996 34.324 696.186 33.932C695.108 33.582 694.576 32.728 694.576 31.734C694.576 30.11 695.948 29.074 698.3 29.074C700.666 29.074 702.038 30.11 702.038 31.734C702.038 32.672 701.52 33.386 700.484 33.862C701.73 34.24 702.346 35.052 702.346 36.298C702.346 37.18 701.982 37.88 701.268 38.37Z" fill="#2A3C3C"/>
<path d="M676.514 31.804L676.066 30.754L679.426 29.144H680.224V39H679.02V30.642L676.514 31.804ZM688.772 39H687.554V36.998H681.562V36.186L687.694 29.2H688.772V35.864H690.592V36.998H688.772V39ZM687.554 31.16L683.242 35.864H687.554V31.16ZM691.374 38.202C691.374 37.81 691.738 37.418 692.242 37.418C692.704 37.418 693.082 37.81 693.082 38.202C693.082 38.65 692.732 39.028 692.242 39.028C691.738 39.028 691.374 38.65 691.374 38.202ZM698.104 33.414H698.538C699.168 33.414 699.686 33.26 700.12 32.966C700.54 32.672 700.75 32.28 700.75 31.818C700.75 30.768 699.924 30.236 698.286 30.236C696.718 30.236 695.864 30.81 695.864 31.818C695.864 32.728 696.802 33.414 698.104 33.414ZM698.51 34.52H698.16C697.404 34.52 696.774 34.688 696.284 35.01C695.794 35.332 695.542 35.738 695.542 36.228C695.542 37.292 696.522 37.964 698.3 37.964C700.106 37.964 701.072 37.32 701.072 36.242C701.072 35.164 700.036 34.52 698.51 34.52ZM701.268 38.37C700.554 38.874 699.56 39.126 698.314 39.126C697.068 39.126 696.074 38.874 695.346 38.384C694.618 37.894 694.254 37.222 694.254 36.354C694.254 35.22 694.996 34.324 696.186 33.932C695.108 33.582 694.576 32.728 694.576 31.734C694.576 30.11 695.948 29.074 698.3 29.074C700.666 29.074 702.038 30.11 702.038 31.734C702.038 32.672 701.52 33.386 700.484 33.862C701.73 34.24 702.346 35.052 702.346 36.298C702.346 37.18 701.982 37.88 701.268 38.37Z" fill="#1A3341"/>
<path d="M678.476 274.096H687.548V274.996H678.476V274.096ZM679.244 278.02H686.6V278.92H679.244V278.02ZM677.78 282.184H688.196V283.096H677.78V282.184ZM692.036 273.556H698.3V274.432H692.036V273.556ZM692.036 276.448H698.348V277.312H692.036V276.448ZM691.94 279.352H698.288V280.216H691.94V279.352ZM691.484 273.556H692.396V277.264C692.396 279.34 692.096 282.172 690.032 283.972C689.9 283.78 689.54 283.456 689.348 283.324C691.28 281.632 691.484 279.196 691.484 277.264V273.556ZM697.904 273.556H698.84V282.64C698.84 283.276 698.672 283.588 698.216 283.744C697.748 283.9 696.956 283.912 695.66 283.912C695.6 283.648 695.432 283.216 695.276 282.964C696.272 283 697.256 282.988 697.532 282.988C697.808 282.976 697.904 282.892 697.904 282.628V273.556Z" fill="#76848D"/>
<path d="M722.926 116.804L722.478 115.754L725.838 114.144H726.636V124H725.432V115.642L722.926 116.804ZM735.183 124H733.965V121.998H727.973V121.186L734.105 114.2H735.183V120.864H737.003V121.998H735.183V124ZM733.965 116.16L729.653 120.864H733.965V116.16ZM737.785 123.202C737.785 122.81 738.149 122.418 738.653 122.418C739.115 122.418 739.493 122.81 739.493 123.202C739.493 123.65 739.143 124.028 738.653 124.028C738.149 124.028 737.785 123.65 737.785 123.202ZM740.651 119.1C740.651 117.588 741.001 116.37 741.715 115.46C742.415 114.55 743.451 114.088 744.809 114.088C747.595 114.088 748.981 115.922 748.981 119.1C748.981 120.626 748.631 121.83 747.945 122.74C747.245 123.65 746.209 124.112 744.837 124.112C743.521 124.112 742.499 123.65 741.757 122.726C741.015 121.802 740.651 120.598 740.651 119.1ZM741.939 119.1C741.939 121.494 743.031 122.922 744.837 122.922C746.741 122.922 747.693 121.648 747.693 119.1C747.693 116.552 746.727 115.278 744.809 115.278C742.863 115.278 741.939 116.678 741.939 119.1Z" fill="#2A3C3C"/>
<path d="M722.926 116.804L722.478 115.754L725.838 114.144H726.636V124H725.432V115.642L722.926 116.804ZM735.183 124H733.965V121.998H727.973V121.186L734.105 114.2H735.183V120.864H737.003V121.998H735.183V124ZM733.965 116.16L729.653 120.864H733.965V116.16ZM737.785 123.202C737.785 122.81 738.149 122.418 738.653 122.418C739.115 122.418 739.493 122.81 739.493 123.202C739.493 123.65 739.143 124.028 738.653 124.028C738.149 124.028 737.785 123.65 737.785 123.202ZM740.651 119.1C740.651 117.588 741.001 116.37 741.715 115.46C742.415 114.55 743.451 114.088 744.809 114.088C747.595 114.088 748.981 115.922 748.981 119.1C748.981 120.626 748.631 121.83 747.945 122.74C747.245 123.65 746.209 124.112 744.837 124.112C743.521 124.112 742.499 123.65 741.757 122.726C741.015 121.802 740.651 120.598 740.651 119.1ZM741.939 119.1C741.939 121.494 743.031 122.922 744.837 122.922C746.741 122.922 747.693 121.648 747.693 119.1C747.693 116.552 746.727 115.278 744.809 115.278C742.863 115.278 741.939 116.678 741.939 119.1Z" fill="#1A3341"/>
<path d="M725.056 273.976H734.908V283.468H733.972V274.84H725.956V283.564H725.056V273.976ZM725.536 281.788H734.5V282.664H725.536V281.788ZM728.212 274.516H729.1C729.04 277.96 728.8 279.844 726.652 280.888C726.556 280.672 726.292 280.348 726.1 280.192C728.02 279.28 728.176 277.684 728.212 274.516ZM730.78 274.672H731.632V278.62C731.632 279.016 731.68 279.148 731.932 279.148C732.124 279.148 732.904 279.148 733.096 279.148C733.288 279.148 733.624 279.136 733.792 279.1C733.804 279.34 733.828 279.64 733.864 279.868C733.708 279.916 733.408 279.916 733.12 279.916C732.892 279.916 732.004 279.916 731.812 279.916C730.972 279.916 730.78 279.532 730.78 278.596V274.672ZM739.036 273.556H745.3V274.432H739.036V273.556ZM739.036 276.448H745.348V277.312H739.036V276.448ZM738.94 279.352H745.288V280.216H738.94V279.352ZM738.484 273.556H739.396V277.264C739.396 279.34 739.096 282.172 737.032 283.972C736.9 283.78 736.54 283.456 736.348 283.324C738.28 281.632 738.484 279.196 738.484 277.264V273.556ZM744.904 273.556H745.84V282.64C745.84 283.276 745.672 283.588 745.216 283.744C744.748 283.9 743.956 283.912 742.66 283.912C742.6 283.648 742.432 283.216 742.276 282.964C743.272 283 744.256 282.988 744.532 282.988C744.808 282.976 744.904 282.892 744.904 282.628V273.556Z" fill="#76848D"/>
<path d="M769.722 23.804L769.274 22.754L772.634 21.144H773.432V31H772.228V22.642L769.722 23.804ZM776.646 26.492L775.638 26.226L776.212 21.2H782.372V22.39H777.29L776.926 25.022C777.416 24.658 778.158 24.476 779.152 24.476C780.3 24.476 781.196 24.784 781.854 25.386C782.498 26.002 782.82 26.786 782.82 27.752C782.82 28.718 782.456 29.53 781.742 30.16C781.014 30.804 780.104 31.126 779.026 31.126C777.192 31.126 775.666 30.258 775.036 28.732L776.156 28.256C776.562 29.194 777.612 29.936 779.026 29.936C780.636 29.936 781.532 29.012 781.532 27.794C781.532 26.492 780.482 25.652 778.816 25.652C777.92 25.652 777.192 25.932 776.646 26.492ZM783.981 30.202C783.981 29.81 784.345 29.418 784.849 29.418C785.311 29.418 785.689 29.81 785.689 30.202C785.689 30.65 785.339 31.028 784.849 31.028C784.345 31.028 783.981 30.65 783.981 30.202ZM786.734 23.804L786.286 22.754L789.646 21.144H790.444V31H789.24V22.642L786.734 23.804Z" fill="#2A3C3C"/>
<path d="M769.722 23.804L769.274 22.754L772.634 21.144H773.432V31H772.228V22.642L769.722 23.804ZM776.646 26.492L775.638 26.226L776.212 21.2H782.372V22.39H777.29L776.926 25.022C777.416 24.658 778.158 24.476 779.152 24.476C780.3 24.476 781.196 24.784 781.854 25.386C782.498 26.002 782.82 26.786 782.82 27.752C782.82 28.718 782.456 29.53 781.742 30.16C781.014 30.804 780.104 31.126 779.026 31.126C777.192 31.126 775.666 30.258 775.036 28.732L776.156 28.256C776.562 29.194 777.612 29.936 779.026 29.936C780.636 29.936 781.532 29.012 781.532 27.794C781.532 26.492 780.482 25.652 778.816 25.652C777.92 25.652 777.192 25.932 776.646 26.492ZM783.981 30.202C783.981 29.81 784.345 29.418 784.849 29.418C785.311 29.418 785.689 29.81 785.689 30.202C785.689 30.65 785.339 31.028 784.849 31.028C784.345 31.028 783.981 30.65 783.981 30.202ZM786.734 23.804L786.286 22.754L789.646 21.144H790.444V31H789.24V22.642L786.734 23.804Z" fill="#1A3341"/>
<path d="M769.428 274.096H778.5V274.984H769.428V274.096ZM768.672 282.412H779.352V283.312H768.672V282.412ZM772.944 274.408H773.94C773.544 277.144 772.932 280.84 772.488 282.928H771.504C771.984 280.78 772.608 277.072 772.944 274.408ZM770.088 277.588H776.724V278.464H770.088V277.588ZM776.376 277.588H776.484L776.64 277.552L777.336 277.612C777.252 279.112 777.036 281.344 776.82 283.012L775.896 282.94C776.1 281.272 776.304 278.896 776.376 277.708V277.588ZM783.036 273.556H789.3V274.432H783.036V273.556ZM783.036 276.448H789.348V277.312H783.036V276.448ZM782.94 279.352H789.288V280.216H782.94V279.352ZM782.484 273.556H783.396V277.264C783.396 279.34 783.096 282.172 781.032 283.972C780.9 283.78 780.54 283.456 780.348 283.324C782.28 281.632 782.484 279.196 782.484 277.264V273.556ZM788.904 273.556H789.84V282.64C789.84 283.276 789.672 283.588 789.216 283.744C788.748 283.9 787.956 283.912 786.66 283.912C786.6 283.648 786.432 283.216 786.276 282.964C787.272 283 788.256 282.988 788.532 282.988C788.808 282.976 788.904 282.892 788.904 282.628V273.556Z" fill="#76848D"/>
<path d="M809.514 35.804L809.066 34.754L812.426 33.144H813.224V43H812.02V34.642L809.514 35.804ZM821.772 43H820.554V40.998H814.562V40.186L820.694 33.2H821.772V39.864H823.592V40.998H821.772V43ZM820.554 35.16L816.242 39.864H820.554V35.16ZM824.374 42.202C824.374 41.81 824.738 41.418 825.242 41.418C825.704 41.418 826.082 41.81 826.082 42.202C826.082 42.65 825.732 43.028 825.242 43.028C824.738 43.028 824.374 42.65 824.374 42.202ZM831.104 37.414H831.538C832.168 37.414 832.686 37.26 833.12 36.966C833.54 36.672 833.75 36.28 833.75 35.818C833.75 34.768 832.924 34.236 831.286 34.236C829.718 34.236 828.864 34.81 828.864 35.818C828.864 36.728 829.802 37.414 831.104 37.414ZM831.51 38.52H831.16C830.404 38.52 829.774 38.688 829.284 39.01C828.794 39.332 828.542 39.738 828.542 40.228C828.542 41.292 829.522 41.964 831.3 41.964C833.106 41.964 834.072 41.32 834.072 40.242C834.072 39.164 833.036 38.52 831.51 38.52ZM834.268 42.37C833.554 42.874 832.56 43.126 831.314 43.126C830.068 43.126 829.074 42.874 828.346 42.384C827.618 41.894 827.254 41.222 827.254 40.354C827.254 39.22 827.996 38.324 829.186 37.932C828.108 37.582 827.576 36.728 827.576 35.734C827.576 34.11 828.948 33.074 831.3 33.074C833.666 33.074 835.038 34.11 835.038 35.734C835.038 36.672 834.52 37.386 833.484 37.862C834.73 38.24 835.346 39.052 835.346 40.298C835.346 41.18 834.982 41.88 834.268 42.37Z" fill="#2A3C3C"/>
<path d="M809.514 35.804L809.066 34.754L812.426 33.144H813.224V43H812.02V34.642L809.514 35.804ZM821.772 43H820.554V40.998H814.562V40.186L820.694 33.2H821.772V39.864H823.592V40.998H821.772V43ZM820.554 35.16L816.242 39.864H820.554V35.16ZM824.374 42.202C824.374 41.81 824.738 41.418 825.242 41.418C825.704 41.418 826.082 41.81 826.082 42.202C826.082 42.65 825.732 43.028 825.242 43.028C824.738 43.028 824.374 42.65 824.374 42.202ZM831.104 37.414H831.538C832.168 37.414 832.686 37.26 833.12 36.966C833.54 36.672 833.75 36.28 833.75 35.818C833.75 34.768 832.924 34.236 831.286 34.236C829.718 34.236 828.864 34.81 828.864 35.818C828.864 36.728 829.802 37.414 831.104 37.414ZM831.51 38.52H831.16C830.404 38.52 829.774 38.688 829.284 39.01C828.794 39.332 828.542 39.738 828.542 40.228C828.542 41.292 829.522 41.964 831.3 41.964C833.106 41.964 834.072 41.32 834.072 40.242C834.072 39.164 833.036 38.52 831.51 38.52ZM834.268 42.37C833.554 42.874 832.56 43.126 831.314 43.126C830.068 43.126 829.074 42.874 828.346 42.384C827.618 41.894 827.254 41.222 827.254 40.354C827.254 39.22 827.996 38.324 829.186 37.932C828.108 37.582 827.576 36.728 827.576 35.734C827.576 34.11 828.948 33.074 831.3 33.074C833.666 33.074 835.038 34.11 835.038 35.734C835.038 36.672 834.52 37.386 833.484 37.862C834.73 38.24 835.346 39.052 835.346 40.298C835.346 41.18 834.982 41.88 834.268 42.37Z" fill="#1A3341"/>
<path d="M810.684 276.1H821.34V277.024H810.684V276.1ZM813.696 278.416L814.68 278.74C813.792 280.6 812.532 282.592 811.416 283.888C811.212 283.72 810.768 283.42 810.516 283.264C811.668 282.064 812.904 280.168 813.696 278.416ZM817.248 278.728L818.088 278.332C819.216 279.904 820.692 282.028 821.4 283.3L820.476 283.816C819.816 282.544 818.376 280.348 817.248 278.728ZM814.872 273.28L815.796 272.98C816.204 273.772 816.72 274.828 816.972 275.452L815.988 275.836C815.772 275.2 815.28 274.108 814.872 273.28ZM825.036 273.556H831.3V274.432H825.036V273.556ZM825.036 276.448H831.348V277.312H825.036V276.448ZM824.94 279.352H831.288V280.216H824.94V279.352ZM824.484 273.556H825.396V277.264C825.396 279.34 825.096 282.172 823.032 283.972C822.9 283.78 822.54 283.456 822.348 283.324C824.28 281.632 824.484 279.196 824.484 277.264V273.556ZM830.904 273.556H831.84V282.64C831.84 283.276 831.672 283.588 831.216 283.744C830.748 283.9 829.956 283.912 828.66 283.912C828.6 283.648 828.432 283.216 828.276 282.964C829.272 283 830.256 282.988 830.532 282.988C830.808 282.976 830.904 282.892 830.904 282.628V273.556Z" fill="#76848D"/>
<path d="M851.726 26.804L851.278 25.754L854.638 24.144H855.436V34H854.232V25.642L851.726 26.804ZM858.65 29.492L857.642 29.226L858.216 24.2H864.376V25.39H859.294L858.93 28.022C859.42 27.658 860.162 27.476 861.156 27.476C862.304 27.476 863.2 27.784 863.858 28.386C864.502 29.002 864.824 29.786 864.824 30.752C864.824 31.718 864.46 32.53 863.746 33.16C863.018 33.804 862.108 34.126 861.03 34.126C859.196 34.126 857.67 33.258 857.04 31.732L858.16 31.256C858.566 32.194 859.616 32.936 861.03 32.936C862.64 32.936 863.536 32.012 863.536 30.794C863.536 29.492 862.486 28.652 860.82 28.652C859.924 28.652 859.196 28.932 858.65 29.492ZM865.984 33.202C865.984 32.81 866.348 32.418 866.852 32.418C867.314 32.418 867.692 32.81 867.692 33.202C867.692 33.65 867.342 34.028 866.852 34.028C866.348 34.028 865.984 33.65 865.984 33.202ZM868.85 29.1C868.85 27.588 869.2 26.37 869.914 25.46C870.614 24.55 871.65 24.088 873.008 24.088C875.794 24.088 877.18 25.922 877.18 29.1C877.18 30.626 876.83 31.83 876.144 32.74C875.444 33.65 874.408 34.112 873.036 34.112C871.72 34.112 870.698 33.65 869.956 32.726C869.214 31.802 868.85 30.598 868.85 29.1ZM870.138 29.1C870.138 31.494 871.23 32.922 873.036 32.922C874.94 32.922 875.892 31.648 875.892 29.1C875.892 26.552 874.926 25.278 873.008 25.278C871.062 25.278 870.138 26.678 870.138 29.1Z" fill="#2A3C3C"/>
<path d="M851.726 26.804L851.278 25.754L854.638 24.144H855.436V34H854.232V25.642L851.726 26.804ZM858.65 29.492L857.642 29.226L858.216 24.2H864.376V25.39H859.294L858.93 28.022C859.42 27.658 860.162 27.476 861.156 27.476C862.304 27.476 863.2 27.784 863.858 28.386C864.502 29.002 864.824 29.786 864.824 30.752C864.824 31.718 864.46 32.53 863.746 33.16C863.018 33.804 862.108 34.126 861.03 34.126C859.196 34.126 857.67 33.258 857.04 31.732L858.16 31.256C858.566 32.194 859.616 32.936 861.03 32.936C862.64 32.936 863.536 32.012 863.536 30.794C863.536 29.492 862.486 28.652 860.82 28.652C859.924 28.652 859.196 28.932 858.65 29.492ZM865.984 33.202C865.984 32.81 866.348 32.418 866.852 32.418C867.314 32.418 867.692 32.81 867.692 33.202C867.692 33.65 867.342 34.028 866.852 34.028C866.348 34.028 865.984 33.65 865.984 33.202ZM868.85 29.1C868.85 27.588 869.2 26.37 869.914 25.46C870.614 24.55 871.65 24.088 873.008 24.088C875.794 24.088 877.18 25.922 877.18 29.1C877.18 30.626 876.83 31.83 876.144 32.74C875.444 33.65 874.408 34.112 873.036 34.112C871.72 34.112 870.698 33.65 869.956 32.726C869.214 31.802 868.85 30.598 868.85 29.1ZM870.138 29.1C870.138 31.494 871.23 32.922 873.036 32.922C874.94 32.922 875.892 31.648 875.892 29.1C875.892 26.552 874.926 25.278 873.008 25.278C871.062 25.278 870.138 26.678 870.138 29.1Z" fill="#1A3341"/>
<path d="M852.588 277.708L863.292 275.98L863.448 276.904L852.732 278.608L852.588 277.708ZM856.056 273.136H857.016V281.728C857.016 282.472 857.172 282.652 858.036 282.652C858.468 282.652 860.604 282.652 861.12 282.652C861.924 282.652 862.044 282.22 862.164 280.432C862.404 280.612 862.824 280.792 863.076 280.864C862.932 282.856 862.632 283.54 861.144 283.54C860.796 283.54 858.336 283.54 858 283.54C856.512 283.54 856.056 283.168 856.056 281.716V273.136ZM867.036 273.556H873.3V274.432H867.036V273.556ZM867.036 276.448H873.348V277.312H867.036V276.448ZM866.94 279.352H873.288V280.216H866.94V279.352ZM866.484 273.556H867.396V277.264C867.396 279.34 867.096 282.172 865.032 283.972C864.9 283.78 864.54 283.456 864.348 283.324C866.28 281.632 866.484 279.196 866.484 277.264V273.556ZM872.904 273.556H873.84V282.64C873.84 283.276 873.672 283.588 873.216 283.744C872.748 283.9 871.956 283.912 870.66 283.912C870.6 283.648 870.432 283.216 870.276 282.964C871.272 283 872.256 282.988 872.532 282.988C872.808 282.976 872.904 282.892 872.904 282.628V273.556Z" fill="#76848D"/>
<path d="M893.664 15.804L893.216 14.754L896.576 13.144H897.374V23H896.17V14.642L893.664 15.804ZM900.587 18.492L899.579 18.226L900.153 13.2H906.313V14.39H901.231L900.867 17.022C901.357 16.658 902.099 16.476 903.093 16.476C904.241 16.476 905.137 16.784 905.795 17.386C906.439 18.002 906.761 18.786 906.761 19.752C906.761 20.718 906.397 21.53 905.683 22.16C904.955 22.804 904.045 23.126 902.967 23.126C901.133 23.126 899.607 22.258 898.977 20.732L900.097 20.256C900.503 21.194 901.553 21.936 902.967 21.936C904.577 21.936 905.473 21.012 905.473 19.794C905.473 18.492 904.423 17.652 902.757 17.652C901.861 17.652 901.133 17.932 900.587 18.492ZM907.922 22.202C907.922 21.81 908.286 21.418 908.79 21.418C909.252 21.418 909.63 21.81 909.63 22.202C909.63 22.65 909.28 23.028 908.79 23.028C908.286 23.028 907.922 22.65 907.922 22.202ZM911.754 16.056L910.704 15.58C911.222 14.068 912.58 13.074 914.61 13.074C915.576 13.074 916.374 13.298 916.99 13.746C917.606 14.194 917.914 14.796 917.914 15.538C917.914 16.672 917.312 17.512 916.192 17.834C917.27 17.904 918.138 18.716 918.138 20.172C918.138 21.096 917.802 21.824 917.13 22.342C916.458 22.86 915.604 23.126 914.554 23.126C912.412 23.126 910.928 22.104 910.438 20.494L911.572 20.004C912.174 21.278 913.196 21.922 914.638 21.922C915.996 21.922 916.85 21.292 916.85 20.186C916.85 19.108 916.01 18.562 914.33 18.562H913.238V17.4H914.106C915.632 17.4 916.626 16.714 916.626 15.776C916.626 14.81 915.828 14.264 914.554 14.264C913.056 14.264 912.146 15.034 911.754 16.056Z" fill="#2A3C3C"/>
<path d="M893.664 15.804L893.216 14.754L896.576 13.144H897.374V23H896.17V14.642L893.664 15.804ZM900.587 18.492L899.579 18.226L900.153 13.2H906.313V14.39H901.231L900.867 17.022C901.357 16.658 902.099 16.476 903.093 16.476C904.241 16.476 905.137 16.784 905.795 17.386C906.439 18.002 906.761 18.786 906.761 19.752C906.761 20.718 906.397 21.53 905.683 22.16C904.955 22.804 904.045 23.126 902.967 23.126C901.133 23.126 899.607 22.258 898.977 20.732L900.097 20.256C900.503 21.194 901.553 21.936 902.967 21.936C904.577 21.936 905.473 21.012 905.473 19.794C905.473 18.492 904.423 17.652 902.757 17.652C901.861 17.652 901.133 17.932 900.587 18.492ZM907.922 22.202C907.922 21.81 908.286 21.418 908.79 21.418C909.252 21.418 909.63 21.81 909.63 22.202C909.63 22.65 909.28 23.028 908.79 23.028C908.286 23.028 907.922 22.65 907.922 22.202ZM911.754 16.056L910.704 15.58C911.222 14.068 912.58 13.074 914.61 13.074C915.576 13.074 916.374 13.298 916.99 13.746C917.606 14.194 917.914 14.796 917.914 15.538C917.914 16.672 917.312 17.512 916.192 17.834C917.27 17.904 918.138 18.716 918.138 20.172C918.138 21.096 917.802 21.824 917.13 22.342C916.458 22.86 915.604 23.126 914.554 23.126C912.412 23.126 910.928 22.104 910.438 20.494L911.572 20.004C912.174 21.278 913.196 21.922 914.638 21.922C915.996 21.922 916.85 21.292 916.85 20.186C916.85 19.108 916.01 18.562 914.33 18.562H913.238V17.4H914.106C915.632 17.4 916.626 16.714 916.626 15.776C916.626 14.81 915.828 14.264 914.554 14.264C913.056 14.264 912.146 15.034 911.754 16.056Z" fill="#1A3341"/>
<path d="M898.148 274.096L899.144 274.18C898.808 277.72 898.16 281.692 895.532 283.912C895.388 283.72 895.076 283.396 894.884 283.228C897.368 281.176 897.92 277.408 898.148 274.096ZM902.408 273.808C902.456 274.684 902.756 280.672 906.176 283.276C905.864 283.444 905.576 283.672 905.396 283.9C901.916 281.128 901.604 274.864 901.532 273.88L902.408 273.808ZM909.536 273.556H915.8V274.432H909.536V273.556ZM909.536 276.448H915.848V277.312H909.536V276.448ZM909.44 279.352H915.788V280.216H909.44V279.352ZM908.984 273.556H909.896V277.264C909.896 279.34 909.596 282.172 907.532 283.972C907.4 283.78 907.04 283.456 906.848 283.324C908.78 281.632 908.984 279.196 908.984 277.264V273.556ZM915.404 273.556H916.34V282.64C916.34 283.276 916.172 283.588 915.716 283.744C915.248 283.9 914.456 283.912 913.16 283.912C913.1 283.648 912.932 283.216 912.776 282.964C913.772 283 914.756 282.988 915.032 282.988C915.308 282.976 915.404 282.892 915.404 282.628V273.556Z" fill="#76848D"/>
<path d="M937.726 27.804L937.278 26.754L940.638 25.144H941.436V35H940.232V26.642L937.726 27.804ZM944.65 30.492L943.642 30.226L944.216 25.2H950.376V26.39H945.294L944.93 29.022C945.42 28.658 946.162 28.476 947.156 28.476C948.304 28.476 949.2 28.784 949.858 29.386C950.502 30.002 950.824 30.786 950.824 31.752C950.824 32.718 950.46 33.53 949.746 34.16C949.018 34.804 948.108 35.126 947.03 35.126C945.196 35.126 943.67 34.258 943.04 32.732L944.16 32.256C944.566 33.194 945.616 33.936 947.03 33.936C948.64 33.936 949.536 33.012 949.536 31.794C949.536 30.492 948.486 29.652 946.82 29.652C945.924 29.652 945.196 29.932 944.65 30.492ZM951.984 34.202C951.984 33.81 952.348 33.418 952.852 33.418C953.314 33.418 953.692 33.81 953.692 34.202C953.692 34.65 953.342 35.028 952.852 35.028C952.348 35.028 951.984 34.65 951.984 34.202ZM954.85 30.1C954.85 28.588 955.2 27.37 955.914 26.46C956.614 25.55 957.65 25.088 959.008 25.088C961.794 25.088 963.18 26.922 963.18 30.1C963.18 31.626 962.83 32.83 962.144 33.74C961.444 34.65 960.408 35.112 959.036 35.112C957.72 35.112 956.698 34.65 955.956 33.726C955.214 32.802 954.85 31.598 954.85 30.1ZM956.138 30.1C956.138 32.494 957.23 33.922 959.036 33.922C960.94 33.922 961.892 32.648 961.892 30.1C961.892 27.552 960.926 26.278 959.008 26.278C957.062 26.278 956.138 27.678 956.138 30.1Z" fill="#2A3C3C"/>
<path d="M937.726 27.804L937.278 26.754L940.638 25.144H941.436V35H940.232V26.642L937.726 27.804ZM944.65 30.492L943.642 30.226L944.216 25.2H950.376V26.39H945.294L944.93 29.022C945.42 28.658 946.162 28.476 947.156 28.476C948.304 28.476 949.2 28.784 949.858 29.386C950.502 30.002 950.824 30.786 950.824 31.752C950.824 32.718 950.46 33.53 949.746 34.16C949.018 34.804 948.108 35.126 947.03 35.126C945.196 35.126 943.67 34.258 943.04 32.732L944.16 32.256C944.566 33.194 945.616 33.936 947.03 33.936C948.64 33.936 949.536 33.012 949.536 31.794C949.536 30.492 948.486 29.652 946.82 29.652C945.924 29.652 945.196 29.932 944.65 30.492ZM951.984 34.202C951.984 33.81 952.348 33.418 952.852 33.418C953.314 33.418 953.692 33.81 953.692 34.202C953.692 34.65 953.342 35.028 952.852 35.028C952.348 35.028 951.984 34.65 951.984 34.202ZM954.85 30.1C954.85 28.588 955.2 27.37 955.914 26.46C956.614 25.55 957.65 25.088 959.008 25.088C961.794 25.088 963.18 26.922 963.18 30.1C963.18 31.626 962.83 32.83 962.144 33.74C961.444 34.65 960.408 35.112 959.036 35.112C957.72 35.112 956.698 34.65 955.956 33.726C955.214 32.802 954.85 31.598 954.85 30.1ZM956.138 30.1C956.138 32.494 957.23 33.922 959.036 33.922C960.94 33.922 961.892 32.648 961.892 30.1C961.892 27.552 960.926 26.278 959.008 26.278C957.062 26.278 956.138 27.678 956.138 30.1Z" fill="#1A3341"/>
<path d="M942.736 273.052H943.708C943.672 277.648 943.66 281.884 939.568 283.972C939.436 283.744 939.136 283.42 938.896 283.252C942.82 281.368 942.724 277.408 942.736 273.052ZM939.448 276.004H946.888V276.904H939.448V276.004ZM946.336 276.004H947.26V282.4C947.26 282.832 947.32 282.904 947.692 282.904C947.86 282.904 948.7 282.904 948.928 282.904C949.264 282.904 949.324 282.616 949.36 281.164C949.576 281.332 949.96 281.5 950.212 281.572C950.128 283.252 949.888 283.792 949 283.792C948.796 283.792 947.752 283.792 947.56 283.792C946.636 283.792 946.336 283.504 946.336 282.4V276.004ZM953.536 273.556H959.8V274.432H953.536V273.556ZM953.536 276.448H959.848V277.312H953.536V276.448ZM953.44 279.352H959.788V280.216H953.44V279.352ZM952.984 273.556H953.896V277.264C953.896 279.34 953.596 282.172 951.532 283.972C951.4 283.78 951.04 283.456 950.848 283.324C952.78 281.632 952.984 279.196 952.984 277.264V273.556ZM959.404 273.556H960.34V282.64C960.34 283.276 960.172 283.588 959.716 283.744C959.248 283.9 958.456 283.912 957.16 283.912C957.1 283.648 956.932 283.216 956.776 282.964C957.772 283 958.756 282.988 959.032 282.988C959.308 282.976 959.404 282.892 959.404 282.628V273.556Z" fill="#76848D"/>
<path d="M983.722 23.804L983.274 22.754L986.634 21.144H987.432V31H986.228V22.642L983.722 23.804ZM990.646 26.492L989.638 26.226L990.212 21.2H996.372V22.39H991.29L990.926 25.022C991.416 24.658 992.158 24.476 993.152 24.476C994.3 24.476 995.196 24.784 995.854 25.386C996.498 26.002 996.82 26.786 996.82 27.752C996.82 28.718 996.456 29.53 995.742 30.16C995.014 30.804 994.104 31.126 993.026 31.126C991.192 31.126 989.666 30.258 989.036 28.732L990.156 28.256C990.562 29.194 991.612 29.936 993.026 29.936C994.636 29.936 995.532 29.012 995.532 27.794C995.532 26.492 994.482 25.652 992.816 25.652C991.92 25.652 991.192 25.932 990.646 26.492ZM997.981 30.202C997.981 29.81 998.345 29.418 998.849 29.418C999.311 29.418 999.689 29.81 999.689 30.202C999.689 30.65 999.339 31.028 998.849 31.028C998.345 31.028 997.981 30.65 997.981 30.202ZM1000.73 23.804L1000.29 22.754L1003.65 21.144H1004.44V31H1003.24V22.642L1000.73 23.804Z" fill="#2A3C3C"/>
<path d="M983.722 23.804L983.274 22.754L986.634 21.144H987.432V31H986.228V22.642L983.722 23.804ZM990.646 26.492L989.638 26.226L990.212 21.2H996.372V22.39H991.29L990.926 25.022C991.416 24.658 992.158 24.476 993.152 24.476C994.3 24.476 995.196 24.784 995.854 25.386C996.498 26.002 996.82 26.786 996.82 27.752C996.82 28.718 996.456 29.53 995.742 30.16C995.014 30.804 994.104 31.126 993.026 31.126C991.192 31.126 989.666 30.258 989.036 28.732L990.156 28.256C990.562 29.194 991.612 29.936 993.026 29.936C994.636 29.936 995.532 29.012 995.532 27.794C995.532 26.492 994.482 25.652 992.816 25.652C991.92 25.652 991.192 25.932 990.646 26.492ZM997.981 30.202C997.981 29.81 998.345 29.418 998.849 29.418C999.311 29.418 999.689 29.81 999.689 30.202C999.689 30.65 999.339 31.028 998.849 31.028C998.345 31.028 997.981 30.65 997.981 30.202ZM1000.73 23.804L1000.29 22.754L1003.65 21.144H1004.44V31H1003.24V22.642L1000.73 23.804Z" fill="#1A3341"/>
<path d="M983.16 277.408H993.924V278.332H983.16V277.408ZM988.032 272.932H988.992V283.96H988.032V272.932ZM997.536 273.556H1003.8V274.432H997.536V273.556ZM997.536 276.448H1003.85V277.312H997.536V276.448ZM997.44 279.352H1003.79V280.216H997.44V279.352ZM996.984 273.556H997.896V277.264C997.896 279.34 997.596 282.172 995.532 283.972C995.4 283.78 995.04 283.456 994.848 283.324C996.78 281.632 996.984 279.196 996.984 277.264V273.556ZM1003.4 273.556H1004.34V282.64C1004.34 283.276 1004.17 283.588 1003.72 283.744C1003.25 283.9 1002.46 283.912 1001.16 283.912C1001.1 283.648 1000.93 283.216 1000.78 282.964C1001.77 283 1002.76 282.988 1003.03 282.988C1003.31 282.976 1003.4 282.892 1003.4 282.628V273.556Z" fill="#76848D"/>
<path d="M1026.53 86.804L1026.08 85.754L1029.44 84.144H1030.24V94H1029.03V85.642L1026.53 86.804ZM1038.79 94H1037.57V91.998H1031.58V91.186L1037.71 84.2H1038.79V90.864H1040.61V91.998H1038.79V94ZM1037.57 86.16L1033.26 90.864H1037.57V86.16ZM1041.39 93.202C1041.39 92.81 1041.75 92.418 1042.26 92.418C1042.72 92.418 1043.1 92.81 1043.1 93.202C1043.1 93.65 1042.75 94.028 1042.26 94.028C1041.75 94.028 1041.39 93.65 1041.39 93.202ZM1044.25 89.366C1044.25 87.672 1044.67 86.37 1045.5 85.446C1046.33 84.536 1047.36 84.074 1048.61 84.074C1050.25 84.074 1051.53 84.816 1052.08 85.992L1051.13 86.636C1050.55 85.726 1049.7 85.278 1048.55 85.278C1047.68 85.278 1046.96 85.614 1046.37 86.286C1045.78 86.972 1045.49 87.896 1045.5 89.086C1046.05 88.064 1047.32 87.448 1048.72 87.448C1049.85 87.448 1050.76 87.742 1051.42 88.344C1052.08 88.946 1052.42 89.744 1052.42 90.724C1052.42 91.718 1052.05 92.544 1051.31 93.174C1050.57 93.804 1049.64 94.126 1048.54 94.126C1045.89 94.126 1044.25 92.404 1044.25 89.366ZM1045.65 90.556C1045.92 91.942 1046.97 92.922 1048.52 92.922C1049.28 92.922 1049.91 92.726 1050.4 92.32C1050.89 91.928 1051.13 91.41 1051.13 90.78C1051.13 89.394 1050.15 88.652 1048.65 88.652C1047.82 88.652 1047.14 88.848 1046.61 89.24C1046.06 89.632 1045.75 90.066 1045.65 90.556Z" fill="#2A3C3C"/>
<path d="M1026.53 86.804L1026.08 85.754L1029.44 84.144H1030.24V94H1029.03V85.642L1026.53 86.804ZM1038.79 94H1037.57V91.998H1031.58V91.186L1037.71 84.2H1038.79V90.864H1040.61V91.998H1038.79V94ZM1037.57 86.16L1033.26 90.864H1037.57V86.16ZM1041.39 93.202C1041.39 92.81 1041.75 92.418 1042.26 92.418C1042.72 92.418 1043.1 92.81 1043.1 93.202C1043.1 93.65 1042.75 94.028 1042.26 94.028C1041.75 94.028 1041.39 93.65 1041.39 93.202ZM1044.25 89.366C1044.25 87.672 1044.67 86.37 1045.5 85.446C1046.33 84.536 1047.36 84.074 1048.61 84.074C1050.25 84.074 1051.53 84.816 1052.08 85.992L1051.13 86.636C1050.55 85.726 1049.7 85.278 1048.55 85.278C1047.68 85.278 1046.96 85.614 1046.37 86.286C1045.78 86.972 1045.49 87.896 1045.5 89.086C1046.05 88.064 1047.32 87.448 1048.72 87.448C1049.85 87.448 1050.76 87.742 1051.42 88.344C1052.08 88.946 1052.42 89.744 1052.42 90.724C1052.42 91.718 1052.05 92.544 1051.31 93.174C1050.57 93.804 1049.64 94.126 1048.54 94.126C1045.89 94.126 1044.25 92.404 1044.25 89.366ZM1045.65 90.556C1045.92 91.942 1046.97 92.922 1048.52 92.922C1049.28 92.922 1049.91 92.726 1050.4 92.32C1050.89 91.928 1051.13 91.41 1051.13 90.78C1051.13 89.394 1050.15 88.652 1048.65 88.652C1047.82 88.652 1047.14 88.848 1046.61 89.24C1046.06 89.632 1045.75 90.066 1045.65 90.556Z" fill="#1A3341"/>
<path d="M1021.66 277.408H1032.42V278.332H1021.66V277.408ZM1026.53 272.932H1027.49V283.96H1026.53V272.932ZM1033.53 277.828H1044.51V278.812H1033.53V277.828ZM1048.04 273.556H1054.3V274.432H1048.04V273.556ZM1048.04 276.448H1054.35V277.312H1048.04V276.448ZM1047.94 279.352H1054.29V280.216H1047.94V279.352ZM1047.48 273.556H1048.4V277.264C1048.4 279.34 1048.1 282.172 1046.03 283.972C1045.9 283.78 1045.54 283.456 1045.35 283.324C1047.28 281.632 1047.48 279.196 1047.48 277.264V273.556ZM1053.9 273.556H1054.84V282.64C1054.84 283.276 1054.67 283.588 1054.22 283.744C1053.75 283.9 1052.96 283.912 1051.66 283.912C1051.6 283.648 1051.43 283.216 1051.28 282.964C1052.27 283 1053.26 282.988 1053.53 282.988C1053.81 282.976 1053.9 282.892 1053.9 282.628V273.556Z" fill="#76848D"/>
<path d="M1072.72 23.804L1072.27 22.754L1075.63 21.144H1076.43V31H1075.23V22.642L1072.72 23.804ZM1079.65 26.492L1078.64 26.226L1079.21 21.2H1085.37V22.39H1080.29L1079.93 25.022C1080.42 24.658 1081.16 24.476 1082.15 24.476C1083.3 24.476 1084.2 24.784 1084.85 25.386C1085.5 26.002 1085.82 26.786 1085.82 27.752C1085.82 28.718 1085.46 29.53 1084.74 30.16C1084.01 30.804 1083.1 31.126 1082.03 31.126C1080.19 31.126 1078.67 30.258 1078.04 28.732L1079.16 28.256C1079.56 29.194 1080.61 29.936 1082.03 29.936C1083.64 29.936 1084.53 29.012 1084.53 27.794C1084.53 26.492 1083.48 25.652 1081.82 25.652C1080.92 25.652 1080.19 25.932 1079.65 26.492ZM1086.98 30.202C1086.98 29.81 1087.34 29.418 1087.85 29.418C1088.31 29.418 1088.69 29.81 1088.69 30.202C1088.69 30.65 1088.34 31.028 1087.85 31.028C1087.34 31.028 1086.98 30.65 1086.98 30.202ZM1089.73 23.804L1089.29 22.754L1092.65 21.144H1093.44V31H1092.24V22.642L1089.73 23.804Z" fill="#2A3C3C"/>
<path d="M1072.72 23.804L1072.27 22.754L1075.63 21.144H1076.43V31H1075.23V22.642L1072.72 23.804ZM1079.65 26.492L1078.64 26.226L1079.21 21.2H1085.37V22.39H1080.29L1079.93 25.022C1080.42 24.658 1081.16 24.476 1082.15 24.476C1083.3 24.476 1084.2 24.784 1084.85 25.386C1085.5 26.002 1085.82 26.786 1085.82 27.752C1085.82 28.718 1085.46 29.53 1084.74 30.16C1084.01 30.804 1083.1 31.126 1082.03 31.126C1080.19 31.126 1078.67 30.258 1078.04 28.732L1079.16 28.256C1079.56 29.194 1080.61 29.936 1082.03 29.936C1083.64 29.936 1084.53 29.012 1084.53 27.794C1084.53 26.492 1083.48 25.652 1081.82 25.652C1080.92 25.652 1080.19 25.932 1079.65 26.492ZM1086.98 30.202C1086.98 29.81 1087.34 29.418 1087.85 29.418C1088.31 29.418 1088.69 29.81 1088.69 30.202C1088.69 30.65 1088.34 31.028 1087.85 31.028C1087.34 31.028 1086.98 30.65 1086.98 30.202ZM1089.73 23.804L1089.29 22.754L1092.65 21.144H1093.44V31H1092.24V22.642L1089.73 23.804Z" fill="#1A3341"/>
<path d="M1065.66 277.408H1076.42V278.332H1065.66V277.408ZM1070.53 272.932H1071.49V283.96H1070.53V272.932ZM1078.69 274.648H1087.31V275.608H1078.69V274.648ZM1077.67 281.764H1088.33V282.772H1077.67V281.764ZM1092.04 273.556H1098.3V274.432H1092.04V273.556ZM1092.04 276.448H1098.35V277.312H1092.04V276.448ZM1091.94 279.352H1098.29V280.216H1091.94V279.352ZM1091.48 273.556H1092.4V277.264C1092.4 279.34 1092.1 282.172 1090.03 283.972C1089.9 283.78 1089.54 283.456 1089.35 283.324C1091.28 281.632 1091.48 279.196 1091.48 277.264V273.556ZM1097.9 273.556H1098.84V282.64C1098.84 283.276 1098.67 283.588 1098.22 283.744C1097.75 283.9 1096.96 283.912 1095.66 283.912C1095.6 283.648 1095.43 283.216 1095.28 282.964C1096.27 283 1097.26 282.988 1097.53 282.988C1097.81 282.976 1097.9 282.892 1097.9 282.628V273.556Z" fill="#76848D"/>
<path d="M0 266.5L1120 266.5" stroke="#ABBEC9"/>
<path d="M56.5 67.7798L106.08 147.426L149.465 46.0892L198.071 76.8412L241.62 28L288.536 42.6534L334.051 52.657L375.14 67.7798L420.792 120.74L465.812 94.2816L512.383 107.383L556.633 90.3177L601.298 128.801L643.513 185L689.176 56.3646L737.357 95.9675L780.342 48.7148L823.328 61.7184L865.543 49.7148L907.403 39.2996L952.354 53.2455L995.201 47.361L1039.95 67.6029L1080 47.361" stroke="#737AF9" stroke-width="4" stroke-linejoin="round"/>
<circle cx="147" cy="46" r="7" fill="#6D73F9" stroke="white" stroke-width="2"/>
<circle cx="103" cy="148" r="7" fill="#6D73F9" stroke="white" stroke-width="2"/>
<circle cx="56" cy="68" r="7" fill="#6D73F9" stroke="white" stroke-width="2"/>
<circle cx="195" cy="76" r="7" fill="#6D73F9" stroke="white" stroke-width="2"/>
<circle cx="239" cy="28" r="7" fill="#6D73F9" stroke="white" stroke-width="2"/>
<circle cx="285" cy="42" r="7" fill="#6D73F9" stroke="white" stroke-width="2"/>
<circle cx="331" cy="53" r="7" fill="#6D73F9" stroke="white" stroke-width="2"/>
<circle cx="372" cy="68" r="7" fill="#6D73F9" stroke="white" stroke-width="2"/>
<circle cx="417" cy="121" r="7" fill="#6D73F9" stroke="white" stroke-width="2"/>
<circle cx="463" cy="95" r="7" fill="#6D73F9" stroke="white" stroke-width="2"/>
<circle cx="509" cy="107" r="7" fill="#6D73F9" stroke="white" stroke-width="2"/>
<circle cx="553" cy="91" r="7" fill="#6D73F9" stroke="white" stroke-width="2"/>
<circle cx="597" cy="128" r="7" fill="#6D73F9" stroke="white" stroke-width="2"/>
<circle cx="640" cy="185" r="7" fill="#6D73F9" stroke="white" stroke-width="2"/>
<circle cx="687" cy="57" r="7" fill="#6D73F9" stroke="white" stroke-width="2"/>
<circle cx="735" cy="96" r="7" fill="#6D73F9" stroke="white" stroke-width="2"/>
<circle cx="777" cy="49" r="7" fill="#6D73F9" stroke="white" stroke-width="2"/>
<circle cx="820" cy="61" r="7" fill="#6D73F9" stroke="white" stroke-width="2"/>
<circle cx="863" cy="50" r="7" fill="#6D73F9" stroke="white" stroke-width="2"/>
<circle cx="904" cy="40" r="7" fill="#6D73F9" stroke="white" stroke-width="2"/>
<circle cx="949" cy="53" r="7" fill="#6D73F9" stroke="white" stroke-width="2"/>
<circle cx="992" cy="47" r="7" fill="#6D73F9" stroke="white" stroke-width="2"/>
<circle cx="1037" cy="66" r="7" fill="#6D73F9" stroke="white" stroke-width="2"/>
<circle cx="1081" cy="47" r="7" fill="#6D73F9" stroke="white" stroke-width="2"/>
<path d="M0.42 177.832L0.036 176.932L2.916 175.552H3.6V184H2.568V176.836L0.42 177.832ZM6.09038 178.372L5.21438 178.06C5.51438 176.572 6.64238 175.504 8.43038 175.504C10.1584 175.504 11.2144 176.5 11.2144 178.024C11.2144 178.828 10.8664 179.632 10.4344 180.208C10.2184 180.508 9.94238 180.796 9.61838 181.096C8.95838 181.684 8.49038 181.996 7.80638 182.428L6.88238 183.004H11.5264V184H4.98638V183.184L6.81038 181.972C7.13438 181.768 7.36238 181.612 7.49438 181.516C7.62638 181.432 7.84238 181.276 8.13038 181.072C8.41838 180.868 8.63438 180.688 8.77838 180.556C8.91038 180.424 9.09038 180.256 9.29438 180.04C9.84638 179.44 10.0504 178.888 10.1104 178.132C10.1104 177.04 9.40238 176.548 8.35838 176.548C7.71038 176.548 7.19438 176.728 6.82238 177.088C6.45038 177.448 6.19838 177.88 6.09038 178.372Z" fill="#76848D"/>
<path d="M0.42 91.832L0.036 90.932L2.916 89.552H3.6V98H2.568V90.836L0.42 91.832ZM10.9264 98H9.88238V96.284H4.74638V95.588L10.0024 89.6H10.9264V95.312H12.4864V96.284H10.9264V98ZM9.88238 91.28L6.18638 95.312H9.88238V91.28Z" fill="#76848D"/>
<path d="M0.42 5.832L0.036 4.932L2.916 3.552H3.6V12H2.568V4.836L0.42 5.832ZM5.13038 8.028C5.13038 6.576 5.49038 5.46 6.19838 4.668C6.90638 3.888 7.79438 3.492 8.86238 3.492C10.2664 3.492 11.3704 4.128 11.8384 5.136L11.0224 5.688C10.5304 4.908 9.79838 4.524 8.81438 4.524C8.07038 4.524 7.44638 4.812 6.94238 5.388C6.43838 5.976 6.18638 6.768 6.19838 7.788C6.66638 6.912 7.75838 6.384 8.95838 6.384C9.93038 6.384 10.7104 6.636 11.2744 7.152C11.8384 7.668 12.1264 8.352 12.1264 9.192C12.1264 10.044 11.8144 10.752 11.1784 11.292C10.5424 11.832 9.75038 12.108 8.80238 12.108C6.53438 12.108 5.13038 10.632 5.13038 8.028ZM6.33038 9.048C6.55838 10.236 7.45838 11.076 8.79038 11.076C9.43838 11.076 9.97838 10.908 10.3984 10.56C10.8184 10.224 11.0224 9.78 11.0224 9.24C11.0224 8.052 10.1824 7.416 8.89838 7.416C8.19038 7.416 7.60238 7.584 7.14638 7.92C6.67838 8.256 6.41438 8.628 6.33038 9.048Z" fill="#76848D"/>
</svg>
