<svg width="311" height="478" viewBox="0 0 311 478" fill="none" xmlns="http://www.w3.org/2000/svg">
<path d="M40 13H65C65.5523 13 66 13.4477 66 14V30C66 30.5523 65.5523 31 65 31H40V13Z" fill="url(#paint0_linear_5796_19897)"/>
<path d="M81.364 26H80.146V23.998H74.154V23.186L80.286 16.2H81.364V22.864H83.184V23.998H81.364V26ZM80.146 18.16L75.834 22.864H80.146V18.16ZM89.4823 17.39H83.5462V16.2H90.9802V16.998L86.1082 26H84.7782L89.4823 17.39ZM91.8166 26C91.2986 26.056 90.9066 25.762 90.9066 25.258C90.9066 24.768 91.2146 24.46 91.7606 24.46C92.3766 24.46 92.7826 24.88 92.7826 25.664C92.7826 27.064 92.0126 27.778 90.9906 28.016L90.6966 27.358C91.0046 27.274 91.2846 27.106 91.5366 26.84C91.7746 26.574 91.8726 26.294 91.8166 26ZM93.8011 21.1C93.8011 19.588 94.1511 18.37 94.8651 17.46C95.5651 16.55 96.6011 16.088 97.9591 16.088C100.745 16.088 102.131 17.922 102.131 21.1C102.131 22.626 101.781 23.83 101.095 24.74C100.395 25.65 99.3591 26.112 97.9871 26.112C96.6711 26.112 95.6491 25.65 94.9071 24.726C94.1651 23.802 93.8011 22.598 93.8011 21.1ZM95.0891 21.1C95.0891 23.494 96.1811 24.922 97.9871 24.922C99.8911 24.922 100.843 23.648 100.843 21.1C100.843 18.552 99.8771 17.278 97.9591 17.278C96.0131 17.278 95.0891 18.678 95.0891 21.1ZM103.177 21.366C103.177 19.672 103.597 18.37 104.423 17.446C105.249 16.536 106.285 16.074 107.531 16.074C109.169 16.074 110.457 16.816 111.003 17.992L110.051 18.636C109.477 17.726 108.623 17.278 107.475 17.278C106.607 17.278 105.879 17.614 105.291 18.286C104.703 18.972 104.409 19.896 104.423 21.086C104.969 20.064 106.243 19.448 107.643 19.448C108.777 19.448 109.687 19.742 110.345 20.344C111.003 20.946 111.339 21.744 111.339 22.724C111.339 23.718 110.975 24.544 110.233 25.174C109.491 25.804 108.567 26.126 107.461 26.126C104.815 26.126 103.177 24.404 103.177 21.366ZM104.577 22.556C104.843 23.942 105.893 24.922 107.447 24.922C108.203 24.922 108.833 24.726 109.323 24.32C109.813 23.928 110.051 23.41 110.051 22.78C110.051 21.394 109.071 20.652 107.573 20.652C106.747 20.652 106.061 20.848 105.529 21.24C104.983 21.632 104.675 22.066 104.577 22.556ZM119.109 26H117.891V23.998H111.899V23.186L118.031 16.2H119.109V22.864H120.929V23.998H119.109V26ZM117.891 18.16L113.579 22.864H117.891V18.16Z" fill="#1A3341"/>
<path d="M40 38H50C50.5523 38 51 38.4477 51 39V55C51 55.5523 50.5523 56 50 56H40V38Z" fill="url(#paint1_linear_5796_19897)"/>
<path d="M60.722 44.434L59.7 44.07C60.05 42.334 61.366 41.088 63.452 41.088C65.468 41.088 66.7 42.25 66.7 44.028C66.7 44.966 66.294 45.904 65.79 46.576C65.538 46.926 65.216 47.262 64.838 47.612C64.068 48.298 63.522 48.662 62.724 49.166L61.646 49.838H67.064V51H59.434V50.048L61.562 48.634C61.94 48.396 62.206 48.214 62.36 48.102C62.514 48.004 62.766 47.822 63.102 47.584C63.438 47.346 63.69 47.136 63.858 46.982C64.012 46.828 64.222 46.632 64.46 46.38C65.104 45.68 65.342 45.036 65.412 44.154C65.412 42.88 64.586 42.306 63.368 42.306C62.612 42.306 62.01 42.516 61.576 42.936C61.142 43.356 60.848 43.86 60.722 44.434ZM67.9223 43.804L67.4743 42.754L70.8343 41.144H71.6323V51H70.4283V42.642L67.9223 43.804ZM74.3557 51C73.8377 51.056 73.4457 50.762 73.4457 50.258C73.4457 49.768 73.7537 49.46 74.2997 49.46C74.9157 49.46 75.3217 49.88 75.3217 50.664C75.3217 52.064 74.5517 52.778 73.5297 53.016L73.2357 52.358C73.5437 52.274 73.8237 52.106 74.0757 51.84C74.3137 51.574 74.4117 51.294 74.3557 51ZM77.3062 44.056L76.2562 43.58C76.7742 42.068 78.1322 41.074 80.1622 41.074C81.1282 41.074 81.9262 41.298 82.5422 41.746C83.1582 42.194 83.4662 42.796 83.4662 43.538C83.4662 44.672 82.8642 45.512 81.7442 45.834C82.8222 45.904 83.6902 46.716 83.6902 48.172C83.6902 49.096 83.3542 49.824 82.6822 50.342C82.0102 50.86 81.1562 51.126 80.1062 51.126C77.9642 51.126 76.4802 50.104 75.9902 48.494L77.1242 48.004C77.7262 49.278 78.7482 49.922 80.1902 49.922C81.5482 49.922 82.4022 49.292 82.4022 48.186C82.4022 47.108 81.5622 46.562 79.8822 46.562H78.7902V45.4H79.6582C81.1842 45.4 82.1782 44.714 82.1782 43.776C82.1782 42.81 81.3802 42.264 80.1062 42.264C78.6082 42.264 77.6982 43.034 77.3062 44.056ZM85.8068 44.056L84.7568 43.58C85.2748 42.068 86.6328 41.074 88.6628 41.074C89.6288 41.074 90.4268 41.298 91.0428 41.746C91.6588 42.194 91.9668 42.796 91.9668 43.538C91.9668 44.672 91.3648 45.512 90.2448 45.834C91.3228 45.904 92.1908 46.716 92.1908 48.172C92.1908 49.096 91.8548 49.824 91.1828 50.342C90.5108 50.86 89.6568 51.126 88.6068 51.126C86.4648 51.126 84.9808 50.104 84.4908 48.494L85.6248 48.004C86.2268 49.278 87.2488 49.922 88.6908 49.922C90.0488 49.922 90.9028 49.292 90.9028 48.186C90.9028 47.108 90.0628 46.562 88.3828 46.562H87.2908V45.4H88.1588C89.6848 45.4 90.6788 44.714 90.6788 43.776C90.6788 42.81 89.8808 42.264 88.6068 42.264C87.1088 42.264 86.1988 43.034 85.8068 44.056ZM93.3415 46.366C93.3415 44.672 93.7615 43.37 94.5875 42.446C95.4135 41.536 96.4495 41.074 97.6955 41.074C99.3335 41.074 100.621 41.816 101.167 42.992L100.215 43.636C99.6415 42.726 98.7875 42.278 97.6395 42.278C96.7715 42.278 96.0435 42.614 95.4555 43.286C94.8675 43.972 94.5735 44.896 94.5875 46.086C95.1335 45.064 96.4075 44.448 97.8075 44.448C98.9415 44.448 99.8515 44.742 100.509 45.344C101.167 45.946 101.503 46.744 101.503 47.724C101.503 48.718 101.139 49.544 100.397 50.174C99.6555 50.804 98.7315 51.126 97.6255 51.126C94.9795 51.126 93.3415 49.404 93.3415 46.366ZM94.7415 47.556C95.0075 48.942 96.0575 49.922 97.6115 49.922C98.3675 49.922 98.9975 49.726 99.4875 49.32C99.9775 48.928 100.215 48.41 100.215 47.78C100.215 46.394 99.2355 45.652 97.7375 45.652C96.9115 45.652 96.2255 45.848 95.6935 46.24C95.1475 46.632 94.8395 47.066 94.7415 47.556Z" fill="#1A3341"/>
<path opacity="0.6" d="M0.576 32.84H11.472V33.812H0.576V32.84ZM15.276 34.328H20.892V32.312H15.408C15.408 32.936 15.372 33.62 15.276 34.328ZM20.892 29.468H15.408V31.46H20.892V29.468ZM21.816 28.592V37.616C21.816 38.24 21.636 38.552 21.192 38.696C20.736 38.852 19.944 38.864 18.66 38.864C18.6 38.612 18.432 38.192 18.288 37.94C19.284 37.976 20.244 37.964 20.52 37.964C20.796 37.952 20.892 37.868 20.892 37.604V35.204H15.132C14.832 36.56 14.232 37.916 13.068 38.936C12.948 38.744 12.588 38.42 12.408 38.288C14.316 36.608 14.508 34.172 14.508 32.264V28.592H21.816Z" fill="#1A3341"/>
<path d="M40 212H55C55.5523 212 56 212.448 56 213V229C56 229.552 55.5523 230 55 230H40V212Z" fill="url(#paint2_linear_5796_19897)"/>
<path d="M65.722 218.434L64.7 218.07C65.05 216.334 66.366 215.088 68.452 215.088C70.468 215.088 71.7 216.25 71.7 218.028C71.7 218.966 71.294 219.904 70.79 220.576C70.538 220.926 70.216 221.262 69.838 221.612C69.068 222.298 68.522 222.662 67.724 223.166L66.646 223.838H72.064V225H64.434V224.048L66.562 222.634C66.94 222.396 67.206 222.214 67.36 222.102C67.514 222.004 67.766 221.822 68.102 221.584C68.438 221.346 68.69 221.136 68.858 220.982C69.012 220.828 69.222 220.632 69.46 220.38C70.104 219.68 70.342 219.036 70.412 218.154C70.412 216.88 69.586 216.306 68.368 216.306C67.612 216.306 67.01 216.516 66.576 216.936C66.142 217.356 65.848 217.86 65.722 218.434ZM78.6483 216.39H72.7123V215.2H80.1463V215.998L75.2743 225H73.9443L78.6483 216.39ZM80.9827 225C80.4647 225.056 80.0727 224.762 80.0727 224.258C80.0727 223.768 80.3807 223.46 80.9267 223.46C81.5427 223.46 81.9487 223.88 81.9487 224.664C81.9487 226.064 81.1787 226.778 80.1567 227.016L79.8627 226.358C80.1707 226.274 80.4507 226.106 80.7027 225.84C80.9407 225.574 81.0387 225.294 80.9827 225ZM91.1152 219.918C91.1152 221.584 90.7232 222.872 89.9252 223.768C89.1272 224.678 88.0632 225.126 86.7332 225.126C85.1092 225.126 83.8352 224.44 83.2052 223.39L84.2132 222.69C84.7732 223.474 85.7952 223.922 86.9012 223.922C87.8112 223.922 88.5392 223.558 89.1132 222.83C89.6872 222.116 89.9252 221.22 89.8552 220.156C89.3932 221.22 88.2312 222.004 86.6772 222.004C85.5852 222.004 84.6892 221.696 83.9892 221.066C83.2752 220.45 82.9252 219.638 82.9252 218.644C82.9252 217.552 83.3032 216.684 84.0592 216.04C84.8152 215.396 85.8232 215.074 87.0692 215.074C89.5892 215.074 91.1152 216.838 91.1152 219.918ZM89.6452 218.602C89.4352 217.3 88.5392 216.278 86.9292 216.278C85.2492 216.278 84.2132 217.146 84.2132 218.602C84.2132 219.988 85.2632 220.8 86.9012 220.8C87.6432 220.8 88.2732 220.576 88.7632 220.128C89.2532 219.68 89.5472 219.176 89.6452 218.602ZM93.131 218.056L92.081 217.58C92.599 216.068 93.957 215.074 95.987 215.074C96.953 215.074 97.751 215.298 98.367 215.746C98.983 216.194 99.291 216.796 99.291 217.538C99.291 218.672 98.689 219.512 97.569 219.834C98.647 219.904 99.515 220.716 99.515 222.172C99.515 223.096 99.179 223.824 98.507 224.342C97.835 224.86 96.981 225.126 95.931 225.126C93.789 225.126 92.305 224.104 91.815 222.494L92.949 222.004C93.551 223.278 94.573 223.922 96.015 223.922C97.373 223.922 98.227 223.292 98.227 222.186C98.227 221.108 97.387 220.562 95.707 220.562H94.615V219.4H95.483C97.009 219.4 98.003 218.714 98.003 217.776C98.003 216.81 97.205 216.264 95.931 216.264C94.433 216.264 93.523 217.034 93.131 218.056ZM107.428 225H106.21V222.998H100.218V222.186L106.35 215.2H107.428V221.864H109.248V222.998H107.428V225ZM106.21 217.16L101.898 221.864H106.21V217.16Z" fill="#1A3341"/>
<path d="M40 236H49C49.5523 236 50 236.448 50 237V253C50 253.552 49.5523 254 49 254H40V236Z" fill="url(#paint3_linear_5796_19897)"/>
<path d="M58.49 241.804L58.042 240.754L61.402 239.144H62.2V249H60.996V240.642L58.49 241.804ZM67.8494 243.414H68.2834C68.9134 243.414 69.4314 243.26 69.8654 242.966C70.2854 242.672 70.4954 242.28 70.4954 241.818C70.4954 240.768 69.6694 240.236 68.0314 240.236C66.4634 240.236 65.6094 240.81 65.6094 241.818C65.6094 242.728 66.5474 243.414 67.8494 243.414ZM68.2554 244.52H67.9054C67.1494 244.52 66.5194 244.688 66.0294 245.01C65.5394 245.332 65.2874 245.738 65.2874 246.228C65.2874 247.292 66.2674 247.964 68.0454 247.964C69.8514 247.964 70.8174 247.32 70.8174 246.242C70.8174 245.164 69.7814 244.52 68.2554 244.52ZM71.0134 248.37C70.2994 248.874 69.3054 249.126 68.0594 249.126C66.8134 249.126 65.8194 248.874 65.0914 248.384C64.3634 247.894 63.9994 247.222 63.9994 246.354C63.9994 245.22 64.7414 244.324 65.9314 243.932C64.8534 243.582 64.3214 242.728 64.3214 241.734C64.3214 240.11 65.6934 239.074 68.0454 239.074C70.4114 239.074 71.7834 240.11 71.7834 241.734C71.7834 242.672 71.2654 243.386 70.2294 243.862C71.4754 244.24 72.0914 245.052 72.0914 246.298C72.0914 247.18 71.7274 247.88 71.0134 248.37ZM74.1213 249C73.6033 249.056 73.2113 248.762 73.2113 248.258C73.2113 247.768 73.5193 247.46 74.0653 247.46C74.6813 247.46 75.0873 247.88 75.0873 248.664C75.0873 250.064 74.3173 250.778 73.2953 251.016L73.0013 250.358C73.3093 250.274 73.5893 250.106 73.8413 249.84C74.0793 249.574 74.1773 249.294 74.1213 249ZM77.5338 244.492L76.5258 244.226L77.0998 239.2H83.2598V240.39H78.1778L77.8138 243.022C78.3038 242.658 79.0458 242.476 80.0398 242.476C81.1878 242.476 82.0838 242.784 82.7418 243.386C83.3858 244.002 83.7078 244.786 83.7078 245.752C83.7078 246.718 83.3438 247.53 82.6298 248.16C81.9018 248.804 80.9918 249.126 79.9138 249.126C78.0798 249.126 76.5538 248.258 75.9238 246.732L77.0438 246.256C77.4498 247.194 78.4998 247.936 79.9138 247.936C81.5238 247.936 82.4198 247.012 82.4198 245.794C82.4198 244.492 81.3698 243.652 79.7038 243.652C78.8078 243.652 78.0798 243.932 77.5338 244.492ZM84.7705 244.1C84.7705 242.588 85.1205 241.37 85.8345 240.46C86.5345 239.55 87.5705 239.088 88.9285 239.088C91.7145 239.088 93.1005 240.922 93.1005 244.1C93.1005 245.626 92.7505 246.83 92.0645 247.74C91.3645 248.65 90.3285 249.112 88.9565 249.112C87.6405 249.112 86.6185 248.65 85.8765 247.726C85.1345 246.802 84.7705 245.598 84.7705 244.1ZM86.0585 244.1C86.0585 246.494 87.1505 247.922 88.9565 247.922C90.8605 247.922 91.8125 246.648 91.8125 244.1C91.8125 241.552 90.8465 240.278 88.9285 240.278C86.9825 240.278 86.0585 241.678 86.0585 244.1ZM94.1461 244.1C94.1461 242.588 94.4961 241.37 95.2101 240.46C95.9101 239.55 96.9461 239.088 98.3041 239.088C101.09 239.088 102.476 240.922 102.476 244.1C102.476 245.626 102.126 246.83 101.44 247.74C100.74 248.65 99.7041 249.112 98.3321 249.112C97.0161 249.112 95.9941 248.65 95.2521 247.726C94.5101 246.802 94.1461 245.598 94.1461 244.1ZM95.4341 244.1C95.4341 246.494 96.5261 247.922 98.3321 247.922C100.236 247.922 101.188 246.648 101.188 244.1C101.188 241.552 100.222 240.278 98.3041 240.278C96.3581 240.278 95.4341 241.678 95.4341 244.1Z" fill="#1A3341"/>
<path opacity="0.6" d="M1.992 238.764H9.948V231.864H7.608V235.62C7.608 236.004 7.656 236.148 7.908 236.148H9.072C9.276 236.148 9.6 236.136 9.768 236.088C9.78 236.34 9.804 236.628 9.828 236.844C9.684 236.904 9.384 236.904 9.108 236.904H7.812C6.972 236.904 6.768 236.532 6.768 235.596V231.864H5.112C5.04 235.092 4.74 236.868 2.676 237.864C2.58 237.648 2.328 237.336 2.136 237.168C3.96 236.316 4.176 234.792 4.236 231.864H1.992V238.764ZM1.104 231H10.86V240.432H9.948V239.628H1.992V240.516H1.104V231ZM15.276 236.328H20.892V234.312H15.408C15.408 234.936 15.372 235.62 15.276 236.328ZM20.892 231.468H15.408V233.46H20.892V231.468ZM21.816 230.592V239.616C21.816 240.24 21.636 240.552 21.192 240.696C20.736 240.852 19.944 240.864 18.66 240.864C18.6 240.612 18.432 240.192 18.288 239.94C19.284 239.976 20.244 239.964 20.52 239.964C20.796 239.952 20.892 239.868 20.892 239.604V237.204H15.132C14.832 238.56 14.232 239.916 13.068 240.936C12.948 240.744 12.588 240.42 12.408 240.288C14.316 238.608 14.508 236.172 14.508 234.264V230.592H21.816Z" fill="#1A3341"/>
<path d="M40 80H61C61.5523 80 62 80.4477 62 81V97C62 97.5523 61.5523 98 61 98H40V80Z" fill="url(#paint4_linear_5796_19897)"/>
<path d="M77.364 93H76.146V90.998H70.154V90.186L76.286 83.2H77.364V89.864H79.184V90.998H77.364V93ZM76.146 85.16L71.834 89.864H76.146V85.16ZM79.8682 88.1C79.8682 86.588 80.2182 85.37 80.9322 84.46C81.6322 83.55 82.6682 83.088 84.0262 83.088C86.8123 83.088 88.1982 84.922 88.1982 88.1C88.1982 89.626 87.8483 90.83 87.1622 91.74C86.4622 92.65 85.4263 93.112 84.0542 93.112C82.7382 93.112 81.7162 92.65 80.9742 91.726C80.2322 90.802 79.8682 89.598 79.8682 88.1ZM81.1562 88.1C81.1562 90.494 82.2482 91.922 84.0542 91.922C85.9582 91.922 86.9102 90.648 86.9102 88.1C86.9102 85.552 85.9443 84.278 84.0262 84.278C82.0802 84.278 81.1562 85.678 81.1562 88.1ZM90.1819 93C89.6639 93.056 89.2719 92.762 89.2719 92.258C89.2719 91.768 89.5799 91.46 90.1259 91.46C90.7419 91.46 91.1479 91.88 91.1479 92.664C91.1479 94.064 90.3779 94.778 89.3559 95.016L89.0619 94.358C89.3699 94.274 89.6499 94.106 89.9019 93.84C90.1399 93.574 90.2379 93.294 90.1819 93ZM93.1324 86.056L92.0824 85.58C92.6004 84.068 93.9584 83.074 95.9884 83.074C96.9544 83.074 97.7524 83.298 98.3684 83.746C98.9844 84.194 99.2924 84.796 99.2924 85.538C99.2924 86.672 98.6904 87.512 97.5704 87.834C98.6484 87.904 99.5164 88.716 99.5164 90.172C99.5164 91.096 99.1804 91.824 98.5084 92.342C97.8364 92.86 96.9824 93.126 95.9324 93.126C93.7904 93.126 92.3064 92.104 91.8164 90.494L92.9504 90.004C93.5524 91.278 94.5744 91.922 96.0164 91.922C97.3744 91.922 98.2284 91.292 98.2284 90.186C98.2284 89.108 97.3884 88.562 95.7084 88.562H94.6164V87.4H95.4844C97.0104 87.4 98.0044 86.714 98.0044 85.776C98.0044 84.81 97.2064 84.264 95.9324 84.264C94.4344 84.264 93.5244 85.034 93.1324 86.056ZM106.281 84.39H100.345V83.2H107.779V83.998L102.907 93H101.577L106.281 84.39ZM108.525 88.1C108.525 86.588 108.875 85.37 109.589 84.46C110.289 83.55 111.325 83.088 112.683 83.088C115.469 83.088 116.855 84.922 116.855 88.1C116.855 89.626 116.505 90.83 115.819 91.74C115.119 92.65 114.083 93.112 112.711 93.112C111.395 93.112 110.373 92.65 109.631 91.726C108.889 90.802 108.525 89.598 108.525 88.1ZM109.813 88.1C109.813 90.494 110.905 91.922 112.711 91.922C114.615 91.922 115.567 90.648 115.567 88.1C115.567 85.552 114.601 84.278 112.683 84.278C110.737 84.278 109.813 85.678 109.813 88.1Z" fill="#1A3341"/>
<path d="M40 104H48C48.5523 104 49 104.448 49 105V121C49 121.552 48.5523 122 48 122H40V104Z" fill="url(#paint5_linear_5796_19897)"/>
<path d="M57.49 109.804L57.042 108.754L60.402 107.144H61.2V117H59.996V108.642L57.49 109.804ZM68.5994 108.39H62.6634V107.2H70.0974V107.998L65.2254 117H63.8954L68.5994 108.39ZM70.9338 117C70.4158 117.056 70.0238 116.762 70.0238 116.258C70.0238 115.768 70.3318 115.46 70.8778 115.46C71.4938 115.46 71.8998 115.88 71.8998 116.664C71.8998 118.064 71.1298 118.778 70.1078 119.016L69.8138 118.358C70.1218 118.274 70.4018 118.106 70.6538 117.84C70.8918 117.574 70.9898 117.294 70.9338 117ZM74.3463 112.492L73.3383 112.226L73.9123 107.2H80.0723V108.39H74.9903L74.6263 111.022C75.1163 110.658 75.8583 110.476 76.8523 110.476C78.0003 110.476 78.8963 110.784 79.5543 111.386C80.1983 112.002 80.5203 112.786 80.5203 113.752C80.5203 114.718 80.1563 115.53 79.4423 116.16C78.7143 116.804 77.8043 117.126 76.7263 117.126C74.8923 117.126 73.3663 116.258 72.7363 114.732L73.8563 114.256C74.2623 115.194 75.3123 115.936 76.7263 115.936C78.3363 115.936 79.2323 115.012 79.2323 113.794C79.2323 112.492 78.1823 111.652 76.5163 111.652C75.6203 111.652 74.8923 111.932 74.3463 112.492ZM85.447 111.414H85.881C86.511 111.414 87.029 111.26 87.463 110.966C87.883 110.672 88.093 110.28 88.093 109.818C88.093 108.768 87.267 108.236 85.629 108.236C84.061 108.236 83.207 108.81 83.207 109.818C83.207 110.728 84.145 111.414 85.447 111.414ZM85.853 112.52H85.503C84.747 112.52 84.117 112.688 83.627 113.01C83.137 113.332 82.885 113.738 82.885 114.228C82.885 115.292 83.865 115.964 85.643 115.964C87.449 115.964 88.415 115.32 88.415 114.242C88.415 113.164 87.379 112.52 85.853 112.52ZM88.611 116.37C87.897 116.874 86.903 117.126 85.657 117.126C84.411 117.126 83.417 116.874 82.689 116.384C81.961 115.894 81.597 115.222 81.597 114.354C81.597 113.22 82.339 112.324 83.529 111.932C82.451 111.582 81.919 110.728 81.919 109.734C81.919 108.11 83.291 107.074 85.643 107.074C88.009 107.074 89.381 108.11 89.381 109.734C89.381 110.672 88.863 111.386 87.827 111.862C89.073 112.24 89.689 113.052 89.689 114.298C89.689 115.18 89.325 115.88 88.611 116.37ZM90.7809 112.366C90.7809 110.672 91.2009 109.37 92.0269 108.446C92.8529 107.536 93.8889 107.074 95.1349 107.074C96.7729 107.074 98.0609 107.816 98.6069 108.992L97.6549 109.636C97.0809 108.726 96.2269 108.278 95.0789 108.278C94.2109 108.278 93.4829 108.614 92.8949 109.286C92.3069 109.972 92.0129 110.896 92.0269 112.086C92.5729 111.064 93.8469 110.448 95.2469 110.448C96.3809 110.448 97.2909 110.742 97.9489 111.344C98.6069 111.946 98.9429 112.744 98.9429 113.724C98.9429 114.718 98.5789 115.544 97.8369 116.174C97.0949 116.804 96.1709 117.126 95.0649 117.126C92.4189 117.126 90.7809 115.404 90.7809 112.366ZM92.1809 113.556C92.4469 114.942 93.4969 115.922 95.0509 115.922C95.8069 115.922 96.4369 115.726 96.9269 115.32C97.4169 114.928 97.6549 114.41 97.6549 113.78C97.6549 112.394 96.6749 111.652 95.1769 111.652C94.3509 111.652 93.6649 111.848 93.1329 112.24C92.5869 112.632 92.2789 113.066 92.1809 113.556Z" fill="#1A3341"/>
<path opacity="0.6" d="M1.728 99.684H10.284V100.632H1.728V99.684ZM0.72 106.752H11.292V107.724H0.72V106.752ZM15.276 104.328H20.892V102.312H15.408C15.408 102.936 15.372 103.62 15.276 104.328ZM20.892 99.468H15.408V101.46H20.892V99.468ZM21.816 98.592V107.616C21.816 108.24 21.636 108.552 21.192 108.696C20.736 108.852 19.944 108.864 18.66 108.864C18.6 108.612 18.432 108.192 18.288 107.94C19.284 107.976 20.244 107.964 20.52 107.964C20.796 107.952 20.892 107.868 20.892 107.604V105.204H15.132C14.832 106.56 14.232 107.916 13.068 108.936C12.948 108.744 12.588 108.42 12.408 108.288C14.316 106.608 14.508 104.172 14.508 102.264V98.592H21.816Z" fill="#1A3341"/>
<path d="M40 278H56C56.5523 278 57 278.448 57 279V295C57 295.552 56.5523 296 56 296H40V278Z" fill="url(#paint6_linear_5796_19897)"/>
<path d="M66.568 284.056L65.518 283.58C66.036 282.068 67.394 281.074 69.424 281.074C70.39 281.074 71.188 281.298 71.804 281.746C72.42 282.194 72.728 282.796 72.728 283.538C72.728 284.672 72.126 285.512 71.006 285.834C72.084 285.904 72.952 286.716 72.952 288.172C72.952 289.096 72.616 289.824 71.944 290.342C71.272 290.86 70.418 291.126 69.368 291.126C67.226 291.126 65.742 290.104 65.252 288.494L66.386 288.004C66.988 289.278 68.01 289.922 69.452 289.922C70.81 289.922 71.664 289.292 71.664 288.186C71.664 287.108 70.824 286.562 69.144 286.562H68.052V285.4H68.92C70.446 285.4 71.44 284.714 71.44 283.776C71.44 282.81 70.642 282.264 69.368 282.264C67.87 282.264 66.96 283.034 66.568 284.056ZM74.1026 286.1C74.1026 284.588 74.4526 283.37 75.1666 282.46C75.8666 281.55 76.9026 281.088 78.2606 281.088C81.0466 281.088 82.4326 282.922 82.4326 286.1C82.4326 287.626 82.0826 288.83 81.3966 289.74C80.6966 290.65 79.6606 291.112 78.2886 291.112C76.9726 291.112 75.9506 290.65 75.2086 289.726C74.4666 288.802 74.1026 287.598 74.1026 286.1ZM75.3906 286.1C75.3906 288.494 76.4826 289.922 78.2886 289.922C80.1926 289.922 81.1446 288.648 81.1446 286.1C81.1446 283.552 80.1786 282.278 78.2606 282.278C76.3146 282.278 75.3906 283.678 75.3906 286.1ZM84.4162 291C83.8982 291.056 83.5062 290.762 83.5062 290.258C83.5062 289.768 83.8142 289.46 84.3602 289.46C84.9762 289.46 85.3822 289.88 85.3822 290.664C85.3822 292.064 84.6122 292.778 83.5902 293.016L83.2962 292.358C83.6042 292.274 83.8842 292.106 84.1362 291.84C84.3742 291.574 84.4722 291.294 84.4162 291ZM86.4007 286.366C86.4007 284.672 86.8208 283.37 87.6467 282.446C88.4728 281.536 89.5088 281.074 90.7547 281.074C92.3928 281.074 93.6808 281.816 94.2268 282.992L93.2748 283.636C92.7008 282.726 91.8468 282.278 90.6988 282.278C89.8308 282.278 89.1028 282.614 88.5148 283.286C87.9268 283.972 87.6328 284.896 87.6467 286.086C88.1927 285.064 89.4668 284.448 90.8668 284.448C92.0008 284.448 92.9108 284.742 93.5688 285.344C94.2268 285.946 94.5628 286.744 94.5628 287.724C94.5628 288.718 94.1988 289.544 93.4568 290.174C92.7148 290.804 91.7908 291.126 90.6848 291.126C88.0388 291.126 86.4007 289.404 86.4007 286.366ZM87.8008 287.556C88.0667 288.942 89.1168 289.922 90.6708 289.922C91.4268 289.922 92.0568 289.726 92.5468 289.32C93.0368 288.928 93.2748 288.41 93.2748 287.78C93.2748 286.394 92.2948 285.652 90.7968 285.652C89.9708 285.652 89.2848 285.848 88.7528 286.24C88.2068 286.632 87.8988 287.066 87.8008 287.556ZM102.333 291H101.115V288.998H95.1233V288.186L101.255 281.2H102.333V287.864H104.153V288.998H102.333V291ZM101.115 283.16L96.8033 287.864H101.115V283.16ZM104.838 286.366C104.838 284.672 105.258 283.37 106.084 282.446C106.91 281.536 107.946 281.074 109.192 281.074C110.83 281.074 112.118 281.816 112.664 282.992L111.712 283.636C111.138 282.726 110.284 282.278 109.136 282.278C108.268 282.278 107.54 282.614 106.952 283.286C106.364 283.972 106.07 284.896 106.084 286.086C106.63 285.064 107.904 284.448 109.304 284.448C110.438 284.448 111.348 284.742 112.006 285.344C112.664 285.946 113 286.744 113 287.724C113 288.718 112.636 289.544 111.894 290.174C111.152 290.804 110.228 291.126 109.122 291.126C106.476 291.126 104.838 289.404 104.838 286.366ZM106.238 287.556C106.504 288.942 107.554 289.922 109.108 289.922C109.864 289.922 110.494 289.726 110.984 289.32C111.474 288.928 111.712 288.41 111.712 287.78C111.712 286.394 110.732 285.652 109.234 285.652C108.408 285.652 107.722 285.848 107.19 286.24C106.644 286.632 106.336 287.066 106.238 287.556Z" fill="#1A3341"/>
<path d="M40 302H48C48.5523 302 49 302.448 49 303V319C49 319.552 48.5523 320 48 320H40V302Z" fill="url(#paint7_linear_5796_19897)"/>
<path d="M57.49 307.804L57.042 306.754L60.402 305.144H61.2V315H59.996V306.642L57.49 307.804ZM66.8494 309.414H67.2834C67.9134 309.414 68.4314 309.26 68.8654 308.966C69.2854 308.672 69.4954 308.28 69.4954 307.818C69.4954 306.768 68.6694 306.236 67.0314 306.236C65.4634 306.236 64.6094 306.81 64.6094 307.818C64.6094 308.728 65.5474 309.414 66.8494 309.414ZM67.2554 310.52H66.9054C66.1494 310.52 65.5194 310.688 65.0294 311.01C64.5394 311.332 64.2874 311.738 64.2874 312.228C64.2874 313.292 65.2674 313.964 67.0454 313.964C68.8514 313.964 69.8174 313.32 69.8174 312.242C69.8174 311.164 68.7814 310.52 67.2554 310.52ZM70.0134 314.37C69.2994 314.874 68.3054 315.126 67.0594 315.126C65.8134 315.126 64.8194 314.874 64.0914 314.384C63.3634 313.894 62.9994 313.222 62.9994 312.354C62.9994 311.22 63.7414 310.324 64.9314 309.932C63.8534 309.582 63.3214 308.728 63.3214 307.734C63.3214 306.11 64.6934 305.074 67.0454 305.074C69.4114 305.074 70.7834 306.11 70.7834 307.734C70.7834 308.672 70.2654 309.386 69.2294 309.862C70.4754 310.24 71.0914 311.052 71.0914 312.298C71.0914 313.18 70.7274 313.88 70.0134 314.37ZM73.1213 315C72.6033 315.056 72.2113 314.762 72.2113 314.258C72.2113 313.768 72.5193 313.46 73.0653 313.46C73.6813 313.46 74.0873 313.88 74.0873 314.664C74.0873 316.064 73.3173 316.778 72.2953 317.016L72.0013 316.358C72.3093 316.274 72.5893 316.106 72.8413 315.84C73.0793 315.574 73.1773 315.294 73.1213 315ZM75.1058 310.1C75.1058 308.588 75.4558 307.37 76.1698 306.46C76.8698 305.55 77.9058 305.088 79.2638 305.088C82.0498 305.088 83.4358 306.922 83.4358 310.1C83.4358 311.626 83.0858 312.83 82.3998 313.74C81.6998 314.65 80.6638 315.112 79.2918 315.112C77.9758 315.112 76.9538 314.65 76.2118 313.726C75.4698 312.802 75.1058 311.598 75.1058 310.1ZM76.3938 310.1C76.3938 312.494 77.4858 313.922 79.2918 313.922C81.1958 313.922 82.1478 312.648 82.1478 310.1C82.1478 307.552 81.1818 306.278 79.2638 306.278C77.3178 306.278 76.3938 307.678 76.3938 310.1ZM90.0955 306.39H84.1595V305.2H91.5935V305.998L86.7215 315H85.3915L90.0955 306.39ZM96.2035 309.414H96.6375C97.2675 309.414 97.7855 309.26 98.2195 308.966C98.6395 308.672 98.8495 308.28 98.8495 307.818C98.8495 306.768 98.0235 306.236 96.3855 306.236C94.8175 306.236 93.9635 306.81 93.9635 307.818C93.9635 308.728 94.9015 309.414 96.2035 309.414ZM96.6095 310.52H96.2595C95.5035 310.52 94.8735 310.688 94.3835 311.01C93.8935 311.332 93.6415 311.738 93.6415 312.228C93.6415 313.292 94.6215 313.964 96.3995 313.964C98.2055 313.964 99.1715 313.32 99.1715 312.242C99.1715 311.164 98.1355 310.52 96.6095 310.52ZM99.3675 314.37C98.6535 314.874 97.6595 315.126 96.4135 315.126C95.1675 315.126 94.1735 314.874 93.4455 314.384C92.7175 313.894 92.3535 313.222 92.3535 312.354C92.3535 311.22 93.0955 310.324 94.2855 309.932C93.2075 309.582 92.6755 308.728 92.6755 307.734C92.6755 306.11 94.0475 305.074 96.3995 305.074C98.7655 305.074 100.137 306.11 100.137 307.734C100.137 308.672 99.6195 309.386 98.5835 309.862C99.8295 310.24 100.445 311.052 100.445 312.298C100.445 313.18 100.081 313.88 99.3675 314.37Z" fill="#1A3341"/>
<path opacity="0.6" d="M8.328 301.464H5.316C5.088 302.892 4.836 304.296 4.608 305.388H7.956C8.088 304.116 8.232 302.58 8.328 301.464ZM8.88 305.388H11.316V306.264H0.72V305.388H3.636C3.876 304.296 4.128 302.892 4.368 301.464H2.136V300.588H4.512C4.656 299.7 4.788 298.812 4.896 298.008H1.476V297.132H10.452V298.008H5.844C5.724 298.812 5.592 299.712 5.448 300.588H8.472L8.628 300.54L9.312 300.612C9.228 301.932 9.06 303.828 8.88 305.388ZM15.276 302.328H20.892V300.312H15.408C15.408 300.936 15.372 301.62 15.276 302.328ZM20.892 297.468H15.408V299.46H20.892V297.468ZM21.816 296.592V305.616C21.816 306.24 21.636 306.552 21.192 306.696C20.736 306.852 19.944 306.864 18.66 306.864C18.6 306.612 18.432 306.192 18.288 305.94C19.284 305.976 20.244 305.964 20.52 305.964C20.796 305.952 20.892 305.868 20.892 305.604V303.204H15.132C14.832 304.56 14.232 305.916 13.068 306.936C12.948 306.744 12.588 306.42 12.408 306.288C14.316 304.608 14.508 302.172 14.508 300.264V296.592H21.816Z" fill="#1A3341"/>
<path d="M40 146H62C62.5523 146 63 146.448 63 147V163C63 163.552 62.5523 164 62 164H40V146Z" fill="url(#paint8_linear_5796_19897)"/>
<path d="M78.364 159H77.146V156.998H71.154V156.186L77.286 149.2H78.364V155.864H80.184V156.998H78.364V159ZM77.146 151.16L72.834 155.864H77.146V151.16ZM80.7562 151.804L80.3082 150.754L83.6682 149.144H84.4662V159H83.2622V150.642L80.7562 151.804ZM87.1897 159C86.6717 159.056 86.2797 158.762 86.2797 158.258C86.2797 157.768 86.5877 157.46 87.1337 157.46C87.7497 157.46 88.1557 157.88 88.1557 158.664C88.1557 160.064 87.3857 160.778 86.3637 161.016L86.0697 160.358C86.3777 160.274 86.6577 160.106 86.9097 159.84C87.1477 159.574 87.2457 159.294 87.1897 159ZM97.3222 153.918C97.3222 155.584 96.9302 156.872 96.1322 157.768C95.3342 158.678 94.2702 159.126 92.9402 159.126C91.3162 159.126 90.0422 158.44 89.4122 157.39L90.4202 156.69C90.9802 157.474 92.0022 157.922 93.1082 157.922C94.0182 157.922 94.7462 157.558 95.3202 156.83C95.8942 156.116 96.1322 155.22 96.0622 154.156C95.6002 155.22 94.4382 156.004 92.8842 156.004C91.7922 156.004 90.8962 155.696 90.1962 155.066C89.4822 154.45 89.1322 153.638 89.1322 152.644C89.1322 151.552 89.5102 150.684 90.2662 150.04C91.0222 149.396 92.0302 149.074 93.2762 149.074C95.7962 149.074 97.3222 150.838 97.3222 153.918ZM95.8522 152.602C95.6422 151.3 94.7462 150.278 93.1362 150.278C91.4562 150.278 90.4202 151.146 90.4202 152.602C90.4202 153.988 91.4702 154.8 93.1082 154.8C93.8502 154.8 94.4802 154.576 94.9702 154.128C95.4602 153.68 95.7542 153.176 95.8522 152.602ZM99.3381 152.056L98.2881 151.58C98.8061 150.068 100.164 149.074 102.194 149.074C103.16 149.074 103.958 149.298 104.574 149.746C105.19 150.194 105.498 150.796 105.498 151.538C105.498 152.672 104.896 153.512 103.776 153.834C104.854 153.904 105.722 154.716 105.722 156.172C105.722 157.096 105.386 157.824 104.714 158.342C104.042 158.86 103.188 159.126 102.138 159.126C99.9961 159.126 98.5121 158.104 98.0221 156.494L99.1561 156.004C99.7581 157.278 100.78 157.922 102.222 157.922C103.58 157.922 104.434 157.292 104.434 156.186C104.434 155.108 103.594 154.562 101.914 154.562H100.822V153.4H101.69C103.216 153.4 104.21 152.714 104.21 151.776C104.21 150.81 103.412 150.264 102.138 150.264C100.64 150.264 99.7301 151.034 99.3381 152.056ZM110.737 153.414H111.171C111.801 153.414 112.319 153.26 112.753 152.966C113.173 152.672 113.383 152.28 113.383 151.818C113.383 150.768 112.557 150.236 110.919 150.236C109.351 150.236 108.497 150.81 108.497 151.818C108.497 152.728 109.435 153.414 110.737 153.414ZM111.143 154.52H110.793C110.037 154.52 109.407 154.688 108.917 155.01C108.427 155.332 108.175 155.738 108.175 156.228C108.175 157.292 109.155 157.964 110.933 157.964C112.739 157.964 113.705 157.32 113.705 156.242C113.705 155.164 112.669 154.52 111.143 154.52ZM113.901 158.37C113.187 158.874 112.193 159.126 110.947 159.126C109.701 159.126 108.707 158.874 107.979 158.384C107.251 157.894 106.887 157.222 106.887 156.354C106.887 155.22 107.629 154.324 108.819 153.932C107.741 153.582 107.209 152.728 107.209 151.734C107.209 150.11 108.581 149.074 110.933 149.074C113.299 149.074 114.671 150.11 114.671 151.734C114.671 152.672 114.153 153.386 113.117 153.862C114.363 154.24 114.979 155.052 114.979 156.298C114.979 157.18 114.615 157.88 113.901 158.37Z" fill="#1A3341"/>
<path d="M40 170H50C50.5523 170 51 170.448 51 171V187C51 187.552 50.5523 188 50 188H40V170Z" fill="url(#paint9_linear_5796_19897)"/>
<path d="M60.722 176.434L59.7 176.07C60.05 174.334 61.366 173.088 63.452 173.088C65.468 173.088 66.7 174.25 66.7 176.028C66.7 176.966 66.294 177.904 65.79 178.576C65.538 178.926 65.216 179.262 64.838 179.612C64.068 180.298 63.522 180.662 62.724 181.166L61.646 181.838H67.064V183H59.434V182.048L61.562 180.634C61.94 180.396 62.206 180.214 62.36 180.102C62.514 180.004 62.766 179.822 63.102 179.584C63.438 179.346 63.69 179.136 63.858 178.982C64.012 178.828 64.222 178.632 64.46 178.38C65.104 177.68 65.342 177.036 65.412 176.154C65.412 174.88 64.586 174.306 63.368 174.306C62.612 174.306 62.01 174.516 61.576 174.936C61.142 175.356 60.848 175.86 60.722 176.434ZM67.9223 175.804L67.4743 174.754L70.8343 173.144H71.6323V183H70.4283V174.642L67.9223 175.804ZM74.3557 183C73.8377 183.056 73.4457 182.762 73.4457 182.258C73.4457 181.768 73.7537 181.46 74.2997 181.46C74.9157 181.46 75.3217 181.88 75.3217 182.664C75.3217 184.064 74.5517 184.778 73.5297 185.016L73.2357 184.358C73.5437 184.274 73.8237 184.106 74.0757 183.84C74.3137 183.574 74.4117 183.294 74.3557 183ZM76.3402 178.1C76.3402 176.588 76.6902 175.37 77.4042 174.46C78.1042 173.55 79.1402 173.088 80.4982 173.088C83.2842 173.088 84.6702 174.922 84.6702 178.1C84.6702 179.626 84.3202 180.83 83.6342 181.74C82.9342 182.65 81.8982 183.112 80.5262 183.112C79.2102 183.112 78.1882 182.65 77.4462 181.726C76.7042 180.802 76.3402 179.598 76.3402 178.1ZM77.6282 178.1C77.6282 180.494 78.7202 181.922 80.5262 181.922C82.4302 181.922 83.3822 180.648 83.3822 178.1C83.3822 175.552 82.4162 174.278 80.4982 174.278C78.5522 174.278 77.6282 175.678 77.6282 178.1ZM92.4778 183H91.2598V180.998H85.2678V180.186L91.3998 173.2H92.4778V179.864H94.2978V180.998H92.4778V183ZM91.2598 175.16L86.9478 179.864H91.2598V175.16ZM94.9821 178.366C94.9821 176.672 95.4021 175.37 96.2281 174.446C97.0541 173.536 98.0901 173.074 99.3361 173.074C100.974 173.074 102.262 173.816 102.808 174.992L101.856 175.636C101.282 174.726 100.428 174.278 99.2801 174.278C98.4121 174.278 97.6841 174.614 97.0961 175.286C96.5081 175.972 96.2141 176.896 96.2281 178.086C96.7741 177.064 98.0481 176.448 99.4481 176.448C100.582 176.448 101.492 176.742 102.15 177.344C102.808 177.946 103.144 178.744 103.144 179.724C103.144 180.718 102.78 181.544 102.038 182.174C101.296 182.804 100.372 183.126 99.2661 183.126C96.6201 183.126 94.9821 181.404 94.9821 178.366ZM96.3821 179.556C96.6481 180.942 97.6981 181.922 99.2521 181.922C100.008 181.922 100.638 181.726 101.128 181.32C101.618 180.928 101.856 180.41 101.856 179.78C101.856 178.394 100.876 177.652 99.3781 177.652C98.5521 177.652 97.8661 177.848 97.3341 178.24C96.7881 178.632 96.4801 179.066 96.3821 179.556Z" fill="#1A3341"/>
<path opacity="0.6" d="M1.512 165.12H10.512V166.008H1.512V165.12ZM2.28 169.008H9.576V169.908H2.28V169.008ZM0.828 173.148H11.16V174.048H0.828V173.148ZM15.276 170.328H20.892V168.312H15.408C15.408 168.936 15.372 169.62 15.276 170.328ZM20.892 165.468H15.408V167.46H20.892V165.468ZM21.816 164.592V173.616C21.816 174.24 21.636 174.552 21.192 174.696C20.736 174.852 19.944 174.864 18.66 174.864C18.6 174.612 18.432 174.192 18.288 173.94C19.284 173.976 20.244 173.964 20.52 173.964C20.796 173.952 20.892 173.868 20.892 173.604V171.204H15.132C14.832 172.56 14.232 173.916 13.068 174.936C12.948 174.744 12.588 174.42 12.408 174.288C14.316 172.608 14.508 170.172 14.508 168.264V164.592H21.816Z" fill="#1A3341"/>
<path d="M40 344H57C57.5523 344 58 344.448 58 345V361C58 361.552 57.5523 362 57 362H40V344Z" fill="url(#paint10_linear_5796_19897)"/>
<path d="M67.568 350.056L66.518 349.58C67.036 348.068 68.394 347.074 70.424 347.074C71.39 347.074 72.188 347.298 72.804 347.746C73.42 348.194 73.728 348.796 73.728 349.538C73.728 350.672 73.126 351.512 72.006 351.834C73.084 351.904 73.952 352.716 73.952 354.172C73.952 355.096 73.616 355.824 72.944 356.342C72.272 356.86 71.418 357.126 70.368 357.126C68.226 357.126 66.742 356.104 66.252 354.494L67.386 354.004C67.988 355.278 69.01 355.922 70.452 355.922C71.81 355.922 72.664 355.292 72.664 354.186C72.664 353.108 71.824 352.562 70.144 352.562H69.052V351.4H69.92C71.446 351.4 72.44 350.714 72.44 349.776C72.44 348.81 71.642 348.264 70.368 348.264C68.87 348.264 67.96 349.034 67.568 350.056ZM76.0686 350.056L75.0186 349.58C75.5366 348.068 76.8946 347.074 78.9246 347.074C79.8906 347.074 80.6886 347.298 81.3046 347.746C81.9206 348.194 82.2286 348.796 82.2286 349.538C82.2286 350.672 81.6266 351.512 80.5066 351.834C81.5846 351.904 82.4526 352.716 82.4526 354.172C82.4526 355.096 82.1166 355.824 81.4446 356.342C80.7726 356.86 79.9186 357.126 78.8686 357.126C76.7266 357.126 75.2426 356.104 74.7526 354.494L75.8866 354.004C76.4886 355.278 77.5106 355.922 78.9526 355.922C80.3106 355.922 81.1646 355.292 81.1646 354.186C81.1646 353.108 80.3246 352.562 78.6446 352.562H77.5526V351.4H78.4206C79.9466 351.4 80.9406 350.714 80.9406 349.776C80.9406 348.81 80.1426 348.264 78.8686 348.264C77.3706 348.264 76.4606 349.034 76.0686 350.056ZM84.5412 357C84.0232 357.056 83.6312 356.762 83.6312 356.258C83.6312 355.768 83.9392 355.46 84.4852 355.46C85.1012 355.46 85.5072 355.88 85.5072 356.664C85.5072 358.064 84.7372 358.778 83.7152 359.016L83.4212 358.358C83.7292 358.274 84.0092 358.106 84.2612 357.84C84.4992 357.574 84.5972 357.294 84.5412 357ZM87.9538 352.492L86.9458 352.226L87.5198 347.2H93.6798V348.39H88.5978L88.2338 351.022C88.7237 350.658 89.4658 350.476 90.4597 350.476C91.6078 350.476 92.5038 350.784 93.1618 351.386C93.8058 352.002 94.1278 352.786 94.1278 353.752C94.1278 354.718 93.7637 355.53 93.0497 356.16C92.3218 356.804 91.4118 357.126 90.3338 357.126C88.4998 357.126 86.9737 356.258 86.3437 354.732L87.4638 354.256C87.8698 355.194 88.9198 355.936 90.3338 355.936C91.9438 355.936 92.8398 355.012 92.8398 353.794C92.8398 352.492 91.7898 351.652 90.1238 351.652C89.2278 351.652 88.4998 351.932 87.9538 352.492ZM96.3104 350.434L95.2884 350.07C95.6384 348.334 96.9544 347.088 99.0404 347.088C101.056 347.088 102.288 348.25 102.288 350.028C102.288 350.966 101.882 351.904 101.378 352.576C101.126 352.926 100.804 353.262 100.426 353.612C99.6564 354.298 99.1104 354.662 98.3124 355.166L97.2344 355.838H102.652V357H95.0224V356.048L97.1504 354.634C97.5284 354.396 97.7944 354.214 97.9484 354.102C98.1024 354.004 98.3544 353.822 98.6904 353.584C99.0264 353.346 99.2784 353.136 99.4464 352.982C99.6004 352.828 99.8104 352.632 100.048 352.38C100.692 351.68 100.93 351.036 101 350.154C101 348.88 100.174 348.306 98.9564 348.306C98.2004 348.306 97.5984 348.516 97.1644 348.936C96.7304 349.356 96.4364 349.86 96.3104 350.434ZM104.743 350.434L103.721 350.07C104.071 348.334 105.387 347.088 107.473 347.088C109.489 347.088 110.721 348.25 110.721 350.028C110.721 350.966 110.315 351.904 109.811 352.576C109.559 352.926 109.237 353.262 108.859 353.612C108.089 354.298 107.543 354.662 106.745 355.166L105.667 355.838H111.085V357H103.455V356.048L105.583 354.634C105.961 354.396 106.227 354.214 106.381 354.102C106.535 354.004 106.787 353.822 107.123 353.584C107.459 353.346 107.711 353.136 107.879 352.982C108.033 352.828 108.243 352.632 108.481 352.38C109.125 351.68 109.363 351.036 109.433 350.154C109.433 348.88 108.607 348.306 107.389 348.306C106.633 348.306 106.031 348.516 105.597 348.936C105.163 349.356 104.869 349.86 104.743 350.434Z" fill="#1A3341"/>
<path d="M40 368H48C48.5523 368 49 368.448 49 369V385C49 385.552 48.5523 386 48 386H40V368Z" fill="url(#paint11_linear_5796_19897)"/>
<path d="M57.49 373.804L57.042 372.754L60.402 371.144H61.2V381H59.996V372.642L57.49 373.804ZM68.5994 372.39H62.6634V371.2H70.0974V371.998L65.2254 381H63.8954L68.5994 372.39ZM70.9338 381C70.4158 381.056 70.0238 380.762 70.0238 380.258C70.0238 379.768 70.3318 379.46 70.8778 379.46C71.4938 379.46 71.8998 379.88 71.8998 380.664C71.8998 382.064 71.1298 382.778 70.1078 383.016L69.8138 382.358C70.1218 382.274 70.4018 382.106 70.6538 381.84C70.8918 381.574 70.9898 381.294 70.9338 381ZM74.3463 376.492L73.3383 376.226L73.9123 371.2H80.0723V372.39H74.9903L74.6263 375.022C75.1163 374.658 75.8583 374.476 76.8523 374.476C78.0003 374.476 78.8963 374.784 79.5543 375.386C80.1983 376.002 80.5203 376.786 80.5203 377.752C80.5203 378.718 80.1563 379.53 79.4423 380.16C78.7143 380.804 77.8043 381.126 76.7263 381.126C74.8923 381.126 73.3663 380.258 72.7363 378.732L73.8563 378.256C74.2623 379.194 75.3123 379.936 76.7263 379.936C78.3363 379.936 79.2323 379.012 79.2323 377.794C79.2323 376.492 78.1823 375.652 76.5163 375.652C75.6203 375.652 74.8923 375.932 74.3463 376.492ZM81.471 373.804L81.023 372.754L84.383 371.144H85.181V381H83.977V372.642L81.471 373.804ZM93.7285 381H92.5105V378.998H86.5185V378.186L92.6505 371.2H93.7285V377.864H95.5485V378.998H93.7285V381ZM92.5105 373.16L88.1985 377.864H92.5105V373.16Z" fill="#1A3341"/>
<path opacity="0.6" d="M0.732 365.124H11.304V366.036H0.732V365.124ZM3.72 367.416L4.692 367.728C3.816 369.576 2.556 371.556 1.452 372.84C1.248 372.672 0.816 372.372 0.564 372.216C1.716 371.028 2.928 369.156 3.72 367.416ZM7.248 367.716L8.076 367.32C9.192 368.88 10.656 371.004 11.364 372.252L10.464 372.768C9.804 371.508 8.364 369.324 7.248 367.716ZM4.896 362.328L5.796 362.016C6.216 362.808 6.72 363.864 6.96 364.476L6 364.848C5.772 364.224 5.292 363.132 4.896 362.328ZM15.276 368.328H20.892V366.312H15.408C15.408 366.936 15.372 367.62 15.276 368.328ZM20.892 363.468H15.408V365.46H20.892V363.468ZM21.816 362.592V371.616C21.816 372.24 21.636 372.552 21.192 372.696C20.736 372.852 19.944 372.864 18.66 372.864C18.6 372.612 18.432 372.192 18.288 371.94C19.284 371.976 20.244 371.964 20.52 371.964C20.796 371.952 20.892 371.868 20.892 371.604V369.204H15.132C14.832 370.56 14.232 371.916 13.068 372.936C12.948 372.744 12.588 372.42 12.408 372.288C14.316 370.608 14.508 368.172 14.508 366.264V362.592H21.816Z" fill="#1A3341"/>
<path d="M206 13H223C223.552 13 224 13.4477 224 14V30C224 30.5523 223.552 31 223 31H206V13Z" fill="url(#paint12_linear_5796_19897)"/>
<path d="M233.568 19.056L232.518 18.58C233.036 17.068 234.394 16.074 236.424 16.074C237.39 16.074 238.188 16.298 238.804 16.746C239.42 17.194 239.728 17.796 239.728 18.538C239.728 19.672 239.126 20.512 238.006 20.834C239.084 20.904 239.952 21.716 239.952 23.172C239.952 24.096 239.616 24.824 238.944 25.342C238.272 25.86 237.418 26.126 236.368 26.126C234.226 26.126 232.742 25.104 232.252 23.494L233.386 23.004C233.988 24.278 235.01 24.922 236.452 24.922C237.81 24.922 238.664 24.292 238.664 23.186C238.664 22.108 237.824 21.562 236.144 21.562H235.052V20.4H235.92C237.446 20.4 238.44 19.714 238.44 18.776C238.44 17.81 237.642 17.264 236.368 17.264C234.87 17.264 233.96 18.034 233.568 19.056ZM242.069 19.056L241.019 18.58C241.537 17.068 242.895 16.074 244.925 16.074C245.891 16.074 246.689 16.298 247.305 16.746C247.921 17.194 248.229 17.796 248.229 18.538C248.229 19.672 247.627 20.512 246.507 20.834C247.585 20.904 248.453 21.716 248.453 23.172C248.453 24.096 248.117 24.824 247.445 25.342C246.773 25.86 245.919 26.126 244.869 26.126C242.727 26.126 241.243 25.104 240.753 23.494L241.887 23.004C242.489 24.278 243.511 24.922 244.953 24.922C246.311 24.922 247.165 24.292 247.165 23.186C247.165 22.108 246.325 21.562 244.645 21.562H243.553V20.4H244.421C245.947 20.4 246.941 19.714 246.941 18.776C246.941 17.81 246.143 17.264 244.869 17.264C243.371 17.264 242.461 18.034 242.069 19.056ZM250.541 26C250.023 26.056 249.631 25.762 249.631 25.258C249.631 24.768 249.939 24.46 250.485 24.46C251.101 24.46 251.507 24.88 251.507 25.664C251.507 27.064 250.737 27.778 249.715 28.016L249.421 27.358C249.729 27.274 250.009 27.106 250.261 26.84C250.499 26.574 250.597 26.294 250.541 26ZM253.954 21.492L252.946 21.226L253.52 16.2H259.68V17.39H254.598L254.234 20.022C254.724 19.658 255.466 19.476 256.46 19.476C257.608 19.476 258.504 19.784 259.162 20.386C259.806 21.002 260.128 21.786 260.128 22.752C260.128 23.718 259.764 24.53 259.05 25.16C258.322 25.804 257.412 26.126 256.334 26.126C254.5 26.126 252.974 25.258 252.344 23.732L253.464 23.256C253.87 24.194 254.92 24.936 256.334 24.936C257.944 24.936 258.84 24.012 258.84 22.794C258.84 21.492 257.79 20.652 256.124 20.652C255.228 20.652 254.5 20.932 253.954 21.492ZM266.804 17.39H260.868V16.2H268.302V16.998L263.43 26H262.1L266.804 17.39ZM269.048 21.1C269.048 19.588 269.398 18.37 270.112 17.46C270.812 16.55 271.848 16.088 273.206 16.088C275.992 16.088 277.378 17.922 277.378 21.1C277.378 22.626 277.028 23.83 276.342 24.74C275.642 25.65 274.606 26.112 273.234 26.112C271.918 26.112 270.896 25.65 270.154 24.726C269.412 23.802 269.048 22.598 269.048 21.1ZM270.336 21.1C270.336 23.494 271.428 24.922 273.234 24.922C275.138 24.922 276.09 23.648 276.09 21.1C276.09 18.552 275.124 17.278 273.206 17.278C271.26 17.278 270.336 18.678 270.336 21.1Z" fill="#1A3341"/>
<path d="M206 37H215C215.552 37 216 37.4477 216 38V54C216 54.5523 215.552 55 215 55H206V37Z" fill="url(#paint13_linear_5796_19897)"/>
<path d="M224.49 42.804L224.042 41.754L227.402 40.144H228.2V50H226.996V41.642L224.49 42.804ZM233.849 44.414H234.283C234.913 44.414 235.431 44.26 235.865 43.966C236.285 43.672 236.495 43.28 236.495 42.818C236.495 41.768 235.669 41.236 234.031 41.236C232.463 41.236 231.609 41.81 231.609 42.818C231.609 43.728 232.547 44.414 233.849 44.414ZM234.255 45.52H233.905C233.149 45.52 232.519 45.688 232.029 46.01C231.539 46.332 231.287 46.738 231.287 47.228C231.287 48.292 232.267 48.964 234.045 48.964C235.851 48.964 236.817 48.32 236.817 47.242C236.817 46.164 235.781 45.52 234.255 45.52ZM237.013 49.37C236.299 49.874 235.305 50.126 234.059 50.126C232.813 50.126 231.819 49.874 231.091 49.384C230.363 48.894 229.999 48.222 229.999 47.354C229.999 46.22 230.741 45.324 231.931 44.932C230.853 44.582 230.321 43.728 230.321 42.734C230.321 41.11 231.693 40.074 234.045 40.074C236.411 40.074 237.783 41.11 237.783 42.734C237.783 43.672 237.265 44.386 236.229 44.862C237.475 45.24 238.091 46.052 238.091 47.298C238.091 48.18 237.727 48.88 237.013 49.37ZM240.121 50C239.603 50.056 239.211 49.762 239.211 49.258C239.211 48.768 239.519 48.46 240.065 48.46C240.681 48.46 241.087 48.88 241.087 49.664C241.087 51.064 240.317 51.778 239.295 52.016L239.001 51.358C239.309 51.274 239.589 51.106 239.841 50.84C240.079 50.574 240.177 50.294 240.121 50ZM243.072 43.056L242.022 42.58C242.54 41.068 243.898 40.074 245.928 40.074C246.894 40.074 247.692 40.298 248.308 40.746C248.924 41.194 249.232 41.796 249.232 42.538C249.232 43.672 248.63 44.512 247.51 44.834C248.588 44.904 249.456 45.716 249.456 47.172C249.456 48.096 249.12 48.824 248.448 49.342C247.776 49.86 246.922 50.126 245.872 50.126C243.73 50.126 242.246 49.104 241.756 47.494L242.89 47.004C243.492 48.278 244.514 48.922 245.956 48.922C247.314 48.922 248.168 48.292 248.168 47.186C248.168 46.108 247.328 45.562 245.648 45.562H244.556V44.4H245.424C246.95 44.4 247.944 43.714 247.944 42.776C247.944 41.81 247.146 41.264 245.872 41.264C244.374 41.264 243.464 42.034 243.072 43.056ZM257.368 50H256.15V47.998H250.158V47.186L256.29 40.2H257.368V46.864H259.188V47.998H257.368V50ZM256.15 42.16L251.838 46.864H256.15V42.16ZM260.993 43.434L259.971 43.07C260.321 41.334 261.637 40.088 263.723 40.088C265.739 40.088 266.971 41.25 266.971 43.028C266.971 43.966 266.565 44.904 266.061 45.576C265.809 45.926 265.487 46.262 265.109 46.612C264.339 47.298 263.793 47.662 262.995 48.166L261.917 48.838H267.335V50H259.705V49.048L261.833 47.634C262.211 47.396 262.477 47.214 262.631 47.102C262.785 47.004 263.037 46.822 263.373 46.584C263.709 46.346 263.961 46.136 264.129 45.982C264.283 45.828 264.493 45.632 264.731 45.38C265.375 44.68 265.613 44.036 265.683 43.154C265.683 41.88 264.857 41.306 263.639 41.306C262.883 41.306 262.281 41.516 261.847 41.936C261.413 42.356 261.119 42.86 260.993 43.434Z" fill="#1A3341"/>
<path opacity="0.6" d="M172.036 37.616H175.108C175.9 37.616 176.02 37.208 176.14 35.432C176.368 35.6 176.788 35.78 177.04 35.852C176.884 37.82 176.596 38.492 175.132 38.492H172C170.524 38.492 170.08 38.12 170.08 36.704V33.068L166.78 33.596L166.636 32.708L170.08 32.156V28.172H171.016V32.012L177.256 31.004L177.4 31.904L171.016 32.912V36.716C171.016 37.448 171.184 37.616 172.036 37.616ZM181.276 34.328H186.892V32.312H181.408C181.408 32.936 181.372 33.62 181.276 34.328ZM186.892 29.468H181.408V31.46H186.892V29.468ZM187.816 28.592V37.616C187.816 38.24 187.636 38.552 187.192 38.696C186.736 38.852 185.944 38.864 184.66 38.864C184.6 38.612 184.432 38.192 184.288 37.94C185.284 37.976 186.244 37.964 186.52 37.964C186.796 37.952 186.892 37.868 186.892 37.604V35.204H181.132C180.832 36.56 180.232 37.916 179.068 38.936C178.948 38.744 178.588 38.42 178.408 38.288C180.316 36.608 180.508 34.172 180.508 32.264V28.592H187.816Z" fill="#1A3341"/>
<path d="M206 211H223C223.552 211 224 211.448 224 212V228C224 228.552 223.552 229 223 229H206V211Z" fill="url(#paint14_linear_5796_19897)"/>
<path d="M233.568 217.056L232.518 216.58C233.036 215.068 234.394 214.074 236.424 214.074C237.39 214.074 238.188 214.298 238.804 214.746C239.42 215.194 239.728 215.796 239.728 216.538C239.728 217.672 239.126 218.512 238.006 218.834C239.084 218.904 239.952 219.716 239.952 221.172C239.952 222.096 239.616 222.824 238.944 223.342C238.272 223.86 237.418 224.126 236.368 224.126C234.226 224.126 232.742 223.104 232.252 221.494L233.386 221.004C233.988 222.278 235.01 222.922 236.452 222.922C237.81 222.922 238.664 222.292 238.664 221.186C238.664 220.108 237.824 219.562 236.144 219.562H235.052V218.4H235.92C237.446 218.4 238.44 217.714 238.44 216.776C238.44 215.81 237.642 215.264 236.368 215.264C234.87 215.264 233.96 216.034 233.568 217.056ZM242.069 217.056L241.019 216.58C241.537 215.068 242.895 214.074 244.925 214.074C245.891 214.074 246.689 214.298 247.305 214.746C247.921 215.194 248.229 215.796 248.229 216.538C248.229 217.672 247.627 218.512 246.507 218.834C247.585 218.904 248.453 219.716 248.453 221.172C248.453 222.096 248.117 222.824 247.445 223.342C246.773 223.86 245.919 224.126 244.869 224.126C242.727 224.126 241.243 223.104 240.753 221.494L241.887 221.004C242.489 222.278 243.511 222.922 244.953 222.922C246.311 222.922 247.165 222.292 247.165 221.186C247.165 220.108 246.325 219.562 244.645 219.562H243.553V218.4H244.421C245.947 218.4 246.941 217.714 246.941 216.776C246.941 215.81 246.143 215.264 244.869 215.264C243.371 215.264 242.461 216.034 242.069 217.056ZM250.541 224C250.023 224.056 249.631 223.762 249.631 223.258C249.631 222.768 249.939 222.46 250.485 222.46C251.101 222.46 251.507 222.88 251.507 223.664C251.507 225.064 250.737 225.778 249.715 226.016L249.421 225.358C249.729 225.274 250.009 225.106 250.261 224.84C250.499 224.574 250.597 224.294 250.541 224ZM252.414 216.804L251.966 215.754L255.326 214.144H256.124V224H254.92V215.642L252.414 216.804ZM257.909 219.1C257.909 217.588 258.259 216.37 258.973 215.46C259.673 214.55 260.709 214.088 262.067 214.088C264.853 214.088 266.239 215.922 266.239 219.1C266.239 220.626 265.889 221.83 265.203 222.74C264.503 223.65 263.467 224.112 262.095 224.112C260.779 224.112 259.757 223.65 259.015 222.726C258.273 221.802 257.909 220.598 257.909 219.1ZM259.197 219.1C259.197 221.494 260.289 222.922 262.095 222.922C263.999 222.922 264.951 221.648 264.951 219.1C264.951 216.552 263.985 215.278 262.067 215.278C260.121 215.278 259.197 216.678 259.197 219.1ZM271.149 218.414H271.583C272.213 218.414 272.731 218.26 273.165 217.966C273.585 217.672 273.795 217.28 273.795 216.818C273.795 215.768 272.969 215.236 271.331 215.236C269.763 215.236 268.909 215.81 268.909 216.818C268.909 217.728 269.847 218.414 271.149 218.414ZM271.555 219.52H271.205C270.449 219.52 269.819 219.688 269.329 220.01C268.839 220.332 268.587 220.738 268.587 221.228C268.587 222.292 269.567 222.964 271.345 222.964C273.151 222.964 274.117 222.32 274.117 221.242C274.117 220.164 273.081 219.52 271.555 219.52ZM274.313 223.37C273.599 223.874 272.605 224.126 271.359 224.126C270.113 224.126 269.119 223.874 268.391 223.384C267.663 222.894 267.299 222.222 267.299 221.354C267.299 220.22 268.041 219.324 269.231 218.932C268.153 218.582 267.621 217.728 267.621 216.734C267.621 215.11 268.993 214.074 271.345 214.074C273.711 214.074 275.083 215.11 275.083 216.734C275.083 217.672 274.565 218.386 273.529 218.862C274.775 219.24 275.391 220.052 275.391 221.298C275.391 222.18 275.027 222.88 274.313 223.37Z" fill="#1A3341"/>
<path d="M206 235H213C213.552 235 214 235.448 214 236V252C214 252.552 213.552 253 213 253H206V235Z" fill="url(#paint15_linear_5796_19897)"/>
<path d="M222.49 240.804L222.042 239.754L225.402 238.144H226.2V248H224.996V239.642L222.49 240.804ZM229.413 243.492L228.405 243.226L228.979 238.2H235.139V239.39H230.057L229.693 242.022C230.183 241.658 230.925 241.476 231.919 241.476C233.067 241.476 233.963 241.784 234.621 242.386C235.265 243.002 235.587 243.786 235.587 244.752C235.587 245.718 235.223 246.53 234.509 247.16C233.781 247.804 232.871 248.126 231.793 248.126C229.959 248.126 228.433 247.258 227.803 245.732L228.923 245.256C229.329 246.194 230.379 246.936 231.793 246.936C233.403 246.936 234.299 246.012 234.299 244.794C234.299 243.492 233.249 242.652 231.583 242.652C230.687 242.652 229.959 242.932 229.413 243.492ZM237.588 248C237.07 248.056 236.678 247.762 236.678 247.258C236.678 246.768 236.986 246.46 237.532 246.46C238.148 246.46 238.554 246.88 238.554 247.664C238.554 249.064 237.784 249.778 236.762 250.016L236.468 249.358C236.776 249.274 237.056 249.106 237.308 248.84C237.546 248.574 237.644 248.294 237.588 248ZM239.461 240.804L239.013 239.754L242.373 238.144H243.171V248H241.967V239.642L239.461 240.804ZM248.82 242.414H249.254C249.884 242.414 250.402 242.26 250.836 241.966C251.256 241.672 251.466 241.28 251.466 240.818C251.466 239.768 250.64 239.236 249.002 239.236C247.434 239.236 246.58 239.81 246.58 240.818C246.58 241.728 247.518 242.414 248.82 242.414ZM249.226 243.52H248.876C248.12 243.52 247.49 243.688 247 244.01C246.51 244.332 246.258 244.738 246.258 245.228C246.258 246.292 247.238 246.964 249.016 246.964C250.822 246.964 251.788 246.32 251.788 245.242C251.788 244.164 250.752 243.52 249.226 243.52ZM251.984 247.37C251.27 247.874 250.276 248.126 249.03 248.126C247.784 248.126 246.79 247.874 246.062 247.384C245.334 246.894 244.97 246.222 244.97 245.354C244.97 244.22 245.712 243.324 246.902 242.932C245.824 242.582 245.292 241.728 245.292 240.734C245.292 239.11 246.664 238.074 249.016 238.074C251.382 238.074 252.754 239.11 252.754 240.734C252.754 241.672 252.236 242.386 251.2 242.862C252.446 243.24 253.062 244.052 253.062 245.298C253.062 246.18 252.698 246.88 251.984 247.37ZM258.018 242.414H258.452C259.082 242.414 259.6 242.26 260.034 241.966C260.454 241.672 260.664 241.28 260.664 240.818C260.664 239.768 259.838 239.236 258.2 239.236C256.632 239.236 255.778 239.81 255.778 240.818C255.778 241.728 256.716 242.414 258.018 242.414ZM258.424 243.52H258.074C257.318 243.52 256.688 243.688 256.198 244.01C255.708 244.332 255.456 244.738 255.456 245.228C255.456 246.292 256.436 246.964 258.214 246.964C260.02 246.964 260.986 246.32 260.986 245.242C260.986 244.164 259.95 243.52 258.424 243.52ZM261.182 247.37C260.468 247.874 259.474 248.126 258.228 248.126C256.982 248.126 255.988 247.874 255.26 247.384C254.532 246.894 254.168 246.222 254.168 245.354C254.168 244.22 254.91 243.324 256.1 242.932C255.022 242.582 254.49 241.728 254.49 240.734C254.49 239.11 255.862 238.074 258.214 238.074C260.58 238.074 261.952 239.11 261.952 240.734C261.952 241.672 261.434 242.386 260.398 242.862C261.644 243.24 262.26 244.052 262.26 245.298C262.26 246.18 261.896 246.88 261.182 247.37Z" fill="#1A3341"/>
<path opacity="0.6" d="M177.388 234.42V235.332H172.492V240.912H171.544V235.332H166.708V234.42H171.544V229.98H172.492V234.42H177.388ZM181.276 236.328H186.892V234.312H181.408C181.408 234.936 181.372 235.62 181.276 236.328ZM186.892 231.468H181.408V233.46H186.892V231.468ZM187.816 230.592V239.616C187.816 240.24 187.636 240.552 187.192 240.696C186.736 240.852 185.944 240.864 184.66 240.864C184.6 240.612 184.432 240.192 184.288 239.94C185.284 239.976 186.244 239.964 186.52 239.964C186.796 239.952 186.892 239.868 186.892 239.604V237.204H181.132C180.832 238.56 180.232 239.916 179.068 240.936C178.948 240.744 178.588 240.42 178.408 240.288C180.316 238.608 180.508 236.172 180.508 234.264V230.592H187.816Z" fill="#1A3341"/>
<path d="M206 79H225C225.552 79 226 79.4477 226 80V96C226 96.5523 225.552 97 225 97H206V79Z" fill="url(#paint16_linear_5796_19897)"/>
<path d="M235.568 85.056L234.518 84.58C235.036 83.068 236.394 82.074 238.424 82.074C239.39 82.074 240.188 82.298 240.804 82.746C241.42 83.194 241.728 83.796 241.728 84.538C241.728 85.672 241.126 86.512 240.006 86.834C241.084 86.904 241.952 87.716 241.952 89.172C241.952 90.096 241.616 90.824 240.944 91.342C240.272 91.86 239.418 92.126 238.368 92.126C236.226 92.126 234.742 91.104 234.252 89.494L235.386 89.004C235.988 90.278 237.01 90.922 238.452 90.922C239.81 90.922 240.664 90.292 240.664 89.186C240.664 88.108 239.824 87.562 238.144 87.562H237.052V86.4H237.92C239.446 86.4 240.44 85.714 240.44 84.776C240.44 83.81 239.642 83.264 238.368 83.264C236.87 83.264 235.96 84.034 235.568 85.056ZM248.717 83.39H242.781V82.2H250.215V82.998L245.343 92H244.013L248.717 83.39ZM251.051 92C250.533 92.056 250.141 91.762 250.141 91.258C250.141 90.768 250.449 90.46 250.995 90.46C251.611 90.46 252.017 90.88 252.017 91.664C252.017 93.064 251.247 93.778 250.225 94.016L249.931 93.358C250.239 93.274 250.519 93.106 250.771 92.84C251.009 92.574 251.107 92.294 251.051 92ZM253.036 87.366C253.036 85.672 253.456 84.37 254.282 83.446C255.108 82.536 256.144 82.074 257.39 82.074C259.028 82.074 260.316 82.816 260.862 83.992L259.91 84.636C259.336 83.726 258.482 83.278 257.334 83.278C256.466 83.278 255.738 83.614 255.15 84.286C254.562 84.972 254.268 85.896 254.282 87.086C254.828 86.064 256.102 85.448 257.502 85.448C258.636 85.448 259.546 85.742 260.204 86.344C260.862 86.946 261.198 87.744 261.198 88.724C261.198 89.718 260.834 90.544 260.092 91.174C259.35 91.804 258.426 92.126 257.32 92.126C254.674 92.126 253.036 90.404 253.036 87.366ZM254.436 88.556C254.702 89.942 255.752 90.922 257.306 90.922C258.062 90.922 258.692 90.726 259.182 90.32C259.672 89.928 259.91 89.41 259.91 88.78C259.91 87.394 258.93 86.652 257.432 86.652C256.606 86.652 255.92 86.848 255.388 87.24C254.842 87.632 254.534 88.066 254.436 88.556ZM268.968 92H267.75V89.998H261.758V89.186L267.89 82.2H268.968V88.864H270.788V89.998H268.968V92ZM267.75 84.16L263.438 88.864H267.75V84.16ZM271.472 87.366C271.472 85.672 271.892 84.37 272.718 83.446C273.544 82.536 274.58 82.074 275.826 82.074C277.464 82.074 278.752 82.816 279.298 83.992L278.346 84.636C277.772 83.726 276.918 83.278 275.77 83.278C274.902 83.278 274.174 83.614 273.586 84.286C272.998 84.972 272.704 85.896 272.718 87.086C273.264 86.064 274.538 85.448 275.938 85.448C277.072 85.448 277.982 85.742 278.64 86.344C279.298 86.946 279.634 87.744 279.634 88.724C279.634 89.718 279.27 90.544 278.528 91.174C277.786 91.804 276.862 92.126 275.756 92.126C273.11 92.126 271.472 90.404 271.472 87.366ZM272.872 88.556C273.138 89.942 274.188 90.922 275.742 90.922C276.498 90.922 277.128 90.726 277.618 90.32C278.108 89.928 278.346 89.41 278.346 88.78C278.346 87.394 277.366 86.652 275.868 86.652C275.042 86.652 274.356 86.848 273.824 87.24C273.278 87.632 272.97 88.066 272.872 88.556Z" fill="#1A3341"/>
<path d="M206 103H214C214.552 103 215 103.448 215 104V120C215 120.552 214.552 121 214 121H206V103Z" fill="url(#paint17_linear_5796_19897)"/>
<path d="M223.49 108.804L223.042 107.754L226.402 106.144H227.2V116H225.996V107.642L223.49 108.804ZM228.985 111.366C228.985 109.672 229.405 108.37 230.231 107.446C231.057 106.536 232.093 106.074 233.339 106.074C234.977 106.074 236.265 106.816 236.811 107.992L235.859 108.636C235.285 107.726 234.431 107.278 233.283 107.278C232.415 107.278 231.687 107.614 231.099 108.286C230.511 108.972 230.217 109.896 230.231 111.086C230.777 110.064 232.051 109.448 233.451 109.448C234.585 109.448 235.495 109.742 236.153 110.344C236.811 110.946 237.147 111.744 237.147 112.724C237.147 113.718 236.783 114.544 236.041 115.174C235.299 115.804 234.375 116.126 233.269 116.126C230.623 116.126 228.985 114.404 228.985 111.366ZM230.385 112.556C230.651 113.942 231.701 114.922 233.255 114.922C234.011 114.922 234.641 114.726 235.131 114.32C235.621 113.928 235.859 113.41 235.859 112.78C235.859 111.394 234.879 110.652 233.381 110.652C232.555 110.652 231.869 110.848 231.337 111.24C230.791 111.632 230.483 112.066 230.385 112.556ZM239.094 116C238.576 116.056 238.184 115.762 238.184 115.258C238.184 114.768 238.492 114.46 239.038 114.46C239.654 114.46 240.06 114.88 240.06 115.664C240.06 117.064 239.29 117.778 238.268 118.016L237.974 117.358C238.282 117.274 238.562 117.106 238.814 116.84C239.052 116.574 239.15 116.294 239.094 116ZM249.226 110.918C249.226 112.584 248.834 113.872 248.036 114.768C247.238 115.678 246.174 116.126 244.844 116.126C243.22 116.126 241.946 115.44 241.316 114.39L242.324 113.69C242.884 114.474 243.906 114.922 245.012 114.922C245.922 114.922 246.65 114.558 247.224 113.83C247.798 113.116 248.036 112.22 247.966 111.156C247.504 112.22 246.342 113.004 244.788 113.004C243.696 113.004 242.8 112.696 242.1 112.066C241.386 111.45 241.036 110.638 241.036 109.644C241.036 108.552 241.414 107.684 242.17 107.04C242.926 106.396 243.934 106.074 245.18 106.074C247.7 106.074 249.226 107.838 249.226 110.918ZM247.756 109.602C247.546 108.3 246.65 107.278 245.04 107.278C243.36 107.278 242.324 108.146 242.324 109.602C242.324 110.988 243.374 111.8 245.012 111.8C245.754 111.8 246.384 111.576 246.874 111.128C247.364 110.68 247.658 110.176 247.756 109.602ZM255.89 107.39H249.954V106.2H257.388V106.998L252.516 116H251.186L255.89 107.39ZM258.134 111.1C258.134 109.588 258.484 108.37 259.198 107.46C259.898 106.55 260.934 106.088 262.292 106.088C265.078 106.088 266.464 107.922 266.464 111.1C266.464 112.626 266.114 113.83 265.428 114.74C264.728 115.65 263.692 116.112 262.32 116.112C261.004 116.112 259.982 115.65 259.24 114.726C258.498 113.802 258.134 112.598 258.134 111.1ZM259.422 111.1C259.422 113.494 260.514 114.922 262.32 114.922C264.224 114.922 265.176 113.648 265.176 111.1C265.176 108.552 264.21 107.278 262.292 107.278C260.346 107.278 259.422 108.678 259.422 111.1Z" fill="#1A3341"/>
<path opacity="0.6" d="M169.684 99.132L170.644 99.204C170.32 102.72 169.684 106.68 167.068 108.864C166.936 108.672 166.624 108.36 166.444 108.192C168.892 106.164 169.444 102.42 169.684 99.132ZM173.908 98.856C173.944 99.732 174.232 105.648 177.64 108.24C177.328 108.408 177.052 108.624 176.872 108.852C173.416 106.116 173.104 99.9 173.032 98.916L173.908 98.856ZM181.276 104.328H186.892V102.312H181.408C181.408 102.936 181.372 103.62 181.276 104.328ZM186.892 99.468H181.408V101.46H186.892V99.468ZM187.816 98.592V107.616C187.816 108.24 187.636 108.552 187.192 108.696C186.736 108.852 185.944 108.864 184.66 108.864C184.6 108.612 184.432 108.192 184.288 107.94C185.284 107.976 186.244 107.964 186.52 107.964C186.796 107.952 186.892 107.868 186.892 107.604V105.204H181.132C180.832 106.56 180.232 107.916 179.068 108.936C178.948 108.744 178.588 108.42 178.408 108.288C180.316 106.608 180.508 104.172 180.508 102.264V98.592H187.816Z" fill="#1A3341"/>
<path d="M206 277H220C220.552 277 221 277.448 221 278V294C221 294.552 220.552 295 220 295H206V277Z" fill="url(#paint18_linear_5796_19897)"/>
<path d="M230.722 283.434L229.7 283.07C230.05 281.334 231.366 280.088 233.452 280.088C235.468 280.088 236.7 281.25 236.7 283.028C236.7 283.966 236.294 284.904 235.79 285.576C235.538 285.926 235.216 286.262 234.838 286.612C234.068 287.298 233.522 287.662 232.724 288.166L231.646 288.838H237.064V290H229.434V289.048L231.562 287.634C231.94 287.396 232.206 287.214 232.36 287.102C232.514 287.004 232.766 286.822 233.102 286.584C233.438 286.346 233.69 286.136 233.858 285.982C234.012 285.828 234.222 285.632 234.46 285.38C235.104 284.68 235.342 284.036 235.412 283.154C235.412 281.88 234.586 281.306 233.368 281.306C232.612 281.306 232.01 281.516 231.576 281.936C231.142 282.356 230.848 282.86 230.722 283.434ZM243.648 281.39H237.712V280.2H245.146V280.998L240.274 290H238.944L243.648 281.39ZM245.983 290C245.465 290.056 245.073 289.762 245.073 289.258C245.073 288.768 245.381 288.46 245.927 288.46C246.543 288.46 246.949 288.88 246.949 289.664C246.949 291.064 246.179 291.778 245.157 292.016L244.863 291.358C245.171 291.274 245.451 291.106 245.703 290.84C245.941 290.574 246.039 290.294 245.983 290ZM247.967 285.366C247.967 283.672 248.387 282.37 249.213 281.446C250.039 280.536 251.075 280.074 252.321 280.074C253.959 280.074 255.247 280.816 255.793 281.992L254.841 282.636C254.267 281.726 253.413 281.278 252.265 281.278C251.397 281.278 250.669 281.614 250.081 282.286C249.493 282.972 249.199 283.896 249.213 285.086C249.759 284.064 251.033 283.448 252.433 283.448C253.567 283.448 254.477 283.742 255.135 284.344C255.793 284.946 256.129 285.744 256.129 286.724C256.129 287.718 255.765 288.544 255.023 289.174C254.281 289.804 253.357 290.126 252.251 290.126C249.605 290.126 247.967 288.404 247.967 285.366ZM249.367 286.556C249.633 287.942 250.683 288.922 252.237 288.922C252.993 288.922 253.623 288.726 254.113 288.32C254.603 287.928 254.841 287.41 254.841 286.78C254.841 285.394 253.861 284.652 252.363 284.652C251.537 284.652 250.851 284.848 250.319 285.24C249.773 285.632 249.465 286.066 249.367 286.556ZM261.002 284.414H261.436C262.066 284.414 262.584 284.26 263.018 283.966C263.438 283.672 263.648 283.28 263.648 282.818C263.648 281.768 262.822 281.236 261.184 281.236C259.616 281.236 258.762 281.81 258.762 282.818C258.762 283.728 259.7 284.414 261.002 284.414ZM261.408 285.52H261.058C260.302 285.52 259.672 285.688 259.182 286.01C258.692 286.332 258.44 286.738 258.44 287.228C258.44 288.292 259.42 288.964 261.198 288.964C263.004 288.964 263.97 288.32 263.97 287.242C263.97 286.164 262.934 285.52 261.408 285.52ZM264.166 289.37C263.452 289.874 262.458 290.126 261.212 290.126C259.966 290.126 258.972 289.874 258.244 289.384C257.516 288.894 257.152 288.222 257.152 287.354C257.152 286.22 257.894 285.324 259.084 284.932C258.006 284.582 257.474 283.728 257.474 282.734C257.474 281.11 258.846 280.074 261.198 280.074C263.564 280.074 264.936 281.11 264.936 282.734C264.936 283.672 264.418 284.386 263.382 284.862C264.628 285.24 265.244 286.052 265.244 287.298C265.244 288.18 264.88 288.88 264.166 289.37ZM273.098 290H271.88V287.998H265.888V287.186L272.02 280.2H273.098V286.864H274.918V287.998H273.098V290ZM271.88 282.16L267.568 286.864H271.88V282.16Z" fill="#1A3341"/>
<path d="M206 301H214C214.552 301 215 301.448 215 302V318C215 318.552 214.552 319 214 319H206V301Z" fill="url(#paint19_linear_5796_19897)"/>
<path d="M223.49 306.804L223.042 305.754L226.402 304.144H227.2V314H225.996V305.642L223.49 306.804ZM228.985 309.366C228.985 307.672 229.405 306.37 230.231 305.446C231.057 304.536 232.093 304.074 233.339 304.074C234.977 304.074 236.265 304.816 236.811 305.992L235.859 306.636C235.285 305.726 234.431 305.278 233.283 305.278C232.415 305.278 231.687 305.614 231.099 306.286C230.511 306.972 230.217 307.896 230.231 309.086C230.777 308.064 232.051 307.448 233.451 307.448C234.585 307.448 235.495 307.742 236.153 308.344C236.811 308.946 237.147 309.744 237.147 310.724C237.147 311.718 236.783 312.544 236.041 313.174C235.299 313.804 234.375 314.126 233.269 314.126C230.623 314.126 228.985 312.404 228.985 309.366ZM230.385 310.556C230.651 311.942 231.701 312.922 233.255 312.922C234.011 312.922 234.641 312.726 235.131 312.32C235.621 311.928 235.859 311.41 235.859 310.78C235.859 309.394 234.879 308.652 233.381 308.652C232.555 308.652 231.869 308.848 231.337 309.24C230.791 309.632 230.483 310.066 230.385 310.556ZM239.094 314C238.576 314.056 238.184 313.762 238.184 313.258C238.184 312.768 238.492 312.46 239.038 312.46C239.654 312.46 240.06 312.88 240.06 313.664C240.06 315.064 239.29 315.778 238.268 316.016L237.974 315.358C238.282 315.274 238.562 315.106 238.814 314.84C239.052 314.574 239.15 314.294 239.094 314ZM242.044 307.056L240.994 306.58C241.512 305.068 242.87 304.074 244.9 304.074C245.866 304.074 246.664 304.298 247.28 304.746C247.896 305.194 248.204 305.796 248.204 306.538C248.204 307.672 247.602 308.512 246.482 308.834C247.56 308.904 248.428 309.716 248.428 311.172C248.428 312.096 248.092 312.824 247.42 313.342C246.748 313.86 245.894 314.126 244.844 314.126C242.702 314.126 241.218 313.104 240.728 311.494L241.862 311.004C242.464 312.278 243.486 312.922 244.928 312.922C246.286 312.922 247.14 312.292 247.14 311.186C247.14 310.108 246.3 309.562 244.62 309.562H243.528V308.4H244.396C245.922 308.4 246.916 307.714 246.916 306.776C246.916 305.81 246.118 305.264 244.844 305.264C243.346 305.264 242.436 306.034 242.044 307.056ZM256.341 314H255.123V311.998H249.131V311.186L255.263 304.2H256.341V310.864H258.161V311.998H256.341V314ZM255.123 306.16L250.811 310.864H255.123V306.16ZM265.607 314H264.389V311.998H258.397V311.186L264.529 304.2H265.607V310.864H267.427V311.998H265.607V314ZM264.389 306.16L260.077 310.864H264.389V306.16Z" fill="#1A3341"/>
<path opacity="0.6" d="M165.388 300.42V301.332H160.492V306.912H159.544V301.332H154.708V300.42H159.544V295.98H160.492V300.42H165.388ZM166.576 300.84H177.472V301.812H166.576V300.84ZM181.276 302.328H186.892V300.312H181.408C181.408 300.936 181.372 301.62 181.276 302.328ZM186.892 297.468H181.408V299.46H186.892V297.468ZM187.816 296.592V305.616C187.816 306.24 187.636 306.552 187.192 306.696C186.736 306.852 185.944 306.864 184.66 306.864C184.6 306.612 184.432 306.192 184.288 305.94C185.284 305.976 186.244 305.964 186.52 305.964C186.796 305.952 186.892 305.868 186.892 305.604V303.204H181.132C180.832 304.56 180.232 305.916 179.068 306.936C178.948 306.744 178.588 306.42 178.408 306.288C180.316 304.608 180.508 302.172 180.508 300.264V296.592H187.816Z" fill="#1A3341"/>
<path d="M206 145H223C223.552 145 224 145.448 224 146V162C224 162.552 223.552 163 223 163H206V145Z" fill="url(#paint20_linear_5796_19897)"/>
<path d="M233.568 151.056L232.518 150.58C233.036 149.068 234.394 148.074 236.424 148.074C237.39 148.074 238.188 148.298 238.804 148.746C239.42 149.194 239.728 149.796 239.728 150.538C239.728 151.672 239.126 152.512 238.006 152.834C239.084 152.904 239.952 153.716 239.952 155.172C239.952 156.096 239.616 156.824 238.944 157.342C238.272 157.86 237.418 158.126 236.368 158.126C234.226 158.126 232.742 157.104 232.252 155.494L233.386 155.004C233.988 156.278 235.01 156.922 236.452 156.922C237.81 156.922 238.664 156.292 238.664 155.186C238.664 154.108 237.824 153.562 236.144 153.562H235.052V152.4H235.92C237.446 152.4 238.44 151.714 238.44 150.776C238.44 149.81 237.642 149.264 236.368 149.264C234.87 149.264 233.96 150.034 233.568 151.056ZM242.069 151.056L241.019 150.58C241.537 149.068 242.895 148.074 244.925 148.074C245.891 148.074 246.689 148.298 247.305 148.746C247.921 149.194 248.229 149.796 248.229 150.538C248.229 151.672 247.627 152.512 246.507 152.834C247.585 152.904 248.453 153.716 248.453 155.172C248.453 156.096 248.117 156.824 247.445 157.342C246.773 157.86 245.919 158.126 244.869 158.126C242.727 158.126 241.243 157.104 240.753 155.494L241.887 155.004C242.489 156.278 243.511 156.922 244.953 156.922C246.311 156.922 247.165 156.292 247.165 155.186C247.165 154.108 246.325 153.562 244.645 153.562H243.553V152.4H244.421C245.947 152.4 246.941 151.714 246.941 150.776C246.941 149.81 246.143 149.264 244.869 149.264C243.371 149.264 242.461 150.034 242.069 151.056ZM250.541 158C250.023 158.056 249.631 157.762 249.631 157.258C249.631 156.768 249.939 156.46 250.485 156.46C251.101 156.46 251.507 156.88 251.507 157.664C251.507 159.064 250.737 159.778 249.715 160.016L249.421 159.358C249.729 159.274 250.009 159.106 250.261 158.84C250.499 158.574 250.597 158.294 250.541 158ZM252.526 153.1C252.526 151.588 252.876 150.37 253.59 149.46C254.29 148.55 255.326 148.088 256.684 148.088C259.47 148.088 260.856 149.922 260.856 153.1C260.856 154.626 260.506 155.83 259.82 156.74C259.12 157.65 258.084 158.112 256.712 158.112C255.396 158.112 254.374 157.65 253.632 156.726C252.89 155.802 252.526 154.598 252.526 153.1ZM253.814 153.1C253.814 155.494 254.906 156.922 256.712 156.922C258.616 156.922 259.568 155.648 259.568 153.1C259.568 150.552 258.602 149.278 256.684 149.278C254.738 149.278 253.814 150.678 253.814 153.1ZM261.789 150.804L261.341 149.754L264.701 148.144H265.499V158H264.295V149.642L261.789 150.804ZM267.285 153.1C267.285 151.588 267.635 150.37 268.349 149.46C269.049 148.55 270.085 148.088 271.443 148.088C274.229 148.088 275.615 149.922 275.615 153.1C275.615 154.626 275.265 155.83 274.579 156.74C273.879 157.65 272.843 158.112 271.471 158.112C270.155 158.112 269.133 157.65 268.391 156.726C267.649 155.802 267.285 154.598 267.285 153.1ZM268.573 153.1C268.573 155.494 269.665 156.922 271.471 156.922C273.375 156.922 274.327 155.648 274.327 153.1C274.327 150.552 273.361 149.278 271.443 149.278C269.497 149.278 268.573 150.678 268.573 153.1Z" fill="#1A3341"/>
<path d="M206 169H214C214.552 169 215 169.448 215 170V186C215 186.552 214.552 187 214 187H206V169Z" fill="url(#paint21_linear_5796_19897)"/>
<path d="M223.49 174.804L223.042 173.754L226.402 172.144H227.2V182H225.996V173.642L223.49 174.804ZM228.985 177.366C228.985 175.672 229.405 174.37 230.231 173.446C231.057 172.536 232.093 172.074 233.339 172.074C234.977 172.074 236.265 172.816 236.811 173.992L235.859 174.636C235.285 173.726 234.431 173.278 233.283 173.278C232.415 173.278 231.687 173.614 231.099 174.286C230.511 174.972 230.217 175.896 230.231 177.086C230.777 176.064 232.051 175.448 233.451 175.448C234.585 175.448 235.495 175.742 236.153 176.344C236.811 176.946 237.147 177.744 237.147 178.724C237.147 179.718 236.783 180.544 236.041 181.174C235.299 181.804 234.375 182.126 233.269 182.126C230.623 182.126 228.985 180.404 228.985 177.366ZM230.385 178.556C230.651 179.942 231.701 180.922 233.255 180.922C234.011 180.922 234.641 180.726 235.131 180.32C235.621 179.928 235.859 179.41 235.859 178.78C235.859 177.394 234.879 176.652 233.381 176.652C232.555 176.652 231.869 176.848 231.337 177.24C230.791 177.632 230.483 178.066 230.385 178.556ZM239.094 182C238.576 182.056 238.184 181.762 238.184 181.258C238.184 180.768 238.492 180.46 239.038 180.46C239.654 180.46 240.06 180.88 240.06 181.664C240.06 183.064 239.29 183.778 238.268 184.016L237.974 183.358C238.282 183.274 238.562 183.106 238.814 182.84C239.052 182.574 239.15 182.294 239.094 182ZM241.078 177.1C241.078 175.588 241.428 174.37 242.142 173.46C242.842 172.55 243.878 172.088 245.236 172.088C248.022 172.088 249.408 173.922 249.408 177.1C249.408 178.626 249.058 179.83 248.372 180.74C247.672 181.65 246.636 182.112 245.264 182.112C243.948 182.112 242.926 181.65 242.184 180.726C241.442 179.802 241.078 178.598 241.078 177.1ZM242.366 177.1C242.366 179.494 243.458 180.922 245.264 180.922C247.168 180.922 248.12 179.648 248.12 177.1C248.12 174.552 247.154 173.278 245.236 173.278C243.29 173.278 242.366 174.678 242.366 177.1ZM258.602 176.918C258.602 178.584 258.21 179.872 257.412 180.768C256.614 181.678 255.55 182.126 254.22 182.126C252.596 182.126 251.322 181.44 250.692 180.39L251.7 179.69C252.26 180.474 253.282 180.922 254.388 180.922C255.298 180.922 256.026 180.558 256.6 179.83C257.174 179.116 257.412 178.22 257.342 177.156C256.88 178.22 255.718 179.004 254.164 179.004C253.072 179.004 252.176 178.696 251.476 178.066C250.762 177.45 250.412 176.638 250.412 175.644C250.412 174.552 250.79 173.684 251.546 173.04C252.302 172.396 253.31 172.074 254.556 172.074C257.076 172.074 258.602 173.838 258.602 176.918ZM257.132 175.602C256.922 174.3 256.026 173.278 254.416 173.278C252.736 173.278 251.7 174.146 251.7 175.602C251.7 176.988 252.75 177.8 254.388 177.8C255.13 177.8 255.76 177.576 256.25 177.128C256.74 176.68 257.034 176.176 257.132 175.602ZM266.414 182H265.196V179.998H259.204V179.186L265.336 172.2H266.414V178.864H268.234V179.998H266.414V182ZM265.196 174.16L260.884 178.864H265.196V174.16Z" fill="#1A3341"/>
<path opacity="0.6" d="M175.18 173.868H176.404C176.74 173.868 176.8 173.58 176.836 172.14C177.04 172.32 177.424 172.464 177.664 172.536C177.58 174.204 177.352 174.744 176.464 174.744H175.048C174.124 174.744 173.836 174.456 173.836 173.364V167.904H171.088C170.836 170.904 169.996 173.448 167.104 174.912C166.984 174.696 166.684 174.372 166.444 174.204C169.156 172.92 169.936 170.628 170.164 167.904H166.996V167.016H170.224C170.26 166.08 170.26 165.096 170.26 164.088H171.208C171.196 165.084 171.196 166.068 171.148 167.016H174.376V167.028H174.736V173.376C174.736 173.796 174.796 173.868 175.18 173.868ZM181.276 170.328H186.892V168.312H181.408C181.408 168.936 181.372 169.62 181.276 170.328ZM186.892 165.468H181.408V167.46H186.892V165.468ZM187.816 164.592V173.616C187.816 174.24 187.636 174.552 187.192 174.696C186.736 174.852 185.944 174.864 184.66 174.864C184.6 174.612 184.432 174.192 184.288 173.94C185.284 173.976 186.244 173.964 186.52 173.964C186.796 173.952 186.892 173.868 186.892 173.604V171.204H181.132C180.832 172.56 180.232 173.916 179.068 174.936C178.948 174.744 178.588 174.42 178.408 174.288C180.316 172.608 180.508 170.172 180.508 168.264V164.592H187.816Z" fill="#1A3341"/>
<path d="M206 343H219C219.552 343 220 343.448 220 344V360C220 360.552 219.552 361 219 361H206V343Z" fill="url(#paint22_linear_5796_19897)"/>
<path d="M229.722 349.434L228.7 349.07C229.05 347.334 230.366 346.088 232.452 346.088C234.468 346.088 235.7 347.25 235.7 349.028C235.7 349.966 235.294 350.904 234.79 351.576C234.538 351.926 234.216 352.262 233.838 352.612C233.068 353.298 232.522 353.662 231.724 354.166L230.646 354.838H236.064V356H228.434V355.048L230.562 353.634C230.94 353.396 231.206 353.214 231.36 353.102C231.514 353.004 231.766 352.822 232.102 352.584C232.438 352.346 232.69 352.136 232.858 351.982C233.012 351.828 233.222 351.632 233.46 351.38C234.104 350.68 234.342 350.036 234.412 349.154C234.412 347.88 233.586 347.306 232.368 347.306C231.612 347.306 231.01 347.516 230.576 347.936C230.142 348.356 229.848 348.86 229.722 349.434ZM243.796 356H242.578V353.998H236.586V353.186L242.718 346.2H243.796V352.864H245.616V353.998H243.796V356ZM242.578 348.16L238.266 352.864H242.578V348.16ZM247.239 356C246.721 356.056 246.329 355.762 246.329 355.258C246.329 354.768 246.637 354.46 247.183 354.46C247.799 354.46 248.205 354.88 248.205 355.664C248.205 357.064 247.435 357.778 246.413 358.016L246.119 357.358C246.427 357.274 246.707 357.106 246.959 356.84C247.197 356.574 247.295 356.294 247.239 356ZM249.111 348.804L248.663 347.754L252.023 346.144H252.821V356H251.617V347.642L249.111 348.804ZM261.368 356H260.15V353.998H254.158V353.186L260.29 346.2H261.368V352.864H263.188V353.998H261.368V356ZM260.15 348.16L255.838 352.864H260.15V348.16ZM263.873 351.366C263.873 349.672 264.293 348.37 265.119 347.446C265.945 346.536 266.981 346.074 268.227 346.074C269.865 346.074 271.153 346.816 271.699 347.992L270.747 348.636C270.173 347.726 269.319 347.278 268.171 347.278C267.303 347.278 266.575 347.614 265.987 348.286C265.399 348.972 265.105 349.896 265.119 351.086C265.665 350.064 266.939 349.448 268.339 349.448C269.473 349.448 270.383 349.742 271.041 350.344C271.699 350.946 272.035 351.744 272.035 352.724C272.035 353.718 271.671 354.544 270.929 355.174C270.187 355.804 269.263 356.126 268.157 356.126C265.511 356.126 263.873 354.404 263.873 351.366ZM265.273 352.556C265.539 353.942 266.589 354.922 268.143 354.922C268.899 354.922 269.529 354.726 270.019 354.32C270.509 353.928 270.747 353.41 270.747 352.78C270.747 351.394 269.767 350.652 268.269 350.652C267.443 350.652 266.757 350.848 266.225 351.24C265.679 351.632 265.371 352.066 265.273 352.556Z" fill="#1A3341"/>
<path d="M206 367H212C212.552 367 213 367.448 213 368V384C213 384.552 212.552 385 212 385H206V367Z" fill="url(#paint23_linear_5796_19897)"/>
<path d="M221.49 372.804L221.042 371.754L224.402 370.144H225.2V380H223.996V371.642L221.49 372.804ZM233.747 380H232.529V377.998H226.537V377.186L232.669 370.2H233.747V376.864H235.567V377.998H233.747V380ZM232.529 372.16L228.217 376.864H232.529V372.16ZM237.19 380C236.672 380.056 236.28 379.762 236.28 379.258C236.28 378.768 236.588 378.46 237.134 378.46C237.75 378.46 238.156 378.88 238.156 379.664C238.156 381.064 237.386 381.778 236.364 382.016L236.07 381.358C236.378 381.274 236.658 381.106 236.91 380.84C237.148 380.574 237.246 380.294 237.19 380ZM239.062 372.804L238.614 371.754L241.974 370.144H242.772V380H241.568V371.642L239.062 372.804ZM245.678 373.434L244.656 373.07C245.006 371.334 246.322 370.088 248.408 370.088C250.424 370.088 251.656 371.25 251.656 373.028C251.656 373.966 251.25 374.904 250.746 375.576C250.494 375.926 250.172 376.262 249.794 376.612C249.024 377.298 248.478 377.662 247.68 378.166L246.602 378.838H252.02V380H244.39V379.048L246.518 377.634C246.896 377.396 247.162 377.214 247.316 377.102C247.47 377.004 247.722 376.822 248.058 376.584C248.394 376.346 248.646 376.136 248.814 375.982C248.968 375.828 249.178 375.632 249.416 375.38C250.06 374.68 250.298 374.036 250.368 373.154C250.368 371.88 249.542 371.306 248.324 371.306C247.568 371.306 246.966 371.516 246.532 371.936C246.098 372.356 245.804 372.86 245.678 373.434ZM259.752 380H258.534V377.998H252.542V377.186L258.674 370.2H259.752V376.864H261.572V377.998H259.752V380ZM258.534 372.16L254.222 376.864H258.534V372.16Z" fill="#1A3341"/>
<path opacity="0.6" d="M165.388 366.42V367.332H160.492V372.912H159.544V367.332H154.708V366.42H159.544V361.98H160.492V366.42H165.388ZM167.728 363.684H176.284V364.632H167.728V363.684ZM166.72 370.752H177.292V371.724H166.72V370.752ZM181.276 368.328H186.892V366.312H181.408C181.408 366.936 181.372 367.62 181.276 368.328ZM186.892 363.468H181.408V365.46H186.892V363.468ZM187.816 362.592V371.616C187.816 372.24 187.636 372.552 187.192 372.696C186.736 372.852 185.944 372.864 184.66 372.864C184.6 372.612 184.432 372.192 184.288 371.94C185.284 371.976 186.244 371.964 186.52 371.964C186.796 371.952 186.892 371.868 186.892 371.604V369.204H181.132C180.832 370.56 180.232 371.916 179.068 372.936C178.948 372.744 178.588 372.42 178.408 372.288C180.316 370.608 180.508 368.172 180.508 366.264V362.592H187.816Z" fill="#1A3341"/>
<path d="M40 422H248C248.552 422 249 422.448 249 423V439C249 439.552 248.552 440 248 440H40V422Z" fill="url(#paint24_linear_5796_19897)"/>
<path d="M264.364 435H263.146V432.998H257.154V432.186L263.286 425.2H264.364V431.864H266.184V432.998H264.364V435ZM263.146 427.16L258.834 431.864H263.146V427.16ZM266.756 427.804L266.308 426.754L269.668 425.144H270.466V435H269.262V426.642L266.756 427.804ZM272.252 430.1C272.252 428.588 272.602 427.37 273.316 426.46C274.016 425.55 275.052 425.088 276.41 425.088C279.196 425.088 280.582 426.922 280.582 430.1C280.582 431.626 280.232 432.83 279.546 433.74C278.846 434.65 277.81 435.112 276.438 435.112C275.122 435.112 274.1 434.65 273.358 433.726C272.616 432.802 272.252 431.598 272.252 430.1ZM273.54 430.1C273.54 432.494 274.632 433.922 276.438 433.922C278.342 433.922 279.294 432.648 279.294 430.1C279.294 427.552 278.328 426.278 276.41 426.278C274.464 426.278 273.54 427.678 273.54 430.1ZM282.565 435C282.047 435.056 281.655 434.762 281.655 434.258C281.655 433.768 281.963 433.46 282.509 433.46C283.125 433.46 283.531 433.88 283.531 434.664C283.531 436.064 282.761 436.778 281.739 437.016L281.445 436.358C281.753 436.274 282.033 436.106 282.285 435.84C282.523 435.574 282.621 435.294 282.565 435ZM284.55 430.366C284.55 428.672 284.97 427.37 285.796 426.446C286.622 425.536 287.658 425.074 288.904 425.074C290.542 425.074 291.83 425.816 292.376 426.992L291.424 427.636C290.85 426.726 289.996 426.278 288.848 426.278C287.98 426.278 287.252 426.614 286.664 427.286C286.076 427.972 285.782 428.896 285.796 430.086C286.342 429.064 287.616 428.448 289.016 428.448C290.15 428.448 291.06 428.742 291.718 429.344C292.376 429.946 292.712 430.744 292.712 431.724C292.712 432.718 292.348 433.544 291.606 434.174C290.864 434.804 289.94 435.126 288.834 435.126C286.188 435.126 284.55 433.404 284.55 430.366ZM285.95 431.556C286.216 432.942 287.266 433.922 288.82 433.922C289.576 433.922 290.206 433.726 290.696 433.32C291.186 432.928 291.424 432.41 291.424 431.78C291.424 430.394 290.444 429.652 288.946 429.652C288.12 429.652 287.434 429.848 286.902 430.24C286.356 430.632 286.048 431.066 285.95 431.556ZM294.686 428.056L293.636 427.58C294.154 426.068 295.512 425.074 297.542 425.074C298.508 425.074 299.306 425.298 299.922 425.746C300.538 426.194 300.846 426.796 300.846 427.538C300.846 428.672 300.244 429.512 299.124 429.834C300.202 429.904 301.07 430.716 301.07 432.172C301.07 433.096 300.734 433.824 300.062 434.342C299.39 434.86 298.536 435.126 297.486 435.126C295.344 435.126 293.86 434.104 293.37 432.494L294.504 432.004C295.106 433.278 296.128 433.922 297.57 433.922C298.928 433.922 299.782 433.292 299.782 432.186C299.782 431.108 298.942 430.562 297.262 430.562H296.17V429.4H297.038C298.564 429.4 299.558 428.714 299.558 427.776C299.558 426.81 298.76 426.264 297.486 426.264C295.988 426.264 295.078 427.034 294.686 428.056ZM306.085 429.414H306.519C307.149 429.414 307.667 429.26 308.101 428.966C308.521 428.672 308.731 428.28 308.731 427.818C308.731 426.768 307.905 426.236 306.267 426.236C304.699 426.236 303.845 426.81 303.845 427.818C303.845 428.728 304.783 429.414 306.085 429.414ZM306.491 430.52H306.141C305.385 430.52 304.755 430.688 304.265 431.01C303.775 431.332 303.523 431.738 303.523 432.228C303.523 433.292 304.503 433.964 306.281 433.964C308.087 433.964 309.053 433.32 309.053 432.242C309.053 431.164 308.017 430.52 306.491 430.52ZM309.249 434.37C308.535 434.874 307.541 435.126 306.295 435.126C305.049 435.126 304.055 434.874 303.327 434.384C302.599 433.894 302.235 433.222 302.235 432.354C302.235 431.22 302.977 430.324 304.167 429.932C303.089 429.582 302.557 428.728 302.557 427.734C302.557 426.11 303.929 425.074 306.281 425.074C308.647 425.074 310.019 426.11 310.019 427.734C310.019 428.672 309.501 429.386 308.465 429.862C309.711 430.24 310.327 431.052 310.327 432.298C310.327 433.18 309.963 433.88 309.249 434.37Z" fill="#1A3341"/>
<path d="M40 446H146C146.552 446 147 446.448 147 447V463C147 463.552 146.552 464 146 464H40V446Z" fill="url(#paint25_linear_5796_19897)"/>
<path d="M156.722 452.434L155.7 452.07C156.05 450.334 157.366 449.088 159.452 449.088C161.468 449.088 162.7 450.25 162.7 452.028C162.7 452.966 162.294 453.904 161.79 454.576C161.538 454.926 161.216 455.262 160.838 455.612C160.068 456.298 159.522 456.662 158.724 457.166L157.646 457.838H163.064V459H155.434V458.048L157.562 456.634C157.94 456.396 158.206 456.214 158.36 456.102C158.514 456.004 158.766 455.822 159.102 455.584C159.438 455.346 159.69 455.136 159.858 454.982C160.012 454.828 160.222 454.632 160.46 454.38C161.104 453.68 161.342 453.036 161.412 452.154C161.412 450.88 160.586 450.306 159.368 450.306C158.612 450.306 158.01 450.516 157.576 450.936C157.142 451.356 156.848 451.86 156.722 452.434ZM163.922 451.804L163.474 450.754L166.834 449.144H167.632V459H166.428V450.642L163.922 451.804ZM169.306 451.804L168.858 450.754L172.218 449.144H173.016V459H171.812V450.642L169.306 451.804ZM175.739 459C175.221 459.056 174.829 458.762 174.829 458.258C174.829 457.768 175.137 457.46 175.683 457.46C176.299 457.46 176.705 457.88 176.705 458.664C176.705 460.064 175.935 460.778 174.913 461.016L174.619 460.358C174.927 460.274 175.207 460.106 175.459 459.84C175.697 459.574 175.795 459.294 175.739 459ZM177.612 451.804L177.164 450.754L180.524 449.144H181.322V459H180.118V450.642L177.612 451.804ZM184.227 452.434L183.205 452.07C183.555 450.334 184.871 449.088 186.957 449.088C188.973 449.088 190.205 450.25 190.205 452.028C190.205 452.966 189.799 453.904 189.295 454.576C189.043 454.926 188.721 455.262 188.343 455.612C187.573 456.298 187.027 456.662 186.229 457.166L185.151 457.838H190.569V459H182.939V458.048L185.067 456.634C185.445 456.396 185.711 456.214 185.865 456.102C186.019 456.004 186.271 455.822 186.607 455.584C186.943 455.346 187.195 455.136 187.363 454.982C187.517 454.828 187.727 454.632 187.965 454.38C188.609 453.68 188.847 453.036 188.917 452.154C188.917 450.88 188.091 450.306 186.873 450.306C186.117 450.306 185.515 450.516 185.081 450.936C184.647 451.356 184.353 451.86 184.227 452.434ZM192.659 452.434L191.637 452.07C191.987 450.334 193.303 449.088 195.389 449.088C197.405 449.088 198.637 450.25 198.637 452.028C198.637 452.966 198.231 453.904 197.727 454.576C197.475 454.926 197.153 455.262 196.775 455.612C196.005 456.298 195.459 456.662 194.661 457.166L193.583 457.838H199.001V459H191.371V458.048L193.499 456.634C193.877 456.396 194.143 456.214 194.297 456.102C194.451 456.004 194.703 455.822 195.039 455.584C195.375 455.346 195.627 455.136 195.795 454.982C195.949 454.828 196.159 454.632 196.397 454.38C197.041 453.68 197.279 453.036 197.349 452.154C197.349 450.88 196.523 450.306 195.305 450.306C194.549 450.306 193.947 450.516 193.513 450.936C193.079 451.356 192.785 451.86 192.659 452.434Z" fill="#1A3341"/>
<path d="M8.82 446.32V444.22H3.204V446.32H8.82ZM9.792 443.38V447.16H2.268V443.38H4.332C4.116 442.828 3.612 441.988 3.12 441.364L3.876 441.016C4.392 441.628 4.932 442.456 5.148 443.02L4.416 443.38H6.876C7.356 442.672 7.896 441.712 8.184 440.98L9.096 441.352C8.712 442.024 8.268 442.768 7.86 443.38H9.792ZM4.956 447.772L5.58 447.268C6.372 447.796 7.308 448.6 7.74 449.152L7.092 449.728C6.648 449.14 5.736 448.3 4.956 447.772ZM1.38 451.252L0.564 450.856C1.068 450.256 1.476 449.2 1.692 448.288L2.52 448.456C2.316 449.416 1.92 450.532 1.38 451.252ZM5.22 450.976H7.776C8.364 450.976 8.46 450.808 8.532 449.764C8.736 449.896 9.108 450.04 9.372 450.088C9.24 451.444 8.952 451.78 7.848 451.78H5.172C3.756 451.78 3.408 451.528 3.408 450.556V448.096H4.32V450.556C4.32 450.916 4.464 450.976 5.22 450.976ZM9.072 448.42L9.756 448.024C10.464 448.828 11.184 449.896 11.448 450.64L10.728 451.084C10.464 450.34 9.756 449.236 9.072 448.42ZM15.864 442.324V444.484H17.952V445.312H15.864V445.624C16.32 446.104 17.568 447.568 17.868 447.94L17.328 448.672C17.052 448.216 16.38 447.316 15.864 446.644V451.888H14.988V446.608C14.4 448 13.62 449.356 12.852 450.184C12.744 449.944 12.516 449.584 12.348 449.368C13.26 448.456 14.22 446.812 14.76 445.312H12.648V444.484H14.988V442.492C14.316 442.6 13.644 442.696 13.008 442.78C12.96 442.564 12.864 442.276 12.756 442.072C14.34 441.856 16.212 441.496 17.268 441.076L17.868 441.772C17.316 441.976 16.608 442.168 15.864 442.324ZM19.236 449.536H21.912V442.924H19.236V449.536ZM18.36 442.072H22.8V451.3H21.912V450.4H19.236V451.384H18.36V442.072Z" fill="#1A3341"/>
<line x1="40.5" y1="4.06803e-08" x2="40.5" y2="478" stroke="#ABBEC9"/>
<line x1="206.5" y1="4.06803e-08" x2="206.5" y2="400" stroke="#ABBEC9"/>
<path d="M240.364 460H239.146V457.998H233.154V457.186L239.286 450.2H240.364V456.864H242.184V457.998H240.364V460ZM239.146 452.16L234.834 456.864H239.146V452.16ZM246.732 454.414H247.166C247.796 454.414 248.314 454.26 248.748 453.966C249.168 453.672 249.378 453.28 249.378 452.818C249.378 451.768 248.552 451.236 246.914 451.236C245.346 451.236 244.492 451.81 244.492 452.818C244.492 453.728 245.43 454.414 246.732 454.414ZM247.138 455.52H246.788C246.032 455.52 245.402 455.688 244.912 456.01C244.422 456.332 244.17 456.738 244.17 457.228C244.17 458.292 245.15 458.964 246.928 458.964C248.734 458.964 249.7 458.32 249.7 457.242C249.7 456.164 248.664 455.52 247.138 455.52ZM249.896 459.37C249.182 459.874 248.188 460.126 246.942 460.126C245.696 460.126 244.702 459.874 243.974 459.384C243.246 458.894 242.882 458.222 242.882 457.354C242.882 456.22 243.624 455.324 244.814 454.932C243.736 454.582 243.204 453.728 243.204 452.734C243.204 451.11 244.576 450.074 246.928 450.074C249.294 450.074 250.666 451.11 250.666 452.734C250.666 453.672 250.148 454.386 249.112 454.862C250.358 455.24 250.974 456.052 250.974 457.298C250.974 458.18 250.61 458.88 249.896 459.37ZM252.164 459.202C252.164 458.81 252.528 458.418 253.032 458.418C253.494 458.418 253.872 458.81 253.872 459.202C253.872 459.65 253.522 460.028 253.032 460.028C252.528 460.028 252.164 459.65 252.164 459.202ZM255.029 455.366C255.029 453.672 255.449 452.37 256.275 451.446C257.101 450.536 258.137 450.074 259.383 450.074C261.021 450.074 262.309 450.816 262.855 451.992L261.903 452.636C261.329 451.726 260.475 451.278 259.327 451.278C258.459 451.278 257.731 451.614 257.143 452.286C256.555 452.972 256.261 453.896 256.275 455.086C256.821 454.064 258.095 453.448 259.495 453.448C260.629 453.448 261.539 453.742 262.197 454.344C262.855 454.946 263.191 455.744 263.191 456.724C263.191 457.718 262.827 458.544 262.085 459.174C261.343 459.804 260.419 460.126 259.313 460.126C256.667 460.126 255.029 458.404 255.029 455.366ZM256.429 456.556C256.695 457.942 257.745 458.922 259.299 458.922C260.055 458.922 260.685 458.726 261.175 458.32C261.665 457.928 261.903 457.41 261.903 456.78C261.903 455.394 260.923 454.652 259.425 454.652C258.599 454.652 257.913 454.848 257.381 455.24C256.835 455.632 256.527 456.066 256.429 456.556ZM266.636 460.21L265.712 459.678L272.95 449.892L273.832 450.536L266.636 460.21ZM264.2 452.552C264.2 451.852 264.438 451.278 264.928 450.83C265.418 450.382 266.02 450.158 266.762 450.158C267.49 450.158 268.092 450.382 268.582 450.83C269.072 451.278 269.31 451.852 269.31 452.552C269.31 453.238 269.072 453.812 268.582 454.26C268.092 454.708 267.49 454.932 266.762 454.932C266.02 454.932 265.418 454.708 264.928 454.26C264.438 453.812 264.2 453.238 264.2 452.552ZM265.376 452.552C265.376 453.35 266.02 453.938 266.762 453.938C267.532 453.938 268.134 453.378 268.134 452.552C268.134 451.726 267.504 451.166 266.762 451.166C265.992 451.166 265.376 451.726 265.376 452.552ZM270.934 459.384C270.444 458.936 270.206 458.362 270.206 457.662C270.206 456.962 270.444 456.388 270.934 455.94C271.424 455.506 272.026 455.282 272.768 455.282C273.496 455.282 274.098 455.506 274.588 455.94C275.078 456.388 275.316 456.962 275.316 457.662C275.316 458.348 275.078 458.922 274.588 459.37C274.098 459.832 273.496 460.056 272.768 460.056C272.026 460.056 271.424 459.832 270.934 459.384ZM271.382 457.662C271.382 458.46 272.026 459.048 272.768 459.048C273.538 459.048 274.14 458.488 274.14 457.662C274.14 456.836 273.51 456.276 272.768 456.276C271.998 456.276 271.382 456.836 271.382 457.662Z" fill="#737AF9"/>
<path d="M221.196 460L216 452L226.392 452L221.196 460Z" fill="#737AF9"/>
<defs>
<linearGradient id="paint0_linear_5796_19897" x1="41.2381" y1="31" x2="66" y2="31" gradientUnits="userSpaceOnUse">
<stop stop-color="#CEE8EF"/>
<stop offset="1" stop-color="#CEE8EF"/>
</linearGradient>
<linearGradient id="paint1_linear_5796_19897" x1="51" y1="47" x2="40" y2="47" gradientUnits="userSpaceOnUse">
<stop stop-color="#6D73F9"/>
<stop offset="1" stop-color="#9BB8F1"/>
</linearGradient>
<linearGradient id="paint2_linear_5796_19897" x1="40.7619" y1="230" x2="56" y2="230" gradientUnits="userSpaceOnUse">
<stop stop-color="#CEE8EF"/>
<stop offset="1" stop-color="#CEE8EF"/>
</linearGradient>
<linearGradient id="paint3_linear_5796_19897" x1="50" y1="245" x2="40" y2="245" gradientUnits="userSpaceOnUse">
<stop stop-color="#6D73F9"/>
<stop offset="1" stop-color="#9BB8F1"/>
</linearGradient>
<linearGradient id="paint4_linear_5796_19897" x1="41.0476" y1="98" x2="62" y2="98" gradientUnits="userSpaceOnUse">
<stop stop-color="#CEE8EF"/>
<stop offset="1" stop-color="#CEE8EF"/>
</linearGradient>
<linearGradient id="paint5_linear_5796_19897" x1="49" y1="113" x2="40" y2="113" gradientUnits="userSpaceOnUse">
<stop stop-color="#6D73F9"/>
<stop offset="1" stop-color="#9BB8F1"/>
</linearGradient>
<linearGradient id="paint6_linear_5796_19897" x1="40.8095" y1="296" x2="57" y2="296" gradientUnits="userSpaceOnUse">
<stop stop-color="#CEE8EF"/>
<stop offset="1" stop-color="#CEE8EF"/>
</linearGradient>
<linearGradient id="paint7_linear_5796_19897" x1="49" y1="311" x2="40" y2="311" gradientUnits="userSpaceOnUse">
<stop stop-color="#6D73F9"/>
<stop offset="1" stop-color="#9BB8F1"/>
</linearGradient>
<linearGradient id="paint8_linear_5796_19897" x1="41.0952" y1="164" x2="63" y2="164" gradientUnits="userSpaceOnUse">
<stop stop-color="#CEE8EF"/>
<stop offset="1" stop-color="#CEE8EF"/>
</linearGradient>
<linearGradient id="paint9_linear_5796_19897" x1="51" y1="179" x2="40" y2="179" gradientUnits="userSpaceOnUse">
<stop stop-color="#6D73F9"/>
<stop offset="1" stop-color="#9BB8F1"/>
</linearGradient>
<linearGradient id="paint10_linear_5796_19897" x1="40.8571" y1="362" x2="58" y2="362" gradientUnits="userSpaceOnUse">
<stop stop-color="#CEE8EF"/>
<stop offset="1" stop-color="#CEE8EF"/>
</linearGradient>
<linearGradient id="paint11_linear_5796_19897" x1="49" y1="377" x2="40" y2="377" gradientUnits="userSpaceOnUse">
<stop stop-color="#6D73F9"/>
<stop offset="1" stop-color="#9BB8F1"/>
</linearGradient>
<linearGradient id="paint12_linear_5796_19897" x1="206.857" y1="31" x2="224" y2="31" gradientUnits="userSpaceOnUse">
<stop stop-color="#CEE8EF"/>
<stop offset="1" stop-color="#CEE8EF"/>
</linearGradient>
<linearGradient id="paint13_linear_5796_19897" x1="216" y1="46" x2="206" y2="46" gradientUnits="userSpaceOnUse">
<stop stop-color="#6D73F9"/>
<stop offset="1" stop-color="#9BB8F1"/>
</linearGradient>
<linearGradient id="paint14_linear_5796_19897" x1="206.857" y1="229" x2="224" y2="229" gradientUnits="userSpaceOnUse">
<stop stop-color="#CEE8EF"/>
<stop offset="1" stop-color="#CEE8EF"/>
</linearGradient>
<linearGradient id="paint15_linear_5796_19897" x1="214" y1="244" x2="206" y2="244" gradientUnits="userSpaceOnUse">
<stop stop-color="#6D73F9"/>
<stop offset="1" stop-color="#9BB8F1"/>
</linearGradient>
<linearGradient id="paint16_linear_5796_19897" x1="206.952" y1="97" x2="226" y2="97" gradientUnits="userSpaceOnUse">
<stop stop-color="#CEE8EF"/>
<stop offset="1" stop-color="#CEE8EF"/>
</linearGradient>
<linearGradient id="paint17_linear_5796_19897" x1="215" y1="112" x2="206" y2="112" gradientUnits="userSpaceOnUse">
<stop stop-color="#6D73F9"/>
<stop offset="1" stop-color="#9BB8F1"/>
</linearGradient>
<linearGradient id="paint18_linear_5796_19897" x1="206.714" y1="295" x2="221" y2="295" gradientUnits="userSpaceOnUse">
<stop stop-color="#CEE8EF"/>
<stop offset="1" stop-color="#CEE8EF"/>
</linearGradient>
<linearGradient id="paint19_linear_5796_19897" x1="215" y1="310" x2="206" y2="310" gradientUnits="userSpaceOnUse">
<stop stop-color="#6D73F9"/>
<stop offset="1" stop-color="#9BB8F1"/>
</linearGradient>
<linearGradient id="paint20_linear_5796_19897" x1="206.857" y1="163" x2="224" y2="163" gradientUnits="userSpaceOnUse">
<stop stop-color="#CEE8EF"/>
<stop offset="1" stop-color="#CEE8EF"/>
</linearGradient>
<linearGradient id="paint21_linear_5796_19897" x1="215" y1="178" x2="206" y2="178" gradientUnits="userSpaceOnUse">
<stop stop-color="#6D73F9"/>
<stop offset="1" stop-color="#9BB8F1"/>
</linearGradient>
<linearGradient id="paint22_linear_5796_19897" x1="206.667" y1="361" x2="220" y2="361" gradientUnits="userSpaceOnUse">
<stop stop-color="#CEE8EF"/>
<stop offset="1" stop-color="#CEE8EF"/>
</linearGradient>
<linearGradient id="paint23_linear_5796_19897" x1="213" y1="376" x2="206" y2="376" gradientUnits="userSpaceOnUse">
<stop stop-color="#6D73F9"/>
<stop offset="1" stop-color="#9BB8F1"/>
</linearGradient>
<linearGradient id="paint24_linear_5796_19897" x1="49.9524" y1="440" x2="249" y2="440" gradientUnits="userSpaceOnUse">
<stop stop-color="#CEE8EF"/>
<stop offset="1" stop-color="#CEE8EF"/>
</linearGradient>
<linearGradient id="paint25_linear_5796_19897" x1="147" y1="455" x2="40" y2="455" gradientUnits="userSpaceOnUse">
<stop stop-color="#6D73F9"/>
<stop offset="1" stop-color="#9BB8F1"/>
</linearGradient>
</defs>
</svg>
