<svg width="118" height="136" viewBox="0 0 118 136" fill="none" xmlns="http://www.w3.org/2000/svg">
<path opacity="0.5" d="M118 103.014L59.0035 135.998H58.9963L0 103.014L59.0035 70.0298L118 103.014Z" fill="#EEF4F7"/>
<path d="M118 93.9834L59.0035 126.967H58.9963L0 93.9834L59.0035 60.9995L118 93.9834Z" fill="url(#paint0_linear_6001_9230)"/>
<path d="M88.4373 93.9828L59.0026 110.439H58.999L29.5645 93.9828L59.0026 77.5264L88.4373 93.9828Z" fill="url(#paint1_linear_6001_9230)" fill-opacity="0.4" stroke="url(#paint2_linear_6001_9230)" stroke-miterlimit="10"/>
<path d="M21.4885 98.498L13.4082 93.9827L21.485 89.4673" stroke="#95D3AE" stroke-miterlimit="10"/>
<path d="M67.079 114.955L59.0022 119.47L50.9219 114.955" stroke="#95D3AE" stroke-miterlimit="10"/>
<path d="M96.5176 89.4673L104.598 93.9827L96.5176 98.498" stroke="#95D3AE" stroke-miterlimit="10"/>
<g opacity="0.27">
<path d="M21.4885 97.5884L13.4082 93.073L21.485 88.5576" stroke="#7BC6D6" stroke-miterlimit="10"/>
<path d="M67.079 114.045L59.0022 118.56L50.9219 114.045" stroke="#7BC6D6" stroke-miterlimit="10"/>
<path d="M96.5176 88.5576L104.598 93.073L96.5176 97.5884" stroke="#95D3AE" stroke-miterlimit="10"/>
</g>
<path d="M118 93.9834V103.015L58.9961 135.999V126.967L118 93.9834Z" fill="url(#paint3_linear_6001_9230)"/>
<path d="M0 93.9834V103.015L58.9963 135.999V126.967L0 93.9834Z" fill="url(#paint4_linear_6001_9230)"/>
<g opacity="0.75">
<path fill-rule="evenodd" clip-rule="evenodd" d="M64.5429 15.1418V15.1244C50.1269 23.4882 35.6943 34.7293 35.8697 40.4002C36.0293 45.6129 36.0432 50.5269 36.0561 55.086C36.0803 63.6148 36.1011 70.9014 37.0646 76.5767C37.13 76.9616 37.1996 77.339 37.2739 77.7089C39.5073 88.83 45.925 93.1534 64.5431 87.5547C92.8913 63.2453 92.9505 48.6859 93.0583 22.1514C93.077 17.5529 93.0972 12.5947 93.2663 7.16375C93.4545 1.28262 78.9944 6.76986 64.5429 15.1418Z" fill="url(#paint5_linear_6001_9230)"/>
<path fill-rule="evenodd" clip-rule="evenodd" d="M64.5429 15.1418V15.1244C50.1269 23.4882 35.6943 34.7293 35.8697 40.4002C36.0293 45.6129 36.0432 50.5269 36.0561 55.086C36.0803 63.6148 36.1011 70.9014 37.0646 76.5767C37.13 76.9616 37.1996 77.339 37.2739 77.7089C39.5073 88.83 45.925 93.1534 64.5431 87.5547C92.8913 63.2453 92.9505 48.6859 93.0583 22.1514C93.077 17.5529 93.0972 12.5947 93.2663 7.16375C93.4545 1.28262 78.9944 6.76986 64.5429 15.1418Z" fill="url(#paint6_linear_6001_9230)"/>
<path d="M83.7819 0.276851L91.93 4.99979L90.8937 4.74814L89.6068 4.72298L88.0774 4.89075L86.3391 5.25986L84.4087 5.80512L82.3027 6.50981L80.0463 7.38224L77.6645 8.3889L75.1741 9.52143L72.6001 10.7798L69.9593 12.1387L67.2767 13.59L64.5774 15.1168L61.8697 16.7191L59.1954 18.3717L57.7594 19.2903L57.7663 19.2943L56.5749 20.0479L56.5462 20.0663L53.9722 21.8028L51.4818 23.5477L49.1 25.301L46.852 27.0459L44.746 28.7656L42.8156 30.4602L41.0689 32.1128L39.5395 33.7067L38.2525 35.2335L37.2163 36.6763L36.4642 38.0353L36.0045 39.2769L35.8708 40.401L35.9544 43.6895L36.0045 46.8941L36.0379 50.0063L36.0546 53.0347L36.0714 58.7979L36.0965 61.5243L36.1298 64.15L36.2051 66.6751L36.2134 66.8343L36.2119 66.8375L36.3053 69.0827L36.4558 71.3813L36.6563 73.5624L36.9155 75.6177L37.2414 77.5555L37.6508 79.3591L38.1439 81.0453L38.7373 82.5889L39.4309 83.9982L40.2249 85.2649L41.1525 86.3891L42.1971 87.3706L43.3838 88.2011L35.2356 83.4781L34.049 82.6476L33.0044 81.6661L32.0767 80.542L31.2744 79.2753L30.5892 77.8659L30.0041 76.314L29.5027 74.6446L29.1016 72.8326L28.7673 70.8947L28.5082 68.8395L28.3076 66.6583L28.1572 64.3598L28.0569 61.9521L27.9901 59.4271L27.9483 56.8013L27.9233 54.0666L27.9148 51.2395L27.8982 48.3118L27.8898 45.2834L27.8564 42.1711L27.8062 38.9665L27.7227 35.6781L27.8564 34.5539L28.316 33.304L29.0682 31.9534L30.1044 30.5105L31.3914 28.9837L32.9207 27.3898L34.659 25.7372L36.5979 24.0426L38.6955 22.3229L40.9519 20.578L43.3337 18.8247L45.8241 17.0798L48.4064 15.3517L49.6098 14.5713L49.6114 14.5722L51.0389 13.6488L53.7215 11.9961L56.4292 10.3939L59.1285 8.86709L61.8111 7.4158L64.452 6.05681L67.026 4.79845L69.5164 3.66596L71.8981 2.65929L74.1545 1.78683L76.2605 1.08218L78.191 0.536884L79.9293 0.176181L81.4586 0L82.7456 0.033568L83.7819 0.276851Z" fill="url(#paint7_linear_6001_9230)"/>
<path fill-rule="evenodd" clip-rule="evenodd" d="M56.4284 43.8652L42.7228 53.286C42.5147 53.4363 42.3362 53.624 42.1963 53.8396C42.049 54.0625 41.9415 54.3095 41.8788 54.5695C41.8256 54.79 41.8256 55.0201 41.8788 55.2406C41.8971 55.3179 41.932 55.3902 41.9811 55.4525C42.0302 55.5148 42.0922 55.5656 42.1629 55.6013L52.4839 60.1649C52.6303 60.2325 52.7609 60.3301 52.8675 60.4514C52.974 60.5728 53.054 60.7152 53.1023 60.8696C53.2229 61.2869 53.2401 61.7275 53.1524 62.1531L50.1857 79.5097C50.128 79.7183 50.128 79.9387 50.1857 80.1473C50.2116 80.2185 50.2526 80.2832 50.3061 80.3368C50.3595 80.3904 50.4239 80.4317 50.4949 80.4577C50.6774 80.495 50.8672 80.4652 51.0298 80.3738C51.2447 80.251 51.4324 80.0855 51.5813 79.8872L63.4316 64.9046C63.7288 64.5092 64.0973 64.1734 64.5181 63.9147C64.8411 63.7074 65.2221 63.6103 65.6045 63.6379L77.4464 64.9046C77.6423 64.921 77.8376 64.8675 77.998 64.7536C78.2102 64.6157 78.3921 64.4359 78.5328 64.2251C78.6912 64.0042 78.8101 63.7572 78.8839 63.4953C78.9374 63.272 78.9374 63.0391 78.8839 62.8158L75.8837 48.9909C75.8013 48.548 75.8185 48.0924 75.9338 47.657C76.0622 47.1395 76.2739 46.6464 76.5606 46.1973L86.9568 29.6796C87.1036 29.4574 87.2084 29.21 87.266 28.9497C87.3212 28.738 87.3212 28.5155 87.266 28.3038C87.2465 28.2212 87.2074 28.1445 87.1521 28.0803C87.0969 28.016 87.027 27.9661 86.9484 27.9347C86.8606 27.9102 86.7688 27.9035 86.6784 27.915C86.588 27.9265 86.5008 27.956 86.4219 28.0018L72.7164 34.4361C72.3952 34.6127 72.0221 34.6692 71.6634 34.5955C71.5161 34.5553 71.3793 34.4835 71.2624 34.385C71.1455 34.2865 71.0514 34.1637 70.9864 34.025C70.9807 34.0087 70.9807 33.991 70.9864 33.9747L65.4791 22.4903C65.4488 22.4125 65.3991 22.3438 65.3347 22.2909C65.2703 22.2381 65.1934 22.2027 65.1114 22.1883C64.9203 22.169 64.7285 22.2164 64.5682 22.3225C64.3558 22.4523 64.1689 22.6201 64.0166 22.8174C63.8587 23.0356 63.7399 23.2797 63.6656 23.5389L58.2001 41.3569C58.0413 41.8686 57.8045 42.3525 57.4981 42.7914C57.2122 43.2087 56.8524 43.5698 56.4368 43.8568L56.4284 43.8652Z" fill="url(#paint8_linear_6001_9230)"/>
</g>
<defs>
<linearGradient id="paint0_linear_6001_9230" x1="59" y1="31.3799" x2="59" y2="114.315" gradientUnits="userSpaceOnUse">
<stop stop-color="#EAEFEC"/>
<stop offset="1" stop-color="#E7F4F3" stop-opacity="0.92"/>
</linearGradient>
<linearGradient id="paint1_linear_6001_9230" x1="59.0009" y1="77.5264" x2="59.0009" y2="110.439" gradientUnits="userSpaceOnUse">
<stop stop-color="white"/>
<stop offset="1" stop-color="white" stop-opacity="0"/>
</linearGradient>
<linearGradient id="paint2_linear_6001_9230" x1="57.9219" y1="111.562" x2="57.9219" y2="77.3491" gradientUnits="userSpaceOnUse">
<stop stop-color="#C1E1E8"/>
<stop offset="0.97" stop-color="#C9D9F5" stop-opacity="0"/>
</linearGradient>
<linearGradient id="paint3_linear_6001_9230" x1="65.566" y1="153.365" x2="158.921" y2="100.025" gradientUnits="userSpaceOnUse">
<stop stop-color="#C7DDE1"/>
<stop offset="1" stop-color="#E6F1ED"/>
</linearGradient>
<linearGradient id="paint4_linear_6001_9230" x1="-7.58092" y1="98.3095" x2="56.3299" y2="131.248" gradientUnits="userSpaceOnUse">
<stop stop-color="#DFEBEE"/>
<stop offset="1" stop-color="#DDECE8"/>
</linearGradient>
<linearGradient id="paint5_linear_6001_9230" x1="64.568" y1="4.7085" x2="45.6169" y2="104.539" gradientUnits="userSpaceOnUse">
<stop stop-color="#95DCA0"/>
<stop offset="1" stop-color="#4ABAAC"/>
</linearGradient>
<linearGradient id="paint6_linear_6001_9230" x1="64.568" y1="4.7085" x2="45.6169" y2="104.539" gradientUnits="userSpaceOnUse">
<stop stop-color="#9EE67D"/>
<stop offset="1" stop-color="#43C68F"/>
</linearGradient>
<linearGradient id="paint7_linear_6001_9230" x1="59.8263" y1="0" x2="59.8263" y2="88.2011" gradientUnits="userSpaceOnUse">
<stop stop-color="#1AA64A"/>
<stop offset="1" stop-color="#117F64"/>
</linearGradient>
<linearGradient id="paint8_linear_6001_9230" x1="64.5731" y1="22.1841" x2="64.5731" y2="80.4733" gradientUnits="userSpaceOnUse">
<stop stop-color="white"/>
<stop offset="1" stop-color="#DBFFF6"/>
</linearGradient>
</defs>
</svg>
