<svg width="118" height="144" viewBox="0 0 118 144" fill="none" xmlns="http://www.w3.org/2000/svg">
<path opacity="0.5" d="M118 111.014L59.0035 143.998H58.9963L0 111.014L59.0035 78.0303L118 111.014Z" fill="#EEF4F7"/>
<path d="M118 101.984L59.0035 134.968H58.9963L0 101.984L59.0035 69L118 101.984Z" fill="url(#paint0_linear_6001_9232)"/>
<path d="M88.4373 101.983L59.0026 118.44H58.999L29.5645 101.983L59.0026 85.5269L88.4373 101.983Z" fill="url(#paint1_linear_6001_9232)" fill-opacity="0.4" stroke="url(#paint2_linear_6001_9232)" stroke-miterlimit="10"/>
<path d="M21.4885 106.499L13.4082 101.983L21.485 97.4678" stroke="#95D3AE" stroke-miterlimit="10"/>
<path d="M67.079 122.956L59.0022 127.471L50.9219 122.956" stroke="#95D3AE" stroke-miterlimit="10"/>
<path d="M96.5176 97.4678L104.598 101.983L96.5176 106.499" stroke="#95D3AE" stroke-miterlimit="10"/>
<g opacity="0.27">
<path d="M21.4885 105.589L13.4082 101.073L21.485 96.5581" stroke="#7BC6D6" stroke-miterlimit="10"/>
<path d="M67.079 122.045L59.0022 126.561L50.9219 122.045" stroke="#7BC6D6" stroke-miterlimit="10"/>
<path d="M96.5176 96.5581L104.598 101.073L96.5176 105.589" stroke="#95D3AE" stroke-miterlimit="10"/>
</g>
<path d="M118 101.984V111.016L58.9961 144V134.968L118 101.984Z" fill="url(#paint3_linear_6001_9232)"/>
<path d="M0 101.984V111.016L58.9963 144V134.968L0 101.984Z" fill="url(#paint4_linear_6001_9232)"/>
<g opacity="0.75">
<path fill-rule="evenodd" clip-rule="evenodd" d="M77.0468 84.36L74.5598 82.9231L74.0474 82.4106L73.8564 81.3957L73.8615 76.1455L76.3484 77.5824V82.8326L76.5393 83.8475L77.0468 84.36Z" fill="url(#paint5_linear_6001_9232)"/>
<path fill-rule="evenodd" clip-rule="evenodd" d="M76.3453 77.5826L73.8584 76.1457L78.345 73.5532L80.8369 74.9901L76.3453 77.5826Z" fill="url(#paint6_linear_6001_9232)"/>
<path fill-rule="evenodd" clip-rule="evenodd" d="M60.0976 94.1323L57.6106 92.6954L57.0981 92.188L56.9072 91.1731L56.9122 85.9229L59.3992 87.3598V92.61L59.5901 93.6249L60.0976 94.1323Z" fill="url(#paint7_linear_6001_9232)"/>
<path fill-rule="evenodd" clip-rule="evenodd" d="M59.3991 87.3599L56.9121 85.923L61.3987 83.3306L63.8906 84.7675L59.3991 87.3599Z" fill="url(#paint8_linear_6001_9232)"/>
<path fill-rule="evenodd" clip-rule="evenodd" d="M43.1853 104.214L40.6984 102.778L40.1909 102.265L40 101.25V96L42.487 97.4369V102.687L42.6779 103.702L43.1853 104.214Z" fill="url(#paint9_linear_6001_9232)"/>
<path fill-rule="evenodd" clip-rule="evenodd" d="M42.4518 97.1318L39.9648 95.6949L44.4564 93.1074L46.9434 94.5443L42.4518 97.1318Z" fill="url(#paint10_linear_6001_9232)"/>
<path fill-rule="evenodd" clip-rule="evenodd" d="M46.9447 94.5439V99.7892C46.9447 103.221 42.4531 105.818 42.4531 102.382V97.1314L46.9447 94.5439Z" fill="url(#paint11_linear_6001_9232)"/>
<path fill-rule="evenodd" clip-rule="evenodd" d="M63.892 84.7671V90.0173C63.892 93.4488 59.4004 96.0463 59.4004 92.6098V87.3596L63.892 84.7671Z" fill="url(#paint12_linear_6001_9232)"/>
<path fill-rule="evenodd" clip-rule="evenodd" d="M80.8363 74.9902V80.2405C80.8363 83.672 76.3447 86.2694 76.3447 82.8329V77.5827L80.8363 74.9902Z" fill="url(#paint13_linear_6001_9232)"/>
<path fill-rule="evenodd" clip-rule="evenodd" d="M90.5436 9.05872L88.0566 7.62182L92.6035 4.99922L93.5782 4.6626L94.2765 4.84849L96.7635 6.28037L96.0651 6.0995L95.0955 6.43612L90.5436 9.05872Z" fill="url(#paint14_linear_6001_9232)"/>
<path fill-rule="evenodd" clip-rule="evenodd" d="M90.5436 14.2434L88.0566 12.8065V7.62158L90.5436 9.05849V14.2434Z" fill="url(#paint15_linear_6001_9232)"/>
<path fill-rule="evenodd" clip-rule="evenodd" d="M90.5397 33.4558L88.0527 32.0189L92.5996 29.3963L93.5743 29.0547L94.2676 29.2406L96.7545 30.6775L96.0612 30.4916L95.0865 30.8282L90.5397 33.4558Z" fill="url(#paint16_linear_6001_9232)"/>
<path fill-rule="evenodd" clip-rule="evenodd" d="M90.5388 38.6399L88.0469 37.203L88.0519 32.0181L90.5388 33.455V38.6399Z" fill="url(#paint17_linear_6001_9232)"/>
<path fill-rule="evenodd" clip-rule="evenodd" d="M90.5301 53.0252L88.0381 51.5883L92.5849 48.9657L93.5596 48.624L94.258 48.8149L96.7449 50.2468L96.0516 50.0609L95.0769 50.4026L90.5301 53.0252Z" fill="url(#paint18_linear_6001_9232)"/>
<path fill-rule="evenodd" clip-rule="evenodd" d="M90.525 58.2152L88.0381 56.7783V51.5884L90.5301 53.0253L90.525 58.2152Z" fill="url(#paint19_linear_6001_9232)"/>
<path fill-rule="evenodd" clip-rule="evenodd" d="M90.5352 53.0248L95.0569 50.4022C98.0262 48.689 98.0211 53.8789 95.0569 55.5872L90.5352 58.2098V53.0248Z" fill="url(#paint20_linear_6001_9232)"/>
<path fill-rule="evenodd" clip-rule="evenodd" d="M90.543 33.4551L95.0647 30.8275C98.034 29.1143 98.034 34.3042 95.0647 36.0175L90.543 38.6401V33.4551Z" fill="url(#paint21_linear_6001_9232)"/>
<path fill-rule="evenodd" clip-rule="evenodd" d="M90.5449 9.05376L95.0667 6.43618C98.0359 4.72295 98.0359 9.90787 95.0667 11.6211L90.5449 14.2437V9.05376Z" fill="url(#paint22_linear_6001_9232)"/>
<path fill-rule="evenodd" clip-rule="evenodd" d="M92.8824 4.65713L87.7879 1.718L87.6522 1.66776L87.4965 1.65771L87.3257 1.69791L87.1398 1.77829L31.211 34.0484L31.0251 34.174L30.8543 34.3297L30.7036 34.5206L30.5629 34.7266L30.4524 34.9477L30.3669 35.1788L30.3117 35.4049L30.2966 35.631L30.2715 100.226L30.2916 100.432L30.3418 100.593L30.4272 100.729L30.5378 100.819L35.6322 103.758L35.5217 103.668L35.4363 103.537L35.381 103.367L35.3609 103.171L35.3911 38.5701L35.4062 38.344L35.4614 38.1179L35.5468 37.8868L35.6574 37.6708L35.793 37.4598L35.9488 37.2739L36.1196 37.1131L36.3005 36.9825L92.2343 4.71742L92.4202 4.63703L92.591 4.60186L92.7467 4.60689L92.8824 4.65713Z" fill="url(#paint23_linear_6001_9232)"/>
<path fill-rule="evenodd" clip-rule="evenodd" d="M93.13 69.8466V5.24612C93.13 4.66332 92.713 4.42718 92.2106 4.71858L36.307 36.9836C36.041 37.1584 35.8198 37.393 35.661 37.6687C35.5022 37.9444 35.4102 38.2536 35.3926 38.5713V103.172C35.3926 103.749 35.7995 103.991 36.307 103.674L92.2357 71.4091C92.4942 71.2341 92.7091 71.0024 92.8641 70.7315C93.0191 70.4607 93.1101 70.158 93.13 69.8466Z" fill="url(#paint24_linear_6001_9232)"/>
<path fill-rule="evenodd" clip-rule="evenodd" d="M42.4782 30.4216L39.9912 28.9847V23.7344L40.1872 22.4985L40.6946 21.3982L41.413 20.5039L42.237 19.8658L43.066 19.5493L43.7794 19.6197L46.2714 21.0515L45.5529 20.9862L44.729 21.3027L43.905 21.9408L43.1866 22.8351L42.6741 23.9354L42.4832 25.1713L42.4782 30.4216Z" fill="url(#paint25_linear_6001_9232)"/>
<path fill-rule="evenodd" clip-rule="evenodd" d="M59.4217 20.6446L56.9297 19.2077L56.9347 13.9574L57.1307 12.7215L57.6381 11.6212L58.3565 10.7269L59.1805 10.0888L60.0095 9.77734L60.7229 9.84266L63.2149 11.2796L62.4964 11.2142L61.6725 11.5257L60.8485 12.1638L60.125 13.0581L59.6176 14.1584L59.4267 15.3943L59.4217 20.6446Z" fill="url(#paint26_linear_6001_9232)"/>
<path fill-rule="evenodd" clip-rule="evenodd" d="M76.3698 10.8722L73.8828 9.43534V4.18009L74.0788 2.94415L74.5862 1.84889L75.3046 0.949563L76.1286 0.316521L76.9526 0L77.676 0.0653139L80.163 1.50724L79.4445 1.43691L78.6206 1.75343L77.7966 2.38647L77.0731 3.28579L76.5657 4.38105L76.3698 5.61699V10.8722Z" fill="url(#paint27_linear_6001_9232)"/>
<path fill-rule="evenodd" clip-rule="evenodd" d="M76.3789 10.8716V5.61633C76.3789 2.18986 80.8705 -0.412643 80.8705 3.0289V8.27913L76.3789 10.8716Z" fill="url(#paint28_linear_6001_9232)"/>
<path fill-rule="evenodd" clip-rule="evenodd" d="M59.4238 20.6441V15.3938C59.4238 11.9623 63.9154 9.36487 63.9104 12.8014V18.0516L59.4238 20.6441Z" fill="url(#paint29_linear_6001_9232)"/>
<path fill-rule="evenodd" clip-rule="evenodd" d="M42.4775 30.4214V25.1712C42.4775 21.7397 46.9691 19.1422 46.9691 22.5787V27.829L42.4775 30.4214Z" fill="url(#paint30_linear_6001_9232)"/>
<path fill-rule="evenodd" clip-rule="evenodd" d="M88.4328 14.6455L87.448 14.0777L87.3325 14.0325L87.1918 14.0225L87.0411 14.0576L86.8803 14.133L41.5575 40.2736L41.3967 40.3841L41.246 40.5248L41.1053 40.6906L40.9898 40.8765L40.8893 41.0725L40.8139 41.2785L40.7637 41.4794L40.7486 41.6754L40.7285 94.0119L40.7436 94.1927L40.7938 94.3435L40.8692 94.454L40.9697 94.5394L41.9494 95.1071L41.8489 95.0268L41.7786 94.9112L41.7283 94.7655L41.7132 94.5796L41.7333 42.2431L41.7484 42.0471L41.7987 41.8462L41.869 41.6402L41.9695 41.4442L42.0901 41.2634L42.2307 41.0976L42.3815 40.9519L42.5422 40.8363L87.86 14.7007L88.0208 14.6254L88.1765 14.5902L88.3122 14.6002L88.4328 14.6455Z" fill="url(#paint31_linear_6001_9232)"/>
<path fill-rule="evenodd" clip-rule="evenodd" d="M87.8571 14.7009L42.5444 40.8265C42.3081 40.9809 42.1114 41.1887 41.97 41.433C41.8286 41.6773 41.7466 41.9514 41.7305 42.2332V94.5697C41.7305 95.0722 42.0922 95.2982 42.5444 95.042L87.8571 68.9165C88.0937 68.7623 88.2907 68.5547 88.4321 68.3103C88.5735 68.0659 88.6553 67.7916 88.6711 67.5097V15.1732C88.6711 14.6507 88.3043 14.4397 87.8571 14.7009Z" fill="url(#paint32_linear_6001_9232)"/>
<path fill-rule="evenodd" clip-rule="evenodd" d="M80.6552 28.1055L79.6705 27.5327L79.5851 27.5026L79.4946 27.4976L79.3941 27.5227L79.2886 27.5729L49.1337 44.9665L49.0232 45.0419L48.9227 45.1373L48.8323 45.2479L48.7519 45.3684L48.6866 45.4991L48.6363 45.6347L48.6062 45.7704L48.5911 45.901L48.5811 80.7284L48.5911 80.849L48.6212 80.9444L48.6715 81.0198L48.7418 81.075L49.7266 81.6428L49.6612 81.5925L49.611 81.5172L49.5809 81.4167L49.5708 81.2961L49.5809 46.4687L49.5909 46.3381L49.6261 46.2024L49.6763 46.0668L49.7416 45.9412L49.822 45.8156L49.9125 45.7051L50.0129 45.6096L50.1184 45.5342L80.2734 28.1457L80.3889 28.0954L80.4844 28.0703L80.5798 28.0753L80.6552 28.1055Z" fill="url(#paint33_linear_6001_9232)"/>
<path fill-rule="evenodd" clip-rule="evenodd" d="M80.2783 28.1457L50.1334 45.5392C49.9763 45.6418 49.8453 45.7797 49.7511 45.942C49.6568 46.1043 49.602 46.2864 49.5908 46.4737V81.3011C49.5908 81.6427 49.832 81.8035 50.1284 81.6126L80.2733 64.219C80.4298 64.1162 80.56 63.9781 80.6534 63.8158C80.7467 63.6535 80.8007 63.4715 80.8109 63.2845V28.4572C80.8159 28.1105 80.5747 27.9698 80.2783 28.1457Z" fill="url(#paint34_linear_6001_9232)"/>
<path fill-rule="evenodd" clip-rule="evenodd" d="M26.5505 94.3034L24.0635 92.8664L23.6465 92.2786L23.5059 91.4094L23.6465 90.3745L24.0635 89.3043L24.7619 88.3146L25.7316 87.5308L30.2784 84.9082L32.7704 86.3451L28.2235 88.9677L27.2488 89.7515L26.5505 90.7412L26.1335 91.8114L25.9978 92.8464L26.1335 93.7155L26.5505 94.3034Z" fill="url(#paint35_linear_6001_9232)"/>
<path fill-rule="evenodd" clip-rule="evenodd" d="M26.5583 74.7337L24.0714 73.2968L23.6493 72.7089L23.5137 71.8347L23.6543 70.8048L24.0714 69.7296L24.7647 68.7399L25.7394 67.9561L30.2812 65.3335L32.7732 66.7704L28.2263 69.393L27.2567 70.1818L26.5583 71.1665L26.1413 72.2417L26.0006 73.2716L26.1413 74.1459L26.5583 74.7337Z" fill="url(#paint36_linear_6001_9232)"/>
<path fill-rule="evenodd" clip-rule="evenodd" d="M26.564 55.1643L24.0771 53.7274L23.6601 53.1346L23.5244 52.2604L23.6601 51.2304L24.0771 50.1553L24.7704 49.1705L25.7451 48.3868L30.2919 45.7642L32.7839 47.196L28.2371 49.8237L27.2624 50.6074L26.569 51.5972L26.147 52.6673L26.0063 53.6973L26.147 54.5715L26.564 55.1643Z" fill="url(#paint37_linear_6001_9232)"/>
<path fill-rule="evenodd" clip-rule="evenodd" d="M32.7838 52.3867L28.2621 55.0093C25.2928 56.7226 25.2928 51.5326 28.2621 49.8244L32.7838 47.1968V52.3867Z" fill="url(#paint38_linear_6001_9232)"/>
<path fill-rule="evenodd" clip-rule="evenodd" d="M32.7758 71.9559L28.229 74.5835C25.2597 76.2918 25.2647 71.1068 28.229 69.3936L32.7507 66.771L32.7758 71.9559Z" fill="url(#paint39_linear_6001_9232)"/>
<path fill-rule="evenodd" clip-rule="evenodd" d="M32.7731 91.5301L28.2514 94.1527C25.2821 95.866 25.2821 90.6811 28.2514 88.9678L32.7731 86.3452V91.5301Z" fill="url(#paint40_linear_6001_9232)"/>
</g>
<defs>
<linearGradient id="paint0_linear_6001_9232" x1="59" y1="39.3804" x2="59" y2="122.315" gradientUnits="userSpaceOnUse">
<stop stop-color="#EAEFEC"/>
<stop offset="1" stop-color="#E7F4F3" stop-opacity="0.92"/>
</linearGradient>
<linearGradient id="paint1_linear_6001_9232" x1="59.0009" y1="85.5269" x2="59.0009" y2="118.44" gradientUnits="userSpaceOnUse">
<stop stop-color="white"/>
<stop offset="1" stop-color="white" stop-opacity="0"/>
</linearGradient>
<linearGradient id="paint2_linear_6001_9232" x1="57.9219" y1="119.562" x2="57.9219" y2="85.3496" gradientUnits="userSpaceOnUse">
<stop stop-color="#C1E1E8"/>
<stop offset="0.97" stop-color="#C9D9F5" stop-opacity="0"/>
</linearGradient>
<linearGradient id="paint3_linear_6001_9232" x1="65.566" y1="161.366" x2="158.921" y2="108.025" gradientUnits="userSpaceOnUse">
<stop stop-color="#C7DDE1"/>
<stop offset="1" stop-color="#E6F1ED"/>
</linearGradient>
<linearGradient id="paint4_linear_6001_9232" x1="-7.58092" y1="106.31" x2="56.3299" y2="139.248" gradientUnits="userSpaceOnUse">
<stop stop-color="#DFEBEE"/>
<stop offset="1" stop-color="#DDECE8"/>
</linearGradient>
<linearGradient id="paint5_linear_6001_9232" x1="75.4516" y1="76.1455" x2="75.4516" y2="84.36" gradientUnits="userSpaceOnUse">
<stop stop-color="#6AEC9E"/>
<stop offset="1" stop-color="#58E4C3"/>
</linearGradient>
<linearGradient id="paint6_linear_6001_9232" x1="77.3477" y1="73.5532" x2="77.3477" y2="77.5826" gradientUnits="userSpaceOnUse">
<stop stop-color="#59D98C"/>
<stop offset="1" stop-color="#4BBAD2"/>
</linearGradient>
<linearGradient id="paint7_linear_6001_9232" x1="58.5024" y1="85.9229" x2="58.5024" y2="94.1323" gradientUnits="userSpaceOnUse">
<stop stop-color="#6AEC9E"/>
<stop offset="1" stop-color="#58E4C3"/>
</linearGradient>
<linearGradient id="paint8_linear_6001_9232" x1="60.4014" y1="83.3306" x2="60.4014" y2="87.3599" gradientUnits="userSpaceOnUse">
<stop stop-color="#59D98C"/>
<stop offset="1" stop-color="#4BBAD2"/>
</linearGradient>
<linearGradient id="paint9_linear_6001_9232" x1="41.5927" y1="96" x2="41.5927" y2="104.214" gradientUnits="userSpaceOnUse">
<stop stop-color="#6AEC9E"/>
<stop offset="1" stop-color="#58E4C3"/>
</linearGradient>
<linearGradient id="paint10_linear_6001_9232" x1="43.4541" y1="93.1074" x2="43.4541" y2="97.1318" gradientUnits="userSpaceOnUse">
<stop stop-color="#59D98C"/>
<stop offset="1" stop-color="#4BBAD2"/>
</linearGradient>
<linearGradient id="paint11_linear_6001_9232" x1="38.7692" y1="97.7937" x2="47.0798" y2="100.894" gradientUnits="userSpaceOnUse">
<stop stop-color="#74E27F"/>
<stop offset="1" stop-color="#2D9C7B"/>
</linearGradient>
<linearGradient id="paint12_linear_6001_9232" x1="55.7165" y1="88.0186" x2="64.0281" y2="91.118" gradientUnits="userSpaceOnUse">
<stop stop-color="#74E27F"/>
<stop offset="1" stop-color="#2D9C7B"/>
</linearGradient>
<linearGradient id="paint13_linear_6001_9232" x1="72.6608" y1="78.2417" x2="80.9725" y2="81.3412" gradientUnits="userSpaceOnUse">
<stop stop-color="#74E27F"/>
<stop offset="1" stop-color="#2D9C7B"/>
</linearGradient>
<linearGradient id="paint14_linear_6001_9232" x1="92.4101" y1="4.6626" x2="92.4101" y2="9.05872" gradientUnits="userSpaceOnUse">
<stop stop-color="#59D98C"/>
<stop offset="1" stop-color="#4BBAD2"/>
</linearGradient>
<linearGradient id="paint15_linear_6001_9232" x1="89.3001" y1="7.62158" x2="89.3001" y2="14.2434" gradientUnits="userSpaceOnUse">
<stop stop-color="#59D98C"/>
<stop offset="1" stop-color="#4BBAD2"/>
</linearGradient>
<linearGradient id="paint16_linear_6001_9232" x1="92.4036" y1="29.0547" x2="92.4036" y2="33.4558" gradientUnits="userSpaceOnUse">
<stop stop-color="#59D98C"/>
<stop offset="1" stop-color="#4BBAD2"/>
</linearGradient>
<linearGradient id="paint17_linear_6001_9232" x1="89.2929" y1="32.0181" x2="89.2929" y2="38.6399" gradientUnits="userSpaceOnUse">
<stop stop-color="#59D98C"/>
<stop offset="1" stop-color="#4BBAD2"/>
</linearGradient>
<linearGradient id="paint18_linear_6001_9232" x1="92.3915" y1="48.624" x2="92.3915" y2="53.0252" gradientUnits="userSpaceOnUse">
<stop stop-color="#59D98C"/>
<stop offset="1" stop-color="#4BBAD2"/>
</linearGradient>
<linearGradient id="paint19_linear_6001_9232" x1="89.2841" y1="51.5884" x2="89.2841" y2="58.2152" gradientUnits="userSpaceOnUse">
<stop stop-color="#59D98C"/>
<stop offset="1" stop-color="#4BBAD2"/>
</linearGradient>
<linearGradient id="paint20_linear_6001_9232" x1="85.0015" y1="52.8611" x2="94.9967" y2="59.3601" gradientUnits="userSpaceOnUse">
<stop stop-color="#74E27F"/>
<stop offset="1" stop-color="#2D9C7B"/>
</linearGradient>
<linearGradient id="paint21_linear_6001_9232" x1="85.0078" y1="33.2881" x2="95.0078" y2="39.7881" gradientUnits="userSpaceOnUse">
<stop stop-color="#74E27F"/>
<stop offset="1" stop-color="#2D9C7B"/>
</linearGradient>
<linearGradient id="paint22_linear_6001_9232" x1="85.0098" y1="8.89484" x2="95.0063" y2="15.3964" gradientUnits="userSpaceOnUse">
<stop stop-color="#74E27F"/>
<stop offset="1" stop-color="#2D9C7B"/>
</linearGradient>
<linearGradient id="paint23_linear_6001_9232" x1="61.5769" y1="1.65771" x2="61.5769" y2="103.758" gradientUnits="userSpaceOnUse">
<stop stop-color="#3EA561"/>
<stop offset="1" stop-color="#2A7160"/>
</linearGradient>
<linearGradient id="paint24_linear_6001_9232" x1="64.2613" y1="4.59375" x2="39.0603" y2="119.381" gradientUnits="userSpaceOnUse">
<stop stop-color="#95DCA0"/>
<stop offset="1" stop-color="#4ABAAC"/>
</linearGradient>
<linearGradient id="paint25_linear_6001_9232" x1="43.1313" y1="19.5493" x2="43.1313" y2="30.4216" gradientUnits="userSpaceOnUse">
<stop stop-color="#A7FF98"/>
<stop offset="1" stop-color="#4BBAD2"/>
</linearGradient>
<linearGradient id="paint26_linear_6001_9232" x1="60.0723" y1="9.77734" x2="60.0723" y2="20.6446" gradientUnits="userSpaceOnUse">
<stop stop-color="#A7FF98"/>
<stop offset="1" stop-color="#4BBAD2"/>
</linearGradient>
<linearGradient id="paint27_linear_6001_9232" x1="77.0229" y1="0" x2="77.0229" y2="10.8722" gradientUnits="userSpaceOnUse">
<stop stop-color="#A7FF98"/>
<stop offset="1" stop-color="#4BBAD2"/>
</linearGradient>
<linearGradient id="paint28_linear_6001_9232" x1="77.9004" y1="-3.05339" x2="78.6251" y2="10.8716" gradientUnits="userSpaceOnUse">
<stop stop-color="#74E27F"/>
<stop offset="1" stop-color="#2D9C7B"/>
</linearGradient>
<linearGradient id="paint29_linear_6001_9232" x1="60.9436" y1="6.72266" x2="61.6687" y2="20.644" gradientUnits="userSpaceOnUse">
<stop stop-color="#74E27F"/>
<stop offset="1" stop-color="#2D9C7B"/>
</linearGradient>
<linearGradient id="paint30_linear_6001_9232" x1="43.999" y1="16.5" x2="44.7233" y2="30.4214" gradientUnits="userSpaceOnUse">
<stop stop-color="#74E27F"/>
<stop offset="1" stop-color="#2D9C7B"/>
</linearGradient>
<linearGradient id="paint31_linear_6001_9232" x1="64.5806" y1="14.0225" x2="64.5806" y2="95.1071" gradientUnits="userSpaceOnUse">
<stop stop-color="#59D98C"/>
<stop offset="1" stop-color="#4BBAD2"/>
</linearGradient>
<linearGradient id="paint32_linear_6001_9232" x1="65.2008" y1="14.5889" x2="65.2008" y2="95.1483" gradientUnits="userSpaceOnUse">
<stop stop-color="white"/>
<stop offset="1" stop-color="#DBFFF6"/>
</linearGradient>
<linearGradient id="paint33_linear_6001_9232" x1="64.6181" y1="27.4976" x2="64.6181" y2="81.6428" gradientUnits="userSpaceOnUse">
<stop stop-color="#1BBA77"/>
<stop offset="1" stop-color="#177F96"/>
</linearGradient>
<linearGradient id="paint34_linear_6001_9232" x1="77.999" y1="33.5005" x2="53.0019" y2="87.9802" gradientUnits="userSpaceOnUse">
<stop stop-color="#9EE67D"/>
<stop offset="0.358648" stop-color="#94E899"/>
<stop offset="1" stop-color="#43C68F"/>
</linearGradient>
<linearGradient id="paint35_linear_6001_9232" x1="28.1381" y1="84.9082" x2="28.1381" y2="94.3034" gradientUnits="userSpaceOnUse">
<stop stop-color="#6AEC9E"/>
<stop offset="1" stop-color="#58E4C3"/>
</linearGradient>
<linearGradient id="paint36_linear_6001_9232" x1="28.1434" y1="65.3335" x2="28.1434" y2="74.7337" gradientUnits="userSpaceOnUse">
<stop stop-color="#6AEC9E"/>
<stop offset="1" stop-color="#58E4C3"/>
</linearGradient>
<linearGradient id="paint37_linear_6001_9232" x1="28.1542" y1="45.7642" x2="28.1542" y2="55.1643" gradientUnits="userSpaceOnUse">
<stop stop-color="#6AEC9E"/>
<stop offset="1" stop-color="#58E4C3"/>
</linearGradient>
<linearGradient id="paint38_linear_6001_9232" x1="20.5" y1="49.9995" x2="30.5" y2="56.4995" gradientUnits="userSpaceOnUse">
<stop stop-color="#74E27F"/>
<stop offset="1" stop-color="#2D9C7B"/>
</linearGradient>
<linearGradient id="paint39_linear_6001_9232" x1="20.4497" y1="69.5732" x2="30.4625" y2="76.1052" gradientUnits="userSpaceOnUse">
<stop stop-color="#74E27F"/>
<stop offset="1" stop-color="#2D9C7B"/>
</linearGradient>
<linearGradient id="paint40_linear_6001_9232" x1="20.4893" y1="89.1463" x2="30.4858" y2="95.6479" gradientUnits="userSpaceOnUse">
<stop stop-color="#74E27F"/>
<stop offset="1" stop-color="#2D9C7B"/>
</linearGradient>
</defs>
</svg>
