<svg width="1125" height="685" viewBox="0 0 1125 685" fill="none" xmlns="http://www.w3.org/2000/svg">
<line x1="40" y1="568.5" x2="1118" y2="568.5" stroke="#CEE0ED"/>
<line x1="40" y1="8.5" x2="1118" y2="8.50031" stroke="#CEE0ED"/>
<line x1="40" y1="88.5" x2="1118" y2="88.5003" stroke="#CEE0ED"/>
<line x1="40" y1="168.5" x2="1118" y2="168.5" stroke="#CEE0ED"/>
<line x1="40" y1="248.5" x2="1118" y2="248.5" stroke="#CEE0ED"/>
<line x1="40" y1="328.5" x2="1118" y2="328.5" stroke="#CEE0ED"/>
<line x1="40" y1="408.5" x2="1118" y2="408.5" stroke="#ABBEC9"/>
<line x1="40" y1="488.5" x2="1118" y2="488.5" stroke="#CEE0ED"/>
<path d="M44 452.75L67.7277 373.688L85.2113 470L112.685 562L136.413 559.125L158.892 531.812L180.122 516H205.099L227.577 497.312L253.803 493L270.038 485.812L291.268 457.062L314.995 401L339.972 424L358.704 365.062L367.446 304.688L382.432 194L407.408 240L429.887 261.562L449.869 297.5L473.596 304.688L494.826 319.062H521.052L544.779 342.062L571.005 382.312L614.714 418.25L637.192 421.125L660.92 412.5L690.892 408.188L702.131 412.5L723.361 439.812L752.084 457.062L770.817 462.812L792.047 485.812L815.775 493L842 511.688L858.235 527.5L881.962 457.062L910.685 474.312L925.671 485.812H948.15H971.878L991.859 457.062L1019.33 431.188H1048.06L1066.79 421.125L1084.27 393.812L1108 376.562" stroke="#A0CDF7" stroke-width="2" stroke-miterlimit="16" stroke-linecap="round" stroke-linejoin="round"/>
<path d="M42 428.78L69.4936 440.201L86.9894 515.868L109.484 505.874L148.225 510.157L186.966 494.453C191.548 488.742 201.213 477.892 203.212 480.176C205.212 482.46 215.709 487.79 220.708 490.17L269.447 488.742L291.941 440.201H315.686L381.92 306L405.665 373.101L430.659 344.547L450.654 354.541L474.399 344.547L501.892 354.541L521.887 368.818L543.132 373.101L573.125 393.088L600.619 415.931L628.113 480.176H648.108L665.604 465.899H681.85L699.346 475.893L723.09 498.736C731.422 497.308 748.584 495.309 750.584 498.736C752.583 502.162 778.91 518.247 791.824 525.862L813.069 498.736L835.564 533L858.059 520.151L879.304 515.868L903.048 475.893H928.042L950.537 445.912L973.032 425.925L999.275 415.931L1019.27 431.635L1043.02 425.925L1064.26 398.799L1084.26 421.642L1108 393.088" stroke="#2D6894" stroke-width="2" stroke-miterlimit="16" stroke-linecap="round" stroke-linejoin="round"/>
<path d="M3.17453 6.832L2.79053 5.932L5.67053 4.552H6.35453V13H5.32253V5.836L3.17453 6.832ZM7.88491 8.8C7.88491 7.504 8.18491 6.46 8.79691 5.68C9.39691 4.9 10.2849 4.504 11.4489 4.504C13.8369 4.504 15.0249 6.076 15.0249 8.8C15.0249 10.108 14.7249 11.14 14.1369 11.92C13.5369 12.7 12.6489 13.096 11.4729 13.096C10.3449 13.096 9.46891 12.7 8.83291 11.908C8.19691 11.116 7.88491 10.084 7.88491 8.8ZM8.98891 8.8C8.98891 10.852 9.92491 12.076 11.4729 12.076C13.1049 12.076 13.9209 10.984 13.9209 8.8C13.9209 6.616 13.0929 5.524 11.4489 5.524C9.78091 5.524 8.98891 6.724 8.98891 8.8ZM15.9212 8.8C15.9212 7.504 16.2212 6.46 16.8332 5.68C17.4332 4.9 18.3212 4.504 19.4852 4.504C21.8732 4.504 23.0612 6.076 23.0612 8.8C23.0612 10.108 22.7612 11.14 22.1732 11.92C21.5732 12.7 20.6852 13.096 19.5092 13.096C18.3812 13.096 17.5052 12.7 16.8692 11.908C16.2332 11.116 15.9212 10.084 15.9212 8.8ZM17.0252 8.8C17.0252 10.852 17.9612 12.076 19.5092 12.076C21.1412 12.076 21.9572 10.984 21.9572 8.8C21.9572 6.616 21.1292 5.524 19.4852 5.524C17.8172 5.524 17.0252 6.724 17.0252 8.8ZM26.0454 13.18L25.2534 12.724L31.4574 4.336L32.2134 4.888L26.0454 13.18ZM23.9574 6.616C23.9574 6.016 24.1614 5.524 24.5814 5.14C25.0014 4.756 25.5174 4.564 26.1534 4.564C26.7774 4.564 27.2934 4.756 27.7134 5.14C28.1334 5.524 28.3374 6.016 28.3374 6.616C28.3374 7.204 28.1334 7.696 27.7134 8.08C27.2934 8.464 26.7774 8.656 26.1534 8.656C25.5174 8.656 25.0014 8.464 24.5814 8.08C24.1614 7.696 23.9574 7.204 23.9574 6.616ZM24.9654 6.616C24.9654 7.3 25.5174 7.804 26.1534 7.804C26.8134 7.804 27.3294 7.324 27.3294 6.616C27.3294 5.908 26.7894 5.428 26.1534 5.428C25.4934 5.428 24.9654 5.908 24.9654 6.616ZM29.7294 12.472C29.3094 12.088 29.1054 11.596 29.1054 10.996C29.1054 10.396 29.3094 9.904 29.7294 9.52C30.1494 9.148 30.6654 8.956 31.3014 8.956C31.9254 8.956 32.4414 9.148 32.8614 9.52C33.2814 9.904 33.4854 10.396 33.4854 10.996C33.4854 11.584 33.2814 12.076 32.8614 12.46C32.4414 12.856 31.9254 13.048 31.3014 13.048C30.6654 13.048 30.1494 12.856 29.7294 12.472ZM30.1134 10.996C30.1134 11.68 30.6654 12.184 31.3014 12.184C31.9614 12.184 32.4774 11.704 32.4774 10.996C32.4774 10.288 31.9374 9.808 31.3014 9.808C30.6414 9.808 30.1134 10.288 30.1134 10.996Z" fill="#76848D"/>
<path d="M11.3492 88.212H11.7213C12.2612 88.212 12.7052 88.08 13.0773 87.828C13.4373 87.576 13.6172 87.24 13.6172 86.844C13.6172 85.944 12.9093 85.488 11.5052 85.488C10.1612 85.488 9.42925 85.98 9.42925 86.844C9.42925 87.624 10.2332 88.212 11.3492 88.212ZM11.6973 89.16H11.3972C10.7493 89.16 10.2092 89.304 9.78925 89.58C9.36925 89.856 9.15325 90.204 9.15325 90.624C9.15325 91.536 9.99325 92.112 11.5172 92.112C13.0652 92.112 13.8932 91.56 13.8932 90.636C13.8932 89.712 13.0052 89.16 11.6973 89.16ZM14.0612 92.46C13.4492 92.892 12.5972 93.108 11.5293 93.108C10.4612 93.108 9.60925 92.892 8.98525 92.472C8.36125 92.052 8.04925 91.476 8.04925 90.732C8.04925 89.76 8.68525 88.992 9.70525 88.656C8.78125 88.356 8.32525 87.624 8.32525 86.772C8.32525 85.38 9.50125 84.492 11.5172 84.492C13.5453 84.492 14.7213 85.38 14.7213 86.772C14.7213 87.576 14.2773 88.188 13.3893 88.596C14.4572 88.92 14.9853 89.616 14.9853 90.684C14.9853 91.44 14.6732 92.04 14.0612 92.46ZM15.9212 88.8C15.9212 87.504 16.2212 86.46 16.8332 85.68C17.4332 84.9 18.3212 84.504 19.4852 84.504C21.8732 84.504 23.0612 86.076 23.0612 88.8C23.0612 90.108 22.7612 91.14 22.1732 91.92C21.5732 92.7 20.6852 93.096 19.5092 93.096C18.3812 93.096 17.5052 92.7 16.8692 91.908C16.2332 91.116 15.9212 90.084 15.9212 88.8ZM17.0252 88.8C17.0252 90.852 17.9612 92.076 19.5092 92.076C21.1412 92.076 21.9572 90.984 21.9572 88.8C21.9572 86.616 21.1292 85.524 19.4852 85.524C17.8172 85.524 17.0252 86.724 17.0252 88.8ZM26.0454 93.18L25.2534 92.724L31.4574 84.336L32.2134 84.888L26.0454 93.18ZM23.9574 86.616C23.9574 86.016 24.1614 85.524 24.5814 85.14C25.0014 84.756 25.5174 84.564 26.1534 84.564C26.7774 84.564 27.2934 84.756 27.7134 85.14C28.1334 85.524 28.3374 86.016 28.3374 86.616C28.3374 87.204 28.1334 87.696 27.7134 88.08C27.2934 88.464 26.7774 88.656 26.1534 88.656C25.5174 88.656 25.0014 88.464 24.5814 88.08C24.1614 87.696 23.9574 87.204 23.9574 86.616ZM24.9654 86.616C24.9654 87.3 25.5174 87.804 26.1534 87.804C26.8134 87.804 27.3294 87.324 27.3294 86.616C27.3294 85.908 26.7894 85.428 26.1534 85.428C25.4934 85.428 24.9654 85.908 24.9654 86.616ZM29.7294 92.472C29.3094 92.088 29.1054 91.596 29.1054 90.996C29.1054 90.396 29.3094 89.904 29.7294 89.52C30.1494 89.148 30.6654 88.956 31.3014 88.956C31.9254 88.956 32.4414 89.148 32.8614 89.52C33.2814 89.904 33.4854 90.396 33.4854 90.996C33.4854 91.584 33.2814 92.076 32.8614 92.46C32.4414 92.856 31.9254 93.048 31.3014 93.048C30.6654 93.048 30.1494 92.856 29.7294 92.472ZM30.1134 90.996C30.1134 91.68 30.6654 92.184 31.3014 92.184C31.9614 92.184 32.4774 91.704 32.4774 90.996C32.4774 90.288 31.9374 89.808 31.3014 89.808C30.6414 89.808 30.1134 90.288 30.1134 90.996Z" fill="#76848D"/>
<path d="M8.06069 168.028C8.06069 166.576 8.42069 165.46 9.12869 164.668C9.83669 163.888 10.7247 163.492 11.7927 163.492C13.1967 163.492 14.3007 164.128 14.7687 165.136L13.9527 165.688C13.4607 164.908 12.7287 164.524 11.7447 164.524C11.0007 164.524 10.3767 164.812 9.87269 165.388C9.36869 165.976 9.11669 166.768 9.12869 167.788C9.59669 166.912 10.6887 166.384 11.8887 166.384C12.8607 166.384 13.6407 166.636 14.2047 167.152C14.7687 167.668 15.0567 168.352 15.0567 169.192C15.0567 170.044 14.7447 170.752 14.1087 171.292C13.4727 171.832 12.6807 172.108 11.7327 172.108C9.46469 172.108 8.06069 170.632 8.06069 168.028ZM9.26069 169.048C9.48869 170.236 10.3887 171.076 11.7207 171.076C12.3687 171.076 12.9087 170.908 13.3287 170.56C13.7487 170.224 13.9527 169.78 13.9527 169.24C13.9527 168.052 13.1127 167.416 11.8287 167.416C11.1207 167.416 10.5327 167.584 10.0767 167.92C9.60869 168.256 9.34469 168.628 9.26069 169.048ZM15.9212 167.8C15.9212 166.504 16.2212 165.46 16.8332 164.68C17.4332 163.9 18.3212 163.504 19.4852 163.504C21.8732 163.504 23.0612 165.076 23.0612 167.8C23.0612 169.108 22.7612 170.14 22.1732 170.92C21.5732 171.7 20.6852 172.096 19.5092 172.096C18.3812 172.096 17.5052 171.7 16.8692 170.908C16.2332 170.116 15.9212 169.084 15.9212 167.8ZM17.0252 167.8C17.0252 169.852 17.9612 171.076 19.5092 171.076C21.1412 171.076 21.9572 169.984 21.9572 167.8C21.9572 165.616 21.1292 164.524 19.4852 164.524C17.8172 164.524 17.0252 165.724 17.0252 167.8ZM26.0454 172.18L25.2534 171.724L31.4574 163.336L32.2134 163.888L26.0454 172.18ZM23.9574 165.616C23.9574 165.016 24.1614 164.524 24.5814 164.14C25.0014 163.756 25.5174 163.564 26.1534 163.564C26.7774 163.564 27.2934 163.756 27.7134 164.14C28.1334 164.524 28.3374 165.016 28.3374 165.616C28.3374 166.204 28.1334 166.696 27.7134 167.08C27.2934 167.464 26.7774 167.656 26.1534 167.656C25.5174 167.656 25.0014 167.464 24.5814 167.08C24.1614 166.696 23.9574 166.204 23.9574 165.616ZM24.9654 165.616C24.9654 166.3 25.5174 166.804 26.1534 166.804C26.8134 166.804 27.3294 166.324 27.3294 165.616C27.3294 164.908 26.7894 164.428 26.1534 164.428C25.4934 164.428 24.9654 164.908 24.9654 165.616ZM29.7294 171.472C29.3094 171.088 29.1054 170.596 29.1054 169.996C29.1054 169.396 29.3094 168.904 29.7294 168.52C30.1494 168.148 30.6654 167.956 31.3014 167.956C31.9254 167.956 32.4414 168.148 32.8614 168.52C33.2814 168.904 33.4854 169.396 33.4854 169.996C33.4854 170.584 33.2814 171.076 32.8614 171.46C32.4414 171.856 31.9254 172.048 31.3014 172.048C30.6654 172.048 30.1494 171.856 29.7294 171.472ZM30.1134 169.996C30.1134 170.68 30.6654 171.184 31.3014 171.184C31.9614 171.184 32.4774 170.704 32.4774 169.996C32.4774 169.288 31.9374 168.808 31.3014 168.808C30.6414 168.808 30.1134 169.288 30.1134 169.996Z" fill="#76848D"/>
<path d="M13.7747 253H12.7307V251.284H7.59466V250.588L12.8507 244.6H13.7747V250.312H15.3347V251.284H13.7747V253ZM12.7307 246.28L9.03466 250.312H12.7307V246.28ZM15.9212 248.8C15.9212 247.504 16.2212 246.46 16.8332 245.68C17.4332 244.9 18.3212 244.504 19.4852 244.504C21.8732 244.504 23.0612 246.076 23.0612 248.8C23.0612 250.108 22.7612 251.14 22.1732 251.92C21.5732 252.7 20.6852 253.096 19.5092 253.096C18.3812 253.096 17.5052 252.7 16.8692 251.908C16.2332 251.116 15.9212 250.084 15.9212 248.8ZM17.0252 248.8C17.0252 250.852 17.9612 252.076 19.5092 252.076C21.1412 252.076 21.9572 250.984 21.9572 248.8C21.9572 246.616 21.1292 245.524 19.4852 245.524C17.8172 245.524 17.0252 246.724 17.0252 248.8ZM26.0454 253.18L25.2534 252.724L31.4574 244.336L32.2134 244.888L26.0454 253.18ZM23.9574 246.616C23.9574 246.016 24.1614 245.524 24.5814 245.14C25.0014 244.756 25.5174 244.564 26.1534 244.564C26.7774 244.564 27.2934 244.756 27.7134 245.14C28.1334 245.524 28.3374 246.016 28.3374 246.616C28.3374 247.204 28.1334 247.696 27.7134 248.08C27.2934 248.464 26.7774 248.656 26.1534 248.656C25.5174 248.656 25.0014 248.464 24.5814 248.08C24.1614 247.696 23.9574 247.204 23.9574 246.616ZM24.9654 246.616C24.9654 247.3 25.5174 247.804 26.1534 247.804C26.8134 247.804 27.3294 247.324 27.3294 246.616C27.3294 245.908 26.7894 245.428 26.1534 245.428C25.4934 245.428 24.9654 245.908 24.9654 246.616ZM29.7294 252.472C29.3094 252.088 29.1054 251.596 29.1054 250.996C29.1054 250.396 29.3094 249.904 29.7294 249.52C30.1494 249.148 30.6654 248.956 31.3014 248.956C31.9254 248.956 32.4414 249.148 32.8614 249.52C33.2814 249.904 33.4854 250.396 33.4854 250.996C33.4854 251.584 33.2814 252.076 32.8614 252.46C32.4414 252.856 31.9254 253.048 31.3014 253.048C30.6654 253.048 30.1494 252.856 29.7294 252.472ZM30.1134 250.996C30.1134 251.68 30.6654 252.184 31.3014 252.184C31.9614 252.184 32.4774 251.704 32.4774 250.996C32.4774 250.288 31.9374 249.808 31.3014 249.808C30.6414 249.808 30.1134 250.288 30.1134 250.996Z" fill="#76848D"/>
<path d="M9.6535 326.372L8.7775 326.06C9.0775 324.572 10.2055 323.504 11.9935 323.504C13.7215 323.504 14.7775 324.5 14.7775 326.024C14.7775 326.828 14.4295 327.632 13.9975 328.208C13.7815 328.508 13.5055 328.796 13.1815 329.096C12.5215 329.684 12.0535 329.996 11.3695 330.428L10.4455 331.004H15.0895V332H8.5495V331.184L10.3735 329.972C10.6975 329.768 10.9255 329.612 11.0575 329.516C11.1895 329.432 11.4055 329.276 11.6935 329.072C11.9815 328.868 12.1975 328.688 12.3415 328.556C12.4735 328.424 12.6535 328.256 12.8575 328.04C13.4095 327.44 13.6135 326.888 13.6735 326.132C13.6735 325.04 12.9655 324.548 11.9215 324.548C11.2735 324.548 10.7575 324.728 10.3855 325.088C10.0135 325.448 9.7615 325.88 9.6535 326.372ZM15.9212 327.8C15.9212 326.504 16.2212 325.46 16.8332 324.68C17.4332 323.9 18.3212 323.504 19.4852 323.504C21.8732 323.504 23.0612 325.076 23.0612 327.8C23.0612 329.108 22.7612 330.14 22.1732 330.92C21.5732 331.7 20.6852 332.096 19.5092 332.096C18.3812 332.096 17.5052 331.7 16.8692 330.908C16.2332 330.116 15.9212 329.084 15.9212 327.8ZM17.0252 327.8C17.0252 329.852 17.9612 331.076 19.5092 331.076C21.1412 331.076 21.9572 329.984 21.9572 327.8C21.9572 325.616 21.1292 324.524 19.4852 324.524C17.8172 324.524 17.0252 325.724 17.0252 327.8ZM26.0454 332.18L25.2534 331.724L31.4574 323.336L32.2134 323.888L26.0454 332.18ZM23.9574 325.616C23.9574 325.016 24.1614 324.524 24.5814 324.14C25.0014 323.756 25.5174 323.564 26.1534 323.564C26.7774 323.564 27.2934 323.756 27.7134 324.14C28.1334 324.524 28.3374 325.016 28.3374 325.616C28.3374 326.204 28.1334 326.696 27.7134 327.08C27.2934 327.464 26.7774 327.656 26.1534 327.656C25.5174 327.656 25.0014 327.464 24.5814 327.08C24.1614 326.696 23.9574 326.204 23.9574 325.616ZM24.9654 325.616C24.9654 326.3 25.5174 326.804 26.1534 326.804C26.8134 326.804 27.3294 326.324 27.3294 325.616C27.3294 324.908 26.7894 324.428 26.1534 324.428C25.4934 324.428 24.9654 324.908 24.9654 325.616ZM29.7294 331.472C29.3094 331.088 29.1054 330.596 29.1054 329.996C29.1054 329.396 29.3094 328.904 29.7294 328.52C30.1494 328.148 30.6654 327.956 31.3014 327.956C31.9254 327.956 32.4414 328.148 32.8614 328.52C33.2814 328.904 33.4854 329.396 33.4854 329.996C33.4854 330.584 33.2814 331.076 32.8614 331.46C32.4414 331.856 31.9254 332.048 31.3014 332.048C30.6654 332.048 30.1494 331.856 29.7294 331.472ZM30.1134 329.996C30.1134 330.68 30.6654 331.184 31.3014 331.184C31.9614 331.184 32.4774 330.704 32.4774 329.996C32.4774 329.288 31.9374 328.808 31.3014 328.808C30.6414 328.808 30.1134 329.288 30.1134 329.996Z" fill="#76848D"/>
<path d="M15.9212 407.8C15.9212 406.504 16.2212 405.46 16.8332 404.68C17.4332 403.9 18.3212 403.504 19.4852 403.504C21.8732 403.504 23.0612 405.076 23.0612 407.8C23.0612 409.108 22.7612 410.14 22.1732 410.92C21.5732 411.7 20.6852 412.096 19.5092 412.096C18.3812 412.096 17.5052 411.7 16.8692 410.908C16.2332 410.116 15.9212 409.084 15.9212 407.8ZM17.0252 407.8C17.0252 409.852 17.9612 411.076 19.5092 411.076C21.1412 411.076 21.9572 409.984 21.9572 407.8C21.9572 405.616 21.1292 404.524 19.4852 404.524C17.8172 404.524 17.0252 405.724 17.0252 407.8ZM26.0454 412.18L25.2534 411.724L31.4574 403.336L32.2134 403.888L26.0454 412.18ZM23.9574 405.616C23.9574 405.016 24.1614 404.524 24.5814 404.14C25.0014 403.756 25.5174 403.564 26.1534 403.564C26.7774 403.564 27.2934 403.756 27.7134 404.14C28.1334 404.524 28.3374 405.016 28.3374 405.616C28.3374 406.204 28.1334 406.696 27.7134 407.08C27.2934 407.464 26.7774 407.656 26.1534 407.656C25.5174 407.656 25.0014 407.464 24.5814 407.08C24.1614 406.696 23.9574 406.204 23.9574 405.616ZM24.9654 405.616C24.9654 406.3 25.5174 406.804 26.1534 406.804C26.8134 406.804 27.3294 406.324 27.3294 405.616C27.3294 404.908 26.7894 404.428 26.1534 404.428C25.4934 404.428 24.9654 404.908 24.9654 405.616ZM29.7294 411.472C29.3094 411.088 29.1054 410.596 29.1054 409.996C29.1054 409.396 29.3094 408.904 29.7294 408.52C30.1494 408.148 30.6654 407.956 31.3014 407.956C31.9254 407.956 32.4414 408.148 32.8614 408.52C33.2814 408.904 33.4854 409.396 33.4854 409.996C33.4854 410.584 33.2814 411.076 32.8614 411.46C32.4414 411.856 31.9254 412.048 31.3014 412.048C30.6654 412.048 30.1494 411.856 29.7294 411.472ZM30.1134 409.996C30.1134 410.68 30.6654 411.184 31.3014 411.184C31.9614 411.184 32.4774 410.704 32.4774 409.996C32.4774 409.288 31.9374 408.808 31.3014 408.808C30.6414 408.808 30.1134 409.288 30.1134 409.996Z" fill="#76848D"/>
<path d="M7.62344 488.136H2.05544V487.236H7.62344V488.136ZM9.6535 486.372L8.7775 486.06C9.0775 484.572 10.2055 483.504 11.9935 483.504C13.7215 483.504 14.7775 484.5 14.7775 486.024C14.7775 486.828 14.4295 487.632 13.9975 488.208C13.7815 488.508 13.5055 488.796 13.1815 489.096C12.5215 489.684 12.0535 489.996 11.3695 490.428L10.4455 491.004H15.0895V492H8.5495V491.184L10.3735 489.972C10.6975 489.768 10.9255 489.612 11.0575 489.516C11.1895 489.432 11.4055 489.276 11.6935 489.072C11.9815 488.868 12.1975 488.688 12.3415 488.556C12.4735 488.424 12.6535 488.256 12.8575 488.04C13.4095 487.44 13.6135 486.888 13.6735 486.132C13.6735 485.04 12.9655 484.548 11.9215 484.548C11.2735 484.548 10.7575 484.728 10.3855 485.088C10.0135 485.448 9.7615 485.88 9.6535 486.372ZM15.9212 487.8C15.9212 486.504 16.2212 485.46 16.8332 484.68C17.4332 483.9 18.3212 483.504 19.4852 483.504C21.8732 483.504 23.0612 485.076 23.0612 487.8C23.0612 489.108 22.7612 490.14 22.1732 490.92C21.5732 491.7 20.6852 492.096 19.5092 492.096C18.3812 492.096 17.5052 491.7 16.8692 490.908C16.2332 490.116 15.9212 489.084 15.9212 487.8ZM17.0252 487.8C17.0252 489.852 17.9612 491.076 19.5092 491.076C21.1412 491.076 21.9572 489.984 21.9572 487.8C21.9572 485.616 21.1292 484.524 19.4852 484.524C17.8172 484.524 17.0252 485.724 17.0252 487.8ZM26.0454 492.18L25.2534 491.724L31.4574 483.336L32.2134 483.888L26.0454 492.18ZM23.9574 485.616C23.9574 485.016 24.1614 484.524 24.5814 484.14C25.0014 483.756 25.5174 483.564 26.1534 483.564C26.7774 483.564 27.2934 483.756 27.7134 484.14C28.1334 484.524 28.3374 485.016 28.3374 485.616C28.3374 486.204 28.1334 486.696 27.7134 487.08C27.2934 487.464 26.7774 487.656 26.1534 487.656C25.5174 487.656 25.0014 487.464 24.5814 487.08C24.1614 486.696 23.9574 486.204 23.9574 485.616ZM24.9654 485.616C24.9654 486.3 25.5174 486.804 26.1534 486.804C26.8134 486.804 27.3294 486.324 27.3294 485.616C27.3294 484.908 26.7894 484.428 26.1534 484.428C25.4934 484.428 24.9654 484.908 24.9654 485.616ZM29.7294 491.472C29.3094 491.088 29.1054 490.596 29.1054 489.996C29.1054 489.396 29.3094 488.904 29.7294 488.52C30.1494 488.148 30.6654 487.956 31.3014 487.956C31.9254 487.956 32.4414 488.148 32.8614 488.52C33.2814 488.904 33.4854 489.396 33.4854 489.996C33.4854 490.584 33.2814 491.076 32.8614 491.46C32.4414 491.856 31.9254 492.048 31.3014 492.048C30.6654 492.048 30.1494 491.856 29.7294 491.472ZM30.1134 489.996C30.1134 490.68 30.6654 491.184 31.3014 491.184C31.9614 491.184 32.4774 490.704 32.4774 489.996C32.4774 489.288 31.9374 488.808 31.3014 488.808C30.6414 488.808 30.1134 489.288 30.1134 489.996Z" fill="#76848D"/>
<path d="M6.90859 569.136H1.34059V568.236H6.90859V569.136ZM13.7747 573H12.7307V571.284H7.59466V570.588L12.8507 564.6H13.7747V570.312H15.3347V571.284H13.7747V573ZM12.7307 566.28L9.03466 570.312H12.7307V566.28ZM15.9212 568.8C15.9212 567.504 16.2212 566.46 16.8332 565.68C17.4332 564.9 18.3212 564.504 19.4852 564.504C21.8732 564.504 23.0612 566.076 23.0612 568.8C23.0612 570.108 22.7612 571.14 22.1732 571.92C21.5732 572.7 20.6852 573.096 19.5092 573.096C18.3812 573.096 17.5052 572.7 16.8692 571.908C16.2332 571.116 15.9212 570.084 15.9212 568.8ZM17.0252 568.8C17.0252 570.852 17.9612 572.076 19.5092 572.076C21.1412 572.076 21.9572 570.984 21.9572 568.8C21.9572 566.616 21.1292 565.524 19.4852 565.524C17.8172 565.524 17.0252 566.724 17.0252 568.8ZM26.0454 573.18L25.2534 572.724L31.4574 564.336L32.2134 564.888L26.0454 573.18ZM23.9574 566.616C23.9574 566.016 24.1614 565.524 24.5814 565.14C25.0014 564.756 25.5174 564.564 26.1534 564.564C26.7774 564.564 27.2934 564.756 27.7134 565.14C28.1334 565.524 28.3374 566.016 28.3374 566.616C28.3374 567.204 28.1334 567.696 27.7134 568.08C27.2934 568.464 26.7774 568.656 26.1534 568.656C25.5174 568.656 25.0014 568.464 24.5814 568.08C24.1614 567.696 23.9574 567.204 23.9574 566.616ZM24.9654 566.616C24.9654 567.3 25.5174 567.804 26.1534 567.804C26.8134 567.804 27.3294 567.324 27.3294 566.616C27.3294 565.908 26.7894 565.428 26.1534 565.428C25.4934 565.428 24.9654 565.908 24.9654 566.616ZM29.7294 572.472C29.3094 572.088 29.1054 571.596 29.1054 570.996C29.1054 570.396 29.3094 569.904 29.7294 569.52C30.1494 569.148 30.6654 568.956 31.3014 568.956C31.9254 568.956 32.4414 569.148 32.8614 569.52C33.2814 569.904 33.4854 570.396 33.4854 570.996C33.4854 571.584 33.2814 572.076 32.8614 572.46C32.4414 572.856 31.9254 573.048 31.3014 573.048C30.6654 573.048 30.1494 572.856 29.7294 572.472ZM30.1134 570.996C30.1134 571.68 30.6654 572.184 31.3014 572.184C31.9614 572.184 32.4774 571.704 32.4774 570.996C32.4774 570.288 31.9374 569.808 31.3014 569.808C30.6414 569.808 30.1134 570.288 30.1134 570.996Z" fill="#76848D"/>
<line x1="5" y1="650.5" x2="1118" y2="650.5" stroke="#CEE0ED"/>
<path d="M35.1307 662.8C35.1307 661.504 35.4307 660.46 36.0427 659.68C36.6427 658.9 37.5307 658.504 38.6947 658.504C41.0827 658.504 42.2707 660.076 42.2707 662.8C42.2707 664.108 41.9707 665.14 41.3827 665.92C40.7827 666.7 39.8947 667.096 38.7187 667.096C37.5907 667.096 36.7147 666.7 36.0787 665.908C35.4427 665.116 35.1307 664.084 35.1307 662.8ZM36.2347 662.8C36.2347 664.852 37.1707 666.076 38.7187 666.076C40.3507 666.076 41.1667 664.984 41.1667 662.8C41.1667 660.616 40.3387 659.524 38.6947 659.524C37.0267 659.524 36.2347 660.724 36.2347 662.8ZM43.0709 660.832L42.6869 659.932L45.5669 658.552H46.2509V667H45.2189V659.836L43.0709 660.832ZM27.1521 675.372L26.2761 675.06C26.5761 673.572 27.7041 672.504 29.4921 672.504C31.2201 672.504 32.2761 673.5 32.2761 675.024C32.2761 675.828 31.9281 676.632 31.4961 677.208C31.2801 677.508 31.0041 677.796 30.6801 678.096C30.0201 678.684 29.5521 678.996 28.8681 679.428L27.9441 680.004H32.5881V681H26.0481V680.184L27.8721 678.972C28.1961 678.768 28.4241 678.612 28.5561 678.516C28.6881 678.432 28.9041 678.276 29.1921 678.072C29.4801 677.868 29.6961 677.688 29.8401 677.556C29.9721 677.424 30.1521 677.256 30.3561 677.04C30.9081 676.44 31.1121 675.888 31.1721 675.132C31.1721 674.04 30.4641 673.548 29.4201 673.548C28.7721 673.548 28.2561 673.728 27.8841 674.088C27.5121 674.448 27.2601 674.88 27.1521 675.372ZM33.4198 676.8C33.4198 675.504 33.7198 674.46 34.3318 673.68C34.9318 672.9 35.8198 672.504 36.9838 672.504C39.3718 672.504 40.5598 674.076 40.5598 676.8C40.5598 678.108 40.2598 679.14 39.6718 679.92C39.0718 680.7 38.1838 681.096 37.0078 681.096C35.8798 681.096 35.0038 680.7 34.3678 679.908C33.7318 679.116 33.4198 678.084 33.4198 676.8ZM34.5238 676.8C34.5238 678.852 35.4598 680.076 37.0078 680.076C38.6398 680.076 39.4558 678.984 39.4558 676.8C39.4558 674.616 38.6278 673.524 36.9838 673.524C35.3158 673.524 34.5238 674.724 34.5238 676.8ZM42.416 675.372L41.54 675.06C41.84 673.572 42.968 672.504 44.756 672.504C46.484 672.504 47.54 673.5 47.54 675.024C47.54 675.828 47.192 676.632 46.76 677.208C46.544 677.508 46.268 677.796 45.944 678.096C45.284 678.684 44.816 678.996 44.132 679.428L43.208 680.004H47.852V681H41.312V680.184L43.136 678.972C43.46 678.768 43.688 678.612 43.82 678.516C43.952 678.432 44.168 678.276 44.456 678.072C44.744 677.868 44.96 677.688 45.104 677.556C45.236 677.424 45.416 677.256 45.62 677.04C46.172 676.44 46.376 675.888 46.436 675.132C46.436 674.04 45.728 673.548 44.684 673.548C44.036 673.548 43.52 673.728 43.148 674.088C42.776 674.448 42.524 674.88 42.416 675.372ZM48.6837 676.8C48.6837 675.504 48.9837 674.46 49.5957 673.68C50.1957 672.9 51.0837 672.504 52.2477 672.504C54.6357 672.504 55.8237 674.076 55.8237 676.8C55.8237 678.108 55.5237 679.14 54.9357 679.92C54.3357 680.7 53.4477 681.096 52.2717 681.096C51.1437 681.096 50.2677 680.7 49.6317 679.908C48.9957 679.116 48.6837 678.084 48.6837 676.8ZM49.7877 676.8C49.7877 678.852 50.7237 680.076 52.2717 680.076C53.9037 680.076 54.7197 678.984 54.7197 676.8C54.7197 674.616 53.8917 673.524 52.2477 673.524C50.5797 673.524 49.7877 674.724 49.7877 676.8Z" fill="#76848D"/>
<path d="M78.7947 662.8C78.7947 661.504 79.0947 660.46 79.7067 659.68C80.3067 658.9 81.1947 658.504 82.3587 658.504C84.7467 658.504 85.9347 660.076 85.9347 662.8C85.9347 664.108 85.6347 665.14 85.0467 665.92C84.4467 666.7 83.5587 667.096 82.3827 667.096C81.2547 667.096 80.3787 666.7 79.7427 665.908C79.1067 665.116 78.7947 664.084 78.7947 662.8ZM79.8987 662.8C79.8987 664.852 80.8347 666.076 82.3827 666.076C84.0147 666.076 84.8307 664.984 84.8307 662.8C84.8307 660.616 84.0027 659.524 82.3587 659.524C80.6907 659.524 79.8987 660.724 79.8987 662.8ZM87.659 661.048L86.759 660.64C87.203 659.344 88.367 658.492 90.107 658.492C90.935 658.492 91.619 658.684 92.147 659.068C92.675 659.452 92.939 659.968 92.939 660.604C92.939 661.576 92.423 662.296 91.463 662.572C92.387 662.632 93.131 663.328 93.131 664.576C93.131 665.368 92.843 665.992 92.267 666.436C91.691 666.88 90.959 667.108 90.059 667.108C88.223 667.108 86.951 666.232 86.531 664.852L87.503 664.432C88.019 665.524 88.895 666.076 90.131 666.076C91.295 666.076 92.027 665.536 92.027 664.588C92.027 663.664 91.307 663.196 89.867 663.196H88.931V662.2H89.675C90.983 662.2 91.835 661.612 91.835 660.808C91.835 659.98 91.151 659.512 90.059 659.512C88.775 659.512 87.995 660.172 87.659 661.048Z" fill="#76848D"/>
<path d="M350.795 662.8C350.795 661.504 351.095 660.46 351.707 659.68C352.307 658.9 353.195 658.504 354.359 658.504C356.747 658.504 357.935 660.076 357.935 662.8C357.935 664.108 357.635 665.14 357.047 665.92C356.447 666.7 355.559 667.096 354.383 667.096C353.255 667.096 352.379 666.7 351.743 665.908C351.107 665.116 350.795 664.084 350.795 662.8ZM351.899 662.8C351.899 664.852 352.835 666.076 354.383 666.076C356.015 666.076 356.831 664.984 356.831 662.8C356.831 660.616 356.003 659.524 354.359 659.524C352.691 659.524 351.899 660.724 351.899 662.8ZM359.659 661.048L358.759 660.64C359.203 659.344 360.367 658.492 362.107 658.492C362.935 658.492 363.619 658.684 364.147 659.068C364.675 659.452 364.939 659.968 364.939 660.604C364.939 661.576 364.423 662.296 363.463 662.572C364.387 662.632 365.131 663.328 365.131 664.576C365.131 665.368 364.843 665.992 364.267 666.436C363.691 666.88 362.959 667.108 362.059 667.108C360.223 667.108 358.951 666.232 358.531 664.852L359.503 664.432C360.019 665.524 360.895 666.076 362.131 666.076C363.295 666.076 364.027 665.536 364.027 664.588C364.027 663.664 363.307 663.196 361.867 663.196H360.931V662.2H361.675C362.983 662.2 363.835 661.612 363.835 660.808C363.835 659.98 363.151 659.512 362.059 659.512C360.775 659.512 359.995 660.172 359.659 661.048Z" fill="#76848D"/>
<path d="M621.795 662.8C621.795 661.504 622.095 660.46 622.707 659.68C623.307 658.9 624.195 658.504 625.359 658.504C627.747 658.504 628.935 660.076 628.935 662.8C628.935 664.108 628.635 665.14 628.047 665.92C627.447 666.7 626.559 667.096 625.383 667.096C624.255 667.096 623.379 666.7 622.743 665.908C622.107 665.116 621.795 664.084 621.795 662.8ZM622.899 662.8C622.899 664.852 623.835 666.076 625.383 666.076C627.015 666.076 627.831 664.984 627.831 662.8C627.831 660.616 627.003 659.524 625.359 659.524C623.691 659.524 622.899 660.724 622.899 662.8ZM630.659 661.048L629.759 660.64C630.203 659.344 631.367 658.492 633.107 658.492C633.935 658.492 634.619 658.684 635.147 659.068C635.675 659.452 635.939 659.968 635.939 660.604C635.939 661.576 635.423 662.296 634.463 662.572C635.387 662.632 636.131 663.328 636.131 664.576C636.131 665.368 635.843 665.992 635.267 666.436C634.691 666.88 633.959 667.108 633.059 667.108C631.223 667.108 629.951 666.232 629.531 664.852L630.503 664.432C631.019 665.524 631.895 666.076 633.131 666.076C634.295 666.076 635.027 665.536 635.027 664.588C635.027 663.664 634.307 663.196 632.867 663.196H631.931V662.2H632.675C633.983 662.2 634.835 661.612 634.835 660.808C634.835 659.98 634.151 659.512 633.059 659.512C631.775 659.512 630.995 660.172 630.659 661.048Z" fill="#76848D"/>
<path d="M892.795 662.8C892.795 661.504 893.095 660.46 893.707 659.68C894.307 658.9 895.195 658.504 896.359 658.504C898.747 658.504 899.935 660.076 899.935 662.8C899.935 664.108 899.635 665.14 899.047 665.92C898.447 666.7 897.559 667.096 896.383 667.096C895.255 667.096 894.379 666.7 893.743 665.908C893.107 665.116 892.795 664.084 892.795 662.8ZM893.899 662.8C893.899 664.852 894.835 666.076 896.383 666.076C898.015 666.076 898.831 664.984 898.831 662.8C898.831 660.616 898.003 659.524 896.359 659.524C894.691 659.524 893.899 660.724 893.899 662.8ZM901.659 661.048L900.759 660.64C901.203 659.344 902.367 658.492 904.107 658.492C904.935 658.492 905.619 658.684 906.147 659.068C906.675 659.452 906.939 659.968 906.939 660.604C906.939 661.576 906.423 662.296 905.463 662.572C906.387 662.632 907.131 663.328 907.131 664.576C907.131 665.368 906.843 665.992 906.267 666.436C905.691 666.88 904.959 667.108 904.059 667.108C902.223 667.108 900.951 666.232 900.531 664.852L901.503 664.432C902.019 665.524 902.895 666.076 904.131 666.076C905.295 666.076 906.027 665.536 906.027 664.588C906.027 663.664 905.307 663.196 903.867 663.196H902.931V662.2H903.675C904.983 662.2 905.835 661.612 905.835 660.808C905.835 659.98 905.151 659.512 904.059 659.512C902.775 659.512 901.995 660.172 901.659 661.048Z" fill="#76848D"/>
<path d="M124.224 662.8C124.224 661.504 124.524 660.46 125.136 659.68C125.736 658.9 126.624 658.504 127.788 658.504C130.176 658.504 131.364 660.076 131.364 662.8C131.364 664.108 131.064 665.14 130.476 665.92C129.876 666.7 128.988 667.096 127.812 667.096C126.684 667.096 125.808 666.7 125.172 665.908C124.536 665.116 124.224 664.084 124.224 662.8ZM125.328 662.8C125.328 664.852 126.264 666.076 127.812 666.076C129.444 666.076 130.26 664.984 130.26 662.8C130.26 660.616 129.432 659.524 127.788 659.524C126.12 659.524 125.328 660.724 125.328 662.8ZM133.485 663.136L132.621 662.908L133.113 658.6H138.393V659.62H134.037L133.725 661.876C134.145 661.564 134.781 661.408 135.633 661.408C136.617 661.408 137.385 661.672 137.949 662.188C138.501 662.716 138.777 663.388 138.777 664.216C138.777 665.044 138.465 665.74 137.853 666.28C137.229 666.832 136.449 667.108 135.525 667.108C133.953 667.108 132.645 666.364 132.105 665.056L133.065 664.648C133.413 665.452 134.313 666.088 135.525 666.088C136.905 666.088 137.673 665.296 137.673 664.252C137.673 663.136 136.773 662.416 135.345 662.416C134.577 662.416 133.953 662.656 133.485 663.136Z" fill="#76848D"/>
<path d="M395.724 662.8C395.724 661.504 396.024 660.46 396.636 659.68C397.236 658.9 398.124 658.504 399.288 658.504C401.676 658.504 402.864 660.076 402.864 662.8C402.864 664.108 402.564 665.14 401.976 665.92C401.376 666.7 400.488 667.096 399.312 667.096C398.184 667.096 397.308 666.7 396.672 665.908C396.036 665.116 395.724 664.084 395.724 662.8ZM396.828 662.8C396.828 664.852 397.764 666.076 399.312 666.076C400.944 666.076 401.76 664.984 401.76 662.8C401.76 660.616 400.932 659.524 399.288 659.524C397.62 659.524 396.828 660.724 396.828 662.8ZM404.985 663.136L404.121 662.908L404.613 658.6H409.893V659.62H405.537L405.225 661.876C405.645 661.564 406.281 661.408 407.133 661.408C408.117 661.408 408.885 661.672 409.449 662.188C410.001 662.716 410.277 663.388 410.277 664.216C410.277 665.044 409.965 665.74 409.353 666.28C408.729 666.832 407.949 667.108 407.025 667.108C405.453 667.108 404.145 666.364 403.605 665.056L404.565 664.648C404.913 665.452 405.813 666.088 407.025 666.088C408.405 666.088 409.173 665.296 409.173 664.252C409.173 663.136 408.273 662.416 406.845 662.416C406.077 662.416 405.453 662.656 404.985 663.136Z" fill="#76848D"/>
<path d="M666.724 662.8C666.724 661.504 667.024 660.46 667.636 659.68C668.236 658.9 669.124 658.504 670.288 658.504C672.676 658.504 673.864 660.076 673.864 662.8C673.864 664.108 673.564 665.14 672.976 665.92C672.376 666.7 671.488 667.096 670.312 667.096C669.184 667.096 668.308 666.7 667.672 665.908C667.036 665.116 666.724 664.084 666.724 662.8ZM667.828 662.8C667.828 664.852 668.764 666.076 670.312 666.076C671.944 666.076 672.76 664.984 672.76 662.8C672.76 660.616 671.932 659.524 670.288 659.524C668.62 659.524 667.828 660.724 667.828 662.8ZM675.985 663.136L675.121 662.908L675.613 658.6H680.893V659.62H676.537L676.225 661.876C676.645 661.564 677.281 661.408 678.133 661.408C679.117 661.408 679.885 661.672 680.449 662.188C681.001 662.716 681.277 663.388 681.277 664.216C681.277 665.044 680.965 665.74 680.353 666.28C679.729 666.832 678.949 667.108 678.025 667.108C676.453 667.108 675.145 666.364 674.605 665.056L675.565 664.648C675.913 665.452 676.813 666.088 678.025 666.088C679.405 666.088 680.173 665.296 680.173 664.252C680.173 663.136 679.273 662.416 677.845 662.416C677.077 662.416 676.453 662.656 675.985 663.136Z" fill="#76848D"/>
<path d="M938.224 662.8C938.224 661.504 938.524 660.46 939.136 659.68C939.736 658.9 940.624 658.504 941.788 658.504C944.176 658.504 945.364 660.076 945.364 662.8C945.364 664.108 945.064 665.14 944.476 665.92C943.876 666.7 942.988 667.096 941.812 667.096C940.684 667.096 939.808 666.7 939.172 665.908C938.536 665.116 938.224 664.084 938.224 662.8ZM939.328 662.8C939.328 664.852 940.264 666.076 941.812 666.076C943.444 666.076 944.26 664.984 944.26 662.8C944.26 660.616 943.432 659.524 941.788 659.524C940.12 659.524 939.328 660.724 939.328 662.8ZM947.485 663.136L946.621 662.908L947.113 658.6H952.393V659.62H948.037L947.725 661.876C948.145 661.564 948.781 661.408 949.633 661.408C950.617 661.408 951.385 661.672 951.949 662.188C952.501 662.716 952.777 663.388 952.777 664.216C952.777 665.044 952.465 665.74 951.853 666.28C951.229 666.832 950.449 667.108 949.525 667.108C947.953 667.108 946.645 666.364 946.105 665.056L947.065 664.648C947.413 665.452 948.313 666.088 949.525 666.088C950.905 666.088 951.673 665.296 951.673 664.252C951.673 663.136 950.773 662.416 949.345 662.416C948.577 662.416 947.953 662.656 947.485 663.136Z" fill="#76848D"/>
<path d="M170.07 662.8C170.07 661.504 170.37 660.46 170.982 659.68C171.582 658.9 172.47 658.504 173.634 658.504C176.022 658.504 177.21 660.076 177.21 662.8C177.21 664.108 176.91 665.14 176.322 665.92C175.722 666.7 174.834 667.096 173.658 667.096C172.53 667.096 171.654 666.7 171.018 665.908C170.382 665.116 170.07 664.084 170.07 662.8ZM171.174 662.8C171.174 664.852 172.11 666.076 173.658 666.076C175.29 666.076 176.106 664.984 176.106 662.8C176.106 660.616 175.278 659.524 173.634 659.524C171.966 659.524 171.174 660.724 171.174 662.8ZM182.918 659.62H177.83V658.6H184.202V659.284L180.026 667H178.886L182.918 659.62Z" fill="#76848D"/>
<path d="M441.07 662.8C441.07 661.504 441.37 660.46 441.982 659.68C442.582 658.9 443.47 658.504 444.634 658.504C447.022 658.504 448.21 660.076 448.21 662.8C448.21 664.108 447.91 665.14 447.322 665.92C446.722 666.7 445.834 667.096 444.658 667.096C443.53 667.096 442.654 666.7 442.018 665.908C441.382 665.116 441.07 664.084 441.07 662.8ZM442.174 662.8C442.174 664.852 443.11 666.076 444.658 666.076C446.29 666.076 447.106 664.984 447.106 662.8C447.106 660.616 446.278 659.524 444.634 659.524C442.966 659.524 442.174 660.724 442.174 662.8ZM453.918 659.62H448.83V658.6H455.202V659.284L451.026 667H449.886L453.918 659.62Z" fill="#76848D"/>
<path d="M712.07 662.8C712.07 661.504 712.37 660.46 712.982 659.68C713.582 658.9 714.47 658.504 715.634 658.504C718.022 658.504 719.21 660.076 719.21 662.8C719.21 664.108 718.91 665.14 718.322 665.92C717.722 666.7 716.834 667.096 715.658 667.096C714.53 667.096 713.654 666.7 713.018 665.908C712.382 665.116 712.07 664.084 712.07 662.8ZM713.174 662.8C713.174 664.852 714.11 666.076 715.658 666.076C717.29 666.076 718.106 664.984 718.106 662.8C718.106 660.616 717.278 659.524 715.634 659.524C713.966 659.524 713.174 660.724 713.174 662.8ZM724.918 659.62H719.83V658.6H726.202V659.284L722.026 667H720.886L724.918 659.62Z" fill="#76848D"/>
<path d="M984.07 662.8C984.07 661.504 984.37 660.46 984.982 659.68C985.582 658.9 986.47 658.504 987.634 658.504C990.022 658.504 991.21 660.076 991.21 662.8C991.21 664.108 990.91 665.14 990.322 665.92C989.722 666.7 988.834 667.096 987.658 667.096C986.53 667.096 985.654 666.7 985.018 665.908C984.382 665.116 984.07 664.084 984.07 662.8ZM985.174 662.8C985.174 664.852 986.11 666.076 987.658 666.076C989.29 666.076 990.106 664.984 990.106 662.8C990.106 660.616 989.278 659.524 987.634 659.524C985.966 659.524 985.174 660.724 985.174 662.8ZM996.918 659.62H991.83V658.6H998.202V659.284L994.026 667H992.886L996.918 659.62Z" fill="#76848D"/>
<path d="M214.496 662.8C214.496 661.504 214.796 660.46 215.408 659.68C216.008 658.9 216.896 658.504 218.06 658.504C220.448 658.504 221.636 660.076 221.636 662.8C221.636 664.108 221.336 665.14 220.748 665.92C220.148 666.7 219.26 667.096 218.084 667.096C216.956 667.096 216.08 666.7 215.444 665.908C214.808 665.116 214.496 664.084 214.496 662.8ZM215.6 662.8C215.6 664.852 216.536 666.076 218.084 666.076C219.716 666.076 220.532 664.984 220.532 662.8C220.532 660.616 219.704 659.524 218.06 659.524C216.392 659.524 215.6 660.724 215.6 662.8ZM229.516 662.644C229.516 664.072 229.18 665.176 228.496 665.944C227.812 666.724 226.9 667.108 225.76 667.108C224.368 667.108 223.276 666.52 222.736 665.62L223.6 665.02C224.08 665.692 224.956 666.076 225.904 666.076C226.684 666.076 227.308 665.764 227.8 665.14C228.292 664.528 228.496 663.76 228.436 662.848C228.04 663.76 227.044 664.432 225.712 664.432C224.776 664.432 224.008 664.168 223.408 663.628C222.796 663.1 222.496 662.404 222.496 661.552C222.496 660.616 222.82 659.872 223.468 659.32C224.116 658.768 224.98 658.492 226.048 658.492C228.208 658.492 229.516 660.004 229.516 662.644ZM228.256 661.516C228.076 660.4 227.308 659.524 225.928 659.524C224.488 659.524 223.6 660.268 223.6 661.516C223.6 662.704 224.5 663.4 225.904 663.4C226.54 663.4 227.08 663.208 227.5 662.824C227.92 662.44 228.172 662.008 228.256 661.516Z" fill="#76848D"/>
<path d="M485.496 662.8C485.496 661.504 485.796 660.46 486.408 659.68C487.008 658.9 487.896 658.504 489.06 658.504C491.448 658.504 492.636 660.076 492.636 662.8C492.636 664.108 492.336 665.14 491.748 665.92C491.148 666.7 490.26 667.096 489.084 667.096C487.956 667.096 487.08 666.7 486.444 665.908C485.808 665.116 485.496 664.084 485.496 662.8ZM486.6 662.8C486.6 664.852 487.536 666.076 489.084 666.076C490.716 666.076 491.532 664.984 491.532 662.8C491.532 660.616 490.704 659.524 489.06 659.524C487.392 659.524 486.6 660.724 486.6 662.8ZM500.516 662.644C500.516 664.072 500.18 665.176 499.496 665.944C498.812 666.724 497.9 667.108 496.76 667.108C495.368 667.108 494.276 666.52 493.736 665.62L494.6 665.02C495.08 665.692 495.956 666.076 496.904 666.076C497.684 666.076 498.308 665.764 498.8 665.14C499.292 664.528 499.496 663.76 499.436 662.848C499.04 663.76 498.044 664.432 496.712 664.432C495.776 664.432 495.008 664.168 494.408 663.628C493.796 663.1 493.496 662.404 493.496 661.552C493.496 660.616 493.82 659.872 494.468 659.32C495.116 658.768 495.98 658.492 497.048 658.492C499.208 658.492 500.516 660.004 500.516 662.644ZM499.256 661.516C499.076 660.4 498.308 659.524 496.928 659.524C495.488 659.524 494.6 660.268 494.6 661.516C494.6 662.704 495.5 663.4 496.904 663.4C497.54 663.4 498.08 663.208 498.5 662.824C498.92 662.44 499.172 662.008 499.256 661.516Z" fill="#76848D"/>
<path d="M756.996 662.8C756.996 661.504 757.296 660.46 757.908 659.68C758.508 658.9 759.396 658.504 760.56 658.504C762.948 658.504 764.136 660.076 764.136 662.8C764.136 664.108 763.836 665.14 763.248 665.92C762.648 666.7 761.76 667.096 760.584 667.096C759.456 667.096 758.58 666.7 757.944 665.908C757.308 665.116 756.996 664.084 756.996 662.8ZM758.1 662.8C758.1 664.852 759.036 666.076 760.584 666.076C762.216 666.076 763.032 664.984 763.032 662.8C763.032 660.616 762.204 659.524 760.56 659.524C758.892 659.524 758.1 660.724 758.1 662.8ZM772.016 662.644C772.016 664.072 771.68 665.176 770.996 665.944C770.312 666.724 769.4 667.108 768.26 667.108C766.868 667.108 765.776 666.52 765.236 665.62L766.1 665.02C766.58 665.692 767.456 666.076 768.404 666.076C769.184 666.076 769.808 665.764 770.3 665.14C770.792 664.528 770.996 663.76 770.936 662.848C770.54 663.76 769.544 664.432 768.212 664.432C767.276 664.432 766.508 664.168 765.908 663.628C765.296 663.1 764.996 662.404 764.996 661.552C764.996 660.616 765.32 659.872 765.968 659.32C766.616 658.768 767.48 658.492 768.548 658.492C770.708 658.492 772.016 660.004 772.016 662.644ZM770.756 661.516C770.576 660.4 769.808 659.524 768.428 659.524C766.988 659.524 766.1 660.268 766.1 661.516C766.1 662.704 767 663.4 768.404 663.4C769.04 663.4 769.58 663.208 770 662.824C770.42 662.44 770.672 662.008 770.756 661.516Z" fill="#76848D"/>
<path d="M1028.5 662.8C1028.5 661.504 1028.8 660.46 1029.41 659.68C1030.01 658.9 1030.9 658.504 1032.06 658.504C1034.45 658.504 1035.64 660.076 1035.64 662.8C1035.64 664.108 1035.34 665.14 1034.75 665.92C1034.15 666.7 1033.26 667.096 1032.08 667.096C1030.96 667.096 1030.08 666.7 1029.44 665.908C1028.81 665.116 1028.5 664.084 1028.5 662.8ZM1029.6 662.8C1029.6 664.852 1030.54 666.076 1032.08 666.076C1033.72 666.076 1034.53 664.984 1034.53 662.8C1034.53 660.616 1033.7 659.524 1032.06 659.524C1030.39 659.524 1029.6 660.724 1029.6 662.8ZM1043.52 662.644C1043.52 664.072 1043.18 665.176 1042.5 665.944C1041.81 666.724 1040.9 667.108 1039.76 667.108C1038.37 667.108 1037.28 666.52 1036.74 665.62L1037.6 665.02C1038.08 665.692 1038.96 666.076 1039.9 666.076C1040.68 666.076 1041.31 665.764 1041.8 665.14C1042.29 664.528 1042.5 663.76 1042.44 662.848C1042.04 663.76 1041.04 664.432 1039.71 664.432C1038.78 664.432 1038.01 664.168 1037.41 663.628C1036.8 663.1 1036.5 662.404 1036.5 661.552C1036.5 660.616 1036.82 659.872 1037.47 659.32C1038.12 658.768 1038.98 658.492 1040.05 658.492C1042.21 658.492 1043.52 660.004 1043.52 662.644ZM1042.26 661.516C1042.08 660.4 1041.31 659.524 1039.93 659.524C1038.49 659.524 1037.6 660.268 1037.6 661.516C1037.6 662.704 1038.5 663.4 1039.9 663.4C1040.54 663.4 1041.08 663.208 1041.5 662.824C1041.92 662.44 1042.17 662.008 1042.26 661.516Z" fill="#76848D"/>
<path d="M262.746 660.832L262.362 659.932L265.242 658.552H265.926V667H264.894V659.836L262.746 660.832ZM267.36 660.832L266.976 659.932L269.856 658.552H270.54V667H269.508V659.836L267.36 660.832Z" fill="#76848D"/>
<path d="M534.246 660.832L533.862 659.932L536.742 658.552H537.426V667H536.394V659.836L534.246 660.832ZM538.86 660.832L538.476 659.932L541.356 658.552H542.04V667H541.008V659.836L538.86 660.832Z" fill="#76848D"/>
<path d="M805.746 660.832L805.362 659.932L808.242 658.552H808.926V667H807.894V659.836L805.746 660.832ZM810.36 660.832L809.976 659.932L812.856 658.552H813.54V667H812.508V659.836L810.36 660.832Z" fill="#76848D"/>
<path d="M306.131 662.8C306.131 661.504 306.431 660.46 307.043 659.68C307.643 658.9 308.531 658.504 309.695 658.504C312.083 658.504 313.271 660.076 313.271 662.8C313.271 664.108 312.971 665.14 312.383 665.92C311.783 666.7 310.895 667.096 309.719 667.096C308.591 667.096 307.715 666.7 307.079 665.908C306.443 665.116 306.131 664.084 306.131 662.8ZM307.235 662.8C307.235 664.852 308.171 666.076 309.719 666.076C311.351 666.076 312.167 664.984 312.167 662.8C312.167 660.616 311.339 659.524 309.695 659.524C308.027 659.524 307.235 660.724 307.235 662.8ZM314.071 660.832L313.687 659.932L316.567 658.552H317.251V667H316.219V659.836L314.071 660.832ZM299.863 675.372L298.987 675.06C299.287 673.572 300.415 672.504 302.203 672.504C303.931 672.504 304.987 673.5 304.987 675.024C304.987 675.828 304.639 676.632 304.207 677.208C303.991 677.508 303.715 677.796 303.391 678.096C302.731 678.684 302.263 678.996 301.579 679.428L300.655 680.004H305.299V681H298.759V680.184L300.583 678.972C300.907 678.768 301.135 678.612 301.267 678.516C301.399 678.432 301.615 678.276 301.903 678.072C302.191 677.868 302.407 677.688 302.551 677.556C302.683 677.424 302.863 677.256 303.067 677.04C303.619 676.44 303.823 675.888 303.883 675.132C303.883 674.04 303.175 673.548 302.131 673.548C301.483 673.548 300.967 673.728 300.595 674.088C300.223 674.448 299.971 674.88 299.863 675.372ZM306.131 676.8C306.131 675.504 306.431 674.46 307.043 673.68C307.643 672.9 308.531 672.504 309.695 672.504C312.083 672.504 313.271 674.076 313.271 676.8C313.271 678.108 312.971 679.14 312.383 679.92C311.783 680.7 310.895 681.096 309.719 681.096C308.591 681.096 307.715 680.7 307.079 679.908C306.443 679.116 306.131 678.084 306.131 676.8ZM307.235 676.8C307.235 678.852 308.171 680.076 309.719 680.076C311.351 680.076 312.167 678.984 312.167 676.8C312.167 674.616 311.339 673.524 309.695 673.524C308.027 673.524 307.235 674.724 307.235 676.8ZM315.127 675.372L314.251 675.06C314.551 673.572 315.679 672.504 317.467 672.504C319.195 672.504 320.251 673.5 320.251 675.024C320.251 675.828 319.903 676.632 319.471 677.208C319.255 677.508 318.979 677.796 318.655 678.096C317.995 678.684 317.527 678.996 316.843 679.428L315.919 680.004H320.563V681H314.023V680.184L315.847 678.972C316.171 678.768 316.399 678.612 316.531 678.516C316.663 678.432 316.879 678.276 317.167 678.072C317.455 677.868 317.671 677.688 317.815 677.556C317.947 677.424 318.127 677.256 318.331 677.04C318.883 676.44 319.087 675.888 319.147 675.132C319.147 674.04 318.439 673.548 317.395 673.548C316.747 673.548 316.231 673.728 315.859 674.088C315.487 674.448 315.235 674.88 315.127 675.372ZM321.299 674.832L320.915 673.932L323.795 672.552H324.479V681H323.447V673.836L321.299 674.832Z" fill="#76848D"/>
<path d="M578.131 662.8C578.131 661.504 578.431 660.46 579.043 659.68C579.643 658.9 580.531 658.504 581.695 658.504C584.083 658.504 585.271 660.076 585.271 662.8C585.271 664.108 584.971 665.14 584.383 665.92C583.783 666.7 582.895 667.096 581.719 667.096C580.591 667.096 579.715 666.7 579.079 665.908C578.443 665.116 578.131 664.084 578.131 662.8ZM579.235 662.8C579.235 664.852 580.171 666.076 581.719 666.076C583.351 666.076 584.167 664.984 584.167 662.8C584.167 660.616 583.339 659.524 581.695 659.524C580.027 659.524 579.235 660.724 579.235 662.8ZM586.071 660.832L585.687 659.932L588.567 658.552H589.251V667H588.219V659.836L586.071 660.832ZM570.556 675.372L569.68 675.06C569.98 673.572 571.108 672.504 572.896 672.504C574.624 672.504 575.68 673.5 575.68 675.024C575.68 675.828 575.332 676.632 574.9 677.208C574.684 677.508 574.408 677.796 574.084 678.096C573.424 678.684 572.956 678.996 572.272 679.428L571.348 680.004H575.992V681H569.452V680.184L571.276 678.972C571.6 678.768 571.828 678.612 571.96 678.516C572.092 678.432 572.308 678.276 572.596 678.072C572.884 677.868 573.1 677.688 573.244 677.556C573.376 677.424 573.556 677.256 573.76 677.04C574.312 676.44 574.516 675.888 574.576 675.132C574.576 674.04 573.868 673.548 572.824 673.548C572.176 673.548 571.66 673.728 571.288 674.088C570.916 674.448 570.664 674.88 570.556 675.372ZM576.824 676.8C576.824 675.504 577.124 674.46 577.736 673.68C578.336 672.9 579.224 672.504 580.388 672.504C582.776 672.504 583.964 674.076 583.964 676.8C583.964 678.108 583.664 679.14 583.076 679.92C582.476 680.7 581.588 681.096 580.412 681.096C579.284 681.096 578.408 680.7 577.772 679.908C577.136 679.116 576.824 678.084 576.824 676.8ZM577.928 676.8C577.928 678.852 578.864 680.076 580.412 680.076C582.044 680.076 582.86 678.984 582.86 676.8C582.86 674.616 582.032 673.524 580.388 673.524C578.72 673.524 577.928 674.724 577.928 676.8ZM585.82 675.372L584.944 675.06C585.244 673.572 586.372 672.504 588.16 672.504C589.888 672.504 590.944 673.5 590.944 675.024C590.944 675.828 590.596 676.632 590.164 677.208C589.948 677.508 589.672 677.796 589.348 678.096C588.688 678.684 588.22 678.996 587.536 679.428L586.612 680.004H591.256V681H584.716V680.184L586.54 678.972C586.864 678.768 587.092 678.612 587.224 678.516C587.356 678.432 587.572 678.276 587.86 678.072C588.148 677.868 588.364 677.688 588.508 677.556C588.64 677.424 588.82 677.256 589.024 677.04C589.576 676.44 589.78 675.888 589.84 675.132C589.84 674.04 589.132 673.548 588.088 673.548C587.44 673.548 586.924 673.728 586.552 674.088C586.18 674.448 585.928 674.88 585.82 675.372ZM593.048 675.372L592.172 675.06C592.472 673.572 593.6 672.504 595.388 672.504C597.116 672.504 598.172 673.5 598.172 675.024C598.172 675.828 597.824 676.632 597.392 677.208C597.176 677.508 596.9 677.796 596.576 678.096C595.916 678.684 595.448 678.996 594.764 679.428L593.84 680.004H598.484V681H591.944V680.184L593.768 678.972C594.092 678.768 594.32 678.612 594.452 678.516C594.584 678.432 594.8 678.276 595.088 678.072C595.376 677.868 595.592 677.688 595.736 677.556C595.868 677.424 596.048 677.256 596.252 677.04C596.804 676.44 597.008 675.888 597.068 675.132C597.068 674.04 596.36 673.548 595.316 673.548C594.668 673.548 594.152 673.728 593.78 674.088C593.408 674.448 593.156 674.88 593.048 675.372Z" fill="#76848D"/>
<path d="M849.131 662.8C849.131 661.504 849.431 660.46 850.043 659.68C850.643 658.9 851.531 658.504 852.695 658.504C855.083 658.504 856.271 660.076 856.271 662.8C856.271 664.108 855.971 665.14 855.383 665.92C854.783 666.7 853.895 667.096 852.719 667.096C851.591 667.096 850.715 666.7 850.079 665.908C849.443 665.116 849.131 664.084 849.131 662.8ZM850.235 662.8C850.235 664.852 851.171 666.076 852.719 666.076C854.351 666.076 855.167 664.984 855.167 662.8C855.167 660.616 854.339 659.524 852.695 659.524C851.027 659.524 850.235 660.724 850.235 662.8ZM857.071 660.832L856.687 659.932L859.567 658.552H860.251V667H859.219V659.836L857.071 660.832ZM841.527 675.372L840.651 675.06C840.951 673.572 842.079 672.504 843.867 672.504C845.595 672.504 846.651 673.5 846.651 675.024C846.651 675.828 846.303 676.632 845.871 677.208C845.655 677.508 845.379 677.796 845.055 678.096C844.395 678.684 843.927 678.996 843.243 679.428L842.319 680.004H846.963V681H840.423V680.184L842.247 678.972C842.571 678.768 842.799 678.612 842.931 678.516C843.063 678.432 843.279 678.276 843.567 678.072C843.855 677.868 844.071 677.688 844.215 677.556C844.347 677.424 844.527 677.256 844.731 677.04C845.283 676.44 845.487 675.888 845.547 675.132C845.547 674.04 844.839 673.548 843.795 673.548C843.147 673.548 842.631 673.728 842.259 674.088C841.887 674.448 841.635 674.88 841.527 675.372ZM847.795 676.8C847.795 675.504 848.095 674.46 848.707 673.68C849.307 672.9 850.195 672.504 851.359 672.504C853.747 672.504 854.935 674.076 854.935 676.8C854.935 678.108 854.635 679.14 854.047 679.92C853.447 680.7 852.559 681.096 851.383 681.096C850.255 681.096 849.379 680.7 848.743 679.908C848.107 679.116 847.795 678.084 847.795 676.8ZM848.899 676.8C848.899 678.852 849.835 680.076 851.383 680.076C853.015 680.076 853.831 678.984 853.831 676.8C853.831 674.616 853.003 673.524 851.359 673.524C849.691 673.524 848.899 674.724 848.899 676.8ZM856.791 675.372L855.915 675.06C856.215 673.572 857.343 672.504 859.131 672.504C860.859 672.504 861.915 673.5 861.915 675.024C861.915 675.828 861.567 676.632 861.135 677.208C860.919 677.508 860.643 677.796 860.319 678.096C859.659 678.684 859.191 678.996 858.507 679.428L857.583 680.004H862.227V681H855.687V680.184L857.511 678.972C857.835 678.768 858.063 678.612 858.195 678.516C858.327 678.432 858.543 678.276 858.831 678.072C859.119 677.868 859.335 677.688 859.479 677.556C859.611 677.424 859.791 677.256 859.995 677.04C860.547 676.44 860.751 675.888 860.811 675.132C860.811 674.04 860.103 673.548 859.059 673.548C858.411 673.548 857.895 673.728 857.523 674.088C857.151 674.448 856.899 674.88 856.791 675.372ZM863.887 675.048L862.987 674.64C863.431 673.344 864.595 672.492 866.335 672.492C867.163 672.492 867.847 672.684 868.375 673.068C868.903 673.452 869.167 673.968 869.167 674.604C869.167 675.576 868.651 676.296 867.691 676.572C868.615 676.632 869.359 677.328 869.359 678.576C869.359 679.368 869.071 679.992 868.495 680.436C867.919 680.88 867.187 681.108 866.287 681.108C864.451 681.108 863.179 680.232 862.759 678.852L863.731 678.432C864.247 679.524 865.123 680.076 866.359 680.076C867.523 680.076 868.255 679.536 868.255 678.588C868.255 677.664 867.535 677.196 866.095 677.196H865.159V676.2H865.903C867.211 676.2 868.063 675.612 868.063 674.808C868.063 673.98 867.379 673.512 866.287 673.512C865.003 673.512 864.223 674.172 863.887 675.048Z" fill="#76848D"/>
<path d="M1082.25 660.832L1081.86 659.932L1084.74 658.552H1085.43V667H1084.39V659.836L1082.25 660.832ZM1086.86 660.832L1086.48 659.932L1089.36 658.552H1090.04V667H1089.01V659.836L1086.86 660.832Z" fill="#76848D"/>
<path d="M42 412.425L86.9894 360.637L110.734 387.969H133.229L155.723 303.095L179.468 352.006L200.713 303.095L223.207 298.779L245.702 382.215L269.447 412.425L294.441 377.899L316.936 234.045L338.181 1L359.426 308.849L381.92 318.919L404.415 347.69L428.159 356.321L449.404 333.304L471.899 399.478L495.644 385.092L520.638 344.813L540.633 352.006L565.627 340.497L586.872 405.232L608.117 516L631.862 482.913L655.606 478.598L676.851 449.827L700.596 395.162L723.09 425.372L745.585 380.777L788.075 428.249L814.319 419.617L835.564 458.458L859.308 467.089L880.553 262.816L951.787 377.899L970.532 432.564L995.526 369.268L1018.02 416.74L1041.77 344.813L1063.01 357.76L1086.75 354.883L1108 326.112" stroke="#CAD5F0" stroke-width="2" stroke-miterlimit="16" stroke-linecap="round" stroke-linejoin="round"/>
<path d="M44 432.34L63.9906 422.273L88.9788 429.464L112.718 397.825L133.958 348.928L152.699 363.309L181.435 357.557L206.424 363.309L230.162 357.557L252.652 343.175L273.892 317.289L296.381 323.041L312.624 279.897L337.612 231L362.6 268.392L383.84 279.897L403.831 338.861H456.306L503.784 343.175L522.525 353.242L542.515 390.634L565.005 374.814L591.242 415.082L612.482 410.768L631.224 449.598L654.962 476.923H683.699L702.44 468.294L723.68 476.923L748.668 465.418L794.897 484.113L857.367 510L883.605 468.294L924.835 449.598H974.812L994.802 430.902H1023.54L1039.78 420.835L1063.52 417.959L1086.01 390.634L1106 374.814" stroke="#737AF9" stroke-width="2" stroke-miterlimit="16" stroke-linecap="round" stroke-linejoin="round"/>
<path d="M42 434.452L68.2438 397.25L109.484 599L133.229 544.628L175.719 501.702L220.708 461.638L248.202 444.468L270.696 461.638L295.69 444.468L315.686 414.42L335.681 444.468L361.925 362.91L383.17 61L405.665 232.702L429.409 274.197L448.155 334.293L468.15 344.309L491.894 355.755L519.388 380.08L543.132 365.771L570.626 390.096L589.372 423.005H613.116H631.862L654.356 448.761L689.348 435.883L721.841 427.298L758.082 435.883L794.324 461.638L811.819 478.809L859.308 465.931L880.553 435.883L904.298 441.606L930.542 427.298L951.787 423.005L971.782 404.404L990.528 417.282L1014.27 414.42L1033.02 372.926L1043.02 355.755L1063.01 342.878L1085.51 317.122L1108 308.537" stroke="#60CCCC" stroke-width="2" stroke-miterlimit="16" stroke-linecap="round" stroke-linejoin="round"/>
<path d="M42 429.574L70.7433 445.372L91.9883 485.585L111.984 499.947L134.478 462.606L178.218 471.223H210.71L259.449 445.372L271.946 436.755L315.686 369.255L336.931 317.553L360.675 308.936L383.17 240L405.665 341.968L425.66 326.17L474.399 333.351L495.644 356.33L519.388 341.968L540.633 377.872L568.127 386.489L589.372 408.032L609.367 416.649L631.862 494.202L654.356 510L684.349 476.968L701.845 464.043L728.089 471.223L745.585 484.149L768.08 476.968L790.574 498.511L818.068 494.202L854.309 510L884.302 464.043L903.048 412.34L928.042 400.851L949.287 416.649L976.781 413.777L1015.52 377.872L1045.51 373.564L1059.26 377.872H1085.51L1108 364.947" stroke="#4A4CCC" stroke-width="2" stroke-miterlimit="16" stroke-linecap="round" stroke-linejoin="round"/>
<path d="M44 418.122L68.9765 386.469L111.437 562L133.915 518.837L153.897 514.52L188.864 495.816L211.343 485.745L231.324 465.602L268.789 461.286L296.263 454.092L317.493 442.582L338.723 467.041L352.46 390.786L363.7 324.602L383.681 139L404.911 258.418L433.634 284.316L461.108 300.143L496.075 313.092H519.803L542.282 328.918L564.761 300.143L588.488 349.061L609.718 328.918L643.437 349.061L665.915 362.01L702.131 374.959L724.61 382.153L749.587 380.714L768.319 390.786L795.793 415.245L835.756 432.51H860.732L926.92 467.041L951.897 454.092L968.131 426.755L1003.1 432.51L1019.33 426.755H1050.55L1085.52 400.857L1108 397.98" stroke="#2F80DE" stroke-width="2" stroke-miterlimit="16" stroke-linecap="round" stroke-linejoin="round"/>
<path d="M89 474.543L112.709 545L132.675 486.047H156.384L181.341 474.543L200.059 431.407L231.255 394.022L248.725 383.957L271.187 394.022L292.4 383.957L317.357 332.193L338.571 312.062L362.28 238.73L384.741 82L405.955 253.109L428.416 238.73L453.373 264.612L474.587 325.003L498.296 343.696L519.509 388.27L546.962 398.335L568.175 402.649L589.389 441.472L609.355 458.727L631.816 452.975L656.773 467.354H676.739L697.952 444.348L720.414 458.727L747.866 452.975L779.063 471.343H816.498L837.712 493.236L860.173 481.733L882.634 425.655L915.079 432.845L943.779 419.904L968.736 406.963L998.685 402.649L1024.89 394.022L1049.85 375.329L1086.03 365.264L1106 332.193" stroke="#ACAEEA" stroke-width="2" stroke-miterlimit="16" stroke-linecap="round" stroke-linejoin="round"/>
</svg>
