<svg width="1160" height="456" viewBox="0 0 1160 456" fill="none" xmlns="http://www.w3.org/2000/svg">
<rect width="1160" height="456" fill="white"/>
<line x1="57" y1="344.5" x2="1135" y2="344.5" stroke="#CEE0ED"/>
<line x1="57" y1="35.5" x2="1135" y2="35.5002" stroke="#CEE0ED"/>
<line x1="57" y1="79.5" x2="1135" y2="79.5002" stroke="#CEE0ED"/>
<line x1="57" y1="124.5" x2="1135" y2="124.5" stroke="#CEE0ED"/>
<line x1="57" y1="168.5" x2="1135" y2="168.5" stroke="#CEE0ED"/>
<line x1="57" y1="212.5" x2="1135" y2="212.5" stroke="#CEE0ED"/>
<line x1="57" y1="256.5" x2="1135" y2="256.5" stroke="#ABBEC9"/>
<line x1="57" y1="300.5" x2="1135" y2="300.5" stroke="#CEE0ED"/>
<path d="M61 280.734L84.7277 237.121L102.211 290.25L129.685 341L153.413 339.414L175.892 324.348L197.122 315.625H222.099L244.577 305.316L270.803 302.938L287.038 298.973L308.268 283.113L331.995 252.188L356.972 264.875L375.704 232.363L384.446 199.059L399.432 138L424.408 163.375L446.887 175.27L466.869 195.094L490.596 199.059L511.826 206.988H538.052L561.779 219.676L588.005 241.879L631.714 261.703L654.192 263.289L677.92 258.531L707.892 256.152L719.131 258.531L740.361 273.598L769.084 283.113L787.817 286.285L809.047 298.973L832.775 302.938L859 313.246L875.235 321.969L898.962 283.113L927.685 292.629L942.671 298.973H965.15H988.878L1008.86 283.113L1036.33 268.84H1065.06L1083.79 263.289L1101.27 248.223L1125 238.707" stroke="#A0CDF7" stroke-width="2" stroke-miterlimit="16" stroke-linecap="round" stroke-linejoin="round"/>
<path d="M59 267.61L86.4936 273.899L103.989 315.566L126.484 310.063L165.225 312.421L203.966 303.774C208.548 300.629 218.213 294.654 220.212 295.912C222.212 297.17 232.709 300.105 237.708 301.415L286.447 300.629L308.941 273.899H332.686L398.92 200L422.665 236.95L447.659 221.226L467.654 226.73L491.399 221.226L518.892 226.73L538.887 234.591L560.132 236.95L590.125 247.956L617.619 260.535L645.113 295.912H665.108L682.604 288.05H698.85L716.346 293.553L740.09 306.132C748.422 305.346 765.584 304.245 767.584 306.132C769.583 308.019 795.91 316.876 808.824 321.069L830.069 306.132L852.564 325L875.059 317.925L896.304 315.566L920.048 293.553H945.042L967.537 277.044L990.032 266.038L1016.28 260.535L1036.27 269.182L1060.02 266.038L1081.26 251.101L1101.26 263.679L1125 247.956" stroke="#2D6894" stroke-width="2" stroke-miterlimit="16" stroke-linecap="round" stroke-linejoin="round"/>
<path d="M20.1745 36.832L19.7905 35.932L22.6705 34.552H23.3545V43H22.3225V35.836L20.1745 36.832ZM24.8849 38.8C24.8849 37.504 25.1849 36.46 25.7969 35.68C26.3969 34.9 27.2849 34.504 28.4489 34.504C30.8369 34.504 32.0249 36.076 32.0249 38.8C32.0249 40.108 31.7249 41.14 31.1369 41.92C30.5369 42.7 29.6489 43.096 28.4729 43.096C27.3449 43.096 26.4689 42.7 25.8329 41.908C25.1969 41.116 24.8849 40.084 24.8849 38.8ZM25.9889 38.8C25.9889 40.852 26.9249 42.076 28.4729 42.076C30.1049 42.076 30.9209 40.984 30.9209 38.8C30.9209 36.616 30.0929 35.524 28.4489 35.524C26.7809 35.524 25.9889 36.724 25.9889 38.8ZM32.9212 38.8C32.9212 37.504 33.2212 36.46 33.8332 35.68C34.4332 34.9 35.3212 34.504 36.4852 34.504C38.8732 34.504 40.0612 36.076 40.0612 38.8C40.0612 40.108 39.7612 41.14 39.1732 41.92C38.5732 42.7 37.6852 43.096 36.5092 43.096C35.3812 43.096 34.5052 42.7 33.8692 41.908C33.2332 41.116 32.9212 40.084 32.9212 38.8ZM34.0252 38.8C34.0252 40.852 34.9612 42.076 36.5092 42.076C38.1412 42.076 38.9572 40.984 38.9572 38.8C38.9572 36.616 38.1292 35.524 36.4852 35.524C34.8172 35.524 34.0252 36.724 34.0252 38.8ZM43.0454 43.18L42.2534 42.724L48.4574 34.336L49.2134 34.888L43.0454 43.18ZM40.9574 36.616C40.9574 36.016 41.1614 35.524 41.5814 35.14C42.0014 34.756 42.5174 34.564 43.1534 34.564C43.7774 34.564 44.2934 34.756 44.7134 35.14C45.1334 35.524 45.3374 36.016 45.3374 36.616C45.3374 37.204 45.1334 37.696 44.7134 38.08C44.2934 38.464 43.7774 38.656 43.1534 38.656C42.5174 38.656 42.0014 38.464 41.5814 38.08C41.1614 37.696 40.9574 37.204 40.9574 36.616ZM41.9654 36.616C41.9654 37.3 42.5174 37.804 43.1534 37.804C43.8134 37.804 44.3294 37.324 44.3294 36.616C44.3294 35.908 43.7894 35.428 43.1534 35.428C42.4934 35.428 41.9654 35.908 41.9654 36.616ZM46.7294 42.472C46.3094 42.088 46.1054 41.596 46.1054 40.996C46.1054 40.396 46.3094 39.904 46.7294 39.52C47.1494 39.148 47.6654 38.956 48.3014 38.956C48.9254 38.956 49.4414 39.148 49.8614 39.52C50.2814 39.904 50.4854 40.396 50.4854 40.996C50.4854 41.584 50.2814 42.076 49.8614 42.46C49.4414 42.856 48.9254 43.048 48.3014 43.048C47.6654 43.048 47.1494 42.856 46.7294 42.472ZM47.1134 40.996C47.1134 41.68 47.6654 42.184 48.3014 42.184C48.9614 42.184 49.4774 41.704 49.4774 40.996C49.4774 40.288 48.9374 39.808 48.3014 39.808C47.6414 39.808 47.1134 40.288 47.1134 40.996Z" fill="#76848D"/>
<path d="M28.3492 82.212H28.7213C29.2612 82.212 29.7052 82.08 30.0773 81.828C30.4373 81.576 30.6172 81.24 30.6172 80.844C30.6172 79.944 29.9093 79.488 28.5052 79.488C27.1612 79.488 26.4292 79.98 26.4292 80.844C26.4292 81.624 27.2332 82.212 28.3492 82.212ZM28.6973 83.16H28.3972C27.7493 83.16 27.2092 83.304 26.7892 83.58C26.3692 83.856 26.1532 84.204 26.1532 84.624C26.1532 85.536 26.9932 86.112 28.5172 86.112C30.0652 86.112 30.8932 85.56 30.8932 84.636C30.8932 83.712 30.0052 83.16 28.6973 83.16ZM31.0612 86.46C30.4492 86.892 29.5972 87.108 28.5293 87.108C27.4612 87.108 26.6092 86.892 25.9852 86.472C25.3612 86.052 25.0492 85.476 25.0492 84.732C25.0492 83.76 25.6852 82.992 26.7052 82.656C25.7812 82.356 25.3252 81.624 25.3252 80.772C25.3252 79.38 26.5012 78.492 28.5172 78.492C30.5453 78.492 31.7213 79.38 31.7213 80.772C31.7213 81.576 31.2773 82.188 30.3893 82.596C31.4572 82.92 31.9853 83.616 31.9853 84.684C31.9853 85.44 31.6732 86.04 31.0612 86.46ZM32.9212 82.8C32.9212 81.504 33.2212 80.46 33.8332 79.68C34.4332 78.9 35.3212 78.504 36.4852 78.504C38.8732 78.504 40.0612 80.076 40.0612 82.8C40.0612 84.108 39.7612 85.14 39.1732 85.92C38.5732 86.7 37.6852 87.096 36.5092 87.096C35.3812 87.096 34.5052 86.7 33.8692 85.908C33.2332 85.116 32.9212 84.084 32.9212 82.8ZM34.0252 82.8C34.0252 84.852 34.9612 86.076 36.5092 86.076C38.1412 86.076 38.9572 84.984 38.9572 82.8C38.9572 80.616 38.1292 79.524 36.4852 79.524C34.8172 79.524 34.0252 80.724 34.0252 82.8ZM43.0454 87.18L42.2534 86.724L48.4574 78.336L49.2134 78.888L43.0454 87.18ZM40.9574 80.616C40.9574 80.016 41.1614 79.524 41.5814 79.14C42.0014 78.756 42.5174 78.564 43.1534 78.564C43.7774 78.564 44.2934 78.756 44.7134 79.14C45.1334 79.524 45.3374 80.016 45.3374 80.616C45.3374 81.204 45.1334 81.696 44.7134 82.08C44.2934 82.464 43.7774 82.656 43.1534 82.656C42.5174 82.656 42.0014 82.464 41.5814 82.08C41.1614 81.696 40.9574 81.204 40.9574 80.616ZM41.9654 80.616C41.9654 81.3 42.5174 81.804 43.1534 81.804C43.8134 81.804 44.3294 81.324 44.3294 80.616C44.3294 79.908 43.7894 79.428 43.1534 79.428C42.4934 79.428 41.9654 79.908 41.9654 80.616ZM46.7294 86.472C46.3094 86.088 46.1054 85.596 46.1054 84.996C46.1054 84.396 46.3094 83.904 46.7294 83.52C47.1494 83.148 47.6654 82.956 48.3014 82.956C48.9254 82.956 49.4414 83.148 49.8614 83.52C50.2814 83.904 50.4854 84.396 50.4854 84.996C50.4854 85.584 50.2814 86.076 49.8614 86.46C49.4414 86.856 48.9254 87.048 48.3014 87.048C47.6654 87.048 47.1494 86.856 46.7294 86.472ZM47.1134 84.996C47.1134 85.68 47.6654 86.184 48.3014 86.184C48.9614 86.184 49.4774 85.704 49.4774 84.996C49.4774 84.288 48.9374 83.808 48.3014 83.808C47.6414 83.808 47.1134 84.288 47.1134 84.996Z" fill="#76848D"/>
<path d="M25.0607 126.028C25.0607 124.576 25.4207 123.46 26.1287 122.668C26.8367 121.888 27.7247 121.492 28.7927 121.492C30.1967 121.492 31.3007 122.128 31.7687 123.136L30.9527 123.688C30.4607 122.908 29.7287 122.524 28.7447 122.524C28.0007 122.524 27.3767 122.812 26.8727 123.388C26.3687 123.976 26.1167 124.768 26.1287 125.788C26.5967 124.912 27.6887 124.384 28.8887 124.384C29.8607 124.384 30.6407 124.636 31.2047 125.152C31.7687 125.668 32.0567 126.352 32.0567 127.192C32.0567 128.044 31.7447 128.752 31.1087 129.292C30.4727 129.832 29.6807 130.108 28.7327 130.108C26.4647 130.108 25.0607 128.632 25.0607 126.028ZM26.2607 127.048C26.4887 128.236 27.3887 129.076 28.7207 129.076C29.3687 129.076 29.9087 128.908 30.3287 128.56C30.7487 128.224 30.9527 127.78 30.9527 127.24C30.9527 126.052 30.1127 125.416 28.8287 125.416C28.1207 125.416 27.5327 125.584 27.0767 125.92C26.6087 126.256 26.3447 126.628 26.2607 127.048ZM32.9212 125.8C32.9212 124.504 33.2212 123.46 33.8332 122.68C34.4332 121.9 35.3212 121.504 36.4852 121.504C38.8732 121.504 40.0612 123.076 40.0612 125.8C40.0612 127.108 39.7612 128.14 39.1732 128.92C38.5732 129.7 37.6852 130.096 36.5092 130.096C35.3812 130.096 34.5052 129.7 33.8692 128.908C33.2332 128.116 32.9212 127.084 32.9212 125.8ZM34.0252 125.8C34.0252 127.852 34.9612 129.076 36.5092 129.076C38.1412 129.076 38.9572 127.984 38.9572 125.8C38.9572 123.616 38.1292 122.524 36.4852 122.524C34.8172 122.524 34.0252 123.724 34.0252 125.8ZM43.0454 130.18L42.2534 129.724L48.4574 121.336L49.2134 121.888L43.0454 130.18ZM40.9574 123.616C40.9574 123.016 41.1614 122.524 41.5814 122.14C42.0014 121.756 42.5174 121.564 43.1534 121.564C43.7774 121.564 44.2934 121.756 44.7134 122.14C45.1334 122.524 45.3374 123.016 45.3374 123.616C45.3374 124.204 45.1334 124.696 44.7134 125.08C44.2934 125.464 43.7774 125.656 43.1534 125.656C42.5174 125.656 42.0014 125.464 41.5814 125.08C41.1614 124.696 40.9574 124.204 40.9574 123.616ZM41.9654 123.616C41.9654 124.3 42.5174 124.804 43.1534 124.804C43.8134 124.804 44.3294 124.324 44.3294 123.616C44.3294 122.908 43.7894 122.428 43.1534 122.428C42.4934 122.428 41.9654 122.908 41.9654 123.616ZM46.7294 129.472C46.3094 129.088 46.1054 128.596 46.1054 127.996C46.1054 127.396 46.3094 126.904 46.7294 126.52C47.1494 126.148 47.6654 125.956 48.3014 125.956C48.9254 125.956 49.4414 126.148 49.8614 126.52C50.2814 126.904 50.4854 127.396 50.4854 127.996C50.4854 128.584 50.2814 129.076 49.8614 129.46C49.4414 129.856 48.9254 130.048 48.3014 130.048C47.6654 130.048 47.1494 129.856 46.7294 129.472ZM47.1134 127.996C47.1134 128.68 47.6654 129.184 48.3014 129.184C48.9614 129.184 49.4774 128.704 49.4774 127.996C49.4774 127.288 48.9374 126.808 48.3014 126.808C47.6414 126.808 47.1134 127.288 47.1134 127.996Z" fill="#76848D"/>
<path d="M30.7747 175H29.7307V173.284H24.5947V172.588L29.8507 166.6H30.7747V172.312H32.3347V173.284H30.7747V175ZM29.7307 168.28L26.0347 172.312H29.7307V168.28ZM32.9212 170.8C32.9212 169.504 33.2212 168.46 33.8332 167.68C34.4332 166.9 35.3212 166.504 36.4852 166.504C38.8732 166.504 40.0612 168.076 40.0612 170.8C40.0612 172.108 39.7612 173.14 39.1732 173.92C38.5732 174.7 37.6852 175.096 36.5092 175.096C35.3812 175.096 34.5052 174.7 33.8692 173.908C33.2332 173.116 32.9212 172.084 32.9212 170.8ZM34.0252 170.8C34.0252 172.852 34.9612 174.076 36.5092 174.076C38.1412 174.076 38.9572 172.984 38.9572 170.8C38.9572 168.616 38.1292 167.524 36.4852 167.524C34.8172 167.524 34.0252 168.724 34.0252 170.8ZM43.0454 175.18L42.2534 174.724L48.4574 166.336L49.2134 166.888L43.0454 175.18ZM40.9574 168.616C40.9574 168.016 41.1614 167.524 41.5814 167.14C42.0014 166.756 42.5174 166.564 43.1534 166.564C43.7774 166.564 44.2934 166.756 44.7134 167.14C45.1334 167.524 45.3374 168.016 45.3374 168.616C45.3374 169.204 45.1334 169.696 44.7134 170.08C44.2934 170.464 43.7774 170.656 43.1534 170.656C42.5174 170.656 42.0014 170.464 41.5814 170.08C41.1614 169.696 40.9574 169.204 40.9574 168.616ZM41.9654 168.616C41.9654 169.3 42.5174 169.804 43.1534 169.804C43.8134 169.804 44.3294 169.324 44.3294 168.616C44.3294 167.908 43.7894 167.428 43.1534 167.428C42.4934 167.428 41.9654 167.908 41.9654 168.616ZM46.7294 174.472C46.3094 174.088 46.1054 173.596 46.1054 172.996C46.1054 172.396 46.3094 171.904 46.7294 171.52C47.1494 171.148 47.6654 170.956 48.3014 170.956C48.9254 170.956 49.4414 171.148 49.8614 171.52C50.2814 171.904 50.4854 172.396 50.4854 172.996C50.4854 173.584 50.2814 174.076 49.8614 174.46C49.4414 174.856 48.9254 175.048 48.3014 175.048C47.6654 175.048 47.1494 174.856 46.7294 174.472ZM47.1134 172.996C47.1134 173.68 47.6654 174.184 48.3014 174.184C48.9614 174.184 49.4774 173.704 49.4774 172.996C49.4774 172.288 48.9374 171.808 48.3014 171.808C47.6414 171.808 47.1134 172.288 47.1134 172.996Z" fill="#76848D"/>
<path d="M26.6535 212.372L25.7775 212.06C26.0775 210.572 27.2055 209.504 28.9935 209.504C30.7215 209.504 31.7775 210.5 31.7775 212.024C31.7775 212.828 31.4295 213.632 30.9975 214.208C30.7815 214.508 30.5055 214.796 30.1815 215.096C29.5215 215.684 29.0535 215.996 28.3695 216.428L27.4455 217.004H32.0895V218H25.5495V217.184L27.3735 215.972C27.6975 215.768 27.9255 215.612 28.0575 215.516C28.1895 215.432 28.4055 215.276 28.6935 215.072C28.9815 214.868 29.1975 214.688 29.3415 214.556C29.4735 214.424 29.6535 214.256 29.8575 214.04C30.4095 213.44 30.6135 212.888 30.6735 212.132C30.6735 211.04 29.9655 210.548 28.9215 210.548C28.2735 210.548 27.7575 210.728 27.3855 211.088C27.0135 211.448 26.7615 211.88 26.6535 212.372ZM32.9212 213.8C32.9212 212.504 33.2212 211.46 33.8332 210.68C34.4332 209.9 35.3212 209.504 36.4852 209.504C38.8732 209.504 40.0612 211.076 40.0612 213.8C40.0612 215.108 39.7612 216.14 39.1732 216.92C38.5732 217.7 37.6852 218.096 36.5092 218.096C35.3812 218.096 34.5052 217.7 33.8692 216.908C33.2332 216.116 32.9212 215.084 32.9212 213.8ZM34.0252 213.8C34.0252 215.852 34.9612 217.076 36.5092 217.076C38.1412 217.076 38.9572 215.984 38.9572 213.8C38.9572 211.616 38.1292 210.524 36.4852 210.524C34.8172 210.524 34.0252 211.724 34.0252 213.8ZM43.0454 218.18L42.2534 217.724L48.4574 209.336L49.2134 209.888L43.0454 218.18ZM40.9574 211.616C40.9574 211.016 41.1614 210.524 41.5814 210.14C42.0014 209.756 42.5174 209.564 43.1534 209.564C43.7774 209.564 44.2934 209.756 44.7134 210.14C45.1334 210.524 45.3374 211.016 45.3374 211.616C45.3374 212.204 45.1334 212.696 44.7134 213.08C44.2934 213.464 43.7774 213.656 43.1534 213.656C42.5174 213.656 42.0014 213.464 41.5814 213.08C41.1614 212.696 40.9574 212.204 40.9574 211.616ZM41.9654 211.616C41.9654 212.3 42.5174 212.804 43.1534 212.804C43.8134 212.804 44.3294 212.324 44.3294 211.616C44.3294 210.908 43.7894 210.428 43.1534 210.428C42.4934 210.428 41.9654 210.908 41.9654 211.616ZM46.7294 217.472C46.3094 217.088 46.1054 216.596 46.1054 215.996C46.1054 215.396 46.3094 214.904 46.7294 214.52C47.1494 214.148 47.6654 213.956 48.3014 213.956C48.9254 213.956 49.4414 214.148 49.8614 214.52C50.2814 214.904 50.4854 215.396 50.4854 215.996C50.4854 216.584 50.2814 217.076 49.8614 217.46C49.4414 217.856 48.9254 218.048 48.3014 218.048C47.6654 218.048 47.1494 217.856 46.7294 217.472ZM47.1134 215.996C47.1134 216.68 47.6654 217.184 48.3014 217.184C48.9614 217.184 49.4774 216.704 49.4774 215.996C49.4774 215.288 48.9374 214.808 48.3014 214.808C47.6414 214.808 47.1134 215.288 47.1134 215.996Z" fill="#76848D"/>
<path d="M32.9212 257.8C32.9212 256.504 33.2212 255.46 33.8332 254.68C34.4332 253.9 35.3212 253.504 36.4852 253.504C38.8732 253.504 40.0612 255.076 40.0612 257.8C40.0612 259.108 39.7612 260.14 39.1732 260.92C38.5732 261.7 37.6852 262.096 36.5092 262.096C35.3812 262.096 34.5052 261.7 33.8692 260.908C33.2332 260.116 32.9212 259.084 32.9212 257.8ZM34.0252 257.8C34.0252 259.852 34.9612 261.076 36.5092 261.076C38.1412 261.076 38.9572 259.984 38.9572 257.8C38.9572 255.616 38.1292 254.524 36.4852 254.524C34.8172 254.524 34.0252 255.724 34.0252 257.8ZM43.0454 262.18L42.2534 261.724L48.4574 253.336L49.2134 253.888L43.0454 262.18ZM40.9574 255.616C40.9574 255.016 41.1614 254.524 41.5814 254.14C42.0014 253.756 42.5174 253.564 43.1534 253.564C43.7774 253.564 44.2934 253.756 44.7134 254.14C45.1334 254.524 45.3374 255.016 45.3374 255.616C45.3374 256.204 45.1334 256.696 44.7134 257.08C44.2934 257.464 43.7774 257.656 43.1534 257.656C42.5174 257.656 42.0014 257.464 41.5814 257.08C41.1614 256.696 40.9574 256.204 40.9574 255.616ZM41.9654 255.616C41.9654 256.3 42.5174 256.804 43.1534 256.804C43.8134 256.804 44.3294 256.324 44.3294 255.616C44.3294 254.908 43.7894 254.428 43.1534 254.428C42.4934 254.428 41.9654 254.908 41.9654 255.616ZM46.7294 261.472C46.3094 261.088 46.1054 260.596 46.1054 259.996C46.1054 259.396 46.3094 258.904 46.7294 258.52C47.1494 258.148 47.6654 257.956 48.3014 257.956C48.9254 257.956 49.4414 258.148 49.8614 258.52C50.2814 258.904 50.4854 259.396 50.4854 259.996C50.4854 260.584 50.2814 261.076 49.8614 261.46C49.4414 261.856 48.9254 262.048 48.3014 262.048C47.6654 262.048 47.1494 261.856 46.7294 261.472ZM47.1134 259.996C47.1134 260.68 47.6654 261.184 48.3014 261.184C48.9614 261.184 49.4774 260.704 49.4774 259.996C49.4774 259.288 48.9374 258.808 48.3014 258.808C47.6414 258.808 47.1134 259.288 47.1134 259.996Z" fill="#76848D"/>
<path d="M24.6234 302.136H19.0554V301.236H24.6234V302.136ZM26.6535 300.372L25.7775 300.06C26.0775 298.572 27.2055 297.504 28.9935 297.504C30.7215 297.504 31.7775 298.5 31.7775 300.024C31.7775 300.828 31.4295 301.632 30.9975 302.208C30.7815 302.508 30.5055 302.796 30.1815 303.096C29.5215 303.684 29.0535 303.996 28.3695 304.428L27.4455 305.004H32.0895V306H25.5495V305.184L27.3735 303.972C27.6975 303.768 27.9255 303.612 28.0575 303.516C28.1895 303.432 28.4055 303.276 28.6935 303.072C28.9815 302.868 29.1975 302.688 29.3415 302.556C29.4735 302.424 29.6535 302.256 29.8575 302.04C30.4095 301.44 30.6135 300.888 30.6735 300.132C30.6735 299.04 29.9655 298.548 28.9215 298.548C28.2735 298.548 27.7575 298.728 27.3855 299.088C27.0135 299.448 26.7615 299.88 26.6535 300.372ZM32.9212 301.8C32.9212 300.504 33.2212 299.46 33.8332 298.68C34.4332 297.9 35.3212 297.504 36.4852 297.504C38.8732 297.504 40.0612 299.076 40.0612 301.8C40.0612 303.108 39.7612 304.14 39.1732 304.92C38.5732 305.7 37.6852 306.096 36.5092 306.096C35.3812 306.096 34.5052 305.7 33.8692 304.908C33.2332 304.116 32.9212 303.084 32.9212 301.8ZM34.0252 301.8C34.0252 303.852 34.9612 305.076 36.5092 305.076C38.1412 305.076 38.9572 303.984 38.9572 301.8C38.9572 299.616 38.1292 298.524 36.4852 298.524C34.8172 298.524 34.0252 299.724 34.0252 301.8ZM43.0454 306.18L42.2534 305.724L48.4574 297.336L49.2134 297.888L43.0454 306.18ZM40.9574 299.616C40.9574 299.016 41.1614 298.524 41.5814 298.14C42.0014 297.756 42.5174 297.564 43.1534 297.564C43.7774 297.564 44.2934 297.756 44.7134 298.14C45.1334 298.524 45.3374 299.016 45.3374 299.616C45.3374 300.204 45.1334 300.696 44.7134 301.08C44.2934 301.464 43.7774 301.656 43.1534 301.656C42.5174 301.656 42.0014 301.464 41.5814 301.08C41.1614 300.696 40.9574 300.204 40.9574 299.616ZM41.9654 299.616C41.9654 300.3 42.5174 300.804 43.1534 300.804C43.8134 300.804 44.3294 300.324 44.3294 299.616C44.3294 298.908 43.7894 298.428 43.1534 298.428C42.4934 298.428 41.9654 298.908 41.9654 299.616ZM46.7294 305.472C46.3094 305.088 46.1054 304.596 46.1054 303.996C46.1054 303.396 46.3094 302.904 46.7294 302.52C47.1494 302.148 47.6654 301.956 48.3014 301.956C48.9254 301.956 49.4414 302.148 49.8614 302.52C50.2814 302.904 50.4854 303.396 50.4854 303.996C50.4854 304.584 50.2814 305.076 49.8614 305.46C49.4414 305.856 48.9254 306.048 48.3014 306.048C47.6654 306.048 47.1494 305.856 46.7294 305.472ZM47.1134 303.996C47.1134 304.68 47.6654 305.184 48.3014 305.184C48.9614 305.184 49.4774 304.704 49.4774 303.996C49.4774 303.288 48.9374 302.808 48.3014 302.808C47.6414 302.808 47.1134 303.288 47.1134 303.996Z" fill="#76848D"/>
<path d="M23.9086 347.136H18.3406V346.236H23.9086V347.136ZM30.7747 351H29.7307V349.284H24.5947V348.588L29.8507 342.6H30.7747V348.312H32.3347V349.284H30.7747V351ZM29.7307 344.28L26.0347 348.312H29.7307V344.28ZM32.9212 346.8C32.9212 345.504 33.2212 344.46 33.8332 343.68C34.4332 342.9 35.3212 342.504 36.4852 342.504C38.8732 342.504 40.0612 344.076 40.0612 346.8C40.0612 348.108 39.7612 349.14 39.1732 349.92C38.5732 350.7 37.6852 351.096 36.5092 351.096C35.3812 351.096 34.5052 350.7 33.8692 349.908C33.2332 349.116 32.9212 348.084 32.9212 346.8ZM34.0252 346.8C34.0252 348.852 34.9612 350.076 36.5092 350.076C38.1412 350.076 38.9572 348.984 38.9572 346.8C38.9572 344.616 38.1292 343.524 36.4852 343.524C34.8172 343.524 34.0252 344.724 34.0252 346.8ZM43.0454 351.18L42.2534 350.724L48.4574 342.336L49.2134 342.888L43.0454 351.18ZM40.9574 344.616C40.9574 344.016 41.1614 343.524 41.5814 343.14C42.0014 342.756 42.5174 342.564 43.1534 342.564C43.7774 342.564 44.2934 342.756 44.7134 343.14C45.1334 343.524 45.3374 344.016 45.3374 344.616C45.3374 345.204 45.1334 345.696 44.7134 346.08C44.2934 346.464 43.7774 346.656 43.1534 346.656C42.5174 346.656 42.0014 346.464 41.5814 346.08C41.1614 345.696 40.9574 345.204 40.9574 344.616ZM41.9654 344.616C41.9654 345.3 42.5174 345.804 43.1534 345.804C43.8134 345.804 44.3294 345.324 44.3294 344.616C44.3294 343.908 43.7894 343.428 43.1534 343.428C42.4934 343.428 41.9654 343.908 41.9654 344.616ZM46.7294 350.472C46.3094 350.088 46.1054 349.596 46.1054 348.996C46.1054 348.396 46.3094 347.904 46.7294 347.52C47.1494 347.148 47.6654 346.956 48.3014 346.956C48.9254 346.956 49.4414 347.148 49.8614 347.52C50.2814 347.904 50.4854 348.396 50.4854 348.996C50.4854 349.584 50.2814 350.076 49.8614 350.46C49.4414 350.856 48.9254 351.048 48.3014 351.048C47.6654 351.048 47.1494 350.856 46.7294 350.472ZM47.1134 348.996C47.1134 349.68 47.6654 350.184 48.3014 350.184C48.9614 350.184 49.4774 349.704 49.4774 348.996C49.4774 348.288 48.9374 347.808 48.3014 347.808C47.6414 347.808 47.1134 348.288 47.1134 348.996Z" fill="#76848D"/>
<line x1="22" y1="389.5" x2="1135" y2="389.5" stroke="#CEE0ED"/>
<path d="M52.1307 401.8C52.1307 400.504 52.4307 399.46 53.0427 398.68C53.6427 397.9 54.5307 397.504 55.6947 397.504C58.0827 397.504 59.2707 399.076 59.2707 401.8C59.2707 403.108 58.9707 404.14 58.3827 404.92C57.7827 405.7 56.8947 406.096 55.7187 406.096C54.5907 406.096 53.7147 405.7 53.0787 404.908C52.4427 404.116 52.1307 403.084 52.1307 401.8ZM53.2347 401.8C53.2347 403.852 54.1707 405.076 55.7187 405.076C57.3507 405.076 58.1667 403.984 58.1667 401.8C58.1667 399.616 57.3387 398.524 55.6947 398.524C54.0267 398.524 53.2347 399.724 53.2347 401.8ZM60.0709 399.832L59.6869 398.932L62.5669 397.552H63.2509V406H62.2189V398.836L60.0709 399.832ZM44.1521 414.372L43.2761 414.06C43.5761 412.572 44.7041 411.504 46.4921 411.504C48.2201 411.504 49.2761 412.5 49.2761 414.024C49.2761 414.828 48.9281 415.632 48.4961 416.208C48.2801 416.508 48.0041 416.796 47.6801 417.096C47.0201 417.684 46.5521 417.996 45.8681 418.428L44.9441 419.004H49.5881V420H43.0481V419.184L44.8721 417.972C45.1961 417.768 45.4241 417.612 45.5561 417.516C45.6881 417.432 45.9041 417.276 46.1921 417.072C46.4801 416.868 46.6961 416.688 46.8401 416.556C46.9721 416.424 47.1521 416.256 47.3561 416.04C47.9081 415.44 48.1121 414.888 48.1721 414.132C48.1721 413.04 47.4641 412.548 46.4201 412.548C45.7721 412.548 45.2561 412.728 44.8841 413.088C44.5121 413.448 44.2601 413.88 44.1521 414.372ZM50.4198 415.8C50.4198 414.504 50.7198 413.46 51.3318 412.68C51.9318 411.9 52.8198 411.504 53.9838 411.504C56.3718 411.504 57.5598 413.076 57.5598 415.8C57.5598 417.108 57.2598 418.14 56.6718 418.92C56.0718 419.7 55.1838 420.096 54.0078 420.096C52.8798 420.096 52.0038 419.7 51.3678 418.908C50.7318 418.116 50.4198 417.084 50.4198 415.8ZM51.5238 415.8C51.5238 417.852 52.4598 419.076 54.0078 419.076C55.6398 419.076 56.4558 417.984 56.4558 415.8C56.4558 413.616 55.6278 412.524 53.9838 412.524C52.3158 412.524 51.5238 413.724 51.5238 415.8ZM59.416 414.372L58.54 414.06C58.84 412.572 59.968 411.504 61.756 411.504C63.484 411.504 64.54 412.5 64.54 414.024C64.54 414.828 64.192 415.632 63.76 416.208C63.544 416.508 63.268 416.796 62.944 417.096C62.284 417.684 61.816 417.996 61.132 418.428L60.208 419.004H64.852V420H58.312V419.184L60.136 417.972C60.46 417.768 60.688 417.612 60.82 417.516C60.952 417.432 61.168 417.276 61.456 417.072C61.744 416.868 61.96 416.688 62.104 416.556C62.236 416.424 62.416 416.256 62.62 416.04C63.172 415.44 63.376 414.888 63.436 414.132C63.436 413.04 62.728 412.548 61.684 412.548C61.036 412.548 60.52 412.728 60.148 413.088C59.776 413.448 59.524 413.88 59.416 414.372ZM65.6837 415.8C65.6837 414.504 65.9837 413.46 66.5957 412.68C67.1957 411.9 68.0837 411.504 69.2477 411.504C71.6357 411.504 72.8237 413.076 72.8237 415.8C72.8237 417.108 72.5237 418.14 71.9357 418.92C71.3357 419.7 70.4477 420.096 69.2717 420.096C68.1437 420.096 67.2677 419.7 66.6317 418.908C65.9957 418.116 65.6837 417.084 65.6837 415.8ZM66.7877 415.8C66.7877 417.852 67.7237 419.076 69.2717 419.076C70.9037 419.076 71.7197 417.984 71.7197 415.8C71.7197 413.616 70.8917 412.524 69.2477 412.524C67.5797 412.524 66.7877 413.724 66.7877 415.8Z" fill="#76848D"/>
<path d="M95.7947 401.8C95.7947 400.504 96.0947 399.46 96.7067 398.68C97.3067 397.9 98.1947 397.504 99.3587 397.504C101.747 397.504 102.935 399.076 102.935 401.8C102.935 403.108 102.635 404.14 102.047 404.92C101.447 405.7 100.559 406.096 99.3827 406.096C98.2547 406.096 97.3787 405.7 96.7427 404.908C96.1067 404.116 95.7947 403.084 95.7947 401.8ZM96.8987 401.8C96.8987 403.852 97.8347 405.076 99.3827 405.076C101.015 405.076 101.831 403.984 101.831 401.8C101.831 399.616 101.003 398.524 99.3587 398.524C97.6907 398.524 96.8987 399.724 96.8987 401.8ZM104.659 400.048L103.759 399.64C104.203 398.344 105.367 397.492 107.107 397.492C107.935 397.492 108.619 397.684 109.147 398.068C109.675 398.452 109.939 398.968 109.939 399.604C109.939 400.576 109.423 401.296 108.463 401.572C109.387 401.632 110.131 402.328 110.131 403.576C110.131 404.368 109.843 404.992 109.267 405.436C108.691 405.88 107.959 406.108 107.059 406.108C105.223 406.108 103.951 405.232 103.531 403.852L104.503 403.432C105.019 404.524 105.895 405.076 107.131 405.076C108.295 405.076 109.027 404.536 109.027 403.588C109.027 402.664 108.307 402.196 106.867 402.196H105.931V401.2H106.675C107.983 401.2 108.835 400.612 108.835 399.808C108.835 398.98 108.151 398.512 107.059 398.512C105.775 398.512 104.995 399.172 104.659 400.048Z" fill="#76848D"/>
<path d="M367.795 401.8C367.795 400.504 368.095 399.46 368.707 398.68C369.307 397.9 370.195 397.504 371.359 397.504C373.747 397.504 374.935 399.076 374.935 401.8C374.935 403.108 374.635 404.14 374.047 404.92C373.447 405.7 372.559 406.096 371.383 406.096C370.255 406.096 369.379 405.7 368.743 404.908C368.107 404.116 367.795 403.084 367.795 401.8ZM368.899 401.8C368.899 403.852 369.835 405.076 371.383 405.076C373.015 405.076 373.831 403.984 373.831 401.8C373.831 399.616 373.003 398.524 371.359 398.524C369.691 398.524 368.899 399.724 368.899 401.8ZM376.659 400.048L375.759 399.64C376.203 398.344 377.367 397.492 379.107 397.492C379.935 397.492 380.619 397.684 381.147 398.068C381.675 398.452 381.939 398.968 381.939 399.604C381.939 400.576 381.423 401.296 380.463 401.572C381.387 401.632 382.131 402.328 382.131 403.576C382.131 404.368 381.843 404.992 381.267 405.436C380.691 405.88 379.959 406.108 379.059 406.108C377.223 406.108 375.951 405.232 375.531 403.852L376.503 403.432C377.019 404.524 377.895 405.076 379.131 405.076C380.295 405.076 381.027 404.536 381.027 403.588C381.027 402.664 380.307 402.196 378.867 402.196H377.931V401.2H378.675C379.983 401.2 380.835 400.612 380.835 399.808C380.835 398.98 380.151 398.512 379.059 398.512C377.775 398.512 376.995 399.172 376.659 400.048Z" fill="#76848D"/>
<path d="M638.795 401.8C638.795 400.504 639.095 399.46 639.707 398.68C640.307 397.9 641.195 397.504 642.359 397.504C644.747 397.504 645.935 399.076 645.935 401.8C645.935 403.108 645.635 404.14 645.047 404.92C644.447 405.7 643.559 406.096 642.383 406.096C641.255 406.096 640.379 405.7 639.743 404.908C639.107 404.116 638.795 403.084 638.795 401.8ZM639.899 401.8C639.899 403.852 640.835 405.076 642.383 405.076C644.015 405.076 644.831 403.984 644.831 401.8C644.831 399.616 644.003 398.524 642.359 398.524C640.691 398.524 639.899 399.724 639.899 401.8ZM647.659 400.048L646.759 399.64C647.203 398.344 648.367 397.492 650.107 397.492C650.935 397.492 651.619 397.684 652.147 398.068C652.675 398.452 652.939 398.968 652.939 399.604C652.939 400.576 652.423 401.296 651.463 401.572C652.387 401.632 653.131 402.328 653.131 403.576C653.131 404.368 652.843 404.992 652.267 405.436C651.691 405.88 650.959 406.108 650.059 406.108C648.223 406.108 646.951 405.232 646.531 403.852L647.503 403.432C648.019 404.524 648.895 405.076 650.131 405.076C651.295 405.076 652.027 404.536 652.027 403.588C652.027 402.664 651.307 402.196 649.867 402.196H648.931V401.2H649.675C650.983 401.2 651.835 400.612 651.835 399.808C651.835 398.98 651.151 398.512 650.059 398.512C648.775 398.512 647.995 399.172 647.659 400.048Z" fill="#76848D"/>
<path d="M909.795 401.8C909.795 400.504 910.095 399.46 910.707 398.68C911.307 397.9 912.195 397.504 913.359 397.504C915.747 397.504 916.935 399.076 916.935 401.8C916.935 403.108 916.635 404.14 916.047 404.92C915.447 405.7 914.559 406.096 913.383 406.096C912.255 406.096 911.379 405.7 910.743 404.908C910.107 404.116 909.795 403.084 909.795 401.8ZM910.899 401.8C910.899 403.852 911.835 405.076 913.383 405.076C915.015 405.076 915.831 403.984 915.831 401.8C915.831 399.616 915.003 398.524 913.359 398.524C911.691 398.524 910.899 399.724 910.899 401.8ZM918.659 400.048L917.759 399.64C918.203 398.344 919.367 397.492 921.107 397.492C921.935 397.492 922.619 397.684 923.147 398.068C923.675 398.452 923.939 398.968 923.939 399.604C923.939 400.576 923.423 401.296 922.463 401.572C923.387 401.632 924.131 402.328 924.131 403.576C924.131 404.368 923.843 404.992 923.267 405.436C922.691 405.88 921.959 406.108 921.059 406.108C919.223 406.108 917.951 405.232 917.531 403.852L918.503 403.432C919.019 404.524 919.895 405.076 921.131 405.076C922.295 405.076 923.027 404.536 923.027 403.588C923.027 402.664 922.307 402.196 920.867 402.196H919.931V401.2H920.675C921.983 401.2 922.835 400.612 922.835 399.808C922.835 398.98 922.151 398.512 921.059 398.512C919.775 398.512 918.995 399.172 918.659 400.048Z" fill="#76848D"/>
<path d="M141.224 401.8C141.224 400.504 141.524 399.46 142.136 398.68C142.736 397.9 143.624 397.504 144.788 397.504C147.176 397.504 148.364 399.076 148.364 401.8C148.364 403.108 148.064 404.14 147.476 404.92C146.876 405.7 145.988 406.096 144.812 406.096C143.684 406.096 142.808 405.7 142.172 404.908C141.536 404.116 141.224 403.084 141.224 401.8ZM142.328 401.8C142.328 403.852 143.264 405.076 144.812 405.076C146.444 405.076 147.26 403.984 147.26 401.8C147.26 399.616 146.432 398.524 144.788 398.524C143.12 398.524 142.328 399.724 142.328 401.8ZM150.485 402.136L149.621 401.908L150.113 397.6H155.393V398.62H151.037L150.725 400.876C151.145 400.564 151.781 400.408 152.633 400.408C153.617 400.408 154.385 400.672 154.949 401.188C155.501 401.716 155.777 402.388 155.777 403.216C155.777 404.044 155.465 404.74 154.853 405.28C154.229 405.832 153.449 406.108 152.525 406.108C150.953 406.108 149.645 405.364 149.105 404.056L150.065 403.648C150.413 404.452 151.313 405.088 152.525 405.088C153.905 405.088 154.673 404.296 154.673 403.252C154.673 402.136 153.773 401.416 152.345 401.416C151.577 401.416 150.953 401.656 150.485 402.136Z" fill="#76848D"/>
<path d="M412.724 401.8C412.724 400.504 413.024 399.46 413.636 398.68C414.236 397.9 415.124 397.504 416.288 397.504C418.676 397.504 419.864 399.076 419.864 401.8C419.864 403.108 419.564 404.14 418.976 404.92C418.376 405.7 417.488 406.096 416.312 406.096C415.184 406.096 414.308 405.7 413.672 404.908C413.036 404.116 412.724 403.084 412.724 401.8ZM413.828 401.8C413.828 403.852 414.764 405.076 416.312 405.076C417.944 405.076 418.76 403.984 418.76 401.8C418.76 399.616 417.932 398.524 416.288 398.524C414.62 398.524 413.828 399.724 413.828 401.8ZM421.985 402.136L421.121 401.908L421.613 397.6H426.893V398.62H422.537L422.225 400.876C422.645 400.564 423.281 400.408 424.133 400.408C425.117 400.408 425.885 400.672 426.449 401.188C427.001 401.716 427.277 402.388 427.277 403.216C427.277 404.044 426.965 404.74 426.353 405.28C425.729 405.832 424.949 406.108 424.025 406.108C422.453 406.108 421.145 405.364 420.605 404.056L421.565 403.648C421.913 404.452 422.813 405.088 424.025 405.088C425.405 405.088 426.173 404.296 426.173 403.252C426.173 402.136 425.273 401.416 423.845 401.416C423.077 401.416 422.453 401.656 421.985 402.136Z" fill="#76848D"/>
<path d="M683.724 401.8C683.724 400.504 684.024 399.46 684.636 398.68C685.236 397.9 686.124 397.504 687.288 397.504C689.676 397.504 690.864 399.076 690.864 401.8C690.864 403.108 690.564 404.14 689.976 404.92C689.376 405.7 688.488 406.096 687.312 406.096C686.184 406.096 685.308 405.7 684.672 404.908C684.036 404.116 683.724 403.084 683.724 401.8ZM684.828 401.8C684.828 403.852 685.764 405.076 687.312 405.076C688.944 405.076 689.76 403.984 689.76 401.8C689.76 399.616 688.932 398.524 687.288 398.524C685.62 398.524 684.828 399.724 684.828 401.8ZM692.985 402.136L692.121 401.908L692.613 397.6H697.893V398.62H693.537L693.225 400.876C693.645 400.564 694.281 400.408 695.133 400.408C696.117 400.408 696.885 400.672 697.449 401.188C698.001 401.716 698.277 402.388 698.277 403.216C698.277 404.044 697.965 404.74 697.353 405.28C696.729 405.832 695.949 406.108 695.025 406.108C693.453 406.108 692.145 405.364 691.605 404.056L692.565 403.648C692.913 404.452 693.813 405.088 695.025 405.088C696.405 405.088 697.173 404.296 697.173 403.252C697.173 402.136 696.273 401.416 694.845 401.416C694.077 401.416 693.453 401.656 692.985 402.136Z" fill="#76848D"/>
<path d="M955.224 401.8C955.224 400.504 955.524 399.46 956.136 398.68C956.736 397.9 957.624 397.504 958.788 397.504C961.176 397.504 962.364 399.076 962.364 401.8C962.364 403.108 962.064 404.14 961.476 404.92C960.876 405.7 959.988 406.096 958.812 406.096C957.684 406.096 956.808 405.7 956.172 404.908C955.536 404.116 955.224 403.084 955.224 401.8ZM956.328 401.8C956.328 403.852 957.264 405.076 958.812 405.076C960.444 405.076 961.26 403.984 961.26 401.8C961.26 399.616 960.432 398.524 958.788 398.524C957.12 398.524 956.328 399.724 956.328 401.8ZM964.485 402.136L963.621 401.908L964.113 397.6H969.393V398.62H965.037L964.725 400.876C965.145 400.564 965.781 400.408 966.633 400.408C967.617 400.408 968.385 400.672 968.949 401.188C969.501 401.716 969.777 402.388 969.777 403.216C969.777 404.044 969.465 404.74 968.853 405.28C968.229 405.832 967.449 406.108 966.525 406.108C964.953 406.108 963.645 405.364 963.105 404.056L964.065 403.648C964.413 404.452 965.313 405.088 966.525 405.088C967.905 405.088 968.673 404.296 968.673 403.252C968.673 402.136 967.773 401.416 966.345 401.416C965.577 401.416 964.953 401.656 964.485 402.136Z" fill="#76848D"/>
<path d="M187.07 401.8C187.07 400.504 187.37 399.46 187.982 398.68C188.582 397.9 189.47 397.504 190.634 397.504C193.022 397.504 194.21 399.076 194.21 401.8C194.21 403.108 193.91 404.14 193.322 404.92C192.722 405.7 191.834 406.096 190.658 406.096C189.53 406.096 188.654 405.7 188.018 404.908C187.382 404.116 187.07 403.084 187.07 401.8ZM188.174 401.8C188.174 403.852 189.11 405.076 190.658 405.076C192.29 405.076 193.106 403.984 193.106 401.8C193.106 399.616 192.278 398.524 190.634 398.524C188.966 398.524 188.174 399.724 188.174 401.8ZM199.918 398.62H194.83V397.6H201.202V398.284L197.026 406H195.886L199.918 398.62Z" fill="#76848D"/>
<path d="M458.07 401.8C458.07 400.504 458.37 399.46 458.982 398.68C459.582 397.9 460.47 397.504 461.634 397.504C464.022 397.504 465.21 399.076 465.21 401.8C465.21 403.108 464.91 404.14 464.322 404.92C463.722 405.7 462.834 406.096 461.658 406.096C460.53 406.096 459.654 405.7 459.018 404.908C458.382 404.116 458.07 403.084 458.07 401.8ZM459.174 401.8C459.174 403.852 460.11 405.076 461.658 405.076C463.29 405.076 464.106 403.984 464.106 401.8C464.106 399.616 463.278 398.524 461.634 398.524C459.966 398.524 459.174 399.724 459.174 401.8ZM470.918 398.62H465.83V397.6H472.202V398.284L468.026 406H466.886L470.918 398.62Z" fill="#76848D"/>
<path d="M729.07 401.8C729.07 400.504 729.37 399.46 729.982 398.68C730.582 397.9 731.47 397.504 732.634 397.504C735.022 397.504 736.21 399.076 736.21 401.8C736.21 403.108 735.91 404.14 735.322 404.92C734.722 405.7 733.834 406.096 732.658 406.096C731.53 406.096 730.654 405.7 730.018 404.908C729.382 404.116 729.07 403.084 729.07 401.8ZM730.174 401.8C730.174 403.852 731.11 405.076 732.658 405.076C734.29 405.076 735.106 403.984 735.106 401.8C735.106 399.616 734.278 398.524 732.634 398.524C730.966 398.524 730.174 399.724 730.174 401.8ZM741.918 398.62H736.83V397.6H743.202V398.284L739.026 406H737.886L741.918 398.62Z" fill="#76848D"/>
<path d="M1001.07 401.8C1001.07 400.504 1001.37 399.46 1001.98 398.68C1002.58 397.9 1003.47 397.504 1004.63 397.504C1007.02 397.504 1008.21 399.076 1008.21 401.8C1008.21 403.108 1007.91 404.14 1007.32 404.92C1006.72 405.7 1005.83 406.096 1004.66 406.096C1003.53 406.096 1002.65 405.7 1002.02 404.908C1001.38 404.116 1001.07 403.084 1001.07 401.8ZM1002.17 401.8C1002.17 403.852 1003.11 405.076 1004.66 405.076C1006.29 405.076 1007.11 403.984 1007.11 401.8C1007.11 399.616 1006.28 398.524 1004.63 398.524C1002.97 398.524 1002.17 399.724 1002.17 401.8ZM1013.92 398.62H1008.83V397.6H1015.2V398.284L1011.03 406H1009.89L1013.92 398.62Z" fill="#76848D"/>
<path d="M231.496 401.8C231.496 400.504 231.796 399.46 232.408 398.68C233.008 397.9 233.896 397.504 235.06 397.504C237.448 397.504 238.636 399.076 238.636 401.8C238.636 403.108 238.336 404.14 237.748 404.92C237.148 405.7 236.26 406.096 235.084 406.096C233.956 406.096 233.08 405.7 232.444 404.908C231.808 404.116 231.496 403.084 231.496 401.8ZM232.6 401.8C232.6 403.852 233.536 405.076 235.084 405.076C236.716 405.076 237.532 403.984 237.532 401.8C237.532 399.616 236.704 398.524 235.06 398.524C233.392 398.524 232.6 399.724 232.6 401.8ZM246.516 401.644C246.516 403.072 246.18 404.176 245.496 404.944C244.812 405.724 243.9 406.108 242.76 406.108C241.368 406.108 240.276 405.52 239.736 404.62L240.6 404.02C241.08 404.692 241.956 405.076 242.904 405.076C243.684 405.076 244.308 404.764 244.8 404.14C245.292 403.528 245.496 402.76 245.436 401.848C245.04 402.76 244.044 403.432 242.712 403.432C241.776 403.432 241.008 403.168 240.408 402.628C239.796 402.1 239.496 401.404 239.496 400.552C239.496 399.616 239.82 398.872 240.468 398.32C241.116 397.768 241.98 397.492 243.048 397.492C245.208 397.492 246.516 399.004 246.516 401.644ZM245.256 400.516C245.076 399.4 244.308 398.524 242.928 398.524C241.488 398.524 240.6 399.268 240.6 400.516C240.6 401.704 241.5 402.4 242.904 402.4C243.54 402.4 244.08 402.208 244.5 401.824C244.92 401.44 245.172 401.008 245.256 400.516Z" fill="#76848D"/>
<path d="M502.496 401.8C502.496 400.504 502.796 399.46 503.408 398.68C504.008 397.9 504.896 397.504 506.06 397.504C508.448 397.504 509.636 399.076 509.636 401.8C509.636 403.108 509.336 404.14 508.748 404.92C508.148 405.7 507.26 406.096 506.084 406.096C504.956 406.096 504.08 405.7 503.444 404.908C502.808 404.116 502.496 403.084 502.496 401.8ZM503.6 401.8C503.6 403.852 504.536 405.076 506.084 405.076C507.716 405.076 508.532 403.984 508.532 401.8C508.532 399.616 507.704 398.524 506.06 398.524C504.392 398.524 503.6 399.724 503.6 401.8ZM517.516 401.644C517.516 403.072 517.18 404.176 516.496 404.944C515.812 405.724 514.9 406.108 513.76 406.108C512.368 406.108 511.276 405.52 510.736 404.62L511.6 404.02C512.08 404.692 512.956 405.076 513.904 405.076C514.684 405.076 515.308 404.764 515.8 404.14C516.292 403.528 516.496 402.76 516.436 401.848C516.04 402.76 515.044 403.432 513.712 403.432C512.776 403.432 512.008 403.168 511.408 402.628C510.796 402.1 510.496 401.404 510.496 400.552C510.496 399.616 510.82 398.872 511.468 398.32C512.116 397.768 512.98 397.492 514.048 397.492C516.208 397.492 517.516 399.004 517.516 401.644ZM516.256 400.516C516.076 399.4 515.308 398.524 513.928 398.524C512.488 398.524 511.6 399.268 511.6 400.516C511.6 401.704 512.5 402.4 513.904 402.4C514.54 402.4 515.08 402.208 515.5 401.824C515.92 401.44 516.172 401.008 516.256 400.516Z" fill="#76848D"/>
<path d="M773.996 401.8C773.996 400.504 774.296 399.46 774.908 398.68C775.508 397.9 776.396 397.504 777.56 397.504C779.948 397.504 781.136 399.076 781.136 401.8C781.136 403.108 780.836 404.14 780.248 404.92C779.648 405.7 778.76 406.096 777.584 406.096C776.456 406.096 775.58 405.7 774.944 404.908C774.308 404.116 773.996 403.084 773.996 401.8ZM775.1 401.8C775.1 403.852 776.036 405.076 777.584 405.076C779.216 405.076 780.032 403.984 780.032 401.8C780.032 399.616 779.204 398.524 777.56 398.524C775.892 398.524 775.1 399.724 775.1 401.8ZM789.016 401.644C789.016 403.072 788.68 404.176 787.996 404.944C787.312 405.724 786.4 406.108 785.26 406.108C783.868 406.108 782.776 405.52 782.236 404.62L783.1 404.02C783.58 404.692 784.456 405.076 785.404 405.076C786.184 405.076 786.808 404.764 787.3 404.14C787.792 403.528 787.996 402.76 787.936 401.848C787.54 402.76 786.544 403.432 785.212 403.432C784.276 403.432 783.508 403.168 782.908 402.628C782.296 402.1 781.996 401.404 781.996 400.552C781.996 399.616 782.32 398.872 782.968 398.32C783.616 397.768 784.48 397.492 785.548 397.492C787.708 397.492 789.016 399.004 789.016 401.644ZM787.756 400.516C787.576 399.4 786.808 398.524 785.428 398.524C783.988 398.524 783.1 399.268 783.1 400.516C783.1 401.704 784 402.4 785.404 402.4C786.04 402.4 786.58 402.208 787 401.824C787.42 401.44 787.672 401.008 787.756 400.516Z" fill="#76848D"/>
<path d="M1045.5 401.8C1045.5 400.504 1045.8 399.46 1046.41 398.68C1047.01 397.9 1047.9 397.504 1049.06 397.504C1051.45 397.504 1052.64 399.076 1052.64 401.8C1052.64 403.108 1052.34 404.14 1051.75 404.92C1051.15 405.7 1050.26 406.096 1049.08 406.096C1047.96 406.096 1047.08 405.7 1046.44 404.908C1045.81 404.116 1045.5 403.084 1045.5 401.8ZM1046.6 401.8C1046.6 403.852 1047.54 405.076 1049.08 405.076C1050.72 405.076 1051.53 403.984 1051.53 401.8C1051.53 399.616 1050.7 398.524 1049.06 398.524C1047.39 398.524 1046.6 399.724 1046.6 401.8ZM1060.52 401.644C1060.52 403.072 1060.18 404.176 1059.5 404.944C1058.81 405.724 1057.9 406.108 1056.76 406.108C1055.37 406.108 1054.28 405.52 1053.74 404.62L1054.6 404.02C1055.08 404.692 1055.96 405.076 1056.9 405.076C1057.68 405.076 1058.31 404.764 1058.8 404.14C1059.29 403.528 1059.5 402.76 1059.44 401.848C1059.04 402.76 1058.04 403.432 1056.71 403.432C1055.78 403.432 1055.01 403.168 1054.41 402.628C1053.8 402.1 1053.5 401.404 1053.5 400.552C1053.5 399.616 1053.82 398.872 1054.47 398.32C1055.12 397.768 1055.98 397.492 1057.05 397.492C1059.21 397.492 1060.52 399.004 1060.52 401.644ZM1059.26 400.516C1059.08 399.4 1058.31 398.524 1056.93 398.524C1055.49 398.524 1054.6 399.268 1054.6 400.516C1054.6 401.704 1055.5 402.4 1056.9 402.4C1057.54 402.4 1058.08 402.208 1058.5 401.824C1058.92 401.44 1059.17 401.008 1059.26 400.516Z" fill="#76848D"/>
<path d="M279.746 399.832L279.362 398.932L282.242 397.552H282.926V406H281.894V398.836L279.746 399.832ZM284.36 399.832L283.976 398.932L286.856 397.552H287.54V406H286.508V398.836L284.36 399.832Z" fill="#76848D"/>
<path d="M551.246 399.832L550.862 398.932L553.742 397.552H554.426V406H553.394V398.836L551.246 399.832ZM555.86 399.832L555.476 398.932L558.356 397.552H559.04V406H558.008V398.836L555.86 399.832Z" fill="#76848D"/>
<path d="M822.746 399.832L822.362 398.932L825.242 397.552H825.926V406H824.894V398.836L822.746 399.832ZM827.36 399.832L826.976 398.932L829.856 397.552H830.54V406H829.508V398.836L827.36 399.832Z" fill="#76848D"/>
<path d="M323.131 401.8C323.131 400.504 323.431 399.46 324.043 398.68C324.643 397.9 325.531 397.504 326.695 397.504C329.083 397.504 330.271 399.076 330.271 401.8C330.271 403.108 329.971 404.14 329.383 404.92C328.783 405.7 327.895 406.096 326.719 406.096C325.591 406.096 324.715 405.7 324.079 404.908C323.443 404.116 323.131 403.084 323.131 401.8ZM324.235 401.8C324.235 403.852 325.171 405.076 326.719 405.076C328.351 405.076 329.167 403.984 329.167 401.8C329.167 399.616 328.339 398.524 326.695 398.524C325.027 398.524 324.235 399.724 324.235 401.8ZM331.071 399.832L330.687 398.932L333.567 397.552H334.251V406H333.219V398.836L331.071 399.832ZM316.863 414.372L315.987 414.06C316.287 412.572 317.415 411.504 319.203 411.504C320.931 411.504 321.987 412.5 321.987 414.024C321.987 414.828 321.639 415.632 321.207 416.208C320.991 416.508 320.715 416.796 320.391 417.096C319.731 417.684 319.263 417.996 318.579 418.428L317.655 419.004H322.299V420H315.759V419.184L317.583 417.972C317.907 417.768 318.135 417.612 318.267 417.516C318.399 417.432 318.615 417.276 318.903 417.072C319.191 416.868 319.407 416.688 319.551 416.556C319.683 416.424 319.863 416.256 320.067 416.04C320.619 415.44 320.823 414.888 320.883 414.132C320.883 413.04 320.175 412.548 319.131 412.548C318.483 412.548 317.967 412.728 317.595 413.088C317.223 413.448 316.971 413.88 316.863 414.372ZM323.131 415.8C323.131 414.504 323.431 413.46 324.043 412.68C324.643 411.9 325.531 411.504 326.695 411.504C329.083 411.504 330.271 413.076 330.271 415.8C330.271 417.108 329.971 418.14 329.383 418.92C328.783 419.7 327.895 420.096 326.719 420.096C325.591 420.096 324.715 419.7 324.079 418.908C323.443 418.116 323.131 417.084 323.131 415.8ZM324.235 415.8C324.235 417.852 325.171 419.076 326.719 419.076C328.351 419.076 329.167 417.984 329.167 415.8C329.167 413.616 328.339 412.524 326.695 412.524C325.027 412.524 324.235 413.724 324.235 415.8ZM332.127 414.372L331.251 414.06C331.551 412.572 332.679 411.504 334.467 411.504C336.195 411.504 337.251 412.5 337.251 414.024C337.251 414.828 336.903 415.632 336.471 416.208C336.255 416.508 335.979 416.796 335.655 417.096C334.995 417.684 334.527 417.996 333.843 418.428L332.919 419.004H337.563V420H331.023V419.184L332.847 417.972C333.171 417.768 333.399 417.612 333.531 417.516C333.663 417.432 333.879 417.276 334.167 417.072C334.455 416.868 334.671 416.688 334.815 416.556C334.947 416.424 335.127 416.256 335.331 416.04C335.883 415.44 336.087 414.888 336.147 414.132C336.147 413.04 335.439 412.548 334.395 412.548C333.747 412.548 333.231 412.728 332.859 413.088C332.487 413.448 332.235 413.88 332.127 414.372ZM338.299 413.832L337.915 412.932L340.795 411.552H341.479V420H340.447V412.836L338.299 413.832Z" fill="#76848D"/>
<path d="M595.131 401.8C595.131 400.504 595.431 399.46 596.043 398.68C596.643 397.9 597.531 397.504 598.695 397.504C601.083 397.504 602.271 399.076 602.271 401.8C602.271 403.108 601.971 404.14 601.383 404.92C600.783 405.7 599.895 406.096 598.719 406.096C597.591 406.096 596.715 405.7 596.079 404.908C595.443 404.116 595.131 403.084 595.131 401.8ZM596.235 401.8C596.235 403.852 597.171 405.076 598.719 405.076C600.351 405.076 601.167 403.984 601.167 401.8C601.167 399.616 600.339 398.524 598.695 398.524C597.027 398.524 596.235 399.724 596.235 401.8ZM603.071 399.832L602.687 398.932L605.567 397.552H606.251V406H605.219V398.836L603.071 399.832ZM587.556 414.372L586.68 414.06C586.98 412.572 588.108 411.504 589.896 411.504C591.624 411.504 592.68 412.5 592.68 414.024C592.68 414.828 592.332 415.632 591.9 416.208C591.684 416.508 591.408 416.796 591.084 417.096C590.424 417.684 589.956 417.996 589.272 418.428L588.348 419.004H592.992V420H586.452V419.184L588.276 417.972C588.6 417.768 588.828 417.612 588.96 417.516C589.092 417.432 589.308 417.276 589.596 417.072C589.884 416.868 590.1 416.688 590.244 416.556C590.376 416.424 590.556 416.256 590.76 416.04C591.312 415.44 591.516 414.888 591.576 414.132C591.576 413.04 590.868 412.548 589.824 412.548C589.176 412.548 588.66 412.728 588.288 413.088C587.916 413.448 587.664 413.88 587.556 414.372ZM593.824 415.8C593.824 414.504 594.124 413.46 594.736 412.68C595.336 411.9 596.224 411.504 597.388 411.504C599.776 411.504 600.964 413.076 600.964 415.8C600.964 417.108 600.664 418.14 600.076 418.92C599.476 419.7 598.588 420.096 597.412 420.096C596.284 420.096 595.408 419.7 594.772 418.908C594.136 418.116 593.824 417.084 593.824 415.8ZM594.928 415.8C594.928 417.852 595.864 419.076 597.412 419.076C599.044 419.076 599.86 417.984 599.86 415.8C599.86 413.616 599.032 412.524 597.388 412.524C595.72 412.524 594.928 413.724 594.928 415.8ZM602.82 414.372L601.944 414.06C602.244 412.572 603.372 411.504 605.16 411.504C606.888 411.504 607.944 412.5 607.944 414.024C607.944 414.828 607.596 415.632 607.164 416.208C606.948 416.508 606.672 416.796 606.348 417.096C605.688 417.684 605.22 417.996 604.536 418.428L603.612 419.004H608.256V420H601.716V419.184L603.54 417.972C603.864 417.768 604.092 417.612 604.224 417.516C604.356 417.432 604.572 417.276 604.86 417.072C605.148 416.868 605.364 416.688 605.508 416.556C605.64 416.424 605.82 416.256 606.024 416.04C606.576 415.44 606.78 414.888 606.84 414.132C606.84 413.04 606.132 412.548 605.088 412.548C604.44 412.548 603.924 412.728 603.552 413.088C603.18 413.448 602.928 413.88 602.82 414.372ZM610.048 414.372L609.172 414.06C609.472 412.572 610.6 411.504 612.388 411.504C614.116 411.504 615.172 412.5 615.172 414.024C615.172 414.828 614.824 415.632 614.392 416.208C614.176 416.508 613.9 416.796 613.576 417.096C612.916 417.684 612.448 417.996 611.764 418.428L610.84 419.004H615.484V420H608.944V419.184L610.768 417.972C611.092 417.768 611.32 417.612 611.452 417.516C611.584 417.432 611.8 417.276 612.088 417.072C612.376 416.868 612.592 416.688 612.736 416.556C612.868 416.424 613.048 416.256 613.252 416.04C613.804 415.44 614.008 414.888 614.068 414.132C614.068 413.04 613.36 412.548 612.316 412.548C611.668 412.548 611.152 412.728 610.78 413.088C610.408 413.448 610.156 413.88 610.048 414.372Z" fill="#76848D"/>
<path d="M866.131 401.8C866.131 400.504 866.431 399.46 867.043 398.68C867.643 397.9 868.531 397.504 869.695 397.504C872.083 397.504 873.271 399.076 873.271 401.8C873.271 403.108 872.971 404.14 872.383 404.92C871.783 405.7 870.895 406.096 869.719 406.096C868.591 406.096 867.715 405.7 867.079 404.908C866.443 404.116 866.131 403.084 866.131 401.8ZM867.235 401.8C867.235 403.852 868.171 405.076 869.719 405.076C871.351 405.076 872.167 403.984 872.167 401.8C872.167 399.616 871.339 398.524 869.695 398.524C868.027 398.524 867.235 399.724 867.235 401.8ZM874.071 399.832L873.687 398.932L876.567 397.552H877.251V406H876.219V398.836L874.071 399.832ZM858.527 414.372L857.651 414.06C857.951 412.572 859.079 411.504 860.867 411.504C862.595 411.504 863.651 412.5 863.651 414.024C863.651 414.828 863.303 415.632 862.871 416.208C862.655 416.508 862.379 416.796 862.055 417.096C861.395 417.684 860.927 417.996 860.243 418.428L859.319 419.004H863.963V420H857.423V419.184L859.247 417.972C859.571 417.768 859.799 417.612 859.931 417.516C860.063 417.432 860.279 417.276 860.567 417.072C860.855 416.868 861.071 416.688 861.215 416.556C861.347 416.424 861.527 416.256 861.731 416.04C862.283 415.44 862.487 414.888 862.547 414.132C862.547 413.04 861.839 412.548 860.795 412.548C860.147 412.548 859.631 412.728 859.259 413.088C858.887 413.448 858.635 413.88 858.527 414.372ZM864.795 415.8C864.795 414.504 865.095 413.46 865.707 412.68C866.307 411.9 867.195 411.504 868.359 411.504C870.747 411.504 871.935 413.076 871.935 415.8C871.935 417.108 871.635 418.14 871.047 418.92C870.447 419.7 869.559 420.096 868.383 420.096C867.255 420.096 866.379 419.7 865.743 418.908C865.107 418.116 864.795 417.084 864.795 415.8ZM865.899 415.8C865.899 417.852 866.835 419.076 868.383 419.076C870.015 419.076 870.831 417.984 870.831 415.8C870.831 413.616 870.003 412.524 868.359 412.524C866.691 412.524 865.899 413.724 865.899 415.8ZM873.791 414.372L872.915 414.06C873.215 412.572 874.343 411.504 876.131 411.504C877.859 411.504 878.915 412.5 878.915 414.024C878.915 414.828 878.567 415.632 878.135 416.208C877.919 416.508 877.643 416.796 877.319 417.096C876.659 417.684 876.191 417.996 875.507 418.428L874.583 419.004H879.227V420H872.687V419.184L874.511 417.972C874.835 417.768 875.063 417.612 875.195 417.516C875.327 417.432 875.543 417.276 875.831 417.072C876.119 416.868 876.335 416.688 876.479 416.556C876.611 416.424 876.791 416.256 876.995 416.04C877.547 415.44 877.751 414.888 877.811 414.132C877.811 413.04 877.103 412.548 876.059 412.548C875.411 412.548 874.895 412.728 874.523 413.088C874.151 413.448 873.899 413.88 873.791 414.372ZM880.887 414.048L879.987 413.64C880.431 412.344 881.595 411.492 883.335 411.492C884.163 411.492 884.847 411.684 885.375 412.068C885.903 412.452 886.167 412.968 886.167 413.604C886.167 414.576 885.651 415.296 884.691 415.572C885.615 415.632 886.359 416.328 886.359 417.576C886.359 418.368 886.071 418.992 885.495 419.436C884.919 419.88 884.187 420.108 883.287 420.108C881.451 420.108 880.179 419.232 879.759 417.852L880.731 417.432C881.247 418.524 882.123 419.076 883.359 419.076C884.523 419.076 885.255 418.536 885.255 417.588C885.255 416.664 884.535 416.196 883.095 416.196H882.159V415.2H882.903C884.211 415.2 885.063 414.612 885.063 413.808C885.063 412.98 884.379 412.512 883.287 412.512C882.003 412.512 881.223 413.172 880.887 414.048Z" fill="#76848D"/>
<path d="M1099.25 399.832L1098.86 398.932L1101.74 397.552H1102.43V406H1101.39V398.836L1099.25 399.832ZM1103.86 399.832L1103.48 398.932L1106.36 397.552H1107.04V406H1106.01V398.836L1103.86 399.832Z" fill="#76848D"/>
<path d="M59 258.883L103.989 230.324L127.734 245.397H150.229L172.723 198.592L196.468 225.564L217.713 198.592L240.207 196.212L262.702 242.223L286.447 258.883L311.441 239.844L333.936 160.514L355.181 32L376.426 201.765L398.92 207.318L421.415 223.184L445.159 227.944L466.404 215.251L488.899 251.743L512.644 243.81L537.638 221.598L557.633 225.564L582.627 219.218L603.872 254.916L625.117 316L648.862 297.754L672.606 295.374L693.851 279.508L717.596 249.363L740.09 266.022L762.585 241.43L805.075 267.609L831.319 262.849L852.564 284.268L876.308 289.028L897.553 176.38L968.787 239.844L987.532 269.989L1012.53 235.084L1035.02 261.263L1058.77 221.598L1080.01 228.737L1103.75 227.151L1125 211.285" stroke="#CAD5F0" stroke-width="2" stroke-miterlimit="16" stroke-linecap="round" stroke-linejoin="round"/>
<path d="M61 269.412L80.9906 263.892L105.979 267.835L129.718 250.485L150.958 223.67L169.699 231.557L198.435 228.402L223.424 231.557L247.162 228.402L269.652 220.515L290.892 206.32L313.381 209.474L329.624 185.814L354.612 159L379.6 179.505L400.84 185.814L420.831 218.149H473.306L520.784 220.515L539.525 226.036L559.515 246.541L582.005 237.866L608.242 259.948L629.482 257.582L648.224 278.876L671.962 293.861H700.699L719.44 289.129L740.68 293.861L765.668 287.552L811.897 297.804L874.367 312L900.605 289.129L941.835 278.876H991.812L1011.8 268.624H1040.54L1056.78 263.103L1080.52 261.526L1103.01 246.541L1123 237.866" stroke="#737AF9" stroke-width="2" stroke-miterlimit="16" stroke-linecap="round" stroke-linejoin="round"/>
<path d="M59 270.468L85.2438 250L126.484 361L150.229 331.085L192.719 307.468L237.708 285.426L265.202 275.979L287.696 285.426L312.69 275.979L332.686 259.447L352.681 275.979L378.925 231.106L400.17 65L422.665 159.468L446.409 182.298L465.155 215.362L485.15 220.872L508.894 227.17L536.388 240.553L560.132 232.681L587.626 246.064L606.372 264.17H630.116H648.862L671.356 278.34L706.348 271.255L738.841 266.532L775.082 271.255L811.324 285.426L828.819 294.872L876.308 287.787L897.553 271.255L921.298 274.404L947.542 266.532L968.787 264.17L988.782 253.936L1007.53 261.021L1031.27 259.447L1050.02 236.617L1060.02 227.17L1080.01 220.085L1102.51 205.915L1125 201.191" stroke="#60CCCC" stroke-width="2" stroke-miterlimit="16" stroke-linecap="round" stroke-linejoin="round"/>
<path d="M59 267.915L87.7433 276.574L108.988 298.617L128.984 306.489L151.478 286.021L195.218 290.745H227.71L276.449 276.574L288.946 271.851L332.686 234.851L353.931 206.511L377.675 201.787L400.17 164L422.665 219.894L442.66 211.234L491.399 215.17L512.644 227.766L536.388 219.894L557.633 239.574L585.127 244.298L606.372 256.106L626.367 260.83L648.862 303.34L671.356 312L701.349 293.894L718.845 286.809L745.089 290.745L762.585 297.83L785.08 293.894L807.574 305.702L835.068 303.34L871.309 312L901.302 286.809L920.048 258.468L945.042 252.17L966.287 260.83L993.781 259.255L1032.52 239.574L1062.51 237.213L1076.26 239.574H1102.51L1125 232.489" stroke="#4A4CCC" stroke-width="2" stroke-miterlimit="16" stroke-linecap="round" stroke-linejoin="round"/>
<path d="M61 261.748L85.9765 244.313L128.437 341L150.915 317.224L170.897 314.847L205.864 304.544L228.343 298.997L248.324 287.901L285.789 285.524L313.263 281.561L334.493 275.221L355.723 288.694L369.46 246.69L380.7 210.235L400.681 108L421.911 173.779L450.634 188.044L478.108 196.762L513.075 203.895H536.803L559.282 212.612L581.761 196.762L605.488 223.707L626.718 212.612L660.437 223.707L682.915 230.84L719.131 237.973L741.61 241.935L766.587 241.143L785.319 246.69L812.793 260.163L852.756 269.673H877.732L943.92 288.694L968.897 281.561L985.131 266.503L1020.1 269.673L1036.33 266.503H1067.55L1102.52 252.238L1125 250.653" stroke="#2F80DE" stroke-width="2" stroke-miterlimit="16" stroke-linecap="round" stroke-linejoin="round"/>
<path d="M106 293.196L129.709 332L149.675 299.531H173.384L198.341 293.196L217.059 269.438L248.255 248.848L265.725 243.304L288.187 248.848L309.4 243.304L334.357 214.795L355.571 203.708L379.28 163.32L401.741 77L422.955 171.239L445.416 163.32L470.373 177.575L491.587 210.835L515.296 221.13L536.509 245.68L563.962 251.224L585.175 253.599L606.389 274.981L626.355 284.484L648.816 281.317L673.773 289.236H693.739L714.952 276.565L737.414 284.484L764.866 281.317L796.063 291.433H833.498L854.712 303.491L877.173 297.155L899.634 266.27L932.079 270.23L960.779 263.102L985.736 255.975L1015.68 253.599L1041.89 248.848L1066.85 238.553L1103.03 233.009L1123 214.795" stroke="#ACAEEA" stroke-width="2" stroke-miterlimit="16" stroke-linecap="round" stroke-linejoin="round"/>
</svg>
