<svg width="474" height="252" viewBox="0 0 474 252" fill="none" xmlns="http://www.w3.org/2000/svg">
<path d="M237.043 157.573C230.633 173.898 220.574 188.54 207.636 200.379C194.697 212.219 179.223 220.943 162.395 225.883C145.567 230.823 127.832 231.849 110.547 228.883C93.2621 225.916 76.8844 219.035 62.667 208.767L70.7469 197.58C83.2583 206.616 97.6706 212.671 112.882 215.282C128.093 217.892 143.699 216.989 158.507 212.642C173.316 208.294 186.934 200.618 198.319 190.199C209.705 179.78 218.557 166.895 224.198 152.529L237.043 157.573Z" fill="url(#paint0_linear_6006_19056)"/>
<path d="M23.283 158.394C16.2718 140.935 13.6515 122.021 15.6518 103.313C17.6522 84.6052 24.2122 66.6736 34.7564 51.0911C45.3007 35.5086 59.5072 22.7513 76.1299 13.9378C92.7527 5.12428 111.284 0.523899 130.099 0.540075L130.087 14.3401C113.53 14.3258 97.2224 18.3742 82.5944 26.1301C67.9663 33.8859 55.4646 45.1124 46.1857 58.825C36.9067 72.5376 31.134 88.3173 29.3736 104.78C27.6133 121.244 29.9192 137.887 36.089 153.252L23.283 158.394Z" fill="#DBE9EE"/>
<path d="M62.7508 208.827C45.0484 196.066 31.3425 178.531 23.2337 158.271L36.0457 153.144C43.1814 170.972 55.2426 186.403 70.8207 197.633L62.7508 208.827Z" fill="#9DDDDC"/>
<path d="M130 0.540039C148.759 0.540039 167.233 5.12907 183.812 13.907C200.391 22.6849 214.57 35.3852 225.114 50.9004C235.658 66.4157 242.247 84.2748 244.306 102.921C246.364 121.566 243.83 140.433 236.924 157.874L224.093 152.794C230.17 137.446 232.4 120.843 230.589 104.435C228.777 88.0266 222.979 72.3106 213.701 58.6572C204.422 45.0038 191.944 33.8275 177.354 26.103C162.765 18.3784 146.508 14.34 130 14.34V0.540039Z" fill="url(#paint1_linear_6006_19056)"/>
<path d="M242.975 53.596L241.925 53.12C242.443 51.608 243.801 50.614 245.831 50.614C246.797 50.614 247.595 50.838 248.211 51.286C248.827 51.734 249.135 52.336 249.135 53.078C249.135 54.212 248.533 55.052 247.413 55.374C248.491 55.444 249.359 56.256 249.359 57.712C249.359 58.636 249.023 59.364 248.351 59.882C247.679 60.4 246.825 60.666 245.775 60.666C243.633 60.666 242.149 59.644 241.659 58.034L242.793 57.544C243.395 58.818 244.417 59.462 245.859 59.462C247.217 59.462 248.071 58.832 248.071 57.726C248.071 56.648 247.231 56.102 245.551 56.102H244.459V54.94H245.327C246.853 54.94 247.847 54.254 247.847 53.316C247.847 52.35 247.049 51.804 245.775 51.804C244.277 51.804 243.367 52.574 242.975 53.596ZM250.398 53.344L249.95 52.294L253.31 50.684H254.108V60.54H252.904V52.182L250.398 53.344Z" fill="#1A3341"/>
<path d="M164.722 238.974L163.7 238.61C164.05 236.874 165.366 235.628 167.452 235.628C169.468 235.628 170.7 236.79 170.7 238.568C170.7 239.506 170.294 240.444 169.79 241.116C169.538 241.466 169.216 241.802 168.838 242.152C168.068 242.838 167.522 243.202 166.724 243.706L165.646 244.378H171.064V245.54H163.434V244.588L165.562 243.174C165.94 242.936 166.206 242.754 166.36 242.642C166.514 242.544 166.766 242.362 167.102 242.124C167.438 241.886 167.69 241.676 167.858 241.522C168.012 241.368 168.222 241.172 168.46 240.92C169.104 240.22 169.342 239.576 169.412 238.694C169.412 237.42 168.586 236.846 167.368 236.846C166.612 236.846 166.01 237.056 165.576 237.476C165.142 237.896 164.848 238.4 164.722 238.974ZM180.182 240.458C180.182 242.124 179.79 243.412 178.992 244.308C178.194 245.218 177.13 245.666 175.8 245.666C174.176 245.666 172.902 244.98 172.272 243.93L173.28 243.23C173.84 244.014 174.862 244.462 175.968 244.462C176.878 244.462 177.606 244.098 178.18 243.37C178.754 242.656 178.992 241.76 178.922 240.696C178.46 241.76 177.298 242.544 175.744 242.544C174.652 242.544 173.756 242.236 173.056 241.606C172.342 240.99 171.992 240.178 171.992 239.184C171.992 238.092 172.37 237.224 173.126 236.58C173.882 235.936 174.89 235.614 176.136 235.614C178.656 235.614 180.182 237.378 180.182 240.458ZM178.712 239.142C178.502 237.84 177.606 236.818 175.996 236.818C174.316 236.818 173.28 237.686 173.28 239.142C173.28 240.528 174.33 241.34 175.968 241.34C176.71 241.34 177.34 241.116 177.83 240.668C178.32 240.22 178.614 239.716 178.712 239.142Z" fill="#1A3341"/>
<path d="M30.2507 194.458C30.2507 196.124 29.8587 197.412 29.0607 198.308C28.2627 199.218 27.1987 199.666 25.8687 199.666C24.2447 199.666 22.9707 198.98 22.3407 197.93L23.3487 197.23C23.9087 198.014 24.9307 198.462 26.0367 198.462C26.9467 198.462 27.6747 198.098 28.2487 197.37C28.8227 196.656 29.0607 195.76 28.9907 194.696C28.5287 195.76 27.3667 196.544 25.8127 196.544C24.7207 196.544 23.8247 196.236 23.1247 195.606C22.4107 194.99 22.0607 194.178 22.0607 193.184C22.0607 192.092 22.4387 191.224 23.1947 190.58C23.9507 189.936 24.9587 189.614 26.2047 189.614C28.7247 189.614 30.2507 191.378 30.2507 194.458ZM28.7807 193.142C28.5707 191.84 27.6747 190.818 26.0647 190.818C24.3847 190.818 23.3487 191.686 23.3487 193.142C23.3487 194.528 24.3987 195.34 26.0367 195.34C26.7787 195.34 27.4087 195.116 27.8987 194.668C28.3887 194.22 28.6827 193.716 28.7807 193.142Z" fill="#1A3341"/>
<path d="M48.3826 7.59604L47.3326 7.12004C47.8506 5.60804 49.2086 4.61404 51.2386 4.61404C52.2046 4.61404 53.0026 4.83804 53.6186 5.28604C54.2346 5.73404 54.5426 6.33604 54.5426 7.07804C54.5426 8.21204 53.9406 9.05204 52.8206 9.37404C53.8986 9.44404 54.7666 10.256 54.7666 11.712C54.7666 12.636 54.4306 13.364 53.7586 13.882C53.0866 14.4 52.2326 14.666 51.1826 14.666C49.0406 14.666 47.5566 13.644 47.0666 12.034L48.2006 11.544C48.8026 12.818 49.8246 13.462 51.2666 13.462C52.6246 13.462 53.4786 12.832 53.4786 11.726C53.4786 10.648 52.6386 10.102 50.9586 10.102H49.8666V8.94004H50.7346C52.2606 8.94004 53.2546 8.25404 53.2546 7.31604C53.2546 6.35004 52.4566 5.80404 51.1826 5.80404C49.6846 5.80404 48.7746 6.57404 48.3826 7.59604ZM55.8052 7.34404L55.3572 6.29404L58.7172 4.68404H59.5152V14.54H58.3112V6.18204L55.8052 7.34404Z" fill="#1A3341"/>
<rect x="291" y="142.54" width="10" height="10" fill="url(#paint2_linear_6006_19056)"/>
<path d="M316.404 149.476L317.028 150.172C316.392 151.072 315.12 151.648 313.764 151.648C312.444 151.648 311.388 151.252 310.608 150.472C309.828 149.692 309.432 148.648 309.432 147.34C309.432 146.104 309.828 145.084 310.608 144.256C311.388 143.44 312.408 143.032 313.68 143.032C315.12 143.032 316.296 143.608 316.908 144.424L316.2 145.108C315.516 144.424 314.676 144.076 313.704 144.076C312.732 144.076 311.976 144.376 311.412 144.976C310.848 145.576 310.572 146.368 310.572 147.34C310.572 148.324 310.872 149.116 311.472 149.704C312.072 150.304 312.864 150.604 313.836 150.604C314.88 150.604 315.732 150.232 316.404 149.476ZM318.882 151.54H317.874V142.78H318.882V146.116C319.362 145.48 320.034 145.168 320.91 145.168C322.662 145.168 323.538 146.116 323.538 148V151.54H322.53V148.096C322.53 146.752 321.954 146.116 320.718 146.116C319.89 146.116 319.218 146.644 318.882 147.412V151.54ZM325.948 151.54H324.94V145.3H325.948V151.54ZM324.808 143.272C324.808 142.936 325.084 142.684 325.456 142.684C325.792 142.684 326.08 142.936 326.08 143.272C326.08 143.62 325.792 143.896 325.456 143.896C325.084 143.896 324.808 143.62 324.808 143.272ZM328.427 151.54H327.419V145.3H328.427V146.116C328.823 145.504 329.639 145.168 330.563 145.168C332.255 145.168 333.095 146.104 333.095 147.988V151.54H332.087V148.108C332.087 146.728 331.499 146.116 330.263 146.116C329.495 146.116 328.763 146.62 328.427 147.376V151.54ZM334.845 146.8L334.329 146.044C334.905 145.504 335.901 145.156 336.825 145.156C338.493 145.156 339.381 146.068 339.381 147.688V151.54H338.373V150.616C337.977 151.192 337.197 151.624 336.189 151.624C334.833 151.624 333.921 150.868 333.921 149.716C333.921 148.408 335.037 147.784 336.909 147.784C337.497 147.784 337.977 147.844 338.373 147.964C338.373 146.752 337.941 146.104 336.705 146.104C336.081 146.104 335.457 146.332 334.845 146.8ZM336.429 150.712C336.897 150.712 337.317 150.58 337.665 150.328C338.013 150.076 338.241 149.788 338.373 149.488V148.852C338.025 148.732 337.581 148.672 337.041 148.672C335.673 148.672 334.989 149.008 334.989 149.68C334.989 150.316 335.565 150.712 336.429 150.712ZM346.043 148.696H340.991V147.808H346.043V148.696ZM354.043 151.54H347.887V143.14H353.935V144.16H348.979V146.776H353.599V147.772H348.979V150.52H354.043V151.54ZM359.763 145.264H360.771V151.54H359.763V150.652C359.283 151.312 358.611 151.648 357.735 151.648C356.007 151.648 355.167 150.784 355.167 148.876V145.264H356.175V148.732C356.175 150.04 356.727 150.7 357.819 150.7C358.683 150.7 359.379 150.208 359.763 149.344V145.264ZM363.112 151.54H362.104V145.3H363.112V145.78C363.316 145.36 363.856 145.168 364.396 145.168C364.948 145.168 365.368 145.36 365.668 145.732L365.032 146.428C364.876 146.224 364.636 146.116 364.288 146.116C363.748 146.116 363.256 146.56 363.112 147.196V151.54ZM365.515 148.408C365.515 147.46 365.827 146.68 366.439 146.068C367.051 145.456 367.843 145.156 368.815 145.156C369.799 145.156 370.603 145.456 371.215 146.068C371.827 146.68 372.139 147.46 372.139 148.408C372.139 149.356 371.827 150.124 371.215 150.736C370.591 151.348 369.787 151.648 368.815 151.648C367.843 151.648 367.051 151.348 366.439 150.736C365.827 150.124 365.515 149.356 365.515 148.408ZM366.583 148.408C366.583 149.068 366.787 149.62 367.207 150.052C367.627 150.484 368.155 150.7 368.815 150.7C369.475 150.7 370.027 150.484 370.447 150.064C370.867 149.644 371.071 149.092 371.071 148.408C371.071 147.724 370.855 147.172 370.435 146.74C370.003 146.32 369.463 146.104 368.815 146.104C368.167 146.104 367.639 146.32 367.219 146.74C366.799 147.16 366.583 147.724 366.583 148.408ZM374.145 153.94H373.137V145.3H374.145V146.08C374.565 145.468 375.237 145.156 376.161 145.156C377.073 145.156 377.805 145.444 378.345 146.032C378.885 146.62 379.149 147.376 379.149 148.312C379.149 149.272 378.861 150.064 378.285 150.7C377.697 151.336 376.953 151.648 376.041 151.648C375.201 151.648 374.565 151.432 374.145 151.012V153.94ZM376.053 146.104C375.141 146.104 374.433 146.692 374.145 147.4V149.728C374.505 150.376 375.105 150.7 375.957 150.7C376.569 150.7 377.085 150.484 377.481 150.052C377.877 149.62 378.081 149.068 378.081 148.384C378.081 146.992 377.301 146.104 376.053 146.104ZM384.966 149.752L385.614 150.352C385.038 151.216 384.21 151.648 383.118 151.648C382.122 151.648 381.318 151.348 380.706 150.76C380.094 150.172 379.794 149.392 379.794 148.408C379.794 147.46 380.07 146.68 380.634 146.068C381.186 145.456 381.966 145.156 382.974 145.156C383.802 145.156 384.498 145.42 385.038 145.936C385.578 146.452 385.854 147.136 385.854 147.988C385.854 148.264 385.83 148.516 385.794 148.744H380.874C380.934 149.98 381.846 150.7 383.154 150.7C383.886 150.7 384.582 150.316 384.966 149.752ZM382.902 146.08C381.762 146.08 381.018 146.776 380.862 147.832H384.786C384.726 146.728 384.018 146.08 382.902 146.08ZM392.336 148.696H387.284V147.808H392.336V148.696ZM400.754 149.476L401.378 150.172C400.742 151.072 399.47 151.648 398.114 151.648C396.794 151.648 395.738 151.252 394.958 150.472C394.178 149.692 393.782 148.648 393.782 147.34C393.782 146.104 394.178 145.084 394.958 144.256C395.738 143.44 396.758 143.032 398.03 143.032C399.47 143.032 400.646 143.608 401.258 144.424L400.55 145.108C399.866 144.424 399.026 144.076 398.054 144.076C397.082 144.076 396.326 144.376 395.762 144.976C395.198 145.576 394.922 146.368 394.922 147.34C394.922 148.324 395.222 149.116 395.822 149.704C396.422 150.304 397.214 150.604 398.186 150.604C399.23 150.604 400.082 150.232 400.754 149.476ZM403.232 151.54H402.224V142.78H403.232V146.116C403.712 145.48 404.384 145.168 405.26 145.168C407.012 145.168 407.888 146.116 407.888 148V151.54H406.88V148.096C406.88 146.752 406.304 146.116 405.068 146.116C404.24 146.116 403.568 146.644 403.232 147.412V151.54ZM410.299 151.54H409.291V145.3H410.299V151.54ZM409.159 143.272C409.159 142.936 409.435 142.684 409.807 142.684C410.143 142.684 410.431 142.936 410.431 143.272C410.431 143.62 410.143 143.896 409.807 143.896C409.435 143.896 409.159 143.62 409.159 143.272ZM412.777 151.54H411.769V145.3H412.777V146.116C413.173 145.504 413.989 145.168 414.913 145.168C416.605 145.168 417.445 146.104 417.445 147.988V151.54H416.437V148.108C416.437 146.728 415.849 146.116 414.613 146.116C413.845 146.116 413.113 146.62 412.777 147.376V151.54ZM419.195 146.8L418.679 146.044C419.255 145.504 420.251 145.156 421.175 145.156C422.843 145.156 423.731 146.068 423.731 147.688V151.54H422.723V150.616C422.327 151.192 421.547 151.624 420.539 151.624C419.183 151.624 418.271 150.868 418.271 149.716C418.271 148.408 419.387 147.784 421.259 147.784C421.847 147.784 422.327 147.844 422.723 147.964C422.723 146.752 422.291 146.104 421.055 146.104C420.431 146.104 419.807 146.332 419.195 146.8ZM420.779 150.712C421.247 150.712 421.667 150.58 422.015 150.328C422.363 150.076 422.591 149.788 422.723 149.488V148.852C422.375 148.732 421.931 148.672 421.391 148.672C420.023 148.672 419.339 149.008 419.339 149.68C419.339 150.316 419.915 150.712 420.779 150.712Z" fill="#1A3341" fill-opacity="0.6"/>
<rect x="291" y="166.54" width="10" height="10" fill="url(#paint3_linear_6006_19056)"/>
<path d="M316.404 173.476L317.028 174.172C316.392 175.072 315.12 175.648 313.764 175.648C312.444 175.648 311.388 175.252 310.608 174.472C309.828 173.692 309.432 172.648 309.432 171.34C309.432 170.104 309.828 169.084 310.608 168.256C311.388 167.44 312.408 167.032 313.68 167.032C315.12 167.032 316.296 167.608 316.908 168.424L316.2 169.108C315.516 168.424 314.676 168.076 313.704 168.076C312.732 168.076 311.976 168.376 311.412 168.976C310.848 169.576 310.572 170.368 310.572 171.34C310.572 172.324 310.872 173.116 311.472 173.704C312.072 174.304 312.864 174.604 313.836 174.604C314.88 174.604 315.732 174.232 316.404 173.476ZM318.882 175.54H317.874V166.78H318.882V170.116C319.362 169.48 320.034 169.168 320.91 169.168C322.662 169.168 323.538 170.116 323.538 172V175.54H322.53V172.096C322.53 170.752 321.954 170.116 320.718 170.116C319.89 170.116 319.218 170.644 318.882 171.412V175.54ZM325.948 175.54H324.94V169.3H325.948V175.54ZM324.808 167.272C324.808 166.936 325.084 166.684 325.456 166.684C325.792 166.684 326.08 166.936 326.08 167.272C326.08 167.62 325.792 167.896 325.456 167.896C325.084 167.896 324.808 167.62 324.808 167.272ZM328.427 175.54H327.419V169.3H328.427V170.116C328.823 169.504 329.639 169.168 330.563 169.168C332.255 169.168 333.095 170.104 333.095 171.988V175.54H332.087V172.108C332.087 170.728 331.499 170.116 330.263 170.116C329.495 170.116 328.763 170.62 328.427 171.376V175.54ZM334.845 170.8L334.329 170.044C334.905 169.504 335.901 169.156 336.825 169.156C338.493 169.156 339.381 170.068 339.381 171.688V175.54H338.373V174.616C337.977 175.192 337.197 175.624 336.189 175.624C334.833 175.624 333.921 174.868 333.921 173.716C333.921 172.408 335.037 171.784 336.909 171.784C337.497 171.784 337.977 171.844 338.373 171.964C338.373 170.752 337.941 170.104 336.705 170.104C336.081 170.104 335.457 170.332 334.845 170.8ZM336.429 174.712C336.897 174.712 337.317 174.58 337.665 174.328C338.013 174.076 338.241 173.788 338.373 173.488V172.852C338.025 172.732 337.581 172.672 337.041 172.672C335.673 172.672 334.989 173.008 334.989 173.68C334.989 174.316 335.565 174.712 336.429 174.712ZM346.043 172.696H340.991V171.808H346.043V172.696ZM348.979 172.252V175.54H347.887V167.14H351.103C353.275 167.14 354.355 167.98 354.355 169.66C354.355 170.848 353.539 171.784 352.303 172.036L354.991 175.54H353.659L351.163 172.252H348.979ZM351.067 168.16H348.979V171.232H351.139C352.423 171.232 353.239 170.62 353.239 169.66C353.239 168.664 352.519 168.16 351.067 168.16ZM360.256 169.264H361.264V175.54H360.256V174.652C359.776 175.312 359.104 175.648 358.228 175.648C356.5 175.648 355.66 174.784 355.66 172.876V169.264H356.668V172.732C356.668 174.04 357.22 174.7 358.312 174.7C359.176 174.7 359.872 174.208 360.256 173.344V169.264ZM366.424 173.836C366.424 172.996 364.996 172.864 363.856 172.54C363.076 172.312 362.452 171.796 362.452 170.944C362.452 169.84 363.496 169.156 365.044 169.156C366.088 169.156 366.928 169.6 367.372 170.236L366.664 170.896C366.268 170.368 365.668 170.104 364.864 170.104C364.144 170.104 363.52 170.38 363.52 170.896C363.52 171.628 364.948 171.76 366.088 172.108C366.856 172.348 367.48 172.924 367.48 173.824C367.48 175.036 366.508 175.648 364.984 175.648C363.7 175.648 362.608 175.072 362.164 174.172L362.968 173.608C363.34 174.268 364.192 174.7 365.152 174.7C366.004 174.7 366.424 174.412 366.424 173.836ZM372.269 173.836C372.269 172.996 370.841 172.864 369.701 172.54C368.921 172.312 368.297 171.796 368.297 170.944C368.297 169.84 369.341 169.156 370.889 169.156C371.933 169.156 372.773 169.6 373.217 170.236L372.509 170.896C372.113 170.368 371.513 170.104 370.709 170.104C369.989 170.104 369.365 170.38 369.365 170.896C369.365 171.628 370.793 171.76 371.933 172.108C372.701 172.348 373.325 172.924 373.325 173.824C373.325 175.036 372.353 175.648 370.829 175.648C369.545 175.648 368.453 175.072 368.009 174.172L368.813 173.608C369.185 174.268 370.037 174.7 370.997 174.7C371.849 174.7 372.269 174.412 372.269 173.836ZM375.426 175.54H374.418V169.3H375.426V175.54ZM374.286 167.272C374.286 166.936 374.562 166.684 374.934 166.684C375.27 166.684 375.558 166.936 375.558 167.272C375.558 167.62 375.27 167.896 374.934 167.896C374.562 167.896 374.286 167.62 374.286 167.272ZM377.376 170.8L376.86 170.044C377.436 169.504 378.432 169.156 379.356 169.156C381.024 169.156 381.912 170.068 381.912 171.688V175.54H380.904V174.616C380.508 175.192 379.728 175.624 378.72 175.624C377.364 175.624 376.452 174.868 376.452 173.716C376.452 172.408 377.568 171.784 379.44 171.784C380.028 171.784 380.508 171.844 380.904 171.964C380.904 170.752 380.472 170.104 379.236 170.104C378.612 170.104 377.988 170.332 377.376 170.8ZM378.96 174.712C379.428 174.712 379.848 174.58 380.196 174.328C380.544 174.076 380.772 173.788 380.904 173.488V172.852C380.556 172.732 380.112 172.672 379.572 172.672C378.204 172.672 377.52 173.008 377.52 173.68C377.52 174.316 378.096 174.712 378.96 174.712Z" fill="#1A3341" fill-opacity="0.6"/>
<rect x="291" y="190.54" width="10" height="10" fill="#9DDDDC"/>
<path d="M316.404 197.476L317.028 198.172C316.392 199.072 315.12 199.648 313.764 199.648C312.444 199.648 311.388 199.252 310.608 198.472C309.828 197.692 309.432 196.648 309.432 195.34C309.432 194.104 309.828 193.084 310.608 192.256C311.388 191.44 312.408 191.032 313.68 191.032C315.12 191.032 316.296 191.608 316.908 192.424L316.2 193.108C315.516 192.424 314.676 192.076 313.704 192.076C312.732 192.076 311.976 192.376 311.412 192.976C310.848 193.576 310.572 194.368 310.572 195.34C310.572 196.324 310.872 197.116 311.472 197.704C312.072 198.304 312.864 198.604 313.836 198.604C314.88 198.604 315.732 198.232 316.404 197.476ZM318.882 199.54H317.874V190.78H318.882V194.116C319.362 193.48 320.034 193.168 320.91 193.168C322.662 193.168 323.538 194.116 323.538 196V199.54H322.53V196.096C322.53 194.752 321.954 194.116 320.718 194.116C319.89 194.116 319.218 194.644 318.882 195.412V199.54ZM325.948 199.54H324.94V193.3H325.948V199.54ZM324.808 191.272C324.808 190.936 325.084 190.684 325.456 190.684C325.792 190.684 326.08 190.936 326.08 191.272C326.08 191.62 325.792 191.896 325.456 191.896C325.084 191.896 324.808 191.62 324.808 191.272ZM328.427 199.54H327.419V193.3H328.427V194.116C328.823 193.504 329.639 193.168 330.563 193.168C332.255 193.168 333.095 194.104 333.095 195.988V199.54H332.087V196.108C332.087 194.728 331.499 194.116 330.263 194.116C329.495 194.116 328.763 194.62 328.427 195.376V199.54ZM334.845 194.8L334.329 194.044C334.905 193.504 335.901 193.156 336.825 193.156C338.493 193.156 339.381 194.068 339.381 195.688V199.54H338.373V198.616C337.977 199.192 337.197 199.624 336.189 199.624C334.833 199.624 333.921 198.868 333.921 197.716C333.921 196.408 335.037 195.784 336.909 195.784C337.497 195.784 337.977 195.844 338.373 195.964C338.373 194.752 337.941 194.104 336.705 194.104C336.081 194.104 335.457 194.332 334.845 194.8ZM336.429 198.712C336.897 198.712 337.317 198.58 337.665 198.328C338.013 198.076 338.241 197.788 338.373 197.488V196.852C338.025 196.732 337.581 196.672 337.041 196.672C335.673 196.672 334.989 197.008 334.989 197.68C334.989 198.316 335.565 198.712 336.429 198.712ZM346.043 196.696H340.991V195.808H346.043V196.696ZM351.223 199.54H347.887V191.14H351.283C353.431 191.14 354.247 191.92 354.247 193.228C354.247 194.164 353.851 194.8 353.059 195.148C353.983 195.34 354.547 196.048 354.547 197.14C354.547 198.784 353.323 199.54 351.223 199.54ZM351.331 195.748H348.979V198.52H351.211C352.735 198.52 353.419 198.076 353.419 197.08C353.419 196.192 352.723 195.748 351.331 195.748ZM351.187 192.16H348.979V194.752H351.367C352.435 194.752 353.131 194.272 353.131 193.456C353.131 192.556 352.615 192.16 351.187 192.16ZM360.509 197.752L361.157 198.352C360.581 199.216 359.753 199.648 358.661 199.648C357.665 199.648 356.861 199.348 356.249 198.76C355.637 198.172 355.337 197.392 355.337 196.408C355.337 195.46 355.613 194.68 356.177 194.068C356.729 193.456 357.509 193.156 358.517 193.156C359.345 193.156 360.041 193.42 360.581 193.936C361.121 194.452 361.397 195.136 361.397 195.988C361.397 196.264 361.373 196.516 361.337 196.744H356.417C356.477 197.98 357.389 198.7 358.697 198.7C359.429 198.7 360.125 198.316 360.509 197.752ZM358.445 194.08C357.305 194.08 356.561 194.776 356.405 195.832H360.329C360.269 194.728 359.561 194.08 358.445 194.08ZM363.501 199.54H362.493V190.78H363.501V199.54ZM365.417 194.8L364.901 194.044C365.477 193.504 366.473 193.156 367.397 193.156C369.065 193.156 369.953 194.068 369.953 195.688V199.54H368.945V198.616C368.549 199.192 367.769 199.624 366.761 199.624C365.405 199.624 364.493 198.868 364.493 197.716C364.493 196.408 365.609 195.784 367.481 195.784C368.069 195.784 368.549 195.844 368.945 195.964C368.945 194.752 368.513 194.104 367.277 194.104C366.653 194.104 366.029 194.332 365.417 194.8ZM367.001 198.712C367.469 198.712 367.889 198.58 368.237 198.328C368.585 198.076 368.813 197.788 368.945 197.488V196.852C368.597 196.732 368.153 196.672 367.613 196.672C366.245 196.672 365.561 197.008 365.561 197.68C365.561 198.316 366.137 198.712 367.001 198.712ZM372.235 199.54H371.227V193.3H372.235V193.78C372.439 193.36 372.979 193.168 373.519 193.168C374.071 193.168 374.491 193.36 374.791 193.732L374.155 194.428C373.999 194.224 373.759 194.116 373.411 194.116C372.871 194.116 372.379 194.56 372.235 195.196V199.54ZM379.862 193.264H380.87V199.54H379.862V198.652C379.382 199.312 378.71 199.648 377.834 199.648C376.106 199.648 375.266 198.784 375.266 196.876V193.264H376.274V196.732C376.274 198.04 376.826 198.7 377.918 198.7C378.782 198.7 379.478 198.208 379.862 197.344V193.264ZM386.03 197.836C386.03 196.996 384.602 196.864 383.462 196.54C382.682 196.312 382.058 195.796 382.058 194.944C382.058 193.84 383.102 193.156 384.65 193.156C385.694 193.156 386.534 193.6 386.978 194.236L386.27 194.896C385.874 194.368 385.274 194.104 384.47 194.104C383.75 194.104 383.126 194.38 383.126 194.896C383.126 195.628 384.554 195.76 385.694 196.108C386.462 196.348 387.086 196.924 387.086 197.824C387.086 199.036 386.114 199.648 384.59 199.648C383.306 199.648 382.214 199.072 381.77 198.172L382.574 197.608C382.946 198.268 383.798 198.7 384.758 198.7C385.61 198.7 386.03 198.412 386.03 197.836Z" fill="#1A3341" fill-opacity="0.6"/>
<rect x="291" y="214.54" width="10" height="10" fill="#DBE9EE"/>
<path d="M310.128 223.54H309.012L312.696 215.116H313.56L317.244 223.54H316.104L315.168 221.416H311.052L310.128 223.54ZM314.76 220.456L313.104 216.64L311.46 220.456H314.76ZM323.257 223.54H322.249V222.796C321.973 223.228 321.253 223.648 320.305 223.648C319.381 223.648 318.649 223.36 318.085 222.784C317.521 222.208 317.233 221.428 317.233 220.432C317.233 219.472 317.533 218.68 318.145 218.068C318.757 217.456 319.501 217.156 320.389 217.156C321.217 217.156 321.841 217.36 322.249 217.768V214.78H323.257V223.54ZM320.449 222.688C321.301 222.688 321.961 222.088 322.249 221.5V218.98C321.853 218.392 321.265 218.104 320.509 218.104C319.897 218.104 319.369 218.32 318.949 218.74C318.517 219.16 318.301 219.724 318.301 220.408C318.301 221.8 319.189 222.688 320.449 222.688ZM330.273 223.54H329.265V222.796C328.989 223.228 328.269 223.648 327.321 223.648C326.397 223.648 325.665 223.36 325.101 222.784C324.537 222.208 324.249 221.428 324.249 220.432C324.249 219.472 324.549 218.68 325.161 218.068C325.773 217.456 326.517 217.156 327.405 217.156C328.233 217.156 328.857 217.36 329.265 217.768V214.78H330.273V223.54ZM327.465 222.688C328.317 222.688 328.977 222.088 329.265 221.5V218.98C328.869 218.392 328.281 218.104 327.525 218.104C326.913 218.104 326.385 218.32 325.965 218.74C325.533 219.16 325.317 219.724 325.317 220.408C325.317 221.8 326.205 222.688 327.465 222.688ZM332.754 223.54H331.746V217.3H332.754V223.54ZM331.614 215.272C331.614 214.936 331.89 214.684 332.262 214.684C332.598 214.684 332.886 214.936 332.886 215.272C332.886 215.62 332.598 215.896 332.262 215.896C331.89 215.896 331.614 215.62 331.614 215.272ZM334.861 218.26H333.565V217.3H334.861V215.704H335.869V217.3H338.017V218.26H335.869V221.008C335.869 222.22 336.181 222.664 336.949 222.664C337.321 222.664 337.705 222.52 338.077 222.22L338.533 222.964C338.137 223.408 337.549 223.624 336.769 223.624C335.533 223.624 334.861 222.808 334.861 221.272V218.26ZM340.284 223.54H339.276V217.3H340.284V223.54ZM339.144 215.272C339.144 214.936 339.42 214.684 339.792 214.684C340.128 214.684 340.416 214.936 340.416 215.272C340.416 215.62 340.128 215.896 339.792 215.896C339.42 215.896 339.144 215.62 339.144 215.272ZM341.406 220.408C341.406 219.46 341.718 218.68 342.33 218.068C342.942 217.456 343.734 217.156 344.706 217.156C345.69 217.156 346.494 217.456 347.106 218.068C347.718 218.68 348.03 219.46 348.03 220.408C348.03 221.356 347.718 222.124 347.106 222.736C346.482 223.348 345.678 223.648 344.706 223.648C343.734 223.648 342.942 223.348 342.33 222.736C341.718 222.124 341.406 221.356 341.406 220.408ZM342.474 220.408C342.474 221.068 342.678 221.62 343.098 222.052C343.518 222.484 344.046 222.7 344.706 222.7C345.366 222.7 345.918 222.484 346.338 222.064C346.758 221.644 346.962 221.092 346.962 220.408C346.962 219.724 346.746 219.172 346.326 218.74C345.894 218.32 345.354 218.104 344.706 218.104C344.058 218.104 343.53 218.32 343.11 218.74C342.69 219.16 342.474 219.724 342.474 220.408ZM350.037 223.54H349.029V217.3H350.037V218.116C350.433 217.504 351.249 217.168 352.173 217.168C353.865 217.168 354.705 218.104 354.705 219.988V223.54H353.697V220.108C353.697 218.728 353.109 218.116 351.873 218.116C351.105 218.116 350.373 218.62 350.037 219.376V223.54ZM356.455 218.8L355.939 218.044C356.515 217.504 357.511 217.156 358.435 217.156C360.103 217.156 360.991 218.068 360.991 219.688V223.54H359.983V222.616C359.587 223.192 358.807 223.624 357.799 223.624C356.443 223.624 355.531 222.868 355.531 221.716C355.531 220.408 356.647 219.784 358.519 219.784C359.107 219.784 359.587 219.844 359.983 219.964C359.983 218.752 359.551 218.104 358.315 218.104C357.691 218.104 357.067 218.332 356.455 218.8ZM358.039 222.712C358.507 222.712 358.927 222.58 359.275 222.328C359.623 222.076 359.851 221.788 359.983 221.488V220.852C359.635 220.732 359.191 220.672 358.651 220.672C357.283 220.672 356.599 221.008 356.599 221.68C356.599 222.316 357.175 222.712 358.039 222.712ZM363.369 223.54H362.361V214.78H363.369V223.54ZM369.291 223.54H368.283V217.3H369.291V217.78C369.495 217.36 370.035 217.168 370.575 217.168C371.127 217.168 371.547 217.36 371.847 217.732L371.211 218.428C371.055 218.224 370.815 218.116 370.467 218.116C369.927 218.116 369.435 218.56 369.291 219.196V223.54ZM371.694 220.408C371.694 219.46 372.006 218.68 372.618 218.068C373.23 217.456 374.022 217.156 374.994 217.156C375.978 217.156 376.782 217.456 377.394 218.068C378.006 218.68 378.318 219.46 378.318 220.408C378.318 221.356 378.006 222.124 377.394 222.736C376.77 223.348 375.966 223.648 374.994 223.648C374.022 223.648 373.23 223.348 372.618 222.736C372.006 222.124 371.694 221.356 371.694 220.408ZM372.762 220.408C372.762 221.068 372.966 221.62 373.386 222.052C373.806 222.484 374.334 222.7 374.994 222.7C375.654 222.7 376.206 222.484 376.626 222.064C377.046 221.644 377.25 221.092 377.25 220.408C377.25 219.724 377.034 219.172 376.614 218.74C376.182 218.32 375.642 218.104 374.994 218.104C374.346 218.104 373.818 218.32 373.398 218.74C372.978 219.16 372.762 219.724 372.762 220.408ZM383.829 217.264H384.837V223.54H383.829V222.652C383.349 223.312 382.677 223.648 381.801 223.648C380.073 223.648 379.233 222.784 379.233 220.876V217.264H380.241V220.732C380.241 222.04 380.793 222.7 381.885 222.7C382.749 222.7 383.445 222.208 383.829 221.344V217.264ZM386.805 218.26H385.509V217.3H386.805V215.704H387.813V217.3H389.961V218.26H387.813V221.008C387.813 222.22 388.125 222.664 388.893 222.664C389.265 222.664 389.649 222.52 390.021 222.22L390.477 222.964C390.081 223.408 389.493 223.624 388.713 223.624C387.477 223.624 386.805 222.808 386.805 221.272V218.26ZM395.736 221.752L396.384 222.352C395.808 223.216 394.98 223.648 393.888 223.648C392.892 223.648 392.088 223.348 391.476 222.76C390.864 222.172 390.564 221.392 390.564 220.408C390.564 219.46 390.84 218.68 391.404 218.068C391.956 217.456 392.736 217.156 393.744 217.156C394.572 217.156 395.268 217.42 395.808 217.936C396.348 218.452 396.624 219.136 396.624 219.988C396.624 220.264 396.6 220.516 396.564 220.744H391.644C391.704 221.98 392.616 222.7 393.924 222.7C394.656 222.7 395.352 222.316 395.736 221.752ZM393.672 218.08C392.532 218.08 391.788 218.776 391.632 219.832H395.556C395.496 218.728 394.788 218.08 393.672 218.08ZM401.453 221.836C401.453 220.996 400.025 220.864 398.885 220.54C398.105 220.312 397.481 219.796 397.481 218.944C397.481 217.84 398.525 217.156 400.073 217.156C401.117 217.156 401.957 217.6 402.401 218.236L401.693 218.896C401.297 218.368 400.697 218.104 399.893 218.104C399.173 218.104 398.549 218.38 398.549 218.896C398.549 219.628 399.977 219.76 401.117 220.108C401.885 220.348 402.509 220.924 402.509 221.824C402.509 223.036 401.537 223.648 400.013 223.648C398.729 223.648 397.637 223.072 397.193 222.172L397.997 221.608C398.369 222.268 399.221 222.7 400.181 222.7C401.033 222.7 401.453 222.412 401.453 221.836Z" fill="#1A3341" fill-opacity="0.6"/>
<defs>
<linearGradient id="paint0_linear_6006_19056" x1="245" y1="115.54" x2="50.5" y2="366.04" gradientUnits="userSpaceOnUse">
<stop stop-color="#43C3BB"/>
<stop offset="1" stop-color="#78CCD1"/>
</linearGradient>
<linearGradient id="paint1_linear_6006_19056" x1="130" y1="0.540039" x2="233" y2="187.04" gradientUnits="userSpaceOnUse">
<stop stop-color="#66CFF0"/>
<stop offset="1" stop-color="#A6E0F2"/>
</linearGradient>
<linearGradient id="paint2_linear_6006_19056" x1="296" y1="142.54" x2="300.478" y2="150.649" gradientUnits="userSpaceOnUse">
<stop stop-color="#66CFF0"/>
<stop offset="1" stop-color="#A6E0F2"/>
</linearGradient>
<linearGradient id="paint3_linear_6006_19056" x1="296" y1="166.54" x2="301.896" y2="172.061" gradientUnits="userSpaceOnUse">
<stop stop-color="#43C3BB"/>
<stop offset="1" stop-color="#78CCD1"/>
</linearGradient>
</defs>
</svg>
