<svg width="336" height="262" viewBox="0 0 336 262" fill="none" xmlns="http://www.w3.org/2000/svg">
<rect y="2" width="10" height="10" fill="url(#paint0_linear_7003_29241)"/>
<path d="M19.476 5.372L18.6 5.06C18.9 3.572 20.028 2.504 21.816 2.504C23.544 2.504 24.6 3.5 24.6 5.024C24.6 5.828 24.252 6.632 23.82 7.208C23.604 7.508 23.328 7.796 23.004 8.096C22.344 8.684 21.876 8.996 21.192 9.428L20.268 10.004H24.912V11H18.372V10.184L20.196 8.972C20.52 8.768 20.748 8.612 20.88 8.516C21.012 8.432 21.228 8.276 21.516 8.072C21.804 7.868 22.02 7.688 22.164 7.556C22.296 7.424 22.476 7.256 22.68 7.04C23.232 6.44 23.436 5.888 23.496 5.132C23.496 4.04 22.788 3.548 21.744 3.548C21.096 3.548 20.58 3.728 20.208 4.088C19.836 4.448 19.584 4.88 19.476 5.372ZM25.7437 6.8C25.7437 5.504 26.0437 4.46 26.6557 3.68C27.2557 2.9 28.1437 2.504 29.3077 2.504C31.6957 2.504 32.8837 4.076 32.8837 6.8C32.8837 8.108 32.5837 9.14 31.9957 9.92C31.3957 10.7 30.5077 11.096 29.3317 11.096C28.2037 11.096 27.3277 10.7 26.6917 9.908C26.0557 9.116 25.7437 8.084 25.7437 6.8ZM26.8477 6.8C26.8477 8.852 27.7837 10.076 29.3317 10.076C30.9637 10.076 31.7797 8.984 31.7797 6.8C31.7797 4.616 30.9517 3.524 29.3077 3.524C27.6397 3.524 26.8477 4.724 26.8477 6.8ZM34.7399 5.372L33.8639 5.06C34.1639 3.572 35.2919 2.504 37.0799 2.504C38.8079 2.504 39.8639 3.5 39.8639 5.024C39.8639 5.828 39.5159 6.632 39.0839 7.208C38.8679 7.508 38.5919 7.796 38.2679 8.096C37.6079 8.684 37.1399 8.996 36.4559 9.428L35.5319 10.004H40.1759V11H33.6359V10.184L35.4599 8.972C35.7839 8.768 36.0119 8.612 36.1439 8.516C36.2759 8.432 36.4919 8.276 36.7799 8.072C37.0679 7.868 37.2839 7.688 37.4279 7.556C37.5599 7.424 37.7399 7.256 37.9439 7.04C38.4959 6.44 38.6999 5.888 38.7599 5.132C38.7599 4.04 38.0519 3.548 37.0079 3.548C36.3599 3.548 35.8439 3.728 35.4719 4.088C35.0999 4.448 34.8479 4.88 34.7399 5.372ZM41.9676 5.372L41.0916 5.06C41.3916 3.572 42.5196 2.504 44.3076 2.504C46.0356 2.504 47.0916 3.5 47.0916 5.024C47.0916 5.828 46.7436 6.632 46.3116 7.208C46.0956 7.508 45.8196 7.796 45.4956 8.096C44.8356 8.684 44.3676 8.996 43.6836 9.428L42.7596 10.004H47.4036V11H40.8636V10.184L42.6876 8.972C43.0116 8.768 43.2396 8.612 43.3716 8.516C43.5036 8.432 43.7196 8.276 44.0076 8.072C44.2956 7.868 44.5116 7.688 44.6556 7.556C44.7876 7.424 44.9676 7.256 45.1716 7.04C45.7236 6.44 45.9276 5.888 45.9876 5.132C45.9876 4.04 45.2796 3.548 44.2356 3.548C43.5876 3.548 43.0716 3.728 42.6996 4.088C42.3276 4.448 42.0756 4.88 41.9676 5.372Z" fill="#1A3341" fill-opacity="0.6"/>
<rect x="84" y="2" width="10" height="10" fill="url(#paint1_linear_7003_29241)"/>
<path d="M103.476 5.372L102.6 5.06C102.9 3.572 104.028 2.504 105.816 2.504C107.544 2.504 108.6 3.5 108.6 5.024C108.6 5.828 108.252 6.632 107.82 7.208C107.604 7.508 107.328 7.796 107.004 8.096C106.344 8.684 105.876 8.996 105.192 9.428L104.268 10.004H108.912V11H102.372V10.184L104.196 8.972C104.52 8.768 104.748 8.612 104.88 8.516C105.012 8.432 105.228 8.276 105.516 8.072C105.804 7.868 106.02 7.688 106.164 7.556C106.296 7.424 106.476 7.256 106.68 7.04C107.232 6.44 107.436 5.888 107.496 5.132C107.496 4.04 106.788 3.548 105.744 3.548C105.096 3.548 104.58 3.728 104.208 4.088C103.836 4.448 103.584 4.88 103.476 5.372ZM109.744 6.8C109.744 5.504 110.044 4.46 110.656 3.68C111.256 2.9 112.144 2.504 113.308 2.504C115.696 2.504 116.884 4.076 116.884 6.8C116.884 8.108 116.584 9.14 115.996 9.92C115.396 10.7 114.508 11.096 113.332 11.096C112.204 11.096 111.328 10.7 110.692 9.908C110.056 9.116 109.744 8.084 109.744 6.8ZM110.848 6.8C110.848 8.852 111.784 10.076 113.332 10.076C114.964 10.076 115.78 8.984 115.78 6.8C115.78 4.616 114.952 3.524 113.308 3.524C111.64 3.524 110.848 4.724 110.848 6.8ZM118.74 5.372L117.864 5.06C118.164 3.572 119.292 2.504 121.08 2.504C122.808 2.504 123.864 3.5 123.864 5.024C123.864 5.828 123.516 6.632 123.084 7.208C122.868 7.508 122.592 7.796 122.268 8.096C121.608 8.684 121.14 8.996 120.456 9.428L119.532 10.004H124.176V11H117.636V10.184L119.46 8.972C119.784 8.768 120.012 8.612 120.144 8.516C120.276 8.432 120.492 8.276 120.78 8.072C121.068 7.868 121.284 7.688 121.428 7.556C121.56 7.424 121.74 7.256 121.944 7.04C122.496 6.44 122.7 5.888 122.76 5.132C122.76 4.04 122.052 3.548 121.008 3.548C120.36 3.548 119.844 3.728 119.472 4.088C119.1 4.448 118.848 4.88 118.74 5.372ZM125.836 5.048L124.936 4.64C125.38 3.344 126.544 2.492 128.284 2.492C129.112 2.492 129.796 2.684 130.324 3.068C130.852 3.452 131.116 3.968 131.116 4.604C131.116 5.576 130.6 6.296 129.64 6.572C130.564 6.632 131.308 7.328 131.308 8.576C131.308 9.368 131.02 9.992 130.444 10.436C129.868 10.88 129.136 11.108 128.236 11.108C126.4 11.108 125.128 10.232 124.708 8.852L125.68 8.432C126.196 9.524 127.072 10.076 128.308 10.076C129.472 10.076 130.204 9.536 130.204 8.588C130.204 7.664 129.484 7.196 128.044 7.196H127.108V6.2H127.852C129.16 6.2 130.012 5.612 130.012 4.808C130.012 3.98 129.328 3.512 128.236 3.512C126.952 3.512 126.172 4.172 125.836 5.048Z" fill="#1A3341" fill-opacity="0.6"/>
<path d="M81 46H189C189.552 46 190 46.4477 190 47V63C190 63.5523 189.552 64 189 64H81V46Z" fill="url(#paint2_linear_7003_29241)"/>
<path d="M198.49 51.804L198.042 50.754L201.402 49.144H202.2V59H200.996V50.642L198.49 51.804ZM205.105 52.434L204.083 52.07C204.433 50.334 205.749 49.088 207.835 49.088C209.851 49.088 211.083 50.25 211.083 52.028C211.083 52.966 210.677 53.904 210.173 54.576C209.921 54.926 209.599 55.262 209.221 55.612C208.451 56.298 207.905 56.662 207.107 57.166L206.029 57.838H211.447V59H203.817V58.048L205.945 56.634C206.323 56.396 206.589 56.214 206.743 56.102C206.897 56.004 207.149 55.822 207.485 55.584C207.821 55.346 208.073 55.136 208.241 54.982C208.395 54.828 208.605 54.632 208.843 54.38C209.487 53.68 209.725 53.036 209.795 52.154C209.795 50.88 208.969 50.306 207.751 50.306C206.995 50.306 206.393 50.516 205.959 50.936C205.525 51.356 205.231 51.86 205.105 52.434ZM220.566 53.918C220.566 55.584 220.174 56.872 219.376 57.768C218.578 58.678 217.514 59.126 216.184 59.126C214.56 59.126 213.286 58.44 212.656 57.39L213.664 56.69C214.224 57.474 215.246 57.922 216.352 57.922C217.262 57.922 217.99 57.558 218.564 56.83C219.138 56.116 219.376 55.22 219.306 54.156C218.844 55.22 217.682 56.004 216.128 56.004C215.036 56.004 214.14 55.696 213.44 55.066C212.726 54.45 212.376 53.638 212.376 52.644C212.376 51.552 212.754 50.684 213.51 50.04C214.266 49.396 215.274 49.074 216.52 49.074C219.04 49.074 220.566 50.838 220.566 53.918ZM219.096 52.602C218.886 51.3 217.99 50.278 216.38 50.278C214.7 50.278 213.664 51.146 213.664 52.602C213.664 53.988 214.714 54.8 216.352 54.8C217.094 54.8 217.724 54.576 218.214 54.128C218.704 53.68 218.998 53.176 219.096 52.602ZM222.554 59C222.036 59.056 221.644 58.762 221.644 58.258C221.644 57.768 221.952 57.46 222.498 57.46C223.114 57.46 223.52 57.88 223.52 58.664C223.52 60.064 222.75 60.778 221.728 61.016L221.434 60.358C221.742 60.274 222.022 60.106 222.274 59.84C222.512 59.574 222.61 59.294 222.554 59ZM224.538 54.366C224.538 52.672 224.958 51.37 225.784 50.446C226.61 49.536 227.646 49.074 228.892 49.074C230.53 49.074 231.818 49.816 232.364 50.992L231.412 51.636C230.838 50.726 229.984 50.278 228.836 50.278C227.968 50.278 227.24 50.614 226.652 51.286C226.064 51.972 225.77 52.896 225.784 54.086C226.33 53.064 227.604 52.448 229.004 52.448C230.138 52.448 231.048 52.742 231.706 53.344C232.364 53.946 232.7 54.744 232.7 55.724C232.7 56.718 232.336 57.544 231.594 58.174C230.852 58.804 229.928 59.126 228.822 59.126C226.176 59.126 224.538 57.404 224.538 54.366ZM225.938 55.556C226.204 56.942 227.254 57.922 228.808 57.922C229.564 57.922 230.194 57.726 230.684 57.32C231.174 56.928 231.412 56.41 231.412 55.78C231.412 54.394 230.432 53.652 228.934 53.652C228.108 53.652 227.422 53.848 226.89 54.24C226.344 54.632 226.036 55.066 225.938 55.556ZM234.675 52.056L233.625 51.58C234.143 50.068 235.501 49.074 237.531 49.074C238.497 49.074 239.295 49.298 239.911 49.746C240.527 50.194 240.835 50.796 240.835 51.538C240.835 52.672 240.233 53.512 239.113 53.834C240.191 53.904 241.059 54.716 241.059 56.172C241.059 57.096 240.723 57.824 240.051 58.342C239.379 58.86 238.525 59.126 237.475 59.126C235.333 59.126 233.849 58.104 233.359 56.494L234.493 56.004C235.095 57.278 236.117 57.922 237.559 57.922C238.917 57.922 239.771 57.292 239.771 56.186C239.771 55.108 238.931 54.562 237.251 54.562H236.159V53.4H237.027C238.553 53.4 239.547 52.714 239.547 51.776C239.547 50.81 238.749 50.264 237.475 50.264C235.977 50.264 235.067 51.034 234.675 52.056ZM243.329 52.434L242.307 52.07C242.657 50.334 243.973 49.088 246.059 49.088C248.075 49.088 249.307 50.25 249.307 52.028C249.307 52.966 248.901 53.904 248.397 54.576C248.145 54.926 247.823 55.262 247.445 55.612C246.675 56.298 246.129 56.662 245.331 57.166L244.253 57.838H249.671V59H242.041V58.048L244.169 56.634C244.547 56.396 244.813 56.214 244.967 56.102C245.121 56.004 245.373 55.822 245.709 55.584C246.045 55.346 246.297 55.136 246.465 54.982C246.619 54.828 246.829 54.632 247.067 54.38C247.711 53.68 247.949 53.036 248.019 52.154C248.019 50.88 247.193 50.306 245.975 50.306C245.219 50.306 244.617 50.516 244.183 50.936C243.749 51.356 243.455 51.86 243.329 52.434Z" fill="#1A3341"/>
<path d="M81 70H222C222.552 70 223 70.4477 223 71V87C223 87.5523 222.552 88 222 88H81V70Z" fill="url(#paint3_linear_7003_29241)"/>
<path d="M231.49 75.804L231.042 74.754L234.402 73.144H235.2V83H233.996V74.642L231.49 75.804ZM242.599 74.39H236.663V73.2H244.097V73.998L239.225 83H237.895L242.599 74.39ZM244.843 78.1C244.843 76.588 245.193 75.37 245.907 74.46C246.607 73.55 247.643 73.088 249.001 73.088C251.787 73.088 253.173 74.922 253.173 78.1C253.173 79.626 252.823 80.83 252.137 81.74C251.437 82.65 250.401 83.112 249.029 83.112C247.713 83.112 246.691 82.65 245.949 81.726C245.207 80.802 244.843 79.598 244.843 78.1ZM246.131 78.1C246.131 80.494 247.223 81.922 249.029 81.922C250.933 81.922 251.885 80.648 251.885 78.1C251.885 75.552 250.919 74.278 249.001 74.278C247.055 74.278 246.131 75.678 246.131 78.1ZM255.157 83C254.639 83.056 254.247 82.762 254.247 82.258C254.247 81.768 254.555 81.46 255.101 81.46C255.717 81.46 256.123 81.88 256.123 82.664C256.123 84.064 255.353 84.778 254.331 85.016L254.037 84.358C254.345 84.274 254.625 84.106 254.877 83.84C255.115 83.574 255.213 83.294 255.157 83ZM257.142 78.1C257.142 76.588 257.492 75.37 258.206 74.46C258.906 73.55 259.942 73.088 261.3 73.088C264.086 73.088 265.472 74.922 265.472 78.1C265.472 79.626 265.122 80.83 264.436 81.74C263.736 82.65 262.7 83.112 261.328 83.112C260.012 83.112 258.99 82.65 258.248 81.726C257.506 80.802 257.142 79.598 257.142 78.1ZM258.43 78.1C258.43 80.494 259.522 81.922 261.328 81.922C263.232 81.922 264.184 80.648 264.184 78.1C264.184 75.552 263.218 74.278 261.3 74.278C259.354 74.278 258.43 75.678 258.43 78.1ZM272.131 74.39H266.195V73.2H273.629V73.998L268.757 83H267.427L272.131 74.39ZM278.239 77.414H278.673C279.303 77.414 279.821 77.26 280.255 76.966C280.675 76.672 280.885 76.28 280.885 75.818C280.885 74.768 280.059 74.236 278.421 74.236C276.853 74.236 275.999 74.81 275.999 75.818C275.999 76.728 276.937 77.414 278.239 77.414ZM278.645 78.52H278.295C277.539 78.52 276.909 78.688 276.419 79.01C275.929 79.332 275.677 79.738 275.677 80.228C275.677 81.292 276.657 81.964 278.435 81.964C280.241 81.964 281.207 81.32 281.207 80.242C281.207 79.164 280.171 78.52 278.645 78.52ZM281.403 82.37C280.689 82.874 279.695 83.126 278.449 83.126C277.203 83.126 276.209 82.874 275.481 82.384C274.753 81.894 274.389 81.222 274.389 80.354C274.389 79.22 275.131 78.324 276.321 77.932C275.243 77.582 274.711 76.728 274.711 75.734C274.711 74.11 276.083 73.074 278.435 73.074C280.801 73.074 282.173 74.11 282.173 75.734C282.173 76.672 281.655 77.386 280.619 77.862C281.865 78.24 282.481 79.052 282.481 80.298C282.481 81.18 282.117 81.88 281.403 82.37Z" fill="#1A3341"/>
<path opacity="0.6" d="M27.3612 57H26.2692V48.6H27.2772L30.4692 52.824L33.5532 48.6H34.5372V57H33.4452V50.484L30.5772 54.348H30.3132L27.3612 50.484V57ZM35.6882 53.868C35.6882 52.92 36.0002 52.14 36.6122 51.528C37.2242 50.916 38.0162 50.616 38.9882 50.616C39.9722 50.616 40.7762 50.916 41.3882 51.528C42.0002 52.14 42.3122 52.92 42.3122 53.868C42.3122 54.816 42.0002 55.584 41.3882 56.196C40.7642 56.808 39.9602 57.108 38.9882 57.108C38.0162 57.108 37.2242 56.808 36.6122 56.196C36.0002 55.584 35.6882 54.816 35.6882 53.868ZM36.7562 53.868C36.7562 54.528 36.9602 55.08 37.3802 55.512C37.8002 55.944 38.3282 56.16 38.9882 56.16C39.6482 56.16 40.2002 55.944 40.6202 55.524C41.0402 55.104 41.2442 54.552 41.2442 53.868C41.2442 53.184 41.0282 52.632 40.6082 52.2C40.1762 51.78 39.6362 51.564 38.9882 51.564C38.3402 51.564 37.8122 51.78 37.3922 52.2C36.9722 52.62 36.7562 53.184 36.7562 53.868ZM47.1388 55.296C47.1388 54.456 45.7108 54.324 44.5708 54C43.7908 53.772 43.1668 53.256 43.1668 52.404C43.1668 51.3 44.2108 50.616 45.7588 50.616C46.8028 50.616 47.6428 51.06 48.0868 51.696L47.3788 52.356C46.9828 51.828 46.3828 51.564 45.5788 51.564C44.8588 51.564 44.2348 51.84 44.2348 52.356C44.2348 53.088 45.6628 53.22 46.8028 53.568C47.5708 53.808 48.1948 54.384 48.1948 55.284C48.1948 56.496 47.2228 57.108 45.6988 57.108C44.4148 57.108 43.3228 56.532 42.8788 55.632L43.6828 55.068C44.0548 55.728 44.9068 56.16 45.8668 56.16C46.7188 56.16 47.1388 55.872 47.1388 55.296ZM53.9916 55.2L54.7116 55.716C54.2436 56.592 53.1876 57.108 52.1436 57.108C51.1476 57.108 50.3436 56.808 49.7316 56.22C49.1196 55.632 48.8076 54.852 48.8076 53.868C48.8076 52.932 49.1076 52.152 49.7196 51.54C50.3316 50.928 51.1116 50.616 52.0836 50.616C53.1996 50.616 54.1956 51.12 54.6156 51.888L53.8356 52.416C53.4156 51.852 52.8396 51.564 52.1076 51.564C51.4596 51.564 50.9316 51.78 50.5116 52.212C50.0916 52.644 49.8756 53.196 49.8756 53.868C49.8756 54.552 50.0916 55.104 50.5356 55.524C50.9676 55.944 51.5316 56.16 52.2396 56.16C52.9836 56.16 53.5716 55.836 53.9916 55.2ZM55.0157 53.868C55.0157 52.92 55.3277 52.14 55.9397 51.528C56.5517 50.916 57.3437 50.616 58.3157 50.616C59.2997 50.616 60.1037 50.916 60.7157 51.528C61.3277 52.14 61.6397 52.92 61.6397 53.868C61.6397 54.816 61.3277 55.584 60.7157 56.196C60.0917 56.808 59.2877 57.108 58.3157 57.108C57.3437 57.108 56.5517 56.808 55.9397 56.196C55.3277 55.584 55.0157 54.816 55.0157 53.868ZM56.0837 53.868C56.0837 54.528 56.2877 55.08 56.7077 55.512C57.1277 55.944 57.6557 56.16 58.3157 56.16C58.9757 56.16 59.5277 55.944 59.9477 55.524C60.3677 55.104 60.5717 54.552 60.5717 53.868C60.5717 53.184 60.3557 52.632 59.9357 52.2C59.5037 51.78 58.9637 51.564 58.3157 51.564C57.6677 51.564 57.1397 51.78 56.7197 52.2C56.2997 52.62 56.0837 53.184 56.0837 53.868ZM70.0431 50.76H71.0751L69.0471 57H68.2311L66.4791 52.32L64.7031 57H63.9111L61.7991 50.76H62.8791L64.3791 55.32L66.0831 50.76H66.8751L68.6151 55.356L70.0431 50.76ZM51.8511 69H50.8431V60.24H51.8511V63.576C52.3311 62.94 53.0031 62.628 53.8791 62.628C55.6311 62.628 56.5071 63.576 56.5071 65.46V69H55.4991V65.556C55.4991 64.212 54.9231 63.576 53.6871 63.576C52.8591 63.576 52.1871 64.104 51.8511 64.872V69ZM62.2898 62.724H63.2978V69H62.2898V68.112C61.8098 68.772 61.1378 69.108 60.2618 69.108C58.5338 69.108 57.6938 68.244 57.6938 66.336V62.724H58.7018V66.192C58.7018 67.5 59.2538 68.16 60.3458 68.16C61.2098 68.16 61.9058 67.668 62.2898 66.804V62.724ZM64.6304 67.86V60.24H65.6384V63.516C66.1544 62.916 66.8504 62.616 67.7024 62.616C68.6024 62.616 69.3224 62.904 69.8384 63.48C70.3544 64.068 70.6184 64.824 70.6184 65.772C70.6184 66.792 70.3304 67.608 69.7424 68.208C69.1544 68.808 68.3744 69.108 67.3904 69.108C66.8504 69.108 66.3224 68.988 65.8064 68.748C65.2904 68.52 64.8944 68.22 64.6304 67.86ZM67.5464 63.564C66.7304 63.564 66.0104 64.08 65.6384 64.764V67.38C66.0584 67.86 66.7904 68.16 67.4624 68.16C68.6744 68.16 69.5504 67.272 69.5504 65.832C69.5504 64.428 68.7464 63.564 67.5464 63.564Z" fill="#1A3341"/>
<path d="M81 121H92C92.5523 121 93 121.448 93 122V138C93 138.552 92.5523 139 92 139H81V121Z" fill="url(#paint4_linear_7003_29241)"/>
<path d="M101.49 126.804L101.042 125.754L104.402 124.144H105.2V134H103.996V125.642L101.49 126.804ZM113.747 134H112.529V131.998H106.537V131.186L112.669 124.2H113.747V130.864H115.567V131.998H113.747V134ZM112.529 126.16L108.217 130.864H112.529V126.16ZM117.19 134C116.672 134.056 116.28 133.762 116.28 133.258C116.28 132.768 116.588 132.46 117.134 132.46C117.75 132.46 118.156 132.88 118.156 133.664C118.156 135.064 117.386 135.778 116.364 136.016L116.07 135.358C116.378 135.274 116.658 135.106 116.91 134.84C117.148 134.574 117.246 134.294 117.19 134ZM119.174 129.1C119.174 127.588 119.524 126.37 120.238 125.46C120.938 124.55 121.974 124.088 123.332 124.088C126.118 124.088 127.504 125.922 127.504 129.1C127.504 130.626 127.154 131.83 126.468 132.74C125.768 133.65 124.732 134.112 123.36 134.112C122.044 134.112 121.022 133.65 120.28 132.726C119.538 131.802 119.174 130.598 119.174 129.1ZM120.462 129.1C120.462 131.494 121.554 132.922 123.36 132.922C125.264 132.922 126.216 131.648 126.216 129.1C126.216 126.552 125.25 125.278 123.332 125.278C121.386 125.278 120.462 126.678 120.462 129.1ZM136.698 128.918C136.698 130.584 136.306 131.872 135.508 132.768C134.71 133.678 133.646 134.126 132.316 134.126C130.692 134.126 129.418 133.44 128.788 132.39L129.796 131.69C130.356 132.474 131.378 132.922 132.484 132.922C133.394 132.922 134.122 132.558 134.696 131.83C135.27 131.116 135.508 130.22 135.438 129.156C134.976 130.22 133.814 131.004 132.26 131.004C131.168 131.004 130.272 130.696 129.572 130.066C128.858 129.45 128.508 128.638 128.508 127.644C128.508 126.552 128.886 125.684 129.642 125.04C130.398 124.396 131.406 124.074 132.652 124.074C135.172 124.074 136.698 125.838 136.698 128.918ZM135.228 127.602C135.018 126.3 134.122 125.278 132.512 125.278C130.832 125.278 129.796 126.146 129.796 127.602C129.796 128.988 130.846 129.8 132.484 129.8C133.226 129.8 133.856 129.576 134.346 129.128C134.836 128.68 135.13 128.176 135.228 127.602ZM141.612 128.414H142.046C142.676 128.414 143.194 128.26 143.628 127.966C144.048 127.672 144.258 127.28 144.258 126.818C144.258 125.768 143.432 125.236 141.794 125.236C140.226 125.236 139.372 125.81 139.372 126.818C139.372 127.728 140.31 128.414 141.612 128.414ZM142.018 129.52H141.668C140.912 129.52 140.282 129.688 139.792 130.01C139.302 130.332 139.05 130.738 139.05 131.228C139.05 132.292 140.03 132.964 141.808 132.964C143.614 132.964 144.58 132.32 144.58 131.242C144.58 130.164 143.544 129.52 142.018 129.52ZM144.776 133.37C144.062 133.874 143.068 134.126 141.822 134.126C140.576 134.126 139.582 133.874 138.854 133.384C138.126 132.894 137.762 132.222 137.762 131.354C137.762 130.22 138.504 129.324 139.694 128.932C138.616 128.582 138.084 127.728 138.084 126.734C138.084 125.11 139.456 124.074 141.808 124.074C144.174 124.074 145.546 125.11 145.546 126.734C145.546 127.672 145.028 128.386 143.992 128.862C145.238 129.24 145.854 130.052 145.854 131.298C145.854 132.18 145.49 132.88 144.776 133.37Z" fill="#1A3341"/>
<path d="M81 145H129C129.552 145 130 145.448 130 146V162C130 162.552 129.552 163 129 163H81V145Z" fill="url(#paint5_linear_7003_29241)"/>
<path d="M140.03 153.492L139.022 153.226L139.596 148.2H145.756V149.39H140.674L140.31 152.022C140.8 151.658 141.542 151.476 142.536 151.476C143.684 151.476 144.58 151.784 145.238 152.386C145.882 153.002 146.204 153.786 146.204 154.752C146.204 155.718 145.84 156.53 145.126 157.16C144.398 157.804 143.488 158.126 142.41 158.126C140.576 158.126 139.05 157.258 138.42 155.732L139.54 155.256C139.946 156.194 140.996 156.936 142.41 156.936C144.02 156.936 144.916 156.012 144.916 154.794C144.916 153.492 143.866 152.652 142.2 152.652C141.304 152.652 140.576 152.932 140.03 153.492ZM155.415 152.918C155.415 154.584 155.023 155.872 154.225 156.768C153.427 157.678 152.363 158.126 151.033 158.126C149.409 158.126 148.135 157.44 147.505 156.39L148.513 155.69C149.073 156.474 150.095 156.922 151.201 156.922C152.111 156.922 152.839 156.558 153.413 155.83C153.987 155.116 154.225 154.22 154.155 153.156C153.693 154.22 152.531 155.004 150.977 155.004C149.885 155.004 148.989 154.696 148.289 154.066C147.575 153.45 147.225 152.638 147.225 151.644C147.225 150.552 147.603 149.684 148.359 149.04C149.115 148.396 150.123 148.074 151.369 148.074C153.889 148.074 155.415 149.838 155.415 152.918ZM153.945 151.602C153.735 150.3 152.839 149.278 151.229 149.278C149.549 149.278 148.513 150.146 148.513 151.602C148.513 152.988 149.563 153.8 151.201 153.8C151.943 153.8 152.573 153.576 153.063 153.128C153.553 152.68 153.847 152.176 153.945 151.602ZM157.403 158C156.885 158.056 156.493 157.762 156.493 157.258C156.493 156.768 156.801 156.46 157.347 156.46C157.963 156.46 158.369 156.88 158.369 157.664C158.369 159.064 157.599 159.778 156.577 160.016L156.283 159.358C156.591 159.274 156.871 159.106 157.123 158.84C157.361 158.574 157.459 158.294 157.403 158ZM166.149 158H164.931V155.998H158.939V155.186L165.071 148.2H166.149V154.864H167.969V155.998H166.149V158ZM164.931 150.16L160.619 154.864H164.931V150.16ZM176.801 152.918C176.801 154.584 176.409 155.872 175.611 156.768C174.813 157.678 173.749 158.126 172.419 158.126C170.795 158.126 169.521 157.44 168.891 156.39L169.899 155.69C170.459 156.474 171.481 156.922 172.587 156.922C173.497 156.922 174.225 156.558 174.799 155.83C175.373 155.116 175.611 154.22 175.541 153.156C175.079 154.22 173.917 155.004 172.363 155.004C171.271 155.004 170.375 154.696 169.675 154.066C168.961 153.45 168.611 152.638 168.611 151.644C168.611 150.552 168.989 149.684 169.745 149.04C170.501 148.396 171.509 148.074 172.755 148.074C175.275 148.074 176.801 149.838 176.801 152.918ZM175.331 151.602C175.121 150.3 174.225 149.278 172.615 149.278C170.935 149.278 169.899 150.146 169.899 151.602C169.899 152.988 170.949 153.8 172.587 153.8C173.329 153.8 173.959 153.576 174.449 153.128C174.939 152.68 175.233 152.176 175.331 151.602ZM184.613 158H183.395V155.998H177.403V155.186L183.535 148.2H184.613V154.864H186.433V155.998H184.613V158ZM183.395 150.16L179.083 154.864H183.395V150.16Z" fill="#1A3341"/>
<path opacity="0.6" d="M34.7878 145H31.4518V136.6H34.8478C36.9958 136.6 37.8118 137.38 37.8118 138.688C37.8118 139.624 37.4158 140.26 36.6238 140.608C37.5478 140.8 38.1118 141.508 38.1118 142.6C38.1118 144.244 36.8878 145 34.7878 145ZM34.8958 141.208H32.5438V143.98H34.7758C36.2998 143.98 36.9838 143.536 36.9838 142.54C36.9838 141.652 36.2878 141.208 34.8958 141.208ZM34.7518 137.62H32.5438V140.212H34.9318C35.9998 140.212 36.6958 139.732 36.6958 138.916C36.6958 138.016 36.1798 137.62 34.7518 137.62ZM44.074 143.212L44.722 143.812C44.146 144.676 43.318 145.108 42.226 145.108C41.23 145.108 40.426 144.808 39.814 144.22C39.202 143.632 38.902 142.852 38.902 141.868C38.902 140.92 39.178 140.14 39.742 139.528C40.294 138.916 41.074 138.616 42.082 138.616C42.91 138.616 43.606 138.88 44.146 139.396C44.686 139.912 44.962 140.596 44.962 141.448C44.962 141.724 44.938 141.976 44.902 142.204H39.982C40.042 143.44 40.954 144.16 42.262 144.16C42.994 144.16 43.69 143.776 44.074 143.212ZM42.01 139.54C40.87 139.54 40.126 140.236 39.97 141.292H43.894C43.834 140.188 43.126 139.54 42.01 139.54ZM47.066 145H46.058V136.24H47.066V145ZM48.9822 140.26L48.4662 139.504C49.0422 138.964 50.0382 138.616 50.9622 138.616C52.6302 138.616 53.5182 139.528 53.5182 141.148V145H52.5102V144.076C52.1142 144.652 51.3342 145.084 50.3262 145.084C48.9702 145.084 48.0582 144.328 48.0582 143.176C48.0582 141.868 49.1742 141.244 51.0462 141.244C51.6342 141.244 52.1142 141.304 52.5102 141.424C52.5102 140.212 52.0782 139.564 50.8422 139.564C50.2182 139.564 49.5942 139.792 48.9822 140.26ZM50.5662 144.172C51.0342 144.172 51.4542 144.04 51.8022 143.788C52.1502 143.536 52.3782 143.248 52.5102 142.948V142.312C52.1622 142.192 51.7182 142.132 51.1782 142.132C49.8102 142.132 49.1262 142.468 49.1262 143.14C49.1262 143.776 49.7022 144.172 50.5662 144.172ZM55.8003 145H54.7923V138.76H55.8003V139.24C56.0043 138.82 56.5443 138.628 57.0843 138.628C57.6363 138.628 58.0563 138.82 58.3563 139.192L57.7203 139.888C57.5643 139.684 57.3243 139.576 56.9763 139.576C56.4363 139.576 55.9443 140.02 55.8003 140.656V145ZM63.4265 138.724H64.4345V145H63.4265V144.112C62.9465 144.772 62.2745 145.108 61.3985 145.108C59.6705 145.108 58.8305 144.244 58.8305 142.336V138.724H59.8385V142.192C59.8385 143.5 60.3905 144.16 61.4825 144.16C62.3465 144.16 63.0425 143.668 63.4265 142.804V138.724ZM69.5952 143.296C69.5952 142.456 68.1672 142.324 67.0272 142C66.2472 141.772 65.6232 141.256 65.6232 140.404C65.6232 139.3 66.6672 138.616 68.2152 138.616C69.2592 138.616 70.0992 139.06 70.5432 139.696L69.8352 140.356C69.4392 139.828 68.8392 139.564 68.0352 139.564C67.3152 139.564 66.6912 139.84 66.6912 140.356C66.6912 141.088 68.1192 141.22 69.2592 141.568C70.0272 141.808 70.6512 142.384 70.6512 143.284C70.6512 144.496 69.6792 145.108 68.1552 145.108C66.8712 145.108 65.7792 144.532 65.3352 143.632L66.1392 143.068C66.5112 143.728 67.3632 144.16 68.3232 144.16C69.1752 144.16 69.5952 143.872 69.5952 143.296Z" fill="#1A3341"/>
<path d="M81 196H96C96.5523 196 97 196.448 97 197V213C97 213.552 96.5523 214 96 214H81V196Z" fill="url(#paint6_linear_7003_29241)"/>
<path d="M105.49 201.804L105.042 200.754L108.402 199.144H109.2V209H107.996V200.642L105.49 201.804ZM114.849 203.414H115.283C115.913 203.414 116.431 203.26 116.865 202.966C117.285 202.672 117.495 202.28 117.495 201.818C117.495 200.768 116.669 200.236 115.031 200.236C113.463 200.236 112.609 200.81 112.609 201.818C112.609 202.728 113.547 203.414 114.849 203.414ZM115.255 204.52H114.905C114.149 204.52 113.519 204.688 113.029 205.01C112.539 205.332 112.287 205.738 112.287 206.228C112.287 207.292 113.267 207.964 115.045 207.964C116.851 207.964 117.817 207.32 117.817 206.242C117.817 205.164 116.781 204.52 115.255 204.52ZM118.013 208.37C117.299 208.874 116.305 209.126 115.059 209.126C113.813 209.126 112.819 208.874 112.091 208.384C111.363 207.894 110.999 207.222 110.999 206.354C110.999 205.22 111.741 204.324 112.931 203.932C111.853 203.582 111.321 202.728 111.321 201.734C111.321 200.11 112.693 199.074 115.045 199.074C117.411 199.074 118.783 200.11 118.783 201.734C118.783 202.672 118.265 203.386 117.229 203.862C118.475 204.24 119.091 205.052 119.091 206.298C119.091 207.18 118.727 207.88 118.013 208.37ZM121.121 209C120.603 209.056 120.211 208.762 120.211 208.258C120.211 207.768 120.519 207.46 121.065 207.46C121.681 207.46 122.087 207.88 122.087 208.664C122.087 210.064 121.317 210.778 120.295 211.016L120.001 210.358C120.309 210.274 120.589 210.106 120.841 209.84C121.079 209.574 121.177 209.294 121.121 209ZM131.254 203.918C131.254 205.584 130.862 206.872 130.064 207.768C129.266 208.678 128.202 209.126 126.872 209.126C125.248 209.126 123.974 208.44 123.344 207.39L124.352 206.69C124.912 207.474 125.934 207.922 127.04 207.922C127.95 207.922 128.678 207.558 129.252 206.83C129.826 206.116 130.064 205.22 129.994 204.156C129.532 205.22 128.37 206.004 126.816 206.004C125.724 206.004 124.828 205.696 124.128 205.066C123.414 204.45 123.064 203.638 123.064 202.644C123.064 201.552 123.442 200.684 124.198 200.04C124.954 199.396 125.962 199.074 127.208 199.074C129.728 199.074 131.254 200.838 131.254 203.918ZM129.784 202.602C129.574 201.3 128.678 200.278 127.068 200.278C125.388 200.278 124.352 201.146 124.352 202.602C124.352 203.988 125.402 204.8 127.04 204.8C127.782 204.8 128.412 204.576 128.902 204.128C129.392 203.68 129.686 203.176 129.784 202.602ZM133.424 202.434L132.402 202.07C132.752 200.334 134.068 199.088 136.154 199.088C138.17 199.088 139.402 200.25 139.402 202.028C139.402 202.966 138.996 203.904 138.492 204.576C138.24 204.926 137.918 205.262 137.54 205.612C136.77 206.298 136.224 206.662 135.426 207.166L134.348 207.838H139.766V209H132.136V208.048L134.264 206.634C134.642 206.396 134.908 206.214 135.062 206.102C135.216 206.004 135.468 205.822 135.804 205.584C136.14 205.346 136.392 205.136 136.56 204.982C136.714 204.828 136.924 204.632 137.162 204.38C137.806 203.68 138.044 203.036 138.114 202.154C138.114 200.88 137.288 200.306 136.07 200.306C135.314 200.306 134.712 200.516 134.278 200.936C133.844 201.356 133.55 201.86 133.424 202.434ZM144.6 203.414H145.034C145.664 203.414 146.182 203.26 146.616 202.966C147.036 202.672 147.246 202.28 147.246 201.818C147.246 200.768 146.42 200.236 144.782 200.236C143.214 200.236 142.36 200.81 142.36 201.818C142.36 202.728 143.298 203.414 144.6 203.414ZM145.006 204.52H144.656C143.9 204.52 143.27 204.688 142.78 205.01C142.29 205.332 142.038 205.738 142.038 206.228C142.038 207.292 143.018 207.964 144.796 207.964C146.602 207.964 147.568 207.32 147.568 206.242C147.568 205.164 146.532 204.52 145.006 204.52ZM147.764 208.37C147.05 208.874 146.056 209.126 144.81 209.126C143.564 209.126 142.57 208.874 141.842 208.384C141.114 207.894 140.75 207.222 140.75 206.354C140.75 205.22 141.492 204.324 142.682 203.932C141.604 203.582 141.072 202.728 141.072 201.734C141.072 200.11 142.444 199.074 144.796 199.074C147.162 199.074 148.534 200.11 148.534 201.734C148.534 202.672 148.016 203.386 146.98 203.862C148.226 204.24 148.842 205.052 148.842 206.298C148.842 207.18 148.478 207.88 147.764 208.37Z" fill="#1A3341"/>
<path d="M81 220H102C102.552 220 103 220.448 103 221V237C103 237.552 102.552 238 102 238H81V220Z" fill="url(#paint7_linear_7003_29241)"/>
<path d="M112.722 226.434L111.7 226.07C112.05 224.334 113.366 223.088 115.452 223.088C117.468 223.088 118.7 224.25 118.7 226.028C118.7 226.966 118.294 227.904 117.79 228.576C117.538 228.926 117.216 229.262 116.838 229.612C116.068 230.298 115.522 230.662 114.724 231.166L113.646 231.838H119.064V233H111.434V232.048L113.562 230.634C113.94 230.396 114.206 230.214 114.36 230.102C114.514 230.004 114.766 229.822 115.102 229.584C115.438 229.346 115.69 229.136 115.858 228.982C116.012 228.828 116.222 228.632 116.46 228.38C117.104 227.68 117.342 227.036 117.412 226.154C117.412 224.88 116.586 224.306 115.368 224.306C114.612 224.306 114.01 224.516 113.576 224.936C113.142 225.356 112.848 225.86 112.722 226.434ZM121.462 228.492L120.454 228.226L121.028 223.2H127.188V224.39H122.106L121.742 227.022C122.232 226.658 122.974 226.476 123.968 226.476C125.116 226.476 126.012 226.784 126.67 227.386C127.314 228.002 127.636 228.786 127.636 229.752C127.636 230.718 127.272 231.53 126.558 232.16C125.83 232.804 124.92 233.126 123.842 233.126C122.008 233.126 120.482 232.258 119.852 230.732L120.972 230.256C121.378 231.194 122.428 231.936 123.842 231.936C125.452 231.936 126.348 231.012 126.348 229.794C126.348 228.492 125.298 227.652 123.632 227.652C122.736 227.652 122.008 227.932 121.462 228.492ZM129.637 233C129.119 233.056 128.727 232.762 128.727 232.258C128.727 231.768 129.035 231.46 129.581 231.46C130.197 231.46 130.603 231.88 130.603 232.664C130.603 234.064 129.833 234.778 128.811 235.016L128.517 234.358C128.825 234.274 129.105 234.106 129.357 233.84C129.595 233.574 129.693 233.294 129.637 233ZM133.049 228.492L132.041 228.226L132.615 223.2H138.775V224.39H133.693L133.329 227.022C133.819 226.658 134.561 226.476 135.555 226.476C136.703 226.476 137.599 226.784 138.257 227.386C138.901 228.002 139.223 228.786 139.223 229.752C139.223 230.718 138.859 231.53 138.145 232.16C137.417 232.804 136.507 233.126 135.429 233.126C133.595 233.126 132.069 232.258 131.439 230.732L132.559 230.256C132.965 231.194 134.015 231.936 135.429 231.936C137.039 231.936 137.935 231.012 137.935 229.794C137.935 228.492 136.885 227.652 135.219 227.652C134.323 227.652 133.595 227.932 133.049 228.492ZM141.714 228.492L140.706 228.226L141.28 223.2H147.44V224.39H142.358L141.994 227.022C142.484 226.658 143.226 226.476 144.22 226.476C145.368 226.476 146.264 226.784 146.922 227.386C147.566 228.002 147.888 228.786 147.888 229.752C147.888 230.718 147.524 231.53 146.81 232.16C146.082 232.804 145.172 233.126 144.094 233.126C142.26 233.126 140.734 232.258 140.104 230.732L141.224 230.256C141.63 231.194 142.68 231.936 144.094 231.936C145.704 231.936 146.6 231.012 146.6 229.794C146.6 228.492 145.55 227.652 143.884 227.652C142.988 227.652 142.26 227.932 141.714 228.492ZM148.951 228.1C148.951 226.588 149.301 225.37 150.015 224.46C150.715 223.55 151.751 223.088 153.109 223.088C155.895 223.088 157.281 224.922 157.281 228.1C157.281 229.626 156.931 230.83 156.245 231.74C155.545 232.65 154.509 233.112 153.137 233.112C151.821 233.112 150.799 232.65 150.057 231.726C149.315 230.802 148.951 229.598 148.951 228.1ZM150.239 228.1C150.239 230.494 151.331 231.922 153.137 231.922C155.041 231.922 155.993 230.648 155.993 228.1C155.993 225.552 155.027 224.278 153.109 224.278C151.163 224.278 150.239 225.678 150.239 228.1Z" fill="#1A3341"/>
<path opacity="0.6" d="M39.4656 210.8C39.4656 209.588 39.8736 208.556 40.7016 207.728C41.5296 206.9 42.5376 206.492 43.7376 206.492C44.9256 206.492 45.9336 206.9 46.7616 207.716C47.5896 208.532 47.9976 209.564 47.9976 210.8C47.9976 212.024 47.5896 213.044 46.7616 213.872C45.9336 214.7 44.9256 215.108 43.7376 215.108C42.5376 215.108 41.5296 214.7 40.7016 213.884C39.8736 213.068 39.4656 212.036 39.4656 210.8ZM40.6056 210.8C40.6056 211.736 40.9176 212.516 41.5296 213.128C42.1416 213.752 42.8736 214.064 43.7376 214.064C44.6256 214.064 45.3696 213.752 45.9696 213.14C46.5576 212.528 46.8576 211.748 46.8576 210.8C46.8576 209.852 46.5576 209.072 45.9456 208.46C45.3336 207.848 44.5896 207.536 43.7376 207.536C42.8616 207.536 42.1296 207.848 41.5176 208.46C40.9056 209.072 40.6056 209.852 40.6056 210.8ZM49.68 209.72H48.384V208.76H49.68V207.164H50.688V208.76H52.836V209.72H50.688V212.468C50.688 213.68 51 214.124 51.768 214.124C52.14 214.124 52.524 213.98 52.896 213.68L53.352 214.424C52.956 214.868 52.368 215.084 51.588 215.084C50.352 215.084 49.68 214.268 49.68 212.732V209.72ZM54.9711 215H53.9631V206.24H54.9711V209.576C55.4511 208.94 56.1231 208.628 56.9991 208.628C58.7511 208.628 59.6271 209.576 59.6271 211.46V215H58.6191V211.556C58.6191 210.212 58.0431 209.576 56.8071 209.576C55.9791 209.576 55.3071 210.104 54.9711 210.872V215ZM65.7218 213.212L66.3698 213.812C65.7938 214.676 64.9658 215.108 63.8738 215.108C62.8778 215.108 62.0738 214.808 61.4618 214.22C60.8498 213.632 60.5498 212.852 60.5498 211.868C60.5498 210.92 60.8258 210.14 61.3898 209.528C61.9418 208.916 62.7218 208.616 63.7298 208.616C64.5578 208.616 65.2538 208.88 65.7938 209.396C66.3338 209.912 66.6098 210.596 66.6098 211.448C66.6098 211.724 66.5858 211.976 66.5498 212.204H61.6298C61.6898 213.44 62.6018 214.16 63.9098 214.16C64.6418 214.16 65.3378 213.776 65.7218 213.212ZM63.6578 209.54C62.5178 209.54 61.7738 210.236 61.6178 211.292H65.5418C65.4818 210.188 64.7738 209.54 63.6578 209.54ZM68.6178 215H67.6098V208.76H68.6178V209.24C68.8218 208.82 69.3618 208.628 69.9018 208.628C70.4538 208.628 70.8738 208.82 71.1738 209.192L70.5378 209.888C70.3818 209.684 70.1418 209.576 69.7938 209.576C69.2538 209.576 68.7618 210.02 68.6178 210.656V215ZM12.1392 227H11.1312V226.256C10.8552 226.688 10.1352 227.108 9.18725 227.108C8.26325 227.108 7.53125 226.82 6.96725 226.244C6.40325 225.668 6.11525 224.888 6.11525 223.892C6.11525 222.932 6.41525 222.14 7.02725 221.528C7.63925 220.916 8.38325 220.616 9.27125 220.616C10.0992 220.616 10.7232 220.82 11.1312 221.228V218.24H12.1392V227ZM9.33125 226.148C10.1832 226.148 10.8432 225.548 11.1312 224.96V222.44C10.7352 221.852 10.1472 221.564 9.39125 221.564C8.77925 221.564 8.25125 221.78 7.83125 222.2C7.39925 222.62 7.18325 223.184 7.18325 223.868C7.18325 225.26 8.07125 226.148 9.33125 226.148ZM18.304 225.212L18.952 225.812C18.376 226.676 17.548 227.108 16.456 227.108C15.46 227.108 14.656 226.808 14.044 226.22C13.432 225.632 13.132 224.852 13.132 223.868C13.132 222.92 13.408 222.14 13.972 221.528C14.524 220.916 15.304 220.616 16.312 220.616C17.14 220.616 17.836 220.88 18.376 221.396C18.916 221.912 19.192 222.596 19.192 223.448C19.192 223.724 19.168 223.976 19.132 224.204H14.212C14.272 225.44 15.184 226.16 16.492 226.16C17.224 226.16 17.92 225.776 18.304 225.212ZM16.24 221.54C15.1 221.54 14.356 222.236 14.2 223.292H18.124C18.064 222.188 17.356 221.54 16.24 221.54ZM24.02 225.296C24.02 224.456 22.592 224.324 21.452 224C20.672 223.772 20.048 223.256 20.048 222.404C20.048 221.3 21.092 220.616 22.64 220.616C23.684 220.616 24.524 221.06 24.968 221.696L24.26 222.356C23.864 221.828 23.264 221.564 22.46 221.564C21.74 221.564 21.116 221.84 21.116 222.356C21.116 223.088 22.544 223.22 23.684 223.568C24.452 223.808 25.076 224.384 25.076 225.284C25.076 226.496 24.104 227.108 22.58 227.108C21.296 227.108 20.204 226.532 19.76 225.632L20.564 225.068C20.936 225.728 21.788 226.16 22.748 226.16C23.6 226.16 24.02 225.872 24.02 225.296ZM26.6728 221.72H25.3768V220.76H26.6728V219.164H27.6808V220.76H29.8288V221.72H27.6808V224.468C27.6808 225.68 27.9928 226.124 28.7608 226.124C29.1328 226.124 29.5168 225.98 29.8888 225.68L30.3448 226.424C29.9488 226.868 29.3608 227.084 28.5808 227.084C27.3448 227.084 26.6728 226.268 26.6728 224.732V221.72ZM32.0959 227H31.0879V220.76H32.0959V227ZM30.9559 218.732C30.9559 218.396 31.2319 218.144 31.6039 218.144C31.9399 218.144 32.2279 218.396 32.2279 218.732C32.2279 219.08 31.9399 219.356 31.6039 219.356C31.2319 219.356 30.9559 219.08 30.9559 218.732ZM34.5744 227H33.5664V220.76H34.5744V221.576C34.9704 220.964 35.7864 220.628 36.7104 220.628C38.4024 220.628 39.2424 221.564 39.2424 223.448V227H38.2344V223.568C38.2344 222.188 37.6464 221.576 36.4104 221.576C35.6424 221.576 34.9104 222.08 34.5744 222.836V227ZM40.9928 222.26L40.4768 221.504C41.0528 220.964 42.0488 220.616 42.9728 220.616C44.6408 220.616 45.5288 221.528 45.5288 223.148V227H44.5208V226.076C44.1248 226.652 43.3448 227.084 42.3368 227.084C40.9808 227.084 40.0688 226.328 40.0688 225.176C40.0688 223.868 41.1848 223.244 43.0568 223.244C43.6448 223.244 44.1248 223.304 44.5208 223.424C44.5208 222.212 44.0888 221.564 42.8528 221.564C42.2288 221.564 41.6048 221.792 40.9928 222.26ZM42.5768 226.172C43.0448 226.172 43.4648 226.04 43.8128 225.788C44.1608 225.536 44.3888 225.248 44.5208 224.948V224.312C44.1728 224.192 43.7288 224.132 43.1888 224.132C41.8208 224.132 41.1368 224.468 41.1368 225.14C41.1368 225.776 41.7128 226.172 42.5768 226.172ZM47.4389 221.72H46.1429V220.76H47.4389V219.164H48.4469V220.76H50.5949V221.72H48.4469V224.468C48.4469 225.68 48.7589 226.124 49.5269 226.124C49.8989 226.124 50.2829 225.98 50.6549 225.68L51.1109 226.424C50.7149 226.868 50.1269 227.084 49.3469 227.084C48.1109 227.084 47.4389 226.268 47.4389 224.732V221.72ZM51.1982 223.868C51.1982 222.92 51.5102 222.14 52.1222 221.528C52.7342 220.916 53.5262 220.616 54.4982 220.616C55.4822 220.616 56.2862 220.916 56.8982 221.528C57.5102 222.14 57.8222 222.92 57.8222 223.868C57.8222 224.816 57.5102 225.584 56.8982 226.196C56.2742 226.808 55.4702 227.108 54.4982 227.108C53.5262 227.108 52.7342 226.808 52.1222 226.196C51.5102 225.584 51.1982 224.816 51.1982 223.868ZM52.2662 223.868C52.2662 224.528 52.4702 225.08 52.8902 225.512C53.3102 225.944 53.8382 226.16 54.4982 226.16C55.1582 226.16 55.7102 225.944 56.1302 225.524C56.5502 225.104 56.7542 224.552 56.7542 223.868C56.7542 223.184 56.5382 222.632 56.1182 222.2C55.6862 221.78 55.1462 221.564 54.4982 221.564C53.8502 221.564 53.3222 221.78 52.9022 222.2C52.4822 222.62 52.2662 223.184 52.2662 223.868ZM59.8287 227H58.8207V220.76H59.8287V221.576C60.2247 220.964 61.0407 220.628 61.9647 220.628C63.6567 220.628 64.4967 221.564 64.4967 223.448V227H63.4887V223.568C63.4887 222.188 62.9007 221.576 61.6647 221.576C60.8967 221.576 60.1647 222.08 59.8287 222.836V227ZM69.5952 225.296C69.5952 224.456 68.1672 224.324 67.0272 224C66.2472 223.772 65.6232 223.256 65.6232 222.404C65.6232 221.3 66.6672 220.616 68.2152 220.616C69.2592 220.616 70.0992 221.06 70.5432 221.696L69.8352 222.356C69.4392 221.828 68.8392 221.564 68.0352 221.564C67.3152 221.564 66.6912 221.84 66.6912 222.356C66.6912 223.088 68.1192 223.22 69.2592 223.568C70.0272 223.808 70.6512 224.384 70.6512 225.284C70.6512 226.496 69.6792 227.108 68.1552 227.108C66.8712 227.108 65.7792 226.532 65.3352 225.632L66.1392 225.068C66.5112 225.728 67.3632 226.16 68.3232 226.16C69.1752 226.16 69.5952 225.872 69.5952 225.296Z" fill="#1A3341"/>
<line x1="81.5" y1="32" x2="81.5" y2="262" stroke="#ABBEC9"/>
<path d="M171.196 224L166 232L176.393 232L171.196 224Z" fill="#737AF9"/>
<path d="M210.765 151.056L209.715 150.58C210.233 149.068 211.591 148.074 213.621 148.074C214.587 148.074 215.385 148.298 216.001 148.746C216.617 149.194 216.925 149.796 216.925 150.538C216.925 151.672 216.323 152.512 215.203 152.834C216.281 152.904 217.149 153.716 217.149 155.172C217.149 156.096 216.813 156.824 216.141 157.342C215.469 157.86 214.615 158.126 213.565 158.126C211.423 158.126 209.939 157.104 209.449 155.494L210.583 155.004C211.185 156.278 212.207 156.922 213.649 156.922C215.007 156.922 215.861 156.292 215.861 155.186C215.861 154.108 215.021 153.562 213.341 153.562H212.249V152.4H213.117C214.643 152.4 215.637 151.714 215.637 150.776C215.637 149.81 214.839 149.264 213.565 149.264C212.067 149.264 211.157 150.034 210.765 151.056ZM219.42 151.434L218.398 151.07C218.748 149.334 220.064 148.088 222.15 148.088C224.166 148.088 225.398 149.25 225.398 151.028C225.398 151.966 224.992 152.904 224.488 153.576C224.236 153.926 223.914 154.262 223.536 154.612C222.766 155.298 222.22 155.662 221.422 156.166L220.344 156.838H225.762V158H218.132V157.048L220.26 155.634C220.638 155.396 220.904 155.214 221.058 155.102C221.212 155.004 221.464 154.822 221.8 154.584C222.136 154.346 222.388 154.136 222.556 153.982C222.71 153.828 222.92 153.632 223.158 153.38C223.802 152.68 224.04 152.036 224.11 151.154C224.11 149.88 223.284 149.306 222.066 149.306C221.31 149.306 220.708 149.516 220.274 149.936C219.84 150.356 219.546 150.86 219.42 151.434ZM227.852 151.434L226.83 151.07C227.18 149.334 228.496 148.088 230.582 148.088C232.598 148.088 233.83 149.25 233.83 151.028C233.83 151.966 233.424 152.904 232.92 153.576C232.668 153.926 232.346 154.262 231.968 154.612C231.198 155.298 230.652 155.662 229.854 156.166L228.776 156.838H234.194V158H226.564V157.048L228.692 155.634C229.07 155.396 229.336 155.214 229.49 155.102C229.644 155.004 229.896 154.822 230.232 154.584C230.568 154.346 230.82 154.136 230.988 153.982C231.142 153.828 231.352 153.632 231.59 153.38C232.234 152.68 232.472 152.036 232.542 151.154C232.542 149.88 231.716 149.306 230.498 149.306C229.742 149.306 229.14 149.516 228.706 149.936C228.272 150.356 227.978 150.86 227.852 151.434ZM237.6 158.21L236.676 157.678L243.914 147.892L244.796 148.536L237.6 158.21ZM235.164 150.552C235.164 149.852 235.402 149.278 235.892 148.83C236.382 148.382 236.984 148.158 237.726 148.158C238.454 148.158 239.056 148.382 239.546 148.83C240.036 149.278 240.274 149.852 240.274 150.552C240.274 151.238 240.036 151.812 239.546 152.26C239.056 152.708 238.454 152.932 237.726 152.932C236.984 152.932 236.382 152.708 235.892 152.26C235.402 151.812 235.164 151.238 235.164 150.552ZM236.34 150.552C236.34 151.35 236.984 151.938 237.726 151.938C238.496 151.938 239.098 151.378 239.098 150.552C239.098 149.726 238.468 149.166 237.726 149.166C236.956 149.166 236.34 149.726 236.34 150.552ZM241.898 157.384C241.408 156.936 241.17 156.362 241.17 155.662C241.17 154.962 241.408 154.388 241.898 153.94C242.388 153.506 242.99 153.282 243.732 153.282C244.46 153.282 245.062 153.506 245.552 153.94C246.042 154.388 246.28 154.962 246.28 155.662C246.28 156.348 246.042 156.922 245.552 157.37C245.062 157.832 244.46 158.056 243.732 158.056C242.99 158.056 242.388 157.832 241.898 157.384ZM242.346 155.662C242.346 156.46 242.99 157.048 243.732 157.048C244.502 157.048 245.104 156.488 245.104 155.662C245.104 154.836 244.474 154.276 243.732 154.276C242.962 154.276 242.346 154.836 242.346 155.662Z" fill="#737AF9"/>
<path d="M200.196 149L195 157L205.393 157L200.196 149Z" fill="#737AF9"/>
<path d="M181.765 226.056L180.715 225.58C181.233 224.068 182.591 223.074 184.621 223.074C185.587 223.074 186.385 223.298 187.001 223.746C187.617 224.194 187.925 224.796 187.925 225.538C187.925 226.672 187.323 227.512 186.203 227.834C187.281 227.904 188.149 228.716 188.149 230.172C188.149 231.096 187.813 231.824 187.141 232.342C186.469 232.86 185.615 233.126 184.565 233.126C182.423 233.126 180.939 232.104 180.449 230.494L181.583 230.004C182.185 231.278 183.207 231.922 184.649 231.922C186.007 231.922 186.861 231.292 186.861 230.186C186.861 229.108 186.021 228.562 184.341 228.562H183.249V227.4H184.117C185.643 227.4 186.637 226.714 186.637 225.776C186.637 224.81 185.839 224.264 184.565 224.264C183.067 224.264 182.157 225.034 181.765 226.056ZM190.728 228.492L189.72 228.226L190.294 223.2H196.454V224.39H191.372L191.008 227.022C191.498 226.658 192.24 226.476 193.234 226.476C194.382 226.476 195.278 226.784 195.936 227.386C196.58 228.002 196.902 228.786 196.902 229.752C196.902 230.718 196.538 231.53 195.824 232.16C195.096 232.804 194.186 233.126 193.108 233.126C191.274 233.126 189.748 232.258 189.118 230.732L190.238 230.256C190.644 231.194 191.694 231.936 193.108 231.936C194.718 231.936 195.614 231.012 195.614 229.794C195.614 228.492 194.564 227.652 192.898 227.652C192.002 227.652 191.274 227.932 190.728 228.492ZM200.401 233.21L199.477 232.678L206.715 222.892L207.597 223.536L200.401 233.21ZM197.965 225.552C197.965 224.852 198.203 224.278 198.693 223.83C199.183 223.382 199.785 223.158 200.527 223.158C201.255 223.158 201.857 223.382 202.347 223.83C202.837 224.278 203.075 224.852 203.075 225.552C203.075 226.238 202.837 226.812 202.347 227.26C201.857 227.708 201.255 227.932 200.527 227.932C199.785 227.932 199.183 227.708 198.693 227.26C198.203 226.812 197.965 226.238 197.965 225.552ZM199.141 225.552C199.141 226.35 199.785 226.938 200.527 226.938C201.297 226.938 201.899 226.378 201.899 225.552C201.899 224.726 201.269 224.166 200.527 224.166C199.757 224.166 199.141 224.726 199.141 225.552ZM204.699 232.384C204.209 231.936 203.971 231.362 203.971 230.662C203.971 229.962 204.209 229.388 204.699 228.94C205.189 228.506 205.791 228.282 206.533 228.282C207.261 228.282 207.863 228.506 208.353 228.94C208.843 229.388 209.081 229.962 209.081 230.662C209.081 231.348 208.843 231.922 208.353 232.37C207.863 232.832 207.261 233.056 206.533 233.056C205.791 233.056 205.189 232.832 204.699 232.384ZM205.147 230.662C205.147 231.46 205.791 232.048 206.533 232.048C207.303 232.048 207.905 231.488 207.905 230.662C207.905 229.836 207.275 229.276 206.533 229.276C205.763 229.276 205.147 229.836 205.147 230.662Z" fill="#737AF9"/>
<path d="M309.765 76.056L308.715 75.58C309.233 74.068 310.591 73.074 312.621 73.074C313.587 73.074 314.385 73.298 315.001 73.746C315.617 74.194 315.925 74.796 315.925 75.538C315.925 76.672 315.323 77.512 314.203 77.834C315.281 77.904 316.149 78.716 316.149 80.172C316.149 81.096 315.813 81.824 315.141 82.342C314.469 82.86 313.615 83.126 312.565 83.126C310.423 83.126 308.939 82.104 308.449 80.494L309.583 80.004C310.185 81.278 311.207 81.922 312.649 81.922C314.007 81.922 314.861 81.292 314.861 80.186C314.861 79.108 314.021 78.562 312.341 78.562H311.249V77.4H312.117C313.643 77.4 314.637 76.714 314.637 75.776C314.637 74.81 313.839 74.264 312.565 74.264C311.067 74.264 310.157 75.034 309.765 76.056ZM317.188 75.804L316.74 74.754L320.1 73.144H320.898V83H319.694V74.642L317.188 75.804ZM325.119 83.21L324.195 82.678L331.433 72.892L332.315 73.536L325.119 83.21ZM322.683 75.552C322.683 74.852 322.921 74.278 323.411 73.83C323.901 73.382 324.503 73.158 325.245 73.158C325.973 73.158 326.575 73.382 327.065 73.83C327.555 74.278 327.793 74.852 327.793 75.552C327.793 76.238 327.555 76.812 327.065 77.26C326.575 77.708 325.973 77.932 325.245 77.932C324.503 77.932 323.901 77.708 323.411 77.26C322.921 76.812 322.683 76.238 322.683 75.552ZM323.859 75.552C323.859 76.35 324.503 76.938 325.245 76.938C326.015 76.938 326.617 76.378 326.617 75.552C326.617 74.726 325.987 74.166 325.245 74.166C324.475 74.166 323.859 74.726 323.859 75.552ZM329.417 82.384C328.927 81.936 328.689 81.362 328.689 80.662C328.689 79.962 328.927 79.388 329.417 78.94C329.907 78.506 330.509 78.282 331.251 78.282C331.979 78.282 332.581 78.506 333.071 78.94C333.561 79.388 333.799 79.962 333.799 80.662C333.799 81.348 333.561 81.922 333.071 82.37C332.581 82.832 331.979 83.056 331.251 83.056C330.509 83.056 329.907 82.832 329.417 82.384ZM329.865 80.662C329.865 81.46 330.509 82.048 331.251 82.048C332.021 82.048 332.623 81.488 332.623 80.662C332.623 79.836 331.993 79.276 331.251 79.276C330.481 79.276 329.865 79.836 329.865 80.662Z" fill="#737AF9"/>
<path d="M299.196 74L294 82L304.393 82L299.196 74Z" fill="#737AF9"/>
<defs>
<linearGradient id="paint0_linear_7003_29241" x1="5" y1="2" x2="5" y2="12" gradientUnits="userSpaceOnUse">
<stop stop-color="#CDE3E9"/>
<stop offset="1" stop-color="#D3E8ED"/>
</linearGradient>
<linearGradient id="paint1_linear_7003_29241" x1="89" y1="2" x2="89" y2="12" gradientUnits="userSpaceOnUse">
<stop stop-color="#6D73F9"/>
<stop offset="1" stop-color="#9BB8F1"/>
</linearGradient>
<linearGradient id="paint2_linear_7003_29241" x1="86.1905" y1="64" x2="190" y2="64" gradientUnits="userSpaceOnUse">
<stop stop-color="#CEE8EF"/>
<stop offset="1" stop-color="#CEE8EF"/>
</linearGradient>
<linearGradient id="paint3_linear_7003_29241" x1="223" y1="79" x2="81" y2="79" gradientUnits="userSpaceOnUse">
<stop stop-color="#6D73F9"/>
<stop offset="1" stop-color="#9BB8F1"/>
</linearGradient>
<linearGradient id="paint4_linear_7003_29241" x1="81.5714" y1="139" x2="93" y2="139" gradientUnits="userSpaceOnUse">
<stop stop-color="#CEE8EF"/>
<stop offset="1" stop-color="#CEE8EF"/>
</linearGradient>
<linearGradient id="paint5_linear_7003_29241" x1="130" y1="154" x2="81" y2="154" gradientUnits="userSpaceOnUse">
<stop stop-color="#6D73F9"/>
<stop offset="1" stop-color="#9BB8F1"/>
</linearGradient>
<linearGradient id="paint6_linear_7003_29241" x1="81.7619" y1="214" x2="97" y2="214" gradientUnits="userSpaceOnUse">
<stop stop-color="#CEE8EF"/>
<stop offset="1" stop-color="#CEE8EF"/>
</linearGradient>
<linearGradient id="paint7_linear_7003_29241" x1="103" y1="229" x2="81" y2="229" gradientUnits="userSpaceOnUse">
<stop stop-color="#6D73F9"/>
<stop offset="1" stop-color="#9BB8F1"/>
</linearGradient>
</defs>
</svg>
