<svg width="297" height="363" viewBox="0 0 297 363" fill="none" xmlns="http://www.w3.org/2000/svg">
<path d="M270.043 157.653C263.633 173.978 253.574 188.62 240.636 200.459C227.697 212.299 212.223 221.023 195.395 225.963C178.567 230.903 160.832 231.93 143.547 228.963C126.262 225.996 109.884 219.116 95.667 208.847L103.747 197.66C116.258 206.696 130.671 212.751 145.882 215.362C161.093 217.972 176.699 217.069 191.507 212.722C206.316 208.374 219.934 200.698 231.319 190.279C242.705 179.86 251.557 166.975 257.198 152.609L270.043 157.653Z" fill="url(#paint0_linear_6007_29492)"/>
<path d="M56.283 158.474C49.2718 141.015 46.6515 122.102 48.6518 103.393C50.6522 84.6853 57.2122 66.7537 67.7564 51.1713C78.3007 35.5888 92.5072 22.8314 109.13 14.0179C125.753 5.20442 144.284 0.604038 163.099 0.620214L163.087 14.4202C146.53 14.406 130.222 18.4543 115.594 26.2102C100.966 33.9661 88.4646 45.1926 79.1857 58.9051C69.9067 72.6177 64.134 88.3975 62.3736 104.861C60.6133 121.324 62.9192 137.967 69.089 153.332L56.283 158.474Z" fill="#DBE9EE"/>
<path d="M95.7508 208.908C78.0484 196.146 64.3425 178.611 56.2337 158.351L69.0457 153.224C76.1814 171.053 88.2426 186.483 103.821 197.713L95.7508 208.908Z" fill="#9DDDDC"/>
<path d="M163 0.620272C181.759 0.620272 200.233 5.2093 216.812 13.9872C233.391 22.7651 247.57 35.4654 258.114 50.9807C268.658 66.4959 275.247 84.355 277.306 103.001C279.364 121.647 276.83 140.513 269.924 157.955L257.093 152.874C263.17 137.526 265.4 120.923 263.589 104.515C261.777 88.1069 255.979 72.3908 246.701 58.7374C237.422 45.084 224.944 33.9078 210.354 26.1832C195.765 18.4586 179.508 14.4203 163 14.4203V0.620272Z" fill="url(#paint1_linear_6007_29492)"/>
<path d="M275.975 53.6761L274.925 53.2001C275.443 51.6881 276.801 50.6941 278.831 50.6941C279.797 50.6941 280.595 50.9181 281.211 51.3661C281.827 51.8141 282.135 52.4161 282.135 53.1581C282.135 54.2921 281.533 55.1321 280.413 55.4541C281.491 55.5241 282.359 56.3361 282.359 57.7921C282.359 58.7161 282.023 59.4441 281.351 59.9621C280.679 60.4801 279.825 60.7461 278.775 60.7461C276.633 60.7461 275.149 59.7241 274.659 58.1141L275.793 57.6241C276.395 58.8981 277.417 59.5421 278.859 59.5421C280.217 59.5421 281.071 58.9121 281.071 57.8061C281.071 56.7281 280.231 56.1821 278.551 56.1821H277.459V55.0201H278.327C279.853 55.0201 280.847 54.3341 280.847 53.3961C280.847 52.4301 280.049 51.8841 278.775 51.8841C277.277 51.8841 276.367 52.6541 275.975 53.6761ZM283.398 53.4241L282.95 52.3741L286.31 50.7641H287.108V60.6201H285.904V52.2621L283.398 53.4241Z" fill="#1A3341"/>
<path d="M197.722 239.054L196.7 238.69C197.05 236.954 198.366 235.708 200.452 235.708C202.468 235.708 203.7 236.87 203.7 238.648C203.7 239.586 203.294 240.524 202.79 241.196C202.538 241.546 202.216 241.882 201.838 242.232C201.068 242.918 200.522 243.282 199.724 243.786L198.646 244.458H204.064V245.62H196.434V244.668L198.562 243.254C198.94 243.016 199.206 242.834 199.36 242.722C199.514 242.624 199.766 242.442 200.102 242.204C200.438 241.966 200.69 241.756 200.858 241.602C201.012 241.448 201.222 241.252 201.46 241C202.104 240.3 202.342 239.656 202.412 238.774C202.412 237.5 201.586 236.926 200.368 236.926C199.612 236.926 199.01 237.136 198.576 237.556C198.142 237.976 197.848 238.48 197.722 239.054ZM213.182 240.538C213.182 242.204 212.79 243.492 211.992 244.388C211.194 245.298 210.13 245.746 208.8 245.746C207.176 245.746 205.902 245.06 205.272 244.01L206.28 243.31C206.84 244.094 207.862 244.542 208.968 244.542C209.878 244.542 210.606 244.178 211.18 243.45C211.754 242.736 211.992 241.84 211.922 240.776C211.46 241.84 210.298 242.624 208.744 242.624C207.652 242.624 206.756 242.316 206.056 241.686C205.342 241.07 204.992 240.258 204.992 239.264C204.992 238.172 205.37 237.304 206.126 236.66C206.882 236.016 207.89 235.694 209.136 235.694C211.656 235.694 213.182 237.458 213.182 240.538ZM211.712 239.222C211.502 237.92 210.606 236.898 208.996 236.898C207.316 236.898 206.28 237.766 206.28 239.222C206.28 240.608 207.33 241.42 208.968 241.42C209.71 241.42 210.34 241.196 210.83 240.748C211.32 240.3 211.614 239.796 211.712 239.222Z" fill="#1A3341"/>
<path d="M63.2507 194.538C63.2507 196.204 62.8587 197.492 62.0607 198.388C61.2627 199.298 60.1987 199.746 58.8687 199.746C57.2447 199.746 55.9707 199.06 55.3407 198.01L56.3487 197.31C56.9087 198.094 57.9307 198.542 59.0367 198.542C59.9467 198.542 60.6747 198.178 61.2487 197.45C61.8227 196.736 62.0607 195.84 61.9907 194.776C61.5287 195.84 60.3667 196.624 58.8127 196.624C57.7207 196.624 56.8247 196.316 56.1247 195.686C55.4107 195.07 55.0607 194.258 55.0607 193.264C55.0607 192.172 55.4387 191.304 56.1947 190.66C56.9507 190.016 57.9587 189.694 59.2047 189.694C61.7247 189.694 63.2507 191.458 63.2507 194.538ZM61.7807 193.222C61.5707 191.92 60.6747 190.898 59.0647 190.898C57.3847 190.898 56.3487 191.766 56.3487 193.222C56.3487 194.608 57.3987 195.42 59.0367 195.42C59.7787 195.42 60.4087 195.196 60.8987 194.748C61.3887 194.3 61.6827 193.796 61.7807 193.222Z" fill="#1A3341"/>
<path d="M81.3826 7.67627L80.3326 7.20027C80.8506 5.68827 82.2086 4.69427 84.2386 4.69427C85.2046 4.69427 86.0026 4.91827 86.6186 5.36627C87.2346 5.81427 87.5426 6.41627 87.5426 7.15827C87.5426 8.29227 86.9406 9.13227 85.8206 9.45427C86.8986 9.52427 87.7666 10.3363 87.7666 11.7923C87.7666 12.7163 87.4306 13.4443 86.7586 13.9623C86.0866 14.4803 85.2326 14.7463 84.1826 14.7463C82.0406 14.7463 80.5566 13.7243 80.0666 12.1143L81.2006 11.6243C81.8026 12.8983 82.8246 13.5423 84.2666 13.5423C85.6246 13.5423 86.4786 12.9123 86.4786 11.8063C86.4786 10.7283 85.6386 10.1823 83.9586 10.1823H82.8666V9.02027H83.7346C85.2606 9.02027 86.2546 8.33427 86.2546 7.39627C86.2546 6.43027 85.4566 5.88427 84.1826 5.88427C82.6846 5.88427 81.7746 6.65427 81.3826 7.67627ZM88.8052 7.42427L88.3572 6.37427L91.7172 4.76427H92.5152V14.6203H91.3112V6.26227L88.8052 7.42427Z" fill="#1A3341"/>
<rect y="276.62" width="10" height="10" fill="url(#paint2_linear_6007_29492)"/>
<path d="M25.404 283.556L26.028 284.252C25.392 285.152 24.12 285.728 22.764 285.728C21.444 285.728 20.388 285.332 19.608 284.552C18.828 283.772 18.432 282.728 18.432 281.42C18.432 280.184 18.828 279.164 19.608 278.336C20.388 277.52 21.408 277.112 22.68 277.112C24.12 277.112 25.296 277.688 25.908 278.504L25.2 279.188C24.516 278.504 23.676 278.156 22.704 278.156C21.732 278.156 20.976 278.456 20.412 279.056C19.848 279.656 19.572 280.448 19.572 281.42C19.572 282.404 19.872 283.196 20.472 283.784C21.072 284.384 21.864 284.684 22.836 284.684C23.88 284.684 24.732 284.312 25.404 283.556ZM27.8817 285.62H26.8737V276.86H27.8817V280.196C28.3617 279.56 29.0337 279.248 29.9097 279.248C31.6617 279.248 32.5377 280.196 32.5377 282.08V285.62H31.5297V282.176C31.5297 280.832 30.9537 280.196 29.7177 280.196C28.8897 280.196 28.2177 280.724 27.8817 281.492V285.62ZM34.9484 285.62H33.9404V279.38H34.9484V285.62ZM33.8084 277.352C33.8084 277.016 34.0844 276.764 34.4564 276.764C34.7924 276.764 35.0804 277.016 35.0804 277.352C35.0804 277.7 34.7924 277.976 34.4564 277.976C34.0844 277.976 33.8084 277.7 33.8084 277.352ZM37.4269 285.62H36.4189V279.38H37.4269V280.196C37.8229 279.584 38.6389 279.248 39.5629 279.248C41.2549 279.248 42.0949 280.184 42.0949 282.068V285.62H41.0869V282.188C41.0869 280.808 40.4989 280.196 39.2629 280.196C38.4949 280.196 37.7629 280.7 37.4269 281.456V285.62ZM43.8453 280.88L43.3293 280.124C43.9053 279.584 44.9013 279.236 45.8253 279.236C47.4933 279.236 48.3813 280.148 48.3813 281.768V285.62H47.3733V284.696C46.9773 285.272 46.1973 285.704 45.1893 285.704C43.8333 285.704 42.9213 284.948 42.9213 283.796C42.9213 282.488 44.0373 281.864 45.9093 281.864C46.4973 281.864 46.9773 281.924 47.3733 282.044C47.3733 280.832 46.9413 280.184 45.7053 280.184C45.0813 280.184 44.4573 280.412 43.8453 280.88ZM45.4293 284.792C45.8973 284.792 46.3173 284.66 46.6653 284.408C47.0133 284.156 47.2413 283.868 47.3733 283.568V282.932C47.0253 282.812 46.5813 282.752 46.0413 282.752C44.6733 282.752 43.9893 283.088 43.9893 283.76C43.9893 284.396 44.5653 284.792 45.4293 284.792ZM55.0434 282.776H49.9914V281.888H55.0434V282.776ZM63.0427 285.62H56.8867V277.22H62.9347V278.24H57.9787V280.856H62.5987V281.852H57.9787V284.6H63.0427V285.62ZM68.7634 279.344H69.7714V285.62H68.7634V284.732C68.2834 285.392 67.6114 285.728 66.7354 285.728C65.0074 285.728 64.1674 284.864 64.1674 282.956V279.344H65.1754V282.812C65.1754 284.12 65.7274 284.78 66.8194 284.78C67.6834 284.78 68.3794 284.288 68.7634 283.424V279.344ZM72.112 285.62H71.104V279.38H72.112V279.86C72.316 279.44 72.856 279.248 73.396 279.248C73.948 279.248 74.368 279.44 74.668 279.812L74.032 280.508C73.876 280.304 73.636 280.196 73.288 280.196C72.748 280.196 72.256 280.64 72.112 281.276V285.62ZM74.5149 282.488C74.5149 281.54 74.8269 280.76 75.4389 280.148C76.0509 279.536 76.8429 279.236 77.8149 279.236C78.7989 279.236 79.6029 279.536 80.2149 280.148C80.8269 280.76 81.1389 281.54 81.1389 282.488C81.1389 283.436 80.8269 284.204 80.2149 284.816C79.5909 285.428 78.7869 285.728 77.8149 285.728C76.8429 285.728 76.0509 285.428 75.4389 284.816C74.8269 284.204 74.5149 283.436 74.5149 282.488ZM75.5829 282.488C75.5829 283.148 75.7869 283.7 76.2069 284.132C76.6269 284.564 77.1549 284.78 77.8149 284.78C78.4749 284.78 79.0269 284.564 79.4469 284.144C79.8669 283.724 80.0709 283.172 80.0709 282.488C80.0709 281.804 79.8549 281.252 79.4349 280.82C79.0029 280.4 78.4629 280.184 77.8149 280.184C77.1669 280.184 76.6389 280.4 76.2189 280.82C75.7989 281.24 75.5829 281.804 75.5829 282.488ZM83.1455 288.02H82.1375V279.38H83.1455V280.16C83.5655 279.548 84.2375 279.236 85.1615 279.236C86.0735 279.236 86.8055 279.524 87.3455 280.112C87.8855 280.7 88.1495 281.456 88.1495 282.392C88.1495 283.352 87.8615 284.144 87.2855 284.78C86.6975 285.416 85.9535 285.728 85.0415 285.728C84.2015 285.728 83.5655 285.512 83.1455 285.092V288.02ZM85.0535 280.184C84.1415 280.184 83.4335 280.772 83.1455 281.48V283.808C83.5055 284.456 84.1055 284.78 84.9575 284.78C85.5695 284.78 86.0855 284.564 86.4815 284.132C86.8775 283.7 87.0815 283.148 87.0815 282.464C87.0815 281.072 86.3015 280.184 85.0535 280.184ZM93.9665 283.832L94.6145 284.432C94.0385 285.296 93.2105 285.728 92.1185 285.728C91.1225 285.728 90.3185 285.428 89.7065 284.84C89.0945 284.252 88.7945 283.472 88.7945 282.488C88.7945 281.54 89.0705 280.76 89.6345 280.148C90.1865 279.536 90.9665 279.236 91.9745 279.236C92.8025 279.236 93.4985 279.5 94.0385 280.016C94.5785 280.532 94.8545 281.216 94.8545 282.068C94.8545 282.344 94.8305 282.596 94.7945 282.824H89.8745C89.9345 284.06 90.8465 284.78 92.1545 284.78C92.8865 284.78 93.5825 284.396 93.9665 283.832ZM91.9025 280.16C90.7625 280.16 90.0185 280.856 89.8625 281.912H93.7865C93.7265 280.808 93.0185 280.16 91.9025 280.16ZM101.336 282.776H96.2842V281.888H101.336V282.776ZM109.754 283.556L110.378 284.252C109.742 285.152 108.47 285.728 107.114 285.728C105.794 285.728 104.738 285.332 103.958 284.552C103.178 283.772 102.782 282.728 102.782 281.42C102.782 280.184 103.178 279.164 103.958 278.336C104.738 277.52 105.758 277.112 107.03 277.112C108.47 277.112 109.646 277.688 110.258 278.504L109.55 279.188C108.866 278.504 108.026 278.156 107.054 278.156C106.082 278.156 105.326 278.456 104.762 279.056C104.198 279.656 103.922 280.448 103.922 281.42C103.922 282.404 104.222 283.196 104.822 283.784C105.422 284.384 106.214 284.684 107.186 284.684C108.23 284.684 109.082 284.312 109.754 283.556ZM112.232 285.62H111.224V276.86H112.232V280.196C112.712 279.56 113.384 279.248 114.26 279.248C116.012 279.248 116.888 280.196 116.888 282.08V285.62H115.88V282.176C115.88 280.832 115.304 280.196 114.068 280.196C113.24 280.196 112.568 280.724 112.232 281.492V285.62ZM119.299 285.62H118.291V279.38H119.299V285.62ZM118.159 277.352C118.159 277.016 118.435 276.764 118.807 276.764C119.143 276.764 119.431 277.016 119.431 277.352C119.431 277.7 119.143 277.976 118.807 277.976C118.435 277.976 118.159 277.7 118.159 277.352ZM121.777 285.62H120.769V279.38H121.777V280.196C122.173 279.584 122.989 279.248 123.913 279.248C125.605 279.248 126.445 280.184 126.445 282.068V285.62H125.437V282.188C125.437 280.808 124.849 280.196 123.613 280.196C122.845 280.196 122.113 280.7 121.777 281.456V285.62ZM128.195 280.88L127.679 280.124C128.255 279.584 129.251 279.236 130.175 279.236C131.843 279.236 132.731 280.148 132.731 281.768V285.62H131.723V284.696C131.327 285.272 130.547 285.704 129.539 285.704C128.183 285.704 127.271 284.948 127.271 283.796C127.271 282.488 128.387 281.864 130.259 281.864C130.847 281.864 131.327 281.924 131.723 282.044C131.723 280.832 131.291 280.184 130.055 280.184C129.431 280.184 128.807 280.412 128.195 280.88ZM129.779 284.792C130.247 284.792 130.667 284.66 131.015 284.408C131.363 284.156 131.591 283.868 131.723 283.568V282.932C131.375 282.812 130.931 282.752 130.391 282.752C129.023 282.752 128.339 283.088 128.339 283.76C128.339 284.396 128.915 284.792 129.779 284.792Z" fill="#1A3341" fill-opacity="0.6"/>
<rect y="300.62" width="10" height="10" fill="url(#paint3_linear_6007_29492)"/>
<path d="M25.404 307.556L26.028 308.252C25.392 309.152 24.12 309.728 22.764 309.728C21.444 309.728 20.388 309.332 19.608 308.552C18.828 307.772 18.432 306.728 18.432 305.42C18.432 304.184 18.828 303.164 19.608 302.336C20.388 301.52 21.408 301.112 22.68 301.112C24.12 301.112 25.296 301.688 25.908 302.504L25.2 303.188C24.516 302.504 23.676 302.156 22.704 302.156C21.732 302.156 20.976 302.456 20.412 303.056C19.848 303.656 19.572 304.448 19.572 305.42C19.572 306.404 19.872 307.196 20.472 307.784C21.072 308.384 21.864 308.684 22.836 308.684C23.88 308.684 24.732 308.312 25.404 307.556ZM27.8817 309.62H26.8737V300.86H27.8817V304.196C28.3617 303.56 29.0337 303.248 29.9097 303.248C31.6617 303.248 32.5377 304.196 32.5377 306.08V309.62H31.5297V306.176C31.5297 304.832 30.9537 304.196 29.7177 304.196C28.8897 304.196 28.2177 304.724 27.8817 305.492V309.62ZM34.9484 309.62H33.9404V303.38H34.9484V309.62ZM33.8084 301.352C33.8084 301.016 34.0844 300.764 34.4564 300.764C34.7924 300.764 35.0804 301.016 35.0804 301.352C35.0804 301.7 34.7924 301.976 34.4564 301.976C34.0844 301.976 33.8084 301.7 33.8084 301.352ZM37.4269 309.62H36.4189V303.38H37.4269V304.196C37.8229 303.584 38.6389 303.248 39.5629 303.248C41.2549 303.248 42.0949 304.184 42.0949 306.068V309.62H41.0869V306.188C41.0869 304.808 40.4989 304.196 39.2629 304.196C38.4949 304.196 37.7629 304.7 37.4269 305.456V309.62ZM43.8453 304.88L43.3293 304.124C43.9053 303.584 44.9013 303.236 45.8253 303.236C47.4933 303.236 48.3813 304.148 48.3813 305.768V309.62H47.3733V308.696C46.9773 309.272 46.1973 309.704 45.1893 309.704C43.8333 309.704 42.9213 308.948 42.9213 307.796C42.9213 306.488 44.0373 305.864 45.9093 305.864C46.4973 305.864 46.9773 305.924 47.3733 306.044C47.3733 304.832 46.9413 304.184 45.7053 304.184C45.0813 304.184 44.4573 304.412 43.8453 304.88ZM45.4293 308.792C45.8973 308.792 46.3173 308.66 46.6653 308.408C47.0133 308.156 47.2413 307.868 47.3733 307.568V306.932C47.0253 306.812 46.5813 306.752 46.0413 306.752C44.6733 306.752 43.9893 307.088 43.9893 307.76C43.9893 308.396 44.5653 308.792 45.4293 308.792ZM55.0434 306.776H49.9914V305.888H55.0434V306.776ZM57.9787 306.332V309.62H56.8867V301.22H60.1027C62.2747 301.22 63.3547 302.06 63.3547 303.74C63.3547 304.928 62.5387 305.864 61.3027 306.116L63.9907 309.62H62.6587L60.1627 306.332H57.9787ZM60.0667 302.24H57.9787V305.312H60.1387C61.4227 305.312 62.2387 304.7 62.2387 303.74C62.2387 302.744 61.5187 302.24 60.0667 302.24ZM69.2556 303.344H70.2636V309.62H69.2556V308.732C68.7756 309.392 68.1036 309.728 67.2276 309.728C65.4996 309.728 64.6596 308.864 64.6596 306.956V303.344H65.6676V306.812C65.6676 308.12 66.2196 308.78 67.3116 308.78C68.1756 308.78 68.8716 308.288 69.2556 307.424V303.344ZM75.4242 307.916C75.4242 307.076 73.9962 306.944 72.8562 306.62C72.0762 306.392 71.4522 305.876 71.4522 305.024C71.4522 303.92 72.4962 303.236 74.0442 303.236C75.0882 303.236 75.9282 303.68 76.3722 304.316L75.6642 304.976C75.2682 304.448 74.6682 304.184 73.8642 304.184C73.1442 304.184 72.5202 304.46 72.5202 304.976C72.5202 305.708 73.9482 305.84 75.0882 306.188C75.8562 306.428 76.4802 307.004 76.4802 307.904C76.4802 309.116 75.5082 309.728 73.9842 309.728C72.7002 309.728 71.6082 309.152 71.1642 308.252L71.9682 307.688C72.3402 308.348 73.1922 308.78 74.1522 308.78C75.0042 308.78 75.4242 308.492 75.4242 307.916ZM81.2691 307.916C81.2691 307.076 79.8411 306.944 78.7011 306.62C77.9211 306.392 77.2971 305.876 77.2971 305.024C77.2971 303.92 78.3411 303.236 79.8891 303.236C80.9331 303.236 81.7731 303.68 82.2171 304.316L81.5091 304.976C81.1131 304.448 80.5131 304.184 79.7091 304.184C78.9891 304.184 78.3651 304.46 78.3651 304.976C78.3651 305.708 79.7931 305.84 80.9331 306.188C81.7011 306.428 82.3251 307.004 82.3251 307.904C82.3251 309.116 81.3531 309.728 79.8291 309.728C78.5451 309.728 77.4531 309.152 77.0091 308.252L77.8131 307.688C78.1851 308.348 79.0371 308.78 79.9971 308.78C80.8491 308.78 81.2691 308.492 81.2691 307.916ZM84.4259 309.62H83.4179V303.38H84.4259V309.62ZM83.2859 301.352C83.2859 301.016 83.5619 300.764 83.9339 300.764C84.2699 300.764 84.5579 301.016 84.5579 301.352C84.5579 301.7 84.2699 301.976 83.9339 301.976C83.5619 301.976 83.2859 301.7 83.2859 301.352ZM86.3764 304.88L85.8604 304.124C86.4364 303.584 87.4324 303.236 88.3564 303.236C90.0244 303.236 90.9124 304.148 90.9124 305.768V309.62H89.9044V308.696C89.5084 309.272 88.7284 309.704 87.7204 309.704C86.3644 309.704 85.4524 308.948 85.4524 307.796C85.4524 306.488 86.5684 305.864 88.4404 305.864C89.0284 305.864 89.5084 305.924 89.9044 306.044C89.9044 304.832 89.4724 304.184 88.2364 304.184C87.6124 304.184 86.9884 304.412 86.3764 304.88ZM87.9604 308.792C88.4284 308.792 88.8484 308.66 89.1964 308.408C89.5444 308.156 89.7724 307.868 89.9044 307.568V306.932C89.5564 306.812 89.1124 306.752 88.5724 306.752C87.2044 306.752 86.5204 307.088 86.5204 307.76C86.5204 308.396 87.0964 308.792 87.9604 308.792Z" fill="#1A3341" fill-opacity="0.6"/>
<rect y="324.62" width="10" height="10" fill="#9DDDDC"/>
<path d="M25.404 331.556L26.028 332.252C25.392 333.152 24.12 333.728 22.764 333.728C21.444 333.728 20.388 333.332 19.608 332.552C18.828 331.772 18.432 330.728 18.432 329.42C18.432 328.184 18.828 327.164 19.608 326.336C20.388 325.52 21.408 325.112 22.68 325.112C24.12 325.112 25.296 325.688 25.908 326.504L25.2 327.188C24.516 326.504 23.676 326.156 22.704 326.156C21.732 326.156 20.976 326.456 20.412 327.056C19.848 327.656 19.572 328.448 19.572 329.42C19.572 330.404 19.872 331.196 20.472 331.784C21.072 332.384 21.864 332.684 22.836 332.684C23.88 332.684 24.732 332.312 25.404 331.556ZM27.8817 333.62H26.8737V324.86H27.8817V328.196C28.3617 327.56 29.0337 327.248 29.9097 327.248C31.6617 327.248 32.5377 328.196 32.5377 330.08V333.62H31.5297V330.176C31.5297 328.832 30.9537 328.196 29.7177 328.196C28.8897 328.196 28.2177 328.724 27.8817 329.492V333.62ZM34.9484 333.62H33.9404V327.38H34.9484V333.62ZM33.8084 325.352C33.8084 325.016 34.0844 324.764 34.4564 324.764C34.7924 324.764 35.0804 325.016 35.0804 325.352C35.0804 325.7 34.7924 325.976 34.4564 325.976C34.0844 325.976 33.8084 325.7 33.8084 325.352ZM37.4269 333.62H36.4189V327.38H37.4269V328.196C37.8229 327.584 38.6389 327.248 39.5629 327.248C41.2549 327.248 42.0949 328.184 42.0949 330.068V333.62H41.0869V330.188C41.0869 328.808 40.4989 328.196 39.2629 328.196C38.4949 328.196 37.7629 328.7 37.4269 329.456V333.62ZM43.8453 328.88L43.3293 328.124C43.9053 327.584 44.9013 327.236 45.8253 327.236C47.4933 327.236 48.3813 328.148 48.3813 329.768V333.62H47.3733V332.696C46.9773 333.272 46.1973 333.704 45.1893 333.704C43.8333 333.704 42.9213 332.948 42.9213 331.796C42.9213 330.488 44.0373 329.864 45.9093 329.864C46.4973 329.864 46.9773 329.924 47.3733 330.044C47.3733 328.832 46.9413 328.184 45.7053 328.184C45.0813 328.184 44.4573 328.412 43.8453 328.88ZM45.4293 332.792C45.8973 332.792 46.3173 332.66 46.6653 332.408C47.0133 332.156 47.2413 331.868 47.3733 331.568V330.932C47.0253 330.812 46.5813 330.752 46.0413 330.752C44.6733 330.752 43.9893 331.088 43.9893 331.76C43.9893 332.396 44.5653 332.792 45.4293 332.792ZM55.0434 330.776H49.9914V329.888H55.0434V330.776ZM60.2227 333.62H56.8867V325.22H60.2827C62.4307 325.22 63.2467 326 63.2467 327.308C63.2467 328.244 62.8507 328.88 62.0587 329.228C62.9827 329.42 63.5467 330.128 63.5467 331.22C63.5467 332.864 62.3227 333.62 60.2227 333.62ZM60.3307 329.828H57.9787V332.6H60.2107C61.7347 332.6 62.4187 332.156 62.4187 331.16C62.4187 330.272 61.7227 329.828 60.3307 329.828ZM60.1867 326.24H57.9787V328.832H60.3667C61.4347 328.832 62.1307 328.352 62.1307 327.536C62.1307 326.636 61.6147 326.24 60.1867 326.24ZM69.509 331.832L70.157 332.432C69.581 333.296 68.753 333.728 67.661 333.728C66.665 333.728 65.861 333.428 65.249 332.84C64.637 332.252 64.337 331.472 64.337 330.488C64.337 329.54 64.613 328.76 65.177 328.148C65.729 327.536 66.509 327.236 67.517 327.236C68.345 327.236 69.041 327.5 69.581 328.016C70.121 328.532 70.397 329.216 70.397 330.068C70.397 330.344 70.373 330.596 70.337 330.824H65.417C65.477 332.06 66.389 332.78 67.697 332.78C68.429 332.78 69.125 332.396 69.509 331.832ZM67.445 328.16C66.305 328.16 65.561 328.856 65.405 329.912H69.329C69.269 328.808 68.561 328.16 67.445 328.16ZM72.501 333.62H71.493V324.86H72.501V333.62ZM74.4172 328.88L73.9012 328.124C74.4772 327.584 75.4732 327.236 76.3972 327.236C78.0652 327.236 78.9532 328.148 78.9532 329.768V333.62H77.9452V332.696C77.5492 333.272 76.7692 333.704 75.7612 333.704C74.4052 333.704 73.4932 332.948 73.4932 331.796C73.4932 330.488 74.6092 329.864 76.4812 329.864C77.0692 329.864 77.5492 329.924 77.9452 330.044C77.9452 328.832 77.5132 328.184 76.2772 328.184C75.6532 328.184 75.0292 328.412 74.4172 328.88ZM76.0012 332.792C76.4692 332.792 76.8892 332.66 77.2372 332.408C77.5852 332.156 77.8132 331.868 77.9452 331.568V330.932C77.5972 330.812 77.1532 330.752 76.6132 330.752C75.2452 330.752 74.5612 331.088 74.5612 331.76C74.5612 332.396 75.1372 332.792 76.0012 332.792ZM81.2353 333.62H80.2273V327.38H81.2353V327.86C81.4393 327.44 81.9793 327.248 82.5193 327.248C83.0713 327.248 83.4913 327.44 83.7913 327.812L83.1553 328.508C82.9993 328.304 82.7593 328.196 82.4113 328.196C81.8713 328.196 81.3793 328.64 81.2353 329.276V333.62ZM88.8615 327.344H89.8695V333.62H88.8615V332.732C88.3815 333.392 87.7095 333.728 86.8335 333.728C85.1055 333.728 84.2655 332.864 84.2655 330.956V327.344H85.2735V330.812C85.2735 332.12 85.8255 332.78 86.9175 332.78C87.7815 332.78 88.4775 332.288 88.8615 331.424V327.344ZM95.0302 331.916C95.0302 331.076 93.6022 330.944 92.4622 330.62C91.6822 330.392 91.0582 329.876 91.0582 329.024C91.0582 327.92 92.1022 327.236 93.6502 327.236C94.6942 327.236 95.5342 327.68 95.9782 328.316L95.2702 328.976C94.8742 328.448 94.2742 328.184 93.4702 328.184C92.7502 328.184 92.1262 328.46 92.1262 328.976C92.1262 329.708 93.5542 329.84 94.6942 330.188C95.4622 330.428 96.0862 331.004 96.0862 331.904C96.0862 333.116 95.1142 333.728 93.5902 333.728C92.3062 333.728 91.2142 333.152 90.7702 332.252L91.5742 331.688C91.9462 332.348 92.7982 332.78 93.7582 332.78C94.6102 332.78 95.0302 332.492 95.0302 331.916Z" fill="#1A3341" fill-opacity="0.6"/>
<rect y="348.62" width="10" height="10" fill="#DBE9EE"/>
<path d="M19.128 357.62H18.012L21.696 349.196H22.56L26.244 357.62H25.104L24.168 355.496H20.052L19.128 357.62ZM23.76 354.536L22.104 350.72L20.46 354.536H23.76ZM32.2568 357.62H31.2488V356.876C30.9728 357.308 30.2528 357.728 29.3048 357.728C28.3808 357.728 27.6488 357.44 27.0848 356.864C26.5208 356.288 26.2328 355.508 26.2328 354.512C26.2328 353.552 26.5328 352.76 27.1448 352.148C27.7568 351.536 28.5008 351.236 29.3888 351.236C30.2168 351.236 30.8408 351.44 31.2488 351.848V348.86H32.2568V357.62ZM29.4488 356.768C30.3008 356.768 30.9608 356.168 31.2488 355.58V353.06C30.8528 352.472 30.2648 352.184 29.5088 352.184C28.8968 352.184 28.3688 352.4 27.9488 352.82C27.5168 353.24 27.3008 353.804 27.3008 354.488C27.3008 355.88 28.1888 356.768 29.4488 356.768ZM39.2735 357.62H38.2655V356.876C37.9895 357.308 37.2695 357.728 36.3215 357.728C35.3975 357.728 34.6655 357.44 34.1015 356.864C33.5375 356.288 33.2495 355.508 33.2495 354.512C33.2495 353.552 33.5495 352.76 34.1615 352.148C34.7735 351.536 35.5175 351.236 36.4055 351.236C37.2335 351.236 37.8575 351.44 38.2655 351.848V348.86H39.2735V357.62ZM36.4655 356.768C37.3175 356.768 37.9775 356.168 38.2655 355.58V353.06C37.8695 352.472 37.2815 352.184 36.5255 352.184C35.9135 352.184 35.3855 352.4 34.9655 352.82C34.5335 353.24 34.3175 353.804 34.3175 354.488C34.3175 355.88 35.2055 356.768 36.4655 356.768ZM41.7542 357.62H40.7462V351.38H41.7542V357.62ZM40.6142 349.352C40.6142 349.016 40.8902 348.764 41.2622 348.764C41.5982 348.764 41.8862 349.016 41.8862 349.352C41.8862 349.7 41.5982 349.976 41.2622 349.976C40.8902 349.976 40.6142 349.7 40.6142 349.352ZM43.8607 352.34H42.5647V351.38H43.8607V349.784H44.8687V351.38H47.0167V352.34H44.8687V355.088C44.8687 356.3 45.1807 356.744 45.9487 356.744C46.3207 356.744 46.7047 356.6 47.0767 356.3L47.5327 357.044C47.1367 357.488 46.5487 357.704 45.7687 357.704C44.5327 357.704 43.8607 356.888 43.8607 355.352V352.34ZM49.2837 357.62H48.2757V351.38H49.2837V357.62ZM48.1437 349.352C48.1437 349.016 48.4197 348.764 48.7917 348.764C49.1277 348.764 49.4157 349.016 49.4157 349.352C49.4157 349.7 49.1277 349.976 48.7917 349.976C48.4197 349.976 48.1437 349.7 48.1437 349.352ZM50.4062 354.488C50.4062 353.54 50.7182 352.76 51.3302 352.148C51.9422 351.536 52.7342 351.236 53.7062 351.236C54.6902 351.236 55.4942 351.536 56.1062 352.148C56.7182 352.76 57.0302 353.54 57.0302 354.488C57.0302 355.436 56.7182 356.204 56.1062 356.816C55.4822 357.428 54.6782 357.728 53.7062 357.728C52.7342 357.728 51.9422 357.428 51.3302 356.816C50.7182 356.204 50.4062 355.436 50.4062 354.488ZM51.4742 354.488C51.4742 355.148 51.6782 355.7 52.0982 356.132C52.5182 356.564 53.0462 356.78 53.7062 356.78C54.3662 356.78 54.9182 356.564 55.3382 356.144C55.7582 355.724 55.9622 355.172 55.9622 354.488C55.9622 353.804 55.7462 353.252 55.3262 352.82C54.8942 352.4 54.3542 352.184 53.7062 352.184C53.0582 352.184 52.5302 352.4 52.1102 352.82C51.6902 353.24 51.4742 353.804 51.4742 354.488ZM59.0367 357.62H58.0287V351.38H59.0367V352.196C59.4327 351.584 60.2487 351.248 61.1727 351.248C62.8647 351.248 63.7047 352.184 63.7047 354.068V357.62H62.6967V354.188C62.6967 352.808 62.1087 352.196 60.8727 352.196C60.1047 352.196 59.3727 352.7 59.0367 353.456V357.62ZM65.4551 352.88L64.9391 352.124C65.5151 351.584 66.5111 351.236 67.4351 351.236C69.1031 351.236 69.9911 352.148 69.9911 353.768V357.62H68.9831V356.696C68.5871 357.272 67.8071 357.704 66.7991 357.704C65.4431 357.704 64.5311 356.948 64.5311 355.796C64.5311 354.488 65.6471 353.864 67.5191 353.864C68.1071 353.864 68.5871 353.924 68.9831 354.044C68.9831 352.832 68.5511 352.184 67.3151 352.184C66.6911 352.184 66.0671 352.412 65.4551 352.88ZM67.0391 356.792C67.5071 356.792 67.9271 356.66 68.2751 356.408C68.6231 356.156 68.8511 355.868 68.9831 355.568V354.932C68.6351 354.812 68.1911 354.752 67.6511 354.752C66.2831 354.752 65.5991 355.088 65.5991 355.76C65.5991 356.396 66.1751 356.792 67.0391 356.792ZM72.3693 357.62H71.3613V348.86H72.3693V357.62ZM78.2911 357.62H77.2831V351.38H78.2911V351.86C78.4951 351.44 79.0351 351.248 79.5751 351.248C80.1271 351.248 80.5471 351.44 80.8471 351.812L80.2111 352.508C80.0551 352.304 79.8151 352.196 79.4671 352.196C78.9271 352.196 78.4351 352.64 78.2911 353.276V357.62ZM80.694 354.488C80.694 353.54 81.006 352.76 81.618 352.148C82.23 351.536 83.022 351.236 83.994 351.236C84.978 351.236 85.782 351.536 86.394 352.148C87.006 352.76 87.318 353.54 87.318 354.488C87.318 355.436 87.006 356.204 86.394 356.816C85.77 357.428 84.966 357.728 83.994 357.728C83.022 357.728 82.23 357.428 81.618 356.816C81.006 356.204 80.694 355.436 80.694 354.488ZM81.762 354.488C81.762 355.148 81.966 355.7 82.386 356.132C82.806 356.564 83.334 356.78 83.994 356.78C84.654 356.78 85.206 356.564 85.626 356.144C86.046 355.724 86.25 355.172 86.25 354.488C86.25 353.804 86.034 353.252 85.614 352.82C85.182 352.4 84.642 352.184 83.994 352.184C83.346 352.184 82.818 352.4 82.398 352.82C81.978 353.24 81.762 353.804 81.762 354.488ZM92.8285 351.344H93.8365V357.62H92.8285V356.732C92.3485 357.392 91.6765 357.728 90.8005 357.728C89.0725 357.728 88.2325 356.864 88.2325 354.956V351.344H89.2405V354.812C89.2405 356.12 89.7925 356.78 90.8845 356.78C91.7485 356.78 92.4445 356.288 92.8285 355.424V351.344ZM95.8052 352.34H94.5092V351.38H95.8052V349.784H96.8132V351.38H98.9612V352.34H96.8132V355.088C96.8132 356.3 97.1252 356.744 97.8932 356.744C98.2652 356.744 98.6492 356.6 99.0212 356.3L99.4772 357.044C99.0812 357.488 98.4932 357.704 97.7132 357.704C96.4772 357.704 95.8052 356.888 95.8052 355.352V352.34ZM104.736 355.832L105.384 356.432C104.808 357.296 103.98 357.728 102.888 357.728C101.892 357.728 101.088 357.428 100.476 356.84C99.8645 356.252 99.5645 355.472 99.5645 354.488C99.5645 353.54 99.8405 352.76 100.404 352.148C100.956 351.536 101.736 351.236 102.744 351.236C103.572 351.236 104.268 351.5 104.808 352.016C105.348 352.532 105.624 353.216 105.624 354.068C105.624 354.344 105.6 354.596 105.564 354.824H100.644C100.704 356.06 101.616 356.78 102.924 356.78C103.656 356.78 104.352 356.396 104.736 355.832ZM102.672 352.16C101.532 352.16 100.788 352.856 100.632 353.912H104.556C104.496 352.808 103.788 352.16 102.672 352.16ZM110.453 355.916C110.453 355.076 109.025 354.944 107.885 354.62C107.105 354.392 106.481 353.876 106.481 353.024C106.481 351.92 107.525 351.236 109.073 351.236C110.117 351.236 110.957 351.68 111.401 352.316L110.693 352.976C110.297 352.448 109.697 352.184 108.893 352.184C108.173 352.184 107.549 352.46 107.549 352.976C107.549 353.708 108.977 353.84 110.117 354.188C110.885 354.428 111.509 355.004 111.509 355.904C111.509 357.116 110.537 357.728 109.013 357.728C107.729 357.728 106.637 357.152 106.193 356.252L106.997 355.688C107.369 356.348 108.221 356.78 109.181 356.78C110.033 356.78 110.453 356.492 110.453 355.916Z" fill="#1A3341" fill-opacity="0.6"/>
<defs>
<linearGradient id="paint0_linear_6007_29492" x1="278" y1="115.62" x2="83.5" y2="366.12" gradientUnits="userSpaceOnUse">
<stop stop-color="#43C3BB"/>
<stop offset="1" stop-color="#78CCD1"/>
</linearGradient>
<linearGradient id="paint1_linear_6007_29492" x1="163" y1="0.620272" x2="266" y2="187.12" gradientUnits="userSpaceOnUse">
<stop stop-color="#66CFF0"/>
<stop offset="1" stop-color="#A6E0F2"/>
</linearGradient>
<linearGradient id="paint2_linear_6007_29492" x1="5" y1="276.62" x2="9.47826" y2="284.729" gradientUnits="userSpaceOnUse">
<stop stop-color="#66CFF0"/>
<stop offset="1" stop-color="#A6E0F2"/>
</linearGradient>
<linearGradient id="paint3_linear_6007_29492" x1="5" y1="300.62" x2="10.8956" y2="306.141" gradientUnits="userSpaceOnUse">
<stop stop-color="#43C3BB"/>
<stop offset="1" stop-color="#78CCD1"/>
</linearGradient>
</defs>
</svg>
