<svg width="335" height="452" viewBox="0 0 335 452" fill="none" xmlns="http://www.w3.org/2000/svg">
<rect y="2" width="10" height="10" fill="#737AF9"/>
<path d="M19.128 11H18.012L21.696 2.576H22.56L26.244 11H25.104L24.168 8.876H20.052L19.128 11ZM23.76 7.916L22.104 4.1L20.46 7.916H23.76ZM30.7875 4.76H31.8675L29.0715 11H28.3275L25.4115 4.76H26.5755L28.7235 9.428L30.7875 4.76ZM33.4601 11H32.4521V4.76H33.4601V11ZM32.3201 2.732C32.3201 2.396 32.5961 2.144 32.9681 2.144C33.3041 2.144 33.5921 2.396 33.5921 2.732C33.5921 3.08 33.3041 3.356 32.9681 3.356C32.5961 3.356 32.3201 3.08 32.3201 2.732ZM35.4106 6.26L34.8946 5.504C35.4706 4.964 36.4666 4.616 37.3906 4.616C39.0586 4.616 39.9466 5.528 39.9466 7.148V11H38.9386V10.076C38.5426 10.652 37.7626 11.084 36.7546 11.084C35.3986 11.084 34.4866 10.328 34.4866 9.176C34.4866 7.868 35.6026 7.244 37.4746 7.244C38.0626 7.244 38.5426 7.304 38.9386 7.424C38.9386 6.212 38.5066 5.564 37.2706 5.564C36.6466 5.564 36.0226 5.792 35.4106 6.26ZM36.9946 10.172C37.4626 10.172 37.8826 10.04 38.2306 9.788C38.5786 9.536 38.8066 9.248 38.9386 8.948V8.312C38.5906 8.192 38.1466 8.132 37.6066 8.132C36.2386 8.132 35.5546 8.468 35.5546 9.14C35.5546 9.776 36.1306 10.172 36.9946 10.172ZM41.8568 5.72H40.5608V4.76H41.8568V3.164H42.8648V4.76H45.0128V5.72H42.8648V8.468C42.8648 9.68 43.1768 10.124 43.9448 10.124C44.3168 10.124 44.7008 9.98 45.0728 9.68L45.5288 10.424C45.1328 10.868 44.5448 11.084 43.7648 11.084C42.5288 11.084 41.8568 10.268 41.8568 8.732V5.72ZM47.2798 11H46.2718V4.76H47.2798V11ZM46.1398 2.732C46.1398 2.396 46.4158 2.144 46.7878 2.144C47.1238 2.144 47.4118 2.396 47.4118 2.732C47.4118 3.08 47.1238 3.356 46.7878 3.356C46.4158 3.356 46.1398 3.08 46.1398 2.732ZM48.4023 7.868C48.4023 6.92 48.7143 6.14 49.3263 5.528C49.9383 4.916 50.7303 4.616 51.7023 4.616C52.6863 4.616 53.4903 4.916 54.1023 5.528C54.7143 6.14 55.0263 6.92 55.0263 7.868C55.0263 8.816 54.7143 9.584 54.1023 10.196C53.4783 10.808 52.6743 11.108 51.7023 11.108C50.7303 11.108 49.9383 10.808 49.3263 10.196C48.7143 9.584 48.4023 8.816 48.4023 7.868ZM49.4703 7.868C49.4703 8.528 49.6743 9.08 50.0943 9.512C50.5143 9.944 51.0423 10.16 51.7023 10.16C52.3623 10.16 52.9143 9.944 53.3343 9.524C53.7543 9.104 53.9583 8.552 53.9583 7.868C53.9583 7.184 53.7423 6.632 53.3223 6.2C52.8903 5.78 52.3503 5.564 51.7023 5.564C51.0543 5.564 50.5263 5.78 50.1063 6.2C49.6863 6.62 49.4703 7.184 49.4703 7.868ZM57.0328 11H56.0248V4.76H57.0328V5.576C57.4288 4.964 58.2448 4.628 59.1688 4.628C60.8608 4.628 61.7008 5.564 61.7008 7.448V11H60.6928V7.568C60.6928 6.188 60.1048 5.576 58.8688 5.576C58.1008 5.576 57.3688 6.08 57.0328 6.836V11Z" fill="#76848D"/>
<rect y="26" width="10" height="10" fill="#8FB7EF"/>
<path d="M19.98 31.712V35H18.888V26.6H22.104C24.276 26.6 25.356 27.44 25.356 29.12C25.356 30.308 24.54 31.244 23.304 31.496L25.992 35H24.66L22.164 31.712H19.98ZM22.068 27.62H19.98V30.692H22.14C23.424 30.692 24.24 30.08 24.24 29.12C24.24 28.124 23.52 27.62 22.068 27.62ZM27.2248 30.26L26.7088 29.504C27.2848 28.964 28.2808 28.616 29.2048 28.616C30.8728 28.616 31.7608 29.528 31.7608 31.148V35H30.7528V34.076C30.3568 34.652 29.5768 35.084 28.5688 35.084C27.2128 35.084 26.3008 34.328 26.3008 33.176C26.3008 31.868 27.4168 31.244 29.2888 31.244C29.8768 31.244 30.3568 31.304 30.7528 31.424C30.7528 30.212 30.3208 29.564 29.0848 29.564C28.4608 29.564 27.8368 29.792 27.2248 30.26ZM28.8088 34.172C29.2768 34.172 29.6968 34.04 30.0448 33.788C30.3928 33.536 30.6208 33.248 30.7528 32.948V32.312C30.4048 32.192 29.9608 32.132 29.4208 32.132C28.0528 32.132 27.3688 32.468 27.3688 33.14C27.3688 33.776 27.9448 34.172 28.8088 34.172ZM34.175 35H33.167V28.76H34.175V35ZM33.035 26.732C33.035 26.396 33.311 26.144 33.683 26.144C34.019 26.144 34.307 26.396 34.307 26.732C34.307 27.08 34.019 27.356 33.683 27.356C33.311 27.356 33.035 27.08 33.035 26.732ZM36.7494 35H35.7414V26.24H36.7494V35ZM45.6256 28.76H46.6576L44.6296 35H43.8136L42.0616 30.32L40.2856 35H39.4936L37.3816 28.76H38.4616L39.9616 33.32L41.6656 28.76H42.4576L44.1976 33.356L45.6256 28.76ZM47.6745 30.26L47.1585 29.504C47.7345 28.964 48.7305 28.616 49.6545 28.616C51.3225 28.616 52.2105 29.528 52.2105 31.148V35H51.2025V34.076C50.8065 34.652 50.0265 35.084 49.0185 35.084C47.6625 35.084 46.7505 34.328 46.7505 33.176C46.7505 31.868 47.8665 31.244 49.7385 31.244C50.3265 31.244 50.8065 31.304 51.2025 31.424C51.2025 30.212 50.7705 29.564 49.5345 29.564C48.9105 29.564 48.2865 29.792 47.6745 30.26ZM49.2585 34.172C49.7265 34.172 50.1465 34.04 50.4945 33.788C50.8425 33.536 51.0705 33.248 51.2025 32.948V32.312C50.8545 32.192 50.4105 32.132 49.8705 32.132C48.5025 32.132 47.8185 32.468 47.8185 33.14C47.8185 33.776 48.3945 34.172 49.2585 34.172ZM53.6287 37.376L54.0247 36.5C54.1207 36.536 54.2047 36.56 54.2887 36.56C54.7567 36.56 55.0807 36.236 55.5007 35.24L55.6927 34.772L52.6687 28.76H53.8567L56.1967 33.5L57.9607 28.76H59.0647L56.6887 34.904C56.2807 35.912 55.8967 36.596 55.5487 36.968C55.1887 37.34 54.7807 37.52 54.3247 37.52C54.0607 37.52 53.8327 37.472 53.6287 37.376ZM63.7361 29.72H62.4401V28.76H63.7361V27.164H64.7441V28.76H66.8921V29.72H64.7441V32.468C64.7441 33.68 65.0561 34.124 65.8241 34.124C66.1961 34.124 66.5801 33.98 66.9521 33.68L67.4081 34.424C67.0121 34.868 66.4241 35.084 65.6441 35.084C64.4081 35.084 63.7361 34.268 63.7361 32.732V29.72ZM69.0272 35H68.0192V28.76H69.0272V29.24C69.2312 28.82 69.7712 28.628 70.3112 28.628C70.8632 28.628 71.2832 28.82 71.5832 29.192L70.9472 29.888C70.7912 29.684 70.5512 29.576 70.2032 29.576C69.6632 29.576 69.1712 30.02 69.0272 30.656V35ZM72.4807 30.26L71.9647 29.504C72.5407 28.964 73.5367 28.616 74.4607 28.616C76.1287 28.616 77.0167 29.528 77.0167 31.148V35H76.0087V34.076C75.6127 34.652 74.8327 35.084 73.8247 35.084C72.4687 35.084 71.5567 34.328 71.5567 33.176C71.5567 31.868 72.6727 31.244 74.5447 31.244C75.1327 31.244 75.6127 31.304 76.0087 31.424C76.0087 30.212 75.5767 29.564 74.3407 29.564C73.7167 29.564 73.0927 29.792 72.4807 30.26ZM74.0647 34.172C74.5327 34.172 74.9527 34.04 75.3007 33.788C75.6487 33.536 75.8767 33.248 76.0087 32.948V32.312C75.6607 32.192 75.2167 32.132 74.6767 32.132C73.3087 32.132 72.6247 32.468 72.6247 33.14C72.6247 33.776 73.2007 34.172 74.0647 34.172ZM79.2989 35H78.2909V28.76H79.2989V29.576C79.6949 28.964 80.5109 28.628 81.4349 28.628C83.1269 28.628 83.9669 29.564 83.9669 31.448V35H82.9589V31.568C82.9589 30.188 82.3709 29.576 81.1349 29.576C80.3669 29.576 79.6349 30.08 79.2989 30.836V35ZM89.0653 33.296C89.0653 32.456 87.6373 32.324 86.4973 32C85.7173 31.772 85.0933 31.256 85.0933 30.404C85.0933 29.3 86.1373 28.616 87.6853 28.616C88.7293 28.616 89.5693 29.06 90.0133 29.696L89.3053 30.356C88.9093 29.828 88.3093 29.564 87.5053 29.564C86.7853 29.564 86.1613 29.84 86.1613 30.356C86.1613 31.088 87.5893 31.22 88.7293 31.568C89.4973 31.808 90.1213 32.384 90.1213 33.284C90.1213 34.496 89.1493 35.108 87.6253 35.108C86.3413 35.108 85.2493 34.532 84.8053 33.632L85.6093 33.068C85.9813 33.728 86.8333 34.16 87.7933 34.16C88.6453 34.16 89.0653 33.872 89.0653 33.296ZM92.0902 37.4H91.0822V28.76H92.0902V29.54C92.5102 28.928 93.1822 28.616 94.1062 28.616C95.0182 28.616 95.7502 28.904 96.2902 29.492C96.8302 30.08 97.0942 30.836 97.0942 31.772C97.0942 32.732 96.8062 33.524 96.2302 34.16C95.6422 34.796 94.8982 35.108 93.9862 35.108C93.1462 35.108 92.5102 34.892 92.0902 34.472V37.4ZM93.9982 29.564C93.0862 29.564 92.3782 30.152 92.0902 30.86V33.188C92.4502 33.836 93.0502 34.16 93.9022 34.16C94.5142 34.16 95.0302 33.944 95.4262 33.512C95.8222 33.08 96.0262 32.528 96.0262 31.844C96.0262 30.452 95.2462 29.564 93.9982 29.564ZM97.7392 31.868C97.7392 30.92 98.0512 30.14 98.6632 29.528C99.2752 28.916 100.067 28.616 101.039 28.616C102.023 28.616 102.827 28.916 103.439 29.528C104.051 30.14 104.363 30.92 104.363 31.868C104.363 32.816 104.051 33.584 103.439 34.196C102.815 34.808 102.011 35.108 101.039 35.108C100.067 35.108 99.2752 34.808 98.6632 34.196C98.0512 33.584 97.7392 32.816 97.7392 31.868ZM98.8072 31.868C98.8072 32.528 99.0112 33.08 99.4312 33.512C99.8512 33.944 100.379 34.16 101.039 34.16C101.699 34.16 102.251 33.944 102.671 33.524C103.091 33.104 103.295 32.552 103.295 31.868C103.295 31.184 103.079 30.632 102.659 30.2C102.227 29.78 101.687 29.564 101.039 29.564C100.391 29.564 99.8632 29.78 99.4432 30.2C99.0232 30.62 98.8072 31.184 98.8072 31.868ZM106.37 35H105.362V28.76H106.37V29.24C106.574 28.82 107.114 28.628 107.654 28.628C108.206 28.628 108.626 28.82 108.926 29.192L108.29 29.888C108.134 29.684 107.894 29.576 107.546 29.576C107.006 29.576 106.514 30.02 106.37 30.656V35ZM110.354 29.72H109.058V28.76H110.354V27.164H111.362V28.76H113.51V29.72H111.362V32.468C111.362 33.68 111.674 34.124 112.442 34.124C112.814 34.124 113.198 33.98 113.57 33.68L114.026 34.424C113.63 34.868 113.042 35.084 112.262 35.084C111.026 35.084 110.354 34.268 110.354 32.732V29.72Z" fill="#76848D"/>
<rect y="50" width="10" height="10" fill="#CFD4FB"/>
<path d="M19.128 59H18.012L21.696 50.576H22.56L26.244 59H25.104L24.168 56.876H20.052L19.128 59ZM23.76 55.916L22.104 52.1L20.46 55.916H23.76ZM31.3857 52.724H32.3937V59H31.3857V58.112C30.9057 58.772 30.2337 59.108 29.3577 59.108C27.6297 59.108 26.7897 58.244 26.7897 56.336V52.724H27.7977V56.192C27.7977 57.5 28.3497 58.16 29.4417 58.16C30.3057 58.16 31.0017 57.668 31.3857 56.804V52.724ZM34.3624 53.72H33.0664V52.76H34.3624V51.164H35.3704V52.76H37.5184V53.72H35.3704V56.468C35.3704 57.68 35.6824 58.124 36.4504 58.124C36.8224 58.124 37.2064 57.98 37.5784 57.68L38.0344 58.424C37.6384 58.868 37.0504 59.084 36.2704 59.084C35.0344 59.084 34.3624 58.268 34.3624 56.732V53.72ZM38.1217 55.868C38.1217 54.92 38.4337 54.14 39.0457 53.528C39.6577 52.916 40.4497 52.616 41.4217 52.616C42.4057 52.616 43.2097 52.916 43.8217 53.528C44.4337 54.14 44.7457 54.92 44.7457 55.868C44.7457 56.816 44.4337 57.584 43.8217 58.196C43.1977 58.808 42.3937 59.108 41.4217 59.108C40.4497 59.108 39.6577 58.808 39.0457 58.196C38.4337 57.584 38.1217 56.816 38.1217 55.868ZM39.1897 55.868C39.1897 56.528 39.3937 57.08 39.8137 57.512C40.2337 57.944 40.7617 58.16 41.4217 58.16C42.0817 58.16 42.6337 57.944 43.0537 57.524C43.4737 57.104 43.6777 56.552 43.6777 55.868C43.6777 55.184 43.4617 54.632 43.0417 54.2C42.6097 53.78 42.0697 53.564 41.4217 53.564C40.7737 53.564 40.2457 53.78 39.8257 54.2C39.4057 54.62 39.1897 55.184 39.1897 55.868Z" fill="#76848D"/>
<rect y="74" width="10" height="10" fill="url(#paint0_linear_2355_32087)"/>
<path d="M23.76 80.768C23.76 78.692 18.576 79.892 18.576 76.796C18.576 76.148 18.864 75.596 19.44 75.152C20.004 74.708 20.76 74.492 21.684 74.492C23.088 74.492 24.108 74.9 24.744 75.716L24.036 76.424C23.436 75.824 22.644 75.524 21.66 75.524C21.168 75.524 20.724 75.62 20.316 75.824C19.908 76.028 19.704 76.352 19.704 76.772C19.704 77.816 21 78.02 22.296 78.368C23.592 78.716 24.888 79.184 24.888 80.684C24.888 81.392 24.6 81.98 24.024 82.424C23.448 82.88 22.716 83.108 21.84 83.108C21.12 83.108 20.448 82.952 19.812 82.628C19.176 82.316 18.696 81.932 18.396 81.488L19.104 80.72C19.692 81.488 20.736 82.076 21.948 82.076C22.956 82.076 23.76 81.572 23.76 80.768ZM30.7954 81.212L31.4434 81.812C30.8674 82.676 30.0394 83.108 28.9474 83.108C27.9514 83.108 27.1474 82.808 26.5354 82.22C25.9234 81.632 25.6234 80.852 25.6234 79.868C25.6234 78.92 25.8994 78.14 26.4634 77.528C27.0154 76.916 27.7954 76.616 28.8034 76.616C29.6314 76.616 30.3274 76.88 30.8674 77.396C31.4074 77.912 31.6834 78.596 31.6834 79.448C31.6834 79.724 31.6594 79.976 31.6234 80.204H26.7034C26.7634 81.44 27.6754 82.16 28.9834 82.16C29.7154 82.16 30.4114 81.776 30.7954 81.212ZM28.7314 77.54C27.5914 77.54 26.8474 78.236 26.6914 79.292H30.6154C30.5554 78.188 29.8474 77.54 28.7314 77.54ZM33.1634 78.26L32.6474 77.504C33.2234 76.964 34.2194 76.616 35.1434 76.616C36.8114 76.616 37.6994 77.528 37.6994 79.148V83H36.6914V82.076C36.2954 82.652 35.5154 83.084 34.5074 83.084C33.1514 83.084 32.2394 82.328 32.2394 81.176C32.2394 79.868 33.3554 79.244 35.2274 79.244C35.8154 79.244 36.2954 79.304 36.6914 79.424C36.6914 78.212 36.2594 77.564 35.0234 77.564C34.3994 77.564 33.7754 77.792 33.1634 78.26ZM34.7474 82.172C35.2154 82.172 35.6354 82.04 35.9834 81.788C36.3314 81.536 36.5594 81.248 36.6914 80.948V80.312C36.3434 80.192 35.8994 80.132 35.3594 80.132C33.9914 80.132 33.3074 80.468 33.3074 81.14C33.3074 81.776 33.8834 82.172 34.7474 82.172Z" fill="#76848D"/>
<path d="M56 417L104 417L104 426C104 427.105 103.105 428 102 428L58 428C56.8954 428 56 427.105 56 426L56 417Z" fill="url(#paint1_linear_2355_32087)"/>
<path opacity="0.2" d="M68 417L92 417L92 428L68 428L68 417Z" fill="url(#paint2_linear_2355_32087)"/>
<path opacity="0.04" d="M92 417L102 417C103.105 417 104 417.895 104 419L104 428L92 428L92 417Z" fill="#0D262C"/>
<path opacity="0.5" d="M56 417L68 417L68 428L58 428C56.8954 428 56 427.105 56 426L56 417Z" fill="url(#paint3_linear_2355_32087)"/>
<rect x="56" y="399" width="48" height="18" fill="url(#paint4_linear_2355_32087)"/>
<path opacity="0.2" d="M68 399L92 399L92 417L68 417L68 399Z" fill="url(#paint5_linear_2355_32087)"/>
<path opacity="0.04" d="M92 399L102 399C103.105 399 104 399.895 104 401L104 417L92 417L92 399Z" fill="#0D262C"/>
<rect opacity="0.5" x="56" y="399" width="12" height="18" fill="url(#paint6_linear_2355_32087)"/>
<path d="M56 110C56 108.895 56.8954 108 58 108L102 108C103.105 108 104 108.895 104 110L104 379L56 379L56 110Z" fill="url(#paint7_linear_2355_32087)"/>
<path opacity="0.2" d="M68 108L92 108L92 379L68 379L68 108Z" fill="url(#paint8_linear_2355_32087)"/>
<path opacity="0.04" d="M92 108L102 108C103.105 108 104 108.895 104 110L104 379L92 379L92 108Z" fill="#0D262C"/>
<path opacity="0.5" d="M56 110C56 108.895 56.8954 108 58 108L68 108L68 379L56 379L56 110Z" fill="url(#paint9_linear_2355_32087)"/>
<rect opacity="0.42" x="56" y="379" width="48" height="20" fill="url(#paint10_linear_2355_32087)"/>
<path opacity="0.2" d="M68 379L92 379L92 399L68 399L68 379Z" fill="url(#paint11_linear_2355_32087)"/>
<path opacity="0.04" d="M92 379L102 379C103.105 379 104 379.895 104 381L104 399L92 399L92 379Z" fill="#0D262C"/>
<rect opacity="0.5" x="56" y="379" width="12" height="20" fill="url(#paint12_linear_2355_32087)"/>
<path d="M67.5782 443.372L66.7022 443.06C67.0022 441.572 68.1302 440.504 69.9182 440.504C71.6462 440.504 72.7022 441.5 72.7022 443.024C72.7022 443.828 72.3542 444.632 71.9222 445.208C71.7062 445.508 71.4302 445.796 71.1062 446.096C70.4462 446.684 69.9782 446.996 69.2942 447.428L68.3702 448.004H73.0142V449H66.4742V448.184L68.2982 446.972C68.6222 446.768 68.8502 446.612 68.9822 446.516C69.1142 446.432 69.3302 446.276 69.6182 446.072C69.9062 445.868 70.1222 445.688 70.2662 445.556C70.3982 445.424 70.5782 445.256 70.7822 445.04C71.3342 444.44 71.5382 443.888 71.5982 443.132C71.5982 442.04 70.8902 441.548 69.8462 441.548C69.1982 441.548 68.6822 441.728 68.3102 442.088C67.9382 442.448 67.6862 442.88 67.5782 443.372ZM73.8458 444.8C73.8458 443.504 74.1458 442.46 74.7578 441.68C75.3578 440.9 76.2458 440.504 77.4098 440.504C79.7978 440.504 80.9858 442.076 80.9858 444.8C80.9858 446.108 80.6858 447.14 80.0978 447.92C79.4978 448.7 78.6098 449.096 77.4338 449.096C76.3058 449.096 75.4298 448.7 74.7938 447.908C74.1578 447.116 73.8458 446.084 73.8458 444.8ZM74.9498 444.8C74.9498 446.852 75.8858 448.076 77.4338 448.076C79.0658 448.076 79.8818 446.984 79.8818 444.8C79.8818 442.616 79.0538 441.524 77.4098 441.524C75.7418 441.524 74.9498 442.724 74.9498 444.8ZM82.8421 443.372L81.9661 443.06C82.2661 441.572 83.3941 440.504 85.1821 440.504C86.9101 440.504 87.9661 441.5 87.9661 443.024C87.9661 443.828 87.6181 444.632 87.1861 445.208C86.9701 445.508 86.6941 445.796 86.3701 446.096C85.7101 446.684 85.2421 446.996 84.5581 447.428L83.6341 448.004H88.2781V449H81.7381V448.184L83.5621 446.972C83.8861 446.768 84.1141 446.612 84.2461 446.516C84.3781 446.432 84.5941 446.276 84.8821 446.072C85.1701 445.868 85.3861 445.688 85.5301 445.556C85.6621 445.424 85.8421 445.256 86.0461 445.04C86.5981 444.44 86.8021 443.888 86.8621 443.132C86.8621 442.04 86.1541 441.548 85.1101 441.548C84.4621 441.548 83.9461 441.728 83.5741 442.088C83.2021 442.448 82.9501 442.88 82.8421 443.372ZM89.9378 443.048L89.0378 442.64C89.4818 441.344 90.6458 440.492 92.3858 440.492C93.2138 440.492 93.8978 440.684 94.4258 441.068C94.9538 441.452 95.2178 441.968 95.2178 442.604C95.2178 443.576 94.7018 444.296 93.7418 444.572C94.6658 444.632 95.4098 445.328 95.4098 446.576C95.4098 447.368 95.1218 447.992 94.5458 448.436C93.9698 448.88 93.2378 449.108 92.3378 449.108C90.5018 449.108 89.2298 448.232 88.8098 446.852L89.7818 446.432C90.2978 447.524 91.1738 448.076 92.4098 448.076C93.5738 448.076 94.3058 447.536 94.3058 446.588C94.3058 445.664 93.5858 445.196 92.1458 445.196H91.2098V444.2H91.9538C93.2618 444.2 94.1138 443.612 94.1138 442.808C94.1138 441.98 93.4298 441.512 92.3378 441.512C91.0538 441.512 90.2738 442.172 89.9378 443.048Z" fill="#76848D"/>
<path d="M114.49 420.804L114.042 419.754L117.402 418.144H118.2V428H116.996V419.642L114.49 420.804ZM120.083 427.202C120.083 426.81 120.447 426.418 120.951 426.418C121.413 426.418 121.791 426.81 121.791 427.202C121.791 427.65 121.441 428.028 120.951 428.028C120.447 428.028 120.083 427.65 120.083 427.202ZM122.949 423.1C122.949 421.588 123.299 420.37 124.013 419.46C124.713 418.55 125.749 418.088 127.107 418.088C129.893 418.088 131.279 419.922 131.279 423.1C131.279 424.626 130.929 425.83 130.243 426.74C129.543 427.65 128.507 428.112 127.135 428.112C125.819 428.112 124.797 427.65 124.055 426.726C123.313 425.802 122.949 424.598 122.949 423.1ZM124.237 423.1C124.237 425.494 125.329 426.922 127.135 426.922C129.039 426.922 129.991 425.648 129.991 423.1C129.991 420.552 129.025 419.278 127.107 419.278C125.161 419.278 124.237 420.678 124.237 423.1Z" fill="#1A3341"/>
<path d="M114.49 401.804L114.042 400.754L117.402 399.144H118.2V409H116.996V400.642L114.49 401.804ZM120.083 408.202C120.083 407.81 120.447 407.418 120.951 407.418C121.413 407.418 121.791 407.81 121.791 408.202C121.791 408.65 121.441 409.028 120.951 409.028C120.447 409.028 120.083 408.65 120.083 408.202ZM128.563 400.39H122.627V399.2H130.061V399.998L125.189 409H123.859L128.563 400.39Z" fill="#1A3341"/>
<path d="M114.49 381.804L114.042 380.754L117.402 379.144H118.2V389H116.996V380.642L114.49 381.804ZM120.083 388.202C120.083 387.81 120.447 387.418 120.951 387.418C121.413 387.418 121.791 387.81 121.791 388.202C121.791 388.65 121.441 389.028 120.951 389.028C120.447 389.028 120.083 388.65 120.083 388.202ZM126.813 383.414H127.247C127.877 383.414 128.395 383.26 128.829 382.966C129.249 382.672 129.459 382.28 129.459 381.818C129.459 380.768 128.633 380.236 126.995 380.236C125.427 380.236 124.573 380.81 124.573 381.818C124.573 382.728 125.511 383.414 126.813 383.414ZM127.219 384.52H126.869C126.113 384.52 125.483 384.688 124.993 385.01C124.503 385.332 124.251 385.738 124.251 386.228C124.251 387.292 125.231 387.964 127.009 387.964C128.815 387.964 129.781 387.32 129.781 386.242C129.781 385.164 128.745 384.52 127.219 384.52ZM129.977 388.37C129.263 388.874 128.269 389.126 127.023 389.126C125.777 389.126 124.783 388.874 124.055 388.384C123.327 387.894 122.963 387.222 122.963 386.354C122.963 385.22 123.705 384.324 124.895 383.932C123.817 383.582 123.285 382.728 123.285 381.734C123.285 380.11 124.657 379.074 127.009 379.074C129.375 379.074 130.747 380.11 130.747 381.734C130.747 382.672 130.229 383.386 129.193 383.862C130.439 384.24 131.055 385.052 131.055 386.298C131.055 387.18 130.691 387.88 129.977 388.37Z" fill="#1A3341"/>
<path d="M122.75 112.918C122.75 114.584 122.358 115.872 121.56 116.768C120.762 117.678 119.698 118.126 118.368 118.126C116.744 118.126 115.47 117.44 114.84 116.39L115.848 115.69C116.408 116.474 117.43 116.922 118.536 116.922C119.446 116.922 120.174 116.558 120.748 115.83C121.322 115.116 121.56 114.22 121.49 113.156C121.028 114.22 119.866 115.004 118.312 115.004C117.22 115.004 116.324 114.696 115.624 114.066C114.91 113.45 114.56 112.638 114.56 111.644C114.56 110.552 114.938 109.684 115.694 109.04C116.45 108.396 117.458 108.074 118.704 108.074C121.224 108.074 122.75 109.838 122.75 112.918ZM121.28 111.602C121.07 110.3 120.174 109.278 118.564 109.278C116.884 109.278 115.848 110.146 115.848 111.602C115.848 112.988 116.898 113.8 118.536 113.8C119.278 113.8 119.908 113.576 120.398 113.128C120.888 112.68 121.182 112.176 121.28 111.602ZM125.228 113.492L124.22 113.226L124.794 108.2H130.954V109.39H125.872L125.508 112.022C125.998 111.658 126.74 111.476 127.734 111.476C128.882 111.476 129.778 111.784 130.436 112.386C131.08 113.002 131.402 113.786 131.402 114.752C131.402 115.718 131.038 116.53 130.324 117.16C129.596 117.804 128.686 118.126 127.608 118.126C125.774 118.126 124.248 117.258 123.618 115.732L124.738 115.256C125.144 116.194 126.194 116.936 127.608 116.936C129.218 116.936 130.114 116.012 130.114 114.794C130.114 113.492 129.064 112.652 127.398 112.652C126.502 112.652 125.774 112.932 125.228 113.492ZM132.563 117.202C132.563 116.81 132.927 116.418 133.431 116.418C133.893 116.418 134.271 116.81 134.271 117.202C134.271 117.65 133.921 118.028 133.431 118.028C132.927 118.028 132.563 117.65 132.563 117.202ZM136.856 113.492L135.848 113.226L136.422 108.2H142.582V109.39H137.5L137.136 112.022C137.626 111.658 138.368 111.476 139.362 111.476C140.51 111.476 141.406 111.784 142.064 112.386C142.708 113.002 143.03 113.786 143.03 114.752C143.03 115.718 142.666 116.53 141.952 117.16C141.224 117.804 140.314 118.126 139.236 118.126C137.402 118.126 135.876 117.258 135.246 115.732L136.366 115.256C136.772 116.194 137.822 116.936 139.236 116.936C140.846 116.936 141.742 116.012 141.742 114.794C141.742 113.492 140.692 112.652 139.026 112.652C138.13 112.652 137.402 112.932 136.856 113.492Z" fill="#1A3341"/>
<path d="M164 412L212 412L212 426C212 427.105 211.105 428 210 428L166 428C164.895 428 164 427.105 164 426L164 412Z" fill="url(#paint13_linear_2355_32087)"/>
<path opacity="0.2" d="M176 412L200 412L200 428L176 428L176 412Z" fill="url(#paint14_linear_2355_32087)"/>
<path opacity="0.04" d="M200 412L210 412C211.105 412 212 412.895 212 414L212 428L200 428L200 412Z" fill="#0D262C"/>
<path opacity="0.5" d="M164 412L176 412L176 428L166 428C164.895 428 164 427.105 164 426L164 412Z" fill="url(#paint15_linear_2355_32087)"/>
<rect x="164" y="399" width="48" height="13" fill="url(#paint16_linear_2355_32087)"/>
<path opacity="0.2" d="M176 399L200 399L200 412L176 412L176 399Z" fill="url(#paint17_linear_2355_32087)"/>
<path opacity="0.04" d="M200 399L210 399C211.105 399 212 399.895 212 401L212 412L200 412L200 399Z" fill="#0D262C"/>
<rect opacity="0.5" x="164" y="399" width="12" height="13" fill="url(#paint18_linear_2355_32087)"/>
<path d="M164 110C164 108.895 164.895 108 166 108L210 108C211.105 108 212 108.895 212 110L212 383L164 383L164 110Z" fill="url(#paint19_linear_2355_32087)"/>
<path opacity="0.2" d="M176 108L200 108L200 383L176 383L176 108Z" fill="url(#paint20_linear_2355_32087)"/>
<path opacity="0.04" d="M200 108L210 108C211.105 108 212 108.895 212 110L212 383L200 383L200 108Z" fill="#0D262C"/>
<path opacity="0.5" d="M164 110C164 108.895 164.895 108 166 108L176 108L176 383L164 383L164 110Z" fill="url(#paint21_linear_2355_32087)"/>
<rect opacity="0.42" x="164" y="383" width="48" height="16" fill="url(#paint22_linear_2355_32087)"/>
<path opacity="0.2" d="M176 383L200 383L200 399L176 399L176 383Z" fill="url(#paint23_linear_2355_32087)"/>
<path opacity="0.04" d="M200 383L210 383C211.105 383 212 383.895 212 385L212 399L200 399L200 383Z" fill="#0D262C"/>
<rect opacity="0.5" x="164" y="383" width="12" height="16" fill="url(#paint24_linear_2355_32087)"/>
<path d="M175.637 443.372L174.761 443.06C175.061 441.572 176.189 440.504 177.977 440.504C179.705 440.504 180.761 441.5 180.761 443.024C180.761 443.828 180.413 444.632 179.981 445.208C179.765 445.508 179.489 445.796 179.165 446.096C178.505 446.684 178.037 446.996 177.353 447.428L176.429 448.004H181.073V449H174.533V448.184L176.357 446.972C176.681 446.768 176.909 446.612 177.041 446.516C177.173 446.432 177.389 446.276 177.677 446.072C177.965 445.868 178.181 445.688 178.325 445.556C178.457 445.424 178.637 445.256 178.841 445.04C179.393 444.44 179.597 443.888 179.657 443.132C179.657 442.04 178.949 441.548 177.905 441.548C177.257 441.548 176.741 441.728 176.369 442.088C175.997 442.448 175.745 442.88 175.637 443.372ZM181.904 444.8C181.904 443.504 182.204 442.46 182.816 441.68C183.416 440.9 184.304 440.504 185.468 440.504C187.856 440.504 189.044 442.076 189.044 444.8C189.044 446.108 188.744 447.14 188.156 447.92C187.556 448.7 186.668 449.096 185.492 449.096C184.364 449.096 183.488 448.7 182.852 447.908C182.216 447.116 181.904 446.084 181.904 444.8ZM183.008 444.8C183.008 446.852 183.944 448.076 185.492 448.076C187.124 448.076 187.94 446.984 187.94 444.8C187.94 442.616 187.112 441.524 185.468 441.524C183.8 441.524 183.008 442.724 183.008 444.8ZM190.901 443.372L190.025 443.06C190.325 441.572 191.453 440.504 193.241 440.504C194.969 440.504 196.025 441.5 196.025 443.024C196.025 443.828 195.677 444.632 195.245 445.208C195.029 445.508 194.753 445.796 194.429 446.096C193.769 446.684 193.301 446.996 192.617 447.428L191.693 448.004H196.337V449H189.797V448.184L191.621 446.972C191.945 446.768 192.173 446.612 192.305 446.516C192.437 446.432 192.653 446.276 192.941 446.072C193.229 445.868 193.445 445.688 193.589 445.556C193.721 445.424 193.901 445.256 194.105 445.04C194.657 444.44 194.861 443.888 194.921 443.132C194.921 442.04 194.213 441.548 193.169 441.548C192.521 441.548 192.005 441.728 191.633 442.088C191.261 442.448 191.009 442.88 190.901 443.372ZM198.128 443.372L197.252 443.06C197.552 441.572 198.68 440.504 200.468 440.504C202.196 440.504 203.252 441.5 203.252 443.024C203.252 443.828 202.904 444.632 202.472 445.208C202.256 445.508 201.98 445.796 201.656 446.096C200.996 446.684 200.528 446.996 199.844 447.428L198.92 448.004H203.564V449H197.024V448.184L198.848 446.972C199.172 446.768 199.4 446.612 199.532 446.516C199.664 446.432 199.88 446.276 200.168 446.072C200.456 445.868 200.672 445.688 200.816 445.556C200.948 445.424 201.128 445.256 201.332 445.04C201.884 444.44 202.088 443.888 202.148 443.132C202.148 442.04 201.44 441.548 200.396 441.548C199.748 441.548 199.232 441.728 198.86 442.088C198.488 442.448 198.236 442.88 198.128 443.372Z" fill="#76848D"/>
<path d="M222.49 420.804L222.042 419.754L225.402 418.144H226.2V428H224.996V419.642L222.49 420.804ZM228.083 427.202C228.083 426.81 228.447 426.418 228.951 426.418C229.413 426.418 229.791 426.81 229.791 427.202C229.791 427.65 229.441 428.028 228.951 428.028C228.447 428.028 228.083 427.65 228.083 427.202ZM232.377 423.492L231.369 423.226L231.943 418.2H238.103V419.39H233.021L232.657 422.022C233.147 421.658 233.889 421.476 234.883 421.476C236.031 421.476 236.927 421.784 237.585 422.386C238.229 423.002 238.551 423.786 238.551 424.752C238.551 425.718 238.187 426.53 237.473 427.16C236.745 427.804 235.835 428.126 234.757 428.126C232.923 428.126 231.397 427.258 230.767 425.732L231.887 425.256C232.293 426.194 233.343 426.936 234.757 426.936C236.367 426.936 237.263 426.012 237.263 424.794C237.263 423.492 236.213 422.652 234.547 422.652C233.651 422.652 232.923 422.932 232.377 423.492Z" fill="#1A3341"/>
<path d="M222.49 401.804L222.042 400.754L225.402 399.144H226.2V409H224.996V400.642L222.49 401.804ZM228.083 408.202C228.083 407.81 228.447 407.418 228.951 407.418C229.413 407.418 229.791 407.81 229.791 408.202C229.791 408.65 229.441 409.028 228.951 409.028C228.447 409.028 228.083 408.65 228.083 408.202ZM231.915 402.056L230.865 401.58C231.383 400.068 232.741 399.074 234.771 399.074C235.737 399.074 236.535 399.298 237.151 399.746C237.767 400.194 238.075 400.796 238.075 401.538C238.075 402.672 237.473 403.512 236.353 403.834C237.431 403.904 238.299 404.716 238.299 406.172C238.299 407.096 237.963 407.824 237.291 408.342C236.619 408.86 235.765 409.126 234.715 409.126C232.573 409.126 231.089 408.104 230.599 406.494L231.733 406.004C232.335 407.278 233.357 407.922 234.799 407.922C236.157 407.922 237.011 407.292 237.011 406.186C237.011 405.108 236.171 404.562 234.491 404.562H233.399V403.4H234.267C235.793 403.4 236.787 402.714 236.787 401.776C236.787 400.81 235.989 400.264 234.715 400.264C233.217 400.264 232.307 401.034 231.915 402.056Z" fill="#1A3341"/>
<path d="M222.49 385.804L222.042 384.754L225.402 383.144H226.2V393H224.996V384.642L222.49 385.804ZM228.083 392.202C228.083 391.81 228.447 391.418 228.951 391.418C229.413 391.418 229.791 391.81 229.791 392.202C229.791 392.65 229.441 393.028 228.951 393.028C228.447 393.028 228.083 392.65 228.083 392.202ZM232.377 388.492L231.369 388.226L231.943 383.2H238.103V384.39H233.021L232.657 387.022C233.147 386.658 233.889 386.476 234.883 386.476C236.031 386.476 236.927 386.784 237.585 387.386C238.229 388.002 238.551 388.786 238.551 389.752C238.551 390.718 238.187 391.53 237.473 392.16C236.745 392.804 235.835 393.126 234.757 393.126C232.923 393.126 231.397 392.258 230.767 390.732L231.887 390.256C232.293 391.194 233.343 391.936 234.757 391.936C236.367 391.936 237.263 391.012 237.263 389.794C237.263 388.492 236.213 387.652 234.547 387.652C233.651 387.652 232.923 387.932 232.377 388.492Z" fill="#1A3341"/>
<path d="M230.75 112.918C230.75 114.584 230.358 115.872 229.56 116.768C228.762 117.678 227.698 118.126 226.368 118.126C224.744 118.126 223.47 117.44 222.84 116.39L223.848 115.69C224.408 116.474 225.43 116.922 226.536 116.922C227.446 116.922 228.174 116.558 228.748 115.83C229.322 115.116 229.56 114.22 229.49 113.156C229.028 114.22 227.866 115.004 226.312 115.004C225.22 115.004 224.324 114.696 223.624 114.066C222.91 113.45 222.56 112.638 222.56 111.644C222.56 110.552 222.938 109.684 223.694 109.04C224.45 108.396 225.458 108.074 226.704 108.074C229.224 108.074 230.75 109.838 230.75 112.918ZM229.28 111.602C229.07 110.3 228.174 109.278 226.564 109.278C224.884 109.278 223.848 110.146 223.848 111.602C223.848 112.988 224.898 113.8 226.536 113.8C227.278 113.8 227.908 113.576 228.398 113.128C228.888 112.68 229.182 112.176 229.28 111.602ZM233.228 113.492L232.22 113.226L232.794 108.2H238.954V109.39H233.872L233.508 112.022C233.998 111.658 234.74 111.476 235.734 111.476C236.882 111.476 237.778 111.784 238.436 112.386C239.08 113.002 239.402 113.786 239.402 114.752C239.402 115.718 239.038 116.53 238.324 117.16C237.596 117.804 236.686 118.126 235.608 118.126C233.774 118.126 232.248 117.258 231.618 115.732L232.738 115.256C233.144 116.194 234.194 116.936 235.608 116.936C237.218 116.936 238.114 116.012 238.114 114.794C238.114 113.492 237.064 112.652 235.398 112.652C234.502 112.652 233.774 112.932 233.228 113.492ZM241.403 118C240.885 118.056 240.493 117.762 240.493 117.258C240.493 116.768 240.801 116.46 241.347 116.46C241.963 116.46 242.369 116.88 242.369 117.664C242.369 119.064 241.599 119.778 240.577 120.016L240.283 119.358C240.591 119.274 240.871 119.106 241.123 118.84C241.361 118.574 241.459 118.294 241.403 118ZM245.085 117.202C245.085 116.81 245.449 116.418 245.953 116.418C246.415 116.418 246.793 116.81 246.793 117.202C246.793 117.65 246.443 118.028 245.953 118.028C245.449 118.028 245.085 117.65 245.085 117.202ZM247.95 113.366C247.95 111.672 248.37 110.37 249.196 109.446C250.022 108.536 251.058 108.074 252.304 108.074C253.942 108.074 255.23 108.816 255.776 109.992L254.824 110.636C254.25 109.726 253.396 109.278 252.248 109.278C251.38 109.278 250.652 109.614 250.064 110.286C249.476 110.972 249.182 111.896 249.196 113.086C249.742 112.064 251.016 111.448 252.416 111.448C253.55 111.448 254.46 111.742 255.118 112.344C255.776 112.946 256.112 113.744 256.112 114.724C256.112 115.718 255.748 116.544 255.006 117.174C254.264 117.804 253.34 118.126 252.234 118.126C249.588 118.126 247.95 116.404 247.95 113.366ZM249.35 114.556C249.616 115.942 250.666 116.922 252.22 116.922C252.976 116.922 253.606 116.726 254.096 116.32C254.586 115.928 254.824 115.41 254.824 114.78C254.824 113.394 253.844 112.652 252.346 112.652C251.52 112.652 250.834 112.848 250.302 113.24C249.756 113.632 249.448 114.066 249.35 114.556Z" fill="#1A3341"/>
<defs>
<linearGradient id="paint0_linear_2355_32087" x1="5" y1="74" x2="5" y2="84" gradientUnits="userSpaceOnUse">
<stop stop-color="#CDE3E9"/>
<stop offset="1" stop-color="#D3E8ED"/>
</linearGradient>
<linearGradient id="paint1_linear_2355_32087" x1="80" y1="417" x2="80" y2="428" gradientUnits="userSpaceOnUse">
<stop stop-color="#6D73F9"/>
<stop offset="1" stop-color="#9BB8F1"/>
</linearGradient>
<linearGradient id="paint2_linear_2355_32087" x1="80" y1="417" x2="80" y2="428" gradientUnits="userSpaceOnUse">
<stop stop-color="white" stop-opacity="0"/>
<stop offset="0.739583" stop-color="white"/>
</linearGradient>
<linearGradient id="paint3_linear_2355_32087" x1="62" y1="395.55" x2="62" y2="428" gradientUnits="userSpaceOnUse">
<stop stop-color="white" stop-opacity="0.05"/>
<stop offset="0.75" stop-color="white" stop-opacity="0.8"/>
</linearGradient>
<linearGradient id="paint4_linear_2355_32087" x1="80" y1="399" x2="80" y2="417" gradientUnits="userSpaceOnUse">
<stop stop-color="#6AA2E2"/>
<stop offset="1" stop-color="#9DBCFA"/>
</linearGradient>
<linearGradient id="paint5_linear_2355_32087" x1="80" y1="399" x2="80" y2="417" gradientUnits="userSpaceOnUse">
<stop stop-color="white" stop-opacity="0"/>
<stop offset="0.739583" stop-color="white"/>
</linearGradient>
<linearGradient id="paint6_linear_2355_32087" x1="62" y1="363.9" x2="62" y2="417" gradientUnits="userSpaceOnUse">
<stop stop-color="white" stop-opacity="0.05"/>
<stop offset="0.75" stop-color="white" stop-opacity="0.8"/>
</linearGradient>
<linearGradient id="paint7_linear_2355_32087" x1="80" y1="108" x2="80" y2="379" gradientUnits="userSpaceOnUse">
<stop stop-color="#CDE3E9"/>
<stop offset="1" stop-color="#D3E8ED"/>
</linearGradient>
<linearGradient id="paint8_linear_2355_32087" x1="80" y1="108" x2="80" y2="379" gradientUnits="userSpaceOnUse">
<stop stop-color="white" stop-opacity="0"/>
<stop offset="0.739583" stop-color="white"/>
</linearGradient>
<linearGradient id="paint9_linear_2355_32087" x1="62" y1="-420.45" x2="61.9999" y2="379" gradientUnits="userSpaceOnUse">
<stop stop-color="white" stop-opacity="0.05"/>
<stop offset="0.75" stop-color="white" stop-opacity="0.8"/>
</linearGradient>
<linearGradient id="paint10_linear_2355_32087" x1="80" y1="379" x2="80" y2="399" gradientUnits="userSpaceOnUse">
<stop stop-color="#6D73F9"/>
<stop offset="1" stop-color="#9BB8F1"/>
</linearGradient>
<linearGradient id="paint11_linear_2355_32087" x1="80" y1="379" x2="80" y2="399" gradientUnits="userSpaceOnUse">
<stop stop-color="white" stop-opacity="0"/>
<stop offset="0.739583" stop-color="white"/>
</linearGradient>
<linearGradient id="paint12_linear_2355_32087" x1="62" y1="340" x2="62" y2="399" gradientUnits="userSpaceOnUse">
<stop stop-color="white" stop-opacity="0.05"/>
<stop offset="0.75" stop-color="white" stop-opacity="0.8"/>
</linearGradient>
<linearGradient id="paint13_linear_2355_32087" x1="188" y1="412" x2="188" y2="428" gradientUnits="userSpaceOnUse">
<stop stop-color="#6D73F9"/>
<stop offset="1" stop-color="#9BB8F1"/>
</linearGradient>
<linearGradient id="paint14_linear_2355_32087" x1="188" y1="412" x2="188" y2="428" gradientUnits="userSpaceOnUse">
<stop stop-color="white" stop-opacity="0"/>
<stop offset="0.739583" stop-color="white"/>
</linearGradient>
<linearGradient id="paint15_linear_2355_32087" x1="170" y1="380.8" x2="170" y2="428" gradientUnits="userSpaceOnUse">
<stop stop-color="white" stop-opacity="0.05"/>
<stop offset="0.75" stop-color="white" stop-opacity="0.8"/>
</linearGradient>
<linearGradient id="paint16_linear_2355_32087" x1="188" y1="399" x2="188" y2="412" gradientUnits="userSpaceOnUse">
<stop stop-color="#6AA2E2"/>
<stop offset="1" stop-color="#9DBCFA"/>
</linearGradient>
<linearGradient id="paint17_linear_2355_32087" x1="188" y1="399" x2="188" y2="412" gradientUnits="userSpaceOnUse">
<stop stop-color="white" stop-opacity="0"/>
<stop offset="0.739583" stop-color="white"/>
</linearGradient>
<linearGradient id="paint18_linear_2355_32087" x1="170" y1="373.65" x2="170" y2="412" gradientUnits="userSpaceOnUse">
<stop stop-color="white" stop-opacity="0.05"/>
<stop offset="0.75" stop-color="white" stop-opacity="0.8"/>
</linearGradient>
<linearGradient id="paint19_linear_2355_32087" x1="188" y1="108" x2="188" y2="383" gradientUnits="userSpaceOnUse">
<stop stop-color="#CDE3E9"/>
<stop offset="1" stop-color="#D3E8ED"/>
</linearGradient>
<linearGradient id="paint20_linear_2355_32087" x1="188" y1="108" x2="188" y2="383" gradientUnits="userSpaceOnUse">
<stop stop-color="white" stop-opacity="0"/>
<stop offset="0.739583" stop-color="white"/>
</linearGradient>
<linearGradient id="paint21_linear_2355_32087" x1="170" y1="-428.25" x2="170" y2="383" gradientUnits="userSpaceOnUse">
<stop stop-color="white" stop-opacity="0.05"/>
<stop offset="0.75" stop-color="white" stop-opacity="0.8"/>
</linearGradient>
<linearGradient id="paint22_linear_2355_32087" x1="188" y1="383" x2="188" y2="399" gradientUnits="userSpaceOnUse">
<stop stop-color="#6D73F9"/>
<stop offset="1" stop-color="#9BB8F1"/>
</linearGradient>
<linearGradient id="paint23_linear_2355_32087" x1="188" y1="383" x2="188" y2="399" gradientUnits="userSpaceOnUse">
<stop stop-color="white" stop-opacity="0"/>
<stop offset="0.739583" stop-color="white"/>
</linearGradient>
<linearGradient id="paint24_linear_2355_32087" x1="170" y1="351.8" x2="170" y2="399" gradientUnits="userSpaceOnUse">
<stop stop-color="white" stop-opacity="0.05"/>
<stop offset="0.75" stop-color="white" stop-opacity="0.8"/>
</linearGradient>
</defs>
</svg>
