<svg width="1119" height="302" viewBox="0 0 1119 302" fill="none" xmlns="http://www.w3.org/2000/svg">
<path d="M100 146L100 194L69 194C67.8954 194 67 193.105 67 192L67 148C67 146.895 67.8954 146 69 146L100 146Z" fill="url(#paint0_linear_1004_11441)"/>
<path opacity="0.2" d="M100 158L100 182L67 182L67 158L100 158Z" fill="url(#paint1_linear_1004_11441)"/>
<path opacity="0.04" d="M100 182L100 192C100 193.105 99.1046 194 98 194L67 194L67 182L100 182Z" fill="#0D262C"/>
<path opacity="0.5" d="M100 146L100 158L67 158L67 148C67 146.895 67.8954 146 69 146L100 146Z" fill="url(#paint2_linear_1004_11441)"/>
<rect x="161" y="146" width="48" height="61" transform="rotate(90 161 146)" fill="url(#paint3_linear_1004_11441)"/>
<path opacity="0.2" d="M161 158L161 182L100 182L100 158L161 158Z" fill="url(#paint4_linear_1004_11441)"/>
<path opacity="0.04" d="M161 182L161 192C161 193.105 160.105 194 159 194L100 194L100 182L161 182Z" fill="#0D262C"/>
<rect opacity="0.5" x="161" y="146" width="12" height="61" transform="rotate(90 161 146)" fill="url(#paint5_linear_1004_11441)"/>
<path d="M1117 146C1118.1 146 1119 146.895 1119 148L1119 192C1119 193.105 1118.1 194 1117 194L229 194L229 146L1117 146Z" fill="url(#paint6_linear_1004_11441)"/>
<path opacity="0.2" d="M1119 158L1119 182L229 182L229 158L1119 158Z" fill="url(#paint7_linear_1004_11441)"/>
<path opacity="0.04" d="M1119 182L1119 192C1119 193.105 1118.1 194 1117 194L229 194L229 182L1119 182Z" fill="#0D262C"/>
<path opacity="0.5" d="M1117 146C1118.1 146 1119 146.895 1119 148L1119 158L229 158L229 146L1117 146Z" fill="url(#paint8_linear_1004_11441)"/>
<rect opacity="0.42" x="229" y="146" width="48" height="68" transform="rotate(90 229 146)" fill="url(#paint9_linear_1004_11441)"/>
<path opacity="0.2" d="M229 158L229 182L161 182L161 158L229 158Z" fill="url(#paint10_linear_1004_11441)"/>
<path opacity="0.04" d="M229 182L229 192C229 193.105 228.105 194 227 194L161 194L161 182L229 182Z" fill="#0D262C"/>
<rect opacity="0.5" x="229" y="146" width="12" height="68" transform="rotate(90 229 146)" fill="url(#paint11_linear_1004_11441)"/>
<path d="M11.5782 167.372L10.7022 167.06C11.0022 165.572 12.1302 164.504 13.9182 164.504C15.6462 164.504 16.7022 165.5 16.7022 167.024C16.7022 167.828 16.3542 168.632 15.9222 169.208C15.7062 169.508 15.4302 169.796 15.1062 170.096C14.4462 170.684 13.9782 170.996 13.2942 171.428L12.3702 172.004H17.0142V173H10.4742V172.184L12.2982 170.972C12.6222 170.768 12.8502 170.612 12.9822 170.516C13.1142 170.432 13.3302 170.276 13.6182 170.072C13.9062 169.868 14.1222 169.688 14.2662 169.556C14.3982 169.424 14.5782 169.256 14.7822 169.04C15.3342 168.44 15.5382 167.888 15.5982 167.132C15.5982 166.04 14.8902 165.548 13.8462 165.548C13.1982 165.548 12.6822 165.728 12.3102 166.088C11.9382 166.448 11.6862 166.88 11.5782 167.372ZM17.8458 168.8C17.8458 167.504 18.1458 166.46 18.7578 165.68C19.3578 164.9 20.2458 164.504 21.4098 164.504C23.7978 164.504 24.9858 166.076 24.9858 168.8C24.9858 170.108 24.6858 171.14 24.0978 171.92C23.4978 172.7 22.6098 173.096 21.4338 173.096C20.3058 173.096 19.4298 172.7 18.7938 171.908C18.1578 171.116 17.8458 170.084 17.8458 168.8ZM18.9498 168.8C18.9498 170.852 19.8858 172.076 21.4338 172.076C23.0658 172.076 23.8818 170.984 23.8818 168.8C23.8818 166.616 23.0538 165.524 21.4098 165.524C19.7418 165.524 18.9498 166.724 18.9498 168.8ZM26.8421 167.372L25.9661 167.06C26.2661 165.572 27.3941 164.504 29.1821 164.504C30.9101 164.504 31.9661 165.5 31.9661 167.024C31.9661 167.828 31.6181 168.632 31.1861 169.208C30.9701 169.508 30.6941 169.796 30.3701 170.096C29.7101 170.684 29.2421 170.996 28.5581 171.428L27.6341 172.004H32.2781V173H25.7381V172.184L27.5621 170.972C27.8861 170.768 28.1141 170.612 28.2461 170.516C28.3781 170.432 28.5941 170.276 28.8821 170.072C29.1701 169.868 29.3861 169.688 29.5301 169.556C29.6621 169.424 29.8421 169.256 30.0461 169.04C30.5981 168.44 30.8021 167.888 30.8621 167.132C30.8621 166.04 30.1541 165.548 29.1101 165.548C28.4621 165.548 27.9461 165.728 27.5741 166.088C27.2021 166.448 26.9501 166.88 26.8421 167.372ZM33.9378 167.048L33.0378 166.64C33.4818 165.344 34.6458 164.492 36.3858 164.492C37.2138 164.492 37.8978 164.684 38.4258 165.068C38.9538 165.452 39.2178 165.968 39.2178 166.604C39.2178 167.576 38.7018 168.296 37.7418 168.572C38.6658 168.632 39.4098 169.328 39.4098 170.576C39.4098 171.368 39.1218 171.992 38.5458 172.436C37.9698 172.88 37.2378 173.108 36.3378 173.108C34.5018 173.108 33.2298 172.232 32.8098 170.852L33.7818 170.432C34.2978 171.524 35.1738 172.076 36.4098 172.076C37.5738 172.076 38.3058 171.536 38.3058 170.588C38.3058 169.664 37.5858 169.196 36.1458 169.196H35.2098V168.2H35.9538C37.2618 168.2 38.1138 167.612 38.1138 166.808C38.1138 165.98 37.4298 165.512 36.3378 165.512C35.0538 165.512 34.2738 166.172 33.9378 167.048Z" fill="#76848D"/>
<rect y="2" width="10" height="10" fill="#737AF9"/>
<path d="M19.128 11H18.012L21.696 2.576H22.56L26.244 11H25.104L24.168 8.876H20.052L19.128 11ZM23.76 7.916L22.104 4.1L20.46 7.916H23.76ZM30.7875 4.76H31.8675L29.0715 11H28.3275L25.4115 4.76H26.5755L28.7235 9.428L30.7875 4.76ZM33.4601 11H32.4521V4.76H33.4601V11ZM32.3201 2.732C32.3201 2.396 32.5961 2.144 32.9681 2.144C33.3041 2.144 33.5921 2.396 33.5921 2.732C33.5921 3.08 33.3041 3.356 32.9681 3.356C32.5961 3.356 32.3201 3.08 32.3201 2.732ZM35.4106 6.26L34.8946 5.504C35.4706 4.964 36.4666 4.616 37.3906 4.616C39.0586 4.616 39.9466 5.528 39.9466 7.148V11H38.9386V10.076C38.5426 10.652 37.7626 11.084 36.7546 11.084C35.3986 11.084 34.4866 10.328 34.4866 9.176C34.4866 7.868 35.6026 7.244 37.4746 7.244C38.0626 7.244 38.5426 7.304 38.9386 7.424C38.9386 6.212 38.5066 5.564 37.2706 5.564C36.6466 5.564 36.0226 5.792 35.4106 6.26ZM36.9946 10.172C37.4626 10.172 37.8826 10.04 38.2306 9.788C38.5786 9.536 38.8066 9.248 38.9386 8.948V8.312C38.5906 8.192 38.1466 8.132 37.6066 8.132C36.2386 8.132 35.5546 8.468 35.5546 9.14C35.5546 9.776 36.1306 10.172 36.9946 10.172ZM41.8568 5.72H40.5608V4.76H41.8568V3.164H42.8648V4.76H45.0128V5.72H42.8648V8.468C42.8648 9.68 43.1768 10.124 43.9448 10.124C44.3168 10.124 44.7008 9.98 45.0728 9.68L45.5288 10.424C45.1328 10.868 44.5448 11.084 43.7648 11.084C42.5288 11.084 41.8568 10.268 41.8568 8.732V5.72ZM47.2798 11H46.2718V4.76H47.2798V11ZM46.1398 2.732C46.1398 2.396 46.4158 2.144 46.7878 2.144C47.1238 2.144 47.4118 2.396 47.4118 2.732C47.4118 3.08 47.1238 3.356 46.7878 3.356C46.4158 3.356 46.1398 3.08 46.1398 2.732ZM48.4023 7.868C48.4023 6.92 48.7143 6.14 49.3263 5.528C49.9383 4.916 50.7303 4.616 51.7023 4.616C52.6863 4.616 53.4903 4.916 54.1023 5.528C54.7143 6.14 55.0263 6.92 55.0263 7.868C55.0263 8.816 54.7143 9.584 54.1023 10.196C53.4783 10.808 52.6743 11.108 51.7023 11.108C50.7303 11.108 49.9383 10.808 49.3263 10.196C48.7143 9.584 48.4023 8.816 48.4023 7.868ZM49.4703 7.868C49.4703 8.528 49.6743 9.08 50.0943 9.512C50.5143 9.944 51.0423 10.16 51.7023 10.16C52.3623 10.16 52.9143 9.944 53.3343 9.524C53.7543 9.104 53.9583 8.552 53.9583 7.868C53.9583 7.184 53.7423 6.632 53.3223 6.2C52.8903 5.78 52.3503 5.564 51.7023 5.564C51.0543 5.564 50.5263 5.78 50.1063 6.2C49.6863 6.62 49.4703 7.184 49.4703 7.868ZM57.0328 11H56.0248V4.76H57.0328V5.576C57.4288 4.964 58.2448 4.628 59.1688 4.628C60.8608 4.628 61.7008 5.564 61.7008 7.448V11H60.6928V7.568C60.6928 6.188 60.1048 5.576 58.8688 5.576C58.1008 5.576 57.3688 6.08 57.0328 6.836V11Z" fill="#76848D"/>
<rect y="26" width="10" height="10" fill="#8FB7EF"/>
<path d="M19.98 31.712V35H18.888V26.6H22.104C24.276 26.6 25.356 27.44 25.356 29.12C25.356 30.308 24.54 31.244 23.304 31.496L25.992 35H24.66L22.164 31.712H19.98ZM22.068 27.62H19.98V30.692H22.14C23.424 30.692 24.24 30.08 24.24 29.12C24.24 28.124 23.52 27.62 22.068 27.62ZM27.2248 30.26L26.7088 29.504C27.2848 28.964 28.2808 28.616 29.2048 28.616C30.8728 28.616 31.7608 29.528 31.7608 31.148V35H30.7528V34.076C30.3568 34.652 29.5768 35.084 28.5688 35.084C27.2128 35.084 26.3008 34.328 26.3008 33.176C26.3008 31.868 27.4168 31.244 29.2888 31.244C29.8768 31.244 30.3568 31.304 30.7528 31.424C30.7528 30.212 30.3208 29.564 29.0848 29.564C28.4608 29.564 27.8368 29.792 27.2248 30.26ZM28.8088 34.172C29.2768 34.172 29.6968 34.04 30.0448 33.788C30.3928 33.536 30.6208 33.248 30.7528 32.948V32.312C30.4048 32.192 29.9608 32.132 29.4208 32.132C28.0528 32.132 27.3688 32.468 27.3688 33.14C27.3688 33.776 27.9448 34.172 28.8088 34.172ZM34.175 35H33.167V28.76H34.175V35ZM33.035 26.732C33.035 26.396 33.311 26.144 33.683 26.144C34.019 26.144 34.307 26.396 34.307 26.732C34.307 27.08 34.019 27.356 33.683 27.356C33.311 27.356 33.035 27.08 33.035 26.732ZM36.7494 35H35.7414V26.24H36.7494V35ZM45.6256 28.76H46.6576L44.6296 35H43.8136L42.0616 30.32L40.2856 35H39.4936L37.3816 28.76H38.4616L39.9616 33.32L41.6656 28.76H42.4576L44.1976 33.356L45.6256 28.76ZM47.6745 30.26L47.1585 29.504C47.7345 28.964 48.7305 28.616 49.6545 28.616C51.3225 28.616 52.2105 29.528 52.2105 31.148V35H51.2025V34.076C50.8065 34.652 50.0265 35.084 49.0185 35.084C47.6625 35.084 46.7505 34.328 46.7505 33.176C46.7505 31.868 47.8665 31.244 49.7385 31.244C50.3265 31.244 50.8065 31.304 51.2025 31.424C51.2025 30.212 50.7705 29.564 49.5345 29.564C48.9105 29.564 48.2865 29.792 47.6745 30.26ZM49.2585 34.172C49.7265 34.172 50.1465 34.04 50.4945 33.788C50.8425 33.536 51.0705 33.248 51.2025 32.948V32.312C50.8545 32.192 50.4105 32.132 49.8705 32.132C48.5025 32.132 47.8185 32.468 47.8185 33.14C47.8185 33.776 48.3945 34.172 49.2585 34.172ZM53.6287 37.376L54.0247 36.5C54.1207 36.536 54.2047 36.56 54.2887 36.56C54.7567 36.56 55.0807 36.236 55.5007 35.24L55.6927 34.772L52.6687 28.76H53.8567L56.1967 33.5L57.9607 28.76H59.0647L56.6887 34.904C56.2807 35.912 55.8967 36.596 55.5487 36.968C55.1887 37.34 54.7807 37.52 54.3247 37.52C54.0607 37.52 53.8327 37.472 53.6287 37.376ZM63.7361 29.72H62.4401V28.76H63.7361V27.164H64.7441V28.76H66.8921V29.72H64.7441V32.468C64.7441 33.68 65.0561 34.124 65.8241 34.124C66.1961 34.124 66.5801 33.98 66.9521 33.68L67.4081 34.424C67.0121 34.868 66.4241 35.084 65.6441 35.084C64.4081 35.084 63.7361 34.268 63.7361 32.732V29.72ZM69.0272 35H68.0192V28.76H69.0272V29.24C69.2312 28.82 69.7712 28.628 70.3112 28.628C70.8632 28.628 71.2832 28.82 71.5832 29.192L70.9472 29.888C70.7912 29.684 70.5512 29.576 70.2032 29.576C69.6632 29.576 69.1712 30.02 69.0272 30.656V35ZM72.4807 30.26L71.9647 29.504C72.5407 28.964 73.5367 28.616 74.4607 28.616C76.1287 28.616 77.0167 29.528 77.0167 31.148V35H76.0087V34.076C75.6127 34.652 74.8327 35.084 73.8247 35.084C72.4687 35.084 71.5567 34.328 71.5567 33.176C71.5567 31.868 72.6727 31.244 74.5447 31.244C75.1327 31.244 75.6127 31.304 76.0087 31.424C76.0087 30.212 75.5767 29.564 74.3407 29.564C73.7167 29.564 73.0927 29.792 72.4807 30.26ZM74.0647 34.172C74.5327 34.172 74.9527 34.04 75.3007 33.788C75.6487 33.536 75.8767 33.248 76.0087 32.948V32.312C75.6607 32.192 75.2167 32.132 74.6767 32.132C73.3087 32.132 72.6247 32.468 72.6247 33.14C72.6247 33.776 73.2007 34.172 74.0647 34.172ZM79.2989 35H78.2909V28.76H79.2989V29.576C79.6949 28.964 80.5109 28.628 81.4349 28.628C83.1269 28.628 83.9669 29.564 83.9669 31.448V35H82.9589V31.568C82.9589 30.188 82.3709 29.576 81.1349 29.576C80.3669 29.576 79.6349 30.08 79.2989 30.836V35ZM89.0653 33.296C89.0653 32.456 87.6373 32.324 86.4973 32C85.7173 31.772 85.0933 31.256 85.0933 30.404C85.0933 29.3 86.1373 28.616 87.6853 28.616C88.7293 28.616 89.5693 29.06 90.0133 29.696L89.3053 30.356C88.9093 29.828 88.3093 29.564 87.5053 29.564C86.7853 29.564 86.1613 29.84 86.1613 30.356C86.1613 31.088 87.5893 31.22 88.7293 31.568C89.4973 31.808 90.1213 32.384 90.1213 33.284C90.1213 34.496 89.1493 35.108 87.6253 35.108C86.3413 35.108 85.2493 34.532 84.8053 33.632L85.6093 33.068C85.9813 33.728 86.8333 34.16 87.7933 34.16C88.6453 34.16 89.0653 33.872 89.0653 33.296ZM92.0902 37.4H91.0822V28.76H92.0902V29.54C92.5102 28.928 93.1822 28.616 94.1062 28.616C95.0182 28.616 95.7502 28.904 96.2902 29.492C96.8302 30.08 97.0942 30.836 97.0942 31.772C97.0942 32.732 96.8062 33.524 96.2302 34.16C95.6422 34.796 94.8982 35.108 93.9862 35.108C93.1462 35.108 92.5102 34.892 92.0902 34.472V37.4ZM93.9982 29.564C93.0862 29.564 92.3782 30.152 92.0902 30.86V33.188C92.4502 33.836 93.0502 34.16 93.9022 34.16C94.5142 34.16 95.0302 33.944 95.4262 33.512C95.8222 33.08 96.0262 32.528 96.0262 31.844C96.0262 30.452 95.2462 29.564 93.9982 29.564ZM97.7392 31.868C97.7392 30.92 98.0512 30.14 98.6632 29.528C99.2752 28.916 100.067 28.616 101.039 28.616C102.023 28.616 102.827 28.916 103.439 29.528C104.051 30.14 104.363 30.92 104.363 31.868C104.363 32.816 104.051 33.584 103.439 34.196C102.815 34.808 102.011 35.108 101.039 35.108C100.067 35.108 99.2752 34.808 98.6632 34.196C98.0512 33.584 97.7392 32.816 97.7392 31.868ZM98.8072 31.868C98.8072 32.528 99.0112 33.08 99.4312 33.512C99.8512 33.944 100.379 34.16 101.039 34.16C101.699 34.16 102.251 33.944 102.671 33.524C103.091 33.104 103.295 32.552 103.295 31.868C103.295 31.184 103.079 30.632 102.659 30.2C102.227 29.78 101.687 29.564 101.039 29.564C100.391 29.564 99.8632 29.78 99.4432 30.2C99.0232 30.62 98.8072 31.184 98.8072 31.868ZM106.37 35H105.362V28.76H106.37V29.24C106.574 28.82 107.114 28.628 107.654 28.628C108.206 28.628 108.626 28.82 108.926 29.192L108.29 29.888C108.134 29.684 107.894 29.576 107.546 29.576C107.006 29.576 106.514 30.02 106.37 30.656V35ZM110.354 29.72H109.058V28.76H110.354V27.164H111.362V28.76H113.51V29.72H111.362V32.468C111.362 33.68 111.674 34.124 112.442 34.124C112.814 34.124 113.198 33.98 113.57 33.68L114.026 34.424C113.63 34.868 113.042 35.084 112.262 35.084C111.026 35.084 110.354 34.268 110.354 32.732V29.72Z" fill="#76848D"/>
<rect y="50" width="10" height="10" fill="#CFD4FB"/>
<path d="M19.128 59H18.012L21.696 50.576H22.56L26.244 59H25.104L24.168 56.876H20.052L19.128 59ZM23.76 55.916L22.104 52.1L20.46 55.916H23.76ZM31.3857 52.724H32.3937V59H31.3857V58.112C30.9057 58.772 30.2337 59.108 29.3577 59.108C27.6297 59.108 26.7897 58.244 26.7897 56.336V52.724H27.7977V56.192C27.7977 57.5 28.3497 58.16 29.4417 58.16C30.3057 58.16 31.0017 57.668 31.3857 56.804V52.724ZM34.3624 53.72H33.0664V52.76H34.3624V51.164H35.3704V52.76H37.5184V53.72H35.3704V56.468C35.3704 57.68 35.6824 58.124 36.4504 58.124C36.8224 58.124 37.2064 57.98 37.5784 57.68L38.0344 58.424C37.6384 58.868 37.0504 59.084 36.2704 59.084C35.0344 59.084 34.3624 58.268 34.3624 56.732V53.72ZM38.1217 55.868C38.1217 54.92 38.4337 54.14 39.0457 53.528C39.6577 52.916 40.4497 52.616 41.4217 52.616C42.4057 52.616 43.2097 52.916 43.8217 53.528C44.4337 54.14 44.7457 54.92 44.7457 55.868C44.7457 56.816 44.4337 57.584 43.8217 58.196C43.1977 58.808 42.3937 59.108 41.4217 59.108C40.4497 59.108 39.6577 58.808 39.0457 58.196C38.4337 57.584 38.1217 56.816 38.1217 55.868ZM39.1897 55.868C39.1897 56.528 39.3937 57.08 39.8137 57.512C40.2337 57.944 40.7617 58.16 41.4217 58.16C42.0817 58.16 42.6337 57.944 43.0537 57.524C43.4737 57.104 43.6777 56.552 43.6777 55.868C43.6777 55.184 43.4617 54.632 43.0417 54.2C42.6097 53.78 42.0697 53.564 41.4217 53.564C40.7737 53.564 40.2457 53.78 39.8257 54.2C39.4057 54.62 39.1897 55.184 39.1897 55.868Z" fill="#76848D"/>
<rect y="74" width="10" height="10" fill="url(#paint12_linear_1004_11441)"/>
<path d="M23.76 80.768C23.76 78.692 18.576 79.892 18.576 76.796C18.576 76.148 18.864 75.596 19.44 75.152C20.004 74.708 20.76 74.492 21.684 74.492C23.088 74.492 24.108 74.9 24.744 75.716L24.036 76.424C23.436 75.824 22.644 75.524 21.66 75.524C21.168 75.524 20.724 75.62 20.316 75.824C19.908 76.028 19.704 76.352 19.704 76.772C19.704 77.816 21 78.02 22.296 78.368C23.592 78.716 24.888 79.184 24.888 80.684C24.888 81.392 24.6 81.98 24.024 82.424C23.448 82.88 22.716 83.108 21.84 83.108C21.12 83.108 20.448 82.952 19.812 82.628C19.176 82.316 18.696 81.932 18.396 81.488L19.104 80.72C19.692 81.488 20.736 82.076 21.948 82.076C22.956 82.076 23.76 81.572 23.76 80.768ZM30.7954 81.212L31.4434 81.812C30.8674 82.676 30.0394 83.108 28.9474 83.108C27.9514 83.108 27.1474 82.808 26.5354 82.22C25.9234 81.632 25.6234 80.852 25.6234 79.868C25.6234 78.92 25.8994 78.14 26.4634 77.528C27.0154 76.916 27.7954 76.616 28.8034 76.616C29.6314 76.616 30.3274 76.88 30.8674 77.396C31.4074 77.912 31.6834 78.596 31.6834 79.448C31.6834 79.724 31.6594 79.976 31.6234 80.204H26.7034C26.7634 81.44 27.6754 82.16 28.9834 82.16C29.7154 82.16 30.4114 81.776 30.7954 81.212ZM28.7314 77.54C27.5914 77.54 26.8474 78.236 26.6914 79.292H30.6154C30.5554 78.188 29.8474 77.54 28.7314 77.54ZM33.1634 78.26L32.6474 77.504C33.2234 76.964 34.2194 76.616 35.1434 76.616C36.8114 76.616 37.6994 77.528 37.6994 79.148V83H36.6914V82.076C36.2954 82.652 35.5154 83.084 34.5074 83.084C33.1514 83.084 32.2394 82.328 32.2394 81.176C32.2394 79.868 33.3554 79.244 35.2274 79.244C35.8154 79.244 36.2954 79.304 36.6914 79.424C36.6914 78.212 36.2594 77.564 35.0234 77.564C34.3994 77.564 33.7754 77.792 33.1634 78.26ZM34.7474 82.172C35.2154 82.172 35.6354 82.04 35.9834 81.788C36.3314 81.536 36.5594 81.248 36.6914 80.948V80.312C36.3434 80.192 35.8994 80.132 35.3594 80.132C33.9914 80.132 33.3074 80.468 33.3074 81.14C33.3074 81.776 33.8834 82.172 34.7474 82.172Z" fill="#76848D"/>
<path d="M102.627 123.804L102.179 122.754L105.539 121.144H106.337V131H105.133V122.642L102.627 123.804ZM108.221 130.202C108.221 129.81 108.585 129.418 109.089 129.418C109.551 129.418 109.929 129.81 109.929 130.202C109.929 130.65 109.579 131.028 109.089 131.028C108.585 131.028 108.221 130.65 108.221 130.202ZM111.086 126.1C111.086 124.588 111.436 123.37 112.15 122.46C112.85 121.55 113.886 121.088 115.244 121.088C118.03 121.088 119.416 122.922 119.416 126.1C119.416 127.626 119.066 128.83 118.38 129.74C117.68 130.65 116.644 131.112 115.272 131.112C113.956 131.112 112.934 130.65 112.192 129.726C111.45 128.802 111.086 127.598 111.086 126.1ZM112.374 126.1C112.374 128.494 113.466 129.922 115.272 129.922C117.176 129.922 118.128 128.648 118.128 126.1C118.128 123.552 117.162 122.278 115.244 122.278C113.298 122.278 112.374 123.678 112.374 126.1Z" fill="#1A3341"/>
<path d="M143.145 123.804L142.697 122.754L146.057 121.144H146.855V131H145.651V122.642L143.145 123.804ZM148.738 130.202C148.738 129.81 149.102 129.418 149.606 129.418C150.068 129.418 150.446 129.81 150.446 130.202C150.446 130.65 150.096 131.028 149.606 131.028C149.102 131.028 148.738 130.65 148.738 130.202ZM157.218 122.39H151.282V121.2H158.716V121.998L153.844 131H152.514L157.218 122.39Z" fill="#1A3341"/>
<path d="M195.805 123.804L195.357 122.754L198.717 121.144H199.515V131H198.311V122.642L195.805 123.804ZM201.399 130.202C201.399 129.81 201.763 129.418 202.267 129.418C202.729 129.418 203.107 129.81 203.107 130.202C203.107 130.65 202.757 131.028 202.267 131.028C201.763 131.028 201.399 130.65 201.399 130.202ZM208.128 125.414H208.562C209.192 125.414 209.71 125.26 210.144 124.966C210.564 124.672 210.774 124.28 210.774 123.818C210.774 122.768 209.948 122.236 208.31 122.236C206.742 122.236 205.888 122.81 205.888 123.818C205.888 124.728 206.826 125.414 208.128 125.414ZM208.534 126.52H208.184C207.428 126.52 206.798 126.688 206.308 127.01C205.818 127.332 205.566 127.738 205.566 128.228C205.566 129.292 206.546 129.964 208.324 129.964C210.13 129.964 211.096 129.32 211.096 128.242C211.096 127.164 210.06 126.52 208.534 126.52ZM211.292 130.37C210.578 130.874 209.584 131.126 208.338 131.126C207.092 131.126 206.098 130.874 205.37 130.384C204.642 129.894 204.278 129.222 204.278 128.354C204.278 127.22 205.02 126.324 206.21 125.932C205.132 125.582 204.6 124.728 204.6 123.734C204.6 122.11 205.972 121.074 208.324 121.074C210.69 121.074 212.062 122.11 212.062 123.734C212.062 124.672 211.544 125.386 210.508 125.862C211.754 126.24 212.37 127.052 212.37 128.298C212.37 129.18 212.006 129.88 211.292 130.37Z" fill="#1A3341"/>
<path d="M1098.12 125.918C1098.12 127.584 1097.73 128.872 1096.93 129.768C1096.13 130.678 1095.07 131.126 1093.74 131.126C1092.11 131.126 1090.84 130.44 1090.21 129.39L1091.22 128.69C1091.78 129.474 1092.8 129.922 1093.91 129.922C1094.82 129.922 1095.54 129.558 1096.12 128.83C1096.69 128.116 1096.93 127.22 1096.86 126.156C1096.4 127.22 1095.24 128.004 1093.68 128.004C1092.59 128.004 1091.69 127.696 1090.99 127.066C1090.28 126.45 1089.93 125.638 1089.93 124.644C1089.93 123.552 1090.31 122.684 1091.06 122.04C1091.82 121.396 1092.83 121.074 1094.07 121.074C1096.59 121.074 1098.12 122.838 1098.12 125.918ZM1096.65 124.602C1096.44 123.3 1095.54 122.278 1093.93 122.278C1092.25 122.278 1091.22 123.146 1091.22 124.602C1091.22 125.988 1092.27 126.8 1093.91 126.8C1094.65 126.8 1095.28 126.576 1095.77 126.128C1096.26 125.68 1096.55 125.176 1096.65 124.602ZM1100.6 126.492L1099.59 126.226L1100.16 121.2H1106.32V122.39H1101.24L1100.88 125.022C1101.37 124.658 1102.11 124.476 1103.1 124.476C1104.25 124.476 1105.15 124.784 1105.81 125.386C1106.45 126.002 1106.77 126.786 1106.77 127.752C1106.77 128.718 1106.41 129.53 1105.69 130.16C1104.97 130.804 1104.06 131.126 1102.98 131.126C1101.14 131.126 1099.62 130.258 1098.99 128.732L1100.11 128.256C1100.51 129.194 1101.56 129.936 1102.98 129.936C1104.59 129.936 1105.48 129.012 1105.48 127.794C1105.48 126.492 1104.43 125.652 1102.77 125.652C1101.87 125.652 1101.14 125.932 1100.6 126.492ZM1107.93 130.202C1107.93 129.81 1108.3 129.418 1108.8 129.418C1109.26 129.418 1109.64 129.81 1109.64 130.202C1109.64 130.65 1109.29 131.028 1108.8 131.028C1108.3 131.028 1107.93 130.65 1107.93 130.202ZM1112.23 126.492L1111.22 126.226L1111.79 121.2H1117.95V122.39H1112.87L1112.51 125.022C1113 124.658 1113.74 124.476 1114.73 124.476C1115.88 124.476 1116.78 124.784 1117.43 125.386C1118.08 126.002 1118.4 126.786 1118.4 127.752C1118.4 128.718 1118.04 129.53 1117.32 130.16C1116.59 130.804 1115.68 131.126 1114.61 131.126C1112.77 131.126 1111.25 130.258 1110.62 128.732L1111.74 128.256C1112.14 129.194 1113.19 129.936 1114.61 129.936C1116.22 129.936 1117.11 129.012 1117.11 127.794C1117.11 126.492 1116.06 125.652 1114.4 125.652C1113.5 125.652 1112.77 125.932 1112.23 126.492Z" fill="#1A3341"/>
<path d="M120 254L120 302L69 302C67.8954 302 67 301.105 67 300L67 256C67 254.895 67.8954 254 69 254L120 254Z" fill="url(#paint13_linear_1004_11441)"/>
<path opacity="0.2" d="M120 266L120 290L67 290L67 266L120 266Z" fill="url(#paint14_linear_1004_11441)"/>
<path opacity="0.04" d="M120 290L120 300C120 301.105 119.105 302 118 302L67 302L67 290L120 290Z" fill="#0D262C"/>
<path opacity="0.5" d="M120 254L120 266L67 266L67 256C67 254.895 67.8954 254 69 254L120 254Z" fill="url(#paint15_linear_1004_11441)"/>
<rect x="161" y="254" width="48" height="41" transform="rotate(90 161 254)" fill="url(#paint16_linear_1004_11441)"/>
<path opacity="0.2" d="M161 266L161 290L120 290L120 266L161 266Z" fill="url(#paint17_linear_1004_11441)"/>
<path opacity="0.04" d="M161 290L161 300C161 301.105 160.105 302 159 302L120 302L120 290L161 290Z" fill="#0D262C"/>
<rect opacity="0.5" x="161" y="254" width="12" height="41" transform="rotate(90 161 254)" fill="url(#paint18_linear_1004_11441)"/>
<path d="M1117 254C1118.1 254 1119 254.895 1119 256L1119 300C1119 301.105 1118.1 302 1117 302L213 302L213 254L1117 254Z" fill="url(#paint19_linear_1004_11441)"/>
<path opacity="0.2" d="M1119 266L1119 290L213 290L213 266L1119 266Z" fill="url(#paint20_linear_1004_11441)"/>
<path opacity="0.04" d="M1119 290L1119 300C1119 301.105 1118.1 302 1117 302L213 302L213 290L1119 290Z" fill="#0D262C"/>
<path opacity="0.5" d="M1117 254C1118.1 254 1119 254.895 1119 256L1119 266L213 266L213 254L1117 254Z" fill="url(#paint21_linear_1004_11441)"/>
<rect opacity="0.42" x="213" y="254" width="48" height="52" transform="rotate(90 213 254)" fill="url(#paint22_linear_1004_11441)"/>
<path opacity="0.2" d="M213 266L213 290L161 290L161 266L213 266Z" fill="url(#paint23_linear_1004_11441)"/>
<path opacity="0.04" d="M213 290L213 300C213 301.105 212.105 302 211 302L161 302L161 290L213 290Z" fill="#0D262C"/>
<rect opacity="0.5" x="213" y="254" width="12" height="52" transform="rotate(90 213 254)" fill="url(#paint24_linear_1004_11441)"/>
<path d="M11.6368 275.372L10.7608 275.06C11.0608 273.572 12.1888 272.504 13.9768 272.504C15.7048 272.504 16.7608 273.5 16.7608 275.024C16.7608 275.828 16.4128 276.632 15.9808 277.208C15.7648 277.508 15.4888 277.796 15.1648 278.096C14.5048 278.684 14.0368 278.996 13.3528 279.428L12.4288 280.004H17.0728V281H10.5328V280.184L12.3568 278.972C12.6808 278.768 12.9088 278.612 13.0408 278.516C13.1728 278.432 13.3888 278.276 13.6768 278.072C13.9648 277.868 14.1808 277.688 14.3248 277.556C14.4568 277.424 14.6368 277.256 14.8408 277.04C15.3928 276.44 15.5968 275.888 15.6568 275.132C15.6568 274.04 14.9488 273.548 13.9048 273.548C13.2568 273.548 12.7408 273.728 12.3688 274.088C11.9968 274.448 11.7448 274.88 11.6368 275.372ZM17.9044 276.8C17.9044 275.504 18.2044 274.46 18.8164 273.68C19.4164 272.9 20.3044 272.504 21.4684 272.504C23.8564 272.504 25.0444 274.076 25.0444 276.8C25.0444 278.108 24.7444 279.14 24.1564 279.92C23.5564 280.7 22.6684 281.096 21.4924 281.096C20.3644 281.096 19.4884 280.7 18.8524 279.908C18.2164 279.116 17.9044 278.084 17.9044 276.8ZM19.0084 276.8C19.0084 278.852 19.9444 280.076 21.4924 280.076C23.1244 280.076 23.9404 278.984 23.9404 276.8C23.9404 274.616 23.1124 273.524 21.4684 273.524C19.8004 273.524 19.0084 274.724 19.0084 276.8ZM26.9007 275.372L26.0247 275.06C26.3247 273.572 27.4527 272.504 29.2407 272.504C30.9687 272.504 32.0247 273.5 32.0247 275.024C32.0247 275.828 31.6767 276.632 31.2447 277.208C31.0287 277.508 30.7527 277.796 30.4287 278.096C29.7687 278.684 29.3007 278.996 28.6167 279.428L27.6927 280.004H32.3367V281H25.7967V280.184L27.6207 278.972C27.9447 278.768 28.1727 278.612 28.3047 278.516C28.4367 278.432 28.6527 278.276 28.9407 278.072C29.2287 277.868 29.4447 277.688 29.5887 277.556C29.7207 277.424 29.9007 277.256 30.1047 277.04C30.6567 276.44 30.8607 275.888 30.9207 275.132C30.9207 274.04 30.2127 273.548 29.1687 273.548C28.5207 273.548 28.0047 273.728 27.6327 274.088C27.2607 274.448 27.0087 274.88 26.9007 275.372ZM34.1283 275.372L33.2523 275.06C33.5523 273.572 34.6803 272.504 36.4683 272.504C38.1963 272.504 39.2523 273.5 39.2523 275.024C39.2523 275.828 38.9043 276.632 38.4723 277.208C38.2563 277.508 37.9803 277.796 37.6563 278.096C36.9963 278.684 36.5283 278.996 35.8443 279.428L34.9203 280.004H39.5643V281H33.0243V280.184L34.8483 278.972C35.1723 278.768 35.4003 278.612 35.5323 278.516C35.6643 278.432 35.8803 278.276 36.1683 278.072C36.4563 277.868 36.6723 277.688 36.8163 277.556C36.9483 277.424 37.1283 277.256 37.3323 277.04C37.8843 276.44 38.0883 275.888 38.1483 275.132C38.1483 274.04 37.4403 273.548 36.3963 273.548C35.7483 273.548 35.2323 273.728 34.8603 274.088C34.4883 274.448 34.2363 274.88 34.1283 275.372Z" fill="#76848D"/>
<path d="M103.338 231.804L102.89 230.754L106.25 229.144H107.048V239H105.844V230.642L103.338 231.804ZM108.932 238.202C108.932 237.81 109.296 237.418 109.8 237.418C110.262 237.418 110.64 237.81 110.64 238.202C110.64 238.65 110.29 239.028 109.8 239.028C109.296 239.028 108.932 238.65 108.932 238.202ZM113.225 234.492L112.217 234.226L112.791 229.2H118.951V230.39H113.869L113.505 233.022C113.995 232.658 114.737 232.476 115.731 232.476C116.879 232.476 117.775 232.784 118.433 233.386C119.077 234.002 119.399 234.786 119.399 235.752C119.399 236.718 119.035 237.53 118.321 238.16C117.593 238.804 116.683 239.126 115.605 239.126C113.771 239.126 112.245 238.258 111.615 236.732L112.735 236.256C113.141 237.194 114.191 237.936 115.605 237.936C117.215 237.936 118.111 237.012 118.111 235.794C118.111 234.492 117.061 233.652 115.395 233.652C114.499 233.652 113.771 233.932 113.225 234.492Z" fill="#1A3341"/>
<path d="M144.502 231.804L144.054 230.754L147.414 229.144H148.212V239H147.008V230.642L144.502 231.804ZM150.096 238.202C150.096 237.81 150.46 237.418 150.964 237.418C151.426 237.418 151.804 237.81 151.804 238.202C151.804 238.65 151.454 239.028 150.964 239.028C150.46 239.028 150.096 238.65 150.096 238.202ZM153.927 232.056L152.877 231.58C153.395 230.068 154.753 229.074 156.783 229.074C157.749 229.074 158.547 229.298 159.163 229.746C159.779 230.194 160.087 230.796 160.087 231.538C160.087 232.672 159.485 233.512 158.365 233.834C159.443 233.904 160.311 234.716 160.311 236.172C160.311 237.096 159.975 237.824 159.303 238.342C158.631 238.86 157.777 239.126 156.727 239.126C154.585 239.126 153.101 238.104 152.611 236.494L153.745 236.004C154.347 237.278 155.369 237.922 156.811 237.922C158.169 237.922 159.023 237.292 159.023 236.186C159.023 235.108 158.183 234.562 156.503 234.562H155.411V233.4H156.279C157.805 233.4 158.799 232.714 158.799 231.776C158.799 230.81 158.001 230.264 156.727 230.264C155.229 230.264 154.319 231.034 153.927 232.056Z" fill="#1A3341"/>
<path d="M196.338 231.804L195.89 230.754L199.25 229.144H200.048V239H198.844V230.642L196.338 231.804ZM201.932 238.202C201.932 237.81 202.296 237.418 202.8 237.418C203.262 237.418 203.64 237.81 203.64 238.202C203.64 238.65 203.29 239.028 202.8 239.028C202.296 239.028 201.932 238.65 201.932 238.202ZM206.225 234.492L205.217 234.226L205.791 229.2H211.951V230.39H206.869L206.505 233.022C206.995 232.658 207.737 232.476 208.731 232.476C209.879 232.476 210.775 232.784 211.433 233.386C212.077 234.002 212.399 234.786 212.399 235.752C212.399 236.718 212.035 237.53 211.321 238.16C210.593 238.804 209.683 239.126 208.605 239.126C206.771 239.126 205.245 238.258 204.615 236.732L205.735 236.256C206.141 237.194 207.191 237.936 208.605 237.936C210.215 237.936 211.111 237.012 211.111 235.794C211.111 234.492 210.061 233.652 208.395 233.652C207.499 233.652 206.771 233.932 206.225 234.492Z" fill="#1A3341"/>
<path d="M1097.61 233.918C1097.61 235.584 1097.22 236.872 1096.42 237.768C1095.63 238.678 1094.56 239.126 1093.23 239.126C1091.61 239.126 1090.33 238.44 1089.7 237.39L1090.71 236.69C1091.27 237.474 1092.29 237.922 1093.4 237.922C1094.31 237.922 1095.04 237.558 1095.61 236.83C1096.19 236.116 1096.42 235.22 1096.35 234.156C1095.89 235.22 1094.73 236.004 1093.18 236.004C1092.08 236.004 1091.19 235.696 1090.49 235.066C1089.77 234.45 1089.42 233.638 1089.42 232.644C1089.42 231.552 1089.8 230.684 1090.56 230.04C1091.31 229.396 1092.32 229.074 1093.57 229.074C1096.09 229.074 1097.61 230.838 1097.61 233.918ZM1096.14 232.602C1095.93 231.3 1095.04 230.278 1093.43 230.278C1091.75 230.278 1090.71 231.146 1090.71 232.602C1090.71 233.988 1091.76 234.8 1093.4 234.8C1094.14 234.8 1094.77 234.576 1095.26 234.128C1095.75 233.68 1096.05 233.176 1096.14 232.602ZM1100.09 234.492L1099.08 234.226L1099.66 229.2H1105.82V230.39H1100.74L1100.37 233.022C1100.86 232.658 1101.6 232.476 1102.6 232.476C1103.75 232.476 1104.64 232.784 1105.3 233.386C1105.94 234.002 1106.27 234.786 1106.27 235.752C1106.27 236.718 1105.9 237.53 1105.19 238.16C1104.46 238.804 1103.55 239.126 1102.47 239.126C1100.64 239.126 1099.11 238.258 1098.48 236.732L1099.6 236.256C1100.01 237.194 1101.06 237.936 1102.47 237.936C1104.08 237.936 1104.98 237.012 1104.98 235.794C1104.98 234.492 1103.93 233.652 1102.26 233.652C1101.37 233.652 1100.64 233.932 1100.09 234.492ZM1107.43 238.202C1107.43 237.81 1107.79 237.418 1108.29 237.418C1108.76 237.418 1109.13 237.81 1109.13 238.202C1109.13 238.65 1108.78 239.028 1108.29 239.028C1107.79 239.028 1107.43 238.65 1107.43 238.202ZM1110.29 234.366C1110.29 232.672 1110.71 231.37 1111.54 230.446C1112.36 229.536 1113.4 229.074 1114.65 229.074C1116.28 229.074 1117.57 229.816 1118.12 230.992L1117.17 231.636C1116.59 230.726 1115.74 230.278 1114.59 230.278C1113.72 230.278 1112.99 230.614 1112.41 231.286C1111.82 231.972 1111.52 232.896 1111.54 234.086C1112.08 233.064 1113.36 232.448 1114.76 232.448C1115.89 232.448 1116.8 232.742 1117.46 233.344C1118.12 233.946 1118.45 234.744 1118.45 235.724C1118.45 236.718 1118.09 237.544 1117.35 238.174C1116.61 238.804 1115.68 239.126 1114.58 239.126C1111.93 239.126 1110.29 237.404 1110.29 234.366ZM1111.69 235.556C1111.96 236.942 1113.01 237.922 1114.56 237.922C1115.32 237.922 1115.95 237.726 1116.44 237.32C1116.93 236.928 1117.17 236.41 1117.17 235.78C1117.17 234.394 1116.19 233.652 1114.69 233.652C1113.86 233.652 1113.18 233.848 1112.64 234.24C1112.1 234.632 1111.79 235.066 1111.69 235.556Z" fill="#1A3341"/>
<defs>
<linearGradient id="paint0_linear_1004_11441" x1="100" y1="170" x2="67" y2="170" gradientUnits="userSpaceOnUse">
<stop stop-color="#6D73F9"/>
<stop offset="1" stop-color="#9BB8F1"/>
</linearGradient>
<linearGradient id="paint1_linear_1004_11441" x1="100" y1="170" x2="67" y2="170" gradientUnits="userSpaceOnUse">
<stop stop-color="white" stop-opacity="0"/>
<stop offset="0.739583" stop-color="white"/>
</linearGradient>
<linearGradient id="paint2_linear_1004_11441" x1="164.35" y1="152" x2="67" y2="152" gradientUnits="userSpaceOnUse">
<stop stop-color="white" stop-opacity="0.05"/>
<stop offset="0.75" stop-color="white" stop-opacity="0.8"/>
</linearGradient>
<linearGradient id="paint3_linear_1004_11441" x1="185" y1="146" x2="185" y2="207" gradientUnits="userSpaceOnUse">
<stop stop-color="#6AA2E2"/>
<stop offset="1" stop-color="#9DBCFA"/>
</linearGradient>
<linearGradient id="paint4_linear_1004_11441" x1="161" y1="170" x2="100" y2="170" gradientUnits="userSpaceOnUse">
<stop stop-color="white" stop-opacity="0"/>
<stop offset="0.739583" stop-color="white"/>
</linearGradient>
<linearGradient id="paint5_linear_1004_11441" x1="167" y1="27.05" x2="167" y2="207" gradientUnits="userSpaceOnUse">
<stop stop-color="white" stop-opacity="0.05"/>
<stop offset="0.75" stop-color="white" stop-opacity="0.8"/>
</linearGradient>
<linearGradient id="paint6_linear_1004_11441" x1="1119" y1="170" x2="229" y2="170" gradientUnits="userSpaceOnUse">
<stop stop-color="#CDE3E9"/>
<stop offset="1" stop-color="#D3E8ED"/>
</linearGradient>
<linearGradient id="paint7_linear_1004_11441" x1="1119" y1="170" x2="229" y2="170" gradientUnits="userSpaceOnUse">
<stop stop-color="white" stop-opacity="0"/>
<stop offset="0.739583" stop-color="white"/>
</linearGradient>
<linearGradient id="paint8_linear_1004_11441" x1="2854.5" y1="152" x2="229" y2="152" gradientUnits="userSpaceOnUse">
<stop stop-color="white" stop-opacity="0.05"/>
<stop offset="0.75" stop-color="white" stop-opacity="0.8"/>
</linearGradient>
<linearGradient id="paint9_linear_1004_11441" x1="253" y1="146" x2="253" y2="214" gradientUnits="userSpaceOnUse">
<stop stop-color="#6D73F9"/>
<stop offset="1" stop-color="#9BB8F1"/>
</linearGradient>
<linearGradient id="paint10_linear_1004_11441" x1="229" y1="170" x2="161" y2="170" gradientUnits="userSpaceOnUse">
<stop stop-color="white" stop-opacity="0"/>
<stop offset="0.739583" stop-color="white"/>
</linearGradient>
<linearGradient id="paint11_linear_1004_11441" x1="235" y1="13.4" x2="235" y2="214" gradientUnits="userSpaceOnUse">
<stop stop-color="white" stop-opacity="0.05"/>
<stop offset="0.75" stop-color="white" stop-opacity="0.8"/>
</linearGradient>
<linearGradient id="paint12_linear_1004_11441" x1="5" y1="74" x2="5" y2="84" gradientUnits="userSpaceOnUse">
<stop stop-color="#CDE3E9"/>
<stop offset="1" stop-color="#D3E8ED"/>
</linearGradient>
<linearGradient id="paint13_linear_1004_11441" x1="120" y1="278" x2="67" y2="278" gradientUnits="userSpaceOnUse">
<stop stop-color="#6D73F9"/>
<stop offset="1" stop-color="#9BB8F1"/>
</linearGradient>
<linearGradient id="paint14_linear_1004_11441" x1="120" y1="278" x2="67" y2="278" gradientUnits="userSpaceOnUse">
<stop stop-color="white" stop-opacity="0"/>
<stop offset="0.739583" stop-color="white"/>
</linearGradient>
<linearGradient id="paint15_linear_1004_11441" x1="223.35" y1="260" x2="67" y2="260" gradientUnits="userSpaceOnUse">
<stop stop-color="white" stop-opacity="0.05"/>
<stop offset="0.75" stop-color="white" stop-opacity="0.8"/>
</linearGradient>
<linearGradient id="paint16_linear_1004_11441" x1="185" y1="254" x2="185" y2="295" gradientUnits="userSpaceOnUse">
<stop stop-color="#6AA2E2"/>
<stop offset="1" stop-color="#9DBCFA"/>
</linearGradient>
<linearGradient id="paint17_linear_1004_11441" x1="161" y1="278" x2="120" y2="278" gradientUnits="userSpaceOnUse">
<stop stop-color="white" stop-opacity="0"/>
<stop offset="0.739583" stop-color="white"/>
</linearGradient>
<linearGradient id="paint18_linear_1004_11441" x1="167" y1="174.05" x2="167" y2="295" gradientUnits="userSpaceOnUse">
<stop stop-color="white" stop-opacity="0.05"/>
<stop offset="0.75" stop-color="white" stop-opacity="0.8"/>
</linearGradient>
<linearGradient id="paint19_linear_1004_11441" x1="1119" y1="278" x2="213" y2="278" gradientUnits="userSpaceOnUse">
<stop stop-color="#CDE3E9"/>
<stop offset="1" stop-color="#D3E8ED"/>
</linearGradient>
<linearGradient id="paint20_linear_1004_11441" x1="1119" y1="278" x2="213" y2="278" gradientUnits="userSpaceOnUse">
<stop stop-color="white" stop-opacity="0"/>
<stop offset="0.739583" stop-color="white"/>
</linearGradient>
<linearGradient id="paint21_linear_1004_11441" x1="2885.7" y1="260" x2="213" y2="260" gradientUnits="userSpaceOnUse">
<stop stop-color="white" stop-opacity="0.05"/>
<stop offset="0.75" stop-color="white" stop-opacity="0.8"/>
</linearGradient>
<linearGradient id="paint22_linear_1004_11441" x1="237" y1="254" x2="237" y2="306" gradientUnits="userSpaceOnUse">
<stop stop-color="#6D73F9"/>
<stop offset="1" stop-color="#9BB8F1"/>
</linearGradient>
<linearGradient id="paint23_linear_1004_11441" x1="213" y1="278" x2="161" y2="278" gradientUnits="userSpaceOnUse">
<stop stop-color="white" stop-opacity="0"/>
<stop offset="0.739583" stop-color="white"/>
</linearGradient>
<linearGradient id="paint24_linear_1004_11441" x1="219" y1="152.6" x2="219" y2="306" gradientUnits="userSpaceOnUse">
<stop stop-color="white" stop-opacity="0.05"/>
<stop offset="0.75" stop-color="white" stop-opacity="0.8"/>
</linearGradient>
</defs>
</svg>
