<svg width="539" height="290" viewBox="0 0 539 290" fill="none" xmlns="http://www.w3.org/2000/svg">
<path d="M157.283 70.366C157.283 68.672 157.703 67.37 158.529 66.446C159.355 65.536 160.391 65.074 161.637 65.074C163.275 65.074 164.563 65.816 165.109 66.992L164.157 67.636C163.583 66.726 162.729 66.278 161.581 66.278C160.713 66.278 159.985 66.614 159.397 67.286C158.809 67.972 158.515 68.896 158.529 70.086C159.075 69.064 160.349 68.448 161.749 68.448C162.883 68.448 163.793 68.742 164.451 69.344C165.109 69.946 165.445 70.744 165.445 71.724C165.445 72.718 165.081 73.544 164.339 74.174C163.597 74.804 162.673 75.126 161.567 75.126C158.921 75.126 157.283 73.404 157.283 70.366ZM158.683 71.556C158.949 72.942 159.999 73.922 161.553 73.922C162.309 73.922 162.939 73.726 163.429 73.32C163.919 72.928 164.157 72.41 164.157 71.78C164.157 70.394 163.177 69.652 161.679 69.652C160.853 69.652 160.167 69.848 159.635 70.24C159.089 70.632 158.781 71.066 158.683 71.556ZM167.574 68.434L166.552 68.07C166.902 66.334 168.218 65.088 170.304 65.088C172.32 65.088 173.552 66.25 173.552 68.028C173.552 68.966 173.146 69.904 172.642 70.576C172.39 70.926 172.068 71.262 171.69 71.612C170.92 72.298 170.374 72.662 169.576 73.166L168.498 73.838H173.916V75H166.286V74.048L168.414 72.634C168.792 72.396 169.058 72.214 169.212 72.102C169.366 72.004 169.618 71.822 169.954 71.584C170.29 71.346 170.542 71.136 170.71 70.982C170.864 70.828 171.074 70.632 171.312 70.38C171.956 69.68 172.194 69.036 172.264 68.154C172.264 66.88 171.438 66.306 170.22 66.306C169.464 66.306 168.862 66.516 168.428 66.936C167.994 67.356 167.7 67.86 167.574 68.434ZM176.314 70.492L175.306 70.226L175.88 65.2H182.04V66.39H176.958L176.594 69.022C177.084 68.658 177.826 68.476 178.82 68.476C179.968 68.476 180.864 68.784 181.522 69.386C182.166 70.002 182.488 70.786 182.488 71.752C182.488 72.718 182.124 73.53 181.41 74.16C180.682 74.804 179.772 75.126 178.694 75.126C176.86 75.126 175.334 74.258 174.704 72.732L175.824 72.256C176.23 73.194 177.28 73.936 178.694 73.936C180.304 73.936 181.2 73.012 181.2 71.794C181.2 70.492 180.15 69.652 178.484 69.652C177.588 69.652 176.86 69.932 176.314 70.492ZM183.649 74.202C183.649 73.81 184.013 73.418 184.517 73.418C184.979 73.418 185.357 73.81 185.357 74.202C185.357 74.65 185.007 75.028 184.517 75.028C184.013 75.028 183.649 74.65 183.649 74.202ZM193.276 75H192.058V72.998H186.066V72.186L192.198 65.2H193.276V71.864H195.096V72.998H193.276V75ZM192.058 67.16L187.746 71.864H192.058V67.16Z" fill="#2A3C3C"/>
<path d="M157.283 70.366C157.283 68.672 157.703 67.37 158.529 66.446C159.355 65.536 160.391 65.074 161.637 65.074C163.275 65.074 164.563 65.816 165.109 66.992L164.157 67.636C163.583 66.726 162.729 66.278 161.581 66.278C160.713 66.278 159.985 66.614 159.397 67.286C158.809 67.972 158.515 68.896 158.529 70.086C159.075 69.064 160.349 68.448 161.749 68.448C162.883 68.448 163.793 68.742 164.451 69.344C165.109 69.946 165.445 70.744 165.445 71.724C165.445 72.718 165.081 73.544 164.339 74.174C163.597 74.804 162.673 75.126 161.567 75.126C158.921 75.126 157.283 73.404 157.283 70.366ZM158.683 71.556C158.949 72.942 159.999 73.922 161.553 73.922C162.309 73.922 162.939 73.726 163.429 73.32C163.919 72.928 164.157 72.41 164.157 71.78C164.157 70.394 163.177 69.652 161.679 69.652C160.853 69.652 160.167 69.848 159.635 70.24C159.089 70.632 158.781 71.066 158.683 71.556ZM167.574 68.434L166.552 68.07C166.902 66.334 168.218 65.088 170.304 65.088C172.32 65.088 173.552 66.25 173.552 68.028C173.552 68.966 173.146 69.904 172.642 70.576C172.39 70.926 172.068 71.262 171.69 71.612C170.92 72.298 170.374 72.662 169.576 73.166L168.498 73.838H173.916V75H166.286V74.048L168.414 72.634C168.792 72.396 169.058 72.214 169.212 72.102C169.366 72.004 169.618 71.822 169.954 71.584C170.29 71.346 170.542 71.136 170.71 70.982C170.864 70.828 171.074 70.632 171.312 70.38C171.956 69.68 172.194 69.036 172.264 68.154C172.264 66.88 171.438 66.306 170.22 66.306C169.464 66.306 168.862 66.516 168.428 66.936C167.994 67.356 167.7 67.86 167.574 68.434ZM176.314 70.492L175.306 70.226L175.88 65.2H182.04V66.39H176.958L176.594 69.022C177.084 68.658 177.826 68.476 178.82 68.476C179.968 68.476 180.864 68.784 181.522 69.386C182.166 70.002 182.488 70.786 182.488 71.752C182.488 72.718 182.124 73.53 181.41 74.16C180.682 74.804 179.772 75.126 178.694 75.126C176.86 75.126 175.334 74.258 174.704 72.732L175.824 72.256C176.23 73.194 177.28 73.936 178.694 73.936C180.304 73.936 181.2 73.012 181.2 71.794C181.2 70.492 180.15 69.652 178.484 69.652C177.588 69.652 176.86 69.932 176.314 70.492ZM183.649 74.202C183.649 73.81 184.013 73.418 184.517 73.418C184.979 73.418 185.357 73.81 185.357 74.202C185.357 74.65 185.007 75.028 184.517 75.028C184.013 75.028 183.649 74.65 183.649 74.202ZM193.276 75H192.058V72.998H186.066V72.186L192.198 65.2H193.276V71.864H195.096V72.998H193.276V75ZM192.058 67.16L187.746 71.864H192.058V67.16Z" fill="#1A3341"/>
<path d="M148 87C148 85.8954 148.895 85 150 85H202C203.105 85 204 85.8954 204 87V270H148V87Z" fill="url(#paint0_linear_6003_19096)"/>
<path opacity="0.2" d="M160 85H192V270H160V85Z" fill="url(#paint1_linear_6003_19096)"/>
<path opacity="0.04" d="M192 85H202C203.105 85 204 85.8954 204 87V270H192V85Z" fill="#0D262C"/>
<path opacity="0.5" d="M148 87C148 85.8954 148.895 85 150 85H160V270H148V87Z" fill="url(#paint2_linear_6003_19096)"/>
<path d="M376.571 105.492L375.563 105.226L376.137 100.2H382.297V101.39H377.215L376.851 104.022C377.341 103.658 378.083 103.476 379.077 103.476C380.225 103.476 381.121 103.784 381.779 104.386C382.423 105.002 382.745 105.786 382.745 106.752C382.745 107.718 382.381 108.53 381.667 109.16C380.939 109.804 380.029 110.126 378.951 110.126C377.117 110.126 375.591 109.258 374.961 107.732L376.081 107.256C376.487 108.194 377.537 108.936 378.951 108.936C380.561 108.936 381.457 108.012 381.457 106.794C381.457 105.492 380.407 104.652 378.741 104.652C377.845 104.652 377.117 104.932 376.571 105.492ZM383.695 102.804L383.247 101.754L386.607 100.144H387.405V110H386.201V101.642L383.695 102.804ZM390.157 103.056L389.107 102.58C389.625 101.068 390.983 100.074 393.013 100.074C393.979 100.074 394.777 100.298 395.393 100.746C396.009 101.194 396.317 101.796 396.317 102.538C396.317 103.672 395.715 104.512 394.595 104.834C395.673 104.904 396.541 105.716 396.541 107.172C396.541 108.096 396.205 108.824 395.533 109.342C394.861 109.86 394.007 110.126 392.957 110.126C390.815 110.126 389.331 109.104 388.841 107.494L389.975 107.004C390.577 108.278 391.599 108.922 393.041 108.922C394.399 108.922 395.253 108.292 395.253 107.186C395.253 106.108 394.413 105.562 392.733 105.562H391.641V104.4H392.509C394.035 104.4 395.029 103.714 395.029 102.776C395.029 101.81 394.231 101.264 392.957 101.264C391.459 101.264 390.549 102.034 390.157 103.056ZM397.789 109.202C397.789 108.81 398.153 108.418 398.657 108.418C399.119 108.418 399.497 108.81 399.497 109.202C399.497 109.65 399.147 110.028 398.657 110.028C398.153 110.028 397.789 109.65 397.789 109.202ZM407.417 110H406.199V107.998H400.207V107.186L406.339 100.2H407.417V106.864H409.237V107.998H407.417V110ZM406.199 102.16L401.887 106.864H406.199V102.16Z" fill="#2A3C3C"/>
<path d="M376.571 105.492L375.563 105.226L376.137 100.2H382.297V101.39H377.215L376.851 104.022C377.341 103.658 378.083 103.476 379.077 103.476C380.225 103.476 381.121 103.784 381.779 104.386C382.423 105.002 382.745 105.786 382.745 106.752C382.745 107.718 382.381 108.53 381.667 109.16C380.939 109.804 380.029 110.126 378.951 110.126C377.117 110.126 375.591 109.258 374.961 107.732L376.081 107.256C376.487 108.194 377.537 108.936 378.951 108.936C380.561 108.936 381.457 108.012 381.457 106.794C381.457 105.492 380.407 104.652 378.741 104.652C377.845 104.652 377.117 104.932 376.571 105.492ZM383.695 102.804L383.247 101.754L386.607 100.144H387.405V110H386.201V101.642L383.695 102.804ZM390.157 103.056L389.107 102.58C389.625 101.068 390.983 100.074 393.013 100.074C393.979 100.074 394.777 100.298 395.393 100.746C396.009 101.194 396.317 101.796 396.317 102.538C396.317 103.672 395.715 104.512 394.595 104.834C395.673 104.904 396.541 105.716 396.541 107.172C396.541 108.096 396.205 108.824 395.533 109.342C394.861 109.86 394.007 110.126 392.957 110.126C390.815 110.126 389.331 109.104 388.841 107.494L389.975 107.004C390.577 108.278 391.599 108.922 393.041 108.922C394.399 108.922 395.253 108.292 395.253 107.186C395.253 106.108 394.413 105.562 392.733 105.562H391.641V104.4H392.509C394.035 104.4 395.029 103.714 395.029 102.776C395.029 101.81 394.231 101.264 392.957 101.264C391.459 101.264 390.549 102.034 390.157 103.056ZM397.789 109.202C397.789 108.81 398.153 108.418 398.657 108.418C399.119 108.418 399.497 108.81 399.497 109.202C399.497 109.65 399.147 110.028 398.657 110.028C398.153 110.028 397.789 109.65 397.789 109.202ZM407.417 110H406.199V107.998H400.207V107.186L406.339 100.2H407.417V106.864H409.237V107.998H407.417V110ZM406.199 102.16L401.887 106.864H406.199V102.16Z" fill="#1A3341"/>
<path d="M364 122C364 120.895 364.895 120 366 120H418C419.105 120 420 120.895 420 122V270H364V122Z" fill="url(#paint3_linear_6003_19096)"/>
<path opacity="0.2" d="M376 120H408V270H376V120Z" fill="url(#paint4_linear_6003_19096)"/>
<path opacity="0.04" d="M408 120H418C419.105 120 420 120.895 420 122V270H408V120Z" fill="#0D262C"/>
<path opacity="0.5" d="M364 122C364 120.895 364.895 120 366 120H376V270H364V122Z" fill="url(#paint5_linear_6003_19096)"/>
<path d="M80.3038 185.434L79.2818 185.07C79.6318 183.334 80.9478 182.088 83.0338 182.088C85.0498 182.088 86.2818 183.25 86.2818 185.028C86.2818 185.966 85.8758 186.904 85.3718 187.576C85.1198 187.926 84.7978 188.262 84.4198 188.612C83.6498 189.298 83.1038 189.662 82.3058 190.166L81.2278 190.838H86.6458V192H79.0158V191.048L81.1438 189.634C81.5218 189.396 81.7878 189.214 81.9418 189.102C82.0958 189.004 82.3478 188.822 82.6838 188.584C83.0198 188.346 83.2718 188.136 83.4398 187.982C83.5938 187.828 83.8038 187.632 84.0418 187.38C84.6858 186.68 84.9238 186.036 84.9938 185.154C84.9938 183.88 84.1678 183.306 82.9498 183.306C82.1938 183.306 81.5918 183.516 81.1578 183.936C80.7238 184.356 80.4298 184.86 80.3038 185.434ZM88.736 185.434L87.714 185.07C88.064 183.334 89.38 182.088 91.466 182.088C93.482 182.088 94.714 183.25 94.714 185.028C94.714 185.966 94.308 186.904 93.804 187.576C93.552 187.926 93.23 188.262 92.852 188.612C92.082 189.298 91.536 189.662 90.738 190.166L89.66 190.838H95.078V192H87.448V191.048L89.576 189.634C89.954 189.396 90.22 189.214 90.374 189.102C90.528 189.004 90.78 188.822 91.116 188.584C91.452 188.346 91.704 188.136 91.872 187.982C92.026 187.828 92.236 187.632 92.474 187.38C93.118 186.68 93.356 186.036 93.426 185.154C93.426 183.88 92.6 183.306 91.382 183.306C90.626 183.306 90.024 183.516 89.59 183.936C89.156 184.356 88.862 184.86 88.736 185.434ZM101.662 183.39H95.7263V182.2H103.16V182.998L98.2883 192H96.9583L101.662 183.39ZM103.157 191.202C103.157 190.81 103.521 190.418 104.025 190.418C104.487 190.418 104.865 190.81 104.865 191.202C104.865 191.65 104.515 192.028 104.025 192.028C103.521 192.028 103.157 191.65 103.157 191.202ZM111.636 183.39H105.7V182.2H113.134V182.998L108.262 192H106.932L111.636 183.39Z" fill="#2A3C3C"/>
<path d="M80.3038 185.434L79.2818 185.07C79.6318 183.334 80.9478 182.088 83.0338 182.088C85.0498 182.088 86.2818 183.25 86.2818 185.028C86.2818 185.966 85.8758 186.904 85.3718 187.576C85.1198 187.926 84.7978 188.262 84.4198 188.612C83.6498 189.298 83.1038 189.662 82.3058 190.166L81.2278 190.838H86.6458V192H79.0158V191.048L81.1438 189.634C81.5218 189.396 81.7878 189.214 81.9418 189.102C82.0958 189.004 82.3478 188.822 82.6838 188.584C83.0198 188.346 83.2718 188.136 83.4398 187.982C83.5938 187.828 83.8038 187.632 84.0418 187.38C84.6858 186.68 84.9238 186.036 84.9938 185.154C84.9938 183.88 84.1678 183.306 82.9498 183.306C82.1938 183.306 81.5918 183.516 81.1578 183.936C80.7238 184.356 80.4298 184.86 80.3038 185.434ZM88.736 185.434L87.714 185.07C88.064 183.334 89.38 182.088 91.466 182.088C93.482 182.088 94.714 183.25 94.714 185.028C94.714 185.966 94.308 186.904 93.804 187.576C93.552 187.926 93.23 188.262 92.852 188.612C92.082 189.298 91.536 189.662 90.738 190.166L89.66 190.838H95.078V192H87.448V191.048L89.576 189.634C89.954 189.396 90.22 189.214 90.374 189.102C90.528 189.004 90.78 188.822 91.116 188.584C91.452 188.346 91.704 188.136 91.872 187.982C92.026 187.828 92.236 187.632 92.474 187.38C93.118 186.68 93.356 186.036 93.426 185.154C93.426 183.88 92.6 183.306 91.382 183.306C90.626 183.306 90.024 183.516 89.59 183.936C89.156 184.356 88.862 184.86 88.736 185.434ZM101.662 183.39H95.7263V182.2H103.16V182.998L98.2883 192H96.9583L101.662 183.39ZM103.157 191.202C103.157 190.81 103.521 190.418 104.025 190.418C104.487 190.418 104.865 190.81 104.865 191.202C104.865 191.65 104.515 192.028 104.025 192.028C103.521 192.028 103.157 191.65 103.157 191.202ZM111.636 183.39H105.7V182.2H113.134V182.998L108.262 192H106.932L111.636 183.39Z" fill="#1A3341"/>
<path d="M68 204C68 202.895 68.8954 202 70 202H122C123.105 202 124 202.895 124 204V270H68V204Z" fill="url(#paint6_linear_6003_19096)"/>
<path opacity="0.2" d="M80 202H112V270H80V202Z" fill="url(#paint7_linear_6003_19096)"/>
<path opacity="0.04" d="M112 202H122C123.105 202 124 202.895 124 204V270H112V202Z" fill="#0D262C"/>
<path opacity="0.5" d="M68 204C68 202.895 68.8954 202 70 202H80V270H68V204Z" fill="url(#paint8_linear_6003_19096)"/>
<path d="M295.121 188.434L294.099 188.07C294.449 186.334 295.765 185.088 297.851 185.088C299.867 185.088 301.099 186.25 301.099 188.028C301.099 188.966 300.693 189.904 300.189 190.576C299.937 190.926 299.615 191.262 299.237 191.612C298.467 192.298 297.921 192.662 297.123 193.166L296.045 193.838H301.463V195H293.833V194.048L295.961 192.634C296.339 192.396 296.605 192.214 296.759 192.102C296.913 192.004 297.165 191.822 297.501 191.584C297.837 191.346 298.089 191.136 298.257 190.982C298.411 190.828 298.621 190.632 298.859 190.38C299.503 189.68 299.741 189.036 299.811 188.154C299.811 186.88 298.985 186.306 297.767 186.306C297.011 186.306 296.409 186.516 295.975 186.936C295.541 187.356 295.247 187.86 295.121 188.434ZM303.553 188.434L302.531 188.07C302.881 186.334 304.197 185.088 306.283 185.088C308.299 185.088 309.531 186.25 309.531 188.028C309.531 188.966 309.125 189.904 308.621 190.576C308.369 190.926 308.047 191.262 307.669 191.612C306.899 192.298 306.353 192.662 305.555 193.166L304.477 193.838H309.895V195H302.265V194.048L304.393 192.634C304.771 192.396 305.037 192.214 305.191 192.102C305.345 192.004 305.597 191.822 305.933 191.584C306.269 191.346 306.521 191.136 306.689 190.982C306.843 190.828 307.053 190.632 307.291 190.38C307.935 189.68 308.173 189.036 308.243 188.154C308.243 186.88 307.417 186.306 306.199 186.306C305.443 186.306 304.841 186.516 304.407 186.936C303.973 187.356 303.679 187.86 303.553 188.434ZM310.866 190.1C310.866 188.588 311.216 187.37 311.93 186.46C312.63 185.55 313.666 185.088 315.024 185.088C317.81 185.088 319.196 186.922 319.196 190.1C319.196 191.626 318.846 192.83 318.16 193.74C317.46 194.65 316.424 195.112 315.052 195.112C313.736 195.112 312.714 194.65 311.972 193.726C311.23 192.802 310.866 191.598 310.866 190.1ZM312.154 190.1C312.154 192.494 313.246 193.922 315.052 193.922C316.956 193.922 317.908 192.648 317.908 190.1C317.908 187.552 316.942 186.278 315.024 186.278C313.078 186.278 312.154 187.678 312.154 190.1ZM320.339 194.202C320.339 193.81 320.703 193.418 321.207 193.418C321.669 193.418 322.047 193.81 322.047 194.202C322.047 194.65 321.697 195.028 321.207 195.028C320.703 195.028 320.339 194.65 320.339 194.202ZM328.819 186.39H322.883V185.2H330.317V185.998L325.445 195H324.115L328.819 186.39Z" fill="#2A3C3C"/>
<path d="M295.121 188.434L294.099 188.07C294.449 186.334 295.765 185.088 297.851 185.088C299.867 185.088 301.099 186.25 301.099 188.028C301.099 188.966 300.693 189.904 300.189 190.576C299.937 190.926 299.615 191.262 299.237 191.612C298.467 192.298 297.921 192.662 297.123 193.166L296.045 193.838H301.463V195H293.833V194.048L295.961 192.634C296.339 192.396 296.605 192.214 296.759 192.102C296.913 192.004 297.165 191.822 297.501 191.584C297.837 191.346 298.089 191.136 298.257 190.982C298.411 190.828 298.621 190.632 298.859 190.38C299.503 189.68 299.741 189.036 299.811 188.154C299.811 186.88 298.985 186.306 297.767 186.306C297.011 186.306 296.409 186.516 295.975 186.936C295.541 187.356 295.247 187.86 295.121 188.434ZM303.553 188.434L302.531 188.07C302.881 186.334 304.197 185.088 306.283 185.088C308.299 185.088 309.531 186.25 309.531 188.028C309.531 188.966 309.125 189.904 308.621 190.576C308.369 190.926 308.047 191.262 307.669 191.612C306.899 192.298 306.353 192.662 305.555 193.166L304.477 193.838H309.895V195H302.265V194.048L304.393 192.634C304.771 192.396 305.037 192.214 305.191 192.102C305.345 192.004 305.597 191.822 305.933 191.584C306.269 191.346 306.521 191.136 306.689 190.982C306.843 190.828 307.053 190.632 307.291 190.38C307.935 189.68 308.173 189.036 308.243 188.154C308.243 186.88 307.417 186.306 306.199 186.306C305.443 186.306 304.841 186.516 304.407 186.936C303.973 187.356 303.679 187.86 303.553 188.434ZM310.866 190.1C310.866 188.588 311.216 187.37 311.93 186.46C312.63 185.55 313.666 185.088 315.024 185.088C317.81 185.088 319.196 186.922 319.196 190.1C319.196 191.626 318.846 192.83 318.16 193.74C317.46 194.65 316.424 195.112 315.052 195.112C313.736 195.112 312.714 194.65 311.972 193.726C311.23 192.802 310.866 191.598 310.866 190.1ZM312.154 190.1C312.154 192.494 313.246 193.922 315.052 193.922C316.956 193.922 317.908 192.648 317.908 190.1C317.908 187.552 316.942 186.278 315.024 186.278C313.078 186.278 312.154 187.678 312.154 190.1ZM320.339 194.202C320.339 193.81 320.703 193.418 321.207 193.418C321.669 193.418 322.047 193.81 322.047 194.202C322.047 194.65 321.697 195.028 321.207 195.028C320.703 195.028 320.339 194.65 320.339 194.202ZM328.819 186.39H322.883V185.2H330.317V185.998L325.445 195H324.115L328.819 186.39Z" fill="#1A3341"/>
<path d="M284 207C284 205.895 284.895 205 286 205H338C339.105 205 340 205.895 340 207V270H284V207Z" fill="url(#paint9_linear_6003_19096)"/>
<path opacity="0.2" d="M296 205H328V270H296V205Z" fill="url(#paint10_linear_6003_19096)"/>
<path opacity="0.04" d="M328 205H338C339.105 205 340 205.895 340 207V270H328V205Z" fill="#0D262C"/>
<path opacity="0.5" d="M284 207C284 205.895 284.895 205 286 205H296V270H284V207Z" fill="url(#paint11_linear_6003_19096)"/>
<path d="M118.556 280.372L117.68 280.06C117.98 278.572 119.108 277.504 120.896 277.504C122.624 277.504 123.68 278.5 123.68 280.024C123.68 280.828 123.332 281.632 122.9 282.208C122.684 282.508 122.408 282.796 122.084 283.096C121.424 283.684 120.956 283.996 120.272 284.428L119.348 285.004H123.992V286H117.452V285.184L119.276 283.972C119.6 283.768 119.828 283.612 119.96 283.516C120.092 283.432 120.308 283.276 120.596 283.072C120.884 282.868 121.1 282.688 121.244 282.556C121.376 282.424 121.556 282.256 121.76 282.04C122.312 281.44 122.516 280.888 122.576 280.132C122.576 279.04 121.868 278.548 120.824 278.548C120.176 278.548 119.66 278.728 119.288 279.088C118.916 279.448 118.664 279.88 118.556 280.372ZM124.824 281.8C124.824 280.504 125.124 279.46 125.736 278.68C126.336 277.9 127.224 277.504 128.388 277.504C130.776 277.504 131.964 279.076 131.964 281.8C131.964 283.108 131.664 284.14 131.076 284.92C130.476 285.7 129.588 286.096 128.412 286.096C127.284 286.096 126.408 285.7 125.772 284.908C125.136 284.116 124.824 283.084 124.824 281.8ZM125.928 281.8C125.928 283.852 126.864 285.076 128.412 285.076C130.044 285.076 130.86 283.984 130.86 281.8C130.86 279.616 130.032 278.524 128.388 278.524C126.72 278.524 125.928 279.724 125.928 281.8ZM133.82 280.372L132.944 280.06C133.244 278.572 134.372 277.504 136.16 277.504C137.888 277.504 138.944 278.5 138.944 280.024C138.944 280.828 138.596 281.632 138.164 282.208C137.948 282.508 137.672 282.796 137.348 283.096C136.688 283.684 136.22 283.996 135.536 284.428L134.612 285.004H139.256V286H132.716V285.184L134.54 283.972C134.864 283.768 135.092 283.612 135.224 283.516C135.356 283.432 135.572 283.276 135.86 283.072C136.148 282.868 136.364 282.688 136.508 282.556C136.64 282.424 136.82 282.256 137.024 282.04C137.576 281.44 137.78 280.888 137.84 280.132C137.84 279.04 137.132 278.548 136.088 278.548C135.44 278.548 134.924 278.728 134.552 279.088C134.18 279.448 133.928 279.88 133.82 280.372ZM141.048 280.372L140.172 280.06C140.472 278.572 141.6 277.504 143.388 277.504C145.116 277.504 146.172 278.5 146.172 280.024C146.172 280.828 145.824 281.632 145.392 282.208C145.176 282.508 144.9 282.796 144.576 283.096C143.916 283.684 143.448 283.996 142.764 284.428L141.84 285.004H146.484V286H139.944V285.184L141.768 283.972C142.092 283.768 142.32 283.612 142.452 283.516C142.584 283.432 142.8 283.276 143.088 283.072C143.376 282.868 143.592 282.688 143.736 282.556C143.868 282.424 144.048 282.256 144.252 282.04C144.804 281.44 145.008 280.888 145.068 280.132C145.068 279.04 144.36 278.548 143.316 278.548C142.668 278.548 142.152 278.728 141.78 279.088C141.408 279.448 141.156 279.88 141.048 280.372Z" fill="#76848D"/>
<path d="M334.527 280.372L333.651 280.06C333.951 278.572 335.079 277.504 336.867 277.504C338.595 277.504 339.651 278.5 339.651 280.024C339.651 280.828 339.303 281.632 338.871 282.208C338.655 282.508 338.379 282.796 338.055 283.096C337.395 283.684 336.927 283.996 336.243 284.428L335.319 285.004H339.963V286H333.423V285.184L335.247 283.972C335.571 283.768 335.799 283.612 335.931 283.516C336.063 283.432 336.279 283.276 336.567 283.072C336.855 282.868 337.071 282.688 337.215 282.556C337.347 282.424 337.527 282.256 337.731 282.04C338.283 281.44 338.487 280.888 338.547 280.132C338.547 279.04 337.839 278.548 336.795 278.548C336.147 278.548 335.631 278.728 335.259 279.088C334.887 279.448 334.635 279.88 334.527 280.372ZM340.795 281.8C340.795 280.504 341.095 279.46 341.707 278.68C342.307 277.9 343.195 277.504 344.359 277.504C346.747 277.504 347.935 279.076 347.935 281.8C347.935 283.108 347.635 284.14 347.047 284.92C346.447 285.7 345.559 286.096 344.383 286.096C343.255 286.096 342.379 285.7 341.743 284.908C341.107 284.116 340.795 283.084 340.795 281.8ZM341.899 281.8C341.899 283.852 342.835 285.076 344.383 285.076C346.015 285.076 346.831 283.984 346.831 281.8C346.831 279.616 346.003 278.524 344.359 278.524C342.691 278.524 341.899 279.724 341.899 281.8ZM349.791 280.372L348.915 280.06C349.215 278.572 350.343 277.504 352.131 277.504C353.859 277.504 354.915 278.5 354.915 280.024C354.915 280.828 354.567 281.632 354.135 282.208C353.919 282.508 353.643 282.796 353.319 283.096C352.659 283.684 352.191 283.996 351.507 284.428L350.583 285.004H355.227V286H348.687V285.184L350.511 283.972C350.835 283.768 351.063 283.612 351.195 283.516C351.327 283.432 351.543 283.276 351.831 283.072C352.119 282.868 352.335 282.688 352.479 282.556C352.611 282.424 352.791 282.256 352.995 282.04C353.547 281.44 353.751 280.888 353.811 280.132C353.811 279.04 353.103 278.548 352.059 278.548C351.411 278.548 350.895 278.728 350.523 279.088C350.151 279.448 349.899 279.88 349.791 280.372ZM356.887 280.048L355.987 279.64C356.431 278.344 357.595 277.492 359.335 277.492C360.163 277.492 360.847 277.684 361.375 278.068C361.903 278.452 362.167 278.968 362.167 279.604C362.167 280.576 361.651 281.296 360.691 281.572C361.615 281.632 362.359 282.328 362.359 283.576C362.359 284.368 362.071 284.992 361.495 285.436C360.919 285.88 360.187 286.108 359.287 286.108C357.451 286.108 356.179 285.232 355.759 283.852L356.731 283.432C357.247 284.524 358.123 285.076 359.359 285.076C360.523 285.076 361.255 284.536 361.255 283.588C361.255 282.664 360.535 282.196 359.095 282.196H358.159V281.2H358.903C360.211 281.2 361.063 280.612 361.063 279.808C361.063 278.98 360.379 278.512 359.287 278.512C358.003 278.512 357.223 279.172 356.887 280.048Z" fill="#76848D"/>
<path d="M0 269.5L539 269.5" stroke="#ABBEC9"/>
<rect y="2" width="10" height="10" fill="url(#paint12_linear_6003_19096)"/>
<path d="M25.044 11H18.888V2.6H24.936V3.62H19.98V6.236H24.6V7.232H19.98V9.98H25.044V11ZM32.3486 2.6H33.4406V7.448C33.4406 8.66 33.1046 9.56 32.4326 10.172C31.7606 10.784 30.9566 11.096 30.0086 11.096C28.9646 11.096 28.1006 10.772 27.4046 10.124C26.7086 9.476 26.3606 8.564 26.3606 7.376V2.6H27.4526V7.22C27.4526 8.12 27.6926 8.816 28.1846 9.308C28.6646 9.812 29.2766 10.064 30.0086 10.064C31.5326 10.064 32.3486 9.008 32.3486 7.28V2.6ZM41.3159 12.752L40.6319 13.448C39.7439 12.68 39.0959 11.804 38.6879 10.82C38.2799 9.836 38.0759 8.864 38.0759 7.892C38.0759 5.972 38.8319 3.944 40.6439 2.324L41.3039 3.02C39.8399 4.388 39.1079 6.008 39.1079 7.892C39.1079 9.68 39.9239 11.408 41.3159 12.752ZM42.7968 5.372L41.9208 5.06C42.2208 3.572 43.3488 2.504 45.1368 2.504C46.8648 2.504 47.9208 3.5 47.9208 5.024C47.9208 5.828 47.5728 6.632 47.1408 7.208C46.9248 7.508 46.6488 7.796 46.3248 8.096C45.6648 8.684 45.1968 8.996 44.5128 9.428L43.5888 10.004H48.2328V11H41.6928V10.184L43.5168 8.972C43.8408 8.768 44.0688 8.612 44.2008 8.516C44.3328 8.432 44.5488 8.276 44.8368 8.072C45.1248 7.868 45.3408 7.688 45.4848 7.556C45.6168 7.424 45.7968 7.256 46.0008 7.04C46.5528 6.44 46.7568 5.888 46.8168 5.132C46.8168 4.04 46.1088 3.548 45.0648 3.548C44.4168 3.548 43.9008 3.728 43.5288 4.088C43.1568 4.448 42.9048 4.88 42.7968 5.372ZM53.8764 3.62H48.7884V2.6H55.1604V3.284L50.9844 11H49.8444L53.8764 3.62ZM64.3296 9.2L65.0496 9.716C64.5816 10.592 63.5256 11.108 62.4816 11.108C61.4856 11.108 60.6816 10.808 60.0696 10.22C59.4576 9.632 59.1456 8.852 59.1456 7.868C59.1456 6.932 59.4456 6.152 60.0576 5.54C60.6696 4.928 61.4496 4.616 62.4216 4.616C63.5376 4.616 64.5336 5.12 64.9536 5.888L64.1736 6.416C63.7536 5.852 63.1776 5.564 62.4456 5.564C61.7976 5.564 61.2696 5.78 60.8496 6.212C60.4296 6.644 60.2136 7.196 60.2136 7.868C60.2136 8.552 60.4296 9.104 60.8736 9.524C61.3056 9.944 61.8696 10.16 62.5776 10.16C63.3216 10.16 63.9096 9.836 64.3296 9.2ZM65.3537 7.868C65.3537 6.92 65.6657 6.14 66.2777 5.528C66.8897 4.916 67.6817 4.616 68.6537 4.616C69.6377 4.616 70.4417 4.916 71.0537 5.528C71.6657 6.14 71.9777 6.92 71.9777 7.868C71.9777 8.816 71.6657 9.584 71.0537 10.196C70.4297 10.808 69.6257 11.108 68.6537 11.108C67.6817 11.108 66.8897 10.808 66.2777 10.196C65.6657 9.584 65.3537 8.816 65.3537 7.868ZM66.4217 7.868C66.4217 8.528 66.6257 9.08 67.0457 9.512C67.4657 9.944 67.9937 10.16 68.6537 10.16C69.3137 10.16 69.8657 9.944 70.2857 9.524C70.7057 9.104 70.9097 8.552 70.9097 7.868C70.9097 7.184 70.6937 6.632 70.2737 6.2C69.8417 5.78 69.3017 5.564 68.6537 5.564C68.0057 5.564 67.4777 5.78 67.0577 6.2C66.6377 6.62 66.4217 7.184 66.4217 7.868ZM77.4882 4.724H78.4962V11H77.4882V10.112C77.0082 10.772 76.3362 11.108 75.4602 11.108C73.7322 11.108 72.8922 10.244 72.8922 8.336V4.724H73.9002V8.192C73.9002 9.5 74.4522 10.16 75.5442 10.16C76.4082 10.16 77.1042 9.668 77.4882 8.804V4.724ZM80.8369 11H79.8289V4.76H80.8369V5.576C81.2329 4.964 82.0489 4.628 82.9729 4.628C84.6649 4.628 85.5049 5.564 85.5049 7.448V11H84.4969V7.568C84.4969 6.188 83.9089 5.576 82.6729 5.576C81.9049 5.576 81.1729 6.08 80.8369 6.836V11ZM87.4113 5.72H86.1153V4.76H87.4113V3.164H88.4193V4.76H90.5673V5.72H88.4193V8.468C88.4193 9.68 88.7313 10.124 89.4993 10.124C89.8713 10.124 90.2553 9.98 90.6273 9.68L91.0833 10.424C90.6873 10.868 90.0993 11.084 89.3193 11.084C88.0833 11.084 87.4113 10.268 87.4113 8.732V5.72ZM92.7023 11H91.6943V4.76H92.7023V5.24C92.9063 4.82 93.4463 4.628 93.9863 4.628C94.5383 4.628 94.9583 4.82 95.2583 5.192L94.6223 5.888C94.4663 5.684 94.2263 5.576 93.8783 5.576C93.3383 5.576 92.8463 6.02 92.7023 6.656V11ZM96.9565 11H95.9485V4.76H96.9565V11ZM95.8165 2.732C95.8165 2.396 96.0925 2.144 96.4645 2.144C96.8005 2.144 97.0885 2.396 97.0885 2.732C97.0885 3.08 96.8005 3.356 96.4645 3.356C96.0925 3.356 95.8165 3.08 95.8165 2.732ZM103.251 9.212L103.899 9.812C103.323 10.676 102.495 11.108 101.403 11.108C100.407 11.108 99.603 10.808 98.991 10.22C98.379 9.632 98.079 8.852 98.079 7.868C98.079 6.92 98.355 6.14 98.919 5.528C99.471 4.916 100.251 4.616 101.259 4.616C102.087 4.616 102.783 4.88 103.323 5.396C103.863 5.912 104.139 6.596 104.139 7.448C104.139 7.724 104.115 7.976 104.079 8.204H99.159C99.219 9.44 100.131 10.16 101.439 10.16C102.171 10.16 102.867 9.776 103.251 9.212ZM101.187 5.54C100.047 5.54 99.303 6.236 99.147 7.292H103.071C103.011 6.188 102.303 5.54 101.187 5.54ZM108.967 9.296C108.967 8.456 107.539 8.324 106.399 8C105.619 7.772 104.995 7.256 104.995 6.404C104.995 5.3 106.039 4.616 107.587 4.616C108.631 4.616 109.471 5.06 109.915 5.696L109.207 6.356C108.811 5.828 108.211 5.564 107.407 5.564C106.687 5.564 106.063 5.84 106.063 6.356C106.063 7.088 107.491 7.22 108.631 7.568C109.399 7.808 110.023 8.384 110.023 9.284C110.023 10.496 109.051 11.108 107.527 11.108C106.243 11.108 105.151 10.532 104.707 9.632L105.511 9.068C105.883 9.728 106.735 10.16 107.695 10.16C108.547 10.16 108.967 9.872 108.967 9.296ZM111.056 13.436L110.372 12.776C111.092 12.14 111.644 11.396 112.016 10.508C112.388 9.632 112.568 8.768 112.568 7.892C112.568 6.008 111.836 4.388 110.372 3.032L111.044 2.324C112.856 3.944 113.6 5.972 113.6 7.892C113.6 8.864 113.396 9.836 113 10.82C112.592 11.804 111.944 12.68 111.056 13.436ZM122.951 9.212L123.599 9.812C123.023 10.676 122.195 11.108 121.103 11.108C120.107 11.108 119.303 10.808 118.691 10.22C118.079 9.632 117.779 8.852 117.779 7.868C117.779 6.92 118.055 6.14 118.619 5.528C119.171 4.916 119.951 4.616 120.959 4.616C121.787 4.616 122.483 4.88 123.023 5.396C123.563 5.912 123.839 6.596 123.839 7.448C123.839 7.724 123.815 7.976 123.779 8.204H118.859C118.919 9.44 119.831 10.16 121.139 10.16C121.871 10.16 122.567 9.776 122.951 9.212ZM120.887 5.54C119.747 5.54 119.003 6.236 118.847 7.292H122.771C122.711 6.188 122.003 5.54 120.887 5.54ZM128.865 4.76H130.089L127.701 7.772L130.209 11H128.949L127.017 8.492L125.061 11H123.861L126.357 7.784L123.993 4.76H125.253L127.053 7.052L128.865 4.76ZM131.867 13.4H130.859V4.76H131.867V5.54C132.287 4.928 132.959 4.616 133.883 4.616C134.795 4.616 135.527 4.904 136.067 5.492C136.607 6.08 136.871 6.836 136.871 7.772C136.871 8.732 136.583 9.524 136.007 10.16C135.419 10.796 134.675 11.108 133.763 11.108C132.923 11.108 132.287 10.892 131.867 10.472V13.4ZM133.775 5.564C132.863 5.564 132.155 6.152 131.867 6.86V9.188C132.227 9.836 132.827 10.16 133.679 10.16C134.291 10.16 134.807 9.944 135.203 9.512C135.599 9.08 135.803 8.528 135.803 7.844C135.803 6.452 135.023 5.564 133.775 5.564ZM137.516 7.868C137.516 6.92 137.828 6.14 138.44 5.528C139.052 4.916 139.844 4.616 140.816 4.616C141.8 4.616 142.604 4.916 143.216 5.528C143.828 6.14 144.14 6.92 144.14 7.868C144.14 8.816 143.828 9.584 143.216 10.196C142.592 10.808 141.788 11.108 140.816 11.108C139.844 11.108 139.052 10.808 138.44 10.196C137.828 9.584 137.516 8.816 137.516 7.868ZM138.584 7.868C138.584 8.528 138.788 9.08 139.208 9.512C139.628 9.944 140.156 10.16 140.816 10.16C141.476 10.16 142.028 9.944 142.448 9.524C142.868 9.104 143.072 8.552 143.072 7.868C143.072 7.184 142.856 6.632 142.436 6.2C142.004 5.78 141.464 5.564 140.816 5.564C140.168 5.564 139.64 5.78 139.22 6.2C138.8 6.62 138.584 7.184 138.584 7.868ZM146.147 11H145.139V4.76H146.147V5.24C146.351 4.82 146.891 4.628 147.431 4.628C147.983 4.628 148.403 4.82 148.703 5.192L148.067 5.888C147.911 5.684 147.671 5.576 147.323 5.576C146.783 5.576 146.291 6.02 146.147 6.656V11ZM150.131 5.72H148.835V4.76H150.131V3.164H151.139V4.76H153.287V5.72H151.139V8.468C151.139 9.68 151.451 10.124 152.219 10.124C152.591 10.124 152.975 9.98 153.347 9.68L153.803 10.424C153.407 10.868 152.819 11.084 152.039 11.084C150.803 11.084 150.131 10.268 150.131 8.732V5.72ZM158.242 9.296C158.242 8.456 156.814 8.324 155.674 8C154.894 7.772 154.27 7.256 154.27 6.404C154.27 5.3 155.314 4.616 156.862 4.616C157.906 4.616 158.746 5.06 159.19 5.696L158.482 6.356C158.086 5.828 157.486 5.564 156.682 5.564C155.962 5.564 155.338 5.84 155.338 6.356C155.338 7.088 156.766 7.22 157.906 7.568C158.674 7.808 159.298 8.384 159.298 9.284C159.298 10.496 158.326 11.108 156.802 11.108C155.518 11.108 154.426 10.532 153.982 9.632L154.786 9.068C155.158 9.728 156.01 10.16 156.97 10.16C157.822 10.16 158.242 9.872 158.242 9.296ZM164.373 5.72H163.077V4.76H164.373V3.164H165.381V4.76H167.529V5.72H165.381V8.468C165.381 9.68 165.693 10.124 166.461 10.124C166.833 10.124 167.217 9.98 167.589 9.68L168.045 10.424C167.649 10.868 167.061 11.084 166.281 11.084C165.045 11.084 164.373 10.268 164.373 8.732V5.72ZM168.132 7.868C168.132 6.92 168.444 6.14 169.056 5.528C169.668 4.916 170.46 4.616 171.432 4.616C172.416 4.616 173.22 4.916 173.832 5.528C174.444 6.14 174.756 6.92 174.756 7.868C174.756 8.816 174.444 9.584 173.832 10.196C173.208 10.808 172.404 11.108 171.432 11.108C170.46 11.108 169.668 10.808 169.056 10.196C168.444 9.584 168.132 8.816 168.132 7.868ZM169.2 7.868C169.2 8.528 169.404 9.08 169.824 9.512C170.244 9.944 170.772 10.16 171.432 10.16C172.092 10.16 172.644 9.944 173.064 9.524C173.484 9.104 173.688 8.552 173.688 7.868C173.688 7.184 173.472 6.632 173.052 6.2C172.62 5.78 172.08 5.564 171.432 5.564C170.784 5.564 170.256 5.78 169.836 6.2C169.416 6.62 169.2 7.184 169.2 7.868ZM185.904 8.936L186.528 9.632C185.892 10.532 184.62 11.108 183.264 11.108C181.944 11.108 180.888 10.712 180.108 9.932C179.328 9.152 178.932 8.108 178.932 6.8C178.932 5.564 179.328 4.544 180.108 3.716C180.888 2.9 181.908 2.492 183.18 2.492C184.62 2.492 185.796 3.068 186.408 3.884L185.7 4.568C185.016 3.884 184.176 3.536 183.204 3.536C182.232 3.536 181.476 3.836 180.912 4.436C180.348 5.036 180.072 5.828 180.072 6.8C180.072 7.784 180.372 8.576 180.972 9.164C181.572 9.764 182.364 10.064 183.336 10.064C184.38 10.064 185.232 9.692 185.904 8.936ZM188.382 11H187.374V2.24H188.382V5.576C188.862 4.94 189.534 4.628 190.41 4.628C192.162 4.628 193.038 5.576 193.038 7.46V11H192.03V7.556C192.03 6.212 191.454 5.576 190.218 5.576C189.39 5.576 188.718 6.104 188.382 6.872V11ZM195.449 11H194.441V4.76H195.449V11ZM194.309 2.732C194.309 2.396 194.585 2.144 194.957 2.144C195.293 2.144 195.581 2.396 195.581 2.732C195.581 3.08 195.293 3.356 194.957 3.356C194.585 3.356 194.309 3.08 194.309 2.732ZM197.927 11H196.919V4.76H197.927V5.576C198.323 4.964 199.139 4.628 200.063 4.628C201.755 4.628 202.595 5.564 202.595 7.448V11H201.587V7.568C201.587 6.188 200.999 5.576 199.763 5.576C198.995 5.576 198.263 6.08 197.927 6.836V11ZM204.346 6.26L203.83 5.504C204.406 4.964 205.402 4.616 206.326 4.616C207.994 4.616 208.882 5.528 208.882 7.148V11H207.874V10.076C207.478 10.652 206.698 11.084 205.69 11.084C204.334 11.084 203.422 10.328 203.422 9.176C203.422 7.868 204.538 7.244 206.41 7.244C206.998 7.244 207.478 7.304 207.874 7.424C207.874 6.212 207.442 5.564 206.206 5.564C205.582 5.564 204.958 5.792 204.346 6.26ZM205.93 10.172C206.398 10.172 206.818 10.04 207.166 9.788C207.514 9.536 207.742 9.248 207.874 8.948V8.312C207.526 8.192 207.082 8.132 206.542 8.132C205.174 8.132 204.49 8.468 204.49 9.14C204.49 9.776 205.066 10.172 205.93 10.172Z" fill="#76848D"/>
<rect y="26" width="10" height="10" fill="#737AF9"/>
<path d="M25.404 32.936L26.028 33.632C25.392 34.532 24.12 35.108 22.764 35.108C21.444 35.108 20.388 34.712 19.608 33.932C18.828 33.152 18.432 32.108 18.432 30.8C18.432 29.564 18.828 28.544 19.608 27.716C20.388 26.9 21.408 26.492 22.68 26.492C24.12 26.492 25.296 27.068 25.908 27.884L25.2 28.568C24.516 27.884 23.676 27.536 22.704 27.536C21.732 27.536 20.976 27.836 20.412 28.436C19.848 29.036 19.572 29.828 19.572 30.8C19.572 31.784 19.872 32.576 20.472 33.164C21.072 33.764 21.864 34.064 22.836 34.064C23.88 34.064 24.732 33.692 25.404 32.936ZM27.8817 35H26.8737V26.24H27.8817V29.576C28.3617 28.94 29.0337 28.628 29.9097 28.628C31.6617 28.628 32.5377 29.576 32.5377 31.46V35H31.5297V31.556C31.5297 30.212 30.9537 29.576 29.7177 29.576C28.8897 29.576 28.2177 30.104 27.8817 30.872V35ZM34.9484 35H33.9404V28.76H34.9484V35ZM33.8084 26.732C33.8084 26.396 34.0844 26.144 34.4564 26.144C34.7924 26.144 35.0804 26.396 35.0804 26.732C35.0804 27.08 34.7924 27.356 34.4564 27.356C34.0844 27.356 33.8084 27.08 33.8084 26.732ZM37.4269 35H36.4189V28.76H37.4269V29.576C37.8229 28.964 38.6389 28.628 39.5629 28.628C41.2549 28.628 42.0949 29.564 42.0949 31.448V35H41.0869V31.568C41.0869 30.188 40.4989 29.576 39.2629 29.576C38.4949 29.576 37.7629 30.08 37.4269 30.836V35ZM43.8453 30.26L43.3293 29.504C43.9053 28.964 44.9013 28.616 45.8253 28.616C47.4933 28.616 48.3813 29.528 48.3813 31.148V35H47.3733V34.076C46.9773 34.652 46.1973 35.084 45.1893 35.084C43.8333 35.084 42.9213 34.328 42.9213 33.176C42.9213 31.868 44.0373 31.244 45.9093 31.244C46.4973 31.244 46.9773 31.304 47.3733 31.424C47.3733 30.212 46.9413 29.564 45.7053 29.564C45.0813 29.564 44.4573 29.792 43.8453 30.26ZM45.4293 34.172C45.8973 34.172 46.3173 34.04 46.6653 33.788C47.0133 33.536 47.2413 33.248 47.3733 32.948V32.312C47.0253 32.192 46.5813 32.132 46.0413 32.132C44.6733 32.132 43.9893 32.468 43.9893 33.14C43.9893 33.776 44.5653 34.172 45.4293 34.172ZM50.9874 29.348H49.9434V26.6H50.9874V29.348ZM56.4455 33.296C56.4455 32.456 55.0175 32.324 53.8775 32C53.0975 31.772 52.4735 31.256 52.4735 30.404C52.4735 29.3 53.5175 28.616 55.0655 28.616C56.1095 28.616 56.9495 29.06 57.3935 29.696L56.6855 30.356C56.2895 29.828 55.6895 29.564 54.8855 29.564C54.1655 29.564 53.5415 29.84 53.5415 30.356C53.5415 31.088 54.9695 31.22 56.1095 31.568C56.8775 31.808 57.5015 32.384 57.5015 33.284C57.5015 34.496 56.5295 35.108 55.0055 35.108C53.7215 35.108 52.6295 34.532 52.1855 33.632L52.9895 33.068C53.3615 33.728 54.2135 34.16 55.1735 34.16C56.0255 34.16 56.4455 33.872 56.4455 33.296ZM66.764 33.212L67.412 33.812C66.836 34.676 66.008 35.108 64.916 35.108C63.92 35.108 63.116 34.808 62.504 34.22C61.892 33.632 61.592 32.852 61.592 31.868C61.592 30.92 61.868 30.14 62.432 29.528C62.984 28.916 63.764 28.616 64.772 28.616C65.6 28.616 66.296 28.88 66.836 29.396C67.376 29.912 67.652 30.596 67.652 31.448C67.652 31.724 67.628 31.976 67.592 32.204H62.672C62.732 33.44 63.644 34.16 64.952 34.16C65.684 34.16 66.38 33.776 66.764 33.212ZM64.7 29.54C63.56 29.54 62.816 30.236 62.66 31.292H66.584C66.524 30.188 65.816 29.54 64.7 29.54ZM72.6787 28.76H73.9027L71.5147 31.772L74.0227 35H72.7627L70.8307 32.492L68.8747 35H67.6747L70.1707 31.784L67.8067 28.76H69.0667L70.8667 31.052L72.6787 28.76ZM75.6806 37.4H74.6726V28.76H75.6806V29.54C76.1006 28.928 76.7726 28.616 77.6966 28.616C78.6086 28.616 79.3406 28.904 79.8806 29.492C80.4206 30.08 80.6846 30.836 80.6846 31.772C80.6846 32.732 80.3966 33.524 79.8206 34.16C79.2326 34.796 78.4886 35.108 77.5766 35.108C76.7366 35.108 76.1006 34.892 75.6806 34.472V37.4ZM77.5886 29.564C76.6766 29.564 75.9686 30.152 75.6806 30.86V33.188C76.0406 33.836 76.6406 34.16 77.4926 34.16C78.1046 34.16 78.6206 33.944 79.0166 33.512C79.4126 33.08 79.6166 32.528 79.6166 31.844C79.6166 30.452 78.8366 29.564 77.5886 29.564ZM81.3296 31.868C81.3296 30.92 81.6416 30.14 82.2536 29.528C82.8656 28.916 83.6576 28.616 84.6296 28.616C85.6136 28.616 86.4176 28.916 87.0296 29.528C87.6416 30.14 87.9536 30.92 87.9536 31.868C87.9536 32.816 87.6416 33.584 87.0296 34.196C86.4056 34.808 85.6016 35.108 84.6296 35.108C83.6576 35.108 82.8656 34.808 82.2536 34.196C81.6416 33.584 81.3296 32.816 81.3296 31.868ZM82.3976 31.868C82.3976 32.528 82.6016 33.08 83.0216 33.512C83.4416 33.944 83.9696 34.16 84.6296 34.16C85.2896 34.16 85.8416 33.944 86.2616 33.524C86.6816 33.104 86.8856 32.552 86.8856 31.868C86.8856 31.184 86.6696 30.632 86.2496 30.2C85.8176 29.78 85.2776 29.564 84.6296 29.564C83.9816 29.564 83.4536 29.78 83.0336 30.2C82.6136 30.62 82.3976 31.184 82.3976 31.868ZM89.9602 35H88.9522V28.76H89.9602V29.24C90.1642 28.82 90.7042 28.628 91.2442 28.628C91.7962 28.628 92.2162 28.82 92.5162 29.192L91.8802 29.888C91.7242 29.684 91.4842 29.576 91.1362 29.576C90.5962 29.576 90.1042 30.02 89.9602 30.656V35ZM93.9447 29.72H92.6487V28.76H93.9447V27.164H94.9527V28.76H97.1007V29.72H94.9527V32.468C94.9527 33.68 95.2647 34.124 96.0327 34.124C96.4047 34.124 96.7887 33.98 97.1607 33.68L97.6167 34.424C97.2207 34.868 96.6327 35.084 95.8527 35.084C94.6167 35.084 93.9447 34.268 93.9447 32.732V29.72ZM102.056 33.296C102.056 32.456 100.628 32.324 99.4878 32C98.7078 31.772 98.0838 31.256 98.0838 30.404C98.0838 29.3 99.1278 28.616 100.676 28.616C101.72 28.616 102.56 29.06 103.004 29.696L102.296 30.356C101.9 29.828 101.3 29.564 100.496 29.564C99.7758 29.564 99.1518 29.84 99.1518 30.356C99.1518 31.088 100.58 31.22 101.72 31.568C102.488 31.808 103.112 32.384 103.112 33.284C103.112 34.496 102.14 35.108 100.616 35.108C99.3318 35.108 98.2398 34.532 97.7958 33.632L98.5998 33.068C98.9718 33.728 99.8238 34.16 100.784 34.16C101.636 34.16 102.056 33.872 102.056 33.296ZM108.186 29.72H106.89V28.76H108.186V27.164H109.194V28.76H111.342V29.72H109.194V32.468C109.194 33.68 109.506 34.124 110.274 34.124C110.646 34.124 111.03 33.98 111.402 33.68L111.858 34.424C111.462 34.868 110.874 35.084 110.094 35.084C108.858 35.084 108.186 34.268 108.186 32.732V29.72ZM111.946 31.868C111.946 30.92 112.258 30.14 112.87 29.528C113.482 28.916 114.274 28.616 115.246 28.616C116.23 28.616 117.034 28.916 117.646 29.528C118.258 30.14 118.57 30.92 118.57 31.868C118.57 32.816 118.258 33.584 117.646 34.196C117.022 34.808 116.218 35.108 115.246 35.108C114.274 35.108 113.482 34.808 112.87 34.196C112.258 33.584 111.946 32.816 111.946 31.868ZM113.014 31.868C113.014 32.528 113.218 33.08 113.638 33.512C114.058 33.944 114.586 34.16 115.246 34.16C115.906 34.16 116.458 33.944 116.878 33.524C117.298 33.104 117.502 32.552 117.502 31.868C117.502 31.184 117.286 30.632 116.866 30.2C116.434 29.78 115.894 29.564 115.246 29.564C114.598 29.564 114.07 29.78 113.65 30.2C113.23 30.62 113.014 31.184 113.014 31.868ZM123.682 29.72H122.386V28.76H123.682V27.164H124.69V28.76H126.838V29.72H124.69V32.468C124.69 33.68 125.002 34.124 125.77 34.124C126.142 34.124 126.526 33.98 126.898 33.68L127.354 34.424C126.958 34.868 126.37 35.084 125.59 35.084C124.354 35.084 123.682 34.268 123.682 32.732V29.72ZM128.973 35H127.965V26.24H128.973V29.576C129.453 28.94 130.125 28.628 131.001 28.628C132.753 28.628 133.629 29.576 133.629 31.46V35H132.621V31.556C132.621 30.212 132.045 29.576 130.809 29.576C129.981 29.576 129.309 30.104 128.973 30.872V35ZM139.724 33.212L140.372 33.812C139.796 34.676 138.968 35.108 137.876 35.108C136.88 35.108 136.076 34.808 135.464 34.22C134.852 33.632 134.552 32.852 134.552 31.868C134.552 30.92 134.828 30.14 135.392 29.528C135.944 28.916 136.724 28.616 137.732 28.616C138.56 28.616 139.256 28.88 139.796 29.396C140.336 29.912 140.612 30.596 140.612 31.448C140.612 31.724 140.588 31.976 140.552 32.204H135.632C135.692 33.44 136.604 34.16 137.912 34.16C138.644 34.16 139.34 33.776 139.724 33.212ZM137.66 29.54C136.52 29.54 135.776 30.236 135.62 31.292H139.544C139.484 30.188 138.776 29.54 137.66 29.54ZM151.401 35H145.245V26.6H151.293V27.62H146.337V30.236H150.957V31.232H146.337V33.98H151.401V35ZM158.706 26.6H159.798V31.448C159.798 32.66 159.462 33.56 158.79 34.172C158.118 34.784 157.314 35.096 156.366 35.096C155.322 35.096 154.458 34.772 153.762 34.124C153.066 33.476 152.718 32.564 152.718 31.376V26.6H153.81V31.22C153.81 32.12 154.05 32.816 154.542 33.308C155.022 33.812 155.634 34.064 156.366 34.064C157.89 34.064 158.706 33.008 158.706 31.28V26.6ZM167.673 36.752L166.989 37.448C166.101 36.68 165.453 35.804 165.045 34.82C164.637 33.836 164.433 32.864 164.433 31.892C164.433 29.972 165.189 27.944 167.001 26.324L167.661 27.02C166.197 28.388 165.465 30.008 165.465 31.892C165.465 33.68 166.281 35.408 167.673 36.752ZM169.154 29.372L168.278 29.06C168.578 27.572 169.706 26.504 171.494 26.504C173.222 26.504 174.278 27.5 174.278 29.024C174.278 29.828 173.93 30.632 173.498 31.208C173.282 31.508 173.006 31.796 172.682 32.096C172.022 32.684 171.554 32.996 170.87 33.428L169.946 34.004H174.59V35H168.05V34.184L169.874 32.972C170.198 32.768 170.426 32.612 170.558 32.516C170.69 32.432 170.906 32.276 171.194 32.072C171.482 31.868 171.698 31.688 171.842 31.556C171.974 31.424 172.154 31.256 172.358 31.04C172.91 30.44 173.114 29.888 173.174 29.132C173.174 28.04 172.466 27.548 171.422 27.548C170.774 27.548 170.258 27.728 169.886 28.088C169.514 28.448 169.262 28.88 169.154 29.372ZM180.234 27.62H175.146V26.6H181.518V27.284L177.342 35H176.202L180.234 27.62ZM190.687 33.2L191.407 33.716C190.939 34.592 189.883 35.108 188.839 35.108C187.843 35.108 187.039 34.808 186.427 34.22C185.815 33.632 185.503 32.852 185.503 31.868C185.503 30.932 185.803 30.152 186.415 29.54C187.027 28.928 187.807 28.616 188.779 28.616C189.895 28.616 190.891 29.12 191.311 29.888L190.531 30.416C190.111 29.852 189.535 29.564 188.803 29.564C188.155 29.564 187.627 29.78 187.207 30.212C186.787 30.644 186.571 31.196 186.571 31.868C186.571 32.552 186.787 33.104 187.231 33.524C187.663 33.944 188.227 34.16 188.935 34.16C189.679 34.16 190.267 33.836 190.687 33.2ZM191.711 31.868C191.711 30.92 192.023 30.14 192.635 29.528C193.247 28.916 194.039 28.616 195.011 28.616C195.995 28.616 196.799 28.916 197.411 29.528C198.023 30.14 198.335 30.92 198.335 31.868C198.335 32.816 198.023 33.584 197.411 34.196C196.787 34.808 195.983 35.108 195.011 35.108C194.039 35.108 193.247 34.808 192.635 34.196C192.023 33.584 191.711 32.816 191.711 31.868ZM192.779 31.868C192.779 32.528 192.983 33.08 193.403 33.512C193.823 33.944 194.351 34.16 195.011 34.16C195.671 34.16 196.223 33.944 196.643 33.524C197.063 33.104 197.267 32.552 197.267 31.868C197.267 31.184 197.051 30.632 196.631 30.2C196.199 29.78 195.659 29.564 195.011 29.564C194.363 29.564 193.835 29.78 193.415 30.2C192.995 30.62 192.779 31.184 192.779 31.868ZM203.845 28.724H204.853V35H203.845V34.112C203.365 34.772 202.693 35.108 201.817 35.108C200.089 35.108 199.249 34.244 199.249 32.336V28.724H200.257V32.192C200.257 33.5 200.809 34.16 201.901 34.16C202.765 34.16 203.461 33.668 203.845 32.804V28.724ZM207.194 35H206.186V28.76H207.194V29.576C207.59 28.964 208.406 28.628 209.33 28.628C211.022 28.628 211.862 29.564 211.862 31.448V35H210.854V31.568C210.854 30.188 210.266 29.576 209.03 29.576C208.262 29.576 207.53 30.08 207.194 30.836V35ZM213.768 29.72H212.472V28.76H213.768V27.164H214.776V28.76H216.924V29.72H214.776V32.468C214.776 33.68 215.088 34.124 215.856 34.124C216.228 34.124 216.612 33.98 216.984 33.68L217.44 34.424C217.044 34.868 216.456 35.084 215.676 35.084C214.44 35.084 213.768 34.268 213.768 32.732V29.72ZM219.06 35H218.052V28.76H219.06V29.24C219.264 28.82 219.804 28.628 220.344 28.628C220.896 28.628 221.316 28.82 221.616 29.192L220.98 29.888C220.824 29.684 220.584 29.576 220.236 29.576C219.696 29.576 219.204 30.02 219.06 30.656V35ZM223.314 35H222.306V28.76H223.314V35ZM222.174 26.732C222.174 26.396 222.45 26.144 222.822 26.144C223.158 26.144 223.446 26.396 223.446 26.732C223.446 27.08 223.158 27.356 222.822 27.356C222.45 27.356 222.174 27.08 222.174 26.732ZM229.608 33.212L230.256 33.812C229.68 34.676 228.852 35.108 227.76 35.108C226.764 35.108 225.96 34.808 225.348 34.22C224.736 33.632 224.436 32.852 224.436 31.868C224.436 30.92 224.712 30.14 225.276 29.528C225.828 28.916 226.608 28.616 227.616 28.616C228.444 28.616 229.14 28.88 229.68 29.396C230.22 29.912 230.496 30.596 230.496 31.448C230.496 31.724 230.472 31.976 230.436 32.204H225.516C225.576 33.44 226.488 34.16 227.796 34.16C228.528 34.16 229.224 33.776 229.608 33.212ZM227.544 29.54C226.404 29.54 225.66 30.236 225.504 31.292H229.428C229.368 30.188 228.66 29.54 227.544 29.54ZM235.324 33.296C235.324 32.456 233.896 32.324 232.756 32C231.976 31.772 231.352 31.256 231.352 30.404C231.352 29.3 232.396 28.616 233.944 28.616C234.988 28.616 235.828 29.06 236.272 29.696L235.564 30.356C235.168 29.828 234.568 29.564 233.764 29.564C233.044 29.564 232.42 29.84 232.42 30.356C232.42 31.088 233.848 31.22 234.988 31.568C235.756 31.808 236.38 32.384 236.38 33.284C236.38 34.496 235.408 35.108 233.884 35.108C232.6 35.108 231.508 34.532 231.064 33.632L231.868 33.068C232.24 33.728 233.092 34.16 234.052 34.16C234.904 34.16 235.324 33.872 235.324 33.296ZM237.413 37.436L236.729 36.776C237.449 36.14 238.001 35.396 238.373 34.508C238.745 33.632 238.925 32.768 238.925 31.892C238.925 30.008 238.193 28.388 236.729 27.032L237.401 26.324C239.213 27.944 239.957 29.972 239.957 31.892C239.957 32.864 239.753 33.836 239.357 34.82C238.949 35.804 238.301 36.68 237.413 37.436Z" fill="#76848D"/>
<defs>
<linearGradient id="paint0_linear_6003_19096" x1="176" y1="85" x2="176" y2="270" gradientUnits="userSpaceOnUse">
<stop stop-color="#6D73F9"/>
<stop offset="1" stop-color="#9BB8F1"/>
</linearGradient>
<linearGradient id="paint1_linear_6003_19096" x1="176" y1="85" x2="176" y2="270" gradientUnits="userSpaceOnUse">
<stop stop-color="white" stop-opacity="0"/>
<stop offset="0.739583" stop-color="white"/>
</linearGradient>
<linearGradient id="paint2_linear_6003_19096" x1="154" y1="-275.75" x2="154" y2="270" gradientUnits="userSpaceOnUse">
<stop stop-color="white" stop-opacity="0.05"/>
<stop offset="0.75" stop-color="white" stop-opacity="0.8"/>
</linearGradient>
<linearGradient id="paint3_linear_6003_19096" x1="392" y1="120" x2="392" y2="270" gradientUnits="userSpaceOnUse">
<stop stop-color="#6D73F9"/>
<stop offset="1" stop-color="#9BB8F1"/>
</linearGradient>
<linearGradient id="paint4_linear_6003_19096" x1="392" y1="120" x2="392" y2="270" gradientUnits="userSpaceOnUse">
<stop stop-color="white" stop-opacity="0"/>
<stop offset="0.739583" stop-color="white"/>
</linearGradient>
<linearGradient id="paint5_linear_6003_19096" x1="370" y1="-172.5" x2="370" y2="270" gradientUnits="userSpaceOnUse">
<stop stop-color="white" stop-opacity="0.05"/>
<stop offset="0.75" stop-color="white" stop-opacity="0.8"/>
</linearGradient>
<linearGradient id="paint6_linear_6003_19096" x1="96" y1="202" x2="96" y2="270" gradientUnits="userSpaceOnUse">
<stop stop-color="#CDE3E9"/>
<stop offset="1" stop-color="#D3E8ED"/>
</linearGradient>
<linearGradient id="paint7_linear_6003_19096" x1="96" y1="202" x2="96" y2="270" gradientUnits="userSpaceOnUse">
<stop stop-color="white" stop-opacity="0"/>
<stop offset="0.739583" stop-color="white"/>
</linearGradient>
<linearGradient id="paint8_linear_6003_19096" x1="74" y1="69.4" x2="74" y2="270" gradientUnits="userSpaceOnUse">
<stop stop-color="white" stop-opacity="0.05"/>
<stop offset="0.75" stop-color="white" stop-opacity="0.8"/>
</linearGradient>
<linearGradient id="paint9_linear_6003_19096" x1="312" y1="205" x2="312" y2="270" gradientUnits="userSpaceOnUse">
<stop stop-color="#CDE3E9"/>
<stop offset="1" stop-color="#D3E8ED"/>
</linearGradient>
<linearGradient id="paint10_linear_6003_19096" x1="312" y1="205" x2="312" y2="270" gradientUnits="userSpaceOnUse">
<stop stop-color="white" stop-opacity="0"/>
<stop offset="0.739583" stop-color="white"/>
</linearGradient>
<linearGradient id="paint11_linear_6003_19096" x1="290" y1="78.25" x2="290" y2="270" gradientUnits="userSpaceOnUse">
<stop stop-color="white" stop-opacity="0.05"/>
<stop offset="0.75" stop-color="white" stop-opacity="0.8"/>
</linearGradient>
<linearGradient id="paint12_linear_6003_19096" x1="0.476191" y1="12" x2="10" y2="12" gradientUnits="userSpaceOnUse">
<stop stop-color="#CEE8EF"/>
<stop offset="1" stop-color="#CEE8EF"/>
</linearGradient>
</defs>
</svg>
