<svg width="938" height="302" viewBox="0 0 938 302" fill="none" xmlns="http://www.w3.org/2000/svg">
<path d="M745 0C763.942 2.25886e-07 782.592 4.67915 799.29 13.6217C815.989 22.5642 830.22 35.4931 840.719 51.2597C851.218 67.0263 857.66 85.1422 859.472 103.998C861.285 122.853 858.411 141.865 851.107 159.342L838.374 154.021C844.802 138.641 847.331 121.911 845.736 105.318C844.141 88.7251 838.472 72.7831 829.233 58.9085C819.994 45.034 807.47 33.6565 792.775 25.7871C778.081 17.9177 761.669 13.8 745 13.8V0Z" fill="url(#paint0_linear_6001_29421)"/>
<path d="M851.024 159.541C843.806 176.723 832.52 191.894 818.137 203.746C803.755 215.599 786.708 223.779 768.463 227.581C750.218 231.383 731.323 230.695 713.403 225.574C695.483 220.454 679.077 211.055 665.596 198.186L675.124 188.204C686.988 199.528 701.425 207.799 717.195 212.305C732.964 216.811 749.592 217.417 765.648 214.071C781.703 210.725 796.705 203.527 809.361 193.097C822.017 182.666 831.949 169.316 838.301 154.196L851.024 159.541Z" fill="url(#paint1_linear_6001_29421)"/>
<path d="M665.564 198.156C648.939 182.275 637.456 161.775 632.597 139.304C627.739 116.832 629.727 93.4195 638.306 72.089C646.885 50.7585 661.66 32.489 680.725 19.639C699.79 6.78899 722.269 -0.0516052 745.26 0.000289917L745.228 13.8003C724.996 13.7546 705.215 19.7743 688.438 31.0823C671.661 42.3903 658.659 58.4675 651.109 77.2383C643.56 96.0092 641.81 116.612 646.086 136.387C650.362 156.162 660.467 174.202 675.096 188.177L665.564 198.156Z" fill="url(#paint2_linear_6001_29421)"/>
<path d="M294.602 182.366C294.602 180.672 295.022 179.37 295.848 178.446C296.674 177.536 297.71 177.074 298.956 177.074C300.594 177.074 301.882 177.816 302.428 178.992L301.476 179.636C300.902 178.726 300.048 178.278 298.9 178.278C298.032 178.278 297.304 178.614 296.716 179.286C296.128 179.972 295.834 180.896 295.848 182.086C296.394 181.064 297.668 180.448 299.068 180.448C300.202 180.448 301.112 180.742 301.77 181.344C302.428 181.946 302.764 182.744 302.764 183.724C302.764 184.718 302.4 185.544 301.658 186.174C300.916 186.804 299.992 187.126 298.886 187.126C296.24 187.126 294.602 185.404 294.602 182.366ZM296.002 183.556C296.268 184.942 297.318 185.922 298.872 185.922C299.628 185.922 300.258 185.726 300.748 185.32C301.238 184.928 301.476 184.41 301.476 183.78C301.476 182.394 300.496 181.652 298.998 181.652C298.172 181.652 297.486 181.848 296.954 182.24C296.408 182.632 296.1 183.066 296.002 183.556ZM303.773 182.1C303.773 180.588 304.123 179.37 304.837 178.46C305.537 177.55 306.573 177.088 307.931 177.088C310.717 177.088 312.103 178.922 312.103 182.1C312.103 183.626 311.753 184.83 311.067 185.74C310.367 186.65 309.331 187.112 307.959 187.112C306.643 187.112 305.621 186.65 304.879 185.726C304.137 184.802 303.773 183.598 303.773 182.1ZM305.061 182.1C305.061 184.494 306.153 185.922 307.959 185.922C309.863 185.922 310.815 184.648 310.815 182.1C310.815 179.552 309.849 178.278 307.931 178.278C305.985 178.278 305.061 179.678 305.061 182.1ZM313.246 186.202C313.246 185.81 313.61 185.418 314.114 185.418C314.576 185.418 314.954 185.81 314.954 186.202C314.954 186.65 314.604 187.028 314.114 187.028C313.61 187.028 313.246 186.65 313.246 186.202ZM317.078 180.056L316.028 179.58C316.546 178.068 317.904 177.074 319.934 177.074C320.9 177.074 321.698 177.298 322.314 177.746C322.93 178.194 323.238 178.796 323.238 179.538C323.238 180.672 322.636 181.512 321.516 181.834C322.594 181.904 323.462 182.716 323.462 184.172C323.462 185.096 323.126 185.824 322.454 186.342C321.782 186.86 320.928 187.126 319.878 187.126C317.736 187.126 316.252 186.104 315.762 184.494L316.896 184.004C317.498 185.278 318.52 185.922 319.962 185.922C321.32 185.922 322.174 185.292 322.174 184.186C322.174 183.108 321.334 182.562 319.654 182.562H318.562V181.4H319.43C320.956 181.4 321.95 180.714 321.95 179.776C321.95 178.81 321.152 178.264 319.878 178.264C318.38 178.264 317.47 179.034 317.078 180.056ZM327.048 187.21L326.124 186.678L333.362 176.892L334.244 177.536L327.048 187.21ZM324.612 179.552C324.612 178.852 324.85 178.278 325.34 177.83C325.83 177.382 326.432 177.158 327.174 177.158C327.902 177.158 328.504 177.382 328.994 177.83C329.484 178.278 329.722 178.852 329.722 179.552C329.722 180.238 329.484 180.812 328.994 181.26C328.504 181.708 327.902 181.932 327.174 181.932C326.432 181.932 325.83 181.708 325.34 181.26C324.85 180.812 324.612 180.238 324.612 179.552ZM325.788 179.552C325.788 180.35 326.432 180.938 327.174 180.938C327.944 180.938 328.546 180.378 328.546 179.552C328.546 178.726 327.916 178.166 327.174 178.166C326.404 178.166 325.788 178.726 325.788 179.552ZM331.346 186.384C330.856 185.936 330.618 185.362 330.618 184.662C330.618 183.962 330.856 183.388 331.346 182.94C331.836 182.506 332.438 182.282 333.18 182.282C333.908 182.282 334.51 182.506 335 182.94C335.49 183.388 335.728 183.962 335.728 184.662C335.728 185.348 335.49 185.922 335 186.37C334.51 186.832 333.908 187.056 333.18 187.056C332.438 187.056 331.836 186.832 331.346 186.384ZM331.794 184.662C331.794 185.46 332.438 186.048 333.18 186.048C333.95 186.048 334.552 185.488 334.552 184.662C334.552 183.836 333.922 183.276 333.18 183.276C332.41 183.276 331.794 183.836 331.794 184.662ZM301.364 207H300.146V204.998H294.154V204.186L300.286 197.2H301.364V203.864H303.184V204.998H301.364V207ZM300.146 199.16L295.834 203.864H300.146V199.16ZM303.756 199.804L303.308 198.754L306.668 197.144H307.466V207H306.262V198.642L303.756 199.804ZM309.252 202.1C309.252 200.588 309.602 199.37 310.316 198.46C311.016 197.55 312.052 197.088 313.41 197.088C316.196 197.088 317.582 198.922 317.582 202.1C317.582 203.626 317.232 204.83 316.546 205.74C315.846 206.65 314.81 207.112 313.438 207.112C312.122 207.112 311.1 206.65 310.358 205.726C309.616 204.802 309.252 203.598 309.252 202.1ZM310.54 202.1C310.54 204.494 311.632 205.922 313.438 205.922C315.342 205.922 316.294 204.648 316.294 202.1C316.294 199.552 315.328 198.278 313.41 198.278C311.464 198.278 310.54 199.678 310.54 202.1ZM319.565 207C319.047 207.056 318.655 206.762 318.655 206.258C318.655 205.768 318.963 205.46 319.509 205.46C320.125 205.46 320.531 205.88 320.531 206.664C320.531 208.064 319.761 208.778 318.739 209.016L318.445 208.358C318.753 208.274 319.033 208.106 319.285 207.84C319.523 207.574 319.621 207.294 319.565 207ZM321.55 202.366C321.55 200.672 321.97 199.37 322.796 198.446C323.622 197.536 324.658 197.074 325.904 197.074C327.542 197.074 328.83 197.816 329.376 198.992L328.424 199.636C327.85 198.726 326.996 198.278 325.848 198.278C324.98 198.278 324.252 198.614 323.664 199.286C323.076 199.972 322.782 200.896 322.796 202.086C323.342 201.064 324.616 200.448 326.016 200.448C327.15 200.448 328.06 200.742 328.718 201.344C329.376 201.946 329.712 202.744 329.712 203.724C329.712 204.718 329.348 205.544 328.606 206.174C327.864 206.804 326.94 207.126 325.834 207.126C323.188 207.126 321.55 205.404 321.55 202.366ZM322.95 203.556C323.216 204.942 324.266 205.922 325.82 205.922C326.576 205.922 327.206 205.726 327.696 205.32C328.186 204.928 328.424 204.41 328.424 203.78C328.424 202.394 327.444 201.652 325.946 201.652C325.12 201.652 324.434 201.848 323.902 202.24C323.356 202.632 323.048 203.066 322.95 203.556ZM331.686 200.056L330.636 199.58C331.154 198.068 332.512 197.074 334.542 197.074C335.508 197.074 336.306 197.298 336.922 197.746C337.538 198.194 337.846 198.796 337.846 199.538C337.846 200.672 337.244 201.512 336.124 201.834C337.202 201.904 338.07 202.716 338.07 204.172C338.07 205.096 337.734 205.824 337.062 206.342C336.39 206.86 335.536 207.126 334.486 207.126C332.344 207.126 330.86 206.104 330.37 204.494L331.504 204.004C332.106 205.278 333.128 205.922 334.57 205.922C335.928 205.922 336.782 205.292 336.782 204.186C336.782 203.108 335.942 202.562 334.262 202.562H333.17V201.4H334.038C335.564 201.4 336.558 200.714 336.558 199.776C336.558 198.81 335.76 198.264 334.486 198.264C332.988 198.264 332.078 199.034 331.686 200.056ZM343.085 201.414H343.519C344.149 201.414 344.667 201.26 345.101 200.966C345.521 200.672 345.731 200.28 345.731 199.818C345.731 198.768 344.905 198.236 343.267 198.236C341.699 198.236 340.845 198.81 340.845 199.818C340.845 200.728 341.783 201.414 343.085 201.414ZM343.491 202.52H343.141C342.385 202.52 341.755 202.688 341.265 203.01C340.775 203.332 340.523 203.738 340.523 204.228C340.523 205.292 341.503 205.964 343.281 205.964C345.087 205.964 346.053 205.32 346.053 204.242C346.053 203.164 345.017 202.52 343.491 202.52ZM346.249 206.37C345.535 206.874 344.541 207.126 343.295 207.126C342.049 207.126 341.055 206.874 340.327 206.384C339.599 205.894 339.235 205.222 339.235 204.354C339.235 203.22 339.977 202.324 341.167 201.932C340.089 201.582 339.557 200.728 339.557 199.734C339.557 198.11 340.929 197.074 343.281 197.074C345.647 197.074 347.019 198.11 347.019 199.734C347.019 200.672 346.501 201.386 345.465 201.862C346.711 202.24 347.327 203.052 347.327 204.298C347.327 205.18 346.963 205.88 346.249 206.37Z" fill="#1A3341"/>
<path d="M296.952 219.62H294.036V218.6H300.972V219.62H298.044V227H296.952V219.62ZM301.163 227H300.155V220.76H301.163V221.24C301.367 220.82 301.907 220.628 302.447 220.628C302.999 220.628 303.419 220.82 303.719 221.192L303.083 221.888C302.927 221.684 302.687 221.576 302.339 221.576C301.799 221.576 301.307 222.02 301.163 222.656V227ZM304.617 222.26L304.101 221.504C304.677 220.964 305.673 220.616 306.597 220.616C308.265 220.616 309.153 221.528 309.153 223.148V227H308.145V226.076C307.749 226.652 306.969 227.084 305.961 227.084C304.605 227.084 303.693 226.328 303.693 225.176C303.693 223.868 304.809 223.244 306.681 223.244C307.269 223.244 307.749 223.304 308.145 223.424C308.145 222.212 307.713 221.564 306.477 221.564C305.853 221.564 305.229 221.792 304.617 222.26ZM306.201 226.172C306.669 226.172 307.089 226.04 307.437 225.788C307.785 225.536 308.013 225.248 308.145 224.948V224.312C307.797 224.192 307.353 224.132 306.813 224.132C305.445 224.132 304.761 224.468 304.761 225.14C304.761 225.776 305.337 226.172 306.201 226.172ZM311.435 227H310.427V220.76H311.435V221.576C311.831 220.964 312.647 220.628 313.571 220.628C315.263 220.628 316.103 221.564 316.103 223.448V227H315.095V223.568C315.095 222.188 314.507 221.576 313.271 221.576C312.503 221.576 311.771 222.08 311.435 222.836V227ZM321.201 225.296C321.201 224.456 319.773 224.324 318.633 224C317.853 223.772 317.229 223.256 317.229 222.404C317.229 221.3 318.273 220.616 319.821 220.616C320.865 220.616 321.705 221.06 322.149 221.696L321.441 222.356C321.045 221.828 320.445 221.564 319.641 221.564C318.921 221.564 318.297 221.84 318.297 222.356C318.297 223.088 319.725 223.22 320.865 223.568C321.633 223.808 322.257 224.384 322.257 225.284C322.257 226.496 321.285 227.108 319.761 227.108C318.477 227.108 317.385 226.532 316.941 225.632L317.745 225.068C318.117 225.728 318.969 226.16 319.929 226.16C320.781 226.16 321.201 225.872 321.201 225.296ZM324.358 227H323.35V220.76H324.358V227ZM323.218 218.732C323.218 218.396 323.494 218.144 323.866 218.144C324.202 218.144 324.49 218.396 324.49 218.732C324.49 219.08 324.202 219.356 323.866 219.356C323.494 219.356 323.218 219.08 323.218 218.732ZM326.464 221.72H325.168V220.76H326.464V219.164H327.472V220.76H329.62V221.72H327.472V224.468C327.472 225.68 327.784 226.124 328.552 226.124C328.924 226.124 329.308 225.98 329.68 225.68L330.136 226.424C329.74 226.868 329.152 227.084 328.372 227.084C327.136 227.084 326.464 226.268 326.464 224.732V221.72Z" fill="#76848D"/>
<path d="M867.568 16.056L866.518 15.58C867.036 14.068 868.394 13.074 870.424 13.074C871.39 13.074 872.188 13.298 872.804 13.746C873.42 14.194 873.728 14.796 873.728 15.538C873.728 16.672 873.126 17.512 872.006 17.834C873.084 17.904 873.952 18.716 873.952 20.172C873.952 21.096 873.616 21.824 872.944 22.342C872.272 22.86 871.418 23.126 870.368 23.126C868.226 23.126 866.742 22.104 866.252 20.494L867.386 20.004C867.988 21.278 869.01 21.922 870.452 21.922C871.81 21.922 872.664 21.292 872.664 20.186C872.664 19.108 871.824 18.562 870.144 18.562H869.052V17.4H869.92C871.446 17.4 872.44 16.714 872.44 15.776C872.44 14.81 871.642 14.264 870.368 14.264C868.87 14.264 867.96 15.034 867.568 16.056ZM874.991 15.804L874.543 14.754L877.903 13.144H878.701V23H877.497V14.642L874.991 15.804ZM880.584 22.202C880.584 21.81 880.948 21.418 881.452 21.418C881.914 21.418 882.292 21.81 882.292 22.202C882.292 22.65 881.942 23.028 881.452 23.028C880.948 23.028 880.584 22.65 880.584 22.202ZM884.416 16.056L883.366 15.58C883.884 14.068 885.242 13.074 887.272 13.074C888.238 13.074 889.036 13.298 889.652 13.746C890.268 14.194 890.576 14.796 890.576 15.538C890.576 16.672 889.974 17.512 888.854 17.834C889.932 17.904 890.8 18.716 890.8 20.172C890.8 21.096 890.464 21.824 889.792 22.342C889.12 22.86 888.266 23.126 887.216 23.126C885.074 23.126 883.59 22.104 883.1 20.494L884.234 20.004C884.836 21.278 885.858 21.922 887.3 21.922C888.658 21.922 889.512 21.292 889.512 20.186C889.512 19.108 888.672 18.562 886.992 18.562H885.9V17.4H886.768C888.294 17.4 889.288 16.714 889.288 15.776C889.288 14.81 888.49 14.264 887.216 14.264C885.718 14.264 884.808 15.034 884.416 16.056ZM894.386 23.21L893.462 22.678L900.7 12.892L901.582 13.536L894.386 23.21ZM891.95 15.552C891.95 14.852 892.188 14.278 892.678 13.83C893.168 13.382 893.77 13.158 894.512 13.158C895.24 13.158 895.842 13.382 896.332 13.83C896.822 14.278 897.06 14.852 897.06 15.552C897.06 16.238 896.822 16.812 896.332 17.26C895.842 17.708 895.24 17.932 894.512 17.932C893.77 17.932 893.168 17.708 892.678 17.26C892.188 16.812 891.95 16.238 891.95 15.552ZM893.126 15.552C893.126 16.35 893.77 16.938 894.512 16.938C895.282 16.938 895.884 16.378 895.884 15.552C895.884 14.726 895.254 14.166 894.512 14.166C893.742 14.166 893.126 14.726 893.126 15.552ZM898.684 22.384C898.194 21.936 897.956 21.362 897.956 20.662C897.956 19.962 898.194 19.388 898.684 18.94C899.174 18.506 899.776 18.282 900.518 18.282C901.246 18.282 901.848 18.506 902.338 18.94C902.828 19.388 903.066 19.962 903.066 20.662C903.066 21.348 902.828 21.922 902.338 22.37C901.848 22.832 901.246 23.056 900.518 23.056C899.776 23.056 899.174 22.832 898.684 22.384ZM899.132 20.662C899.132 21.46 899.776 22.048 900.518 22.048C901.288 22.048 901.89 21.488 901.89 20.662C901.89 19.836 901.26 19.276 900.518 19.276C899.748 19.276 899.132 19.836 899.132 20.662ZM867.722 36.434L866.7 36.07C867.05 34.334 868.366 33.088 870.452 33.088C872.468 33.088 873.7 34.25 873.7 36.028C873.7 36.966 873.294 37.904 872.79 38.576C872.538 38.926 872.216 39.262 871.838 39.612C871.068 40.298 870.522 40.662 869.724 41.166L868.646 41.838H874.064V43H866.434V42.048L868.562 40.634C868.94 40.396 869.206 40.214 869.36 40.102C869.514 40.004 869.766 39.822 870.102 39.584C870.438 39.346 870.69 39.136 870.858 38.982C871.012 38.828 871.222 38.632 871.46 38.38C872.104 37.68 872.342 37.036 872.412 36.154C872.412 34.88 871.586 34.306 870.368 34.306C869.612 34.306 869.01 34.516 868.576 34.936C868.142 35.356 867.848 35.86 867.722 36.434ZM874.922 35.804L874.474 34.754L877.834 33.144H878.632V43H877.428V34.642L874.922 35.804ZM880.306 35.804L879.858 34.754L883.218 33.144H884.016V43H882.812V34.642L880.306 35.804ZM886.739 43C886.221 43.056 885.829 42.762 885.829 42.258C885.829 41.768 886.137 41.46 886.683 41.46C887.299 41.46 887.705 41.88 887.705 42.664C887.705 44.064 886.935 44.778 885.913 45.016L885.619 44.358C885.927 44.274 886.207 44.106 886.459 43.84C886.697 43.574 886.795 43.294 886.739 43ZM888.612 35.804L888.164 34.754L891.524 33.144H892.322V43H891.118V34.642L888.612 35.804ZM895.227 36.434L894.205 36.07C894.555 34.334 895.871 33.088 897.957 33.088C899.973 33.088 901.205 34.25 901.205 36.028C901.205 36.966 900.799 37.904 900.295 38.576C900.043 38.926 899.721 39.262 899.343 39.612C898.573 40.298 898.027 40.662 897.229 41.166L896.151 41.838H901.569V43H893.939V42.048L896.067 40.634C896.445 40.396 896.711 40.214 896.865 40.102C897.019 40.004 897.271 39.822 897.607 39.584C897.943 39.346 898.195 39.136 898.363 38.982C898.517 38.828 898.727 38.632 898.965 38.38C899.609 37.68 899.847 37.036 899.917 36.154C899.917 34.88 899.091 34.306 897.873 34.306C897.117 34.306 896.515 34.516 896.081 34.936C895.647 35.356 895.353 35.86 895.227 36.434ZM903.659 36.434L902.637 36.07C902.987 34.334 904.303 33.088 906.389 33.088C908.405 33.088 909.637 34.25 909.637 36.028C909.637 36.966 909.231 37.904 908.727 38.576C908.475 38.926 908.153 39.262 907.775 39.612C907.005 40.298 906.459 40.662 905.661 41.166L904.583 41.838H910.001V43H902.371V42.048L904.499 40.634C904.877 40.396 905.143 40.214 905.297 40.102C905.451 40.004 905.703 39.822 906.039 39.584C906.375 39.346 906.627 39.136 906.795 38.982C906.949 38.828 907.159 38.632 907.397 38.38C908.041 37.68 908.279 37.036 908.349 36.154C908.349 34.88 907.523 34.306 906.305 34.306C905.549 34.306 904.947 34.516 904.513 34.936C904.079 35.356 903.785 35.86 903.659 36.434Z" fill="#1A3341"/>
<path d="M868.952 55.62H866.036V54.6H872.972V55.62H870.044V63H868.952V55.62ZM873.163 63H872.155V56.76H873.163V57.24C873.367 56.82 873.907 56.628 874.447 56.628C874.999 56.628 875.419 56.82 875.719 57.192L875.083 57.888C874.927 57.684 874.687 57.576 874.339 57.576C873.799 57.576 873.307 58.02 873.163 58.656V63ZM876.617 58.26L876.101 57.504C876.677 56.964 877.673 56.616 878.597 56.616C880.265 56.616 881.153 57.528 881.153 59.148V63H880.145V62.076C879.749 62.652 878.969 63.084 877.961 63.084C876.605 63.084 875.693 62.328 875.693 61.176C875.693 59.868 876.809 59.244 878.681 59.244C879.269 59.244 879.749 59.304 880.145 59.424C880.145 58.212 879.713 57.564 878.477 57.564C877.853 57.564 877.229 57.792 876.617 58.26ZM878.201 62.172C878.669 62.172 879.089 62.04 879.437 61.788C879.785 61.536 880.013 61.248 880.145 60.948V60.312C879.797 60.192 879.353 60.132 878.813 60.132C877.445 60.132 876.761 60.468 876.761 61.14C876.761 61.776 877.337 62.172 878.201 62.172ZM883.435 63H882.427V56.76H883.435V57.576C883.831 56.964 884.647 56.628 885.571 56.628C887.263 56.628 888.103 57.564 888.103 59.448V63H887.095V59.568C887.095 58.188 886.507 57.576 885.271 57.576C884.503 57.576 883.771 58.08 883.435 58.836V63ZM893.201 61.296C893.201 60.456 891.773 60.324 890.633 60C889.853 59.772 889.229 59.256 889.229 58.404C889.229 57.3 890.273 56.616 891.821 56.616C892.865 56.616 893.705 57.06 894.149 57.696L893.441 58.356C893.045 57.828 892.445 57.564 891.641 57.564C890.921 57.564 890.297 57.84 890.297 58.356C890.297 59.088 891.725 59.22 892.865 59.568C893.633 59.808 894.257 60.384 894.257 61.284C894.257 62.496 893.285 63.108 891.761 63.108C890.477 63.108 889.385 62.532 888.941 61.632L889.745 61.068C890.117 61.728 890.969 62.16 891.929 62.16C892.781 62.16 893.201 61.872 893.201 61.296ZM896.358 63H895.35V56.76H896.358V63ZM895.218 54.732C895.218 54.396 895.494 54.144 895.866 54.144C896.202 54.144 896.49 54.396 896.49 54.732C896.49 55.08 896.202 55.356 895.866 55.356C895.494 55.356 895.218 55.08 895.218 54.732ZM898.464 57.72H897.168V56.76H898.464V55.164H899.472V56.76H901.62V57.72H899.472V60.468C899.472 61.68 899.784 62.124 900.552 62.124C900.924 62.124 901.308 61.98 901.68 61.68L902.136 62.424C901.74 62.868 901.152 63.084 900.372 63.084C899.136 63.084 898.464 62.268 898.464 60.732V57.72Z" fill="#76848D"/>
<path d="M10.9621 151.804L10.5141 150.754L13.8741 149.144H14.6721V159H13.4681V150.642L10.9621 151.804ZM17.8855 154.492L16.8775 154.226L17.4515 149.2H23.6115V150.39H18.5295L18.1655 153.022C18.6555 152.658 19.3975 152.476 20.3915 152.476C21.5395 152.476 22.4355 152.784 23.0935 153.386C23.7375 154.002 24.0595 154.786 24.0595 155.752C24.0595 156.718 23.6955 157.53 22.9815 158.16C22.2535 158.804 21.3435 159.126 20.2655 159.126C18.4315 159.126 16.9055 158.258 16.2755 156.732L17.3955 156.256C17.8015 157.194 18.8515 157.936 20.2655 157.936C21.8755 157.936 22.7715 157.012 22.7715 155.794C22.7715 154.492 21.7215 153.652 20.0555 153.652C19.1595 153.652 18.4315 153.932 17.8855 154.492ZM25.2202 158.202C25.2202 157.81 25.5842 157.418 26.0882 157.418C26.5502 157.418 26.9282 157.81 26.9282 158.202C26.9282 158.65 26.5782 159.028 26.0882 159.028C25.5842 159.028 25.2202 158.65 25.2202 158.202ZM31.9498 153.414H32.3838C33.0138 153.414 33.5318 153.26 33.9658 152.966C34.3858 152.672 34.5958 152.28 34.5958 151.818C34.5958 150.768 33.7698 150.236 32.1318 150.236C30.5638 150.236 29.7098 150.81 29.7098 151.818C29.7098 152.728 30.6478 153.414 31.9498 153.414ZM32.3558 154.52H32.0058C31.2498 154.52 30.6198 154.688 30.1298 155.01C29.6398 155.332 29.3878 155.738 29.3878 156.228C29.3878 157.292 30.3678 157.964 32.1458 157.964C33.9518 157.964 34.9178 157.32 34.9178 156.242C34.9178 155.164 33.8818 154.52 32.3558 154.52ZM35.1138 158.37C34.3998 158.874 33.4058 159.126 32.1598 159.126C30.9138 159.126 29.9198 158.874 29.1918 158.384C28.4638 157.894 28.0998 157.222 28.0998 156.354C28.0998 155.22 28.8418 154.324 30.0318 153.932C28.9538 153.582 28.4218 152.728 28.4218 151.734C28.4218 150.11 29.7938 149.074 32.1458 149.074C34.5118 149.074 35.8838 150.11 35.8838 151.734C35.8838 152.672 35.3658 153.386 34.3298 153.862C35.5758 154.24 36.1918 155.052 36.1918 156.298C36.1918 157.18 35.8278 157.88 35.1138 158.37ZM39.7196 159.21L38.7956 158.678L46.0336 148.892L46.9156 149.536L39.7196 159.21ZM37.2836 151.552C37.2836 150.852 37.5216 150.278 38.0116 149.83C38.5016 149.382 39.1036 149.158 39.8456 149.158C40.5736 149.158 41.1756 149.382 41.6656 149.83C42.1556 150.278 42.3936 150.852 42.3936 151.552C42.3936 152.238 42.1556 152.812 41.6656 153.26C41.1756 153.708 40.5736 153.932 39.8456 153.932C39.1036 153.932 38.5016 153.708 38.0116 153.26C37.5216 152.812 37.2836 152.238 37.2836 151.552ZM38.4596 151.552C38.4596 152.35 39.1036 152.938 39.8456 152.938C40.6156 152.938 41.2176 152.378 41.2176 151.552C41.2176 150.726 40.5876 150.166 39.8456 150.166C39.0756 150.166 38.4596 150.726 38.4596 151.552ZM44.0176 158.384C43.5276 157.936 43.2896 157.362 43.2896 156.662C43.2896 155.962 43.5276 155.388 44.0176 154.94C44.5076 154.506 45.1096 154.282 45.8516 154.282C46.5796 154.282 47.1816 154.506 47.6716 154.94C48.1616 155.388 48.3996 155.962 48.3996 156.662C48.3996 157.348 48.1616 157.922 47.6716 158.37C47.1816 158.832 46.5796 159.056 45.8516 159.056C45.1096 159.056 44.5076 158.832 44.0176 158.384ZM44.4656 156.662C44.4656 157.46 45.1096 158.048 45.8516 158.048C46.6216 158.048 47.2236 157.488 47.2236 156.662C47.2236 155.836 46.5936 155.276 45.8516 155.276C45.0816 155.276 44.4656 155.836 44.4656 156.662ZM0.701094 171.804L0.253094 170.754L3.61309 169.144H4.41109V179H3.20709V170.642L0.701094 171.804ZM6.19653 174.1C6.19653 172.588 6.54653 171.37 7.26053 170.46C7.96053 169.55 8.99653 169.088 10.3545 169.088C13.1405 169.088 14.5265 170.922 14.5265 174.1C14.5265 175.626 14.1765 176.83 13.4905 177.74C12.7905 178.65 11.7545 179.112 10.3825 179.112C9.06653 179.112 8.04453 178.65 7.30253 177.726C6.56053 176.802 6.19653 175.598 6.19653 174.1ZM7.48453 174.1C7.48453 176.494 8.57653 177.922 10.3825 177.922C12.2865 177.922 13.2385 176.648 13.2385 174.1C13.2385 171.552 12.2725 170.278 10.3545 170.278C8.40853 170.278 7.48453 171.678 7.48453 174.1ZM21.1862 170.39H15.2502V169.2H22.6842V169.998L17.8122 179H16.4822L21.1862 170.39ZM23.5205 179C23.0025 179.056 22.6105 178.762 22.6105 178.258C22.6105 177.768 22.9185 177.46 23.4645 177.46C24.0805 177.46 24.4865 177.88 24.4865 178.664C24.4865 180.064 23.7165 180.778 22.6945 181.016L22.4005 180.358C22.7085 180.274 22.9885 180.106 23.2405 179.84C23.4785 179.574 23.5765 179.294 23.5205 179ZM33.653 173.918C33.653 175.584 33.261 176.872 32.463 177.768C31.665 178.678 30.601 179.126 29.271 179.126C27.647 179.126 26.373 178.44 25.743 177.39L26.751 176.69C27.311 177.474 28.333 177.922 29.439 177.922C30.349 177.922 31.077 177.558 31.651 176.83C32.225 176.116 32.463 175.22 32.393 174.156C31.931 175.22 30.769 176.004 29.215 176.004C28.123 176.004 27.227 175.696 26.527 175.066C25.813 174.45 25.463 173.638 25.463 172.644C25.463 171.552 25.841 170.684 26.597 170.04C27.353 169.396 28.361 169.074 29.607 169.074C32.127 169.074 33.653 170.838 33.653 173.918ZM32.183 172.602C31.973 171.3 31.077 170.278 29.467 170.278C27.787 170.278 26.751 171.146 26.751 172.602C26.751 173.988 27.801 174.8 29.439 174.8C30.181 174.8 30.811 174.576 31.301 174.128C31.791 173.68 32.085 173.176 32.183 172.602ZM34.7029 174.1C34.7029 172.588 35.0529 171.37 35.7669 170.46C36.4669 169.55 37.5029 169.088 38.8609 169.088C41.6469 169.088 43.0329 170.922 43.0329 174.1C43.0329 175.626 42.6829 176.83 41.9969 177.74C41.2969 178.65 40.2609 179.112 38.8889 179.112C37.5729 179.112 36.5509 178.65 35.8089 177.726C35.0669 176.802 34.7029 175.598 34.7029 174.1ZM35.9909 174.1C35.9909 176.494 37.0829 177.922 38.8889 177.922C40.7929 177.922 41.7449 176.648 41.7449 174.1C41.7449 171.552 40.7789 170.278 38.8609 170.278C36.9149 170.278 35.9909 171.678 35.9909 174.1ZM43.9666 171.804L43.5186 170.754L46.8786 169.144H47.6766V179H46.4726V170.642L43.9666 171.804Z" fill="#1A3341"/>
<path d="M12.7015 199H6.5455V190.6H12.5935V191.62H7.6375V194.236H12.2575V195.232H7.6375V197.98H12.7015V199ZM18.2181 192.76H19.4421L17.0541 195.772L19.5621 199H18.3021L16.3701 196.492L14.4141 199H13.2141L15.7101 195.784L13.3461 192.76H14.6061L16.4061 195.052L18.2181 192.76ZM21.22 201.4H20.212V192.76H21.22V193.54C21.64 192.928 22.312 192.616 23.236 192.616C24.148 192.616 24.88 192.904 25.42 193.492C25.96 194.08 26.224 194.836 26.224 195.772C26.224 196.732 25.936 197.524 25.36 198.16C24.772 198.796 24.028 199.108 23.116 199.108C22.276 199.108 21.64 198.892 21.22 198.472V201.4ZM23.128 193.564C22.216 193.564 21.508 194.152 21.22 194.86V197.188C21.58 197.836 22.18 198.16 23.032 198.16C23.644 198.16 24.16 197.944 24.556 197.512C24.952 197.08 25.156 196.528 25.156 195.844C25.156 194.452 24.376 193.564 23.128 193.564ZM26.869 195.868C26.869 194.92 27.181 194.14 27.793 193.528C28.405 192.916 29.197 192.616 30.169 192.616C31.153 192.616 31.957 192.916 32.569 193.528C33.181 194.14 33.493 194.92 33.493 195.868C33.493 196.816 33.181 197.584 32.569 198.196C31.945 198.808 31.141 199.108 30.169 199.108C29.197 199.108 28.405 198.808 27.793 198.196C27.181 197.584 26.869 196.816 26.869 195.868ZM27.937 195.868C27.937 196.528 28.141 197.08 28.561 197.512C28.981 197.944 29.509 198.16 30.169 198.16C30.829 198.16 31.381 197.944 31.801 197.524C32.221 197.104 32.425 196.552 32.425 195.868C32.425 195.184 32.209 194.632 31.789 194.2C31.357 193.78 30.817 193.564 30.169 193.564C29.521 193.564 28.993 193.78 28.573 194.2C28.153 194.62 27.937 195.184 27.937 195.868ZM35.4995 199H34.4915V192.76H35.4995V193.24C35.7035 192.82 36.2435 192.628 36.7835 192.628C37.3355 192.628 37.7555 192.82 38.0555 193.192L37.4195 193.888C37.2635 193.684 37.0235 193.576 36.6755 193.576C36.1355 193.576 35.6435 194.02 35.4995 194.656V199ZM39.4841 193.72H38.1881V192.76H39.4841V191.164H40.4921V192.76H42.6401V193.72H40.4921V196.468C40.4921 197.68 40.8041 198.124 41.5721 198.124C41.9441 198.124 42.3281 197.98 42.7001 197.68L43.1561 198.424C42.7601 198.868 42.1721 199.084 41.3921 199.084C40.1561 199.084 39.4841 198.268 39.4841 196.732V193.72ZM47.5952 197.296C47.5952 196.456 46.1672 196.324 45.0272 196C44.2472 195.772 43.6232 195.256 43.6232 194.404C43.6232 193.3 44.6672 192.616 46.2152 192.616C47.2592 192.616 48.0992 193.06 48.5432 193.696L47.8352 194.356C47.4392 193.828 46.8392 193.564 46.0352 193.564C45.3152 193.564 44.6912 193.84 44.6912 194.356C44.6912 195.088 46.1192 195.22 47.2592 195.568C48.0272 195.808 48.6512 196.384 48.6512 197.284C48.6512 198.496 47.6792 199.108 46.1552 199.108C44.8712 199.108 43.7792 198.532 43.3352 197.632L44.1392 197.068C44.5112 197.728 45.3632 198.16 46.3232 198.16C47.1752 198.16 47.5952 197.872 47.5952 197.296Z" fill="#76848D"/>
<path d="M785.568 248.056L784.518 247.58C785.036 246.068 786.394 245.074 788.424 245.074C789.39 245.074 790.188 245.298 790.804 245.746C791.42 246.194 791.728 246.796 791.728 247.538C791.728 248.672 791.126 249.512 790.006 249.834C791.084 249.904 791.952 250.716 791.952 252.172C791.952 253.096 791.616 253.824 790.944 254.342C790.272 254.86 789.418 255.126 788.368 255.126C786.226 255.126 784.742 254.104 784.252 252.494L785.386 252.004C785.988 253.278 787.01 253.922 788.452 253.922C789.81 253.922 790.664 253.292 790.664 252.186C790.664 251.108 789.824 250.562 788.144 250.562H787.052V249.4H787.92C789.446 249.4 790.44 248.714 790.44 247.776C790.44 246.81 789.642 246.264 788.368 246.264C786.87 246.264 785.96 247.034 785.568 248.056ZM793.103 250.1C793.103 248.588 793.453 247.37 794.167 246.46C794.867 245.55 795.903 245.088 797.261 245.088C800.047 245.088 801.433 246.922 801.433 250.1C801.433 251.626 801.083 252.83 800.397 253.74C799.697 254.65 798.661 255.112 797.289 255.112C795.973 255.112 794.951 254.65 794.209 253.726C793.467 252.802 793.103 251.598 793.103 250.1ZM794.391 250.1C794.391 252.494 795.483 253.922 797.289 253.922C799.193 253.922 800.145 252.648 800.145 250.1C800.145 247.552 799.179 246.278 797.261 246.278C795.315 246.278 794.391 247.678 794.391 250.1ZM802.576 254.202C802.576 253.81 802.94 253.418 803.444 253.418C803.906 253.418 804.284 253.81 804.284 254.202C804.284 254.65 803.934 255.028 803.444 255.028C802.94 255.028 802.576 254.65 802.576 254.202ZM809.306 249.414H809.74C810.37 249.414 810.888 249.26 811.322 248.966C811.742 248.672 811.952 248.28 811.952 247.818C811.952 246.768 811.126 246.236 809.488 246.236C807.92 246.236 807.066 246.81 807.066 247.818C807.066 248.728 808.004 249.414 809.306 249.414ZM809.712 250.52H809.362C808.606 250.52 807.976 250.688 807.486 251.01C806.996 251.332 806.744 251.738 806.744 252.228C806.744 253.292 807.724 253.964 809.502 253.964C811.308 253.964 812.274 253.32 812.274 252.242C812.274 251.164 811.238 250.52 809.712 250.52ZM812.47 254.37C811.756 254.874 810.762 255.126 809.516 255.126C808.27 255.126 807.276 254.874 806.548 254.384C805.82 253.894 805.456 253.222 805.456 252.354C805.456 251.22 806.198 250.324 807.388 249.932C806.31 249.582 805.778 248.728 805.778 247.734C805.778 246.11 807.15 245.074 809.502 245.074C811.868 245.074 813.24 246.11 813.24 247.734C813.24 248.672 812.722 249.386 811.686 249.862C812.932 250.24 813.548 251.052 813.548 252.298C813.548 253.18 813.184 253.88 812.47 254.37ZM817.076 255.21L816.152 254.678L823.39 244.892L824.272 245.536L817.076 255.21ZM814.64 247.552C814.64 246.852 814.878 246.278 815.368 245.83C815.858 245.382 816.46 245.158 817.202 245.158C817.93 245.158 818.532 245.382 819.022 245.83C819.512 246.278 819.75 246.852 819.75 247.552C819.75 248.238 819.512 248.812 819.022 249.26C818.532 249.708 817.93 249.932 817.202 249.932C816.46 249.932 815.858 249.708 815.368 249.26C814.878 248.812 814.64 248.238 814.64 247.552ZM815.816 247.552C815.816 248.35 816.46 248.938 817.202 248.938C817.972 248.938 818.574 248.378 818.574 247.552C818.574 246.726 817.944 246.166 817.202 246.166C816.432 246.166 815.816 246.726 815.816 247.552ZM821.374 254.384C820.884 253.936 820.646 253.362 820.646 252.662C820.646 251.962 820.884 251.388 821.374 250.94C821.864 250.506 822.466 250.282 823.208 250.282C823.936 250.282 824.538 250.506 825.028 250.94C825.518 251.388 825.756 251.962 825.756 252.662C825.756 253.348 825.518 253.922 825.028 254.37C824.538 254.832 823.936 255.056 823.208 255.056C822.466 255.056 821.864 254.832 821.374 254.384ZM821.822 252.662C821.822 253.46 822.466 254.048 823.208 254.048C823.978 254.048 824.58 253.488 824.58 252.662C824.58 251.836 823.95 251.276 823.208 251.276C822.438 251.276 821.822 251.836 821.822 252.662ZM785.722 268.434L784.7 268.07C785.05 266.334 786.366 265.088 788.452 265.088C790.468 265.088 791.7 266.25 791.7 268.028C791.7 268.966 791.294 269.904 790.79 270.576C790.538 270.926 790.216 271.262 789.838 271.612C789.068 272.298 788.522 272.662 787.724 273.166L786.646 273.838H792.064V275H784.434V274.048L786.562 272.634C786.94 272.396 787.206 272.214 787.36 272.102C787.514 272.004 787.766 271.822 788.102 271.584C788.438 271.346 788.69 271.136 788.858 270.982C789.012 270.828 789.222 270.632 789.46 270.38C790.104 269.68 790.342 269.036 790.412 268.154C790.412 266.88 789.586 266.306 788.368 266.306C787.612 266.306 787.01 266.516 786.576 266.936C786.142 267.356 785.848 267.86 785.722 268.434ZM793.034 270.1C793.034 268.588 793.384 267.37 794.098 266.46C794.798 265.55 795.834 265.088 797.192 265.088C799.978 265.088 801.364 266.922 801.364 270.1C801.364 271.626 801.014 272.83 800.328 273.74C799.628 274.65 798.592 275.112 797.22 275.112C795.904 275.112 794.882 274.65 794.14 273.726C793.398 272.802 793.034 271.598 793.034 270.1ZM794.322 270.1C794.322 272.494 795.414 273.922 797.22 273.922C799.124 273.922 800.076 272.648 800.076 270.1C800.076 267.552 799.11 266.278 797.192 266.278C795.246 266.278 794.322 267.678 794.322 270.1ZM808.024 266.39H802.088V265.2H809.522V265.998L804.65 275H803.32L808.024 266.39ZM810.358 275C809.84 275.056 809.448 274.762 809.448 274.258C809.448 273.768 809.756 273.46 810.302 273.46C810.918 273.46 811.324 273.88 811.324 274.664C811.324 276.064 810.554 276.778 809.532 277.016L809.238 276.358C809.546 276.274 809.826 276.106 810.078 275.84C810.316 275.574 810.414 275.294 810.358 275ZM817.957 266.39H812.021V265.2H819.455V265.998L814.583 275H813.253L817.957 266.39ZM820.201 270.366C820.201 268.672 820.621 267.37 821.447 266.446C822.273 265.536 823.309 265.074 824.555 265.074C826.193 265.074 827.481 265.816 828.027 266.992L827.075 267.636C826.501 266.726 825.647 266.278 824.499 266.278C823.631 266.278 822.903 266.614 822.315 267.286C821.727 267.972 821.433 268.896 821.447 270.086C821.993 269.064 823.267 268.448 824.667 268.448C825.801 268.448 826.711 268.742 827.369 269.344C828.027 269.946 828.363 270.744 828.363 271.724C828.363 272.718 827.999 273.544 827.257 274.174C826.515 274.804 825.591 275.126 824.485 275.126C821.839 275.126 820.201 273.404 820.201 270.366ZM821.601 271.556C821.867 272.942 822.917 273.922 824.471 273.922C825.227 273.922 825.857 273.726 826.347 273.32C826.837 272.928 827.075 272.41 827.075 271.78C827.075 270.394 826.095 269.652 824.597 269.652C823.771 269.652 823.085 269.848 822.553 270.24C822.007 270.632 821.699 271.066 821.601 271.556ZM834.985 266.39H829.049V265.2H836.483V265.998L831.611 275H830.281L834.985 266.39Z" fill="#1A3341"/>
<path d="M791.044 295H784.888V286.6H790.936V287.62H785.98V290.236H790.6V291.232H785.98V293.98H791.044V295ZM796.561 288.76H797.785L795.397 291.772L797.905 295H796.645L794.713 292.492L792.757 295H791.557L794.053 291.784L791.689 288.76H792.949L794.749 291.052L796.561 288.76ZM799.563 297.4H798.555V288.76H799.563V289.54C799.983 288.928 800.655 288.616 801.579 288.616C802.491 288.616 803.223 288.904 803.763 289.492C804.303 290.08 804.567 290.836 804.567 291.772C804.567 292.732 804.279 293.524 803.703 294.16C803.115 294.796 802.371 295.108 801.459 295.108C800.619 295.108 799.983 294.892 799.563 294.472V297.4ZM801.471 289.564C800.559 289.564 799.851 290.152 799.563 290.86V293.188C799.923 293.836 800.523 294.16 801.375 294.16C801.987 294.16 802.503 293.944 802.899 293.512C803.295 293.08 803.499 292.528 803.499 291.844C803.499 290.452 802.719 289.564 801.471 289.564ZM805.211 291.868C805.211 290.92 805.523 290.14 806.135 289.528C806.747 288.916 807.539 288.616 808.511 288.616C809.495 288.616 810.299 288.916 810.911 289.528C811.523 290.14 811.836 290.92 811.836 291.868C811.836 292.816 811.523 293.584 810.911 294.196C810.287 294.808 809.483 295.108 808.511 295.108C807.539 295.108 806.747 294.808 806.135 294.196C805.523 293.584 805.211 292.816 805.211 291.868ZM806.279 291.868C806.279 292.528 806.483 293.08 806.903 293.512C807.323 293.944 807.851 294.16 808.511 294.16C809.171 294.16 809.723 293.944 810.143 293.524C810.563 293.104 810.767 292.552 810.767 291.868C810.767 291.184 810.551 290.632 810.131 290.2C809.699 289.78 809.159 289.564 808.511 289.564C807.863 289.564 807.335 289.78 806.915 290.2C806.495 290.62 806.279 291.184 806.279 291.868ZM813.842 295H812.834V288.76H813.842V289.24C814.046 288.82 814.586 288.628 815.126 288.628C815.678 288.628 816.098 288.82 816.398 289.192L815.762 289.888C815.606 289.684 815.366 289.576 815.018 289.576C814.478 289.576 813.986 290.02 813.842 290.656V295ZM817.827 289.72H816.531V288.76H817.827V287.164H818.835V288.76H820.983V289.72H818.835V292.468C818.835 293.68 819.147 294.124 819.915 294.124C820.287 294.124 820.671 293.98 821.043 293.68L821.499 294.424C821.103 294.868 820.515 295.084 819.735 295.084C818.499 295.084 817.827 294.268 817.827 292.732V289.72ZM825.938 293.296C825.938 292.456 824.51 292.324 823.37 292C822.59 291.772 821.966 291.256 821.966 290.404C821.966 289.3 823.01 288.616 824.558 288.616C825.602 288.616 826.442 289.06 826.886 289.696L826.178 290.356C825.782 289.828 825.182 289.564 824.378 289.564C823.658 289.564 823.034 289.84 823.034 290.356C823.034 291.088 824.462 291.22 825.602 291.568C826.37 291.808 826.994 292.384 826.994 293.284C826.994 294.496 826.022 295.108 824.498 295.108C823.214 295.108 822.122 294.532 821.678 293.632L822.482 293.068C822.854 293.728 823.706 294.16 824.666 294.16C825.518 294.16 825.938 293.872 825.938 293.296Z" fill="#76848D"/>
<path d="M22.3093 10.434L21.2873 10.07C21.6373 8.334 22.9533 7.088 25.0393 7.088C27.0553 7.088 28.2873 8.25 28.2873 10.028C28.2873 10.966 27.8813 11.904 27.3773 12.576C27.1253 12.926 26.8033 13.262 26.4253 13.612C25.6553 14.298 25.1093 14.662 24.3113 15.166L23.2333 15.838H28.6513V17H21.0213V16.048L23.1493 14.634C23.5273 14.396 23.7933 14.214 23.9473 14.102C24.1013 14.004 24.3533 13.822 24.6893 13.584C25.0253 13.346 25.2773 13.136 25.4453 12.982C25.5993 12.828 25.8093 12.632 26.0473 12.38C26.6913 11.68 26.9293 11.036 26.9993 10.154C26.9993 8.88 26.1733 8.306 24.9553 8.306C24.1993 8.306 23.5973 8.516 23.1633 8.936C22.7293 9.356 22.4353 9.86 22.3093 10.434ZM30.5876 10.056L29.5376 9.58C30.0556 8.068 31.4136 7.074 33.4436 7.074C34.4096 7.074 35.2076 7.298 35.8236 7.746C36.4396 8.194 36.7476 8.796 36.7476 9.538C36.7476 10.672 36.1456 11.512 35.0256 11.834C36.1036 11.904 36.9716 12.716 36.9716 14.172C36.9716 15.096 36.6356 15.824 35.9636 16.342C35.2916 16.86 34.4376 17.126 33.3876 17.126C31.2456 17.126 29.7616 16.104 29.2716 14.494L30.4056 14.004C31.0076 15.278 32.0296 15.922 33.4716 15.922C34.8296 15.922 35.6836 15.292 35.6836 14.186C35.6836 13.108 34.8436 12.562 33.1636 12.562H32.0716V11.4H32.9396C34.4656 11.4 35.4596 10.714 35.4596 9.776C35.4596 8.81 34.6616 8.264 33.3876 8.264C31.8896 8.264 30.9796 9.034 30.5876 10.056ZM38.2202 16.202C38.2202 15.81 38.5842 15.418 39.0882 15.418C39.5502 15.418 39.9282 15.81 39.9282 16.202C39.9282 16.65 39.5782 17.028 39.0882 17.028C38.5842 17.028 38.2202 16.65 38.2202 16.202ZM49.2337 11.918C49.2337 13.584 48.8417 14.872 48.0437 15.768C47.2457 16.678 46.1817 17.126 44.8517 17.126C43.2277 17.126 41.9537 16.44 41.3237 15.39L42.3317 14.69C42.8917 15.474 43.9137 15.922 45.0197 15.922C45.9297 15.922 46.6577 15.558 47.2317 14.83C47.8057 14.116 48.0437 13.22 47.9737 12.156C47.5117 13.22 46.3497 14.004 44.7957 14.004C43.7037 14.004 42.8077 13.696 42.1077 13.066C41.3937 12.45 41.0437 11.638 41.0437 10.644C41.0437 9.552 41.4217 8.684 42.1777 8.04C42.9337 7.396 43.9417 7.074 45.1877 7.074C47.7077 7.074 49.2337 8.838 49.2337 11.918ZM47.7637 10.602C47.5537 9.3 46.6577 8.278 45.0477 8.278C43.3677 8.278 42.3317 9.146 42.3317 10.602C42.3317 11.988 43.3817 12.8 45.0197 12.8C45.7617 12.8 46.3917 12.576 46.8817 12.128C47.3717 11.68 47.6657 11.176 47.7637 10.602ZM52.7196 17.21L51.7956 16.678L59.0336 6.892L59.9156 7.536L52.7196 17.21ZM50.2836 9.552C50.2836 8.852 50.5216 8.278 51.0116 7.83C51.5016 7.382 52.1036 7.158 52.8456 7.158C53.5736 7.158 54.1756 7.382 54.6656 7.83C55.1556 8.278 55.3936 8.852 55.3936 9.552C55.3936 10.238 55.1556 10.812 54.6656 11.26C54.1756 11.708 53.5736 11.932 52.8456 11.932C52.1036 11.932 51.5016 11.708 51.0116 11.26C50.5216 10.812 50.2836 10.238 50.2836 9.552ZM51.4596 9.552C51.4596 10.35 52.1036 10.938 52.8456 10.938C53.6156 10.938 54.2176 10.378 54.2176 9.552C54.2176 8.726 53.5876 8.166 52.8456 8.166C52.0756 8.166 51.4596 8.726 51.4596 9.552ZM57.0176 16.384C56.5276 15.936 56.2896 15.362 56.2896 14.662C56.2896 13.962 56.5276 13.388 57.0176 12.94C57.5076 12.506 58.1096 12.282 58.8516 12.282C59.5796 12.282 60.1816 12.506 60.6716 12.94C61.1616 13.388 61.3996 13.962 61.3996 14.662C61.3996 15.348 61.1616 15.922 60.6716 16.37C60.1816 16.832 59.5796 17.056 58.8516 17.056C58.1096 17.056 57.5076 16.832 57.0176 16.384ZM57.4656 14.662C57.4656 15.46 58.1096 16.048 58.8516 16.048C59.6216 16.048 60.2236 15.488 60.2236 14.662C60.2236 13.836 59.5936 13.276 58.8516 13.276C58.0816 13.276 57.4656 13.836 57.4656 14.662ZM9.40813 29.804L8.96013 28.754L12.3201 27.144H13.1181V37H11.9141V28.642L9.40813 29.804ZM14.9036 32.366C14.9036 30.672 15.3236 29.37 16.1496 28.446C16.9756 27.536 18.0116 27.074 19.2576 27.074C20.8956 27.074 22.1836 27.816 22.7296 28.992L21.7776 29.636C21.2036 28.726 20.3496 28.278 19.2016 28.278C18.3336 28.278 17.6056 28.614 17.0176 29.286C16.4296 29.972 16.1356 30.896 16.1496 32.086C16.6956 31.064 17.9696 30.448 19.3696 30.448C20.5036 30.448 21.4136 30.742 22.0716 31.344C22.7296 31.946 23.0656 32.744 23.0656 33.724C23.0656 34.718 22.7016 35.544 21.9596 36.174C21.2176 36.804 20.2936 37.126 19.1876 37.126C16.5416 37.126 14.9036 35.404 14.9036 32.366ZM16.3036 33.556C16.5696 34.942 17.6196 35.922 19.1736 35.922C19.9296 35.922 20.5596 35.726 21.0496 35.32C21.5396 34.928 21.7776 34.41 21.7776 33.78C21.7776 32.394 20.7976 31.652 19.2996 31.652C18.4736 31.652 17.7876 31.848 17.2556 32.24C16.7096 32.632 16.4016 33.066 16.3036 33.556ZM25.1941 30.434L24.1721 30.07C24.5221 28.334 25.8381 27.088 27.9241 27.088C29.9401 27.088 31.1721 28.25 31.1721 30.028C31.1721 30.966 30.7661 31.904 30.2621 32.576C30.0101 32.926 29.6881 33.262 29.3101 33.612C28.5401 34.298 27.9941 34.662 27.1961 35.166L26.1181 35.838H31.5361V37H23.9061V36.048L26.0341 34.634C26.4121 34.396 26.6781 34.214 26.8321 34.102C26.9861 34.004 27.2381 33.822 27.5741 33.584C27.9101 33.346 28.1621 33.136 28.3301 32.982C28.4841 32.828 28.6941 32.632 28.9321 32.38C29.5761 31.68 29.8141 31.036 29.8841 30.154C29.8841 28.88 29.0581 28.306 27.8401 28.306C27.0841 28.306 26.4821 28.516 26.0481 28.936C25.6141 29.356 25.3201 29.86 25.1941 30.434ZM33.4444 37C32.9264 37.056 32.5344 36.762 32.5344 36.258C32.5344 35.768 32.8424 35.46 33.3884 35.46C34.0044 35.46 34.4104 35.88 34.4104 36.664C34.4104 38.064 33.6404 38.778 32.6184 39.016L32.3244 38.358C32.6324 38.274 32.9124 38.106 33.1644 37.84C33.4024 37.574 33.5004 37.294 33.4444 37ZM35.4289 32.366C35.4289 30.672 35.8489 29.37 36.6749 28.446C37.5009 27.536 38.5369 27.074 39.7829 27.074C41.4209 27.074 42.7089 27.816 43.2549 28.992L42.3029 29.636C41.7289 28.726 40.8749 28.278 39.7269 28.278C38.8589 28.278 38.1309 28.614 37.5429 29.286C36.9549 29.972 36.6609 30.896 36.6749 32.086C37.2209 31.064 38.4949 30.448 39.8949 30.448C41.0289 30.448 41.9389 30.742 42.5969 31.344C43.2549 31.946 43.5909 32.744 43.5909 33.724C43.5909 34.718 43.2269 35.544 42.4849 36.174C41.7429 36.804 40.8189 37.126 39.7129 37.126C37.0669 37.126 35.4289 35.404 35.4289 32.366ZM36.8289 33.556C37.0949 34.942 38.1449 35.922 39.6989 35.922C40.4549 35.922 41.0849 35.726 41.5749 35.32C42.0649 34.928 42.3029 34.41 42.3029 33.78C42.3029 32.394 41.3229 31.652 39.8249 31.652C38.9989 31.652 38.3129 31.848 37.7809 32.24C37.2349 32.632 36.9269 33.066 36.8289 33.556ZM46.0274 32.492L45.0194 32.226L45.5934 27.2H51.7534V28.39H46.6714L46.3074 31.022C46.7974 30.658 47.5394 30.476 48.5334 30.476C49.6814 30.476 50.5774 30.784 51.2354 31.386C51.8794 32.002 52.2014 32.786 52.2014 33.752C52.2014 34.718 51.8374 35.53 51.1234 36.16C50.3954 36.804 49.4854 37.126 48.4074 37.126C46.5734 37.126 45.0474 36.258 44.4174 34.732L45.5374 34.256C45.9434 35.194 46.9934 35.936 48.4074 35.936C50.0174 35.936 50.9134 35.012 50.9134 33.794C50.9134 32.492 49.8634 31.652 48.1974 31.652C47.3014 31.652 46.5734 31.932 46.0274 32.492ZM57.1281 31.414H57.5621C58.1921 31.414 58.7101 31.26 59.1441 30.966C59.5641 30.672 59.7741 30.28 59.7741 29.818C59.7741 28.768 58.9481 28.236 57.3101 28.236C55.7421 28.236 54.8881 28.81 54.8881 29.818C54.8881 30.728 55.8261 31.414 57.1281 31.414ZM57.5341 32.52H57.1841C56.4281 32.52 55.7981 32.688 55.3081 33.01C54.8181 33.332 54.5661 33.738 54.5661 34.228C54.5661 35.292 55.5461 35.964 57.3241 35.964C59.1301 35.964 60.0961 35.32 60.0961 34.242C60.0961 33.164 59.0601 32.52 57.5341 32.52ZM60.2921 36.37C59.5781 36.874 58.5841 37.126 57.3381 37.126C56.0921 37.126 55.0981 36.874 54.3701 36.384C53.6421 35.894 53.2781 35.222 53.2781 34.354C53.2781 33.22 54.0201 32.324 55.2101 31.932C54.1321 31.582 53.6001 30.728 53.6001 29.734C53.6001 28.11 54.9721 27.074 57.3241 27.074C59.6901 27.074 61.0621 28.11 61.0621 29.734C61.0621 30.672 60.5441 31.386 59.5081 31.862C60.7541 32.24 61.3701 33.052 61.3701 34.298C61.3701 35.18 61.0061 35.88 60.2921 36.37Z" fill="#1A3341"/>
<path d="M21.5192 57H20.4272V48.6H21.5192V57ZM32.0703 52.86V57H31.0623V53.172C31.0623 52.104 30.6303 51.576 29.7663 51.576C28.9863 51.576 28.4103 51.96 28.0503 52.716V57H27.0423V52.848C27.0423 52.092 26.5503 51.576 25.7463 51.576C24.9423 51.576 24.3063 52.176 24.0303 52.836V57H23.0223V50.76H24.0303V51.6C24.4023 51.024 25.1223 50.628 25.9383 50.628C26.8263 50.628 27.4383 50.952 27.7743 51.6C28.2663 50.952 28.9503 50.628 29.8263 50.628C31.2183 50.628 32.0703 51.324 32.0703 52.86ZM34.34 59.4H33.332V50.76H34.34V51.54C34.76 50.928 35.432 50.616 36.356 50.616C37.268 50.616 38 50.904 38.54 51.492C39.08 52.08 39.344 52.836 39.344 53.772C39.344 54.732 39.056 55.524 38.48 56.16C37.892 56.796 37.148 57.108 36.236 57.108C35.396 57.108 34.76 56.892 34.34 56.472V59.4ZM36.248 51.564C35.336 51.564 34.628 52.152 34.34 52.86V55.188C34.7 55.836 35.3 56.16 36.152 56.16C36.764 56.16 37.28 55.944 37.676 55.512C38.072 55.08 38.276 54.528 38.276 53.844C38.276 52.452 37.496 51.564 36.248 51.564ZM39.989 53.868C39.989 52.92 40.301 52.14 40.913 51.528C41.525 50.916 42.317 50.616 43.289 50.616C44.273 50.616 45.077 50.916 45.689 51.528C46.301 52.14 46.613 52.92 46.613 53.868C46.613 54.816 46.301 55.584 45.689 56.196C45.065 56.808 44.261 57.108 43.289 57.108C42.317 57.108 41.525 56.808 40.913 56.196C40.301 55.584 39.989 54.816 39.989 53.868ZM41.057 53.868C41.057 54.528 41.261 55.08 41.681 55.512C42.101 55.944 42.629 56.16 43.289 56.16C43.949 56.16 44.501 55.944 44.921 55.524C45.341 55.104 45.545 54.552 45.545 53.868C45.545 53.184 45.329 52.632 44.909 52.2C44.477 51.78 43.937 51.564 43.289 51.564C42.641 51.564 42.113 51.78 41.693 52.2C41.273 52.62 41.057 53.184 41.057 53.868ZM48.6195 57H47.6115V50.76H48.6195V51.24C48.8235 50.82 49.3635 50.628 49.9035 50.628C50.4555 50.628 50.8755 50.82 51.1755 51.192L50.5395 51.888C50.3835 51.684 50.1435 51.576 49.7955 51.576C49.2555 51.576 48.7635 52.02 48.6195 52.656V57ZM52.6041 51.72H51.3081V50.76H52.6041V49.164H53.6121V50.76H55.7601V51.72H53.6121V54.468C53.6121 55.68 53.9241 56.124 54.6921 56.124C55.0641 56.124 55.4481 55.98 55.8201 55.68L56.2761 56.424C55.8801 56.868 55.2921 57.084 54.5121 57.084C53.2761 57.084 52.6041 56.268 52.6041 54.732V51.72ZM60.7152 55.296C60.7152 54.456 59.2872 54.324 58.1472 54C57.3672 53.772 56.7432 53.256 56.7432 52.404C56.7432 51.3 57.7872 50.616 59.3352 50.616C60.3792 50.616 61.2192 51.06 61.6632 51.696L60.9552 52.356C60.5592 51.828 59.9592 51.564 59.1552 51.564C58.4352 51.564 57.8112 51.84 57.8112 52.356C57.8112 53.088 59.2392 53.22 60.3792 53.568C61.1472 53.808 61.7712 54.384 61.7712 55.284C61.7712 56.496 60.7992 57.108 59.2752 57.108C57.9912 57.108 56.8992 56.532 56.4552 55.632L57.2592 55.068C57.6312 55.728 58.4832 56.16 59.4432 56.16C60.2952 56.16 60.7152 55.872 60.7152 55.296Z" fill="#76848D"/>
<path d="M593.577 13.056L592.527 12.58C593.045 11.068 594.403 10.074 596.433 10.074C597.399 10.074 598.197 10.298 598.813 10.746C599.429 11.194 599.737 11.796 599.737 12.538C599.737 13.672 599.135 14.512 598.015 14.834C599.093 14.904 599.961 15.716 599.961 17.172C599.961 18.096 599.625 18.824 598.953 19.342C598.281 19.86 597.427 20.126 596.377 20.126C594.235 20.126 592.751 19.104 592.261 17.494L593.395 17.004C593.997 18.278 595.019 18.922 596.461 18.922C597.819 18.922 598.673 18.292 598.673 17.186C598.673 16.108 597.833 15.562 596.153 15.562H595.061V14.4H595.929C597.455 14.4 598.449 13.714 598.449 12.776C598.449 11.81 597.651 11.264 596.377 11.264C594.879 11.264 593.969 12.034 593.577 13.056ZM606.726 11.39H600.79V10.2H608.224V10.998L603.352 20H602.022L606.726 11.39ZM608.22 19.202C608.22 18.81 608.584 18.418 609.088 18.418C609.55 18.418 609.928 18.81 609.928 19.202C609.928 19.65 609.578 20.028 609.088 20.028C608.584 20.028 608.22 19.65 608.22 19.202ZM619.234 14.918C619.234 16.584 618.842 17.872 618.044 18.768C617.246 19.678 616.182 20.126 614.852 20.126C613.228 20.126 611.954 19.44 611.324 18.39L612.332 17.69C612.892 18.474 613.914 18.922 615.02 18.922C615.93 18.922 616.658 18.558 617.232 17.83C617.806 17.116 618.044 16.22 617.974 15.156C617.512 16.22 616.35 17.004 614.796 17.004C613.704 17.004 612.808 16.696 612.108 16.066C611.394 15.45 611.044 14.638 611.044 13.644C611.044 12.552 611.422 11.684 612.178 11.04C612.934 10.396 613.942 10.074 615.188 10.074C617.708 10.074 619.234 11.838 619.234 14.918ZM617.764 13.602C617.554 12.3 616.658 11.278 615.048 11.278C613.368 11.278 612.332 12.146 612.332 13.602C612.332 14.988 613.382 15.8 615.02 15.8C615.762 15.8 616.392 15.576 616.882 15.128C617.372 14.68 617.666 14.176 617.764 13.602ZM622.72 20.21L621.796 19.678L629.034 9.892L629.916 10.536L622.72 20.21ZM620.284 12.552C620.284 11.852 620.522 11.278 621.012 10.83C621.502 10.382 622.104 10.158 622.846 10.158C623.574 10.158 624.176 10.382 624.666 10.83C625.156 11.278 625.394 11.852 625.394 12.552C625.394 13.238 625.156 13.812 624.666 14.26C624.176 14.708 623.574 14.932 622.846 14.932C622.104 14.932 621.502 14.708 621.012 14.26C620.522 13.812 620.284 13.238 620.284 12.552ZM621.46 12.552C621.46 13.35 622.104 13.938 622.846 13.938C623.616 13.938 624.218 13.378 624.218 12.552C624.218 11.726 623.588 11.166 622.846 11.166C622.076 11.166 621.46 11.726 621.46 12.552ZM627.018 19.384C626.528 18.936 626.29 18.362 626.29 17.662C626.29 16.962 626.528 16.388 627.018 15.94C627.508 15.506 628.11 15.282 628.852 15.282C629.58 15.282 630.182 15.506 630.672 15.94C631.162 16.388 631.4 16.962 631.4 17.662C631.4 18.348 631.162 18.922 630.672 19.37C630.182 19.832 629.58 20.056 628.852 20.056C628.11 20.056 627.508 19.832 627.018 19.384ZM627.466 17.662C627.466 18.46 628.11 19.048 628.852 19.048C629.622 19.048 630.224 18.488 630.224 17.662C630.224 16.836 629.594 16.276 628.852 16.276C628.082 16.276 627.466 16.836 627.466 17.662ZM582.65 33.434L581.628 33.07C581.978 31.334 583.294 30.088 585.38 30.088C587.396 30.088 588.628 31.25 588.628 33.028C588.628 33.966 588.222 34.904 587.718 35.576C587.466 35.926 587.144 36.262 586.766 36.612C585.996 37.298 585.45 37.662 584.652 38.166L583.574 38.838H588.992V40H581.362V39.048L583.49 37.634C583.868 37.396 584.134 37.214 584.288 37.102C584.442 37.004 584.694 36.822 585.03 36.584C585.366 36.346 585.618 36.136 585.786 35.982C585.94 35.828 586.15 35.632 586.388 35.38C587.032 34.68 587.27 34.036 587.34 33.154C587.34 31.88 586.514 31.306 585.296 31.306C584.54 31.306 583.938 31.516 583.504 31.936C583.07 32.356 582.776 32.86 582.65 33.434ZM591.39 35.492L590.382 35.226L590.956 30.2H597.116V31.39H592.034L591.67 34.022C592.16 33.658 592.902 33.476 593.896 33.476C595.044 33.476 595.94 33.784 596.598 34.386C597.242 35.002 597.564 35.786 597.564 36.752C597.564 37.718 597.2 38.53 596.486 39.16C595.758 39.804 594.848 40.126 593.77 40.126C591.936 40.126 590.41 39.258 589.78 37.732L590.9 37.256C591.306 38.194 592.356 38.936 593.77 38.936C595.38 38.936 596.276 38.012 596.276 36.794C596.276 35.492 595.226 34.652 593.56 34.652C592.664 34.652 591.936 34.932 591.39 35.492ZM600.055 35.492L599.047 35.226L599.621 30.2H605.781V31.39H600.699L600.335 34.022C600.825 33.658 601.567 33.476 602.561 33.476C603.709 33.476 604.605 33.784 605.263 34.386C605.907 35.002 606.229 35.786 606.229 36.752C606.229 37.718 605.865 38.53 605.151 39.16C604.423 39.804 603.513 40.126 602.435 40.126C600.601 40.126 599.075 39.258 598.445 37.732L599.565 37.256C599.971 38.194 601.021 38.936 602.435 38.936C604.045 38.936 604.941 38.012 604.941 36.794C604.941 35.492 603.891 34.652 602.225 34.652C601.329 34.652 600.601 34.932 600.055 35.492ZM608.23 40C607.712 40.056 607.32 39.762 607.32 39.258C607.32 38.768 607.628 38.46 608.174 38.46C608.79 38.46 609.196 38.88 609.196 39.664C609.196 41.064 608.426 41.778 607.404 42.016L607.11 41.358C607.418 41.274 607.698 41.106 607.95 40.84C608.188 40.574 608.286 40.294 608.23 40ZM610.102 32.804L609.654 31.754L613.014 30.144H613.812V40H612.608V31.642L610.102 32.804ZM616.717 33.434L615.695 33.07C616.045 31.334 617.361 30.088 619.447 30.088C621.463 30.088 622.695 31.25 622.695 33.028C622.695 33.966 622.289 34.904 621.785 35.576C621.533 35.926 621.211 36.262 620.833 36.612C620.063 37.298 619.517 37.662 618.719 38.166L617.641 38.838H623.059V40H615.429V39.048L617.557 37.634C617.935 37.396 618.201 37.214 618.355 37.102C618.509 37.004 618.761 36.822 619.097 36.584C619.433 36.346 619.685 36.136 619.853 35.982C620.007 35.828 620.217 35.632 620.455 35.38C621.099 34.68 621.337 34.036 621.407 33.154C621.407 31.88 620.581 31.306 619.363 31.306C618.607 31.306 618.005 31.516 617.571 31.936C617.137 32.356 616.843 32.86 616.717 33.434ZM625.15 33.434L624.128 33.07C624.478 31.334 625.794 30.088 627.88 30.088C629.896 30.088 631.128 31.25 631.128 33.028C631.128 33.966 630.722 34.904 630.218 35.576C629.966 35.926 629.644 36.262 629.266 36.612C628.496 37.298 627.95 37.662 627.152 38.166L626.074 38.838H631.492V40H623.862V39.048L625.99 37.634C626.368 37.396 626.634 37.214 626.788 37.102C626.942 37.004 627.194 36.822 627.53 36.584C627.866 36.346 628.118 36.136 628.286 35.982C628.44 35.828 628.65 35.632 628.888 35.38C629.532 34.68 629.77 34.036 629.84 33.154C629.84 31.88 629.014 31.306 627.796 31.306C627.04 31.306 626.438 31.516 626.004 31.936C625.57 32.356 625.276 32.86 625.15 33.434Z" fill="#1A3341"/>
<path d="M591.519 60H590.427V51.6H591.519V60ZM602.07 55.86V60H601.062V56.172C601.062 55.104 600.63 54.576 599.766 54.576C598.986 54.576 598.41 54.96 598.05 55.716V60H597.042V55.848C597.042 55.092 596.55 54.576 595.746 54.576C594.942 54.576 594.306 55.176 594.03 55.836V60H593.022V53.76H594.03V54.6C594.402 54.024 595.122 53.628 595.938 53.628C596.826 53.628 597.438 53.952 597.774 54.6C598.266 53.952 598.95 53.628 599.826 53.628C601.218 53.628 602.07 54.324 602.07 55.86ZM604.34 62.4H603.332V53.76H604.34V54.54C604.76 53.928 605.432 53.616 606.356 53.616C607.268 53.616 608 53.904 608.54 54.492C609.08 55.08 609.344 55.836 609.344 56.772C609.344 57.732 609.056 58.524 608.48 59.16C607.892 59.796 607.148 60.108 606.236 60.108C605.396 60.108 604.76 59.892 604.34 59.472V62.4ZM606.248 54.564C605.336 54.564 604.628 55.152 604.34 55.86V58.188C604.7 58.836 605.3 59.16 606.152 59.16C606.764 59.16 607.28 58.944 607.676 58.512C608.072 58.08 608.276 57.528 608.276 56.844C608.276 55.452 607.496 54.564 606.248 54.564ZM609.989 56.868C609.989 55.92 610.301 55.14 610.913 54.528C611.525 53.916 612.317 53.616 613.289 53.616C614.273 53.616 615.077 53.916 615.689 54.528C616.301 55.14 616.613 55.92 616.613 56.868C616.613 57.816 616.301 58.584 615.689 59.196C615.065 59.808 614.261 60.108 613.289 60.108C612.317 60.108 611.525 59.808 610.913 59.196C610.301 58.584 609.989 57.816 609.989 56.868ZM611.057 56.868C611.057 57.528 611.261 58.08 611.681 58.512C612.101 58.944 612.629 59.16 613.289 59.16C613.949 59.16 614.501 58.944 614.921 58.524C615.341 58.104 615.545 57.552 615.545 56.868C615.545 56.184 615.329 55.632 614.909 55.2C614.477 54.78 613.937 54.564 613.289 54.564C612.641 54.564 612.113 54.78 611.693 55.2C611.273 55.62 611.057 56.184 611.057 56.868ZM618.62 60H617.612V53.76H618.62V54.24C618.824 53.82 619.364 53.628 619.904 53.628C620.456 53.628 620.876 53.82 621.176 54.192L620.54 54.888C620.384 54.684 620.144 54.576 619.796 54.576C619.256 54.576 618.764 55.02 618.62 55.656V60ZM622.604 54.72H621.308V53.76H622.604V52.164H623.612V53.76H625.76V54.72H623.612V57.468C623.612 58.68 623.924 59.124 624.692 59.124C625.064 59.124 625.448 58.98 625.82 58.68L626.276 59.424C625.88 59.868 625.292 60.084 624.512 60.084C623.276 60.084 622.604 59.268 622.604 57.732V54.72ZM630.715 58.296C630.715 57.456 629.287 57.324 628.147 57C627.367 56.772 626.743 56.256 626.743 55.404C626.743 54.3 627.787 53.616 629.335 53.616C630.379 53.616 631.219 54.06 631.663 54.696L630.955 55.356C630.559 54.828 629.959 54.564 629.155 54.564C628.435 54.564 627.811 54.84 627.811 55.356C627.811 56.088 629.239 56.22 630.379 56.568C631.147 56.808 631.771 57.384 631.771 58.284C631.771 59.496 630.799 60.108 629.275 60.108C627.991 60.108 626.899 59.532 626.455 58.632L627.259 58.068C627.631 58.728 628.483 59.16 629.443 59.16C630.295 59.16 630.715 58.872 630.715 58.296Z" fill="#76848D"/>
<path d="M151.175 124.152V127H131.687V124.44L140.935 119.096C142.749 118.051 144.093 117.208 144.967 116.568C145.842 115.907 146.429 115.299 146.727 114.744C147.047 114.189 147.207 113.528 147.207 112.76V112.44C147.207 111.203 146.685 110.253 145.639 109.592C144.615 108.931 143.133 108.6 141.191 108.6C139.186 108.6 137.661 108.952 136.615 109.656C135.591 110.36 135.079 111.384 135.079 112.728V113.368H131.879V112.696C131.879 110.413 132.679 108.664 134.279 107.448C135.879 106.232 138.162 105.624 141.127 105.624C144.029 105.624 146.301 106.221 147.943 107.416C149.586 108.611 150.407 110.253 150.407 112.344V112.664C150.407 113.795 150.183 114.787 149.736 115.64C149.287 116.493 148.509 117.357 147.399 118.232C146.311 119.107 144.711 120.152 142.599 121.368L137.735 124.152H151.175ZM165.444 127.384C163.31 127.384 161.422 127 159.78 126.232C158.158 125.464 156.889 124.387 155.972 123C155.076 121.613 154.628 120.024 154.628 118.232V114.808C154.628 112.995 155.076 111.395 155.972 110.008C156.889 108.621 158.158 107.544 159.78 106.776C161.422 106.008 163.31 105.624 165.444 105.624C167.556 105.624 169.422 106.008 171.044 106.776C172.665 107.544 173.924 108.621 174.82 110.008C175.716 111.395 176.164 112.995 176.164 114.808V118.232C176.164 120.045 175.716 121.645 174.82 123.032C173.924 124.397 172.665 125.464 171.044 126.232C169.422 127 167.556 127.384 165.444 127.384ZM165.444 124.408C167.79 124.408 169.636 123.864 170.98 122.776C172.324 121.688 172.996 120.184 172.996 118.264V114.776C172.996 112.877 172.313 111.373 170.948 110.264C169.604 109.155 167.758 108.6 165.412 108.6C163.044 108.6 161.177 109.155 159.812 110.264C158.468 111.352 157.796 112.856 157.796 114.776V118.264C157.796 120.184 158.468 121.688 159.812 122.776C161.177 123.864 163.054 124.408 165.444 124.408ZM199.568 124.152V127H180.08V124.44L189.328 119.096C191.141 118.051 192.485 117.208 193.36 116.568C194.235 115.907 194.821 115.299 195.12 114.744C195.44 114.189 195.6 113.528 195.6 112.76V112.44C195.6 111.203 195.077 110.253 194.032 109.592C193.008 108.931 191.525 108.6 189.584 108.6C187.579 108.6 186.053 108.952 185.008 109.656C183.984 110.36 183.472 111.384 183.472 112.728V113.368H180.272V112.696C180.272 110.413 181.072 108.664 182.672 107.448C184.272 106.232 186.555 105.624 189.52 105.624C192.421 105.624 194.693 106.221 196.336 107.416C197.979 108.611 198.8 110.253 198.8 112.344V112.664C198.8 113.795 198.576 114.787 198.128 115.64C197.68 116.493 196.901 117.357 195.792 118.232C194.704 119.107 193.104 120.152 190.992 121.368L186.128 124.152H199.568ZM222.764 124.152V127H203.276V124.44L212.524 119.096C214.338 118.051 215.682 117.208 216.556 116.568C217.431 115.907 218.018 115.299 218.316 114.744C218.636 114.189 218.796 113.528 218.796 112.76V112.44C218.796 111.203 218.274 110.253 217.228 109.592C216.204 108.931 214.722 108.6 212.78 108.6C210.775 108.6 209.25 108.952 208.204 109.656C207.18 110.36 206.668 111.384 206.668 112.728V113.368H203.468V112.696C203.468 110.413 204.268 108.664 205.868 107.448C207.468 106.232 209.751 105.624 212.716 105.624C215.618 105.624 217.89 106.221 219.532 107.416C221.175 108.611 221.996 110.253 221.996 112.344V112.664C221.996 113.795 221.772 114.787 221.324 115.64C220.876 116.493 220.098 117.357 218.988 118.232C217.9 119.107 216.3 120.152 214.188 121.368L209.324 124.152H222.764Z" fill="#76848D"/>
<path d="M717.613 124.152V127H698.125V124.44L707.373 119.096C709.186 118.051 710.53 117.208 711.405 116.568C712.28 115.907 712.866 115.299 713.165 114.744C713.485 114.189 713.645 113.528 713.645 112.76V112.44C713.645 111.203 713.122 110.253 712.077 109.592C711.053 108.931 709.57 108.6 707.629 108.6C705.624 108.6 704.098 108.952 703.053 109.656C702.029 110.36 701.517 111.384 701.517 112.728V113.368H698.317V112.696C698.317 110.413 699.117 108.664 700.717 107.448C702.317 106.232 704.6 105.624 707.565 105.624C710.466 105.624 712.738 106.221 714.381 107.416C716.024 108.611 716.845 110.253 716.845 112.344V112.664C716.845 113.795 716.621 114.787 716.173 115.64C715.725 116.493 714.946 117.357 713.837 118.232C712.749 119.107 711.149 120.152 709.037 121.368L704.173 124.152H717.613ZM731.881 127.384C729.748 127.384 727.86 127 726.217 126.232C724.596 125.464 723.327 124.387 722.409 123C721.513 121.613 721.065 120.024 721.065 118.232V114.808C721.065 112.995 721.513 111.395 722.409 110.008C723.327 108.621 724.596 107.544 726.217 106.776C727.86 106.008 729.748 105.624 731.881 105.624C733.993 105.624 735.86 106.008 737.481 106.776C739.103 107.544 740.361 108.621 741.257 110.008C742.153 111.395 742.601 112.995 742.601 114.808V118.232C742.601 120.045 742.153 121.645 741.257 123.032C740.361 124.397 739.103 125.464 737.481 126.232C735.86 127 733.993 127.384 731.881 127.384ZM731.881 124.408C734.228 124.408 736.073 123.864 737.417 122.776C738.761 121.688 739.433 120.184 739.433 118.264V114.776C739.433 112.877 738.751 111.373 737.385 110.264C736.041 109.155 734.196 108.6 731.849 108.6C729.481 108.6 727.615 109.155 726.249 110.264C724.905 111.352 724.233 112.856 724.233 114.776V118.264C724.233 120.184 724.905 121.688 726.249 122.776C727.615 123.864 729.492 124.408 731.881 124.408ZM766.006 124.152V127H746.518V124.44L755.766 119.096C757.579 118.051 758.923 117.208 759.798 116.568C760.672 115.907 761.259 115.299 761.558 114.744C761.878 114.189 762.038 113.528 762.038 112.76V112.44C762.038 111.203 761.515 110.253 760.47 109.592C759.446 108.931 757.963 108.6 756.022 108.6C754.016 108.6 752.491 108.952 751.446 109.656C750.422 110.36 749.91 111.384 749.91 112.728V113.368H746.71V112.696C746.71 110.413 747.51 108.664 749.11 107.448C750.71 106.232 752.992 105.624 755.958 105.624C758.859 105.624 761.131 106.221 762.774 107.416C764.416 108.611 765.238 110.253 765.238 112.344V112.664C765.238 113.795 765.014 114.787 764.566 115.64C764.118 116.493 763.339 117.357 762.23 118.232C761.142 119.107 759.542 120.152 757.43 121.368L752.566 124.152H766.006ZM780.978 114.328C783.815 114.413 785.98 114.979 787.474 116.024C788.988 117.048 789.746 118.477 789.746 120.312V120.728C789.746 122.883 788.882 124.536 787.154 125.688C785.426 126.819 782.908 127.384 779.602 127.384C776.38 127.363 773.884 126.797 772.114 125.688C770.364 124.579 769.49 123.011 769.49 120.984V120.76H772.658V120.984C772.658 122.051 773.276 122.893 774.514 123.512C775.751 124.109 777.458 124.408 779.634 124.408C781.916 124.408 783.644 124.109 784.818 123.512C785.991 122.893 786.578 121.987 786.578 120.792V120.408C786.578 118.168 784.295 117.048 779.73 117.048H776.274V114.232L784.178 108.856H769.874V106.008H789.234V108.856L780.978 114.328Z" fill="#1A3341"/>
<path d="M178 0C196.24 2.17507e-07 214.218 4.33859 230.45 12.6576C246.682 20.9765 260.703 33.0372 271.354 47.8439C282.006 62.6505 288.983 79.7784 291.708 97.8134C294.434 115.848 292.831 134.273 287.032 151.566C281.232 168.859 271.402 184.525 258.354 197.27C245.305 210.014 229.412 219.472 211.987 224.863C194.562 230.254 176.105 231.422 158.139 228.272C140.173 225.122 123.215 217.744 108.663 206.746L116.983 195.737C129.789 205.414 144.713 211.907 160.522 214.679C176.332 217.451 192.575 216.423 207.909 211.679C223.243 206.936 237.229 198.613 248.711 187.397C260.194 176.182 268.844 162.396 273.948 147.178C279.052 131.96 280.462 115.747 278.063 99.8758C275.665 84.005 269.525 68.9325 260.152 55.9026C250.779 42.8728 238.441 32.2593 224.156 24.9386C209.872 17.618 194.051 13.8 178 13.8V0Z" fill="url(#paint3_linear_6001_29421)"/>
<path d="M108.651 206.737C93.3937 195.203 81.2542 180.047 73.3313 162.639C65.4084 145.231 61.9522 126.122 63.2757 107.042L77.0426 107.997C75.878 124.788 78.9194 141.604 85.8916 156.922C92.8637 172.241 103.546 185.579 116.973 195.728L108.651 206.737Z" fill="url(#paint4_linear_6001_29421)"/>
<path d="M63.2794 106.988C65.3085 77.9339 78.2861 50.7317 99.5921 30.8739C120.898 11.0162 148.945 -0.0177155 178.07 1.52588e-05L178.062 13.8C152.432 13.7844 127.75 23.4943 109.001 40.9691C90.2518 58.4439 78.8315 82.3818 77.0459 107.95L63.2794 106.988Z" fill="url(#paint5_linear_6001_29421)"/>
<defs>
<linearGradient id="paint0_linear_6001_29421" x1="745" y1="0" x2="745" y2="230" gradientUnits="userSpaceOnUse">
<stop stop-color="#6D73F9"/>
<stop offset="1" stop-color="#9BB8F1"/>
</linearGradient>
<linearGradient id="paint1_linear_6001_29421" x1="635.583" y1="115" x2="676" y2="207" gradientUnits="userSpaceOnUse">
<stop stop-color="#B7C6EF"/>
<stop offset="0.558752" stop-color="#BECCEE"/>
</linearGradient>
<linearGradient id="paint2_linear_6001_29421" x1="860" y1="219.048" x2="860" y2="-1.06082e-05" gradientUnits="userSpaceOnUse">
<stop stop-color="#CEE8EF"/>
<stop offset="1" stop-color="#CEE8EF"/>
</linearGradient>
<linearGradient id="paint3_linear_6001_29421" x1="178" y1="-2.96533e-06" x2="78.5" y2="415.5" gradientUnits="userSpaceOnUse">
<stop stop-color="#6D73F9"/>
<stop offset="1" stop-color="#9BB8F1"/>
</linearGradient>
<linearGradient id="paint4_linear_6001_29421" x1="68.5826" y1="115" x2="109" y2="207" gradientUnits="userSpaceOnUse">
<stop stop-color="#B7C6EF"/>
<stop offset="0.558752" stop-color="#BECCEE"/>
</linearGradient>
<linearGradient id="paint5_linear_6001_29421" x1="293" y1="219.048" x2="293" y2="-1.06082e-05" gradientUnits="userSpaceOnUse">
<stop stop-color="#CEE8EF"/>
<stop offset="1" stop-color="#CEE8EF"/>
</linearGradient>
</defs>
</svg>
