<svg width="326" height="573" viewBox="0 0 326 573" fill="none" xmlns="http://www.w3.org/2000/svg">
<path d="M272.602 162.366C272.602 160.672 273.022 159.37 273.848 158.446C274.674 157.536 275.71 157.074 276.956 157.074C278.594 157.074 279.882 157.816 280.428 158.992L279.476 159.636C278.902 158.726 278.048 158.278 276.9 158.278C276.032 158.278 275.304 158.614 274.716 159.286C274.128 159.972 273.834 160.896 273.848 162.086C274.394 161.064 275.668 160.448 277.068 160.448C278.202 160.448 279.112 160.742 279.77 161.344C280.428 161.946 280.764 162.744 280.764 163.724C280.764 164.718 280.4 165.544 279.658 166.174C278.916 166.804 277.992 167.126 276.886 167.126C274.24 167.126 272.602 165.404 272.602 162.366ZM274.002 163.556C274.268 164.942 275.318 165.922 276.872 165.922C277.628 165.922 278.258 165.726 278.748 165.32C279.238 164.928 279.476 164.41 279.476 163.78C279.476 162.394 278.496 161.652 276.998 161.652C276.172 161.652 275.486 161.848 274.954 162.24C274.408 162.632 274.1 163.066 274.002 163.556ZM281.773 162.1C281.773 160.588 282.123 159.37 282.837 158.46C283.537 157.55 284.573 157.088 285.931 157.088C288.717 157.088 290.103 158.922 290.103 162.1C290.103 163.626 289.753 164.83 289.067 165.74C288.367 166.65 287.331 167.112 285.959 167.112C284.643 167.112 283.621 166.65 282.879 165.726C282.137 164.802 281.773 163.598 281.773 162.1ZM283.061 162.1C283.061 164.494 284.153 165.922 285.959 165.922C287.863 165.922 288.815 164.648 288.815 162.1C288.815 159.552 287.849 158.278 285.931 158.278C283.985 158.278 283.061 159.678 283.061 162.1ZM291.246 166.202C291.246 165.81 291.61 165.418 292.114 165.418C292.576 165.418 292.954 165.81 292.954 166.202C292.954 166.65 292.604 167.028 292.114 167.028C291.61 167.028 291.246 166.65 291.246 166.202ZM295.078 160.056L294.028 159.58C294.546 158.068 295.904 157.074 297.934 157.074C298.9 157.074 299.698 157.298 300.314 157.746C300.93 158.194 301.238 158.796 301.238 159.538C301.238 160.672 300.636 161.512 299.516 161.834C300.594 161.904 301.462 162.716 301.462 164.172C301.462 165.096 301.126 165.824 300.454 166.342C299.782 166.86 298.928 167.126 297.878 167.126C295.736 167.126 294.252 166.104 293.762 164.494L294.896 164.004C295.498 165.278 296.52 165.922 297.962 165.922C299.32 165.922 300.174 165.292 300.174 164.186C300.174 163.108 299.334 162.562 297.654 162.562H296.562V161.4H297.43C298.956 161.4 299.95 160.714 299.95 159.776C299.95 158.81 299.152 158.264 297.878 158.264C296.38 158.264 295.47 159.034 295.078 160.056ZM305.048 167.21L304.124 166.678L311.362 156.892L312.244 157.536L305.048 167.21ZM302.612 159.552C302.612 158.852 302.85 158.278 303.34 157.83C303.83 157.382 304.432 157.158 305.174 157.158C305.902 157.158 306.504 157.382 306.994 157.83C307.484 158.278 307.722 158.852 307.722 159.552C307.722 160.238 307.484 160.812 306.994 161.26C306.504 161.708 305.902 161.932 305.174 161.932C304.432 161.932 303.83 161.708 303.34 161.26C302.85 160.812 302.612 160.238 302.612 159.552ZM303.788 159.552C303.788 160.35 304.432 160.938 305.174 160.938C305.944 160.938 306.546 160.378 306.546 159.552C306.546 158.726 305.916 158.166 305.174 158.166C304.404 158.166 303.788 158.726 303.788 159.552ZM309.346 166.384C308.856 165.936 308.618 165.362 308.618 164.662C308.618 163.962 308.856 163.388 309.346 162.94C309.836 162.506 310.438 162.282 311.18 162.282C311.908 162.282 312.51 162.506 313 162.94C313.49 163.388 313.728 163.962 313.728 164.662C313.728 165.348 313.49 165.922 313 166.37C312.51 166.832 311.908 167.056 311.18 167.056C310.438 167.056 309.836 166.832 309.346 166.384ZM309.794 164.662C309.794 165.46 310.438 166.048 311.18 166.048C311.95 166.048 312.552 165.488 312.552 164.662C312.552 163.836 311.922 163.276 311.18 163.276C310.41 163.276 309.794 163.836 309.794 164.662ZM279.364 187H278.146V184.998H272.154V184.186L278.286 177.2H279.364V183.864H281.184V184.998H279.364V187ZM278.146 179.16L273.834 183.864H278.146V179.16ZM281.756 179.804L281.308 178.754L284.668 177.144H285.466V187H284.262V178.642L281.756 179.804ZM287.252 182.1C287.252 180.588 287.602 179.37 288.316 178.46C289.016 177.55 290.052 177.088 291.41 177.088C294.196 177.088 295.582 178.922 295.582 182.1C295.582 183.626 295.232 184.83 294.546 185.74C293.846 186.65 292.81 187.112 291.438 187.112C290.122 187.112 289.1 186.65 288.358 185.726C287.616 184.802 287.252 183.598 287.252 182.1ZM288.54 182.1C288.54 184.494 289.632 185.922 291.438 185.922C293.342 185.922 294.294 184.648 294.294 182.1C294.294 179.552 293.328 178.278 291.41 178.278C289.464 178.278 288.54 179.678 288.54 182.1ZM297.565 187C297.047 187.056 296.655 186.762 296.655 186.258C296.655 185.768 296.963 185.46 297.509 185.46C298.125 185.46 298.531 185.88 298.531 186.664C298.531 188.064 297.761 188.778 296.739 189.016L296.445 188.358C296.753 188.274 297.033 188.106 297.285 187.84C297.523 187.574 297.621 187.294 297.565 187ZM299.55 182.366C299.55 180.672 299.97 179.37 300.796 178.446C301.622 177.536 302.658 177.074 303.904 177.074C305.542 177.074 306.83 177.816 307.376 178.992L306.424 179.636C305.85 178.726 304.996 178.278 303.848 178.278C302.98 178.278 302.252 178.614 301.664 179.286C301.076 179.972 300.782 180.896 300.796 182.086C301.342 181.064 302.616 180.448 304.016 180.448C305.15 180.448 306.06 180.742 306.718 181.344C307.376 181.946 307.712 182.744 307.712 183.724C307.712 184.718 307.348 185.544 306.606 186.174C305.864 186.804 304.94 187.126 303.834 187.126C301.188 187.126 299.55 185.404 299.55 182.366ZM300.95 183.556C301.216 184.942 302.266 185.922 303.82 185.922C304.576 185.922 305.206 185.726 305.696 185.32C306.186 184.928 306.424 184.41 306.424 183.78C306.424 182.394 305.444 181.652 303.946 181.652C303.12 181.652 302.434 181.848 301.902 182.24C301.356 182.632 301.048 183.066 300.95 183.556ZM309.686 180.056L308.636 179.58C309.154 178.068 310.512 177.074 312.542 177.074C313.508 177.074 314.306 177.298 314.922 177.746C315.538 178.194 315.846 178.796 315.846 179.538C315.846 180.672 315.244 181.512 314.124 181.834C315.202 181.904 316.07 182.716 316.07 184.172C316.07 185.096 315.734 185.824 315.062 186.342C314.39 186.86 313.536 187.126 312.486 187.126C310.344 187.126 308.86 186.104 308.37 184.494L309.504 184.004C310.106 185.278 311.128 185.922 312.57 185.922C313.928 185.922 314.782 185.292 314.782 184.186C314.782 183.108 313.942 182.562 312.262 182.562H311.17V181.4H312.038C313.564 181.4 314.558 180.714 314.558 179.776C314.558 178.81 313.76 178.264 312.486 178.264C310.988 178.264 310.078 179.034 309.686 180.056ZM321.085 181.414H321.519C322.149 181.414 322.667 181.26 323.101 180.966C323.521 180.672 323.731 180.28 323.731 179.818C323.731 178.768 322.905 178.236 321.267 178.236C319.699 178.236 318.845 178.81 318.845 179.818C318.845 180.728 319.783 181.414 321.085 181.414ZM321.491 182.52H321.141C320.385 182.52 319.755 182.688 319.265 183.01C318.775 183.332 318.523 183.738 318.523 184.228C318.523 185.292 319.503 185.964 321.281 185.964C323.087 185.964 324.053 185.32 324.053 184.242C324.053 183.164 323.017 182.52 321.491 182.52ZM324.249 186.37C323.535 186.874 322.541 187.126 321.295 187.126C320.049 187.126 319.055 186.874 318.327 186.384C317.599 185.894 317.235 185.222 317.235 184.354C317.235 183.22 317.977 182.324 319.167 181.932C318.089 181.582 317.557 180.728 317.557 179.734C317.557 178.11 318.929 177.074 321.281 177.074C323.647 177.074 325.019 178.11 325.019 179.734C325.019 180.672 324.501 181.386 323.465 181.862C324.711 182.24 325.327 183.052 325.327 184.298C325.327 185.18 324.963 185.88 324.249 186.37Z" fill="#1A3341"/>
<path d="M274.952 199.62H272.036V198.6H278.972V199.62H276.044V207H274.952V199.62ZM279.163 207H278.155V200.76H279.163V201.24C279.367 200.82 279.907 200.628 280.447 200.628C280.999 200.628 281.419 200.82 281.719 201.192L281.083 201.888C280.927 201.684 280.687 201.576 280.339 201.576C279.799 201.576 279.307 202.02 279.163 202.656V207ZM282.617 202.26L282.101 201.504C282.677 200.964 283.673 200.616 284.597 200.616C286.265 200.616 287.153 201.528 287.153 203.148V207H286.145V206.076C285.749 206.652 284.969 207.084 283.961 207.084C282.605 207.084 281.693 206.328 281.693 205.176C281.693 203.868 282.809 203.244 284.681 203.244C285.269 203.244 285.749 203.304 286.145 203.424C286.145 202.212 285.713 201.564 284.477 201.564C283.853 201.564 283.229 201.792 282.617 202.26ZM284.201 206.172C284.669 206.172 285.089 206.04 285.437 205.788C285.785 205.536 286.013 205.248 286.145 204.948V204.312C285.797 204.192 285.353 204.132 284.813 204.132C283.445 204.132 282.761 204.468 282.761 205.14C282.761 205.776 283.337 206.172 284.201 206.172ZM289.435 207H288.427V200.76H289.435V201.576C289.831 200.964 290.647 200.628 291.571 200.628C293.263 200.628 294.103 201.564 294.103 203.448V207H293.095V203.568C293.095 202.188 292.507 201.576 291.271 201.576C290.503 201.576 289.771 202.08 289.435 202.836V207ZM299.201 205.296C299.201 204.456 297.773 204.324 296.633 204C295.853 203.772 295.229 203.256 295.229 202.404C295.229 201.3 296.273 200.616 297.821 200.616C298.865 200.616 299.705 201.06 300.149 201.696L299.441 202.356C299.045 201.828 298.445 201.564 297.641 201.564C296.921 201.564 296.297 201.84 296.297 202.356C296.297 203.088 297.725 203.22 298.865 203.568C299.633 203.808 300.257 204.384 300.257 205.284C300.257 206.496 299.285 207.108 297.761 207.108C296.477 207.108 295.385 206.532 294.941 205.632L295.745 205.068C296.117 205.728 296.969 206.16 297.929 206.16C298.781 206.16 299.201 205.872 299.201 205.296ZM302.358 207H301.35V200.76H302.358V207ZM301.218 198.732C301.218 198.396 301.494 198.144 301.866 198.144C302.202 198.144 302.49 198.396 302.49 198.732C302.49 199.08 302.202 199.356 301.866 199.356C301.494 199.356 301.218 199.08 301.218 198.732ZM304.464 201.72H303.168V200.76H304.464V199.164H305.472V200.76H307.62V201.72H305.472V204.468C305.472 205.68 305.784 206.124 306.552 206.124C306.924 206.124 307.308 205.98 307.68 205.68L308.136 206.424C307.74 206.868 307.152 207.084 306.372 207.084C305.136 207.084 304.464 206.268 304.464 204.732V201.72Z" fill="#76848D"/>
<path d="M276.568 309.056L275.518 308.58C276.036 307.068 277.394 306.074 279.424 306.074C280.39 306.074 281.188 306.298 281.804 306.746C282.42 307.194 282.728 307.796 282.728 308.538C282.728 309.672 282.126 310.512 281.006 310.834C282.084 310.904 282.952 311.716 282.952 313.172C282.952 314.096 282.616 314.824 281.944 315.342C281.272 315.86 280.418 316.126 279.368 316.126C277.226 316.126 275.742 315.104 275.252 313.494L276.386 313.004C276.988 314.278 278.01 314.922 279.452 314.922C280.81 314.922 281.664 314.292 281.664 313.186C281.664 312.108 280.824 311.562 279.144 311.562H278.052V310.4H278.92C280.446 310.4 281.44 309.714 281.44 308.776C281.44 307.81 280.642 307.264 279.368 307.264C277.87 307.264 276.96 308.034 276.568 309.056ZM283.991 308.804L283.543 307.754L286.903 306.144H287.701V316H286.497V307.642L283.991 308.804ZM289.584 315.202C289.584 314.81 289.948 314.418 290.452 314.418C290.914 314.418 291.292 314.81 291.292 315.202C291.292 315.65 290.942 316.028 290.452 316.028C289.948 316.028 289.584 315.65 289.584 315.202ZM293.416 309.056L292.366 308.58C292.884 307.068 294.242 306.074 296.272 306.074C297.238 306.074 298.036 306.298 298.652 306.746C299.268 307.194 299.576 307.796 299.576 308.538C299.576 309.672 298.974 310.512 297.854 310.834C298.932 310.904 299.8 311.716 299.8 313.172C299.8 314.096 299.464 314.824 298.792 315.342C298.12 315.86 297.266 316.126 296.216 316.126C294.074 316.126 292.59 315.104 292.1 313.494L293.234 313.004C293.836 314.278 294.858 314.922 296.3 314.922C297.658 314.922 298.512 314.292 298.512 313.186C298.512 312.108 297.672 311.562 295.992 311.562H294.9V310.4H295.768C297.294 310.4 298.288 309.714 298.288 308.776C298.288 307.81 297.49 307.264 296.216 307.264C294.718 307.264 293.808 308.034 293.416 309.056ZM303.386 316.21L302.462 315.678L309.7 305.892L310.582 306.536L303.386 316.21ZM300.95 308.552C300.95 307.852 301.188 307.278 301.678 306.83C302.168 306.382 302.77 306.158 303.512 306.158C304.24 306.158 304.842 306.382 305.332 306.83C305.822 307.278 306.06 307.852 306.06 308.552C306.06 309.238 305.822 309.812 305.332 310.26C304.842 310.708 304.24 310.932 303.512 310.932C302.77 310.932 302.168 310.708 301.678 310.26C301.188 309.812 300.95 309.238 300.95 308.552ZM302.126 308.552C302.126 309.35 302.77 309.938 303.512 309.938C304.282 309.938 304.884 309.378 304.884 308.552C304.884 307.726 304.254 307.166 303.512 307.166C302.742 307.166 302.126 307.726 302.126 308.552ZM307.684 315.384C307.194 314.936 306.956 314.362 306.956 313.662C306.956 312.962 307.194 312.388 307.684 311.94C308.174 311.506 308.776 311.282 309.518 311.282C310.246 311.282 310.848 311.506 311.338 311.94C311.828 312.388 312.066 312.962 312.066 313.662C312.066 314.348 311.828 314.922 311.338 315.37C310.848 315.832 310.246 316.056 309.518 316.056C308.776 316.056 308.174 315.832 307.684 315.384ZM308.132 313.662C308.132 314.46 308.776 315.048 309.518 315.048C310.288 315.048 310.89 314.488 310.89 313.662C310.89 312.836 310.26 312.276 309.518 312.276C308.748 312.276 308.132 312.836 308.132 313.662ZM276.722 329.434L275.7 329.07C276.05 327.334 277.366 326.088 279.452 326.088C281.468 326.088 282.7 327.25 282.7 329.028C282.7 329.966 282.294 330.904 281.79 331.576C281.538 331.926 281.216 332.262 280.838 332.612C280.068 333.298 279.522 333.662 278.724 334.166L277.646 334.838H283.064V336H275.434V335.048L277.562 333.634C277.94 333.396 278.206 333.214 278.36 333.102C278.514 333.004 278.766 332.822 279.102 332.584C279.438 332.346 279.69 332.136 279.858 331.982C280.012 331.828 280.222 331.632 280.46 331.38C281.104 330.68 281.342 330.036 281.412 329.154C281.412 327.88 280.586 327.306 279.368 327.306C278.612 327.306 278.01 327.516 277.576 327.936C277.142 328.356 276.848 328.86 276.722 329.434ZM283.922 328.804L283.474 327.754L286.834 326.144H287.632V336H286.428V327.642L283.922 328.804ZM289.306 328.804L288.858 327.754L292.218 326.144H293.016V336H291.812V327.642L289.306 328.804ZM295.739 336C295.221 336.056 294.829 335.762 294.829 335.258C294.829 334.768 295.137 334.46 295.683 334.46C296.299 334.46 296.705 334.88 296.705 335.664C296.705 337.064 295.935 337.778 294.913 338.016L294.619 337.358C294.927 337.274 295.207 337.106 295.459 336.84C295.697 336.574 295.795 336.294 295.739 336ZM297.612 328.804L297.164 327.754L300.524 326.144H301.322V336H300.118V327.642L297.612 328.804ZM304.227 329.434L303.205 329.07C303.555 327.334 304.871 326.088 306.957 326.088C308.973 326.088 310.205 327.25 310.205 329.028C310.205 329.966 309.799 330.904 309.295 331.576C309.043 331.926 308.721 332.262 308.343 332.612C307.573 333.298 307.027 333.662 306.229 334.166L305.151 334.838H310.569V336H302.939V335.048L305.067 333.634C305.445 333.396 305.711 333.214 305.865 333.102C306.019 333.004 306.271 332.822 306.607 332.584C306.943 332.346 307.195 332.136 307.363 331.982C307.517 331.828 307.727 331.632 307.965 331.38C308.609 330.68 308.847 330.036 308.917 329.154C308.917 327.88 308.091 327.306 306.873 327.306C306.117 327.306 305.515 327.516 305.081 327.936C304.647 328.356 304.353 328.86 304.227 329.434ZM312.659 329.434L311.637 329.07C311.987 327.334 313.303 326.088 315.389 326.088C317.405 326.088 318.637 327.25 318.637 329.028C318.637 329.966 318.231 330.904 317.727 331.576C317.475 331.926 317.153 332.262 316.775 332.612C316.005 333.298 315.459 333.662 314.661 334.166L313.583 334.838H319.001V336H311.371V335.048L313.499 333.634C313.877 333.396 314.143 333.214 314.297 333.102C314.451 333.004 314.703 332.822 315.039 332.584C315.375 332.346 315.627 332.136 315.795 331.982C315.949 331.828 316.159 331.632 316.397 331.38C317.041 330.68 317.279 330.036 317.349 329.154C317.349 327.88 316.523 327.306 315.305 327.306C314.549 327.306 313.947 327.516 313.513 327.936C313.079 328.356 312.785 328.86 312.659 329.434Z" fill="#1A3341"/>
<path d="M277.952 348.62H275.036V347.6H281.972V348.62H279.044V356H277.952V348.62ZM282.163 356H281.155V349.76H282.163V350.24C282.367 349.82 282.907 349.628 283.447 349.628C283.999 349.628 284.419 349.82 284.719 350.192L284.083 350.888C283.927 350.684 283.687 350.576 283.339 350.576C282.799 350.576 282.307 351.02 282.163 351.656V356ZM285.617 351.26L285.101 350.504C285.677 349.964 286.673 349.616 287.597 349.616C289.265 349.616 290.153 350.528 290.153 352.148V356H289.145V355.076C288.749 355.652 287.969 356.084 286.961 356.084C285.605 356.084 284.693 355.328 284.693 354.176C284.693 352.868 285.809 352.244 287.681 352.244C288.269 352.244 288.749 352.304 289.145 352.424C289.145 351.212 288.713 350.564 287.477 350.564C286.853 350.564 286.229 350.792 285.617 351.26ZM287.201 355.172C287.669 355.172 288.089 355.04 288.437 354.788C288.785 354.536 289.013 354.248 289.145 353.948V353.312C288.797 353.192 288.353 353.132 287.813 353.132C286.445 353.132 285.761 353.468 285.761 354.14C285.761 354.776 286.337 355.172 287.201 355.172ZM292.435 356H291.427V349.76H292.435V350.576C292.831 349.964 293.647 349.628 294.571 349.628C296.263 349.628 297.103 350.564 297.103 352.448V356H296.095V352.568C296.095 351.188 295.507 350.576 294.271 350.576C293.503 350.576 292.771 351.08 292.435 351.836V356ZM302.201 354.296C302.201 353.456 300.773 353.324 299.633 353C298.853 352.772 298.229 352.256 298.229 351.404C298.229 350.3 299.273 349.616 300.821 349.616C301.865 349.616 302.705 350.06 303.149 350.696L302.441 351.356C302.045 350.828 301.445 350.564 300.641 350.564C299.921 350.564 299.297 350.84 299.297 351.356C299.297 352.088 300.725 352.22 301.865 352.568C302.633 352.808 303.257 353.384 303.257 354.284C303.257 355.496 302.285 356.108 300.761 356.108C299.477 356.108 298.385 355.532 297.941 354.632L298.745 354.068C299.117 354.728 299.969 355.16 300.929 355.16C301.781 355.16 302.201 354.872 302.201 354.296ZM305.358 356H304.35V349.76H305.358V356ZM304.218 347.732C304.218 347.396 304.494 347.144 304.866 347.144C305.202 347.144 305.49 347.396 305.49 347.732C305.49 348.08 305.202 348.356 304.866 348.356C304.494 348.356 304.218 348.08 304.218 347.732ZM307.464 350.72H306.168V349.76H307.464V348.164H308.472V349.76H310.62V350.72H308.472V353.468C308.472 354.68 308.784 355.124 309.552 355.124C309.924 355.124 310.308 354.98 310.68 354.68L311.136 355.424C310.74 355.868 310.152 356.084 309.372 356.084C308.136 356.084 307.464 355.268 307.464 353.732V350.72Z" fill="#76848D"/>
<path d="M13.9621 151.804L13.5141 150.754L16.8741 149.144H17.6721V159H16.4681V150.642L13.9621 151.804ZM20.8855 154.492L19.8775 154.226L20.4515 149.2H26.6115V150.39H21.5295L21.1655 153.022C21.6555 152.658 22.3975 152.476 23.3915 152.476C24.5395 152.476 25.4355 152.784 26.0935 153.386C26.7375 154.002 27.0595 154.786 27.0595 155.752C27.0595 156.718 26.6955 157.53 25.9815 158.16C25.2535 158.804 24.3435 159.126 23.2655 159.126C21.4315 159.126 19.9055 158.258 19.2755 156.732L20.3955 156.256C20.8015 157.194 21.8515 157.936 23.2655 157.936C24.8755 157.936 25.7715 157.012 25.7715 155.794C25.7715 154.492 24.7215 153.652 23.0555 153.652C22.1595 153.652 21.4315 153.932 20.8855 154.492ZM28.2202 158.202C28.2202 157.81 28.5842 157.418 29.0882 157.418C29.5502 157.418 29.9282 157.81 29.9282 158.202C29.9282 158.65 29.5782 159.028 29.0882 159.028C28.5842 159.028 28.2202 158.65 28.2202 158.202ZM34.9498 153.414H35.3838C36.0138 153.414 36.5318 153.26 36.9658 152.966C37.3858 152.672 37.5958 152.28 37.5958 151.818C37.5958 150.768 36.7698 150.236 35.1318 150.236C33.5638 150.236 32.7098 150.81 32.7098 151.818C32.7098 152.728 33.6478 153.414 34.9498 153.414ZM35.3558 154.52H35.0058C34.2498 154.52 33.6198 154.688 33.1298 155.01C32.6398 155.332 32.3878 155.738 32.3878 156.228C32.3878 157.292 33.3678 157.964 35.1458 157.964C36.9518 157.964 37.9178 157.32 37.9178 156.242C37.9178 155.164 36.8818 154.52 35.3558 154.52ZM38.1138 158.37C37.3998 158.874 36.4058 159.126 35.1598 159.126C33.9138 159.126 32.9198 158.874 32.1918 158.384C31.4638 157.894 31.0998 157.222 31.0998 156.354C31.0998 155.22 31.8418 154.324 33.0318 153.932C31.9538 153.582 31.4218 152.728 31.4218 151.734C31.4218 150.11 32.7938 149.074 35.1458 149.074C37.5118 149.074 38.8838 150.11 38.8838 151.734C38.8838 152.672 38.3658 153.386 37.3298 153.862C38.5758 154.24 39.1918 155.052 39.1918 156.298C39.1918 157.18 38.8278 157.88 38.1138 158.37ZM42.7196 159.21L41.7956 158.678L49.0336 148.892L49.9156 149.536L42.7196 159.21ZM40.2836 151.552C40.2836 150.852 40.5216 150.278 41.0116 149.83C41.5016 149.382 42.1036 149.158 42.8456 149.158C43.5736 149.158 44.1756 149.382 44.6656 149.83C45.1556 150.278 45.3936 150.852 45.3936 151.552C45.3936 152.238 45.1556 152.812 44.6656 153.26C44.1756 153.708 43.5736 153.932 42.8456 153.932C42.1036 153.932 41.5016 153.708 41.0116 153.26C40.5216 152.812 40.2836 152.238 40.2836 151.552ZM41.4596 151.552C41.4596 152.35 42.1036 152.938 42.8456 152.938C43.6156 152.938 44.2176 152.378 44.2176 151.552C44.2176 150.726 43.5876 150.166 42.8456 150.166C42.0756 150.166 41.4596 150.726 41.4596 151.552ZM47.0176 158.384C46.5276 157.936 46.2896 157.362 46.2896 156.662C46.2896 155.962 46.5276 155.388 47.0176 154.94C47.5076 154.506 48.1096 154.282 48.8516 154.282C49.5796 154.282 50.1816 154.506 50.6716 154.94C51.1616 155.388 51.3996 155.962 51.3996 156.662C51.3996 157.348 51.1616 157.922 50.6716 158.37C50.1816 158.832 49.5796 159.056 48.8516 159.056C48.1096 159.056 47.5076 158.832 47.0176 158.384ZM47.4656 156.662C47.4656 157.46 48.1096 158.048 48.8516 158.048C49.6216 158.048 50.2236 157.488 50.2236 156.662C50.2236 155.836 49.5936 155.276 48.8516 155.276C48.0816 155.276 47.4656 155.836 47.4656 156.662ZM3.70109 171.804L3.25309 170.754L6.61309 169.144H7.41109V179H6.20709V170.642L3.70109 171.804ZM9.19653 174.1C9.19653 172.588 9.54653 171.37 10.2605 170.46C10.9605 169.55 11.9965 169.088 13.3545 169.088C16.1405 169.088 17.5265 170.922 17.5265 174.1C17.5265 175.626 17.1765 176.83 16.4905 177.74C15.7905 178.65 14.7545 179.112 13.3825 179.112C12.0665 179.112 11.0445 178.65 10.3025 177.726C9.56053 176.802 9.19653 175.598 9.19653 174.1ZM10.4845 174.1C10.4845 176.494 11.5765 177.922 13.3825 177.922C15.2865 177.922 16.2385 176.648 16.2385 174.1C16.2385 171.552 15.2725 170.278 13.3545 170.278C11.4085 170.278 10.4845 171.678 10.4845 174.1ZM24.1862 170.39H18.2502V169.2H25.6842V169.998L20.8122 179H19.4822L24.1862 170.39ZM26.5205 179C26.0025 179.056 25.6105 178.762 25.6105 178.258C25.6105 177.768 25.9185 177.46 26.4645 177.46C27.0805 177.46 27.4865 177.88 27.4865 178.664C27.4865 180.064 26.7165 180.778 25.6945 181.016L25.4005 180.358C25.7085 180.274 25.9885 180.106 26.2405 179.84C26.4785 179.574 26.5765 179.294 26.5205 179ZM36.653 173.918C36.653 175.584 36.261 176.872 35.463 177.768C34.665 178.678 33.601 179.126 32.271 179.126C30.647 179.126 29.373 178.44 28.743 177.39L29.751 176.69C30.311 177.474 31.333 177.922 32.439 177.922C33.349 177.922 34.077 177.558 34.651 176.83C35.225 176.116 35.463 175.22 35.393 174.156C34.931 175.22 33.769 176.004 32.215 176.004C31.123 176.004 30.227 175.696 29.527 175.066C28.813 174.45 28.463 173.638 28.463 172.644C28.463 171.552 28.841 170.684 29.597 170.04C30.353 169.396 31.361 169.074 32.607 169.074C35.127 169.074 36.653 170.838 36.653 173.918ZM35.183 172.602C34.973 171.3 34.077 170.278 32.467 170.278C30.787 170.278 29.751 171.146 29.751 172.602C29.751 173.988 30.801 174.8 32.439 174.8C33.181 174.8 33.811 174.576 34.301 174.128C34.791 173.68 35.085 173.176 35.183 172.602ZM37.7029 174.1C37.7029 172.588 38.0529 171.37 38.7669 170.46C39.4669 169.55 40.5029 169.088 41.8609 169.088C44.6469 169.088 46.0329 170.922 46.0329 174.1C46.0329 175.626 45.6829 176.83 44.9969 177.74C44.2969 178.65 43.2609 179.112 41.8889 179.112C40.5729 179.112 39.5509 178.65 38.8089 177.726C38.0669 176.802 37.7029 175.598 37.7029 174.1ZM38.9909 174.1C38.9909 176.494 40.0829 177.922 41.8889 177.922C43.7929 177.922 44.7449 176.648 44.7449 174.1C44.7449 171.552 43.7789 170.278 41.8609 170.278C39.9149 170.278 38.9909 171.678 38.9909 174.1ZM46.9666 171.804L46.5186 170.754L49.8786 169.144H50.6766V179H49.4726V170.642L46.9666 171.804Z" fill="#1A3341"/>
<path d="M15.7015 199H9.5455V190.6H15.5935V191.62H10.6375V194.236H15.2575V195.232H10.6375V197.98H15.7015V199ZM21.2181 192.76H22.4421L20.0541 195.772L22.5621 199H21.3021L19.3701 196.492L17.4141 199H16.2141L18.7101 195.784L16.3461 192.76H17.6061L19.4061 195.052L21.2181 192.76ZM24.22 201.4H23.212V192.76H24.22V193.54C24.64 192.928 25.312 192.616 26.236 192.616C27.148 192.616 27.88 192.904 28.42 193.492C28.96 194.08 29.224 194.836 29.224 195.772C29.224 196.732 28.936 197.524 28.36 198.16C27.772 198.796 27.028 199.108 26.116 199.108C25.276 199.108 24.64 198.892 24.22 198.472V201.4ZM26.128 193.564C25.216 193.564 24.508 194.152 24.22 194.86V197.188C24.58 197.836 25.18 198.16 26.032 198.16C26.644 198.16 27.16 197.944 27.556 197.512C27.952 197.08 28.156 196.528 28.156 195.844C28.156 194.452 27.376 193.564 26.128 193.564ZM29.869 195.868C29.869 194.92 30.181 194.14 30.793 193.528C31.405 192.916 32.197 192.616 33.169 192.616C34.153 192.616 34.957 192.916 35.569 193.528C36.181 194.14 36.493 194.92 36.493 195.868C36.493 196.816 36.181 197.584 35.569 198.196C34.945 198.808 34.141 199.108 33.169 199.108C32.197 199.108 31.405 198.808 30.793 198.196C30.181 197.584 29.869 196.816 29.869 195.868ZM30.937 195.868C30.937 196.528 31.141 197.08 31.561 197.512C31.981 197.944 32.509 198.16 33.169 198.16C33.829 198.16 34.381 197.944 34.801 197.524C35.221 197.104 35.425 196.552 35.425 195.868C35.425 195.184 35.209 194.632 34.789 194.2C34.357 193.78 33.817 193.564 33.169 193.564C32.521 193.564 31.993 193.78 31.573 194.2C31.153 194.62 30.937 195.184 30.937 195.868ZM38.4995 199H37.4915V192.76H38.4995V193.24C38.7035 192.82 39.2435 192.628 39.7835 192.628C40.3355 192.628 40.7555 192.82 41.0555 193.192L40.4195 193.888C40.2635 193.684 40.0235 193.576 39.6755 193.576C39.1355 193.576 38.6435 194.02 38.4995 194.656V199ZM42.4841 193.72H41.1881V192.76H42.4841V191.164H43.4921V192.76H45.6401V193.72H43.4921V196.468C43.4921 197.68 43.8041 198.124 44.5721 198.124C44.9441 198.124 45.3281 197.98 45.7001 197.68L46.1561 198.424C45.7601 198.868 45.1721 199.084 44.3921 199.084C43.1561 199.084 42.4841 198.268 42.4841 196.732V193.72ZM50.5952 197.296C50.5952 196.456 49.1672 196.324 48.0272 196C47.2472 195.772 46.6232 195.256 46.6232 194.404C46.6232 193.3 47.6672 192.616 49.2152 192.616C50.2592 192.616 51.0992 193.06 51.5432 193.696L50.8352 194.356C50.4392 193.828 49.8392 193.564 49.0352 193.564C48.3152 193.564 47.6912 193.84 47.6912 194.356C47.6912 195.088 49.1192 195.22 50.2592 195.568C51.0272 195.808 51.6512 196.384 51.6512 197.284C51.6512 198.496 50.6792 199.108 49.1552 199.108C47.8712 199.108 46.7792 198.532 46.3352 197.632L47.1392 197.068C47.5112 197.728 48.3632 198.16 49.3232 198.16C50.1752 198.16 50.5952 197.872 50.5952 197.296Z" fill="#76848D"/>
<path d="M194.568 519.056L193.518 518.58C194.036 517.068 195.394 516.074 197.424 516.074C198.39 516.074 199.188 516.298 199.804 516.746C200.42 517.194 200.728 517.796 200.728 518.538C200.728 519.672 200.126 520.512 199.006 520.834C200.084 520.904 200.952 521.716 200.952 523.172C200.952 524.096 200.616 524.824 199.944 525.342C199.272 525.86 198.418 526.126 197.368 526.126C195.226 526.126 193.742 525.104 193.252 523.494L194.386 523.004C194.988 524.278 196.01 524.922 197.452 524.922C198.81 524.922 199.664 524.292 199.664 523.186C199.664 522.108 198.824 521.562 197.144 521.562H196.052V520.4H196.92C198.446 520.4 199.44 519.714 199.44 518.776C199.44 517.81 198.642 517.264 197.368 517.264C195.87 517.264 194.96 518.034 194.568 519.056ZM202.103 521.1C202.103 519.588 202.453 518.37 203.167 517.46C203.867 516.55 204.903 516.088 206.261 516.088C209.047 516.088 210.433 517.922 210.433 521.1C210.433 522.626 210.083 523.83 209.397 524.74C208.697 525.65 207.661 526.112 206.289 526.112C204.973 526.112 203.951 525.65 203.209 524.726C202.467 523.802 202.103 522.598 202.103 521.1ZM203.391 521.1C203.391 523.494 204.483 524.922 206.289 524.922C208.193 524.922 209.145 523.648 209.145 521.1C209.145 518.552 208.179 517.278 206.261 517.278C204.315 517.278 203.391 518.678 203.391 521.1ZM211.576 525.202C211.576 524.81 211.94 524.418 212.444 524.418C212.906 524.418 213.284 524.81 213.284 525.202C213.284 525.65 212.934 526.028 212.444 526.028C211.94 526.028 211.576 525.65 211.576 525.202ZM218.306 520.414H218.74C219.37 520.414 219.888 520.26 220.322 519.966C220.742 519.672 220.952 519.28 220.952 518.818C220.952 517.768 220.126 517.236 218.488 517.236C216.92 517.236 216.066 517.81 216.066 518.818C216.066 519.728 217.004 520.414 218.306 520.414ZM218.712 521.52H218.362C217.606 521.52 216.976 521.688 216.486 522.01C215.996 522.332 215.744 522.738 215.744 523.228C215.744 524.292 216.724 524.964 218.502 524.964C220.308 524.964 221.274 524.32 221.274 523.242C221.274 522.164 220.238 521.52 218.712 521.52ZM221.47 525.37C220.756 525.874 219.762 526.126 218.516 526.126C217.27 526.126 216.276 525.874 215.548 525.384C214.82 524.894 214.456 524.222 214.456 523.354C214.456 522.22 215.198 521.324 216.388 520.932C215.31 520.582 214.778 519.728 214.778 518.734C214.778 517.11 216.15 516.074 218.502 516.074C220.868 516.074 222.24 517.11 222.24 518.734C222.24 519.672 221.722 520.386 220.686 520.862C221.932 521.24 222.548 522.052 222.548 523.298C222.548 524.18 222.184 524.88 221.47 525.37ZM226.076 526.21L225.152 525.678L232.39 515.892L233.272 516.536L226.076 526.21ZM223.64 518.552C223.64 517.852 223.878 517.278 224.368 516.83C224.858 516.382 225.46 516.158 226.202 516.158C226.93 516.158 227.532 516.382 228.022 516.83C228.512 517.278 228.75 517.852 228.75 518.552C228.75 519.238 228.512 519.812 228.022 520.26C227.532 520.708 226.93 520.932 226.202 520.932C225.46 520.932 224.858 520.708 224.368 520.26C223.878 519.812 223.64 519.238 223.64 518.552ZM224.816 518.552C224.816 519.35 225.46 519.938 226.202 519.938C226.972 519.938 227.574 519.378 227.574 518.552C227.574 517.726 226.944 517.166 226.202 517.166C225.432 517.166 224.816 517.726 224.816 518.552ZM230.374 525.384C229.884 524.936 229.646 524.362 229.646 523.662C229.646 522.962 229.884 522.388 230.374 521.94C230.864 521.506 231.466 521.282 232.208 521.282C232.936 521.282 233.538 521.506 234.028 521.94C234.518 522.388 234.756 522.962 234.756 523.662C234.756 524.348 234.518 524.922 234.028 525.37C233.538 525.832 232.936 526.056 232.208 526.056C231.466 526.056 230.864 525.832 230.374 525.384ZM230.822 523.662C230.822 524.46 231.466 525.048 232.208 525.048C232.978 525.048 233.58 524.488 233.58 523.662C233.58 522.836 232.95 522.276 232.208 522.276C231.438 522.276 230.822 522.836 230.822 523.662ZM194.722 539.434L193.7 539.07C194.05 537.334 195.366 536.088 197.452 536.088C199.468 536.088 200.7 537.25 200.7 539.028C200.7 539.966 200.294 540.904 199.79 541.576C199.538 541.926 199.216 542.262 198.838 542.612C198.068 543.298 197.522 543.662 196.724 544.166L195.646 544.838H201.064V546H193.434V545.048L195.562 543.634C195.94 543.396 196.206 543.214 196.36 543.102C196.514 543.004 196.766 542.822 197.102 542.584C197.438 542.346 197.69 542.136 197.858 541.982C198.012 541.828 198.222 541.632 198.46 541.38C199.104 540.68 199.342 540.036 199.412 539.154C199.412 537.88 198.586 537.306 197.368 537.306C196.612 537.306 196.01 537.516 195.576 537.936C195.142 538.356 194.848 538.86 194.722 539.434ZM202.034 541.1C202.034 539.588 202.384 538.37 203.098 537.46C203.798 536.55 204.834 536.088 206.192 536.088C208.978 536.088 210.364 537.922 210.364 541.1C210.364 542.626 210.014 543.83 209.328 544.74C208.628 545.65 207.592 546.112 206.22 546.112C204.904 546.112 203.882 545.65 203.14 544.726C202.398 543.802 202.034 542.598 202.034 541.1ZM203.322 541.1C203.322 543.494 204.414 544.922 206.22 544.922C208.124 544.922 209.076 543.648 209.076 541.1C209.076 538.552 208.11 537.278 206.192 537.278C204.246 537.278 203.322 538.678 203.322 541.1ZM217.024 537.39H211.088V536.2H218.522V536.998L213.65 546H212.32L217.024 537.39ZM219.358 546C218.84 546.056 218.448 545.762 218.448 545.258C218.448 544.768 218.756 544.46 219.302 544.46C219.918 544.46 220.324 544.88 220.324 545.664C220.324 547.064 219.554 547.778 218.532 548.016L218.238 547.358C218.546 547.274 218.826 547.106 219.078 546.84C219.316 546.574 219.414 546.294 219.358 546ZM226.957 537.39H221.021V536.2H228.455V536.998L223.583 546H222.253L226.957 537.39ZM229.201 541.366C229.201 539.672 229.621 538.37 230.447 537.446C231.273 536.536 232.309 536.074 233.555 536.074C235.193 536.074 236.481 536.816 237.027 537.992L236.075 538.636C235.501 537.726 234.647 537.278 233.499 537.278C232.631 537.278 231.903 537.614 231.315 538.286C230.727 538.972 230.433 539.896 230.447 541.086C230.993 540.064 232.267 539.448 233.667 539.448C234.801 539.448 235.711 539.742 236.369 540.344C237.027 540.946 237.363 541.744 237.363 542.724C237.363 543.718 236.999 544.544 236.257 545.174C235.515 545.804 234.591 546.126 233.485 546.126C230.839 546.126 229.201 544.404 229.201 541.366ZM230.601 542.556C230.867 543.942 231.917 544.922 233.471 544.922C234.227 544.922 234.857 544.726 235.347 544.32C235.837 543.928 236.075 543.41 236.075 542.78C236.075 541.394 235.095 540.652 233.597 540.652C232.771 540.652 232.085 540.848 231.553 541.24C231.007 541.632 230.699 542.066 230.601 542.556ZM243.985 537.39H238.049V536.2H245.483V536.998L240.611 546H239.281L243.985 537.39Z" fill="#1A3341"/>
<path d="M200.044 566H193.888V557.6H199.936V558.62H194.98V561.236H199.6V562.232H194.98V564.98H200.044V566ZM205.561 559.76H206.785L204.397 562.772L206.905 566H205.645L203.713 563.492L201.757 566H200.557L203.053 562.784L200.689 559.76H201.949L203.749 562.052L205.561 559.76ZM208.563 568.4H207.555V559.76H208.563V560.54C208.983 559.928 209.655 559.616 210.579 559.616C211.491 559.616 212.223 559.904 212.763 560.492C213.303 561.08 213.567 561.836 213.567 562.772C213.567 563.732 213.279 564.524 212.703 565.16C212.115 565.796 211.371 566.108 210.459 566.108C209.619 566.108 208.983 565.892 208.563 565.472V568.4ZM210.471 560.564C209.559 560.564 208.851 561.152 208.563 561.86V564.188C208.923 564.836 209.523 565.16 210.375 565.16C210.987 565.16 211.503 564.944 211.899 564.512C212.295 564.08 212.499 563.528 212.499 562.844C212.499 561.452 211.719 560.564 210.471 560.564ZM214.211 562.868C214.211 561.92 214.523 561.14 215.135 560.528C215.747 559.916 216.539 559.616 217.511 559.616C218.495 559.616 219.299 559.916 219.911 560.528C220.523 561.14 220.836 561.92 220.836 562.868C220.836 563.816 220.523 564.584 219.911 565.196C219.287 565.808 218.483 566.108 217.511 566.108C216.539 566.108 215.747 565.808 215.135 565.196C214.523 564.584 214.211 563.816 214.211 562.868ZM215.279 562.868C215.279 563.528 215.483 564.08 215.903 564.512C216.323 564.944 216.851 565.16 217.511 565.16C218.171 565.16 218.723 564.944 219.143 564.524C219.563 564.104 219.767 563.552 219.767 562.868C219.767 562.184 219.551 561.632 219.131 561.2C218.699 560.78 218.159 560.564 217.511 560.564C216.863 560.564 216.335 560.78 215.915 561.2C215.495 561.62 215.279 562.184 215.279 562.868ZM222.842 566H221.834V559.76H222.842V560.24C223.046 559.82 223.586 559.628 224.126 559.628C224.678 559.628 225.098 559.82 225.398 560.192L224.762 560.888C224.606 560.684 224.366 560.576 224.018 560.576C223.478 560.576 222.986 561.02 222.842 561.656V566ZM226.827 560.72H225.531V559.76H226.827V558.164H227.835V559.76H229.983V560.72H227.835V563.468C227.835 564.68 228.147 565.124 228.915 565.124C229.287 565.124 229.671 564.98 230.043 564.68L230.499 565.424C230.103 565.868 229.515 566.084 228.735 566.084C227.499 566.084 226.827 565.268 226.827 563.732V560.72ZM234.938 564.296C234.938 563.456 233.51 563.324 232.37 563C231.59 562.772 230.966 562.256 230.966 561.404C230.966 560.3 232.01 559.616 233.558 559.616C234.602 559.616 235.442 560.06 235.886 560.696L235.178 561.356C234.782 560.828 234.182 560.564 233.378 560.564C232.658 560.564 232.034 560.84 232.034 561.356C232.034 562.088 233.462 562.22 234.602 562.568C235.37 562.808 235.994 563.384 235.994 564.284C235.994 565.496 235.022 566.108 233.498 566.108C232.214 566.108 231.122 565.532 230.678 564.632L231.482 564.068C231.854 564.728 232.706 565.16 233.666 565.16C234.518 565.16 234.938 564.872 234.938 564.296Z" fill="#76848D"/>
<path d="M20.3093 10.434L19.2873 10.07C19.6373 8.334 20.9533 7.088 23.0393 7.088C25.0553 7.088 26.2873 8.25 26.2873 10.028C26.2873 10.966 25.8813 11.904 25.3773 12.576C25.1253 12.926 24.8033 13.262 24.4253 13.612C23.6553 14.298 23.1093 14.662 22.3113 15.166L21.2333 15.838H26.6513V17H19.0213V16.048L21.1493 14.634C21.5273 14.396 21.7933 14.214 21.9473 14.102C22.1013 14.004 22.3533 13.822 22.6893 13.584C23.0253 13.346 23.2773 13.136 23.4453 12.982C23.5993 12.828 23.8093 12.632 24.0473 12.38C24.6913 11.68 24.9293 11.036 24.9993 10.154C24.9993 8.88 24.1733 8.306 22.9553 8.306C22.1993 8.306 21.5973 8.516 21.1633 8.936C20.7293 9.356 20.4353 9.86 20.3093 10.434ZM28.5876 10.056L27.5376 9.58C28.0556 8.068 29.4136 7.074 31.4436 7.074C32.4096 7.074 33.2076 7.298 33.8236 7.746C34.4396 8.194 34.7476 8.796 34.7476 9.538C34.7476 10.672 34.1456 11.512 33.0256 11.834C34.1036 11.904 34.9716 12.716 34.9716 14.172C34.9716 15.096 34.6356 15.824 33.9636 16.342C33.2916 16.86 32.4376 17.126 31.3876 17.126C29.2456 17.126 27.7616 16.104 27.2716 14.494L28.4056 14.004C29.0076 15.278 30.0296 15.922 31.4716 15.922C32.8296 15.922 33.6836 15.292 33.6836 14.186C33.6836 13.108 32.8436 12.562 31.1636 12.562H30.0716V11.4H30.9396C32.4656 11.4 33.4596 10.714 33.4596 9.776C33.4596 8.81 32.6616 8.264 31.3876 8.264C29.8896 8.264 28.9796 9.034 28.5876 10.056ZM36.2202 16.202C36.2202 15.81 36.5842 15.418 37.0882 15.418C37.5502 15.418 37.9282 15.81 37.9282 16.202C37.9282 16.65 37.5782 17.028 37.0882 17.028C36.5842 17.028 36.2202 16.65 36.2202 16.202ZM47.2337 11.918C47.2337 13.584 46.8417 14.872 46.0437 15.768C45.2457 16.678 44.1817 17.126 42.8517 17.126C41.2277 17.126 39.9537 16.44 39.3237 15.39L40.3317 14.69C40.8917 15.474 41.9137 15.922 43.0197 15.922C43.9297 15.922 44.6577 15.558 45.2317 14.83C45.8057 14.116 46.0437 13.22 45.9737 12.156C45.5117 13.22 44.3497 14.004 42.7957 14.004C41.7037 14.004 40.8077 13.696 40.1077 13.066C39.3937 12.45 39.0437 11.638 39.0437 10.644C39.0437 9.552 39.4217 8.684 40.1777 8.04C40.9337 7.396 41.9417 7.074 43.1877 7.074C45.7077 7.074 47.2337 8.838 47.2337 11.918ZM45.7637 10.602C45.5537 9.3 44.6577 8.278 43.0477 8.278C41.3677 8.278 40.3317 9.146 40.3317 10.602C40.3317 11.988 41.3817 12.8 43.0197 12.8C43.7617 12.8 44.3917 12.576 44.8817 12.128C45.3717 11.68 45.6657 11.176 45.7637 10.602ZM50.7196 17.21L49.7956 16.678L57.0336 6.892L57.9156 7.536L50.7196 17.21ZM48.2836 9.552C48.2836 8.852 48.5216 8.278 49.0116 7.83C49.5016 7.382 50.1036 7.158 50.8456 7.158C51.5736 7.158 52.1756 7.382 52.6656 7.83C53.1556 8.278 53.3936 8.852 53.3936 9.552C53.3936 10.238 53.1556 10.812 52.6656 11.26C52.1756 11.708 51.5736 11.932 50.8456 11.932C50.1036 11.932 49.5016 11.708 49.0116 11.26C48.5216 10.812 48.2836 10.238 48.2836 9.552ZM49.4596 9.552C49.4596 10.35 50.1036 10.938 50.8456 10.938C51.6156 10.938 52.2176 10.378 52.2176 9.552C52.2176 8.726 51.5876 8.166 50.8456 8.166C50.0756 8.166 49.4596 8.726 49.4596 9.552ZM55.0176 16.384C54.5276 15.936 54.2896 15.362 54.2896 14.662C54.2896 13.962 54.5276 13.388 55.0176 12.94C55.5076 12.506 56.1096 12.282 56.8516 12.282C57.5796 12.282 58.1816 12.506 58.6716 12.94C59.1616 13.388 59.3996 13.962 59.3996 14.662C59.3996 15.348 59.1616 15.922 58.6716 16.37C58.1816 16.832 57.5796 17.056 56.8516 17.056C56.1096 17.056 55.5076 16.832 55.0176 16.384ZM55.4656 14.662C55.4656 15.46 56.1096 16.048 56.8516 16.048C57.6216 16.048 58.2236 15.488 58.2236 14.662C58.2236 13.836 57.5936 13.276 56.8516 13.276C56.0816 13.276 55.4656 13.836 55.4656 14.662ZM7.40813 29.804L6.96013 28.754L10.3201 27.144H11.1181V37H9.91413V28.642L7.40813 29.804ZM12.9036 32.366C12.9036 30.672 13.3236 29.37 14.1496 28.446C14.9756 27.536 16.0116 27.074 17.2576 27.074C18.8956 27.074 20.1836 27.816 20.7296 28.992L19.7776 29.636C19.2036 28.726 18.3496 28.278 17.2016 28.278C16.3336 28.278 15.6056 28.614 15.0176 29.286C14.4296 29.972 14.1356 30.896 14.1496 32.086C14.6956 31.064 15.9696 30.448 17.3696 30.448C18.5036 30.448 19.4136 30.742 20.0716 31.344C20.7296 31.946 21.0656 32.744 21.0656 33.724C21.0656 34.718 20.7016 35.544 19.9596 36.174C19.2176 36.804 18.2936 37.126 17.1876 37.126C14.5416 37.126 12.9036 35.404 12.9036 32.366ZM14.3036 33.556C14.5696 34.942 15.6196 35.922 17.1736 35.922C17.9296 35.922 18.5596 35.726 19.0496 35.32C19.5396 34.928 19.7776 34.41 19.7776 33.78C19.7776 32.394 18.7976 31.652 17.2996 31.652C16.4736 31.652 15.7876 31.848 15.2556 32.24C14.7096 32.632 14.4016 33.066 14.3036 33.556ZM23.1941 30.434L22.1721 30.07C22.5221 28.334 23.8381 27.088 25.9241 27.088C27.9401 27.088 29.1721 28.25 29.1721 30.028C29.1721 30.966 28.7661 31.904 28.2621 32.576C28.0101 32.926 27.6881 33.262 27.3101 33.612C26.5401 34.298 25.9941 34.662 25.1961 35.166L24.1181 35.838H29.5361V37H21.9061V36.048L24.0341 34.634C24.4121 34.396 24.6781 34.214 24.8321 34.102C24.9861 34.004 25.2381 33.822 25.5741 33.584C25.9101 33.346 26.1621 33.136 26.3301 32.982C26.4841 32.828 26.6941 32.632 26.9321 32.38C27.5761 31.68 27.8141 31.036 27.8841 30.154C27.8841 28.88 27.0581 28.306 25.8401 28.306C25.0841 28.306 24.4821 28.516 24.0481 28.936C23.6141 29.356 23.3201 29.86 23.1941 30.434ZM31.4444 37C30.9264 37.056 30.5344 36.762 30.5344 36.258C30.5344 35.768 30.8424 35.46 31.3884 35.46C32.0044 35.46 32.4104 35.88 32.4104 36.664C32.4104 38.064 31.6404 38.778 30.6184 39.016L30.3244 38.358C30.6324 38.274 30.9124 38.106 31.1644 37.84C31.4024 37.574 31.5004 37.294 31.4444 37ZM33.4289 32.366C33.4289 30.672 33.8489 29.37 34.6749 28.446C35.5009 27.536 36.5369 27.074 37.7829 27.074C39.4209 27.074 40.7089 27.816 41.2549 28.992L40.3029 29.636C39.7289 28.726 38.8749 28.278 37.7269 28.278C36.8589 28.278 36.1309 28.614 35.5429 29.286C34.9549 29.972 34.6609 30.896 34.6749 32.086C35.2209 31.064 36.4949 30.448 37.8949 30.448C39.0289 30.448 39.9389 30.742 40.5969 31.344C41.2549 31.946 41.5909 32.744 41.5909 33.724C41.5909 34.718 41.2269 35.544 40.4849 36.174C39.7429 36.804 38.8189 37.126 37.7129 37.126C35.0669 37.126 33.4289 35.404 33.4289 32.366ZM34.8289 33.556C35.0949 34.942 36.1449 35.922 37.6989 35.922C38.4549 35.922 39.0849 35.726 39.5749 35.32C40.0649 34.928 40.3029 34.41 40.3029 33.78C40.3029 32.394 39.3229 31.652 37.8249 31.652C36.9989 31.652 36.3129 31.848 35.7809 32.24C35.2349 32.632 34.9269 33.066 34.8289 33.556ZM44.0274 32.492L43.0194 32.226L43.5934 27.2H49.7534V28.39H44.6714L44.3074 31.022C44.7974 30.658 45.5394 30.476 46.5334 30.476C47.6814 30.476 48.5774 30.784 49.2354 31.386C49.8794 32.002 50.2014 32.786 50.2014 33.752C50.2014 34.718 49.8374 35.53 49.1234 36.16C48.3954 36.804 47.4854 37.126 46.4074 37.126C44.5734 37.126 43.0474 36.258 42.4174 34.732L43.5374 34.256C43.9434 35.194 44.9934 35.936 46.4074 35.936C48.0174 35.936 48.9134 35.012 48.9134 33.794C48.9134 32.492 47.8634 31.652 46.1974 31.652C45.3014 31.652 44.5734 31.932 44.0274 32.492ZM55.1281 31.414H55.5621C56.1921 31.414 56.7101 31.26 57.1441 30.966C57.5641 30.672 57.7741 30.28 57.7741 29.818C57.7741 28.768 56.9481 28.236 55.3101 28.236C53.7421 28.236 52.8881 28.81 52.8881 29.818C52.8881 30.728 53.8261 31.414 55.1281 31.414ZM55.5341 32.52H55.1841C54.4281 32.52 53.7981 32.688 53.3081 33.01C52.8181 33.332 52.5661 33.738 52.5661 34.228C52.5661 35.292 53.5461 35.964 55.3241 35.964C57.1301 35.964 58.0961 35.32 58.0961 34.242C58.0961 33.164 57.0601 32.52 55.5341 32.52ZM58.2921 36.37C57.5781 36.874 56.5841 37.126 55.3381 37.126C54.0921 37.126 53.0981 36.874 52.3701 36.384C51.6421 35.894 51.2781 35.222 51.2781 34.354C51.2781 33.22 52.0201 32.324 53.2101 31.932C52.1321 31.582 51.6001 30.728 51.6001 29.734C51.6001 28.11 52.9721 27.074 55.3241 27.074C57.6901 27.074 59.0621 28.11 59.0621 29.734C59.0621 30.672 58.5441 31.386 57.5081 31.862C58.7541 32.24 59.3701 33.052 59.3701 34.298C59.3701 35.18 59.0061 35.88 58.2921 36.37Z" fill="#1A3341"/>
<path d="M19.5192 57H18.4272V48.6H19.5192V57ZM30.0703 52.86V57H29.0623V53.172C29.0623 52.104 28.6303 51.576 27.7663 51.576C26.9863 51.576 26.4103 51.96 26.0503 52.716V57H25.0423V52.848C25.0423 52.092 24.5503 51.576 23.7463 51.576C22.9423 51.576 22.3063 52.176 22.0303 52.836V57H21.0223V50.76H22.0303V51.6C22.4023 51.024 23.1223 50.628 23.9383 50.628C24.8263 50.628 25.4383 50.952 25.7743 51.6C26.2663 50.952 26.9503 50.628 27.8263 50.628C29.2183 50.628 30.0703 51.324 30.0703 52.86ZM32.34 59.4H31.332V50.76H32.34V51.54C32.76 50.928 33.432 50.616 34.356 50.616C35.268 50.616 36 50.904 36.54 51.492C37.08 52.08 37.344 52.836 37.344 53.772C37.344 54.732 37.056 55.524 36.48 56.16C35.892 56.796 35.148 57.108 34.236 57.108C33.396 57.108 32.76 56.892 32.34 56.472V59.4ZM34.248 51.564C33.336 51.564 32.628 52.152 32.34 52.86V55.188C32.7 55.836 33.3 56.16 34.152 56.16C34.764 56.16 35.28 55.944 35.676 55.512C36.072 55.08 36.276 54.528 36.276 53.844C36.276 52.452 35.496 51.564 34.248 51.564ZM37.989 53.868C37.989 52.92 38.301 52.14 38.913 51.528C39.525 50.916 40.317 50.616 41.289 50.616C42.273 50.616 43.077 50.916 43.689 51.528C44.301 52.14 44.613 52.92 44.613 53.868C44.613 54.816 44.301 55.584 43.689 56.196C43.065 56.808 42.261 57.108 41.289 57.108C40.317 57.108 39.525 56.808 38.913 56.196C38.301 55.584 37.989 54.816 37.989 53.868ZM39.057 53.868C39.057 54.528 39.261 55.08 39.681 55.512C40.101 55.944 40.629 56.16 41.289 56.16C41.949 56.16 42.501 55.944 42.921 55.524C43.341 55.104 43.545 54.552 43.545 53.868C43.545 53.184 43.329 52.632 42.909 52.2C42.477 51.78 41.937 51.564 41.289 51.564C40.641 51.564 40.113 51.78 39.693 52.2C39.273 52.62 39.057 53.184 39.057 53.868ZM46.6195 57H45.6115V50.76H46.6195V51.24C46.8235 50.82 47.3635 50.628 47.9035 50.628C48.4555 50.628 48.8755 50.82 49.1755 51.192L48.5395 51.888C48.3835 51.684 48.1435 51.576 47.7955 51.576C47.2555 51.576 46.7635 52.02 46.6195 52.656V57ZM50.6041 51.72H49.3081V50.76H50.6041V49.164H51.6121V50.76H53.7601V51.72H51.6121V54.468C51.6121 55.68 51.9241 56.124 52.6921 56.124C53.0641 56.124 53.4481 55.98 53.8201 55.68L54.2761 56.424C53.8801 56.868 53.2921 57.084 52.5121 57.084C51.2761 57.084 50.6041 56.268 50.6041 54.732V51.72ZM58.7152 55.296C58.7152 54.456 57.2872 54.324 56.1472 54C55.3672 53.772 54.7432 53.256 54.7432 52.404C54.7432 51.3 55.7872 50.616 57.3352 50.616C58.3792 50.616 59.2192 51.06 59.6632 51.696L58.9552 52.356C58.5592 51.828 57.9592 51.564 57.1552 51.564C56.4352 51.564 55.8112 51.84 55.8112 52.356C55.8112 53.088 57.2392 53.22 58.3792 53.568C59.1472 53.808 59.7712 54.384 59.7712 55.284C59.7712 56.496 58.7992 57.108 57.2752 57.108C55.9912 57.108 54.8992 56.532 54.4552 55.632L55.2592 55.068C55.6312 55.728 56.4832 56.16 57.4432 56.16C58.2952 56.16 58.7152 55.872 58.7152 55.296Z" fill="#76848D"/>
<path d="M13.5772 306.056L12.5272 305.58C13.0452 304.068 14.4032 303.074 16.4332 303.074C17.3992 303.074 18.1972 303.298 18.8132 303.746C19.4292 304.194 19.7372 304.796 19.7372 305.538C19.7372 306.672 19.1352 307.512 18.0152 307.834C19.0932 307.904 19.9612 308.716 19.9612 310.172C19.9612 311.096 19.6252 311.824 18.9532 312.342C18.2812 312.86 17.4272 313.126 16.3772 313.126C14.2352 313.126 12.7512 312.104 12.2612 310.494L13.3952 310.004C13.9972 311.278 15.0192 311.922 16.4612 311.922C17.8192 311.922 18.6732 311.292 18.6732 310.186C18.6732 309.108 17.8332 308.562 16.1532 308.562H15.0612V307.4H15.9292C17.4552 307.4 18.4492 306.714 18.4492 305.776C18.4492 304.81 17.6512 304.264 16.3772 304.264C14.8792 304.264 13.9692 305.034 13.5772 306.056ZM26.7258 304.39H20.7898V303.2H28.2238V303.998L23.3518 313H22.0218L26.7258 304.39ZM28.2202 312.202C28.2202 311.81 28.5842 311.418 29.0882 311.418C29.5502 311.418 29.9282 311.81 29.9282 312.202C29.9282 312.65 29.5782 313.028 29.0882 313.028C28.5842 313.028 28.2202 312.65 28.2202 312.202ZM39.2338 307.918C39.2338 309.584 38.8418 310.872 38.0438 311.768C37.2458 312.678 36.1818 313.126 34.8518 313.126C33.2278 313.126 31.9538 312.44 31.3238 311.39L32.3318 310.69C32.8918 311.474 33.9138 311.922 35.0198 311.922C35.9298 311.922 36.6578 311.558 37.2318 310.83C37.8058 310.116 38.0438 309.22 37.9738 308.156C37.5118 309.22 36.3498 310.004 34.7958 310.004C33.7038 310.004 32.8078 309.696 32.1078 309.066C31.3938 308.45 31.0438 307.638 31.0438 306.644C31.0438 305.552 31.4218 304.684 32.1778 304.04C32.9338 303.396 33.9418 303.074 35.1878 303.074C37.7078 303.074 39.2338 304.838 39.2338 307.918ZM37.7638 306.602C37.5538 305.3 36.6578 304.278 35.0478 304.278C33.3678 304.278 32.3318 305.146 32.3318 306.602C32.3318 307.988 33.3818 308.8 35.0198 308.8C35.7618 308.8 36.3918 308.576 36.8818 308.128C37.3718 307.68 37.6658 307.176 37.7638 306.602ZM42.7196 313.21L41.7956 312.678L49.0336 302.892L49.9156 303.536L42.7196 313.21ZM40.2836 305.552C40.2836 304.852 40.5216 304.278 41.0116 303.83C41.5016 303.382 42.1036 303.158 42.8456 303.158C43.5736 303.158 44.1756 303.382 44.6656 303.83C45.1556 304.278 45.3936 304.852 45.3936 305.552C45.3936 306.238 45.1556 306.812 44.6656 307.26C44.1756 307.708 43.5736 307.932 42.8456 307.932C42.1036 307.932 41.5016 307.708 41.0116 307.26C40.5216 306.812 40.2836 306.238 40.2836 305.552ZM41.4596 305.552C41.4596 306.35 42.1036 306.938 42.8456 306.938C43.6156 306.938 44.2176 306.378 44.2176 305.552C44.2176 304.726 43.5876 304.166 42.8456 304.166C42.0756 304.166 41.4596 304.726 41.4596 305.552ZM47.0176 312.384C46.5276 311.936 46.2896 311.362 46.2896 310.662C46.2896 309.962 46.5276 309.388 47.0176 308.94C47.5076 308.506 48.1096 308.282 48.8516 308.282C49.5796 308.282 50.1816 308.506 50.6716 308.94C51.1616 309.388 51.3996 309.962 51.3996 310.662C51.3996 311.348 51.1616 311.922 50.6716 312.37C50.1816 312.832 49.5796 313.056 48.8516 313.056C48.1096 313.056 47.5076 312.832 47.0176 312.384ZM47.4656 310.662C47.4656 311.46 48.1096 312.048 48.8516 312.048C49.6216 312.048 50.2236 311.488 50.2236 310.662C50.2236 309.836 49.5936 309.276 48.8516 309.276C48.0816 309.276 47.4656 309.836 47.4656 310.662ZM2.64989 326.434L1.62789 326.07C1.97789 324.334 3.29389 323.088 5.37989 323.088C7.39589 323.088 8.62789 324.25 8.62789 326.028C8.62789 326.966 8.22189 327.904 7.71789 328.576C7.46589 328.926 7.14389 329.262 6.76589 329.612C5.99589 330.298 5.44989 330.662 4.65189 331.166L3.57389 331.838H8.99189V333H1.36189V332.048L3.48989 330.634C3.86789 330.396 4.13389 330.214 4.28789 330.102C4.44189 330.004 4.69389 329.822 5.02989 329.584C5.36589 329.346 5.61789 329.136 5.78589 328.982C5.93989 328.828 6.14989 328.632 6.38789 328.38C7.03189 327.68 7.26989 327.036 7.33989 326.154C7.33989 324.88 6.51389 324.306 5.29589 324.306C4.53989 324.306 3.93789 324.516 3.50389 324.936C3.06989 325.356 2.77589 325.86 2.64989 326.434ZM11.3902 328.492L10.3822 328.226L10.9562 323.2H17.1162V324.39H12.0342L11.6702 327.022C12.1602 326.658 12.9022 326.476 13.8962 326.476C15.0442 326.476 15.9402 326.784 16.5982 327.386C17.2422 328.002 17.5642 328.786 17.5642 329.752C17.5642 330.718 17.2002 331.53 16.4862 332.16C15.7582 332.804 14.8482 333.126 13.7702 333.126C11.9362 333.126 10.4102 332.258 9.78016 330.732L10.9002 330.256C11.3062 331.194 12.3562 331.936 13.7702 331.936C15.3802 331.936 16.2762 331.012 16.2762 329.794C16.2762 328.492 15.2262 327.652 13.5602 327.652C12.6642 327.652 11.9362 327.932 11.3902 328.492ZM20.0548 328.492L19.0468 328.226L19.6208 323.2H25.7808V324.39H20.6988L20.3348 327.022C20.8248 326.658 21.5668 326.476 22.5608 326.476C23.7088 326.476 24.6048 326.784 25.2628 327.386C25.9068 328.002 26.2288 328.786 26.2288 329.752C26.2288 330.718 25.8648 331.53 25.1508 332.16C24.4228 332.804 23.5128 333.126 22.4348 333.126C20.6008 333.126 19.0748 332.258 18.4448 330.732L19.5648 330.256C19.9708 331.194 21.0208 331.936 22.4348 331.936C24.0448 331.936 24.9408 331.012 24.9408 329.794C24.9408 328.492 23.8908 327.652 22.2248 327.652C21.3288 327.652 20.6008 327.932 20.0548 328.492ZM28.2295 333C27.7115 333.056 27.3195 332.762 27.3195 332.258C27.3195 331.768 27.6275 331.46 28.1735 331.46C28.7895 331.46 29.1955 331.88 29.1955 332.664C29.1955 334.064 28.4255 334.778 27.4035 335.016L27.1095 334.358C27.4175 334.274 27.6975 334.106 27.9495 333.84C28.1875 333.574 28.2855 333.294 28.2295 333ZM30.102 325.804L29.654 324.754L33.014 323.144H33.812V333H32.608V324.642L30.102 325.804ZM36.7175 326.434L35.6955 326.07C36.0455 324.334 37.3615 323.088 39.4475 323.088C41.4635 323.088 42.6955 324.25 42.6955 326.028C42.6955 326.966 42.2895 327.904 41.7855 328.576C41.5335 328.926 41.2115 329.262 40.8335 329.612C40.0635 330.298 39.5175 330.662 38.7195 331.166L37.6415 331.838H43.0595V333H35.4295V332.048L37.5575 330.634C37.9355 330.396 38.2015 330.214 38.3555 330.102C38.5095 330.004 38.7615 329.822 39.0975 329.584C39.4335 329.346 39.6855 329.136 39.8535 328.982C40.0075 328.828 40.2175 328.632 40.4555 328.38C41.0995 327.68 41.3375 327.036 41.4075 326.154C41.4075 324.88 40.5815 324.306 39.3635 324.306C38.6075 324.306 38.0055 324.516 37.5715 324.936C37.1375 325.356 36.8435 325.86 36.7175 326.434ZM45.1497 326.434L44.1277 326.07C44.4777 324.334 45.7937 323.088 47.8797 323.088C49.8957 323.088 51.1277 324.25 51.1277 326.028C51.1277 326.966 50.7217 327.904 50.2177 328.576C49.9657 328.926 49.6437 329.262 49.2657 329.612C48.4957 330.298 47.9497 330.662 47.1517 331.166L46.0737 331.838H51.4917V333H43.8617V332.048L45.9897 330.634C46.3677 330.396 46.6337 330.214 46.7877 330.102C46.9417 330.004 47.1937 329.822 47.5297 329.584C47.8657 329.346 48.1177 329.136 48.2857 328.982C48.4397 328.828 48.6497 328.632 48.8877 328.38C49.5317 327.68 49.7697 327.036 49.8397 326.154C49.8397 324.88 49.0137 324.306 47.7957 324.306C47.0397 324.306 46.4377 324.516 46.0037 324.936C45.5697 325.356 45.2757 325.86 45.1497 326.434Z" fill="#1A3341"/>
<path d="M11.5192 353H10.4272V344.6H11.5192V353ZM22.0703 348.86V353H21.0623V349.172C21.0623 348.104 20.6303 347.576 19.7663 347.576C18.9863 347.576 18.4103 347.96 18.0503 348.716V353H17.0423V348.848C17.0423 348.092 16.5503 347.576 15.7463 347.576C14.9423 347.576 14.3063 348.176 14.0303 348.836V353H13.0223V346.76H14.0303V347.6C14.4023 347.024 15.1223 346.628 15.9383 346.628C16.8263 346.628 17.4383 346.952 17.7743 347.6C18.2663 346.952 18.9503 346.628 19.8263 346.628C21.2183 346.628 22.0703 347.324 22.0703 348.86ZM24.34 355.4H23.332V346.76H24.34V347.54C24.76 346.928 25.432 346.616 26.356 346.616C27.268 346.616 28 346.904 28.54 347.492C29.08 348.08 29.344 348.836 29.344 349.772C29.344 350.732 29.056 351.524 28.48 352.16C27.892 352.796 27.148 353.108 26.236 353.108C25.396 353.108 24.76 352.892 24.34 352.472V355.4ZM26.248 347.564C25.336 347.564 24.628 348.152 24.34 348.86V351.188C24.7 351.836 25.3 352.16 26.152 352.16C26.764 352.16 27.28 351.944 27.676 351.512C28.072 351.08 28.276 350.528 28.276 349.844C28.276 348.452 27.496 347.564 26.248 347.564ZM29.989 349.868C29.989 348.92 30.301 348.14 30.913 347.528C31.525 346.916 32.317 346.616 33.289 346.616C34.273 346.616 35.077 346.916 35.689 347.528C36.301 348.14 36.613 348.92 36.613 349.868C36.613 350.816 36.301 351.584 35.689 352.196C35.065 352.808 34.261 353.108 33.289 353.108C32.317 353.108 31.525 352.808 30.913 352.196C30.301 351.584 29.989 350.816 29.989 349.868ZM31.057 349.868C31.057 350.528 31.261 351.08 31.681 351.512C32.101 351.944 32.629 352.16 33.289 352.16C33.949 352.16 34.501 351.944 34.921 351.524C35.341 351.104 35.545 350.552 35.545 349.868C35.545 349.184 35.329 348.632 34.909 348.2C34.477 347.78 33.937 347.564 33.289 347.564C32.641 347.564 32.113 347.78 31.693 348.2C31.273 348.62 31.057 349.184 31.057 349.868ZM38.6195 353H37.6115V346.76H38.6195V347.24C38.8235 346.82 39.3635 346.628 39.9035 346.628C40.4555 346.628 40.8755 346.82 41.1755 347.192L40.5395 347.888C40.3835 347.684 40.1435 347.576 39.7955 347.576C39.2555 347.576 38.7635 348.02 38.6195 348.656V353ZM42.6041 347.72H41.3081V346.76H42.6041V345.164H43.6121V346.76H45.7601V347.72H43.6121V350.468C43.6121 351.68 43.9241 352.124 44.6921 352.124C45.0641 352.124 45.4481 351.98 45.8201 351.68L46.2761 352.424C45.8801 352.868 45.2921 353.084 44.5121 353.084C43.2761 353.084 42.6041 352.268 42.6041 350.732V347.72ZM50.7152 351.296C50.7152 350.456 49.2872 350.324 48.1472 350C47.3672 349.772 46.7432 349.256 46.7432 348.404C46.7432 347.3 47.7872 346.616 49.3352 346.616C50.3792 346.616 51.2192 347.06 51.6632 347.696L50.9552 348.356C50.5592 347.828 49.9592 347.564 49.1552 347.564C48.4352 347.564 47.8112 347.84 47.8112 348.356C47.8112 349.088 49.2392 349.22 50.3792 349.568C51.1472 349.808 51.7712 350.384 51.7712 351.284C51.7712 352.496 50.7992 353.108 49.2752 353.108C47.9912 353.108 46.8992 352.532 46.4552 351.632L47.2592 351.068C47.6312 351.728 48.4832 352.16 49.4432 352.16C50.2952 352.16 50.7152 351.872 50.7152 351.296Z" fill="#76848D"/>
<path d="M168 293C185.295 293 202.323 297.272 217.569 305.437C232.816 313.602 245.81 325.407 255.396 339.802C264.982 354.198 270.864 370.739 272.518 387.954C274.173 405.17 271.549 422.528 264.881 438.486L253.255 433.628C259.123 419.585 261.432 404.31 259.976 389.16C258.52 374.01 253.344 359.454 244.908 346.786C236.473 334.118 225.038 323.73 211.621 316.545C198.204 309.36 183.22 305.6 168 305.6V293Z" fill="url(#paint0_linear_6001_39839)"/>
<path d="M264.805 438.668C258.214 454.356 247.909 468.207 234.778 479.029C221.646 489.851 206.081 497.32 189.423 500.791C172.765 504.263 155.512 503.634 139.151 498.959C122.789 494.284 107.809 485.702 95.5005 473.953L104.2 464.838C115.032 475.178 128.215 482.73 142.613 486.844C157.011 490.958 172.193 491.512 186.852 488.456C201.511 485.401 215.209 478.829 226.764 469.306C238.32 459.782 247.388 447.593 253.188 433.788L264.805 438.668Z" fill="url(#paint1_linear_6001_39839)"/>
<path d="M95.4714 473.925C80.2923 459.425 69.8079 440.708 65.3716 420.19C60.9353 399.673 62.7507 378.296 70.5836 358.82C78.4165 339.345 91.9071 322.664 109.314 310.931C126.721 299.199 147.245 292.953 168.237 293L168.209 305.6C149.736 305.559 131.675 311.055 116.356 321.38C101.038 331.704 89.1665 346.383 82.2735 363.522C75.3806 380.661 73.783 399.472 77.687 417.527C81.591 435.583 90.8173 452.054 104.175 464.814L95.4714 473.925Z" fill="url(#paint2_linear_6001_39839)"/>
<path d="M140.7 408.369V411.217H121.212V408.657L130.46 403.313C132.273 402.267 133.617 401.425 134.492 400.785C135.367 400.123 135.953 399.515 136.252 398.961C136.572 398.406 136.732 397.745 136.732 396.977V396.657C136.732 395.419 136.209 394.47 135.164 393.809C134.14 393.147 132.657 392.817 130.716 392.817C128.711 392.817 127.185 393.169 126.14 393.873C125.116 394.577 124.604 395.601 124.604 396.945V397.585H121.404V396.913C121.404 394.63 122.204 392.881 123.804 391.665C125.404 390.449 127.687 389.841 130.652 389.841C133.553 389.841 135.825 390.438 137.468 391.633C139.111 392.827 139.932 394.47 139.932 396.561V396.881C139.932 398.011 139.708 399.003 139.26 399.857C138.812 400.71 138.033 401.574 136.924 402.449C135.836 403.323 134.236 404.369 132.124 405.585L127.26 408.369H140.7ZM154.968 411.601C152.835 411.601 150.947 411.217 149.304 410.449C147.683 409.681 146.413 408.603 145.496 407.217C144.6 405.83 144.152 404.241 144.152 402.449V399.025C144.152 397.211 144.6 395.611 145.496 394.225C146.413 392.838 147.683 391.761 149.304 390.993C150.947 390.225 152.835 389.841 154.968 389.841C157.08 389.841 158.947 390.225 160.568 390.993C162.189 391.761 163.448 392.838 164.344 394.225C165.24 395.611 165.688 397.211 165.688 399.025V402.449C165.688 404.262 165.24 405.862 164.344 407.249C163.448 408.614 162.189 409.681 160.568 410.449C158.947 411.217 157.08 411.601 154.968 411.601ZM154.968 408.625C157.315 408.625 159.16 408.081 160.504 406.993C161.848 405.905 162.52 404.401 162.52 402.481V398.993C162.52 397.094 161.837 395.59 160.472 394.481C159.128 393.371 157.283 392.817 154.936 392.817C152.568 392.817 150.701 393.371 149.336 394.481C147.992 395.569 147.32 397.073 147.32 398.993V402.481C147.32 404.401 147.992 405.905 149.336 406.993C150.701 408.081 152.579 408.625 154.968 408.625ZM189.092 408.369V411.217H169.604V408.657L178.852 403.313C180.666 402.267 182.01 401.425 182.884 400.785C183.759 400.123 184.346 399.515 184.644 398.961C184.964 398.406 185.124 397.745 185.124 396.977V396.657C185.124 395.419 184.602 394.47 183.556 393.809C182.532 393.147 181.05 392.817 179.108 392.817C177.103 392.817 175.578 393.169 174.532 393.873C173.508 394.577 172.996 395.601 172.996 396.945V397.585H169.796V396.913C169.796 394.63 170.596 392.881 172.196 391.665C173.796 390.449 176.079 389.841 179.044 389.841C181.946 389.841 184.218 390.438 185.86 391.633C187.503 392.827 188.324 394.47 188.324 396.561V396.881C188.324 398.011 188.1 399.003 187.652 399.857C187.204 400.71 186.426 401.574 185.316 402.449C184.228 403.323 182.628 404.369 180.516 405.585L175.652 408.369H189.092ZM204.065 398.545C206.902 398.63 209.067 399.195 210.561 400.241C212.075 401.265 212.833 402.694 212.833 404.529V404.945C212.833 407.099 211.969 408.753 210.241 409.905C208.513 411.035 205.995 411.601 202.689 411.601C199.467 411.579 196.971 411.014 195.201 409.905C193.451 408.795 192.577 407.227 192.577 405.201V404.977H195.745V405.201C195.745 406.267 196.363 407.11 197.601 407.729C198.838 408.326 200.545 408.625 202.721 408.625C205.003 408.625 206.731 408.326 207.905 407.729C209.078 407.11 209.665 406.203 209.665 405.009V404.625C209.665 402.385 207.382 401.265 202.817 401.265H199.361V398.449L207.265 393.073H192.961V390.225H212.321V393.073L204.065 398.545Z" fill="#1A3341"/>
<path d="M141.262 115.369V118.217H121.774V115.657L131.022 110.313C132.836 109.267 134.18 108.425 135.054 107.785C135.929 107.123 136.516 106.515 136.814 105.961C137.134 105.406 137.294 104.745 137.294 103.977V103.657C137.294 102.419 136.772 101.47 135.726 100.809C134.702 100.147 133.22 99.8168 131.278 99.8168C129.273 99.8168 127.748 100.169 126.702 100.873C125.678 101.577 125.166 102.601 125.166 103.945V104.585H121.966V103.913C121.966 101.63 122.766 99.8808 124.366 98.6648C125.966 97.4488 128.249 96.8408 131.214 96.8408C134.116 96.8408 136.388 97.4381 138.03 98.6328C139.673 99.8275 140.494 101.47 140.494 103.561V103.881C140.494 105.011 140.27 106.003 139.822 106.857C139.374 107.71 138.596 108.574 137.486 109.449C136.398 110.323 134.798 111.369 132.686 112.585L127.822 115.369H141.262ZM155.531 118.601C153.397 118.601 151.509 118.217 149.867 117.449C148.245 116.681 146.976 115.603 146.059 114.217C145.163 112.83 144.715 111.241 144.715 109.449V106.025C144.715 104.211 145.163 102.611 146.059 101.225C146.976 99.8381 148.245 98.7608 149.867 97.9928C151.509 97.2248 153.397 96.8408 155.531 96.8408C157.643 96.8408 159.509 97.2248 161.131 97.9928C162.752 98.7608 164.011 99.8381 164.907 101.225C165.803 102.611 166.251 104.211 166.251 106.025V109.449C166.251 111.262 165.803 112.862 164.907 114.249C164.011 115.614 162.752 116.681 161.131 117.449C159.509 118.217 157.643 118.601 155.531 118.601ZM155.531 115.625C157.877 115.625 159.723 115.081 161.067 113.993C162.411 112.905 163.083 111.401 163.083 109.481V105.993C163.083 104.094 162.4 102.59 161.035 101.481C159.691 100.371 157.845 99.8168 155.499 99.8168C153.131 99.8168 151.264 100.371 149.899 101.481C148.555 102.569 147.883 104.073 147.883 105.993V109.481C147.883 111.401 148.555 112.905 149.899 113.993C151.264 115.081 153.141 115.625 155.531 115.625ZM189.655 115.369V118.217H170.167V115.657L179.415 110.313C181.228 109.267 182.572 108.425 183.447 107.785C184.322 107.123 184.908 106.515 185.207 105.961C185.527 105.406 185.687 104.745 185.687 103.977V103.657C185.687 102.419 185.164 101.47 184.119 100.809C183.095 100.147 181.612 99.8168 179.671 99.8168C177.666 99.8168 176.14 100.169 175.095 100.873C174.071 101.577 173.559 102.601 173.559 103.945V104.585H170.359V103.913C170.359 101.63 171.159 99.8808 172.759 98.6648C174.359 97.4488 176.642 96.8408 179.607 96.8408C182.508 96.8408 184.78 97.4381 186.423 98.6328C188.066 99.8275 188.887 101.47 188.887 103.561V103.881C188.887 105.011 188.663 106.003 188.215 106.857C187.767 107.71 186.988 108.574 185.879 109.449C184.791 110.323 183.191 111.369 181.079 112.585L176.215 115.369H189.655ZM212.851 115.369V118.217H193.363V115.657L202.611 110.313C204.424 109.267 205.768 108.425 206.643 107.785C207.518 107.123 208.104 106.515 208.403 105.961C208.723 105.406 208.883 104.745 208.883 103.977V103.657C208.883 102.419 208.36 101.47 207.315 100.809C206.291 100.147 204.808 99.8168 202.867 99.8168C200.862 99.8168 199.336 100.169 198.291 100.873C197.267 101.577 196.755 102.601 196.755 103.945V104.585H193.555V103.913C193.555 101.63 194.355 99.8808 195.955 98.6648C197.555 97.4488 199.838 96.8408 202.803 96.8408C205.704 96.8408 207.976 97.4381 209.619 98.6328C211.262 99.8275 212.083 101.47 212.083 103.561V103.881C212.083 105.011 211.859 106.003 211.411 106.857C210.963 107.71 210.184 108.574 209.075 109.449C207.987 110.323 206.387 111.369 204.275 112.585L199.411 115.369H212.851Z" fill="#76848D"/>
<path d="M168 0C184.654 1.98594e-07 201.069 3.96132 215.889 11.5569C230.71 19.1525 243.511 30.1644 253.237 43.6835C262.962 57.2027 269.332 72.8412 271.821 89.3079C274.31 105.775 272.846 122.597 267.551 138.387C262.255 154.176 253.28 168.479 241.366 180.116C229.452 191.752 214.942 200.388 199.032 205.31C183.122 210.231 166.27 211.298 149.866 208.422C133.463 205.546 117.979 198.809 104.692 188.768L112.289 178.716C123.981 187.552 137.607 193.481 152.042 196.012C166.477 198.543 181.307 197.604 195.308 193.272C209.309 188.941 222.078 181.342 232.562 171.102C243.047 160.862 250.945 148.275 255.605 134.38C260.264 120.485 261.553 105.682 259.362 91.1909C257.172 76.7002 251.566 62.9383 243.008 51.0415C234.45 39.1447 223.185 29.4542 210.143 22.7701C197.1 16.086 182.655 12.6 168 12.6V0Z" fill="url(#paint3_linear_6001_39839)"/>
<path d="M104.681 188.76C90.7508 178.229 79.6669 164.39 72.433 148.496C65.199 132.602 62.0433 115.155 63.2517 97.7344L75.8215 98.6063C74.7581 113.937 77.5351 129.29 83.901 143.277C90.2669 157.264 100.021 169.442 112.279 178.709L104.681 188.76Z" fill="url(#paint4_linear_6001_39839)"/>
<path d="M63.2551 97.6849C65.1078 71.157 76.9569 46.3202 96.4101 28.1893C115.863 10.0583 141.471 -0.0161591 168.064 3.05176e-05L168.056 12.6C144.655 12.5858 122.12 21.4513 105.001 37.4065C87.8821 53.3618 77.4548 75.2182 75.8245 98.5627L63.2551 97.6849Z" fill="url(#paint5_linear_6001_39839)"/>
<defs>
<linearGradient id="paint0_linear_6001_39839" x1="168" y1="293" x2="168" y2="503" gradientUnits="userSpaceOnUse">
<stop stop-color="#6D73F9"/>
<stop offset="1" stop-color="#9BB8F1"/>
</linearGradient>
<linearGradient id="paint1_linear_6001_39839" x1="68.0971" y1="398" x2="105" y2="482" gradientUnits="userSpaceOnUse">
<stop stop-color="#B7C6EF"/>
<stop offset="0.558752" stop-color="#BECCEE"/>
</linearGradient>
<linearGradient id="paint2_linear_6001_39839" x1="273" y1="493" x2="273" y2="293" gradientUnits="userSpaceOnUse">
<stop stop-color="#CEE8EF"/>
<stop offset="1" stop-color="#CEE8EF"/>
</linearGradient>
<linearGradient id="paint3_linear_6001_39839" x1="168" y1="-2.70748e-06" x2="77.1522" y2="379.37" gradientUnits="userSpaceOnUse">
<stop stop-color="#6D73F9"/>
<stop offset="1" stop-color="#9BB8F1"/>
</linearGradient>
<linearGradient id="paint4_linear_6001_39839" x1="68.0971" y1="105" x2="105" y2="189" gradientUnits="userSpaceOnUse">
<stop stop-color="#B7C6EF"/>
<stop offset="0.558752" stop-color="#BECCEE"/>
</linearGradient>
<linearGradient id="paint5_linear_6001_39839" x1="273" y1="200" x2="273" y2="5.57303e-06" gradientUnits="userSpaceOnUse">
<stop stop-color="#CEE8EF"/>
<stop offset="1" stop-color="#CEE8EF"/>
</linearGradient>
</defs>
</svg>
