<svg width="340" height="333" viewBox="0 0 340 333" fill="none" xmlns="http://www.w3.org/2000/svg">
<path d="M286.312 199H285.268V197.284H280.132V196.588L285.388 190.6H286.312V196.312H287.872V197.284H286.312V199ZM285.268 192.28L281.572 196.312H285.268V192.28ZM294.255 199H293.211V197.284H288.075V196.588L293.331 190.6H294.255V196.312H295.815V197.284H294.255V199ZM293.211 192.28L289.515 196.312H293.211V192.28ZM298.489 199.18L297.697 198.724L303.901 190.336L304.657 190.888L298.489 199.18ZM296.401 192.616C296.401 192.016 296.605 191.524 297.025 191.14C297.445 190.756 297.961 190.564 298.597 190.564C299.221 190.564 299.737 190.756 300.157 191.14C300.577 191.524 300.781 192.016 300.781 192.616C300.781 193.204 300.577 193.696 300.157 194.08C299.737 194.464 299.221 194.656 298.597 194.656C297.961 194.656 297.445 194.464 297.025 194.08C296.605 193.696 296.401 193.204 296.401 192.616ZM297.409 192.616C297.409 193.3 297.961 193.804 298.597 193.804C299.257 193.804 299.773 193.324 299.773 192.616C299.773 191.908 299.233 191.428 298.597 191.428C297.937 191.428 297.409 191.908 297.409 192.616ZM302.173 198.472C301.753 198.088 301.549 197.596 301.549 196.996C301.549 196.396 301.753 195.904 302.173 195.52C302.593 195.148 303.109 194.956 303.745 194.956C304.369 194.956 304.885 195.148 305.305 195.52C305.725 195.904 305.929 196.396 305.929 196.996C305.929 197.584 305.725 198.076 305.305 198.46C304.885 198.856 304.369 199.048 303.745 199.048C303.109 199.048 302.593 198.856 302.173 198.472ZM302.557 196.996C302.557 197.68 303.109 198.184 303.745 198.184C304.405 198.184 304.921 197.704 304.921 196.996C304.921 196.288 304.381 195.808 303.745 195.808C303.085 195.808 302.557 196.288 302.557 196.996Z" fill="#1A3341"/>
<path d="M156.42 322.832L156.036 321.932L158.916 320.552H159.6V329H158.568V321.836L156.42 322.832ZM161.034 322.832L160.65 321.932L163.53 320.552H164.214V329H163.182V321.836L161.034 322.832ZM167.833 329.18L167.041 328.724L173.245 320.336L174.001 320.888L167.833 329.18ZM165.745 322.616C165.745 322.016 165.949 321.524 166.369 321.14C166.789 320.756 167.305 320.564 167.941 320.564C168.565 320.564 169.081 320.756 169.501 321.14C169.921 321.524 170.125 322.016 170.125 322.616C170.125 323.204 169.921 323.696 169.501 324.08C169.081 324.464 168.565 324.656 167.941 324.656C167.305 324.656 166.789 324.464 166.369 324.08C165.949 323.696 165.745 323.204 165.745 322.616ZM166.753 322.616C166.753 323.3 167.305 323.804 167.941 323.804C168.601 323.804 169.117 323.324 169.117 322.616C169.117 321.908 168.577 321.428 167.941 321.428C167.281 321.428 166.753 321.908 166.753 322.616ZM171.517 328.472C171.097 328.088 170.893 327.596 170.893 326.996C170.893 326.396 171.097 325.904 171.517 325.52C171.937 325.148 172.453 324.956 173.089 324.956C173.713 324.956 174.229 325.148 174.649 325.52C175.069 325.904 175.273 326.396 175.273 326.996C175.273 327.584 175.069 328.076 174.649 328.46C174.229 328.856 173.713 329.048 173.089 329.048C172.453 329.048 171.937 328.856 171.517 328.472ZM171.901 326.996C171.901 327.68 172.453 328.184 173.089 328.184C173.749 328.184 174.265 327.704 174.265 326.996C174.265 326.288 173.725 325.808 173.089 325.808C172.429 325.808 171.901 326.288 171.901 326.996Z" fill="#1A3341"/>
<path d="M82.2108 301.832L81.8268 300.932L84.7068 299.552H85.3908V308H84.3588V300.836L82.2108 301.832ZM86.9212 303.8C86.9212 302.504 87.2212 301.46 87.8332 300.68C88.4332 299.9 89.3212 299.504 90.4852 299.504C92.8732 299.504 94.0612 301.076 94.0612 303.8C94.0612 305.108 93.7612 306.14 93.1732 306.92C92.5732 307.7 91.6852 308.096 90.5092 308.096C89.3812 308.096 88.5052 307.7 87.8692 306.908C87.2332 306.116 86.9212 305.084 86.9212 303.8ZM88.0252 303.8C88.0252 305.852 88.9612 307.076 90.5092 307.076C92.1412 307.076 92.9572 305.984 92.9572 303.8C92.9572 301.616 92.1292 300.524 90.4852 300.524C88.8172 300.524 88.0252 301.724 88.0252 303.8ZM97.0454 308.18L96.2534 307.724L102.457 299.336L103.213 299.888L97.0454 308.18ZM94.9574 301.616C94.9574 301.016 95.1614 300.524 95.5814 300.14C96.0014 299.756 96.5174 299.564 97.1534 299.564C97.7774 299.564 98.2934 299.756 98.7134 300.14C99.1334 300.524 99.3374 301.016 99.3374 301.616C99.3374 302.204 99.1334 302.696 98.7134 303.08C98.2934 303.464 97.7774 303.656 97.1534 303.656C96.5174 303.656 96.0014 303.464 95.5814 303.08C95.1614 302.696 94.9574 302.204 94.9574 301.616ZM95.9654 301.616C95.9654 302.3 96.5174 302.804 97.1534 302.804C97.8134 302.804 98.3294 302.324 98.3294 301.616C98.3294 300.908 97.7894 300.428 97.1534 300.428C96.4934 300.428 95.9654 300.908 95.9654 301.616ZM100.729 307.472C100.309 307.088 100.105 306.596 100.105 305.996C100.105 305.396 100.309 304.904 100.729 304.52C101.149 304.148 101.665 303.956 102.301 303.956C102.925 303.956 103.441 304.148 103.861 304.52C104.281 304.904 104.485 305.396 104.485 305.996C104.485 306.584 104.281 307.076 103.861 307.46C103.441 307.856 102.925 308.048 102.301 308.048C101.665 308.048 101.149 307.856 100.729 307.472ZM101.113 305.996C101.113 306.68 101.665 307.184 102.301 307.184C102.961 307.184 103.477 306.704 103.477 305.996C103.477 305.288 102.937 304.808 102.301 304.808C101.641 304.808 101.113 305.288 101.113 305.996Z" fill="#1A3341"/>
<path d="M51.0575 246.644C51.0575 248.072 50.7215 249.176 50.0375 249.944C49.3535 250.724 48.4415 251.108 47.3015 251.108C45.9095 251.108 44.8175 250.52 44.2775 249.62L45.1415 249.02C45.6215 249.692 46.4975 250.076 47.4455 250.076C48.2255 250.076 48.8495 249.764 49.3415 249.14C49.8335 248.528 50.0375 247.76 49.9775 246.848C49.5815 247.76 48.5855 248.432 47.2535 248.432C46.3175 248.432 45.5495 248.168 44.9495 247.628C44.3375 247.1 44.0375 246.404 44.0375 245.552C44.0375 244.616 44.3615 243.872 45.0095 243.32C45.6575 242.768 46.5215 242.492 47.5895 242.492C49.7495 242.492 51.0575 244.004 51.0575 246.644ZM49.7975 245.516C49.6175 244.4 48.8495 243.524 47.4695 243.524C46.0295 243.524 45.1415 244.268 45.1415 245.516C45.1415 246.704 46.0415 247.4 47.4455 247.4C48.0815 247.4 48.6215 247.208 49.0415 246.824C49.4615 246.44 49.7135 246.008 49.7975 245.516ZM54.0454 251.18L53.2534 250.724L59.4574 242.336L60.2134 242.888L54.0454 251.18ZM51.9574 244.616C51.9574 244.016 52.1614 243.524 52.5814 243.14C53.0014 242.756 53.5174 242.564 54.1534 242.564C54.7774 242.564 55.2934 242.756 55.7134 243.14C56.1334 243.524 56.3374 244.016 56.3374 244.616C56.3374 245.204 56.1334 245.696 55.7134 246.08C55.2934 246.464 54.7774 246.656 54.1534 246.656C53.5174 246.656 53.0014 246.464 52.5814 246.08C52.1614 245.696 51.9574 245.204 51.9574 244.616ZM52.9654 244.616C52.9654 245.3 53.5174 245.804 54.1534 245.804C54.8134 245.804 55.3294 245.324 55.3294 244.616C55.3294 243.908 54.7894 243.428 54.1534 243.428C53.4934 243.428 52.9654 243.908 52.9654 244.616ZM57.7294 250.472C57.3094 250.088 57.1054 249.596 57.1054 248.996C57.1054 248.396 57.3094 247.904 57.7294 247.52C58.1494 247.148 58.6654 246.956 59.3014 246.956C59.9254 246.956 60.4414 247.148 60.8614 247.52C61.2814 247.904 61.4854 248.396 61.4854 248.996C61.4854 249.584 61.2814 250.076 60.8614 250.46C60.4414 250.856 59.9254 251.048 59.3014 251.048C58.6654 251.048 58.1494 250.856 57.7294 250.472ZM58.1134 248.996C58.1134 249.68 58.6654 250.184 59.3014 250.184C59.9614 250.184 60.4774 249.704 60.4774 248.996C60.4774 248.288 59.9374 247.808 59.3014 247.808C58.6414 247.808 58.1134 248.288 58.1134 248.996Z" fill="#1A3341"/>
<path d="M42.8109 201H41.7669V199.284H36.6309V198.588L41.8869 192.6H42.8109V198.312H44.3709V199.284H42.8109V201ZM41.7669 194.28L38.0709 198.312H41.7669V194.28ZM47.0454 201.18L46.2534 200.724L52.4574 192.336L53.2134 192.888L47.0454 201.18ZM44.9574 194.616C44.9574 194.016 45.1614 193.524 45.5814 193.14C46.0014 192.756 46.5174 192.564 47.1534 192.564C47.7774 192.564 48.2934 192.756 48.7134 193.14C49.1334 193.524 49.3374 194.016 49.3374 194.616C49.3374 195.204 49.1334 195.696 48.7134 196.08C48.2934 196.464 47.7774 196.656 47.1534 196.656C46.5174 196.656 46.0014 196.464 45.5814 196.08C45.1614 195.696 44.9574 195.204 44.9574 194.616ZM45.9654 194.616C45.9654 195.3 46.5174 195.804 47.1534 195.804C47.8134 195.804 48.3294 195.324 48.3294 194.616C48.3294 193.908 47.7894 193.428 47.1534 193.428C46.4934 193.428 45.9654 193.908 45.9654 194.616ZM50.7294 200.472C50.3094 200.088 50.1054 199.596 50.1054 198.996C50.1054 198.396 50.3094 197.904 50.7294 197.52C51.1494 197.148 51.6654 196.956 52.3014 196.956C52.9254 196.956 53.4414 197.148 53.8614 197.52C54.2814 197.904 54.4854 198.396 54.4854 198.996C54.4854 199.584 54.2814 200.076 53.8614 200.46C53.4414 200.856 52.9254 201.048 52.3014 201.048C51.6654 201.048 51.1494 200.856 50.7294 200.472ZM51.1134 198.996C51.1134 199.68 51.6654 200.184 52.3014 200.184C52.9614 200.184 53.4774 199.704 53.4774 198.996C53.4774 198.288 52.9374 197.808 52.3014 197.808C51.6414 197.808 51.1134 198.288 51.1134 198.996Z" fill="#1A3341"/>
<path d="M45.8109 175H44.7669V173.284H39.6309V172.588L44.8869 166.6H45.8109V172.312H47.3709V173.284H45.8109V175ZM44.7669 168.28L41.0709 172.312H44.7669V168.28ZM50.0454 175.18L49.2534 174.724L55.4574 166.336L56.2134 166.888L50.0454 175.18ZM47.9574 168.616C47.9574 168.016 48.1614 167.524 48.5814 167.14C49.0014 166.756 49.5174 166.564 50.1534 166.564C50.7774 166.564 51.2934 166.756 51.7134 167.14C52.1334 167.524 52.3374 168.016 52.3374 168.616C52.3374 169.204 52.1334 169.696 51.7134 170.08C51.2934 170.464 50.7774 170.656 50.1534 170.656C49.5174 170.656 49.0014 170.464 48.5814 170.08C48.1614 169.696 47.9574 169.204 47.9574 168.616ZM48.9654 168.616C48.9654 169.3 49.5174 169.804 50.1534 169.804C50.8134 169.804 51.3294 169.324 51.3294 168.616C51.3294 167.908 50.7894 167.428 50.1534 167.428C49.4934 167.428 48.9654 167.908 48.9654 168.616ZM53.7294 174.472C53.3094 174.088 53.1054 173.596 53.1054 172.996C53.1054 172.396 53.3094 171.904 53.7294 171.52C54.1494 171.148 54.6654 170.956 55.3014 170.956C55.9254 170.956 56.4414 171.148 56.8614 171.52C57.2814 171.904 57.4854 172.396 57.4854 172.996C57.4854 173.584 57.2814 174.076 56.8614 174.46C56.4414 174.856 55.9254 175.048 55.3014 175.048C54.6654 175.048 54.1494 174.856 53.7294 174.472ZM54.1134 172.996C54.1134 173.68 54.6654 174.184 55.3014 174.184C55.9614 174.184 56.4774 173.704 56.4774 172.996C56.4774 172.288 55.9374 171.808 55.3014 171.808C54.6414 171.808 54.1134 172.288 54.1134 172.996Z" fill="#1A3341"/>
<path d="M51.4992 145.048L50.5992 144.64C51.0432 143.344 52.2072 142.492 53.9472 142.492C54.7752 142.492 55.4592 142.684 55.9872 143.068C56.5152 143.452 56.7792 143.968 56.7792 144.604C56.7792 145.576 56.2632 146.296 55.3032 146.572C56.2272 146.632 56.9712 147.328 56.9712 148.576C56.9712 149.368 56.6832 149.992 56.1072 150.436C55.5312 150.88 54.7992 151.108 53.8992 151.108C52.0632 151.108 50.7912 150.232 50.3712 148.852L51.3432 148.432C51.8592 149.524 52.7352 150.076 53.9712 150.076C55.1352 150.076 55.8672 149.536 55.8672 148.588C55.8672 147.664 55.1472 147.196 53.7072 147.196H52.7712V146.2H53.5152C54.8232 146.2 55.6752 145.612 55.6752 144.808C55.6752 143.98 54.9912 143.512 53.8992 143.512C52.6152 143.512 51.8352 144.172 51.4992 145.048ZM60.0454 151.18L59.2534 150.724L65.4574 142.336L66.2134 142.888L60.0454 151.18ZM57.9574 144.616C57.9574 144.016 58.1614 143.524 58.5814 143.14C59.0014 142.756 59.5174 142.564 60.1534 142.564C60.7774 142.564 61.2934 142.756 61.7134 143.14C62.1334 143.524 62.3374 144.016 62.3374 144.616C62.3374 145.204 62.1334 145.696 61.7134 146.08C61.2934 146.464 60.7774 146.656 60.1534 146.656C59.5174 146.656 59.0014 146.464 58.5814 146.08C58.1614 145.696 57.9574 145.204 57.9574 144.616ZM58.9654 144.616C58.9654 145.3 59.5174 145.804 60.1534 145.804C60.8134 145.804 61.3294 145.324 61.3294 144.616C61.3294 143.908 60.7894 143.428 60.1534 143.428C59.4934 143.428 58.9654 143.908 58.9654 144.616ZM63.7294 150.472C63.3094 150.088 63.1054 149.596 63.1054 148.996C63.1054 148.396 63.3094 147.904 63.7294 147.52C64.1494 147.148 64.6654 146.956 65.3014 146.956C65.9254 146.956 66.4414 147.148 66.8614 147.52C67.2814 147.904 67.4854 148.396 67.4854 148.996C67.4854 149.584 67.2814 150.076 66.8614 150.46C66.4414 150.856 65.9254 151.048 65.3014 151.048C64.6654 151.048 64.1494 150.856 63.7294 150.472ZM64.1134 148.996C64.1134 149.68 64.6654 150.184 65.3014 150.184C65.9614 150.184 66.4774 149.704 66.4774 148.996C66.4774 148.288 65.9374 147.808 65.3014 147.808C64.6414 147.808 64.1134 148.288 64.1134 148.996Z" fill="#1A3341"/>
<path d="M67.4992 122.048L66.5992 121.64C67.0432 120.344 68.2072 119.492 69.9472 119.492C70.7752 119.492 71.4592 119.684 71.9872 120.068C72.5152 120.452 72.7792 120.968 72.7792 121.604C72.7792 122.576 72.2632 123.296 71.3032 123.572C72.2272 123.632 72.9712 124.328 72.9712 125.576C72.9712 126.368 72.6832 126.992 72.1072 127.436C71.5312 127.88 70.7992 128.108 69.8992 128.108C68.0632 128.108 66.7912 127.232 66.3712 125.852L67.3432 125.432C67.8592 126.524 68.7352 127.076 69.9712 127.076C71.1352 127.076 71.8672 126.536 71.8672 125.588C71.8672 124.664 71.1472 124.196 69.7072 124.196H68.7712V123.2H69.5152C70.8232 123.2 71.6752 122.612 71.6752 121.808C71.6752 120.98 70.9912 120.512 69.8992 120.512C68.6152 120.512 67.8352 121.172 67.4992 122.048ZM76.0454 128.18L75.2534 127.724L81.4574 119.336L82.2134 119.888L76.0454 128.18ZM73.9574 121.616C73.9574 121.016 74.1614 120.524 74.5814 120.14C75.0014 119.756 75.5174 119.564 76.1534 119.564C76.7774 119.564 77.2934 119.756 77.7134 120.14C78.1334 120.524 78.3374 121.016 78.3374 121.616C78.3374 122.204 78.1334 122.696 77.7134 123.08C77.2934 123.464 76.7774 123.656 76.1534 123.656C75.5174 123.656 75.0014 123.464 74.5814 123.08C74.1614 122.696 73.9574 122.204 73.9574 121.616ZM74.9654 121.616C74.9654 122.3 75.5174 122.804 76.1534 122.804C76.8134 122.804 77.3294 122.324 77.3294 121.616C77.3294 120.908 76.7894 120.428 76.1534 120.428C75.4934 120.428 74.9654 120.908 74.9654 121.616ZM79.7294 127.472C79.3094 127.088 79.1054 126.596 79.1054 125.996C79.1054 125.396 79.3094 124.904 79.7294 124.52C80.1494 124.148 80.6654 123.956 81.3014 123.956C81.9254 123.956 82.4414 124.148 82.8614 124.52C83.2814 124.904 83.4854 125.396 83.4854 125.996C83.4854 126.584 83.2814 127.076 82.8614 127.46C82.4414 127.856 81.9254 128.048 81.3014 128.048C80.6654 128.048 80.1494 127.856 79.7294 127.472ZM80.1134 125.996C80.1134 126.68 80.6654 127.184 81.3014 127.184C81.9614 127.184 82.4774 126.704 82.4774 125.996C82.4774 125.288 81.9374 124.808 81.3014 124.808C80.6414 124.808 80.1134 125.288 80.1134 125.996Z" fill="#1A3341"/>
<path d="M106.139 91.832L105.755 90.932L108.635 89.552H109.319V98H108.287V90.836L106.139 91.832ZM111.81 92.372L110.934 92.06C111.234 90.572 112.362 89.504 114.15 89.504C115.878 89.504 116.934 90.5 116.934 92.024C116.934 92.828 116.586 93.632 116.154 94.208C115.938 94.508 115.662 94.796 115.338 95.096C114.678 95.684 114.21 95.996 113.526 96.428L112.602 97.004H117.246V98H110.706V97.184L112.53 95.972C112.854 95.768 113.082 95.612 113.214 95.516C113.346 95.432 113.562 95.276 113.85 95.072C114.138 94.868 114.354 94.688 114.498 94.556C114.63 94.424 114.81 94.256 115.014 94.04C115.566 93.44 115.77 92.888 115.83 92.132C115.83 91.04 115.122 90.548 114.078 90.548C113.43 90.548 112.914 90.728 112.542 91.088C112.17 91.448 111.918 91.88 111.81 92.372ZM120.165 98.18L119.373 97.724L125.577 89.336L126.333 89.888L120.165 98.18ZM118.077 91.616C118.077 91.016 118.281 90.524 118.701 90.14C119.121 89.756 119.637 89.564 120.273 89.564C120.897 89.564 121.413 89.756 121.833 90.14C122.253 90.524 122.457 91.016 122.457 91.616C122.457 92.204 122.253 92.696 121.833 93.08C121.413 93.464 120.897 93.656 120.273 93.656C119.637 93.656 119.121 93.464 118.701 93.08C118.281 92.696 118.077 92.204 118.077 91.616ZM119.085 91.616C119.085 92.3 119.637 92.804 120.273 92.804C120.933 92.804 121.449 92.324 121.449 91.616C121.449 90.908 120.909 90.428 120.273 90.428C119.613 90.428 119.085 90.908 119.085 91.616ZM123.849 97.472C123.429 97.088 123.225 96.596 123.225 95.996C123.225 95.396 123.429 94.904 123.849 94.52C124.269 94.148 124.785 93.956 125.421 93.956C126.045 93.956 126.561 94.148 126.981 94.52C127.401 94.904 127.605 95.396 127.605 95.996C127.605 96.584 127.401 97.076 126.981 97.46C126.561 97.856 126.045 98.048 125.421 98.048C124.785 98.048 124.269 97.856 123.849 97.472ZM124.233 95.996C124.233 96.68 124.785 97.184 125.421 97.184C126.081 97.184 126.597 96.704 126.597 95.996C126.597 95.288 126.057 94.808 125.421 94.808C124.761 94.808 124.233 95.288 124.233 95.996Z" fill="#1A3341"/>
<path d="M141.286 208.163V211.011H121.798V208.451L131.046 203.107C132.859 202.061 134.203 201.219 135.078 200.579C135.953 199.917 136.539 199.309 136.838 198.755C137.158 198.2 137.318 197.539 137.318 196.771V196.451C137.318 195.213 136.795 194.264 135.75 193.603C134.726 192.941 133.243 192.611 131.302 192.611C129.297 192.611 127.771 192.963 126.726 193.667C125.702 194.371 125.19 195.395 125.19 196.739V197.379H121.99V196.707C121.99 194.424 122.79 192.675 124.39 191.459C125.99 190.243 128.273 189.635 131.238 189.635C134.139 189.635 136.411 190.232 138.054 191.427C139.697 192.621 140.518 194.264 140.518 196.355V196.675C140.518 197.805 140.294 198.797 139.846 199.651C139.398 200.504 138.619 201.368 137.51 202.243C136.422 203.117 134.822 204.163 132.71 205.379L127.846 208.163H141.286ZM155.554 211.395C153.421 211.395 151.533 211.011 149.89 210.243C148.269 209.475 147 208.397 146.082 207.011C145.186 205.624 144.738 204.035 144.738 202.243V198.819C144.738 197.005 145.186 195.405 146.082 194.019C147 192.632 148.269 191.555 149.89 190.787C151.533 190.019 153.421 189.635 155.554 189.635C157.666 189.635 159.533 190.019 161.154 190.787C162.776 191.555 164.034 192.632 164.93 194.019C165.826 195.405 166.274 197.005 166.274 198.819V202.243C166.274 204.056 165.826 205.656 164.93 207.043C164.034 208.408 162.776 209.475 161.154 210.243C159.533 211.011 157.666 211.395 155.554 211.395ZM155.554 208.419C157.901 208.419 159.746 207.875 161.09 206.787C162.434 205.699 163.106 204.195 163.106 202.275V198.787C163.106 196.888 162.424 195.384 161.058 194.275C159.714 193.165 157.869 192.611 155.522 192.611C153.154 192.611 151.288 193.165 149.922 194.275C148.578 195.363 147.906 196.867 147.906 198.787V202.275C147.906 204.195 148.578 205.699 149.922 206.787C151.288 207.875 153.165 208.419 155.554 208.419ZM189.679 208.163V211.011H170.191V208.451L179.439 203.107C181.252 202.061 182.596 201.219 183.471 200.579C184.345 199.917 184.932 199.309 185.231 198.755C185.551 198.2 185.711 197.539 185.711 196.771V196.451C185.711 195.213 185.188 194.264 184.143 193.603C183.119 192.941 181.636 192.611 179.695 192.611C177.689 192.611 176.164 192.963 175.119 193.667C174.095 194.371 173.583 195.395 173.583 196.739V197.379H170.383V196.707C170.383 194.424 171.183 192.675 172.783 191.459C174.383 190.243 176.665 189.635 179.631 189.635C182.532 189.635 184.804 190.232 186.447 191.427C188.089 192.621 188.911 194.264 188.911 196.355V196.675C188.911 197.805 188.687 198.797 188.239 199.651C187.791 200.504 187.012 201.368 185.903 202.243C184.815 203.117 183.215 204.163 181.103 205.379L176.239 208.163H189.679ZM204.651 198.339C207.488 198.424 209.653 198.989 211.147 200.035C212.661 201.059 213.419 202.488 213.419 204.323V204.739C213.419 206.893 212.555 208.547 210.827 209.699C209.099 210.829 206.581 211.395 203.275 211.395C200.053 211.373 197.557 210.808 195.787 209.699C194.037 208.589 193.163 207.021 193.163 204.995V204.771H196.331V204.995C196.331 206.061 196.949 206.904 198.187 207.523C199.424 208.12 201.131 208.419 203.307 208.419C205.589 208.419 207.317 208.12 208.491 207.523C209.664 206.904 210.251 205.997 210.251 204.803V204.419C210.251 202.179 207.968 201.059 203.403 201.059H199.947V198.243L207.851 192.867H193.547V190.019H212.907V192.867L204.651 198.339Z" fill="#1A3341"/>
<path d="M168 98C192.434 98 216.103 106.521 234.93 122.096C253.756 137.671 266.562 159.324 271.14 183.325C275.719 207.326 271.783 232.173 260.012 253.584C248.241 274.996 229.371 291.632 206.653 300.627L202.015 288.911C222.007 280.996 238.612 266.356 248.971 247.514C259.329 228.672 262.792 206.807 258.763 185.686C254.734 164.565 243.465 145.51 226.898 131.805C210.331 118.099 189.502 110.6 168 110.6V98Z" fill="url(#paint0_linear_2355_52073)"/>
<path d="M206.688 300.613C183.974 309.615 158.83 310.415 135.589 302.873L139.479 290.888C159.931 297.525 182.057 296.822 202.046 288.899L206.688 300.613Z" fill="url(#paint1_linear_2355_52073)"/>
<path d="M83.0589 264.725C71.3458 248.607 64.4607 229.488 63.2078 209.603L75.7829 208.81C76.8854 226.309 82.9443 243.134 93.2518 257.318L83.0589 264.725Z" fill="url(#paint2_linear_2355_52073)"/>
<path d="M135.57 302.866C114.48 296.018 96.0998 282.668 83.0634 264.731L93.2558 257.324C104.728 273.108 120.902 284.856 139.461 290.882L135.57 302.866Z" fill="url(#paint3_linear_2355_52073)"/>
<path d="M63.2062 209.577C62.6545 200.786 63.2111 191.961 64.8629 183.309L77.2393 185.672C75.7858 193.285 75.2959 201.052 75.7814 208.788L63.2062 209.577Z" fill="url(#paint4_linear_2355_52073)"/>
<path d="M73.0159 158.245C75.83 152.272 79.2012 146.579 83.0846 141.239L93.2745 148.651C89.857 153.349 86.8904 158.36 84.414 163.616L73.0159 158.245Z" fill="url(#paint5_linear_2355_52073)"/>
<path d="M64.8698 183.273C66.5246 174.622 69.2615 166.213 73.0158 158.245L84.4139 163.616C81.1101 170.627 78.7017 178.027 77.2454 185.64L64.8698 183.273Z" fill="url(#paint6_linear_2355_52073)"/>
<path d="M83.0839 141.24C86.9673 135.901 91.3456 130.94 96.1607 126.423L104.781 135.612C100.544 139.587 96.6912 143.953 93.2739 148.651L83.0839 141.24Z" fill="#AECEE5"/>
<path d="M96.167 126.417C115.646 108.146 141.355 97.9845 168.061 98L168.054 110.6C144.552 110.586 121.928 119.529 104.787 135.607L96.167 126.417Z" fill="#DBE9EE"/>
<rect y="2" width="10" height="10" fill="#4545CE"/>
<path d="M25.044 7.7H22.728V6.704H26.088V9.836C25.356 10.616 24.084 11.108 22.848 11.108C21.564 11.108 20.508 10.712 19.68 9.92C18.852 9.14 18.432 8.096 18.432 6.8C18.432 5.588 18.84 4.568 19.668 3.74C20.484 2.912 21.504 2.492 22.716 2.492C24.144 2.492 25.2 2.912 25.884 3.764L25.2 4.472C24.636 3.848 23.832 3.536 22.788 3.536C21.828 3.536 21.048 3.836 20.46 4.436C19.872 5.036 19.572 5.828 19.572 6.8C19.572 7.796 19.884 8.588 20.496 9.176C21.108 9.764 21.9 10.064 22.872 10.064C23.736 10.064 24.456 9.824 25.044 9.344V7.7ZM31.9555 9.212L32.6035 9.812C32.0275 10.676 31.1995 11.108 30.1075 11.108C29.1115 11.108 28.3075 10.808 27.6955 10.22C27.0835 9.632 26.7835 8.852 26.7835 7.868C26.7835 6.92 27.0595 6.14 27.6235 5.528C28.1755 4.916 28.9555 4.616 29.9635 4.616C30.7915 4.616 31.4875 4.88 32.0275 5.396C32.5675 5.912 32.8435 6.596 32.8435 7.448C32.8435 7.724 32.8195 7.976 32.7835 8.204H27.8635C27.9235 9.44 28.8355 10.16 30.1435 10.16C30.8755 10.16 31.5715 9.776 31.9555 9.212ZM29.8915 5.54C28.7515 5.54 28.0075 6.236 27.8515 7.292H31.7755C31.7155 6.188 31.0075 5.54 29.8915 5.54ZM34.8516 11H33.8436V4.76H34.8516V5.24C35.0556 4.82 35.5956 4.628 36.1356 4.628C36.6876 4.628 37.1076 4.82 37.4076 5.192L36.7716 5.888C36.6156 5.684 36.3756 5.576 36.0276 5.576C35.4876 5.576 34.9956 6.02 34.8516 6.656V11ZM47.0138 6.86V11H46.0057V7.172C46.0057 6.104 45.5738 5.576 44.7097 5.576C43.9297 5.576 43.3537 5.96 42.9937 6.716V11H41.9857V6.848C41.9857 6.092 41.4937 5.576 40.6897 5.576C39.8857 5.576 39.2497 6.176 38.9737 6.836V11H37.9657V4.76H38.9737V5.6C39.3457 5.024 40.0657 4.628 40.8817 4.628C41.7697 4.628 42.3817 4.952 42.7177 5.6C43.2097 4.952 43.8937 4.628 44.7697 4.628C46.1617 4.628 47.0138 5.324 47.0138 6.86ZM48.7554 6.26L48.2394 5.504C48.8154 4.964 49.8114 4.616 50.7354 4.616C52.4034 4.616 53.2914 5.528 53.2914 7.148V11H52.2834V10.076C51.8874 10.652 51.1074 11.084 50.0994 11.084C48.7434 11.084 47.8314 10.328 47.8314 9.176C47.8314 7.868 48.9474 7.244 50.8194 7.244C51.4074 7.244 51.8874 7.304 52.2834 7.424C52.2834 6.212 51.8514 5.564 50.6154 5.564C49.9914 5.564 49.3674 5.792 48.7554 6.26ZM50.3394 10.172C50.8074 10.172 51.2274 10.04 51.5754 9.788C51.9234 9.536 52.1514 9.248 52.2834 8.948V8.312C51.9354 8.192 51.4914 8.132 50.9514 8.132C49.5834 8.132 48.8994 8.468 48.8994 9.14C48.8994 9.776 49.4754 10.172 50.3394 10.172ZM55.5736 11H54.5656V4.76H55.5736V5.576C55.9696 4.964 56.7856 4.628 57.7096 4.628C59.4016 4.628 60.2416 5.564 60.2416 7.448V11H59.2336V7.568C59.2336 6.188 58.6456 5.576 57.4096 5.576C56.6416 5.576 55.9096 6.08 55.5736 6.836V11ZM61.4216 13.376L61.8176 12.5C61.9136 12.536 61.9976 12.56 62.0816 12.56C62.5496 12.56 62.8736 12.236 63.2936 11.24L63.4856 10.772L60.4616 4.76H61.6496L63.9896 9.5L65.7536 4.76H66.8576L64.4816 10.904C64.0736 11.912 63.6896 12.596 63.3416 12.968C62.9816 13.34 62.5736 13.52 62.1176 13.52C61.8536 13.52 61.6256 13.472 61.4216 13.376Z" fill="#76848D"/>
<rect y="26" width="10" height="10" fill="#737AF9"/>
<path d="M19.992 35H18.888V26.6H24.924V27.62H19.992V30.5H24.588V31.52H19.992V35ZM26.7333 35H25.7253V28.76H26.7333V29.24C26.9373 28.82 27.4773 28.628 28.0173 28.628C28.5693 28.628 28.9893 28.82 29.2893 29.192L28.6533 29.888C28.4973 29.684 28.2573 29.576 27.9093 29.576C27.3693 29.576 26.8773 30.02 26.7333 30.656V35ZM30.1868 30.26L29.6708 29.504C30.2468 28.964 31.2428 28.616 32.1668 28.616C33.8348 28.616 34.7228 29.528 34.7228 31.148V35H33.7148V34.076C33.3188 34.652 32.5388 35.084 31.5308 35.084C30.1748 35.084 29.2628 34.328 29.2628 33.176C29.2628 31.868 30.3788 31.244 32.2508 31.244C32.8388 31.244 33.3188 31.304 33.7148 31.424C33.7148 30.212 33.2828 29.564 32.0468 29.564C31.4228 29.564 30.7988 29.792 30.1868 30.26ZM31.7708 34.172C32.2388 34.172 32.6588 34.04 33.0068 33.788C33.3548 33.536 33.5828 33.248 33.7148 32.948V32.312C33.3668 32.192 32.9228 32.132 32.3828 32.132C31.0148 32.132 30.3308 32.468 30.3308 33.14C30.3308 33.776 30.9068 34.172 31.7708 34.172ZM37.005 35H35.997V28.76H37.005V29.576C37.401 28.964 38.217 28.628 39.141 28.628C40.833 28.628 41.673 29.564 41.673 31.448V35H40.665V31.568C40.665 30.188 40.077 29.576 38.841 29.576C38.073 29.576 37.341 30.08 37.005 30.836V35ZM47.7794 33.2L48.4994 33.716C48.0314 34.592 46.9754 35.108 45.9314 35.108C44.9354 35.108 44.1314 34.808 43.5194 34.22C42.9074 33.632 42.5954 32.852 42.5954 31.868C42.5954 30.932 42.8954 30.152 43.5074 29.54C44.1194 28.928 44.8994 28.616 45.8714 28.616C46.9874 28.616 47.9834 29.12 48.4034 29.888L47.6234 30.416C47.2034 29.852 46.6274 29.564 45.8954 29.564C45.2474 29.564 44.7194 29.78 44.2994 30.212C43.8794 30.644 43.6634 31.196 43.6634 31.868C43.6634 32.552 43.8794 33.104 44.3234 33.524C44.7554 33.944 45.3194 34.16 46.0274 34.16C46.7714 34.16 47.3594 33.836 47.7794 33.2ZM53.9755 33.212L54.6235 33.812C54.0475 34.676 53.2195 35.108 52.1275 35.108C51.1315 35.108 50.3275 34.808 49.7155 34.22C49.1035 33.632 48.8035 32.852 48.8035 31.868C48.8035 30.92 49.0795 30.14 49.6435 29.528C50.1955 28.916 50.9755 28.616 51.9835 28.616C52.8115 28.616 53.5075 28.88 54.0475 29.396C54.5875 29.912 54.8635 30.596 54.8635 31.448C54.8635 31.724 54.8395 31.976 54.8035 32.204H49.8835C49.9435 33.44 50.8555 34.16 52.1635 34.16C52.8955 34.16 53.5915 33.776 53.9755 33.212ZM51.9115 29.54C50.7715 29.54 50.0275 30.236 49.8715 31.292H53.7955C53.7355 30.188 53.0275 29.54 51.9115 29.54Z" fill="#76848D"/>
<rect y="50" width="10" height="10" fill="#CDD3FB"/>
<path d="M25.944 49.6V58H25.092L19.944 51.592V58H18.888V49.6H19.752L24.888 56.032V49.6H25.944ZM32.2719 56.212L32.9199 56.812C32.3439 57.676 31.5159 58.108 30.4239 58.108C29.4279 58.108 28.6239 57.808 28.0119 57.22C27.3999 56.632 27.0999 55.852 27.0999 54.868C27.0999 53.92 27.3759 53.14 27.9399 52.528C28.4919 51.916 29.2719 51.616 30.2799 51.616C31.1079 51.616 31.8039 51.88 32.3439 52.396C32.8839 52.912 33.1599 53.596 33.1599 54.448C33.1599 54.724 33.1359 54.976 33.0999 55.204H28.1799C28.2399 56.44 29.1519 57.16 30.4599 57.16C31.1919 57.16 31.8879 56.776 32.2719 56.212ZM30.2079 52.54C29.0679 52.54 28.3239 53.236 28.1679 54.292H32.0919C32.0319 53.188 31.3239 52.54 30.2079 52.54ZM34.796 52.72H33.5V51.76H34.796V50.164H35.804V51.76H37.952V52.72H35.804V55.468C35.804 56.68 36.116 57.124 36.884 57.124C37.256 57.124 37.64 56.98 38.012 56.68L38.468 57.424C38.072 57.868 37.484 58.084 36.704 58.084C35.468 58.084 34.796 57.268 34.796 55.732V52.72ZM40.087 58H39.079V49.24H40.087V52.576C40.567 51.94 41.239 51.628 42.115 51.628C43.867 51.628 44.743 52.576 44.743 54.46V58H43.735V54.556C43.735 53.212 43.159 52.576 41.923 52.576C41.095 52.576 40.423 53.104 40.087 53.872V58ZM50.8377 56.212L51.4857 56.812C50.9097 57.676 50.0817 58.108 48.9897 58.108C47.9937 58.108 47.1897 57.808 46.5777 57.22C45.9657 56.632 45.6657 55.852 45.6657 54.868C45.6657 53.92 45.9417 53.14 46.5057 52.528C47.0577 51.916 47.8377 51.616 48.8457 51.616C49.6737 51.616 50.3697 51.88 50.9097 52.396C51.4497 52.912 51.7257 53.596 51.7257 54.448C51.7257 54.724 51.7017 54.976 51.6657 55.204H46.7457C46.8057 56.44 47.7177 57.16 49.0257 57.16C49.7577 57.16 50.4537 56.776 50.8377 56.212ZM48.7737 52.54C47.6337 52.54 46.8897 53.236 46.7337 54.292H50.6577C50.5977 53.188 49.8897 52.54 48.7737 52.54ZM53.7338 58H52.7258V51.76H53.7338V52.24C53.9378 51.82 54.4778 51.628 55.0178 51.628C55.5698 51.628 55.9898 51.82 56.2898 52.192L55.6538 52.888C55.4978 52.684 55.2578 52.576 54.9098 52.576C54.3698 52.576 53.8778 53.02 53.7338 53.656V58ZM57.9519 58H56.9439V49.24H57.9519V58ZM59.8681 53.26L59.3521 52.504C59.9281 51.964 60.9241 51.616 61.8481 51.616C63.5161 51.616 64.4041 52.528 64.4041 54.148V58H63.3961V57.076C63.0001 57.652 62.2201 58.084 61.2121 58.084C59.8561 58.084 58.9441 57.328 58.9441 56.176C58.9441 54.868 60.0601 54.244 61.9321 54.244C62.5201 54.244 63.0001 54.304 63.3961 54.424C63.3961 53.212 62.9641 52.564 61.7281 52.564C61.1041 52.564 60.4801 52.792 59.8681 53.26ZM61.4521 57.172C61.9201 57.172 62.3401 57.04 62.6881 56.788C63.0361 56.536 63.2641 56.248 63.3961 55.948V55.312C63.0481 55.192 62.6041 55.132 62.0641 55.132C60.6961 55.132 60.0121 55.468 60.0121 56.14C60.0121 56.776 60.5881 57.172 61.4521 57.172ZM66.6863 58H65.6783V51.76H66.6863V52.576C67.0823 51.964 67.8983 51.628 68.8223 51.628C70.5143 51.628 71.3543 52.564 71.3543 54.448V58H70.3463V54.568C70.3463 53.188 69.7583 52.576 68.5223 52.576C67.7543 52.576 67.0223 53.08 66.6863 53.836V58ZM78.3007 58H77.2927V57.256C77.0167 57.688 76.2967 58.108 75.3487 58.108C74.4247 58.108 73.6927 57.82 73.1287 57.244C72.5647 56.668 72.2767 55.888 72.2767 54.892C72.2767 53.932 72.5767 53.14 73.1887 52.528C73.8007 51.916 74.5447 51.616 75.4327 51.616C76.2607 51.616 76.8847 51.82 77.2927 52.228V49.24H78.3007V58ZM75.4927 57.148C76.3447 57.148 77.0047 56.548 77.2927 55.96V53.44C76.8967 52.852 76.3087 52.564 75.5527 52.564C74.9407 52.564 74.4127 52.78 73.9927 53.2C73.5607 53.62 73.3447 54.184 73.3447 54.868C73.3447 56.26 74.2327 57.148 75.4927 57.148ZM83.4694 56.296C83.4694 55.456 82.0414 55.324 80.9014 55C80.1214 54.772 79.4974 54.256 79.4974 53.404C79.4974 52.3 80.5414 51.616 82.0894 51.616C83.1334 51.616 83.9734 52.06 84.4174 52.696L83.7094 53.356C83.3134 52.828 82.7134 52.564 81.9094 52.564C81.1894 52.564 80.5654 52.84 80.5654 53.356C80.5654 54.088 81.9934 54.22 83.1334 54.568C83.9014 54.808 84.5254 55.384 84.5254 56.284C84.5254 57.496 83.5534 58.108 82.0294 58.108C80.7454 58.108 79.6534 57.532 79.2094 56.632L80.0134 56.068C80.3854 56.728 81.2374 57.16 82.1974 57.16C83.0494 57.16 83.4694 56.872 83.4694 56.296Z" fill="#1A3341" fill-opacity="0.6"/>
<rect x="116" y="2" width="10" height="10" fill="#CDD8F3"/>
<path d="M135.98 11H134.888V2.6H135.98V11ZM138.119 5.72H136.823V4.76H138.119V3.164H139.127V4.76H141.275V5.72H139.127V8.468C139.127 9.68 139.439 10.124 140.207 10.124C140.579 10.124 140.963 9.98 141.335 9.68L141.791 10.424C141.395 10.868 140.807 11.084 140.027 11.084C138.791 11.084 138.119 10.268 138.119 8.732V5.72ZM142.882 6.26L142.366 5.504C142.942 4.964 143.938 4.616 144.862 4.616C146.53 4.616 147.418 5.528 147.418 7.148V11H146.41V10.076C146.014 10.652 145.234 11.084 144.226 11.084C142.87 11.084 141.958 10.328 141.958 9.176C141.958 7.868 143.074 7.244 144.946 7.244C145.534 7.244 146.014 7.304 146.41 7.424C146.41 6.212 145.978 5.564 144.742 5.564C144.118 5.564 143.494 5.792 142.882 6.26ZM144.466 10.172C144.934 10.172 145.354 10.04 145.702 9.788C146.05 9.536 146.278 9.248 146.41 8.948V8.312C146.062 8.192 145.618 8.132 145.078 8.132C143.71 8.132 143.026 8.468 143.026 9.14C143.026 9.776 143.602 10.172 144.466 10.172ZM149.796 11H148.788V2.24H149.796V11ZM151.376 13.376L151.772 12.5C151.868 12.536 151.952 12.56 152.036 12.56C152.504 12.56 152.828 12.236 153.248 11.24L153.44 10.772L150.416 4.76H151.604L153.944 9.5L155.708 4.76H156.812L154.436 10.904C154.028 11.912 153.644 12.596 153.296 12.968C152.936 13.34 152.528 13.52 152.072 13.52C151.808 13.52 151.58 13.472 151.376 13.376Z" fill="#76848D"/>
<rect x="116" y="26" width="10" height="10" fill="#5A7FE0"/>
<path d="M135.98 35H134.888V26.6H135.98V35ZM138.491 35H137.483V28.76H138.491V29.24C138.695 28.82 139.235 28.628 139.775 28.628C140.327 28.628 140.747 28.82 141.047 29.192L140.411 29.888C140.255 29.684 140.015 29.576 139.667 29.576C139.127 29.576 138.635 30.02 138.491 30.656V35ZM146.066 33.212L146.714 33.812C146.138 34.676 145.31 35.108 144.218 35.108C143.222 35.108 142.418 34.808 141.806 34.22C141.194 33.632 140.894 32.852 140.894 31.868C140.894 30.92 141.17 30.14 141.734 29.528C142.286 28.916 143.066 28.616 144.074 28.616C144.902 28.616 145.598 28.88 146.138 29.396C146.678 29.912 146.954 30.596 146.954 31.448C146.954 31.724 146.93 31.976 146.894 32.204H141.974C142.034 33.44 142.946 34.16 144.254 34.16C144.986 34.16 145.682 33.776 146.066 33.212ZM144.002 29.54C142.862 29.54 142.118 30.236 141.962 31.292H145.886C145.826 30.188 145.118 29.54 144.002 29.54ZM149.058 35H148.05V26.24H149.058V35ZM150.974 30.26L150.458 29.504C151.034 28.964 152.03 28.616 152.954 28.616C154.622 28.616 155.51 29.528 155.51 31.148V35H154.502V34.076C154.106 34.652 153.326 35.084 152.318 35.084C150.962 35.084 150.05 34.328 150.05 33.176C150.05 31.868 151.166 31.244 153.038 31.244C153.626 31.244 154.106 31.304 154.502 31.424C154.502 30.212 154.07 29.564 152.834 29.564C152.21 29.564 151.586 29.792 150.974 30.26ZM152.558 34.172C153.026 34.172 153.446 34.04 153.794 33.788C154.142 33.536 154.37 33.248 154.502 32.948V32.312C154.154 32.192 153.71 32.132 153.17 32.132C151.802 32.132 151.118 32.468 151.118 33.14C151.118 33.776 151.694 34.172 152.558 34.172ZM157.792 35H156.784V28.76H157.792V29.576C158.188 28.964 159.004 28.628 159.928 28.628C161.62 28.628 162.46 29.564 162.46 31.448V35H161.452V31.568C161.452 30.188 160.864 29.576 159.628 29.576C158.86 29.576 158.128 30.08 157.792 30.836V35ZM169.407 35H168.399V34.256C168.123 34.688 167.403 35.108 166.455 35.108C165.531 35.108 164.799 34.82 164.235 34.244C163.671 33.668 163.383 32.888 163.383 31.892C163.383 30.932 163.683 30.14 164.295 29.528C164.907 28.916 165.651 28.616 166.539 28.616C167.367 28.616 167.991 28.82 168.399 29.228V26.24H169.407V35ZM166.599 34.148C167.451 34.148 168.111 33.548 168.399 32.96V30.44C168.003 29.852 167.415 29.564 166.659 29.564C166.047 29.564 165.519 29.78 165.099 30.2C164.667 30.62 164.451 31.184 164.451 31.868C164.451 33.26 165.339 34.148 166.599 34.148Z" fill="#1A3341" fill-opacity="0.6"/>
<rect x="116" y="50" width="10" height="10" fill="#96C5F4"/>
<path d="M138.224 59H134.888V50.6H138.284C140.432 50.6 141.248 51.38 141.248 52.688C141.248 53.624 140.852 54.26 140.06 54.608C140.984 54.8 141.548 55.508 141.548 56.6C141.548 58.244 140.324 59 138.224 59ZM138.332 55.208H135.98V57.98H138.212C139.736 57.98 140.42 57.536 140.42 56.54C140.42 55.652 139.724 55.208 138.332 55.208ZM138.188 51.62H135.98V54.212H138.368C139.436 54.212 140.132 53.732 140.132 52.916C140.132 52.016 139.616 51.62 138.188 51.62ZM147.51 57.212L148.158 57.812C147.582 58.676 146.754 59.108 145.662 59.108C144.666 59.108 143.862 58.808 143.25 58.22C142.638 57.632 142.338 56.852 142.338 55.868C142.338 54.92 142.614 54.14 143.178 53.528C143.73 52.916 144.51 52.616 145.518 52.616C146.346 52.616 147.042 52.88 147.582 53.396C148.122 53.912 148.398 54.596 148.398 55.448C148.398 55.724 148.374 55.976 148.338 56.204H143.418C143.478 57.44 144.39 58.16 145.698 58.16C146.43 58.16 147.126 57.776 147.51 57.212ZM145.446 53.54C144.306 53.54 143.562 54.236 143.406 55.292H147.33C147.27 54.188 146.562 53.54 145.446 53.54ZM150.502 59H149.494V50.24H150.502V59ZM156.582 52.76H157.602V58.52C157.602 60.536 156.498 61.508 154.806 61.508C153.45 61.508 152.37 60.92 152.022 59.996L152.922 59.6C153.198 60.14 153.822 60.548 154.746 60.548C155.946 60.548 156.582 59.864 156.582 58.7V58.328C156.114 58.868 155.67 59.108 154.698 59.108C153.75 59.108 153.006 58.82 152.442 58.232C151.878 57.656 151.59 56.864 151.59 55.868C151.59 54.884 151.89 54.092 152.49 53.504C153.078 52.916 153.822 52.628 154.71 52.628C155.586 52.628 156.258 52.928 156.582 53.312V52.76ZM154.866 58.16C155.718 58.16 156.354 57.632 156.582 56.972V54.464C156.282 53.936 155.658 53.576 154.854 53.576C154.23 53.576 153.714 53.78 153.294 54.188C152.874 54.596 152.658 55.16 152.658 55.892C152.658 57.296 153.51 58.16 154.866 58.16ZM160.072 59H159.064V52.76H160.072V59ZM158.932 50.732C158.932 50.396 159.208 50.144 159.58 50.144C159.916 50.144 160.204 50.396 160.204 50.732C160.204 51.08 159.916 51.356 159.58 51.356C159.208 51.356 158.932 51.08 158.932 50.732ZM166.054 52.724H167.062V59H166.054V58.112C165.574 58.772 164.902 59.108 164.026 59.108C162.298 59.108 161.458 58.244 161.458 56.336V52.724H162.466V56.192C162.466 57.5 163.018 58.16 164.11 58.16C164.974 58.16 165.67 57.668 166.054 56.804V52.724ZM177.443 54.86V59H176.435V55.172C176.435 54.104 176.003 53.576 175.139 53.576C174.359 53.576 173.783 53.96 173.423 54.716V59H172.415V54.848C172.415 54.092 171.923 53.576 171.119 53.576C170.315 53.576 169.679 54.176 169.403 54.836V59H168.395V52.76H169.403V53.6C169.775 53.024 170.495 52.628 171.311 52.628C172.199 52.628 172.811 52.952 173.147 53.6C173.639 52.952 174.323 52.628 175.199 52.628C176.591 52.628 177.443 53.324 177.443 54.86Z" fill="#76848D"/>
<rect x="232" y="2" width="10" height="10" fill="#CEE3F8"/>
<path d="M255.76 7.768C255.76 5.692 250.576 6.892 250.576 3.796C250.576 3.148 250.864 2.596 251.44 2.152C252.004 1.708 252.76 1.492 253.684 1.492C255.088 1.492 256.108 1.9 256.744 2.716L256.036 3.424C255.436 2.824 254.644 2.524 253.66 2.524C253.168 2.524 252.724 2.62 252.316 2.824C251.908 3.028 251.704 3.352 251.704 3.772C251.704 4.816 253 5.02 254.296 5.368C255.592 5.716 256.888 6.184 256.888 7.684C256.888 8.392 256.6 8.98 256.024 9.424C255.448 9.88 254.716 10.108 253.84 10.108C253.12 10.108 252.448 9.952 251.812 9.628C251.176 9.316 250.696 8.932 250.396 8.488L251.104 7.72C251.692 8.488 252.736 9.076 253.948 9.076C254.956 9.076 255.76 8.572 255.76 7.768ZM258.979 12.4H257.971V3.76H258.979V4.54C259.399 3.928 260.071 3.616 260.995 3.616C261.907 3.616 262.639 3.904 263.179 4.492C263.719 5.08 263.983 5.836 263.983 6.772C263.983 7.732 263.695 8.524 263.119 9.16C262.531 9.796 261.787 10.108 260.875 10.108C260.035 10.108 259.399 9.892 258.979 9.472V12.4ZM260.887 4.564C259.975 4.564 259.267 5.152 258.979 5.86V8.188C259.339 8.836 259.939 9.16 260.791 9.16C261.403 9.16 261.919 8.944 262.315 8.512C262.711 8.08 262.915 7.528 262.915 6.844C262.915 5.452 262.135 4.564 260.887 4.564ZM265.456 5.26L264.94 4.504C265.516 3.964 266.512 3.616 267.436 3.616C269.104 3.616 269.992 4.528 269.992 6.148V10H268.984V9.076C268.588 9.652 267.808 10.084 266.8 10.084C265.444 10.084 264.532 9.328 264.532 8.176C264.532 6.868 265.648 6.244 267.52 6.244C268.108 6.244 268.588 6.304 268.984 6.424C268.984 5.212 268.552 4.564 267.316 4.564C266.692 4.564 266.068 4.792 265.456 5.26ZM267.04 9.172C267.508 9.172 267.928 9.04 268.276 8.788C268.624 8.536 268.852 8.248 268.984 7.948V7.312C268.636 7.192 268.192 7.132 267.652 7.132C266.284 7.132 265.6 7.468 265.6 8.14C265.6 8.776 266.176 9.172 267.04 9.172ZM272.407 10H271.399V3.76H272.407V10ZM271.267 1.732C271.267 1.396 271.543 1.144 271.915 1.144C272.251 1.144 272.539 1.396 272.539 1.732C272.539 2.08 272.251 2.356 271.915 2.356C271.543 2.356 271.267 2.08 271.267 1.732ZM274.885 10H273.877V3.76H274.885V4.576C275.281 3.964 276.097 3.628 277.021 3.628C278.713 3.628 279.553 4.564 279.553 6.448V10H278.545V6.568C278.545 5.188 277.957 4.576 276.721 4.576C275.953 4.576 275.221 5.08 274.885 5.836V10Z" fill="#1A3341" fill-opacity="0.6"/>
<rect x="232" y="25" width="10" height="10" fill="#AECEE5"/>
<path d="M255.76 31.768C255.76 29.692 250.576 30.892 250.576 27.796C250.576 27.148 250.864 26.596 251.44 26.152C252.004 25.708 252.76 25.492 253.684 25.492C255.088 25.492 256.108 25.9 256.744 26.716L256.036 27.424C255.436 26.824 254.644 26.524 253.66 26.524C253.168 26.524 252.724 26.62 252.316 26.824C251.908 27.028 251.704 27.352 251.704 27.772C251.704 28.816 253 29.02 254.296 29.368C255.592 29.716 256.888 30.184 256.888 31.684C256.888 32.392 256.6 32.98 256.024 33.424C255.448 33.88 254.716 34.108 253.84 34.108C253.12 34.108 252.448 33.952 251.812 33.628C251.176 33.316 250.696 32.932 250.396 32.488L251.104 31.72C251.692 32.488 252.736 33.076 253.948 33.076C254.956 33.076 255.76 32.572 255.76 31.768ZM265.411 27.76H266.443L264.415 34H263.599L261.847 29.32L260.071 34H259.279L257.167 27.76H258.247L259.747 32.32L261.451 27.76H262.243L263.983 32.356L265.411 27.76ZM271.769 32.212L272.417 32.812C271.841 33.676 271.013 34.108 269.921 34.108C268.925 34.108 268.121 33.808 267.509 33.22C266.897 32.632 266.597 31.852 266.597 30.868C266.597 29.92 266.873 29.14 267.437 28.528C267.989 27.916 268.769 27.616 269.777 27.616C270.605 27.616 271.301 27.88 271.841 28.396C272.381 28.912 272.657 29.596 272.657 30.448C272.657 30.724 272.633 30.976 272.597 31.204H267.677C267.737 32.44 268.649 33.16 269.957 33.16C270.689 33.16 271.385 32.776 271.769 32.212ZM269.705 28.54C268.565 28.54 267.821 29.236 267.665 30.292H271.589C271.529 29.188 270.821 28.54 269.705 28.54ZM279.216 34H278.208V33.256C277.932 33.688 277.212 34.108 276.264 34.108C275.34 34.108 274.608 33.82 274.044 33.244C273.48 32.668 273.192 31.888 273.192 30.892C273.192 29.932 273.492 29.14 274.104 28.528C274.716 27.916 275.46 27.616 276.348 27.616C277.176 27.616 277.8 27.82 278.208 28.228V25.24H279.216V34ZM276.408 33.148C277.26 33.148 277.92 32.548 278.208 31.96V29.44C277.812 28.852 277.224 28.564 276.468 28.564C275.856 28.564 275.328 28.78 274.908 29.2C274.476 29.62 274.26 30.184 274.26 30.868C274.26 32.26 275.148 33.148 276.408 33.148ZM285.381 32.212L286.029 32.812C285.453 33.676 284.625 34.108 283.533 34.108C282.537 34.108 281.733 33.808 281.121 33.22C280.509 32.632 280.209 31.852 280.209 30.868C280.209 29.92 280.485 29.14 281.049 28.528C281.601 27.916 282.381 27.616 283.389 27.616C284.217 27.616 284.913 27.88 285.453 28.396C285.993 28.912 286.269 29.596 286.269 30.448C286.269 30.724 286.245 30.976 286.209 31.204H281.289C281.349 32.44 282.261 33.16 283.569 33.16C284.301 33.16 284.997 32.776 285.381 32.212ZM283.317 28.54C282.177 28.54 281.433 29.236 281.277 30.292H285.201C285.141 29.188 284.433 28.54 283.317 28.54ZM288.277 34H287.269V27.76H288.277V28.576C288.673 27.964 289.489 27.628 290.413 27.628C292.105 27.628 292.945 28.564 292.945 30.448V34H291.937V30.568C291.937 29.188 291.349 28.576 290.113 28.576C289.345 28.576 288.613 29.08 288.277 29.836V34Z" fill="#1A3341" fill-opacity="0.6"/>
<rect x="232" y="49" width="10" height="10" fill="#DBE9EE"/>
<path d="M250.432 53.8C250.432 52.588 250.84 51.556 251.668 50.728C252.496 49.9 253.504 49.492 254.704 49.492C255.892 49.492 256.9 49.9 257.728 50.716C258.556 51.532 258.964 52.564 258.964 53.8C258.964 55.024 258.556 56.044 257.728 56.872C256.9 57.7 255.892 58.108 254.704 58.108C253.504 58.108 252.496 57.7 251.668 56.884C250.84 56.068 250.432 55.036 250.432 53.8ZM251.572 53.8C251.572 54.736 251.884 55.516 252.496 56.128C253.108 56.752 253.84 57.064 254.704 57.064C255.592 57.064 256.336 56.752 256.936 56.14C257.524 55.528 257.824 54.748 257.824 53.8C257.824 52.852 257.524 52.072 256.912 51.46C256.3 50.848 255.556 50.536 254.704 50.536C253.828 50.536 253.096 50.848 252.484 51.46C251.872 52.072 251.572 52.852 251.572 53.8ZM260.646 52.72H259.35V51.76H260.646V50.164H261.654V51.76H263.802V52.72H261.654V55.468C261.654 56.68 261.966 57.124 262.734 57.124C263.106 57.124 263.49 56.98 263.862 56.68L264.318 57.424C263.922 57.868 263.334 58.084 262.554 58.084C261.318 58.084 260.646 57.268 260.646 55.732V52.72ZM265.938 58H264.93V49.24H265.938V52.576C266.418 51.94 267.09 51.628 267.966 51.628C269.718 51.628 270.594 52.576 270.594 54.46V58H269.586V54.556C269.586 53.212 269.01 52.576 267.774 52.576C266.946 52.576 266.274 53.104 265.938 53.872V58ZM276.688 56.212L277.336 56.812C276.76 57.676 275.932 58.108 274.84 58.108C273.844 58.108 273.04 57.808 272.428 57.22C271.816 56.632 271.516 55.852 271.516 54.868C271.516 53.92 271.792 53.14 272.356 52.528C272.908 51.916 273.688 51.616 274.696 51.616C275.524 51.616 276.22 51.88 276.76 52.396C277.3 52.912 277.576 53.596 277.576 54.448C277.576 54.724 277.552 54.976 277.516 55.204H272.596C272.656 56.44 273.568 57.16 274.876 57.16C275.608 57.16 276.304 56.776 276.688 56.212ZM274.624 52.54C273.484 52.54 272.74 53.236 272.584 54.292H276.508C276.448 53.188 275.74 52.54 274.624 52.54ZM279.584 58H278.576V51.76H279.584V52.24C279.788 51.82 280.328 51.628 280.868 51.628C281.42 51.628 281.84 51.82 282.14 52.192L281.504 52.888C281.348 52.684 281.108 52.576 280.76 52.576C280.22 52.576 279.728 53.02 279.584 53.656V58ZM291.012 56.2L291.732 56.716C291.264 57.592 290.208 58.108 289.164 58.108C288.168 58.108 287.364 57.808 286.752 57.22C286.14 56.632 285.828 55.852 285.828 54.868C285.828 53.932 286.128 53.152 286.74 52.54C287.352 51.928 288.132 51.616 289.104 51.616C290.22 51.616 291.216 52.12 291.636 52.888L290.856 53.416C290.436 52.852 289.86 52.564 289.128 52.564C288.48 52.564 287.952 52.78 287.532 53.212C287.112 53.644 286.896 54.196 286.896 54.868C286.896 55.552 287.112 56.104 287.556 56.524C287.988 56.944 288.552 57.16 289.26 57.16C290.004 57.16 290.592 56.836 291.012 56.2ZM292.036 54.868C292.036 53.92 292.348 53.14 292.96 52.528C293.572 51.916 294.364 51.616 295.336 51.616C296.32 51.616 297.124 51.916 297.736 52.528C298.348 53.14 298.66 53.92 298.66 54.868C298.66 55.816 298.348 56.584 297.736 57.196C297.112 57.808 296.308 58.108 295.336 58.108C294.364 58.108 293.572 57.808 292.96 57.196C292.348 56.584 292.036 55.816 292.036 54.868ZM293.104 54.868C293.104 55.528 293.308 56.08 293.728 56.512C294.148 56.944 294.676 57.16 295.336 57.16C295.996 57.16 296.548 56.944 296.968 56.524C297.388 56.104 297.592 55.552 297.592 54.868C297.592 54.184 297.376 53.632 296.956 53.2C296.524 52.78 295.984 52.564 295.336 52.564C294.688 52.564 294.16 52.78 293.74 53.2C293.32 53.62 293.104 54.184 293.104 54.868ZM304.171 51.724H305.179V58H304.171V57.112C303.691 57.772 303.019 58.108 302.143 58.108C300.415 58.108 299.575 57.244 299.575 55.336V51.724H300.583V55.192C300.583 56.5 301.135 57.16 302.227 57.16C303.091 57.16 303.787 56.668 304.171 55.804V51.724ZM307.519 58H306.511V51.76H307.519V52.576C307.915 51.964 308.731 51.628 309.655 51.628C311.347 51.628 312.187 52.564 312.187 54.448V58H311.179V54.568C311.179 53.188 310.591 52.576 309.355 52.576C308.587 52.576 307.855 53.08 307.519 53.836V58ZM314.094 52.72H312.798V51.76H314.094V50.164H315.102V51.76H317.25V52.72H315.102V55.468C315.102 56.68 315.414 57.124 316.182 57.124C316.554 57.124 316.938 56.98 317.31 56.68L317.766 57.424C317.37 57.868 316.782 58.084 316.002 58.084C314.766 58.084 314.094 57.268 314.094 55.732V52.72ZM319.385 58H318.377V51.76H319.385V52.24C319.589 51.82 320.129 51.628 320.669 51.628C321.221 51.628 321.641 51.82 321.941 52.192L321.305 52.888C321.149 52.684 320.909 52.576 320.561 52.576C320.021 52.576 319.529 53.02 319.385 53.656V58ZM323.639 58H322.631V51.76H323.639V58ZM322.499 49.732C322.499 49.396 322.775 49.144 323.147 49.144C323.483 49.144 323.771 49.396 323.771 49.732C323.771 50.08 323.483 50.356 323.147 50.356C322.775 50.356 322.499 50.08 322.499 49.732ZM329.934 56.212L330.582 56.812C330.006 57.676 329.178 58.108 328.086 58.108C327.09 58.108 326.286 57.808 325.674 57.22C325.062 56.632 324.762 55.852 324.762 54.868C324.762 53.92 325.038 53.14 325.602 52.528C326.154 51.916 326.934 51.616 327.942 51.616C328.77 51.616 329.466 51.88 330.006 52.396C330.546 52.912 330.822 53.596 330.822 54.448C330.822 54.724 330.798 54.976 330.762 55.204H325.842C325.902 56.44 326.814 57.16 328.122 57.16C328.854 57.16 329.55 56.776 329.934 56.212ZM327.87 52.54C326.73 52.54 325.986 53.236 325.83 54.292H329.754C329.694 53.188 328.986 52.54 327.87 52.54ZM335.65 56.296C335.65 55.456 334.222 55.324 333.082 55C332.302 54.772 331.678 54.256 331.678 53.404C331.678 52.3 332.722 51.616 334.27 51.616C335.314 51.616 336.154 52.06 336.598 52.696L335.89 53.356C335.494 52.828 334.894 52.564 334.09 52.564C333.37 52.564 332.746 52.84 332.746 53.356C332.746 54.088 334.174 54.22 335.314 54.568C336.082 54.808 336.706 55.384 336.706 56.284C336.706 57.496 335.734 58.108 334.21 58.108C332.926 58.108 331.834 57.532 331.39 56.632L332.194 56.068C332.566 56.728 333.418 57.16 334.378 57.16C335.23 57.16 335.65 56.872 335.65 56.296Z" fill="#76848D"/>
<defs>
<linearGradient id="paint0_linear_2355_52073" x1="173.478" y1="82.4783" x2="273" y2="191.13" gradientUnits="userSpaceOnUse">
<stop stop-color="#5358CC"/>
<stop offset="1" stop-color="#3B38CE"/>
</linearGradient>
<linearGradient id="paint1_linear_2355_52073" x1="187.63" y1="308" x2="-10.9565" y2="208.022" gradientUnits="userSpaceOnUse">
<stop stop-color="#6D73F9"/>
<stop offset="1" stop-color="#9BB8F1"/>
</linearGradient>
<linearGradient id="paint2_linear_2355_52073" x1="131.022" y1="292.935" x2="181.239" y2="300.239" gradientUnits="userSpaceOnUse">
<stop stop-color="#C9D2EA"/>
<stop offset="1" stop-color="#D1DCFB"/>
</linearGradient>
<linearGradient id="paint3_linear_2355_52073" x1="90.8479" y1="128.587" x2="150.196" y2="98" gradientUnits="userSpaceOnUse">
<stop stop-color="#ACAEEA"/>
<stop offset="1" stop-color="#A4B9F0"/>
</linearGradient>
<linearGradient id="paint4_linear_2355_52073" x1="78.0652" y1="166.022" x2="117.783" y2="126.304" gradientUnits="userSpaceOnUse">
<stop stop-color="#476DD3"/>
<stop offset="1" stop-color="#7094F1"/>
</linearGradient>
<linearGradient id="paint5_linear_2355_52073" x1="74.4131" y1="238.609" x2="76.6956" y2="194.783" gradientUnits="userSpaceOnUse">
<stop stop-color="#CADFF3"/>
<stop offset="1" stop-color="#D2E6FE"/>
</linearGradient>
<linearGradient id="paint6_linear_2355_52073" x1="105" y1="136.348" x2="137.87" y2="116.717" gradientUnits="userSpaceOnUse">
<stop stop-color="#A0CEF7"/>
<stop offset="1" stop-color="#7FB1EC"/>
</linearGradient>
</defs>
</svg>
