<svg width="1118" height="270" viewBox="0 0 1118 270" fill="none" xmlns="http://www.w3.org/2000/svg">
<path d="M99.3973 2.804L98.9493 1.754L102.309 0.143999H103.107V10H101.903V1.642L99.3973 2.804ZM108.757 4.414H109.191C109.821 4.414 110.339 4.26 110.773 3.966C111.193 3.672 111.403 3.28 111.403 2.818C111.403 1.768 110.577 1.236 108.939 1.236C107.371 1.236 106.517 1.81 106.517 2.818C106.517 3.728 107.455 4.414 108.757 4.414ZM109.163 5.52H108.813C108.057 5.52 107.427 5.688 106.937 6.01C106.447 6.332 106.195 6.738 106.195 7.228C106.195 8.292 107.175 8.964 108.953 8.964C110.759 8.964 111.725 8.32 111.725 7.242C111.725 6.164 110.689 5.52 109.163 5.52ZM111.921 9.37C111.207 9.874 110.213 10.126 108.967 10.126C107.721 10.126 106.727 9.874 105.999 9.384C105.271 8.894 104.907 8.222 104.907 7.354C104.907 6.22 105.649 5.324 106.839 4.932C105.761 4.582 105.229 3.728 105.229 2.734C105.229 1.11 106.601 0.0739993 108.953 0.0739993C111.319 0.0739993 112.691 1.11 112.691 2.734C112.691 3.672 112.173 4.386 111.137 4.862C112.383 5.24 112.999 6.052 112.999 7.298C112.999 8.18 112.635 8.88 111.921 9.37ZM114.189 9.202C114.189 8.81 114.553 8.418 115.057 8.418C115.519 8.418 115.897 8.81 115.897 9.202C115.897 9.65 115.547 10.028 115.057 10.028C114.553 10.028 114.189 9.65 114.189 9.202ZM118.02 3.056L116.97 2.58C117.488 1.068 118.846 0.0739993 120.876 0.0739993C121.842 0.0739993 122.64 0.298 123.256 0.746C123.872 1.194 124.18 1.796 124.18 2.538C124.18 3.672 123.578 4.512 122.458 4.834C123.536 4.904 124.404 5.716 124.404 7.172C124.404 8.096 124.068 8.824 123.396 9.342C122.724 9.86 121.87 10.126 120.82 10.126C118.678 10.126 117.194 9.104 116.704 7.494L117.838 7.004C118.44 8.278 119.462 8.922 120.904 8.922C122.262 8.922 123.116 8.292 123.116 7.186C123.116 6.108 122.276 5.562 120.596 5.562H119.504V4.4H120.372C121.898 4.4 122.892 3.714 122.892 2.776C122.892 1.81 122.094 1.264 120.82 1.264C119.322 1.264 118.412 2.034 118.02 3.056Z" fill="#1A3341"/>
<path d="M99.863 249.372L98.987 249.06C99.287 247.572 100.415 246.504 102.203 246.504C103.931 246.504 104.987 247.5 104.987 249.024C104.987 249.828 104.639 250.632 104.207 251.208C103.991 251.508 103.715 251.796 103.391 252.096C102.731 252.684 102.263 252.996 101.579 253.428L100.655 254.004H105.299V255H98.759V254.184L100.583 252.972C100.907 252.768 101.135 252.612 101.267 252.516C101.399 252.432 101.615 252.276 101.903 252.072C102.191 251.868 102.407 251.688 102.551 251.556C102.683 251.424 102.863 251.256 103.067 251.04C103.619 250.44 103.823 249.888 103.883 249.132C103.883 248.04 103.175 247.548 102.131 247.548C101.483 247.548 100.967 247.728 100.595 248.088C100.223 248.448 99.971 248.88 99.863 249.372ZM106.131 250.8C106.131 249.504 106.431 248.46 107.043 247.68C107.643 246.9 108.531 246.504 109.695 246.504C112.083 246.504 113.271 248.076 113.271 250.8C113.271 252.108 112.971 253.14 112.383 253.92C111.783 254.7 110.895 255.096 109.719 255.096C108.591 255.096 107.715 254.7 107.079 253.908C106.443 253.116 106.131 252.084 106.131 250.8ZM107.235 250.8C107.235 252.852 108.171 254.076 109.719 254.076C111.351 254.076 112.167 252.984 112.167 250.8C112.167 248.616 111.339 247.524 109.695 247.524C108.027 247.524 107.235 248.724 107.235 250.8ZM115.127 249.372L114.251 249.06C114.551 247.572 115.679 246.504 117.467 246.504C119.195 246.504 120.251 247.5 120.251 249.024C120.251 249.828 119.903 250.632 119.471 251.208C119.255 251.508 118.979 251.796 118.655 252.096C117.995 252.684 117.527 252.996 116.843 253.428L115.919 254.004H120.563V255H114.023V254.184L115.847 252.972C116.171 252.768 116.399 252.612 116.531 252.516C116.663 252.432 116.879 252.276 117.167 252.072C117.455 251.868 117.671 251.688 117.815 251.556C117.947 251.424 118.127 251.256 118.331 251.04C118.883 250.44 119.087 249.888 119.147 249.132C119.147 248.04 118.439 247.548 117.395 247.548C116.747 247.548 116.231 247.728 115.859 248.088C115.487 248.448 115.235 248.88 115.127 249.372ZM121.299 248.832L120.915 247.932L123.795 246.552H124.479V255H123.447V247.836L121.299 248.832ZM105.426 264.8C105.426 263.588 105.834 262.556 106.662 261.728C107.49 260.9 108.498 260.492 109.698 260.492C110.886 260.492 111.894 260.9 112.722 261.716C113.55 262.532 113.958 263.564 113.958 264.8C113.958 265.988 113.514 267.044 112.626 267.944L113.466 268.952L112.722 269.576L111.858 268.532C111.174 268.916 110.454 269.108 109.698 269.108C108.474 269.108 107.454 268.7 106.65 267.884C105.834 267.08 105.426 266.048 105.426 264.8ZM106.566 264.8C106.566 265.748 106.866 266.528 107.466 267.14C108.066 267.752 108.81 268.064 109.698 268.064C110.238 268.064 110.73 267.932 111.198 267.656L110.478 266.792L111.174 266.18L111.942 267.104C112.53 266.492 112.818 265.724 112.818 264.8C112.818 263.852 112.518 263.072 111.918 262.46C111.318 261.848 110.574 261.536 109.698 261.536C108.81 261.536 108.066 261.836 107.466 262.448C106.866 263.06 106.566 263.852 106.566 264.8ZM114.692 262.832L114.308 261.932L117.188 260.552H117.872V269H116.84V261.836L114.692 262.832Z" fill="#76848D"/>
<path d="M88 22C88 20.8954 88.8954 20 90 20H134C135.105 20 136 20.8954 136 22V240H88V22Z" fill="url(#paint0_linear_6001_19090)"/>
<path opacity="0.2" d="M100 20H124V240H100V20Z" fill="url(#paint1_linear_6001_19090)"/>
<path opacity="0.04" d="M124 20H134C135.105 20 136 20.8954 136 22V240H124V20Z" fill="#0D262C"/>
<path opacity="0.5" d="M88 22C88 20.8954 88.8954 20 90 20H100V240H88V22Z" fill="url(#paint2_linear_6001_19090)"/>
<path d="M188.56 120.39H182.624V119.2H190.058V119.998L185.186 129H183.856L188.56 120.39ZM190.054 128.202C190.054 127.81 190.418 127.418 190.922 127.418C191.384 127.418 191.762 127.81 191.762 128.202C191.762 128.65 191.412 129.028 190.922 129.028C190.418 129.028 190.054 128.65 190.054 128.202ZM201.068 123.918C201.068 125.584 200.676 126.872 199.878 127.768C199.08 128.678 198.016 129.126 196.686 129.126C195.062 129.126 193.788 128.44 193.158 127.39L194.166 126.69C194.726 127.474 195.748 127.922 196.854 127.922C197.764 127.922 198.492 127.558 199.066 126.83C199.64 126.116 199.878 125.22 199.808 124.156C199.346 125.22 198.184 126.004 196.63 126.004C195.538 126.004 194.642 125.696 193.942 125.066C193.228 124.45 192.878 123.638 192.878 122.644C192.878 121.552 193.256 120.684 194.012 120.04C194.768 119.396 195.776 119.074 197.022 119.074C199.542 119.074 201.068 120.838 201.068 123.918ZM199.598 122.602C199.388 121.3 198.492 120.278 196.882 120.278C195.202 120.278 194.166 121.146 194.166 122.602C194.166 123.988 195.216 124.8 196.854 124.8C197.596 124.8 198.226 124.576 198.716 124.128C199.206 123.68 199.5 123.176 199.598 122.602Z" fill="#1A3341"/>
<path d="M179.863 249.372L178.987 249.06C179.287 247.572 180.415 246.504 182.203 246.504C183.931 246.504 184.987 247.5 184.987 249.024C184.987 249.828 184.639 250.632 184.207 251.208C183.991 251.508 183.715 251.796 183.391 252.096C182.731 252.684 182.263 252.996 181.579 253.428L180.655 254.004H185.299V255H178.759V254.184L180.583 252.972C180.907 252.768 181.135 252.612 181.267 252.516C181.399 252.432 181.615 252.276 181.903 252.072C182.191 251.868 182.407 251.688 182.551 251.556C182.683 251.424 182.863 251.256 183.067 251.04C183.619 250.44 183.823 249.888 183.883 249.132C183.883 248.04 183.175 247.548 182.131 247.548C181.483 247.548 180.967 247.728 180.595 248.088C180.223 248.448 179.971 248.88 179.863 249.372ZM186.131 250.8C186.131 249.504 186.431 248.46 187.043 247.68C187.643 246.9 188.531 246.504 189.695 246.504C192.083 246.504 193.271 248.076 193.271 250.8C193.271 252.108 192.971 253.14 192.383 253.92C191.783 254.7 190.895 255.096 189.719 255.096C188.591 255.096 187.715 254.7 187.079 253.908C186.443 253.116 186.131 252.084 186.131 250.8ZM187.235 250.8C187.235 252.852 188.171 254.076 189.719 254.076C191.351 254.076 192.167 252.984 192.167 250.8C192.167 248.616 191.339 247.524 189.695 247.524C188.027 247.524 187.235 248.724 187.235 250.8ZM195.127 249.372L194.251 249.06C194.551 247.572 195.679 246.504 197.467 246.504C199.195 246.504 200.251 247.5 200.251 249.024C200.251 249.828 199.903 250.632 199.471 251.208C199.255 251.508 198.979 251.796 198.655 252.096C197.995 252.684 197.527 252.996 196.843 253.428L195.919 254.004H200.563V255H194.023V254.184L195.847 252.972C196.171 252.768 196.399 252.612 196.531 252.516C196.663 252.432 196.879 252.276 197.167 252.072C197.455 251.868 197.671 251.688 197.815 251.556C197.947 251.424 198.127 251.256 198.331 251.04C198.883 250.44 199.087 249.888 199.147 249.132C199.147 248.04 198.439 247.548 197.395 247.548C196.747 247.548 196.231 247.728 195.859 248.088C195.487 248.448 195.235 248.88 195.127 249.372ZM201.299 248.832L200.915 247.932L203.795 246.552H204.479V255H203.447V247.836L201.299 248.832ZM184.119 264.8C184.119 263.588 184.527 262.556 185.355 261.728C186.183 260.9 187.191 260.492 188.391 260.492C189.579 260.492 190.587 260.9 191.415 261.716C192.243 262.532 192.651 263.564 192.651 264.8C192.651 265.988 192.207 267.044 191.319 267.944L192.159 268.952L191.415 269.576L190.551 268.532C189.867 268.916 189.147 269.108 188.391 269.108C187.167 269.108 186.147 268.7 185.343 267.884C184.527 267.08 184.119 266.048 184.119 264.8ZM185.259 264.8C185.259 265.748 185.559 266.528 186.159 267.14C186.759 267.752 187.503 268.064 188.391 268.064C188.931 268.064 189.423 267.932 189.891 267.656L189.171 266.792L189.867 266.18L190.635 267.104C191.223 266.492 191.511 265.724 191.511 264.8C191.511 263.852 191.211 263.072 190.611 262.46C190.011 261.848 189.267 261.536 188.391 261.536C187.503 261.536 186.759 261.836 186.159 262.448C185.559 263.06 185.259 263.852 185.259 264.8ZM194.441 263.372L193.565 263.06C193.865 261.572 194.993 260.504 196.781 260.504C198.509 260.504 199.565 261.5 199.565 263.024C199.565 263.828 199.217 264.632 198.785 265.208C198.569 265.508 198.293 265.796 197.969 266.096C197.309 266.684 196.841 266.996 196.157 267.428L195.233 268.004H199.877V269H193.337V268.184L195.161 266.972C195.485 266.768 195.713 266.612 195.845 266.516C195.977 266.432 196.193 266.276 196.481 266.072C196.769 265.868 196.985 265.688 197.129 265.556C197.261 265.424 197.441 265.256 197.645 265.04C198.197 264.44 198.401 263.888 198.461 263.132C198.461 262.04 197.753 261.548 196.709 261.548C196.061 261.548 195.545 261.728 195.173 262.088C194.801 262.448 194.549 262.88 194.441 263.372Z" fill="#76848D"/>
<path d="M168 141C168 139.895 168.895 139 170 139H214C215.105 139 216 139.895 216 141V240H168V141Z" fill="url(#paint3_linear_6001_19090)"/>
<path opacity="0.2" d="M180 139H204V240H180V139Z" fill="url(#paint4_linear_6001_19090)"/>
<path opacity="0.04" d="M204 139H214C215.105 139 216 139.895 216 141V240H204V139Z" fill="#0D262C"/>
<path opacity="0.5" d="M168 141C168 139.895 168.895 139 170 139H180V240H168V141Z" fill="url(#paint5_linear_6001_19090)"/>
<path d="M268.58 170H267.362V167.998H261.37V167.186L267.502 160.2H268.58V166.864H270.4V167.998H268.58V170ZM267.362 162.16L263.05 166.864H267.362V162.16ZM271.182 169.202C271.182 168.81 271.546 168.418 272.05 168.418C272.512 168.418 272.89 168.81 272.89 169.202C272.89 169.65 272.54 170.028 272.05 170.028C271.546 170.028 271.182 169.65 271.182 169.202ZM282.196 164.918C282.196 166.584 281.804 167.872 281.006 168.768C280.208 169.678 279.144 170.126 277.814 170.126C276.19 170.126 274.916 169.44 274.286 168.39L275.294 167.69C275.854 168.474 276.876 168.922 277.982 168.922C278.892 168.922 279.62 168.558 280.194 167.83C280.768 167.116 281.006 166.22 280.936 165.156C280.474 166.22 279.312 167.004 277.758 167.004C276.666 167.004 275.77 166.696 275.07 166.066C274.356 165.45 274.006 164.638 274.006 163.644C274.006 162.552 274.384 161.684 275.14 161.04C275.896 160.396 276.904 160.074 278.15 160.074C280.67 160.074 282.196 161.838 282.196 164.918ZM280.726 163.602C280.516 162.3 279.62 161.278 278.01 161.278C276.33 161.278 275.294 162.146 275.294 163.602C275.294 164.988 276.344 165.8 277.982 165.8C278.724 165.8 279.354 165.576 279.844 165.128C280.334 164.68 280.628 164.176 280.726 163.602Z" fill="#1A3341"/>
<path d="M259.863 249.372L258.987 249.06C259.287 247.572 260.415 246.504 262.203 246.504C263.931 246.504 264.987 247.5 264.987 249.024C264.987 249.828 264.639 250.632 264.207 251.208C263.991 251.508 263.715 251.796 263.391 252.096C262.731 252.684 262.263 252.996 261.579 253.428L260.655 254.004H265.299V255H258.759V254.184L260.583 252.972C260.907 252.768 261.135 252.612 261.267 252.516C261.399 252.432 261.615 252.276 261.903 252.072C262.191 251.868 262.407 251.688 262.551 251.556C262.683 251.424 262.863 251.256 263.067 251.04C263.619 250.44 263.823 249.888 263.883 249.132C263.883 248.04 263.175 247.548 262.131 247.548C261.483 247.548 260.967 247.728 260.595 248.088C260.223 248.448 259.971 248.88 259.863 249.372ZM266.131 250.8C266.131 249.504 266.431 248.46 267.043 247.68C267.643 246.9 268.531 246.504 269.695 246.504C272.083 246.504 273.271 248.076 273.271 250.8C273.271 252.108 272.971 253.14 272.383 253.92C271.783 254.7 270.895 255.096 269.719 255.096C268.591 255.096 267.715 254.7 267.079 253.908C266.443 253.116 266.131 252.084 266.131 250.8ZM267.235 250.8C267.235 252.852 268.171 254.076 269.719 254.076C271.351 254.076 272.167 252.984 272.167 250.8C272.167 248.616 271.339 247.524 269.695 247.524C268.027 247.524 267.235 248.724 267.235 250.8ZM275.127 249.372L274.251 249.06C274.551 247.572 275.679 246.504 277.467 246.504C279.195 246.504 280.251 247.5 280.251 249.024C280.251 249.828 279.903 250.632 279.471 251.208C279.255 251.508 278.979 251.796 278.655 252.096C277.995 252.684 277.527 252.996 276.843 253.428L275.919 254.004H280.563V255H274.023V254.184L275.847 252.972C276.171 252.768 276.399 252.612 276.531 252.516C276.663 252.432 276.879 252.276 277.167 252.072C277.455 251.868 277.671 251.688 277.815 251.556C277.947 251.424 278.127 251.256 278.331 251.04C278.883 250.44 279.087 249.888 279.147 249.132C279.147 248.04 278.439 247.548 277.395 247.548C276.747 247.548 276.231 247.728 275.859 248.088C275.487 248.448 275.235 248.88 275.127 249.372ZM281.299 248.832L280.915 247.932L283.795 246.552H284.479V255H283.447V247.836L281.299 248.832ZM264.09 264.8C264.09 263.588 264.498 262.556 265.326 261.728C266.154 260.9 267.162 260.492 268.362 260.492C269.55 260.492 270.558 260.9 271.386 261.716C272.214 262.532 272.622 263.564 272.622 264.8C272.622 265.988 272.178 267.044 271.29 267.944L272.13 268.952L271.386 269.576L270.522 268.532C269.838 268.916 269.118 269.108 268.362 269.108C267.138 269.108 266.118 268.7 265.314 267.884C264.498 267.08 264.09 266.048 264.09 264.8ZM265.23 264.8C265.23 265.748 265.53 266.528 266.13 267.14C266.73 267.752 267.474 268.064 268.362 268.064C268.902 268.064 269.394 267.932 269.862 267.656L269.142 266.792L269.838 266.18L270.606 267.104C271.194 266.492 271.482 265.724 271.482 264.8C271.482 263.852 271.182 263.072 270.582 262.46C269.982 261.848 269.238 261.536 268.362 261.536C267.474 261.536 266.73 261.836 266.13 262.448C265.53 263.06 265.23 263.852 265.23 264.8ZM274.28 263.048L273.38 262.64C273.824 261.344 274.988 260.492 276.728 260.492C277.556 260.492 278.24 260.684 278.768 261.068C279.296 261.452 279.56 261.968 279.56 262.604C279.56 263.576 279.044 264.296 278.084 264.572C279.008 264.632 279.752 265.328 279.752 266.576C279.752 267.368 279.464 267.992 278.888 268.436C278.312 268.88 277.58 269.108 276.68 269.108C274.844 269.108 273.572 268.232 273.152 266.852L274.124 266.432C274.64 267.524 275.516 268.076 276.752 268.076C277.916 268.076 278.648 267.536 278.648 266.588C278.648 265.664 277.928 265.196 276.488 265.196H275.552V264.2H276.296C277.604 264.2 278.456 263.612 278.456 262.808C278.456 261.98 277.772 261.512 276.68 261.512C275.396 261.512 274.616 262.172 274.28 263.048Z" fill="#76848D"/>
<path d="M248 182C248 180.895 248.895 180 250 180H294C295.105 180 296 180.895 296 182V240H248V182Z" fill="url(#paint6_linear_6001_19090)"/>
<path opacity="0.2" d="M260 180H284V240H260V180Z" fill="url(#paint7_linear_6001_19090)"/>
<path opacity="0.04" d="M284 180H294C295.105 180 296 180.895 296 182V240H284V180Z" fill="#0D262C"/>
<path opacity="0.5" d="M248 182C248 180.895 248.895 180 250 180H260V240H248V182Z" fill="url(#paint8_linear_6001_19090)"/>
<path d="M348.491 182H347.273V179.998H341.281V179.186L347.413 172.2H348.491V178.864H350.311V179.998H348.491V182ZM347.273 174.16L342.961 178.864H347.273V174.16ZM351.094 181.202C351.094 180.81 351.458 180.418 351.962 180.418C352.424 180.418 352.802 180.81 352.802 181.202C352.802 181.65 352.452 182.028 351.962 182.028C351.458 182.028 351.094 181.65 351.094 181.202ZM353.959 177.1C353.959 175.588 354.309 174.37 355.023 173.46C355.723 172.55 356.759 172.088 358.117 172.088C360.903 172.088 362.289 173.922 362.289 177.1C362.289 178.626 361.939 179.83 361.253 180.74C360.553 181.65 359.517 182.112 358.145 182.112C356.829 182.112 355.807 181.65 355.065 180.726C354.323 179.802 353.959 178.598 353.959 177.1ZM355.247 177.1C355.247 179.494 356.339 180.922 358.145 180.922C360.049 180.922 361.001 179.648 361.001 177.1C361.001 174.552 360.035 173.278 358.117 173.278C356.171 173.278 355.247 174.678 355.247 177.1Z" fill="#1A3341"/>
<path d="M339.863 249.372L338.987 249.06C339.287 247.572 340.415 246.504 342.203 246.504C343.931 246.504 344.987 247.5 344.987 249.024C344.987 249.828 344.639 250.632 344.207 251.208C343.991 251.508 343.715 251.796 343.391 252.096C342.731 252.684 342.263 252.996 341.579 253.428L340.655 254.004H345.299V255H338.759V254.184L340.583 252.972C340.907 252.768 341.135 252.612 341.267 252.516C341.399 252.432 341.615 252.276 341.903 252.072C342.191 251.868 342.407 251.688 342.551 251.556C342.683 251.424 342.863 251.256 343.067 251.04C343.619 250.44 343.823 249.888 343.883 249.132C343.883 248.04 343.175 247.548 342.131 247.548C341.483 247.548 340.967 247.728 340.595 248.088C340.223 248.448 339.971 248.88 339.863 249.372ZM346.131 250.8C346.131 249.504 346.431 248.46 347.043 247.68C347.643 246.9 348.531 246.504 349.695 246.504C352.083 246.504 353.271 248.076 353.271 250.8C353.271 252.108 352.971 253.14 352.383 253.92C351.783 254.7 350.895 255.096 349.719 255.096C348.591 255.096 347.715 254.7 347.079 253.908C346.443 253.116 346.131 252.084 346.131 250.8ZM347.235 250.8C347.235 252.852 348.171 254.076 349.719 254.076C351.351 254.076 352.167 252.984 352.167 250.8C352.167 248.616 351.339 247.524 349.695 247.524C348.027 247.524 347.235 248.724 347.235 250.8ZM355.127 249.372L354.251 249.06C354.551 247.572 355.679 246.504 357.467 246.504C359.195 246.504 360.251 247.5 360.251 249.024C360.251 249.828 359.903 250.632 359.471 251.208C359.255 251.508 358.979 251.796 358.655 252.096C357.995 252.684 357.527 252.996 356.843 253.428L355.919 254.004H360.563V255H354.023V254.184L355.847 252.972C356.171 252.768 356.399 252.612 356.531 252.516C356.663 252.432 356.879 252.276 357.167 252.072C357.455 251.868 357.671 251.688 357.815 251.556C357.947 251.424 358.127 251.256 358.331 251.04C358.883 250.44 359.087 249.888 359.147 249.132C359.147 248.04 358.439 247.548 357.395 247.548C356.747 247.548 356.231 247.728 355.859 248.088C355.487 248.448 355.235 248.88 355.127 249.372ZM361.299 248.832L360.915 247.932L363.795 246.552H364.479V255H363.447V247.836L361.299 248.832ZM343.762 264.8C343.762 263.588 344.17 262.556 344.998 261.728C345.826 260.9 346.834 260.492 348.034 260.492C349.222 260.492 350.23 260.9 351.058 261.716C351.886 262.532 352.294 263.564 352.294 264.8C352.294 265.988 351.85 267.044 350.962 267.944L351.802 268.952L351.058 269.576L350.194 268.532C349.51 268.916 348.79 269.108 348.034 269.108C346.81 269.108 345.79 268.7 344.986 267.884C344.17 267.08 343.762 266.048 343.762 264.8ZM344.902 264.8C344.902 265.748 345.202 266.528 345.802 267.14C346.402 267.752 347.146 268.064 348.034 268.064C348.574 268.064 349.066 267.932 349.534 267.656L348.814 266.792L349.51 266.18L350.278 267.104C350.866 266.492 351.154 265.724 351.154 264.8C351.154 263.852 350.854 263.072 350.254 262.46C349.654 261.848 348.91 261.536 348.034 261.536C347.146 261.536 346.402 261.836 345.802 262.448C345.202 263.06 344.902 263.852 344.902 264.8ZM358.92 269H357.876V267.284H352.74V266.588L357.996 260.6H358.92V266.312H360.48V267.284H358.92V269ZM357.876 262.28L354.18 266.312H357.876V262.28Z" fill="#76848D"/>
<path d="M328 194C328 192.895 328.895 192 330 192H374C375.105 192 376 192.895 376 194V240H328V194Z" fill="url(#paint9_linear_6001_19090)"/>
<path opacity="0.2" d="M340 192H364V240H340V192Z" fill="url(#paint10_linear_6001_19090)"/>
<path opacity="0.04" d="M364 192H374C375.105 192 376 192.895 376 194V240H364V192Z" fill="#0D262C"/>
<path opacity="0.5" d="M328 194C328 192.895 328.895 192 330 192H340V240H328V194Z" fill="url(#paint11_linear_6001_19090)"/>
<path d="M428.58 175.696H427.362V173.694H421.37V172.882L427.502 165.896H428.58V172.56H430.4V173.694H428.58V175.696ZM427.362 167.856L423.05 172.56H427.362V167.856ZM431.182 174.898C431.182 174.506 431.546 174.114 432.05 174.114C432.512 174.114 432.89 174.506 432.89 174.898C432.89 175.346 432.54 175.724 432.05 175.724C431.546 175.724 431.182 175.346 431.182 174.898ZM437.912 170.11H438.346C438.976 170.11 439.494 169.956 439.928 169.662C440.348 169.368 440.558 168.976 440.558 168.514C440.558 167.464 439.732 166.932 438.094 166.932C436.526 166.932 435.672 167.506 435.672 168.514C435.672 169.424 436.61 170.11 437.912 170.11ZM438.318 171.216H437.968C437.212 171.216 436.582 171.384 436.092 171.706C435.602 172.028 435.35 172.434 435.35 172.924C435.35 173.988 436.33 174.66 438.108 174.66C439.914 174.66 440.88 174.016 440.88 172.938C440.88 171.86 439.844 171.216 438.318 171.216ZM441.076 175.066C440.362 175.57 439.368 175.822 438.122 175.822C436.876 175.822 435.882 175.57 435.154 175.08C434.426 174.59 434.062 173.918 434.062 173.05C434.062 171.916 434.804 171.02 435.994 170.628C434.916 170.278 434.384 169.424 434.384 168.43C434.384 166.806 435.756 165.77 438.108 165.77C440.474 165.77 441.846 166.806 441.846 168.43C441.846 169.368 441.328 170.082 440.292 170.558C441.538 170.936 442.154 171.748 442.154 172.994C442.154 173.876 441.79 174.576 441.076 175.066Z" fill="#1A3341"/>
<path d="M418.556 249.068L417.68 248.756C417.98 247.268 419.108 246.2 420.896 246.2C422.624 246.2 423.68 247.196 423.68 248.72C423.68 249.524 423.332 250.328 422.9 250.904C422.684 251.204 422.408 251.492 422.084 251.792C421.424 252.38 420.956 252.692 420.272 253.124L419.348 253.7H423.992V254.696H417.452V253.88L419.276 252.668C419.6 252.464 419.828 252.308 419.96 252.212C420.092 252.128 420.308 251.972 420.596 251.768C420.884 251.564 421.1 251.384 421.244 251.252C421.376 251.12 421.556 250.952 421.76 250.736C422.312 250.136 422.516 249.584 422.576 248.828C422.576 247.736 421.868 247.244 420.824 247.244C420.176 247.244 419.66 247.424 419.288 247.784C418.916 248.144 418.664 248.576 418.556 249.068ZM424.824 250.496C424.824 249.2 425.124 248.156 425.736 247.376C426.336 246.596 427.224 246.2 428.388 246.2C430.776 246.2 431.964 247.772 431.964 250.496C431.964 251.804 431.664 252.836 431.076 253.616C430.476 254.396 429.588 254.792 428.412 254.792C427.284 254.792 426.408 254.396 425.772 253.604C425.136 252.812 424.824 251.78 424.824 250.496ZM425.928 250.496C425.928 252.548 426.864 253.772 428.412 253.772C430.044 253.772 430.86 252.68 430.86 250.496C430.86 248.312 430.032 247.22 428.388 247.22C426.72 247.22 425.928 248.42 425.928 250.496ZM433.82 249.068L432.944 248.756C433.244 247.268 434.372 246.2 436.16 246.2C437.888 246.2 438.944 247.196 438.944 248.72C438.944 249.524 438.596 250.328 438.164 250.904C437.948 251.204 437.672 251.492 437.348 251.792C436.688 252.38 436.22 252.692 435.536 253.124L434.612 253.7H439.256V254.696H432.716V253.88L434.54 252.668C434.864 252.464 435.092 252.308 435.224 252.212C435.356 252.128 435.572 251.972 435.86 251.768C436.148 251.564 436.364 251.384 436.508 251.252C436.64 251.12 436.82 250.952 437.024 250.736C437.576 250.136 437.78 249.584 437.84 248.828C437.84 247.736 437.132 247.244 436.088 247.244C435.44 247.244 434.924 247.424 434.552 247.784C434.18 248.144 433.928 248.576 433.82 249.068ZM441.048 249.068L440.172 248.756C440.472 247.268 441.6 246.2 443.388 246.2C445.116 246.2 446.172 247.196 446.172 248.72C446.172 249.524 445.824 250.328 445.392 250.904C445.176 251.204 444.9 251.492 444.576 251.792C443.916 252.38 443.448 252.692 442.764 253.124L441.84 253.7H446.484V254.696H439.944V253.88L441.768 252.668C442.092 252.464 442.32 252.308 442.452 252.212C442.584 252.128 442.8 251.972 443.088 251.768C443.376 251.564 443.592 251.384 443.736 251.252C443.868 251.12 444.048 250.952 444.252 250.736C444.804 250.136 445.008 249.584 445.068 248.828C445.068 247.736 444.36 247.244 443.316 247.244C442.668 247.244 442.152 247.424 441.78 247.784C441.408 248.144 441.156 248.576 441.048 249.068ZM425.426 264.496C425.426 263.284 425.834 262.252 426.662 261.424C427.49 260.596 428.498 260.188 429.698 260.188C430.886 260.188 431.894 260.596 432.722 261.412C433.55 262.228 433.958 263.26 433.958 264.496C433.958 265.684 433.514 266.74 432.626 267.64L433.466 268.648L432.722 269.272L431.858 268.228C431.174 268.612 430.454 268.804 429.698 268.804C428.474 268.804 427.454 268.396 426.65 267.58C425.834 266.776 425.426 265.744 425.426 264.496ZM426.566 264.496C426.566 265.444 426.866 266.224 427.466 266.836C428.066 267.448 428.81 267.76 429.698 267.76C430.238 267.76 430.73 267.628 431.198 267.352L430.478 266.488L431.174 265.876L431.942 266.8C432.53 266.188 432.818 265.42 432.818 264.496C432.818 263.548 432.518 262.768 431.918 262.156C431.318 261.544 430.574 261.232 429.698 261.232C428.81 261.232 428.066 261.532 427.466 262.144C426.866 262.756 426.566 263.548 426.566 264.496ZM434.692 262.528L434.308 261.628L437.188 260.248H437.872V268.696H436.84V261.532L434.692 262.528Z" fill="#76848D"/>
<path d="M408 187.696C408 186.592 408.895 185.696 410 185.696H454C455.105 185.696 456 186.592 456 187.696V239.696H408V187.696Z" fill="url(#paint12_linear_6001_19090)"/>
<path opacity="0.2" d="M420 185.696H444V239.696H420V185.696Z" fill="url(#paint13_linear_6001_19090)"/>
<path opacity="0.04" d="M444 185.696H454C455.105 185.696 456 186.592 456 187.696V239.696H444V185.696Z" fill="#0D262C"/>
<path opacity="0.5" d="M408 187.696C408 186.592 408.895 185.696 410 185.696H420V239.696H408V187.696Z" fill="url(#paint14_linear_6001_19090)"/>
<path d="M501.729 220.1C501.729 218.588 502.079 217.37 502.793 216.46C503.493 215.55 504.529 215.088 505.887 215.088C508.673 215.088 510.059 216.922 510.059 220.1C510.059 221.626 509.709 222.83 509.023 223.74C508.323 224.65 507.287 225.112 505.915 225.112C504.599 225.112 503.577 224.65 502.835 223.726C502.093 222.802 501.729 221.598 501.729 220.1ZM503.017 220.1C503.017 222.494 504.109 223.922 505.915 223.922C507.819 223.922 508.771 222.648 508.771 220.1C508.771 217.552 507.805 216.278 505.887 216.278C503.941 216.278 503.017 217.678 503.017 220.1ZM511.203 224.202C511.203 223.81 511.567 223.418 512.071 223.418C512.533 223.418 512.911 223.81 512.911 224.202C512.911 224.65 512.561 225.028 512.071 225.028C511.567 225.028 511.203 224.65 511.203 224.202ZM520.83 225H519.612V222.998H513.62V222.186L519.752 215.2H520.83V221.864H522.65V222.998H520.83V225ZM519.612 217.16L515.3 221.864H519.612V217.16Z" fill="#1A3341"/>
<path d="M498.556 249.372L497.68 249.06C497.98 247.572 499.108 246.504 500.896 246.504C502.624 246.504 503.68 247.5 503.68 249.024C503.68 249.828 503.332 250.632 502.9 251.208C502.684 251.508 502.408 251.796 502.084 252.096C501.424 252.684 500.956 252.996 500.272 253.428L499.348 254.004H503.992V255H497.452V254.184L499.276 252.972C499.6 252.768 499.828 252.612 499.96 252.516C500.092 252.432 500.308 252.276 500.596 252.072C500.884 251.868 501.1 251.688 501.244 251.556C501.376 251.424 501.556 251.256 501.76 251.04C502.312 250.44 502.516 249.888 502.576 249.132C502.576 248.04 501.868 247.548 500.824 247.548C500.176 247.548 499.66 247.728 499.288 248.088C498.916 248.448 498.664 248.88 498.556 249.372ZM504.824 250.8C504.824 249.504 505.124 248.46 505.736 247.68C506.336 246.9 507.224 246.504 508.388 246.504C510.776 246.504 511.964 248.076 511.964 250.8C511.964 252.108 511.664 253.14 511.076 253.92C510.476 254.7 509.588 255.096 508.412 255.096C507.284 255.096 506.408 254.7 505.772 253.908C505.136 253.116 504.824 252.084 504.824 250.8ZM505.928 250.8C505.928 252.852 506.864 254.076 508.412 254.076C510.044 254.076 510.86 252.984 510.86 250.8C510.86 248.616 510.032 247.524 508.388 247.524C506.72 247.524 505.928 248.724 505.928 250.8ZM513.82 249.372L512.944 249.06C513.244 247.572 514.372 246.504 516.16 246.504C517.888 246.504 518.944 247.5 518.944 249.024C518.944 249.828 518.596 250.632 518.164 251.208C517.948 251.508 517.672 251.796 517.348 252.096C516.688 252.684 516.22 252.996 515.536 253.428L514.612 254.004H519.256V255H512.716V254.184L514.54 252.972C514.864 252.768 515.092 252.612 515.224 252.516C515.356 252.432 515.572 252.276 515.86 252.072C516.148 251.868 516.364 251.688 516.508 251.556C516.64 251.424 516.82 251.256 517.024 251.04C517.576 250.44 517.78 249.888 517.84 249.132C517.84 248.04 517.132 247.548 516.088 247.548C515.44 247.548 514.924 247.728 514.552 248.088C514.18 248.448 513.928 248.88 513.82 249.372ZM521.048 249.372L520.172 249.06C520.472 247.572 521.6 246.504 523.388 246.504C525.116 246.504 526.172 247.5 526.172 249.024C526.172 249.828 525.824 250.632 525.392 251.208C525.176 251.508 524.9 251.796 524.576 252.096C523.916 252.684 523.448 252.996 522.764 253.428L521.84 254.004H526.484V255H519.944V254.184L521.768 252.972C522.092 252.768 522.32 252.612 522.452 252.516C522.584 252.432 522.8 252.276 523.088 252.072C523.376 251.868 523.592 251.688 523.736 251.556C523.868 251.424 524.048 251.256 524.252 251.04C524.804 250.44 525.008 249.888 525.068 249.132C525.068 248.04 524.36 247.548 523.316 247.548C522.668 247.548 522.152 247.728 521.78 248.088C521.408 248.448 521.156 248.88 521.048 249.372ZM504.119 264.8C504.119 263.588 504.527 262.556 505.355 261.728C506.183 260.9 507.191 260.492 508.391 260.492C509.579 260.492 510.587 260.9 511.415 261.716C512.243 262.532 512.651 263.564 512.651 264.8C512.651 265.988 512.207 267.044 511.319 267.944L512.159 268.952L511.415 269.576L510.551 268.532C509.867 268.916 509.147 269.108 508.391 269.108C507.167 269.108 506.147 268.7 505.343 267.884C504.527 267.08 504.119 266.048 504.119 264.8ZM505.259 264.8C505.259 265.748 505.559 266.528 506.159 267.14C506.759 267.752 507.503 268.064 508.391 268.064C508.931 268.064 509.423 267.932 509.891 267.656L509.171 266.792L509.867 266.18L510.635 267.104C511.223 266.492 511.511 265.724 511.511 264.8C511.511 263.852 511.211 263.072 510.611 262.46C510.011 261.848 509.267 261.536 508.391 261.536C507.503 261.536 506.759 261.836 506.159 262.448C505.559 263.06 505.259 263.852 505.259 264.8ZM514.441 263.372L513.565 263.06C513.865 261.572 514.993 260.504 516.781 260.504C518.509 260.504 519.565 261.5 519.565 263.024C519.565 263.828 519.217 264.632 518.785 265.208C518.569 265.508 518.293 265.796 517.969 266.096C517.309 266.684 516.841 266.996 516.157 267.428L515.233 268.004H519.877V269H513.337V268.184L515.161 266.972C515.485 266.768 515.713 266.612 515.845 266.516C515.977 266.432 516.193 266.276 516.481 266.072C516.769 265.868 516.985 265.688 517.129 265.556C517.261 265.424 517.441 265.256 517.645 265.04C518.197 264.44 518.401 263.888 518.461 263.132C518.461 262.04 517.753 261.548 516.709 261.548C516.061 261.548 515.545 261.728 515.173 262.088C514.801 262.448 514.549 262.88 514.441 263.372Z" fill="#76848D"/>
<path d="M488 237C488 235.895 488.895 235 490 235H534C535.105 235 536 235.895 536 237V240H488V237Z" fill="url(#paint15_linear_6001_19090)"/>
<path opacity="0.2" d="M500 235H524V240H500V235Z" fill="url(#paint16_linear_6001_19090)"/>
<path opacity="0.04" d="M524 235H534C535.105 235 536 235.895 536 237V240H524V235Z" fill="#0D262C"/>
<path opacity="0.5" d="M488 237C488 235.895 488.895 235 490 235H500V240H488V237Z" fill="url(#paint17_linear_6001_19090)"/>
<path d="M583.167 179.891L582.117 179.415C582.635 177.903 583.993 176.909 586.023 176.909C586.989 176.909 587.787 177.133 588.403 177.581C589.019 178.029 589.327 178.631 589.327 179.373C589.327 180.507 588.725 181.347 587.605 181.669C588.683 181.739 589.551 182.551 589.551 184.007C589.551 184.931 589.215 185.659 588.543 186.177C587.871 186.695 587.017 186.961 585.967 186.961C583.825 186.961 582.341 185.939 581.851 184.329L582.985 183.839C583.587 185.113 584.609 185.757 586.051 185.757C587.409 185.757 588.263 185.127 588.263 184.021C588.263 182.943 587.423 182.397 585.743 182.397H584.651V181.235H585.519C587.045 181.235 588.039 180.549 588.039 179.611C588.039 178.645 587.241 178.099 585.967 178.099C584.469 178.099 583.559 178.869 583.167 179.891ZM590.8 186.037C590.8 185.645 591.164 185.253 591.668 185.253C592.13 185.253 592.508 185.645 592.508 186.037C592.508 186.485 592.158 186.863 591.668 186.863C591.164 186.863 590.8 186.485 590.8 186.037ZM601.813 181.753C601.813 183.419 601.421 184.707 600.623 185.603C599.825 186.513 598.761 186.961 597.431 186.961C595.807 186.961 594.533 186.275 593.903 185.225L594.911 184.525C595.471 185.309 596.493 185.757 597.599 185.757C598.509 185.757 599.237 185.393 599.811 184.665C600.385 183.951 600.623 183.055 600.553 181.991C600.091 183.055 598.929 183.839 597.375 183.839C596.283 183.839 595.387 183.531 594.687 182.901C593.973 182.285 593.623 181.473 593.623 180.479C593.623 179.387 594.001 178.519 594.757 177.875C595.513 177.231 596.521 176.909 597.767 176.909C600.287 176.909 601.813 178.673 601.813 181.753ZM600.343 180.437C600.133 179.135 599.237 178.113 597.627 178.113C595.947 178.113 594.911 178.981 594.911 180.437C594.911 181.823 595.961 182.635 597.599 182.635C598.341 182.635 598.971 182.411 599.461 181.963C599.951 181.515 600.245 181.011 600.343 180.437Z" fill="#1A3341"/>
<path d="M578.556 249.207L577.68 248.895C577.98 247.407 579.108 246.339 580.896 246.339C582.624 246.339 583.68 247.335 583.68 248.859C583.68 249.663 583.332 250.467 582.9 251.043C582.684 251.343 582.408 251.631 582.084 251.931C581.424 252.519 580.956 252.831 580.272 253.263L579.348 253.839H583.992V254.835H577.452V254.019L579.276 252.807C579.6 252.603 579.828 252.447 579.96 252.351C580.092 252.267 580.308 252.111 580.596 251.907C580.884 251.703 581.1 251.523 581.244 251.391C581.376 251.259 581.556 251.091 581.76 250.875C582.312 250.275 582.516 249.723 582.576 248.967C582.576 247.875 581.868 247.383 580.824 247.383C580.176 247.383 579.66 247.563 579.288 247.923C578.916 248.283 578.664 248.715 578.556 249.207ZM584.824 250.635C584.824 249.339 585.124 248.295 585.736 247.515C586.336 246.735 587.224 246.339 588.388 246.339C590.776 246.339 591.964 247.911 591.964 250.635C591.964 251.943 591.664 252.975 591.076 253.755C590.476 254.535 589.588 254.931 588.412 254.931C587.284 254.931 586.408 254.535 585.772 253.743C585.136 252.951 584.824 251.919 584.824 250.635ZM585.928 250.635C585.928 252.687 586.864 253.911 588.412 253.911C590.044 253.911 590.86 252.819 590.86 250.635C590.86 248.451 590.032 247.359 588.388 247.359C586.72 247.359 585.928 248.559 585.928 250.635ZM593.82 249.207L592.944 248.895C593.244 247.407 594.372 246.339 596.16 246.339C597.888 246.339 598.944 247.335 598.944 248.859C598.944 249.663 598.596 250.467 598.164 251.043C597.948 251.343 597.672 251.631 597.348 251.931C596.688 252.519 596.22 252.831 595.536 253.263L594.612 253.839H599.256V254.835H592.716V254.019L594.54 252.807C594.864 252.603 595.092 252.447 595.224 252.351C595.356 252.267 595.572 252.111 595.86 251.907C596.148 251.703 596.364 251.523 596.508 251.391C596.64 251.259 596.82 251.091 597.024 250.875C597.576 250.275 597.78 249.723 597.84 248.967C597.84 247.875 597.132 247.383 596.088 247.383C595.44 247.383 594.924 247.563 594.552 247.923C594.18 248.283 593.928 248.715 593.82 249.207ZM601.048 249.207L600.172 248.895C600.472 247.407 601.6 246.339 603.388 246.339C605.116 246.339 606.172 247.335 606.172 248.859C606.172 249.663 605.824 250.467 605.392 251.043C605.176 251.343 604.9 251.631 604.576 251.931C603.916 252.519 603.448 252.831 602.764 253.263L601.84 253.839H606.484V254.835H599.944V254.019L601.768 252.807C602.092 252.603 602.32 252.447 602.452 252.351C602.584 252.267 602.8 252.111 603.088 251.907C603.376 251.703 603.592 251.523 603.736 251.391C603.868 251.259 604.048 251.091 604.252 250.875C604.804 250.275 605.008 249.723 605.068 248.967C605.068 247.875 604.36 247.383 603.316 247.383C602.668 247.383 602.152 247.563 601.78 247.923C601.408 248.283 601.156 248.715 601.048 249.207ZM584.09 264.635C584.09 263.423 584.498 262.391 585.326 261.563C586.154 260.735 587.162 260.327 588.362 260.327C589.55 260.327 590.558 260.735 591.386 261.551C592.214 262.367 592.622 263.399 592.622 264.635C592.622 265.823 592.178 266.879 591.29 267.779L592.13 268.787L591.386 269.411L590.522 268.367C589.838 268.751 589.118 268.943 588.362 268.943C587.138 268.943 586.118 268.535 585.314 267.719C584.498 266.915 584.09 265.883 584.09 264.635ZM585.23 264.635C585.23 265.583 585.53 266.363 586.13 266.975C586.73 267.587 587.474 267.899 588.362 267.899C588.902 267.899 589.394 267.767 589.862 267.491L589.142 266.627L589.838 266.015L590.606 266.939C591.194 266.327 591.482 265.559 591.482 264.635C591.482 263.687 591.182 262.907 590.582 262.295C589.982 261.683 589.238 261.371 588.362 261.371C587.474 261.371 586.73 261.671 586.13 262.283C585.53 262.895 585.23 263.687 585.23 264.635ZM594.28 262.883L593.38 262.475C593.824 261.179 594.988 260.327 596.728 260.327C597.556 260.327 598.24 260.519 598.768 260.903C599.296 261.287 599.56 261.803 599.56 262.439C599.56 263.411 599.044 264.131 598.084 264.407C599.008 264.467 599.752 265.163 599.752 266.411C599.752 267.203 599.464 267.827 598.888 268.271C598.312 268.715 597.58 268.943 596.68 268.943C594.844 268.943 593.572 268.067 593.152 266.687L594.124 266.267C594.64 267.359 595.516 267.911 596.752 267.911C597.916 267.911 598.648 267.371 598.648 266.423C598.648 265.499 597.928 265.031 596.488 265.031H595.552V264.035H596.296C597.604 264.035 598.456 263.447 598.456 262.643C598.456 261.815 597.772 261.347 596.68 261.347C595.396 261.347 594.616 262.007 594.28 262.883Z" fill="#76848D"/>
<path d="M568 198.835C568 197.731 568.895 196.835 570 196.835H614C615.105 196.835 616 197.731 616 198.835V239.835H568V198.835Z" fill="url(#paint18_linear_6001_19090)"/>
<path opacity="0.2" d="M580 196.835H604V239.835H580V196.835Z" fill="url(#paint19_linear_6001_19090)"/>
<path opacity="0.04" d="M604 196.835H614C615.105 196.835 616 197.731 616 198.835V239.835H604V196.835Z" fill="#0D262C"/>
<path opacity="0.5" d="M568 198.835C568 197.731 568.895 196.835 570 196.835H580V239.835H568V198.835Z" fill="url(#paint20_linear_6001_19090)"/>
<path d="M663.355 190.016L662.333 189.652C662.683 187.916 663.999 186.67 666.085 186.67C668.101 186.67 669.333 187.832 669.333 189.61C669.333 190.548 668.927 191.486 668.423 192.158C668.171 192.508 667.849 192.844 667.471 193.194C666.701 193.88 666.155 194.244 665.357 194.748L664.279 195.42H669.697V196.582H662.067V195.63L664.195 194.216C664.573 193.978 664.839 193.796 664.993 193.684C665.147 193.586 665.399 193.404 665.735 193.166C666.071 192.928 666.323 192.718 666.491 192.564C666.645 192.41 666.855 192.214 667.093 191.962C667.737 191.262 667.975 190.618 668.045 189.736C668.045 188.462 667.219 187.888 666.001 187.888C665.245 187.888 664.643 188.098 664.209 188.518C663.775 188.938 663.481 189.442 663.355 190.016ZM670.765 195.784C670.765 195.392 671.129 195 671.633 195C672.095 195 672.473 195.392 672.473 195.784C672.473 196.232 672.123 196.61 671.633 196.61C671.129 196.61 670.765 196.232 670.765 195.784ZM681.779 191.5C681.779 193.166 681.387 194.454 680.589 195.35C679.791 196.26 678.727 196.708 677.397 196.708C675.773 196.708 674.499 196.022 673.869 194.972L674.877 194.272C675.437 195.056 676.459 195.504 677.565 195.504C678.475 195.504 679.203 195.14 679.777 194.412C680.351 193.698 680.589 192.802 680.519 191.738C680.057 192.802 678.895 193.586 677.341 193.586C676.249 193.586 675.353 193.278 674.653 192.648C673.939 192.032 673.589 191.22 673.589 190.226C673.589 189.134 673.967 188.266 674.723 187.622C675.479 186.978 676.487 186.656 677.733 186.656C680.253 186.656 681.779 188.42 681.779 191.5ZM680.309 190.184C680.099 188.882 679.203 187.86 677.593 187.86C675.913 187.86 674.877 188.728 674.877 190.184C674.877 191.57 675.927 192.382 677.565 192.382C678.307 192.382 678.937 192.158 679.427 191.71C679.917 191.262 680.211 190.758 680.309 190.184Z" fill="#1A3341"/>
<path d="M658.556 248.954L657.68 248.642C657.98 247.154 659.108 246.086 660.896 246.086C662.624 246.086 663.68 247.082 663.68 248.606C663.68 249.41 663.332 250.214 662.9 250.79C662.684 251.09 662.408 251.378 662.084 251.678C661.424 252.266 660.956 252.578 660.272 253.01L659.348 253.586H663.992V254.582H657.452V253.766L659.276 252.554C659.6 252.35 659.828 252.194 659.96 252.098C660.092 252.014 660.308 251.858 660.596 251.654C660.884 251.45 661.1 251.27 661.244 251.138C661.376 251.006 661.556 250.838 661.76 250.622C662.312 250.022 662.516 249.47 662.576 248.714C662.576 247.622 661.868 247.13 660.824 247.13C660.176 247.13 659.66 247.31 659.288 247.67C658.916 248.03 658.664 248.462 658.556 248.954ZM664.824 250.382C664.824 249.086 665.124 248.042 665.736 247.262C666.336 246.482 667.224 246.086 668.388 246.086C670.776 246.086 671.964 247.658 671.964 250.382C671.964 251.69 671.664 252.722 671.076 253.502C670.476 254.282 669.588 254.678 668.412 254.678C667.284 254.678 666.408 254.282 665.772 253.49C665.136 252.698 664.824 251.666 664.824 250.382ZM665.928 250.382C665.928 252.434 666.864 253.658 668.412 253.658C670.044 253.658 670.86 252.566 670.86 250.382C670.86 248.198 670.032 247.106 668.388 247.106C666.72 247.106 665.928 248.306 665.928 250.382ZM673.82 248.954L672.944 248.642C673.244 247.154 674.372 246.086 676.16 246.086C677.888 246.086 678.944 247.082 678.944 248.606C678.944 249.41 678.596 250.214 678.164 250.79C677.948 251.09 677.672 251.378 677.348 251.678C676.688 252.266 676.22 252.578 675.536 253.01L674.612 253.586H679.256V254.582H672.716V253.766L674.54 252.554C674.864 252.35 675.092 252.194 675.224 252.098C675.356 252.014 675.572 251.858 675.86 251.654C676.148 251.45 676.364 251.27 676.508 251.138C676.64 251.006 676.82 250.838 677.024 250.622C677.576 250.022 677.78 249.47 677.84 248.714C677.84 247.622 677.132 247.13 676.088 247.13C675.44 247.13 674.924 247.31 674.552 247.67C674.18 248.03 673.928 248.462 673.82 248.954ZM681.048 248.954L680.172 248.642C680.472 247.154 681.6 246.086 683.388 246.086C685.116 246.086 686.172 247.082 686.172 248.606C686.172 249.41 685.824 250.214 685.392 250.79C685.176 251.09 684.9 251.378 684.576 251.678C683.916 252.266 683.448 252.578 682.764 253.01L681.84 253.586H686.484V254.582H679.944V253.766L681.768 252.554C682.092 252.35 682.32 252.194 682.452 252.098C682.584 252.014 682.8 251.858 683.088 251.654C683.376 251.45 683.592 251.27 683.736 251.138C683.868 251.006 684.048 250.838 684.252 250.622C684.804 250.022 685.008 249.47 685.068 248.714C685.068 247.622 684.36 247.13 683.316 247.13C682.668 247.13 682.152 247.31 681.78 247.67C681.408 248.03 681.156 248.462 681.048 248.954ZM663.762 264.382C663.762 263.17 664.17 262.138 664.998 261.31C665.826 260.482 666.834 260.074 668.034 260.074C669.222 260.074 670.23 260.482 671.058 261.298C671.886 262.114 672.294 263.146 672.294 264.382C672.294 265.57 671.85 266.626 670.962 267.526L671.802 268.534L671.058 269.158L670.194 268.114C669.51 268.498 668.79 268.69 668.034 268.69C666.81 268.69 665.79 268.282 664.986 267.466C664.17 266.662 663.762 265.63 663.762 264.382ZM664.902 264.382C664.902 265.33 665.202 266.11 665.802 266.722C666.402 267.334 667.146 267.646 668.034 267.646C668.574 267.646 669.066 267.514 669.534 267.238L668.814 266.374L669.51 265.762L670.278 266.686C670.866 266.074 671.154 265.306 671.154 264.382C671.154 263.434 670.854 262.654 670.254 262.042C669.654 261.43 668.91 261.118 668.034 261.118C667.146 261.118 666.402 261.418 665.802 262.03C665.202 262.642 664.902 263.434 664.902 264.382ZM678.92 268.582H677.876V266.866H672.74V266.17L677.996 260.182H678.92V265.894H680.48V266.866H678.92V268.582ZM677.876 261.862L674.18 265.894H677.876V261.862Z" fill="#76848D"/>
<path d="M648 208.582C648 207.478 648.895 206.582 650 206.582H694C695.105 206.582 696 207.478 696 208.582V239.582H648V208.582Z" fill="url(#paint21_linear_6001_19090)"/>
<path opacity="0.2" d="M660 206.582H684V239.582H660V206.582Z" fill="url(#paint22_linear_6001_19090)"/>
<path opacity="0.04" d="M684 206.582H694C695.105 206.582 696 207.478 696 208.582V239.582H684V206.582Z" fill="#0D262C"/>
<path opacity="0.5" d="M648 208.582C648 207.478 648.895 206.582 650 206.582H660V239.582H648V208.582Z" fill="url(#paint23_linear_6001_19090)"/>
<path d="M748.847 177.089H747.629V175.087H741.637V174.275L747.769 167.289H748.847V173.953H750.667V175.087H748.847V177.089ZM747.629 169.249L743.317 173.953H747.629V169.249ZM751.449 176.291C751.449 175.899 751.813 175.507 752.317 175.507C752.779 175.507 753.157 175.899 753.157 176.291C753.157 176.739 752.807 177.117 752.317 177.117C751.813 177.117 751.449 176.739 751.449 176.291ZM755.743 172.581L754.735 172.315L755.309 167.289H761.469V168.479H756.387L756.023 171.111C756.513 170.747 757.255 170.565 758.249 170.565C759.397 170.565 760.293 170.873 760.951 171.475C761.595 172.091 761.917 172.875 761.917 173.841C761.917 174.807 761.553 175.619 760.839 176.249C760.111 176.893 759.201 177.215 758.123 177.215C756.289 177.215 754.763 176.347 754.133 174.821L755.253 174.345C755.659 175.283 756.709 176.025 758.123 176.025C759.733 176.025 760.629 175.101 760.629 173.883C760.629 172.581 759.579 171.741 757.913 171.741C757.017 171.741 756.289 172.021 755.743 172.581Z" fill="#1A3341"/>
<path d="M738.527 249.461L737.651 249.149C737.951 247.661 739.079 246.593 740.867 246.593C742.595 246.593 743.651 247.589 743.651 249.113C743.651 249.917 743.303 250.721 742.871 251.297C742.655 251.597 742.379 251.885 742.055 252.185C741.395 252.773 740.927 253.085 740.243 253.517L739.319 254.093H743.963V255.089H737.423V254.273L739.247 253.061C739.571 252.857 739.799 252.701 739.931 252.605C740.063 252.521 740.279 252.365 740.567 252.161C740.855 251.957 741.071 251.777 741.215 251.645C741.347 251.513 741.527 251.345 741.731 251.129C742.283 250.529 742.487 249.977 742.547 249.221C742.547 248.129 741.839 247.637 740.795 247.637C740.147 247.637 739.631 247.817 739.259 248.177C738.887 248.537 738.635 248.969 738.527 249.461ZM744.795 250.889C744.795 249.593 745.095 248.549 745.707 247.769C746.307 246.989 747.195 246.593 748.359 246.593C750.747 246.593 751.935 248.165 751.935 250.889C751.935 252.197 751.635 253.229 751.047 254.009C750.447 254.789 749.559 255.185 748.383 255.185C747.255 255.185 746.379 254.789 745.743 253.997C745.107 253.205 744.795 252.173 744.795 250.889ZM745.899 250.889C745.899 252.941 746.835 254.165 748.383 254.165C750.015 254.165 750.831 253.073 750.831 250.889C750.831 248.705 750.003 247.613 748.359 247.613C746.691 247.613 745.899 248.813 745.899 250.889ZM753.791 249.461L752.915 249.149C753.215 247.661 754.343 246.593 756.131 246.593C757.859 246.593 758.915 247.589 758.915 249.113C758.915 249.917 758.567 250.721 758.135 251.297C757.919 251.597 757.643 251.885 757.319 252.185C756.659 252.773 756.191 253.085 755.507 253.517L754.583 254.093H759.227V255.089H752.687V254.273L754.511 253.061C754.835 252.857 755.063 252.701 755.195 252.605C755.327 252.521 755.543 252.365 755.831 252.161C756.119 251.957 756.335 251.777 756.479 251.645C756.611 251.513 756.791 251.345 756.995 251.129C757.547 250.529 757.751 249.977 757.811 249.221C757.811 248.129 757.103 247.637 756.059 247.637C755.411 247.637 754.895 247.817 754.523 248.177C754.151 248.537 753.899 248.969 753.791 249.461ZM760.887 249.137L759.987 248.729C760.431 247.433 761.595 246.581 763.335 246.581C764.163 246.581 764.847 246.773 765.375 247.157C765.903 247.541 766.167 248.057 766.167 248.693C766.167 249.665 765.651 250.385 764.691 250.661C765.615 250.721 766.359 251.417 766.359 252.665C766.359 253.457 766.071 254.081 765.495 254.525C764.919 254.969 764.187 255.197 763.287 255.197C761.451 255.197 760.179 254.321 759.759 252.941L760.731 252.521C761.247 253.613 762.123 254.165 763.359 254.165C764.523 254.165 765.255 253.625 765.255 252.677C765.255 251.753 764.535 251.285 763.095 251.285H762.159V250.289H762.903C764.211 250.289 765.063 249.701 765.063 248.897C765.063 248.069 764.379 247.601 763.287 247.601C762.003 247.601 761.223 248.261 760.887 249.137ZM745.426 264.889C745.426 263.677 745.834 262.645 746.662 261.817C747.49 260.989 748.498 260.581 749.698 260.581C750.886 260.581 751.894 260.989 752.722 261.805C753.55 262.621 753.958 263.653 753.958 264.889C753.958 266.077 753.514 267.133 752.626 268.033L753.466 269.041L752.722 269.665L751.858 268.621C751.174 269.005 750.454 269.197 749.698 269.197C748.474 269.197 747.454 268.789 746.65 267.973C745.834 267.169 745.426 266.137 745.426 264.889ZM746.566 264.889C746.566 265.837 746.866 266.617 747.466 267.229C748.066 267.841 748.81 268.153 749.698 268.153C750.238 268.153 750.73 268.021 751.198 267.745L750.478 266.881L751.174 266.269L751.942 267.193C752.53 266.581 752.818 265.813 752.818 264.889C752.818 263.941 752.518 263.161 751.918 262.549C751.318 261.937 750.574 261.625 749.698 261.625C748.81 261.625 748.066 261.925 747.466 262.537C746.866 263.149 746.566 263.941 746.566 264.889ZM754.692 262.921L754.308 262.021L757.188 260.641H757.872V269.089H756.84V261.925L754.692 262.921Z" fill="#76848D"/>
<path d="M728 189.089C728 187.984 728.895 187.089 730 187.089H774C775.105 187.089 776 187.984 776 189.089V240.089H728V189.089Z" fill="url(#paint24_linear_6001_19090)"/>
<path opacity="0.2" d="M740 187.089H764V240.089H740V187.089Z" fill="url(#paint25_linear_6001_19090)"/>
<path opacity="0.04" d="M764 187.089H774C775.105 187.089 776 187.984 776 189.089V240.089H764V187.089Z" fill="#0D262C"/>
<path opacity="0.5" d="M728 189.089C728 187.984 728.895 187.089 730 187.089H740V240.089H728V189.089Z" fill="url(#paint26_linear_6001_19090)"/>
<path d="M822.215 148.784C822.215 147.09 822.635 145.788 823.461 144.864C824.287 143.954 825.323 143.492 826.569 143.492C828.207 143.492 829.495 144.234 830.041 145.41L829.089 146.054C828.515 145.144 827.661 144.696 826.513 144.696C825.645 144.696 824.917 145.032 824.329 145.704C823.741 146.39 823.447 147.314 823.461 148.504C824.007 147.482 825.281 146.866 826.681 146.866C827.815 146.866 828.725 147.16 829.383 147.762C830.041 148.364 830.377 149.162 830.377 150.142C830.377 151.136 830.013 151.962 829.271 152.592C828.529 153.222 827.605 153.544 826.499 153.544C823.853 153.544 822.215 151.822 822.215 148.784ZM823.615 149.974C823.881 151.36 824.931 152.34 826.485 152.34C827.241 152.34 827.871 152.144 828.361 151.738C828.851 151.346 829.089 150.828 829.089 150.198C829.089 148.812 828.109 148.07 826.611 148.07C825.785 148.07 825.099 148.266 824.567 148.658C824.021 149.05 823.713 149.484 823.615 149.974ZM831.483 152.62C831.483 152.228 831.847 151.836 832.351 151.836C832.813 151.836 833.191 152.228 833.191 152.62C833.191 153.068 832.841 153.446 832.351 153.446C831.847 153.446 831.483 153.068 831.483 152.62ZM835.315 146.474L834.265 145.998C834.783 144.486 836.141 143.492 838.171 143.492C839.137 143.492 839.935 143.716 840.551 144.164C841.167 144.612 841.475 145.214 841.475 145.956C841.475 147.09 840.873 147.93 839.753 148.252C840.831 148.322 841.699 149.134 841.699 150.59C841.699 151.514 841.363 152.242 840.691 152.76C840.019 153.278 839.165 153.544 838.115 153.544C835.973 153.544 834.489 152.522 833.999 150.912L835.133 150.422C835.735 151.696 836.757 152.34 838.199 152.34C839.557 152.34 840.411 151.71 840.411 150.604C840.411 149.526 839.571 148.98 837.891 148.98H836.799V147.818H837.667C839.193 147.818 840.187 147.132 840.187 146.194C840.187 145.228 839.389 144.682 838.115 144.682C836.617 144.682 835.707 145.452 835.315 146.474Z" fill="#1A3341"/>
<path d="M818.527 249.79L817.651 249.478C817.951 247.99 819.079 246.922 820.867 246.922C822.595 246.922 823.651 247.918 823.651 249.442C823.651 250.246 823.303 251.05 822.871 251.626C822.655 251.926 822.379 252.214 822.055 252.514C821.395 253.102 820.927 253.414 820.243 253.846L819.319 254.422H823.963V255.418H817.423V254.602L819.247 253.39C819.571 253.186 819.799 253.03 819.931 252.934C820.063 252.85 820.279 252.694 820.567 252.49C820.855 252.286 821.071 252.106 821.215 251.974C821.347 251.842 821.527 251.674 821.731 251.458C822.283 250.858 822.487 250.306 822.547 249.55C822.547 248.458 821.839 247.966 820.795 247.966C820.147 247.966 819.631 248.146 819.259 248.506C818.887 248.866 818.635 249.298 818.527 249.79ZM824.795 251.218C824.795 249.922 825.095 248.878 825.707 248.098C826.307 247.318 827.195 246.922 828.359 246.922C830.747 246.922 831.935 248.494 831.935 251.218C831.935 252.526 831.635 253.558 831.047 254.338C830.447 255.118 829.559 255.514 828.383 255.514C827.255 255.514 826.379 255.118 825.743 254.326C825.107 253.534 824.795 252.502 824.795 251.218ZM825.899 251.218C825.899 253.27 826.835 254.494 828.383 254.494C830.015 254.494 830.831 253.402 830.831 251.218C830.831 249.034 830.003 247.942 828.359 247.942C826.691 247.942 825.899 249.142 825.899 251.218ZM833.791 249.79L832.915 249.478C833.215 247.99 834.343 246.922 836.131 246.922C837.859 246.922 838.915 247.918 838.915 249.442C838.915 250.246 838.567 251.05 838.135 251.626C837.919 251.926 837.643 252.214 837.319 252.514C836.659 253.102 836.191 253.414 835.507 253.846L834.583 254.422H839.227V255.418H832.687V254.602L834.511 253.39C834.835 253.186 835.063 253.03 835.195 252.934C835.327 252.85 835.543 252.694 835.831 252.49C836.119 252.286 836.335 252.106 836.479 251.974C836.611 251.842 836.791 251.674 836.995 251.458C837.547 250.858 837.751 250.306 837.811 249.55C837.811 248.458 837.103 247.966 836.059 247.966C835.411 247.966 834.895 248.146 834.523 248.506C834.151 248.866 833.899 249.298 833.791 249.79ZM840.887 249.466L839.987 249.058C840.431 247.762 841.595 246.91 843.335 246.91C844.163 246.91 844.847 247.102 845.375 247.486C845.903 247.87 846.167 248.386 846.167 249.022C846.167 249.994 845.651 250.714 844.691 250.99C845.615 251.05 846.359 251.746 846.359 252.994C846.359 253.786 846.071 254.41 845.495 254.854C844.919 255.298 844.187 255.526 843.287 255.526C841.451 255.526 840.179 254.65 839.759 253.27L840.731 252.85C841.247 253.942 842.123 254.494 843.359 254.494C844.523 254.494 845.255 253.954 845.255 253.006C845.255 252.082 844.535 251.614 843.095 251.614H842.159V250.618H842.903C844.211 250.618 845.063 250.03 845.063 249.226C845.063 248.398 844.379 247.93 843.287 247.93C842.003 247.93 841.223 248.59 840.887 249.466ZM824.119 265.218C824.119 264.006 824.527 262.974 825.355 262.146C826.183 261.318 827.191 260.91 828.391 260.91C829.579 260.91 830.587 261.318 831.415 262.134C832.243 262.95 832.651 263.982 832.651 265.218C832.651 266.406 832.207 267.462 831.319 268.362L832.159 269.37L831.415 269.994L830.551 268.95C829.867 269.334 829.147 269.526 828.391 269.526C827.167 269.526 826.147 269.118 825.343 268.302C824.527 267.498 824.119 266.466 824.119 265.218ZM825.259 265.218C825.259 266.166 825.559 266.946 826.159 267.558C826.759 268.17 827.503 268.482 828.391 268.482C828.931 268.482 829.423 268.35 829.891 268.074L829.171 267.21L829.867 266.598L830.635 267.522C831.223 266.91 831.511 266.142 831.511 265.218C831.511 264.27 831.211 263.49 830.611 262.878C830.011 262.266 829.267 261.954 828.391 261.954C827.503 261.954 826.759 262.254 826.159 262.866C825.559 263.478 825.259 264.27 825.259 265.218ZM834.441 263.79L833.565 263.478C833.865 261.99 834.993 260.922 836.781 260.922C838.509 260.922 839.565 261.918 839.565 263.442C839.565 264.246 839.217 265.05 838.785 265.626C838.569 265.926 838.293 266.214 837.969 266.514C837.309 267.102 836.841 267.414 836.157 267.846L835.233 268.422H839.877V269.418H833.337V268.602L835.161 267.39C835.485 267.186 835.713 267.03 835.845 266.934C835.977 266.85 836.193 266.694 836.481 266.49C836.769 266.286 836.985 266.106 837.129 265.974C837.261 265.842 837.441 265.674 837.645 265.458C838.197 264.858 838.401 264.306 838.461 263.55C838.461 262.458 837.753 261.966 836.709 261.966C836.061 261.966 835.545 262.146 835.173 262.506C834.801 262.866 834.549 263.298 834.441 263.79Z" fill="#76848D"/>
<path d="M808 165.418C808 164.313 808.895 163.418 810 163.418H854C855.105 163.418 856 164.313 856 165.418V240.418H808V165.418Z" fill="url(#paint27_linear_6001_19090)"/>
<path opacity="0.2" d="M820 163.418H844V240.418H820V163.418Z" fill="url(#paint28_linear_6001_19090)"/>
<path opacity="0.04" d="M844 163.418H854C855.105 163.418 856 164.313 856 165.418V240.418H844V163.418Z" fill="#0D262C"/>
<path opacity="0.5" d="M808 165.418C808 164.313 808.895 163.418 810 163.418H820V240.418H808V165.418Z" fill="url(#paint29_linear_6001_19090)"/>
<path d="M908.58 172.911H907.362V170.909H901.37V170.097L907.502 163.111H908.58V169.775H910.4V170.909H908.58V172.911ZM907.362 165.071L903.05 169.775H907.362V165.071ZM911.182 172.113C911.182 171.721 911.546 171.329 912.05 171.329C912.512 171.329 912.89 171.721 912.89 172.113C912.89 172.561 912.54 172.939 912.05 172.939C911.546 172.939 911.182 172.561 911.182 172.113ZM922.196 167.829C922.196 169.495 921.804 170.783 921.006 171.679C920.208 172.589 919.144 173.037 917.814 173.037C916.19 173.037 914.916 172.351 914.286 171.301L915.294 170.601C915.854 171.385 916.876 171.833 917.982 171.833C918.892 171.833 919.62 171.469 920.194 170.741C920.768 170.027 921.006 169.131 920.936 168.067C920.474 169.131 919.312 169.915 917.758 169.915C916.666 169.915 915.77 169.607 915.07 168.977C914.356 168.361 914.006 167.549 914.006 166.555C914.006 165.463 914.384 164.595 915.14 163.951C915.896 163.307 916.904 162.985 918.15 162.985C920.67 162.985 922.196 164.749 922.196 167.829ZM920.726 166.513C920.516 165.211 919.62 164.189 918.01 164.189C916.33 164.189 915.294 165.057 915.294 166.513C915.294 167.899 916.344 168.711 917.982 168.711C918.724 168.711 919.354 168.487 919.844 168.039C920.334 167.591 920.628 167.087 920.726 166.513Z" fill="#1A3341"/>
<path d="M898.527 249.283L897.651 248.971C897.951 247.483 899.079 246.415 900.867 246.415C902.595 246.415 903.651 247.411 903.651 248.935C903.651 249.739 903.303 250.543 902.871 251.119C902.655 251.419 902.379 251.707 902.055 252.007C901.395 252.595 900.927 252.907 900.243 253.339L899.319 253.915H903.963V254.911H897.423V254.095L899.247 252.883C899.571 252.679 899.799 252.523 899.931 252.427C900.063 252.343 900.279 252.187 900.567 251.983C900.855 251.779 901.071 251.599 901.215 251.467C901.347 251.335 901.527 251.167 901.731 250.951C902.283 250.351 902.487 249.799 902.547 249.043C902.547 247.951 901.839 247.459 900.795 247.459C900.147 247.459 899.631 247.639 899.259 247.999C898.887 248.359 898.635 248.791 898.527 249.283ZM904.795 250.711C904.795 249.415 905.095 248.371 905.707 247.591C906.307 246.811 907.195 246.415 908.359 246.415C910.747 246.415 911.935 247.987 911.935 250.711C911.935 252.019 911.635 253.051 911.047 253.831C910.447 254.611 909.559 255.007 908.383 255.007C907.255 255.007 906.379 254.611 905.743 253.819C905.107 253.027 904.795 251.995 904.795 250.711ZM905.899 250.711C905.899 252.763 906.835 253.987 908.383 253.987C910.015 253.987 910.831 252.895 910.831 250.711C910.831 248.527 910.003 247.435 908.359 247.435C906.691 247.435 905.899 248.635 905.899 250.711ZM913.791 249.283L912.915 248.971C913.215 247.483 914.343 246.415 916.131 246.415C917.859 246.415 918.915 247.411 918.915 248.935C918.915 249.739 918.567 250.543 918.135 251.119C917.919 251.419 917.643 251.707 917.319 252.007C916.659 252.595 916.191 252.907 915.507 253.339L914.583 253.915H919.227V254.911H912.687V254.095L914.511 252.883C914.835 252.679 915.063 252.523 915.195 252.427C915.327 252.343 915.543 252.187 915.831 251.983C916.119 251.779 916.335 251.599 916.479 251.467C916.611 251.335 916.791 251.167 916.995 250.951C917.547 250.351 917.751 249.799 917.811 249.043C917.811 247.951 917.103 247.459 916.059 247.459C915.411 247.459 914.895 247.639 914.523 247.999C914.151 248.359 913.899 248.791 913.791 249.283ZM920.887 248.959L919.987 248.551C920.431 247.255 921.595 246.403 923.335 246.403C924.163 246.403 924.847 246.595 925.375 246.979C925.903 247.363 926.167 247.879 926.167 248.515C926.167 249.487 925.651 250.207 924.691 250.483C925.615 250.543 926.359 251.239 926.359 252.487C926.359 253.279 926.071 253.903 925.495 254.347C924.919 254.791 924.187 255.019 923.287 255.019C921.451 255.019 920.179 254.143 919.759 252.763L920.731 252.343C921.247 253.435 922.123 253.987 923.359 253.987C924.523 253.987 925.255 253.447 925.255 252.499C925.255 251.575 924.535 251.107 923.095 251.107H922.159V250.111H922.903C924.211 250.111 925.063 249.523 925.063 248.719C925.063 247.891 924.379 247.423 923.287 247.423C922.003 247.423 921.223 248.083 920.887 248.959ZM904.09 264.711C904.09 263.499 904.498 262.467 905.326 261.639C906.154 260.811 907.162 260.403 908.362 260.403C909.55 260.403 910.558 260.811 911.386 261.627C912.214 262.443 912.622 263.475 912.622 264.711C912.622 265.899 912.178 266.955 911.29 267.855L912.13 268.863L911.386 269.487L910.522 268.443C909.838 268.827 909.118 269.019 908.362 269.019C907.138 269.019 906.118 268.611 905.314 267.795C904.498 266.991 904.09 265.959 904.09 264.711ZM905.23 264.711C905.23 265.659 905.53 266.439 906.13 267.051C906.73 267.663 907.474 267.975 908.362 267.975C908.902 267.975 909.394 267.843 909.862 267.567L909.142 266.703L909.838 266.091L910.606 267.015C911.194 266.403 911.482 265.635 911.482 264.711C911.482 263.763 911.182 262.983 910.582 262.371C909.982 261.759 909.238 261.447 908.362 261.447C907.474 261.447 906.73 261.747 906.13 262.359C905.53 262.971 905.23 263.763 905.23 264.711ZM914.28 262.959L913.38 262.551C913.824 261.255 914.988 260.403 916.728 260.403C917.556 260.403 918.24 260.595 918.768 260.979C919.296 261.363 919.56 261.879 919.56 262.515C919.56 263.487 919.044 264.207 918.084 264.483C919.008 264.543 919.752 265.239 919.752 266.487C919.752 267.279 919.464 267.903 918.888 268.347C918.312 268.791 917.58 269.019 916.68 269.019C914.844 269.019 913.572 268.143 913.152 266.763L914.124 266.343C914.64 267.435 915.516 267.987 916.752 267.987C917.916 267.987 918.648 267.447 918.648 266.499C918.648 265.575 917.928 265.107 916.488 265.107H915.552V264.111H916.296C917.604 264.111 918.456 263.523 918.456 262.719C918.456 261.891 917.772 261.423 916.68 261.423C915.396 261.423 914.616 262.083 914.28 262.959Z" fill="#76848D"/>
<path d="M888 184.911C888 183.807 888.895 182.911 890 182.911H934C935.105 182.911 936 183.807 936 184.911V239.911H888V184.911Z" fill="url(#paint30_linear_6001_19090)"/>
<path opacity="0.2" d="M900 182.911H924V239.911H900V182.911Z" fill="url(#paint31_linear_6001_19090)"/>
<path opacity="0.04" d="M924 182.911H934C935.105 182.911 936 183.807 936 184.911V239.911H924V182.911Z" fill="#0D262C"/>
<path opacity="0.5" d="M888 184.911C888 183.807 888.895 182.911 890 182.911H900V239.911H888V184.911Z" fill="url(#paint32_linear_6001_19090)"/>
<path d="M983.93 157.264L982.922 156.998L983.496 151.972H989.656V153.162H984.574L984.21 155.794C984.7 155.43 985.442 155.248 986.436 155.248C987.584 155.248 988.48 155.556 989.138 156.158C989.782 156.774 990.104 157.558 990.104 158.524C990.104 159.49 989.74 160.302 989.026 160.932C988.298 161.576 987.388 161.898 986.31 161.898C984.476 161.898 982.95 161.03 982.32 159.504L983.44 159.028C983.846 159.966 984.896 160.708 986.31 160.708C987.92 160.708 988.816 159.784 988.816 158.566C988.816 157.264 987.766 156.424 986.1 156.424C985.204 156.424 984.476 156.704 983.93 157.264ZM991.264 160.974C991.264 160.582 991.628 160.19 992.132 160.19C992.594 160.19 992.972 160.582 992.972 160.974C992.972 161.422 992.622 161.8 992.132 161.8C991.628 161.8 991.264 161.422 991.264 160.974ZM995.25 155.206L994.228 154.842C994.578 153.106 995.894 151.86 997.98 151.86C999.996 151.86 1001.23 153.022 1001.23 154.8C1001.23 155.738 1000.82 156.676 1000.32 157.348C1000.07 157.698 999.744 158.034 999.366 158.384C998.596 159.07 998.05 159.434 997.252 159.938L996.174 160.61H1001.59V161.772H993.962V160.82L996.09 159.406C996.468 159.168 996.734 158.986 996.888 158.874C997.042 158.776 997.294 158.594 997.63 158.356C997.966 158.118 998.218 157.908 998.386 157.754C998.54 157.6 998.75 157.404 998.988 157.152C999.632 156.452 999.87 155.808 999.94 154.926C999.94 153.652 999.114 153.078 997.896 153.078C997.14 153.078 996.538 153.288 996.104 153.708C995.67 154.128 995.376 154.632 995.25 155.206Z" fill="#1A3341"/>
<path d="M978.527 249.144L977.651 248.832C977.951 247.344 979.079 246.276 980.867 246.276C982.595 246.276 983.651 247.272 983.651 248.796C983.651 249.6 983.303 250.404 982.871 250.98C982.655 251.28 982.379 251.568 982.055 251.868C981.395 252.456 980.927 252.768 980.243 253.2L979.319 253.776H983.963V254.772H977.423V253.956L979.247 252.744C979.571 252.54 979.799 252.384 979.931 252.288C980.063 252.204 980.279 252.048 980.567 251.844C980.855 251.64 981.071 251.46 981.215 251.328C981.347 251.196 981.527 251.028 981.731 250.812C982.283 250.212 982.487 249.66 982.547 248.904C982.547 247.812 981.839 247.32 980.795 247.32C980.147 247.32 979.631 247.5 979.259 247.86C978.887 248.22 978.635 248.652 978.527 249.144ZM984.795 250.572C984.795 249.276 985.095 248.232 985.707 247.452C986.307 246.672 987.195 246.276 988.359 246.276C990.747 246.276 991.935 247.848 991.935 250.572C991.935 251.88 991.635 252.912 991.047 253.692C990.447 254.472 989.559 254.868 988.383 254.868C987.255 254.868 986.379 254.472 985.743 253.68C985.107 252.888 984.795 251.856 984.795 250.572ZM985.899 250.572C985.899 252.624 986.835 253.848 988.383 253.848C990.015 253.848 990.831 252.756 990.831 250.572C990.831 248.388 990.003 247.296 988.359 247.296C986.691 247.296 985.899 248.496 985.899 250.572ZM993.791 249.144L992.915 248.832C993.215 247.344 994.343 246.276 996.131 246.276C997.859 246.276 998.915 247.272 998.915 248.796C998.915 249.6 998.567 250.404 998.135 250.98C997.919 251.28 997.643 251.568 997.319 251.868C996.659 252.456 996.191 252.768 995.507 253.2L994.583 253.776H999.227V254.772H992.687V253.956L994.511 252.744C994.835 252.54 995.063 252.384 995.195 252.288C995.327 252.204 995.543 252.048 995.831 251.844C996.119 251.64 996.335 251.46 996.479 251.328C996.611 251.196 996.791 251.028 996.995 250.812C997.547 250.212 997.751 249.66 997.811 248.904C997.811 247.812 997.103 247.32 996.059 247.32C995.411 247.32 994.895 247.5 994.523 247.86C994.151 248.22 993.899 248.652 993.791 249.144ZM1000.89 248.82L999.987 248.412C1000.43 247.116 1001.59 246.264 1003.33 246.264C1004.16 246.264 1004.85 246.456 1005.37 246.84C1005.9 247.224 1006.17 247.74 1006.17 248.376C1006.17 249.348 1005.65 250.068 1004.69 250.344C1005.61 250.404 1006.36 251.1 1006.36 252.348C1006.36 253.14 1006.07 253.764 1005.49 254.208C1004.92 254.652 1004.19 254.88 1003.29 254.88C1001.45 254.88 1000.18 254.004 999.759 252.624L1000.73 252.204C1001.25 253.296 1002.12 253.848 1003.36 253.848C1004.52 253.848 1005.25 253.308 1005.25 252.36C1005.25 251.436 1004.53 250.968 1003.09 250.968H1002.16V249.972H1002.9C1004.21 249.972 1005.06 249.384 1005.06 248.58C1005.06 247.752 1004.38 247.284 1003.29 247.284C1002 247.284 1001.22 247.944 1000.89 248.82ZM983.762 264.572C983.762 263.36 984.17 262.328 984.998 261.5C985.826 260.672 986.834 260.264 988.034 260.264C989.222 260.264 990.23 260.672 991.058 261.488C991.886 262.304 992.294 263.336 992.294 264.572C992.294 265.76 991.85 266.816 990.962 267.716L991.802 268.724L991.058 269.348L990.194 268.304C989.51 268.688 988.79 268.88 988.034 268.88C986.81 268.88 985.79 268.472 984.986 267.656C984.17 266.852 983.762 265.82 983.762 264.572ZM984.902 264.572C984.902 265.52 985.202 266.3 985.802 266.912C986.402 267.524 987.146 267.836 988.034 267.836C988.574 267.836 989.066 267.704 989.534 267.428L988.814 266.564L989.51 265.952L990.278 266.876C990.866 266.264 991.154 265.496 991.154 264.572C991.154 263.624 990.854 262.844 990.254 262.232C989.654 261.62 988.91 261.308 988.034 261.308C987.146 261.308 986.402 261.608 985.802 262.22C985.202 262.832 984.902 263.624 984.902 264.572ZM998.92 268.772H997.876V267.056H992.74V266.36L997.996 260.372H998.92V266.084H1000.48V267.056H998.92V268.772ZM997.876 262.052L994.18 266.084H997.876V262.052Z" fill="#76848D"/>
<path d="M968 173.772C968 172.668 968.895 171.772 970 171.772H1014C1015.1 171.772 1016 172.668 1016 173.772V239.772H968V173.772Z" fill="url(#paint33_linear_6001_19090)"/>
<path opacity="0.2" d="M980 171.772H1004V239.772H980V171.772Z" fill="url(#paint34_linear_6001_19090)"/>
<path opacity="0.04" d="M1004 171.772H1014C1015.1 171.772 1016 172.668 1016 173.772V239.772H1004V171.772Z" fill="#0D262C"/>
<path opacity="0.5" d="M968 173.772C968 172.668 968.895 171.772 970 171.772H980V239.772H968V173.772Z" fill="url(#paint35_linear_6001_19090)"/>
<line x1="-4.37114e-08" y1="239.5" x2="1118" y2="239.5" stroke="#ABBEC9"/>
<defs>
<linearGradient id="paint0_linear_6001_19090" x1="112" y1="20" x2="112" y2="240" gradientUnits="userSpaceOnUse">
<stop stop-color="#6D73F9"/>
<stop offset="1" stop-color="#9BB8F1"/>
</linearGradient>
<linearGradient id="paint1_linear_6001_19090" x1="112" y1="20" x2="112" y2="240" gradientUnits="userSpaceOnUse">
<stop stop-color="white" stop-opacity="0"/>
<stop offset="0.739583" stop-color="white"/>
</linearGradient>
<linearGradient id="paint2_linear_6001_19090" x1="94" y1="-409" x2="94" y2="240" gradientUnits="userSpaceOnUse">
<stop stop-color="white" stop-opacity="0.05"/>
<stop offset="0.75" stop-color="white" stop-opacity="0.8"/>
</linearGradient>
<linearGradient id="paint3_linear_6001_19090" x1="192" y1="139" x2="192" y2="240" gradientUnits="userSpaceOnUse">
<stop stop-color="#6D73F9"/>
<stop offset="1" stop-color="#9BB8F1"/>
</linearGradient>
<linearGradient id="paint4_linear_6001_19090" x1="192" y1="139" x2="192" y2="240" gradientUnits="userSpaceOnUse">
<stop stop-color="white" stop-opacity="0"/>
<stop offset="0.739583" stop-color="white"/>
</linearGradient>
<linearGradient id="paint5_linear_6001_19090" x1="174" y1="-57.95" x2="174" y2="240" gradientUnits="userSpaceOnUse">
<stop stop-color="white" stop-opacity="0.05"/>
<stop offset="0.75" stop-color="white" stop-opacity="0.8"/>
</linearGradient>
<linearGradient id="paint6_linear_6001_19090" x1="272" y1="180" x2="272" y2="240" gradientUnits="userSpaceOnUse">
<stop stop-color="#6D73F9"/>
<stop offset="1" stop-color="#9BB8F1"/>
</linearGradient>
<linearGradient id="paint7_linear_6001_19090" x1="272" y1="180" x2="272" y2="240" gradientUnits="userSpaceOnUse">
<stop stop-color="white" stop-opacity="0"/>
<stop offset="0.739583" stop-color="white"/>
</linearGradient>
<linearGradient id="paint8_linear_6001_19090" x1="254" y1="63" x2="254" y2="240" gradientUnits="userSpaceOnUse">
<stop stop-color="white" stop-opacity="0.05"/>
<stop offset="0.75" stop-color="white" stop-opacity="0.8"/>
</linearGradient>
<linearGradient id="paint9_linear_6001_19090" x1="352" y1="192" x2="352" y2="240" gradientUnits="userSpaceOnUse">
<stop stop-color="#6D73F9"/>
<stop offset="1" stop-color="#9BB8F1"/>
</linearGradient>
<linearGradient id="paint10_linear_6001_19090" x1="352" y1="192" x2="352" y2="240" gradientUnits="userSpaceOnUse">
<stop stop-color="white" stop-opacity="0"/>
<stop offset="0.739583" stop-color="white"/>
</linearGradient>
<linearGradient id="paint11_linear_6001_19090" x1="334" y1="98.4" x2="334" y2="240" gradientUnits="userSpaceOnUse">
<stop stop-color="white" stop-opacity="0.05"/>
<stop offset="0.75" stop-color="white" stop-opacity="0.8"/>
</linearGradient>
<linearGradient id="paint12_linear_6001_19090" x1="432" y1="185.696" x2="432" y2="239.696" gradientUnits="userSpaceOnUse">
<stop stop-color="#6D73F9"/>
<stop offset="1" stop-color="#9BB8F1"/>
</linearGradient>
<linearGradient id="paint13_linear_6001_19090" x1="432" y1="185.696" x2="432" y2="239.696" gradientUnits="userSpaceOnUse">
<stop stop-color="white" stop-opacity="0"/>
<stop offset="0.739583" stop-color="white"/>
</linearGradient>
<linearGradient id="paint14_linear_6001_19090" x1="414" y1="80.3963" x2="414" y2="239.696" gradientUnits="userSpaceOnUse">
<stop stop-color="white" stop-opacity="0.05"/>
<stop offset="0.75" stop-color="white" stop-opacity="0.8"/>
</linearGradient>
<linearGradient id="paint15_linear_6001_19090" x1="512" y1="235" x2="512" y2="240" gradientUnits="userSpaceOnUse">
<stop stop-color="#6D73F9"/>
<stop offset="1" stop-color="#9BB8F1"/>
</linearGradient>
<linearGradient id="paint16_linear_6001_19090" x1="512" y1="235" x2="512" y2="240" gradientUnits="userSpaceOnUse">
<stop stop-color="white" stop-opacity="0"/>
<stop offset="0.739583" stop-color="white"/>
</linearGradient>
<linearGradient id="paint17_linear_6001_19090" x1="494" y1="225.25" x2="494" y2="240" gradientUnits="userSpaceOnUse">
<stop stop-color="white" stop-opacity="0.05"/>
<stop offset="0.75" stop-color="white" stop-opacity="0.8"/>
</linearGradient>
<linearGradient id="paint18_linear_6001_19090" x1="592" y1="196.835" x2="592" y2="239.835" gradientUnits="userSpaceOnUse">
<stop stop-color="#6D73F9"/>
<stop offset="1" stop-color="#9BB8F1"/>
</linearGradient>
<linearGradient id="paint19_linear_6001_19090" x1="592" y1="196.835" x2="592" y2="239.835" gradientUnits="userSpaceOnUse">
<stop stop-color="white" stop-opacity="0"/>
<stop offset="0.739583" stop-color="white"/>
</linearGradient>
<linearGradient id="paint20_linear_6001_19090" x1="574" y1="112.985" x2="574" y2="239.835" gradientUnits="userSpaceOnUse">
<stop stop-color="white" stop-opacity="0.05"/>
<stop offset="0.75" stop-color="white" stop-opacity="0.8"/>
</linearGradient>
<linearGradient id="paint21_linear_6001_19090" x1="672" y1="206.582" x2="672" y2="239.582" gradientUnits="userSpaceOnUse">
<stop stop-color="#6D73F9"/>
<stop offset="1" stop-color="#9BB8F1"/>
</linearGradient>
<linearGradient id="paint22_linear_6001_19090" x1="672" y1="206.582" x2="672" y2="239.582" gradientUnits="userSpaceOnUse">
<stop stop-color="white" stop-opacity="0"/>
<stop offset="0.739583" stop-color="white"/>
</linearGradient>
<linearGradient id="paint23_linear_6001_19090" x1="654" y1="142.232" x2="654" y2="239.582" gradientUnits="userSpaceOnUse">
<stop stop-color="white" stop-opacity="0.05"/>
<stop offset="0.75" stop-color="white" stop-opacity="0.8"/>
</linearGradient>
<linearGradient id="paint24_linear_6001_19090" x1="752" y1="187.089" x2="752" y2="240.089" gradientUnits="userSpaceOnUse">
<stop stop-color="#6D73F9"/>
<stop offset="1" stop-color="#9BB8F1"/>
</linearGradient>
<linearGradient id="paint25_linear_6001_19090" x1="752" y1="187.089" x2="752" y2="240.089" gradientUnits="userSpaceOnUse">
<stop stop-color="white" stop-opacity="0"/>
<stop offset="0.739583" stop-color="white"/>
</linearGradient>
<linearGradient id="paint26_linear_6001_19090" x1="734" y1="83.7386" x2="734" y2="240.089" gradientUnits="userSpaceOnUse">
<stop stop-color="white" stop-opacity="0.05"/>
<stop offset="0.75" stop-color="white" stop-opacity="0.8"/>
</linearGradient>
<linearGradient id="paint27_linear_6001_19090" x1="832" y1="163.418" x2="832" y2="240.418" gradientUnits="userSpaceOnUse">
<stop stop-color="#6D73F9"/>
<stop offset="1" stop-color="#9BB8F1"/>
</linearGradient>
<linearGradient id="paint28_linear_6001_19090" x1="832" y1="163.418" x2="832" y2="240.418" gradientUnits="userSpaceOnUse">
<stop stop-color="white" stop-opacity="0"/>
<stop offset="0.739583" stop-color="white"/>
</linearGradient>
<linearGradient id="paint29_linear_6001_19090" x1="814" y1="13.2677" x2="814" y2="240.418" gradientUnits="userSpaceOnUse">
<stop stop-color="white" stop-opacity="0.05"/>
<stop offset="0.75" stop-color="white" stop-opacity="0.8"/>
</linearGradient>
<linearGradient id="paint30_linear_6001_19090" x1="912" y1="182.911" x2="912" y2="239.911" gradientUnits="userSpaceOnUse">
<stop stop-color="#6D73F9"/>
<stop offset="1" stop-color="#9BB8F1"/>
</linearGradient>
<linearGradient id="paint31_linear_6001_19090" x1="912" y1="182.911" x2="912" y2="239.911" gradientUnits="userSpaceOnUse">
<stop stop-color="white" stop-opacity="0"/>
<stop offset="0.739583" stop-color="white"/>
</linearGradient>
<linearGradient id="paint32_linear_6001_19090" x1="894" y1="71.7614" x2="894" y2="239.911" gradientUnits="userSpaceOnUse">
<stop stop-color="white" stop-opacity="0.05"/>
<stop offset="0.75" stop-color="white" stop-opacity="0.8"/>
</linearGradient>
<linearGradient id="paint33_linear_6001_19090" x1="992" y1="171.772" x2="992" y2="239.772" gradientUnits="userSpaceOnUse">
<stop stop-color="#6D73F9"/>
<stop offset="1" stop-color="#9BB8F1"/>
</linearGradient>
<linearGradient id="paint34_linear_6001_19090" x1="992" y1="171.772" x2="992" y2="239.772" gradientUnits="userSpaceOnUse">
<stop stop-color="white" stop-opacity="0"/>
<stop offset="0.739583" stop-color="white"/>
</linearGradient>
<linearGradient id="paint35_linear_6001_19090" x1="974" y1="39.1722" x2="974" y2="239.772" gradientUnits="userSpaceOnUse">
<stop stop-color="white" stop-opacity="0.05"/>
<stop offset="0.75" stop-color="white" stop-opacity="0.8"/>
</linearGradient>
</defs>
</svg>
