<svg width="384" height="312" viewBox="0 0 384 312" fill="none" xmlns="http://www.w3.org/2000/svg">
<path d="M342.364 114H341.146V111.998H335.154V111.186L341.286 104.2H342.364V110.864H344.184V111.998H342.364V114ZM341.146 106.16L336.834 110.864H341.146V106.16ZM351.63 114H350.412V111.998H344.42V111.186L350.552 104.2H351.63V110.864H353.45V111.998H351.63V114ZM350.412 106.16L346.1 110.864H350.412V106.16ZM356.57 114.21L355.646 113.678L362.884 103.892L363.766 104.536L356.57 114.21ZM354.134 106.552C354.134 105.852 354.372 105.278 354.862 104.83C355.352 104.382 355.954 104.158 356.696 104.158C357.424 104.158 358.026 104.382 358.516 104.83C359.006 105.278 359.244 105.852 359.244 106.552C359.244 107.238 359.006 107.812 358.516 108.26C358.026 108.708 357.424 108.932 356.696 108.932C355.954 108.932 355.352 108.708 354.862 108.26C354.372 107.812 354.134 107.238 354.134 106.552ZM355.31 106.552C355.31 107.35 355.954 107.938 356.696 107.938C357.466 107.938 358.068 107.378 358.068 106.552C358.068 105.726 357.438 105.166 356.696 105.166C355.926 105.166 355.31 105.726 355.31 106.552ZM360.868 113.384C360.378 112.936 360.14 112.362 360.14 111.662C360.14 110.962 360.378 110.388 360.868 109.94C361.358 109.506 361.961 109.282 362.702 109.282C363.43 109.282 364.033 109.506 364.522 109.94C365.013 110.388 365.25 110.962 365.25 111.662C365.25 112.348 365.013 112.922 364.522 113.37C364.033 113.832 363.43 114.056 362.702 114.056C361.961 114.056 361.358 113.832 360.868 113.384ZM361.317 111.662C361.317 112.46 361.961 113.048 362.702 113.048C363.472 113.048 364.074 112.488 364.074 111.662C364.074 110.836 363.444 110.276 362.702 110.276C361.932 110.276 361.317 110.836 361.317 111.662Z" fill="#1A3341"/>
<path d="M342.044 130.7H339.728V129.704H343.088V132.836C342.356 133.616 341.084 134.108 339.848 134.108C338.564 134.108 337.508 133.712 336.68 132.92C335.852 132.14 335.432 131.096 335.432 129.8C335.432 128.588 335.84 127.568 336.668 126.74C337.484 125.912 338.504 125.492 339.716 125.492C341.144 125.492 342.2 125.912 342.884 126.764L342.2 127.472C341.636 126.848 340.832 126.536 339.788 126.536C338.828 126.536 338.048 126.836 337.46 127.436C336.872 128.036 336.572 128.828 336.572 129.8C336.572 130.796 336.884 131.588 337.496 132.176C338.108 132.764 338.9 133.064 339.872 133.064C340.736 133.064 341.456 132.824 342.044 132.344V130.7ZM348.956 132.212L349.604 132.812C349.028 133.676 348.2 134.108 347.108 134.108C346.112 134.108 345.308 133.808 344.696 133.22C344.084 132.632 343.784 131.852 343.784 130.868C343.784 129.92 344.06 129.14 344.624 128.528C345.176 127.916 345.956 127.616 346.964 127.616C347.792 127.616 348.488 127.88 349.028 128.396C349.568 128.912 349.844 129.596 349.844 130.448C349.844 130.724 349.82 130.976 349.784 131.204H344.864C344.924 132.44 345.836 133.16 347.144 133.16C347.876 133.16 348.572 132.776 348.956 132.212ZM346.892 128.54C345.752 128.54 345.008 129.236 344.852 130.292H348.776C348.716 129.188 348.008 128.54 346.892 128.54ZM351.852 134H350.844V127.76H351.852V128.24C352.056 127.82 352.596 127.628 353.136 127.628C353.688 127.628 354.108 127.82 354.408 128.192L353.772 128.888C353.616 128.684 353.376 128.576 353.028 128.576C352.488 128.576 351.996 129.02 351.852 129.656V134ZM364.014 129.86V134H363.006V130.172C363.006 129.104 362.574 128.576 361.71 128.576C360.93 128.576 360.354 128.96 359.994 129.716V134H358.986V129.848C358.986 129.092 358.494 128.576 357.69 128.576C356.886 128.576 356.25 129.176 355.974 129.836V134H354.966V127.76H355.974V128.6C356.346 128.024 357.066 127.628 357.882 127.628C358.77 127.628 359.382 127.952 359.718 128.6C360.21 127.952 360.894 127.628 361.77 127.628C363.162 127.628 364.014 128.324 364.014 129.86ZM365.755 129.26L365.239 128.504C365.815 127.964 366.811 127.616 367.735 127.616C369.403 127.616 370.291 128.528 370.291 130.148V134H369.283V133.076C368.887 133.652 368.107 134.084 367.099 134.084C365.743 134.084 364.831 133.328 364.831 132.176C364.831 130.868 365.947 130.244 367.819 130.244C368.407 130.244 368.887 130.304 369.283 130.424C369.283 129.212 368.851 128.564 367.615 128.564C366.991 128.564 366.367 128.792 365.755 129.26ZM367.339 133.172C367.807 133.172 368.227 133.04 368.575 132.788C368.923 132.536 369.151 132.248 369.283 131.948V131.312C368.935 131.192 368.491 131.132 367.951 131.132C366.583 131.132 365.899 131.468 365.899 132.14C365.899 132.776 366.475 133.172 367.339 133.172ZM372.574 134H371.566V127.76H372.574V128.576C372.97 127.964 373.786 127.628 374.71 127.628C376.402 127.628 377.242 128.564 377.242 130.448V134H376.234V130.568C376.234 129.188 375.646 128.576 374.41 128.576C373.642 128.576 372.91 129.08 372.574 129.836V134ZM378.422 136.376L378.818 135.5C378.914 135.536 378.998 135.56 379.082 135.56C379.55 135.56 379.874 135.236 380.294 134.24L380.486 133.772L377.462 127.76H378.65L380.99 132.5L382.754 127.76H383.858L381.482 133.904C381.074 134.912 380.69 135.596 380.342 135.968C379.982 136.34 379.574 136.52 379.118 136.52C378.854 136.52 378.626 136.472 378.422 136.376Z" fill="#76848D"/>
<path d="M189.49 277.804L189.042 276.754L192.402 275.144H193.2V285H191.996V276.642L189.49 277.804ZM194.873 277.804L194.425 276.754L197.785 275.144H198.583V285H197.379V276.642L194.873 277.804ZM202.805 285.21L201.881 284.678L209.119 274.892L210.001 275.536L202.805 285.21ZM200.369 277.552C200.369 276.852 200.607 276.278 201.097 275.83C201.587 275.382 202.189 275.158 202.931 275.158C203.659 275.158 204.261 275.382 204.751 275.83C205.241 276.278 205.479 276.852 205.479 277.552C205.479 278.238 205.241 278.812 204.751 279.26C204.261 279.708 203.659 279.932 202.931 279.932C202.189 279.932 201.587 279.708 201.097 279.26C200.607 278.812 200.369 278.238 200.369 277.552ZM201.545 277.552C201.545 278.35 202.189 278.938 202.931 278.938C203.701 278.938 204.303 278.378 204.303 277.552C204.303 276.726 203.673 276.166 202.931 276.166C202.161 276.166 201.545 276.726 201.545 277.552ZM207.103 284.384C206.613 283.936 206.375 283.362 206.375 282.662C206.375 281.962 206.613 281.388 207.103 280.94C207.593 280.506 208.195 280.282 208.937 280.282C209.665 280.282 210.267 280.506 210.757 280.94C211.247 281.388 211.485 281.962 211.485 282.662C211.485 283.348 211.247 283.922 210.757 284.37C210.267 284.832 209.665 285.056 208.937 285.056C208.195 285.056 207.593 284.832 207.103 284.384ZM207.551 282.662C207.551 283.46 208.195 284.048 208.937 284.048C209.707 284.048 210.309 283.488 210.309 282.662C210.309 281.836 209.679 281.276 208.937 281.276C208.167 281.276 207.551 281.836 207.551 282.662Z" fill="#1A3341"/>
<path d="M190.992 305H189.888V296.6H195.924V297.62H190.992V300.5H195.588V301.52H190.992V305ZM197.733 305H196.725V298.76H197.733V299.24C197.937 298.82 198.477 298.628 199.017 298.628C199.569 298.628 199.989 298.82 200.289 299.192L199.653 299.888C199.497 299.684 199.257 299.576 198.909 299.576C198.369 299.576 197.877 300.02 197.733 300.656V305ZM201.187 300.26L200.671 299.504C201.247 298.964 202.243 298.616 203.167 298.616C204.835 298.616 205.723 299.528 205.723 301.148V305H204.715V304.076C204.319 304.652 203.539 305.084 202.531 305.084C201.175 305.084 200.263 304.328 200.263 303.176C200.263 301.868 201.379 301.244 203.251 301.244C203.839 301.244 204.319 301.304 204.715 301.424C204.715 300.212 204.283 299.564 203.047 299.564C202.423 299.564 201.799 299.792 201.187 300.26ZM202.771 304.172C203.239 304.172 203.659 304.04 204.007 303.788C204.355 303.536 204.583 303.248 204.715 302.948V302.312C204.367 302.192 203.923 302.132 203.383 302.132C202.015 302.132 201.331 302.468 201.331 303.14C201.331 303.776 201.907 304.172 202.771 304.172ZM208.005 305H206.997V298.76H208.005V299.576C208.401 298.964 209.217 298.628 210.141 298.628C211.833 298.628 212.673 299.564 212.673 301.448V305H211.665V301.568C211.665 300.188 211.077 299.576 209.841 299.576C209.073 299.576 208.341 300.08 208.005 300.836V305ZM218.779 303.2L219.499 303.716C219.031 304.592 217.975 305.108 216.931 305.108C215.935 305.108 215.131 304.808 214.519 304.22C213.907 303.632 213.595 302.852 213.595 301.868C213.595 300.932 213.895 300.152 214.507 299.54C215.119 298.928 215.899 298.616 216.871 298.616C217.987 298.616 218.983 299.12 219.403 299.888L218.623 300.416C218.203 299.852 217.627 299.564 216.895 299.564C216.247 299.564 215.719 299.78 215.299 300.212C214.879 300.644 214.663 301.196 214.663 301.868C214.663 302.552 214.879 303.104 215.323 303.524C215.755 303.944 216.319 304.16 217.027 304.16C217.771 304.16 218.359 303.836 218.779 303.2ZM224.976 303.212L225.624 303.812C225.048 304.676 224.22 305.108 223.128 305.108C222.132 305.108 221.328 304.808 220.716 304.22C220.104 303.632 219.804 302.852 219.804 301.868C219.804 300.92 220.08 300.14 220.644 299.528C221.196 298.916 221.976 298.616 222.984 298.616C223.812 298.616 224.508 298.88 225.048 299.396C225.588 299.912 225.864 300.596 225.864 301.448C225.864 301.724 225.84 301.976 225.804 302.204H220.884C220.944 303.44 221.856 304.16 223.164 304.16C223.896 304.16 224.592 303.776 224.976 303.212ZM222.912 299.54C221.772 299.54 221.028 300.236 220.872 301.292H224.796C224.736 300.188 224.028 299.54 222.912 299.54Z" fill="#76848D"/>
<path d="M99.4126 249.804L98.9646 248.754L102.325 247.144H103.123V257H101.919V248.642L99.4126 249.804ZM104.908 252.1C104.908 250.588 105.258 249.37 105.972 248.46C106.672 247.55 107.708 247.088 109.066 247.088C111.852 247.088 113.238 248.922 113.238 252.1C113.238 253.626 112.888 254.83 112.202 255.74C111.502 256.65 110.466 257.112 109.094 257.112C107.778 257.112 106.756 256.65 106.014 255.726C105.272 254.802 104.908 253.598 104.908 252.1ZM106.196 252.1C106.196 254.494 107.288 255.922 109.094 255.922C110.998 255.922 111.95 254.648 111.95 252.1C111.95 249.552 110.984 248.278 109.066 248.278C107.12 248.278 106.196 249.678 106.196 252.1ZM116.72 257.21L115.796 256.678L123.034 246.892L123.916 247.536L116.72 257.21ZM114.284 249.552C114.284 248.852 114.522 248.278 115.012 247.83C115.502 247.382 116.104 247.158 116.846 247.158C117.574 247.158 118.176 247.382 118.666 247.83C119.156 248.278 119.394 248.852 119.394 249.552C119.394 250.238 119.156 250.812 118.666 251.26C118.176 251.708 117.574 251.932 116.846 251.932C116.104 251.932 115.502 251.708 115.012 251.26C114.522 250.812 114.284 250.238 114.284 249.552ZM115.46 249.552C115.46 250.35 116.104 250.938 116.846 250.938C117.616 250.938 118.218 250.378 118.218 249.552C118.218 248.726 117.588 248.166 116.846 248.166C116.076 248.166 115.46 248.726 115.46 249.552ZM121.018 256.384C120.528 255.936 120.29 255.362 120.29 254.662C120.29 253.962 120.528 253.388 121.018 252.94C121.508 252.506 122.11 252.282 122.852 252.282C123.58 252.282 124.182 252.506 124.672 252.94C125.162 253.388 125.4 253.962 125.4 254.662C125.4 255.348 125.162 255.922 124.672 256.37C124.182 256.832 123.58 257.056 122.852 257.056C122.11 257.056 121.508 256.832 121.018 256.384ZM121.466 254.662C121.466 255.46 122.11 256.048 122.852 256.048C123.622 256.048 124.224 255.488 124.224 254.662C124.224 253.836 123.594 253.276 122.852 253.276C122.082 253.276 121.466 253.836 121.466 254.662Z" fill="#1A3341"/>
<path d="M67.0698 268.6V277H66.2178L61.0698 270.592V277H60.0138V268.6H60.8778L66.0138 275.032V268.6H67.0698ZM73.3977 275.212L74.0457 275.812C73.4697 276.676 72.6417 277.108 71.5497 277.108C70.5537 277.108 69.7497 276.808 69.1377 276.22C68.5257 275.632 68.2257 274.852 68.2257 273.868C68.2257 272.92 68.5017 272.14 69.0657 271.528C69.6177 270.916 70.3977 270.616 71.4057 270.616C72.2337 270.616 72.9297 270.88 73.4697 271.396C74.0097 271.912 74.2857 272.596 74.2857 273.448C74.2857 273.724 74.2617 273.976 74.2257 274.204H69.3057C69.3657 275.44 70.2777 276.16 71.5857 276.16C72.3177 276.16 73.0137 275.776 73.3977 275.212ZM71.3337 271.54C70.1937 271.54 69.4497 272.236 69.2937 273.292H73.2177C73.1577 272.188 72.4497 271.54 71.3337 271.54ZM75.9217 271.72H74.6257V270.76H75.9217V269.164H76.9297V270.76H79.0777V271.72H76.9297V274.468C76.9297 275.68 77.2417 276.124 78.0097 276.124C78.3817 276.124 78.7657 275.98 79.1377 275.68L79.5937 276.424C79.1977 276.868 78.6097 277.084 77.8297 277.084C76.5937 277.084 75.9217 276.268 75.9217 274.732V271.72ZM81.2128 277H80.2048V268.24H81.2128V271.576C81.6928 270.94 82.3648 270.628 83.2408 270.628C84.9928 270.628 85.8688 271.576 85.8688 273.46V277H84.8608V273.556C84.8608 272.212 84.2848 271.576 83.0488 271.576C82.2208 271.576 81.5488 272.104 81.2128 272.872V277ZM91.9635 275.212L92.6115 275.812C92.0355 276.676 91.2075 277.108 90.1155 277.108C89.1195 277.108 88.3155 276.808 87.7035 276.22C87.0915 275.632 86.7915 274.852 86.7915 273.868C86.7915 272.92 87.0675 272.14 87.6315 271.528C88.1835 270.916 88.9635 270.616 89.9715 270.616C90.7995 270.616 91.4955 270.88 92.0355 271.396C92.5755 271.912 92.8515 272.596 92.8515 273.448C92.8515 273.724 92.8275 273.976 92.7915 274.204H87.8715C87.9315 275.44 88.8435 276.16 90.1515 276.16C90.8835 276.16 91.5795 275.776 91.9635 275.212ZM89.8995 271.54C88.7595 271.54 88.0155 272.236 87.8595 273.292H91.7835C91.7235 272.188 91.0155 271.54 89.8995 271.54ZM94.8595 277H93.8515V270.76H94.8595V271.24C95.0635 270.82 95.6035 270.628 96.1435 270.628C96.6955 270.628 97.1155 270.82 97.4155 271.192L96.7795 271.888C96.6235 271.684 96.3835 271.576 96.0355 271.576C95.4955 271.576 95.0035 272.02 94.8595 272.656V277ZM99.0777 277H98.0697V268.24H99.0777V277ZM100.994 272.26L100.478 271.504C101.054 270.964 102.05 270.616 102.974 270.616C104.642 270.616 105.53 271.528 105.53 273.148V277H104.522V276.076C104.126 276.652 103.346 277.084 102.338 277.084C100.982 277.084 100.07 276.328 100.07 275.176C100.07 273.868 101.186 273.244 103.058 273.244C103.646 273.244 104.126 273.304 104.522 273.424C104.522 272.212 104.09 271.564 102.854 271.564C102.23 271.564 101.606 271.792 100.994 272.26ZM102.578 276.172C103.046 276.172 103.466 276.04 103.814 275.788C104.162 275.536 104.39 275.248 104.522 274.948V274.312C104.174 274.192 103.73 274.132 103.19 274.132C101.822 274.132 101.138 274.468 101.138 275.14C101.138 275.776 101.714 276.172 102.578 276.172ZM107.812 277H106.804V270.76H107.812V271.576C108.208 270.964 109.024 270.628 109.948 270.628C111.64 270.628 112.48 271.564 112.48 273.448V277H111.472V273.568C111.472 272.188 110.884 271.576 109.648 271.576C108.88 271.576 108.148 272.08 107.812 272.836V277ZM119.426 277H118.418V276.256C118.142 276.688 117.422 277.108 116.474 277.108C115.55 277.108 114.818 276.82 114.254 276.244C113.69 275.668 113.402 274.888 113.402 273.892C113.402 272.932 113.702 272.14 114.314 271.528C114.926 270.916 115.67 270.616 116.558 270.616C117.386 270.616 118.01 270.82 118.418 271.228V268.24H119.426V277ZM116.618 276.148C117.47 276.148 118.13 275.548 118.418 274.96V272.44C118.022 271.852 117.434 271.564 116.678 271.564C116.066 271.564 115.538 271.78 115.118 272.2C114.686 272.62 114.47 273.184 114.47 273.868C114.47 275.26 115.358 276.148 116.618 276.148ZM124.595 275.296C124.595 274.456 123.167 274.324 122.027 274C121.247 273.772 120.623 273.256 120.623 272.404C120.623 271.3 121.667 270.616 123.215 270.616C124.259 270.616 125.099 271.06 125.543 271.696L124.835 272.356C124.439 271.828 123.839 271.564 123.035 271.564C122.315 271.564 121.691 271.84 121.691 272.356C121.691 273.088 123.119 273.22 124.259 273.568C125.027 273.808 125.651 274.384 125.651 275.284C125.651 276.496 124.679 277.108 123.155 277.108C121.871 277.108 120.779 276.532 120.335 275.632L121.139 275.068C121.511 275.728 122.363 276.16 123.323 276.16C124.175 276.16 124.595 275.872 124.595 275.296Z" fill="#76848D"/>
<path d="M53.2337 170.918C53.2337 172.584 52.8417 173.872 52.0437 174.768C51.2457 175.678 50.1817 176.126 48.8517 176.126C47.2277 176.126 45.9537 175.44 45.3237 174.39L46.3317 173.69C46.8917 174.474 47.9137 174.922 49.0197 174.922C49.9297 174.922 50.6577 174.558 51.2317 173.83C51.8057 173.116 52.0437 172.22 51.9737 171.156C51.5117 172.22 50.3497 173.004 48.7957 173.004C47.7037 173.004 46.8077 172.696 46.1077 172.066C45.3937 171.45 45.0437 170.638 45.0437 169.644C45.0437 168.552 45.4217 167.684 46.1777 167.04C46.9337 166.396 47.9417 166.074 49.1877 166.074C51.7077 166.074 53.2337 167.838 53.2337 170.918ZM51.7637 169.602C51.5537 168.3 50.6577 167.278 49.0477 167.278C47.3677 167.278 46.3317 168.146 46.3317 169.602C46.3317 170.988 47.3817 171.8 49.0197 171.8C49.7617 171.8 50.3917 171.576 50.8817 171.128C51.3717 170.68 51.6657 170.176 51.7637 169.602ZM56.7196 176.21L55.7956 175.678L63.0336 165.892L63.9156 166.536L56.7196 176.21ZM54.2836 168.552C54.2836 167.852 54.5216 167.278 55.0116 166.83C55.5016 166.382 56.1036 166.158 56.8456 166.158C57.5736 166.158 58.1756 166.382 58.6656 166.83C59.1556 167.278 59.3936 167.852 59.3936 168.552C59.3936 169.238 59.1556 169.812 58.6656 170.26C58.1756 170.708 57.5736 170.932 56.8456 170.932C56.1036 170.932 55.5016 170.708 55.0116 170.26C54.5216 169.812 54.2836 169.238 54.2836 168.552ZM55.4596 168.552C55.4596 169.35 56.1036 169.938 56.8456 169.938C57.6156 169.938 58.2176 169.378 58.2176 168.552C58.2176 167.726 57.5876 167.166 56.8456 167.166C56.0756 167.166 55.4596 167.726 55.4596 168.552ZM61.0176 175.384C60.5276 174.936 60.2896 174.362 60.2896 173.662C60.2896 172.962 60.5276 172.388 61.0176 171.94C61.5076 171.506 62.1096 171.282 62.8516 171.282C63.5796 171.282 64.1816 171.506 64.6716 171.94C65.1616 172.388 65.3996 172.962 65.3996 173.662C65.3996 174.348 65.1616 174.922 64.6716 175.37C64.1816 175.832 63.5796 176.056 62.8516 176.056C62.1096 176.056 61.5076 175.832 61.0176 175.384ZM61.4656 173.662C61.4656 174.46 62.1096 175.048 62.8516 175.048C63.6216 175.048 64.2236 174.488 64.2236 173.662C64.2236 172.836 63.5936 172.276 62.8516 172.276C62.0816 172.276 61.4656 172.836 61.4656 173.662Z" fill="#1A3341"/>
<path d="M45.3417 196H44.2497V187.6H45.3417V196ZM47.4808 190.72H46.1848V189.76H47.4808V188.164H48.4888V189.76H50.6368V190.72H48.4888V193.468C48.4888 194.68 48.8008 195.124 49.5688 195.124C49.9408 195.124 50.3248 194.98 50.6968 194.68L51.1528 195.424C50.7568 195.868 50.1688 196.084 49.3888 196.084C48.1528 196.084 47.4808 195.268 47.4808 193.732V190.72ZM52.2439 191.26L51.7279 190.504C52.3039 189.964 53.2999 189.616 54.2239 189.616C55.8919 189.616 56.7799 190.528 56.7799 192.148V196H55.7719V195.076C55.3759 195.652 54.5959 196.084 53.5879 196.084C52.2319 196.084 51.3199 195.328 51.3199 194.176C51.3199 192.868 52.4359 192.244 54.3079 192.244C54.8959 192.244 55.3759 192.304 55.7719 192.424C55.7719 191.212 55.3399 190.564 54.1039 190.564C53.4799 190.564 52.8559 190.792 52.2439 191.26ZM53.8279 195.172C54.2959 195.172 54.7159 195.04 55.0639 194.788C55.4119 194.536 55.6399 194.248 55.7719 193.948V193.312C55.4239 193.192 54.9799 193.132 54.4399 193.132C53.0719 193.132 52.3879 193.468 52.3879 194.14C52.3879 194.776 52.9639 195.172 53.8279 195.172ZM59.158 196H58.15V187.24H59.158V196ZM60.7382 198.376L61.1342 197.5C61.2302 197.536 61.3142 197.56 61.3982 197.56C61.8662 197.56 62.1902 197.236 62.6102 196.24L62.8022 195.772L59.7782 189.76H60.9662L63.3062 194.5L65.0702 189.76H66.1742L63.7982 195.904C63.3902 196.912 63.0062 197.596 62.6582 197.968C62.2982 198.34 61.8902 198.52 61.4342 198.52C61.1702 198.52 60.9422 198.472 60.7382 198.376Z" fill="#76848D"/>
<path d="M48.7794 122H47.5614V119.998H41.5694V119.186L47.7014 112.2H48.7794V118.864H50.5994V119.998H48.7794V122ZM47.5614 114.16L43.2494 118.864H47.5614V114.16ZM53.7196 122.21L52.7956 121.678L60.0336 111.892L60.9156 112.536L53.7196 122.21ZM51.2836 114.552C51.2836 113.852 51.5216 113.278 52.0116 112.83C52.5016 112.382 53.1036 112.158 53.8456 112.158C54.5736 112.158 55.1756 112.382 55.6656 112.83C56.1556 113.278 56.3936 113.852 56.3936 114.552C56.3936 115.238 56.1556 115.812 55.6656 116.26C55.1756 116.708 54.5736 116.932 53.8456 116.932C53.1036 116.932 52.5016 116.708 52.0116 116.26C51.5216 115.812 51.2836 115.238 51.2836 114.552ZM52.4596 114.552C52.4596 115.35 53.1036 115.938 53.8456 115.938C54.6156 115.938 55.2176 115.378 55.2176 114.552C55.2176 113.726 54.5876 113.166 53.8456 113.166C53.0756 113.166 52.4596 113.726 52.4596 114.552ZM58.0176 121.384C57.5276 120.936 57.2896 120.362 57.2896 119.662C57.2896 118.962 57.5276 118.388 58.0176 117.94C58.5076 117.506 59.1096 117.282 59.8516 117.282C60.5796 117.282 61.1816 117.506 61.6716 117.94C62.1616 118.388 62.3996 118.962 62.3996 119.662C62.3996 120.348 62.1616 120.922 61.6716 121.37C61.1816 121.832 60.5796 122.056 59.8516 122.056C59.1096 122.056 58.5076 121.832 58.0176 121.384ZM58.4656 119.662C58.4656 120.46 59.1096 121.048 59.8516 121.048C60.6216 121.048 61.2236 120.488 61.2236 119.662C61.2236 118.836 60.5936 118.276 59.8516 118.276C59.0816 118.276 58.4656 118.836 58.4656 119.662Z" fill="#1A3341"/>
<path d="M28.9645 142H27.8725V133.6H28.9645V142ZM31.4756 142H30.4676V135.76H31.4756V136.24C31.6796 135.82 32.2196 135.628 32.7596 135.628C33.3116 135.628 33.7316 135.82 34.0316 136.192L33.3956 136.888C33.2396 136.684 32.9996 136.576 32.6516 136.576C32.1116 136.576 31.6196 137.02 31.4756 137.656V142ZM39.0505 140.212L39.6985 140.812C39.1225 141.676 38.2945 142.108 37.2025 142.108C36.2065 142.108 35.4025 141.808 34.7905 141.22C34.1785 140.632 33.8785 139.852 33.8785 138.868C33.8785 137.92 34.1545 137.14 34.7185 136.528C35.2705 135.916 36.0505 135.616 37.0585 135.616C37.8865 135.616 38.5825 135.88 39.1225 136.396C39.6625 136.912 39.9385 137.596 39.9385 138.448C39.9385 138.724 39.9145 138.976 39.8785 139.204H34.9585C35.0185 140.44 35.9305 141.16 37.2385 141.16C37.9705 141.16 38.6665 140.776 39.0505 140.212ZM36.9865 136.54C35.8465 136.54 35.1025 137.236 34.9465 138.292H38.8705C38.8105 137.188 38.1025 136.54 36.9865 136.54ZM42.0426 142H41.0346V133.24H42.0426V142ZM43.9587 137.26L43.4427 136.504C44.0187 135.964 45.0147 135.616 45.9387 135.616C47.6067 135.616 48.4947 136.528 48.4947 138.148V142H47.4867V141.076C47.0907 141.652 46.3107 142.084 45.3027 142.084C43.9467 142.084 43.0347 141.328 43.0347 140.176C43.0347 138.868 44.1507 138.244 46.0227 138.244C46.6107 138.244 47.0907 138.304 47.4867 138.424C47.4867 137.212 47.0547 136.564 45.8187 136.564C45.1947 136.564 44.5707 136.792 43.9587 137.26ZM45.5427 141.172C46.0107 141.172 46.4307 141.04 46.7787 140.788C47.1267 140.536 47.3547 140.248 47.4867 139.948V139.312C47.1387 139.192 46.6947 139.132 46.1547 139.132C44.7867 139.132 44.1027 139.468 44.1027 140.14C44.1027 140.776 44.6787 141.172 45.5427 141.172ZM50.7769 142H49.7689V135.76H50.7769V136.576C51.1729 135.964 51.9889 135.628 52.9129 135.628C54.6049 135.628 55.4449 136.564 55.4449 138.448V142H54.4369V138.568C54.4369 137.188 53.8489 136.576 52.6129 136.576C51.8449 136.576 51.1129 137.08 50.7769 137.836V142ZM62.3913 142H61.3833V141.256C61.1073 141.688 60.3873 142.108 59.4393 142.108C58.5153 142.108 57.7833 141.82 57.2193 141.244C56.6553 140.668 56.3673 139.888 56.3673 138.892C56.3673 137.932 56.6673 137.14 57.2793 136.528C57.8913 135.916 58.6353 135.616 59.5233 135.616C60.3513 135.616 60.9753 135.82 61.3833 136.228V133.24H62.3913V142ZM59.5833 141.148C60.4353 141.148 61.0953 140.548 61.3833 139.96V137.44C60.9873 136.852 60.3993 136.564 59.6433 136.564C59.0313 136.564 58.5033 136.78 58.0833 137.2C57.6513 137.62 57.4353 138.184 57.4353 138.868C57.4353 140.26 58.3233 141.148 59.5833 141.148Z" fill="#76848D"/>
<path d="M7.76962 93H6.55162V90.998H0.559624V90.186L6.69162 83.2H7.76962V89.864H9.58962V90.998H7.76962V93ZM6.55162 85.16L2.23962 89.864H6.55162V85.16ZM12.7099 93.21L11.7859 92.678L19.0239 82.892L19.9059 83.536L12.7099 93.21ZM10.2739 85.552C10.2739 84.852 10.5119 84.278 11.0019 83.83C11.4919 83.382 12.0939 83.158 12.8359 83.158C13.5639 83.158 14.1659 83.382 14.6559 83.83C15.1459 84.278 15.3839 84.852 15.3839 85.552C15.3839 86.238 15.1459 86.812 14.6559 87.26C14.1659 87.708 13.5639 87.932 12.8359 87.932C12.0939 87.932 11.4919 87.708 11.0019 87.26C10.5119 86.812 10.2739 86.238 10.2739 85.552ZM11.4499 85.552C11.4499 86.35 12.0939 86.938 12.8359 86.938C13.6059 86.938 14.2079 86.378 14.2079 85.552C14.2079 84.726 13.5779 84.166 12.8359 84.166C12.0659 84.166 11.4499 84.726 11.4499 85.552ZM17.0079 92.384C16.5179 91.936 16.2799 91.362 16.2799 90.662C16.2799 89.962 16.5179 89.388 17.0079 88.94C17.4979 88.506 18.0999 88.282 18.8419 88.282C19.5699 88.282 20.1719 88.506 20.6619 88.94C21.1519 89.388 21.3899 89.962 21.3899 90.662C21.3899 91.348 21.1519 91.922 20.6619 92.37C20.1719 92.832 19.5699 93.056 18.8419 93.056C18.0999 93.056 17.4979 92.832 17.0079 92.384ZM17.4559 90.662C17.4559 91.46 18.0999 92.048 18.8419 92.048C19.6119 92.048 20.2139 91.488 20.2139 90.662C20.2139 89.836 19.5839 89.276 18.8419 89.276C18.0719 89.276 17.4559 89.836 17.4559 90.662Z" fill="#1A3341"/>
<path d="M30.1315 93H26.7955V84.6H30.1915C32.3395 84.6 33.1555 85.38 33.1555 86.688C33.1555 87.624 32.7595 88.26 31.9675 88.608C32.8915 88.8 33.4555 89.508 33.4555 90.6C33.4555 92.244 32.2315 93 30.1315 93ZM30.2395 89.208H27.8875V91.98H30.1195C31.6435 91.98 32.3275 91.536 32.3275 90.54C32.3275 89.652 31.6315 89.208 30.2395 89.208ZM30.0955 85.62H27.8875V88.212H30.2755C31.3435 88.212 32.0395 87.732 32.0395 86.916C32.0395 86.016 31.5235 85.62 30.0955 85.62ZM39.4177 91.212L40.0657 91.812C39.4897 92.676 38.6617 93.108 37.5697 93.108C36.5737 93.108 35.7697 92.808 35.1577 92.22C34.5457 91.632 34.2457 90.852 34.2457 89.868C34.2457 88.92 34.5217 88.14 35.0857 87.528C35.6377 86.916 36.4177 86.616 37.4257 86.616C38.2537 86.616 38.9497 86.88 39.4897 87.396C40.0297 87.912 40.3057 88.596 40.3057 89.448C40.3057 89.724 40.2817 89.976 40.2457 90.204H35.3257C35.3857 91.44 36.2977 92.16 37.6057 92.16C38.3377 92.16 39.0337 91.776 39.4177 91.212ZM37.3537 87.54C36.2137 87.54 35.4697 88.236 35.3137 89.292H39.2377C39.1777 88.188 38.4697 87.54 37.3537 87.54ZM42.4097 93H41.4017V84.24H42.4097V93ZM48.4899 86.76H49.5099V92.52C49.5099 94.536 48.4059 95.508 46.7139 95.508C45.3579 95.508 44.2779 94.92 43.9299 93.996L44.8299 93.6C45.1059 94.14 45.7299 94.548 46.6539 94.548C47.8539 94.548 48.4899 93.864 48.4899 92.7V92.328C48.0219 92.868 47.5779 93.108 46.6059 93.108C45.6579 93.108 44.9139 92.82 44.3499 92.232C43.7859 91.656 43.4979 90.864 43.4979 89.868C43.4979 88.884 43.7979 88.092 44.3979 87.504C44.9859 86.916 45.7299 86.628 46.6179 86.628C47.4939 86.628 48.1659 86.928 48.4899 87.312V86.76ZM46.7739 92.16C47.6259 92.16 48.2619 91.632 48.4899 90.972V88.464C48.1899 87.936 47.5659 87.576 46.7619 87.576C46.1379 87.576 45.6219 87.78 45.2019 88.188C44.7819 88.596 44.5659 89.16 44.5659 89.892C44.5659 91.296 45.4179 92.16 46.7739 92.16ZM51.9792 93H50.9712V86.76H51.9792V93ZM50.8392 84.732C50.8392 84.396 51.1152 84.144 51.4872 84.144C51.8232 84.144 52.1112 84.396 52.1112 84.732C52.1112 85.08 51.8232 85.356 51.4872 85.356C51.1152 85.356 50.8392 85.08 50.8392 84.732ZM57.9617 86.724H58.9697V93H57.9617V92.112C57.4817 92.772 56.8097 93.108 55.9337 93.108C54.2057 93.108 53.3657 92.244 53.3657 90.336V86.724H54.3737V90.192C54.3737 91.5 54.9257 92.16 56.0177 92.16C56.8817 92.16 57.5777 91.668 57.9617 90.804V86.724ZM69.3503 88.86V93H68.3423V89.172C68.3423 88.104 67.9103 87.576 67.0463 87.576C66.2663 87.576 65.6903 87.96 65.3303 88.716V93H64.3223V88.848C64.3223 88.092 63.8303 87.576 63.0263 87.576C62.2223 87.576 61.5863 88.176 61.3103 88.836V93H60.3023V86.76H61.3103V87.6C61.6823 87.024 62.4023 86.628 63.2183 86.628C64.1063 86.628 64.7183 86.952 65.0543 87.6C65.5463 86.952 66.2303 86.628 67.1063 86.628C68.4983 86.628 69.3503 87.324 69.3503 88.86Z" fill="#76848D"/>
<path d="M32.7403 59.056L31.6903 58.58C32.2083 57.068 33.5663 56.074 35.5963 56.074C36.5623 56.074 37.3603 56.298 37.9763 56.746C38.5923 57.194 38.9003 57.796 38.9003 58.538C38.9003 59.672 38.2983 60.512 37.1783 60.834C38.2563 60.904 39.1243 61.716 39.1243 63.172C39.1243 64.096 38.7883 64.824 38.1163 65.342C37.4443 65.86 36.5903 66.126 35.5403 66.126C33.3983 66.126 31.9143 65.104 31.4243 63.494L32.5583 63.004C33.1603 64.278 34.1823 64.922 35.6243 64.922C36.9823 64.922 37.8363 64.292 37.8363 63.186C37.8363 62.108 36.9963 61.562 35.3163 61.562H34.2243V60.4H35.0923C36.6183 60.4 37.6123 59.714 37.6123 58.776C37.6123 57.81 36.8143 57.264 35.5403 57.264C34.0423 57.264 33.1323 58.034 32.7403 59.056ZM42.711 66.21L41.787 65.678L49.025 55.892L49.907 56.536L42.711 66.21ZM40.275 58.552C40.275 57.852 40.513 57.278 41.003 56.83C41.493 56.382 42.095 56.158 42.837 56.158C43.565 56.158 44.167 56.382 44.657 56.83C45.147 57.278 45.385 57.852 45.385 58.552C45.385 59.238 45.147 59.812 44.657 60.26C44.167 60.708 43.565 60.932 42.837 60.932C42.095 60.932 41.493 60.708 41.003 60.26C40.513 59.812 40.275 59.238 40.275 58.552ZM41.451 58.552C41.451 59.35 42.095 59.938 42.837 59.938C43.607 59.938 44.209 59.378 44.209 58.552C44.209 57.726 43.579 57.166 42.837 57.166C42.067 57.166 41.451 57.726 41.451 58.552ZM47.009 65.384C46.519 64.936 46.281 64.362 46.281 63.662C46.281 62.962 46.519 62.388 47.009 61.94C47.499 61.506 48.101 61.282 48.843 61.282C49.571 61.282 50.173 61.506 50.663 61.94C51.153 62.388 51.391 62.962 51.391 63.662C51.391 64.348 51.153 64.922 50.663 65.37C50.173 65.832 49.571 66.056 48.843 66.056C48.101 66.056 47.499 65.832 47.009 65.384ZM47.457 63.662C47.457 64.46 48.101 65.048 48.843 65.048C49.613 65.048 50.215 64.488 50.215 63.662C50.215 62.836 49.585 62.276 48.843 62.276C48.073 62.276 47.457 62.836 47.457 63.662Z" fill="#1A3341"/>
<path d="M61.6686 63.768C61.6686 61.692 56.4846 62.892 56.4846 59.796C56.4846 59.148 56.7726 58.596 57.3486 58.152C57.9126 57.708 58.6686 57.492 59.5926 57.492C60.9966 57.492 62.0166 57.9 62.6526 58.716L61.9446 59.424C61.3446 58.824 60.5526 58.524 59.5686 58.524C59.0766 58.524 58.6326 58.62 58.2246 58.824C57.8166 59.028 57.6126 59.352 57.6126 59.772C57.6126 60.816 58.9086 61.02 60.2046 61.368C61.5006 61.716 62.7966 62.184 62.7966 63.684C62.7966 64.392 62.5086 64.98 61.9326 65.424C61.3566 65.88 60.6246 66.108 59.7486 66.108C59.0286 66.108 58.3566 65.952 57.7206 65.628C57.0846 65.316 56.6046 64.932 56.3046 64.488L57.0126 63.72C57.6006 64.488 58.6446 65.076 59.8566 65.076C60.8646 65.076 61.6686 64.572 61.6686 63.768ZM64.888 68.4H63.88V59.76H64.888V60.54C65.308 59.928 65.98 59.616 66.904 59.616C67.816 59.616 68.548 59.904 69.088 60.492C69.628 61.08 69.892 61.836 69.892 62.772C69.892 63.732 69.604 64.524 69.028 65.16C68.44 65.796 67.696 66.108 66.784 66.108C65.944 66.108 65.308 65.892 64.888 65.472V68.4ZM66.796 60.564C65.884 60.564 65.176 61.152 64.888 61.86V64.188C65.248 64.836 65.848 65.16 66.7 65.16C67.312 65.16 67.828 64.944 68.224 64.512C68.62 64.08 68.824 63.528 68.824 62.844C68.824 61.452 68.044 60.564 66.796 60.564ZM71.365 61.26L70.849 60.504C71.425 59.964 72.421 59.616 73.345 59.616C75.013 59.616 75.901 60.528 75.901 62.148V66H74.893V65.076C74.497 65.652 73.717 66.084 72.709 66.084C71.353 66.084 70.441 65.328 70.441 64.176C70.441 62.868 71.557 62.244 73.429 62.244C74.017 62.244 74.497 62.304 74.893 62.424C74.893 61.212 74.461 60.564 73.225 60.564C72.601 60.564 71.977 60.792 71.365 61.26ZM72.949 65.172C73.417 65.172 73.837 65.04 74.185 64.788C74.533 64.536 74.761 64.248 74.893 63.948V63.312C74.545 63.192 74.101 63.132 73.561 63.132C72.193 63.132 71.509 63.468 71.509 64.14C71.509 64.776 72.085 65.172 72.949 65.172ZM78.3151 66H77.3071V59.76H78.3151V66ZM77.1751 57.732C77.1751 57.396 77.4511 57.144 77.8231 57.144C78.1591 57.144 78.4471 57.396 78.4471 57.732C78.4471 58.08 78.1591 58.356 77.8231 58.356C77.4511 58.356 77.1751 58.08 77.1751 57.732ZM80.7936 66H79.7856V59.76H80.7936V60.576C81.1896 59.964 82.0056 59.628 82.9296 59.628C84.6216 59.628 85.4616 60.564 85.4616 62.448V66H84.4536V62.568C84.4536 61.188 83.8656 60.576 82.6296 60.576C81.8616 60.576 81.1296 61.08 80.7936 61.836V66Z" fill="#76848D"/>
<path d="M33.3486 33.056L32.2986 32.58C32.8166 31.068 34.1746 30.074 36.2046 30.074C37.1706 30.074 37.9686 30.298 38.5846 30.746C39.2006 31.194 39.5086 31.796 39.5086 32.538C39.5086 33.672 38.9066 34.512 37.7866 34.834C38.8646 34.904 39.7326 35.716 39.7326 37.172C39.7326 38.096 39.3966 38.824 38.7246 39.342C38.0526 39.86 37.1986 40.126 36.1486 40.126C34.0066 40.126 32.5226 39.104 32.0326 37.494L33.1666 37.004C33.7686 38.278 34.7906 38.922 36.2326 38.922C37.5906 38.922 38.4446 38.292 38.4446 37.186C38.4446 36.108 37.6046 35.562 35.9246 35.562H34.8326V34.4H35.7006C37.2266 34.4 38.2206 33.714 38.2206 32.776C38.2206 31.81 37.4226 31.264 36.1486 31.264C34.6506 31.264 33.7406 32.034 33.3486 33.056ZM43.3192 40.21L42.3952 39.678L49.6332 29.892L50.5152 30.536L43.3192 40.21ZM40.8832 32.552C40.8832 31.852 41.1212 31.278 41.6112 30.83C42.1012 30.382 42.7032 30.158 43.4452 30.158C44.1732 30.158 44.7752 30.382 45.2652 30.83C45.7552 31.278 45.9932 31.852 45.9932 32.552C45.9932 33.238 45.7552 33.812 45.2652 34.26C44.7752 34.708 44.1732 34.932 43.4452 34.932C42.7032 34.932 42.1012 34.708 41.6112 34.26C41.1212 33.812 40.8832 33.238 40.8832 32.552ZM42.0592 32.552C42.0592 33.35 42.7032 33.938 43.4452 33.938C44.2152 33.938 44.8172 33.378 44.8172 32.552C44.8172 31.726 44.1872 31.166 43.4452 31.166C42.6752 31.166 42.0592 31.726 42.0592 32.552ZM47.6172 39.384C47.1272 38.936 46.8892 38.362 46.8892 37.662C46.8892 36.962 47.1272 36.388 47.6172 35.94C48.1072 35.506 48.7092 35.282 49.4512 35.282C50.1792 35.282 50.7812 35.506 51.2712 35.94C51.7612 36.388 51.9992 36.962 51.9992 37.662C51.9992 38.348 51.7612 38.922 51.2712 39.37C50.7812 39.832 50.1792 40.056 49.4512 40.056C48.7092 40.056 48.1072 39.832 47.6172 39.384ZM48.0652 37.662C48.0652 38.46 48.7092 39.048 49.4512 39.048C50.2212 39.048 50.8232 38.488 50.8232 37.662C50.8232 36.836 50.1932 36.276 49.4512 36.276C48.6812 36.276 48.0652 36.836 48.0652 37.662Z" fill="#1A3341"/>
<path d="M62.2769 37.768C62.2769 35.692 57.0929 36.892 57.0929 33.796C57.0929 33.148 57.3809 32.596 57.9569 32.152C58.5209 31.708 59.2769 31.492 60.2009 31.492C61.6049 31.492 62.6249 31.9 63.2609 32.716L62.5529 33.424C61.9529 32.824 61.1609 32.524 60.1769 32.524C59.6849 32.524 59.2409 32.62 58.8329 32.824C58.4249 33.028 58.2209 33.352 58.2209 33.772C58.2209 34.816 59.5169 35.02 60.8129 35.368C62.1089 35.716 63.4049 36.184 63.4049 37.684C63.4049 38.392 63.1169 38.98 62.5409 39.424C61.9649 39.88 61.2329 40.108 60.3569 40.108C59.6369 40.108 58.9649 39.952 58.3289 39.628C57.6929 39.316 57.2129 38.932 56.9129 38.488L57.6209 37.72C58.2089 38.488 59.2529 39.076 60.4649 39.076C61.4729 39.076 62.2769 38.572 62.2769 37.768ZM71.9282 33.76H72.9602L70.9322 40H70.1162L68.3642 35.32L66.5882 40H65.7962L63.6842 33.76H64.7642L66.2642 38.32L67.9682 33.76H68.7602L70.5002 38.356L71.9282 33.76ZM78.286 38.212L78.934 38.812C78.358 39.676 77.53 40.108 76.438 40.108C75.442 40.108 74.638 39.808 74.026 39.22C73.414 38.632 73.114 37.852 73.114 36.868C73.114 35.92 73.39 35.14 73.954 34.528C74.506 33.916 75.286 33.616 76.294 33.616C77.122 33.616 77.818 33.88 78.358 34.396C78.898 34.912 79.174 35.596 79.174 36.448C79.174 36.724 79.15 36.976 79.114 37.204H74.194C74.254 38.44 75.166 39.16 76.474 39.16C77.206 39.16 77.902 38.776 78.286 38.212ZM76.222 34.54C75.082 34.54 74.338 35.236 74.182 36.292H78.106C78.046 35.188 77.338 34.54 76.222 34.54ZM85.7328 40H84.7248V39.256C84.4488 39.688 83.7288 40.108 82.7808 40.108C81.8568 40.108 81.1248 39.82 80.5608 39.244C79.9968 38.668 79.7088 37.888 79.7088 36.892C79.7088 35.932 80.0088 35.14 80.6208 34.528C81.2328 33.916 81.9768 33.616 82.8648 33.616C83.6928 33.616 84.3168 33.82 84.7248 34.228V31.24H85.7328V40ZM82.9248 39.148C83.7768 39.148 84.4368 38.548 84.7248 37.96V35.44C84.3288 34.852 83.7408 34.564 82.9848 34.564C82.3728 34.564 81.8448 34.78 81.4248 35.2C80.9928 35.62 80.7768 36.184 80.7768 36.868C80.7768 38.26 81.6648 39.148 82.9248 39.148ZM91.8976 38.212L92.5456 38.812C91.9696 39.676 91.1416 40.108 90.0496 40.108C89.0536 40.108 88.2496 39.808 87.6376 39.22C87.0256 38.632 86.7256 37.852 86.7256 36.868C86.7256 35.92 87.0016 35.14 87.5656 34.528C88.1176 33.916 88.8976 33.616 89.9056 33.616C90.7336 33.616 91.4296 33.88 91.9696 34.396C92.5096 34.912 92.7856 35.596 92.7856 36.448C92.7856 36.724 92.7616 36.976 92.7256 37.204H87.8056C87.8656 38.44 88.7776 39.16 90.0856 39.16C90.8176 39.16 91.5136 38.776 91.8976 38.212ZM89.8336 34.54C88.6936 34.54 87.9496 35.236 87.7936 36.292H91.7176C91.6576 35.188 90.9496 34.54 89.8336 34.54ZM94.7936 40H93.7856V33.76H94.7936V34.576C95.1896 33.964 96.0056 33.628 96.9296 33.628C98.6216 33.628 99.4616 34.564 99.4616 36.448V40H98.4536V36.568C98.4536 35.188 97.8656 34.576 96.6296 34.576C95.8616 34.576 95.1296 35.08 94.7936 35.836V40Z" fill="#76848D"/>
<path d="M33.5043 6.804L33.0563 5.754L36.4163 4.144H37.2143V14H36.0103V5.642L33.5043 6.804ZM40.1197 7.434L39.0977 7.07C39.4477 5.334 40.7637 4.088 42.8497 4.088C44.8657 4.088 46.0977 5.25 46.0977 7.028C46.0977 7.966 45.6917 8.904 45.1877 9.576C44.9357 9.926 44.6137 10.262 44.2357 10.612C43.4657 11.298 42.9197 11.662 42.1217 12.166L41.0437 12.838H46.4617V14H38.8317V13.048L40.9597 11.634C41.3377 11.396 41.6037 11.214 41.7577 11.102C41.9117 11.004 42.1637 10.822 42.4997 10.584C42.8357 10.346 43.0877 10.136 43.2557 9.982C43.4097 9.828 43.6197 9.632 43.8577 9.38C44.5017 8.68 44.7397 8.036 44.8097 7.154C44.8097 5.88 43.9837 5.306 42.7657 5.306C42.0097 5.306 41.4077 5.516 40.9737 5.936C40.5397 6.356 40.2457 6.86 40.1197 7.434ZM49.868 14.21L48.944 13.678L56.182 3.892L57.064 4.536L49.868 14.21ZM47.432 6.552C47.432 5.852 47.67 5.278 48.16 4.83C48.65 4.382 49.252 4.158 49.994 4.158C50.722 4.158 51.324 4.382 51.814 4.83C52.304 5.278 52.542 5.852 52.542 6.552C52.542 7.238 52.304 7.812 51.814 8.26C51.324 8.708 50.722 8.932 49.994 8.932C49.252 8.932 48.65 8.708 48.16 8.26C47.67 7.812 47.432 7.238 47.432 6.552ZM48.608 6.552C48.608 7.35 49.252 7.938 49.994 7.938C50.764 7.938 51.366 7.378 51.366 6.552C51.366 5.726 50.736 5.166 49.994 5.166C49.224 5.166 48.608 5.726 48.608 6.552ZM54.166 13.384C53.676 12.936 53.438 12.362 53.438 11.662C53.438 10.962 53.676 10.388 54.166 9.94C54.656 9.506 55.258 9.282 56 9.282C56.728 9.282 57.33 9.506 57.82 9.94C58.31 10.388 58.548 10.962 58.548 11.662C58.548 12.348 58.31 12.922 57.82 13.37C57.33 13.832 56.728 14.056 56 14.056C55.258 14.056 54.656 13.832 54.166 13.384ZM54.614 11.662C54.614 12.46 55.258 13.048 56 13.048C56.77 13.048 57.372 12.488 57.372 11.662C57.372 10.836 56.742 10.276 56 10.276C55.23 10.276 54.614 10.836 54.614 11.662Z" fill="#1A3341"/>
<path d="M63.4976 9.8C63.4976 8.588 63.9056 7.556 64.7336 6.728C65.5616 5.9 66.5696 5.492 67.7696 5.492C68.9576 5.492 69.9656 5.9 70.7936 6.716C71.6216 7.532 72.0296 8.564 72.0296 9.8C72.0296 11.024 71.6216 12.044 70.7936 12.872C69.9656 13.7 68.9576 14.108 67.7696 14.108C66.5696 14.108 65.5616 13.7 64.7336 12.884C63.9056 12.068 63.4976 11.036 63.4976 9.8ZM64.6376 9.8C64.6376 10.736 64.9496 11.516 65.5616 12.128C66.1736 12.752 66.9056 13.064 67.7696 13.064C68.6576 13.064 69.4016 12.752 70.0016 12.14C70.5896 11.528 70.8896 10.748 70.8896 9.8C70.8896 8.852 70.5896 8.072 69.9776 7.46C69.3656 6.848 68.6216 6.536 67.7696 6.536C66.8936 6.536 66.1616 6.848 65.5496 7.46C64.9376 8.072 64.6376 8.852 64.6376 9.8ZM73.7121 8.72H72.4161V7.76H73.7121V6.164H74.7201V7.76H76.8681V8.72H74.7201V11.468C74.7201 12.68 75.0321 13.124 75.8001 13.124C76.1721 13.124 76.5561 12.98 76.9281 12.68L77.3841 13.424C76.9881 13.868 76.4001 14.084 75.6201 14.084C74.3841 14.084 73.7121 13.268 73.7121 11.732V8.72ZM79.0031 14H77.9951V5.24H79.0031V8.576C79.4831 7.94 80.1551 7.628 81.0311 7.628C82.7831 7.628 83.6591 8.576 83.6591 10.46V14H82.6511V10.556C82.6511 9.212 82.0751 8.576 80.8391 8.576C80.0111 8.576 79.3391 9.104 79.0031 9.872V14ZM89.7538 12.212L90.4018 12.812C89.8258 13.676 88.9978 14.108 87.9058 14.108C86.9098 14.108 86.1058 13.808 85.4938 13.22C84.8818 12.632 84.5818 11.852 84.5818 10.868C84.5818 9.92 84.8578 9.14 85.4218 8.528C85.9738 7.916 86.7538 7.616 87.7618 7.616C88.5898 7.616 89.2858 7.88 89.8258 8.396C90.3658 8.912 90.6418 9.596 90.6418 10.448C90.6418 10.724 90.6178 10.976 90.5818 11.204H85.6618C85.7218 12.44 86.6338 13.16 87.9418 13.16C88.6738 13.16 89.3698 12.776 89.7538 12.212ZM87.6898 8.54C86.5498 8.54 85.8058 9.236 85.6498 10.292H89.5738C89.5138 9.188 88.8058 8.54 87.6898 8.54ZM92.6498 14H91.6418V7.76H92.6498V8.24C92.8538 7.82 93.3938 7.628 93.9338 7.628C94.4858 7.628 94.9058 7.82 95.2058 8.192L94.5698 8.888C94.4138 8.684 94.1738 8.576 93.8258 8.576C93.2858 8.576 92.7938 9.02 92.6498 9.656V14ZM104.078 12.2L104.798 12.716C104.33 13.592 103.274 14.108 102.23 14.108C101.234 14.108 100.43 13.808 99.8177 13.22C99.2057 12.632 98.8937 11.852 98.8937 10.868C98.8937 9.932 99.1937 9.152 99.8057 8.54C100.418 7.928 101.198 7.616 102.17 7.616C103.286 7.616 104.282 8.12 104.702 8.888L103.922 9.416C103.502 8.852 102.926 8.564 102.194 8.564C101.546 8.564 101.018 8.78 100.598 9.212C100.178 9.644 99.9617 10.196 99.9617 10.868C99.9617 11.552 100.178 12.104 100.622 12.524C101.054 12.944 101.618 13.16 102.326 13.16C103.07 13.16 103.658 12.836 104.078 12.2ZM105.102 10.868C105.102 9.92 105.414 9.14 106.026 8.528C106.638 7.916 107.43 7.616 108.402 7.616C109.386 7.616 110.19 7.916 110.802 8.528C111.414 9.14 111.726 9.92 111.726 10.868C111.726 11.816 111.414 12.584 110.802 13.196C110.178 13.808 109.374 14.108 108.402 14.108C107.43 14.108 106.638 13.808 106.026 13.196C105.414 12.584 105.102 11.816 105.102 10.868ZM106.17 10.868C106.17 11.528 106.374 12.08 106.794 12.512C107.214 12.944 107.742 13.16 108.402 13.16C109.062 13.16 109.614 12.944 110.034 12.524C110.454 12.104 110.658 11.552 110.658 10.868C110.658 10.184 110.442 9.632 110.022 9.2C109.59 8.78 109.05 8.564 108.402 8.564C107.754 8.564 107.226 8.78 106.806 9.2C106.386 9.62 106.17 10.184 106.17 10.868ZM117.236 7.724H118.244V14H117.236V13.112C116.756 13.772 116.084 14.108 115.208 14.108C113.48 14.108 112.64 13.244 112.64 11.336V7.724H113.648V11.192C113.648 12.5 114.2 13.16 115.292 13.16C116.156 13.16 116.852 12.668 117.236 11.804V7.724ZM120.585 14H119.577V7.76H120.585V8.576C120.981 7.964 121.797 7.628 122.721 7.628C124.413 7.628 125.253 8.564 125.253 10.448V14H124.245V10.568C124.245 9.188 123.657 8.576 122.421 8.576C121.653 8.576 120.921 9.08 120.585 9.836V14ZM127.159 8.72H125.863V7.76H127.159V6.164H128.167V7.76H130.315V8.72H128.167V11.468C128.167 12.68 128.479 13.124 129.247 13.124C129.619 13.124 130.003 12.98 130.375 12.68L130.831 13.424C130.435 13.868 129.847 14.084 129.067 14.084C127.831 14.084 127.159 13.268 127.159 11.732V8.72ZM132.45 14H131.442V7.76H132.45V8.24C132.654 7.82 133.194 7.628 133.734 7.628C134.286 7.628 134.706 7.82 135.006 8.192L134.37 8.888C134.214 8.684 133.974 8.576 133.626 8.576C133.086 8.576 132.594 9.02 132.45 9.656V14ZM136.705 14H135.697V7.76H136.705V14ZM135.565 5.732C135.565 5.396 135.841 5.144 136.213 5.144C136.549 5.144 136.837 5.396 136.837 5.732C136.837 6.08 136.549 6.356 136.213 6.356C135.841 6.356 135.565 6.08 135.565 5.732ZM142.999 12.212L143.647 12.812C143.071 13.676 142.243 14.108 141.151 14.108C140.155 14.108 139.351 13.808 138.739 13.22C138.127 12.632 137.827 11.852 137.827 10.868C137.827 9.92 138.103 9.14 138.667 8.528C139.219 7.916 139.999 7.616 141.007 7.616C141.835 7.616 142.531 7.88 143.071 8.396C143.611 8.912 143.887 9.596 143.887 10.448C143.887 10.724 143.863 10.976 143.827 11.204H138.907C138.967 12.44 139.879 13.16 141.187 13.16C141.919 13.16 142.615 12.776 142.999 12.212ZM140.935 8.54C139.795 8.54 139.051 9.236 138.895 10.292H142.819C142.759 9.188 142.051 8.54 140.935 8.54ZM148.715 12.296C148.715 11.456 147.287 11.324 146.147 11C145.367 10.772 144.743 10.256 144.743 9.404C144.743 8.3 145.787 7.616 147.335 7.616C148.379 7.616 149.219 8.06 149.663 8.696L148.955 9.356C148.559 8.828 147.959 8.564 147.155 8.564C146.435 8.564 145.811 8.84 145.811 9.356C145.811 10.088 147.239 10.22 148.379 10.568C149.147 10.808 149.771 11.384 149.771 12.284C149.771 13.496 148.799 14.108 147.275 14.108C145.991 14.108 144.899 13.532 144.455 12.632L145.259 12.068C145.631 12.728 146.483 13.16 147.443 13.16C148.295 13.16 148.715 12.872 148.715 12.296Z" fill="#76848D"/>
<path d="M175.613 142.152V145H156.125V142.44L165.373 137.096C167.186 136.051 168.53 135.208 169.405 134.568C170.28 133.907 170.866 133.299 171.165 132.744C171.485 132.189 171.645 131.528 171.645 130.76V130.44C171.645 129.203 171.122 128.253 170.077 127.592C169.053 126.931 167.57 126.6 165.629 126.6C163.624 126.6 162.098 126.952 161.053 127.656C160.029 128.36 159.517 129.384 159.517 130.728V131.368H156.317V130.696C156.317 128.413 157.117 126.664 158.717 125.448C160.317 124.232 162.6 123.624 165.565 123.624C168.466 123.624 170.738 124.221 172.381 125.416C174.024 126.611 174.845 128.253 174.845 130.344V130.664C174.845 131.795 174.621 132.787 174.173 133.64C173.725 134.493 172.946 135.357 171.837 136.232C170.749 137.107 169.149 138.152 167.037 139.368L162.173 142.152H175.613ZM189.881 145.384C187.748 145.384 185.86 145 184.217 144.232C182.596 143.464 181.327 142.387 180.409 141C179.513 139.613 179.065 138.024 179.065 136.232V132.808C179.065 130.995 179.513 129.395 180.409 128.008C181.327 126.621 182.596 125.544 184.217 124.776C185.86 124.008 187.748 123.624 189.881 123.624C191.993 123.624 193.86 124.008 195.481 124.776C197.103 125.544 198.361 126.621 199.257 128.008C200.153 129.395 200.601 130.995 200.601 132.808V136.232C200.601 138.045 200.153 139.645 199.257 141.032C198.361 142.397 197.103 143.464 195.481 144.232C193.86 145 191.993 145.384 189.881 145.384ZM189.881 142.408C192.228 142.408 194.073 141.864 195.417 140.776C196.761 139.688 197.433 138.184 197.433 136.264V132.776C197.433 130.877 196.751 129.373 195.385 128.264C194.041 127.155 192.196 126.6 189.849 126.6C187.481 126.6 185.615 127.155 184.249 128.264C182.905 129.352 182.233 130.856 182.233 132.776V136.264C182.233 138.184 182.905 139.688 184.249 140.776C185.615 141.864 187.492 142.408 189.881 142.408ZM224.006 142.152V145H204.518V142.44L213.766 137.096C215.579 136.051 216.923 135.208 217.798 134.568C218.672 133.907 219.259 133.299 219.558 132.744C219.878 132.189 220.038 131.528 220.038 130.76V130.44C220.038 129.203 219.515 128.253 218.47 127.592C217.446 126.931 215.963 126.6 214.022 126.6C212.016 126.6 210.491 126.952 209.446 127.656C208.422 128.36 207.91 129.384 207.91 130.728V131.368H204.71V130.696C204.71 128.413 205.51 126.664 207.11 125.448C208.71 124.232 210.992 123.624 213.958 123.624C216.859 123.624 219.131 124.221 220.774 125.416C222.416 126.611 223.238 128.253 223.238 130.344V130.664C223.238 131.795 223.014 132.787 222.566 133.64C222.118 134.493 221.339 135.357 220.23 136.232C219.142 137.107 217.542 138.152 215.43 139.368L210.566 142.152H224.006ZM238.978 132.328C241.815 132.413 243.98 132.979 245.474 134.024C246.988 135.048 247.746 136.477 247.746 138.312V138.728C247.746 140.883 246.882 142.536 245.154 143.688C243.426 144.819 240.908 145.384 237.602 145.384C234.38 145.363 231.884 144.797 230.114 143.688C228.364 142.579 227.49 141.011 227.49 138.984V138.76H230.658V138.984C230.658 140.051 231.276 140.893 232.514 141.512C233.751 142.109 235.458 142.408 237.634 142.408C239.916 142.408 241.644 142.109 242.818 141.512C243.991 140.893 244.578 139.987 244.578 138.792V138.408C244.578 136.168 242.295 135.048 237.73 135.048H234.274V132.232L242.178 126.856H227.874V124.008H247.234V126.856L238.978 132.328Z" fill="#1A3341"/>
<path d="M202 20C228.761 20 254.684 29.3329 275.304 46.391C295.923 63.4491 309.949 87.1642 314.963 113.451C319.978 139.738 315.667 166.951 302.775 190.402C289.883 213.852 269.216 232.073 244.334 241.924L239.254 229.093C261.15 220.424 279.337 204.39 290.682 183.753C302.027 163.117 305.82 139.17 301.407 116.037C296.995 92.9045 284.653 72.0352 266.507 57.0241C248.362 42.013 225.55 33.8 202 33.8V20Z" fill="url(#paint0_linear_6003_19098)"/>
<path d="M244.373 241.909C219.495 251.769 191.957 252.645 166.503 244.384L170.762 231.258C193.162 238.527 217.396 237.757 239.288 229.08L244.373 241.909Z" fill="url(#paint1_linear_6003_19098)"/>
<path d="M108.969 202.604C96.1406 184.95 88.5998 164.011 87.2276 142.231L101 141.364C102.208 160.529 108.844 178.956 120.133 194.491L108.969 202.604Z" fill="url(#paint2_linear_6003_19098)"/>
<path d="M166.481 244.377C143.383 236.876 123.252 222.256 108.974 202.611L120.137 194.497C132.702 211.785 150.417 224.651 170.743 231.252L166.481 244.377Z" fill="url(#paint3_linear_6003_19098)"/>
<path d="M87.2258 142.203C86.6216 132.575 87.2312 122.909 89.0403 113.434L102.595 116.022C101.003 124.36 100.467 132.866 100.999 141.339L87.2258 142.203Z" fill="url(#paint4_linear_6003_19098)"/>
<path d="M97.9698 85.9825C101.052 79.4412 104.744 73.2052 108.997 67.3574L120.158 75.4745C116.415 80.6206 113.166 86.1083 110.453 91.8646L97.9698 85.9825Z" fill="url(#paint5_linear_6003_19098)"/>
<path d="M89.0479 113.394C90.8603 103.919 93.8578 94.7095 97.9697 85.9828L110.453 91.8648C106.835 99.5444 104.197 107.649 102.602 115.987L89.0479 113.394Z" fill="url(#paint6_linear_6003_19098)"/>
<path d="M108.997 67.3584C113.25 61.5105 118.045 56.0768 123.319 51.1294L132.761 61.1939C128.12 65.5476 123.9 70.3293 120.157 75.4754L108.997 67.3584Z" fill="#AECEE5"/>
<path d="M123.326 51.1229C144.66 31.1124 172.817 19.983 202.067 20L202.059 33.8C176.319 33.7851 151.54 43.5789 132.767 61.1882L123.326 51.1229Z" fill="#DBE9EE"/>
<defs>
<linearGradient id="paint0_linear_6003_19098" x1="208" y1="3.00001" x2="317" y2="122" gradientUnits="userSpaceOnUse">
<stop stop-color="#5358CC"/>
<stop offset="1" stop-color="#3B38CE"/>
</linearGradient>
<linearGradient id="paint1_linear_6003_19098" x1="223.5" y1="250" x2="5.99999" y2="140.5" gradientUnits="userSpaceOnUse">
<stop stop-color="#6D73F9"/>
<stop offset="1" stop-color="#9BB8F1"/>
</linearGradient>
<linearGradient id="paint2_linear_6003_19098" x1="161.5" y1="233.5" x2="216.5" y2="241.5" gradientUnits="userSpaceOnUse">
<stop stop-color="#C9D2EA"/>
<stop offset="1" stop-color="#D1DCFB"/>
</linearGradient>
<linearGradient id="paint3_linear_6003_19098" x1="117.5" y1="53.5" x2="182.5" y2="20" gradientUnits="userSpaceOnUse">
<stop stop-color="#ACAEEA"/>
<stop offset="1" stop-color="#A4B9F0"/>
</linearGradient>
<linearGradient id="paint4_linear_6003_19098" x1="103.5" y1="94.5" x2="147" y2="51" gradientUnits="userSpaceOnUse">
<stop stop-color="#476DD3"/>
<stop offset="1" stop-color="#7094F1"/>
</linearGradient>
<linearGradient id="paint5_linear_6003_19098" x1="99.5" y1="174" x2="102" y2="126" gradientUnits="userSpaceOnUse">
<stop stop-color="#CADFF3"/>
<stop offset="1" stop-color="#D2E6FE"/>
</linearGradient>
<linearGradient id="paint6_linear_6003_19098" x1="133" y1="62" x2="169" y2="40.5" gradientUnits="userSpaceOnUse">
<stop stop-color="#A0CEF7"/>
<stop offset="1" stop-color="#7FB1EC"/>
</linearGradient>
</defs>
</svg>
