<svg width="542" height="262" viewBox="0 0 542 262" fill="none" xmlns="http://www.w3.org/2000/svg">
<rect x="1" y="2" width="10" height="10" fill="url(#paint0_linear_6008_19113)"/>
<path d="M20.476 5.372L19.6 5.06C19.9 3.572 21.028 2.504 22.816 2.504C24.544 2.504 25.6 3.5 25.6 5.024C25.6 5.828 25.252 6.632 24.82 7.208C24.604 7.508 24.328 7.796 24.004 8.096C23.344 8.684 22.876 8.996 22.192 9.428L21.268 10.004H25.912V11H19.372V10.184L21.196 8.972C21.52 8.768 21.748 8.612 21.88 8.516C22.012 8.432 22.228 8.276 22.516 8.072C22.804 7.868 23.02 7.688 23.164 7.556C23.296 7.424 23.476 7.256 23.68 7.04C24.232 6.44 24.436 5.888 24.496 5.132C24.496 4.04 23.788 3.548 22.744 3.548C22.096 3.548 21.58 3.728 21.208 4.088C20.836 4.448 20.584 4.88 20.476 5.372ZM26.7437 6.8C26.7437 5.504 27.0437 4.46 27.6557 3.68C28.2557 2.9 29.1437 2.504 30.3077 2.504C32.6957 2.504 33.8837 4.076 33.8837 6.8C33.8837 8.108 33.5837 9.14 32.9957 9.92C32.3957 10.7 31.5077 11.096 30.3317 11.096C29.2037 11.096 28.3277 10.7 27.6917 9.908C27.0557 9.116 26.7437 8.084 26.7437 6.8ZM27.8477 6.8C27.8477 8.852 28.7837 10.076 30.3317 10.076C31.9637 10.076 32.7797 8.984 32.7797 6.8C32.7797 4.616 31.9517 3.524 30.3077 3.524C28.6397 3.524 27.8477 4.724 27.8477 6.8ZM35.7399 5.372L34.8639 5.06C35.1639 3.572 36.2919 2.504 38.0799 2.504C39.8079 2.504 40.8639 3.5 40.8639 5.024C40.8639 5.828 40.5159 6.632 40.0839 7.208C39.8679 7.508 39.5919 7.796 39.2679 8.096C38.6079 8.684 38.1399 8.996 37.4559 9.428L36.5319 10.004H41.1759V11H34.6359V10.184L36.4599 8.972C36.7839 8.768 37.0119 8.612 37.1439 8.516C37.2759 8.432 37.4919 8.276 37.7799 8.072C38.0679 7.868 38.2839 7.688 38.4279 7.556C38.5599 7.424 38.7399 7.256 38.9439 7.04C39.4959 6.44 39.6999 5.888 39.7599 5.132C39.7599 4.04 39.0519 3.548 38.0079 3.548C37.3599 3.548 36.8439 3.728 36.4719 4.088C36.0999 4.448 35.8479 4.88 35.7399 5.372ZM42.9676 5.372L42.0916 5.06C42.3916 3.572 43.5196 2.504 45.3076 2.504C47.0356 2.504 48.0916 3.5 48.0916 5.024C48.0916 5.828 47.7436 6.632 47.3116 7.208C47.0956 7.508 46.8196 7.796 46.4956 8.096C45.8356 8.684 45.3676 8.996 44.6836 9.428L43.7596 10.004H48.4036V11H41.8636V10.184L43.6876 8.972C44.0116 8.768 44.2396 8.612 44.3716 8.516C44.5036 8.432 44.7196 8.276 45.0076 8.072C45.2956 7.868 45.5116 7.688 45.6556 7.556C45.7876 7.424 45.9676 7.256 46.1716 7.04C46.7236 6.44 46.9276 5.888 46.9876 5.132C46.9876 4.04 46.2796 3.548 45.2356 3.548C44.5876 3.548 44.0716 3.728 43.6996 4.088C43.3276 4.448 43.0756 4.88 42.9676 5.372Z" fill="#1A3341" fill-opacity="0.6"/>
<rect x="85" y="2" width="10" height="10" fill="url(#paint1_linear_6008_19113)"/>
<path d="M104.476 5.372L103.6 5.06C103.9 3.572 105.028 2.504 106.816 2.504C108.544 2.504 109.6 3.5 109.6 5.024C109.6 5.828 109.252 6.632 108.82 7.208C108.604 7.508 108.328 7.796 108.004 8.096C107.344 8.684 106.876 8.996 106.192 9.428L105.268 10.004H109.912V11H103.372V10.184L105.196 8.972C105.52 8.768 105.748 8.612 105.88 8.516C106.012 8.432 106.228 8.276 106.516 8.072C106.804 7.868 107.02 7.688 107.164 7.556C107.296 7.424 107.476 7.256 107.68 7.04C108.232 6.44 108.436 5.888 108.496 5.132C108.496 4.04 107.788 3.548 106.744 3.548C106.096 3.548 105.58 3.728 105.208 4.088C104.836 4.448 104.584 4.88 104.476 5.372ZM110.744 6.8C110.744 5.504 111.044 4.46 111.656 3.68C112.256 2.9 113.144 2.504 114.308 2.504C116.696 2.504 117.884 4.076 117.884 6.8C117.884 8.108 117.584 9.14 116.996 9.92C116.396 10.7 115.508 11.096 114.332 11.096C113.204 11.096 112.328 10.7 111.692 9.908C111.056 9.116 110.744 8.084 110.744 6.8ZM111.848 6.8C111.848 8.852 112.784 10.076 114.332 10.076C115.964 10.076 116.78 8.984 116.78 6.8C116.78 4.616 115.952 3.524 114.308 3.524C112.64 3.524 111.848 4.724 111.848 6.8ZM119.74 5.372L118.864 5.06C119.164 3.572 120.292 2.504 122.08 2.504C123.808 2.504 124.864 3.5 124.864 5.024C124.864 5.828 124.516 6.632 124.084 7.208C123.868 7.508 123.592 7.796 123.268 8.096C122.608 8.684 122.14 8.996 121.456 9.428L120.532 10.004H125.176V11H118.636V10.184L120.46 8.972C120.784 8.768 121.012 8.612 121.144 8.516C121.276 8.432 121.492 8.276 121.78 8.072C122.068 7.868 122.284 7.688 122.428 7.556C122.56 7.424 122.74 7.256 122.944 7.04C123.496 6.44 123.7 5.888 123.76 5.132C123.76 4.04 123.052 3.548 122.008 3.548C121.36 3.548 120.844 3.728 120.472 4.088C120.1 4.448 119.848 4.88 119.74 5.372ZM126.836 5.048L125.936 4.64C126.38 3.344 127.544 2.492 129.284 2.492C130.112 2.492 130.796 2.684 131.324 3.068C131.852 3.452 132.116 3.968 132.116 4.604C132.116 5.576 131.6 6.296 130.64 6.572C131.564 6.632 132.308 7.328 132.308 8.576C132.308 9.368 132.02 9.992 131.444 10.436C130.868 10.88 130.136 11.108 129.236 11.108C127.4 11.108 126.128 10.232 125.708 8.852L126.68 8.432C127.196 9.524 128.072 10.076 129.308 10.076C130.472 10.076 131.204 9.536 131.204 8.588C131.204 7.664 130.484 7.196 129.044 7.196H128.108V6.2H128.852C130.16 6.2 131.012 5.612 131.012 4.808C131.012 3.98 130.328 3.512 129.236 3.512C127.952 3.512 127.172 4.172 126.836 5.048Z" fill="#1A3341" fill-opacity="0.6"/>
<path opacity="0.6" d="M33.7878 145H30.4518V136.6H33.8478C35.9958 136.6 36.8118 137.38 36.8118 138.688C36.8118 139.624 36.4158 140.26 35.6238 140.608C36.5478 140.8 37.1118 141.508 37.1118 142.6C37.1118 144.244 35.8878 145 33.7878 145ZM33.8958 141.208H31.5438V143.98H33.7758C35.2998 143.98 35.9838 143.536 35.9838 142.54C35.9838 141.652 35.2878 141.208 33.8958 141.208ZM33.7518 137.62H31.5438V140.212H33.9318C34.9998 140.212 35.6958 139.732 35.6958 138.916C35.6958 138.016 35.1798 137.62 33.7518 137.62ZM43.074 143.212L43.722 143.812C43.146 144.676 42.318 145.108 41.226 145.108C40.23 145.108 39.426 144.808 38.814 144.22C38.202 143.632 37.902 142.852 37.902 141.868C37.902 140.92 38.178 140.14 38.742 139.528C39.294 138.916 40.074 138.616 41.082 138.616C41.91 138.616 42.606 138.88 43.146 139.396C43.686 139.912 43.962 140.596 43.962 141.448C43.962 141.724 43.938 141.976 43.902 142.204H38.982C39.042 143.44 39.954 144.16 41.262 144.16C41.994 144.16 42.69 143.776 43.074 143.212ZM41.01 139.54C39.87 139.54 39.126 140.236 38.97 141.292H42.894C42.834 140.188 42.126 139.54 41.01 139.54ZM46.066 145H45.058V136.24H46.066V145ZM47.9822 140.26L47.4662 139.504C48.0422 138.964 49.0382 138.616 49.9622 138.616C51.6302 138.616 52.5182 139.528 52.5182 141.148V145H51.5102V144.076C51.1142 144.652 50.3342 145.084 49.3262 145.084C47.9702 145.084 47.0582 144.328 47.0582 143.176C47.0582 141.868 48.1742 141.244 50.0462 141.244C50.6342 141.244 51.1142 141.304 51.5102 141.424C51.5102 140.212 51.0782 139.564 49.8422 139.564C49.2182 139.564 48.5942 139.792 47.9822 140.26ZM49.5662 144.172C50.0342 144.172 50.4542 144.04 50.8022 143.788C51.1502 143.536 51.3782 143.248 51.5102 142.948V142.312C51.1622 142.192 50.7182 142.132 50.1782 142.132C48.8102 142.132 48.1262 142.468 48.1262 143.14C48.1262 143.776 48.7022 144.172 49.5662 144.172ZM54.8003 145H53.7923V138.76H54.8003V139.24C55.0043 138.82 55.5443 138.628 56.0843 138.628C56.6363 138.628 57.0563 138.82 57.3563 139.192L56.7203 139.888C56.5643 139.684 56.3243 139.576 55.9763 139.576C55.4363 139.576 54.9443 140.02 54.8003 140.656V145ZM62.4265 138.724H63.4345V145H62.4265V144.112C61.9465 144.772 61.2745 145.108 60.3985 145.108C58.6705 145.108 57.8305 144.244 57.8305 142.336V138.724H58.8385V142.192C58.8385 143.5 59.3905 144.16 60.4825 144.16C61.3465 144.16 62.0425 143.668 62.4265 142.804V138.724ZM68.5952 143.296C68.5952 142.456 67.1672 142.324 66.0272 142C65.2472 141.772 64.6232 141.256 64.6232 140.404C64.6232 139.3 65.6672 138.616 67.2152 138.616C68.2592 138.616 69.0992 139.06 69.5432 139.696L68.8352 140.356C68.4392 139.828 67.8392 139.564 67.0352 139.564C66.3152 139.564 65.6912 139.84 65.6912 140.356C65.6912 141.088 67.1192 141.22 68.2592 141.568C69.0272 141.808 69.6512 142.384 69.6512 143.284C69.6512 144.496 68.6792 145.108 67.1552 145.108C65.8712 145.108 64.7792 144.532 64.3352 143.632L65.1392 143.068C65.5112 143.728 66.3632 144.16 67.3232 144.16C68.1752 144.16 68.5952 143.872 68.5952 143.296Z" fill="#1A3341"/>
<path opacity="0.6" d="M25.3612 57H24.2692V48.6H25.2772L28.4692 52.824L31.5532 48.6H32.5372V57H31.4452V50.484L28.5772 54.348H28.3132L25.3612 50.484V57ZM33.6882 53.868C33.6882 52.92 34.0002 52.14 34.6122 51.528C35.2242 50.916 36.0162 50.616 36.9882 50.616C37.9722 50.616 38.7762 50.916 39.3882 51.528C40.0002 52.14 40.3122 52.92 40.3122 53.868C40.3122 54.816 40.0002 55.584 39.3882 56.196C38.7642 56.808 37.9602 57.108 36.9882 57.108C36.0162 57.108 35.2242 56.808 34.6122 56.196C34.0002 55.584 33.6882 54.816 33.6882 53.868ZM34.7562 53.868C34.7562 54.528 34.9602 55.08 35.3802 55.512C35.8002 55.944 36.3282 56.16 36.9882 56.16C37.6482 56.16 38.2002 55.944 38.6202 55.524C39.0402 55.104 39.2442 54.552 39.2442 53.868C39.2442 53.184 39.0282 52.632 38.6082 52.2C38.1762 51.78 37.6362 51.564 36.9882 51.564C36.3402 51.564 35.8122 51.78 35.3922 52.2C34.9722 52.62 34.7562 53.184 34.7562 53.868ZM45.1388 55.296C45.1388 54.456 43.7108 54.324 42.5708 54C41.7908 53.772 41.1668 53.256 41.1668 52.404C41.1668 51.3 42.2108 50.616 43.7588 50.616C44.8028 50.616 45.6428 51.06 46.0868 51.696L45.3788 52.356C44.9828 51.828 44.3828 51.564 43.5788 51.564C42.8588 51.564 42.2348 51.84 42.2348 52.356C42.2348 53.088 43.6628 53.22 44.8028 53.568C45.5708 53.808 46.1948 54.384 46.1948 55.284C46.1948 56.496 45.2228 57.108 43.6988 57.108C42.4148 57.108 41.3228 56.532 40.8788 55.632L41.6828 55.068C42.0548 55.728 42.9068 56.16 43.8668 56.16C44.7188 56.16 45.1388 55.872 45.1388 55.296ZM51.9916 55.2L52.7116 55.716C52.2436 56.592 51.1876 57.108 50.1436 57.108C49.1476 57.108 48.3436 56.808 47.7316 56.22C47.1196 55.632 46.8076 54.852 46.8076 53.868C46.8076 52.932 47.1076 52.152 47.7196 51.54C48.3316 50.928 49.1116 50.616 50.0836 50.616C51.1996 50.616 52.1956 51.12 52.6156 51.888L51.8356 52.416C51.4156 51.852 50.8396 51.564 50.1076 51.564C49.4596 51.564 48.9316 51.78 48.5116 52.212C48.0916 52.644 47.8756 53.196 47.8756 53.868C47.8756 54.552 48.0916 55.104 48.5356 55.524C48.9676 55.944 49.5316 56.16 50.2396 56.16C50.9836 56.16 51.5716 55.836 51.9916 55.2ZM53.0157 53.868C53.0157 52.92 53.3277 52.14 53.9397 51.528C54.5517 50.916 55.3437 50.616 56.3157 50.616C57.2997 50.616 58.1037 50.916 58.7157 51.528C59.3277 52.14 59.6397 52.92 59.6397 53.868C59.6397 54.816 59.3277 55.584 58.7157 56.196C58.0917 56.808 57.2877 57.108 56.3157 57.108C55.3437 57.108 54.5517 56.808 53.9397 56.196C53.3277 55.584 53.0157 54.816 53.0157 53.868ZM54.0837 53.868C54.0837 54.528 54.2877 55.08 54.7077 55.512C55.1277 55.944 55.6557 56.16 56.3157 56.16C56.9757 56.16 57.5277 55.944 57.9477 55.524C58.3677 55.104 58.5717 54.552 58.5717 53.868C58.5717 53.184 58.3557 52.632 57.9357 52.2C57.5037 51.78 56.9637 51.564 56.3157 51.564C55.6677 51.564 55.1397 51.78 54.7197 52.2C54.2997 52.62 54.0837 53.184 54.0837 53.868ZM68.0431 50.76H69.0751L67.0471 57H66.2311L64.4791 52.32L62.7031 57H61.9111L59.7991 50.76H60.8791L62.3791 55.32L64.0831 50.76H64.8751L66.6151 55.356L68.0431 50.76ZM49.8511 69H48.8431V60.24H49.8511V63.576C50.3311 62.94 51.0031 62.628 51.8791 62.628C53.6311 62.628 54.5071 63.576 54.5071 65.46V69H53.4991V65.556C53.4991 64.212 52.9231 63.576 51.6871 63.576C50.8591 63.576 50.1871 64.104 49.8511 64.872V69ZM60.2898 62.724H61.2978V69H60.2898V68.112C59.8098 68.772 59.1378 69.108 58.2618 69.108C56.5338 69.108 55.6938 68.244 55.6938 66.336V62.724H56.7018V66.192C56.7018 67.5 57.2538 68.16 58.3458 68.16C59.2098 68.16 59.9058 67.668 60.2898 66.804V62.724ZM62.6304 67.86V60.24H63.6384V63.516C64.1544 62.916 64.8504 62.616 65.7024 62.616C66.6024 62.616 67.3224 62.904 67.8384 63.48C68.3544 64.068 68.6184 64.824 68.6184 65.772C68.6184 66.792 68.3304 67.608 67.7424 68.208C67.1544 68.808 66.3744 69.108 65.3904 69.108C64.8504 69.108 64.3224 68.988 63.8064 68.748C63.2904 68.52 62.8944 68.22 62.6304 67.86ZM65.5464 63.564C64.7304 63.564 64.0104 64.08 63.6384 64.764V67.38C64.0584 67.86 64.7904 68.16 65.4624 68.16C66.6744 68.16 67.5504 67.272 67.5504 65.832C67.5504 64.428 66.7464 63.564 65.5464 63.564Z" fill="#1A3341"/>
<path opacity="0.6" d="M37.4656 210.8C37.4656 209.588 37.8736 208.556 38.7016 207.728C39.5296 206.9 40.5376 206.492 41.7376 206.492C42.9256 206.492 43.9336 206.9 44.7616 207.716C45.5896 208.532 45.9976 209.564 45.9976 210.8C45.9976 212.024 45.5896 213.044 44.7616 213.872C43.9336 214.7 42.9256 215.108 41.7376 215.108C40.5376 215.108 39.5296 214.7 38.7016 213.884C37.8736 213.068 37.4656 212.036 37.4656 210.8ZM38.6056 210.8C38.6056 211.736 38.9176 212.516 39.5296 213.128C40.1416 213.752 40.8736 214.064 41.7376 214.064C42.6256 214.064 43.3696 213.752 43.9696 213.14C44.5576 212.528 44.8576 211.748 44.8576 210.8C44.8576 209.852 44.5576 209.072 43.9456 208.46C43.3336 207.848 42.5896 207.536 41.7376 207.536C40.8616 207.536 40.1296 207.848 39.5176 208.46C38.9056 209.072 38.6056 209.852 38.6056 210.8ZM47.68 209.72H46.384V208.76H47.68V207.164H48.688V208.76H50.836V209.72H48.688V212.468C48.688 213.68 49 214.124 49.768 214.124C50.14 214.124 50.524 213.98 50.896 213.68L51.352 214.424C50.956 214.868 50.368 215.084 49.588 215.084C48.352 215.084 47.68 214.268 47.68 212.732V209.72ZM52.9711 215H51.9631V206.24H52.9711V209.576C53.4511 208.94 54.1231 208.628 54.9991 208.628C56.7511 208.628 57.6271 209.576 57.6271 211.46V215H56.6191V211.556C56.6191 210.212 56.0431 209.576 54.8071 209.576C53.9791 209.576 53.3071 210.104 52.9711 210.872V215ZM63.7218 213.212L64.3698 213.812C63.7938 214.676 62.9658 215.108 61.8738 215.108C60.8778 215.108 60.0738 214.808 59.4618 214.22C58.8498 213.632 58.5498 212.852 58.5498 211.868C58.5498 210.92 58.8258 210.14 59.3898 209.528C59.9418 208.916 60.7218 208.616 61.7298 208.616C62.5578 208.616 63.2538 208.88 63.7938 209.396C64.3338 209.912 64.6098 210.596 64.6098 211.448C64.6098 211.724 64.5858 211.976 64.5498 212.204H59.6298C59.6898 213.44 60.6018 214.16 61.9098 214.16C62.6418 214.16 63.3378 213.776 63.7218 213.212ZM61.6578 209.54C60.5178 209.54 59.7738 210.236 59.6178 211.292H63.5418C63.4818 210.188 62.7738 209.54 61.6578 209.54ZM66.6178 215H65.6098V208.76H66.6178V209.24C66.8218 208.82 67.3618 208.628 67.9018 208.628C68.4538 208.628 68.8738 208.82 69.1738 209.192L68.5378 209.888C68.3818 209.684 68.1418 209.576 67.7938 209.576C67.2538 209.576 66.7618 210.02 66.6178 210.656V215ZM7.353 227H6.345V226.256C6.069 226.688 5.349 227.108 4.401 227.108C3.477 227.108 2.745 226.82 2.181 226.244C1.617 225.668 1.329 224.888 1.329 223.892C1.329 222.932 1.629 222.14 2.241 221.528C2.853 220.916 3.597 220.616 4.485 220.616C5.313 220.616 5.937 220.82 6.345 221.228V218.24H7.353V227ZM4.545 226.148C5.397 226.148 6.057 225.548 6.345 224.96V222.44C5.949 221.852 5.361 221.564 4.605 221.564C3.993 221.564 3.465 221.78 3.045 222.2C2.613 222.62 2.397 223.184 2.397 223.868C2.397 225.26 3.285 226.148 4.545 226.148ZM13.5177 225.212L14.1657 225.812C13.5897 226.676 12.7617 227.108 11.6697 227.108C10.6737 227.108 9.86972 226.808 9.25772 226.22C8.64572 225.632 8.34572 224.852 8.34572 223.868C8.34572 222.92 8.62172 222.14 9.18572 221.528C9.73772 220.916 10.5177 220.616 11.5257 220.616C12.3537 220.616 13.0497 220.88 13.5897 221.396C14.1297 221.912 14.4057 222.596 14.4057 223.448C14.4057 223.724 14.3817 223.976 14.3457 224.204H9.42572C9.48572 225.44 10.3977 226.16 11.7057 226.16C12.4377 226.16 13.1337 225.776 13.5177 225.212ZM11.4537 221.54C10.3137 221.54 9.56972 222.236 9.41372 223.292H13.3377C13.2777 222.188 12.5697 221.54 11.4537 221.54ZM19.2338 225.296C19.2338 224.456 17.8058 224.324 16.6658 224C15.8857 223.772 15.2617 223.256 15.2617 222.404C15.2617 221.3 16.3058 220.616 17.8538 220.616C18.8978 220.616 19.7378 221.06 20.1818 221.696L19.4737 222.356C19.0778 221.828 18.4777 221.564 17.6737 221.564C16.9538 221.564 16.3298 221.84 16.3298 222.356C16.3298 223.088 17.7577 223.22 18.8978 223.568C19.6658 223.808 20.2898 224.384 20.2898 225.284C20.2898 226.496 19.3178 227.108 17.7938 227.108C16.5098 227.108 15.4177 226.532 14.9737 225.632L15.7778 225.068C16.1497 225.728 17.0017 226.16 17.9618 226.16C18.8138 226.16 19.2338 225.872 19.2338 225.296ZM21.8866 221.72H20.5906V220.76H21.8866V219.164H22.8946V220.76H25.0426V221.72H22.8946V224.468C22.8946 225.68 23.2066 226.124 23.9746 226.124C24.3466 226.124 24.7306 225.98 25.1026 225.68L25.5586 226.424C25.1626 226.868 24.5746 227.084 23.7946 227.084C22.5586 227.084 21.8866 226.268 21.8866 224.732V221.72ZM27.3097 227H26.3017V220.76H27.3097V227ZM26.1697 218.732C26.1697 218.396 26.4457 218.144 26.8177 218.144C27.1537 218.144 27.4417 218.396 27.4417 218.732C27.4417 219.08 27.1537 219.356 26.8177 219.356C26.4457 219.356 26.1697 219.08 26.1697 218.732ZM29.7881 227H28.7801V220.76H29.7881V221.576C30.1841 220.964 31.0001 220.628 31.9241 220.628C33.6161 220.628 34.4561 221.564 34.4561 223.448V227H33.4481V223.568C33.4481 222.188 32.8601 221.576 31.6241 221.576C30.8561 221.576 30.1241 222.08 29.7881 222.836V227ZM36.2065 222.26L35.6905 221.504C36.2665 220.964 37.2625 220.616 38.1865 220.616C39.8545 220.616 40.7425 221.528 40.7425 223.148V227H39.7345V226.076C39.3385 226.652 38.5585 227.084 37.5505 227.084C36.1945 227.084 35.2825 226.328 35.2825 225.176C35.2825 223.868 36.3985 223.244 38.2705 223.244C38.8585 223.244 39.3385 223.304 39.7345 223.424C39.7345 222.212 39.3025 221.564 38.0665 221.564C37.4425 221.564 36.8185 221.792 36.2065 222.26ZM37.7905 226.172C38.2585 226.172 38.6785 226.04 39.0265 225.788C39.3745 225.536 39.6025 225.248 39.7345 224.948V224.312C39.3865 224.192 38.9425 224.132 38.4025 224.132C37.0345 224.132 36.3505 224.468 36.3505 225.14C36.3505 225.776 36.9265 226.172 37.7905 226.172ZM42.6527 221.72H41.3567V220.76H42.6527V219.164H43.6607V220.76H45.8087V221.72H43.6607V224.468C43.6607 225.68 43.9727 226.124 44.7407 226.124C45.1127 226.124 45.4967 225.98 45.8687 225.68L46.3247 226.424C45.9287 226.868 45.3407 227.084 44.5607 227.084C43.3247 227.084 42.6527 226.268 42.6527 224.732V221.72ZM48.0758 227H47.0678V220.76H48.0758V227ZM46.9358 218.732C46.9358 218.396 47.2118 218.144 47.5838 218.144C47.9198 218.144 48.2078 218.396 48.2078 218.732C48.2078 219.08 47.9198 219.356 47.5838 219.356C47.2118 219.356 46.9358 219.08 46.9358 218.732ZM49.1982 223.868C49.1982 222.92 49.5102 222.14 50.1222 221.528C50.7342 220.916 51.5262 220.616 52.4982 220.616C53.4822 220.616 54.2862 220.916 54.8982 221.528C55.5102 222.14 55.8222 222.92 55.8222 223.868C55.8222 224.816 55.5102 225.584 54.8982 226.196C54.2742 226.808 53.4702 227.108 52.4982 227.108C51.5262 227.108 50.7342 226.808 50.1222 226.196C49.5102 225.584 49.1982 224.816 49.1982 223.868ZM50.2662 223.868C50.2662 224.528 50.4702 225.08 50.8902 225.512C51.3102 225.944 51.8382 226.16 52.4982 226.16C53.1582 226.16 53.7102 225.944 54.1302 225.524C54.5502 225.104 54.7542 224.552 54.7542 223.868C54.7542 223.184 54.5382 222.632 54.1182 222.2C53.6862 221.78 53.1462 221.564 52.4982 221.564C51.8502 221.564 51.3222 221.78 50.9022 222.2C50.4822 222.62 50.2662 223.184 50.2662 223.868ZM57.8287 227H56.8207V220.76H57.8287V221.576C58.2247 220.964 59.0407 220.628 59.9647 220.628C61.6567 220.628 62.4967 221.564 62.4967 223.448V227H61.4887V223.568C61.4887 222.188 60.9007 221.576 59.6647 221.576C58.8967 221.576 58.1647 222.08 57.8287 222.836V227ZM67.5952 225.296C67.5952 224.456 66.1672 224.324 65.0272 224C64.2472 223.772 63.6232 223.256 63.6232 222.404C63.6232 221.3 64.6672 220.616 66.2152 220.616C67.2592 220.616 68.0992 221.06 68.5432 221.696L67.8352 222.356C67.4392 221.828 66.8392 221.564 66.0352 221.564C65.3152 221.564 64.6912 221.84 64.6912 222.356C64.6912 223.088 66.1192 223.22 67.2592 223.568C68.0272 223.808 68.6512 224.384 68.6512 225.284C68.6512 226.496 67.6792 227.108 66.1552 227.108C64.8712 227.108 63.7792 226.532 63.3352 225.632L64.1392 225.068C64.5112 225.728 65.3632 226.16 66.3232 226.16C67.1752 226.16 67.5952 225.872 67.5952 225.296Z" fill="#1A3341"/>
<path d="M516.765 76.056L515.715 75.58C516.233 74.068 517.591 73.074 519.621 73.074C520.587 73.074 521.385 73.298 522.001 73.746C522.617 74.194 522.925 74.796 522.925 75.538C522.925 76.672 522.323 77.512 521.203 77.834C522.281 77.904 523.149 78.716 523.149 80.172C523.149 81.096 522.813 81.824 522.141 82.342C521.469 82.86 520.615 83.126 519.565 83.126C517.423 83.126 515.939 82.104 515.449 80.494L516.583 80.004C517.185 81.278 518.207 81.922 519.649 81.922C521.007 81.922 521.861 81.292 521.861 80.186C521.861 79.108 521.021 78.562 519.341 78.562H518.249V77.4H519.117C520.643 77.4 521.637 76.714 521.637 75.776C521.637 74.81 520.839 74.264 519.565 74.264C518.067 74.264 517.157 75.034 516.765 76.056ZM524.188 75.804L523.74 74.754L527.1 73.144H527.898V83H526.694V74.642L524.188 75.804ZM532.119 83.21L531.195 82.678L538.433 72.892L539.315 73.536L532.119 83.21ZM529.683 75.552C529.683 74.852 529.921 74.278 530.411 73.83C530.901 73.382 531.503 73.158 532.245 73.158C532.973 73.158 533.575 73.382 534.065 73.83C534.555 74.278 534.793 74.852 534.793 75.552C534.793 76.238 534.555 76.812 534.065 77.26C533.575 77.708 532.973 77.932 532.245 77.932C531.503 77.932 530.901 77.708 530.411 77.26C529.921 76.812 529.683 76.238 529.683 75.552ZM530.859 75.552C530.859 76.35 531.503 76.938 532.245 76.938C533.015 76.938 533.617 76.378 533.617 75.552C533.617 74.726 532.987 74.166 532.245 74.166C531.475 74.166 530.859 74.726 530.859 75.552ZM536.417 82.384C535.927 81.936 535.689 81.362 535.689 80.662C535.689 79.962 535.927 79.388 536.417 78.94C536.907 78.506 537.509 78.282 538.251 78.282C538.979 78.282 539.581 78.506 540.071 78.94C540.561 79.388 540.799 79.962 540.799 80.662C540.799 81.348 540.561 81.922 540.071 82.37C539.581 82.832 538.979 83.056 538.251 83.056C537.509 83.056 536.907 82.832 536.417 82.384ZM536.865 80.662C536.865 81.46 537.509 82.048 538.251 82.048C539.021 82.048 539.623 81.488 539.623 80.662C539.623 79.836 538.993 79.276 538.251 79.276C537.481 79.276 536.865 79.836 536.865 80.662Z" fill="#737AF9"/>
<path d="M79 46H348C348.552 46 349 46.4477 349 47V63C349 63.5523 348.552 64 348 64H79V46Z" fill="url(#paint2_linear_6008_19113)"/>
<path d="M357.49 51.804L357.042 50.754L360.402 49.144H361.2V59H359.996V50.642L357.49 51.804ZM364.105 52.434L363.083 52.07C363.433 50.334 364.749 49.088 366.835 49.088C368.851 49.088 370.083 50.25 370.083 52.028C370.083 52.966 369.677 53.904 369.173 54.576C368.921 54.926 368.599 55.262 368.221 55.612C367.451 56.298 366.905 56.662 366.107 57.166L365.029 57.838H370.447V59H362.817V58.048L364.945 56.634C365.323 56.396 365.589 56.214 365.743 56.102C365.897 56.004 366.149 55.822 366.485 55.584C366.821 55.346 367.073 55.136 367.241 54.982C367.395 54.828 367.605 54.632 367.843 54.38C368.487 53.68 368.725 53.036 368.795 52.154C368.795 50.88 367.969 50.306 366.751 50.306C365.995 50.306 365.393 50.516 364.959 50.936C364.525 51.356 364.231 51.86 364.105 52.434ZM379.566 53.918C379.566 55.584 379.174 56.872 378.376 57.768C377.578 58.678 376.514 59.126 375.184 59.126C373.56 59.126 372.286 58.44 371.656 57.39L372.664 56.69C373.224 57.474 374.246 57.922 375.352 57.922C376.262 57.922 376.99 57.558 377.564 56.83C378.138 56.116 378.376 55.22 378.306 54.156C377.844 55.22 376.682 56.004 375.128 56.004C374.036 56.004 373.14 55.696 372.44 55.066C371.726 54.45 371.376 53.638 371.376 52.644C371.376 51.552 371.754 50.684 372.51 50.04C373.266 49.396 374.274 49.074 375.52 49.074C378.04 49.074 379.566 50.838 379.566 53.918ZM378.096 52.602C377.886 51.3 376.99 50.278 375.38 50.278C373.7 50.278 372.664 51.146 372.664 52.602C372.664 53.988 373.714 54.8 375.352 54.8C376.094 54.8 376.724 54.576 377.214 54.128C377.704 53.68 377.998 53.176 378.096 52.602ZM381.554 59C381.036 59.056 380.644 58.762 380.644 58.258C380.644 57.768 380.952 57.46 381.498 57.46C382.114 57.46 382.52 57.88 382.52 58.664C382.52 60.064 381.75 60.778 380.728 61.016L380.434 60.358C380.742 60.274 381.022 60.106 381.274 59.84C381.512 59.574 381.61 59.294 381.554 59ZM383.538 54.366C383.538 52.672 383.958 51.37 384.784 50.446C385.61 49.536 386.646 49.074 387.892 49.074C389.53 49.074 390.818 49.816 391.364 50.992L390.412 51.636C389.838 50.726 388.984 50.278 387.836 50.278C386.968 50.278 386.24 50.614 385.652 51.286C385.064 51.972 384.77 52.896 384.784 54.086C385.33 53.064 386.604 52.448 388.004 52.448C389.138 52.448 390.048 52.742 390.706 53.344C391.364 53.946 391.7 54.744 391.7 55.724C391.7 56.718 391.336 57.544 390.594 58.174C389.852 58.804 388.928 59.126 387.822 59.126C385.176 59.126 383.538 57.404 383.538 54.366ZM384.938 55.556C385.204 56.942 386.254 57.922 387.808 57.922C388.564 57.922 389.194 57.726 389.684 57.32C390.174 56.928 390.412 56.41 390.412 55.78C390.412 54.394 389.432 53.652 387.934 53.652C387.108 53.652 386.422 53.848 385.89 54.24C385.344 54.632 385.036 55.066 384.938 55.556ZM393.675 52.056L392.625 51.58C393.143 50.068 394.501 49.074 396.531 49.074C397.497 49.074 398.295 49.298 398.911 49.746C399.527 50.194 399.835 50.796 399.835 51.538C399.835 52.672 399.233 53.512 398.113 53.834C399.191 53.904 400.059 54.716 400.059 56.172C400.059 57.096 399.723 57.824 399.051 58.342C398.379 58.86 397.525 59.126 396.475 59.126C394.333 59.126 392.849 58.104 392.359 56.494L393.493 56.004C394.095 57.278 395.117 57.922 396.559 57.922C397.917 57.922 398.771 57.292 398.771 56.186C398.771 55.108 397.931 54.562 396.251 54.562H395.159V53.4H396.027C397.553 53.4 398.547 52.714 398.547 51.776C398.547 50.81 397.749 50.264 396.475 50.264C394.977 50.264 394.067 51.034 393.675 52.056ZM402.329 52.434L401.307 52.07C401.657 50.334 402.973 49.088 405.059 49.088C407.075 49.088 408.307 50.25 408.307 52.028C408.307 52.966 407.901 53.904 407.397 54.576C407.145 54.926 406.823 55.262 406.445 55.612C405.675 56.298 405.129 56.662 404.331 57.166L403.253 57.838H408.671V59H401.041V58.048L403.169 56.634C403.547 56.396 403.813 56.214 403.967 56.102C404.121 56.004 404.373 55.822 404.709 55.584C405.045 55.346 405.297 55.136 405.465 54.982C405.619 54.828 405.829 54.632 406.067 54.38C406.711 53.68 406.949 53.036 407.019 52.154C407.019 50.88 406.193 50.306 404.975 50.306C404.219 50.306 403.617 50.516 403.183 50.936C402.749 51.356 402.455 51.86 402.329 52.434Z" fill="#1A3341"/>
<path d="M79 70H431C431.552 70 432 70.4477 432 71V87C432 87.5523 431.552 88 431 88H79V70Z" fill="url(#paint3_linear_6008_19113)"/>
<path d="M440.49 75.804L440.042 74.754L443.402 73.144H444.2V83H442.996V74.642L440.49 75.804ZM451.599 74.39H445.663V73.2H453.097V73.998L448.225 83H446.895L451.599 74.39ZM453.843 78.1C453.843 76.588 454.193 75.37 454.907 74.46C455.607 73.55 456.643 73.088 458.001 73.088C460.787 73.088 462.173 74.922 462.173 78.1C462.173 79.626 461.823 80.83 461.137 81.74C460.437 82.65 459.401 83.112 458.029 83.112C456.713 83.112 455.691 82.65 454.949 81.726C454.207 80.802 453.843 79.598 453.843 78.1ZM455.131 78.1C455.131 80.494 456.223 81.922 458.029 81.922C459.933 81.922 460.885 80.648 460.885 78.1C460.885 75.552 459.919 74.278 458.001 74.278C456.055 74.278 455.131 75.678 455.131 78.1ZM464.157 83C463.639 83.056 463.247 82.762 463.247 82.258C463.247 81.768 463.555 81.46 464.101 81.46C464.717 81.46 465.123 81.88 465.123 82.664C465.123 84.064 464.353 84.778 463.331 85.016L463.037 84.358C463.345 84.274 463.625 84.106 463.877 83.84C464.115 83.574 464.213 83.294 464.157 83ZM466.142 78.1C466.142 76.588 466.492 75.37 467.206 74.46C467.906 73.55 468.942 73.088 470.3 73.088C473.086 73.088 474.472 74.922 474.472 78.1C474.472 79.626 474.122 80.83 473.436 81.74C472.736 82.65 471.7 83.112 470.328 83.112C469.012 83.112 467.99 82.65 467.248 81.726C466.506 80.802 466.142 79.598 466.142 78.1ZM467.43 78.1C467.43 80.494 468.522 81.922 470.328 81.922C472.232 81.922 473.184 80.648 473.184 78.1C473.184 75.552 472.218 74.278 470.3 74.278C468.354 74.278 467.43 75.678 467.43 78.1ZM481.131 74.39H475.195V73.2H482.629V73.998L477.757 83H476.427L481.131 74.39ZM487.239 77.414H487.673C488.303 77.414 488.821 77.26 489.255 76.966C489.675 76.672 489.885 76.28 489.885 75.818C489.885 74.768 489.059 74.236 487.421 74.236C485.853 74.236 484.999 74.81 484.999 75.818C484.999 76.728 485.937 77.414 487.239 77.414ZM487.645 78.52H487.295C486.539 78.52 485.909 78.688 485.419 79.01C484.929 79.332 484.677 79.738 484.677 80.228C484.677 81.292 485.657 81.964 487.435 81.964C489.241 81.964 490.207 81.32 490.207 80.242C490.207 79.164 489.171 78.52 487.645 78.52ZM490.403 82.37C489.689 82.874 488.695 83.126 487.449 83.126C486.203 83.126 485.209 82.874 484.481 82.384C483.753 81.894 483.389 81.222 483.389 80.354C483.389 79.22 484.131 78.324 485.321 77.932C484.243 77.582 483.711 76.728 483.711 75.734C483.711 74.11 485.083 73.074 487.435 73.074C489.801 73.074 491.173 74.11 491.173 75.734C491.173 76.672 490.655 77.386 489.619 77.862C490.865 78.24 491.481 79.052 491.481 80.298C491.481 81.18 491.117 81.88 490.403 82.37Z" fill="#1A3341"/>
<path d="M79 121H107C107.552 121 108 121.448 108 122V138C108 138.552 107.552 139 107 139H79V121Z" fill="url(#paint4_linear_6008_19113)"/>
<path d="M116.49 126.804L116.042 125.754L119.402 124.144H120.2V134H118.996V125.642L116.49 126.804ZM128.747 134H127.529V131.998H121.537V131.186L127.669 124.2H128.747V130.864H130.567V131.998H128.747V134ZM127.529 126.16L123.217 130.864H127.529V126.16ZM132.19 134C131.672 134.056 131.28 133.762 131.28 133.258C131.28 132.768 131.588 132.46 132.134 132.46C132.75 132.46 133.156 132.88 133.156 133.664C133.156 135.064 132.386 135.778 131.364 136.016L131.07 135.358C131.378 135.274 131.658 135.106 131.91 134.84C132.148 134.574 132.246 134.294 132.19 134ZM134.174 129.1C134.174 127.588 134.524 126.37 135.238 125.46C135.938 124.55 136.974 124.088 138.332 124.088C141.118 124.088 142.504 125.922 142.504 129.1C142.504 130.626 142.154 131.83 141.468 132.74C140.768 133.65 139.732 134.112 138.36 134.112C137.044 134.112 136.022 133.65 135.28 132.726C134.538 131.802 134.174 130.598 134.174 129.1ZM135.462 129.1C135.462 131.494 136.554 132.922 138.36 132.922C140.264 132.922 141.216 131.648 141.216 129.1C141.216 126.552 140.25 125.278 138.332 125.278C136.386 125.278 135.462 126.678 135.462 129.1ZM151.698 128.918C151.698 130.584 151.306 131.872 150.508 132.768C149.71 133.678 148.646 134.126 147.316 134.126C145.692 134.126 144.418 133.44 143.788 132.39L144.796 131.69C145.356 132.474 146.378 132.922 147.484 132.922C148.394 132.922 149.122 132.558 149.696 131.83C150.27 131.116 150.508 130.22 150.438 129.156C149.976 130.22 148.814 131.004 147.26 131.004C146.168 131.004 145.272 130.696 144.572 130.066C143.858 129.45 143.508 128.638 143.508 127.644C143.508 126.552 143.886 125.684 144.642 125.04C145.398 124.396 146.406 124.074 147.652 124.074C150.172 124.074 151.698 125.838 151.698 128.918ZM150.228 127.602C150.018 126.3 149.122 125.278 147.512 125.278C145.832 125.278 144.796 126.146 144.796 127.602C144.796 128.988 145.846 129.8 147.484 129.8C148.226 129.8 148.856 129.576 149.346 129.128C149.836 128.68 150.13 128.176 150.228 127.602ZM156.612 128.414H157.046C157.676 128.414 158.194 128.26 158.628 127.966C159.048 127.672 159.258 127.28 159.258 126.818C159.258 125.768 158.432 125.236 156.794 125.236C155.226 125.236 154.372 125.81 154.372 126.818C154.372 127.728 155.31 128.414 156.612 128.414ZM157.018 129.52H156.668C155.912 129.52 155.282 129.688 154.792 130.01C154.302 130.332 154.05 130.738 154.05 131.228C154.05 132.292 155.03 132.964 156.808 132.964C158.614 132.964 159.58 132.32 159.58 131.242C159.58 130.164 158.544 129.52 157.018 129.52ZM159.776 133.37C159.062 133.874 158.068 134.126 156.822 134.126C155.576 134.126 154.582 133.874 153.854 133.384C153.126 132.894 152.762 132.222 152.762 131.354C152.762 130.22 153.504 129.324 154.694 128.932C153.616 128.582 153.084 127.728 153.084 126.734C153.084 125.11 154.456 124.074 156.808 124.074C159.174 124.074 160.546 125.11 160.546 126.734C160.546 127.672 160.028 128.386 158.992 128.862C160.238 129.24 160.854 130.052 160.854 131.298C160.854 132.18 160.49 132.88 159.776 133.37Z" fill="#1A3341"/>
<path d="M79 145H201C201.552 145 202 145.448 202 146V162C202 162.552 201.552 163 201 163H79V145Z" fill="url(#paint5_linear_6008_19113)"/>
<path d="M212.03 153.492L211.022 153.226L211.596 148.2H217.756V149.39H212.674L212.31 152.022C212.8 151.658 213.542 151.476 214.536 151.476C215.684 151.476 216.58 151.784 217.238 152.386C217.882 153.002 218.204 153.786 218.204 154.752C218.204 155.718 217.84 156.53 217.126 157.16C216.398 157.804 215.488 158.126 214.41 158.126C212.576 158.126 211.05 157.258 210.42 155.732L211.54 155.256C211.946 156.194 212.996 156.936 214.41 156.936C216.02 156.936 216.916 156.012 216.916 154.794C216.916 153.492 215.866 152.652 214.2 152.652C213.304 152.652 212.576 152.932 212.03 153.492ZM227.415 152.918C227.415 154.584 227.023 155.872 226.225 156.768C225.427 157.678 224.363 158.126 223.033 158.126C221.409 158.126 220.135 157.44 219.505 156.39L220.513 155.69C221.073 156.474 222.095 156.922 223.201 156.922C224.111 156.922 224.839 156.558 225.413 155.83C225.987 155.116 226.225 154.22 226.155 153.156C225.693 154.22 224.531 155.004 222.977 155.004C221.885 155.004 220.989 154.696 220.289 154.066C219.575 153.45 219.225 152.638 219.225 151.644C219.225 150.552 219.603 149.684 220.359 149.04C221.115 148.396 222.123 148.074 223.369 148.074C225.889 148.074 227.415 149.838 227.415 152.918ZM225.945 151.602C225.735 150.3 224.839 149.278 223.229 149.278C221.549 149.278 220.513 150.146 220.513 151.602C220.513 152.988 221.563 153.8 223.201 153.8C223.943 153.8 224.573 153.576 225.063 153.128C225.553 152.68 225.847 152.176 225.945 151.602ZM229.403 158C228.885 158.056 228.493 157.762 228.493 157.258C228.493 156.768 228.801 156.46 229.347 156.46C229.963 156.46 230.369 156.88 230.369 157.664C230.369 159.064 229.599 159.778 228.577 160.016L228.283 159.358C228.591 159.274 228.871 159.106 229.123 158.84C229.361 158.574 229.459 158.294 229.403 158ZM238.149 158H236.931V155.998H230.939V155.186L237.071 148.2H238.149V154.864H239.969V155.998H238.149V158ZM236.931 150.16L232.619 154.864H236.931V150.16ZM248.801 152.918C248.801 154.584 248.409 155.872 247.611 156.768C246.813 157.678 245.749 158.126 244.419 158.126C242.795 158.126 241.521 157.44 240.891 156.39L241.899 155.69C242.459 156.474 243.481 156.922 244.587 156.922C245.497 156.922 246.225 156.558 246.799 155.83C247.373 155.116 247.611 154.22 247.541 153.156C247.079 154.22 245.917 155.004 244.363 155.004C243.271 155.004 242.375 154.696 241.675 154.066C240.961 153.45 240.611 152.638 240.611 151.644C240.611 150.552 240.989 149.684 241.745 149.04C242.501 148.396 243.509 148.074 244.755 148.074C247.275 148.074 248.801 149.838 248.801 152.918ZM247.331 151.602C247.121 150.3 246.225 149.278 244.615 149.278C242.935 149.278 241.899 150.146 241.899 151.602C241.899 152.988 242.949 153.8 244.587 153.8C245.329 153.8 245.959 153.576 246.449 153.128C246.939 152.68 247.233 152.176 247.331 151.602ZM256.613 158H255.395V155.998H249.403V155.186L255.535 148.2H256.613V154.864H258.433V155.998H256.613V158ZM255.395 150.16L251.083 154.864H255.395V150.16Z" fill="#1A3341"/>
<path d="M79 196H117C117.552 196 118 196.448 118 197V213C118 213.552 117.552 214 117 214H79V196Z" fill="url(#paint6_linear_6008_19113)"/>
<path d="M126.49 201.804L126.042 200.754L129.402 199.144H130.2V209H128.996V200.642L126.49 201.804ZM135.849 203.414H136.283C136.913 203.414 137.431 203.26 137.865 202.966C138.285 202.672 138.495 202.28 138.495 201.818C138.495 200.768 137.669 200.236 136.031 200.236C134.463 200.236 133.609 200.81 133.609 201.818C133.609 202.728 134.547 203.414 135.849 203.414ZM136.255 204.52H135.905C135.149 204.52 134.519 204.688 134.029 205.01C133.539 205.332 133.287 205.738 133.287 206.228C133.287 207.292 134.267 207.964 136.045 207.964C137.851 207.964 138.817 207.32 138.817 206.242C138.817 205.164 137.781 204.52 136.255 204.52ZM139.013 208.37C138.299 208.874 137.305 209.126 136.059 209.126C134.813 209.126 133.819 208.874 133.091 208.384C132.363 207.894 131.999 207.222 131.999 206.354C131.999 205.22 132.741 204.324 133.931 203.932C132.853 203.582 132.321 202.728 132.321 201.734C132.321 200.11 133.693 199.074 136.045 199.074C138.411 199.074 139.783 200.11 139.783 201.734C139.783 202.672 139.265 203.386 138.229 203.862C139.475 204.24 140.091 205.052 140.091 206.298C140.091 207.18 139.727 207.88 139.013 208.37ZM142.121 209C141.603 209.056 141.211 208.762 141.211 208.258C141.211 207.768 141.519 207.46 142.065 207.46C142.681 207.46 143.087 207.88 143.087 208.664C143.087 210.064 142.317 210.778 141.295 211.016L141.001 210.358C141.309 210.274 141.589 210.106 141.841 209.84C142.079 209.574 142.177 209.294 142.121 209ZM152.254 203.918C152.254 205.584 151.862 206.872 151.064 207.768C150.266 208.678 149.202 209.126 147.872 209.126C146.248 209.126 144.974 208.44 144.344 207.39L145.352 206.69C145.912 207.474 146.934 207.922 148.04 207.922C148.95 207.922 149.678 207.558 150.252 206.83C150.826 206.116 151.064 205.22 150.994 204.156C150.532 205.22 149.37 206.004 147.816 206.004C146.724 206.004 145.828 205.696 145.128 205.066C144.414 204.45 144.064 203.638 144.064 202.644C144.064 201.552 144.442 200.684 145.198 200.04C145.954 199.396 146.962 199.074 148.208 199.074C150.728 199.074 152.254 200.838 152.254 203.918ZM150.784 202.602C150.574 201.3 149.678 200.278 148.068 200.278C146.388 200.278 145.352 201.146 145.352 202.602C145.352 203.988 146.402 204.8 148.04 204.8C148.782 204.8 149.412 204.576 149.902 204.128C150.392 203.68 150.686 203.176 150.784 202.602ZM154.424 202.434L153.402 202.07C153.752 200.334 155.068 199.088 157.154 199.088C159.17 199.088 160.402 200.25 160.402 202.028C160.402 202.966 159.996 203.904 159.492 204.576C159.24 204.926 158.918 205.262 158.54 205.612C157.77 206.298 157.224 206.662 156.426 207.166L155.348 207.838H160.766V209H153.136V208.048L155.264 206.634C155.642 206.396 155.908 206.214 156.062 206.102C156.216 206.004 156.468 205.822 156.804 205.584C157.14 205.346 157.392 205.136 157.56 204.982C157.714 204.828 157.924 204.632 158.162 204.38C158.806 203.68 159.044 203.036 159.114 202.154C159.114 200.88 158.288 200.306 157.07 200.306C156.314 200.306 155.712 200.516 155.278 200.936C154.844 201.356 154.55 201.86 154.424 202.434ZM165.6 203.414H166.034C166.664 203.414 167.182 203.26 167.616 202.966C168.036 202.672 168.246 202.28 168.246 201.818C168.246 200.768 167.42 200.236 165.782 200.236C164.214 200.236 163.36 200.81 163.36 201.818C163.36 202.728 164.298 203.414 165.6 203.414ZM166.006 204.52H165.656C164.9 204.52 164.27 204.688 163.78 205.01C163.29 205.332 163.038 205.738 163.038 206.228C163.038 207.292 164.018 207.964 165.796 207.964C167.602 207.964 168.568 207.32 168.568 206.242C168.568 205.164 167.532 204.52 166.006 204.52ZM168.764 208.37C168.05 208.874 167.056 209.126 165.81 209.126C164.564 209.126 163.57 208.874 162.842 208.384C162.114 207.894 161.75 207.222 161.75 206.354C161.75 205.22 162.492 204.324 163.682 203.932C162.604 203.582 162.072 202.728 162.072 201.734C162.072 200.11 163.444 199.074 165.796 199.074C168.162 199.074 169.534 200.11 169.534 201.734C169.534 202.672 169.016 203.386 167.98 203.862C169.226 204.24 169.842 205.052 169.842 206.298C169.842 207.18 169.478 207.88 168.764 208.37Z" fill="#1A3341"/>
<path d="M79 220H132C132.552 220 133 220.448 133 221V237C133 237.552 132.552 238 132 238H79V220Z" fill="url(#paint7_linear_6008_19113)"/>
<path d="M142.722 226.434L141.7 226.07C142.05 224.334 143.366 223.088 145.452 223.088C147.468 223.088 148.7 224.25 148.7 226.028C148.7 226.966 148.294 227.904 147.79 228.576C147.538 228.926 147.216 229.262 146.838 229.612C146.068 230.298 145.522 230.662 144.724 231.166L143.646 231.838H149.064V233H141.434V232.048L143.562 230.634C143.94 230.396 144.206 230.214 144.36 230.102C144.514 230.004 144.766 229.822 145.102 229.584C145.438 229.346 145.69 229.136 145.858 228.982C146.012 228.828 146.222 228.632 146.46 228.38C147.104 227.68 147.342 227.036 147.412 226.154C147.412 224.88 146.586 224.306 145.368 224.306C144.612 224.306 144.01 224.516 143.576 224.936C143.142 225.356 142.848 225.86 142.722 226.434ZM151.462 228.492L150.454 228.226L151.028 223.2H157.188V224.39H152.106L151.742 227.022C152.232 226.658 152.974 226.476 153.968 226.476C155.116 226.476 156.012 226.784 156.67 227.386C157.314 228.002 157.636 228.786 157.636 229.752C157.636 230.718 157.272 231.53 156.558 232.16C155.83 232.804 154.92 233.126 153.842 233.126C152.008 233.126 150.482 232.258 149.852 230.732L150.972 230.256C151.378 231.194 152.428 231.936 153.842 231.936C155.452 231.936 156.348 231.012 156.348 229.794C156.348 228.492 155.298 227.652 153.632 227.652C152.736 227.652 152.008 227.932 151.462 228.492ZM159.637 233C159.119 233.056 158.727 232.762 158.727 232.258C158.727 231.768 159.035 231.46 159.581 231.46C160.197 231.46 160.603 231.88 160.603 232.664C160.603 234.064 159.833 234.778 158.811 235.016L158.517 234.358C158.825 234.274 159.105 234.106 159.357 233.84C159.595 233.574 159.693 233.294 159.637 233ZM163.049 228.492L162.041 228.226L162.615 223.2H168.775V224.39H163.693L163.329 227.022C163.819 226.658 164.561 226.476 165.555 226.476C166.703 226.476 167.599 226.784 168.257 227.386C168.901 228.002 169.223 228.786 169.223 229.752C169.223 230.718 168.859 231.53 168.145 232.16C167.417 232.804 166.507 233.126 165.429 233.126C163.595 233.126 162.069 232.258 161.439 230.732L162.559 230.256C162.965 231.194 164.015 231.936 165.429 231.936C167.039 231.936 167.935 231.012 167.935 229.794C167.935 228.492 166.885 227.652 165.219 227.652C164.323 227.652 163.595 227.932 163.049 228.492ZM171.714 228.492L170.706 228.226L171.28 223.2H177.44V224.39H172.358L171.994 227.022C172.484 226.658 173.226 226.476 174.22 226.476C175.368 226.476 176.264 226.784 176.922 227.386C177.566 228.002 177.888 228.786 177.888 229.752C177.888 230.718 177.524 231.53 176.81 232.16C176.082 232.804 175.172 233.126 174.094 233.126C172.26 233.126 170.734 232.258 170.104 230.732L171.224 230.256C171.63 231.194 172.68 231.936 174.094 231.936C175.704 231.936 176.6 231.012 176.6 229.794C176.6 228.492 175.55 227.652 173.884 227.652C172.988 227.652 172.26 227.932 171.714 228.492ZM178.951 228.1C178.951 226.588 179.301 225.37 180.015 224.46C180.715 223.55 181.751 223.088 183.109 223.088C185.895 223.088 187.281 224.922 187.281 228.1C187.281 229.626 186.931 230.83 186.245 231.74C185.545 232.65 184.509 233.112 183.137 233.112C181.821 233.112 180.799 232.65 180.057 231.726C179.315 230.802 178.951 229.598 178.951 228.1ZM180.239 228.1C180.239 230.494 181.331 231.922 183.137 231.922C185.041 231.922 185.993 230.648 185.993 228.1C185.993 225.552 185.027 224.278 183.109 224.278C181.163 224.278 180.239 225.678 180.239 228.1Z" fill="#1A3341"/>
<line x1="79.5" y1="32" x2="79.5" y2="262" stroke="#ABBEC9"/>
<path d="M199.196 224L194 232L204.393 232L199.196 224Z" fill="#737AF9"/>
<path d="M280.765 151.056L279.715 150.58C280.233 149.068 281.591 148.074 283.621 148.074C284.587 148.074 285.385 148.298 286.001 148.746C286.617 149.194 286.925 149.796 286.925 150.538C286.925 151.672 286.323 152.512 285.203 152.834C286.281 152.904 287.149 153.716 287.149 155.172C287.149 156.096 286.813 156.824 286.141 157.342C285.469 157.86 284.615 158.126 283.565 158.126C281.423 158.126 279.939 157.104 279.449 155.494L280.583 155.004C281.185 156.278 282.207 156.922 283.649 156.922C285.007 156.922 285.861 156.292 285.861 155.186C285.861 154.108 285.021 153.562 283.341 153.562H282.249V152.4H283.117C284.643 152.4 285.637 151.714 285.637 150.776C285.637 149.81 284.839 149.264 283.565 149.264C282.067 149.264 281.157 150.034 280.765 151.056ZM289.42 151.434L288.398 151.07C288.748 149.334 290.064 148.088 292.15 148.088C294.166 148.088 295.398 149.25 295.398 151.028C295.398 151.966 294.992 152.904 294.488 153.576C294.236 153.926 293.914 154.262 293.536 154.612C292.766 155.298 292.22 155.662 291.422 156.166L290.344 156.838H295.762V158H288.132V157.048L290.26 155.634C290.638 155.396 290.904 155.214 291.058 155.102C291.212 155.004 291.464 154.822 291.8 154.584C292.136 154.346 292.388 154.136 292.556 153.982C292.71 153.828 292.92 153.632 293.158 153.38C293.802 152.68 294.04 152.036 294.11 151.154C294.11 149.88 293.284 149.306 292.066 149.306C291.31 149.306 290.708 149.516 290.274 149.936C289.84 150.356 289.546 150.86 289.42 151.434ZM297.852 151.434L296.83 151.07C297.18 149.334 298.496 148.088 300.582 148.088C302.598 148.088 303.83 149.25 303.83 151.028C303.83 151.966 303.424 152.904 302.92 153.576C302.668 153.926 302.346 154.262 301.968 154.612C301.198 155.298 300.652 155.662 299.854 156.166L298.776 156.838H304.194V158H296.564V157.048L298.692 155.634C299.07 155.396 299.336 155.214 299.49 155.102C299.644 155.004 299.896 154.822 300.232 154.584C300.568 154.346 300.82 154.136 300.988 153.982C301.142 153.828 301.352 153.632 301.59 153.38C302.234 152.68 302.472 152.036 302.542 151.154C302.542 149.88 301.716 149.306 300.498 149.306C299.742 149.306 299.14 149.516 298.706 149.936C298.272 150.356 297.978 150.86 297.852 151.434ZM307.6 158.21L306.676 157.678L313.914 147.892L314.796 148.536L307.6 158.21ZM305.164 150.552C305.164 149.852 305.402 149.278 305.892 148.83C306.382 148.382 306.984 148.158 307.726 148.158C308.454 148.158 309.056 148.382 309.546 148.83C310.036 149.278 310.274 149.852 310.274 150.552C310.274 151.238 310.036 151.812 309.546 152.26C309.056 152.708 308.454 152.932 307.726 152.932C306.984 152.932 306.382 152.708 305.892 152.26C305.402 151.812 305.164 151.238 305.164 150.552ZM306.34 150.552C306.34 151.35 306.984 151.938 307.726 151.938C308.496 151.938 309.098 151.378 309.098 150.552C309.098 149.726 308.468 149.166 307.726 149.166C306.956 149.166 306.34 149.726 306.34 150.552ZM311.898 157.384C311.408 156.936 311.17 156.362 311.17 155.662C311.17 154.962 311.408 154.388 311.898 153.94C312.388 153.506 312.99 153.282 313.732 153.282C314.46 153.282 315.062 153.506 315.552 153.94C316.042 154.388 316.28 154.962 316.28 155.662C316.28 156.348 316.042 156.922 315.552 157.37C315.062 157.832 314.46 158.056 313.732 158.056C312.99 158.056 312.388 157.832 311.898 157.384ZM312.346 155.662C312.346 156.46 312.99 157.048 313.732 157.048C314.502 157.048 315.104 156.488 315.104 155.662C315.104 154.836 314.474 154.276 313.732 154.276C312.962 154.276 312.346 154.836 312.346 155.662Z" fill="#737AF9"/>
<path d="M270.196 149L265 157L275.393 157L270.196 149Z" fill="#737AF9"/>
<path d="M209.765 226.056L208.715 225.58C209.233 224.068 210.591 223.074 212.621 223.074C213.587 223.074 214.385 223.298 215.001 223.746C215.617 224.194 215.925 224.796 215.925 225.538C215.925 226.672 215.323 227.512 214.203 227.834C215.281 227.904 216.149 228.716 216.149 230.172C216.149 231.096 215.813 231.824 215.141 232.342C214.469 232.86 213.615 233.126 212.565 233.126C210.423 233.126 208.939 232.104 208.449 230.494L209.583 230.004C210.185 231.278 211.207 231.922 212.649 231.922C214.007 231.922 214.861 231.292 214.861 230.186C214.861 229.108 214.021 228.562 212.341 228.562H211.249V227.4H212.117C213.643 227.4 214.637 226.714 214.637 225.776C214.637 224.81 213.839 224.264 212.565 224.264C211.067 224.264 210.157 225.034 209.765 226.056ZM218.728 228.492L217.72 228.226L218.294 223.2H224.454V224.39H219.372L219.008 227.022C219.498 226.658 220.24 226.476 221.234 226.476C222.382 226.476 223.278 226.784 223.936 227.386C224.58 228.002 224.902 228.786 224.902 229.752C224.902 230.718 224.538 231.53 223.824 232.16C223.096 232.804 222.186 233.126 221.108 233.126C219.274 233.126 217.748 232.258 217.118 230.732L218.238 230.256C218.644 231.194 219.694 231.936 221.108 231.936C222.718 231.936 223.614 231.012 223.614 229.794C223.614 228.492 222.564 227.652 220.898 227.652C220.002 227.652 219.274 227.932 218.728 228.492ZM228.401 233.21L227.477 232.678L234.715 222.892L235.597 223.536L228.401 233.21ZM225.965 225.552C225.965 224.852 226.203 224.278 226.693 223.83C227.183 223.382 227.785 223.158 228.527 223.158C229.255 223.158 229.857 223.382 230.347 223.83C230.837 224.278 231.075 224.852 231.075 225.552C231.075 226.238 230.837 226.812 230.347 227.26C229.857 227.708 229.255 227.932 228.527 227.932C227.785 227.932 227.183 227.708 226.693 227.26C226.203 226.812 225.965 226.238 225.965 225.552ZM227.141 225.552C227.141 226.35 227.785 226.938 228.527 226.938C229.297 226.938 229.899 226.378 229.899 225.552C229.899 224.726 229.269 224.166 228.527 224.166C227.757 224.166 227.141 224.726 227.141 225.552ZM232.699 232.384C232.209 231.936 231.971 231.362 231.971 230.662C231.971 229.962 232.209 229.388 232.699 228.94C233.189 228.506 233.791 228.282 234.533 228.282C235.261 228.282 235.863 228.506 236.353 228.94C236.843 229.388 237.081 229.962 237.081 230.662C237.081 231.348 236.843 231.922 236.353 232.37C235.863 232.832 235.261 233.056 234.533 233.056C233.791 233.056 233.189 232.832 232.699 232.384ZM233.147 230.662C233.147 231.46 233.791 232.048 234.533 232.048C235.303 232.048 235.905 231.488 235.905 230.662C235.905 229.836 235.275 229.276 234.533 229.276C233.763 229.276 233.147 229.836 233.147 230.662Z" fill="#737AF9"/>
<path d="M506.196 74L501 82L511.393 82L506.196 74Z" fill="#737AF9"/>
<defs>
<linearGradient id="paint0_linear_6008_19113" x1="6" y1="2" x2="6" y2="12" gradientUnits="userSpaceOnUse">
<stop stop-color="#CDE3E9"/>
<stop offset="1" stop-color="#D3E8ED"/>
</linearGradient>
<linearGradient id="paint1_linear_6008_19113" x1="90" y1="2" x2="90" y2="12" gradientUnits="userSpaceOnUse">
<stop stop-color="#6D73F9"/>
<stop offset="1" stop-color="#9BB8F1"/>
</linearGradient>
<linearGradient id="paint2_linear_6008_19113" x1="91.8571" y1="64" x2="349" y2="64" gradientUnits="userSpaceOnUse">
<stop stop-color="#CEE8EF"/>
<stop offset="1" stop-color="#CEE8EF"/>
</linearGradient>
<linearGradient id="paint3_linear_6008_19113" x1="432" y1="79" x2="79" y2="79" gradientUnits="userSpaceOnUse">
<stop stop-color="#6D73F9"/>
<stop offset="1" stop-color="#9BB8F1"/>
</linearGradient>
<linearGradient id="paint4_linear_6008_19113" x1="80.381" y1="139" x2="108" y2="139" gradientUnits="userSpaceOnUse">
<stop stop-color="#CEE8EF"/>
<stop offset="1" stop-color="#CEE8EF"/>
</linearGradient>
<linearGradient id="paint5_linear_6008_19113" x1="202" y1="154" x2="79" y2="154" gradientUnits="userSpaceOnUse">
<stop stop-color="#6D73F9"/>
<stop offset="1" stop-color="#9BB8F1"/>
</linearGradient>
<linearGradient id="paint6_linear_6008_19113" x1="80.8571" y1="214" x2="118" y2="214" gradientUnits="userSpaceOnUse">
<stop stop-color="#CEE8EF"/>
<stop offset="1" stop-color="#CEE8EF"/>
</linearGradient>
<linearGradient id="paint7_linear_6008_19113" x1="133" y1="229" x2="79" y2="229" gradientUnits="userSpaceOnUse">
<stop stop-color="#6D73F9"/>
<stop offset="1" stop-color="#9BB8F1"/>
</linearGradient>
</defs>
</svg>
