<svg width="335" height="805" viewBox="0 0 335 805" fill="none" xmlns="http://www.w3.org/2000/svg">
<rect y="2.58203" width="10" height="10" fill="url(#paint0_linear_2355_51966)"/>
<path d="M25.044 11.582H18.888V3.18203H24.936V4.20203H19.98V6.81803H24.6V7.81403H19.98V10.562H25.044V11.582ZM32.3486 3.18203H33.4406V8.03003C33.4406 9.24203 33.1046 10.142 32.4326 10.754C31.7606 11.366 30.9566 11.678 30.0086 11.678C28.9646 11.678 28.1006 11.354 27.4046 10.706C26.7086 10.058 26.3606 9.14603 26.3606 7.95803V3.18203H27.4526V7.80203C27.4526 8.70203 27.6926 9.39803 28.1846 9.89003C28.6646 10.394 29.2766 10.646 30.0086 10.646C31.5326 10.646 32.3486 9.59003 32.3486 7.86203V3.18203ZM41.3159 13.334L40.6319 14.03C39.7439 13.262 39.0959 12.386 38.6879 11.402C38.2799 10.418 38.0759 9.44603 38.0759 8.47403C38.0759 6.55403 38.8319 4.52603 40.6439 2.90603L41.3039 3.60203C39.8399 4.97003 39.1079 6.59003 39.1079 8.47403C39.1079 10.262 39.9239 11.99 41.3159 13.334ZM42.7968 5.95403L41.9208 5.64203C42.2208 4.15403 43.3488 3.08603 45.1368 3.08603C46.8648 3.08603 47.9208 4.08203 47.9208 5.60603C47.9208 6.41003 47.5728 7.21403 47.1408 7.79003C46.9248 8.09003 46.6488 8.37803 46.3248 8.67803C45.6648 9.26603 45.1968 9.57803 44.5128 10.01L43.5888 10.586H48.2328V11.582H41.6928V10.766L43.5168 9.55403C43.8408 9.35003 44.0688 9.19403 44.2008 9.09803C44.3328 9.01403 44.5488 8.85803 44.8368 8.65403C45.1248 8.45003 45.3408 8.27003 45.4848 8.13803C45.6168 8.00603 45.7968 7.83803 46.0008 7.62203C46.5528 7.02203 46.7568 6.47003 46.8168 5.71403C46.8168 4.62203 46.1088 4.13003 45.0648 4.13003C44.4168 4.13003 43.9008 4.31003 43.5288 4.67003C43.1568 5.03003 42.9048 5.46203 42.7968 5.95403ZM53.8764 4.20203H48.7884V3.18203H55.1604V3.86603L50.9844 11.582H49.8444L53.8764 4.20203ZM64.3296 9.78203L65.0496 10.298C64.5816 11.174 63.5256 11.69 62.4816 11.69C61.4856 11.69 60.6816 11.39 60.0696 10.802C59.4576 10.214 59.1456 9.43403 59.1456 8.45003C59.1456 7.51403 59.4456 6.73403 60.0576 6.12203C60.6696 5.51003 61.4496 5.19803 62.4216 5.19803C63.5376 5.19803 64.5336 5.70203 64.9536 6.47003L64.1736 6.99803C63.7536 6.43403 63.1776 6.14603 62.4456 6.14603C61.7976 6.14603 61.2696 6.36203 60.8496 6.79403C60.4296 7.22603 60.2136 7.77803 60.2136 8.45003C60.2136 9.13403 60.4296 9.68603 60.8736 10.106C61.3056 10.526 61.8696 10.742 62.5776 10.742C63.3216 10.742 63.9096 10.418 64.3296 9.78203ZM65.3537 8.45003C65.3537 7.50203 65.6657 6.72203 66.2777 6.11003C66.8897 5.49803 67.6817 5.19803 68.6537 5.19803C69.6377 5.19803 70.4417 5.49803 71.0537 6.11003C71.6657 6.72203 71.9777 7.50203 71.9777 8.45003C71.9777 9.39803 71.6657 10.166 71.0537 10.778C70.4297 11.39 69.6257 11.69 68.6537 11.69C67.6817 11.69 66.8897 11.39 66.2777 10.778C65.6657 10.166 65.3537 9.39803 65.3537 8.45003ZM66.4217 8.45003C66.4217 9.11003 66.6257 9.66203 67.0457 10.094C67.4657 10.526 67.9937 10.742 68.6537 10.742C69.3137 10.742 69.8657 10.526 70.2857 10.106C70.7057 9.68603 70.9097 9.13403 70.9097 8.45003C70.9097 7.76603 70.6937 7.21403 70.2737 6.78203C69.8417 6.36203 69.3017 6.14603 68.6537 6.14603C68.0057 6.14603 67.4777 6.36203 67.0577 6.78203C66.6377 7.20203 66.4217 7.76603 66.4217 8.45003ZM77.4882 5.30603H78.4962V11.582H77.4882V10.694C77.0082 11.354 76.3362 11.69 75.4602 11.69C73.7322 11.69 72.8922 10.826 72.8922 8.91803V5.30603H73.9002V8.77403C73.9002 10.082 74.4522 10.742 75.5442 10.742C76.4082 10.742 77.1042 10.25 77.4882 9.38603V5.30603ZM80.8369 11.582H79.8289V5.34203H80.8369V6.15803C81.2329 5.54603 82.0489 5.21003 82.9729 5.21003C84.6649 5.21003 85.5049 6.14603 85.5049 8.03003V11.582H84.4969V8.15003C84.4969 6.77003 83.9089 6.15803 82.6729 6.15803C81.9049 6.15803 81.1729 6.66203 80.8369 7.41803V11.582ZM87.4113 6.30203H86.1153V5.34203H87.4113V3.74603H88.4193V5.34203H90.5673V6.30203H88.4193V9.05003C88.4193 10.262 88.7313 10.706 89.4993 10.706C89.8713 10.706 90.2553 10.562 90.6273 10.262L91.0833 11.006C90.6873 11.45 90.0993 11.666 89.3193 11.666C88.0833 11.666 87.4113 10.85 87.4113 9.31403V6.30203ZM92.7023 11.582H91.6943V5.34203H92.7023V5.82203C92.9063 5.40203 93.4463 5.21003 93.9863 5.21003C94.5383 5.21003 94.9583 5.40203 95.2583 5.77403L94.6223 6.47003C94.4663 6.26603 94.2263 6.15803 93.8783 6.15803C93.3383 6.15803 92.8463 6.60203 92.7023 7.23803V11.582ZM96.9565 11.582H95.9485V5.34203H96.9565V11.582ZM95.8165 3.31403C95.8165 2.97803 96.0925 2.72603 96.4645 2.72603C96.8005 2.72603 97.0885 2.97803 97.0885 3.31403C97.0885 3.66203 96.8005 3.93803 96.4645 3.93803C96.0925 3.93803 95.8165 3.66203 95.8165 3.31403ZM103.251 9.79403L103.899 10.394C103.323 11.258 102.495 11.69 101.403 11.69C100.407 11.69 99.603 11.39 98.991 10.802C98.379 10.214 98.079 9.43403 98.079 8.45003C98.079 7.50203 98.355 6.72203 98.919 6.11003C99.471 5.49803 100.251 5.19803 101.259 5.19803C102.087 5.19803 102.783 5.46203 103.323 5.97803C103.863 6.49403 104.139 7.17803 104.139 8.03003C104.139 8.30603 104.115 8.55803 104.079 8.78603H99.159C99.219 10.022 100.131 10.742 101.439 10.742C102.171 10.742 102.867 10.358 103.251 9.79403ZM101.187 6.12203C100.047 6.12203 99.303 6.81803 99.147 7.87403H103.071C103.011 6.77003 102.303 6.12203 101.187 6.12203ZM108.967 9.87803C108.967 9.03803 107.539 8.90603 106.399 8.58203C105.619 8.35403 104.995 7.83803 104.995 6.98603C104.995 5.88203 106.039 5.19803 107.587 5.19803C108.631 5.19803 109.471 5.64203 109.915 6.27803L109.207 6.93803C108.811 6.41003 108.211 6.14603 107.407 6.14603C106.687 6.14603 106.063 6.42203 106.063 6.93803C106.063 7.67003 107.491 7.80203 108.631 8.15003C109.399 8.39003 110.023 8.96603 110.023 9.86603C110.023 11.078 109.051 11.69 107.527 11.69C106.243 11.69 105.151 11.114 104.707 10.214L105.511 9.65003C105.883 10.31 106.735 10.742 107.695 10.742C108.547 10.742 108.967 10.454 108.967 9.87803ZM111.056 14.018L110.372 13.358C111.092 12.722 111.644 11.978 112.016 11.09C112.388 10.214 112.568 9.35003 112.568 8.47403C112.568 6.59003 111.836 4.97003 110.372 3.61403L111.044 2.90603C112.856 4.52603 113.6 6.55403 113.6 8.47403C113.6 9.44603 113.396 10.418 113 11.402C112.592 12.386 111.944 13.262 111.056 14.018Z" fill="#76848D"/>
<rect y="26.582" width="10" height="10" fill="#737AF9"/>
<path d="M25.044 35.582H18.888V27.182H24.936V28.202H19.98V30.818H24.6V31.814H19.98V34.562H25.044V35.582ZM30.7646 29.306H31.7726V35.582H30.7646V34.694C30.2846 35.354 29.6126 35.69 28.7366 35.69C27.0086 35.69 26.1686 34.826 26.1686 32.918V29.306H27.1766V32.774C27.1766 34.082 27.7286 34.742 28.8206 34.742C29.6846 34.742 30.3806 34.25 30.7646 33.386V29.306ZM34.1133 35.582H33.1053V29.342H34.1133V29.822C34.3173 29.402 34.8573 29.21 35.3973 29.21C35.9493 29.21 36.3693 29.402 36.6693 29.774L36.0333 30.47C35.8773 30.266 35.6373 30.158 35.2893 30.158C34.7493 30.158 34.2573 30.602 34.1133 31.238V35.582ZM36.5162 32.45C36.5162 31.502 36.8282 30.722 37.4402 30.11C38.0522 29.498 38.8442 29.198 39.8162 29.198C40.8002 29.198 41.6042 29.498 42.2162 30.11C42.8282 30.722 43.1402 31.502 43.1402 32.45C43.1402 33.398 42.8282 34.166 42.2162 34.778C41.5922 35.39 40.7882 35.69 39.8162 35.69C38.8442 35.69 38.0522 35.39 37.4402 34.778C36.8282 34.166 36.5162 33.398 36.5162 32.45ZM37.5842 32.45C37.5842 33.11 37.7882 33.662 38.2082 34.094C38.6282 34.526 39.1562 34.742 39.8162 34.742C40.4762 34.742 41.0282 34.526 41.4482 34.106C41.8682 33.686 42.0722 33.134 42.0722 32.45C42.0722 31.766 41.8562 31.214 41.4362 30.782C41.0042 30.362 40.4642 30.146 39.8162 30.146C39.1682 30.146 38.6402 30.362 38.2202 30.782C37.8002 31.202 37.5842 31.766 37.5842 32.45ZM47.2549 30.29H43.4989V29.342H48.7789V30.002L44.8309 34.634H48.7069V35.582H43.3069V34.91L47.2549 30.29ZM49.0027 32.45C49.0027 31.502 49.3147 30.722 49.9267 30.11C50.5387 29.498 51.3307 29.198 52.3027 29.198C53.2867 29.198 54.0907 29.498 54.7027 30.11C55.3147 30.722 55.6268 31.502 55.6268 32.45C55.6268 33.398 55.3147 34.166 54.7027 34.778C54.0787 35.39 53.2747 35.69 52.3027 35.69C51.3307 35.69 50.5387 35.39 49.9267 34.778C49.3147 34.166 49.0027 33.398 49.0027 32.45ZM50.0707 32.45C50.0707 33.11 50.2747 33.662 50.6947 34.094C51.1147 34.526 51.6427 34.742 52.3027 34.742C52.9627 34.742 53.5147 34.526 53.9347 34.106C54.3547 33.686 54.5588 33.134 54.5588 32.45C54.5588 31.766 54.3427 31.214 53.9227 30.782C53.4907 30.362 52.9507 30.146 52.3027 30.146C51.6547 30.146 51.1267 30.362 50.7067 30.782C50.2867 31.202 50.0707 31.766 50.0707 32.45ZM57.6333 35.582H56.6253V29.342H57.6333V30.158C58.0293 29.546 58.8453 29.21 59.7693 29.21C61.4613 29.21 62.3013 30.146 62.3013 32.03V35.582H61.2933V32.15C61.2933 30.77 60.7053 30.158 59.4693 30.158C58.7013 30.158 57.9693 30.662 57.6333 31.418V35.582ZM68.3957 33.794L69.0437 34.394C68.4677 35.258 67.6397 35.69 66.5477 35.69C65.5517 35.69 64.7477 35.39 64.1357 34.802C63.5237 34.214 63.2237 33.434 63.2237 32.45C63.2237 31.502 63.4997 30.722 64.0637 30.11C64.6157 29.498 65.3957 29.198 66.4037 29.198C67.2317 29.198 67.9277 29.462 68.4677 29.978C69.0077 30.494 69.2837 31.178 69.2837 32.03C69.2837 32.306 69.2597 32.558 69.2237 32.786H64.3037C64.3637 34.022 65.2757 34.742 66.5837 34.742C67.3157 34.742 68.0117 34.358 68.3957 33.794ZM66.3317 30.122C65.1917 30.122 64.4477 30.818 64.2917 31.874H68.2157C68.1557 30.77 67.4477 30.122 66.3317 30.122ZM76.7014 37.334L76.0174 38.03C75.1294 37.262 74.4814 36.386 74.0734 35.402C73.6654 34.418 73.4614 33.446 73.4614 32.474C73.4614 30.554 74.2174 28.526 76.0294 26.906L76.6894 27.602C75.2254 28.97 74.4934 30.59 74.4934 32.474C74.4934 34.262 75.3094 35.99 76.7014 37.334ZM77.1262 29.414L76.7422 28.514L79.6222 27.134H80.3062V35.582H79.2742V28.418L77.1262 29.414ZM88.8206 31.226C88.8206 32.654 88.4846 33.758 87.8006 34.526C87.1166 35.306 86.2046 35.69 85.0646 35.69C83.6726 35.69 82.5806 35.102 82.0406 34.202L82.9046 33.602C83.3846 34.274 84.2606 34.658 85.2086 34.658C85.9886 34.658 86.6126 34.346 87.1046 33.722C87.5966 33.11 87.8006 32.342 87.7406 31.43C87.3446 32.342 86.3486 33.014 85.0166 33.014C84.0806 33.014 83.3126 32.75 82.7126 32.21C82.1006 31.682 81.8006 30.986 81.8006 30.134C81.8006 29.198 82.1246 28.454 82.7726 27.902C83.4206 27.35 84.2846 27.074 85.3526 27.074C87.5126 27.074 88.8206 28.586 88.8206 31.226ZM87.5606 30.098C87.3806 28.982 86.6126 28.106 85.2326 28.106C83.7926 28.106 82.9046 28.85 82.9046 30.098C82.9046 31.286 83.8046 31.982 85.2086 31.982C85.8446 31.982 86.3846 31.79 86.8046 31.406C87.2246 31.022 87.4766 30.59 87.5606 30.098ZM98.2502 33.782L98.9702 34.298C98.5022 35.174 97.4462 35.69 96.4022 35.69C95.4062 35.69 94.6022 35.39 93.9902 34.802C93.3782 34.214 93.0662 33.434 93.0662 32.45C93.0662 31.514 93.3662 30.734 93.9782 30.122C94.5902 29.51 95.3702 29.198 96.3422 29.198C97.4582 29.198 98.4542 29.702 98.8742 30.47L98.0942 30.998C97.6742 30.434 97.0982 30.146 96.3662 30.146C95.7182 30.146 95.1902 30.362 94.7702 30.794C94.3502 31.226 94.1342 31.778 94.1342 32.45C94.1342 33.134 94.3502 33.686 94.7942 34.106C95.2262 34.526 95.7902 34.742 96.4982 34.742C97.2422 34.742 97.8302 34.418 98.2502 33.782ZM99.2743 32.45C99.2743 31.502 99.5863 30.722 100.198 30.11C100.81 29.498 101.602 29.198 102.574 29.198C103.558 29.198 104.362 29.498 104.974 30.11C105.586 30.722 105.898 31.502 105.898 32.45C105.898 33.398 105.586 34.166 104.974 34.778C104.35 35.39 103.546 35.69 102.574 35.69C101.602 35.69 100.81 35.39 100.198 34.778C99.5863 34.166 99.2743 33.398 99.2743 32.45ZM100.342 32.45C100.342 33.11 100.546 33.662 100.966 34.094C101.386 34.526 101.914 34.742 102.574 34.742C103.234 34.742 103.786 34.526 104.206 34.106C104.626 33.686 104.83 33.134 104.83 32.45C104.83 31.766 104.614 31.214 104.194 30.782C103.762 30.362 103.222 30.146 102.574 30.146C101.926 30.146 101.398 30.362 100.978 30.782C100.558 31.202 100.342 31.766 100.342 32.45ZM111.409 29.306H112.417V35.582H111.409V34.694C110.929 35.354 110.257 35.69 109.381 35.69C107.653 35.69 106.813 34.826 106.813 32.918V29.306H107.821V32.774C107.821 34.082 108.373 34.742 109.465 34.742C110.329 34.742 111.025 34.25 111.409 33.386V29.306ZM114.758 35.582H113.75V29.342H114.758V30.158C115.154 29.546 115.97 29.21 116.894 29.21C118.586 29.21 119.426 30.146 119.426 32.03V35.582H118.418V32.15C118.418 30.77 117.83 30.158 116.594 30.158C115.826 30.158 115.094 30.662 114.758 31.418V35.582ZM121.332 30.302H120.036V29.342H121.332V27.746H122.34V29.342H124.488V30.302H122.34V33.05C122.34 34.262 122.652 34.706 123.42 34.706C123.792 34.706 124.176 34.562 124.548 34.262L125.004 35.006C124.608 35.45 124.02 35.666 123.24 35.666C122.004 35.666 121.332 34.85 121.332 33.314V30.302ZM126.623 35.582H125.615V29.342H126.623V29.822C126.827 29.402 127.367 29.21 127.907 29.21C128.459 29.21 128.879 29.402 129.179 29.774L128.543 30.47C128.387 30.266 128.147 30.158 127.799 30.158C127.259 30.158 126.767 30.602 126.623 31.238V35.582ZM130.877 35.582H129.869V29.342H130.877V35.582ZM129.737 27.314C129.737 26.978 130.013 26.726 130.385 26.726C130.721 26.726 131.009 26.978 131.009 27.314C131.009 27.662 130.721 27.938 130.385 27.938C130.013 27.938 129.737 27.662 129.737 27.314ZM137.172 33.794L137.82 34.394C137.244 35.258 136.416 35.69 135.324 35.69C134.328 35.69 133.524 35.39 132.912 34.802C132.3 34.214 132 33.434 132 32.45C132 31.502 132.276 30.722 132.84 30.11C133.392 29.498 134.172 29.198 135.18 29.198C136.008 29.198 136.704 29.462 137.244 29.978C137.784 30.494 138.06 31.178 138.06 32.03C138.06 32.306 138.036 32.558 138 32.786H133.08C133.14 34.022 134.052 34.742 135.36 34.742C136.092 34.742 136.788 34.358 137.172 33.794ZM135.108 30.122C133.968 30.122 133.224 30.818 133.068 31.874H136.992C136.932 30.77 136.224 30.122 135.108 30.122ZM142.888 33.878C142.888 33.038 141.46 32.906 140.32 32.582C139.54 32.354 138.916 31.838 138.916 30.986C138.916 29.882 139.96 29.198 141.508 29.198C142.552 29.198 143.392 29.642 143.836 30.278L143.128 30.938C142.732 30.41 142.132 30.146 141.328 30.146C140.608 30.146 139.984 30.422 139.984 30.938C139.984 31.67 141.412 31.802 142.552 32.15C143.32 32.39 143.944 32.966 143.944 33.866C143.944 35.078 142.972 35.69 141.448 35.69C140.164 35.69 139.072 35.114 138.628 34.214L139.432 33.65C139.804 34.31 140.656 34.742 141.616 34.742C142.468 34.742 142.888 34.454 142.888 33.878ZM144.977 38.018L144.293 37.358C145.013 36.722 145.565 35.978 145.937 35.09C146.309 34.214 146.489 33.35 146.489 32.474C146.489 30.59 145.757 28.97 144.293 27.614L144.965 26.906C146.777 28.526 147.521 30.554 147.521 32.474C147.521 33.446 147.317 34.418 146.921 35.402C146.513 36.386 145.865 37.262 144.977 38.018Z" fill="#76848D"/>
<path d="M198.146 746.682C198.146 745.17 198.496 743.952 199.21 743.042C199.91 742.132 200.946 741.67 202.304 741.67C205.09 741.67 206.476 743.504 206.476 746.682C206.476 748.208 206.126 749.412 205.44 750.322C204.74 751.232 203.704 751.694 202.332 751.694C201.016 751.694 199.994 751.232 199.252 750.308C198.51 749.384 198.146 748.18 198.146 746.682ZM199.434 746.682C199.434 749.076 200.526 750.504 202.332 750.504C204.236 750.504 205.188 749.23 205.188 746.682C205.188 744.134 204.222 742.86 202.304 742.86C200.358 742.86 199.434 744.26 199.434 746.682ZM207.62 750.784C207.62 750.392 207.984 750 208.488 750C208.95 750 209.328 750.392 209.328 750.784C209.328 751.232 208.978 751.61 208.488 751.61C207.984 751.61 207.62 751.232 207.62 750.784ZM211.605 745.016L210.583 744.652C210.933 742.916 212.249 741.67 214.335 741.67C216.351 741.67 217.583 742.832 217.583 744.61C217.583 745.548 217.177 746.486 216.673 747.158C216.421 747.508 216.099 747.844 215.721 748.194C214.951 748.88 214.405 749.244 213.607 749.748L212.529 750.42H217.947V751.582H210.317V750.63L212.445 749.216C212.823 748.978 213.089 748.796 213.243 748.684C213.397 748.586 213.649 748.404 213.985 748.166C214.321 747.928 214.573 747.718 214.741 747.564C214.895 747.41 215.105 747.214 215.343 746.962C215.987 746.262 216.225 745.618 216.295 744.736C216.295 743.462 215.469 742.888 214.251 742.888C213.495 742.888 212.893 743.098 212.459 743.518C212.025 743.938 211.731 744.442 211.605 745.016Z" fill="#1A3341"/>
<path d="M184 763.582C184 762.477 184.895 761.582 186 761.582H230C231.105 761.582 232 762.477 232 763.582V769.582H184V763.582Z" fill="url(#paint1_linear_2355_51966)"/>
<path opacity="0.2" d="M196 761.582H220V769.582H196V761.582Z" fill="url(#paint2_linear_2355_51966)"/>
<path opacity="0.04" d="M220 761.582H230C231.105 761.582 232 762.477 232 763.582V769.582H220V761.582Z" fill="#0D262C"/>
<path opacity="0.5" d="M184 763.582C184 762.477 184.895 761.582 186 761.582H196V769.582H184V763.582Z" fill="url(#paint3_linear_2355_51966)"/>
<path d="M255.671 750.682C255.671 749.17 256.021 747.952 256.735 747.042C257.435 746.132 258.471 745.67 259.829 745.67C262.615 745.67 264.001 747.504 264.001 750.682C264.001 752.208 263.651 753.412 262.965 754.322C262.265 755.232 261.229 755.694 259.857 755.694C258.541 755.694 257.519 755.232 256.777 754.308C256.035 753.384 255.671 752.18 255.671 750.682ZM256.959 750.682C256.959 753.076 258.051 754.504 259.857 754.504C261.761 754.504 262.713 753.23 262.713 750.682C262.713 748.134 261.747 746.86 259.829 746.86C257.883 746.86 256.959 748.26 256.959 750.682ZM265.144 754.784C265.144 754.392 265.508 754 266.012 754C266.474 754 266.852 754.392 266.852 754.784C266.852 755.232 266.502 755.61 266.012 755.61C265.508 755.61 265.144 755.232 265.144 754.784ZM267.898 748.386L267.45 747.336L270.81 745.726H271.608V755.582H270.404V747.224L267.898 748.386Z" fill="#2A3C3C"/>
<path d="M255.671 750.682C255.671 749.17 256.021 747.952 256.735 747.042C257.435 746.132 258.471 745.67 259.829 745.67C262.615 745.67 264.001 747.504 264.001 750.682C264.001 752.208 263.651 753.412 262.965 754.322C262.265 755.232 261.229 755.694 259.857 755.694C258.541 755.694 257.519 755.232 256.777 754.308C256.035 753.384 255.671 752.18 255.671 750.682ZM256.959 750.682C256.959 753.076 258.051 754.504 259.857 754.504C261.761 754.504 262.713 753.23 262.713 750.682C262.713 748.134 261.747 746.86 259.829 746.86C257.883 746.86 256.959 748.26 256.959 750.682ZM265.144 754.784C265.144 754.392 265.508 754 266.012 754C266.474 754 266.852 754.392 266.852 754.784C266.852 755.232 266.502 755.61 266.012 755.61C265.508 755.61 265.144 755.232 265.144 754.784ZM267.898 748.386L267.45 747.336L270.81 745.726H271.608V755.582H270.404V747.224L267.898 748.386Z" fill="#1A3341"/>
<path d="M240 767.582C240 766.477 240.895 765.582 242 765.582H286C287.105 765.582 288 766.477 288 767.582V769.582H240V767.582Z" fill="url(#paint4_linear_2355_51966)"/>
<path opacity="0.2" d="M252 765.582H276V769.582H252V765.582Z" fill="url(#paint5_linear_2355_51966)"/>
<path opacity="0.04" d="M276 765.582H286C287.105 765.582 288 766.477 288 767.582V769.582H276V765.582Z" fill="#0D262C"/>
<path opacity="0.5" d="M240 767.582C240 766.477 240.895 765.582 242 765.582H252V769.582H240V767.582Z" fill="url(#paint6_linear_2355_51966)"/>
<line x1="-4.37114e-08" y1="770.082" x2="335" y2="770.082" stroke="#ABBEC9"/>
<path d="M79.5897 782.382C79.5897 781.17 79.9977 780.138 80.8257 779.31C81.6537 778.482 82.6617 778.074 83.8617 778.074C85.0497 778.074 86.0577 778.482 86.8857 779.298C87.7137 780.114 88.1217 781.146 88.1217 782.382C88.1217 783.57 87.6777 784.626 86.7897 785.526L87.6297 786.534L86.8857 787.158L86.0217 786.114C85.3377 786.498 84.6177 786.69 83.8617 786.69C82.6377 786.69 81.6177 786.282 80.8137 785.466C79.9977 784.662 79.5897 783.63 79.5897 782.382ZM80.7297 782.382C80.7297 783.33 81.0297 784.11 81.6297 784.722C82.2297 785.334 82.9737 785.646 83.8617 785.646C84.4017 785.646 84.8937 785.514 85.3617 785.238L84.6417 784.374L85.3377 783.762L86.1057 784.686C86.6937 784.074 86.9817 783.306 86.9817 782.382C86.9817 781.434 86.6817 780.654 86.0817 780.042C85.4817 779.43 84.7377 779.118 83.8617 779.118C82.9737 779.118 82.2297 779.418 81.6297 780.03C81.0297 780.642 80.7297 781.434 80.7297 782.382ZM89.7801 780.63L88.8801 780.222C89.3241 778.926 90.4881 778.074 92.2281 778.074C93.0561 778.074 93.7401 778.266 94.2681 778.65C94.7961 779.034 95.0601 779.55 95.0601 780.186C95.0601 781.158 94.5441 781.878 93.5841 782.154C94.5081 782.214 95.2521 782.91 95.2521 784.158C95.2521 784.95 94.9641 785.574 94.3881 786.018C93.8121 786.462 93.0801 786.69 92.1801 786.69C90.3441 786.69 89.0721 785.814 88.6521 784.434L89.6241 784.014C90.1401 785.106 91.0161 785.658 92.2521 785.658C93.4161 785.658 94.1481 785.118 94.1481 784.17C94.1481 783.246 93.4281 782.778 91.9881 782.778H91.0521V781.782H91.7961C93.1041 781.782 93.9561 781.194 93.9561 780.39C93.9561 779.562 93.2721 779.094 92.1801 779.094C90.8961 779.094 90.1161 779.754 89.7801 780.63ZM74.0271 794.954L73.1511 794.642C73.4511 793.154 74.5791 792.086 76.3671 792.086C78.0951 792.086 79.1511 793.082 79.1511 794.606C79.1511 795.41 78.8031 796.214 78.3711 796.79C78.1551 797.09 77.8791 797.378 77.5551 797.678C76.8951 798.266 76.4271 798.578 75.7431 799.01L74.8191 799.586H79.4631V800.582H72.9231V799.766L74.7471 798.554C75.0711 798.35 75.2991 798.194 75.4311 798.098C75.5631 798.014 75.7791 797.858 76.0671 797.654C76.3551 797.45 76.5711 797.27 76.7151 797.138C76.8471 797.006 77.0271 796.838 77.2311 796.622C77.7831 796.022 77.9871 795.47 78.0471 794.714C78.0471 793.622 77.3391 793.13 76.2951 793.13C75.6471 793.13 75.1311 793.31 74.7591 793.67C74.3871 794.03 74.1351 794.462 74.0271 794.954ZM80.2948 796.382C80.2948 795.086 80.5948 794.042 81.2068 793.262C81.8068 792.482 82.6948 792.086 83.8588 792.086C86.2468 792.086 87.4348 793.658 87.4348 796.382C87.4348 797.69 87.1348 798.722 86.5468 799.502C85.9468 800.282 85.0588 800.678 83.8828 800.678C82.7548 800.678 81.8788 800.282 81.2428 799.49C80.6068 798.698 80.2948 797.666 80.2948 796.382ZM81.3988 796.382C81.3988 798.434 82.3348 799.658 83.8828 799.658C85.5148 799.658 86.3308 798.566 86.3308 796.382C86.3308 794.198 85.5028 793.106 83.8588 793.106C82.1908 793.106 81.3988 794.306 81.3988 796.382ZM89.291 794.954L88.415 794.642C88.715 793.154 89.843 792.086 91.631 792.086C93.359 792.086 94.415 793.082 94.415 794.606C94.415 795.41 94.067 796.214 93.635 796.79C93.419 797.09 93.143 797.378 92.819 797.678C92.159 798.266 91.691 798.578 91.007 799.01L90.083 799.586H94.727V800.582H88.187V799.766L90.011 798.554C90.335 798.35 90.563 798.194 90.695 798.098C90.827 798.014 91.043 797.858 91.331 797.654C91.619 797.45 91.835 797.27 91.979 797.138C92.111 797.006 92.291 796.838 92.495 796.622C93.047 796.022 93.251 795.47 93.311 794.714C93.311 793.622 92.603 793.13 91.559 793.13C90.911 793.13 90.395 793.31 90.023 793.67C89.651 794.03 89.399 794.462 89.291 794.954ZM96.3867 794.63L95.4867 794.222C95.9307 792.926 97.0947 792.074 98.8347 792.074C99.6627 792.074 100.347 792.266 100.875 792.65C101.403 793.034 101.667 793.55 101.667 794.186C101.667 795.158 101.151 795.878 100.191 796.154C101.115 796.214 101.859 796.91 101.859 798.158C101.859 798.95 101.571 799.574 100.995 800.018C100.419 800.462 99.6867 800.69 98.7867 800.69C96.9507 800.69 95.6787 799.814 95.2587 798.434L96.2307 798.014C96.7467 799.106 97.6227 799.658 98.8587 799.658C100.023 799.658 100.755 799.118 100.755 798.17C100.755 797.246 100.035 796.778 98.5947 796.778H97.6587V795.782H98.4027C99.7107 795.782 100.563 795.194 100.563 794.39C100.563 793.562 99.8787 793.094 98.7867 793.094C97.5027 793.094 96.7227 793.754 96.3867 794.63Z" fill="#76848D"/>
<path d="M225.762 782.382C225.762 781.17 226.17 780.138 226.998 779.31C227.826 778.482 228.834 778.074 230.034 778.074C231.222 778.074 232.23 778.482 233.058 779.298C233.886 780.114 234.294 781.146 234.294 782.382C234.294 783.57 233.85 784.626 232.962 785.526L233.802 786.534L233.058 787.158L232.194 786.114C231.51 786.498 230.79 786.69 230.034 786.69C228.81 786.69 227.79 786.282 226.986 785.466C226.17 784.662 225.762 783.63 225.762 782.382ZM226.902 782.382C226.902 783.33 227.202 784.11 227.802 784.722C228.402 785.334 229.146 785.646 230.034 785.646C230.574 785.646 231.066 785.514 231.534 785.238L230.814 784.374L231.51 783.762L232.278 784.686C232.866 784.074 233.154 783.306 233.154 782.382C233.154 781.434 232.854 780.654 232.254 780.042C231.654 779.43 230.91 779.118 230.034 779.118C229.146 779.118 228.402 779.418 227.802 780.03C227.202 780.642 226.902 781.434 226.902 782.382ZM240.92 786.582H239.876V784.866H234.74V784.17L239.996 778.182H240.92V783.894H242.48V784.866H240.92V786.582ZM239.876 779.862L236.18 783.894H239.876V779.862ZM220.527 794.954L219.651 794.642C219.951 793.154 221.079 792.086 222.867 792.086C224.595 792.086 225.651 793.082 225.651 794.606C225.651 795.41 225.303 796.214 224.871 796.79C224.655 797.09 224.379 797.378 224.055 797.678C223.395 798.266 222.927 798.578 222.243 799.01L221.319 799.586H225.963V800.582H219.423V799.766L221.247 798.554C221.571 798.35 221.799 798.194 221.931 798.098C222.063 798.014 222.279 797.858 222.567 797.654C222.855 797.45 223.071 797.27 223.215 797.138C223.347 797.006 223.527 796.838 223.731 796.622C224.283 796.022 224.487 795.47 224.547 794.714C224.547 793.622 223.839 793.13 222.795 793.13C222.147 793.13 221.631 793.31 221.259 793.67C220.887 794.03 220.635 794.462 220.527 794.954ZM226.795 796.382C226.795 795.086 227.095 794.042 227.707 793.262C228.307 792.482 229.195 792.086 230.359 792.086C232.747 792.086 233.935 793.658 233.935 796.382C233.935 797.69 233.635 798.722 233.047 799.502C232.447 800.282 231.559 800.678 230.383 800.678C229.255 800.678 228.379 800.282 227.743 799.49C227.107 798.698 226.795 797.666 226.795 796.382ZM227.899 796.382C227.899 798.434 228.835 799.658 230.383 799.658C232.015 799.658 232.831 798.566 232.831 796.382C232.831 794.198 232.003 793.106 230.359 793.106C228.691 793.106 227.899 794.306 227.899 796.382ZM235.791 794.954L234.915 794.642C235.215 793.154 236.343 792.086 238.131 792.086C239.859 792.086 240.915 793.082 240.915 794.606C240.915 795.41 240.567 796.214 240.135 796.79C239.919 797.09 239.643 797.378 239.319 797.678C238.659 798.266 238.191 798.578 237.507 799.01L236.583 799.586H241.227V800.582H234.687V799.766L236.511 798.554C236.835 798.35 237.063 798.194 237.195 798.098C237.327 798.014 237.543 797.858 237.831 797.654C238.119 797.45 238.335 797.27 238.479 797.138C238.611 797.006 238.791 796.838 238.995 796.622C239.547 796.022 239.751 795.47 239.811 794.714C239.811 793.622 239.103 793.13 238.059 793.13C237.411 793.13 236.895 793.31 236.523 793.67C236.151 794.03 235.899 794.462 235.791 794.954ZM242.887 794.63L241.987 794.222C242.431 792.926 243.595 792.074 245.335 792.074C246.163 792.074 246.847 792.266 247.375 792.65C247.903 793.034 248.167 793.55 248.167 794.186C248.167 795.158 247.651 795.878 246.691 796.154C247.615 796.214 248.359 796.91 248.359 798.158C248.359 798.95 248.071 799.574 247.495 800.018C246.919 800.462 246.187 800.69 245.287 800.69C243.451 800.69 242.179 799.814 241.759 798.434L242.731 798.014C243.247 799.106 244.123 799.658 245.359 799.658C246.523 799.658 247.255 799.118 247.255 798.17C247.255 797.246 246.535 796.778 245.095 796.778H244.159V795.782H244.903C246.211 795.782 247.063 795.194 247.063 794.39C247.063 793.562 246.379 793.094 245.287 793.094C244.003 793.094 243.223 793.754 242.887 794.63Z" fill="#76848D"/>
<path d="M51.5548 596.386L51.1068 595.336L54.4668 593.726H55.2648V603.582H54.0608V595.224L51.5548 596.386ZM57.1482 602.784C57.1482 602.392 57.5122 602 58.0162 602C58.4782 602 58.8562 602.392 58.8562 602.784C58.8562 603.232 58.5062 603.61 58.0162 603.61C57.5122 603.61 57.1482 603.232 57.1482 602.784ZM59.9018 596.386L59.4538 595.336L62.8138 593.726H63.6118V603.582H62.4078V595.224L59.9018 596.386Z" fill="#1A3341"/>
<path d="M34 615.582C34 614.477 34.8954 613.582 36 613.582H80C81.1046 613.582 82 614.477 82 615.582V654.582H34V615.582Z" fill="url(#paint7_linear_2355_51966)"/>
<path opacity="0.2" d="M46 613.582H70V654.582H46V613.582Z" fill="url(#paint8_linear_2355_51966)"/>
<path opacity="0.04" d="M70 613.582H80C81.1046 613.582 82 614.477 82 615.582V654.582H70V613.582Z" fill="#0D262C"/>
<path opacity="0.5" d="M34 615.582C34 614.477 34.8954 613.582 36 613.582H46V654.582H34V615.582Z" fill="url(#paint9_linear_2355_51966)"/>
<path d="M105.996 592.386L105.548 591.336L108.908 589.726H109.706V599.582H108.502V591.224L105.996 592.386ZM111.59 598.784C111.59 598.392 111.954 598 112.458 598C112.92 598 113.298 598.392 113.298 598.784C113.298 599.232 112.948 599.61 112.458 599.61C111.954 599.61 111.59 599.232 111.59 598.784ZM115.421 592.638L114.371 592.162C114.889 590.65 116.247 589.656 118.277 589.656C119.243 589.656 120.041 589.88 120.657 590.328C121.273 590.776 121.581 591.378 121.581 592.12C121.581 593.254 120.979 594.094 119.859 594.416C120.937 594.486 121.805 595.298 121.805 596.754C121.805 597.678 121.469 598.406 120.797 598.924C120.125 599.442 119.271 599.708 118.221 599.708C116.079 599.708 114.595 598.686 114.105 597.076L115.239 596.586C115.841 597.86 116.863 598.504 118.305 598.504C119.663 598.504 120.517 597.874 120.517 596.768C120.517 595.69 119.677 595.144 117.997 595.144H116.905V593.982H117.773C119.299 593.982 120.293 593.296 120.293 592.358C120.293 591.392 119.495 590.846 118.221 590.846C116.723 590.846 115.813 591.616 115.421 592.638Z" fill="#2A3C3C"/>
<path d="M105.996 592.386L105.548 591.336L108.908 589.726H109.706V599.582H108.502V591.224L105.996 592.386ZM111.59 598.784C111.59 598.392 111.954 598 112.458 598C112.92 598 113.298 598.392 113.298 598.784C113.298 599.232 112.948 599.61 112.458 599.61C111.954 599.61 111.59 599.232 111.59 598.784ZM115.421 592.638L114.371 592.162C114.889 590.65 116.247 589.656 118.277 589.656C119.243 589.656 120.041 589.88 120.657 590.328C121.273 590.776 121.581 591.378 121.581 592.12C121.581 593.254 120.979 594.094 119.859 594.416C120.937 594.486 121.805 595.298 121.805 596.754C121.805 597.678 121.469 598.406 120.797 598.924C120.125 599.442 119.271 599.708 118.221 599.708C116.079 599.708 114.595 598.686 114.105 597.076L115.239 596.586C115.841 597.86 116.863 598.504 118.305 598.504C119.663 598.504 120.517 597.874 120.517 596.768C120.517 595.69 119.677 595.144 117.997 595.144H116.905V593.982H117.773C119.299 593.982 120.293 593.296 120.293 592.358C120.293 591.392 119.495 590.846 118.221 590.846C116.723 590.846 115.813 591.616 115.421 592.638Z" fill="#1A3341"/>
<path d="M90 611.582C90 610.477 90.8954 609.582 92 609.582H136C137.105 609.582 138 610.477 138 611.582V654.582H90V611.582Z" fill="url(#paint10_linear_2355_51966)"/>
<path opacity="0.2" d="M102 609.582H126V654.582H102V609.582Z" fill="url(#paint11_linear_2355_51966)"/>
<path opacity="0.04" d="M126 609.582H136C137.105 609.582 138 610.477 138 611.582V654.582H126V609.582Z" fill="#0D262C"/>
<path opacity="0.5" d="M90 611.582C90 610.477 90.8954 609.582 92 609.582H102V654.582H90V611.582Z" fill="url(#paint12_linear_2355_51966)"/>
<path d="M197.03 620.682C197.03 619.17 197.38 617.952 198.094 617.042C198.794 616.132 199.83 615.67 201.188 615.67C203.974 615.67 205.36 617.504 205.36 620.682C205.36 622.208 205.01 623.412 204.324 624.322C203.624 625.232 202.588 625.694 201.216 625.694C199.9 625.694 198.878 625.232 198.136 624.308C197.394 623.384 197.03 622.18 197.03 620.682ZM198.318 620.682C198.318 623.076 199.41 624.504 201.216 624.504C203.12 624.504 204.072 623.23 204.072 620.682C204.072 618.134 203.106 616.86 201.188 616.86C199.242 616.86 198.318 618.26 198.318 620.682ZM206.504 624.784C206.504 624.392 206.868 624 207.372 624C207.834 624 208.212 624.392 208.212 624.784C208.212 625.232 207.862 625.61 207.372 625.61C206.868 625.61 206.504 625.232 206.504 624.784ZM210.797 621.074L209.789 620.808L210.363 615.782H216.523V616.972H211.441L211.077 619.604C211.567 619.24 212.309 619.058 213.303 619.058C214.451 619.058 215.347 619.366 216.005 619.968C216.649 620.584 216.971 621.368 216.971 622.334C216.971 623.3 216.607 624.112 215.893 624.742C215.165 625.386 214.255 625.708 213.177 625.708C211.343 625.708 209.817 624.84 209.187 623.314L210.307 622.838C210.713 623.776 211.763 624.518 213.177 624.518C214.787 624.518 215.683 623.594 215.683 622.376C215.683 621.074 214.633 620.234 212.967 620.234C212.071 620.234 211.343 620.514 210.797 621.074Z" fill="#1A3341"/>
<path d="M183 637.582C183 636.477 183.895 635.582 185 635.582H229C230.105 635.582 231 636.477 231 637.582V655.582H183V637.582Z" fill="url(#paint13_linear_2355_51966)"/>
<path opacity="0.2" d="M195 635.582H219V655.582H195V635.582Z" fill="url(#paint14_linear_2355_51966)"/>
<path opacity="0.04" d="M219 635.582H229C230.105 635.582 231 636.477 231 637.582V655.582H219V635.582Z" fill="#0D262C"/>
<path opacity="0.5" d="M183 637.582C183 636.477 183.895 635.582 185 635.582H195V655.582H183V637.582Z" fill="url(#paint15_linear_2355_51966)"/>
<path d="M253.03 616.682C253.03 615.17 253.38 613.952 254.094 613.042C254.794 612.132 255.83 611.67 257.188 611.67C259.974 611.67 261.36 613.504 261.36 616.682C261.36 618.208 261.01 619.412 260.324 620.322C259.624 621.232 258.588 621.694 257.216 621.694C255.9 621.694 254.878 621.232 254.136 620.308C253.394 619.384 253.03 618.18 253.03 616.682ZM254.318 616.682C254.318 619.076 255.41 620.504 257.216 620.504C259.12 620.504 260.072 619.23 260.072 616.682C260.072 614.134 259.106 612.86 257.188 612.86C255.242 612.86 254.318 614.26 254.318 616.682ZM262.504 620.784C262.504 620.392 262.868 620 263.372 620C263.834 620 264.212 620.392 264.212 620.784C264.212 621.232 263.862 621.61 263.372 621.61C262.868 621.61 262.504 621.232 262.504 620.784ZM266.797 617.074L265.789 616.808L266.363 611.782H272.523V612.972H267.441L267.077 615.604C267.567 615.24 268.309 615.058 269.303 615.058C270.451 615.058 271.347 615.366 272.005 615.968C272.649 616.584 272.971 617.368 272.971 618.334C272.971 619.3 272.607 620.112 271.893 620.742C271.165 621.386 270.255 621.708 269.177 621.708C267.343 621.708 265.817 620.84 265.187 619.314L266.307 618.838C266.713 619.776 267.763 620.518 269.177 620.518C270.787 620.518 271.683 619.594 271.683 618.376C271.683 617.074 270.633 616.234 268.967 616.234C268.071 616.234 267.343 616.514 266.797 617.074Z" fill="#1A3341"/>
<path d="M239 633.582C239 632.477 239.895 631.582 241 631.582H285C286.105 631.582 287 632.477 287 633.582V655.582H239V633.582Z" fill="url(#paint16_linear_2355_51966)"/>
<path opacity="0.2" d="M251 631.582H275V655.582H251V631.582Z" fill="url(#paint17_linear_2355_51966)"/>
<path opacity="0.04" d="M275 631.582H285C286.105 631.582 287 632.477 287 633.582V655.582H275V631.582Z" fill="#0D262C"/>
<path opacity="0.5" d="M239 633.582C239 632.477 239.895 631.582 241 631.582H251V655.582H239V633.582Z" fill="url(#paint18_linear_2355_51966)"/>
<line x1="-4.37114e-08" y1="655.082" x2="335" y2="655.082" stroke="#ABBEC9"/>
<path d="M79.4256 667.382C79.4256 666.17 79.8336 665.138 80.6616 664.31C81.4896 663.482 82.4976 663.074 83.6976 663.074C84.8856 663.074 85.8936 663.482 86.7216 664.298C87.5496 665.114 87.9576 666.146 87.9576 667.382C87.9576 668.57 87.5136 669.626 86.6256 670.526L87.4656 671.534L86.7216 672.158L85.8576 671.114C85.1736 671.498 84.4536 671.69 83.6976 671.69C82.4736 671.69 81.4536 671.282 80.6496 670.466C79.8336 669.662 79.4256 668.63 79.4256 667.382ZM80.5656 667.382C80.5656 668.33 80.8656 669.11 81.4656 669.722C82.0656 670.334 82.8096 670.646 83.6976 670.646C84.2376 670.646 84.7296 670.514 85.1976 670.238L84.4776 669.374L85.1736 668.762L85.9416 669.686C86.5296 669.074 86.8176 668.306 86.8176 667.382C86.8176 666.434 86.5176 665.654 85.9176 665.042C85.3176 664.43 84.5736 664.118 83.6976 664.118C82.8096 664.118 82.0656 664.418 81.4656 665.03C80.8656 665.642 80.5656 666.434 80.5656 667.382ZM88.692 665.414L88.308 664.514L91.188 663.134H91.872V671.582H90.84V664.418L88.692 665.414ZM72.5271 679.954L71.6511 679.642C71.9511 678.154 73.0791 677.086 74.8671 677.086C76.5951 677.086 77.6511 678.082 77.6511 679.606C77.6511 680.41 77.3031 681.214 76.8711 681.79C76.6551 682.09 76.3791 682.378 76.0551 682.678C75.3951 683.266 74.9271 683.578 74.2431 684.01L73.3191 684.586H77.9631V685.582H71.4231V684.766L73.2471 683.554C73.5711 683.35 73.7991 683.194 73.9311 683.098C74.0631 683.014 74.2791 682.858 74.5671 682.654C74.8551 682.45 75.0711 682.27 75.2151 682.138C75.3471 682.006 75.5271 681.838 75.7311 681.622C76.2831 681.022 76.4871 680.47 76.5471 679.714C76.5471 678.622 75.8391 678.13 74.7951 678.13C74.1471 678.13 73.6311 678.31 73.2591 678.67C72.8871 679.03 72.6351 679.462 72.5271 679.954ZM78.7948 681.382C78.7948 680.086 79.0948 679.042 79.7068 678.262C80.3068 677.482 81.1948 677.086 82.3588 677.086C84.7468 677.086 85.9348 678.658 85.9348 681.382C85.9348 682.69 85.6348 683.722 85.0468 684.502C84.4468 685.282 83.5588 685.678 82.3828 685.678C81.2548 685.678 80.3788 685.282 79.7428 684.49C79.1068 683.698 78.7948 682.666 78.7948 681.382ZM79.8988 681.382C79.8988 683.434 80.8348 684.658 82.3828 684.658C84.0148 684.658 84.8308 683.566 84.8308 681.382C84.8308 679.198 84.0028 678.106 82.3588 678.106C80.6908 678.106 79.8988 679.306 79.8988 681.382ZM87.791 679.954L86.915 679.642C87.215 678.154 88.343 677.086 90.131 677.086C91.859 677.086 92.915 678.082 92.915 679.606C92.915 680.41 92.567 681.214 92.135 681.79C91.919 682.09 91.643 682.378 91.319 682.678C90.659 683.266 90.191 683.578 89.507 684.01L88.583 684.586H93.227V685.582H86.687V684.766L88.511 683.554C88.835 683.35 89.063 683.194 89.195 683.098C89.327 683.014 89.543 682.858 89.831 682.654C90.119 682.45 90.335 682.27 90.479 682.138C90.611 682.006 90.791 681.838 90.995 681.622C91.547 681.022 91.751 680.47 91.811 679.714C91.811 678.622 91.103 678.13 90.059 678.13C89.411 678.13 88.895 678.31 88.523 678.67C88.151 679.03 87.899 679.462 87.791 679.954ZM94.8867 679.63L93.9867 679.222C94.4307 677.926 95.5947 677.074 97.3347 677.074C98.1627 677.074 98.8467 677.266 99.3747 677.65C99.9027 678.034 100.167 678.55 100.167 679.186C100.167 680.158 99.6507 680.878 98.6907 681.154C99.6147 681.214 100.359 681.91 100.359 683.158C100.359 683.95 100.071 684.574 99.4947 685.018C98.9187 685.462 98.1867 685.69 97.2867 685.69C95.4507 685.69 94.1787 684.814 93.7587 683.434L94.7307 683.014C95.2467 684.106 96.1227 684.658 97.3587 684.658C98.5227 684.658 99.2547 684.118 99.2547 683.17C99.2547 682.246 98.5347 681.778 97.0947 681.778H96.1587V680.782H96.9027C98.2107 680.782 99.0627 680.194 99.0627 679.39C99.0627 678.562 98.3787 678.094 97.2867 678.094C96.0027 678.094 95.2227 678.754 94.8867 679.63Z" fill="#76848D"/>
<path d="M226.119 667.382C226.119 666.17 226.527 665.138 227.355 664.31C228.183 663.482 229.191 663.074 230.391 663.074C231.579 663.074 232.587 663.482 233.415 664.298C234.243 665.114 234.651 666.146 234.651 667.382C234.651 668.57 234.207 669.626 233.319 670.526L234.159 671.534L233.415 672.158L232.551 671.114C231.867 671.498 231.147 671.69 230.391 671.69C229.167 671.69 228.147 671.282 227.343 670.466C226.527 669.662 226.119 668.63 226.119 667.382ZM227.259 667.382C227.259 668.33 227.559 669.11 228.159 669.722C228.759 670.334 229.503 670.646 230.391 670.646C230.931 670.646 231.423 670.514 231.891 670.238L231.171 669.374L231.867 668.762L232.635 669.686C233.223 669.074 233.511 668.306 233.511 667.382C233.511 666.434 233.211 665.654 232.611 665.042C232.011 664.43 231.267 664.118 230.391 664.118C229.503 664.118 228.759 664.418 228.159 665.03C227.559 665.642 227.259 666.434 227.259 667.382ZM236.441 665.954L235.565 665.642C235.865 664.154 236.993 663.086 238.781 663.086C240.509 663.086 241.565 664.082 241.565 665.606C241.565 666.41 241.217 667.214 240.785 667.79C240.569 668.09 240.293 668.378 239.969 668.678C239.309 669.266 238.841 669.578 238.157 670.01L237.233 670.586H241.877V671.582H235.337V670.766L237.161 669.554C237.485 669.35 237.713 669.194 237.845 669.098C237.977 669.014 238.193 668.858 238.481 668.654C238.769 668.45 238.985 668.27 239.129 668.138C239.261 668.006 239.441 667.838 239.645 667.622C240.197 667.022 240.401 666.47 240.461 665.714C240.461 664.622 239.753 664.13 238.709 664.13C238.061 664.13 237.545 664.31 237.173 664.67C236.801 665.03 236.549 665.462 236.441 665.954ZM220.527 679.954L219.651 679.642C219.951 678.154 221.079 677.086 222.867 677.086C224.595 677.086 225.651 678.082 225.651 679.606C225.651 680.41 225.303 681.214 224.871 681.79C224.655 682.09 224.379 682.378 224.055 682.678C223.395 683.266 222.927 683.578 222.243 684.01L221.319 684.586H225.963V685.582H219.423V684.766L221.247 683.554C221.571 683.35 221.799 683.194 221.931 683.098C222.063 683.014 222.279 682.858 222.567 682.654C222.855 682.45 223.071 682.27 223.215 682.138C223.347 682.006 223.527 681.838 223.731 681.622C224.283 681.022 224.487 680.47 224.547 679.714C224.547 678.622 223.839 678.13 222.795 678.13C222.147 678.13 221.631 678.31 221.259 678.67C220.887 679.03 220.635 679.462 220.527 679.954ZM226.795 681.382C226.795 680.086 227.095 679.042 227.707 678.262C228.307 677.482 229.195 677.086 230.359 677.086C232.747 677.086 233.935 678.658 233.935 681.382C233.935 682.69 233.635 683.722 233.047 684.502C232.447 685.282 231.559 685.678 230.383 685.678C229.255 685.678 228.379 685.282 227.743 684.49C227.107 683.698 226.795 682.666 226.795 681.382ZM227.899 681.382C227.899 683.434 228.835 684.658 230.383 684.658C232.015 684.658 232.831 683.566 232.831 681.382C232.831 679.198 232.003 678.106 230.359 678.106C228.691 678.106 227.899 679.306 227.899 681.382ZM235.791 679.954L234.915 679.642C235.215 678.154 236.343 677.086 238.131 677.086C239.859 677.086 240.915 678.082 240.915 679.606C240.915 680.41 240.567 681.214 240.135 681.79C239.919 682.09 239.643 682.378 239.319 682.678C238.659 683.266 238.191 683.578 237.507 684.01L236.583 684.586H241.227V685.582H234.687V684.766L236.511 683.554C236.835 683.35 237.063 683.194 237.195 683.098C237.327 683.014 237.543 682.858 237.831 682.654C238.119 682.45 238.335 682.27 238.479 682.138C238.611 682.006 238.791 681.838 238.995 681.622C239.547 681.022 239.751 680.47 239.811 679.714C239.811 678.622 239.103 678.13 238.059 678.13C237.411 678.13 236.895 678.31 236.523 678.67C236.151 679.03 235.899 679.462 235.791 679.954ZM242.887 679.63L241.987 679.222C242.431 677.926 243.595 677.074 245.335 677.074C246.163 677.074 246.847 677.266 247.375 677.65C247.903 678.034 248.167 678.55 248.167 679.186C248.167 680.158 247.651 680.878 246.691 681.154C247.615 681.214 248.359 681.91 248.359 683.158C248.359 683.95 248.071 684.574 247.495 685.018C246.919 685.462 246.187 685.69 245.287 685.69C243.451 685.69 242.179 684.814 241.759 683.434L242.731 683.014C243.247 684.106 244.123 684.658 245.359 684.658C246.523 684.658 247.255 684.118 247.255 683.17C247.255 682.246 246.535 681.778 245.095 681.778H244.159V680.782H244.903C246.211 680.782 247.063 680.194 247.063 679.39C247.063 678.562 246.379 678.094 245.287 678.094C244.003 678.094 243.223 678.754 242.887 679.63Z" fill="#76848D"/>
<path d="M201.318 431.386L200.87 430.336L204.23 428.726H205.028V438.582H203.824V430.224L201.318 431.386ZM206.911 437.784C206.911 437.392 207.275 437 207.779 437C208.241 437 208.619 437.392 208.619 437.784C208.619 438.232 208.269 438.61 207.779 438.61C207.275 438.61 206.911 438.232 206.911 437.784ZM215.39 429.972H209.454V428.782H216.888V429.58L212.016 438.582H210.686L215.39 429.972Z" fill="#1A3341"/>
<path d="M185 450.582C185 449.477 185.895 448.582 187 448.582H231C232.105 448.582 233 449.477 233 450.582V511.582H185V450.582Z" fill="url(#paint19_linear_2355_51966)"/>
<path opacity="0.2" d="M197 448.582H221V511.582H197V448.582Z" fill="url(#paint20_linear_2355_51966)"/>
<path opacity="0.04" d="M221 448.582H231C232.105 448.582 233 449.477 233 450.582V511.582H221V448.582Z" fill="#0D262C"/>
<path opacity="0.5" d="M185 450.582C185 449.477 185.895 448.582 187 448.582H197V511.582H185V450.582Z" fill="url(#paint21_linear_2355_51966)"/>
<path d="M256.648 427.386L256.2 426.336L259.56 424.726H260.358V434.582H259.154V426.224L256.648 427.386ZM262.241 433.784C262.241 433.392 262.605 433 263.109 433C263.571 433 263.949 433.392 263.949 433.784C263.949 434.232 263.599 434.61 263.109 434.61C262.605 434.61 262.241 434.232 262.241 433.784ZM268.971 428.996H269.405C270.035 428.996 270.553 428.842 270.987 428.548C271.407 428.254 271.617 427.862 271.617 427.4C271.617 426.35 270.791 425.818 269.153 425.818C267.585 425.818 266.731 426.392 266.731 427.4C266.731 428.31 267.669 428.996 268.971 428.996ZM269.377 430.102H269.027C268.271 430.102 267.641 430.27 267.151 430.592C266.661 430.914 266.409 431.32 266.409 431.81C266.409 432.874 267.389 433.546 269.167 433.546C270.973 433.546 271.939 432.902 271.939 431.824C271.939 430.746 270.903 430.102 269.377 430.102ZM272.135 433.952C271.421 434.456 270.427 434.708 269.181 434.708C267.935 434.708 266.941 434.456 266.213 433.966C265.485 433.476 265.121 432.804 265.121 431.936C265.121 430.802 265.863 429.906 267.053 429.514C265.975 429.164 265.443 428.31 265.443 427.316C265.443 425.692 266.815 424.656 269.167 424.656C271.533 424.656 272.905 425.692 272.905 427.316C272.905 428.254 272.387 428.968 271.351 429.444C272.597 429.822 273.213 430.634 273.213 431.88C273.213 432.762 272.849 433.462 272.135 433.952Z" fill="#2A3C3C"/>
<path d="M256.648 427.386L256.2 426.336L259.56 424.726H260.358V434.582H259.154V426.224L256.648 427.386ZM262.241 433.784C262.241 433.392 262.605 433 263.109 433C263.571 433 263.949 433.392 263.949 433.784C263.949 434.232 263.599 434.61 263.109 434.61C262.605 434.61 262.241 434.232 262.241 433.784ZM268.971 428.996H269.405C270.035 428.996 270.553 428.842 270.987 428.548C271.407 428.254 271.617 427.862 271.617 427.4C271.617 426.35 270.791 425.818 269.153 425.818C267.585 425.818 266.731 426.392 266.731 427.4C266.731 428.31 267.669 428.996 268.971 428.996ZM269.377 430.102H269.027C268.271 430.102 267.641 430.27 267.151 430.592C266.661 430.914 266.409 431.32 266.409 431.81C266.409 432.874 267.389 433.546 269.167 433.546C270.973 433.546 271.939 432.902 271.939 431.824C271.939 430.746 270.903 430.102 269.377 430.102ZM272.135 433.952C271.421 434.456 270.427 434.708 269.181 434.708C267.935 434.708 266.941 434.456 266.213 433.966C265.485 433.476 265.121 432.804 265.121 431.936C265.121 430.802 265.863 429.906 267.053 429.514C265.975 429.164 265.443 428.31 265.443 427.316C265.443 425.692 266.815 424.656 269.167 424.656C271.533 424.656 272.905 425.692 272.905 427.316C272.905 428.254 272.387 428.968 271.351 429.444C272.597 429.822 273.213 430.634 273.213 431.88C273.213 432.762 272.849 433.462 272.135 433.952Z" fill="#1A3341"/>
<path d="M241 446.582C241 445.477 241.895 444.582 243 444.582H287C288.105 444.582 289 445.477 289 446.582V511.582H241V446.582Z" fill="url(#paint22_linear_2355_51966)"/>
<path opacity="0.2" d="M253 444.582H277V511.582H253V444.582Z" fill="url(#paint23_linear_2355_51966)"/>
<path opacity="0.04" d="M277 444.582H287C288.105 444.582 289 445.477 289 446.582V511.582H277V444.582Z" fill="#0D262C"/>
<path opacity="0.5" d="M241 446.582C241 445.477 241.895 444.582 243 444.582H253V511.582H241V446.582Z" fill="url(#paint24_linear_2355_51966)"/>
<path d="M48.6218 400.016L47.5998 399.652C47.9498 397.916 49.2658 396.67 51.3518 396.67C53.3678 396.67 54.5998 397.832 54.5998 399.61C54.5998 400.548 54.1938 401.486 53.6898 402.158C53.4378 402.508 53.1158 402.844 52.7378 403.194C51.9678 403.88 51.4218 404.244 50.6238 404.748L49.5458 405.42H54.9638V406.582H47.3338V405.63L49.4618 404.216C49.8398 403.978 50.1058 403.796 50.2598 403.684C50.4138 403.586 50.6658 403.404 51.0018 403.166C51.3378 402.928 51.5898 402.718 51.7578 402.564C51.9118 402.41 52.1218 402.214 52.3598 401.962C53.0038 401.262 53.2418 400.618 53.3118 399.736C53.3118 398.462 52.4858 397.888 51.2678 397.888C50.5118 397.888 49.9098 398.098 49.4758 398.518C49.0418 398.938 48.7478 399.442 48.6218 400.016ZM56.032 405.784C56.032 405.392 56.396 405 56.9 405C57.362 405 57.74 405.392 57.74 405.784C57.74 406.232 57.39 406.61 56.9 406.61C56.396 406.61 56.032 406.232 56.032 405.784ZM60.3255 402.074L59.3175 401.808L59.8915 396.782H66.0515V397.972H60.9695L60.6055 400.604C61.0955 400.24 61.8375 400.058 62.8315 400.058C63.9795 400.058 64.8755 400.366 65.5335 400.968C66.1775 401.584 66.4995 402.368 66.4995 403.334C66.4995 404.3 66.1355 405.112 65.4215 405.742C64.6935 406.386 63.7835 406.708 62.7055 406.708C60.8715 406.708 59.3455 405.84 58.7155 404.314L59.8355 403.838C60.2415 404.776 61.2915 405.518 62.7055 405.518C64.3155 405.518 65.2115 404.594 65.2115 403.376C65.2115 402.074 64.1615 401.234 62.4955 401.234C61.5995 401.234 60.8715 401.514 60.3255 402.074Z" fill="#1A3341"/>
<path d="M33 418.582C33 417.477 33.8954 416.582 35 416.582H79C80.1046 416.582 81 417.477 81 418.582V511.582H33V418.582Z" fill="url(#paint25_linear_2355_51966)"/>
<path opacity="0.2" d="M45 416.582H69V511.582H45V416.582Z" fill="url(#paint26_linear_2355_51966)"/>
<path opacity="0.04" d="M69 416.582H79C80.1046 416.582 81 417.477 81 418.582V511.582H69V416.582Z" fill="#0D262C"/>
<path opacity="0.5" d="M33 418.582C33 417.477 33.8954 416.582 35 416.582H45V511.582H33V418.582Z" fill="url(#paint27_linear_2355_51966)"/>
<path d="M104.321 405.016L103.299 404.652C103.649 402.916 104.965 401.67 107.051 401.67C109.067 401.67 110.299 402.832 110.299 404.61C110.299 405.548 109.893 406.486 109.389 407.158C109.137 407.508 108.815 407.844 108.437 408.194C107.667 408.88 107.121 409.244 106.323 409.748L105.245 410.42H110.663V411.582H103.033V410.63L105.161 409.216C105.539 408.978 105.805 408.796 105.959 408.684C106.113 408.586 106.365 408.404 106.701 408.166C107.037 407.928 107.289 407.718 107.457 407.564C107.611 407.41 107.821 407.214 108.059 406.962C108.703 406.262 108.941 405.618 109.011 404.736C109.011 403.462 108.185 402.888 106.967 402.888C106.211 402.888 105.609 403.098 105.175 403.518C104.741 403.938 104.447 404.442 104.321 405.016ZM111.731 410.784C111.731 410.392 112.095 410 112.599 410C113.061 410 113.439 410.392 113.439 410.784C113.439 411.232 113.089 411.61 112.599 411.61C112.095 411.61 111.731 411.232 111.731 410.784ZM121.359 411.582H120.141V409.58H114.149V408.768L120.281 401.782H121.359V408.446H123.179V409.58H121.359V411.582ZM120.141 403.742L115.829 408.446H120.141V403.742Z" fill="#2A3C3C"/>
<path d="M104.321 405.016L103.299 404.652C103.649 402.916 104.965 401.67 107.051 401.67C109.067 401.67 110.299 402.832 110.299 404.61C110.299 405.548 109.893 406.486 109.389 407.158C109.137 407.508 108.815 407.844 108.437 408.194C107.667 408.88 107.121 409.244 106.323 409.748L105.245 410.42H110.663V411.582H103.033V410.63L105.161 409.216C105.539 408.978 105.805 408.796 105.959 408.684C106.113 408.586 106.365 408.404 106.701 408.166C107.037 407.928 107.289 407.718 107.457 407.564C107.611 407.41 107.821 407.214 108.059 406.962C108.703 406.262 108.941 405.618 109.011 404.736C109.011 403.462 108.185 402.888 106.967 402.888C106.211 402.888 105.609 403.098 105.175 403.518C104.741 403.938 104.447 404.442 104.321 405.016ZM111.731 410.784C111.731 410.392 112.095 410 112.599 410C113.061 410 113.439 410.392 113.439 410.784C113.439 411.232 113.089 411.61 112.599 411.61C112.095 411.61 111.731 411.232 111.731 410.784ZM121.359 411.582H120.141V409.58H114.149V408.768L120.281 401.782H121.359V408.446H123.179V409.58H121.359V411.582ZM120.141 403.742L115.829 408.446H120.141V403.742Z" fill="#1A3341"/>
<path d="M89 423.582C89 422.477 89.8954 421.582 91 421.582H135C136.105 421.582 137 422.477 137 423.582V511.582H89V423.582Z" fill="url(#paint28_linear_2355_51966)"/>
<path opacity="0.2" d="M101 421.582H125V511.582H101V421.582Z" fill="url(#paint29_linear_2355_51966)"/>
<path opacity="0.04" d="M125 421.582H135C136.105 421.582 137 422.477 137 423.582V511.582H125V421.582Z" fill="#0D262C"/>
<path opacity="0.5" d="M89 423.582C89 422.477 89.8954 421.582 91 421.582H101V511.582H89V423.582Z" fill="url(#paint30_linear_2355_51966)"/>
<line x1="-4.37114e-08" y1="511.082" x2="335" y2="511.082" stroke="#ABBEC9"/>
<path d="M78.0897 523.382C78.0897 522.17 78.4977 521.138 79.3257 520.31C80.1537 519.482 81.1617 519.074 82.3617 519.074C83.5497 519.074 84.5577 519.482 85.3857 520.298C86.2137 521.114 86.6217 522.146 86.6217 523.382C86.6217 524.57 86.1777 525.626 85.2897 526.526L86.1297 527.534L85.3857 528.158L84.5217 527.114C83.8377 527.498 83.1177 527.69 82.3617 527.69C81.1377 527.69 80.1177 527.282 79.3137 526.466C78.4977 525.662 78.0897 524.63 78.0897 523.382ZM79.2297 523.382C79.2297 524.33 79.5297 525.11 80.1297 525.722C80.7297 526.334 81.4737 526.646 82.3617 526.646C82.9017 526.646 83.3937 526.514 83.8617 526.238L83.1417 525.374L83.8377 524.762L84.6057 525.686C85.1937 525.074 85.4817 524.306 85.4817 523.382C85.4817 522.434 85.1817 521.654 84.5817 521.042C83.9817 520.43 83.2377 520.118 82.3617 520.118C81.4737 520.118 80.7297 520.418 80.1297 521.03C79.5297 521.642 79.2297 522.434 79.2297 523.382ZM88.2801 521.63L87.3801 521.222C87.8241 519.926 88.9881 519.074 90.7281 519.074C91.5561 519.074 92.2401 519.266 92.7681 519.65C93.2961 520.034 93.5601 520.55 93.5601 521.186C93.5601 522.158 93.0441 522.878 92.0841 523.154C93.0081 523.214 93.7521 523.91 93.7521 525.158C93.7521 525.95 93.4641 526.574 92.8881 527.018C92.3121 527.462 91.5801 527.69 90.6801 527.69C88.8441 527.69 87.5721 526.814 87.1521 525.434L88.1241 525.014C88.6401 526.106 89.5161 526.658 90.7521 526.658C91.9161 526.658 92.6481 526.118 92.6481 525.17C92.6481 524.246 91.9281 523.778 90.4881 523.778H89.5521V522.782H90.2961C91.6041 522.782 92.4561 522.194 92.4561 521.39C92.4561 520.562 91.7721 520.094 90.6801 520.094C89.3961 520.094 88.6161 520.754 88.2801 521.63ZM72.5564 535.954L71.6804 535.642C71.9804 534.154 73.1084 533.086 74.8964 533.086C76.6244 533.086 77.6804 534.082 77.6804 535.606C77.6804 536.41 77.3324 537.214 76.9004 537.79C76.6844 538.09 76.4084 538.378 76.0844 538.678C75.4244 539.266 74.9564 539.578 74.2724 540.01L73.3484 540.586H77.9924V541.582H71.4524V540.766L73.2764 539.554C73.6004 539.35 73.8284 539.194 73.9604 539.098C74.0924 539.014 74.3084 538.858 74.5964 538.654C74.8844 538.45 75.1004 538.27 75.2444 538.138C75.3764 538.006 75.5564 537.838 75.7604 537.622C76.3124 537.022 76.5164 536.47 76.5764 535.714C76.5764 534.622 75.8684 534.13 74.8244 534.13C74.1764 534.13 73.6604 534.31 73.2884 534.67C72.9164 535.03 72.6644 535.462 72.5564 535.954ZM78.824 537.382C78.824 536.086 79.124 535.042 79.736 534.262C80.336 533.482 81.224 533.086 82.388 533.086C84.776 533.086 85.964 534.658 85.964 537.382C85.964 538.69 85.664 539.722 85.076 540.502C84.476 541.282 83.588 541.678 82.412 541.678C81.284 541.678 80.408 541.282 79.772 540.49C79.136 539.698 78.824 538.666 78.824 537.382ZM79.928 537.382C79.928 539.434 80.864 540.658 82.412 540.658C84.044 540.658 84.86 539.566 84.86 537.382C84.86 535.198 84.032 534.106 82.388 534.106C80.72 534.106 79.928 535.306 79.928 537.382ZM87.8203 535.954L86.9443 535.642C87.2443 534.154 88.3723 533.086 90.1603 533.086C91.8883 533.086 92.9443 534.082 92.9443 535.606C92.9443 536.41 92.5963 537.214 92.1643 537.79C91.9483 538.09 91.6723 538.378 91.3483 538.678C90.6883 539.266 90.2203 539.578 89.5363 540.01L88.6123 540.586H93.2563V541.582H86.7163V540.766L88.5403 539.554C88.8643 539.35 89.0923 539.194 89.2243 539.098C89.3563 539.014 89.5723 538.858 89.8603 538.654C90.1483 538.45 90.3643 538.27 90.5083 538.138C90.6403 538.006 90.8203 537.838 91.0243 537.622C91.5763 537.022 91.7803 536.47 91.8403 535.714C91.8403 534.622 91.1323 534.13 90.0883 534.13C89.4403 534.13 88.9243 534.31 88.5523 534.67C88.1803 535.03 87.9283 535.462 87.8203 535.954ZM95.048 535.954L94.172 535.642C94.472 534.154 95.6 533.086 97.388 533.086C99.116 533.086 100.172 534.082 100.172 535.606C100.172 536.41 99.824 537.214 99.392 537.79C99.176 538.09 98.9 538.378 98.576 538.678C97.916 539.266 97.448 539.578 96.764 540.01L95.84 540.586H100.484V541.582H93.944V540.766L95.768 539.554C96.092 539.35 96.32 539.194 96.452 539.098C96.584 539.014 96.8 538.858 97.088 538.654C97.376 538.45 97.592 538.27 97.736 538.138C97.868 538.006 98.048 537.838 98.252 537.622C98.804 537.022 99.008 536.47 99.068 535.714C99.068 534.622 98.36 534.13 97.316 534.13C96.668 534.13 96.152 534.31 95.78 534.67C95.408 535.03 95.156 535.462 95.048 535.954Z" fill="#76848D"/>
<path d="M228.762 523.382C228.762 522.17 229.17 521.138 229.998 520.31C230.826 519.482 231.834 519.074 233.034 519.074C234.222 519.074 235.23 519.482 236.058 520.298C236.886 521.114 237.294 522.146 237.294 523.382C237.294 524.57 236.85 525.626 235.962 526.526L236.802 527.534L236.058 528.158L235.194 527.114C234.51 527.498 233.79 527.69 233.034 527.69C231.81 527.69 230.79 527.282 229.986 526.466C229.17 525.662 228.762 524.63 228.762 523.382ZM229.902 523.382C229.902 524.33 230.202 525.11 230.802 525.722C231.402 526.334 232.146 526.646 233.034 526.646C233.574 526.646 234.066 526.514 234.534 526.238L233.814 525.374L234.51 524.762L235.278 525.686C235.866 525.074 236.154 524.306 236.154 523.382C236.154 522.434 235.854 521.654 235.254 521.042C234.654 520.43 233.91 520.118 233.034 520.118C232.146 520.118 231.402 520.418 230.802 521.03C230.202 521.642 229.902 522.434 229.902 523.382ZM243.92 527.582H242.876V525.866H237.74V525.17L242.996 519.182H243.92V524.894H245.48V525.866H243.92V527.582ZM242.876 520.862L239.18 524.894H242.876V520.862ZM223.556 535.954L222.68 535.642C222.98 534.154 224.108 533.086 225.896 533.086C227.624 533.086 228.68 534.082 228.68 535.606C228.68 536.41 228.332 537.214 227.9 537.79C227.684 538.09 227.408 538.378 227.084 538.678C226.424 539.266 225.956 539.578 225.272 540.01L224.348 540.586H228.992V541.582H222.452V540.766L224.276 539.554C224.6 539.35 224.828 539.194 224.96 539.098C225.092 539.014 225.308 538.858 225.596 538.654C225.884 538.45 226.1 538.27 226.244 538.138C226.376 538.006 226.556 537.838 226.76 537.622C227.312 537.022 227.516 536.47 227.576 535.714C227.576 534.622 226.868 534.13 225.824 534.13C225.176 534.13 224.66 534.31 224.288 534.67C223.916 535.03 223.664 535.462 223.556 535.954ZM229.824 537.382C229.824 536.086 230.124 535.042 230.736 534.262C231.336 533.482 232.224 533.086 233.388 533.086C235.776 533.086 236.964 534.658 236.964 537.382C236.964 538.69 236.664 539.722 236.076 540.502C235.476 541.282 234.588 541.678 233.412 541.678C232.284 541.678 231.408 541.282 230.772 540.49C230.136 539.698 229.824 538.666 229.824 537.382ZM230.928 537.382C230.928 539.434 231.864 540.658 233.412 540.658C235.044 540.658 235.86 539.566 235.86 537.382C235.86 535.198 235.032 534.106 233.388 534.106C231.72 534.106 230.928 535.306 230.928 537.382ZM238.82 535.954L237.944 535.642C238.244 534.154 239.372 533.086 241.16 533.086C242.888 533.086 243.944 534.082 243.944 535.606C243.944 536.41 243.596 537.214 243.164 537.79C242.948 538.09 242.672 538.378 242.348 538.678C241.688 539.266 241.22 539.578 240.536 540.01L239.612 540.586H244.256V541.582H237.716V540.766L239.54 539.554C239.864 539.35 240.092 539.194 240.224 539.098C240.356 539.014 240.572 538.858 240.86 538.654C241.148 538.45 241.364 538.27 241.508 538.138C241.64 538.006 241.82 537.838 242.024 537.622C242.576 537.022 242.78 536.47 242.84 535.714C242.84 534.622 242.132 534.13 241.088 534.13C240.44 534.13 239.924 534.31 239.552 534.67C239.18 535.03 238.928 535.462 238.82 535.954ZM246.048 535.954L245.172 535.642C245.472 534.154 246.6 533.086 248.388 533.086C250.116 533.086 251.172 534.082 251.172 535.606C251.172 536.41 250.824 537.214 250.392 537.79C250.176 538.09 249.9 538.378 249.576 538.678C248.916 539.266 248.448 539.578 247.764 540.01L246.84 540.586H251.484V541.582H244.944V540.766L246.768 539.554C247.092 539.35 247.32 539.194 247.452 539.098C247.584 539.014 247.8 538.858 248.088 538.654C248.376 538.45 248.592 538.27 248.736 538.138C248.868 538.006 249.048 537.838 249.252 537.622C249.804 537.022 250.008 536.47 250.068 535.714C250.068 534.622 249.36 534.13 248.316 534.13C247.668 534.13 247.152 534.31 246.78 534.67C246.408 535.03 246.156 535.462 246.048 535.954Z" fill="#76848D"/>
<path d="M47.5606 90.074L46.5526 89.808L47.1266 84.782H53.2866V85.972H48.2046L47.8406 88.604C48.3306 88.24 49.0726 88.058 50.0666 88.058C51.2146 88.058 52.1106 88.366 52.7686 88.968C53.4126 89.584 53.7346 90.368 53.7346 91.334C53.7346 92.3 53.3706 93.112 52.6566 93.742C51.9286 94.386 51.0186 94.708 49.9406 94.708C48.1066 94.708 46.5806 93.84 45.9506 92.314L47.0706 91.838C47.4766 92.776 48.5266 93.518 49.9406 93.518C51.5506 93.518 52.4466 92.594 52.4466 91.376C52.4466 90.074 51.3966 89.234 49.7306 89.234C48.8346 89.234 48.1066 89.514 47.5606 90.074ZM54.8953 93.784C54.8953 93.392 55.2593 93 55.7633 93C56.2253 93 56.6033 93.392 56.6033 93.784C56.6033 94.232 56.2533 94.61 55.7633 94.61C55.2593 94.61 54.8953 94.232 54.8953 93.784ZM57.7608 89.948C57.7608 88.254 58.1808 86.952 59.0068 86.028C59.8328 85.118 60.8688 84.656 62.1148 84.656C63.7528 84.656 65.0408 85.398 65.5868 86.574L64.6348 87.218C64.0608 86.308 63.2068 85.86 62.0588 85.86C61.1908 85.86 60.4628 86.196 59.8748 86.868C59.2868 87.554 58.9928 88.478 59.0068 89.668C59.5528 88.646 60.8268 88.03 62.2268 88.03C63.3608 88.03 64.2708 88.324 64.9288 88.926C65.5868 89.528 65.9228 90.326 65.9228 91.306C65.9228 92.3 65.5588 93.126 64.8168 93.756C64.0748 94.386 63.1508 94.708 62.0448 94.708C59.3988 94.708 57.7608 92.986 57.7608 89.948ZM59.1608 91.138C59.4268 92.524 60.4768 93.504 62.0308 93.504C62.7868 93.504 63.4168 93.308 63.9068 92.902C64.3968 92.51 64.6348 91.992 64.6348 91.362C64.6348 89.976 63.6548 89.234 62.1568 89.234C61.3308 89.234 60.6448 89.43 60.1128 89.822C59.5668 90.214 59.2588 90.648 59.1608 91.138Z" fill="#1A3341"/>
<path d="M32 106.582C32 105.477 32.8954 104.582 34 104.582H78C79.1046 104.582 80 105.477 80 106.582V324.582H32V106.582Z" fill="url(#paint31_linear_2355_51966)"/>
<path opacity="0.2" d="M44 104.582H68V324.582H44V104.582Z" fill="url(#paint32_linear_2355_51966)"/>
<path opacity="0.04" d="M68 104.582H78C79.1046 104.582 80 105.477 80 106.582V324.582H68V104.582Z" fill="#0D262C"/>
<path opacity="0.5" d="M32 106.582C32 105.477 32.8954 104.582 34 104.582H44V324.582H32V106.582Z" fill="url(#paint33_linear_2355_51966)"/>
<path d="M103.814 96.074L102.806 95.808L103.38 90.782H109.54V91.972H104.458L104.094 94.604C104.584 94.24 105.326 94.058 106.32 94.058C107.468 94.058 108.364 94.366 109.022 94.968C109.666 95.584 109.988 96.368 109.988 97.334C109.988 98.3 109.624 99.112 108.91 99.742C108.182 100.386 107.272 100.708 106.194 100.708C104.36 100.708 102.834 99.84 102.204 98.314L103.324 97.838C103.73 98.776 104.78 99.518 106.194 99.518C107.804 99.518 108.7 98.594 108.7 97.376C108.7 96.074 107.65 95.234 105.984 95.234C105.088 95.234 104.36 95.514 103.814 96.074ZM111.148 99.784C111.148 99.392 111.512 99 112.016 99C112.478 99 112.856 99.392 112.856 99.784C112.856 100.232 112.506 100.61 112.016 100.61C111.512 100.61 111.148 100.232 111.148 99.784ZM115.442 96.074L114.434 95.808L115.008 90.782H121.168V91.972H116.086L115.722 94.604C116.212 94.24 116.954 94.058 117.948 94.058C119.096 94.058 119.992 94.366 120.65 94.968C121.294 95.584 121.616 96.368 121.616 97.334C121.616 98.3 121.252 99.112 120.538 99.742C119.81 100.386 118.9 100.708 117.822 100.708C115.988 100.708 114.462 99.84 113.832 98.314L114.952 97.838C115.358 98.776 116.408 99.518 117.822 99.518C119.432 99.518 120.328 98.594 120.328 97.376C120.328 96.074 119.278 95.234 117.612 95.234C116.716 95.234 115.988 95.514 115.442 96.074Z" fill="#2A3C3C"/>
<path d="M103.814 96.074L102.806 95.808L103.38 90.782H109.54V91.972H104.458L104.094 94.604C104.584 94.24 105.326 94.058 106.32 94.058C107.468 94.058 108.364 94.366 109.022 94.968C109.666 95.584 109.988 96.368 109.988 97.334C109.988 98.3 109.624 99.112 108.91 99.742C108.182 100.386 107.272 100.708 106.194 100.708C104.36 100.708 102.834 99.84 102.204 98.314L103.324 97.838C103.73 98.776 104.78 99.518 106.194 99.518C107.804 99.518 108.7 98.594 108.7 97.376C108.7 96.074 107.65 95.234 105.984 95.234C105.088 95.234 104.36 95.514 103.814 96.074ZM111.148 99.784C111.148 99.392 111.512 99 112.016 99C112.478 99 112.856 99.392 112.856 99.784C112.856 100.232 112.506 100.61 112.016 100.61C111.512 100.61 111.148 100.232 111.148 99.784ZM115.442 96.074L114.434 95.808L115.008 90.782H121.168V91.972H116.086L115.722 94.604C116.212 94.24 116.954 94.058 117.948 94.058C119.096 94.058 119.992 94.366 120.65 94.968C121.294 95.584 121.616 96.368 121.616 97.334C121.616 98.3 121.252 99.112 120.538 99.742C119.81 100.386 118.9 100.708 117.822 100.708C115.988 100.708 114.462 99.84 113.832 98.314L114.952 97.838C115.358 98.776 116.408 99.518 117.822 99.518C119.432 99.518 120.328 98.594 120.328 97.376C120.328 96.074 119.278 95.234 117.612 95.234C116.716 95.234 115.988 95.514 115.442 96.074Z" fill="#1A3341"/>
<path d="M88 112.582C88 111.477 88.8954 110.582 90 110.582H134C135.105 110.582 136 111.477 136 112.582V324.582H88V112.582Z" fill="url(#paint34_linear_2355_51966)"/>
<path opacity="0.2" d="M100 110.582H124V324.582H100V110.582Z" fill="url(#paint35_linear_2355_51966)"/>
<path opacity="0.04" d="M124 110.582H134C135.105 110.582 136 111.477 136 112.582V324.582H124V110.582Z" fill="#0D262C"/>
<path opacity="0.5" d="M88 112.582C88 111.477 88.8954 110.582 90 110.582H100V324.582H88V112.582Z" fill="url(#paint36_linear_2355_51966)"/>
<path d="M204.546 148.582H203.328V146.58H197.336V145.768L203.468 138.782H204.546V145.446H206.366V146.58H204.546V148.582ZM203.328 140.742L199.016 145.446H203.328V140.742ZM207.148 147.784C207.148 147.392 207.512 147 208.016 147C208.478 147 208.856 147.392 208.856 147.784C208.856 148.232 208.506 148.61 208.016 148.61C207.512 148.61 207.148 148.232 207.148 147.784ZM216.776 148.582H215.558V146.58H209.566V145.768L215.698 138.782H216.776V145.446H218.596V146.58H216.776V148.582ZM215.558 140.742L211.246 145.446H215.558V140.742Z" fill="#1A3341"/>
<path d="M184 160.582C184 159.477 184.895 158.582 186 158.582H230C231.105 158.582 232 159.477 232 160.582V324.582H184V160.582Z" fill="url(#paint37_linear_2355_51966)"/>
<path opacity="0.2" d="M196 158.582H220V324.582H196V158.582Z" fill="url(#paint38_linear_2355_51966)"/>
<path opacity="0.04" d="M220 158.582H230C231.105 158.582 232 159.477 232 160.582V324.582H220V158.582Z" fill="#0D262C"/>
<path opacity="0.5" d="M184 160.582C184 159.477 184.895 158.582 186 158.582H196V324.582H184V160.582Z" fill="url(#paint39_linear_2355_51966)"/>
<path d="M260.929 152.582H259.711V150.58H253.719V149.768L259.851 142.782H260.929V149.446H262.749V150.58H260.929V152.582ZM259.711 144.742L255.399 149.446H259.711V144.742ZM263.531 151.784C263.531 151.392 263.895 151 264.399 151C264.861 151 265.239 151.392 265.239 151.784C265.239 152.232 264.889 152.61 264.399 152.61C263.895 152.61 263.531 152.232 263.531 151.784ZM267.363 145.638L266.313 145.162C266.831 143.65 268.189 142.656 270.219 142.656C271.185 142.656 271.983 142.88 272.599 143.328C273.215 143.776 273.523 144.378 273.523 145.12C273.523 146.254 272.921 147.094 271.801 147.416C272.879 147.486 273.747 148.298 273.747 149.754C273.747 150.678 273.411 151.406 272.739 151.924C272.067 152.442 271.213 152.708 270.163 152.708C268.021 152.708 266.537 151.686 266.047 150.076L267.181 149.586C267.783 150.86 268.805 151.504 270.247 151.504C271.605 151.504 272.459 150.874 272.459 149.768C272.459 148.69 271.619 148.144 269.939 148.144H268.847V146.982H269.715C271.241 146.982 272.235 146.296 272.235 145.358C272.235 144.392 271.437 143.846 270.163 143.846C268.665 143.846 267.755 144.616 267.363 145.638Z" fill="#2A3C3C"/>
<path d="M260.929 152.582H259.711V150.58H253.719V149.768L259.851 142.782H260.929V149.446H262.749V150.58H260.929V152.582ZM259.711 144.742L255.399 149.446H259.711V144.742ZM263.531 151.784C263.531 151.392 263.895 151 264.399 151C264.861 151 265.239 151.392 265.239 151.784C265.239 152.232 264.889 152.61 264.399 152.61C263.895 152.61 263.531 152.232 263.531 151.784ZM267.363 145.638L266.313 145.162C266.831 143.65 268.189 142.656 270.219 142.656C271.185 142.656 271.983 142.88 272.599 143.328C273.215 143.776 273.523 144.378 273.523 145.12C273.523 146.254 272.921 147.094 271.801 147.416C272.879 147.486 273.747 148.298 273.747 149.754C273.747 150.678 273.411 151.406 272.739 151.924C272.067 152.442 271.213 152.708 270.163 152.708C268.021 152.708 266.537 151.686 266.047 150.076L267.181 149.586C267.783 150.86 268.805 151.504 270.247 151.504C271.605 151.504 272.459 150.874 272.459 149.768C272.459 148.69 271.619 148.144 269.939 148.144H268.847V146.982H269.715C271.241 146.982 272.235 146.296 272.235 145.358C272.235 144.392 271.437 143.846 270.163 143.846C268.665 143.846 267.755 144.616 267.363 145.638Z" fill="#1A3341"/>
<path d="M240 164.582C240 163.477 240.895 162.582 242 162.582H286C287.105 162.582 288 163.477 288 164.582V324.582H240V164.582Z" fill="url(#paint40_linear_2355_51966)"/>
<path opacity="0.2" d="M252 162.582H276V324.582H252V162.582Z" fill="url(#paint41_linear_2355_51966)"/>
<path opacity="0.04" d="M276 162.582H286C287.105 162.582 288 163.477 288 164.582V324.582H276V162.582Z" fill="#0D262C"/>
<path opacity="0.5" d="M240 164.582C240 163.477 240.895 162.582 242 162.582H252V324.582H240V164.582Z" fill="url(#paint42_linear_2355_51966)"/>
<line x1="-4.37114e-08" y1="325.082" x2="335" y2="325.082" stroke="#ABBEC9"/>
<path d="M77.6868 337.382C77.6868 336.17 78.0948 335.138 78.9228 334.31C79.7508 333.482 80.7588 333.074 81.9588 333.074C83.1468 333.074 84.1548 333.482 84.9828 334.298C85.8108 335.114 86.2188 336.146 86.2188 337.382C86.2188 338.57 85.7748 339.626 84.8868 340.526L85.7268 341.534L84.9828 342.158L84.1188 341.114C83.4348 341.498 82.7148 341.69 81.9588 341.69C80.7348 341.69 79.7148 341.282 78.9108 340.466C78.0948 339.662 77.6868 338.63 77.6868 337.382ZM78.8268 337.382C78.8268 338.33 79.1268 339.11 79.7268 339.722C80.3268 340.334 81.0708 340.646 81.9588 340.646C82.4988 340.646 82.9908 340.514 83.4588 340.238L82.7388 339.374L83.4348 338.762L84.2028 339.686C84.7908 339.074 85.0788 338.306 85.0788 337.382C85.0788 336.434 84.7788 335.654 84.1788 335.042C83.5788 334.43 82.8348 334.118 81.9588 334.118C81.0708 334.118 80.3268 334.418 79.7268 335.03C79.1268 335.642 78.8268 336.434 78.8268 337.382ZM86.9532 335.414L86.5692 334.514L89.4492 333.134H90.1332V341.582H89.1012V334.418L86.9532 335.414ZM72.5564 349.954L71.6804 349.642C71.9804 348.154 73.1084 347.086 74.8964 347.086C76.6244 347.086 77.6804 348.082 77.6804 349.606C77.6804 350.41 77.3324 351.214 76.9004 351.79C76.6844 352.09 76.4084 352.378 76.0844 352.678C75.4244 353.266 74.9564 353.578 74.2724 354.01L73.3484 354.586H77.9924V355.582H71.4524V354.766L73.2764 353.554C73.6004 353.35 73.8284 353.194 73.9604 353.098C74.0924 353.014 74.3084 352.858 74.5964 352.654C74.8844 352.45 75.1004 352.27 75.2444 352.138C75.3764 352.006 75.5564 351.838 75.7604 351.622C76.3124 351.022 76.5164 350.47 76.5764 349.714C76.5764 348.622 75.8684 348.13 74.8244 348.13C74.1764 348.13 73.6604 348.31 73.2884 348.67C72.9164 349.03 72.6644 349.462 72.5564 349.954ZM78.824 351.382C78.824 350.086 79.124 349.042 79.736 348.262C80.336 347.482 81.224 347.086 82.388 347.086C84.776 347.086 85.964 348.658 85.964 351.382C85.964 352.69 85.664 353.722 85.076 354.502C84.476 355.282 83.588 355.678 82.412 355.678C81.284 355.678 80.408 355.282 79.772 354.49C79.136 353.698 78.824 352.666 78.824 351.382ZM79.928 351.382C79.928 353.434 80.864 354.658 82.412 354.658C84.044 354.658 84.86 353.566 84.86 351.382C84.86 349.198 84.032 348.106 82.388 348.106C80.72 348.106 79.928 349.306 79.928 351.382ZM87.8203 349.954L86.9443 349.642C87.2443 348.154 88.3723 347.086 90.1603 347.086C91.8883 347.086 92.9443 348.082 92.9443 349.606C92.9443 350.41 92.5963 351.214 92.1643 351.79C91.9483 352.09 91.6723 352.378 91.3483 352.678C90.6883 353.266 90.2203 353.578 89.5363 354.01L88.6123 354.586H93.2563V355.582H86.7163V354.766L88.5403 353.554C88.8643 353.35 89.0923 353.194 89.2243 353.098C89.3563 353.014 89.5723 352.858 89.8603 352.654C90.1483 352.45 90.3643 352.27 90.5083 352.138C90.6403 352.006 90.8203 351.838 91.0243 351.622C91.5763 351.022 91.7803 350.47 91.8403 349.714C91.8403 348.622 91.1323 348.13 90.0883 348.13C89.4403 348.13 88.9243 348.31 88.5523 348.67C88.1803 349.03 87.9283 349.462 87.8203 349.954ZM95.048 349.954L94.172 349.642C94.472 348.154 95.6 347.086 97.388 347.086C99.116 347.086 100.172 348.082 100.172 349.606C100.172 350.41 99.824 351.214 99.392 351.79C99.176 352.09 98.9 352.378 98.576 352.678C97.916 353.266 97.448 353.578 96.764 354.01L95.84 354.586H100.484V355.582H93.944V354.766L95.768 353.554C96.092 353.35 96.32 353.194 96.452 353.098C96.584 353.014 96.8 352.858 97.088 352.654C97.376 352.45 97.592 352.27 97.736 352.138C97.868 352.006 98.048 351.838 98.252 351.622C98.804 351.022 99.008 350.47 99.068 349.714C99.068 348.622 98.36 348.13 97.316 348.13C96.668 348.13 96.152 348.31 95.78 348.67C95.408 349.03 95.156 349.462 95.048 349.954Z" fill="#76848D"/>
<path d="M229.619 337.382C229.619 336.17 230.027 335.138 230.855 334.31C231.683 333.482 232.691 333.074 233.891 333.074C235.079 333.074 236.087 333.482 236.915 334.298C237.743 335.114 238.151 336.146 238.151 337.382C238.151 338.57 237.707 339.626 236.819 340.526L237.659 341.534L236.915 342.158L236.051 341.114C235.367 341.498 234.647 341.69 233.891 341.69C232.667 341.69 231.647 341.282 230.843 340.466C230.027 339.662 229.619 338.63 229.619 337.382ZM230.759 337.382C230.759 338.33 231.059 339.11 231.659 339.722C232.259 340.334 233.003 340.646 233.891 340.646C234.431 340.646 234.923 340.514 235.391 340.238L234.671 339.374L235.367 338.762L236.135 339.686C236.723 339.074 237.011 338.306 237.011 337.382C237.011 336.434 236.711 335.654 236.111 335.042C235.511 334.43 234.767 334.118 233.891 334.118C233.003 334.118 232.259 334.418 231.659 335.03C231.059 335.642 230.759 336.434 230.759 337.382ZM239.941 335.954L239.065 335.642C239.365 334.154 240.493 333.086 242.281 333.086C244.009 333.086 245.065 334.082 245.065 335.606C245.065 336.41 244.717 337.214 244.285 337.79C244.069 338.09 243.793 338.378 243.469 338.678C242.809 339.266 242.341 339.578 241.657 340.01L240.733 340.586H245.377V341.582H238.837V340.766L240.661 339.554C240.985 339.35 241.213 339.194 241.345 339.098C241.477 339.014 241.693 338.858 241.981 338.654C242.269 338.45 242.485 338.27 242.629 338.138C242.761 338.006 242.941 337.838 243.145 337.622C243.697 337.022 243.901 336.47 243.961 335.714C243.961 334.622 243.253 334.13 242.209 334.13C241.561 334.13 241.045 334.31 240.673 334.67C240.301 335.03 240.049 335.462 239.941 335.954ZM224.056 349.954L223.18 349.642C223.48 348.154 224.608 347.086 226.396 347.086C228.124 347.086 229.18 348.082 229.18 349.606C229.18 350.41 228.832 351.214 228.4 351.79C228.184 352.09 227.908 352.378 227.584 352.678C226.924 353.266 226.456 353.578 225.772 354.01L224.848 354.586H229.492V355.582H222.952V354.766L224.776 353.554C225.1 353.35 225.328 353.194 225.46 353.098C225.592 353.014 225.808 352.858 226.096 352.654C226.384 352.45 226.6 352.27 226.744 352.138C226.876 352.006 227.056 351.838 227.26 351.622C227.812 351.022 228.016 350.47 228.076 349.714C228.076 348.622 227.368 348.13 226.324 348.13C225.676 348.13 225.16 348.31 224.788 348.67C224.416 349.03 224.164 349.462 224.056 349.954ZM230.324 351.382C230.324 350.086 230.624 349.042 231.236 348.262C231.836 347.482 232.724 347.086 233.888 347.086C236.276 347.086 237.464 348.658 237.464 351.382C237.464 352.69 237.164 353.722 236.576 354.502C235.976 355.282 235.088 355.678 233.912 355.678C232.784 355.678 231.908 355.282 231.272 354.49C230.636 353.698 230.324 352.666 230.324 351.382ZM231.428 351.382C231.428 353.434 232.364 354.658 233.912 354.658C235.544 354.658 236.36 353.566 236.36 351.382C236.36 349.198 235.532 348.106 233.888 348.106C232.22 348.106 231.428 349.306 231.428 351.382ZM239.32 349.954L238.444 349.642C238.744 348.154 239.872 347.086 241.66 347.086C243.388 347.086 244.444 348.082 244.444 349.606C244.444 350.41 244.096 351.214 243.664 351.79C243.448 352.09 243.172 352.378 242.848 352.678C242.188 353.266 241.72 353.578 241.036 354.01L240.112 354.586H244.756V355.582H238.216V354.766L240.04 353.554C240.364 353.35 240.592 353.194 240.724 353.098C240.856 353.014 241.072 352.858 241.36 352.654C241.648 352.45 241.864 352.27 242.008 352.138C242.14 352.006 242.32 351.838 242.524 351.622C243.076 351.022 243.28 350.47 243.34 349.714C243.34 348.622 242.632 348.13 241.588 348.13C240.94 348.13 240.424 348.31 240.052 348.67C239.68 349.03 239.428 349.462 239.32 349.954ZM246.548 349.954L245.672 349.642C245.972 348.154 247.1 347.086 248.888 347.086C250.616 347.086 251.672 348.082 251.672 349.606C251.672 350.41 251.324 351.214 250.892 351.79C250.676 352.09 250.4 352.378 250.076 352.678C249.416 353.266 248.948 353.578 248.264 354.01L247.34 354.586H251.984V355.582H245.444V354.766L247.268 353.554C247.592 353.35 247.82 353.194 247.952 353.098C248.084 353.014 248.3 352.858 248.588 352.654C248.876 352.45 249.092 352.27 249.236 352.138C249.368 352.006 249.548 351.838 249.752 351.622C250.304 351.022 250.508 350.47 250.568 349.714C250.568 348.622 249.86 348.13 248.816 348.13C248.168 348.13 247.652 348.31 247.28 348.67C246.908 349.03 246.656 349.462 246.548 349.954Z" fill="#76848D"/>
<defs>
<linearGradient id="paint0_linear_2355_51966" x1="0.476191" y1="12.582" x2="10" y2="12.582" gradientUnits="userSpaceOnUse">
<stop stop-color="#CEE8EF"/>
<stop offset="1" stop-color="#CEE8EF"/>
</linearGradient>
<linearGradient id="paint1_linear_2355_51966" x1="208" y1="761.582" x2="208" y2="769.582" gradientUnits="userSpaceOnUse">
<stop stop-color="#CDE3E9"/>
<stop offset="1" stop-color="#D3E8ED"/>
</linearGradient>
<linearGradient id="paint2_linear_2355_51966" x1="208" y1="761.582" x2="208" y2="769.582" gradientUnits="userSpaceOnUse">
<stop stop-color="white" stop-opacity="0"/>
<stop offset="0.739583" stop-color="white"/>
</linearGradient>
<linearGradient id="paint3_linear_2355_51966" x1="190" y1="745.982" x2="190" y2="769.582" gradientUnits="userSpaceOnUse">
<stop stop-color="white" stop-opacity="0.05"/>
<stop offset="0.75" stop-color="white" stop-opacity="0.8"/>
</linearGradient>
<linearGradient id="paint4_linear_2355_51966" x1="264" y1="765.582" x2="264" y2="769.582" gradientUnits="userSpaceOnUse">
<stop stop-color="#6D73F9"/>
<stop offset="1" stop-color="#9BB8F1"/>
</linearGradient>
<linearGradient id="paint5_linear_2355_51966" x1="264" y1="765.582" x2="264" y2="769.582" gradientUnits="userSpaceOnUse">
<stop stop-color="white" stop-opacity="0"/>
<stop offset="0.739583" stop-color="white"/>
</linearGradient>
<linearGradient id="paint6_linear_2355_51966" x1="246" y1="757.782" x2="246" y2="769.582" gradientUnits="userSpaceOnUse">
<stop stop-color="white" stop-opacity="0.05"/>
<stop offset="0.75" stop-color="white" stop-opacity="0.8"/>
</linearGradient>
<linearGradient id="paint7_linear_2355_51966" x1="58" y1="613.582" x2="58" y2="654.582" gradientUnits="userSpaceOnUse">
<stop stop-color="#CDE3E9"/>
<stop offset="1" stop-color="#D3E8ED"/>
</linearGradient>
<linearGradient id="paint8_linear_2355_51966" x1="58" y1="613.582" x2="58" y2="654.582" gradientUnits="userSpaceOnUse">
<stop stop-color="white" stop-opacity="0"/>
<stop offset="0.739583" stop-color="white"/>
</linearGradient>
<linearGradient id="paint9_linear_2355_51966" x1="40" y1="533.632" x2="40" y2="654.582" gradientUnits="userSpaceOnUse">
<stop stop-color="white" stop-opacity="0.05"/>
<stop offset="0.75" stop-color="white" stop-opacity="0.8"/>
</linearGradient>
<linearGradient id="paint10_linear_2355_51966" x1="114" y1="609.582" x2="114" y2="654.582" gradientUnits="userSpaceOnUse">
<stop stop-color="#6D73F9"/>
<stop offset="1" stop-color="#9BB8F1"/>
</linearGradient>
<linearGradient id="paint11_linear_2355_51966" x1="114" y1="609.582" x2="114" y2="654.582" gradientUnits="userSpaceOnUse">
<stop stop-color="white" stop-opacity="0"/>
<stop offset="0.739583" stop-color="white"/>
</linearGradient>
<linearGradient id="paint12_linear_2355_51966" x1="96" y1="521.832" x2="96" y2="654.582" gradientUnits="userSpaceOnUse">
<stop stop-color="white" stop-opacity="0.05"/>
<stop offset="0.75" stop-color="white" stop-opacity="0.8"/>
</linearGradient>
<linearGradient id="paint13_linear_2355_51966" x1="207" y1="635.582" x2="207" y2="655.582" gradientUnits="userSpaceOnUse">
<stop stop-color="#CDE3E9"/>
<stop offset="1" stop-color="#D3E8ED"/>
</linearGradient>
<linearGradient id="paint14_linear_2355_51966" x1="207" y1="635.582" x2="207" y2="655.582" gradientUnits="userSpaceOnUse">
<stop stop-color="white" stop-opacity="0"/>
<stop offset="0.739583" stop-color="white"/>
</linearGradient>
<linearGradient id="paint15_linear_2355_51966" x1="189" y1="596.582" x2="189" y2="655.582" gradientUnits="userSpaceOnUse">
<stop stop-color="white" stop-opacity="0.05"/>
<stop offset="0.75" stop-color="white" stop-opacity="0.8"/>
</linearGradient>
<linearGradient id="paint16_linear_2355_51966" x1="263" y1="631.582" x2="263" y2="655.582" gradientUnits="userSpaceOnUse">
<stop stop-color="#6D73F9"/>
<stop offset="1" stop-color="#9BB8F1"/>
</linearGradient>
<linearGradient id="paint17_linear_2355_51966" x1="263" y1="631.582" x2="263" y2="655.582" gradientUnits="userSpaceOnUse">
<stop stop-color="white" stop-opacity="0"/>
<stop offset="0.739583" stop-color="white"/>
</linearGradient>
<linearGradient id="paint18_linear_2355_51966" x1="245" y1="584.782" x2="245" y2="655.582" gradientUnits="userSpaceOnUse">
<stop stop-color="white" stop-opacity="0.05"/>
<stop offset="0.75" stop-color="white" stop-opacity="0.8"/>
</linearGradient>
<linearGradient id="paint19_linear_2355_51966" x1="209" y1="448.582" x2="209" y2="511.582" gradientUnits="userSpaceOnUse">
<stop stop-color="#CDE3E9"/>
<stop offset="1" stop-color="#D3E8ED"/>
</linearGradient>
<linearGradient id="paint20_linear_2355_51966" x1="209" y1="448.582" x2="209" y2="511.582" gradientUnits="userSpaceOnUse">
<stop stop-color="white" stop-opacity="0"/>
<stop offset="0.739583" stop-color="white"/>
</linearGradient>
<linearGradient id="paint21_linear_2355_51966" x1="191" y1="325.732" x2="191" y2="511.582" gradientUnits="userSpaceOnUse">
<stop stop-color="white" stop-opacity="0.05"/>
<stop offset="0.75" stop-color="white" stop-opacity="0.8"/>
</linearGradient>
<linearGradient id="paint22_linear_2355_51966" x1="265" y1="444.582" x2="265" y2="511.582" gradientUnits="userSpaceOnUse">
<stop stop-color="#6D73F9"/>
<stop offset="1" stop-color="#9BB8F1"/>
</linearGradient>
<linearGradient id="paint23_linear_2355_51966" x1="265" y1="444.582" x2="265" y2="511.582" gradientUnits="userSpaceOnUse">
<stop stop-color="white" stop-opacity="0"/>
<stop offset="0.739583" stop-color="white"/>
</linearGradient>
<linearGradient id="paint24_linear_2355_51966" x1="247" y1="313.932" x2="247" y2="511.582" gradientUnits="userSpaceOnUse">
<stop stop-color="white" stop-opacity="0.05"/>
<stop offset="0.75" stop-color="white" stop-opacity="0.8"/>
</linearGradient>
<linearGradient id="paint25_linear_2355_51966" x1="57" y1="416.582" x2="57" y2="511.582" gradientUnits="userSpaceOnUse">
<stop stop-color="#CDE3E9"/>
<stop offset="1" stop-color="#D3E8ED"/>
</linearGradient>
<linearGradient id="paint26_linear_2355_51966" x1="57" y1="416.582" x2="57" y2="511.582" gradientUnits="userSpaceOnUse">
<stop stop-color="white" stop-opacity="0"/>
<stop offset="0.739583" stop-color="white"/>
</linearGradient>
<linearGradient id="paint27_linear_2355_51966" x1="39" y1="231.332" x2="39" y2="511.582" gradientUnits="userSpaceOnUse">
<stop stop-color="white" stop-opacity="0.05"/>
<stop offset="0.75" stop-color="white" stop-opacity="0.8"/>
</linearGradient>
<linearGradient id="paint28_linear_2355_51966" x1="113" y1="421.582" x2="113" y2="511.582" gradientUnits="userSpaceOnUse">
<stop stop-color="#6D73F9"/>
<stop offset="1" stop-color="#9BB8F1"/>
</linearGradient>
<linearGradient id="paint29_linear_2355_51966" x1="113" y1="421.582" x2="113" y2="511.582" gradientUnits="userSpaceOnUse">
<stop stop-color="white" stop-opacity="0"/>
<stop offset="0.739583" stop-color="white"/>
</linearGradient>
<linearGradient id="paint30_linear_2355_51966" x1="95" y1="246.082" x2="95" y2="511.582" gradientUnits="userSpaceOnUse">
<stop stop-color="white" stop-opacity="0.05"/>
<stop offset="0.75" stop-color="white" stop-opacity="0.8"/>
</linearGradient>
<linearGradient id="paint31_linear_2355_51966" x1="56" y1="104.582" x2="56" y2="324.582" gradientUnits="userSpaceOnUse">
<stop stop-color="#CDE3E9"/>
<stop offset="1" stop-color="#D3E8ED"/>
</linearGradient>
<linearGradient id="paint32_linear_2355_51966" x1="56" y1="104.582" x2="56" y2="324.582" gradientUnits="userSpaceOnUse">
<stop stop-color="white" stop-opacity="0"/>
<stop offset="0.739583" stop-color="white"/>
</linearGradient>
<linearGradient id="paint33_linear_2355_51966" x1="38" y1="-324.418" x2="38" y2="324.582" gradientUnits="userSpaceOnUse">
<stop stop-color="white" stop-opacity="0.05"/>
<stop offset="0.75" stop-color="white" stop-opacity="0.8"/>
</linearGradient>
<linearGradient id="paint34_linear_2355_51966" x1="112" y1="110.582" x2="112" y2="324.582" gradientUnits="userSpaceOnUse">
<stop stop-color="#6D73F9"/>
<stop offset="1" stop-color="#9BB8F1"/>
</linearGradient>
<linearGradient id="paint35_linear_2355_51966" x1="112" y1="110.582" x2="112" y2="324.582" gradientUnits="userSpaceOnUse">
<stop stop-color="white" stop-opacity="0"/>
<stop offset="0.739583" stop-color="white"/>
</linearGradient>
<linearGradient id="paint36_linear_2355_51966" x1="94" y1="-306.718" x2="94" y2="324.582" gradientUnits="userSpaceOnUse">
<stop stop-color="white" stop-opacity="0.05"/>
<stop offset="0.75" stop-color="white" stop-opacity="0.8"/>
</linearGradient>
<linearGradient id="paint37_linear_2355_51966" x1="208" y1="158.582" x2="208" y2="324.582" gradientUnits="userSpaceOnUse">
<stop stop-color="#CDE3E9"/>
<stop offset="1" stop-color="#D3E8ED"/>
</linearGradient>
<linearGradient id="paint38_linear_2355_51966" x1="208" y1="158.582" x2="208" y2="324.582" gradientUnits="userSpaceOnUse">
<stop stop-color="white" stop-opacity="0"/>
<stop offset="0.739583" stop-color="white"/>
</linearGradient>
<linearGradient id="paint39_linear_2355_51966" x1="190" y1="-165.118" x2="190" y2="324.582" gradientUnits="userSpaceOnUse">
<stop stop-color="white" stop-opacity="0.05"/>
<stop offset="0.75" stop-color="white" stop-opacity="0.8"/>
</linearGradient>
<linearGradient id="paint40_linear_2355_51966" x1="264" y1="162.582" x2="264" y2="324.582" gradientUnits="userSpaceOnUse">
<stop stop-color="#6D73F9"/>
<stop offset="1" stop-color="#9BB8F1"/>
</linearGradient>
<linearGradient id="paint41_linear_2355_51966" x1="264" y1="162.582" x2="264" y2="324.582" gradientUnits="userSpaceOnUse">
<stop stop-color="white" stop-opacity="0"/>
<stop offset="0.739583" stop-color="white"/>
</linearGradient>
<linearGradient id="paint42_linear_2355_51966" x1="246" y1="-153.318" x2="246" y2="324.582" gradientUnits="userSpaceOnUse">
<stop stop-color="white" stop-opacity="0.05"/>
<stop offset="0.75" stop-color="white" stop-opacity="0.8"/>
</linearGradient>
</defs>
</svg>
