<svg width="1120" height="329" viewBox="0 0 1120 329" fill="none" xmlns="http://www.w3.org/2000/svg">
<rect y="2" width="10" height="10" fill="url(#paint0_linear_6003_19089)"/>
<path d="M25.044 11H18.888V2.6H24.936V3.62H19.98V6.236H24.6V7.232H19.98V9.98H25.044V11ZM32.3486 2.6H33.4406V7.448C33.4406 8.66 33.1046 9.56 32.4326 10.172C31.7606 10.784 30.9566 11.096 30.0086 11.096C28.9646 11.096 28.1006 10.772 27.4046 10.124C26.7086 9.476 26.3606 8.564 26.3606 7.376V2.6H27.4526V7.22C27.4526 8.12 27.6926 8.816 28.1846 9.308C28.6646 9.812 29.2766 10.064 30.0086 10.064C31.5326 10.064 32.3486 9.008 32.3486 7.28V2.6ZM41.3159 12.752L40.6319 13.448C39.7439 12.68 39.0959 11.804 38.6879 10.82C38.2799 9.836 38.0759 8.864 38.0759 7.892C38.0759 5.972 38.8319 3.944 40.6439 2.324L41.3039 3.02C39.8399 4.388 39.1079 6.008 39.1079 7.892C39.1079 9.68 39.9239 11.408 41.3159 12.752ZM42.7968 5.372L41.9208 5.06C42.2208 3.572 43.3488 2.504 45.1368 2.504C46.8648 2.504 47.9208 3.5 47.9208 5.024C47.9208 5.828 47.5728 6.632 47.1408 7.208C46.9248 7.508 46.6488 7.796 46.3248 8.096C45.6648 8.684 45.1968 8.996 44.5128 9.428L43.5888 10.004H48.2328V11H41.6928V10.184L43.5168 8.972C43.8408 8.768 44.0688 8.612 44.2008 8.516C44.3328 8.432 44.5488 8.276 44.8368 8.072C45.1248 7.868 45.3408 7.688 45.4848 7.556C45.6168 7.424 45.7968 7.256 46.0008 7.04C46.5528 6.44 46.7568 5.888 46.8168 5.132C46.8168 4.04 46.1088 3.548 45.0648 3.548C44.4168 3.548 43.9008 3.728 43.5288 4.088C43.1568 4.448 42.9048 4.88 42.7968 5.372ZM53.8764 3.62H48.7884V2.6H55.1604V3.284L50.9844 11H49.8444L53.8764 3.62ZM64.3296 9.2L65.0496 9.716C64.5816 10.592 63.5256 11.108 62.4816 11.108C61.4856 11.108 60.6816 10.808 60.0696 10.22C59.4576 9.632 59.1456 8.852 59.1456 7.868C59.1456 6.932 59.4456 6.152 60.0576 5.54C60.6696 4.928 61.4496 4.616 62.4216 4.616C63.5376 4.616 64.5336 5.12 64.9536 5.888L64.1736 6.416C63.7536 5.852 63.1776 5.564 62.4456 5.564C61.7976 5.564 61.2696 5.78 60.8496 6.212C60.4296 6.644 60.2136 7.196 60.2136 7.868C60.2136 8.552 60.4296 9.104 60.8736 9.524C61.3056 9.944 61.8696 10.16 62.5776 10.16C63.3216 10.16 63.9096 9.836 64.3296 9.2ZM65.3537 7.868C65.3537 6.92 65.6657 6.14 66.2777 5.528C66.8897 4.916 67.6817 4.616 68.6537 4.616C69.6377 4.616 70.4417 4.916 71.0537 5.528C71.6657 6.14 71.9777 6.92 71.9777 7.868C71.9777 8.816 71.6657 9.584 71.0537 10.196C70.4297 10.808 69.6257 11.108 68.6537 11.108C67.6817 11.108 66.8897 10.808 66.2777 10.196C65.6657 9.584 65.3537 8.816 65.3537 7.868ZM66.4217 7.868C66.4217 8.528 66.6257 9.08 67.0457 9.512C67.4657 9.944 67.9937 10.16 68.6537 10.16C69.3137 10.16 69.8657 9.944 70.2857 9.524C70.7057 9.104 70.9097 8.552 70.9097 7.868C70.9097 7.184 70.6937 6.632 70.2737 6.2C69.8417 5.78 69.3017 5.564 68.6537 5.564C68.0057 5.564 67.4777 5.78 67.0577 6.2C66.6377 6.62 66.4217 7.184 66.4217 7.868ZM77.4882 4.724H78.4962V11H77.4882V10.112C77.0082 10.772 76.3362 11.108 75.4602 11.108C73.7322 11.108 72.8922 10.244 72.8922 8.336V4.724H73.9002V8.192C73.9002 9.5 74.4522 10.16 75.5442 10.16C76.4082 10.16 77.1042 9.668 77.4882 8.804V4.724ZM80.8369 11H79.8289V4.76H80.8369V5.576C81.2329 4.964 82.0489 4.628 82.9729 4.628C84.6649 4.628 85.5049 5.564 85.5049 7.448V11H84.4969V7.568C84.4969 6.188 83.9089 5.576 82.6729 5.576C81.9049 5.576 81.1729 6.08 80.8369 6.836V11ZM87.4113 5.72H86.1153V4.76H87.4113V3.164H88.4193V4.76H90.5673V5.72H88.4193V8.468C88.4193 9.68 88.7313 10.124 89.4993 10.124C89.8713 10.124 90.2553 9.98 90.6273 9.68L91.0833 10.424C90.6873 10.868 90.0993 11.084 89.3193 11.084C88.0833 11.084 87.4113 10.268 87.4113 8.732V5.72ZM92.7023 11H91.6943V4.76H92.7023V5.24C92.9063 4.82 93.4463 4.628 93.9863 4.628C94.5383 4.628 94.9583 4.82 95.2583 5.192L94.6223 5.888C94.4663 5.684 94.2263 5.576 93.8783 5.576C93.3383 5.576 92.8463 6.02 92.7023 6.656V11ZM96.9565 11H95.9485V4.76H96.9565V11ZM95.8165 2.732C95.8165 2.396 96.0925 2.144 96.4645 2.144C96.8005 2.144 97.0885 2.396 97.0885 2.732C97.0885 3.08 96.8005 3.356 96.4645 3.356C96.0925 3.356 95.8165 3.08 95.8165 2.732ZM103.251 9.212L103.899 9.812C103.323 10.676 102.495 11.108 101.403 11.108C100.407 11.108 99.603 10.808 98.991 10.22C98.379 9.632 98.079 8.852 98.079 7.868C98.079 6.92 98.355 6.14 98.919 5.528C99.471 4.916 100.251 4.616 101.259 4.616C102.087 4.616 102.783 4.88 103.323 5.396C103.863 5.912 104.139 6.596 104.139 7.448C104.139 7.724 104.115 7.976 104.079 8.204H99.159C99.219 9.44 100.131 10.16 101.439 10.16C102.171 10.16 102.867 9.776 103.251 9.212ZM101.187 5.54C100.047 5.54 99.303 6.236 99.147 7.292H103.071C103.011 6.188 102.303 5.54 101.187 5.54ZM108.967 9.296C108.967 8.456 107.539 8.324 106.399 8C105.619 7.772 104.995 7.256 104.995 6.404C104.995 5.3 106.039 4.616 107.587 4.616C108.631 4.616 109.471 5.06 109.915 5.696L109.207 6.356C108.811 5.828 108.211 5.564 107.407 5.564C106.687 5.564 106.063 5.84 106.063 6.356C106.063 7.088 107.491 7.22 108.631 7.568C109.399 7.808 110.023 8.384 110.023 9.284C110.023 10.496 109.051 11.108 107.527 11.108C106.243 11.108 105.151 10.532 104.707 9.632L105.511 9.068C105.883 9.728 106.735 10.16 107.695 10.16C108.547 10.16 108.967 9.872 108.967 9.296ZM111.056 13.436L110.372 12.776C111.092 12.14 111.644 11.396 112.016 10.508C112.388 9.632 112.568 8.768 112.568 7.892C112.568 6.008 111.836 4.388 110.372 3.032L111.044 2.324C112.856 3.944 113.6 5.972 113.6 7.892C113.6 8.864 113.396 9.836 113 10.82C112.592 11.804 111.944 12.68 111.056 13.436Z" fill="#76848D"/>
<rect x="151" y="2" width="10" height="10" fill="#737AF9"/>
<path d="M176.044 11H169.888V2.6H175.936V3.62H170.98V6.236H175.6V7.232H170.98V9.98H176.044V11ZM181.765 4.724H182.773V11H181.765V10.112C181.285 10.772 180.613 11.108 179.737 11.108C178.009 11.108 177.169 10.244 177.169 8.336V4.724H178.177V8.192C178.177 9.5 178.729 10.16 179.821 10.16C180.685 10.16 181.381 9.668 181.765 8.804V4.724ZM185.113 11H184.105V4.76H185.113V5.24C185.317 4.82 185.857 4.628 186.397 4.628C186.949 4.628 187.369 4.82 187.669 5.192L187.033 5.888C186.877 5.684 186.637 5.576 186.289 5.576C185.749 5.576 185.257 6.02 185.113 6.656V11ZM187.516 7.868C187.516 6.92 187.828 6.14 188.44 5.528C189.052 4.916 189.844 4.616 190.816 4.616C191.8 4.616 192.604 4.916 193.216 5.528C193.828 6.14 194.14 6.92 194.14 7.868C194.14 8.816 193.828 9.584 193.216 10.196C192.592 10.808 191.788 11.108 190.816 11.108C189.844 11.108 189.052 10.808 188.44 10.196C187.828 9.584 187.516 8.816 187.516 7.868ZM188.584 7.868C188.584 8.528 188.788 9.08 189.208 9.512C189.628 9.944 190.156 10.16 190.816 10.16C191.476 10.16 192.028 9.944 192.448 9.524C192.868 9.104 193.072 8.552 193.072 7.868C193.072 7.184 192.856 6.632 192.436 6.2C192.004 5.78 191.464 5.564 190.816 5.564C190.168 5.564 189.64 5.78 189.22 6.2C188.8 6.62 188.584 7.184 188.584 7.868ZM198.255 5.708H194.499V4.76H199.779V5.42L195.831 10.052H199.707V11H194.307V10.328L198.255 5.708ZM200.003 7.868C200.003 6.92 200.315 6.14 200.927 5.528C201.539 4.916 202.331 4.616 203.303 4.616C204.287 4.616 205.091 4.916 205.703 5.528C206.315 6.14 206.627 6.92 206.627 7.868C206.627 8.816 206.315 9.584 205.703 10.196C205.079 10.808 204.275 11.108 203.303 11.108C202.331 11.108 201.539 10.808 200.927 10.196C200.315 9.584 200.003 8.816 200.003 7.868ZM201.071 7.868C201.071 8.528 201.275 9.08 201.695 9.512C202.115 9.944 202.643 10.16 203.303 10.16C203.963 10.16 204.515 9.944 204.935 9.524C205.355 9.104 205.559 8.552 205.559 7.868C205.559 7.184 205.343 6.632 204.923 6.2C204.491 5.78 203.951 5.564 203.303 5.564C202.655 5.564 202.127 5.78 201.707 6.2C201.287 6.62 201.071 7.184 201.071 7.868ZM208.633 11H207.625V4.76H208.633V5.576C209.029 4.964 209.845 4.628 210.769 4.628C212.461 4.628 213.301 5.564 213.301 7.448V11H212.293V7.568C212.293 6.188 211.705 5.576 210.469 5.576C209.701 5.576 208.969 6.08 208.633 6.836V11ZM219.396 9.212L220.044 9.812C219.468 10.676 218.64 11.108 217.548 11.108C216.552 11.108 215.748 10.808 215.136 10.22C214.524 9.632 214.224 8.852 214.224 7.868C214.224 6.92 214.5 6.14 215.064 5.528C215.616 4.916 216.396 4.616 217.404 4.616C218.232 4.616 218.928 4.88 219.468 5.396C220.008 5.912 220.284 6.596 220.284 7.448C220.284 7.724 220.26 7.976 220.224 8.204H215.304C215.364 9.44 216.276 10.16 217.584 10.16C218.316 10.16 219.012 9.776 219.396 9.212ZM217.332 5.54C216.192 5.54 215.448 6.236 215.292 7.292H219.216C219.156 6.188 218.448 5.54 217.332 5.54ZM227.701 12.752L227.017 13.448C226.129 12.68 225.481 11.804 225.073 10.82C224.665 9.836 224.461 8.864 224.461 7.892C224.461 5.972 225.217 3.944 227.029 2.324L227.689 3.02C226.225 4.388 225.493 6.008 225.493 7.892C225.493 9.68 226.309 11.408 227.701 12.752ZM228.126 4.832L227.742 3.932L230.622 2.552H231.306V11H230.274V3.836L228.126 4.832ZM239.821 6.644C239.821 8.072 239.485 9.176 238.801 9.944C238.117 10.724 237.205 11.108 236.065 11.108C234.673 11.108 233.581 10.52 233.041 9.62L233.905 9.02C234.385 9.692 235.261 10.076 236.209 10.076C236.989 10.076 237.613 9.764 238.105 9.14C238.597 8.528 238.801 7.76 238.741 6.848C238.345 7.76 237.349 8.432 236.017 8.432C235.081 8.432 234.313 8.168 233.713 7.628C233.101 7.1 232.801 6.404 232.801 5.552C232.801 4.616 233.125 3.872 233.773 3.32C234.421 2.768 235.285 2.492 236.353 2.492C238.513 2.492 239.821 4.004 239.821 6.644ZM238.561 5.516C238.381 4.4 237.613 3.524 236.233 3.524C234.793 3.524 233.905 4.268 233.905 5.516C233.905 6.704 234.805 7.4 236.209 7.4C236.845 7.4 237.385 7.208 237.805 6.824C238.225 6.44 238.477 6.008 238.561 5.516ZM249.25 9.2L249.97 9.716C249.502 10.592 248.446 11.108 247.402 11.108C246.406 11.108 245.602 10.808 244.99 10.22C244.378 9.632 244.066 8.852 244.066 7.868C244.066 6.932 244.366 6.152 244.978 5.54C245.59 4.928 246.37 4.616 247.342 4.616C248.458 4.616 249.454 5.12 249.874 5.888L249.094 6.416C248.674 5.852 248.098 5.564 247.366 5.564C246.718 5.564 246.19 5.78 245.77 6.212C245.35 6.644 245.134 7.196 245.134 7.868C245.134 8.552 245.35 9.104 245.794 9.524C246.226 9.944 246.79 10.16 247.498 10.16C248.242 10.16 248.83 9.836 249.25 9.2ZM250.274 7.868C250.274 6.92 250.586 6.14 251.198 5.528C251.81 4.916 252.602 4.616 253.574 4.616C254.558 4.616 255.362 4.916 255.974 5.528C256.586 6.14 256.898 6.92 256.898 7.868C256.898 8.816 256.586 9.584 255.974 10.196C255.35 10.808 254.546 11.108 253.574 11.108C252.602 11.108 251.81 10.808 251.198 10.196C250.586 9.584 250.274 8.816 250.274 7.868ZM251.342 7.868C251.342 8.528 251.546 9.08 251.966 9.512C252.386 9.944 252.914 10.16 253.574 10.16C254.234 10.16 254.786 9.944 255.206 9.524C255.626 9.104 255.83 8.552 255.83 7.868C255.83 7.184 255.614 6.632 255.194 6.2C254.762 5.78 254.222 5.564 253.574 5.564C252.926 5.564 252.398 5.78 251.978 6.2C251.558 6.62 251.342 7.184 251.342 7.868ZM262.409 4.724H263.417V11H262.409V10.112C261.929 10.772 261.257 11.108 260.381 11.108C258.653 11.108 257.813 10.244 257.813 8.336V4.724H258.821V8.192C258.821 9.5 259.373 10.16 260.465 10.16C261.329 10.16 262.025 9.668 262.409 8.804V4.724ZM265.758 11H264.75V4.76H265.758V5.576C266.154 4.964 266.97 4.628 267.894 4.628C269.586 4.628 270.426 5.564 270.426 7.448V11H269.418V7.568C269.418 6.188 268.83 5.576 267.594 5.576C266.826 5.576 266.094 6.08 265.758 6.836V11ZM272.332 5.72H271.036V4.76H272.332V3.164H273.34V4.76H275.488V5.72H273.34V8.468C273.34 9.68 273.652 10.124 274.42 10.124C274.792 10.124 275.176 9.98 275.548 9.68L276.004 10.424C275.608 10.868 275.02 11.084 274.24 11.084C273.004 11.084 272.332 10.268 272.332 8.732V5.72ZM277.623 11H276.615V4.76H277.623V5.24C277.827 4.82 278.367 4.628 278.907 4.628C279.459 4.628 279.879 4.82 280.179 5.192L279.543 5.888C279.387 5.684 279.147 5.576 278.799 5.576C278.259 5.576 277.767 6.02 277.623 6.656V11ZM281.877 11H280.869V4.76H281.877V11ZM280.737 2.732C280.737 2.396 281.013 2.144 281.385 2.144C281.721 2.144 282.009 2.396 282.009 2.732C282.009 3.08 281.721 3.356 281.385 3.356C281.013 3.356 280.737 3.08 280.737 2.732ZM288.172 9.212L288.82 9.812C288.244 10.676 287.416 11.108 286.324 11.108C285.328 11.108 284.524 10.808 283.912 10.22C283.3 9.632 283 8.852 283 7.868C283 6.92 283.276 6.14 283.84 5.528C284.392 4.916 285.172 4.616 286.18 4.616C287.008 4.616 287.704 4.88 288.244 5.396C288.784 5.912 289.06 6.596 289.06 7.448C289.06 7.724 289.036 7.976 289 8.204H284.08C284.14 9.44 285.052 10.16 286.36 10.16C287.092 10.16 287.788 9.776 288.172 9.212ZM286.108 5.54C284.968 5.54 284.224 6.236 284.068 7.292H287.992C287.932 6.188 287.224 5.54 286.108 5.54ZM293.888 9.296C293.888 8.456 292.46 8.324 291.32 8C290.54 7.772 289.916 7.256 289.916 6.404C289.916 5.3 290.96 4.616 292.508 4.616C293.552 4.616 294.392 5.06 294.836 5.696L294.128 6.356C293.732 5.828 293.132 5.564 292.328 5.564C291.608 5.564 290.984 5.84 290.984 6.356C290.984 7.088 292.412 7.22 293.552 7.568C294.32 7.808 294.944 8.384 294.944 9.284C294.944 10.496 293.972 11.108 292.448 11.108C291.164 11.108 290.072 10.532 289.628 9.632L290.432 9.068C290.804 9.728 291.656 10.16 292.616 10.16C293.468 10.16 293.888 9.872 293.888 9.296ZM295.977 13.436L295.293 12.776C296.013 12.14 296.565 11.396 296.937 10.508C297.309 9.632 297.489 8.768 297.489 7.892C297.489 6.008 296.757 4.388 295.293 3.032L295.965 2.324C297.777 3.944 298.521 5.972 298.521 7.892C298.521 8.864 298.317 9.836 297.921 10.82C297.513 11.804 296.865 12.68 295.977 13.436Z" fill="#76848D"/>
<line x1="-4.37114e-08" y1="294.5" x2="1106.17" y2="294.5" stroke="#ABBEC9"/>
<path d="M43.2149 56.492L42.2069 56.226L42.7809 51.2H48.9409V52.39H43.8589L43.4949 55.022C43.9849 54.658 44.7269 54.476 45.7209 54.476C46.8689 54.476 47.7649 54.784 48.4229 55.386C49.0669 56.002 49.3889 56.786 49.3889 57.752C49.3889 58.718 49.0249 59.53 48.3109 60.16C47.5829 60.804 46.6729 61.126 45.5949 61.126C43.7609 61.126 42.2349 60.258 41.6049 58.732L42.7249 58.256C43.1309 59.194 44.1809 59.936 45.5949 59.936C47.2049 59.936 48.1009 59.012 48.1009 57.794C48.1009 56.492 47.0509 55.652 45.3849 55.652C44.4889 55.652 43.7609 55.932 43.2149 56.492ZM50.5496 60.202C50.5496 59.81 50.9136 59.418 51.4176 59.418C51.8796 59.418 52.2576 59.81 52.2576 60.202C52.2576 60.65 51.9076 61.028 51.4176 61.028C50.9136 61.028 50.5496 60.65 50.5496 60.202ZM53.4151 56.366C53.4151 54.672 53.8351 53.37 54.6611 52.446C55.4871 51.536 56.5231 51.074 57.7691 51.074C59.4071 51.074 60.6951 51.816 61.2411 52.992L60.2891 53.636C59.7151 52.726 58.8611 52.278 57.7131 52.278C56.8451 52.278 56.1171 52.614 55.5291 53.286C54.9411 53.972 54.6471 54.896 54.6611 56.086C55.2071 55.064 56.4811 54.448 57.8811 54.448C59.0151 54.448 59.9251 54.742 60.5831 55.344C61.2411 55.946 61.5771 56.744 61.5771 57.724C61.5771 58.718 61.2131 59.544 60.4711 60.174C59.7291 60.804 58.8051 61.126 57.6991 61.126C55.0531 61.126 53.4151 59.404 53.4151 56.366ZM54.8151 57.556C55.0811 58.942 56.1311 59.922 57.6851 59.922C58.4411 59.922 59.0711 59.726 59.5611 59.32C60.0511 58.928 60.2891 58.41 60.2891 57.78C60.2891 56.394 59.3091 55.652 57.8111 55.652C56.9851 55.652 56.2991 55.848 55.7671 56.24C55.2211 56.632 54.9131 57.066 54.8151 57.556Z" fill="#1A3341"/>
<path d="M27.6543 73C27.6543 71.8954 28.5497 71 29.6543 71H73.6543C74.7589 71 75.6543 71.8954 75.6543 73V295H27.6543V73Z" fill="url(#paint1_linear_6003_19089)"/>
<path opacity="0.2" d="M39.6543 71H63.6543V295H39.6543V71Z" fill="url(#paint2_linear_6003_19089)"/>
<path opacity="0.04" d="M63.6543 71H73.6543C74.7589 71 75.6543 71.8954 75.6543 73V295H63.6543V71Z" fill="#0D262C"/>
<path opacity="0.5" d="M27.6543 73C27.6543 71.8954 28.5497 71 29.6543 71H39.6543V295H27.6543V73Z" fill="url(#paint3_linear_6003_19089)"/>
<path d="M105.69 64.492L104.682 64.226L105.256 59.2H111.416V60.39H106.334L105.97 63.022C106.46 62.658 107.202 62.476 108.196 62.476C109.344 62.476 110.24 62.784 110.898 63.386C111.542 64.002 111.864 64.786 111.864 65.752C111.864 66.718 111.5 67.53 110.786 68.16C110.058 68.804 109.148 69.126 108.07 69.126C106.236 69.126 104.71 68.258 104.08 66.732L105.2 66.256C105.606 67.194 106.656 67.936 108.07 67.936C109.68 67.936 110.576 67.012 110.576 65.794C110.576 64.492 109.526 63.652 107.86 63.652C106.964 63.652 106.236 63.932 105.69 64.492ZM113.025 68.202C113.025 67.81 113.389 67.418 113.893 67.418C114.355 67.418 114.733 67.81 114.733 68.202C114.733 68.65 114.383 69.028 113.893 69.028C113.389 69.028 113.025 68.65 113.025 68.202ZM117.318 64.492L116.31 64.226L116.884 59.2H123.044V60.39H117.962L117.598 63.022C118.088 62.658 118.83 62.476 119.824 62.476C120.972 62.476 121.868 62.784 122.526 63.386C123.17 64.002 123.492 64.786 123.492 65.752C123.492 66.718 123.128 67.53 122.414 68.16C121.686 68.804 120.776 69.126 119.698 69.126C117.864 69.126 116.338 68.258 115.708 66.732L116.828 66.256C117.234 67.194 118.284 67.936 119.698 67.936C121.308 67.936 122.204 67.012 122.204 65.794C122.204 64.492 121.154 63.652 119.488 63.652C118.592 63.652 117.864 63.932 117.318 64.492Z" fill="#2A3C3C"/>
<path d="M105.69 64.492L104.682 64.226L105.256 59.2H111.416V60.39H106.334L105.97 63.022C106.46 62.658 107.202 62.476 108.196 62.476C109.344 62.476 110.24 62.784 110.898 63.386C111.542 64.002 111.864 64.786 111.864 65.752C111.864 66.718 111.5 67.53 110.786 68.16C110.058 68.804 109.148 69.126 108.07 69.126C106.236 69.126 104.71 68.258 104.08 66.732L105.2 66.256C105.606 67.194 106.656 67.936 108.07 67.936C109.68 67.936 110.576 67.012 110.576 65.794C110.576 64.492 109.526 63.652 107.86 63.652C106.964 63.652 106.236 63.932 105.69 64.492ZM113.025 68.202C113.025 67.81 113.389 67.418 113.893 67.418C114.355 67.418 114.733 67.81 114.733 68.202C114.733 68.65 114.383 69.028 113.893 69.028C113.389 69.028 113.025 68.65 113.025 68.202ZM117.318 64.492L116.31 64.226L116.884 59.2H123.044V60.39H117.962L117.598 63.022C118.088 62.658 118.83 62.476 119.824 62.476C120.972 62.476 121.868 62.784 122.526 63.386C123.17 64.002 123.492 64.786 123.492 65.752C123.492 66.718 123.128 67.53 122.414 68.16C121.686 68.804 120.776 69.126 119.698 69.126C117.864 69.126 116.338 68.258 115.708 66.732L116.828 66.256C117.234 67.194 118.284 67.936 119.698 67.936C121.308 67.936 122.204 67.012 122.204 65.794C122.204 64.492 121.154 63.652 119.488 63.652C118.592 63.652 117.864 63.932 117.318 64.492Z" fill="#1A3341"/>
<path d="M89.8765 81C89.8765 79.8954 90.7719 79 91.8765 79H135.876C136.981 79 137.876 79.8954 137.876 81V295H89.8765V81Z" fill="url(#paint4_linear_6003_19089)"/>
<path opacity="0.2" d="M101.876 79H125.876V295H101.876V79Z" fill="url(#paint5_linear_6003_19089)"/>
<path opacity="0.04" d="M125.876 79H135.876C136.981 79 137.876 79.8954 137.876 81V295H125.876V79Z" fill="#0D262C"/>
<path opacity="0.5" d="M89.8765 81C89.8765 79.8954 90.7719 79 91.8765 79H101.876V295H89.8765V81Z" fill="url(#paint6_linear_6003_19089)"/>
<path d="M458.787 205.804L458.339 204.754L461.699 203.144H462.497V213H461.293V204.642L458.787 205.804ZM464.38 212.202C464.38 211.81 464.744 211.418 465.248 211.418C465.71 211.418 466.088 211.81 466.088 212.202C466.088 212.65 465.738 213.028 465.248 213.028C464.744 213.028 464.38 212.65 464.38 212.202ZM472.86 204.39H466.924V203.2H474.358V203.998L469.486 213H468.156L472.86 204.39Z" fill="#1A3341"/>
<path d="M442.469 225C442.469 223.895 443.365 223 444.469 223H488.469C489.574 223 490.469 223.895 490.469 225V295H442.469V225Z" fill="url(#paint7_linear_6003_19089)"/>
<path opacity="0.2" d="M454.469 223H478.469V295H454.469V223Z" fill="url(#paint8_linear_6003_19089)"/>
<path opacity="0.04" d="M478.469 223H488.469C489.574 223 490.469 223.895 490.469 225V295H478.469V223Z" fill="#0D262C"/>
<path opacity="0.5" d="M442.469 225C442.469 223.895 443.365 223 444.469 223H454.469V295H442.469V225Z" fill="url(#paint9_linear_6003_19089)"/>
<path d="M520.339 201.804L519.891 200.754L523.251 199.144H524.049V209H522.845V200.642L520.339 201.804ZM525.932 208.202C525.932 207.81 526.296 207.418 526.8 207.418C527.262 207.418 527.64 207.81 527.64 208.202C527.64 208.65 527.29 209.028 526.8 209.028C526.296 209.028 525.932 208.65 525.932 208.202ZM532.662 203.414H533.096C533.726 203.414 534.244 203.26 534.678 202.966C535.098 202.672 535.308 202.28 535.308 201.818C535.308 200.768 534.482 200.236 532.844 200.236C531.276 200.236 530.422 200.81 530.422 201.818C530.422 202.728 531.36 203.414 532.662 203.414ZM533.068 204.52H532.718C531.962 204.52 531.332 204.688 530.842 205.01C530.352 205.332 530.1 205.738 530.1 206.228C530.1 207.292 531.08 207.964 532.858 207.964C534.664 207.964 535.63 207.32 535.63 206.242C535.63 205.164 534.594 204.52 533.068 204.52ZM535.826 208.37C535.112 208.874 534.118 209.126 532.872 209.126C531.626 209.126 530.632 208.874 529.904 208.384C529.176 207.894 528.812 207.222 528.812 206.354C528.812 205.22 529.554 204.324 530.744 203.932C529.666 203.582 529.134 202.728 529.134 201.734C529.134 200.11 530.506 199.074 532.858 199.074C535.224 199.074 536.596 200.11 536.596 201.734C536.596 202.672 536.078 203.386 535.042 203.862C536.288 204.24 536.904 205.052 536.904 206.298C536.904 207.18 536.54 207.88 535.826 208.37Z" fill="#2A3C3C"/>
<path d="M520.339 201.804L519.891 200.754L523.251 199.144H524.049V209H522.845V200.642L520.339 201.804ZM525.932 208.202C525.932 207.81 526.296 207.418 526.8 207.418C527.262 207.418 527.64 207.81 527.64 208.202C527.64 208.65 527.29 209.028 526.8 209.028C526.296 209.028 525.932 208.65 525.932 208.202ZM532.662 203.414H533.096C533.726 203.414 534.244 203.26 534.678 202.966C535.098 202.672 535.308 202.28 535.308 201.818C535.308 200.768 534.482 200.236 532.844 200.236C531.276 200.236 530.422 200.81 530.422 201.818C530.422 202.728 531.36 203.414 532.662 203.414ZM533.068 204.52H532.718C531.962 204.52 531.332 204.688 530.842 205.01C530.352 205.332 530.1 205.738 530.1 206.228C530.1 207.292 531.08 207.964 532.858 207.964C534.664 207.964 535.63 207.32 535.63 206.242C535.63 205.164 534.594 204.52 533.068 204.52ZM535.826 208.37C535.112 208.874 534.118 209.126 532.872 209.126C531.626 209.126 530.632 208.874 529.904 208.384C529.176 207.894 528.812 207.222 528.812 206.354C528.812 205.22 529.554 204.324 530.744 203.932C529.666 203.582 529.134 202.728 529.134 201.734C529.134 200.11 530.506 199.074 532.858 199.074C535.224 199.074 536.596 200.11 536.596 201.734C536.596 202.672 536.078 203.386 535.042 203.862C536.288 204.24 536.904 205.052 536.904 206.298C536.904 207.18 536.54 207.88 535.826 208.37Z" fill="#1A3341"/>
<path d="M504.691 221C504.691 219.895 505.587 219 506.691 219H550.691C551.796 219 552.691 219.895 552.691 221V295H504.691V221Z" fill="url(#paint10_linear_6003_19089)"/>
<path opacity="0.2" d="M516.691 219H540.691V295H516.691V219Z" fill="url(#paint11_linear_6003_19089)"/>
<path opacity="0.04" d="M540.691 219H550.691C551.796 219 552.691 219.895 552.691 221V295H540.691V219Z" fill="#0D262C"/>
<path opacity="0.5" d="M504.691 221C504.691 219.895 505.587 219 506.691 219H516.691V295H504.691V221Z" fill="url(#paint12_linear_6003_19089)"/>
<path d="M186.472 119H185.254V116.998H179.262V116.186L185.394 109.2H186.472V115.864H188.292V116.998H186.472V119ZM185.254 111.16L180.942 115.864H185.254V111.16ZM189.074 118.202C189.074 117.81 189.438 117.418 189.942 117.418C190.404 117.418 190.782 117.81 190.782 118.202C190.782 118.65 190.432 119.028 189.942 119.028C189.438 119.028 189.074 118.65 189.074 118.202ZM198.702 119H197.484V116.998H191.492V116.186L197.624 109.2H198.702V115.864H200.522V116.998H198.702V119ZM197.484 111.16L193.172 115.864H197.484V111.16Z" fill="#1A3341"/>
<path d="M165.926 131C165.926 129.895 166.821 129 167.926 129H211.926C213.03 129 213.926 129.895 213.926 131V295H165.926V131Z" fill="url(#paint13_linear_6003_19089)"/>
<path opacity="0.2" d="M177.926 129H201.926V295H177.926V129Z" fill="url(#paint14_linear_6003_19089)"/>
<path opacity="0.04" d="M201.926 129H211.926C213.03 129 213.926 129.895 213.926 131V295H201.926V129Z" fill="#0D262C"/>
<path opacity="0.5" d="M165.926 131C165.926 129.895 166.821 129 167.926 129H177.926V295H165.926V131Z" fill="url(#paint15_linear_6003_19089)"/>
<path d="M249.077 121H247.859V118.998H241.867V118.186L247.999 111.2H249.077V117.864H250.897V118.998H249.077V121ZM247.859 113.16L243.547 117.864H247.859V113.16ZM251.679 120.202C251.679 119.81 252.043 119.418 252.547 119.418C253.009 119.418 253.387 119.81 253.387 120.202C253.387 120.65 253.037 121.028 252.547 121.028C252.043 121.028 251.679 120.65 251.679 120.202ZM255.511 114.056L254.461 113.58C254.979 112.068 256.337 111.074 258.367 111.074C259.333 111.074 260.131 111.298 260.747 111.746C261.363 112.194 261.671 112.796 261.671 113.538C261.671 114.672 261.069 115.512 259.949 115.834C261.027 115.904 261.895 116.716 261.895 118.172C261.895 119.096 261.559 119.824 260.887 120.342C260.215 120.86 259.361 121.126 258.311 121.126C256.169 121.126 254.685 120.104 254.195 118.494L255.329 118.004C255.931 119.278 256.953 119.922 258.395 119.922C259.753 119.922 260.607 119.292 260.607 118.186C260.607 117.108 259.767 116.562 258.087 116.562H256.995V115.4H257.863C259.389 115.4 260.383 114.714 260.383 113.776C260.383 112.81 259.585 112.264 258.311 112.264C256.813 112.264 255.903 113.034 255.511 114.056Z" fill="#2A3C3C"/>
<path d="M249.077 121H247.859V118.998H241.867V118.186L247.999 111.2H249.077V117.864H250.897V118.998H249.077V121ZM247.859 113.16L243.547 117.864H247.859V113.16ZM251.679 120.202C251.679 119.81 252.043 119.418 252.547 119.418C253.009 119.418 253.387 119.81 253.387 120.202C253.387 120.65 253.037 121.028 252.547 121.028C252.043 121.028 251.679 120.65 251.679 120.202ZM255.511 114.056L254.461 113.58C254.979 112.068 256.337 111.074 258.367 111.074C259.333 111.074 260.131 111.298 260.747 111.746C261.363 112.194 261.671 112.796 261.671 113.538C261.671 114.672 261.069 115.512 259.949 115.834C261.027 115.904 261.895 116.716 261.895 118.172C261.895 119.096 261.559 119.824 260.887 120.342C260.215 120.86 259.361 121.126 258.311 121.126C256.169 121.126 254.685 120.104 254.195 118.494L255.329 118.004C255.931 119.278 256.953 119.922 258.395 119.922C259.753 119.922 260.607 119.292 260.607 118.186C260.607 117.108 259.767 116.562 258.087 116.562H256.995V115.4H257.863C259.389 115.4 260.383 114.714 260.383 113.776C260.383 112.81 259.585 112.264 258.311 112.264C256.813 112.264 255.903 113.034 255.511 114.056Z" fill="#1A3341"/>
<path d="M228.148 133C228.148 131.895 229.043 131 230.148 131H274.148C275.253 131 276.148 131.895 276.148 133V295H228.148V133Z" fill="url(#paint16_linear_6003_19089)"/>
<path opacity="0.2" d="M240.148 131H264.148V295H240.148V131Z" fill="url(#paint17_linear_6003_19089)"/>
<path opacity="0.04" d="M264.148 131H274.148C275.253 131 276.148 131.895 276.148 133V295H264.148V131Z" fill="#0D262C"/>
<path opacity="0.5" d="M228.148 133C228.148 131.895 229.043 131 230.148 131H240.148V295H228.148V133Z" fill="url(#paint18_linear_6003_19089)"/>
<path d="M598.296 229.804L597.848 228.754L601.208 227.144H602.006V237H600.802V228.642L598.296 229.804ZM603.889 236.202C603.889 235.81 604.253 235.418 604.757 235.418C605.219 235.418 605.597 235.81 605.597 236.202C605.597 236.65 605.247 237.028 604.757 237.028C604.253 237.028 603.889 236.65 603.889 236.202ZM606.642 229.804L606.194 228.754L609.554 227.144H610.352V237H609.148V228.642L606.642 229.804Z" fill="#1A3341"/>
<path d="M580.741 249C580.741 247.895 581.636 247 582.741 247H626.741C627.845 247 628.741 247.895 628.741 249V295H580.741V249Z" fill="url(#paint19_linear_6003_19089)"/>
<path opacity="0.2" d="M592.741 247H616.741V295H592.741V247Z" fill="url(#paint20_linear_6003_19089)"/>
<path opacity="0.04" d="M616.741 247H626.741C627.845 247 628.741 247.895 628.741 249V295H616.741V247Z" fill="#0D262C"/>
<path opacity="0.5" d="M580.741 249C580.741 247.895 581.636 247 582.741 247H592.741V295H580.741V249Z" fill="url(#paint21_linear_6003_19089)"/>
<path d="M658.959 225.804L658.511 224.754L661.871 223.144H662.669V233H661.465V224.642L658.959 225.804ZM664.553 232.202C664.553 231.81 664.917 231.418 665.421 231.418C665.883 231.418 666.261 231.81 666.261 232.202C666.261 232.65 665.911 233.028 665.421 233.028C664.917 233.028 664.553 232.65 664.553 232.202ZM668.384 226.056L667.334 225.58C667.852 224.068 669.21 223.074 671.24 223.074C672.206 223.074 673.004 223.298 673.62 223.746C674.236 224.194 674.544 224.796 674.544 225.538C674.544 226.672 673.942 227.512 672.822 227.834C673.9 227.904 674.768 228.716 674.768 230.172C674.768 231.096 674.432 231.824 673.76 232.342C673.088 232.86 672.234 233.126 671.184 233.126C669.042 233.126 667.558 232.104 667.068 230.494L668.202 230.004C668.804 231.278 669.826 231.922 671.268 231.922C672.626 231.922 673.48 231.292 673.48 230.186C673.48 229.108 672.64 228.562 670.96 228.562H669.868V227.4H670.736C672.262 227.4 673.256 226.714 673.256 225.776C673.256 224.81 672.458 224.264 671.184 224.264C669.686 224.264 668.776 225.034 668.384 226.056Z" fill="#2A3C3C"/>
<path d="M658.959 225.804L658.511 224.754L661.871 223.144H662.669V233H661.465V224.642L658.959 225.804ZM664.553 232.202C664.553 231.81 664.917 231.418 665.421 231.418C665.883 231.418 666.261 231.81 666.261 232.202C666.261 232.65 665.911 233.028 665.421 233.028C664.917 233.028 664.553 232.65 664.553 232.202ZM668.384 226.056L667.334 225.58C667.852 224.068 669.21 223.074 671.24 223.074C672.206 223.074 673.004 223.298 673.62 223.746C674.236 224.194 674.544 224.796 674.544 225.538C674.544 226.672 673.942 227.512 672.822 227.834C673.9 227.904 674.768 228.716 674.768 230.172C674.768 231.096 674.432 231.824 673.76 232.342C673.088 232.86 672.234 233.126 671.184 233.126C669.042 233.126 667.558 232.104 667.068 230.494L668.202 230.004C668.804 231.278 669.826 231.922 671.268 231.922C672.626 231.922 673.48 231.292 673.48 230.186C673.48 229.108 672.64 228.562 670.96 228.562H669.868V227.4H670.736C672.262 227.4 673.256 226.714 673.256 225.776C673.256 224.81 672.458 224.264 671.184 224.264C669.686 224.264 668.776 225.034 668.384 226.056Z" fill="#1A3341"/>
<path d="M642.963 245C642.963 243.895 643.858 243 644.963 243H688.963C690.067 243 690.963 243.895 690.963 245V295H642.963V245Z" fill="url(#paint22_linear_6003_19089)"/>
<path opacity="0.2" d="M654.963 243H678.963V295H654.963V243Z" fill="url(#paint23_linear_6003_19089)"/>
<path opacity="0.04" d="M678.963 243H688.963C690.067 243 690.963 243.895 690.963 245V295H678.963V243Z" fill="#0D262C"/>
<path opacity="0.5" d="M642.963 245C642.963 243.895 643.858 243 644.963 243H654.963V295H642.963V245Z" fill="url(#paint24_linear_6003_19089)"/>
<path d="M319.82 174.434L318.798 174.07C319.148 172.334 320.464 171.088 322.55 171.088C324.566 171.088 325.798 172.25 325.798 174.028C325.798 174.966 325.392 175.904 324.888 176.576C324.636 176.926 324.314 177.262 323.936 177.612C323.166 178.298 322.62 178.662 321.822 179.166L320.744 179.838H326.162V181H318.532V180.048L320.66 178.634C321.038 178.396 321.304 178.214 321.458 178.102C321.612 178.004 321.864 177.822 322.2 177.584C322.536 177.346 322.788 177.136 322.956 176.982C323.11 176.828 323.32 176.632 323.558 176.38C324.202 175.68 324.44 175.036 324.51 174.154C324.51 172.88 323.684 172.306 322.466 172.306C321.71 172.306 321.108 172.516 320.674 172.936C320.24 173.356 319.946 173.86 319.82 174.434ZM327.23 180.202C327.23 179.81 327.594 179.418 328.098 179.418C328.56 179.418 328.938 179.81 328.938 180.202C328.938 180.65 328.588 181.028 328.098 181.028C327.594 181.028 327.23 180.65 327.23 180.202ZM331.523 176.492L330.515 176.226L331.089 171.2H337.249V172.39H332.167L331.803 175.022C332.293 174.658 333.035 174.476 334.029 174.476C335.177 174.476 336.073 174.784 336.731 175.386C337.375 176.002 337.697 176.786 337.697 177.752C337.697 178.718 337.333 179.53 336.619 180.16C335.891 180.804 334.981 181.126 333.903 181.126C332.069 181.126 330.543 180.258 329.913 178.732L331.033 178.256C331.439 179.194 332.489 179.936 333.903 179.936C335.513 179.936 336.409 179.012 336.409 177.794C336.409 176.492 335.359 175.652 333.693 175.652C332.797 175.652 332.069 175.932 331.523 176.492Z" fill="#1A3341"/>
<path d="M304.198 193C304.198 191.895 305.093 191 306.198 191H350.198C351.302 191 352.198 191.895 352.198 193V295H304.198V193Z" fill="url(#paint25_linear_6003_19089)"/>
<path opacity="0.2" d="M316.198 191H340.198V295H316.198V191Z" fill="url(#paint26_linear_6003_19089)"/>
<path opacity="0.04" d="M340.198 191H350.198C351.302 191 352.198 191.895 352.198 193V295H340.198V191Z" fill="#0D262C"/>
<path opacity="0.5" d="M304.198 193C304.198 191.895 305.093 191 306.198 191H316.198V295H304.198V193Z" fill="url(#paint27_linear_6003_19089)"/>
<path d="M381.741 178.434L380.719 178.07C381.069 176.334 382.385 175.088 384.471 175.088C386.487 175.088 387.719 176.25 387.719 178.028C387.719 178.966 387.313 179.904 386.809 180.576C386.557 180.926 386.235 181.262 385.857 181.612C385.087 182.298 384.541 182.662 383.743 183.166L382.665 183.838H388.083V185H380.453V184.048L382.581 182.634C382.959 182.396 383.225 182.214 383.379 182.102C383.533 182.004 383.785 181.822 384.121 181.584C384.457 181.346 384.709 181.136 384.877 180.982C385.031 180.828 385.241 180.632 385.479 180.38C386.123 179.68 386.361 179.036 386.431 178.154C386.431 176.88 385.605 176.306 384.387 176.306C383.631 176.306 383.029 176.516 382.595 176.936C382.161 177.356 381.867 177.86 381.741 178.434ZM389.151 184.202C389.151 183.81 389.515 183.418 390.019 183.418C390.481 183.418 390.859 183.81 390.859 184.202C390.859 184.65 390.509 185.028 390.019 185.028C389.515 185.028 389.151 184.65 389.151 184.202ZM398.779 185H397.561V182.998H391.569V182.186L397.701 175.2H398.779V181.864H400.599V182.998H398.779V185ZM397.561 177.16L393.249 181.864H397.561V177.16Z" fill="#2A3C3C"/>
<path d="M381.741 178.434L380.719 178.07C381.069 176.334 382.385 175.088 384.471 175.088C386.487 175.088 387.719 176.25 387.719 178.028C387.719 178.966 387.313 179.904 386.809 180.576C386.557 180.926 386.235 181.262 385.857 181.612C385.087 182.298 384.541 182.662 383.743 183.166L382.665 183.838H388.083V185H380.453V184.048L382.581 182.634C382.959 182.396 383.225 182.214 383.379 182.102C383.533 182.004 383.785 181.822 384.121 181.584C384.457 181.346 384.709 181.136 384.877 180.982C385.031 180.828 385.241 180.632 385.479 180.38C386.123 179.68 386.361 179.036 386.431 178.154C386.431 176.88 385.605 176.306 384.387 176.306C383.631 176.306 383.029 176.516 382.595 176.936C382.161 177.356 381.867 177.86 381.741 178.434ZM389.151 184.202C389.151 183.81 389.515 183.418 390.019 183.418C390.481 183.418 390.859 183.81 390.859 184.202C390.859 184.65 390.509 185.028 390.019 185.028C389.515 185.028 389.151 184.65 389.151 184.202ZM398.779 185H397.561V182.998H391.569V182.186L397.701 175.2H398.779V181.864H400.599V182.998H398.779V185ZM397.561 177.16L393.249 181.864H397.561V177.16Z" fill="#1A3341"/>
<path d="M366.42 197C366.42 195.895 367.315 195 368.42 195H412.42C413.524 195 414.42 195.895 414.42 197V295H366.42V197Z" fill="url(#paint28_linear_6003_19089)"/>
<path opacity="0.2" d="M378.42 195H402.42V295H378.42V195Z" fill="url(#paint29_linear_6003_19089)"/>
<path opacity="0.04" d="M402.42 195H412.42C413.524 195 414.42 195.895 414.42 197V295H402.42V195Z" fill="#0D262C"/>
<path opacity="0.5" d="M366.42 197C366.42 195.895 367.315 195 368.42 195H378.42V295H366.42V197Z" fill="url(#paint30_linear_6003_19089)"/>
<path d="M733.042 256.1C733.042 254.588 733.392 253.37 734.106 252.46C734.806 251.55 735.842 251.088 737.2 251.088C739.986 251.088 741.372 252.922 741.372 256.1C741.372 257.626 741.022 258.83 740.336 259.74C739.636 260.65 738.6 261.112 737.228 261.112C735.912 261.112 734.89 260.65 734.148 259.726C733.406 258.802 733.042 257.598 733.042 256.1ZM734.33 256.1C734.33 258.494 735.422 259.922 737.228 259.922C739.132 259.922 740.084 258.648 740.084 256.1C740.084 253.552 739.118 252.278 737.2 252.278C735.254 252.278 734.33 253.678 734.33 256.1ZM742.516 260.202C742.516 259.81 742.88 259.418 743.384 259.418C743.846 259.418 744.224 259.81 744.224 260.202C744.224 260.65 743.874 261.028 743.384 261.028C742.88 261.028 742.516 260.65 742.516 260.202ZM746.809 256.492L745.801 256.226L746.375 251.2H752.535V252.39H747.453L747.089 255.022C747.579 254.658 748.321 254.476 749.315 254.476C750.463 254.476 751.359 254.784 752.017 255.386C752.661 256.002 752.983 256.786 752.983 257.752C752.983 258.718 752.619 259.53 751.905 260.16C751.177 260.804 750.267 261.126 749.189 261.126C747.355 261.126 745.829 260.258 745.199 258.732L746.319 258.256C746.725 259.194 747.775 259.936 749.189 259.936C750.799 259.936 751.695 259.012 751.695 257.794C751.695 256.492 750.645 255.652 748.979 255.652C748.083 255.652 747.355 255.932 746.809 256.492Z" fill="#1A3341"/>
<path d="M719.012 273C719.012 271.895 719.908 271 721.012 271H765.012C766.117 271 767.012 271.895 767.012 273V295H719.012V273Z" fill="url(#paint31_linear_6003_19089)"/>
<path opacity="0.2" d="M731.012 271H755.012V295H731.012V271Z" fill="url(#paint32_linear_6003_19089)"/>
<path opacity="0.04" d="M755.012 271H765.012C766.117 271 767.012 271.895 767.012 273V295H755.012V271Z" fill="#0D262C"/>
<path opacity="0.5" d="M719.012 273C719.012 271.895 719.908 271 721.012 271H731.012V295H719.012V273Z" fill="url(#paint33_linear_6003_19089)"/>
<path d="M795.012 252.1C795.012 250.588 795.362 249.37 796.076 248.46C796.776 247.55 797.812 247.088 799.17 247.088C801.956 247.088 803.342 248.922 803.342 252.1C803.342 253.626 802.992 254.83 802.306 255.74C801.606 256.65 800.57 257.112 799.198 257.112C797.882 257.112 796.86 256.65 796.118 255.726C795.376 254.802 795.012 253.598 795.012 252.1ZM796.3 252.1C796.3 254.494 797.392 255.922 799.198 255.922C801.102 255.922 802.054 254.648 802.054 252.1C802.054 249.552 801.088 248.278 799.17 248.278C797.224 248.278 796.3 249.678 796.3 252.1ZM804.485 256.202C804.485 255.81 804.849 255.418 805.353 255.418C805.815 255.418 806.193 255.81 806.193 256.202C806.193 256.65 805.843 257.028 805.353 257.028C804.849 257.028 804.485 256.65 804.485 256.202ZM807.351 252.366C807.351 250.672 807.771 249.37 808.597 248.446C809.423 247.536 810.459 247.074 811.705 247.074C813.343 247.074 814.631 247.816 815.177 248.992L814.225 249.636C813.651 248.726 812.797 248.278 811.649 248.278C810.781 248.278 810.053 248.614 809.465 249.286C808.877 249.972 808.583 250.896 808.597 252.086C809.143 251.064 810.417 250.448 811.817 250.448C812.951 250.448 813.861 250.742 814.519 251.344C815.177 251.946 815.513 252.744 815.513 253.724C815.513 254.718 815.149 255.544 814.407 256.174C813.665 256.804 812.741 257.126 811.635 257.126C808.989 257.126 807.351 255.404 807.351 252.366ZM808.751 253.556C809.017 254.942 810.067 255.922 811.621 255.922C812.377 255.922 813.007 255.726 813.497 255.32C813.987 254.928 814.225 254.41 814.225 253.78C814.225 252.394 813.245 251.652 811.747 251.652C810.921 251.652 810.235 251.848 809.703 252.24C809.157 252.632 808.849 253.066 808.751 253.556Z" fill="#1A3341"/>
<path d="M781.234 269C781.234 267.895 782.13 267 783.234 267H827.234C828.339 267 829.234 267.895 829.234 269V295H781.234V269Z" fill="url(#paint34_linear_6003_19089)"/>
<path opacity="0.2" d="M793.234 267H817.234V295H793.234V267Z" fill="url(#paint35_linear_6003_19089)"/>
<path opacity="0.04" d="M817.234 267H827.234C828.339 267 829.234 267.895 829.234 269V295H817.234V267Z" fill="#0D262C"/>
<path opacity="0.5" d="M781.234 269C781.234 267.895 782.13 267 783.234 267H793.234V295H781.234V269Z" fill="url(#paint36_linear_6003_19089)"/>
<path opacity="0.5" d="M857.284 292C857.284 290.895 858.18 290 859.284 290H869.284V294H857.284V292Z" fill="url(#paint37_linear_6003_19089)"/>
<path opacity="0.5" d="M919.506 292C919.506 290.895 920.402 290 921.506 290H931.506V294H919.506V292Z" fill="url(#paint38_linear_6003_19089)"/>
<path d="M1009.7 271.1C1009.7 269.588 1010.05 268.37 1010.77 267.46C1011.47 266.55 1012.5 266.088 1013.86 266.088C1016.65 266.088 1018.03 267.922 1018.03 271.1C1018.03 272.626 1017.68 273.83 1017 274.74C1016.3 275.65 1015.26 276.112 1013.89 276.112C1012.57 276.112 1011.55 275.65 1010.81 274.726C1010.07 273.802 1009.7 272.598 1009.7 271.1ZM1010.99 271.1C1010.99 273.494 1012.08 274.922 1013.89 274.922C1015.79 274.922 1016.74 273.648 1016.74 271.1C1016.74 268.552 1015.78 267.278 1013.86 267.278C1011.91 267.278 1010.99 268.678 1010.99 271.1ZM1019.18 275.202C1019.18 274.81 1019.54 274.418 1020.04 274.418C1020.51 274.418 1020.88 274.81 1020.88 275.202C1020.88 275.65 1020.53 276.028 1020.04 276.028C1019.54 276.028 1019.18 275.65 1019.18 275.202ZM1023.16 269.434L1022.14 269.07C1022.49 267.334 1023.81 266.088 1025.89 266.088C1027.91 266.088 1029.14 267.25 1029.14 269.028C1029.14 269.966 1028.73 270.904 1028.23 271.576C1027.98 271.926 1027.66 272.262 1027.28 272.612C1026.51 273.298 1025.96 273.662 1025.16 274.166L1024.09 274.838H1029.5V276H1021.87V275.048L1024 273.634C1024.38 273.396 1024.65 273.214 1024.8 273.102C1024.95 273.004 1025.21 272.822 1025.54 272.584C1025.88 272.346 1026.13 272.136 1026.3 271.982C1026.45 271.828 1026.66 271.632 1026.9 271.38C1027.54 270.68 1027.78 270.036 1027.85 269.154C1027.85 267.88 1027.03 267.306 1025.81 267.306C1025.05 267.306 1024.45 267.516 1024.02 267.936C1023.58 268.356 1023.29 268.86 1023.16 269.434Z" fill="#1A3341"/>
<path d="M995.556 288C995.556 286.895 996.451 286 997.556 286H1041.56C1042.66 286 1043.56 286.895 1043.56 288V294H995.556V288Z" fill="url(#paint39_linear_6003_19089)"/>
<path opacity="0.2" d="M1007.56 286H1031.56V294H1007.56V286Z" fill="url(#paint40_linear_6003_19089)"/>
<path opacity="0.04" d="M1031.56 286H1041.56C1042.66 286 1043.56 286.895 1043.56 288V294H1031.56V286Z" fill="#0D262C"/>
<path opacity="0.5" d="M995.556 288C995.556 286.895 996.451 286 997.556 286H1007.56V294H995.556V288Z" fill="url(#paint41_linear_6003_19089)"/>
<path d="M1073.45 275.1C1073.45 273.588 1073.8 272.37 1074.51 271.46C1075.21 270.55 1076.25 270.088 1077.61 270.088C1080.39 270.088 1081.78 271.922 1081.78 275.1C1081.78 276.626 1081.43 277.83 1080.74 278.74C1080.04 279.65 1079.01 280.112 1077.63 280.112C1076.32 280.112 1075.3 279.65 1074.55 278.726C1073.81 277.802 1073.45 276.598 1073.45 275.1ZM1074.74 275.1C1074.74 277.494 1075.83 278.922 1077.63 278.922C1079.54 278.922 1080.49 277.648 1080.49 275.1C1080.49 272.552 1079.52 271.278 1077.61 271.278C1075.66 271.278 1074.74 272.678 1074.74 275.1ZM1082.92 279.202C1082.92 278.81 1083.29 278.418 1083.79 278.418C1084.25 278.418 1084.63 278.81 1084.63 279.202C1084.63 279.65 1084.28 280.028 1083.79 280.028C1083.29 280.028 1082.92 279.65 1082.92 279.202ZM1085.68 272.804L1085.23 271.754L1088.59 270.144H1089.39V280H1088.18V271.642L1085.68 272.804Z" fill="#2A3C3C"/>
<path d="M1073.45 275.1C1073.45 273.588 1073.8 272.37 1074.51 271.46C1075.21 270.55 1076.25 270.088 1077.61 270.088C1080.39 270.088 1081.78 271.922 1081.78 275.1C1081.78 276.626 1081.43 277.83 1080.74 278.74C1080.04 279.65 1079.01 280.112 1077.63 280.112C1076.32 280.112 1075.3 279.65 1074.55 278.726C1073.81 277.802 1073.45 276.598 1073.45 275.1ZM1074.74 275.1C1074.74 277.494 1075.83 278.922 1077.63 278.922C1079.54 278.922 1080.49 277.648 1080.49 275.1C1080.49 272.552 1079.52 271.278 1077.61 271.278C1075.66 271.278 1074.74 272.678 1074.74 275.1ZM1082.92 279.202C1082.92 278.81 1083.29 278.418 1083.79 278.418C1084.25 278.418 1084.63 278.81 1084.63 279.202C1084.63 279.65 1084.28 280.028 1083.79 280.028C1083.29 280.028 1082.92 279.65 1082.92 279.202ZM1085.68 272.804L1085.23 271.754L1088.59 270.144H1089.39V280H1088.18V271.642L1085.68 272.804Z" fill="#1A3341"/>
<path d="M1057.78 292C1057.78 290.895 1058.67 290 1059.78 290H1103.78C1104.88 290 1105.78 290.895 1105.78 292V294H1057.78V292Z" fill="url(#paint42_linear_6003_19089)"/>
<path opacity="0.2" d="M1069.78 290H1093.78V294H1069.78V290Z" fill="url(#paint43_linear_6003_19089)"/>
<path opacity="0.04" d="M1093.78 290H1103.78C1104.88 290 1105.78 290.895 1105.78 292V294H1093.78V290Z" fill="#0D262C"/>
<path opacity="0.5" d="M1057.78 292C1057.78 290.895 1058.67 290 1059.78 290H1069.78V294H1057.78V292Z" fill="url(#paint44_linear_6003_19089)"/>
<line x1="13.8271" y1="294.5" x2="1120" y2="294.5" stroke="#ABBEC9"/>
<path d="M74.6497 306.8C74.6497 305.588 75.0577 304.556 75.8857 303.728C76.7137 302.9 77.7217 302.492 78.9217 302.492C80.1097 302.492 81.1177 302.9 81.9457 303.716C82.7737 304.532 83.1817 305.564 83.1817 306.8C83.1817 307.988 82.7377 309.044 81.8497 309.944L82.6897 310.952L81.9457 311.576L81.0817 310.532C80.3977 310.916 79.6777 311.108 78.9217 311.108C77.6977 311.108 76.6777 310.7 75.8737 309.884C75.0577 309.08 74.6497 308.048 74.6497 306.8ZM75.7897 306.8C75.7897 307.748 76.0897 308.528 76.6897 309.14C77.2897 309.752 78.0337 310.064 78.9217 310.064C79.4617 310.064 79.9537 309.932 80.4217 309.656L79.7017 308.792L80.3977 308.18L81.1657 309.104C81.7537 308.492 82.0417 307.724 82.0417 306.8C82.0417 305.852 81.7417 305.072 81.1417 304.46C80.5417 303.848 79.7977 303.536 78.9217 303.536C78.0337 303.536 77.2897 303.836 76.6897 304.448C76.0897 305.06 75.7897 305.852 75.7897 306.8ZM83.9161 304.832L83.5321 303.932L86.4121 302.552H87.0961V311H86.0641V303.836L83.9161 304.832ZM69.5193 319.372L68.6433 319.06C68.9433 317.572 70.0713 316.504 71.8593 316.504C73.5873 316.504 74.6433 317.5 74.6433 319.024C74.6433 319.828 74.2953 320.632 73.8633 321.208C73.6473 321.508 73.3713 321.796 73.0473 322.096C72.3873 322.684 71.9193 322.996 71.2353 323.428L70.3113 324.004H74.9553V325H68.4153V324.184L70.2393 322.972C70.5633 322.768 70.7913 322.612 70.9233 322.516C71.0553 322.432 71.2713 322.276 71.5593 322.072C71.8473 321.868 72.0633 321.688 72.2073 321.556C72.3393 321.424 72.5193 321.256 72.7233 321.04C73.2753 320.44 73.4793 319.888 73.5393 319.132C73.5393 318.04 72.8313 317.548 71.7873 317.548C71.1393 317.548 70.6233 317.728 70.2513 318.088C69.8793 318.448 69.6273 318.88 69.5193 319.372ZM75.787 320.8C75.787 319.504 76.087 318.46 76.699 317.68C77.299 316.9 78.187 316.504 79.351 316.504C81.739 316.504 82.927 318.076 82.927 320.8C82.927 322.108 82.627 323.14 82.039 323.92C81.439 324.7 80.551 325.096 79.375 325.096C78.247 325.096 77.371 324.7 76.735 323.908C76.099 323.116 75.787 322.084 75.787 320.8ZM76.891 320.8C76.891 322.852 77.827 324.076 79.375 324.076C81.007 324.076 81.823 322.984 81.823 320.8C81.823 318.616 80.995 317.524 79.351 317.524C77.683 317.524 76.891 318.724 76.891 320.8ZM84.7832 319.372L83.9072 319.06C84.2072 317.572 85.3352 316.504 87.1232 316.504C88.8512 316.504 89.9072 317.5 89.9072 319.024C89.9072 319.828 89.5592 320.632 89.1272 321.208C88.9112 321.508 88.6352 321.796 88.3112 322.096C87.6512 322.684 87.1832 322.996 86.4992 323.428L85.5752 324.004H90.2192V325H83.6792V324.184L85.5032 322.972C85.8272 322.768 86.0552 322.612 86.1872 322.516C86.3192 322.432 86.5352 322.276 86.8232 322.072C87.1112 321.868 87.3272 321.688 87.4712 321.556C87.6032 321.424 87.7832 321.256 87.9872 321.04C88.5392 320.44 88.7432 319.888 88.8032 319.132C88.8032 318.04 88.0952 317.548 87.0512 317.548C86.4032 317.548 85.8872 317.728 85.5152 318.088C85.1432 318.448 84.8912 318.88 84.7832 319.372ZM92.0109 319.372L91.1349 319.06C91.4349 317.572 92.5629 316.504 94.3509 316.504C96.0789 316.504 97.1349 317.5 97.1349 319.024C97.1349 319.828 96.7869 320.632 96.3549 321.208C96.1389 321.508 95.8629 321.796 95.5389 322.096C94.8789 322.684 94.4109 322.996 93.7269 323.428L92.8029 324.004H97.4469V325H90.9069V324.184L92.7309 322.972C93.0549 322.768 93.2829 322.612 93.4149 322.516C93.5469 322.432 93.7629 322.276 94.0509 322.072C94.3389 321.868 94.5549 321.688 94.6989 321.556C94.8309 321.424 95.0109 321.256 95.2149 321.04C95.7669 320.44 95.9709 319.888 96.0309 319.132C96.0309 318.04 95.3229 317.548 94.2789 317.548C93.6309 317.548 93.1149 317.728 92.7429 318.088C92.3709 318.448 92.1189 318.88 92.0109 319.372Z" fill="#76848D"/>
<path d="M213.353 306.8C213.353 305.588 213.761 304.556 214.589 303.728C215.417 302.9 216.425 302.492 217.625 302.492C218.813 302.492 219.821 302.9 220.649 303.716C221.477 304.532 221.885 305.564 221.885 306.8C221.885 307.988 221.441 309.044 220.553 309.944L221.393 310.952L220.649 311.576L219.785 310.532C219.101 310.916 218.381 311.108 217.625 311.108C216.401 311.108 215.381 310.7 214.577 309.884C213.761 309.08 213.353 308.048 213.353 306.8ZM214.493 306.8C214.493 307.748 214.793 308.528 215.393 309.14C215.993 309.752 216.737 310.064 217.625 310.064C218.165 310.064 218.657 309.932 219.125 309.656L218.405 308.792L219.101 308.18L219.869 309.104C220.457 308.492 220.745 307.724 220.745 306.8C220.745 305.852 220.445 305.072 219.845 304.46C219.245 303.848 218.501 303.536 217.625 303.536C216.737 303.536 215.993 303.836 215.393 304.448C214.793 305.06 214.493 305.852 214.493 306.8ZM223.676 305.372L222.8 305.06C223.1 303.572 224.228 302.504 226.016 302.504C227.744 302.504 228.8 303.5 228.8 305.024C228.8 305.828 228.452 306.632 228.02 307.208C227.804 307.508 227.528 307.796 227.204 308.096C226.544 308.684 226.076 308.996 225.392 309.428L224.468 310.004H229.112V311H222.572V310.184L224.396 308.972C224.72 308.768 224.948 308.612 225.08 308.516C225.212 308.432 225.428 308.276 225.716 308.072C226.004 307.868 226.22 307.688 226.364 307.556C226.496 307.424 226.676 307.256 226.88 307.04C227.432 306.44 227.636 305.888 227.696 305.132C227.696 304.04 226.988 303.548 225.944 303.548C225.296 303.548 224.78 303.728 224.408 304.088C224.036 304.448 223.784 304.88 223.676 305.372ZM207.791 319.372L206.915 319.06C207.215 317.572 208.343 316.504 210.131 316.504C211.859 316.504 212.915 317.5 212.915 319.024C212.915 319.828 212.567 320.632 212.135 321.208C211.919 321.508 211.643 321.796 211.319 322.096C210.659 322.684 210.191 322.996 209.507 323.428L208.583 324.004H213.227V325H206.687V324.184L208.511 322.972C208.835 322.768 209.063 322.612 209.195 322.516C209.327 322.432 209.543 322.276 209.831 322.072C210.119 321.868 210.335 321.688 210.479 321.556C210.611 321.424 210.791 321.256 210.995 321.04C211.547 320.44 211.751 319.888 211.811 319.132C211.811 318.04 211.103 317.548 210.059 317.548C209.411 317.548 208.895 317.728 208.523 318.088C208.151 318.448 207.899 318.88 207.791 319.372ZM214.058 320.8C214.058 319.504 214.358 318.46 214.97 317.68C215.57 316.9 216.458 316.504 217.622 316.504C220.01 316.504 221.198 318.076 221.198 320.8C221.198 322.108 220.898 323.14 220.31 323.92C219.71 324.7 218.822 325.096 217.646 325.096C216.518 325.096 215.642 324.7 215.006 323.908C214.37 323.116 214.058 322.084 214.058 320.8ZM215.162 320.8C215.162 322.852 216.098 324.076 217.646 324.076C219.278 324.076 220.094 322.984 220.094 320.8C220.094 318.616 219.266 317.524 217.622 317.524C215.954 317.524 215.162 318.724 215.162 320.8ZM223.055 319.372L222.179 319.06C222.479 317.572 223.607 316.504 225.395 316.504C227.123 316.504 228.179 317.5 228.179 319.024C228.179 319.828 227.831 320.632 227.399 321.208C227.183 321.508 226.907 321.796 226.583 322.096C225.923 322.684 225.455 322.996 224.771 323.428L223.847 324.004H228.491V325H221.951V324.184L223.775 322.972C224.099 322.768 224.327 322.612 224.459 322.516C224.591 322.432 224.807 322.276 225.095 322.072C225.383 321.868 225.599 321.688 225.743 321.556C225.875 321.424 226.055 321.256 226.259 321.04C226.811 320.44 227.015 319.888 227.075 319.132C227.075 318.04 226.367 317.548 225.323 317.548C224.675 317.548 224.159 317.728 223.787 318.088C223.415 318.448 223.163 318.88 223.055 319.372ZM230.282 319.372L229.406 319.06C229.706 317.572 230.834 316.504 232.622 316.504C234.35 316.504 235.406 317.5 235.406 319.024C235.406 319.828 235.058 320.632 234.626 321.208C234.41 321.508 234.134 321.796 233.81 322.096C233.15 322.684 232.682 322.996 231.998 323.428L231.074 324.004H235.718V325H229.178V324.184L231.002 322.972C231.326 322.768 231.554 322.612 231.686 322.516C231.818 322.432 232.034 322.276 232.322 322.072C232.61 321.868 232.826 321.688 232.97 321.556C233.102 321.424 233.282 321.256 233.486 321.04C234.038 320.44 234.242 319.888 234.302 319.132C234.302 318.04 233.594 317.548 232.55 317.548C231.902 317.548 231.386 317.728 231.014 318.088C230.642 318.448 230.39 318.88 230.282 319.372Z" fill="#76848D"/>
<path d="M351.596 306.8C351.596 305.588 352.004 304.556 352.832 303.728C353.66 302.9 354.668 302.492 355.868 302.492C357.056 302.492 358.064 302.9 358.892 303.716C359.72 304.532 360.128 305.564 360.128 306.8C360.128 307.988 359.684 309.044 358.796 309.944L359.636 310.952L358.892 311.576L358.028 310.532C357.344 310.916 356.624 311.108 355.868 311.108C354.644 311.108 353.624 310.7 352.82 309.884C352.004 309.08 351.596 308.048 351.596 306.8ZM352.736 306.8C352.736 307.748 353.036 308.528 353.636 309.14C354.236 309.752 354.98 310.064 355.868 310.064C356.408 310.064 356.9 309.932 357.368 309.656L356.648 308.792L357.344 308.18L358.112 309.104C358.7 308.492 358.988 307.724 358.988 306.8C358.988 305.852 358.688 305.072 358.088 304.46C357.488 303.848 356.744 303.536 355.868 303.536C354.98 303.536 354.236 303.836 353.636 304.448C353.036 305.06 352.736 305.852 352.736 306.8ZM361.786 305.048L360.886 304.64C361.33 303.344 362.494 302.492 364.234 302.492C365.062 302.492 365.746 302.684 366.274 303.068C366.802 303.452 367.066 303.968 367.066 304.604C367.066 305.576 366.55 306.296 365.59 306.572C366.514 306.632 367.258 307.328 367.258 308.576C367.258 309.368 366.97 309.992 366.394 310.436C365.818 310.88 365.086 311.108 364.186 311.108C362.35 311.108 361.078 310.232 360.658 308.852L361.63 308.432C362.146 309.524 363.022 310.076 364.258 310.076C365.422 310.076 366.154 309.536 366.154 308.588C366.154 307.664 365.434 307.196 363.994 307.196H363.058V306.2H363.802C365.11 306.2 365.962 305.612 365.962 304.808C365.962 303.98 365.278 303.512 364.186 303.512C362.902 303.512 362.122 304.172 361.786 305.048ZM346.063 319.372L345.187 319.06C345.487 317.572 346.615 316.504 348.403 316.504C350.131 316.504 351.187 317.5 351.187 319.024C351.187 319.828 350.839 320.632 350.407 321.208C350.191 321.508 349.915 321.796 349.591 322.096C348.931 322.684 348.463 322.996 347.779 323.428L346.855 324.004H351.499V325H344.959V324.184L346.783 322.972C347.107 322.768 347.335 322.612 347.467 322.516C347.599 322.432 347.815 322.276 348.103 322.072C348.391 321.868 348.607 321.688 348.751 321.556C348.883 321.424 349.063 321.256 349.267 321.04C349.819 320.44 350.023 319.888 350.083 319.132C350.083 318.04 349.375 317.548 348.331 317.548C347.683 317.548 347.167 317.728 346.795 318.088C346.423 318.448 346.171 318.88 346.063 319.372ZM352.33 320.8C352.33 319.504 352.63 318.46 353.242 317.68C353.842 316.9 354.73 316.504 355.894 316.504C358.282 316.504 359.47 318.076 359.47 320.8C359.47 322.108 359.17 323.14 358.582 323.92C357.982 324.7 357.094 325.096 355.918 325.096C354.79 325.096 353.914 324.7 353.278 323.908C352.642 323.116 352.33 322.084 352.33 320.8ZM353.434 320.8C353.434 322.852 354.37 324.076 355.918 324.076C357.55 324.076 358.366 322.984 358.366 320.8C358.366 318.616 357.538 317.524 355.894 317.524C354.226 317.524 353.434 318.724 353.434 320.8ZM361.327 319.372L360.451 319.06C360.751 317.572 361.879 316.504 363.667 316.504C365.395 316.504 366.451 317.5 366.451 319.024C366.451 319.828 366.103 320.632 365.671 321.208C365.455 321.508 365.179 321.796 364.855 322.096C364.195 322.684 363.727 322.996 363.043 323.428L362.119 324.004H366.763V325H360.223V324.184L362.047 322.972C362.371 322.768 362.599 322.612 362.731 322.516C362.863 322.432 363.079 322.276 363.367 322.072C363.655 321.868 363.871 321.688 364.015 321.556C364.147 321.424 364.327 321.256 364.531 321.04C365.083 320.44 365.287 319.888 365.347 319.132C365.347 318.04 364.639 317.548 363.595 317.548C362.947 317.548 362.431 317.728 362.059 318.088C361.687 318.448 361.435 318.88 361.327 319.372ZM368.554 319.372L367.678 319.06C367.978 317.572 369.106 316.504 370.894 316.504C372.622 316.504 373.678 317.5 373.678 319.024C373.678 319.828 373.33 320.632 372.898 321.208C372.682 321.508 372.406 321.796 372.082 322.096C371.422 322.684 370.954 322.996 370.27 323.428L369.346 324.004H373.99V325H367.45V324.184L369.274 322.972C369.598 322.768 369.826 322.612 369.958 322.516C370.09 322.432 370.306 322.276 370.594 322.072C370.882 321.868 371.098 321.688 371.242 321.556C371.374 321.424 371.554 321.256 371.758 321.04C372.31 320.44 372.514 319.888 372.574 319.132C372.574 318.04 371.866 317.548 370.822 317.548C370.174 317.548 369.658 317.728 369.286 318.088C368.914 318.448 368.662 318.88 368.554 319.372Z" fill="#76848D"/>
<path d="M489.539 306.8C489.539 305.588 489.947 304.556 490.775 303.728C491.603 302.9 492.611 302.492 493.811 302.492C494.999 302.492 496.007 302.9 496.835 303.716C497.663 304.532 498.071 305.564 498.071 306.8C498.071 307.988 497.627 309.044 496.739 309.944L497.579 310.952L496.835 311.576L495.971 310.532C495.287 310.916 494.567 311.108 493.811 311.108C492.587 311.108 491.567 310.7 490.763 309.884C489.947 309.08 489.539 308.048 489.539 306.8ZM490.679 306.8C490.679 307.748 490.979 308.528 491.579 309.14C492.179 309.752 492.923 310.064 493.811 310.064C494.351 310.064 494.843 309.932 495.311 309.656L494.591 308.792L495.287 308.18L496.055 309.104C496.643 308.492 496.931 307.724 496.931 306.8C496.931 305.852 496.631 305.072 496.031 304.46C495.431 303.848 494.687 303.536 493.811 303.536C492.923 303.536 492.179 303.836 491.579 304.448C490.979 305.06 490.679 305.852 490.679 306.8ZM504.698 311H503.654V309.284H498.518V308.588L503.774 302.6H504.698V308.312H506.258V309.284H504.698V311ZM503.654 304.28L499.958 308.312H503.654V304.28ZM484.334 319.372L483.458 319.06C483.758 317.572 484.886 316.504 486.674 316.504C488.402 316.504 489.458 317.5 489.458 319.024C489.458 319.828 489.11 320.632 488.678 321.208C488.462 321.508 488.186 321.796 487.862 322.096C487.202 322.684 486.734 322.996 486.05 323.428L485.126 324.004H489.77V325H483.23V324.184L485.054 322.972C485.378 322.768 485.606 322.612 485.738 322.516C485.87 322.432 486.086 322.276 486.374 322.072C486.662 321.868 486.878 321.688 487.022 321.556C487.154 321.424 487.334 321.256 487.538 321.04C488.09 320.44 488.294 319.888 488.354 319.132C488.354 318.04 487.646 317.548 486.602 317.548C485.954 317.548 485.438 317.728 485.066 318.088C484.694 318.448 484.442 318.88 484.334 319.372ZM490.602 320.8C490.602 319.504 490.902 318.46 491.514 317.68C492.114 316.9 493.002 316.504 494.166 316.504C496.554 316.504 497.742 318.076 497.742 320.8C497.742 322.108 497.442 323.14 496.854 323.92C496.254 324.7 495.366 325.096 494.19 325.096C493.062 325.096 492.186 324.7 491.55 323.908C490.914 323.116 490.602 322.084 490.602 320.8ZM491.706 320.8C491.706 322.852 492.642 324.076 494.19 324.076C495.822 324.076 496.638 322.984 496.638 320.8C496.638 318.616 495.81 317.524 494.166 317.524C492.498 317.524 491.706 318.724 491.706 320.8ZM499.598 319.372L498.722 319.06C499.022 317.572 500.15 316.504 501.938 316.504C503.666 316.504 504.722 317.5 504.722 319.024C504.722 319.828 504.374 320.632 503.942 321.208C503.726 321.508 503.45 321.796 503.126 322.096C502.466 322.684 501.998 322.996 501.314 323.428L500.39 324.004H505.034V325H498.494V324.184L500.318 322.972C500.642 322.768 500.87 322.612 501.002 322.516C501.134 322.432 501.35 322.276 501.638 322.072C501.926 321.868 502.142 321.688 502.286 321.556C502.418 321.424 502.598 321.256 502.802 321.04C503.354 320.44 503.558 319.888 503.618 319.132C503.618 318.04 502.91 317.548 501.866 317.548C501.218 317.548 500.702 317.728 500.33 318.088C499.958 318.448 499.706 318.88 499.598 319.372ZM506.826 319.372L505.95 319.06C506.25 317.572 507.378 316.504 509.166 316.504C510.894 316.504 511.95 317.5 511.95 319.024C511.95 319.828 511.602 320.632 511.17 321.208C510.954 321.508 510.678 321.796 510.354 322.096C509.694 322.684 509.226 322.996 508.542 323.428L507.618 324.004H512.262V325H505.722V324.184L507.546 322.972C507.87 322.768 508.098 322.612 508.23 322.516C508.362 322.432 508.578 322.276 508.866 322.072C509.154 321.868 509.37 321.688 509.514 321.556C509.646 321.424 509.826 321.256 510.03 321.04C510.582 320.44 510.786 319.888 510.846 319.132C510.846 318.04 510.138 317.548 509.094 317.548C508.446 317.548 507.93 317.728 507.558 318.088C507.186 318.448 506.934 318.88 506.826 319.372Z" fill="#76848D"/>
<path d="M629.475 306.8C629.475 305.588 629.883 304.556 630.711 303.728C631.539 302.9 632.547 302.492 633.747 302.492C634.935 302.492 635.943 302.9 636.771 303.716C637.599 304.532 638.007 305.564 638.007 306.8C638.007 307.988 637.563 309.044 636.675 309.944L637.515 310.952L636.771 311.576L635.907 310.532C635.223 310.916 634.503 311.108 633.747 311.108C632.523 311.108 631.503 310.7 630.699 309.884C629.883 309.08 629.475 308.048 629.475 306.8ZM630.615 306.8C630.615 307.748 630.915 308.528 631.515 309.14C632.115 309.752 632.859 310.064 633.747 310.064C634.287 310.064 634.779 309.932 635.247 309.656L634.527 308.792L635.223 308.18L635.991 309.104C636.579 308.492 636.867 307.724 636.867 306.8C636.867 305.852 636.567 305.072 635.967 304.46C635.367 303.848 634.623 303.536 633.747 303.536C632.859 303.536 632.115 303.836 631.515 304.448C630.915 305.06 630.615 305.852 630.615 306.8ZM638.741 304.832L638.357 303.932L641.237 302.552H641.921V311H640.889V303.836L638.741 304.832ZM622.576 319.372L621.7 319.06C622 317.572 623.128 316.504 624.916 316.504C626.644 316.504 627.7 317.5 627.7 319.024C627.7 319.828 627.352 320.632 626.92 321.208C626.704 321.508 626.428 321.796 626.104 322.096C625.444 322.684 624.976 322.996 624.292 323.428L623.368 324.004H628.012V325H621.472V324.184L623.296 322.972C623.62 322.768 623.848 322.612 623.98 322.516C624.112 322.432 624.328 322.276 624.616 322.072C624.904 321.868 625.12 321.688 625.264 321.556C625.396 321.424 625.576 321.256 625.78 321.04C626.332 320.44 626.536 319.888 626.596 319.132C626.596 318.04 625.888 317.548 624.844 317.548C624.196 317.548 623.68 317.728 623.308 318.088C622.936 318.448 622.684 318.88 622.576 319.372ZM628.844 320.8C628.844 319.504 629.144 318.46 629.756 317.68C630.356 316.9 631.244 316.504 632.408 316.504C634.796 316.504 635.984 318.076 635.984 320.8C635.984 322.108 635.684 323.14 635.096 323.92C634.496 324.7 633.608 325.096 632.432 325.096C631.304 325.096 630.428 324.7 629.792 323.908C629.156 323.116 628.844 322.084 628.844 320.8ZM629.948 320.8C629.948 322.852 630.884 324.076 632.432 324.076C634.064 324.076 634.88 322.984 634.88 320.8C634.88 318.616 634.052 317.524 632.408 317.524C630.74 317.524 629.948 318.724 629.948 320.8ZM637.84 319.372L636.964 319.06C637.264 317.572 638.392 316.504 640.18 316.504C641.908 316.504 642.964 317.5 642.964 319.024C642.964 319.828 642.616 320.632 642.184 321.208C641.968 321.508 641.692 321.796 641.368 322.096C640.708 322.684 640.24 322.996 639.556 323.428L638.632 324.004H643.276V325H636.736V324.184L638.56 322.972C638.884 322.768 639.112 322.612 639.244 322.516C639.376 322.432 639.592 322.276 639.88 322.072C640.168 321.868 640.384 321.688 640.528 321.556C640.66 321.424 640.84 321.256 641.044 321.04C641.596 320.44 641.8 319.888 641.86 319.132C641.86 318.04 641.152 317.548 640.108 317.548C639.46 317.548 638.944 317.728 638.572 318.088C638.2 318.448 637.948 318.88 637.84 319.372ZM644.936 319.048L644.036 318.64C644.48 317.344 645.644 316.492 647.384 316.492C648.212 316.492 648.896 316.684 649.424 317.068C649.952 317.452 650.216 317.968 650.216 318.604C650.216 319.576 649.7 320.296 648.74 320.572C649.664 320.632 650.408 321.328 650.408 322.576C650.408 323.368 650.12 323.992 649.544 324.436C648.968 324.88 648.236 325.108 647.336 325.108C645.5 325.108 644.228 324.232 643.808 322.852L644.78 322.432C645.296 323.524 646.172 324.076 647.408 324.076C648.572 324.076 649.304 323.536 649.304 322.588C649.304 321.664 648.584 321.196 647.144 321.196H646.208V320.2H646.952C648.26 320.2 649.112 319.612 649.112 318.808C649.112 317.98 648.428 317.512 647.336 317.512C646.052 317.512 645.272 318.172 644.936 319.048Z" fill="#76848D"/>
<path d="M766.44 306.8C766.44 305.588 766.848 304.556 767.676 303.728C768.504 302.9 769.512 302.492 770.712 302.492C771.9 302.492 772.908 302.9 773.736 303.716C774.564 304.532 774.972 305.564 774.972 306.8C774.972 307.988 774.528 309.044 773.64 309.944L774.48 310.952L773.736 311.576L772.872 310.532C772.188 310.916 771.468 311.108 770.712 311.108C769.488 311.108 768.468 310.7 767.664 309.884C766.848 309.08 766.44 308.048 766.44 306.8ZM767.58 306.8C767.58 307.748 767.88 308.528 768.48 309.14C769.08 309.752 769.824 310.064 770.712 310.064C771.252 310.064 771.744 309.932 772.212 309.656L771.492 308.792L772.188 308.18L772.956 309.104C773.544 308.492 773.832 307.724 773.832 306.8C773.832 305.852 773.532 305.072 772.932 304.46C772.332 303.848 771.588 303.536 770.712 303.536C769.824 303.536 769.08 303.836 768.48 304.448C767.88 305.06 767.58 305.852 767.58 306.8ZM776.762 305.372L775.886 305.06C776.186 303.572 777.314 302.504 779.102 302.504C780.83 302.504 781.886 303.5 781.886 305.024C781.886 305.828 781.538 306.632 781.106 307.208C780.89 307.508 780.614 307.796 780.29 308.096C779.63 308.684 779.162 308.996 778.478 309.428L777.554 310.004H782.198V311H775.658V310.184L777.482 308.972C777.806 308.768 778.034 308.612 778.166 308.516C778.298 308.432 778.514 308.276 778.802 308.072C779.09 307.868 779.306 307.688 779.45 307.556C779.582 307.424 779.762 307.256 779.966 307.04C780.518 306.44 780.722 305.888 780.782 305.132C780.782 304.04 780.074 303.548 779.03 303.548C778.382 303.548 777.866 303.728 777.494 304.088C777.122 304.448 776.87 304.88 776.762 305.372ZM760.848 319.372L759.972 319.06C760.272 317.572 761.4 316.504 763.188 316.504C764.916 316.504 765.972 317.5 765.972 319.024C765.972 319.828 765.624 320.632 765.192 321.208C764.976 321.508 764.7 321.796 764.376 322.096C763.716 322.684 763.248 322.996 762.564 323.428L761.64 324.004H766.284V325H759.744V324.184L761.568 322.972C761.892 322.768 762.12 322.612 762.252 322.516C762.384 322.432 762.6 322.276 762.888 322.072C763.176 321.868 763.392 321.688 763.536 321.556C763.668 321.424 763.848 321.256 764.052 321.04C764.604 320.44 764.808 319.888 764.868 319.132C764.868 318.04 764.16 317.548 763.116 317.548C762.468 317.548 761.952 317.728 761.58 318.088C761.208 318.448 760.956 318.88 760.848 319.372ZM767.116 320.8C767.116 319.504 767.416 318.46 768.028 317.68C768.628 316.9 769.516 316.504 770.68 316.504C773.068 316.504 774.256 318.076 774.256 320.8C774.256 322.108 773.956 323.14 773.368 323.92C772.768 324.7 771.88 325.096 770.704 325.096C769.576 325.096 768.7 324.7 768.064 323.908C767.428 323.116 767.116 322.084 767.116 320.8ZM768.22 320.8C768.22 322.852 769.156 324.076 770.704 324.076C772.336 324.076 773.152 322.984 773.152 320.8C773.152 318.616 772.324 317.524 770.68 317.524C769.012 317.524 768.22 318.724 768.22 320.8ZM776.112 319.372L775.236 319.06C775.536 317.572 776.664 316.504 778.452 316.504C780.18 316.504 781.236 317.5 781.236 319.024C781.236 319.828 780.888 320.632 780.456 321.208C780.24 321.508 779.964 321.796 779.64 322.096C778.98 322.684 778.512 322.996 777.828 323.428L776.904 324.004H781.548V325H775.008V324.184L776.832 322.972C777.156 322.768 777.384 322.612 777.516 322.516C777.648 322.432 777.864 322.276 778.152 322.072C778.44 321.868 778.656 321.688 778.8 321.556C778.932 321.424 779.112 321.256 779.316 321.04C779.868 320.44 780.072 319.888 780.132 319.132C780.132 318.04 779.424 317.548 778.38 317.548C777.732 317.548 777.216 317.728 776.844 318.088C776.472 318.448 776.22 318.88 776.112 319.372ZM783.208 319.048L782.308 318.64C782.752 317.344 783.916 316.492 785.656 316.492C786.484 316.492 787.168 316.684 787.696 317.068C788.224 317.452 788.488 317.968 788.488 318.604C788.488 319.576 787.972 320.296 787.012 320.572C787.936 320.632 788.68 321.328 788.68 322.576C788.68 323.368 788.392 323.992 787.816 324.436C787.24 324.88 786.508 325.108 785.608 325.108C783.772 325.108 782.5 324.232 782.08 322.852L783.052 322.432C783.568 323.524 784.444 324.076 785.68 324.076C786.844 324.076 787.576 323.536 787.576 322.588C787.576 321.664 786.856 321.196 785.416 321.196H784.48V320.2H785.224C786.532 320.2 787.384 319.612 787.384 318.808C787.384 317.98 786.7 317.512 785.608 317.512C784.324 317.512 783.544 318.172 783.208 319.048Z" fill="#76848D"/>
<path d="M904.682 306.8C904.682 305.588 905.09 304.556 905.918 303.728C906.746 302.9 907.754 302.492 908.954 302.492C910.142 302.492 911.15 302.9 911.978 303.716C912.806 304.532 913.214 305.564 913.214 306.8C913.214 307.988 912.77 309.044 911.882 309.944L912.722 310.952L911.978 311.576L911.114 310.532C910.43 310.916 909.71 311.108 908.954 311.108C907.73 311.108 906.71 310.7 905.906 309.884C905.09 309.08 904.682 308.048 904.682 306.8ZM905.822 306.8C905.822 307.748 906.122 308.528 906.722 309.14C907.322 309.752 908.066 310.064 908.954 310.064C909.494 310.064 909.986 309.932 910.454 309.656L909.734 308.792L910.43 308.18L911.198 309.104C911.786 308.492 912.074 307.724 912.074 306.8C912.074 305.852 911.774 305.072 911.174 304.46C910.574 303.848 909.83 303.536 908.954 303.536C908.066 303.536 907.322 303.836 906.722 304.448C906.122 305.06 905.822 305.852 905.822 306.8ZM914.873 305.048L913.973 304.64C914.417 303.344 915.581 302.492 917.321 302.492C918.149 302.492 918.833 302.684 919.361 303.068C919.889 303.452 920.153 303.968 920.153 304.604C920.153 305.576 919.637 306.296 918.677 306.572C919.601 306.632 920.345 307.328 920.345 308.576C920.345 309.368 920.057 309.992 919.481 310.436C918.905 310.88 918.173 311.108 917.273 311.108C915.437 311.108 914.165 310.232 913.745 308.852L914.717 308.432C915.233 309.524 916.109 310.076 917.345 310.076C918.509 310.076 919.241 309.536 919.241 308.588C919.241 307.664 918.521 307.196 917.081 307.196H916.145V306.2H916.889C918.197 306.2 919.049 305.612 919.049 304.808C919.049 303.98 918.365 303.512 917.273 303.512C915.989 303.512 915.209 304.172 914.873 305.048ZM899.12 319.372L898.244 319.06C898.544 317.572 899.672 316.504 901.46 316.504C903.188 316.504 904.244 317.5 904.244 319.024C904.244 319.828 903.896 320.632 903.464 321.208C903.248 321.508 902.972 321.796 902.648 322.096C901.988 322.684 901.52 322.996 900.836 323.428L899.912 324.004H904.556V325H898.016V324.184L899.84 322.972C900.164 322.768 900.392 322.612 900.524 322.516C900.656 322.432 900.872 322.276 901.16 322.072C901.448 321.868 901.664 321.688 901.808 321.556C901.94 321.424 902.12 321.256 902.324 321.04C902.876 320.44 903.08 319.888 903.14 319.132C903.14 318.04 902.432 317.548 901.388 317.548C900.74 317.548 900.224 317.728 899.852 318.088C899.48 318.448 899.228 318.88 899.12 319.372ZM905.388 320.8C905.388 319.504 905.688 318.46 906.3 317.68C906.9 316.9 907.788 316.504 908.952 316.504C911.34 316.504 912.528 318.076 912.528 320.8C912.528 322.108 912.228 323.14 911.64 323.92C911.04 324.7 910.152 325.096 908.976 325.096C907.848 325.096 906.972 324.7 906.336 323.908C905.7 323.116 905.388 322.084 905.388 320.8ZM906.492 320.8C906.492 322.852 907.428 324.076 908.976 324.076C910.608 324.076 911.424 322.984 911.424 320.8C911.424 318.616 910.596 317.524 908.952 317.524C907.284 317.524 906.492 318.724 906.492 320.8ZM914.384 319.372L913.508 319.06C913.808 317.572 914.936 316.504 916.724 316.504C918.452 316.504 919.508 317.5 919.508 319.024C919.508 319.828 919.16 320.632 918.728 321.208C918.512 321.508 918.236 321.796 917.912 322.096C917.252 322.684 916.784 322.996 916.1 323.428L915.176 324.004H919.82V325H913.28V324.184L915.104 322.972C915.428 322.768 915.656 322.612 915.788 322.516C915.92 322.432 916.136 322.276 916.424 322.072C916.712 321.868 916.928 321.688 917.072 321.556C917.204 321.424 917.384 321.256 917.588 321.04C918.14 320.44 918.344 319.888 918.404 319.132C918.404 318.04 917.696 317.548 916.652 317.548C916.004 317.548 915.488 317.728 915.116 318.088C914.744 318.448 914.492 318.88 914.384 319.372ZM921.479 319.048L920.579 318.64C921.023 317.344 922.187 316.492 923.927 316.492C924.755 316.492 925.439 316.684 925.967 317.068C926.495 317.452 926.759 317.968 926.759 318.604C926.759 319.576 926.243 320.296 925.283 320.572C926.207 320.632 926.951 321.328 926.951 322.576C926.951 323.368 926.663 323.992 926.087 324.436C925.511 324.88 924.779 325.108 923.879 325.108C922.043 325.108 920.771 324.232 920.351 322.852L921.323 322.432C921.839 323.524 922.715 324.076 923.951 324.076C925.115 324.076 925.847 323.536 925.847 322.588C925.847 321.664 925.127 321.196 923.687 321.196H922.751V320.2H923.495C924.803 320.2 925.655 319.612 925.655 318.808C925.655 317.98 924.971 317.512 923.879 317.512C922.595 317.512 921.815 318.172 921.479 319.048Z" fill="#76848D"/>
<path d="M1042.63 306.8C1042.63 305.588 1043.03 304.556 1043.86 303.728C1044.69 302.9 1045.7 302.492 1046.9 302.492C1048.09 302.492 1049.09 302.9 1049.92 303.716C1050.75 304.532 1051.16 305.564 1051.16 306.8C1051.16 307.988 1050.71 309.044 1049.83 309.944L1050.67 310.952L1049.92 311.576L1049.06 310.532C1048.37 310.916 1047.65 311.108 1046.9 311.108C1045.67 311.108 1044.65 310.7 1043.85 309.884C1043.03 309.08 1042.63 308.048 1042.63 306.8ZM1043.77 306.8C1043.77 307.748 1044.07 308.528 1044.67 309.14C1045.27 309.752 1046.01 310.064 1046.9 310.064C1047.44 310.064 1047.93 309.932 1048.4 309.656L1047.68 308.792L1048.37 308.18L1049.14 309.104C1049.73 308.492 1050.02 307.724 1050.02 306.8C1050.02 305.852 1049.72 305.072 1049.12 304.46C1048.52 303.848 1047.77 303.536 1046.9 303.536C1046.01 303.536 1045.27 303.836 1044.67 304.448C1044.07 305.06 1043.77 305.852 1043.77 306.8ZM1057.78 311H1056.74V309.284H1051.6V308.588L1056.86 302.6H1057.78V308.312H1059.34V309.284H1057.78V311ZM1056.74 304.28L1053.04 308.312H1056.74V304.28ZM1037.39 319.372L1036.52 319.06C1036.82 317.572 1037.94 316.504 1039.73 316.504C1041.46 316.504 1042.52 317.5 1042.52 319.024C1042.52 319.828 1042.17 320.632 1041.74 321.208C1041.52 321.508 1041.24 321.796 1040.92 322.096C1040.26 322.684 1039.79 322.996 1039.11 323.428L1038.18 324.004H1042.83V325H1036.29V324.184L1038.11 322.972C1038.44 322.768 1038.66 322.612 1038.8 322.516C1038.93 322.432 1039.14 322.276 1039.43 322.072C1039.72 321.868 1039.94 321.688 1040.08 321.556C1040.21 321.424 1040.39 321.256 1040.6 321.04C1041.15 320.44 1041.35 319.888 1041.41 319.132C1041.41 318.04 1040.7 317.548 1039.66 317.548C1039.01 317.548 1038.5 317.728 1038.12 318.088C1037.75 318.448 1037.5 318.88 1037.39 319.372ZM1043.66 320.8C1043.66 319.504 1043.96 318.46 1044.57 317.68C1045.17 316.9 1046.06 316.504 1047.22 316.504C1049.61 316.504 1050.8 318.076 1050.8 320.8C1050.8 322.108 1050.5 323.14 1049.91 323.92C1049.31 324.7 1048.42 325.096 1047.25 325.096C1046.12 325.096 1045.24 324.7 1044.61 323.908C1043.97 323.116 1043.66 322.084 1043.66 320.8ZM1044.76 320.8C1044.76 322.852 1045.7 324.076 1047.25 324.076C1048.88 324.076 1049.7 322.984 1049.7 320.8C1049.7 318.616 1048.87 317.524 1047.22 317.524C1045.56 317.524 1044.76 318.724 1044.76 320.8ZM1052.66 319.372L1051.78 319.06C1052.08 317.572 1053.21 316.504 1055 316.504C1056.72 316.504 1057.78 317.5 1057.78 319.024C1057.78 319.828 1057.43 320.632 1057 321.208C1056.78 321.508 1056.51 321.796 1056.18 322.096C1055.52 322.684 1055.06 322.996 1054.37 323.428L1053.45 324.004H1058.09V325H1051.55V324.184L1053.38 322.972C1053.7 322.768 1053.93 322.612 1054.06 322.516C1054.19 322.432 1054.41 322.276 1054.7 322.072C1054.98 321.868 1055.2 321.688 1055.34 321.556C1055.48 321.424 1055.66 321.256 1055.86 321.04C1056.41 320.44 1056.62 319.888 1056.68 319.132C1056.68 318.04 1055.97 317.548 1054.92 317.548C1054.28 317.548 1053.76 317.728 1053.39 318.088C1053.02 318.448 1052.76 318.88 1052.66 319.372ZM1059.75 319.048L1058.85 318.64C1059.29 317.344 1060.46 316.492 1062.2 316.492C1063.03 316.492 1063.71 316.684 1064.24 317.068C1064.77 317.452 1065.03 317.968 1065.03 318.604C1065.03 319.576 1064.51 320.296 1063.55 320.572C1064.48 320.632 1065.22 321.328 1065.22 322.576C1065.22 323.368 1064.93 323.992 1064.36 324.436C1063.78 324.88 1063.05 325.108 1062.15 325.108C1060.31 325.108 1059.04 324.232 1058.62 322.852L1059.59 322.432C1060.11 323.524 1060.99 324.076 1062.22 324.076C1063.39 324.076 1064.12 323.536 1064.12 322.588C1064.12 321.664 1063.4 321.196 1061.96 321.196H1061.02V320.2H1061.77C1063.07 320.2 1063.93 319.612 1063.93 318.808C1063.93 317.98 1063.24 317.512 1062.15 317.512C1060.87 317.512 1060.09 318.172 1059.75 319.048Z" fill="#76848D"/>
<defs>
<linearGradient id="paint0_linear_6003_19089" x1="0.476191" y1="12" x2="10" y2="12" gradientUnits="userSpaceOnUse">
<stop stop-color="#CEE8EF"/>
<stop offset="1" stop-color="#CEE8EF"/>
</linearGradient>
<linearGradient id="paint1_linear_6003_19089" x1="51.6543" y1="71" x2="51.6543" y2="295" gradientUnits="userSpaceOnUse">
<stop stop-color="#CDE3E9"/>
<stop offset="1" stop-color="#D3E8ED"/>
</linearGradient>
<linearGradient id="paint2_linear_6003_19089" x1="51.6543" y1="71" x2="51.6543" y2="295" gradientUnits="userSpaceOnUse">
<stop stop-color="white" stop-opacity="0"/>
<stop offset="0.739583" stop-color="white"/>
</linearGradient>
<linearGradient id="paint3_linear_6003_19089" x1="33.6543" y1="-365.8" x2="33.6543" y2="295" gradientUnits="userSpaceOnUse">
<stop stop-color="white" stop-opacity="0.05"/>
<stop offset="0.75" stop-color="white" stop-opacity="0.8"/>
</linearGradient>
<linearGradient id="paint4_linear_6003_19089" x1="113.876" y1="79" x2="113.876" y2="295" gradientUnits="userSpaceOnUse">
<stop stop-color="#6D73F9"/>
<stop offset="1" stop-color="#9BB8F1"/>
</linearGradient>
<linearGradient id="paint5_linear_6003_19089" x1="113.876" y1="79" x2="113.876" y2="295" gradientUnits="userSpaceOnUse">
<stop stop-color="white" stop-opacity="0"/>
<stop offset="0.739583" stop-color="white"/>
</linearGradient>
<linearGradient id="paint6_linear_6003_19089" x1="95.8765" y1="-342.2" x2="95.8765" y2="295" gradientUnits="userSpaceOnUse">
<stop stop-color="white" stop-opacity="0.05"/>
<stop offset="0.75" stop-color="white" stop-opacity="0.8"/>
</linearGradient>
<linearGradient id="paint7_linear_6003_19089" x1="466.469" y1="223" x2="466.469" y2="295" gradientUnits="userSpaceOnUse">
<stop stop-color="#CDE3E9"/>
<stop offset="1" stop-color="#D3E8ED"/>
</linearGradient>
<linearGradient id="paint8_linear_6003_19089" x1="466.469" y1="223" x2="466.469" y2="295" gradientUnits="userSpaceOnUse">
<stop stop-color="white" stop-opacity="0"/>
<stop offset="0.739583" stop-color="white"/>
</linearGradient>
<linearGradient id="paint9_linear_6003_19089" x1="448.469" y1="82.6" x2="448.469" y2="295" gradientUnits="userSpaceOnUse">
<stop stop-color="white" stop-opacity="0.05"/>
<stop offset="0.75" stop-color="white" stop-opacity="0.8"/>
</linearGradient>
<linearGradient id="paint10_linear_6003_19089" x1="528.691" y1="219" x2="528.691" y2="295" gradientUnits="userSpaceOnUse">
<stop stop-color="#6D73F9"/>
<stop offset="1" stop-color="#9BB8F1"/>
</linearGradient>
<linearGradient id="paint11_linear_6003_19089" x1="528.691" y1="219" x2="528.691" y2="295" gradientUnits="userSpaceOnUse">
<stop stop-color="white" stop-opacity="0"/>
<stop offset="0.739583" stop-color="white"/>
</linearGradient>
<linearGradient id="paint12_linear_6003_19089" x1="510.691" y1="70.8" x2="510.691" y2="295" gradientUnits="userSpaceOnUse">
<stop stop-color="white" stop-opacity="0.05"/>
<stop offset="0.75" stop-color="white" stop-opacity="0.8"/>
</linearGradient>
<linearGradient id="paint13_linear_6003_19089" x1="189.926" y1="129" x2="189.926" y2="295" gradientUnits="userSpaceOnUse">
<stop stop-color="#CDE3E9"/>
<stop offset="1" stop-color="#D3E8ED"/>
</linearGradient>
<linearGradient id="paint14_linear_6003_19089" x1="189.926" y1="129" x2="189.926" y2="295" gradientUnits="userSpaceOnUse">
<stop stop-color="white" stop-opacity="0"/>
<stop offset="0.739583" stop-color="white"/>
</linearGradient>
<linearGradient id="paint15_linear_6003_19089" x1="171.926" y1="-194.7" x2="171.926" y2="295" gradientUnits="userSpaceOnUse">
<stop stop-color="white" stop-opacity="0.05"/>
<stop offset="0.75" stop-color="white" stop-opacity="0.8"/>
</linearGradient>
<linearGradient id="paint16_linear_6003_19089" x1="252.148" y1="131" x2="252.148" y2="295" gradientUnits="userSpaceOnUse">
<stop stop-color="#6D73F9"/>
<stop offset="1" stop-color="#9BB8F1"/>
</linearGradient>
<linearGradient id="paint17_linear_6003_19089" x1="252.148" y1="131" x2="252.148" y2="295" gradientUnits="userSpaceOnUse">
<stop stop-color="white" stop-opacity="0"/>
<stop offset="0.739583" stop-color="white"/>
</linearGradient>
<linearGradient id="paint18_linear_6003_19089" x1="234.148" y1="-188.8" x2="234.148" y2="295" gradientUnits="userSpaceOnUse">
<stop stop-color="white" stop-opacity="0.05"/>
<stop offset="0.75" stop-color="white" stop-opacity="0.8"/>
</linearGradient>
<linearGradient id="paint19_linear_6003_19089" x1="604.741" y1="247" x2="604.741" y2="295" gradientUnits="userSpaceOnUse">
<stop stop-color="#CDE3E9"/>
<stop offset="1" stop-color="#D3E8ED"/>
</linearGradient>
<linearGradient id="paint20_linear_6003_19089" x1="604.741" y1="247" x2="604.741" y2="295" gradientUnits="userSpaceOnUse">
<stop stop-color="white" stop-opacity="0"/>
<stop offset="0.739583" stop-color="white"/>
</linearGradient>
<linearGradient id="paint21_linear_6003_19089" x1="586.741" y1="153.4" x2="586.741" y2="295" gradientUnits="userSpaceOnUse">
<stop stop-color="white" stop-opacity="0.05"/>
<stop offset="0.75" stop-color="white" stop-opacity="0.8"/>
</linearGradient>
<linearGradient id="paint22_linear_6003_19089" x1="666.963" y1="243" x2="666.963" y2="295" gradientUnits="userSpaceOnUse">
<stop stop-color="#6D73F9"/>
<stop offset="1" stop-color="#9BB8F1"/>
</linearGradient>
<linearGradient id="paint23_linear_6003_19089" x1="666.963" y1="243" x2="666.963" y2="295" gradientUnits="userSpaceOnUse">
<stop stop-color="white" stop-opacity="0"/>
<stop offset="0.739583" stop-color="white"/>
</linearGradient>
<linearGradient id="paint24_linear_6003_19089" x1="648.963" y1="141.6" x2="648.963" y2="295" gradientUnits="userSpaceOnUse">
<stop stop-color="white" stop-opacity="0.05"/>
<stop offset="0.75" stop-color="white" stop-opacity="0.8"/>
</linearGradient>
<linearGradient id="paint25_linear_6003_19089" x1="328.198" y1="191" x2="328.198" y2="295" gradientUnits="userSpaceOnUse">
<stop stop-color="#CDE3E9"/>
<stop offset="1" stop-color="#D3E8ED"/>
</linearGradient>
<linearGradient id="paint26_linear_6003_19089" x1="328.198" y1="191" x2="328.198" y2="295" gradientUnits="userSpaceOnUse">
<stop stop-color="white" stop-opacity="0"/>
<stop offset="0.739583" stop-color="white"/>
</linearGradient>
<linearGradient id="paint27_linear_6003_19089" x1="310.198" y1="-11.8" x2="310.198" y2="295" gradientUnits="userSpaceOnUse">
<stop stop-color="white" stop-opacity="0.05"/>
<stop offset="0.75" stop-color="white" stop-opacity="0.8"/>
</linearGradient>
<linearGradient id="paint28_linear_6003_19089" x1="390.42" y1="195" x2="390.42" y2="295" gradientUnits="userSpaceOnUse">
<stop stop-color="#6D73F9"/>
<stop offset="1" stop-color="#9BB8F1"/>
</linearGradient>
<linearGradient id="paint29_linear_6003_19089" x1="390.42" y1="195" x2="390.42" y2="295" gradientUnits="userSpaceOnUse">
<stop stop-color="white" stop-opacity="0"/>
<stop offset="0.739583" stop-color="white"/>
</linearGradient>
<linearGradient id="paint30_linear_6003_19089" x1="372.42" y1="7.03335e-06" x2="372.42" y2="295" gradientUnits="userSpaceOnUse">
<stop stop-color="white" stop-opacity="0.05"/>
<stop offset="0.75" stop-color="white" stop-opacity="0.8"/>
</linearGradient>
<linearGradient id="paint31_linear_6003_19089" x1="743.012" y1="271" x2="743.012" y2="295" gradientUnits="userSpaceOnUse">
<stop stop-color="#CDE3E9"/>
<stop offset="1" stop-color="#D3E8ED"/>
</linearGradient>
<linearGradient id="paint32_linear_6003_19089" x1="743.012" y1="271" x2="743.012" y2="295" gradientUnits="userSpaceOnUse">
<stop stop-color="white" stop-opacity="0"/>
<stop offset="0.739583" stop-color="white"/>
</linearGradient>
<linearGradient id="paint33_linear_6003_19089" x1="725.012" y1="224.2" x2="725.012" y2="295" gradientUnits="userSpaceOnUse">
<stop stop-color="white" stop-opacity="0.05"/>
<stop offset="0.75" stop-color="white" stop-opacity="0.8"/>
</linearGradient>
<linearGradient id="paint34_linear_6003_19089" x1="805.234" y1="267" x2="805.234" y2="295" gradientUnits="userSpaceOnUse">
<stop stop-color="#6D73F9"/>
<stop offset="1" stop-color="#9BB8F1"/>
</linearGradient>
<linearGradient id="paint35_linear_6003_19089" x1="805.234" y1="267" x2="805.234" y2="295" gradientUnits="userSpaceOnUse">
<stop stop-color="white" stop-opacity="0"/>
<stop offset="0.739583" stop-color="white"/>
</linearGradient>
<linearGradient id="paint36_linear_6003_19089" x1="787.234" y1="212.4" x2="787.234" y2="295" gradientUnits="userSpaceOnUse">
<stop stop-color="white" stop-opacity="0.05"/>
<stop offset="0.75" stop-color="white" stop-opacity="0.8"/>
</linearGradient>
<linearGradient id="paint37_linear_6003_19089" x1="863.284" y1="282.2" x2="863.284" y2="294" gradientUnits="userSpaceOnUse">
<stop stop-color="white" stop-opacity="0.05"/>
<stop offset="0.75" stop-color="white" stop-opacity="0.8"/>
</linearGradient>
<linearGradient id="paint38_linear_6003_19089" x1="925.506" y1="282.2" x2="925.506" y2="294" gradientUnits="userSpaceOnUse">
<stop stop-color="white" stop-opacity="0.05"/>
<stop offset="0.75" stop-color="white" stop-opacity="0.8"/>
</linearGradient>
<linearGradient id="paint39_linear_6003_19089" x1="1019.56" y1="286" x2="1019.56" y2="294" gradientUnits="userSpaceOnUse">
<stop stop-color="#CDE3E9"/>
<stop offset="1" stop-color="#D3E8ED"/>
</linearGradient>
<linearGradient id="paint40_linear_6003_19089" x1="1019.56" y1="286" x2="1019.56" y2="294" gradientUnits="userSpaceOnUse">
<stop stop-color="white" stop-opacity="0"/>
<stop offset="0.739583" stop-color="white"/>
</linearGradient>
<linearGradient id="paint41_linear_6003_19089" x1="1001.56" y1="270.4" x2="1001.56" y2="294" gradientUnits="userSpaceOnUse">
<stop stop-color="white" stop-opacity="0.05"/>
<stop offset="0.75" stop-color="white" stop-opacity="0.8"/>
</linearGradient>
<linearGradient id="paint42_linear_6003_19089" x1="1081.78" y1="290" x2="1081.78" y2="294" gradientUnits="userSpaceOnUse">
<stop stop-color="#6D73F9"/>
<stop offset="1" stop-color="#9BB8F1"/>
</linearGradient>
<linearGradient id="paint43_linear_6003_19089" x1="1081.78" y1="290" x2="1081.78" y2="294" gradientUnits="userSpaceOnUse">
<stop stop-color="white" stop-opacity="0"/>
<stop offset="0.739583" stop-color="white"/>
</linearGradient>
<linearGradient id="paint44_linear_6003_19089" x1="1063.78" y1="282.2" x2="1063.78" y2="294" gradientUnits="userSpaceOnUse">
<stop stop-color="white" stop-opacity="0.05"/>
<stop offset="0.75" stop-color="white" stop-opacity="0.8"/>
</linearGradient>
</defs>
</svg>
