<svg width="540" height="214" viewBox="0 0 540 214" fill="none" xmlns="http://www.w3.org/2000/svg">
<path d="M188.433 69.1C188.433 67.588 188.783 66.37 189.497 65.46C190.197 64.55 191.233 64.088 192.591 64.088C195.377 64.088 196.763 65.922 196.763 69.1C196.763 70.626 196.413 71.83 195.727 72.74C195.027 73.65 193.991 74.112 192.619 74.112C191.303 74.112 190.281 73.65 189.539 72.726C188.797 71.802 188.433 70.598 188.433 69.1ZM189.721 69.1C189.721 71.494 190.813 72.922 192.619 72.922C194.523 72.922 195.475 71.648 195.475 69.1C195.475 66.552 194.509 65.278 192.591 65.278C190.645 65.278 189.721 66.678 189.721 69.1ZM197.907 73.202C197.907 72.81 198.271 72.418 198.775 72.418C199.237 72.418 199.615 72.81 199.615 73.202C199.615 73.65 199.265 74.028 198.775 74.028C198.271 74.028 197.907 73.65 197.907 73.202ZM206.387 65.39H200.451V64.2H207.885V64.998L203.013 74H201.683L206.387 65.39Z" fill="#2A3C3C"/>
<path d="M188.433 69.1C188.433 67.588 188.783 66.37 189.497 65.46C190.197 64.55 191.233 64.088 192.591 64.088C195.377 64.088 196.763 65.922 196.763 69.1C196.763 70.626 196.413 71.83 195.727 72.74C195.027 73.65 193.991 74.112 192.619 74.112C191.303 74.112 190.281 73.65 189.539 72.726C188.797 71.802 188.433 70.598 188.433 69.1ZM189.721 69.1C189.721 71.494 190.813 72.922 192.619 72.922C194.523 72.922 195.475 71.648 195.475 69.1C195.475 66.552 194.509 65.278 192.591 65.278C190.645 65.278 189.721 66.678 189.721 69.1ZM197.907 73.202C197.907 72.81 198.271 72.418 198.775 72.418C199.237 72.418 199.615 72.81 199.615 73.202C199.615 73.65 199.265 74.028 198.775 74.028C198.271 74.028 197.907 73.65 197.907 73.202ZM206.387 65.39H200.451V64.2H207.885V64.998L203.013 74H201.683L206.387 65.39Z" fill="#1A3341"/>
<path d="M170 86C170 84.8954 170.895 84 172 84H224C225.105 84 226 84.8954 226 86V181H170V86Z" fill="url(#paint0_linear_6003_19092)"/>
<path opacity="0.2" d="M182 84H214V181H182V84Z" fill="url(#paint1_linear_6003_19092)"/>
<path opacity="0.04" d="M214 84H224C225.105 84 226 84.8954 226 86V181H214V84Z" fill="#0D262C"/>
<path opacity="0.5" d="M170 86C170 84.8954 170.895 84 172 84H182V181H170V86Z" fill="url(#paint2_linear_6003_19092)"/>
<path d="M299.763 45.1C299.763 43.588 300.113 42.37 300.827 41.46C301.527 40.55 302.563 40.088 303.921 40.088C306.707 40.088 308.093 41.922 308.093 45.1C308.093 46.626 307.743 47.83 307.057 48.74C306.357 49.65 305.321 50.112 303.949 50.112C302.633 50.112 301.611 49.65 300.869 48.726C300.127 47.802 299.763 46.598 299.763 45.1ZM301.051 45.1C301.051 47.494 302.143 48.922 303.949 48.922C305.853 48.922 306.805 47.648 306.805 45.1C306.805 42.552 305.839 41.278 303.921 41.278C301.975 41.278 301.051 42.678 301.051 45.1ZM309.237 49.202C309.237 48.81 309.601 48.418 310.105 48.418C310.567 48.418 310.945 48.81 310.945 49.202C310.945 49.65 310.595 50.028 310.105 50.028C309.601 50.028 309.237 49.65 309.237 49.202ZM320.251 44.918C320.251 46.584 319.859 47.872 319.061 48.768C318.263 49.678 317.199 50.126 315.869 50.126C314.245 50.126 312.971 49.44 312.341 48.39L313.349 47.69C313.909 48.474 314.931 48.922 316.037 48.922C316.947 48.922 317.675 48.558 318.249 47.83C318.823 47.116 319.061 46.22 318.991 45.156C318.529 46.22 317.367 47.004 315.813 47.004C314.721 47.004 313.825 46.696 313.125 46.066C312.411 45.45 312.061 44.638 312.061 43.644C312.061 42.552 312.439 41.684 313.195 41.04C313.951 40.396 314.959 40.074 316.205 40.074C318.725 40.074 320.251 41.838 320.251 44.918ZM318.781 43.602C318.571 42.3 317.675 41.278 316.065 41.278C314.385 41.278 313.349 42.146 313.349 43.602C313.349 44.988 314.399 45.8 316.037 45.8C316.779 45.8 317.409 45.576 317.899 45.128C318.389 44.68 318.683 44.176 318.781 43.602Z" fill="#2A3C3C"/>
<path d="M299.763 45.1C299.763 43.588 300.113 42.37 300.827 41.46C301.527 40.55 302.563 40.088 303.921 40.088C306.707 40.088 308.093 41.922 308.093 45.1C308.093 46.626 307.743 47.83 307.057 48.74C306.357 49.65 305.321 50.112 303.949 50.112C302.633 50.112 301.611 49.65 300.869 48.726C300.127 47.802 299.763 46.598 299.763 45.1ZM301.051 45.1C301.051 47.494 302.143 48.922 303.949 48.922C305.853 48.922 306.805 47.648 306.805 45.1C306.805 42.552 305.839 41.278 303.921 41.278C301.975 41.278 301.051 42.678 301.051 45.1ZM309.237 49.202C309.237 48.81 309.601 48.418 310.105 48.418C310.567 48.418 310.945 48.81 310.945 49.202C310.945 49.65 310.595 50.028 310.105 50.028C309.601 50.028 309.237 49.65 309.237 49.202ZM320.251 44.918C320.251 46.584 319.859 47.872 319.061 48.768C318.263 49.678 317.199 50.126 315.869 50.126C314.245 50.126 312.971 49.44 312.341 48.39L313.349 47.69C313.909 48.474 314.931 48.922 316.037 48.922C316.947 48.922 317.675 48.558 318.249 47.83C318.823 47.116 319.061 46.22 318.991 45.156C318.529 46.22 317.367 47.004 315.813 47.004C314.721 47.004 313.825 46.696 313.125 46.066C312.411 45.45 312.061 44.638 312.061 43.644C312.061 42.552 312.439 41.684 313.195 41.04C313.951 40.396 314.959 40.074 316.205 40.074C318.725 40.074 320.251 41.838 320.251 44.918ZM318.781 43.602C318.571 42.3 317.675 41.278 316.065 41.278C314.385 41.278 313.349 42.146 313.349 43.602C313.349 44.988 314.399 45.8 316.037 45.8C316.779 45.8 317.409 45.576 317.899 45.128C318.389 44.68 318.683 44.176 318.781 43.602Z" fill="#1A3341"/>
<path d="M302.039 196H300.947V187.6H302.039V196ZM304.791 196H303.699V187.6H304.707L307.899 191.824L310.983 187.6H311.967V196H310.875V189.484L308.007 193.348H307.743L304.791 189.484V196ZM314.726 196H313.622V187.6H319.658V188.62H314.726V191.5H319.322V192.52H314.726V196Z" fill="#76848D"/>
<path d="M282 62C282 60.8954 282.895 60 284 60H336C337.105 60 338 60.8954 338 62V181H282V62Z" fill="url(#paint3_linear_6003_19092)"/>
<path opacity="0.2" d="M294 60H326V181H294V60Z" fill="url(#paint4_linear_6003_19092)"/>
<path opacity="0.04" d="M326 60H336C337.105 60 338 60.8954 338 62V181H326V60Z" fill="#0D262C"/>
<path opacity="0.5" d="M282 62C282 60.8954 282.895 60 284 60H294V181H282V62Z" fill="url(#paint5_linear_6003_19092)"/>
<path d="M414.03 2.804L413.582 1.754L416.942 0.143999H417.74V10H416.536V1.642L414.03 2.804ZM419.624 9.202C419.624 8.81 419.988 8.418 420.492 8.418C420.954 8.418 421.332 8.81 421.332 9.202C421.332 9.65 420.982 10.028 420.492 10.028C419.988 10.028 419.624 9.65 419.624 9.202ZM423.609 3.434L422.587 3.07C422.937 1.334 424.253 0.0879999 426.339 0.0879999C428.355 0.0879999 429.587 1.25 429.587 3.028C429.587 3.966 429.181 4.904 428.677 5.576C428.425 5.926 428.103 6.262 427.725 6.612C426.955 7.298 426.409 7.662 425.611 8.166L424.533 8.838H429.951V10H422.321V9.048L424.449 7.634C424.827 7.396 425.093 7.214 425.247 7.102C425.401 7.004 425.653 6.822 425.989 6.584C426.325 6.346 426.577 6.136 426.745 5.982C426.899 5.828 427.109 5.632 427.347 5.38C427.991 4.68 428.229 4.036 428.299 3.154C428.299 1.88 427.473 1.306 426.255 1.306C425.499 1.306 424.897 1.516 424.463 1.936C424.029 2.356 423.735 2.86 423.609 3.434Z" fill="#2A3C3C"/>
<path d="M414.03 2.804L413.582 1.754L416.942 0.143999H417.74V10H416.536V1.642L414.03 2.804ZM419.624 9.202C419.624 8.81 419.988 8.418 420.492 8.418C420.954 8.418 421.332 8.81 421.332 9.202C421.332 9.65 420.982 10.028 420.492 10.028C419.988 10.028 419.624 9.65 419.624 9.202ZM423.609 3.434L422.587 3.07C422.937 1.334 424.253 0.0879999 426.339 0.0879999C428.355 0.0879999 429.587 1.25 429.587 3.028C429.587 3.966 429.181 4.904 428.677 5.576C428.425 5.926 428.103 6.262 427.725 6.612C426.955 7.298 426.409 7.662 425.611 8.166L424.533 8.838H429.951V10H422.321V9.048L424.449 7.634C424.827 7.396 425.093 7.214 425.247 7.102C425.401 7.004 425.653 6.822 425.989 6.584C426.325 6.346 426.577 6.136 426.745 5.982C426.899 5.828 427.109 5.632 427.347 5.38C427.991 4.68 428.229 4.036 428.299 3.154C428.299 1.88 427.473 1.306 426.255 1.306C425.499 1.306 424.897 1.516 424.463 1.936C424.029 2.356 423.735 2.86 423.609 3.434Z" fill="#1A3341"/>
<path opacity="0.4" d="M394 22C394 20.8954 394.895 20 396 20H448C449.105 20 450 20.8954 450 22V180H394V22Z" fill="url(#paint6_linear_6003_19092)"/>
<path opacity="0.2" d="M406 20H438V180H406V20Z" fill="url(#paint7_linear_6003_19092)"/>
<path opacity="0.04" d="M438 20H448C449.105 20 450 20.8954 450 22V180H438V20Z" fill="#0D262C"/>
<path opacity="0.5" d="M394 22C394 20.8954 394.895 20 396 20H406V180H394V22Z" fill="url(#paint8_linear_6003_19092)"/>
<path d="M75.7772 85.1C75.7772 83.588 76.1272 82.37 76.8412 81.46C77.5412 80.55 78.5772 80.088 79.9352 80.088C82.7212 80.088 84.1072 81.922 84.1072 85.1C84.1072 86.626 83.7572 87.83 83.0712 88.74C82.3712 89.65 81.3352 90.112 79.9632 90.112C78.6472 90.112 77.6252 89.65 76.8832 88.726C76.1412 87.802 75.7772 86.598 75.7772 85.1ZM77.0652 85.1C77.0652 87.494 78.1572 88.922 79.9632 88.922C81.8672 88.922 82.8192 87.648 82.8192 85.1C82.8192 82.552 81.8532 81.278 79.9352 81.278C77.9892 81.278 77.0652 82.678 77.0652 85.1ZM85.2508 89.202C85.2508 88.81 85.6148 88.418 86.1188 88.418C86.5808 88.418 86.9588 88.81 86.9588 89.202C86.9588 89.65 86.6088 90.028 86.1188 90.028C85.6148 90.028 85.2508 89.65 85.2508 89.202ZM88.1163 85.366C88.1163 83.672 88.5363 82.37 89.3623 81.446C90.1883 80.536 91.2243 80.074 92.4703 80.074C94.1083 80.074 95.3963 80.816 95.9423 81.992L94.9903 82.636C94.4163 81.726 93.5623 81.278 92.4143 81.278C91.5463 81.278 90.8183 81.614 90.2303 82.286C89.6423 82.972 89.3483 83.896 89.3623 85.086C89.9083 84.064 91.1823 83.448 92.5823 83.448C93.7163 83.448 94.6263 83.742 95.2843 84.344C95.9423 84.946 96.2783 85.744 96.2783 86.724C96.2783 87.718 95.9143 88.544 95.1723 89.174C94.4303 89.804 93.5063 90.126 92.4003 90.126C89.7543 90.126 88.1163 88.404 88.1163 85.366ZM89.5163 86.556C89.7823 87.942 90.8323 88.922 92.3863 88.922C93.1423 88.922 93.7723 88.726 94.2623 88.32C94.7523 87.928 94.9903 87.41 94.9903 86.78C94.9903 85.394 94.0103 84.652 92.5123 84.652C91.6863 84.652 91.0003 84.848 90.4683 85.24C89.9223 85.632 89.6143 86.066 89.5163 86.556Z" fill="#2A3C3C"/>
<path d="M75.7772 85.1C75.7772 83.588 76.1272 82.37 76.8412 81.46C77.5412 80.55 78.5772 80.088 79.9352 80.088C82.7212 80.088 84.1072 81.922 84.1072 85.1C84.1072 86.626 83.7572 87.83 83.0712 88.74C82.3712 89.65 81.3352 90.112 79.9632 90.112C78.6472 90.112 77.6252 89.65 76.8832 88.726C76.1412 87.802 75.7772 86.598 75.7772 85.1ZM77.0652 85.1C77.0652 87.494 78.1572 88.922 79.9632 88.922C81.8672 88.922 82.8192 87.648 82.8192 85.1C82.8192 82.552 81.8532 81.278 79.9352 81.278C77.9892 81.278 77.0652 82.678 77.0652 85.1ZM85.2508 89.202C85.2508 88.81 85.6148 88.418 86.1188 88.418C86.5808 88.418 86.9588 88.81 86.9588 89.202C86.9588 89.65 86.6088 90.028 86.1188 90.028C85.6148 90.028 85.2508 89.65 85.2508 89.202ZM88.1163 85.366C88.1163 83.672 88.5363 82.37 89.3623 81.446C90.1883 80.536 91.2243 80.074 92.4703 80.074C94.1083 80.074 95.3963 80.816 95.9423 81.992L94.9903 82.636C94.4163 81.726 93.5623 81.278 92.4143 81.278C91.5463 81.278 90.8183 81.614 90.2303 82.286C89.6423 82.972 89.3483 83.896 89.3623 85.086C89.9083 84.064 91.1823 83.448 92.5823 83.448C93.7163 83.448 94.6263 83.742 95.2843 84.344C95.9423 84.946 96.2783 85.744 96.2783 86.724C96.2783 87.718 95.9143 88.544 95.1723 89.174C94.4303 89.804 93.5063 90.126 92.4003 90.126C89.7543 90.126 88.1163 88.404 88.1163 85.366ZM89.5163 86.556C89.7823 87.942 90.8323 88.922 92.3863 88.922C93.1423 88.922 93.7723 88.726 94.2623 88.32C94.7523 87.928 94.9903 87.41 94.9903 86.78C94.9903 85.394 94.0103 84.652 92.5123 84.652C91.6863 84.652 91.0003 84.848 90.4683 85.24C89.9223 85.632 89.6143 86.066 89.5163 86.556Z" fill="#1A3341"/>
<path d="M69.6901 190.8C69.6901 189.588 70.0981 188.556 70.9261 187.728C71.7541 186.9 72.7621 186.492 73.9621 186.492C75.1501 186.492 76.1581 186.9 76.9861 187.716C77.8141 188.532 78.2221 189.564 78.2221 190.8C78.2221 192.024 77.8141 193.044 76.9861 193.872C76.1581 194.7 75.1501 195.108 73.9621 195.108C72.7621 195.108 71.7541 194.7 70.9261 193.884C70.0981 193.068 69.6901 192.036 69.6901 190.8ZM70.8301 190.8C70.8301 191.736 71.1421 192.516 71.7541 193.128C72.3661 193.752 73.0981 194.064 73.9621 194.064C74.8501 194.064 75.5941 193.752 76.1941 193.14C76.7821 192.528 77.0821 191.748 77.0821 190.8C77.0821 189.852 76.7821 189.072 76.1701 188.46C75.5581 187.848 74.8141 187.536 73.9621 187.536C73.0861 187.536 72.3541 187.848 71.7421 188.46C71.1301 189.072 70.8301 189.852 70.8301 190.8ZM85.5806 195H79.4246V186.6H85.4726V187.62H80.5166V190.236H85.1366V191.232H80.5166V193.98H85.5806V195ZM93.4612 192.936L94.0852 193.632C93.4492 194.532 92.1772 195.108 90.8212 195.108C89.5012 195.108 88.4452 194.712 87.6652 193.932C86.8852 193.152 86.4892 192.108 86.4892 190.8C86.4892 189.564 86.8852 188.544 87.6652 187.716C88.4452 186.9 89.4652 186.492 90.7372 186.492C92.1772 186.492 93.3532 187.068 93.9652 187.884L93.2572 188.568C92.5732 187.884 91.7332 187.536 90.7612 187.536C89.7892 187.536 89.0332 187.836 88.4692 188.436C87.9052 189.036 87.6292 189.828 87.6292 190.8C87.6292 191.784 87.9292 192.576 88.5292 193.164C89.1292 193.764 89.9212 194.064 90.8932 194.064C91.9372 194.064 92.7892 193.692 93.4612 192.936ZM97.5589 195H95.0869V186.6H97.6789C101.087 186.6 102.311 188.484 102.311 190.68C102.311 191.952 101.915 192.984 101.111 193.788C100.307 194.592 99.1309 195 97.5589 195ZM97.6549 187.62H96.1789V193.98H97.6309C100.031 193.98 101.183 192.696 101.183 190.68C101.183 188.796 100.115 187.62 97.6549 187.62Z" fill="#76848D"/>
<path d="M58 102C58 100.895 58.8954 100 60 100H112C113.105 100 114 100.895 114 102V180H58V102Z" fill="url(#paint9_linear_6003_19092)"/>
<path opacity="0.2" d="M70 100H102V180H70V100Z" fill="url(#paint10_linear_6003_19092)"/>
<path opacity="0.04" d="M102 100H112C113.105 100 114 100.895 114 102V180H102V100Z" fill="#0D262C"/>
<path opacity="0.5" d="M58 102C58 100.895 58.8954 100 60 100H70V180H58V102Z" fill="url(#paint11_linear_6003_19092)"/>
<path d="M402.864 196H396.708V187.6H402.756V188.62H397.8V191.236H402.42V192.232H397.8V194.98H402.864V196ZM408.584 189.724H409.592V196H408.584V195.112C408.104 195.772 407.432 196.108 406.556 196.108C404.828 196.108 403.988 195.244 403.988 193.336V189.724H404.996V193.192C404.996 194.5 405.548 195.16 406.64 195.16C407.504 195.16 408.2 194.668 408.584 193.804V189.724ZM411.933 196H410.925V189.76H411.933V190.24C412.137 189.82 412.677 189.628 413.217 189.628C413.769 189.628 414.189 189.82 414.489 190.192L413.853 190.888C413.697 190.684 413.457 190.576 413.109 190.576C412.569 190.576 412.077 191.02 411.933 191.656V196ZM414.336 192.868C414.336 191.92 414.648 191.14 415.26 190.528C415.872 189.916 416.664 189.616 417.636 189.616C418.62 189.616 419.424 189.916 420.036 190.528C420.648 191.14 420.96 191.92 420.96 192.868C420.96 193.816 420.648 194.584 420.036 195.196C419.412 195.808 418.608 196.108 417.636 196.108C416.664 196.108 415.872 195.808 415.26 195.196C414.648 194.584 414.336 193.816 414.336 192.868ZM415.404 192.868C415.404 193.528 415.608 194.08 416.028 194.512C416.448 194.944 416.976 195.16 417.636 195.16C418.296 195.16 418.848 194.944 419.268 194.524C419.688 194.104 419.892 193.552 419.892 192.868C419.892 192.184 419.676 191.632 419.256 191.2C418.824 190.78 418.284 190.564 417.636 190.564C416.988 190.564 416.46 190.78 416.04 191.2C415.62 191.62 415.404 192.184 415.404 192.868ZM422.967 198.4H421.959V189.76H422.967V190.54C423.387 189.928 424.059 189.616 424.983 189.616C425.895 189.616 426.627 189.904 427.167 190.492C427.707 191.08 427.971 191.836 427.971 192.772C427.971 193.732 427.683 194.524 427.107 195.16C426.519 195.796 425.775 196.108 424.863 196.108C424.023 196.108 423.387 195.892 422.967 195.472V198.4ZM424.875 190.564C423.963 190.564 423.255 191.152 422.967 191.86V194.188C423.327 194.836 423.927 195.16 424.779 195.16C425.391 195.16 425.907 194.944 426.303 194.512C426.699 194.08 426.903 193.528 426.903 192.844C426.903 191.452 426.123 190.564 424.875 190.564ZM433.788 194.212L434.436 194.812C433.86 195.676 433.032 196.108 431.94 196.108C430.944 196.108 430.14 195.808 429.528 195.22C428.916 194.632 428.616 193.852 428.616 192.868C428.616 191.92 428.892 191.14 429.456 190.528C430.008 189.916 430.788 189.616 431.796 189.616C432.624 189.616 433.32 189.88 433.86 190.396C434.4 190.912 434.676 191.596 434.676 192.448C434.676 192.724 434.652 192.976 434.616 193.204H429.696C429.756 194.44 430.668 195.16 431.976 195.16C432.708 195.16 433.404 194.776 433.788 194.212ZM431.724 190.54C430.584 190.54 429.84 191.236 429.684 192.292H433.608C433.548 191.188 432.84 190.54 431.724 190.54ZM436.156 191.26L435.64 190.504C436.216 189.964 437.212 189.616 438.136 189.616C439.804 189.616 440.692 190.528 440.692 192.148V196H439.684V195.076C439.288 195.652 438.508 196.084 437.5 196.084C436.144 196.084 435.232 195.328 435.232 194.176C435.232 192.868 436.348 192.244 438.22 192.244C438.808 192.244 439.288 192.304 439.684 192.424C439.684 191.212 439.252 190.564 438.016 190.564C437.392 190.564 436.768 190.792 436.156 191.26ZM437.74 195.172C438.208 195.172 438.628 195.04 438.976 194.788C439.324 194.536 439.552 194.248 439.684 193.948V193.312C439.336 193.192 438.892 193.132 438.352 193.132C436.984 193.132 436.3 193.468 436.3 194.14C436.3 194.776 436.876 195.172 437.74 195.172ZM442.974 196H441.966V189.76H442.974V190.576C443.37 189.964 444.186 189.628 445.11 189.628C446.802 189.628 447.642 190.564 447.642 192.448V196H446.634V192.568C446.634 191.188 446.046 190.576 444.81 190.576C444.042 190.576 443.31 191.08 442.974 191.836V196ZM395.919 207.936L396.543 208.632C395.907 209.532 394.635 210.108 393.279 210.108C391.959 210.108 390.903 209.712 390.123 208.932C389.343 208.152 388.947 207.108 388.947 205.8C388.947 204.564 389.343 203.544 390.123 202.716C390.903 201.9 391.923 201.492 393.195 201.492C394.635 201.492 395.811 202.068 396.423 202.884L395.715 203.568C395.031 202.884 394.191 202.536 393.219 202.536C392.247 202.536 391.491 202.836 390.927 203.436C390.363 204.036 390.087 204.828 390.087 205.8C390.087 206.784 390.387 207.576 390.987 208.164C391.587 208.764 392.379 209.064 393.351 209.064C394.395 209.064 395.247 208.692 395.919 207.936ZM396.724 206.868C396.724 205.92 397.036 205.14 397.648 204.528C398.26 203.916 399.052 203.616 400.024 203.616C401.008 203.616 401.812 203.916 402.424 204.528C403.036 205.14 403.348 205.92 403.348 206.868C403.348 207.816 403.036 208.584 402.424 209.196C401.8 209.808 400.996 210.108 400.024 210.108C399.052 210.108 398.26 209.808 397.648 209.196C397.036 208.584 396.724 207.816 396.724 206.868ZM397.792 206.868C397.792 207.528 397.996 208.08 398.416 208.512C398.836 208.944 399.364 209.16 400.024 209.16C400.684 209.16 401.236 208.944 401.656 208.524C402.076 208.104 402.28 207.552 402.28 206.868C402.28 206.184 402.064 205.632 401.644 205.2C401.212 204.78 400.672 204.564 400.024 204.564C399.376 204.564 398.848 204.78 398.428 205.2C398.008 205.62 397.792 206.184 397.792 206.868ZM413.394 205.86V210H412.386V206.172C412.386 205.104 411.954 204.576 411.09 204.576C410.31 204.576 409.734 204.96 409.374 205.716V210H408.366V205.848C408.366 205.092 407.874 204.576 407.07 204.576C406.266 204.576 405.63 205.176 405.354 205.836V210H404.346V203.76H405.354V204.6C405.726 204.024 406.446 203.628 407.262 203.628C408.15 203.628 408.762 203.952 409.098 204.6C409.59 203.952 410.274 203.628 411.15 203.628C412.542 203.628 413.394 204.324 413.394 205.86ZM423.704 205.86V210H422.696V206.172C422.696 205.104 422.264 204.576 421.4 204.576C420.62 204.576 420.044 204.96 419.684 205.716V210H418.676V205.848C418.676 205.092 418.184 204.576 417.38 204.576C416.576 204.576 415.94 205.176 415.664 205.836V210H414.656V203.76H415.664V204.6C416.036 204.024 416.756 203.628 417.572 203.628C418.46 203.628 419.072 203.952 419.408 204.6C419.9 203.952 420.584 203.628 421.46 203.628C422.852 203.628 423.704 204.324 423.704 205.86ZM426.106 210H425.098V203.76H426.106V210ZM424.966 201.732C424.966 201.396 425.242 201.144 425.614 201.144C425.95 201.144 426.238 201.396 426.238 201.732C426.238 202.08 425.95 202.356 425.614 202.356C425.242 202.356 424.966 202.08 424.966 201.732ZM431.404 208.296C431.404 207.456 429.976 207.324 428.836 207C428.056 206.772 427.432 206.256 427.432 205.404C427.432 204.3 428.476 203.616 430.024 203.616C431.068 203.616 431.908 204.06 432.352 204.696L431.644 205.356C431.248 204.828 430.648 204.564 429.844 204.564C429.124 204.564 428.5 204.84 428.5 205.356C428.5 206.088 429.928 206.22 431.068 206.568C431.836 206.808 432.46 207.384 432.46 208.284C432.46 209.496 431.488 210.108 429.964 210.108C428.68 210.108 427.588 209.532 427.144 208.632L427.948 208.068C428.32 208.728 429.172 209.16 430.132 209.16C430.984 209.16 431.404 208.872 431.404 208.296ZM437.249 208.296C437.249 207.456 435.821 207.324 434.681 207C433.901 206.772 433.277 206.256 433.277 205.404C433.277 204.3 434.321 203.616 435.869 203.616C436.913 203.616 437.753 204.06 438.197 204.696L437.489 205.356C437.093 204.828 436.493 204.564 435.689 204.564C434.969 204.564 434.345 204.84 434.345 205.356C434.345 206.088 435.773 206.22 436.913 206.568C437.681 206.808 438.305 207.384 438.305 208.284C438.305 209.496 437.333 210.108 435.809 210.108C434.525 210.108 433.433 209.532 432.989 208.632L433.793 208.068C434.165 208.728 435.017 209.16 435.977 209.16C436.829 209.16 437.249 208.872 437.249 208.296ZM440.406 210H439.398V203.76H440.406V210ZM439.266 201.732C439.266 201.396 439.542 201.144 439.914 201.144C440.25 201.144 440.538 201.396 440.538 201.732C440.538 202.08 440.25 202.356 439.914 202.356C439.542 202.356 439.266 202.08 439.266 201.732ZM441.528 206.868C441.528 205.92 441.84 205.14 442.452 204.528C443.064 203.916 443.856 203.616 444.828 203.616C445.812 203.616 446.616 203.916 447.228 204.528C447.84 205.14 448.152 205.92 448.152 206.868C448.152 207.816 447.84 208.584 447.228 209.196C446.604 209.808 445.8 210.108 444.828 210.108C443.856 210.108 443.064 209.808 442.452 209.196C441.84 208.584 441.528 207.816 441.528 206.868ZM442.596 206.868C442.596 207.528 442.8 208.08 443.22 208.512C443.64 208.944 444.168 209.16 444.828 209.16C445.488 209.16 446.04 208.944 446.46 208.524C446.88 208.104 447.084 207.552 447.084 206.868C447.084 206.184 446.868 205.632 446.448 205.2C446.016 204.78 445.476 204.564 444.828 204.564C444.18 204.564 443.652 204.78 443.232 205.2C442.812 205.62 442.596 206.184 442.596 206.868ZM450.159 210H449.151V203.76H450.159V204.576C450.555 203.964 451.371 203.628 452.295 203.628C453.987 203.628 454.827 204.564 454.827 206.448V210H453.819V206.568C453.819 205.188 453.231 204.576 451.995 204.576C451.227 204.576 450.495 205.08 450.159 205.836V210Z" fill="#76848D"/>
<path d="M177.111 187.6H178.191L175.695 196H174.759L172.479 189.472L170.235 196H169.299L166.683 187.6H167.823L169.827 194.08L172.023 187.6H172.947L175.203 194.068L177.111 187.6ZM177.822 192.868C177.822 191.92 178.134 191.14 178.746 190.528C179.358 189.916 180.15 189.616 181.122 189.616C182.106 189.616 182.91 189.916 183.522 190.528C184.134 191.14 184.446 191.92 184.446 192.868C184.446 193.816 184.134 194.584 183.522 195.196C182.898 195.808 182.094 196.108 181.122 196.108C180.15 196.108 179.358 195.808 178.746 195.196C178.134 194.584 177.822 193.816 177.822 192.868ZM178.89 192.868C178.89 193.528 179.094 194.08 179.514 194.512C179.934 194.944 180.462 195.16 181.122 195.16C181.782 195.16 182.334 194.944 182.754 194.524C183.174 194.104 183.378 193.552 183.378 192.868C183.378 192.184 183.162 191.632 182.742 191.2C182.31 190.78 181.77 190.564 181.122 190.564C180.474 190.564 179.946 190.78 179.526 191.2C179.106 191.62 178.89 192.184 178.89 192.868ZM186.452 196H185.444V189.76H186.452V190.24C186.656 189.82 187.196 189.628 187.736 189.628C188.288 189.628 188.708 189.82 189.008 190.192L188.372 190.888C188.216 190.684 187.976 190.576 187.628 190.576C187.088 190.576 186.596 191.02 186.452 191.656V196ZM190.67 196H189.662V187.24H190.67V196ZM197.782 196H196.774V195.256C196.498 195.688 195.778 196.108 194.83 196.108C193.906 196.108 193.174 195.82 192.61 195.244C192.046 194.668 191.758 193.888 191.758 192.892C191.758 191.932 192.058 191.14 192.67 190.528C193.282 189.916 194.026 189.616 194.914 189.616C195.742 189.616 196.366 189.82 196.774 190.228V187.24H197.782V196ZM194.974 195.148C195.826 195.148 196.486 194.548 196.774 193.96V191.44C196.378 190.852 195.79 190.564 195.034 190.564C194.422 190.564 193.894 190.78 193.474 191.2C193.042 191.62 192.826 192.184 192.826 192.868C192.826 194.26 193.714 195.148 194.974 195.148ZM206.093 196H202.757V187.6H206.153C208.301 187.6 209.117 188.38 209.117 189.688C209.117 190.624 208.721 191.26 207.929 191.608C208.853 191.8 209.417 192.508 209.417 193.6C209.417 195.244 208.193 196 206.093 196ZM206.201 192.208H203.849V194.98H206.081C207.605 194.98 208.289 194.536 208.289 193.54C208.289 192.652 207.593 192.208 206.201 192.208ZM206.057 188.62H203.849V191.212H206.237C207.305 191.212 208.001 190.732 208.001 189.916C208.001 189.016 207.485 188.62 206.057 188.62ZM211.035 191.26L210.519 190.504C211.095 189.964 212.091 189.616 213.015 189.616C214.683 189.616 215.571 190.528 215.571 192.148V196H214.563V195.076C214.167 195.652 213.387 196.084 212.379 196.084C211.023 196.084 210.111 195.328 210.111 194.176C210.111 192.868 211.227 192.244 213.099 192.244C213.687 192.244 214.167 192.304 214.563 192.424C214.563 191.212 214.131 190.564 212.895 190.564C212.271 190.564 211.647 190.792 211.035 191.26ZM212.619 195.172C213.087 195.172 213.507 195.04 213.855 194.788C214.203 194.536 214.431 194.248 214.563 193.948V193.312C214.215 193.192 213.771 193.132 213.231 193.132C211.863 193.132 211.179 193.468 211.179 194.14C211.179 194.776 211.755 195.172 212.619 195.172ZM217.853 196H216.845V189.76H217.853V190.576C218.249 189.964 219.065 189.628 219.989 189.628C221.681 189.628 222.521 190.564 222.521 192.448V196H221.513V192.568C221.513 191.188 220.925 190.576 219.689 190.576C218.921 190.576 218.189 191.08 217.853 191.836V196ZM224.8 196H223.792V187.24H224.8V192.532L227.824 189.76H229.18L226.18 192.532L229.384 196H228.052L225.292 193.096L224.8 193.504V196Z" fill="#76848D"/>
<line x1="-4.37114e-08" y1="180.5" x2="540" y2="180.5" stroke="#ABBEC9"/>
<defs>
<linearGradient id="paint0_linear_6003_19092" x1="198" y1="84" x2="198" y2="181" gradientUnits="userSpaceOnUse">
<stop stop-color="#6AA2E2"/>
<stop offset="1" stop-color="#9DBCFA"/>
</linearGradient>
<linearGradient id="paint1_linear_6003_19092" x1="198" y1="84" x2="198" y2="181" gradientUnits="userSpaceOnUse">
<stop stop-color="white" stop-opacity="0"/>
<stop offset="0.739583" stop-color="white"/>
</linearGradient>
<linearGradient id="paint2_linear_6003_19092" x1="176" y1="-105.15" x2="176" y2="181" gradientUnits="userSpaceOnUse">
<stop stop-color="white" stop-opacity="0.05"/>
<stop offset="0.75" stop-color="white" stop-opacity="0.8"/>
</linearGradient>
<linearGradient id="paint3_linear_6003_19092" x1="310" y1="60" x2="310" y2="181" gradientUnits="userSpaceOnUse">
<stop stop-color="#6D73F9"/>
<stop offset="1" stop-color="#9BB8F1"/>
</linearGradient>
<linearGradient id="paint4_linear_6003_19092" x1="310" y1="60" x2="310" y2="181" gradientUnits="userSpaceOnUse">
<stop stop-color="white" stop-opacity="0"/>
<stop offset="0.739583" stop-color="white"/>
</linearGradient>
<linearGradient id="paint5_linear_6003_19092" x1="288" y1="-175.95" x2="288" y2="181" gradientUnits="userSpaceOnUse">
<stop stop-color="white" stop-opacity="0.05"/>
<stop offset="0.75" stop-color="white" stop-opacity="0.8"/>
</linearGradient>
<linearGradient id="paint6_linear_6003_19092" x1="422" y1="20" x2="422" y2="180" gradientUnits="userSpaceOnUse">
<stop stop-color="#6D73F9"/>
<stop offset="1" stop-color="#9BB8F1"/>
</linearGradient>
<linearGradient id="paint7_linear_6003_19092" x1="422" y1="20" x2="422" y2="180" gradientUnits="userSpaceOnUse">
<stop stop-color="white" stop-opacity="0"/>
<stop offset="0.739583" stop-color="white"/>
</linearGradient>
<linearGradient id="paint8_linear_6003_19092" x1="400" y1="-292" x2="400" y2="180" gradientUnits="userSpaceOnUse">
<stop stop-color="white" stop-opacity="0.05"/>
<stop offset="0.75" stop-color="white" stop-opacity="0.8"/>
</linearGradient>
<linearGradient id="paint9_linear_6003_19092" x1="86" y1="100" x2="86" y2="180" gradientUnits="userSpaceOnUse">
<stop stop-color="#CDE3E9"/>
<stop offset="1" stop-color="#D3E8ED"/>
</linearGradient>
<linearGradient id="paint10_linear_6003_19092" x1="86" y1="100" x2="86" y2="180" gradientUnits="userSpaceOnUse">
<stop stop-color="white" stop-opacity="0"/>
<stop offset="0.739583" stop-color="white"/>
</linearGradient>
<linearGradient id="paint11_linear_6003_19092" x1="64" y1="-56" x2="64" y2="180" gradientUnits="userSpaceOnUse">
<stop stop-color="white" stop-opacity="0.05"/>
<stop offset="0.75" stop-color="white" stop-opacity="0.8"/>
</linearGradient>
</defs>
</svg>
