<svg width="338" height="160" viewBox="0 0 338 160" fill="none" xmlns="http://www.w3.org/2000/svg">
<path d="M37.3675 23.5845C26.5201 20.3476 20.038 18.582 8 18.582V136.582H328V71.8439C310.933 71.8439 305.071 73.293 299.165 74.7531L299.029 74.7865C287.854 77.5487 280.583 86.1755 269.794 86.1755C262.603 86.1755 257.095 87.6291 240.823 85.0858C232.754 83.8244 228.389 81.5546 211.853 83.8244C205.792 84.6564 191.742 94.208 182.618 94.208C169.654 94.208 168.86 89.4997 153.515 83.0259C146.453 80.0468 130.37 72.2609 124.412 68.3127C118.194 64.193 109.993 57.4249 95.3088 54.188C86.0939 52.1567 81.9479 46.8314 66.2059 37.1207C60.2773 33.4635 48.0595 26.7751 37.3675 23.5845Z" fill="url(#paint0_linear_2355_51967)" fill-opacity="0.3"/>
<path d="M7.08712 146.782C7.08712 145.918 7.28712 145.222 7.69512 144.702C8.09513 144.182 8.68713 143.918 9.46312 143.918C11.0551 143.918 11.8471 144.966 11.8471 146.782C11.8471 147.654 11.6471 148.342 11.2551 148.862C10.8551 149.382 10.2631 149.646 9.47913 149.646C8.72713 149.646 8.14313 149.382 7.71913 148.854C7.29513 148.326 7.08712 147.638 7.08712 146.782ZM7.82313 146.782C7.82313 148.15 8.44713 148.966 9.47913 148.966C10.5671 148.966 11.1111 148.238 11.1111 146.782C11.1111 145.326 10.5591 144.598 9.46312 144.598C8.35113 144.598 7.82313 145.398 7.82313 146.782ZM12.3806 145.47L12.1246 144.87L14.0446 143.95H14.5006V149.582H13.8126V144.806L12.3806 145.47ZM2.01806 153.83L1.43406 153.622C1.63406 152.63 2.38606 151.918 3.57806 151.918C4.73006 151.918 5.43406 152.582 5.43406 153.598C5.43406 154.134 5.20206 154.67 4.91406 155.054C4.77006 155.254 4.58606 155.446 4.37006 155.646C3.93006 156.038 3.61806 156.246 3.16206 156.534L2.54606 156.918H5.64206V157.582H1.28206V157.038L2.49806 156.23C2.71406 156.094 2.86606 155.99 2.95406 155.926C3.04206 155.87 3.18606 155.766 3.37806 155.63C3.57006 155.494 3.71406 155.374 3.81006 155.286C3.89806 155.198 4.01806 155.086 4.15406 154.942C4.52206 154.542 4.65806 154.174 4.69806 153.67C4.69806 152.942 4.22606 152.614 3.53006 152.614C3.09806 152.614 2.75406 152.734 2.50606 152.974C2.25806 153.214 2.09006 153.502 2.01806 153.83ZM6.1965 154.782C6.1965 153.918 6.3965 153.222 6.8045 152.702C7.2045 152.182 7.7965 151.918 8.5725 151.918C10.1645 151.918 10.9565 152.966 10.9565 154.782C10.9565 155.654 10.7565 156.342 10.3645 156.862C9.9645 157.382 9.3725 157.646 8.5885 157.646C7.8365 157.646 7.2525 157.382 6.8285 156.854C6.4045 156.326 6.1965 155.638 6.1965 154.782ZM6.9325 154.782C6.9325 156.15 7.5565 156.966 8.5885 156.966C9.6765 156.966 10.2205 156.238 10.2205 154.782C10.2205 153.326 9.6685 152.598 8.5725 152.598C7.4605 152.598 6.9325 153.398 6.9325 154.782ZM12.194 153.83L11.61 153.622C11.81 152.63 12.562 151.918 13.754 151.918C14.906 151.918 15.61 152.582 15.61 153.598C15.61 154.134 15.378 154.67 15.09 155.054C14.946 155.254 14.762 155.446 14.546 155.646C14.106 156.038 13.794 156.246 13.338 156.534L12.722 156.918H15.818V157.582H11.458V157.038L12.674 156.23C12.89 156.094 13.042 155.99 13.13 155.926C13.218 155.87 13.362 155.766 13.554 155.63C13.746 155.494 13.89 155.374 13.986 155.286C14.074 155.198 14.194 155.086 14.33 154.942C14.698 154.542 14.834 154.174 14.874 153.67C14.874 152.942 14.402 152.614 13.706 152.614C13.274 152.614 12.93 152.734 12.682 152.974C12.434 153.214 12.266 153.502 12.194 153.83ZM16.9244 153.614L16.3244 153.342C16.6204 152.478 17.3964 151.91 18.5564 151.91C19.1084 151.91 19.5644 152.038 19.9164 152.294C20.2684 152.55 20.4444 152.894 20.4444 153.318C20.4444 153.966 20.1004 154.446 19.4604 154.63C20.0764 154.67 20.5724 155.134 20.5724 155.966C20.5724 156.494 20.3804 156.91 19.9964 157.206C19.6124 157.502 19.1244 157.654 18.5244 157.654C17.3004 157.654 16.4524 157.07 16.1724 156.15L16.8204 155.87C17.1644 156.598 17.7484 156.966 18.5724 156.966C19.3484 156.966 19.8364 156.606 19.8364 155.974C19.8364 155.358 19.3564 155.046 18.3964 155.046H17.7724V154.382H18.2684C19.1404 154.382 19.7084 153.99 19.7084 153.454C19.7084 152.902 19.2524 152.59 18.5244 152.59C17.6684 152.59 17.1484 153.03 16.9244 153.614Z" fill="#76848D"/>
<path d="M150.005 146.782C150.005 145.918 150.205 145.222 150.613 144.702C151.013 144.182 151.605 143.918 152.381 143.918C153.973 143.918 154.765 144.966 154.765 146.782C154.765 147.654 154.565 148.342 154.173 148.862C153.773 149.382 153.181 149.646 152.397 149.646C151.645 149.646 151.061 149.382 150.637 148.854C150.213 148.326 150.005 147.638 150.005 146.782ZM150.741 146.782C150.741 148.15 151.365 148.966 152.397 148.966C153.485 148.966 154.029 148.238 154.029 146.782C154.029 145.326 153.477 144.598 152.381 144.598C151.269 144.598 150.741 145.398 150.741 146.782ZM155.363 146.934C155.363 145.966 155.603 145.222 156.075 144.694C156.547 144.174 157.139 143.91 157.851 143.91C158.787 143.91 159.523 144.334 159.835 145.006L159.291 145.374C158.963 144.854 158.475 144.598 157.819 144.598C157.323 144.598 156.907 144.79 156.571 145.174C156.235 145.566 156.067 146.094 156.075 146.774C156.387 146.19 157.115 145.838 157.915 145.838C158.563 145.838 159.083 146.006 159.459 146.35C159.835 146.694 160.027 147.15 160.027 147.71C160.027 148.278 159.819 148.75 159.395 149.11C158.971 149.47 158.443 149.654 157.811 149.654C156.299 149.654 155.363 148.67 155.363 146.934ZM156.163 147.614C156.315 148.406 156.915 148.966 157.803 148.966C158.235 148.966 158.595 148.854 158.875 148.622C159.155 148.398 159.291 148.102 159.291 147.742C159.291 146.95 158.731 146.526 157.875 146.526C157.403 146.526 157.011 146.638 156.707 146.862C156.395 147.086 156.219 147.334 156.163 147.614Z" fill="#76848D"/>
<path d="M35.216 146.782C35.216 145.918 35.416 145.222 35.824 144.702C36.224 144.182 36.816 143.918 37.592 143.918C39.184 143.918 39.976 144.966 39.976 146.782C39.976 147.654 39.776 148.342 39.384 148.862C38.984 149.382 38.392 149.646 37.608 149.646C36.856 149.646 36.272 149.382 35.848 148.854C35.424 148.326 35.216 147.638 35.216 146.782ZM35.952 146.782C35.952 148.15 36.576 148.966 37.608 148.966C38.696 148.966 39.24 148.238 39.24 146.782C39.24 145.326 38.688 144.598 37.592 144.598C36.48 144.598 35.952 145.398 35.952 146.782ZM41.2135 145.83L40.6295 145.622C40.8295 144.63 41.5815 143.918 42.7735 143.918C43.9255 143.918 44.6295 144.582 44.6295 145.598C44.6295 146.134 44.3975 146.67 44.1095 147.054C43.9655 147.254 43.7815 147.446 43.5655 147.646C43.1255 148.038 42.8135 148.246 42.3575 148.534L41.7415 148.918H44.8375V149.582H40.4775V149.038L41.6935 148.23C41.9095 148.094 42.0615 147.99 42.1495 147.926C42.2375 147.87 42.3815 147.766 42.5735 147.63C42.7655 147.494 42.9095 147.374 43.0055 147.286C43.0935 147.198 43.2135 147.086 43.3495 146.942C43.7175 146.542 43.8535 146.174 43.8935 145.67C43.8935 144.942 43.4215 144.614 42.7255 144.614C42.2935 144.614 41.9495 144.734 41.7015 144.974C41.4535 145.214 41.2855 145.502 41.2135 145.83Z" fill="#76848D"/>
<path d="M179.38 146.782C179.38 145.918 179.58 145.222 179.988 144.702C180.388 144.182 180.98 143.918 181.756 143.918C183.348 143.918 184.14 144.966 184.14 146.782C184.14 147.654 183.94 148.342 183.548 148.862C183.148 149.382 182.556 149.646 181.772 149.646C181.02 149.646 180.436 149.382 180.012 148.854C179.588 148.326 179.38 147.638 179.38 146.782ZM180.116 146.782C180.116 148.15 180.74 148.966 181.772 148.966C182.86 148.966 183.404 148.238 183.404 146.782C183.404 145.326 182.852 144.598 181.756 144.598C180.644 144.598 180.116 145.398 180.116 146.782ZM187.946 144.662H184.554V143.982H188.802V144.438L186.018 149.582H185.258L187.946 144.662Z" fill="#76848D"/>
<path d="M63.1965 146.782C63.1965 145.918 63.3965 145.222 63.8045 144.702C64.2045 144.182 64.7965 143.918 65.5725 143.918C67.1645 143.918 67.9565 144.966 67.9565 146.782C67.9565 147.654 67.7565 148.342 67.3645 148.862C66.9645 149.382 66.3725 149.646 65.5885 149.646C64.8365 149.646 64.2525 149.382 63.8285 148.854C63.4045 148.326 63.1965 147.638 63.1965 146.782ZM63.9325 146.782C63.9325 148.15 64.5565 148.966 65.5885 148.966C66.6765 148.966 67.2205 148.238 67.2205 146.782C67.2205 145.326 66.6685 144.598 65.5725 144.598C64.4605 144.598 63.9325 145.398 63.9325 146.782ZM69.106 145.614L68.506 145.342C68.802 144.478 69.578 143.91 70.738 143.91C71.29 143.91 71.746 144.038 72.098 144.294C72.45 144.55 72.626 144.894 72.626 145.318C72.626 145.966 72.282 146.446 71.642 146.63C72.258 146.67 72.754 147.134 72.754 147.966C72.754 148.494 72.562 148.91 72.178 149.206C71.794 149.502 71.306 149.654 70.706 149.654C69.482 149.654 68.634 149.07 68.354 148.15L69.002 147.87C69.346 148.598 69.93 148.966 70.754 148.966C71.53 148.966 72.018 148.606 72.018 147.974C72.018 147.358 71.538 147.046 70.578 147.046H69.954V146.382H70.45C71.322 146.382 71.89 145.99 71.89 145.454C71.89 144.902 71.434 144.59 70.706 144.59C69.85 144.59 69.33 145.03 69.106 145.614Z" fill="#76848D"/>
<path d="M206.997 146.782C206.997 145.918 207.197 145.222 207.605 144.702C208.005 144.182 208.597 143.918 209.373 143.918C210.965 143.918 211.757 144.966 211.757 146.782C211.757 147.654 211.557 148.342 211.165 148.862C210.765 149.382 210.173 149.646 209.389 149.646C208.637 149.646 208.053 149.382 207.629 148.854C207.205 148.326 206.997 147.638 206.997 146.782ZM207.733 146.782C207.733 148.15 208.357 148.966 209.389 148.966C210.477 148.966 211.021 148.238 211.021 146.782C211.021 145.326 210.469 144.598 209.373 144.598C208.261 144.598 207.733 145.398 207.733 146.782ZM214.563 146.39H214.811C215.171 146.39 215.467 146.302 215.715 146.134C215.955 145.966 216.075 145.742 216.075 145.478C216.075 144.878 215.603 144.574 214.667 144.574C213.771 144.574 213.283 144.902 213.283 145.478C213.283 145.998 213.819 146.39 214.563 146.39ZM214.795 147.022H214.595C214.163 147.022 213.803 147.118 213.523 147.302C213.243 147.486 213.099 147.718 213.099 147.998C213.099 148.606 213.659 148.99 214.675 148.99C215.707 148.99 216.259 148.622 216.259 148.006C216.259 147.39 215.667 147.022 214.795 147.022ZM216.371 149.222C215.963 149.51 215.395 149.654 214.683 149.654C213.971 149.654 213.403 149.51 212.987 149.23C212.571 148.95 212.363 148.566 212.363 148.07C212.363 147.422 212.787 146.91 213.467 146.686C212.851 146.486 212.547 145.998 212.547 145.43C212.547 144.502 213.331 143.91 214.675 143.91C216.027 143.91 216.811 144.502 216.811 145.43C216.811 145.966 216.515 146.374 215.923 146.646C216.635 146.862 216.987 147.326 216.987 148.038C216.987 148.542 216.779 148.942 216.371 149.222Z" fill="#76848D"/>
<path d="M91.9777 146.782C91.9777 145.918 92.1777 145.222 92.5857 144.702C92.9858 144.182 93.5778 143.918 94.3537 143.918C95.9458 143.918 96.7378 144.966 96.7378 146.782C96.7378 147.654 96.5378 148.342 96.1458 148.862C95.7457 149.382 95.1538 149.646 94.3698 149.646C93.6178 149.646 93.0338 149.382 92.6098 148.854C92.1858 148.326 91.9777 147.638 91.9777 146.782ZM92.7138 146.782C92.7138 148.15 93.3378 148.966 94.3698 148.966C95.4578 148.966 96.0017 148.238 96.0017 146.782C96.0017 145.326 95.4498 144.598 94.3537 144.598C93.2418 144.598 92.7138 145.398 92.7138 146.782ZM101.199 149.582H100.503V148.438H97.0793V147.974L100.583 143.982H101.199V147.79H102.239V148.438H101.199V149.582ZM100.503 145.102L98.0393 147.79H100.503V145.102Z" fill="#76848D"/>
<path d="M235.997 146.782C235.997 145.918 236.197 145.222 236.605 144.702C237.005 144.182 237.597 143.918 238.373 143.918C239.965 143.918 240.757 144.966 240.757 146.782C240.757 147.654 240.557 148.342 240.165 148.862C239.765 149.382 239.173 149.646 238.389 149.646C237.637 149.646 237.053 149.382 236.629 148.854C236.205 148.326 235.997 147.638 235.997 146.782ZM236.733 146.782C236.733 148.15 237.357 148.966 238.389 148.966C239.477 148.966 240.021 148.238 240.021 146.782C240.021 145.326 239.469 144.598 238.373 144.598C237.261 144.598 236.733 145.398 236.733 146.782ZM246.011 146.678C246.011 147.63 245.787 148.366 245.331 148.878C244.875 149.398 244.267 149.654 243.507 149.654C242.579 149.654 241.851 149.262 241.491 148.662L242.067 148.262C242.387 148.71 242.971 148.966 243.603 148.966C244.123 148.966 244.539 148.758 244.867 148.342C245.195 147.934 245.331 147.422 245.291 146.814C245.027 147.422 244.363 147.87 243.475 147.87C242.851 147.87 242.339 147.694 241.939 147.334C241.531 146.982 241.331 146.518 241.331 145.95C241.331 145.326 241.547 144.83 241.979 144.462C242.411 144.094 242.987 143.91 243.699 143.91C245.139 143.91 246.011 144.918 246.011 146.678ZM245.171 145.926C245.051 145.182 244.539 144.598 243.619 144.598C242.659 144.598 242.067 145.094 242.067 145.926C242.067 146.718 242.667 147.182 243.603 147.182C244.027 147.182 244.387 147.054 244.667 146.798C244.947 146.542 245.115 146.254 245.171 145.926Z" fill="#76848D"/>
<path d="M120.15 146.782C120.15 145.918 120.35 145.222 120.758 144.702C121.158 144.182 121.75 143.918 122.526 143.918C124.118 143.918 124.91 144.966 124.91 146.782C124.91 147.654 124.71 148.342 124.318 148.862C123.918 149.382 123.326 149.646 122.542 149.646C121.79 149.646 121.206 149.382 120.782 148.854C120.358 148.326 120.15 147.638 120.15 146.782ZM120.886 146.782C120.886 148.15 121.51 148.966 122.542 148.966C123.63 148.966 124.174 148.238 124.174 146.782C124.174 145.326 123.622 144.598 122.526 144.598C121.414 144.598 120.886 145.398 120.886 146.782ZM126.323 147.006L125.747 146.854L126.075 143.982H129.595V144.662H126.691L126.483 146.166C126.763 145.958 127.187 145.854 127.755 145.854C128.411 145.854 128.923 146.03 129.299 146.374C129.667 146.726 129.851 147.174 129.851 147.726C129.851 148.278 129.643 148.742 129.235 149.102C128.819 149.47 128.299 149.654 127.683 149.654C126.635 149.654 125.763 149.158 125.403 148.286L126.043 148.014C126.275 148.55 126.875 148.974 127.683 148.974C128.603 148.974 129.115 148.446 129.115 147.75C129.115 147.006 128.515 146.526 127.563 146.526C127.051 146.526 126.635 146.686 126.323 147.006Z" fill="#76848D"/>
<path d="M266.023 145.47L265.767 144.87L267.687 143.95H268.143V149.582H267.455V144.806L266.023 145.47ZM269.163 146.782C269.163 145.918 269.363 145.222 269.771 144.702C270.171 144.182 270.763 143.918 271.539 143.918C273.131 143.918 273.923 144.966 273.923 146.782C273.923 147.654 273.723 148.342 273.331 148.862C272.931 149.382 272.339 149.646 271.555 149.646C270.803 149.646 270.219 149.382 269.795 148.854C269.371 148.326 269.163 147.638 269.163 146.782ZM269.899 146.782C269.899 148.15 270.523 148.966 271.555 148.966C272.643 148.966 273.187 148.238 273.187 146.782C273.187 145.326 272.635 144.598 271.539 144.598C270.427 144.598 269.899 145.398 269.899 146.782Z" fill="#76848D"/>
<path d="M296.162 145.47L295.906 144.87L297.826 143.95H298.282V149.582H297.594V144.806L296.162 145.47ZM299.238 145.47L298.982 144.87L300.902 143.95H301.358V149.582H300.67V144.806L299.238 145.47Z" fill="#76848D"/>
<path d="M323.293 145.47L323.037 144.87L324.957 143.95H325.413V149.582H324.725V144.806L323.293 145.47ZM327.073 145.83L326.489 145.622C326.689 144.63 327.441 143.918 328.633 143.918C329.785 143.918 330.489 144.582 330.489 145.598C330.489 146.134 330.257 146.67 329.969 147.054C329.825 147.254 329.641 147.446 329.425 147.646C328.985 148.038 328.673 148.246 328.217 148.534L327.601 148.918H330.697V149.582H326.337V149.038L327.553 148.23C327.769 148.094 327.921 147.99 328.009 147.926C328.097 147.87 328.241 147.766 328.433 147.63C328.625 147.494 328.769 147.374 328.865 147.286C328.953 147.198 329.073 147.086 329.209 146.942C329.577 146.542 329.713 146.174 329.753 145.67C329.753 144.942 329.281 144.614 328.585 144.614C328.153 144.614 327.809 144.734 327.561 144.974C327.313 145.214 327.145 145.502 327.073 145.83Z" fill="#76848D"/>
<line x1="2" y1="135.082" x2="337" y2="135.082" stroke="#ABBEC9"/>
<path d="M8.38672 18.2754C20.2828 18.2754 26.6883 20.0286 37.4079 23.2429C47.9738 26.411 60.0474 33.0527 65.9061 36.6842C81.4625 46.3269 85.5596 51.6149 94.6658 53.632C109.176 56.8463 117.281 63.5669 123.426 67.6578C129.314 71.5784 145.207 79.3097 152.185 82.268C167.349 88.6965 168.134 93.3717 180.945 93.3717C189.962 93.3717 203.846 83.8871 209.835 83.0609C226.176 80.807 230.49 83.0609 238.464 84.3134C254.544 86.8389 259.987 85.3955 267.093 85.3955C277.755 85.3955 284.94 76.8291 295.984 74.0863C301.866 72.6253 307.618 71.1642 324.613 71.1642" stroke="#737AF9" stroke-width="2.93345"/>
<circle cx="10.7326" cy="18.2756" r="4.19352" fill="#6D73F9" stroke="white"/>
<path d="M6.41784 8.58203H5.72184V7.43803H2.29784V6.97403L5.80184 2.98203H6.41784V6.79003H7.45784V7.43803H6.41784V8.58203ZM5.72184 4.10203L3.25784 6.79003H5.72184V4.10203ZM10.0568 5.39003H10.3048C10.6648 5.39003 10.9608 5.30203 11.2088 5.13403C11.4488 4.96603 11.5688 4.74203 11.5688 4.47803C11.5688 3.87803 11.0968 3.57403 10.1608 3.57403C9.26484 3.57403 8.77684 3.90203 8.77684 4.47803C8.77684 4.99803 9.31284 5.39003 10.0568 5.39003ZM10.2888 6.02203H10.0888C9.65684 6.02203 9.29684 6.11803 9.01684 6.30203C8.73684 6.48603 8.59284 6.71803 8.59284 6.99803C8.59284 7.60603 9.15284 7.99003 10.1688 7.99003C11.2008 7.99003 11.7528 7.62203 11.7528 7.00603C11.7528 6.39003 11.1608 6.02203 10.2888 6.02203ZM11.8648 8.22203C11.4568 8.51003 10.8888 8.65403 10.1768 8.65403C9.46484 8.65403 8.89684 8.51003 8.48084 8.23003C8.06484 7.95003 7.85684 7.56603 7.85684 7.07003C7.85684 6.42203 8.28084 5.91003 8.96084 5.68603C8.34484 5.48603 8.04084 4.99803 8.04084 4.43003C8.04084 3.50203 8.82484 2.91003 10.1688 2.91003C11.5208 2.91003 12.3048 3.50203 12.3048 4.43003C12.3048 4.96603 12.0088 5.37403 11.4168 5.64603C12.1288 5.86203 12.4808 6.32603 12.4808 7.03803C12.4808 7.54203 12.2728 7.94203 11.8648 8.22203ZM13.1608 8.12603C13.1608 7.90203 13.3688 7.67803 13.6568 7.67803C13.9208 7.67803 14.1368 7.90203 14.1368 8.12603C14.1368 8.38203 13.9368 8.59803 13.6568 8.59803C13.3688 8.59803 13.1608 8.38203 13.1608 8.12603ZM17.0062 5.39003H17.2542C17.6142 5.39003 17.9102 5.30203 18.1582 5.13403C18.3982 4.96603 18.5182 4.74203 18.5182 4.47803C18.5182 3.87803 18.0462 3.57403 17.1102 3.57403C16.2142 3.57403 15.7262 3.90203 15.7262 4.47803C15.7262 4.99803 16.2622 5.39003 17.0062 5.39003ZM17.2382 6.02203H17.0382C16.6062 6.02203 16.2462 6.11803 15.9662 6.30203C15.6862 6.48603 15.5422 6.71803 15.5422 6.99803C15.5422 7.60603 16.1022 7.99003 17.1182 7.99003C18.1502 7.99003 18.7022 7.62203 18.7022 7.00603C18.7022 6.39003 18.1102 6.02203 17.2382 6.02203ZM18.8142 8.22203C18.4062 8.51003 17.8382 8.65403 17.1262 8.65403C16.4142 8.65403 15.8462 8.51003 15.4302 8.23003C15.0142 7.95003 14.8062 7.56603 14.8062 7.07003C14.8062 6.42203 15.2302 5.91003 15.9102 5.68603C15.2942 5.48603 14.9902 4.99803 14.9902 4.43003C14.9902 3.50203 15.7742 2.91003 17.1182 2.91003C18.4702 2.91003 19.2542 3.50203 19.2542 4.43003C19.2542 4.96603 18.9582 5.37403 18.3662 5.64603C19.0782 5.86203 19.4302 6.32603 19.4302 7.03803C19.4302 7.54203 19.2222 7.94203 18.8142 8.22203Z" fill="#2A3C3C"/>
<path d="M6.41784 8.58203H5.72184V7.43803H2.29784V6.97403L5.80184 2.98203H6.41784V6.79003H7.45784V7.43803H6.41784V8.58203ZM5.72184 4.10203L3.25784 6.79003H5.72184V4.10203ZM10.0568 5.39003H10.3048C10.6648 5.39003 10.9608 5.30203 11.2088 5.13403C11.4488 4.96603 11.5688 4.74203 11.5688 4.47803C11.5688 3.87803 11.0968 3.57403 10.1608 3.57403C9.26484 3.57403 8.77684 3.90203 8.77684 4.47803C8.77684 4.99803 9.31284 5.39003 10.0568 5.39003ZM10.2888 6.02203H10.0888C9.65684 6.02203 9.29684 6.11803 9.01684 6.30203C8.73684 6.48603 8.59284 6.71803 8.59284 6.99803C8.59284 7.60603 9.15284 7.99003 10.1688 7.99003C11.2008 7.99003 11.7528 7.62203 11.7528 7.00603C11.7528 6.39003 11.1608 6.02203 10.2888 6.02203ZM11.8648 8.22203C11.4568 8.51003 10.8888 8.65403 10.1768 8.65403C9.46484 8.65403 8.89684 8.51003 8.48084 8.23003C8.06484 7.95003 7.85684 7.56603 7.85684 7.07003C7.85684 6.42203 8.28084 5.91003 8.96084 5.68603C8.34484 5.48603 8.04084 4.99803 8.04084 4.43003C8.04084 3.50203 8.82484 2.91003 10.1688 2.91003C11.5208 2.91003 12.3048 3.50203 12.3048 4.43003C12.3048 4.96603 12.0088 5.37403 11.4168 5.64603C12.1288 5.86203 12.4808 6.32603 12.4808 7.03803C12.4808 7.54203 12.2728 7.94203 11.8648 8.22203ZM13.1608 8.12603C13.1608 7.90203 13.3688 7.67803 13.6568 7.67803C13.9208 7.67803 14.1368 7.90203 14.1368 8.12603C14.1368 8.38203 13.9368 8.59803 13.6568 8.59803C13.3688 8.59803 13.1608 8.38203 13.1608 8.12603ZM17.0062 5.39003H17.2542C17.6142 5.39003 17.9102 5.30203 18.1582 5.13403C18.3982 4.96603 18.5182 4.74203 18.5182 4.47803C18.5182 3.87803 18.0462 3.57403 17.1102 3.57403C16.2142 3.57403 15.7262 3.90203 15.7262 4.47803C15.7262 4.99803 16.2622 5.39003 17.0062 5.39003ZM17.2382 6.02203H17.0382C16.6062 6.02203 16.2462 6.11803 15.9662 6.30203C15.6862 6.48603 15.5422 6.71803 15.5422 6.99803C15.5422 7.60603 16.1022 7.99003 17.1182 7.99003C18.1502 7.99003 18.7022 7.62203 18.7022 7.00603C18.7022 6.39003 18.1102 6.02203 17.2382 6.02203ZM18.8142 8.22203C18.4062 8.51003 17.8382 8.65403 17.1262 8.65403C16.4142 8.65403 15.8462 8.51003 15.4302 8.23003C15.0142 7.95003 14.8062 7.56603 14.8062 7.07003C14.8062 6.42203 15.2302 5.91003 15.9102 5.68603C15.2942 5.48603 14.9902 4.99803 14.9902 4.43003C14.9902 3.50203 15.7742 2.91003 17.1182 2.91003C18.4702 2.91003 19.2542 3.50203 19.2542 4.43003C19.2542 4.96603 18.9582 5.37403 18.3662 5.64603C19.0782 5.86203 19.4302 6.32603 19.4302 7.03803C19.4302 7.54203 19.2222 7.94203 18.8142 8.22203Z" fill="#1A3341"/>
<circle cx="39.4826" cy="22.9689" r="4.19352" fill="#6D73F9" stroke="white"/>
<path d="M36.5702 12.582H35.8742V11.438H32.4502V10.974L35.9542 6.98203H36.5702V10.79H37.6102V11.438H36.5702V12.582ZM35.8742 8.10203L33.4102 10.79H35.8742V8.10203ZM40.2092 9.39003H40.4572C40.8172 9.39003 41.1132 9.30203 41.3612 9.13403C41.6012 8.96603 41.7212 8.74203 41.7212 8.47803C41.7212 7.87803 41.2492 7.57403 40.3132 7.57403C39.4172 7.57403 38.9292 7.90203 38.9292 8.47803C38.9292 8.99803 39.4652 9.39003 40.2092 9.39003ZM40.4412 10.022H40.2412C39.8092 10.022 39.4492 10.118 39.1692 10.302C38.8892 10.486 38.7452 10.718 38.7452 10.998C38.7452 11.606 39.3052 11.99 40.3212 11.99C41.3532 11.99 41.9052 11.622 41.9052 11.006C41.9052 10.39 41.3132 10.022 40.4412 10.022ZM42.0172 12.222C41.6092 12.51 41.0412 12.654 40.3292 12.654C39.6172 12.654 39.0492 12.51 38.6332 12.23C38.2172 11.95 38.0092 11.566 38.0092 11.07C38.0092 10.422 38.4332 9.91003 39.1132 9.68603C38.4972 9.48603 38.1932 8.99803 38.1932 8.43003C38.1932 7.50203 38.9772 6.91003 40.3212 6.91003C41.6732 6.91003 42.4572 7.50203 42.4572 8.43003C42.4572 8.96603 42.1612 9.37403 41.5692 9.64603C42.2812 9.86203 42.6332 10.326 42.6332 11.038C42.6332 11.542 42.4252 11.942 42.0172 12.222ZM43.3131 12.126C43.3131 11.902 43.5211 11.678 43.8091 11.678C44.0731 11.678 44.2891 11.902 44.2891 12.126C44.2891 12.382 44.0891 12.598 43.8091 12.598C43.5211 12.598 43.3131 12.382 43.3131 12.126ZM45.7666 10.006L45.1906 9.85403L45.5186 6.98203H49.0386V7.66203H46.1346L45.9266 9.16603C46.2066 8.95803 46.6306 8.85403 47.1986 8.85403C47.8546 8.85403 48.3666 9.03003 48.7426 9.37403C49.1106 9.72603 49.2946 10.174 49.2946 10.726C49.2946 11.278 49.0866 11.742 48.6786 12.102C48.2626 12.47 47.7426 12.654 47.1266 12.654C46.0786 12.654 45.2066 12.158 44.8466 11.286L45.4866 11.014C45.7186 11.55 46.3186 11.974 47.1266 11.974C48.0466 11.974 48.5586 11.446 48.5586 10.75C48.5586 10.006 47.9586 9.52603 47.0066 9.52603C46.4946 9.52603 46.0786 9.68603 45.7666 10.006Z" fill="#2A3C3C"/>
<path d="M36.5702 12.582H35.8742V11.438H32.4502V10.974L35.9542 6.98203H36.5702V10.79H37.6102V11.438H36.5702V12.582ZM35.8742 8.10203L33.4102 10.79H35.8742V8.10203ZM40.2092 9.39003H40.4572C40.8172 9.39003 41.1132 9.30203 41.3612 9.13403C41.6012 8.96603 41.7212 8.74203 41.7212 8.47803C41.7212 7.87803 41.2492 7.57403 40.3132 7.57403C39.4172 7.57403 38.9292 7.90203 38.9292 8.47803C38.9292 8.99803 39.4652 9.39003 40.2092 9.39003ZM40.4412 10.022H40.2412C39.8092 10.022 39.4492 10.118 39.1692 10.302C38.8892 10.486 38.7452 10.718 38.7452 10.998C38.7452 11.606 39.3052 11.99 40.3212 11.99C41.3532 11.99 41.9052 11.622 41.9052 11.006C41.9052 10.39 41.3132 10.022 40.4412 10.022ZM42.0172 12.222C41.6092 12.51 41.0412 12.654 40.3292 12.654C39.6172 12.654 39.0492 12.51 38.6332 12.23C38.2172 11.95 38.0092 11.566 38.0092 11.07C38.0092 10.422 38.4332 9.91003 39.1132 9.68603C38.4972 9.48603 38.1932 8.99803 38.1932 8.43003C38.1932 7.50203 38.9772 6.91003 40.3212 6.91003C41.6732 6.91003 42.4572 7.50203 42.4572 8.43003C42.4572 8.96603 42.1612 9.37403 41.5692 9.64603C42.2812 9.86203 42.6332 10.326 42.6332 11.038C42.6332 11.542 42.4252 11.942 42.0172 12.222ZM43.3131 12.126C43.3131 11.902 43.5211 11.678 43.8091 11.678C44.0731 11.678 44.2891 11.902 44.2891 12.126C44.2891 12.382 44.0891 12.598 43.8091 12.598C43.5211 12.598 43.3131 12.382 43.3131 12.126ZM45.7666 10.006L45.1906 9.85403L45.5186 6.98203H49.0386V7.66203H46.1346L45.9266 9.16603C46.2066 8.95803 46.6306 8.85403 47.1986 8.85403C47.8546 8.85403 48.3666 9.03003 48.7426 9.37403C49.1106 9.72603 49.2946 10.174 49.2946 10.726C49.2946 11.278 49.0866 11.742 48.6786 12.102C48.2626 12.47 47.7426 12.654 47.1266 12.654C46.0786 12.654 45.2066 12.158 44.8466 11.286L45.4866 11.014C45.7186 11.55 46.3186 11.974 47.1266 11.974C48.0466 11.974 48.5586 11.446 48.5586 10.75C48.5586 10.006 47.9586 9.52603 47.0066 9.52603C46.4946 9.52603 46.0786 9.68603 45.7666 10.006Z" fill="#1A3341"/>
<circle cx="68.2287" cy="36.4631" r="4.19352" fill="#6D73F9" stroke="white"/>
<path d="M64.2421 26.582H63.5461V25.438H60.1221V24.974L63.6261 20.982H64.2421V24.79H65.2821V25.438H64.2421V26.582ZM63.5461 22.102L61.0821 24.79H63.5461V22.102ZM68.8811 21.662H65.4891V20.982H69.7371V21.438L66.9531 26.582H66.1931L68.8811 21.662ZM69.735 26.126C69.735 25.902 69.943 25.678 70.231 25.678C70.495 25.678 70.711 25.902 70.711 26.126C70.711 26.382 70.511 26.598 70.231 26.598C69.943 26.598 69.735 26.382 69.735 26.126ZM71.9244 22.614L71.3244 22.342C71.6204 21.478 72.3964 20.91 73.5564 20.91C74.1084 20.91 74.5644 21.038 74.9164 21.294C75.2684 21.55 75.4444 21.894 75.4444 22.318C75.4444 22.966 75.1004 23.446 74.4604 23.63C75.0764 23.67 75.5724 24.134 75.5724 24.966C75.5724 25.494 75.3804 25.91 74.9964 26.206C74.6124 26.502 74.1244 26.654 73.5244 26.654C72.3004 26.654 71.4524 26.07 71.1724 25.15L71.8204 24.87C72.1644 25.598 72.7484 25.966 73.5724 25.966C74.3484 25.966 74.8364 25.606 74.8364 24.974C74.8364 24.358 74.3564 24.046 73.3964 24.046H72.7724V23.382H73.2684C74.1404 23.382 74.7084 22.99 74.7084 22.454C74.7084 21.902 74.2524 21.59 73.5244 21.59C72.6684 21.59 72.1484 22.03 71.9244 22.614Z" fill="#2A3C3C"/>
<path d="M64.2421 26.582H63.5461V25.438H60.1221V24.974L63.6261 20.982H64.2421V24.79H65.2821V25.438H64.2421V26.582ZM63.5461 22.102L61.0821 24.79H63.5461V22.102ZM68.8811 21.662H65.4891V20.982H69.7371V21.438L66.9531 26.582H66.1931L68.8811 21.662ZM69.735 26.126C69.735 25.902 69.943 25.678 70.231 25.678C70.495 25.678 70.711 25.902 70.711 26.126C70.711 26.382 70.511 26.598 70.231 26.598C69.943 26.598 69.735 26.382 69.735 26.126ZM71.9244 22.614L71.3244 22.342C71.6204 21.478 72.3964 20.91 73.5564 20.91C74.1084 20.91 74.5644 21.038 74.9164 21.294C75.2684 21.55 75.4444 21.894 75.4444 22.318C75.4444 22.966 75.1004 23.446 74.4604 23.63C75.0764 23.67 75.5724 24.134 75.5724 24.966C75.5724 25.494 75.3804 25.91 74.9964 26.206C74.6124 26.502 74.1244 26.654 73.5244 26.654C72.3004 26.654 71.4524 26.07 71.1724 25.15L71.8204 24.87C72.1644 25.598 72.7484 25.966 73.5724 25.966C74.3484 25.966 74.8364 25.606 74.8364 24.974C74.8364 24.358 74.3564 24.046 73.3964 24.046H72.7724V23.382H73.2684C74.1404 23.382 74.7084 22.99 74.7084 22.454C74.7084 21.902 74.2524 21.59 73.5244 21.59C72.6684 21.59 72.1484 22.03 71.9244 22.614Z" fill="#1A3341"/>
<circle cx="96.9787" cy="53.4767" r="4.19352" fill="#6D73F9" stroke="white"/>
<path d="M91.5702 43.582H90.8742V42.438H87.4502V41.974L90.9542 37.982H91.5702V41.79H92.6102V42.438H91.5702V43.582ZM90.8742 39.102L88.4102 41.79H90.8742V39.102ZM93.8172 41.006L93.2412 40.854L93.5692 37.982H97.0892V38.662H94.1852L93.9772 40.166C94.2572 39.958 94.6812 39.854 95.2492 39.854C95.9052 39.854 96.4172 40.03 96.7932 40.374C97.1612 40.726 97.3452 41.174 97.3452 41.726C97.3452 42.278 97.1372 42.742 96.7292 43.102C96.3132 43.47 95.7932 43.654 95.1772 43.654C94.1292 43.654 93.2572 43.158 92.8972 42.286L93.5372 42.014C93.7692 42.55 94.3692 42.974 95.1772 42.974C96.0972 42.974 96.6092 42.446 96.6092 41.75C96.6092 41.006 96.0092 40.526 95.0572 40.526C94.5452 40.526 94.1292 40.686 93.8172 41.006ZM98.0084 43.126C98.0084 42.902 98.2164 42.678 98.5044 42.678C98.7684 42.678 98.9844 42.902 98.9844 43.126C98.9844 43.382 98.7844 43.598 98.5044 43.598C98.2164 43.598 98.0084 43.382 98.0084 43.126ZM101.854 40.39H102.102C102.462 40.39 102.758 40.302 103.006 40.134C103.246 39.966 103.366 39.742 103.366 39.478C103.366 38.878 102.894 38.574 101.958 38.574C101.062 38.574 100.574 38.902 100.574 39.478C100.574 39.998 101.11 40.39 101.854 40.39ZM102.086 41.022H101.886C101.454 41.022 101.094 41.118 100.814 41.302C100.534 41.486 100.39 41.718 100.39 41.998C100.39 42.606 100.95 42.99 101.966 42.99C102.998 42.99 103.55 42.622 103.55 42.006C103.55 41.39 102.958 41.022 102.086 41.022ZM103.662 43.222C103.254 43.51 102.686 43.654 101.974 43.654C101.262 43.654 100.694 43.51 100.278 43.23C99.8619 42.95 99.6539 42.566 99.6539 42.07C99.6539 41.422 100.078 40.91 100.758 40.686C100.142 40.486 99.8379 39.998 99.8379 39.43C99.8379 38.502 100.622 37.91 101.966 37.91C103.318 37.91 104.102 38.502 104.102 39.43C104.102 39.966 103.806 40.374 103.214 40.646C103.926 40.862 104.278 41.326 104.278 42.038C104.278 42.542 104.07 42.942 103.662 43.222Z" fill="#2A3C3C"/>
<path d="M91.5702 43.582H90.8742V42.438H87.4502V41.974L90.9542 37.982H91.5702V41.79H92.6102V42.438H91.5702V43.582ZM90.8742 39.102L88.4102 41.79H90.8742V39.102ZM93.8172 41.006L93.2412 40.854L93.5692 37.982H97.0892V38.662H94.1852L93.9772 40.166C94.2572 39.958 94.6812 39.854 95.2492 39.854C95.9052 39.854 96.4172 40.03 96.7932 40.374C97.1612 40.726 97.3452 41.174 97.3452 41.726C97.3452 42.278 97.1372 42.742 96.7292 43.102C96.3132 43.47 95.7932 43.654 95.1772 43.654C94.1292 43.654 93.2572 43.158 92.8972 42.286L93.5372 42.014C93.7692 42.55 94.3692 42.974 95.1772 42.974C96.0972 42.974 96.6092 42.446 96.6092 41.75C96.6092 41.006 96.0092 40.526 95.0572 40.526C94.5452 40.526 94.1292 40.686 93.8172 41.006ZM98.0084 43.126C98.0084 42.902 98.2164 42.678 98.5044 42.678C98.7684 42.678 98.9844 42.902 98.9844 43.126C98.9844 43.382 98.7844 43.598 98.5044 43.598C98.2164 43.598 98.0084 43.382 98.0084 43.126ZM101.854 40.39H102.102C102.462 40.39 102.758 40.302 103.006 40.134C103.246 39.966 103.366 39.742 103.366 39.478C103.366 38.878 102.894 38.574 101.958 38.574C101.062 38.574 100.574 38.902 100.574 39.478C100.574 39.998 101.11 40.39 101.854 40.39ZM102.086 41.022H101.886C101.454 41.022 101.094 41.118 100.814 41.302C100.534 41.486 100.39 41.718 100.39 41.998C100.39 42.606 100.95 42.99 101.966 42.99C102.998 42.99 103.55 42.622 103.55 42.006C103.55 41.39 102.958 41.022 102.086 41.022ZM103.662 43.222C103.254 43.51 102.686 43.654 101.974 43.654C101.262 43.654 100.694 43.51 100.278 43.23C99.8619 42.95 99.6539 42.566 99.6539 42.07C99.6539 41.422 100.078 40.91 100.758 40.686C100.142 40.486 99.8379 39.998 99.8379 39.43C99.8379 38.502 100.622 37.91 101.966 37.91C103.318 37.91 104.102 38.502 104.102 39.43C104.102 39.966 103.806 40.374 103.214 40.646C103.926 40.862 104.278 41.326 104.278 42.038C104.278 42.542 104.07 42.942 103.662 43.222Z" fill="#1A3341"/>
<circle cx="126.311" cy="67.5578" r="4.19352" fill="#6D73F9" stroke="white"/>
<path d="M121.398 57.582H120.702V56.438H117.278V55.974L120.782 51.982H121.398V55.79H122.438V56.438H121.398V57.582ZM120.702 53.102L118.238 55.79H120.702V53.102ZM126.693 57.582H125.997V56.438H122.573V55.974L126.077 51.982H126.693V55.79H127.733V56.438H126.693V57.582ZM125.997 53.102L123.533 55.79H125.997V53.102ZM128.18 57.126C128.18 56.902 128.388 56.678 128.676 56.678C128.94 56.678 129.156 56.902 129.156 57.126C129.156 57.382 128.956 57.598 128.676 57.598C128.388 57.598 128.18 57.382 128.18 57.126ZM132.026 54.39H132.274C132.634 54.39 132.93 54.302 133.178 54.134C133.418 53.966 133.538 53.742 133.538 53.478C133.538 52.878 133.066 52.574 132.13 52.574C131.234 52.574 130.746 52.902 130.746 53.478C130.746 53.998 131.282 54.39 132.026 54.39ZM132.258 55.022H132.058C131.626 55.022 131.266 55.118 130.986 55.302C130.706 55.486 130.562 55.718 130.562 55.998C130.562 56.606 131.122 56.99 132.138 56.99C133.17 56.99 133.722 56.622 133.722 56.006C133.722 55.39 133.13 55.022 132.258 55.022ZM133.834 57.222C133.426 57.51 132.858 57.654 132.146 57.654C131.434 57.654 130.866 57.51 130.45 57.23C130.034 56.95 129.826 56.566 129.826 56.07C129.826 55.422 130.25 54.91 130.93 54.686C130.314 54.486 130.01 53.998 130.01 53.43C130.01 52.502 130.794 51.91 132.138 51.91C133.49 51.91 134.274 52.502 134.274 53.43C134.274 53.966 133.978 54.374 133.386 54.646C134.098 54.862 134.45 55.326 134.45 56.038C134.45 56.542 134.242 56.942 133.834 57.222Z" fill="#2A3C3C"/>
<path d="M121.398 57.582H120.702V56.438H117.278V55.974L120.782 51.982H121.398V55.79H122.438V56.438H121.398V57.582ZM120.702 53.102L118.238 55.79H120.702V53.102ZM126.693 57.582H125.997V56.438H122.573V55.974L126.077 51.982H126.693V55.79H127.733V56.438H126.693V57.582ZM125.997 53.102L123.533 55.79H125.997V53.102ZM128.18 57.126C128.18 56.902 128.388 56.678 128.676 56.678C128.94 56.678 129.156 56.902 129.156 57.126C129.156 57.382 128.956 57.598 128.676 57.598C128.388 57.598 128.18 57.382 128.18 57.126ZM132.026 54.39H132.274C132.634 54.39 132.93 54.302 133.178 54.134C133.418 53.966 133.538 53.742 133.538 53.478C133.538 52.878 133.066 52.574 132.13 52.574C131.234 52.574 130.746 52.902 130.746 53.478C130.746 53.998 131.282 54.39 132.026 54.39ZM132.258 55.022H132.058C131.626 55.022 131.266 55.118 130.986 55.302C130.706 55.486 130.562 55.718 130.562 55.998C130.562 56.606 131.122 56.99 132.138 56.99C133.17 56.99 133.722 56.622 133.722 56.006C133.722 55.39 133.13 55.022 132.258 55.022ZM133.834 57.222C133.426 57.51 132.858 57.654 132.146 57.654C131.434 57.654 130.866 57.51 130.45 57.23C130.034 56.95 129.826 56.566 129.826 56.07C129.826 55.422 130.25 54.91 130.93 54.686C130.314 54.486 130.01 53.998 130.01 53.43C130.01 52.502 130.794 51.91 132.138 51.91C133.49 51.91 134.274 52.502 134.274 53.43C134.274 53.966 133.978 54.374 133.386 54.646C134.098 54.862 134.45 55.326 134.45 56.038C134.45 56.542 134.242 56.942 133.834 57.222Z" fill="#1A3341"/>
<circle cx="154.473" cy="82.8117" r="4.19352" fill="#6D73F9" stroke="white"/>
<path d="M150.098 72.582H149.402V71.438H145.978V70.974L149.482 66.982H150.098V70.79H151.138V71.438H150.098V72.582ZM149.402 68.102L146.938 70.79H149.402V68.102ZM152.081 68.614L151.481 68.342C151.777 67.478 152.553 66.91 153.713 66.91C154.265 66.91 154.721 67.038 155.073 67.294C155.425 67.55 155.601 67.894 155.601 68.318C155.601 68.966 155.257 69.446 154.617 69.63C155.233 69.67 155.729 70.134 155.729 70.966C155.729 71.494 155.537 71.91 155.153 72.206C154.769 72.502 154.281 72.654 153.681 72.654C152.457 72.654 151.609 72.07 151.329 71.15L151.977 70.87C152.321 71.598 152.905 71.966 153.729 71.966C154.505 71.966 154.993 71.606 154.993 70.974C154.993 70.358 154.513 70.046 153.553 70.046H152.929V69.382H153.425C154.297 69.382 154.865 68.99 154.865 68.454C154.865 67.902 154.409 67.59 153.681 67.59C152.825 67.59 152.305 68.03 152.081 68.614ZM156.442 72.126C156.442 71.902 156.65 71.678 156.938 71.678C157.202 71.678 157.418 71.902 157.418 72.126C157.418 72.382 157.218 72.598 156.938 72.598C156.65 72.598 156.442 72.382 156.442 72.126ZM161.943 72.582H161.247V71.438H157.823V70.974L161.327 66.982H161.943V70.79H162.983V71.438H161.943V72.582ZM161.247 68.102L158.783 70.79H161.247V68.102Z" fill="#2A3C3C"/>
<path d="M150.098 72.582H149.402V71.438H145.978V70.974L149.482 66.982H150.098V70.79H151.138V71.438H150.098V72.582ZM149.402 68.102L146.938 70.79H149.402V68.102ZM152.081 68.614L151.481 68.342C151.777 67.478 152.553 66.91 153.713 66.91C154.265 66.91 154.721 67.038 155.073 67.294C155.425 67.55 155.601 67.894 155.601 68.318C155.601 68.966 155.257 69.446 154.617 69.63C155.233 69.67 155.729 70.134 155.729 70.966C155.729 71.494 155.537 71.91 155.153 72.206C154.769 72.502 154.281 72.654 153.681 72.654C152.457 72.654 151.609 72.07 151.329 71.15L151.977 70.87C152.321 71.598 152.905 71.966 153.729 71.966C154.505 71.966 154.993 71.606 154.993 70.974C154.993 70.358 154.513 70.046 153.553 70.046H152.929V69.382H153.425C154.297 69.382 154.865 68.99 154.865 68.454C154.865 67.902 154.409 67.59 153.681 67.59C152.825 67.59 152.305 68.03 152.081 68.614ZM156.442 72.126C156.442 71.902 156.65 71.678 156.938 71.678C157.202 71.678 157.418 71.902 157.418 72.126C157.418 72.382 157.218 72.598 156.938 72.598C156.65 72.598 156.442 72.382 156.442 72.126ZM161.943 72.582H161.247V71.438H157.823V70.974L161.327 66.982H161.943V70.79H162.983V71.438H161.943V72.582ZM161.247 68.102L158.783 70.79H161.247V68.102Z" fill="#1A3341"/>
<circle cx="183.221" cy="93.3722" r="4.19352" fill="#6D73F9" stroke="white"/>
<path d="M179.519 83.582H178.823V82.438H175.399V81.974L178.903 77.982H179.519V81.79H180.559V82.438H179.519V83.582ZM178.823 79.102L176.359 81.79H178.823V79.102ZM181.59 79.83L181.006 79.622C181.206 78.63 181.958 77.918 183.15 77.918C184.302 77.918 185.006 78.582 185.006 79.598C185.006 80.134 184.774 80.67 184.486 81.054C184.342 81.254 184.158 81.446 183.942 81.646C183.502 82.038 183.19 82.246 182.734 82.534L182.118 82.918H185.214V83.582H180.854V83.038L182.07 82.23C182.286 82.094 182.438 81.99 182.526 81.926C182.614 81.87 182.758 81.766 182.95 81.63C183.142 81.494 183.286 81.374 183.382 81.286C183.47 81.198 183.59 81.086 183.726 80.942C184.094 80.542 184.23 80.174 184.27 79.67C184.27 78.942 183.798 78.614 183.102 78.614C182.67 78.614 182.326 78.734 182.078 78.974C181.83 79.214 181.662 79.502 181.59 79.83ZM185.825 83.126C185.825 82.902 186.033 82.678 186.321 82.678C186.585 82.678 186.801 82.902 186.801 83.126C186.801 83.382 186.601 83.598 186.321 83.598C186.033 83.598 185.825 83.382 185.825 83.126ZM190.67 78.662H187.278V77.982H191.526V78.438L188.742 83.582H187.982L190.67 78.662Z" fill="#2A3C3C"/>
<path d="M179.519 83.582H178.823V82.438H175.399V81.974L178.903 77.982H179.519V81.79H180.559V82.438H179.519V83.582ZM178.823 79.102L176.359 81.79H178.823V79.102ZM181.59 79.83L181.006 79.622C181.206 78.63 181.958 77.918 183.15 77.918C184.302 77.918 185.006 78.582 185.006 79.598C185.006 80.134 184.774 80.67 184.486 81.054C184.342 81.254 184.158 81.446 183.942 81.646C183.502 82.038 183.19 82.246 182.734 82.534L182.118 82.918H185.214V83.582H180.854V83.038L182.07 82.23C182.286 82.094 182.438 81.99 182.526 81.926C182.614 81.87 182.758 81.766 182.95 81.63C183.142 81.494 183.286 81.374 183.382 81.286C183.47 81.198 183.59 81.086 183.726 80.942C184.094 80.542 184.23 80.174 184.27 79.67C184.27 78.942 183.798 78.614 183.102 78.614C182.67 78.614 182.326 78.734 182.078 78.974C181.83 79.214 181.662 79.502 181.59 79.83ZM185.825 83.126C185.825 82.902 186.033 82.678 186.321 82.678C186.585 82.678 186.801 82.902 186.801 83.126C186.801 83.382 186.601 83.598 186.321 83.598C186.033 83.598 185.825 83.382 185.825 83.126ZM190.67 78.662H187.278V77.982H191.526V78.438L188.742 83.582H187.982L190.67 78.662Z" fill="#1A3341"/>
<circle cx="211.969" cy="83.3986" r="4.19352" fill="#6D73F9" stroke="white"/>
<path d="M206.769 73.582H206.073V72.438H202.649V71.974L206.153 67.982H206.769V71.79H207.809V72.438H206.769V73.582ZM206.073 69.102L203.609 71.79H206.073V69.102ZM208.752 69.614L208.152 69.342C208.448 68.478 209.224 67.91 210.384 67.91C210.936 67.91 211.392 68.038 211.744 68.294C212.096 68.55 212.272 68.894 212.272 69.318C212.272 69.966 211.928 70.446 211.288 70.63C211.904 70.67 212.4 71.134 212.4 71.966C212.4 72.494 212.208 72.91 211.824 73.206C211.44 73.502 210.952 73.654 210.352 73.654C209.128 73.654 208.28 73.07 208 72.15L208.648 71.87C208.992 72.598 209.576 72.966 210.4 72.966C211.176 72.966 211.664 72.606 211.664 71.974C211.664 71.358 211.184 71.046 210.224 71.046H209.6V70.382H210.096C210.968 70.382 211.536 69.99 211.536 69.454C211.536 68.902 211.08 68.59 210.352 68.59C209.496 68.59 208.976 69.03 208.752 69.614ZM213.114 73.126C213.114 72.902 213.322 72.678 213.61 72.678C213.874 72.678 214.09 72.902 214.09 73.126C214.09 73.382 213.89 73.598 213.61 73.598C213.322 73.598 213.114 73.382 213.114 73.126ZM215.567 71.006L214.991 70.854L215.319 67.982H218.839V68.662H215.935L215.727 70.166C216.007 69.958 216.431 69.854 216.999 69.854C217.655 69.854 218.167 70.03 218.543 70.374C218.911 70.726 219.095 71.174 219.095 71.726C219.095 72.278 218.887 72.742 218.479 73.102C218.063 73.47 217.543 73.654 216.927 73.654C215.879 73.654 215.007 73.158 214.647 72.286L215.287 72.014C215.519 72.55 216.119 72.974 216.927 72.974C217.847 72.974 218.359 72.446 218.359 71.75C218.359 71.006 217.759 70.526 216.807 70.526C216.295 70.526 215.879 70.686 215.567 71.006Z" fill="#2A3C3C"/>
<path d="M206.769 73.582H206.073V72.438H202.649V71.974L206.153 67.982H206.769V71.79H207.809V72.438H206.769V73.582ZM206.073 69.102L203.609 71.79H206.073V69.102ZM208.752 69.614L208.152 69.342C208.448 68.478 209.224 67.91 210.384 67.91C210.936 67.91 211.392 68.038 211.744 68.294C212.096 68.55 212.272 68.894 212.272 69.318C212.272 69.966 211.928 70.446 211.288 70.63C211.904 70.67 212.4 71.134 212.4 71.966C212.4 72.494 212.208 72.91 211.824 73.206C211.44 73.502 210.952 73.654 210.352 73.654C209.128 73.654 208.28 73.07 208 72.15L208.648 71.87C208.992 72.598 209.576 72.966 210.4 72.966C211.176 72.966 211.664 72.606 211.664 71.974C211.664 71.358 211.184 71.046 210.224 71.046H209.6V70.382H210.096C210.968 70.382 211.536 69.99 211.536 69.454C211.536 68.902 211.08 68.59 210.352 68.59C209.496 68.59 208.976 69.03 208.752 69.614ZM213.114 73.126C213.114 72.902 213.322 72.678 213.61 72.678C213.874 72.678 214.09 72.902 214.09 73.126C214.09 73.382 213.89 73.598 213.61 73.598C213.322 73.598 213.114 73.382 213.114 73.126ZM215.567 71.006L214.991 70.854L215.319 67.982H218.839V68.662H215.935L215.727 70.166C216.007 69.958 216.431 69.854 216.999 69.854C217.655 69.854 218.167 70.03 218.543 70.374C218.911 70.726 219.095 71.174 219.095 71.726C219.095 72.278 218.887 72.742 218.479 73.102C218.063 73.47 217.543 73.654 216.927 73.654C215.879 73.654 215.007 73.158 214.647 72.286L215.287 72.014C215.519 72.55 216.119 72.974 216.927 72.974C217.847 72.974 218.359 72.446 218.359 71.75C218.359 71.006 217.759 70.526 216.807 70.526C216.295 70.526 215.879 70.686 215.567 71.006Z" fill="#1A3341"/>
<circle cx="241.303" cy="83.9845" r="4.19352" fill="#6D73F9" stroke="white"/>
<path d="M236.598 73.582H235.902V72.438H232.478V71.974L235.982 67.982H236.598V71.79H237.638V72.438H236.598V73.582ZM235.902 69.102L233.438 71.79H235.902V69.102ZM238.581 69.614L237.981 69.342C238.277 68.478 239.053 67.91 240.213 67.91C240.765 67.91 241.221 68.038 241.573 68.294C241.925 68.55 242.101 68.894 242.101 69.318C242.101 69.966 241.757 70.446 241.117 70.63C241.733 70.67 242.229 71.134 242.229 71.966C242.229 72.494 242.037 72.91 241.653 73.206C241.269 73.502 240.781 73.654 240.181 73.654C238.957 73.654 238.109 73.07 237.829 72.15L238.477 71.87C238.821 72.598 239.405 72.966 240.229 72.966C241.005 72.966 241.493 72.606 241.493 71.974C241.493 71.358 241.013 71.046 240.053 71.046H239.429V70.382H239.925C240.797 70.382 241.365 69.99 241.365 69.454C241.365 68.902 240.909 68.59 240.181 68.59C239.325 68.59 238.805 69.03 238.581 69.614ZM242.942 73.126C242.942 72.902 243.15 72.678 243.438 72.678C243.702 72.678 243.918 72.902 243.918 73.126C243.918 73.382 243.718 73.598 243.438 73.598C243.15 73.598 242.942 73.382 242.942 73.126ZM248.443 73.582H247.747V72.438H244.323V71.974L247.827 67.982H248.443V71.79H249.483V72.438H248.443V73.582ZM247.747 69.102L245.283 71.79H247.747V69.102Z" fill="#2A3C3C"/>
<path d="M236.598 73.582H235.902V72.438H232.478V71.974L235.982 67.982H236.598V71.79H237.638V72.438H236.598V73.582ZM235.902 69.102L233.438 71.79H235.902V69.102ZM238.581 69.614L237.981 69.342C238.277 68.478 239.053 67.91 240.213 67.91C240.765 67.91 241.221 68.038 241.573 68.294C241.925 68.55 242.101 68.894 242.101 69.318C242.101 69.966 241.757 70.446 241.117 70.63C241.733 70.67 242.229 71.134 242.229 71.966C242.229 72.494 242.037 72.91 241.653 73.206C241.269 73.502 240.781 73.654 240.181 73.654C238.957 73.654 238.109 73.07 237.829 72.15L238.477 71.87C238.821 72.598 239.405 72.966 240.229 72.966C241.005 72.966 241.493 72.606 241.493 71.974C241.493 71.358 241.013 71.046 240.053 71.046H239.429V70.382H239.925C240.797 70.382 241.365 69.99 241.365 69.454C241.365 68.902 240.909 68.59 240.181 68.59C239.325 68.59 238.805 69.03 238.581 69.614ZM242.942 73.126C242.942 72.902 243.15 72.678 243.438 72.678C243.702 72.678 243.918 72.902 243.918 73.126C243.918 73.382 243.718 73.598 243.438 73.598C243.15 73.598 242.942 73.382 242.942 73.126ZM248.443 73.582H247.747V72.438H244.323V71.974L247.827 67.982H248.443V71.79H249.483V72.438H248.443V73.582ZM247.747 69.102L245.283 71.79H247.747V69.102Z" fill="#1A3341"/>
<circle cx="270.051" cy="85.1584" r="4.19352" fill="#6D73F9" stroke="white"/>
<path d="M265.707 74.582H265.011V73.438H261.587V72.974L265.091 68.982H265.707V72.79H266.747V73.438H265.707V74.582ZM265.011 70.102L262.547 72.79H265.011V70.102ZM267.69 70.614L267.09 70.342C267.386 69.478 268.162 68.91 269.322 68.91C269.874 68.91 270.33 69.038 270.682 69.294C271.034 69.55 271.21 69.894 271.21 70.318C271.21 70.966 270.866 71.446 270.226 71.63C270.842 71.67 271.338 72.134 271.338 72.966C271.338 73.494 271.146 73.91 270.762 74.206C270.378 74.502 269.89 74.654 269.29 74.654C268.066 74.654 267.218 74.07 266.938 73.15L267.586 72.87C267.93 73.598 268.514 73.966 269.338 73.966C270.114 73.966 270.602 73.606 270.602 72.974C270.602 72.358 270.122 72.046 269.162 72.046H268.538V71.382H269.034C269.906 71.382 270.474 70.99 270.474 70.454C270.474 69.902 270.018 69.59 269.29 69.59C268.434 69.59 267.914 70.03 267.69 70.614ZM272.051 74.126C272.051 73.902 272.259 73.678 272.547 73.678C272.811 73.678 273.027 73.902 273.027 74.126C273.027 74.382 272.827 74.598 272.547 74.598C272.259 74.598 272.051 74.382 272.051 74.126ZM273.625 70.47L273.369 69.87L275.289 68.95H275.745V74.582H275.057V69.806L273.625 70.47Z" fill="#2A3C3C"/>
<path d="M265.707 74.582H265.011V73.438H261.587V72.974L265.091 68.982H265.707V72.79H266.747V73.438H265.707V74.582ZM265.011 70.102L262.547 72.79H265.011V70.102ZM267.69 70.614L267.09 70.342C267.386 69.478 268.162 68.91 269.322 68.91C269.874 68.91 270.33 69.038 270.682 69.294C271.034 69.55 271.21 69.894 271.21 70.318C271.21 70.966 270.866 71.446 270.226 71.63C270.842 71.67 271.338 72.134 271.338 72.966C271.338 73.494 271.146 73.91 270.762 74.206C270.378 74.502 269.89 74.654 269.29 74.654C268.066 74.654 267.218 74.07 266.938 73.15L267.586 72.87C267.93 73.598 268.514 73.966 269.338 73.966C270.114 73.966 270.602 73.606 270.602 72.974C270.602 72.358 270.122 72.046 269.162 72.046H268.538V71.382H269.034C269.906 71.382 270.474 70.99 270.474 70.454C270.474 69.902 270.018 69.59 269.29 69.59C268.434 69.59 267.914 70.03 267.69 70.614ZM272.051 74.126C272.051 73.902 272.259 73.678 272.547 73.678C272.811 73.678 273.027 73.902 273.027 74.126C273.027 74.382 272.827 74.598 272.547 74.598C272.259 74.598 272.051 74.382 272.051 74.126ZM273.625 70.47L273.369 69.87L275.289 68.95H275.745V74.582H275.057V69.806L273.625 70.47Z" fill="#1A3341"/>
<circle cx="298.799" cy="74.0109" r="4.19352" fill="#6D73F9" stroke="white"/>
<path d="M293.617 63.582H292.921V62.438H289.497V61.974L293.001 57.982H293.617V61.79H294.657V62.438H293.617V63.582ZM292.921 59.102L290.457 61.79H292.921V59.102ZM298.912 63.582H298.216V62.438H294.792V61.974L298.296 57.982H298.912V61.79H299.952V62.438H298.912V63.582ZM298.216 59.102L295.752 61.79H298.216V59.102ZM300.399 63.126C300.399 62.902 300.607 62.678 300.895 62.678C301.159 62.678 301.375 62.902 301.375 63.126C301.375 63.382 301.175 63.598 300.895 63.598C300.607 63.598 300.399 63.382 300.399 63.126ZM302.677 59.83L302.093 59.622C302.293 58.63 303.045 57.918 304.237 57.918C305.389 57.918 306.093 58.582 306.093 59.598C306.093 60.134 305.861 60.67 305.573 61.054C305.429 61.254 305.245 61.446 305.029 61.646C304.589 62.038 304.277 62.246 303.821 62.534L303.205 62.918H306.301V63.582H301.941V63.038L303.157 62.23C303.373 62.094 303.525 61.99 303.613 61.926C303.701 61.87 303.845 61.766 304.037 61.63C304.229 61.494 304.373 61.374 304.469 61.286C304.557 61.198 304.677 61.086 304.813 60.942C305.181 60.542 305.317 60.174 305.357 59.67C305.357 58.942 304.885 58.614 304.189 58.614C303.757 58.614 303.413 58.734 303.165 58.974C302.917 59.214 302.749 59.502 302.677 59.83Z" fill="#2A3C3C"/>
<path d="M293.617 63.582H292.921V62.438H289.497V61.974L293.001 57.982H293.617V61.79H294.657V62.438H293.617V63.582ZM292.921 59.102L290.457 61.79H292.921V59.102ZM298.912 63.582H298.216V62.438H294.792V61.974L298.296 57.982H298.912V61.79H299.952V62.438H298.912V63.582ZM298.216 59.102L295.752 61.79H298.216V59.102ZM300.399 63.126C300.399 62.902 300.607 62.678 300.895 62.678C301.159 62.678 301.375 62.902 301.375 63.126C301.375 63.382 301.175 63.598 300.895 63.598C300.607 63.598 300.399 63.382 300.399 63.126ZM302.677 59.83L302.093 59.622C302.293 58.63 303.045 57.918 304.237 57.918C305.389 57.918 306.093 58.582 306.093 59.598C306.093 60.134 305.861 60.67 305.573 61.054C305.429 61.254 305.245 61.446 305.029 61.646C304.589 62.038 304.277 62.246 303.821 62.534L303.205 62.918H306.301V63.582H301.941V63.038L303.157 62.23C303.373 62.094 303.525 61.99 303.613 61.926C303.701 61.87 303.845 61.766 304.037 61.63C304.229 61.494 304.373 61.374 304.469 61.286C304.557 61.198 304.677 61.086 304.813 60.942C305.181 60.542 305.317 60.174 305.357 59.67C305.357 58.942 304.885 58.614 304.189 58.614C303.757 58.614 303.413 58.734 303.165 58.974C302.917 59.214 302.749 59.502 302.677 59.83Z" fill="#1A3341"/>
<circle cx="327.545" cy="71.0773" r="4.19352" fill="#6D73F9" stroke="white"/>
<path d="M322.379 60.582H321.683V59.438H318.259V58.974L321.763 54.982H322.379V58.79H323.419V59.438H322.379V60.582ZM321.683 56.102L319.219 58.79H321.683V56.102ZM327.674 60.582H326.978V59.438H323.554V58.974L327.058 54.982H327.674V58.79H328.714V59.438H327.674V60.582ZM326.978 56.102L324.514 58.79H326.978V56.102ZM329.161 60.126C329.161 59.902 329.369 59.678 329.657 59.678C329.921 59.678 330.137 59.902 330.137 60.126C330.137 60.382 329.937 60.598 329.657 60.598C329.369 60.598 329.161 60.382 329.161 60.126ZM334.662 60.582H333.966V59.438H330.542V58.974L334.046 54.982H334.662V58.79H335.702V59.438H334.662V60.582ZM333.966 56.102L331.502 58.79H333.966V56.102Z" fill="#2A3C3C"/>
<path d="M322.379 60.582H321.683V59.438H318.259V58.974L321.763 54.982H322.379V58.79H323.419V59.438H322.379V60.582ZM321.683 56.102L319.219 58.79H321.683V56.102ZM327.674 60.582H326.978V59.438H323.554V58.974L327.058 54.982H327.674V58.79H328.714V59.438H327.674V60.582ZM326.978 56.102L324.514 58.79H326.978V56.102ZM329.161 60.126C329.161 59.902 329.369 59.678 329.657 59.678C329.921 59.678 330.137 59.902 330.137 60.126C330.137 60.382 329.937 60.598 329.657 60.598C329.369 60.598 329.161 60.382 329.161 60.126ZM334.662 60.582H333.966V59.438H330.542V58.974L334.046 54.982H334.662V58.79H335.702V59.438H334.662V60.582ZM333.966 56.102L331.502 58.79H333.966V56.102Z" fill="#1A3341"/>
<defs>
<linearGradient id="paint0_linear_2355_51967" x1="168" y1="18.582" x2="168" y2="136.582" gradientUnits="userSpaceOnUse">
<stop stop-color="#6D73F9"/>
<stop offset="1" stop-color="white"/>
</linearGradient>
</defs>
</svg>
