<svg width="545" height="243" viewBox="0 0 545 243" fill="none" xmlns="http://www.w3.org/2000/svg">
<path d="M115.707 89.366C115.707 87.672 116.127 86.37 116.953 85.446C117.779 84.536 118.815 84.074 120.061 84.074C121.699 84.074 122.987 84.816 123.533 85.992L122.581 86.636C122.007 85.726 121.153 85.278 120.005 85.278C119.137 85.278 118.409 85.614 117.821 86.286C117.233 86.972 116.939 87.896 116.953 89.086C117.499 88.064 118.773 87.448 120.173 87.448C121.307 87.448 122.217 87.742 122.875 88.344C123.533 88.946 123.869 89.744 123.869 90.724C123.869 91.718 123.505 92.544 122.763 93.174C122.021 93.804 121.097 94.126 119.991 94.126C117.345 94.126 115.707 92.404 115.707 89.366ZM117.107 90.556C117.373 91.942 118.423 92.922 119.977 92.922C120.733 92.922 121.363 92.726 121.853 92.32C122.343 91.928 122.581 91.41 122.581 90.78C122.581 89.394 121.601 88.652 120.103 88.652C119.277 88.652 118.591 88.848 118.059 89.24C117.513 89.632 117.205 90.066 117.107 90.556ZM125.816 94C125.298 94.056 124.906 93.762 124.906 93.258C124.906 92.768 125.214 92.46 125.76 92.46C126.376 92.46 126.782 92.88 126.782 93.664C126.782 95.064 126.012 95.778 124.99 96.016L124.696 95.358C125.004 95.274 125.284 95.106 125.536 94.84C125.774 94.574 125.872 94.294 125.816 94ZM133.414 85.39H127.478V84.2H134.912V84.998L130.04 94H128.71L133.414 85.39ZM143.806 88.918C143.806 90.584 143.414 91.872 142.616 92.768C141.818 93.678 140.754 94.126 139.424 94.126C137.8 94.126 136.526 93.44 135.896 92.39L136.904 91.69C137.464 92.474 138.486 92.922 139.592 92.922C140.502 92.922 141.23 92.558 141.804 91.83C142.378 91.116 142.616 90.22 142.546 89.156C142.084 90.22 140.922 91.004 139.368 91.004C138.276 91.004 137.38 90.696 136.68 90.066C135.966 89.45 135.616 88.638 135.616 87.644C135.616 86.552 135.994 85.684 136.75 85.04C137.506 84.396 138.514 84.074 139.76 84.074C142.28 84.074 143.806 85.838 143.806 88.918ZM142.336 87.602C142.126 86.3 141.23 85.278 139.62 85.278C137.94 85.278 136.904 86.146 136.904 87.602C136.904 88.988 137.954 89.8 139.592 89.8C140.334 89.8 140.964 89.576 141.454 89.128C141.944 88.68 142.238 88.176 142.336 87.602ZM145.822 87.056L144.772 86.58C145.29 85.068 146.648 84.074 148.678 84.074C149.644 84.074 150.442 84.298 151.058 84.746C151.674 85.194 151.982 85.796 151.982 86.538C151.982 87.672 151.38 88.512 150.26 88.834C151.338 88.904 152.206 89.716 152.206 91.172C152.206 92.096 151.87 92.824 151.198 93.342C150.526 93.86 149.672 94.126 148.622 94.126C146.48 94.126 144.996 93.104 144.506 91.494L145.64 91.004C146.242 92.278 147.264 92.922 148.706 92.922C150.064 92.922 150.918 92.292 150.918 91.186C150.918 90.108 150.078 89.562 148.398 89.562H147.306V88.4H148.174C149.7 88.4 150.694 87.714 150.694 86.776C150.694 85.81 149.896 85.264 148.622 85.264C147.124 85.264 146.214 86.034 145.822 87.056Z" fill="#1A3341"/>
<path d="M121.863 235.372L120.987 235.06C121.287 233.572 122.415 232.504 124.203 232.504C125.931 232.504 126.987 233.5 126.987 235.024C126.987 235.828 126.639 236.632 126.207 237.208C125.991 237.508 125.715 237.796 125.391 238.096C124.731 238.684 124.263 238.996 123.579 239.428L122.655 240.004H127.299V241H120.759V240.184L122.583 238.972C122.907 238.768 123.135 238.612 123.267 238.516C123.399 238.432 123.615 238.276 123.903 238.072C124.191 237.868 124.407 237.688 124.551 237.556C124.683 237.424 124.863 237.256 125.067 237.04C125.619 236.44 125.823 235.888 125.883 235.132C125.883 234.04 125.175 233.548 124.131 233.548C123.483 233.548 122.967 233.728 122.595 234.088C122.223 234.448 121.971 234.88 121.863 235.372ZM128.131 236.8C128.131 235.504 128.431 234.46 129.043 233.68C129.643 232.9 130.531 232.504 131.695 232.504C134.083 232.504 135.271 234.076 135.271 236.8C135.271 238.108 134.971 239.14 134.383 239.92C133.783 240.7 132.895 241.096 131.719 241.096C130.591 241.096 129.715 240.7 129.079 239.908C128.443 239.116 128.131 238.084 128.131 236.8ZM129.235 236.8C129.235 238.852 130.171 240.076 131.719 240.076C133.351 240.076 134.167 238.984 134.167 236.8C134.167 234.616 133.339 233.524 131.695 233.524C130.027 233.524 129.235 234.724 129.235 236.8ZM137.127 235.372L136.251 235.06C136.551 233.572 137.679 232.504 139.467 232.504C141.195 232.504 142.251 233.5 142.251 235.024C142.251 235.828 141.903 236.632 141.471 237.208C141.255 237.508 140.979 237.796 140.655 238.096C139.995 238.684 139.527 238.996 138.843 239.428L137.919 240.004H142.563V241H136.023V240.184L137.847 238.972C138.171 238.768 138.399 238.612 138.531 238.516C138.663 238.432 138.879 238.276 139.167 238.072C139.455 237.868 139.671 237.688 139.815 237.556C139.947 237.424 140.127 237.256 140.331 237.04C140.883 236.44 141.087 235.888 141.147 235.132C141.147 234.04 140.439 233.548 139.395 233.548C138.747 233.548 138.231 233.728 137.859 234.088C137.487 234.448 137.235 234.88 137.127 235.372ZM143.299 234.832L142.915 233.932L145.795 232.552H146.479V241H145.447V233.836L143.299 234.832Z" fill="#1A3341" fill-opacity="0.6"/>
<path d="M106 106C106 104.895 106.895 104 108 104H160C161.105 104 162 104.895 162 106V226H106V106Z" fill="url(#paint0_linear_6004_39832)"/>
<path opacity="0.2" d="M118 104H150V226H118V104Z" fill="url(#paint1_linear_6004_39832)"/>
<path opacity="0.04" d="M150 104H160C161.105 104 162 104.895 162 106V226H150V104Z" fill="#0D262C"/>
<path opacity="0.5" d="M106 106C106 104.895 106.895 104 108 104H118V226H106V106Z" fill="url(#paint2_linear_6004_39832)"/>
<path d="M266.575 103.366C266.575 101.672 266.995 100.37 267.821 99.446C268.647 98.536 269.683 98.074 270.929 98.074C272.567 98.074 273.855 98.816 274.401 99.992L273.449 100.636C272.875 99.726 272.021 99.278 270.873 99.278C270.005 99.278 269.277 99.614 268.689 100.286C268.101 100.972 267.807 101.896 267.821 103.086C268.367 102.064 269.641 101.448 271.041 101.448C272.175 101.448 273.085 101.742 273.743 102.344C274.401 102.946 274.737 103.744 274.737 104.724C274.737 105.718 274.373 106.544 273.631 107.174C272.889 107.804 271.965 108.126 270.859 108.126C268.213 108.126 266.575 106.404 266.575 103.366ZM267.975 104.556C268.241 105.942 269.291 106.922 270.845 106.922C271.601 106.922 272.231 106.726 272.721 106.32C273.211 105.928 273.449 105.41 273.449 104.78C273.449 103.394 272.469 102.652 270.971 102.652C270.145 102.652 269.459 102.848 268.927 103.24C268.381 103.632 268.073 104.066 267.975 104.556ZM276.684 108C276.166 108.056 275.774 107.762 275.774 107.258C275.774 106.768 276.082 106.46 276.628 106.46C277.244 106.46 277.65 106.88 277.65 107.664C277.65 109.064 276.88 109.778 275.858 110.016L275.564 109.358C275.872 109.274 276.152 109.106 276.404 108.84C276.642 108.574 276.74 108.294 276.684 108ZM285.43 108H284.212V105.998H278.22V105.186L284.352 98.2H285.43V104.864H287.25V105.998H285.43V108ZM284.212 100.16L279.9 104.864H284.212V100.16ZM287.935 103.366C287.935 101.672 288.355 100.37 289.181 99.446C290.007 98.536 291.043 98.074 292.289 98.074C293.927 98.074 295.215 98.816 295.761 99.992L294.809 100.636C294.235 99.726 293.381 99.278 292.233 99.278C291.365 99.278 290.637 99.614 290.049 100.286C289.461 100.972 289.167 101.896 289.181 103.086C289.727 102.064 291.001 101.448 292.401 101.448C293.535 101.448 294.445 101.742 295.103 102.344C295.761 102.946 296.097 103.744 296.097 104.724C296.097 105.718 295.733 106.544 294.991 107.174C294.249 107.804 293.325 108.126 292.219 108.126C289.573 108.126 287.935 106.404 287.935 103.366ZM289.335 104.556C289.601 105.942 290.651 106.922 292.205 106.922C292.961 106.922 293.591 106.726 294.081 106.32C294.571 105.928 294.809 105.41 294.809 104.78C294.809 103.394 293.829 102.652 292.331 102.652C291.505 102.652 290.819 102.848 290.287 103.24C289.741 103.632 289.433 104.066 289.335 104.556ZM296.993 100.804L296.545 99.754L299.905 98.144H300.703V108H299.499V99.642L296.993 100.804Z" fill="#1A3341"/>
<path d="M270.556 236.372L269.68 236.06C269.98 234.572 271.108 233.504 272.896 233.504C274.624 233.504 275.68 234.5 275.68 236.024C275.68 236.828 275.332 237.632 274.9 238.208C274.684 238.508 274.408 238.796 274.084 239.096C273.424 239.684 272.956 239.996 272.272 240.428L271.348 241.004H275.992V242H269.452V241.184L271.276 239.972C271.6 239.768 271.828 239.612 271.96 239.516C272.092 239.432 272.308 239.276 272.596 239.072C272.884 238.868 273.1 238.688 273.244 238.556C273.376 238.424 273.556 238.256 273.76 238.04C274.312 237.44 274.516 236.888 274.576 236.132C274.576 235.04 273.868 234.548 272.824 234.548C272.176 234.548 271.66 234.728 271.288 235.088C270.916 235.448 270.664 235.88 270.556 236.372ZM276.824 237.8C276.824 236.504 277.124 235.46 277.736 234.68C278.336 233.9 279.224 233.504 280.388 233.504C282.776 233.504 283.964 235.076 283.964 237.8C283.964 239.108 283.664 240.14 283.076 240.92C282.476 241.7 281.588 242.096 280.412 242.096C279.284 242.096 278.408 241.7 277.772 240.908C277.136 240.116 276.824 239.084 276.824 237.8ZM277.928 237.8C277.928 239.852 278.864 241.076 280.412 241.076C282.044 241.076 282.86 239.984 282.86 237.8C282.86 235.616 282.032 234.524 280.388 234.524C278.72 234.524 277.928 235.724 277.928 237.8ZM285.82 236.372L284.944 236.06C285.244 234.572 286.372 233.504 288.16 233.504C289.888 233.504 290.944 234.5 290.944 236.024C290.944 236.828 290.596 237.632 290.164 238.208C289.948 238.508 289.672 238.796 289.348 239.096C288.688 239.684 288.22 239.996 287.536 240.428L286.612 241.004H291.256V242H284.716V241.184L286.54 239.972C286.864 239.768 287.092 239.612 287.224 239.516C287.356 239.432 287.572 239.276 287.86 239.072C288.148 238.868 288.364 238.688 288.508 238.556C288.64 238.424 288.82 238.256 289.024 238.04C289.576 237.44 289.78 236.888 289.84 236.132C289.84 235.04 289.132 234.548 288.088 234.548C287.44 234.548 286.924 234.728 286.552 235.088C286.18 235.448 285.928 235.88 285.82 236.372ZM293.048 236.372L292.172 236.06C292.472 234.572 293.6 233.504 295.388 233.504C297.116 233.504 298.172 234.5 298.172 236.024C298.172 236.828 297.824 237.632 297.392 238.208C297.176 238.508 296.9 238.796 296.576 239.096C295.916 239.684 295.448 239.996 294.764 240.428L293.84 241.004H298.484V242H291.944V241.184L293.768 239.972C294.092 239.768 294.32 239.612 294.452 239.516C294.584 239.432 294.8 239.276 295.088 239.072C295.376 238.868 295.592 238.688 295.736 238.556C295.868 238.424 296.048 238.256 296.252 238.04C296.804 237.44 297.008 236.888 297.068 236.132C297.068 235.04 296.36 234.548 295.316 234.548C294.668 234.548 294.152 234.728 293.78 235.088C293.408 235.448 293.156 235.88 293.048 236.372Z" fill="#1A3341" fill-opacity="0.6"/>
<path d="M256 120C256 118.895 256.895 118 258 118H310C311.105 118 312 118.895 312 120V227H256V120Z" fill="url(#paint3_linear_6004_39832)"/>
<path opacity="0.2" d="M268 118H300V227H268V118Z" fill="url(#paint4_linear_6004_39832)"/>
<path opacity="0.04" d="M300 118H310C311.105 118 312 118.895 312 120V227H300V118Z" fill="#0D262C"/>
<path opacity="0.5" d="M256 120C256 118.895 256.895 118 258 118H268V227H256V120Z" fill="url(#paint5_linear_6004_39832)"/>
<path d="M414.832 109.366C414.832 107.672 415.252 106.37 416.078 105.446C416.904 104.536 417.94 104.074 419.186 104.074C420.824 104.074 422.112 104.816 422.658 105.992L421.706 106.636C421.132 105.726 420.278 105.278 419.13 105.278C418.262 105.278 417.534 105.614 416.946 106.286C416.358 106.972 416.064 107.896 416.078 109.086C416.624 108.064 417.898 107.448 419.298 107.448C420.432 107.448 421.342 107.742 422 108.344C422.658 108.946 422.994 109.744 422.994 110.724C422.994 111.718 422.63 112.544 421.888 113.174C421.146 113.804 420.222 114.126 419.116 114.126C416.47 114.126 414.832 112.404 414.832 109.366ZM416.232 110.556C416.498 111.942 417.548 112.922 419.102 112.922C419.858 112.922 420.488 112.726 420.978 112.32C421.468 111.928 421.706 111.41 421.706 110.78C421.706 109.394 420.726 108.652 419.228 108.652C418.402 108.652 417.716 108.848 417.184 109.24C416.638 109.632 416.33 110.066 416.232 110.556ZM424.941 114C424.423 114.056 424.031 113.762 424.031 113.258C424.031 112.768 424.339 112.46 424.885 112.46C425.501 112.46 425.907 112.88 425.907 113.664C425.907 115.064 425.137 115.778 424.115 116.016L423.821 115.358C424.129 115.274 424.409 115.106 424.661 114.84C424.899 114.574 424.997 114.294 424.941 114ZM433.687 114H432.469V111.998H426.477V111.186L432.609 104.2H433.687V110.864H435.507V111.998H433.687V114ZM432.469 106.16L428.157 110.864H432.469V106.16ZM437.619 109.492L436.611 109.226L437.185 104.2H443.345V105.39H438.263L437.899 108.022C438.389 107.658 439.131 107.476 440.125 107.476C441.273 107.476 442.169 107.784 442.827 108.386C443.471 109.002 443.793 109.786 443.793 110.752C443.793 111.718 443.429 112.53 442.715 113.16C441.987 113.804 441.077 114.126 439.999 114.126C438.165 114.126 436.639 113.258 436.009 111.732L437.129 111.256C437.535 112.194 438.585 112.936 439.999 112.936C441.609 112.936 442.505 112.012 442.505 110.794C442.505 109.492 441.455 108.652 439.789 108.652C438.893 108.652 438.165 108.932 437.619 109.492ZM444.856 109.1C444.856 107.588 445.206 106.37 445.92 105.46C446.62 104.55 447.656 104.088 449.014 104.088C451.8 104.088 453.186 105.922 453.186 109.1C453.186 110.626 452.836 111.83 452.15 112.74C451.45 113.65 450.414 114.112 449.042 114.112C447.726 114.112 446.704 113.65 445.962 112.726C445.22 111.802 444.856 110.598 444.856 109.1ZM446.144 109.1C446.144 111.494 447.236 112.922 449.042 112.922C450.946 112.922 451.898 111.648 451.898 109.1C451.898 106.552 450.932 105.278 449.014 105.278C447.068 105.278 446.144 106.678 446.144 109.1Z" fill="#1A3341"/>
<path d="M420.527 236.372L419.651 236.06C419.951 234.572 421.079 233.504 422.867 233.504C424.595 233.504 425.651 234.5 425.651 236.024C425.651 236.828 425.303 237.632 424.871 238.208C424.655 238.508 424.379 238.796 424.055 239.096C423.395 239.684 422.927 239.996 422.243 240.428L421.319 241.004H425.963V242H419.423V241.184L421.247 239.972C421.571 239.768 421.799 239.612 421.931 239.516C422.063 239.432 422.279 239.276 422.567 239.072C422.855 238.868 423.071 238.688 423.215 238.556C423.347 238.424 423.527 238.256 423.731 238.04C424.283 237.44 424.487 236.888 424.547 236.132C424.547 235.04 423.839 234.548 422.795 234.548C422.147 234.548 421.631 234.728 421.259 235.088C420.887 235.448 420.635 235.88 420.527 236.372ZM426.795 237.8C426.795 236.504 427.095 235.46 427.707 234.68C428.307 233.9 429.195 233.504 430.359 233.504C432.747 233.504 433.935 235.076 433.935 237.8C433.935 239.108 433.635 240.14 433.047 240.92C432.447 241.7 431.559 242.096 430.383 242.096C429.255 242.096 428.379 241.7 427.743 240.908C427.107 240.116 426.795 239.084 426.795 237.8ZM427.899 237.8C427.899 239.852 428.835 241.076 430.383 241.076C432.015 241.076 432.831 239.984 432.831 237.8C432.831 235.616 432.003 234.524 430.359 234.524C428.691 234.524 427.899 235.724 427.899 237.8ZM435.791 236.372L434.915 236.06C435.215 234.572 436.343 233.504 438.131 233.504C439.859 233.504 440.915 234.5 440.915 236.024C440.915 236.828 440.567 237.632 440.135 238.208C439.919 238.508 439.643 238.796 439.319 239.096C438.659 239.684 438.191 239.996 437.507 240.428L436.583 241.004H441.227V242H434.687V241.184L436.511 239.972C436.835 239.768 437.063 239.612 437.195 239.516C437.327 239.432 437.543 239.276 437.831 239.072C438.119 238.868 438.335 238.688 438.479 238.556C438.611 238.424 438.791 238.256 438.995 238.04C439.547 237.44 439.751 236.888 439.811 236.132C439.811 235.04 439.103 234.548 438.059 234.548C437.411 234.548 436.895 234.728 436.523 235.088C436.151 235.448 435.899 235.88 435.791 236.372ZM442.887 236.048L441.987 235.64C442.431 234.344 443.595 233.492 445.335 233.492C446.163 233.492 446.847 233.684 447.375 234.068C447.903 234.452 448.167 234.968 448.167 235.604C448.167 236.576 447.651 237.296 446.691 237.572C447.615 237.632 448.359 238.328 448.359 239.576C448.359 240.368 448.071 240.992 447.495 241.436C446.919 241.88 446.187 242.108 445.287 242.108C443.451 242.108 442.179 241.232 441.759 239.852L442.731 239.432C443.247 240.524 444.123 241.076 445.359 241.076C446.523 241.076 447.255 240.536 447.255 239.588C447.255 238.664 446.535 238.196 445.095 238.196H444.159V237.2H444.903C446.211 237.2 447.063 236.612 447.063 235.808C447.063 234.98 446.379 234.512 445.287 234.512C444.003 234.512 443.223 235.172 442.887 236.048Z" fill="#1A3341" fill-opacity="0.6"/>
<path d="M406 126C406 124.895 406.895 124 408 124H460C461.105 124 462 124.895 462 126V227H406V126Z" fill="url(#paint6_linear_6004_39832)"/>
<path opacity="0.2" d="M418 124H450V227H418V124Z" fill="url(#paint7_linear_6004_39832)"/>
<path opacity="0.04" d="M450 124H460C461.105 124 462 124.895 462 126V227H450V124Z" fill="#0D262C"/>
<path opacity="0.5" d="M406 126C406 124.895 406.895 124 408 124H418V227H406V126Z" fill="url(#paint8_linear_6004_39832)"/>
<path d="M234.927 166.354C235.122 166.158 235.122 165.842 234.927 165.646L231.745 162.464C231.55 162.269 231.233 162.269 231.038 162.464C230.843 162.66 230.843 162.976 231.038 163.172L233.867 166L231.038 168.828C230.843 169.024 230.843 169.34 231.038 169.536C231.233 169.731 231.55 169.731 231.745 169.536L234.927 166.354ZM183.18 166.5L234.574 166.5L234.574 165.5L183.18 165.5L183.18 166.5Z" fill="#7DA4C1"/>
<path d="M200.906 153.136H195.338V152.236H200.906V153.136ZM203.32 153.136L202.456 152.908L202.948 148.6H208.228V149.62H203.872L203.56 151.876C203.98 151.564 204.616 151.408 205.468 151.408C206.452 151.408 207.22 151.672 207.784 152.188C208.336 152.716 208.612 153.388 208.612 154.216C208.612 155.044 208.3 155.74 207.688 156.28C207.064 156.832 206.284 157.108 205.36 157.108C203.788 157.108 202.48 156.364 201.94 155.056L202.9 154.648C203.248 155.452 204.148 156.088 205.36 156.088C206.74 156.088 207.508 155.296 207.508 154.252C207.508 153.136 206.608 152.416 205.18 152.416C204.412 152.416 203.788 152.656 203.32 153.136ZM211.379 157.18L210.587 156.724L216.791 148.336L217.547 148.888L211.379 157.18ZM209.291 150.616C209.291 150.016 209.495 149.524 209.915 149.14C210.335 148.756 210.851 148.564 211.487 148.564C212.111 148.564 212.627 148.756 213.047 149.14C213.467 149.524 213.671 150.016 213.671 150.616C213.671 151.204 213.467 151.696 213.047 152.08C212.627 152.464 212.111 152.656 211.487 152.656C210.851 152.656 210.335 152.464 209.915 152.08C209.495 151.696 209.291 151.204 209.291 150.616ZM210.299 150.616C210.299 151.3 210.851 151.804 211.487 151.804C212.147 151.804 212.663 151.324 212.663 150.616C212.663 149.908 212.123 149.428 211.487 149.428C210.827 149.428 210.299 149.908 210.299 150.616ZM215.063 156.472C214.643 156.088 214.439 155.596 214.439 154.996C214.439 154.396 214.643 153.904 215.063 153.52C215.483 153.148 215.999 152.956 216.635 152.956C217.259 152.956 217.775 153.148 218.195 153.52C218.615 153.904 218.819 154.396 218.819 154.996C218.819 155.584 218.615 156.076 218.195 156.46C217.775 156.856 217.259 157.048 216.635 157.048C215.999 157.048 215.483 156.856 215.063 156.472ZM215.447 154.996C215.447 155.68 215.999 156.184 216.635 156.184C217.295 156.184 217.811 155.704 217.811 154.996C217.811 154.288 217.271 153.808 216.635 153.808C215.975 153.808 215.447 154.288 215.447 154.996Z" fill="#7DA4C1"/>
<path d="M384.927 166.354C385.122 166.158 385.122 165.842 384.927 165.646L381.745 162.464C381.55 162.269 381.233 162.269 381.038 162.464C380.843 162.66 380.843 162.976 381.038 163.172L383.867 166L381.038 168.828C380.843 169.024 380.843 169.34 381.038 169.536C381.233 169.731 381.55 169.731 381.745 169.536L384.927 166.354ZM333.18 166.5L384.574 166.5L384.574 165.5L333.18 165.5L333.18 166.5Z" fill="#7DA4C1"/>
<path d="M345.978 153.136H340.41V152.236H345.978V153.136ZM347.036 152.8C347.036 151.504 347.312 150.46 347.852 149.68C348.392 148.9 349.184 148.504 350.24 148.504C352.388 148.504 353.456 150.076 353.456 152.8C353.456 154.108 353.192 155.14 352.652 155.92C352.112 156.7 351.32 157.096 350.264 157.096C349.244 157.096 348.452 156.7 347.888 155.908C347.324 155.116 347.036 154.084 347.036 152.8ZM348.14 152.8C348.14 154.828 348.932 156.076 350.264 156.076C351.656 156.076 352.352 154.984 352.352 152.8C352.352 150.616 351.644 149.524 350.24 149.524C348.836 149.524 348.14 150.616 348.14 152.8ZM354.448 156.316C354.448 155.98 354.76 155.644 355.192 155.644C355.588 155.644 355.912 155.98 355.912 156.316C355.912 156.7 355.612 157.024 355.192 157.024C354.76 157.024 354.448 156.7 354.448 156.316ZM357.984 151.372L357.108 151.06C357.408 149.56 358.488 148.504 360.264 148.504C361.992 148.504 362.988 149.5 362.988 151.024C362.952 152.284 362.364 153.28 361.476 154.084C360.852 154.672 360.36 155.008 359.7 155.428L358.776 156.004H363.3V157H357V156.184L358.704 154.972C359.7 154.264 360.348 153.772 360.648 153.496C361.476 152.74 361.884 151.948 361.884 151.132C361.884 150.028 361.212 149.548 360.192 149.548C358.896 149.548 358.224 150.364 357.984 151.372ZM366.307 157.18L365.515 156.724L371.719 148.336L372.475 148.888L366.307 157.18ZM364.219 150.616C364.219 150.016 364.423 149.524 364.843 149.14C365.263 148.756 365.779 148.564 366.415 148.564C367.039 148.564 367.555 148.756 367.975 149.14C368.395 149.524 368.599 150.016 368.599 150.616C368.599 151.204 368.395 151.696 367.975 152.08C367.555 152.464 367.039 152.656 366.415 152.656C365.779 152.656 365.263 152.464 364.843 152.08C364.423 151.696 364.219 151.204 364.219 150.616ZM365.227 150.616C365.227 151.3 365.779 151.804 366.415 151.804C367.075 151.804 367.591 151.324 367.591 150.616C367.591 149.908 367.051 149.428 366.415 149.428C365.755 149.428 365.227 149.908 365.227 150.616ZM369.991 156.472C369.571 156.088 369.367 155.596 369.367 154.996C369.367 154.396 369.571 153.904 369.991 153.52C370.411 153.148 370.927 152.956 371.563 152.956C372.187 152.956 372.703 153.148 373.123 153.52C373.543 153.904 373.747 154.396 373.747 154.996C373.747 155.584 373.543 156.076 373.123 156.46C372.703 156.856 372.187 157.048 371.563 157.048C370.927 157.048 370.411 156.856 369.991 156.472ZM370.375 154.996C370.375 155.68 370.927 156.184 371.563 156.184C372.223 156.184 372.739 155.704 372.739 154.996C372.739 154.288 372.199 153.808 371.563 153.808C370.903 153.808 370.375 154.288 370.375 154.996Z" fill="#7DA4C1"/>
<line y1="226.5" x2="545" y2="226.5" stroke="#ABBEC9"/>
<path d="M131.273 41L284.273 23H436.273" stroke="url(#paint9_linear_6004_39832)" stroke-width="5"/>
<circle cx="436" cy="23" r="7" fill="#64BBEA" stroke="white" stroke-width="2"/>
<circle cx="284" cy="23" r="7" fill="#64BBEA" stroke="white" stroke-width="2"/>
<circle cx="132" cy="40" r="7" fill="#64BBEA" stroke="white" stroke-width="2"/>
<path d="M122.728 28H118.218V27.17H120.348V22.03L118.558 22.86L118.238 22.11L120.638 20.96H121.208V27.17H122.728V28ZM123.814 24.5C123.814 23.42 124.044 22.55 124.494 21.9C124.944 21.25 125.604 20.92 126.484 20.92C128.274 20.92 129.164 22.23 129.164 24.5C129.164 25.59 128.944 26.45 128.494 27.1C128.044 27.75 127.384 28.08 126.504 28.08C125.654 28.08 124.994 27.75 124.524 27.09C124.054 26.43 123.814 25.57 123.814 24.5ZM124.734 24.5C124.734 26.19 125.394 27.23 126.504 27.23C127.664 27.23 128.244 26.32 128.244 24.5C128.244 22.68 127.654 21.77 126.484 21.77C125.314 21.77 124.734 22.68 124.734 24.5ZM129.99 27.43C129.99 27.15 130.25 26.87 130.61 26.87C130.94 26.87 131.21 27.15 131.21 27.43C131.21 27.75 130.96 28.02 130.61 28.02C130.25 28.02 129.99 27.75 129.99 27.43ZM133.157 24.78L132.437 24.59L132.847 21H137.247V21.85H133.617L133.357 23.73C133.707 23.47 134.237 23.34 134.947 23.34C135.767 23.34 136.407 23.56 136.877 23.99C137.337 24.43 137.567 24.99 137.567 25.68C137.567 26.37 137.307 26.95 136.797 27.4C136.277 27.86 135.627 28.09 134.857 28.09C133.547 28.09 132.457 27.47 132.007 26.38L132.807 26.04C133.097 26.71 133.847 27.24 134.857 27.24C136.007 27.24 136.647 26.58 136.647 25.71C136.647 24.78 135.897 24.18 134.707 24.18C134.067 24.18 133.547 24.38 133.157 24.78ZM139.873 28.15L139.213 27.77L144.383 20.78L145.013 21.24L139.873 28.15ZM138.133 22.68C138.133 22.18 138.303 21.77 138.653 21.45C139.003 21.13 139.433 20.97 139.963 20.97C140.483 20.97 140.913 21.13 141.263 21.45C141.613 21.77 141.783 22.18 141.783 22.68C141.783 23.17 141.613 23.58 141.263 23.9C140.913 24.22 140.483 24.38 139.963 24.38C139.433 24.38 139.003 24.22 138.653 23.9C138.303 23.58 138.133 23.17 138.133 22.68ZM138.973 22.68C138.973 23.25 139.433 23.67 139.963 23.67C140.513 23.67 140.943 23.27 140.943 22.68C140.943 22.09 140.493 21.69 139.963 21.69C139.413 21.69 138.973 22.09 138.973 22.68ZM142.943 27.56C142.593 27.24 142.423 26.83 142.423 26.33C142.423 25.83 142.593 25.42 142.943 25.1C143.293 24.79 143.723 24.63 144.253 24.63C144.773 24.63 145.203 24.79 145.553 25.1C145.903 25.42 146.073 25.83 146.073 26.33C146.073 26.82 145.903 27.23 145.553 27.55C145.203 27.88 144.773 28.04 144.253 28.04C143.723 28.04 143.293 27.88 142.943 27.56ZM143.263 26.33C143.263 26.9 143.723 27.32 144.253 27.32C144.803 27.32 145.233 26.92 145.233 26.33C145.233 25.74 144.783 25.34 144.253 25.34C143.703 25.34 143.263 25.74 143.263 26.33Z" fill="#357D94"/>
<path d="M274.728 12H270.218V11.17H272.348V6.03L270.558 6.86L270.238 6.11L272.638 4.96H273.208V11.17H274.728V12ZM280.724 12H276.214V11.17H278.344V6.03L276.554 6.86L276.234 6.11L278.634 4.96H279.204V11.17H280.724V12ZM281.99 11.43C281.99 11.15 282.25 10.87 282.61 10.87C282.94 10.87 283.21 11.15 283.21 11.43C283.21 11.75 282.96 12.02 282.61 12.02C282.25 12.02 281.99 11.75 281.99 11.43ZM284.087 8.69C284.087 7.48 284.357 6.54 284.897 5.89C285.437 5.24 286.137 4.91 286.997 4.91C288.097 4.91 288.857 5.37 289.277 6.28L288.597 6.74C288.187 6.09 287.757 5.77 286.957 5.77C285.747 5.77 284.967 6.76 284.977 8.49C285.397 7.71 286.097 7.32 287.077 7.32C288.677 7.32 289.517 8.22 289.517 9.66C289.517 10.38 289.277 10.96 288.797 11.41C288.307 11.86 287.697 12.09 286.947 12.09C285.187 12.09 284.087 10.85 284.087 8.69ZM285.087 9.54C285.307 10.67 285.927 11.23 286.937 11.23C287.987 11.23 288.597 10.63 288.597 9.7C288.597 8.69 288.077 8.18 287.027 8.18C285.867 8.18 285.237 8.81 285.087 9.54ZM291.873 12.15L291.213 11.77L296.383 4.78L297.013 5.24L291.873 12.15ZM290.133 6.68C290.133 6.18 290.303 5.77 290.653 5.45C291.003 5.13 291.433 4.97 291.963 4.97C292.483 4.97 292.913 5.13 293.263 5.45C293.613 5.77 293.783 6.18 293.783 6.68C293.783 7.17 293.613 7.58 293.263 7.9C292.913 8.22 292.483 8.38 291.963 8.38C291.433 8.38 291.003 8.22 290.653 7.9C290.303 7.58 290.133 7.17 290.133 6.68ZM290.973 6.68C290.973 7.25 291.433 7.67 291.963 7.67C292.513 7.67 292.943 7.27 292.943 6.68C292.943 6.09 292.493 5.69 291.963 5.69C291.413 5.69 290.973 6.09 290.973 6.68ZM294.943 11.56C294.593 11.24 294.423 10.83 294.423 10.33C294.423 9.83 294.593 9.42 294.943 9.1C295.293 8.79 295.723 8.63 296.253 8.63C296.773 8.63 297.203 8.79 297.553 9.1C297.903 9.42 298.073 9.83 298.073 10.33C298.073 10.82 297.903 11.23 297.553 11.55C297.203 11.88 296.773 12.04 296.253 12.04C295.723 12.04 295.293 11.88 294.943 11.56ZM295.263 10.33C295.263 10.9 295.723 11.32 296.253 11.32C296.803 11.32 297.233 10.92 297.233 10.33C297.233 9.74 296.783 9.34 296.253 9.34C295.703 9.34 295.263 9.74 295.263 10.33Z" fill="#357D94"/>
<path d="M428.728 10H424.218V9.17H426.348V4.03L424.558 4.86L424.238 4.11L426.638 2.96H427.208V9.17H428.728V10ZM434.724 10H430.214V9.17H432.344V4.03L430.554 4.86L430.234 4.11L432.634 2.96H433.204V9.17H434.724V10ZM435.99 9.43C435.99 9.15 436.25 8.87 436.61 8.87C436.94 8.87 437.21 9.15 437.21 9.43C437.21 9.75 436.96 10.02 436.61 10.02C436.25 10.02 435.99 9.75 435.99 9.43ZM438.087 6.69C438.087 5.48 438.357 4.54 438.897 3.89C439.437 3.24 440.137 2.91 440.997 2.91C442.097 2.91 442.857 3.37 443.277 4.28L442.597 4.74C442.187 4.09 441.757 3.77 440.957 3.77C439.747 3.77 438.967 4.76 438.977 6.49C439.397 5.71 440.097 5.32 441.077 5.32C442.677 5.32 443.517 6.22 443.517 7.66C443.517 8.38 443.277 8.96 442.797 9.41C442.307 9.86 441.697 10.09 440.947 10.09C439.187 10.09 438.087 8.85 438.087 6.69ZM439.087 7.54C439.307 8.67 439.927 9.23 440.937 9.23C441.987 9.23 442.597 8.63 442.597 7.7C442.597 6.69 442.077 6.18 441.027 6.18C439.867 6.18 439.237 6.81 439.087 7.54ZM445.873 10.15L445.213 9.77L450.383 2.78L451.013 3.24L445.873 10.15ZM444.133 4.68C444.133 4.18 444.303 3.77 444.653 3.45C445.003 3.13 445.433 2.97 445.963 2.97C446.483 2.97 446.913 3.13 447.263 3.45C447.613 3.77 447.783 4.18 447.783 4.68C447.783 5.17 447.613 5.58 447.263 5.9C446.913 6.22 446.483 6.38 445.963 6.38C445.433 6.38 445.003 6.22 444.653 5.9C444.303 5.58 444.133 5.17 444.133 4.68ZM444.973 4.68C444.973 5.25 445.433 5.67 445.963 5.67C446.513 5.67 446.943 5.27 446.943 4.68C446.943 4.09 446.493 3.69 445.963 3.69C445.413 3.69 444.973 4.09 444.973 4.68ZM448.943 9.56C448.593 9.24 448.423 8.83 448.423 8.33C448.423 7.83 448.593 7.42 448.943 7.1C449.293 6.79 449.723 6.63 450.253 6.63C450.773 6.63 451.203 6.79 451.553 7.1C451.903 7.42 452.073 7.83 452.073 8.33C452.073 8.82 451.903 9.23 451.553 9.55C451.203 9.88 450.773 10.04 450.253 10.04C449.723 10.04 449.293 9.88 448.943 9.56ZM449.263 8.33C449.263 8.9 449.723 9.32 450.253 9.32C450.803 9.32 451.233 8.92 451.233 8.33C451.233 7.74 450.783 7.34 450.253 7.34C449.703 7.34 449.263 7.74 449.263 8.33Z" fill="#357D94"/>
<defs>
<linearGradient id="paint0_linear_6004_39832" x1="134" y1="104" x2="134" y2="226" gradientUnits="userSpaceOnUse">
<stop stop-color="#45B8DB"/>
<stop offset="1" stop-color="#ADE4E4"/>
</linearGradient>
<linearGradient id="paint1_linear_6004_39832" x1="134" y1="104" x2="134" y2="226" gradientUnits="userSpaceOnUse">
<stop stop-color="white" stop-opacity="0"/>
<stop offset="0.739583" stop-color="white"/>
</linearGradient>
<linearGradient id="paint2_linear_6004_39832" x1="112" y1="-133.9" x2="112" y2="226" gradientUnits="userSpaceOnUse">
<stop stop-color="white" stop-opacity="0.05"/>
<stop offset="0.75" stop-color="white" stop-opacity="0.8"/>
</linearGradient>
<linearGradient id="paint3_linear_6004_39832" x1="284" y1="118" x2="284" y2="227" gradientUnits="userSpaceOnUse">
<stop stop-color="#45B8DB"/>
<stop offset="1" stop-color="#ADE4E4"/>
</linearGradient>
<linearGradient id="paint4_linear_6004_39832" x1="284" y1="118" x2="284" y2="227" gradientUnits="userSpaceOnUse">
<stop stop-color="white" stop-opacity="0"/>
<stop offset="0.739583" stop-color="white"/>
</linearGradient>
<linearGradient id="paint5_linear_6004_39832" x1="262" y1="-94.55" x2="262" y2="227" gradientUnits="userSpaceOnUse">
<stop stop-color="white" stop-opacity="0.05"/>
<stop offset="0.75" stop-color="white" stop-opacity="0.8"/>
</linearGradient>
<linearGradient id="paint6_linear_6004_39832" x1="434" y1="124" x2="434" y2="227" gradientUnits="userSpaceOnUse">
<stop stop-color="#45B8DB"/>
<stop offset="1" stop-color="#ADE4E4"/>
</linearGradient>
<linearGradient id="paint7_linear_6004_39832" x1="434" y1="124" x2="434" y2="227" gradientUnits="userSpaceOnUse">
<stop stop-color="white" stop-opacity="0"/>
<stop offset="0.739583" stop-color="white"/>
</linearGradient>
<linearGradient id="paint8_linear_6004_39832" x1="412" y1="-76.85" x2="412" y2="227" gradientUnits="userSpaceOnUse">
<stop stop-color="white" stop-opacity="0.05"/>
<stop offset="0.75" stop-color="white" stop-opacity="0.8"/>
</linearGradient>
<linearGradient id="paint9_linear_6004_39832" x1="436.273" y1="23" x2="131.273" y2="23" gradientUnits="userSpaceOnUse">
<stop stop-color="#56BCF6"/>
<stop offset="1" stop-color="#A2DEE7"/>
</linearGradient>
</defs>
</svg>
