<svg width="351" height="119" viewBox="0 0 351 119" fill="none" xmlns="http://www.w3.org/2000/svg">
<rect x="1" y="105" width="10" height="10" fill="url(#paint0_linear_6007_29494)"/>
<path d="M25.96 114H19.888V105.6H20.98V112.98H25.96V114ZM31.0923 112.212L31.7403 112.812C31.1643 113.676 30.3363 114.108 29.2443 114.108C28.2483 114.108 27.4443 113.808 26.8323 113.22C26.2203 112.632 25.9203 111.852 25.9203 110.868C25.9203 109.92 26.1963 109.14 26.7603 108.528C27.3123 107.916 28.0923 107.616 29.1003 107.616C29.9283 107.616 30.6243 107.88 31.1643 108.396C31.7043 108.912 31.9803 109.596 31.9803 110.448C31.9803 110.724 31.9563 110.976 31.9203 111.204H27.0003C27.0603 112.44 27.9723 113.16 29.2803 113.16C30.0123 113.16 30.7083 112.776 31.0923 112.212ZM29.0283 108.54C27.8883 108.54 27.1443 109.236 26.9883 110.292H30.9123C30.8523 109.188 30.1443 108.54 29.0283 108.54ZM33.4603 109.26L32.9443 108.504C33.5203 107.964 34.5163 107.616 35.4403 107.616C37.1083 107.616 37.9963 108.528 37.9963 110.148V114H36.9883V113.076C36.5923 113.652 35.8123 114.084 34.8043 114.084C33.4483 114.084 32.5363 113.328 32.5363 112.176C32.5363 110.868 33.6523 110.244 35.5243 110.244C36.1123 110.244 36.5923 110.304 36.9883 110.424C36.9883 109.212 36.5563 108.564 35.3203 108.564C34.6963 108.564 34.0723 108.792 33.4603 109.26ZM35.0443 113.172C35.5123 113.172 35.9323 113.04 36.2803 112.788C36.6283 112.536 36.8563 112.248 36.9883 111.948V111.312C36.6403 111.192 36.1963 111.132 35.6563 111.132C34.2883 111.132 33.6043 111.468 33.6043 112.14C33.6043 112.776 34.1803 113.172 35.0443 113.172ZM43.0984 112.296C43.0984 111.456 41.6704 111.324 40.5304 111C39.7504 110.772 39.1264 110.256 39.1264 109.404C39.1264 108.3 40.1704 107.616 41.7184 107.616C42.7624 107.616 43.6024 108.06 44.0464 108.696L43.3384 109.356C42.9424 108.828 42.3424 108.564 41.5384 108.564C40.8184 108.564 40.1944 108.84 40.1944 109.356C40.1944 110.088 41.6224 110.22 42.7624 110.568C43.5304 110.808 44.1544 111.384 44.1544 112.284C44.1544 113.496 43.1824 114.108 41.6584 114.108C40.3744 114.108 39.2824 113.532 38.8384 112.632L39.6424 112.068C40.0144 112.728 40.8664 113.16 41.8264 113.16C42.6784 113.16 43.0984 112.872 43.0984 112.296ZM46.2553 114H45.2473V107.76H46.2553V114ZM45.1153 105.732C45.1153 105.396 45.3913 105.144 45.7633 105.144C46.0993 105.144 46.3873 105.396 46.3873 105.732C46.3873 106.08 46.0993 106.356 45.7633 106.356C45.3913 106.356 45.1153 106.08 45.1153 105.732ZM48.7337 114H47.7257V107.76H48.7337V108.576C49.1297 107.964 49.9457 107.628 50.8697 107.628C52.5617 107.628 53.4018 108.564 53.4018 110.448V114H52.3937V110.568C52.3937 109.188 51.8057 108.576 50.5697 108.576C49.8017 108.576 49.0697 109.08 48.7337 109.836V114ZM59.3162 107.76H60.3362V113.52C60.3362 115.536 59.2322 116.508 57.5402 116.508C56.1842 116.508 55.1042 115.92 54.7562 114.996L55.6562 114.6C55.9322 115.14 56.5562 115.548 57.4802 115.548C58.6802 115.548 59.3162 114.864 59.3162 113.7V113.328C58.8482 113.868 58.4042 114.108 57.4322 114.108C56.4842 114.108 55.7402 113.82 55.1762 113.232C54.6122 112.656 54.3242 111.864 54.3242 110.868C54.3242 109.884 54.6242 109.092 55.2242 108.504C55.8122 107.916 56.5562 107.628 57.4442 107.628C58.3202 107.628 58.9922 107.928 59.3162 108.312V107.76ZM57.6002 113.16C58.4522 113.16 59.0882 112.632 59.3162 111.972V109.464C59.0162 108.936 58.3922 108.576 57.5882 108.576C56.9642 108.576 56.4482 108.78 56.0282 109.188C55.6082 109.596 55.3922 110.16 55.3922 110.892C55.3922 112.296 56.2442 113.16 57.6002 113.16Z" fill="#76848D"/>
<rect x="98" y="105" width="10" height="10" fill="url(#paint1_linear_6007_29494)"/>
<path d="M117.98 110.712V114H116.888V105.6H120.104C122.276 105.6 123.356 106.44 123.356 108.12C123.356 109.308 122.54 110.244 121.304 110.496L123.992 114H122.66L120.164 110.712H117.98ZM120.068 106.62H117.98V109.692H120.14C121.424 109.692 122.24 109.08 122.24 108.12C122.24 107.124 121.52 106.62 120.068 106.62ZM129.041 112.212L129.689 112.812C129.113 113.676 128.285 114.108 127.193 114.108C126.197 114.108 125.393 113.808 124.781 113.22C124.169 112.632 123.869 111.852 123.869 110.868C123.869 109.92 124.145 109.14 124.709 108.528C125.261 107.916 126.041 107.616 127.049 107.616C127.877 107.616 128.573 107.88 129.113 108.396C129.653 108.912 129.929 109.596 129.929 110.448C129.929 110.724 129.905 110.976 129.869 111.204H124.949C125.009 112.44 125.921 113.16 127.229 113.16C127.961 113.16 128.657 112.776 129.041 112.212ZM126.977 108.54C125.837 108.54 125.093 109.236 124.937 110.292H128.861C128.801 109.188 128.093 108.54 126.977 108.54ZM131.938 114H130.93V107.76H131.938V108.576C132.334 107.964 133.15 107.628 134.074 107.628C135.766 107.628 136.606 108.564 136.606 110.448V114H135.598V110.568C135.598 109.188 135.01 108.576 133.774 108.576C133.006 108.576 132.274 109.08 131.938 109.836V114ZM138.512 108.72H137.216V107.76H138.512V106.164H139.52V107.76H141.668V108.72H139.52V111.468C139.52 112.68 139.832 113.124 140.6 113.124C140.972 113.124 141.356 112.98 141.728 112.68L142.184 113.424C141.788 113.868 141.2 114.084 140.42 114.084C139.184 114.084 138.512 113.268 138.512 111.732V108.72Z" fill="#76848D"/>
<rect x="179" y="104.5" width="10" height="10" fill="#DBE9EE"/>
<path d="M202.76 111.768C202.76 109.692 197.576 110.892 197.576 107.796C197.576 107.148 197.864 106.596 198.44 106.152C199.004 105.708 199.76 105.492 200.684 105.492C202.088 105.492 203.108 105.9 203.744 106.716L203.036 107.424C202.436 106.824 201.644 106.524 200.66 106.524C200.168 106.524 199.724 106.62 199.316 106.824C198.908 107.028 198.704 107.352 198.704 107.772C198.704 108.816 200 109.02 201.296 109.368C202.592 109.716 203.888 110.184 203.888 111.684C203.888 112.392 203.6 112.98 203.024 113.424C202.448 113.88 201.716 114.108 200.84 114.108C200.12 114.108 199.448 113.952 198.812 113.628C198.176 113.316 197.696 112.932 197.396 112.488L198.104 111.72C198.692 112.488 199.736 113.076 200.948 113.076C201.956 113.076 202.76 112.572 202.76 111.768ZM205.979 114H204.971V105.24H205.979V108.576C206.459 107.94 207.131 107.628 208.007 107.628C209.759 107.628 210.635 108.576 210.635 110.46V114H209.627V110.556C209.627 109.212 209.051 108.576 207.815 108.576C206.987 108.576 206.315 109.104 205.979 109.872V114ZM212.386 109.26L211.87 108.504C212.446 107.964 213.442 107.616 214.366 107.616C216.034 107.616 216.922 108.528 216.922 110.148V114H215.914V113.076C215.518 113.652 214.738 114.084 213.73 114.084C212.374 114.084 211.462 113.328 211.462 112.176C211.462 110.868 212.578 110.244 214.45 110.244C215.038 110.244 215.518 110.304 215.914 110.424C215.914 109.212 215.482 108.564 214.246 108.564C213.622 108.564 212.998 108.792 212.386 109.26ZM213.97 113.172C214.438 113.172 214.858 113.04 215.206 112.788C215.554 112.536 215.782 112.248 215.914 111.948V111.312C215.566 111.192 215.122 111.132 214.582 111.132C213.214 111.132 212.53 111.468 212.53 112.14C212.53 112.776 213.106 113.172 213.97 113.172ZM219.204 114H218.196V107.76H219.204V108.24C219.408 107.82 219.948 107.628 220.488 107.628C221.04 107.628 221.46 107.82 221.76 108.192L221.124 108.888C220.968 108.684 220.728 108.576 220.38 108.576C219.84 108.576 219.348 109.02 219.204 109.656V114ZM223.458 114H222.45V107.76H223.458V114ZM222.318 105.732C222.318 105.396 222.594 105.144 222.966 105.144C223.302 105.144 223.59 105.396 223.59 105.732C223.59 106.08 223.302 106.356 222.966 106.356C222.594 106.356 222.318 106.08 222.318 105.732ZM225.937 114H224.929V107.76H225.937V108.576C226.333 107.964 227.149 107.628 228.073 107.628C229.765 107.628 230.605 108.564 230.605 110.448V114H229.597V110.568C229.597 109.188 229.009 108.576 227.773 108.576C227.005 108.576 226.273 109.08 225.937 109.836V114ZM236.519 107.76H237.539V113.52C237.539 115.536 236.435 116.508 234.743 116.508C233.387 116.508 232.307 115.92 231.959 114.996L232.859 114.6C233.135 115.14 233.759 115.548 234.683 115.548C235.883 115.548 236.519 114.864 236.519 113.7V113.328C236.051 113.868 235.607 114.108 234.635 114.108C233.687 114.108 232.943 113.82 232.379 113.232C231.815 112.656 231.527 111.864 231.527 110.868C231.527 109.884 231.827 109.092 232.427 108.504C233.015 107.916 233.759 107.628 234.647 107.628C235.523 107.628 236.195 107.928 236.519 108.312V107.76ZM234.803 113.16C235.655 113.16 236.291 112.632 236.519 111.972V109.464C236.219 108.936 235.595 108.576 234.791 108.576C234.167 108.576 233.651 108.78 233.231 109.188C232.811 109.596 232.595 110.16 232.595 110.892C232.595 112.296 233.447 113.16 234.803 113.16Z" fill="#76848D"/>
<path d="M113.661 3.056L112.611 2.58C113.129 1.068 114.487 0.0739993 116.517 0.0739993C117.483 0.0739993 118.281 0.298 118.897 0.746C119.513 1.194 119.821 1.796 119.821 2.538C119.821 3.672 119.219 4.512 118.099 4.834C119.177 4.904 120.045 5.716 120.045 7.172C120.045 8.096 119.709 8.824 119.037 9.342C118.365 9.86 117.511 10.126 116.461 10.126C114.319 10.126 112.835 9.104 112.345 7.494L113.479 7.004C114.081 8.278 115.103 8.922 116.545 8.922C117.903 8.922 118.757 8.292 118.757 7.186C118.757 6.108 117.917 5.562 116.237 5.562H115.145V4.4H116.013C117.539 4.4 118.533 3.714 118.533 2.776C118.533 1.81 117.735 1.264 116.461 1.264C114.963 1.264 114.053 2.034 113.661 3.056ZM127.958 10H126.74V7.998H120.748V7.186L126.88 0.199999H127.958V6.864H129.778V7.998H127.958V10ZM126.74 2.16L122.428 6.864H126.74V2.16Z" fill="#1A3341"/>
<path d="M208.661 3.056L207.611 2.58C208.129 1.068 209.487 0.0739993 211.517 0.0739993C212.483 0.0739993 213.281 0.298 213.897 0.746C214.513 1.194 214.821 1.796 214.821 2.538C214.821 3.672 214.219 4.512 213.099 4.834C214.177 4.904 215.045 5.716 215.045 7.172C215.045 8.096 214.709 8.824 214.037 9.342C213.365 9.86 212.511 10.126 211.461 10.126C209.319 10.126 207.835 9.104 207.345 7.494L208.479 7.004C209.081 8.278 210.103 8.922 211.545 8.922C212.903 8.922 213.757 8.292 213.757 7.186C213.757 6.108 212.917 5.562 211.237 5.562H210.145V4.4H211.013C212.539 4.4 213.533 3.714 213.533 2.776C213.533 1.81 212.735 1.264 211.461 1.264C209.963 1.264 209.053 2.034 208.661 3.056ZM222.958 10H221.74V7.998H215.748V7.186L221.88 0.199999H222.958V6.864H224.778V7.998H222.958V10ZM221.74 2.16L217.428 6.864H221.74V2.16Z" fill="#1A3341"/>
<path d="M296.495 3.056L295.445 2.58C295.963 1.068 297.321 0.0739993 299.351 0.0739993C300.317 0.0739993 301.115 0.298 301.731 0.746C302.347 1.194 302.655 1.796 302.655 2.538C302.655 3.672 302.053 4.512 300.933 4.834C302.011 4.904 302.879 5.716 302.879 7.172C302.879 8.096 302.543 8.824 301.871 9.342C301.199 9.86 300.345 10.126 299.295 10.126C297.153 10.126 295.669 9.104 295.179 7.494L296.313 7.004C296.915 8.278 297.937 8.922 299.379 8.922C300.737 8.922 301.591 8.292 301.591 7.186C301.591 6.108 300.751 5.562 299.071 5.562H297.979V4.4H298.847C300.373 4.4 301.367 3.714 301.367 2.776C301.367 1.81 300.569 1.264 299.295 1.264C297.797 1.264 296.887 2.034 296.495 3.056ZM305.15 3.434L304.128 3.07C304.478 1.334 305.794 0.0879999 307.88 0.0879999C309.896 0.0879999 311.128 1.25 311.128 3.028C311.128 3.966 310.722 4.904 310.218 5.576C309.966 5.926 309.644 6.262 309.266 6.612C308.496 7.298 307.95 7.662 307.152 8.166L306.074 8.838H311.492V10H303.862V9.048L305.99 7.634C306.368 7.396 306.634 7.214 306.788 7.102C306.942 7.004 307.194 6.822 307.53 6.584C307.866 6.346 308.118 6.136 308.286 5.982C308.44 5.828 308.65 5.632 308.888 5.38C309.532 4.68 309.77 4.036 309.84 3.154C309.84 1.88 309.014 1.306 307.796 1.306C307.04 1.306 306.438 1.516 306.004 1.936C305.57 2.356 305.276 2.86 305.15 3.434Z" fill="#1A3341"/>
<path d="M128 17C129.105 17 130 17.8954 130 19L130 63C130 64.1046 129.105 65 128 65L36 65L36 17L128 17Z" fill="url(#paint2_linear_6007_29494)"/>
<path opacity="0.2" d="M130 29L130 53L36 53L36 29L130 29Z" fill="url(#paint3_linear_6007_29494)"/>
<path opacity="0.04" d="M130 53L130 63C130 64.1046 129.105 65 128 65L36 65L36 53L130 53Z" fill="#0D262C"/>
<path opacity="0.5" d="M128 17C129.105 17 130 17.8954 130 19L130 29L36 29L36 17L128 17Z" fill="url(#paint4_linear_6007_29494)"/>
<path d="M222 17C223.105 17 224 17.8954 224 19L224 63C224 64.1046 223.105 65 222 65L130 65L130 17L222 17Z" fill="url(#paint5_linear_6007_29494)"/>
<path opacity="0.2" d="M224 29L224 53L130 53L130 29L224 29Z" fill="url(#paint6_linear_6007_29494)"/>
<path opacity="0.04" d="M224 53L224 63C224 64.1046 223.105 65 222 65L130 65L130 53L224 53Z" fill="#0D262C"/>
<path opacity="0.5" d="M222 17C223.105 17 224 17.8954 224 19L224 29L130 29L130 17L222 17Z" fill="url(#paint7_linear_6007_29494)"/>
<path d="M310 17C311.105 17 312 17.8954 312 19L312 63C312 64.1046 311.105 65 310 65L224 65L224 17L310 17Z" fill="url(#paint8_linear_6007_29494)"/>
<path opacity="0.2" d="M312 29L312 53L224 53L224 29L312 29Z" fill="url(#paint9_linear_6007_29494)"/>
<path opacity="0.04" d="M312 53L312 63C312 64.1046 311.105 65 310 65L224 65L224 53L312 53Z" fill="#0D262C"/>
<path opacity="0.5" d="M310 17C311.105 17 312 17.8954 312 19L312 29L224 29L224 17L310 17Z" fill="url(#paint10_linear_6007_29494)"/>
<path d="M1.95709 40.372L1.08109 40.06C1.38109 38.572 2.50909 37.504 4.29709 37.504C6.02509 37.504 7.08109 38.5 7.08109 40.024C7.08109 40.828 6.73309 41.632 6.30109 42.208C6.08509 42.508 5.80909 42.796 5.48509 43.096C4.82509 43.684 4.35709 43.996 3.67309 44.428L2.74909 45.004H7.39309V46H0.853094V45.184L2.67709 43.972C3.00109 43.768 3.22909 43.612 3.36109 43.516C3.49309 43.432 3.70909 43.276 3.99709 43.072C4.28509 42.868 4.50109 42.688 4.64509 42.556C4.77709 42.424 4.95709 42.256 5.16109 42.04C5.71309 41.44 5.91709 40.888 5.97709 40.132C5.97709 39.04 5.26909 38.548 4.22509 38.548C3.57709 38.548 3.06109 38.728 2.68909 39.088C2.31709 39.448 2.06509 39.88 1.95709 40.372ZM8.22475 41.8C8.22475 40.504 8.52475 39.46 9.13675 38.68C9.73675 37.9 10.6248 37.504 11.7888 37.504C14.1768 37.504 15.3648 39.076 15.3648 41.8C15.3648 43.108 15.0648 44.14 14.4768 44.92C13.8768 45.7 12.9888 46.096 11.8128 46.096C10.6848 46.096 9.80875 45.7 9.17275 44.908C8.53675 44.116 8.22475 43.084 8.22475 41.8ZM9.32875 41.8C9.32875 43.852 10.2648 45.076 11.8128 45.076C13.4448 45.076 14.2608 43.984 14.2608 41.8C14.2608 39.616 13.4328 38.524 11.7888 38.524C10.1208 38.524 9.32875 39.724 9.32875 41.8ZM17.221 40.372L16.345 40.06C16.645 38.572 17.773 37.504 19.561 37.504C21.289 37.504 22.345 38.5 22.345 40.024C22.345 40.828 21.997 41.632 21.565 42.208C21.349 42.508 21.073 42.796 20.749 43.096C20.089 43.684 19.621 43.996 18.937 44.428L18.013 45.004H22.657V46H16.117V45.184L17.941 43.972C18.265 43.768 18.493 43.612 18.625 43.516C18.757 43.432 18.973 43.276 19.261 43.072C19.549 42.868 19.765 42.688 19.909 42.556C20.041 42.424 20.221 42.256 20.425 42.04C20.977 41.44 21.181 40.888 21.241 40.132C21.241 39.04 20.533 38.548 19.489 38.548C18.841 38.548 18.325 38.728 17.953 39.088C17.581 39.448 17.329 39.88 17.221 40.372ZM24.3167 40.048L23.4167 39.64C23.8607 38.344 25.0247 37.492 26.7647 37.492C27.5927 37.492 28.2767 37.684 28.8047 38.068C29.3327 38.452 29.5967 38.968 29.5967 39.604C29.5967 40.576 29.0807 41.296 28.1207 41.572C29.0447 41.632 29.7887 42.328 29.7887 43.576C29.7887 44.368 29.5007 44.992 28.9247 45.436C28.3487 45.88 27.6167 46.108 26.7167 46.108C24.8807 46.108 23.6087 45.232 23.1887 43.852L24.1607 43.432C24.6767 44.524 25.5527 45.076 26.7887 45.076C27.9527 45.076 28.6847 44.536 28.6847 43.588C28.6847 42.664 27.9647 42.196 26.5247 42.196H25.5887V41.2H26.3327C27.6407 41.2 28.4927 40.612 28.4927 39.808C28.4927 38.98 27.8087 38.512 26.7167 38.512C25.4327 38.512 24.6527 39.172 24.3167 40.048Z" fill="#76848D"/>
<defs>
<linearGradient id="paint0_linear_6007_29494" x1="6" y1="105" x2="10.4783" y2="113.109" gradientUnits="userSpaceOnUse">
<stop stop-color="#66CFF0"/>
<stop offset="1" stop-color="#A6E0F2"/>
</linearGradient>
<linearGradient id="paint1_linear_6007_29494" x1="103" y1="105" x2="108.896" y2="110.521" gradientUnits="userSpaceOnUse">
<stop stop-color="#43C3BB"/>
<stop offset="1" stop-color="#78CCD1"/>
</linearGradient>
<linearGradient id="paint2_linear_6007_29494" x1="130" y1="41" x2="36" y2="41" gradientUnits="userSpaceOnUse">
<stop stop-color="#5BB0E0"/>
<stop offset="1" stop-color="#8EDDFF"/>
</linearGradient>
<linearGradient id="paint3_linear_6007_29494" x1="130" y1="41" x2="36" y2="41" gradientUnits="userSpaceOnUse">
<stop stop-color="white" stop-opacity="0"/>
<stop offset="0.739583" stop-color="white"/>
</linearGradient>
<linearGradient id="paint4_linear_6007_29494" x1="313.3" y1="23" x2="36" y2="23" gradientUnits="userSpaceOnUse">
<stop stop-color="white" stop-opacity="0.05"/>
<stop offset="0.75" stop-color="white" stop-opacity="0.8"/>
</linearGradient>
<linearGradient id="paint5_linear_6007_29494" x1="224" y1="41" x2="130" y2="41" gradientUnits="userSpaceOnUse">
<stop stop-color="#30B099"/>
<stop offset="1" stop-color="#94E5D7"/>
</linearGradient>
<linearGradient id="paint6_linear_6007_29494" x1="224" y1="41" x2="130" y2="41" gradientUnits="userSpaceOnUse">
<stop stop-color="white" stop-opacity="0"/>
<stop offset="0.739583" stop-color="white"/>
</linearGradient>
<linearGradient id="paint7_linear_6007_29494" x1="407.3" y1="23" x2="130" y2="23" gradientUnits="userSpaceOnUse">
<stop stop-color="white" stop-opacity="0.05"/>
<stop offset="0.75" stop-color="white" stop-opacity="0.8"/>
</linearGradient>
<linearGradient id="paint8_linear_6007_29494" x1="312" y1="41" x2="224" y2="41" gradientUnits="userSpaceOnUse">
<stop stop-color="#CDE3E9"/>
<stop offset="1" stop-color="#D3E8ED"/>
</linearGradient>
<linearGradient id="paint9_linear_6007_29494" x1="312" y1="41" x2="224" y2="41" gradientUnits="userSpaceOnUse">
<stop stop-color="white" stop-opacity="0"/>
<stop offset="0.739583" stop-color="white"/>
</linearGradient>
<linearGradient id="paint10_linear_6007_29494" x1="483.6" y1="23" x2="224" y2="23" gradientUnits="userSpaceOnUse">
<stop stop-color="white" stop-opacity="0.05"/>
<stop offset="0.75" stop-color="white" stop-opacity="0.8"/>
</linearGradient>
</defs>
</svg>
