<svg width="352" height="202" viewBox="0 0 352 202" fill="none" xmlns="http://www.w3.org/2000/svg">
<rect x="1" y="188" width="10" height="10" fill="url(#paint0_linear_6007_29495)"/>
<path d="M25.96 197H19.888V188.6H20.98V195.98H25.96V197ZM31.0923 195.212L31.7403 195.812C31.1643 196.676 30.3363 197.108 29.2443 197.108C28.2483 197.108 27.4443 196.808 26.8323 196.22C26.2203 195.632 25.9203 194.852 25.9203 193.868C25.9203 192.92 26.1963 192.14 26.7603 191.528C27.3123 190.916 28.0923 190.616 29.1003 190.616C29.9283 190.616 30.6243 190.88 31.1643 191.396C31.7043 191.912 31.9803 192.596 31.9803 193.448C31.9803 193.724 31.9563 193.976 31.9203 194.204H27.0003C27.0603 195.44 27.9723 196.16 29.2803 196.16C30.0123 196.16 30.7083 195.776 31.0923 195.212ZM29.0283 191.54C27.8883 191.54 27.1443 192.236 26.9883 193.292H30.9123C30.8523 192.188 30.1443 191.54 29.0283 191.54ZM33.4603 192.26L32.9443 191.504C33.5203 190.964 34.5163 190.616 35.4403 190.616C37.1083 190.616 37.9963 191.528 37.9963 193.148V197H36.9883V196.076C36.5923 196.652 35.8123 197.084 34.8043 197.084C33.4483 197.084 32.5363 196.328 32.5363 195.176C32.5363 193.868 33.6523 193.244 35.5243 193.244C36.1123 193.244 36.5923 193.304 36.9883 193.424C36.9883 192.212 36.5563 191.564 35.3203 191.564C34.6963 191.564 34.0723 191.792 33.4603 192.26ZM35.0443 196.172C35.5123 196.172 35.9323 196.04 36.2803 195.788C36.6283 195.536 36.8563 195.248 36.9883 194.948V194.312C36.6403 194.192 36.1963 194.132 35.6563 194.132C34.2883 194.132 33.6043 194.468 33.6043 195.14C33.6043 195.776 34.1803 196.172 35.0443 196.172ZM43.0984 195.296C43.0984 194.456 41.6704 194.324 40.5304 194C39.7504 193.772 39.1264 193.256 39.1264 192.404C39.1264 191.3 40.1704 190.616 41.7184 190.616C42.7624 190.616 43.6024 191.06 44.0464 191.696L43.3384 192.356C42.9424 191.828 42.3424 191.564 41.5384 191.564C40.8184 191.564 40.1944 191.84 40.1944 192.356C40.1944 193.088 41.6224 193.22 42.7624 193.568C43.5304 193.808 44.1544 194.384 44.1544 195.284C44.1544 196.496 43.1824 197.108 41.6584 197.108C40.3744 197.108 39.2824 196.532 38.8384 195.632L39.6424 195.068C40.0144 195.728 40.8664 196.16 41.8264 196.16C42.6784 196.16 43.0984 195.872 43.0984 195.296ZM46.2553 197H45.2473V190.76H46.2553V197ZM45.1153 188.732C45.1153 188.396 45.3913 188.144 45.7633 188.144C46.0993 188.144 46.3873 188.396 46.3873 188.732C46.3873 189.08 46.0993 189.356 45.7633 189.356C45.3913 189.356 45.1153 189.08 45.1153 188.732ZM48.7337 197H47.7257V190.76H48.7337V191.576C49.1297 190.964 49.9457 190.628 50.8697 190.628C52.5617 190.628 53.4018 191.564 53.4018 193.448V197H52.3937V193.568C52.3937 192.188 51.8057 191.576 50.5697 191.576C49.8017 191.576 49.0697 192.08 48.7337 192.836V197ZM59.3162 190.76H60.3362V196.52C60.3362 198.536 59.2322 199.508 57.5402 199.508C56.1842 199.508 55.1042 198.92 54.7562 197.996L55.6562 197.6C55.9322 198.14 56.5562 198.548 57.4802 198.548C58.6802 198.548 59.3162 197.864 59.3162 196.7V196.328C58.8482 196.868 58.4042 197.108 57.4322 197.108C56.4842 197.108 55.7402 196.82 55.1762 196.232C54.6122 195.656 54.3242 194.864 54.3242 193.868C54.3242 192.884 54.6242 192.092 55.2242 191.504C55.8122 190.916 56.5562 190.628 57.4442 190.628C58.3202 190.628 58.9922 190.928 59.3162 191.312V190.76ZM57.6002 196.16C58.4522 196.16 59.0882 195.632 59.3162 194.972V192.464C59.0162 191.936 58.3922 191.576 57.5882 191.576C56.9642 191.576 56.4482 191.78 56.0282 192.188C55.6082 192.596 55.3922 193.16 55.3922 193.892C55.3922 195.296 56.2442 196.16 57.6002 196.16Z" fill="#76848D"/>
<rect x="98" y="188" width="10" height="10" fill="url(#paint1_linear_6007_29495)"/>
<path d="M117.98 193.712V197H116.888V188.6H120.104C122.276 188.6 123.356 189.44 123.356 191.12C123.356 192.308 122.54 193.244 121.304 193.496L123.992 197H122.66L120.164 193.712H117.98ZM120.068 189.62H117.98V192.692H120.14C121.424 192.692 122.24 192.08 122.24 191.12C122.24 190.124 121.52 189.62 120.068 189.62ZM129.041 195.212L129.689 195.812C129.113 196.676 128.285 197.108 127.193 197.108C126.197 197.108 125.393 196.808 124.781 196.22C124.169 195.632 123.869 194.852 123.869 193.868C123.869 192.92 124.145 192.14 124.709 191.528C125.261 190.916 126.041 190.616 127.049 190.616C127.877 190.616 128.573 190.88 129.113 191.396C129.653 191.912 129.929 192.596 129.929 193.448C129.929 193.724 129.905 193.976 129.869 194.204H124.949C125.009 195.44 125.921 196.16 127.229 196.16C127.961 196.16 128.657 195.776 129.041 195.212ZM126.977 191.54C125.837 191.54 125.093 192.236 124.937 193.292H128.861C128.801 192.188 128.093 191.54 126.977 191.54ZM131.938 197H130.93V190.76H131.938V191.576C132.334 190.964 133.15 190.628 134.074 190.628C135.766 190.628 136.606 191.564 136.606 193.448V197H135.598V193.568C135.598 192.188 135.01 191.576 133.774 191.576C133.006 191.576 132.274 192.08 131.938 192.836V197ZM138.512 191.72H137.216V190.76H138.512V189.164H139.52V190.76H141.668V191.72H139.52V194.468C139.52 195.68 139.832 196.124 140.6 196.124C140.972 196.124 141.356 195.98 141.728 195.68L142.184 196.424C141.788 196.868 141.2 197.084 140.42 197.084C139.184 197.084 138.512 196.268 138.512 194.732V191.72Z" fill="#76848D"/>
<rect x="179" y="187.5" width="10" height="10" fill="#DBE9EE"/>
<path d="M202.76 194.768C202.76 192.692 197.576 193.892 197.576 190.796C197.576 190.148 197.864 189.596 198.44 189.152C199.004 188.708 199.76 188.492 200.684 188.492C202.088 188.492 203.108 188.9 203.744 189.716L203.036 190.424C202.436 189.824 201.644 189.524 200.66 189.524C200.168 189.524 199.724 189.62 199.316 189.824C198.908 190.028 198.704 190.352 198.704 190.772C198.704 191.816 200 192.02 201.296 192.368C202.592 192.716 203.888 193.184 203.888 194.684C203.888 195.392 203.6 195.98 203.024 196.424C202.448 196.88 201.716 197.108 200.84 197.108C200.12 197.108 199.448 196.952 198.812 196.628C198.176 196.316 197.696 195.932 197.396 195.488L198.104 194.72C198.692 195.488 199.736 196.076 200.948 196.076C201.956 196.076 202.76 195.572 202.76 194.768ZM205.979 197H204.971V188.24H205.979V191.576C206.459 190.94 207.131 190.628 208.007 190.628C209.759 190.628 210.635 191.576 210.635 193.46V197H209.627V193.556C209.627 192.212 209.051 191.576 207.815 191.576C206.987 191.576 206.315 192.104 205.979 192.872V197ZM212.386 192.26L211.87 191.504C212.446 190.964 213.442 190.616 214.366 190.616C216.034 190.616 216.922 191.528 216.922 193.148V197H215.914V196.076C215.518 196.652 214.738 197.084 213.73 197.084C212.374 197.084 211.462 196.328 211.462 195.176C211.462 193.868 212.578 193.244 214.45 193.244C215.038 193.244 215.518 193.304 215.914 193.424C215.914 192.212 215.482 191.564 214.246 191.564C213.622 191.564 212.998 191.792 212.386 192.26ZM213.97 196.172C214.438 196.172 214.858 196.04 215.206 195.788C215.554 195.536 215.782 195.248 215.914 194.948V194.312C215.566 194.192 215.122 194.132 214.582 194.132C213.214 194.132 212.53 194.468 212.53 195.14C212.53 195.776 213.106 196.172 213.97 196.172ZM219.204 197H218.196V190.76H219.204V191.24C219.408 190.82 219.948 190.628 220.488 190.628C221.04 190.628 221.46 190.82 221.76 191.192L221.124 191.888C220.968 191.684 220.728 191.576 220.38 191.576C219.84 191.576 219.348 192.02 219.204 192.656V197ZM223.458 197H222.45V190.76H223.458V197ZM222.318 188.732C222.318 188.396 222.594 188.144 222.966 188.144C223.302 188.144 223.59 188.396 223.59 188.732C223.59 189.08 223.302 189.356 222.966 189.356C222.594 189.356 222.318 189.08 222.318 188.732ZM225.937 197H224.929V190.76H225.937V191.576C226.333 190.964 227.149 190.628 228.073 190.628C229.765 190.628 230.605 191.564 230.605 193.448V197H229.597V193.568C229.597 192.188 229.009 191.576 227.773 191.576C227.005 191.576 226.273 192.08 225.937 192.836V197ZM236.519 190.76H237.539V196.52C237.539 198.536 236.435 199.508 234.743 199.508C233.387 199.508 232.307 198.92 231.959 197.996L232.859 197.6C233.135 198.14 233.759 198.548 234.683 198.548C235.883 198.548 236.519 197.864 236.519 196.7V196.328C236.051 196.868 235.607 197.108 234.635 197.108C233.687 197.108 232.943 196.82 232.379 196.232C231.815 195.656 231.527 194.864 231.527 193.868C231.527 192.884 231.827 192.092 232.427 191.504C233.015 190.916 233.759 190.628 234.647 190.628C235.523 190.628 236.195 190.928 236.519 191.312V190.76ZM234.803 196.16C235.655 196.16 236.291 195.632 236.519 194.972V192.464C236.219 191.936 235.595 191.576 234.791 191.576C234.167 191.576 233.651 191.78 233.231 192.188C232.811 192.596 232.595 193.16 232.595 193.892C232.595 195.296 233.447 196.16 234.803 196.16Z" fill="#76848D"/>
<path d="M61.1107 14.492H58.4647V13.428H61.1107V10.768H62.2167V13.428H64.8907V14.492H62.2167V17.18H61.1107V14.492ZM67.4072 12.434L66.3852 12.07C66.7352 10.334 68.0512 9.088 70.1372 9.088C72.1532 9.088 73.3852 10.25 73.3852 12.028C73.3852 12.966 72.9792 13.904 72.4752 14.576C72.2232 14.926 71.9012 15.262 71.5232 15.612C70.7532 16.298 70.2072 16.662 69.4092 17.166L68.3312 17.838H73.7492V19H66.1192V18.048L68.2472 16.634C68.6252 16.396 68.8912 16.214 69.0452 16.102C69.1992 16.004 69.4512 15.822 69.7872 15.584C70.1232 15.346 70.3752 15.136 70.5432 14.982C70.6972 14.828 70.9072 14.632 71.1452 14.38C71.7892 13.68 72.0272 13.036 72.0972 12.154C72.0972 10.88 71.2712 10.306 70.0532 10.306C69.2972 10.306 68.6952 10.516 68.2612 10.936C67.8272 11.356 67.5332 11.86 67.4072 12.434ZM74.8175 18.202C74.8175 17.81 75.1815 17.418 75.6855 17.418C76.1475 17.418 76.5255 17.81 76.5255 18.202C76.5255 18.65 76.1755 19.028 75.6855 19.028C75.1815 19.028 74.8175 18.65 74.8175 18.202ZM84.445 19H83.227V16.998H77.235V16.186L83.367 9.2H84.445V15.864H86.265V16.998H84.445V19ZM83.227 11.16L78.915 15.864H83.227V11.16Z" fill="#1A3341"/>
<path d="M48 31C48 29.8954 48.8954 29 50 29H94C95.1046 29 96 29.8954 96 31V65H48V31Z" fill="url(#paint2_linear_6007_29495)"/>
<path opacity="0.2" d="M60 29H84V65H60V29Z" fill="url(#paint3_linear_6007_29495)"/>
<path opacity="0.04" d="M84 29H94C95.1046 29 96 29.8954 96 31V65H84V29Z" fill="#0D262C"/>
<path opacity="0.5" d="M48 31C48 29.8954 48.8954 29 50 29H60V65H48V31Z" fill="url(#paint4_linear_6007_29495)"/>
<path d="M155.191 5.492L152.545 5.492V4.428L155.191 4.428V1.768L156.297 1.768V4.428H158.971V5.492H156.297V8.18H155.191V5.492ZM161.334 3.056L160.284 2.58C160.802 1.068 162.16 0.0739993 164.19 0.0739993C165.156 0.0739993 165.954 0.298 166.57 0.746C167.186 1.194 167.494 1.796 167.494 2.538C167.494 3.672 166.892 4.512 165.772 4.834C166.85 4.904 167.718 5.716 167.718 7.172C167.718 8.096 167.382 8.824 166.71 9.342C166.038 9.86 165.184 10.126 164.134 10.126C161.992 10.126 160.508 9.104 160.018 7.494L161.152 7.004C161.754 8.278 162.776 8.922 164.218 8.922C165.576 8.922 166.43 8.292 166.43 7.186C166.43 6.108 165.59 5.562 163.91 5.562H162.818V4.4H163.686C165.212 4.4 166.206 3.714 166.206 2.776C166.206 1.81 165.408 1.264 164.134 1.264C162.636 1.264 161.726 2.034 161.334 3.056Z" fill="#1A3341"/>
<path d="M136 22C136 20.8954 136.895 20 138 20L182 20C183.105 20 184 20.8954 184 22V65H136V22Z" fill="url(#paint5_linear_6007_29495)"/>
<path opacity="0.2" d="M148 20L172 20V65H148V20Z" fill="url(#paint6_linear_6007_29495)"/>
<path opacity="0.04" d="M172 20H182C183.105 20 184 20.8954 184 22V65H172V20Z" fill="#0D262C"/>
<path opacity="0.5" d="M136 22C136 20.8954 136.895 20 138 20L148 20V65H136V22Z" fill="url(#paint7_linear_6007_29495)"/>
<path d="M224 143C224 144.105 224.895 145 226 145H270C271.105 145 272 144.105 272 143V65H224L224 143Z" fill="url(#paint8_linear_6007_29495)"/>
<path opacity="0.2" d="M236 145H260V65H236L236 145Z" fill="url(#paint9_linear_6007_29495)"/>
<path opacity="0.04" d="M260 145H270C271.105 145 272 144.105 272 143V65H260V145Z" fill="#0D262C"/>
<path opacity="0.5" d="M224 143C224 144.105 224.895 145 226 145H236L236 65H224L224 143Z" fill="url(#paint10_linear_6007_29495)"/>
<path d="M240.8 159.492H234.304V158.442H240.8V159.492ZM243.476 159.492L242.468 159.226L243.042 154.2H249.202V155.39H244.12L243.756 158.022C244.246 157.658 244.988 157.476 245.982 157.476C247.13 157.476 248.026 157.784 248.684 158.386C249.328 159.002 249.65 159.786 249.65 160.752C249.65 161.718 249.286 162.53 248.572 163.16C247.844 163.804 246.934 164.126 245.856 164.126C244.022 164.126 242.496 163.258 241.866 161.732L242.986 161.256C243.392 162.194 244.442 162.936 245.856 162.936C247.466 162.936 248.362 162.012 248.362 160.794C248.362 159.492 247.312 158.652 245.646 158.652C244.75 158.652 244.022 158.932 243.476 159.492ZM250.811 163.202C250.811 162.81 251.175 162.418 251.679 162.418C252.141 162.418 252.519 162.81 252.519 163.202C252.519 163.65 252.169 164.028 251.679 164.028C251.175 164.028 250.811 163.65 250.811 163.202ZM260.438 164H259.22V161.998H253.228V161.186L259.36 154.2H260.438V160.864H262.258V161.998H260.438V164ZM259.22 156.16L254.908 160.864H259.22V156.16Z" fill="#1A3341"/>
<line x1="4.37114e-08" y1="65.2529" x2="319" y2="65.253" stroke="#ABBEC9"/>
<defs>
<linearGradient id="paint0_linear_6007_29495" x1="6" y1="188" x2="10.4783" y2="196.109" gradientUnits="userSpaceOnUse">
<stop stop-color="#66CFF0"/>
<stop offset="1" stop-color="#A6E0F2"/>
</linearGradient>
<linearGradient id="paint1_linear_6007_29495" x1="103" y1="188" x2="108.896" y2="193.521" gradientUnits="userSpaceOnUse">
<stop stop-color="#43C3BB"/>
<stop offset="1" stop-color="#78CCD1"/>
</linearGradient>
<linearGradient id="paint2_linear_6007_29495" x1="72" y1="29" x2="72" y2="65" gradientUnits="userSpaceOnUse">
<stop stop-color="#5BB0E0"/>
<stop offset="1" stop-color="#8EDDFF"/>
</linearGradient>
<linearGradient id="paint3_linear_6007_29495" x1="72" y1="29" x2="72" y2="65" gradientUnits="userSpaceOnUse">
<stop stop-color="white" stop-opacity="0"/>
<stop offset="0.739583" stop-color="white"/>
</linearGradient>
<linearGradient id="paint4_linear_6007_29495" x1="54" y1="-41.2" x2="54" y2="65" gradientUnits="userSpaceOnUse">
<stop stop-color="white" stop-opacity="0.05"/>
<stop offset="0.75" stop-color="white" stop-opacity="0.8"/>
</linearGradient>
<linearGradient id="paint5_linear_6007_29495" x1="160" y1="20" x2="160" y2="65" gradientUnits="userSpaceOnUse">
<stop stop-color="#30B099"/>
<stop offset="1" stop-color="#94E5D7"/>
</linearGradient>
<linearGradient id="paint6_linear_6007_29495" x1="160" y1="20" x2="160" y2="65" gradientUnits="userSpaceOnUse">
<stop stop-color="white" stop-opacity="0"/>
<stop offset="0.739583" stop-color="white"/>
</linearGradient>
<linearGradient id="paint7_linear_6007_29495" x1="142" y1="-67.75" x2="142" y2="65" gradientUnits="userSpaceOnUse">
<stop stop-color="white" stop-opacity="0.05"/>
<stop offset="0.75" stop-color="white" stop-opacity="0.8"/>
</linearGradient>
<linearGradient id="paint8_linear_6007_29495" x1="248" y1="145" x2="248" y2="65" gradientUnits="userSpaceOnUse">
<stop stop-color="#CDE3E9"/>
<stop offset="1" stop-color="#D3E8ED"/>
</linearGradient>
<linearGradient id="paint9_linear_6007_29495" x1="248" y1="145" x2="248" y2="65" gradientUnits="userSpaceOnUse">
<stop stop-color="white" stop-opacity="0"/>
<stop offset="0.739583" stop-color="white"/>
</linearGradient>
<linearGradient id="paint10_linear_6007_29495" x1="230" y1="301" x2="230" y2="65" gradientUnits="userSpaceOnUse">
<stop stop-color="white" stop-opacity="0.05"/>
<stop offset="0.75" stop-color="white" stop-opacity="0.8"/>
</linearGradient>
</defs>
</svg>
