<svg width="335" height="242" viewBox="0 0 335 242" fill="none" xmlns="http://www.w3.org/2000/svg">
<path d="M17.6545 78.366C17.6545 76.672 18.0745 75.37 18.9005 74.446C19.7265 73.536 20.7625 73.074 22.0085 73.074C23.6465 73.074 24.9345 73.816 25.4805 74.992L24.5285 75.636C23.9545 74.726 23.1005 74.278 21.9525 74.278C21.0845 74.278 20.3565 74.614 19.7685 75.286C19.1805 75.972 18.8865 76.896 18.9005 78.086C19.4465 77.064 20.7205 76.448 22.1205 76.448C23.2545 76.448 24.1645 76.742 24.8225 77.344C25.4805 77.946 25.8165 78.744 25.8165 79.724C25.8165 80.718 25.4525 81.544 24.7105 82.174C23.9685 82.804 23.0445 83.126 21.9385 83.126C19.2925 83.126 17.6545 81.404 17.6545 78.366ZM19.0545 79.556C19.3205 80.942 20.3705 81.922 21.9245 81.922C22.6805 81.922 23.3105 81.726 23.8005 81.32C24.2905 80.928 24.5285 80.41 24.5285 79.78C24.5285 78.394 23.5485 77.652 22.0505 77.652C21.2245 77.652 20.5385 77.848 20.0065 78.24C19.4605 78.632 19.1525 79.066 19.0545 79.556ZM27.763 83C27.245 83.056 26.853 82.762 26.853 82.258C26.853 81.768 27.161 81.46 27.707 81.46C28.323 81.46 28.729 81.88 28.729 82.664C28.729 84.064 27.959 84.778 26.937 85.016L26.643 84.358C26.951 84.274 27.231 84.106 27.483 83.84C27.721 83.574 27.819 83.294 27.763 83ZM33.6115 77.414H34.0455C34.6755 77.414 35.1935 77.26 35.6275 76.966C36.0475 76.672 36.2575 76.28 36.2575 75.818C36.2575 74.768 35.4315 74.236 33.7935 74.236C32.2255 74.236 31.3715 74.81 31.3715 75.818C31.3715 76.728 32.3095 77.414 33.6115 77.414ZM34.0175 78.52H33.6675C32.9115 78.52 32.2815 78.688 31.7915 79.01C31.3015 79.332 31.0495 79.738 31.0495 80.228C31.0495 81.292 32.0295 81.964 33.8075 81.964C35.6135 81.964 36.5795 81.32 36.5795 80.242C36.5795 79.164 35.5435 78.52 34.0175 78.52ZM36.7755 82.37C36.0615 82.874 35.0675 83.126 33.8215 83.126C32.5755 83.126 31.5815 82.874 30.8535 82.384C30.1255 81.894 29.7615 81.222 29.7615 80.354C29.7615 79.22 30.5035 78.324 31.6935 77.932C30.6155 77.582 30.0835 76.728 30.0835 75.734C30.0835 74.11 31.4555 73.074 33.8075 73.074C36.1735 73.074 37.5455 74.11 37.5455 75.734C37.5455 76.672 37.0275 77.386 35.9915 77.862C37.2375 78.24 37.8535 79.052 37.8535 80.298C37.8535 81.18 37.4895 81.88 36.7755 82.37ZM42.8094 77.414H43.2434C43.8734 77.414 44.3914 77.26 44.8254 76.966C45.2454 76.672 45.4554 76.28 45.4554 75.818C45.4554 74.768 44.6294 74.236 42.9914 74.236C41.4234 74.236 40.5694 74.81 40.5694 75.818C40.5694 76.728 41.5074 77.414 42.8094 77.414ZM43.2154 78.52H42.8654C42.1094 78.52 41.4794 78.688 40.9894 79.01C40.4994 79.332 40.2474 79.738 40.2474 80.228C40.2474 81.292 41.2274 81.964 43.0054 81.964C44.8114 81.964 45.7774 81.32 45.7774 80.242C45.7774 79.164 44.7414 78.52 43.2154 78.52ZM45.9734 82.37C45.2594 82.874 44.2654 83.126 43.0194 83.126C41.7734 83.126 40.7794 82.874 40.0514 82.384C39.3234 81.894 38.9594 81.222 38.9594 80.354C38.9594 79.22 39.7014 78.324 40.8914 77.932C39.8134 77.582 39.2814 76.728 39.2814 75.734C39.2814 74.11 40.6534 73.074 43.0054 73.074C45.3714 73.074 46.7434 74.11 46.7434 75.734C46.7434 76.672 46.2254 77.386 45.1894 77.862C46.4354 78.24 47.0514 79.052 47.0514 80.298C47.0514 81.18 46.6874 81.88 45.9734 82.37ZM54.9053 83H53.6873V80.998H47.6953V80.186L53.8273 73.2H54.9053V79.864H56.7253V80.998H54.9053V83ZM53.6873 75.16L49.3753 79.864H53.6873V75.16Z" fill="#1A3341"/>
<path d="M24.863 235.372L23.987 235.06C24.287 233.572 25.415 232.504 27.203 232.504C28.931 232.504 29.987 233.5 29.987 235.024C29.987 235.828 29.639 236.632 29.207 237.208C28.991 237.508 28.715 237.796 28.391 238.096C27.731 238.684 27.263 238.996 26.579 239.428L25.655 240.004H30.299V241H23.759V240.184L25.583 238.972C25.907 238.768 26.135 238.612 26.267 238.516C26.399 238.432 26.615 238.276 26.903 238.072C27.191 237.868 27.407 237.688 27.551 237.556C27.683 237.424 27.863 237.256 28.067 237.04C28.619 236.44 28.823 235.888 28.883 235.132C28.883 234.04 28.175 233.548 27.131 233.548C26.483 233.548 25.967 233.728 25.595 234.088C25.223 234.448 24.971 234.88 24.863 235.372ZM31.1307 236.8C31.1307 235.504 31.4307 234.46 32.0427 233.68C32.6427 232.9 33.5307 232.504 34.6947 232.504C37.0827 232.504 38.2707 234.076 38.2707 236.8C38.2707 238.108 37.9707 239.14 37.3827 239.92C36.7827 240.7 35.8947 241.096 34.7187 241.096C33.5907 241.096 32.7147 240.7 32.0787 239.908C31.4427 239.116 31.1307 238.084 31.1307 236.8ZM32.2347 236.8C32.2347 238.852 33.1707 240.076 34.7187 240.076C36.3507 240.076 37.1667 238.984 37.1667 236.8C37.1667 234.616 36.3387 233.524 34.6947 233.524C33.0267 233.524 32.2347 234.724 32.2347 236.8ZM40.1269 235.372L39.2509 235.06C39.5509 233.572 40.6789 232.504 42.4669 232.504C44.1949 232.504 45.2509 233.5 45.2509 235.024C45.2509 235.828 44.9029 236.632 44.4709 237.208C44.2549 237.508 43.9789 237.796 43.6549 238.096C42.9949 238.684 42.5269 238.996 41.8429 239.428L40.9189 240.004H45.5629V241H39.0229V240.184L40.8469 238.972C41.1709 238.768 41.3989 238.612 41.5309 238.516C41.6629 238.432 41.8789 238.276 42.1669 238.072C42.4549 237.868 42.6709 237.688 42.8149 237.556C42.9469 237.424 43.1269 237.256 43.3309 237.04C43.8829 236.44 44.0869 235.888 44.1469 235.132C44.1469 234.04 43.4389 233.548 42.3949 233.548C41.7469 233.548 41.2309 233.728 40.8589 234.088C40.4869 234.448 40.2349 234.88 40.1269 235.372ZM46.2986 234.832L45.9146 233.932L48.7946 232.552H49.4786V241H48.4466V233.836L46.2986 234.832Z" fill="#1A3341" fill-opacity="0.6"/>
<path d="M9 95C9 93.8954 9.89543 93 11 93H63C64.1046 93 65 93.8954 65 95V226H9V95Z" fill="url(#paint0_linear_6004_39837)"/>
<path opacity="0.2" d="M21 93H53V226H21V93Z" fill="url(#paint1_linear_6004_39837)"/>
<path opacity="0.04" d="M53 93H63C64.1046 93 65 93.8954 65 95V226H53V93Z" fill="#0D262C"/>
<path opacity="0.5" d="M9 95C9 93.8954 9.89543 93 11 93H21V226H9V95Z" fill="url(#paint2_linear_6004_39837)"/>
<path d="M144.327 129.366C144.327 127.672 144.747 126.37 145.573 125.446C146.399 124.536 147.435 124.074 148.681 124.074C150.319 124.074 151.607 124.816 152.153 125.992L151.201 126.636C150.627 125.726 149.773 125.278 148.625 125.278C147.757 125.278 147.029 125.614 146.441 126.286C145.853 126.972 145.559 127.896 145.573 129.086C146.119 128.064 147.393 127.448 148.793 127.448C149.927 127.448 150.837 127.742 151.495 128.344C152.153 128.946 152.489 129.744 152.489 130.724C152.489 131.718 152.125 132.544 151.383 133.174C150.641 133.804 149.717 134.126 148.611 134.126C145.965 134.126 144.327 132.404 144.327 129.366ZM145.727 130.556C145.993 131.942 147.043 132.922 148.597 132.922C149.353 132.922 149.983 132.726 150.473 132.32C150.963 131.928 151.201 131.41 151.201 130.78C151.201 129.394 150.221 128.652 148.723 128.652C147.897 128.652 147.211 128.848 146.679 129.24C146.133 129.632 145.825 130.066 145.727 130.556ZM154.436 134C153.918 134.056 153.526 133.762 153.526 133.258C153.526 132.768 153.834 132.46 154.38 132.46C154.996 132.46 155.402 132.88 155.402 133.664C155.402 135.064 154.632 135.778 153.61 136.016L153.316 135.358C153.624 135.274 153.904 135.106 154.156 134.84C154.394 134.574 154.492 134.294 154.436 134ZM156.308 126.804L155.86 125.754L159.22 124.144H160.018V134H158.814V125.642L156.308 126.804ZM162.924 127.434L161.902 127.07C162.252 125.334 163.568 124.088 165.654 124.088C167.67 124.088 168.902 125.25 168.902 127.028C168.902 127.966 168.496 128.904 167.992 129.576C167.74 129.926 167.418 130.262 167.04 130.612C166.27 131.298 165.724 131.662 164.926 132.166L163.848 132.838H169.266V134H161.636V133.048L163.764 131.634C164.142 131.396 164.408 131.214 164.562 131.102C164.716 131.004 164.968 130.822 165.304 130.584C165.64 130.346 165.892 130.136 166.06 129.982C166.214 129.828 166.424 129.632 166.662 129.38C167.306 128.68 167.544 128.036 167.614 127.154C167.614 125.88 166.788 125.306 165.57 125.306C164.814 125.306 164.212 125.516 163.778 125.936C163.344 126.356 163.05 126.86 162.924 127.434ZM171.202 127.056L170.152 126.58C170.67 125.068 172.028 124.074 174.058 124.074C175.024 124.074 175.822 124.298 176.438 124.746C177.054 125.194 177.362 125.796 177.362 126.538C177.362 127.672 176.76 128.512 175.64 128.834C176.718 128.904 177.586 129.716 177.586 131.172C177.586 132.096 177.25 132.824 176.578 133.342C175.906 133.86 175.052 134.126 174.002 134.126C171.86 134.126 170.376 133.104 169.886 131.494L171.02 131.004C171.622 132.278 172.644 132.922 174.086 132.922C175.444 132.922 176.298 132.292 176.298 131.186C176.298 130.108 175.458 129.562 173.778 129.562H172.686V128.4H173.554C175.08 128.4 176.074 127.714 176.074 126.776C176.074 125.81 175.276 125.264 174.002 125.264C172.504 125.264 171.594 126.034 171.202 127.056Z" fill="#1A3341"/>
<path d="M147.556 235.372L146.68 235.06C146.98 233.572 148.108 232.504 149.896 232.504C151.624 232.504 152.68 233.5 152.68 235.024C152.68 235.828 152.332 236.632 151.9 237.208C151.684 237.508 151.408 237.796 151.084 238.096C150.424 238.684 149.956 238.996 149.272 239.428L148.348 240.004H152.992V241H146.452V240.184L148.276 238.972C148.6 238.768 148.828 238.612 148.96 238.516C149.092 238.432 149.308 238.276 149.596 238.072C149.884 237.868 150.1 237.688 150.244 237.556C150.376 237.424 150.556 237.256 150.76 237.04C151.312 236.44 151.516 235.888 151.576 235.132C151.576 234.04 150.868 233.548 149.824 233.548C149.176 233.548 148.66 233.728 148.288 234.088C147.916 234.448 147.664 234.88 147.556 235.372ZM153.824 236.8C153.824 235.504 154.124 234.46 154.736 233.68C155.336 232.9 156.224 232.504 157.388 232.504C159.776 232.504 160.964 234.076 160.964 236.8C160.964 238.108 160.664 239.14 160.076 239.92C159.476 240.7 158.588 241.096 157.412 241.096C156.284 241.096 155.408 240.7 154.772 239.908C154.136 239.116 153.824 238.084 153.824 236.8ZM154.928 236.8C154.928 238.852 155.864 240.076 157.412 240.076C159.044 240.076 159.86 238.984 159.86 236.8C159.86 234.616 159.032 233.524 157.388 233.524C155.72 233.524 154.928 234.724 154.928 236.8ZM162.82 235.372L161.944 235.06C162.244 233.572 163.372 232.504 165.16 232.504C166.888 232.504 167.944 233.5 167.944 235.024C167.944 235.828 167.596 236.632 167.164 237.208C166.948 237.508 166.672 237.796 166.348 238.096C165.688 238.684 165.22 238.996 164.536 239.428L163.612 240.004H168.256V241H161.716V240.184L163.54 238.972C163.864 238.768 164.092 238.612 164.224 238.516C164.356 238.432 164.572 238.276 164.86 238.072C165.148 237.868 165.364 237.688 165.508 237.556C165.64 237.424 165.82 237.256 166.024 237.04C166.576 236.44 166.78 235.888 166.84 235.132C166.84 234.04 166.132 233.548 165.088 233.548C164.44 233.548 163.924 233.728 163.552 234.088C163.18 234.448 162.928 234.88 162.82 235.372ZM170.048 235.372L169.172 235.06C169.472 233.572 170.6 232.504 172.388 232.504C174.116 232.504 175.172 233.5 175.172 235.024C175.172 235.828 174.824 236.632 174.392 237.208C174.176 237.508 173.9 237.796 173.576 238.096C172.916 238.684 172.448 238.996 171.764 239.428L170.84 240.004H175.484V241H168.944V240.184L170.768 238.972C171.092 238.768 171.32 238.612 171.452 238.516C171.584 238.432 171.8 238.276 172.088 238.072C172.376 237.868 172.592 237.688 172.736 237.556C172.868 237.424 173.048 237.256 173.252 237.04C173.804 236.44 174.008 235.888 174.068 235.132C174.068 234.04 173.36 233.548 172.316 233.548C171.668 233.548 171.152 233.728 170.78 234.088C170.408 234.448 170.156 234.88 170.048 235.372Z" fill="#1A3341" fill-opacity="0.6"/>
<path d="M133 146C133 144.895 133.895 144 135 144H187C188.105 144 189 144.895 189 146V226H133V146Z" fill="url(#paint3_linear_6004_39837)"/>
<path opacity="0.2" d="M145 144H177V226H145V144Z" fill="url(#paint4_linear_6004_39837)"/>
<path opacity="0.04" d="M177 144H187C188.105 144 189 144.895 189 146V226H177V144Z" fill="#0D262C"/>
<path opacity="0.5" d="M133 146C133 144.895 133.895 144 135 144H145V226H133V146Z" fill="url(#paint5_linear_6004_39837)"/>
<path d="M265.778 99.366C265.778 97.672 266.198 96.37 267.024 95.446C267.85 94.536 268.886 94.074 270.132 94.074C271.77 94.074 273.058 94.816 273.604 95.992L272.652 96.636C272.078 95.726 271.224 95.278 270.076 95.278C269.208 95.278 268.48 95.614 267.892 96.286C267.304 96.972 267.01 97.896 267.024 99.086C267.57 98.064 268.844 97.448 270.244 97.448C271.378 97.448 272.288 97.742 272.946 98.344C273.604 98.946 273.94 99.744 273.94 100.724C273.94 101.718 273.576 102.544 272.834 103.174C272.092 103.804 271.168 104.126 270.062 104.126C267.416 104.126 265.778 102.404 265.778 99.366ZM267.178 100.556C267.444 101.942 268.494 102.922 270.048 102.922C270.804 102.922 271.434 102.726 271.924 102.32C272.414 101.928 272.652 101.41 272.652 100.78C272.652 99.394 271.672 98.652 270.174 98.652C269.348 98.652 268.662 98.848 268.13 99.24C267.584 99.632 267.276 100.066 267.178 100.556ZM275.886 104C275.368 104.056 274.976 103.762 274.976 103.258C274.976 102.768 275.284 102.46 275.83 102.46C276.446 102.46 276.852 102.88 276.852 103.664C276.852 105.064 276.082 105.778 275.06 106.016L274.766 105.358C275.074 105.274 275.354 105.106 275.606 104.84C275.844 104.574 275.942 104.294 275.886 104ZM279.299 99.492L278.291 99.226L278.865 94.2H285.025V95.39H279.943L279.579 98.022C280.069 97.658 280.811 97.476 281.805 97.476C282.953 97.476 283.849 97.784 284.507 98.386C285.151 99.002 285.473 99.786 285.473 100.752C285.473 101.718 285.109 102.53 284.395 103.16C283.667 103.804 282.757 104.126 281.679 104.126C279.845 104.126 278.319 103.258 277.689 101.732L278.809 101.256C279.215 102.194 280.265 102.936 281.679 102.936C283.289 102.936 284.185 102.012 284.185 100.794C284.185 99.492 283.135 98.652 281.469 98.652C280.573 98.652 279.845 98.932 279.299 99.492ZM286.535 99.1C286.535 97.588 286.885 96.37 287.599 95.46C288.299 94.55 289.335 94.088 290.693 94.088C293.479 94.088 294.865 95.922 294.865 99.1C294.865 100.626 294.515 101.83 293.829 102.74C293.129 103.65 292.093 104.112 290.721 104.112C289.405 104.112 288.383 103.65 287.641 102.726C286.899 101.802 286.535 100.598 286.535 99.1ZM287.823 99.1C287.823 101.494 288.915 102.922 290.721 102.922C292.625 102.922 293.577 101.648 293.577 99.1C293.577 96.552 292.611 95.278 290.693 95.278C288.747 95.278 287.823 96.678 287.823 99.1ZM295.911 99.1C295.911 97.588 296.261 96.37 296.975 95.46C297.675 94.55 298.711 94.088 300.069 94.088C302.855 94.088 304.241 95.922 304.241 99.1C304.241 100.626 303.891 101.83 303.205 102.74C302.505 103.65 301.469 104.112 300.097 104.112C298.781 104.112 297.759 103.65 297.017 102.726C296.275 101.802 295.911 100.598 295.911 99.1ZM297.199 99.1C297.199 101.494 298.291 102.922 300.097 102.922C302.001 102.922 302.953 101.648 302.953 99.1C302.953 96.552 301.987 95.278 300.069 95.278C298.123 95.278 297.199 96.678 297.199 99.1Z" fill="#1A3341"/>
<path d="M271.527 235.372L270.651 235.06C270.951 233.572 272.079 232.504 273.867 232.504C275.595 232.504 276.651 233.5 276.651 235.024C276.651 235.828 276.303 236.632 275.871 237.208C275.655 237.508 275.379 237.796 275.055 238.096C274.395 238.684 273.927 238.996 273.243 239.428L272.319 240.004H276.963V241H270.423V240.184L272.247 238.972C272.571 238.768 272.799 238.612 272.931 238.516C273.063 238.432 273.279 238.276 273.567 238.072C273.855 237.868 274.071 237.688 274.215 237.556C274.347 237.424 274.527 237.256 274.731 237.04C275.283 236.44 275.487 235.888 275.547 235.132C275.547 234.04 274.839 233.548 273.795 233.548C273.147 233.548 272.631 233.728 272.259 234.088C271.887 234.448 271.635 234.88 271.527 235.372ZM277.795 236.8C277.795 235.504 278.095 234.46 278.707 233.68C279.307 232.9 280.195 232.504 281.359 232.504C283.747 232.504 284.935 234.076 284.935 236.8C284.935 238.108 284.635 239.14 284.047 239.92C283.447 240.7 282.559 241.096 281.383 241.096C280.255 241.096 279.379 240.7 278.743 239.908C278.107 239.116 277.795 238.084 277.795 236.8ZM278.899 236.8C278.899 238.852 279.835 240.076 281.383 240.076C283.015 240.076 283.831 238.984 283.831 236.8C283.831 234.616 283.003 233.524 281.359 233.524C279.691 233.524 278.899 234.724 278.899 236.8ZM286.791 235.372L285.915 235.06C286.215 233.572 287.343 232.504 289.131 232.504C290.859 232.504 291.915 233.5 291.915 235.024C291.915 235.828 291.567 236.632 291.135 237.208C290.919 237.508 290.643 237.796 290.319 238.096C289.659 238.684 289.191 238.996 288.507 239.428L287.583 240.004H292.227V241H285.687V240.184L287.511 238.972C287.835 238.768 288.063 238.612 288.195 238.516C288.327 238.432 288.543 238.276 288.831 238.072C289.119 237.868 289.335 237.688 289.479 237.556C289.611 237.424 289.791 237.256 289.995 237.04C290.547 236.44 290.751 235.888 290.811 235.132C290.811 234.04 290.103 233.548 289.059 233.548C288.411 233.548 287.895 233.728 287.523 234.088C287.151 234.448 286.899 234.88 286.791 235.372ZM293.887 235.048L292.987 234.64C293.431 233.344 294.595 232.492 296.335 232.492C297.163 232.492 297.847 232.684 298.375 233.068C298.903 233.452 299.167 233.968 299.167 234.604C299.167 235.576 298.651 236.296 297.691 236.572C298.615 236.632 299.359 237.328 299.359 238.576C299.359 239.368 299.071 239.992 298.495 240.436C297.919 240.88 297.187 241.108 296.287 241.108C294.451 241.108 293.179 240.232 292.759 238.852L293.731 238.432C294.247 239.524 295.123 240.076 296.359 240.076C297.523 240.076 298.255 239.536 298.255 238.588C298.255 237.664 297.535 237.196 296.095 237.196H295.159V236.2H295.903C297.211 236.2 298.063 235.612 298.063 234.808C298.063 233.98 297.379 233.512 296.287 233.512C295.003 233.512 294.223 234.172 293.887 235.048Z" fill="#1A3341" fill-opacity="0.6"/>
<path d="M257 116C257 114.895 257.895 114 259 114H311C312.105 114 313 114.895 313 116V226H257V116Z" fill="url(#paint6_linear_6004_39837)"/>
<path opacity="0.2" d="M269 114H301V226H269V114Z" fill="url(#paint7_linear_6004_39837)"/>
<path opacity="0.04" d="M301 114H311C312.105 114 313 114.895 313 116V226H301V114Z" fill="#0D262C"/>
<path opacity="0.5" d="M257 116C257 114.895 257.895 114 259 114H269V226H257V116Z" fill="url(#paint8_linear_6004_39837)"/>
<path d="M124.927 166.354C125.122 166.158 125.122 165.842 124.927 165.646L121.745 162.464C121.55 162.269 121.233 162.269 121.038 162.464C120.843 162.66 120.843 162.976 121.038 163.172L123.867 166L121.038 168.828C120.843 169.024 120.843 169.34 121.038 169.536C121.233 169.731 121.55 169.731 121.745 169.536L124.927 166.354ZM73.1797 166.5L124.574 166.5L124.574 165.5L73.1797 165.5L73.1797 166.5Z" fill="#7DA4C1"/>
<path d="M87.3084 153.136H81.7404V152.236H87.3084V153.136ZM94.2584 157H88.8464V156.004H91.4024V149.836L89.2544 150.832L88.8704 149.932L91.7504 148.552H92.4344V156.004H94.2584V157ZM101.454 157H96.0417V156.004H98.5977V149.836L96.4497 150.832L96.0657 149.932L98.9457 148.552H99.6297V156.004H101.454V157ZM104.977 157.18L104.185 156.724L110.389 148.336L111.145 148.888L104.977 157.18ZM102.889 150.616C102.889 150.016 103.093 149.524 103.513 149.14C103.933 148.756 104.449 148.564 105.085 148.564C105.709 148.564 106.225 148.756 106.645 149.14C107.065 149.524 107.269 150.016 107.269 150.616C107.269 151.204 107.065 151.696 106.645 152.08C106.225 152.464 105.709 152.656 105.085 152.656C104.449 152.656 103.933 152.464 103.513 152.08C103.093 151.696 102.889 151.204 102.889 150.616ZM103.897 150.616C103.897 151.3 104.449 151.804 105.085 151.804C105.745 151.804 106.261 151.324 106.261 150.616C106.261 149.908 105.721 149.428 105.085 149.428C104.425 149.428 103.897 149.908 103.897 150.616ZM108.661 156.472C108.241 156.088 108.037 155.596 108.037 154.996C108.037 154.396 108.241 153.904 108.661 153.52C109.081 153.148 109.597 152.956 110.233 152.956C110.857 152.956 111.373 153.148 111.793 153.52C112.213 153.904 112.417 154.396 112.417 154.996C112.417 155.584 112.213 156.076 111.793 156.46C111.373 156.856 110.857 157.048 110.233 157.048C109.597 157.048 109.081 156.856 108.661 156.472ZM109.045 154.996C109.045 155.68 109.597 156.184 110.233 156.184C110.893 156.184 111.409 155.704 111.409 154.996C111.409 154.288 110.869 153.808 110.233 153.808C109.573 153.808 109.045 154.288 109.045 154.996Z" fill="#7DA4C1"/>
<path d="M248.927 166.354C249.122 166.158 249.122 165.842 248.927 165.646L245.745 162.464C245.55 162.269 245.233 162.269 245.038 162.464C244.843 162.66 244.843 162.976 245.038 163.172L247.867 166L245.038 168.828C244.843 169.024 244.843 169.34 245.038 169.536C245.233 169.731 245.55 169.731 245.745 169.536L248.927 166.354ZM197.18 166.5L248.574 166.5L248.574 165.5L197.18 165.5L197.18 166.5Z" fill="#318F73"/>
<path d="M206.717 153.136H204.449V152.224H206.717V149.944H207.665V152.224H209.957V153.136H207.665V155.44H206.717V153.136ZM211.214 153.028C211.214 151.576 211.538 150.448 212.186 149.668C212.834 148.888 213.674 148.492 214.706 148.492C216.026 148.492 216.938 149.044 217.442 150.136L216.626 150.688C216.134 149.908 215.618 149.524 214.658 149.524C213.206 149.524 212.27 150.712 212.282 152.788C212.786 151.852 213.626 151.384 214.802 151.384C216.722 151.384 217.73 152.464 217.73 154.192C217.73 155.056 217.442 155.752 216.866 156.292C216.278 156.832 215.546 157.108 214.646 157.108C212.534 157.108 211.214 155.62 211.214 153.028ZM212.414 154.048C212.678 155.404 213.422 156.076 214.634 156.076C215.894 156.076 216.626 155.356 216.626 154.24C216.626 153.028 216.002 152.416 214.742 152.416C213.35 152.416 212.594 153.172 212.414 154.048ZM218.553 156.316C218.553 155.98 218.865 155.644 219.297 155.644C219.693 155.644 220.017 155.98 220.017 156.316C220.017 156.7 219.717 157.024 219.297 157.024C218.865 157.024 218.553 156.7 218.553 156.316ZM222.089 151.372L221.213 151.06C221.513 149.56 222.593 148.504 224.369 148.504C226.097 148.504 227.093 149.5 227.093 151.024C227.057 152.284 226.469 153.28 225.581 154.084C224.957 154.672 224.465 155.008 223.805 155.428L222.881 156.004H227.405V157H221.105V156.184L222.809 154.972C223.805 154.264 224.453 153.772 224.753 153.496C225.581 152.74 225.989 151.948 225.989 151.132C225.989 150.028 225.317 149.548 224.297 149.548C223.001 149.548 222.329 150.364 222.089 151.372ZM230.413 157.18L229.621 156.724L235.825 148.336L236.581 148.888L230.413 157.18ZM228.325 150.616C228.325 150.016 228.529 149.524 228.949 149.14C229.369 148.756 229.885 148.564 230.521 148.564C231.145 148.564 231.661 148.756 232.081 149.14C232.501 149.524 232.705 150.016 232.705 150.616C232.705 151.204 232.501 151.696 232.081 152.08C231.661 152.464 231.145 152.656 230.521 152.656C229.885 152.656 229.369 152.464 228.949 152.08C228.529 151.696 228.325 151.204 228.325 150.616ZM229.333 150.616C229.333 151.3 229.885 151.804 230.521 151.804C231.181 151.804 231.697 151.324 231.697 150.616C231.697 149.908 231.157 149.428 230.521 149.428C229.861 149.428 229.333 149.908 229.333 150.616ZM234.097 156.472C233.677 156.088 233.473 155.596 233.473 154.996C233.473 154.396 233.677 153.904 234.097 153.52C234.517 153.148 235.033 152.956 235.669 152.956C236.293 152.956 236.809 153.148 237.229 153.52C237.649 153.904 237.853 154.396 237.853 154.996C237.853 155.584 237.649 156.076 237.229 156.46C236.809 156.856 236.293 157.048 235.669 157.048C235.033 157.048 234.517 156.856 234.097 156.472ZM234.481 154.996C234.481 155.68 235.033 156.184 235.669 156.184C236.329 156.184 236.845 155.704 236.845 154.996C236.845 154.288 236.305 153.808 235.669 153.808C235.009 153.808 234.481 154.288 234.481 154.996Z" fill="#318F73"/>
<line y1="225.5" x2="335" y2="225.5" stroke="#ABBEC9"/>
<path d="M32 43L160.877 35.5L286 23" stroke="url(#paint9_linear_6004_39837)" stroke-width="5"/>
<circle cx="285" cy="23" r="7" fill="#64BBEA" stroke="white" stroke-width="2"/>
<circle cx="162" cy="35" r="7" fill="#64BBEA" stroke="white" stroke-width="2"/>
<circle cx="34" cy="43" r="7" fill="#64BBEA" stroke="white" stroke-width="2"/>
<path d="M23.728 31H19.218V30.17H21.348V25.03L19.558 25.86L19.238 25.11L21.638 23.96H22.208V30.17H23.728V31ZM24.8141 27.5C24.8141 26.42 25.0441 25.55 25.4941 24.9C25.9441 24.25 26.6041 23.92 27.4841 23.92C29.2741 23.92 30.1641 25.23 30.1641 27.5C30.1641 28.59 29.9441 29.45 29.4941 30.1C29.0441 30.75 28.3841 31.08 27.5041 31.08C26.6541 31.08 25.9941 30.75 25.5241 30.09C25.0541 29.43 24.8141 28.57 24.8141 27.5ZM25.7341 27.5C25.7341 29.19 26.3941 30.23 27.5041 30.23C28.6641 30.23 29.2441 29.32 29.2441 27.5C29.2441 25.68 28.6541 24.77 27.4841 24.77C26.3141 24.77 25.7341 25.68 25.7341 27.5ZM30.9902 30.43C30.9902 30.15 31.2502 29.87 31.6102 29.87C31.9402 29.87 32.2102 30.15 32.2102 30.43C32.2102 30.75 31.9602 31.02 31.6102 31.02C31.2502 31.02 30.9902 30.75 30.9902 30.43ZM33.087 27.69C33.087 26.48 33.357 25.54 33.897 24.89C34.437 24.24 35.137 23.91 35.997 23.91C37.097 23.91 37.857 24.37 38.277 25.28L37.597 25.74C37.187 25.09 36.757 24.77 35.957 24.77C34.747 24.77 33.967 25.76 33.977 27.49C34.397 26.71 35.097 26.32 36.077 26.32C37.677 26.32 38.517 27.22 38.517 28.66C38.517 29.38 38.277 29.96 37.797 30.41C37.307 30.86 36.697 31.09 35.947 31.09C34.187 31.09 33.087 29.85 33.087 27.69ZM34.087 28.54C34.307 29.67 34.927 30.23 35.937 30.23C36.987 30.23 37.597 29.63 37.597 28.7C37.597 27.69 37.077 27.18 36.027 27.18C34.867 27.18 34.237 27.81 34.087 28.54ZM40.8731 31.15L40.2131 30.77L45.3831 23.78L46.0131 24.24L40.8731 31.15ZM39.1331 25.68C39.1331 25.18 39.3031 24.77 39.6531 24.45C40.0031 24.13 40.4331 23.97 40.9631 23.97C41.4831 23.97 41.9131 24.13 42.2631 24.45C42.6131 24.77 42.7831 25.18 42.7831 25.68C42.7831 26.17 42.6131 26.58 42.2631 26.9C41.9131 27.22 41.4831 27.38 40.9631 27.38C40.4331 27.38 40.0031 27.22 39.6531 26.9C39.3031 26.58 39.1331 26.17 39.1331 25.68ZM39.9731 25.68C39.9731 26.25 40.4331 26.67 40.9631 26.67C41.5131 26.67 41.9431 26.27 41.9431 25.68C41.9431 25.09 41.4931 24.69 40.9631 24.69C40.4131 24.69 39.9731 25.09 39.9731 25.68ZM43.9431 30.56C43.5931 30.24 43.4231 29.83 43.4231 29.33C43.4231 28.83 43.5931 28.42 43.9431 28.1C44.2931 27.79 44.7231 27.63 45.2531 27.63C45.7731 27.63 46.2031 27.79 46.5531 28.1C46.9031 28.42 47.0731 28.83 47.0731 29.33C47.0731 29.82 46.9031 30.23 46.5531 30.55C46.2031 30.88 45.7731 31.04 45.2531 31.04C44.7231 31.04 44.2931 30.88 43.9431 30.56ZM44.2631 29.33C44.2631 29.9 44.7231 30.32 45.2531 30.32C45.8031 30.32 46.2331 29.92 46.2331 29.33C46.2331 28.74 45.7831 28.34 45.2531 28.34C44.7031 28.34 44.2631 28.74 44.2631 29.33Z" fill="#357D94"/>
<path d="M151.728 23H147.218V22.17H149.348V17.03L147.558 17.86L147.238 17.11L149.638 15.96H150.208V22.17H151.728V23ZM157.724 23H153.214V22.17H155.344V17.03L153.554 17.86L153.234 17.11L155.634 15.96H156.204V22.17H157.724V23ZM158.99 22.43C158.99 22.15 159.25 21.87 159.61 21.87C159.94 21.87 160.21 22.15 160.21 22.43C160.21 22.75 159.96 23.02 159.61 23.02C159.25 23.02 158.99 22.75 158.99 22.43ZM161.027 19.5C161.027 18.42 161.257 17.55 161.707 16.9C162.157 16.25 162.817 15.92 163.697 15.92C165.487 15.92 166.377 17.23 166.377 19.5C166.377 20.59 166.157 21.45 165.707 22.1C165.257 22.75 164.597 23.08 163.717 23.08C162.867 23.08 162.207 22.75 161.737 22.09C161.267 21.43 161.027 20.57 161.027 19.5ZM161.947 19.5C161.947 21.19 162.607 22.23 163.717 22.23C164.877 22.23 165.457 21.32 165.457 19.5C165.457 17.68 164.867 16.77 163.697 16.77C162.527 16.77 161.947 17.68 161.947 19.5ZM168.873 23.15L168.213 22.77L173.383 15.78L174.013 16.24L168.873 23.15ZM167.133 17.68C167.133 17.18 167.303 16.77 167.653 16.45C168.003 16.13 168.433 15.97 168.963 15.97C169.483 15.97 169.913 16.13 170.263 16.45C170.613 16.77 170.783 17.18 170.783 17.68C170.783 18.17 170.613 18.58 170.263 18.9C169.913 19.22 169.483 19.38 168.963 19.38C168.433 19.38 168.003 19.22 167.653 18.9C167.303 18.58 167.133 18.17 167.133 17.68ZM167.973 17.68C167.973 18.25 168.433 18.67 168.963 18.67C169.513 18.67 169.943 18.27 169.943 17.68C169.943 17.09 169.493 16.69 168.963 16.69C168.413 16.69 167.973 17.09 167.973 17.68ZM171.943 22.56C171.593 22.24 171.423 21.83 171.423 21.33C171.423 20.83 171.593 20.42 171.943 20.1C172.293 19.79 172.723 19.63 173.253 19.63C173.773 19.63 174.203 19.79 174.553 20.1C174.903 20.42 175.073 20.83 175.073 21.33C175.073 21.82 174.903 22.23 174.553 22.55C174.203 22.88 173.773 23.04 173.253 23.04C172.723 23.04 172.293 22.88 171.943 22.56ZM172.263 21.33C172.263 21.9 172.723 22.32 173.253 22.32C173.803 22.32 174.233 21.92 174.233 21.33C174.233 20.74 173.783 20.34 173.253 20.34C172.703 20.34 172.263 20.74 172.263 21.33Z" fill="#357D94"/>
<path d="M276.228 10H271.718V9.17H273.848V4.03L272.058 4.86L271.738 4.11L274.138 2.96H274.708V9.17H276.228V10ZM282.224 10H277.714V9.17H279.844V4.03L278.054 4.86L277.734 4.11L280.134 2.96H280.704V9.17H282.224V10ZM283.49 9.43C283.49 9.15 283.75 8.87 284.11 8.87C284.44 8.87 284.71 9.15 284.71 9.43C284.71 9.75 284.46 10.02 284.11 10.02C283.75 10.02 283.49 9.75 283.49 9.43ZM289.777 3.85H285.537V3H290.847V3.57L287.367 10H286.417L289.777 3.85ZM293.373 10.15L292.713 9.77L297.883 2.78L298.513 3.24L293.373 10.15ZM291.633 4.68C291.633 4.18 291.803 3.77 292.153 3.45C292.503 3.13 292.933 2.97 293.463 2.97C293.983 2.97 294.413 3.13 294.763 3.45C295.113 3.77 295.283 4.18 295.283 4.68C295.283 5.17 295.113 5.58 294.763 5.9C294.413 6.22 293.983 6.38 293.463 6.38C292.933 6.38 292.503 6.22 292.153 5.9C291.803 5.58 291.633 5.17 291.633 4.68ZM292.473 4.68C292.473 5.25 292.933 5.67 293.463 5.67C294.013 5.67 294.443 5.27 294.443 4.68C294.443 4.09 293.993 3.69 293.463 3.69C292.913 3.69 292.473 4.09 292.473 4.68ZM296.443 9.56C296.093 9.24 295.923 8.83 295.923 8.33C295.923 7.83 296.093 7.42 296.443 7.1C296.793 6.79 297.223 6.63 297.753 6.63C298.273 6.63 298.703 6.79 299.053 7.1C299.403 7.42 299.573 7.83 299.573 8.33C299.573 8.82 299.403 9.23 299.053 9.55C298.703 9.88 298.273 10.04 297.753 10.04C297.223 10.04 296.793 9.88 296.443 9.56ZM296.763 8.33C296.763 8.9 297.223 9.32 297.753 9.32C298.303 9.32 298.733 8.92 298.733 8.33C298.733 7.74 298.283 7.34 297.753 7.34C297.203 7.34 296.763 7.74 296.763 8.33Z" fill="#357D94"/>
<defs>
<linearGradient id="paint0_linear_6004_39837" x1="37" y1="93" x2="37" y2="226" gradientUnits="userSpaceOnUse">
<stop stop-color="#45B8DB"/>
<stop offset="1" stop-color="#ADE4E4"/>
</linearGradient>
<linearGradient id="paint1_linear_6004_39837" x1="37" y1="93" x2="37" y2="226" gradientUnits="userSpaceOnUse">
<stop stop-color="white" stop-opacity="0"/>
<stop offset="0.739583" stop-color="white"/>
</linearGradient>
<linearGradient id="paint2_linear_6004_39837" x1="15" y1="-166.35" x2="15" y2="226" gradientUnits="userSpaceOnUse">
<stop stop-color="white" stop-opacity="0.05"/>
<stop offset="0.75" stop-color="white" stop-opacity="0.8"/>
</linearGradient>
<linearGradient id="paint3_linear_6004_39837" x1="161" y1="144" x2="161" y2="226" gradientUnits="userSpaceOnUse">
<stop stop-color="#45B8DB"/>
<stop offset="1" stop-color="#ADE4E4"/>
</linearGradient>
<linearGradient id="paint4_linear_6004_39837" x1="161" y1="144" x2="161" y2="226" gradientUnits="userSpaceOnUse">
<stop stop-color="white" stop-opacity="0"/>
<stop offset="0.739583" stop-color="white"/>
</linearGradient>
<linearGradient id="paint5_linear_6004_39837" x1="139" y1="-15.9" x2="139" y2="226" gradientUnits="userSpaceOnUse">
<stop stop-color="white" stop-opacity="0.05"/>
<stop offset="0.75" stop-color="white" stop-opacity="0.8"/>
</linearGradient>
<linearGradient id="paint6_linear_6004_39837" x1="285" y1="114" x2="285" y2="226" gradientUnits="userSpaceOnUse">
<stop stop-color="#45B8DB"/>
<stop offset="1" stop-color="#ADE4E4"/>
</linearGradient>
<linearGradient id="paint7_linear_6004_39837" x1="285" y1="114" x2="285" y2="226" gradientUnits="userSpaceOnUse">
<stop stop-color="white" stop-opacity="0"/>
<stop offset="0.739583" stop-color="white"/>
</linearGradient>
<linearGradient id="paint8_linear_6004_39837" x1="263" y1="-104.4" x2="263" y2="226" gradientUnits="userSpaceOnUse">
<stop stop-color="white" stop-opacity="0.05"/>
<stop offset="0.75" stop-color="white" stop-opacity="0.8"/>
</linearGradient>
<linearGradient id="paint9_linear_6004_39837" x1="286" y1="23" x2="32" y2="23" gradientUnits="userSpaceOnUse">
<stop stop-color="#56BCF6"/>
<stop offset="1" stop-color="#A2DEE7"/>
</linearGradient>
</defs>
</svg>
