<svg width="448" height="221" viewBox="0 0 448 221" fill="none" xmlns="http://www.w3.org/2000/svg">
<path d="M97.7792 78.39H91.8432V77.2H99.2772V77.998L94.4052 87H93.0752L97.7792 78.39ZM100.114 87C99.5956 87.056 99.2036 86.762 99.2036 86.258C99.2036 85.768 99.5116 85.46 100.058 85.46C100.674 85.46 101.08 85.88 101.08 86.664C101.08 88.064 100.31 88.778 99.2876 89.016L98.9936 88.358C99.3016 88.274 99.5816 88.106 99.8336 87.84C100.072 87.574 100.17 87.294 100.114 87ZM110.246 81.918C110.246 83.584 109.854 84.872 109.056 85.768C108.258 86.678 107.194 87.126 105.864 87.126C104.24 87.126 102.966 86.44 102.336 85.39L103.344 84.69C103.904 85.474 104.926 85.922 106.032 85.922C106.942 85.922 107.67 85.558 108.244 84.83C108.818 84.116 109.056 83.22 108.986 82.156C108.524 83.22 107.362 84.004 105.808 84.004C104.716 84.004 103.82 83.696 103.12 83.066C102.406 82.45 102.056 81.638 102.056 80.644C102.056 79.552 102.434 78.684 103.19 78.04C103.946 77.396 104.954 77.074 106.2 77.074C108.72 77.074 110.246 78.838 110.246 81.918ZM108.776 80.602C108.566 79.3 107.67 78.278 106.06 78.278C104.38 78.278 103.344 79.146 103.344 80.602C103.344 81.988 104.394 82.8 106.032 82.8C106.774 82.8 107.404 82.576 107.894 82.128C108.384 81.68 108.678 81.176 108.776 80.602ZM111.296 82.366C111.296 80.672 111.716 79.37 112.542 78.446C113.368 77.536 114.404 77.074 115.65 77.074C117.288 77.074 118.576 77.816 119.122 78.992L118.17 79.636C117.596 78.726 116.742 78.278 115.594 78.278C114.726 78.278 113.998 78.614 113.41 79.286C112.822 79.972 112.528 80.896 112.542 82.086C113.088 81.064 114.362 80.448 115.762 80.448C116.896 80.448 117.806 80.742 118.464 81.344C119.122 81.946 119.458 82.744 119.458 83.724C119.458 84.718 119.094 85.544 118.352 86.174C117.61 86.804 116.686 87.126 115.58 87.126C112.934 87.126 111.296 85.404 111.296 82.366ZM112.696 83.556C112.962 84.942 114.012 85.922 115.566 85.922C116.322 85.922 116.952 85.726 117.442 85.32C117.932 84.928 118.17 84.41 118.17 83.78C118.17 82.394 117.19 81.652 115.692 81.652C114.866 81.652 114.18 81.848 113.648 82.24C113.102 82.632 112.794 83.066 112.696 83.556ZM121.587 80.434L120.565 80.07C120.915 78.334 122.231 77.088 124.317 77.088C126.333 77.088 127.565 78.25 127.565 80.028C127.565 80.966 127.159 81.904 126.655 82.576C126.403 82.926 126.081 83.262 125.703 83.612C124.933 84.298 124.387 84.662 123.589 85.166L122.511 85.838H127.929V87H120.299V86.048L122.427 84.634C122.805 84.396 123.071 84.214 123.225 84.102C123.379 84.004 123.631 83.822 123.967 83.584C124.303 83.346 124.555 83.136 124.723 82.982C124.877 82.828 125.087 82.632 125.325 82.38C125.969 81.68 126.207 81.036 126.277 80.154C126.277 78.88 125.451 78.306 124.233 78.306C123.477 78.306 122.875 78.516 122.441 78.936C122.007 79.356 121.713 79.86 121.587 80.434Z" fill="#1A3341"/>
<path d="M97.863 214.372L96.987 214.06C97.287 212.572 98.415 211.504 100.203 211.504C101.931 211.504 102.987 212.5 102.987 214.024C102.987 214.828 102.639 215.632 102.207 216.208C101.991 216.508 101.715 216.796 101.391 217.096C100.731 217.684 100.263 217.996 99.579 218.428L98.655 219.004H103.299V220H96.759V219.184L98.583 217.972C98.907 217.768 99.135 217.612 99.267 217.516C99.399 217.432 99.615 217.276 99.903 217.072C100.191 216.868 100.407 216.688 100.551 216.556C100.683 216.424 100.863 216.256 101.067 216.04C101.619 215.44 101.823 214.888 101.883 214.132C101.883 213.04 101.175 212.548 100.131 212.548C99.483 212.548 98.967 212.728 98.595 213.088C98.223 213.448 97.971 213.88 97.863 214.372ZM104.131 215.8C104.131 214.504 104.431 213.46 105.043 212.68C105.643 211.9 106.531 211.504 107.695 211.504C110.083 211.504 111.271 213.076 111.271 215.8C111.271 217.108 110.971 218.14 110.383 218.92C109.783 219.7 108.895 220.096 107.719 220.096C106.591 220.096 105.715 219.7 105.079 218.908C104.443 218.116 104.131 217.084 104.131 215.8ZM105.235 215.8C105.235 217.852 106.171 219.076 107.719 219.076C109.351 219.076 110.167 217.984 110.167 215.8C110.167 213.616 109.339 212.524 107.695 212.524C106.027 212.524 105.235 213.724 105.235 215.8ZM113.127 214.372L112.251 214.06C112.551 212.572 113.679 211.504 115.467 211.504C117.195 211.504 118.251 212.5 118.251 214.024C118.251 214.828 117.903 215.632 117.471 216.208C117.255 216.508 116.979 216.796 116.655 217.096C115.995 217.684 115.527 217.996 114.843 218.428L113.919 219.004H118.563V220H112.023V219.184L113.847 217.972C114.171 217.768 114.399 217.612 114.531 217.516C114.663 217.432 114.879 217.276 115.167 217.072C115.455 216.868 115.671 216.688 115.815 216.556C115.947 216.424 116.127 216.256 116.331 216.04C116.883 215.44 117.087 214.888 117.147 214.132C117.147 213.04 116.439 212.548 115.395 212.548C114.747 212.548 114.231 212.728 113.859 213.088C113.487 213.448 113.235 213.88 113.127 214.372ZM119.299 213.832L118.915 212.932L121.795 211.552H122.479V220H121.447V212.836L119.299 213.832Z" fill="#1A3341" fill-opacity="0.6"/>
<path d="M82 99C82 97.8954 82.8954 97 84 97H136C137.105 97 138 97.8954 138 99V205H82V99Z" fill="url(#paint0_linear_6004_39827)"/>
<path opacity="0.2" d="M94 97H126V205H94V97Z" fill="url(#paint1_linear_6004_39827)"/>
<path opacity="0.04" d="M126 97H136C137.105 97 138 97.8954 138 99V205H126V97Z" fill="#0D262C"/>
<path opacity="0.5" d="M82 99C82 97.8954 82.8954 97 84 97H94V205H82V99Z" fill="url(#paint2_linear_6004_39827)"/>
<path d="M219.673 92.39H213.737V91.2H221.171V91.998L216.299 101H214.969L219.673 92.39ZM222.007 101C221.489 101.056 221.097 100.762 221.097 100.258C221.097 99.768 221.405 99.46 221.951 99.46C222.567 99.46 222.973 99.88 222.973 100.664C222.973 102.064 222.203 102.778 221.181 103.016L220.887 102.358C221.195 102.274 221.475 102.106 221.727 101.84C221.965 101.574 222.063 101.294 222.007 101ZM227.856 95.414H228.29C228.92 95.414 229.438 95.26 229.872 94.966C230.292 94.672 230.502 94.28 230.502 93.818C230.502 92.768 229.676 92.236 228.038 92.236C226.47 92.236 225.616 92.81 225.616 93.818C225.616 94.728 226.554 95.414 227.856 95.414ZM228.262 96.52H227.912C227.156 96.52 226.526 96.688 226.036 97.01C225.546 97.332 225.294 97.738 225.294 98.228C225.294 99.292 226.274 99.964 228.052 99.964C229.858 99.964 230.824 99.32 230.824 98.242C230.824 97.164 229.788 96.52 228.262 96.52ZM231.02 100.37C230.306 100.874 229.312 101.126 228.066 101.126C226.82 101.126 225.826 100.874 225.098 100.384C224.37 99.894 224.006 99.222 224.006 98.354C224.006 97.22 224.748 96.324 225.938 95.932C224.86 95.582 224.328 94.728 224.328 93.734C224.328 92.11 225.7 91.074 228.052 91.074C230.418 91.074 231.79 92.11 231.79 93.734C231.79 94.672 231.272 95.386 230.236 95.862C231.482 96.24 232.098 97.052 232.098 98.298C232.098 99.18 231.734 99.88 231.02 100.37ZM233.078 93.804L232.63 92.754L235.99 91.144H236.788V101H235.584V92.642L233.078 93.804ZM239.693 94.434L238.671 94.07C239.021 92.334 240.337 91.088 242.423 91.088C244.439 91.088 245.671 92.25 245.671 94.028C245.671 94.966 245.265 95.904 244.761 96.576C244.509 96.926 244.187 97.262 243.809 97.612C243.039 98.298 242.493 98.662 241.695 99.166L240.617 99.838H246.035V101H238.405V100.048L240.533 98.634C240.911 98.396 241.177 98.214 241.331 98.102C241.485 98.004 241.737 97.822 242.073 97.584C242.409 97.346 242.661 97.136 242.829 96.982C242.983 96.828 243.193 96.632 243.431 96.38C244.075 95.68 244.313 95.036 244.383 94.154C244.383 92.88 243.557 92.306 242.339 92.306C241.583 92.306 240.981 92.516 240.547 92.936C240.113 93.356 239.819 93.86 239.693 94.434Z" fill="#1A3341"/>
<path d="M216.556 214.372L215.68 214.06C215.98 212.572 217.108 211.504 218.896 211.504C220.624 211.504 221.68 212.5 221.68 214.024C221.68 214.828 221.332 215.632 220.9 216.208C220.684 216.508 220.408 216.796 220.084 217.096C219.424 217.684 218.956 217.996 218.272 218.428L217.348 219.004H221.992V220H215.452V219.184L217.276 217.972C217.6 217.768 217.828 217.612 217.96 217.516C218.092 217.432 218.308 217.276 218.596 217.072C218.884 216.868 219.1 216.688 219.244 216.556C219.376 216.424 219.556 216.256 219.76 216.04C220.312 215.44 220.516 214.888 220.576 214.132C220.576 213.04 219.868 212.548 218.824 212.548C218.176 212.548 217.66 212.728 217.288 213.088C216.916 213.448 216.664 213.88 216.556 214.372ZM222.824 215.8C222.824 214.504 223.124 213.46 223.736 212.68C224.336 211.9 225.224 211.504 226.388 211.504C228.776 211.504 229.964 213.076 229.964 215.8C229.964 217.108 229.664 218.14 229.076 218.92C228.476 219.7 227.588 220.096 226.412 220.096C225.284 220.096 224.408 219.7 223.772 218.908C223.136 218.116 222.824 217.084 222.824 215.8ZM223.928 215.8C223.928 217.852 224.864 219.076 226.412 219.076C228.044 219.076 228.86 217.984 228.86 215.8C228.86 213.616 228.032 212.524 226.388 212.524C224.72 212.524 223.928 213.724 223.928 215.8ZM231.82 214.372L230.944 214.06C231.244 212.572 232.372 211.504 234.16 211.504C235.888 211.504 236.944 212.5 236.944 214.024C236.944 214.828 236.596 215.632 236.164 216.208C235.948 216.508 235.672 216.796 235.348 217.096C234.688 217.684 234.22 217.996 233.536 218.428L232.612 219.004H237.256V220H230.716V219.184L232.54 217.972C232.864 217.768 233.092 217.612 233.224 217.516C233.356 217.432 233.572 217.276 233.86 217.072C234.148 216.868 234.364 216.688 234.508 216.556C234.64 216.424 234.82 216.256 235.024 216.04C235.576 215.44 235.78 214.888 235.84 214.132C235.84 213.04 235.132 212.548 234.088 212.548C233.44 212.548 232.924 212.728 232.552 213.088C232.18 213.448 231.928 213.88 231.82 214.372ZM239.048 214.372L238.172 214.06C238.472 212.572 239.6 211.504 241.388 211.504C243.116 211.504 244.172 212.5 244.172 214.024C244.172 214.828 243.824 215.632 243.392 216.208C243.176 216.508 242.9 216.796 242.576 217.096C241.916 217.684 241.448 217.996 240.764 218.428L239.84 219.004H244.484V220H237.944V219.184L239.768 217.972C240.092 217.768 240.32 217.612 240.452 217.516C240.584 217.432 240.8 217.276 241.088 217.072C241.376 216.868 241.592 216.688 241.736 216.556C241.868 216.424 242.048 216.256 242.252 216.04C242.804 215.44 243.008 214.888 243.068 214.132C243.068 213.04 242.36 212.548 241.316 212.548C240.668 212.548 240.152 212.728 239.78 213.088C239.408 213.448 239.156 213.88 239.048 214.372Z" fill="#1A3341" fill-opacity="0.6"/>
<path d="M202 113C202 111.895 202.895 111 204 111H256C257.105 111 258 111.895 258 113V205H202V113Z" fill="url(#paint3_linear_6004_39827)"/>
<path opacity="0.2" d="M214 111H246V205H214V111Z" fill="url(#paint4_linear_6004_39827)"/>
<path opacity="0.04" d="M246 111H256C257.105 111 258 111.895 258 113V205H246V111Z" fill="#0D262C"/>
<path opacity="0.5" d="M202 113C202 111.895 202.895 111 204 111H214V205H202V113Z" fill="url(#paint5_linear_6004_39827)"/>
<path d="M337.349 85.39H331.413V84.2H338.847V84.998L333.975 94H332.645L337.349 85.39ZM339.683 94C339.165 94.056 338.773 93.762 338.773 93.258C338.773 92.768 339.081 92.46 339.627 92.46C340.243 92.46 340.649 92.88 340.649 93.664C340.649 95.064 339.879 95.778 338.857 96.016L338.563 95.358C338.871 95.274 339.151 95.106 339.403 94.84C339.641 94.574 339.739 94.294 339.683 94ZM349.815 88.918C349.815 90.584 349.423 91.872 348.625 92.768C347.827 93.678 346.763 94.126 345.433 94.126C343.809 94.126 342.535 93.44 341.905 92.39L342.913 91.69C343.473 92.474 344.495 92.922 345.601 92.922C346.511 92.922 347.239 92.558 347.813 91.83C348.387 91.116 348.625 90.22 348.555 89.156C348.093 90.22 346.931 91.004 345.377 91.004C344.285 91.004 343.389 90.696 342.689 90.066C341.975 89.45 341.625 88.638 341.625 87.644C341.625 86.552 342.003 85.684 342.759 85.04C343.515 84.396 344.523 84.074 345.769 84.074C348.289 84.074 349.815 85.838 349.815 88.918ZM348.345 87.602C348.135 86.3 347.239 85.278 345.629 85.278C343.949 85.278 342.913 86.146 342.913 87.602C342.913 88.988 343.963 89.8 345.601 89.8C346.343 89.8 346.973 89.576 347.463 89.128C347.953 88.68 348.247 88.176 348.345 87.602ZM357.627 94H356.409V91.998H350.417V91.186L356.549 84.2H357.627V90.864H359.447V91.998H357.627V94ZM356.409 86.16L352.097 90.864H356.409V86.16ZM368.28 88.918C368.28 90.584 367.888 91.872 367.09 92.768C366.292 93.678 365.228 94.126 363.898 94.126C362.274 94.126 361 93.44 360.37 92.39L361.378 91.69C361.938 92.474 362.96 92.922 364.066 92.922C364.976 92.922 365.704 92.558 366.278 91.83C366.852 91.116 367.09 90.22 367.02 89.156C366.558 90.22 365.396 91.004 363.842 91.004C362.75 91.004 361.854 90.696 361.154 90.066C360.44 89.45 360.09 88.638 360.09 87.644C360.09 86.552 360.468 85.684 361.224 85.04C361.98 84.396 362.988 84.074 364.234 84.074C366.754 84.074 368.28 85.838 368.28 88.918ZM366.81 87.602C366.6 86.3 365.704 85.278 364.094 85.278C362.414 85.278 361.378 86.146 361.378 87.602C361.378 88.988 362.428 89.8 364.066 89.8C364.808 89.8 365.438 89.576 365.928 89.128C366.418 88.68 366.712 88.176 366.81 87.602Z" fill="#1A3341"/>
<path d="M336.527 214.372L335.651 214.06C335.951 212.572 337.079 211.504 338.867 211.504C340.595 211.504 341.651 212.5 341.651 214.024C341.651 214.828 341.303 215.632 340.871 216.208C340.655 216.508 340.379 216.796 340.055 217.096C339.395 217.684 338.927 217.996 338.243 218.428L337.319 219.004H341.963V220H335.423V219.184L337.247 217.972C337.571 217.768 337.799 217.612 337.931 217.516C338.063 217.432 338.279 217.276 338.567 217.072C338.855 216.868 339.071 216.688 339.215 216.556C339.347 216.424 339.527 216.256 339.731 216.04C340.283 215.44 340.487 214.888 340.547 214.132C340.547 213.04 339.839 212.548 338.795 212.548C338.147 212.548 337.631 212.728 337.259 213.088C336.887 213.448 336.635 213.88 336.527 214.372ZM342.795 215.8C342.795 214.504 343.095 213.46 343.707 212.68C344.307 211.9 345.195 211.504 346.359 211.504C348.747 211.504 349.935 213.076 349.935 215.8C349.935 217.108 349.635 218.14 349.047 218.92C348.447 219.7 347.559 220.096 346.383 220.096C345.255 220.096 344.379 219.7 343.743 218.908C343.107 218.116 342.795 217.084 342.795 215.8ZM343.899 215.8C343.899 217.852 344.835 219.076 346.383 219.076C348.015 219.076 348.831 217.984 348.831 215.8C348.831 213.616 348.003 212.524 346.359 212.524C344.691 212.524 343.899 213.724 343.899 215.8ZM351.791 214.372L350.915 214.06C351.215 212.572 352.343 211.504 354.131 211.504C355.859 211.504 356.915 212.5 356.915 214.024C356.915 214.828 356.567 215.632 356.135 216.208C355.919 216.508 355.643 216.796 355.319 217.096C354.659 217.684 354.191 217.996 353.507 218.428L352.583 219.004H357.227V220H350.687V219.184L352.511 217.972C352.835 217.768 353.063 217.612 353.195 217.516C353.327 217.432 353.543 217.276 353.831 217.072C354.119 216.868 354.335 216.688 354.479 216.556C354.611 216.424 354.791 216.256 354.995 216.04C355.547 215.44 355.751 214.888 355.811 214.132C355.811 213.04 355.103 212.548 354.059 212.548C353.411 212.548 352.895 212.728 352.523 213.088C352.151 213.448 351.899 213.88 351.791 214.372ZM358.887 214.048L357.987 213.64C358.431 212.344 359.595 211.492 361.335 211.492C362.163 211.492 362.847 211.684 363.375 212.068C363.903 212.452 364.167 212.968 364.167 213.604C364.167 214.576 363.651 215.296 362.691 215.572C363.615 215.632 364.359 216.328 364.359 217.576C364.359 218.368 364.071 218.992 363.495 219.436C362.919 219.88 362.187 220.108 361.287 220.108C359.451 220.108 358.179 219.232 357.759 217.852L358.731 217.432C359.247 218.524 360.123 219.076 361.359 219.076C362.523 219.076 363.255 218.536 363.255 217.588C363.255 216.664 362.535 216.196 361.095 216.196H360.159V215.2H360.903C362.211 215.2 363.063 214.612 363.063 213.808C363.063 212.98 362.379 212.512 361.287 212.512C360.003 212.512 359.223 213.172 358.887 214.048Z" fill="#1A3341" fill-opacity="0.6"/>
<path d="M322 106C322 104.895 322.895 104 324 104H376C377.105 104 378 104.895 378 106V205H322V106Z" fill="url(#paint6_linear_6004_39827)"/>
<path opacity="0.2" d="M334 104H366V205H334V104Z" fill="url(#paint7_linear_6004_39827)"/>
<path opacity="0.04" d="M366 104H376C377.105 104 378 104.895 378 106V205H366V104Z" fill="#0D262C"/>
<path opacity="0.5" d="M322 106C322 104.895 322.895 104 324 104H334V205H322V106Z" fill="url(#paint8_linear_6004_39827)"/>
<path d="M195.927 189.354C196.122 189.158 196.122 188.842 195.927 188.646L192.745 185.464C192.55 185.269 192.233 185.269 192.038 185.464C191.843 185.66 191.843 185.976 192.038 186.172L194.867 189L192.038 191.828C191.843 192.024 191.843 192.34 192.038 192.536C192.233 192.731 192.55 192.731 192.745 192.536L195.927 189.354ZM144.18 189.5L195.574 189.5L195.574 188.5L144.18 188.5L144.18 189.5Z" fill="#7DA4C1"/>
<path d="M161.906 176.136H156.338V175.236H161.906V176.136ZM164.056 174.372L163.18 174.06C163.48 172.56 164.56 171.504 166.336 171.504C168.064 171.504 169.06 172.5 169.06 174.024C169.024 175.284 168.436 176.28 167.548 177.084C166.924 177.672 166.432 178.008 165.772 178.428L164.848 179.004H169.372V180H163.072V179.184L164.776 177.972C165.772 177.264 166.42 176.772 166.72 176.496C167.548 175.74 167.956 174.948 167.956 174.132C167.956 173.028 167.284 172.548 166.264 172.548C164.968 172.548 164.296 173.364 164.056 174.372ZM172.379 180.18L171.587 179.724L177.791 171.336L178.547 171.888L172.379 180.18ZM170.291 173.616C170.291 173.016 170.495 172.524 170.915 172.14C171.335 171.756 171.851 171.564 172.487 171.564C173.111 171.564 173.627 171.756 174.047 172.14C174.467 172.524 174.671 173.016 174.671 173.616C174.671 174.204 174.467 174.696 174.047 175.08C173.627 175.464 173.111 175.656 172.487 175.656C171.851 175.656 171.335 175.464 170.915 175.08C170.495 174.696 170.291 174.204 170.291 173.616ZM171.299 173.616C171.299 174.3 171.851 174.804 172.487 174.804C173.147 174.804 173.663 174.324 173.663 173.616C173.663 172.908 173.123 172.428 172.487 172.428C171.827 172.428 171.299 172.908 171.299 173.616ZM176.063 179.472C175.643 179.088 175.439 178.596 175.439 177.996C175.439 177.396 175.643 176.904 176.063 176.52C176.483 176.148 176.999 175.956 177.635 175.956C178.259 175.956 178.775 176.148 179.195 176.52C179.615 176.904 179.819 177.396 179.819 177.996C179.819 178.584 179.615 179.076 179.195 179.46C178.775 179.856 178.259 180.048 177.635 180.048C176.999 180.048 176.483 179.856 176.063 179.472ZM176.447 177.996C176.447 178.68 176.999 179.184 177.635 179.184C178.295 179.184 178.811 178.704 178.811 177.996C178.811 177.288 178.271 176.808 177.635 176.808C176.975 176.808 176.447 177.288 176.447 177.996Z" fill="#7DA4C1"/>
<path d="M105.5 63L226 23.5L346 11.5" stroke="url(#paint9_linear_6004_39827)" stroke-width="5"/>
<circle cx="346" cy="12" r="7" fill="#64BBEA" stroke="white" stroke-width="2"/>
<circle cx="226" cy="23" r="7" fill="#64BBEA" stroke="white" stroke-width="2"/>
<circle cx="106" cy="63" r="7" fill="#64BBEA" stroke="white" stroke-width="2"/>
<path d="M96.728 49H92.218V48.17H94.348V43.03L92.558 43.86L92.238 43.11L94.638 41.96H95.208V48.17H96.728V49ZM98.7241 44.31L97.9941 44.05C98.2441 42.8 99.1441 41.92 100.624 41.92C102.064 41.92 102.894 42.75 102.894 44.02C102.864 45.07 102.374 45.9 101.634 46.57C101.114 47.06 100.704 47.34 100.154 47.69L99.3841 48.17H103.154V49H97.9041V48.32L99.3241 47.31C100.154 46.72 100.694 46.31 100.944 46.08C101.634 45.45 101.974 44.79 101.974 44.11C101.974 43.19 101.414 42.79 100.564 42.79C99.4841 42.79 98.9241 43.47 98.7241 44.31ZM103.99 48.43C103.99 48.15 104.25 47.87 104.61 47.87C104.94 47.87 105.21 48.15 105.21 48.43C105.21 48.75 104.96 49.02 104.61 49.02C104.25 49.02 103.99 48.75 103.99 48.43ZM106.927 44.04L106.177 43.7C106.597 42.51 107.497 41.91 108.867 41.91C109.557 41.91 110.127 42.07 110.567 42.39C111.007 42.71 111.227 43.14 111.227 43.67C111.227 44.48 110.797 45.08 109.997 45.31C110.767 45.36 111.387 45.94 111.387 46.98C111.387 47.64 111.147 48.16 110.667 48.53C110.187 48.9 109.577 49.09 108.827 49.09C107.307 49.09 106.347 48.37 105.987 47.21L106.797 46.86C107.197 47.73 107.727 48.23 108.887 48.23C109.857 48.23 110.467 47.78 110.467 46.99C110.467 46.22 109.867 45.83 108.667 45.83H107.887V45H108.507C109.597 45 110.307 44.51 110.307 43.84C110.307 43.15 109.737 42.76 108.827 42.76C107.897 42.76 107.257 43.19 106.927 44.04ZM113.873 49.15L113.213 48.77L118.383 41.78L119.013 42.24L113.873 49.15ZM112.133 43.68C112.133 43.18 112.303 42.77 112.653 42.45C113.003 42.13 113.433 41.97 113.963 41.97C114.483 41.97 114.913 42.13 115.263 42.45C115.613 42.77 115.783 43.18 115.783 43.68C115.783 44.17 115.613 44.58 115.263 44.9C114.913 45.22 114.483 45.38 113.963 45.38C113.433 45.38 113.003 45.22 112.653 44.9C112.303 44.58 112.133 44.17 112.133 43.68ZM112.973 43.68C112.973 44.25 113.433 44.67 113.963 44.67C114.513 44.67 114.943 44.27 114.943 43.68C114.943 43.09 114.493 42.69 113.963 42.69C113.413 42.69 112.973 43.09 112.973 43.68ZM116.943 48.56C116.593 48.24 116.423 47.83 116.423 47.33C116.423 46.83 116.593 46.42 116.943 46.1C117.293 45.79 117.723 45.63 118.253 45.63C118.773 45.63 119.203 45.79 119.553 46.1C119.903 46.42 120.073 46.83 120.073 47.33C120.073 47.82 119.903 48.23 119.553 48.55C119.203 48.88 118.773 49.04 118.253 49.04C117.723 49.04 117.293 48.88 116.943 48.56ZM117.263 47.33C117.263 47.9 117.723 48.32 118.253 48.32C118.803 48.32 119.233 47.92 119.233 47.33C119.233 46.74 118.783 46.34 118.253 46.34C117.703 46.34 117.263 46.74 117.263 47.33Z" fill="#357D94"/>
<path d="M216.728 10H212.218V9.17H214.348V4.03L212.558 4.86L212.238 4.11L214.638 2.96H215.208V9.17H216.728V10ZM222.314 10H221.444V8.57H217.664V7.99L221.544 3H222.314V7.76H223.414V8.57H222.314V10ZM221.444 4.4L218.864 7.76H221.444V4.4ZM223.99 9.43C223.99 9.15 224.25 8.87 224.61 8.87C224.94 8.87 225.21 9.15 225.21 9.43C225.21 9.75 224.96 10.02 224.61 10.02C224.25 10.02 223.99 9.75 223.99 9.43ZM230.937 10H226.427V9.17H228.557V4.03L226.767 4.86L226.447 4.11L228.847 2.96H229.417V9.17H230.937V10ZM233.873 10.15L233.213 9.77L238.383 2.78L239.013 3.24L233.873 10.15ZM232.133 4.68C232.133 4.18 232.303 3.77 232.653 3.45C233.003 3.13 233.433 2.97 233.963 2.97C234.483 2.97 234.913 3.13 235.263 3.45C235.613 3.77 235.783 4.18 235.783 4.68C235.783 5.17 235.613 5.58 235.263 5.9C234.913 6.22 234.483 6.38 233.963 6.38C233.433 6.38 233.003 6.22 232.653 5.9C232.303 5.58 232.133 5.17 232.133 4.68ZM232.973 4.68C232.973 5.25 233.433 5.67 233.963 5.67C234.513 5.67 234.943 5.27 234.943 4.68C234.943 4.09 234.493 3.69 233.963 3.69C233.413 3.69 232.973 4.09 232.973 4.68ZM236.943 9.56C236.593 9.24 236.423 8.83 236.423 8.33C236.423 7.83 236.593 7.42 236.943 7.1C237.293 6.79 237.723 6.63 238.253 6.63C238.773 6.63 239.203 6.79 239.553 7.1C239.903 7.42 240.073 7.83 240.073 8.33C240.073 8.82 239.903 9.23 239.553 9.55C239.203 9.88 238.773 10.04 238.253 10.04C237.723 10.04 237.293 9.88 236.943 9.56ZM237.263 8.33C237.263 8.9 237.723 9.32 238.253 9.32C238.803 9.32 239.233 8.92 239.233 8.33C239.233 7.74 238.783 7.34 238.253 7.34C237.703 7.34 237.263 7.74 237.263 8.33Z" fill="#357D94"/>
<path d="M338.728 34H334.218V33.17H336.348V28.03L334.558 28.86L334.238 28.11L336.638 26.96H337.208V33.17H338.728V34ZM344.314 34H343.444V32.57H339.664V31.99L343.544 27H344.314V31.76H345.414V32.57H344.314V34ZM343.444 28.4L340.864 31.76H343.444V28.4ZM345.99 33.43C345.99 33.15 346.25 32.87 346.61 32.87C346.94 32.87 347.21 33.15 347.21 33.43C347.21 33.75 346.96 34.02 346.61 34.02C346.25 34.02 345.99 33.75 345.99 33.43ZM348.927 29.04L348.177 28.7C348.597 27.51 349.497 26.91 350.867 26.91C351.557 26.91 352.127 27.07 352.567 27.39C353.007 27.71 353.227 28.14 353.227 28.67C353.227 29.48 352.797 30.08 351.997 30.31C352.767 30.36 353.387 30.94 353.387 31.98C353.387 32.64 353.147 33.16 352.667 33.53C352.187 33.9 351.577 34.09 350.827 34.09C349.307 34.09 348.347 33.37 347.987 32.21L348.797 31.86C349.197 32.73 349.727 33.23 350.887 33.23C351.857 33.23 352.467 32.78 352.467 31.99C352.467 31.22 351.867 30.83 350.667 30.83H349.887V30H350.507C351.597 30 352.307 29.51 352.307 28.84C352.307 28.15 351.737 27.76 350.827 27.76C349.897 27.76 349.257 28.19 348.927 29.04ZM355.873 34.15L355.213 33.77L360.383 26.78L361.013 27.24L355.873 34.15ZM354.133 28.68C354.133 28.18 354.303 27.77 354.653 27.45C355.003 27.13 355.433 26.97 355.963 26.97C356.483 26.97 356.913 27.13 357.263 27.45C357.613 27.77 357.783 28.18 357.783 28.68C357.783 29.17 357.613 29.58 357.263 29.9C356.913 30.22 356.483 30.38 355.963 30.38C355.433 30.38 355.003 30.22 354.653 29.9C354.303 29.58 354.133 29.17 354.133 28.68ZM354.973 28.68C354.973 29.25 355.433 29.67 355.963 29.67C356.513 29.67 356.943 29.27 356.943 28.68C356.943 28.09 356.493 27.69 355.963 27.69C355.413 27.69 354.973 28.09 354.973 28.68ZM358.943 33.56C358.593 33.24 358.423 32.83 358.423 32.33C358.423 31.83 358.593 31.42 358.943 31.1C359.293 30.79 359.723 30.63 360.253 30.63C360.773 30.63 361.203 30.79 361.553 31.1C361.903 31.42 362.073 31.83 362.073 32.33C362.073 32.82 361.903 33.23 361.553 33.55C361.203 33.88 360.773 34.04 360.253 34.04C359.723 34.04 359.293 33.88 358.943 33.56ZM359.263 32.33C359.263 32.9 359.723 33.32 360.253 33.32C360.803 33.32 361.233 32.92 361.233 32.33C361.233 31.74 360.783 31.34 360.253 31.34C359.703 31.34 359.263 31.74 359.263 32.33Z" fill="#357D94"/>
<path d="M315.141 189.354C315.336 189.158 315.336 188.842 315.141 188.646L311.959 185.464C311.764 185.269 311.447 185.269 311.252 185.464C311.057 185.66 311.057 185.976 311.252 186.172L314.08 189L311.252 191.828C311.057 192.024 311.057 192.34 311.252 192.536C311.447 192.731 311.764 192.731 311.959 192.536L315.141 189.354ZM264.363 189.5L314.788 189.5L314.788 188.5L264.363 188.5L264.363 189.5Z" fill="#318F73"/>
<path d="M280.145 176.136H277.877V175.224H280.145V172.944H281.093V175.224H283.385V176.136H281.093V178.44H280.145V176.136ZM285.662 174.372L284.786 174.06C285.086 172.56 286.166 171.504 287.942 171.504C289.67 171.504 290.666 172.5 290.666 174.024C290.63 175.284 290.042 176.28 289.154 177.084C288.53 177.672 288.038 178.008 287.378 178.428L286.454 179.004H290.978V180H284.678V179.184L286.382 177.972C287.378 177.264 288.026 176.772 288.326 176.496C289.154 175.74 289.562 174.948 289.562 174.132C289.562 173.028 288.89 172.548 287.87 172.548C286.574 172.548 285.902 173.364 285.662 174.372ZM293.985 180.18L293.193 179.724L299.397 171.336L300.153 171.888L293.985 180.18ZM291.897 173.616C291.897 173.016 292.101 172.524 292.521 172.14C292.941 171.756 293.457 171.564 294.093 171.564C294.717 171.564 295.233 171.756 295.653 172.14C296.073 172.524 296.277 173.016 296.277 173.616C296.277 174.204 296.073 174.696 295.653 175.08C295.233 175.464 294.717 175.656 294.093 175.656C293.457 175.656 292.941 175.464 292.521 175.08C292.101 174.696 291.897 174.204 291.897 173.616ZM292.905 173.616C292.905 174.3 293.457 174.804 294.093 174.804C294.753 174.804 295.269 174.324 295.269 173.616C295.269 172.908 294.729 172.428 294.093 172.428C293.433 172.428 292.905 172.908 292.905 173.616ZM297.669 179.472C297.249 179.088 297.045 178.596 297.045 177.996C297.045 177.396 297.249 176.904 297.669 176.52C298.089 176.148 298.605 175.956 299.241 175.956C299.865 175.956 300.381 176.148 300.801 176.52C301.221 176.904 301.425 177.396 301.425 177.996C301.425 178.584 301.221 179.076 300.801 179.46C300.381 179.856 299.865 180.048 299.241 180.048C298.605 180.048 298.089 179.856 297.669 179.472ZM298.053 177.996C298.053 178.68 298.605 179.184 299.241 179.184C299.901 179.184 300.417 178.704 300.417 177.996C300.417 177.288 299.877 176.808 299.241 176.808C298.581 176.808 298.053 177.288 298.053 177.996Z" fill="#318F73"/>
<line y1="204.5" x2="448" y2="204.5" stroke="#ABBEC9"/>
<defs>
<linearGradient id="paint0_linear_6004_39827" x1="110" y1="97" x2="110" y2="205" gradientUnits="userSpaceOnUse">
<stop stop-color="#45B8DB"/>
<stop offset="1" stop-color="#ADE4E4"/>
</linearGradient>
<linearGradient id="paint1_linear_6004_39827" x1="110" y1="97" x2="110" y2="205" gradientUnits="userSpaceOnUse">
<stop stop-color="white" stop-opacity="0"/>
<stop offset="0.739583" stop-color="white"/>
</linearGradient>
<linearGradient id="paint2_linear_6004_39827" x1="88" y1="-113.6" x2="88" y2="205" gradientUnits="userSpaceOnUse">
<stop stop-color="white" stop-opacity="0.05"/>
<stop offset="0.75" stop-color="white" stop-opacity="0.8"/>
</linearGradient>
<linearGradient id="paint3_linear_6004_39827" x1="230" y1="111" x2="230" y2="205" gradientUnits="userSpaceOnUse">
<stop stop-color="#45B8DB"/>
<stop offset="1" stop-color="#ADE4E4"/>
</linearGradient>
<linearGradient id="paint4_linear_6004_39827" x1="230" y1="111" x2="230" y2="205" gradientUnits="userSpaceOnUse">
<stop stop-color="white" stop-opacity="0"/>
<stop offset="0.739583" stop-color="white"/>
</linearGradient>
<linearGradient id="paint5_linear_6004_39827" x1="208" y1="-72.3" x2="208" y2="205" gradientUnits="userSpaceOnUse">
<stop stop-color="white" stop-opacity="0.05"/>
<stop offset="0.75" stop-color="white" stop-opacity="0.8"/>
</linearGradient>
<linearGradient id="paint6_linear_6004_39827" x1="350" y1="104" x2="350" y2="205" gradientUnits="userSpaceOnUse">
<stop stop-color="#45B8DB"/>
<stop offset="1" stop-color="#ADE4E4"/>
</linearGradient>
<linearGradient id="paint7_linear_6004_39827" x1="350" y1="104" x2="350" y2="205" gradientUnits="userSpaceOnUse">
<stop stop-color="white" stop-opacity="0"/>
<stop offset="0.739583" stop-color="white"/>
</linearGradient>
<linearGradient id="paint8_linear_6004_39827" x1="328" y1="-92.95" x2="328" y2="205" gradientUnits="userSpaceOnUse">
<stop stop-color="white" stop-opacity="0.05"/>
<stop offset="0.75" stop-color="white" stop-opacity="0.8"/>
</linearGradient>
<linearGradient id="paint9_linear_6004_39827" x1="346" y1="11.5" x2="105.5" y2="11.5" gradientUnits="userSpaceOnUse">
<stop stop-color="#56BCF6"/>
<stop offset="1" stop-color="#A2DEE7"/>
</linearGradient>
</defs>
</svg>
