<svg width="335" height="221" viewBox="0 0 335 221" fill="none" xmlns="http://www.w3.org/2000/svg">
<path d="M25.7792 78.39H19.8432V77.2H27.2772V77.998L22.4052 87H21.0752L25.7792 78.39ZM28.1136 87C27.5956 87.056 27.2036 86.762 27.2036 86.258C27.2036 85.768 27.5116 85.46 28.0576 85.46C28.6736 85.46 29.0796 85.88 29.0796 86.664C29.0796 88.064 28.3096 88.778 27.2876 89.016L26.9936 88.358C27.3016 88.274 27.5816 88.106 27.8336 87.84C28.0716 87.574 28.1696 87.294 28.1136 87ZM38.2461 81.918C38.2461 83.584 37.8541 84.872 37.0561 85.768C36.2581 86.678 35.1941 87.126 33.8641 87.126C32.2401 87.126 30.9661 86.44 30.3361 85.39L31.3441 84.69C31.9041 85.474 32.9261 85.922 34.0321 85.922C34.9421 85.922 35.6701 85.558 36.2441 84.83C36.8181 84.116 37.0561 83.22 36.9861 82.156C36.5241 83.22 35.3621 84.004 33.8081 84.004C32.7161 84.004 31.8201 83.696 31.1201 83.066C30.4061 82.45 30.0561 81.638 30.0561 80.644C30.0561 79.552 30.4341 78.684 31.1901 78.04C31.9461 77.396 32.9541 77.074 34.2001 77.074C36.7201 77.074 38.2461 78.838 38.2461 81.918ZM36.7761 80.602C36.5661 79.3 35.6701 78.278 34.0601 78.278C32.3801 78.278 31.3441 79.146 31.3441 80.602C31.3441 81.988 32.3941 82.8 34.0321 82.8C34.7741 82.8 35.4041 82.576 35.8941 82.128C36.3841 81.68 36.6781 81.176 36.7761 80.602ZM39.296 82.366C39.296 80.672 39.716 79.37 40.542 78.446C41.368 77.536 42.404 77.074 43.65 77.074C45.288 77.074 46.576 77.816 47.122 78.992L46.17 79.636C45.596 78.726 44.742 78.278 43.594 78.278C42.726 78.278 41.998 78.614 41.41 79.286C40.822 79.972 40.528 80.896 40.542 82.086C41.088 81.064 42.362 80.448 43.762 80.448C44.896 80.448 45.806 80.742 46.464 81.344C47.122 81.946 47.458 82.744 47.458 83.724C47.458 84.718 47.094 85.544 46.352 86.174C45.61 86.804 44.686 87.126 43.58 87.126C40.934 87.126 39.296 85.404 39.296 82.366ZM40.696 83.556C40.962 84.942 42.012 85.922 43.566 85.922C44.322 85.922 44.952 85.726 45.442 85.32C45.932 84.928 46.17 84.41 46.17 83.78C46.17 82.394 45.19 81.652 43.692 81.652C42.866 81.652 42.18 81.848 41.648 82.24C41.102 82.632 40.794 83.066 40.696 83.556ZM49.5865 80.434L48.5645 80.07C48.9145 78.334 50.2305 77.088 52.3165 77.088C54.3325 77.088 55.5645 78.25 55.5645 80.028C55.5645 80.966 55.1585 81.904 54.6545 82.576C54.4025 82.926 54.0805 83.262 53.7025 83.612C52.9325 84.298 52.3865 84.662 51.5885 85.166L50.5105 85.838H55.9285V87H48.2985V86.048L50.4265 84.634C50.8045 84.396 51.0705 84.214 51.2245 84.102C51.3785 84.004 51.6305 83.822 51.9665 83.584C52.3025 83.346 52.5545 83.136 52.7225 82.982C52.8765 82.828 53.0865 82.632 53.3245 82.38C53.9685 81.68 54.2065 81.036 54.2765 80.154C54.2765 78.88 53.4505 78.306 52.2325 78.306C51.4765 78.306 50.8745 78.516 50.4405 78.936C50.0065 79.356 49.7125 79.86 49.5865 80.434Z" fill="#1A3341"/>
<path d="M25.863 214.372L24.987 214.06C25.287 212.572 26.415 211.504 28.203 211.504C29.931 211.504 30.987 212.5 30.987 214.024C30.987 214.828 30.639 215.632 30.207 216.208C29.991 216.508 29.715 216.796 29.391 217.096C28.731 217.684 28.263 217.996 27.579 218.428L26.655 219.004H31.299V220H24.759V219.184L26.583 217.972C26.907 217.768 27.135 217.612 27.267 217.516C27.399 217.432 27.615 217.276 27.903 217.072C28.191 216.868 28.407 216.688 28.551 216.556C28.683 216.424 28.863 216.256 29.067 216.04C29.619 215.44 29.823 214.888 29.883 214.132C29.883 213.04 29.175 212.548 28.131 212.548C27.483 212.548 26.967 212.728 26.595 213.088C26.223 213.448 25.971 213.88 25.863 214.372ZM32.1307 215.8C32.1307 214.504 32.4307 213.46 33.0427 212.68C33.6427 211.9 34.5307 211.504 35.6947 211.504C38.0827 211.504 39.2707 213.076 39.2707 215.8C39.2707 217.108 38.9707 218.14 38.3827 218.92C37.7827 219.7 36.8947 220.096 35.7187 220.096C34.5907 220.096 33.7147 219.7 33.0787 218.908C32.4427 218.116 32.1307 217.084 32.1307 215.8ZM33.2347 215.8C33.2347 217.852 34.1707 219.076 35.7187 219.076C37.3507 219.076 38.1667 217.984 38.1667 215.8C38.1667 213.616 37.3387 212.524 35.6947 212.524C34.0267 212.524 33.2347 213.724 33.2347 215.8ZM41.1269 214.372L40.2509 214.06C40.5509 212.572 41.6789 211.504 43.4669 211.504C45.1949 211.504 46.2509 212.5 46.2509 214.024C46.2509 214.828 45.9029 215.632 45.4709 216.208C45.2549 216.508 44.9789 216.796 44.6549 217.096C43.9949 217.684 43.5269 217.996 42.8429 218.428L41.9189 219.004H46.5629V220H40.0229V219.184L41.8469 217.972C42.1709 217.768 42.3989 217.612 42.5309 217.516C42.6629 217.432 42.8789 217.276 43.1669 217.072C43.4549 216.868 43.6709 216.688 43.8149 216.556C43.9469 216.424 44.1269 216.256 44.3309 216.04C44.8829 215.44 45.0869 214.888 45.1469 214.132C45.1469 213.04 44.4389 212.548 43.3949 212.548C42.7469 212.548 42.2309 212.728 41.8589 213.088C41.4869 213.448 41.2349 213.88 41.1269 214.372ZM47.2986 213.832L46.9146 212.932L49.7946 211.552H50.4786V220H49.4466V212.836L47.2986 213.832Z" fill="#1A3341" fill-opacity="0.6"/>
<path d="M10 99C10 97.8954 10.8954 97 12 97H64C65.1046 97 66 97.8954 66 99V205H10V99Z" fill="url(#paint0_linear_6004_39828)"/>
<path opacity="0.2" d="M22 97H54V205H22V97Z" fill="url(#paint1_linear_6004_39828)"/>
<path opacity="0.04" d="M54 97H64C65.1046 97 66 97.8954 66 99V205H54V97Z" fill="#0D262C"/>
<path opacity="0.5" d="M10 99C10 97.8954 10.8954 97 12 97H22V205H10V99Z" fill="url(#paint2_linear_6004_39828)"/>
<path d="M147.673 92.39H141.737V91.2H149.171V91.998L144.299 101H142.969L147.673 92.39ZM150.007 101C149.489 101.056 149.097 100.762 149.097 100.258C149.097 99.768 149.405 99.46 149.951 99.46C150.567 99.46 150.973 99.88 150.973 100.664C150.973 102.064 150.203 102.778 149.181 103.016L148.887 102.358C149.195 102.274 149.475 102.106 149.727 101.84C149.965 101.574 150.063 101.294 150.007 101ZM155.856 95.414H156.29C156.92 95.414 157.438 95.26 157.872 94.966C158.292 94.672 158.502 94.28 158.502 93.818C158.502 92.768 157.676 92.236 156.038 92.236C154.47 92.236 153.616 92.81 153.616 93.818C153.616 94.728 154.554 95.414 155.856 95.414ZM156.262 96.52H155.912C155.156 96.52 154.526 96.688 154.036 97.01C153.546 97.332 153.294 97.738 153.294 98.228C153.294 99.292 154.274 99.964 156.052 99.964C157.858 99.964 158.824 99.32 158.824 98.242C158.824 97.164 157.788 96.52 156.262 96.52ZM159.02 100.37C158.306 100.874 157.312 101.126 156.066 101.126C154.82 101.126 153.826 100.874 153.098 100.384C152.37 99.894 152.006 99.222 152.006 98.354C152.006 97.22 152.748 96.324 153.938 95.932C152.86 95.582 152.328 94.728 152.328 93.734C152.328 92.11 153.7 91.074 156.052 91.074C158.418 91.074 159.79 92.11 159.79 93.734C159.79 94.672 159.272 95.386 158.236 95.862C159.482 96.24 160.098 97.052 160.098 98.298C160.098 99.18 159.734 99.88 159.02 100.37ZM161.078 93.804L160.63 92.754L163.99 91.144H164.788V101H163.584V92.642L161.078 93.804ZM167.693 94.434L166.671 94.07C167.021 92.334 168.337 91.088 170.423 91.088C172.439 91.088 173.671 92.25 173.671 94.028C173.671 94.966 173.265 95.904 172.761 96.576C172.509 96.926 172.187 97.262 171.809 97.612C171.039 98.298 170.493 98.662 169.695 99.166L168.617 99.838H174.035V101H166.405V100.048L168.533 98.634C168.911 98.396 169.177 98.214 169.331 98.102C169.485 98.004 169.737 97.822 170.073 97.584C170.409 97.346 170.661 97.136 170.829 96.982C170.983 96.828 171.193 96.632 171.431 96.38C172.075 95.68 172.313 95.036 172.383 94.154C172.383 92.88 171.557 92.306 170.339 92.306C169.583 92.306 168.981 92.516 168.547 92.936C168.113 93.356 167.819 93.86 167.693 94.434Z" fill="#1A3341"/>
<path d="M144.556 214.372L143.68 214.06C143.98 212.572 145.108 211.504 146.896 211.504C148.624 211.504 149.68 212.5 149.68 214.024C149.68 214.828 149.332 215.632 148.9 216.208C148.684 216.508 148.408 216.796 148.084 217.096C147.424 217.684 146.956 217.996 146.272 218.428L145.348 219.004H149.992V220H143.452V219.184L145.276 217.972C145.6 217.768 145.828 217.612 145.96 217.516C146.092 217.432 146.308 217.276 146.596 217.072C146.884 216.868 147.1 216.688 147.244 216.556C147.376 216.424 147.556 216.256 147.76 216.04C148.312 215.44 148.516 214.888 148.576 214.132C148.576 213.04 147.868 212.548 146.824 212.548C146.176 212.548 145.66 212.728 145.288 213.088C144.916 213.448 144.664 213.88 144.556 214.372ZM150.824 215.8C150.824 214.504 151.124 213.46 151.736 212.68C152.336 211.9 153.224 211.504 154.388 211.504C156.776 211.504 157.964 213.076 157.964 215.8C157.964 217.108 157.664 218.14 157.076 218.92C156.476 219.7 155.588 220.096 154.412 220.096C153.284 220.096 152.408 219.7 151.772 218.908C151.136 218.116 150.824 217.084 150.824 215.8ZM151.928 215.8C151.928 217.852 152.864 219.076 154.412 219.076C156.044 219.076 156.86 217.984 156.86 215.8C156.86 213.616 156.032 212.524 154.388 212.524C152.72 212.524 151.928 213.724 151.928 215.8ZM159.82 214.372L158.944 214.06C159.244 212.572 160.372 211.504 162.16 211.504C163.888 211.504 164.944 212.5 164.944 214.024C164.944 214.828 164.596 215.632 164.164 216.208C163.948 216.508 163.672 216.796 163.348 217.096C162.688 217.684 162.22 217.996 161.536 218.428L160.612 219.004H165.256V220H158.716V219.184L160.54 217.972C160.864 217.768 161.092 217.612 161.224 217.516C161.356 217.432 161.572 217.276 161.86 217.072C162.148 216.868 162.364 216.688 162.508 216.556C162.64 216.424 162.82 216.256 163.024 216.04C163.576 215.44 163.78 214.888 163.84 214.132C163.84 213.04 163.132 212.548 162.088 212.548C161.44 212.548 160.924 212.728 160.552 213.088C160.18 213.448 159.928 213.88 159.82 214.372ZM167.048 214.372L166.172 214.06C166.472 212.572 167.6 211.504 169.388 211.504C171.116 211.504 172.172 212.5 172.172 214.024C172.172 214.828 171.824 215.632 171.392 216.208C171.176 216.508 170.9 216.796 170.576 217.096C169.916 217.684 169.448 217.996 168.764 218.428L167.84 219.004H172.484V220H165.944V219.184L167.768 217.972C168.092 217.768 168.32 217.612 168.452 217.516C168.584 217.432 168.8 217.276 169.088 217.072C169.376 216.868 169.592 216.688 169.736 216.556C169.868 216.424 170.048 216.256 170.252 216.04C170.804 215.44 171.008 214.888 171.068 214.132C171.068 213.04 170.36 212.548 169.316 212.548C168.668 212.548 168.152 212.728 167.78 213.088C167.408 213.448 167.156 213.88 167.048 214.372Z" fill="#1A3341" fill-opacity="0.6"/>
<path d="M130 113C130 111.895 130.895 111 132 111H184C185.105 111 186 111.895 186 113V205H130V113Z" fill="url(#paint3_linear_6004_39828)"/>
<path opacity="0.2" d="M142 111H174V205H142V111Z" fill="url(#paint4_linear_6004_39828)"/>
<path opacity="0.04" d="M174 111H184C185.105 111 186 111.895 186 113V205H174V111Z" fill="#0D262C"/>
<path opacity="0.5" d="M130 113C130 111.895 130.895 111 132 111H142V205H130V113Z" fill="url(#paint5_linear_6004_39828)"/>
<path d="M265.349 85.39H259.413V84.2H266.847V84.998L261.975 94H260.645L265.349 85.39ZM267.683 94C267.165 94.056 266.773 93.762 266.773 93.258C266.773 92.768 267.081 92.46 267.627 92.46C268.243 92.46 268.649 92.88 268.649 93.664C268.649 95.064 267.879 95.778 266.857 96.016L266.563 95.358C266.871 95.274 267.151 95.106 267.403 94.84C267.641 94.574 267.739 94.294 267.683 94ZM277.815 88.918C277.815 90.584 277.423 91.872 276.625 92.768C275.827 93.678 274.763 94.126 273.433 94.126C271.809 94.126 270.535 93.44 269.905 92.39L270.913 91.69C271.473 92.474 272.495 92.922 273.601 92.922C274.511 92.922 275.239 92.558 275.813 91.83C276.387 91.116 276.625 90.22 276.555 89.156C276.093 90.22 274.931 91.004 273.377 91.004C272.285 91.004 271.389 90.696 270.689 90.066C269.975 89.45 269.625 88.638 269.625 87.644C269.625 86.552 270.003 85.684 270.759 85.04C271.515 84.396 272.523 84.074 273.769 84.074C276.289 84.074 277.815 85.838 277.815 88.918ZM276.345 87.602C276.135 86.3 275.239 85.278 273.629 85.278C271.949 85.278 270.913 86.146 270.913 87.602C270.913 88.988 271.963 89.8 273.601 89.8C274.343 89.8 274.973 89.576 275.463 89.128C275.953 88.68 276.247 88.176 276.345 87.602ZM285.627 94H284.409V91.998H278.417V91.186L284.549 84.2H285.627V90.864H287.447V91.998H285.627V94ZM284.409 86.16L280.097 90.864H284.409V86.16ZM296.28 88.918C296.28 90.584 295.888 91.872 295.09 92.768C294.292 93.678 293.228 94.126 291.898 94.126C290.274 94.126 289 93.44 288.37 92.39L289.378 91.69C289.938 92.474 290.96 92.922 292.066 92.922C292.976 92.922 293.704 92.558 294.278 91.83C294.852 91.116 295.09 90.22 295.02 89.156C294.558 90.22 293.396 91.004 291.842 91.004C290.75 91.004 289.854 90.696 289.154 90.066C288.44 89.45 288.09 88.638 288.09 87.644C288.09 86.552 288.468 85.684 289.224 85.04C289.98 84.396 290.988 84.074 292.234 84.074C294.754 84.074 296.28 85.838 296.28 88.918ZM294.81 87.602C294.6 86.3 293.704 85.278 292.094 85.278C290.414 85.278 289.378 86.146 289.378 87.602C289.378 88.988 290.428 89.8 292.066 89.8C292.808 89.8 293.438 89.576 293.928 89.128C294.418 88.68 294.712 88.176 294.81 87.602Z" fill="#1A3341"/>
<path d="M264.527 214.372L263.651 214.06C263.951 212.572 265.079 211.504 266.867 211.504C268.595 211.504 269.651 212.5 269.651 214.024C269.651 214.828 269.303 215.632 268.871 216.208C268.655 216.508 268.379 216.796 268.055 217.096C267.395 217.684 266.927 217.996 266.243 218.428L265.319 219.004H269.963V220H263.423V219.184L265.247 217.972C265.571 217.768 265.799 217.612 265.931 217.516C266.063 217.432 266.279 217.276 266.567 217.072C266.855 216.868 267.071 216.688 267.215 216.556C267.347 216.424 267.527 216.256 267.731 216.04C268.283 215.44 268.487 214.888 268.547 214.132C268.547 213.04 267.839 212.548 266.795 212.548C266.147 212.548 265.631 212.728 265.259 213.088C264.887 213.448 264.635 213.88 264.527 214.372ZM270.795 215.8C270.795 214.504 271.095 213.46 271.707 212.68C272.307 211.9 273.195 211.504 274.359 211.504C276.747 211.504 277.935 213.076 277.935 215.8C277.935 217.108 277.635 218.14 277.047 218.92C276.447 219.7 275.559 220.096 274.383 220.096C273.255 220.096 272.379 219.7 271.743 218.908C271.107 218.116 270.795 217.084 270.795 215.8ZM271.899 215.8C271.899 217.852 272.835 219.076 274.383 219.076C276.015 219.076 276.831 217.984 276.831 215.8C276.831 213.616 276.003 212.524 274.359 212.524C272.691 212.524 271.899 213.724 271.899 215.8ZM279.791 214.372L278.915 214.06C279.215 212.572 280.343 211.504 282.131 211.504C283.859 211.504 284.915 212.5 284.915 214.024C284.915 214.828 284.567 215.632 284.135 216.208C283.919 216.508 283.643 216.796 283.319 217.096C282.659 217.684 282.191 217.996 281.507 218.428L280.583 219.004H285.227V220H278.687V219.184L280.511 217.972C280.835 217.768 281.063 217.612 281.195 217.516C281.327 217.432 281.543 217.276 281.831 217.072C282.119 216.868 282.335 216.688 282.479 216.556C282.611 216.424 282.791 216.256 282.995 216.04C283.547 215.44 283.751 214.888 283.811 214.132C283.811 213.04 283.103 212.548 282.059 212.548C281.411 212.548 280.895 212.728 280.523 213.088C280.151 213.448 279.899 213.88 279.791 214.372ZM286.887 214.048L285.987 213.64C286.431 212.344 287.595 211.492 289.335 211.492C290.163 211.492 290.847 211.684 291.375 212.068C291.903 212.452 292.167 212.968 292.167 213.604C292.167 214.576 291.651 215.296 290.691 215.572C291.615 215.632 292.359 216.328 292.359 217.576C292.359 218.368 292.071 218.992 291.495 219.436C290.919 219.88 290.187 220.108 289.287 220.108C287.451 220.108 286.179 219.232 285.759 217.852L286.731 217.432C287.247 218.524 288.123 219.076 289.359 219.076C290.523 219.076 291.255 218.536 291.255 217.588C291.255 216.664 290.535 216.196 289.095 216.196H288.159V215.2H288.903C290.211 215.2 291.063 214.612 291.063 213.808C291.063 212.98 290.379 212.512 289.287 212.512C288.003 212.512 287.223 213.172 286.887 214.048Z" fill="#1A3341" fill-opacity="0.6"/>
<path d="M250 106C250 104.895 250.895 104 252 104H304C305.105 104 306 104.895 306 106V205H250V106Z" fill="url(#paint6_linear_6004_39828)"/>
<path opacity="0.2" d="M262 104H294V205H262V104Z" fill="url(#paint7_linear_6004_39828)"/>
<path opacity="0.04" d="M294 104H304C305.105 104 306 104.895 306 106V205H294V104Z" fill="#0D262C"/>
<path opacity="0.5" d="M250 106C250 104.895 250.895 104 252 104H262V205H250V106Z" fill="url(#paint8_linear_6004_39828)"/>
<path d="M123.927 189.354C124.122 189.158 124.122 188.842 123.927 188.646L120.745 185.464C120.55 185.269 120.233 185.269 120.038 185.464C119.843 185.66 119.843 185.976 120.038 186.172L122.867 189L120.038 191.828C119.843 192.024 119.843 192.34 120.038 192.536C120.233 192.731 120.55 192.731 120.745 192.536L123.927 189.354ZM72.1797 189.5L123.574 189.5L123.574 188.5L72.1797 188.5L72.1797 189.5Z" fill="#7DA4C1"/>
<path d="M89.906 176.136H84.338V175.236H89.906V176.136ZM92.0561 174.372L91.1801 174.06C91.4801 172.56 92.5601 171.504 94.3361 171.504C96.0641 171.504 97.0601 172.5 97.0601 174.024C97.0241 175.284 96.4361 176.28 95.5481 177.084C94.9241 177.672 94.4321 178.008 93.7721 178.428L92.8481 179.004H97.3721V180H91.0721V179.184L92.7761 177.972C93.7721 177.264 94.4201 176.772 94.7201 176.496C95.5481 175.74 95.9561 174.948 95.9561 174.132C95.9561 173.028 95.2841 172.548 94.2641 172.548C92.9681 172.548 92.2961 173.364 92.0561 174.372ZM100.379 180.18L99.5874 179.724L105.791 171.336L106.547 171.888L100.379 180.18ZM98.2914 173.616C98.2914 173.016 98.4954 172.524 98.9154 172.14C99.3354 171.756 99.8514 171.564 100.487 171.564C101.111 171.564 101.627 171.756 102.047 172.14C102.467 172.524 102.671 173.016 102.671 173.616C102.671 174.204 102.467 174.696 102.047 175.08C101.627 175.464 101.111 175.656 100.487 175.656C99.8514 175.656 99.3354 175.464 98.9154 175.08C98.4954 174.696 98.2914 174.204 98.2914 173.616ZM99.2994 173.616C99.2994 174.3 99.8514 174.804 100.487 174.804C101.147 174.804 101.663 174.324 101.663 173.616C101.663 172.908 101.123 172.428 100.487 172.428C99.8274 172.428 99.2994 172.908 99.2994 173.616ZM104.063 179.472C103.643 179.088 103.439 178.596 103.439 177.996C103.439 177.396 103.643 176.904 104.063 176.52C104.483 176.148 104.999 175.956 105.635 175.956C106.259 175.956 106.775 176.148 107.195 176.52C107.615 176.904 107.819 177.396 107.819 177.996C107.819 178.584 107.615 179.076 107.195 179.46C106.775 179.856 106.259 180.048 105.635 180.048C104.999 180.048 104.483 179.856 104.063 179.472ZM104.447 177.996C104.447 178.68 104.999 179.184 105.635 179.184C106.295 179.184 106.811 178.704 106.811 177.996C106.811 177.288 106.271 176.808 105.635 176.808C104.975 176.808 104.447 177.288 104.447 177.996Z" fill="#7DA4C1"/>
<path d="M33.5 63L154 23.5L274 11.5" stroke="url(#paint9_linear_6004_39828)" stroke-width="5"/>
<circle cx="274" cy="12" r="7" fill="#64BBEA" stroke="white" stroke-width="2"/>
<circle cx="154" cy="23" r="7" fill="#64BBEA" stroke="white" stroke-width="2"/>
<circle cx="34" cy="63" r="7" fill="#64BBEA" stroke="white" stroke-width="2"/>
<path d="M24.728 49H20.218V48.17H22.348V43.03L20.558 43.86L20.238 43.11L22.638 41.96H23.208V48.17H24.728V49ZM26.7241 44.31L25.9941 44.05C26.2441 42.8 27.1441 41.92 28.6241 41.92C30.0641 41.92 30.8941 42.75 30.8941 44.02C30.8641 45.07 30.3741 45.9 29.6341 46.57C29.1141 47.06 28.7041 47.34 28.1541 47.69L27.3841 48.17H31.1541V49H25.9041V48.32L27.3241 47.31C28.1541 46.72 28.6941 46.31 28.9441 46.08C29.6341 45.45 29.9741 44.79 29.9741 44.11C29.9741 43.19 29.4141 42.79 28.5641 42.79C27.4841 42.79 26.9241 43.47 26.7241 44.31ZM31.9902 48.43C31.9902 48.15 32.2502 47.87 32.6102 47.87C32.9402 47.87 33.2102 48.15 33.2102 48.43C33.2102 48.75 32.9602 49.02 32.6102 49.02C32.2502 49.02 31.9902 48.75 31.9902 48.43ZM34.927 44.04L34.177 43.7C34.597 42.51 35.497 41.91 36.867 41.91C37.557 41.91 38.127 42.07 38.567 42.39C39.007 42.71 39.227 43.14 39.227 43.67C39.227 44.48 38.797 45.08 37.997 45.31C38.767 45.36 39.387 45.94 39.387 46.98C39.387 47.64 39.147 48.16 38.667 48.53C38.187 48.9 37.577 49.09 36.827 49.09C35.307 49.09 34.347 48.37 33.987 47.21L34.797 46.86C35.197 47.73 35.727 48.23 36.887 48.23C37.857 48.23 38.467 47.78 38.467 46.99C38.467 46.22 37.867 45.83 36.667 45.83H35.887V45H36.507C37.597 45 38.307 44.51 38.307 43.84C38.307 43.15 37.737 42.76 36.827 42.76C35.897 42.76 35.257 43.19 34.927 44.04ZM41.8731 49.15L41.2131 48.77L46.3831 41.78L47.0131 42.24L41.8731 49.15ZM40.1331 43.68C40.1331 43.18 40.3031 42.77 40.6531 42.45C41.0031 42.13 41.4331 41.97 41.9631 41.97C42.4831 41.97 42.9131 42.13 43.2631 42.45C43.6131 42.77 43.7831 43.18 43.7831 43.68C43.7831 44.17 43.6131 44.58 43.2631 44.9C42.9131 45.22 42.4831 45.38 41.9631 45.38C41.4331 45.38 41.0031 45.22 40.6531 44.9C40.3031 44.58 40.1331 44.17 40.1331 43.68ZM40.9731 43.68C40.9731 44.25 41.4331 44.67 41.9631 44.67C42.5131 44.67 42.9431 44.27 42.9431 43.68C42.9431 43.09 42.4931 42.69 41.9631 42.69C41.4131 42.69 40.9731 43.09 40.9731 43.68ZM44.9431 48.56C44.5931 48.24 44.4231 47.83 44.4231 47.33C44.4231 46.83 44.5931 46.42 44.9431 46.1C45.2931 45.79 45.7231 45.63 46.2531 45.63C46.7731 45.63 47.2031 45.79 47.5531 46.1C47.9031 46.42 48.0731 46.83 48.0731 47.33C48.0731 47.82 47.9031 48.23 47.5531 48.55C47.2031 48.88 46.7731 49.04 46.2531 49.04C45.7231 49.04 45.2931 48.88 44.9431 48.56ZM45.2631 47.33C45.2631 47.9 45.7231 48.32 46.2531 48.32C46.8031 48.32 47.2331 47.92 47.2331 47.33C47.2331 46.74 46.7831 46.34 46.2531 46.34C45.7031 46.34 45.2631 46.74 45.2631 47.33Z" fill="#357D94"/>
<path d="M144.728 10H140.218V9.17H142.348V4.03L140.558 4.86L140.238 4.11L142.638 2.96H143.208V9.17H144.728V10ZM150.314 10H149.444V8.57H145.664V7.99L149.544 3H150.314V7.76H151.414V8.57H150.314V10ZM149.444 4.4L146.864 7.76H149.444V4.4ZM151.99 9.43C151.99 9.15 152.25 8.87 152.61 8.87C152.94 8.87 153.21 9.15 153.21 9.43C153.21 9.75 152.96 10.02 152.61 10.02C152.25 10.02 151.99 9.75 151.99 9.43ZM158.937 10H154.427V9.17H156.557V4.03L154.767 4.86L154.447 4.11L156.847 2.96H157.417V9.17H158.937V10ZM161.873 10.15L161.213 9.77L166.383 2.78L167.013 3.24L161.873 10.15ZM160.133 4.68C160.133 4.18 160.303 3.77 160.653 3.45C161.003 3.13 161.433 2.97 161.963 2.97C162.483 2.97 162.913 3.13 163.263 3.45C163.613 3.77 163.783 4.18 163.783 4.68C163.783 5.17 163.613 5.58 163.263 5.9C162.913 6.22 162.483 6.38 161.963 6.38C161.433 6.38 161.003 6.22 160.653 5.9C160.303 5.58 160.133 5.17 160.133 4.68ZM160.973 4.68C160.973 5.25 161.433 5.67 161.963 5.67C162.513 5.67 162.943 5.27 162.943 4.68C162.943 4.09 162.493 3.69 161.963 3.69C161.413 3.69 160.973 4.09 160.973 4.68ZM164.943 9.56C164.593 9.24 164.423 8.83 164.423 8.33C164.423 7.83 164.593 7.42 164.943 7.1C165.293 6.79 165.723 6.63 166.253 6.63C166.773 6.63 167.203 6.79 167.553 7.1C167.903 7.42 168.073 7.83 168.073 8.33C168.073 8.82 167.903 9.23 167.553 9.55C167.203 9.88 166.773 10.04 166.253 10.04C165.723 10.04 165.293 9.88 164.943 9.56ZM165.263 8.33C165.263 8.9 165.723 9.32 166.253 9.32C166.803 9.32 167.233 8.92 167.233 8.33C167.233 7.74 166.783 7.34 166.253 7.34C165.703 7.34 165.263 7.74 165.263 8.33Z" fill="#357D94"/>
<path d="M266.728 34H262.218V33.17H264.348V28.03L262.558 28.86L262.238 28.11L264.638 26.96H265.208V33.17H266.728V34ZM272.314 34H271.444V32.57H267.664V31.99L271.544 27H272.314V31.76H273.414V32.57H272.314V34ZM271.444 28.4L268.864 31.76H271.444V28.4ZM273.99 33.43C273.99 33.15 274.25 32.87 274.61 32.87C274.94 32.87 275.21 33.15 275.21 33.43C275.21 33.75 274.96 34.02 274.61 34.02C274.25 34.02 273.99 33.75 273.99 33.43ZM276.927 29.04L276.177 28.7C276.597 27.51 277.497 26.91 278.867 26.91C279.557 26.91 280.127 27.07 280.567 27.39C281.007 27.71 281.227 28.14 281.227 28.67C281.227 29.48 280.797 30.08 279.997 30.31C280.767 30.36 281.387 30.94 281.387 31.98C281.387 32.64 281.147 33.16 280.667 33.53C280.187 33.9 279.577 34.09 278.827 34.09C277.307 34.09 276.347 33.37 275.987 32.21L276.797 31.86C277.197 32.73 277.727 33.23 278.887 33.23C279.857 33.23 280.467 32.78 280.467 31.99C280.467 31.22 279.867 30.83 278.667 30.83H277.887V30H278.507C279.597 30 280.307 29.51 280.307 28.84C280.307 28.15 279.737 27.76 278.827 27.76C277.897 27.76 277.257 28.19 276.927 29.04ZM283.873 34.15L283.213 33.77L288.383 26.78L289.013 27.24L283.873 34.15ZM282.133 28.68C282.133 28.18 282.303 27.77 282.653 27.45C283.003 27.13 283.433 26.97 283.963 26.97C284.483 26.97 284.913 27.13 285.263 27.45C285.613 27.77 285.783 28.18 285.783 28.68C285.783 29.17 285.613 29.58 285.263 29.9C284.913 30.22 284.483 30.38 283.963 30.38C283.433 30.38 283.003 30.22 282.653 29.9C282.303 29.58 282.133 29.17 282.133 28.68ZM282.973 28.68C282.973 29.25 283.433 29.67 283.963 29.67C284.513 29.67 284.943 29.27 284.943 28.68C284.943 28.09 284.493 27.69 283.963 27.69C283.413 27.69 282.973 28.09 282.973 28.68ZM286.943 33.56C286.593 33.24 286.423 32.83 286.423 32.33C286.423 31.83 286.593 31.42 286.943 31.1C287.293 30.79 287.723 30.63 288.253 30.63C288.773 30.63 289.203 30.79 289.553 31.1C289.903 31.42 290.073 31.83 290.073 32.33C290.073 32.82 289.903 33.23 289.553 33.55C289.203 33.88 288.773 34.04 288.253 34.04C287.723 34.04 287.293 33.88 286.943 33.56ZM287.263 32.33C287.263 32.9 287.723 33.32 288.253 33.32C288.803 33.32 289.233 32.92 289.233 32.33C289.233 31.74 288.783 31.34 288.253 31.34C287.703 31.34 287.263 31.74 287.263 32.33Z" fill="#357D94"/>
<path d="M243.141 189.354C243.336 189.158 243.336 188.842 243.141 188.646L239.959 185.464C239.764 185.269 239.447 185.269 239.252 185.464C239.057 185.66 239.057 185.976 239.252 186.172L242.08 189L239.252 191.828C239.057 192.024 239.057 192.34 239.252 192.536C239.447 192.731 239.764 192.731 239.959 192.536L243.141 189.354ZM192.363 189.5L242.788 189.5L242.788 188.5L192.363 188.5L192.363 189.5Z" fill="#318F73"/>
<path d="M208.145 176.136H205.877V175.224H208.145V172.944H209.093V175.224H211.385V176.136H209.093V178.44H208.145V176.136ZM213.662 174.372L212.786 174.06C213.086 172.56 214.166 171.504 215.942 171.504C217.67 171.504 218.666 172.5 218.666 174.024C218.63 175.284 218.042 176.28 217.154 177.084C216.53 177.672 216.038 178.008 215.378 178.428L214.454 179.004H218.978V180H212.678V179.184L214.382 177.972C215.378 177.264 216.026 176.772 216.326 176.496C217.154 175.74 217.562 174.948 217.562 174.132C217.562 173.028 216.89 172.548 215.87 172.548C214.574 172.548 213.902 173.364 213.662 174.372ZM221.985 180.18L221.193 179.724L227.397 171.336L228.153 171.888L221.985 180.18ZM219.897 173.616C219.897 173.016 220.101 172.524 220.521 172.14C220.941 171.756 221.457 171.564 222.093 171.564C222.717 171.564 223.233 171.756 223.653 172.14C224.073 172.524 224.277 173.016 224.277 173.616C224.277 174.204 224.073 174.696 223.653 175.08C223.233 175.464 222.717 175.656 222.093 175.656C221.457 175.656 220.941 175.464 220.521 175.08C220.101 174.696 219.897 174.204 219.897 173.616ZM220.905 173.616C220.905 174.3 221.457 174.804 222.093 174.804C222.753 174.804 223.269 174.324 223.269 173.616C223.269 172.908 222.729 172.428 222.093 172.428C221.433 172.428 220.905 172.908 220.905 173.616ZM225.669 179.472C225.249 179.088 225.045 178.596 225.045 177.996C225.045 177.396 225.249 176.904 225.669 176.52C226.089 176.148 226.605 175.956 227.241 175.956C227.865 175.956 228.381 176.148 228.801 176.52C229.221 176.904 229.425 177.396 229.425 177.996C229.425 178.584 229.221 179.076 228.801 179.46C228.381 179.856 227.865 180.048 227.241 180.048C226.605 180.048 226.089 179.856 225.669 179.472ZM226.053 177.996C226.053 178.68 226.605 179.184 227.241 179.184C227.901 179.184 228.417 178.704 228.417 177.996C228.417 177.288 227.877 176.808 227.241 176.808C226.581 176.808 226.053 177.288 226.053 177.996Z" fill="#318F73"/>
<line y1="204.5" x2="335" y2="204.5" stroke="#ABBEC9"/>
<defs>
<linearGradient id="paint0_linear_6004_39828" x1="38" y1="97" x2="38" y2="205" gradientUnits="userSpaceOnUse">
<stop stop-color="#45B8DB"/>
<stop offset="1" stop-color="#ADE4E4"/>
</linearGradient>
<linearGradient id="paint1_linear_6004_39828" x1="38" y1="97" x2="38" y2="205" gradientUnits="userSpaceOnUse">
<stop stop-color="white" stop-opacity="0"/>
<stop offset="0.739583" stop-color="white"/>
</linearGradient>
<linearGradient id="paint2_linear_6004_39828" x1="16" y1="-113.6" x2="16" y2="205" gradientUnits="userSpaceOnUse">
<stop stop-color="white" stop-opacity="0.05"/>
<stop offset="0.75" stop-color="white" stop-opacity="0.8"/>
</linearGradient>
<linearGradient id="paint3_linear_6004_39828" x1="158" y1="111" x2="158" y2="205" gradientUnits="userSpaceOnUse">
<stop stop-color="#45B8DB"/>
<stop offset="1" stop-color="#ADE4E4"/>
</linearGradient>
<linearGradient id="paint4_linear_6004_39828" x1="158" y1="111" x2="158" y2="205" gradientUnits="userSpaceOnUse">
<stop stop-color="white" stop-opacity="0"/>
<stop offset="0.739583" stop-color="white"/>
</linearGradient>
<linearGradient id="paint5_linear_6004_39828" x1="136" y1="-72.3" x2="136" y2="205" gradientUnits="userSpaceOnUse">
<stop stop-color="white" stop-opacity="0.05"/>
<stop offset="0.75" stop-color="white" stop-opacity="0.8"/>
</linearGradient>
<linearGradient id="paint6_linear_6004_39828" x1="278" y1="104" x2="278" y2="205" gradientUnits="userSpaceOnUse">
<stop stop-color="#45B8DB"/>
<stop offset="1" stop-color="#ADE4E4"/>
</linearGradient>
<linearGradient id="paint7_linear_6004_39828" x1="278" y1="104" x2="278" y2="205" gradientUnits="userSpaceOnUse">
<stop stop-color="white" stop-opacity="0"/>
<stop offset="0.739583" stop-color="white"/>
</linearGradient>
<linearGradient id="paint8_linear_6004_39828" x1="256" y1="-92.95" x2="256" y2="205" gradientUnits="userSpaceOnUse">
<stop stop-color="white" stop-opacity="0.05"/>
<stop offset="0.75" stop-color="white" stop-opacity="0.8"/>
</linearGradient>
<linearGradient id="paint9_linear_6004_39828" x1="274" y1="11.5" x2="33.5" y2="11.5" gradientUnits="userSpaceOnUse">
<stop stop-color="#56BCF6"/>
<stop offset="1" stop-color="#A2DEE7"/>
</linearGradient>
</defs>
</svg>
