<svg width="544" height="279" viewBox="0 0 544 279" fill="none" xmlns="http://www.w3.org/2000/svg">
<path opacity="0.7" d="M167 0C188.901 2.61164e-07 210.435 5.61934 229.544 16.3205C248.652 27.0217 264.695 42.4467 276.138 61.1202C287.581 79.7936 294.041 101.091 294.901 122.975C295.761 144.859 290.992 166.597 281.049 186.111C271.106 205.624 256.323 222.261 238.113 234.428C219.903 246.596 198.876 253.887 177.043 255.605C155.21 257.324 133.301 253.411 113.412 244.242C93.5226 235.073 76.3188 220.955 63.4458 203.237L167 128V0Z" fill="url(#paint0_radial_6006_19064)" fill-opacity="0.6"/>
<path d="M12.8259 151.144L12.3339 149.944L15.1539 148.576H16.0659V157H14.6739V150.292L12.8259 151.144ZM18.2194 151.264L16.9594 150.76C17.3794 149.32 18.6634 148.516 20.3074 148.516C22.2154 148.516 23.3314 149.512 23.3314 151C23.3314 152.092 22.8634 152.98 22.0354 153.748C21.6154 154.144 21.0394 154.588 20.3074 155.104L19.3474 155.656H23.5954V157H17.0794V155.932L18.9754 154.552C19.0354 154.504 19.2034 154.372 19.5034 154.144C19.8034 153.916 19.9954 153.76 20.0914 153.676C20.1874 153.592 20.3554 153.448 20.6074 153.244C20.8474 153.04 21.0154 152.872 21.1234 152.74C21.3154 152.5 21.6634 152.08 21.7714 151.744C21.8194 151.576 21.8434 151.408 21.8434 151.228C21.8434 150.412 21.2554 149.908 20.2834 149.908C19.2394 149.908 18.5554 150.484 18.2194 151.264ZM24.0774 156.124C24.0774 155.68 24.4854 155.248 25.0494 155.248C25.5774 155.248 26.0094 155.692 26.0094 156.124C26.0094 156.604 25.5894 157.024 25.0494 157.024C24.4734 157.024 24.0774 156.604 24.0774 156.124ZM26.5851 151.144L26.0931 149.944L28.9131 148.576H29.8251V157H28.4331V150.292L26.5851 151.144Z" fill="#1A3341"/>
<path d="M39.184 209.8C39.184 208.528 39.508 207.496 40.144 206.704C40.78 205.912 41.668 205.516 42.808 205.516C43.96 205.516 44.86 205.912 45.496 206.704C46.132 207.496 46.456 208.528 46.456 209.8C46.456 211.084 46.144 212.116 45.508 212.896C44.872 213.688 43.984 214.084 42.832 214.084C41.68 214.084 40.78 213.688 40.144 212.896C39.508 212.116 39.184 211.084 39.184 209.8ZM41.224 207.652C40.852 208.156 40.672 208.876 40.672 209.8C40.672 210.724 40.864 211.444 41.248 211.948C41.62 212.452 42.148 212.704 42.832 212.704C44.26 212.704 44.968 211.732 44.968 209.8C44.968 207.916 44.248 206.896 42.808 206.896C42.124 206.896 41.596 207.148 41.224 207.652ZM46.9563 213.124C46.9563 212.68 47.3643 212.248 47.9283 212.248C48.4563 212.248 48.8883 212.692 48.8883 213.124C48.8883 213.604 48.4683 214.024 47.9283 214.024C47.3523 214.024 46.9563 213.604 46.9563 213.124ZM53.94 206.956H49.128V205.6H55.656V206.512L51.696 214H50.172L53.94 206.956Z" fill="#1A3341"/>
<path d="M229.144 239.902C207.909 251.695 183.757 257.202 159.509 255.781C135.262 254.359 111.919 246.068 92.2072 231.875L101.182 219.41C118.528 231.9 139.07 239.196 160.408 240.447C181.746 241.698 203 236.851 221.686 226.474L229.144 239.902Z" fill="url(#paint1_linear_6006_19064)"/>
<path d="M92.7665 232.275C84.0192 226.048 76.0902 218.745 69.1664 210.538L80.9064 200.634C86.9994 207.856 93.9769 214.283 101.675 219.762L92.7665 232.275Z" fill="url(#paint2_linear_6006_19064)"/>
<path d="M64.3798 204.505C53.9283 190.486 46.4601 174.475 42.4358 157.458C38.4116 140.441 37.9166 122.78 40.9815 105.565L56.1037 108.257C53.4066 123.406 53.8422 138.948 57.3835 153.923C60.9249 168.898 67.4969 182.988 76.6942 195.325L64.3798 204.505Z" fill="url(#paint3_linear_6006_19064)"/>
<path d="M40.8857 106.11C46.0425 76.4005 61.5222 49.4656 84.5959 30.0533C107.67 10.641 136.856 -0.00213623 167.009 3.05176e-05L167.008 15.36C140.473 15.3581 114.789 24.7241 94.4844 41.8069C74.1795 58.8897 60.5574 82.5924 56.0194 108.737L40.8857 106.11Z" fill="#DBE9EE"/>
<path d="M167 0C195.407 3.38747e-07 223.006 9.44948 245.452 26.8602C267.898 44.2708 283.914 68.6534 290.979 96.1677C298.043 123.682 295.754 152.765 284.473 178.835C273.191 204.905 253.557 226.482 228.664 240.167L221.265 226.707C243.171 214.664 260.448 195.677 270.376 172.735C280.304 149.793 282.318 124.2 276.101 99.9876C269.884 75.775 255.79 54.3183 236.038 38.9969C216.286 23.6755 191.998 15.36 167 15.36V0Z" fill="#5A96A8"/>
<path d="M69.3127 210.711C67.2854 208.317 65.3469 205.849 63.501 203.312L75.9209 194.275C77.5453 196.507 79.2512 198.679 81.0352 200.786L69.3127 210.711Z" fill="#184977"/>
<path d="M265.372 24.502H263.968V22.906H259.216V21.97L264.172 16.102H265.372V21.622H266.8V22.906H265.372V24.502ZM263.968 18.394L261.136 21.622H263.968V18.394ZM268.156 18.766L266.896 18.262C267.316 16.822 268.6 16.018 270.244 16.018C272.152 16.018 273.268 17.014 273.268 18.502C273.268 19.594 272.8 20.482 271.972 21.25C271.552 21.646 270.976 22.09 270.244 22.606L269.284 23.158H273.532V24.502H267.016V23.434L268.912 22.054C268.972 22.006 269.14 21.874 269.44 21.646C269.74 21.418 269.932 21.262 270.028 21.178C270.124 21.094 270.292 20.95 270.544 20.746C270.784 20.542 270.952 20.374 271.06 20.242C271.252 20.002 271.6 19.582 271.708 19.246C271.756 19.078 271.78 18.91 271.78 18.73C271.78 17.914 271.192 17.41 270.22 17.41C269.176 17.41 268.492 17.986 268.156 18.766ZM274.014 23.626C274.014 23.182 274.422 22.75 274.986 22.75C275.514 22.75 275.946 23.194 275.946 23.626C275.946 24.106 275.526 24.526 274.986 24.526C274.41 24.526 274.014 24.106 274.014 23.626ZM277.625 18.766L276.365 18.262C276.785 16.822 278.069 16.018 279.713 16.018C281.621 16.018 282.737 17.014 282.737 18.502C282.737 19.594 282.269 20.482 281.441 21.25C281.021 21.646 280.445 22.09 279.713 22.606L278.753 23.158H283.001V24.502H276.485V23.434L278.381 22.054C278.441 22.006 278.609 21.874 278.909 21.646C279.209 21.418 279.401 21.262 279.497 21.178C279.593 21.094 279.761 20.95 280.013 20.746C280.253 20.542 280.421 20.374 280.529 20.242C280.721 20.002 281.069 19.582 281.177 19.246C281.225 19.078 281.249 18.91 281.249 18.73C281.249 17.914 280.661 17.41 279.689 17.41C278.645 17.41 277.961 17.986 277.625 18.766Z" fill="#1A3341"/>
<path d="M148.516 270.144L148.024 268.944L150.844 267.576H151.756V276H150.364V269.292L148.516 270.144ZM156.19 271.068H156.538C157.45 271.068 158.182 270.612 158.182 269.928C158.182 269.208 157.534 268.824 156.346 268.824C155.29 268.824 154.522 269.232 154.522 269.916C154.522 270.588 155.194 271.068 156.19 271.068ZM156.514 272.304H156.226C155.038 272.304 154.258 272.844 154.258 273.528C154.258 274.296 155.05 274.788 156.358 274.788C157.642 274.788 158.446 274.32 158.446 273.552C158.446 272.772 157.75 272.304 156.514 272.304ZM156.37 276.096C155.302 276.096 154.426 275.88 153.766 275.436C153.106 275.004 152.77 274.416 152.77 273.66C152.77 272.736 153.274 271.968 154.174 271.644C153.418 271.32 153.034 270.732 153.034 269.856C153.034 268.416 154.282 267.504 156.358 267.504C158.482 267.504 159.682 268.416 159.682 269.856C159.682 270.624 159.238 271.32 158.422 271.62C159.442 271.872 159.946 272.544 159.946 273.612C159.946 274.38 159.61 274.98 158.938 275.424C158.266 275.868 157.414 276.096 156.37 276.096ZM160.482 275.124C160.482 274.68 160.89 274.248 161.454 274.248C161.982 274.248 162.414 274.692 162.414 275.124C162.414 275.604 161.994 276.024 161.454 276.024C160.878 276.024 160.482 275.604 160.482 275.124ZM164.166 270L162.93 269.448C163.362 268.236 164.634 267.492 166.206 267.492C167.094 267.492 167.826 267.684 168.39 268.068C168.954 268.464 169.242 268.968 169.242 269.604C169.242 270.552 168.69 271.284 167.886 271.524C168.738 271.728 169.422 272.34 169.422 273.492C169.422 274.272 169.122 274.908 168.522 275.376C167.91 275.856 167.166 276.096 166.266 276.096C165.306 276.096 164.394 275.868 163.602 275.208C163.206 274.884 162.918 274.476 162.762 274.008L164.082 273.456C164.25 273.828 164.538 274.128 164.934 274.356C165.33 274.584 165.726 274.704 166.146 274.704C167.166 274.704 167.922 274.26 167.922 273.504C167.922 272.652 167.178 272.364 165.882 272.364H165.066V271.044H165.93C167.022 271.044 167.754 270.564 167.754 269.904C167.754 269.58 167.598 269.316 167.286 269.136C166.974 268.956 166.578 268.86 166.086 268.86C165.594 268.86 165.21 268.956 164.91 269.148C164.61 269.34 164.37 269.628 164.166 270Z" fill="#1A3341"/>
<path d="M64.2892 237H62.8852V235.404H58.1332V234.468L63.0892 228.6H64.2892V234.12H65.7172V235.404H64.2892V237ZM62.8852 230.892L60.0532 234.12H62.8852V230.892ZM65.9928 236.124C65.9928 235.68 66.4008 235.248 66.9648 235.248C67.4928 235.248 67.9248 235.692 67.9248 236.124C67.9248 236.604 67.5048 237.024 66.9648 237.024C66.3888 237.024 65.9928 236.604 65.9928 236.124ZM74.3566 237H72.9526V235.404H68.2006V234.468L73.1566 228.6H74.3566V234.12H75.7846V235.404H74.3566V237ZM72.9526 230.892L70.1206 234.12H72.9526V230.892Z" fill="#1A3341"/>
<path d="M58.8998 13.264L57.6398 12.76C58.0598 11.32 59.3438 10.516 60.9878 10.516C62.8958 10.516 64.0118 11.512 64.0118 13C64.0118 14.092 63.5438 14.98 62.7158 15.748C62.2958 16.144 61.7198 16.588 60.9878 17.104L60.0278 17.656H64.2758V19H57.7598V17.932L59.6558 16.552C59.7158 16.504 59.8838 16.372 60.1838 16.144C60.4838 15.916 60.6758 15.76 60.7718 15.676C60.8678 15.592 61.0358 15.448 61.2878 15.244C61.5278 15.04 61.6958 14.872 61.8038 14.74C61.9958 14.5 62.3438 14.08 62.4518 13.744C62.4998 13.576 62.5238 13.408 62.5238 13.228C62.5238 12.412 61.9358 11.908 60.9638 11.908C59.9198 11.908 59.2358 12.484 58.8998 13.264ZM65.8378 13.264L64.5778 12.76C64.9978 11.32 66.2818 10.516 67.9258 10.516C69.8338 10.516 70.9498 11.512 70.9498 13C70.9498 14.092 70.4818 14.98 69.6538 15.748C69.2338 16.144 68.6578 16.588 67.9258 17.104L66.9658 17.656H71.2138V19H64.6978V17.932L66.5938 16.552C66.6538 16.504 66.8218 16.372 67.1218 16.144C67.4218 15.916 67.6138 15.76 67.7098 15.676C67.8058 15.592 67.9738 15.448 68.2258 15.244C68.4658 15.04 68.6338 14.872 68.7418 14.74C68.9338 14.5 69.2818 14.08 69.3898 13.744C69.4378 13.576 69.4618 13.408 69.4618 13.228C69.4618 12.412 68.8738 11.908 67.9018 11.908C66.8578 11.908 66.1738 12.484 65.8378 13.264ZM71.6958 18.124C71.6958 17.68 72.1038 17.248 72.6678 17.248C73.1958 17.248 73.6278 17.692 73.6278 18.124C73.6278 18.604 73.2078 19.024 72.6678 19.024C72.0918 19.024 71.6958 18.604 71.6958 18.124ZM75.3795 13L74.1435 12.448C74.5755 11.236 75.8475 10.492 77.4195 10.492C78.3075 10.492 79.0395 10.684 79.6035 11.068C80.1675 11.464 80.4555 11.968 80.4555 12.604C80.4555 13.552 79.9035 14.284 79.0995 14.524C79.9515 14.728 80.6355 15.34 80.6355 16.492C80.6355 17.272 80.3355 17.908 79.7355 18.376C79.1235 18.856 78.3795 19.096 77.4795 19.096C76.5195 19.096 75.6075 18.868 74.8155 18.208C74.4195 17.884 74.1315 17.476 73.9755 17.008L75.2955 16.456C75.4635 16.828 75.7515 17.128 76.1475 17.356C76.5435 17.584 76.9395 17.704 77.3595 17.704C78.3795 17.704 79.1355 17.26 79.1355 16.504C79.1355 15.652 78.3915 15.364 77.0955 15.364H76.2795V14.044H77.1435C78.2355 14.044 78.9675 13.564 78.9675 12.904C78.9675 12.58 78.8115 12.316 78.4995 12.136C78.1875 11.956 77.7915 11.86 77.2995 11.86C76.8075 11.86 76.4235 11.956 76.1235 12.148C75.8235 12.34 75.5835 12.628 75.3795 13Z" fill="#1A3341"/>
<path d="M132.565 111.816C135.744 111.816 138.187 112.36 139.893 113.448C141.6 114.515 142.453 116.072 142.453 118.12V118.568C142.453 120.701 141.547 122.376 139.733 123.592C137.941 124.787 135.477 125.384 132.341 125.384C130.123 125.384 128.192 125.064 126.549 124.424C124.928 123.784 123.68 122.867 122.805 121.672C121.952 120.477 121.525 119.069 121.525 117.448V112.136C121.525 109.469 122.464 107.389 124.341 105.896C126.24 104.381 128.864 103.624 132.213 103.624C134.219 103.624 135.968 103.891 137.461 104.424C138.955 104.957 140.096 105.725 140.885 106.728C141.696 107.709 142.101 108.872 142.101 110.216V110.472H138.933V110.216C138.933 109.085 138.336 108.2 137.141 107.56C135.947 106.92 134.304 106.6 132.213 106.6C129.781 106.6 127.915 107.069 126.613 108.008C125.333 108.947 124.693 110.301 124.693 112.072V114.056C126.549 112.563 129.173 111.816 132.565 111.816ZM139.285 118.248C139.285 115.923 137.035 114.76 132.533 114.76C130.677 114.76 129.067 114.984 127.701 115.432C126.336 115.859 125.333 116.477 124.693 117.288V117.48C124.693 119.016 125.365 120.221 126.709 121.096C128.053 121.971 129.941 122.408 132.373 122.408C134.549 122.408 136.245 122.088 137.461 121.448C138.677 120.808 139.285 119.891 139.285 118.696V118.248ZM156.217 111.4C159.375 111.4 161.85 111.987 163.642 113.16C165.455 114.333 166.361 115.955 166.361 118.024V118.536C166.361 120.712 165.476 122.397 163.705 123.592C161.935 124.787 159.439 125.384 156.217 125.384C152.975 125.384 150.468 124.883 148.697 123.88C146.948 122.877 146.073 121.448 146.073 119.592V119.336H149.273V119.592C149.273 120.467 149.881 121.16 151.097 121.672C152.314 122.163 153.988 122.408 156.122 122.408C158.319 122.408 160.047 122.067 161.306 121.384C162.564 120.701 163.194 119.763 163.194 118.568V118.056C163.194 116.904 162.554 115.997 161.274 115.336C160.015 114.675 158.266 114.344 156.026 114.344C154.063 114.344 152.452 114.6 151.194 115.112C149.935 115.603 149.273 116.253 149.209 117.064H146.073L146.777 104.008H165.017V106.856H149.593L149.273 113.032C150.916 111.944 153.231 111.4 156.217 111.4ZM172.177 125.384C171.601 125.384 171.131 125.203 170.769 124.84C170.406 124.477 170.225 124.019 170.225 123.464C170.225 122.909 170.406 122.451 170.769 122.088C171.131 121.725 171.601 121.544 172.177 121.544C172.753 121.544 173.222 121.725 173.585 122.088C173.947 122.451 174.129 122.909 174.129 123.464C174.129 124.019 173.947 124.477 173.585 124.84C173.222 125.203 172.753 125.384 172.177 125.384ZM188.966 111.816C192.145 111.816 194.588 112.36 196.294 113.448C198.001 114.515 198.854 116.072 198.854 118.12V118.568C198.854 120.701 197.948 122.376 196.134 123.592C194.342 124.787 191.878 125.384 188.742 125.384C186.524 125.384 184.593 125.064 182.95 124.424C181.329 123.784 180.081 122.867 179.206 121.672C178.353 120.477 177.926 119.069 177.926 117.448V112.136C177.926 109.469 178.865 107.389 180.742 105.896C182.641 104.381 185.265 103.624 188.614 103.624C190.62 103.624 192.369 103.891 193.862 104.424C195.356 104.957 196.497 105.725 197.286 106.728C198.097 107.709 198.502 108.872 198.502 110.216V110.472H195.334V110.216C195.334 109.085 194.737 108.2 193.542 107.56C192.348 106.92 190.705 106.6 188.614 106.6C186.182 106.6 184.316 107.069 183.014 108.008C181.734 108.947 181.094 110.301 181.094 112.072V114.056C182.95 112.563 185.574 111.816 188.966 111.816ZM195.686 118.248C195.686 115.923 193.436 114.76 188.934 114.76C187.078 114.76 185.468 114.984 184.102 115.432C182.737 115.859 181.734 116.477 181.094 117.288V117.48C181.094 119.016 181.766 120.221 183.11 121.096C184.454 121.971 186.342 122.408 188.774 122.408C190.95 122.408 192.646 122.088 193.862 121.448C195.078 120.808 195.686 119.891 195.686 118.696V118.248Z" fill="#1A3341"/>
<path d="M209.774 123.33L208.322 122.494L219.696 107.116L221.082 108.128L209.774 123.33ZM205.946 111.296C205.946 110.196 206.32 109.294 207.09 108.59C207.86 107.886 208.806 107.534 209.972 107.534C211.116 107.534 212.062 107.886 212.832 108.59C213.602 109.294 213.976 110.196 213.976 111.296C213.976 112.374 213.602 113.276 212.832 113.98C212.062 114.684 211.116 115.036 209.972 115.036C208.806 115.036 207.86 114.684 207.09 113.98C206.32 113.276 205.946 112.374 205.946 111.296ZM207.794 111.296C207.794 112.55 208.806 113.474 209.972 113.474C211.182 113.474 212.128 112.594 212.128 111.296C212.128 109.998 211.138 109.118 209.972 109.118C208.762 109.118 207.794 109.998 207.794 111.296ZM216.528 122.032C215.758 121.328 215.384 120.426 215.384 119.326C215.384 118.226 215.758 117.324 216.528 116.62C217.298 115.938 218.244 115.586 219.41 115.586C220.554 115.586 221.5 115.938 222.27 116.62C223.04 117.324 223.414 118.226 223.414 119.326C223.414 120.404 223.04 121.306 222.27 122.01C221.5 122.736 220.554 123.088 219.41 123.088C218.244 123.088 217.298 122.736 216.528 122.032ZM217.232 119.326C217.232 120.58 218.244 121.504 219.41 121.504C220.62 121.504 221.566 120.624 221.566 119.326C221.566 118.028 220.576 117.148 219.41 117.148C218.2 117.148 217.232 118.028 217.232 119.326Z" fill="#1A3341"/>
<path d="M99.8011 148H98.6181V138.9H99.8011V148ZM102.521 148H101.429V141.24H102.521V142.124C102.95 141.461 103.834 141.097 104.835 141.097C106.668 141.097 107.578 142.111 107.578 144.152V148H106.486V144.282C106.486 142.787 105.849 142.124 104.51 142.124C103.678 142.124 102.885 142.67 102.521 143.489V148ZM109.436 142.28H108.188V141.24H109.436V140.928C109.436 140.057 109.657 139.407 110.099 139.004C110.528 138.601 111.061 138.406 111.698 138.406C112.387 138.406 113.037 138.718 113.362 139.199L112.712 139.875C112.491 139.589 112.166 139.446 111.75 139.446C110.931 139.446 110.528 139.966 110.528 141.019V141.24H112.621V142.28H110.528V148H109.436V142.28ZM114.322 148H113.23V141.24H114.322V141.76C114.543 141.305 115.128 141.097 115.713 141.097C116.311 141.097 116.766 141.305 117.091 141.708L116.402 142.462C116.233 142.241 115.973 142.124 115.596 142.124C115.011 142.124 114.478 142.605 114.322 143.294V148ZM118.063 142.865L117.504 142.046C118.128 141.461 119.207 141.084 120.208 141.084C122.015 141.084 122.977 142.072 122.977 143.827V148H121.885V146.999C121.456 147.623 120.611 148.091 119.519 148.091C118.05 148.091 117.062 147.272 117.062 146.024C117.062 144.607 118.271 143.931 120.299 143.931C120.936 143.931 121.456 143.996 121.885 144.126C121.885 142.813 121.417 142.111 120.078 142.111C119.402 142.111 118.726 142.358 118.063 142.865ZM119.779 147.103C120.286 147.103 120.741 146.96 121.118 146.687C121.495 146.414 121.742 146.102 121.885 145.777V145.088C121.508 144.958 121.027 144.893 120.442 144.893C118.96 144.893 118.219 145.257 118.219 145.985C118.219 146.674 118.843 147.103 119.779 147.103ZM128.505 146.154C128.505 145.244 126.958 145.101 125.723 144.75C124.878 144.503 124.202 143.944 124.202 143.021C124.202 141.825 125.333 141.084 127.01 141.084C128.141 141.084 129.051 141.565 129.532 142.254L128.765 142.969C128.336 142.397 127.686 142.111 126.815 142.111C126.035 142.111 125.359 142.41 125.359 142.969C125.359 143.762 126.906 143.905 128.141 144.282C128.973 144.542 129.649 145.166 129.649 146.141C129.649 147.454 128.596 148.117 126.945 148.117C125.554 148.117 124.371 147.493 123.89 146.518L124.761 145.907C125.164 146.622 126.087 147.09 127.127 147.09C128.05 147.09 128.505 146.778 128.505 146.154ZM131.379 142.28H129.975V141.24H131.379V139.511H132.471V141.24H134.798V142.28H132.471V145.257C132.471 146.57 132.809 147.051 133.641 147.051C134.044 147.051 134.46 146.895 134.863 146.57L135.357 147.376C134.928 147.857 134.291 148.091 133.446 148.091C132.107 148.091 131.379 147.207 131.379 145.543V142.28ZM137.111 148H136.019V141.24H137.111V141.76C137.332 141.305 137.917 141.097 138.502 141.097C139.1 141.097 139.555 141.305 139.88 141.708L139.191 142.462C139.022 142.241 138.762 142.124 138.385 142.124C137.8 142.124 137.267 142.605 137.111 143.294V148ZM145.372 141.201H146.464V148H145.372V147.038C144.852 147.753 144.124 148.117 143.175 148.117C141.303 148.117 140.393 147.181 140.393 145.114V141.201H141.485V144.958C141.485 146.375 142.083 147.09 143.266 147.09C144.202 147.09 144.956 146.557 145.372 145.621V141.201ZM153.147 146.05L153.927 146.609C153.42 147.558 152.276 148.117 151.145 148.117C150.066 148.117 149.195 147.792 148.532 147.155C147.869 146.518 147.531 145.673 147.531 144.607C147.531 143.593 147.856 142.748 148.519 142.085C149.182 141.422 150.027 141.084 151.08 141.084C152.289 141.084 153.368 141.63 153.823 142.462L152.978 143.034C152.523 142.423 151.899 142.111 151.106 142.111C150.404 142.111 149.832 142.345 149.377 142.813C148.922 143.281 148.688 143.879 148.688 144.607C148.688 145.348 148.922 145.946 149.403 146.401C149.871 146.856 150.482 147.09 151.249 147.09C152.055 147.09 152.692 146.739 153.147 146.05ZM155.386 142.28H153.982V141.24H155.386V139.511H156.478V141.24H158.805V142.28H156.478V145.257C156.478 146.57 156.816 147.051 157.648 147.051C158.051 147.051 158.467 146.895 158.87 146.57L159.364 147.376C158.935 147.857 158.298 148.091 157.453 148.091C156.114 148.091 155.386 147.207 155.386 145.543V142.28ZM164.914 141.201H166.006V148H164.914V147.038C164.394 147.753 163.666 148.117 162.717 148.117C160.845 148.117 159.935 147.181 159.935 145.114V141.201H161.027V144.958C161.027 146.375 161.625 147.09 162.808 147.09C163.744 147.09 164.498 146.557 164.914 145.621V141.201ZM168.542 148H167.45V141.24H168.542V141.76C168.763 141.305 169.348 141.097 169.933 141.097C170.531 141.097 170.986 141.305 171.311 141.708L170.622 142.462C170.453 142.241 170.193 142.124 169.816 142.124C169.231 142.124 168.698 142.605 168.542 143.294V148ZM176.748 146.063L177.45 146.713C176.826 147.649 175.929 148.117 174.746 148.117C173.667 148.117 172.796 147.792 172.133 147.155C171.47 146.518 171.145 145.673 171.145 144.607C171.145 143.58 171.444 142.735 172.055 142.072C172.653 141.409 173.498 141.084 174.59 141.084C175.487 141.084 176.241 141.37 176.826 141.929C177.411 142.488 177.71 143.229 177.71 144.152C177.71 144.451 177.684 144.724 177.645 144.971H172.315C172.38 146.31 173.368 147.09 174.785 147.09C175.578 147.09 176.332 146.674 176.748 146.063ZM174.512 142.085C173.277 142.085 172.471 142.839 172.302 143.983H176.553C176.488 142.787 175.721 142.085 174.512 142.085ZM183.653 150.6H182.561V141.24H183.653V142.085C184.108 141.422 184.836 141.084 185.837 141.084C186.825 141.084 187.618 141.396 188.203 142.033C188.788 142.67 189.074 143.489 189.074 144.503C189.074 145.543 188.762 146.401 188.138 147.09C187.501 147.779 186.695 148.117 185.707 148.117C184.797 148.117 184.108 147.883 183.653 147.428V150.6ZM185.72 142.111C184.732 142.111 183.965 142.748 183.653 143.515V146.037C184.043 146.739 184.693 147.09 185.616 147.09C186.279 147.09 186.838 146.856 187.267 146.388C187.696 145.92 187.917 145.322 187.917 144.581C187.917 143.073 187.072 142.111 185.72 142.111ZM190.669 142.865L190.11 142.046C190.734 141.461 191.813 141.084 192.814 141.084C194.621 141.084 195.583 142.072 195.583 143.827V148H194.491V146.999C194.062 147.623 193.217 148.091 192.125 148.091C190.656 148.091 189.668 147.272 189.668 146.024C189.668 144.607 190.877 143.931 192.905 143.931C193.542 143.931 194.062 143.996 194.491 144.126C194.491 142.813 194.023 142.111 192.684 142.111C192.008 142.111 191.332 142.358 190.669 142.865ZM192.385 147.103C192.892 147.103 193.347 146.96 193.724 146.687C194.101 146.414 194.348 146.102 194.491 145.777V145.088C194.114 144.958 193.633 144.893 193.048 144.893C191.566 144.893 190.825 145.257 190.825 145.985C190.825 146.674 191.449 147.103 192.385 147.103ZM197.12 150.574L197.549 149.625C197.653 149.664 197.744 149.69 197.835 149.69C198.342 149.69 198.693 149.339 199.148 148.26L199.356 147.753L196.08 141.24H197.367L199.902 146.375L201.813 141.24H203.009L200.435 147.896C199.993 148.988 199.577 149.729 199.2 150.132C198.81 150.535 198.368 150.73 197.874 150.73C197.588 150.73 197.341 150.678 197.12 150.574ZM213.415 143.515V148H212.323V143.853C212.323 142.696 211.855 142.124 210.919 142.124C210.074 142.124 209.45 142.54 209.06 143.359V148H207.968V143.502C207.968 142.683 207.435 142.124 206.564 142.124C205.693 142.124 205.004 142.774 204.705 143.489V148H203.613V141.24H204.705V142.15C205.108 141.526 205.888 141.097 206.772 141.097C207.734 141.097 208.397 141.448 208.761 142.15C209.294 141.448 210.035 141.097 210.984 141.097C212.492 141.097 213.415 141.851 213.415 143.515ZM220.008 146.063L220.71 146.713C220.086 147.649 219.189 148.117 218.006 148.117C216.927 148.117 216.056 147.792 215.393 147.155C214.73 146.518 214.405 145.673 214.405 144.607C214.405 143.58 214.704 142.735 215.315 142.072C215.913 141.409 216.758 141.084 217.85 141.084C218.747 141.084 219.501 141.37 220.086 141.929C220.671 142.488 220.97 143.229 220.97 144.152C220.97 144.451 220.944 144.724 220.905 144.971H215.575C215.64 146.31 216.628 147.09 218.045 147.09C218.838 147.09 219.592 146.674 220.008 146.063ZM217.772 142.085C216.537 142.085 215.731 142.839 215.562 143.983H219.813C219.748 142.787 218.981 142.085 217.772 142.085ZM223.145 148H222.053V141.24H223.145V142.124C223.574 141.461 224.458 141.097 225.459 141.097C227.292 141.097 228.202 142.111 228.202 144.152V148H227.11V144.282C227.11 142.787 226.473 142.124 225.134 142.124C224.302 142.124 223.509 142.67 223.145 143.489V148ZM230.268 142.28H228.864V141.24H230.268V139.511H231.36V141.24H233.687V142.28H231.36V145.257C231.36 146.57 231.698 147.051 232.53 147.051C232.933 147.051 233.349 146.895 233.752 146.57L234.246 147.376C233.817 147.857 233.18 148.091 232.335 148.091C230.996 148.091 230.268 147.207 230.268 145.543V142.28ZM239.055 146.154C239.055 145.244 237.508 145.101 236.273 144.75C235.428 144.503 234.752 143.944 234.752 143.021C234.752 141.825 235.883 141.084 237.56 141.084C238.691 141.084 239.601 141.565 240.082 142.254L239.315 142.969C238.886 142.397 238.236 142.111 237.365 142.111C236.585 142.111 235.909 142.41 235.909 142.969C235.909 143.762 237.456 143.905 238.691 144.282C239.523 144.542 240.199 145.166 240.199 146.141C240.199 147.454 239.146 148.117 237.495 148.117C236.104 148.117 234.921 147.493 234.44 146.518L235.311 145.907C235.714 146.622 236.637 147.09 237.677 147.09C238.6 147.09 239.055 146.778 239.055 146.154ZM132.994 165.898L132.253 166.652C131.291 165.82 130.589 164.871 130.147 163.805C129.705 162.739 129.484 161.686 129.484 160.633C129.484 158.553 130.303 156.356 132.266 154.601L132.981 155.355C131.395 156.837 130.602 158.592 130.602 160.633C130.602 162.57 131.486 164.442 132.994 165.898ZM134.884 164H133.792V157.24H134.884V157.76C135.105 157.305 135.69 157.097 136.275 157.097C136.873 157.097 137.328 157.305 137.653 157.708L136.964 158.462C136.795 158.241 136.535 158.124 136.158 158.124C135.573 158.124 135.04 158.605 134.884 159.294V164ZM138.625 158.865L138.066 158.046C138.69 157.461 139.769 157.084 140.77 157.084C142.577 157.084 143.539 158.072 143.539 159.827V164H142.447V162.999C142.018 163.623 141.173 164.091 140.081 164.091C138.612 164.091 137.624 163.272 137.624 162.024C137.624 160.607 138.833 159.931 140.861 159.931C141.498 159.931 142.018 159.996 142.447 160.126C142.447 158.813 141.979 158.111 140.64 158.111C139.964 158.111 139.288 158.358 138.625 158.865ZM140.341 163.103C140.848 163.103 141.303 162.96 141.68 162.687C142.057 162.414 142.304 162.102 142.447 161.777V161.088C142.07 160.958 141.589 160.893 141.004 160.893C139.522 160.893 138.781 161.257 138.781 161.985C138.781 162.674 139.405 163.103 140.341 163.103ZM146.155 164H145.063V157.24H146.155V164ZM144.92 155.043C144.92 154.679 145.219 154.406 145.622 154.406C145.986 154.406 146.298 154.679 146.298 155.043C146.298 155.42 145.986 155.719 145.622 155.719C145.219 155.719 144.92 155.42 144.92 155.043ZM148.944 164H147.852V154.51H148.944V164ZM151.591 164H150.499V157.24H151.591V157.76C151.812 157.305 152.397 157.097 152.982 157.097C153.58 157.097 154.035 157.305 154.36 157.708L153.671 158.462C153.502 158.241 153.242 158.124 152.865 158.124C152.28 158.124 151.747 158.605 151.591 159.294V164ZM154.195 160.607C154.195 159.58 154.533 158.735 155.196 158.072C155.859 157.409 156.717 157.084 157.77 157.084C158.836 157.084 159.707 157.409 160.37 158.072C161.033 158.735 161.371 159.58 161.371 160.607C161.371 161.634 161.033 162.466 160.37 163.129C159.694 163.792 158.823 164.117 157.77 164.117C156.717 164.117 155.859 163.792 155.196 163.129C154.533 162.466 154.195 161.634 154.195 160.607ZM155.352 160.607C155.352 161.322 155.573 161.92 156.028 162.388C156.483 162.856 157.055 163.09 157.77 163.09C158.485 163.09 159.083 162.856 159.538 162.401C159.993 161.946 160.214 161.348 160.214 160.607C160.214 159.866 159.98 159.268 159.525 158.8C159.057 158.345 158.472 158.111 157.77 158.111C157.068 158.111 156.496 158.345 156.041 158.8C155.586 159.255 155.352 159.866 155.352 160.607ZM162.972 158.865L162.413 158.046C163.037 157.461 164.116 157.084 165.117 157.084C166.924 157.084 167.886 158.072 167.886 159.827V164H166.794V162.999C166.365 163.623 165.52 164.091 164.428 164.091C162.959 164.091 161.971 163.272 161.971 162.024C161.971 160.607 163.18 159.931 165.208 159.931C165.845 159.931 166.365 159.996 166.794 160.126C166.794 158.813 166.326 158.111 164.987 158.111C164.311 158.111 163.635 158.358 162.972 158.865ZM164.688 163.103C165.195 163.103 165.65 162.96 166.027 162.687C166.404 162.414 166.651 162.102 166.794 161.777V161.088C166.417 160.958 165.936 160.893 165.351 160.893C163.869 160.893 163.128 161.257 163.128 161.985C163.128 162.674 163.752 163.103 164.688 163.103ZM175.416 164H174.324V163.194C174.025 163.662 173.245 164.117 172.218 164.117C171.217 164.117 170.424 163.805 169.813 163.181C169.202 162.557 168.89 161.712 168.89 160.633C168.89 159.593 169.215 158.735 169.878 158.072C170.541 157.409 171.347 157.084 172.309 157.084C173.206 157.084 173.882 157.305 174.324 157.747V154.51H175.416V164ZM172.374 163.077C173.297 163.077 174.012 162.427 174.324 161.79V159.06C173.895 158.423 173.258 158.111 172.439 158.111C171.776 158.111 171.204 158.345 170.749 158.8C170.281 159.255 170.047 159.866 170.047 160.607C170.047 162.115 171.009 163.077 172.374 163.077ZM181.325 158.28H179.921V157.24H181.325V155.511H182.417V157.24H184.744V158.28H182.417V161.257C182.417 162.57 182.755 163.051 183.587 163.051C183.99 163.051 184.406 162.895 184.809 162.57L185.303 163.376C184.874 163.857 184.237 164.091 183.392 164.091C182.053 164.091 181.325 163.207 181.325 161.543V158.28ZM186.485 158.865L185.926 158.046C186.55 157.461 187.629 157.084 188.63 157.084C190.437 157.084 191.399 158.072 191.399 159.827V164H190.307V162.999C189.878 163.623 189.033 164.091 187.941 164.091C186.472 164.091 185.484 163.272 185.484 162.024C185.484 160.607 186.693 159.931 188.721 159.931C189.358 159.931 189.878 159.996 190.307 160.126C190.307 158.813 189.839 158.111 188.5 158.111C187.824 158.111 187.148 158.358 186.485 158.865ZM188.201 163.103C188.708 163.103 189.163 162.96 189.54 162.687C189.917 162.414 190.164 162.102 190.307 161.777V161.088C189.93 160.958 189.449 160.893 188.864 160.893C187.382 160.893 186.641 161.257 186.641 161.985C186.641 162.674 187.265 163.103 188.201 163.103ZM193.871 164H192.779V157.24H193.871V157.76C194.092 157.305 194.677 157.097 195.262 157.097C195.86 157.097 196.315 157.305 196.64 157.708L195.951 158.462C195.782 158.241 195.522 158.124 195.145 158.124C194.56 158.124 194.027 158.605 193.871 159.294V164ZM198.48 164H197.388V157.24H198.48V164ZM197.245 155.043C197.245 154.679 197.544 154.406 197.947 154.406C198.311 154.406 198.623 154.679 198.623 155.043C198.623 155.42 198.311 155.719 197.947 155.719C197.544 155.719 197.245 155.42 197.245 155.043ZM200.554 158.28H199.306V157.24H200.554V156.928C200.554 156.057 200.775 155.407 201.217 155.004C201.646 154.601 202.179 154.406 202.816 154.406C203.505 154.406 204.155 154.718 204.48 155.199L203.83 155.875C203.609 155.589 203.284 155.446 202.868 155.446C202.049 155.446 201.646 155.966 201.646 157.019V157.24H203.739V158.28H201.646V164H200.554V158.28ZM204.829 158.28H203.581V157.24H204.829V156.928C204.829 156.057 205.05 155.407 205.492 155.004C205.921 154.601 206.454 154.406 207.091 154.406C207.78 154.406 208.43 154.718 208.755 155.199L208.105 155.875C207.884 155.589 207.559 155.446 207.143 155.446C206.324 155.446 205.921 155.966 205.921 157.019V157.24H208.014V158.28H205.921V164H204.829V158.28ZM209.755 166.639L209.014 165.924C209.794 165.235 210.392 164.429 210.795 163.467C211.198 162.518 211.393 161.582 211.393 160.633C211.393 158.592 210.6 156.837 209.014 155.368L209.742 154.601C211.705 156.356 212.511 158.553 212.511 160.633C212.511 161.686 212.29 162.739 211.861 163.805C211.419 164.871 210.717 165.82 209.755 166.639Z" fill="#3C525E"/>
<rect x="352" y="137" width="10" height="10" fill="#5A96A8"/>
<path d="M373.864 137.6H374.956V143.456C374.956 145.136 373.984 146.108 372.46 146.108C371.224 146.108 370.372 145.412 369.952 144.584L370.768 143.96C371.116 144.62 371.716 145.1 372.376 145.088C373.372 145.076 373.864 144.572 373.864 143.264V137.6ZM381.479 143.768C381.479 141.692 376.295 142.892 376.295 139.796C376.295 139.148 376.583 138.596 377.159 138.152C377.723 137.708 378.479 137.492 379.403 137.492C380.807 137.492 381.827 137.9 382.463 138.716L381.755 139.424C381.155 138.824 380.363 138.524 379.379 138.524C378.887 138.524 378.443 138.62 378.035 138.824C377.627 139.028 377.423 139.352 377.423 139.772C377.423 140.816 378.719 141.02 380.015 141.368C381.311 141.716 382.607 142.184 382.607 143.684C382.607 144.392 382.319 144.98 381.743 145.424C381.167 145.88 380.435 146.108 379.559 146.108C378.839 146.108 378.167 145.952 377.531 145.628C376.895 145.316 376.415 144.932 376.115 144.488L376.823 143.72C377.411 144.488 378.455 145.076 379.667 145.076C380.675 145.076 381.479 144.572 381.479 143.768ZM390.482 143.936L391.106 144.632C390.47 145.532 389.198 146.108 387.842 146.108C386.522 146.108 385.466 145.712 384.686 144.932C383.906 144.152 383.51 143.108 383.51 141.8C383.51 140.564 383.906 139.544 384.686 138.716C385.466 137.9 386.486 137.492 387.758 137.492C389.198 137.492 390.374 138.068 390.986 138.884L390.278 139.568C389.594 138.884 388.754 138.536 387.782 138.536C386.81 138.536 386.054 138.836 385.49 139.436C384.926 140.036 384.65 140.828 384.65 141.8C384.65 142.784 384.95 143.576 385.55 144.164C386.15 144.764 386.942 145.064 387.914 145.064C388.958 145.064 389.81 144.692 390.482 143.936ZM391.407 142.868C391.407 141.92 391.719 141.14 392.331 140.528C392.943 139.916 393.735 139.616 394.707 139.616C395.691 139.616 396.495 139.916 397.107 140.528C397.719 141.14 398.031 141.92 398.031 142.868C398.031 143.816 397.719 144.584 397.107 145.196C396.483 145.808 395.679 146.108 394.707 146.108C393.735 146.108 392.943 145.808 392.331 145.196C391.719 144.584 391.407 143.816 391.407 142.868ZM392.475 142.868C392.475 143.528 392.679 144.08 393.099 144.512C393.519 144.944 394.047 145.16 394.707 145.16C395.367 145.16 395.919 144.944 396.339 144.524C396.759 144.104 396.963 143.552 396.963 142.868C396.963 142.184 396.747 141.632 396.327 141.2C395.895 140.78 395.355 140.564 394.707 140.564C394.059 140.564 393.531 140.78 393.111 141.2C392.691 141.62 392.475 142.184 392.475 142.868ZM403.517 140.348H402.473V137.6H403.517V140.348ZM405.497 140.348H404.453V137.6H405.497V140.348ZM408.496 142.712V146H407.404V137.6H410.62C412.792 137.6 413.872 138.44 413.872 140.12C413.872 141.308 413.056 142.244 411.82 142.496L414.508 146H413.176L410.68 142.712H408.496ZM410.584 138.62H408.496V141.692H410.656C411.94 141.692 412.756 141.08 412.756 140.12C412.756 139.124 412.036 138.62 410.584 138.62ZM419.913 138.62H414.645V137.6H421.485V138.332L415.977 144.98H421.605V146H414.429V145.268L419.913 138.62ZM425.204 146H422.732V137.6H425.324C428.732 137.6 429.956 139.484 429.956 141.68C429.956 142.952 429.56 143.984 428.756 144.788C427.952 145.592 426.776 146 425.204 146ZM425.3 138.62H423.824V144.98H425.276C427.676 144.98 428.828 143.696 428.828 141.68C428.828 139.796 427.76 138.62 425.3 138.62ZM432.181 140.348H431.137V137.6H432.181V140.348ZM434.161 140.348H433.117V137.6H434.161V140.348Z" fill="#1A3341" fill-opacity="0.6"/>
<rect width="10" height="10" transform="translate(352 157)" fill="#60CCCC"/>
<rect opacity="0.7" x="352" y="157" width="10" height="10" fill="#60CCCC"/>
<path d="M376.96 166H370.888V157.6H371.98V164.98H376.96V166ZM384.038 166H377.966V157.6H379.058V164.98H384.038V166ZM386.136 162.904V166H385.044V157.6H388.308C390.6 157.6 391.752 158.476 391.752 160.24C391.752 160.996 391.476 161.632 390.924 162.136C390.36 162.652 389.484 162.904 388.296 162.904H386.136ZM388.356 158.62H386.136V161.896H388.272C389.856 161.896 390.624 161.272 390.624 160.228C390.624 159.16 389.868 158.62 388.356 158.62ZM397.212 160.348H396.168V157.6H397.212V160.348ZM399.192 160.348H398.148V157.6H399.192V160.348ZM402.191 166H401.099V157.6H402.191V161.656L406.439 157.6H407.867L403.907 161.404L408.155 166H406.715L403.091 162.124L402.191 162.988V166ZM411.097 158.62H408.181V157.6H415.117V158.62H412.189V166H411.097V158.62ZM420.781 158.62H415.513V157.6H422.353V158.332L416.845 164.98H422.473V166H415.297V165.268L420.781 158.62ZM432.988 163.156H425.572V162.268H432.988V163.156ZM437.828 166H436.724V157.6H442.76V158.62H437.828V161.5H442.424V162.52H437.828V166ZM444.689 166H443.681V159.76H444.689V160.24C444.893 159.82 445.433 159.628 445.973 159.628C446.525 159.628 446.945 159.82 447.245 160.192L446.609 160.888C446.453 160.684 446.213 160.576 445.865 160.576C445.325 160.576 444.833 161.02 444.689 161.656V166ZM452.384 164.212L453.032 164.812C452.456 165.676 451.628 166.108 450.536 166.108C449.54 166.108 448.736 165.808 448.124 165.22C447.512 164.632 447.212 163.852 447.212 162.868C447.212 161.92 447.488 161.14 448.052 160.528C448.604 159.916 449.384 159.616 450.392 159.616C451.22 159.616 451.916 159.88 452.456 160.396C452.996 160.912 453.272 161.596 453.272 162.448C453.272 162.724 453.248 162.976 453.212 163.204H448.292C448.352 164.44 449.264 165.16 450.572 165.16C451.304 165.16 452 164.776 452.384 164.212ZM450.32 160.54C449.18 160.54 448.436 161.236 448.28 162.292H452.204C452.144 161.188 451.436 160.54 450.32 160.54ZM455.532 166H454.524V159.76H455.532V166ZM454.392 157.732C454.392 157.396 454.668 157.144 455.04 157.144C455.376 157.144 455.664 157.396 455.664 157.732C455.664 158.08 455.376 158.356 455.04 158.356C454.668 158.356 454.392 158.08 454.392 157.732ZM461.767 159.76H462.787V165.52C462.787 167.536 461.683 168.508 459.991 168.508C458.635 168.508 457.555 167.92 457.207 166.996L458.107 166.6C458.383 167.14 459.007 167.548 459.931 167.548C461.131 167.548 461.767 166.864 461.767 165.7V165.328C461.299 165.868 460.855 166.108 459.883 166.108C458.935 166.108 458.191 165.82 457.627 165.232C457.063 164.656 456.775 163.864 456.775 162.868C456.775 161.884 457.075 161.092 457.675 160.504C458.263 159.916 459.007 159.628 459.895 159.628C460.771 159.628 461.443 159.928 461.767 160.312V159.76ZM460.051 165.16C460.903 165.16 461.539 164.632 461.767 163.972V161.464C461.467 160.936 460.843 160.576 460.039 160.576C459.415 160.576 458.899 160.78 458.479 161.188C458.059 161.596 457.843 162.16 457.843 162.892C457.843 164.296 458.695 165.16 460.051 165.16ZM465.244 166H464.236V157.24H465.244V160.576C465.724 159.94 466.396 159.628 467.272 159.628C469.024 159.628 469.9 160.576 469.9 162.46V166H468.892V162.556C468.892 161.212 468.316 160.576 467.08 160.576C466.252 160.576 465.58 161.104 465.244 161.872V166ZM471.927 160.72H470.631V159.76H471.927V158.164H472.935V159.76H475.083V160.72H472.935V163.468C472.935 164.68 473.247 165.124 474.015 165.124C474.387 165.124 474.771 164.98 475.143 164.68L475.599 165.424C475.203 165.868 474.615 166.084 473.835 166.084C472.599 166.084 471.927 165.268 471.927 163.732V160.72ZM371.368 176.72H370.072V175.76H371.368V174.164H372.376V175.76H374.524V176.72H372.376V179.468C372.376 180.68 372.688 181.124 373.456 181.124C373.828 181.124 374.212 180.98 374.584 180.68L375.04 181.424C374.644 181.868 374.056 182.084 373.276 182.084C372.04 182.084 371.368 181.268 371.368 179.732V176.72ZM376.779 182H375.771V175.76H376.779V176.24C376.983 175.82 377.523 175.628 378.063 175.628C378.615 175.628 379.035 175.82 379.335 176.192L378.699 176.888C378.543 176.684 378.303 176.576 377.955 176.576C377.415 176.576 376.923 177.02 376.779 177.656V182ZM380.353 177.26L379.837 176.504C380.413 175.964 381.409 175.616 382.333 175.616C384.001 175.616 384.889 176.528 384.889 178.148V182H383.881V181.076C383.485 181.652 382.705 182.084 381.697 182.084C380.341 182.084 379.429 181.328 379.429 180.176C379.429 178.868 380.545 178.244 382.417 178.244C383.005 178.244 383.485 178.304 383.881 178.424C383.881 177.212 383.449 176.564 382.213 176.564C381.589 176.564 380.965 176.792 380.353 177.26ZM381.937 181.172C382.405 181.172 382.825 181.04 383.173 180.788C383.521 180.536 383.749 180.248 383.881 179.948V179.312C383.533 179.192 383.089 179.132 382.549 179.132C381.181 179.132 380.497 179.468 380.497 180.14C380.497 180.776 381.073 181.172 381.937 181.172ZM387.291 182H386.283V175.76H387.291V176.576C387.687 175.964 388.503 175.628 389.427 175.628C391.119 175.628 391.959 176.564 391.959 178.448V182H390.951V178.568C390.951 177.188 390.363 176.576 389.127 176.576C388.359 176.576 387.627 177.08 387.291 177.836V182ZM397.177 180.296C397.177 179.456 395.749 179.324 394.609 179C393.829 178.772 393.205 178.256 393.205 177.404C393.205 176.3 394.249 175.616 395.797 175.616C396.841 175.616 397.681 176.06 398.125 176.696L397.417 177.356C397.021 176.828 396.421 176.564 395.617 176.564C394.897 176.564 394.273 176.84 394.273 177.356C394.273 178.088 395.701 178.22 396.841 178.568C397.609 178.808 398.233 179.384 398.233 180.284C398.233 181.496 397.261 182.108 395.737 182.108C394.453 182.108 393.361 181.532 392.917 180.632L393.721 180.068C394.093 180.728 394.945 181.16 395.905 181.16C396.757 181.16 397.177 180.872 397.177 180.296ZM400.322 184.4H399.314V175.76H400.322V176.54C400.742 175.928 401.414 175.616 402.338 175.616C403.25 175.616 403.982 175.904 404.522 176.492C405.062 177.08 405.326 177.836 405.326 178.772C405.326 179.732 405.038 180.524 404.462 181.16C403.874 181.796 403.13 182.108 402.218 182.108C401.378 182.108 400.742 181.892 400.322 181.472V184.4ZM402.23 176.564C401.318 176.564 400.61 177.152 400.322 177.86V180.188C400.682 180.836 401.282 181.16 402.134 181.16C402.746 181.16 403.262 180.944 403.658 180.512C404.054 180.08 404.258 179.528 404.258 178.844C404.258 177.452 403.478 176.564 402.23 176.564ZM406.091 178.868C406.091 177.92 406.403 177.14 407.015 176.528C407.627 175.916 408.419 175.616 409.391 175.616C410.375 175.616 411.179 175.916 411.791 176.528C412.403 177.14 412.715 177.92 412.715 178.868C412.715 179.816 412.403 180.584 411.791 181.196C411.167 181.808 410.363 182.108 409.391 182.108C408.419 182.108 407.627 181.808 407.015 181.196C406.403 180.584 406.091 179.816 406.091 178.868ZM407.159 178.868C407.159 179.528 407.363 180.08 407.783 180.512C408.203 180.944 408.731 181.16 409.391 181.16C410.051 181.16 410.603 180.944 411.023 180.524C411.443 180.104 411.647 179.552 411.647 178.868C411.647 178.184 411.431 177.632 411.011 177.2C410.579 176.78 410.039 176.564 409.391 176.564C408.743 176.564 408.215 176.78 407.795 177.2C407.375 177.62 407.159 178.184 407.159 178.868ZM414.842 182H413.834V175.76H414.842V176.24C415.046 175.82 415.586 175.628 416.126 175.628C416.678 175.628 417.098 175.82 417.398 176.192L416.762 176.888C416.606 176.684 416.366 176.576 416.018 176.576C415.478 176.576 414.986 177.02 414.842 177.656V182ZM418.946 176.72H417.65V175.76H418.946V174.164H419.954V175.76H422.102V176.72H419.954V179.468C419.954 180.68 420.266 181.124 421.034 181.124C421.406 181.124 421.79 180.98 422.162 180.68L422.618 181.424C422.222 181.868 421.634 182.084 420.854 182.084C419.618 182.084 418.946 181.268 418.946 179.732V176.72ZM423.829 177.26L423.313 176.504C423.889 175.964 424.885 175.616 425.809 175.616C427.477 175.616 428.365 176.528 428.365 178.148V182H427.357V181.076C426.961 181.652 426.181 182.084 425.173 182.084C423.817 182.084 422.905 181.328 422.905 180.176C422.905 178.868 424.021 178.244 425.893 178.244C426.481 178.244 426.961 178.304 427.357 178.424C427.357 177.212 426.925 176.564 425.689 176.564C425.065 176.564 424.441 176.792 423.829 177.26ZM425.413 181.172C425.881 181.172 426.301 181.04 426.649 180.788C426.997 180.536 427.225 180.248 427.357 179.948V179.312C427.009 179.192 426.565 179.132 426.025 179.132C424.657 179.132 423.973 179.468 423.973 180.14C423.973 180.776 424.549 181.172 425.413 181.172ZM430.395 176.72H429.099V175.76H430.395V174.164H431.403V175.76H433.551V176.72H431.403V179.468C431.403 180.68 431.715 181.124 432.483 181.124C432.855 181.124 433.239 180.98 433.611 180.68L434.067 181.424C433.671 181.868 433.083 182.084 432.303 182.084C431.067 182.084 430.395 181.268 430.395 179.732V176.72ZM435.938 182H434.93V175.76H435.938V182ZM434.798 173.732C434.798 173.396 435.074 173.144 435.446 173.144C435.782 173.144 436.07 173.396 436.07 173.732C436.07 174.08 435.782 174.356 435.446 174.356C435.074 174.356 434.798 174.08 434.798 173.732ZM437.181 178.868C437.181 177.92 437.493 177.14 438.105 176.528C438.717 175.916 439.509 175.616 440.481 175.616C441.465 175.616 442.269 175.916 442.881 176.528C443.493 177.14 443.805 177.92 443.805 178.868C443.805 179.816 443.493 180.584 442.881 181.196C442.257 181.808 441.453 182.108 440.481 182.108C439.509 182.108 438.717 181.808 438.105 181.196C437.493 180.584 437.181 179.816 437.181 178.868ZM438.249 178.868C438.249 179.528 438.453 180.08 438.873 180.512C439.293 180.944 439.821 181.16 440.481 181.16C441.141 181.16 441.693 180.944 442.113 180.524C442.533 180.104 442.737 179.552 442.737 178.868C442.737 178.184 442.521 177.632 442.101 177.2C441.669 176.78 441.129 176.564 440.481 176.564C439.833 176.564 439.305 176.78 438.885 177.2C438.465 177.62 438.249 178.184 438.249 178.868ZM445.931 182H444.923V175.76H445.931V176.576C446.327 175.964 447.143 175.628 448.067 175.628C449.759 175.628 450.599 176.564 450.599 178.448V182H449.591V178.568C449.591 177.188 449.003 176.576 447.767 176.576C446.999 176.576 446.267 177.08 445.931 177.836V182ZM453.322 176.348H452.278V173.6H453.322V176.348ZM455.302 176.348H454.258V173.6H455.302V176.348Z" fill="#1A3341" fill-opacity="0.6"/>
<rect width="10" height="10" transform="translate(352 193)" fill="url(#paint4_linear_6006_19064)"/>
<path d="M374.224 202H370.888V193.6H374.284C376.432 193.6 377.248 194.38 377.248 195.688C377.248 196.624 376.852 197.26 376.06 197.608C376.984 197.8 377.548 198.508 377.548 199.6C377.548 201.244 376.324 202 374.224 202ZM374.332 198.208H371.98V200.98H374.212C375.736 200.98 376.42 200.536 376.42 199.54C376.42 198.652 375.724 198.208 374.332 198.208ZM374.188 194.62H371.98V197.212H374.368C375.436 197.212 376.132 196.732 376.132 195.916C376.132 195.016 375.616 194.62 374.188 194.62ZM383.63 200.212L384.278 200.812C383.702 201.676 382.874 202.108 381.782 202.108C380.786 202.108 379.982 201.808 379.37 201.22C378.758 200.632 378.458 199.852 378.458 198.868C378.458 197.92 378.734 197.14 379.298 196.528C379.85 195.916 380.63 195.616 381.638 195.616C382.466 195.616 383.162 195.88 383.702 196.396C384.242 196.912 384.518 197.596 384.518 198.448C384.518 198.724 384.494 198.976 384.458 199.204H379.538C379.598 200.44 380.51 201.16 381.818 201.16C382.55 201.16 383.246 200.776 383.63 200.212ZM381.566 196.54C380.426 196.54 379.682 197.236 379.526 198.292H383.45C383.39 197.188 382.682 196.54 381.566 196.54ZM386.742 202H385.734V193.24H386.742V202ZM388.778 197.26L388.262 196.504C388.838 195.964 389.834 195.616 390.758 195.616C392.426 195.616 393.314 196.528 393.314 198.148V202H392.306V201.076C391.91 201.652 391.13 202.084 390.122 202.084C388.766 202.084 387.854 201.328 387.854 200.176C387.854 198.868 388.97 198.244 390.842 198.244C391.43 198.244 391.91 198.304 392.306 198.424C392.306 197.212 391.874 196.564 390.638 196.564C390.014 196.564 389.39 196.792 388.778 197.26ZM390.362 201.172C390.83 201.172 391.25 201.04 391.598 200.788C391.946 200.536 392.174 200.248 392.306 199.948V199.312C391.958 199.192 391.514 199.132 390.974 199.132C389.606 199.132 388.922 199.468 388.922 200.14C388.922 200.776 389.498 201.172 390.362 201.172ZM395.717 202H394.709V195.76H395.717V196.24C395.921 195.82 396.461 195.628 397.001 195.628C397.553 195.628 397.973 195.82 398.273 196.192L397.637 196.888C397.481 196.684 397.241 196.576 396.893 196.576C396.353 196.576 395.861 197.02 395.717 197.656V202ZM403.463 195.724H404.471V202H403.463V201.112C402.983 201.772 402.311 202.108 401.435 202.108C399.707 202.108 398.867 201.244 398.867 199.336V195.724H399.875V199.192C399.875 200.5 400.427 201.16 401.519 201.16C402.383 201.16 403.079 200.668 403.463 199.804V195.724ZM409.751 200.296C409.751 199.456 408.323 199.324 407.183 199C406.403 198.772 405.779 198.256 405.779 197.404C405.779 196.3 406.823 195.616 408.371 195.616C409.415 195.616 410.255 196.06 410.699 196.696L409.991 197.356C409.595 196.828 408.995 196.564 408.191 196.564C407.471 196.564 406.847 196.84 406.847 197.356C406.847 198.088 408.275 198.22 409.415 198.568C410.183 198.808 410.807 199.384 410.807 200.284C410.807 201.496 409.835 202.108 408.311 202.108C407.027 202.108 405.935 201.532 405.491 200.632L406.295 200.068C406.667 200.728 407.519 201.16 408.479 201.16C409.331 201.16 409.751 200.872 409.751 200.296ZM413.028 202H412.02V195.76H413.028V202ZM411.888 193.732C411.888 193.396 412.164 193.144 412.536 193.144C412.872 193.144 413.16 193.396 413.16 193.732C413.16 194.08 412.872 194.356 412.536 194.356C412.164 194.356 411.888 194.08 411.888 193.732ZM415.099 197.26L414.583 196.504C415.159 195.964 416.155 195.616 417.079 195.616C418.747 195.616 419.635 196.528 419.635 198.148V202H418.627V201.076C418.231 201.652 417.451 202.084 416.443 202.084C415.087 202.084 414.175 201.328 414.175 200.176C414.175 198.868 415.291 198.244 417.163 198.244C417.751 198.244 418.231 198.304 418.627 198.424C418.627 197.212 418.195 196.564 416.959 196.564C416.335 196.564 415.711 196.792 415.099 197.26ZM416.683 201.172C417.151 201.172 417.571 201.04 417.919 200.788C418.267 200.536 418.495 200.248 418.627 199.948V199.312C418.279 199.192 417.835 199.132 417.295 199.132C415.927 199.132 415.243 199.468 415.243 200.14C415.243 200.776 415.819 201.172 416.683 201.172ZM422.037 202H421.029V195.76H422.037V196.576C422.433 195.964 423.249 195.628 424.173 195.628C425.865 195.628 426.705 196.564 426.705 198.448V202H425.697V198.568C425.697 197.188 425.109 196.576 423.873 196.576C423.105 196.576 422.373 197.08 422.037 197.836V202ZM432.941 198.712V202H431.849V193.6H435.065C437.237 193.6 438.317 194.44 438.317 196.12C438.317 197.308 437.501 198.244 436.265 198.496L438.953 202H437.621L435.125 198.712H432.941ZM435.029 194.62H432.941V197.692H435.101C436.385 197.692 437.201 197.08 437.201 196.12C437.201 195.124 436.481 194.62 435.029 194.62ZM440.306 197.26L439.79 196.504C440.366 195.964 441.362 195.616 442.286 195.616C443.954 195.616 444.842 196.528 444.842 198.148V202H443.834V201.076C443.438 201.652 442.658 202.084 441.65 202.084C440.294 202.084 439.382 201.328 439.382 200.176C439.382 198.868 440.498 198.244 442.37 198.244C442.958 198.244 443.438 198.304 443.834 198.424C443.834 197.212 443.402 196.564 442.166 196.564C441.542 196.564 440.918 196.792 440.306 197.26ZM441.89 201.172C442.358 201.172 442.778 201.04 443.126 200.788C443.474 200.536 443.702 200.248 443.834 199.948V199.312C443.486 199.192 443.042 199.132 442.502 199.132C441.134 199.132 440.45 199.468 440.45 200.14C440.45 200.776 441.026 201.172 441.89 201.172ZM447.376 202H446.368V195.76H447.376V202ZM446.236 193.732C446.236 193.396 446.512 193.144 446.884 193.144C447.22 193.144 447.508 193.396 447.508 193.732C447.508 194.08 447.22 194.356 446.884 194.356C446.512 194.356 446.236 194.08 446.236 193.732ZM450.07 202H449.062V193.24H450.07V202ZM459.067 195.76H460.099L458.071 202H457.255L455.503 197.32L453.727 202H452.935L450.823 195.76H451.903L453.403 200.32L455.107 195.76H455.899L457.639 200.356L459.067 195.76ZM461.235 197.26L460.719 196.504C461.295 195.964 462.291 195.616 463.215 195.616C464.883 195.616 465.771 196.528 465.771 198.148V202H464.763V201.076C464.367 201.652 463.587 202.084 462.579 202.084C461.223 202.084 460.311 201.328 460.311 200.176C460.311 198.868 461.427 198.244 463.299 198.244C463.887 198.244 464.367 198.304 464.763 198.424C464.763 197.212 464.331 196.564 463.095 196.564C462.471 196.564 461.847 196.792 461.235 197.26ZM462.819 201.172C463.287 201.172 463.707 201.04 464.055 200.788C464.403 200.536 464.631 200.248 464.763 199.948V199.312C464.415 199.192 463.971 199.132 463.431 199.132C462.063 199.132 461.379 199.468 461.379 200.14C461.379 200.776 461.955 201.172 462.819 201.172ZM467.31 204.376L467.706 203.5C467.802 203.536 467.886 203.56 467.97 203.56C468.438 203.56 468.762 203.236 469.182 202.24L469.374 201.772L466.35 195.76H467.538L469.878 200.5L471.642 195.76H472.746L470.37 201.904C469.962 202.912 469.578 203.596 469.23 203.968C468.87 204.34 468.462 204.52 468.006 204.52C467.742 204.52 467.514 204.472 467.31 204.376Z" fill="#1A3341" fill-opacity="0.6"/>
<rect width="10" height="10" transform="translate(352 213)" fill="#184977"/>
<rect x="352" y="213" width="10" height="10" fill="#184977"/>
<path d="M370.432 217.8C370.432 216.588 370.84 215.556 371.668 214.728C372.496 213.9 373.504 213.492 374.704 213.492C375.892 213.492 376.9 213.9 377.728 214.716C378.556 215.532 378.964 216.564 378.964 217.8C378.964 219.024 378.556 220.044 377.728 220.872C376.9 221.7 375.892 222.108 374.704 222.108C373.504 222.108 372.496 221.7 371.668 220.884C370.84 220.068 370.432 219.036 370.432 217.8ZM371.572 217.8C371.572 218.736 371.884 219.516 372.496 220.128C373.108 220.752 373.84 221.064 374.704 221.064C375.592 221.064 376.336 220.752 376.936 220.14C377.524 219.528 377.824 218.748 377.824 217.8C377.824 216.852 377.524 216.072 376.912 215.46C376.3 214.848 375.556 214.536 374.704 214.536C373.828 214.536 373.096 214.848 372.484 215.46C371.872 216.072 371.572 216.852 371.572 217.8ZM380.766 216.72H379.47V215.76H380.766V214.164H381.774V215.76H383.922V216.72H381.774V219.468C381.774 220.68 382.086 221.124 382.854 221.124C383.226 221.124 383.61 220.98 383.982 220.68L384.438 221.424C384.042 221.868 383.454 222.084 382.674 222.084C381.438 222.084 380.766 221.268 380.766 219.732V216.72ZM386.178 222H385.17V213.24H386.178V216.576C386.658 215.94 387.33 215.628 388.206 215.628C389.958 215.628 390.834 216.576 390.834 218.46V222H389.826V218.556C389.826 217.212 389.25 216.576 388.014 216.576C387.186 216.576 386.514 217.104 386.178 217.872V222ZM397.048 220.212L397.696 220.812C397.12 221.676 396.292 222.108 395.2 222.108C394.204 222.108 393.4 221.808 392.788 221.22C392.176 220.632 391.876 219.852 391.876 218.868C391.876 217.92 392.152 217.14 392.716 216.528C393.268 215.916 394.048 215.616 395.056 215.616C395.884 215.616 396.58 215.88 397.12 216.396C397.66 216.912 397.936 217.596 397.936 218.448C397.936 218.724 397.912 218.976 397.876 219.204H392.956C393.016 220.44 393.928 221.16 395.236 221.16C395.968 221.16 396.664 220.776 397.048 220.212ZM394.984 216.54C393.844 216.54 393.1 217.236 392.944 218.292H396.868C396.808 217.188 396.1 216.54 394.984 216.54ZM400.064 222H399.056V215.76H400.064V216.24C400.268 215.82 400.808 215.628 401.348 215.628C401.9 215.628 402.32 215.82 402.62 216.192L401.984 216.888C401.828 216.684 401.588 216.576 401.24 216.576C400.7 216.576 400.208 217.02 400.064 217.656V222ZM407.126 220.296C407.126 219.456 405.698 219.324 404.558 219C403.778 218.772 403.154 218.256 403.154 217.404C403.154 216.3 404.198 215.616 405.746 215.616C406.79 215.616 407.63 216.06 408.074 216.696L407.366 217.356C406.97 216.828 406.37 216.564 405.566 216.564C404.846 216.564 404.222 216.84 404.222 217.356C404.222 218.088 405.65 218.22 406.79 218.568C407.558 218.808 408.182 219.384 408.182 220.284C408.182 221.496 407.21 222.108 405.686 222.108C404.402 222.108 403.31 221.532 402.866 220.632L403.67 220.068C404.042 220.728 404.894 221.16 405.854 221.16C406.706 221.16 407.126 220.872 407.126 220.296Z" fill="#1A3341" fill-opacity="0.6"/>
<path d="M353.98 106H352.888V97.6H353.98V106ZM356.611 106H355.603V99.76H356.611V100.576C357.007 99.964 357.823 99.628 358.747 99.628C360.439 99.628 361.279 100.564 361.279 102.448V106H360.271V102.568C360.271 101.188 359.683 100.576 358.447 100.576C357.679 100.576 356.947 101.08 356.611 101.836V106ZM363.114 100.72H361.962V99.76H363.114V99.472C363.114 98.668 363.318 98.068 363.726 97.696C364.122 97.324 364.614 97.144 365.202 97.144C365.838 97.144 366.438 97.432 366.738 97.876L366.138 98.5C365.934 98.236 365.634 98.104 365.25 98.104C364.494 98.104 364.122 98.584 364.122 99.556V99.76H366.054V100.72H364.122V106H363.114V100.72ZM367.744 106H366.736V99.76H367.744V100.24C367.948 99.82 368.488 99.628 369.028 99.628C369.58 99.628 370 99.82 370.3 100.192L369.664 100.888C369.508 100.684 369.268 100.576 368.92 100.576C368.38 100.576 367.888 101.02 367.744 101.656V106ZM371.317 101.26L370.801 100.504C371.377 99.964 372.373 99.616 373.297 99.616C374.965 99.616 375.853 100.528 375.853 102.148V106H374.845V105.076C374.449 105.652 373.669 106.084 372.661 106.084C371.305 106.084 370.393 105.328 370.393 104.176C370.393 102.868 371.509 102.244 373.381 102.244C373.969 102.244 374.449 102.304 374.845 102.424C374.845 101.212 374.413 100.564 373.177 100.564C372.553 100.564 371.929 100.792 371.317 101.26ZM372.901 105.172C373.369 105.172 373.789 105.04 374.137 104.788C374.485 104.536 374.713 104.248 374.845 103.948V103.312C374.497 103.192 374.053 103.132 373.513 103.132C372.145 103.132 371.461 103.468 371.461 104.14C371.461 104.776 372.037 105.172 372.901 105.172ZM381.076 104.296C381.076 103.456 379.648 103.324 378.508 103C377.728 102.772 377.104 102.256 377.104 101.404C377.104 100.3 378.148 99.616 379.696 99.616C380.74 99.616 381.58 100.06 382.024 100.696L381.316 101.356C380.92 100.828 380.32 100.564 379.516 100.564C378.796 100.564 378.172 100.84 378.172 101.356C378.172 102.088 379.6 102.22 380.74 102.568C381.508 102.808 382.132 103.384 382.132 104.284C382.132 105.496 381.16 106.108 379.636 106.108C378.352 106.108 377.26 105.532 376.816 104.632L377.62 104.068C377.992 104.728 378.844 105.16 379.804 105.16C380.656 105.16 381.076 104.872 381.076 104.296ZM383.848 100.72H382.552V99.76H383.848V98.164H384.856V99.76H387.004V100.72H384.856V103.468C384.856 104.68 385.168 105.124 385.936 105.124C386.308 105.124 386.692 104.98 387.064 104.68L387.52 105.424C387.124 105.868 386.536 106.084 385.756 106.084C384.52 106.084 383.848 105.268 383.848 103.732V100.72ZM389.26 106H388.252V99.76H389.26V100.24C389.464 99.82 390.004 99.628 390.544 99.628C391.096 99.628 391.516 99.82 391.816 100.192L391.18 100.888C391.024 100.684 390.784 100.576 390.436 100.576C389.896 100.576 389.404 101.02 389.26 101.656V106ZM397.006 99.724H398.014V106H397.006V105.112C396.526 105.772 395.854 106.108 394.978 106.108C393.25 106.108 392.41 105.244 392.41 103.336V99.724H393.418V103.192C393.418 104.5 393.97 105.16 395.062 105.16C395.926 105.16 396.622 104.668 397.006 103.804V99.724ZM404.302 104.2L405.022 104.716C404.554 105.592 403.498 106.108 402.454 106.108C401.458 106.108 400.654 105.808 400.042 105.22C399.43 104.632 399.118 103.852 399.118 102.868C399.118 101.932 399.418 101.152 400.03 100.54C400.642 99.928 401.422 99.616 402.394 99.616C403.51 99.616 404.506 100.12 404.926 100.888L404.146 101.416C403.726 100.852 403.15 100.564 402.418 100.564C401.77 100.564 401.242 100.78 400.822 101.212C400.402 101.644 400.186 102.196 400.186 102.868C400.186 103.552 400.402 104.104 400.846 104.524C401.278 104.944 401.842 105.16 402.55 105.16C403.294 105.16 403.882 104.836 404.302 104.2ZM406.489 100.72H405.193V99.76H406.489V98.164H407.497V99.76H409.645V100.72H407.497V103.468C407.497 104.68 407.809 105.124 408.577 105.124C408.949 105.124 409.333 104.98 409.705 104.68L410.161 105.424C409.765 105.868 409.177 106.084 408.397 106.084C407.161 106.084 406.489 105.268 406.489 103.732V100.72ZM415.404 99.724H416.412V106H415.404V105.112C414.924 105.772 414.252 106.108 413.376 106.108C411.648 106.108 410.808 105.244 410.808 103.336V99.724H411.816V103.192C411.816 104.5 412.368 105.16 413.46 105.16C414.324 105.16 415.02 104.668 415.404 103.804V99.724ZM418.873 106H417.865V99.76H418.873V100.24C419.077 99.82 419.617 99.628 420.157 99.628C420.709 99.628 421.129 99.82 421.429 100.192L420.793 100.888C420.637 100.684 420.397 100.576 420.049 100.576C419.509 100.576 419.017 101.02 418.873 101.656V106ZM426.568 104.212L427.216 104.812C426.64 105.676 425.812 106.108 424.72 106.108C423.724 106.108 422.92 105.808 422.308 105.22C421.696 104.632 421.396 103.852 421.396 102.868C421.396 101.92 421.672 101.14 422.236 100.528C422.788 99.916 423.568 99.616 424.576 99.616C425.404 99.616 426.1 99.88 426.64 100.396C427.18 100.912 427.456 101.596 427.456 102.448C427.456 102.724 427.432 102.976 427.396 103.204H422.476C422.536 104.44 423.448 105.16 424.756 105.16C425.488 105.16 426.184 104.776 426.568 104.212ZM424.504 100.54C423.364 100.54 422.62 101.236 422.464 102.292H426.388C426.328 101.188 425.62 100.54 424.504 100.54ZM433.181 108.4H432.173V99.76H433.181V100.54C433.601 99.928 434.273 99.616 435.197 99.616C436.109 99.616 436.841 99.904 437.381 100.492C437.921 101.08 438.185 101.836 438.185 102.772C438.185 103.732 437.897 104.524 437.321 105.16C436.733 105.796 435.989 106.108 435.077 106.108C434.237 106.108 433.601 105.892 433.181 105.472V108.4ZM435.089 100.564C434.177 100.564 433.469 101.152 433.181 101.86V104.188C433.541 104.836 434.141 105.16 434.993 105.16C435.605 105.16 436.121 104.944 436.517 104.512C436.913 104.08 437.117 103.528 437.117 102.844C437.117 101.452 436.337 100.564 435.089 100.564ZM439.778 101.26L439.262 100.504C439.838 99.964 440.834 99.616 441.758 99.616C443.426 99.616 444.314 100.528 444.314 102.148V106H443.306V105.076C442.91 105.652 442.13 106.084 441.122 106.084C439.766 106.084 438.854 105.328 438.854 104.176C438.854 102.868 439.97 102.244 441.842 102.244C442.43 102.244 442.91 102.304 443.306 102.424C443.306 101.212 442.874 100.564 441.638 100.564C441.014 100.564 440.39 100.792 439.778 101.26ZM441.362 105.172C441.83 105.172 442.25 105.04 442.598 104.788C442.946 104.536 443.174 104.248 443.306 103.948V103.312C442.958 103.192 442.514 103.132 441.974 103.132C440.606 103.132 439.922 103.468 439.922 104.14C439.922 104.776 440.498 105.172 441.362 105.172ZM445.853 108.376L446.249 107.5C446.345 107.536 446.429 107.56 446.513 107.56C446.981 107.56 447.305 107.236 447.725 106.24L447.917 105.772L444.893 99.76H446.081L448.421 104.5L450.185 99.76H451.289L448.913 105.904C448.505 106.912 448.121 107.596 447.773 107.968C447.413 108.34 447.005 108.52 446.549 108.52C446.285 108.52 446.057 108.472 445.853 108.376ZM461.014 101.86V106H460.006V102.172C460.006 101.104 459.574 100.576 458.71 100.576C457.93 100.576 457.354 100.96 456.994 101.716V106H455.986V101.848C455.986 101.092 455.494 100.576 454.69 100.576C453.886 100.576 453.25 101.176 452.974 101.836V106H451.966V99.76H452.974V100.6C453.346 100.024 454.066 99.628 454.882 99.628C455.77 99.628 456.382 99.952 456.718 100.6C457.21 99.952 457.894 99.628 458.77 99.628C460.162 99.628 461.014 100.324 461.014 101.86ZM467.22 104.212L467.868 104.812C467.292 105.676 466.464 106.108 465.372 106.108C464.376 106.108 463.572 105.808 462.96 105.22C462.348 104.632 462.048 103.852 462.048 102.868C462.048 101.92 462.324 101.14 462.888 100.528C463.44 99.916 464.22 99.616 465.228 99.616C466.056 99.616 466.752 99.88 467.292 100.396C467.832 100.912 468.108 101.596 468.108 102.448C468.108 102.724 468.084 102.976 468.048 103.204H463.128C463.188 104.44 464.1 105.16 465.408 105.16C466.14 105.16 466.836 104.776 467.22 104.212ZM465.156 100.54C464.016 100.54 463.272 101.236 463.116 102.292H467.04C466.98 101.188 466.272 100.54 465.156 100.54ZM470.236 106H469.228V99.76H470.236V100.576C470.632 99.964 471.448 99.628 472.372 99.628C474.064 99.628 474.904 100.564 474.904 102.448V106H473.896V102.568C473.896 101.188 473.308 100.576 472.072 100.576C471.304 100.576 470.572 101.08 470.236 101.836V106ZM476.931 100.72H475.635V99.76H476.931V98.164H477.939V99.76H480.087V100.72H477.939V103.468C477.939 104.68 478.251 105.124 479.019 105.124C479.391 105.124 479.775 104.98 480.147 104.68L480.603 105.424C480.207 105.868 479.619 106.084 478.839 106.084C477.603 106.084 476.931 105.268 476.931 103.732V100.72ZM485.162 104.296C485.162 103.456 483.734 103.324 482.594 103C481.814 102.772 481.19 102.256 481.19 101.404C481.19 100.3 482.234 99.616 483.782 99.616C484.826 99.616 485.666 100.06 486.11 100.696L485.402 101.356C485.006 100.828 484.406 100.564 483.602 100.564C482.882 100.564 482.258 100.84 482.258 101.356C482.258 102.088 483.686 102.22 484.826 102.568C485.594 102.808 486.218 103.384 486.218 104.284C486.218 105.496 485.246 106.108 483.722 106.108C482.438 106.108 481.346 105.532 480.902 104.632L481.706 104.068C482.078 104.728 482.93 105.16 483.89 105.16C484.742 105.16 485.162 104.872 485.162 104.296ZM355.672 123.752L354.988 124.448C354.1 123.68 353.452 122.804 353.044 121.82C352.636 120.836 352.432 119.864 352.432 118.892C352.432 116.972 353.188 114.944 355 113.324L355.66 114.02C354.196 115.388 353.464 117.008 353.464 118.892C353.464 120.68 354.28 122.408 355.672 123.752ZM357.537 122H356.529V115.76H357.537V116.24C357.741 115.82 358.281 115.628 358.821 115.628C359.373 115.628 359.793 115.82 360.093 116.192L359.457 116.888C359.301 116.684 359.061 116.576 358.713 116.576C358.173 116.576 357.681 117.02 357.537 117.656V122ZM361.11 117.26L360.594 116.504C361.17 115.964 362.166 115.616 363.09 115.616C364.758 115.616 365.646 116.528 365.646 118.148V122H364.638V121.076C364.242 121.652 363.462 122.084 362.454 122.084C361.098 122.084 360.186 121.328 360.186 120.176C360.186 118.868 361.302 118.244 363.174 118.244C363.762 118.244 364.242 118.304 364.638 118.424C364.638 117.212 364.206 116.564 362.97 116.564C362.346 116.564 361.722 116.792 361.11 117.26ZM362.694 121.172C363.162 121.172 363.582 121.04 363.93 120.788C364.278 120.536 364.506 120.248 364.638 119.948V119.312C364.29 119.192 363.846 119.132 363.306 119.132C361.938 119.132 361.254 119.468 361.254 120.14C361.254 120.776 361.83 121.172 362.694 121.172ZM368.181 122H367.173V115.76H368.181V122ZM367.041 113.732C367.041 113.396 367.317 113.144 367.689 113.144C368.025 113.144 368.313 113.396 368.313 113.732C368.313 114.08 368.025 114.356 367.689 114.356C367.317 114.356 367.041 114.08 367.041 113.732ZM370.875 122H369.867V113.24H370.875V122ZM373.439 122H372.431V115.76H373.439V116.24C373.643 115.82 374.183 115.628 374.723 115.628C375.275 115.628 375.695 115.82 375.995 116.192L375.359 116.888C375.203 116.684 374.963 116.576 374.615 116.576C374.075 116.576 373.583 117.02 373.439 117.656V122ZM375.962 118.868C375.962 117.92 376.274 117.14 376.886 116.528C377.498 115.916 378.29 115.616 379.262 115.616C380.246 115.616 381.05 115.916 381.662 116.528C382.274 117.14 382.586 117.92 382.586 118.868C382.586 119.816 382.274 120.584 381.662 121.196C381.038 121.808 380.234 122.108 379.262 122.108C378.29 122.108 377.498 121.808 376.886 121.196C376.274 120.584 375.962 119.816 375.962 118.868ZM377.03 118.868C377.03 119.528 377.234 120.08 377.654 120.512C378.074 120.944 378.602 121.16 379.262 121.16C379.922 121.16 380.474 120.944 380.894 120.524C381.314 120.104 381.518 119.552 381.518 118.868C381.518 118.184 381.302 117.632 380.882 117.2C380.45 116.78 379.91 116.564 379.262 116.564C378.614 116.564 378.086 116.78 377.666 117.2C377.246 117.62 377.03 118.184 377.03 118.868ZM384.185 117.26L383.669 116.504C384.245 115.964 385.241 115.616 386.165 115.616C387.833 115.616 388.721 116.528 388.721 118.148V122H387.713V121.076C387.317 121.652 386.537 122.084 385.529 122.084C384.173 122.084 383.261 121.328 383.261 120.176C383.261 118.868 384.377 118.244 386.249 118.244C386.837 118.244 387.317 118.304 387.713 118.424C387.713 117.212 387.281 116.564 386.045 116.564C385.421 116.564 384.797 116.792 384.185 117.26ZM385.769 121.172C386.237 121.172 386.657 121.04 387.005 120.788C387.353 120.536 387.581 120.248 387.713 119.948V119.312C387.365 119.192 386.921 119.132 386.381 119.132C385.013 119.132 384.329 119.468 384.329 120.14C384.329 120.776 384.905 121.172 385.769 121.172ZM395.791 122H394.783V121.256C394.507 121.688 393.787 122.108 392.839 122.108C391.915 122.108 391.183 121.82 390.619 121.244C390.055 120.668 389.767 119.888 389.767 118.892C389.767 117.932 390.067 117.14 390.679 116.528C391.291 115.916 392.035 115.616 392.923 115.616C393.751 115.616 394.375 115.82 394.783 116.228V113.24H395.791V122ZM392.983 121.148C393.835 121.148 394.495 120.548 394.783 119.96V117.44C394.387 116.852 393.799 116.564 393.043 116.564C392.431 116.564 391.903 116.78 391.483 117.2C391.051 117.62 390.835 118.184 390.835 118.868C390.835 120.26 391.723 121.148 392.983 121.148ZM401.485 116.72H400.189V115.76H401.485V114.164H402.493V115.76H404.641V116.72H402.493V119.468C402.493 120.68 402.805 121.124 403.573 121.124C403.945 121.124 404.329 120.98 404.701 120.68L405.157 121.424C404.761 121.868 404.173 122.084 403.393 122.084C402.157 122.084 401.485 121.268 401.485 119.732V116.72ZM406.368 117.26L405.852 116.504C406.428 115.964 407.424 115.616 408.348 115.616C410.016 115.616 410.904 116.528 410.904 118.148V122H409.896V121.076C409.5 121.652 408.72 122.084 407.712 122.084C406.356 122.084 405.444 121.328 405.444 120.176C405.444 118.868 406.56 118.244 408.432 118.244C409.02 118.244 409.5 118.304 409.896 118.424C409.896 117.212 409.464 116.564 408.228 116.564C407.604 116.564 406.98 116.792 406.368 117.26ZM407.952 121.172C408.42 121.172 408.84 121.04 409.188 120.788C409.536 120.536 409.764 120.248 409.896 119.948V119.312C409.548 119.192 409.104 119.132 408.564 119.132C407.196 119.132 406.512 119.468 406.512 120.14C406.512 120.776 407.088 121.172 407.952 121.172ZM413.306 122H412.298V115.76H413.306V116.24C413.51 115.82 414.05 115.628 414.59 115.628C415.142 115.628 415.562 115.82 415.862 116.192L415.226 116.888C415.07 116.684 414.83 116.576 414.482 116.576C413.942 116.576 413.45 117.02 413.306 117.656V122ZM417.681 122H416.673V115.76H417.681V122ZM416.541 113.732C416.541 113.396 416.817 113.144 417.189 113.144C417.525 113.144 417.813 113.396 417.813 113.732C417.813 114.08 417.525 114.356 417.189 114.356C416.817 114.356 416.541 114.08 416.541 113.732ZM419.715 116.72H418.563V115.76H419.715V115.472C419.715 114.668 419.919 114.068 420.327 113.696C420.723 113.324 421.215 113.144 421.803 113.144C422.439 113.144 423.039 113.432 423.339 113.876L422.739 114.5C422.535 114.236 422.235 114.104 421.851 114.104C421.095 114.104 420.723 114.584 420.723 115.556V115.76H422.655V116.72H420.723V122H419.715V116.72ZM423.781 116.72H422.629V115.76H423.781V115.472C423.781 114.668 423.985 114.068 424.393 113.696C424.789 113.324 425.281 113.144 425.869 113.144C426.505 113.144 427.105 113.432 427.405 113.876L426.805 114.5C426.601 114.236 426.301 114.104 425.917 114.104C425.161 114.104 424.789 114.584 424.789 115.556V115.76H426.721V116.72H424.789V122H423.781V116.72ZM428.449 124.436L427.765 123.776C428.485 123.14 429.037 122.396 429.409 121.508C429.781 120.632 429.961 119.768 429.961 118.892C429.961 117.008 429.229 115.388 427.765 114.032L428.437 113.324C430.249 114.944 430.993 116.972 430.993 118.892C430.993 119.864 430.789 120.836 430.393 121.82C429.985 122.804 429.337 123.68 428.449 124.436ZM432.63 121.316C432.63 120.98 432.942 120.644 433.374 120.644C433.77 120.644 434.094 120.98 434.094 121.316C434.094 121.7 433.794 122.024 433.374 122.024C432.942 122.024 432.63 121.7 432.63 121.316ZM432.63 116.396C432.63 116.06 432.942 115.724 433.374 115.724C433.77 115.724 434.094 116.06 434.094 116.396C434.094 116.78 433.794 117.104 433.374 117.104C432.942 117.104 432.63 116.78 432.63 116.396Z" fill="#1A3341" fill-opacity="0.6"/>
<rect x="352" y="234" width="10" height="10" fill="url(#paint5_linear_6006_19064)"/>
<path d="M371.992 243H370.888V234.6H376.924V235.62H371.992V238.5H376.588V239.52H371.992V243ZM379.043 243H378.035V234.24H379.043V243ZM385.423 241.212L386.071 241.812C385.495 242.676 384.667 243.108 383.575 243.108C382.579 243.108 381.775 242.808 381.163 242.22C380.551 241.632 380.251 240.852 380.251 239.868C380.251 238.92 380.527 238.14 381.091 237.528C381.643 236.916 382.423 236.616 383.431 236.616C384.259 236.616 384.955 236.88 385.495 237.396C386.035 237.912 386.311 238.596 386.311 239.448C386.311 239.724 386.287 239.976 386.251 240.204H381.331C381.391 241.44 382.303 242.16 383.611 242.16C384.343 242.16 385.039 241.776 385.423 241.212ZM383.359 237.54C382.219 237.54 381.475 238.236 381.319 239.292H385.243C385.183 238.188 384.475 237.54 383.359 237.54ZM392.138 241.212L392.786 241.812C392.21 242.676 391.382 243.108 390.29 243.108C389.294 243.108 388.49 242.808 387.878 242.22C387.266 241.632 386.966 240.852 386.966 239.868C386.966 238.92 387.242 238.14 387.806 237.528C388.358 236.916 389.138 236.616 390.146 236.616C390.974 236.616 391.67 236.88 392.21 237.396C392.75 237.912 393.026 238.596 393.026 239.448C393.026 239.724 393.002 239.976 392.966 240.204H388.046C388.106 241.44 389.018 242.16 390.326 242.16C391.058 242.16 391.754 241.776 392.138 241.212ZM390.074 237.54C388.934 237.54 388.19 238.236 388.034 239.292H391.958C391.898 238.188 391.19 237.54 390.074 237.54ZM394.782 237.72H393.486V236.76H394.782V235.164H395.79V236.76H397.938V237.72H395.79V240.468C395.79 241.68 396.102 242.124 396.87 242.124C397.242 242.124 397.626 241.98 397.998 241.68L398.454 242.424C398.058 242.868 397.47 243.084 396.69 243.084C395.454 243.084 394.782 242.268 394.782 240.732V237.72ZM407.607 241.212L408.255 241.812C407.679 242.676 406.851 243.108 405.759 243.108C404.763 243.108 403.959 242.808 403.347 242.22C402.735 241.632 402.435 240.852 402.435 239.868C402.435 238.92 402.711 238.14 403.275 237.528C403.827 236.916 404.607 236.616 405.615 236.616C406.443 236.616 407.139 236.88 407.679 237.396C408.219 237.912 408.495 238.596 408.495 239.448C408.495 239.724 408.471 239.976 408.435 240.204H403.515C403.575 241.44 404.487 242.16 405.795 242.16C406.527 242.16 407.223 241.776 407.607 241.212ZM405.543 237.54C404.403 237.54 403.659 238.236 403.503 239.292H407.427C407.367 238.188 406.659 237.54 405.543 237.54ZM413.642 236.76H414.866L412.478 239.772L414.986 243H413.726L411.794 240.492L409.838 243H408.638L411.134 239.784L408.77 236.76H410.03L411.83 239.052L413.642 236.76ZM416.763 245.4H415.755V236.76H416.763V237.54C417.183 236.928 417.855 236.616 418.779 236.616C419.691 236.616 420.423 236.904 420.963 237.492C421.503 238.08 421.767 238.836 421.767 239.772C421.767 240.732 421.479 241.524 420.903 242.16C420.315 242.796 419.571 243.108 418.659 243.108C417.819 243.108 417.183 242.892 416.763 242.472V245.4ZM418.671 237.564C417.759 237.564 417.051 238.152 416.763 238.86V241.188C417.123 241.836 417.723 242.16 418.575 242.16C419.187 242.16 419.703 241.944 420.099 241.512C420.495 241.08 420.699 240.528 420.699 239.844C420.699 238.452 419.919 237.564 418.671 237.564ZM427.704 241.212L428.352 241.812C427.776 242.676 426.948 243.108 425.856 243.108C424.86 243.108 424.056 242.808 423.444 242.22C422.832 241.632 422.532 240.852 422.532 239.868C422.532 238.92 422.808 238.14 423.372 237.528C423.924 236.916 424.704 236.616 425.712 236.616C426.54 236.616 427.236 236.88 427.776 237.396C428.316 237.912 428.592 238.596 428.592 239.448C428.592 239.724 428.568 239.976 428.532 240.204H423.612C423.672 241.44 424.584 242.16 425.892 242.16C426.624 242.16 427.32 241.776 427.704 241.212ZM425.64 237.54C424.5 237.54 423.756 238.236 423.6 239.292H427.524C427.464 238.188 426.756 237.54 425.64 237.54ZM430.72 243H429.712V236.76H430.72V237.576C431.116 236.964 431.932 236.628 432.856 236.628C434.548 236.628 435.388 237.564 435.388 239.448V243H434.38V239.568C434.38 238.188 433.792 237.576 432.556 237.576C431.788 237.576 431.056 238.08 430.72 238.836V243ZM440.607 241.296C440.607 240.456 439.179 240.324 438.039 240C437.259 239.772 436.635 239.256 436.635 238.404C436.635 237.3 437.679 236.616 439.227 236.616C440.271 236.616 441.111 237.06 441.555 237.696L440.847 238.356C440.451 237.828 439.851 237.564 439.047 237.564C438.327 237.564 437.703 237.84 437.703 238.356C437.703 239.088 439.131 239.22 440.271 239.568C441.039 239.808 441.663 240.384 441.663 241.284C441.663 242.496 440.691 243.108 439.167 243.108C437.883 243.108 436.791 242.532 436.347 241.632L437.151 241.068C437.523 241.728 438.375 242.16 439.335 242.16C440.187 242.16 440.607 241.872 440.607 241.296ZM447.568 241.212L448.216 241.812C447.64 242.676 446.812 243.108 445.72 243.108C444.724 243.108 443.92 242.808 443.308 242.22C442.696 241.632 442.396 240.852 442.396 239.868C442.396 238.92 442.672 238.14 443.236 237.528C443.788 236.916 444.568 236.616 445.576 236.616C446.404 236.616 447.1 236.88 447.64 237.396C448.18 237.912 448.456 238.596 448.456 239.448C448.456 239.724 448.432 239.976 448.396 240.204H443.476C443.536 241.44 444.448 242.16 445.756 242.16C446.488 242.16 447.184 241.776 447.568 241.212ZM445.504 237.54C444.364 237.54 443.62 238.236 443.464 239.292H447.388C447.328 238.188 446.62 237.54 445.504 237.54ZM453.404 241.296C453.404 240.456 451.976 240.324 450.836 240C450.056 239.772 449.432 239.256 449.432 238.404C449.432 237.3 450.476 236.616 452.024 236.616C453.068 236.616 453.908 237.06 454.352 237.696L453.644 238.356C453.248 237.828 452.648 237.564 451.844 237.564C451.124 237.564 450.5 237.84 450.5 238.356C450.5 239.088 451.928 239.22 453.068 239.568C453.836 239.808 454.46 240.384 454.46 241.284C454.46 242.496 453.488 243.108 451.964 243.108C450.68 243.108 449.588 242.532 449.144 241.632L449.948 241.068C450.32 241.728 451.172 242.16 452.132 242.16C452.984 242.16 453.404 241.872 453.404 241.296Z" fill="#1A3341" fill-opacity="0.6"/>
<rect width="10" height="10" transform="translate(352 254)" fill="#DBE9EE"/>
<rect opacity="0.5" x="352" y="254" width="10" height="10" fill="#DBE9EE"/>
<path d="M370.432 258.8C370.432 257.588 370.84 256.556 371.668 255.728C372.496 254.9 373.504 254.492 374.704 254.492C375.892 254.492 376.9 254.9 377.728 255.716C378.556 256.532 378.964 257.564 378.964 258.8C378.964 260.024 378.556 261.044 377.728 261.872C376.9 262.7 375.892 263.108 374.704 263.108C373.504 263.108 372.496 262.7 371.668 261.884C370.84 261.068 370.432 260.036 370.432 258.8ZM371.572 258.8C371.572 259.736 371.884 260.516 372.496 261.128C373.108 261.752 373.84 262.064 374.704 262.064C375.592 262.064 376.336 261.752 376.936 261.14C377.524 260.528 377.824 259.748 377.824 258.8C377.824 257.852 377.524 257.072 376.912 256.46C376.3 255.848 375.556 255.536 374.704 255.536C373.828 255.536 373.096 255.848 372.484 256.46C371.872 257.072 371.572 257.852 371.572 258.8ZM380.766 257.72H379.47V256.76H380.766V255.164H381.774V256.76H383.922V257.72H381.774V260.468C381.774 261.68 382.086 262.124 382.854 262.124C383.226 262.124 383.61 261.98 383.982 261.68L384.438 262.424C384.042 262.868 383.454 263.084 382.674 263.084C381.438 263.084 380.766 262.268 380.766 260.732V257.72ZM386.178 263H385.17V254.24H386.178V257.576C386.658 256.94 387.33 256.628 388.206 256.628C389.958 256.628 390.834 257.576 390.834 259.46V263H389.826V259.556C389.826 258.212 389.25 257.576 388.014 257.576C387.186 257.576 386.514 258.104 386.178 258.872V263ZM397.048 261.212L397.696 261.812C397.12 262.676 396.292 263.108 395.2 263.108C394.204 263.108 393.4 262.808 392.788 262.22C392.176 261.632 391.876 260.852 391.876 259.868C391.876 258.92 392.152 258.14 392.716 257.528C393.268 256.916 394.048 256.616 395.056 256.616C395.884 256.616 396.58 256.88 397.12 257.396C397.66 257.912 397.936 258.596 397.936 259.448C397.936 259.724 397.912 259.976 397.876 260.204H392.956C393.016 261.44 393.928 262.16 395.236 262.16C395.968 262.16 396.664 261.776 397.048 261.212ZM394.984 257.54C393.844 257.54 393.1 258.236 392.944 259.292H396.868C396.808 258.188 396.1 257.54 394.984 257.54ZM400.064 263H399.056V256.76H400.064V257.24C400.268 256.82 400.808 256.628 401.348 256.628C401.9 256.628 402.32 256.82 402.62 257.192L401.984 257.888C401.828 257.684 401.588 257.576 401.24 257.576C400.7 257.576 400.208 258.02 400.064 258.656V263ZM411.72 261.212L412.368 261.812C411.792 262.676 410.964 263.108 409.872 263.108C408.876 263.108 408.072 262.808 407.46 262.22C406.848 261.632 406.548 260.852 406.548 259.868C406.548 258.92 406.824 258.14 407.388 257.528C407.94 256.916 408.72 256.616 409.728 256.616C410.556 256.616 411.252 256.88 411.792 257.396C412.332 257.912 412.608 258.596 412.608 259.448C412.608 259.724 412.584 259.976 412.548 260.204H407.628C407.688 261.44 408.6 262.16 409.908 262.16C410.64 262.16 411.336 261.776 411.72 261.212ZM409.656 257.54C408.516 257.54 407.772 258.236 407.616 259.292H411.54C411.48 258.188 410.772 257.54 409.656 257.54ZM417.755 256.76H418.979L416.591 259.772L419.099 263H417.839L415.907 260.492L413.951 263H412.751L415.247 259.784L412.883 256.76H414.143L415.943 259.052L417.755 256.76ZM420.877 265.4H419.869V256.76H420.877V257.54C421.297 256.928 421.969 256.616 422.893 256.616C423.805 256.616 424.537 256.904 425.077 257.492C425.617 258.08 425.881 258.836 425.881 259.772C425.881 260.732 425.593 261.524 425.017 262.16C424.429 262.796 423.685 263.108 422.773 263.108C421.933 263.108 421.297 262.892 420.877 262.472V265.4ZM422.785 257.564C421.873 257.564 421.165 258.152 420.877 258.86V261.188C421.237 261.836 421.837 262.16 422.689 262.16C423.301 262.16 423.817 261.944 424.213 261.512C424.609 261.08 424.813 260.528 424.813 259.844C424.813 258.452 424.033 257.564 422.785 257.564ZM431.818 261.212L432.466 261.812C431.89 262.676 431.062 263.108 429.97 263.108C428.974 263.108 428.17 262.808 427.558 262.22C426.946 261.632 426.646 260.852 426.646 259.868C426.646 258.92 426.922 258.14 427.486 257.528C428.038 256.916 428.818 256.616 429.826 256.616C430.654 256.616 431.35 256.88 431.89 257.396C432.43 257.912 432.706 258.596 432.706 259.448C432.706 259.724 432.682 259.976 432.646 260.204H427.726C427.786 261.44 428.698 262.16 430.006 262.16C430.738 262.16 431.434 261.776 431.818 261.212ZM429.754 257.54C428.614 257.54 427.87 258.236 427.714 259.292H431.638C431.578 258.188 430.87 257.54 429.754 257.54ZM434.834 263H433.826V256.76H434.834V257.576C435.23 256.964 436.046 256.628 436.97 256.628C438.662 256.628 439.502 257.564 439.502 259.448V263H438.494V259.568C438.494 258.188 437.906 257.576 436.67 257.576C435.902 257.576 435.17 258.08 434.834 258.836V263ZM444.72 261.296C444.72 260.456 443.292 260.324 442.152 260C441.372 259.772 440.748 259.256 440.748 258.404C440.748 257.3 441.792 256.616 443.34 256.616C444.384 256.616 445.224 257.06 445.668 257.696L444.96 258.356C444.564 257.828 443.964 257.564 443.16 257.564C442.44 257.564 441.816 257.84 441.816 258.356C441.816 259.088 443.244 259.22 444.384 259.568C445.152 259.808 445.776 260.384 445.776 261.284C445.776 262.496 444.804 263.108 443.28 263.108C441.996 263.108 440.904 262.532 440.46 261.632L441.264 261.068C441.636 261.728 442.488 262.16 443.448 262.16C444.3 262.16 444.72 261.872 444.72 261.296ZM451.681 261.212L452.329 261.812C451.753 262.676 450.925 263.108 449.833 263.108C448.837 263.108 448.033 262.808 447.421 262.22C446.809 261.632 446.509 260.852 446.509 259.868C446.509 258.92 446.785 258.14 447.349 257.528C447.901 256.916 448.681 256.616 449.689 256.616C450.517 256.616 451.213 256.88 451.753 257.396C452.293 257.912 452.569 258.596 452.569 259.448C452.569 259.724 452.545 259.976 452.509 260.204H447.589C447.649 261.44 448.561 262.16 449.869 262.16C450.601 262.16 451.297 261.776 451.681 261.212ZM449.617 257.54C448.477 257.54 447.733 258.236 447.577 259.292H451.501C451.441 258.188 450.733 257.54 449.617 257.54ZM457.517 261.296C457.517 260.456 456.089 260.324 454.949 260C454.169 259.772 453.545 259.256 453.545 258.404C453.545 257.3 454.589 256.616 456.137 256.616C457.181 256.616 458.021 257.06 458.465 257.696L457.757 258.356C457.361 257.828 456.761 257.564 455.957 257.564C455.237 257.564 454.613 257.84 454.613 258.356C454.613 259.088 456.041 259.22 457.181 259.568C457.949 259.808 458.573 260.384 458.573 261.284C458.573 262.496 457.601 263.108 456.077 263.108C454.793 263.108 453.701 262.532 453.257 261.632L454.061 261.068C454.433 261.728 455.285 262.16 456.245 262.16C457.097 262.16 457.517 261.872 457.517 261.296Z" fill="#1A3341" fill-opacity="0.6"/>
<defs>
<radialGradient id="paint0_radial_6006_19064" cx="0" cy="0" r="1" gradientUnits="userSpaceOnUse" gradientTransform="translate(-261 895) rotate(-59.0541) scale(1097.76 534.976)">
<stop stop-color="#51DDE6"/>
<stop offset="0.920242" stop-color="#E2FFF8" stop-opacity="0.7"/>
</radialGradient>
<linearGradient id="paint1_linear_6006_19064" x1="295" y1="128" x2="153.666" y2="278.927" gradientUnits="userSpaceOnUse">
<stop stop-color="#43C3BB"/>
<stop offset="1" stop-color="#78CCD1"/>
</linearGradient>
<linearGradient id="paint2_linear_6006_19064" x1="167" y1="256" x2="167" y2="1.93275e-05" gradientUnits="userSpaceOnUse">
<stop stop-color="#30B099"/>
<stop offset="1" stop-color="#94E5D7"/>
</linearGradient>
<linearGradient id="paint3_linear_6006_19064" x1="39" y1="128" x2="246.583" y2="13.3565" gradientUnits="userSpaceOnUse">
<stop stop-color="#66CFF0"/>
<stop offset="1" stop-color="#A6E0F2"/>
</linearGradient>
<linearGradient id="paint4_linear_6006_19064" x1="5" y1="0" x2="5" y2="10" gradientUnits="userSpaceOnUse">
<stop stop-color="#30B099"/>
<stop offset="1" stop-color="#94E5D7"/>
</linearGradient>
<linearGradient id="paint5_linear_6006_19064" x1="357" y1="234" x2="361.478" y2="242.109" gradientUnits="userSpaceOnUse">
<stop stop-color="#66CFF0"/>
<stop offset="1" stop-color="#A6E0F2"/>
</linearGradient>
</defs>
</svg>
