<svg width="544" height="191" viewBox="0 0 544 191" fill="none" xmlns="http://www.w3.org/2000/svg">
<path d="M121.95 114H120.732V111.998H114.74V111.186L120.872 104.2H121.95V110.864H123.77V111.998H121.95V114ZM120.732 106.16L116.42 110.864H120.732V106.16ZM125.392 114C124.874 114.056 124.482 113.762 124.482 113.258C124.482 112.768 124.79 112.46 125.336 112.46C125.952 112.46 126.358 112.88 126.358 113.664C126.358 115.064 125.588 115.778 124.566 116.016L124.272 115.358C124.58 115.274 124.86 115.106 125.112 114.84C125.35 114.574 125.448 114.294 125.392 114ZM127.376 109.366C127.376 107.672 127.796 106.37 128.622 105.446C129.448 104.536 130.484 104.074 131.73 104.074C133.368 104.074 134.656 104.816 135.202 105.992L134.25 106.636C133.676 105.726 132.822 105.278 131.674 105.278C130.806 105.278 130.078 105.614 129.49 106.286C128.902 106.972 128.608 107.896 128.622 109.086C129.168 108.064 130.442 107.448 131.842 107.448C132.976 107.448 133.886 107.742 134.544 108.344C135.202 108.946 135.538 109.744 135.538 110.724C135.538 111.718 135.174 112.544 134.432 113.174C133.69 113.804 132.766 114.126 131.66 114.126C129.014 114.126 127.376 112.404 127.376 109.366ZM128.776 110.556C129.042 111.942 130.092 112.922 131.646 112.922C132.402 112.922 133.032 112.726 133.522 112.32C134.012 111.928 134.25 111.41 134.25 110.78C134.25 109.394 133.27 108.652 131.772 108.652C130.946 108.652 130.26 108.848 129.728 109.24C129.182 109.632 128.874 110.066 128.776 110.556ZM137.975 109.492L136.967 109.226L137.541 104.2H143.701V105.39H138.619L138.255 108.022C138.745 107.658 139.487 107.476 140.481 107.476C141.629 107.476 142.525 107.784 143.183 108.386C143.827 109.002 144.149 109.786 144.149 110.752C144.149 111.718 143.785 112.53 143.071 113.16C142.343 113.804 141.433 114.126 140.355 114.126C138.521 114.126 136.995 113.258 136.365 111.732L137.485 111.256C137.891 112.194 138.941 112.936 140.355 112.936C141.965 112.936 142.861 112.012 142.861 110.794C142.861 109.492 141.811 108.652 140.145 108.652C139.249 108.652 138.521 108.932 137.975 109.492ZM146.64 109.492L145.632 109.226L146.206 104.2H152.366V105.39H147.284L146.92 108.022C147.41 107.658 148.152 107.476 149.146 107.476C150.294 107.476 151.19 107.784 151.848 108.386C152.492 109.002 152.814 109.786 152.814 110.752C152.814 111.718 152.45 112.53 151.736 113.16C151.008 113.804 150.098 114.126 149.02 114.126C147.186 114.126 145.66 113.258 145.03 111.732L146.15 111.256C146.556 112.194 147.606 112.936 149.02 112.936C150.63 112.936 151.526 112.012 151.526 110.794C151.526 109.492 150.476 108.652 148.81 108.652C147.914 108.652 147.186 108.932 146.64 109.492Z" fill="#1A3341"/>
<path d="M121.863 184.372L120.987 184.06C121.287 182.572 122.415 181.504 124.203 181.504C125.931 181.504 126.987 182.5 126.987 184.024C126.987 184.828 126.639 185.632 126.207 186.208C125.991 186.508 125.715 186.796 125.391 187.096C124.731 187.684 124.263 187.996 123.579 188.428L122.655 189.004H127.299V190H120.759V189.184L122.583 187.972C122.907 187.768 123.135 187.612 123.267 187.516C123.399 187.432 123.615 187.276 123.903 187.072C124.191 186.868 124.407 186.688 124.551 186.556C124.683 186.424 124.863 186.256 125.067 186.04C125.619 185.44 125.823 184.888 125.883 184.132C125.883 183.04 125.175 182.548 124.131 182.548C123.483 182.548 122.967 182.728 122.595 183.088C122.223 183.448 121.971 183.88 121.863 184.372ZM128.131 185.8C128.131 184.504 128.431 183.46 129.043 182.68C129.643 181.9 130.531 181.504 131.695 181.504C134.083 181.504 135.271 183.076 135.271 185.8C135.271 187.108 134.971 188.14 134.383 188.92C133.783 189.7 132.895 190.096 131.719 190.096C130.591 190.096 129.715 189.7 129.079 188.908C128.443 188.116 128.131 187.084 128.131 185.8ZM129.235 185.8C129.235 187.852 130.171 189.076 131.719 189.076C133.351 189.076 134.167 187.984 134.167 185.8C134.167 183.616 133.339 182.524 131.695 182.524C130.027 182.524 129.235 183.724 129.235 185.8ZM137.127 184.372L136.251 184.06C136.551 182.572 137.679 181.504 139.467 181.504C141.195 181.504 142.251 182.5 142.251 184.024C142.251 184.828 141.903 185.632 141.471 186.208C141.255 186.508 140.979 186.796 140.655 187.096C139.995 187.684 139.527 187.996 138.843 188.428L137.919 189.004H142.563V190H136.023V189.184L137.847 187.972C138.171 187.768 138.399 187.612 138.531 187.516C138.663 187.432 138.879 187.276 139.167 187.072C139.455 186.868 139.671 186.688 139.815 186.556C139.947 186.424 140.127 186.256 140.331 186.04C140.883 185.44 141.087 184.888 141.147 184.132C141.147 183.04 140.439 182.548 139.395 182.548C138.747 182.548 138.231 182.728 137.859 183.088C137.487 183.448 137.235 183.88 137.127 184.372ZM143.299 183.832L142.915 182.932L145.795 181.552H146.479V190H145.447V182.836L143.299 183.832Z" fill="#1A3341" fill-opacity="0.6"/>
<path d="M106 126C106 124.895 106.895 124 108 124H160C161.105 124 162 124.895 162 126V175H106V126Z" fill="url(#paint0_linear_6004_39840)"/>
<path opacity="0.2" d="M118 124H150V175H118V124Z" fill="url(#paint1_linear_6004_39840)"/>
<path opacity="0.04" d="M150 124H160C161.105 124 162 124.895 162 126V175H150V124Z" fill="#0D262C"/>
<path opacity="0.5" d="M106 126C106 124.895 106.895 124 108 124H118V175H106V126Z" fill="url(#paint2_linear_6004_39840)"/>
<path d="M273.577 94H272.359V91.998H266.367V91.186L272.499 84.2H273.577V90.864H275.397V91.998H273.577V94ZM272.359 86.16L268.047 90.864H272.359V86.16ZM277.019 94C276.501 94.056 276.109 93.762 276.109 93.258C276.109 92.768 276.417 92.46 276.963 92.46C277.579 92.46 277.985 92.88 277.985 93.664C277.985 95.064 277.215 95.778 276.193 96.016L275.899 95.358C276.207 95.274 276.487 95.106 276.739 94.84C276.977 94.574 277.075 94.294 277.019 94ZM282.867 88.414H283.301C283.931 88.414 284.449 88.26 284.883 87.966C285.303 87.672 285.513 87.28 285.513 86.818C285.513 85.768 284.687 85.236 283.049 85.236C281.481 85.236 280.627 85.81 280.627 86.818C280.627 87.728 281.565 88.414 282.867 88.414ZM283.273 89.52H282.923C282.167 89.52 281.537 89.688 281.047 90.01C280.557 90.332 280.305 90.738 280.305 91.228C280.305 92.292 281.285 92.964 283.063 92.964C284.869 92.964 285.835 92.32 285.835 91.242C285.835 90.164 284.799 89.52 283.273 89.52ZM286.031 93.37C285.317 93.874 284.323 94.126 283.077 94.126C281.831 94.126 280.837 93.874 280.109 93.384C279.381 92.894 279.017 92.222 279.017 91.354C279.017 90.22 279.759 89.324 280.949 88.932C279.871 88.582 279.339 87.728 279.339 86.734C279.339 85.11 280.711 84.074 283.063 84.074C285.429 84.074 286.801 85.11 286.801 86.734C286.801 87.672 286.283 88.386 285.247 88.862C286.493 89.24 287.109 90.052 287.109 91.298C287.109 92.18 286.745 92.88 286.031 93.37ZM288.089 86.804L287.641 85.754L291.001 84.144H291.799V94H290.595V85.642L288.089 86.804ZM295.013 89.492L294.005 89.226L294.579 84.2H300.739V85.39H295.657L295.293 88.022C295.783 87.658 296.525 87.476 297.519 87.476C298.667 87.476 299.563 87.784 300.221 88.386C300.865 89.002 301.187 89.786 301.187 90.752C301.187 91.718 300.823 92.53 300.109 93.16C299.381 93.804 298.471 94.126 297.393 94.126C295.559 94.126 294.033 93.258 293.403 91.732L294.523 91.256C294.929 92.194 295.979 92.936 297.393 92.936C299.003 92.936 299.899 92.012 299.899 90.794C299.899 89.492 298.849 88.652 297.183 88.652C296.287 88.652 295.559 88.932 295.013 89.492Z" fill="#1A3341"/>
<path d="M270.556 184.372L269.68 184.06C269.98 182.572 271.108 181.504 272.896 181.504C274.624 181.504 275.68 182.5 275.68 184.024C275.68 184.828 275.332 185.632 274.9 186.208C274.684 186.508 274.408 186.796 274.084 187.096C273.424 187.684 272.956 187.996 272.272 188.428L271.348 189.004H275.992V190H269.452V189.184L271.276 187.972C271.6 187.768 271.828 187.612 271.96 187.516C272.092 187.432 272.308 187.276 272.596 187.072C272.884 186.868 273.1 186.688 273.244 186.556C273.376 186.424 273.556 186.256 273.76 186.04C274.312 185.44 274.516 184.888 274.576 184.132C274.576 183.04 273.868 182.548 272.824 182.548C272.176 182.548 271.66 182.728 271.288 183.088C270.916 183.448 270.664 183.88 270.556 184.372ZM276.824 185.8C276.824 184.504 277.124 183.46 277.736 182.68C278.336 181.9 279.224 181.504 280.388 181.504C282.776 181.504 283.964 183.076 283.964 185.8C283.964 187.108 283.664 188.14 283.076 188.92C282.476 189.7 281.588 190.096 280.412 190.096C279.284 190.096 278.408 189.7 277.772 188.908C277.136 188.116 276.824 187.084 276.824 185.8ZM277.928 185.8C277.928 187.852 278.864 189.076 280.412 189.076C282.044 189.076 282.86 187.984 282.86 185.8C282.86 183.616 282.032 182.524 280.388 182.524C278.72 182.524 277.928 183.724 277.928 185.8ZM285.82 184.372L284.944 184.06C285.244 182.572 286.372 181.504 288.16 181.504C289.888 181.504 290.944 182.5 290.944 184.024C290.944 184.828 290.596 185.632 290.164 186.208C289.948 186.508 289.672 186.796 289.348 187.096C288.688 187.684 288.22 187.996 287.536 188.428L286.612 189.004H291.256V190H284.716V189.184L286.54 187.972C286.864 187.768 287.092 187.612 287.224 187.516C287.356 187.432 287.572 187.276 287.86 187.072C288.148 186.868 288.364 186.688 288.508 186.556C288.64 186.424 288.82 186.256 289.024 186.04C289.576 185.44 289.78 184.888 289.84 184.132C289.84 183.04 289.132 182.548 288.088 182.548C287.44 182.548 286.924 182.728 286.552 183.088C286.18 183.448 285.928 183.88 285.82 184.372ZM293.048 184.372L292.172 184.06C292.472 182.572 293.6 181.504 295.388 181.504C297.116 181.504 298.172 182.5 298.172 184.024C298.172 184.828 297.824 185.632 297.392 186.208C297.176 186.508 296.9 186.796 296.576 187.096C295.916 187.684 295.448 187.996 294.764 188.428L293.84 189.004H298.484V190H291.944V189.184L293.768 187.972C294.092 187.768 294.32 187.612 294.452 187.516C294.584 187.432 294.8 187.276 295.088 187.072C295.376 186.868 295.592 186.688 295.736 186.556C295.868 186.424 296.048 186.256 296.252 186.04C296.804 185.44 297.008 184.888 297.068 184.132C297.068 183.04 296.36 182.548 295.316 182.548C294.668 182.548 294.152 182.728 293.78 183.088C293.408 183.448 293.156 183.88 293.048 184.372Z" fill="#1A3341" fill-opacity="0.6"/>
<path d="M256 106C256 104.895 256.895 104 258 104H310C311.105 104 312 104.895 312 106V175H256V106Z" fill="url(#paint3_linear_6004_39840)"/>
<path opacity="0.2" d="M268 104H300V175H268V104Z" fill="url(#paint4_linear_6004_39840)"/>
<path opacity="0.04" d="M300 104H310C311.105 104 312 104.895 312 106V175H300V104Z" fill="#0D262C"/>
<path opacity="0.5" d="M256 106C256 104.895 256.895 104 258 104H268V175H256V106Z" fill="url(#paint5_linear_6004_39840)"/>
<path d="M418.546 117.056L417.496 116.58C418.014 115.068 419.372 114.074 421.402 114.074C422.368 114.074 423.166 114.298 423.782 114.746C424.398 115.194 424.706 115.796 424.706 116.538C424.706 117.672 424.104 118.512 422.984 118.834C424.062 118.904 424.93 119.716 424.93 121.172C424.93 122.096 424.594 122.824 423.922 123.342C423.25 123.86 422.396 124.126 421.346 124.126C419.204 124.126 417.72 123.104 417.23 121.494L418.364 121.004C418.966 122.278 419.988 122.922 421.43 122.922C422.788 122.922 423.642 122.292 423.642 121.186C423.642 120.108 422.802 119.562 421.122 119.562H420.03V118.4H420.898C422.424 118.4 423.418 117.714 423.418 116.776C423.418 115.81 422.62 115.264 421.346 115.264C419.848 115.264 418.938 116.034 418.546 117.056ZM427.019 124C426.501 124.056 426.109 123.762 426.109 123.258C426.109 122.768 426.417 122.46 426.963 122.46C427.579 122.46 427.985 122.88 427.985 123.664C427.985 125.064 427.215 125.778 426.193 126.016L425.899 125.358C426.207 125.274 426.487 125.106 426.739 124.84C426.977 124.574 427.075 124.294 427.019 124ZM430.123 117.434L429.101 117.07C429.451 115.334 430.767 114.088 432.853 114.088C434.869 114.088 436.101 115.25 436.101 117.028C436.101 117.966 435.695 118.904 435.191 119.576C434.939 119.926 434.617 120.262 434.239 120.612C433.469 121.298 432.923 121.662 432.125 122.166L431.047 122.838H436.465V124H428.835V123.048L430.963 121.634C431.341 121.396 431.607 121.214 431.761 121.102C431.915 121.004 432.167 120.822 432.503 120.584C432.839 120.346 433.091 120.136 433.259 119.982C433.413 119.828 433.623 119.632 433.861 119.38C434.505 118.68 434.743 118.036 434.813 117.154C434.813 115.88 433.987 115.306 432.769 115.306C432.013 115.306 431.411 115.516 430.977 115.936C430.543 116.356 430.249 116.86 430.123 117.434ZM437.324 116.804L436.876 115.754L440.236 114.144H441.034V124H439.83V115.642L437.324 116.804ZM444.247 119.492L443.239 119.226L443.813 114.2H449.973V115.39H444.891L444.527 118.022C445.017 117.658 445.759 117.476 446.753 117.476C447.901 117.476 448.797 117.784 449.455 118.386C450.099 119.002 450.421 119.786 450.421 120.752C450.421 121.718 450.057 122.53 449.343 123.16C448.615 123.804 447.705 124.126 446.627 124.126C444.793 124.126 443.267 123.258 442.637 121.732L443.757 121.256C444.163 122.194 445.213 122.936 446.627 122.936C448.237 122.936 449.133 122.012 449.133 120.794C449.133 119.492 448.083 118.652 446.417 118.652C445.521 118.652 444.793 118.932 444.247 119.492Z" fill="#1A3341"/>
<path d="M420.527 184.372L419.651 184.06C419.951 182.572 421.079 181.504 422.867 181.504C424.595 181.504 425.651 182.5 425.651 184.024C425.651 184.828 425.303 185.632 424.871 186.208C424.655 186.508 424.379 186.796 424.055 187.096C423.395 187.684 422.927 187.996 422.243 188.428L421.319 189.004H425.963V190H419.423V189.184L421.247 187.972C421.571 187.768 421.799 187.612 421.931 187.516C422.063 187.432 422.279 187.276 422.567 187.072C422.855 186.868 423.071 186.688 423.215 186.556C423.347 186.424 423.527 186.256 423.731 186.04C424.283 185.44 424.487 184.888 424.547 184.132C424.547 183.04 423.839 182.548 422.795 182.548C422.147 182.548 421.631 182.728 421.259 183.088C420.887 183.448 420.635 183.88 420.527 184.372ZM426.795 185.8C426.795 184.504 427.095 183.46 427.707 182.68C428.307 181.9 429.195 181.504 430.359 181.504C432.747 181.504 433.935 183.076 433.935 185.8C433.935 187.108 433.635 188.14 433.047 188.92C432.447 189.7 431.559 190.096 430.383 190.096C429.255 190.096 428.379 189.7 427.743 188.908C427.107 188.116 426.795 187.084 426.795 185.8ZM427.899 185.8C427.899 187.852 428.835 189.076 430.383 189.076C432.015 189.076 432.831 187.984 432.831 185.8C432.831 183.616 432.003 182.524 430.359 182.524C428.691 182.524 427.899 183.724 427.899 185.8ZM435.791 184.372L434.915 184.06C435.215 182.572 436.343 181.504 438.131 181.504C439.859 181.504 440.915 182.5 440.915 184.024C440.915 184.828 440.567 185.632 440.135 186.208C439.919 186.508 439.643 186.796 439.319 187.096C438.659 187.684 438.191 187.996 437.507 188.428L436.583 189.004H441.227V190H434.687V189.184L436.511 187.972C436.835 187.768 437.063 187.612 437.195 187.516C437.327 187.432 437.543 187.276 437.831 187.072C438.119 186.868 438.335 186.688 438.479 186.556C438.611 186.424 438.791 186.256 438.995 186.04C439.547 185.44 439.751 184.888 439.811 184.132C439.811 183.04 439.103 182.548 438.059 182.548C437.411 182.548 436.895 182.728 436.523 183.088C436.151 183.448 435.899 183.88 435.791 184.372ZM442.887 184.048L441.987 183.64C442.431 182.344 443.595 181.492 445.335 181.492C446.163 181.492 446.847 181.684 447.375 182.068C447.903 182.452 448.167 182.968 448.167 183.604C448.167 184.576 447.651 185.296 446.691 185.572C447.615 185.632 448.359 186.328 448.359 187.576C448.359 188.368 448.071 188.992 447.495 189.436C446.919 189.88 446.187 190.108 445.287 190.108C443.451 190.108 442.179 189.232 441.759 187.852L442.731 187.432C443.247 188.524 444.123 189.076 445.359 189.076C446.523 189.076 447.255 188.536 447.255 187.588C447.255 186.664 446.535 186.196 445.095 186.196H444.159V185.2H444.903C446.211 185.2 447.063 184.612 447.063 183.808C447.063 182.98 446.379 182.512 445.287 182.512C444.003 182.512 443.223 183.172 442.887 184.048Z" fill="#1A3341" fill-opacity="0.6"/>
<path d="M406 136C406 134.895 406.895 134 408 134H460C461.105 134 462 134.895 462 136V175H406V136Z" fill="url(#paint6_linear_6004_39840)"/>
<path opacity="0.2" d="M418 134H450V175H418V134Z" fill="url(#paint7_linear_6004_39840)"/>
<path opacity="0.04" d="M450 134H460C461.105 134 462 134.895 462 136V175H450V134Z" fill="#0D262C"/>
<path opacity="0.5" d="M406 136C406 134.895 406.895 134 408 134H418V175H406V136Z" fill="url(#paint8_linear_6004_39840)"/>
<path d="M234.927 119.354C235.122 119.158 235.122 118.842 234.927 118.646L231.745 115.464C231.55 115.269 231.233 115.269 231.038 115.464C230.843 115.66 230.843 115.976 231.038 116.172L233.867 119L231.038 121.828C230.843 122.024 230.843 122.34 231.038 122.536C231.233 122.731 231.55 122.731 231.745 122.536L234.927 119.354ZM183.18 119.5L234.574 119.5L234.574 118.5L183.18 118.5L183.18 119.5Z" fill="#318F73"/>
<path d="M197.645 106.136H195.377V105.224H197.645V102.944H198.593V105.224H200.885V106.136H198.593V108.44H197.645V106.136ZM203.15 104.048L202.25 103.64C202.754 102.212 203.834 101.492 205.478 101.492C206.306 101.492 206.99 101.684 207.518 102.068C208.046 102.452 208.31 102.968 208.31 103.604C208.31 104.576 207.794 105.296 206.834 105.572C207.758 105.632 208.502 106.328 208.502 107.576C208.502 108.368 208.214 108.992 207.638 109.436C207.062 109.88 206.33 110.108 205.43 110.108C203.606 110.108 202.454 109.244 202.022 107.852L202.994 107.432C203.474 108.476 204.11 109.076 205.502 109.076C206.666 109.076 207.398 108.536 207.398 107.588C207.398 106.664 206.678 106.196 205.238 106.196H204.302V105.2H205.046C206.354 105.2 207.206 104.612 207.206 103.808C207.206 102.98 206.522 102.512 205.43 102.512C204.314 102.512 203.546 103.028 203.15 104.048ZM211.485 110.18L210.693 109.724L216.897 101.336L217.653 101.888L211.485 110.18ZM209.397 103.616C209.397 103.016 209.601 102.524 210.021 102.14C210.441 101.756 210.957 101.564 211.593 101.564C212.217 101.564 212.733 101.756 213.153 102.14C213.573 102.524 213.777 103.016 213.777 103.616C213.777 104.204 213.573 104.696 213.153 105.08C212.733 105.464 212.217 105.656 211.593 105.656C210.957 105.656 210.441 105.464 210.021 105.08C209.601 104.696 209.397 104.204 209.397 103.616ZM210.405 103.616C210.405 104.3 210.957 104.804 211.593 104.804C212.253 104.804 212.769 104.324 212.769 103.616C212.769 102.908 212.229 102.428 211.593 102.428C210.933 102.428 210.405 102.908 210.405 103.616ZM215.169 109.472C214.749 109.088 214.545 108.596 214.545 107.996C214.545 107.396 214.749 106.904 215.169 106.52C215.589 106.148 216.105 105.956 216.741 105.956C217.365 105.956 217.881 106.148 218.301 106.52C218.721 106.904 218.925 107.396 218.925 107.996C218.925 108.584 218.721 109.076 218.301 109.46C217.881 109.856 217.365 110.048 216.741 110.048C216.105 110.048 215.589 109.856 215.169 109.472ZM215.553 107.996C215.553 108.68 216.105 109.184 216.741 109.184C217.401 109.184 217.917 108.704 217.917 107.996C217.917 107.288 217.377 106.808 216.741 106.808C216.081 106.808 215.553 107.288 215.553 107.996Z" fill="#318F73"/>
<path d="M384.927 119.354C385.122 119.158 385.122 118.842 384.927 118.646L381.745 115.464C381.55 115.269 381.233 115.269 381.038 115.464C380.843 115.66 380.843 115.976 381.038 116.172L383.867 119L381.038 121.828C380.843 122.024 380.843 122.34 381.038 122.536C381.233 122.731 381.55 122.731 381.745 122.536L384.927 119.354ZM333.18 119.5L384.574 119.5L384.574 118.5L333.18 118.5L333.18 119.5Z" fill="#7DA4C1"/>
<path d="M342.381 106.136H336.813V105.236H342.381V106.136ZM344.519 104.048L343.619 103.64C344.123 102.212 345.203 101.492 346.847 101.492C347.675 101.492 348.359 101.684 348.887 102.068C349.415 102.452 349.679 102.968 349.679 103.604C349.679 104.576 349.163 105.296 348.203 105.572C349.127 105.632 349.871 106.328 349.871 107.576C349.871 108.368 349.583 108.992 349.007 109.436C348.431 109.88 347.699 110.108 346.799 110.108C344.975 110.108 343.823 109.244 343.391 107.852L344.363 107.432C344.843 108.476 345.479 109.076 346.871 109.076C348.035 109.076 348.767 108.536 348.767 107.588C348.767 106.664 348.047 106.196 346.607 106.196H345.671V105.2H346.415C347.723 105.2 348.575 104.612 348.575 103.808C348.575 102.98 347.891 102.512 346.799 102.512C345.683 102.512 344.915 103.028 344.519 104.048ZM351.714 104.048L350.814 103.64C351.318 102.212 352.398 101.492 354.042 101.492C354.87 101.492 355.554 101.684 356.082 102.068C356.61 102.452 356.874 102.968 356.874 103.604C356.874 104.576 356.358 105.296 355.398 105.572C356.322 105.632 357.066 106.328 357.066 107.576C357.066 108.368 356.778 108.992 356.202 109.436C355.626 109.88 354.894 110.108 353.994 110.108C352.17 110.108 351.018 109.244 350.586 107.852L351.558 107.432C352.038 108.476 352.674 109.076 354.066 109.076C355.23 109.076 355.962 108.536 355.962 107.588C355.962 106.664 355.242 106.196 353.802 106.196H352.866V105.2H353.61C354.918 105.2 355.77 104.612 355.77 103.808C355.77 102.98 355.086 102.512 353.994 102.512C352.878 102.512 352.11 103.028 351.714 104.048ZM358.045 109.316C358.045 108.98 358.357 108.644 358.789 108.644C359.185 108.644 359.509 108.98 359.509 109.316C359.509 109.7 359.209 110.024 358.789 110.024C358.357 110.024 358.045 109.7 358.045 109.316ZM361.581 104.372L360.705 104.06C361.005 102.56 362.085 101.504 363.861 101.504C365.589 101.504 366.585 102.5 366.585 104.024C366.549 105.284 365.961 106.28 365.073 107.084C364.449 107.672 363.957 108.008 363.297 108.428L362.373 109.004H366.897V110H360.597V109.184L362.301 107.972C363.297 107.264 363.945 106.772 364.245 106.496C365.073 105.74 365.481 104.948 365.481 104.132C365.481 103.028 364.809 102.548 363.789 102.548C362.493 102.548 361.821 103.364 361.581 104.372ZM369.905 110.18L369.113 109.724L375.317 101.336L376.073 101.888L369.905 110.18ZM367.817 103.616C367.817 103.016 368.021 102.524 368.441 102.14C368.861 101.756 369.377 101.564 370.013 101.564C370.637 101.564 371.153 101.756 371.573 102.14C371.993 102.524 372.197 103.016 372.197 103.616C372.197 104.204 371.993 104.696 371.573 105.08C371.153 105.464 370.637 105.656 370.013 105.656C369.377 105.656 368.861 105.464 368.441 105.08C368.021 104.696 367.817 104.204 367.817 103.616ZM368.825 103.616C368.825 104.3 369.377 104.804 370.013 104.804C370.673 104.804 371.189 104.324 371.189 103.616C371.189 102.908 370.649 102.428 370.013 102.428C369.353 102.428 368.825 102.908 368.825 103.616ZM373.589 109.472C373.169 109.088 372.965 108.596 372.965 107.996C372.965 107.396 373.169 106.904 373.589 106.52C374.009 106.148 374.525 105.956 375.161 105.956C375.785 105.956 376.301 106.148 376.721 106.52C377.141 106.904 377.345 107.396 377.345 107.996C377.345 108.584 377.141 109.076 376.721 109.46C376.301 109.856 375.785 110.048 375.161 110.048C374.525 110.048 374.009 109.856 373.589 109.472ZM373.973 107.996C373.973 108.68 374.525 109.184 375.161 109.184C375.821 109.184 376.337 108.704 376.337 107.996C376.337 107.288 375.797 106.808 375.161 106.808C374.501 106.808 373.973 107.288 373.973 107.996Z" fill="#7DA4C1"/>
<path d="M134.5 63L284.5 25L433.5 95.5" stroke="url(#paint9_linear_6004_39840)" stroke-width="5"/>
<circle cx="434" cy="96" r="7" fill="#64BBEA" stroke="white" stroke-width="2"/>
<circle cx="284" cy="25" r="7" fill="#64BBEA" stroke="white" stroke-width="2"/>
<circle cx="135" cy="64" r="7" fill="#64BBEA" stroke="white" stroke-width="2"/>
<path d="M128.066 41.85H123.826V41H129.136V41.57L125.656 48H124.706L128.066 41.85ZM129.992 47.43C129.992 47.15 130.252 46.87 130.612 46.87C130.942 46.87 131.212 47.15 131.212 47.43C131.212 47.75 130.962 48.02 130.612 48.02C130.252 48.02 129.992 47.75 129.992 47.43ZM132.939 43.31L132.209 43.05C132.459 41.8 133.359 40.92 134.839 40.92C136.279 40.92 137.109 41.75 137.109 43.02C137.079 44.07 136.589 44.9 135.849 45.57C135.329 46.06 134.919 46.34 134.369 46.69L133.599 47.17H137.369V48H132.119V47.32L133.539 46.31C134.369 45.72 134.909 45.31 135.159 45.08C135.849 44.45 136.189 43.79 136.189 43.11C136.189 42.19 135.629 41.79 134.779 41.79C133.699 41.79 133.139 42.47 132.939 43.31ZM139.875 48.15L139.215 47.77L144.385 40.78L145.015 41.24L139.875 48.15ZM138.135 42.68C138.135 42.18 138.305 41.77 138.655 41.45C139.005 41.13 139.435 40.97 139.965 40.97C140.485 40.97 140.915 41.13 141.265 41.45C141.615 41.77 141.785 42.18 141.785 42.68C141.785 43.17 141.615 43.58 141.265 43.9C140.915 44.22 140.485 44.38 139.965 44.38C139.435 44.38 139.005 44.22 138.655 43.9C138.305 43.58 138.135 43.17 138.135 42.68ZM138.975 42.68C138.975 43.25 139.435 43.67 139.965 43.67C140.515 43.67 140.945 43.27 140.945 42.68C140.945 42.09 140.495 41.69 139.965 41.69C139.415 41.69 138.975 42.09 138.975 42.68ZM142.945 47.56C142.595 47.24 142.425 46.83 142.425 46.33C142.425 45.83 142.595 45.42 142.945 45.1C143.295 44.79 143.725 44.63 144.255 44.63C144.775 44.63 145.205 44.79 145.555 45.1C145.905 45.42 146.075 45.83 146.075 46.33C146.075 46.82 145.905 47.23 145.555 47.55C145.205 47.88 144.775 48.04 144.255 48.04C143.725 48.04 143.295 47.88 142.945 47.56ZM143.265 46.33C143.265 46.9 143.725 47.32 144.255 47.32C144.805 47.32 145.235 46.92 145.235 46.33C145.235 45.74 144.785 45.34 144.255 45.34C143.705 45.34 143.265 45.74 143.265 46.33Z" fill="#357D94"/>
<path d="M279.356 6.01H279.666C280.036 6.01 280.366 5.9 280.636 5.69C280.906 5.48 281.046 5.2 281.046 4.87C281.046 4.12 280.526 3.74 279.486 3.74C278.466 3.74 277.956 4.12 277.956 4.87C277.956 5.52 278.546 6.01 279.356 6.01ZM279.646 6.8H279.396C278.346 6.8 277.726 7.3 277.726 8.02C277.726 8.78 278.346 9.26 279.496 9.26C280.646 9.26 281.276 8.8 281.276 8.03C281.276 7.24 280.716 6.8 279.646 6.8ZM279.506 10.09C277.836 10.09 276.806 9.35 276.806 8.11C276.806 7.28 277.256 6.66 278.086 6.38C277.376 6.11 277.036 5.52 277.036 4.81C277.036 3.66 277.976 2.91 279.496 2.91C281.066 2.91 281.966 3.65 281.966 4.81C281.966 5.51 281.626 6.02 280.956 6.33C281.866 6.61 282.186 7.18 282.186 8.07C282.186 9.34 281.136 10.09 279.506 10.09ZM282.992 9.43C282.992 9.15 283.252 8.87 283.612 8.87C283.942 8.87 284.212 9.15 284.212 9.43C284.212 9.75 283.962 10.02 283.612 10.02C283.252 10.02 282.992 9.75 282.992 9.43ZM289.279 3.85H285.039V3H290.349V3.57L286.869 10H285.919L289.279 3.85ZM292.875 10.15L292.215 9.77L297.385 2.78L298.015 3.24L292.875 10.15ZM291.135 4.68C291.135 4.18 291.305 3.77 291.655 3.45C292.005 3.13 292.435 2.97 292.965 2.97C293.485 2.97 293.915 3.13 294.265 3.45C294.615 3.77 294.785 4.18 294.785 4.68C294.785 5.17 294.615 5.58 294.265 5.9C293.915 6.22 293.485 6.38 292.965 6.38C292.435 6.38 292.005 6.22 291.655 5.9C291.305 5.58 291.135 5.17 291.135 4.68ZM291.975 4.68C291.975 5.25 292.435 5.67 292.965 5.67C293.515 5.67 293.945 5.27 293.945 4.68C293.945 4.09 293.495 3.69 292.965 3.69C292.415 3.69 291.975 4.09 291.975 4.68ZM295.945 9.56C295.595 9.24 295.425 8.83 295.425 8.33C295.425 7.83 295.595 7.42 295.945 7.1C296.295 6.79 296.725 6.63 297.255 6.63C297.775 6.63 298.205 6.79 298.555 7.1C298.905 7.42 299.075 7.83 299.075 8.33C299.075 8.82 298.905 9.23 298.555 9.55C298.205 9.88 297.775 10.04 297.255 10.04C296.725 10.04 296.295 9.88 295.945 9.56ZM296.265 8.33C296.265 8.9 296.725 9.32 297.255 9.32C297.805 9.32 298.235 8.92 298.235 8.33C298.235 7.74 297.785 7.34 297.255 7.34C296.705 7.34 296.265 7.74 296.265 8.33Z" fill="#357D94"/>
<path d="M424.946 78.78L424.226 78.59L424.636 75H429.036V75.85H425.406L425.146 77.73C425.496 77.47 426.026 77.34 426.736 77.34C427.556 77.34 428.196 77.56 428.666 77.99C429.126 78.43 429.356 78.99 429.356 79.68C429.356 80.37 429.096 80.95 428.586 81.4C428.066 81.86 427.416 82.09 426.646 82.09C425.336 82.09 424.246 81.47 423.796 80.38L424.596 80.04C424.886 80.71 425.636 81.24 426.646 81.24C427.796 81.24 428.436 80.58 428.436 79.71C428.436 78.78 427.686 78.18 426.496 78.18C425.856 78.18 425.336 78.38 424.946 78.78ZM429.992 81.43C429.992 81.15 430.252 80.87 430.612 80.87C430.942 80.87 431.212 81.15 431.212 81.43C431.212 81.75 430.962 82.02 430.612 82.02C430.252 82.02 429.992 81.75 429.992 81.43ZM434.569 78.01H434.879C435.249 78.01 435.579 77.9 435.849 77.69C436.119 77.48 436.259 77.2 436.259 76.87C436.259 76.12 435.739 75.74 434.699 75.74C433.679 75.74 433.169 76.12 433.169 76.87C433.169 77.52 433.759 78.01 434.569 78.01ZM434.859 78.8H434.609C433.559 78.8 432.939 79.3 432.939 80.02C432.939 80.78 433.559 81.26 434.709 81.26C435.859 81.26 436.489 80.8 436.489 80.03C436.489 79.24 435.929 78.8 434.859 78.8ZM434.719 82.09C433.049 82.09 432.019 81.35 432.019 80.11C432.019 79.28 432.469 78.66 433.299 78.38C432.589 78.11 432.249 77.52 432.249 76.81C432.249 75.66 433.189 74.91 434.709 74.91C436.279 74.91 437.179 75.65 437.179 76.81C437.179 77.51 436.839 78.02 436.169 78.33C437.079 78.61 437.399 79.18 437.399 80.07C437.399 81.34 436.349 82.09 434.719 82.09ZM439.875 82.15L439.215 81.77L444.385 74.78L445.015 75.24L439.875 82.15ZM438.135 76.68C438.135 76.18 438.305 75.77 438.655 75.45C439.005 75.13 439.435 74.97 439.965 74.97C440.485 74.97 440.915 75.13 441.265 75.45C441.615 75.77 441.785 76.18 441.785 76.68C441.785 77.17 441.615 77.58 441.265 77.9C440.915 78.22 440.485 78.38 439.965 78.38C439.435 78.38 439.005 78.22 438.655 77.9C438.305 77.58 438.135 77.17 438.135 76.68ZM438.975 76.68C438.975 77.25 439.435 77.67 439.965 77.67C440.515 77.67 440.945 77.27 440.945 76.68C440.945 76.09 440.495 75.69 439.965 75.69C439.415 75.69 438.975 76.09 438.975 76.68ZM442.945 81.56C442.595 81.24 442.425 80.83 442.425 80.33C442.425 79.83 442.595 79.42 442.945 79.1C443.295 78.79 443.725 78.63 444.255 78.63C444.775 78.63 445.205 78.79 445.555 79.1C445.905 79.42 446.075 79.83 446.075 80.33C446.075 80.82 445.905 81.23 445.555 81.55C445.205 81.88 444.775 82.04 444.255 82.04C443.725 82.04 443.295 81.88 442.945 81.56ZM443.265 80.33C443.265 80.9 443.725 81.32 444.255 81.32C444.805 81.32 445.235 80.92 445.235 80.33C445.235 79.74 444.785 79.34 444.255 79.34C443.705 79.34 443.265 79.74 443.265 80.33Z" fill="#357D94"/>
<line y1="174.5" x2="544" y2="174.5" stroke="#ABBEC9"/>
<defs>
<linearGradient id="paint0_linear_6004_39840" x1="134" y1="124" x2="134" y2="175" gradientUnits="userSpaceOnUse">
<stop stop-color="#45B8DB"/>
<stop offset="1" stop-color="#ADE4E4"/>
</linearGradient>
<linearGradient id="paint1_linear_6004_39840" x1="134" y1="124" x2="134" y2="175" gradientUnits="userSpaceOnUse">
<stop stop-color="white" stop-opacity="0"/>
<stop offset="0.739583" stop-color="white"/>
</linearGradient>
<linearGradient id="paint2_linear_6004_39840" x1="112" y1="24.55" x2="112" y2="175" gradientUnits="userSpaceOnUse">
<stop stop-color="white" stop-opacity="0.05"/>
<stop offset="0.75" stop-color="white" stop-opacity="0.8"/>
</linearGradient>
<linearGradient id="paint3_linear_6004_39840" x1="284" y1="104" x2="284" y2="175" gradientUnits="userSpaceOnUse">
<stop stop-color="#45B8DB"/>
<stop offset="1" stop-color="#ADE4E4"/>
</linearGradient>
<linearGradient id="paint4_linear_6004_39840" x1="284" y1="104" x2="284" y2="175" gradientUnits="userSpaceOnUse">
<stop stop-color="white" stop-opacity="0"/>
<stop offset="0.739583" stop-color="white"/>
</linearGradient>
<linearGradient id="paint5_linear_6004_39840" x1="262" y1="-34.45" x2="262" y2="175" gradientUnits="userSpaceOnUse">
<stop stop-color="white" stop-opacity="0.05"/>
<stop offset="0.75" stop-color="white" stop-opacity="0.8"/>
</linearGradient>
<linearGradient id="paint6_linear_6004_39840" x1="434" y1="134" x2="434" y2="175" gradientUnits="userSpaceOnUse">
<stop stop-color="#45B8DB"/>
<stop offset="1" stop-color="#ADE4E4"/>
</linearGradient>
<linearGradient id="paint7_linear_6004_39840" x1="434" y1="134" x2="434" y2="175" gradientUnits="userSpaceOnUse">
<stop stop-color="white" stop-opacity="0"/>
<stop offset="0.739583" stop-color="white"/>
</linearGradient>
<linearGradient id="paint8_linear_6004_39840" x1="412" y1="54.05" x2="412" y2="175" gradientUnits="userSpaceOnUse">
<stop stop-color="white" stop-opacity="0.05"/>
<stop offset="0.75" stop-color="white" stop-opacity="0.8"/>
</linearGradient>
<linearGradient id="paint9_linear_6004_39840" x1="433.5" y1="25" x2="134.5" y2="25" gradientUnits="userSpaceOnUse">
<stop stop-color="#56BCF6"/>
<stop offset="1" stop-color="#A2DEE7"/>
</linearGradient>
</defs>
</svg>
