<svg width="479" height="150" viewBox="0 0 479 150" fill="none" xmlns="http://www.w3.org/2000/svg">
<line y1="134.5" x2="479" y2="134.5" stroke="#ABBEC9"/>
<path d="M223.848 28H222.63V25.998H216.638V25.186L222.77 18.2H223.848V24.864H225.668V25.998H223.848V28ZM222.63 20.16L218.318 24.864H222.63V20.16ZM231.966 19.39H226.03V18.2H233.464V18.998L228.592 28H227.262L231.966 19.39ZM234.3 28C233.782 28.056 233.39 27.762 233.39 27.258C233.39 26.768 233.698 26.46 234.244 26.46C234.86 26.46 235.266 26.88 235.266 27.664C235.266 29.064 234.496 29.778 233.474 30.016L233.18 29.358C233.488 29.274 233.768 29.106 234.02 28.84C234.258 28.574 234.356 28.294 234.3 28ZM241.899 19.39H235.963V18.2H243.397V18.998L238.525 28H237.195L241.899 19.39ZM244.143 23.366C244.143 21.672 244.563 20.37 245.389 19.446C246.215 18.536 247.251 18.074 248.497 18.074C250.135 18.074 251.423 18.816 251.969 19.992L251.017 20.636C250.443 19.726 249.589 19.278 248.441 19.278C247.573 19.278 246.845 19.614 246.257 20.286C245.669 20.972 245.375 21.896 245.389 23.086C245.935 22.064 247.209 21.448 248.609 21.448C249.743 21.448 250.653 21.742 251.311 22.344C251.969 22.946 252.305 23.744 252.305 24.724C252.305 25.718 251.941 26.544 251.199 27.174C250.457 27.804 249.533 28.126 248.427 28.126C245.781 28.126 244.143 26.404 244.143 23.366ZM245.543 24.556C245.809 25.942 246.859 26.922 248.413 26.922C249.169 26.922 249.799 26.726 250.289 26.32C250.779 25.928 251.017 25.41 251.017 24.78C251.017 23.394 250.037 22.652 248.539 22.652C247.713 22.652 247.027 22.848 246.495 23.24C245.949 23.632 245.641 24.066 245.543 24.556ZM254.742 23.492L253.734 23.226L254.308 18.2H260.468V19.39H255.386L255.022 22.022C255.512 21.658 256.254 21.476 257.248 21.476C258.396 21.476 259.292 21.784 259.95 22.386C260.594 23.002 260.916 23.786 260.916 24.752C260.916 25.718 260.552 26.53 259.838 27.16C259.11 27.804 258.2 28.126 257.122 28.126C255.288 28.126 253.762 27.258 253.132 25.732L254.252 25.256C254.658 26.194 255.708 26.936 257.122 26.936C258.732 26.936 259.628 26.012 259.628 24.794C259.628 23.492 258.578 22.652 256.912 22.652C256.016 22.652 255.288 22.932 254.742 23.492Z" fill="#1A3341"/>
<path d="M225.556 143.372L224.68 143.06C224.98 141.572 226.108 140.504 227.896 140.504C229.624 140.504 230.68 141.5 230.68 143.024C230.68 143.828 230.332 144.632 229.9 145.208C229.684 145.508 229.408 145.796 229.084 146.096C228.424 146.684 227.956 146.996 227.272 147.428L226.348 148.004H230.992V149H224.452V148.184L226.276 146.972C226.6 146.768 226.828 146.612 226.96 146.516C227.092 146.432 227.308 146.276 227.596 146.072C227.884 145.868 228.1 145.688 228.244 145.556C228.376 145.424 228.556 145.256 228.76 145.04C229.312 144.44 229.516 143.888 229.576 143.132C229.576 142.04 228.868 141.548 227.824 141.548C227.176 141.548 226.66 141.728 226.288 142.088C225.916 142.448 225.664 142.88 225.556 143.372ZM231.824 144.8C231.824 143.504 232.124 142.46 232.736 141.68C233.336 140.9 234.224 140.504 235.388 140.504C237.776 140.504 238.964 142.076 238.964 144.8C238.964 146.108 238.664 147.14 238.076 147.92C237.476 148.7 236.588 149.096 235.412 149.096C234.284 149.096 233.408 148.7 232.772 147.908C232.136 147.116 231.824 146.084 231.824 144.8ZM232.928 144.8C232.928 146.852 233.864 148.076 235.412 148.076C237.044 148.076 237.86 146.984 237.86 144.8C237.86 142.616 237.032 141.524 235.388 141.524C233.72 141.524 232.928 142.724 232.928 144.8ZM240.82 143.372L239.944 143.06C240.244 141.572 241.372 140.504 243.16 140.504C244.888 140.504 245.944 141.5 245.944 143.024C245.944 143.828 245.596 144.632 245.164 145.208C244.948 145.508 244.672 145.796 244.348 146.096C243.688 146.684 243.22 146.996 242.536 147.428L241.612 148.004H246.256V149H239.716V148.184L241.54 146.972C241.864 146.768 242.092 146.612 242.224 146.516C242.356 146.432 242.572 146.276 242.86 146.072C243.148 145.868 243.364 145.688 243.508 145.556C243.64 145.424 243.82 145.256 244.024 145.04C244.576 144.44 244.78 143.888 244.84 143.132C244.84 142.04 244.132 141.548 243.088 141.548C242.44 141.548 241.924 141.728 241.552 142.088C241.18 142.448 240.928 142.88 240.82 143.372ZM248.048 143.372L247.172 143.06C247.472 141.572 248.6 140.504 250.388 140.504C252.116 140.504 253.172 141.5 253.172 143.024C253.172 143.828 252.824 144.632 252.392 145.208C252.176 145.508 251.9 145.796 251.576 146.096C250.916 146.684 250.448 146.996 249.764 147.428L248.84 148.004H253.484V149H246.944V148.184L248.768 146.972C249.092 146.768 249.32 146.612 249.452 146.516C249.584 146.432 249.8 146.276 250.088 146.072C250.376 145.868 250.592 145.688 250.736 145.556C250.868 145.424 251.048 145.256 251.252 145.04C251.804 144.44 252.008 143.888 252.068 143.132C252.068 142.04 251.36 141.548 250.316 141.548C249.668 141.548 249.152 141.728 248.78 142.088C248.408 142.448 248.156 142.88 248.048 143.372Z" fill="#1A3341" fill-opacity="0.6"/>
<path d="M211 40C211 38.8954 211.895 38 213 38H265C266.105 38 267 38.8954 267 40V134H211V40Z" fill="url(#paint0_linear_6006_19063)"/>
<path opacity="0.2" d="M223 38H255V134H223V38Z" fill="url(#paint1_linear_6006_19063)"/>
<path opacity="0.04" d="M255 38H265C266.105 38 267 38.8954 267 40V134H255V38Z" fill="#0D262C"/>
<path opacity="0.5" d="M211 40C211 38.8954 211.895 38 213 38H223V134H211V40Z" fill="url(#paint2_linear_6006_19063)"/>
<path d="M89.1954 5.492L88.1874 5.226L88.7614 0.199999H94.9214V1.39H89.8394L89.4754 4.022C89.9654 3.658 90.7074 3.476 91.7014 3.476C92.8494 3.476 93.7454 3.784 94.4034 4.386C95.0474 5.002 95.3694 5.786 95.3694 6.752C95.3694 7.718 95.0054 8.53 94.2914 9.16C93.5634 9.804 92.6534 10.126 91.5754 10.126C89.7414 10.126 88.2154 9.258 87.5854 7.732L88.7054 7.256C89.1114 8.194 90.1614 8.936 91.5754 8.936C93.1854 8.936 94.0814 8.012 94.0814 6.794C94.0814 5.492 93.0314 4.652 91.3654 4.652C90.4694 4.652 89.7414 4.932 89.1954 5.492ZM96.4321 5.366C96.4321 3.672 96.8521 2.37 97.6781 1.446C98.5041 0.535999 99.5401 0.0739993 100.786 0.0739993C102.424 0.0739993 103.712 0.816 104.258 1.992L103.306 2.636C102.732 1.726 101.878 1.278 100.73 1.278C99.8621 1.278 99.1341 1.614 98.5461 2.286C97.9581 2.972 97.6641 3.896 97.6781 5.086C98.2241 4.064 99.4981 3.448 100.898 3.448C102.032 3.448 102.942 3.742 103.6 4.344C104.258 4.946 104.594 5.744 104.594 6.724C104.594 7.718 104.23 8.544 103.488 9.174C102.746 9.804 101.822 10.126 100.716 10.126C98.0701 10.126 96.4321 8.404 96.4321 5.366ZM97.8321 6.556C98.0981 7.942 99.1481 8.922 100.702 8.922C101.458 8.922 102.088 8.726 102.578 8.32C103.068 7.928 103.306 7.41 103.306 6.78C103.306 5.394 102.326 4.652 100.828 4.652C100.002 4.652 99.3161 4.848 98.7841 5.24C98.2381 5.632 97.9301 6.066 97.8321 6.556ZM106.541 10C106.023 10.056 105.631 9.762 105.631 9.258C105.631 8.768 105.939 8.46 106.485 8.46C107.101 8.46 107.507 8.88 107.507 9.664C107.507 11.064 106.737 11.778 105.715 12.016L105.421 11.358C105.729 11.274 106.009 11.106 106.261 10.84C106.499 10.574 106.597 10.294 106.541 10ZM112.389 4.414H112.823C113.453 4.414 113.971 4.26 114.405 3.966C114.825 3.672 115.035 3.28 115.035 2.818C115.035 1.768 114.209 1.236 112.571 1.236C111.003 1.236 110.149 1.81 110.149 2.818C110.149 3.728 111.087 4.414 112.389 4.414ZM112.795 5.52H112.445C111.689 5.52 111.059 5.688 110.569 6.01C110.079 6.332 109.827 6.738 109.827 7.228C109.827 8.292 110.807 8.964 112.585 8.964C114.391 8.964 115.357 8.32 115.357 7.242C115.357 6.164 114.321 5.52 112.795 5.52ZM115.553 9.37C114.839 9.874 113.845 10.126 112.599 10.126C111.353 10.126 110.359 9.874 109.631 9.384C108.903 8.894 108.539 8.222 108.539 7.354C108.539 6.22 109.281 5.324 110.471 4.932C109.393 4.582 108.861 3.728 108.861 2.734C108.861 1.11 110.233 0.0739993 112.585 0.0739993C114.951 0.0739993 116.323 1.11 116.323 2.734C116.323 3.672 115.805 4.386 114.769 4.862C116.015 5.24 116.631 6.052 116.631 7.298C116.631 8.18 116.267 8.88 115.553 9.37ZM125.871 4.918C125.871 6.584 125.479 7.872 124.681 8.768C123.883 9.678 122.819 10.126 121.489 10.126C119.865 10.126 118.591 9.44 117.961 8.39L118.969 7.69C119.529 8.474 120.551 8.922 121.657 8.922C122.567 8.922 123.295 8.558 123.869 7.83C124.443 7.116 124.681 6.22 124.611 5.156C124.149 6.22 122.987 7.004 121.433 7.004C120.341 7.004 119.445 6.696 118.745 6.066C118.031 5.45 117.681 4.638 117.681 3.644C117.681 2.552 118.059 1.684 118.815 1.04C119.571 0.395999 120.579 0.0739993 121.825 0.0739993C124.345 0.0739993 125.871 1.838 125.871 4.918ZM124.401 3.602C124.191 2.3 123.295 1.278 121.685 1.278C120.005 1.278 118.969 2.146 118.969 3.602C118.969 4.988 120.019 5.8 121.657 5.8C122.399 5.8 123.029 5.576 123.519 5.128C124.009 4.68 124.303 4.176 124.401 3.602ZM126.921 5.1C126.921 3.588 127.271 2.37 127.985 1.46C128.685 0.55 129.721 0.0879999 131.079 0.0879999C133.865 0.0879999 135.251 1.922 135.251 5.1C135.251 6.626 134.901 7.83 134.215 8.74C133.515 9.65 132.479 10.112 131.107 10.112C129.791 10.112 128.769 9.65 128.027 8.726C127.285 7.802 126.921 6.598 126.921 5.1ZM128.209 5.1C128.209 7.494 129.301 8.922 131.107 8.922C133.011 8.922 133.963 7.648 133.963 5.1C133.963 2.552 132.997 1.278 131.079 1.278C129.133 1.278 128.209 2.678 128.209 5.1Z" fill="#1A3341"/>
<path d="M98.863 143.372L97.987 143.06C98.287 141.572 99.415 140.504 101.203 140.504C102.931 140.504 103.987 141.5 103.987 143.024C103.987 143.828 103.639 144.632 103.207 145.208C102.991 145.508 102.715 145.796 102.391 146.096C101.731 146.684 101.263 146.996 100.579 147.428L99.655 148.004H104.299V149H97.759V148.184L99.583 146.972C99.907 146.768 100.135 146.612 100.267 146.516C100.399 146.432 100.615 146.276 100.903 146.072C101.191 145.868 101.407 145.688 101.551 145.556C101.683 145.424 101.863 145.256 102.067 145.04C102.619 144.44 102.823 143.888 102.883 143.132C102.883 142.04 102.175 141.548 101.131 141.548C100.483 141.548 99.967 141.728 99.595 142.088C99.223 142.448 98.971 142.88 98.863 143.372ZM105.131 144.8C105.131 143.504 105.431 142.46 106.043 141.68C106.643 140.9 107.531 140.504 108.695 140.504C111.083 140.504 112.271 142.076 112.271 144.8C112.271 146.108 111.971 147.14 111.383 147.92C110.783 148.7 109.895 149.096 108.719 149.096C107.591 149.096 106.715 148.7 106.079 147.908C105.443 147.116 105.131 146.084 105.131 144.8ZM106.235 144.8C106.235 146.852 107.171 148.076 108.719 148.076C110.351 148.076 111.167 146.984 111.167 144.8C111.167 142.616 110.339 141.524 108.695 141.524C107.027 141.524 106.235 142.724 106.235 144.8ZM114.127 143.372L113.251 143.06C113.551 141.572 114.679 140.504 116.467 140.504C118.195 140.504 119.251 141.5 119.251 143.024C119.251 143.828 118.903 144.632 118.471 145.208C118.255 145.508 117.979 145.796 117.655 146.096C116.995 146.684 116.527 146.996 115.843 147.428L114.919 148.004H119.563V149H113.023V148.184L114.847 146.972C115.171 146.768 115.399 146.612 115.531 146.516C115.663 146.432 115.879 146.276 116.167 146.072C116.455 145.868 116.671 145.688 116.815 145.556C116.947 145.424 117.127 145.256 117.331 145.04C117.883 144.44 118.087 143.888 118.147 143.132C118.147 142.04 117.439 141.548 116.395 141.548C115.747 141.548 115.231 141.728 114.859 142.088C114.487 142.448 114.235 142.88 114.127 143.372ZM120.299 142.832L119.915 141.932L122.795 140.552H123.479V149H122.447V141.836L120.299 142.832Z" fill="#1A3341" fill-opacity="0.6"/>
<path d="M83 22C83 20.8954 83.8954 20 85 20H137C138.105 20 139 20.8954 139 22V134H83V22Z" fill="url(#paint3_linear_6006_19063)"/>
<path opacity="0.2" d="M95 20H127V134H95V20Z" fill="url(#paint4_linear_6006_19063)"/>
<path opacity="0.04" d="M127 20H137C138.105 20 139 20.8954 139 22V134H127V20Z" fill="#0D262C"/>
<path opacity="0.5" d="M83 22C83 20.8954 83.8954 20 85 20H95V134H83V22Z" fill="url(#paint5_linear_6006_19063)"/>
<path d="M353.037 30H351.819V27.998H345.827V27.186L351.959 20.2H353.037V26.864H354.857V27.998H353.037V30ZM351.819 22.16L347.507 26.864H351.819V22.16ZM361.155 21.39H355.219V20.2H362.653V20.998L357.781 30H356.451L361.155 21.39ZM363.49 30C362.972 30.056 362.58 29.762 362.58 29.258C362.58 28.768 362.888 28.46 363.434 28.46C364.05 28.46 364.456 28.88 364.456 29.664C364.456 31.064 363.686 31.778 362.664 32.016L362.37 31.358C362.678 31.274 362.958 31.106 363.21 30.84C363.448 30.574 363.546 30.294 363.49 30ZM366.902 25.492L365.894 25.226L366.468 20.2H372.628V21.39H367.546L367.182 24.022C367.672 23.658 368.414 23.476 369.408 23.476C370.556 23.476 371.452 23.784 372.11 24.386C372.754 25.002 373.076 25.786 373.076 26.752C373.076 27.718 372.712 28.53 371.998 29.16C371.27 29.804 370.36 30.126 369.282 30.126C367.448 30.126 365.922 29.258 365.292 27.732L366.412 27.256C366.818 28.194 367.868 28.936 369.282 28.936C370.892 28.936 371.788 28.012 371.788 26.794C371.788 25.492 370.738 24.652 369.072 24.652C368.176 24.652 367.448 24.932 366.902 25.492ZM380.901 30H379.683V27.998H373.691V27.186L379.823 20.2H380.901V26.864H382.721V27.998H380.901V30ZM379.683 22.16L375.371 26.864H379.683V22.16ZM383.293 22.804L382.845 21.754L386.205 20.144H387.003V30H385.799V21.642L383.293 22.804Z" fill="#1A3341"/>
<path d="M353.527 143.372L352.651 143.06C352.951 141.572 354.079 140.504 355.867 140.504C357.595 140.504 358.651 141.5 358.651 143.024C358.651 143.828 358.303 144.632 357.871 145.208C357.655 145.508 357.379 145.796 357.055 146.096C356.395 146.684 355.927 146.996 355.243 147.428L354.319 148.004H358.963V149H352.423V148.184L354.247 146.972C354.571 146.768 354.799 146.612 354.931 146.516C355.063 146.432 355.279 146.276 355.567 146.072C355.855 145.868 356.071 145.688 356.215 145.556C356.347 145.424 356.527 145.256 356.731 145.04C357.283 144.44 357.487 143.888 357.547 143.132C357.547 142.04 356.839 141.548 355.795 141.548C355.147 141.548 354.631 141.728 354.259 142.088C353.887 142.448 353.635 142.88 353.527 143.372ZM359.795 144.8C359.795 143.504 360.095 142.46 360.707 141.68C361.307 140.9 362.195 140.504 363.359 140.504C365.747 140.504 366.935 142.076 366.935 144.8C366.935 146.108 366.635 147.14 366.047 147.92C365.447 148.7 364.559 149.096 363.383 149.096C362.255 149.096 361.379 148.7 360.743 147.908C360.107 147.116 359.795 146.084 359.795 144.8ZM360.899 144.8C360.899 146.852 361.835 148.076 363.383 148.076C365.015 148.076 365.831 146.984 365.831 144.8C365.831 142.616 365.003 141.524 363.359 141.524C361.691 141.524 360.899 142.724 360.899 144.8ZM368.791 143.372L367.915 143.06C368.215 141.572 369.343 140.504 371.131 140.504C372.859 140.504 373.915 141.5 373.915 143.024C373.915 143.828 373.567 144.632 373.135 145.208C372.919 145.508 372.643 145.796 372.319 146.096C371.659 146.684 371.191 146.996 370.507 147.428L369.583 148.004H374.227V149H367.687V148.184L369.511 146.972C369.835 146.768 370.063 146.612 370.195 146.516C370.327 146.432 370.543 146.276 370.831 146.072C371.119 145.868 371.335 145.688 371.479 145.556C371.611 145.424 371.791 145.256 371.995 145.04C372.547 144.44 372.751 143.888 372.811 143.132C372.811 142.04 372.103 141.548 371.059 141.548C370.411 141.548 369.895 141.728 369.523 142.088C369.151 142.448 368.899 142.88 368.791 143.372ZM375.887 143.048L374.987 142.64C375.431 141.344 376.595 140.492 378.335 140.492C379.163 140.492 379.847 140.684 380.375 141.068C380.903 141.452 381.167 141.968 381.167 142.604C381.167 143.576 380.651 144.296 379.691 144.572C380.615 144.632 381.359 145.328 381.359 146.576C381.359 147.368 381.071 147.992 380.495 148.436C379.919 148.88 379.187 149.108 378.287 149.108C376.451 149.108 375.179 148.232 374.759 146.852L375.731 146.432C376.247 147.524 377.123 148.076 378.359 148.076C379.523 148.076 380.255 147.536 380.255 146.588C380.255 145.664 379.535 145.196 378.095 145.196H377.159V144.2H377.903C379.211 144.2 380.063 143.612 380.063 142.808C380.063 141.98 379.379 141.512 378.287 141.512C377.003 141.512 376.223 142.172 375.887 143.048Z" fill="#1A3341" fill-opacity="0.6"/>
<path d="M339 42C339 40.8954 339.895 40 341 40H393C394.105 40 395 40.8954 395 42V134H339V42Z" fill="url(#paint6_linear_6006_19063)"/>
<path opacity="0.2" d="M351 40H383V134H351V40Z" fill="url(#paint7_linear_6006_19063)"/>
<path opacity="0.04" d="M383 40H393C394.105 40 395 40.8954 395 42V134H383V40Z" fill="#0D262C"/>
<path opacity="0.5" d="M339 42C339 40.8954 339.895 40 341 40H351V134H339V42Z" fill="url(#paint8_linear_6006_19063)"/>
<path d="M163.308 9.136H157.74V8.236H163.308V9.136ZM170.258 13H164.846V12.004H167.402V5.836L165.254 6.832L164.87 5.932L167.75 4.552H168.434V12.004H170.258V13ZM171.634 9.028C171.634 7.576 171.958 6.448 172.606 5.668C173.254 4.888 174.094 4.492 175.126 4.492C176.446 4.492 177.358 5.044 177.862 6.136L177.046 6.688C176.554 5.908 176.038 5.524 175.078 5.524C173.626 5.524 172.69 6.712 172.702 8.788C173.206 7.852 174.046 7.384 175.222 7.384C177.142 7.384 178.15 8.464 178.15 10.192C178.15 11.056 177.862 11.752 177.286 12.292C176.698 12.832 175.966 13.108 175.066 13.108C172.954 13.108 171.634 11.62 171.634 9.028ZM172.834 10.048C173.098 11.404 173.842 12.076 175.054 12.076C176.314 12.076 177.046 11.356 177.046 10.24C177.046 9.028 176.422 8.416 175.162 8.416C173.77 8.416 173.014 9.172 172.834 10.048ZM180.977 13.18L180.185 12.724L186.389 4.336L187.145 4.888L180.977 13.18ZM178.889 6.616C178.889 6.016 179.093 5.524 179.513 5.14C179.933 4.756 180.449 4.564 181.085 4.564C181.709 4.564 182.225 4.756 182.645 5.14C183.065 5.524 183.269 6.016 183.269 6.616C183.269 7.204 183.065 7.696 182.645 8.08C182.225 8.464 181.709 8.656 181.085 8.656C180.449 8.656 179.933 8.464 179.513 8.08C179.093 7.696 178.889 7.204 178.889 6.616ZM179.897 6.616C179.897 7.3 180.449 7.804 181.085 7.804C181.745 7.804 182.261 7.324 182.261 6.616C182.261 5.908 181.721 5.428 181.085 5.428C180.425 5.428 179.897 5.908 179.897 6.616ZM184.661 12.472C184.241 12.088 184.037 11.596 184.037 10.996C184.037 10.396 184.241 9.904 184.661 9.52C185.081 9.148 185.597 8.956 186.233 8.956C186.857 8.956 187.373 9.148 187.793 9.52C188.213 9.904 188.417 10.396 188.417 10.996C188.417 11.584 188.213 12.076 187.793 12.46C187.373 12.856 186.857 13.048 186.233 13.048C185.597 13.048 185.081 12.856 184.661 12.472ZM185.045 10.996C185.045 11.68 185.597 12.184 186.233 12.184C186.893 12.184 187.409 11.704 187.409 10.996C187.409 10.288 186.869 9.808 186.233 9.808C185.573 9.808 185.045 10.288 185.045 10.996Z" fill="#7DA4C1"/>
<path d="M200.747 22.3536C200.943 22.1583 200.943 21.8417 200.747 21.6465L197.566 18.4645C197.37 18.2692 197.054 18.2692 196.858 18.4645C196.663 18.6597 196.663 18.9763 196.858 19.1716L199.687 22L196.858 24.8284C196.663 25.0237 196.663 25.3403 196.858 25.5355C197.054 25.7308 197.37 25.7308 197.566 25.5355L200.747 22.3536ZM149 22.5L200.394 22.5L200.394 21.5L149 21.5L149 22.5Z" fill="#7DA4C1"/>
<path d="M288.978 9.136H283.41V8.236H288.978V9.136ZM290.036 8.8C290.036 7.504 290.312 6.46 290.852 5.68C291.392 4.9 292.184 4.504 293.24 4.504C295.388 4.504 296.456 6.076 296.456 8.8C296.456 10.108 296.192 11.14 295.652 11.92C295.112 12.7 294.32 13.096 293.264 13.096C292.244 13.096 291.452 12.7 290.888 11.908C290.324 11.116 290.036 10.084 290.036 8.8ZM291.14 8.8C291.14 10.828 291.932 12.076 293.264 12.076C294.656 12.076 295.352 10.984 295.352 8.8C295.352 6.616 294.644 5.524 293.24 5.524C291.836 5.524 291.14 6.616 291.14 8.8ZM297.448 12.316C297.448 11.98 297.76 11.644 298.192 11.644C298.588 11.644 298.912 11.98 298.912 12.316C298.912 12.7 298.612 13.024 298.192 13.024C297.76 13.024 297.448 12.7 297.448 12.316ZM301.248 9.136L300.384 8.908L300.876 4.6H306.156V5.62H301.8L301.488 7.876C301.908 7.564 302.544 7.408 303.396 7.408C304.38 7.408 305.148 7.672 305.712 8.188C306.264 8.716 306.54 9.388 306.54 10.216C306.54 11.044 306.228 11.74 305.616 12.28C304.992 12.832 304.212 13.108 303.288 13.108C301.716 13.108 300.408 12.364 299.868 11.056L300.828 10.648C301.176 11.452 302.076 12.088 303.288 12.088C304.668 12.088 305.436 11.296 305.436 10.252C305.436 9.136 304.536 8.416 303.108 8.416C302.34 8.416 301.716 8.656 301.248 9.136ZM309.307 13.18L308.515 12.724L314.719 4.336L315.475 4.888L309.307 13.18ZM307.219 6.616C307.219 6.016 307.423 5.524 307.843 5.14C308.263 4.756 308.779 4.564 309.415 4.564C310.039 4.564 310.555 4.756 310.975 5.14C311.395 5.524 311.599 6.016 311.599 6.616C311.599 7.204 311.395 7.696 310.975 8.08C310.555 8.464 310.039 8.656 309.415 8.656C308.779 8.656 308.263 8.464 307.843 8.08C307.423 7.696 307.219 7.204 307.219 6.616ZM308.227 6.616C308.227 7.3 308.779 7.804 309.415 7.804C310.075 7.804 310.591 7.324 310.591 6.616C310.591 5.908 310.051 5.428 309.415 5.428C308.755 5.428 308.227 5.908 308.227 6.616ZM312.991 12.472C312.571 12.088 312.367 11.596 312.367 10.996C312.367 10.396 312.571 9.904 312.991 9.52C313.411 9.148 313.927 8.956 314.563 8.956C315.187 8.956 315.703 9.148 316.123 9.52C316.543 9.904 316.747 10.396 316.747 10.996C316.747 11.584 316.543 12.076 316.123 12.46C315.703 12.856 315.187 13.048 314.563 13.048C313.927 13.048 313.411 12.856 312.991 12.472ZM313.375 10.996C313.375 11.68 313.927 12.184 314.563 12.184C315.223 12.184 315.739 11.704 315.739 10.996C315.739 10.288 315.199 9.808 314.563 9.808C313.903 9.808 313.375 10.288 313.375 10.996Z" fill="#7DA4C1"/>
<path d="M327.778 22.3536C327.973 22.1583 327.973 21.8417 327.778 21.6464L324.596 18.4645C324.401 18.2692 324.084 18.2692 323.889 18.4645C323.693 18.6597 323.693 18.9763 323.889 19.1716L326.717 22L323.889 24.8284C323.693 25.0237 323.693 25.3403 323.889 25.5355C324.084 25.7308 324.401 25.7308 324.596 25.5355L327.778 22.3536ZM277 22.5L327.424 22.5L327.424 21.5L277 21.5L277 22.5Z" fill="#7DA4C1"/>
<defs>
<linearGradient id="paint0_linear_6006_19063" x1="239" y1="38" x2="239" y2="134" gradientUnits="userSpaceOnUse">
<stop stop-color="#45B8DB"/>
<stop offset="1" stop-color="#ADE4E4"/>
</linearGradient>
<linearGradient id="paint1_linear_6006_19063" x1="239" y1="38" x2="239" y2="134" gradientUnits="userSpaceOnUse">
<stop stop-color="white" stop-opacity="0"/>
<stop offset="0.739583" stop-color="white"/>
</linearGradient>
<linearGradient id="paint2_linear_6006_19063" x1="217" y1="-149.2" x2="217" y2="134" gradientUnits="userSpaceOnUse">
<stop stop-color="white" stop-opacity="0.05"/>
<stop offset="0.75" stop-color="white" stop-opacity="0.8"/>
</linearGradient>
<linearGradient id="paint3_linear_6006_19063" x1="111" y1="20" x2="111" y2="134" gradientUnits="userSpaceOnUse">
<stop stop-color="#45B8DB"/>
<stop offset="1" stop-color="#ADE4E4"/>
</linearGradient>
<linearGradient id="paint4_linear_6006_19063" x1="111" y1="20" x2="111" y2="134" gradientUnits="userSpaceOnUse">
<stop stop-color="white" stop-opacity="0"/>
<stop offset="0.739583" stop-color="white"/>
</linearGradient>
<linearGradient id="paint5_linear_6006_19063" x1="89" y1="-202.3" x2="89" y2="134" gradientUnits="userSpaceOnUse">
<stop stop-color="white" stop-opacity="0.05"/>
<stop offset="0.75" stop-color="white" stop-opacity="0.8"/>
</linearGradient>
<linearGradient id="paint6_linear_6006_19063" x1="367" y1="40" x2="367" y2="134" gradientUnits="userSpaceOnUse">
<stop stop-color="#45B8DB"/>
<stop offset="1" stop-color="#ADE4E4"/>
</linearGradient>
<linearGradient id="paint7_linear_6006_19063" x1="367" y1="40" x2="367" y2="134" gradientUnits="userSpaceOnUse">
<stop stop-color="white" stop-opacity="0"/>
<stop offset="0.739583" stop-color="white"/>
</linearGradient>
<linearGradient id="paint8_linear_6006_19063" x1="345" y1="-143.3" x2="345" y2="134" gradientUnits="userSpaceOnUse">
<stop stop-color="white" stop-opacity="0.05"/>
<stop offset="0.75" stop-color="white" stop-opacity="0.8"/>
</linearGradient>
</defs>
</svg>
