<svg width="335" height="487" viewBox="0 0 335 487" fill="none" xmlns="http://www.w3.org/2000/svg">
<path d="M59.1114 177.6H60.1914L57.6954 186H56.7594L54.4794 179.472L52.2354 186H51.2994L48.6834 177.6H49.8234L51.8274 184.08L54.0234 177.6H54.9474L57.2034 184.068L59.1114 177.6ZM59.8216 182.868C59.8216 181.92 60.1336 181.14 60.7456 180.528C61.3576 179.916 62.1496 179.616 63.1216 179.616C64.1056 179.616 64.9096 179.916 65.5216 180.528C66.1336 181.14 66.4456 181.92 66.4456 182.868C66.4456 183.816 66.1336 184.584 65.5216 185.196C64.8976 185.808 64.0936 186.108 63.1216 186.108C62.1496 186.108 61.3576 185.808 60.7456 185.196C60.1336 184.584 59.8216 183.816 59.8216 182.868ZM60.8896 182.868C60.8896 183.528 61.0936 184.08 61.5136 184.512C61.9336 184.944 62.4616 185.16 63.1216 185.16C63.7816 185.16 64.3336 184.944 64.7536 184.524C65.1736 184.104 65.3776 183.552 65.3776 182.868C65.3776 182.184 65.1616 181.632 64.7416 181.2C64.3096 180.78 63.7696 180.564 63.1216 180.564C62.4736 180.564 61.9456 180.78 61.5256 181.2C61.1056 181.62 60.8896 182.184 60.8896 182.868ZM68.4521 186H67.4441V179.76H68.4521V180.24C68.6561 179.82 69.1961 179.628 69.7361 179.628C70.2881 179.628 70.7081 179.82 71.0081 180.192L70.3721 180.888C70.2161 180.684 69.9761 180.576 69.6281 180.576C69.0881 180.576 68.5961 181.02 68.4521 181.656V186ZM72.6703 186H71.6623V177.24H72.6703V186ZM79.7825 186H78.7745V185.256C78.4985 185.688 77.7785 186.108 76.8305 186.108C75.9065 186.108 75.1745 185.82 74.6105 185.244C74.0465 184.668 73.7585 183.888 73.7585 182.892C73.7585 181.932 74.0585 181.14 74.6705 180.528C75.2825 179.916 76.0265 179.616 76.9145 179.616C77.7425 179.616 78.3665 179.82 78.7745 180.228V177.24H79.7825V186ZM76.9745 185.148C77.8265 185.148 78.4865 184.548 78.7745 183.96V181.44C78.3785 180.852 77.7905 180.564 77.0345 180.564C76.4225 180.564 75.8945 180.78 75.4745 181.2C75.0425 181.62 74.8265 182.184 74.8265 182.868C74.8265 184.26 75.7145 185.148 76.9745 185.148ZM88.0928 186H84.7568V177.6H88.1528C90.3008 177.6 91.1168 178.38 91.1168 179.688C91.1168 180.624 90.7208 181.26 89.9288 181.608C90.8528 181.8 91.4168 182.508 91.4168 183.6C91.4168 185.244 90.1928 186 88.0928 186ZM88.2008 182.208H85.8488V184.98H88.0808C89.6048 184.98 90.2888 184.536 90.2888 183.54C90.2888 182.652 89.5928 182.208 88.2008 182.208ZM88.0568 178.62H85.8488V181.212H88.2368C89.3048 181.212 90.0008 180.732 90.0008 179.916C90.0008 179.016 89.4848 178.62 88.0568 178.62ZM93.035 181.26L92.519 180.504C93.095 179.964 94.091 179.616 95.015 179.616C96.683 179.616 97.571 180.528 97.571 182.148V186H96.563V185.076C96.167 185.652 95.387 186.084 94.379 186.084C93.023 186.084 92.111 185.328 92.111 184.176C92.111 182.868 93.227 182.244 95.099 182.244C95.687 182.244 96.167 182.304 96.563 182.424C96.563 181.212 96.131 180.564 94.895 180.564C94.271 180.564 93.647 180.792 93.035 181.26ZM94.619 185.172C95.087 185.172 95.507 185.04 95.855 184.788C96.203 184.536 96.431 184.248 96.563 183.948V183.312C96.215 183.192 95.771 183.132 95.231 183.132C93.863 183.132 93.179 183.468 93.179 184.14C93.179 184.776 93.755 185.172 94.619 185.172ZM99.8532 186H98.8452V179.76H99.8532V180.576C100.249 179.964 101.065 179.628 101.989 179.628C103.681 179.628 104.521 180.564 104.521 182.448V186H103.513V182.568C103.513 181.188 102.925 180.576 101.689 180.576C100.921 180.576 100.189 181.08 99.8532 181.836V186ZM106.8 186H105.792V177.24H106.8V182.532L109.824 179.76H111.18L108.18 182.532L111.384 186H110.052L107.292 183.096L106.8 183.504V186Z" fill="#76848D"/>
<path d="M247.039 186H245.947V177.6H247.039V186ZM249.791 186H248.699V177.6H249.707L252.899 181.824L255.983 177.6H256.967V186H255.875V179.484L253.007 183.348H252.743L249.791 179.484V186ZM259.726 186H258.622V177.6H264.658V178.62H259.726V181.5H264.322V182.52H259.726V186Z" fill="#76848D"/>
<path d="M71.3688 40.434L70.3468 40.07C70.6968 38.334 72.0128 37.088 74.0988 37.088C76.1148 37.088 77.3468 38.25 77.3468 40.028C77.3468 40.966 76.9408 41.904 76.4368 42.576C76.1848 42.926 75.8628 43.262 75.4848 43.612C74.7148 44.298 74.1688 44.662 73.3708 45.166L72.2928 45.838H77.7108V47H70.0808V46.048L72.2088 44.634C72.5868 44.396 72.8528 44.214 73.0068 44.102C73.1608 44.004 73.4128 43.822 73.7488 43.584C74.0848 43.346 74.3368 43.136 74.5048 42.982C74.6588 42.828 74.8688 42.632 75.1068 42.38C75.7508 41.68 75.9888 41.036 76.0588 40.154C76.0588 38.88 75.2328 38.306 74.0148 38.306C73.2588 38.306 72.6568 38.516 72.2228 38.936C71.7888 39.356 71.4948 39.86 71.3688 40.434ZM78.7791 46.202C78.7791 45.81 79.1431 45.418 79.6471 45.418C80.1091 45.418 80.4871 45.81 80.4871 46.202C80.4871 46.65 80.1371 47.028 79.6471 47.028C79.1431 47.028 78.7791 46.65 78.7791 46.202ZM81.6446 42.366C81.6446 40.672 82.0646 39.37 82.8906 38.446C83.7166 37.536 84.7526 37.074 85.9986 37.074C87.6366 37.074 88.9246 37.816 89.4706 38.992L88.5186 39.636C87.9446 38.726 87.0906 38.278 85.9426 38.278C85.0746 38.278 84.3466 38.614 83.7586 39.286C83.1706 39.972 82.8766 40.896 82.8906 42.086C83.4366 41.064 84.7106 40.448 86.1106 40.448C87.2446 40.448 88.1546 40.742 88.8126 41.344C89.4706 41.946 89.8066 42.744 89.8066 43.724C89.8066 44.718 89.4426 45.544 88.7006 46.174C87.9586 46.804 87.0346 47.126 85.9286 47.126C83.2826 47.126 81.6446 45.404 81.6446 42.366ZM83.0446 43.556C83.3106 44.942 84.3606 45.922 85.9146 45.922C86.6706 45.922 87.3006 45.726 87.7906 45.32C88.2806 44.928 88.5186 44.41 88.5186 43.78C88.5186 42.394 87.5386 41.652 86.0406 41.652C85.2146 41.652 84.5286 41.848 83.9966 42.24C83.4506 42.632 83.1426 43.066 83.0446 43.556Z" fill="#2A3C3C"/>
<path d="M71.3688 40.434L70.3468 40.07C70.6968 38.334 72.0128 37.088 74.0988 37.088C76.1148 37.088 77.3468 38.25 77.3468 40.028C77.3468 40.966 76.9408 41.904 76.4368 42.576C76.1848 42.926 75.8628 43.262 75.4848 43.612C74.7148 44.298 74.1688 44.662 73.3708 45.166L72.2928 45.838H77.7108V47H70.0808V46.048L72.2088 44.634C72.5868 44.396 72.8528 44.214 73.0068 44.102C73.1608 44.004 73.4128 43.822 73.7488 43.584C74.0848 43.346 74.3368 43.136 74.5048 42.982C74.6588 42.828 74.8688 42.632 75.1068 42.38C75.7508 41.68 75.9888 41.036 76.0588 40.154C76.0588 38.88 75.2328 38.306 74.0148 38.306C73.2588 38.306 72.6568 38.516 72.2228 38.936C71.7888 39.356 71.4948 39.86 71.3688 40.434ZM78.7791 46.202C78.7791 45.81 79.1431 45.418 79.6471 45.418C80.1091 45.418 80.4871 45.81 80.4871 46.202C80.4871 46.65 80.1371 47.028 79.6471 47.028C79.1431 47.028 78.7791 46.65 78.7791 46.202ZM81.6446 42.366C81.6446 40.672 82.0646 39.37 82.8906 38.446C83.7166 37.536 84.7526 37.074 85.9986 37.074C87.6366 37.074 88.9246 37.816 89.4706 38.992L88.5186 39.636C87.9446 38.726 87.0906 38.278 85.9426 38.278C85.0746 38.278 84.3466 38.614 83.7586 39.286C83.1706 39.972 82.8766 40.896 82.8906 42.086C83.4366 41.064 84.7106 40.448 86.1106 40.448C87.2446 40.448 88.1546 40.742 88.8126 41.344C89.4706 41.946 89.8066 42.744 89.8066 43.724C89.8066 44.718 89.4426 45.544 88.7006 46.174C87.9586 46.804 87.0346 47.126 85.9286 47.126C83.2826 47.126 81.6446 45.404 81.6446 42.366ZM83.0446 43.556C83.3106 44.942 84.3606 45.922 85.9146 45.922C86.6706 45.922 87.3006 45.726 87.7906 45.32C88.2806 44.928 88.5186 44.41 88.5186 43.78C88.5186 42.394 87.5386 41.652 86.0406 41.652C85.2146 41.652 84.5286 41.848 83.9966 42.24C83.4506 42.632 83.1426 43.066 83.0446 43.556Z" fill="#1A3341"/>
<path d="M62 59C62 57.8954 62.8954 57 64 57H96C97.1046 57 98 57.8954 98 59V170H62V59Z" fill="url(#paint0_linear_2355_51828)"/>
<path opacity="0.2" d="M74 57H86V170H74V57Z" fill="url(#paint1_linear_2355_51828)"/>
<path opacity="0.04" d="M86 57H96C97.1046 57 98 57.8954 98 59V170H86V57Z" fill="#0D262C"/>
<path opacity="0.5" d="M62 59C62 57.8954 62.8954 57 64 57H74V170H62V59Z" fill="url(#paint2_linear_2355_51828)"/>
<path d="M119.321 49.434L118.299 49.07C118.649 47.334 119.965 46.088 122.051 46.088C124.067 46.088 125.299 47.25 125.299 49.028C125.299 49.966 124.893 50.904 124.389 51.576C124.137 51.926 123.815 52.262 123.437 52.612C122.667 53.298 122.121 53.662 121.323 54.166L120.245 54.838H125.663V56H118.033V55.048L120.161 53.634C120.539 53.396 120.805 53.214 120.959 53.102C121.113 53.004 121.365 52.822 121.701 52.584C122.037 52.346 122.289 52.136 122.457 51.982C122.611 51.828 122.821 51.632 123.059 51.38C123.703 50.68 123.941 50.036 124.011 49.154C124.011 47.88 123.185 47.306 121.967 47.306C121.211 47.306 120.609 47.516 120.175 47.936C119.741 48.356 119.447 48.86 119.321 49.434ZM126.731 55.202C126.731 54.81 127.095 54.418 127.599 54.418C128.061 54.418 128.439 54.81 128.439 55.202C128.439 55.65 128.089 56.028 127.599 56.028C127.095 56.028 126.731 55.65 126.731 55.202ZM136.359 56H135.141V53.998H129.149V53.186L135.281 46.2H136.359V52.864H138.179V53.998H136.359V56ZM135.141 48.16L130.829 52.864H135.141V48.16Z" fill="#2A3C3C"/>
<path d="M119.321 49.434L118.299 49.07C118.649 47.334 119.965 46.088 122.051 46.088C124.067 46.088 125.299 47.25 125.299 49.028C125.299 49.966 124.893 50.904 124.389 51.576C124.137 51.926 123.815 52.262 123.437 52.612C122.667 53.298 122.121 53.662 121.323 54.166L120.245 54.838H125.663V56H118.033V55.048L120.161 53.634C120.539 53.396 120.805 53.214 120.959 53.102C121.113 53.004 121.365 52.822 121.701 52.584C122.037 52.346 122.289 52.136 122.457 51.982C122.611 51.828 122.821 51.632 123.059 51.38C123.703 50.68 123.941 50.036 124.011 49.154C124.011 47.88 123.185 47.306 121.967 47.306C121.211 47.306 120.609 47.516 120.175 47.936C119.741 48.356 119.447 48.86 119.321 49.434ZM126.731 55.202C126.731 54.81 127.095 54.418 127.599 54.418C128.061 54.418 128.439 54.81 128.439 55.202C128.439 55.65 128.089 56.028 127.599 56.028C127.095 56.028 126.731 55.65 126.731 55.202ZM136.359 56H135.141V53.998H129.149V53.186L135.281 46.2H136.359V52.864H138.179V53.998H136.359V56ZM135.141 48.16L130.829 52.864H135.141V48.16Z" fill="#1A3341"/>
<path opacity="0.4" d="M110 68C110 66.8954 110.895 66 112 66H144C145.105 66 146 66.8954 146 68V170H110V68Z" fill="url(#paint3_linear_2355_51828)"/>
<path opacity="0.2" d="M122 66H134V170H122V66Z" fill="url(#paint4_linear_2355_51828)"/>
<path opacity="0.04" d="M134 66H144C145.105 66 146 66.8954 146 68V170H134V66Z" fill="#0D262C"/>
<path opacity="0.5" d="M110 68C110 66.8954 110.895 66 112 66H122V170H110V68Z" fill="url(#paint5_linear_2355_51828)"/>
<path d="M23.0781 23.056L22.0281 22.58C22.5461 21.068 23.9041 20.074 25.9341 20.074C26.9001 20.074 27.6981 20.298 28.3141 20.746C28.9301 21.194 29.2381 21.796 29.2381 22.538C29.2381 23.672 28.6361 24.512 27.5161 24.834C28.5941 24.904 29.4621 25.716 29.4621 27.172C29.4621 28.096 29.1261 28.824 28.4541 29.342C27.7821 29.86 26.9281 30.126 25.8781 30.126C23.7361 30.126 22.2521 29.104 21.7621 27.494L22.8961 27.004C23.4981 28.278 24.5201 28.922 25.9621 28.922C27.3201 28.922 28.1741 28.292 28.1741 27.186C28.1741 26.108 27.3341 25.562 25.6541 25.562H24.5621V24.4H25.4301C26.9561 24.4 27.9501 23.714 27.9501 22.776C27.9501 21.81 27.1521 21.264 25.8781 21.264C24.3801 21.264 23.4701 22.034 23.0781 23.056ZM30.7107 29.202C30.7107 28.81 31.0747 28.418 31.5787 28.418C32.0407 28.418 32.4187 28.81 32.4187 29.202C32.4187 29.65 32.0687 30.028 31.5787 30.028C31.0747 30.028 30.7107 29.65 30.7107 29.202ZM33.5763 25.1C33.5763 23.588 33.9263 22.37 34.6403 21.46C35.3403 20.55 36.3763 20.088 37.7343 20.088C40.5203 20.088 41.9063 21.922 41.9063 25.1C41.9063 26.626 41.5563 27.83 40.8703 28.74C40.1703 29.65 39.1343 30.112 37.7623 30.112C36.4463 30.112 35.4243 29.65 34.6823 28.726C33.9403 27.802 33.5763 26.598 33.5763 25.1ZM34.8643 25.1C34.8643 27.494 35.9563 28.922 37.7623 28.922C39.6663 28.922 40.6183 27.648 40.6183 25.1C40.6183 22.552 39.6523 21.278 37.7343 21.278C35.7883 21.278 34.8643 22.678 34.8643 25.1Z" fill="#2A3C3C"/>
<path d="M23.0781 23.056L22.0281 22.58C22.5461 21.068 23.9041 20.074 25.9341 20.074C26.9001 20.074 27.6981 20.298 28.3141 20.746C28.9301 21.194 29.2381 21.796 29.2381 22.538C29.2381 23.672 28.6361 24.512 27.5161 24.834C28.5941 24.904 29.4621 25.716 29.4621 27.172C29.4621 28.096 29.1261 28.824 28.4541 29.342C27.7821 29.86 26.9281 30.126 25.8781 30.126C23.7361 30.126 22.2521 29.104 21.7621 27.494L22.8961 27.004C23.4981 28.278 24.5201 28.922 25.9621 28.922C27.3201 28.922 28.1741 28.292 28.1741 27.186C28.1741 26.108 27.3341 25.562 25.6541 25.562H24.5621V24.4H25.4301C26.9561 24.4 27.9501 23.714 27.9501 22.776C27.9501 21.81 27.1521 21.264 25.8781 21.264C24.3801 21.264 23.4701 22.034 23.0781 23.056ZM30.7107 29.202C30.7107 28.81 31.0747 28.418 31.5787 28.418C32.0407 28.418 32.4187 28.81 32.4187 29.202C32.4187 29.65 32.0687 30.028 31.5787 30.028C31.0747 30.028 30.7107 29.65 30.7107 29.202ZM33.5763 25.1C33.5763 23.588 33.9263 22.37 34.6403 21.46C35.3403 20.55 36.3763 20.088 37.7343 20.088C40.5203 20.088 41.9063 21.922 41.9063 25.1C41.9063 26.626 41.5563 27.83 40.8703 28.74C40.1703 29.65 39.1343 30.112 37.7623 30.112C36.4463 30.112 35.4243 29.65 34.6823 28.726C33.9403 27.802 33.5763 26.598 33.5763 25.1ZM34.8643 25.1C34.8643 27.494 35.9563 28.922 37.7623 28.922C39.6663 28.922 40.6183 27.648 40.6183 25.1C40.6183 22.552 39.6523 21.278 37.7343 21.278C35.7883 21.278 34.8643 22.678 34.8643 25.1Z" fill="#1A3341"/>
<path d="M14 42C14 40.8954 14.8954 40 16 40H48C49.1046 40 50 40.8954 50 42V170H14V42Z" fill="url(#paint6_linear_2355_51828)"/>
<path opacity="0.2" d="M26 40H38V170H26V40Z" fill="url(#paint7_linear_2355_51828)"/>
<path opacity="0.04" d="M38 40H48C49.1046 40 50 40.8954 50 42V170H38V40Z" fill="#0D262C"/>
<path opacity="0.5" d="M14 42C14 40.8954 14.8954 40 16 40H26V170H14V42Z" fill="url(#paint8_linear_2355_51828)"/>
<path d="M248.074 20.056L247.024 19.58C247.542 18.068 248.9 17.074 250.93 17.074C251.896 17.074 252.694 17.298 253.31 17.746C253.926 18.194 254.234 18.796 254.234 19.538C254.234 20.672 253.632 21.512 252.512 21.834C253.59 21.904 254.458 22.716 254.458 24.172C254.458 25.096 254.122 25.824 253.45 26.342C252.778 26.86 251.924 27.126 250.874 27.126C248.732 27.126 247.248 26.104 246.758 24.494L247.892 24.004C248.494 25.278 249.516 25.922 250.958 25.922C252.316 25.922 253.17 25.292 253.17 24.186C253.17 23.108 252.33 22.562 250.65 22.562H249.558V21.4H250.426C251.952 21.4 252.946 20.714 252.946 19.776C252.946 18.81 252.148 18.264 250.874 18.264C249.376 18.264 248.466 19.034 248.074 20.056ZM255.707 26.202C255.707 25.81 256.071 25.418 256.575 25.418C257.037 25.418 257.415 25.81 257.415 26.202C257.415 26.65 257.065 27.028 256.575 27.028C256.071 27.028 255.707 26.65 255.707 26.202ZM258.46 19.804L258.012 18.754L261.372 17.144H262.17V27H260.966V18.642L258.46 19.804Z" fill="#2A3C3C"/>
<path d="M248.074 20.056L247.024 19.58C247.542 18.068 248.9 17.074 250.93 17.074C251.896 17.074 252.694 17.298 253.31 17.746C253.926 18.194 254.234 18.796 254.234 19.538C254.234 20.672 253.632 21.512 252.512 21.834C253.59 21.904 254.458 22.716 254.458 24.172C254.458 25.096 254.122 25.824 253.45 26.342C252.778 26.86 251.924 27.126 250.874 27.126C248.732 27.126 247.248 26.104 246.758 24.494L247.892 24.004C248.494 25.278 249.516 25.922 250.958 25.922C252.316 25.922 253.17 25.292 253.17 24.186C253.17 23.108 252.33 22.562 250.65 22.562H249.558V21.4H250.426C251.952 21.4 252.946 20.714 252.946 19.776C252.946 18.81 252.148 18.264 250.874 18.264C249.376 18.264 248.466 19.034 248.074 20.056ZM255.707 26.202C255.707 25.81 256.071 25.418 256.575 25.418C257.037 25.418 257.415 25.81 257.415 26.202C257.415 26.65 257.065 27.028 256.575 27.028C256.071 27.028 255.707 26.65 255.707 26.202ZM258.46 19.804L258.012 18.754L261.372 17.144H262.17V27H260.966V18.642L258.46 19.804Z" fill="#1A3341"/>
<path d="M237 39C237 37.8954 237.895 37 239 37H271C272.105 37 273 37.8954 273 39V170H237V39Z" fill="url(#paint9_linear_2355_51828)"/>
<path opacity="0.2" d="M249 37H261V170H249V37Z" fill="url(#paint10_linear_2355_51828)"/>
<path opacity="0.04" d="M261 37H271C272.105 37 273 37.8954 273 39V170H261V37Z" fill="#0D262C"/>
<path opacity="0.5" d="M237 39C237 37.8954 237.895 37 239 37H249V170H237V39Z" fill="url(#paint11_linear_2355_51828)"/>
<path d="M296.074 20.056L295.024 19.58C295.542 18.068 296.9 17.074 298.93 17.074C299.896 17.074 300.694 17.298 301.31 17.746C301.926 18.194 302.234 18.796 302.234 19.538C302.234 20.672 301.632 21.512 300.512 21.834C301.59 21.904 302.458 22.716 302.458 24.172C302.458 25.096 302.122 25.824 301.45 26.342C300.778 26.86 299.924 27.126 298.874 27.126C296.732 27.126 295.248 26.104 294.758 24.494L295.892 24.004C296.494 25.278 297.516 25.922 298.958 25.922C300.316 25.922 301.17 25.292 301.17 24.186C301.17 23.108 300.33 22.562 298.65 22.562H297.558V21.4H298.426C299.952 21.4 300.946 20.714 300.946 19.776C300.946 18.81 300.148 18.264 298.874 18.264C297.376 18.264 296.466 19.034 296.074 20.056ZM303.707 26.202C303.707 25.81 304.071 25.418 304.575 25.418C305.037 25.418 305.415 25.81 305.415 26.202C305.415 26.65 305.065 27.028 304.575 27.028C304.071 27.028 303.707 26.65 303.707 26.202ZM306.46 19.804L306.012 18.754L309.372 17.144H310.17V27H308.966V18.642L306.46 19.804Z" fill="#2A3C3C"/>
<path d="M296.074 20.056L295.024 19.58C295.542 18.068 296.9 17.074 298.93 17.074C299.896 17.074 300.694 17.298 301.31 17.746C301.926 18.194 302.234 18.796 302.234 19.538C302.234 20.672 301.632 21.512 300.512 21.834C301.59 21.904 302.458 22.716 302.458 24.172C302.458 25.096 302.122 25.824 301.45 26.342C300.778 26.86 299.924 27.126 298.874 27.126C296.732 27.126 295.248 26.104 294.758 24.494L295.892 24.004C296.494 25.278 297.516 25.922 298.958 25.922C300.316 25.922 301.17 25.292 301.17 24.186C301.17 23.108 300.33 22.562 298.65 22.562H297.558V21.4H298.426C299.952 21.4 300.946 20.714 300.946 19.776C300.946 18.81 300.148 18.264 298.874 18.264C297.376 18.264 296.466 19.034 296.074 20.056ZM303.707 26.202C303.707 25.81 304.071 25.418 304.575 25.418C305.037 25.418 305.415 25.81 305.415 26.202C305.415 26.65 305.065 27.028 304.575 27.028C304.071 27.028 303.707 26.65 303.707 26.202ZM306.46 19.804L306.012 18.754L309.372 17.144H310.17V27H308.966V18.642L306.46 19.804Z" fill="#1A3341"/>
<path opacity="0.4" d="M285 39C285 37.8954 285.895 37 287 37H319C320.105 37 321 37.8954 321 39V170H285V39Z" fill="url(#paint12_linear_2355_51828)"/>
<path opacity="0.2" d="M297 37H309V170H297V37Z" fill="url(#paint13_linear_2355_51828)"/>
<path opacity="0.04" d="M309 37H319C320.105 37 321 37.8954 321 39V170H309V37Z" fill="#0D262C"/>
<path opacity="0.5" d="M285 39C285 37.8954 285.895 37 287 37H297V170H285V39Z" fill="url(#paint14_linear_2355_51828)"/>
<path d="M198.434 3.056L197.384 2.58C197.902 1.068 199.26 0.0739993 201.29 0.0739993C202.256 0.0739993 203.054 0.298 203.67 0.746C204.286 1.194 204.594 1.796 204.594 2.538C204.594 3.672 203.992 4.512 202.872 4.834C203.95 4.904 204.818 5.716 204.818 7.172C204.818 8.096 204.482 8.824 203.81 9.342C203.138 9.86 202.284 10.126 201.234 10.126C199.092 10.126 197.608 9.104 197.118 7.494L198.252 7.004C198.854 8.278 199.876 8.922 201.318 8.922C202.676 8.922 203.53 8.292 203.53 7.186C203.53 6.108 202.69 5.562 201.01 5.562H199.918V4.4H200.786C202.312 4.4 203.306 3.714 203.306 2.776C203.306 1.81 202.508 1.264 201.234 1.264C199.736 1.264 198.826 2.034 198.434 3.056ZM206.066 9.202C206.066 8.81 206.43 8.418 206.934 8.418C207.396 8.418 207.774 8.81 207.774 9.202C207.774 9.65 207.424 10.028 206.934 10.028C206.43 10.028 206.066 9.65 206.066 9.202ZM210.36 5.492L209.352 5.226L209.926 0.199999H216.086V1.39H211.004L210.64 4.022C211.13 3.658 211.872 3.476 212.866 3.476C214.014 3.476 214.91 3.784 215.568 4.386C216.212 5.002 216.534 5.786 216.534 6.752C216.534 7.718 216.17 8.53 215.456 9.16C214.728 9.804 213.818 10.126 212.74 10.126C210.906 10.126 209.38 9.258 208.75 7.732L209.87 7.256C210.276 8.194 211.326 8.936 212.74 8.936C214.35 8.936 215.246 8.012 215.246 6.794C215.246 5.492 214.196 4.652 212.53 4.652C211.634 4.652 210.906 4.932 210.36 5.492Z" fill="#2A3C3C"/>
<path d="M198.434 3.056L197.384 2.58C197.902 1.068 199.26 0.0739993 201.29 0.0739993C202.256 0.0739993 203.054 0.298 203.67 0.746C204.286 1.194 204.594 1.796 204.594 2.538C204.594 3.672 203.992 4.512 202.872 4.834C203.95 4.904 204.818 5.716 204.818 7.172C204.818 8.096 204.482 8.824 203.81 9.342C203.138 9.86 202.284 10.126 201.234 10.126C199.092 10.126 197.608 9.104 197.118 7.494L198.252 7.004C198.854 8.278 199.876 8.922 201.318 8.922C202.676 8.922 203.53 8.292 203.53 7.186C203.53 6.108 202.69 5.562 201.01 5.562H199.918V4.4H200.786C202.312 4.4 203.306 3.714 203.306 2.776C203.306 1.81 202.508 1.264 201.234 1.264C199.736 1.264 198.826 2.034 198.434 3.056ZM206.066 9.202C206.066 8.81 206.43 8.418 206.934 8.418C207.396 8.418 207.774 8.81 207.774 9.202C207.774 9.65 207.424 10.028 206.934 10.028C206.43 10.028 206.066 9.65 206.066 9.202ZM210.36 5.492L209.352 5.226L209.926 0.199999H216.086V1.39H211.004L210.64 4.022C211.13 3.658 211.872 3.476 212.866 3.476C214.014 3.476 214.91 3.784 215.568 4.386C216.212 5.002 216.534 5.786 216.534 6.752C216.534 7.718 216.17 8.53 215.456 9.16C214.728 9.804 213.818 10.126 212.74 10.126C210.906 10.126 209.38 9.258 208.75 7.732L209.87 7.256C210.276 8.194 211.326 8.936 212.74 8.936C214.35 8.936 215.246 8.012 215.246 6.794C215.246 5.492 214.196 4.652 212.53 4.652C211.634 4.652 210.906 4.932 210.36 5.492Z" fill="#1A3341"/>
<path d="M189 22C189 20.8954 189.895 20 191 20H223C224.105 20 225 20.8954 225 22V170H189V22Z" fill="url(#paint15_linear_2355_51828)"/>
<path opacity="0.2" d="M201 20H213V170H201V20Z" fill="url(#paint16_linear_2355_51828)"/>
<path opacity="0.04" d="M213 20H223C224.105 20 225 20.8954 225 22V170H213V20Z" fill="#0D262C"/>
<path opacity="0.5" d="M189 22C189 20.8954 189.895 20 191 20H201V170H189V22Z" fill="url(#paint17_linear_2355_51828)"/>
<line x1="-4.37114e-08" y1="169.5" x2="335" y2="169.5" stroke="#ABBEC9"/>
<path d="M78.0872 387.6H79.1792V392.448C79.1792 393.66 78.8432 394.56 78.1712 395.172C77.4992 395.784 76.6952 396.096 75.7472 396.096C74.7032 396.096 73.8392 395.772 73.1432 395.124C72.4472 394.476 72.0992 393.564 72.0992 392.376V387.6H73.1912V392.22C73.1912 393.12 73.4312 393.816 73.9232 394.308C74.4032 394.812 75.0152 395.064 75.7472 395.064C77.2712 395.064 78.0872 394.008 78.0872 392.28V387.6ZM87.8488 387.6V396H86.9968L81.8488 389.592V396H80.7928V387.6H81.6568L86.7928 394.032V387.6H87.8488Z" fill="#76848D"/>
<path d="M238.51 391.8C238.51 390.588 238.918 389.556 239.746 388.728C240.574 387.9 241.582 387.492 242.782 387.492C243.97 387.492 244.978 387.9 245.806 388.716C246.634 389.532 247.042 390.564 247.042 391.8C247.042 393.024 246.634 394.044 245.806 394.872C244.978 395.7 243.97 396.108 242.782 396.108C241.582 396.108 240.574 395.7 239.746 394.884C238.918 394.068 238.51 393.036 238.51 391.8ZM239.65 391.8C239.65 392.736 239.962 393.516 240.574 394.128C241.186 394.752 241.918 395.064 242.782 395.064C243.67 395.064 244.414 394.752 245.014 394.14C245.602 393.528 245.902 392.748 245.902 391.8C245.902 390.852 245.602 390.072 244.99 389.46C244.378 388.848 243.634 388.536 242.782 388.536C241.906 388.536 241.174 388.848 240.562 389.46C239.95 390.072 239.65 390.852 239.65 391.8ZM254.521 396H248.365V387.6H254.413V388.62H249.457V391.236H254.077V392.232H249.457V394.98H254.521V396ZM262.521 393.936L263.145 394.632C262.509 395.532 261.237 396.108 259.881 396.108C258.561 396.108 257.505 395.712 256.725 394.932C255.945 394.152 255.549 393.108 255.549 391.8C255.549 390.564 255.945 389.544 256.725 388.716C257.505 387.9 258.525 387.492 259.797 387.492C261.237 387.492 262.413 388.068 263.025 388.884L262.317 389.568C261.633 388.884 260.793 388.536 259.821 388.536C258.849 388.536 258.093 388.836 257.529 389.436C256.965 390.036 256.689 390.828 256.689 391.8C256.689 392.784 256.989 393.576 257.589 394.164C258.189 394.764 258.981 395.064 259.953 395.064C260.997 395.064 261.849 394.692 262.521 393.936ZM266.739 396H264.267V387.6H266.859C270.267 387.6 271.491 389.484 271.491 391.68C271.491 392.952 271.095 393.984 270.291 394.788C269.487 395.592 268.311 396 266.739 396ZM266.835 388.62H265.359V394.98H266.811C269.211 394.98 270.363 393.696 270.363 391.68C270.363 389.796 269.295 388.62 266.835 388.62Z" fill="#76848D"/>
<path d="M72.0251 247.434L71.0031 247.07C71.3531 245.334 72.6691 244.088 74.7551 244.088C76.7711 244.088 78.0031 245.25 78.0031 247.028C78.0031 247.966 77.5971 248.904 77.0931 249.576C76.8411 249.926 76.5191 250.262 76.1411 250.612C75.3711 251.298 74.8251 251.662 74.0271 252.166L72.9491 252.838H78.3671V254H70.7371V253.048L72.8651 251.634C73.2431 251.396 73.5091 251.214 73.6631 251.102C73.8171 251.004 74.0691 250.822 74.4051 250.584C74.7411 250.346 74.9931 250.136 75.1611 249.982C75.3151 249.828 75.5251 249.632 75.7631 249.38C76.4071 248.68 76.6451 248.036 76.7151 247.154C76.7151 245.88 75.8891 245.306 74.6711 245.306C73.9151 245.306 73.3131 245.516 72.8791 245.936C72.4451 246.356 72.1511 246.86 72.0251 247.434ZM79.4354 253.202C79.4354 252.81 79.7994 252.418 80.3034 252.418C80.7654 252.418 81.1434 252.81 81.1434 253.202C81.1434 253.65 80.7934 254.028 80.3034 254.028C79.7994 254.028 79.4354 253.65 79.4354 253.202ZM87.9149 245.39H81.9789V244.2H89.4129V244.998L84.5409 254H83.2109L87.9149 245.39Z" fill="#2A3C3C"/>
<path d="M72.0251 247.434L71.0031 247.07C71.3531 245.334 72.6691 244.088 74.7551 244.088C76.7711 244.088 78.0031 245.25 78.0031 247.028C78.0031 247.966 77.5971 248.904 77.0931 249.576C76.8411 249.926 76.5191 250.262 76.1411 250.612C75.3711 251.298 74.8251 251.662 74.0271 252.166L72.9491 252.838H78.3671V254H70.7371V253.048L72.8651 251.634C73.2431 251.396 73.5091 251.214 73.6631 251.102C73.8171 251.004 74.0691 250.822 74.4051 250.584C74.7411 250.346 74.9931 250.136 75.1611 249.982C75.3151 249.828 75.5251 249.632 75.7631 249.38C76.4071 248.68 76.6451 248.036 76.7151 247.154C76.7151 245.88 75.8891 245.306 74.6711 245.306C73.9151 245.306 73.3131 245.516 72.8791 245.936C72.4451 246.356 72.1511 246.86 72.0251 247.434ZM79.4354 253.202C79.4354 252.81 79.7994 252.418 80.3034 252.418C80.7654 252.418 81.1434 252.81 81.1434 253.202C81.1434 253.65 80.7934 254.028 80.3034 254.028C79.7994 254.028 79.4354 253.65 79.4354 253.202ZM87.9149 245.39H81.9789V244.2H89.4129V244.998L84.5409 254H83.2109L87.9149 245.39Z" fill="#1A3341"/>
<path d="M62 266C62 264.895 62.8954 264 64 264H96C97.1046 264 98 264.895 98 266V380H62V266Z" fill="url(#paint18_linear_2355_51828)"/>
<path opacity="0.2" d="M74 264H86V380H74V264Z" fill="url(#paint19_linear_2355_51828)"/>
<path opacity="0.04" d="M86 264H96C97.1046 264 98 264.895 98 266V380H86V264Z" fill="#0D262C"/>
<path opacity="0.5" d="M62 266C62 264.895 62.8954 264 64 264H74V380H62V266Z" fill="url(#paint20_linear_2355_51828)"/>
<path d="M119.321 260.434L118.299 260.07C118.649 258.334 119.965 257.088 122.051 257.088C124.067 257.088 125.299 258.25 125.299 260.028C125.299 260.966 124.893 261.904 124.389 262.576C124.137 262.926 123.815 263.262 123.437 263.612C122.667 264.298 122.121 264.662 121.323 265.166L120.245 265.838H125.663V267H118.033V266.048L120.161 264.634C120.539 264.396 120.805 264.214 120.959 264.102C121.113 264.004 121.365 263.822 121.701 263.584C122.037 263.346 122.289 263.136 122.457 262.982C122.611 262.828 122.821 262.632 123.059 262.38C123.703 261.68 123.941 261.036 124.011 260.154C124.011 258.88 123.185 258.306 121.967 258.306C121.211 258.306 120.609 258.516 120.175 258.936C119.741 259.356 119.447 259.86 119.321 260.434ZM126.731 266.202C126.731 265.81 127.095 265.418 127.599 265.418C128.061 265.418 128.439 265.81 128.439 266.202C128.439 266.65 128.089 267.028 127.599 267.028C127.095 267.028 126.731 266.65 126.731 266.202ZM136.359 267H135.141V264.998H129.149V264.186L135.281 257.2H136.359V263.864H138.179V264.998H136.359V267ZM135.141 259.16L130.829 263.864H135.141V259.16Z" fill="#2A3C3C"/>
<path d="M119.321 260.434L118.299 260.07C118.649 258.334 119.965 257.088 122.051 257.088C124.067 257.088 125.299 258.25 125.299 260.028C125.299 260.966 124.893 261.904 124.389 262.576C124.137 262.926 123.815 263.262 123.437 263.612C122.667 264.298 122.121 264.662 121.323 265.166L120.245 265.838H125.663V267H118.033V266.048L120.161 264.634C120.539 264.396 120.805 264.214 120.959 264.102C121.113 264.004 121.365 263.822 121.701 263.584C122.037 263.346 122.289 263.136 122.457 262.982C122.611 262.828 122.821 262.632 123.059 262.38C123.703 261.68 123.941 261.036 124.011 260.154C124.011 258.88 123.185 258.306 121.967 258.306C121.211 258.306 120.609 258.516 120.175 258.936C119.741 259.356 119.447 259.86 119.321 260.434ZM126.731 266.202C126.731 265.81 127.095 265.418 127.599 265.418C128.061 265.418 128.439 265.81 128.439 266.202C128.439 266.65 128.089 267.028 127.599 267.028C127.095 267.028 126.731 266.65 126.731 266.202ZM136.359 267H135.141V264.998H129.149V264.186L135.281 257.2H136.359V263.864H138.179V264.998H136.359V267ZM135.141 259.16L130.829 263.864H135.141V259.16Z" fill="#1A3341"/>
<path opacity="0.4" d="M110 279C110 277.895 110.895 277 112 277H144C145.105 277 146 277.895 146 279V380H110V279Z" fill="url(#paint21_linear_2355_51828)"/>
<path opacity="0.2" d="M122 277H134V380H122V277Z" fill="url(#paint22_linear_2355_51828)"/>
<path opacity="0.04" d="M134 277H144C145.105 277 146 277.895 146 279V380H134V277Z" fill="#0D262C"/>
<path opacity="0.5" d="M110 279C110 277.895 110.895 277 112 277H122V380H110V279Z" fill="url(#paint23_linear_2355_51828)"/>
<path d="M25.0742 230.056L24.0242 229.58C24.5422 228.068 25.9002 227.074 27.9302 227.074C28.8962 227.074 29.6942 227.298 30.3102 227.746C30.9262 228.194 31.2342 228.796 31.2342 229.538C31.2342 230.672 30.6322 231.512 29.5122 231.834C30.5902 231.904 31.4582 232.716 31.4582 234.172C31.4582 235.096 31.1222 235.824 30.4502 236.342C29.7782 236.86 28.9242 237.126 27.8742 237.126C25.7322 237.126 24.2482 236.104 23.7582 234.494L24.8922 234.004C25.4942 235.278 26.5162 235.922 27.9582 235.922C29.3162 235.922 30.1702 235.292 30.1702 234.186C30.1702 233.108 29.3302 232.562 27.6502 232.562H26.5582V231.4H27.4262C28.9522 231.4 29.9462 230.714 29.9462 229.776C29.9462 228.81 29.1482 228.264 27.8742 228.264C26.3762 228.264 25.4662 229.034 25.0742 230.056ZM32.7068 236.202C32.7068 235.81 33.0708 235.418 33.5748 235.418C34.0368 235.418 34.4148 235.81 34.4148 236.202C34.4148 236.65 34.0648 237.028 33.5748 237.028C33.0708 237.028 32.7068 236.65 32.7068 236.202ZM35.4604 229.804L35.0124 228.754L38.3724 227.144H39.1704V237H37.9664V228.642L35.4604 229.804Z" fill="#2A3C3C"/>
<path d="M25.0742 230.056L24.0242 229.58C24.5422 228.068 25.9002 227.074 27.9302 227.074C28.8962 227.074 29.6942 227.298 30.3102 227.746C30.9262 228.194 31.2342 228.796 31.2342 229.538C31.2342 230.672 30.6322 231.512 29.5122 231.834C30.5902 231.904 31.4582 232.716 31.4582 234.172C31.4582 235.096 31.1222 235.824 30.4502 236.342C29.7782 236.86 28.9242 237.126 27.8742 237.126C25.7322 237.126 24.2482 236.104 23.7582 234.494L24.8922 234.004C25.4942 235.278 26.5162 235.922 27.9582 235.922C29.3162 235.922 30.1702 235.292 30.1702 234.186C30.1702 233.108 29.3302 232.562 27.6502 232.562H26.5582V231.4H27.4262C28.9522 231.4 29.9462 230.714 29.9462 229.776C29.9462 228.81 29.1482 228.264 27.8742 228.264C26.3762 228.264 25.4662 229.034 25.0742 230.056ZM32.7068 236.202C32.7068 235.81 33.0708 235.418 33.5748 235.418C34.0368 235.418 34.4148 235.81 34.4148 236.202C34.4148 236.65 34.0648 237.028 33.5748 237.028C33.0708 237.028 32.7068 236.65 32.7068 236.202ZM35.4604 229.804L35.0124 228.754L38.3724 227.144H39.1704V237H37.9664V228.642L35.4604 229.804Z" fill="#1A3341"/>
<path d="M14 249C14 247.895 14.8954 247 16 247H48C49.1046 247 50 247.895 50 249V380H14V249Z" fill="url(#paint24_linear_2355_51828)"/>
<path opacity="0.2" d="M26 247H38V380H26V247Z" fill="url(#paint25_linear_2355_51828)"/>
<path opacity="0.04" d="M38 247H48C49.1046 247 50 247.895 50 249V380H38V247Z" fill="#0D262C"/>
<path opacity="0.5" d="M14 249C14 247.895 14.8954 247 16 247H26V380H14V249Z" fill="url(#paint26_linear_2355_51828)"/>
<path d="M246.355 238.434L245.333 238.07C245.683 236.334 246.999 235.088 249.085 235.088C251.101 235.088 252.333 236.25 252.333 238.028C252.333 238.966 251.927 239.904 251.423 240.576C251.171 240.926 250.849 241.262 250.471 241.612C249.701 242.298 249.155 242.662 248.357 243.166L247.279 243.838H252.697V245H245.067V244.048L247.195 242.634C247.573 242.396 247.839 242.214 247.993 242.102C248.147 242.004 248.399 241.822 248.735 241.584C249.071 241.346 249.323 241.136 249.491 240.982C249.645 240.828 249.855 240.632 250.093 240.38C250.737 239.68 250.975 239.036 251.045 238.154C251.045 236.88 250.219 236.306 249.001 236.306C248.245 236.306 247.643 236.516 247.209 236.936C246.775 237.356 246.481 237.86 246.355 238.434ZM253.765 244.202C253.765 243.81 254.129 243.418 254.633 243.418C255.095 243.418 255.473 243.81 255.473 244.202C255.473 244.65 255.123 245.028 254.633 245.028C254.129 245.028 253.765 244.65 253.765 244.202ZM264.779 239.918C264.779 241.584 264.387 242.872 263.589 243.768C262.791 244.678 261.727 245.126 260.397 245.126C258.773 245.126 257.499 244.44 256.869 243.39L257.877 242.69C258.437 243.474 259.459 243.922 260.565 243.922C261.475 243.922 262.203 243.558 262.777 242.83C263.351 242.116 263.589 241.22 263.519 240.156C263.057 241.22 261.895 242.004 260.341 242.004C259.249 242.004 258.353 241.696 257.653 241.066C256.939 240.45 256.589 239.638 256.589 238.644C256.589 237.552 256.967 236.684 257.723 236.04C258.479 235.396 259.487 235.074 260.733 235.074C263.253 235.074 264.779 236.838 264.779 239.918ZM263.309 238.602C263.099 237.3 262.203 236.278 260.593 236.278C258.913 236.278 257.877 237.146 257.877 238.602C257.877 239.988 258.927 240.8 260.565 240.8C261.307 240.8 261.937 240.576 262.427 240.128C262.917 239.68 263.211 239.176 263.309 238.602Z" fill="#2A3C3C"/>
<path d="M246.355 238.434L245.333 238.07C245.683 236.334 246.999 235.088 249.085 235.088C251.101 235.088 252.333 236.25 252.333 238.028C252.333 238.966 251.927 239.904 251.423 240.576C251.171 240.926 250.849 241.262 250.471 241.612C249.701 242.298 249.155 242.662 248.357 243.166L247.279 243.838H252.697V245H245.067V244.048L247.195 242.634C247.573 242.396 247.839 242.214 247.993 242.102C248.147 242.004 248.399 241.822 248.735 241.584C249.071 241.346 249.323 241.136 249.491 240.982C249.645 240.828 249.855 240.632 250.093 240.38C250.737 239.68 250.975 239.036 251.045 238.154C251.045 236.88 250.219 236.306 249.001 236.306C248.245 236.306 247.643 236.516 247.209 236.936C246.775 237.356 246.481 237.86 246.355 238.434ZM253.765 244.202C253.765 243.81 254.129 243.418 254.633 243.418C255.095 243.418 255.473 243.81 255.473 244.202C255.473 244.65 255.123 245.028 254.633 245.028C254.129 245.028 253.765 244.65 253.765 244.202ZM264.779 239.918C264.779 241.584 264.387 242.872 263.589 243.768C262.791 244.678 261.727 245.126 260.397 245.126C258.773 245.126 257.499 244.44 256.869 243.39L257.877 242.69C258.437 243.474 259.459 243.922 260.565 243.922C261.475 243.922 262.203 243.558 262.777 242.83C263.351 242.116 263.589 241.22 263.519 240.156C263.057 241.22 261.895 242.004 260.341 242.004C259.249 242.004 258.353 241.696 257.653 241.066C256.939 240.45 256.589 239.638 256.589 238.644C256.589 237.552 256.967 236.684 257.723 236.04C258.479 235.396 259.487 235.074 260.733 235.074C263.253 235.074 264.779 236.838 264.779 239.918ZM263.309 238.602C263.099 237.3 262.203 236.278 260.593 236.278C258.913 236.278 257.877 237.146 257.877 238.602C257.877 239.988 258.927 240.8 260.565 240.8C261.307 240.8 261.937 240.576 262.427 240.128C262.917 239.68 263.211 239.176 263.309 238.602Z" fill="#1A3341"/>
<path d="M237 257C237 255.895 237.895 255 239 255H271C272.105 255 273 255.895 273 257V380H237V257Z" fill="url(#paint27_linear_2355_51828)"/>
<path opacity="0.2" d="M249 255H261V380H249V255Z" fill="url(#paint28_linear_2355_51828)"/>
<path opacity="0.04" d="M261 255H271C272.105 255 273 255.895 273 257V380H261V255Z" fill="#0D262C"/>
<path opacity="0.5" d="M237 257C237 255.895 237.895 255 239 255H249V380H237V257Z" fill="url(#paint29_linear_2355_51828)"/>
<path d="M294.355 238.434L293.333 238.07C293.683 236.334 294.999 235.088 297.085 235.088C299.101 235.088 300.333 236.25 300.333 238.028C300.333 238.966 299.927 239.904 299.423 240.576C299.171 240.926 298.849 241.262 298.471 241.612C297.701 242.298 297.155 242.662 296.357 243.166L295.279 243.838H300.697V245H293.067V244.048L295.195 242.634C295.573 242.396 295.839 242.214 295.993 242.102C296.147 242.004 296.399 241.822 296.735 241.584C297.071 241.346 297.323 241.136 297.491 240.982C297.645 240.828 297.855 240.632 298.093 240.38C298.737 239.68 298.975 239.036 299.045 238.154C299.045 236.88 298.219 236.306 297.001 236.306C296.245 236.306 295.643 236.516 295.209 236.936C294.775 237.356 294.481 237.86 294.355 238.434ZM301.765 244.202C301.765 243.81 302.129 243.418 302.633 243.418C303.095 243.418 303.473 243.81 303.473 244.202C303.473 244.65 303.123 245.028 302.633 245.028C302.129 245.028 301.765 244.65 301.765 244.202ZM312.779 239.918C312.779 241.584 312.387 242.872 311.589 243.768C310.791 244.678 309.727 245.126 308.397 245.126C306.773 245.126 305.499 244.44 304.869 243.39L305.877 242.69C306.437 243.474 307.459 243.922 308.565 243.922C309.475 243.922 310.203 243.558 310.777 242.83C311.351 242.116 311.589 241.22 311.519 240.156C311.057 241.22 309.895 242.004 308.341 242.004C307.249 242.004 306.353 241.696 305.653 241.066C304.939 240.45 304.589 239.638 304.589 238.644C304.589 237.552 304.967 236.684 305.723 236.04C306.479 235.396 307.487 235.074 308.733 235.074C311.253 235.074 312.779 236.838 312.779 239.918ZM311.309 238.602C311.099 237.3 310.203 236.278 308.593 236.278C306.913 236.278 305.877 237.146 305.877 238.602C305.877 239.988 306.927 240.8 308.565 240.8C309.307 240.8 309.937 240.576 310.427 240.128C310.917 239.68 311.211 239.176 311.309 238.602Z" fill="#2A3C3C"/>
<path d="M294.355 238.434L293.333 238.07C293.683 236.334 294.999 235.088 297.085 235.088C299.101 235.088 300.333 236.25 300.333 238.028C300.333 238.966 299.927 239.904 299.423 240.576C299.171 240.926 298.849 241.262 298.471 241.612C297.701 242.298 297.155 242.662 296.357 243.166L295.279 243.838H300.697V245H293.067V244.048L295.195 242.634C295.573 242.396 295.839 242.214 295.993 242.102C296.147 242.004 296.399 241.822 296.735 241.584C297.071 241.346 297.323 241.136 297.491 240.982C297.645 240.828 297.855 240.632 298.093 240.38C298.737 239.68 298.975 239.036 299.045 238.154C299.045 236.88 298.219 236.306 297.001 236.306C296.245 236.306 295.643 236.516 295.209 236.936C294.775 237.356 294.481 237.86 294.355 238.434ZM301.765 244.202C301.765 243.81 302.129 243.418 302.633 243.418C303.095 243.418 303.473 243.81 303.473 244.202C303.473 244.65 303.123 245.028 302.633 245.028C302.129 245.028 301.765 244.65 301.765 244.202ZM312.779 239.918C312.779 241.584 312.387 242.872 311.589 243.768C310.791 244.678 309.727 245.126 308.397 245.126C306.773 245.126 305.499 244.44 304.869 243.39L305.877 242.69C306.437 243.474 307.459 243.922 308.565 243.922C309.475 243.922 310.203 243.558 310.777 242.83C311.351 242.116 311.589 241.22 311.519 240.156C311.057 241.22 309.895 242.004 308.341 242.004C307.249 242.004 306.353 241.696 305.653 241.066C304.939 240.45 304.589 239.638 304.589 238.644C304.589 237.552 304.967 236.684 305.723 236.04C306.479 235.396 307.487 235.074 308.733 235.074C311.253 235.074 312.779 236.838 312.779 239.918ZM311.309 238.602C311.099 237.3 310.203 236.278 308.593 236.278C306.913 236.278 305.877 237.146 305.877 238.602C305.877 239.988 306.927 240.8 308.565 240.8C309.307 240.8 309.937 240.576 310.427 240.128C310.917 239.68 311.211 239.176 311.309 238.602Z" fill="#1A3341"/>
<path opacity="0.4" d="M285 257C285 255.895 285.895 255 287 255H319C320.105 255 321 255.895 321 257V380H285V257Z" fill="url(#paint30_linear_2355_51828)"/>
<path opacity="0.2" d="M297 255H309V380H297V255Z" fill="url(#paint31_linear_2355_51828)"/>
<path opacity="0.04" d="M309 255H319C320.105 255 321 255.895 321 257V380H309V255Z" fill="#0D262C"/>
<path opacity="0.5" d="M285 257C285 255.895 285.895 255 287 255H297V380H285V257Z" fill="url(#paint32_linear_2355_51828)"/>
<path d="M198.516 221.056L197.466 220.58C197.984 219.068 199.342 218.074 201.372 218.074C202.338 218.074 203.136 218.298 203.752 218.746C204.368 219.194 204.676 219.796 204.676 220.538C204.676 221.672 204.074 222.512 202.954 222.834C204.032 222.904 204.9 223.716 204.9 225.172C204.9 226.096 204.564 226.824 203.892 227.342C203.22 227.86 202.366 228.126 201.316 228.126C199.174 228.126 197.69 227.104 197.2 225.494L198.334 225.004C198.936 226.278 199.958 226.922 201.4 226.922C202.758 226.922 203.612 226.292 203.612 225.186C203.612 224.108 202.772 223.562 201.092 223.562H200V222.4H200.868C202.394 222.4 203.388 221.714 203.388 220.776C203.388 219.81 202.59 219.264 201.316 219.264C199.818 219.264 198.908 220.034 198.516 221.056ZM206.148 227.202C206.148 226.81 206.512 226.418 207.016 226.418C207.478 226.418 207.856 226.81 207.856 227.202C207.856 227.65 207.506 228.028 207.016 228.028C206.512 228.028 206.148 227.65 206.148 227.202ZM209.98 221.056L208.93 220.58C209.448 219.068 210.806 218.074 212.836 218.074C213.802 218.074 214.6 218.298 215.216 218.746C215.832 219.194 216.14 219.796 216.14 220.538C216.14 221.672 215.538 222.512 214.418 222.834C215.496 222.904 216.364 223.716 216.364 225.172C216.364 226.096 216.028 226.824 215.356 227.342C214.684 227.86 213.83 228.126 212.78 228.126C210.638 228.126 209.154 227.104 208.664 225.494L209.798 225.004C210.4 226.278 211.422 226.922 212.864 226.922C214.222 226.922 215.076 226.292 215.076 225.186C215.076 224.108 214.236 223.562 212.556 223.562H211.464V222.4H212.332C213.858 222.4 214.852 221.714 214.852 220.776C214.852 219.81 214.054 219.264 212.78 219.264C211.282 219.264 210.372 220.034 209.98 221.056Z" fill="#2A3C3C"/>
<path d="M198.516 221.056L197.466 220.58C197.984 219.068 199.342 218.074 201.372 218.074C202.338 218.074 203.136 218.298 203.752 218.746C204.368 219.194 204.676 219.796 204.676 220.538C204.676 221.672 204.074 222.512 202.954 222.834C204.032 222.904 204.9 223.716 204.9 225.172C204.9 226.096 204.564 226.824 203.892 227.342C203.22 227.86 202.366 228.126 201.316 228.126C199.174 228.126 197.69 227.104 197.2 225.494L198.334 225.004C198.936 226.278 199.958 226.922 201.4 226.922C202.758 226.922 203.612 226.292 203.612 225.186C203.612 224.108 202.772 223.562 201.092 223.562H200V222.4H200.868C202.394 222.4 203.388 221.714 203.388 220.776C203.388 219.81 202.59 219.264 201.316 219.264C199.818 219.264 198.908 220.034 198.516 221.056ZM206.148 227.202C206.148 226.81 206.512 226.418 207.016 226.418C207.478 226.418 207.856 226.81 207.856 227.202C207.856 227.65 207.506 228.028 207.016 228.028C206.512 228.028 206.148 227.65 206.148 227.202ZM209.98 221.056L208.93 220.58C209.448 219.068 210.806 218.074 212.836 218.074C213.802 218.074 214.6 218.298 215.216 218.746C215.832 219.194 216.14 219.796 216.14 220.538C216.14 221.672 215.538 222.512 214.418 222.834C215.496 222.904 216.364 223.716 216.364 225.172C216.364 226.096 216.028 226.824 215.356 227.342C214.684 227.86 213.83 228.126 212.78 228.126C210.638 228.126 209.154 227.104 208.664 225.494L209.798 225.004C210.4 226.278 211.422 226.922 212.864 226.922C214.222 226.922 215.076 226.292 215.076 225.186C215.076 224.108 214.236 223.562 212.556 223.562H211.464V222.4H212.332C213.858 222.4 214.852 221.714 214.852 220.776C214.852 219.81 214.054 219.264 212.78 219.264C211.282 219.264 210.372 220.034 209.98 221.056Z" fill="#1A3341"/>
<path d="M189 240C189 238.895 189.895 238 191 238H223C224.105 238 225 238.895 225 240V380H189V240Z" fill="url(#paint33_linear_2355_51828)"/>
<path opacity="0.2" d="M201 238H213V380H201V238Z" fill="url(#paint34_linear_2355_51828)"/>
<path opacity="0.04" d="M213 238H223C224.105 238 225 238.895 225 240V380H213V238Z" fill="#0D262C"/>
<path opacity="0.5" d="M189 240C189 238.895 189.895 238 191 238H201V380H189V240Z" fill="url(#paint35_linear_2355_51828)"/>
<line x1="-4.37114e-08" y1="379.5" x2="335" y2="379.5" stroke="#ABBEC9"/>
<rect y="425" width="10" height="10" fill="url(#paint36_linear_2355_51828)"/>
<path d="M25.044 434H18.888V425.6H24.936V426.62H19.98V429.236H24.6V430.232H19.98V432.98H25.044V434ZM30.0806 432.296C30.0806 431.456 28.6526 431.324 27.5126 431C26.7326 430.772 26.1086 430.256 26.1086 429.404C26.1086 428.3 27.1526 427.616 28.7006 427.616C29.7446 427.616 30.5846 428.06 31.0286 428.696L30.3206 429.356C29.9246 428.828 29.3246 428.564 28.5206 428.564C27.8006 428.564 27.1766 428.84 27.1766 429.356C27.1766 430.088 28.6046 430.22 29.7446 430.568C30.5126 430.808 31.1366 431.384 31.1366 432.284C31.1366 433.496 30.1646 434.108 28.6406 434.108C27.3566 434.108 26.2646 433.532 25.8206 432.632L26.6246 432.068C26.9966 432.728 27.8486 433.16 28.8086 433.16C29.6606 433.16 30.0806 432.872 30.0806 432.296ZM32.7335 428.72H31.4375V427.76H32.7335V426.164H33.7415V427.76H35.8895V428.72H33.7415V431.468C33.7415 432.68 34.0535 433.124 34.8215 433.124C35.1935 433.124 35.5775 432.98 35.9495 432.68L36.4055 433.424C36.0095 433.868 35.4215 434.084 34.6415 434.084C33.4055 434.084 32.7335 433.268 32.7335 431.732V428.72ZM38.1565 434H37.1485V427.76H38.1565V434ZM37.0165 425.732C37.0165 425.396 37.2925 425.144 37.6645 425.144C38.0005 425.144 38.2885 425.396 38.2885 425.732C38.2885 426.08 38.0005 426.356 37.6645 426.356C37.2925 426.356 37.0165 426.08 37.0165 425.732ZM48.675 429.86V434H47.667V430.172C47.667 429.104 47.235 428.576 46.371 428.576C45.591 428.576 45.015 428.96 44.655 429.716V434H43.647V429.848C43.647 429.092 43.155 428.576 42.351 428.576C41.547 428.576 40.911 429.176 40.635 429.836V434H39.627V427.76H40.635V428.6C41.007 428.024 41.727 427.628 42.543 427.628C43.431 427.628 44.043 427.952 44.379 428.6C44.871 427.952 45.555 427.628 46.431 427.628C47.823 427.628 48.675 428.324 48.675 429.86ZM50.4167 429.26L49.9007 428.504C50.4767 427.964 51.4727 427.616 52.3967 427.616C54.0647 427.616 54.9527 428.528 54.9527 430.148V434H53.9447V433.076C53.5487 433.652 52.7687 434.084 51.7607 434.084C50.4047 434.084 49.4927 433.328 49.4927 432.176C49.4927 430.868 50.6087 430.244 52.4807 430.244C53.0687 430.244 53.5487 430.304 53.9447 430.424C53.9447 429.212 53.5127 428.564 52.2767 428.564C51.6527 428.564 51.0287 428.792 50.4167 429.26ZM52.0007 433.172C52.4687 433.172 52.8887 433.04 53.2367 432.788C53.5847 432.536 53.8127 432.248 53.9447 431.948V431.312C53.5967 431.192 53.1527 431.132 52.6127 431.132C51.2447 431.132 50.5607 431.468 50.5607 432.14C50.5607 432.776 51.1367 433.172 52.0007 433.172ZM56.8628 428.72H55.5668V427.76H56.8628V426.164H57.8708V427.76H60.0188V428.72H57.8708V431.468C57.8708 432.68 58.1828 433.124 58.9508 433.124C59.3228 433.124 59.7068 432.98 60.0788 432.68L60.5348 433.424C60.1388 433.868 59.5508 434.084 58.7708 434.084C57.5348 434.084 56.8628 433.268 56.8628 431.732V428.72ZM65.7941 432.212L66.4421 432.812C65.8661 433.676 65.0381 434.108 63.9461 434.108C62.9501 434.108 62.1461 433.808 61.5341 433.22C60.9221 432.632 60.6221 431.852 60.6221 430.868C60.6221 429.92 60.8981 429.14 61.4621 428.528C62.0141 427.916 62.7941 427.616 63.8021 427.616C64.6301 427.616 65.3261 427.88 65.8661 428.396C66.4061 428.912 66.6821 429.596 66.6821 430.448C66.6821 430.724 66.6581 430.976 66.6221 431.204H61.7021C61.7621 432.44 62.6741 433.16 63.9821 433.16C64.7141 433.16 65.4101 432.776 65.7941 432.212ZM63.7301 428.54C62.5901 428.54 61.8461 429.236 61.6901 430.292H65.6141C65.5541 429.188 64.8461 428.54 63.7301 428.54ZM71.6398 429.26L71.1238 428.504C71.6998 427.964 72.6958 427.616 73.6198 427.616C75.2878 427.616 76.1758 428.528 76.1758 430.148V434H75.1678V433.076C74.7718 433.652 73.9918 434.084 72.9838 434.084C71.6278 434.084 70.7158 433.328 70.7158 432.176C70.7158 430.868 71.8318 430.244 73.7038 430.244C74.2918 430.244 74.7718 430.304 75.1678 430.424C75.1678 429.212 74.7358 428.564 73.4998 428.564C72.8758 428.564 72.2518 428.792 71.6398 429.26ZM73.2238 433.172C73.6918 433.172 74.1118 433.04 74.4598 432.788C74.8078 432.536 75.0358 432.248 75.1678 431.948V431.312C74.8198 431.192 74.3758 431.132 73.8358 431.132C72.4678 431.132 71.7838 431.468 71.7838 432.14C71.7838 432.776 72.3598 433.172 73.2238 433.172ZM78.086 428.72H76.79V427.76H78.086V426.164H79.094V427.76H81.242V428.72H79.094V431.468C79.094 432.68 79.406 433.124 80.174 433.124C80.546 433.124 80.93 432.98 81.302 432.68L81.758 433.424C81.362 433.868 80.774 434.084 79.994 434.084C78.758 434.084 78.086 433.268 78.086 431.732V428.72ZM86.4827 428.72H85.1867V427.76H86.4827V426.164H87.4907V427.76H89.6387V428.72H87.4907V431.468C87.4907 432.68 87.8027 433.124 88.5707 433.124C88.9427 433.124 89.3267 432.98 89.6987 432.68L90.1547 433.424C89.7587 433.868 89.1707 434.084 88.3907 434.084C87.1547 434.084 86.4827 433.268 86.4827 431.732V428.72ZM91.7738 434H90.7658V425.24H91.7738V428.576C92.2538 427.94 92.9258 427.628 93.8018 427.628C95.5538 427.628 96.4298 428.576 96.4298 430.46V434H95.4218V430.556C95.4218 429.212 94.8458 428.576 93.6098 428.576C92.7818 428.576 92.1098 429.104 91.7738 429.872V434ZM102.524 432.212L103.172 432.812C102.596 433.676 101.768 434.108 100.676 434.108C99.6804 434.108 98.8764 433.808 98.2644 433.22C97.6524 432.632 97.3524 431.852 97.3524 430.868C97.3524 429.92 97.6284 429.14 98.1924 428.528C98.7444 427.916 99.5244 427.616 100.532 427.616C101.36 427.616 102.056 427.88 102.596 428.396C103.136 428.912 103.412 429.596 103.412 430.448C103.412 430.724 103.388 430.976 103.352 431.204H98.4324C98.4924 432.44 99.4044 433.16 100.712 433.16C101.444 433.16 102.14 432.776 102.524 432.212ZM100.46 428.54C99.3204 428.54 98.5764 429.236 98.4204 430.292H102.344C102.284 429.188 101.576 428.54 100.46 428.54ZM112.714 432.212L113.362 432.812C112.786 433.676 111.958 434.108 110.866 434.108C109.87 434.108 109.066 433.808 108.454 433.22C107.842 432.632 107.542 431.852 107.542 430.868C107.542 429.92 107.818 429.14 108.382 428.528C108.934 427.916 109.714 427.616 110.722 427.616C111.55 427.616 112.246 427.88 112.786 428.396C113.326 428.912 113.602 429.596 113.602 430.448C113.602 430.724 113.578 430.976 113.542 431.204H108.622C108.682 432.44 109.594 433.16 110.902 433.16C111.634 433.16 112.33 432.776 112.714 432.212ZM110.65 428.54C109.51 428.54 108.766 429.236 108.61 430.292H112.534C112.474 429.188 111.766 428.54 110.65 428.54ZM115.61 434H114.602V427.76H115.61V428.576C116.006 427.964 116.822 427.628 117.746 427.628C119.438 427.628 120.278 428.564 120.278 430.448V434H119.27V430.568C119.27 429.188 118.682 428.576 117.446 428.576C116.678 428.576 115.946 429.08 115.61 429.836V434ZM127.225 434H126.217V433.256C125.941 433.688 125.221 434.108 124.273 434.108C123.349 434.108 122.617 433.82 122.053 433.244C121.489 432.668 121.201 431.888 121.201 430.892C121.201 429.932 121.501 429.14 122.113 428.528C122.725 427.916 123.469 427.616 124.357 427.616C125.185 427.616 125.809 427.82 126.217 428.228V425.24H127.225V434ZM124.417 433.148C125.269 433.148 125.929 432.548 126.217 431.96V429.44C125.821 428.852 125.233 428.564 124.477 428.564C123.865 428.564 123.337 428.78 122.917 429.2C122.485 429.62 122.269 430.184 122.269 430.868C122.269 432.26 123.157 433.148 124.417 433.148ZM131.695 430.868C131.695 429.92 132.007 429.14 132.619 428.528C133.231 427.916 134.023 427.616 134.995 427.616C135.979 427.616 136.783 427.916 137.395 428.528C138.007 429.14 138.319 429.92 138.319 430.868C138.319 431.816 138.007 432.584 137.395 433.196C136.771 433.808 135.967 434.108 134.995 434.108C134.023 434.108 133.231 433.808 132.619 433.196C132.007 432.584 131.695 431.816 131.695 430.868ZM132.763 430.868C132.763 431.528 132.967 432.08 133.387 432.512C133.807 432.944 134.335 433.16 134.995 433.16C135.655 433.16 136.207 432.944 136.627 432.524C137.047 432.104 137.251 431.552 137.251 430.868C137.251 430.184 137.035 429.632 136.615 429.2C136.183 428.78 135.643 428.564 134.995 428.564C134.347 428.564 133.819 428.78 133.399 429.2C132.979 429.62 132.763 430.184 132.763 430.868ZM139.761 428.72H138.609V427.76H139.761V427.472C139.761 426.668 139.965 426.068 140.373 425.696C140.769 425.324 141.261 425.144 141.849 425.144C142.485 425.144 143.085 425.432 143.385 425.876L142.785 426.5C142.581 426.236 142.281 426.104 141.897 426.104C141.141 426.104 140.769 426.584 140.769 427.556V427.76H142.701V428.72H140.769V434H139.761V428.72ZM147.486 428.372L146.61 428.06C146.91 426.572 148.038 425.504 149.826 425.504C151.554 425.504 152.61 426.5 152.61 428.024C152.61 428.828 152.262 429.632 151.83 430.208C151.614 430.508 151.338 430.796 151.014 431.096C150.354 431.684 149.886 431.996 149.202 432.428L148.278 433.004H152.922V434H146.382V433.184L148.206 431.972C148.53 431.768 148.758 431.612 148.89 431.516C149.022 431.432 149.238 431.276 149.526 431.072C149.814 430.868 150.03 430.688 150.174 430.556C150.306 430.424 150.486 430.256 150.69 430.04C151.242 429.44 151.446 428.888 151.506 428.132C151.506 427.04 150.798 426.548 149.754 426.548C149.106 426.548 148.59 426.728 148.218 427.088C147.846 427.448 147.594 427.88 147.486 428.372ZM153.753 429.8C153.753 428.504 154.053 427.46 154.665 426.68C155.265 425.9 156.153 425.504 157.317 425.504C159.705 425.504 160.893 427.076 160.893 429.8C160.893 431.108 160.593 432.14 160.005 432.92C159.405 433.7 158.517 434.096 157.341 434.096C156.213 434.096 155.337 433.7 154.701 432.908C154.065 432.116 153.753 431.084 153.753 429.8ZM154.857 429.8C154.857 431.852 155.793 433.076 157.341 433.076C158.973 433.076 159.789 431.984 159.789 429.8C159.789 427.616 158.961 426.524 157.317 426.524C155.649 426.524 154.857 427.724 154.857 429.8ZM162.749 428.372L161.873 428.06C162.173 426.572 163.301 425.504 165.089 425.504C166.817 425.504 167.873 426.5 167.873 428.024C167.873 428.828 167.525 429.632 167.093 430.208C166.877 430.508 166.601 430.796 166.277 431.096C165.617 431.684 165.149 431.996 164.465 432.428L163.541 433.004H168.185V434H161.645V433.184L163.469 431.972C163.793 431.768 164.021 431.612 164.153 431.516C164.285 431.432 164.501 431.276 164.789 431.072C165.077 430.868 165.293 430.688 165.437 430.556C165.569 430.424 165.749 430.256 165.953 430.04C166.505 429.44 166.709 428.888 166.769 428.132C166.769 427.04 166.061 426.548 165.017 426.548C164.369 426.548 163.853 426.728 163.481 427.088C163.109 427.448 162.857 427.88 162.749 428.372ZM169.977 428.372L169.101 428.06C169.401 426.572 170.529 425.504 172.317 425.504C174.045 425.504 175.101 426.5 175.101 428.024C175.101 428.828 174.753 429.632 174.321 430.208C174.105 430.508 173.829 430.796 173.505 431.096C172.845 431.684 172.377 431.996 171.693 432.428L170.769 433.004H175.413V434H168.873V433.184L170.697 431.972C171.021 431.768 171.249 431.612 171.381 431.516C171.513 431.432 171.729 431.276 172.017 431.072C172.305 430.868 172.521 430.688 172.665 430.556C172.797 430.424 172.977 430.256 173.181 430.04C173.733 429.44 173.937 428.888 173.997 428.132C173.997 427.04 173.289 426.548 172.245 426.548C171.597 426.548 171.081 426.728 170.709 427.088C170.337 427.448 170.085 427.88 169.977 428.372Z" fill="#76848D"/>
<rect y="449" width="10" height="10" fill="#737AF9"/>
<path d="M25.044 458H18.888V449.6H24.936V450.62H19.98V453.236H24.6V454.232H19.98V456.98H25.044V458ZM30.0806 456.296C30.0806 455.456 28.6526 455.324 27.5126 455C26.7326 454.772 26.1086 454.256 26.1086 453.404C26.1086 452.3 27.1526 451.616 28.7006 451.616C29.7446 451.616 30.5846 452.06 31.0286 452.696L30.3206 453.356C29.9246 452.828 29.3246 452.564 28.5206 452.564C27.8006 452.564 27.1766 452.84 27.1766 453.356C27.1766 454.088 28.6046 454.22 29.7446 454.568C30.5126 454.808 31.1366 455.384 31.1366 456.284C31.1366 457.496 30.1646 458.108 28.6406 458.108C27.3566 458.108 26.2646 457.532 25.8206 456.632L26.6246 456.068C26.9966 456.728 27.8486 457.16 28.8086 457.16C29.6606 457.16 30.0806 456.872 30.0806 456.296ZM32.7335 452.72H31.4375V451.76H32.7335V450.164H33.7415V451.76H35.8895V452.72H33.7415V455.468C33.7415 456.68 34.0535 457.124 34.8215 457.124C35.1935 457.124 35.5775 456.98 35.9495 456.68L36.4055 457.424C36.0095 457.868 35.4215 458.084 34.6415 458.084C33.4055 458.084 32.7335 457.268 32.7335 455.732V452.72ZM38.1565 458H37.1485V451.76H38.1565V458ZM37.0165 449.732C37.0165 449.396 37.2925 449.144 37.6645 449.144C38.0005 449.144 38.2885 449.396 38.2885 449.732C38.2885 450.08 38.0005 450.356 37.6645 450.356C37.2925 450.356 37.0165 450.08 37.0165 449.732ZM48.675 453.86V458H47.667V454.172C47.667 453.104 47.235 452.576 46.371 452.576C45.591 452.576 45.015 452.96 44.655 453.716V458H43.647V453.848C43.647 453.092 43.155 452.576 42.351 452.576C41.547 452.576 40.911 453.176 40.635 453.836V458H39.627V451.76H40.635V452.6C41.007 452.024 41.727 451.628 42.543 451.628C43.431 451.628 44.043 451.952 44.379 452.6C44.871 451.952 45.555 451.628 46.431 451.628C47.823 451.628 48.675 452.324 48.675 453.86ZM50.4167 453.26L49.9007 452.504C50.4767 451.964 51.4727 451.616 52.3967 451.616C54.0647 451.616 54.9527 452.528 54.9527 454.148V458H53.9447V457.076C53.5487 457.652 52.7687 458.084 51.7607 458.084C50.4047 458.084 49.4927 457.328 49.4927 456.176C49.4927 454.868 50.6087 454.244 52.4807 454.244C53.0687 454.244 53.5487 454.304 53.9447 454.424C53.9447 453.212 53.5127 452.564 52.2767 452.564C51.6527 452.564 51.0287 452.792 50.4167 453.26ZM52.0007 457.172C52.4687 457.172 52.8887 457.04 53.2367 456.788C53.5847 456.536 53.8127 456.248 53.9447 455.948V455.312C53.5967 455.192 53.1527 455.132 52.6127 455.132C51.2447 455.132 50.5607 455.468 50.5607 456.14C50.5607 456.776 51.1367 457.172 52.0007 457.172ZM56.8628 452.72H55.5668V451.76H56.8628V450.164H57.8708V451.76H60.0188V452.72H57.8708V455.468C57.8708 456.68 58.1828 457.124 58.9508 457.124C59.3228 457.124 59.7068 456.98 60.0788 456.68L60.5348 457.424C60.1388 457.868 59.5508 458.084 58.7708 458.084C57.5348 458.084 56.8628 457.268 56.8628 455.732V452.72ZM65.7941 456.212L66.4421 456.812C65.8661 457.676 65.0381 458.108 63.9461 458.108C62.9501 458.108 62.1461 457.808 61.5341 457.22C60.9221 456.632 60.6221 455.852 60.6221 454.868C60.6221 453.92 60.8981 453.14 61.4621 452.528C62.0141 451.916 62.7941 451.616 63.8021 451.616C64.6301 451.616 65.3261 451.88 65.8661 452.396C66.4061 452.912 66.6821 453.596 66.6821 454.448C66.6821 454.724 66.6581 454.976 66.6221 455.204H61.7021C61.7621 456.44 62.6741 457.16 63.9821 457.16C64.7141 457.16 65.4101 456.776 65.7941 456.212ZM63.7301 452.54C62.5901 452.54 61.8461 453.236 61.6901 454.292H65.6141C65.5541 453.188 64.8461 452.54 63.7301 452.54ZM71.6398 453.26L71.1238 452.504C71.6998 451.964 72.6958 451.616 73.6198 451.616C75.2878 451.616 76.1758 452.528 76.1758 454.148V458H75.1678V457.076C74.7718 457.652 73.9918 458.084 72.9838 458.084C71.6278 458.084 70.7158 457.328 70.7158 456.176C70.7158 454.868 71.8318 454.244 73.7038 454.244C74.2918 454.244 74.7718 454.304 75.1678 454.424C75.1678 453.212 74.7358 452.564 73.4998 452.564C72.8758 452.564 72.2518 452.792 71.6398 453.26ZM73.2238 457.172C73.6918 457.172 74.1118 457.04 74.4598 456.788C74.8078 456.536 75.0358 456.248 75.1678 455.948V455.312C74.8198 455.192 74.3758 455.132 73.8358 455.132C72.4678 455.132 71.7838 455.468 71.7838 456.14C71.7838 456.776 72.3598 457.172 73.2238 457.172ZM78.086 452.72H76.79V451.76H78.086V450.164H79.094V451.76H81.242V452.72H79.094V455.468C79.094 456.68 79.406 457.124 80.174 457.124C80.546 457.124 80.93 456.98 81.302 456.68L81.758 457.424C81.362 457.868 80.774 458.084 79.994 458.084C78.758 458.084 78.086 457.268 78.086 455.732V452.72ZM86.4827 452.72H85.1867V451.76H86.4827V450.164H87.4907V451.76H89.6387V452.72H87.4907V455.468C87.4907 456.68 87.8027 457.124 88.5707 457.124C88.9427 457.124 89.3267 456.98 89.6987 456.68L90.1547 457.424C89.7587 457.868 89.1707 458.084 88.3907 458.084C87.1547 458.084 86.4827 457.268 86.4827 455.732V452.72ZM91.7738 458H90.7658V449.24H91.7738V452.576C92.2538 451.94 92.9258 451.628 93.8018 451.628C95.5538 451.628 96.4298 452.576 96.4298 454.46V458H95.4218V454.556C95.4218 453.212 94.8458 452.576 93.6098 452.576C92.7818 452.576 92.1098 453.104 91.7738 453.872V458ZM102.524 456.212L103.172 456.812C102.596 457.676 101.768 458.108 100.676 458.108C99.6804 458.108 98.8764 457.808 98.2644 457.22C97.6524 456.632 97.3524 455.852 97.3524 454.868C97.3524 453.92 97.6284 453.14 98.1924 452.528C98.7444 451.916 99.5244 451.616 100.532 451.616C101.36 451.616 102.056 451.88 102.596 452.396C103.136 452.912 103.412 453.596 103.412 454.448C103.412 454.724 103.388 454.976 103.352 455.204H98.4324C98.4924 456.44 99.4044 457.16 100.712 457.16C101.444 457.16 102.14 456.776 102.524 456.212ZM100.46 452.54C99.3204 452.54 98.5764 453.236 98.4204 454.292H102.344C102.284 453.188 101.576 452.54 100.46 452.54ZM112.714 456.212L113.362 456.812C112.786 457.676 111.958 458.108 110.866 458.108C109.87 458.108 109.066 457.808 108.454 457.22C107.842 456.632 107.542 455.852 107.542 454.868C107.542 453.92 107.818 453.14 108.382 452.528C108.934 451.916 109.714 451.616 110.722 451.616C111.55 451.616 112.246 451.88 112.786 452.396C113.326 452.912 113.602 453.596 113.602 454.448C113.602 454.724 113.578 454.976 113.542 455.204H108.622C108.682 456.44 109.594 457.16 110.902 457.16C111.634 457.16 112.33 456.776 112.714 456.212ZM110.65 452.54C109.51 452.54 108.766 453.236 108.61 454.292H112.534C112.474 453.188 111.766 452.54 110.65 452.54ZM115.61 458H114.602V451.76H115.61V452.576C116.006 451.964 116.822 451.628 117.746 451.628C119.438 451.628 120.278 452.564 120.278 454.448V458H119.27V454.568C119.27 453.188 118.682 452.576 117.446 452.576C116.678 452.576 115.946 453.08 115.61 453.836V458ZM127.225 458H126.217V457.256C125.941 457.688 125.221 458.108 124.273 458.108C123.349 458.108 122.617 457.82 122.053 457.244C121.489 456.668 121.201 455.888 121.201 454.892C121.201 453.932 121.501 453.14 122.113 452.528C122.725 451.916 123.469 451.616 124.357 451.616C125.185 451.616 125.809 451.82 126.217 452.228V449.24H127.225V458ZM124.417 457.148C125.269 457.148 125.929 456.548 126.217 455.96V453.44C125.821 452.852 125.233 452.564 124.477 452.564C123.865 452.564 123.337 452.78 122.917 453.2C122.485 453.62 122.269 454.184 122.269 454.868C122.269 456.26 123.157 457.148 124.417 457.148ZM131.695 454.868C131.695 453.92 132.007 453.14 132.619 452.528C133.231 451.916 134.023 451.616 134.995 451.616C135.979 451.616 136.783 451.916 137.395 452.528C138.007 453.14 138.319 453.92 138.319 454.868C138.319 455.816 138.007 456.584 137.395 457.196C136.771 457.808 135.967 458.108 134.995 458.108C134.023 458.108 133.231 457.808 132.619 457.196C132.007 456.584 131.695 455.816 131.695 454.868ZM132.763 454.868C132.763 455.528 132.967 456.08 133.387 456.512C133.807 456.944 134.335 457.16 134.995 457.16C135.655 457.16 136.207 456.944 136.627 456.524C137.047 456.104 137.251 455.552 137.251 454.868C137.251 454.184 137.035 453.632 136.615 453.2C136.183 452.78 135.643 452.564 134.995 452.564C134.347 452.564 133.819 452.78 133.399 453.2C132.979 453.62 132.763 454.184 132.763 454.868ZM139.761 452.72H138.609V451.76H139.761V451.472C139.761 450.668 139.965 450.068 140.373 449.696C140.769 449.324 141.261 449.144 141.849 449.144C142.485 449.144 143.085 449.432 143.385 449.876L142.785 450.5C142.581 450.236 142.281 450.104 141.897 450.104C141.141 450.104 140.769 450.584 140.769 451.556V451.76H142.701V452.72H140.769V458H139.761V452.72ZM147.486 452.372L146.61 452.06C146.91 450.572 148.038 449.504 149.826 449.504C151.554 449.504 152.61 450.5 152.61 452.024C152.61 452.828 152.262 453.632 151.83 454.208C151.614 454.508 151.338 454.796 151.014 455.096C150.354 455.684 149.886 455.996 149.202 456.428L148.278 457.004H152.922V458H146.382V457.184L148.206 455.972C148.53 455.768 148.758 455.612 148.89 455.516C149.022 455.432 149.238 455.276 149.526 455.072C149.814 454.868 150.03 454.688 150.174 454.556C150.306 454.424 150.486 454.256 150.69 454.04C151.242 453.44 151.446 452.888 151.506 452.132C151.506 451.04 150.798 450.548 149.754 450.548C149.106 450.548 148.59 450.728 148.218 451.088C147.846 451.448 147.594 451.88 147.486 452.372ZM153.753 453.8C153.753 452.504 154.053 451.46 154.665 450.68C155.265 449.9 156.153 449.504 157.317 449.504C159.705 449.504 160.893 451.076 160.893 453.8C160.893 455.108 160.593 456.14 160.005 456.92C159.405 457.7 158.517 458.096 157.341 458.096C156.213 458.096 155.337 457.7 154.701 456.908C154.065 456.116 153.753 455.084 153.753 453.8ZM154.857 453.8C154.857 455.852 155.793 457.076 157.341 457.076C158.973 457.076 159.789 455.984 159.789 453.8C159.789 451.616 158.961 450.524 157.317 450.524C155.649 450.524 154.857 451.724 154.857 453.8ZM162.749 452.372L161.873 452.06C162.173 450.572 163.301 449.504 165.089 449.504C166.817 449.504 167.873 450.5 167.873 452.024C167.873 452.828 167.525 453.632 167.093 454.208C166.877 454.508 166.601 454.796 166.277 455.096C165.617 455.684 165.149 455.996 164.465 456.428L163.541 457.004H168.185V458H161.645V457.184L163.469 455.972C163.793 455.768 164.021 455.612 164.153 455.516C164.285 455.432 164.501 455.276 164.789 455.072C165.077 454.868 165.293 454.688 165.437 454.556C165.569 454.424 165.749 454.256 165.953 454.04C166.505 453.44 166.709 452.888 166.769 452.132C166.769 451.04 166.061 450.548 165.017 450.548C164.369 450.548 163.853 450.728 163.481 451.088C163.109 451.448 162.857 451.88 162.749 452.372ZM169.845 452.048L168.945 451.64C169.389 450.344 170.553 449.492 172.293 449.492C173.121 449.492 173.805 449.684 174.333 450.068C174.861 450.452 175.125 450.968 175.125 451.604C175.125 452.576 174.609 453.296 173.649 453.572C174.573 453.632 175.317 454.328 175.317 455.576C175.317 456.368 175.029 456.992 174.453 457.436C173.877 457.88 173.145 458.108 172.245 458.108C170.409 458.108 169.137 457.232 168.717 455.852L169.689 455.432C170.205 456.524 171.081 457.076 172.317 457.076C173.481 457.076 174.213 456.536 174.213 455.588C174.213 454.664 173.493 454.196 172.053 454.196H171.117V453.2H171.861C173.169 453.2 174.021 452.612 174.021 451.808C174.021 450.98 173.337 450.512 172.245 450.512C170.961 450.512 170.181 451.172 169.845 452.048Z" fill="#76848D"/>
<rect y="473" width="10" height="10" fill="#CDD3FB"/>
<path d="M19.992 482H18.888V473.6H24.924V474.62H19.992V477.5H24.588V478.52H19.992V482ZM25.1078 478.868C25.1078 477.92 25.4198 477.14 26.0318 476.528C26.6438 475.916 27.4358 475.616 28.4078 475.616C29.3918 475.616 30.1958 475.916 30.8078 476.528C31.4198 477.14 31.7318 477.92 31.7318 478.868C31.7318 479.816 31.4198 480.584 30.8078 481.196C30.1838 481.808 29.3798 482.108 28.4078 482.108C27.4358 482.108 26.6438 481.808 26.0318 481.196C25.4198 480.584 25.1078 479.816 25.1078 478.868ZM26.1758 478.868C26.1758 479.528 26.3798 480.08 26.7998 480.512C27.2198 480.944 27.7478 481.16 28.4078 481.16C29.0678 481.16 29.6198 480.944 30.0398 480.524C30.4598 480.104 30.6638 479.552 30.6638 478.868C30.6638 478.184 30.4478 477.632 30.0278 477.2C29.5958 476.78 29.0558 476.564 28.4078 476.564C27.7598 476.564 27.2318 476.78 26.8118 477.2C26.3918 477.62 26.1758 478.184 26.1758 478.868ZM33.7383 482H32.7303V475.76H33.7383V476.24C33.9423 475.82 34.4823 475.628 35.0223 475.628C35.5743 475.628 35.9943 475.82 36.2943 476.192L35.6583 476.888C35.5023 476.684 35.2623 476.576 34.9143 476.576C34.3743 476.576 33.8823 477.02 33.7383 477.656V482ZM41.3132 480.212L41.9612 480.812C41.3852 481.676 40.5572 482.108 39.4652 482.108C38.4692 482.108 37.6652 481.808 37.0532 481.22C36.4412 480.632 36.1412 479.852 36.1412 478.868C36.1412 477.92 36.4172 477.14 36.9812 476.528C37.5332 475.916 38.3132 475.616 39.3212 475.616C40.1492 475.616 40.8452 475.88 41.3852 476.396C41.9252 476.912 42.2012 477.596 42.2012 478.448C42.2012 478.724 42.1772 478.976 42.1412 479.204H37.2212C37.2812 480.44 38.1932 481.16 39.5012 481.16C40.2332 481.16 40.9292 480.776 41.3132 480.212ZM39.2492 476.54C38.1092 476.54 37.3652 477.236 37.2092 478.292H41.1332C41.0732 477.188 40.3652 476.54 39.2492 476.54ZM47.92 480.2L48.64 480.716C48.172 481.592 47.116 482.108 46.072 482.108C45.076 482.108 44.272 481.808 43.66 481.22C43.048 480.632 42.736 479.852 42.736 478.868C42.736 477.932 43.036 477.152 43.648 476.54C44.26 475.928 45.04 475.616 46.012 475.616C47.128 475.616 48.124 476.12 48.544 476.888L47.764 477.416C47.344 476.852 46.768 476.564 46.036 476.564C45.388 476.564 44.86 476.78 44.44 477.212C44.02 477.644 43.804 478.196 43.804 478.868C43.804 479.552 44.02 480.104 44.464 480.524C44.896 480.944 45.46 481.16 46.168 481.16C46.912 481.16 47.5 480.836 47.92 480.2ZM49.8307 477.26L49.3147 476.504C49.8907 475.964 50.8867 475.616 51.8107 475.616C53.4787 475.616 54.3668 476.528 54.3668 478.148V482H53.3587V481.076C52.9627 481.652 52.1827 482.084 51.1747 482.084C49.8187 482.084 48.9067 481.328 48.9067 480.176C48.9067 478.868 50.0227 478.244 51.8947 478.244C52.4827 478.244 52.9627 478.304 53.3587 478.424C53.3587 477.212 52.9267 476.564 51.6907 476.564C51.0667 476.564 50.4427 476.792 49.8307 477.26ZM51.4147 481.172C51.8827 481.172 52.3027 481.04 52.6507 480.788C52.9987 480.536 53.2267 480.248 53.3587 479.948V479.312C53.0107 479.192 52.5667 479.132 52.0267 479.132C50.6587 479.132 49.9747 479.468 49.9747 480.14C49.9747 480.776 50.5507 481.172 51.4147 481.172ZM59.4689 480.296C59.4689 479.456 58.0409 479.324 56.9009 479C56.1209 478.772 55.4969 478.256 55.4969 477.404C55.4969 476.3 56.5409 475.616 58.0889 475.616C59.1329 475.616 59.9729 476.06 60.4169 476.696L59.7089 477.356C59.3129 476.828 58.7129 476.564 57.9089 476.564C57.1889 476.564 56.5649 476.84 56.5649 477.356C56.5649 478.088 57.9929 478.22 59.1329 478.568C59.9009 478.808 60.5249 479.384 60.5249 480.284C60.5249 481.496 59.5529 482.108 58.0289 482.108C56.7449 482.108 55.6529 481.532 55.2089 480.632L56.0129 480.068C56.3849 480.728 57.2369 481.16 58.1969 481.16C59.0489 481.16 59.4689 480.872 59.4689 480.296ZM62.1217 476.72H60.8257V475.76H62.1217V474.164H63.1298V475.76H65.2777V476.72H63.1298V479.468C63.1298 480.68 63.4417 481.124 64.2098 481.124C64.5817 481.124 64.9657 480.98 65.3378 480.68L65.7938 481.424C65.3978 481.868 64.8098 482.084 64.0297 482.084C62.7937 482.084 62.1217 481.268 62.1217 479.732V476.72ZM70.3265 476.72H69.1745V475.76H70.3265V475.472C70.3265 474.668 70.5305 474.068 70.9385 473.696C71.3345 473.324 71.8265 473.144 72.4145 473.144C73.0505 473.144 73.6505 473.432 73.9505 473.876L73.3505 474.5C73.1465 474.236 72.8465 474.104 72.4625 474.104C71.7065 474.104 71.3345 474.584 71.3345 475.556V475.76H73.2665V476.72H71.3345V482H70.3265V476.72ZM73.3051 478.868C73.3051 477.92 73.6171 477.14 74.2291 476.528C74.8411 475.916 75.6331 475.616 76.6051 475.616C77.5891 475.616 78.3931 475.916 79.0051 476.528C79.6171 477.14 79.9291 477.92 79.9291 478.868C79.9291 479.816 79.6171 480.584 79.0051 481.196C78.3811 481.808 77.5771 482.108 76.6051 482.108C75.6331 482.108 74.8411 481.808 74.2291 481.196C73.6171 480.584 73.3051 479.816 73.3051 478.868ZM74.3731 478.868C74.3731 479.528 74.5771 480.08 74.9971 480.512C75.4171 480.944 75.9451 481.16 76.6051 481.16C77.2651 481.16 77.8171 480.944 78.2371 480.524C78.6571 480.104 78.8611 479.552 78.8611 478.868C78.8611 478.184 78.6451 477.632 78.2251 477.2C77.7931 476.78 77.2531 476.564 76.6051 476.564C75.9571 476.564 75.4291 476.78 75.0091 477.2C74.5891 477.62 74.3731 478.184 74.3731 478.868ZM81.9356 482H80.9276V475.76H81.9356V476.24C82.1396 475.82 82.6796 475.628 83.2196 475.628C83.7716 475.628 84.1916 475.82 84.4916 476.192L83.8556 476.888C83.6996 476.684 83.4596 476.576 83.1116 476.576C82.5716 476.576 82.0796 477.02 81.9356 477.656V482ZM89.2715 476.372L88.3955 476.06C88.6955 474.572 89.8235 473.504 91.6115 473.504C93.3395 473.504 94.3955 474.5 94.3955 476.024C94.3955 476.828 94.0475 477.632 93.6155 478.208C93.3995 478.508 93.1235 478.796 92.7995 479.096C92.1395 479.684 91.6715 479.996 90.9875 480.428L90.0635 481.004H94.7075V482H88.1675V481.184L89.9915 479.972C90.3155 479.768 90.5435 479.612 90.6755 479.516C90.8075 479.432 91.0235 479.276 91.3115 479.072C91.5995 478.868 91.8155 478.688 91.9595 478.556C92.0915 478.424 92.2715 478.256 92.4755 478.04C93.0275 477.44 93.2315 476.888 93.2915 476.132C93.2915 475.04 92.5835 474.548 91.5395 474.548C90.8915 474.548 90.3755 474.728 90.0035 475.088C89.6315 475.448 89.3795 475.88 89.2715 476.372ZM95.5391 477.8C95.5391 476.504 95.8391 475.46 96.4511 474.68C97.0511 473.9 97.9391 473.504 99.1031 473.504C101.491 473.504 102.679 475.076 102.679 477.8C102.679 479.108 102.379 480.14 101.791 480.92C101.191 481.7 100.303 482.096 99.1271 482.096C97.9991 482.096 97.1231 481.7 96.4871 480.908C95.8511 480.116 95.5391 479.084 95.5391 477.8ZM96.6431 477.8C96.6431 479.852 97.5791 481.076 99.1271 481.076C100.759 481.076 101.575 479.984 101.575 477.8C101.575 475.616 100.747 474.524 99.1031 474.524C97.4351 474.524 96.6431 475.724 96.6431 477.8ZM104.535 476.372L103.659 476.06C103.959 474.572 105.087 473.504 106.875 473.504C108.603 473.504 109.659 474.5 109.659 476.024C109.659 476.828 109.311 477.632 108.879 478.208C108.663 478.508 108.387 478.796 108.063 479.096C107.403 479.684 106.935 479.996 106.251 480.428L105.327 481.004H109.971V482H103.431V481.184L105.255 479.972C105.579 479.768 105.807 479.612 105.939 479.516C106.071 479.432 106.287 479.276 106.575 479.072C106.863 478.868 107.079 478.688 107.223 478.556C107.355 478.424 107.535 478.256 107.739 478.04C108.291 477.44 108.495 476.888 108.555 476.132C108.555 475.04 107.847 474.548 106.803 474.548C106.155 474.548 105.639 474.728 105.267 475.088C104.895 475.448 104.643 475.88 104.535 476.372ZM116.599 482H115.555V480.284H110.419V479.588L115.675 473.6H116.599V479.312H118.159V480.284H116.599V482ZM115.555 475.28L111.859 479.312H115.555V475.28Z" fill="#76848D"/>
<defs>
<linearGradient id="paint0_linear_2355_51828" x1="80" y1="57" x2="80" y2="170" gradientUnits="userSpaceOnUse">
<stop stop-color="#6D73F9"/>
<stop offset="1" stop-color="#9BB8F1"/>
</linearGradient>
<linearGradient id="paint1_linear_2355_51828" x1="80" y1="57" x2="80" y2="170" gradientUnits="userSpaceOnUse">
<stop stop-color="white" stop-opacity="0"/>
<stop offset="0.739583" stop-color="white"/>
</linearGradient>
<linearGradient id="paint2_linear_2355_51828" x1="68" y1="-163.35" x2="68" y2="170" gradientUnits="userSpaceOnUse">
<stop stop-color="white" stop-opacity="0.05"/>
<stop offset="0.75" stop-color="white" stop-opacity="0.8"/>
</linearGradient>
<linearGradient id="paint3_linear_2355_51828" x1="128" y1="66" x2="128" y2="170" gradientUnits="userSpaceOnUse">
<stop stop-color="#6D73F9"/>
<stop offset="1" stop-color="#9BB8F1"/>
</linearGradient>
<linearGradient id="paint4_linear_2355_51828" x1="128" y1="66" x2="128" y2="170" gradientUnits="userSpaceOnUse">
<stop stop-color="white" stop-opacity="0"/>
<stop offset="0.739583" stop-color="white"/>
</linearGradient>
<linearGradient id="paint5_linear_2355_51828" x1="116" y1="-136.8" x2="116" y2="170" gradientUnits="userSpaceOnUse">
<stop stop-color="white" stop-opacity="0.05"/>
<stop offset="0.75" stop-color="white" stop-opacity="0.8"/>
</linearGradient>
<linearGradient id="paint6_linear_2355_51828" x1="32" y1="40" x2="32" y2="170" gradientUnits="userSpaceOnUse">
<stop stop-color="#CDE3E9"/>
<stop offset="1" stop-color="#D3E8ED"/>
</linearGradient>
<linearGradient id="paint7_linear_2355_51828" x1="32" y1="40" x2="32" y2="170" gradientUnits="userSpaceOnUse">
<stop stop-color="white" stop-opacity="0"/>
<stop offset="0.739583" stop-color="white"/>
</linearGradient>
<linearGradient id="paint8_linear_2355_51828" x1="20" y1="-213.5" x2="20" y2="170" gradientUnits="userSpaceOnUse">
<stop stop-color="white" stop-opacity="0.05"/>
<stop offset="0.75" stop-color="white" stop-opacity="0.8"/>
</linearGradient>
<linearGradient id="paint9_linear_2355_51828" x1="255" y1="37" x2="255" y2="170" gradientUnits="userSpaceOnUse">
<stop stop-color="#6D73F9"/>
<stop offset="1" stop-color="#9BB8F1"/>
</linearGradient>
<linearGradient id="paint10_linear_2355_51828" x1="255" y1="37" x2="255" y2="170" gradientUnits="userSpaceOnUse">
<stop stop-color="white" stop-opacity="0"/>
<stop offset="0.739583" stop-color="white"/>
</linearGradient>
<linearGradient id="paint11_linear_2355_51828" x1="243" y1="-222.35" x2="243" y2="170" gradientUnits="userSpaceOnUse">
<stop stop-color="white" stop-opacity="0.05"/>
<stop offset="0.75" stop-color="white" stop-opacity="0.8"/>
</linearGradient>
<linearGradient id="paint12_linear_2355_51828" x1="303" y1="37" x2="303" y2="170" gradientUnits="userSpaceOnUse">
<stop stop-color="#6D73F9"/>
<stop offset="1" stop-color="#9BB8F1"/>
</linearGradient>
<linearGradient id="paint13_linear_2355_51828" x1="303" y1="37" x2="303" y2="170" gradientUnits="userSpaceOnUse">
<stop stop-color="white" stop-opacity="0"/>
<stop offset="0.739583" stop-color="white"/>
</linearGradient>
<linearGradient id="paint14_linear_2355_51828" x1="291" y1="-222.35" x2="291" y2="170" gradientUnits="userSpaceOnUse">
<stop stop-color="white" stop-opacity="0.05"/>
<stop offset="0.75" stop-color="white" stop-opacity="0.8"/>
</linearGradient>
<linearGradient id="paint15_linear_2355_51828" x1="207" y1="20" x2="207" y2="170" gradientUnits="userSpaceOnUse">
<stop stop-color="#CDE3E9"/>
<stop offset="1" stop-color="#D3E8ED"/>
</linearGradient>
<linearGradient id="paint16_linear_2355_51828" x1="207" y1="20" x2="207" y2="170" gradientUnits="userSpaceOnUse">
<stop stop-color="white" stop-opacity="0"/>
<stop offset="0.739583" stop-color="white"/>
</linearGradient>
<linearGradient id="paint17_linear_2355_51828" x1="195" y1="-272.5" x2="195" y2="170" gradientUnits="userSpaceOnUse">
<stop stop-color="white" stop-opacity="0.05"/>
<stop offset="0.75" stop-color="white" stop-opacity="0.8"/>
</linearGradient>
<linearGradient id="paint18_linear_2355_51828" x1="80" y1="264" x2="80" y2="380" gradientUnits="userSpaceOnUse">
<stop stop-color="#6D73F9"/>
<stop offset="1" stop-color="#9BB8F1"/>
</linearGradient>
<linearGradient id="paint19_linear_2355_51828" x1="80" y1="264" x2="80" y2="380" gradientUnits="userSpaceOnUse">
<stop stop-color="white" stop-opacity="0"/>
<stop offset="0.739583" stop-color="white"/>
</linearGradient>
<linearGradient id="paint20_linear_2355_51828" x1="68" y1="37.8" x2="68" y2="380" gradientUnits="userSpaceOnUse">
<stop stop-color="white" stop-opacity="0.05"/>
<stop offset="0.75" stop-color="white" stop-opacity="0.8"/>
</linearGradient>
<linearGradient id="paint21_linear_2355_51828" x1="128" y1="277" x2="128" y2="380" gradientUnits="userSpaceOnUse">
<stop stop-color="#6D73F9"/>
<stop offset="1" stop-color="#9BB8F1"/>
</linearGradient>
<linearGradient id="paint22_linear_2355_51828" x1="128" y1="277" x2="128" y2="380" gradientUnits="userSpaceOnUse">
<stop stop-color="white" stop-opacity="0"/>
<stop offset="0.739583" stop-color="white"/>
</linearGradient>
<linearGradient id="paint23_linear_2355_51828" x1="116" y1="76.15" x2="116" y2="380" gradientUnits="userSpaceOnUse">
<stop stop-color="white" stop-opacity="0.05"/>
<stop offset="0.75" stop-color="white" stop-opacity="0.8"/>
</linearGradient>
<linearGradient id="paint24_linear_2355_51828" x1="32" y1="247" x2="32" y2="380" gradientUnits="userSpaceOnUse">
<stop stop-color="#CDE3E9"/>
<stop offset="1" stop-color="#D3E8ED"/>
</linearGradient>
<linearGradient id="paint25_linear_2355_51828" x1="32" y1="247" x2="32" y2="380" gradientUnits="userSpaceOnUse">
<stop stop-color="white" stop-opacity="0"/>
<stop offset="0.739583" stop-color="white"/>
</linearGradient>
<linearGradient id="paint26_linear_2355_51828" x1="20" y1="-12.35" x2="20" y2="380" gradientUnits="userSpaceOnUse">
<stop stop-color="white" stop-opacity="0.05"/>
<stop offset="0.75" stop-color="white" stop-opacity="0.8"/>
</linearGradient>
<linearGradient id="paint27_linear_2355_51828" x1="255" y1="255" x2="255" y2="380" gradientUnits="userSpaceOnUse">
<stop stop-color="#6D73F9"/>
<stop offset="1" stop-color="#9BB8F1"/>
</linearGradient>
<linearGradient id="paint28_linear_2355_51828" x1="255" y1="255" x2="255" y2="380" gradientUnits="userSpaceOnUse">
<stop stop-color="white" stop-opacity="0"/>
<stop offset="0.739583" stop-color="white"/>
</linearGradient>
<linearGradient id="paint29_linear_2355_51828" x1="243" y1="11.25" x2="243" y2="380" gradientUnits="userSpaceOnUse">
<stop stop-color="white" stop-opacity="0.05"/>
<stop offset="0.75" stop-color="white" stop-opacity="0.8"/>
</linearGradient>
<linearGradient id="paint30_linear_2355_51828" x1="303" y1="255" x2="303" y2="380" gradientUnits="userSpaceOnUse">
<stop stop-color="#6D73F9"/>
<stop offset="1" stop-color="#9BB8F1"/>
</linearGradient>
<linearGradient id="paint31_linear_2355_51828" x1="303" y1="255" x2="303" y2="380" gradientUnits="userSpaceOnUse">
<stop stop-color="white" stop-opacity="0"/>
<stop offset="0.739583" stop-color="white"/>
</linearGradient>
<linearGradient id="paint32_linear_2355_51828" x1="291" y1="11.25" x2="291" y2="380" gradientUnits="userSpaceOnUse">
<stop stop-color="white" stop-opacity="0.05"/>
<stop offset="0.75" stop-color="white" stop-opacity="0.8"/>
</linearGradient>
<linearGradient id="paint33_linear_2355_51828" x1="207" y1="238" x2="207" y2="380" gradientUnits="userSpaceOnUse">
<stop stop-color="#CDE3E9"/>
<stop offset="1" stop-color="#D3E8ED"/>
</linearGradient>
<linearGradient id="paint34_linear_2355_51828" x1="207" y1="238" x2="207" y2="380" gradientUnits="userSpaceOnUse">
<stop stop-color="white" stop-opacity="0"/>
<stop offset="0.739583" stop-color="white"/>
</linearGradient>
<linearGradient id="paint35_linear_2355_51828" x1="195" y1="-38.9" x2="195" y2="380" gradientUnits="userSpaceOnUse">
<stop stop-color="white" stop-opacity="0.05"/>
<stop offset="0.75" stop-color="white" stop-opacity="0.8"/>
</linearGradient>
<linearGradient id="paint36_linear_2355_51828" x1="0.476191" y1="435" x2="10" y2="435" gradientUnits="userSpaceOnUse">
<stop stop-color="#CEE8EF"/>
<stop offset="1" stop-color="#CEE8EF"/>
</linearGradient>
</defs>
</svg>
