<svg width="1120" height="225" viewBox="0 0 1120 225" fill="none" xmlns="http://www.w3.org/2000/svg">
<rect y="131" width="10" height="10" fill="url(#paint0_linear_6001_19089)"/>
<path d="M25.044 140H18.888V131.6H24.936V132.62H19.98V135.236H24.6V136.232H19.98V138.98H25.044V140ZM30.0806 138.296C30.0806 137.456 28.6526 137.324 27.5126 137C26.7326 136.772 26.1086 136.256 26.1086 135.404C26.1086 134.3 27.1526 133.616 28.7006 133.616C29.7446 133.616 30.5846 134.06 31.0286 134.696L30.3206 135.356C29.9246 134.828 29.3246 134.564 28.5206 134.564C27.8006 134.564 27.1766 134.84 27.1766 135.356C27.1766 136.088 28.6046 136.22 29.7446 136.568C30.5126 136.808 31.1366 137.384 31.1366 138.284C31.1366 139.496 30.1646 140.108 28.6406 140.108C27.3566 140.108 26.2646 139.532 25.8206 138.632L26.6246 138.068C26.9966 138.728 27.8486 139.16 28.8086 139.16C29.6606 139.16 30.0806 138.872 30.0806 138.296ZM32.7335 134.72H31.4375V133.76H32.7335V132.164H33.7415V133.76H35.8895V134.72H33.7415V137.468C33.7415 138.68 34.0535 139.124 34.8215 139.124C35.1935 139.124 35.5775 138.98 35.9495 138.68L36.4055 139.424C36.0095 139.868 35.4215 140.084 34.6415 140.084C33.4055 140.084 32.7335 139.268 32.7335 137.732V134.72ZM38.1565 140H37.1485V133.76H38.1565V140ZM37.0165 131.732C37.0165 131.396 37.2925 131.144 37.6645 131.144C38.0005 131.144 38.2885 131.396 38.2885 131.732C38.2885 132.08 38.0005 132.356 37.6645 132.356C37.2925 132.356 37.0165 132.08 37.0165 131.732ZM48.675 135.86V140H47.667V136.172C47.667 135.104 47.235 134.576 46.371 134.576C45.591 134.576 45.015 134.96 44.655 135.716V140H43.647V135.848C43.647 135.092 43.155 134.576 42.351 134.576C41.547 134.576 40.911 135.176 40.635 135.836V140H39.627V133.76H40.635V134.6C41.007 134.024 41.727 133.628 42.543 133.628C43.431 133.628 44.043 133.952 44.379 134.6C44.871 133.952 45.555 133.628 46.431 133.628C47.823 133.628 48.675 134.324 48.675 135.86ZM50.4167 135.26L49.9007 134.504C50.4767 133.964 51.4727 133.616 52.3967 133.616C54.0647 133.616 54.9527 134.528 54.9527 136.148V140H53.9447V139.076C53.5487 139.652 52.7687 140.084 51.7607 140.084C50.4047 140.084 49.4927 139.328 49.4927 138.176C49.4927 136.868 50.6087 136.244 52.4807 136.244C53.0687 136.244 53.5487 136.304 53.9447 136.424C53.9447 135.212 53.5127 134.564 52.2767 134.564C51.6527 134.564 51.0287 134.792 50.4167 135.26ZM52.0007 139.172C52.4687 139.172 52.8887 139.04 53.2367 138.788C53.5847 138.536 53.8127 138.248 53.9447 137.948V137.312C53.5967 137.192 53.1527 137.132 52.6127 137.132C51.2447 137.132 50.5607 137.468 50.5607 138.14C50.5607 138.776 51.1367 139.172 52.0007 139.172ZM56.8628 134.72H55.5668V133.76H56.8628V132.164H57.8708V133.76H60.0188V134.72H57.8708V137.468C57.8708 138.68 58.1828 139.124 58.9508 139.124C59.3228 139.124 59.7068 138.98 60.0788 138.68L60.5348 139.424C60.1388 139.868 59.5508 140.084 58.7708 140.084C57.5348 140.084 56.8628 139.268 56.8628 137.732V134.72ZM65.7941 138.212L66.4421 138.812C65.8661 139.676 65.0381 140.108 63.9461 140.108C62.9501 140.108 62.1461 139.808 61.5341 139.22C60.9221 138.632 60.6221 137.852 60.6221 136.868C60.6221 135.92 60.8981 135.14 61.4621 134.528C62.0141 133.916 62.7941 133.616 63.8021 133.616C64.6301 133.616 65.3261 133.88 65.8661 134.396C66.4061 134.912 66.6821 135.596 66.6821 136.448C66.6821 136.724 66.6581 136.976 66.6221 137.204H61.7021C61.7621 138.44 62.6741 139.16 63.9821 139.16C64.7141 139.16 65.4101 138.776 65.7941 138.212ZM63.7301 134.54C62.5901 134.54 61.8461 135.236 61.6901 136.292H65.6141C65.5541 135.188 64.8461 134.54 63.7301 134.54ZM71.6398 135.26L71.1238 134.504C71.6998 133.964 72.6958 133.616 73.6198 133.616C75.2878 133.616 76.1758 134.528 76.1758 136.148V140H75.1678V139.076C74.7718 139.652 73.9918 140.084 72.9838 140.084C71.6278 140.084 70.7158 139.328 70.7158 138.176C70.7158 136.868 71.8318 136.244 73.7038 136.244C74.2918 136.244 74.7718 136.304 75.1678 136.424C75.1678 135.212 74.7358 134.564 73.4998 134.564C72.8758 134.564 72.2518 134.792 71.6398 135.26ZM73.2238 139.172C73.6918 139.172 74.1118 139.04 74.4598 138.788C74.8078 138.536 75.0358 138.248 75.1678 137.948V137.312C74.8198 137.192 74.3758 137.132 73.8358 137.132C72.4678 137.132 71.7838 137.468 71.7838 138.14C71.7838 138.776 72.3598 139.172 73.2238 139.172ZM78.086 134.72H76.79V133.76H78.086V132.164H79.094V133.76H81.242V134.72H79.094V137.468C79.094 138.68 79.406 139.124 80.174 139.124C80.546 139.124 80.93 138.98 81.302 138.68L81.758 139.424C81.362 139.868 80.774 140.084 79.994 140.084C78.758 140.084 78.086 139.268 78.086 137.732V134.72ZM86.4827 134.72H85.1867V133.76H86.4827V132.164H87.4907V133.76H89.6387V134.72H87.4907V137.468C87.4907 138.68 87.8027 139.124 88.5707 139.124C88.9427 139.124 89.3267 138.98 89.6987 138.68L90.1547 139.424C89.7587 139.868 89.1707 140.084 88.3907 140.084C87.1547 140.084 86.4827 139.268 86.4827 137.732V134.72ZM91.7738 140H90.7658V131.24H91.7738V134.576C92.2538 133.94 92.9258 133.628 93.8018 133.628C95.5538 133.628 96.4298 134.576 96.4298 136.46V140H95.4218V136.556C95.4218 135.212 94.8458 134.576 93.6098 134.576C92.7818 134.576 92.1098 135.104 91.7738 135.872V140ZM102.524 138.212L103.172 138.812C102.596 139.676 101.768 140.108 100.676 140.108C99.6804 140.108 98.8764 139.808 98.2644 139.22C97.6524 138.632 97.3524 137.852 97.3524 136.868C97.3524 135.92 97.6284 135.14 98.1924 134.528C98.7444 133.916 99.5244 133.616 100.532 133.616C101.36 133.616 102.056 133.88 102.596 134.396C103.136 134.912 103.412 135.596 103.412 136.448C103.412 136.724 103.388 136.976 103.352 137.204H98.4324C98.4924 138.44 99.4044 139.16 100.712 139.16C101.444 139.16 102.14 138.776 102.524 138.212ZM100.46 134.54C99.3204 134.54 98.5764 135.236 98.4204 136.292H102.344C102.284 135.188 101.576 134.54 100.46 134.54ZM112.714 138.212L113.362 138.812C112.786 139.676 111.958 140.108 110.866 140.108C109.87 140.108 109.066 139.808 108.454 139.22C107.842 138.632 107.542 137.852 107.542 136.868C107.542 135.92 107.818 135.14 108.382 134.528C108.934 133.916 109.714 133.616 110.722 133.616C111.55 133.616 112.246 133.88 112.786 134.396C113.326 134.912 113.602 135.596 113.602 136.448C113.602 136.724 113.578 136.976 113.542 137.204H108.622C108.682 138.44 109.594 139.16 110.902 139.16C111.634 139.16 112.33 138.776 112.714 138.212ZM110.65 134.54C109.51 134.54 108.766 135.236 108.61 136.292H112.534C112.474 135.188 111.766 134.54 110.65 134.54ZM115.61 140H114.602V133.76H115.61V134.576C116.006 133.964 116.822 133.628 117.746 133.628C119.438 133.628 120.278 134.564 120.278 136.448V140H119.27V136.568C119.27 135.188 118.682 134.576 117.446 134.576C116.678 134.576 115.946 135.08 115.61 135.836V140ZM127.225 140H126.217V139.256C125.941 139.688 125.221 140.108 124.273 140.108C123.349 140.108 122.617 139.82 122.053 139.244C121.489 138.668 121.201 137.888 121.201 136.892C121.201 135.932 121.501 135.14 122.113 134.528C122.725 133.916 123.469 133.616 124.357 133.616C125.185 133.616 125.809 133.82 126.217 134.228V131.24H127.225V140ZM124.417 139.148C125.269 139.148 125.929 138.548 126.217 137.96V135.44C125.821 134.852 125.233 134.564 124.477 134.564C123.865 134.564 123.337 134.78 122.917 135.2C122.485 135.62 122.269 136.184 122.269 136.868C122.269 138.26 123.157 139.148 124.417 139.148ZM131.695 136.868C131.695 135.92 132.007 135.14 132.619 134.528C133.231 133.916 134.023 133.616 134.995 133.616C135.979 133.616 136.783 133.916 137.395 134.528C138.007 135.14 138.319 135.92 138.319 136.868C138.319 137.816 138.007 138.584 137.395 139.196C136.771 139.808 135.967 140.108 134.995 140.108C134.023 140.108 133.231 139.808 132.619 139.196C132.007 138.584 131.695 137.816 131.695 136.868ZM132.763 136.868C132.763 137.528 132.967 138.08 133.387 138.512C133.807 138.944 134.335 139.16 134.995 139.16C135.655 139.16 136.207 138.944 136.627 138.524C137.047 138.104 137.251 137.552 137.251 136.868C137.251 136.184 137.035 135.632 136.615 135.2C136.183 134.78 135.643 134.564 134.995 134.564C134.347 134.564 133.819 134.78 133.399 135.2C132.979 135.62 132.763 136.184 132.763 136.868ZM139.761 134.72H138.609V133.76H139.761V133.472C139.761 132.668 139.965 132.068 140.373 131.696C140.769 131.324 141.261 131.144 141.849 131.144C142.485 131.144 143.085 131.432 143.385 131.876L142.785 132.5C142.581 132.236 142.281 132.104 141.897 132.104C141.141 132.104 140.769 132.584 140.769 133.556V133.76H142.701V134.72H140.769V140H139.761V134.72ZM147.486 134.372L146.61 134.06C146.91 132.572 148.038 131.504 149.826 131.504C151.554 131.504 152.61 132.5 152.61 134.024C152.61 134.828 152.262 135.632 151.83 136.208C151.614 136.508 151.338 136.796 151.014 137.096C150.354 137.684 149.886 137.996 149.202 138.428L148.278 139.004H152.922V140H146.382V139.184L148.206 137.972C148.53 137.768 148.758 137.612 148.89 137.516C149.022 137.432 149.238 137.276 149.526 137.072C149.814 136.868 150.03 136.688 150.174 136.556C150.306 136.424 150.486 136.256 150.69 136.04C151.242 135.44 151.446 134.888 151.506 134.132C151.506 133.04 150.798 132.548 149.754 132.548C149.106 132.548 148.59 132.728 148.218 133.088C147.846 133.448 147.594 133.88 147.486 134.372ZM153.753 135.8C153.753 134.504 154.053 133.46 154.665 132.68C155.265 131.9 156.153 131.504 157.317 131.504C159.705 131.504 160.893 133.076 160.893 135.8C160.893 137.108 160.593 138.14 160.005 138.92C159.405 139.7 158.517 140.096 157.341 140.096C156.213 140.096 155.337 139.7 154.701 138.908C154.065 138.116 153.753 137.084 153.753 135.8ZM154.857 135.8C154.857 137.852 155.793 139.076 157.341 139.076C158.973 139.076 159.789 137.984 159.789 135.8C159.789 133.616 158.961 132.524 157.317 132.524C155.649 132.524 154.857 133.724 154.857 135.8ZM162.749 134.372L161.873 134.06C162.173 132.572 163.301 131.504 165.089 131.504C166.817 131.504 167.873 132.5 167.873 134.024C167.873 134.828 167.525 135.632 167.093 136.208C166.877 136.508 166.601 136.796 166.277 137.096C165.617 137.684 165.149 137.996 164.465 138.428L163.541 139.004H168.185V140H161.645V139.184L163.469 137.972C163.793 137.768 164.021 137.612 164.153 137.516C164.285 137.432 164.501 137.276 164.789 137.072C165.077 136.868 165.293 136.688 165.437 136.556C165.569 136.424 165.749 136.256 165.953 136.04C166.505 135.44 166.709 134.888 166.769 134.132C166.769 133.04 166.061 132.548 165.017 132.548C164.369 132.548 163.853 132.728 163.481 133.088C163.109 133.448 162.857 133.88 162.749 134.372ZM169.977 134.372L169.101 134.06C169.401 132.572 170.529 131.504 172.317 131.504C174.045 131.504 175.101 132.5 175.101 134.024C175.101 134.828 174.753 135.632 174.321 136.208C174.105 136.508 173.829 136.796 173.505 137.096C172.845 137.684 172.377 137.996 171.693 138.428L170.769 139.004H175.413V140H168.873V139.184L170.697 137.972C171.021 137.768 171.249 137.612 171.381 137.516C171.513 137.432 171.729 137.276 172.017 137.072C172.305 136.868 172.521 136.688 172.665 136.556C172.797 136.424 172.977 136.256 173.181 136.04C173.733 135.44 173.937 134.888 173.997 134.132C173.997 133.04 173.289 132.548 172.245 132.548C171.597 132.548 171.081 132.728 170.709 133.088C170.337 133.448 170.085 133.88 169.977 134.372Z" fill="#76848D"/>
<rect y="155" width="10" height="10" fill="#737AF9"/>
<path d="M25.044 164H18.888V155.6H24.936V156.62H19.98V159.236H24.6V160.232H19.98V162.98H25.044V164ZM30.0806 162.296C30.0806 161.456 28.6526 161.324 27.5126 161C26.7326 160.772 26.1086 160.256 26.1086 159.404C26.1086 158.3 27.1526 157.616 28.7006 157.616C29.7446 157.616 30.5846 158.06 31.0286 158.696L30.3206 159.356C29.9246 158.828 29.3246 158.564 28.5206 158.564C27.8006 158.564 27.1766 158.84 27.1766 159.356C27.1766 160.088 28.6046 160.22 29.7446 160.568C30.5126 160.808 31.1366 161.384 31.1366 162.284C31.1366 163.496 30.1646 164.108 28.6406 164.108C27.3566 164.108 26.2646 163.532 25.8206 162.632L26.6246 162.068C26.9966 162.728 27.8486 163.16 28.8086 163.16C29.6606 163.16 30.0806 162.872 30.0806 162.296ZM32.7335 158.72H31.4375V157.76H32.7335V156.164H33.7415V157.76H35.8895V158.72H33.7415V161.468C33.7415 162.68 34.0535 163.124 34.8215 163.124C35.1935 163.124 35.5775 162.98 35.9495 162.68L36.4055 163.424C36.0095 163.868 35.4215 164.084 34.6415 164.084C33.4055 164.084 32.7335 163.268 32.7335 161.732V158.72ZM38.1565 164H37.1485V157.76H38.1565V164ZM37.0165 155.732C37.0165 155.396 37.2925 155.144 37.6645 155.144C38.0005 155.144 38.2885 155.396 38.2885 155.732C38.2885 156.08 38.0005 156.356 37.6645 156.356C37.2925 156.356 37.0165 156.08 37.0165 155.732ZM48.675 159.86V164H47.667V160.172C47.667 159.104 47.235 158.576 46.371 158.576C45.591 158.576 45.015 158.96 44.655 159.716V164H43.647V159.848C43.647 159.092 43.155 158.576 42.351 158.576C41.547 158.576 40.911 159.176 40.635 159.836V164H39.627V157.76H40.635V158.6C41.007 158.024 41.727 157.628 42.543 157.628C43.431 157.628 44.043 157.952 44.379 158.6C44.871 157.952 45.555 157.628 46.431 157.628C47.823 157.628 48.675 158.324 48.675 159.86ZM50.4167 159.26L49.9007 158.504C50.4767 157.964 51.4727 157.616 52.3967 157.616C54.0647 157.616 54.9527 158.528 54.9527 160.148V164H53.9447V163.076C53.5487 163.652 52.7687 164.084 51.7607 164.084C50.4047 164.084 49.4927 163.328 49.4927 162.176C49.4927 160.868 50.6087 160.244 52.4807 160.244C53.0687 160.244 53.5487 160.304 53.9447 160.424C53.9447 159.212 53.5127 158.564 52.2767 158.564C51.6527 158.564 51.0287 158.792 50.4167 159.26ZM52.0007 163.172C52.4687 163.172 52.8887 163.04 53.2367 162.788C53.5847 162.536 53.8127 162.248 53.9447 161.948V161.312C53.5967 161.192 53.1527 161.132 52.6127 161.132C51.2447 161.132 50.5607 161.468 50.5607 162.14C50.5607 162.776 51.1367 163.172 52.0007 163.172ZM56.8628 158.72H55.5668V157.76H56.8628V156.164H57.8708V157.76H60.0188V158.72H57.8708V161.468C57.8708 162.68 58.1828 163.124 58.9508 163.124C59.3228 163.124 59.7068 162.98 60.0788 162.68L60.5348 163.424C60.1388 163.868 59.5508 164.084 58.7708 164.084C57.5348 164.084 56.8628 163.268 56.8628 161.732V158.72ZM65.7941 162.212L66.4421 162.812C65.8661 163.676 65.0381 164.108 63.9461 164.108C62.9501 164.108 62.1461 163.808 61.5341 163.22C60.9221 162.632 60.6221 161.852 60.6221 160.868C60.6221 159.92 60.8981 159.14 61.4621 158.528C62.0141 157.916 62.7941 157.616 63.8021 157.616C64.6301 157.616 65.3261 157.88 65.8661 158.396C66.4061 158.912 66.6821 159.596 66.6821 160.448C66.6821 160.724 66.6581 160.976 66.6221 161.204H61.7021C61.7621 162.44 62.6741 163.16 63.9821 163.16C64.7141 163.16 65.4101 162.776 65.7941 162.212ZM63.7301 158.54C62.5901 158.54 61.8461 159.236 61.6901 160.292H65.6141C65.5541 159.188 64.8461 158.54 63.7301 158.54ZM71.6398 159.26L71.1238 158.504C71.6998 157.964 72.6958 157.616 73.6198 157.616C75.2878 157.616 76.1758 158.528 76.1758 160.148V164H75.1678V163.076C74.7718 163.652 73.9918 164.084 72.9838 164.084C71.6278 164.084 70.7158 163.328 70.7158 162.176C70.7158 160.868 71.8318 160.244 73.7038 160.244C74.2918 160.244 74.7718 160.304 75.1678 160.424C75.1678 159.212 74.7358 158.564 73.4998 158.564C72.8758 158.564 72.2518 158.792 71.6398 159.26ZM73.2238 163.172C73.6918 163.172 74.1118 163.04 74.4598 162.788C74.8078 162.536 75.0358 162.248 75.1678 161.948V161.312C74.8198 161.192 74.3758 161.132 73.8358 161.132C72.4678 161.132 71.7838 161.468 71.7838 162.14C71.7838 162.776 72.3598 163.172 73.2238 163.172ZM78.086 158.72H76.79V157.76H78.086V156.164H79.094V157.76H81.242V158.72H79.094V161.468C79.094 162.68 79.406 163.124 80.174 163.124C80.546 163.124 80.93 162.98 81.302 162.68L81.758 163.424C81.362 163.868 80.774 164.084 79.994 164.084C78.758 164.084 78.086 163.268 78.086 161.732V158.72ZM86.4827 158.72H85.1867V157.76H86.4827V156.164H87.4907V157.76H89.6387V158.72H87.4907V161.468C87.4907 162.68 87.8027 163.124 88.5707 163.124C88.9427 163.124 89.3267 162.98 89.6987 162.68L90.1547 163.424C89.7587 163.868 89.1707 164.084 88.3907 164.084C87.1547 164.084 86.4827 163.268 86.4827 161.732V158.72ZM91.7738 164H90.7658V155.24H91.7738V158.576C92.2538 157.94 92.9258 157.628 93.8018 157.628C95.5538 157.628 96.4298 158.576 96.4298 160.46V164H95.4218V160.556C95.4218 159.212 94.8458 158.576 93.6098 158.576C92.7818 158.576 92.1098 159.104 91.7738 159.872V164ZM102.524 162.212L103.172 162.812C102.596 163.676 101.768 164.108 100.676 164.108C99.6804 164.108 98.8764 163.808 98.2644 163.22C97.6524 162.632 97.3524 161.852 97.3524 160.868C97.3524 159.92 97.6284 159.14 98.1924 158.528C98.7444 157.916 99.5244 157.616 100.532 157.616C101.36 157.616 102.056 157.88 102.596 158.396C103.136 158.912 103.412 159.596 103.412 160.448C103.412 160.724 103.388 160.976 103.352 161.204H98.4324C98.4924 162.44 99.4044 163.16 100.712 163.16C101.444 163.16 102.14 162.776 102.524 162.212ZM100.46 158.54C99.3204 158.54 98.5764 159.236 98.4204 160.292H102.344C102.284 159.188 101.576 158.54 100.46 158.54ZM112.714 162.212L113.362 162.812C112.786 163.676 111.958 164.108 110.866 164.108C109.87 164.108 109.066 163.808 108.454 163.22C107.842 162.632 107.542 161.852 107.542 160.868C107.542 159.92 107.818 159.14 108.382 158.528C108.934 157.916 109.714 157.616 110.722 157.616C111.55 157.616 112.246 157.88 112.786 158.396C113.326 158.912 113.602 159.596 113.602 160.448C113.602 160.724 113.578 160.976 113.542 161.204H108.622C108.682 162.44 109.594 163.16 110.902 163.16C111.634 163.16 112.33 162.776 112.714 162.212ZM110.65 158.54C109.51 158.54 108.766 159.236 108.61 160.292H112.534C112.474 159.188 111.766 158.54 110.65 158.54ZM115.61 164H114.602V157.76H115.61V158.576C116.006 157.964 116.822 157.628 117.746 157.628C119.438 157.628 120.278 158.564 120.278 160.448V164H119.27V160.568C119.27 159.188 118.682 158.576 117.446 158.576C116.678 158.576 115.946 159.08 115.61 159.836V164ZM127.225 164H126.217V163.256C125.941 163.688 125.221 164.108 124.273 164.108C123.349 164.108 122.617 163.82 122.053 163.244C121.489 162.668 121.201 161.888 121.201 160.892C121.201 159.932 121.501 159.14 122.113 158.528C122.725 157.916 123.469 157.616 124.357 157.616C125.185 157.616 125.809 157.82 126.217 158.228V155.24H127.225V164ZM124.417 163.148C125.269 163.148 125.929 162.548 126.217 161.96V159.44C125.821 158.852 125.233 158.564 124.477 158.564C123.865 158.564 123.337 158.78 122.917 159.2C122.485 159.62 122.269 160.184 122.269 160.868C122.269 162.26 123.157 163.148 124.417 163.148ZM131.695 160.868C131.695 159.92 132.007 159.14 132.619 158.528C133.231 157.916 134.023 157.616 134.995 157.616C135.979 157.616 136.783 157.916 137.395 158.528C138.007 159.14 138.319 159.92 138.319 160.868C138.319 161.816 138.007 162.584 137.395 163.196C136.771 163.808 135.967 164.108 134.995 164.108C134.023 164.108 133.231 163.808 132.619 163.196C132.007 162.584 131.695 161.816 131.695 160.868ZM132.763 160.868C132.763 161.528 132.967 162.08 133.387 162.512C133.807 162.944 134.335 163.16 134.995 163.16C135.655 163.16 136.207 162.944 136.627 162.524C137.047 162.104 137.251 161.552 137.251 160.868C137.251 160.184 137.035 159.632 136.615 159.2C136.183 158.78 135.643 158.564 134.995 158.564C134.347 158.564 133.819 158.78 133.399 159.2C132.979 159.62 132.763 160.184 132.763 160.868ZM139.761 158.72H138.609V157.76H139.761V157.472C139.761 156.668 139.965 156.068 140.373 155.696C140.769 155.324 141.261 155.144 141.849 155.144C142.485 155.144 143.085 155.432 143.385 155.876L142.785 156.5C142.581 156.236 142.281 156.104 141.897 156.104C141.141 156.104 140.769 156.584 140.769 157.556V157.76H142.701V158.72H140.769V164H139.761V158.72ZM147.486 158.372L146.61 158.06C146.91 156.572 148.038 155.504 149.826 155.504C151.554 155.504 152.61 156.5 152.61 158.024C152.61 158.828 152.262 159.632 151.83 160.208C151.614 160.508 151.338 160.796 151.014 161.096C150.354 161.684 149.886 161.996 149.202 162.428L148.278 163.004H152.922V164H146.382V163.184L148.206 161.972C148.53 161.768 148.758 161.612 148.89 161.516C149.022 161.432 149.238 161.276 149.526 161.072C149.814 160.868 150.03 160.688 150.174 160.556C150.306 160.424 150.486 160.256 150.69 160.04C151.242 159.44 151.446 158.888 151.506 158.132C151.506 157.04 150.798 156.548 149.754 156.548C149.106 156.548 148.59 156.728 148.218 157.088C147.846 157.448 147.594 157.88 147.486 158.372ZM153.753 159.8C153.753 158.504 154.053 157.46 154.665 156.68C155.265 155.9 156.153 155.504 157.317 155.504C159.705 155.504 160.893 157.076 160.893 159.8C160.893 161.108 160.593 162.14 160.005 162.92C159.405 163.7 158.517 164.096 157.341 164.096C156.213 164.096 155.337 163.7 154.701 162.908C154.065 162.116 153.753 161.084 153.753 159.8ZM154.857 159.8C154.857 161.852 155.793 163.076 157.341 163.076C158.973 163.076 159.789 161.984 159.789 159.8C159.789 157.616 158.961 156.524 157.317 156.524C155.649 156.524 154.857 157.724 154.857 159.8ZM162.749 158.372L161.873 158.06C162.173 156.572 163.301 155.504 165.089 155.504C166.817 155.504 167.873 156.5 167.873 158.024C167.873 158.828 167.525 159.632 167.093 160.208C166.877 160.508 166.601 160.796 166.277 161.096C165.617 161.684 165.149 161.996 164.465 162.428L163.541 163.004H168.185V164H161.645V163.184L163.469 161.972C163.793 161.768 164.021 161.612 164.153 161.516C164.285 161.432 164.501 161.276 164.789 161.072C165.077 160.868 165.293 160.688 165.437 160.556C165.569 160.424 165.749 160.256 165.953 160.04C166.505 159.44 166.709 158.888 166.769 158.132C166.769 157.04 166.061 156.548 165.017 156.548C164.369 156.548 163.853 156.728 163.481 157.088C163.109 157.448 162.857 157.88 162.749 158.372ZM169.845 158.048L168.945 157.64C169.389 156.344 170.553 155.492 172.293 155.492C173.121 155.492 173.805 155.684 174.333 156.068C174.861 156.452 175.125 156.968 175.125 157.604C175.125 158.576 174.609 159.296 173.649 159.572C174.573 159.632 175.317 160.328 175.317 161.576C175.317 162.368 175.029 162.992 174.453 163.436C173.877 163.88 173.145 164.108 172.245 164.108C170.409 164.108 169.137 163.232 168.717 161.852L169.689 161.432C170.205 162.524 171.081 163.076 172.317 163.076C173.481 163.076 174.213 162.536 174.213 161.588C174.213 160.664 173.493 160.196 172.053 160.196H171.117V159.2H171.861C173.169 159.2 174.021 158.612 174.021 157.808C174.021 156.98 173.337 156.512 172.245 156.512C170.961 156.512 170.181 157.172 169.845 158.048Z" fill="#76848D"/>
<rect y="179" width="10" height="10" fill="#CDD3FB"/>
<path d="M19.992 188H18.888V179.6H24.924V180.62H19.992V183.5H24.588V184.52H19.992V188ZM25.1078 184.868C25.1078 183.92 25.4198 183.14 26.0318 182.528C26.6438 181.916 27.4358 181.616 28.4078 181.616C29.3918 181.616 30.1958 181.916 30.8078 182.528C31.4198 183.14 31.7318 183.92 31.7318 184.868C31.7318 185.816 31.4198 186.584 30.8078 187.196C30.1838 187.808 29.3798 188.108 28.4078 188.108C27.4358 188.108 26.6438 187.808 26.0318 187.196C25.4198 186.584 25.1078 185.816 25.1078 184.868ZM26.1758 184.868C26.1758 185.528 26.3798 186.08 26.7998 186.512C27.2198 186.944 27.7478 187.16 28.4078 187.16C29.0678 187.16 29.6198 186.944 30.0398 186.524C30.4598 186.104 30.6638 185.552 30.6638 184.868C30.6638 184.184 30.4478 183.632 30.0278 183.2C29.5958 182.78 29.0558 182.564 28.4078 182.564C27.7598 182.564 27.2318 182.78 26.8118 183.2C26.3918 183.62 26.1758 184.184 26.1758 184.868ZM33.7383 188H32.7303V181.76H33.7383V182.24C33.9423 181.82 34.4823 181.628 35.0223 181.628C35.5743 181.628 35.9943 181.82 36.2943 182.192L35.6583 182.888C35.5023 182.684 35.2623 182.576 34.9143 182.576C34.3743 182.576 33.8823 183.02 33.7383 183.656V188ZM41.3132 186.212L41.9612 186.812C41.3852 187.676 40.5572 188.108 39.4652 188.108C38.4692 188.108 37.6652 187.808 37.0532 187.22C36.4412 186.632 36.1412 185.852 36.1412 184.868C36.1412 183.92 36.4172 183.14 36.9812 182.528C37.5332 181.916 38.3132 181.616 39.3212 181.616C40.1492 181.616 40.8452 181.88 41.3852 182.396C41.9252 182.912 42.2012 183.596 42.2012 184.448C42.2012 184.724 42.1772 184.976 42.1412 185.204H37.2212C37.2812 186.44 38.1932 187.16 39.5012 187.16C40.2332 187.16 40.9292 186.776 41.3132 186.212ZM39.2492 182.54C38.1092 182.54 37.3652 183.236 37.2092 184.292H41.1332C41.0732 183.188 40.3652 182.54 39.2492 182.54ZM47.92 186.2L48.64 186.716C48.172 187.592 47.116 188.108 46.072 188.108C45.076 188.108 44.272 187.808 43.66 187.22C43.048 186.632 42.736 185.852 42.736 184.868C42.736 183.932 43.036 183.152 43.648 182.54C44.26 181.928 45.04 181.616 46.012 181.616C47.128 181.616 48.124 182.12 48.544 182.888L47.764 183.416C47.344 182.852 46.768 182.564 46.036 182.564C45.388 182.564 44.86 182.78 44.44 183.212C44.02 183.644 43.804 184.196 43.804 184.868C43.804 185.552 44.02 186.104 44.464 186.524C44.896 186.944 45.46 187.16 46.168 187.16C46.912 187.16 47.5 186.836 47.92 186.2ZM49.8307 183.26L49.3147 182.504C49.8907 181.964 50.8867 181.616 51.8107 181.616C53.4787 181.616 54.3668 182.528 54.3668 184.148V188H53.3587V187.076C52.9627 187.652 52.1827 188.084 51.1747 188.084C49.8187 188.084 48.9067 187.328 48.9067 186.176C48.9067 184.868 50.0227 184.244 51.8947 184.244C52.4827 184.244 52.9627 184.304 53.3587 184.424C53.3587 183.212 52.9267 182.564 51.6907 182.564C51.0667 182.564 50.4427 182.792 49.8307 183.26ZM51.4147 187.172C51.8827 187.172 52.3027 187.04 52.6507 186.788C52.9987 186.536 53.2267 186.248 53.3587 185.948V185.312C53.0107 185.192 52.5667 185.132 52.0267 185.132C50.6587 185.132 49.9747 185.468 49.9747 186.14C49.9747 186.776 50.5507 187.172 51.4147 187.172ZM59.4689 186.296C59.4689 185.456 58.0409 185.324 56.9009 185C56.1209 184.772 55.4969 184.256 55.4969 183.404C55.4969 182.3 56.5409 181.616 58.0889 181.616C59.1329 181.616 59.9729 182.06 60.4169 182.696L59.7089 183.356C59.3129 182.828 58.7129 182.564 57.9089 182.564C57.1889 182.564 56.5649 182.84 56.5649 183.356C56.5649 184.088 57.9929 184.22 59.1329 184.568C59.9009 184.808 60.5249 185.384 60.5249 186.284C60.5249 187.496 59.5529 188.108 58.0289 188.108C56.7449 188.108 55.6529 187.532 55.2089 186.632L56.0129 186.068C56.3849 186.728 57.2369 187.16 58.1969 187.16C59.0489 187.16 59.4689 186.872 59.4689 186.296ZM62.1217 182.72H60.8257V181.76H62.1217V180.164H63.1298V181.76H65.2777V182.72H63.1298V185.468C63.1298 186.68 63.4417 187.124 64.2098 187.124C64.5817 187.124 64.9657 186.98 65.3378 186.68L65.7938 187.424C65.3978 187.868 64.8098 188.084 64.0297 188.084C62.7937 188.084 62.1217 187.268 62.1217 185.732V182.72ZM70.3265 182.72H69.1745V181.76H70.3265V181.472C70.3265 180.668 70.5305 180.068 70.9385 179.696C71.3345 179.324 71.8265 179.144 72.4145 179.144C73.0505 179.144 73.6505 179.432 73.9505 179.876L73.3505 180.5C73.1465 180.236 72.8465 180.104 72.4625 180.104C71.7065 180.104 71.3345 180.584 71.3345 181.556V181.76H73.2665V182.72H71.3345V188H70.3265V182.72ZM73.3051 184.868C73.3051 183.92 73.6171 183.14 74.2291 182.528C74.8411 181.916 75.6331 181.616 76.6051 181.616C77.5891 181.616 78.3931 181.916 79.0051 182.528C79.6171 183.14 79.9291 183.92 79.9291 184.868C79.9291 185.816 79.6171 186.584 79.0051 187.196C78.3811 187.808 77.5771 188.108 76.6051 188.108C75.6331 188.108 74.8411 187.808 74.2291 187.196C73.6171 186.584 73.3051 185.816 73.3051 184.868ZM74.3731 184.868C74.3731 185.528 74.5771 186.08 74.9971 186.512C75.4171 186.944 75.9451 187.16 76.6051 187.16C77.2651 187.16 77.8171 186.944 78.2371 186.524C78.6571 186.104 78.8611 185.552 78.8611 184.868C78.8611 184.184 78.6451 183.632 78.2251 183.2C77.7931 182.78 77.2531 182.564 76.6051 182.564C75.9571 182.564 75.4291 182.78 75.0091 183.2C74.5891 183.62 74.3731 184.184 74.3731 184.868ZM81.9356 188H80.9276V181.76H81.9356V182.24C82.1396 181.82 82.6796 181.628 83.2196 181.628C83.7716 181.628 84.1916 181.82 84.4916 182.192L83.8556 182.888C83.6996 182.684 83.4596 182.576 83.1116 182.576C82.5716 182.576 82.0796 183.02 81.9356 183.656V188ZM89.2715 182.372L88.3955 182.06C88.6955 180.572 89.8235 179.504 91.6115 179.504C93.3395 179.504 94.3955 180.5 94.3955 182.024C94.3955 182.828 94.0475 183.632 93.6155 184.208C93.3995 184.508 93.1235 184.796 92.7995 185.096C92.1395 185.684 91.6715 185.996 90.9875 186.428L90.0635 187.004H94.7075V188H88.1675V187.184L89.9915 185.972C90.3155 185.768 90.5435 185.612 90.6755 185.516C90.8075 185.432 91.0235 185.276 91.3115 185.072C91.5995 184.868 91.8155 184.688 91.9595 184.556C92.0915 184.424 92.2715 184.256 92.4755 184.04C93.0275 183.44 93.2315 182.888 93.2915 182.132C93.2915 181.04 92.5835 180.548 91.5395 180.548C90.8915 180.548 90.3755 180.728 90.0035 181.088C89.6315 181.448 89.3795 181.88 89.2715 182.372ZM95.5391 183.8C95.5391 182.504 95.8391 181.46 96.4511 180.68C97.0511 179.9 97.9391 179.504 99.1031 179.504C101.491 179.504 102.679 181.076 102.679 183.8C102.679 185.108 102.379 186.14 101.791 186.92C101.191 187.7 100.303 188.096 99.1271 188.096C97.9991 188.096 97.1231 187.7 96.4871 186.908C95.8511 186.116 95.5391 185.084 95.5391 183.8ZM96.6431 183.8C96.6431 185.852 97.5791 187.076 99.1271 187.076C100.759 187.076 101.575 185.984 101.575 183.8C101.575 181.616 100.747 180.524 99.1031 180.524C97.4351 180.524 96.6431 181.724 96.6431 183.8ZM104.535 182.372L103.659 182.06C103.959 180.572 105.087 179.504 106.875 179.504C108.603 179.504 109.659 180.5 109.659 182.024C109.659 182.828 109.311 183.632 108.879 184.208C108.663 184.508 108.387 184.796 108.063 185.096C107.403 185.684 106.935 185.996 106.251 186.428L105.327 187.004H109.971V188H103.431V187.184L105.255 185.972C105.579 185.768 105.807 185.612 105.939 185.516C106.071 185.432 106.287 185.276 106.575 185.072C106.863 184.868 107.079 184.688 107.223 184.556C107.355 184.424 107.535 184.256 107.739 184.04C108.291 183.44 108.495 182.888 108.555 182.132C108.555 181.04 107.847 180.548 106.803 180.548C106.155 180.548 105.639 180.728 105.267 181.088C104.895 181.448 104.643 181.88 104.535 182.372ZM116.599 188H115.555V186.284H110.419V185.588L115.675 179.6H116.599V185.312H118.159V186.284H116.599V188ZM115.555 181.28L111.859 185.312H115.555V181.28Z" fill="#76848D"/>
<path d="M323.111 212.6H324.191L321.695 221H320.759L318.479 214.472L316.235 221H315.299L312.683 212.6H313.823L315.827 219.08L318.023 212.6H318.947L321.203 219.068L323.111 212.6ZM323.822 217.868C323.822 216.92 324.134 216.14 324.746 215.528C325.358 214.916 326.15 214.616 327.122 214.616C328.106 214.616 328.91 214.916 329.522 215.528C330.134 216.14 330.446 216.92 330.446 217.868C330.446 218.816 330.134 219.584 329.522 220.196C328.898 220.808 328.094 221.108 327.122 221.108C326.15 221.108 325.358 220.808 324.746 220.196C324.134 219.584 323.822 218.816 323.822 217.868ZM324.89 217.868C324.89 218.528 325.094 219.08 325.514 219.512C325.934 219.944 326.462 220.16 327.122 220.16C327.782 220.16 328.334 219.944 328.754 219.524C329.174 219.104 329.378 218.552 329.378 217.868C329.378 217.184 329.162 216.632 328.742 216.2C328.31 215.78 327.77 215.564 327.122 215.564C326.474 215.564 325.946 215.78 325.526 216.2C325.106 216.62 324.89 217.184 324.89 217.868ZM332.452 221H331.444V214.76H332.452V215.24C332.656 214.82 333.196 214.628 333.736 214.628C334.288 214.628 334.708 214.82 335.008 215.192L334.372 215.888C334.216 215.684 333.976 215.576 333.628 215.576C333.088 215.576 332.596 216.02 332.452 216.656V221ZM336.67 221H335.662V212.24H336.67V221ZM343.782 221H342.774V220.256C342.498 220.688 341.778 221.108 340.83 221.108C339.906 221.108 339.174 220.82 338.61 220.244C338.046 219.668 337.758 218.888 337.758 217.892C337.758 216.932 338.058 216.14 338.67 215.528C339.282 214.916 340.026 214.616 340.914 214.616C341.742 214.616 342.366 214.82 342.774 215.228V212.24H343.782V221ZM340.974 220.148C341.826 220.148 342.486 219.548 342.774 218.96V216.44C342.378 215.852 341.79 215.564 341.034 215.564C340.422 215.564 339.894 215.78 339.474 216.2C339.042 216.62 338.826 217.184 338.826 217.868C338.826 219.26 339.714 220.148 340.974 220.148ZM352.093 221H348.757V212.6H352.153C354.301 212.6 355.117 213.38 355.117 214.688C355.117 215.624 354.721 216.26 353.929 216.608C354.853 216.8 355.417 217.508 355.417 218.6C355.417 220.244 354.193 221 352.093 221ZM352.201 217.208H349.849V219.98H352.081C353.605 219.98 354.289 219.536 354.289 218.54C354.289 217.652 353.593 217.208 352.201 217.208ZM352.057 213.62H349.849V216.212H352.237C353.305 216.212 354.001 215.732 354.001 214.916C354.001 214.016 353.485 213.62 352.057 213.62ZM357.035 216.26L356.519 215.504C357.095 214.964 358.091 214.616 359.015 214.616C360.683 214.616 361.571 215.528 361.571 217.148V221H360.563V220.076C360.167 220.652 359.387 221.084 358.379 221.084C357.023 221.084 356.111 220.328 356.111 219.176C356.111 217.868 357.227 217.244 359.099 217.244C359.687 217.244 360.167 217.304 360.563 217.424C360.563 216.212 360.131 215.564 358.895 215.564C358.271 215.564 357.647 215.792 357.035 216.26ZM358.619 220.172C359.087 220.172 359.507 220.04 359.855 219.788C360.203 219.536 360.431 219.248 360.563 218.948V218.312C360.215 218.192 359.771 218.132 359.231 218.132C357.863 218.132 357.179 218.468 357.179 219.14C357.179 219.776 357.755 220.172 358.619 220.172ZM363.853 221H362.845V214.76H363.853V215.576C364.249 214.964 365.065 214.628 365.989 214.628C367.681 214.628 368.521 215.564 368.521 217.448V221H367.513V217.568C367.513 216.188 366.925 215.576 365.689 215.576C364.921 215.576 364.189 216.08 363.853 216.836V221ZM370.8 221H369.792V212.24H370.8V217.532L373.824 214.76H375.18L372.18 217.532L375.384 221H374.052L371.292 218.096L370.8 218.504V221Z" fill="#76848D"/>
<path d="M560.039 221H558.947V212.6H560.039V221ZM562.791 221H561.699V212.6H562.707L565.899 216.824L568.983 212.6H569.967V221H568.875V214.484L566.007 218.348H565.743L562.791 214.484V221ZM572.726 221H571.622V212.6H577.658V213.62H572.726V216.5H577.322V217.52H572.726V221Z" fill="#76848D"/>
<path d="M790.087 212.6H791.179V217.448C791.179 218.66 790.843 219.56 790.171 220.172C789.499 220.784 788.695 221.096 787.747 221.096C786.703 221.096 785.839 220.772 785.143 220.124C784.447 219.476 784.099 218.564 784.099 217.376V212.6H785.191V217.22C785.191 218.12 785.431 218.816 785.923 219.308C786.403 219.812 787.015 220.064 787.747 220.064C789.271 220.064 790.087 219.008 790.087 217.28V212.6ZM799.849 212.6V221H798.997L793.849 214.592V221H792.793V212.6H793.657L798.793 219.032V212.6H799.849Z" fill="#76848D"/>
<path d="M999.51 216.8C999.51 215.588 999.918 214.556 1000.75 213.728C1001.57 212.9 1002.58 212.492 1003.78 212.492C1004.97 212.492 1005.98 212.9 1006.81 213.716C1007.63 214.532 1008.04 215.564 1008.04 216.8C1008.04 218.024 1007.63 219.044 1006.81 219.872C1005.98 220.7 1004.97 221.108 1003.78 221.108C1002.58 221.108 1001.57 220.7 1000.75 219.884C999.918 219.068 999.51 218.036 999.51 216.8ZM1000.65 216.8C1000.65 217.736 1000.96 218.516 1001.57 219.128C1002.19 219.752 1002.92 220.064 1003.78 220.064C1004.67 220.064 1005.41 219.752 1006.01 219.14C1006.6 218.528 1006.9 217.748 1006.9 216.8C1006.9 215.852 1006.6 215.072 1005.99 214.46C1005.38 213.848 1004.63 213.536 1003.78 213.536C1002.91 213.536 1002.17 213.848 1001.56 214.46C1000.95 215.072 1000.65 215.852 1000.65 216.8ZM1015.52 221H1009.36V212.6H1015.41V213.62H1010.46V216.236H1015.08V217.232H1010.46V219.98H1015.52V221ZM1023.52 218.936L1024.15 219.632C1023.51 220.532 1022.24 221.108 1020.88 221.108C1019.56 221.108 1018.51 220.712 1017.73 219.932C1016.95 219.152 1016.55 218.108 1016.55 216.8C1016.55 215.564 1016.95 214.544 1017.73 213.716C1018.51 212.9 1019.53 212.492 1020.8 212.492C1022.24 212.492 1023.41 213.068 1024.03 213.884L1023.32 214.568C1022.63 213.884 1021.79 213.536 1020.82 213.536C1019.85 213.536 1019.09 213.836 1018.53 214.436C1017.97 215.036 1017.69 215.828 1017.69 216.8C1017.69 217.784 1017.99 218.576 1018.59 219.164C1019.19 219.764 1019.98 220.064 1020.95 220.064C1022 220.064 1022.85 219.692 1023.52 218.936ZM1027.74 221H1025.27V212.6H1027.86C1031.27 212.6 1032.49 214.484 1032.49 216.68C1032.49 217.952 1032.09 218.984 1031.29 219.788C1030.49 220.592 1029.31 221 1027.74 221ZM1027.83 213.62H1026.36V219.98H1027.81C1030.21 219.98 1031.36 218.696 1031.36 216.68C1031.36 214.796 1030.29 213.62 1027.83 213.62Z" fill="#76848D"/>
<path d="M335.369 49.434L334.347 49.07C334.697 47.334 336.013 46.088 338.099 46.088C340.115 46.088 341.347 47.25 341.347 49.028C341.347 49.966 340.941 50.904 340.437 51.576C340.185 51.926 339.863 52.262 339.485 52.612C338.715 53.298 338.169 53.662 337.371 54.166L336.293 54.838H341.711V56H334.081V55.048L336.209 53.634C336.587 53.396 336.853 53.214 337.007 53.102C337.161 53.004 337.413 52.822 337.749 52.584C338.085 52.346 338.337 52.136 338.505 51.982C338.659 51.828 338.869 51.632 339.107 51.38C339.751 50.68 339.989 50.036 340.059 49.154C340.059 47.88 339.233 47.306 338.015 47.306C337.259 47.306 336.657 47.516 336.223 47.936C335.789 48.356 335.495 48.86 335.369 49.434ZM342.779 55.202C342.779 54.81 343.143 54.418 343.647 54.418C344.109 54.418 344.487 54.81 344.487 55.202C344.487 55.65 344.137 56.028 343.647 56.028C343.143 56.028 342.779 55.65 342.779 55.202ZM345.645 51.366C345.645 49.672 346.065 48.37 346.891 47.446C347.717 46.536 348.753 46.074 349.999 46.074C351.637 46.074 352.925 46.816 353.471 47.992L352.519 48.636C351.945 47.726 351.091 47.278 349.943 47.278C349.075 47.278 348.347 47.614 347.759 48.286C347.171 48.972 346.877 49.896 346.891 51.086C347.437 50.064 348.711 49.448 350.111 49.448C351.245 49.448 352.155 49.742 352.813 50.344C353.471 50.946 353.807 51.744 353.807 52.724C353.807 53.718 353.443 54.544 352.701 55.174C351.959 55.804 351.035 56.126 349.929 56.126C347.283 56.126 345.645 54.404 345.645 51.366ZM347.045 52.556C347.311 53.942 348.361 54.922 349.915 54.922C350.671 54.922 351.301 54.726 351.791 54.32C352.281 53.928 352.519 53.41 352.519 52.78C352.519 51.394 351.539 50.652 350.041 50.652C349.215 50.652 348.529 50.848 347.997 51.24C347.451 51.632 347.143 52.066 347.045 52.556Z" fill="#2A3C3C"/>
<path d="M335.369 49.434L334.347 49.07C334.697 47.334 336.013 46.088 338.099 46.088C340.115 46.088 341.347 47.25 341.347 49.028C341.347 49.966 340.941 50.904 340.437 51.576C340.185 51.926 339.863 52.262 339.485 52.612C338.715 53.298 338.169 53.662 337.371 54.166L336.293 54.838H341.711V56H334.081V55.048L336.209 53.634C336.587 53.396 336.853 53.214 337.007 53.102C337.161 53.004 337.413 52.822 337.749 52.584C338.085 52.346 338.337 52.136 338.505 51.982C338.659 51.828 338.869 51.632 339.107 51.38C339.751 50.68 339.989 50.036 340.059 49.154C340.059 47.88 339.233 47.306 338.015 47.306C337.259 47.306 336.657 47.516 336.223 47.936C335.789 48.356 335.495 48.86 335.369 49.434ZM342.779 55.202C342.779 54.81 343.143 54.418 343.647 54.418C344.109 54.418 344.487 54.81 344.487 55.202C344.487 55.65 344.137 56.028 343.647 56.028C343.143 56.028 342.779 55.65 342.779 55.202ZM345.645 51.366C345.645 49.672 346.065 48.37 346.891 47.446C347.717 46.536 348.753 46.074 349.999 46.074C351.637 46.074 352.925 46.816 353.471 47.992L352.519 48.636C351.945 47.726 351.091 47.278 349.943 47.278C349.075 47.278 348.347 47.614 347.759 48.286C347.171 48.972 346.877 49.896 346.891 51.086C347.437 50.064 348.711 49.448 350.111 49.448C351.245 49.448 352.155 49.742 352.813 50.344C353.471 50.946 353.807 51.744 353.807 52.724C353.807 53.718 353.443 54.544 352.701 55.174C351.959 55.804 351.035 56.126 349.929 56.126C347.283 56.126 345.645 54.404 345.645 51.366ZM347.045 52.556C347.311 53.942 348.361 54.922 349.915 54.922C350.671 54.922 351.301 54.726 351.791 54.32C352.281 53.928 352.519 53.41 352.519 52.78C352.519 51.394 351.539 50.652 350.041 50.652C349.215 50.652 348.529 50.848 347.997 51.24C347.451 51.632 347.143 52.066 347.045 52.556Z" fill="#1A3341"/>
<path d="M320 68C320 66.8954 320.895 66 322 66H366C367.105 66 368 66.8954 368 68V205H320V68Z" fill="url(#paint1_linear_6001_19089)"/>
<path opacity="0.2" d="M332 66H356V205H332V66Z" fill="url(#paint2_linear_6001_19089)"/>
<path opacity="0.04" d="M356 66H366C367.105 66 368 66.8954 368 68V205H356V66Z" fill="#0D262C"/>
<path opacity="0.5" d="M320 68C320 66.8954 320.895 66 322 66H332V205H320V68Z" fill="url(#paint3_linear_6001_19089)"/>
<path d="M399.321 60.434L398.299 60.07C398.649 58.334 399.965 57.088 402.051 57.088C404.067 57.088 405.299 58.25 405.299 60.028C405.299 60.966 404.893 61.904 404.389 62.576C404.137 62.926 403.815 63.262 403.437 63.612C402.667 64.298 402.121 64.662 401.323 65.166L400.245 65.838H405.663V67H398.033V66.048L400.161 64.634C400.539 64.396 400.805 64.214 400.959 64.102C401.113 64.004 401.365 63.822 401.701 63.584C402.037 63.346 402.289 63.136 402.457 62.982C402.611 62.828 402.821 62.632 403.059 62.38C403.703 61.68 403.941 61.036 404.011 60.154C404.011 58.88 403.185 58.306 401.967 58.306C401.211 58.306 400.609 58.516 400.175 58.936C399.741 59.356 399.447 59.86 399.321 60.434ZM406.731 66.202C406.731 65.81 407.095 65.418 407.599 65.418C408.061 65.418 408.439 65.81 408.439 66.202C408.439 66.65 408.089 67.028 407.599 67.028C407.095 67.028 406.731 66.65 406.731 66.202ZM416.359 67H415.141V64.998H409.149V64.186L415.281 57.2H416.359V63.864H418.179V64.998H416.359V67ZM415.141 59.16L410.829 63.864H415.141V59.16Z" fill="#2A3C3C"/>
<path d="M399.321 60.434L398.299 60.07C398.649 58.334 399.965 57.088 402.051 57.088C404.067 57.088 405.299 58.25 405.299 60.028C405.299 60.966 404.893 61.904 404.389 62.576C404.137 62.926 403.815 63.262 403.437 63.612C402.667 64.298 402.121 64.662 401.323 65.166L400.245 65.838H405.663V67H398.033V66.048L400.161 64.634C400.539 64.396 400.805 64.214 400.959 64.102C401.113 64.004 401.365 63.822 401.701 63.584C402.037 63.346 402.289 63.136 402.457 62.982C402.611 62.828 402.821 62.632 403.059 62.38C403.703 61.68 403.941 61.036 404.011 60.154C404.011 58.88 403.185 58.306 401.967 58.306C401.211 58.306 400.609 58.516 400.175 58.936C399.741 59.356 399.447 59.86 399.321 60.434ZM406.731 66.202C406.731 65.81 407.095 65.418 407.599 65.418C408.061 65.418 408.439 65.81 408.439 66.202C408.439 66.65 408.089 67.028 407.599 67.028C407.095 67.028 406.731 66.65 406.731 66.202ZM416.359 67H415.141V64.998H409.149V64.186L415.281 57.2H416.359V63.864H418.179V64.998H416.359V67ZM415.141 59.16L410.829 63.864H415.141V59.16Z" fill="#1A3341"/>
<path opacity="0.4" d="M384 79C384 77.8954 384.895 77 386 77H430C431.105 77 432 77.8954 432 79V205H384V79Z" fill="url(#paint4_linear_6001_19089)"/>
<path opacity="0.2" d="M396 77H420V205H396V77Z" fill="url(#paint5_linear_6001_19089)"/>
<path opacity="0.04" d="M420 77H430C431.105 77 432 77.8954 432 79V205H420V77Z" fill="#0D262C"/>
<path opacity="0.5" d="M384 79C384 77.8954 384.895 77 386 77H396V205H384V79Z" fill="url(#paint6_linear_6001_19089)"/>
<path d="M271.078 28.056L270.028 27.58C270.546 26.068 271.904 25.074 273.934 25.074C274.9 25.074 275.698 25.298 276.314 25.746C276.93 26.194 277.238 26.796 277.238 27.538C277.238 28.672 276.636 29.512 275.516 29.834C276.594 29.904 277.462 30.716 277.462 32.172C277.462 33.096 277.126 33.824 276.454 34.342C275.782 34.86 274.928 35.126 273.878 35.126C271.736 35.126 270.252 34.104 269.762 32.494L270.896 32.004C271.498 33.278 272.52 33.922 273.962 33.922C275.32 33.922 276.174 33.292 276.174 32.186C276.174 31.108 275.334 30.562 273.654 30.562H272.562V29.4H273.43C274.956 29.4 275.95 28.714 275.95 27.776C275.95 26.81 275.152 26.264 273.878 26.264C272.38 26.264 271.47 27.034 271.078 28.056ZM278.711 34.202C278.711 33.81 279.075 33.418 279.579 33.418C280.041 33.418 280.419 33.81 280.419 34.202C280.419 34.65 280.069 35.028 279.579 35.028C279.075 35.028 278.711 34.65 278.711 34.202ZM281.576 30.1C281.576 28.588 281.926 27.37 282.64 26.46C283.34 25.55 284.376 25.088 285.734 25.088C288.52 25.088 289.906 26.922 289.906 30.1C289.906 31.626 289.556 32.83 288.87 33.74C288.17 34.65 287.134 35.112 285.762 35.112C284.446 35.112 283.424 34.65 282.682 33.726C281.94 32.802 281.576 31.598 281.576 30.1ZM282.864 30.1C282.864 32.494 283.956 33.922 285.762 33.922C287.666 33.922 288.618 32.648 288.618 30.1C288.618 27.552 287.652 26.278 285.734 26.278C283.788 26.278 282.864 27.678 282.864 30.1Z" fill="#2A3C3C"/>
<path d="M271.078 28.056L270.028 27.58C270.546 26.068 271.904 25.074 273.934 25.074C274.9 25.074 275.698 25.298 276.314 25.746C276.93 26.194 277.238 26.796 277.238 27.538C277.238 28.672 276.636 29.512 275.516 29.834C276.594 29.904 277.462 30.716 277.462 32.172C277.462 33.096 277.126 33.824 276.454 34.342C275.782 34.86 274.928 35.126 273.878 35.126C271.736 35.126 270.252 34.104 269.762 32.494L270.896 32.004C271.498 33.278 272.52 33.922 273.962 33.922C275.32 33.922 276.174 33.292 276.174 32.186C276.174 31.108 275.334 30.562 273.654 30.562H272.562V29.4H273.43C274.956 29.4 275.95 28.714 275.95 27.776C275.95 26.81 275.152 26.264 273.878 26.264C272.38 26.264 271.47 27.034 271.078 28.056ZM278.711 34.202C278.711 33.81 279.075 33.418 279.579 33.418C280.041 33.418 280.419 33.81 280.419 34.202C280.419 34.65 280.069 35.028 279.579 35.028C279.075 35.028 278.711 34.65 278.711 34.202ZM281.576 30.1C281.576 28.588 281.926 27.37 282.64 26.46C283.34 25.55 284.376 25.088 285.734 25.088C288.52 25.088 289.906 26.922 289.906 30.1C289.906 31.626 289.556 32.83 288.87 33.74C288.17 34.65 287.134 35.112 285.762 35.112C284.446 35.112 283.424 34.65 282.682 33.726C281.94 32.802 281.576 31.598 281.576 30.1ZM282.864 30.1C282.864 32.494 283.956 33.922 285.762 33.922C287.666 33.922 288.618 32.648 288.618 30.1C288.618 27.552 287.652 26.278 285.734 26.278C283.788 26.278 282.864 27.678 282.864 30.1Z" fill="#1A3341"/>
<path d="M256 47C256 45.8954 256.895 45 258 45H302C303.105 45 304 45.8954 304 47V205H256V47Z" fill="url(#paint7_linear_6001_19089)"/>
<path opacity="0.2" d="M268 45H292V205H268V45Z" fill="url(#paint8_linear_6001_19089)"/>
<path opacity="0.04" d="M292 45H302C303.105 45 304 45.8954 304 47V205H292V45Z" fill="#0D262C"/>
<path opacity="0.5" d="M256 47C256 45.8954 256.895 45 258 45H268V205H256V47Z" fill="url(#paint9_linear_6001_19089)"/>
<path d="M561.074 24.0559L560.024 23.5799C560.542 22.0679 561.9 21.0739 563.93 21.0739C564.896 21.0739 565.694 21.2979 566.31 21.7459C566.926 22.1939 567.234 22.7959 567.234 23.5379C567.234 24.6719 566.632 25.5119 565.512 25.8339C566.59 25.9039 567.458 26.7159 567.458 28.1719C567.458 29.0959 567.122 29.8239 566.45 30.3419C565.778 30.8599 564.924 31.1259 563.874 31.1259C561.732 31.1259 560.248 30.1039 559.758 28.4939L560.892 28.0039C561.494 29.2779 562.516 29.9219 563.958 29.9219C565.316 29.9219 566.17 29.2919 566.17 28.1859C566.17 27.1079 565.33 26.5619 563.65 26.5619H562.558V25.3999H563.426C564.952 25.3999 565.946 24.7139 565.946 23.7759C565.946 22.8099 565.148 22.2639 563.874 22.2639C562.376 22.2639 561.466 23.0339 561.074 24.0559ZM568.707 30.2019C568.707 29.8099 569.071 29.4179 569.575 29.4179C570.037 29.4179 570.415 29.8099 570.415 30.2019C570.415 30.6499 570.065 31.0279 569.575 31.0279C569.071 31.0279 568.707 30.6499 568.707 30.2019ZM571.46 23.8039L571.012 22.7539L574.372 21.1439H575.17V30.9999H573.966V22.6419L571.46 23.8039Z" fill="#2A3C3C"/>
<path d="M561.074 24.0559L560.024 23.5799C560.542 22.0679 561.9 21.0739 563.93 21.0739C564.896 21.0739 565.694 21.2979 566.31 21.7459C566.926 22.1939 567.234 22.7959 567.234 23.5379C567.234 24.6719 566.632 25.5119 565.512 25.8339C566.59 25.9039 567.458 26.7159 567.458 28.1719C567.458 29.0959 567.122 29.8239 566.45 30.3419C565.778 30.8599 564.924 31.1259 563.874 31.1259C561.732 31.1259 560.248 30.1039 559.758 28.4939L560.892 28.0039C561.494 29.2779 562.516 29.9219 563.958 29.9219C565.316 29.9219 566.17 29.2919 566.17 28.1859C566.17 27.1079 565.33 26.5619 563.65 26.5619H562.558V25.3999H563.426C564.952 25.3999 565.946 24.7139 565.946 23.7759C565.946 22.8099 565.148 22.2639 563.874 22.2639C562.376 22.2639 561.466 23.0339 561.074 24.0559ZM568.707 30.2019C568.707 29.8099 569.071 29.4179 569.575 29.4179C570.037 29.4179 570.415 29.8099 570.415 30.2019C570.415 30.6499 570.065 31.0279 569.575 31.0279C569.071 31.0279 568.707 30.6499 568.707 30.2019ZM571.46 23.8039L571.012 22.7539L574.372 21.1439H575.17V30.9999H573.966V22.6419L571.46 23.8039Z" fill="#1A3341"/>
<path d="M544 42.9999C544 41.8953 544.895 40.9999 546 40.9999H590C591.105 40.9999 592 41.8953 592 42.9999V205H544V42.9999Z" fill="url(#paint10_linear_6001_19089)"/>
<path opacity="0.2" d="M556 40.9999H580V205H556V40.9999Z" fill="url(#paint11_linear_6001_19089)"/>
<path opacity="0.04" d="M580 40.9999H590C591.105 40.9999 592 41.8953 592 42.9999V205H580V40.9999Z" fill="#0D262C"/>
<path opacity="0.5" d="M544 42.9999C544 41.8953 544.895 40.9999 546 40.9999H556V205H544V42.9999Z" fill="url(#paint12_linear_6001_19089)"/>
<path d="M625.074 24.0559L624.024 23.5799C624.542 22.0679 625.9 21.0739 627.93 21.0739C628.896 21.0739 629.694 21.2979 630.31 21.7459C630.926 22.1939 631.234 22.7959 631.234 23.5379C631.234 24.6719 630.632 25.5119 629.512 25.8339C630.59 25.9039 631.458 26.7159 631.458 28.1719C631.458 29.0959 631.122 29.8239 630.45 30.3419C629.778 30.8599 628.924 31.1259 627.874 31.1259C625.732 31.1259 624.248 30.1039 623.758 28.4939L624.892 28.0039C625.494 29.2779 626.516 29.9219 627.958 29.9219C629.316 29.9219 630.17 29.2919 630.17 28.1859C630.17 27.1079 629.33 26.5619 627.65 26.5619H626.558V25.3999H627.426C628.952 25.3999 629.946 24.7139 629.946 23.7759C629.946 22.8099 629.148 22.2639 627.874 22.2639C626.376 22.2639 625.466 23.0339 625.074 24.0559ZM632.707 30.2019C632.707 29.8099 633.071 29.4179 633.575 29.4179C634.037 29.4179 634.415 29.8099 634.415 30.2019C634.415 30.6499 634.065 31.0279 633.575 31.0279C633.071 31.0279 632.707 30.6499 632.707 30.2019ZM635.46 23.8039L635.012 22.7539L638.372 21.1439H639.17V30.9999H637.966V22.6419L635.46 23.8039Z" fill="#2A3C3C"/>
<path d="M625.074 24.0559L624.024 23.5799C624.542 22.0679 625.9 21.0739 627.93 21.0739C628.896 21.0739 629.694 21.2979 630.31 21.7459C630.926 22.1939 631.234 22.7959 631.234 23.5379C631.234 24.6719 630.632 25.5119 629.512 25.8339C630.59 25.9039 631.458 26.7159 631.458 28.1719C631.458 29.0959 631.122 29.8239 630.45 30.3419C629.778 30.8599 628.924 31.1259 627.874 31.1259C625.732 31.1259 624.248 30.1039 623.758 28.4939L624.892 28.0039C625.494 29.2779 626.516 29.9219 627.958 29.9219C629.316 29.9219 630.17 29.2919 630.17 28.1859C630.17 27.1079 629.33 26.5619 627.65 26.5619H626.558V25.3999H627.426C628.952 25.3999 629.946 24.7139 629.946 23.7759C629.946 22.8099 629.148 22.2639 627.874 22.2639C626.376 22.2639 625.466 23.0339 625.074 24.0559ZM632.707 30.2019C632.707 29.8099 633.071 29.4179 633.575 29.4179C634.037 29.4179 634.415 29.8099 634.415 30.2019C634.415 30.6499 634.065 31.0279 633.575 31.0279C633.071 31.0279 632.707 30.6499 632.707 30.2019ZM635.46 23.8039L635.012 22.7539L638.372 21.1439H639.17V30.9999H637.966V22.6419L635.46 23.8039Z" fill="#1A3341"/>
<path opacity="0.4" d="M608 42.9999C608 41.8953 608.895 40.9999 610 40.9999H654C655.105 40.9999 656 41.8953 656 42.9999V205H608V42.9999Z" fill="url(#paint13_linear_6001_19089)"/>
<path opacity="0.2" d="M620 40.9999H644V205H620V40.9999Z" fill="url(#paint14_linear_6001_19089)"/>
<path opacity="0.04" d="M644 40.9999H654C655.105 40.9999 656 41.8953 656 42.9999V205H644V40.9999Z" fill="#0D262C"/>
<path opacity="0.5" d="M608 42.9999C608 41.8953 608.895 40.9999 610 40.9999H620V205H608V42.9999Z" fill="url(#paint15_linear_6001_19089)"/>
<path d="M495.434 3.05588L494.384 2.57988C494.902 1.06788 496.26 0.0738772 498.29 0.0738772C499.256 0.0738772 500.054 0.297878 500.67 0.745878C501.286 1.19388 501.594 1.79588 501.594 2.53788C501.594 3.67188 500.992 4.51188 499.872 4.83388C500.95 4.90388 501.818 5.71588 501.818 7.17188C501.818 8.09588 501.482 8.82388 500.81 9.34188C500.138 9.85988 499.284 10.1259 498.234 10.1259C496.092 10.1259 494.608 9.10388 494.118 7.49388L495.252 7.00388C495.854 8.27788 496.876 8.92188 498.318 8.92188C499.676 8.92188 500.53 8.29188 500.53 7.18588C500.53 6.10788 499.69 5.56188 498.01 5.56188H496.918V4.39988H497.786C499.312 4.39988 500.306 3.71388 500.306 2.77588C500.306 1.80988 499.508 1.26388 498.234 1.26388C496.736 1.26388 495.826 2.03388 495.434 3.05588ZM503.066 9.20188C503.066 8.80988 503.43 8.41788 503.934 8.41788C504.396 8.41788 504.774 8.80988 504.774 9.20188C504.774 9.64988 504.424 10.0279 503.934 10.0279C503.43 10.0279 503.066 9.64988 503.066 9.20188ZM507.36 5.49188L506.352 5.22588L506.926 0.199877H513.086V1.38988H508.004L507.64 4.02188C508.13 3.65788 508.872 3.47588 509.866 3.47588C511.014 3.47588 511.91 3.78388 512.568 4.38588C513.212 5.00188 513.534 5.78588 513.534 6.75188C513.534 7.71788 513.17 8.52988 512.456 9.15988C511.728 9.80388 510.818 10.1259 509.74 10.1259C507.906 10.1259 506.38 9.25788 505.75 7.73188L506.87 7.25588C507.276 8.19388 508.326 8.93588 509.74 8.93588C511.35 8.93588 512.246 8.01188 512.246 6.79388C512.246 5.49188 511.196 4.65188 509.53 4.65188C508.634 4.65188 507.906 4.93188 507.36 5.49188Z" fill="#2A3C3C"/>
<path d="M495.434 3.05588L494.384 2.57988C494.902 1.06788 496.26 0.0738772 498.29 0.0738772C499.256 0.0738772 500.054 0.297878 500.67 0.745878C501.286 1.19388 501.594 1.79588 501.594 2.53788C501.594 3.67188 500.992 4.51188 499.872 4.83388C500.95 4.90388 501.818 5.71588 501.818 7.17188C501.818 8.09588 501.482 8.82388 500.81 9.34188C500.138 9.85988 499.284 10.1259 498.234 10.1259C496.092 10.1259 494.608 9.10388 494.118 7.49388L495.252 7.00388C495.854 8.27788 496.876 8.92188 498.318 8.92188C499.676 8.92188 500.53 8.29188 500.53 7.18588C500.53 6.10788 499.69 5.56188 498.01 5.56188H496.918V4.39988H497.786C499.312 4.39988 500.306 3.71388 500.306 2.77588C500.306 1.80988 499.508 1.26388 498.234 1.26388C496.736 1.26388 495.826 2.03388 495.434 3.05588ZM503.066 9.20188C503.066 8.80988 503.43 8.41788 503.934 8.41788C504.396 8.41788 504.774 8.80988 504.774 9.20188C504.774 9.64988 504.424 10.0279 503.934 10.0279C503.43 10.0279 503.066 9.64988 503.066 9.20188ZM507.36 5.49188L506.352 5.22588L506.926 0.199877H513.086V1.38988H508.004L507.64 4.02188C508.13 3.65788 508.872 3.47588 509.866 3.47588C511.014 3.47588 511.91 3.78388 512.568 4.38588C513.212 5.00188 513.534 5.78588 513.534 6.75188C513.534 7.71788 513.17 8.52988 512.456 9.15988C511.728 9.80388 510.818 10.1259 509.74 10.1259C507.906 10.1259 506.38 9.25788 505.75 7.73188L506.87 7.25588C507.276 8.19388 508.326 8.93588 509.74 8.93588C511.35 8.93588 512.246 8.01188 512.246 6.79388C512.246 5.49188 511.196 4.65188 509.53 4.65188C508.634 4.65188 507.906 4.93188 507.36 5.49188Z" fill="#1A3341"/>
<path d="M480 21.9999C480 20.8953 480.895 19.9999 482 19.9999H526C527.105 19.9999 528 20.8953 528 21.9999V205H480V21.9999Z" fill="url(#paint16_linear_6001_19089)"/>
<path opacity="0.2" d="M492 19.9999H516V205H492V19.9999Z" fill="url(#paint17_linear_6001_19089)"/>
<path opacity="0.04" d="M516 19.9999H526C527.105 19.9999 528 20.8953 528 21.9999V205H516V19.9999Z" fill="#0D262C"/>
<path opacity="0.5" d="M480 21.9999C480 20.8953 480.895 19.9999 482 19.9999H492V205H480V21.9999Z" fill="url(#paint18_linear_6001_19089)"/>
<path d="M784.025 45.434L783.003 45.07C783.353 43.334 784.669 42.088 786.755 42.088C788.771 42.088 790.003 43.25 790.003 45.028C790.003 45.966 789.597 46.904 789.093 47.576C788.841 47.926 788.519 48.262 788.141 48.612C787.371 49.298 786.825 49.662 786.027 50.166L784.949 50.838H790.367V52H782.737V51.048L784.865 49.634C785.243 49.396 785.509 49.214 785.663 49.102C785.817 49.004 786.069 48.822 786.405 48.584C786.741 48.346 786.993 48.136 787.161 47.982C787.315 47.828 787.525 47.632 787.763 47.38C788.407 46.68 788.645 46.036 788.715 45.154C788.715 43.88 787.889 43.306 786.671 43.306C785.915 43.306 785.313 43.516 784.879 43.936C784.445 44.356 784.151 44.86 784.025 45.434ZM791.435 51.202C791.435 50.81 791.799 50.418 792.303 50.418C792.765 50.418 793.143 50.81 793.143 51.202C793.143 51.65 792.793 52.028 792.303 52.028C791.799 52.028 791.435 51.65 791.435 51.202ZM799.915 43.39H793.979V42.2H801.413V42.998L796.541 52H795.211L799.915 43.39Z" fill="#2A3C3C"/>
<path d="M784.025 45.434L783.003 45.07C783.353 43.334 784.669 42.088 786.755 42.088C788.771 42.088 790.003 43.25 790.003 45.028C790.003 45.966 789.597 46.904 789.093 47.576C788.841 47.926 788.519 48.262 788.141 48.612C787.371 49.298 786.825 49.662 786.027 50.166L784.949 50.838H790.367V52H782.737V51.048L784.865 49.634C785.243 49.396 785.509 49.214 785.663 49.102C785.817 49.004 786.069 48.822 786.405 48.584C786.741 48.346 786.993 48.136 787.161 47.982C787.315 47.828 787.525 47.632 787.763 47.38C788.407 46.68 788.645 46.036 788.715 45.154C788.715 43.88 787.889 43.306 786.671 43.306C785.915 43.306 785.313 43.516 784.879 43.936C784.445 44.356 784.151 44.86 784.025 45.434ZM791.435 51.202C791.435 50.81 791.799 50.418 792.303 50.418C792.765 50.418 793.143 50.81 793.143 51.202C793.143 51.65 792.793 52.028 792.303 52.028C791.799 52.028 791.435 51.65 791.435 51.202ZM799.915 43.39H793.979V42.2H801.413V42.998L796.541 52H795.211L799.915 43.39Z" fill="#1A3341"/>
<path d="M768 64C768 62.8954 768.895 62 770 62H814C815.105 62 816 62.8954 816 64V205H768V64Z" fill="url(#paint19_linear_6001_19089)"/>
<path opacity="0.2" d="M780 62H804V205H780V62Z" fill="url(#paint20_linear_6001_19089)"/>
<path opacity="0.04" d="M804 62H814C815.105 62 816 62.8954 816 64V205H804V62Z" fill="#0D262C"/>
<path opacity="0.5" d="M768 64C768 62.8954 768.895 62 770 62H780V205H768V64Z" fill="url(#paint21_linear_6001_19089)"/>
<path d="M847.321 61.434L846.299 61.07C846.649 59.334 847.965 58.088 850.051 58.088C852.067 58.088 853.299 59.25 853.299 61.028C853.299 61.966 852.893 62.904 852.389 63.576C852.137 63.926 851.815 64.262 851.437 64.612C850.667 65.298 850.121 65.662 849.323 66.166L848.245 66.838H853.663V68H846.033V67.048L848.161 65.634C848.539 65.396 848.805 65.214 848.959 65.102C849.113 65.004 849.365 64.822 849.701 64.584C850.037 64.346 850.289 64.136 850.457 63.982C850.611 63.828 850.821 63.632 851.059 63.38C851.703 62.68 851.941 62.036 852.011 61.154C852.011 59.88 851.185 59.306 849.967 59.306C849.211 59.306 848.609 59.516 848.175 59.936C847.741 60.356 847.447 60.86 847.321 61.434ZM854.731 67.202C854.731 66.81 855.095 66.418 855.599 66.418C856.061 66.418 856.439 66.81 856.439 67.202C856.439 67.65 856.089 68.028 855.599 68.028C855.095 68.028 854.731 67.65 854.731 67.202ZM864.359 68H863.141V65.998H857.149V65.186L863.281 58.2H864.359V64.864H866.179V65.998H864.359V68ZM863.141 60.16L858.829 64.864H863.141V60.16Z" fill="#2A3C3C"/>
<path d="M847.321 61.434L846.299 61.07C846.649 59.334 847.965 58.088 850.051 58.088C852.067 58.088 853.299 59.25 853.299 61.028C853.299 61.966 852.893 62.904 852.389 63.576C852.137 63.926 851.815 64.262 851.437 64.612C850.667 65.298 850.121 65.662 849.323 66.166L848.245 66.838H853.663V68H846.033V67.048L848.161 65.634C848.539 65.396 848.805 65.214 848.959 65.102C849.113 65.004 849.365 64.822 849.701 64.584C850.037 64.346 850.289 64.136 850.457 63.982C850.611 63.828 850.821 63.632 851.059 63.38C851.703 62.68 851.941 62.036 852.011 61.154C852.011 59.88 851.185 59.306 849.967 59.306C849.211 59.306 848.609 59.516 848.175 59.936C847.741 60.356 847.447 60.86 847.321 61.434ZM854.731 67.202C854.731 66.81 855.095 66.418 855.599 66.418C856.061 66.418 856.439 66.81 856.439 67.202C856.439 67.65 856.089 68.028 855.599 68.028C855.095 68.028 854.731 67.65 854.731 67.202ZM864.359 68H863.141V65.998H857.149V65.186L863.281 58.2H864.359V64.864H866.179V65.998H864.359V68ZM863.141 60.16L858.829 64.864H863.141V60.16Z" fill="#1A3341"/>
<path opacity="0.4" d="M832 80C832 78.8954 832.895 78 834 78H878C879.105 78 880 78.8954 880 80V205H832V80Z" fill="url(#paint22_linear_6001_19089)"/>
<path opacity="0.2" d="M844 78H868V205H844V78Z" fill="url(#paint23_linear_6001_19089)"/>
<path opacity="0.04" d="M868 78H878C879.105 78 880 78.8954 880 80V205H868V78Z" fill="#0D262C"/>
<path opacity="0.5" d="M832 80C832 78.8954 832.895 78 834 78H844V205H832V80Z" fill="url(#paint24_linear_6001_19089)"/>
<path d="M721.074 24.056L720.024 23.58C720.542 22.068 721.9 21.074 723.93 21.074C724.896 21.074 725.694 21.298 726.31 21.746C726.926 22.194 727.234 22.796 727.234 23.538C727.234 24.672 726.632 25.512 725.512 25.834C726.59 25.904 727.458 26.716 727.458 28.172C727.458 29.096 727.122 29.824 726.45 30.342C725.778 30.86 724.924 31.126 723.874 31.126C721.732 31.126 720.248 30.104 719.758 28.494L720.892 28.004C721.494 29.278 722.516 29.922 723.958 29.922C725.316 29.922 726.17 29.292 726.17 28.186C726.17 27.108 725.33 26.562 723.65 26.562H722.558V25.4H723.426C724.952 25.4 725.946 24.714 725.946 23.776C725.946 22.81 725.148 22.264 723.874 22.264C722.376 22.264 721.466 23.034 721.074 24.056ZM728.707 30.202C728.707 29.81 729.071 29.418 729.575 29.418C730.037 29.418 730.415 29.81 730.415 30.202C730.415 30.65 730.065 31.028 729.575 31.028C729.071 31.028 728.707 30.65 728.707 30.202ZM731.46 23.804L731.012 22.754L734.372 21.144H735.17V31H733.966V22.642L731.46 23.804Z" fill="#2A3C3C"/>
<path d="M721.074 24.056L720.024 23.58C720.542 22.068 721.9 21.074 723.93 21.074C724.896 21.074 725.694 21.298 726.31 21.746C726.926 22.194 727.234 22.796 727.234 23.538C727.234 24.672 726.632 25.512 725.512 25.834C726.59 25.904 727.458 26.716 727.458 28.172C727.458 29.096 727.122 29.824 726.45 30.342C725.778 30.86 724.924 31.126 723.874 31.126C721.732 31.126 720.248 30.104 719.758 28.494L720.892 28.004C721.494 29.278 722.516 29.922 723.958 29.922C725.316 29.922 726.17 29.292 726.17 28.186C726.17 27.108 725.33 26.562 723.65 26.562H722.558V25.4H723.426C724.952 25.4 725.946 24.714 725.946 23.776C725.946 22.81 725.148 22.264 723.874 22.264C722.376 22.264 721.466 23.034 721.074 24.056ZM728.707 30.202C728.707 29.81 729.071 29.418 729.575 29.418C730.037 29.418 730.415 29.81 730.415 30.202C730.415 30.65 730.065 31.028 729.575 31.028C729.071 31.028 728.707 30.65 728.707 30.202ZM731.46 23.804L731.012 22.754L734.372 21.144H735.17V31H733.966V22.642L731.46 23.804Z" fill="#1A3341"/>
<path d="M704 43C704 41.8954 704.895 41 706 41H750C751.105 41 752 41.8954 752 43V205H704V43Z" fill="url(#paint25_linear_6001_19089)"/>
<path opacity="0.2" d="M716 41H740V205H716V41Z" fill="url(#paint26_linear_6001_19089)"/>
<path opacity="0.04" d="M740 41H750C751.105 41 752 41.8954 752 43V205H740V41Z" fill="#0D262C"/>
<path opacity="0.5" d="M704 43C704 41.8954 704.895 41 706 41H716V205H704V43Z" fill="url(#paint27_linear_6001_19089)"/>
<path d="M1007.36 34.434L1006.33 34.07C1006.68 32.334 1008 31.088 1010.09 31.088C1012.1 31.088 1013.33 32.25 1013.33 34.028C1013.33 34.966 1012.93 35.904 1012.42 36.576C1012.17 36.926 1011.85 37.262 1011.47 37.612C1010.7 38.298 1010.16 38.662 1009.36 39.166L1008.28 39.838H1013.7V41H1006.07V40.048L1008.2 38.634C1008.57 38.396 1008.84 38.214 1008.99 38.102C1009.15 38.004 1009.4 37.822 1009.74 37.584C1010.07 37.346 1010.32 37.136 1010.49 36.982C1010.65 36.828 1010.86 36.632 1011.09 36.38C1011.74 35.68 1011.98 35.036 1012.05 34.154C1012.05 32.88 1011.22 32.306 1010 32.306C1009.25 32.306 1008.64 32.516 1008.21 32.936C1007.78 33.356 1007.48 33.86 1007.36 34.434ZM1014.77 40.202C1014.77 39.81 1015.13 39.418 1015.63 39.418C1016.1 39.418 1016.47 39.81 1016.47 40.202C1016.47 40.65 1016.12 41.028 1015.63 41.028C1015.13 41.028 1014.77 40.65 1014.77 40.202ZM1025.78 35.918C1025.78 37.584 1025.39 38.872 1024.59 39.768C1023.79 40.678 1022.73 41.126 1021.4 41.126C1019.77 41.126 1018.5 40.44 1017.87 39.39L1018.88 38.69C1019.44 39.474 1020.46 39.922 1021.56 39.922C1022.47 39.922 1023.2 39.558 1023.78 38.83C1024.35 38.116 1024.59 37.22 1024.52 36.156C1024.06 37.22 1022.89 38.004 1021.34 38.004C1020.25 38.004 1019.35 37.696 1018.65 37.066C1017.94 36.45 1017.59 35.638 1017.59 34.644C1017.59 33.552 1017.97 32.684 1018.72 32.04C1019.48 31.396 1020.49 31.074 1021.73 31.074C1024.25 31.074 1025.78 32.838 1025.78 35.918ZM1024.31 34.602C1024.1 33.3 1023.2 32.278 1021.59 32.278C1019.91 32.278 1018.88 33.146 1018.88 34.602C1018.88 35.988 1019.93 36.8 1021.56 36.8C1022.31 36.8 1022.94 36.576 1023.43 36.128C1023.92 35.68 1024.21 35.176 1024.31 34.602Z" fill="#2A3C3C"/>
<path d="M1007.36 34.434L1006.33 34.07C1006.68 32.334 1008 31.088 1010.09 31.088C1012.1 31.088 1013.33 32.25 1013.33 34.028C1013.33 34.966 1012.93 35.904 1012.42 36.576C1012.17 36.926 1011.85 37.262 1011.47 37.612C1010.7 38.298 1010.16 38.662 1009.36 39.166L1008.28 39.838H1013.7V41H1006.07V40.048L1008.2 38.634C1008.57 38.396 1008.84 38.214 1008.99 38.102C1009.15 38.004 1009.4 37.822 1009.74 37.584C1010.07 37.346 1010.32 37.136 1010.49 36.982C1010.65 36.828 1010.86 36.632 1011.09 36.38C1011.74 35.68 1011.98 35.036 1012.05 34.154C1012.05 32.88 1011.22 32.306 1010 32.306C1009.25 32.306 1008.64 32.516 1008.21 32.936C1007.78 33.356 1007.48 33.86 1007.36 34.434ZM1014.77 40.202C1014.77 39.81 1015.13 39.418 1015.63 39.418C1016.1 39.418 1016.47 39.81 1016.47 40.202C1016.47 40.65 1016.12 41.028 1015.63 41.028C1015.13 41.028 1014.77 40.65 1014.77 40.202ZM1025.78 35.918C1025.78 37.584 1025.39 38.872 1024.59 39.768C1023.79 40.678 1022.73 41.126 1021.4 41.126C1019.77 41.126 1018.5 40.44 1017.87 39.39L1018.88 38.69C1019.44 39.474 1020.46 39.922 1021.56 39.922C1022.47 39.922 1023.2 39.558 1023.78 38.83C1024.35 38.116 1024.59 37.22 1024.52 36.156C1024.06 37.22 1022.89 38.004 1021.34 38.004C1020.25 38.004 1019.35 37.696 1018.65 37.066C1017.94 36.45 1017.59 35.638 1017.59 34.644C1017.59 33.552 1017.97 32.684 1018.72 32.04C1019.48 31.396 1020.49 31.074 1021.73 31.074C1024.25 31.074 1025.78 32.838 1025.78 35.918ZM1024.31 34.602C1024.1 33.3 1023.2 32.278 1021.59 32.278C1019.91 32.278 1018.88 33.146 1018.88 34.602C1018.88 35.988 1019.93 36.8 1021.56 36.8C1022.31 36.8 1022.94 36.576 1023.43 36.128C1023.92 35.68 1024.21 35.176 1024.31 34.602Z" fill="#1A3341"/>
<path d="M992 53C992 51.8954 992.895 51 994 51H1038C1039.1 51 1040 51.8954 1040 53V205H992V53Z" fill="url(#paint28_linear_6001_19089)"/>
<path opacity="0.2" d="M1004 51H1028V205H1004V51Z" fill="url(#paint29_linear_6001_19089)"/>
<path opacity="0.04" d="M1028 51H1038C1039.1 51 1040 51.8954 1040 53V205H1028V51Z" fill="#0D262C"/>
<path opacity="0.5" d="M992 53C992 51.8954 992.895 51 994 51H1004V205H992V53Z" fill="url(#paint30_linear_6001_19089)"/>
<path d="M1071.36 34.434L1070.33 34.07C1070.68 32.334 1072 31.088 1074.09 31.088C1076.1 31.088 1077.33 32.25 1077.33 34.028C1077.33 34.966 1076.93 35.904 1076.42 36.576C1076.17 36.926 1075.85 37.262 1075.47 37.612C1074.7 38.298 1074.16 38.662 1073.36 39.166L1072.28 39.838H1077.7V41H1070.07V40.048L1072.2 38.634C1072.57 38.396 1072.84 38.214 1072.99 38.102C1073.15 38.004 1073.4 37.822 1073.74 37.584C1074.07 37.346 1074.32 37.136 1074.49 36.982C1074.65 36.828 1074.86 36.632 1075.09 36.38C1075.74 35.68 1075.98 35.036 1076.05 34.154C1076.05 32.88 1075.22 32.306 1074 32.306C1073.25 32.306 1072.64 32.516 1072.21 32.936C1071.78 33.356 1071.48 33.86 1071.36 34.434ZM1078.77 40.202C1078.77 39.81 1079.13 39.418 1079.63 39.418C1080.1 39.418 1080.47 39.81 1080.47 40.202C1080.47 40.65 1080.12 41.028 1079.63 41.028C1079.13 41.028 1078.77 40.65 1078.77 40.202ZM1089.78 35.918C1089.78 37.584 1089.39 38.872 1088.59 39.768C1087.79 40.678 1086.73 41.126 1085.4 41.126C1083.77 41.126 1082.5 40.44 1081.87 39.39L1082.88 38.69C1083.44 39.474 1084.46 39.922 1085.56 39.922C1086.47 39.922 1087.2 39.558 1087.78 38.83C1088.35 38.116 1088.59 37.22 1088.52 36.156C1088.06 37.22 1086.89 38.004 1085.34 38.004C1084.25 38.004 1083.35 37.696 1082.65 37.066C1081.94 36.45 1081.59 35.638 1081.59 34.644C1081.59 33.552 1081.97 32.684 1082.72 32.04C1083.48 31.396 1084.49 31.074 1085.73 31.074C1088.25 31.074 1089.78 32.838 1089.78 35.918ZM1088.31 34.602C1088.1 33.3 1087.2 32.278 1085.59 32.278C1083.91 32.278 1082.88 33.146 1082.88 34.602C1082.88 35.988 1083.93 36.8 1085.56 36.8C1086.31 36.8 1086.94 36.576 1087.43 36.128C1087.92 35.68 1088.21 35.176 1088.31 34.602Z" fill="#2A3C3C"/>
<path d="M1071.36 34.434L1070.33 34.07C1070.68 32.334 1072 31.088 1074.09 31.088C1076.1 31.088 1077.33 32.25 1077.33 34.028C1077.33 34.966 1076.93 35.904 1076.42 36.576C1076.17 36.926 1075.85 37.262 1075.47 37.612C1074.7 38.298 1074.16 38.662 1073.36 39.166L1072.28 39.838H1077.7V41H1070.07V40.048L1072.2 38.634C1072.57 38.396 1072.84 38.214 1072.99 38.102C1073.15 38.004 1073.4 37.822 1073.74 37.584C1074.07 37.346 1074.32 37.136 1074.49 36.982C1074.65 36.828 1074.86 36.632 1075.09 36.38C1075.74 35.68 1075.98 35.036 1076.05 34.154C1076.05 32.88 1075.22 32.306 1074 32.306C1073.25 32.306 1072.64 32.516 1072.21 32.936C1071.78 33.356 1071.48 33.86 1071.36 34.434ZM1078.77 40.202C1078.77 39.81 1079.13 39.418 1079.63 39.418C1080.1 39.418 1080.47 39.81 1080.47 40.202C1080.47 40.65 1080.12 41.028 1079.63 41.028C1079.13 41.028 1078.77 40.65 1078.77 40.202ZM1089.78 35.918C1089.78 37.584 1089.39 38.872 1088.59 39.768C1087.79 40.678 1086.73 41.126 1085.4 41.126C1083.77 41.126 1082.5 40.44 1081.87 39.39L1082.88 38.69C1083.44 39.474 1084.46 39.922 1085.56 39.922C1086.47 39.922 1087.2 39.558 1087.78 38.83C1088.35 38.116 1088.59 37.22 1088.52 36.156C1088.06 37.22 1086.89 38.004 1085.34 38.004C1084.25 38.004 1083.35 37.696 1082.65 37.066C1081.94 36.45 1081.59 35.638 1081.59 34.644C1081.59 33.552 1081.97 32.684 1082.72 32.04C1083.48 31.396 1084.49 31.074 1085.73 31.074C1088.25 31.074 1089.78 32.838 1089.78 35.918ZM1088.31 34.602C1088.1 33.3 1087.2 32.278 1085.59 32.278C1083.91 32.278 1082.88 33.146 1082.88 34.602C1082.88 35.988 1083.93 36.8 1085.56 36.8C1086.31 36.8 1086.94 36.576 1087.43 36.128C1087.92 35.68 1088.21 35.176 1088.31 34.602Z" fill="#1A3341"/>
<path opacity="0.4" d="M1056 53C1056 51.8954 1056.9 51 1058 51H1102C1103.1 51 1104 51.8954 1104 53V205H1056V53Z" fill="url(#paint31_linear_6001_19089)"/>
<path opacity="0.2" d="M1068 51H1092V205H1068V51Z" fill="url(#paint32_linear_6001_19089)"/>
<path opacity="0.04" d="M1092 51H1102C1103.1 51 1104 51.8954 1104 53V205H1092V51Z" fill="#0D262C"/>
<path opacity="0.5" d="M1056 53C1056 51.8954 1056.9 51 1058 51H1068V205H1056V53Z" fill="url(#paint33_linear_6001_19089)"/>
<path d="M943.516 13.056L942.466 12.58C942.984 11.068 944.342 10.074 946.372 10.074C947.338 10.074 948.136 10.298 948.752 10.746C949.368 11.194 949.676 11.796 949.676 12.538C949.676 13.672 949.074 14.512 947.954 14.834C949.032 14.904 949.9 15.716 949.9 17.172C949.9 18.096 949.564 18.824 948.892 19.342C948.22 19.86 947.366 20.126 946.316 20.126C944.174 20.126 942.69 19.104 942.2 17.494L943.334 17.004C943.936 18.278 944.958 18.922 946.4 18.922C947.758 18.922 948.612 18.292 948.612 17.186C948.612 16.108 947.772 15.562 946.092 15.562H945V14.4H945.868C947.394 14.4 948.388 13.714 948.388 12.776C948.388 11.81 947.59 11.264 946.316 11.264C944.818 11.264 943.908 12.034 943.516 13.056ZM951.148 19.202C951.148 18.81 951.512 18.418 952.016 18.418C952.478 18.418 952.856 18.81 952.856 19.202C952.856 19.65 952.506 20.028 952.016 20.028C951.512 20.028 951.148 19.65 951.148 19.202ZM954.98 13.056L953.93 12.58C954.448 11.068 955.806 10.074 957.836 10.074C958.802 10.074 959.6 10.298 960.216 10.746C960.832 11.194 961.14 11.796 961.14 12.538C961.14 13.672 960.538 14.512 959.418 14.834C960.496 14.904 961.364 15.716 961.364 17.172C961.364 18.096 961.028 18.824 960.356 19.342C959.684 19.86 958.83 20.126 957.78 20.126C955.638 20.126 954.154 19.104 953.664 17.494L954.798 17.004C955.4 18.278 956.422 18.922 957.864 18.922C959.222 18.922 960.076 18.292 960.076 17.186C960.076 16.108 959.236 15.562 957.556 15.562H956.464V14.4H957.332C958.858 14.4 959.852 13.714 959.852 12.776C959.852 11.81 959.054 11.264 957.78 11.264C956.282 11.264 955.372 12.034 954.98 13.056Z" fill="#2A3C3C"/>
<path d="M943.516 13.056L942.466 12.58C942.984 11.068 944.342 10.074 946.372 10.074C947.338 10.074 948.136 10.298 948.752 10.746C949.368 11.194 949.676 11.796 949.676 12.538C949.676 13.672 949.074 14.512 947.954 14.834C949.032 14.904 949.9 15.716 949.9 17.172C949.9 18.096 949.564 18.824 948.892 19.342C948.22 19.86 947.366 20.126 946.316 20.126C944.174 20.126 942.69 19.104 942.2 17.494L943.334 17.004C943.936 18.278 944.958 18.922 946.4 18.922C947.758 18.922 948.612 18.292 948.612 17.186C948.612 16.108 947.772 15.562 946.092 15.562H945V14.4H945.868C947.394 14.4 948.388 13.714 948.388 12.776C948.388 11.81 947.59 11.264 946.316 11.264C944.818 11.264 943.908 12.034 943.516 13.056ZM951.148 19.202C951.148 18.81 951.512 18.418 952.016 18.418C952.478 18.418 952.856 18.81 952.856 19.202C952.856 19.65 952.506 20.028 952.016 20.028C951.512 20.028 951.148 19.65 951.148 19.202ZM954.98 13.056L953.93 12.58C954.448 11.068 955.806 10.074 957.836 10.074C958.802 10.074 959.6 10.298 960.216 10.746C960.832 11.194 961.14 11.796 961.14 12.538C961.14 13.672 960.538 14.512 959.418 14.834C960.496 14.904 961.364 15.716 961.364 17.172C961.364 18.096 961.028 18.824 960.356 19.342C959.684 19.86 958.83 20.126 957.78 20.126C955.638 20.126 954.154 19.104 953.664 17.494L954.798 17.004C955.4 18.278 956.422 18.922 957.864 18.922C959.222 18.922 960.076 18.292 960.076 17.186C960.076 16.108 959.236 15.562 957.556 15.562H956.464V14.4H957.332C958.858 14.4 959.852 13.714 959.852 12.776C959.852 11.81 959.054 11.264 957.78 11.264C956.282 11.264 955.372 12.034 954.98 13.056Z" fill="#1A3341"/>
<path d="M928 32C928 30.8954 928.895 30 930 30H974C975.105 30 976 30.8954 976 32V205H928V32Z" fill="url(#paint34_linear_6001_19089)"/>
<path opacity="0.2" d="M940 30H964V205H940V30Z" fill="url(#paint35_linear_6001_19089)"/>
<path opacity="0.04" d="M964 30H974C975.105 30 976 30.8954 976 32V205H964V30Z" fill="#0D262C"/>
<path opacity="0.5" d="M928 32C928 30.8954 928.895 30 930 30H940V205H928V32Z" fill="url(#paint36_linear_6001_19089)"/>
<line x1="-4.37114e-08" y1="204.5" x2="1120" y2="204.5" stroke="#ABBEC9"/>
<defs>
<linearGradient id="paint0_linear_6001_19089" x1="0.476191" y1="141" x2="10" y2="141" gradientUnits="userSpaceOnUse">
<stop stop-color="#CEE8EF"/>
<stop offset="1" stop-color="#CEE8EF"/>
</linearGradient>
<linearGradient id="paint1_linear_6001_19089" x1="344" y1="66" x2="344" y2="205" gradientUnits="userSpaceOnUse">
<stop stop-color="#6D73F9"/>
<stop offset="1" stop-color="#9BB8F1"/>
</linearGradient>
<linearGradient id="paint2_linear_6001_19089" x1="344" y1="66" x2="344" y2="205" gradientUnits="userSpaceOnUse">
<stop stop-color="white" stop-opacity="0"/>
<stop offset="0.739583" stop-color="white"/>
</linearGradient>
<linearGradient id="paint3_linear_6001_19089" x1="326" y1="-205.05" x2="326" y2="205" gradientUnits="userSpaceOnUse">
<stop stop-color="white" stop-opacity="0.05"/>
<stop offset="0.75" stop-color="white" stop-opacity="0.8"/>
</linearGradient>
<linearGradient id="paint4_linear_6001_19089" x1="408" y1="77" x2="408" y2="205" gradientUnits="userSpaceOnUse">
<stop stop-color="#6D73F9"/>
<stop offset="1" stop-color="#9BB8F1"/>
</linearGradient>
<linearGradient id="paint5_linear_6001_19089" x1="408" y1="77" x2="408" y2="205" gradientUnits="userSpaceOnUse">
<stop stop-color="white" stop-opacity="0"/>
<stop offset="0.739583" stop-color="white"/>
</linearGradient>
<linearGradient id="paint6_linear_6001_19089" x1="390" y1="-172.6" x2="390" y2="205" gradientUnits="userSpaceOnUse">
<stop stop-color="white" stop-opacity="0.05"/>
<stop offset="0.75" stop-color="white" stop-opacity="0.8"/>
</linearGradient>
<linearGradient id="paint7_linear_6001_19089" x1="280" y1="45" x2="280" y2="205" gradientUnits="userSpaceOnUse">
<stop stop-color="#CDE3E9"/>
<stop offset="1" stop-color="#D3E8ED"/>
</linearGradient>
<linearGradient id="paint8_linear_6001_19089" x1="280" y1="45" x2="280" y2="205" gradientUnits="userSpaceOnUse">
<stop stop-color="white" stop-opacity="0"/>
<stop offset="0.739583" stop-color="white"/>
</linearGradient>
<linearGradient id="paint9_linear_6001_19089" x1="262" y1="-267" x2="262" y2="205" gradientUnits="userSpaceOnUse">
<stop stop-color="white" stop-opacity="0.05"/>
<stop offset="0.75" stop-color="white" stop-opacity="0.8"/>
</linearGradient>
<linearGradient id="paint10_linear_6001_19089" x1="568" y1="40.9999" x2="568" y2="205" gradientUnits="userSpaceOnUse">
<stop stop-color="#6D73F9"/>
<stop offset="1" stop-color="#9BB8F1"/>
</linearGradient>
<linearGradient id="paint11_linear_6001_19089" x1="568" y1="40.9999" x2="568" y2="205" gradientUnits="userSpaceOnUse">
<stop stop-color="white" stop-opacity="0"/>
<stop offset="0.739583" stop-color="white"/>
</linearGradient>
<linearGradient id="paint12_linear_6001_19089" x1="550" y1="-278.8" x2="550" y2="205" gradientUnits="userSpaceOnUse">
<stop stop-color="white" stop-opacity="0.05"/>
<stop offset="0.75" stop-color="white" stop-opacity="0.8"/>
</linearGradient>
<linearGradient id="paint13_linear_6001_19089" x1="632" y1="40.9999" x2="632" y2="205" gradientUnits="userSpaceOnUse">
<stop stop-color="#6D73F9"/>
<stop offset="1" stop-color="#9BB8F1"/>
</linearGradient>
<linearGradient id="paint14_linear_6001_19089" x1="632" y1="40.9999" x2="632" y2="205" gradientUnits="userSpaceOnUse">
<stop stop-color="white" stop-opacity="0"/>
<stop offset="0.739583" stop-color="white"/>
</linearGradient>
<linearGradient id="paint15_linear_6001_19089" x1="614" y1="-278.8" x2="614" y2="205" gradientUnits="userSpaceOnUse">
<stop stop-color="white" stop-opacity="0.05"/>
<stop offset="0.75" stop-color="white" stop-opacity="0.8"/>
</linearGradient>
<linearGradient id="paint16_linear_6001_19089" x1="504" y1="19.9999" x2="504" y2="205" gradientUnits="userSpaceOnUse">
<stop stop-color="#CDE3E9"/>
<stop offset="1" stop-color="#D3E8ED"/>
</linearGradient>
<linearGradient id="paint17_linear_6001_19089" x1="504" y1="19.9999" x2="504" y2="205" gradientUnits="userSpaceOnUse">
<stop stop-color="white" stop-opacity="0"/>
<stop offset="0.739583" stop-color="white"/>
</linearGradient>
<linearGradient id="paint18_linear_6001_19089" x1="486" y1="-340.75" x2="486" y2="205" gradientUnits="userSpaceOnUse">
<stop stop-color="white" stop-opacity="0.05"/>
<stop offset="0.75" stop-color="white" stop-opacity="0.8"/>
</linearGradient>
<linearGradient id="paint19_linear_6001_19089" x1="792" y1="62" x2="792" y2="205" gradientUnits="userSpaceOnUse">
<stop stop-color="#6D73F9"/>
<stop offset="1" stop-color="#9BB8F1"/>
</linearGradient>
<linearGradient id="paint20_linear_6001_19089" x1="792" y1="62" x2="792" y2="205" gradientUnits="userSpaceOnUse">
<stop stop-color="white" stop-opacity="0"/>
<stop offset="0.739583" stop-color="white"/>
</linearGradient>
<linearGradient id="paint21_linear_6001_19089" x1="774" y1="-216.85" x2="774" y2="205" gradientUnits="userSpaceOnUse">
<stop stop-color="white" stop-opacity="0.05"/>
<stop offset="0.75" stop-color="white" stop-opacity="0.8"/>
</linearGradient>
<linearGradient id="paint22_linear_6001_19089" x1="856" y1="78" x2="856" y2="205" gradientUnits="userSpaceOnUse">
<stop stop-color="#6D73F9"/>
<stop offset="1" stop-color="#9BB8F1"/>
</linearGradient>
<linearGradient id="paint23_linear_6001_19089" x1="856" y1="78" x2="856" y2="205" gradientUnits="userSpaceOnUse">
<stop stop-color="white" stop-opacity="0"/>
<stop offset="0.739583" stop-color="white"/>
</linearGradient>
<linearGradient id="paint24_linear_6001_19089" x1="838" y1="-169.65" x2="838" y2="205" gradientUnits="userSpaceOnUse">
<stop stop-color="white" stop-opacity="0.05"/>
<stop offset="0.75" stop-color="white" stop-opacity="0.8"/>
</linearGradient>
<linearGradient id="paint25_linear_6001_19089" x1="728" y1="41" x2="728" y2="205" gradientUnits="userSpaceOnUse">
<stop stop-color="#CDE3E9"/>
<stop offset="1" stop-color="#D3E8ED"/>
</linearGradient>
<linearGradient id="paint26_linear_6001_19089" x1="728" y1="41" x2="728" y2="205" gradientUnits="userSpaceOnUse">
<stop stop-color="white" stop-opacity="0"/>
<stop offset="0.739583" stop-color="white"/>
</linearGradient>
<linearGradient id="paint27_linear_6001_19089" x1="710" y1="-278.8" x2="710" y2="205" gradientUnits="userSpaceOnUse">
<stop stop-color="white" stop-opacity="0.05"/>
<stop offset="0.75" stop-color="white" stop-opacity="0.8"/>
</linearGradient>
<linearGradient id="paint28_linear_6001_19089" x1="1016" y1="51" x2="1016" y2="205" gradientUnits="userSpaceOnUse">
<stop stop-color="#6D73F9"/>
<stop offset="1" stop-color="#9BB8F1"/>
</linearGradient>
<linearGradient id="paint29_linear_6001_19089" x1="1016" y1="51" x2="1016" y2="205" gradientUnits="userSpaceOnUse">
<stop stop-color="white" stop-opacity="0"/>
<stop offset="0.739583" stop-color="white"/>
</linearGradient>
<linearGradient id="paint30_linear_6001_19089" x1="998" y1="-249.3" x2="998" y2="205" gradientUnits="userSpaceOnUse">
<stop stop-color="white" stop-opacity="0.05"/>
<stop offset="0.75" stop-color="white" stop-opacity="0.8"/>
</linearGradient>
<linearGradient id="paint31_linear_6001_19089" x1="1080" y1="51" x2="1080" y2="205" gradientUnits="userSpaceOnUse">
<stop stop-color="#6D73F9"/>
<stop offset="1" stop-color="#9BB8F1"/>
</linearGradient>
<linearGradient id="paint32_linear_6001_19089" x1="1080" y1="51" x2="1080" y2="205" gradientUnits="userSpaceOnUse">
<stop stop-color="white" stop-opacity="0"/>
<stop offset="0.739583" stop-color="white"/>
</linearGradient>
<linearGradient id="paint33_linear_6001_19089" x1="1062" y1="-249.3" x2="1062" y2="205" gradientUnits="userSpaceOnUse">
<stop stop-color="white" stop-opacity="0.05"/>
<stop offset="0.75" stop-color="white" stop-opacity="0.8"/>
</linearGradient>
<linearGradient id="paint34_linear_6001_19089" x1="952" y1="30" x2="952" y2="205" gradientUnits="userSpaceOnUse">
<stop stop-color="#CDE3E9"/>
<stop offset="1" stop-color="#D3E8ED"/>
</linearGradient>
<linearGradient id="paint35_linear_6001_19089" x1="952" y1="30" x2="952" y2="205" gradientUnits="userSpaceOnUse">
<stop stop-color="white" stop-opacity="0"/>
<stop offset="0.739583" stop-color="white"/>
</linearGradient>
<linearGradient id="paint36_linear_6001_19089" x1="934" y1="-311.25" x2="934" y2="205" gradientUnits="userSpaceOnUse">
<stop stop-color="white" stop-opacity="0.05"/>
<stop offset="0.75" stop-color="white" stop-opacity="0.8"/>
</linearGradient>
</defs>
</svg>
