<svg width="3945" height="791" viewBox="0 0 3945 791" fill="none" xmlns="http://www.w3.org/2000/svg">
<path opacity="0.86" d="M2326 405H1252" stroke="url(#paint0_linear_6025_19154)" stroke-width="32.5751"/>
<path opacity="0.86" d="M2326 102L2084.58 102C2038.48 102 1994.54 121.533 1963.66 155.755L1794.01 343.745C1763.13 377.967 1719.19 397.5 1673.09 397.5H1081" stroke="url(#paint1_linear_6025_19154)" stroke-width="34.2039"/>
<path opacity="0.85" d="M2327 233L2276.31 233C2244.6 233 2214.33 246.201 2192.76 269.433L2105.35 363.567C2083.77 386.799 2053.5 400 2021.8 400H1417" stroke="url(#paint2_linear_6025_19154)" stroke-width="22.8026"/>
<path opacity="0.17" d="M3944.5 12H2311.86C2258.49 12 2208.51 38.1496 2178.07 81.9933L2005.9 330.007C1975.46 373.85 1925.47 400 1872.1 400H820" stroke="url(#paint3_linear_6025_19154)" stroke-width="22.8026"/>
<path opacity="0.17" d="M3944.5 784H1938.75C1883.42 784 1831.88 755.914 1801.88 709.422L1665.21 497.578C1635.22 451.086 1583.68 423 1528.35 423H477" stroke="url(#paint4_linear_6025_19154)" stroke-width="13.03"/>
<path opacity="0.86" d="M2327 580.5H2141.02C2110.89 580.5 2082.31 567.185 2062.93 544.123L1980.17 445.657C1958.51 419.882 1926.56 405 1892.89 405H1496" stroke="url(#paint5_linear_6025_19154)" stroke-width="32.5751"/>
<path d="M2327 706L2040.05 706C1970.36 706 1905.08 671.884 1865.28 614.666L1782.99 496.334C1743.19 439.116 1677.91 405 1608.22 405H0" stroke="url(#paint6_linear_6025_19154)" stroke-width="48.8627"/>
<path d="M2395.8 228H2386.26V215.4H2395.62V217.452H2388.44V220.62H2395.15V222.6H2388.44V225.948H2395.8V228ZM2406.14 228H2404.09V226.974C2403.68 227.55 2402.7 228.144 2401.46 228.144C2400.11 228.144 2399.01 227.712 2398.19 226.866C2397.36 226.02 2396.94 224.832 2396.94 223.338C2396.94 221.916 2397.39 220.728 2398.31 219.81C2399.21 218.892 2400.31 218.424 2401.61 218.424C2402.72 218.424 2403.55 218.658 2404.09 219.126V214.86H2406.14V228ZM2401.84 226.236C2402.85 226.236 2403.75 225.552 2404.09 224.778V221.358C2403.6 220.674 2402.9 220.332 2401.95 220.332C2400.31 220.332 2399.07 221.484 2399.07 223.302C2399.07 225.102 2400.18 226.236 2401.84 226.236ZM2414.31 218.586H2416.36V228H2414.31V227.01C2413.63 227.784 2412.76 228.162 2411.7 228.162C2409.09 228.162 2407.81 226.83 2407.81 223.968V218.586H2409.86V223.77C2409.86 225.426 2410.55 226.254 2411.9 226.254C2412.96 226.254 2413.77 225.714 2414.31 224.634V218.586ZM2425.26 224.922L2426.71 225.858C2425.98 227.316 2424.37 228.162 2422.7 228.162C2421.19 228.162 2419.96 227.712 2419.05 226.83C2418.13 225.948 2417.66 224.76 2417.66 223.302C2417.66 221.898 2418.11 220.728 2419.03 219.81C2419.95 218.892 2421.13 218.424 2422.59 218.424C2424.46 218.424 2425.98 219.27 2426.61 220.548L2425.08 221.556C2424.46 220.746 2423.67 220.332 2422.68 220.332C2420.97 220.332 2419.78 221.556 2419.78 223.302C2419.78 224.148 2420.07 224.85 2420.65 225.408C2421.21 225.966 2421.96 226.254 2422.9 226.254C2423.89 226.254 2424.66 225.804 2425.26 224.922ZM2428.61 221.322L2427.6 219.81C2428.48 218.946 2429.99 218.424 2431.52 218.424C2433.97 218.424 2435.36 219.828 2435.36 222.276V228H2433.3V226.974C2432.62 227.73 2431.65 228.108 2430.41 228.108C2428.34 228.108 2427 226.956 2427 225.156C2427 223.158 2428.73 222.186 2431.38 222.186C2432.15 222.186 2432.8 222.276 2433.3 222.438C2433.32 221.016 2432.75 220.332 2431.29 220.332C2430.37 220.332 2429.47 220.656 2428.61 221.322ZM2430.86 226.326C2431.92 226.326 2432.75 225.894 2433.3 225.048V224.148C2432.8 223.986 2432.22 223.896 2431.59 223.896C2429.96 223.896 2429.13 224.31 2429.13 225.138C2429.13 225.876 2429.79 226.326 2430.86 226.326ZM2437.75 220.548H2436.13V218.64H2437.75V216.714H2439.8V218.64H2442.83V220.548H2439.8V224.166C2439.8 225.66 2440.15 226.2 2441.01 226.2C2441.5 226.2 2441.93 225.93 2442.34 225.408L2443.57 226.56C2443.04 227.478 2441.95 228.108 2440.7 228.108C2438.89 228.108 2437.75 226.92 2437.75 224.742V220.548ZM2446.52 228H2444.47V218.64H2446.52V228ZM2444.29 215.958C2444.29 215.328 2444.83 214.878 2445.49 214.878C2446.16 214.878 2446.68 215.364 2446.68 215.958C2446.68 216.606 2446.16 217.074 2445.49 217.074C2444.77 217.074 2444.29 216.606 2444.29 215.958ZM2447.98 223.302C2447.98 221.88 2448.45 220.71 2449.39 219.792C2450.3 218.874 2451.51 218.424 2452.99 218.424C2454.46 218.424 2455.67 218.874 2456.6 219.792C2457.54 220.71 2458.01 221.88 2458.01 223.302C2458.01 224.706 2457.54 225.858 2456.6 226.776C2455.67 227.694 2454.46 228.162 2452.99 228.162C2451.53 228.162 2450.34 227.694 2449.4 226.776C2448.45 225.858 2447.98 224.706 2447.98 223.302ZM2450.11 223.302C2450.11 224.148 2450.38 224.85 2450.92 225.408C2451.44 225.966 2452.14 226.254 2452.99 226.254C2454.71 226.254 2455.88 225.084 2455.88 223.302C2455.88 222.42 2455.61 221.7 2455.06 221.142C2454.5 220.602 2453.81 220.332 2452.99 220.332C2451.31 220.332 2450.11 221.502 2450.11 223.302ZM2461.36 228H2459.31V218.64H2461.36V219.486C2462.06 218.784 2463.03 218.442 2464.24 218.442C2466.74 218.442 2468 219.864 2468 222.708V228H2465.95V222.87C2465.95 221.088 2465.23 220.35 2463.65 220.35C2462.64 220.35 2461.77 220.944 2461.36 221.934V228ZM2470.68 221.322L2469.68 219.81C2470.56 218.946 2472.07 218.424 2473.6 218.424C2476.05 218.424 2477.43 219.828 2477.43 222.276V228H2475.38V226.974C2474.7 227.73 2473.73 228.108 2472.48 228.108C2470.41 228.108 2469.08 226.956 2469.08 225.156C2469.08 223.158 2470.81 222.186 2473.46 222.186C2474.23 222.186 2474.88 222.276 2475.38 222.438C2475.4 221.016 2474.82 220.332 2473.37 220.332C2472.45 220.332 2471.55 220.656 2470.68 221.322ZM2472.93 226.326C2474 226.326 2474.82 225.894 2475.38 225.048V224.148C2474.88 223.986 2474.3 223.896 2473.67 223.896C2472.03 223.896 2471.21 224.31 2471.21 225.138C2471.21 225.876 2471.87 226.326 2472.93 226.326ZM2481.16 228H2479.11V214.86H2481.16V228ZM2394.72 248H2392.67V246.974C2392.25 247.55 2391.28 248.144 2390.04 248.144C2388.69 248.144 2387.59 247.712 2386.76 246.866C2385.94 246.02 2385.52 244.832 2385.52 243.338C2385.52 241.916 2385.97 240.728 2386.89 239.81C2387.79 238.892 2388.89 238.424 2390.18 238.424C2391.3 238.424 2392.13 238.658 2392.67 239.126V234.86H2394.72V248ZM2390.42 246.236C2391.43 246.236 2392.33 245.552 2392.67 244.778V241.358C2392.18 240.674 2391.48 240.332 2390.53 240.332C2388.89 240.332 2387.65 241.484 2387.65 243.302C2387.65 245.102 2388.76 246.236 2390.42 246.236ZM2403.57 245.012L2404.83 246.254C2403.88 247.532 2402.62 248.162 2401.03 248.162C2399.52 248.162 2398.32 247.712 2397.4 246.83C2396.48 245.948 2396.01 244.778 2396.01 243.302C2396.01 241.88 2396.44 240.71 2397.29 239.792C2398.14 238.874 2399.31 238.424 2400.82 238.424C2402.1 238.424 2403.14 238.82 2403.97 239.594C2404.8 240.386 2405.21 241.43 2405.21 242.708C2405.21 243.014 2405.17 243.464 2405.1 244.022H2398.15C2398.32 245.462 2399.47 246.254 2401.07 246.254C2402.13 246.254 2402.96 245.84 2403.57 245.012ZM2400.73 240.278C2399.36 240.278 2398.44 241.016 2398.17 242.24H2403.09C2402.92 240.962 2402.08 240.278 2400.73 240.278ZM2412.73 238.64H2414.91L2410.75 248H2409.24L2404.88 238.64H2407.2L2410.03 244.886L2412.73 238.64ZM2422.07 245.012L2423.33 246.254C2422.38 247.532 2421.12 248.162 2419.54 248.162C2418.02 248.162 2416.82 247.712 2415.9 246.83C2414.98 245.948 2414.51 244.778 2414.51 243.302C2414.51 241.88 2414.95 240.71 2415.79 239.792C2416.64 238.874 2417.81 238.424 2419.32 238.424C2420.6 238.424 2421.64 238.82 2422.47 239.594C2423.3 240.386 2423.71 241.43 2423.71 242.708C2423.71 243.014 2423.68 243.464 2423.6 244.022H2416.66C2416.82 245.462 2417.97 246.254 2419.57 246.254C2420.63 246.254 2421.46 245.84 2422.07 245.012ZM2419.23 240.278C2417.86 240.278 2416.94 241.016 2416.67 242.24H2421.59C2421.43 240.962 2420.58 240.278 2419.23 240.278ZM2427.07 248H2425.01V234.86H2427.07V248ZM2428.36 243.302C2428.36 241.88 2428.82 240.71 2429.76 239.792C2430.68 238.874 2431.88 238.424 2433.36 238.424C2434.84 238.424 2436.04 238.874 2436.98 239.792C2437.91 240.71 2438.38 241.88 2438.38 243.302C2438.38 244.706 2437.91 245.858 2436.98 246.776C2436.04 247.694 2434.84 248.162 2433.36 248.162C2431.9 248.162 2430.71 247.694 2429.78 246.776C2428.82 245.858 2428.36 244.706 2428.36 243.302ZM2430.48 243.302C2430.48 244.148 2430.75 244.85 2431.29 245.408C2431.81 245.966 2432.51 246.254 2433.36 246.254C2435.09 246.254 2436.26 245.084 2436.26 243.302C2436.26 242.42 2435.99 241.7 2435.43 241.142C2434.87 240.602 2434.19 240.332 2433.36 240.332C2431.69 240.332 2430.48 241.502 2430.48 243.302ZM2441.73 251.6H2439.68V238.64H2441.73V239.486C2442.29 238.784 2443.32 238.424 2444.33 238.424C2445.71 238.424 2446.83 238.856 2447.64 239.738C2448.45 240.62 2448.86 241.754 2448.86 243.158C2448.86 244.616 2448.43 245.804 2447.57 246.74C2446.7 247.694 2445.57 248.162 2444.18 248.162C2442.98 248.162 2442.15 247.91 2441.73 247.388V251.6ZM2444.11 240.332C2442.98 240.332 2442.15 240.98 2441.73 241.862V245.102C2442.18 245.876 2442.92 246.254 2443.95 246.254C2445.62 246.254 2446.74 245.066 2446.74 243.32C2446.74 241.448 2445.75 240.332 2444.11 240.332ZM2463.62 241.79V248H2461.57V242.366C2461.57 241.016 2461.04 240.35 2460 240.35C2459.05 240.35 2458.34 240.836 2457.91 241.79V248H2455.86V241.916C2455.86 240.98 2455.28 240.35 2454.33 240.35C2453.32 240.35 2452.55 241.07 2452.21 241.88V248H2450.15V238.64H2452.21V239.45C2452.69 238.784 2453.54 238.442 2454.76 238.442C2455.93 238.442 2456.78 238.82 2457.3 239.594C2457.95 238.82 2458.88 238.442 2460.13 238.442C2462.34 238.442 2463.62 239.558 2463.62 241.79ZM2472.41 245.012L2473.67 246.254C2472.72 247.532 2471.46 248.162 2469.88 248.162C2468.36 248.162 2467.16 247.712 2466.24 246.83C2465.32 245.948 2464.85 244.778 2464.85 243.302C2464.85 241.88 2465.29 240.71 2466.13 239.792C2466.98 238.874 2468.15 238.424 2469.66 238.424C2470.94 238.424 2471.98 238.82 2472.81 239.594C2473.64 240.386 2474.05 241.43 2474.05 242.708C2474.05 243.014 2474.02 243.464 2473.94 244.022H2467C2467.16 245.462 2468.31 246.254 2469.91 246.254C2470.97 246.254 2471.8 245.84 2472.41 245.012ZM2469.57 240.278C2468.2 240.278 2467.28 241.016 2467.01 242.24H2471.93C2471.77 240.962 2470.92 240.278 2469.57 240.278ZM2477.41 248H2475.35V238.64H2477.41V239.486C2478.11 238.784 2479.08 238.442 2480.29 238.442C2482.79 238.442 2484.05 239.864 2484.05 242.708V248H2482V242.87C2482 241.088 2481.28 240.35 2479.69 240.35C2478.68 240.35 2477.82 240.944 2477.41 241.934V248ZM2486.44 240.548H2484.82V238.64H2486.44V236.714H2488.49V238.64H2491.52V240.548H2488.49V244.166C2488.49 245.66 2488.83 246.2 2489.7 246.2C2490.18 246.2 2490.62 245.93 2491.03 245.408L2492.25 246.56C2491.73 247.478 2490.63 248.108 2489.39 248.108C2487.57 248.108 2486.44 246.92 2486.44 244.742V240.548Z" fill="#3C525E"/>
<path d="M2395.8 406H2386.26V393.4H2395.62V395.452H2388.44V398.62H2395.15V400.6H2388.44V403.948H2395.8V406ZM2399.43 406H2397.38V396.64H2399.43V397.486C2400.13 396.784 2401.1 396.442 2402.31 396.442C2404.81 396.442 2406.07 397.864 2406.07 400.708V406H2404.02V400.87C2404.02 399.088 2403.3 398.35 2401.71 398.35C2400.71 398.35 2399.84 398.944 2399.43 399.934V406ZM2414.29 396.64H2416.47L2412.31 406H2410.8L2406.45 396.64H2408.77L2411.59 402.886L2414.29 396.64ZM2419.13 406H2417.08V396.64H2419.13V406ZM2416.9 393.958C2416.9 393.328 2417.44 392.878 2418.1 392.878C2418.77 392.878 2419.29 393.364 2419.29 393.958C2419.29 394.606 2418.77 395.074 2418.1 395.074C2417.38 395.074 2416.9 394.606 2416.9 393.958ZM2423.08 406H2421.02V396.64H2423.08V397.27C2423.31 396.784 2424.07 396.442 2424.77 396.442C2425.58 396.442 2426.19 396.712 2426.62 397.27L2425.45 398.764C2425.27 398.494 2424.97 398.35 2424.52 398.35C2423.85 398.35 2423.29 398.818 2423.08 399.664V406ZM2426.48 401.302C2426.48 399.88 2426.94 398.71 2427.88 397.792C2428.8 396.874 2430 396.424 2431.48 396.424C2432.96 396.424 2434.16 396.874 2435.1 397.792C2436.03 398.71 2436.5 399.88 2436.5 401.302C2436.5 402.706 2436.03 403.858 2435.1 404.776C2434.16 405.694 2432.96 406.162 2431.48 406.162C2430.02 406.162 2428.83 405.694 2427.9 404.776C2426.94 403.858 2426.48 402.706 2426.48 401.302ZM2428.6 401.302C2428.6 402.148 2428.87 402.85 2429.41 403.408C2429.93 403.966 2430.63 404.254 2431.48 404.254C2433.21 404.254 2434.38 403.084 2434.38 401.302C2434.38 400.42 2434.11 399.7 2433.55 399.142C2432.99 398.602 2432.31 398.332 2431.48 398.332C2429.81 398.332 2428.6 399.502 2428.6 401.302ZM2439.85 406H2437.8V396.64H2439.85V397.486C2440.56 396.784 2441.53 396.442 2442.73 396.442C2445.24 396.442 2446.5 397.864 2446.5 400.708V406H2444.44V400.87C2444.44 399.088 2443.72 398.35 2442.14 398.35C2441.13 398.35 2440.27 398.944 2439.85 399.934V406ZM2461.63 399.79V406H2459.58V400.366C2459.58 399.016 2459.06 398.35 2458.01 398.35C2457.06 398.35 2456.36 398.836 2455.93 399.79V406H2453.87V399.916C2453.87 398.98 2453.3 398.35 2452.34 398.35C2451.34 398.35 2450.56 399.07 2450.22 399.88V406H2448.17V396.64H2450.22V397.45C2450.71 396.784 2451.55 396.442 2452.78 396.442C2453.95 396.442 2454.79 396.82 2455.31 397.594C2455.96 396.82 2456.9 396.442 2458.14 396.442C2460.35 396.442 2461.63 397.558 2461.63 399.79ZM2470.43 403.012L2471.69 404.254C2470.73 405.532 2469.47 406.162 2467.89 406.162C2466.38 406.162 2465.17 405.712 2464.25 404.83C2463.34 403.948 2462.87 402.778 2462.87 401.302C2462.87 399.88 2463.3 398.71 2464.15 397.792C2464.99 396.874 2466.16 396.424 2467.67 396.424C2468.95 396.424 2470 396.82 2470.82 397.594C2471.65 398.386 2472.07 399.43 2472.07 400.708C2472.07 401.014 2472.03 401.464 2471.96 402.022H2465.01C2465.17 403.462 2466.32 404.254 2467.93 404.254C2468.99 404.254 2469.82 403.84 2470.43 403.012ZM2467.58 398.278C2466.22 398.278 2465.3 399.016 2465.03 400.24H2469.94C2469.78 398.962 2468.93 398.278 2467.58 398.278ZM2475.42 406H2473.37V396.64H2475.42V397.486C2476.12 396.784 2477.09 396.442 2478.3 396.442C2480.8 396.442 2482.06 397.864 2482.06 400.708V406H2480.01V400.87C2480.01 399.088 2479.29 398.35 2477.71 398.35C2476.7 398.35 2475.83 398.944 2475.42 399.934V406ZM2484.45 398.548H2482.83V396.64H2484.45V394.714H2486.51V396.64H2489.53V398.548H2486.51V402.166C2486.51 403.66 2486.85 404.2 2487.71 404.2C2488.2 404.2 2488.63 403.93 2489.04 403.408L2490.27 404.56C2489.75 405.478 2488.65 406.108 2487.41 406.108C2485.59 406.108 2484.45 404.92 2484.45 402.742V398.548ZM2492 399.322L2490.99 397.81C2491.87 396.946 2493.38 396.424 2494.91 396.424C2497.36 396.424 2498.75 397.828 2498.75 400.276V406H2496.7V404.974C2496.01 405.73 2495.04 406.108 2493.8 406.108C2491.73 406.108 2490.4 404.956 2490.4 403.156C2490.4 401.158 2492.12 400.186 2494.77 400.186C2495.54 400.186 2496.19 400.276 2496.7 400.438C2496.71 399.016 2496.14 398.332 2494.68 398.332C2493.76 398.332 2492.86 398.656 2492 399.322ZM2494.25 404.326C2495.31 404.326 2496.14 403.894 2496.7 403.048V402.148C2496.19 401.986 2495.62 401.896 2494.99 401.896C2493.35 401.896 2492.52 402.31 2492.52 403.138C2492.52 403.876 2493.19 404.326 2494.25 404.326ZM2502.48 406H2500.42V392.86H2502.48V406ZM2388.01 429.6H2385.95V416.64H2388.01V417.486C2388.56 416.784 2389.59 416.424 2390.6 416.424C2391.98 416.424 2393.1 416.856 2393.91 417.738C2394.72 418.62 2395.13 419.754 2395.13 421.158C2395.13 422.616 2394.7 423.804 2393.84 424.74C2392.97 425.694 2391.84 426.162 2390.45 426.162C2389.25 426.162 2388.42 425.91 2388.01 425.388V429.6ZM2390.38 418.332C2389.25 418.332 2388.42 418.98 2388.01 419.862V423.102C2388.46 423.876 2389.19 424.254 2390.22 424.254C2391.89 424.254 2393.01 423.066 2393.01 421.32C2393.01 419.448 2392.02 418.332 2390.38 418.332ZM2398.48 426H2396.43V416.64H2398.48V417.27C2398.71 416.784 2399.47 416.442 2400.17 416.442C2400.98 416.442 2401.59 416.712 2402.02 417.27L2400.85 418.764C2400.67 418.494 2400.37 418.35 2399.92 418.35C2399.25 418.35 2398.69 418.818 2398.48 419.664V426ZM2401.88 421.302C2401.88 419.88 2402.35 418.71 2403.28 417.792C2404.2 416.874 2405.41 416.424 2406.88 416.424C2408.36 416.424 2409.56 416.874 2410.5 417.792C2411.44 418.71 2411.9 419.88 2411.9 421.302C2411.9 422.706 2411.44 423.858 2410.5 424.776C2409.56 425.694 2408.36 426.162 2406.88 426.162C2405.42 426.162 2404.24 425.694 2403.3 424.776C2402.35 423.858 2401.88 422.706 2401.88 421.302ZM2404 421.302C2404 422.148 2404.27 422.85 2404.81 423.408C2405.33 423.966 2406.04 424.254 2406.88 424.254C2408.61 424.254 2409.78 423.084 2409.78 421.302C2409.78 420.42 2409.51 419.7 2408.95 419.142C2408.39 418.602 2407.71 418.332 2406.88 418.332C2405.21 418.332 2404 419.502 2404 421.302ZM2413.93 418.548H2412.31V416.64H2413.93V414.714H2415.98V416.64H2419V418.548H2415.98V422.166C2415.98 423.66 2416.32 424.2 2417.18 424.2C2417.67 424.2 2418.1 423.93 2418.52 423.408L2419.74 424.56C2419.22 425.478 2418.12 426.108 2416.88 426.108C2415.06 426.108 2413.93 424.92 2413.93 422.742V418.548ZM2427.2 423.012L2428.46 424.254C2427.51 425.532 2426.25 426.162 2424.66 426.162C2423.15 426.162 2421.95 425.712 2421.03 424.83C2420.11 423.948 2419.64 422.778 2419.64 421.302C2419.64 419.88 2420.07 418.71 2420.92 417.792C2421.77 416.874 2422.94 416.424 2424.45 416.424C2425.73 416.424 2426.77 416.82 2427.6 417.594C2428.43 418.386 2428.84 419.43 2428.84 420.708C2428.84 421.014 2428.8 421.464 2428.73 422.022H2421.78C2421.95 423.462 2423.1 424.254 2424.7 424.254C2425.76 424.254 2426.59 423.84 2427.2 423.012ZM2424.36 418.278C2422.99 418.278 2422.07 419.016 2421.8 420.24H2426.72C2426.55 418.962 2425.71 418.278 2424.36 418.278ZM2437.13 422.922L2438.59 423.858C2437.85 425.316 2436.25 426.162 2434.57 426.162C2433.06 426.162 2431.84 425.712 2430.92 424.83C2430 423.948 2429.53 422.76 2429.53 421.302C2429.53 419.898 2429.98 418.728 2430.9 417.81C2431.82 416.892 2433.01 416.424 2434.47 416.424C2436.34 416.424 2437.85 417.27 2438.48 418.548L2436.95 419.556C2436.34 418.746 2435.55 418.332 2434.56 418.332C2432.85 418.332 2431.66 419.556 2431.66 421.302C2431.66 422.148 2431.95 422.85 2432.52 423.408C2433.08 423.966 2433.84 424.254 2434.77 424.254C2435.76 424.254 2436.54 423.804 2437.13 422.922ZM2440.19 418.548H2438.57V416.64H2440.19V414.714H2442.24V416.64H2445.27V418.548H2442.24V422.166C2442.24 423.66 2442.59 424.2 2443.45 424.2C2443.94 424.2 2444.37 423.93 2444.78 423.408L2446.01 424.56C2445.48 425.478 2444.39 426.108 2443.14 426.108C2441.33 426.108 2440.19 424.92 2440.19 422.742V418.548ZM2448.96 426H2446.91V416.64H2448.96V426ZM2446.73 413.958C2446.73 413.328 2447.27 412.878 2447.93 412.878C2448.6 412.878 2449.12 413.364 2449.12 413.958C2449.12 414.606 2448.6 415.074 2447.93 415.074C2447.21 415.074 2446.73 414.606 2446.73 413.958ZM2450.42 421.302C2450.42 419.88 2450.89 418.71 2451.83 417.792C2452.74 416.874 2453.95 416.424 2455.43 416.424C2456.9 416.424 2458.11 416.874 2459.04 417.792C2459.98 418.71 2460.45 419.88 2460.45 421.302C2460.45 422.706 2459.98 423.858 2459.04 424.776C2458.11 425.694 2456.9 426.162 2455.43 426.162C2453.97 426.162 2452.78 425.694 2451.84 424.776C2450.89 423.858 2450.42 422.706 2450.42 421.302ZM2452.55 421.302C2452.55 422.148 2452.82 422.85 2453.36 423.408C2453.88 423.966 2454.58 424.254 2455.43 424.254C2457.15 424.254 2458.32 423.084 2458.32 421.302C2458.32 420.42 2458.05 419.7 2457.5 419.142C2456.94 418.602 2456.25 418.332 2455.43 418.332C2453.75 418.332 2452.55 419.502 2452.55 421.302ZM2463.8 426H2461.75V416.64H2463.8V417.486C2464.5 416.784 2465.47 416.442 2466.68 416.442C2469.18 416.442 2470.44 417.864 2470.44 420.708V426H2468.39V420.87C2468.39 419.088 2467.67 418.35 2466.09 418.35C2465.08 418.35 2464.21 418.944 2463.8 419.934V426Z" fill="#3C525E"/>
<path d="M2393.57 697.58C2393.57 694.736 2385.79 696.428 2385.79 691.82C2385.79 690.83 2386.26 689.984 2387.2 689.282C2388.11 688.598 2389.3 688.256 2390.72 688.256C2392.79 688.256 2394.43 688.85 2395.6 690.056L2394.41 691.604C2393.35 690.722 2392.11 690.29 2390.67 690.29C2389.18 690.29 2388.04 690.776 2388.04 691.766C2388.04 693.08 2389.99 693.242 2391.93 693.8C2393.28 694.196 2394.47 694.556 2395.24 695.564C2395.62 696.086 2395.82 696.698 2395.82 697.418C2395.82 698.516 2395.35 699.398 2394.41 700.1C2393.48 700.802 2392.33 701.144 2390.98 701.144C2389.88 701.144 2388.82 700.928 2387.79 700.478C2386.76 700.046 2385.99 699.506 2385.43 698.84L2386.73 697.31C2387.86 698.516 2389.36 699.11 2391.17 699.11C2392.69 699.11 2393.57 698.534 2393.57 697.58ZM2403.57 691.586H2405.63V701H2403.57V700.01C2402.89 700.784 2402.03 701.162 2400.96 701.162C2398.35 701.162 2397.08 699.83 2397.08 696.968V691.586H2399.13V696.77C2399.13 698.426 2399.81 699.254 2401.16 699.254C2402.22 699.254 2403.03 698.714 2403.57 697.634V691.586ZM2409.41 704.6H2407.36V691.64H2409.41V692.486C2409.97 691.784 2410.99 691.424 2412 691.424C2413.39 691.424 2414.5 691.856 2415.31 692.738C2416.12 693.62 2416.54 694.754 2416.54 696.158C2416.54 697.616 2416.1 698.804 2415.24 699.74C2414.38 700.694 2413.24 701.162 2411.86 701.162C2410.65 701.162 2409.82 700.91 2409.41 700.388V704.6ZM2411.78 693.332C2410.65 693.332 2409.82 693.98 2409.41 694.862V698.102C2409.86 698.876 2410.6 699.254 2411.62 699.254C2413.3 699.254 2414.41 698.066 2414.41 696.32C2414.41 694.448 2413.42 693.332 2411.78 693.332ZM2419.88 704.6H2417.83V691.64H2419.88V692.486C2420.44 691.784 2421.46 691.424 2422.47 691.424C2423.86 691.424 2424.97 691.856 2425.78 692.738C2426.59 693.62 2427.01 694.754 2427.01 696.158C2427.01 697.616 2426.58 698.804 2425.71 699.74C2424.85 700.694 2423.71 701.162 2422.33 701.162C2421.12 701.162 2420.29 700.91 2419.88 700.388V704.6ZM2422.26 693.332C2421.12 693.332 2420.29 693.98 2419.88 694.862V698.102C2420.33 698.876 2421.07 699.254 2422.09 699.254C2423.77 699.254 2424.88 698.066 2424.88 696.32C2424.88 694.448 2423.89 693.332 2422.26 693.332ZM2427.87 696.302C2427.87 694.88 2428.34 693.71 2429.27 692.792C2430.19 691.874 2431.4 691.424 2432.87 691.424C2434.35 691.424 2435.55 691.874 2436.49 692.792C2437.43 693.71 2437.89 694.88 2437.89 696.302C2437.89 697.706 2437.43 698.858 2436.49 699.776C2435.55 700.694 2434.35 701.162 2432.87 701.162C2431.41 701.162 2430.23 700.694 2429.29 699.776C2428.34 698.858 2427.87 697.706 2427.87 696.302ZM2429.99 696.302C2429.99 697.148 2430.26 697.85 2430.8 698.408C2431.32 698.966 2432.03 699.254 2432.87 699.254C2434.6 699.254 2435.77 698.084 2435.77 696.302C2435.77 695.42 2435.5 694.7 2434.94 694.142C2434.38 693.602 2433.7 693.332 2432.87 693.332C2431.2 693.332 2429.99 694.502 2429.99 696.302ZM2441.25 701H2439.19V691.64H2441.25V692.27C2441.48 691.784 2442.24 691.442 2442.94 691.442C2443.75 691.442 2444.36 691.712 2444.79 692.27L2443.62 693.764C2443.44 693.494 2443.14 693.35 2442.69 693.35C2442.02 693.35 2441.46 693.818 2441.25 694.664V701ZM2446.27 693.548H2444.65V691.64H2446.27V689.714H2448.33V691.64H2451.35V693.548H2448.33V697.166C2448.33 698.66 2448.67 699.2 2449.53 699.2C2450.02 699.2 2450.45 698.93 2450.86 698.408L2452.09 699.56C2451.57 700.478 2450.47 701.108 2449.23 701.108C2447.41 701.108 2446.27 699.92 2446.27 697.742V693.548ZM2457.5 693.548H2455.98V691.64H2457.5V691.334C2457.5 688.832 2458.9 687.716 2460.77 687.716C2461.78 687.716 2462.7 688.148 2463.18 688.814L2462.03 690.11C2461.76 689.786 2461.38 689.624 2460.88 689.624C2460 689.624 2459.55 690.218 2459.55 691.388V691.64H2462.18V693.548H2459.55V701H2457.5V693.548ZM2462.18 696.302C2462.18 694.88 2462.65 693.71 2463.58 692.792C2464.5 691.874 2465.71 691.424 2467.18 691.424C2468.66 691.424 2469.86 691.874 2470.8 692.792C2471.74 693.71 2472.2 694.88 2472.2 696.302C2472.2 697.706 2471.74 698.858 2470.8 699.776C2469.86 700.694 2468.66 701.162 2467.18 701.162C2465.72 701.162 2464.54 700.694 2463.6 699.776C2462.65 698.858 2462.18 697.706 2462.18 696.302ZM2464.3 696.302C2464.3 697.148 2464.57 697.85 2465.11 698.408C2465.63 698.966 2466.34 699.254 2467.18 699.254C2468.91 699.254 2470.08 698.084 2470.08 696.302C2470.08 695.42 2469.81 694.7 2469.25 694.142C2468.69 693.602 2468.01 693.332 2467.18 693.332C2465.51 693.332 2464.3 694.502 2464.3 696.302ZM2475.56 701H2473.5V691.64H2475.56V692.27C2475.79 691.784 2476.55 691.442 2477.25 691.442C2478.06 691.442 2478.67 691.712 2479.1 692.27L2477.93 693.764C2477.75 693.494 2477.45 693.35 2477 693.35C2476.33 693.35 2475.77 693.818 2475.56 694.664V701ZM2388.19 721H2386.13V711.64H2388.19V721ZM2385.95 708.958C2385.95 708.328 2386.49 707.878 2387.16 707.878C2387.83 707.878 2388.35 708.364 2388.35 708.958C2388.35 709.606 2387.83 710.074 2387.16 710.074C2386.44 710.074 2385.95 709.606 2385.95 708.958ZM2392.13 721H2390.08V711.64H2392.13V712.486C2392.83 711.784 2393.81 711.442 2395.01 711.442C2397.51 711.442 2398.77 712.864 2398.77 715.708V721H2396.72V715.87C2396.72 714.088 2396 713.35 2394.42 713.35C2393.41 713.35 2392.55 713.944 2392.13 714.934V721ZM2409.21 721H2407.16V719.974C2406.75 720.55 2405.78 721.144 2404.53 721.144C2403.18 721.144 2402.09 720.712 2401.26 719.866C2400.43 719.02 2400.02 717.832 2400.02 716.338C2400.02 714.916 2400.47 713.728 2401.38 712.81C2402.28 711.892 2403.38 711.424 2404.68 711.424C2405.79 711.424 2406.62 711.658 2407.16 712.126V707.86H2409.21V721ZM2404.91 719.236C2405.92 719.236 2406.82 718.552 2407.16 717.778V714.358C2406.68 713.674 2405.97 713.332 2405.02 713.332C2403.38 713.332 2402.14 714.484 2402.14 716.302C2402.14 718.102 2403.26 719.236 2404.91 719.236ZM2417.38 711.586H2419.43V721H2417.38V720.01C2416.7 720.784 2415.83 721.162 2414.77 721.162C2412.16 721.162 2410.88 719.83 2410.88 716.968V711.586H2412.94V716.77C2412.94 718.426 2413.62 719.254 2414.97 719.254C2416.03 719.254 2416.84 718.714 2417.38 717.634V711.586ZM2426.62 718.336C2426.62 717.562 2424.57 717.256 2422.96 716.662C2421.85 716.248 2420.95 715.384 2420.95 714.214C2420.95 712.486 2422.41 711.424 2424.8 711.424C2426.4 711.424 2427.93 712.162 2428.58 713.08L2427.18 714.412C2426.55 713.692 2425.65 713.332 2424.46 713.332C2423.54 713.332 2423.07 713.62 2423.07 714.178C2423.07 715.456 2428.74 715.042 2428.74 718.318C2428.74 719.254 2428.38 719.956 2427.64 720.442C2426.91 720.928 2425.99 721.162 2424.89 721.162C2422.87 721.162 2421.25 720.226 2420.55 718.912L2422.17 717.796C2422.69 718.642 2423.88 719.254 2425.09 719.254C2425.95 719.254 2426.62 718.966 2426.62 718.336ZM2430.63 713.548H2429.01V711.64H2430.63V709.714H2432.69V711.64H2435.71V713.548H2432.69V717.166C2432.69 718.66 2433.03 719.2 2433.89 719.2C2434.38 719.2 2434.81 718.93 2435.22 718.408L2436.45 719.56C2435.93 720.478 2434.83 721.108 2433.59 721.108C2431.77 721.108 2430.63 719.92 2430.63 717.742V713.548ZM2439.22 721H2437.17V711.64H2439.22V712.27C2439.45 711.784 2440.21 711.442 2440.91 711.442C2441.72 711.442 2442.33 711.712 2442.77 712.27L2441.6 713.764C2441.42 713.494 2441.11 713.35 2440.66 713.35C2439.99 713.35 2439.44 713.818 2439.22 714.664V721ZM2443.92 724.492L2444.73 722.746C2444.86 722.818 2444.99 722.854 2445.15 722.854C2445.71 722.854 2446.21 722.332 2446.62 721.288L2446.95 720.442L2442.34 711.64H2444.72L2447.94 717.958L2450.42 711.64H2452.62L2448.95 720.73C2448.32 722.26 2447.74 723.304 2447.2 723.898C2446.64 724.474 2445.99 724.762 2445.22 724.762C2444.72 724.762 2444.28 724.672 2443.92 724.492ZM2463.84 711.64H2466.01L2461.86 721H2460.34L2455.99 711.64H2458.31L2461.14 717.886L2463.84 711.64ZM2473.18 718.012L2474.44 719.254C2473.48 720.532 2472.22 721.162 2470.64 721.162C2469.13 721.162 2467.92 720.712 2467 719.83C2466.09 718.948 2465.62 717.778 2465.62 716.302C2465.62 714.88 2466.05 713.71 2466.9 712.792C2467.74 711.874 2468.91 711.424 2470.42 711.424C2471.7 711.424 2472.75 711.82 2473.57 712.594C2474.4 713.386 2474.82 714.43 2474.82 715.708C2474.82 716.014 2474.78 716.464 2474.71 717.022H2467.76C2467.92 718.462 2469.07 719.254 2470.68 719.254C2471.74 719.254 2472.57 718.84 2473.18 718.012ZM2470.33 713.278C2468.97 713.278 2468.05 714.016 2467.78 715.24H2472.69C2472.53 713.962 2471.68 713.278 2470.33 713.278ZM2476.84 713.548H2475.22V711.64H2476.84V709.714H2478.89V711.64H2481.91V713.548H2478.89V717.166C2478.89 718.66 2479.23 719.2 2480.1 719.2C2480.58 719.2 2481.01 718.93 2481.43 718.408L2482.65 719.56C2482.13 720.478 2481.03 721.108 2479.79 721.108C2477.97 721.108 2476.84 719.92 2476.84 717.742V713.548ZM2490.12 718.012L2491.38 719.254C2490.42 720.532 2489.16 721.162 2487.58 721.162C2486.07 721.162 2484.86 720.712 2483.94 719.83C2483.02 718.948 2482.56 717.778 2482.56 716.302C2482.56 714.88 2482.99 713.71 2483.83 712.792C2484.68 711.874 2485.85 711.424 2487.36 711.424C2488.64 711.424 2489.68 711.82 2490.51 712.594C2491.34 713.386 2491.75 714.43 2491.75 715.708C2491.75 716.014 2491.72 716.464 2491.65 717.022H2484.7C2484.86 718.462 2486.01 719.254 2487.61 719.254C2488.68 719.254 2489.5 718.84 2490.12 718.012ZM2487.27 713.278C2485.9 713.278 2484.99 714.016 2484.72 715.24H2489.63C2489.47 713.962 2488.62 713.278 2487.27 713.278ZM2495.11 721H2493.06V711.64H2495.11V712.27C2495.34 711.784 2496.1 711.442 2496.8 711.442C2497.61 711.442 2498.22 711.712 2498.65 712.27L2497.48 713.764C2497.3 713.494 2497 713.35 2496.55 713.35C2495.88 713.35 2495.32 713.818 2495.11 714.664V721ZM2500.42 714.322L2499.41 712.81C2500.3 711.946 2501.81 711.424 2503.34 711.424C2505.79 711.424 2507.17 712.828 2507.17 715.276V721H2505.12V719.974C2504.44 720.73 2503.46 721.108 2502.22 721.108C2500.15 721.108 2498.82 719.956 2498.82 718.156C2498.82 716.158 2500.55 715.186 2503.19 715.186C2503.97 715.186 2504.62 715.276 2505.12 715.438C2505.14 714.016 2504.56 713.332 2503.1 713.332C2502.19 713.332 2501.29 713.656 2500.42 714.322ZM2502.67 719.326C2503.73 719.326 2504.56 718.894 2505.12 718.048V717.148C2504.62 716.986 2504.04 716.896 2503.41 716.896C2501.77 716.896 2500.94 717.31 2500.94 718.138C2500.94 718.876 2501.61 719.326 2502.67 719.326ZM2510.9 721H2508.85V711.64H2510.9V712.486C2511.6 711.784 2512.58 711.442 2513.78 711.442C2516.28 711.442 2517.54 712.864 2517.54 715.708V721H2515.49V715.87C2515.49 714.088 2514.77 713.35 2513.19 713.35C2512.18 713.35 2511.32 713.944 2510.9 714.934V721ZM2524.67 718.336C2524.67 717.562 2522.62 717.256 2521.02 716.662C2519.9 716.248 2519 715.384 2519 714.214C2519 712.486 2520.46 711.424 2522.85 711.424C2524.45 711.424 2525.98 712.162 2526.63 713.08L2525.23 714.412C2524.6 713.692 2523.7 713.332 2522.51 713.332C2521.59 713.332 2521.12 713.62 2521.12 714.178C2521.12 715.456 2526.79 715.042 2526.79 718.318C2526.79 719.254 2526.43 719.956 2525.7 720.442C2524.96 720.928 2524.04 721.162 2522.94 721.162C2520.93 721.162 2519.31 720.226 2518.6 718.912L2520.22 717.796C2520.75 718.642 2521.93 719.254 2523.14 719.254C2524 719.254 2524.67 718.966 2524.67 718.336Z" fill="#3C525E"/>
<path d="M2395.91 573.4L2397.19 574.804C2396.16 576.262 2394.23 577.144 2392.07 577.144C2390.09 577.144 2388.53 576.55 2387.36 575.38C2386.19 574.21 2385.59 572.662 2385.59 570.7C2385.59 568.864 2386.19 567.334 2387.38 566.092C2388.56 564.868 2390.11 564.256 2392.04 564.256C2394.25 564.256 2396.11 565.138 2396.99 566.434L2395.55 567.802C2394.67 566.83 2393.53 566.344 2392.15 566.344C2390.85 566.344 2389.81 566.74 2389.03 567.532C2388.26 568.324 2387.86 569.386 2387.86 570.7C2387.86 572.014 2388.28 573.058 2389.09 573.85C2389.9 574.66 2390.94 575.056 2392.24 575.056C2393.77 575.056 2394.99 574.498 2395.91 573.4ZM2400.29 577H2398.24V563.86H2400.29V568.45C2400.95 567.784 2401.87 567.442 2403.01 567.442C2405.6 567.442 2406.89 568.864 2406.89 571.726V577H2404.84V571.852C2404.84 570.106 2404.14 569.35 2402.57 569.35C2401.58 569.35 2400.74 569.944 2400.29 570.898V577ZM2409.58 570.322L2408.57 568.81C2409.45 567.946 2410.96 567.424 2412.49 567.424C2414.94 567.424 2416.33 568.828 2416.33 571.276V577H2414.27V575.974C2413.59 576.73 2412.62 577.108 2411.38 577.108C2409.31 577.108 2407.97 575.956 2407.97 574.156C2407.97 572.158 2409.7 571.186 2412.35 571.186C2413.12 571.186 2413.77 571.276 2414.27 571.438C2414.29 570.016 2413.72 569.332 2412.26 569.332C2411.34 569.332 2410.44 569.656 2409.58 570.322ZM2411.83 575.326C2412.89 575.326 2413.72 574.894 2414.27 574.048V573.148C2413.77 572.986 2413.19 572.896 2412.56 572.896C2410.93 572.896 2410.1 573.31 2410.1 574.138C2410.1 574.876 2410.76 575.326 2411.83 575.326ZM2420.06 577H2418V567.64H2420.06V568.27C2420.29 567.784 2421.05 567.442 2421.75 567.442C2422.56 567.442 2423.17 567.712 2423.6 568.27L2422.43 569.764C2422.25 569.494 2421.95 569.35 2421.5 569.35C2420.83 569.35 2420.27 569.818 2420.06 570.664V577ZM2426.59 577H2424.54V567.64H2426.59V577ZM2424.36 564.958C2424.36 564.328 2424.9 563.878 2425.57 563.878C2426.23 563.878 2426.76 564.364 2426.76 564.958C2426.76 565.606 2426.23 566.074 2425.57 566.074C2424.85 566.074 2424.36 565.606 2424.36 564.958ZM2429.21 569.548H2427.59V567.64H2429.21V565.714H2431.26V567.64H2434.29V569.548H2431.26V573.166C2431.26 574.66 2431.6 575.2 2432.47 575.2C2432.95 575.2 2433.39 574.93 2433.8 574.408L2435.02 575.56C2434.5 576.478 2433.4 577.108 2432.16 577.108C2430.34 577.108 2429.21 575.92 2429.21 573.742V569.548ZM2436.09 580.492L2436.9 578.746C2437.02 578.818 2437.15 578.854 2437.31 578.854C2437.87 578.854 2438.37 578.332 2438.79 577.288L2439.11 576.442L2434.5 567.64H2436.88L2440.1 573.958L2442.59 567.64H2444.78L2441.11 576.73C2440.48 578.26 2439.9 579.304 2439.36 579.898C2438.81 580.474 2438.16 580.762 2437.38 580.762C2436.88 580.762 2436.45 580.672 2436.09 580.492ZM2450.46 570.322L2449.45 568.81C2450.33 567.946 2451.84 567.424 2453.37 567.424C2455.82 567.424 2457.21 568.828 2457.21 571.276V577H2455.15V575.974C2454.47 576.73 2453.5 577.108 2452.26 577.108C2450.19 577.108 2448.85 575.956 2448.85 574.156C2448.85 572.158 2450.58 571.186 2453.23 571.186C2454 571.186 2454.65 571.276 2455.15 571.438C2455.17 570.016 2454.6 569.332 2453.14 569.332C2452.22 569.332 2451.32 569.656 2450.46 570.322ZM2452.71 575.326C2453.77 575.326 2454.6 574.894 2455.15 574.048V573.148C2454.65 572.986 2454.07 572.896 2453.44 572.896C2451.81 572.896 2450.98 573.31 2450.98 574.138C2450.98 574.876 2451.64 575.326 2452.71 575.326ZM2460.93 577H2458.88V567.64H2460.93V568.486C2461.64 567.784 2462.61 567.442 2463.81 567.442C2466.32 567.442 2467.58 568.864 2467.58 571.708V577H2465.52V571.87C2465.52 570.088 2464.8 569.35 2463.22 569.35C2462.21 569.35 2461.35 569.944 2460.93 570.934V577ZM2478.02 577H2475.96V575.974C2475.55 576.55 2474.58 577.144 2473.34 577.144C2471.99 577.144 2470.89 576.712 2470.06 575.866C2469.23 575.02 2468.82 573.832 2468.82 572.338C2468.82 570.916 2469.27 569.728 2470.19 568.81C2471.09 567.892 2472.18 567.424 2473.48 567.424C2474.6 567.424 2475.42 567.658 2475.96 568.126V563.86H2478.02V577ZM2473.71 575.236C2474.72 575.236 2475.62 574.552 2475.96 573.778V570.358C2475.48 569.674 2474.78 569.332 2473.82 569.332C2472.18 569.332 2470.94 570.484 2470.94 572.302C2470.94 574.102 2472.06 575.236 2473.71 575.236ZM2391.41 594.336C2391.41 593.562 2389.36 593.256 2387.75 592.662C2386.64 592.248 2385.74 591.384 2385.74 590.214C2385.74 588.486 2387.2 587.424 2389.59 587.424C2391.19 587.424 2392.72 588.162 2393.37 589.08L2391.97 590.412C2391.34 589.692 2390.44 589.332 2389.25 589.332C2388.33 589.332 2387.86 589.62 2387.86 590.178C2387.86 591.456 2393.53 591.042 2393.53 594.318C2393.53 595.254 2393.17 595.956 2392.43 596.442C2391.7 596.928 2390.78 597.162 2389.68 597.162C2387.66 597.162 2386.04 596.226 2385.34 594.912L2386.96 593.796C2387.48 594.642 2388.67 595.254 2389.88 595.254C2390.74 595.254 2391.41 594.966 2391.41 594.336ZM2396.76 600.6H2394.7V587.64H2396.76V588.486C2397.31 587.784 2398.34 587.424 2399.35 587.424C2400.73 587.424 2401.85 587.856 2402.66 588.738C2403.47 589.62 2403.88 590.754 2403.88 592.158C2403.88 593.616 2403.45 594.804 2402.59 595.74C2401.72 596.694 2400.59 597.162 2399.2 597.162C2398 597.162 2397.17 596.91 2396.76 596.388V600.6ZM2399.13 589.332C2398 589.332 2397.17 589.98 2396.76 590.862V594.102C2397.21 594.876 2397.94 595.254 2398.97 595.254C2400.64 595.254 2401.76 594.066 2401.76 592.32C2401.76 590.448 2400.77 589.332 2399.13 589.332ZM2404.74 592.302C2404.74 590.88 2405.21 589.71 2406.15 588.792C2407.07 587.874 2408.27 587.424 2409.75 587.424C2411.22 587.424 2412.43 587.874 2413.37 588.792C2414.3 589.71 2414.77 590.88 2414.77 592.302C2414.77 593.706 2414.3 594.858 2413.37 595.776C2412.43 596.694 2411.22 597.162 2409.75 597.162C2408.29 597.162 2407.1 596.694 2406.17 595.776C2405.21 594.858 2404.74 593.706 2404.74 592.302ZM2406.87 592.302C2406.87 593.148 2407.14 593.85 2407.68 594.408C2408.2 594.966 2408.9 595.254 2409.75 595.254C2411.48 595.254 2412.65 594.084 2412.65 592.302C2412.65 591.42 2412.38 590.7 2411.82 590.142C2411.26 589.602 2410.58 589.332 2409.75 589.332C2408.07 589.332 2406.87 590.502 2406.87 592.302ZM2418.12 597H2416.07V587.64H2418.12V588.486C2418.82 587.784 2419.8 587.442 2421 587.442C2423.5 587.442 2424.76 588.864 2424.76 591.708V597H2422.71V591.87C2422.71 590.088 2421.99 589.35 2420.41 589.35C2419.4 589.35 2418.54 589.944 2418.12 590.934V597ZM2431.89 594.336C2431.89 593.562 2429.84 593.256 2428.24 592.662C2427.12 592.248 2426.22 591.384 2426.22 590.214C2426.22 588.486 2427.68 587.424 2430.07 587.424C2431.68 587.424 2433.21 588.162 2433.85 589.08L2432.45 590.412C2431.82 589.692 2430.92 589.332 2429.73 589.332C2428.81 589.332 2428.35 589.62 2428.35 590.178C2428.35 591.456 2434.02 591.042 2434.02 594.318C2434.02 595.254 2433.66 595.956 2432.92 596.442C2432.18 596.928 2431.26 597.162 2430.16 597.162C2428.15 597.162 2426.53 596.226 2425.83 594.912L2427.45 593.796C2427.97 594.642 2429.16 595.254 2430.36 595.254C2431.23 595.254 2431.89 594.966 2431.89 594.336ZM2434.75 592.302C2434.75 590.88 2435.22 589.71 2436.16 588.792C2437.08 587.874 2438.28 587.424 2439.76 587.424C2441.23 587.424 2442.44 587.874 2443.38 588.792C2444.31 589.71 2444.78 590.88 2444.78 592.302C2444.78 593.706 2444.31 594.858 2443.38 595.776C2442.44 596.694 2441.23 597.162 2439.76 597.162C2438.3 597.162 2437.11 596.694 2436.18 595.776C2435.22 594.858 2434.75 593.706 2434.75 592.302ZM2436.88 592.302C2436.88 593.148 2437.15 593.85 2437.69 594.408C2438.21 594.966 2438.91 595.254 2439.76 595.254C2441.49 595.254 2442.66 594.084 2442.66 592.302C2442.66 591.42 2442.39 590.7 2441.83 590.142C2441.27 589.602 2440.59 589.332 2439.76 589.332C2438.08 589.332 2436.88 590.502 2436.88 592.302ZM2448.13 597H2446.08V587.64H2448.13V588.27C2448.37 587.784 2449.12 587.442 2449.83 587.442C2450.64 587.442 2451.25 587.712 2451.68 588.27L2450.51 589.764C2450.33 589.494 2450.02 589.35 2449.57 589.35C2448.91 589.35 2448.35 589.818 2448.13 590.664V597ZM2457.89 594.336C2457.89 593.562 2455.84 593.256 2454.24 592.662C2453.12 592.248 2452.22 591.384 2452.22 590.214C2452.22 588.486 2453.68 587.424 2456.08 587.424C2457.68 587.424 2459.21 588.162 2459.86 589.08L2458.45 590.412C2457.82 589.692 2456.92 589.332 2455.73 589.332C2454.82 589.332 2454.35 589.62 2454.35 590.178C2454.35 591.456 2460.02 591.042 2460.02 594.318C2460.02 595.254 2459.66 595.956 2458.92 596.442C2458.18 596.928 2457.26 597.162 2456.17 597.162C2454.15 597.162 2452.53 596.226 2451.83 594.912L2453.45 593.796C2453.97 594.642 2455.16 595.254 2456.36 595.254C2457.23 595.254 2457.89 594.966 2457.89 594.336ZM2463.24 597H2461.19V583.86H2463.24V588.45C2463.91 587.784 2464.83 587.442 2465.96 587.442C2468.55 587.442 2469.85 588.864 2469.85 591.726V597H2467.8V591.852C2467.8 590.106 2467.09 589.35 2465.53 589.35C2464.54 589.35 2463.69 589.944 2463.24 590.898V597ZM2473.75 597H2471.7V587.64H2473.75V597ZM2471.52 584.958C2471.52 584.328 2472.06 583.878 2472.73 583.878C2473.39 583.878 2473.92 584.364 2473.92 584.958C2473.92 585.606 2473.39 586.074 2472.73 586.074C2472.01 586.074 2471.52 585.606 2471.52 584.958ZM2477.7 600.6H2475.65V587.64H2477.7V588.486C2478.26 587.784 2479.28 587.424 2480.29 587.424C2481.68 587.424 2482.79 587.856 2483.6 588.738C2484.41 589.62 2484.83 590.754 2484.83 592.158C2484.83 593.616 2484.4 594.804 2483.53 595.74C2482.67 596.694 2481.53 597.162 2480.15 597.162C2478.94 597.162 2478.11 596.91 2477.7 596.388V600.6ZM2480.08 589.332C2478.94 589.332 2478.11 589.98 2477.7 590.862V594.102C2478.15 594.876 2478.89 595.254 2479.91 595.254C2481.59 595.254 2482.7 594.066 2482.7 592.32C2482.7 590.448 2481.71 589.332 2480.08 589.332Z" fill="#3C525E"/>
<path d="M2393.57 106.58C2393.57 103.736 2385.79 105.428 2385.79 100.82C2385.79 99.83 2386.26 98.984 2387.2 98.282C2388.11 97.598 2389.3 97.256 2390.72 97.256C2392.79 97.256 2394.43 97.85 2395.6 99.056L2394.41 100.604C2393.35 99.722 2392.11 99.29 2390.67 99.29C2389.18 99.29 2388.04 99.776 2388.04 100.766C2388.04 102.08 2389.99 102.242 2391.93 102.8C2393.28 103.196 2394.47 103.556 2395.24 104.564C2395.62 105.086 2395.82 105.698 2395.82 106.418C2395.82 107.516 2395.35 108.398 2394.41 109.1C2393.48 109.802 2392.33 110.144 2390.98 110.144C2389.88 110.144 2388.82 109.928 2387.79 109.478C2386.76 109.046 2385.99 108.506 2385.43 107.84L2386.73 106.31C2387.86 107.516 2389.36 108.11 2391.17 108.11C2392.69 108.11 2393.57 107.534 2393.57 106.58ZM2397.85 102.548H2396.23V100.64H2397.85V98.714H2399.9V100.64H2402.93V102.548H2399.9V106.166C2399.9 107.66 2400.24 108.2 2401.11 108.2C2401.59 108.2 2402.03 107.93 2402.44 107.408L2403.66 108.56C2403.14 109.478 2402.04 110.108 2400.8 110.108C2398.98 110.108 2397.85 108.92 2397.85 106.742V102.548ZM2405.39 103.322L2404.39 101.81C2405.27 100.946 2406.78 100.424 2408.31 100.424C2410.76 100.424 2412.14 101.828 2412.14 104.276V110H2410.09V108.974C2409.41 109.73 2408.44 110.108 2407.19 110.108C2405.12 110.108 2403.79 108.956 2403.79 107.156C2403.79 105.158 2405.52 104.186 2408.17 104.186C2408.94 104.186 2409.59 104.276 2410.09 104.438C2410.11 103.016 2409.53 102.332 2408.08 102.332C2407.16 102.332 2406.26 102.656 2405.39 103.322ZM2407.64 108.326C2408.71 108.326 2409.53 107.894 2410.09 107.048V106.148C2409.59 105.986 2409.01 105.896 2408.38 105.896C2406.74 105.896 2405.92 106.31 2405.92 107.138C2405.92 107.876 2406.58 108.326 2407.64 108.326ZM2414.43 102.548H2412.92V100.64H2414.43V100.334C2414.43 97.832 2415.84 96.716 2417.71 96.716C2418.72 96.716 2419.63 97.148 2420.12 97.814L2418.97 99.11C2418.7 98.786 2418.32 98.624 2417.82 98.624C2416.93 98.624 2416.48 99.218 2416.48 100.388V100.64H2419.11V102.548H2416.48V110H2414.43V102.548ZM2420.42 102.548H2418.91V100.64H2420.42V100.334C2420.42 97.832 2421.83 96.716 2423.7 96.716C2424.71 96.716 2425.62 97.148 2426.11 97.814L2424.96 99.11C2424.69 98.786 2424.31 98.624 2423.81 98.624C2422.92 98.624 2422.47 99.218 2422.47 100.388V100.64H2425.1V102.548H2422.47V110H2420.42V102.548ZM2437.04 106.922L2438.5 107.858C2437.76 109.316 2436.16 110.162 2434.48 110.162C2432.97 110.162 2431.75 109.712 2430.83 108.83C2429.91 107.948 2429.44 106.76 2429.44 105.302C2429.44 103.898 2429.89 102.728 2430.81 101.81C2431.73 100.892 2432.92 100.424 2434.37 100.424C2436.25 100.424 2437.76 101.27 2438.39 102.548L2436.86 103.556C2436.25 102.746 2435.45 102.332 2434.46 102.332C2432.75 102.332 2431.57 103.556 2431.57 105.302C2431.57 106.148 2431.85 106.85 2432.43 107.408C2432.99 107.966 2433.74 108.254 2434.68 108.254C2435.67 108.254 2436.44 107.804 2437.04 106.922ZM2440.39 103.322L2439.38 101.81C2440.26 100.946 2441.77 100.424 2443.3 100.424C2445.75 100.424 2447.14 101.828 2447.14 104.276V110H2445.09V108.974C2444.4 109.73 2443.43 110.108 2442.19 110.108C2440.12 110.108 2438.79 108.956 2438.79 107.156C2438.79 105.158 2440.51 104.186 2443.16 104.186C2443.93 104.186 2444.58 104.276 2445.09 104.438C2445.1 103.016 2444.53 102.332 2443.07 102.332C2442.15 102.332 2441.25 102.656 2440.39 103.322ZM2442.64 108.326C2443.7 108.326 2444.53 107.894 2445.09 107.048V106.148C2444.58 105.986 2444.01 105.896 2443.38 105.896C2441.74 105.896 2440.91 106.31 2440.91 107.138C2440.91 107.876 2441.58 108.326 2442.64 108.326ZM2450.87 110H2448.81V100.64H2450.87V101.27C2451.1 100.784 2451.86 100.442 2452.56 100.442C2453.37 100.442 2453.98 100.712 2454.41 101.27L2453.24 102.764C2453.06 102.494 2452.76 102.35 2452.31 102.35C2451.64 102.35 2451.08 102.818 2450.87 103.664V110ZM2461.83 107.012L2463.09 108.254C2462.13 109.532 2460.87 110.162 2459.29 110.162C2457.78 110.162 2456.57 109.712 2455.65 108.83C2454.74 107.948 2454.27 106.778 2454.27 105.302C2454.27 103.88 2454.7 102.71 2455.55 101.792C2456.39 100.874 2457.56 100.424 2459.07 100.424C2460.35 100.424 2461.4 100.82 2462.22 101.594C2463.05 102.386 2463.47 103.43 2463.47 104.708C2463.47 105.014 2463.43 105.464 2463.36 106.022H2456.41C2456.57 107.462 2457.72 108.254 2459.33 108.254C2460.39 108.254 2461.22 107.84 2461.83 107.012ZM2458.98 102.278C2457.62 102.278 2456.7 103.016 2456.43 104.24H2461.34C2461.18 102.962 2460.33 102.278 2458.98 102.278Z" fill="#3C525E"/>
<circle cx="2326.5" cy="232.5" r="33.5" fill="white"/>
<path d="M2322.32 228.528L2319.8 227.52C2320.64 224.64 2323.21 223.032 2326.5 223.032C2330.31 223.032 2332.55 225.024 2332.55 228C2332.55 230.184 2331.61 231.96 2329.95 233.496C2329.11 234.288 2327.96 235.176 2326.5 236.208L2324.58 237.312H2333.07V240H2320.04V237.864L2323.83 235.104C2323.95 235.008 2324.29 234.744 2324.89 234.288C2325.49 233.832 2325.87 233.52 2326.07 233.352C2326.26 233.184 2326.59 232.896 2327.1 232.488C2327.58 232.08 2327.91 231.744 2328.13 231.48C2328.51 231 2329.21 230.16 2329.43 229.488C2329.52 229.152 2329.57 228.816 2329.57 228.456C2329.57 226.824 2328.39 225.816 2326.45 225.816C2324.36 225.816 2322.99 226.968 2322.32 228.528Z" fill="#1A3341" fill-opacity="0.6"/>
<circle cx="2326.5" cy="103.5" r="33.5" fill="white"/>
<path d="M2322.76 99.288L2321.78 96.888L2327.42 94.152H2329.24V111H2326.46V97.584L2322.76 99.288Z" fill="#1A3341" fill-opacity="0.6"/>
<circle cx="2326.5" cy="405.5" r="33.5" fill="white"/>
<path d="M2322.57 401L2320.1 399.896C2320.96 397.472 2323.51 395.984 2326.65 395.984C2328.43 395.984 2329.89 396.368 2331.02 397.136C2332.15 397.928 2332.72 398.936 2332.72 400.208C2332.72 402.104 2331.62 403.568 2330.01 404.048C2331.72 404.456 2333.08 405.68 2333.08 407.984C2333.08 409.544 2332.48 410.816 2331.28 411.752C2330.06 412.712 2328.57 413.192 2326.77 413.192C2324.85 413.192 2323.03 412.736 2321.44 411.416C2320.65 410.768 2320.08 409.952 2319.76 409.016L2322.4 407.912C2322.74 408.656 2323.32 409.256 2324.11 409.712C2324.9 410.168 2325.69 410.408 2326.53 410.408C2328.57 410.408 2330.08 409.52 2330.08 408.008C2330.08 406.304 2328.6 405.728 2326 405.728H2324.37V403.088H2326.1C2328.28 403.088 2329.75 402.128 2329.75 400.808C2329.75 400.16 2329.44 399.632 2328.81 399.272C2328.19 398.912 2327.4 398.72 2326.41 398.72C2325.43 398.72 2324.66 398.912 2324.06 399.296C2323.46 399.68 2322.98 400.256 2322.57 401Z" fill="#1A3341" fill-opacity="0.6"/>
<circle cx="2326.5" cy="576.5" r="33.5" fill="white"/>
<path d="M2331.23 584H2328.42V580.808H2318.92V578.936L2328.83 567.2H2331.23V578.24H2334.08V580.808H2331.23V584ZM2328.42 571.784L2322.76 578.24H2328.42V571.784Z" fill="#1A3341" fill-opacity="0.6"/>
<circle cx="2326.5" cy="705.5" r="33.5" fill="white"/>
<path d="M2323 705.632L2320.58 705.392L2321.35 696.2H2332.32V698.912H2323.89L2323.53 702.632C2324.32 702.224 2325.33 702.032 2326.51 702.032C2330.54 702.032 2332.8 704.192 2332.8 707.552C2332.8 709.256 2332.2 710.6 2331 711.632C2329.77 712.664 2328.24 713.192 2326.34 713.192C2323.75 713.192 2320.82 712.184 2319.74 709.112L2322.43 708.128C2322.98 709.568 2324.64 710.408 2326.48 710.408C2328.57 710.408 2329.82 709.28 2329.82 707.648C2329.82 705.752 2328.45 704.648 2326.17 704.648C2324.85 704.648 2323.8 704.984 2323 705.632Z" fill="#1A3341" fill-opacity="0.6"/>
<path d="M1482.94 290.542L1475.06 297.484L1482.58 306.402V307H1478L1472.02 299.876L1468.93 302.58V307H1465.03V289.944H1468.93V297.9L1478 289.944H1482.94V290.542ZM1500.82 289.944V293.376H1489.56V296.756H1500.3V300.162H1489.56V303.568H1500.82V307H1485.66V289.944H1500.82ZM1520.8 289.944V290.542L1513.31 300.37V307H1509.39V300.37L1501.87 290.542V289.944H1506.11L1511.34 296.834L1516.56 289.944H1520.8ZM1546.29 306.402V307H1542.39L1540.83 303.464H1532.3L1530.74 307H1526.84V306.402L1534.41 289.944H1538.72L1546.29 306.402ZM1539.35 300.084L1536.56 293.74L1533.78 300.084H1539.35ZM1565.39 295.742C1565.39 297.129 1564.94 298.264 1564.06 299.148C1563.19 300.032 1561.95 300.587 1560.34 300.812L1565.31 306.402V307H1560.84L1555.53 300.89H1551.97V307H1548.07V289.944H1558.89C1560.91 289.944 1562.5 290.438 1563.64 291.426C1564.81 292.397 1565.39 293.74 1565.39 295.456V295.742ZM1561.41 295.378C1561.41 294.737 1561.18 294.251 1560.73 293.922C1560.3 293.575 1559.65 293.402 1558.78 293.402H1551.97V297.666H1558.78C1559.63 297.666 1560.28 297.501 1560.73 297.172C1561.18 296.825 1561.41 296.323 1561.41 295.664V295.378ZM1583.66 289.944V293.376H1572.4V296.756H1583.14V300.162H1572.4V303.568H1583.66V307H1568.5V289.944H1583.66ZM1604.47 306.402V307H1600.57L1599.01 303.464H1590.48L1588.92 307H1585.02V306.402L1592.59 289.944H1596.91L1604.47 306.402ZM1597.53 300.084L1594.75 293.74L1591.97 300.084H1597.53ZM1613.3 307.312C1610.49 307.312 1608.36 306.809 1606.9 305.804C1605.45 304.799 1604.72 303.325 1604.72 301.384V301.124H1608.57V301.384C1608.57 302.216 1608.98 302.849 1609.82 303.282C1610.65 303.715 1611.86 303.932 1613.46 303.932C1614.88 303.932 1615.95 303.785 1616.68 303.49C1617.42 303.178 1617.8 302.727 1617.8 302.138V301.956C1617.8 301.488 1617.59 301.133 1617.17 300.89C1616.76 300.63 1616.02 300.422 1614.96 300.266L1610.62 299.642C1606.88 299.087 1605.01 297.545 1605.01 295.014V294.754C1605.01 293.142 1605.71 291.885 1607.11 290.984C1608.53 290.083 1610.52 289.632 1613.07 289.632C1615.77 289.632 1617.83 290.117 1619.25 291.088C1620.67 292.059 1621.39 293.463 1621.39 295.3V295.534H1617.54V295.3C1617.54 293.775 1616.05 293.012 1613.07 293.012C1611.73 293.012 1610.71 293.151 1610 293.428C1609.3 293.705 1608.96 294.113 1608.96 294.65V294.858C1608.96 295.257 1609.15 295.569 1609.53 295.794C1609.93 296.019 1610.6 296.201 1611.56 296.34L1615.93 296.964C1617.92 297.259 1619.38 297.796 1620.32 298.576C1621.27 299.339 1621.75 300.405 1621.75 301.774V302.034C1621.75 303.698 1621.01 304.998 1619.54 305.934C1618.07 306.853 1615.99 307.312 1613.3 307.312ZM1474.41 335.312C1472.37 335.312 1470.58 334.957 1469.06 334.246C1467.53 333.535 1466.35 332.521 1465.5 331.204C1464.66 329.887 1464.25 328.353 1464.25 326.602V326.368C1464.25 324.617 1464.66 323.083 1465.5 321.766C1466.35 320.449 1467.53 319.435 1469.06 318.724C1470.6 317.996 1472.39 317.632 1474.41 317.632C1476.46 317.632 1478.24 317.996 1479.77 318.724C1481.3 319.435 1482.47 320.449 1483.31 321.766C1484.14 323.083 1484.55 324.617 1484.55 326.368V326.602C1484.55 328.353 1484.14 329.887 1483.31 331.204C1482.47 332.521 1481.3 333.535 1479.77 334.246C1478.24 334.957 1476.46 335.312 1474.41 335.312ZM1474.41 331.698C1476.42 331.698 1477.95 331.265 1478.99 330.398C1480.05 329.531 1480.58 328.283 1480.58 326.654V326.342C1480.58 324.713 1480.04 323.456 1478.96 322.572C1477.91 321.688 1476.39 321.246 1474.41 321.246C1472.42 321.246 1470.89 321.688 1469.81 322.572C1468.75 323.456 1468.23 324.713 1468.23 326.342V326.654C1468.23 328.283 1468.75 329.531 1469.81 330.398C1470.89 331.265 1472.42 331.698 1474.41 331.698ZM1502.54 317.944V321.454H1491.21V325.068H1502.02V328.578H1491.21V335H1487.31V317.944H1502.54ZM1530.22 317.944V321.454H1518.89V325.068H1529.7V328.578H1518.89V335H1514.99V317.944H1530.22ZM1542.16 335.312C1540.11 335.312 1538.33 334.957 1536.8 334.246C1535.28 333.535 1534.09 332.521 1533.24 331.204C1532.41 329.887 1531.99 328.353 1531.99 326.602V326.368C1531.99 324.617 1532.41 323.083 1533.24 321.766C1534.09 320.449 1535.28 319.435 1536.8 318.724C1538.34 317.996 1540.13 317.632 1542.16 317.632C1544.2 317.632 1545.99 317.996 1547.51 318.724C1549.04 319.435 1550.22 320.449 1551.05 321.766C1551.88 323.083 1552.3 324.617 1552.3 326.368V326.602C1552.3 328.353 1551.88 329.887 1551.05 331.204C1550.22 332.521 1549.04 333.535 1547.51 334.246C1545.99 334.957 1544.2 335.312 1542.16 335.312ZM1542.16 331.698C1544.17 331.698 1545.69 331.265 1546.73 330.398C1547.79 329.531 1548.32 328.283 1548.32 326.654V326.342C1548.32 324.713 1547.78 323.456 1546.71 322.572C1545.65 321.688 1544.13 321.246 1542.16 321.246C1540.16 321.246 1538.63 321.688 1537.56 322.572C1536.5 323.456 1535.97 324.713 1535.97 326.342V326.654C1535.97 328.283 1536.5 329.531 1537.56 330.398C1538.63 331.265 1540.16 331.698 1542.16 331.698ZM1564.57 335.312C1562.51 335.312 1560.7 334.957 1559.14 334.246C1557.58 333.535 1556.37 332.53 1555.52 331.23C1554.69 329.913 1554.27 328.379 1554.27 326.628V326.342C1554.27 324.591 1554.69 323.066 1555.52 321.766C1556.37 320.449 1557.58 319.435 1559.14 318.724C1560.7 317.996 1562.51 317.632 1564.57 317.632C1566.48 317.632 1568.18 317.944 1569.69 318.568C1571.22 319.192 1572.4 320.059 1573.25 321.168C1574.12 322.277 1574.55 323.525 1574.55 324.912V325.12H1570.58V324.912C1570.58 324.201 1570.32 323.569 1569.8 323.014C1569.29 322.459 1568.58 322.026 1567.66 321.714C1566.76 321.402 1565.72 321.246 1564.54 321.246C1562.48 321.246 1560.91 321.679 1559.84 322.546C1558.78 323.413 1558.25 324.661 1558.25 326.29V326.68C1558.25 328.327 1558.78 329.575 1559.84 330.424C1560.89 331.273 1562.47 331.698 1564.57 331.698C1566.39 331.698 1567.85 331.369 1568.94 330.71C1570.03 330.034 1570.58 329.15 1570.58 328.058V327.876H1574.55V328.058C1574.55 329.445 1574.12 330.693 1573.25 331.802C1572.4 332.894 1571.22 333.752 1569.69 334.376C1568.18 335 1566.48 335.312 1564.57 335.312ZM1585.53 335.312C1583.83 335.312 1582.33 334.983 1581.03 334.324C1579.74 333.648 1578.75 332.703 1578.04 331.49C1577.34 330.277 1577 328.864 1577 327.252V317.944H1580.9V327.304C1580.9 328.708 1581.3 329.791 1582.09 330.554C1582.91 331.317 1584.05 331.698 1585.53 331.698C1587.02 331.698 1588.16 331.317 1588.96 330.554C1589.77 329.791 1590.18 328.708 1590.18 327.304V317.944H1594.08V327.252C1594.08 328.864 1593.72 330.277 1593.01 331.49C1592.32 332.703 1591.32 333.648 1590.02 334.324C1588.74 334.983 1587.24 335.312 1585.53 335.312ZM1605.41 335.312C1602.61 335.312 1600.47 334.809 1599.02 333.804C1597.56 332.799 1596.83 331.325 1596.83 329.384V329.124H1600.68V329.384C1600.68 330.216 1601.1 330.849 1601.93 331.282C1602.76 331.715 1603.98 331.932 1605.57 331.932C1606.99 331.932 1608.07 331.785 1608.79 331.49C1609.54 331.178 1609.91 330.727 1609.91 330.138V329.956C1609.91 329.488 1609.7 329.133 1609.29 328.89C1608.87 328.63 1608.14 328.422 1607.08 328.266L1602.74 327.642C1598.99 327.087 1597.12 325.545 1597.12 323.014V322.754C1597.12 321.142 1597.82 319.885 1599.23 318.984C1600.65 318.083 1602.63 317.632 1605.18 317.632C1607.88 317.632 1609.95 318.117 1611.37 319.088C1612.79 320.059 1613.5 321.463 1613.5 323.3V323.534H1609.65V323.3C1609.65 321.775 1608.16 321.012 1605.18 321.012C1603.85 321.012 1602.82 321.151 1602.11 321.428C1601.42 321.705 1601.07 322.113 1601.07 322.65V322.858C1601.07 323.257 1601.26 323.569 1601.64 323.794C1602.04 324.019 1602.72 324.201 1603.67 324.34L1608.04 324.964C1610.03 325.259 1611.5 325.796 1612.43 326.576C1613.39 327.339 1613.86 328.405 1613.86 329.774V330.034C1613.86 331.698 1613.13 332.998 1611.65 333.934C1610.18 334.853 1608.1 335.312 1605.41 335.312Z" fill="#1A3341"/>
<defs>
<linearGradient id="paint0_linear_6025_19154" x1="2360.6" y1="-1.50083e+14" x2="1615.32" y2="-1.50083e+14" gradientUnits="userSpaceOnUse">
<stop stop-color="#92F7CC"/>
<stop offset="1" stop-color="#2B5F90"/>
</linearGradient>
<linearGradient id="paint1_linear_6025_19154" x1="2201.41" y1="252.5" x2="1681.69" y2="252.5" gradientUnits="userSpaceOnUse">
<stop stop-color="#70D4AA"/>
<stop offset="1" stop-color="#228D9C"/>
</linearGradient>
<linearGradient id="paint2_linear_6025_19154" x1="2302.45" y1="316.525" x2="1804.64" y2="316.525" gradientUnits="userSpaceOnUse">
<stop stop-color="#49BC77"/>
<stop offset="1" stop-color="#0D5F8D"/>
</linearGradient>
<linearGradient id="paint3_linear_6025_19154" x1="2607.33" y1="215.374" x2="1960.54" y2="215.374" gradientUnits="userSpaceOnUse">
<stop stop-color="#39EC2A"/>
<stop offset="1" stop-color="#7EDEEC"/>
</linearGradient>
<linearGradient id="paint4_linear_6025_19154" x1="1839.92" y1="576.824" x2="1073.62" y2="576.824" gradientUnits="userSpaceOnUse">
<stop stop-color="#69D88F"/>
<stop offset="1" stop-color="#4D809E"/>
</linearGradient>
<linearGradient id="paint5_linear_6025_19154" x1="2248.24" y1="507.5" x2="1898.68" y2="507.5" gradientUnits="userSpaceOnUse">
<stop stop-color="#70D4AA"/>
<stop offset="1" stop-color="#3AA7B6"/>
</linearGradient>
<linearGradient id="paint6_linear_6025_19154" x1="2482.62" y1="555.5" x2="1431.8" y2="544.479" gradientUnits="userSpaceOnUse">
<stop stop-color="#99F452" stop-opacity="0.68"/>
<stop offset="1" stop-color="#1DA858"/>
</linearGradient>
</defs>
</svg>
