<svg width="1919" height="349" viewBox="0 0 1919 349" fill="none" xmlns="http://www.w3.org/2000/svg">
<path d="M869.738 4.138L865.496 7.876L869.542 12.678V13H867.078L863.858 9.164L862.192 10.62V13H860.092V3.816H862.192V8.1L867.078 3.816H869.738V4.138ZM879.363 3.816V5.664H873.301V7.484H879.083V9.318H873.301V11.152H879.363V13H871.201V3.816H879.363ZM890.124 3.816V4.138L886.092 9.43V13H883.978V9.43L879.932 4.138V3.816H882.214L885.028 7.526L887.842 3.816H890.124ZM903.848 12.678V13H901.748L900.908 11.096H896.316L895.476 13H893.376V12.678L897.45 3.816H899.774L903.848 12.678ZM900.11 9.276L898.612 5.86L897.114 9.276H900.11ZM914.131 6.938C914.131 7.68467 913.893 8.296 913.417 8.772C912.951 9.248 912.283 9.54667 911.415 9.668L914.089 12.678V13H911.681L908.825 9.71H906.907V13H904.807V3.816H910.631C911.723 3.816 912.577 4.082 913.193 4.614C913.819 5.13667 914.131 5.86 914.131 6.784V6.938ZM911.989 6.742C911.989 6.39667 911.868 6.13533 911.625 5.958C911.392 5.77133 911.042 5.678 910.575 5.678H906.907V7.974H910.575C911.033 7.974 911.383 7.88533 911.625 7.708C911.868 7.52133 911.989 7.25067 911.989 6.896V6.742ZM923.969 3.816V5.664H917.907V7.484H923.689V9.318H917.907V11.152H923.969V13H915.807V3.816H923.969ZM935.178 12.678V13H933.078L932.238 11.096H927.646L926.806 13H924.706V12.678L928.78 3.816H931.104L935.178 12.678ZM931.44 9.276L929.942 5.86L928.444 9.276H931.44ZM939.93 13.168C938.418 13.168 937.27 12.8973 936.486 12.356C935.702 11.8147 935.31 11.0213 935.31 9.976V9.836H937.382V9.976C937.382 10.424 937.606 10.7647 938.054 10.998C938.502 11.2313 939.156 11.348 940.014 11.348C940.78 11.348 941.358 11.2687 941.75 11.11C942.152 10.942 942.352 10.6993 942.352 10.382V10.284C942.352 10.032 942.24 9.84067 942.016 9.71C941.792 9.57 941.396 9.458 940.826 9.374L938.488 9.038C936.472 8.73933 935.464 7.90867 935.464 6.546V6.406C935.464 5.538 935.842 4.86133 936.598 4.376C937.364 3.89067 938.432 3.648 939.804 3.648C941.26 3.648 942.371 3.90933 943.136 4.432C943.902 4.95467 944.284 5.71067 944.284 6.7V6.826H942.212V6.7C942.212 5.87867 941.41 5.468 939.804 5.468C939.086 5.468 938.535 5.54267 938.152 5.692C937.779 5.84133 937.592 6.06067 937.592 6.35V6.462C937.592 6.67667 937.695 6.84467 937.9 6.966C938.115 7.08733 938.479 7.18533 938.992 7.26L941.344 7.596C942.418 7.75467 943.206 8.044 943.71 8.464C944.224 8.87467 944.48 9.44867 944.48 10.186V10.326C944.48 11.222 944.084 11.922 943.29 12.426C942.497 12.9207 941.377 13.168 939.93 13.168ZM865.146 29.168C864.045 29.168 863.083 28.9767 862.262 28.594C861.441 28.2113 860.801 27.6653 860.344 26.956C859.896 26.2467 859.672 25.4207 859.672 24.478V24.352C859.672 23.4093 859.896 22.5833 860.344 21.874C860.801 21.1647 861.441 20.6187 862.262 20.236C863.093 19.844 864.054 19.648 865.146 19.648C866.247 19.648 867.209 19.844 868.03 20.236C868.851 20.6187 869.486 21.1647 869.934 21.874C870.382 22.5833 870.606 23.4093 870.606 24.352V24.478C870.606 25.4207 870.382 26.2467 869.934 26.956C869.486 27.6653 868.851 28.2113 868.03 28.594C867.209 28.9767 866.247 29.168 865.146 29.168ZM865.146 27.222C866.229 27.222 867.05 26.9887 867.61 26.522C868.179 26.0553 868.464 25.3833 868.464 24.506V24.338C868.464 23.4607 868.175 22.784 867.596 22.308C867.027 21.832 866.21 21.594 865.146 21.594C864.073 21.594 863.247 21.832 862.668 22.308C862.099 22.784 861.814 23.4607 861.814 24.338V24.506C861.814 25.3833 862.099 26.0553 862.668 26.522C863.247 26.9887 864.073 27.222 865.146 27.222ZM880.293 19.816V21.706H874.189V23.652H880.013V25.542H874.189V29H872.089V19.816H880.293ZM895.196 19.816V21.706H889.092V23.652H894.916V25.542H889.092V29H886.992V19.816H895.196ZM901.624 29.168C900.522 29.168 899.561 28.9767 898.74 28.594C897.918 28.2113 897.279 27.6653 896.822 26.956C896.374 26.2467 896.15 25.4207 896.15 24.478V24.352C896.15 23.4093 896.374 22.5833 896.822 21.874C897.279 21.1647 897.918 20.6187 898.74 20.236C899.57 19.844 900.532 19.648 901.624 19.648C902.725 19.648 903.686 19.844 904.508 20.236C905.329 20.6187 905.964 21.1647 906.412 21.874C906.86 22.5833 907.084 23.4093 907.084 24.352V24.478C907.084 25.4207 906.86 26.2467 906.412 26.956C905.964 27.6653 905.329 28.2113 904.508 28.594C903.686 28.9767 902.725 29.168 901.624 29.168ZM901.624 27.222C902.706 27.222 903.528 26.9887 904.088 26.522C904.657 26.0553 904.942 25.3833 904.942 24.506V24.338C904.942 23.4607 904.652 22.784 904.074 22.308C903.504 21.832 902.688 21.594 901.624 21.594C900.55 21.594 899.724 21.832 899.146 22.308C898.576 22.784 898.292 23.4607 898.292 24.338V24.506C898.292 25.3833 898.576 26.0553 899.146 26.522C899.724 26.9887 900.55 27.222 901.624 27.222ZM913.691 29.168C912.58 29.168 911.605 28.9767 910.765 28.594C909.925 28.2113 909.276 27.67 908.819 26.97C908.371 26.2607 908.147 25.4347 908.147 24.492V24.338C908.147 23.3953 908.371 22.574 908.819 21.874C909.276 21.1647 909.925 20.6187 910.765 20.236C911.605 19.844 912.58 19.648 913.691 19.648C914.718 19.648 915.637 19.816 916.449 20.152C917.27 20.488 917.91 20.9547 918.367 21.552C918.834 22.1493 919.067 22.8213 919.067 23.568V23.68H916.925V23.568C916.925 23.1853 916.785 22.8447 916.505 22.546C916.234 22.2473 915.852 22.014 915.357 21.846C914.872 21.678 914.312 21.594 913.677 21.594C912.566 21.594 911.722 21.8273 911.143 22.294C910.574 22.7607 910.289 23.4327 910.289 24.31V24.52C910.289 25.4067 910.574 26.0787 911.143 26.536C911.712 26.9933 912.562 27.222 913.691 27.222C914.671 27.222 915.455 27.0447 916.043 26.69C916.631 26.326 916.925 25.85 916.925 25.262V25.164H919.067V25.262C919.067 26.0087 918.834 26.6807 918.367 27.278C917.91 27.866 917.27 28.328 916.449 28.664C915.637 29 914.718 29.168 913.691 29.168ZM924.975 29.168C924.061 29.168 923.253 28.9907 922.553 28.636C921.863 28.272 921.326 27.7633 920.943 27.11C920.57 26.4567 920.383 25.696 920.383 24.828V19.816H922.483V24.856C922.483 25.612 922.698 26.1953 923.127 26.606C923.566 27.0167 924.182 27.222 924.975 27.222C925.778 27.222 926.394 27.0167 926.823 26.606C927.262 26.1953 927.481 25.612 927.481 24.856V19.816H929.581V24.828C929.581 25.696 929.39 26.4567 929.007 27.11C928.634 27.7633 928.097 28.272 927.397 28.636C926.707 28.9907 925.899 29.168 924.975 29.168ZM935.685 29.168C934.173 29.168 933.025 28.8973 932.241 28.356C931.457 27.8147 931.065 27.0213 931.065 25.976V25.836H933.137V25.976C933.137 26.424 933.361 26.7647 933.809 26.998C934.257 27.2313 934.91 27.348 935.769 27.348C936.534 27.348 937.113 27.2687 937.505 27.11C937.906 26.942 938.107 26.6993 938.107 26.382V26.284C938.107 26.032 937.995 25.8407 937.771 25.71C937.547 25.57 937.15 25.458 936.581 25.374L934.243 25.038C932.227 24.7393 931.219 23.9087 931.219 22.546V22.406C931.219 21.538 931.597 20.8613 932.353 20.376C933.118 19.8907 934.187 19.648 935.559 19.648C937.015 19.648 938.126 19.9093 938.891 20.432C939.656 20.9547 940.039 21.7107 940.039 22.7V22.826H937.967V22.7C937.967 21.8787 937.164 21.468 935.559 21.468C934.84 21.468 934.29 21.5427 933.907 21.692C933.534 21.8413 933.347 22.0607 933.347 22.35V22.462C933.347 22.6767 933.45 22.8447 933.655 22.966C933.87 23.0873 934.234 23.1853 934.747 23.26L937.099 23.596C938.172 23.7547 938.961 24.044 939.465 24.464C939.978 24.8747 940.235 25.4487 940.235 26.186V26.326C940.235 27.222 939.838 27.922 939.045 28.426C938.252 28.9207 937.132 29.168 935.685 29.168Z" fill="#1A3341"/>
<path opacity="0.86" d="M1020 183H820" stroke="url(#paint0_linear_6025_39948)" stroke-width="13.9581"/>
<path opacity="0.86" d="M1020 54L1009.02 54C980.356 54 954.608 71.5231 944.093 98.1856L929.253 135.814C918.737 162.477 892.99 180 864.329 180H788" stroke="url(#paint1_linear_6025_39948)" stroke-width="14.656"/>
<path opacity="0.85" d="M1020 110V110C1008.66 110 998.441 116.865 994.155 127.368L984.675 150.603C977.175 168.985 959.296 181 939.442 181H850" stroke="url(#paint2_linear_6025_39948)" stroke-width="9.77068"/>
<path opacity="0.17" d="M1918.5 15H1052.97C1022.2 15 995.068 35.1428 986.164 64.589L965.956 131.411C957.052 160.857 929.917 181 899.153 181H739" stroke="url(#paint3_linear_6025_39948)" stroke-width="9.77068"/>
<path opacity="0.17" d="M1919 346H984.114C952.826 346 925.361 325.177 916.915 295.05L902.027 241.95C893.58 211.823 866.115 191 834.827 191H675" stroke="url(#paint4_linear_6025_39948)" stroke-width="5.58325"/>
<path opacity="0.86" d="M1020 259H1007.11C988.706 259 972.274 247.473 966.01 230.168L960.6 215.224C953.599 195.884 935.233 183 914.664 183H865" stroke="url(#paint5_linear_6025_39948)" stroke-width="13.9581"/>
<path d="M1020 312L1013.25 312C973.247 312 937.961 285.798 926.392 247.5V247.5C914.823 209.202 879.536 183 839.529 183H0" stroke="url(#paint6_linear_6025_39948)" stroke-width="20.9372"/>
<path d="M1060.2 108H1053.84V99.6H1060.08V100.968H1055.29V103.08H1059.77V104.4H1055.29V106.632H1060.2V108ZM1067.09 108H1065.73V107.316C1065.45 107.7 1064.8 108.096 1063.97 108.096C1063.07 108.096 1062.34 107.808 1061.79 107.244C1061.24 106.68 1060.96 105.888 1060.96 104.892C1060.96 103.944 1061.26 103.152 1061.87 102.54C1062.47 101.928 1063.21 101.616 1064.07 101.616C1064.81 101.616 1065.37 101.772 1065.73 102.084V99.24H1067.09V108ZM1064.23 106.824C1064.9 106.824 1065.5 106.368 1065.73 105.852V103.572C1065.4 103.116 1064.93 102.888 1064.3 102.888C1063.21 102.888 1062.38 103.656 1062.38 104.868C1062.38 106.068 1063.12 106.824 1064.23 106.824ZM1072.54 101.724H1073.91V108H1072.54V107.34C1072.08 107.856 1071.51 108.108 1070.8 108.108C1069.06 108.108 1068.21 107.22 1068.21 105.312V101.724H1069.58V105.18C1069.58 106.284 1070.03 106.836 1070.93 106.836C1071.64 106.836 1072.18 106.476 1072.54 105.756V101.724ZM1079.84 105.948L1080.81 106.572C1080.32 107.544 1079.25 108.108 1078.13 108.108C1077.13 108.108 1076.31 107.808 1075.7 107.22C1075.09 106.632 1074.77 105.84 1074.77 104.868C1074.77 103.932 1075.07 103.152 1075.69 102.54C1076.3 101.928 1077.09 101.616 1078.06 101.616C1079.31 101.616 1080.32 102.18 1080.74 103.032L1079.72 103.704C1079.31 103.164 1078.78 102.888 1078.12 102.888C1076.98 102.888 1076.19 103.704 1076.19 104.868C1076.19 105.432 1076.38 105.9 1076.77 106.272C1077.14 106.644 1077.64 106.836 1078.27 106.836C1078.93 106.836 1079.44 106.536 1079.84 105.948ZM1082.07 103.548L1081.4 102.54C1081.99 101.964 1082.99 101.616 1084.01 101.616C1085.65 101.616 1086.57 102.552 1086.57 104.184V108H1085.2V107.316C1084.75 107.82 1084.1 108.072 1083.27 108.072C1081.89 108.072 1081 107.304 1081 106.104C1081 104.772 1082.15 104.124 1083.92 104.124C1084.43 104.124 1084.87 104.184 1085.2 104.292C1085.21 103.344 1084.83 102.888 1083.86 102.888C1083.25 102.888 1082.65 103.104 1082.07 103.548ZM1083.57 106.884C1084.28 106.884 1084.83 106.596 1085.2 106.032V105.432C1084.87 105.324 1084.48 105.264 1084.06 105.264C1082.97 105.264 1082.42 105.54 1082.42 106.092C1082.42 106.584 1082.86 106.884 1083.57 106.884ZM1088.17 103.032H1087.09V101.76H1088.17V100.476H1089.54V101.76H1091.55V103.032H1089.54V105.444C1089.54 106.44 1089.76 106.8 1090.34 106.8C1090.66 106.8 1090.95 106.62 1091.23 106.272L1092.04 107.04C1091.7 107.652 1090.96 108.072 1090.14 108.072C1088.92 108.072 1088.17 107.28 1088.17 105.828V103.032ZM1094.01 108H1092.65V101.76H1094.01V108ZM1092.53 99.972C1092.53 99.552 1092.89 99.252 1093.33 99.252C1093.77 99.252 1094.12 99.576 1094.12 99.972C1094.12 100.404 1093.77 100.716 1093.33 100.716C1092.85 100.716 1092.53 100.404 1092.53 99.972ZM1094.99 104.868C1094.99 103.92 1095.3 103.14 1095.92 102.528C1096.54 101.916 1097.34 101.616 1098.32 101.616C1099.31 101.616 1100.11 101.916 1100.74 102.528C1101.36 103.14 1101.67 103.92 1101.67 104.868C1101.67 105.804 1101.36 106.572 1100.74 107.184C1100.11 107.796 1099.31 108.108 1098.32 108.108C1097.35 108.108 1096.56 107.796 1095.94 107.184C1095.3 106.572 1094.99 105.804 1094.99 104.868ZM1096.4 104.868C1096.4 105.432 1096.58 105.9 1096.94 106.272C1097.29 106.644 1097.76 106.836 1098.32 106.836C1099.48 106.836 1100.26 106.056 1100.26 104.868C1100.26 104.28 1100.08 103.8 1099.7 103.428C1099.33 103.068 1098.88 102.888 1098.32 102.888C1097.21 102.888 1096.4 103.668 1096.4 104.868ZM1103.91 108L1102.54 108V101.76H1103.91V102.324C1104.38 101.856 1105.02 101.628 1105.83 101.628C1107.5 101.628 1108.34 102.576 1108.34 104.472V108H1106.97V104.58C1106.97 103.392 1106.49 102.9 1105.43 102.9C1104.76 102.9 1104.18 103.296 1103.91 103.956V108ZM1110.12 103.548L1109.45 102.54C1110.04 101.964 1111.05 101.616 1112.07 101.616C1113.7 101.616 1114.62 102.552 1114.62 104.184V108H1113.25V107.316C1112.8 107.82 1112.15 108.072 1111.32 108.072C1109.94 108.072 1109.05 107.304 1109.05 106.104C1109.05 104.772 1110.21 104.124 1111.97 104.124C1112.49 104.124 1112.92 104.184 1113.25 104.292C1113.27 103.344 1112.88 102.888 1111.91 102.888C1111.3 102.888 1110.7 103.104 1110.12 103.548ZM1111.62 106.884C1112.33 106.884 1112.88 106.596 1113.25 106.032V105.432C1112.92 105.324 1112.53 105.264 1112.11 105.264C1111.02 105.264 1110.47 105.54 1110.47 106.092C1110.47 106.584 1110.91 106.884 1111.62 106.884ZM1117.11 108H1115.74V99.24H1117.11V108ZM1059.48 122H1058.11V121.316C1057.84 121.7 1057.19 122.096 1056.36 122.096C1055.46 122.096 1054.73 121.808 1054.18 121.244C1053.62 120.68 1053.35 119.888 1053.35 118.892C1053.35 117.944 1053.65 117.152 1054.26 116.54C1054.86 115.928 1055.59 115.616 1056.46 115.616C1057.2 115.616 1057.75 115.772 1058.11 116.084V113.24H1059.48V122ZM1056.61 120.824C1057.28 120.824 1057.88 120.368 1058.11 119.852V117.572C1057.79 117.116 1057.32 116.888 1056.68 116.888C1055.59 116.888 1054.76 117.656 1054.76 118.868C1054.76 120.068 1055.51 120.824 1056.61 120.824ZM1065.38 120.008L1066.22 120.836C1065.59 121.688 1064.75 122.108 1063.69 122.108C1062.68 122.108 1061.88 121.808 1061.27 121.22C1060.65 120.632 1060.34 119.852 1060.34 118.868C1060.34 117.92 1060.63 117.14 1061.19 116.528C1061.76 115.916 1062.54 115.616 1063.55 115.616C1064.4 115.616 1065.09 115.88 1065.65 116.396C1066.2 116.924 1066.47 117.62 1066.47 118.472C1066.47 118.676 1066.45 118.976 1066.4 119.348H1061.77C1061.88 120.308 1062.65 120.836 1063.71 120.836C1064.42 120.836 1064.97 120.56 1065.38 120.008ZM1063.49 116.852C1062.57 116.852 1061.96 117.344 1061.78 118.16H1065.06C1064.95 117.308 1064.39 116.852 1063.49 116.852ZM1071.49 115.76H1072.94L1070.17 122H1069.16L1066.25 115.76H1067.8L1069.69 119.924L1071.49 115.76ZM1077.72 120.008L1078.56 120.836C1077.92 121.688 1077.08 122.108 1076.02 122.108C1075.02 122.108 1074.21 121.808 1073.6 121.22C1072.99 120.632 1072.68 119.852 1072.68 118.868C1072.68 117.92 1072.96 117.14 1073.53 116.528C1074.09 115.916 1074.87 115.616 1075.88 115.616C1076.73 115.616 1077.43 115.88 1077.98 116.396C1078.53 116.924 1078.81 117.62 1078.81 118.472C1078.81 118.676 1078.78 118.976 1078.74 119.348H1074.1C1074.21 120.308 1074.98 120.836 1076.05 120.836C1076.76 120.836 1077.31 120.56 1077.72 120.008ZM1075.82 116.852C1074.91 116.852 1074.3 117.344 1074.12 118.16H1077.39C1077.28 117.308 1076.72 116.852 1075.82 116.852ZM1081.04 122H1079.68V113.24H1081.04V122ZM1081.9 118.868C1081.9 117.92 1082.22 117.14 1082.84 116.528C1083.45 115.916 1084.26 115.616 1085.24 115.616C1086.22 115.616 1087.03 115.916 1087.65 116.528C1088.28 117.14 1088.59 117.92 1088.59 118.868C1088.59 119.804 1088.28 120.572 1087.65 121.184C1087.03 121.796 1086.22 122.108 1085.24 122.108C1084.27 122.108 1083.48 121.796 1082.85 121.184C1082.22 120.572 1081.9 119.804 1081.9 118.868ZM1083.32 118.868C1083.32 119.432 1083.5 119.9 1083.86 120.272C1084.21 120.644 1084.68 120.836 1085.24 120.836C1086.39 120.836 1087.17 120.056 1087.17 118.868C1087.17 118.28 1086.99 117.8 1086.62 117.428C1086.25 117.068 1085.79 116.888 1085.24 116.888C1084.12 116.888 1083.32 117.668 1083.32 118.868ZM1090.82 124.4H1089.46V115.76H1090.82V116.324C1091.2 115.856 1091.88 115.616 1092.55 115.616C1093.48 115.616 1094.22 115.904 1094.76 116.492C1095.3 117.08 1095.58 117.836 1095.58 118.772C1095.58 119.744 1095.29 120.536 1094.71 121.16C1094.14 121.796 1093.38 122.108 1092.46 122.108C1091.65 122.108 1091.1 121.94 1090.82 121.592V124.4ZM1092.41 116.888C1091.65 116.888 1091.1 117.32 1090.82 117.908V120.068C1091.12 120.584 1091.62 120.836 1092.3 120.836C1093.42 120.836 1094.16 120.044 1094.16 118.88C1094.16 117.632 1093.5 116.888 1092.41 116.888ZM1105.41 117.86V122H1104.04V118.244C1104.04 117.344 1103.7 116.9 1103 116.9C1102.36 116.9 1101.9 117.224 1101.61 117.86V122H1100.24V117.944C1100.24 117.32 1099.86 116.9 1099.22 116.9C1098.55 116.9 1098.03 117.38 1097.8 117.92V122H1096.44V115.76H1097.8V116.3C1098.13 115.856 1098.69 115.628 1099.51 115.628C1100.29 115.628 1100.85 115.88 1101.2 116.396C1101.63 115.88 1102.26 115.628 1103.08 115.628C1104.56 115.628 1105.41 116.372 1105.41 117.86ZM1111.28 120.008L1112.12 120.836C1111.48 121.688 1110.64 122.108 1109.58 122.108C1108.58 122.108 1107.77 121.808 1107.16 121.22C1106.55 120.632 1106.24 119.852 1106.24 118.868C1106.24 117.92 1106.52 117.14 1107.09 116.528C1107.65 115.916 1108.43 115.616 1109.44 115.616C1110.29 115.616 1110.99 115.88 1111.54 116.396C1112.09 116.924 1112.37 117.62 1112.37 118.472C1112.37 118.676 1112.34 118.976 1112.3 119.348L1107.66 119.348C1107.77 120.308 1108.54 120.836 1109.61 120.836C1110.32 120.836 1110.87 120.56 1111.28 120.008ZM1109.38 116.852C1108.47 116.852 1107.86 117.344 1107.68 118.16L1110.95 118.16C1110.84 117.308 1110.28 116.852 1109.38 116.852ZM1114.6 122H1113.24V115.76H1114.6V116.324C1115.07 115.856 1115.72 115.628 1116.52 115.628C1118.19 115.628 1119.03 116.576 1119.03 118.472V122H1117.66V118.58C1117.66 117.392 1117.18 116.9 1116.13 116.9C1115.46 116.9 1114.88 117.296 1114.6 117.956V122ZM1120.63 117.032H1119.55V115.76H1120.63V114.476H1121.99V115.76H1124.01V117.032H1121.99V119.444C1121.99 120.44 1122.22 120.8 1122.8 120.8C1123.12 120.8 1123.41 120.62 1123.69 120.272L1124.5 121.04C1124.15 121.652 1123.42 122.072 1122.59 122.072C1121.38 122.072 1120.63 121.28 1120.63 119.828V117.032Z" fill="#3C525E"/>
<path d="M1060.2 181H1053.84V172.6H1060.08V173.968H1055.29V176.08H1059.77V177.4H1055.29V179.632H1060.2V181ZM1062.62 181H1061.25V174.76H1062.62V175.324C1063.09 174.856 1063.73 174.628 1064.54 174.628C1066.21 174.628 1067.05 175.576 1067.05 177.472V181H1065.68V177.58C1065.68 176.392 1065.2 175.9 1064.14 175.9C1063.47 175.9 1062.89 176.296 1062.62 176.956V181ZM1072.53 174.76H1073.98L1071.21 181H1070.2L1067.3 174.76H1068.85L1070.73 178.924L1072.53 174.76ZM1075.75 181H1074.38V174.76H1075.75V181ZM1074.26 172.972C1074.26 172.552 1074.62 172.252 1075.07 172.252C1075.51 172.252 1075.86 172.576 1075.86 172.972C1075.86 173.404 1075.51 173.716 1075.07 173.716C1074.59 173.716 1074.26 173.404 1074.26 172.972ZM1078.38 181H1077.02V174.76H1078.38V175.18C1078.54 174.856 1079.04 174.628 1079.51 174.628C1080.05 174.628 1080.46 174.808 1080.75 175.18L1079.97 176.176C1079.85 175.996 1079.64 175.9 1079.34 175.9C1078.9 175.9 1078.53 176.212 1078.38 176.776V181ZM1080.65 177.868C1080.65 176.92 1080.96 176.14 1081.59 175.528C1082.2 174.916 1083 174.616 1083.99 174.616C1084.97 174.616 1085.77 174.916 1086.4 175.528C1087.02 176.14 1087.33 176.92 1087.33 177.868C1087.33 178.804 1087.02 179.572 1086.4 180.184C1085.77 180.796 1084.97 181.108 1083.99 181.108C1083.01 181.108 1082.22 180.796 1081.6 180.184C1080.96 179.572 1080.65 178.804 1080.65 177.868ZM1082.07 177.868C1082.07 178.432 1082.25 178.9 1082.61 179.272C1082.95 179.644 1083.42 179.836 1083.99 179.836C1085.14 179.836 1085.92 179.056 1085.92 177.868C1085.92 177.28 1085.74 176.8 1085.37 176.428C1084.99 176.068 1084.54 175.888 1083.99 175.888C1082.87 175.888 1082.07 176.668 1082.07 177.868ZM1089.57 181H1088.2V174.76H1089.57V175.324C1090.04 174.856 1090.69 174.628 1091.49 174.628C1093.16 174.628 1094 175.576 1094 177.472V181H1092.63V177.58C1092.63 176.392 1092.15 175.9 1091.09 175.9C1090.42 175.9 1089.85 176.296 1089.57 176.956V181ZM1104.09 176.86V181H1102.72V177.244C1102.72 176.344 1102.37 175.9 1101.68 175.9C1101.04 175.9 1100.57 176.224 1100.28 176.86V181H1098.92V176.944C1098.92 176.32 1098.53 175.9 1097.9 175.9C1097.22 175.9 1096.71 176.38 1096.48 176.92V181H1095.11V174.76H1096.48V175.3C1096.8 174.856 1097.37 174.628 1098.18 174.628C1098.96 174.628 1099.53 174.88 1099.88 175.396C1100.31 174.88 1100.93 174.628 1101.76 174.628C1103.24 174.628 1104.09 175.372 1104.09 176.86ZM1109.95 179.008L1110.79 179.836C1110.16 180.688 1109.32 181.108 1108.26 181.108C1107.25 181.108 1106.45 180.808 1105.84 180.22C1105.22 179.632 1104.91 178.852 1104.91 177.868C1104.91 176.92 1105.2 176.14 1105.76 175.528C1106.33 174.916 1107.11 174.616 1108.12 174.616C1108.97 174.616 1109.66 174.88 1110.22 175.396C1110.77 175.924 1111.04 176.62 1111.04 177.472C1111.04 177.676 1111.02 177.976 1110.97 178.348H1106.34C1106.45 179.308 1107.22 179.836 1108.28 179.836C1108.99 179.836 1109.54 179.56 1109.95 179.008ZM1108.06 175.852C1107.14 175.852 1106.53 176.344 1106.35 177.16H1109.63C1109.52 176.308 1108.96 175.852 1108.06 175.852ZM1113.28 181H1111.91V174.76H1113.28V175.324C1113.75 174.856 1114.4 174.628 1115.2 174.628C1116.87 174.628 1117.71 175.576 1117.71 177.472V181H1116.34V177.58C1116.34 176.392 1115.86 175.9 1114.8 175.9C1114.13 175.9 1113.56 176.296 1113.28 176.956V181ZM1119.3 176.032H1118.22V174.76H1119.3V173.476H1120.67V174.76H1122.69V176.032H1120.67V178.444C1120.67 179.44 1120.9 179.8 1121.47 179.8C1121.8 179.8 1122.09 179.62 1122.36 179.272L1123.18 180.04C1122.83 180.652 1122.1 181.072 1121.27 181.072C1120.06 181.072 1119.3 180.28 1119.3 178.828V176.032ZM1124.33 176.548L1123.66 175.54C1124.25 174.964 1125.26 174.616 1126.28 174.616C1127.91 174.616 1128.83 175.552 1128.83 177.184V181H1127.46V180.316C1127.01 180.82 1126.36 181.072 1125.53 181.072C1124.15 181.072 1123.26 180.304 1123.26 179.104C1123.26 177.772 1124.42 177.124 1126.18 177.124C1126.7 177.124 1127.13 177.184 1127.46 177.292C1127.48 176.344 1127.09 175.888 1126.12 175.888C1125.51 175.888 1124.91 176.104 1124.33 176.548ZM1125.83 179.884C1126.54 179.884 1127.09 179.596 1127.46 179.032V178.432C1127.13 178.324 1126.74 178.264 1126.32 178.264C1125.23 178.264 1124.68 178.54 1124.68 179.092C1124.68 179.584 1125.12 179.884 1125.83 179.884ZM1131.32 181H1129.95V172.24H1131.32V181ZM1055 197.4H1053.64V188.76H1055V189.324C1055.38 188.856 1056.06 188.616 1056.73 188.616C1057.66 188.616 1058.4 188.904 1058.94 189.492C1059.48 190.08 1059.76 190.836 1059.76 191.772C1059.76 192.744 1059.47 193.536 1058.89 194.16C1058.32 194.796 1057.56 195.108 1056.64 195.108C1055.83 195.108 1055.28 194.94 1055 194.592V197.4ZM1056.59 189.888C1055.83 189.888 1055.28 190.32 1055 190.908V193.068C1055.3 193.584 1055.8 193.836 1056.48 193.836C1057.6 193.836 1058.34 193.044 1058.34 191.88C1058.34 190.632 1057.68 189.888 1056.59 189.888ZM1061.99 195H1060.62V188.76H1061.99V189.18C1062.14 188.856 1062.65 188.628 1063.11 188.628C1063.65 188.628 1064.06 188.808 1064.35 189.18L1063.57 190.176C1063.45 189.996 1063.25 189.9 1062.95 189.9C1062.5 189.9 1062.13 190.212 1061.99 190.776V195ZM1064.25 191.868C1064.25 190.92 1064.56 190.14 1065.19 189.528C1065.8 188.916 1066.6 188.616 1067.59 188.616C1068.57 188.616 1069.38 188.916 1070 189.528C1070.62 190.14 1070.94 190.92 1070.94 191.868C1070.94 192.804 1070.62 193.572 1070 194.184C1069.38 194.796 1068.57 195.108 1067.59 195.108C1066.62 195.108 1065.82 194.796 1065.2 194.184C1064.56 193.572 1064.25 192.804 1064.25 191.868ZM1065.67 191.868C1065.67 192.432 1065.85 192.9 1066.21 193.272C1066.56 193.644 1067.02 193.836 1067.59 193.836C1068.74 193.836 1069.52 193.056 1069.52 191.868C1069.52 191.28 1069.34 190.8 1068.97 190.428C1068.6 190.068 1068.14 189.888 1067.59 189.888C1066.47 189.888 1065.67 190.668 1065.67 191.868ZM1072.28 190.032H1071.2V188.76H1072.28V187.476H1073.65V188.76H1075.67V190.032H1073.65V192.444C1073.65 193.44 1073.88 193.8 1074.46 193.8C1074.78 193.8 1075.07 193.62 1075.34 193.272L1076.16 194.04C1075.81 194.652 1075.08 195.072 1074.25 195.072C1073.04 195.072 1072.28 194.28 1072.28 192.828V190.032ZM1081.13 193.008L1081.97 193.836C1081.34 194.688 1080.5 195.108 1079.44 195.108C1078.43 195.108 1077.63 194.808 1077.02 194.22C1076.41 193.632 1076.09 192.852 1076.09 191.868C1076.09 190.92 1076.38 190.14 1076.95 189.528C1077.51 188.916 1078.29 188.616 1079.3 188.616C1080.15 188.616 1080.85 188.88 1081.4 189.396C1081.95 189.924 1082.23 190.62 1082.23 191.472C1082.23 191.676 1082.2 191.976 1082.15 192.348H1077.52C1077.63 193.308 1078.4 193.836 1079.47 193.836C1080.17 193.836 1080.73 193.56 1081.13 193.008ZM1079.24 189.852C1078.33 189.852 1077.71 190.344 1077.53 191.16H1080.81C1080.7 190.308 1080.14 189.852 1079.24 189.852ZM1087.75 192.948L1088.73 193.572C1088.23 194.544 1087.17 195.108 1086.05 195.108C1085.04 195.108 1084.23 194.808 1083.61 194.22C1083 193.632 1082.69 192.84 1082.69 191.868C1082.69 190.932 1082.99 190.152 1083.6 189.54C1084.21 188.928 1085.01 188.616 1085.98 188.616C1087.23 188.616 1088.23 189.18 1088.65 190.032L1087.63 190.704C1087.23 190.164 1086.7 189.888 1086.04 189.888C1084.9 189.888 1084.11 190.704 1084.11 191.868C1084.11 192.432 1084.3 192.9 1084.68 193.272C1085.05 193.644 1085.56 193.836 1086.18 193.836C1086.84 193.836 1087.36 193.536 1087.75 192.948ZM1089.79 190.032H1088.71V188.76H1089.79V187.476H1091.16V188.76H1093.18V190.032H1091.16V192.444C1091.16 193.44 1091.39 193.8 1091.97 193.8C1092.29 193.8 1092.58 193.62 1092.85 193.272L1093.67 194.04C1093.32 194.652 1092.59 195.072 1091.76 195.072C1090.55 195.072 1089.79 194.28 1089.79 192.828V190.032ZM1095.64 195H1094.27V188.76H1095.64V195ZM1094.15 186.972C1094.15 186.552 1094.51 186.252 1094.96 186.252C1095.4 186.252 1095.75 186.576 1095.75 186.972C1095.75 187.404 1095.4 187.716 1094.96 187.716C1094.48 187.716 1094.15 187.404 1094.15 186.972ZM1096.61 191.868C1096.61 190.92 1096.93 190.14 1097.55 189.528C1098.16 188.916 1098.97 188.616 1099.95 188.616C1100.93 188.616 1101.74 188.916 1102.36 189.528C1102.99 190.14 1103.3 190.92 1103.3 191.868C1103.3 192.804 1102.99 193.572 1102.36 194.184C1101.74 194.796 1100.93 195.108 1099.95 195.108C1098.98 195.108 1098.19 194.796 1097.56 194.184C1096.93 193.572 1096.61 192.804 1096.61 191.868ZM1098.03 191.868C1098.03 192.432 1098.21 192.9 1098.57 193.272C1098.92 193.644 1099.39 193.836 1099.95 193.836C1101.1 193.836 1101.88 193.056 1101.88 191.868C1101.88 191.28 1101.7 190.8 1101.33 190.428C1100.96 190.068 1100.5 189.888 1099.95 189.888C1098.83 189.888 1098.03 190.668 1098.03 191.868ZM1105.53 195H1104.17V188.76H1105.53V189.324C1106 188.856 1106.65 188.628 1107.45 188.628C1109.12 188.628 1109.96 189.576 1109.96 191.472V195H1108.59V191.58C1108.59 190.392 1108.11 189.9 1107.06 189.9C1106.39 189.9 1105.81 190.296 1105.53 190.956V195Z" fill="#3C525E"/>
<path d="M1058.71 305.72C1058.71 303.824 1053.53 304.952 1053.53 301.88C1053.53 301.22 1053.84 300.656 1054.46 300.188C1055.08 299.732 1055.87 299.504 1056.82 299.504C1058.2 299.504 1059.29 299.9 1060.07 300.704L1059.28 301.736C1058.57 301.148 1057.74 300.86 1056.78 300.86C1055.78 300.86 1055.03 301.184 1055.03 301.844C1055.03 302.72 1056.32 302.828 1057.62 303.2C1058.52 303.464 1059.31 303.704 1059.83 304.376C1060.08 304.724 1060.21 305.132 1060.21 305.612C1060.21 306.344 1059.9 306.932 1059.28 307.4C1058.65 307.868 1057.88 308.096 1056.98 308.096C1056.25 308.096 1055.54 307.952 1054.86 307.652C1054.18 307.364 1053.66 307.004 1053.29 306.56L1054.15 305.54C1054.91 306.344 1055.9 306.74 1057.12 306.74C1058.12 306.74 1058.71 306.356 1058.71 305.72ZM1065.38 301.724H1066.75V308H1065.38V307.34C1064.93 307.856 1064.35 308.108 1063.64 308.108C1061.9 308.108 1061.05 307.22 1061.05 305.312V301.724H1062.42V305.18C1062.42 306.284 1062.87 306.836 1063.77 306.836C1064.48 306.836 1065.02 306.476 1065.38 305.756V301.724ZM1069.27 310.4H1067.9V301.76H1069.27V302.324C1069.64 301.856 1070.33 301.616 1071 301.616C1071.92 301.616 1072.67 301.904 1073.21 302.492C1073.75 303.08 1074.02 303.836 1074.02 304.772C1074.02 305.744 1073.74 306.536 1073.16 307.16C1072.58 307.796 1071.83 308.108 1070.9 308.108C1070.1 308.108 1069.55 307.94 1069.27 307.592V310.4ZM1070.86 302.888C1070.1 302.888 1069.55 303.32 1069.27 303.908V306.068C1069.57 306.584 1070.06 306.836 1070.75 306.836C1071.86 306.836 1072.61 306.044 1072.61 304.88C1072.61 303.632 1071.95 302.888 1070.86 302.888ZM1076.25 310.4H1074.89V301.76H1076.25V302.324C1076.63 301.856 1077.31 301.616 1077.98 301.616C1078.91 301.616 1079.65 301.904 1080.19 302.492C1080.73 303.08 1081.01 303.836 1081.01 304.772C1081.01 305.744 1080.72 306.536 1080.14 307.16C1079.57 307.796 1078.81 308.108 1077.89 308.108C1077.08 308.108 1076.53 307.94 1076.25 307.592V310.4ZM1077.84 302.888C1077.08 302.888 1076.53 303.32 1076.25 303.908V306.068C1076.55 306.584 1077.05 306.836 1077.73 306.836C1078.85 306.836 1079.59 306.044 1079.59 304.88C1079.59 303.632 1078.93 302.888 1077.84 302.888ZM1081.58 304.868C1081.58 303.92 1081.89 303.14 1082.51 302.528C1083.13 301.916 1083.93 301.616 1084.91 301.616C1085.9 301.616 1086.7 301.916 1087.33 302.528C1087.95 303.14 1088.26 303.92 1088.26 304.868C1088.26 305.804 1087.95 306.572 1087.33 307.184C1086.7 307.796 1085.9 308.108 1084.91 308.108C1083.94 308.108 1083.15 307.796 1082.53 307.184C1081.89 306.572 1081.58 305.804 1081.58 304.868ZM1082.99 304.868C1082.99 305.432 1083.17 305.9 1083.53 306.272C1083.88 306.644 1084.35 306.836 1084.91 306.836C1086.07 306.836 1086.85 306.056 1086.85 304.868C1086.85 304.28 1086.67 303.8 1086.29 303.428C1085.92 303.068 1085.47 302.888 1084.91 302.888C1083.8 302.888 1082.99 303.668 1082.99 304.868ZM1090.5 308H1089.13V301.76H1090.5V302.18C1090.65 301.856 1091.16 301.628 1091.63 301.628C1092.17 301.628 1092.57 301.808 1092.86 302.18L1092.08 303.176C1091.96 302.996 1091.76 302.9 1091.46 302.9C1091.01 302.9 1090.64 303.212 1090.5 303.776V308ZM1093.85 303.032H1092.77V301.76H1093.85V300.476H1095.22V301.76H1097.23V303.032H1095.22V305.444C1095.22 306.44 1095.45 306.8 1096.02 306.8C1096.35 306.8 1096.63 306.62 1096.91 306.272L1097.73 307.04C1097.38 307.652 1096.65 308.072 1095.82 308.072C1094.61 308.072 1093.85 307.28 1093.85 305.828V303.032ZM1101.33 303.032H1100.32V301.76H1101.33V301.556C1101.33 299.888 1102.27 299.144 1103.51 299.144C1104.19 299.144 1104.8 299.432 1105.12 299.876L1104.35 300.74C1104.17 300.524 1103.92 300.416 1103.59 300.416C1103 300.416 1102.7 300.812 1102.7 301.592V301.76H1104.45V303.032H1102.7V308H1101.33V303.032ZM1104.45 304.868C1104.45 303.92 1104.76 303.14 1105.39 302.528C1106 301.916 1106.8 301.616 1107.79 301.616C1108.77 301.616 1109.58 301.916 1110.2 302.528C1110.82 303.14 1111.14 303.92 1111.14 304.868C1111.14 305.804 1110.82 306.572 1110.2 307.184C1109.58 307.796 1108.77 308.108 1107.79 308.108C1106.82 308.108 1106.02 307.796 1105.4 307.184C1104.76 306.572 1104.45 305.804 1104.45 304.868ZM1105.87 304.868C1105.87 305.432 1106.05 305.9 1106.41 306.272C1106.76 306.644 1107.22 306.836 1107.79 306.836C1108.94 306.836 1109.72 306.056 1109.72 304.868C1109.72 304.28 1109.54 303.8 1109.17 303.428C1108.8 303.068 1108.34 302.888 1107.79 302.888C1106.67 302.888 1105.87 303.668 1105.87 304.868ZM1113.37 308H1112V301.76H1113.37V302.18C1113.53 301.856 1114.03 301.628 1114.5 301.628C1115.04 301.628 1115.45 301.808 1115.73 302.18L1114.95 303.176C1114.83 302.996 1114.63 302.9 1114.33 302.9C1113.89 302.9 1113.51 303.212 1113.37 303.776V308ZM1055.12 322H1053.76V315.76H1055.12V322ZM1053.64 313.972C1053.64 313.552 1054 313.252 1054.44 313.252C1054.88 313.252 1055.23 313.576 1055.23 313.972C1055.23 314.404 1054.88 314.716 1054.44 314.716C1053.96 314.716 1053.64 314.404 1053.64 313.972ZM1057.76 322H1056.39V315.76H1057.76V316.324C1058.22 315.856 1058.87 315.628 1059.68 315.628C1061.34 315.628 1062.18 316.576 1062.18 318.472V322H1060.82V318.58C1060.82 317.392 1060.34 316.9 1059.28 316.9C1058.61 316.9 1058.03 317.296 1057.76 317.956V322ZM1069.14 322H1067.77V321.316C1067.5 321.7 1066.85 322.096 1066.02 322.096C1065.12 322.096 1064.39 321.808 1063.84 321.244C1063.29 320.68 1063.01 319.888 1063.01 318.892C1063.01 317.944 1063.31 317.152 1063.92 316.54C1064.52 315.928 1065.25 315.616 1066.12 315.616C1066.86 315.616 1067.41 315.772 1067.77 316.084V313.24H1069.14V322ZM1066.27 320.824C1066.95 320.824 1067.55 320.368 1067.77 319.852V317.572C1067.45 317.116 1066.98 316.888 1066.35 316.888C1065.25 316.888 1064.43 317.656 1064.43 318.868C1064.43 320.068 1065.17 320.824 1066.27 320.824ZM1074.59 315.724H1075.96V322H1074.59V321.34C1074.13 321.856 1073.56 322.108 1072.85 322.108C1071.11 322.108 1070.26 321.22 1070.26 319.312V315.724H1071.62V319.18C1071.62 320.284 1072.08 320.836 1072.98 320.836C1073.69 320.836 1074.23 320.476 1074.59 319.756V315.724ZM1080.75 320.224C1080.75 319.708 1079.38 319.504 1078.31 319.108C1077.57 318.832 1076.97 318.256 1076.97 317.476C1076.97 316.324 1077.94 315.616 1079.53 315.616C1080.6 315.616 1081.62 316.108 1082.05 316.72L1081.12 317.608C1080.7 317.128 1080.1 316.888 1079.31 316.888C1078.69 316.888 1078.38 317.08 1078.38 317.452C1078.38 318.304 1082.16 318.028 1082.16 320.212C1082.16 320.836 1081.92 321.304 1081.43 321.628C1080.94 321.952 1080.33 322.108 1079.59 322.108C1078.25 322.108 1077.17 321.484 1076.7 320.608L1077.78 319.864C1078.13 320.428 1078.92 320.836 1079.73 320.836C1080.3 320.836 1080.75 320.644 1080.75 320.224ZM1083.42 317.032H1082.34V315.76H1083.42V314.476H1084.79V315.76H1086.81V317.032H1084.79V319.444C1084.79 320.44 1085.02 320.8 1085.59 320.8C1085.92 320.8 1086.21 320.62 1086.48 320.272L1087.3 321.04C1086.95 321.652 1086.22 322.072 1085.39 322.072C1084.18 322.072 1083.42 321.28 1083.42 319.828V317.032ZM1089.15 322H1087.78V315.76H1089.15V316.18C1089.3 315.856 1089.81 315.628 1090.28 315.628C1090.82 315.628 1091.22 315.808 1091.51 316.18L1090.73 317.176C1090.61 316.996 1090.41 316.9 1090.11 316.9C1089.66 316.9 1089.29 317.212 1089.15 317.776V322ZM1092.28 324.328L1092.82 323.164C1092.91 323.212 1092.99 323.236 1093.1 323.236C1093.47 323.236 1093.81 322.888 1094.08 322.192L1094.3 321.628L1091.23 315.76H1092.81L1094.96 319.972L1096.61 315.76H1098.08L1095.63 321.82C1095.21 322.84 1094.83 323.536 1094.47 323.932C1094.09 324.316 1093.66 324.508 1093.15 324.508C1092.81 324.508 1092.52 324.448 1092.28 324.328ZM1105.56 315.76H1107.01L1104.24 322H1103.23L1100.32 315.76H1101.87L1103.76 319.924L1105.56 315.76ZM1111.79 320.008L1112.63 320.836C1111.99 321.688 1111.15 322.108 1110.09 322.108C1109.09 322.108 1108.28 321.808 1107.67 321.22C1107.06 320.632 1106.75 319.852 1106.75 318.868C1106.75 317.92 1107.03 317.14 1107.6 316.528C1108.16 315.916 1108.94 315.616 1109.95 315.616C1110.8 315.616 1111.5 315.88 1112.05 316.396C1112.6 316.924 1112.88 317.62 1112.88 318.472C1112.88 318.676 1112.85 318.976 1112.81 319.348H1108.17C1108.28 320.308 1109.05 320.836 1110.12 320.836C1110.83 320.836 1111.38 320.56 1111.79 320.008ZM1109.89 316.852C1108.98 316.852 1108.37 317.344 1108.19 318.16H1111.46C1111.35 317.308 1110.79 316.852 1109.89 316.852ZM1114.23 317.032H1113.15V315.76H1114.23V314.476H1115.59V315.76H1117.61V317.032H1115.59V319.444C1115.59 320.44 1115.82 320.8 1116.4 320.8C1116.72 320.8 1117.01 320.62 1117.29 320.272L1118.1 321.04C1117.75 321.652 1117.02 322.072 1116.19 322.072C1114.98 322.072 1114.23 321.28 1114.23 319.828V317.032ZM1123.08 320.008L1123.92 320.836C1123.28 321.688 1122.44 322.108 1121.38 322.108C1120.38 322.108 1119.57 321.808 1118.96 321.22C1118.35 320.632 1118.04 319.852 1118.04 318.868C1118.04 317.92 1118.32 317.14 1118.89 316.528C1119.45 315.916 1120.23 315.616 1121.24 315.616C1122.09 315.616 1122.79 315.88 1123.34 316.396C1123.89 316.924 1124.17 317.62 1124.17 318.472C1124.17 318.676 1124.14 318.976 1124.1 319.348H1119.46C1119.57 320.308 1120.34 320.836 1121.41 320.836C1122.12 320.836 1122.67 320.56 1123.08 320.008ZM1121.18 316.852C1120.27 316.852 1119.66 317.344 1119.48 318.16H1122.75C1122.64 317.308 1122.08 316.852 1121.18 316.852ZM1126.4 322H1125.04V315.76H1126.4V316.18C1126.56 315.856 1127.06 315.628 1127.53 315.628C1128.07 315.628 1128.48 315.808 1128.77 316.18L1127.99 317.176C1127.87 316.996 1127.66 316.9 1127.36 316.9C1126.92 316.9 1126.55 317.212 1126.4 317.776V322ZM1129.95 317.548L1129.28 316.54C1129.86 315.964 1130.87 315.616 1131.89 315.616C1133.52 315.616 1134.45 316.552 1134.45 318.184V322H1133.08V321.316C1132.62 321.82 1131.98 322.072 1131.15 322.072C1129.77 322.072 1128.88 321.304 1128.88 320.104C1128.88 318.772 1130.03 318.124 1131.8 318.124C1132.31 318.124 1132.74 318.184 1133.08 318.292C1133.09 317.344 1132.71 316.888 1131.74 316.888C1131.12 316.888 1130.52 317.104 1129.95 317.548ZM1131.45 320.884C1132.16 320.884 1132.71 320.596 1133.08 320.032V319.432C1132.74 319.324 1132.36 319.264 1131.94 319.264C1130.85 319.264 1130.3 319.54 1130.3 320.092C1130.3 320.584 1130.74 320.884 1131.45 320.884ZM1136.93 322H1135.57V315.76H1136.93V316.324C1137.4 315.856 1138.05 315.628 1138.85 315.628C1140.52 315.628 1141.36 316.576 1141.36 318.472V322H1139.99V318.58C1139.99 317.392 1139.51 316.9 1138.46 316.9C1137.79 316.9 1137.21 317.296 1136.93 317.956V322ZM1146.11 320.224C1146.11 319.708 1144.75 319.504 1143.68 319.108C1142.93 318.832 1142.33 318.256 1142.33 317.476C1142.33 316.324 1143.31 315.616 1144.9 315.616C1145.97 315.616 1146.99 316.108 1147.42 316.72L1146.49 317.608C1146.07 317.128 1145.47 316.888 1144.67 316.888C1144.06 316.888 1143.75 317.08 1143.75 317.452C1143.75 318.304 1147.53 318.028 1147.53 320.212C1147.53 320.836 1147.29 321.304 1146.8 321.628C1146.31 321.952 1145.69 322.108 1144.96 322.108C1143.62 322.108 1142.54 321.484 1142.07 320.608L1143.15 319.864C1143.5 320.428 1144.29 320.836 1145.09 320.836C1145.67 320.836 1146.11 320.644 1146.11 320.224Z" fill="#3C525E"/>
<path d="M1060.27 251.6L1061.12 252.536C1060.44 253.508 1059.16 254.096 1057.72 254.096C1056.4 254.096 1055.35 253.7 1054.57 252.92C1053.79 252.14 1053.4 251.108 1053.4 249.8C1053.4 248.576 1053.79 247.556 1054.58 246.728C1055.38 245.912 1056.41 245.504 1057.69 245.504C1059.17 245.504 1060.4 246.092 1060.99 246.956L1060.03 247.868C1059.44 247.22 1058.69 246.896 1057.76 246.896C1056.9 246.896 1056.2 247.16 1055.69 247.688C1055.17 248.216 1054.91 248.924 1054.91 249.8C1054.91 250.676 1055.18 251.372 1055.72 251.9C1056.26 252.44 1056.96 252.704 1057.82 252.704C1058.84 252.704 1059.66 252.332 1060.27 251.6ZM1063.19 254H1061.82V245.24H1063.19V248.3C1063.64 247.856 1064.25 247.628 1065 247.628C1066.73 247.628 1067.6 248.576 1067.6 250.484V254H1066.23V250.568C1066.23 249.404 1065.76 248.9 1064.72 248.9C1064.06 248.9 1063.49 249.296 1063.19 249.932V254ZM1069.38 249.548L1068.71 248.54C1069.3 247.964 1070.31 247.616 1071.33 247.616C1072.96 247.616 1073.88 248.552 1073.88 250.184V254H1072.52V253.316C1072.06 253.82 1071.41 254.072 1070.58 254.072C1069.2 254.072 1068.32 253.304 1068.32 252.104C1068.32 250.772 1069.47 250.124 1071.23 250.124C1071.75 250.124 1072.18 250.184 1072.52 250.292C1072.53 249.344 1072.14 248.888 1071.17 248.888C1070.56 248.888 1069.96 249.104 1069.38 249.548ZM1070.88 252.884C1071.59 252.884 1072.14 252.596 1072.52 252.032V251.432C1072.18 251.324 1071.8 251.264 1071.38 251.264C1070.28 251.264 1069.73 251.54 1069.73 252.092C1069.73 252.584 1070.18 252.884 1070.88 252.884ZM1076.37 254H1075V247.76H1076.37V248.18C1076.53 247.856 1077.03 247.628 1077.5 247.628C1078.04 247.628 1078.45 247.808 1078.73 248.18L1077.95 249.176C1077.83 248.996 1077.63 248.9 1077.33 248.9C1076.89 248.9 1076.51 249.212 1076.37 249.776V254ZM1080.73 254H1079.36V247.76H1080.73V254ZM1079.24 245.972C1079.24 245.552 1079.6 245.252 1080.05 245.252C1080.49 245.252 1080.84 245.576 1080.84 245.972C1080.84 246.404 1080.49 246.716 1080.05 246.716C1079.57 246.716 1079.24 246.404 1079.24 245.972ZM1082.47 249.032H1081.39V247.76H1082.47V246.476H1083.84V247.76H1085.86V249.032H1083.84V251.444C1083.84 252.44 1084.07 252.8 1084.65 252.8C1084.97 252.8 1085.26 252.62 1085.53 252.272L1086.35 253.04C1086 253.652 1085.27 254.072 1084.44 254.072C1083.23 254.072 1082.47 253.28 1082.47 251.828V249.032ZM1087.06 256.328L1087.6 255.164C1087.68 255.212 1087.77 255.236 1087.87 255.236C1088.25 255.236 1088.58 254.888 1088.86 254.192L1089.07 253.628L1086 247.76H1087.59L1089.73 251.972L1091.39 247.76H1092.85L1090.41 253.82C1089.99 254.84 1089.6 255.536 1089.24 255.932C1088.87 256.316 1088.44 256.508 1087.92 256.508C1087.59 256.508 1087.3 256.448 1087.06 256.328ZM1096.64 249.548L1095.97 248.54C1096.55 247.964 1097.56 247.616 1098.58 247.616C1100.21 247.616 1101.14 248.552 1101.14 250.184V254H1099.77V253.316C1099.31 253.82 1098.67 254.072 1097.84 254.072C1096.46 254.072 1095.57 253.304 1095.57 252.104C1095.57 250.772 1096.72 250.124 1098.49 250.124C1099 250.124 1099.43 250.184 1099.77 250.292C1099.78 249.344 1099.4 248.888 1098.43 248.888C1097.81 248.888 1097.21 249.104 1096.64 249.548ZM1098.14 252.884C1098.85 252.884 1099.4 252.596 1099.77 252.032V251.432C1099.43 251.324 1099.05 251.264 1098.63 251.264C1097.54 251.264 1096.99 251.54 1096.99 252.092C1096.99 252.584 1097.43 252.884 1098.14 252.884ZM1103.62 254H1102.26V247.76H1103.62V248.324C1104.09 247.856 1104.74 247.628 1105.54 247.628C1107.21 247.628 1108.05 248.576 1108.05 250.472V254H1106.68V250.58C1106.68 249.392 1106.2 248.9 1105.15 248.9C1104.48 248.9 1103.9 249.296 1103.62 249.956V254ZM1115.01 254H1113.64V253.316C1113.37 253.7 1112.72 254.096 1111.89 254.096C1110.99 254.096 1110.26 253.808 1109.71 253.244C1109.15 252.68 1108.88 251.888 1108.88 250.892C1108.88 249.944 1109.18 249.152 1109.79 248.54C1110.39 247.928 1111.12 247.616 1111.99 247.616C1112.73 247.616 1113.28 247.772 1113.64 248.084V245.24H1115.01V254ZM1112.14 252.824C1112.81 252.824 1113.41 252.368 1113.64 251.852V249.572C1113.32 249.116 1112.85 248.888 1112.21 248.888C1111.12 248.888 1110.29 249.656 1110.29 250.868C1110.29 252.068 1111.04 252.824 1112.14 252.824ZM1057.27 266.224C1057.27 265.708 1055.9 265.504 1054.84 265.108C1054.09 264.832 1053.49 264.256 1053.49 263.476C1053.49 262.324 1054.46 261.616 1056.06 261.616C1057.13 261.616 1058.15 262.108 1058.58 262.72L1057.64 263.608C1057.22 263.128 1056.62 262.888 1055.83 262.888C1055.22 262.888 1054.91 263.08 1054.91 263.452C1054.91 264.304 1058.69 264.028 1058.69 266.212C1058.69 266.836 1058.45 267.304 1057.96 267.628C1057.46 267.952 1056.85 268.108 1056.12 268.108C1054.78 268.108 1053.7 267.484 1053.23 266.608L1054.31 265.864C1054.66 266.428 1055.45 266.836 1056.25 266.836C1056.83 266.836 1057.27 266.644 1057.27 266.224ZM1060.84 270.4H1059.47V261.76H1060.84V262.324C1061.21 261.856 1061.89 261.616 1062.57 261.616C1063.49 261.616 1064.23 261.904 1064.77 262.492C1065.31 263.08 1065.59 263.836 1065.59 264.772C1065.59 265.744 1065.3 266.536 1064.73 267.16C1064.15 267.796 1063.39 268.108 1062.47 268.108C1061.67 268.108 1061.11 267.94 1060.84 267.592V270.4ZM1062.42 262.888C1061.67 262.888 1061.11 263.32 1060.84 263.908V266.068C1061.14 266.584 1061.63 266.836 1062.31 266.836C1063.43 266.836 1064.17 266.044 1064.17 264.88C1064.17 263.632 1063.51 262.888 1062.42 262.888ZM1066.16 264.868C1066.16 263.92 1066.47 263.14 1067.1 262.528C1067.71 261.916 1068.51 261.616 1069.5 261.616C1070.48 261.616 1071.29 261.916 1071.91 262.528C1072.53 263.14 1072.85 263.92 1072.85 264.868C1072.85 265.804 1072.53 266.572 1071.91 267.184C1071.29 267.796 1070.48 268.108 1069.5 268.108C1068.53 268.108 1067.73 267.796 1067.11 267.184C1066.47 266.572 1066.16 265.804 1066.16 264.868ZM1067.58 264.868C1067.58 265.432 1067.76 265.9 1068.12 266.272C1068.47 266.644 1068.93 266.836 1069.5 266.836C1070.65 266.836 1071.43 266.056 1071.43 264.868C1071.43 264.28 1071.25 263.8 1070.88 263.428C1070.51 263.068 1070.05 262.888 1069.5 262.888C1068.38 262.888 1067.58 263.668 1067.58 264.868ZM1075.08 268H1073.71V261.76H1075.08V262.324C1075.55 261.856 1076.2 261.628 1077 261.628C1078.67 261.628 1079.51 262.576 1079.51 264.472V268H1078.14V264.58C1078.14 263.392 1077.66 262.9 1076.61 262.9C1075.93 262.9 1075.36 263.296 1075.08 263.956V268ZM1084.26 266.224C1084.26 265.708 1082.89 265.504 1081.82 265.108C1081.08 264.832 1080.48 264.256 1080.48 263.476C1080.48 262.324 1081.45 261.616 1083.05 261.616C1084.12 261.616 1085.14 262.108 1085.57 262.72L1084.63 263.608C1084.21 263.128 1083.61 262.888 1082.82 262.888C1082.21 262.888 1081.9 263.08 1081.9 263.452C1081.9 264.304 1085.68 264.028 1085.68 266.212C1085.68 266.836 1085.44 267.304 1084.94 267.628C1084.45 267.952 1083.84 268.108 1083.11 268.108C1081.76 268.108 1080.68 267.484 1080.22 266.608L1081.3 265.864C1081.64 266.428 1082.44 266.836 1083.24 266.836C1083.82 266.836 1084.26 266.644 1084.26 266.224ZM1086.17 264.868C1086.17 263.92 1086.48 263.14 1087.11 262.528C1087.72 261.916 1088.52 261.616 1089.51 261.616C1090.49 261.616 1091.29 261.916 1091.92 262.528C1092.54 263.14 1092.85 263.92 1092.85 264.868C1092.85 265.804 1092.54 266.572 1091.92 267.184C1091.29 267.796 1090.49 268.108 1089.51 268.108C1088.53 268.108 1087.74 267.796 1087.12 267.184C1086.48 266.572 1086.17 265.804 1086.17 264.868ZM1087.59 264.868C1087.59 265.432 1087.77 265.9 1088.13 266.272C1088.47 266.644 1088.94 266.836 1089.51 266.836C1090.66 266.836 1091.44 266.056 1091.44 264.868C1091.44 264.28 1091.26 263.8 1090.89 263.428C1090.51 263.068 1090.06 262.888 1089.51 262.888C1088.39 262.888 1087.59 263.668 1087.59 264.868ZM1095.09 268H1093.72V261.76H1095.09V262.18C1095.24 261.856 1095.75 261.628 1096.22 261.628C1096.76 261.628 1097.16 261.808 1097.45 262.18L1096.67 263.176C1096.55 262.996 1096.35 262.9 1096.05 262.9C1095.6 262.9 1095.23 263.212 1095.09 263.776V268ZM1101.6 266.224C1101.6 265.708 1100.23 265.504 1099.16 265.108C1098.42 264.832 1097.82 264.256 1097.82 263.476C1097.82 262.324 1098.79 261.616 1100.38 261.616C1101.45 261.616 1102.47 262.108 1102.9 262.72L1101.97 263.608C1101.55 263.128 1100.95 262.888 1100.16 262.888C1099.54 262.888 1099.23 263.08 1099.23 263.452C1099.23 264.304 1103.01 264.028 1103.01 266.212C1103.01 266.836 1102.77 267.304 1102.28 267.628C1101.79 267.952 1101.18 268.108 1100.44 268.108C1099.1 268.108 1098.02 267.484 1097.55 266.608L1098.63 265.864C1098.98 266.428 1099.77 266.836 1100.58 266.836C1101.15 266.836 1101.6 266.644 1101.6 266.224ZM1105.16 268H1103.79V259.24H1105.16V262.3C1105.61 261.856 1106.22 261.628 1106.97 261.628C1108.7 261.628 1109.57 262.576 1109.57 264.484V268H1108.2V264.568C1108.2 263.404 1107.73 262.9 1106.69 262.9C1106.03 262.9 1105.46 263.296 1105.16 263.932V268ZM1112.17 268H1110.8V261.76H1112.17V268ZM1110.68 259.972C1110.68 259.552 1111.04 259.252 1111.48 259.252C1111.93 259.252 1112.28 259.576 1112.28 259.972C1112.28 260.404 1111.93 260.716 1111.48 260.716C1111 260.716 1110.68 260.404 1110.68 259.972ZM1114.8 270.4H1113.43V261.76H1114.8V262.324C1115.17 261.856 1115.86 261.616 1116.53 261.616C1117.45 261.616 1118.2 261.904 1118.74 262.492C1119.28 263.08 1119.55 263.836 1119.55 264.772C1119.55 265.744 1119.26 266.536 1118.69 267.16C1118.11 267.796 1117.36 268.108 1116.43 268.108C1115.63 268.108 1115.08 267.94 1114.8 267.592V270.4ZM1116.38 262.888C1115.63 262.888 1115.08 263.32 1114.8 263.908V266.068C1115.1 266.584 1115.59 266.836 1116.28 266.836C1117.39 266.836 1118.14 266.044 1118.14 264.88C1118.14 263.632 1117.48 262.888 1116.38 262.888Z" fill="#3C525E"/>
<path d="M1058.27 55.2845C1058.27 53.3885 1053.09 54.5165 1053.09 51.4445C1053.09 50.7845 1053.4 50.2205 1054.02 49.7525C1054.64 49.2965 1055.43 49.0685 1056.38 49.0685C1057.76 49.0685 1058.85 49.4645 1059.63 50.2685L1058.84 51.3005C1058.13 50.7125 1057.3 50.4245 1056.34 50.4245C1055.34 50.4245 1054.59 50.7485 1054.59 51.4085C1054.59 52.2845 1055.88 52.3925 1057.18 52.7645C1058.08 53.0285 1058.87 53.2685 1059.39 53.9405C1059.64 54.2885 1059.77 54.6965 1059.77 55.1765C1059.77 55.9085 1059.46 56.4965 1058.84 56.9645C1058.21 57.4325 1057.44 57.6605 1056.54 57.6605C1055.81 57.6605 1055.1 57.5165 1054.42 57.2165C1053.74 56.9285 1053.22 56.5685 1052.85 56.1245L1053.71 55.1045C1054.47 55.9085 1055.46 56.3045 1056.68 56.3045C1057.68 56.3045 1058.27 55.9205 1058.27 55.2845ZM1061.13 52.5965H1060.05V51.3245H1061.13V50.0405H1062.49V51.3245H1064.51V52.5965H1062.49V55.0085C1062.49 56.0045 1062.72 56.3645 1063.3 56.3645C1063.62 56.3645 1063.91 56.1845 1064.19 55.8365L1065 56.6045C1064.65 57.2165 1063.92 57.6365 1063.09 57.6365C1061.88 57.6365 1061.13 56.8445 1061.13 55.3925V52.5965ZM1066.15 53.1125L1065.48 52.1045C1066.07 51.5285 1067.08 51.1805 1068.1 51.1805C1069.73 51.1805 1070.65 52.1165 1070.65 53.7485V57.5645H1069.29V56.8805C1068.83 57.3845 1068.18 57.6365 1067.35 57.6365C1065.97 57.6365 1065.09 56.8685 1065.09 55.6685C1065.09 54.3365 1066.24 53.6885 1068 53.6885C1068.52 53.6885 1068.95 53.7485 1069.29 53.8565C1069.3 52.9085 1068.91 52.4525 1067.94 52.4525C1067.33 52.4525 1066.73 52.6685 1066.15 53.1125ZM1067.65 56.4485C1068.36 56.4485 1068.91 56.1605 1069.29 55.5965V54.9965C1068.95 54.8885 1068.57 54.8285 1068.15 54.8285C1067.05 54.8285 1066.5 55.1045 1066.5 55.6565C1066.5 56.1485 1066.95 56.4485 1067.65 56.4485ZM1072.18 52.5965H1071.17V51.3245H1072.18V51.1205C1072.18 49.4525 1073.12 48.7085 1074.37 48.7085C1075.04 48.7085 1075.65 48.9965 1075.97 49.4405L1075.21 50.3045C1075.03 50.0885 1074.77 49.9805 1074.44 49.9805C1073.85 49.9805 1073.55 50.3765 1073.55 51.1565V51.3245H1075.3V52.5965H1073.55V57.5645H1072.18V52.5965ZM1076.17 52.5965H1075.17V51.3245L1076.17 51.3245V51.1205C1076.17 49.4525 1077.11 48.7085 1078.36 48.7085C1079.03 48.7085 1079.64 48.9965 1079.97 49.4405L1079.2 50.3045C1079.02 50.0885 1078.77 49.9805 1078.43 49.9805C1077.84 49.9805 1077.54 50.3765 1077.54 51.1565V51.3245H1079.29V52.5965H1077.54V57.5645H1076.17V52.5965ZM1087.25 55.5125L1088.22 56.1365C1087.73 57.1085 1086.66 57.6725 1085.55 57.6725C1084.54 57.6725 1083.72 57.3725 1083.11 56.7845C1082.5 56.1965 1082.19 55.4045 1082.19 54.4325C1082.19 53.4965 1082.49 52.7165 1083.1 52.1045C1083.71 51.4925 1084.5 51.1805 1085.48 51.1805C1086.72 51.1805 1087.73 51.7445 1088.15 52.5965L1087.13 53.2685C1086.72 52.7285 1086.2 52.4525 1085.54 52.4525C1084.4 52.4525 1083.6 53.2685 1083.6 54.4325C1083.6 54.9965 1083.8 55.4645 1084.18 55.8365C1084.55 56.2085 1085.06 56.4005 1085.68 56.4005C1086.34 56.4005 1086.86 56.1005 1087.25 55.5125ZM1089.48 53.1125L1088.81 52.1045C1089.4 51.5285 1090.41 51.1805 1091.43 51.1805C1093.06 51.1805 1093.98 52.1165 1093.98 53.7485V57.5645H1092.62V56.8805C1092.16 57.3845 1091.51 57.6365 1090.68 57.6365C1089.3 57.6365 1088.42 56.8685 1088.42 55.6685C1088.42 54.3365 1089.57 53.6885 1091.33 53.6885C1091.85 53.6885 1092.28 53.7485 1092.62 53.8565C1092.63 52.9085 1092.24 52.4525 1091.27 52.4525C1090.66 52.4525 1090.06 52.6685 1089.48 53.1125ZM1090.98 56.4485C1091.69 56.4485 1092.24 56.1605 1092.62 55.5965V54.9965C1092.28 54.8885 1091.9 54.8285 1091.48 54.8285C1090.38 54.8285 1089.83 55.1045 1089.83 55.6565C1089.83 56.1485 1090.28 56.4485 1090.98 56.4485ZM1096.47 57.5645H1095.1V51.3245H1096.47V51.7445C1096.63 51.4205 1097.13 51.1925 1097.6 51.1925C1098.14 51.1925 1098.55 51.3725 1098.83 51.7445L1098.05 52.7405C1097.93 52.5605 1097.73 52.4645 1097.43 52.4645C1096.99 52.4645 1096.61 52.7765 1096.47 53.3405V57.5645ZM1103.78 55.5725L1104.62 56.4005C1103.98 57.2525 1103.14 57.6725 1102.09 57.6725C1101.08 57.6725 1100.27 57.3725 1099.66 56.7845C1099.05 56.1965 1098.74 55.4165 1098.74 54.4325C1098.74 53.4845 1099.03 52.7045 1099.59 52.0925C1100.15 51.4805 1100.93 51.1805 1101.94 51.1805C1102.79 51.1805 1103.49 51.4445 1104.04 51.9605C1104.59 52.4885 1104.87 53.1845 1104.87 54.0365C1104.87 54.2405 1104.85 54.5405 1104.8 54.9125H1100.17C1100.27 55.8725 1101.04 56.4005 1102.11 56.4005C1102.82 56.4005 1103.37 56.1245 1103.78 55.5725ZM1101.88 52.4165C1100.97 52.4165 1100.36 52.9085 1100.18 53.7245H1103.45C1103.35 52.8725 1102.78 52.4165 1101.88 52.4165Z" fill="#3C525E"/>
<circle cx="1027.49" cy="109.483" r="14.3544" fill="white"/>
<path d="M1025.7 107.497L1024.62 107.065C1024.98 105.831 1026.08 105.142 1027.49 105.142C1029.13 105.142 1030.08 105.996 1030.08 107.271C1030.08 108.207 1029.68 108.968 1028.97 109.626C1028.61 109.965 1028.12 110.346 1027.49 110.788L1026.67 111.261H1030.31V112.413H1024.73V111.497L1026.35 110.315C1026.4 110.274 1026.55 110.16 1026.8 109.965C1027.06 109.77 1027.22 109.636 1027.31 109.564C1027.39 109.492 1027.53 109.369 1027.75 109.194C1027.96 109.019 1028.1 108.875 1028.19 108.762C1028.36 108.556 1028.65 108.196 1028.75 107.908C1028.79 107.764 1028.81 107.62 1028.81 107.466C1028.81 106.767 1028.3 106.335 1027.47 106.335C1026.58 106.335 1025.99 106.829 1025.7 107.497Z" fill="#1A3341" fill-opacity="0.6"/>
<circle cx="1027.49" cy="54.206" r="14.3544" fill="white"/>
<path d="M1025.89 52.1168L1025.47 51.0884L1027.89 49.9161H1028.67V57.1353H1027.48V51.3866L1025.89 52.1168Z" fill="#1A3341" fill-opacity="0.6"/>
<circle cx="1027.49" cy="183.61" r="14.3544" fill="white"/>
<path d="M1025.81 181.398L1024.75 180.925C1025.12 179.886 1026.21 179.248 1027.56 179.248C1028.32 179.248 1028.95 179.413 1029.43 179.742C1029.91 180.081 1030.16 180.513 1030.16 181.058C1030.16 181.871 1029.69 182.498 1029 182.704C1029.73 182.879 1030.31 183.403 1030.31 184.39C1030.31 185.059 1030.06 185.604 1029.54 186.005C1029.02 186.416 1028.38 186.622 1027.61 186.622C1026.79 186.622 1026.01 186.426 1025.33 185.861C1024.99 185.583 1024.74 185.234 1024.61 184.832L1025.74 184.359C1025.88 184.678 1026.13 184.935 1026.47 185.131C1026.81 185.326 1027.15 185.429 1027.51 185.429C1028.38 185.429 1029.03 185.048 1029.03 184.401C1029.03 183.67 1028.39 183.424 1027.28 183.424H1026.58V182.292H1027.32C1028.26 182.292 1028.88 181.881 1028.88 181.315C1028.88 181.038 1028.75 180.811 1028.48 180.657C1028.22 180.503 1027.88 180.421 1027.46 180.421C1027.03 180.421 1026.7 180.503 1026.45 180.668C1026.19 180.832 1025.98 181.079 1025.81 181.398Z" fill="#1A3341" fill-opacity="0.6"/>
<circle cx="1027.49" cy="256.882" r="14.3544" fill="white"/>
<path d="M1029.52 259.811H1028.32V258.443H1024.24V257.641L1028.49 252.612H1029.52V257.343H1030.74V258.443H1029.52V259.811ZM1028.32 254.577L1025.89 257.343H1028.32V254.577Z" fill="#1A3341" fill-opacity="0.6"/>
<circle cx="1027.49" cy="312.159" r="14.3544" fill="white"/>
<path d="M1025.99 311.931L1024.96 311.828L1025.29 307.89H1029.98V309.052H1026.38L1026.22 310.646C1026.56 310.471 1026.99 310.389 1027.5 310.389C1029.22 310.389 1030.19 311.314 1030.19 312.754C1030.19 313.484 1029.93 314.06 1029.42 314.502C1028.89 314.944 1028.24 315.171 1027.42 315.171C1026.31 315.171 1025.06 314.739 1024.6 313.422L1025.75 313.001C1025.98 313.618 1026.69 313.978 1027.49 313.978C1028.38 313.978 1028.92 313.494 1028.92 312.795C1028.92 311.983 1028.33 311.51 1027.35 311.51C1026.79 311.51 1026.33 311.654 1025.99 311.931Z" fill="#1A3341" fill-opacity="0.6"/>
<defs>
<linearGradient id="paint0_linear_6025_39948" x1="1026.44" y1="-1.50083e+14" x2="887.658" y2="-1.50083e+14" gradientUnits="userSpaceOnUse">
<stop stop-color="#92F7CC"/>
<stop offset="1" stop-color="#2B5F90"/>
</linearGradient>
<linearGradient id="paint1_linear_6025_39948" x1="996.784" y1="118.173" x2="899.936" y2="118.173" gradientUnits="userSpaceOnUse">
<stop stop-color="#70D4AA"/>
<stop offset="1" stop-color="#228D9C"/>
</linearGradient>
<linearGradient id="paint2_linear_6025_39948" x1="1015.41" y1="145.511" x2="922.417" y2="145.511" gradientUnits="userSpaceOnUse">
<stop stop-color="#49BC77"/>
<stop offset="1" stop-color="#0D5F8D"/>
</linearGradient>
<linearGradient id="paint3_linear_6025_39948" x1="1072.11" y1="102.011" x2="951.564" y2="102.011" gradientUnits="userSpaceOnUse">
<stop stop-color="#39EC2A"/>
<stop offset="1" stop-color="#7EDEEC"/>
</linearGradient>
<linearGradient id="paint4_linear_6025_39948" x1="929.319" y1="257.046" x2="786.329" y2="257.046" gradientUnits="userSpaceOnUse">
<stop stop-color="#69D88F"/>
<stop offset="1" stop-color="#4D809E"/>
</linearGradient>
<linearGradient id="paint5_linear_6025_39948" x1="1005.31" y1="227.387" x2="940.109" y2="227.387" gradientUnits="userSpaceOnUse">
<stop stop-color="#70D4AA"/>
<stop offset="1" stop-color="#3AA7B6"/>
</linearGradient>
<linearGradient id="paint6_linear_6025_39948" x1="1048.97" y1="247.5" x2="853.342" y2="246.609" gradientUnits="userSpaceOnUse">
<stop stop-color="#99F452" stop-opacity="0.68"/>
<stop offset="1" stop-color="#1DA858"/>
</linearGradient>
</defs>
</svg>
