<svg width="1240" height="600" viewBox="0 0 1240 600" fill="none" xmlns="http://www.w3.org/2000/svg" xmlns:xlink="http://www.w3.org/1999/xlink">
<g clip-path="url(#clip0_3002_50805)" filter="">
<rect width="1240" height="600" fill=""/>
<path opacity="0.14" d="M149.901 656.477L54.2695 481.641L172.489 413.584L1091.85 83.8591L1460 633.889L149.901 656.477Z"/>
<path d="M464.959 658.237L295.109 411.237L417.729 351.98L1091.85 83.8591L1460 633.889L464.959 658.237Z" fill-opacity="0.13"/>
<path d="M464.959 658.237L295.109 411.237L417.729 351.98L1091.85 83.8591L1460 633.889L464.959 658.237Z" fill-opacity="0.05"/>
<path d="M464.959 658.237L295.109 411.237L417.729 351.98L1091.85 83.8591L1460 633.889L464.959 658.237Z" fill-opacity="0.28"/>
<path opacity="0.12" d="M708.145 637.409L582.005 460.226L627.181 425.611L740.707 479L862.154 415.343L826.072 356.967L920.823 389.235L1098.3 637.409H708.145Z"/>
<rect y="-15" width="1126.46" height="633.635"/>
<path opacity="0.85" d="M598.656 413.319L598.656 304.164" stroke="#3C525E"/>
<path opacity="0.85" d="M237.027 325.872L237 256" stroke="#3C525E"/>
<path opacity="0.85" d="M613.101 396.383L613.101 328.512" stroke="#3C525E"/>
<path d="M622.06 339.343H618.764V328.143H622.268C624.508 328.143 626.22 328.751 627.18 329.775C628.14 330.815 628.572 332.063 628.572 333.599C628.572 335.311 628.028 336.687 626.94 337.743C625.852 338.815 624.22 339.343 622.06 339.343ZM622.236 329.967H620.7V337.519H622.204C625.164 337.519 626.556 336.031 626.556 333.599C626.556 331.183 625.116 329.967 622.236 329.967ZM629.483 335.167C629.483 333.903 629.899 332.863 630.731 332.047C631.547 331.231 632.619 330.831 633.931 330.831C635.243 330.831 636.315 331.231 637.147 332.047C637.979 332.863 638.395 333.903 638.395 335.167C638.395 336.415 637.979 337.439 637.147 338.255C636.315 339.071 635.243 339.487 633.931 339.487C632.635 339.487 631.579 339.071 630.747 338.255C629.899 337.439 629.483 336.415 629.483 335.167ZM631.371 335.167C631.371 335.919 631.611 336.543 632.091 337.039C632.555 337.535 633.179 337.791 633.931 337.791C635.467 337.791 636.507 336.751 636.507 335.167C636.507 334.383 636.267 333.743 635.771 333.247C635.275 332.767 634.667 332.527 633.931 332.527C632.443 332.527 631.371 333.567 631.371 335.167ZM644.558 336.975C644.558 336.287 642.734 336.015 641.31 335.487C640.318 335.119 639.518 334.351 639.518 333.311C639.518 331.775 640.814 330.831 642.942 330.831C644.366 330.831 645.726 331.487 646.302 332.303L645.054 333.487C644.494 332.847 643.694 332.527 642.638 332.527C641.822 332.527 641.406 332.783 641.406 333.279C641.406 334.415 646.446 334.047 646.446 336.959C646.446 337.791 646.126 338.415 645.47 338.847C644.814 339.279 643.998 339.487 643.022 339.487C641.23 339.487 639.79 338.655 639.166 337.487L640.606 336.495C641.07 337.247 642.126 337.791 643.198 337.791C643.966 337.791 644.558 337.535 644.558 336.975ZM648.288 332.719H646.848V331.023H648.288V329.311H650.112V331.023H652.8V332.719H650.112V335.935C650.112 337.263 650.416 337.743 651.184 337.743C651.616 337.743 652 337.503 652.368 337.039L653.456 338.063C652.992 338.879 652.016 339.439 650.912 339.439C649.296 339.439 648.288 338.383 648.288 336.447V332.719ZM654.562 342.447L655.282 340.895C655.394 340.959 655.506 340.991 655.65 340.991C656.146 340.991 656.594 340.527 656.962 339.599L657.25 338.847L653.154 331.023H655.266L658.13 336.639L660.338 331.023H662.29L659.026 339.103C658.466 340.463 657.954 341.391 657.474 341.919C656.978 342.431 656.402 342.687 655.714 342.687C655.266 342.687 654.882 342.607 654.562 342.447ZM664.8 339.343H662.976V327.663H664.8V334.303L668.16 331.023H670.512L666.72 334.687L670.704 339.343H668.384L665.328 335.887L664.8 336.303V339.343Z" fill="white"/>
<g>
<ellipse cx="251.987" cy="356.673" rx="3.22684" ry="3.22684" fill="#7E7EEB"/>
<path d="M251.987 361.9C254.873 361.9 257.213 359.56 257.213 356.673C257.213 353.787 254.873 351.447 251.987 351.447C249.1 351.447 246.76 353.787 246.76 356.673C246.76 359.56 249.1 361.9 251.987 361.9Z" stroke="white" stroke-width="4"/>
</g>
<rect width="6.45369" height="6.45369" transform="translate(234.093 322.939)" fill="#A9DCE9"/>
<g>
<ellipse cx="237.32" cy="326.166" rx="3.22684" ry="3.22684" fill="#A9DCE9"/>
<path d="M237.32 331.392C240.206 331.392 242.546 329.052 242.546 326.166C242.546 323.279 240.206 320.939 237.32 320.939C234.433 320.939 232.093 323.279 232.093 326.166C232.093 329.052 234.433 331.392 237.32 331.392Z" stroke="white" stroke-width="4"/>
</g>
<g>
<ellipse cx="612.808" cy="401.263" rx="3.22684" ry="3.22684" fill="#AFBBFB"/>
<path d="M612.808 406.49C615.695 406.49 618.035 404.15 618.035 401.263C618.035 398.376 615.695 396.036 612.808 396.036C609.921 396.036 607.581 398.376 607.581 401.263C607.581 404.15 609.921 406.49 612.808 406.49Z" stroke="white" stroke-width="4"/>
</g>
<g>
<ellipse cx="244.948" cy="366.648" rx="3.22684" ry="3.22684" fill="#7E7EEB"/>
<path d="M244.948 371.875C247.834 371.875 250.174 369.534 250.174 366.648C250.174 363.761 247.834 361.421 244.948 361.421C242.061 361.421 239.721 363.761 239.721 366.648C239.721 369.534 242.061 371.875 244.948 371.875Z" stroke="white" stroke-width="4"/>
</g>
<g>
<ellipse cx="250.228" cy="376.621" rx="3.22684" ry="3.22684" fill="#7E7EEB"/>
<path d="M250.228 381.848C253.115 381.848 255.455 379.508 255.455 376.621C255.455 373.735 253.115 371.395 250.228 371.395C247.341 371.395 245.001 373.735 245.001 376.621C245.001 379.508 247.341 381.848 250.228 381.848Z" stroke="white" stroke-width="4"/>
</g>
<g>
<ellipse cx="598.726" cy="417.691" rx="3.22684" ry="3.22684" fill="#AFBBFB"/>
<path d="M598.726 422.918C601.613 422.918 603.953 420.577 603.953 417.691C603.953 414.804 601.613 412.464 598.726 412.464C595.839 412.464 593.499 414.804 593.499 417.691C593.499 420.577 595.839 422.918 598.726 422.918Z" stroke="white" stroke-width="4"/>
</g>
<path d="M603.767 315.085H601.767L606.679 303.885H608.151L613.063 315.085H611.031L609.943 312.605H604.839L603.767 315.085ZM609.223 310.941L607.383 306.685L605.543 310.941H609.223ZM615.721 315.085H613.897V303.405H615.721V315.085ZM618.052 308.461H616.612V306.765H618.052V305.053H619.876V306.765H622.564V308.461H619.876V311.677C619.876 313.005 620.18 313.485 620.948 313.485C621.38 313.485 621.764 313.245 622.132 312.781L623.22 313.805C622.756 314.621 621.78 315.181 620.676 315.181C619.06 315.181 618.052 314.125 618.052 312.189V308.461ZM624.327 318.189L625.047 316.637C625.159 316.701 625.271 316.733 625.415 316.733C625.911 316.733 626.359 316.269 626.727 315.341L627.015 314.589L622.919 306.765H625.031L627.895 312.381L630.103 306.765H632.055L628.791 314.845C628.231 316.205 627.719 317.133 627.239 317.661C626.743 318.173 626.167 318.429 625.479 318.429C625.031 318.429 624.647 318.349 624.327 318.189ZM634.565 315.085H632.741V306.765H634.565V307.517C635.189 306.893 636.053 306.589 637.125 306.589C639.349 306.589 640.469 307.853 640.469 310.381V315.085H638.645V310.525C638.645 308.941 638.005 308.285 636.597 308.285C635.701 308.285 634.933 308.813 634.565 309.693V315.085ZM643.94 315.085H642.116V303.405H643.94V310.045L647.3 306.765H649.652L645.86 310.429L649.844 315.085H647.524L644.468 311.629L643.94 312.045V315.085ZM649.794 310.909C649.794 309.645 650.21 308.605 651.042 307.789C651.858 306.973 652.93 306.573 654.242 306.573C655.554 306.573 656.626 306.973 657.458 307.789C658.29 308.605 658.706 309.645 658.706 310.909C658.706 312.157 658.29 313.181 657.458 313.997C656.626 314.813 655.554 315.229 654.242 315.229C652.946 315.229 651.89 314.813 651.058 313.997C650.21 313.181 649.794 312.157 649.794 310.909ZM651.682 310.909C651.682 311.661 651.922 312.285 652.402 312.781C652.866 313.277 653.49 313.533 654.242 313.533C655.778 313.533 656.818 312.493 656.818 310.909C656.818 310.125 656.578 309.485 656.082 308.989C655.586 308.509 654.978 308.269 654.242 308.269C652.754 308.269 651.682 309.309 651.682 310.909ZM661.846 315.085H660.022V303.405H661.846V315.085Z" fill="white"/>
<path d="M442.408 393.808L435.136 400.216L442.072 408.448V409H437.848L432.328 402.424L429.472 404.92V409H425.872V393.256H429.472V400.6L437.848 393.256H442.408V393.808ZM461.259 408.448V409H457.659L456.219 405.736H448.347L446.907 409H443.307V408.448L450.291 393.256H454.275L461.259 408.448ZM454.851 402.616L452.283 396.76L449.715 402.616H454.851ZM476.728 396.472L466.84 405.784H476.728V409H462.04V405.784L471.928 396.472H462.04V393.256H476.728V396.472ZM495.479 408.448V409H491.879L490.439 405.736H482.567L481.127 409H477.527V408.448L484.511 393.256H488.495L495.479 408.448ZM489.071 402.616L486.503 396.76L483.935 402.616H489.071ZM513.66 393.808L506.388 400.216L513.324 408.448V409H509.1L503.58 402.424L500.724 404.92V409H497.124V393.256H500.724V400.6L509.1 393.256H513.66V393.808ZM519.767 393.256V399.52H528.479V393.256H532.079V409H528.479V402.736H519.767V409H516.167V393.256H519.767ZM542.791 409.288C540.199 409.288 538.231 408.824 536.887 407.896C535.543 406.968 534.871 405.608 534.871 403.816V403.576H538.423V403.816C538.423 404.584 538.807 405.168 539.575 405.568C540.343 405.968 541.463 406.168 542.935 406.168C544.247 406.168 545.239 406.032 545.911 405.76C546.599 405.472 546.943 405.056 546.943 404.512V404.344C546.943 403.912 546.751 403.584 546.367 403.36C545.983 403.12 545.303 402.928 544.327 402.784L540.319 402.208C536.863 401.696 535.135 400.272 535.135 397.936V397.696C535.135 396.208 535.783 395.048 537.079 394.216C538.391 393.384 540.223 392.968 542.575 392.968C545.071 392.968 546.975 393.416 548.287 394.312C549.599 395.208 550.255 396.504 550.255 398.2V398.416H546.703V398.2C546.703 396.792 545.327 396.088 542.575 396.088C541.343 396.088 540.399 396.216 539.743 396.472C539.103 396.728 538.783 397.104 538.783 397.6V397.792C538.783 398.16 538.959 398.448 539.311 398.656C539.679 398.864 540.303 399.032 541.183 399.16L545.215 399.736C547.055 400.008 548.407 400.504 549.271 401.224C550.151 401.928 550.591 402.912 550.591 404.176V404.416C550.591 405.952 549.911 407.152 548.551 408.016C547.191 408.864 545.271 409.288 542.791 409.288ZM551.148 396.496V393.256H567.06V396.496H560.916V409H557.292V396.496H551.148ZM583.243 408.448V409H579.643L578.203 405.736H570.331L568.891 409H565.291V408.448L572.275 393.256H576.259L583.243 408.448ZM576.835 402.616L574.267 396.76L571.699 402.616H576.835ZM600.8 393.256V409H597.344L588.344 398.32V409H584.888V393.256H588.344L597.344 403.912V393.256H600.8Z" fill="white"/>
<path d="M649.37 484.282C647.702 484.282 646.238 483.995 644.976 483.42C643.715 482.845 642.741 482.032 642.054 480.981C641.382 479.916 641.045 478.676 641.045 477.26V477.029C641.045 475.614 641.382 474.38 642.054 473.329C642.741 472.264 643.715 471.444 644.976 470.87C646.238 470.281 647.702 469.987 649.37 469.987C650.912 469.987 652.292 470.239 653.511 470.743C654.745 471.248 655.705 471.949 656.391 472.846C657.092 473.743 657.443 474.752 657.443 475.873V476.041H654.226V475.873C654.226 475.298 654.016 474.787 653.595 474.338C653.189 473.89 652.614 473.539 651.872 473.287C651.143 473.035 650.302 472.909 649.349 472.909C647.681 472.909 646.413 473.259 645.544 473.96C644.689 474.661 644.262 475.67 644.262 476.987V477.302C644.262 478.634 644.689 479.643 645.544 480.33C646.399 481.016 647.674 481.36 649.37 481.36C650.842 481.36 652.019 481.093 652.902 480.561C653.785 480.014 654.226 479.3 654.226 478.417V478.269H657.443V478.417C657.443 479.538 657.092 480.547 656.391 481.444C655.705 482.327 654.745 483.02 653.511 483.525C652.292 484.03 650.912 484.282 649.37 484.282ZM662.993 470.239V475.726H670.624V470.239H673.777V484.03H670.624V478.543H662.993V484.03H659.84V470.239H662.993ZM679.944 470.239V484.03H676.77V470.239H679.944ZM696.863 470.239V484.03H693.836L685.953 474.675V484.03H682.925V470.239H685.953L693.836 479.573V470.239H696.863ZM714.256 483.546V484.03H711.102L709.841 481.171H702.946L701.684 484.03H698.531V483.546L704.648 470.239H708.138L714.256 483.546ZM708.643 478.438L706.393 473.308L704.144 478.438H708.643Z" fill="#3C525E"/>
<path d="M607.284 233.13C607.284 235.263 606.604 237.01 605.244 238.37C603.911 239.73 602.004 240.583 599.524 240.93L607.164 249.53V250.45H600.284L592.124 241.05H586.644V250.45H580.644V224.21H597.284C600.404 224.21 602.844 224.97 604.604 226.49C606.391 227.983 607.284 230.05 607.284 232.69V233.13ZM601.164 232.57C601.164 231.583 600.818 230.837 600.124 230.33C599.458 229.797 598.458 229.53 597.124 229.53H586.644V236.09H597.124C598.431 236.09 599.431 235.837 600.124 235.33C600.818 234.797 601.164 234.023 601.164 233.01V232.57ZM625.191 250.93C622.578 250.93 620.271 250.423 618.271 249.41C616.298 248.37 614.764 246.917 613.671 245.05C612.604 243.183 612.071 241.01 612.071 238.53V224.21H618.071V238.61C618.071 240.77 618.684 242.437 619.911 243.61C621.164 244.783 622.924 245.37 625.191 245.37C627.484 245.37 629.244 244.783 630.471 243.61C631.724 242.437 632.351 240.77 632.351 238.61V224.21H638.351V238.53C638.351 241.01 637.804 243.183 636.711 245.05C635.644 246.917 634.111 248.37 632.111 249.41C630.138 250.423 627.831 250.93 625.191 250.93ZM656.19 250.93C651.87 250.93 648.59 250.157 646.35 248.61C644.11 247.063 642.99 244.797 642.99 241.81V241.41H648.91V241.81C648.91 243.09 649.55 244.063 650.83 244.73C652.11 245.397 653.976 245.73 656.43 245.73C658.616 245.73 660.27 245.503 661.39 245.05C662.536 244.57 663.11 243.877 663.11 242.97V242.69C663.11 241.97 662.79 241.423 662.15 241.05C661.51 240.65 660.376 240.33 658.75 240.09L652.07 239.13C646.31 238.277 643.43 235.903 643.43 232.01V231.61C643.43 229.13 644.51 227.197 646.67 225.81C648.856 224.423 651.91 223.73 655.83 223.73C659.99 223.73 663.163 224.477 665.35 225.97C667.536 227.463 668.63 229.623 668.63 232.45V232.81H662.71V232.45C662.71 230.103 660.416 228.93 655.83 228.93C653.776 228.93 652.203 229.143 651.11 229.57C650.043 229.997 649.51 230.623 649.51 231.45V231.77C649.51 232.383 649.803 232.863 650.39 233.21C651.003 233.557 652.043 233.837 653.51 234.05L660.23 235.01C663.296 235.463 665.55 236.29 666.99 237.49C668.456 238.663 669.19 240.303 669.19 242.41V242.81C669.19 245.37 668.056 247.37 665.79 248.81C663.523 250.223 660.323 250.93 656.19 250.93ZM686.649 250.93C682.329 250.93 679.049 250.157 676.809 248.61C674.569 247.063 673.449 244.797 673.449 241.81V241.41H679.369V241.81C679.369 243.09 680.009 244.063 681.289 244.73C682.569 245.397 684.436 245.73 686.889 245.73C689.076 245.73 690.729 245.503 691.849 245.05C692.996 244.57 693.569 243.877 693.569 242.97V242.69C693.569 241.97 693.249 241.423 692.609 241.05C691.969 240.65 690.836 240.33 689.209 240.09L682.529 239.13C676.769 238.277 673.889 235.903 673.889 232.01V231.61C673.889 229.13 674.969 227.197 677.129 225.81C679.316 224.423 682.369 223.73 686.289 223.73C690.449 223.73 693.622 224.477 695.809 225.97C697.996 227.463 699.089 229.623 699.089 232.45V232.81H693.169V232.45C693.169 230.103 690.876 228.93 686.289 228.93C684.236 228.93 682.662 229.143 681.569 229.57C680.502 229.997 679.969 230.623 679.969 231.45V231.77C679.969 232.383 680.262 232.863 680.849 233.21C681.462 233.557 682.502 233.837 683.969 234.05L690.689 235.01C693.756 235.463 696.009 236.29 697.449 237.49C698.916 238.663 699.649 240.303 699.649 242.41V242.81C699.649 245.37 698.516 247.37 696.249 248.81C693.982 250.223 690.782 250.93 686.649 250.93ZM710.588 224.21V250.45H704.548V224.21H710.588ZM743.502 249.53V250.45H737.502L735.102 245.01H721.982L719.582 250.45H713.582V249.53L725.222 224.21H731.862L743.502 249.53ZM732.822 239.81L728.542 230.05L724.262 239.81H732.822Z" fill="white"/>
<path d="M707.705 448.7C709.278 448.7 710.553 447.425 710.553 445.852C710.553 444.279 709.278 443.004 707.705 443.004C706.132 443.004 704.856 444.279 704.856 445.852C704.856 447.425 706.132 448.7 707.705 448.7Z" fill="#AFBBFB" stroke="white" stroke-width="2"/>
<path d="M697.673 450.548C699.246 450.548 700.521 449.273 700.521 447.7C700.521 446.127 699.246 444.852 697.673 444.852C696.1 444.852 694.825 446.127 694.825 447.7C694.825 449.273 696.1 450.548 697.673 450.548Z" fill="#AFBBFB" stroke="white" stroke-width="2"/>
<path d="M722.753 442.629C724.326 442.629 725.601 441.353 725.601 439.78C725.601 438.208 724.326 436.932 722.753 436.932C721.18 436.932 719.905 438.208 719.905 439.78C719.905 441.353 721.18 442.629 722.753 442.629Z" fill="#AFBBFB" stroke="white" stroke-width="2"/>
<path d="M719.058 456.885C720.631 456.885 721.906 455.61 721.906 454.037C721.906 452.464 720.631 451.189 719.058 451.189C717.485 451.189 716.21 452.464 716.21 454.037C716.21 455.61 717.485 456.885 719.058 456.885Z" fill="#AFBBFB" stroke="white" stroke-width="2"/>
<path d="M719.967 513.032C721.54 513.032 722.815 511.757 722.815 510.184C722.815 508.611 721.54 507.336 719.967 507.336C718.394 507.336 717.119 508.611 717.119 510.184C717.119 511.757 718.394 513.032 719.967 513.032Z" fill="#AFBBFB" stroke="white" stroke-width="2"/>
<path d="M748.128 527.112C749.701 527.112 750.976 525.837 750.976 524.264C750.976 522.691 749.701 521.416 748.128 521.416C746.555 521.416 745.28 522.691 745.28 524.264C745.28 525.837 746.555 527.112 748.128 527.112Z" fill="#AFBBFB" stroke="white" stroke-width="2"/>
<path d="M824.986 534.153C826.559 534.153 827.834 532.878 827.834 531.305C827.834 529.732 826.559 528.457 824.986 528.457C823.413 528.457 822.138 529.732 822.138 531.305C822.138 532.878 823.413 534.153 824.986 534.153Z" fill="#AFBBFB" stroke="white" stroke-width="2"/>
<path d="M837.894 539.433C839.467 539.433 840.742 538.158 840.742 536.585C840.742 535.012 839.467 533.737 837.894 533.737C836.321 533.737 835.046 535.012 835.046 536.585C835.046 538.158 836.321 539.433 837.894 539.433Z" fill="#AFBBFB" stroke="white" stroke-width="2"/>
<path d="M822.64 518.899C824.213 518.899 825.488 517.624 825.488 516.051C825.488 514.478 824.213 513.203 822.64 513.203C821.067 513.203 819.792 514.478 819.792 516.051C819.792 517.624 821.067 518.899 822.64 518.899Z" fill="#AFBBFB" stroke="white" stroke-width="2"/>
<path d="M813.839 498.364C815.412 498.364 816.687 497.089 816.687 495.516C816.687 493.943 815.412 492.668 813.839 492.668C812.266 492.668 810.991 493.943 810.991 495.516C810.991 497.089 812.266 498.364 813.839 498.364Z" fill="#AFBBFB" stroke="white" stroke-width="2"/>
<path d="M817.271 505.228C818.844 505.228 820.119 503.953 820.119 502.38C820.119 500.807 818.844 499.532 817.271 499.532C815.698 499.532 814.423 500.807 814.423 502.38C814.423 503.953 815.698 505.228 817.271 505.228Z" fill="#AFBBFB" stroke="white" stroke-width="2"/>
<path d="M750.927 481.35C752.5 481.35 753.775 480.075 753.775 478.502C753.775 476.929 752.5 475.654 750.927 475.654C749.354 475.654 748.079 476.929 748.079 478.502C748.079 480.075 749.354 481.35 750.927 481.35Z" fill="#AFBBFB" stroke="white" stroke-width="2"/>
<path d="M744.59 483.99C746.163 483.99 747.438 482.715 747.438 481.142C747.438 479.569 746.163 478.294 744.59 478.294C743.017 478.294 741.742 479.569 741.742 481.142C741.742 482.715 743.017 483.99 744.59 483.99Z" fill="#AFBBFB" stroke="white" stroke-width="2"/>
<path d="M747.231 482.776C748.804 482.776 750.079 481.501 750.079 479.928C750.079 478.355 748.804 477.08 747.231 477.08C745.658 477.08 744.383 478.355 744.383 479.928C744.383 481.501 745.658 482.776 747.231 482.776Z" fill="#AFBBFB" stroke="white" stroke-width="2"/>
<path d="M740.502 490.325C742.075 490.325 743.35 489.049 743.35 487.477C743.35 485.904 742.075 484.628 740.502 484.628C738.929 484.628 737.654 485.904 737.654 487.477C737.654 489.049 738.929 490.325 740.502 490.325Z" fill="#AFBBFB" stroke="white" stroke-width="2"/>
<path d="M795.065 557.621C796.638 557.621 797.913 556.346 797.913 554.773C797.913 553.2 796.638 551.925 795.065 551.925C793.492 551.925 792.217 553.2 792.217 554.773C792.217 556.346 793.492 557.621 795.065 557.621Z" fill="#AFBBFB" stroke="white" stroke-width="2"/>
<path d="M784.563 536.09C786.136 536.09 787.411 534.815 787.411 533.242C787.411 531.669 786.136 530.394 784.563 530.394C782.99 530.394 781.715 531.669 781.715 533.242C781.715 534.815 782.99 536.09 784.563 536.09Z" fill="#AFBBFB" stroke="white" stroke-width="2"/>
<path d="M769.25 525.529C770.823 525.529 772.099 524.254 772.099 522.681C772.099 521.108 770.823 519.833 769.25 519.833C767.677 519.833 766.402 521.108 766.402 522.681C766.402 524.254 767.677 525.529 769.25 525.529Z" fill="#AFBBFB" stroke="white" stroke-width="2"/>
<path d="M772.946 521.833C774.519 521.833 775.794 520.558 775.794 518.985C775.794 517.412 774.519 516.137 772.946 516.137C771.373 516.137 770.098 517.412 770.098 518.985C770.098 520.558 771.373 521.833 772.946 521.833Z" fill="#AFBBFB" stroke="white" stroke-width="2"/>
<path d="M752.776 495.041C754.349 495.041 755.624 493.766 755.624 492.193C755.624 490.62 754.349 489.345 752.776 489.345C751.203 489.345 749.928 490.62 749.928 492.193C749.928 493.766 751.203 495.041 752.776 495.041Z" fill="#AFBBFB" stroke="white" stroke-width="2"/>
<path d="M754.623 488.214C756.196 488.214 757.472 486.939 757.472 485.366C757.472 483.793 756.196 482.518 754.623 482.518C753.051 482.518 751.775 483.793 751.775 485.366C751.775 486.939 753.051 488.214 754.623 488.214Z" fill="#AFBBFB" stroke="white" stroke-width="2"/>
<path d="M749.078 489.798C750.651 489.798 751.926 488.523 751.926 486.95C751.926 485.377 750.651 484.102 749.078 484.102C747.505 484.102 746.229 485.377 746.229 486.95C746.229 488.523 747.505 489.798 749.078 489.798Z" fill="#AFBBFB" stroke="white" stroke-width="2"/>
<path d="M756.342 457.295C757.915 457.295 759.19 456.02 759.19 454.447C759.19 452.874 757.915 451.599 756.342 451.599C754.769 451.599 753.494 452.874 753.494 454.447C753.494 456.02 754.769 457.295 756.342 457.295Z" fill="#AFBBFB" stroke="white" stroke-width="2"/>
<path d="M773.768 455.885C775.341 455.885 776.616 454.61 776.616 453.037C776.616 451.464 775.341 450.189 773.768 450.189C772.195 450.189 770.92 451.464 770.92 453.037C770.92 454.61 772.195 455.885 773.768 455.885Z" fill="#AFBBFB" stroke="white" stroke-width="2"/>
<path d="M784.063 461.52C785.636 461.52 786.911 460.245 786.911 458.672C786.911 457.099 785.636 455.824 784.063 455.824C782.49 455.824 781.215 457.099 781.215 458.672C781.215 460.245 782.49 461.52 784.063 461.52Z" fill="#AFBBFB" stroke="white" stroke-width="2"/>
<path d="M794.889 456.768C796.462 456.768 797.737 455.493 797.737 453.92C797.737 452.347 796.462 451.072 794.889 451.072C793.316 451.072 792.041 452.347 792.041 453.92C792.041 455.493 793.316 456.768 794.889 456.768Z" fill="#AFBBFB" stroke="white" stroke-width="2"/>
<path d="M842 465.803C843.573 465.803 844.849 464.528 844.849 462.955C844.849 461.382 843.573 460.107 842 460.107C840.427 460.107 839.152 461.382 839.152 462.955C839.152 464.528 840.427 465.803 842 465.803Z" fill="#AFBBFB" stroke="white" stroke-width="2"/>
<path d="M846.752 460.816C848.325 460.816 849.6 459.54 849.6 457.967C849.6 456.395 848.325 455.119 846.752 455.119C845.179 455.119 843.904 456.395 843.904 457.967C843.904 459.54 845.179 460.816 846.752 460.816Z" fill="#AFBBFB" stroke="white" stroke-width="2"/>
<path d="M835.107 444.975C836.68 444.975 837.955 443.7 837.955 442.127C837.955 440.554 836.68 439.279 835.107 439.279C833.534 439.279 832.259 440.554 832.259 442.127C832.259 443.7 833.534 444.975 835.107 444.975Z" fill="#AFBBFB" stroke="white" stroke-width="2"/>
<path d="M841.707 444.975C843.28 444.975 844.556 443.7 844.556 442.127C844.556 440.554 843.28 439.279 841.707 439.279C840.135 439.279 838.859 440.554 838.859 442.127C838.859 443.7 840.135 444.975 841.707 444.975Z" fill="#AFBBFB" stroke="white" stroke-width="2"/>
<path d="M823.225 448.671C824.798 448.671 826.073 447.396 826.073 445.823C826.073 444.25 824.798 442.975 823.225 442.975C821.652 442.975 820.377 444.25 820.377 445.823C820.377 447.396 821.652 448.671 823.225 448.671Z" fill="#AFBBFB" stroke="white" stroke-width="2"/>
<path d="M824.019 453.068C825.592 453.068 826.867 451.793 826.867 450.22C826.867 448.647 825.592 447.372 824.019 447.372C822.446 447.372 821.171 448.647 821.171 450.22C821.171 451.793 822.446 453.068 824.019 453.068Z" fill="#AFBBFB" stroke="white" stroke-width="2"/>
<path d="M822.844 413.41C824.417 413.41 825.692 412.135 825.692 410.562C825.692 408.989 824.417 407.714 822.844 407.714C821.271 407.714 819.996 408.989 819.996 410.562C819.996 412.135 821.271 413.41 822.844 413.41Z" fill="#AFBBFB" stroke="white" stroke-width="2"/>
<path d="M837.629 388.065C839.202 388.065 840.477 386.79 840.477 385.217C840.477 383.644 839.202 382.369 837.629 382.369C836.056 382.369 834.781 383.644 834.781 385.217C834.781 386.79 836.056 388.065 837.629 388.065Z" fill="#AFBBFB" stroke="white" stroke-width="2"/>
<path d="M824.692 419.219C826.265 419.219 827.54 417.944 827.54 416.371C827.54 414.798 826.265 413.523 824.692 413.523C823.119 413.523 821.844 414.798 821.844 416.371C821.844 417.944 823.119 419.219 824.692 419.219Z" fill="#AFBBFB" stroke="white" stroke-width="2"/>
<path d="M867.229 437.935C868.802 437.935 870.077 436.66 870.077 435.087C870.077 433.514 868.802 432.239 867.229 432.239C865.656 432.239 864.381 433.514 864.381 435.087C864.381 436.66 865.656 437.935 867.229 437.935Z" fill="#AFBBFB" stroke="white" stroke-width="2"/>
<path d="M863.884 449.081C865.457 449.081 866.732 447.806 866.732 446.233C866.732 444.66 865.457 443.385 863.884 443.385C862.311 443.385 861.036 444.66 861.036 446.233C861.036 447.806 862.311 449.081 863.884 449.081Z" fill="#AFBBFB" stroke="white" stroke-width="2"/>
<path d="M856.081 476.069C857.654 476.069 858.93 474.794 858.93 473.221C858.93 471.648 857.654 470.373 856.081 470.373C854.509 470.373 853.233 471.648 853.233 473.221C853.233 474.794 854.509 476.069 856.081 476.069Z" fill="#AFBBFB" stroke="white" stroke-width="2"/>
<path d="M844.347 476.069C845.92 476.069 847.195 474.794 847.195 473.221C847.195 471.648 845.92 470.373 844.347 470.373C842.774 470.373 841.499 471.648 841.499 473.221C841.499 474.794 842.774 476.069 844.347 476.069Z" fill="#AFBBFB" stroke="white" stroke-width="2"/>
<path d="M853.734 502.471C855.307 502.471 856.582 501.196 856.582 499.623C856.582 498.05 855.307 496.775 853.734 496.775C852.161 496.775 850.886 498.05 850.886 499.623C850.886 501.196 852.161 502.471 853.734 502.471Z" fill="#AFBBFB" stroke="white" stroke-width="2"/>
<path d="M843.174 505.992C844.747 505.992 846.022 504.716 846.022 503.144C846.022 501.571 844.747 500.295 843.174 500.295C841.601 500.295 840.326 501.571 840.326 503.144C840.326 504.716 841.601 505.992 843.174 505.992Z" fill="#AFBBFB" stroke="white" stroke-width="2"/>
<path d="M862.534 505.405C864.107 505.405 865.382 504.13 865.382 502.557C865.382 500.984 864.107 499.708 862.534 499.708C860.961 499.708 859.686 500.984 859.686 502.557C859.686 504.13 860.961 505.405 862.534 505.405Z" fill="#AFBBFB" stroke="white" stroke-width="2"/>
<path d="M869.016 505.405C870.589 505.405 871.864 504.13 871.864 502.557C871.864 500.984 870.589 499.708 869.016 499.708C867.443 499.708 866.168 500.984 866.168 502.557C866.168 504.13 867.443 505.405 869.016 505.405Z" fill="#AFBBFB" stroke="white" stroke-width="2"/>
<path d="M876.997 509.511C878.57 509.511 879.845 508.236 879.845 506.663C879.845 505.09 878.57 503.815 876.997 503.815C875.424 503.815 874.148 505.09 874.148 506.663C874.148 508.236 875.424 509.511 876.997 509.511Z" fill="#AFBBFB" stroke="white" stroke-width="2"/>
<path d="M872.509 510.293C874.082 510.293 875.357 509.018 875.357 507.445C875.357 505.872 874.082 504.597 872.509 504.597C870.936 504.597 869.661 505.872 869.661 507.445C869.661 509.018 870.936 510.293 872.509 510.293Z" fill="#AFBBFB" stroke="white" stroke-width="2"/>
<path d="M885.415 549.994C886.988 549.994 888.264 548.719 888.264 547.146C888.264 545.573 886.988 544.298 885.415 544.298C883.843 544.298 882.567 545.573 882.567 547.146C882.567 548.719 883.843 549.994 885.415 549.994Z" fill="#AFBBFB" stroke="white" stroke-width="2"/>
<path d="M871.114 541.518C872.629 541.095 873.514 539.524 873.091 538.009C872.669 536.494 871.097 535.608 869.582 536.031C868.067 536.454 867.182 538.025 867.605 539.54C868.028 541.055 869.599 541.94 871.114 541.518Z" fill="#AFBBFB" stroke="white" stroke-width="2"/>
<path d="M868.033 546.889C869.548 546.466 870.433 544.895 870.01 543.38C869.587 541.865 868.016 540.98 866.501 541.403C864.986 541.826 864.101 543.397 864.524 544.912C864.947 546.427 866.518 547.312 868.033 546.889Z" fill="#AFBBFB" stroke="white" stroke-width="2"/>
<path d="M864.315 552.078C865.83 551.655 866.716 550.084 866.293 548.569C865.87 547.054 864.299 546.169 862.784 546.592C861.269 547.015 860.383 548.586 860.806 550.101C861.229 551.616 862.8 552.501 864.315 552.078Z" fill="#AFBBFB" stroke="white" stroke-width="2"/>
<path d="M832.026 569.355C833.599 569.355 834.874 568.08 834.874 566.507C834.874 564.934 833.599 563.659 832.026 563.659C830.453 563.659 829.178 564.934 829.178 566.507C829.178 568.08 830.453 569.355 832.026 569.355Z" fill="#AFBBFB" stroke="white" stroke-width="2"/>
<path d="M834.373 562.315C835.946 562.315 837.222 561.04 837.222 559.467C837.222 557.894 835.946 556.619 834.373 556.619C832.801 556.619 831.525 557.894 831.525 559.467C831.525 561.04 832.801 562.315 834.373 562.315Z" fill="#AFBBFB" stroke="white" stroke-width="2"/>
<path d="M827.919 562.315C829.492 562.315 830.767 561.04 830.767 559.467C830.767 557.894 829.492 556.619 827.919 556.619C826.346 556.619 825.071 557.894 825.071 559.467C825.071 561.04 826.346 562.315 827.919 562.315Z" fill="#AFBBFB" stroke="white" stroke-width="2"/>
<path d="M842 564.075C843.573 564.075 844.849 562.8 844.849 561.227C844.849 559.654 843.573 558.379 842 558.379C840.427 558.379 839.152 559.654 839.152 561.227C839.152 562.8 840.427 564.075 842 564.075Z" fill="#AFBBFB" stroke="white" stroke-width="2"/>
<path d="M835.547 557.621C837.12 557.621 838.395 556.346 838.395 554.773C838.395 553.2 837.12 551.925 835.547 551.925C833.974 551.925 832.699 553.2 832.699 554.773C832.699 556.346 833.974 557.621 835.547 557.621Z" fill="#AFBBFB" stroke="white" stroke-width="2"/>
<path d="M828.506 555.275C830.079 555.275 831.354 554 831.354 552.427C831.354 550.854 830.079 549.579 828.506 549.579C826.933 549.579 825.658 550.854 825.658 552.427C825.658 554 826.933 555.275 828.506 555.275Z" fill="#AFBBFB" stroke="white" stroke-width="2"/>
<path d="M847.222 469.528C848.795 469.528 850.07 468.253 850.07 466.68C850.07 465.107 848.795 463.832 847.222 463.832C845.649 463.832 844.374 465.107 844.374 466.68C844.374 468.253 845.649 469.528 847.222 469.528Z" fill="#AFBBFB" stroke="white" stroke-width="2"/>
<path d="M861.363 469.282C862.936 469.282 864.211 468.007 864.211 466.434C864.211 464.861 862.936 463.585 861.363 463.585C859.79 463.585 858.515 464.861 858.515 466.434C858.515 468.007 859.79 469.282 861.363 469.282Z" fill="#AFBBFB" stroke="white" stroke-width="2"/>
<path d="M865.058 467.856C866.631 467.856 867.906 466.581 867.906 465.008C867.906 463.435 866.631 462.16 865.058 462.16C863.485 462.16 862.21 463.435 862.21 465.008C862.21 466.581 863.485 467.856 865.058 467.856Z" fill="#AFBBFB" stroke="white" stroke-width="2"/>
<path d="M873.682 464.922C875.255 464.922 876.53 463.647 876.53 462.074C876.53 460.501 875.255 459.226 873.682 459.226C872.109 459.226 870.834 460.501 870.834 462.074C870.834 463.647 872.109 464.922 873.682 464.922Z" fill="#AFBBFB" stroke="white" stroke-width="2"/>
<path d="M870.456 461.46C872.028 461.46 873.304 460.185 873.304 458.612C873.304 457.039 872.028 455.764 870.456 455.764C868.883 455.764 867.607 457.039 867.607 458.612C867.607 460.185 868.883 461.46 870.456 461.46Z" fill="#AFBBFB" stroke="white" stroke-width="2"/>
<path d="M782.215 438.55C783.788 438.55 785.063 437.275 785.063 435.702C785.063 434.129 783.788 432.854 782.215 432.854C780.642 432.854 779.367 434.129 779.367 435.702C779.367 437.275 780.642 438.55 782.215 438.55Z" fill="#AFBBFB" stroke="white" stroke-width="2"/>
<path d="M777.463 440.398C779.036 440.398 780.311 439.123 780.311 437.55C780.311 435.977 779.036 434.702 777.463 434.702C775.89 434.702 774.615 435.977 774.615 437.55C774.615 439.123 775.89 440.398 777.463 440.398Z" fill="#AFBBFB" stroke="white" stroke-width="2"/>
<path d="M660.257 419.497C661.759 419.032 662.601 417.437 662.136 415.934C661.671 414.431 660.076 413.59 658.574 414.055C657.071 414.52 656.229 416.114 656.694 417.617C657.159 419.12 658.754 419.961 660.257 419.497Z" fill="#AFBBFB" stroke="white" stroke-width="2"/>
<path d="M616.534 418.577C618.037 418.112 618.878 416.517 618.413 415.014C617.949 413.512 616.354 412.67 614.851 413.135C613.348 413.6 612.507 415.195 612.972 416.697C613.436 418.2 615.031 419.041 616.534 418.577Z" fill="#AFBBFB" stroke="white" stroke-width="2"/>
<path d="M638.07 421.901C639.611 422.22 641.117 421.229 641.436 419.689C641.754 418.148 640.764 416.641 639.223 416.323C637.683 416.005 636.176 416.995 635.858 418.536C635.539 420.076 636.53 421.583 638.07 421.901Z" fill="#AFBBFB" stroke="white" stroke-width="2"/>
<path d="M643.291 423.419C644.831 423.738 646.338 422.747 646.657 421.206C646.975 419.666 645.984 418.159 644.444 417.841C642.903 417.522 641.397 418.513 641.078 420.053C640.76 421.594 641.75 423.101 643.291 423.419Z" fill="#AFBBFB" stroke="white" stroke-width="2"/>
<path d="M612.947 421.898C614.45 421.433 615.291 419.839 614.827 418.336C614.362 416.833 612.767 415.992 611.264 416.456C609.761 416.921 608.92 418.516 609.385 420.019C609.849 421.522 611.444 422.363 612.947 421.898Z" fill="#AFBBFB" stroke="white" stroke-width="2"/>
<path d="M600.616 443.951C602.119 443.486 602.96 441.891 602.495 440.388C602.031 438.886 600.436 438.044 598.933 438.509C597.43 438.974 596.589 440.569 597.054 442.071C597.518 443.574 599.113 444.415 600.616 443.951Z" fill="#AFBBFB" stroke="white" stroke-width="2"/>
<path d="M627.409 436.836C628.912 436.371 629.753 434.776 629.288 433.274C628.824 431.771 627.229 430.929 625.726 431.394C624.223 431.859 623.382 433.454 623.847 434.957C624.311 436.459 625.906 437.301 627.409 436.836Z" fill="#AFBBFB" stroke="white" stroke-width="2"/>
<path d="M578.118 458.217C579.621 457.753 580.462 456.158 579.997 454.655C579.533 453.152 577.938 452.311 576.435 452.775C574.932 453.24 574.091 454.835 574.556 456.338C575.02 457.841 576.615 458.682 578.118 458.217Z" fill="#AFBBFB" stroke="white" stroke-width="2"/>
<path d="M443.353 387.004C444.923 386.9 446.111 385.543 446.006 383.973C445.902 382.404 444.546 381.216 442.976 381.32C441.407 381.424 440.219 382.781 440.323 384.351C440.427 385.92 441.784 387.108 443.353 387.004Z" fill="#359FDA" stroke="white" stroke-width="2"/>
<path d="M477.968 361.189C479.538 361.085 480.726 359.729 480.622 358.159C480.518 356.59 479.161 355.402 477.591 355.506C476.022 355.61 474.834 356.967 474.938 358.536C475.042 360.106 476.399 361.294 477.968 361.189Z" fill="#359FDA" stroke="white" stroke-width="2"/>
<path d="M509.063 355.323C510.633 355.219 511.821 353.862 511.716 352.293C511.612 350.723 510.256 349.535 508.686 349.639C507.117 349.743 505.929 351.1 506.033 352.67C506.137 354.239 507.494 355.427 509.063 355.323Z" fill="#359FDA" stroke="white" stroke-width="2"/>
<path d="M497.917 418.099C499.486 417.995 500.674 416.638 500.57 415.069C500.466 413.499 499.109 412.311 497.54 412.415C495.97 412.52 494.782 413.876 494.886 415.446C494.99 417.015 496.347 418.203 497.917 418.099Z" fill="#359FDA" stroke="white" stroke-width="2"/>
<path d="M513.791 424.356C515.36 424.252 516.548 422.895 516.444 421.326C516.34 419.756 514.983 418.568 513.414 418.672C511.844 418.776 510.656 420.133 510.76 421.703C510.864 423.272 512.221 424.46 513.791 424.356Z" fill="#359FDA" stroke="white" stroke-width="2"/>
<path d="M525.282 434.062C526.851 433.958 528.039 432.601 527.935 431.032C527.831 429.462 526.474 428.274 524.905 428.378C523.335 428.483 522.147 429.839 522.252 431.409C522.356 432.978 523.712 434.166 525.282 434.062Z" fill="#359FDA" stroke="white" stroke-width="2"/>
<path d="M527.776 435.749C529.346 435.645 530.534 434.288 530.429 432.719C530.325 431.149 528.968 429.961 527.399 430.065C525.829 430.17 524.642 431.526 524.746 433.096C524.85 434.665 526.207 435.853 527.776 435.749Z" fill="#359FDA" stroke="white" stroke-width="2"/>
<path d="M576.957 431.131C578.526 431.027 579.714 429.67 579.61 428.1C579.506 426.531 578.149 425.343 576.58 425.447C575.01 425.551 573.822 426.908 573.926 428.478C574.031 430.047 575.387 431.235 576.957 431.131Z" fill="#359FDA" stroke="white" stroke-width="2"/>
<path d="M573.013 427.539C574.583 427.435 575.771 426.078 575.667 424.509C575.562 422.939 574.206 421.751 572.636 421.856C571.067 421.96 569.879 423.317 569.983 424.886C570.087 426.456 571.444 427.643 573.013 427.539Z" fill="#359FDA" stroke="white" stroke-width="2"/>
<path d="M576.481 423.966C578.051 423.862 579.239 422.505 579.134 420.936C579.03 419.366 577.673 418.178 576.104 418.282C574.534 418.387 573.347 419.743 573.451 421.313C573.555 422.882 574.912 424.07 576.481 423.966Z" fill="#359FDA" stroke="white" stroke-width="2"/>
<path d="M520.363 362.123C521.933 362.018 523.12 360.662 523.016 359.092C522.912 357.523 521.555 356.335 519.986 356.439C518.416 356.543 517.228 357.9 517.333 359.469C517.437 361.039 518.794 362.227 520.363 362.123Z" fill="#359FDA" stroke="white" stroke-width="2"/>
<path d="M523.982 363.736C525.552 363.631 526.74 362.275 526.635 360.705C526.531 359.136 525.174 357.948 523.605 358.052C522.035 358.156 520.848 359.513 520.952 361.082C521.056 362.652 522.413 363.84 523.982 363.736Z" fill="#359FDA" stroke="white" stroke-width="2"/>
<path d="M555.413 359.428C556.982 359.324 558.17 357.967 558.066 356.397C557.962 354.828 556.605 353.64 555.036 353.744C553.466 353.848 552.278 355.205 552.382 356.775C552.487 358.344 553.843 359.532 555.413 359.428Z" fill="#359FDA" stroke="white" stroke-width="2"/>
<path d="M561.291 362.357C562.86 362.253 564.048 360.896 563.944 359.327C563.84 357.757 562.483 356.569 560.914 356.674C559.344 356.778 558.156 358.134 558.26 359.704C558.364 361.273 559.721 362.461 561.291 362.357Z" fill="#359FDA" stroke="white" stroke-width="2"/>
<path d="M594.721 377.03C596.291 376.926 597.479 375.569 597.375 373.999C597.27 372.43 595.914 371.242 594.344 371.346C592.775 371.45 591.587 372.807 591.691 374.377C591.795 375.946 593.152 377.134 594.721 377.03Z" fill="#359FDA" stroke="white" stroke-width="2"/>
<path d="M607.042 378.789C608.611 378.684 609.799 377.328 609.695 375.758C609.591 374.189 608.234 373.001 606.665 373.105C605.095 373.209 603.907 374.566 604.011 376.135C604.115 377.705 605.472 378.893 607.042 378.789Z" fill="#359FDA" stroke="white" stroke-width="2"/>
<path d="M602.933 379.962C604.503 379.858 605.691 378.501 605.587 376.931C605.482 375.362 604.126 374.174 602.556 374.278C600.987 374.382 599.799 375.739 599.903 377.308C600.007 378.878 601.364 380.066 602.933 379.962Z" fill="#359FDA" stroke="white" stroke-width="2"/>
<path d="M415.192 410.472C416.762 410.368 417.95 409.011 417.845 407.441C417.741 405.872 416.384 404.684 414.815 404.788C413.245 404.892 412.058 406.249 412.162 407.818C412.266 409.388 413.623 410.576 415.192 410.472Z" fill="#359FDA" stroke="white" stroke-width="2"/>
<path d="M418.126 435.7C419.695 435.596 420.883 434.239 420.779 432.669C420.675 431.1 419.318 429.912 417.749 430.016C416.179 430.12 414.991 431.477 415.095 433.046C415.199 434.616 416.556 435.804 418.126 435.7Z" fill="#359FDA" stroke="white" stroke-width="2"/>
<path d="M343.894 412.706C345.467 412.706 346.742 411.431 346.742 409.858C346.742 408.285 345.467 407.01 343.894 407.01C342.321 407.01 341.046 408.285 341.046 409.858C341.046 411.431 342.321 412.706 343.894 412.706Z" fill="#34D2B6" stroke="white" stroke-width="2"/>
<path d="M382.083 382.308C383.656 382.308 384.931 381.033 384.931 379.46C384.931 377.887 383.656 376.612 382.083 376.612C380.51 376.612 379.235 377.887 379.235 379.46C379.235 381.033 380.51 382.308 382.083 382.308Z" fill="#34D2B6" stroke="white" stroke-width="2"/>
<path d="M405.497 364.011C407.07 364.011 408.346 362.736 408.346 361.163C408.346 359.59 407.07 358.315 405.497 358.315C403.925 358.315 402.649 359.59 402.649 361.163C402.649 362.736 403.925 364.011 405.497 364.011Z" fill="#34D2B6" stroke="white" stroke-width="2"/>
<path d="M427.205 341.716C428.777 341.716 430.053 340.441 430.053 338.868C430.053 337.295 428.777 336.02 427.205 336.02C425.632 336.02 424.356 337.295 424.356 338.868C424.356 340.441 425.632 341.716 427.205 341.716Z" fill="#34D2B6" stroke="white" stroke-width="2"/>
<path d="M368.398 327.557C369.971 327.557 371.246 326.282 371.246 324.709C371.246 323.136 369.971 321.861 368.398 321.861C366.825 321.861 365.55 323.136 365.55 324.709C365.55 326.282 366.825 327.557 368.398 327.557Z" fill="#34D2B6" stroke="white" stroke-width="2"/>
<path d="M333.272 325.998C334.845 325.998 336.12 324.723 336.12 323.15C336.12 321.577 334.845 320.302 333.272 320.302C331.699 320.302 330.424 321.577 330.424 323.15C330.424 324.723 331.699 325.998 333.272 325.998Z" fill="#34D2B6" stroke="white" stroke-width="2"/>
<path d="M330.399 324.69C331.972 324.69 333.247 323.415 333.247 321.842C333.247 320.269 331.972 318.994 330.399 318.994C328.826 318.994 327.551 320.269 327.551 321.842C327.551 323.415 328.826 324.69 330.399 324.69Z" fill="#34D2B6" stroke="white" stroke-width="2"/>
<path d="M324.245 320.804C325.818 320.804 327.093 319.529 327.093 317.956C327.093 316.383 325.818 315.108 324.245 315.108C322.672 315.108 321.396 316.383 321.396 317.956C321.396 319.529 322.672 320.804 324.245 320.804Z" fill="#34D2B6" stroke="white" stroke-width="2"/>
<path d="M322.395 326.538C323.968 326.538 325.243 325.263 325.243 323.69C325.243 322.117 323.968 320.842 322.395 320.842C320.822 320.842 319.547 322.117 319.547 323.69C319.547 325.263 320.822 326.538 322.395 326.538Z" fill="#34D2B6" stroke="white" stroke-width="2"/>
<path d="M272.201 312.468C273.774 312.468 275.049 311.193 275.049 309.62C275.049 308.047 273.774 306.772 272.201 306.772C270.628 306.772 269.353 308.047 269.353 309.62C269.353 311.193 270.628 312.468 272.201 312.468Z" fill="#34D2B6" stroke="white" stroke-width="2"/>
<path d="M265.863 318.67C267.436 318.67 268.711 317.394 268.711 315.821C268.711 314.249 267.436 312.973 265.863 312.973C264.29 312.973 263.015 314.249 263.015 315.821C263.015 317.394 264.29 318.67 265.863 318.67Z" fill="#34D2B6" stroke="white" stroke-width="2"/>
<path d="M272.716 316.403C274.289 316.403 275.564 315.128 275.564 313.555C275.564 311.982 274.289 310.707 272.716 310.707C271.143 310.707 269.868 311.982 269.868 313.555C269.868 315.128 271.143 316.403 272.716 316.403Z" fill="#34D2B6" stroke="white" stroke-width="2"/>
<path d="M277.108 310.621C278.681 310.621 279.956 309.346 279.956 307.773C279.956 306.2 278.681 304.925 277.108 304.925C275.535 304.925 274.26 306.2 274.26 307.773C274.26 309.346 275.535 310.621 277.108 310.621Z" fill="#34D2B6" stroke="white" stroke-width="2"/>
<path d="M276.424 315.379C277.997 315.379 279.272 314.104 279.272 312.531C279.272 310.958 277.997 309.683 276.424 309.683C274.851 309.683 273.576 310.958 273.576 312.531C273.576 314.104 274.851 315.379 276.424 315.379Z" fill="#34D2B6" stroke="white" stroke-width="2"/>
<path d="M328.287 330.234C329.859 330.234 331.135 328.959 331.135 327.386C331.135 325.813 329.859 324.538 328.287 324.538C326.714 324.538 325.438 325.813 325.438 327.386C325.438 328.959 326.714 330.234 328.287 330.234Z" fill="#34D2B6" stroke="white" stroke-width="2"/>
<path d="M315.085 335.64C316.658 335.64 317.933 334.365 317.933 332.792C317.933 331.219 316.658 329.944 315.085 329.944C313.512 329.944 312.237 331.219 312.237 332.792C312.237 334.365 313.512 335.64 315.085 335.64Z" fill="#34D2B6" stroke="white" stroke-width="2"/>
<path d="M326.438 340.255C328.011 340.255 329.286 338.98 329.286 337.407C329.286 335.834 328.011 334.559 326.438 334.559C324.865 334.559 323.59 335.834 323.59 337.407C323.59 338.98 324.865 340.255 326.438 340.255Z" fill="#34D2B6" stroke="white" stroke-width="2"/>
<path d="M450.761 326.461C452.334 326.461 453.609 325.186 453.609 323.613C453.609 322.04 452.334 320.765 450.761 320.765C449.188 320.765 447.913 322.04 447.913 323.613C447.913 325.186 449.188 326.461 450.761 326.461Z" fill="#34D2B6" stroke="white" stroke-width="2"/>
<path d="M407.002 331.156C408.575 331.156 409.85 329.881 409.85 328.308C409.85 326.735 408.575 325.46 407.002 325.46C405.429 325.46 404.154 326.735 404.154 328.308C404.154 329.881 405.429 331.156 407.002 331.156Z" fill="#34D2B6" stroke="white" stroke-width="2"/>
<path d="M447.153 328.698C448.726 328.698 450.001 327.423 450.001 325.85C450.001 324.277 448.726 323.002 447.153 323.002C445.58 323.002 444.305 324.277 444.305 325.85C444.305 327.423 445.58 328.698 447.153 328.698Z" fill="#34D2B6" stroke="white" stroke-width="2"/>
<path d="M400.217 333.732C401.79 333.732 403.065 332.456 403.065 330.883C403.065 329.311 401.79 328.035 400.217 328.035C398.644 328.035 397.369 329.311 397.369 330.883C397.369 332.456 398.644 333.732 400.217 333.732Z" fill="#34D2B6" stroke="white" stroke-width="2"/>
<path d="M451.376 332.395C452.949 332.395 454.224 331.12 454.224 329.547C454.224 327.974 452.949 326.699 451.376 326.699C449.803 326.699 448.528 327.974 448.528 329.547C448.528 331.12 449.803 332.395 451.376 332.395Z" fill="#34D2B6" stroke="white" stroke-width="2"/>
<path d="M583.444 305.341C585.017 305.341 586.292 304.066 586.292 302.493C586.292 300.92 585.017 299.645 583.444 299.645C581.871 299.645 580.596 300.92 580.596 302.493C580.596 304.066 581.871 305.341 583.444 305.341Z" fill="#34D2B6" stroke="white" stroke-width="2"/>
<path d="M676.552 274.833C678.125 274.833 679.4 273.557 679.4 271.985C679.4 270.412 678.125 269.136 676.552 269.136C674.979 269.136 673.704 270.412 673.704 271.985C673.704 273.557 674.979 274.833 676.552 274.833Z" fill="#34D2B6" stroke="white" stroke-width="2"/>
<path d="M579.747 309.037C581.319 309.037 582.595 307.762 582.595 306.189C582.595 304.616 581.319 303.341 579.747 303.341C578.174 303.341 576.898 304.616 576.898 306.189C576.898 307.762 578.174 309.037 579.747 309.037Z" fill="#34D2B6" stroke="white" stroke-width="2"/>
<path d="M407.002 335.581C408.575 335.581 409.85 334.306 409.85 332.733C409.85 331.16 408.575 329.885 407.002 329.885C405.429 329.885 404.154 331.16 404.154 332.733C404.154 334.306 405.429 335.581 407.002 335.581Z" fill="#34D2B6" stroke="white" stroke-width="2"/>
<path d="M448.327 358.144C449.9 358.144 451.175 356.869 451.175 355.296C451.175 353.723 449.9 352.448 448.327 352.448C446.754 352.448 445.479 353.723 445.479 355.296C445.479 356.869 446.754 358.144 448.327 358.144Z" fill="#34D2B6" stroke="white" stroke-width="2"/>
<path d="M241.226 314.498C242.786 314.295 243.885 312.865 243.681 311.305C243.477 309.746 242.048 308.646 240.488 308.85C238.928 309.054 237.829 310.484 238.033 312.043C238.237 313.603 239.666 314.702 241.226 314.498Z" fill="#A9DCE9" stroke="white" stroke-width="2"/>
<path d="M244.179 313.167C245.739 312.963 246.838 311.533 246.634 309.974C246.43 308.414 245.001 307.315 243.441 307.518C241.882 307.722 240.782 309.152 240.986 310.712C241.19 312.271 242.62 313.37 244.179 313.167Z" fill="#A9DCE9" stroke="white" stroke-width="2"/>
<path d="M259.458 306.127C261.017 305.923 262.116 304.493 261.913 302.933C261.709 301.374 260.279 300.275 258.72 300.478C257.16 300.682 256.061 302.112 256.264 303.672C256.468 305.231 257.898 306.33 259.458 306.127Z" fill="#A9DCE9" stroke="white" stroke-width="2"/>
<path d="M267.042 286.765C268.601 286.562 269.7 285.132 269.497 283.572C269.293 282.013 267.863 280.914 266.303 281.117C264.744 281.321 263.645 282.751 263.848 284.31C264.052 285.87 265.482 286.969 267.042 286.765Z" fill="#A9DCE9" stroke="white" stroke-width="2"/>
<path d="M258.241 311.077C259.8 310.873 260.9 309.443 260.696 307.883C260.492 306.324 259.062 305.225 257.503 305.428C255.943 305.632 254.844 307.062 255.048 308.621C255.251 310.181 256.681 311.28 258.241 311.077Z" fill="#A9DCE9" stroke="white" stroke-width="2"/>
<path d="M174.239 336.777C175.812 336.777 177.087 335.502 177.087 333.929C177.087 332.356 175.812 331.081 174.239 331.081C172.666 331.081 171.391 332.356 171.391 333.929C171.391 335.502 172.666 336.777 174.239 336.777Z" fill="#A9DCE9" stroke="white" stroke-width="2"/>
<path d="M160.843 349.929C162.416 349.929 163.691 348.654 163.691 347.081C163.691 345.508 162.416 344.233 160.843 344.233C159.27 344.233 157.995 345.508 157.995 347.081C157.995 348.654 159.27 349.929 160.843 349.929Z" fill="#A9DCE9" stroke="white" stroke-width="2"/>
<path d="M159.033 369.877C160.606 369.877 161.881 368.602 161.881 367.029C161.881 365.456 160.606 364.181 159.033 364.181C157.46 364.181 156.185 365.456 156.185 367.029C156.185 368.602 157.46 369.877 159.033 369.877Z" fill="#A9DCE9" stroke="white" stroke-width="2"/>
<path d="M150.282 374.011C151.855 374.011 153.13 372.736 153.13 371.163C153.13 369.59 151.855 368.315 150.282 368.315C148.709 368.315 147.434 369.59 147.434 371.163C147.434 372.736 148.709 374.011 150.282 374.011Z" fill="#A9DCE9" stroke="white" stroke-width="2"/>
<path d="M133.795 383.897C135.368 383.897 136.643 382.622 136.643 381.049C136.643 379.476 135.368 378.201 133.795 378.201C132.222 378.201 130.947 379.476 130.947 381.049C130.947 382.622 132.222 383.897 133.795 383.897Z" fill="#A9DCE9" stroke="white" stroke-width="2"/>
<path d="M128.837 389.365C130.41 389.365 131.685 388.09 131.685 386.517C131.685 384.944 130.41 383.669 128.837 383.669C127.264 383.669 125.989 384.944 125.989 386.517C125.989 388.09 127.264 389.365 128.837 389.365Z" fill="#A9DCE9" stroke="white" stroke-width="2"/>
<path d="M123.352 396.217C124.925 396.217 126.2 394.942 126.2 393.369C126.2 391.796 124.925 390.521 123.352 390.521C121.779 390.521 120.504 391.796 120.504 393.369C120.504 394.942 121.779 396.217 123.352 396.217Z" fill="#A9DCE9" stroke="white" stroke-width="2"/>
<path d="M116.103 399.913C117.676 399.913 118.951 398.638 118.951 397.065C118.951 395.492 117.676 394.217 116.103 394.217C114.53 394.217 113.255 395.492 113.255 397.065C113.255 398.638 114.53 399.913 116.103 399.913Z" fill="#A9DCE9" stroke="white" stroke-width="2"/>
<path d="M164.322 428.547C165.895 428.547 167.17 427.272 167.17 425.699C167.17 424.126 165.895 422.851 164.322 422.851C162.749 422.851 161.474 424.126 161.474 425.699C161.474 427.272 162.749 428.547 164.322 428.547Z" fill="#A9DCE9" stroke="white" stroke-width="2"/>
<path d="M146.585 407.599C148.158 407.599 149.433 406.324 149.433 404.751C149.433 403.178 148.158 401.903 146.585 401.903C145.012 401.903 143.737 403.178 143.737 404.751C143.737 406.324 145.012 407.599 146.585 407.599Z" fill="#A9DCE9" stroke="white" stroke-width="2"/>
<path d="M146.057 400.207C147.63 400.207 148.905 398.932 148.905 397.359C148.905 395.786 147.63 394.511 146.057 394.511C144.484 394.511 143.209 395.786 143.209 397.359C143.209 398.932 144.484 400.207 146.057 400.207Z" fill="#A9DCE9" stroke="white" stroke-width="2"/>
<path d="M141.833 402.055C143.406 402.055 144.681 400.78 144.681 399.207C144.681 397.634 143.406 396.359 141.833 396.359C140.26 396.359 138.985 397.634 138.985 399.207C138.985 400.78 140.26 402.055 141.833 402.055Z" fill="#A9DCE9" stroke="white" stroke-width="2"/>
<path d="M130.774 402.437C132.347 402.437 133.622 401.162 133.622 399.589C133.622 398.016 132.347 396.741 130.774 396.741C129.201 396.741 127.926 398.016 127.926 399.589C127.926 401.162 129.201 402.437 130.774 402.437Z" fill="#A9DCE9" stroke="white" stroke-width="2"/>
<path d="M135.73 394.438C137.303 394.438 138.578 393.163 138.578 391.59C138.578 390.017 137.303 388.742 135.73 388.742C134.157 388.742 132.882 390.017 132.882 391.59C132.882 393.163 134.157 394.438 135.73 394.438Z" fill="#A9DCE9" stroke="white" stroke-width="2"/>
<path d="M136.376 390.742C137.949 390.742 139.224 389.467 139.224 387.894C139.224 386.321 137.949 385.046 136.376 385.046C134.803 385.046 133.528 386.321 133.528 387.894C133.528 389.467 134.803 390.742 136.376 390.742Z" fill="#A9DCE9" stroke="white" stroke-width="2"/>
<path d="M150.282 382.784C151.855 382.784 153.13 381.509 153.13 379.936C153.13 378.363 151.855 377.088 150.282 377.088C148.709 377.088 147.434 378.363 147.434 379.936C147.434 381.509 148.709 382.784 150.282 382.784Z" fill="#A9DCE9" stroke="white" stroke-width="2"/>
<path d="M176.097 365.728C177.67 365.728 178.945 364.453 178.945 362.88C178.945 361.307 177.67 360.032 176.097 360.032C174.524 360.032 173.249 361.307 173.249 362.88C173.249 364.453 174.524 365.728 176.097 365.728Z" fill="#A9DCE9" stroke="white" stroke-width="2"/>
<path d="M185.119 363.423C186.692 363.423 187.967 362.148 187.967 360.575C187.967 359.002 186.692 357.727 185.119 357.727C183.546 357.727 182.271 359.002 182.271 360.575C182.271 362.148 183.546 363.423 185.119 363.423Z" fill="#A9DCE9" stroke="white" stroke-width="2"/>
<path d="M167.089 430.83C168.662 430.83 169.937 429.555 169.937 427.982C169.937 426.409 168.662 425.134 167.089 425.134C165.516 425.134 164.241 426.409 164.241 427.982C164.241 429.555 165.516 430.83 167.089 430.83Z" fill="#A9DCE9" stroke="white" stroke-width="2"/>
<path d="M162.016 432.678C163.589 432.678 164.864 431.403 164.864 429.83C164.864 428.257 163.589 426.982 162.016 426.982C160.443 426.982 159.168 428.257 159.168 429.83C159.168 431.403 160.443 432.678 162.016 432.678Z" fill="#A9DCE9" stroke="white" stroke-width="2"/>
<path d="M176.097 430.307C177.67 430.307 178.945 429.032 178.945 427.459C178.945 425.886 177.67 424.611 176.097 424.611C174.524 424.611 173.249 425.886 173.249 427.459C173.249 429.032 174.524 430.307 176.097 430.307Z" fill="#A9DCE9" stroke="white" stroke-width="2"/>
<path d="M189.421 420.255C190.994 420.255 192.269 418.98 192.269 417.407C192.269 415.834 190.994 414.559 189.421 414.559C187.848 414.559 186.573 415.834 186.573 417.407C186.573 418.98 187.848 420.255 189.421 420.255Z" fill="#A9DCE9" stroke="white" stroke-width="2"/>
<path d="M182.039 398.523C183.612 398.523 184.888 397.247 184.888 395.674C184.888 394.102 183.612 392.826 182.039 392.826C180.467 392.826 179.191 394.102 179.191 395.674C179.191 397.247 180.467 398.523 182.039 398.523Z" fill="#A9DCE9" stroke="white" stroke-width="2"/>
<path d="M187.627 398.296C189.2 398.296 190.475 397.021 190.475 395.448C190.475 393.875 189.2 392.6 187.627 392.6C186.054 392.6 184.779 393.875 184.779 395.448C184.779 397.021 186.054 398.296 187.627 398.296Z" fill="#A9DCE9" stroke="white" stroke-width="2"/>
<path d="M178.033 392.345C179.606 392.345 180.881 391.07 180.881 389.497C180.881 387.924 179.606 386.649 178.033 386.649C176.46 386.649 175.185 387.924 175.185 389.497C175.185 391.07 176.46 392.345 178.033 392.345Z" fill="#A9DCE9" stroke="white" stroke-width="2"/>
<path d="M190.842 376.33C192.415 376.33 193.69 375.055 193.69 373.482C193.69 371.909 192.415 370.634 190.842 370.634C189.269 370.634 187.994 371.909 187.994 373.482C187.994 375.055 189.269 376.33 190.842 376.33Z" fill="#A9DCE9" stroke="white" stroke-width="2"/>
<path d="M186.071 381.427C187.644 381.427 188.919 380.152 188.919 378.579C188.919 377.006 187.644 375.731 186.071 375.731C184.498 375.731 183.223 377.006 183.223 378.579C183.223 380.152 184.498 381.427 186.071 381.427Z" fill="#A9DCE9" stroke="white" stroke-width="2"/>
<path d="M202.175 376.547C203.748 376.547 205.023 375.272 205.023 373.699C205.023 372.126 203.748 370.851 202.175 370.851C200.602 370.851 199.327 372.126 199.327 373.699C199.327 375.272 200.602 376.547 202.175 376.547Z" fill="#A9DCE9" stroke="white" stroke-width="2"/>
<path d="M205.08 380.42C206.652 380.42 207.928 379.145 207.928 377.572C207.928 375.999 206.652 374.724 205.08 374.724C203.507 374.724 202.231 375.999 202.231 377.572C202.231 379.145 203.507 380.42 205.08 380.42Z" fill="#A9DCE9" stroke="white" stroke-width="2"/>
<path d="M228.838 385.597C230.411 385.597 231.686 384.322 231.686 382.749C231.686 381.176 230.411 379.901 228.838 379.901C227.265 379.901 225.99 381.176 225.99 382.749C225.99 384.322 227.265 385.597 228.838 385.597Z" fill="#A9DCE9" stroke="white" stroke-width="2"/>
<path d="M238.806 374.481C240.379 374.481 241.654 373.206 241.654 371.633C241.654 370.06 240.379 368.785 238.806 368.785C237.233 368.785 235.958 370.06 235.958 371.633C235.958 373.206 237.233 374.481 238.806 374.481Z" fill="#A9DCE9" stroke="white" stroke-width="2"/>
<path d="M242.981 380.438C244.554 380.438 245.829 379.162 245.829 377.59C245.829 376.017 244.554 374.741 242.981 374.741C241.408 374.741 240.133 376.017 240.133 377.59C240.133 379.162 241.408 380.438 242.981 380.438Z" fill="#A9DCE9" stroke="white" stroke-width="2"/>
<path d="M233.063 376.869C234.636 376.869 235.911 375.594 235.911 374.021C235.911 372.448 234.636 371.173 233.063 371.173C231.49 371.173 230.215 372.448 230.215 374.021C230.215 375.594 231.49 376.869 233.063 376.869Z" fill="#A9DCE9" stroke="white" stroke-width="2"/>
<path d="M216.168 386.757C217.741 386.757 219.016 385.482 219.016 383.909C219.016 382.336 217.741 381.061 216.168 381.061C214.595 381.061 213.32 382.336 213.32 383.909C213.32 385.482 214.595 386.757 216.168 386.757Z" fill="#A9DCE9" stroke="white" stroke-width="2"/>
<path d="M223.087 363.356C224.66 363.356 225.935 362.081 225.935 360.508C225.935 358.935 224.66 357.66 223.087 357.66C221.514 357.66 220.239 358.935 220.239 360.508C220.239 362.081 221.514 363.356 223.087 363.356Z" fill="#A9DCE9" stroke="white" stroke-width="2"/>
<path d="M226.422 366.619C227.995 366.619 229.27 365.344 229.27 363.771C229.27 362.198 227.995 360.923 226.422 360.923C224.849 360.923 223.574 362.198 223.574 363.771C223.574 365.344 224.849 366.619 226.422 366.619Z" fill="#A9DCE9" stroke="white" stroke-width="2"/>
<path d="M235.88 387.061C237.453 387.061 238.728 385.785 238.728 384.213C238.728 382.64 237.453 381.365 235.88 381.365C234.307 381.365 233.032 382.64 233.032 384.213C233.032 385.785 234.307 387.061 235.88 387.061Z" fill="#A9DCE9" stroke="white" stroke-width="2"/>
<path d="M197.804 397.625C199.377 397.625 200.652 396.35 200.652 394.777C200.652 393.204 199.377 391.929 197.804 391.929C196.231 391.929 194.956 393.204 194.956 394.777C194.956 396.35 196.231 397.625 197.804 397.625Z" fill="#A9DCE9" stroke="white" stroke-width="2"/>
<path d="M205.357 398.523C206.93 398.523 208.205 397.247 208.205 395.674C208.205 394.102 206.93 392.826 205.357 392.826C203.784 392.826 202.509 394.102 202.509 395.674C202.509 397.247 203.784 398.523 205.357 398.523Z" fill="#A9DCE9" stroke="white" stroke-width="2"/>
<path d="M168.447 407.599C170.02 407.599 171.295 406.324 171.295 404.751C171.295 403.178 170.02 401.903 168.447 401.903C166.874 401.903 165.599 403.178 165.599 404.751C165.599 406.324 166.874 407.599 168.447 407.599Z" fill="#A9DCE9" stroke="white" stroke-width="2"/>
<path d="M176.825 411.824C178.398 411.824 179.673 410.548 179.673 408.975C179.673 407.403 178.398 406.127 176.825 406.127C175.252 406.127 173.977 407.403 173.977 408.975C173.977 410.548 175.252 411.824 176.825 411.824Z" fill="#A9DCE9" stroke="white" stroke-width="2"/>
<path d="M159.163 407.067C160.736 407.067 162.012 405.792 162.012 404.219C162.012 402.646 160.736 401.371 159.163 401.371C157.591 401.371 156.315 402.646 156.315 404.219C156.315 405.792 157.591 407.067 159.163 407.067Z" fill="#A9DCE9" stroke="white" stroke-width="2"/>
<path d="M159.548 391.422C161.121 391.422 162.396 390.147 162.396 388.574C162.396 387.001 161.121 385.726 159.548 385.726C157.975 385.726 156.7 387.001 156.7 388.574C156.7 390.147 157.975 391.422 159.548 391.422Z" fill="#A9DCE9" stroke="white" stroke-width="2"/>
<path d="M164.217 394.062C165.79 394.062 167.065 392.787 167.065 391.214C167.065 389.641 165.79 388.366 164.217 388.366C162.644 388.366 161.369 389.641 161.369 391.214C161.369 392.787 162.644 394.062 164.217 394.062Z" fill="#A9DCE9" stroke="white" stroke-width="2"/>
<path d="M168.571 397.758C170.144 397.758 171.419 396.483 171.419 394.91C171.419 393.337 170.144 392.062 168.571 392.062C166.998 392.062 165.723 393.337 165.723 394.91C165.723 396.483 166.998 397.758 168.571 397.758Z" fill="#A9DCE9" stroke="white" stroke-width="2"/>
<path d="M198.193 408.978C199.766 408.978 201.041 407.703 201.041 406.13C201.041 404.557 199.766 403.282 198.193 403.282C196.62 403.282 195.345 404.557 195.345 406.13C195.345 407.703 196.62 408.978 198.193 408.978Z" fill="#A9DCE9" stroke="white" stroke-width="2"/>
<path d="M231.303 406.17C232.876 406.17 234.151 404.895 234.151 403.322C234.151 401.749 232.876 400.474 231.303 400.474C229.73 400.474 228.455 401.749 228.455 403.322C228.455 404.895 229.73 406.17 231.303 406.17Z" fill="#A9DCE9" stroke="white" stroke-width="2"/>
<path d="M128.719 429.248C130.292 429.248 131.567 427.973 131.567 426.4C131.567 424.827 130.292 423.552 128.719 423.552C127.146 423.552 125.871 424.827 125.871 426.4C125.871 427.973 127.146 429.248 128.719 429.248Z" fill="#A9DCE9" stroke="white" stroke-width="2"/>
<path d="M115.96 416.576C117.533 416.576 118.808 415.301 118.808 413.728C118.808 412.155 117.533 410.88 115.96 410.88C114.387 410.88 113.112 412.155 113.112 413.728C113.112 415.301 114.387 416.576 115.96 416.576Z" fill="#A9DCE9" stroke="white" stroke-width="2"/>
<path d="M119.228 419.476C120.801 419.476 122.076 418.201 122.076 416.628C122.076 415.055 120.801 413.78 119.228 413.78C117.655 413.78 116.38 415.055 116.38 416.628C116.38 418.201 117.655 419.476 119.228 419.476Z" fill="#A9DCE9" stroke="white" stroke-width="2"/>
<path d="M113.907 380.438C115.48 380.438 116.755 379.162 116.755 377.59C116.755 376.017 115.48 374.741 113.907 374.741C112.334 374.741 111.059 376.017 111.059 377.59C111.059 379.162 112.334 380.438 113.907 380.438Z" fill="#A9DCE9" stroke="white" stroke-width="2"/>
<path d="M102.759 368.117C104.332 368.117 105.607 366.842 105.607 365.269C105.607 363.696 104.332 362.421 102.759 362.421C101.186 362.421 99.9111 363.696 99.9111 365.269C99.9111 366.842 101.186 368.117 102.759 368.117Z" fill="#A9DCE9" stroke="white" stroke-width="2"/>
<path d="M102.759 386.304C104.332 386.304 105.607 385.029 105.607 383.456C105.607 381.883 104.332 380.608 102.759 380.608C101.186 380.608 99.9111 381.883 99.9111 383.456C99.9111 385.029 101.186 386.304 102.759 386.304Z" fill="#A9DCE9" stroke="white" stroke-width="2"/>
<path d="M163.188 319.42C164.761 319.42 166.036 318.145 166.036 316.572C166.036 314.999 164.761 313.724 163.188 313.724C161.615 313.724 160.34 314.999 160.34 316.572C160.34 318.145 161.615 319.42 163.188 319.42Z" fill="#A9DCE9" stroke="white" stroke-width="2"/>
<path d="M69.9773 436.832V440H59.5853V443.12H69.4973V446.264H59.5853V449.408H69.9773V452.576H55.9853V436.832H69.9773ZM80.721 452.864C79.153 452.864 77.769 452.56 76.569 451.952C75.385 451.328 74.465 450.456 73.809 449.336C73.169 448.216 72.849 446.912 72.849 445.424V436.832H76.449V445.472C76.449 446.768 76.817 447.768 77.553 448.472C78.305 449.176 79.361 449.528 80.721 449.528C82.097 449.528 83.153 449.176 83.889 448.472C84.641 447.768 85.017 446.768 85.017 445.472V436.832H88.617V445.424C88.617 446.912 88.289 448.216 87.633 449.336C86.993 450.456 86.073 451.328 84.873 451.952C83.689 452.56 82.305 452.864 80.721 452.864ZM107.864 442.184C107.864 443.464 107.456 444.512 106.64 445.328C105.84 446.144 104.696 446.656 103.208 446.864L107.792 452.024V452.576H103.664L98.7683 446.936H95.4803V452.576H91.8803V436.832H101.864C103.736 436.832 105.2 437.288 106.256 438.2C107.328 439.096 107.864 440.336 107.864 441.92V442.184ZM104.192 441.848C104.192 441.256 103.984 440.808 103.568 440.504C103.168 440.184 102.568 440.024 101.768 440.024H95.4803V443.96H101.768C102.552 443.96 103.152 443.808 103.568 443.504C103.984 443.184 104.192 442.72 104.192 442.112V441.848ZM119.64 452.864C117.752 452.864 116.104 452.536 114.696 451.88C113.288 451.224 112.192 450.288 111.408 449.072C110.64 447.856 110.256 446.44 110.256 444.824V444.608C110.256 442.992 110.64 441.576 111.408 440.36C112.192 439.144 113.288 438.208 114.696 437.552C116.12 436.88 117.768 436.544 119.64 436.544C121.528 436.544 123.176 436.88 124.584 437.552C125.992 438.208 127.08 439.144 127.848 440.36C128.616 441.576 129 442.992 129 444.608V444.824C129 446.44 128.616 447.856 127.848 449.072C127.08 450.288 125.992 451.224 124.584 451.88C123.176 452.536 121.528 452.864 119.64 452.864ZM119.64 449.528C121.496 449.528 122.904 449.128 123.864 448.328C124.84 447.528 125.328 446.376 125.328 444.872V444.584C125.328 443.08 124.832 441.92 123.84 441.104C122.864 440.288 121.464 439.88 119.64 439.88C117.8 439.88 116.384 440.288 115.392 441.104C114.416 441.92 113.928 443.08 113.928 444.584V444.872C113.928 446.376 114.416 447.528 115.392 448.328C116.384 449.128 117.8 449.528 119.64 449.528ZM141.767 436.832C143.623 436.832 145.087 437.28 146.159 438.176C147.231 439.072 147.767 440.296 147.767 441.848V442.112C147.767 443.68 147.231 444.912 146.159 445.808C145.087 446.704 143.623 447.152 141.767 447.152H135.383V452.576H131.783V436.832H141.767ZM141.671 443.96C142.455 443.96 143.055 443.808 143.471 443.504C143.887 443.184 144.095 442.72 144.095 442.112V441.848C144.095 441.256 143.887 440.808 143.471 440.504C143.055 440.184 142.455 440.024 141.671 440.024H135.383V443.96H141.671ZM164.426 436.832V440H154.034V443.12H163.946V446.264H154.034V449.408H164.426V452.576H150.434V436.832H164.426Z" fill="#3C525E"/>
<path d="M253.02 395.323H248.364V384.123H253.116C255.932 384.123 257.02 385.163 257.02 386.939C257.02 388.059 256.572 388.891 255.676 389.435C256.828 389.803 257.404 390.667 257.404 392.059C257.404 394.283 255.756 395.323 253.02 395.323ZM253.02 390.491H250.3V393.499H252.892C254.636 393.499 255.388 393.035 255.388 391.947C255.388 390.939 254.7 390.491 253.02 390.491ZM252.86 385.947H250.3V388.731H253.068C254.3 388.731 255.02 388.219 255.02 387.371C255.02 386.395 254.46 385.947 252.86 385.947ZM260.713 395.323H258.889V387.003H260.713V387.563C260.921 387.131 261.593 386.827 262.217 386.827C262.937 386.827 263.481 387.067 263.865 387.563L262.825 388.891C262.665 388.651 262.393 388.523 261.993 388.523C261.401 388.523 260.905 388.939 260.713 389.691V395.323ZM270.616 392.667L271.736 393.771C270.888 394.907 269.768 395.467 268.36 395.467C267.016 395.467 265.944 395.067 265.128 394.283C264.312 393.499 263.896 392.459 263.896 391.147C263.896 389.883 264.28 388.843 265.032 388.027C265.784 387.211 266.824 386.811 268.168 386.811C269.304 386.811 270.232 387.163 270.968 387.851C271.704 388.555 272.072 389.483 272.072 390.619C272.072 390.891 272.04 391.291 271.976 391.787H265.8C265.944 393.067 266.968 393.771 268.392 393.771C269.336 393.771 270.072 393.403 270.616 392.667ZM268.088 388.459C266.872 388.459 266.056 389.115 265.816 390.203H270.184C270.04 389.067 269.288 388.459 268.088 388.459ZM278.237 392.955C278.237 392.267 276.413 391.995 274.989 391.467C273.997 391.099 273.197 390.331 273.197 389.291C273.197 387.755 274.493 386.811 276.621 386.811C278.045 386.811 279.405 387.467 279.981 388.283L278.733 389.467C278.173 388.827 277.373 388.507 276.317 388.507C275.501 388.507 275.085 388.763 275.085 389.259C275.085 390.395 280.125 390.027 280.125 392.939C280.125 393.771 279.805 394.395 279.149 394.827C278.493 395.259 277.677 395.467 276.701 395.467C274.909 395.467 273.469 394.635 272.845 393.467L274.285 392.475C274.749 393.227 275.805 393.771 276.877 393.771C277.645 393.771 278.237 393.515 278.237 392.955ZM281.967 388.699H280.527V387.003H281.967V385.291H283.791V387.003H286.479V388.699H283.791V391.915C283.791 393.243 284.095 393.723 284.863 393.723C285.295 393.723 285.679 393.483 286.047 393.019L287.135 394.043C286.671 394.859 285.695 395.419 284.591 395.419C282.975 395.419 281.967 394.363 281.967 392.427V388.699Z" fill="#3C525E"/>
<path d="M259.525 371.757C259.525 369.229 252.613 370.733 252.613 366.637C252.613 365.757 253.029 365.005 253.861 364.381C254.677 363.773 255.733 363.469 256.997 363.469C258.837 363.469 260.293 363.997 261.333 365.069L260.277 366.445C259.333 365.661 258.229 365.277 256.949 365.277C255.621 365.277 254.613 365.709 254.613 366.589C254.613 367.757 256.341 367.901 258.069 368.397C259.269 368.749 260.325 369.069 261.013 369.965C261.349 370.429 261.525 370.973 261.525 371.613C261.525 372.589 261.109 373.373 260.277 373.997C259.445 374.621 258.421 374.925 257.221 374.925C256.245 374.925 255.301 374.733 254.389 374.333C253.477 373.949 252.789 373.469 252.293 372.877L253.445 371.517C254.453 372.589 255.781 373.117 257.397 373.117C258.741 373.117 259.525 372.605 259.525 371.757ZM268.675 366.477H270.611L266.915 374.797H265.571L261.699 366.477H263.763L266.275 372.029L268.675 366.477ZM273.132 374.797H271.308V366.477H273.132V374.797ZM271.148 364.093C271.148 363.533 271.628 363.133 272.22 363.133C272.812 363.133 273.276 363.565 273.276 364.093C273.276 364.669 272.812 365.085 272.22 365.085C271.58 365.085 271.148 364.669 271.148 364.093ZM279.824 372.429C279.824 371.741 278 371.469 276.576 370.941C275.584 370.573 274.784 369.805 274.784 368.765C274.784 367.229 276.08 366.285 278.208 366.285C279.632 366.285 280.992 366.941 281.568 367.757L280.32 368.941C279.76 368.301 278.96 367.981 277.904 367.981C277.088 367.981 276.672 368.237 276.672 368.733C276.672 369.869 281.712 369.501 281.712 372.413C281.712 373.245 281.392 373.869 280.736 374.301C280.08 374.733 279.264 374.941 278.288 374.941C276.496 374.941 275.056 374.109 274.432 372.941L275.872 371.949C276.336 372.701 277.392 373.245 278.464 373.245C279.232 373.245 279.824 372.989 279.824 372.429ZM284.737 374.797H282.913V363.117H284.737V374.797ZM287.325 368.861L286.429 367.517C287.213 366.749 288.557 366.285 289.917 366.285C292.093 366.285 293.325 367.533 293.325 369.709V374.797H291.501V373.885C290.893 374.557 290.029 374.893 288.925 374.893C287.085 374.893 285.901 373.869 285.901 372.269C285.901 370.493 287.437 369.629 289.789 369.629C290.477 369.629 291.053 369.709 291.501 369.853C291.517 368.589 291.005 367.981 289.709 367.981C288.893 367.981 288.093 368.269 287.325 368.861ZM289.325 373.309C290.269 373.309 291.005 372.925 291.501 372.173V371.373C291.053 371.229 290.541 371.149 289.981 371.149C288.525 371.149 287.789 371.517 287.789 372.253C287.789 372.909 288.381 373.309 289.325 373.309ZM301.344 372.061L302.64 372.893C301.984 374.189 300.56 374.941 299.072 374.941C297.728 374.941 296.64 374.541 295.824 373.757C295.008 372.973 294.592 371.917 294.592 370.621C294.592 369.373 294.992 368.333 295.808 367.517C296.624 366.701 297.68 366.285 298.976 366.285C300.64 366.285 301.984 367.037 302.544 368.173L301.184 369.069C300.64 368.349 299.936 367.981 299.056 367.981C297.536 367.981 296.48 369.069 296.48 370.621C296.48 371.373 296.736 371.997 297.248 372.493C297.744 372.989 298.416 373.245 299.248 373.245C300.128 373.245 300.816 372.845 301.344 372.061ZM305.409 374.797H303.585V363.117H305.409V367.197C306.001 366.605 306.817 366.301 307.825 366.301C310.129 366.301 311.281 367.565 311.281 370.109V374.797H309.457V370.221C309.457 368.669 308.833 367.997 307.441 367.997C306.561 367.997 305.809 368.525 305.409 369.373V374.797Z" fill="#3C525E"/>
<path d="M253.953 353.338H249.297V342.138H254.049C256.865 342.138 257.953 343.178 257.953 344.954C257.953 346.074 257.505 346.906 256.609 347.45C257.761 347.818 258.337 348.682 258.337 350.074C258.337 352.298 256.689 353.338 253.953 353.338ZM253.953 348.506H251.233V351.514H253.825C255.569 351.514 256.321 351.05 256.321 349.962C256.321 348.954 255.633 348.506 253.953 348.506ZM253.793 343.962H251.233V346.746H254.001C255.233 346.746 255.953 346.234 255.953 345.386C255.953 344.41 255.393 343.962 253.793 343.962ZM261.646 353.338H259.822V345.018H261.646V345.578C261.854 345.146 262.526 344.842 263.15 344.842C263.87 344.842 264.414 345.082 264.798 345.578L263.758 346.906C263.598 346.666 263.326 346.538 262.926 346.538C262.334 346.538 261.838 346.954 261.646 347.706V353.338ZM271.362 344.97H273.186V353.338H271.362V352.458C270.754 353.146 269.986 353.482 269.042 353.482C266.722 353.482 265.586 352.298 265.586 349.754V344.97H267.41V349.578C267.41 351.05 268.018 351.786 269.218 351.786C270.162 351.786 270.882 351.306 271.362 350.346V344.97ZM279.028 346.714H274.612V345.018H281.78V346.186L277.108 351.642H281.7V353.338H274.356V352.154L279.028 346.714ZM288.476 345.018H290.3V352.666C290.3 355.354 288.844 356.682 286.46 356.682C284.588 356.682 283.18 355.882 282.684 354.538L284.268 353.85C284.604 354.49 285.308 354.986 286.316 354.986C287.756 354.986 288.476 354.33 288.476 353.002V352.634C288.108 353.194 287.372 353.482 286.268 353.482C285.036 353.482 284.06 353.098 283.308 352.33C282.556 351.578 282.188 350.522 282.188 349.162C282.188 347.866 282.588 346.826 283.388 346.042C284.172 345.258 285.148 344.874 286.284 344.874C287.26 344.874 287.996 345.098 288.476 345.562V345.018ZM286.572 351.786C287.484 351.786 288.22 351.226 288.476 350.522V347.45C288.092 346.858 287.452 346.57 286.556 346.57C285.148 346.57 284.076 347.53 284.076 349.194C284.076 350.842 285.02 351.786 286.572 351.786ZM293.978 353.338H292.154V345.018H293.978V353.338ZM291.994 342.634C291.994 342.074 292.474 341.674 293.066 341.674C293.658 341.674 294.122 342.106 294.122 342.634C294.122 343.21 293.658 343.626 293.066 343.626C292.426 343.626 291.994 343.21 291.994 342.634Z" fill="#3C525E"/>
<path d="M176.594 249.775H174.658V238.575H176.594V243.487L181.618 238.575H184.146L179.058 243.599L184.514 249.775H181.938L177.602 244.895L176.594 245.871V249.775ZM186.157 243.839L185.261 242.495C186.045 241.727 187.389 241.263 188.749 241.263C190.925 241.263 192.157 242.511 192.157 244.687V249.775H190.333V248.863C189.725 249.535 188.861 249.871 187.757 249.871C185.917 249.871 184.733 248.847 184.733 247.247C184.733 245.471 186.269 244.607 188.621 244.607C189.309 244.607 189.885 244.687 190.333 244.831C190.349 243.567 189.837 242.959 188.541 242.959C187.725 242.959 186.925 243.247 186.157 243.839ZM188.157 248.287C189.101 248.287 189.837 247.903 190.333 247.151V246.351C189.885 246.207 189.373 246.127 188.813 246.127C187.357 246.127 186.621 246.495 186.621 247.231C186.621 247.887 187.213 248.287 188.157 248.287ZM195.632 249.775H193.808V238.095H195.632V249.775ZM199.308 249.775H197.484V241.455H199.308V249.775ZM197.324 239.071C197.324 238.511 197.804 238.111 198.396 238.111C198.988 238.111 199.452 238.543 199.452 239.071C199.452 239.647 198.988 240.063 198.396 240.063C197.756 240.063 197.324 239.647 197.324 239.071ZM202.976 249.775H201.152V241.455H202.976V242.207C203.6 241.583 204.464 241.279 205.536 241.279C207.76 241.279 208.88 242.543 208.88 245.071V249.775H207.056V245.215C207.056 243.631 206.416 242.975 205.008 242.975C204.112 242.975 203.344 243.503 202.976 244.383V249.775ZM212.511 249.775H210.687V241.455H212.511V249.775ZM210.527 239.071C210.527 238.511 211.007 238.111 211.599 238.111C212.191 238.111 212.655 238.543 212.655 239.071C212.655 239.647 212.191 240.063 211.599 240.063C210.959 240.063 210.527 239.647 210.527 239.071ZM216.179 249.775H214.355V241.455H216.179V242.207C216.803 241.583 217.667 241.279 218.739 241.279C220.963 241.279 222.083 242.543 222.083 245.071V249.775H220.259V245.215C220.259 243.631 219.619 242.975 218.211 242.975C217.315 242.975 216.547 243.503 216.179 244.383V249.775ZM229.634 241.455H231.458V249.103C231.458 251.791 230.002 253.119 227.618 253.119C225.746 253.119 224.338 252.319 223.842 250.975L225.426 250.287C225.762 250.927 226.466 251.423 227.474 251.423C228.914 251.423 229.634 250.767 229.634 249.439V249.071C229.266 249.631 228.53 249.919 227.426 249.919C226.194 249.919 225.218 249.535 224.466 248.767C223.714 248.015 223.346 246.959 223.346 245.599C223.346 244.303 223.746 243.263 224.546 242.479C225.33 241.695 226.306 241.311 227.442 241.311C228.418 241.311 229.154 241.535 229.634 241.999V241.455ZM227.73 248.223C228.642 248.223 229.378 247.663 229.634 246.959V243.887C229.25 243.295 228.61 243.007 227.714 243.007C226.306 243.007 225.234 243.967 225.234 245.631C225.234 247.279 226.178 248.223 227.73 248.223ZM234.976 249.775H233.152V241.455H234.976V242.015C235.184 241.583 235.856 241.279 236.48 241.279C237.2 241.279 237.744 241.519 238.128 242.015L237.088 243.343C236.928 243.103 236.656 242.975 236.256 242.975C235.664 242.975 235.168 243.391 234.976 244.143V249.775ZM239.86 243.839L238.964 242.495C239.748 241.727 241.092 241.263 242.452 241.263C244.628 241.263 245.86 242.511 245.86 244.687V249.775H244.036V248.863C243.428 249.535 242.564 249.871 241.46 249.871C239.62 249.871 238.436 248.847 238.436 247.247C238.436 245.471 239.972 244.607 242.324 244.607C243.012 244.607 243.588 244.687 244.036 244.831C244.052 243.567 243.54 242.959 242.244 242.959C241.428 242.959 240.628 243.247 239.86 243.839ZM241.86 248.287C242.804 248.287 243.54 247.903 244.036 247.151V246.351C243.588 246.207 243.076 246.127 242.516 246.127C241.06 246.127 240.324 246.495 240.324 247.231C240.324 247.887 240.916 248.287 241.86 248.287ZM255.303 249.775H253.479V248.863C253.111 249.375 252.247 249.903 251.143 249.903C249.943 249.903 248.967 249.519 248.231 248.767C247.495 248.015 247.127 246.959 247.127 245.631C247.127 244.367 247.527 243.311 248.343 242.495C249.143 241.679 250.119 241.263 251.271 241.263C252.263 241.263 252.999 241.471 253.479 241.887V238.095H255.303V249.775ZM251.479 248.207C252.375 248.207 253.175 247.599 253.479 246.911V243.871C253.047 243.263 252.423 242.959 251.575 242.959C250.119 242.959 249.015 243.983 249.015 245.599C249.015 247.199 250.007 248.207 251.479 248.207Z" fill="#3C525E"/>
<path d="M272.844 409.991C273.58 410.327 274.14 410.783 274.524 411.359C274.908 411.935 275.1 412.607 275.1 413.375V413.639C275.1 414.999 274.572 416.079 273.516 416.879C272.46 417.663 271.028 418.055 269.22 418.055H259.38V402.311H268.764C270.62 402.311 272.052 402.679 273.06 403.415C274.084 404.135 274.596 405.151 274.596 406.463V406.727C274.596 408.135 274.012 409.223 272.844 409.991ZM262.98 405.455V408.623H268.74C270.228 408.623 270.972 408.135 270.972 407.159V406.919C270.972 406.439 270.78 406.079 270.396 405.839C270.028 405.583 269.484 405.455 268.764 405.455H262.98ZM271.428 413.111C271.428 412.119 270.676 411.623 269.172 411.623H262.98V414.911H269.172C269.892 414.911 270.444 414.775 270.828 414.503C271.228 414.231 271.428 413.847 271.428 413.351V413.111ZM291.976 402.311V405.479H281.584V408.599H291.496V411.743H281.584V414.887H291.976V418.055H277.984V402.311H291.976ZM298.687 402.311V414.815H309.367V418.055H295.087V402.311H298.687ZM327.668 417.503V418.055H324.068L322.628 414.791H314.756L313.316 418.055H309.716V417.503L316.7 402.311H320.684L327.668 417.503ZM321.26 411.671L318.692 405.815L316.124 411.671H321.26ZM345.537 407.663C345.537 408.943 345.129 409.991 344.313 410.807C343.513 411.623 342.369 412.135 340.881 412.343L345.465 417.503V418.055H341.337L336.441 412.415H333.153V418.055H329.553V402.311H339.537C341.409 402.311 342.873 402.767 343.929 403.679C345.001 404.575 345.537 405.815 345.537 407.399V407.663ZM341.865 407.327C341.865 406.735 341.657 406.287 341.241 405.983C340.841 405.663 340.241 405.503 339.441 405.503H333.153V409.439H339.441C340.225 409.439 340.825 409.287 341.241 408.983C341.657 408.663 341.865 408.199 341.865 407.591V407.327ZM356.281 418.343C354.713 418.343 353.329 418.039 352.129 417.431C350.945 416.807 350.025 415.935 349.369 414.815C348.729 413.695 348.409 412.391 348.409 410.903V402.311H352.009V410.951C352.009 412.247 352.377 413.247 353.113 413.951C353.865 414.655 354.921 415.007 356.281 415.007C357.657 415.007 358.713 414.655 359.449 413.951C360.201 413.247 360.577 412.247 360.577 410.951V402.311H364.177V410.903C364.177 412.391 363.849 413.695 363.193 414.815C362.553 415.935 361.633 416.807 360.433 417.431C359.249 418.039 357.865 418.343 356.281 418.343ZM374.88 418.343C372.288 418.343 370.32 417.879 368.976 416.951C367.632 416.023 366.96 414.663 366.96 412.871V412.631H370.512V412.871C370.512 413.639 370.896 414.223 371.664 414.623C372.432 415.023 373.552 415.223 375.024 415.223C376.336 415.223 377.328 415.087 378 414.815C378.688 414.527 379.032 414.111 379.032 413.567V413.399C379.032 412.967 378.84 412.639 378.456 412.415C378.072 412.175 377.392 411.983 376.416 411.839L372.408 411.263C368.952 410.751 367.224 409.327 367.224 406.991V406.751C367.224 405.263 367.872 404.103 369.168 403.271C370.48 402.439 372.312 402.023 374.664 402.023C377.16 402.023 379.064 402.471 380.376 403.367C381.688 404.263 382.344 405.559 382.344 407.255V407.471H378.792V407.255C378.792 405.847 377.416 405.143 374.664 405.143C373.432 405.143 372.488 405.271 371.832 405.527C371.192 405.783 370.872 406.159 370.872 406.655V406.847C370.872 407.215 371.048 407.503 371.4 407.711C371.768 407.919 372.392 408.087 373.272 408.215L377.304 408.791C379.144 409.063 380.496 409.559 381.36 410.279C382.24 410.983 382.68 411.967 382.68 413.231V413.471C382.68 415.007 382 416.207 380.64 417.071C379.28 417.919 377.36 418.343 374.88 418.343Z" fill="#3C525E"/>
<path d="M84.8844 462.724C86.457 462.724 87.7318 461.449 87.7318 459.877C87.7318 458.304 86.457 457.03 84.8844 457.03C83.3119 457.03 82.0371 458.304 82.0371 459.877C82.0371 461.449 83.3119 462.724 84.8844 462.724Z" fill="#A9DCE9" stroke="white" stroke-width="2"/>
</g>
<defs>
<filter id="filter0_i_3002_50805" x="0" y="0" width="1240" height="600" filterUnits="userSpaceOnUse" color-interpolation-filters="sRGB">
<feFlood flood-opacity="0" result="BackgroundImageFix"/>
<feBlend mode="normal" in="SourceGraphic" in2="BackgroundImageFix" result="shape"/>
<feColorMatrix in="SourceAlpha" type="matrix" values="0 0 0 0 0 0 0 0 0 0 0 0 0 0 0 0 0 0 127 0" result="hardAlpha"/>
<feOffset/>
<feGaussianBlur stdDeviation="6"/>
<feComposite in2="hardAlpha" operator="arithmetic" k2="-1" k3="1"/>
<feColorMatrix type="matrix" values="0 0 0 0 0 0 0 0 0 0 0 0 0 0 0 0 0 0 0.08 0"/>
<feBlend mode="normal" in2="shape" result="effect1_innerShadow_3002_50805"/>
</filter>
<pattern id="pattern0_3002_50805" patternContentUnits="objectBoundingBox" width="1" height="1">
<use xlink:href="#image0_3002_50805" transform="scale(0.000260417 0.000462963)"/>
</pattern>
<filter id="filter1_d_3002_50805" x="238.76" y="345.447" width="26.4541" height="26.4536" filterUnits="userSpaceOnUse" color-interpolation-filters="sRGB">
<feFlood flood-opacity="0" result="BackgroundImageFix"/>
<feColorMatrix in="SourceAlpha" type="matrix" values="0 0 0 0 0 0 0 0 0 0 0 0 0 0 0 0 0 0 127 0" result="hardAlpha"/>
<feOffset dy="2"/>
<feGaussianBlur stdDeviation="3"/>
<feComposite in2="hardAlpha" operator="out"/>
<feColorMatrix type="matrix" values="0 0 0 0 0 0 0 0 0 0 0 0 0 0 0 0 0 0 0.12 0"/>
<feBlend mode="normal" in2="BackgroundImageFix" result="effect1_dropShadow_3002_50805"/>
<feBlend mode="normal" in="SourceGraphic" in2="effect1_dropShadow_3002_50805" result="shape"/>
</filter>
<filter id="filter2_d_3002_50805" x="224.093" y="314.939" width="26.4541" height="26.4536" filterUnits="userSpaceOnUse" color-interpolation-filters="sRGB">
<feFlood flood-opacity="0" result="BackgroundImageFix"/>
<feColorMatrix in="SourceAlpha" type="matrix" values="0 0 0 0 0 0 0 0 0 0 0 0 0 0 0 0 0 0 127 0" result="hardAlpha"/>
<feOffset dy="2"/>
<feGaussianBlur stdDeviation="3"/>
<feComposite in2="hardAlpha" operator="out"/>
<feColorMatrix type="matrix" values="0 0 0 0 0 0 0 0 0 0 0 0 0 0 0 0 0 0 0.12 0"/>
<feBlend mode="normal" in2="BackgroundImageFix" result="effect1_dropShadow_3002_50805"/>
<feBlend mode="normal" in="SourceGraphic" in2="effect1_dropShadow_3002_50805" result="shape"/>
</filter>
<filter id="filter3_d_3002_50805" x="599.581" y="390.036" width="26.4541" height="26.4536" filterUnits="userSpaceOnUse" color-interpolation-filters="sRGB">
<feFlood flood-opacity="0" result="BackgroundImageFix"/>
<feColorMatrix in="SourceAlpha" type="matrix" values="0 0 0 0 0 0 0 0 0 0 0 0 0 0 0 0 0 0 127 0" result="hardAlpha"/>
<feOffset dy="2"/>
<feGaussianBlur stdDeviation="3"/>
<feComposite in2="hardAlpha" operator="out"/>
<feColorMatrix type="matrix" values="0 0 0 0 0 0 0 0 0 0 0 0 0 0 0 0 0 0 0.12 0"/>
<feBlend mode="normal" in2="BackgroundImageFix" result="effect1_dropShadow_3002_50805"/>
<feBlend mode="normal" in="SourceGraphic" in2="effect1_dropShadow_3002_50805" result="shape"/>
</filter>
<filter id="filter4_d_3002_50805" x="231.721" y="355.421" width="26.4541" height="26.4536" filterUnits="userSpaceOnUse" color-interpolation-filters="sRGB">
<feFlood flood-opacity="0" result="BackgroundImageFix"/>
<feColorMatrix in="SourceAlpha" type="matrix" values="0 0 0 0 0 0 0 0 0 0 0 0 0 0 0 0 0 0 127 0" result="hardAlpha"/>
<feOffset dy="2"/>
<feGaussianBlur stdDeviation="3"/>
<feComposite in2="hardAlpha" operator="out"/>
<feColorMatrix type="matrix" values="0 0 0 0 0 0 0 0 0 0 0 0 0 0 0 0 0 0 0.12 0"/>
<feBlend mode="normal" in2="BackgroundImageFix" result="effect1_dropShadow_3002_50805"/>
<feBlend mode="normal" in="SourceGraphic" in2="effect1_dropShadow_3002_50805" result="shape"/>
</filter>
<filter id="filter5_d_3002_50805" x="237.001" y="365.395" width="26.4541" height="26.4536" filterUnits="userSpaceOnUse" color-interpolation-filters="sRGB">
<feFlood flood-opacity="0" result="BackgroundImageFix"/>
<feColorMatrix in="SourceAlpha" type="matrix" values="0 0 0 0 0 0 0 0 0 0 0 0 0 0 0 0 0 0 127 0" result="hardAlpha"/>
<feOffset dy="2"/>
<feGaussianBlur stdDeviation="3"/>
<feComposite in2="hardAlpha" operator="out"/>
<feColorMatrix type="matrix" values="0 0 0 0 0 0 0 0 0 0 0 0 0 0 0 0 0 0 0.12 0"/>
<feBlend mode="normal" in2="BackgroundImageFix" result="effect1_dropShadow_3002_50805"/>
<feBlend mode="normal" in="SourceGraphic" in2="effect1_dropShadow_3002_50805" result="shape"/>
</filter>
<filter id="filter6_d_3002_50805" x="585.499" y="406.464" width="26.4541" height="26.4536" filterUnits="userSpaceOnUse" color-interpolation-filters="sRGB">
<feFlood flood-opacity="0" result="BackgroundImageFix"/>
<feColorMatrix in="SourceAlpha" type="matrix" values="0 0 0 0 0 0 0 0 0 0 0 0 0 0 0 0 0 0 127 0" result="hardAlpha"/>
<feOffset dy="2"/>
<feGaussianBlur stdDeviation="3"/>
<feComposite in2="hardAlpha" operator="out"/>
<feColorMatrix type="matrix" values="0 0 0 0 0 0 0 0 0 0 0 0 0 0 0 0 0 0 0.12 0"/>
<feBlend mode="normal" in2="BackgroundImageFix" result="effect1_dropShadow_3002_50805"/>
<feBlend mode="normal" in="SourceGraphic" in2="effect1_dropShadow_3002_50805" result="shape"/>
</filter>
<linearGradient id="paint0_linear_3002_50805" x1="1026.43" y1="210.586" x2="434.056" y2="889.788" gradientUnits="userSpaceOnUse">
<stop offset="0" stop-color="#28A7B8" stop-opacity="0.21"/>
<stop offset="0.19" stop-color="#31C5DA" stop-opacity="0.26"/>
<stop offset="1" stop-color="#68A7C2"/>
</linearGradient>
<linearGradient id="paint1_linear_3002_50805" x1="1001.2" y1="120.528" x2="581.57" y2="994.973" gradientUnits="userSpaceOnUse">
<stop offset="0" stop-color="#28A7B8"/>
<stop offset="0.19" stop-color="#42DABE"/>
<stop offset="1" stop-color="#93C6B1"/>
</linearGradient>
<linearGradient id="paint2_linear_3002_50805" x1="365.807" y1="354.327" x2="504.994" y2="543.35" gradientUnits="userSpaceOnUse">
<stop offset="0" stop-color="#28A7B8"/>
<stop offset="1" stop-color="#93C6B1" stop-opacity="0"/>
</linearGradient>
<linearGradient id="paint3_linear_3002_50805" x1="1107.39" y1="108.5" x2="959.198" y2="410.834" gradientUnits="userSpaceOnUse">
<stop offset="0" stop-color="#28A7B8"/>
<stop offset="1" stop-color="#5DD5DC" stop-opacity="0"/>
</linearGradient>
<linearGradient id="paint4_linear_3002_50805" x1="863.327" y1="395.102" x2="932.449" y2="631.295" gradientUnits="userSpaceOnUse">
<stop offset="0" stop-color="#5654CF"/>
<stop offset="1" stop-color="#5168B8" stop-opacity="0"/>
</linearGradient>
<clipPath id="clip0_3002_50805">
<rect width="1240" height="600" fill="white"/>
</clipPath>
</defs>
</svg>
