<svg width="1919" height="431" viewBox="0 0 1919 431" fill="none" xmlns="http://www.w3.org/2000/svg">
<path opacity="0.86" d="M940.564 186.964H654.397" stroke="url(#paint0_linear_6001_40306)" stroke-width="13.7142"/>
<path opacity="0.86" d="M945.835 87.1499H892.098C863.007 87.1499 837.082 105.506 827.42 132.945L824.15 142.23C814.487 169.669 788.563 188.025 759.472 188.025H611.648" stroke="url(#paint1_linear_6001_40306)" stroke-width="14.3999"/>
<path opacity="0.85" d="M943.883 287.839H915.532C895.573 287.839 877.696 275.488 870.636 256.818L856.352 219.047C849.292 200.378 831.415 188.026 811.455 188.026H718.424" stroke="url(#paint2_linear_6001_40306)" stroke-width="9.59993"/>
<path opacity="0.17" d="M1918.5 5H989.417C960.767 5 935.138 22.8112 925.149 49.6627L891.045 141.337C881.056 168.189 855.427 186 826.777 186H560" stroke="url(#paint3_linear_6001_40306)" stroke-width="9.59993"/>
<path opacity="0.17" d="M1917.5 428H874.119C843.38 428 816.397 407.544 808.096 377.947L772.589 251.35C764.288 221.753 737.305 201.296 706.566 201.296H0" stroke="url(#paint4_linear_6001_40306)" stroke-width="5.48567"/>
<path d="M943.884 385.53L895.193 385.53C864.494 385.53 837.537 365.127 829.199 335.582L801.955 239.037C793.618 209.493 766.66 189.089 735.961 189.089H0" stroke="url(#paint5_linear_6001_40306)" stroke-width="20.5713"/>
<path d="M971.292 170.12V173H969.84V164.6H973.236C974.592 164.6 975.564 164.924 976.056 165.488C976.536 166.052 976.728 166.628 976.728 167.36C976.728 168.728 975.84 170.12 973.224 170.12H971.292ZM973.284 165.956H971.292V168.764H973.2C974.544 168.764 975.216 168.296 975.216 167.348C975.216 166.424 974.568 165.956 973.284 165.956ZM978.63 173H977.262V166.76H978.63V167.18C978.786 166.856 979.29 166.628 979.758 166.628C980.298 166.628 980.706 166.808 980.994 167.18L980.214 168.176C980.094 167.996 979.89 167.9 979.59 167.9C979.146 167.9 978.774 168.212 978.63 168.776V173ZM980.897 169.868C980.897 168.92 981.209 168.14 981.833 167.528C982.445 166.916 983.249 166.616 984.233 166.616C985.217 166.616 986.021 166.916 986.645 167.528C987.269 168.14 987.581 168.92 987.581 169.868C987.581 170.804 987.269 171.572 986.645 172.184C986.021 172.796 985.217 173.108 984.233 173.108C983.261 173.108 982.469 172.796 981.845 172.184C981.209 171.572 980.897 170.804 980.897 169.868ZM982.313 169.868C982.313 170.432 982.493 170.9 982.853 171.272C983.201 171.644 983.669 171.836 984.233 171.836C985.385 171.836 986.165 171.056 986.165 169.868C986.165 169.28 985.985 168.8 985.613 168.428C985.241 168.068 984.785 167.888 984.233 167.888C983.117 167.888 982.313 168.668 982.313 169.868ZM992.558 166.76H994.01L991.238 173H990.23L987.326 166.76H988.874L990.758 170.924L992.558 166.76ZM995.781 173H994.413V166.76H995.781V173ZM994.293 164.972C994.293 164.552 994.653 164.252 995.097 164.252C995.541 164.252 995.889 164.576 995.889 164.972C995.889 165.404 995.541 165.716 995.097 165.716C994.617 165.716 994.293 165.404 994.293 164.972ZM1002.89 173H1001.52V172.316C1001.24 172.7 1000.6 173.096 999.768 173.096C998.868 173.096 998.136 172.808 997.584 172.244C997.032 171.68 996.756 170.888 996.756 169.892C996.756 168.944 997.056 168.152 997.668 167.54C998.268 166.928 999 166.616 999.864 166.616C1000.61 166.616 1001.16 166.772 1001.52 167.084V164.24H1002.89V173ZM1000.02 171.824C1000.69 171.824 1001.29 171.368 1001.52 170.852V168.572C1001.2 168.116 1000.73 167.888 1000.09 167.888C999 167.888 998.172 168.656 998.172 169.868C998.172 171.068 998.916 171.824 1000.02 171.824ZM1005.53 173H1004.16V166.76H1005.53V173ZM1004.04 164.972C1004.04 164.552 1004.4 164.252 1004.84 164.252C1005.29 164.252 1005.63 164.576 1005.63 164.972C1005.63 165.404 1005.29 165.716 1004.84 165.716C1004.36 165.716 1004.04 165.404 1004.04 164.972ZM1008.16 173H1006.79V166.76H1008.16V167.324C1008.62 166.856 1009.27 166.628 1010.08 166.628C1011.74 166.628 1012.58 167.576 1012.58 169.472V173H1011.22V169.58C1011.22 168.392 1010.74 167.9 1009.68 167.9C1009.01 167.9 1008.43 168.296 1008.16 168.956V173ZM1018.13 166.76H1019.5V172.496C1019.5 174.512 1018.4 175.508 1016.62 175.508C1015.21 175.508 1014.16 174.908 1013.78 173.9L1014.97 173.384C1015.22 173.864 1015.75 174.236 1016.51 174.236C1017.59 174.236 1018.13 173.744 1018.13 172.748V172.472C1017.85 172.892 1017.3 173.108 1016.47 173.108C1015.55 173.108 1014.82 172.82 1014.25 172.244C1013.69 171.68 1013.41 170.888 1013.41 169.868C1013.41 168.896 1013.71 168.116 1014.31 167.528C1014.9 166.94 1015.63 166.652 1016.48 166.652C1017.22 166.652 1017.77 166.82 1018.13 167.168V166.76ZM1016.7 171.836C1017.38 171.836 1017.94 171.416 1018.13 170.888V168.584C1017.84 168.14 1017.36 167.924 1016.69 167.924C1015.63 167.924 1014.83 168.644 1014.83 169.892C1014.83 171.128 1015.54 171.836 1016.7 171.836ZM1023.07 169.868C1023.07 168.92 1023.39 168.14 1024.01 167.528C1024.62 166.916 1025.43 166.616 1026.41 166.616C1027.39 166.616 1028.2 166.916 1028.82 167.528C1029.45 168.14 1029.76 168.92 1029.76 169.868C1029.76 170.804 1029.45 171.572 1028.82 172.184C1028.2 172.796 1027.39 173.108 1026.41 173.108C1025.44 173.108 1024.65 172.796 1024.02 172.184C1023.39 171.572 1023.07 170.804 1023.07 169.868ZM1024.49 169.868C1024.49 170.432 1024.67 170.9 1025.03 171.272C1025.38 171.644 1025.85 171.836 1026.41 171.836C1027.56 171.836 1028.34 171.056 1028.34 169.868C1028.34 169.28 1028.16 168.8 1027.79 168.428C1027.42 168.068 1026.96 167.888 1026.41 167.888C1025.29 167.888 1024.49 168.668 1024.49 169.868ZM1031.99 175.4H1030.62V166.76H1031.99V167.324C1032.36 166.856 1033.05 166.616 1033.72 166.616C1034.64 166.616 1035.39 166.904 1035.93 167.492C1036.47 168.08 1036.74 168.836 1036.74 169.772C1036.74 170.744 1036.46 171.536 1035.88 172.16C1035.3 172.796 1034.55 173.108 1033.62 173.108C1032.82 173.108 1032.27 172.94 1031.99 172.592V175.4ZM1033.58 167.888C1032.82 167.888 1032.27 168.32 1031.99 168.908V171.068C1032.29 171.584 1032.78 171.836 1033.47 171.836C1034.58 171.836 1035.33 171.044 1035.33 169.88C1035.33 168.632 1034.67 167.888 1033.58 167.888ZM1038.97 175.4H1037.61V166.76H1038.97V167.324C1039.35 166.856 1040.03 166.616 1040.7 166.616C1041.63 166.616 1042.37 166.904 1042.91 167.492C1043.45 168.08 1043.73 168.836 1043.73 169.772C1043.73 170.744 1043.44 171.536 1042.86 172.16C1042.29 172.796 1041.53 173.108 1040.61 173.108C1039.8 173.108 1039.25 172.94 1038.97 172.592V175.4ZM1040.56 167.888C1039.8 167.888 1039.25 168.32 1038.97 168.908V171.068C1039.27 171.584 1039.77 171.836 1040.45 171.836C1041.57 171.836 1042.31 171.044 1042.31 169.88C1042.31 168.632 1041.65 167.888 1040.56 167.888ZM1044.3 169.868C1044.3 168.92 1044.61 168.14 1045.24 167.528C1045.85 166.916 1046.65 166.616 1047.64 166.616C1048.62 166.616 1049.42 166.916 1050.05 167.528C1050.67 168.14 1050.98 168.92 1050.98 169.868C1050.98 170.804 1050.67 171.572 1050.05 172.184C1049.42 172.796 1048.62 173.108 1047.64 173.108C1046.66 173.108 1045.87 172.796 1045.25 172.184C1044.61 171.572 1044.3 170.804 1044.3 169.868ZM1045.72 169.868C1045.72 170.432 1045.9 170.9 1046.26 171.272C1046.6 171.644 1047.07 171.836 1047.64 171.836C1048.79 171.836 1049.57 171.056 1049.57 169.868C1049.57 169.28 1049.39 168.8 1049.02 168.428C1048.64 168.068 1048.19 167.888 1047.64 167.888C1046.52 167.888 1045.72 168.668 1045.72 169.868ZM1053.22 173H1051.85V166.76H1053.22V167.18C1053.37 166.856 1053.88 166.628 1054.35 166.628C1054.89 166.628 1055.29 166.808 1055.58 167.18L1054.8 168.176C1054.68 167.996 1054.48 167.9 1054.18 167.9C1053.73 167.9 1053.36 168.212 1053.22 168.776V173ZM1056.57 168.032H1055.49V166.76H1056.57V165.476H1057.94V166.76L1059.95 166.76V168.032H1057.94V170.444C1057.94 171.44 1058.17 171.8 1058.74 171.8C1059.07 171.8 1059.35 171.62 1059.63 171.272L1060.45 172.04C1060.1 172.652 1059.37 173.072 1058.54 173.072C1057.33 173.072 1056.57 172.28 1056.57 170.828V168.032ZM1065.22 166.724H1066.59V173H1065.22V172.34C1064.77 172.856 1064.19 173.108 1063.48 173.108C1061.74 173.108 1060.89 172.22 1060.89 170.312V166.724H1062.26V170.18C1062.26 171.284 1062.71 171.836 1063.61 171.836C1064.32 171.836 1064.86 171.476 1065.22 170.756V166.724ZM1069.11 173H1067.74V166.76H1069.11V167.324C1069.58 166.856 1070.23 166.628 1071.03 166.628C1072.7 166.628 1073.54 167.576 1073.54 169.472V173H1072.17V169.58C1072.17 168.392 1071.69 167.9 1070.64 167.9C1069.96 167.9 1069.39 168.296 1069.11 168.956V173ZM1076.14 173H1074.78V166.76H1076.14V173ZM1074.66 164.972C1074.66 164.552 1075.02 164.252 1075.46 164.252C1075.9 164.252 1076.25 164.576 1076.25 164.972C1076.25 165.404 1075.9 165.716 1075.46 165.716C1074.98 165.716 1074.66 165.404 1074.66 164.972ZM1077.89 168.032H1076.81V166.76H1077.89V165.476H1079.25V166.76H1081.27V168.032H1079.25V170.444C1079.25 171.44 1079.48 171.8 1080.06 171.8C1080.38 171.8 1080.67 171.62 1080.95 171.272L1081.76 172.04C1081.41 172.652 1080.68 173.072 1079.85 173.072C1078.64 173.072 1077.89 172.28 1077.89 170.828V168.032ZM1083.73 173H1082.36V166.76H1083.73V173ZM1082.24 164.972C1082.24 164.552 1082.6 164.252 1083.05 164.252C1083.49 164.252 1083.84 164.576 1083.84 164.972C1083.84 165.404 1083.49 165.716 1083.05 165.716C1082.57 165.716 1082.24 165.404 1082.24 164.972ZM1089.75 171.008L1090.59 171.836C1089.95 172.688 1089.11 173.108 1088.05 173.108C1087.05 173.108 1086.24 172.808 1085.63 172.22C1085.02 171.632 1084.71 170.852 1084.71 169.868C1084.71 168.92 1084.99 168.14 1085.56 167.528C1086.12 166.916 1086.9 166.616 1087.91 166.616C1088.76 166.616 1089.46 166.88 1090.01 167.396C1090.56 167.924 1090.84 168.62 1090.84 169.472C1090.84 169.676 1090.81 169.976 1090.77 170.348H1086.13C1086.24 171.308 1087.01 171.836 1088.08 171.836C1088.79 171.836 1089.34 171.56 1089.75 171.008ZM1087.85 167.852C1086.94 167.852 1086.33 168.344 1086.15 169.16H1089.42C1089.31 168.308 1088.75 167.852 1087.85 167.852ZM1095.34 171.224C1095.34 170.708 1093.97 170.504 1092.91 170.108C1092.16 169.832 1091.56 169.256 1091.56 168.476C1091.56 167.324 1092.53 166.616 1094.13 166.616C1095.2 166.616 1096.22 167.108 1096.65 167.72L1095.71 168.608C1095.29 168.128 1094.69 167.888 1093.9 167.888C1093.29 167.888 1092.98 168.08 1092.98 168.452C1092.98 169.304 1096.76 169.028 1096.76 171.212C1096.76 171.836 1096.52 172.304 1096.03 172.628C1095.53 172.952 1094.92 173.108 1094.19 173.108C1092.85 173.108 1091.77 172.484 1091.3 171.608L1092.38 170.864C1092.73 171.428 1093.52 171.836 1094.32 171.836C1094.9 171.836 1095.34 171.644 1095.34 171.224ZM1100.66 168.032H1099.66V166.76H1100.66V166.556C1100.66 164.888 1101.6 164.144 1102.85 164.144C1103.52 164.144 1104.13 164.432 1104.46 164.876L1103.69 165.74C1103.51 165.524 1103.26 165.416 1102.92 165.416C1102.33 165.416 1102.03 165.812 1102.03 166.592V166.76H1103.78V168.032H1102.03V173H1100.66V168.032ZM1103.79 169.868C1103.79 168.92 1104.1 168.14 1104.72 167.528C1105.33 166.916 1106.14 166.616 1107.12 166.616C1108.11 166.616 1108.91 166.916 1109.53 167.528C1110.16 168.14 1110.47 168.92 1110.47 169.868C1110.47 170.804 1110.16 171.572 1109.53 172.184C1108.91 172.796 1108.11 173.108 1107.12 173.108C1106.15 173.108 1105.36 172.796 1104.73 172.184C1104.1 171.572 1103.79 170.804 1103.79 169.868ZM1105.2 169.868C1105.2 170.432 1105.38 170.9 1105.74 171.272C1106.09 171.644 1106.56 171.836 1107.12 171.836C1108.27 171.836 1109.05 171.056 1109.05 169.868C1109.05 169.28 1108.87 168.8 1108.5 168.428C1108.13 168.068 1107.67 167.888 1107.12 167.888C1106.01 167.888 1105.2 168.668 1105.2 169.868ZM1112.7 173H1111.34V166.76H1112.7V167.18C1112.86 166.856 1113.36 166.628 1113.83 166.628C1114.37 166.628 1114.78 166.808 1115.07 167.18L1114.29 168.176C1114.17 167.996 1113.96 167.9 1113.66 167.9C1113.22 167.9 1112.85 168.212 1112.7 168.776V173ZM970.116 182.032H969.036V180.76H970.116V179.476H971.484V180.76H973.5V182.032H971.484V184.444C971.484 185.44 971.712 185.8 972.288 185.8C972.612 185.8 972.9 185.62 973.176 185.272L973.992 186.04C973.644 186.652 972.912 187.072 972.084 187.072C970.872 187.072 970.116 186.28 970.116 184.828V182.032ZM975.841 187H974.473V180.76H975.841V181.18C975.997 180.856 976.501 180.628 976.969 180.628C977.509 180.628 977.917 180.808 978.205 181.18L977.425 182.176C977.305 181.996 977.101 181.9 976.801 181.9C976.357 181.9 975.985 182.212 975.841 182.776V187ZM979.384 182.548L978.712 181.54C979.3 180.964 980.308 180.616 981.328 180.616C982.96 180.616 983.884 181.552 983.884 183.184V187H982.516V186.316C982.06 186.82 981.412 187.072 980.584 187.072C979.204 187.072 978.316 186.304 978.316 185.104C978.316 183.772 979.468 183.124 981.232 183.124C981.748 183.124 982.18 183.184 982.516 183.292C982.528 182.344 982.144 181.888 981.172 181.888C980.56 181.888 979.96 182.104 979.384 182.548ZM980.884 185.884C981.592 185.884 982.144 185.596 982.516 185.032V184.432C982.18 184.324 981.796 184.264 981.376 184.264C980.284 184.264 979.732 184.54 979.732 185.092C979.732 185.584 980.176 185.884 980.884 185.884ZM986.491 187H985.123V180.76H986.491V187ZM985.003 178.972C985.003 178.552 985.363 178.252 985.807 178.252C986.251 178.252 986.599 178.576 986.599 178.972C986.599 179.404 986.251 179.716 985.807 179.716C985.327 179.716 985.003 179.404 985.003 178.972ZM989.122 187H987.754V180.76H989.122V181.324C989.59 180.856 990.238 180.628 991.042 180.628C992.71 180.628 993.55 181.576 993.55 183.472V187H992.182V183.58C992.182 182.392 991.702 181.9 990.646 181.9C989.974 181.9 989.398 182.296 989.122 182.956V187ZM996.153 187H994.785V180.76H996.153V187ZM994.665 178.972C994.665 178.552 995.025 178.252 995.469 178.252C995.913 178.252 996.261 178.576 996.261 178.972C996.261 179.404 995.913 179.716 995.469 179.716C994.989 179.716 994.665 179.404 994.665 178.972ZM998.784 187H997.416V180.76H998.784V181.324C999.252 180.856 999.9 180.628 1000.7 180.628C1002.37 180.628 1003.21 181.576 1003.21 183.472V187H1001.84V183.58C1001.84 182.392 1001.36 181.9 1000.31 181.9C999.636 181.9 999.06 182.296 998.784 182.956V187ZM1008.76 180.76H1010.12V186.496C1010.12 188.512 1009.03 189.508 1007.24 189.508C1005.84 189.508 1004.78 188.908 1004.41 187.9L1005.6 187.384C1005.85 187.864 1006.38 188.236 1007.14 188.236C1008.22 188.236 1008.76 187.744 1008.76 186.748V186.472C1008.48 186.892 1007.93 187.108 1007.1 187.108C1006.18 187.108 1005.44 186.82 1004.88 186.244C1004.32 185.68 1004.04 184.888 1004.04 183.868C1004.04 182.896 1004.34 182.116 1004.94 181.528C1005.53 180.94 1006.26 180.652 1007.11 180.652C1007.84 180.652 1008.4 180.82 1008.76 181.168V180.76ZM1007.33 185.836C1008.01 185.836 1008.56 185.416 1008.76 184.888V182.584C1008.47 182.14 1007.99 181.924 1007.32 181.924C1006.26 181.924 1005.46 182.644 1005.46 183.892C1005.46 185.128 1006.16 185.836 1007.33 185.836ZM1012.07 187C1011.54 187.06 1011.19 186.592 1011.19 186.172C1011.19 185.68 1011.56 185.248 1012.15 185.248C1012.86 185.248 1013.15 185.836 1013.15 186.568C1013.15 187.096 1012.95 187.564 1012.58 187.96C1012.21 188.356 1011.79 188.608 1011.32 188.704L1010.99 187.912C1011.19 187.876 1011.42 187.756 1011.67 187.564C1011.91 187.36 1012.04 187.18 1012.07 187ZM1021.11 184.948L1022.08 185.572C1021.59 186.544 1020.52 187.108 1019.4 187.108C1018.39 187.108 1017.58 186.808 1016.97 186.22C1016.35 185.632 1016.04 184.84 1016.04 183.868C1016.04 182.932 1016.34 182.152 1016.95 181.54C1017.57 180.928 1018.36 180.616 1019.33 180.616C1020.58 180.616 1021.59 181.18 1022.01 182.032L1020.99 182.704C1020.58 182.164 1020.05 181.888 1019.39 181.888C1018.25 181.888 1017.46 182.704 1017.46 183.868C1017.46 184.432 1017.65 184.9 1018.03 185.272C1018.41 185.644 1018.91 185.836 1019.53 185.836C1020.19 185.836 1020.71 185.536 1021.11 184.948ZM1023.34 182.548L1022.67 181.54C1023.26 180.964 1024.26 180.616 1025.28 180.616C1026.92 180.616 1027.84 181.552 1027.84 183.184V187H1026.47V186.316C1026.02 186.82 1025.37 187.072 1024.54 187.072C1023.16 187.072 1022.27 186.304 1022.27 185.104C1022.27 183.772 1023.42 183.124 1025.19 183.124C1025.7 183.124 1026.14 183.184 1026.47 183.292C1026.48 182.344 1026.1 181.888 1025.13 181.888C1024.52 181.888 1023.92 182.104 1023.34 182.548ZM1024.84 185.884C1025.55 185.884 1026.1 185.596 1026.47 185.032V184.432C1026.14 184.324 1025.75 184.264 1025.33 184.264C1024.24 184.264 1023.69 184.54 1023.69 185.092C1023.69 185.584 1024.13 185.884 1024.84 185.884ZM1030.33 187H1028.96V180.76H1030.33V181.18C1030.48 180.856 1030.99 180.628 1031.45 180.628C1031.99 180.628 1032.4 180.808 1032.69 181.18L1031.91 182.176C1031.79 181.996 1031.59 181.9 1031.29 181.9C1030.84 181.9 1030.47 182.212 1030.33 182.776V187ZM1037.63 185.008L1038.47 185.836C1037.84 186.688 1037 187.108 1035.94 187.108C1034.93 187.108 1034.13 186.808 1033.52 186.22C1032.9 185.632 1032.59 184.852 1032.59 183.868C1032.59 182.92 1032.88 182.14 1033.44 181.528C1034.01 180.916 1034.79 180.616 1035.8 180.616C1036.65 180.616 1037.34 180.88 1037.9 181.396C1038.45 181.924 1038.72 182.62 1038.72 183.472C1038.72 183.676 1038.7 183.976 1038.65 184.348H1034.02C1034.13 185.308 1034.9 185.836 1035.96 185.836C1036.67 185.836 1037.22 185.56 1037.63 185.008ZM1035.74 181.852C1034.82 181.852 1034.21 182.344 1034.03 183.16H1037.31C1037.2 182.308 1036.64 181.852 1035.74 181.852ZM1044.23 185.008L1045.07 185.836C1044.43 186.688 1043.59 187.108 1042.54 187.108C1041.53 187.108 1040.72 186.808 1040.11 186.22C1039.5 185.632 1039.19 184.852 1039.19 183.868C1039.19 182.92 1039.48 182.14 1040.04 181.528C1040.6 180.916 1041.38 180.616 1042.39 180.616C1043.24 180.616 1043.94 180.88 1044.49 181.396C1045.04 181.924 1045.32 182.62 1045.32 183.472C1045.32 183.676 1045.3 183.976 1045.25 184.348H1040.62C1040.72 185.308 1041.49 185.836 1042.56 185.836C1043.27 185.836 1043.82 185.56 1044.23 185.008ZM1042.33 181.852C1041.42 181.852 1040.81 182.344 1040.63 183.16H1043.9C1043.8 182.308 1043.23 181.852 1042.33 181.852ZM1047.56 187H1046.19V180.76H1047.56V181.18C1047.71 180.856 1048.22 180.628 1048.68 180.628C1049.22 180.628 1049.63 180.808 1049.92 181.18L1049.14 182.176C1049.02 181.996 1048.82 181.9 1048.52 181.9C1048.07 181.9 1047.7 182.212 1047.56 182.776V187ZM975.48 201H974.112V200.316C973.836 200.7 973.188 201.096 972.36 201.096C971.46 201.096 970.728 200.808 970.176 200.244C969.624 199.68 969.348 198.888 969.348 197.892C969.348 196.944 969.648 196.152 970.26 195.54C970.86 194.928 971.592 194.616 972.456 194.616C973.2 194.616 973.752 194.772 974.112 195.084V192.24H975.48V201ZM972.612 199.824C973.284 199.824 973.884 199.368 974.112 198.852V196.572C973.788 196.116 973.32 195.888 972.684 195.888C971.592 195.888 970.764 196.656 970.764 197.868C970.764 199.068 971.508 199.824 972.612 199.824ZM981.381 199.008L982.221 199.836C981.585 200.688 980.745 201.108 979.689 201.108C978.681 201.108 977.877 200.808 977.265 200.22C976.653 199.632 976.341 198.852 976.341 197.868C976.341 196.92 976.629 196.14 977.193 195.528C977.757 194.916 978.537 194.616 979.545 194.616C980.397 194.616 981.093 194.88 981.645 195.396C982.197 195.924 982.473 196.62 982.473 197.472C982.473 197.676 982.449 197.976 982.401 198.348H977.769C977.877 199.308 978.645 199.836 979.713 199.836C980.421 199.836 980.973 199.56 981.381 199.008ZM979.485 195.852C978.573 195.852 977.961 196.344 977.781 197.16H981.057C980.949 196.308 980.385 195.852 979.485 195.852ZM987.487 194.76H988.939L986.167 201H985.159L982.255 194.76H983.803L985.687 198.924L987.487 194.76ZM993.715 199.008L994.556 199.836C993.919 200.688 993.079 201.108 992.023 201.108C991.015 201.108 990.211 200.808 989.599 200.22C988.987 199.632 988.675 198.852 988.675 197.868C988.675 196.92 988.963 196.14 989.527 195.528C990.091 194.916 990.871 194.616 991.879 194.616C992.731 194.616 993.427 194.88 993.979 195.396C994.531 195.924 994.807 196.62 994.807 197.472C994.807 197.676 994.783 197.976 994.735 198.348H990.103C990.211 199.308 990.979 199.836 992.047 199.836C992.755 199.836 993.307 199.56 993.715 199.008ZM991.819 195.852C990.907 195.852 990.295 196.344 990.115 197.16H993.391C993.283 196.308 992.719 195.852 991.819 195.852ZM997.044 201H995.676V192.24H997.044V201ZM997.904 197.868C997.904 196.92 998.216 196.14 998.84 195.528C999.452 194.916 1000.26 194.616 1001.24 194.616C1002.22 194.616 1003.03 194.916 1003.65 195.528C1004.28 196.14 1004.59 196.92 1004.59 197.868C1004.59 198.804 1004.28 199.572 1003.65 200.184C1003.03 200.796 1002.22 201.108 1001.24 201.108C1000.27 201.108 999.476 200.796 998.852 200.184C998.216 199.572 997.904 198.804 997.904 197.868ZM999.32 197.868C999.32 198.432 999.5 198.9 999.86 199.272C1000.21 199.644 1000.68 199.836 1001.24 199.836C1002.39 199.836 1003.17 199.056 1003.17 197.868C1003.17 197.28 1002.99 196.8 1002.62 196.428C1002.25 196.068 1001.79 195.888 1001.24 195.888C1000.12 195.888 999.32 196.668 999.32 197.868ZM1006.82 203.4H1005.46V194.76H1006.82V195.324C1007.2 194.856 1007.88 194.616 1008.55 194.616C1009.48 194.616 1010.22 194.904 1010.76 195.492C1011.3 196.08 1011.58 196.836 1011.58 197.772C1011.58 198.744 1011.29 199.536 1010.71 200.16C1010.14 200.796 1009.38 201.108 1008.46 201.108C1007.65 201.108 1007.1 200.94 1006.82 200.592V203.4ZM1008.41 195.888C1007.65 195.888 1007.1 196.32 1006.82 196.908V199.068C1007.12 199.584 1007.62 199.836 1008.3 199.836C1009.42 199.836 1010.16 199.044 1010.16 197.88C1010.16 196.632 1009.5 195.888 1008.41 195.888ZM1021.41 196.86V201H1020.04V197.244C1020.04 196.344 1019.7 195.9 1019 195.9C1018.36 195.9 1017.9 196.224 1017.61 196.86V201H1016.24V196.944C1016.24 196.32 1015.86 195.9 1015.22 195.9C1014.55 195.9 1014.03 196.38 1013.8 196.92V201H1012.44V194.76H1013.8V195.3C1014.13 194.856 1014.69 194.628 1015.51 194.628C1016.29 194.628 1016.85 194.88 1017.2 195.396C1017.63 194.88 1018.26 194.628 1019.08 194.628C1020.56 194.628 1021.41 195.372 1021.41 196.86ZM1027.28 199.008L1028.12 199.836C1027.48 200.688 1026.64 201.108 1025.58 201.108C1024.58 201.108 1023.77 200.808 1023.16 200.22C1022.55 199.632 1022.24 198.852 1022.24 197.868C1022.24 196.92 1022.52 196.14 1023.09 195.528C1023.65 194.916 1024.43 194.616 1025.44 194.616C1026.29 194.616 1026.99 194.88 1027.54 195.396C1028.09 195.924 1028.37 196.62 1028.37 197.472C1028.37 197.676 1028.34 197.976 1028.3 198.348H1023.66C1023.77 199.308 1024.54 199.836 1025.61 199.836C1026.32 199.836 1026.87 199.56 1027.28 199.008ZM1025.38 195.852C1024.47 195.852 1023.86 196.344 1023.68 197.16H1026.95C1026.84 196.308 1026.28 195.852 1025.38 195.852ZM1030.6 201H1029.24V194.76H1030.6V195.324C1031.07 194.856 1031.72 194.628 1032.52 194.628C1034.19 194.628 1035.03 195.576 1035.03 197.472V201H1033.66V197.58C1033.66 196.392 1033.18 195.9 1032.13 195.9C1031.46 195.9 1030.88 196.296 1030.6 196.956V201ZM1036.63 196.032H1035.55V194.76H1036.63V193.476H1037.99V194.76H1040.01V196.032H1037.99V198.444C1037.99 199.44 1038.22 199.8 1038.8 199.8C1039.12 199.8 1039.41 199.62 1039.69 199.272L1040.5 200.04C1040.15 200.652 1039.42 201.072 1038.59 201.072C1037.38 201.072 1036.63 200.28 1036.63 198.828V196.032ZM1044.37 196.548L1043.7 195.54C1044.29 194.964 1045.3 194.616 1046.32 194.616C1047.95 194.616 1048.87 195.552 1048.87 197.184V201H1047.5V200.316C1047.05 200.82 1046.4 201.072 1045.57 201.072C1044.19 201.072 1043.3 200.304 1043.3 199.104C1043.3 197.772 1044.46 197.124 1046.22 197.124C1046.74 197.124 1047.17 197.184 1047.5 197.292C1047.52 196.344 1047.13 195.888 1046.16 195.888C1045.55 195.888 1044.95 196.104 1044.37 196.548ZM1045.87 199.884C1046.58 199.884 1047.13 199.596 1047.5 199.032V198.432C1047.17 198.324 1046.78 198.264 1046.36 198.264C1045.27 198.264 1044.72 198.54 1044.72 199.092C1044.72 199.584 1045.16 199.884 1045.87 199.884ZM1051.36 201H1049.99V194.76H1051.36V195.324C1051.83 194.856 1052.47 194.628 1053.28 194.628C1054.95 194.628 1055.79 195.576 1055.79 197.472V201H1054.42V197.58C1054.42 196.392 1053.94 195.9 1052.88 195.9C1052.21 195.9 1051.63 196.296 1051.36 196.956V201ZM1062.75 201H1061.38V200.316C1061.1 200.7 1060.45 201.096 1059.63 201.096C1058.73 201.096 1057.99 200.808 1057.44 200.244C1056.89 199.68 1056.61 198.888 1056.61 197.892C1056.61 196.944 1056.91 196.152 1057.53 195.54C1058.13 194.928 1058.86 194.616 1059.72 194.616C1060.47 194.616 1061.02 194.772 1061.38 195.084V192.24H1062.75V201ZM1059.88 199.824C1060.55 199.824 1061.15 199.368 1061.38 198.852V196.572C1061.05 196.116 1060.59 195.888 1059.95 195.888C1058.86 195.888 1058.03 196.656 1058.03 197.868C1058.03 199.068 1058.77 199.824 1059.88 199.824ZM1067.98 201H1066.61V194.76H1067.98V195.18C1068.13 194.856 1068.64 194.628 1069.11 194.628C1069.65 194.628 1070.05 194.808 1070.34 195.18L1069.56 196.176C1069.44 195.996 1069.24 195.9 1068.94 195.9C1068.49 195.9 1068.12 196.212 1067.98 196.776V201ZM1070.25 197.868C1070.25 196.92 1070.56 196.14 1071.18 195.528C1071.79 194.916 1072.6 194.616 1073.58 194.616C1074.57 194.616 1075.37 194.916 1075.99 195.528C1076.62 196.14 1076.93 196.92 1076.93 197.868C1076.93 198.804 1076.62 199.572 1075.99 200.184C1075.37 200.796 1074.57 201.108 1073.58 201.108C1072.61 201.108 1071.82 200.796 1071.19 200.184C1070.56 199.572 1070.25 198.804 1070.25 197.868ZM1071.66 197.868C1071.66 198.432 1071.84 198.9 1072.2 199.272C1072.55 199.644 1073.02 199.836 1073.58 199.836C1074.73 199.836 1075.51 199.056 1075.51 197.868C1075.51 197.28 1075.33 196.8 1074.96 196.428C1074.59 196.068 1074.13 195.888 1073.58 195.888C1072.47 195.888 1071.66 196.668 1071.66 197.868ZM1078.28 196.032H1077.2V194.76H1078.28V193.476H1079.64V194.76H1081.66V196.032H1079.64V198.444C1079.64 199.44 1079.87 199.8 1080.45 199.8C1080.77 199.8 1081.06 199.62 1081.34 199.272L1082.15 200.04C1081.8 200.652 1081.07 201.072 1080.24 201.072C1079.03 201.072 1078.28 200.28 1078.28 198.828V196.032ZM1083.31 196.548L1082.63 195.54C1083.22 194.964 1084.23 194.616 1085.25 194.616C1086.88 194.616 1087.81 195.552 1087.81 197.184V201H1086.44V200.316C1085.98 200.82 1085.33 201.072 1084.51 201.072C1083.13 201.072 1082.24 200.304 1082.24 199.104C1082.24 197.772 1083.39 197.124 1085.15 197.124C1085.67 197.124 1086.1 197.184 1086.44 197.292C1086.45 196.344 1086.07 195.888 1085.09 195.888C1084.48 195.888 1083.88 196.104 1083.31 196.548ZM1084.81 199.884C1085.51 199.884 1086.07 199.596 1086.44 199.032V198.432C1086.1 198.324 1085.72 198.264 1085.3 198.264C1084.21 198.264 1083.65 198.54 1083.65 199.092C1083.65 199.584 1084.1 199.884 1084.81 199.884ZM1089.4 196.032H1088.32V194.76H1089.4V193.476H1090.77V194.76H1092.79V196.032H1090.77V198.444C1090.77 199.44 1091 199.8 1091.58 199.8C1091.9 199.8 1092.19 199.62 1092.46 199.272L1093.28 200.04C1092.93 200.652 1092.2 201.072 1091.37 201.072C1090.16 201.072 1089.4 200.28 1089.4 198.828V196.032ZM1095.25 201H1093.88V194.76H1095.25V201ZM1093.76 192.972C1093.76 192.552 1094.12 192.252 1094.56 192.252C1095.01 192.252 1095.36 192.576 1095.36 192.972C1095.36 193.404 1095.01 193.716 1094.56 193.716C1094.08 193.716 1093.76 193.404 1093.76 192.972ZM1096.22 197.868C1096.22 196.92 1096.54 196.14 1097.16 195.528C1097.77 194.916 1098.58 194.616 1099.56 194.616C1100.54 194.616 1101.35 194.916 1101.97 195.528C1102.6 196.14 1102.91 196.92 1102.91 197.868C1102.91 198.804 1102.6 199.572 1101.97 200.184C1101.35 200.796 1100.54 201.108 1099.56 201.108C1098.59 201.108 1097.8 200.796 1097.17 200.184C1096.54 199.572 1096.22 198.804 1096.22 197.868ZM1097.64 197.868C1097.64 198.432 1097.82 198.9 1098.18 199.272C1098.53 199.644 1099 199.836 1099.56 199.836C1100.71 199.836 1101.49 199.056 1101.49 197.868C1101.49 197.28 1101.31 196.8 1100.94 196.428C1100.57 196.068 1100.11 195.888 1099.56 195.888C1098.44 195.888 1097.64 196.668 1097.64 197.868ZM1105.14 201H1103.77V194.76H1105.14V195.324C1105.61 194.856 1106.26 194.628 1107.06 194.628C1108.73 194.628 1109.57 195.576 1109.57 197.472V201H1108.2V197.58C1108.2 196.392 1107.72 195.9 1106.67 195.9C1105.99 195.9 1105.42 196.296 1105.14 196.956V201Z" fill="#3C525E"/>
<path d="M969.396 272.8C969.396 271.588 969.816 270.568 970.644 269.74C971.472 268.912 972.48 268.504 973.692 268.504C974.904 268.504 975.924 268.912 976.752 269.728C977.58 270.544 977.988 271.564 977.988 272.8C977.988 274.024 977.568 275.044 976.74 275.86C975.912 276.688 974.892 277.096 973.692 277.096C972.492 277.096 971.472 276.688 970.644 275.872C969.816 275.056 969.396 274.036 969.396 272.8ZM970.908 272.8C970.908 273.652 971.184 274.348 971.724 274.888C972.264 275.428 972.924 275.704 973.692 275.704C974.484 275.704 975.144 275.428 975.684 274.888C976.212 274.348 976.476 273.652 976.476 272.8C976.476 271.948 976.2 271.252 975.66 270.712C975.108 270.172 974.448 269.896 973.692 269.896C972.924 269.896 972.264 270.16 971.724 270.7C971.184 271.24 970.908 271.948 970.908 272.8ZM980.271 277H978.903V270.76H980.271V271.18C980.427 270.856 980.931 270.628 981.399 270.628C981.939 270.628 982.347 270.808 982.635 271.18L981.855 272.176C981.735 271.996 981.531 271.9 981.231 271.9C980.787 271.9 980.415 272.212 980.271 272.776V277ZM987.254 270.76H988.622V276.496C988.622 278.512 987.53 279.508 985.742 279.508C984.338 279.508 983.282 278.908 982.91 277.9L984.098 277.384C984.35 277.864 984.878 278.236 985.634 278.236C986.714 278.236 987.254 277.744 987.254 276.748V276.472C986.978 276.892 986.426 277.108 985.598 277.108C984.674 277.108 983.942 276.82 983.378 276.244C982.814 275.68 982.538 274.888 982.538 273.868C982.538 272.896 982.838 272.116 983.438 271.528C984.026 270.94 984.758 270.652 985.61 270.652C986.342 270.652 986.894 270.82 987.254 271.168V270.76ZM985.826 275.836C986.51 275.836 987.062 275.416 987.254 274.888V272.584C986.966 272.14 986.486 271.924 985.814 271.924C984.758 271.924 983.954 272.644 983.954 273.892C983.954 275.128 984.662 275.836 985.826 275.836ZM990.444 272.548L989.772 271.54C990.36 270.964 991.368 270.616 992.388 270.616C994.02 270.616 994.944 271.552 994.944 273.184V277H993.576V276.316C993.12 276.82 992.472 277.072 991.644 277.072C990.264 277.072 989.376 276.304 989.376 275.104C989.376 273.772 990.528 273.124 992.292 273.124C992.808 273.124 993.24 273.184 993.576 273.292C993.588 272.344 993.204 271.888 992.232 271.888C991.62 271.888 991.02 272.104 990.444 272.548ZM991.944 275.884C992.652 275.884 993.204 275.596 993.576 275.032V274.432C993.24 274.324 992.856 274.264 992.436 274.264C991.344 274.264 990.792 274.54 990.792 275.092C990.792 275.584 991.236 275.884 991.944 275.884ZM997.43 277H996.062V270.76H997.43V271.324C997.898 270.856 998.546 270.628 999.35 270.628C1001.02 270.628 1001.86 271.576 1001.86 273.472V277H1000.49V273.58C1000.49 272.392 1000.01 271.9 998.954 271.9C998.282 271.9 997.706 272.296 997.43 272.956V277ZM1004.46 277H1003.09V270.76H1004.46V277ZM1002.97 268.972C1002.97 268.552 1003.33 268.252 1003.78 268.252C1004.22 268.252 1004.57 268.576 1004.57 268.972C1004.57 269.404 1004.22 269.716 1003.78 269.716C1003.3 269.716 1002.97 269.404 1002.97 268.972ZM1008.83 272.032H1005.52V270.76H1010.9V271.636L1007.39 275.728H1010.84V277H1005.33V276.112L1008.83 272.032ZM1013.14 277H1011.77V270.76H1013.14V277ZM1011.65 268.972C1011.65 268.552 1012.01 268.252 1012.46 268.252C1012.9 268.252 1013.25 268.576 1013.25 268.972C1013.25 269.404 1012.9 269.716 1012.46 269.716C1011.98 269.716 1011.65 269.404 1011.65 268.972ZM1015.77 277H1014.4V270.76H1015.77V271.324C1016.24 270.856 1016.89 270.628 1017.69 270.628C1019.36 270.628 1020.2 271.576 1020.2 273.472V277H1018.83V273.58C1018.83 272.392 1018.35 271.9 1017.29 271.9C1016.62 271.9 1016.05 272.296 1015.77 272.956V277ZM1025.74 270.76H1027.11V276.496C1027.11 278.512 1026.02 279.508 1024.23 279.508C1022.83 279.508 1021.77 278.908 1021.4 277.9L1022.59 277.384C1022.84 277.864 1023.37 278.236 1024.12 278.236C1025.2 278.236 1025.74 277.744 1025.74 276.748V276.472C1025.47 276.892 1024.91 277.108 1024.09 277.108C1023.16 277.108 1022.43 276.82 1021.87 276.244C1021.3 275.68 1021.03 274.888 1021.03 273.868C1021.03 272.896 1021.33 272.116 1021.93 271.528C1022.51 270.94 1023.25 270.652 1024.1 270.652C1024.83 270.652 1025.38 270.82 1025.74 271.168V270.76ZM1024.31 275.836C1025 275.836 1025.55 275.416 1025.74 274.888V272.584C1025.45 272.14 1024.97 271.924 1024.3 271.924C1023.25 271.924 1022.44 272.644 1022.44 273.892C1022.44 275.128 1023.15 275.836 1024.31 275.836ZM1032.34 279.4H1030.98V270.76H1032.34V271.324C1032.72 270.856 1033.4 270.616 1034.07 270.616C1035 270.616 1035.74 270.904 1036.28 271.492C1036.82 272.08 1037.1 272.836 1037.1 273.772C1037.1 274.744 1036.81 275.536 1036.23 276.16C1035.66 276.796 1034.9 277.108 1033.98 277.108C1033.17 277.108 1032.62 276.94 1032.34 276.592V279.4ZM1033.93 271.888C1033.17 271.888 1032.62 272.32 1032.34 272.908V275.068C1032.64 275.584 1033.14 275.836 1033.82 275.836C1034.94 275.836 1035.68 275.044 1035.68 273.88C1035.68 272.632 1035.02 271.888 1033.93 271.888ZM1038.63 272.548L1037.96 271.54C1038.55 270.964 1039.55 270.616 1040.57 270.616C1042.21 270.616 1043.13 271.552 1043.13 273.184V277H1041.76V276.316C1041.31 276.82 1040.66 277.072 1039.83 277.072C1038.45 277.072 1037.56 276.304 1037.56 275.104C1037.56 273.772 1038.71 273.124 1040.48 273.124C1040.99 273.124 1041.43 273.184 1041.76 273.292C1041.77 272.344 1041.39 271.888 1040.42 271.888C1039.81 271.888 1039.21 272.104 1038.63 272.548ZM1040.13 275.884C1040.84 275.884 1041.39 275.596 1041.76 275.032V274.432C1041.43 274.324 1041.04 274.264 1040.62 274.264C1039.53 274.264 1038.98 274.54 1038.98 275.092C1038.98 275.584 1039.42 275.884 1040.13 275.884ZM1045.62 277H1044.25V270.76H1045.62V271.18C1045.77 270.856 1046.28 270.628 1046.74 270.628C1047.28 270.628 1047.69 270.808 1047.98 271.18L1047.2 272.176C1047.08 271.996 1046.88 271.9 1046.58 271.9C1046.13 271.9 1045.76 272.212 1045.62 272.776V277ZM1048.97 272.032H1047.89V270.76H1048.97V269.476H1050.34V270.76H1052.35V272.032H1050.34V274.444C1050.34 275.44 1050.56 275.8 1051.14 275.8C1051.46 275.8 1051.75 275.62 1052.03 275.272L1052.84 276.04C1052.5 276.652 1051.76 277.072 1050.94 277.072C1049.72 277.072 1048.97 276.28 1048.97 274.828V272.032ZM1054.81 277H1053.44V270.76H1054.81V277ZM1053.32 268.972C1053.32 268.552 1053.68 268.252 1054.13 268.252C1054.57 268.252 1054.92 268.576 1054.92 268.972C1054.92 269.404 1054.57 269.716 1054.13 269.716C1053.65 269.716 1053.32 269.404 1053.32 268.972ZM1060.85 274.948L1061.82 275.572C1061.33 276.544 1060.26 277.108 1059.15 277.108C1058.14 277.108 1057.32 276.808 1056.71 276.22C1056.1 275.632 1055.79 274.84 1055.79 273.868C1055.79 272.932 1056.09 272.152 1056.7 271.54C1057.31 270.928 1058.1 270.616 1059.08 270.616C1060.32 270.616 1061.33 271.18 1061.75 272.032L1060.73 272.704C1060.32 272.164 1059.8 271.888 1059.14 271.888C1058 271.888 1057.2 272.704 1057.2 273.868C1057.2 274.432 1057.4 274.9 1057.78 275.272C1058.15 275.644 1058.66 275.836 1059.28 275.836C1059.94 275.836 1060.46 275.536 1060.85 274.948ZM1063.9 277H1062.53V270.76H1063.9V277ZM1062.41 268.972C1062.41 268.552 1062.77 268.252 1063.22 268.252C1063.66 268.252 1064.01 268.576 1064.01 268.972C1064.01 269.404 1063.66 269.716 1063.22 269.716C1062.74 269.716 1062.41 269.404 1062.41 268.972ZM1066.53 279.4H1065.16V270.76H1066.53V271.324C1066.9 270.856 1067.59 270.616 1068.26 270.616C1069.18 270.616 1069.93 270.904 1070.47 271.492C1071.01 272.08 1071.28 272.836 1071.28 273.772C1071.28 274.744 1071 275.536 1070.42 276.16C1069.84 276.796 1069.09 277.108 1068.16 277.108C1067.36 277.108 1066.81 276.94 1066.53 276.592V279.4ZM1068.12 271.888C1067.36 271.888 1066.81 272.32 1066.53 272.908V275.068C1066.83 275.584 1067.32 275.836 1068.01 275.836C1069.12 275.836 1069.87 275.044 1069.87 273.88C1069.87 272.632 1069.21 271.888 1068.12 271.888ZM1072.82 272.548L1072.15 271.54C1072.73 270.964 1073.74 270.616 1074.76 270.616C1076.39 270.616 1077.32 271.552 1077.32 273.184V277H1075.95V276.316C1075.49 276.82 1074.85 277.072 1074.02 277.072C1072.64 277.072 1071.75 276.304 1071.75 275.104C1071.75 273.772 1072.9 273.124 1074.67 273.124C1075.18 273.124 1075.61 273.184 1075.95 273.292C1075.96 272.344 1075.58 271.888 1074.61 271.888C1073.99 271.888 1073.39 272.104 1072.82 272.548ZM1074.32 275.884C1075.03 275.884 1075.58 275.596 1075.95 275.032V274.432C1075.61 274.324 1075.23 274.264 1074.81 274.264C1073.72 274.264 1073.17 274.54 1073.17 275.092C1073.17 275.584 1073.61 275.884 1074.32 275.884ZM1078.92 272.032H1077.84V270.76H1078.92V269.476H1080.28V270.76H1082.3V272.032H1080.28V274.444C1080.28 275.44 1080.51 275.8 1081.09 275.8C1081.41 275.8 1081.7 275.62 1081.98 275.272L1082.79 276.04C1082.44 276.652 1081.71 277.072 1080.88 277.072C1079.67 277.072 1078.92 276.28 1078.92 274.828V272.032ZM1084.76 277H1083.39V270.76H1084.76V277ZM1083.27 268.972C1083.27 268.552 1083.63 268.252 1084.08 268.252C1084.52 268.252 1084.87 268.576 1084.87 268.972C1084.87 269.404 1084.52 269.716 1084.08 269.716C1083.6 269.716 1083.27 269.404 1083.27 268.972ZM1085.74 273.868C1085.74 272.92 1086.05 272.14 1086.67 271.528C1087.28 270.916 1088.09 270.616 1089.07 270.616C1090.06 270.616 1090.86 270.916 1091.48 271.528C1092.11 272.14 1092.42 272.92 1092.42 273.868C1092.42 274.804 1092.11 275.572 1091.48 276.184C1090.86 276.796 1090.06 277.108 1089.07 277.108C1088.1 277.108 1087.31 276.796 1086.68 276.184C1086.05 275.572 1085.74 274.804 1085.74 273.868ZM1087.15 273.868C1087.15 274.432 1087.33 274.9 1087.69 275.272C1088.04 275.644 1088.51 275.836 1089.07 275.836C1090.22 275.836 1091 275.056 1091 273.868C1091 273.28 1090.82 272.8 1090.45 272.428C1090.08 272.068 1089.62 271.888 1089.07 271.888C1087.96 271.888 1087.15 272.668 1087.15 273.868ZM1094.65 277H1093.29V270.76H1094.65V271.324C1095.12 270.856 1095.77 270.628 1096.57 270.628C1098.24 270.628 1099.08 271.576 1099.08 273.472V277H1097.71V273.58C1097.71 272.392 1097.23 271.9 1096.18 271.9C1095.51 271.9 1094.93 272.296 1094.65 272.956V277ZM1104.4 277H1103.03V270.76H1104.4V277ZM1102.91 268.972C1102.91 268.552 1103.27 268.252 1103.72 268.252C1104.16 268.252 1104.51 268.576 1104.51 268.972C1104.51 269.404 1104.16 269.716 1103.72 269.716C1103.24 269.716 1102.91 269.404 1102.91 268.972ZM1107.03 277H1105.66V270.76H1107.03V271.324C1107.5 270.856 1108.15 270.628 1108.95 270.628C1110.62 270.628 1111.46 271.576 1111.46 273.472V277H1110.09V273.58C1110.09 272.392 1109.61 271.9 1108.56 271.9C1107.88 271.9 1107.31 272.296 1107.03 272.956V277ZM974.412 288.948L975.384 289.572C974.892 290.544 973.824 291.108 972.708 291.108C971.7 291.108 970.884 290.808 970.272 290.22C969.66 289.632 969.348 288.84 969.348 287.868C969.348 286.932 969.648 286.152 970.26 285.54C970.872 284.928 971.664 284.616 972.636 284.616C973.884 284.616 974.892 285.18 975.312 286.032L974.292 286.704C973.884 286.164 973.356 285.888 972.696 285.888C971.556 285.888 970.764 286.704 970.764 287.868C970.764 288.432 970.956 288.9 971.34 289.272C971.712 289.644 972.216 289.836 972.84 289.836C973.5 289.836 974.016 289.536 974.412 288.948ZM977.341 291H975.973V284.76H977.341V285.18C977.497 284.856 978.001 284.628 978.469 284.628C979.009 284.628 979.417 284.808 979.705 285.18L978.925 286.176C978.805 285.996 978.601 285.9 978.301 285.9C977.857 285.9 977.485 286.212 977.341 286.776V291ZM979.608 287.868C979.608 286.92 979.92 286.14 980.544 285.528C981.156 284.916 981.96 284.616 982.944 284.616C983.928 284.616 984.732 284.916 985.356 285.528C985.98 286.14 986.292 286.92 986.292 287.868C986.292 288.804 985.98 289.572 985.356 290.184C984.732 290.796 983.928 291.108 982.944 291.108C981.972 291.108 981.18 290.796 980.556 290.184C979.92 289.572 979.608 288.804 979.608 287.868ZM981.024 287.868C981.024 288.432 981.204 288.9 981.564 289.272C981.912 289.644 982.38 289.836 982.944 289.836C984.096 289.836 984.876 289.056 984.876 287.868C984.876 287.28 984.696 286.8 984.324 286.428C983.952 286.068 983.496 285.888 982.944 285.888C981.828 285.888 981.024 286.668 981.024 287.868ZM990.795 289.224C990.795 288.708 989.427 288.504 988.359 288.108C987.615 287.832 987.015 287.256 987.015 286.476C987.015 285.324 987.987 284.616 989.583 284.616C990.651 284.616 991.671 285.108 992.103 285.72L991.167 286.608C990.747 286.128 990.147 285.888 989.355 285.888C988.743 285.888 988.431 286.08 988.431 286.452C988.431 287.304 992.211 287.028 992.211 289.212C992.211 289.836 991.971 290.304 991.479 290.628C990.987 290.952 990.375 291.108 989.643 291.108C988.299 291.108 987.219 290.484 986.751 289.608L987.831 288.864C988.179 289.428 988.971 289.836 989.775 289.836C990.351 289.836 990.795 289.644 990.795 289.224ZM996.628 289.224C996.628 288.708 995.26 288.504 994.192 288.108C993.448 287.832 992.848 287.256 992.848 286.476C992.848 285.324 993.82 284.616 995.416 284.616C996.484 284.616 997.504 285.108 997.936 285.72L997 286.608C996.58 286.128 995.98 285.888 995.188 285.888C994.576 285.888 994.264 286.08 994.264 286.452C994.264 287.304 998.044 287.028 998.044 289.212C998.044 289.836 997.804 290.304 997.312 290.628C996.82 290.952 996.208 291.108 995.476 291.108C994.132 291.108 993.052 290.484 992.584 289.608L993.664 288.864C994.012 289.428 994.804 289.836 995.608 289.836C996.184 289.836 996.628 289.644 996.628 289.224ZM1002.35 288.276H999.017V287.064H1002.35V288.276ZM1004.11 286.032H1003.1V284.76H1004.11V284.556C1004.11 282.888 1005.04 282.144 1006.29 282.144C1006.96 282.144 1007.57 282.432 1007.9 282.876L1007.13 283.74C1006.95 283.524 1006.7 283.416 1006.36 283.416C1005.77 283.416 1005.47 283.812 1005.47 284.592V284.76H1007.23V286.032H1005.47V291H1004.11V286.032ZM1011.99 284.724H1013.35V291H1011.99V290.34C1011.53 290.856 1010.95 291.108 1010.25 291.108C1008.51 291.108 1007.65 290.22 1007.65 288.312V284.724H1009.02V288.18C1009.02 289.284 1009.48 289.836 1010.38 289.836C1011.09 289.836 1011.63 289.476 1011.99 288.756V284.724ZM1015.88 291H1014.51V284.76H1015.88V285.324C1016.34 284.856 1016.99 284.628 1017.8 284.628C1019.46 284.628 1020.3 285.576 1020.3 287.472V291H1018.94V287.58C1018.94 286.392 1018.46 285.9 1017.4 285.9C1016.73 285.9 1016.15 286.296 1015.88 286.956V291ZM1026.2 288.948L1027.17 289.572C1026.68 290.544 1025.61 291.108 1024.49 291.108C1023.48 291.108 1022.67 290.808 1022.06 290.22C1021.44 289.632 1021.13 288.84 1021.13 287.868C1021.13 286.932 1021.43 286.152 1022.04 285.54C1022.66 284.928 1023.45 284.616 1024.42 284.616C1025.67 284.616 1026.68 285.18 1027.1 286.032L1026.08 286.704C1025.67 286.164 1025.14 285.888 1024.48 285.888C1023.34 285.888 1022.55 286.704 1022.55 287.868C1022.55 288.432 1022.74 288.9 1023.12 289.272C1023.5 289.644 1024 289.836 1024.62 289.836C1025.28 289.836 1025.8 289.536 1026.2 288.948ZM1028.24 286.032H1027.16V284.76H1028.24V283.476H1029.6V284.76H1031.62V286.032H1029.6V288.444C1029.6 289.44 1029.83 289.8 1030.41 289.8C1030.73 289.8 1031.02 289.62 1031.3 289.272L1032.11 290.04C1031.76 290.652 1031.03 291.072 1030.2 291.072C1028.99 291.072 1028.24 290.28 1028.24 288.828V286.032ZM1034.08 291H1032.71V284.76H1034.08V291ZM1032.59 282.972C1032.59 282.552 1032.95 282.252 1033.4 282.252C1033.84 282.252 1034.19 282.576 1034.19 282.972C1034.19 283.404 1033.84 283.716 1033.4 283.716C1032.92 283.716 1032.59 283.404 1032.59 282.972ZM1035.06 287.868C1035.06 286.92 1035.37 286.14 1035.99 285.528C1036.6 284.916 1037.41 284.616 1038.39 284.616C1039.38 284.616 1040.18 284.916 1040.8 285.528C1041.43 286.14 1041.74 286.92 1041.74 287.868C1041.74 288.804 1041.43 289.572 1040.8 290.184C1040.18 290.796 1039.38 291.108 1038.39 291.108C1037.42 291.108 1036.63 290.796 1036 290.184C1035.37 289.572 1035.06 288.804 1035.06 287.868ZM1036.47 287.868C1036.47 288.432 1036.65 288.9 1037.01 289.272C1037.36 289.644 1037.83 289.836 1038.39 289.836C1039.54 289.836 1040.32 289.056 1040.32 287.868C1040.32 287.28 1040.14 286.8 1039.77 286.428C1039.4 286.068 1038.94 285.888 1038.39 285.888C1037.28 285.888 1036.47 286.668 1036.47 287.868ZM1043.98 291H1042.61V284.76H1043.98V285.324C1044.44 284.856 1045.09 284.628 1045.9 284.628C1047.56 284.628 1048.4 285.576 1048.4 287.472V291H1047.04V287.58C1047.04 286.392 1046.56 285.9 1045.5 285.9C1044.83 285.9 1044.25 286.296 1043.98 286.956V291ZM1050.19 286.548L1049.52 285.54C1050.11 284.964 1051.11 284.616 1052.13 284.616C1053.77 284.616 1054.69 285.552 1054.69 287.184V291H1053.32V290.316C1052.87 290.82 1052.22 291.072 1051.39 291.072C1050.01 291.072 1049.12 290.304 1049.12 289.104C1049.12 287.772 1050.27 287.124 1052.04 287.124C1052.55 287.124 1052.99 287.184 1053.32 287.292C1053.33 286.344 1052.95 285.888 1051.98 285.888C1051.37 285.888 1050.77 286.104 1050.19 286.548ZM1051.69 289.884C1052.4 289.884 1052.95 289.596 1053.32 289.032V288.432C1052.99 288.324 1052.6 288.264 1052.18 288.264C1051.09 288.264 1050.54 288.54 1050.54 289.092C1050.54 289.584 1050.98 289.884 1051.69 289.884ZM1057.18 291H1055.81V282.24H1057.18V291ZM971.124 305H969.756V298.76H971.124V305ZM969.636 296.972C969.636 296.552 969.996 296.252 970.44 296.252C970.884 296.252 971.232 296.576 971.232 296.972C971.232 297.404 970.884 297.716 970.44 297.716C969.96 297.716 969.636 297.404 969.636 296.972ZM973.755 305H972.387V298.76H973.755V299.324C974.223 298.856 974.871 298.628 975.675 298.628C977.343 298.628 978.183 299.576 978.183 301.472V305H976.815V301.58C976.815 300.392 976.335 299.9 975.279 299.9C974.607 299.9 974.031 300.296 973.755 300.956V305ZM979.778 300.032H978.698V298.76H979.778V297.476H981.146V298.76H983.162V300.032H981.146V302.444C981.146 303.44 981.374 303.8 981.95 303.8C982.274 303.8 982.562 303.62 982.838 303.272L983.654 304.04C983.306 304.652 982.574 305.072 981.746 305.072C980.534 305.072 979.778 304.28 979.778 302.828V300.032ZM988.63 303.008L989.47 303.836C988.834 304.688 987.994 305.108 986.938 305.108C985.93 305.108 985.126 304.808 984.514 304.22C983.902 303.632 983.59 302.852 983.59 301.868C983.59 300.92 983.878 300.14 984.442 299.528C985.006 298.916 985.786 298.616 986.794 298.616C987.646 298.616 988.342 298.88 988.894 299.396C989.446 299.924 989.722 300.62 989.722 301.472C989.722 301.676 989.698 301.976 989.65 302.348H985.018C985.126 303.308 985.894 303.836 986.962 303.836C987.67 303.836 988.222 303.56 988.63 303.008ZM986.734 299.852C985.822 299.852 985.21 300.344 985.03 301.16H988.306C988.198 300.308 987.634 299.852 986.734 299.852ZM991.958 305H990.59V298.76H991.958V299.18C992.114 298.856 992.618 298.628 993.086 298.628C993.626 298.628 994.034 298.808 994.322 299.18L993.542 300.176C993.422 299.996 993.218 299.9 992.918 299.9C992.474 299.9 992.102 300.212 991.958 300.776V305ZM996.197 305H994.829V298.76H996.197V299.324C996.665 298.856 997.313 298.628 998.117 298.628C999.785 298.628 1000.62 299.576 1000.62 301.472V305H999.257V301.58C999.257 300.392 998.777 299.9 997.721 299.9C997.049 299.9 996.473 300.296 996.197 300.956V305ZM1005.38 303.224C1005.38 302.708 1004.01 302.504 1002.94 302.108C1002.2 301.832 1001.6 301.256 1001.6 300.476C1001.6 299.324 1002.57 298.616 1004.16 298.616C1005.23 298.616 1006.25 299.108 1006.68 299.72L1005.75 300.608C1005.33 300.128 1004.73 299.888 1003.94 299.888C1003.32 299.888 1003.01 300.08 1003.01 300.452C1003.01 301.304 1006.79 301.028 1006.79 303.212C1006.79 303.836 1006.55 304.304 1006.06 304.628C1005.57 304.952 1004.96 305.108 1004.22 305.108C1002.88 305.108 1001.8 304.484 1001.33 303.608L1002.41 302.864C1002.76 303.428 1003.55 303.836 1004.36 303.836C1004.93 303.836 1005.38 303.644 1005.38 303.224ZM1008.94 305H1007.57V296.24H1008.94V299.3C1009.39 298.856 1010 298.628 1010.75 298.628C1012.48 298.628 1013.35 299.576 1013.35 301.484V305H1011.98V301.568C1011.98 300.404 1011.51 299.9 1010.47 299.9C1009.81 299.9 1009.24 300.296 1008.94 300.932V305ZM1015.95 305H1014.58V298.76H1015.95V305ZM1014.46 296.972C1014.46 296.552 1014.82 296.252 1015.27 296.252C1015.71 296.252 1016.06 296.576 1016.06 296.972C1016.06 297.404 1015.71 297.716 1015.27 297.716C1014.79 297.716 1014.46 297.404 1014.46 296.972ZM1018.58 307.4H1017.21V298.76H1018.58V299.324C1018.95 298.856 1019.64 298.616 1020.31 298.616C1021.23 298.616 1021.98 298.904 1022.52 299.492C1023.06 300.08 1023.33 300.836 1023.33 301.772C1023.33 302.744 1023.04 303.536 1022.47 304.16C1021.89 304.796 1021.14 305.108 1020.21 305.108C1019.41 305.108 1018.86 304.94 1018.58 304.592V307.4ZM1020.16 299.888C1019.41 299.888 1018.86 300.32 1018.58 300.908V303.068C1018.88 303.584 1019.37 303.836 1020.06 303.836C1021.17 303.836 1021.92 303.044 1021.92 301.88C1021.92 300.632 1021.26 299.888 1020.16 299.888ZM1027.83 303.224C1027.83 302.708 1026.46 302.504 1025.39 302.108C1024.65 301.832 1024.05 301.256 1024.05 300.476C1024.05 299.324 1025.02 298.616 1026.62 298.616C1027.69 298.616 1028.71 299.108 1029.14 299.72L1028.2 300.608C1027.78 300.128 1027.18 299.888 1026.39 299.888C1025.78 299.888 1025.47 300.08 1025.47 300.452C1025.47 301.304 1029.25 301.028 1029.25 303.212C1029.25 303.836 1029.01 304.304 1028.51 304.628C1028.02 304.952 1027.41 305.108 1026.68 305.108C1025.33 305.108 1024.25 304.484 1023.79 303.608L1024.87 302.864C1025.21 303.428 1026.01 303.836 1026.81 303.836C1027.39 303.836 1027.83 303.644 1027.83 303.224Z" fill="#3C525E"/>
<path d="M976.272 380.6L977.124 381.536C976.44 382.508 975.156 383.096 973.716 383.096C972.396 383.096 971.352 382.7 970.572 381.92C969.792 381.14 969.396 380.108 969.396 378.8C969.396 377.576 969.792 376.556 970.584 375.728C971.376 374.912 972.408 374.504 973.692 374.504C975.168 374.504 976.404 375.092 976.992 375.956L976.032 376.868C975.444 376.22 974.688 375.896 973.764 375.896C972.9 375.896 972.204 376.16 971.688 376.688C971.172 377.216 970.908 377.924 970.908 378.8C970.908 379.676 971.184 380.372 971.724 380.9C972.264 381.44 972.96 381.704 973.824 381.704C974.844 381.704 975.66 381.332 976.272 380.6ZM977.22 379.868C977.22 378.92 977.532 378.14 978.156 377.528C978.768 376.916 979.572 376.616 980.556 376.616C981.54 376.616 982.344 376.916 982.968 377.528C983.592 378.14 983.904 378.92 983.904 379.868C983.904 380.804 983.592 381.572 982.968 382.184C982.344 382.796 981.54 383.108 980.556 383.108C979.584 383.108 978.792 382.796 978.168 382.184C977.532 381.572 977.22 380.804 977.22 379.868ZM978.636 379.868C978.636 380.432 978.816 380.9 979.176 381.272C979.524 381.644 979.992 381.836 980.556 381.836C981.708 381.836 982.488 381.056 982.488 379.868C982.488 379.28 982.308 378.8 981.936 378.428C981.564 378.068 981.108 377.888 980.556 377.888C979.44 377.888 978.636 378.668 978.636 379.868ZM986.139 383H984.771V376.76H986.139V377.324C986.607 376.856 987.255 376.628 988.059 376.628C989.727 376.628 990.567 377.576 990.567 379.472V383H989.199V379.58C989.199 378.392 988.719 377.9 987.663 377.9C986.991 377.9 986.415 378.296 986.139 378.956V383ZM997.526 383H996.158V382.316C995.882 382.7 995.234 383.096 994.406 383.096C993.506 383.096 992.774 382.808 992.222 382.244C991.67 381.68 991.394 380.888 991.394 379.892C991.394 378.944 991.694 378.152 992.306 377.54C992.906 376.928 993.638 376.616 994.502 376.616C995.246 376.616 995.798 376.772 996.158 377.084V374.24H997.526V383ZM994.658 381.824C995.33 381.824 995.93 381.368 996.158 380.852V378.572C995.834 378.116 995.366 377.888 994.73 377.888C993.638 377.888 992.81 378.656 992.81 379.868C992.81 381.068 993.554 381.824 994.658 381.824ZM1002.97 376.724H1004.34V383H1002.97V382.34C1002.52 382.856 1001.94 383.108 1001.23 383.108C999.492 383.108 998.64 382.22 998.64 380.312V376.724H1000.01V380.18C1000.01 381.284 1000.46 381.836 1001.36 381.836C1002.07 381.836 1002.61 381.476 1002.97 380.756V376.724ZM1010.27 380.948L1011.24 381.572C1010.75 382.544 1009.68 383.108 1008.57 383.108C1007.56 383.108 1006.74 382.808 1006.13 382.22C1005.52 381.632 1005.21 380.84 1005.21 379.868C1005.21 378.932 1005.51 378.152 1006.12 377.54C1006.73 376.928 1007.52 376.616 1008.49 376.616C1009.74 376.616 1010.75 377.18 1011.17 378.032L1010.15 378.704C1009.74 378.164 1009.21 377.888 1008.55 377.888C1007.41 377.888 1006.62 378.704 1006.62 379.868C1006.62 380.432 1006.81 380.9 1007.2 381.272C1007.57 381.644 1008.07 381.836 1008.7 381.836C1009.36 381.836 1009.87 381.536 1010.27 380.948ZM1012.31 378.032H1011.23V376.76H1012.31V375.476H1013.68V376.76H1015.69V378.032H1013.68V380.444C1013.68 381.44 1013.91 381.8 1014.48 381.8C1014.81 381.8 1015.09 381.62 1015.37 381.272L1016.19 382.04C1015.84 382.652 1015.11 383.072 1014.28 383.072C1013.07 383.072 1012.31 382.28 1012.31 380.828V378.032ZM1018.16 383H1016.79V376.76H1018.16V383ZM1016.67 374.972C1016.67 374.552 1017.03 374.252 1017.47 374.252C1017.92 374.252 1018.26 374.576 1018.26 374.972C1018.26 375.404 1017.92 375.716 1017.47 375.716C1016.99 375.716 1016.67 375.404 1016.67 374.972ZM1020.79 383H1019.42V376.76H1020.79V377.324C1021.25 376.856 1021.9 376.628 1022.71 376.628C1024.37 376.628 1025.21 377.576 1025.21 379.472V383H1023.85V379.58C1023.85 378.392 1023.37 377.9 1022.31 377.9C1021.64 377.9 1021.06 378.296 1020.79 378.956V383ZM1030.76 376.76H1032.13V382.496C1032.13 384.512 1031.03 385.508 1029.25 385.508C1027.84 385.508 1026.79 384.908 1026.41 383.9L1027.6 383.384C1027.85 383.864 1028.38 384.236 1029.14 384.236C1030.22 384.236 1030.76 383.744 1030.76 382.748V382.472C1030.48 382.892 1029.93 383.108 1029.1 383.108C1028.18 383.108 1027.45 382.82 1026.88 382.244C1026.32 381.68 1026.04 380.888 1026.04 379.868C1026.04 378.896 1026.34 378.116 1026.94 377.528C1027.53 376.94 1028.26 376.652 1029.11 376.652C1029.85 376.652 1030.4 376.82 1030.76 377.168V376.76ZM1029.33 381.836C1030.01 381.836 1030.57 381.416 1030.76 380.888V378.584C1030.47 378.14 1029.99 377.924 1029.32 377.924C1028.26 377.924 1027.46 378.644 1027.46 379.892C1027.46 381.128 1028.17 381.836 1029.33 381.836ZM1040.77 380.948L1041.74 381.572C1041.25 382.544 1040.18 383.108 1039.06 383.108C1038.06 383.108 1037.24 382.808 1036.63 382.22C1036.02 381.632 1035.7 380.84 1035.7 379.868C1035.7 378.932 1036 378.152 1036.62 377.54C1037.23 376.928 1038.02 376.616 1038.99 376.616C1040.24 376.616 1041.25 377.18 1041.67 378.032L1040.65 378.704C1040.24 378.164 1039.71 377.888 1039.05 377.888C1037.91 377.888 1037.12 378.704 1037.12 379.868C1037.12 380.432 1037.31 380.9 1037.7 381.272C1038.07 381.644 1038.57 381.836 1039.2 381.836C1039.86 381.836 1040.37 381.536 1040.77 380.948ZM1041.7 379.868C1041.7 378.92 1042.01 378.14 1042.64 377.528C1043.25 376.916 1044.05 376.616 1045.04 376.616C1046.02 376.616 1046.82 376.916 1047.45 377.528C1048.07 378.14 1048.38 378.92 1048.38 379.868C1048.38 380.804 1048.07 381.572 1047.45 382.184C1046.82 382.796 1046.02 383.108 1045.04 383.108C1044.06 383.108 1043.27 382.796 1042.65 382.184C1042.01 381.572 1041.7 380.804 1041.7 379.868ZM1043.12 379.868C1043.12 380.432 1043.3 380.9 1043.66 381.272C1044 381.644 1044.47 381.836 1045.04 381.836C1046.19 381.836 1046.97 381.056 1046.97 379.868C1046.97 379.28 1046.79 378.8 1046.42 378.428C1046.04 378.068 1045.59 377.888 1045.04 377.888C1043.92 377.888 1043.12 378.668 1043.12 379.868ZM1050.62 383H1049.25V376.76H1050.62V377.18C1050.78 376.856 1051.28 376.628 1051.75 376.628C1052.29 376.628 1052.7 376.808 1052.98 377.18L1052.2 378.176C1052.08 377.996 1051.88 377.9 1051.58 377.9C1051.14 377.9 1050.76 378.212 1050.62 378.776V383ZM1054.86 385.4H1053.49V376.76H1054.86V377.324C1055.23 376.856 1055.92 376.616 1056.59 376.616C1057.51 376.616 1058.26 376.904 1058.8 377.492C1059.34 378.08 1059.61 378.836 1059.61 379.772C1059.61 380.744 1059.32 381.536 1058.75 382.16C1058.17 382.796 1057.42 383.108 1056.49 383.108C1055.69 383.108 1055.14 382.94 1054.86 382.592V385.4ZM1056.44 377.888C1055.69 377.888 1055.14 378.32 1054.86 378.908V381.068C1055.16 381.584 1055.65 381.836 1056.34 381.836C1057.45 381.836 1058.2 381.044 1058.2 379.88C1058.2 378.632 1057.54 377.888 1056.44 377.888ZM1060.18 379.868C1060.18 378.92 1060.5 378.14 1061.12 377.528C1061.73 376.916 1062.54 376.616 1063.52 376.616C1064.5 376.616 1065.31 376.916 1065.93 377.528C1066.56 378.14 1066.87 378.92 1066.87 379.868C1066.87 380.804 1066.56 381.572 1065.93 382.184C1065.31 382.796 1064.5 383.108 1063.52 383.108C1062.55 383.108 1061.76 382.796 1061.13 382.184C1060.5 381.572 1060.18 380.804 1060.18 379.868ZM1061.6 379.868C1061.6 380.432 1061.78 380.9 1062.14 381.272C1062.49 381.644 1062.96 381.836 1063.52 381.836C1064.67 381.836 1065.45 381.056 1065.45 379.868C1065.45 379.28 1065.27 378.8 1064.9 378.428C1064.53 378.068 1064.07 377.888 1063.52 377.888C1062.4 377.888 1061.6 378.668 1061.6 379.868ZM1069.1 383H1067.74V376.76H1069.1V377.18C1069.26 376.856 1069.76 376.628 1070.23 376.628C1070.77 376.628 1071.18 376.808 1071.47 377.18L1070.69 378.176C1070.57 377.996 1070.36 377.9 1070.06 377.9C1069.62 377.9 1069.25 378.212 1069.1 378.776V383ZM1072.65 378.548L1071.97 377.54C1072.56 376.964 1073.57 376.616 1074.59 376.616C1076.22 376.616 1077.15 377.552 1077.15 379.184V383H1075.78V382.316C1075.32 382.82 1074.67 383.072 1073.85 383.072C1072.47 383.072 1071.58 382.304 1071.58 381.104C1071.58 379.772 1072.73 379.124 1074.49 379.124C1075.01 379.124 1075.44 379.184 1075.78 379.292C1075.79 378.344 1075.41 377.888 1074.43 377.888C1073.82 377.888 1073.22 378.104 1072.65 378.548ZM1074.15 381.884C1074.85 381.884 1075.41 381.596 1075.78 381.032V380.432C1075.44 380.324 1075.06 380.264 1074.64 380.264C1073.55 380.264 1072.99 380.54 1072.99 381.092C1072.99 381.584 1073.44 381.884 1074.15 381.884ZM1078.75 378.032H1077.67V376.76H1078.75V375.476H1080.11V376.76H1082.13V378.032H1080.11V380.444C1080.11 381.44 1080.34 381.8 1080.92 381.8C1081.24 381.8 1081.53 381.62 1081.81 381.272L1082.62 382.04C1082.27 382.652 1081.54 383.072 1080.71 383.072C1079.5 383.072 1078.75 382.28 1078.75 380.828V378.032ZM1087.6 381.008L1088.44 381.836C1087.8 382.688 1086.96 383.108 1085.9 383.108C1084.9 383.108 1084.09 382.808 1083.48 382.22C1082.87 381.632 1082.56 380.852 1082.56 379.868C1082.56 378.92 1082.84 378.14 1083.41 377.528C1083.97 376.916 1084.75 376.616 1085.76 376.616C1086.61 376.616 1087.31 376.88 1087.86 377.396C1088.41 377.924 1088.69 378.62 1088.69 379.472C1088.69 379.676 1088.66 379.976 1088.62 380.348H1083.98C1084.09 381.308 1084.86 381.836 1085.93 381.836C1086.64 381.836 1087.19 381.56 1087.6 381.008ZM1085.7 377.852C1084.79 377.852 1084.18 378.344 1084 379.16H1087.27C1087.16 378.308 1086.6 377.852 1085.7 377.852ZM974.388 395.008L975.228 395.836C974.592 396.688 973.752 397.108 972.696 397.108C971.688 397.108 970.884 396.808 970.272 396.22C969.66 395.632 969.348 394.852 969.348 393.868C969.348 392.92 969.636 392.14 970.2 391.528C970.764 390.916 971.544 390.616 972.552 390.616C973.404 390.616 974.1 390.88 974.652 391.396C975.204 391.924 975.48 392.62 975.48 393.472C975.48 393.676 975.456 393.976 975.408 394.348H970.776C970.884 395.308 971.652 395.836 972.72 395.836C973.428 395.836 973.98 395.56 974.388 395.008ZM972.492 391.852C971.58 391.852 970.968 392.344 970.788 393.16H974.064C973.956 392.308 973.392 391.852 972.492 391.852ZM980.493 390.76H981.945L979.173 397H978.165L975.261 390.76H976.809L978.693 394.924L980.493 390.76ZM986.722 395.008L987.562 395.836C986.926 396.688 986.086 397.108 985.03 397.108C984.022 397.108 983.218 396.808 982.606 396.22C981.994 395.632 981.682 394.852 981.682 393.868C981.682 392.92 981.97 392.14 982.534 391.528C983.098 390.916 983.878 390.616 984.886 390.616C985.738 390.616 986.434 390.88 986.986 391.396C987.538 391.924 987.814 392.62 987.814 393.472C987.814 393.676 987.79 393.976 987.742 394.348H983.11C983.218 395.308 983.986 395.836 985.054 395.836C985.762 395.836 986.314 395.56 986.722 395.008ZM984.826 391.852C983.914 391.852 983.302 392.344 983.122 393.16H986.398C986.29 392.308 985.726 391.852 984.826 391.852ZM990.05 397H988.682V390.76H990.05V391.324C990.518 390.856 991.166 390.628 991.97 390.628C993.638 390.628 994.478 391.576 994.478 393.472V397H993.11V393.58C993.11 392.392 992.63 391.9 991.574 391.9C990.902 391.9 990.326 392.296 990.05 392.956V397ZM996.074 392.032H994.994V390.76H996.074V389.476H997.442V390.76H999.458V392.032H997.442V394.444C997.442 395.44 997.67 395.8 998.246 395.8C998.57 395.8 998.858 395.62 999.134 395.272L999.95 396.04C999.602 396.652 998.87 397.072 998.042 397.072C996.83 397.072 996.074 396.28 996.074 394.828V392.032ZM1004.07 395.224C1004.07 394.708 1002.7 394.504 1001.63 394.108C1000.89 393.832 1000.29 393.256 1000.29 392.476C1000.29 391.324 1001.26 390.616 1002.85 390.616C1003.92 390.616 1004.94 391.108 1005.37 391.72L1004.44 392.608C1004.02 392.128 1003.42 391.888 1002.63 391.888C1002.01 391.888 1001.7 392.08 1001.7 392.452C1001.7 393.304 1005.48 393.028 1005.48 395.212C1005.48 395.836 1005.24 396.304 1004.75 396.628C1004.26 396.952 1003.65 397.108 1002.91 397.108C1001.57 397.108 1000.49 396.484 1000.02 395.608L1001.1 394.864C1001.45 395.428 1002.24 395.836 1003.05 395.836C1003.62 395.836 1004.07 395.644 1004.07 395.224ZM1009.65 392.548L1008.98 391.54C1009.57 390.964 1010.58 390.616 1011.6 390.616C1013.23 390.616 1014.15 391.552 1014.15 393.184V397H1012.78V396.316C1012.33 396.82 1011.68 397.072 1010.85 397.072C1009.47 397.072 1008.58 396.304 1008.58 395.104C1008.58 393.772 1009.74 393.124 1011.5 393.124C1012.02 393.124 1012.45 393.184 1012.78 393.292C1012.8 392.344 1012.41 391.888 1011.44 391.888C1010.83 391.888 1010.23 392.104 1009.65 392.548ZM1011.15 395.884C1011.86 395.884 1012.41 395.596 1012.78 395.032V394.432C1012.45 394.324 1012.06 394.264 1011.64 394.264C1010.55 394.264 1010 394.54 1010 395.092C1010 395.584 1010.44 395.884 1011.15 395.884ZM1016.64 397H1015.27V390.76H1016.64V391.324C1017.11 390.856 1017.75 390.628 1018.56 390.628C1020.23 390.628 1021.07 391.576 1021.07 393.472V397H1019.7V393.58C1019.7 392.392 1019.22 391.9 1018.16 391.9C1017.49 391.9 1016.91 392.296 1016.64 392.956V397ZM1028.02 397H1026.66V396.316C1026.38 396.7 1025.73 397.096 1024.9 397.096C1024 397.096 1023.27 396.808 1022.72 396.244C1022.17 395.68 1021.89 394.888 1021.89 393.892C1021.89 392.944 1022.19 392.152 1022.8 391.54C1023.4 390.928 1024.14 390.616 1025 390.616C1025.74 390.616 1026.3 390.772 1026.66 391.084V388.24H1028.02V397ZM1025.16 395.824C1025.83 395.824 1026.43 395.368 1026.66 394.852V392.572C1026.33 392.116 1025.86 391.888 1025.23 391.888C1024.14 391.888 1023.31 392.656 1023.31 393.868C1023.31 395.068 1024.05 395.824 1025.16 395.824ZM1032.37 392.032H1031.29V390.76H1032.37V389.476H1033.74V390.76H1035.75V392.032H1033.74V394.444C1033.74 395.44 1033.97 395.8 1034.54 395.8C1034.87 395.8 1035.15 395.62 1035.43 395.272L1036.25 396.04C1035.9 396.652 1035.17 397.072 1034.34 397.072C1033.13 397.072 1032.37 396.28 1032.37 394.828V392.032ZM1038.1 397H1036.73V390.76H1038.1V391.18C1038.25 390.856 1038.76 390.628 1039.22 390.628C1039.76 390.628 1040.17 390.808 1040.46 391.18L1039.68 392.176C1039.56 391.996 1039.36 391.9 1039.06 391.9C1038.61 391.9 1038.24 392.212 1038.1 392.776V397ZM1041.64 392.548L1040.97 391.54C1041.55 390.964 1042.56 390.616 1043.58 390.616C1045.21 390.616 1046.14 391.552 1046.14 393.184V397H1044.77V396.316C1044.31 396.82 1043.67 397.072 1042.84 397.072C1041.46 397.072 1040.57 396.304 1040.57 395.104C1040.57 393.772 1041.72 393.124 1043.49 393.124C1044 393.124 1044.43 393.184 1044.77 393.292C1044.78 392.344 1044.4 391.888 1043.43 391.888C1042.81 391.888 1042.21 392.104 1041.64 392.548ZM1043.14 395.884C1043.85 395.884 1044.4 395.596 1044.77 395.032V394.432C1044.43 394.324 1044.05 394.264 1043.63 394.264C1042.54 394.264 1041.99 394.54 1041.99 395.092C1041.99 395.584 1042.43 395.884 1043.14 395.884ZM1048.74 397H1047.38V390.76H1048.74V397ZM1047.26 388.972C1047.26 388.552 1047.62 388.252 1048.06 388.252C1048.5 388.252 1048.85 388.576 1048.85 388.972C1048.85 389.404 1048.5 389.716 1048.06 389.716C1047.58 389.716 1047.26 389.404 1047.26 388.972ZM1051.38 397H1050.01V390.76H1051.38V391.324C1051.84 390.856 1052.49 390.628 1053.3 390.628C1054.96 390.628 1055.8 391.576 1055.8 393.472V397H1054.44V393.58C1054.44 392.392 1053.96 391.9 1052.9 391.9C1052.23 391.9 1051.65 392.296 1051.38 392.956V397ZM1058.41 397H1057.04V390.76H1058.41V397ZM1056.92 388.972C1056.92 388.552 1057.28 388.252 1057.72 388.252C1058.17 388.252 1058.52 388.576 1058.52 388.972C1058.52 389.404 1058.17 389.716 1057.72 389.716C1057.24 389.716 1056.92 389.404 1056.92 388.972ZM1061.04 397H1059.67V390.76H1061.04V391.324C1061.51 390.856 1062.15 390.628 1062.96 390.628C1064.63 390.628 1065.47 391.576 1065.47 393.472V397H1064.1V393.58C1064.1 392.392 1063.62 391.9 1062.56 391.9C1061.89 391.9 1061.31 392.296 1061.04 392.956V397ZM1071.01 390.76H1072.38V396.496C1072.38 398.512 1071.29 399.508 1069.5 399.508C1068.09 399.508 1067.04 398.908 1066.67 397.9L1067.85 397.384C1068.11 397.864 1068.63 398.236 1069.39 398.236C1070.47 398.236 1071.01 397.744 1071.01 396.748V396.472C1070.73 396.892 1070.18 397.108 1069.35 397.108C1068.43 397.108 1067.7 396.82 1067.13 396.244C1066.57 395.68 1066.29 394.888 1066.29 393.868C1066.29 392.896 1066.59 392.116 1067.19 391.528C1067.78 390.94 1068.51 390.652 1069.37 390.652C1070.1 390.652 1070.65 390.82 1071.01 391.168V390.76ZM1069.58 395.836C1070.27 395.836 1070.82 395.416 1071.01 394.888V392.584C1070.72 392.14 1070.24 391.924 1069.57 391.924C1068.51 391.924 1067.71 392.644 1067.71 393.892C1067.71 395.128 1068.42 395.836 1069.58 395.836ZM1077.16 395.224C1077.16 394.708 1075.8 394.504 1074.73 394.108C1073.98 393.832 1073.38 393.256 1073.38 392.476C1073.38 391.324 1074.36 390.616 1075.95 390.616C1077.02 390.616 1078.04 391.108 1078.47 391.72L1077.54 392.608C1077.12 392.128 1076.52 391.888 1075.72 391.888C1075.11 391.888 1074.8 392.08 1074.8 392.452C1074.8 393.304 1078.58 393.028 1078.58 395.212C1078.58 395.836 1078.34 396.304 1077.85 396.628C1077.36 396.952 1076.74 397.108 1076.01 397.108C1074.67 397.108 1073.59 396.484 1073.12 395.608L1074.2 394.864C1074.55 395.428 1075.34 395.836 1076.14 395.836C1076.72 395.836 1077.16 395.644 1077.16 395.224Z" fill="#3C525E"/>
<path d="M970.292 70.916V74H968.84V65.6H972.14C974.756 65.6 975.452 66.872 975.452 68.216C975.452 69.368 974.72 70.316 973.604 70.64L976.124 74H974.36L972.068 70.916H970.292ZM972.104 66.968H970.292V69.548H972.176C973.28 69.548 973.94 69.044 973.94 68.216C973.94 67.412 973.448 66.968 972.104 66.968ZM980.932 72.008L981.772 72.836C981.136 73.688 980.296 74.108 979.24 74.108C978.232 74.108 977.428 73.808 976.816 73.22C976.204 72.632 975.892 71.852 975.892 70.868C975.892 69.92 976.18 69.14 976.744 68.528C977.308 67.916 978.088 67.616 979.096 67.616C979.948 67.616 980.644 67.88 981.196 68.396C981.748 68.924 982.024 69.62 982.024 70.472C982.024 70.676 982 70.976 981.952 71.348H977.32C977.428 72.308 978.196 72.836 979.264 72.836C979.972 72.836 980.524 72.56 980.932 72.008ZM979.036 68.852C978.124 68.852 977.512 69.344 977.332 70.16H980.608C980.5 69.308 979.936 68.852 979.036 68.852ZM990.044 67.76H991.436L989.42 74H988.328L986.816 69.944L985.292 74H984.224L982.136 67.76H983.552L984.848 71.708L986.312 67.76H987.344L988.832 71.72L990.044 67.76ZM992.503 69.548L991.831 68.54C992.419 67.964 993.427 67.616 994.447 67.616C996.079 67.616 997.003 68.552 997.003 70.184V74H995.635V73.316C995.179 73.82 994.531 74.072 993.703 74.072C992.323 74.072 991.435 73.304 991.435 72.104C991.435 70.772 992.587 70.124 994.351 70.124C994.867 70.124 995.299 70.184 995.635 70.292C995.647 69.344 995.263 68.888 994.291 68.888C993.679 68.888 993.079 69.104 992.503 69.548ZM994.003 72.884C994.711 72.884 995.263 72.596 995.635 72.032V71.432C995.299 71.324 994.915 71.264 994.495 71.264C993.403 71.264 992.851 71.54 992.851 72.092C992.851 72.584 993.295 72.884 994.003 72.884ZM999.489 74H998.121V67.76H999.489V68.18C999.645 67.856 1000.15 67.628 1000.62 67.628C1001.16 67.628 1001.56 67.808 1001.85 68.18L1001.07 69.176C1000.95 68.996 1000.75 68.9 1000.45 68.9C1000 68.9 999.633 69.212 999.489 69.776V74ZM1007.89 74H1006.52V73.316C1006.24 73.7 1005.6 74.096 1004.77 74.096C1003.87 74.096 1003.14 73.808 1002.58 73.244C1002.03 72.68 1001.76 71.888 1001.76 70.892C1001.76 69.944 1002.06 69.152 1002.67 68.54C1003.27 67.928 1004 67.616 1004.86 67.616C1005.61 67.616 1006.16 67.772 1006.52 68.084V65.24H1007.89V74ZM1005.02 72.824C1005.69 72.824 1006.29 72.368 1006.52 71.852V69.572C1006.2 69.116 1005.73 68.888 1005.09 68.888C1004 68.888 1003.17 69.656 1003.17 70.868C1003.17 72.068 1003.92 72.824 1005.02 72.824ZM1010.53 74H1009.16V67.76H1010.53V74ZM1009.04 65.972C1009.04 65.552 1009.4 65.252 1009.84 65.252C1010.29 65.252 1010.63 65.576 1010.63 65.972C1010.63 66.404 1010.29 66.716 1009.84 66.716C1009.36 66.716 1009.04 66.404 1009.04 65.972ZM1013.16 74H1011.79V67.76H1013.16V68.324C1013.62 67.856 1014.27 67.628 1015.08 67.628C1016.74 67.628 1017.58 68.576 1017.58 70.472V74H1016.22V70.58C1016.22 69.392 1015.74 68.9 1014.68 68.9C1014.01 68.9 1013.43 69.296 1013.16 69.956V74ZM1023.13 67.76H1024.5V73.496C1024.5 75.512 1023.4 76.508 1021.62 76.508C1020.21 76.508 1019.16 75.908 1018.78 74.9L1019.97 74.384C1020.22 74.864 1020.75 75.236 1021.51 75.236C1022.59 75.236 1023.13 74.744 1023.13 73.748V73.472C1022.85 73.892 1022.3 74.108 1021.47 74.108C1020.55 74.108 1019.82 73.82 1019.25 73.244C1018.69 72.68 1018.41 71.888 1018.41 70.868C1018.41 69.896 1018.71 69.116 1019.31 68.528C1019.9 67.94 1020.63 67.652 1021.48 67.652C1022.22 67.652 1022.77 67.82 1023.13 68.168V67.76ZM1021.7 72.836C1022.38 72.836 1022.94 72.416 1023.13 71.888V69.584C1022.84 69.14 1022.36 68.924 1021.69 68.924C1020.63 68.924 1019.83 69.644 1019.83 70.892C1019.83 72.128 1020.54 72.836 1021.7 72.836ZM1028.07 70.868C1028.07 69.92 1028.39 69.14 1029.01 68.528C1029.62 67.916 1030.43 67.616 1031.41 67.616C1032.39 67.616 1033.2 67.916 1033.82 68.528C1034.45 69.14 1034.76 69.92 1034.76 70.868C1034.76 71.804 1034.45 72.572 1033.82 73.184C1033.2 73.796 1032.39 74.108 1031.41 74.108C1030.44 74.108 1029.65 73.796 1029.02 73.184C1028.39 72.572 1028.07 71.804 1028.07 70.868ZM1029.49 70.868C1029.49 71.432 1029.67 71.9 1030.03 72.272C1030.38 72.644 1030.85 72.836 1031.41 72.836C1032.56 72.836 1033.34 72.056 1033.34 70.868C1033.34 70.28 1033.16 69.8 1032.79 69.428C1032.42 69.068 1031.96 68.888 1031.41 68.888C1030.29 68.888 1029.49 69.668 1029.49 70.868ZM1039.92 67.724H1041.29V74H1039.92V73.34C1039.46 73.856 1038.89 74.108 1038.18 74.108C1036.44 74.108 1035.59 73.22 1035.59 71.312V67.724H1036.96V71.18C1036.96 72.284 1037.41 72.836 1038.31 72.836C1039.02 72.836 1039.56 72.476 1039.92 71.756V67.724ZM1042.92 69.032H1041.84V67.76H1042.92V66.476H1044.29V67.76H1046.31V69.032H1044.29V71.444C1044.29 72.44 1044.52 72.8 1045.09 72.8C1045.42 72.8 1045.71 72.62 1045.98 72.272L1046.8 73.04C1046.45 73.652 1045.72 74.072 1044.89 74.072C1043.68 74.072 1042.92 73.28 1042.92 71.828V69.032ZM1050.92 72.224C1050.92 71.708 1049.55 71.504 1048.48 71.108C1047.74 70.832 1047.14 70.256 1047.14 69.476C1047.14 68.324 1048.11 67.616 1049.7 67.616C1050.77 67.616 1051.79 68.108 1052.22 68.72L1051.29 69.608C1050.87 69.128 1050.27 68.888 1049.48 68.888C1048.86 68.888 1048.55 69.08 1048.55 69.452C1048.55 70.304 1052.33 70.028 1052.33 72.212C1052.33 72.836 1052.09 73.304 1051.6 73.628C1051.11 73.952 1050.5 74.108 1049.76 74.108C1048.42 74.108 1047.34 73.484 1046.87 72.608L1047.95 71.864C1048.3 72.428 1049.09 72.836 1049.9 72.836C1050.47 72.836 1050.92 72.644 1050.92 72.224ZM1053.59 69.032H1052.51V67.76H1053.59V66.476H1054.96V67.76H1056.98V69.032H1054.96V71.444C1054.96 72.44 1055.19 72.8 1055.76 72.8C1056.09 72.8 1056.38 72.62 1056.65 72.272L1057.47 73.04C1057.12 73.652 1056.39 74.072 1055.56 74.072C1054.35 74.072 1053.59 73.28 1053.59 71.828V69.032ZM1058.62 69.548L1057.95 68.54C1058.54 67.964 1059.55 67.616 1060.57 67.616C1062.2 67.616 1063.12 68.552 1063.12 70.184V74H1061.75V73.316C1061.3 73.82 1060.65 74.072 1059.82 74.072C1058.44 74.072 1057.55 73.304 1057.55 72.104C1057.55 70.772 1058.71 70.124 1060.47 70.124C1060.99 70.124 1061.42 70.184 1061.75 70.292C1061.77 69.344 1061.38 68.888 1060.41 68.888C1059.8 68.888 1059.2 69.104 1058.62 69.548ZM1060.12 72.884C1060.83 72.884 1061.38 72.596 1061.75 72.032V71.432C1061.42 71.324 1061.03 71.264 1060.61 71.264C1059.52 71.264 1058.97 71.54 1058.97 72.092C1058.97 72.584 1059.41 72.884 1060.12 72.884ZM1065.61 74H1064.24V67.76H1065.61V68.324C1066.08 67.856 1066.72 67.628 1067.53 67.628C1069.2 67.628 1070.04 68.576 1070.04 70.472V74H1068.67V70.58C1068.67 69.392 1068.19 68.9 1067.13 68.9C1066.46 68.9 1065.88 69.296 1065.61 69.956V74ZM1076.99 74H1075.63V73.316C1075.35 73.7 1074.7 74.096 1073.87 74.096C1072.97 74.096 1072.24 73.808 1071.69 73.244C1071.14 72.68 1070.86 71.888 1070.86 70.892C1070.86 69.944 1071.16 69.152 1071.77 68.54C1072.37 67.928 1073.11 67.616 1073.97 67.616C1074.71 67.616 1075.27 67.772 1075.63 68.084V65.24H1076.99V74ZM1074.13 72.824C1074.8 72.824 1075.4 72.368 1075.63 71.852V69.572C1075.3 69.116 1074.83 68.888 1074.2 68.888C1073.11 68.888 1072.28 69.656 1072.28 70.868C1072.28 72.068 1073.02 72.824 1074.13 72.824ZM1079.63 74H1078.26V67.76H1079.63V74ZM1078.14 65.972C1078.14 65.552 1078.5 65.252 1078.95 65.252C1079.39 65.252 1079.74 65.576 1079.74 65.972C1079.74 66.404 1079.39 66.716 1078.95 66.716C1078.47 66.716 1078.14 66.404 1078.14 65.972ZM1082.26 74H1080.9V67.76H1082.26V68.324C1082.73 67.856 1083.38 67.628 1084.18 67.628C1085.85 67.628 1086.69 68.576 1086.69 70.472V74H1085.32V70.58C1085.32 69.392 1084.84 68.9 1083.79 68.9C1083.12 68.9 1082.54 69.296 1082.26 69.956V74ZM1092.23 67.76H1093.6V73.496C1093.6 75.512 1092.51 76.508 1090.72 76.508C1089.32 76.508 1088.26 75.908 1087.89 74.9L1089.08 74.384C1089.33 74.864 1089.86 75.236 1090.61 75.236C1091.69 75.236 1092.23 74.744 1092.23 73.748V73.472C1091.96 73.892 1091.41 74.108 1090.58 74.108C1089.65 74.108 1088.92 73.82 1088.36 73.244C1087.79 72.68 1087.52 71.888 1087.52 70.868C1087.52 69.896 1087.82 69.116 1088.42 68.528C1089.01 67.94 1089.74 67.652 1090.59 67.652C1091.32 67.652 1091.87 67.82 1092.23 68.168V67.76ZM1090.81 72.836C1091.49 72.836 1092.04 72.416 1092.23 71.888V69.584C1091.95 69.14 1091.47 68.924 1090.79 68.924C1089.74 68.924 1088.93 69.644 1088.93 70.892C1088.93 72.128 1089.64 72.836 1090.81 72.836ZM973.388 86.008L974.228 86.836C973.592 87.688 972.752 88.108 971.696 88.108C970.688 88.108 969.884 87.808 969.272 87.22C968.66 86.632 968.348 85.852 968.348 84.868C968.348 83.92 968.636 83.14 969.2 82.528C969.764 81.916 970.544 81.616 971.552 81.616C972.404 81.616 973.1 81.88 973.652 82.396C974.204 82.924 974.48 83.62 974.48 84.472C974.48 84.676 974.456 84.976 974.408 85.348H969.776C969.884 86.308 970.652 86.836 971.72 86.836C972.428 86.836 972.98 86.56 973.388 86.008ZM971.492 82.852C970.58 82.852 969.968 83.344 969.788 84.16H973.064C972.956 83.308 972.392 82.852 971.492 82.852ZM984.324 83.86V88H982.956V84.244C982.956 83.344 982.608 82.9 981.912 82.9C981.276 82.9 980.808 83.224 980.52 83.86V88H979.152V83.944C979.152 83.32 978.768 82.9 978.132 82.9C977.46 82.9 976.944 83.38 976.716 83.92V88H975.348V81.76H976.716V82.3C977.04 81.856 977.604 81.628 978.42 81.628C979.2 81.628 979.764 81.88 980.112 82.396C980.544 81.88 981.168 81.628 981.996 81.628C983.472 81.628 984.324 82.372 984.324 83.86ZM986.803 90.4H985.435V81.76H986.803V82.324C987.175 81.856 987.859 81.616 988.531 81.616C989.455 81.616 990.199 81.904 990.739 82.492C991.279 83.08 991.555 83.836 991.555 84.772C991.555 85.744 991.267 86.536 990.691 87.16C990.115 87.796 989.359 88.108 988.435 88.108C987.631 88.108 987.079 87.94 986.803 87.592V90.4ZM988.387 82.888C987.631 82.888 987.079 83.32 986.803 83.908V86.068C987.103 86.584 987.595 86.836 988.279 86.836C989.395 86.836 990.139 86.044 990.139 84.88C990.139 83.632 989.479 82.888 988.387 82.888ZM993.785 88H992.417V79.24H993.785V88ZM994.645 84.868C994.645 83.92 994.957 83.14 995.581 82.528C996.193 81.916 996.997 81.616 997.981 81.616C998.965 81.616 999.769 81.916 1000.39 82.528C1001.02 83.14 1001.33 83.92 1001.33 84.868C1001.33 85.804 1001.02 86.572 1000.39 87.184C999.769 87.796 998.965 88.108 997.981 88.108C997.009 88.108 996.217 87.796 995.593 87.184C994.957 86.572 994.645 85.804 994.645 84.868ZM996.061 84.868C996.061 85.432 996.241 85.9 996.601 86.272C996.949 86.644 997.417 86.836 997.981 86.836C999.133 86.836 999.913 86.056 999.913 84.868C999.913 84.28 999.733 83.8 999.361 83.428C998.989 83.068 998.533 82.888 997.981 82.888C996.865 82.888 996.061 83.668 996.061 84.868ZM1002.2 90.328L1002.74 89.164C1002.83 89.212 1002.91 89.236 1003.02 89.236C1003.39 89.236 1003.73 88.888 1004 88.192L1004.22 87.628L1001.15 81.76H1002.73L1004.88 85.972L1006.53 81.76H1008L1005.55 87.82C1005.13 88.84 1004.75 89.536 1004.39 89.932C1004.01 90.316 1003.58 90.508 1003.07 90.508C1002.73 90.508 1002.44 90.448 1002.2 90.328ZM1012.89 86.008L1013.73 86.836C1013.09 87.688 1012.25 88.108 1011.19 88.108C1010.19 88.108 1009.38 87.808 1008.77 87.22C1008.16 86.632 1007.85 85.852 1007.85 84.868C1007.85 83.92 1008.13 83.14 1008.7 82.528C1009.26 81.916 1010.04 81.616 1011.05 81.616C1011.9 81.616 1012.6 81.88 1013.15 82.396C1013.7 82.924 1013.98 83.62 1013.98 84.472C1013.98 84.676 1013.95 84.976 1013.91 85.348H1009.27C1009.38 86.308 1010.15 86.836 1011.22 86.836C1011.93 86.836 1012.48 86.56 1012.89 86.008ZM1010.99 82.852C1010.08 82.852 1009.47 83.344 1009.29 84.16H1012.56C1012.45 83.308 1011.89 82.852 1010.99 82.852ZM1019.48 86.008L1020.32 86.836C1019.69 87.688 1018.85 88.108 1017.79 88.108C1016.78 88.108 1015.98 87.808 1015.37 87.22C1014.75 86.632 1014.44 85.852 1014.44 84.868C1014.44 83.92 1014.73 83.14 1015.29 82.528C1015.86 81.916 1016.64 81.616 1017.65 81.616C1018.5 81.616 1019.19 81.88 1019.75 82.396C1020.3 82.924 1020.57 83.62 1020.57 84.472C1020.57 84.676 1020.55 84.976 1020.5 85.348H1015.87C1015.98 86.308 1016.75 86.836 1017.81 86.836C1018.52 86.836 1019.07 86.56 1019.48 86.008ZM1017.59 82.852C1016.67 82.852 1016.06 83.344 1015.88 84.16H1019.16C1019.05 83.308 1018.49 82.852 1017.59 82.852ZM1025.08 86.224C1025.08 85.708 1023.71 85.504 1022.64 85.108C1021.9 84.832 1021.3 84.256 1021.3 83.476C1021.3 82.324 1022.27 81.616 1023.87 81.616C1024.93 81.616 1025.95 82.108 1026.39 82.72L1025.45 83.608C1025.03 83.128 1024.43 82.888 1023.64 82.888C1023.03 82.888 1022.71 83.08 1022.71 83.452C1022.71 84.304 1026.49 84.028 1026.49 86.212C1026.49 86.836 1026.25 87.304 1025.76 87.628C1025.27 87.952 1024.66 88.108 1023.93 88.108C1022.58 88.108 1021.5 87.484 1021.03 86.608L1022.11 85.864C1022.46 86.428 1023.25 86.836 1024.06 86.836C1024.63 86.836 1025.08 86.644 1025.08 86.224ZM1037.14 81.76H1038.53L1036.52 88H1035.43L1033.91 83.944L1032.39 88H1031.32L1029.23 81.76H1030.65L1031.95 85.708L1033.41 81.76H1034.44L1035.93 85.72L1037.14 81.76ZM1040.42 88H1039.05V81.76H1040.42V88ZM1038.93 79.972C1038.93 79.552 1039.29 79.252 1039.73 79.252C1040.18 79.252 1040.53 79.576 1040.53 79.972C1040.53 80.404 1040.18 80.716 1039.73 80.716C1039.25 80.716 1038.93 80.404 1038.93 79.972ZM1042.16 83.032H1041.08V81.76H1042.16V80.476H1043.53V81.76H1045.54V83.032H1043.53V85.444C1043.53 86.44 1043.76 86.8 1044.33 86.8C1044.66 86.8 1044.94 86.62 1045.22 86.272L1046.04 87.04C1045.69 87.652 1044.96 88.072 1044.13 88.072C1042.92 88.072 1042.16 87.28 1042.16 85.828V83.032ZM1047.89 88H1046.52V79.24H1047.89V82.3C1048.33 81.856 1048.94 81.628 1049.7 81.628C1051.43 81.628 1052.29 82.576 1052.29 84.484V88H1050.92V84.568C1050.92 83.404 1050.45 82.9 1049.41 82.9C1048.75 82.9 1048.19 83.296 1047.89 83.932V88ZM1060.9 85.948L1061.87 86.572C1061.38 87.544 1060.31 88.108 1059.19 88.108C1058.19 88.108 1057.37 87.808 1056.76 87.22C1056.15 86.632 1055.83 85.84 1055.83 84.868C1055.83 83.932 1056.13 83.152 1056.75 82.54C1057.36 81.928 1058.15 81.616 1059.12 81.616C1060.37 81.616 1061.38 82.18 1061.8 83.032L1060.78 83.704C1060.37 83.164 1059.84 82.888 1059.18 82.888C1058.04 82.888 1057.25 83.704 1057.25 84.868C1057.25 85.432 1057.44 85.9 1057.83 86.272C1058.2 86.644 1058.7 86.836 1059.33 86.836C1059.99 86.836 1060.5 86.536 1060.9 85.948ZM1061.83 84.868C1061.83 83.92 1062.14 83.14 1062.77 82.528C1063.38 81.916 1064.18 81.616 1065.17 81.616C1066.15 81.616 1066.95 81.916 1067.58 82.528C1068.2 83.14 1068.51 83.92 1068.51 84.868C1068.51 85.804 1068.2 86.572 1067.58 87.184C1066.95 87.796 1066.15 88.108 1065.17 88.108C1064.19 88.108 1063.4 87.796 1062.78 87.184C1062.14 86.572 1061.83 85.804 1061.83 84.868ZM1063.25 84.868C1063.25 85.432 1063.43 85.9 1063.79 86.272C1064.13 86.644 1064.6 86.836 1065.17 86.836C1066.32 86.836 1067.1 86.056 1067.1 84.868C1067.1 84.28 1066.92 83.8 1066.55 83.428C1066.17 83.068 1065.72 82.888 1065.17 82.888C1064.05 82.888 1063.25 83.668 1063.25 84.868ZM1070.75 88H1069.38V81.76H1070.75V82.18C1070.91 81.856 1071.41 81.628 1071.88 81.628C1072.42 81.628 1072.83 81.808 1073.11 82.18L1072.33 83.176C1072.21 82.996 1072.01 82.9 1071.71 82.9C1071.27 82.9 1070.89 83.212 1070.75 83.776V88ZM1074.99 90.4H1073.62V81.76H1074.99V82.324C1075.36 81.856 1076.04 81.616 1076.72 81.616C1077.64 81.616 1078.38 81.904 1078.92 82.492C1079.46 83.08 1079.74 83.836 1079.74 84.772C1079.74 85.744 1079.45 86.536 1078.88 87.16C1078.3 87.796 1077.54 88.108 1076.62 88.108C1075.82 88.108 1075.26 87.94 1074.99 87.592V90.4ZM1076.57 82.888C1075.82 82.888 1075.26 83.32 1074.99 83.908V86.068C1075.29 86.584 1075.78 86.836 1076.46 86.836C1077.58 86.836 1078.32 86.044 1078.32 84.88C1078.32 83.632 1077.66 82.888 1076.57 82.888ZM1080.31 84.868C1080.31 83.92 1080.63 83.14 1081.25 82.528C1081.86 81.916 1082.67 81.616 1083.65 81.616C1084.63 81.616 1085.44 81.916 1086.06 82.528C1086.69 83.14 1087 83.92 1087 84.868C1087 85.804 1086.69 86.572 1086.06 87.184C1085.44 87.796 1084.63 88.108 1083.65 88.108C1082.68 88.108 1081.89 87.796 1081.26 87.184C1080.63 86.572 1080.31 85.804 1080.31 84.868ZM1081.73 84.868C1081.73 85.432 1081.91 85.9 1082.27 86.272C1082.62 86.644 1083.09 86.836 1083.65 86.836C1084.8 86.836 1085.58 86.056 1085.58 84.868C1085.58 84.28 1085.4 83.8 1085.03 83.428C1084.66 83.068 1084.2 82.888 1083.65 82.888C1082.53 82.888 1081.73 83.668 1081.73 84.868ZM1089.23 88H1087.86V81.76H1089.23V82.18C1089.39 81.856 1089.89 81.628 1090.36 81.628C1090.9 81.628 1091.31 81.808 1091.6 82.18L1090.82 83.176C1090.7 82.996 1090.49 82.9 1090.19 82.9C1089.75 82.9 1089.38 83.212 1089.23 83.776V88ZM1092.78 83.548L1092.1 82.54C1092.69 81.964 1093.7 81.616 1094.72 81.616C1096.35 81.616 1097.28 82.552 1097.28 84.184V88H1095.91V87.316C1095.45 87.82 1094.8 88.072 1093.98 88.072C1092.6 88.072 1091.71 87.304 1091.71 86.104C1091.71 84.772 1092.86 84.124 1094.62 84.124C1095.14 84.124 1095.57 84.184 1095.91 84.292C1095.92 83.344 1095.54 82.888 1094.56 82.888C1093.95 82.888 1093.35 83.104 1092.78 83.548ZM1094.28 86.884C1094.98 86.884 1095.54 86.596 1095.91 86.032V85.432C1095.57 85.324 1095.19 85.264 1094.77 85.264C1093.68 85.264 1093.12 85.54 1093.12 86.092C1093.12 86.584 1093.57 86.884 1094.28 86.884ZM1098.87 83.032H1097.79V81.76H1098.87V80.476H1100.24V81.76H1102.26V83.032H1100.24V85.444C1100.24 86.44 1100.47 86.8 1101.05 86.8C1101.37 86.8 1101.66 86.62 1101.93 86.272L1102.75 87.04C1102.4 87.652 1101.67 88.072 1100.84 88.072C1099.63 88.072 1098.87 87.28 1098.87 85.828V83.032ZM1107.73 86.008L1108.57 86.836C1107.93 87.688 1107.09 88.108 1106.03 88.108C1105.03 88.108 1104.22 87.808 1103.61 87.22C1103 86.632 1102.69 85.852 1102.69 84.868C1102.69 83.92 1102.97 83.14 1103.54 82.528C1104.1 81.916 1104.88 81.616 1105.89 81.616C1106.74 81.616 1107.44 81.88 1107.99 82.396C1108.54 82.924 1108.82 83.62 1108.82 84.472C1108.82 84.676 1108.79 84.976 1108.75 85.348H1104.11C1104.22 86.308 1104.99 86.836 1106.06 86.836C1106.77 86.836 1107.32 86.56 1107.73 86.008ZM1105.83 82.852C1104.92 82.852 1104.31 83.344 1104.13 84.16H1107.4C1107.29 83.308 1106.73 82.852 1105.83 82.852ZM969.308 97.548L968.636 96.54C969.224 95.964 970.232 95.616 971.252 95.616C972.884 95.616 973.808 96.552 973.808 98.184V102H972.44V101.316C971.984 101.82 971.336 102.072 970.508 102.072C969.128 102.072 968.24 101.304 968.24 100.104C968.24 98.772 969.392 98.124 971.156 98.124C971.672 98.124 972.104 98.184 972.44 98.292C972.452 97.344 972.068 96.888 971.096 96.888C970.484 96.888 969.884 97.104 969.308 97.548ZM970.808 100.884C971.516 100.884 972.068 100.596 972.44 100.032V99.432C972.104 99.324 971.72 99.264 971.3 99.264C970.208 99.264 969.656 99.54 969.656 100.092C969.656 100.584 970.1 100.884 970.808 100.884ZM982.078 95.76H983.47L981.454 102H980.362L978.85 97.944L977.326 102H976.258L974.17 95.76H975.586L976.882 99.708L978.346 95.76H979.378L980.866 99.72L982.078 95.76ZM984.537 97.548L983.865 96.54C984.453 95.964 985.461 95.616 986.481 95.616C988.113 95.616 989.037 96.552 989.037 98.184V102H987.669V101.316C987.213 101.82 986.565 102.072 985.737 102.072C984.357 102.072 983.469 101.304 983.469 100.104C983.469 98.772 984.621 98.124 986.385 98.124C986.901 98.124 987.333 98.184 987.669 98.292C987.681 97.344 987.297 96.888 986.325 96.888C985.713 96.888 985.113 97.104 984.537 97.548ZM986.037 100.884C986.745 100.884 987.297 100.596 987.669 100.032V99.432C987.333 99.324 986.949 99.264 986.529 99.264C985.437 99.264 984.885 99.54 984.885 100.092C984.885 100.584 985.329 100.884 986.037 100.884ZM991.523 102H990.155V95.76H991.523V96.18C991.679 95.856 992.183 95.628 992.651 95.628C993.191 95.628 993.599 95.808 993.887 96.18L993.107 97.176C992.987 96.996 992.783 96.9 992.483 96.9C992.039 96.9 991.667 97.212 991.523 97.776V102ZM999.922 102H998.554V101.316C998.278 101.7 997.63 102.096 996.802 102.096C995.902 102.096 995.17 101.808 994.618 101.244C994.066 100.68 993.79 99.888 993.79 98.892C993.79 97.944 994.09 97.152 994.702 96.54C995.302 95.928 996.034 95.616 996.898 95.616C997.642 95.616 998.194 95.772 998.554 96.084V93.24H999.922V102ZM997.054 100.824C997.726 100.824 998.326 100.368 998.554 99.852V97.572C998.23 97.116 997.762 96.888 997.126 96.888C996.034 96.888 995.206 97.656 995.206 98.868C995.206 100.068 995.95 100.824 997.054 100.824ZM1004.71 100.224C1004.71 99.708 1003.34 99.504 1002.27 99.108C1001.53 98.832 1000.93 98.256 1000.93 97.476C1000.93 96.324 1001.9 95.616 1003.5 95.616C1004.56 95.616 1005.58 96.108 1006.02 96.72L1005.08 97.608C1004.66 97.128 1004.06 96.888 1003.27 96.888C1002.66 96.888 1002.34 97.08 1002.34 97.452C1002.34 98.304 1006.12 98.028 1006.12 100.212C1006.12 100.836 1005.88 101.304 1005.39 101.628C1004.9 101.952 1004.29 102.108 1003.56 102.108C1002.21 102.108 1001.13 101.484 1000.66 100.608L1001.74 99.864C1002.09 100.428 1002.88 100.836 1003.69 100.836C1004.26 100.836 1004.71 100.644 1004.71 100.224Z" fill="#3C525E"/>
<circle cx="943.493" cy="187.354" r="14.3544" fill="white"/>
<path d="M941.703 185.368L940.623 184.936C940.983 183.702 942.083 183.013 943.492 183.013C945.127 183.013 946.084 183.867 946.084 185.142C946.084 186.078 945.683 186.839 944.973 187.497C944.613 187.836 944.12 188.217 943.492 188.659L942.67 189.132H946.31V190.284H940.726V189.368L942.351 188.186C942.402 188.145 942.546 188.032 942.803 187.836C943.06 187.641 943.225 187.507 943.307 187.435C943.389 187.363 943.533 187.24 943.749 187.065C943.955 186.89 944.099 186.746 944.192 186.633C944.356 186.427 944.654 186.067 944.747 185.779C944.788 185.635 944.809 185.491 944.809 185.337C944.809 184.638 944.305 184.206 943.472 184.206C942.577 184.206 941.991 184.7 941.703 185.368Z" fill="#1A3341" fill-opacity="0.6"/>
<circle cx="943.354" cy="88.3544" r="14.3544" fill="white"/>
<path d="M941.753 86.2652L941.331 85.2368L943.748 84.0645H944.53V91.2837H943.337V85.5351L941.753 86.2652Z" fill="#1A3341" fill-opacity="0.6"/>
<circle cx="943.493" cy="288.354" r="14.3544" fill="white"/>
<path d="M941.81 286.142L940.751 285.669C941.121 284.63 942.211 283.993 943.558 283.993C944.319 283.993 944.946 284.157 945.43 284.486C945.913 284.825 946.16 285.257 946.16 285.802C946.16 286.615 945.687 287.242 944.998 287.448C945.728 287.623 946.314 288.147 946.314 289.134C946.314 289.803 946.057 290.348 945.543 290.749C945.018 291.16 944.381 291.366 943.609 291.366C942.787 291.366 942.005 291.171 941.326 290.605C940.987 290.327 940.74 289.978 940.607 289.577L941.738 289.104C941.882 289.422 942.129 289.679 942.468 289.875C942.807 290.07 943.147 290.173 943.507 290.173C944.381 290.173 945.029 289.793 945.029 289.145C945.029 288.415 944.391 288.168 943.28 288.168H942.581V287.036H943.321C944.257 287.036 944.885 286.625 944.885 286.06C944.885 285.782 944.751 285.556 944.484 285.401C944.216 285.247 943.877 285.165 943.455 285.165C943.034 285.165 942.704 285.247 942.447 285.412C942.19 285.576 941.985 285.823 941.81 286.142Z" fill="#1A3341" fill-opacity="0.6"/>
<circle cx="943.493" cy="386.354" r="14.3544" fill="white"/>
<path d="M945.519 389.284H944.316V387.916H940.244V387.114L944.491 382.085H945.519V386.816H946.743V387.916H945.519V389.284ZM944.316 384.049L941.889 386.816H944.316V384.049Z" fill="#1A3341" fill-opacity="0.6"/>
<defs>
<linearGradient id="paint0_linear_6001_40306" x1="949.784" y1="-1.50083e+14" x2="751.205" y2="-1.50083e+14" gradientUnits="userSpaceOnUse">
<stop stop-color="#92F7CC"/>
<stop offset="1" stop-color="#2B5F90"/>
</linearGradient>
<linearGradient id="paint1_linear_6001_40306" x1="907.694" y1="110.51" x2="770.123" y2="110.51" gradientUnits="userSpaceOnUse">
<stop stop-color="#70D4AA"/>
<stop offset="1" stop-color="#228D9C"/>
</linearGradient>
<linearGradient id="paint2_linear_6001_40306" x1="934.025" y1="237.933" x2="812.804" y2="237.933" gradientUnits="userSpaceOnUse">
<stop stop-color="#49BC77"/>
<stop offset="1" stop-color="#0D5F8D"/>
</linearGradient>
<linearGradient id="paint3_linear_6001_40306" x1="1032.69" y1="95.5773" x2="861.633" y2="95.5773" gradientUnits="userSpaceOnUse">
<stop stop-color="#39EC2A"/>
<stop offset="1" stop-color="#7EDEEC"/>
</linearGradient>
<linearGradient id="paint4_linear_6001_40306" x1="831.095" y1="316.772" x2="621.886" y2="316.772" gradientUnits="userSpaceOnUse">
<stop stop-color="#69D88F"/>
<stop offset="1" stop-color="#4D809E"/>
</linearGradient>
<linearGradient id="paint5_linear_6001_40306" x1="989.951" y1="287.31" x2="711.658" y2="286.125" gradientUnits="userSpaceOnUse">
<stop stop-color="#99F452" stop-opacity="0.68"/>
<stop offset="1" stop-color="#1DA858"/>
</linearGradient>
</defs>
</svg>
