<svg width="3967" height="879" viewBox="0 0 3967 879" fill="none" xmlns="http://www.w3.org/2000/svg">
<path opacity="0.86" d="M2325 417H839" stroke="url(#paint0_linear_6001_19235)" stroke-width="40"/>
<path opacity="0.86" d="M2332 229H1893.37C1838.83 229 1786.65 251.273 1748.93 290.66L1685.06 357.34C1647.34 396.727 1595.17 419 1540.63 419H620" stroke="url(#paint1_linear_6001_19235)" stroke-width="42"/>
<path opacity="0.85" d="M2322 607H2063.7C2027.25 607 1992.24 592.786 1966.11 567.38L1854.24 458.62C1828.11 433.214 1793.1 419 1756.65 419H1167" stroke="url(#paint2_linear_6001_19235)" stroke-width="28"/>
<path opacity="0.17" d="M3955 14H2402.06C2343.82 14 2288.48 39.3809 2250.49 83.5129L2024.95 345.487C1986.96 389.619 1931.62 415 1873.38 415H353" stroke="url(#paint3_linear_6001_19235)" stroke-width="28"/>
<path opacity="0.17" d="M3966.5 871H1797.28C1734.9 871 1676.1 841.897 1638.26 792.303L1432.6 522.697C1394.76 473.103 1335.96 444 1273.58 444H4.5" stroke="url(#paint4_linear_6001_19235)" stroke-width="16"/>
<path d="M2322 791L1905.31 791C1843.14 791 1784.5 762.089 1746.65 712.772L1582.75 499.228C1544.9 449.911 1486.26 421 1424.1 421H0" stroke="url(#paint5_linear_6001_19235)" stroke-width="60"/>
<path d="M2396.44 407.68V412H2394.26V399.4H2399.35C2401.39 399.4 2402.85 399.886 2403.58 400.732C2404.3 401.578 2404.59 402.442 2404.59 403.54C2404.59 405.592 2403.26 407.68 2399.34 407.68H2396.44ZM2399.43 401.434H2396.44V405.646H2399.3C2401.32 405.646 2402.32 404.944 2402.32 403.522C2402.32 402.136 2401.35 401.434 2399.43 401.434ZM2407.45 412H2405.39V402.64H2407.45V403.27C2407.68 402.784 2408.44 402.442 2409.14 402.442C2409.95 402.442 2410.56 402.712 2410.99 403.27L2409.82 404.764C2409.64 404.494 2409.34 404.35 2408.89 404.35C2408.22 404.35 2407.66 404.818 2407.45 405.664V412ZM2410.85 407.302C2410.85 405.88 2411.31 404.71 2412.25 403.792C2413.17 402.874 2414.37 402.424 2415.85 402.424C2417.33 402.424 2418.53 402.874 2419.47 403.792C2420.4 404.71 2420.87 405.88 2420.87 407.302C2420.87 408.706 2420.4 409.858 2419.47 410.776C2418.53 411.694 2417.33 412.162 2415.85 412.162C2414.39 412.162 2413.2 411.694 2412.27 410.776C2411.31 409.858 2410.85 408.706 2410.85 407.302ZM2412.97 407.302C2412.97 408.148 2413.24 408.85 2413.78 409.408C2414.3 409.966 2415 410.254 2415.85 410.254C2417.58 410.254 2418.75 409.084 2418.75 407.302C2418.75 406.42 2418.48 405.7 2417.92 405.142C2417.36 404.602 2416.68 404.332 2415.85 404.332C2414.18 404.332 2412.97 405.502 2412.97 407.302ZM2428.34 402.64H2430.52L2426.36 412H2424.85L2420.49 402.64H2422.81L2425.64 408.886L2428.34 402.64ZM2433.17 412H2431.12V402.64H2433.17V412ZM2430.94 399.958C2430.94 399.328 2431.48 398.878 2432.15 398.878C2432.81 398.878 2433.33 399.364 2433.33 399.958C2433.33 400.606 2432.81 401.074 2432.15 401.074C2431.43 401.074 2430.94 400.606 2430.94 399.958ZM2443.83 412H2441.78V410.974C2441.37 411.55 2440.39 412.144 2439.15 412.144C2437.8 412.144 2436.7 411.712 2435.88 410.866C2435.05 410.02 2434.63 408.832 2434.63 407.338C2434.63 405.916 2435.08 404.728 2436 403.81C2436.9 402.892 2438 402.424 2439.3 402.424C2440.41 402.424 2441.24 402.658 2441.78 403.126V398.86H2443.83V412ZM2439.53 410.236C2440.54 410.236 2441.44 409.552 2441.78 408.778V405.358C2441.29 404.674 2440.59 404.332 2439.64 404.332C2438 404.332 2436.76 405.484 2436.76 407.302C2436.76 409.102 2437.87 410.236 2439.53 410.236ZM2447.79 412H2445.74V402.64H2447.79V412ZM2445.56 399.958C2445.56 399.328 2446.1 398.878 2446.76 398.878C2447.43 398.878 2447.95 399.364 2447.95 399.958C2447.95 400.606 2447.43 401.074 2446.76 401.074C2446.04 401.074 2445.56 400.606 2445.56 399.958ZM2451.73 412H2449.68V402.64H2451.73V403.486C2452.44 402.784 2453.41 402.442 2454.61 402.442C2457.12 402.442 2458.38 403.864 2458.38 406.708V412H2456.32V406.87C2456.32 405.088 2455.6 404.35 2454.02 404.35C2453.01 404.35 2452.15 404.944 2451.73 405.934V412ZM2466.69 402.64H2468.74V411.244C2468.74 414.268 2467.11 415.762 2464.42 415.762C2462.32 415.762 2460.73 414.862 2460.18 413.35L2461.96 412.576C2462.34 413.296 2463.13 413.854 2464.26 413.854C2465.88 413.854 2466.69 413.116 2466.69 411.622V411.208C2466.28 411.838 2465.45 412.162 2464.21 412.162C2462.82 412.162 2461.72 411.73 2460.88 410.866C2460.03 410.02 2459.62 408.832 2459.62 407.302C2459.62 405.844 2460.07 404.674 2460.97 403.792C2461.85 402.91 2462.95 402.478 2464.23 402.478C2465.32 402.478 2466.15 402.73 2466.69 403.252V402.64ZM2464.55 410.254C2465.58 410.254 2466.4 409.624 2466.69 408.832V405.376C2466.26 404.71 2465.54 404.386 2464.53 404.386C2462.95 404.386 2461.74 405.466 2461.74 407.338C2461.74 409.192 2462.8 410.254 2464.55 410.254ZM2474.11 407.302C2474.11 405.88 2474.58 404.71 2475.51 403.792C2476.43 402.874 2477.64 402.424 2479.11 402.424C2480.59 402.424 2481.8 402.874 2482.73 403.792C2483.67 404.71 2484.14 405.88 2484.14 407.302C2484.14 408.706 2483.67 409.858 2482.73 410.776C2481.8 411.694 2480.59 412.162 2479.11 412.162C2477.66 412.162 2476.47 411.694 2475.53 410.776C2474.58 409.858 2474.11 408.706 2474.11 407.302ZM2476.23 407.302C2476.23 408.148 2476.5 408.85 2477.04 409.408C2477.57 409.966 2478.27 410.254 2479.11 410.254C2480.84 410.254 2482.01 409.084 2482.01 407.302C2482.01 406.42 2481.74 405.7 2481.18 405.142C2480.63 404.602 2479.94 404.332 2479.11 404.332C2477.44 404.332 2476.23 405.502 2476.23 407.302ZM2487.49 415.6H2485.44V402.64H2487.49V403.486C2488.05 402.784 2489.07 402.424 2490.08 402.424C2491.47 402.424 2492.58 402.856 2493.39 403.738C2494.2 404.62 2494.62 405.754 2494.62 407.158C2494.62 408.616 2494.18 409.804 2493.32 410.74C2492.46 411.694 2491.32 412.162 2489.94 412.162C2488.73 412.162 2487.9 411.91 2487.49 411.388V415.6ZM2489.86 404.332C2488.73 404.332 2487.9 404.98 2487.49 405.862V409.102C2487.94 409.876 2488.68 410.254 2489.7 410.254C2491.38 410.254 2492.49 409.066 2492.49 407.32C2492.49 405.448 2491.5 404.332 2489.86 404.332ZM2497.96 415.6H2495.91V402.64H2497.96V403.486C2498.52 402.784 2499.55 402.424 2500.55 402.424C2501.94 402.424 2503.06 402.856 2503.87 403.738C2504.68 404.62 2505.09 405.754 2505.09 407.158C2505.09 408.616 2504.66 409.804 2503.79 410.74C2502.93 411.694 2501.8 412.162 2500.41 412.162C2499.2 412.162 2498.38 411.91 2497.96 411.388V415.6ZM2500.34 404.332C2499.2 404.332 2498.38 404.98 2497.96 405.862V409.102C2498.41 409.876 2499.15 410.254 2500.18 410.254C2501.85 410.254 2502.97 409.066 2502.97 407.32C2502.97 405.448 2501.98 404.332 2500.34 404.332ZM2505.95 407.302C2505.95 405.88 2506.42 404.71 2507.35 403.792C2508.27 402.874 2509.48 402.424 2510.95 402.424C2512.43 402.424 2513.64 402.874 2514.57 403.792C2515.51 404.71 2515.98 405.88 2515.98 407.302C2515.98 408.706 2515.51 409.858 2514.57 410.776C2513.64 411.694 2512.43 412.162 2510.95 412.162C2509.5 412.162 2508.31 411.694 2507.37 410.776C2506.42 409.858 2505.95 408.706 2505.95 407.302ZM2508.07 407.302C2508.07 408.148 2508.34 408.85 2508.88 409.408C2509.41 409.966 2510.11 410.254 2510.95 410.254C2512.68 410.254 2513.85 409.084 2513.85 407.302C2513.85 406.42 2513.58 405.7 2513.02 405.142C2512.47 404.602 2511.78 404.332 2510.95 404.332C2509.28 404.332 2508.07 405.502 2508.07 407.302ZM2519.33 412H2517.28V402.64H2519.33V403.27C2519.56 402.784 2520.32 402.442 2521.02 402.442C2521.83 402.442 2522.44 402.712 2522.87 403.27L2521.7 404.764C2521.52 404.494 2521.22 404.35 2520.77 404.35C2520.1 404.35 2519.54 404.818 2519.33 405.664V412ZM2524.35 404.548H2522.73V402.64H2524.35V400.714H2526.41V402.64H2529.43V404.548H2526.41V408.166C2526.41 409.66 2526.75 410.2 2527.61 410.2C2528.1 410.2 2528.53 409.93 2528.94 409.408L2530.17 410.56C2529.65 411.478 2528.55 412.108 2527.31 412.108C2525.49 412.108 2524.35 410.92 2524.35 408.742V404.548ZM2537.33 402.586H2539.39V412H2537.33V411.01C2536.65 411.784 2535.79 412.162 2534.72 412.162C2532.11 412.162 2530.84 410.83 2530.84 407.968V402.586H2532.89V407.77C2532.89 409.426 2533.57 410.254 2534.92 410.254C2535.98 410.254 2536.79 409.714 2537.33 408.634V402.586ZM2543.17 412H2541.12V402.64H2543.17V403.486C2543.87 402.784 2544.84 402.442 2546.05 402.442C2548.55 402.442 2549.81 403.864 2549.81 406.708V412H2547.76V406.87C2547.76 405.088 2547.04 404.35 2545.45 404.35C2544.45 404.35 2543.58 404.944 2543.17 405.934V412ZM2553.72 412H2551.66V402.64H2553.72V412ZM2551.48 399.958C2551.48 399.328 2552.02 398.878 2552.69 398.878C2553.36 398.878 2553.88 399.364 2553.88 399.958C2553.88 400.606 2553.36 401.074 2552.69 401.074C2551.97 401.074 2551.48 400.606 2551.48 399.958ZM2556.33 404.548H2554.71V402.64H2556.33V400.714H2558.38V402.64H2561.41V404.548H2558.38V408.166C2558.38 409.66 2558.72 410.2 2559.59 410.2C2560.07 410.2 2560.51 409.93 2560.92 409.408L2562.14 410.56C2561.62 411.478 2560.52 412.108 2559.28 412.108C2557.46 412.108 2556.33 410.92 2556.33 408.742V404.548ZM2565.1 412H2563.05V402.64H2565.1V412ZM2562.87 399.958C2562.87 399.328 2563.41 398.878 2564.07 398.878C2564.74 398.878 2565.26 399.364 2565.26 399.958C2565.26 400.606 2564.74 401.074 2564.07 401.074C2563.35 401.074 2562.87 400.606 2562.87 399.958ZM2574.12 409.012L2575.38 410.254C2574.43 411.532 2573.17 412.162 2571.58 412.162C2570.07 412.162 2568.86 411.712 2567.95 410.83C2567.03 409.948 2566.56 408.778 2566.56 407.302C2566.56 405.88 2566.99 404.71 2567.84 403.792C2568.68 402.874 2569.85 402.424 2571.37 402.424C2572.64 402.424 2573.69 402.82 2574.52 403.594C2575.34 404.386 2575.76 405.43 2575.76 406.708C2575.76 407.014 2575.72 407.464 2575.65 408.022L2568.7 408.022C2568.86 409.462 2570.02 410.254 2571.62 410.254C2572.68 410.254 2573.51 409.84 2574.12 409.012ZM2571.28 404.278C2569.91 404.278 2568.99 405.016 2568.72 406.24H2573.63C2573.47 404.962 2572.63 404.278 2571.28 404.278ZM2582.51 409.336C2582.51 408.562 2580.46 408.256 2578.86 407.662C2577.74 407.248 2576.84 406.384 2576.84 405.214C2576.84 403.486 2578.3 402.424 2580.7 402.424C2582.3 402.424 2583.83 403.162 2584.48 404.08L2583.07 405.412C2582.44 404.692 2581.54 404.332 2580.35 404.332C2579.44 404.332 2578.97 404.62 2578.97 405.178C2578.97 406.456 2584.64 406.042 2584.64 409.318C2584.64 410.254 2584.28 410.956 2583.54 411.442C2582.8 411.928 2581.88 412.162 2580.79 412.162C2578.77 412.162 2577.15 411.226 2576.45 409.912L2578.07 408.796C2578.59 409.642 2579.78 410.254 2580.98 410.254C2581.85 410.254 2582.51 409.966 2582.51 409.336ZM2590.5 404.548H2588.98V402.64H2590.5V402.334C2590.5 399.832 2591.9 398.716 2593.77 398.716C2594.78 398.716 2595.7 399.148 2596.18 399.814L2595.03 401.11C2594.76 400.786 2594.38 400.624 2593.88 400.624C2593 400.624 2592.55 401.218 2592.55 402.388V402.64H2595.18V404.548H2592.55V412H2590.5V404.548ZM2595.18 407.302C2595.18 405.88 2595.65 404.71 2596.58 403.792C2597.5 402.874 2598.71 402.424 2600.18 402.424C2601.66 402.424 2602.86 402.874 2603.8 403.792C2604.74 404.71 2605.2 405.88 2605.2 407.302C2605.2 408.706 2604.74 409.858 2603.8 410.776C2602.86 411.694 2601.66 412.162 2600.18 412.162C2598.72 412.162 2597.54 411.694 2596.6 410.776C2595.65 409.858 2595.18 408.706 2595.18 407.302ZM2597.3 407.302C2597.3 408.148 2597.57 408.85 2598.11 409.408C2598.63 409.966 2599.34 410.254 2600.18 410.254C2601.91 410.254 2603.08 409.084 2603.08 407.302C2603.08 406.42 2602.81 405.7 2602.25 405.142C2601.69 404.602 2601.01 404.332 2600.18 404.332C2598.51 404.332 2597.3 405.502 2597.3 407.302ZM2608.56 412H2606.5V402.64H2608.56V403.27C2608.79 402.784 2609.55 402.442 2610.25 402.442C2611.06 402.442 2611.67 402.712 2612.1 403.27L2610.93 404.764C2610.75 404.494 2610.45 404.35 2610 404.35C2609.33 404.35 2608.77 404.818 2608.56 405.664V412ZM2617.66 404.548H2616.04V402.64H2617.66V400.714H2619.71V402.64H2622.73V404.548H2619.71V408.166C2619.71 409.66 2620.05 410.2 2620.92 410.2C2621.4 410.2 2621.83 409.93 2622.25 409.408L2623.47 410.56C2622.95 411.478 2621.85 412.108 2620.61 412.108C2618.79 412.108 2617.66 410.92 2617.66 408.742V404.548ZM2626.24 412H2624.19V402.64H2626.24V403.27C2626.48 402.784 2627.23 402.442 2627.94 402.442C2628.75 402.442 2629.36 402.712 2629.79 403.27L2628.62 404.764C2628.44 404.494 2628.13 404.35 2627.68 404.35C2627.02 404.35 2626.46 404.818 2626.24 405.664V412ZM2631.56 405.322L2630.55 403.81C2631.43 402.946 2632.95 402.424 2634.48 402.424C2636.92 402.424 2638.31 403.828 2638.31 406.276V412H2636.26V410.974C2635.57 411.73 2634.6 412.108 2633.36 412.108C2631.29 412.108 2629.96 410.956 2629.96 409.156C2629.96 407.158 2631.69 406.186 2634.33 406.186C2635.11 406.186 2635.75 406.276 2636.26 406.438C2636.28 405.016 2635.7 404.332 2634.24 404.332C2633.32 404.332 2632.42 404.656 2631.56 405.322ZM2633.81 410.326C2634.87 410.326 2635.7 409.894 2636.26 409.048V408.148C2635.75 407.986 2635.18 407.896 2634.55 407.896C2632.91 407.896 2632.08 408.31 2632.08 409.138C2632.08 409.876 2632.75 410.326 2633.81 410.326ZM2642.22 412H2640.17V402.64H2642.22V412ZM2639.99 399.958C2639.99 399.328 2640.53 398.878 2641.19 398.878C2641.86 398.878 2642.38 399.364 2642.38 399.958C2642.38 400.606 2641.86 401.074 2641.19 401.074C2640.47 401.074 2639.99 400.606 2639.99 399.958ZM2646.17 412H2644.11V402.64H2646.17V403.486C2646.87 402.784 2647.84 402.442 2649.05 402.442C2651.55 402.442 2652.81 403.864 2652.81 406.708V412H2650.76V406.87C2650.76 405.088 2650.04 404.35 2648.45 404.35C2647.44 404.35 2646.58 404.944 2646.17 405.934V412ZM2656.71 412H2654.66V402.64H2656.71V412ZM2654.48 399.958C2654.48 399.328 2655.02 398.878 2655.69 398.878C2656.35 398.878 2656.87 399.364 2656.87 399.958C2656.87 400.606 2656.35 401.074 2655.69 401.074C2654.97 401.074 2654.48 400.606 2654.48 399.958ZM2660.66 412H2658.61V402.64H2660.66V403.486C2661.36 402.784 2662.33 402.442 2663.54 402.442C2666.04 402.442 2667.3 403.864 2667.3 406.708V412H2665.25V406.87C2665.25 405.088 2664.53 404.35 2662.95 404.35C2661.94 404.35 2661.07 404.944 2660.66 405.934V412ZM2675.62 402.64H2677.67V411.244C2677.67 414.268 2676.03 415.762 2673.35 415.762C2671.24 415.762 2669.66 414.862 2669.1 413.35L2670.88 412.576C2671.26 413.296 2672.05 413.854 2673.19 413.854C2674.81 413.854 2675.62 413.116 2675.62 411.622V411.208C2675.2 411.838 2674.37 412.162 2673.13 412.162C2671.75 412.162 2670.65 411.73 2669.8 410.866C2668.96 410.02 2668.54 408.832 2668.54 407.302C2668.54 405.844 2668.99 404.674 2669.89 403.792C2670.77 402.91 2671.87 402.478 2673.15 402.478C2674.25 402.478 2675.08 402.73 2675.62 403.252V402.64ZM2673.47 410.254C2674.5 410.254 2675.33 409.624 2675.62 408.832V405.376C2675.18 404.71 2674.46 404.386 2673.46 404.386C2671.87 404.386 2670.67 405.466 2670.67 407.338C2670.67 409.192 2671.73 410.254 2673.47 410.254ZM2680.58 412C2679.79 412.09 2679.27 411.388 2679.27 410.758C2679.27 410.02 2679.83 409.372 2680.71 409.372C2681.77 409.372 2682.2 410.254 2682.2 411.352C2682.2 412.144 2681.91 412.846 2681.36 413.44C2680.8 414.034 2680.17 414.412 2679.47 414.556L2678.96 413.368C2679.27 413.314 2679.61 413.134 2679.99 412.846C2680.35 412.54 2680.55 412.27 2680.58 412ZM2401.12 428.922L2402.58 429.858C2401.84 431.316 2400.24 432.162 2398.56 432.162C2397.05 432.162 2395.83 431.712 2394.91 430.83C2393.99 429.948 2393.52 428.76 2393.52 427.302C2393.52 425.898 2393.97 424.728 2394.89 423.81C2395.81 422.892 2397 422.424 2398.45 422.424C2400.33 422.424 2401.84 423.27 2402.47 424.548L2400.94 425.556C2400.33 424.746 2399.53 424.332 2398.54 424.332C2396.83 424.332 2395.65 425.556 2395.65 427.302C2395.65 428.148 2395.93 428.85 2396.51 429.408C2397.07 429.966 2397.82 430.254 2398.76 430.254C2399.75 430.254 2400.52 429.804 2401.12 428.922ZM2404.47 425.322L2403.46 423.81C2404.34 422.946 2405.85 422.424 2407.38 422.424C2409.83 422.424 2411.22 423.828 2411.22 426.276V432H2409.17V430.974C2408.48 431.73 2407.51 432.108 2406.27 432.108C2404.2 432.108 2402.87 430.956 2402.87 429.156C2402.87 427.158 2404.59 426.186 2407.24 426.186C2408.01 426.186 2408.66 426.276 2409.17 426.438C2409.18 425.016 2408.61 424.332 2407.15 424.332C2406.23 424.332 2405.33 424.656 2404.47 425.322ZM2406.72 430.326C2407.78 430.326 2408.61 429.894 2409.17 429.048V428.148C2408.66 427.986 2408.09 427.896 2407.46 427.896C2405.82 427.896 2404.99 428.31 2404.99 429.138C2404.99 429.876 2405.66 430.326 2406.72 430.326ZM2414.95 432H2412.89V422.64H2414.95V423.27C2415.18 422.784 2415.94 422.442 2416.64 422.442C2417.45 422.442 2418.06 422.712 2418.49 423.27L2417.32 424.764C2417.14 424.494 2416.84 424.35 2416.39 424.35C2415.72 424.35 2415.16 424.818 2414.95 425.664V432ZM2425.91 429.012L2427.17 430.254C2426.21 431.532 2424.95 432.162 2423.37 432.162C2421.86 432.162 2420.65 431.712 2419.73 430.83C2418.82 429.948 2418.35 428.778 2418.35 427.302C2418.35 425.88 2418.78 424.71 2419.63 423.792C2420.47 422.874 2421.64 422.424 2423.15 422.424C2424.43 422.424 2425.48 422.82 2426.3 423.594C2427.13 424.386 2427.55 425.43 2427.55 426.708C2427.55 427.014 2427.51 427.464 2427.44 428.022H2420.49C2420.65 429.462 2421.8 430.254 2423.41 430.254C2424.47 430.254 2425.3 429.84 2425.91 429.012ZM2423.06 424.278C2421.7 424.278 2420.78 425.016 2420.51 426.24H2425.42C2425.26 424.962 2424.41 424.278 2423.06 424.278ZM2435.8 429.012L2437.06 430.254C2436.11 431.532 2434.85 432.162 2433.26 432.162C2431.75 432.162 2430.54 431.712 2429.63 430.83C2428.71 429.948 2428.24 428.778 2428.24 427.302C2428.24 425.88 2428.67 424.71 2429.52 423.792C2430.36 422.874 2431.53 422.424 2433.05 422.424C2434.32 422.424 2435.37 422.82 2436.2 423.594C2437.02 424.386 2437.44 425.43 2437.44 426.708C2437.44 427.014 2437.4 427.464 2437.33 428.022H2430.38C2430.54 429.462 2431.7 430.254 2433.3 430.254C2434.36 430.254 2435.19 429.84 2435.8 429.012ZM2432.96 424.278C2431.59 424.278 2430.67 425.016 2430.4 426.24H2435.31C2435.15 424.962 2434.31 424.278 2432.96 424.278ZM2440.79 432H2438.74V422.64H2440.79V423.27C2441.03 422.784 2441.78 422.442 2442.48 422.442C2443.29 422.442 2443.91 422.712 2444.34 423.27L2443.17 424.764C2442.99 424.494 2442.68 424.35 2442.23 424.35C2441.57 424.35 2441.01 424.818 2440.79 425.664V432ZM2457.94 432H2455.89V430.974C2455.47 431.55 2454.5 432.144 2453.26 432.144C2451.91 432.144 2450.81 431.712 2449.98 430.866C2449.15 430.02 2448.74 428.832 2448.74 427.338C2448.74 425.916 2449.19 424.728 2450.11 423.81C2451.01 422.892 2452.11 422.424 2453.4 422.424C2454.52 422.424 2455.35 422.658 2455.89 423.126V418.86H2457.94V432ZM2453.64 430.236C2454.64 430.236 2455.54 429.552 2455.89 428.778V425.358C2455.4 424.674 2454.7 424.332 2453.74 424.332C2452.11 424.332 2450.86 425.484 2450.86 427.302C2450.86 429.102 2451.98 430.236 2453.64 430.236ZM2466.79 429.012L2468.05 430.254C2467.1 431.532 2465.84 432.162 2464.25 432.162C2462.74 432.162 2461.53 431.712 2460.62 430.83C2459.7 429.948 2459.23 428.778 2459.23 427.302C2459.23 425.88 2459.66 424.71 2460.51 423.792C2461.35 422.874 2462.52 422.424 2464.04 422.424C2465.31 422.424 2466.36 422.82 2467.19 423.594C2468.01 424.386 2468.43 425.43 2468.43 426.708C2468.43 427.014 2468.39 427.464 2468.32 428.022H2461.37C2461.53 429.462 2462.69 430.254 2464.29 430.254C2465.35 430.254 2466.18 429.84 2466.79 429.012ZM2463.95 424.278C2462.58 424.278 2461.66 425.016 2461.39 426.24H2466.3C2466.14 424.962 2465.3 424.278 2463.95 424.278ZM2475.95 422.64H2478.13L2473.97 432H2472.46L2468.1 422.64H2470.42L2473.25 428.886L2475.95 422.64ZM2485.29 429.012L2486.55 430.254C2485.6 431.532 2484.34 432.162 2482.75 432.162C2481.24 432.162 2480.04 431.712 2479.12 430.83C2478.2 429.948 2477.73 428.778 2477.73 427.302C2477.73 425.88 2478.16 424.71 2479.01 423.792C2479.86 422.874 2481.03 422.424 2482.54 422.424C2483.82 422.424 2484.86 422.82 2485.69 423.594C2486.52 424.386 2486.93 425.43 2486.93 426.708C2486.93 427.014 2486.89 427.464 2486.82 428.022H2479.87C2480.04 429.462 2481.19 430.254 2482.79 430.254C2483.85 430.254 2484.68 429.84 2485.29 429.012ZM2482.45 424.278C2481.08 424.278 2480.16 425.016 2479.89 426.24H2484.81C2484.64 424.962 2483.8 424.278 2482.45 424.278ZM2490.28 432H2488.23V418.86H2490.28V432ZM2491.57 427.302C2491.57 425.88 2492.04 424.71 2492.98 423.792C2493.9 422.874 2495.1 422.424 2496.58 422.424C2498.05 422.424 2499.26 422.874 2500.2 423.792C2501.13 424.71 2501.6 425.88 2501.6 427.302C2501.6 428.706 2501.13 429.858 2500.2 430.776C2499.26 431.694 2498.05 432.162 2496.58 432.162C2495.12 432.162 2493.93 431.694 2493 430.776C2492.04 429.858 2491.57 428.706 2491.57 427.302ZM2493.7 427.302C2493.7 428.148 2493.97 428.85 2494.51 429.408C2495.03 429.966 2495.73 430.254 2496.58 430.254C2498.31 430.254 2499.48 429.084 2499.48 427.302C2499.48 426.42 2499.21 425.7 2498.65 425.142C2498.09 424.602 2497.41 424.332 2496.58 424.332C2494.9 424.332 2493.7 425.502 2493.7 427.302ZM2504.95 435.6H2502.9V422.64H2504.95V423.486C2505.51 422.784 2506.54 422.424 2507.55 422.424C2508.93 422.424 2510.05 422.856 2510.86 423.738C2511.67 424.62 2512.08 425.754 2512.08 427.158C2512.08 428.616 2511.65 429.804 2510.79 430.74C2509.92 431.694 2508.79 432.162 2507.4 432.162C2506.2 432.162 2505.37 431.91 2504.95 431.388V435.6ZM2507.33 424.332C2506.2 424.332 2505.37 424.98 2504.95 425.862V429.102C2505.4 429.876 2506.14 430.254 2507.17 430.254C2508.84 430.254 2509.96 429.066 2509.96 427.32C2509.96 425.448 2508.97 424.332 2507.33 424.332ZM2526.84 425.79V432H2524.79V426.366C2524.79 425.016 2524.26 424.35 2523.22 424.35C2522.27 424.35 2521.56 424.836 2521.13 425.79V432H2519.08V425.916C2519.08 424.98 2518.5 424.35 2517.55 424.35C2516.54 424.35 2515.77 425.07 2515.43 425.88V432H2513.37V422.64H2515.43V423.45C2515.91 422.784 2516.76 422.442 2517.98 422.442C2519.15 422.442 2520 422.82 2520.52 423.594C2521.17 422.82 2522.1 422.442 2523.35 422.442C2525.56 422.442 2526.84 423.558 2526.84 425.79ZM2535.63 429.012L2536.89 430.254C2535.94 431.532 2534.68 432.162 2533.09 432.162C2531.58 432.162 2530.38 431.712 2529.46 430.83C2528.54 429.948 2528.07 428.778 2528.07 427.302C2528.07 425.88 2528.5 424.71 2529.35 423.792C2530.2 422.874 2531.37 422.424 2532.88 422.424C2534.16 422.424 2535.2 422.82 2536.03 423.594C2536.86 424.386 2537.27 425.43 2537.27 426.708C2537.27 427.014 2537.23 427.464 2537.16 428.022H2530.21C2530.38 429.462 2531.53 430.254 2533.13 430.254C2534.19 430.254 2535.02 429.84 2535.63 429.012ZM2532.79 424.278C2531.42 424.278 2530.5 425.016 2530.23 426.24H2535.15C2534.98 424.962 2534.14 424.278 2532.79 424.278ZM2540.62 432H2538.57V422.64H2540.62V423.486C2541.33 422.784 2542.3 422.442 2543.5 422.442C2546.01 422.442 2547.27 423.864 2547.27 426.708V432H2545.21V426.87C2545.21 425.088 2544.49 424.35 2542.91 424.35C2541.9 424.35 2541.04 424.944 2540.62 425.934V432ZM2549.66 424.548H2548.04V422.64H2549.66V420.714H2551.71V422.64H2554.73V424.548H2551.71V428.166C2551.71 429.66 2552.05 430.2 2552.92 430.2C2553.4 430.2 2553.83 429.93 2554.25 429.408L2555.47 430.56C2554.95 431.478 2553.85 432.108 2552.61 432.108C2550.79 432.108 2549.66 430.92 2549.66 428.742V424.548ZM2561.28 425.322L2560.27 423.81C2561.15 422.946 2562.66 422.424 2564.19 422.424C2566.64 422.424 2568.03 423.828 2568.03 426.276V432H2565.97V430.974C2565.29 431.73 2564.32 432.108 2563.08 432.108C2561.01 432.108 2559.67 430.956 2559.67 429.156C2559.67 427.158 2561.4 426.186 2564.05 426.186C2564.82 426.186 2565.47 426.276 2565.97 426.438C2565.99 425.016 2565.42 424.332 2563.96 424.332C2563.04 424.332 2562.14 424.656 2561.28 425.322ZM2563.53 430.326C2564.59 430.326 2565.42 429.894 2565.97 429.048V428.148C2565.47 427.986 2564.89 427.896 2564.26 427.896C2562.63 427.896 2561.8 428.31 2561.8 429.138C2561.8 429.876 2562.46 430.326 2563.53 430.326ZM2571.76 432H2569.7V422.64H2571.76V423.486C2572.46 422.784 2573.43 422.442 2574.64 422.442C2577.14 422.442 2578.4 423.864 2578.4 426.708V432H2576.35V426.87C2576.35 425.088 2575.63 424.35 2574.04 424.35C2573.03 424.35 2572.17 424.944 2571.76 425.934V432ZM2588.84 432H2586.78V430.974C2586.37 431.55 2585.4 432.144 2584.16 432.144C2582.81 432.144 2581.71 431.712 2580.88 430.866C2580.05 430.02 2579.64 428.832 2579.64 427.338C2579.64 425.916 2580.09 424.728 2581.01 423.81C2581.91 422.892 2583 422.424 2584.3 422.424C2585.42 422.424 2586.24 422.658 2586.78 423.126V418.86H2588.84V432ZM2584.53 430.236C2585.54 430.236 2586.44 429.552 2586.78 428.778V425.358C2586.3 424.674 2585.6 424.332 2584.64 424.332C2583 424.332 2581.76 425.484 2581.76 427.302C2581.76 429.102 2582.88 430.236 2584.53 430.236ZM2596.69 432H2594.63V422.64H2596.69V423.27C2596.92 422.784 2597.68 422.442 2598.38 422.442C2599.19 422.442 2599.8 422.712 2600.23 423.27L2599.06 424.764C2598.88 424.494 2598.58 424.35 2598.13 424.35C2597.46 424.35 2596.9 424.818 2596.69 425.664V432ZM2600.09 427.302C2600.09 425.88 2600.55 424.71 2601.49 423.792C2602.41 422.874 2603.61 422.424 2605.09 422.424C2606.57 422.424 2607.77 422.874 2608.71 423.792C2609.64 424.71 2610.11 425.88 2610.11 427.302C2610.11 428.706 2609.64 429.858 2608.71 430.776C2607.77 431.694 2606.57 432.162 2605.09 432.162C2603.63 432.162 2602.44 431.694 2601.51 430.776C2600.55 429.858 2600.09 428.706 2600.09 427.302ZM2602.21 427.302C2602.21 428.148 2602.48 428.85 2603.02 429.408C2603.54 429.966 2604.24 430.254 2605.09 430.254C2606.82 430.254 2607.99 429.084 2607.99 427.302C2607.99 426.42 2607.72 425.7 2607.16 425.142C2606.6 424.602 2605.92 424.332 2605.09 424.332C2603.42 424.332 2602.21 425.502 2602.21 427.302ZM2612.13 424.548H2610.51V422.64H2612.13V420.714H2614.18V422.64H2617.21V424.548H2614.18V428.166C2614.18 429.66 2614.53 430.2 2615.39 430.2C2615.88 430.2 2616.31 429.93 2616.72 429.408L2617.95 430.56C2617.42 431.478 2616.33 432.108 2615.08 432.108C2613.27 432.108 2612.13 430.92 2612.13 428.742V424.548ZM2619.68 425.322L2618.67 423.81C2619.55 422.946 2621.06 422.424 2622.59 422.424C2625.04 422.424 2626.43 423.828 2626.43 426.276V432H2624.37V430.974C2623.69 431.73 2622.72 432.108 2621.48 432.108C2619.41 432.108 2618.07 430.956 2618.07 429.156C2618.07 427.158 2619.8 426.186 2622.45 426.186C2623.22 426.186 2623.87 426.276 2624.37 426.438C2624.39 425.016 2623.82 424.332 2622.36 424.332C2621.44 424.332 2620.54 424.656 2619.68 425.322ZM2621.93 430.326C2622.99 430.326 2623.82 429.894 2624.37 429.048V428.148C2623.87 427.986 2623.29 427.896 2622.66 427.896C2621.03 427.896 2620.2 428.31 2620.2 429.138C2620.2 429.876 2620.86 430.326 2621.93 430.326ZM2628.82 424.548H2627.2V422.64H2628.82V420.714H2630.88V422.64H2633.9V424.548H2630.88V428.166C2630.88 429.66 2631.22 430.2 2632.08 430.2C2632.57 430.2 2633 429.93 2633.41 429.408L2634.64 430.56C2634.12 431.478 2633.02 432.108 2631.78 432.108C2629.96 432.108 2628.82 430.92 2628.82 428.742V424.548ZM2637.59 432H2635.54V422.64H2637.59V432ZM2635.36 419.958C2635.36 419.328 2635.9 418.878 2636.57 418.878C2637.23 418.878 2637.75 419.364 2637.75 419.958C2637.75 420.606 2637.23 421.074 2636.57 421.074C2635.85 421.074 2635.36 420.606 2635.36 419.958ZM2639.05 427.302C2639.05 425.88 2639.52 424.71 2640.46 423.792C2641.38 422.874 2642.58 422.424 2644.06 422.424C2645.53 422.424 2646.74 422.874 2647.68 423.792C2648.61 424.71 2649.08 425.88 2649.08 427.302C2649.08 428.706 2648.61 429.858 2647.68 430.776C2646.74 431.694 2645.53 432.162 2644.06 432.162C2642.6 432.162 2641.41 431.694 2640.48 430.776C2639.52 429.858 2639.05 428.706 2639.05 427.302ZM2641.18 427.302C2641.18 428.148 2641.45 428.85 2641.99 429.408C2642.51 429.966 2643.21 430.254 2644.06 430.254C2645.79 430.254 2646.96 429.084 2646.96 427.302C2646.96 426.42 2646.69 425.7 2646.13 425.142C2645.57 424.602 2644.89 424.332 2644.06 424.332C2642.38 424.332 2641.18 425.502 2641.18 427.302ZM2652.43 432H2650.38V422.64H2652.43V423.486C2653.13 422.784 2654.11 422.442 2655.31 422.442C2657.81 422.442 2659.07 423.864 2659.07 426.708V432H2657.02V426.87C2657.02 425.088 2656.3 424.35 2654.72 424.35C2653.71 424.35 2652.85 424.944 2652.43 425.934V432Z" fill="#3C525E"/>
<path d="M2403.91 782.4L2405.19 783.804C2404.16 785.262 2402.23 786.144 2400.07 786.144C2398.09 786.144 2396.53 785.55 2395.36 784.38C2394.19 783.21 2393.59 781.662 2393.59 779.7C2393.59 777.864 2394.19 776.334 2395.38 775.092C2396.56 773.868 2398.11 773.256 2400.04 773.256C2402.25 773.256 2404.11 774.138 2404.99 775.434L2403.55 776.802C2402.67 775.83 2401.53 775.344 2400.15 775.344C2398.85 775.344 2397.81 775.74 2397.03 776.532C2396.26 777.324 2395.86 778.386 2395.86 779.7C2395.86 781.014 2396.28 782.058 2397.09 782.85C2397.9 783.66 2398.94 784.056 2400.24 784.056C2401.77 784.056 2402.99 783.498 2403.91 782.4ZM2405.33 781.302C2405.33 779.88 2405.8 778.71 2406.73 777.792C2407.65 776.874 2408.86 776.424 2410.33 776.424C2411.81 776.424 2413.02 776.874 2413.95 777.792C2414.89 778.71 2415.36 779.88 2415.36 781.302C2415.36 782.706 2414.89 783.858 2413.95 784.776C2413.02 785.694 2411.81 786.162 2410.33 786.162C2408.88 786.162 2407.69 785.694 2406.75 784.776C2405.8 783.858 2405.33 782.706 2405.33 781.302ZM2407.45 781.302C2407.45 782.148 2407.72 782.85 2408.26 783.408C2408.79 783.966 2409.49 784.254 2410.33 784.254C2412.06 784.254 2413.23 783.084 2413.23 781.302C2413.23 780.42 2412.96 779.7 2412.4 779.142C2411.85 778.602 2411.16 778.332 2410.33 778.332C2408.66 778.332 2407.45 779.502 2407.45 781.302ZM2418.71 786H2416.66V776.64H2418.71V777.486C2419.41 776.784 2420.38 776.442 2421.59 776.442C2424.09 776.442 2425.35 777.864 2425.35 780.708V786H2423.3V780.87C2423.3 779.088 2422.58 778.35 2420.99 778.35C2419.99 778.35 2419.12 778.944 2418.71 779.934V786ZM2435.79 786H2433.74V784.974C2433.32 785.55 2432.35 786.144 2431.11 786.144C2429.76 786.144 2428.66 785.712 2427.83 784.866C2427.01 784.02 2426.59 782.832 2426.59 781.338C2426.59 779.916 2427.04 778.728 2427.96 777.81C2428.86 776.892 2429.96 776.424 2431.25 776.424C2432.37 776.424 2433.2 776.658 2433.74 777.126V772.86H2435.79V786ZM2431.49 784.236C2432.5 784.236 2433.4 783.552 2433.74 782.778V779.358C2433.25 778.674 2432.55 778.332 2431.6 778.332C2429.96 778.332 2428.72 779.484 2428.72 781.302C2428.72 783.102 2429.83 784.236 2431.49 784.236ZM2443.96 776.586H2446.01V786H2443.96V785.01C2443.27 785.784 2442.41 786.162 2441.35 786.162C2438.74 786.162 2437.46 784.83 2437.46 781.968V776.586H2439.51V781.77C2439.51 783.426 2440.2 784.254 2441.55 784.254C2442.61 784.254 2443.42 783.714 2443.96 782.634V776.586ZM2454.9 782.922L2456.36 783.858C2455.62 785.316 2454.02 786.162 2452.35 786.162C2450.84 786.162 2449.61 785.712 2448.69 784.83C2447.78 783.948 2447.31 782.76 2447.31 781.302C2447.31 779.898 2447.76 778.728 2448.68 777.81C2449.59 776.892 2450.78 776.424 2452.24 776.424C2454.11 776.424 2455.62 777.27 2456.25 778.548L2454.72 779.556C2454.11 778.746 2453.32 778.332 2452.33 778.332C2450.62 778.332 2449.43 779.556 2449.43 781.302C2449.43 782.148 2449.72 782.85 2450.3 783.408C2450.85 783.966 2451.61 784.254 2452.55 784.254C2453.54 784.254 2454.31 783.804 2454.9 782.922ZM2457.97 778.548H2456.35V776.64H2457.97V774.714H2460.02V776.64H2463.04V778.548H2460.02V782.166C2460.02 783.66 2460.36 784.2 2461.22 784.2C2461.71 784.2 2462.14 783.93 2462.56 783.408L2463.78 784.56C2463.26 785.478 2462.16 786.108 2460.92 786.108C2459.1 786.108 2457.97 784.92 2457.97 782.742V778.548ZM2466.73 786H2464.68V776.64H2466.73V786ZM2464.5 773.958C2464.5 773.328 2465.04 772.878 2465.71 772.878C2466.37 772.878 2466.89 773.364 2466.89 773.958C2466.89 774.606 2466.37 775.074 2465.71 775.074C2464.99 775.074 2464.5 774.606 2464.5 773.958ZM2470.68 786H2468.63V776.64H2470.68V777.486C2471.38 776.784 2472.35 776.442 2473.56 776.442C2476.06 776.442 2477.32 777.864 2477.32 780.708V786H2475.27V780.87C2475.27 779.088 2474.55 778.35 2472.97 778.35C2471.96 778.35 2471.09 778.944 2470.68 779.934V786ZM2485.64 776.64H2487.69V785.244C2487.69 788.268 2486.05 789.762 2483.37 789.762C2481.26 789.762 2479.68 788.862 2479.12 787.35L2480.9 786.576C2481.28 787.296 2482.07 787.854 2483.21 787.854C2484.83 787.854 2485.64 787.116 2485.64 785.622V785.208C2485.22 785.838 2484.39 786.162 2483.15 786.162C2481.77 786.162 2480.67 785.73 2479.82 784.866C2478.98 784.02 2478.56 782.832 2478.56 781.302C2478.56 779.844 2479.01 778.674 2479.91 777.792C2480.79 776.91 2481.89 776.478 2483.17 776.478C2484.27 776.478 2485.1 776.73 2485.64 777.252V776.64ZM2483.49 784.254C2484.52 784.254 2485.35 783.624 2485.64 782.832V779.376C2485.2 778.71 2484.48 778.386 2483.48 778.386C2481.89 778.386 2480.69 779.466 2480.69 781.338C2480.69 783.192 2481.75 784.254 2483.49 784.254ZM2500.65 782.922L2502.11 783.858C2501.37 785.316 2499.77 786.162 2498.1 786.162C2496.58 786.162 2495.36 785.712 2494.44 784.83C2493.52 783.948 2493.06 782.76 2493.06 781.302C2493.06 779.898 2493.51 778.728 2494.42 777.81C2495.34 776.892 2496.53 776.424 2497.99 776.424C2499.86 776.424 2501.37 777.27 2502 778.548L2500.47 779.556C2499.86 778.746 2499.07 778.332 2498.08 778.332C2496.37 778.332 2495.18 779.556 2495.18 781.302C2495.18 782.148 2495.47 782.85 2496.04 783.408C2496.6 783.966 2497.36 784.254 2498.29 784.254C2499.28 784.254 2500.06 783.804 2500.65 782.922ZM2502.05 781.302C2502.05 779.88 2502.52 778.71 2503.46 777.792C2504.37 776.874 2505.58 776.424 2507.06 776.424C2508.53 776.424 2509.74 776.874 2510.67 777.792C2511.61 778.71 2512.08 779.88 2512.08 781.302C2512.08 782.706 2511.61 783.858 2510.67 784.776C2509.74 785.694 2508.53 786.162 2507.06 786.162C2505.6 786.162 2504.41 785.694 2503.47 784.776C2502.52 783.858 2502.05 782.706 2502.05 781.302ZM2504.18 781.302C2504.18 782.148 2504.45 782.85 2504.99 783.408C2505.51 783.966 2506.21 784.254 2507.06 784.254C2508.78 784.254 2509.95 783.084 2509.95 781.302C2509.95 780.42 2509.68 779.7 2509.13 779.142C2508.57 778.602 2507.88 778.332 2507.06 778.332C2505.38 778.332 2504.18 779.502 2504.18 781.302ZM2515.43 786H2513.38V776.64H2515.43V777.27C2515.66 776.784 2516.42 776.442 2517.12 776.442C2517.93 776.442 2518.54 776.712 2518.98 777.27L2517.81 778.764C2517.63 778.494 2517.32 778.35 2516.87 778.35C2516.2 778.35 2515.65 778.818 2515.43 779.664V786ZM2521.79 789.6H2519.74V776.64H2521.79V777.486C2522.35 776.784 2523.37 776.424 2524.38 776.424C2525.77 776.424 2526.88 776.856 2527.69 777.738C2528.5 778.62 2528.92 779.754 2528.92 781.158C2528.92 782.616 2528.48 783.804 2527.62 784.74C2526.76 785.694 2525.62 786.162 2524.24 786.162C2523.03 786.162 2522.2 785.91 2521.79 785.388V789.6ZM2524.16 778.332C2523.03 778.332 2522.2 778.98 2521.79 779.862V783.102C2522.24 783.876 2522.98 784.254 2524 784.254C2525.68 784.254 2526.79 783.066 2526.79 781.32C2526.79 779.448 2525.8 778.332 2524.16 778.332ZM2529.78 781.302C2529.78 779.88 2530.25 778.71 2531.18 777.792C2532.1 776.874 2533.31 776.424 2534.78 776.424C2536.26 776.424 2537.46 776.874 2538.4 777.792C2539.34 778.71 2539.8 779.88 2539.8 781.302C2539.8 782.706 2539.34 783.858 2538.4 784.776C2537.46 785.694 2536.26 786.162 2534.78 786.162C2533.32 786.162 2532.14 785.694 2531.2 784.776C2530.25 783.858 2529.78 782.706 2529.78 781.302ZM2531.9 781.302C2531.9 782.148 2532.17 782.85 2532.71 783.408C2533.23 783.966 2533.94 784.254 2534.78 784.254C2536.51 784.254 2537.68 783.084 2537.68 781.302C2537.68 780.42 2537.41 779.7 2536.85 779.142C2536.29 778.602 2535.61 778.332 2534.78 778.332C2533.11 778.332 2531.9 779.502 2531.9 781.302ZM2543.16 786H2541.1V776.64H2543.16V777.27C2543.39 776.784 2544.15 776.442 2544.85 776.442C2545.66 776.442 2546.27 776.712 2546.7 777.27L2545.53 778.764C2545.35 778.494 2545.05 778.35 2544.6 778.35C2543.93 778.35 2543.37 778.818 2543.16 779.664V786ZM2548.47 779.322L2547.46 777.81C2548.34 776.946 2549.86 776.424 2551.39 776.424C2553.83 776.424 2555.22 777.828 2555.22 780.276V786H2553.17V784.974C2552.48 785.73 2551.51 786.108 2550.27 786.108C2548.2 786.108 2546.87 784.956 2546.87 783.156C2546.87 781.158 2548.6 780.186 2551.24 780.186C2552.02 780.186 2552.66 780.276 2553.17 780.438C2553.19 779.016 2552.61 778.332 2551.15 778.332C2550.23 778.332 2549.33 778.656 2548.47 779.322ZM2550.72 784.326C2551.78 784.326 2552.61 783.894 2553.17 783.048V782.148C2552.66 781.986 2552.09 781.896 2551.46 781.896C2549.82 781.896 2548.99 782.31 2548.99 783.138C2548.99 783.876 2549.66 784.326 2550.72 784.326ZM2557.62 778.548H2556V776.64H2557.62V774.714H2559.67V776.64H2562.69V778.548H2559.67V782.166C2559.67 783.66 2560.01 784.2 2560.88 784.2C2561.36 784.2 2561.79 783.93 2562.21 783.408L2563.43 784.56C2562.91 785.478 2561.81 786.108 2560.57 786.108C2558.75 786.108 2557.62 784.92 2557.62 782.742V778.548ZM2570.89 783.012L2572.15 784.254C2571.2 785.532 2569.94 786.162 2568.36 786.162C2566.84 786.162 2565.64 785.712 2564.72 784.83C2563.8 783.948 2563.33 782.778 2563.33 781.302C2563.33 779.88 2563.77 778.71 2564.61 777.792C2565.46 776.874 2566.63 776.424 2568.14 776.424C2569.42 776.424 2570.46 776.82 2571.29 777.594C2572.12 778.386 2572.53 779.43 2572.53 780.708C2572.53 781.014 2572.5 781.464 2572.42 782.022H2565.48C2565.64 783.462 2566.79 784.254 2568.39 784.254C2569.45 784.254 2570.28 783.84 2570.89 783.012ZM2568.05 778.278C2566.68 778.278 2565.76 779.016 2565.49 780.24H2570.41C2570.25 778.962 2569.4 778.278 2568.05 778.278ZM2585.04 783.012L2586.3 784.254C2585.34 785.532 2584.08 786.162 2582.5 786.162C2580.99 786.162 2579.78 785.712 2578.86 784.83C2577.94 783.948 2577.48 782.778 2577.48 781.302C2577.48 779.88 2577.91 778.71 2578.75 777.792C2579.6 776.874 2580.77 776.424 2582.28 776.424C2583.56 776.424 2584.6 776.82 2585.43 777.594C2586.26 778.386 2586.67 779.43 2586.67 780.708C2586.67 781.014 2586.64 781.464 2586.57 782.022H2579.62C2579.78 783.462 2580.93 784.254 2582.53 784.254C2583.6 784.254 2584.42 783.84 2585.04 783.012ZM2582.19 778.278C2580.82 778.278 2579.91 779.016 2579.64 780.24H2584.55C2584.39 778.962 2583.54 778.278 2582.19 778.278ZM2594.19 776.64H2596.37L2592.21 786H2590.7L2586.35 776.64H2588.67L2591.49 782.886L2594.19 776.64ZM2603.54 783.012L2604.8 784.254C2603.84 785.532 2602.58 786.162 2601 786.162C2599.49 786.162 2598.28 785.712 2597.36 784.83C2596.45 783.948 2595.98 782.778 2595.98 781.302C2595.98 779.88 2596.41 778.71 2597.26 777.792C2598.1 776.874 2599.27 776.424 2600.78 776.424C2602.06 776.424 2603.11 776.82 2603.93 777.594C2604.76 778.386 2605.18 779.43 2605.18 780.708C2605.18 781.014 2605.14 781.464 2605.07 782.022H2598.12C2598.28 783.462 2599.43 784.254 2601.04 784.254C2602.1 784.254 2602.93 783.84 2603.54 783.012ZM2600.69 778.278C2599.33 778.278 2598.41 779.016 2598.14 780.24H2603.05C2602.89 778.962 2602.04 778.278 2600.69 778.278ZM2608.53 786H2606.48V776.64H2608.53V777.486C2609.23 776.784 2610.2 776.442 2611.41 776.442C2613.91 776.442 2615.17 777.864 2615.17 780.708V786H2613.12V780.87C2613.12 779.088 2612.4 778.35 2610.82 778.35C2609.81 778.35 2608.94 778.944 2608.53 779.934V786ZM2617.56 778.548H2615.94V776.64H2617.56V774.714H2619.62V776.64H2622.64V778.548H2619.62V782.166C2619.62 783.66 2619.96 784.2 2620.82 784.2C2621.31 784.2 2621.74 783.93 2622.15 783.408L2623.38 784.56C2622.86 785.478 2621.76 786.108 2620.52 786.108C2618.7 786.108 2617.56 784.92 2617.56 782.742V778.548ZM2629.55 783.336C2629.55 782.562 2627.5 782.256 2625.9 781.662C2624.78 781.248 2623.88 780.384 2623.88 779.214C2623.88 777.486 2625.34 776.424 2627.74 776.424C2629.34 776.424 2630.87 777.162 2631.52 778.08L2630.11 779.412C2629.48 778.692 2628.58 778.332 2627.39 778.332C2626.48 778.332 2626.01 778.62 2626.01 779.178C2626.01 780.456 2631.68 780.042 2631.68 783.318C2631.68 784.254 2631.32 784.956 2630.58 785.442C2629.84 785.928 2628.92 786.162 2627.83 786.162C2625.81 786.162 2624.19 785.226 2623.49 783.912L2625.11 782.796C2625.63 783.642 2626.82 784.254 2628.02 784.254C2628.89 784.254 2629.55 783.966 2629.55 783.336ZM2394.96 799.322L2393.95 797.81C2394.84 796.946 2396.35 796.424 2397.88 796.424C2400.33 796.424 2401.71 797.828 2401.71 800.276V806H2399.66V804.974C2398.98 805.73 2398 806.108 2396.76 806.108C2394.69 806.108 2393.36 804.956 2393.36 803.156C2393.36 801.158 2395.09 800.186 2397.73 800.186C2398.51 800.186 2399.16 800.276 2399.66 800.438C2399.68 799.016 2399.1 798.332 2397.64 798.332C2396.73 798.332 2395.83 798.656 2394.96 799.322ZM2397.21 804.326C2398.27 804.326 2399.1 803.894 2399.66 803.048V802.148C2399.16 801.986 2398.58 801.896 2397.95 801.896C2396.31 801.896 2395.48 802.31 2395.48 803.138C2395.48 803.876 2396.15 804.326 2397.21 804.326ZM2405.44 806H2403.39V796.64H2405.44V797.486C2406.14 796.784 2407.12 796.442 2408.32 796.442C2410.82 796.442 2412.08 797.864 2412.08 800.708V806H2410.03V800.87C2410.03 799.088 2409.31 798.35 2407.73 798.35C2406.72 798.35 2405.86 798.944 2405.44 799.934V806ZM2422.52 806H2420.47V804.974C2420.06 805.55 2419.08 806.144 2417.84 806.144C2416.49 806.144 2415.39 805.712 2414.57 804.866C2413.74 804.02 2413.32 802.832 2413.32 801.338C2413.32 799.916 2413.77 798.728 2414.69 797.81C2415.59 796.892 2416.69 796.424 2417.99 796.424C2419.1 796.424 2419.93 796.658 2420.47 797.126V792.86H2422.52V806ZM2418.22 804.236C2419.23 804.236 2420.13 803.552 2420.47 802.778V799.358C2419.98 798.674 2419.28 798.332 2418.33 798.332C2416.69 798.332 2415.45 799.484 2415.45 801.302C2415.45 803.102 2416.56 804.236 2418.22 804.236ZM2429.04 798.548H2427.42V796.64H2429.04V794.714H2431.09V796.64H2434.12V798.548H2431.09V802.166C2431.09 803.66 2431.43 804.2 2432.3 804.2C2432.78 804.2 2433.22 803.93 2433.63 803.408L2434.85 804.56C2434.33 805.478 2433.23 806.108 2431.99 806.108C2430.17 806.108 2429.04 804.92 2429.04 802.742V798.548ZM2437.63 806H2435.58V796.64H2437.63V797.27C2437.86 796.784 2438.62 796.442 2439.32 796.442C2440.13 796.442 2440.74 796.712 2441.17 797.27L2440 798.764C2439.82 798.494 2439.52 798.35 2439.07 798.35C2438.4 798.35 2437.84 798.818 2437.63 799.664V806ZM2442.94 799.322L2441.93 797.81C2442.82 796.946 2444.33 796.424 2445.86 796.424C2448.31 796.424 2449.69 797.828 2449.69 800.276V806H2447.64V804.974C2446.96 805.73 2445.98 806.108 2444.74 806.108C2442.67 806.108 2441.34 804.956 2441.34 803.156C2441.34 801.158 2443.07 800.186 2445.71 800.186C2446.49 800.186 2447.14 800.276 2447.64 800.438C2447.66 799.016 2447.08 798.332 2445.62 798.332C2444.71 798.332 2443.81 798.656 2442.94 799.322ZM2445.19 804.326C2446.25 804.326 2447.08 803.894 2447.64 803.048V802.148C2447.14 801.986 2446.56 801.896 2445.93 801.896C2444.29 801.896 2443.46 802.31 2443.46 803.138C2443.46 803.876 2444.13 804.326 2445.19 804.326ZM2453.6 806H2451.55V796.64H2453.6V806ZM2451.37 793.958C2451.37 793.328 2451.91 792.878 2452.58 792.878C2453.24 792.878 2453.76 793.364 2453.76 793.958C2453.76 794.606 2453.24 795.074 2452.58 795.074C2451.86 795.074 2451.37 794.606 2451.37 793.958ZM2457.55 806H2455.5V796.64H2457.55V797.486C2458.25 796.784 2459.22 796.442 2460.43 796.442C2462.93 796.442 2464.19 797.864 2464.19 800.708V806H2462.14V800.87C2462.14 799.088 2461.42 798.35 2459.83 798.35C2458.83 798.35 2457.96 798.944 2457.55 799.934V806ZM2468.1 806H2466.04V796.64H2468.1V806ZM2465.86 793.958C2465.86 793.328 2466.4 792.878 2467.07 792.878C2467.74 792.878 2468.26 793.364 2468.26 793.958C2468.26 794.606 2467.74 795.074 2467.07 795.074C2466.35 795.074 2465.86 794.606 2465.86 793.958ZM2472.04 806H2469.99V796.64H2472.04V797.486C2472.74 796.784 2473.72 796.442 2474.92 796.442C2477.42 796.442 2478.68 797.864 2478.68 800.708V806H2476.63V800.87C2476.63 799.088 2475.91 798.35 2474.33 798.35C2473.32 798.35 2472.46 798.944 2472.04 799.934V806ZM2487 796.64H2489.05V805.244C2489.05 808.268 2487.41 809.762 2484.73 809.762C2482.62 809.762 2481.04 808.862 2480.48 807.35L2482.26 806.576C2482.64 807.296 2483.43 807.854 2484.57 807.854C2486.19 807.854 2487 807.116 2487 805.622V805.208C2486.58 805.838 2485.76 806.162 2484.51 806.162C2483.13 806.162 2482.03 805.73 2481.18 804.866C2480.34 804.02 2479.92 802.832 2479.92 801.302C2479.92 799.844 2480.37 798.674 2481.27 797.792C2482.16 796.91 2483.25 796.478 2484.53 796.478C2485.63 796.478 2486.46 796.73 2487 797.252V796.64ZM2484.86 804.254C2485.88 804.254 2486.71 803.624 2487 802.832V799.376C2486.57 798.71 2485.85 798.386 2484.84 798.386C2483.25 798.386 2482.05 799.466 2482.05 801.338C2482.05 803.192 2483.11 804.254 2484.86 804.254ZM2496.23 803.336C2496.23 802.562 2494.18 802.256 2492.58 801.662C2491.46 801.248 2490.56 800.384 2490.56 799.214C2490.56 797.486 2492.02 796.424 2494.41 796.424C2496.01 796.424 2497.54 797.162 2498.19 798.08L2496.79 799.412C2496.16 798.692 2495.26 798.332 2494.07 798.332C2493.15 798.332 2492.68 798.62 2492.68 799.178C2492.68 800.456 2498.35 800.042 2498.35 803.318C2498.35 804.254 2497.99 804.956 2497.26 805.442C2496.52 805.928 2495.6 806.162 2494.5 806.162C2492.49 806.162 2490.87 805.226 2490.16 803.912L2491.78 802.796C2492.31 803.642 2493.49 804.254 2494.7 804.254C2495.56 804.254 2496.23 803.966 2496.23 803.336Z" fill="#3C525E"/>
<path d="M2393.59 592.7C2393.59 590.882 2394.22 589.352 2395.47 588.11C2396.71 586.868 2398.22 586.256 2400.04 586.256C2401.86 586.256 2403.39 586.868 2404.63 588.092C2405.87 589.316 2406.48 590.846 2406.48 592.7C2406.48 594.536 2405.85 596.066 2404.61 597.29C2403.37 598.532 2401.84 599.144 2400.04 599.144C2398.24 599.144 2396.71 598.532 2395.47 597.308C2394.22 596.084 2393.59 594.554 2393.59 592.7ZM2395.86 592.7C2395.86 593.978 2396.28 595.022 2397.09 595.832C2397.9 596.642 2398.89 597.056 2400.04 597.056C2401.23 597.056 2402.22 596.642 2403.03 595.832C2403.82 595.022 2404.21 593.978 2404.21 592.7C2404.21 591.422 2403.8 590.378 2402.99 589.568C2402.16 588.758 2401.17 588.344 2400.04 588.344C2398.89 588.344 2397.9 588.74 2397.09 589.55C2396.28 590.36 2395.86 591.422 2395.86 592.7ZM2409.91 599H2407.85V589.64H2409.91V590.27C2410.14 589.784 2410.9 589.442 2411.6 589.442C2412.41 589.442 2413.02 589.712 2413.45 590.27L2412.28 591.764C2412.1 591.494 2411.8 591.35 2411.35 591.35C2410.68 591.35 2410.12 591.818 2409.91 592.664V599ZM2420.38 589.64H2422.43V598.244C2422.43 601.268 2420.79 602.762 2418.11 602.762C2416.01 602.762 2414.42 601.862 2413.86 600.35L2415.65 599.576C2416.02 600.296 2416.82 600.854 2417.95 600.854C2419.57 600.854 2420.38 600.116 2420.38 598.622V598.208C2419.97 598.838 2419.14 599.162 2417.9 599.162C2416.51 599.162 2415.41 598.73 2414.57 597.866C2413.72 597.02 2413.31 595.832 2413.31 594.302C2413.31 592.844 2413.76 591.674 2414.66 590.792C2415.54 589.91 2416.64 589.478 2417.91 589.478C2419.01 589.478 2419.84 589.73 2420.38 590.252V589.64ZM2418.24 597.254C2419.26 597.254 2420.09 596.624 2420.38 595.832V592.376C2419.95 591.71 2419.23 591.386 2418.22 591.386C2416.64 591.386 2415.43 592.466 2415.43 594.338C2415.43 596.192 2416.49 597.254 2418.24 597.254ZM2425.17 592.322L2424.16 590.81C2425.04 589.946 2426.55 589.424 2428.08 589.424C2430.53 589.424 2431.92 590.828 2431.92 593.276V599H2429.86V597.974C2429.18 598.73 2428.21 599.108 2426.97 599.108C2424.9 599.108 2423.56 597.956 2423.56 596.156C2423.56 594.158 2425.29 593.186 2427.94 593.186C2428.71 593.186 2429.36 593.276 2429.86 593.438C2429.88 592.016 2429.31 591.332 2427.85 591.332C2426.93 591.332 2426.03 591.656 2425.17 592.322ZM2427.42 597.326C2428.48 597.326 2429.31 596.894 2429.86 596.048V595.148C2429.36 594.986 2428.78 594.896 2428.15 594.896C2426.52 594.896 2425.69 595.31 2425.69 596.138C2425.69 596.876 2426.35 597.326 2427.42 597.326ZM2435.65 599H2433.59V589.64H2435.65V590.486C2436.35 589.784 2437.32 589.442 2438.53 589.442C2441.03 589.442 2442.29 590.864 2442.29 593.708V599H2440.24V593.87C2440.24 592.088 2439.52 591.35 2437.93 591.35C2436.92 591.35 2436.06 591.944 2435.65 592.934V599ZM2446.19 599H2444.14V589.64H2446.19V599ZM2443.96 586.958C2443.96 586.328 2444.5 585.878 2445.17 585.878C2445.83 585.878 2446.35 586.364 2446.35 586.958C2446.35 587.606 2445.83 588.074 2445.17 588.074C2444.45 588.074 2443.96 587.606 2443.96 586.958ZM2452.75 591.548H2447.78V589.64H2455.84V590.954L2450.59 597.092H2455.75V599H2447.49V597.668L2452.75 591.548ZM2459.21 599H2457.16V589.64H2459.21V599ZM2456.98 586.958C2456.98 586.328 2457.52 585.878 2458.18 585.878C2458.85 585.878 2459.37 586.364 2459.37 586.958C2459.37 587.606 2458.85 588.074 2458.18 588.074C2457.46 588.074 2456.98 587.606 2456.98 586.958ZM2463.16 599H2461.1V589.64H2463.16V590.486C2463.86 589.784 2464.83 589.442 2466.04 589.442C2468.54 589.442 2469.8 590.864 2469.8 593.708V599H2467.75V593.87C2467.75 592.088 2467.03 591.35 2465.44 591.35C2464.43 591.35 2463.57 591.944 2463.16 592.934V599ZM2478.11 589.64H2480.16V598.244C2480.16 601.268 2478.53 602.762 2475.84 602.762C2473.74 602.762 2472.15 601.862 2471.6 600.35L2473.38 599.576C2473.76 600.296 2474.55 600.854 2475.68 600.854C2477.3 600.854 2478.11 600.116 2478.11 598.622V598.208C2477.7 598.838 2476.87 599.162 2475.63 599.162C2474.24 599.162 2473.14 598.73 2472.3 597.866C2471.45 597.02 2471.04 595.832 2471.04 594.302C2471.04 592.844 2471.49 591.674 2472.39 590.792C2473.27 589.91 2474.37 589.478 2475.65 589.478C2476.74 589.478 2477.57 589.73 2478.11 590.252V589.64ZM2475.97 597.254C2477 597.254 2477.82 596.624 2478.11 595.832V592.376C2477.68 591.71 2476.96 591.386 2475.95 591.386C2474.37 591.386 2473.16 592.466 2473.16 594.338C2473.16 596.192 2474.22 597.254 2475.97 597.254ZM2488.02 602.6H2485.96V589.64H2488.02V590.486C2488.57 589.784 2489.6 589.424 2490.61 589.424C2491.99 589.424 2493.11 589.856 2493.92 590.738C2494.73 591.62 2495.14 592.754 2495.14 594.158C2495.14 595.616 2494.71 596.804 2493.85 597.74C2492.98 598.694 2491.85 599.162 2490.46 599.162C2489.26 599.162 2488.43 598.91 2488.02 598.388V602.6ZM2490.39 591.332C2489.26 591.332 2488.43 591.98 2488.02 592.862V596.102C2488.47 596.876 2489.2 597.254 2490.23 597.254C2491.9 597.254 2493.02 596.066 2493.02 594.32C2493.02 592.448 2492.03 591.332 2490.39 591.332ZM2497.44 592.322L2496.44 590.81C2497.32 589.946 2498.83 589.424 2500.36 589.424C2502.81 589.424 2504.19 590.828 2504.19 593.276V599H2502.14V597.974C2501.46 598.73 2500.49 599.108 2499.24 599.108C2497.17 599.108 2495.84 597.956 2495.84 596.156C2495.84 594.158 2497.57 593.186 2500.22 593.186C2500.99 593.186 2501.64 593.276 2502.14 593.438C2502.16 592.016 2501.58 591.332 2500.13 591.332C2499.21 591.332 2498.31 591.656 2497.44 592.322ZM2499.69 597.326C2500.76 597.326 2501.58 596.894 2502.14 596.048V595.148C2501.64 594.986 2501.06 594.896 2500.43 594.896C2498.79 594.896 2497.97 595.31 2497.97 596.138C2497.97 596.876 2498.63 597.326 2499.69 597.326ZM2507.92 599H2505.87V589.64H2507.92V590.27C2508.16 589.784 2508.91 589.442 2509.62 589.442C2510.43 589.442 2511.04 589.712 2511.47 590.27L2510.3 591.764C2510.12 591.494 2509.81 591.35 2509.36 591.35C2508.7 591.35 2508.14 591.818 2507.92 592.664V599ZM2512.95 591.548H2511.33V589.64H2512.95V587.714H2515V589.64H2518.03V591.548H2515V595.166C2515 596.66 2515.34 597.2 2516.21 597.2C2516.69 597.2 2517.13 596.93 2517.54 596.408L2518.76 597.56C2518.24 598.478 2517.14 599.108 2515.9 599.108C2514.08 599.108 2512.95 597.92 2512.95 595.742V591.548ZM2521.72 599H2519.67V589.64H2521.72V599ZM2519.49 586.958C2519.49 586.328 2520.03 585.878 2520.69 585.878C2521.36 585.878 2521.88 586.364 2521.88 586.958C2521.88 587.606 2521.36 588.074 2520.69 588.074C2519.97 588.074 2519.49 587.606 2519.49 586.958ZM2530.78 595.922L2532.24 596.858C2531.5 598.316 2529.9 599.162 2528.22 599.162C2526.71 599.162 2525.49 598.712 2524.57 597.83C2523.65 596.948 2523.18 595.76 2523.18 594.302C2523.18 592.898 2523.63 591.728 2524.55 590.81C2525.47 589.892 2526.66 589.424 2528.11 589.424C2529.99 589.424 2531.5 590.27 2532.13 591.548L2530.6 592.556C2529.99 591.746 2529.19 591.332 2528.2 591.332C2526.49 591.332 2525.31 592.556 2525.31 594.302C2525.31 595.148 2525.59 595.85 2526.17 596.408C2526.73 596.966 2527.48 597.254 2528.42 597.254C2529.41 597.254 2530.18 596.804 2530.78 595.922ZM2535.35 599H2533.3V589.64H2535.35V599ZM2533.12 586.958C2533.12 586.328 2533.66 585.878 2534.32 585.878C2534.99 585.878 2535.51 586.364 2535.51 586.958C2535.51 587.606 2534.99 588.074 2534.32 588.074C2533.6 588.074 2533.12 587.606 2533.12 586.958ZM2539.3 602.6H2537.25V589.64H2539.3V590.486C2539.86 589.784 2540.88 589.424 2541.89 589.424C2543.28 589.424 2544.39 589.856 2545.2 590.738C2546.01 591.62 2546.43 592.754 2546.43 594.158C2546.43 595.616 2545.99 596.804 2545.13 597.74C2544.27 598.694 2543.13 599.162 2541.75 599.162C2540.54 599.162 2539.71 598.91 2539.3 598.388V602.6ZM2541.67 591.332C2540.54 591.332 2539.71 591.98 2539.3 592.862V596.102C2539.75 596.876 2540.49 597.254 2541.51 597.254C2543.19 597.254 2544.3 596.066 2544.3 594.32C2544.3 592.448 2543.31 591.332 2541.67 591.332ZM2548.73 592.322L2547.72 590.81C2548.6 589.946 2550.11 589.424 2551.64 589.424C2554.09 589.424 2555.48 590.828 2555.48 593.276V599H2553.42V597.974C2552.74 598.73 2551.77 599.108 2550.53 599.108C2548.46 599.108 2547.12 597.956 2547.12 596.156C2547.12 594.158 2548.85 593.186 2551.5 593.186C2552.27 593.186 2552.92 593.276 2553.42 593.438C2553.44 592.016 2552.87 591.332 2551.41 591.332C2550.49 591.332 2549.59 591.656 2548.73 592.322ZM2550.98 597.326C2552.04 597.326 2552.87 596.894 2553.42 596.048V595.148C2552.92 594.986 2552.34 594.896 2551.71 594.896C2550.08 594.896 2549.25 595.31 2549.25 596.138C2549.25 596.876 2549.91 597.326 2550.98 597.326ZM2557.87 591.548H2556.25V589.64H2557.87V587.714H2559.92V589.64H2562.95V591.548H2559.92V595.166C2559.92 596.66 2560.27 597.2 2561.13 597.2C2561.62 597.2 2562.05 596.93 2562.46 596.408L2563.69 597.56C2563.16 598.478 2562.07 599.108 2560.82 599.108C2559.01 599.108 2557.87 597.92 2557.87 595.742V591.548ZM2566.64 599H2564.59V589.64H2566.64V599ZM2564.41 586.958C2564.41 586.328 2564.95 585.878 2565.61 585.878C2566.28 585.878 2566.8 586.364 2566.8 586.958C2566.8 587.606 2566.28 588.074 2565.61 588.074C2564.89 588.074 2564.41 587.606 2564.41 586.958ZM2568.1 594.302C2568.1 592.88 2568.57 591.71 2569.51 590.792C2570.43 589.874 2571.63 589.424 2573.11 589.424C2574.58 589.424 2575.79 589.874 2576.73 590.792C2577.66 591.71 2578.13 592.88 2578.13 594.302C2578.13 595.706 2577.66 596.858 2576.73 597.776C2575.79 598.694 2574.58 599.162 2573.11 599.162C2571.65 599.162 2570.46 598.694 2569.53 597.776C2568.57 596.858 2568.1 595.706 2568.1 594.302ZM2570.23 594.302C2570.23 595.148 2570.5 595.85 2571.04 596.408C2571.56 596.966 2572.26 597.254 2573.11 597.254C2574.84 597.254 2576.01 596.084 2576.01 594.302C2576.01 593.42 2575.74 592.7 2575.18 592.142C2574.62 591.602 2573.94 591.332 2573.11 591.332C2571.43 591.332 2570.23 592.502 2570.23 594.302ZM2581.48 599H2579.43V589.64H2581.48V590.486C2582.18 589.784 2583.16 589.442 2584.36 589.442C2586.86 589.442 2588.12 590.864 2588.12 593.708V599H2586.07V593.87C2586.07 592.088 2585.35 591.35 2583.77 591.35C2582.76 591.35 2581.9 591.944 2581.48 592.934V599ZM2596.1 599H2594.05V589.64H2596.1V599ZM2593.87 586.958C2593.87 586.328 2594.41 585.878 2595.08 585.878C2595.74 585.878 2596.26 586.364 2596.26 586.958C2596.26 587.606 2595.74 588.074 2595.08 588.074C2594.36 588.074 2593.87 587.606 2593.87 586.958ZM2600.05 599H2598V589.64H2600.05V590.486C2600.75 589.784 2601.72 589.442 2602.93 589.442C2605.43 589.442 2606.69 590.864 2606.69 593.708V599H2604.64V593.87C2604.64 592.088 2603.92 591.35 2602.33 591.35C2601.33 591.35 2600.46 591.944 2600.05 592.934V599ZM2619.6 595.922L2621.06 596.858C2620.32 598.316 2618.72 599.162 2617.05 599.162C2615.53 599.162 2614.31 598.712 2613.39 597.83C2612.47 596.948 2612.01 595.76 2612.01 594.302C2612.01 592.898 2612.46 591.728 2613.37 590.81C2614.29 589.892 2615.48 589.424 2616.94 589.424C2618.81 589.424 2620.32 590.27 2620.95 591.548L2619.42 592.556C2618.81 591.746 2618.02 591.332 2617.03 591.332C2615.32 591.332 2614.13 592.556 2614.13 594.302C2614.13 595.148 2614.42 595.85 2614.99 596.408C2615.55 596.966 2616.31 597.254 2617.24 597.254C2618.23 597.254 2619.01 596.804 2619.6 595.922ZM2623.99 599H2621.94V589.64H2623.99V590.27C2624.23 589.784 2624.98 589.442 2625.69 589.442C2626.5 589.442 2627.11 589.712 2627.54 590.27L2626.37 591.764C2626.19 591.494 2625.88 591.35 2625.43 591.35C2624.77 591.35 2624.21 591.818 2623.99 592.664V599ZM2627.4 594.302C2627.4 592.88 2627.86 591.71 2628.8 590.792C2629.72 589.874 2630.92 589.424 2632.4 589.424C2633.88 589.424 2635.08 589.874 2636.02 590.792C2636.95 591.71 2637.42 592.88 2637.42 594.302C2637.42 595.706 2636.95 596.858 2636.02 597.776C2635.08 598.694 2633.88 599.162 2632.4 599.162C2630.94 599.162 2629.75 598.694 2628.82 597.776C2627.86 596.858 2627.4 595.706 2627.4 594.302ZM2629.52 594.302C2629.52 595.148 2629.79 595.85 2630.33 596.408C2630.85 596.966 2631.55 597.254 2632.4 597.254C2634.13 597.254 2635.3 596.084 2635.3 594.302C2635.3 593.42 2635.03 592.7 2634.47 592.142C2633.91 591.602 2633.23 591.332 2632.4 591.332C2630.73 591.332 2629.52 592.502 2629.52 594.302ZM2644.18 596.336C2644.18 595.562 2642.12 595.256 2640.52 594.662C2639.41 594.248 2638.51 593.384 2638.51 592.214C2638.51 590.486 2639.96 589.424 2642.36 589.424C2643.96 589.424 2645.49 590.162 2646.14 591.08L2644.73 592.412C2644.1 591.692 2643.2 591.332 2642.02 591.332C2641.1 591.332 2640.63 591.62 2640.63 592.178C2640.63 593.456 2646.3 593.042 2646.3 596.318C2646.3 597.254 2645.94 597.956 2645.2 598.442C2644.46 598.928 2643.55 599.162 2642.45 599.162C2640.43 599.162 2638.81 598.226 2638.11 596.912L2639.73 595.796C2640.25 596.642 2641.44 597.254 2642.65 597.254C2643.51 597.254 2644.18 596.966 2644.18 596.336ZM2652.93 596.336C2652.93 595.562 2650.87 595.256 2649.27 594.662C2648.16 594.248 2647.26 593.384 2647.26 592.214C2647.26 590.486 2648.71 589.424 2651.11 589.424C2652.71 589.424 2654.24 590.162 2654.89 591.08L2653.48 592.412C2652.85 591.692 2651.95 591.332 2650.77 591.332C2649.85 591.332 2649.38 591.62 2649.38 592.178C2649.38 593.456 2655.05 593.042 2655.05 596.318C2655.05 597.254 2654.69 597.956 2653.95 598.442C2653.21 598.928 2652.3 599.162 2651.2 599.162C2649.18 599.162 2647.56 598.226 2646.86 596.912L2648.48 595.796C2649 596.642 2650.19 597.254 2651.4 597.254C2652.26 597.254 2652.93 596.966 2652.93 596.336ZM2661.51 594.914H2656.51V593.096H2661.51V594.914ZM2394.57 611.548H2393.05V609.64H2394.57V609.334C2394.57 606.832 2395.97 605.716 2397.84 605.716C2398.85 605.716 2399.77 606.148 2400.25 606.814L2399.1 608.11C2398.83 607.786 2398.45 607.624 2397.95 607.624C2397.07 607.624 2396.62 608.218 2396.62 609.388V609.64H2399.25V611.548H2396.62V619H2394.57V611.548ZM2406.39 609.586H2408.44V619H2406.39V618.01C2405.7 618.784 2404.84 619.162 2403.78 619.162C2401.17 619.162 2399.89 617.83 2399.89 614.968V609.586H2401.94V614.77C2401.94 616.426 2402.63 617.254 2403.98 617.254C2405.04 617.254 2405.85 616.714 2406.39 615.634V609.586ZM2412.22 619H2410.17V609.64H2412.22V610.486C2412.92 609.784 2413.9 609.442 2415.1 609.442C2417.6 609.442 2418.86 610.864 2418.86 613.708V619H2416.81V613.87C2416.81 612.088 2416.09 611.35 2414.51 611.35C2413.5 611.35 2412.64 611.944 2412.22 612.934V619ZM2427.7 615.922L2429.16 616.858C2428.42 618.316 2426.82 619.162 2425.15 619.162C2423.63 619.162 2422.41 618.712 2421.49 617.83C2420.57 616.948 2420.11 615.76 2420.11 614.302C2420.11 612.898 2420.56 611.728 2421.47 610.81C2422.39 609.892 2423.58 609.424 2425.04 609.424C2426.91 609.424 2428.42 610.27 2429.05 611.548L2427.52 612.556C2426.91 611.746 2426.12 611.332 2425.13 611.332C2423.42 611.332 2422.23 612.556 2422.23 614.302C2422.23 615.148 2422.52 615.85 2423.09 616.408C2423.65 616.966 2424.41 617.254 2425.34 617.254C2426.33 617.254 2427.11 616.804 2427.7 615.922ZM2430.76 611.548H2429.14V609.64H2430.76V607.714H2432.81V609.64H2435.84V611.548H2432.81V615.166C2432.81 616.66 2433.16 617.2 2434.02 617.2C2434.51 617.2 2434.94 616.93 2435.35 616.408L2436.58 617.56C2436.05 618.478 2434.96 619.108 2433.71 619.108C2431.9 619.108 2430.76 617.92 2430.76 615.742V611.548ZM2439.53 619H2437.48V609.64H2439.53V619ZM2437.3 606.958C2437.3 606.328 2437.84 605.878 2438.5 605.878C2439.17 605.878 2439.69 606.364 2439.69 606.958C2439.69 607.606 2439.17 608.074 2438.5 608.074C2437.78 608.074 2437.3 607.606 2437.3 606.958ZM2440.99 614.302C2440.99 612.88 2441.46 611.71 2442.4 610.792C2443.31 609.874 2444.52 609.424 2446 609.424C2447.47 609.424 2448.68 609.874 2449.61 610.792C2450.55 611.71 2451.02 612.88 2451.02 614.302C2451.02 615.706 2450.55 616.858 2449.61 617.776C2448.68 618.694 2447.47 619.162 2446 619.162C2444.54 619.162 2443.35 618.694 2442.41 617.776C2441.46 616.858 2440.99 615.706 2440.99 614.302ZM2443.12 614.302C2443.12 615.148 2443.39 615.85 2443.93 616.408C2444.45 616.966 2445.15 617.254 2446 617.254C2447.72 617.254 2448.89 616.084 2448.89 614.302C2448.89 613.42 2448.62 612.7 2448.07 612.142C2447.51 611.602 2446.82 611.332 2446 611.332C2444.32 611.332 2443.12 612.502 2443.12 614.302ZM2454.37 619H2452.32V609.64H2454.37V610.486C2455.07 609.784 2456.05 609.442 2457.25 609.442C2459.75 609.442 2461.01 610.864 2461.01 613.708V619H2458.96V613.87C2458.96 612.088 2458.24 611.35 2456.66 611.35C2455.65 611.35 2454.79 611.944 2454.37 612.934V619ZM2463.69 612.322L2462.69 610.81C2463.57 609.946 2465.08 609.424 2466.61 609.424C2469.06 609.424 2470.44 610.828 2470.44 613.276V619H2468.39V617.974C2467.71 618.73 2466.74 619.108 2465.49 619.108C2463.42 619.108 2462.09 617.956 2462.09 616.156C2462.09 614.158 2463.82 613.186 2466.47 613.186C2467.24 613.186 2467.89 613.276 2468.39 613.438C2468.41 612.016 2467.83 611.332 2466.38 611.332C2465.46 611.332 2464.56 611.656 2463.69 612.322ZM2465.94 617.326C2467.01 617.326 2467.83 616.894 2468.39 616.048V615.148C2467.89 614.986 2467.31 614.896 2466.68 614.896C2465.04 614.896 2464.22 615.31 2464.22 616.138C2464.22 616.876 2464.88 617.326 2465.94 617.326ZM2474.17 619H2472.12V605.86H2474.17V619ZM2482.2 619H2480.15V609.64H2482.2V619ZM2479.97 606.958C2479.97 606.328 2480.51 605.878 2481.18 605.878C2481.84 605.878 2482.36 606.364 2482.36 606.958C2482.36 607.606 2481.84 608.074 2481.18 608.074C2480.46 608.074 2479.97 607.606 2479.97 606.958ZM2486.15 619H2484.1V609.64H2486.15V610.486C2486.85 609.784 2487.82 609.442 2489.03 609.442C2491.53 609.442 2492.79 610.864 2492.79 613.708V619H2490.74V613.87C2490.74 612.088 2490.02 611.35 2488.43 611.35C2487.43 611.35 2486.56 611.944 2486.15 612.934V619ZM2495.18 611.548H2493.56V609.64H2495.18V607.714H2497.24V609.64H2500.26V611.548H2497.24V615.166C2497.24 616.66 2497.58 617.2 2498.44 617.2C2498.93 617.2 2499.36 616.93 2499.77 616.408L2501 617.56C2500.48 618.478 2499.38 619.108 2498.14 619.108C2496.32 619.108 2495.18 617.92 2495.18 615.742V611.548ZM2508.46 616.012L2509.72 617.254C2508.77 618.532 2507.51 619.162 2505.92 619.162C2504.41 619.162 2503.2 618.712 2502.29 617.83C2501.37 616.948 2500.9 615.778 2500.9 614.302C2500.9 612.88 2501.33 611.71 2502.18 610.792C2503.02 609.874 2504.19 609.424 2505.71 609.424C2506.98 609.424 2508.03 609.82 2508.86 610.594C2509.68 611.386 2510.1 612.43 2510.1 613.708C2510.1 614.014 2510.06 614.464 2509.99 615.022H2503.04C2503.2 616.462 2504.36 617.254 2505.96 617.254C2507.02 617.254 2507.85 616.84 2508.46 616.012ZM2505.62 611.278C2504.25 611.278 2503.33 612.016 2503.06 613.24H2507.97C2507.81 611.962 2506.97 611.278 2505.62 611.278ZM2513.45 619H2511.4V609.64H2513.45V610.27C2513.69 609.784 2514.44 609.442 2515.14 609.442C2515.95 609.442 2516.57 609.712 2517 610.27L2515.83 611.764C2515.65 611.494 2515.34 611.35 2514.89 611.35C2514.23 611.35 2513.67 611.818 2513.45 612.664V619ZM2519.81 619H2517.76V609.64H2519.81V610.486C2520.51 609.784 2521.49 609.442 2522.69 609.442C2525.19 609.442 2526.45 610.864 2526.45 613.708V619H2524.4V613.87C2524.4 612.088 2523.68 611.35 2522.1 611.35C2521.09 611.35 2520.23 611.944 2519.81 612.934V619ZM2533.58 616.336C2533.58 615.562 2531.53 615.256 2529.93 614.662C2528.81 614.248 2527.91 613.384 2527.91 612.214C2527.91 610.486 2529.37 609.424 2531.76 609.424C2533.36 609.424 2534.89 610.162 2535.54 611.08L2534.14 612.412C2533.51 611.692 2532.61 611.332 2531.42 611.332C2530.5 611.332 2530.03 611.62 2530.03 612.178C2530.03 613.456 2535.7 613.042 2535.7 616.318C2535.7 617.254 2535.34 617.956 2534.61 618.442C2533.87 618.928 2532.95 619.162 2531.85 619.162C2529.84 619.162 2528.22 618.226 2527.51 616.912L2529.13 615.796C2529.66 616.642 2530.84 617.254 2532.05 617.254C2532.91 617.254 2533.58 616.966 2533.58 616.336ZM2538.93 619H2536.88V605.86H2538.93V610.45C2539.59 609.784 2540.51 609.442 2541.65 609.442C2544.24 609.442 2545.53 610.864 2545.53 613.726V619H2543.48V613.852C2543.48 612.106 2542.78 611.35 2541.21 611.35C2540.22 611.35 2539.38 611.944 2538.93 612.898V619ZM2549.44 619H2547.39V609.64H2549.44V619ZM2547.21 606.958C2547.21 606.328 2547.75 605.878 2548.41 605.878C2549.08 605.878 2549.6 606.364 2549.6 606.958C2549.6 607.606 2549.08 608.074 2548.41 608.074C2547.69 608.074 2547.21 607.606 2547.21 606.958ZM2553.39 622.6H2551.33V609.64H2553.39V610.486C2553.94 609.784 2554.97 609.424 2555.98 609.424C2557.36 609.424 2558.48 609.856 2559.29 610.738C2560.1 611.62 2560.51 612.754 2560.51 614.158C2560.51 615.616 2560.08 616.804 2559.22 617.74C2558.35 618.694 2557.22 619.162 2555.83 619.162C2554.63 619.162 2553.8 618.91 2553.39 618.388V622.6ZM2555.76 611.332C2554.63 611.332 2553.8 611.98 2553.39 612.862V616.102C2553.84 616.876 2554.57 617.254 2555.6 617.254C2557.27 617.254 2558.39 616.066 2558.39 614.32C2558.39 612.448 2557.4 611.332 2555.76 611.332ZM2567.26 616.336C2567.26 615.562 2565.21 615.256 2563.61 614.662C2562.49 614.248 2561.59 613.384 2561.59 612.214C2561.59 610.486 2563.05 609.424 2565.44 609.424C2567.04 609.424 2568.57 610.162 2569.22 611.08L2567.82 612.412C2567.19 611.692 2566.29 611.332 2565.1 611.332C2564.18 611.332 2563.71 611.62 2563.71 612.178C2563.71 613.456 2569.38 613.042 2569.38 616.318C2569.38 617.254 2569.02 617.956 2568.29 618.442C2567.55 618.928 2566.63 619.162 2565.53 619.162C2563.52 619.162 2561.9 618.226 2561.19 616.912L2562.81 615.796C2563.34 616.642 2564.52 617.254 2565.73 617.254C2566.59 617.254 2567.26 616.966 2567.26 616.336Z" fill="#3C525E"/>
<path d="M2396.44 220.374V225H2394.26V212.4H2399.21C2403.13 212.4 2404.18 214.308 2404.18 216.324C2404.18 218.052 2403.08 219.474 2401.41 219.96L2405.19 225H2402.54L2399.1 220.374H2396.44ZM2399.16 214.452H2396.44V218.322H2399.26C2400.92 218.322 2401.91 217.566 2401.91 216.324C2401.91 215.118 2401.17 214.452 2399.16 214.452ZM2412.4 222.012L2413.66 223.254C2412.7 224.532 2411.44 225.162 2409.86 225.162C2408.35 225.162 2407.14 224.712 2406.22 223.83C2405.31 222.948 2404.84 221.778 2404.84 220.302C2404.84 218.88 2405.27 217.71 2406.12 216.792C2406.96 215.874 2408.13 215.424 2409.64 215.424C2410.92 215.424 2411.97 215.82 2412.79 216.594C2413.62 217.386 2414.04 218.43 2414.04 219.708C2414.04 220.014 2414 220.464 2413.93 221.022H2406.98C2407.14 222.462 2408.29 223.254 2409.9 223.254C2410.96 223.254 2411.79 222.84 2412.4 222.012ZM2409.55 217.278C2408.19 217.278 2407.27 218.016 2407 219.24H2411.91C2411.75 217.962 2410.9 217.278 2409.55 217.278ZM2426.07 215.64H2428.15L2425.13 225H2423.49L2421.22 218.916L2418.94 225H2417.34L2414.2 215.64H2416.33L2418.27 221.562L2420.47 215.64H2422.02L2424.25 221.58L2426.07 215.64ZM2429.75 218.322L2428.75 216.81C2429.63 215.946 2431.14 215.424 2432.67 215.424C2435.12 215.424 2436.5 216.828 2436.5 219.276V225H2434.45V223.974C2433.77 224.73 2432.8 225.108 2431.55 225.108C2429.48 225.108 2428.15 223.956 2428.15 222.156C2428.15 220.158 2429.88 219.186 2432.53 219.186C2433.3 219.186 2433.95 219.276 2434.45 219.438C2434.47 218.016 2433.89 217.332 2432.44 217.332C2431.52 217.332 2430.62 217.656 2429.75 218.322ZM2432 223.326C2433.07 223.326 2433.89 222.894 2434.45 222.048V221.148C2433.95 220.986 2433.37 220.896 2432.74 220.896C2431.1 220.896 2430.28 221.31 2430.28 222.138C2430.28 222.876 2430.94 223.326 2432 223.326ZM2440.23 225H2438.18V215.64H2440.23V216.27C2440.47 215.784 2441.22 215.442 2441.93 215.442C2442.74 215.442 2443.35 215.712 2443.78 216.27L2442.61 217.764C2442.43 217.494 2442.12 217.35 2441.67 217.35C2441.01 217.35 2440.45 217.818 2440.23 218.664V225ZM2452.83 225H2450.78V223.974C2450.37 224.55 2449.39 225.144 2448.15 225.144C2446.8 225.144 2445.7 224.712 2444.88 223.866C2444.05 223.02 2443.63 221.832 2443.63 220.338C2443.63 218.916 2444.08 217.728 2445 216.81C2445.9 215.892 2447 215.424 2448.3 215.424C2449.41 215.424 2450.24 215.658 2450.78 216.126V211.86H2452.83V225ZM2448.53 223.236C2449.54 223.236 2450.44 222.552 2450.78 221.778V218.358C2450.29 217.674 2449.59 217.332 2448.64 217.332C2447 217.332 2445.76 218.484 2445.76 220.302C2445.76 222.102 2446.87 223.236 2448.53 223.236ZM2456.79 225H2454.74V215.64H2456.79V225ZM2454.56 212.958C2454.56 212.328 2455.1 211.878 2455.76 211.878C2456.43 211.878 2456.95 212.364 2456.95 212.958C2456.95 213.606 2456.43 214.074 2455.76 214.074C2455.04 214.074 2454.56 213.606 2454.56 212.958ZM2460.73 225H2458.68V215.64H2460.73V216.486C2461.44 215.784 2462.41 215.442 2463.61 215.442C2466.12 215.442 2467.38 216.864 2467.38 219.708V225H2465.32V219.87C2465.32 218.088 2464.6 217.35 2463.02 217.35C2462.01 217.35 2461.15 217.944 2460.73 218.934V225ZM2475.69 215.64H2477.74V224.244C2477.74 227.268 2476.11 228.762 2473.42 228.762C2471.32 228.762 2469.73 227.862 2469.18 226.35L2470.96 225.576C2471.34 226.296 2472.13 226.854 2473.26 226.854C2474.88 226.854 2475.69 226.116 2475.69 224.622V224.208C2475.28 224.838 2474.45 225.162 2473.21 225.162C2471.82 225.162 2470.72 224.73 2469.88 223.866C2469.03 223.02 2468.62 221.832 2468.62 220.302C2468.62 218.844 2469.07 217.674 2469.97 216.792C2470.85 215.91 2471.95 215.478 2473.23 215.478C2474.32 215.478 2475.15 215.73 2475.69 216.252V215.64ZM2473.55 223.254C2474.58 223.254 2475.4 222.624 2475.69 221.832V218.376C2475.26 217.71 2474.54 217.386 2473.53 217.386C2471.95 217.386 2470.74 218.466 2470.74 220.338C2470.74 222.192 2471.8 223.254 2473.55 223.254ZM2483.11 220.302C2483.11 218.88 2483.58 217.71 2484.51 216.792C2485.43 215.874 2486.64 215.424 2488.11 215.424C2489.59 215.424 2490.8 215.874 2491.73 216.792C2492.67 217.71 2493.14 218.88 2493.14 220.302C2493.14 221.706 2492.67 222.858 2491.73 223.776C2490.8 224.694 2489.59 225.162 2488.11 225.162C2486.66 225.162 2485.47 224.694 2484.53 223.776C2483.58 222.858 2483.11 221.706 2483.11 220.302ZM2485.23 220.302C2485.23 221.148 2485.5 221.85 2486.04 222.408C2486.57 222.966 2487.27 223.254 2488.11 223.254C2489.84 223.254 2491.01 222.084 2491.01 220.302C2491.01 219.42 2490.74 218.7 2490.18 218.142C2489.63 217.602 2488.94 217.332 2488.11 217.332C2486.44 217.332 2485.23 218.502 2485.23 220.302ZM2500.88 215.586H2502.93V225H2500.88V224.01C2500.2 224.784 2499.33 225.162 2498.27 225.162C2495.66 225.162 2494.38 223.83 2494.38 220.968V215.586H2496.43V220.77C2496.43 222.426 2497.12 223.254 2498.47 223.254C2499.53 223.254 2500.34 222.714 2500.88 221.634V215.586ZM2505.38 217.548H2503.76V215.64H2505.38V213.714H2507.44V215.64H2510.46V217.548H2507.44V221.166C2507.44 222.66 2507.78 223.2 2508.64 223.2C2509.13 223.2 2509.56 222.93 2509.97 222.408L2511.2 223.56C2510.68 224.478 2509.58 225.108 2508.34 225.108C2506.52 225.108 2505.38 223.92 2505.38 221.742V217.548ZM2517.37 222.336C2517.37 221.562 2515.32 221.256 2513.72 220.662C2512.6 220.248 2511.7 219.384 2511.7 218.214C2511.7 216.486 2513.16 215.424 2515.55 215.424C2517.16 215.424 2518.69 216.162 2519.33 217.08L2517.93 218.412C2517.3 217.692 2516.4 217.332 2515.21 217.332C2514.29 217.332 2513.83 217.62 2513.83 218.178C2513.83 219.456 2519.5 219.042 2519.5 222.318C2519.5 223.254 2519.14 223.956 2518.4 224.442C2517.66 224.928 2516.74 225.162 2515.64 225.162C2513.63 225.162 2512.01 224.226 2511.31 222.912L2512.93 221.796C2513.45 222.642 2514.64 223.254 2515.84 223.254C2516.71 223.254 2517.37 222.966 2517.37 222.336ZM2521.39 217.548H2519.77V215.64H2521.39V213.714H2523.44V215.64H2526.46V217.548H2523.44V221.166C2523.44 222.66 2523.78 223.2 2524.65 223.2C2525.13 223.2 2525.56 222.93 2525.98 222.408L2527.2 223.56C2526.68 224.478 2525.58 225.108 2524.34 225.108C2522.52 225.108 2521.39 223.92 2521.39 221.742V217.548ZM2528.93 218.322L2527.92 216.81C2528.81 215.946 2530.32 215.424 2531.85 215.424C2534.3 215.424 2535.68 216.828 2535.68 219.276V225H2533.63V223.974C2532.95 224.73 2531.97 225.108 2530.73 225.108C2528.66 225.108 2527.33 223.956 2527.33 222.156C2527.33 220.158 2529.06 219.186 2531.7 219.186C2532.48 219.186 2533.13 219.276 2533.63 219.438C2533.65 218.016 2533.07 217.332 2531.61 217.332C2530.7 217.332 2529.8 217.656 2528.93 218.322ZM2531.18 223.326C2532.24 223.326 2533.07 222.894 2533.63 222.048V221.148C2533.13 220.986 2532.55 220.896 2531.92 220.896C2530.28 220.896 2529.45 221.31 2529.45 222.138C2529.45 222.876 2530.12 223.326 2531.18 223.326ZM2539.41 225H2537.36V215.64H2539.41V216.486C2540.11 215.784 2541.09 215.442 2542.29 215.442C2544.79 215.442 2546.05 216.864 2546.05 219.708V225H2544V219.87C2544 218.088 2543.28 217.35 2541.7 217.35C2540.69 217.35 2539.83 217.944 2539.41 218.934V225ZM2556.49 225H2554.44V223.974C2554.03 224.55 2553.05 225.144 2551.81 225.144C2550.46 225.144 2549.36 224.712 2548.54 223.866C2547.71 223.02 2547.29 221.832 2547.29 220.338C2547.29 218.916 2547.74 217.728 2548.66 216.81C2549.56 215.892 2550.66 215.424 2551.96 215.424C2553.07 215.424 2553.9 215.658 2554.44 216.126V211.86H2556.49V225ZM2552.19 223.236C2553.2 223.236 2554.1 222.552 2554.44 221.778V218.358C2553.95 217.674 2553.25 217.332 2552.3 217.332C2550.66 217.332 2549.42 218.484 2549.42 220.302C2549.42 222.102 2550.53 223.236 2552.19 223.236ZM2560.45 225H2558.4V215.64H2560.45V225ZM2558.22 212.958C2558.22 212.328 2558.76 211.878 2559.42 211.878C2560.09 211.878 2560.61 212.364 2560.61 212.958C2560.61 213.606 2560.09 214.074 2559.42 214.074C2558.7 214.074 2558.22 213.606 2558.22 212.958ZM2564.39 225H2562.34V215.64H2564.39V216.486C2565.1 215.784 2566.07 215.442 2567.27 215.442C2569.78 215.442 2571.04 216.864 2571.04 219.708V225H2568.98V219.87C2568.98 218.088 2568.26 217.35 2566.68 217.35C2565.67 217.35 2564.81 217.944 2564.39 218.934V225ZM2579.35 215.64H2581.4V224.244C2581.4 227.268 2579.77 228.762 2577.08 228.762C2574.98 228.762 2573.39 227.862 2572.84 226.35L2574.62 225.576C2575 226.296 2575.79 226.854 2576.92 226.854C2578.54 226.854 2579.35 226.116 2579.35 224.622V224.208C2578.94 224.838 2578.11 225.162 2576.87 225.162C2575.48 225.162 2574.38 224.73 2573.54 223.866C2572.69 223.02 2572.28 221.832 2572.28 220.302C2572.28 218.844 2572.73 217.674 2573.63 216.792C2574.51 215.91 2575.61 215.478 2576.89 215.478C2577.98 215.478 2578.81 215.73 2579.35 216.252V215.64ZM2577.21 223.254C2578.24 223.254 2579.06 222.624 2579.35 221.832V218.376C2578.92 217.71 2578.2 217.386 2577.19 217.386C2575.61 217.386 2574.4 218.466 2574.4 220.338C2574.4 222.192 2575.46 223.254 2577.21 223.254ZM2401.08 242.012L2402.34 243.254C2401.39 244.532 2400.13 245.162 2398.54 245.162C2397.03 245.162 2395.83 244.712 2394.91 243.83C2393.99 242.948 2393.52 241.778 2393.52 240.302C2393.52 238.88 2393.95 237.71 2394.8 236.792C2395.65 235.874 2396.82 235.424 2398.33 235.424C2399.61 235.424 2400.65 235.82 2401.48 236.594C2402.31 237.386 2402.72 238.43 2402.72 239.708C2402.72 240.014 2402.68 240.464 2402.61 241.022H2395.66C2395.83 242.462 2396.98 243.254 2398.58 243.254C2399.64 243.254 2400.47 242.84 2401.08 242.012ZM2398.24 237.278C2396.87 237.278 2395.95 238.016 2395.68 239.24H2400.6C2400.43 237.962 2399.59 237.278 2398.24 237.278ZM2417.49 238.79V245H2415.43V239.366C2415.43 238.016 2414.91 237.35 2413.87 237.35C2412.91 237.35 2412.21 237.836 2411.78 238.79V245H2409.73V238.916C2409.73 237.98 2409.15 237.35 2408.2 237.35C2407.19 237.35 2406.42 238.07 2406.07 238.88V245H2404.02V235.64H2406.07V236.45C2406.56 235.784 2407.41 235.442 2408.63 235.442C2409.8 235.442 2410.65 235.82 2411.17 236.594C2411.82 235.82 2412.75 235.442 2413.99 235.442C2416.21 235.442 2417.49 236.558 2417.49 238.79ZM2421.2 248.6H2419.15V235.64H2421.2V236.486C2421.76 235.784 2422.79 235.424 2423.8 235.424C2425.18 235.424 2426.3 235.856 2427.11 236.738C2427.92 237.62 2428.33 238.754 2428.33 240.158C2428.33 241.616 2427.9 242.804 2427.04 243.74C2426.17 244.694 2425.04 245.162 2423.65 245.162C2422.45 245.162 2421.62 244.91 2421.2 244.388V248.6ZM2423.58 237.332C2422.45 237.332 2421.62 237.98 2421.2 238.862V242.102C2421.65 242.876 2422.39 243.254 2423.42 243.254C2425.09 243.254 2426.21 242.066 2426.21 240.32C2426.21 238.448 2425.22 237.332 2423.58 237.332ZM2431.68 245H2429.62V231.86H2431.68V245ZM2432.97 240.302C2432.97 238.88 2433.44 237.71 2434.37 236.792C2435.29 235.874 2436.5 235.424 2437.97 235.424C2439.45 235.424 2440.65 235.874 2441.59 236.792C2442.53 237.71 2442.99 238.88 2442.99 240.302C2442.99 241.706 2442.53 242.858 2441.59 243.776C2440.65 244.694 2439.45 245.162 2437.97 245.162C2436.51 245.162 2435.33 244.694 2434.39 243.776C2433.44 242.858 2432.97 241.706 2432.97 240.302ZM2435.09 240.302C2435.09 241.148 2435.36 241.85 2435.9 242.408C2436.42 242.966 2437.13 243.254 2437.97 243.254C2439.7 243.254 2440.87 242.084 2440.87 240.302C2440.87 239.42 2440.6 238.7 2440.04 238.142C2439.48 237.602 2438.8 237.332 2437.97 237.332C2436.3 237.332 2435.09 238.502 2435.09 240.302ZM2444.3 248.492L2445.11 246.746C2445.24 246.818 2445.37 246.854 2445.53 246.854C2446.09 246.854 2446.59 246.332 2447 245.288L2447.33 244.442L2442.72 235.64H2445.1L2448.32 241.958L2450.8 235.64H2453L2449.33 244.73C2448.7 246.26 2448.12 247.304 2447.58 247.898C2447.02 248.474 2446.37 248.762 2445.6 248.762C2445.1 248.762 2444.66 248.672 2444.3 248.492ZM2460.33 242.012L2461.59 243.254C2460.64 244.532 2459.38 245.162 2457.79 245.162C2456.28 245.162 2455.07 244.712 2454.16 243.83C2453.24 242.948 2452.77 241.778 2452.77 240.302C2452.77 238.88 2453.2 237.71 2454.05 236.792C2454.89 235.874 2456.06 235.424 2457.58 235.424C2458.85 235.424 2459.9 235.82 2460.73 236.594C2461.55 237.386 2461.97 238.43 2461.97 239.708C2461.97 240.014 2461.93 240.464 2461.86 241.022H2454.91C2455.07 242.462 2456.23 243.254 2457.83 243.254C2458.89 243.254 2459.72 242.84 2460.33 242.012ZM2457.49 237.278C2456.12 237.278 2455.2 238.016 2454.93 239.24H2459.84C2459.68 237.962 2458.84 237.278 2457.49 237.278ZM2470.22 242.012L2471.48 243.254C2470.53 244.532 2469.27 245.162 2467.68 245.162C2466.17 245.162 2464.97 244.712 2464.05 243.83C2463.13 242.948 2462.66 241.778 2462.66 240.302C2462.66 238.88 2463.09 237.71 2463.94 236.792C2464.79 235.874 2465.96 235.424 2467.47 235.424C2468.75 235.424 2469.79 235.82 2470.62 236.594C2471.45 237.386 2471.86 238.43 2471.86 239.708C2471.86 240.014 2471.82 240.464 2471.75 241.022H2464.8C2464.97 242.462 2466.12 243.254 2467.72 243.254C2468.78 243.254 2469.61 242.84 2470.22 242.012ZM2467.38 237.278C2466.01 237.278 2465.09 238.016 2464.82 239.24H2469.74C2469.57 237.962 2468.73 237.278 2467.38 237.278ZM2478.62 242.336C2478.62 241.562 2476.56 241.256 2474.96 240.662C2473.85 240.248 2472.95 239.384 2472.95 238.214C2472.95 236.486 2474.4 235.424 2476.8 235.424C2478.4 235.424 2479.93 236.162 2480.58 237.08L2479.17 238.412C2478.54 237.692 2477.64 237.332 2476.46 237.332C2475.54 237.332 2475.07 237.62 2475.07 238.178C2475.07 239.456 2480.74 239.042 2480.74 242.318C2480.74 243.254 2480.38 243.956 2479.64 244.442C2478.9 244.928 2477.99 245.162 2476.89 245.162C2474.87 245.162 2473.25 244.226 2472.55 242.912L2474.17 241.796C2474.69 242.642 2475.88 243.254 2477.09 243.254C2477.95 243.254 2478.62 242.966 2478.62 242.336ZM2496.71 235.64H2498.8L2495.78 245H2494.14L2491.87 238.916L2489.59 245H2487.98L2484.85 235.64H2486.98L2488.92 241.562L2491.12 235.64L2492.66 235.64L2494.9 241.58L2496.71 235.64ZM2501.63 245H2499.57V235.64H2501.63V245ZM2499.39 232.958C2499.39 232.328 2499.93 231.878 2500.6 231.878C2501.27 231.878 2501.79 232.364 2501.79 232.958C2501.79 233.606 2501.27 234.074 2500.6 234.074C2499.88 234.074 2499.39 233.606 2499.39 232.958ZM2504.24 237.548H2502.62V235.64H2504.24V233.714H2506.29V235.64H2509.32V237.548H2506.29V241.166C2506.29 242.66 2506.63 243.2 2507.5 243.2C2507.98 243.2 2508.42 242.93 2508.83 242.408L2510.05 243.56C2509.53 244.478 2508.43 245.108 2507.19 245.108C2505.37 245.108 2504.24 243.92 2504.24 241.742V237.548ZM2512.83 245H2510.78V231.86H2512.83V236.45C2513.49 235.784 2514.41 235.442 2515.55 235.442C2518.14 235.442 2519.43 236.864 2519.43 239.726V245H2517.38V239.852C2517.38 238.106 2516.68 237.35 2515.11 237.35C2514.12 237.35 2513.28 237.944 2512.83 238.898V245ZM2532.35 241.922L2533.8 242.858C2533.07 244.316 2531.46 245.162 2529.79 245.162C2528.28 245.162 2527.05 244.712 2526.14 243.83C2525.22 242.948 2524.75 241.76 2524.75 240.302C2524.75 238.898 2525.2 237.728 2526.12 236.81C2527.04 235.892 2528.22 235.424 2529.68 235.424C2531.55 235.424 2533.07 236.27 2533.7 237.548L2532.17 238.556C2531.55 237.746 2530.76 237.332 2529.77 237.332C2528.06 237.332 2526.87 238.556 2526.87 240.302C2526.87 241.148 2527.16 241.85 2527.74 242.408C2528.3 242.966 2529.05 243.254 2529.99 243.254C2530.98 243.254 2531.75 242.804 2532.35 241.922ZM2533.75 240.302C2533.75 238.88 2534.21 237.71 2535.15 236.792C2536.07 235.874 2537.27 235.424 2538.75 235.424C2540.23 235.424 2541.43 235.874 2542.37 236.792C2543.3 237.71 2543.77 238.88 2543.77 240.302C2543.77 241.706 2543.3 242.858 2542.37 243.776C2541.43 244.694 2540.23 245.162 2538.75 245.162C2537.29 245.162 2536.1 244.694 2535.17 243.776C2534.21 242.858 2533.75 241.706 2533.75 240.302ZM2535.87 240.302C2535.87 241.148 2536.14 241.85 2536.68 242.408C2537.2 242.966 2537.9 243.254 2538.75 243.254C2540.48 243.254 2541.65 242.084 2541.65 240.302C2541.65 239.42 2541.38 238.7 2540.82 238.142C2540.26 237.602 2539.58 237.332 2538.75 237.332C2537.08 237.332 2535.87 238.502 2535.87 240.302ZM2547.12 245H2545.07V235.64H2547.12V236.27C2547.36 235.784 2548.11 235.442 2548.82 235.442C2549.63 235.442 2550.24 235.712 2550.67 236.27L2549.5 237.764C2549.32 237.494 2549.01 237.35 2548.56 237.35C2547.9 237.35 2547.34 237.818 2547.12 238.664V245ZM2553.48 248.6H2551.43V235.64H2553.48V236.486C2554.04 235.784 2555.07 235.424 2556.07 235.424C2557.46 235.424 2558.58 235.856 2559.39 236.738C2560.2 237.62 2560.61 238.754 2560.61 240.158C2560.61 241.616 2560.18 242.804 2559.31 243.74C2558.45 244.694 2557.32 245.162 2555.93 245.162C2554.72 245.162 2553.9 244.91 2553.48 244.388V248.6ZM2555.86 237.332C2554.72 237.332 2553.9 237.98 2553.48 238.862V242.102C2553.93 242.876 2554.67 243.254 2555.7 243.254C2557.37 243.254 2558.49 242.066 2558.49 240.32C2558.49 238.448 2557.5 237.332 2555.86 237.332ZM2561.47 240.302C2561.47 238.88 2561.94 237.71 2562.88 236.792C2563.79 235.874 2565 235.424 2566.48 235.424C2567.95 235.424 2569.16 235.874 2570.09 236.792C2571.03 237.71 2571.5 238.88 2571.5 240.302C2571.5 241.706 2571.03 242.858 2570.09 243.776C2569.16 244.694 2567.95 245.162 2566.48 245.162C2565.02 245.162 2563.83 244.694 2562.89 243.776C2561.94 242.858 2561.47 241.706 2561.47 240.302ZM2563.6 240.302C2563.6 241.148 2563.87 241.85 2564.41 242.408C2564.93 242.966 2565.63 243.254 2566.48 243.254C2568.2 243.254 2569.37 242.084 2569.37 240.302C2569.37 239.42 2569.1 238.7 2568.55 238.142C2567.99 237.602 2567.3 237.332 2566.48 237.332C2564.8 237.332 2563.6 238.502 2563.6 240.302ZM2574.85 245H2572.8V235.64H2574.85V236.27C2575.08 235.784 2575.84 235.442 2576.54 235.442C2577.35 235.442 2577.96 235.712 2578.4 236.27L2577.23 237.764C2577.05 237.494 2576.74 237.35 2576.29 237.35C2575.62 237.35 2575.07 237.818 2574.85 238.664V245ZM2580.16 238.322L2579.16 236.81C2580.04 235.946 2581.55 235.424 2583.08 235.424C2585.53 235.424 2586.91 236.828 2586.91 239.276V245H2584.86V243.974C2584.18 244.73 2583.21 245.108 2581.96 245.108C2579.89 245.108 2578.56 243.956 2578.56 242.156C2578.56 240.158 2580.29 239.186 2582.94 239.186C2583.71 239.186 2584.36 239.276 2584.86 239.438C2584.88 238.016 2584.3 237.332 2582.85 237.332C2581.93 237.332 2581.03 237.656 2580.16 238.322ZM2582.41 243.326C2583.48 243.326 2584.3 242.894 2584.86 242.048V241.148C2584.36 240.986 2583.78 240.896 2583.15 240.896C2581.51 240.896 2580.69 241.31 2580.69 242.138C2580.69 242.876 2581.35 243.326 2582.41 243.326ZM2589.31 237.548H2587.69V235.64H2589.31V233.714H2591.36V235.64H2594.39V237.548H2591.36V241.166C2591.36 242.66 2591.71 243.2 2592.57 243.2C2593.06 243.2 2593.49 242.93 2593.9 242.408L2595.13 243.56C2594.6 244.478 2593.51 245.108 2592.26 245.108C2590.45 245.108 2589.31 243.92 2589.31 241.742V237.548ZM2602.59 242.012L2603.85 243.254C2602.89 244.532 2601.63 245.162 2600.05 245.162C2598.54 245.162 2597.33 244.712 2596.41 243.83C2595.5 242.948 2595.03 241.778 2595.03 240.302C2595.03 238.88 2595.46 237.71 2596.31 236.792C2597.15 235.874 2598.32 235.424 2599.83 235.424C2601.11 235.424 2602.16 235.82 2602.98 236.594C2603.81 237.386 2604.23 238.43 2604.23 239.708C2604.23 240.014 2604.19 240.464 2604.12 241.022H2597.17C2597.33 242.462 2598.48 243.254 2600.09 243.254C2601.15 243.254 2601.98 242.84 2602.59 242.012ZM2599.74 237.278C2598.38 237.278 2597.46 238.016 2597.19 239.24H2602.1C2601.94 237.962 2601.09 237.278 2599.74 237.278ZM2610.61 238.322L2609.6 236.81C2610.48 235.946 2612 235.424 2613.53 235.424C2615.97 235.424 2617.36 236.828 2617.36 239.276V245H2615.31V243.974C2614.62 244.73 2613.65 245.108 2612.41 245.108C2610.34 245.108 2609.01 243.956 2609.01 242.156C2609.01 240.158 2610.74 239.186 2613.38 239.186C2614.16 239.186 2614.8 239.276 2615.31 239.438C2615.33 238.016 2614.75 237.332 2613.29 237.332C2612.37 237.332 2611.47 237.656 2610.61 238.322ZM2612.86 243.326C2613.92 243.326 2614.75 242.894 2615.31 242.048V241.148C2614.8 240.986 2614.23 240.896 2613.6 240.896C2611.96 240.896 2611.13 241.31 2611.13 242.138C2611.13 242.876 2611.8 243.326 2612.86 243.326ZM2629.77 235.64H2631.85L2628.83 245H2627.19L2624.92 238.916L2622.64 245H2621.04L2617.9 235.64H2620.03L2621.97 241.562L2624.17 235.64H2625.72L2627.95 241.58L2629.77 235.64ZM2633.45 238.322L2632.45 236.81C2633.33 235.946 2634.84 235.424 2636.37 235.424C2638.82 235.424 2640.2 236.828 2640.2 239.276V245H2638.15V243.974C2637.47 244.73 2636.5 245.108 2635.25 245.108C2633.18 245.108 2631.85 243.956 2631.85 242.156C2631.85 240.158 2633.58 239.186 2636.23 239.186C2637 239.186 2637.65 239.276 2638.15 239.438C2638.17 238.016 2637.59 237.332 2636.14 237.332C2635.22 237.332 2634.32 237.656 2633.45 238.322ZM2635.7 243.326C2636.77 243.326 2637.59 242.894 2638.15 242.048V241.148C2637.65 240.986 2637.07 240.896 2636.44 240.896C2634.8 240.896 2633.98 241.31 2633.98 242.138C2633.98 242.876 2634.64 243.326 2635.7 243.326ZM2643.93 245H2641.88V235.64H2643.93V236.27C2644.17 235.784 2644.92 235.442 2645.62 235.442C2646.43 235.442 2647.05 235.712 2647.48 236.27L2646.31 237.764C2646.13 237.494 2645.82 237.35 2645.37 237.35C2644.71 237.35 2644.15 237.818 2643.93 238.664V245ZM2656.53 245H2654.48V243.974C2654.07 244.55 2653.09 245.144 2651.85 245.144C2650.5 245.144 2649.4 244.712 2648.58 243.866C2647.75 243.02 2647.33 241.832 2647.33 240.338C2647.33 238.916 2647.78 237.728 2648.7 236.81C2649.6 235.892 2650.7 235.424 2652 235.424C2653.11 235.424 2653.94 235.658 2654.48 236.126V231.86H2656.53V245ZM2652.23 243.236C2653.24 243.236 2654.14 242.552 2654.48 241.778V238.358C2653.99 237.674 2653.29 237.332 2652.34 237.332C2650.7 237.332 2649.46 238.484 2649.46 240.302C2649.46 242.102 2650.57 243.236 2652.23 243.236ZM2663.71 242.336C2663.71 241.562 2661.66 241.256 2660.06 240.662C2658.94 240.248 2658.04 239.384 2658.04 238.214C2658.04 236.486 2659.5 235.424 2661.89 235.424C2663.49 235.424 2665.02 236.162 2665.67 237.08L2664.27 238.412C2663.64 237.692 2662.74 237.332 2661.55 237.332C2660.63 237.332 2660.16 237.62 2660.16 238.178C2660.16 239.456 2665.83 239.042 2665.83 242.318C2665.83 243.254 2665.47 243.956 2664.74 244.442C2664 244.928 2663.08 245.162 2661.98 245.162C2659.97 245.162 2658.35 244.226 2657.64 242.912L2659.26 241.796C2659.79 242.642 2660.97 243.254 2662.18 243.254C2663.04 243.254 2663.71 242.966 2663.71 242.336Z" fill="#3C525E"/>
<circle cx="2334.5" cy="229.5" r="33.5" fill="white"/>
<path d="M2330.76 225.288L2329.78 222.888L2335.42 220.152H2337.24V237H2334.46V223.584L2330.76 225.288Z" fill="#1A3341" fill-opacity="0.6"/>
<circle cx="2334.5" cy="416.5" r="33.5" fill="white"/>
<path d="M2330.32 412.528L2327.8 411.52C2328.64 408.64 2331.21 407.032 2334.5 407.032C2338.31 407.032 2340.55 409.024 2340.55 412C2340.55 414.184 2339.61 415.96 2337.95 417.496C2337.11 418.288 2335.96 419.176 2334.5 420.208L2332.58 421.312H2341.07V424H2328.04V421.864L2331.83 419.104C2331.95 419.008 2332.29 418.744 2332.89 418.288C2333.49 417.832 2333.87 417.52 2334.07 417.352C2334.26 417.184 2334.59 416.896 2335.1 416.488C2335.58 416.08 2335.91 415.744 2336.13 415.48C2336.51 415 2337.21 414.16 2337.43 413.488C2337.52 413.152 2337.57 412.816 2337.57 412.456C2337.57 410.824 2336.39 409.816 2334.45 409.816C2332.36 409.816 2330.99 410.968 2330.32 412.528Z" fill="#1A3341" fill-opacity="0.6"/>
<circle cx="2334.5" cy="603.5" r="33.5" fill="white"/>
<path d="M2330.57 599L2328.1 597.896C2328.96 595.472 2331.51 593.984 2334.65 593.984C2336.43 593.984 2337.89 594.368 2339.02 595.136C2340.15 595.928 2340.72 596.936 2340.72 598.208C2340.72 600.104 2339.62 601.568 2338.01 602.048C2339.72 602.456 2341.08 603.68 2341.08 605.984C2341.08 607.544 2340.48 608.816 2339.28 609.752C2338.06 610.712 2336.57 611.192 2334.77 611.192C2332.85 611.192 2331.03 610.736 2329.44 609.416C2328.65 608.768 2328.08 607.952 2327.76 607.016L2330.4 605.912C2330.74 606.656 2331.32 607.256 2332.11 607.712C2332.9 608.168 2333.69 608.408 2334.53 608.408C2336.57 608.408 2338.08 607.52 2338.08 606.008C2338.08 604.304 2336.6 603.728 2334 603.728H2332.37V601.088H2334.1C2336.28 601.088 2337.75 600.128 2337.75 598.808C2337.75 598.16 2337.44 597.632 2336.81 597.272C2336.19 596.912 2335.4 596.72 2334.41 596.72C2333.43 596.72 2332.66 596.912 2332.06 597.296C2331.46 597.68 2330.98 598.256 2330.57 599Z" fill="#1A3341" fill-opacity="0.6"/>
<circle cx="2334.5" cy="790.5" r="33.5" fill="white"/>
<path d="M2339.23 798H2336.42V794.808H2326.92V792.936L2336.83 781.2H2339.23V792.24H2342.08V794.808H2339.23V798ZM2336.42 785.784L2330.76 792.24H2336.42V785.784Z" fill="#1A3341" fill-opacity="0.6"/>
<defs>
<linearGradient id="paint0_linear_6001_19235" x1="2352.23" y1="-1.50083e+14" x2="1334.93" y2="-1.50083e+14" gradientUnits="userSpaceOnUse">
<stop stop-color="#92F7CC"/>
<stop offset="1" stop-color="#2B5F90"/>
</linearGradient>
<linearGradient id="paint1_linear_6001_19235" x1="2136.61" y1="273" x2="1431.85" y2="273" gradientUnits="userSpaceOnUse">
<stop stop-color="#70D4AA"/>
<stop offset="1" stop-color="#228D9C"/>
</linearGradient>
<linearGradient id="paint2_linear_6001_19235" x1="2271.5" y1="513" x2="1650.5" y2="513" gradientUnits="userSpaceOnUse">
<stop stop-color="#49BC77"/>
<stop offset="1" stop-color="#0D5F8D"/>
</linearGradient>
<linearGradient id="paint3_linear_6001_19235" x1="2776.5" y1="214.671" x2="1899.5" y2="214.671" gradientUnits="userSpaceOnUse">
<stop stop-color="#39EC2A"/>
<stop offset="1" stop-color="#7EDEEC"/>
</linearGradient>
<linearGradient id="paint4_linear_6001_19235" x1="1744.2" y1="661.5" x2="672.447" y2="661.5" gradientUnits="userSpaceOnUse">
<stop stop-color="#69D88F"/>
<stop offset="1" stop-color="#4D809E"/>
</linearGradient>
<linearGradient id="paint5_linear_6001_19235" x1="2558" y1="606" x2="1132.5" y2="589.5" gradientUnits="userSpaceOnUse">
<stop stop-color="#99F452" stop-opacity="0.68"/>
<stop offset="1" stop-color="#1DA858"/>
</linearGradient>
</defs>
</svg>
