<svg width="736" height="361" viewBox="0 0 736 361" fill="none" xmlns="http://www.w3.org/2000/svg">
<rect y="347" width="10" height="10" fill="#8AD9F2"/>
<path d="M22.56 354.296C22.56 353.456 21.132 353.324 19.992 353C19.212 352.772 18.588 352.256 18.588 351.404C18.588 350.3 19.632 349.616 21.18 349.616C22.224 349.616 23.064 350.06 23.508 350.696L22.8 351.356C22.404 350.828 21.804 350.564 21 350.564C20.28 350.564 19.656 350.84 19.656 351.356C19.656 352.088 21.084 352.22 22.224 352.568C22.992 352.808 23.616 353.384 23.616 354.284C23.616 355.496 22.644 356.108 21.12 356.108C19.836 356.108 18.744 355.532 18.3 354.632L19.104 354.068C19.476 354.728 20.328 355.16 21.288 355.16C22.14 355.16 22.56 354.872 22.56 354.296ZM29.5208 354.212L30.1688 354.812C29.5928 355.676 28.7648 356.108 27.6728 356.108C26.6768 356.108 25.8728 355.808 25.2608 355.22C24.6488 354.632 24.3488 353.852 24.3488 352.868C24.3488 351.92 24.6248 351.14 25.1888 350.528C25.7408 349.916 26.5208 349.616 27.5288 349.616C28.3568 349.616 29.0528 349.88 29.5928 350.396C30.1328 350.912 30.4088 351.596 30.4088 352.448C30.4088 352.724 30.3848 352.976 30.3488 353.204H25.4288C25.4888 354.44 26.4008 355.16 27.7088 355.16C28.4408 355.16 29.1368 354.776 29.5208 354.212ZM27.4568 350.54C26.3168 350.54 25.5728 351.236 25.4168 352.292H29.3408C29.2808 351.188 28.5728 350.54 27.4568 350.54ZM32.0089 351.26L31.4929 350.504C32.0689 349.964 33.0649 349.616 33.9889 349.616C35.6569 349.616 36.5449 350.528 36.5449 352.148V356H35.5369V355.076C35.1409 355.652 34.3609 356.084 33.3529 356.084C31.9969 356.084 31.0849 355.328 31.0849 354.176C31.0849 352.868 32.2009 352.244 34.0729 352.244C34.6609 352.244 35.1409 352.304 35.5369 352.424C35.5369 351.212 35.1049 350.564 33.8689 350.564C33.2449 350.564 32.6209 350.792 32.0089 351.26ZM33.5929 355.172C34.0609 355.172 34.4809 355.04 34.8289 354.788C35.1769 354.536 35.4049 354.248 35.5369 353.948V353.312C35.1889 353.192 34.7449 353.132 34.2049 353.132C32.8369 353.132 32.1529 353.468 32.1529 354.14C32.1529 354.776 32.7289 355.172 33.5929 355.172Z" fill="#1A3341" fill-opacity="0.6"/>
<rect x="119" y="347" width="10" height="10" fill="url(#paint0_linear_6006_19053)"/>
<path d="M138.74 356H137.732V349.76H138.74V350.24C138.944 349.82 139.484 349.628 140.024 349.628C140.576 349.628 140.996 349.82 141.296 350.192L140.66 350.888C140.504 350.684 140.264 350.576 139.916 350.576C139.376 350.576 138.884 351.02 138.74 351.656V356ZM142.314 351.26L141.798 350.504C142.374 349.964 143.37 349.616 144.294 349.616C145.962 349.616 146.85 350.528 146.85 352.148V356H145.842V355.076C145.446 355.652 144.666 356.084 143.658 356.084C142.302 356.084 141.39 355.328 141.39 354.176C141.39 352.868 142.506 352.244 144.378 352.244C144.966 352.244 145.446 352.304 145.842 352.424C145.842 351.212 145.41 350.564 144.174 350.564C143.55 350.564 142.926 350.792 142.314 351.26ZM143.898 355.172C144.366 355.172 144.786 355.04 145.134 354.788C145.482 354.536 145.71 354.248 145.842 353.948V353.312C145.494 353.192 145.05 353.132 144.51 353.132C143.142 353.132 142.458 353.468 142.458 354.14C142.458 354.776 143.034 355.172 143.898 355.172ZM149.384 356H148.376V349.76H149.384V356ZM148.244 347.732C148.244 347.396 148.52 347.144 148.892 347.144C149.228 347.144 149.516 347.396 149.516 347.732C149.516 348.08 149.228 348.356 148.892 348.356C148.52 348.356 148.244 348.08 148.244 347.732ZM152.078 356H151.07V347.24H152.078V356ZM161.074 349.76H162.106L160.078 356H159.262L157.51 351.32L155.734 356H154.942L152.83 349.76H153.91L155.41 354.32L157.114 349.76H157.906L159.646 354.356L161.074 349.76ZM163.243 351.26L162.727 350.504C163.303 349.964 164.299 349.616 165.223 349.616C166.891 349.616 167.779 350.528 167.779 352.148V356H166.771V355.076C166.375 355.652 165.595 356.084 164.587 356.084C163.231 356.084 162.319 355.328 162.319 354.176C162.319 352.868 163.435 352.244 165.307 352.244C165.895 352.244 166.375 352.304 166.771 352.424C166.771 351.212 166.339 350.564 165.103 350.564C164.479 350.564 163.855 350.792 163.243 351.26ZM164.827 355.172C165.295 355.172 165.715 355.04 166.063 354.788C166.411 354.536 166.639 354.248 166.771 353.948V353.312C166.423 353.192 165.979 353.132 165.439 353.132C164.071 353.132 163.387 353.468 163.387 354.14C163.387 354.776 163.963 355.172 164.827 355.172ZM169.317 358.376L169.713 357.5C169.809 357.536 169.893 357.56 169.977 357.56C170.445 357.56 170.769 357.236 171.189 356.24L171.381 355.772L168.357 349.76H169.545L171.885 354.5L173.649 349.76H174.753L172.377 355.904C171.969 356.912 171.585 357.596 171.237 357.968C170.877 358.34 170.469 358.52 170.013 358.52C169.749 358.52 169.521 358.472 169.317 358.376ZM179.665 350.72H178.369V349.76H179.665V348.164H180.673V349.76H182.821V350.72H180.673V353.468C180.673 354.68 180.985 355.124 181.753 355.124C182.125 355.124 182.509 354.98 182.881 354.68L183.337 355.424C182.941 355.868 182.353 356.084 181.573 356.084C180.337 356.084 179.665 355.268 179.665 353.732V350.72ZM185.076 356H184.068V349.76H185.076V350.24C185.28 349.82 185.82 349.628 186.36 349.628C186.912 349.628 187.332 349.82 187.632 350.192L186.996 350.888C186.84 350.684 186.6 350.576 186.252 350.576C185.712 350.576 185.22 351.02 185.076 351.656V356ZM188.65 351.26L188.134 350.504C188.71 349.964 189.706 349.616 190.63 349.616C192.298 349.616 193.186 350.528 193.186 352.148V356H192.178V355.076C191.782 355.652 191.002 356.084 189.994 356.084C188.638 356.084 187.726 355.328 187.726 354.176C187.726 352.868 188.842 352.244 190.714 352.244C191.302 352.244 191.782 352.304 192.178 352.424C192.178 351.212 191.746 350.564 190.51 350.564C189.886 350.564 189.262 350.792 188.65 351.26ZM190.234 355.172C190.702 355.172 191.122 355.04 191.47 354.788C191.818 354.536 192.046 354.248 192.178 353.948V353.312C191.83 353.192 191.386 353.132 190.846 353.132C189.478 353.132 188.794 353.468 188.794 354.14C188.794 354.776 189.37 355.172 190.234 355.172ZM195.588 356H194.58V349.76H195.588V350.576C195.984 349.964 196.8 349.628 197.724 349.628C199.416 349.628 200.256 350.564 200.256 352.448V356H199.248V352.568C199.248 351.188 198.66 350.576 197.424 350.576C196.656 350.576 195.924 351.08 195.588 351.836V356ZM205.474 354.296C205.474 353.456 204.046 353.324 202.906 353C202.126 352.772 201.502 352.256 201.502 351.404C201.502 350.3 202.546 349.616 204.094 349.616C205.138 349.616 205.978 350.06 206.422 350.696L205.714 351.356C205.318 350.828 204.718 350.564 203.914 350.564C203.194 350.564 202.57 350.84 202.57 351.356C202.57 352.088 203.998 352.22 205.138 352.568C205.906 352.808 206.53 353.384 206.53 354.284C206.53 355.496 205.558 356.108 204.034 356.108C202.75 356.108 201.658 355.532 201.214 354.632L202.018 354.068C202.39 354.728 203.242 355.16 204.202 355.16C205.054 355.16 205.474 354.872 205.474 354.296ZM208.619 358.4H207.611V349.76H208.619V350.54C209.039 349.928 209.711 349.616 210.635 349.616C211.547 349.616 212.279 349.904 212.819 350.492C213.359 351.08 213.623 351.836 213.623 352.772C213.623 353.732 213.335 354.524 212.759 355.16C212.171 355.796 211.427 356.108 210.515 356.108C209.675 356.108 209.039 355.892 208.619 355.472V358.4ZM210.527 350.564C209.615 350.564 208.907 351.152 208.619 351.86V354.188C208.979 354.836 209.579 355.16 210.431 355.16C211.043 355.16 211.559 354.944 211.955 354.512C212.351 354.08 212.555 353.528 212.555 352.844C212.555 351.452 211.775 350.564 210.527 350.564ZM214.388 352.868C214.388 351.92 214.7 351.14 215.312 350.528C215.924 349.916 216.716 349.616 217.688 349.616C218.672 349.616 219.476 349.916 220.088 350.528C220.7 351.14 221.012 351.92 221.012 352.868C221.012 353.816 220.7 354.584 220.088 355.196C219.464 355.808 218.66 356.108 217.688 356.108C216.716 356.108 215.924 355.808 215.312 355.196C214.7 354.584 214.388 353.816 214.388 352.868ZM215.456 352.868C215.456 353.528 215.66 354.08 216.08 354.512C216.5 354.944 217.028 355.16 217.688 355.16C218.348 355.16 218.9 354.944 219.32 354.524C219.74 354.104 219.944 353.552 219.944 352.868C219.944 352.184 219.728 351.632 219.308 351.2C218.876 350.78 218.336 350.564 217.688 350.564C217.04 350.564 216.512 350.78 216.092 351.2C215.672 351.62 215.456 352.184 215.456 352.868ZM223.138 356H222.13V349.76H223.138V350.24C223.342 349.82 223.882 349.628 224.422 349.628C224.974 349.628 225.394 349.82 225.694 350.192L225.058 350.888C224.902 350.684 224.662 350.576 224.314 350.576C223.774 350.576 223.282 351.02 223.138 351.656V356ZM227.243 350.72H225.947V349.76H227.243V348.164H228.251V349.76H230.399V350.72H228.251V353.468C228.251 354.68 228.563 355.124 229.331 355.124C229.703 355.124 230.087 354.98 230.459 354.68L230.915 355.424C230.519 355.868 229.931 356.084 229.151 356.084C227.915 356.084 227.243 355.268 227.243 353.732V350.72ZM232.126 351.26L231.61 350.504C232.186 349.964 233.182 349.616 234.106 349.616C235.774 349.616 236.662 350.528 236.662 352.148V356H235.654V355.076C235.258 355.652 234.478 356.084 233.47 356.084C232.114 356.084 231.202 355.328 231.202 354.176C231.202 352.868 232.318 352.244 234.19 352.244C234.778 352.244 235.258 352.304 235.654 352.424C235.654 351.212 235.222 350.564 233.986 350.564C233.362 350.564 232.738 350.792 232.126 351.26ZM233.71 355.172C234.178 355.172 234.598 355.04 234.946 354.788C235.294 354.536 235.522 354.248 235.654 353.948V353.312C235.306 353.192 234.862 353.132 234.322 353.132C232.954 353.132 232.27 353.468 232.27 354.14C232.27 354.776 232.846 355.172 233.71 355.172ZM238.692 350.72H237.396V349.76H238.692V348.164H239.7V349.76H241.848V350.72H239.7V353.468C239.7 354.68 240.012 355.124 240.78 355.124C241.152 355.124 241.536 354.98 241.908 354.68L242.364 355.424C241.968 355.868 241.38 356.084 240.6 356.084C239.364 356.084 238.692 355.268 238.692 353.732V350.72ZM244.235 356H243.227V349.76H244.235V356ZM243.095 347.732C243.095 347.396 243.371 347.144 243.743 347.144C244.079 347.144 244.367 347.396 244.367 347.732C244.367 348.08 244.079 348.356 243.743 348.356C243.371 348.356 243.095 348.08 243.095 347.732ZM245.478 352.868C245.478 351.92 245.79 351.14 246.402 350.528C247.014 349.916 247.806 349.616 248.778 349.616C249.762 349.616 250.566 349.916 251.178 350.528C251.79 351.14 252.102 351.92 252.102 352.868C252.102 353.816 251.79 354.584 251.178 355.196C250.554 355.808 249.75 356.108 248.778 356.108C247.806 356.108 247.014 355.808 246.402 355.196C245.79 354.584 245.478 353.816 245.478 352.868ZM246.546 352.868C246.546 353.528 246.75 354.08 247.17 354.512C247.59 354.944 248.118 355.16 248.778 355.16C249.438 355.16 249.99 354.944 250.41 354.524C250.83 354.104 251.034 353.552 251.034 352.868C251.034 352.184 250.818 351.632 250.398 351.2C249.966 350.78 249.426 350.564 248.778 350.564C248.13 350.564 247.602 350.78 247.182 351.2C246.762 351.62 246.546 352.184 246.546 352.868ZM254.228 356H253.22V349.76H254.228V350.576C254.624 349.964 255.44 349.628 256.364 349.628C258.056 349.628 258.896 350.564 258.896 352.448V356H257.888V352.568C257.888 351.188 257.3 350.576 256.064 350.576C255.296 350.576 254.564 351.08 254.228 351.836V356Z" fill="#1A3341" fill-opacity="0.6"/>
<rect x="383" y="346.5" width="10" height="10" fill="#60CCCC"/>
<path d="M402.212 351.26L401.696 350.504C402.272 349.964 403.268 349.616 404.192 349.616C405.86 349.616 406.748 350.528 406.748 352.148V356H405.74V355.076C405.344 355.652 404.564 356.084 403.556 356.084C402.2 356.084 401.288 355.328 401.288 354.176C401.288 352.868 402.404 352.244 404.276 352.244C404.864 352.244 405.344 352.304 405.74 352.424C405.74 351.212 405.308 350.564 404.072 350.564C403.448 350.564 402.824 350.792 402.212 351.26ZM403.796 355.172C404.264 355.172 404.684 355.04 405.032 354.788C405.38 354.536 405.608 354.248 405.74 353.948V353.312C405.392 353.192 404.948 353.132 404.408 353.132C403.04 353.132 402.356 353.468 402.356 354.14C402.356 354.776 402.932 355.172 403.796 355.172ZM412.63 349.76H413.71L410.914 356H410.17L407.254 349.76H408.418L410.566 354.428L412.63 349.76ZM415.423 356H414.415V349.76H415.423V356ZM414.283 347.732C414.283 347.396 414.559 347.144 414.931 347.144C415.267 347.144 415.555 347.396 415.555 347.732C415.555 348.08 415.267 348.356 414.931 348.356C414.559 348.356 414.283 348.08 414.283 347.732ZM417.493 351.26L416.977 350.504C417.553 349.964 418.549 349.616 419.473 349.616C421.141 349.616 422.029 350.528 422.029 352.148V356H421.021V355.076C420.625 355.652 419.845 356.084 418.837 356.084C417.481 356.084 416.569 355.328 416.569 354.176C416.569 352.868 417.685 352.244 419.557 352.244C420.145 352.244 420.625 352.304 421.021 352.424C421.021 351.212 420.589 350.564 419.353 350.564C418.729 350.564 418.105 350.792 417.493 351.26ZM419.077 355.172C419.545 355.172 419.965 355.04 420.313 354.788C420.661 354.536 420.889 354.248 421.021 353.948V353.312C420.673 353.192 420.229 353.132 419.689 353.132C418.321 353.132 417.637 353.468 417.637 354.14C417.637 354.776 418.213 355.172 419.077 355.172ZM424.059 350.72H422.763V349.76H424.059V348.164H425.067V349.76H427.215V350.72H425.067V353.468C425.067 354.68 425.379 355.124 426.147 355.124C426.519 355.124 426.903 354.98 427.275 354.68L427.731 355.424C427.335 355.868 426.747 356.084 425.967 356.084C424.731 356.084 424.059 355.268 424.059 353.732V350.72ZM429.602 356H428.594V349.76H429.602V356ZM428.462 347.732C428.462 347.396 428.738 347.144 429.11 347.144C429.446 347.144 429.734 347.396 429.734 347.732C429.734 348.08 429.446 348.356 429.11 348.356C428.738 348.356 428.462 348.08 428.462 347.732ZM430.845 352.868C430.845 351.92 431.157 351.14 431.769 350.528C432.381 349.916 433.173 349.616 434.145 349.616C435.129 349.616 435.933 349.916 436.545 350.528C437.157 351.14 437.469 351.92 437.469 352.868C437.469 353.816 437.157 354.584 436.545 355.196C435.921 355.808 435.117 356.108 434.145 356.108C433.173 356.108 432.381 355.808 431.769 355.196C431.157 354.584 430.845 353.816 430.845 352.868ZM431.913 352.868C431.913 353.528 432.117 354.08 432.537 354.512C432.957 354.944 433.485 355.16 434.145 355.16C434.805 355.16 435.357 354.944 435.777 354.524C436.197 354.104 436.401 353.552 436.401 352.868C436.401 352.184 436.185 351.632 435.765 351.2C435.333 350.78 434.793 350.564 434.145 350.564C433.497 350.564 432.969 350.78 432.549 351.2C432.129 351.62 431.913 352.184 431.913 352.868ZM439.595 356H438.587V349.76H439.595V350.576C439.991 349.964 440.807 349.628 441.731 349.628C443.423 349.628 444.263 350.564 444.263 352.448V356H443.255V352.568C443.255 351.188 442.667 350.576 441.431 350.576C440.663 350.576 439.931 351.08 439.595 351.836V356Z" fill="#1A3341" fill-opacity="0.6"/>
<rect x="526" y="346.5" width="10" height="10" fill="#184977"/>
<path d="M545.212 351.26L544.696 350.504C545.272 349.964 546.268 349.616 547.192 349.616C548.86 349.616 549.748 350.528 549.748 352.148V356H548.74V355.076C548.344 355.652 547.564 356.084 546.556 356.084C545.2 356.084 544.288 355.328 544.288 354.176C544.288 352.868 545.404 352.244 547.276 352.244C547.864 352.244 548.344 352.304 548.74 352.424C548.74 351.212 548.308 350.564 547.072 350.564C546.448 350.564 545.824 350.792 545.212 351.26ZM546.796 355.172C547.264 355.172 547.684 355.04 548.032 354.788C548.38 354.536 548.608 354.248 548.74 353.948V353.312C548.392 353.192 547.948 353.132 547.408 353.132C546.04 353.132 545.356 353.468 545.356 354.14C545.356 354.776 545.932 355.172 546.796 355.172ZM555.654 349.724H556.662V356H555.654V355.112C555.174 355.772 554.502 356.108 553.626 356.108C551.898 356.108 551.058 355.244 551.058 353.336V349.724H552.066V353.192C552.066 354.5 552.618 355.16 553.71 355.16C554.574 355.16 555.27 354.668 555.654 353.804V349.724ZM558.751 350.72H557.455V349.76H558.751V348.164H559.759V349.76H561.907V350.72H559.759V353.468C559.759 354.68 560.071 355.124 560.839 355.124C561.211 355.124 561.595 354.98 561.967 354.68L562.423 355.424C562.027 355.868 561.439 356.084 560.659 356.084C559.423 356.084 558.751 355.268 558.751 353.732V350.72ZM562.63 352.868C562.63 351.92 562.942 351.14 563.554 350.528C564.166 349.916 564.958 349.616 565.93 349.616C566.914 349.616 567.718 349.916 568.33 350.528C568.942 351.14 569.254 351.92 569.254 352.868C569.254 353.816 568.942 354.584 568.33 355.196C567.706 355.808 566.902 356.108 565.93 356.108C564.958 356.108 564.166 355.808 563.554 355.196C562.942 354.584 562.63 353.816 562.63 352.868ZM563.698 352.868C563.698 353.528 563.902 354.08 564.322 354.512C564.742 354.944 565.27 355.16 565.93 355.16C566.59 355.16 567.142 354.944 567.562 354.524C567.982 354.104 568.186 353.552 568.186 352.868C568.186 352.184 567.97 351.632 567.55 351.2C567.118 350.78 566.578 350.564 565.93 350.564C565.282 350.564 564.754 350.78 564.334 351.2C563.914 351.62 563.698 352.184 563.698 352.868Z" fill="#1A3341" fill-opacity="0.6"/>
<path d="M117.148 37.3186C134.809 28.5632 154.254 24.0052 173.967 24L173.971 39.36C156.624 39.3645 139.512 43.3756 123.97 51.0804L117.148 37.3186Z" fill="#184977"/>
<path d="M174 24C204.857 24 234.675 35.1469 257.966 55.3885C281.256 75.6302 296.45 103.604 300.751 134.16C305.051 164.716 298.169 195.797 281.371 221.681C264.573 247.565 238.99 266.509 209.332 275.027C179.674 283.545 147.937 281.062 119.965 268.035C91.9919 255.009 69.6665 232.316 57.0984 204.135C44.5303 175.953 42.5656 144.18 51.566 114.665C60.5665 85.1495 79.9262 59.8791 106.081 43.5058L114.231 56.5251C91.215 70.9336 74.1785 93.1715 66.2581 119.145C58.3377 145.118 60.0666 173.079 71.1266 197.878C82.1865 222.678 101.833 242.648 126.449 254.111C151.065 265.574 178.993 267.759 205.092 260.264C231.192 252.768 253.705 236.097 268.487 213.319C283.269 190.541 289.325 163.19 285.541 136.301C281.756 109.411 268.385 84.7945 247.89 66.9819C227.394 49.1693 201.154 39.36 174 39.36V24Z" fill="url(#paint1_linear_6006_19053)"/>
<path d="M115.508 38.1461C117.893 36.9209 120.316 35.771 122.773 34.698L128.92 48.7743C126.758 49.7185 124.626 50.7304 122.527 51.8086L115.508 38.1461Z" fill="url(#paint2_linear_6006_19053)"/>
<path d="M103.002 45.4952C107.018 42.8179 111.183 40.37 115.475 38.1631L122.498 51.8235C118.721 53.7656 115.056 55.9198 111.522 58.2758L103.002 45.4952Z" fill="#DBE9EE"/>
<path d="M260.476 265.572C260.476 267.048 260.116 268.164 259.396 268.944C258.664 269.724 257.728 270.108 256.576 270.108C255.436 270.108 254.524 269.748 253.84 269.016L254.644 267.996C255.184 268.464 255.844 268.704 256.6 268.704C257.308 268.704 257.884 268.476 258.34 268.02C258.796 267.576 259.024 266.976 259.024 266.22C258.604 266.856 257.608 267.288 256.552 267.288C255.58 267.288 254.8 267.036 254.224 266.52C253.648 266.004 253.36 265.332 253.36 264.504C253.36 263.628 253.684 262.908 254.344 262.344C255.004 261.78 255.784 261.492 256.708 261.492C257.848 261.492 258.772 261.852 259.456 262.56C260.14 263.268 260.476 264.276 260.476 265.572ZM258.856 264.816C258.844 264.324 258.652 263.88 258.268 263.484C257.872 263.088 257.356 262.884 256.72 262.884C256.216 262.884 255.784 263.028 255.412 263.316C255.04 263.604 254.848 263.976 254.848 264.432C254.848 265.392 255.616 265.98 256.72 265.98C257.176 265.98 257.632 265.86 258.076 265.608C258.52 265.356 258.772 265.092 258.856 264.816ZM260.886 265.8C260.886 264.528 261.21 263.496 261.846 262.704C262.482 261.912 263.37 261.516 264.51 261.516C265.662 261.516 266.562 261.912 267.198 262.704C267.834 263.496 268.158 264.528 268.158 265.8C268.158 267.084 267.846 268.116 267.21 268.896C266.574 269.688 265.686 270.084 264.534 270.084C263.382 270.084 262.482 269.688 261.846 268.896C261.21 268.116 260.886 267.084 260.886 265.8ZM262.926 263.652C262.554 264.156 262.374 264.876 262.374 265.8C262.374 266.724 262.566 267.444 262.95 267.948C263.322 268.452 263.85 268.704 264.534 268.704C265.962 268.704 266.67 267.732 266.67 265.8C266.67 263.916 265.95 262.896 264.51 262.896C263.826 262.896 263.298 263.148 262.926 263.652ZM268.658 269.124C268.658 268.68 269.066 268.248 269.63 268.248C270.158 268.248 270.59 268.692 270.59 269.124C270.59 269.604 270.17 270.024 269.63 270.024C269.054 270.024 268.658 269.604 268.658 269.124ZM277.022 270H275.618V268.404H270.866V267.468L275.822 261.6H277.022V267.12H278.45V268.404H277.022V270ZM275.618 263.892L272.786 267.12H275.618V263.892Z" fill="#1A3341"/>
<path d="M104.382 23.144L103.89 21.944L106.71 20.576H107.622V29H106.23V22.292L104.382 23.144ZM108.696 28.124C108.696 27.68 109.104 27.248 109.668 27.248C110.196 27.248 110.628 27.692 110.628 28.124C110.628 28.604 110.208 29.024 109.668 29.024C109.092 29.024 108.696 28.604 108.696 28.124ZM112.38 23L111.144 22.448C111.576 21.236 112.848 20.492 114.42 20.492C115.308 20.492 116.04 20.684 116.604 21.068C117.168 21.464 117.456 21.968 117.456 22.604C117.456 23.552 116.904 24.284 116.1 24.524C116.952 24.728 117.636 25.34 117.636 26.492C117.636 27.272 117.336 27.908 116.736 28.376C116.124 28.856 115.38 29.096 114.48 29.096C113.52 29.096 112.608 28.868 111.816 28.208C111.42 27.884 111.132 27.476 110.976 27.008L112.296 26.456C112.464 26.828 112.752 27.128 113.148 27.356C113.544 27.584 113.94 27.704 114.36 27.704C115.38 27.704 116.136 27.26 116.136 26.504C116.136 25.652 115.392 25.364 114.096 25.364H113.28V24.044H114.144C115.236 24.044 115.968 23.564 115.968 22.904C115.968 22.58 115.812 22.316 115.5 22.136C115.188 21.956 114.792 21.86 114.3 21.86C113.808 21.86 113.424 21.956 113.124 22.148C112.824 22.34 112.584 22.628 112.38 23Z" fill="#1A3341"/>
<path d="M127.766 17.028C127.766 15.576 128.138 14.448 128.894 13.668C129.65 12.888 130.61 12.492 131.786 12.492C132.926 12.492 133.838 12.852 134.522 13.584L133.718 14.604C133.178 14.136 132.518 13.896 131.762 13.896C131.042 13.896 130.43 14.124 129.938 14.592C129.446 15.06 129.194 15.708 129.206 16.548C129.734 15.78 130.73 15.264 131.75 15.264C133.754 15.264 134.954 16.368 134.954 18.096C134.954 18.984 134.642 19.704 134.018 20.268C133.382 20.832 132.578 21.108 131.594 21.108C130.43 21.108 129.494 20.748 128.81 20.04C128.114 19.332 127.766 18.324 127.766 17.028ZM129.434 17.94C129.59 18.948 130.31 19.716 131.654 19.716C132.674 19.716 133.466 19.08 133.466 18.168C133.466 17.172 132.806 16.62 131.594 16.62C131.102 16.62 130.646 16.764 130.214 17.052C129.782 17.352 129.518 17.64 129.434 17.94ZM135.374 20.124C135.374 19.68 135.782 19.248 136.346 19.248C136.874 19.248 137.306 19.692 137.306 20.124C137.306 20.604 136.886 21.024 136.346 21.024C135.77 21.024 135.374 20.604 135.374 20.124ZM139.274 17.316L138.062 17.196L138.446 12.6H143.93V13.956H139.718L139.538 15.816C139.934 15.612 140.438 15.516 141.026 15.516C143.042 15.516 144.17 16.596 144.17 18.276C144.17 19.128 143.87 19.8 143.27 20.316C142.658 20.832 141.89 21.096 140.942 21.096C139.646 21.096 138.182 20.592 137.642 19.056L138.986 18.564C139.262 19.284 140.09 19.704 141.014 19.704C142.058 19.704 142.682 19.14 142.682 18.324C142.682 17.376 141.998 16.824 140.858 16.824C140.198 16.824 139.67 16.992 139.274 17.316Z" fill="#1A3341"/>
<path d="M82.0391 35.144L81.5471 33.944L84.3671 32.576H85.2791V41H83.8871V34.292L82.0391 35.144ZM86.3526 40.124C86.3526 39.68 86.7606 39.248 87.3246 39.248C87.8526 39.248 88.2846 39.692 88.2846 40.124C88.2846 40.604 87.8646 41.024 87.3246 41.024C86.7486 41.024 86.3526 40.604 86.3526 40.124ZM92.2443 36.068H92.5923C93.5043 36.068 94.2363 35.612 94.2363 34.928C94.2363 34.208 93.5883 33.824 92.4003 33.824C91.3443 33.824 90.5763 34.232 90.5763 34.916C90.5763 35.588 91.2483 36.068 92.2443 36.068ZM92.5683 37.304H92.2803C91.0923 37.304 90.3123 37.844 90.3123 38.528C90.3123 39.296 91.1043 39.788 92.4123 39.788C93.6963 39.788 94.5003 39.32 94.5003 38.552C94.5003 37.772 93.8043 37.304 92.5683 37.304ZM92.4243 41.096C91.3563 41.096 90.4803 40.88 89.8203 40.436C89.1603 40.004 88.8243 39.416 88.8243 38.66C88.8243 37.736 89.3283 36.968 90.2283 36.644C89.4723 36.32 89.0883 35.732 89.0883 34.856C89.0883 33.416 90.3363 32.504 92.4123 32.504C94.5363 32.504 95.7363 33.416 95.7363 34.856C95.7363 35.624 95.2923 36.32 94.4763 36.62C95.4963 36.872 96.0003 37.544 96.0003 38.612C96.0003 39.38 95.6643 39.98 94.9923 40.424C94.3203 40.868 93.4683 41.096 92.4243 41.096Z" fill="#1A3341"/>
<path d="M147.113 160.152V163H127.625V160.44L136.873 155.096C138.686 154.051 140.03 153.208 140.905 152.568C141.78 151.907 142.366 151.299 142.665 150.744C142.985 150.189 143.145 149.528 143.145 148.76V148.44C143.145 147.203 142.622 146.253 141.577 145.592C140.553 144.931 139.07 144.6 137.129 144.6C135.124 144.6 133.598 144.952 132.553 145.656C131.529 146.36 131.017 147.384 131.017 148.728V149.368H127.817V148.696C127.817 146.413 128.617 144.664 130.217 143.448C131.817 142.232 134.1 141.624 137.065 141.624C139.966 141.624 142.238 142.221 143.881 143.416C145.524 144.611 146.345 146.253 146.345 148.344V148.664C146.345 149.795 146.121 150.787 145.673 151.64C145.225 152.493 144.446 153.357 143.337 154.232C142.249 155.107 140.649 156.152 138.537 157.368L133.673 160.152H147.113ZM161.381 163.384C159.248 163.384 157.36 163 155.717 162.232C154.096 161.464 152.827 160.387 151.909 159C151.013 157.613 150.565 156.024 150.565 154.232V150.808C150.565 148.995 151.013 147.395 151.909 146.008C152.827 144.621 154.096 143.544 155.717 142.776C157.36 142.008 159.248 141.624 161.381 141.624C163.493 141.624 165.36 142.008 166.981 142.776C168.603 143.544 169.861 144.621 170.757 146.008C171.653 147.395 172.101 148.995 172.101 150.808V154.232C172.101 156.045 171.653 157.645 170.757 159.032C169.861 160.397 168.603 161.464 166.981 162.232C165.36 163 163.493 163.384 161.381 163.384ZM161.381 160.408C163.728 160.408 165.573 159.864 166.917 158.776C168.261 157.688 168.933 156.184 168.933 154.264V150.776C168.933 148.877 168.251 147.373 166.885 146.264C165.541 145.155 163.696 144.6 161.349 144.6C158.981 144.6 157.115 145.155 155.749 146.264C154.405 147.352 153.733 148.856 153.733 150.776V154.264C153.733 156.184 154.405 157.688 155.749 158.776C157.115 159.864 158.992 160.408 161.381 160.408ZM195.506 160.152V163H176.018V160.44L185.266 155.096C187.079 154.051 188.423 153.208 189.298 152.568C190.172 151.907 190.759 151.299 191.058 150.744C191.378 150.189 191.538 149.528 191.538 148.76V148.44C191.538 147.203 191.015 146.253 189.97 145.592C188.946 144.931 187.463 144.6 185.522 144.6C183.516 144.6 181.991 144.952 180.946 145.656C179.922 146.36 179.41 147.384 179.41 148.728V149.368H176.21V148.696C176.21 146.413 177.01 144.664 178.61 143.448C180.21 142.232 182.492 141.624 185.458 141.624C188.359 141.624 190.631 142.221 192.274 143.416C193.916 144.611 194.738 146.253 194.738 148.344V148.664C194.738 149.795 194.514 150.787 194.066 151.64C193.618 152.493 192.839 153.357 191.73 154.232C190.642 155.107 189.042 156.152 186.93 157.368L182.066 160.152H195.506ZM210.478 150.328C213.315 150.413 215.48 150.979 216.974 152.024C218.488 153.048 219.246 154.477 219.246 156.312V156.728C219.246 158.883 218.382 160.536 216.654 161.688C214.926 162.819 212.408 163.384 209.102 163.384C205.88 163.363 203.384 162.797 201.614 161.688C199.864 160.579 198.99 159.011 198.99 156.984V156.76H202.158V156.984C202.158 158.051 202.776 158.893 204.014 159.512C205.251 160.109 206.958 160.408 209.134 160.408C211.416 160.408 213.144 160.109 214.318 159.512C215.491 158.893 216.078 157.987 216.078 156.792V156.408C216.078 154.168 213.795 153.048 209.23 153.048H205.774V150.232L213.678 144.856H199.374V142.008H218.734V144.856L210.478 150.328Z" fill="#1A3341"/>
<path d="M547.6 24.8126C552.396 24.2696 557.219 23.9983 562.046 24L562.041 39.36C557.793 39.3585 553.549 39.5972 549.328 40.0751L547.6 24.8126Z" fill="#184977"/>
<path d="M562 24C594.556 24 625.889 36.4056 649.622 58.692C673.355 80.9784 687.703 111.471 689.747 143.963C691.792 176.455 681.378 208.505 660.626 233.59C639.873 258.675 610.342 274.91 578.043 278.991C545.743 283.071 513.102 274.69 486.763 255.554C460.425 236.418 442.368 207.965 436.267 175.985C430.167 144.005 436.481 110.902 453.926 83.4141C471.371 55.9258 498.634 36.1178 530.168 28.0213L533.988 42.8988C506.238 50.0236 482.246 67.4547 466.895 91.6444C451.544 115.834 445.987 144.964 451.355 173.107C456.724 201.249 472.614 226.288 495.792 243.128C518.97 259.967 547.694 267.343 576.118 263.752C604.541 260.161 630.529 245.874 648.791 223.799C667.053 201.725 676.217 173.52 674.418 144.927C672.619 116.334 659.992 89.501 639.107 69.889C618.223 50.2769 590.65 39.36 562 39.36V24Z" fill="url(#paint3_linear_6006_19053)"/>
<path d="M534.237 27.0471C538.687 26.0584 543.187 25.3081 547.717 24.7994L549.431 40.0635C545.444 40.5111 541.485 41.1714 537.569 42.0415L534.237 27.0471Z" fill="url(#paint4_linear_6006_19053)"/>
<path d="M526.454 29.0347C529.029 28.2902 531.628 27.6268 534.245 27.0454L537.575 42.04C535.272 42.5515 532.986 43.1354 530.719 43.7906L526.454 29.0347Z" fill="#DBE9EE"/>
<path d="M648.476 265.572C648.476 267.048 648.116 268.164 647.396 268.944C646.664 269.724 645.728 270.108 644.576 270.108C643.436 270.108 642.524 269.748 641.84 269.016L642.644 267.996C643.184 268.464 643.844 268.704 644.6 268.704C645.308 268.704 645.884 268.476 646.34 268.02C646.796 267.576 647.024 266.976 647.024 266.22C646.604 266.856 645.608 267.288 644.552 267.288C643.58 267.288 642.8 267.036 642.224 266.52C641.648 266.004 641.36 265.332 641.36 264.504C641.36 263.628 641.684 262.908 642.344 262.344C643.004 261.78 643.784 261.492 644.708 261.492C645.848 261.492 646.772 261.852 647.456 262.56C648.14 263.268 648.476 264.276 648.476 265.572ZM646.856 264.816C646.844 264.324 646.652 263.88 646.268 263.484C645.872 263.088 645.356 262.884 644.72 262.884C644.216 262.884 643.784 263.028 643.412 263.316C643.04 263.604 642.848 263.976 642.848 264.432C642.848 265.392 643.616 265.98 644.72 265.98C645.176 265.98 645.632 265.86 646.076 265.608C646.52 265.356 646.772 265.092 646.856 264.816ZM650.35 266.316L649.138 266.196L649.522 261.6H655.006V262.956H650.794L650.614 264.816C651.01 264.612 651.514 264.516 652.102 264.516C654.118 264.516 655.246 265.596 655.246 267.276C655.246 268.128 654.946 268.8 654.346 269.316C653.734 269.832 652.966 270.096 652.018 270.096C650.722 270.096 649.258 269.592 648.718 268.056L650.062 267.564C650.338 268.284 651.166 268.704 652.09 268.704C653.134 268.704 653.758 268.14 653.758 267.324C653.758 266.376 653.074 265.824 651.934 265.824C651.274 265.824 650.746 265.992 650.35 266.316ZM655.814 269.124C655.814 268.68 656.222 268.248 656.786 268.248C657.314 268.248 657.746 268.692 657.746 269.124C657.746 269.604 657.326 270.024 656.786 270.024C656.21 270.024 655.814 269.604 655.814 269.124ZM658.25 266.028C658.25 264.576 658.622 263.448 659.378 262.668C660.134 261.888 661.094 261.492 662.27 261.492C663.41 261.492 664.322 261.852 665.006 262.584L664.202 263.604C663.662 263.136 663.002 262.896 662.246 262.896C661.526 262.896 660.914 263.124 660.422 263.592C659.93 264.06 659.678 264.708 659.69 265.548C660.218 264.78 661.214 264.264 662.234 264.264C664.238 264.264 665.438 265.368 665.438 267.096C665.438 267.984 665.126 268.704 664.502 269.268C663.866 269.832 663.062 270.108 662.078 270.108C660.914 270.108 659.978 269.748 659.294 269.04C658.598 268.332 658.25 267.324 658.25 266.028ZM659.918 266.94C660.074 267.948 660.794 268.716 662.138 268.716C663.158 268.716 663.95 268.08 663.95 267.168C663.95 266.172 663.29 265.62 662.078 265.62C661.586 265.62 661.13 265.764 660.698 266.052C660.266 266.352 660.002 266.64 659.918 266.94Z" fill="#1A3341"/>
<path d="M529.66 10.144L529.168 8.944L531.988 7.576H532.9V16H531.508V9.292L529.66 10.144ZM533.974 15.124C533.974 14.68 534.382 14.248 534.946 14.248C535.474 14.248 535.906 14.692 535.906 15.124C535.906 15.604 535.486 16.024 534.946 16.024C534.37 16.024 533.974 15.604 533.974 15.124ZM540.957 8.956H536.145V7.6H542.673V8.512L538.713 16H537.189L540.957 8.956Z" fill="#1A3341"/>
<path d="M548.039 7.144L547.547 5.944L550.367 4.576H551.279V13H549.887V6.292L548.039 7.144ZM552.353 12.124C552.353 11.68 552.761 11.248 553.325 11.248C553.853 11.248 554.285 11.692 554.285 12.124C554.285 12.604 553.865 13.024 553.325 13.024C552.749 13.024 552.353 12.604 552.353 12.124ZM558.244 8.068H558.592C559.504 8.068 560.236 7.612 560.236 6.928C560.236 6.208 559.588 5.824 558.4 5.824C557.344 5.824 556.576 6.232 556.576 6.916C556.576 7.588 557.248 8.068 558.244 8.068ZM558.568 9.304H558.28C557.092 9.304 556.312 9.844 556.312 10.528C556.312 11.296 557.104 11.788 558.412 11.788C559.696 11.788 560.5 11.32 560.5 10.552C560.5 9.772 559.804 9.304 558.568 9.304ZM558.424 13.096C557.356 13.096 556.48 12.88 555.82 12.436C555.16 12.004 554.824 11.416 554.824 10.66C554.824 9.736 555.328 8.968 556.228 8.644C555.472 8.32 555.088 7.732 555.088 6.856C555.088 5.416 556.336 4.504 558.412 4.504C560.536 4.504 561.736 5.416 561.736 6.856C561.736 7.624 561.292 8.32 560.476 8.62C561.496 8.872 562 9.544 562 10.612C562 11.38 561.664 11.98 560.992 12.424C560.32 12.868 559.468 13.096 558.424 13.096Z" fill="#1A3341"/>
<path d="M511.027 15.144L510.535 13.944L513.355 12.576H514.267V21H512.875V14.292L511.027 15.144ZM515.341 20.124C515.341 19.68 515.749 19.248 516.313 19.248C516.841 19.248 517.273 19.692 517.273 20.124C517.273 20.604 516.853 21.024 516.313 21.024C515.737 21.024 515.341 20.604 515.341 20.124ZM517.777 16.8C517.777 15.528 518.101 14.496 518.737 13.704C519.373 12.912 520.261 12.516 521.401 12.516C522.553 12.516 523.453 12.912 524.089 13.704C524.725 14.496 525.049 15.528 525.049 16.8C525.049 18.084 524.737 19.116 524.101 19.896C523.465 20.688 522.577 21.084 521.425 21.084C520.273 21.084 519.373 20.688 518.737 19.896C518.101 19.116 517.777 18.084 517.777 16.8ZM519.817 14.652C519.445 15.156 519.265 15.876 519.265 16.8C519.265 17.724 519.457 18.444 519.841 18.948C520.213 19.452 520.741 19.704 521.425 19.704C522.853 19.704 523.561 18.732 523.561 16.8C523.561 14.916 522.841 13.896 521.401 13.896C520.717 13.896 520.189 14.148 519.817 14.652Z" fill="#1A3341"/>
<path d="M535.113 160.152V163H515.625V160.44L524.873 155.096C526.686 154.051 528.03 153.208 528.905 152.568C529.78 151.907 530.366 151.299 530.665 150.744C530.985 150.189 531.145 149.528 531.145 148.76V148.44C531.145 147.203 530.622 146.253 529.577 145.592C528.553 144.931 527.07 144.6 525.129 144.6C523.124 144.6 521.598 144.952 520.553 145.656C519.529 146.36 519.017 147.384 519.017 148.728V149.368H515.817V148.696C515.817 146.413 516.617 144.664 518.217 143.448C519.817 142.232 522.1 141.624 525.065 141.624C527.966 141.624 530.238 142.221 531.881 143.416C533.524 144.611 534.345 146.253 534.345 148.344V148.664C534.345 149.795 534.121 150.787 533.673 151.64C533.225 152.493 532.446 153.357 531.337 154.232C530.249 155.107 528.649 156.152 526.537 157.368L521.673 160.152H535.113ZM549.381 163.384C547.248 163.384 545.36 163 543.717 162.232C542.096 161.464 540.827 160.387 539.909 159C539.013 157.613 538.565 156.024 538.565 154.232V150.808C538.565 148.995 539.013 147.395 539.909 146.008C540.827 144.621 542.096 143.544 543.717 142.776C545.36 142.008 547.248 141.624 549.381 141.624C551.493 141.624 553.36 142.008 554.981 142.776C556.603 143.544 557.861 144.621 558.757 146.008C559.653 147.395 560.101 148.995 560.101 150.808V154.232C560.101 156.045 559.653 157.645 558.757 159.032C557.861 160.397 556.603 161.464 554.981 162.232C553.36 163 551.493 163.384 549.381 163.384ZM549.381 160.408C551.728 160.408 553.573 159.864 554.917 158.776C556.261 157.688 556.933 156.184 556.933 154.264V150.776C556.933 148.877 556.251 147.373 554.885 146.264C553.541 145.155 551.696 144.6 549.349 144.6C546.981 144.6 545.115 145.155 543.749 146.264C542.405 147.352 541.733 148.856 541.733 150.776V154.264C541.733 156.184 542.405 157.688 543.749 158.776C545.115 159.864 546.992 160.408 549.381 160.408ZM583.506 160.152V163H564.018V160.44L573.266 155.096C575.079 154.051 576.423 153.208 577.298 152.568C578.172 151.907 578.759 151.299 579.058 150.744C579.378 150.189 579.538 149.528 579.538 148.76V148.44C579.538 147.203 579.015 146.253 577.97 145.592C576.946 144.931 575.463 144.6 573.522 144.6C571.516 144.6 569.991 144.952 568.946 145.656C567.922 146.36 567.41 147.384 567.41 148.728V149.368H564.21V148.696C564.21 146.413 565.01 144.664 566.61 143.448C568.21 142.232 570.492 141.624 573.458 141.624C576.359 141.624 578.631 142.221 580.274 143.416C581.916 144.611 582.738 146.253 582.738 148.344V148.664C582.738 149.795 582.514 150.787 582.066 151.64C581.618 152.493 580.839 153.357 579.73 154.232C578.642 155.107 577.042 156.152 574.93 157.368L570.066 160.152H583.506ZM598.478 150.328C601.315 150.413 603.48 150.979 604.974 152.024C606.488 153.048 607.246 154.477 607.246 156.312V156.728C607.246 158.883 606.382 160.536 604.654 161.688C602.926 162.819 600.408 163.384 597.102 163.384C593.88 163.363 591.384 162.797 589.614 161.688C587.864 160.579 586.99 159.011 586.99 156.984V156.76H590.158V156.984C590.158 158.051 590.776 158.893 592.014 159.512C593.251 160.109 594.958 160.408 597.134 160.408C599.416 160.408 601.144 160.109 602.318 159.512C603.491 158.893 604.078 157.987 604.078 156.792V156.408C604.078 154.168 601.795 153.048 597.23 153.048H593.774V150.232L601.678 144.856H587.374V142.008H606.734V144.856L598.478 150.328Z" fill="#1A3341"/>
<rect y="327" width="736" height="1" fill="#ABBEC9"/>
<defs>
<linearGradient id="paint0_linear_6006_19053" x1="124" y1="347" x2="124" y2="357" gradientUnits="userSpaceOnUse">
<stop stop-color="#CDE3E9"/>
<stop offset="1" stop-color="#D3E8ED"/>
</linearGradient>
<linearGradient id="paint1_linear_6006_19053" x1="174" y1="24" x2="288.643" y2="231.583" gradientUnits="userSpaceOnUse">
<stop stop-color="#66CFF0"/>
<stop offset="1" stop-color="#A6E0F2"/>
</linearGradient>
<linearGradient id="paint2_linear_6006_19053" x1="46" y1="152" x2="187.334" y2="1.07294" gradientUnits="userSpaceOnUse">
<stop stop-color="#43C3BB"/>
<stop offset="1" stop-color="#78CCD1"/>
</linearGradient>
<linearGradient id="paint3_linear_6006_19053" x1="562" y1="24" x2="676.643" y2="231.583" gradientUnits="userSpaceOnUse">
<stop stop-color="#66CFF0"/>
<stop offset="1" stop-color="#A6E0F2"/>
</linearGradient>
<linearGradient id="paint4_linear_6006_19053" x1="434" y1="152" x2="575.334" y2="1.07294" gradientUnits="userSpaceOnUse">
<stop stop-color="#43C3BB"/>
<stop offset="1" stop-color="#78CCD1"/>
</linearGradient>
</defs>
</svg>
