<svg width="352" height="391" viewBox="0 0 352 391" fill="none" xmlns="http://www.w3.org/2000/svg">
<g clip-path="url(#clip0_6006_19051)">
<rect width="10" height="10" transform="translate(247 337)" fill="#0085D0"/>
<rect opacity="0.6" x="247" y="337" width="10" height="10" fill="url(#paint0_linear_6006_19051)"/>
<path d="M273.076 346H271.984V342.244H266.98V346H265.888V337.6H266.98V341.224H271.984V337.6H273.076V346ZM279.521 344.212L280.169 344.812C279.593 345.676 278.765 346.108 277.673 346.108C276.677 346.108 275.873 345.808 275.261 345.22C274.649 344.632 274.349 343.852 274.349 342.868C274.349 341.92 274.625 341.14 275.189 340.528C275.741 339.916 276.521 339.616 277.529 339.616C278.357 339.616 279.053 339.88 279.593 340.396C280.133 340.912 280.409 341.596 280.409 342.448C280.409 342.724 280.385 342.976 280.349 343.204H275.429C275.489 344.44 276.401 345.16 277.709 345.16C278.441 345.16 279.137 344.776 279.521 344.212ZM277.457 340.54C276.317 340.54 275.573 341.236 275.417 342.292H279.341C279.281 341.188 278.573 340.54 277.457 340.54ZM281.973 340.72H280.821V339.76H281.973V339.472C281.973 338.668 282.177 338.068 282.585 337.696C282.981 337.324 283.473 337.144 284.061 337.144C284.697 337.144 285.297 337.432 285.597 337.876L284.997 338.5C284.793 338.236 284.493 338.104 284.109 338.104C283.353 338.104 282.981 338.584 282.981 339.556V339.76H284.913V340.72H282.981V346H281.973V340.72ZM290.244 344.212L290.892 344.812C290.316 345.676 289.488 346.108 288.396 346.108C287.4 346.108 286.596 345.808 285.984 345.22C285.372 344.632 285.072 343.852 285.072 342.868C285.072 341.92 285.348 341.14 285.912 340.528C286.464 339.916 287.244 339.616 288.252 339.616C289.08 339.616 289.776 339.88 290.316 340.396C290.855 340.912 291.132 341.596 291.132 342.448C291.132 342.724 291.108 342.976 291.072 343.204H286.152C286.212 344.44 287.124 345.16 288.432 345.16C289.164 345.16 289.86 344.776 290.244 344.212ZM288.18 340.54C287.04 340.54 286.296 341.236 286.14 342.292H290.064C290.004 341.188 289.296 340.54 288.18 340.54ZM293.392 346H292.384V339.76H293.392V346ZM292.252 337.732C292.252 337.396 292.528 337.144 292.9 337.144C293.236 337.144 293.524 337.396 293.524 337.732C293.524 338.08 293.236 338.356 292.9 338.356C292.528 338.356 292.252 338.08 292.252 337.732Z" fill="#1A3341" fill-opacity="0.6"/>
<rect width="10" height="10" transform="translate(247 357)" fill="#184977"/>
<rect opacity="0.5" x="247" y="357" width="10" height="10" fill="#184977"/>
<path d="M265.432 361.8C265.432 360.588 265.84 359.556 266.668 358.728C267.496 357.9 268.504 357.492 269.704 357.492C270.892 357.492 271.9 357.9 272.728 358.716C273.556 359.532 273.964 360.564 273.964 361.8C273.964 363.024 273.556 364.044 272.728 364.872C271.9 365.7 270.892 366.108 269.704 366.108C268.504 366.108 267.496 365.7 266.668 364.884C265.84 364.068 265.432 363.036 265.432 361.8ZM266.572 361.8C266.572 362.736 266.884 363.516 267.496 364.128C268.108 364.752 268.84 365.064 269.704 365.064C270.592 365.064 271.336 364.752 271.936 364.14C272.524 363.528 272.824 362.748 272.824 361.8C272.824 360.852 272.524 360.072 271.912 359.46C271.3 358.848 270.556 358.536 269.704 358.536C268.828 358.536 268.096 358.848 267.484 359.46C266.872 360.072 266.572 360.852 266.572 361.8ZM275.766 360.72H274.47V359.76H275.766V358.164H276.774V359.76H278.922V360.72H276.774V363.468C276.774 364.68 277.086 365.124 277.854 365.124C278.226 365.124 278.61 364.98 278.982 364.68L279.438 365.424C279.042 365.868 278.454 366.084 277.674 366.084C276.438 366.084 275.766 365.268 275.766 363.732V360.72ZM281.178 366H280.17V357.24H281.178V360.576C281.658 359.94 282.33 359.628 283.206 359.628C284.958 359.628 285.834 360.576 285.834 362.46V366H284.826V362.556C284.826 361.212 284.25 360.576 283.014 360.576C282.186 360.576 281.514 361.104 281.178 361.872V366ZM292.048 364.212L292.696 364.812C292.12 365.676 291.292 366.108 290.2 366.108C289.204 366.108 288.4 365.808 287.788 365.22C287.176 364.632 286.876 363.852 286.876 362.868C286.876 361.92 287.152 361.14 287.716 360.528C288.268 359.916 289.048 359.616 290.056 359.616C290.884 359.616 291.58 359.88 292.12 360.396C292.66 360.912 292.936 361.596 292.936 362.448C292.936 362.724 292.912 362.976 292.876 363.204H287.956C288.016 364.44 288.928 365.16 290.236 365.16C290.968 365.16 291.664 364.776 292.048 364.212ZM289.984 360.54C288.844 360.54 288.1 361.236 287.944 362.292H291.868C291.808 361.188 291.1 360.54 289.984 360.54ZM295.064 366H294.056V359.76H295.064V360.24C295.268 359.82 295.808 359.628 296.348 359.628C296.9 359.628 297.32 359.82 297.62 360.192L296.984 360.888C296.828 360.684 296.588 360.576 296.24 360.576C295.7 360.576 295.208 361.02 295.064 361.656V366ZM302.126 364.296C302.126 363.456 300.698 363.324 299.558 363C298.778 362.772 298.154 362.256 298.154 361.404C298.154 360.3 299.198 359.616 300.746 359.616C301.79 359.616 302.63 360.06 303.074 360.696L302.366 361.356C301.97 360.828 301.37 360.564 300.566 360.564C299.846 360.564 299.222 360.84 299.222 361.356C299.222 362.088 300.65 362.22 301.79 362.568C302.558 362.808 303.182 363.384 303.182 364.284C303.182 365.496 302.21 366.108 300.686 366.108C299.402 366.108 298.31 365.532 297.866 364.632L298.67 364.068C299.042 364.728 299.894 365.16 300.854 365.16C301.706 365.16 302.126 364.872 302.126 364.296Z" fill="#1A3341" fill-opacity="0.6"/>
<path d="M31.2904 117.028C31.2904 115.576 31.6624 114.448 32.4184 113.668C33.1744 112.888 34.1344 112.492 35.3104 112.492C36.4504 112.492 37.3624 112.852 38.0464 113.584L37.2424 114.604C36.7024 114.136 36.0424 113.896 35.2864 113.896C34.5664 113.896 33.9544 114.124 33.4624 114.592C32.9704 115.06 32.7184 115.708 32.7304 116.548C33.2584 115.78 34.2544 115.264 35.2744 115.264C37.2784 115.264 38.4784 116.368 38.4784 118.096C38.4784 118.984 38.1664 119.704 37.5424 120.268C36.9064 120.832 36.1024 121.108 35.1184 121.108C33.9544 121.108 33.0184 120.748 32.3344 120.04C31.6384 119.332 31.2904 118.324 31.2904 117.028ZM32.9584 117.94C33.1144 118.948 33.8344 119.716 35.1784 119.716C36.1984 119.716 36.9904 119.08 36.9904 118.168C36.9904 117.172 36.3304 116.62 35.1184 116.62C34.6264 116.62 34.1704 116.764 33.7384 117.052C33.3064 117.352 33.0424 117.64 32.9584 117.94Z" fill="#1A3341"/>
<path d="M54.195 77H52.791V75.404H48.039V74.468L52.995 68.6H54.195V74.12H55.623V75.404H54.195V77ZM52.791 70.892L49.959 74.12H52.791V70.892Z" fill="#1A3341"/>
<path d="M38.6058 176.068H38.9538C39.8658 176.068 40.5978 175.612 40.5978 174.928C40.5978 174.208 39.9498 173.824 38.7618 173.824C37.7058 173.824 36.9378 174.232 36.9378 174.916C36.9378 175.588 37.6098 176.068 38.6058 176.068ZM38.9298 177.304H38.6418C37.4538 177.304 36.6738 177.844 36.6738 178.528C36.6738 179.296 37.4658 179.788 38.7738 179.788C40.0578 179.788 40.8618 179.32 40.8618 178.552C40.8618 177.772 40.1658 177.304 38.9298 177.304ZM38.7858 181.096C37.7178 181.096 36.8418 180.88 36.1818 180.436C35.5218 180.004 35.1858 179.416 35.1858 178.66C35.1858 177.736 35.6898 176.968 36.5898 176.644C35.8338 176.32 35.4498 175.732 35.4498 174.856C35.4498 173.416 36.6978 172.504 38.7738 172.504C40.8978 172.504 42.0978 173.416 42.0978 174.856C42.0978 175.624 41.6538 176.32 40.8378 176.62C41.8578 176.872 42.3618 177.544 42.3618 178.612C42.3618 179.38 42.0258 179.98 41.3538 180.424C40.6818 180.868 39.8298 181.096 38.7858 181.096Z" fill="#1A3341"/>
<path d="M300.732 164.987C295.667 191.539 282.325 215.806 262.62 234.31C242.915 252.813 217.858 264.604 191.04 267.991L189.115 252.752C212.715 249.771 234.765 239.396 252.106 223.113C269.446 206.83 281.187 185.475 285.644 162.109L300.732 164.987Z" fill="url(#paint1_linear_6006_19051)"/>
<path d="M191.037 267.991C165.581 271.206 139.746 266.696 116.884 255.046C94.0228 243.397 75.1902 225.145 62.8301 202.66L76.2905 195.26C87.1674 215.047 103.74 231.109 123.858 241.361C143.976 251.613 166.711 255.581 189.113 252.752L191.037 267.991Z" fill="url(#paint2_linear_6006_19051)"/>
<path d="M62.824 202.649C52.44 183.754 46.9969 162.542 47 140.982L62.36 140.984C62.3573 159.957 67.1472 178.623 76.2851 195.251L62.824 202.649Z" fill="#8BB6C2"/>
<path d="M55.9956 93.8625C59.9498 83.8796 65.1444 74.434 71.457 65.7482L83.8821 74.7784C78.327 82.4219 73.7558 90.7341 70.2761 99.519L55.9956 93.8625Z" fill="url(#paint3_linear_6006_19051)"/>
<path d="M47 141C47 124.867 50.0497 108.88 55.9886 93.8801L70.27 99.5345C65.0438 112.734 62.36 126.803 62.36 141L47 141Z" fill="#5A96A8"/>
<path d="M71.4484 65.76C74.601 61.421 78.0233 57.2845 81.695 53.3749L92.8916 63.8899C89.6605 67.3304 86.6489 70.9705 83.8746 74.7888L71.4484 65.76Z" fill="#0085D0"/>
<path d="M81.6806 53.3902C93.649 40.6418 108.103 30.4808 124.15 23.5341C140.197 16.5874 157.497 13.0023 174.983 13L174.985 28.36C159.597 28.362 144.373 31.5169 130.252 37.63C116.13 43.7431 103.411 52.6848 92.8789 63.9034L81.6806 53.3902Z" fill="#184977"/>
<path d="M175 13C193.842 13 212.451 17.1597 229.5 25.1821C246.548 33.2046 261.615 44.8919 273.626 59.4097C285.636 73.9275 294.293 90.9178 298.979 109.168C303.664 127.417 304.263 146.477 300.733 164.985L285.645 162.107C288.752 145.82 288.225 129.047 284.101 112.988C279.978 96.9277 272.36 81.9762 261.791 69.2005C251.222 56.4249 237.962 46.14 222.96 39.0803C207.957 32.0205 191.581 28.36 175 28.36L175 13Z" fill="url(#paint4_linear_6006_19051)"/>
<path d="M268.62 31.7664L267.36 31.2624C267.78 29.8224 269.064 29.0184 270.708 29.0184C272.616 29.0184 273.732 30.0144 273.732 31.5024C273.732 32.5944 273.264 33.4824 272.436 34.2504C272.016 34.6464 271.44 35.0904 270.708 35.6064L269.748 36.1584H273.996V37.5024H267.48V36.4344L269.376 35.0544C269.436 35.0064 269.604 34.8744 269.904 34.6464C270.204 34.4184 270.396 34.2624 270.492 34.1784C270.588 34.0944 270.756 33.9504 271.008 33.7464C271.248 33.5424 271.416 33.3744 271.524 33.2424C271.716 33.0024 272.064 32.5824 272.172 32.2464C272.22 32.0784 272.244 31.9104 272.244 31.7304C272.244 30.9144 271.656 30.4104 270.684 30.4104C269.64 30.4104 268.956 30.9864 268.62 31.7664ZM277.838 32.5704H278.186C279.098 32.5704 279.83 32.1144 279.83 31.4304C279.83 30.7104 279.182 30.3264 277.994 30.3264C276.938 30.3264 276.17 30.7344 276.17 31.4184C276.17 32.0904 276.842 32.5704 277.838 32.5704ZM278.162 33.8064H277.874C276.686 33.8064 275.906 34.3464 275.906 35.0304C275.906 35.7984 276.698 36.2904 278.006 36.2904C279.29 36.2904 280.094 35.8224 280.094 35.0544C280.094 34.2744 279.398 33.8064 278.162 33.8064ZM278.018 37.5984C276.95 37.5984 276.074 37.3824 275.414 36.9384C274.754 36.5064 274.418 35.9184 274.418 35.1624C274.418 34.2384 274.922 33.4704 275.822 33.1464C275.066 32.8224 274.682 32.2344 274.682 31.3584C274.682 29.9184 275.93 29.0064 278.006 29.0064C280.13 29.0064 281.33 29.9184 281.33 31.3584C281.33 32.1264 280.886 32.8224 280.07 33.1224C281.09 33.3744 281.594 34.0464 281.594 35.1144C281.594 35.8824 281.258 36.4824 280.586 36.9264C279.914 37.3704 279.062 37.5984 278.018 37.5984Z" fill="#1A3341"/>
<path d="M271.995 239.709L270.735 239.205C271.155 237.765 272.439 236.961 274.083 236.961C275.991 236.961 277.107 237.957 277.107 239.445C277.107 240.537 276.639 241.425 275.811 242.193C275.391 242.589 274.815 243.033 274.083 243.549L273.123 244.101H277.371V245.445H270.855V244.377L272.751 242.997C272.811 242.949 272.979 242.817 273.279 242.589C273.579 242.361 273.771 242.205 273.867 242.121C273.963 242.037 274.131 241.893 274.383 241.689C274.623 241.485 274.791 241.317 274.899 241.185C275.091 240.945 275.439 240.525 275.547 240.189C275.595 240.021 275.619 239.853 275.619 239.673C275.619 238.857 275.031 238.353 274.059 238.353C273.015 238.353 272.331 238.929 271.995 239.709ZM277.757 241.245C277.757 239.973 278.081 238.941 278.717 238.149C279.353 237.357 280.241 236.961 281.381 236.961C282.533 236.961 283.433 237.357 284.069 238.149C284.705 238.941 285.029 239.973 285.029 241.245C285.029 242.529 284.717 243.561 284.081 244.341C283.445 245.133 282.557 245.529 281.405 245.529C280.253 245.529 279.353 245.133 278.717 244.341C278.081 243.561 277.757 242.529 277.757 241.245ZM279.797 239.097C279.425 239.601 279.245 240.321 279.245 241.245C279.245 242.169 279.437 242.889 279.821 243.393C280.193 243.897 280.721 244.149 281.405 244.149C282.833 244.149 283.541 243.177 283.541 241.245C283.541 239.361 282.821 238.341 281.381 238.341C280.697 238.341 280.169 238.593 279.797 239.097Z" fill="#1A3341"/>
<path d="M91.8595 259.305L91.3675 258.105L94.1875 256.737H95.0995V265.161H93.7075V258.453L91.8595 259.305ZM103.109 260.733C103.109 262.209 102.749 263.325 102.029 264.105C101.297 264.885 100.361 265.269 99.209 265.269C98.069 265.269 97.157 264.909 96.473 264.177L97.277 263.157C97.817 263.625 98.477 263.865 99.233 263.865C99.941 263.865 100.517 263.637 100.973 263.181C101.429 262.737 101.657 262.137 101.657 261.381C101.237 262.017 100.241 262.449 99.185 262.449C98.213 262.449 97.433 262.197 96.857 261.681C96.281 261.165 95.993 260.493 95.993 259.665C95.993 258.789 96.317 258.069 96.977 257.505C97.637 256.941 98.417 256.653 99.341 256.653C100.481 256.653 101.405 257.013 102.089 257.721C102.773 258.429 103.109 259.437 103.109 260.733ZM101.489 259.977C101.477 259.485 101.285 259.041 100.901 258.645C100.505 258.249 99.989 258.045 99.353 258.045C98.849 258.045 98.417 258.189 98.045 258.477C97.673 258.765 97.481 259.137 97.481 259.593C97.481 260.553 98.249 261.141 99.353 261.141C99.809 261.141 100.265 261.021 100.709 260.769C101.153 260.517 101.405 260.253 101.489 259.977Z" fill="#1A3341"/>
<path d="M107.914 7.144L107.422 5.944L110.242 4.576H111.154V13H109.762V6.292L107.914 7.144ZM113.38 7L112.144 6.448C112.576 5.236 113.848 4.492 115.42 4.492C116.308 4.492 117.04 4.684 117.604 5.068C118.168 5.464 118.456 5.968 118.456 6.604C118.456 7.552 117.904 8.284 117.1 8.524C117.952 8.728 118.636 9.34 118.636 10.492C118.636 11.272 118.336 11.908 117.736 12.376C117.124 12.856 116.38 13.096 115.48 13.096C114.52 13.096 113.608 12.868 112.816 12.208C112.42 11.884 112.132 11.476 111.976 11.008L113.296 10.456C113.464 10.828 113.752 11.128 114.148 11.356C114.544 11.584 114.94 11.704 115.36 11.704C116.38 11.704 117.136 11.26 117.136 10.504C117.136 9.652 116.392 9.364 115.096 9.364H114.28V8.044H115.144C116.236 8.044 116.968 7.564 116.968 6.904C116.968 6.58 116.812 6.316 116.5 6.136C116.188 5.956 115.792 5.86 115.3 5.86C114.808 5.86 114.424 5.956 114.124 6.148C113.824 6.34 113.584 6.628 113.38 7Z" fill="#1A3341"/>
<path d="M65.202 47.264L63.942 46.76C64.362 45.32 65.646 44.516 67.29 44.516C69.198 44.516 70.314 45.512 70.314 47C70.314 48.092 69.846 48.98 69.018 49.748C68.598 50.144 68.022 50.588 67.29 51.104L66.33 51.656H70.578V53H64.062V51.932L65.958 50.552C66.018 50.504 66.186 50.372 66.486 50.144C66.786 49.916 66.978 49.76 67.074 49.676C67.17 49.592 67.338 49.448 67.59 49.244C67.83 49.04 67.998 48.872 68.106 48.74C68.298 48.5 68.646 48.08 68.754 47.744C68.802 47.576 68.826 47.408 68.826 47.228C68.826 46.412 68.238 45.908 67.266 45.908C66.222 45.908 65.538 46.484 65.202 47.264Z" fill="#1A3341"/>
<path d="M148.613 133.152V136H129.125V133.44L138.373 128.096C140.186 127.051 141.53 126.208 142.405 125.568C143.28 124.907 143.866 124.299 144.165 123.744C144.485 123.189 144.645 122.528 144.645 121.76V121.44C144.645 120.203 144.122 119.253 143.077 118.592C142.053 117.931 140.57 117.6 138.629 117.6C136.624 117.6 135.098 117.952 134.053 118.656C133.029 119.36 132.517 120.384 132.517 121.728V122.368H129.317V121.696C129.317 119.413 130.117 117.664 131.717 116.448C133.317 115.232 135.6 114.624 138.565 114.624C141.466 114.624 143.738 115.221 145.381 116.416C147.024 117.611 147.845 119.253 147.845 121.344V121.664C147.845 122.795 147.621 123.787 147.173 124.64C146.725 125.493 145.946 126.357 144.837 127.232C143.749 128.107 142.149 129.152 140.037 130.368L135.173 133.152H148.613ZM162.881 136.384C160.748 136.384 158.86 136 157.217 135.232C155.596 134.464 154.327 133.387 153.409 132C152.513 130.613 152.065 129.024 152.065 127.232V123.808C152.065 121.995 152.513 120.395 153.409 119.008C154.327 117.621 155.596 116.544 157.217 115.776C158.86 115.008 160.748 114.624 162.881 114.624C164.993 114.624 166.86 115.008 168.481 115.776C170.103 116.544 171.361 117.621 172.257 119.008C173.153 120.395 173.601 121.995 173.601 123.808V127.232C173.601 129.045 173.153 130.645 172.257 132.032C171.361 133.397 170.103 134.464 168.481 135.232C166.86 136 164.993 136.384 162.881 136.384ZM162.881 133.408C165.228 133.408 167.073 132.864 168.417 131.776C169.761 130.688 170.433 129.184 170.433 127.264V123.776C170.433 121.877 169.751 120.373 168.385 119.264C167.041 118.155 165.196 117.6 162.849 117.6C160.481 117.6 158.615 118.155 157.249 119.264C155.905 120.352 155.233 121.856 155.233 123.776V127.264C155.233 129.184 155.905 130.688 157.249 131.776C158.615 132.864 160.492 133.408 162.881 133.408ZM197.006 133.152V136H177.518V133.44L186.766 128.096C188.579 127.051 189.923 126.208 190.798 125.568C191.672 124.907 192.259 124.299 192.558 123.744C192.878 123.189 193.038 122.528 193.038 121.76V121.44C193.038 120.203 192.515 119.253 191.47 118.592C190.446 117.931 188.963 117.6 187.022 117.6C185.016 117.6 183.491 117.952 182.446 118.656C181.422 119.36 180.91 120.384 180.91 121.728V122.368H177.71V121.696C177.71 119.413 178.51 117.664 180.11 116.448C181.71 115.232 183.992 114.624 186.958 114.624C189.859 114.624 192.131 115.221 193.774 116.416C195.416 117.611 196.238 119.253 196.238 121.344V121.664C196.238 122.795 196.014 123.787 195.566 124.64C195.118 125.493 194.339 126.357 193.23 127.232C192.142 128.107 190.542 129.152 188.43 130.368L183.566 133.152H197.006ZM211.978 123.328C214.815 123.413 216.98 123.979 218.474 125.024C219.988 126.048 220.746 127.477 220.746 129.312V129.728C220.746 131.883 219.882 133.536 218.154 134.688C216.426 135.819 213.908 136.384 210.602 136.384C207.38 136.363 204.884 135.797 203.114 134.688C201.364 133.579 200.49 132.011 200.49 129.984V129.76H203.658V129.984C203.658 131.051 204.276 131.893 205.514 132.512C206.751 133.109 208.458 133.408 210.634 133.408C212.916 133.408 214.644 133.109 215.818 132.512C216.991 131.893 217.578 130.987 217.578 129.792V129.408C217.578 127.168 215.295 126.048 210.73 126.048H207.274V123.232L215.178 117.856H200.874V115.008H220.234V117.856L211.978 123.328Z" fill="#1A3341"/>
<path d="M104.79 161H102.112V151.9H104.92C108.612 151.9 109.938 153.941 109.938 156.32C109.938 157.698 109.509 158.816 108.638 159.687C107.767 160.558 106.493 161 104.79 161ZM104.894 153.005H103.295V159.895H104.868C107.468 159.895 108.716 158.504 108.716 156.32C108.716 154.279 107.559 153.005 104.894 153.005ZM112.303 161H111.211V154.24H112.303V161ZM111.068 152.043C111.068 151.679 111.367 151.406 111.77 151.406C112.134 151.406 112.446 151.679 112.446 152.043C112.446 152.42 112.134 152.719 111.77 152.719C111.367 152.719 111.068 152.42 111.068 152.043ZM118.043 159.154C118.043 158.244 116.496 158.101 115.261 157.75C114.416 157.503 113.74 156.944 113.74 156.021C113.74 154.825 114.871 154.084 116.548 154.084C117.679 154.084 118.589 154.565 119.07 155.254L118.303 155.969C117.874 155.397 117.224 155.111 116.353 155.111C115.573 155.111 114.897 155.41 114.897 155.969C114.897 156.762 116.444 156.905 117.679 157.282C118.511 157.542 119.187 158.166 119.187 159.141C119.187 160.454 118.134 161.117 116.483 161.117C115.092 161.117 113.909 160.493 113.428 159.518L114.299 158.907C114.702 159.622 115.625 160.09 116.665 160.09C117.588 160.09 118.043 159.778 118.043 159.154ZM120.917 155.28H119.513V154.24H120.917V152.511H122.009V154.24H124.336V155.28H122.009V158.257C122.009 159.57 122.347 160.051 123.179 160.051C123.582 160.051 123.998 159.895 124.401 159.57L124.895 160.376C124.466 160.857 123.829 161.091 122.984 161.091C121.645 161.091 120.917 160.207 120.917 158.543V155.28ZM126.649 161H125.557V154.24H126.649V154.76C126.87 154.305 127.455 154.097 128.04 154.097C128.638 154.097 129.093 154.305 129.418 154.708L128.729 155.462C128.56 155.241 128.3 155.124 127.923 155.124C127.338 155.124 126.805 155.605 126.649 156.294V161ZM131.257 161H130.165V154.24H131.257V161ZM130.022 152.043C130.022 151.679 130.321 151.406 130.724 151.406C131.088 151.406 131.4 151.679 131.4 152.043C131.4 152.42 131.088 152.719 130.724 152.719C130.321 152.719 130.022 152.42 130.022 152.043ZM132.85 159.765V151.51H133.942V155.059C134.501 154.409 135.255 154.084 136.178 154.084C137.153 154.084 137.933 154.396 138.492 155.02C139.051 155.657 139.337 156.476 139.337 157.503C139.337 158.608 139.025 159.492 138.388 160.142C137.751 160.792 136.906 161.117 135.84 161.117C135.255 161.117 134.683 160.987 134.124 160.727C133.565 160.48 133.136 160.155 132.85 159.765ZM136.009 155.111C135.125 155.111 134.345 155.67 133.942 156.411V159.245C134.397 159.765 135.19 160.09 135.918 160.09C137.231 160.09 138.18 159.128 138.18 157.568C138.18 156.047 137.309 155.111 136.009 155.111ZM145.302 154.201H146.394V161H145.302V160.038C144.782 160.753 144.054 161.117 143.105 161.117C141.233 161.117 140.323 160.181 140.323 158.114V154.201H141.415V157.958C141.415 159.375 142.013 160.09 143.196 160.09C144.132 160.09 144.886 159.557 145.302 158.621V154.201ZM148.526 155.28H147.122V154.24H148.526V152.511H149.618V154.24H151.945V155.28H149.618V158.257C149.618 159.57 149.956 160.051 150.788 160.051C151.191 160.051 151.607 159.895 152.01 159.57L152.504 160.376C152.075 160.857 151.438 161.091 150.593 161.091C149.254 161.091 148.526 160.207 148.526 158.543V155.28ZM154.401 161H153.309V154.24H154.401V161ZM153.166 152.043C153.166 151.679 153.465 151.406 153.868 151.406C154.232 151.406 154.544 151.679 154.544 152.043C154.544 152.42 154.232 152.719 153.868 152.719C153.465 152.719 153.166 152.42 153.166 152.043ZM155.617 157.607C155.617 156.58 155.955 155.735 156.618 155.072C157.281 154.409 158.139 154.084 159.192 154.084C160.258 154.084 161.129 154.409 161.792 155.072C162.455 155.735 162.793 156.58 162.793 157.607C162.793 158.634 162.455 159.466 161.792 160.129C161.116 160.792 160.245 161.117 159.192 161.117C158.139 161.117 157.281 160.792 156.618 160.129C155.955 159.466 155.617 158.634 155.617 157.607ZM156.774 157.607C156.774 158.322 156.995 158.92 157.45 159.388C157.905 159.856 158.477 160.09 159.192 160.09C159.907 160.09 160.505 159.856 160.96 159.401C161.415 158.946 161.636 158.348 161.636 157.607C161.636 156.866 161.402 156.268 160.947 155.8C160.479 155.345 159.894 155.111 159.192 155.111C158.49 155.111 157.918 155.345 157.463 155.8C157.008 156.255 156.774 156.866 156.774 157.607ZM164.967 161H163.875V154.24H164.967V155.124C165.396 154.461 166.28 154.097 167.281 154.097C169.114 154.097 170.024 155.111 170.024 157.152V161H168.932V157.282C168.932 155.787 168.295 155.124 166.956 155.124C166.124 155.124 165.331 155.67 164.967 156.489V161ZM175.168 159.765V151.51H176.26V155.059C176.819 154.409 177.573 154.084 178.496 154.084C179.471 154.084 180.251 154.396 180.81 155.02C181.369 155.657 181.655 156.476 181.655 157.503C181.655 158.608 181.343 159.492 180.706 160.142C180.069 160.792 179.224 161.117 178.158 161.117C177.573 161.117 177.001 160.987 176.442 160.727C175.883 160.48 175.454 160.155 175.168 159.765ZM178.327 155.111C177.443 155.111 176.663 155.67 176.26 156.411V159.245C176.715 159.765 177.508 160.09 178.236 160.09C179.549 160.09 180.498 159.128 180.498 157.568C180.498 156.047 179.627 155.111 178.327 155.111ZM182.697 163.574L183.126 162.625C183.23 162.664 183.321 162.69 183.412 162.69C183.919 162.69 184.27 162.339 184.725 161.26L184.933 160.753L181.657 154.24H182.944L185.479 159.375L187.39 154.24H188.586L186.012 160.896C185.57 161.988 185.154 162.729 184.777 163.132C184.387 163.535 183.945 163.73 183.451 163.73C183.165 163.73 182.918 163.678 182.697 163.574ZM194.05 163.6H192.958V154.24H194.05V155.085C194.505 154.422 195.233 154.084 196.234 154.084C197.222 154.084 198.015 154.396 198.6 155.033C199.185 155.67 199.471 156.489 199.471 157.503C199.471 158.543 199.159 159.401 198.535 160.09C197.898 160.779 197.092 161.117 196.104 161.117C195.194 161.117 194.505 160.883 194.05 160.428V163.6ZM196.117 155.111C195.129 155.111 194.362 155.748 194.05 156.515V159.037C194.44 159.739 195.09 160.09 196.013 160.09C196.676 160.09 197.235 159.856 197.664 159.388C198.093 158.92 198.314 158.322 198.314 157.581C198.314 156.073 197.469 155.111 196.117 155.111ZM201.638 161H200.546V154.24H201.638V154.76C201.859 154.305 202.444 154.097 203.029 154.097C203.627 154.097 204.082 154.305 204.407 154.708L203.718 155.462C203.549 155.241 203.289 155.124 202.912 155.124C202.327 155.124 201.794 155.605 201.638 156.294V161ZM204.241 157.607C204.241 156.58 204.579 155.735 205.242 155.072C205.905 154.409 206.763 154.084 207.816 154.084C208.882 154.084 209.753 154.409 210.416 155.072C211.079 155.735 211.417 156.58 211.417 157.607C211.417 158.634 211.079 159.466 210.416 160.129C209.74 160.792 208.869 161.117 207.816 161.117C206.763 161.117 205.905 160.792 205.242 160.129C204.579 159.466 204.241 158.634 204.241 157.607ZM205.398 157.607C205.398 158.322 205.619 158.92 206.074 159.388C206.529 159.856 207.101 160.09 207.816 160.09C208.531 160.09 209.129 159.856 209.584 159.401C210.039 158.946 210.26 158.348 210.26 157.607C210.26 156.866 210.026 156.268 209.571 155.8C209.103 155.345 208.518 155.111 207.816 155.111C207.114 155.111 206.542 155.345 206.087 155.8C205.632 156.255 205.398 156.866 205.398 157.607ZM217.171 154.24H218.341L215.312 161H214.506L211.347 154.24H212.608L214.935 159.297L217.171 154.24ZM220.066 161H218.974V154.24H220.066V161ZM218.831 152.043C218.831 151.679 219.13 151.406 219.533 151.406C219.897 151.406 220.209 151.679 220.209 152.043C220.209 152.42 219.897 152.719 219.533 152.719C219.13 152.719 218.831 152.42 218.831 152.043ZM222.751 161H221.659V154.24H222.751V155.124C223.18 154.461 224.064 154.097 225.065 154.097C226.898 154.097 227.808 155.111 227.808 157.152V161H226.716V157.282C226.716 155.787 226.079 155.124 224.74 155.124C223.908 155.124 223.115 155.67 222.751 156.489V161ZM234.423 159.05L235.203 159.609C234.696 160.558 233.552 161.117 232.421 161.117C231.342 161.117 230.471 160.792 229.808 160.155C229.145 159.518 228.807 158.673 228.807 157.607C228.807 156.593 229.132 155.748 229.795 155.085C230.458 154.422 231.303 154.084 232.356 154.084C233.565 154.084 234.644 154.63 235.099 155.462L234.254 156.034C233.799 155.423 233.175 155.111 232.382 155.111C231.68 155.111 231.108 155.345 230.653 155.813C230.198 156.281 229.964 156.879 229.964 157.607C229.964 158.348 230.198 158.946 230.679 159.401C231.147 159.856 231.758 160.09 232.525 160.09C233.331 160.09 233.968 159.739 234.423 159.05ZM241.136 159.063L241.838 159.713C241.214 160.649 240.317 161.117 239.134 161.117C238.055 161.117 237.184 160.792 236.521 160.155C235.858 159.518 235.533 158.673 235.533 157.607C235.533 156.58 235.832 155.735 236.443 155.072C237.041 154.409 237.886 154.084 238.978 154.084C239.875 154.084 240.629 154.37 241.214 154.929C241.799 155.488 242.098 156.229 242.098 157.152C242.098 157.451 242.072 157.724 242.033 157.971H236.703C236.768 159.31 237.756 160.09 239.173 160.09C239.966 160.09 240.72 159.674 241.136 159.063ZM238.9 155.085C237.665 155.085 236.859 155.839 236.69 156.983H240.941C240.876 155.787 240.109 155.085 238.9 155.085ZM247.328 159.154C247.328 158.244 245.781 158.101 244.546 157.75C243.701 157.503 243.025 156.944 243.025 156.021C243.025 154.825 244.156 154.084 245.833 154.084C246.964 154.084 247.874 154.565 248.355 155.254L247.588 155.969C247.159 155.397 246.509 155.111 245.638 155.111C244.858 155.111 244.182 155.41 244.182 155.969C244.182 156.762 245.729 156.905 246.964 157.282C247.796 157.542 248.472 158.166 248.472 159.141C248.472 160.454 247.419 161.117 245.768 161.117C244.377 161.117 243.194 160.493 242.713 159.518L243.584 158.907C243.987 159.622 244.91 160.09 245.95 160.09C246.873 160.09 247.328 159.778 247.328 159.154Z" fill="#3C525E"/>
<g opacity="0.8">
<rect opacity="0.9" y="337" width="10" height="10" fill="url(#paint5_linear_6006_19051)"/>
</g>
<path d="M24.348 337.6H25.668L22.632 341.728L25.764 346H24.456L21.96 342.604L19.464 346H18.156L21.3 341.728L18.288 337.6H19.584L21.972 340.852L24.348 337.6ZM27.7939 346H26.7859V339.76H27.7939V346ZM26.6539 337.732C26.6539 337.396 26.9299 337.144 27.3019 337.144C27.6379 337.144 27.9259 337.396 27.9259 337.732C27.9259 338.08 27.6379 338.356 27.3019 338.356C26.9299 338.356 26.6539 338.08 26.6539 337.732ZM30.7163 340.348H29.6723V337.6H30.7163V340.348ZM32.9464 341.26L32.4304 340.504C33.0064 339.964 34.0024 339.616 34.9264 339.616C36.5944 339.616 37.4824 340.528 37.4824 342.148V346H36.4744V345.076C36.0784 345.652 35.2984 346.084 34.2904 346.084C32.9344 346.084 32.0224 345.328 32.0224 344.176C32.0224 342.868 33.1384 342.244 35.0104 342.244C35.5984 342.244 36.0784 342.304 36.4744 342.424C36.4744 341.212 36.0424 340.564 34.8064 340.564C34.1824 340.564 33.5584 340.792 32.9464 341.26ZM34.5304 345.172C34.9984 345.172 35.4184 345.04 35.7664 344.788C36.1144 344.536 36.3424 344.248 36.4744 343.948V343.312C36.1264 343.192 35.6824 343.132 35.1424 343.132C33.7744 343.132 33.0904 343.468 33.0904 344.14C33.0904 344.776 33.6664 345.172 34.5304 345.172ZM39.8845 346H38.8765V339.76H39.8845V340.576C40.2805 339.964 41.0965 339.628 42.0205 339.628C43.7125 339.628 44.5525 340.564 44.5525 342.448V346H43.5445V342.568C43.5445 341.188 42.9565 340.576 41.7205 340.576C40.9525 340.576 40.2205 341.08 39.8845 341.836V346Z" fill="#1A3341" fill-opacity="0.6"/>
<rect width="10" height="10" transform="translate(0 357)" fill="#60CCCC"/>
<rect opacity="0.7" y="357" width="10" height="10" fill="#60CCCC"/>
<path d="M25.404 363.936L26.028 364.632C25.392 365.532 24.12 366.108 22.764 366.108C21.444 366.108 20.388 365.712 19.608 364.932C18.828 364.152 18.432 363.108 18.432 361.8C18.432 360.564 18.828 359.544 19.608 358.716C20.388 357.9 21.408 357.492 22.68 357.492C24.12 357.492 25.296 358.068 25.908 358.884L25.2 359.568C24.516 358.884 23.676 358.536 22.704 358.536C21.732 358.536 20.976 358.836 20.412 359.436C19.848 360.036 19.572 360.828 19.572 361.8C19.572 362.784 19.872 363.576 20.472 364.164C21.072 364.764 21.864 365.064 22.836 365.064C23.88 365.064 24.732 364.692 25.404 363.936ZM28.0017 366H26.9937V357.24H28.0017V360.576C28.4817 359.94 29.1537 359.628 30.0297 359.628C31.7817 359.628 32.6577 360.576 32.6577 362.46V366H31.6497V362.556C31.6497 361.212 31.0737 360.576 29.8377 360.576C29.0097 360.576 28.3377 361.104 28.0017 361.872V366ZM33.7004 362.868C33.7004 361.92 34.0124 361.14 34.6244 360.528C35.2364 359.916 36.0284 359.616 37.0004 359.616C37.9844 359.616 38.7884 359.916 39.4004 360.528C40.0124 361.14 40.3244 361.92 40.3244 362.868C40.3244 363.816 40.0124 364.584 39.4004 365.196C38.7764 365.808 37.9724 366.108 37.0004 366.108C36.0284 366.108 35.2364 365.808 34.6244 365.196C34.0124 364.584 33.7004 363.816 33.7004 362.868ZM34.7684 362.868C34.7684 363.528 34.9724 364.08 35.3924 364.512C35.8124 364.944 36.3404 365.16 37.0004 365.16C37.6604 365.16 38.2124 364.944 38.6324 364.524C39.0524 364.104 39.2564 363.552 39.2564 362.868C39.2564 362.184 39.0404 361.632 38.6204 361.2C38.1884 360.78 37.6484 360.564 37.0004 360.564C36.3524 360.564 35.8244 360.78 35.4044 361.2C34.9844 361.62 34.7684 362.184 34.7684 362.868ZM42.4509 366H41.4429V359.76H42.4509V360.576C42.8469 359.964 43.6629 359.628 44.5869 359.628C46.2789 359.628 47.1189 360.564 47.1189 362.448V366H46.1109V362.568C46.1109 361.188 45.5229 360.576 44.2869 360.576C43.5189 360.576 42.7869 361.08 42.4509 361.836V366ZM53.1533 359.76H54.1733V365.52C54.1733 367.536 53.0693 368.508 51.3773 368.508C50.0213 368.508 48.9413 367.92 48.5933 366.996L49.4933 366.6C49.7693 367.14 50.3933 367.548 51.3173 367.548C52.5173 367.548 53.1533 366.864 53.1533 365.7V365.328C52.6853 365.868 52.2413 366.108 51.2693 366.108C50.3213 366.108 49.5773 365.82 49.0133 365.232C48.4493 364.656 48.1613 363.864 48.1613 362.868C48.1613 361.884 48.4613 361.092 49.0613 360.504C49.6493 359.916 50.3933 359.628 51.2813 359.628C52.1573 359.628 52.8293 359.928 53.1533 360.312V359.76ZM51.4373 365.16C52.2893 365.16 52.9253 364.632 53.1533 363.972V361.464C52.8533 360.936 52.2293 360.576 51.4253 360.576C50.8013 360.576 50.2853 360.78 49.8653 361.188C49.4453 361.596 49.2293 362.16 49.2293 362.892C49.2293 364.296 50.0813 365.16 51.4373 365.16ZM61.2866 368.4H60.2666V365.412C59.8466 365.88 59.2106 366.108 58.3826 366.108C57.4466 366.108 56.6906 365.808 56.1266 365.22C55.5626 364.632 55.2746 363.852 55.2746 362.868C55.2746 361.932 55.5986 361.152 56.2346 360.54C56.8706 359.928 57.6386 359.628 58.5626 359.628C59.3546 359.628 59.9186 359.808 60.2666 360.168V359.76H61.2866V368.4ZM58.5026 365.16C59.3066 365.16 59.9666 364.728 60.2666 364.092V361.344C59.9186 360.828 59.3426 360.576 58.5626 360.576C57.9506 360.576 57.4226 360.792 56.9906 361.236C56.5586 361.68 56.3426 362.232 56.3426 362.892C56.3426 363.576 56.5466 364.128 56.9546 364.536C57.3506 364.956 57.8666 365.16 58.5026 365.16ZM63.8759 366H62.8679V359.76H63.8759V366ZM62.7359 357.732C62.7359 357.396 63.0119 357.144 63.3839 357.144C63.7199 357.144 64.0079 357.396 64.0079 357.732C64.0079 358.08 63.7199 358.356 63.3839 358.356C63.0119 358.356 62.7359 358.08 62.7359 357.732ZM66.4744 366H65.4664V359.76H66.4744V360.576C66.8704 359.964 67.6864 359.628 68.6104 359.628C70.3024 359.628 71.1424 360.564 71.1424 362.448V366H70.1344V362.568C70.1344 361.188 69.5464 360.576 68.3104 360.576C67.5424 360.576 66.8104 361.08 66.4744 361.836V366ZM77.1768 359.76H78.1968V365.52C78.1968 367.536 77.0928 368.508 75.4008 368.508C74.0448 368.508 72.9648 367.92 72.6168 366.996L73.5168 366.6C73.7928 367.14 74.4168 367.548 75.3408 367.548C76.5408 367.548 77.1768 366.864 77.1768 365.7V365.328C76.7088 365.868 76.2648 366.108 75.2928 366.108C74.3448 366.108 73.6008 365.82 73.0368 365.232C72.4728 364.656 72.1848 363.864 72.1848 362.868C72.1848 361.884 72.4848 361.092 73.0848 360.504C73.6728 359.916 74.4168 359.628 75.3048 359.628C76.1808 359.628 76.8528 359.928 77.1768 360.312V359.76ZM75.4608 365.16C76.3128 365.16 76.9488 364.632 77.1768 363.972V361.464C76.8768 360.936 76.2528 360.576 75.4488 360.576C74.8248 360.576 74.3088 360.78 73.8888 361.188C73.4688 361.596 73.2528 362.16 73.2528 362.892C73.2528 364.296 74.1048 365.16 75.4608 365.16Z" fill="#1A3341" fill-opacity="0.6"/>
<rect width="10" height="10" transform="translate(0 377)" fill="url(#paint6_linear_6006_19051)"/>
<path d="M25.404 383.936L26.028 384.632C25.392 385.532 24.12 386.108 22.764 386.108C21.444 386.108 20.388 385.712 19.608 384.932C18.828 384.152 18.432 383.108 18.432 381.8C18.432 380.564 18.828 379.544 19.608 378.716C20.388 377.9 21.408 377.492 22.68 377.492C24.12 377.492 25.296 378.068 25.908 378.884L25.2 379.568C24.516 378.884 23.676 378.536 22.704 378.536C21.732 378.536 20.976 378.836 20.412 379.436C19.848 380.036 19.572 380.828 19.572 381.8C19.572 382.784 19.872 383.576 20.472 384.164C21.072 384.764 21.864 385.064 22.836 385.064C23.88 385.064 24.732 384.692 25.404 383.936ZM28.0017 386H26.9937V377.24H28.0017V380.576C28.4817 379.94 29.1537 379.628 30.0297 379.628C31.7817 379.628 32.6577 380.576 32.6577 382.46V386H31.6497V382.556C31.6497 381.212 31.0737 380.576 29.8377 380.576C29.0097 380.576 28.3377 381.104 28.0017 381.872V386ZM38.8724 384.212L39.5204 384.812C38.9444 385.676 38.1164 386.108 37.0244 386.108C36.0284 386.108 35.2244 385.808 34.6124 385.22C34.0004 384.632 33.7004 383.852 33.7004 382.868C33.7004 381.92 33.9764 381.14 34.5404 380.528C35.0924 379.916 35.8724 379.616 36.8804 379.616C37.7084 379.616 38.4044 379.88 38.9444 380.396C39.4844 380.912 39.7604 381.596 39.7604 382.448C39.7604 382.724 39.7364 382.976 39.7004 383.204H34.7804C34.8404 384.44 35.7524 385.16 37.0604 385.16C37.7924 385.16 38.4884 384.776 38.8724 384.212ZM36.8084 380.54C35.6684 380.54 34.9244 381.236 34.7684 382.292H38.6924C38.6324 381.188 37.9244 380.54 36.8084 380.54ZM41.8884 386H40.8804V379.76H41.8884V380.576C42.2844 379.964 43.1004 379.628 44.0244 379.628C45.7164 379.628 46.5564 380.564 46.5564 382.448V386H45.5484V382.568C45.5484 381.188 44.9604 380.576 43.7244 380.576C42.9564 380.576 42.2244 381.08 41.8884 381.836V386ZM52.5908 379.76H53.6108V385.52C53.6108 387.536 52.5068 388.508 50.8148 388.508C49.4588 388.508 48.3788 387.92 48.0308 386.996L48.9308 386.6C49.2068 387.14 49.8308 387.548 50.7548 387.548C51.9548 387.548 52.5908 386.864 52.5908 385.7V385.328C52.1228 385.868 51.6788 386.108 50.7068 386.108C49.7588 386.108 49.0148 385.82 48.4508 385.232C47.8868 384.656 47.5988 383.864 47.5988 382.868C47.5988 381.884 47.8988 381.092 48.4988 380.504C49.0868 379.916 49.8308 379.628 50.7188 379.628C51.5948 379.628 52.2668 379.928 52.5908 380.312V379.76ZM50.8748 385.16C51.7268 385.16 52.3628 384.632 52.5908 383.972V381.464C52.2908 380.936 51.6668 380.576 50.8628 380.576C50.2388 380.576 49.7228 380.78 49.3028 381.188C48.8828 381.596 48.6668 382.16 48.6668 382.892C48.6668 384.296 49.5188 385.16 50.8748 385.16ZM60.7361 386H59.7281V385.256C59.4521 385.688 58.7321 386.108 57.7841 386.108C56.8601 386.108 56.1281 385.82 55.5641 385.244C55.0001 384.668 54.7121 383.888 54.7121 382.892C54.7121 381.932 55.0121 381.14 55.6241 380.528C56.2361 379.916 56.9801 379.616 57.8681 379.616C58.6961 379.616 59.3201 379.82 59.7281 380.228V377.24H60.7361V386ZM57.9281 385.148C58.7801 385.148 59.4401 384.548 59.7281 383.96V381.44C59.3321 380.852 58.7441 380.564 57.9881 380.564C57.3761 380.564 56.8481 380.78 56.4281 381.2C55.9961 381.62 55.7801 382.184 55.7801 382.868C55.7801 384.26 56.6681 385.148 57.9281 385.148ZM66.7088 379.724H67.7168V386H66.7088V385.112C66.2288 385.772 65.5568 386.108 64.6808 386.108C62.9528 386.108 62.1128 385.244 62.1128 383.336V379.724H63.1208V383.192C63.1208 384.5 63.6728 385.16 64.7648 385.16C65.6288 385.16 66.3248 384.668 66.7088 383.804V379.724Z" fill="#1A3341" fill-opacity="0.6"/>
<rect width="10" height="10" transform="translate(119 337)" fill="#5A96A8"/>
<rect opacity="0.5" x="119" y="337" width="10" height="10" fill="url(#paint7_linear_6006_19051)"/>
<path d="M142.64 338.62H137.372V337.6H144.212V338.332L138.704 344.98H144.332V346H137.156V345.268L142.64 338.62ZM146.31 346H145.302V337.24H146.31V340.576C146.79 339.94 147.462 339.628 148.338 339.628C150.09 339.628 150.966 340.576 150.966 342.46V346H149.958V342.556C149.958 341.212 149.382 340.576 148.146 340.576C147.318 340.576 146.646 341.104 146.31 341.872V346ZM157.181 344.212L157.829 344.812C157.253 345.676 156.425 346.108 155.333 346.108C154.337 346.108 153.533 345.808 152.921 345.22C152.309 344.632 152.009 343.852 152.009 342.868C152.009 341.92 152.285 341.14 152.849 340.528C153.401 339.916 154.181 339.616 155.189 339.616C156.017 339.616 156.713 339.88 157.253 340.396C157.793 340.912 158.069 341.596 158.069 342.448C158.069 342.724 158.045 342.976 158.009 343.204H153.089C153.149 344.44 154.061 345.16 155.369 345.16C156.101 345.16 156.797 344.776 157.181 344.212ZM155.117 340.54C153.977 340.54 153.233 341.236 153.077 342.292H157.001C156.941 341.188 156.233 340.54 155.117 340.54ZM160.197 346H159.189V339.76H160.197V340.576C160.593 339.964 161.409 339.628 162.333 339.628C164.025 339.628 164.865 340.564 164.865 342.448V346H163.857V342.568C163.857 341.188 163.269 340.576 162.033 340.576C161.265 340.576 160.533 341.08 160.197 341.836V346ZM170.899 339.76H171.919V345.52C171.919 347.536 170.815 348.508 169.123 348.508C167.767 348.508 166.687 347.92 166.339 346.996L167.239 346.6C167.515 347.14 168.139 347.548 169.063 347.548C170.263 347.548 170.899 346.864 170.899 345.7V345.328C170.431 345.868 169.987 346.108 169.015 346.108C168.067 346.108 167.323 345.82 166.759 345.232C166.195 344.656 165.907 343.864 165.907 342.868C165.907 341.884 166.207 341.092 166.807 340.504C167.395 339.916 168.139 339.628 169.027 339.628C169.903 339.628 170.575 339.928 170.899 340.312V339.76ZM169.183 345.16C170.035 345.16 170.671 344.632 170.899 343.972V341.464C170.599 340.936 169.975 340.576 169.171 340.576C168.547 340.576 168.031 340.78 167.611 341.188C167.191 341.596 166.975 342.16 166.975 342.892C166.975 344.296 167.827 345.16 169.183 345.16ZM176.825 340.708H173.069V339.76H178.349V340.42L174.401 345.052H178.277V346H172.877V345.328L176.825 340.708ZM180.33 346H179.322V337.24H180.33V340.576C180.81 339.94 181.482 339.628 182.358 339.628C184.11 339.628 184.986 340.576 184.986 342.46V346H183.978V342.556C183.978 341.212 183.402 340.576 182.166 340.576C181.338 340.576 180.666 341.104 180.33 341.872V346ZM186.029 342.868C186.029 341.92 186.341 341.14 186.953 340.528C187.565 339.916 188.357 339.616 189.329 339.616C190.313 339.616 191.117 339.916 191.729 340.528C192.341 341.14 192.653 341.92 192.653 342.868C192.653 343.816 192.341 344.584 191.729 345.196C191.105 345.808 190.301 346.108 189.329 346.108C188.357 346.108 187.565 345.808 186.953 345.196C186.341 344.584 186.029 343.816 186.029 342.868ZM187.097 342.868C187.097 343.528 187.301 344.08 187.721 344.512C188.141 344.944 188.669 345.16 189.329 345.16C189.989 345.16 190.541 344.944 190.961 344.524C191.381 344.104 191.585 343.552 191.585 342.868C191.585 342.184 191.369 341.632 190.949 341.2C190.517 340.78 189.977 340.564 189.329 340.564C188.681 340.564 188.153 340.78 187.733 341.2C187.313 341.62 187.097 342.184 187.097 342.868ZM198.283 339.724H199.291V346H198.283V345.112C197.803 345.772 197.131 346.108 196.255 346.108C194.527 346.108 193.687 345.244 193.687 343.336V339.724H194.695V343.192C194.695 344.5 195.247 345.16 196.339 345.16C197.203 345.16 197.899 344.668 198.283 343.804V339.724Z" fill="#1A3341" fill-opacity="0.6"/>
<g opacity="0.8">
<rect width="10" height="10" transform="translate(119 357)" fill="#5A96A8"/>
</g>
<path d="M147.464 357.6H148.544L146.048 366H145.112L142.832 359.472L140.588 366H139.652L137.036 357.6H138.176L140.18 364.08L142.376 357.6H143.3L145.556 364.068L147.464 357.6ZM150.438 366H149.43V359.76H150.438V366ZM149.298 357.732C149.298 357.396 149.574 357.144 149.946 357.144C150.282 357.144 150.57 357.396 150.57 357.732C150.57 358.08 150.282 358.356 149.946 358.356C149.574 358.356 149.298 358.08 149.298 357.732ZM153.133 366H152.125V357.24H153.133V366ZM155.793 366H154.785V357.24H155.793V366ZM157.001 362.868C157.001 361.92 157.313 361.14 157.925 360.528C158.537 359.916 159.329 359.616 160.301 359.616C161.285 359.616 162.089 359.916 162.701 360.528C163.313 361.14 163.625 361.92 163.625 362.868C163.625 363.816 163.313 364.584 162.701 365.196C162.077 365.808 161.273 366.108 160.301 366.108C159.329 366.108 158.537 365.808 157.925 365.196C157.313 364.584 157.001 363.816 157.001 362.868ZM158.069 362.868C158.069 363.528 158.273 364.08 158.693 364.512C159.113 364.944 159.641 365.16 160.301 365.16C160.961 365.16 161.513 364.944 161.933 364.524C162.353 364.104 162.557 363.552 162.557 362.868C162.557 362.184 162.341 361.632 161.921 361.2C161.489 360.78 160.949 360.564 160.301 360.564C159.653 360.564 159.125 360.78 158.705 361.2C158.285 361.62 158.069 362.184 158.069 362.868ZM172.149 359.76H173.181L171.153 366H170.337L168.585 361.32L166.809 366H166.017L163.905 359.76H164.985L166.485 364.32L168.189 359.76H168.981L170.721 364.356L172.149 359.76Z" fill="#1A3341" fill-opacity="0.6"/>
<rect width="10" height="10" transform="translate(119 377)" fill="url(#paint8_linear_6006_19051)"/>
<rect opacity="0.7" x="119" y="377" width="10" height="10" fill="#F7F7F8"/>
<path d="M147.464 377.6H148.544L146.048 386H145.112L142.832 379.472L140.588 386H139.652L137.036 377.6H138.176L140.18 384.08L142.376 377.6H143.3L145.556 384.068L147.464 377.6ZM153.318 379.724H154.326V386H153.318V385.112C152.838 385.772 152.166 386.108 151.29 386.108C149.562 386.108 148.722 385.244 148.722 383.336V379.724H149.73V383.192C149.73 384.5 150.282 385.16 151.374 385.16C152.238 385.16 152.934 384.668 153.318 383.804V379.724ZM156.787 386H155.779V377.24H156.787V380.576C157.267 379.94 157.939 379.628 158.815 379.628C160.567 379.628 161.443 380.576 161.443 382.46V386H160.435V382.556C160.435 381.212 159.859 380.576 158.623 380.576C157.795 380.576 157.123 381.104 156.787 381.872V386ZM163.314 381.26L162.798 380.504C163.374 379.964 164.37 379.616 165.294 379.616C166.962 379.616 167.85 380.528 167.85 382.148V386H166.842V385.076C166.446 385.652 165.666 386.084 164.658 386.084C163.302 386.084 162.39 385.328 162.39 384.176C162.39 382.868 163.506 382.244 165.378 382.244C165.966 382.244 166.446 382.304 166.842 382.424C166.842 381.212 166.41 380.564 165.174 380.564C164.55 380.564 163.926 380.792 163.314 381.26ZM164.898 385.172C165.366 385.172 165.786 385.04 166.134 384.788C166.482 384.536 166.71 384.248 166.842 383.948V383.312C166.494 383.192 166.05 383.132 165.51 383.132C164.142 383.132 163.458 383.468 163.458 384.14C163.458 384.776 164.034 385.172 164.898 385.172ZM170.252 386H169.244V379.76H170.252V380.576C170.648 379.964 171.464 379.628 172.388 379.628C174.08 379.628 174.92 380.564 174.92 382.448V386H173.912V382.568C173.912 381.188 173.324 380.576 172.088 380.576C171.32 380.576 170.588 381.08 170.252 381.836V386Z" fill="#1A3341" fill-opacity="0.6"/>
<rect y="317" width="352" height="1" fill="#ABBEC9"/>
</g>
<defs>
<linearGradient id="paint0_linear_6006_19051" x1="252.261" y1="336.261" x2="257" y2="341.435" gradientUnits="userSpaceOnUse">
<stop stop-color="#5358CC"/>
<stop offset="1" stop-color="#3B38CE"/>
</linearGradient>
<linearGradient id="paint1_linear_6006_19051" x1="303" y1="141" x2="161.666" y2="291.927" gradientUnits="userSpaceOnUse">
<stop stop-color="#43C3BB"/>
<stop offset="1" stop-color="#78CCD1"/>
</linearGradient>
<linearGradient id="paint2_linear_6006_19051" x1="175" y1="269" x2="175" y2="13" gradientUnits="userSpaceOnUse">
<stop stop-color="#CDE3E9"/>
<stop offset="1" stop-color="#D3E8ED"/>
</linearGradient>
<linearGradient id="paint3_linear_6006_19051" x1="175" y1="19.2136" x2="72.6" y2="64.2001" gradientUnits="userSpaceOnUse">
<stop stop-color="#B7C6EF"/>
<stop offset="0.558752" stop-color="#BECCEE"/>
</linearGradient>
<linearGradient id="paint4_linear_6006_19051" x1="175" y1="13" x2="289.643" y2="220.583" gradientUnits="userSpaceOnUse">
<stop stop-color="#66CFF0"/>
<stop offset="1" stop-color="#A6E0F2"/>
</linearGradient>
<linearGradient id="paint5_linear_6006_19051" x1="5" y1="337" x2="5" y2="347" gradientUnits="userSpaceOnUse">
<stop stop-color="#45B8DB"/>
<stop offset="1" stop-color="#ADE4E4"/>
</linearGradient>
<linearGradient id="paint6_linear_6006_19051" x1="5" y1="0" x2="5" y2="10" gradientUnits="userSpaceOnUse">
<stop stop-color="#CDE3E9"/>
<stop offset="1" stop-color="#D3E8ED"/>
</linearGradient>
<linearGradient id="paint7_linear_6006_19051" x1="119" y1="337.5" x2="128.5" y2="347" gradientUnits="userSpaceOnUse">
<stop stop-color="#66CFF0"/>
<stop offset="1" stop-color="#A6E0F2"/>
</linearGradient>
<linearGradient id="paint8_linear_6006_19051" x1="9.75728" y1="5" x2="8" y2="1" gradientUnits="userSpaceOnUse">
<stop stop-color="#B7C6EF"/>
<stop offset="0.558752" stop-color="#BECCEE"/>
</linearGradient>
<clipPath id="clip0_6006_19051">
<rect width="352" height="391" fill="white"/>
</clipPath>
</defs>
</svg>
