<svg width="335" height="373" viewBox="0 0 335 373" fill="none" xmlns="http://www.w3.org/2000/svg">
<rect y="339" width="10" height="10" fill="#8AD9F2"/>
<path d="M22.56 346.296C22.56 345.456 21.132 345.324 19.992 345C19.212 344.772 18.588 344.256 18.588 343.404C18.588 342.3 19.632 341.616 21.18 341.616C22.224 341.616 23.064 342.06 23.508 342.696L22.8 343.356C22.404 342.828 21.804 342.564 21 342.564C20.28 342.564 19.656 342.84 19.656 343.356C19.656 344.088 21.084 344.22 22.224 344.568C22.992 344.808 23.616 345.384 23.616 346.284C23.616 347.496 22.644 348.108 21.12 348.108C19.836 348.108 18.744 347.532 18.3 346.632L19.104 346.068C19.476 346.728 20.328 347.16 21.288 347.16C22.14 347.16 22.56 346.872 22.56 346.296ZM29.5208 346.212L30.1688 346.812C29.5928 347.676 28.7648 348.108 27.6728 348.108C26.6768 348.108 25.8728 347.808 25.2608 347.22C24.6488 346.632 24.3488 345.852 24.3488 344.868C24.3488 343.92 24.6248 343.14 25.1888 342.528C25.7408 341.916 26.5208 341.616 27.5288 341.616C28.3568 341.616 29.0528 341.88 29.5928 342.396C30.1328 342.912 30.4088 343.596 30.4088 344.448C30.4088 344.724 30.3848 344.976 30.3488 345.204H25.4288C25.4888 346.44 26.4008 347.16 27.7088 347.16C28.4408 347.16 29.1368 346.776 29.5208 346.212ZM27.4568 342.54C26.3168 342.54 25.5728 343.236 25.4168 344.292H29.3408C29.2808 343.188 28.5728 342.54 27.4568 342.54ZM32.0089 343.26L31.4929 342.504C32.0689 341.964 33.0649 341.616 33.9889 341.616C35.6569 341.616 36.5449 342.528 36.5449 344.148V348H35.5369V347.076C35.1409 347.652 34.3609 348.084 33.3529 348.084C31.9969 348.084 31.0849 347.328 31.0849 346.176C31.0849 344.868 32.2009 344.244 34.0729 344.244C34.6609 344.244 35.1409 344.304 35.5369 344.424C35.5369 343.212 35.1049 342.564 33.8689 342.564C33.2449 342.564 32.6209 342.792 32.0089 343.26ZM33.5929 347.172C34.0609 347.172 34.4809 347.04 34.8289 346.788C35.1769 346.536 35.4049 346.248 35.5369 345.948V345.312C35.1889 345.192 34.7449 345.132 34.2049 345.132C32.8369 345.132 32.1529 345.468 32.1529 346.14C32.1529 346.776 32.7289 347.172 33.5929 347.172Z" fill="#1A3341" fill-opacity="0.6"/>
<rect y="359" width="10" height="10" fill="url(#paint0_linear_6007_29488)"/>
<path d="M19.74 368H18.732V361.76H19.74V362.24C19.944 361.82 20.484 361.628 21.024 361.628C21.576 361.628 21.996 361.82 22.296 362.192L21.66 362.888C21.504 362.684 21.264 362.576 20.916 362.576C20.376 362.576 19.884 363.02 19.74 363.656V368ZM23.3136 363.26L22.7976 362.504C23.3736 361.964 24.3696 361.616 25.2936 361.616C26.9616 361.616 27.8496 362.528 27.8496 364.148V368H26.8416V367.076C26.4456 367.652 25.6656 368.084 24.6576 368.084C23.3016 368.084 22.3896 367.328 22.3896 366.176C22.3896 364.868 23.5056 364.244 25.3776 364.244C25.9656 364.244 26.4456 364.304 26.8416 364.424C26.8416 363.212 26.4096 362.564 25.1736 362.564C24.5496 362.564 23.9256 362.792 23.3136 363.26ZM24.8976 367.172C25.3656 367.172 25.7856 367.04 26.1336 366.788C26.4816 366.536 26.7096 366.248 26.8416 365.948V365.312C26.4936 365.192 26.0496 365.132 25.5096 365.132C24.1416 365.132 23.4576 365.468 23.4576 366.14C23.4576 366.776 24.0336 367.172 24.8976 367.172ZM30.3837 368H29.3757V361.76H30.3837V368ZM29.2437 359.732C29.2437 359.396 29.5197 359.144 29.8917 359.144C30.2277 359.144 30.5157 359.396 30.5157 359.732C30.5157 360.08 30.2277 360.356 29.8917 360.356C29.5197 360.356 29.2437 360.08 29.2437 359.732ZM33.0782 368H32.0702V359.24H33.0782V368ZM42.0743 361.76H43.1063L41.0783 368H40.2623L38.5103 363.32L36.7343 368H35.9423L33.8303 361.76H34.9103L36.4103 366.32L38.1143 361.76H38.9063L40.6463 366.356L42.0743 361.76ZM44.2433 363.26L43.7273 362.504C44.3033 361.964 45.2993 361.616 46.2233 361.616C47.8913 361.616 48.7793 362.528 48.7793 364.148V368H47.7713V367.076C47.3753 367.652 46.5953 368.084 45.5873 368.084C44.2313 368.084 43.3193 367.328 43.3193 366.176C43.3193 364.868 44.4353 364.244 46.3073 364.244C46.8953 364.244 47.3753 364.304 47.7713 364.424C47.7713 363.212 47.3393 362.564 46.1033 362.564C45.4793 362.564 44.8553 362.792 44.2433 363.26ZM45.8273 367.172C46.2953 367.172 46.7153 367.04 47.0633 366.788C47.4113 366.536 47.6393 366.248 47.7713 365.948V365.312C47.4233 365.192 46.9793 365.132 46.4393 365.132C45.0713 365.132 44.3873 365.468 44.3873 366.14C44.3873 366.776 44.9633 367.172 45.8273 367.172ZM50.3174 370.376L50.7134 369.5C50.8094 369.536 50.8934 369.56 50.9774 369.56C51.4454 369.56 51.7694 369.236 52.1894 368.24L52.3814 367.772L49.3574 361.76H50.5454L52.8854 366.5L54.6494 361.76H55.7534L53.3774 367.904C52.9694 368.912 52.5854 369.596 52.2374 369.968C51.8774 370.34 51.4694 370.52 51.0134 370.52C50.7494 370.52 50.5214 370.472 50.3174 370.376ZM60.6649 362.72H59.3689V361.76H60.6649V360.164H61.6729V361.76H63.8209V362.72H61.6729V365.468C61.6729 366.68 61.9849 367.124 62.7529 367.124C63.1249 367.124 63.5089 366.98 63.8809 366.68L64.3369 367.424C63.9409 367.868 63.3529 368.084 62.5729 368.084C61.3369 368.084 60.6649 367.268 60.6649 365.732V362.72ZM66.0759 368H65.0679V361.76H66.0759V362.24C66.2799 361.82 66.8199 361.628 67.3599 361.628C67.9119 361.628 68.3319 361.82 68.6319 362.192L67.9959 362.888C67.8399 362.684 67.5999 362.576 67.2519 362.576C66.7119 362.576 66.2199 363.02 66.0759 363.656V368ZM69.6495 363.26L69.1335 362.504C69.7095 361.964 70.7055 361.616 71.6295 361.616C73.2975 361.616 74.1855 362.528 74.1855 364.148V368H73.1775V367.076C72.7815 367.652 72.0015 368.084 70.9935 368.084C69.6375 368.084 68.7255 367.328 68.7255 366.176C68.7255 364.868 69.8415 364.244 71.7135 364.244C72.3015 364.244 72.7815 364.304 73.1775 364.424C73.1775 363.212 72.7455 362.564 71.5095 362.564C70.8855 362.564 70.2615 362.792 69.6495 363.26ZM71.2335 367.172C71.7015 367.172 72.1215 367.04 72.4695 366.788C72.8175 366.536 73.0455 366.248 73.1775 365.948V365.312C72.8295 365.192 72.3855 365.132 71.8455 365.132C70.4775 365.132 69.7935 365.468 69.7935 366.14C69.7935 366.776 70.3695 367.172 71.2335 367.172ZM76.5877 368H75.5797V361.76H76.5877V362.576C76.9837 361.964 77.7997 361.628 78.7237 361.628C80.4157 361.628 81.2557 362.564 81.2557 364.448V368H80.2477V364.568C80.2477 363.188 79.6597 362.576 78.4237 362.576C77.6557 362.576 76.9237 363.08 76.5877 363.836V368ZM86.4741 366.296C86.4741 365.456 85.0461 365.324 83.9061 365C83.1261 364.772 82.5021 364.256 82.5021 363.404C82.5021 362.3 83.5461 361.616 85.0941 361.616C86.1381 361.616 86.9781 362.06 87.4221 362.696L86.7141 363.356C86.3181 362.828 85.7181 362.564 84.9141 362.564C84.1941 362.564 83.5701 362.84 83.5701 363.356C83.5701 364.088 84.9981 364.22 86.1381 364.568C86.9061 364.808 87.5301 365.384 87.5301 366.284C87.5301 367.496 86.5581 368.108 85.0341 368.108C83.7501 368.108 82.6581 367.532 82.2141 366.632L83.0181 366.068C83.3901 366.728 84.2421 367.16 85.2021 367.16C86.0541 367.16 86.4741 366.872 86.4741 366.296ZM89.6189 370.4H88.6109V361.76H89.6189V362.54C90.0389 361.928 90.7109 361.616 91.6349 361.616C92.5469 361.616 93.2789 361.904 93.8189 362.492C94.3589 363.08 94.6229 363.836 94.6229 364.772C94.6229 365.732 94.3349 366.524 93.7589 367.16C93.1709 367.796 92.4269 368.108 91.5149 368.108C90.6749 368.108 90.0389 367.892 89.6189 367.472V370.4ZM91.5269 362.564C90.6149 362.564 89.9069 363.152 89.6189 363.86V366.188C89.9789 366.836 90.5789 367.16 91.4309 367.16C92.0429 367.16 92.5589 366.944 92.9549 366.512C93.3509 366.08 93.5549 365.528 93.5549 364.844C93.5549 363.452 92.7749 362.564 91.5269 362.564ZM95.3879 364.868C95.3879 363.92 95.6999 363.14 96.3119 362.528C96.9239 361.916 97.7159 361.616 98.6879 361.616C99.6719 361.616 100.476 361.916 101.088 362.528C101.7 363.14 102.012 363.92 102.012 364.868C102.012 365.816 101.7 366.584 101.088 367.196C100.464 367.808 99.6599 368.108 98.6879 368.108C97.7159 368.108 96.9239 367.808 96.3119 367.196C95.6999 366.584 95.3879 365.816 95.3879 364.868ZM96.4559 364.868C96.4559 365.528 96.6599 366.08 97.0799 366.512C97.4999 366.944 98.0279 367.16 98.6879 367.16C99.3479 367.16 99.8999 366.944 100.32 366.524C100.74 366.104 100.944 365.552 100.944 364.868C100.944 364.184 100.728 363.632 100.308 363.2C99.8759 362.78 99.3359 362.564 98.6879 362.564C98.0399 362.564 97.5119 362.78 97.0919 363.2C96.6719 363.62 96.4559 364.184 96.4559 364.868ZM104.138 368H103.13V361.76H104.138V362.24C104.342 361.82 104.882 361.628 105.422 361.628C105.974 361.628 106.394 361.82 106.694 362.192L106.058 362.888C105.902 362.684 105.662 362.576 105.314 362.576C104.774 362.576 104.282 363.02 104.138 363.656V368ZM108.243 362.72H106.947V361.76H108.243V360.164H109.251V361.76H111.399V362.72H109.251V365.468C109.251 366.68 109.563 367.124 110.331 367.124C110.703 367.124 111.087 366.98 111.459 366.68L111.915 367.424C111.519 367.868 110.931 368.084 110.151 368.084C108.915 368.084 108.243 367.268 108.243 365.732V362.72ZM113.126 363.26L112.61 362.504C113.186 361.964 114.182 361.616 115.106 361.616C116.774 361.616 117.662 362.528 117.662 364.148V368H116.654V367.076C116.258 367.652 115.478 368.084 114.47 368.084C113.114 368.084 112.202 367.328 112.202 366.176C112.202 364.868 113.318 364.244 115.19 364.244C115.778 364.244 116.258 364.304 116.654 364.424C116.654 363.212 116.222 362.564 114.986 362.564C114.362 362.564 113.738 362.792 113.126 363.26ZM114.71 367.172C115.178 367.172 115.598 367.04 115.946 366.788C116.294 366.536 116.522 366.248 116.654 365.948V365.312C116.306 365.192 115.862 365.132 115.322 365.132C113.954 365.132 113.27 365.468 113.27 366.14C113.27 366.776 113.846 367.172 114.71 367.172ZM119.692 362.72H118.396V361.76H119.692V360.164H120.7V361.76H122.848V362.72H120.7V365.468C120.7 366.68 121.012 367.124 121.78 367.124C122.152 367.124 122.536 366.98 122.908 366.68L123.364 367.424C122.968 367.868 122.38 368.084 121.6 368.084C120.364 368.084 119.692 367.268 119.692 365.732V362.72ZM125.235 368H124.227V361.76H125.235V368ZM124.095 359.732C124.095 359.396 124.371 359.144 124.743 359.144C125.079 359.144 125.367 359.396 125.367 359.732C125.367 360.08 125.079 360.356 124.743 360.356C124.371 360.356 124.095 360.08 124.095 359.732ZM126.478 364.868C126.478 363.92 126.79 363.14 127.402 362.528C128.014 361.916 128.806 361.616 129.778 361.616C130.762 361.616 131.566 361.916 132.178 362.528C132.79 363.14 133.102 363.92 133.102 364.868C133.102 365.816 132.79 366.584 132.178 367.196C131.554 367.808 130.75 368.108 129.778 368.108C128.806 368.108 128.014 367.808 127.402 367.196C126.79 366.584 126.478 365.816 126.478 364.868ZM127.546 364.868C127.546 365.528 127.75 366.08 128.17 366.512C128.59 366.944 129.118 367.16 129.778 367.16C130.438 367.16 130.99 366.944 131.41 366.524C131.83 366.104 132.034 365.552 132.034 364.868C132.034 364.184 131.818 363.632 131.398 363.2C130.966 362.78 130.426 362.564 129.778 362.564C129.13 362.564 128.602 362.78 128.182 363.2C127.762 363.62 127.546 364.184 127.546 364.868ZM135.228 368H134.22V361.76H135.228V362.576C135.624 361.964 136.44 361.628 137.364 361.628C139.056 361.628 139.896 362.564 139.896 364.448V368H138.888V364.568C138.888 363.188 138.3 362.576 137.064 362.576C136.296 362.576 135.564 363.08 135.228 363.836V368Z" fill="#1A3341" fill-opacity="0.6"/>
<path d="M109.148 29.3186C126.809 20.5632 146.254 16.0052 165.967 16L165.971 31.36C148.624 31.3645 131.512 35.3756 115.97 43.0804L109.148 29.3186Z" fill="#184977"/>
<path d="M166 16C196.857 16 226.675 27.1469 249.966 47.3885C273.256 67.6302 288.45 95.6039 292.751 126.16C297.051 156.716 290.169 187.797 273.371 213.681C256.573 239.565 230.99 258.509 201.332 267.027C171.674 275.545 139.937 273.062 111.965 260.035C83.9919 247.009 61.6665 224.316 49.0984 196.135C36.5303 167.953 34.5656 136.18 43.566 106.665C52.5665 77.1495 71.9262 51.8791 98.0809 35.5058L106.231 48.5251C83.215 62.9336 66.1785 85.1715 58.2581 111.145C50.3377 137.118 52.0666 165.079 63.1266 189.878C74.1865 214.678 93.8329 234.648 118.449 246.111C143.065 257.574 170.993 259.759 197.092 252.264C223.192 244.768 245.705 228.097 260.487 205.319C275.269 182.541 281.325 155.19 277.541 128.301C273.756 101.411 260.385 76.7945 239.89 58.9819C219.394 41.1693 193.154 31.36 166 31.36V16Z" fill="url(#paint1_linear_6007_29488)"/>
<path d="M107.508 30.1461C109.893 28.9209 112.316 27.771 114.773 26.698L120.92 40.7743C118.758 41.7185 116.626 42.7304 114.527 43.8086L107.508 30.1461Z" fill="url(#paint2_linear_6007_29488)"/>
<path d="M95.0019 37.4952C99.0181 34.8179 103.183 32.37 107.475 30.1631L114.498 43.8235C110.721 45.7656 107.056 47.9198 103.522 50.2758L95.0019 37.4952Z" fill="#DBE9EE"/>
<path d="M252.476 257.572C252.476 259.048 252.116 260.164 251.396 260.944C250.664 261.724 249.728 262.108 248.576 262.108C247.436 262.108 246.524 261.748 245.84 261.016L246.644 259.996C247.184 260.464 247.844 260.704 248.6 260.704C249.308 260.704 249.884 260.476 250.34 260.02C250.796 259.576 251.024 258.976 251.024 258.22C250.604 258.856 249.608 259.288 248.552 259.288C247.58 259.288 246.8 259.036 246.224 258.52C245.648 258.004 245.36 257.332 245.36 256.504C245.36 255.628 245.684 254.908 246.344 254.344C247.004 253.78 247.784 253.492 248.708 253.492C249.848 253.492 250.772 253.852 251.456 254.56C252.14 255.268 252.476 256.276 252.476 257.572ZM250.856 256.816C250.844 256.324 250.652 255.88 250.268 255.484C249.872 255.088 249.356 254.884 248.72 254.884C248.216 254.884 247.784 255.028 247.412 255.316C247.04 255.604 246.848 255.976 246.848 256.432C246.848 257.392 247.616 257.98 248.72 257.98C249.176 257.98 249.632 257.86 250.076 257.608C250.52 257.356 250.772 257.092 250.856 256.816ZM252.886 257.8C252.886 256.528 253.21 255.496 253.846 254.704C254.482 253.912 255.37 253.516 256.51 253.516C257.662 253.516 258.562 253.912 259.198 254.704C259.834 255.496 260.158 256.528 260.158 257.8C260.158 259.084 259.846 260.116 259.21 260.896C258.574 261.688 257.686 262.084 256.534 262.084C255.382 262.084 254.482 261.688 253.846 260.896C253.21 260.116 252.886 259.084 252.886 257.8ZM254.926 255.652C254.554 256.156 254.374 256.876 254.374 257.8C254.374 258.724 254.566 259.444 254.95 259.948C255.322 260.452 255.85 260.704 256.534 260.704C257.962 260.704 258.67 259.732 258.67 257.8C258.67 255.916 257.95 254.896 256.51 254.896C255.826 254.896 255.298 255.148 254.926 255.652ZM260.658 261.124C260.658 260.68 261.066 260.248 261.63 260.248C262.158 260.248 262.59 260.692 262.59 261.124C262.59 261.604 262.17 262.024 261.63 262.024C261.054 262.024 260.658 261.604 260.658 261.124ZM269.022 262H267.618V260.404H262.866V259.468L267.822 253.6H269.022V259.12H270.45V260.404H269.022V262ZM267.618 255.892L264.786 259.12H267.618V255.892Z" fill="#1A3341"/>
<path d="M96.3824 15.144L95.8904 13.944L98.7104 12.576H99.6224V21H98.2304V14.292L96.3824 15.144ZM100.696 20.124C100.696 19.68 101.104 19.248 101.668 19.248C102.196 19.248 102.628 19.692 102.628 20.124C102.628 20.604 102.208 21.024 101.668 21.024C101.092 21.024 100.696 20.604 100.696 20.124ZM104.38 15L103.144 14.448C103.576 13.236 104.848 12.492 106.42 12.492C107.308 12.492 108.04 12.684 108.604 13.068C109.168 13.464 109.456 13.968 109.456 14.604C109.456 15.552 108.904 16.284 108.1 16.524C108.952 16.728 109.636 17.34 109.636 18.492C109.636 19.272 109.336 19.908 108.736 20.376C108.124 20.856 107.38 21.096 106.48 21.096C105.52 21.096 104.608 20.868 103.816 20.208C103.42 19.884 103.132 19.476 102.976 19.008L104.296 18.456C104.464 18.828 104.752 19.128 105.148 19.356C105.544 19.584 105.94 19.704 106.36 19.704C107.38 19.704 108.136 19.26 108.136 18.504C108.136 17.652 107.392 17.364 106.096 17.364H105.28V16.044H106.144C107.236 16.044 107.968 15.564 107.968 14.904C107.968 14.58 107.812 14.316 107.5 14.136C107.188 13.956 106.792 13.86 106.3 13.86C105.808 13.86 105.424 13.956 105.124 14.148C104.824 14.34 104.584 14.628 104.38 15Z" fill="#1A3341"/>
<path d="M119.766 9.028C119.766 7.576 120.138 6.448 120.894 5.668C121.65 4.888 122.61 4.492 123.786 4.492C124.926 4.492 125.838 4.852 126.522 5.584L125.718 6.604C125.178 6.136 124.518 5.896 123.762 5.896C123.042 5.896 122.43 6.124 121.938 6.592C121.446 7.06 121.194 7.708 121.206 8.548C121.734 7.78 122.73 7.264 123.75 7.264C125.754 7.264 126.954 8.368 126.954 10.096C126.954 10.984 126.642 11.704 126.018 12.268C125.382 12.832 124.578 13.108 123.594 13.108C122.43 13.108 121.494 12.748 120.81 12.04C120.114 11.332 119.766 10.324 119.766 9.028ZM121.434 9.94C121.59 10.948 122.31 11.716 123.654 11.716C124.674 11.716 125.466 11.08 125.466 10.168C125.466 9.172 124.806 8.62 123.594 8.62C123.102 8.62 122.646 8.764 122.214 9.052C121.782 9.352 121.518 9.64 121.434 9.94ZM127.374 12.124C127.374 11.68 127.782 11.248 128.346 11.248C128.874 11.248 129.306 11.692 129.306 12.124C129.306 12.604 128.886 13.024 128.346 13.024C127.77 13.024 127.374 12.604 127.374 12.124ZM131.274 9.316L130.062 9.196L130.446 4.6H135.93V5.956H131.718L131.538 7.816C131.934 7.612 132.438 7.516 133.026 7.516C135.042 7.516 136.17 8.596 136.17 10.276C136.17 11.128 135.87 11.8 135.27 12.316C134.658 12.832 133.89 13.096 132.942 13.096C131.646 13.096 130.182 12.592 129.642 11.056L130.986 10.564C131.262 11.284 132.09 11.704 133.014 11.704C134.058 11.704 134.682 11.14 134.682 10.324C134.682 9.376 133.998 8.824 132.858 8.824C132.198 8.824 131.67 8.992 131.274 9.316Z" fill="#1A3341"/>
<path d="M74.0391 27.144L73.5471 25.944L76.3671 24.576H77.2791V33H75.8871V26.292L74.0391 27.144ZM78.3526 32.124C78.3526 31.68 78.7606 31.248 79.3246 31.248C79.8526 31.248 80.2846 31.692 80.2846 32.124C80.2846 32.604 79.8646 33.024 79.3246 33.024C78.7486 33.024 78.3526 32.604 78.3526 32.124ZM84.2443 28.068H84.5923C85.5043 28.068 86.2363 27.612 86.2363 26.928C86.2363 26.208 85.5883 25.824 84.4003 25.824C83.3443 25.824 82.5763 26.232 82.5763 26.916C82.5763 27.588 83.2483 28.068 84.2443 28.068ZM84.5683 29.304H84.2803C83.0923 29.304 82.3123 29.844 82.3123 30.528C82.3123 31.296 83.1043 31.788 84.4123 31.788C85.6963 31.788 86.5003 31.32 86.5003 30.552C86.5003 29.772 85.8043 29.304 84.5683 29.304ZM84.4243 33.096C83.3563 33.096 82.4803 32.88 81.8203 32.436C81.1603 32.004 80.8243 31.416 80.8243 30.66C80.8243 29.736 81.3283 28.968 82.2283 28.644C81.4723 28.32 81.0883 27.732 81.0883 26.856C81.0883 25.416 82.3363 24.504 84.4123 24.504C86.5363 24.504 87.7363 25.416 87.7363 26.856C87.7363 27.624 87.2923 28.32 86.4763 28.62C87.4963 28.872 88.0003 29.544 88.0003 30.612C88.0003 31.38 87.6643 31.98 86.9923 32.424C86.3203 32.868 85.4683 33.096 84.4243 33.096Z" fill="#1A3341"/>
<path d="M139.113 152.152V155H119.625V152.44L128.873 147.096C130.686 146.051 132.03 145.208 132.905 144.568C133.78 143.907 134.366 143.299 134.665 142.744C134.985 142.189 135.145 141.528 135.145 140.76V140.44C135.145 139.203 134.622 138.253 133.577 137.592C132.553 136.931 131.07 136.6 129.129 136.6C127.124 136.6 125.598 136.952 124.553 137.656C123.529 138.36 123.017 139.384 123.017 140.728V141.368H119.817V140.696C119.817 138.413 120.617 136.664 122.217 135.448C123.817 134.232 126.1 133.624 129.065 133.624C131.966 133.624 134.238 134.221 135.881 135.416C137.524 136.611 138.345 138.253 138.345 140.344V140.664C138.345 141.795 138.121 142.787 137.673 143.64C137.225 144.493 136.446 145.357 135.337 146.232C134.249 147.107 132.649 148.152 130.537 149.368L125.673 152.152H139.113ZM153.381 155.384C151.248 155.384 149.36 155 147.717 154.232C146.096 153.464 144.827 152.387 143.909 151C143.013 149.613 142.565 148.024 142.565 146.232V142.808C142.565 140.995 143.013 139.395 143.909 138.008C144.827 136.621 146.096 135.544 147.717 134.776C149.36 134.008 151.248 133.624 153.381 133.624C155.493 133.624 157.36 134.008 158.981 134.776C160.603 135.544 161.861 136.621 162.757 138.008C163.653 139.395 164.101 140.995 164.101 142.808V146.232C164.101 148.045 163.653 149.645 162.757 151.032C161.861 152.397 160.603 153.464 158.981 154.232C157.36 155 155.493 155.384 153.381 155.384ZM153.381 152.408C155.728 152.408 157.573 151.864 158.917 150.776C160.261 149.688 160.933 148.184 160.933 146.264V142.776C160.933 140.877 160.251 139.373 158.885 138.264C157.541 137.155 155.696 136.6 153.349 136.6C150.981 136.6 149.115 137.155 147.749 138.264C146.405 139.352 145.733 140.856 145.733 142.776V146.264C145.733 148.184 146.405 149.688 147.749 150.776C149.115 151.864 150.992 152.408 153.381 152.408ZM187.506 152.152V155H168.018V152.44L177.266 147.096C179.079 146.051 180.423 145.208 181.298 144.568C182.172 143.907 182.759 143.299 183.058 142.744C183.378 142.189 183.538 141.528 183.538 140.76V140.44C183.538 139.203 183.015 138.253 181.97 137.592C180.946 136.931 179.463 136.6 177.522 136.6C175.516 136.6 173.991 136.952 172.946 137.656C171.922 138.36 171.41 139.384 171.41 140.728V141.368H168.21V140.696C168.21 138.413 169.01 136.664 170.61 135.448C172.21 134.232 174.492 133.624 177.458 133.624C180.359 133.624 182.631 134.221 184.274 135.416C185.916 136.611 186.738 138.253 186.738 140.344V140.664C186.738 141.795 186.514 142.787 186.066 143.64C185.618 144.493 184.839 145.357 183.73 146.232C182.642 147.107 181.042 148.152 178.93 149.368L174.066 152.152H187.506ZM202.478 142.328C205.315 142.413 207.48 142.979 208.974 144.024C210.488 145.048 211.246 146.477 211.246 148.312V148.728C211.246 150.883 210.382 152.536 208.654 153.688C206.926 154.819 204.408 155.384 201.102 155.384C197.88 155.363 195.384 154.797 193.614 153.688C191.864 152.579 190.99 151.011 190.99 148.984V148.76H194.158V148.984C194.158 150.051 194.776 150.893 196.014 151.512C197.251 152.109 198.958 152.408 201.134 152.408C203.416 152.408 205.144 152.109 206.318 151.512C207.491 150.893 208.078 149.987 208.078 148.792V148.408C208.078 146.168 205.795 145.048 201.23 145.048H197.774V142.232L205.678 136.856H191.374V134.008H210.734V136.856L202.478 142.328Z" fill="#1A3341"/>
<rect y="319" width="335" height="1" fill="#ABBEC9"/>
<rect x="175" y="358.5" width="10" height="10" fill="#60CCCC"/>
<path d="M194.212 363.26L193.696 362.504C194.272 361.964 195.268 361.616 196.192 361.616C197.86 361.616 198.748 362.528 198.748 364.148V368H197.74V367.076C197.344 367.652 196.564 368.084 195.556 368.084C194.2 368.084 193.288 367.328 193.288 366.176C193.288 364.868 194.404 364.244 196.276 364.244C196.864 364.244 197.344 364.304 197.74 364.424C197.74 363.212 197.308 362.564 196.072 362.564C195.448 362.564 194.824 362.792 194.212 363.26ZM195.796 367.172C196.264 367.172 196.684 367.04 197.032 366.788C197.38 366.536 197.608 366.248 197.74 365.948V365.312C197.392 365.192 196.948 365.132 196.408 365.132C195.04 365.132 194.356 365.468 194.356 366.14C194.356 366.776 194.932 367.172 195.796 367.172ZM204.63 361.76H205.71L202.914 368H202.17L199.254 361.76H200.418L202.566 366.428L204.63 361.76ZM207.423 368H206.415V361.76H207.423V368ZM206.283 359.732C206.283 359.396 206.559 359.144 206.931 359.144C207.267 359.144 207.555 359.396 207.555 359.732C207.555 360.08 207.267 360.356 206.931 360.356C206.559 360.356 206.283 360.08 206.283 359.732ZM209.493 363.26L208.977 362.504C209.553 361.964 210.549 361.616 211.473 361.616C213.141 361.616 214.029 362.528 214.029 364.148V368H213.021V367.076C212.625 367.652 211.845 368.084 210.837 368.084C209.481 368.084 208.569 367.328 208.569 366.176C208.569 364.868 209.685 364.244 211.557 364.244C212.145 364.244 212.625 364.304 213.021 364.424C213.021 363.212 212.589 362.564 211.353 362.564C210.729 362.564 210.105 362.792 209.493 363.26ZM211.077 367.172C211.545 367.172 211.965 367.04 212.313 366.788C212.661 366.536 212.889 366.248 213.021 365.948V365.312C212.673 365.192 212.229 365.132 211.689 365.132C210.321 365.132 209.637 365.468 209.637 366.14C209.637 366.776 210.213 367.172 211.077 367.172ZM216.059 362.72H214.763V361.76H216.059V360.164H217.067V361.76H219.215V362.72H217.067V365.468C217.067 366.68 217.379 367.124 218.147 367.124C218.519 367.124 218.903 366.98 219.275 366.68L219.731 367.424C219.335 367.868 218.747 368.084 217.967 368.084C216.731 368.084 216.059 367.268 216.059 365.732V362.72ZM221.602 368H220.594V361.76H221.602V368ZM220.462 359.732C220.462 359.396 220.738 359.144 221.11 359.144C221.446 359.144 221.734 359.396 221.734 359.732C221.734 360.08 221.446 360.356 221.11 360.356C220.738 360.356 220.462 360.08 220.462 359.732ZM222.845 364.868C222.845 363.92 223.157 363.14 223.769 362.528C224.381 361.916 225.173 361.616 226.145 361.616C227.129 361.616 227.933 361.916 228.545 362.528C229.157 363.14 229.469 363.92 229.469 364.868C229.469 365.816 229.157 366.584 228.545 367.196C227.921 367.808 227.117 368.108 226.145 368.108C225.173 368.108 224.381 367.808 223.769 367.196C223.157 366.584 222.845 365.816 222.845 364.868ZM223.913 364.868C223.913 365.528 224.117 366.08 224.537 366.512C224.957 366.944 225.485 367.16 226.145 367.16C226.805 367.16 227.357 366.944 227.777 366.524C228.197 366.104 228.401 365.552 228.401 364.868C228.401 364.184 228.185 363.632 227.765 363.2C227.333 362.78 226.793 362.564 226.145 362.564C225.497 362.564 224.969 362.78 224.549 363.2C224.129 363.62 223.913 364.184 223.913 364.868ZM231.595 368H230.587V361.76H231.595V362.576C231.991 361.964 232.807 361.628 233.731 361.628C235.423 361.628 236.263 362.564 236.263 364.448V368H235.255V364.568C235.255 363.188 234.667 362.576 233.431 362.576C232.663 362.576 231.931 363.08 231.595 363.836V368Z" fill="#1A3341" fill-opacity="0.6"/>
<rect x="175" y="338.5" width="10" height="10" fill="#184977"/>
<path d="M194.212 343.26L193.696 342.504C194.272 341.964 195.268 341.616 196.192 341.616C197.86 341.616 198.748 342.528 198.748 344.148V348H197.74V347.076C197.344 347.652 196.564 348.084 195.556 348.084C194.2 348.084 193.288 347.328 193.288 346.176C193.288 344.868 194.404 344.244 196.276 344.244C196.864 344.244 197.344 344.304 197.74 344.424C197.74 343.212 197.308 342.564 196.072 342.564C195.448 342.564 194.824 342.792 194.212 343.26ZM195.796 347.172C196.264 347.172 196.684 347.04 197.032 346.788C197.38 346.536 197.608 346.248 197.74 345.948V345.312C197.392 345.192 196.948 345.132 196.408 345.132C195.04 345.132 194.356 345.468 194.356 346.14C194.356 346.776 194.932 347.172 195.796 347.172ZM204.654 341.724H205.662V348H204.654V347.112C204.174 347.772 203.502 348.108 202.626 348.108C200.898 348.108 200.058 347.244 200.058 345.336V341.724H201.066V345.192C201.066 346.5 201.618 347.16 202.71 347.16C203.574 347.16 204.27 346.668 204.654 345.804V341.724ZM207.751 342.72H206.455V341.76H207.751V340.164H208.759V341.76H210.907V342.72H208.759V345.468C208.759 346.68 209.071 347.124 209.839 347.124C210.211 347.124 210.595 346.98 210.967 346.68L211.423 347.424C211.027 347.868 210.439 348.084 209.659 348.084C208.423 348.084 207.751 347.268 207.751 345.732V342.72ZM211.63 344.868C211.63 343.92 211.942 343.14 212.554 342.528C213.166 341.916 213.958 341.616 214.93 341.616C215.914 341.616 216.718 341.916 217.33 342.528C217.942 343.14 218.254 343.92 218.254 344.868C218.254 345.816 217.942 346.584 217.33 347.196C216.706 347.808 215.902 348.108 214.93 348.108C213.958 348.108 213.166 347.808 212.554 347.196C211.942 346.584 211.63 345.816 211.63 344.868ZM212.698 344.868C212.698 345.528 212.902 346.08 213.322 346.512C213.742 346.944 214.27 347.16 214.93 347.16C215.59 347.16 216.142 346.944 216.562 346.524C216.982 346.104 217.186 345.552 217.186 344.868C217.186 344.184 216.97 343.632 216.55 343.2C216.118 342.78 215.578 342.564 214.93 342.564C214.282 342.564 213.754 342.78 213.334 343.2C212.914 343.62 212.698 344.184 212.698 344.868Z" fill="#1A3341" fill-opacity="0.6"/>
<defs>
<linearGradient id="paint0_linear_6007_29488" x1="5" y1="359" x2="5" y2="369" gradientUnits="userSpaceOnUse">
<stop stop-color="#CDE3E9"/>
<stop offset="1" stop-color="#D3E8ED"/>
</linearGradient>
<linearGradient id="paint1_linear_6007_29488" x1="166" y1="16" x2="280.643" y2="223.583" gradientUnits="userSpaceOnUse">
<stop stop-color="#66CFF0"/>
<stop offset="1" stop-color="#A6E0F2"/>
</linearGradient>
<linearGradient id="paint2_linear_6007_29488" x1="38" y1="144" x2="179.334" y2="-6.92706" gradientUnits="userSpaceOnUse">
<stop stop-color="#43C3BB"/>
<stop offset="1" stop-color="#78CCD1"/>
</linearGradient>
</defs>
</svg>
