<svg width="147" height="165" viewBox="0 0 147 165" fill="none" xmlns="http://www.w3.org/2000/svg">
<path d="M92.3471 3.434L91.3251 3.07C91.6751 1.334 92.9911 0.0879999 95.0771 0.0879999C97.0931 0.0879999 98.3251 1.25 98.3251 3.028C98.3251 3.966 97.9191 4.904 97.4151 5.576C97.1631 5.926 96.8411 6.262 96.4631 6.612C95.6931 7.298 95.1471 7.662 94.3491 8.166L93.2711 8.838H98.6891V10H91.0591V9.048L93.1871 7.634C93.5651 7.396 93.8311 7.214 93.9851 7.102C94.1391 7.004 94.3911 6.822 94.7271 6.584C95.0631 6.346 95.3151 6.136 95.4831 5.982C95.6371 5.828 95.8471 5.632 96.0851 5.38C96.7291 4.68 96.9671 4.036 97.0371 3.154C97.0371 1.88 96.2111 1.306 94.9931 1.306C94.2371 1.306 93.6351 1.516 93.2011 1.936C92.7671 2.356 92.4731 2.86 92.3471 3.434ZM99.6593 5.1C99.6593 3.588 100.009 2.37 100.723 1.46C101.423 0.55 102.459 0.0879999 103.817 0.0879999C106.603 0.0879999 107.989 1.922 107.989 5.1C107.989 6.626 107.639 7.83 106.953 8.74C106.253 9.65 105.217 10.112 103.845 10.112C102.529 10.112 101.507 9.65 100.765 8.726C100.023 7.802 99.6593 6.598 99.6593 5.1ZM100.947 5.1C100.947 7.494 102.039 8.922 103.845 8.922C105.749 8.922 106.701 7.648 106.701 5.1C106.701 2.552 105.735 1.278 103.817 1.278C101.871 1.278 100.947 2.678 100.947 5.1ZM114.649 1.39H108.713V0.199999H116.147V0.998L111.275 10H109.945L114.649 1.39ZM126.564 1.39H120.628V0.199999H128.062V0.998L123.19 10H121.86L126.564 1.39ZM128.808 5.366C128.808 3.672 129.228 2.37 130.054 1.446C130.88 0.535999 131.916 0.0739993 133.162 0.0739993C134.8 0.0739993 136.088 0.816 136.634 1.992L135.682 2.636C135.108 1.726 134.254 1.278 133.106 1.278C132.238 1.278 131.51 1.614 130.922 2.286C130.334 2.972 130.04 3.896 130.054 5.086C130.6 4.064 131.874 3.448 133.274 3.448C134.408 3.448 135.318 3.742 135.976 4.344C136.634 4.946 136.97 5.744 136.97 6.724C136.97 7.718 136.606 8.544 135.864 9.174C135.122 9.804 134.198 10.126 133.092 10.126C130.446 10.126 128.808 8.404 128.808 5.366ZM130.208 6.556C130.474 7.942 131.524 8.922 133.078 8.922C133.834 8.922 134.464 8.726 134.954 8.32C135.444 7.928 135.682 7.41 135.682 6.78C135.682 5.394 134.702 4.652 133.204 4.652C132.378 4.652 131.692 4.848 131.16 5.24C130.614 5.632 130.306 6.066 130.208 6.556ZM143.593 1.39H137.657V0.199999H145.091V0.998L140.219 10H138.889L143.593 1.39Z" fill="#1A3341"/>
<path d="M104.527 158.372L103.651 158.06C103.951 156.572 105.079 155.504 106.867 155.504C108.595 155.504 109.651 156.5 109.651 158.024C109.651 158.828 109.303 159.632 108.871 160.208C108.655 160.508 108.379 160.796 108.055 161.096C107.395 161.684 106.927 161.996 106.243 162.428L105.319 163.004H109.963V164H103.423V163.184L105.247 161.972C105.571 161.768 105.799 161.612 105.931 161.516C106.063 161.432 106.279 161.276 106.567 161.072C106.855 160.868 107.071 160.688 107.215 160.556C107.347 160.424 107.527 160.256 107.731 160.04C108.283 159.44 108.487 158.888 108.547 158.132C108.547 157.04 107.839 156.548 106.795 156.548C106.147 156.548 105.631 156.728 105.259 157.088C104.887 157.448 104.635 157.88 104.527 158.372ZM110.795 159.8C110.795 158.504 111.095 157.46 111.707 156.68C112.307 155.9 113.195 155.504 114.359 155.504C116.747 155.504 117.935 157.076 117.935 159.8C117.935 161.108 117.635 162.14 117.047 162.92C116.447 163.7 115.559 164.096 114.383 164.096C113.255 164.096 112.379 163.7 111.743 162.908C111.107 162.116 110.795 161.084 110.795 159.8ZM111.899 159.8C111.899 161.852 112.835 163.076 114.383 163.076C116.015 163.076 116.831 161.984 116.831 159.8C116.831 157.616 116.003 156.524 114.359 156.524C112.691 156.524 111.899 157.724 111.899 159.8ZM119.791 158.372L118.915 158.06C119.215 156.572 120.343 155.504 122.131 155.504C123.859 155.504 124.915 156.5 124.915 158.024C124.915 158.828 124.567 159.632 124.135 160.208C123.919 160.508 123.643 160.796 123.319 161.096C122.659 161.684 122.191 161.996 121.507 162.428L120.583 163.004H125.227V164H118.687V163.184L120.511 161.972C120.835 161.768 121.063 161.612 121.195 161.516C121.327 161.432 121.543 161.276 121.831 161.072C122.119 160.868 122.335 160.688 122.479 160.556C122.611 160.424 122.791 160.256 122.995 160.04C123.547 159.44 123.751 158.888 123.811 158.132C123.811 157.04 123.103 156.548 122.059 156.548C121.411 156.548 120.895 156.728 120.523 157.088C120.151 157.448 119.899 157.88 119.791 158.372ZM126.887 158.048L125.987 157.64C126.431 156.344 127.595 155.492 129.335 155.492C130.163 155.492 130.847 155.684 131.375 156.068C131.903 156.452 132.167 156.968 132.167 157.604C132.167 158.576 131.651 159.296 130.691 159.572C131.615 159.632 132.359 160.328 132.359 161.576C132.359 162.368 132.071 162.992 131.495 163.436C130.919 163.88 130.187 164.108 129.287 164.108C127.451 164.108 126.179 163.232 125.759 161.852L126.731 161.432C127.247 162.524 128.123 163.076 129.359 163.076C130.523 163.076 131.255 162.536 131.255 161.588C131.255 160.664 130.535 160.196 129.095 160.196H128.159V159.2H128.903C130.211 159.2 131.063 158.612 131.063 157.808C131.063 156.98 130.379 156.512 129.287 156.512C128.003 156.512 127.223 157.172 126.887 158.048Z" fill="#76848D"/>
<path d="M89 22C89 20.8954 89.8954 20 91 20H145C146.105 20 147 20.8954 147 22V149H89V22Z" fill="url(#paint0_linear_6001_39851)"/>
<path opacity="0.2" d="M101 20H135V149H101V20Z" fill="url(#paint1_linear_6001_39851)"/>
<path opacity="0.04" d="M135 20H145C146.105 20 147 20.8954 147 22V149H135V20Z" fill="#0D262C"/>
<path opacity="0.5" d="M89 22C89 20.8954 89.8954 20 91 20H101V149H89V22Z" fill="url(#paint2_linear_6001_39851)"/>
<path d="M7.55484 121.804L7.10684 120.754L10.4668 119.144H11.2648V129H10.0608V120.642L7.55484 121.804ZM14.4783 124.492L13.4703 124.226L14.0443 119.2H20.2043V120.39H15.1223L14.7583 123.022C15.2483 122.658 15.9903 122.476 16.9843 122.476C18.1323 122.476 19.0283 122.784 19.6863 123.386C20.3303 124.002 20.6523 124.786 20.6523 125.752C20.6523 126.718 20.2883 127.53 19.5743 128.16C18.8463 128.804 17.9363 129.126 16.8583 129.126C15.0243 129.126 13.4983 128.258 12.8683 126.732L13.9883 126.256C14.3943 127.194 15.4443 127.936 16.8583 127.936C18.4683 127.936 19.3643 127.012 19.3643 125.794C19.3643 124.492 18.3143 123.652 16.6483 123.652C15.7523 123.652 15.0243 123.932 14.4783 124.492ZM26.7382 122.056L25.6882 121.58C26.2062 120.068 27.5642 119.074 29.5942 119.074C30.5602 119.074 31.3582 119.298 31.9742 119.746C32.5902 120.194 32.8982 120.796 32.8982 121.538C32.8982 122.672 32.2962 123.512 31.1762 123.834C32.2542 123.904 33.1222 124.716 33.1222 126.172C33.1222 127.096 32.7862 127.824 32.1142 128.342C31.4422 128.86 30.5882 129.126 29.5382 129.126C27.3962 129.126 25.9122 128.104 25.4222 126.494L26.5562 126.004C27.1582 127.278 28.1802 127.922 29.6222 127.922C30.9802 127.922 31.8342 127.292 31.8342 126.186C31.8342 125.108 30.9942 124.562 29.3142 124.562H28.2222V123.4H29.0902C30.6162 123.4 31.6102 122.714 31.6102 121.776C31.6102 120.81 30.8122 120.264 29.5382 120.264C28.0402 120.264 27.1302 121.034 26.7382 122.056ZM39.8869 120.39H33.9509V119.2H41.3849V119.998L36.5129 129H35.1829L39.8869 120.39ZM48.8929 129H47.6749V126.998H41.6829V126.186L47.8149 119.2H48.8929V125.864H50.7129V126.998H48.8929V129ZM47.6749 121.16L43.3629 125.864H47.6749V121.16Z" fill="#1A3341"/>
<path d="M15.5564 158.372L14.6804 158.06C14.9804 156.572 16.1084 155.504 17.8964 155.504C19.6244 155.504 20.6804 156.5 20.6804 158.024C20.6804 158.828 20.3324 159.632 19.9004 160.208C19.6844 160.508 19.4084 160.796 19.0844 161.096C18.4244 161.684 17.9564 161.996 17.2724 162.428L16.3484 163.004H20.9924V164H14.4524V163.184L16.2764 161.972C16.6004 161.768 16.8284 161.612 16.9604 161.516C17.0924 161.432 17.3084 161.276 17.5964 161.072C17.8844 160.868 18.1004 160.688 18.2444 160.556C18.3764 160.424 18.5564 160.256 18.7604 160.04C19.3124 159.44 19.5164 158.888 19.5764 158.132C19.5764 157.04 18.8684 156.548 17.8244 156.548C17.1764 156.548 16.6604 156.728 16.2884 157.088C15.9164 157.448 15.6644 157.88 15.5564 158.372ZM21.824 159.8C21.824 158.504 22.124 157.46 22.736 156.68C23.336 155.9 24.224 155.504 25.388 155.504C27.776 155.504 28.964 157.076 28.964 159.8C28.964 161.108 28.664 162.14 28.076 162.92C27.476 163.7 26.588 164.096 25.412 164.096C24.284 164.096 23.408 163.7 22.772 162.908C22.136 162.116 21.824 161.084 21.824 159.8ZM22.928 159.8C22.928 161.852 23.864 163.076 25.412 163.076C27.044 163.076 27.86 161.984 27.86 159.8C27.86 157.616 27.032 156.524 25.388 156.524C23.72 156.524 22.928 157.724 22.928 159.8ZM30.8203 158.372L29.9443 158.06C30.2443 156.572 31.3723 155.504 33.1603 155.504C34.8883 155.504 35.9443 156.5 35.9443 158.024C35.9443 158.828 35.5963 159.632 35.1643 160.208C34.9483 160.508 34.6723 160.796 34.3483 161.096C33.6883 161.684 33.2203 161.996 32.5363 162.428L31.6123 163.004H36.2563V164H29.7163V163.184L31.5403 161.972C31.8643 161.768 32.0923 161.612 32.2243 161.516C32.3563 161.432 32.5723 161.276 32.8603 161.072C33.1483 160.868 33.3643 160.688 33.5083 160.556C33.6403 160.424 33.8203 160.256 34.0243 160.04C34.5763 159.44 34.7803 158.888 34.8403 158.132C34.8403 157.04 34.1323 156.548 33.0883 156.548C32.4403 156.548 31.9243 156.728 31.5523 157.088C31.1803 157.448 30.9283 157.88 30.8203 158.372ZM38.048 158.372L37.172 158.06C37.472 156.572 38.6 155.504 40.388 155.504C42.116 155.504 43.172 156.5 43.172 158.024C43.172 158.828 42.824 159.632 42.392 160.208C42.176 160.508 41.9 160.796 41.576 161.096C40.916 161.684 40.448 161.996 39.764 162.428L38.84 163.004H43.484V164H36.944V163.184L38.768 161.972C39.092 161.768 39.32 161.612 39.452 161.516C39.584 161.432 39.8 161.276 40.088 161.072C40.376 160.868 40.592 160.688 40.736 160.556C40.868 160.424 41.048 160.256 41.252 160.04C41.804 159.44 42.008 158.888 42.068 158.132C42.068 157.04 41.36 156.548 40.316 156.548C39.668 156.548 39.152 156.728 38.78 157.088C38.408 157.448 38.156 157.88 38.048 158.372Z" fill="#76848D"/>
<path d="M0 141C0 139.895 0.895431 139 2 139H56C57.1046 139 58 139.895 58 141V149H0V141Z" fill="url(#paint3_linear_6001_39851)"/>
<path opacity="0.2" d="M12 139H46V149H12V139Z" fill="url(#paint4_linear_6001_39851)"/>
<path opacity="0.04" d="M46 139H56C57.1046 139 58 139.895 58 141V149H46V139Z" fill="#0D262C"/>
<path opacity="0.5" d="M0 141C0 139.895 0.895431 139 2 139H12V149H0V141Z" fill="url(#paint5_linear_6001_39851)"/>
<defs>
<linearGradient id="paint0_linear_6001_39851" x1="118" y1="20" x2="118" y2="149" gradientUnits="userSpaceOnUse">
<stop stop-color="#6D73F9"/>
<stop offset="1" stop-color="#9BB8F1"/>
</linearGradient>
<linearGradient id="paint1_linear_6001_39851" x1="118" y1="20" x2="118" y2="149" gradientUnits="userSpaceOnUse">
<stop stop-color="white" stop-opacity="0"/>
<stop offset="0.739583" stop-color="white"/>
</linearGradient>
<linearGradient id="paint2_linear_6001_39851" x1="95" y1="-231.55" x2="95" y2="149" gradientUnits="userSpaceOnUse">
<stop stop-color="white" stop-opacity="0.05"/>
<stop offset="0.75" stop-color="white" stop-opacity="0.8"/>
</linearGradient>
<linearGradient id="paint3_linear_6001_39851" x1="29" y1="139" x2="29" y2="149" gradientUnits="userSpaceOnUse">
<stop stop-color="#6D73F9"/>
<stop offset="1" stop-color="#9BB8F1"/>
</linearGradient>
<linearGradient id="paint4_linear_6001_39851" x1="29" y1="139" x2="29" y2="149" gradientUnits="userSpaceOnUse">
<stop stop-color="white" stop-opacity="0"/>
<stop offset="0.739583" stop-color="white"/>
</linearGradient>
<linearGradient id="paint5_linear_6001_39851" x1="6" y1="119.5" x2="6" y2="149" gradientUnits="userSpaceOnUse">
<stop stop-color="white" stop-opacity="0.05"/>
<stop offset="0.75" stop-color="white" stop-opacity="0.8"/>
</linearGradient>
</defs>
</svg>
