<svg width="335" height="722" viewBox="0 0 335 722" fill="none" xmlns="http://www.w3.org/2000/svg">
<rect y="2.58203" width="10" height="10" fill="url(#paint0_linear_7006_39290)"/>
<path d="M19.98 8.29403V11.582H18.888V3.18203H22.104C24.276 3.18203 25.356 4.02203 25.356 5.70203C25.356 6.89003 24.54 7.82603 23.304 8.07803L25.992 11.582H24.66L22.164 8.29403H19.98ZM22.068 4.20203H19.98V7.27403H22.14C23.424 7.27403 24.24 6.66203 24.24 5.70203C24.24 4.70603 23.52 4.20203 22.068 4.20203ZM31.2568 5.30603H32.2648V11.582H31.2568V10.694C30.7768 11.354 30.1048 11.69 29.2288 11.69C27.5008 11.69 26.6608 10.826 26.6608 8.91803V5.30603H27.6688V8.77403C27.6688 10.082 28.2208 10.742 29.3128 10.742C30.1768 10.742 30.8728 10.25 31.2568 9.38603V5.30603ZM37.4255 9.87803C37.4255 9.03803 35.9975 8.90603 34.8575 8.58203C34.0775 8.35403 33.4535 7.83803 33.4535 6.98603C33.4535 5.88203 34.4975 5.19803 36.0455 5.19803C37.0895 5.19803 37.9295 5.64203 38.3735 6.27803L37.6655 6.93803C37.2695 6.41003 36.6695 6.14603 35.8655 6.14603C35.1455 6.14603 34.5215 6.42203 34.5215 6.93803C34.5215 7.67003 35.9495 7.80203 37.0895 8.15003C37.8575 8.39003 38.4815 8.96603 38.4815 9.86603C38.4815 11.078 37.5095 11.69 35.9855 11.69C34.7015 11.69 33.6095 11.114 33.1655 10.214L33.9695 9.65003C34.3415 10.31 35.1935 10.742 36.1535 10.742C37.0055 10.742 37.4255 10.454 37.4255 9.87803ZM43.2703 9.87803C43.2703 9.03803 41.8423 8.90603 40.7023 8.58203C39.9223 8.35403 39.2983 7.83803 39.2983 6.98603C39.2983 5.88203 40.3423 5.19803 41.8903 5.19803C42.9343 5.19803 43.7743 5.64203 44.2183 6.27803L43.5103 6.93803C43.1143 6.41003 42.5143 6.14603 41.7103 6.14603C40.9903 6.14603 40.3663 6.42203 40.3663 6.93803C40.3663 7.67003 41.7943 7.80203 42.9343 8.15003C43.7023 8.39003 44.3263 8.96603 44.3263 9.86603C44.3263 11.078 43.3543 11.69 41.8303 11.69C40.5463 11.69 39.4543 11.114 39.0103 10.214L39.8143 9.65003C40.1863 10.31 41.0383 10.742 41.9983 10.742C42.8503 10.742 43.2703 10.454 43.2703 9.87803ZM46.4272 11.582H45.4192V5.34203H46.4272V11.582ZM45.2872 3.31403C45.2872 2.97803 45.5632 2.72603 45.9352 2.72603C46.2712 2.72603 46.5592 2.97803 46.5592 3.31403C46.5592 3.66203 46.2712 3.93803 45.9352 3.93803C45.5632 3.93803 45.2872 3.66203 45.2872 3.31403ZM48.3776 6.84203L47.8616 6.08603C48.4376 5.54603 49.4336 5.19803 50.3576 5.19803C52.0256 5.19803 52.9136 6.11003 52.9136 7.73003V11.582H51.9056V10.658C51.5096 11.234 50.7296 11.666 49.7216 11.666C48.3656 11.666 47.4536 10.91 47.4536 9.75803C47.4536 8.45003 48.5696 7.82603 50.4416 7.82603C51.0296 7.82603 51.5096 7.88603 51.9056 8.00603C51.9056 6.79403 51.4736 6.14603 50.2376 6.14603C49.6136 6.14603 48.9896 6.37403 48.3776 6.84203ZM49.9616 10.754C50.4296 10.754 50.8496 10.622 51.1976 10.37C51.5456 10.118 51.7736 9.83003 51.9056 9.53003V8.89403C51.5576 8.77403 51.1136 8.71403 50.5736 8.71403C49.2056 8.71403 48.5216 9.05003 48.5216 9.72203C48.5216 10.358 49.0976 10.754 49.9616 10.754Z" fill="#76848D"/>
<rect y="26.582" width="10" height="10" fill="#737AF9"/>
<path d="M22.224 35.582H18.888V27.182H22.284C24.432 27.182 25.248 27.962 25.248 29.27C25.248 30.206 24.852 30.842 24.06 31.19C24.984 31.382 25.548 32.09 25.548 33.182C25.548 34.826 24.324 35.582 22.224 35.582ZM22.332 31.79H19.98V34.562H22.212C23.736 34.562 24.42 34.118 24.42 33.122C24.42 32.234 23.724 31.79 22.332 31.79ZM22.188 28.202H19.98V30.794H22.368C23.436 30.794 24.132 30.314 24.132 29.498C24.132 28.598 23.616 28.202 22.188 28.202ZM31.5102 33.794L32.1582 34.394C31.5822 35.258 30.7542 35.69 29.6622 35.69C28.6662 35.69 27.8622 35.39 27.2502 34.802C26.6382 34.214 26.3382 33.434 26.3382 32.45C26.3382 31.502 26.6142 30.722 27.1782 30.11C27.7302 29.498 28.5102 29.198 29.5182 29.198C30.3462 29.198 31.0422 29.462 31.5822 29.978C32.1222 30.494 32.3982 31.178 32.3982 32.03C32.3982 32.306 32.3742 32.558 32.3382 32.786H27.4182C27.4782 34.022 28.3902 34.742 29.6982 34.742C30.4302 34.742 31.1262 34.358 31.5102 33.794ZM29.4462 30.122C28.3062 30.122 27.5622 30.818 27.4062 31.874H31.3302C31.2702 30.77 30.5622 30.122 29.4462 30.122ZM34.5023 35.582H33.4943V26.822H34.5023V35.582ZM36.4184 30.842L35.9024 30.086C36.4784 29.546 37.4744 29.198 38.3984 29.198C40.0664 29.198 40.9544 30.11 40.9544 31.73V35.582H39.9464V34.658C39.5504 35.234 38.7704 35.666 37.7624 35.666C36.4064 35.666 35.4944 34.91 35.4944 33.758C35.4944 32.45 36.6104 31.826 38.4824 31.826C39.0704 31.826 39.5504 31.886 39.9464 32.006C39.9464 30.794 39.5144 30.146 38.2784 30.146C37.6544 30.146 37.0304 30.374 36.4184 30.842ZM38.0024 34.754C38.4704 34.754 38.8904 34.622 39.2384 34.37C39.5864 34.118 39.8144 33.83 39.9464 33.53V32.894C39.5984 32.774 39.1544 32.714 38.6144 32.714C37.2464 32.714 36.5624 33.05 36.5624 33.722C36.5624 34.358 37.1384 34.754 38.0024 34.754ZM43.2366 35.582H42.2286V29.342H43.2366V29.822C43.4406 29.402 43.9806 29.21 44.5206 29.21C45.0726 29.21 45.4926 29.402 45.7926 29.774L45.1566 30.47C45.0006 30.266 44.7606 30.158 44.4126 30.158C43.8726 30.158 43.3806 30.602 43.2366 31.238V35.582ZM50.8627 29.306H51.8707V35.582H50.8627V34.694C50.3827 35.354 49.7107 35.69 48.8347 35.69C47.1067 35.69 46.2667 34.826 46.2667 32.918V29.306H47.2747V32.774C47.2747 34.082 47.8267 34.742 48.9187 34.742C49.7827 34.742 50.4787 34.25 50.8627 33.386V29.306ZM57.0314 33.878C57.0314 33.038 55.6034 32.906 54.4634 32.582C53.6834 32.354 53.0594 31.838 53.0594 30.986C53.0594 29.882 54.1034 29.198 55.6514 29.198C56.6954 29.198 57.5354 29.642 57.9794 30.278L57.2714 30.938C56.8754 30.41 56.2754 30.146 55.4714 30.146C54.7514 30.146 54.1274 30.422 54.1274 30.938C54.1274 31.67 55.5554 31.802 56.6954 32.15C57.4634 32.39 58.0874 32.966 58.0874 33.866C58.0874 35.078 57.1154 35.69 55.5914 35.69C54.3074 35.69 53.2154 35.114 52.7714 34.214L53.5754 33.65C53.9474 34.31 54.7994 34.742 55.7594 34.742C56.6114 34.742 57.0314 34.454 57.0314 33.878Z" fill="#76848D"/>
<path d="M20.9275 227.074H14.4315V226.024H20.9275V227.074ZM27.7899 222.972H21.8539V221.782H29.2879V222.58L24.4159 231.582H23.0859L27.7899 222.972ZM29.2843 230.784C29.2843 230.392 29.6483 230 30.1523 230C30.6143 230 30.9923 230.392 30.9923 230.784C30.9923 231.232 30.6423 231.61 30.1523 231.61C29.6483 231.61 29.2843 231.232 29.2843 230.784ZM33.5778 227.074L32.5698 226.808L33.1438 221.782H39.3038V222.972H34.2218L33.8578 225.604C34.3478 225.24 35.0898 225.058 36.0838 225.058C37.2318 225.058 38.1278 225.366 38.7858 225.968C39.4298 226.584 39.7518 227.368 39.7518 228.334C39.7518 229.3 39.3878 230.112 38.6738 230.742C37.9458 231.386 37.0358 231.708 35.9578 231.708C34.1238 231.708 32.5978 230.84 31.9678 229.314L33.0878 228.838C33.4938 229.776 34.5438 230.518 35.9578 230.518C37.5678 230.518 38.4638 229.594 38.4638 228.376C38.4638 227.074 37.4138 226.234 35.7478 226.234C34.8518 226.234 34.1238 226.514 33.5778 227.074Z" fill="#1A3341"/>
<path d="M11 210.915C11 211.836 11.7462 212.582 12.6667 212.582H41.3333C42.2538 212.582 43 211.836 43 210.915V137.582H11V210.915Z" fill="url(#paint1_linear_7006_39290)"/>
<path opacity="0.2" d="M21 212.582H33V137.582H21V212.582Z" fill="url(#paint2_linear_7006_39290)"/>
<path opacity="0.04" d="M33 212.582H41.3333C42.2538 212.582 43 211.836 43 210.915V137.582H33V212.582Z" fill="#0D262C"/>
<path opacity="0.5" d="M11 210.915C11 211.836 11.7462 212.582 12.6667 212.582H21V137.582H11V210.915Z" fill="url(#paint3_linear_7006_39290)"/>
<path d="M96.2371 239.074H89.7411V238.024H96.2371V239.074ZM101.349 237.996H101.783C102.413 237.996 102.931 237.842 103.365 237.548C103.785 237.254 103.995 236.862 103.995 236.4C103.995 235.35 103.169 234.818 101.531 234.818C99.9635 234.818 99.1095 235.392 99.1095 236.4C99.1095 237.31 100.047 237.996 101.349 237.996ZM101.755 239.102H101.405C100.649 239.102 100.019 239.27 99.5295 239.592C99.0395 239.914 98.7875 240.32 98.7875 240.81C98.7875 241.874 99.7675 242.546 101.545 242.546C103.351 242.546 104.317 241.902 104.317 240.824C104.317 239.746 103.281 239.102 101.755 239.102ZM104.513 242.952C103.799 243.456 102.805 243.708 101.559 243.708C100.313 243.708 99.3195 243.456 98.5915 242.966C97.8635 242.476 97.4995 241.804 97.4995 240.936C97.4995 239.802 98.2415 238.906 99.4315 238.514C98.3535 238.164 97.8215 237.31 97.8215 236.316C97.8215 234.692 99.1935 233.656 101.545 233.656C103.911 233.656 105.283 234.692 105.283 236.316C105.283 237.254 104.765 237.968 103.729 238.444C104.975 238.822 105.591 239.634 105.591 240.88C105.591 241.762 105.227 242.462 104.513 242.952ZM106.781 242.784C106.781 242.392 107.145 242 107.649 242C108.111 242 108.489 242.392 108.489 242.784C108.489 243.232 108.139 243.61 107.649 243.61C107.145 243.61 106.781 243.232 106.781 242.784ZM115.261 234.972H109.325V233.782H116.759V234.58L111.887 243.582H110.557L115.261 234.972Z" fill="#1A3341"/>
<path d="M87 222.915C87 223.836 87.7462 224.582 88.6667 224.582H117.333C118.254 224.582 119 223.836 119 222.915V137.582H87V222.915Z" fill="url(#paint4_linear_7006_39290)"/>
<path opacity="0.2" d="M97 224.582H109V137.582H97V224.582Z" fill="url(#paint5_linear_7006_39290)"/>
<path opacity="0.04" d="M109 224.582H117.333C118.254 224.582 119 223.836 119 222.915V137.582H109V224.582Z" fill="#0D262C"/>
<path opacity="0.5" d="M87 222.915C87 223.836 87.7462 224.582 88.6667 224.582H97V137.582H87V222.915Z" fill="url(#paint6_linear_7006_39290)"/>
<path d="M179.533 200.074H173.037V199.024H179.533V200.074ZM187.543 204.582H186.325V202.58H180.333V201.768L186.465 194.782H187.543V201.446H189.363V202.58H187.543V204.582ZM186.325 196.742L182.013 201.446H186.325V196.742ZM190.146 203.784C190.146 203.392 190.51 203 191.014 203C191.476 203 191.854 203.392 191.854 203.784C191.854 204.232 191.504 204.61 191.014 204.61C190.51 204.61 190.146 204.232 190.146 203.784ZM196.875 198.996H197.309C197.939 198.996 198.457 198.842 198.891 198.548C199.311 198.254 199.521 197.862 199.521 197.4C199.521 196.35 198.695 195.818 197.057 195.818C195.489 195.818 194.635 196.392 194.635 197.4C194.635 198.31 195.573 198.996 196.875 198.996ZM197.281 200.102H196.931C196.175 200.102 195.545 200.27 195.055 200.592C194.565 200.914 194.313 201.32 194.313 201.81C194.313 202.874 195.293 203.546 197.071 203.546C198.877 203.546 199.843 202.902 199.843 201.824C199.843 200.746 198.807 200.102 197.281 200.102ZM200.039 203.952C199.325 204.456 198.331 204.708 197.085 204.708C195.839 204.708 194.845 204.456 194.117 203.966C193.389 203.476 193.025 202.804 193.025 201.936C193.025 200.802 193.767 199.906 194.957 199.514C193.879 199.164 193.347 198.31 193.347 197.316C193.347 195.692 194.719 194.656 197.071 194.656C199.437 194.656 200.809 195.692 200.809 197.316C200.809 198.254 200.291 198.968 199.255 199.444C200.501 199.822 201.117 200.634 201.117 201.88C201.117 202.762 200.753 203.462 200.039 203.952Z" fill="#1A3341"/>
<path d="M171 183.915C171 184.836 171.746 185.582 172.667 185.582H201.333C202.254 185.582 203 184.836 203 183.915V137.582H171V183.915Z" fill="url(#paint7_linear_7006_39290)"/>
<path opacity="0.2" d="M181 185.582H193V137.582H181V185.582Z" fill="url(#paint8_linear_7006_39290)"/>
<path opacity="0.04" d="M193 185.582H201.333C202.254 185.582 203 184.836 203 183.915V137.582H193V185.582Z" fill="#0D262C"/>
<path opacity="0.5" d="M171 183.915C171 184.836 171.746 185.582 172.667 185.582H181V137.582H171V183.915Z" fill="url(#paint9_linear_7006_39290)"/>
<path d="M261.099 39.996H261.533C262.163 39.996 262.681 39.842 263.115 39.548C263.535 39.254 263.745 38.862 263.745 38.4C263.745 37.35 262.919 36.818 261.281 36.818C259.713 36.818 258.859 37.392 258.859 38.4C258.859 39.31 259.797 39.996 261.099 39.996ZM261.505 41.102H261.155C260.399 41.102 259.769 41.27 259.279 41.592C258.789 41.914 258.537 42.32 258.537 42.81C258.537 43.874 259.517 44.546 261.295 44.546C263.101 44.546 264.067 43.902 264.067 42.824C264.067 41.746 263.031 41.102 261.505 41.102ZM264.263 44.952C263.549 45.456 262.555 45.708 261.309 45.708C260.063 45.708 259.069 45.456 258.341 44.966C257.613 44.476 257.249 43.804 257.249 42.936C257.249 41.802 257.991 40.906 259.181 40.514C258.103 40.164 257.571 39.31 257.571 38.316C257.571 36.692 258.943 35.656 261.295 35.656C263.661 35.656 265.033 36.692 265.033 38.316C265.033 39.254 264.515 39.968 263.479 40.444C264.725 40.822 265.341 41.634 265.341 42.88C265.341 43.762 264.977 44.462 264.263 44.952ZM266.531 44.784C266.531 44.392 266.895 44 267.399 44C267.861 44 268.239 44.392 268.239 44.784C268.239 45.232 267.889 45.61 267.399 45.61C266.895 45.61 266.531 45.232 266.531 44.784ZM270.517 39.016L269.495 38.652C269.845 36.916 271.161 35.67 273.247 35.67C275.263 35.67 276.495 36.832 276.495 38.61C276.495 39.548 276.089 40.486 275.585 41.158C275.333 41.508 275.011 41.844 274.633 42.194C273.863 42.88 273.317 43.244 272.519 43.748L271.441 44.42H276.859V45.582H269.229V44.63L271.357 43.216C271.735 42.978 272.001 42.796 272.155 42.684C272.309 42.586 272.561 42.404 272.897 42.166C273.233 41.928 273.485 41.718 273.653 41.564C273.807 41.41 274.017 41.214 274.255 40.962C274.899 40.262 275.137 39.618 275.207 38.736C275.207 37.462 274.381 36.888 273.163 36.888C272.407 36.888 271.805 37.098 271.371 37.518C270.937 37.938 270.643 38.442 270.517 39.016Z" fill="#1A3341"/>
<path d="M251 57.2487C251 56.3282 251.746 55.582 252.667 55.582H281.333C282.254 55.582 283 56.3282 283 57.2487V137.582H251V57.2487Z" fill="url(#paint10_linear_7006_39290)"/>
<path opacity="0.2" d="M261 55.5818H273V137.582H261V55.5818Z" fill="url(#paint11_linear_7006_39290)"/>
<path opacity="0.04" d="M273 55.5818H281.333C282.254 55.5818 283 56.328 283 57.2485V137.582H273V55.5818Z" fill="#0D262C"/>
<path opacity="0.5" d="M251 57.2487C251 56.3282 251.746 55.582 252.667 55.582H261V137.582H251V57.2487Z" fill="url(#paint12_linear_7006_39290)"/>
<path d="M59.95 183.492H53.454V182.442H59.95V183.492ZM62.3184 181.434L61.2964 181.07C61.6464 179.334 62.9624 178.088 65.0484 178.088C67.0644 178.088 68.2964 179.25 68.2964 181.028C68.2964 181.966 67.8904 182.904 67.3864 183.576C67.1344 183.926 66.8124 184.262 66.4344 184.612C65.6644 185.298 65.1184 185.662 64.3204 186.166L63.2424 186.838H68.6604V188H61.0304V187.048L63.1584 185.634C63.5364 185.396 63.8024 185.214 63.9564 185.102C64.1104 185.004 64.3624 184.822 64.6984 184.584C65.0344 184.346 65.2864 184.136 65.4544 183.982C65.6084 183.828 65.8184 183.632 66.0564 183.38C66.7004 182.68 66.9384 182.036 67.0084 181.154C67.0084 179.88 66.1824 179.306 64.9644 179.306C64.2084 179.306 63.6064 179.516 63.1724 179.936C62.7384 180.356 62.4444 180.86 62.3184 181.434ZM69.7286 187.202C69.7286 186.81 70.0926 186.418 70.5966 186.418C71.0586 186.418 71.4366 186.81 71.4366 187.202C71.4366 187.65 71.0866 188.028 70.5966 188.028C70.0926 188.028 69.7286 187.65 69.7286 187.202ZM80.7421 182.918C80.7421 184.584 80.3501 185.872 79.5521 186.768C78.7541 187.678 77.6901 188.126 76.3601 188.126C74.7361 188.126 73.4621 187.44 72.8321 186.39L73.8401 185.69C74.4001 186.474 75.4221 186.922 76.5281 186.922C77.4381 186.922 78.1661 186.558 78.7401 185.83C79.3141 185.116 79.5521 184.22 79.4821 183.156C79.0201 184.22 77.8581 185.004 76.3041 185.004C75.2121 185.004 74.3161 184.696 73.6161 184.066C72.9021 183.45 72.5521 182.638 72.5521 181.644C72.5521 180.552 72.9301 179.684 73.6861 179.04C74.4421 178.396 75.4501 178.074 76.6961 178.074C79.2161 178.074 80.7421 179.838 80.7421 182.918ZM79.2721 181.602C79.0621 180.3 78.1661 179.278 76.5561 179.278C74.8761 179.278 73.8401 180.146 73.8401 181.602C73.8401 182.988 74.8901 183.8 76.5281 183.8C77.2701 183.8 77.9001 183.576 78.3901 183.128C78.8801 182.68 79.1741 182.176 79.2721 181.602Z" fill="#1A3341"/>
<path d="M51 167.333C51 168.254 51.7462 169 52.6667 169H81.3333C82.2538 169 83 168.254 83 167.333V138H51V167.333Z" fill="url(#paint13_linear_7006_39290)"/>
<path opacity="0.2" d="M61 169H73V138H61V169Z" fill="url(#paint14_linear_7006_39290)"/>
<path opacity="0.04" d="M73 169H81.3333C82.2538 169 83 168.254 83 167.333V138H73V169Z" fill="#0D262C"/>
<path opacity="0.5" d="M51 167.333C51 168.254 51.7462 169 52.6667 169H61V138H51V167.333Z" fill="url(#paint15_linear_7006_39290)"/>
<path d="M141.44 193.074H134.944V192.024H141.44V193.074ZM149.451 197.582H148.233V195.58H142.241V194.768L148.373 187.782H149.451V194.446H151.271V195.58H149.451V197.582ZM148.233 189.742L143.921 194.446H148.233V189.742ZM152.053 196.784C152.053 196.392 152.417 196 152.921 196C153.383 196 153.761 196.392 153.761 196.784C153.761 197.232 153.411 197.61 152.921 197.61C152.417 197.61 152.053 197.232 152.053 196.784ZM154.806 190.386L154.358 189.336L157.718 187.726H158.516V197.582H157.312V189.224L154.806 190.386Z" fill="#1A3341"/>
<path d="M131 176.915C131 177.836 131.746 178.582 132.667 178.582H161.333C162.254 178.582 163 177.836 163 176.915V137.582H131V176.915Z" fill="url(#paint16_linear_7006_39290)"/>
<path opacity="0.2" d="M141 178.582H153V137.582H141V178.582Z" fill="url(#paint17_linear_7006_39290)"/>
<path opacity="0.04" d="M153 178.582H161.333C162.254 178.582 163 177.836 163 176.915V137.582H153V178.582Z" fill="#0D262C"/>
<path opacity="0.5" d="M131 176.915C131 177.836 131.746 178.582 132.667 178.582H141V137.582H131V176.915Z" fill="url(#paint18_linear_7006_39290)"/>
<path d="M219.929 188.074H213.433V187.024H219.929V188.074ZM222.144 185.638L221.094 185.162C221.612 183.65 222.97 182.656 225 182.656C225.966 182.656 226.764 182.88 227.38 183.328C227.996 183.776 228.304 184.378 228.304 185.12C228.304 186.254 227.702 187.094 226.582 187.416C227.66 187.486 228.528 188.298 228.528 189.754C228.528 190.678 228.192 191.406 227.52 191.924C226.848 192.442 225.994 192.708 224.944 192.708C222.802 192.708 221.318 191.686 220.828 190.076L221.962 189.586C222.564 190.86 223.586 191.504 225.028 191.504C226.386 191.504 227.24 190.874 227.24 189.768C227.24 188.69 226.4 188.144 224.72 188.144H223.628V186.982H224.496C226.022 186.982 227.016 186.296 227.016 185.358C227.016 184.392 226.218 183.846 224.944 183.846C223.446 183.846 222.536 184.616 222.144 185.638ZM229.776 191.784C229.776 191.392 230.14 191 230.644 191C231.106 191 231.484 191.392 231.484 191.784C231.484 192.232 231.134 192.61 230.644 192.61C230.14 192.61 229.776 192.232 229.776 191.784ZM232.642 187.948C232.642 186.254 233.062 184.952 233.888 184.028C234.714 183.118 235.75 182.656 236.996 182.656C238.634 182.656 239.922 183.398 240.468 184.574L239.516 185.218C238.942 184.308 238.088 183.86 236.94 183.86C236.072 183.86 235.344 184.196 234.756 184.868C234.168 185.554 233.874 186.478 233.888 187.668C234.434 186.646 235.708 186.03 237.108 186.03C238.242 186.03 239.152 186.324 239.81 186.926C240.468 187.528 240.804 188.326 240.804 189.306C240.804 190.3 240.44 191.126 239.698 191.756C238.956 192.386 238.032 192.708 236.926 192.708C234.28 192.708 232.642 190.986 232.642 187.948ZM234.042 189.138C234.308 190.524 235.358 191.504 236.912 191.504C237.668 191.504 238.298 191.308 238.788 190.902C239.278 190.51 239.516 189.992 239.516 189.362C239.516 187.976 238.536 187.234 237.038 187.234C236.212 187.234 235.526 187.43 234.994 187.822C234.448 188.214 234.14 188.648 234.042 189.138Z" fill="#1A3341"/>
<path d="M211 171.915C211 172.836 211.746 173.582 212.667 173.582H241.333C242.254 173.582 243 172.836 243 171.915V137.582H211V171.915Z" fill="url(#paint19_linear_7006_39290)"/>
<path opacity="0.2" d="M221 173.582H233V137.582H221V173.582Z" fill="url(#paint20_linear_7006_39290)"/>
<path opacity="0.04" d="M233 173.582H241.333C242.254 173.582 243 172.836 243 171.915V137.582H233V173.582Z" fill="#0D262C"/>
<path opacity="0.5" d="M211 171.915C211 172.836 211.746 173.582 212.667 173.582H221V137.582H211V171.915Z" fill="url(#paint21_linear_7006_39290)"/>
<path d="M294.226 15.386L293.778 14.336L297.138 12.726H297.936V22.582H296.732V14.224L294.226 15.386ZM299.722 17.682C299.722 16.17 300.072 14.952 300.786 14.042C301.486 13.132 302.522 12.67 303.88 12.67C306.666 12.67 308.052 14.504 308.052 17.682C308.052 19.208 307.702 20.412 307.016 21.322C306.316 22.232 305.28 22.694 303.908 22.694C302.592 22.694 301.57 22.232 300.828 21.308C300.086 20.384 299.722 19.18 299.722 17.682ZM301.01 17.682C301.01 20.076 302.102 21.504 303.908 21.504C305.812 21.504 306.764 20.23 306.764 17.682C306.764 15.134 305.798 13.86 303.88 13.86C301.934 13.86 301.01 15.26 301.01 17.682ZM309.195 21.784C309.195 21.392 309.559 21 310.063 21C310.525 21 310.903 21.392 310.903 21.784C310.903 22.232 310.553 22.61 310.063 22.61C309.559 22.61 309.195 22.232 309.195 21.784ZM313.489 18.074L312.481 17.808L313.055 12.782H319.215V13.972H314.133L313.769 16.604C314.259 16.24 315.001 16.058 315.995 16.058C317.143 16.058 318.039 16.366 318.697 16.968C319.341 17.584 319.663 18.368 319.663 19.334C319.663 20.3 319.299 21.112 318.585 21.742C317.857 22.386 316.947 22.708 315.869 22.708C314.035 22.708 312.509 21.84 311.879 20.314L312.999 19.838C313.405 20.776 314.455 21.518 315.869 21.518C317.479 21.518 318.375 20.594 318.375 19.376C318.375 18.074 317.325 17.234 315.659 17.234C314.763 17.234 314.035 17.514 313.489 18.074Z" fill="#1A3341"/>
<path d="M291 34.2487C291 33.3282 291.746 32.582 292.667 32.582H321.333C322.254 32.582 323 33.3282 323 34.2487V137.582H291V34.2487Z" fill="url(#paint22_linear_7006_39290)"/>
<path opacity="0.2" d="M301 32.5818H313V137.582H301V32.5818Z" fill="url(#paint23_linear_7006_39290)"/>
<path opacity="0.04" d="M313 32.5818H321.333C322.254 32.5818 323 33.328 323 34.2485V137.582H313V32.5818Z" fill="#0D262C"/>
<path opacity="0.5" d="M291 34.2487C291 33.3282 291.746 32.582 292.667 32.582H301V137.582H291V34.2487Z" fill="url(#paint24_linear_7006_39290)"/>
<line x1="-4.37114e-08" y1="137.082" x2="335" y2="137.082" stroke="#ABBEC9"/>
<path d="M41.1307 270.382C41.1307 269.086 41.4307 268.042 42.0427 267.262C42.6427 266.482 43.5307 266.086 44.6947 266.086C47.0827 266.086 48.2707 267.658 48.2707 270.382C48.2707 271.69 47.9707 272.722 47.3827 273.502C46.7827 274.282 45.8947 274.678 44.7187 274.678C43.5907 274.678 42.7147 274.282 42.0787 273.49C41.4427 272.698 41.1307 271.666 41.1307 270.382ZM42.2347 270.382C42.2347 272.434 43.1707 273.658 44.7187 273.658C46.3507 273.658 47.1667 272.566 47.1667 270.382C47.1667 268.198 46.3387 267.106 44.6947 267.106C43.0267 267.106 42.2347 268.306 42.2347 270.382ZM49.0709 268.414L48.6869 267.514L51.5669 266.134H52.2509V274.582H51.2189V267.418L49.0709 268.414ZM33.5271 282.954L32.6511 282.642C32.9511 281.154 34.0791 280.086 35.8671 280.086C37.5951 280.086 38.6511 281.082 38.6511 282.606C38.6511 283.41 38.3031 284.214 37.8711 284.79C37.6551 285.09 37.3791 285.378 37.0551 285.678C36.3951 286.266 35.9271 286.578 35.2431 287.01L34.3191 287.586H38.9631V288.582H32.4231V287.766L34.2471 286.554C34.5711 286.35 34.7991 286.194 34.9311 286.098C35.0631 286.014 35.2791 285.858 35.5671 285.654C35.8551 285.45 36.0711 285.27 36.2151 285.138C36.3471 285.006 36.5271 284.838 36.7311 284.622C37.2831 284.022 37.4871 283.47 37.5471 282.714C37.5471 281.622 36.8391 281.13 35.7951 281.13C35.1471 281.13 34.6311 281.31 34.2591 281.67C33.8871 282.03 33.6351 282.462 33.5271 282.954ZM39.7948 284.382C39.7948 283.086 40.0948 282.042 40.7068 281.262C41.3068 280.482 42.1948 280.086 43.3588 280.086C45.7468 280.086 46.9348 281.658 46.9348 284.382C46.9348 285.69 46.6348 286.722 46.0468 287.502C45.4468 288.282 44.5588 288.678 43.3828 288.678C42.2548 288.678 41.3788 288.282 40.7428 287.49C40.1068 286.698 39.7948 285.666 39.7948 284.382ZM40.8988 284.382C40.8988 286.434 41.8348 287.658 43.3828 287.658C45.0148 287.658 45.8308 286.566 45.8308 284.382C45.8308 282.198 45.0028 281.106 43.3588 281.106C41.6908 281.106 40.8988 282.306 40.8988 284.382ZM48.791 282.954L47.915 282.642C48.215 281.154 49.343 280.086 51.131 280.086C52.859 280.086 53.915 281.082 53.915 282.606C53.915 283.41 53.567 284.214 53.135 284.79C52.919 285.09 52.643 285.378 52.319 285.678C51.659 286.266 51.191 286.578 50.507 287.01L49.583 287.586H54.227V288.582H47.687V287.766L49.511 286.554C49.835 286.35 50.063 286.194 50.195 286.098C50.327 286.014 50.543 285.858 50.831 285.654C51.119 285.45 51.335 285.27 51.479 285.138C51.611 285.006 51.791 284.838 51.995 284.622C52.547 284.022 52.751 283.47 52.811 282.714C52.811 281.622 52.103 281.13 51.059 281.13C50.411 281.13 49.895 281.31 49.523 281.67C49.151 282.03 48.899 282.462 48.791 282.954ZM55.8867 282.63L54.9867 282.222C55.4307 280.926 56.5947 280.074 58.3347 280.074C59.1627 280.074 59.8467 280.266 60.3747 280.65C60.9027 281.034 61.1667 281.55 61.1667 282.186C61.1667 283.158 60.6507 283.878 59.6907 284.154C60.6147 284.214 61.3587 284.91 61.3587 286.158C61.3587 286.95 61.0707 287.574 60.4947 288.018C59.9187 288.462 59.1867 288.69 58.2867 288.69C56.4507 288.69 55.1787 287.814 54.7587 286.434L55.7307 286.014C56.2467 287.106 57.1227 287.658 58.3587 287.658C59.5227 287.658 60.2547 287.118 60.2547 286.17C60.2547 285.246 59.5347 284.778 58.0947 284.778H57.1587V283.782H57.9027C59.2107 283.782 60.0627 283.194 60.0627 282.39C60.0627 281.562 59.3787 281.094 58.2867 281.094C57.0027 281.094 56.2227 281.754 55.8867 282.63Z" fill="#76848D"/>
<path d="M115.824 270.382C115.824 269.086 116.124 268.042 116.736 267.262C117.336 266.482 118.224 266.086 119.388 266.086C121.776 266.086 122.964 267.658 122.964 270.382C122.964 271.69 122.664 272.722 122.076 273.502C121.476 274.282 120.588 274.678 119.412 274.678C118.284 274.678 117.408 274.282 116.772 273.49C116.136 272.698 115.824 271.666 115.824 270.382ZM116.928 270.382C116.928 272.434 117.864 273.658 119.412 273.658C121.044 273.658 121.86 272.566 121.86 270.382C121.86 268.198 121.032 267.106 119.388 267.106C117.72 267.106 116.928 268.306 116.928 270.382ZM124.82 268.954L123.944 268.642C124.244 267.154 125.372 266.086 127.16 266.086C128.888 266.086 129.944 267.082 129.944 268.606C129.944 269.41 129.596 270.214 129.164 270.79C128.948 271.09 128.672 271.378 128.348 271.678C127.688 272.266 127.22 272.578 126.536 273.01L125.612 273.586H130.256V274.582H123.716V273.766L125.54 272.554C125.864 272.35 126.092 272.194 126.224 272.098C126.356 272.014 126.572 271.858 126.86 271.654C127.148 271.45 127.364 271.27 127.508 271.138C127.64 271.006 127.82 270.838 128.024 270.622C128.576 270.022 128.78 269.47 128.84 268.714C128.84 267.622 128.132 267.13 127.088 267.13C126.44 267.13 125.924 267.31 125.552 267.67C125.18 268.03 124.928 268.462 124.82 268.954Z" fill="#76848D"/>
<path d="M199.795 270.382C199.795 269.086 200.095 268.042 200.707 267.262C201.307 266.482 202.195 266.086 203.359 266.086C205.747 266.086 206.935 267.658 206.935 270.382C206.935 271.69 206.635 272.722 206.047 273.502C205.447 274.282 204.559 274.678 203.383 274.678C202.255 274.678 201.379 274.282 200.743 273.49C200.107 272.698 199.795 271.666 199.795 270.382ZM200.899 270.382C200.899 272.434 201.835 273.658 203.383 273.658C205.015 273.658 205.831 272.566 205.831 270.382C205.831 268.198 205.003 267.106 203.359 267.106C201.691 267.106 200.899 268.306 200.899 270.382ZM208.659 268.63L207.759 268.222C208.203 266.926 209.367 266.074 211.107 266.074C211.935 266.074 212.619 266.266 213.147 266.65C213.675 267.034 213.939 267.55 213.939 268.186C213.939 269.158 213.423 269.878 212.463 270.154C213.387 270.214 214.131 270.91 214.131 272.158C214.131 272.95 213.843 273.574 213.267 274.018C212.691 274.462 211.959 274.69 211.059 274.69C209.223 274.69 207.951 273.814 207.531 272.434L208.503 272.014C209.019 273.106 209.895 273.658 211.131 273.658C212.295 273.658 213.027 273.118 213.027 272.17C213.027 271.246 212.307 270.778 210.867 270.778H209.931V269.782H210.675C211.983 269.782 212.835 269.194 212.835 268.39C212.835 267.562 212.151 267.094 211.059 267.094C209.775 267.094 208.995 267.754 208.659 268.63Z" fill="#76848D"/>
<path d="M279.467 270.382C279.467 269.086 279.767 268.042 280.379 267.262C280.979 266.482 281.867 266.086 283.031 266.086C285.419 266.086 286.607 267.658 286.607 270.382C286.607 271.69 286.307 272.722 285.719 273.502C285.119 274.282 284.231 274.678 283.055 274.678C281.927 274.678 281.051 274.282 280.415 273.49C279.779 272.698 279.467 271.666 279.467 270.382ZM280.571 270.382C280.571 272.434 281.507 273.658 283.055 273.658C284.687 273.658 285.503 272.566 285.503 270.382C285.503 268.198 284.675 267.106 283.031 267.106C281.363 267.106 280.571 268.306 280.571 270.382ZM293.299 274.582H292.255V272.866H287.119V272.17L292.375 266.182H293.299V271.894H294.859V272.866H293.299V274.582ZM292.255 267.862L288.559 271.894H292.255V267.862Z" fill="#76848D"/>
<path d="M24.014 364.5C24.014 366.166 23.622 367.454 22.824 368.35C22.026 369.26 20.962 369.708 19.632 369.708C18.008 369.708 16.734 369.022 16.104 367.972L17.112 367.272C17.672 368.056 18.694 368.504 19.8 368.504C20.71 368.504 21.438 368.14 22.012 367.412C22.586 366.698 22.824 365.802 22.754 364.738C22.292 365.802 21.13 366.586 19.576 366.586C18.484 366.586 17.588 366.278 16.888 365.648C16.174 365.032 15.824 364.22 15.824 363.226C15.824 362.134 16.202 361.266 16.958 360.622C17.714 359.978 18.722 359.656 19.968 359.656C22.488 359.656 24.014 361.42 24.014 364.5ZM22.544 363.184C22.334 361.882 21.438 360.86 19.828 360.86C18.148 360.86 17.112 361.728 17.112 363.184C17.112 364.57 18.162 365.382 19.8 365.382C20.542 365.382 21.172 365.158 21.662 364.71C22.152 364.262 22.446 363.758 22.544 363.184ZM25.1619 368.784C25.1619 368.392 25.5259 368 26.0299 368C26.4919 368 26.8699 368.392 26.8699 368.784C26.8699 369.232 26.5199 369.61 26.0299 369.61C25.5259 369.61 25.1619 369.232 25.1619 368.784ZM28.0274 364.948C28.0274 363.254 28.4474 361.952 29.2734 361.028C30.0994 360.118 31.1354 359.656 32.3814 359.656C34.0194 359.656 35.3074 360.398 35.8534 361.574L34.9014 362.218C34.3274 361.308 33.4734 360.86 32.3254 360.86C31.4574 360.86 30.7294 361.196 30.1414 361.868C29.5534 362.554 29.2594 363.478 29.2734 364.668C29.8194 363.646 31.0934 363.03 32.4934 363.03C33.6274 363.03 34.5374 363.324 35.1954 363.926C35.8534 364.528 36.1894 365.326 36.1894 366.306C36.1894 367.3 35.8254 368.126 35.0834 368.756C34.3414 369.386 33.4174 369.708 32.3114 369.708C29.6654 369.708 28.0274 367.986 28.0274 364.948ZM29.4274 366.138C29.6934 367.524 30.7434 368.504 32.2974 368.504C33.0534 368.504 33.6834 368.308 34.1734 367.902C34.6634 367.51 34.9014 366.992 34.9014 366.362C34.9014 364.976 33.9214 364.234 32.4234 364.234C31.5974 364.234 30.9114 364.43 30.3794 364.822C29.8334 365.214 29.5254 365.648 29.4274 366.138Z" fill="#1A3341"/>
<path d="M10 381.249C10 380.328 10.7462 379.582 11.6667 379.582H40.3333C41.2538 379.582 42 380.328 42 381.249V475.582H10V381.249Z" fill="url(#paint25_linear_7006_39290)"/>
<path opacity="0.2" d="M20 379.582H32V475.582H20V379.582Z" fill="url(#paint26_linear_7006_39290)"/>
<path opacity="0.04" d="M32 379.582H40.3333C41.2538 379.582 42 380.328 42 381.248V475.582H32V379.582Z" fill="#0D262C"/>
<path opacity="0.5" d="M10 381.249C10 380.328 10.7462 379.582 11.6667 379.582H20V475.582H10V381.249Z" fill="url(#paint27_linear_7006_39290)"/>
<path d="M94.3084 355.386L93.8604 354.336L97.2204 352.726H98.0184V362.582H96.8144V354.224L94.3084 355.386ZM99.8038 357.682C99.8038 356.17 100.154 354.952 100.868 354.042C101.568 353.132 102.604 352.67 103.962 352.67C106.748 352.67 108.134 354.504 108.134 357.682C108.134 359.208 107.784 360.412 107.098 361.322C106.398 362.232 105.362 362.694 103.99 362.694C102.674 362.694 101.652 362.232 100.91 361.308C100.168 360.384 99.8038 359.18 99.8038 357.682ZM101.092 357.682C101.092 360.076 102.184 361.504 103.99 361.504C105.894 361.504 106.846 360.23 106.846 357.682C106.846 355.134 105.88 353.86 103.962 353.86C102.016 353.86 101.092 355.26 101.092 357.682ZM109.277 361.784C109.277 361.392 109.641 361 110.145 361C110.607 361 110.985 361.392 110.985 361.784C110.985 362.232 110.635 362.61 110.145 362.61C109.641 362.61 109.277 362.232 109.277 361.784ZM113.109 355.638L112.059 355.162C112.577 353.65 113.935 352.656 115.965 352.656C116.931 352.656 117.729 352.88 118.345 353.328C118.961 353.776 119.269 354.378 119.269 355.12C119.269 356.254 118.667 357.094 117.547 357.416C118.625 357.486 119.493 358.298 119.493 359.754C119.493 360.678 119.157 361.406 118.485 361.924C117.813 362.442 116.959 362.708 115.909 362.708C113.767 362.708 112.283 361.686 111.793 360.076L112.927 359.586C113.529 360.86 114.551 361.504 115.993 361.504C117.351 361.504 118.205 360.874 118.205 359.768C118.205 358.69 117.365 358.144 115.685 358.144H114.593V356.982H115.461C116.987 356.982 117.981 356.296 117.981 355.358C117.981 354.392 117.183 353.846 115.909 353.846C114.411 353.846 113.501 354.616 113.109 355.638Z" fill="#1A3341"/>
<path d="M91 374.249C91 373.328 91.7462 372.582 92.6667 372.582H121.333C122.254 372.582 123 373.328 123 374.249V475.582H91V374.249Z" fill="url(#paint28_linear_7006_39290)"/>
<path opacity="0.2" d="M101 372.582H113V475.582H101V372.582Z" fill="url(#paint29_linear_7006_39290)"/>
<path opacity="0.04" d="M113 372.582H121.333C122.254 372.582 123 373.328 123 374.248V475.582H113V372.582Z" fill="#0D262C"/>
<path opacity="0.5" d="M91 374.249C91 373.328 91.7462 372.582 92.6667 372.582H101V475.582H91V374.249Z" fill="url(#paint30_linear_7006_39290)"/>
<path d="M173.96 350.386L173.512 349.336L176.872 347.726H177.67V357.582H176.466V349.224L173.96 350.386ZM179.455 352.682C179.455 351.17 179.805 349.952 180.519 349.042C181.219 348.132 182.255 347.67 183.613 347.67C186.399 347.67 187.785 349.504 187.785 352.682C187.785 354.208 187.435 355.412 186.749 356.322C186.049 357.232 185.013 357.694 183.641 357.694C182.325 357.694 181.303 357.232 180.561 356.308C179.819 355.384 179.455 354.18 179.455 352.682ZM180.743 352.682C180.743 355.076 181.835 356.504 183.641 356.504C185.545 356.504 186.497 355.23 186.497 352.682C186.497 350.134 185.531 348.86 183.613 348.86C181.667 348.86 180.743 350.26 180.743 352.682ZM188.929 356.784C188.929 356.392 189.293 356 189.797 356C190.259 356 190.637 356.392 190.637 356.784C190.637 357.232 190.287 357.61 189.797 357.61C189.293 357.61 188.929 357.232 188.929 356.784ZM195.658 351.996H196.092C196.722 351.996 197.24 351.842 197.674 351.548C198.094 351.254 198.304 350.862 198.304 350.4C198.304 349.35 197.478 348.818 195.84 348.818C194.272 348.818 193.418 349.392 193.418 350.4C193.418 351.31 194.356 351.996 195.658 351.996ZM196.064 353.102H195.714C194.958 353.102 194.328 353.27 193.838 353.592C193.348 353.914 193.096 354.32 193.096 354.81C193.096 355.874 194.076 356.546 195.854 356.546C197.66 356.546 198.626 355.902 198.626 354.824C198.626 353.746 197.59 353.102 196.064 353.102ZM198.822 356.952C198.108 357.456 197.114 357.708 195.868 357.708C194.622 357.708 193.628 357.456 192.9 356.966C192.172 356.476 191.808 355.804 191.808 354.936C191.808 353.802 192.55 352.906 193.74 352.514C192.662 352.164 192.13 351.31 192.13 350.316C192.13 348.692 193.502 347.656 195.854 347.656C198.22 347.656 199.592 348.692 199.592 350.316C199.592 351.254 199.074 351.968 198.038 352.444C199.284 352.822 199.9 353.634 199.9 354.88C199.9 355.762 199.536 356.462 198.822 356.952Z" fill="#1A3341"/>
<path d="M171 369.249C171 368.328 171.746 367.582 172.667 367.582H201.333C202.254 367.582 203 368.328 203 369.249V475.582H171V369.249Z" fill="url(#paint31_linear_7006_39290)"/>
<path opacity="0.2" d="M181 367.582H193V475.582H181V367.582Z" fill="url(#paint32_linear_7006_39290)"/>
<path opacity="0.04" d="M193 367.582H201.333C202.254 367.582 203 368.328 203 369.248V475.582H193V367.582Z" fill="#0D262C"/>
<path opacity="0.5" d="M171 369.249C171 368.328 171.746 367.582 172.667 367.582H181V475.582H171V369.249Z" fill="url(#paint33_linear_7006_39290)"/>
<path d="M255.867 348.386L255.419 347.336L258.779 345.726H259.577V355.582H258.373V347.224L255.867 348.386ZM261.25 348.386L260.802 347.336L264.162 345.726H264.96V355.582H263.756V347.224L261.25 348.386ZM266.844 354.784C266.844 354.392 267.208 354 267.712 354C268.174 354 268.552 354.392 268.552 354.784C268.552 355.232 268.202 355.61 267.712 355.61C267.208 355.61 266.844 355.232 266.844 354.784ZM269.709 350.682C269.709 349.17 270.059 347.952 270.773 347.042C271.473 346.132 272.509 345.67 273.867 345.67C276.653 345.67 278.039 347.504 278.039 350.682C278.039 352.208 277.689 353.412 277.003 354.322C276.303 355.232 275.267 355.694 273.895 355.694C272.579 355.694 271.557 355.232 270.815 354.308C270.073 353.384 269.709 352.18 269.709 350.682ZM270.997 350.682C270.997 353.076 272.089 354.504 273.895 354.504C275.799 354.504 276.751 353.23 276.751 350.682C276.751 348.134 275.785 346.86 273.867 346.86C271.921 346.86 270.997 348.26 270.997 350.682Z" fill="#1A3341"/>
<path d="M251 367.249C251 366.328 251.746 365.582 252.667 365.582H281.333C282.254 365.582 283 366.328 283 367.249V475.582H251V367.249Z" fill="url(#paint34_linear_7006_39290)"/>
<path opacity="0.2" d="M261 365.582H273V475.582H261V365.582Z" fill="url(#paint35_linear_7006_39290)"/>
<path opacity="0.04" d="M273 365.582H281.333C282.254 365.582 283 366.328 283 367.248V475.582H273V365.582Z" fill="#0D262C"/>
<path opacity="0.5" d="M251 367.249C251 366.328 251.746 365.582 252.667 365.582H261V475.582H251V367.249Z" fill="url(#paint36_linear_7006_39290)"/>
<path d="M54.6639 323.386L54.2159 322.336L57.5759 320.726H58.3739V330.582H57.1699V322.224L54.6639 323.386ZM61.1253 323.638L60.0753 323.162C60.5933 321.65 61.9513 320.656 63.9813 320.656C64.9473 320.656 65.7453 320.88 66.3613 321.328C66.9773 321.776 67.2853 322.378 67.2853 323.12C67.2853 324.254 66.6833 325.094 65.5633 325.416C66.6413 325.486 67.5093 326.298 67.5093 327.754C67.5093 328.678 67.1733 329.406 66.5013 329.924C65.8293 330.442 64.9753 330.708 63.9253 330.708C61.7833 330.708 60.2993 329.686 59.8093 328.076L60.9433 327.586C61.5453 328.86 62.5673 329.504 64.0093 329.504C65.3673 329.504 66.2213 328.874 66.2213 327.768C66.2213 326.69 65.3813 326.144 63.7013 326.144H62.6093V324.982H63.4773C65.0033 324.982 65.9973 324.296 65.9973 323.358C65.9973 322.392 65.1993 321.846 63.9253 321.846C62.4273 321.846 61.5173 322.616 61.1253 323.638ZM68.7579 329.784C68.7579 329.392 69.1219 329 69.6259 329C70.0879 329 70.4659 329.392 70.4659 329.784C70.4659 330.232 70.1159 330.61 69.6259 330.61C69.1219 330.61 68.7579 330.232 68.7579 329.784ZM73.0514 326.074L72.0434 325.808L72.6174 320.782H78.7774V321.972H73.6954L73.3314 324.604C73.8214 324.24 74.5634 324.058 75.5574 324.058C76.7054 324.058 77.6014 324.366 78.2594 324.968C78.9034 325.584 79.2254 326.368 79.2254 327.334C79.2254 328.3 78.8614 329.112 78.1474 329.742C77.4194 330.386 76.5094 330.708 75.4314 330.708C73.5974 330.708 72.0714 329.84 71.4414 328.314L72.5614 327.838C72.9674 328.776 74.0174 329.518 75.4314 329.518C77.0414 329.518 77.9374 328.594 77.9374 327.376C77.9374 326.074 76.8874 325.234 75.2214 325.234C74.3254 325.234 73.5974 325.514 73.0514 326.074Z" fill="#1A3341"/>
<path d="M51 342.249C51 341.328 51.7462 340.582 52.6667 340.582H81.3333C82.2538 340.582 83 341.328 83 342.249V475.582H51V342.249Z" fill="url(#paint37_linear_7006_39290)"/>
<path opacity="0.2" d="M61 340.582H73V475.582H61V340.582Z" fill="url(#paint38_linear_7006_39290)"/>
<path opacity="0.04" d="M73 340.582H81.3333C82.2538 340.582 83 341.328 83 342.248V475.582H73V340.582Z" fill="#0D262C"/>
<path opacity="0.5" d="M51 342.249C51 341.328 51.7462 340.582 52.6667 340.582H61V475.582H51V342.249Z" fill="url(#paint39_linear_7006_39290)"/>
<path d="M134.431 330.386L133.983 329.336L137.343 327.726H138.141V337.582H136.937V329.224L134.431 330.386ZM141.047 331.016L140.025 330.652C140.375 328.916 141.691 327.67 143.777 327.67C145.793 327.67 147.025 328.832 147.025 330.61C147.025 331.548 146.619 332.486 146.115 333.158C145.863 333.508 145.541 333.844 145.163 334.194C144.393 334.88 143.847 335.244 143.049 335.748L141.971 336.42H147.389V337.582H139.759V336.63L141.887 335.216C142.265 334.978 142.531 334.796 142.685 334.684C142.839 334.586 143.091 334.404 143.427 334.166C143.763 333.928 144.015 333.718 144.183 333.564C144.337 333.41 144.547 333.214 144.785 332.962C145.429 332.262 145.667 331.618 145.737 330.736C145.737 329.462 144.911 328.888 143.693 328.888C142.937 328.888 142.335 329.098 141.901 329.518C141.467 329.938 141.173 330.442 141.047 331.016ZM148.457 336.784C148.457 336.392 148.821 336 149.325 336C149.787 336 150.165 336.392 150.165 336.784C150.165 337.232 149.815 337.61 149.325 337.61C148.821 337.61 148.457 337.232 148.457 336.784ZM155.187 331.996H155.621C156.251 331.996 156.769 331.842 157.203 331.548C157.623 331.254 157.833 330.862 157.833 330.4C157.833 329.35 157.007 328.818 155.369 328.818C153.801 328.818 152.947 329.392 152.947 330.4C152.947 331.31 153.885 331.996 155.187 331.996ZM155.593 333.102H155.243C154.487 333.102 153.857 333.27 153.367 333.592C152.877 333.914 152.625 334.32 152.625 334.81C152.625 335.874 153.605 336.546 155.383 336.546C157.189 336.546 158.155 335.902 158.155 334.824C158.155 333.746 157.119 333.102 155.593 333.102ZM158.351 336.952C157.637 337.456 156.643 337.708 155.397 337.708C154.151 337.708 153.157 337.456 152.429 336.966C151.701 336.476 151.337 335.804 151.337 334.936C151.337 333.802 152.079 332.906 153.269 332.514C152.191 332.164 151.659 331.31 151.659 330.316C151.659 328.692 153.031 327.656 155.383 327.656C157.749 327.656 159.121 328.692 159.121 330.316C159.121 331.254 158.603 331.968 157.567 332.444C158.813 332.822 159.429 333.634 159.429 334.88C159.429 335.762 159.065 336.462 158.351 336.952Z" fill="#1A3341"/>
<path d="M131 349.249C131 348.328 131.746 347.582 132.667 347.582H161.333C162.254 347.582 163 348.328 163 349.249V475.582H131V349.249Z" fill="url(#paint40_linear_7006_39290)"/>
<path opacity="0.2" d="M141 347.582H153V475.582H141V347.582Z" fill="url(#paint41_linear_7006_39290)"/>
<path opacity="0.04" d="M153 347.582H161.333C162.254 347.582 163 348.328 163 349.248V475.582H153V347.582Z" fill="#0D262C"/>
<path opacity="0.5" d="M131 349.249C131 348.328 131.746 347.582 132.667 347.582H141V475.582H131V349.249Z" fill="url(#paint42_linear_7006_39290)"/>
<path d="M221.065 376.996H221.499C222.129 376.996 222.647 376.842 223.081 376.548C223.501 376.254 223.711 375.862 223.711 375.4C223.711 374.35 222.885 373.818 221.247 373.818C219.679 373.818 218.825 374.392 218.825 375.4C218.825 376.31 219.763 376.996 221.065 376.996ZM221.471 378.102H221.121C220.365 378.102 219.735 378.27 219.245 378.592C218.755 378.914 218.503 379.32 218.503 379.81C218.503 380.874 219.483 381.546 221.261 381.546C223.067 381.546 224.033 380.902 224.033 379.824C224.033 378.746 222.997 378.102 221.471 378.102ZM224.229 381.952C223.515 382.456 222.521 382.708 221.275 382.708C220.029 382.708 219.035 382.456 218.307 381.966C217.579 381.476 217.215 380.804 217.215 379.936C217.215 378.802 217.957 377.906 219.147 377.514C218.069 377.164 217.537 376.31 217.537 375.316C217.537 373.692 218.909 372.656 221.261 372.656C223.627 372.656 224.999 373.692 224.999 375.316C224.999 376.254 224.481 376.968 223.445 377.444C224.691 377.822 225.307 378.634 225.307 379.88C225.307 380.762 224.943 381.462 224.229 381.952ZM226.497 381.784C226.497 381.392 226.861 381 227.365 381C227.827 381 228.205 381.392 228.205 381.784C228.205 382.232 227.855 382.61 227.365 382.61C226.861 382.61 226.497 382.232 226.497 381.784ZM230.328 375.638L229.278 375.162C229.796 373.65 231.154 372.656 233.184 372.656C234.15 372.656 234.948 372.88 235.564 373.328C236.18 373.776 236.488 374.378 236.488 375.12C236.488 376.254 235.886 377.094 234.766 377.416C235.844 377.486 236.712 378.298 236.712 379.754C236.712 380.678 236.376 381.406 235.704 381.924C235.032 382.442 234.178 382.708 233.128 382.708C230.986 382.708 229.502 381.686 229.012 380.076L230.146 379.586C230.748 380.86 231.77 381.504 233.212 381.504C234.57 381.504 235.424 380.874 235.424 379.768C235.424 378.69 234.584 378.144 232.904 378.144H231.812V376.982H232.68C234.206 376.982 235.2 376.296 235.2 375.358C235.2 374.392 234.402 373.846 233.128 373.846C231.63 373.846 230.72 374.616 230.328 375.638Z" fill="#1A3341"/>
<path d="M211 394.249C211 393.328 211.746 392.582 212.667 392.582H241.333C242.254 392.582 243 393.328 243 394.249V475.582H211V394.249Z" fill="url(#paint43_linear_7006_39290)"/>
<path opacity="0.2" d="M221 392.582H233V475.582H221V392.582Z" fill="url(#paint44_linear_7006_39290)"/>
<path opacity="0.04" d="M233 392.582H241.333C242.254 392.582 243 393.328 243 394.248V475.582H233V392.582Z" fill="#0D262C"/>
<path opacity="0.5" d="M211 394.249C211 393.328 211.746 392.582 212.667 392.582H221V475.582H211V394.249Z" fill="url(#paint45_linear_7006_39290)"/>
<path d="M296.339 346.386L295.891 345.336L299.251 343.726H300.049V353.582H298.845V345.224L296.339 346.386ZM301.722 346.386L301.274 345.336L304.634 343.726H305.432V353.582H304.228V345.224L301.722 346.386ZM307.316 352.784C307.316 352.392 307.68 352 308.184 352C308.646 352 309.024 352.392 309.024 352.784C309.024 353.232 308.674 353.61 308.184 353.61C307.68 353.61 307.316 353.232 307.316 352.784ZM311.301 347.016L310.279 346.652C310.629 344.916 311.945 343.67 314.031 343.67C316.047 343.67 317.279 344.832 317.279 346.61C317.279 347.548 316.873 348.486 316.369 349.158C316.117 349.508 315.795 349.844 315.417 350.194C314.647 350.88 314.101 351.244 313.303 351.748L312.225 352.42H317.643V353.582H310.013V352.63L312.141 351.216C312.519 350.978 312.785 350.796 312.939 350.684C313.093 350.586 313.345 350.404 313.681 350.166C314.017 349.928 314.269 349.718 314.437 349.564C314.591 349.41 314.801 349.214 315.039 348.962C315.683 348.262 315.921 347.618 315.991 346.736C315.991 345.462 315.165 344.888 313.947 344.888C313.191 344.888 312.589 345.098 312.155 345.518C311.721 345.938 311.427 346.442 311.301 347.016Z" fill="#1A3341"/>
<path d="M291 365.249C291 364.328 291.746 363.582 292.667 363.582H321.333C322.254 363.582 323 364.328 323 365.249V475.582H291V365.249Z" fill="url(#paint46_linear_7006_39290)"/>
<path opacity="0.2" d="M301 363.582H313V475.582H301V363.582Z" fill="url(#paint47_linear_7006_39290)"/>
<path opacity="0.04" d="M313 363.582H321.333C322.254 363.582 323 364.328 323 365.248V475.582H313V363.582Z" fill="#0D262C"/>
<path opacity="0.5" d="M291 365.249C291 364.328 291.746 363.582 292.667 363.582H301V475.582H291V365.249Z" fill="url(#paint48_linear_7006_39290)"/>
<path d="M38.7244 489.382C38.7244 488.086 39.0244 487.042 39.6364 486.262C40.2364 485.482 41.1244 485.086 42.2884 485.086C44.6764 485.086 45.8644 486.658 45.8644 489.382C45.8644 490.69 45.5644 491.722 44.9764 492.502C44.3764 493.282 43.4884 493.678 42.3124 493.678C41.1844 493.678 40.3084 493.282 39.6724 492.49C39.0364 491.698 38.7244 490.666 38.7244 489.382ZM39.8284 489.382C39.8284 491.434 40.7644 492.658 42.3124 492.658C43.9444 492.658 44.7604 491.566 44.7604 489.382C44.7604 487.198 43.9324 486.106 42.2884 486.106C40.6204 486.106 39.8284 487.306 39.8284 489.382ZM47.9847 489.718L47.1207 489.49L47.6127 485.182H52.8927V486.202H48.5367L48.2247 488.458C48.6447 488.146 49.2807 487.99 50.1327 487.99C51.1167 487.99 51.8847 488.254 52.4487 488.77C53.0007 489.298 53.2767 489.97 53.2767 490.798C53.2767 491.626 52.9647 492.322 52.3527 492.862C51.7287 493.414 50.9487 493.69 50.0247 493.69C48.4527 493.69 47.1447 492.946 46.6047 491.638L47.5647 491.23C47.9127 492.034 48.8127 492.67 50.0247 492.67C51.4047 492.67 52.1727 491.878 52.1727 490.834C52.1727 489.718 51.2727 488.998 49.8447 488.998C49.0767 488.998 48.4527 489.238 47.9847 489.718Z" fill="#76848D"/>
<path d="M119.508 489.382C119.508 488.086 119.808 487.042 120.42 486.262C121.02 485.482 121.908 485.086 123.072 485.086C125.46 485.086 126.648 486.658 126.648 489.382C126.648 490.69 126.348 491.722 125.76 492.502C125.16 493.282 124.272 493.678 123.096 493.678C121.968 493.678 121.092 493.282 120.456 492.49C119.82 491.698 119.508 490.666 119.508 489.382ZM120.612 489.382C120.612 491.434 121.548 492.658 123.096 492.658C124.728 492.658 125.544 491.566 125.544 489.382C125.544 487.198 124.716 486.106 123.072 486.106C121.404 486.106 120.612 487.306 120.612 489.382ZM127.544 489.61C127.544 488.158 127.904 487.042 128.612 486.25C129.32 485.47 130.208 485.074 131.276 485.074C132.68 485.074 133.784 485.71 134.252 486.718L133.436 487.27C132.944 486.49 132.212 486.106 131.228 486.106C130.484 486.106 129.86 486.394 129.356 486.97C128.852 487.558 128.6 488.35 128.612 489.37C129.08 488.494 130.172 487.966 131.372 487.966C132.344 487.966 133.124 488.218 133.688 488.734C134.252 489.25 134.54 489.934 134.54 490.774C134.54 491.626 134.228 492.334 133.592 492.874C132.956 493.414 132.164 493.69 131.216 493.69C128.948 493.69 127.544 492.214 127.544 489.61ZM128.744 490.63C128.972 491.818 129.872 492.658 131.204 492.658C131.852 492.658 132.392 492.49 132.812 492.142C133.232 491.806 133.436 491.362 133.436 490.822C133.436 489.634 132.596 488.998 131.312 488.998C130.604 488.998 130.016 489.166 129.56 489.502C129.092 489.838 128.828 490.21 128.744 490.63Z" fill="#76848D"/>
<path d="M200.07 489.382C200.07 488.086 200.37 487.042 200.982 486.262C201.582 485.482 202.47 485.086 203.634 485.086C206.022 485.086 207.21 486.658 207.21 489.382C207.21 490.69 206.91 491.722 206.322 492.502C205.722 493.282 204.834 493.678 203.658 493.678C202.53 493.678 201.654 493.282 201.018 492.49C200.382 491.698 200.07 490.666 200.07 489.382ZM201.174 489.382C201.174 491.434 202.11 492.658 203.658 492.658C205.29 492.658 206.106 491.566 206.106 489.382C206.106 487.198 205.278 486.106 203.634 486.106C201.966 486.106 201.174 487.306 201.174 489.382ZM212.918 486.202H207.83V485.182H214.202V485.866L210.026 493.582H208.886L212.918 486.202Z" fill="#76848D"/>
<path d="M279.496 489.382C279.496 488.086 279.796 487.042 280.408 486.262C281.008 485.482 281.896 485.086 283.06 485.086C285.448 485.086 286.636 486.658 286.636 489.382C286.636 490.69 286.336 491.722 285.748 492.502C285.148 493.282 284.26 493.678 283.084 493.678C281.956 493.678 281.08 493.282 280.444 492.49C279.808 491.698 279.496 490.666 279.496 489.382ZM280.6 489.382C280.6 491.434 281.536 492.658 283.084 492.658C284.716 492.658 285.532 491.566 285.532 489.382C285.532 487.198 284.704 486.106 283.06 486.106C281.392 486.106 280.6 487.306 280.6 489.382ZM290.844 488.794H291.216C291.756 488.794 292.2 488.662 292.572 488.41C292.932 488.158 293.112 487.822 293.112 487.426C293.112 486.526 292.404 486.07 291 486.07C289.656 486.07 288.924 486.562 288.924 487.426C288.924 488.206 289.728 488.794 290.844 488.794ZM291.192 489.742H290.892C290.244 489.742 289.704 489.886 289.284 490.162C288.864 490.438 288.648 490.786 288.648 491.206C288.648 492.118 289.488 492.694 291.012 492.694C292.56 492.694 293.388 492.142 293.388 491.218C293.388 490.294 292.5 489.742 291.192 489.742ZM293.556 493.042C292.944 493.474 292.092 493.69 291.024 493.69C289.956 493.69 289.104 493.474 288.48 493.054C287.856 492.634 287.544 492.058 287.544 491.314C287.544 490.342 288.18 489.574 289.2 489.238C288.276 488.938 287.82 488.206 287.82 487.354C287.82 485.962 288.996 485.074 291.012 485.074C293.04 485.074 294.216 485.962 294.216 487.354C294.216 488.158 293.772 488.77 292.884 489.178C293.952 489.502 294.48 490.198 294.48 491.266C294.48 492.022 294.168 492.622 293.556 493.042Z" fill="#76848D"/>
<line x1="-4.37114e-08" y1="475.082" x2="335" y2="475.082" stroke="#ABBEC9"/>
<path d="M14.8143 560.386L14.3663 559.336L17.7263 557.726H18.5243V567.582H17.3203V559.224L14.8143 560.386ZM21.4297 561.016L20.4077 560.652C20.7577 558.916 22.0737 557.67 24.1597 557.67C26.1757 557.67 27.4077 558.832 27.4077 560.61C27.4077 561.548 27.0017 562.486 26.4977 563.158C26.2457 563.508 25.9237 563.844 25.5457 564.194C24.7757 564.88 24.2297 565.244 23.4317 565.748L22.3537 566.42H27.7717V567.582H20.1417V566.63L22.2697 565.216C22.6477 564.978 22.9137 564.796 23.0677 564.684C23.2217 564.586 23.4737 564.404 23.8097 564.166C24.1457 563.928 24.3977 563.718 24.5657 563.564C24.7197 563.41 24.9297 563.214 25.1677 562.962C25.8117 562.262 26.0497 561.618 26.1197 560.736C26.1197 559.462 25.2937 558.888 24.0757 558.888C23.3197 558.888 22.7177 559.098 22.2837 559.518C21.8497 559.938 21.5557 560.442 21.4297 561.016ZM28.84 566.784C28.84 566.392 29.204 566 29.708 566C30.17 566 30.548 566.392 30.548 566.784C30.548 567.232 30.198 567.61 29.708 567.61C29.204 567.61 28.84 567.232 28.84 566.784ZM32.8255 561.016L31.8035 560.652C32.1535 558.916 33.4695 557.67 35.5555 557.67C37.5715 557.67 38.8035 558.832 38.8035 560.61C38.8035 561.548 38.3975 562.486 37.8935 563.158C37.6415 563.508 37.3195 563.844 36.9415 564.194C36.1715 564.88 35.6255 565.244 34.8275 565.748L33.7495 566.42H39.1675V567.582H31.5375V566.63L33.6655 565.216C34.0435 564.978 34.3095 564.796 34.4635 564.684C34.6175 564.586 34.8695 564.404 35.2055 564.166C35.5415 563.928 35.7935 563.718 35.9615 563.564C36.1155 563.41 36.3255 563.214 36.5635 562.962C37.2075 562.262 37.4455 561.618 37.5155 560.736C37.5155 559.462 36.6895 558.888 35.4715 558.888C34.7155 558.888 34.1135 559.098 33.6795 559.518C33.2455 559.938 32.9515 560.442 32.8255 561.016Z" fill="#1A3341"/>
<path d="M11 579.249C11 578.328 11.7462 577.582 12.6667 577.582H41.3333C42.2538 577.582 43 578.328 43 579.249V699.582H11V579.249Z" fill="url(#paint49_linear_7006_39290)"/>
<path opacity="0.2" d="M21 577.582H33V699.582H21V577.582Z" fill="url(#paint50_linear_7006_39290)"/>
<path opacity="0.04" d="M33 577.582H41.3333C42.2538 577.582 43 578.328 43 579.248V699.582H33V577.582Z" fill="#0D262C"/>
<path opacity="0.5" d="M11 579.249C11 578.328 11.7462 577.582 12.6667 577.582H21V699.582H11V579.249Z" fill="url(#paint51_linear_7006_39290)"/>
<path d="M95.1014 555.386L94.6534 554.336L98.0134 552.726H98.8114V562.582H97.6074V554.224L95.1014 555.386ZM101.717 556.016L100.695 555.652C101.045 553.916 102.361 552.67 104.447 552.67C106.463 552.67 107.695 553.832 107.695 555.61C107.695 556.548 107.289 557.486 106.785 558.158C106.533 558.508 106.211 558.844 105.833 559.194C105.063 559.88 104.517 560.244 103.719 560.748L102.641 561.42H108.059V562.582H100.429V561.63L102.557 560.216C102.935 559.978 103.201 559.796 103.355 559.684C103.509 559.586 103.761 559.404 104.097 559.166C104.433 558.928 104.685 558.718 104.853 558.564C105.007 558.41 105.217 558.214 105.455 557.962C106.099 557.262 106.337 556.618 106.407 555.736C106.407 554.462 105.581 553.888 104.363 553.888C103.607 553.888 103.005 554.098 102.571 554.518C102.137 554.938 101.843 555.442 101.717 556.016ZM109.127 561.784C109.127 561.392 109.491 561 109.995 561C110.457 561 110.835 561.392 110.835 561.784C110.835 562.232 110.485 562.61 109.995 562.61C109.491 562.61 109.127 562.232 109.127 561.784ZM117.607 553.972H111.671V552.782H119.105V553.58L114.233 562.582H112.903L117.607 553.972Z" fill="#1A3341"/>
<path d="M91 574.249C91 573.328 91.7462 572.582 92.6667 572.582H121.333C122.254 572.582 123 573.328 123 574.249V699.582H91V574.249Z" fill="url(#paint52_linear_7006_39290)"/>
<path opacity="0.2" d="M101 572.582H113V699.582H101V572.582Z" fill="url(#paint53_linear_7006_39290)"/>
<path opacity="0.04" d="M113 572.582H121.333C122.254 572.582 123 573.328 123 574.248V699.582H113V572.582Z" fill="#0D262C"/>
<path opacity="0.5" d="M91 574.249C91 573.328 91.7462 572.582 92.6667 572.582H101V699.582H91V574.249Z" fill="url(#paint54_linear_7006_39290)"/>
<path d="M174.226 577.386L173.778 576.336L177.138 574.726H177.936V584.582H176.732V576.224L174.226 577.386ZM179.722 579.682C179.722 578.17 180.072 576.952 180.786 576.042C181.486 575.132 182.522 574.67 183.88 574.67C186.666 574.67 188.052 576.504 188.052 579.682C188.052 581.208 187.702 582.412 187.016 583.322C186.316 584.232 185.28 584.694 183.908 584.694C182.592 584.694 181.57 584.232 180.828 583.308C180.086 582.384 179.722 581.18 179.722 579.682ZM181.01 579.682C181.01 582.076 182.102 583.504 183.908 583.504C185.812 583.504 186.764 582.23 186.764 579.682C186.764 577.134 185.798 575.86 183.88 575.86C181.934 575.86 181.01 577.26 181.01 579.682ZM189.195 583.784C189.195 583.392 189.559 583 190.063 583C190.525 583 190.903 583.392 190.903 583.784C190.903 584.232 190.553 584.61 190.063 584.61C189.559 584.61 189.195 584.232 189.195 583.784ZM193.489 580.074L192.481 579.808L193.055 574.782H199.215V575.972H194.133L193.769 578.604C194.259 578.24 195.001 578.058 195.995 578.058C197.143 578.058 198.039 578.366 198.697 578.968C199.341 579.584 199.663 580.368 199.663 581.334C199.663 582.3 199.299 583.112 198.585 583.742C197.857 584.386 196.947 584.708 195.869 584.708C194.035 584.708 192.509 583.84 191.879 582.314L192.999 581.838C193.405 582.776 194.455 583.518 195.869 583.518C197.479 583.518 198.375 582.594 198.375 581.376C198.375 580.074 197.325 579.234 195.659 579.234C194.763 579.234 194.035 579.514 193.489 580.074Z" fill="#1A3341"/>
<path d="M171 596.249C171 595.328 171.746 594.582 172.667 594.582H201.333C202.254 594.582 203 595.328 203 596.249V699.582H171V596.249Z" fill="url(#paint55_linear_7006_39290)"/>
<path opacity="0.2" d="M181 594.582H193V699.582H181V594.582Z" fill="url(#paint56_linear_7006_39290)"/>
<path opacity="0.04" d="M193 594.582H201.333C202.254 594.582 203 595.328 203 596.248V699.582H193V594.582Z" fill="#0D262C"/>
<path opacity="0.5" d="M171 596.249C171 595.328 171.746 594.582 172.667 594.582H181V699.582H171V596.249Z" fill="url(#paint57_linear_7006_39290)"/>
<path d="M254.343 580.386L253.895 579.336L257.255 577.726H258.053V587.582H256.849V579.224L254.343 580.386ZM259.838 582.682C259.838 581.17 260.188 579.952 260.902 579.042C261.602 578.132 262.638 577.67 263.996 577.67C266.782 577.67 268.168 579.504 268.168 582.682C268.168 584.208 267.818 585.412 267.132 586.322C266.432 587.232 265.396 587.694 264.024 587.694C262.708 587.694 261.686 587.232 260.944 586.308C260.202 585.384 259.838 584.18 259.838 582.682ZM261.126 582.682C261.126 585.076 262.218 586.504 264.024 586.504C265.928 586.504 266.88 585.23 266.88 582.682C266.88 580.134 265.914 578.86 263.996 578.86C262.05 578.86 261.126 580.26 261.126 582.682ZM269.312 586.784C269.312 586.392 269.676 586 270.18 586C270.642 586 271.02 586.392 271.02 586.784C271.02 587.232 270.67 587.61 270.18 587.61C269.676 587.61 269.312 587.232 269.312 586.784ZM273.297 581.016L272.275 580.652C272.625 578.916 273.941 577.67 276.027 577.67C278.043 577.67 279.275 578.832 279.275 580.61C279.275 581.548 278.869 582.486 278.365 583.158C278.113 583.508 277.791 583.844 277.413 584.194C276.643 584.88 276.097 585.244 275.299 585.748L274.221 586.42H279.639V587.582H272.009V586.63L274.137 585.216C274.515 584.978 274.781 584.796 274.935 584.684C275.089 584.586 275.341 584.404 275.677 584.166C276.013 583.928 276.265 583.718 276.433 583.564C276.587 583.41 276.797 583.214 277.035 582.962C277.679 582.262 277.917 581.618 277.987 580.736C277.987 579.462 277.161 578.888 275.943 578.888C275.187 578.888 274.585 579.098 274.151 579.518C273.717 579.938 273.423 580.442 273.297 581.016Z" fill="#1A3341"/>
<path d="M251 599.249C251 598.328 251.746 597.582 252.667 597.582H281.333C282.254 597.582 283 598.328 283 599.249V699.582H251V599.249Z" fill="url(#paint58_linear_7006_39290)"/>
<path opacity="0.2" d="M261 597.582H273V699.582H261V597.582Z" fill="url(#paint59_linear_7006_39290)"/>
<path opacity="0.04" d="M273 597.582H281.333C282.254 597.582 283 598.328 283 599.248V699.582H273V597.582Z" fill="#0D262C"/>
<path opacity="0.5" d="M251 599.249C251 598.328 251.746 597.582 252.667 597.582H261V699.582H251V599.249Z" fill="url(#paint60_linear_7006_39290)"/>
<path d="M54.8143 560.386L54.3663 559.336L57.7263 557.726H58.5243V567.582H57.3203V559.224L54.8143 560.386ZM61.4297 561.016L60.4077 560.652C60.7577 558.916 62.0737 557.67 64.1597 557.67C66.1757 557.67 67.4077 558.832 67.4077 560.61C67.4077 561.548 67.0017 562.486 66.4977 563.158C66.2457 563.508 65.9237 563.844 65.5457 564.194C64.7757 564.88 64.2297 565.244 63.4317 565.748L62.3537 566.42H67.7717V567.582H60.1417V566.63L62.2697 565.216C62.6477 564.978 62.9137 564.796 63.0677 564.684C63.2217 564.586 63.4737 564.404 63.8097 564.166C64.1457 563.928 64.3977 563.718 64.5657 563.564C64.7197 563.41 64.9297 563.214 65.1677 562.962C65.8117 562.262 66.0497 561.618 66.1197 560.736C66.1197 559.462 65.2937 558.888 64.0757 558.888C63.3197 558.888 62.7177 559.098 62.2837 559.518C61.8497 559.938 61.5557 560.442 61.4297 561.016ZM68.84 566.784C68.84 566.392 69.204 566 69.708 566C70.17 566 70.548 566.392 70.548 566.784C70.548 567.232 70.198 567.61 69.708 567.61C69.204 567.61 68.84 567.232 68.84 566.784ZM72.8255 561.016L71.8035 560.652C72.1535 558.916 73.4695 557.67 75.5555 557.67C77.5715 557.67 78.8035 558.832 78.8035 560.61C78.8035 561.548 78.3975 562.486 77.8935 563.158C77.6415 563.508 77.3195 563.844 76.9415 564.194C76.1715 564.88 75.6255 565.244 74.8275 565.748L73.7495 566.42H79.1675V567.582H71.5375V566.63L73.6655 565.216C74.0435 564.978 74.3095 564.796 74.4635 564.684C74.6175 564.586 74.8695 564.404 75.2055 564.166C75.5415 563.928 75.7935 563.718 75.9615 563.564C76.1155 563.41 76.3255 563.214 76.5635 562.962C77.2075 562.262 77.4455 561.618 77.5155 560.736C77.5155 559.462 76.6895 558.888 75.4715 558.888C74.7155 558.888 74.1135 559.098 73.6795 559.518C73.2455 559.938 72.9515 560.442 72.8255 561.016Z" fill="#1A3341"/>
<path d="M51 579.249C51 578.328 51.7462 577.582 52.6667 577.582H81.3333C82.2538 577.582 83 578.328 83 579.249V699.582H51V579.249Z" fill="url(#paint61_linear_7006_39290)"/>
<path opacity="0.2" d="M61 577.582H73V699.582H61V577.582Z" fill="url(#paint62_linear_7006_39290)"/>
<path opacity="0.04" d="M73 577.582H81.3333C82.2538 577.582 83 578.328 83 579.248V699.582H73V577.582Z" fill="#0D262C"/>
<path opacity="0.5" d="M51 579.249C51 578.328 51.7462 577.582 52.6667 577.582H61V699.582H51V579.249Z" fill="url(#paint63_linear_7006_39290)"/>
<path d="M134.281 528.386L133.833 527.336L137.193 525.726H137.991V535.582H136.787V527.224L134.281 528.386ZM141.204 531.074L140.196 530.808L140.77 525.782H146.93V526.972H141.848L141.484 529.604C141.974 529.24 142.716 529.058 143.71 529.058C144.858 529.058 145.754 529.366 146.412 529.968C147.056 530.584 147.378 531.368 147.378 532.334C147.378 533.3 147.014 534.112 146.3 534.742C145.572 535.386 144.662 535.708 143.584 535.708C141.75 535.708 140.224 534.84 139.594 533.314L140.714 532.838C141.12 533.776 142.17 534.518 143.584 534.518C145.194 534.518 146.09 533.594 146.09 532.376C146.09 531.074 145.04 530.234 143.374 530.234C142.478 530.234 141.75 530.514 141.204 531.074ZM148.539 534.784C148.539 534.392 148.903 534 149.407 534C149.869 534 150.247 534.392 150.247 534.784C150.247 535.232 149.897 535.61 149.407 535.61C148.903 535.61 148.539 535.232 148.539 534.784ZM158.167 535.582H156.949V533.58H150.957V532.768L157.089 525.782H158.167V532.446H159.987V533.58H158.167V535.582ZM156.949 527.742L152.637 532.446H156.949V527.742Z" fill="#1A3341"/>
<path d="M131 547.249C131 546.328 131.746 545.582 132.667 545.582H161.333C162.254 545.582 163 546.328 163 547.249V699.582H131V547.249Z" fill="url(#paint64_linear_7006_39290)"/>
<path opacity="0.2" d="M141 545.582H153V699.582H141V545.582Z" fill="url(#paint65_linear_7006_39290)"/>
<path opacity="0.04" d="M153 545.582H161.333C162.254 545.582 163 546.328 163 547.248V699.582H153V545.582Z" fill="#0D262C"/>
<path opacity="0.5" d="M131 547.249C131 546.328 131.746 545.582 132.667 545.582H141V699.582H131V547.249Z" fill="url(#paint66_linear_7006_39290)"/>
<path d="M214.363 548.386L213.915 547.336L217.275 545.726H218.073V555.582H216.869V547.224L214.363 548.386ZM220.825 548.638L219.775 548.162C220.293 546.65 221.651 545.656 223.681 545.656C224.647 545.656 225.445 545.88 226.061 546.328C226.677 546.776 226.985 547.378 226.985 548.12C226.985 549.254 226.383 550.094 225.263 550.416C226.341 550.486 227.209 551.298 227.209 552.754C227.209 553.678 226.873 554.406 226.201 554.924C225.529 555.442 224.675 555.708 223.625 555.708C221.483 555.708 219.999 554.686 219.509 553.076L220.643 552.586C221.245 553.86 222.267 554.504 223.709 554.504C225.067 554.504 225.921 553.874 225.921 552.768C225.921 551.69 225.081 551.144 223.401 551.144H222.309V549.982H223.177C224.703 549.982 225.697 549.296 225.697 548.358C225.697 547.392 224.899 546.846 223.625 546.846C222.127 546.846 221.217 547.616 220.825 548.638ZM228.457 554.784C228.457 554.392 228.821 554 229.325 554C229.787 554 230.165 554.392 230.165 554.784C230.165 555.232 229.815 555.61 229.325 555.61C228.821 555.61 228.457 555.232 228.457 554.784ZM238.085 555.582H236.867V553.58H230.875V552.768L237.007 545.782H238.085V552.446H239.905V553.58H238.085V555.582ZM236.867 547.742L232.555 552.446H236.867V547.742Z" fill="#1A3341"/>
<path d="M211 567.249C211 566.328 211.746 565.582 212.667 565.582H241.333C242.254 565.582 243 566.328 243 567.249V699.582H211V567.249Z" fill="url(#paint67_linear_7006_39290)"/>
<path opacity="0.2" d="M221 565.582H233V699.582H221V565.582Z" fill="url(#paint68_linear_7006_39290)"/>
<path opacity="0.04" d="M233 565.582H241.333C242.254 565.582 243 566.328 243 567.248V699.582H233V565.582Z" fill="#0D262C"/>
<path opacity="0.5" d="M211 567.249C211 566.328 211.746 565.582 212.667 565.582H221V699.582H211V567.249Z" fill="url(#paint69_linear_7006_39290)"/>
<path d="M296.626 565.386L296.178 564.336L299.538 562.726H300.336V572.582H299.132V564.224L296.626 565.386ZM302.009 565.386L301.561 564.336L304.921 562.726H305.719V572.582H304.515V564.224L302.009 565.386ZM307.603 571.784C307.603 571.392 307.967 571 308.471 571C308.933 571 309.311 571.392 309.311 571.784C309.311 572.232 308.961 572.61 308.471 572.61C307.967 572.61 307.603 572.232 307.603 571.784ZM316.082 563.972H310.146V562.782H317.58V563.58L312.708 572.582H311.378L316.082 563.972Z" fill="#1A3341"/>
<path d="M291 584.249C291 583.328 291.746 582.582 292.667 582.582H321.333C322.254 582.582 323 583.328 323 584.249V699.582H291V584.249Z" fill="url(#paint70_linear_7006_39290)"/>
<path opacity="0.2" d="M301 582.582H313V699.582H301V582.582Z" fill="url(#paint71_linear_7006_39290)"/>
<path opacity="0.04" d="M313 582.582H321.333C322.254 582.582 323 583.328 323 584.248V699.582H313V582.582Z" fill="#0D262C"/>
<path opacity="0.5" d="M291 584.249C291 583.328 291.746 582.582 292.667 582.582H301V699.582H291V584.249Z" fill="url(#paint72_linear_7006_39290)"/>
<path d="M39.4959 713.382C39.4959 712.086 39.7959 711.042 40.4079 710.262C41.0079 709.482 41.8959 709.086 43.0599 709.086C45.4479 709.086 46.6359 710.658 46.6359 713.382C46.6359 714.69 46.3359 715.722 45.7479 716.502C45.1479 717.282 44.2599 717.678 43.0839 717.678C41.9559 717.678 41.0799 717.282 40.4439 716.49C39.8079 715.698 39.4959 714.666 39.4959 713.382ZM40.5999 713.382C40.5999 715.434 41.5359 716.658 43.0839 716.658C44.7159 716.658 45.5319 715.566 45.5319 713.382C45.5319 711.198 44.7039 710.106 43.0599 710.106C41.3919 710.106 40.5999 711.306 40.5999 713.382ZM54.5162 713.226C54.5162 714.654 54.1802 715.758 53.4962 716.526C52.8122 717.306 51.9002 717.69 50.7602 717.69C49.3682 717.69 48.2762 717.102 47.7362 716.202L48.6002 715.602C49.0802 716.274 49.9562 716.658 50.9042 716.658C51.6842 716.658 52.3082 716.346 52.8002 715.722C53.2922 715.11 53.4962 714.342 53.4362 713.43C53.0402 714.342 52.0442 715.014 50.7122 715.014C49.7762 715.014 49.0082 714.75 48.4082 714.21C47.7962 713.682 47.4962 712.986 47.4962 712.134C47.4962 711.198 47.8202 710.454 48.4682 709.902C49.1162 709.35 49.9802 709.074 51.0482 709.074C53.2082 709.074 54.5162 710.586 54.5162 713.226ZM53.2562 712.098C53.0762 710.982 52.3082 710.106 50.9282 710.106C49.4882 710.106 48.6002 710.85 48.6002 712.098C48.6002 713.286 49.5002 713.982 50.9042 713.982C51.5402 713.982 52.0802 713.79 52.5002 713.406C52.9202 713.022 53.1722 712.59 53.2562 712.098Z" fill="#76848D"/>
<path d="M121.035 711.414L120.651 710.514L123.531 709.134H124.215V717.582H123.183V710.418L121.035 711.414ZM125.745 713.382C125.745 712.086 126.045 711.042 126.657 710.262C127.257 709.482 128.145 709.086 129.309 709.086C131.697 709.086 132.885 710.658 132.885 713.382C132.885 714.69 132.585 715.722 131.997 716.502C131.397 717.282 130.509 717.678 129.333 717.678C128.205 717.678 127.329 717.282 126.693 716.49C126.057 715.698 125.745 714.666 125.745 713.382ZM126.849 713.382C126.849 715.434 127.785 716.658 129.333 716.658C130.965 716.658 131.781 715.566 131.781 713.382C131.781 711.198 130.953 710.106 129.309 710.106C127.641 710.106 126.849 711.306 126.849 713.382Z" fill="#76848D"/>
<path d="M202.746 711.414L202.362 710.514L205.242 709.134H205.926V717.582H204.894V710.418L202.746 711.414ZM207.36 711.414L206.976 710.514L209.856 709.134H210.54V717.582H209.508V710.418L207.36 711.414Z" fill="#76848D"/>
<path d="M281.439 711.414L281.055 710.514L283.935 709.134H284.619V717.582H283.587V710.418L281.439 711.414ZM287.109 711.954L286.233 711.642C286.533 710.154 287.661 709.086 289.449 709.086C291.177 709.086 292.233 710.082 292.233 711.606C292.233 712.41 291.885 713.214 291.453 713.79C291.237 714.09 290.961 714.378 290.637 714.678C289.977 715.266 289.509 715.578 288.825 716.01L287.901 716.586H292.545V717.582H286.005V716.766L287.829 715.554C288.153 715.35 288.381 715.194 288.513 715.098C288.645 715.014 288.861 714.858 289.149 714.654C289.437 714.45 289.653 714.27 289.797 714.138C289.929 714.006 290.109 713.838 290.313 713.622C290.865 713.022 291.069 712.47 291.129 711.714C291.129 710.622 290.421 710.13 289.377 710.13C288.729 710.13 288.213 710.31 287.841 710.67C287.469 711.03 287.217 711.462 287.109 711.954Z" fill="#76848D"/>
<line x1="-4.37114e-08" y1="699.082" x2="335" y2="699.082" stroke="#ABBEC9"/>
<defs>
<linearGradient id="paint0_linear_7006_39290" x1="0.476191" y1="12.582" x2="10" y2="12.582" gradientUnits="userSpaceOnUse">
<stop stop-color="#CEE8EF"/>
<stop offset="1" stop-color="#CEE8EF"/>
</linearGradient>
<linearGradient id="paint1_linear_7006_39290" x1="27" y1="212.582" x2="27" y2="137.582" gradientUnits="userSpaceOnUse">
<stop stop-color="#CDE3E9"/>
<stop offset="1" stop-color="#D3E8ED"/>
</linearGradient>
<linearGradient id="paint2_linear_7006_39290" x1="27" y1="212.582" x2="27" y2="137.582" gradientUnits="userSpaceOnUse">
<stop stop-color="white" stop-opacity="0"/>
<stop offset="0.739583" stop-color="white"/>
</linearGradient>
<linearGradient id="paint3_linear_7006_39290" x1="16" y1="358.832" x2="16" y2="137.582" gradientUnits="userSpaceOnUse">
<stop stop-color="white" stop-opacity="0.05"/>
<stop offset="0.75" stop-color="white" stop-opacity="0.8"/>
</linearGradient>
<linearGradient id="paint4_linear_7006_39290" x1="103" y1="224.582" x2="103" y2="137.582" gradientUnits="userSpaceOnUse">
<stop stop-color="#CDE3E9"/>
<stop offset="1" stop-color="#D3E8ED"/>
</linearGradient>
<linearGradient id="paint5_linear_7006_39290" x1="103" y1="224.582" x2="103" y2="137.582" gradientUnits="userSpaceOnUse">
<stop stop-color="white" stop-opacity="0"/>
<stop offset="0.739583" stop-color="white"/>
</linearGradient>
<linearGradient id="paint6_linear_7006_39290" x1="92" y1="394.232" x2="92" y2="137.582" gradientUnits="userSpaceOnUse">
<stop stop-color="white" stop-opacity="0.05"/>
<stop offset="0.75" stop-color="white" stop-opacity="0.8"/>
</linearGradient>
<linearGradient id="paint7_linear_7006_39290" x1="187" y1="185.582" x2="187" y2="137.582" gradientUnits="userSpaceOnUse">
<stop stop-color="#CDE3E9"/>
<stop offset="1" stop-color="#D3E8ED"/>
</linearGradient>
<linearGradient id="paint8_linear_7006_39290" x1="187" y1="185.582" x2="187" y2="137.582" gradientUnits="userSpaceOnUse">
<stop stop-color="white" stop-opacity="0"/>
<stop offset="0.739583" stop-color="white"/>
</linearGradient>
<linearGradient id="paint9_linear_7006_39290" x1="176" y1="279.182" x2="176" y2="137.582" gradientUnits="userSpaceOnUse">
<stop stop-color="white" stop-opacity="0.05"/>
<stop offset="0.75" stop-color="white" stop-opacity="0.8"/>
</linearGradient>
<linearGradient id="paint10_linear_7006_39290" x1="267" y1="55.582" x2="267" y2="137.582" gradientUnits="userSpaceOnUse">
<stop stop-color="#CDE3E9"/>
<stop offset="1" stop-color="#D3E8ED"/>
</linearGradient>
<linearGradient id="paint11_linear_7006_39290" x1="267" y1="55.5818" x2="267" y2="137.582" gradientUnits="userSpaceOnUse">
<stop stop-color="white" stop-opacity="0"/>
<stop offset="0.739583" stop-color="white"/>
</linearGradient>
<linearGradient id="paint12_linear_7006_39290" x1="256" y1="-104.318" x2="256" y2="137.582" gradientUnits="userSpaceOnUse">
<stop stop-color="white" stop-opacity="0.05"/>
<stop offset="0.75" stop-color="white" stop-opacity="0.8"/>
</linearGradient>
<linearGradient id="paint13_linear_7006_39290" x1="67" y1="169" x2="67" y2="138" gradientUnits="userSpaceOnUse">
<stop stop-color="#6D73F9"/>
<stop offset="1" stop-color="#9BB8F1"/>
</linearGradient>
<linearGradient id="paint14_linear_7006_39290" x1="67" y1="169" x2="67" y2="138" gradientUnits="userSpaceOnUse">
<stop stop-color="white" stop-opacity="0"/>
<stop offset="0.739583" stop-color="white"/>
</linearGradient>
<linearGradient id="paint15_linear_7006_39290" x1="56" y1="229.45" x2="56" y2="138" gradientUnits="userSpaceOnUse">
<stop stop-color="white" stop-opacity="0.05"/>
<stop offset="0.75" stop-color="white" stop-opacity="0.8"/>
</linearGradient>
<linearGradient id="paint16_linear_7006_39290" x1="147" y1="178.582" x2="147" y2="137.582" gradientUnits="userSpaceOnUse">
<stop stop-color="#6D73F9"/>
<stop offset="1" stop-color="#9BB8F1"/>
</linearGradient>
<linearGradient id="paint17_linear_7006_39290" x1="147" y1="178.582" x2="147" y2="137.582" gradientUnits="userSpaceOnUse">
<stop stop-color="white" stop-opacity="0"/>
<stop offset="0.739583" stop-color="white"/>
</linearGradient>
<linearGradient id="paint18_linear_7006_39290" x1="136" y1="258.532" x2="136" y2="137.582" gradientUnits="userSpaceOnUse">
<stop stop-color="white" stop-opacity="0.05"/>
<stop offset="0.75" stop-color="white" stop-opacity="0.8"/>
</linearGradient>
<linearGradient id="paint19_linear_7006_39290" x1="227" y1="173.582" x2="227" y2="137.582" gradientUnits="userSpaceOnUse">
<stop stop-color="#6D73F9"/>
<stop offset="1" stop-color="#9BB8F1"/>
</linearGradient>
<linearGradient id="paint20_linear_7006_39290" x1="227" y1="173.582" x2="227" y2="137.582" gradientUnits="userSpaceOnUse">
<stop stop-color="white" stop-opacity="0"/>
<stop offset="0.739583" stop-color="white"/>
</linearGradient>
<linearGradient id="paint21_linear_7006_39290" x1="216" y1="243.782" x2="216" y2="137.582" gradientUnits="userSpaceOnUse">
<stop stop-color="white" stop-opacity="0.05"/>
<stop offset="0.75" stop-color="white" stop-opacity="0.8"/>
</linearGradient>
<linearGradient id="paint22_linear_7006_39290" x1="307" y1="32.582" x2="307" y2="137.582" gradientUnits="userSpaceOnUse">
<stop stop-color="#6D73F9"/>
<stop offset="1" stop-color="#9BB8F1"/>
</linearGradient>
<linearGradient id="paint23_linear_7006_39290" x1="307" y1="32.5818" x2="307" y2="137.582" gradientUnits="userSpaceOnUse">
<stop stop-color="white" stop-opacity="0"/>
<stop offset="0.739583" stop-color="white"/>
</linearGradient>
<linearGradient id="paint24_linear_7006_39290" x1="296" y1="-172.168" x2="296" y2="137.582" gradientUnits="userSpaceOnUse">
<stop stop-color="white" stop-opacity="0.05"/>
<stop offset="0.75" stop-color="white" stop-opacity="0.8"/>
</linearGradient>
<linearGradient id="paint25_linear_7006_39290" x1="26" y1="379.582" x2="26" y2="475.582" gradientUnits="userSpaceOnUse">
<stop stop-color="#CDE3E9"/>
<stop offset="1" stop-color="#D3E8ED"/>
</linearGradient>
<linearGradient id="paint26_linear_7006_39290" x1="26" y1="379.582" x2="26" y2="475.582" gradientUnits="userSpaceOnUse">
<stop stop-color="white" stop-opacity="0"/>
<stop offset="0.739583" stop-color="white"/>
</linearGradient>
<linearGradient id="paint27_linear_7006_39290" x1="15" y1="192.382" x2="15" y2="475.582" gradientUnits="userSpaceOnUse">
<stop stop-color="white" stop-opacity="0.05"/>
<stop offset="0.75" stop-color="white" stop-opacity="0.8"/>
</linearGradient>
<linearGradient id="paint28_linear_7006_39290" x1="107" y1="372.582" x2="107" y2="475.582" gradientUnits="userSpaceOnUse">
<stop stop-color="#CDE3E9"/>
<stop offset="1" stop-color="#D3E8ED"/>
</linearGradient>
<linearGradient id="paint29_linear_7006_39290" x1="107" y1="372.582" x2="107" y2="475.582" gradientUnits="userSpaceOnUse">
<stop stop-color="white" stop-opacity="0"/>
<stop offset="0.739583" stop-color="white"/>
</linearGradient>
<linearGradient id="paint30_linear_7006_39290" x1="96" y1="171.732" x2="96" y2="475.582" gradientUnits="userSpaceOnUse">
<stop stop-color="white" stop-opacity="0.05"/>
<stop offset="0.75" stop-color="white" stop-opacity="0.8"/>
</linearGradient>
<linearGradient id="paint31_linear_7006_39290" x1="187" y1="367.582" x2="187" y2="475.582" gradientUnits="userSpaceOnUse">
<stop stop-color="#CDE3E9"/>
<stop offset="1" stop-color="#D3E8ED"/>
</linearGradient>
<linearGradient id="paint32_linear_7006_39290" x1="187" y1="367.582" x2="187" y2="475.582" gradientUnits="userSpaceOnUse">
<stop stop-color="white" stop-opacity="0"/>
<stop offset="0.739583" stop-color="white"/>
</linearGradient>
<linearGradient id="paint33_linear_7006_39290" x1="176" y1="156.982" x2="176" y2="475.582" gradientUnits="userSpaceOnUse">
<stop stop-color="white" stop-opacity="0.05"/>
<stop offset="0.75" stop-color="white" stop-opacity="0.8"/>
</linearGradient>
<linearGradient id="paint34_linear_7006_39290" x1="267" y1="365.582" x2="267" y2="475.582" gradientUnits="userSpaceOnUse">
<stop stop-color="#CDE3E9"/>
<stop offset="1" stop-color="#D3E8ED"/>
</linearGradient>
<linearGradient id="paint35_linear_7006_39290" x1="267" y1="365.582" x2="267" y2="475.582" gradientUnits="userSpaceOnUse">
<stop stop-color="white" stop-opacity="0"/>
<stop offset="0.739583" stop-color="white"/>
</linearGradient>
<linearGradient id="paint36_linear_7006_39290" x1="256" y1="151.082" x2="256" y2="475.582" gradientUnits="userSpaceOnUse">
<stop stop-color="white" stop-opacity="0.05"/>
<stop offset="0.75" stop-color="white" stop-opacity="0.8"/>
</linearGradient>
<linearGradient id="paint37_linear_7006_39290" x1="67" y1="340.582" x2="67" y2="475.582" gradientUnits="userSpaceOnUse">
<stop stop-color="#6D73F9"/>
<stop offset="1" stop-color="#9BB8F1"/>
</linearGradient>
<linearGradient id="paint38_linear_7006_39290" x1="67" y1="340.582" x2="67" y2="475.582" gradientUnits="userSpaceOnUse">
<stop stop-color="white" stop-opacity="0"/>
<stop offset="0.739583" stop-color="white"/>
</linearGradient>
<linearGradient id="paint39_linear_7006_39290" x1="56" y1="77.332" x2="56" y2="475.582" gradientUnits="userSpaceOnUse">
<stop stop-color="white" stop-opacity="0.05"/>
<stop offset="0.75" stop-color="white" stop-opacity="0.8"/>
</linearGradient>
<linearGradient id="paint40_linear_7006_39290" x1="147" y1="347.582" x2="147" y2="475.582" gradientUnits="userSpaceOnUse">
<stop stop-color="#6D73F9"/>
<stop offset="1" stop-color="#9BB8F1"/>
</linearGradient>
<linearGradient id="paint41_linear_7006_39290" x1="147" y1="347.582" x2="147" y2="475.582" gradientUnits="userSpaceOnUse">
<stop stop-color="white" stop-opacity="0"/>
<stop offset="0.739583" stop-color="white"/>
</linearGradient>
<linearGradient id="paint42_linear_7006_39290" x1="136" y1="97.982" x2="136" y2="475.582" gradientUnits="userSpaceOnUse">
<stop stop-color="white" stop-opacity="0.05"/>
<stop offset="0.75" stop-color="white" stop-opacity="0.8"/>
</linearGradient>
<linearGradient id="paint43_linear_7006_39290" x1="227" y1="392.582" x2="227" y2="475.582" gradientUnits="userSpaceOnUse">
<stop stop-color="#6D73F9"/>
<stop offset="1" stop-color="#9BB8F1"/>
</linearGradient>
<linearGradient id="paint44_linear_7006_39290" x1="227" y1="392.582" x2="227" y2="475.582" gradientUnits="userSpaceOnUse">
<stop stop-color="white" stop-opacity="0"/>
<stop offset="0.739583" stop-color="white"/>
</linearGradient>
<linearGradient id="paint45_linear_7006_39290" x1="216" y1="230.732" x2="216" y2="475.582" gradientUnits="userSpaceOnUse">
<stop stop-color="white" stop-opacity="0.05"/>
<stop offset="0.75" stop-color="white" stop-opacity="0.8"/>
</linearGradient>
<linearGradient id="paint46_linear_7006_39290" x1="307" y1="363.582" x2="307" y2="475.582" gradientUnits="userSpaceOnUse">
<stop stop-color="#6D73F9"/>
<stop offset="1" stop-color="#9BB8F1"/>
</linearGradient>
<linearGradient id="paint47_linear_7006_39290" x1="307" y1="363.582" x2="307" y2="475.582" gradientUnits="userSpaceOnUse">
<stop stop-color="white" stop-opacity="0"/>
<stop offset="0.739583" stop-color="white"/>
</linearGradient>
<linearGradient id="paint48_linear_7006_39290" x1="296" y1="145.182" x2="296" y2="475.582" gradientUnits="userSpaceOnUse">
<stop stop-color="white" stop-opacity="0.05"/>
<stop offset="0.75" stop-color="white" stop-opacity="0.8"/>
</linearGradient>
<linearGradient id="paint49_linear_7006_39290" x1="27" y1="577.582" x2="27" y2="699.582" gradientUnits="userSpaceOnUse">
<stop stop-color="#CDE3E9"/>
<stop offset="1" stop-color="#D3E8ED"/>
</linearGradient>
<linearGradient id="paint50_linear_7006_39290" x1="27" y1="577.582" x2="27" y2="699.582" gradientUnits="userSpaceOnUse">
<stop stop-color="white" stop-opacity="0"/>
<stop offset="0.739583" stop-color="white"/>
</linearGradient>
<linearGradient id="paint51_linear_7006_39290" x1="16" y1="339.682" x2="16" y2="699.582" gradientUnits="userSpaceOnUse">
<stop stop-color="white" stop-opacity="0.05"/>
<stop offset="0.75" stop-color="white" stop-opacity="0.8"/>
</linearGradient>
<linearGradient id="paint52_linear_7006_39290" x1="107" y1="572.582" x2="107" y2="699.582" gradientUnits="userSpaceOnUse">
<stop stop-color="#CDE3E9"/>
<stop offset="1" stop-color="#D3E8ED"/>
</linearGradient>
<linearGradient id="paint53_linear_7006_39290" x1="107" y1="572.582" x2="107" y2="699.582" gradientUnits="userSpaceOnUse">
<stop stop-color="white" stop-opacity="0"/>
<stop offset="0.739583" stop-color="white"/>
</linearGradient>
<linearGradient id="paint54_linear_7006_39290" x1="96" y1="324.932" x2="96" y2="699.582" gradientUnits="userSpaceOnUse">
<stop stop-color="white" stop-opacity="0.05"/>
<stop offset="0.75" stop-color="white" stop-opacity="0.8"/>
</linearGradient>
<linearGradient id="paint55_linear_7006_39290" x1="187" y1="594.582" x2="187" y2="699.582" gradientUnits="userSpaceOnUse">
<stop stop-color="#CDE3E9"/>
<stop offset="1" stop-color="#D3E8ED"/>
</linearGradient>
<linearGradient id="paint56_linear_7006_39290" x1="187" y1="594.582" x2="187" y2="699.582" gradientUnits="userSpaceOnUse">
<stop stop-color="white" stop-opacity="0"/>
<stop offset="0.739583" stop-color="white"/>
</linearGradient>
<linearGradient id="paint57_linear_7006_39290" x1="176" y1="389.832" x2="176" y2="699.582" gradientUnits="userSpaceOnUse">
<stop stop-color="white" stop-opacity="0.05"/>
<stop offset="0.75" stop-color="white" stop-opacity="0.8"/>
</linearGradient>
<linearGradient id="paint58_linear_7006_39290" x1="267" y1="597.582" x2="267" y2="699.582" gradientUnits="userSpaceOnUse">
<stop stop-color="#CDE3E9"/>
<stop offset="1" stop-color="#D3E8ED"/>
</linearGradient>
<linearGradient id="paint59_linear_7006_39290" x1="267" y1="597.582" x2="267" y2="699.582" gradientUnits="userSpaceOnUse">
<stop stop-color="white" stop-opacity="0"/>
<stop offset="0.739583" stop-color="white"/>
</linearGradient>
<linearGradient id="paint60_linear_7006_39290" x1="256" y1="398.682" x2="256" y2="699.582" gradientUnits="userSpaceOnUse">
<stop stop-color="white" stop-opacity="0.05"/>
<stop offset="0.75" stop-color="white" stop-opacity="0.8"/>
</linearGradient>
<linearGradient id="paint61_linear_7006_39290" x1="67" y1="577.582" x2="67" y2="699.582" gradientUnits="userSpaceOnUse">
<stop stop-color="#6D73F9"/>
<stop offset="1" stop-color="#9BB8F1"/>
</linearGradient>
<linearGradient id="paint62_linear_7006_39290" x1="67" y1="577.582" x2="67" y2="699.582" gradientUnits="userSpaceOnUse">
<stop stop-color="white" stop-opacity="0"/>
<stop offset="0.739583" stop-color="white"/>
</linearGradient>
<linearGradient id="paint63_linear_7006_39290" x1="56" y1="339.682" x2="56" y2="699.582" gradientUnits="userSpaceOnUse">
<stop stop-color="white" stop-opacity="0.05"/>
<stop offset="0.75" stop-color="white" stop-opacity="0.8"/>
</linearGradient>
<linearGradient id="paint64_linear_7006_39290" x1="147" y1="545.582" x2="147" y2="699.582" gradientUnits="userSpaceOnUse">
<stop stop-color="#6D73F9"/>
<stop offset="1" stop-color="#9BB8F1"/>
</linearGradient>
<linearGradient id="paint65_linear_7006_39290" x1="147" y1="545.582" x2="147" y2="699.582" gradientUnits="userSpaceOnUse">
<stop stop-color="white" stop-opacity="0"/>
<stop offset="0.739583" stop-color="white"/>
</linearGradient>
<linearGradient id="paint66_linear_7006_39290" x1="136" y1="245.282" x2="136" y2="699.582" gradientUnits="userSpaceOnUse">
<stop stop-color="white" stop-opacity="0.05"/>
<stop offset="0.75" stop-color="white" stop-opacity="0.8"/>
</linearGradient>
<linearGradient id="paint67_linear_7006_39290" x1="227" y1="565.582" x2="227" y2="699.582" gradientUnits="userSpaceOnUse">
<stop stop-color="#6D73F9"/>
<stop offset="1" stop-color="#9BB8F1"/>
</linearGradient>
<linearGradient id="paint68_linear_7006_39290" x1="227" y1="565.582" x2="227" y2="699.582" gradientUnits="userSpaceOnUse">
<stop stop-color="white" stop-opacity="0"/>
<stop offset="0.739583" stop-color="white"/>
</linearGradient>
<linearGradient id="paint69_linear_7006_39290" x1="216" y1="304.282" x2="216" y2="699.582" gradientUnits="userSpaceOnUse">
<stop stop-color="white" stop-opacity="0.05"/>
<stop offset="0.75" stop-color="white" stop-opacity="0.8"/>
</linearGradient>
<linearGradient id="paint70_linear_7006_39290" x1="307" y1="582.582" x2="307" y2="699.582" gradientUnits="userSpaceOnUse">
<stop stop-color="#6D73F9"/>
<stop offset="1" stop-color="#9BB8F1"/>
</linearGradient>
<linearGradient id="paint71_linear_7006_39290" x1="307" y1="582.582" x2="307" y2="699.582" gradientUnits="userSpaceOnUse">
<stop stop-color="white" stop-opacity="0"/>
<stop offset="0.739583" stop-color="white"/>
</linearGradient>
<linearGradient id="paint72_linear_7006_39290" x1="296" y1="354.432" x2="296" y2="699.582" gradientUnits="userSpaceOnUse">
<stop stop-color="white" stop-opacity="0.05"/>
<stop offset="0.75" stop-color="white" stop-opacity="0.8"/>
</linearGradient>
</defs>
</svg>
