<svg width="1120" height="269" viewBox="0 0 1120 269" fill="none" xmlns="http://www.w3.org/2000/svg">
<path d="M127.67 53.1616C92.0761 53.1616 63.4003 77.3107 31 77.3107V235H1088V27C1067.29 27 1017.35 47.1243 987.073 47.1243H890.453C866.551 47.1243 820.823 31.528 794.796 31.528C768.77 31.528 726.359 60.2049 698.658 69.2609C670.957 78.3169 634.838 84.8572 604.562 86.8696C574.286 88.882 539.719 79.3231 509.119 75.2982C478.52 71.2733 444.83 54.1678 412.639 54.1678C380.449 54.1678 355.128 75.2982 317.822 75.2982C280.887 75.2982 256.865 59.0116 222.791 59.0116C198.93 59.0116 166.082 53.1616 127.67 53.1616Z" fill="url(#paint0_linear_6002_39827)" fill-opacity="0.3"/>
<path d="M31 77.1897C63.4003 77.1897 92.0761 53.0987 127.67 53.0987C166.082 53.0987 198.93 58.9347 222.791 58.9347C256.865 58.9347 280.887 75.1821 317.822 75.1821C355.128 75.1821 380.449 54.1025 412.639 54.1025C444.83 54.1025 478.52 71.1669 509.119 75.1821C539.719 79.1974 574.286 88.7333 604.562 86.7257C634.838 84.7181 670.957 78.1935 698.658 69.1593C726.359 60.1251 768.77 31.5171 794.796 31.5171C820.823 31.5171 866.551 47.0759 890.453 47.0759C914.355 47.0759 956.797 47.0759 987.073 47.0759C1017.35 47.0759 1067.29 27 1088 27" stroke="#737AF9" stroke-width="5"/>
<line x1="-4.37114e-08" y1="234.5" x2="1120" y2="234.5" stroke="#ABBEC9"/>
<path d="M24.6307 246.8C24.6307 245.504 24.9307 244.46 25.5427 243.68C26.1427 242.9 27.0307 242.504 28.1947 242.504C30.5827 242.504 31.7707 244.076 31.7707 246.8C31.7707 248.108 31.4707 249.14 30.8827 249.92C30.2827 250.7 29.3947 251.096 28.2187 251.096C27.0907 251.096 26.2147 250.7 25.5787 249.908C24.9427 249.116 24.6307 248.084 24.6307 246.8ZM25.7347 246.8C25.7347 248.852 26.6707 250.076 28.2187 250.076C29.8507 250.076 30.6667 248.984 30.6667 246.8C30.6667 244.616 29.8387 243.524 28.1947 243.524C26.5267 243.524 25.7347 244.724 25.7347 246.8ZM32.5709 244.832L32.1869 243.932L35.0669 242.552H35.7509V251H34.7189V243.836L32.5709 244.832ZM17.0271 259.372L16.1511 259.06C16.4511 257.572 17.5791 256.504 19.3671 256.504C21.0951 256.504 22.1511 257.5 22.1511 259.024C22.1511 259.828 21.8031 260.632 21.3711 261.208C21.1551 261.508 20.8791 261.796 20.5551 262.096C19.8951 262.684 19.4271 262.996 18.7431 263.428L17.8191 264.004H22.4631V265H15.9231V264.184L17.7471 262.972C18.0711 262.768 18.2991 262.612 18.4311 262.516C18.5631 262.432 18.7791 262.276 19.0671 262.072C19.3551 261.868 19.5711 261.688 19.7151 261.556C19.8471 261.424 20.0271 261.256 20.2311 261.04C20.7831 260.44 20.9871 259.888 21.0471 259.132C21.0471 258.04 20.3391 257.548 19.2951 257.548C18.6471 257.548 18.1311 257.728 17.7591 258.088C17.3871 258.448 17.1351 258.88 17.0271 259.372ZM23.2948 260.8C23.2948 259.504 23.5948 258.46 24.2068 257.68C24.8068 256.9 25.6948 256.504 26.8588 256.504C29.2468 256.504 30.4348 258.076 30.4348 260.8C30.4348 262.108 30.1348 263.14 29.5468 263.92C28.9468 264.7 28.0588 265.096 26.8828 265.096C25.7548 265.096 24.8788 264.7 24.2428 263.908C23.6068 263.116 23.2948 262.084 23.2948 260.8ZM24.3988 260.8C24.3988 262.852 25.3348 264.076 26.8828 264.076C28.5148 264.076 29.3308 262.984 29.3308 260.8C29.3308 258.616 28.5028 257.524 26.8588 257.524C25.1908 257.524 24.3988 258.724 24.3988 260.8ZM32.291 259.372L31.415 259.06C31.715 257.572 32.843 256.504 34.631 256.504C36.359 256.504 37.415 257.5 37.415 259.024C37.415 259.828 37.067 260.632 36.635 261.208C36.419 261.508 36.143 261.796 35.819 262.096C35.159 262.684 34.691 262.996 34.007 263.428L33.083 264.004H37.727V265H31.187V264.184L33.011 262.972C33.335 262.768 33.563 262.612 33.695 262.516C33.827 262.432 34.043 262.276 34.331 262.072C34.619 261.868 34.835 261.688 34.979 261.556C35.111 261.424 35.291 261.256 35.495 261.04C36.047 260.44 36.251 259.888 36.311 259.132C36.311 258.04 35.603 257.548 34.559 257.548C33.911 257.548 33.395 257.728 33.023 258.088C32.651 258.448 32.399 258.88 32.291 259.372ZM39.3867 259.048L38.4867 258.64C38.9307 257.344 40.0947 256.492 41.8347 256.492C42.6627 256.492 43.3467 256.684 43.8747 257.068C44.4027 257.452 44.6667 257.968 44.6667 258.604C44.6667 259.576 44.1507 260.296 43.1907 260.572C44.1147 260.632 44.8587 261.328 44.8587 262.576C44.8587 263.368 44.5707 263.992 43.9947 264.436C43.4187 264.88 42.6867 265.108 41.7867 265.108C39.9507 265.108 38.6787 264.232 38.2587 262.852L39.2307 262.432C39.7467 263.524 40.6227 264.076 41.8587 264.076C43.0227 264.076 43.7547 263.536 43.7547 262.588C43.7547 261.664 43.0347 261.196 41.5947 261.196H40.6587V260.2H41.4027C42.7107 260.2 43.5627 259.612 43.5627 258.808C43.5627 257.98 42.8787 257.512 41.7867 257.512C40.5027 257.512 39.7227 258.172 39.3867 259.048Z" fill="#76848D"/>
<path d="M504.508 246.8C504.508 245.504 504.808 244.46 505.42 243.68C506.02 242.9 506.908 242.504 508.072 242.504C510.46 242.504 511.648 244.076 511.648 246.8C511.648 248.108 511.348 249.14 510.76 249.92C510.16 250.7 509.272 251.096 508.096 251.096C506.968 251.096 506.092 250.7 505.456 249.908C504.82 249.116 504.508 248.084 504.508 246.8ZM505.612 246.8C505.612 248.852 506.548 250.076 508.096 250.076C509.728 250.076 510.544 248.984 510.544 246.8C510.544 244.616 509.716 243.524 508.072 243.524C506.404 243.524 505.612 244.724 505.612 246.8ZM512.544 247.028C512.544 245.576 512.904 244.46 513.612 243.668C514.32 242.888 515.208 242.492 516.276 242.492C517.68 242.492 518.784 243.128 519.252 244.136L518.436 244.688C517.944 243.908 517.212 243.524 516.228 243.524C515.484 243.524 514.86 243.812 514.356 244.388C513.852 244.976 513.6 245.768 513.612 246.788C514.08 245.912 515.172 245.384 516.372 245.384C517.344 245.384 518.124 245.636 518.688 246.152C519.252 246.668 519.54 247.352 519.54 248.192C519.54 249.044 519.228 249.752 518.592 250.292C517.956 250.832 517.164 251.108 516.216 251.108C513.948 251.108 512.544 249.632 512.544 247.028ZM513.744 248.048C513.972 249.236 514.872 250.076 516.204 250.076C516.852 250.076 517.392 249.908 517.812 249.56C518.232 249.224 518.436 248.78 518.436 248.24C518.436 247.052 517.596 246.416 516.312 246.416C515.604 246.416 515.016 246.584 514.56 246.92C514.092 247.256 513.828 247.628 513.744 248.048Z" fill="#76848D"/>
<path d="M119.324 246.8C119.324 245.504 119.624 244.46 120.236 243.68C120.836 242.9 121.724 242.504 122.888 242.504C125.276 242.504 126.464 244.076 126.464 246.8C126.464 248.108 126.164 249.14 125.576 249.92C124.976 250.7 124.088 251.096 122.912 251.096C121.784 251.096 120.908 250.7 120.272 249.908C119.636 249.116 119.324 248.084 119.324 246.8ZM120.428 246.8C120.428 248.852 121.364 250.076 122.912 250.076C124.544 250.076 125.36 248.984 125.36 246.8C125.36 244.616 124.532 243.524 122.888 243.524C121.22 243.524 120.428 244.724 120.428 246.8ZM128.32 245.372L127.444 245.06C127.744 243.572 128.872 242.504 130.66 242.504C132.388 242.504 133.444 243.5 133.444 245.024C133.444 245.828 133.096 246.632 132.664 247.208C132.448 247.508 132.172 247.796 131.848 248.096C131.188 248.684 130.72 248.996 130.036 249.428L129.112 250.004H133.756V251H127.216V250.184L129.04 248.972C129.364 248.768 129.592 248.612 129.724 248.516C129.856 248.432 130.072 248.276 130.36 248.072C130.648 247.868 130.864 247.688 131.008 247.556C131.14 247.424 131.32 247.256 131.524 247.04C132.076 246.44 132.28 245.888 132.34 245.132C132.34 244.04 131.632 243.548 130.588 243.548C129.94 243.548 129.424 243.728 129.052 244.088C128.68 244.448 128.428 244.88 128.32 245.372Z" fill="#76848D"/>
<path d="M601.07 246.8C601.07 245.504 601.37 244.46 601.982 243.68C602.582 242.9 603.47 242.504 604.634 242.504C607.022 242.504 608.21 244.076 608.21 246.8C608.21 248.108 607.91 249.14 607.322 249.92C606.722 250.7 605.834 251.096 604.658 251.096C603.53 251.096 602.654 250.7 602.018 249.908C601.382 249.116 601.07 248.084 601.07 246.8ZM602.174 246.8C602.174 248.852 603.11 250.076 604.658 250.076C606.29 250.076 607.106 248.984 607.106 246.8C607.106 244.616 606.278 243.524 604.634 243.524C602.966 243.524 602.174 244.724 602.174 246.8ZM613.918 243.62H608.83V242.6H615.202V243.284L611.026 251H609.886L613.918 243.62Z" fill="#76848D"/>
<path d="M215.795 246.8C215.795 245.504 216.095 244.46 216.707 243.68C217.307 242.9 218.195 242.504 219.359 242.504C221.747 242.504 222.935 244.076 222.935 246.8C222.935 248.108 222.635 249.14 222.047 249.92C221.447 250.7 220.559 251.096 219.383 251.096C218.255 251.096 217.379 250.7 216.743 249.908C216.107 249.116 215.795 248.084 215.795 246.8ZM216.899 246.8C216.899 248.852 217.835 250.076 219.383 250.076C221.015 250.076 221.831 248.984 221.831 246.8C221.831 244.616 221.003 243.524 219.359 243.524C217.691 243.524 216.899 244.724 216.899 246.8ZM224.659 245.048L223.759 244.64C224.203 243.344 225.367 242.492 227.107 242.492C227.935 242.492 228.619 242.684 229.147 243.068C229.675 243.452 229.939 243.968 229.939 244.604C229.939 245.576 229.423 246.296 228.463 246.572C229.387 246.632 230.131 247.328 230.131 248.576C230.131 249.368 229.843 249.992 229.267 250.436C228.691 250.88 227.959 251.108 227.059 251.108C225.223 251.108 223.951 250.232 223.531 248.852L224.503 248.432C225.019 249.524 225.895 250.076 227.131 250.076C228.295 250.076 229.027 249.536 229.027 248.588C229.027 247.664 228.307 247.196 226.867 247.196H225.931V246.2H226.675C227.983 246.2 228.835 245.612 228.835 244.808C228.835 243.98 228.151 243.512 227.059 243.512C225.775 243.512 224.995 244.172 224.659 245.048Z" fill="#76848D"/>
<path d="M696.496 246.8C696.496 245.504 696.796 244.46 697.408 243.68C698.008 242.9 698.896 242.504 700.06 242.504C702.448 242.504 703.636 244.076 703.636 246.8C703.636 248.108 703.336 249.14 702.748 249.92C702.148 250.7 701.26 251.096 700.084 251.096C698.956 251.096 698.08 250.7 697.444 249.908C696.808 249.116 696.496 248.084 696.496 246.8ZM697.6 246.8C697.6 248.852 698.536 250.076 700.084 250.076C701.716 250.076 702.532 248.984 702.532 246.8C702.532 244.616 701.704 243.524 700.06 243.524C698.392 243.524 697.6 244.724 697.6 246.8ZM707.844 246.212H708.216C708.756 246.212 709.2 246.08 709.572 245.828C709.932 245.576 710.112 245.24 710.112 244.844C710.112 243.944 709.404 243.488 708 243.488C706.656 243.488 705.924 243.98 705.924 244.844C705.924 245.624 706.728 246.212 707.844 246.212ZM708.192 247.16H707.892C707.244 247.16 706.704 247.304 706.284 247.58C705.864 247.856 705.648 248.204 705.648 248.624C705.648 249.536 706.488 250.112 708.012 250.112C709.56 250.112 710.388 249.56 710.388 248.636C710.388 247.712 709.5 247.16 708.192 247.16ZM710.556 250.46C709.944 250.892 709.092 251.108 708.024 251.108C706.956 251.108 706.104 250.892 705.48 250.472C704.856 250.052 704.544 249.476 704.544 248.732C704.544 247.76 705.18 246.992 706.2 246.656C705.276 246.356 704.82 245.624 704.82 244.772C704.82 243.38 705.996 242.492 708.012 242.492C710.04 242.492 711.216 243.38 711.216 244.772C711.216 245.576 710.772 246.188 709.884 246.596C710.952 246.92 711.48 247.616 711.48 248.684C711.48 249.44 711.168 250.04 710.556 250.46Z" fill="#76848D"/>
<path d="M311.467 246.8C311.467 245.504 311.767 244.46 312.379 243.68C312.979 242.9 313.867 242.504 315.031 242.504C317.419 242.504 318.607 244.076 318.607 246.8C318.607 248.108 318.307 249.14 317.719 249.92C317.119 250.7 316.231 251.096 315.055 251.096C313.927 251.096 313.051 250.7 312.415 249.908C311.779 249.116 311.467 248.084 311.467 246.8ZM312.571 246.8C312.571 248.852 313.507 250.076 315.055 250.076C316.687 250.076 317.503 248.984 317.503 246.8C317.503 244.616 316.675 243.524 315.031 243.524C313.363 243.524 312.571 244.724 312.571 246.8ZM325.299 251H324.255V249.284H319.119V248.588L324.375 242.6H325.299V248.312H326.859V249.284H325.299V251ZM324.255 244.28L320.559 248.312H324.255V244.28Z" fill="#76848D"/>
<path d="M792.996 246.8C792.996 245.504 793.296 244.46 793.908 243.68C794.508 242.9 795.396 242.504 796.56 242.504C798.948 242.504 800.136 244.076 800.136 246.8C800.136 248.108 799.836 249.14 799.248 249.92C798.648 250.7 797.76 251.096 796.584 251.096C795.456 251.096 794.58 250.7 793.944 249.908C793.308 249.116 792.996 248.084 792.996 246.8ZM794.1 246.8C794.1 248.852 795.036 250.076 796.584 250.076C798.216 250.076 799.032 248.984 799.032 246.8C799.032 244.616 798.204 243.524 796.56 243.524C794.892 243.524 794.1 244.724 794.1 246.8ZM808.016 246.644C808.016 248.072 807.68 249.176 806.996 249.944C806.312 250.724 805.4 251.108 804.26 251.108C802.868 251.108 801.776 250.52 801.236 249.62L802.1 249.02C802.58 249.692 803.456 250.076 804.404 250.076C805.184 250.076 805.808 249.764 806.3 249.14C806.792 248.528 806.996 247.76 806.936 246.848C806.54 247.76 805.544 248.432 804.212 248.432C803.276 248.432 802.508 248.168 801.908 247.628C801.296 247.1 800.996 246.404 800.996 245.552C800.996 244.616 801.32 243.872 801.968 243.32C802.616 242.768 803.48 242.492 804.548 242.492C806.708 242.492 808.016 244.004 808.016 246.644ZM806.756 245.516C806.576 244.4 805.808 243.524 804.428 243.524C802.988 243.524 802.1 244.268 802.1 245.516C802.1 246.704 803 247.4 804.404 247.4C805.04 247.4 805.58 247.208 806 246.824C806.42 246.44 806.672 246.008 806.756 245.516Z" fill="#76848D"/>
<path d="M408.224 246.8C408.224 245.504 408.524 244.46 409.136 243.68C409.736 242.9 410.624 242.504 411.788 242.504C414.176 242.504 415.364 244.076 415.364 246.8C415.364 248.108 415.064 249.14 414.476 249.92C413.876 250.7 412.988 251.096 411.812 251.096C410.684 251.096 409.808 250.7 409.172 249.908C408.536 249.116 408.224 248.084 408.224 246.8ZM409.328 246.8C409.328 248.852 410.264 250.076 411.812 250.076C413.444 250.076 414.26 248.984 414.26 246.8C414.26 244.616 413.432 243.524 411.788 243.524C410.12 243.524 409.328 244.724 409.328 246.8ZM417.485 247.136L416.621 246.908L417.113 242.6H422.393V243.62H418.037L417.725 245.876C418.145 245.564 418.781 245.408 419.633 245.408C420.617 245.408 421.385 245.672 421.949 246.188C422.501 246.716 422.777 247.388 422.777 248.216C422.777 249.044 422.465 249.74 421.853 250.28C421.229 250.832 420.449 251.108 419.525 251.108C417.953 251.108 416.645 250.364 416.105 249.056L417.065 248.648C417.413 249.452 418.313 250.088 419.525 250.088C420.905 250.088 421.673 249.296 421.673 248.252C421.673 247.136 420.773 246.416 419.345 246.416C418.577 246.416 417.953 246.656 417.485 247.136Z" fill="#76848D"/>
<path d="M891.035 244.832L890.651 243.932L893.531 242.552H894.215V251H893.183V243.836L891.035 244.832ZM895.745 246.8C895.745 245.504 896.045 244.46 896.657 243.68C897.257 242.9 898.145 242.504 899.309 242.504C901.697 242.504 902.885 244.076 902.885 246.8C902.885 248.108 902.585 249.14 901.997 249.92C901.397 250.7 900.509 251.096 899.333 251.096C898.205 251.096 897.329 250.7 896.693 249.908C896.057 249.116 895.745 248.084 895.745 246.8ZM896.849 246.8C896.849 248.852 897.785 250.076 899.333 250.076C900.965 250.076 901.781 248.984 901.781 246.8C901.781 244.616 900.953 243.524 899.309 243.524C897.641 243.524 896.849 244.724 896.849 246.8Z" fill="#76848D"/>
<path d="M988.746 244.832L988.362 243.932L991.242 242.552H991.926V251H990.894V243.836L988.746 244.832ZM993.36 244.832L992.976 243.932L995.856 242.552H996.54V251H995.508V243.836L993.36 244.832Z" fill="#76848D"/>
<path d="M1083.44 244.832L1083.05 243.932L1085.93 242.552H1086.62V251H1085.59V243.836L1083.44 244.832ZM1089.11 245.372L1088.23 245.06C1088.53 243.572 1089.66 242.504 1091.45 242.504C1093.18 242.504 1094.23 243.5 1094.23 245.024C1094.23 245.828 1093.89 246.632 1093.45 247.208C1093.24 247.508 1092.96 247.796 1092.64 248.096C1091.98 248.684 1091.51 248.996 1090.83 249.428L1089.9 250.004H1094.55V251H1088.01V250.184L1089.83 248.972C1090.15 248.768 1090.38 248.612 1090.51 248.516C1090.65 248.432 1090.86 248.276 1091.15 248.072C1091.44 247.868 1091.65 247.688 1091.8 247.556C1091.93 247.424 1092.11 247.256 1092.31 247.04C1092.87 246.44 1093.07 245.888 1093.13 245.132C1093.13 244.04 1092.42 243.548 1091.38 243.548C1090.73 243.548 1090.21 243.728 1089.84 244.088C1089.47 244.448 1089.22 244.88 1089.11 245.372Z" fill="#76848D"/>
<line x1="28" y1="234.5" x2="976" y2="234.5" stroke="#ABBEC9"/>
<circle cx="32" cy="77" r="7" fill="#6D73F9" stroke="white" stroke-width="2"/>
<path d="M17.8445 56.492L16.8365 56.226L17.4105 51.2H23.5705V52.39H18.4885L18.1245 55.022C18.6145 54.658 19.3565 54.476 20.3505 54.476C21.4985 54.476 22.3945 54.784 23.0525 55.386C23.6965 56.002 24.0185 56.786 24.0185 57.752C24.0185 58.718 23.6545 59.53 22.9405 60.16C22.2125 60.804 21.3025 61.126 20.2245 61.126C18.3905 61.126 16.8645 60.258 16.2345 58.732L17.3545 58.256C17.7605 59.194 18.8105 59.936 20.2245 59.936C21.8345 59.936 22.7305 59.012 22.7305 57.794C22.7305 56.492 21.6805 55.652 20.0145 55.652C19.1185 55.652 18.3905 55.932 17.8445 56.492ZM26.2012 54.434L25.1792 54.07C25.5292 52.334 26.8452 51.088 28.9312 51.088C30.9472 51.088 32.1792 52.25 32.1792 54.028C32.1792 54.966 31.7732 55.904 31.2692 56.576C31.0172 56.926 30.6952 57.262 30.3172 57.612C29.5472 58.298 29.0012 58.662 28.2032 59.166L27.1252 59.838H32.5432V61H24.9132V60.048L27.0412 58.634C27.4192 58.396 27.6852 58.214 27.8392 58.102C27.9932 58.004 28.2452 57.822 28.5812 57.584C28.9172 57.346 29.1692 57.136 29.3372 56.982C29.4912 56.828 29.7012 56.632 29.9392 56.38C30.5832 55.68 30.8212 55.036 30.8912 54.154C30.8912 52.88 30.0652 52.306 28.8472 52.306C28.0912 52.306 27.4892 52.516 27.0552 52.936C26.6212 53.356 26.3272 53.86 26.2012 54.434ZM33.6114 60.202C33.6114 59.81 33.9754 59.418 34.4794 59.418C34.9414 59.418 35.3194 59.81 35.3194 60.202C35.3194 60.65 34.9694 61.028 34.4794 61.028C33.9754 61.028 33.6114 60.65 33.6114 60.202ZM36.477 56.366C36.477 54.672 36.897 53.37 37.723 52.446C38.549 51.536 39.585 51.074 40.831 51.074C42.469 51.074 43.757 51.816 44.303 52.992L43.351 53.636C42.777 52.726 41.923 52.278 40.775 52.278C39.907 52.278 39.179 52.614 38.591 53.286C38.003 53.972 37.709 54.896 37.723 56.086C38.269 55.064 39.543 54.448 40.943 54.448C42.077 54.448 42.987 54.742 43.645 55.344C44.303 55.946 44.639 56.744 44.639 57.724C44.639 58.718 44.275 59.544 43.533 60.174C42.791 60.804 41.867 61.126 40.761 61.126C38.115 61.126 36.477 59.404 36.477 56.366ZM37.877 57.556C38.143 58.942 39.193 59.922 40.747 59.922C41.503 59.922 42.133 59.726 42.623 59.32C43.113 58.928 43.351 58.41 43.351 57.78C43.351 56.394 42.371 55.652 40.873 55.652C40.047 55.652 39.361 55.848 38.829 56.24C38.283 56.632 37.975 57.066 37.877 57.556Z" fill="#2A3C3C"/>
<path d="M17.8445 56.492L16.8365 56.226L17.4105 51.2H23.5705V52.39H18.4885L18.1245 55.022C18.6145 54.658 19.3565 54.476 20.3505 54.476C21.4985 54.476 22.3945 54.784 23.0525 55.386C23.6965 56.002 24.0185 56.786 24.0185 57.752C24.0185 58.718 23.6545 59.53 22.9405 60.16C22.2125 60.804 21.3025 61.126 20.2245 61.126C18.3905 61.126 16.8645 60.258 16.2345 58.732L17.3545 58.256C17.7605 59.194 18.8105 59.936 20.2245 59.936C21.8345 59.936 22.7305 59.012 22.7305 57.794C22.7305 56.492 21.6805 55.652 20.0145 55.652C19.1185 55.652 18.3905 55.932 17.8445 56.492ZM26.2012 54.434L25.1792 54.07C25.5292 52.334 26.8452 51.088 28.9312 51.088C30.9472 51.088 32.1792 52.25 32.1792 54.028C32.1792 54.966 31.7732 55.904 31.2692 56.576C31.0172 56.926 30.6952 57.262 30.3172 57.612C29.5472 58.298 29.0012 58.662 28.2032 59.166L27.1252 59.838H32.5432V61H24.9132V60.048L27.0412 58.634C27.4192 58.396 27.6852 58.214 27.8392 58.102C27.9932 58.004 28.2452 57.822 28.5812 57.584C28.9172 57.346 29.1692 57.136 29.3372 56.982C29.4912 56.828 29.7012 56.632 29.9392 56.38C30.5832 55.68 30.8212 55.036 30.8912 54.154C30.8912 52.88 30.0652 52.306 28.8472 52.306C28.0912 52.306 27.4892 52.516 27.0552 52.936C26.6212 53.356 26.3272 53.86 26.2012 54.434ZM33.6114 60.202C33.6114 59.81 33.9754 59.418 34.4794 59.418C34.9414 59.418 35.3194 59.81 35.3194 60.202C35.3194 60.65 34.9694 61.028 34.4794 61.028C33.9754 61.028 33.6114 60.65 33.6114 60.202ZM36.477 56.366C36.477 54.672 36.897 53.37 37.723 52.446C38.549 51.536 39.585 51.074 40.831 51.074C42.469 51.074 43.757 51.816 44.303 52.992L43.351 53.636C42.777 52.726 41.923 52.278 40.775 52.278C39.907 52.278 39.179 52.614 38.591 53.286C38.003 53.972 37.709 54.896 37.723 56.086C38.269 55.064 39.543 54.448 40.943 54.448C42.077 54.448 42.987 54.742 43.645 55.344C44.303 55.946 44.639 56.744 44.639 57.724C44.639 58.718 44.275 59.544 43.533 60.174C42.791 60.804 41.867 61.126 40.761 61.126C38.115 61.126 36.477 59.404 36.477 56.366ZM37.877 57.556C38.143 58.942 39.193 59.922 40.747 59.922C41.503 59.922 42.133 59.726 42.623 59.32C43.113 58.928 43.351 58.41 43.351 57.78C43.351 56.394 42.371 55.652 40.873 55.652C40.047 55.652 39.361 55.848 38.829 56.24C38.283 56.632 37.975 57.066 37.877 57.556Z" fill="#1A3341"/>
<circle cx="128" cy="52" r="7" fill="#6D73F9" stroke="white" stroke-width="2"/>
<path d="M113.81 31.492L112.802 31.226L113.376 26.2H119.536V27.39H114.454L114.09 30.022C114.58 29.658 115.322 29.476 116.316 29.476C117.464 29.476 118.36 29.784 119.018 30.386C119.662 31.002 119.984 31.786 119.984 32.752C119.984 33.718 119.62 34.53 118.906 35.16C118.178 35.804 117.268 36.126 116.19 36.126C114.356 36.126 112.83 35.258 112.2 33.732L113.32 33.256C113.726 34.194 114.776 34.936 116.19 34.936C117.8 34.936 118.696 34.012 118.696 32.794C118.696 31.492 117.646 30.652 115.98 30.652C115.084 30.652 114.356 30.932 113.81 31.492ZM122.013 29.056L120.963 28.58C121.481 27.068 122.839 26.074 124.869 26.074C125.835 26.074 126.633 26.298 127.249 26.746C127.865 27.194 128.173 27.796 128.173 28.538C128.173 29.672 127.571 30.512 126.451 30.834C127.529 30.904 128.397 31.716 128.397 33.172C128.397 34.096 128.061 34.824 127.389 35.342C126.717 35.86 125.863 36.126 124.813 36.126C122.671 36.126 121.187 35.104 120.697 33.494L121.831 33.004C122.433 34.278 123.455 34.922 124.897 34.922C126.255 34.922 127.109 34.292 127.109 33.186C127.109 32.108 126.269 31.562 124.589 31.562H123.497V30.4H124.365C125.891 30.4 126.885 29.714 126.885 28.776C126.885 27.81 126.087 27.264 124.813 27.264C123.315 27.264 122.405 28.034 122.013 29.056ZM129.646 35.202C129.646 34.81 130.01 34.418 130.514 34.418C130.976 34.418 131.354 34.81 131.354 35.202C131.354 35.65 131.004 36.028 130.514 36.028C130.01 36.028 129.646 35.65 129.646 35.202ZM132.511 31.366C132.511 29.672 132.931 28.37 133.757 27.446C134.583 26.536 135.619 26.074 136.865 26.074C138.503 26.074 139.791 26.816 140.337 27.992L139.385 28.636C138.811 27.726 137.957 27.278 136.809 27.278C135.941 27.278 135.213 27.614 134.625 28.286C134.037 28.972 133.743 29.896 133.757 31.086C134.303 30.064 135.577 29.448 136.977 29.448C138.111 29.448 139.021 29.742 139.679 30.344C140.337 30.946 140.673 31.744 140.673 32.724C140.673 33.718 140.309 34.544 139.567 35.174C138.825 35.804 137.901 36.126 136.795 36.126C134.149 36.126 132.511 34.404 132.511 31.366ZM133.911 32.556C134.177 33.942 135.227 34.922 136.781 34.922C137.537 34.922 138.167 34.726 138.657 34.32C139.147 33.928 139.385 33.41 139.385 32.78C139.385 31.394 138.405 30.652 136.907 30.652C136.081 30.652 135.395 30.848 134.863 31.24C134.317 31.632 134.009 32.066 133.911 32.556Z" fill="#2A3C3C"/>
<path d="M113.81 31.492L112.802 31.226L113.376 26.2H119.536V27.39H114.454L114.09 30.022C114.58 29.658 115.322 29.476 116.316 29.476C117.464 29.476 118.36 29.784 119.018 30.386C119.662 31.002 119.984 31.786 119.984 32.752C119.984 33.718 119.62 34.53 118.906 35.16C118.178 35.804 117.268 36.126 116.19 36.126C114.356 36.126 112.83 35.258 112.2 33.732L113.32 33.256C113.726 34.194 114.776 34.936 116.19 34.936C117.8 34.936 118.696 34.012 118.696 32.794C118.696 31.492 117.646 30.652 115.98 30.652C115.084 30.652 114.356 30.932 113.81 31.492ZM122.013 29.056L120.963 28.58C121.481 27.068 122.839 26.074 124.869 26.074C125.835 26.074 126.633 26.298 127.249 26.746C127.865 27.194 128.173 27.796 128.173 28.538C128.173 29.672 127.571 30.512 126.451 30.834C127.529 30.904 128.397 31.716 128.397 33.172C128.397 34.096 128.061 34.824 127.389 35.342C126.717 35.86 125.863 36.126 124.813 36.126C122.671 36.126 121.187 35.104 120.697 33.494L121.831 33.004C122.433 34.278 123.455 34.922 124.897 34.922C126.255 34.922 127.109 34.292 127.109 33.186C127.109 32.108 126.269 31.562 124.589 31.562H123.497V30.4H124.365C125.891 30.4 126.885 29.714 126.885 28.776C126.885 27.81 126.087 27.264 124.813 27.264C123.315 27.264 122.405 28.034 122.013 29.056ZM129.646 35.202C129.646 34.81 130.01 34.418 130.514 34.418C130.976 34.418 131.354 34.81 131.354 35.202C131.354 35.65 131.004 36.028 130.514 36.028C130.01 36.028 129.646 35.65 129.646 35.202ZM132.511 31.366C132.511 29.672 132.931 28.37 133.757 27.446C134.583 26.536 135.619 26.074 136.865 26.074C138.503 26.074 139.791 26.816 140.337 27.992L139.385 28.636C138.811 27.726 137.957 27.278 136.809 27.278C135.941 27.278 135.213 27.614 134.625 28.286C134.037 28.972 133.743 29.896 133.757 31.086C134.303 30.064 135.577 29.448 136.977 29.448C138.111 29.448 139.021 29.742 139.679 30.344C140.337 30.946 140.673 31.744 140.673 32.724C140.673 33.718 140.309 34.544 139.567 35.174C138.825 35.804 137.901 36.126 136.795 36.126C134.149 36.126 132.511 34.404 132.511 31.366ZM133.911 32.556C134.177 33.942 135.227 34.922 136.781 34.922C137.537 34.922 138.167 34.726 138.657 34.32C139.147 33.928 139.385 33.41 139.385 32.78C139.385 31.394 138.405 30.652 136.907 30.652C136.081 30.652 135.395 30.848 134.863 31.24C134.317 31.632 134.009 32.066 133.911 32.556Z" fill="#1A3341"/>
<circle cx="224" cy="60" r="7" fill="#6D73F9" stroke="white" stroke-width="2"/>
<path d="M210.179 39.492L209.171 39.226L209.745 34.2H215.905V35.39H210.823L210.459 38.022C210.949 37.658 211.691 37.476 212.685 37.476C213.833 37.476 214.729 37.784 215.387 38.386C216.031 39.002 216.353 39.786 216.353 40.752C216.353 41.718 215.989 42.53 215.275 43.16C214.547 43.804 213.637 44.126 212.559 44.126C210.725 44.126 209.199 43.258 208.569 41.732L209.689 41.256C210.095 42.194 211.145 42.936 212.559 42.936C214.169 42.936 215.065 42.012 215.065 40.794C215.065 39.492 214.015 38.652 212.349 38.652C211.453 38.652 210.725 38.932 210.179 39.492ZM218.382 37.056L217.332 36.58C217.85 35.068 219.208 34.074 221.238 34.074C222.204 34.074 223.002 34.298 223.618 34.746C224.234 35.194 224.542 35.796 224.542 36.538C224.542 37.672 223.94 38.512 222.82 38.834C223.898 38.904 224.766 39.716 224.766 41.172C224.766 42.096 224.43 42.824 223.758 43.342C223.086 43.86 222.232 44.126 221.182 44.126C219.04 44.126 217.556 43.104 217.066 41.494L218.2 41.004C218.802 42.278 219.824 42.922 221.266 42.922C222.624 42.922 223.478 42.292 223.478 41.186C223.478 40.108 222.638 39.562 220.958 39.562H219.866V38.4H220.734C222.26 38.4 223.254 37.714 223.254 36.776C223.254 35.81 222.456 35.264 221.182 35.264C219.684 35.264 218.774 36.034 218.382 37.056ZM226.015 43.202C226.015 42.81 226.379 42.418 226.883 42.418C227.345 42.418 227.723 42.81 227.723 43.202C227.723 43.65 227.373 44.028 226.883 44.028C226.379 44.028 226.015 43.65 226.015 43.202ZM230 37.434L228.978 37.07C229.328 35.334 230.644 34.088 232.73 34.088C234.746 34.088 235.978 35.25 235.978 37.028C235.978 37.966 235.572 38.904 235.068 39.576C234.816 39.926 234.494 40.262 234.116 40.612C233.346 41.298 232.8 41.662 232.002 42.166L230.924 42.838H236.342V44H228.712V43.048L230.84 41.634C231.218 41.396 231.484 41.214 231.638 41.102C231.792 41.004 232.044 40.822 232.38 40.584C232.716 40.346 232.968 40.136 233.136 39.982C233.29 39.828 233.5 39.632 233.738 39.38C234.382 38.68 234.62 38.036 234.69 37.154C234.69 35.88 233.864 35.306 232.646 35.306C231.89 35.306 231.288 35.516 230.854 35.936C230.42 36.356 230.126 36.86 230 37.434Z" fill="#2A3C3C"/>
<path d="M210.179 39.492L209.171 39.226L209.745 34.2H215.905V35.39H210.823L210.459 38.022C210.949 37.658 211.691 37.476 212.685 37.476C213.833 37.476 214.729 37.784 215.387 38.386C216.031 39.002 216.353 39.786 216.353 40.752C216.353 41.718 215.989 42.53 215.275 43.16C214.547 43.804 213.637 44.126 212.559 44.126C210.725 44.126 209.199 43.258 208.569 41.732L209.689 41.256C210.095 42.194 211.145 42.936 212.559 42.936C214.169 42.936 215.065 42.012 215.065 40.794C215.065 39.492 214.015 38.652 212.349 38.652C211.453 38.652 210.725 38.932 210.179 39.492ZM218.382 37.056L217.332 36.58C217.85 35.068 219.208 34.074 221.238 34.074C222.204 34.074 223.002 34.298 223.618 34.746C224.234 35.194 224.542 35.796 224.542 36.538C224.542 37.672 223.94 38.512 222.82 38.834C223.898 38.904 224.766 39.716 224.766 41.172C224.766 42.096 224.43 42.824 223.758 43.342C223.086 43.86 222.232 44.126 221.182 44.126C219.04 44.126 217.556 43.104 217.066 41.494L218.2 41.004C218.802 42.278 219.824 42.922 221.266 42.922C222.624 42.922 223.478 42.292 223.478 41.186C223.478 40.108 222.638 39.562 220.958 39.562H219.866V38.4H220.734C222.26 38.4 223.254 37.714 223.254 36.776C223.254 35.81 222.456 35.264 221.182 35.264C219.684 35.264 218.774 36.034 218.382 37.056ZM226.015 43.202C226.015 42.81 226.379 42.418 226.883 42.418C227.345 42.418 227.723 42.81 227.723 43.202C227.723 43.65 227.373 44.028 226.883 44.028C226.379 44.028 226.015 43.65 226.015 43.202ZM230 37.434L228.978 37.07C229.328 35.334 230.644 34.088 232.73 34.088C234.746 34.088 235.978 35.25 235.978 37.028C235.978 37.966 235.572 38.904 235.068 39.576C234.816 39.926 234.494 40.262 234.116 40.612C233.346 41.298 232.8 41.662 232.002 42.166L230.924 42.838H236.342V44H228.712V43.048L230.84 41.634C231.218 41.396 231.484 41.214 231.638 41.102C231.792 41.004 232.044 40.822 232.38 40.584C232.716 40.346 232.968 40.136 233.136 39.982C233.29 39.828 233.5 39.632 233.738 39.38C234.382 38.68 234.62 38.036 234.69 37.154C234.69 35.88 233.864 35.306 232.646 35.306C231.89 35.306 231.288 35.516 230.854 35.936C230.42 36.356 230.126 36.86 230 37.434Z" fill="#1A3341"/>
<circle cx="320" cy="75" r="7" fill="#6D73F9" stroke="white" stroke-width="2"/>
<path d="M305.844 54.492L304.836 54.226L305.41 49.2H311.57V50.39H306.488L306.124 53.022C306.614 52.658 307.356 52.476 308.35 52.476C309.498 52.476 310.394 52.784 311.052 53.386C311.696 54.002 312.018 54.786 312.018 55.752C312.018 56.718 311.654 57.53 310.94 58.16C310.212 58.804 309.302 59.126 308.224 59.126C306.39 59.126 304.864 58.258 304.234 56.732L305.354 56.256C305.76 57.194 306.81 57.936 308.224 57.936C309.834 57.936 310.73 57.012 310.73 55.794C310.73 54.492 309.68 53.652 308.014 53.652C307.118 53.652 306.39 53.932 305.844 54.492ZM314.201 52.434L313.179 52.07C313.529 50.334 314.845 49.088 316.931 49.088C318.947 49.088 320.179 50.25 320.179 52.028C320.179 52.966 319.773 53.904 319.269 54.576C319.017 54.926 318.695 55.262 318.317 55.612C317.547 56.298 317.001 56.662 316.203 57.166L315.125 57.838H320.543V59H312.913V58.048L315.041 56.634C315.419 56.396 315.685 56.214 315.839 56.102C315.993 56.004 316.245 55.822 316.581 55.584C316.917 55.346 317.169 55.136 317.337 54.982C317.491 54.828 317.701 54.632 317.939 54.38C318.583 53.68 318.821 53.036 318.891 52.154C318.891 50.88 318.065 50.306 316.847 50.306C316.091 50.306 315.489 50.516 315.055 50.936C314.621 51.356 314.327 51.86 314.201 52.434ZM321.611 58.202C321.611 57.81 321.975 57.418 322.479 57.418C322.941 57.418 323.319 57.81 323.319 58.202C323.319 58.65 322.969 59.028 322.479 59.028C321.975 59.028 321.611 58.65 321.611 58.202ZM324.477 54.366C324.477 52.672 324.897 51.37 325.723 50.446C326.549 49.536 327.585 49.074 328.831 49.074C330.469 49.074 331.757 49.816 332.303 50.992L331.351 51.636C330.777 50.726 329.923 50.278 328.775 50.278C327.907 50.278 327.179 50.614 326.591 51.286C326.003 51.972 325.709 52.896 325.723 54.086C326.269 53.064 327.543 52.448 328.943 52.448C330.077 52.448 330.987 52.742 331.645 53.344C332.303 53.946 332.639 54.744 332.639 55.724C332.639 56.718 332.275 57.544 331.533 58.174C330.791 58.804 329.867 59.126 328.761 59.126C326.115 59.126 324.477 57.404 324.477 54.366ZM325.877 55.556C326.143 56.942 327.193 57.922 328.747 57.922C329.503 57.922 330.133 57.726 330.623 57.32C331.113 56.928 331.351 56.41 331.351 55.78C331.351 54.394 330.371 53.652 328.873 53.652C328.047 53.652 327.361 53.848 326.829 54.24C326.283 54.632 325.975 55.066 325.877 55.556Z" fill="#2A3C3C"/>
<path d="M305.844 54.492L304.836 54.226L305.41 49.2H311.57V50.39H306.488L306.124 53.022C306.614 52.658 307.356 52.476 308.35 52.476C309.498 52.476 310.394 52.784 311.052 53.386C311.696 54.002 312.018 54.786 312.018 55.752C312.018 56.718 311.654 57.53 310.94 58.16C310.212 58.804 309.302 59.126 308.224 59.126C306.39 59.126 304.864 58.258 304.234 56.732L305.354 56.256C305.76 57.194 306.81 57.936 308.224 57.936C309.834 57.936 310.73 57.012 310.73 55.794C310.73 54.492 309.68 53.652 308.014 53.652C307.118 53.652 306.39 53.932 305.844 54.492ZM314.201 52.434L313.179 52.07C313.529 50.334 314.845 49.088 316.931 49.088C318.947 49.088 320.179 50.25 320.179 52.028C320.179 52.966 319.773 53.904 319.269 54.576C319.017 54.926 318.695 55.262 318.317 55.612C317.547 56.298 317.001 56.662 316.203 57.166L315.125 57.838H320.543V59H312.913V58.048L315.041 56.634C315.419 56.396 315.685 56.214 315.839 56.102C315.993 56.004 316.245 55.822 316.581 55.584C316.917 55.346 317.169 55.136 317.337 54.982C317.491 54.828 317.701 54.632 317.939 54.38C318.583 53.68 318.821 53.036 318.891 52.154C318.891 50.88 318.065 50.306 316.847 50.306C316.091 50.306 315.489 50.516 315.055 50.936C314.621 51.356 314.327 51.86 314.201 52.434ZM321.611 58.202C321.611 57.81 321.975 57.418 322.479 57.418C322.941 57.418 323.319 57.81 323.319 58.202C323.319 58.65 322.969 59.028 322.479 59.028C321.975 59.028 321.611 58.65 321.611 58.202ZM324.477 54.366C324.477 52.672 324.897 51.37 325.723 50.446C326.549 49.536 327.585 49.074 328.831 49.074C330.469 49.074 331.757 49.816 332.303 50.992L331.351 51.636C330.777 50.726 329.923 50.278 328.775 50.278C327.907 50.278 327.179 50.614 326.591 51.286C326.003 51.972 325.709 52.896 325.723 54.086C326.269 53.064 327.543 52.448 328.943 52.448C330.077 52.448 330.987 52.742 331.645 53.344C332.303 53.946 332.639 54.744 332.639 55.724C332.639 56.718 332.275 57.544 331.533 58.174C330.791 58.804 329.867 59.126 328.761 59.126C326.115 59.126 324.477 57.404 324.477 54.366ZM325.877 55.556C326.143 56.942 327.193 57.922 328.747 57.922C329.503 57.922 330.133 57.726 330.623 57.32C331.113 56.928 331.351 56.41 331.351 55.78C331.351 54.394 330.371 53.652 328.873 53.652C328.047 53.652 327.361 53.848 326.829 54.24C326.283 54.632 325.975 55.066 325.877 55.556Z" fill="#1A3341"/>
<circle cx="417" cy="53" r="7" fill="#6D73F9" stroke="white" stroke-width="2"/>
<path d="M403.063 32.492L402.055 32.226L402.629 27.2H408.789V28.39H403.707L403.343 31.022C403.833 30.658 404.575 30.476 405.569 30.476C406.717 30.476 407.613 30.784 408.271 31.386C408.915 32.002 409.237 32.786 409.237 33.752C409.237 34.718 408.873 35.53 408.159 36.16C407.431 36.804 406.521 37.126 405.443 37.126C403.609 37.126 402.083 36.258 401.453 34.732L402.573 34.256C402.979 35.194 404.029 35.936 405.443 35.936C407.053 35.936 407.949 35.012 407.949 33.794C407.949 32.492 406.899 31.652 405.233 31.652C404.337 31.652 403.609 31.932 403.063 32.492ZM411.266 30.056L410.216 29.58C410.734 28.068 412.092 27.074 414.122 27.074C415.088 27.074 415.886 27.298 416.502 27.746C417.118 28.194 417.426 28.796 417.426 29.538C417.426 30.672 416.824 31.512 415.704 31.834C416.782 31.904 417.65 32.716 417.65 34.172C417.65 35.096 417.314 35.824 416.642 36.342C415.97 36.86 415.116 37.126 414.066 37.126C411.924 37.126 410.44 36.104 409.95 34.494L411.084 34.004C411.686 35.278 412.708 35.922 414.15 35.922C415.508 35.922 416.362 35.292 416.362 34.186C416.362 33.108 415.522 32.562 413.842 32.562H412.75V31.4H413.618C415.144 31.4 416.138 30.714 416.138 29.776C416.138 28.81 415.34 28.264 414.066 28.264C412.568 28.264 411.658 29.034 411.266 30.056ZM418.899 36.202C418.899 35.81 419.263 35.418 419.767 35.418C420.229 35.418 420.607 35.81 420.607 36.202C420.607 36.65 420.257 37.028 419.767 37.028C419.263 37.028 418.899 36.65 418.899 36.202ZM423.192 32.492L422.184 32.226L422.758 27.2H428.918V28.39H423.836L423.472 31.022C423.962 30.658 424.704 30.476 425.698 30.476C426.846 30.476 427.742 30.784 428.4 31.386C429.044 32.002 429.366 32.786 429.366 33.752C429.366 34.718 429.002 35.53 428.288 36.16C427.56 36.804 426.65 37.126 425.572 37.126C423.738 37.126 422.212 36.258 421.582 34.732L422.702 34.256C423.108 35.194 424.158 35.936 425.572 35.936C427.182 35.936 428.078 35.012 428.078 33.794C428.078 32.492 427.028 31.652 425.362 31.652C424.466 31.652 423.738 31.932 423.192 32.492Z" fill="#2A3C3C"/>
<path d="M403.063 32.492L402.055 32.226L402.629 27.2H408.789V28.39H403.707L403.343 31.022C403.833 30.658 404.575 30.476 405.569 30.476C406.717 30.476 407.613 30.784 408.271 31.386C408.915 32.002 409.237 32.786 409.237 33.752C409.237 34.718 408.873 35.53 408.159 36.16C407.431 36.804 406.521 37.126 405.443 37.126C403.609 37.126 402.083 36.258 401.453 34.732L402.573 34.256C402.979 35.194 404.029 35.936 405.443 35.936C407.053 35.936 407.949 35.012 407.949 33.794C407.949 32.492 406.899 31.652 405.233 31.652C404.337 31.652 403.609 31.932 403.063 32.492ZM411.266 30.056L410.216 29.58C410.734 28.068 412.092 27.074 414.122 27.074C415.088 27.074 415.886 27.298 416.502 27.746C417.118 28.194 417.426 28.796 417.426 29.538C417.426 30.672 416.824 31.512 415.704 31.834C416.782 31.904 417.65 32.716 417.65 34.172C417.65 35.096 417.314 35.824 416.642 36.342C415.97 36.86 415.116 37.126 414.066 37.126C411.924 37.126 410.44 36.104 409.95 34.494L411.084 34.004C411.686 35.278 412.708 35.922 414.15 35.922C415.508 35.922 416.362 35.292 416.362 34.186C416.362 33.108 415.522 32.562 413.842 32.562H412.75V31.4H413.618C415.144 31.4 416.138 30.714 416.138 29.776C416.138 28.81 415.34 28.264 414.066 28.264C412.568 28.264 411.658 29.034 411.266 30.056ZM418.899 36.202C418.899 35.81 419.263 35.418 419.767 35.418C420.229 35.418 420.607 35.81 420.607 36.202C420.607 36.65 420.257 37.028 419.767 37.028C419.263 37.028 418.899 36.65 418.899 36.202ZM423.192 32.492L422.184 32.226L422.758 27.2H428.918V28.39H423.836L423.472 31.022C423.962 30.658 424.704 30.476 425.698 30.476C426.846 30.476 427.742 30.784 428.4 31.386C429.044 32.002 429.366 32.786 429.366 33.752C429.366 34.718 429.002 35.53 428.288 36.16C427.56 36.804 426.65 37.126 425.572 37.126C423.738 37.126 422.212 36.258 421.582 34.732L422.702 34.256C423.108 35.194 424.158 35.936 425.572 35.936C427.182 35.936 428.078 35.012 428.078 33.794C428.078 32.492 427.028 31.652 425.362 31.652C424.466 31.652 423.738 31.932 423.192 32.492Z" fill="#1A3341"/>
<circle cx="513" cy="76" r="7" fill="#6D73F9" stroke="white" stroke-width="2"/>
<path d="M498.844 55.492L497.836 55.226L498.41 50.2H504.57V51.39H499.488L499.124 54.022C499.614 53.658 500.356 53.476 501.35 53.476C502.498 53.476 503.394 53.784 504.052 54.386C504.696 55.002 505.018 55.786 505.018 56.752C505.018 57.718 504.654 58.53 503.94 59.16C503.212 59.804 502.302 60.126 501.224 60.126C499.39 60.126 497.864 59.258 497.234 57.732L498.354 57.256C498.76 58.194 499.81 58.936 501.224 58.936C502.834 58.936 503.73 58.012 503.73 56.794C503.73 55.492 502.68 54.652 501.014 54.652C500.118 54.652 499.39 54.932 498.844 55.492ZM507.201 53.434L506.179 53.07C506.529 51.334 507.845 50.088 509.931 50.088C511.947 50.088 513.179 51.25 513.179 53.028C513.179 53.966 512.773 54.904 512.269 55.576C512.017 55.926 511.695 56.262 511.317 56.612C510.547 57.298 510.001 57.662 509.203 58.166L508.125 58.838H513.543V60H505.913V59.048L508.041 57.634C508.419 57.396 508.685 57.214 508.839 57.102C508.993 57.004 509.245 56.822 509.581 56.584C509.917 56.346 510.169 56.136 510.337 55.982C510.491 55.828 510.701 55.632 510.939 55.38C511.583 54.68 511.821 54.036 511.891 53.154C511.891 51.88 511.065 51.306 509.847 51.306C509.091 51.306 508.489 51.516 508.055 51.936C507.621 52.356 507.327 52.86 507.201 53.434ZM514.611 59.202C514.611 58.81 514.975 58.418 515.479 58.418C515.941 58.418 516.319 58.81 516.319 59.202C516.319 59.65 515.969 60.028 515.479 60.028C514.975 60.028 514.611 59.65 514.611 59.202ZM517.477 55.366C517.477 53.672 517.897 52.37 518.723 51.446C519.549 50.536 520.585 50.074 521.831 50.074C523.469 50.074 524.757 50.816 525.303 51.992L524.351 52.636C523.777 51.726 522.923 51.278 521.775 51.278C520.907 51.278 520.179 51.614 519.591 52.286C519.003 52.972 518.709 53.896 518.723 55.086C519.269 54.064 520.543 53.448 521.943 53.448C523.077 53.448 523.987 53.742 524.645 54.344C525.303 54.946 525.639 55.744 525.639 56.724C525.639 57.718 525.275 58.544 524.533 59.174C523.791 59.804 522.867 60.126 521.761 60.126C519.115 60.126 517.477 58.404 517.477 55.366ZM518.877 56.556C519.143 57.942 520.193 58.922 521.747 58.922C522.503 58.922 523.133 58.726 523.623 58.32C524.113 57.928 524.351 57.41 524.351 56.78C524.351 55.394 523.371 54.652 521.873 54.652C521.047 54.652 520.361 54.848 519.829 55.24C519.283 55.632 518.975 56.066 518.877 56.556Z" fill="#2A3C3C"/>
<path d="M498.844 55.492L497.836 55.226L498.41 50.2H504.57V51.39H499.488L499.124 54.022C499.614 53.658 500.356 53.476 501.35 53.476C502.498 53.476 503.394 53.784 504.052 54.386C504.696 55.002 505.018 55.786 505.018 56.752C505.018 57.718 504.654 58.53 503.94 59.16C503.212 59.804 502.302 60.126 501.224 60.126C499.39 60.126 497.864 59.258 497.234 57.732L498.354 57.256C498.76 58.194 499.81 58.936 501.224 58.936C502.834 58.936 503.73 58.012 503.73 56.794C503.73 55.492 502.68 54.652 501.014 54.652C500.118 54.652 499.39 54.932 498.844 55.492ZM507.201 53.434L506.179 53.07C506.529 51.334 507.845 50.088 509.931 50.088C511.947 50.088 513.179 51.25 513.179 53.028C513.179 53.966 512.773 54.904 512.269 55.576C512.017 55.926 511.695 56.262 511.317 56.612C510.547 57.298 510.001 57.662 509.203 58.166L508.125 58.838H513.543V60H505.913V59.048L508.041 57.634C508.419 57.396 508.685 57.214 508.839 57.102C508.993 57.004 509.245 56.822 509.581 56.584C509.917 56.346 510.169 56.136 510.337 55.982C510.491 55.828 510.701 55.632 510.939 55.38C511.583 54.68 511.821 54.036 511.891 53.154C511.891 51.88 511.065 51.306 509.847 51.306C509.091 51.306 508.489 51.516 508.055 51.936C507.621 52.356 507.327 52.86 507.201 53.434ZM514.611 59.202C514.611 58.81 514.975 58.418 515.479 58.418C515.941 58.418 516.319 58.81 516.319 59.202C516.319 59.65 515.969 60.028 515.479 60.028C514.975 60.028 514.611 59.65 514.611 59.202ZM517.477 55.366C517.477 53.672 517.897 52.37 518.723 51.446C519.549 50.536 520.585 50.074 521.831 50.074C523.469 50.074 524.757 50.816 525.303 51.992L524.351 52.636C523.777 51.726 522.923 51.278 521.775 51.278C520.907 51.278 520.179 51.614 519.591 52.286C519.003 52.972 518.709 53.896 518.723 55.086C519.269 54.064 520.543 53.448 521.943 53.448C523.077 53.448 523.987 53.742 524.645 54.344C525.303 54.946 525.639 55.744 525.639 56.724C525.639 57.718 525.275 58.544 524.533 59.174C523.791 59.804 522.867 60.126 521.761 60.126C519.115 60.126 517.477 58.404 517.477 55.366ZM518.877 56.556C519.143 57.942 520.193 58.922 521.747 58.922C522.503 58.922 523.133 58.726 523.623 58.32C524.113 57.928 524.351 57.41 524.351 56.78C524.351 55.394 523.371 54.652 521.873 54.652C521.047 54.652 520.361 54.848 519.829 55.24C519.283 55.632 518.975 56.066 518.877 56.556Z" fill="#1A3341"/>
<circle cx="609" cy="87" r="7" fill="#6D73F9" stroke="white" stroke-width="2"/>
<path d="M596.738 66.492L595.73 66.226L596.304 61.2H602.464V62.39H597.382L597.018 65.022C597.508 64.658 598.25 64.476 599.244 64.476C600.392 64.476 601.288 64.784 601.946 65.386C602.59 66.002 602.912 66.786 602.912 67.752C602.912 68.718 602.548 69.53 601.834 70.16C601.106 70.804 600.196 71.126 599.118 71.126C597.284 71.126 595.758 70.258 595.128 68.732L596.248 68.256C596.654 69.194 597.704 69.936 599.118 69.936C600.728 69.936 601.624 69.012 601.624 67.794C601.624 66.492 600.574 65.652 598.908 65.652C598.012 65.652 597.284 65.932 596.738 66.492ZM605.095 64.434L604.073 64.07C604.423 62.334 605.739 61.088 607.825 61.088C609.841 61.088 611.073 62.25 611.073 64.028C611.073 64.966 610.667 65.904 610.163 66.576C609.911 66.926 609.589 67.262 609.211 67.612C608.441 68.298 607.895 68.662 607.097 69.166L606.019 69.838H611.437V71H603.807V70.048L605.935 68.634C606.313 68.396 606.579 68.214 606.733 68.102C606.887 68.004 607.139 67.822 607.475 67.584C607.811 67.346 608.063 67.136 608.231 66.982C608.385 66.828 608.595 66.632 608.833 66.38C609.477 65.68 609.715 65.036 609.785 64.154C609.785 62.88 608.959 62.306 607.741 62.306C606.985 62.306 606.383 62.516 605.949 62.936C605.515 63.356 605.221 63.86 605.095 64.434ZM612.505 70.202C612.505 69.81 612.869 69.418 613.373 69.418C613.835 69.418 614.213 69.81 614.213 70.202C614.213 70.65 613.863 71.028 613.373 71.028C612.869 71.028 612.505 70.65 612.505 70.202ZM615.259 63.804L614.811 62.754L618.171 61.144H618.969V71H617.765V62.642L615.259 63.804Z" fill="#2A3C3C"/>
<path d="M596.738 66.492L595.73 66.226L596.304 61.2H602.464V62.39H597.382L597.018 65.022C597.508 64.658 598.25 64.476 599.244 64.476C600.392 64.476 601.288 64.784 601.946 65.386C602.59 66.002 602.912 66.786 602.912 67.752C602.912 68.718 602.548 69.53 601.834 70.16C601.106 70.804 600.196 71.126 599.118 71.126C597.284 71.126 595.758 70.258 595.128 68.732L596.248 68.256C596.654 69.194 597.704 69.936 599.118 69.936C600.728 69.936 601.624 69.012 601.624 67.794C601.624 66.492 600.574 65.652 598.908 65.652C598.012 65.652 597.284 65.932 596.738 66.492ZM605.095 64.434L604.073 64.07C604.423 62.334 605.739 61.088 607.825 61.088C609.841 61.088 611.073 62.25 611.073 64.028C611.073 64.966 610.667 65.904 610.163 66.576C609.911 66.926 609.589 67.262 609.211 67.612C608.441 68.298 607.895 68.662 607.097 69.166L606.019 69.838H611.437V71H603.807V70.048L605.935 68.634C606.313 68.396 606.579 68.214 606.733 68.102C606.887 68.004 607.139 67.822 607.475 67.584C607.811 67.346 608.063 67.136 608.231 66.982C608.385 66.828 608.595 66.632 608.833 66.38C609.477 65.68 609.715 65.036 609.785 64.154C609.785 62.88 608.959 62.306 607.741 62.306C606.985 62.306 606.383 62.516 605.949 62.936C605.515 63.356 605.221 63.86 605.095 64.434ZM612.505 70.202C612.505 69.81 612.869 69.418 613.373 69.418C613.835 69.418 614.213 69.81 614.213 70.202C614.213 70.65 613.863 71.028 613.373 71.028C612.869 71.028 612.505 70.65 612.505 70.202ZM615.259 63.804L614.811 62.754L618.171 61.144H618.969V71H617.765V62.642L615.259 63.804Z" fill="#1A3341"/>
<circle cx="705" cy="68" r="7" fill="#6D73F9" stroke="white" stroke-width="2"/>
<path d="M691.501 47.492L690.493 47.226L691.067 42.2H697.227V43.39H692.145L691.781 46.022C692.271 45.658 693.013 45.476 694.007 45.476C695.155 45.476 696.051 45.784 696.709 46.386C697.353 47.002 697.675 47.786 697.675 48.752C697.675 49.718 697.311 50.53 696.597 51.16C695.869 51.804 694.959 52.126 693.881 52.126C692.047 52.126 690.521 51.258 689.891 49.732L691.011 49.256C691.417 50.194 692.467 50.936 693.881 50.936C695.491 50.936 696.387 50.012 696.387 48.794C696.387 47.492 695.337 46.652 693.671 46.652C692.775 46.652 692.047 46.932 691.501 47.492ZM699.857 45.434L698.835 45.07C699.185 43.334 700.501 42.088 702.587 42.088C704.603 42.088 705.835 43.25 705.835 45.028C705.835 45.966 705.429 46.904 704.925 47.576C704.673 47.926 704.351 48.262 703.973 48.612C703.203 49.298 702.657 49.662 701.859 50.166L700.781 50.838H706.199V52H698.569V51.048L700.697 49.634C701.075 49.396 701.341 49.214 701.495 49.102C701.649 49.004 701.901 48.822 702.237 48.584C702.573 48.346 702.825 48.136 702.993 47.982C703.147 47.828 703.357 47.632 703.595 47.38C704.239 46.68 704.477 46.036 704.547 45.154C704.547 43.88 703.721 43.306 702.503 43.306C701.747 43.306 701.145 43.516 700.711 43.936C700.277 44.356 699.983 44.86 699.857 45.434ZM707.268 51.202C707.268 50.81 707.632 50.418 708.136 50.418C708.598 50.418 708.976 50.81 708.976 51.202C708.976 51.65 708.626 52.028 708.136 52.028C707.632 52.028 707.268 51.65 707.268 51.202ZM715.747 43.39H709.811V42.2H717.245V42.998L712.373 52H711.043L715.747 43.39Z" fill="#2A3C3C"/>
<path d="M691.501 47.492L690.493 47.226L691.067 42.2H697.227V43.39H692.145L691.781 46.022C692.271 45.658 693.013 45.476 694.007 45.476C695.155 45.476 696.051 45.784 696.709 46.386C697.353 47.002 697.675 47.786 697.675 48.752C697.675 49.718 697.311 50.53 696.597 51.16C695.869 51.804 694.959 52.126 693.881 52.126C692.047 52.126 690.521 51.258 689.891 49.732L691.011 49.256C691.417 50.194 692.467 50.936 693.881 50.936C695.491 50.936 696.387 50.012 696.387 48.794C696.387 47.492 695.337 46.652 693.671 46.652C692.775 46.652 692.047 46.932 691.501 47.492ZM699.857 45.434L698.835 45.07C699.185 43.334 700.501 42.088 702.587 42.088C704.603 42.088 705.835 43.25 705.835 45.028C705.835 45.966 705.429 46.904 704.925 47.576C704.673 47.926 704.351 48.262 703.973 48.612C703.203 49.298 702.657 49.662 701.859 50.166L700.781 50.838H706.199V52H698.569V51.048L700.697 49.634C701.075 49.396 701.341 49.214 701.495 49.102C701.649 49.004 701.901 48.822 702.237 48.584C702.573 48.346 702.825 48.136 702.993 47.982C703.147 47.828 703.357 47.632 703.595 47.38C704.239 46.68 704.477 46.036 704.547 45.154C704.547 43.88 703.721 43.306 702.503 43.306C701.747 43.306 701.145 43.516 700.711 43.936C700.277 44.356 699.983 44.86 699.857 45.434ZM707.268 51.202C707.268 50.81 707.632 50.418 708.136 50.418C708.598 50.418 708.976 50.81 708.976 51.202C708.976 51.65 708.626 52.028 708.136 52.028C707.632 52.028 707.268 51.65 707.268 51.202ZM715.747 43.39H709.811V42.2H717.245V42.998L712.373 52H711.043L715.747 43.39Z" fill="#1A3341"/>
<circle cx="802" cy="31" r="7" fill="#6D73F9" stroke="white" stroke-width="2"/>
<path d="M787.68 10.492L786.672 10.226L787.246 5.2H793.406V6.39H788.324L787.96 9.022C788.45 8.658 789.192 8.476 790.186 8.476C791.334 8.476 792.23 8.784 792.888 9.386C793.532 10.002 793.854 10.786 793.854 11.752C793.854 12.718 793.49 13.53 792.776 14.16C792.048 14.804 791.138 15.126 790.06 15.126C788.226 15.126 786.7 14.258 786.07 12.732L787.19 12.256C787.596 13.194 788.646 13.936 790.06 13.936C791.67 13.936 792.566 13.012 792.566 11.794C792.566 10.492 791.516 9.652 789.85 9.652C788.954 9.652 788.226 9.932 787.68 10.492ZM801.679 15H800.461V12.998H794.469V12.186L800.601 5.2H801.679V11.864H803.499V12.998H801.679V15ZM800.461 7.16L796.149 11.864H800.461V7.16ZM804.281 14.202C804.281 13.81 804.645 13.418 805.149 13.418C805.611 13.418 805.989 13.81 805.989 14.202C805.989 14.65 805.639 15.028 805.149 15.028C804.645 15.028 804.281 14.65 804.281 14.202ZM808.575 10.492L807.567 10.226L808.141 5.2H814.301V6.39H809.219L808.855 9.022C809.345 8.658 810.087 8.476 811.081 8.476C812.229 8.476 813.125 8.784 813.783 9.386C814.427 10.002 814.749 10.786 814.749 11.752C814.749 12.718 814.385 13.53 813.671 14.16C812.943 14.804 812.033 15.126 810.955 15.126C809.121 15.126 807.595 14.258 806.965 12.732L808.085 12.256C808.491 13.194 809.541 13.936 810.955 13.936C812.565 13.936 813.461 13.012 813.461 11.794C813.461 10.492 812.411 9.652 810.745 9.652C809.849 9.652 809.121 9.932 808.575 10.492Z" fill="#2A3C3C"/>
<path d="M787.68 10.492L786.672 10.226L787.246 5.2H793.406V6.39H788.324L787.96 9.022C788.45 8.658 789.192 8.476 790.186 8.476C791.334 8.476 792.23 8.784 792.888 9.386C793.532 10.002 793.854 10.786 793.854 11.752C793.854 12.718 793.49 13.53 792.776 14.16C792.048 14.804 791.138 15.126 790.06 15.126C788.226 15.126 786.7 14.258 786.07 12.732L787.19 12.256C787.596 13.194 788.646 13.936 790.06 13.936C791.67 13.936 792.566 13.012 792.566 11.794C792.566 10.492 791.516 9.652 789.85 9.652C788.954 9.652 788.226 9.932 787.68 10.492ZM801.679 15H800.461V12.998H794.469V12.186L800.601 5.2H801.679V11.864H803.499V12.998H801.679V15ZM800.461 7.16L796.149 11.864H800.461V7.16ZM804.281 14.202C804.281 13.81 804.645 13.418 805.149 13.418C805.611 13.418 805.989 13.81 805.989 14.202C805.989 14.65 805.639 15.028 805.149 15.028C804.645 15.028 804.281 14.65 804.281 14.202ZM808.575 10.492L807.567 10.226L808.141 5.2H814.301V6.39H809.219L808.855 9.022C809.345 8.658 810.087 8.476 811.081 8.476C812.229 8.476 813.125 8.784 813.783 9.386C814.427 10.002 814.749 10.786 814.749 11.752C814.749 12.718 814.385 13.53 813.671 14.16C812.943 14.804 812.033 15.126 810.955 15.126C809.121 15.126 807.595 14.258 806.965 12.732L808.085 12.256C808.491 13.194 809.541 13.936 810.955 13.936C812.565 13.936 813.461 13.012 813.461 11.794C813.461 10.492 812.411 9.652 810.745 9.652C809.849 9.652 809.121 9.932 808.575 10.492Z" fill="#1A3341"/>
<circle cx="898" cy="47" r="7" fill="#6D73F9" stroke="white" stroke-width="2"/>
<path d="M883.797 26.492L882.789 26.226L883.363 21.2H889.523V22.39H884.441L884.077 25.022C884.567 24.658 885.309 24.476 886.303 24.476C887.451 24.476 888.347 24.784 889.005 25.386C889.649 26.002 889.971 26.786 889.971 27.752C889.971 28.718 889.607 29.53 888.893 30.16C888.165 30.804 887.255 31.126 886.177 31.126C884.343 31.126 882.817 30.258 882.187 28.732L883.307 28.256C883.713 29.194 884.763 29.936 886.177 29.936C887.787 29.936 888.683 29.012 888.683 27.794C888.683 26.492 887.633 25.652 885.967 25.652C885.071 25.652 884.343 25.932 883.797 26.492ZM891.999 24.056L890.949 23.58C891.467 22.068 892.825 21.074 894.855 21.074C895.821 21.074 896.619 21.298 897.235 21.746C897.851 22.194 898.159 22.796 898.159 23.538C898.159 24.672 897.557 25.512 896.437 25.834C897.515 25.904 898.383 26.716 898.383 28.172C898.383 29.096 898.047 29.824 897.375 30.342C896.703 30.86 895.849 31.126 894.799 31.126C892.657 31.126 891.173 30.104 890.683 28.494L891.817 28.004C892.419 29.278 893.441 29.922 894.883 29.922C896.241 29.922 897.095 29.292 897.095 28.186C897.095 27.108 896.255 26.562 894.575 26.562H893.483V25.4H894.351C895.877 25.4 896.871 24.714 896.871 23.776C896.871 22.81 896.073 22.264 894.799 22.264C893.301 22.264 892.391 23.034 891.999 24.056ZM899.632 30.202C899.632 29.81 899.996 29.418 900.5 29.418C900.962 29.418 901.34 29.81 901.34 30.202C901.34 30.65 900.99 31.028 900.5 31.028C899.996 31.028 899.632 30.65 899.632 30.202ZM906.361 25.414H906.795C907.425 25.414 907.943 25.26 908.377 24.966C908.797 24.672 909.007 24.28 909.007 23.818C909.007 22.768 908.181 22.236 906.543 22.236C904.975 22.236 904.121 22.81 904.121 23.818C904.121 24.728 905.059 25.414 906.361 25.414ZM906.767 26.52H906.417C905.661 26.52 905.031 26.688 904.541 27.01C904.051 27.332 903.799 27.738 903.799 28.228C903.799 29.292 904.779 29.964 906.557 29.964C908.363 29.964 909.329 29.32 909.329 28.242C909.329 27.164 908.293 26.52 906.767 26.52ZM909.525 30.37C908.811 30.874 907.817 31.126 906.571 31.126C905.325 31.126 904.331 30.874 903.603 30.384C902.875 29.894 902.511 29.222 902.511 28.354C902.511 27.22 903.253 26.324 904.443 25.932C903.365 25.582 902.833 24.728 902.833 23.734C902.833 22.11 904.205 21.074 906.557 21.074C908.923 21.074 910.295 22.11 910.295 23.734C910.295 24.672 909.777 25.386 908.741 25.862C909.987 26.24 910.603 27.052 910.603 28.298C910.603 29.18 910.239 29.88 909.525 30.37Z" fill="#2A3C3C"/>
<path d="M883.797 26.492L882.789 26.226L883.363 21.2H889.523V22.39H884.441L884.077 25.022C884.567 24.658 885.309 24.476 886.303 24.476C887.451 24.476 888.347 24.784 889.005 25.386C889.649 26.002 889.971 26.786 889.971 27.752C889.971 28.718 889.607 29.53 888.893 30.16C888.165 30.804 887.255 31.126 886.177 31.126C884.343 31.126 882.817 30.258 882.187 28.732L883.307 28.256C883.713 29.194 884.763 29.936 886.177 29.936C887.787 29.936 888.683 29.012 888.683 27.794C888.683 26.492 887.633 25.652 885.967 25.652C885.071 25.652 884.343 25.932 883.797 26.492ZM891.999 24.056L890.949 23.58C891.467 22.068 892.825 21.074 894.855 21.074C895.821 21.074 896.619 21.298 897.235 21.746C897.851 22.194 898.159 22.796 898.159 23.538C898.159 24.672 897.557 25.512 896.437 25.834C897.515 25.904 898.383 26.716 898.383 28.172C898.383 29.096 898.047 29.824 897.375 30.342C896.703 30.86 895.849 31.126 894.799 31.126C892.657 31.126 891.173 30.104 890.683 28.494L891.817 28.004C892.419 29.278 893.441 29.922 894.883 29.922C896.241 29.922 897.095 29.292 897.095 28.186C897.095 27.108 896.255 26.562 894.575 26.562H893.483V25.4H894.351C895.877 25.4 896.871 24.714 896.871 23.776C896.871 22.81 896.073 22.264 894.799 22.264C893.301 22.264 892.391 23.034 891.999 24.056ZM899.632 30.202C899.632 29.81 899.996 29.418 900.5 29.418C900.962 29.418 901.34 29.81 901.34 30.202C901.34 30.65 900.99 31.028 900.5 31.028C899.996 31.028 899.632 30.65 899.632 30.202ZM906.361 25.414H906.795C907.425 25.414 907.943 25.26 908.377 24.966C908.797 24.672 909.007 24.28 909.007 23.818C909.007 22.768 908.181 22.236 906.543 22.236C904.975 22.236 904.121 22.81 904.121 23.818C904.121 24.728 905.059 25.414 906.361 25.414ZM906.767 26.52H906.417C905.661 26.52 905.031 26.688 904.541 27.01C904.051 27.332 903.799 27.738 903.799 28.228C903.799 29.292 904.779 29.964 906.557 29.964C908.363 29.964 909.329 29.32 909.329 28.242C909.329 27.164 908.293 26.52 906.767 26.52ZM909.525 30.37C908.811 30.874 907.817 31.126 906.571 31.126C905.325 31.126 904.331 30.874 903.603 30.384C902.875 29.894 902.511 29.222 902.511 28.354C902.511 27.22 903.253 26.324 904.443 25.932C903.365 25.582 902.833 24.728 902.833 23.734C902.833 22.11 904.205 21.074 906.557 21.074C908.923 21.074 910.295 22.11 910.295 23.734C910.295 24.672 909.777 25.386 908.741 25.862C909.987 26.24 910.603 27.052 910.603 28.298C910.603 29.18 910.239 29.88 909.525 30.37Z" fill="#1A3341"/>
<circle cx="994" cy="47" r="7" fill="#6D73F9" stroke="white" stroke-width="2"/>
<path d="M979.797 26.492L978.789 26.226L979.363 21.2H985.523V22.39H980.441L980.077 25.022C980.567 24.658 981.309 24.476 982.303 24.476C983.451 24.476 984.347 24.784 985.005 25.386C985.649 26.002 985.971 26.786 985.971 27.752C985.971 28.718 985.607 29.53 984.893 30.16C984.165 30.804 983.255 31.126 982.177 31.126C980.343 31.126 978.817 30.258 978.187 28.732L979.307 28.256C979.713 29.194 980.763 29.936 982.177 29.936C983.787 29.936 984.683 29.012 984.683 27.794C984.683 26.492 983.633 25.652 981.967 25.652C981.071 25.652 980.343 25.932 979.797 26.492ZM987.999 24.056L986.949 23.58C987.467 22.068 988.825 21.074 990.855 21.074C991.821 21.074 992.619 21.298 993.235 21.746C993.851 22.194 994.159 22.796 994.159 23.538C994.159 24.672 993.557 25.512 992.437 25.834C993.515 25.904 994.383 26.716 994.383 28.172C994.383 29.096 994.047 29.824 993.375 30.342C992.703 30.86 991.849 31.126 990.799 31.126C988.657 31.126 987.173 30.104 986.683 28.494L987.817 28.004C988.419 29.278 989.441 29.922 990.883 29.922C992.241 29.922 993.095 29.292 993.095 28.186C993.095 27.108 992.255 26.562 990.575 26.562H989.483V25.4H990.351C991.877 25.4 992.871 24.714 992.871 23.776C992.871 22.81 992.073 22.264 990.799 22.264C989.301 22.264 988.391 23.034 987.999 24.056ZM995.632 30.202C995.632 29.81 995.996 29.418 996.5 29.418C996.962 29.418 997.34 29.81 997.34 30.202C997.34 30.65 996.99 31.028 996.5 31.028C995.996 31.028 995.632 30.65 995.632 30.202ZM1002.36 25.414H1002.8C1003.43 25.414 1003.94 25.26 1004.38 24.966C1004.8 24.672 1005.01 24.28 1005.01 23.818C1005.01 22.768 1004.18 22.236 1002.54 22.236C1000.98 22.236 1000.12 22.81 1000.12 23.818C1000.12 24.728 1001.06 25.414 1002.36 25.414ZM1002.77 26.52H1002.42C1001.66 26.52 1001.03 26.688 1000.54 27.01C1000.05 27.332 999.799 27.738 999.799 28.228C999.799 29.292 1000.78 29.964 1002.56 29.964C1004.36 29.964 1005.33 29.32 1005.33 28.242C1005.33 27.164 1004.29 26.52 1002.77 26.52ZM1005.53 30.37C1004.81 30.874 1003.82 31.126 1002.57 31.126C1001.33 31.126 1000.33 30.874 999.603 30.384C998.875 29.894 998.511 29.222 998.511 28.354C998.511 27.22 999.253 26.324 1000.44 25.932C999.365 25.582 998.833 24.728 998.833 23.734C998.833 22.11 1000.21 21.074 1002.56 21.074C1004.92 21.074 1006.3 22.11 1006.3 23.734C1006.3 24.672 1005.78 25.386 1004.74 25.862C1005.99 26.24 1006.6 27.052 1006.6 28.298C1006.6 29.18 1006.24 29.88 1005.53 30.37Z" fill="#2A3C3C"/>
<path d="M979.797 26.492L978.789 26.226L979.363 21.2H985.523V22.39H980.441L980.077 25.022C980.567 24.658 981.309 24.476 982.303 24.476C983.451 24.476 984.347 24.784 985.005 25.386C985.649 26.002 985.971 26.786 985.971 27.752C985.971 28.718 985.607 29.53 984.893 30.16C984.165 30.804 983.255 31.126 982.177 31.126C980.343 31.126 978.817 30.258 978.187 28.732L979.307 28.256C979.713 29.194 980.763 29.936 982.177 29.936C983.787 29.936 984.683 29.012 984.683 27.794C984.683 26.492 983.633 25.652 981.967 25.652C981.071 25.652 980.343 25.932 979.797 26.492ZM987.999 24.056L986.949 23.58C987.467 22.068 988.825 21.074 990.855 21.074C991.821 21.074 992.619 21.298 993.235 21.746C993.851 22.194 994.159 22.796 994.159 23.538C994.159 24.672 993.557 25.512 992.437 25.834C993.515 25.904 994.383 26.716 994.383 28.172C994.383 29.096 994.047 29.824 993.375 30.342C992.703 30.86 991.849 31.126 990.799 31.126C988.657 31.126 987.173 30.104 986.683 28.494L987.817 28.004C988.419 29.278 989.441 29.922 990.883 29.922C992.241 29.922 993.095 29.292 993.095 28.186C993.095 27.108 992.255 26.562 990.575 26.562H989.483V25.4H990.351C991.877 25.4 992.871 24.714 992.871 23.776C992.871 22.81 992.073 22.264 990.799 22.264C989.301 22.264 988.391 23.034 987.999 24.056ZM995.632 30.202C995.632 29.81 995.996 29.418 996.5 29.418C996.962 29.418 997.34 29.81 997.34 30.202C997.34 30.65 996.99 31.028 996.5 31.028C995.996 31.028 995.632 30.65 995.632 30.202ZM1002.36 25.414H1002.8C1003.43 25.414 1003.94 25.26 1004.38 24.966C1004.8 24.672 1005.01 24.28 1005.01 23.818C1005.01 22.768 1004.18 22.236 1002.54 22.236C1000.98 22.236 1000.12 22.81 1000.12 23.818C1000.12 24.728 1001.06 25.414 1002.36 25.414ZM1002.77 26.52H1002.42C1001.66 26.52 1001.03 26.688 1000.54 27.01C1000.05 27.332 999.799 27.738 999.799 28.228C999.799 29.292 1000.78 29.964 1002.56 29.964C1004.36 29.964 1005.33 29.32 1005.33 28.242C1005.33 27.164 1004.29 26.52 1002.77 26.52ZM1005.53 30.37C1004.81 30.874 1003.82 31.126 1002.57 31.126C1001.33 31.126 1000.33 30.874 999.603 30.384C998.875 29.894 998.511 29.222 998.511 28.354C998.511 27.22 999.253 26.324 1000.44 25.932C999.365 25.582 998.833 24.728 998.833 23.734C998.833 22.11 1000.21 21.074 1002.56 21.074C1004.92 21.074 1006.3 22.11 1006.3 23.734C1006.3 24.672 1005.78 25.386 1004.74 25.862C1005.99 26.24 1006.6 27.052 1006.6 28.298C1006.6 29.18 1006.24 29.88 1005.53 30.37Z" fill="#1A3341"/>
<circle cx="1090" cy="26" r="7" fill="#6D73F9" stroke="white" stroke-width="2"/>
<path d="M1075.43 5.492L1074.42 5.226L1074.99 0.199999H1081.15V1.39H1076.07L1075.71 4.022C1076.2 3.658 1076.94 3.476 1077.93 3.476C1079.08 3.476 1079.98 3.784 1080.64 4.386C1081.28 5.002 1081.6 5.786 1081.6 6.752C1081.6 7.718 1081.24 8.53 1080.52 9.16C1079.8 9.804 1078.89 10.126 1077.81 10.126C1075.97 10.126 1074.45 9.258 1073.82 7.732L1074.94 7.256C1075.34 8.194 1076.39 8.936 1077.81 8.936C1079.42 8.936 1080.31 8.012 1080.31 6.794C1080.31 5.492 1079.26 4.652 1077.6 4.652C1076.7 4.652 1075.97 4.932 1075.43 5.492ZM1089.43 10H1088.21V7.998H1082.22V7.186L1088.35 0.199999H1089.43V6.864H1091.25V7.998H1089.43V10ZM1088.21 2.16L1083.9 6.864H1088.21V2.16ZM1092.03 9.202C1092.03 8.81 1092.39 8.418 1092.9 8.418C1093.36 8.418 1093.74 8.81 1093.74 9.202C1093.74 9.65 1093.39 10.028 1092.9 10.028C1092.39 10.028 1092.03 9.65 1092.03 9.202ZM1094.89 5.366C1094.89 3.672 1095.31 2.37 1096.14 1.446C1096.97 0.535999 1098 0.0739993 1099.25 0.0739993C1100.89 0.0739993 1102.17 0.816 1102.72 1.992L1101.77 2.636C1101.19 1.726 1100.34 1.278 1099.19 1.278C1098.32 1.278 1097.6 1.614 1097.01 2.286C1096.42 2.972 1096.13 3.896 1096.14 5.086C1096.69 4.064 1097.96 3.448 1099.36 3.448C1100.49 3.448 1101.4 3.742 1102.06 4.344C1102.72 4.946 1103.06 5.744 1103.06 6.724C1103.06 7.718 1102.69 8.544 1101.95 9.174C1101.21 9.804 1100.28 10.126 1099.18 10.126C1096.53 10.126 1094.89 8.404 1094.89 5.366ZM1096.29 6.556C1096.56 7.942 1097.61 8.922 1099.16 8.922C1099.92 8.922 1100.55 8.726 1101.04 8.32C1101.53 7.928 1101.77 7.41 1101.77 6.78C1101.77 5.394 1100.79 4.652 1099.29 4.652C1098.46 4.652 1097.78 4.848 1097.25 5.24C1096.7 5.632 1096.39 6.066 1096.29 6.556Z" fill="#2A3C3C"/>
<path d="M1075.43 5.492L1074.42 5.226L1074.99 0.199999H1081.15V1.39H1076.07L1075.71 4.022C1076.2 3.658 1076.94 3.476 1077.93 3.476C1079.08 3.476 1079.98 3.784 1080.64 4.386C1081.28 5.002 1081.6 5.786 1081.6 6.752C1081.6 7.718 1081.24 8.53 1080.52 9.16C1079.8 9.804 1078.89 10.126 1077.81 10.126C1075.97 10.126 1074.45 9.258 1073.82 7.732L1074.94 7.256C1075.34 8.194 1076.39 8.936 1077.81 8.936C1079.42 8.936 1080.31 8.012 1080.31 6.794C1080.31 5.492 1079.26 4.652 1077.6 4.652C1076.7 4.652 1075.97 4.932 1075.43 5.492ZM1089.43 10H1088.21V7.998H1082.22V7.186L1088.35 0.199999H1089.43V6.864H1091.25V7.998H1089.43V10ZM1088.21 2.16L1083.9 6.864H1088.21V2.16ZM1092.03 9.202C1092.03 8.81 1092.39 8.418 1092.9 8.418C1093.36 8.418 1093.74 8.81 1093.74 9.202C1093.74 9.65 1093.39 10.028 1092.9 10.028C1092.39 10.028 1092.03 9.65 1092.03 9.202ZM1094.89 5.366C1094.89 3.672 1095.31 2.37 1096.14 1.446C1096.97 0.535999 1098 0.0739993 1099.25 0.0739993C1100.89 0.0739993 1102.17 0.816 1102.72 1.992L1101.77 2.636C1101.19 1.726 1100.34 1.278 1099.19 1.278C1098.32 1.278 1097.6 1.614 1097.01 2.286C1096.42 2.972 1096.13 3.896 1096.14 5.086C1096.69 4.064 1097.96 3.448 1099.36 3.448C1100.49 3.448 1101.4 3.742 1102.06 4.344C1102.72 4.946 1103.06 5.744 1103.06 6.724C1103.06 7.718 1102.69 8.544 1101.95 9.174C1101.21 9.804 1100.28 10.126 1099.18 10.126C1096.53 10.126 1094.89 8.404 1094.89 5.366ZM1096.29 6.556C1096.56 7.942 1097.61 8.922 1099.16 8.922C1099.92 8.922 1100.55 8.726 1101.04 8.32C1101.53 7.928 1101.77 7.41 1101.77 6.78C1101.77 5.394 1100.79 4.652 1099.29 4.652C1098.46 4.652 1097.78 4.848 1097.25 5.24C1096.7 5.632 1096.39 6.066 1096.29 6.556Z" fill="#1A3341"/>
<defs>
<linearGradient id="paint0_linear_6002_39827" x1="559.5" y1="27" x2="559.5" y2="235" gradientUnits="userSpaceOnUse">
<stop stop-color="#6D73F9"/>
<stop offset="1" stop-color="white"/>
</linearGradient>
</defs>
</svg>
