<svg width="448" height="540" viewBox="0 0 448 540" fill="none" xmlns="http://www.w3.org/2000/svg">
<rect x="48.5" y="0.5" width="79" height="79" fill="#F5E386" stroke="white"/>
<rect x="48.5" y="160.5" width="79" height="79" fill="#88C591" stroke="white"/>
<rect x="48.5" y="80.5" width="79" height="79" fill="#F5E386" stroke="white"/>
<rect x="48.5" y="240.5" width="79" height="79" fill="#88C591" stroke="white"/>
<rect x="48.5" y="320.5" width="79" height="79" fill="#88C591" stroke="white"/>
<rect x="128.5" y="0.5" width="79" height="79" fill="#F5E386" stroke="white"/>
<rect x="128.5" y="160.5" width="79" height="79" fill="#F5E386" stroke="white"/>
<rect x="128.5" y="80.5" width="79" height="79" fill="#F5E386" stroke="white"/>
<rect x="128.5" y="240.5" width="79" height="79" fill="#88C591" stroke="white"/>
<rect x="128.5" y="320.5" width="79" height="79" fill="#88C591" stroke="white"/>
<rect x="208.5" y="0.5" width="79" height="79" fill="#F87B7B" stroke="white"/>
<rect x="208.5" y="160.5" width="79" height="79" fill="#F5E386" stroke="white"/>
<rect x="208.5" y="80.5" width="79" height="79" fill="#F5E386" stroke="white"/>
<rect x="208.5" y="240.5" width="79" height="79" fill="#F5E386" stroke="white"/>
<rect x="208.5" y="320.5" width="79" height="79" fill="#88C591" stroke="white"/>
<rect x="288.5" y="0.5" width="79" height="79" fill="#F87B7B" stroke="white"/>
<rect x="288.5" y="160.5" width="79" height="79" fill="#F5E386" stroke="white"/>
<rect x="288.5" y="80.5" width="79" height="79" fill="#F87B7B" stroke="white"/>
<rect x="288.5" y="240.5" width="79" height="79" fill="#F5E386" stroke="white"/>
<rect x="288.5" y="320.5" width="79" height="79" fill="#F5E386" stroke="white"/>
<rect x="368.5" y="0.5" width="79" height="79" fill="#F87B7B" stroke="white"/>
<rect x="368.5" y="160.5" width="79" height="79" fill="#F87B7B" stroke="white"/>
<rect x="368.5" y="80.5" width="79" height="79" fill="#F87B7B" stroke="white"/>
<rect x="368.5" y="240.5" width="79" height="79" fill="#F87B7B" stroke="white"/>
<rect x="368.5" y="320.5" width="79" height="79" fill="#F87B7B" stroke="white"/>
<path d="M207.695 443H206.057V430.4H207.569L212.357 436.736L216.983 430.4H218.459V443H216.821V433.226L212.519 439.022H212.123L207.695 433.226V443ZM221.607 435.89L220.833 434.756C221.697 433.946 223.191 433.424 224.577 433.424C227.079 433.424 228.411 434.792 228.411 437.222V443H226.899V441.614C226.305 442.478 225.135 443.126 223.623 443.126C221.589 443.126 220.221 441.992 220.221 440.264C220.221 438.302 221.895 437.366 224.703 437.366C225.585 437.366 226.305 437.456 226.899 437.636C226.899 435.818 226.251 434.846 224.397 434.846C223.461 434.846 222.525 435.188 221.607 435.89ZM223.983 441.758C224.685 441.758 225.315 441.56 225.837 441.182C226.359 440.804 226.701 440.372 226.899 439.922V438.968C226.377 438.788 225.711 438.698 224.901 438.698C222.849 438.698 221.823 439.202 221.823 440.21C221.823 441.164 222.687 441.758 223.983 441.758ZM231.456 435.08H229.512V433.64H231.456V431.246H232.968V433.64H236.19V435.08H232.968V439.202C232.968 441.02 233.436 441.686 234.588 441.686C235.146 441.686 235.722 441.47 236.28 441.02L236.964 442.136C236.37 442.802 235.488 443.126 234.318 443.126C232.464 443.126 231.456 441.902 231.456 439.598V435.08ZM245.033 440.318L246.005 441.218C245.141 442.514 243.899 443.162 242.261 443.162C240.767 443.162 239.561 442.712 238.643 441.83C237.725 440.948 237.275 439.778 237.275 438.302C237.275 436.88 237.689 435.71 238.535 434.792C239.363 433.874 240.533 433.424 242.045 433.424C243.287 433.424 244.331 433.82 245.141 434.594C245.951 435.368 246.365 436.394 246.365 437.672C246.365 438.086 246.329 438.464 246.275 438.806H238.895C238.985 440.66 240.353 441.74 242.315 441.74C243.413 441.74 244.457 441.164 245.033 440.318ZM241.937 434.81C240.227 434.81 239.111 435.854 238.877 437.438H244.763C244.673 435.782 243.611 434.81 241.937 434.81ZM249.557 443H248.045V433.64H249.557V434.36C249.863 433.73 250.673 433.442 251.483 433.442C252.311 433.442 252.941 433.73 253.391 434.288L252.437 435.332C252.203 435.026 251.843 434.864 251.321 434.864C250.511 434.864 249.773 435.53 249.557 436.484V443ZM256.119 443H254.607V433.64H256.119V443ZM254.409 430.598C254.409 430.094 254.823 429.716 255.381 429.716C255.885 429.716 256.317 430.094 256.317 430.598C256.317 431.12 255.885 431.534 255.381 431.534C254.823 431.534 254.409 431.12 254.409 430.598ZM259.224 435.89L258.45 434.756C259.314 433.946 260.808 433.424 262.194 433.424C264.696 433.424 266.028 434.792 266.028 437.222V443H264.516V441.614C263.922 442.478 262.752 443.126 261.24 443.126C259.206 443.126 257.838 441.992 257.838 440.264C257.838 438.302 259.512 437.366 262.32 437.366C263.202 437.366 263.922 437.456 264.516 437.636C264.516 435.818 263.868 434.846 262.014 434.846C261.078 434.846 260.142 435.188 259.224 435.89ZM261.6 441.758C262.302 441.758 262.932 441.56 263.454 441.182C263.976 440.804 264.318 440.372 264.516 439.922V438.968C263.994 438.788 263.328 438.698 262.518 438.698C260.466 438.698 259.44 439.202 259.44 440.21C259.44 441.164 260.304 441.758 261.6 441.758ZM269.775 443H268.263V429.86H269.775V443ZM273.82 443H272.308V433.64H273.82V443ZM272.11 430.598C272.11 430.094 272.524 429.716 273.082 429.716C273.586 429.716 274.018 430.094 274.018 430.598C274.018 431.12 273.586 431.534 273.082 431.534C272.524 431.534 272.11 431.12 272.11 430.598ZM277.159 435.08H275.215V433.64H277.159V431.246H278.671V433.64H281.893V435.08H278.671V439.202C278.671 441.02 279.139 441.686 280.291 441.686C280.849 441.686 281.425 441.47 281.983 441.02L282.667 442.136C282.073 442.802 281.191 443.126 280.021 443.126C278.167 443.126 277.159 441.902 277.159 439.598V435.08ZM283.927 446.564L284.521 445.25C284.665 445.304 284.791 445.34 284.917 445.34C285.619 445.34 286.105 444.854 286.735 443.36L287.023 442.658L282.487 433.64H284.269L287.779 440.75L290.425 433.64H292.081L288.517 442.856C287.905 444.368 287.329 445.394 286.807 445.952C286.267 446.51 285.655 446.78 284.971 446.78C284.575 446.78 284.233 446.708 283.927 446.564Z" fill="#1A3341" fill-opacity="0.6"/>
<path d="M10.356 225.66L15 225.66L15 227.298L2.4 227.298L2.4 222.402C2.4 218.964 3.714 217.236 6.36 217.236C7.494 217.236 8.448 217.65 9.204 218.478C9.978 219.324 10.356 220.638 10.356 222.42L10.356 225.66ZM3.93 222.33L3.93 225.66L8.844 225.66L8.844 222.456C8.844 220.08 7.908 218.928 6.342 218.928C4.74 218.928 3.93 220.062 3.93 222.33ZM15 214.664L15 216.176L5.64 216.176L5.64 214.664L6.36 214.664C5.73 214.358 5.442 213.548 5.442 212.738C5.442 211.91 5.73 211.28 6.288 210.83L7.332 211.784C7.026 212.018 6.864 212.378 6.864 212.9C6.864 213.71 7.53 214.448 8.484 214.664L15 214.664ZM10.302 210.88C8.88 210.88 7.71 210.412 6.792 209.494C5.874 208.576 5.424 207.388 5.424 205.93C5.424 204.454 5.874 203.248 6.792 202.33C7.71 201.412 8.88 200.944 10.302 200.944C11.724 200.944 12.876 201.412 13.794 202.33C14.712 203.266 15.162 204.472 15.162 205.93C15.162 207.388 14.712 208.576 13.794 209.494C12.876 210.412 11.724 210.88 10.302 210.88ZM10.302 209.278C11.292 209.278 12.12 208.972 12.768 208.342C13.416 207.712 13.74 206.92 13.74 205.93C13.74 204.94 13.416 204.112 12.786 203.482C12.156 202.852 11.328 202.546 10.302 202.546C9.276 202.546 8.448 202.87 7.8 203.5C7.17 204.148 6.846 204.958 6.846 205.93C6.846 206.902 7.17 207.694 7.8 208.324C8.43 208.954 9.276 209.278 10.302 209.278ZM13.29 199.266L1.86 199.266L1.86 197.754L6.774 197.754C5.874 196.98 5.424 195.936 5.424 194.658C5.424 193.308 5.856 192.228 6.72 191.454C7.602 190.68 8.736 190.284 10.158 190.284C11.688 190.284 12.912 190.716 13.812 191.598C14.712 192.48 15.162 193.65 15.162 195.126C15.162 195.936 14.982 196.728 14.622 197.502C14.28 198.276 13.83 198.87 13.29 199.266ZM6.846 194.892C6.846 196.116 7.62 197.196 8.646 197.754L12.57 197.754C13.29 197.124 13.74 196.026 13.74 195.018C13.74 193.2 12.408 191.886 10.248 191.886C8.142 191.886 6.846 193.092 6.846 194.892ZM7.89 187.894L6.756 188.668C5.946 187.804 5.424 186.31 5.424 184.924C5.424 182.422 6.792 181.09 9.222 181.09L15 181.09L15 182.602L13.614 182.602C14.478 183.196 15.126 184.366 15.126 185.878C15.126 187.912 13.992 189.28 12.264 189.28C10.302 189.28 9.366 187.606 9.366 184.798C9.366 183.916 9.456 183.196 9.636 182.602C7.818 182.602 6.846 183.25 6.846 185.104C6.846 186.04 7.188 186.976 7.89 187.894ZM13.758 185.518C13.758 184.816 13.56 184.186 13.182 183.664C12.804 183.142 12.372 182.8 11.922 182.602L10.968 182.602C10.788 183.124 10.698 183.79 10.698 184.6C10.698 186.652 11.202 187.678 12.21 187.678C13.164 187.678 13.758 186.814 13.758 185.518ZM13.29 178.999L1.86 178.999L1.86 177.487L6.774 177.487C5.874 176.713 5.424 175.669 5.424 174.391C5.424 173.041 5.856 171.961 6.72 171.187C7.602 170.413 8.736 170.017 10.158 170.017C11.688 170.017 12.912 170.449 13.812 171.331C14.712 172.213 15.162 173.383 15.162 174.859C15.162 175.669 14.982 176.461 14.622 177.235C14.28 178.009 13.83 178.603 13.29 178.999ZM6.846 174.625C6.846 175.849 7.62 176.929 8.646 177.487L12.57 177.487C13.29 176.857 13.74 175.759 13.74 174.751C13.74 172.933 12.408 171.619 10.248 171.619C8.142 171.619 6.846 172.825 6.846 174.625ZM15 166.636L15 168.148L5.64 168.148L5.64 166.636L15 166.636ZM2.598 168.346C2.094 168.346 1.716 167.932 1.716 167.374C1.716 166.87 2.094 166.438 2.598 166.438C3.12 166.438 3.534 166.87 3.534 167.374C3.534 167.932 3.12 168.346 2.598 168.346ZM15 162.595L15 164.107L1.86 164.107L1.86 162.595L15 162.595ZM15 158.55L15 160.062L5.64 160.062L5.64 158.55L15 158.55ZM2.598 160.26C2.094 160.26 1.716 159.846 1.716 159.288C1.716 158.784 2.094 158.352 2.598 158.352C3.12 158.352 3.534 158.784 3.534 159.288C3.534 159.846 3.12 160.26 2.598 160.26ZM7.08 155.211L7.08 157.155L5.64 157.155L5.64 155.211L3.246 155.211L3.246 153.699L5.64 153.699L5.64 150.477L7.08 150.477L7.08 153.699L11.202 153.699C13.02 153.699 13.686 153.231 13.686 152.079C13.686 151.521 13.47 150.945 13.02 150.387L14.136 149.703C14.802 150.297 15.126 151.179 15.126 152.349C15.126 154.203 13.902 155.211 11.598 155.211L7.08 155.211ZM18.564 148.443L17.25 147.849C17.304 147.705 17.34 147.579 17.34 147.453C17.34 146.751 16.854 146.265 15.36 145.635L14.658 145.347L5.64 149.883L5.64 148.101L12.75 144.591L5.64 141.945L5.64 140.289L14.856 143.853C16.368 144.465 17.394 145.041 17.952 145.563C18.51 146.103 18.78 146.715 18.78 147.399C18.78 147.795 18.708 148.137 18.564 148.443Z" fill="#1A3341" fill-opacity="0.6"/>
<g opacity="0.8">
<rect opacity="0.9" y="486" width="10" height="10" fill="#F87B7B"/>
</g>
<path d="M19.98 495H18.888V486.6H19.98V490.656L24.228 486.6H25.656L21.696 490.404L25.944 495H24.504L20.88 491.124L19.98 491.988V495ZM31.4896 493.212L32.1376 493.812C31.5616 494.676 30.7336 495.108 29.6416 495.108C28.6456 495.108 27.8416 494.808 27.2296 494.22C26.6176 493.632 26.3176 492.852 26.3176 491.868C26.3176 490.92 26.5936 490.14 27.1576 489.528C27.7096 488.916 28.4896 488.616 29.4976 488.616C30.3256 488.616 31.0216 488.88 31.5616 489.396C32.1016 489.912 32.3776 490.596 32.3776 491.448C32.3776 491.724 32.3536 491.976 32.3176 492.204H27.3976C27.4576 493.44 28.3696 494.16 29.6776 494.16C30.4096 494.16 31.1056 493.776 31.4896 493.212ZM29.4256 489.54C28.2856 489.54 27.5416 490.236 27.3856 491.292H31.3096C31.2496 490.188 30.5416 489.54 29.4256 489.54ZM33.419 497.376L33.815 496.5C33.911 496.536 33.995 496.56 34.079 496.56C34.547 496.56 34.871 496.236 35.291 495.24L35.483 494.772L32.459 488.76H33.647L35.987 493.5L37.751 488.76H38.855L36.479 494.904C36.071 495.912 35.687 496.596 35.339 496.968C34.979 497.34 34.571 497.52 34.115 497.52C33.851 497.52 33.623 497.472 33.419 497.376ZM44.1384 495H43.1304V488.76H44.1384V489.24C44.3424 488.82 44.8824 488.628 45.4224 488.628C45.9744 488.628 46.3944 488.82 46.6944 489.192L46.0584 489.888C45.9024 489.684 45.6624 489.576 45.3144 489.576C44.7744 489.576 44.2824 490.02 44.1384 490.656V495ZM48.5126 495H47.5046V488.76H48.5126V495ZM47.3726 486.732C47.3726 486.396 47.6486 486.144 48.0206 486.144C48.3566 486.144 48.6446 486.396 48.6446 486.732C48.6446 487.08 48.3566 487.356 48.0206 487.356C47.6486 487.356 47.3726 487.08 47.3726 486.732ZM53.9311 493.296C53.9311 492.456 52.5031 492.324 51.3631 492C50.5831 491.772 49.9591 491.256 49.9591 490.404C49.9591 489.3 51.0031 488.616 52.5511 488.616C53.5951 488.616 54.4351 489.06 54.8791 489.696L54.1711 490.356C53.7751 489.828 53.1751 489.564 52.3711 489.564C51.6511 489.564 51.0271 489.84 51.0271 490.356C51.0271 491.088 52.4551 491.22 53.5951 491.568C54.3631 491.808 54.9871 492.384 54.9871 493.284C54.9871 494.496 54.0151 495.108 52.4911 495.108C51.2071 495.108 50.1151 494.532 49.6711 493.632L50.4751 493.068C50.8471 493.728 51.6991 494.16 52.6591 494.16C53.5111 494.16 53.9311 493.872 53.9311 493.296ZM57.0759 495H56.0679V486.24H57.0759V491.532L60.0999 488.76H61.4559L58.4559 491.532L61.6599 495H60.3279L57.5679 492.096L57.0759 492.504V495ZM66.1889 493.296C66.1889 492.456 64.7609 492.324 63.6209 492C62.8409 491.772 62.2169 491.256 62.2169 490.404C62.2169 489.3 63.2609 488.616 64.8089 488.616C65.8529 488.616 66.6929 489.06 67.1369 489.696L66.4289 490.356C66.0329 489.828 65.4329 489.564 64.6289 489.564C63.9089 489.564 63.2849 489.84 63.2849 490.356C63.2849 491.088 64.7129 491.22 65.8529 491.568C66.6209 491.808 67.2449 492.384 67.2449 493.284C67.2449 494.496 66.2729 495.108 64.7489 495.108C63.4649 495.108 62.3729 494.532 61.9289 493.632L62.7329 493.068C63.1049 493.728 63.9569 494.16 64.9169 494.16C65.7689 494.16 66.1889 493.872 66.1889 493.296ZM72.4034 490.26L71.8874 489.504C72.4634 488.964 73.4594 488.616 74.3834 488.616C76.0514 488.616 76.9394 489.528 76.9394 491.148V495H75.9314V494.076C75.5354 494.652 74.7554 495.084 73.7474 495.084C72.3914 495.084 71.4794 494.328 71.4794 493.176C71.4794 491.868 72.5954 491.244 74.4674 491.244C75.0554 491.244 75.5354 491.304 75.9314 491.424C75.9314 490.212 75.4994 489.564 74.2634 489.564C73.6394 489.564 73.0154 489.792 72.4034 490.26ZM73.9874 494.172C74.4554 494.172 74.8754 494.04 75.2234 493.788C75.5714 493.536 75.7994 493.248 75.9314 492.948V492.312C75.5834 492.192 75.1394 492.132 74.5994 492.132C73.2314 492.132 72.5474 492.468 72.5474 493.14C72.5474 493.776 73.1234 494.172 73.9874 494.172ZM79.3416 495H78.3336V488.76H79.3416V489.24C79.5456 488.82 80.0856 488.628 80.6256 488.628C81.1776 488.628 81.5976 488.82 81.8976 489.192L81.2616 489.888C81.1056 489.684 80.8656 489.576 80.5176 489.576C79.9776 489.576 79.4856 490.02 79.3416 490.656V495ZM87.0365 493.212L87.6845 493.812C87.1085 494.676 86.2805 495.108 85.1885 495.108C84.1925 495.108 83.3885 494.808 82.7765 494.22C82.1645 493.632 81.8645 492.852 81.8645 491.868C81.8645 490.92 82.1405 490.14 82.7045 489.528C83.2565 488.916 84.0365 488.616 85.0445 488.616C85.8725 488.616 86.5685 488.88 87.1085 489.396C87.6485 489.912 87.9245 490.596 87.9245 491.448C87.9245 491.724 87.9005 491.976 87.8645 492.204H82.9445C83.0045 493.44 83.9165 494.16 85.2245 494.16C85.9565 494.16 86.6525 493.776 87.0365 493.212ZM84.9725 489.54C83.8325 489.54 83.0885 490.236 82.9325 491.292H86.8565C86.7965 490.188 86.0885 489.54 84.9725 489.54ZM89.5245 490.26L89.0085 489.504C89.5845 488.964 90.5805 488.616 91.5045 488.616C93.1725 488.616 94.0605 489.528 94.0605 491.148V495H93.0525V494.076C92.6565 494.652 91.8765 495.084 90.8685 495.084C89.5125 495.084 88.6005 494.328 88.6005 493.176C88.6005 491.868 89.7165 491.244 91.5885 491.244C92.1765 491.244 92.6565 491.304 93.0525 491.424C93.0525 490.212 92.6205 489.564 91.3845 489.564C90.7605 489.564 90.1365 489.792 89.5245 490.26ZM91.1085 494.172C91.5765 494.172 91.9965 494.04 92.3445 493.788C92.6925 493.536 92.9205 493.248 93.0525 492.948V492.312C92.7045 492.192 92.2605 492.132 91.7205 492.132C90.3525 492.132 89.6685 492.468 89.6685 493.14C89.6685 493.776 90.2445 494.172 91.1085 494.172Z" fill="#76848D"/>
<rect width="10" height="10" transform="translate(0 506)" fill="#F5E386"/>
<path d="M23.76 512.768C23.76 510.692 18.576 511.892 18.576 508.796C18.576 508.148 18.864 507.596 19.44 507.152C20.004 506.708 20.76 506.492 21.684 506.492C23.088 506.492 24.108 506.9 24.744 507.716L24.036 508.424C23.436 507.824 22.644 507.524 21.66 507.524C21.168 507.524 20.724 507.62 20.316 507.824C19.908 508.028 19.704 508.352 19.704 508.772C19.704 509.816 21 510.02 22.296 510.368C23.592 510.716 24.888 511.184 24.888 512.684C24.888 513.392 24.6 513.98 24.024 514.424C23.448 514.88 22.716 515.108 21.84 515.108C21.12 515.108 20.448 514.952 19.812 514.628C19.176 514.316 18.696 513.932 18.396 513.488L19.104 512.72C19.692 513.488 20.736 514.076 21.948 514.076C22.956 514.076 23.76 513.572 23.76 512.768ZM27.2314 515H26.2234V508.76H27.2314V515ZM26.0914 506.732C26.0914 506.396 26.3674 506.144 26.7394 506.144C27.0754 506.144 27.3634 506.396 27.3634 506.732C27.3634 507.08 27.0754 507.356 26.7394 507.356C26.3674 507.356 26.0914 507.08 26.0914 506.732ZM33.4658 508.76H34.4858V514.52C34.4858 516.536 33.3818 517.508 31.6898 517.508C30.3338 517.508 29.2538 516.92 28.9058 515.996L29.8058 515.6C30.0818 516.14 30.7058 516.548 31.6298 516.548C32.8298 516.548 33.4658 515.864 33.4658 514.7V514.328C32.9978 514.868 32.5538 515.108 31.5818 515.108C30.6338 515.108 29.8898 514.82 29.3258 514.232C28.7618 513.656 28.4738 512.864 28.4738 511.868C28.4738 510.884 28.7738 510.092 29.3738 509.504C29.9618 508.916 30.7058 508.628 31.5938 508.628C32.4698 508.628 33.1418 508.928 33.4658 509.312V508.76ZM31.7498 514.16C32.6018 514.16 33.2378 513.632 33.4658 512.972V510.464C33.1658 509.936 32.5418 509.576 31.7378 509.576C31.1138 509.576 30.5978 509.78 30.1778 510.188C29.7578 510.596 29.5418 511.16 29.5418 511.892C29.5418 513.296 30.3938 514.16 31.7498 514.16ZM36.9431 515H35.9351V508.76H36.9431V509.576C37.3391 508.964 38.1551 508.628 39.0791 508.628C40.7711 508.628 41.6111 509.564 41.6111 511.448V515H40.6031V511.568C40.6031 510.188 40.0151 509.576 38.7791 509.576C38.0111 509.576 37.2791 510.08 36.9431 510.836V515ZM44.1415 515H43.1335V508.76H44.1415V515ZM43.0015 506.732C43.0015 506.396 43.2775 506.144 43.6495 506.144C43.9855 506.144 44.2735 506.396 44.2735 506.732C44.2735 507.08 43.9855 507.356 43.6495 507.356C43.2775 507.356 43.0015 507.08 43.0015 506.732ZM46.176 509.72H45.024V508.76H46.176V508.472C46.176 507.668 46.38 507.068 46.788 506.696C47.184 506.324 47.676 506.144 48.264 506.144C48.648 506.144 48.936 506.216 49.14 506.36L48.768 507.224C48.66 507.14 48.516 507.104 48.312 507.104C47.556 507.104 47.184 507.584 47.184 508.556V508.76H49.032V509.72H47.184V515H46.176V509.72ZM50.868 515H49.86V508.76H50.868V515ZM49.728 506.852C49.728 506.516 50.004 506.264 50.376 506.264C50.712 506.264 51 506.516 51 506.852C51 507.2 50.712 507.476 50.376 507.476C50.004 507.476 49.728 507.2 49.728 506.852ZM57.2946 513.2L58.0146 513.716C57.5466 514.592 56.4906 515.108 55.4466 515.108C54.4506 515.108 53.6466 514.808 53.0346 514.22C52.4226 513.632 52.1106 512.852 52.1106 511.868C52.1106 510.932 52.4106 510.152 53.0226 509.54C53.6346 508.928 54.4146 508.616 55.3866 508.616C56.5026 508.616 57.4986 509.12 57.9186 509.888L57.1386 510.416C56.7186 509.852 56.1426 509.564 55.4106 509.564C54.7626 509.564 54.2346 509.78 53.8146 510.212C53.3946 510.644 53.1786 511.196 53.1786 511.868C53.1786 512.552 53.3946 513.104 53.8386 513.524C54.2706 513.944 54.8346 514.16 55.5426 514.16C56.2866 514.16 56.8746 513.836 57.2946 513.2ZM59.3253 510.26L58.8093 509.504C59.3853 508.964 60.3813 508.616 61.3053 508.616C62.9733 508.616 63.8613 509.528 63.8613 511.148V515H62.8533V514.076C62.4573 514.652 61.6773 515.084 60.6693 515.084C59.3133 515.084 58.4013 514.328 58.4013 513.176C58.4013 511.868 59.5173 511.244 61.3893 511.244C61.9773 511.244 62.4573 511.304 62.8533 511.424C62.8533 510.212 62.4213 509.564 61.1853 509.564C60.5613 509.564 59.9373 509.792 59.3253 510.26ZM60.9093 514.172C61.3773 514.172 61.7973 514.04 62.1453 513.788C62.4933 513.536 62.7213 513.248 62.8533 512.948V512.312C62.5053 512.192 62.0613 512.132 61.5213 512.132C60.1533 512.132 59.4693 512.468 59.4693 513.14C59.4693 513.776 60.0453 514.172 60.9093 514.172ZM66.2634 515H65.2554V508.76H66.2634V509.576C66.6594 508.964 67.4754 508.628 68.3994 508.628C70.0914 508.628 70.9314 509.564 70.9314 511.448V515H69.9234V511.568C69.9234 510.188 69.3354 509.576 68.0994 509.576C67.3314 509.576 66.5994 510.08 66.2634 510.836V515ZM72.9578 509.72H71.6618V508.76H72.9578V507.164H73.9658V508.76H76.1138V509.72H73.9658V512.468C73.9658 513.68 74.2778 514.124 75.0458 514.124C75.4178 514.124 75.8018 513.98 76.1738 513.68L76.6298 514.424C76.2338 514.868 75.6458 515.084 74.8658 515.084C73.6298 515.084 72.9578 514.268 72.9578 512.732V509.72ZM81.9666 515H80.9586V508.76H81.9666V509.24C82.1706 508.82 82.7106 508.628 83.2506 508.628C83.8026 508.628 84.2226 508.82 84.5226 509.192L83.8866 509.888C83.7306 509.684 83.4906 509.576 83.1426 509.576C82.6026 509.576 82.1106 510.02 81.9666 510.656V515ZM86.3408 515H85.3328V508.76H86.3408V515ZM85.2008 506.732C85.2008 506.396 85.4768 506.144 85.8488 506.144C86.1848 506.144 86.4728 506.396 86.4728 506.732C86.4728 507.08 86.1848 507.356 85.8488 507.356C85.4768 507.356 85.2008 507.08 85.2008 506.732ZM91.7592 513.296C91.7592 512.456 90.3312 512.324 89.1912 512C88.4112 511.772 87.7872 511.256 87.7872 510.404C87.7872 509.3 88.8312 508.616 90.3792 508.616C91.4232 508.616 92.2632 509.06 92.7072 509.696L91.9992 510.356C91.6032 509.828 91.0032 509.564 90.1992 509.564C89.4792 509.564 88.8552 509.84 88.8552 510.356C88.8552 511.088 90.2832 511.22 91.4232 511.568C92.1912 511.808 92.8152 512.384 92.8152 513.284C92.8152 514.496 91.8432 515.108 90.3192 515.108C89.0352 515.108 87.9432 514.532 87.4992 513.632L88.3032 513.068C88.6752 513.728 89.5272 514.16 90.4872 514.16C91.3392 514.16 91.7592 513.872 91.7592 513.296ZM94.9041 515H93.8961V506.24H94.9041V511.532L97.9281 508.76H99.2841L96.2841 511.532L99.4881 515H98.1561L95.3961 512.096L94.9041 512.504V515ZM104.017 513.296C104.017 512.456 102.589 512.324 101.449 512C100.669 511.772 100.045 511.256 100.045 510.404C100.045 509.3 101.089 508.616 102.637 508.616C103.681 508.616 104.521 509.06 104.965 509.696L104.257 510.356C103.861 509.828 103.261 509.564 102.457 509.564C101.737 509.564 101.113 509.84 101.113 510.356C101.113 511.088 102.541 511.22 103.681 511.568C104.449 511.808 105.073 512.384 105.073 513.284C105.073 514.496 104.101 515.108 102.577 515.108C101.293 515.108 100.201 514.532 99.757 513.632L100.561 513.068C100.933 513.728 101.785 514.16 102.745 514.16C103.597 514.16 104.017 513.872 104.017 513.296ZM110.232 510.26L109.716 509.504C110.292 508.964 111.288 508.616 112.212 508.616C113.88 508.616 114.768 509.528 114.768 511.148V515H113.76V514.076C113.364 514.652 112.584 515.084 111.576 515.084C110.22 515.084 109.308 514.328 109.308 513.176C109.308 511.868 110.424 511.244 112.296 511.244C112.884 511.244 113.364 511.304 113.76 511.424C113.76 510.212 113.328 509.564 112.092 509.564C111.468 509.564 110.844 509.792 110.232 510.26ZM111.816 514.172C112.284 514.172 112.704 514.04 113.052 513.788C113.4 513.536 113.628 513.248 113.76 512.948V512.312C113.412 512.192 112.968 512.132 112.428 512.132C111.06 512.132 110.376 512.468 110.376 513.14C110.376 513.776 110.952 514.172 111.816 514.172ZM117.17 515H116.162V508.76H117.17V509.24C117.374 508.82 117.914 508.628 118.454 508.628C119.006 508.628 119.426 508.82 119.726 509.192L119.09 509.888C118.934 509.684 118.694 509.576 118.346 509.576C117.806 509.576 117.314 510.02 117.17 510.656V515ZM124.865 513.212L125.513 513.812C124.937 514.676 124.109 515.108 123.017 515.108C122.021 515.108 121.217 514.808 120.605 514.22C119.993 513.632 119.693 512.852 119.693 511.868C119.693 510.92 119.969 510.14 120.533 509.528C121.085 508.916 121.865 508.616 122.873 508.616C123.701 508.616 124.397 508.88 124.937 509.396C125.477 509.912 125.753 510.596 125.753 511.448C125.753 511.724 125.729 511.976 125.693 512.204H120.773C120.833 513.44 121.745 514.16 123.053 514.16C123.785 514.16 124.481 513.776 124.865 513.212ZM122.801 509.54C121.661 509.54 120.917 510.236 120.761 511.292H124.685C124.625 510.188 123.917 509.54 122.801 509.54ZM127.353 510.26L126.837 509.504C127.413 508.964 128.409 508.616 129.333 508.616C131.001 508.616 131.889 509.528 131.889 511.148V515H130.881V514.076C130.485 514.652 129.705 515.084 128.697 515.084C127.341 515.084 126.429 514.328 126.429 513.176C126.429 511.868 127.545 511.244 129.417 511.244C130.005 511.244 130.485 511.304 130.881 511.424C130.881 510.212 130.449 509.564 129.213 509.564C128.589 509.564 127.965 509.792 127.353 510.26ZM128.937 514.172C129.405 514.172 129.825 514.04 130.173 513.788C130.521 513.536 130.749 513.248 130.881 512.948V512.312C130.533 512.192 130.089 512.132 129.549 512.132C128.181 512.132 127.497 512.468 127.497 513.14C127.497 513.776 128.073 514.172 128.937 514.172Z" fill="#76848D"/>
<rect width="10" height="10" transform="translate(0 526)" fill="#88C591"/>
<path d="M19.98 535H18.888V526.6H19.896L23.088 530.824L26.172 526.6H27.156V535H26.064V528.484L23.196 532.348H22.932L19.98 528.484V535ZM29.915 535H28.907V528.76H29.915V535ZM28.775 526.732C28.775 526.396 29.051 526.144 29.423 526.144C29.759 526.144 30.047 526.396 30.047 526.732C30.047 527.08 29.759 527.356 29.423 527.356C29.051 527.356 28.775 527.08 28.775 526.732ZM32.5134 535H31.5054V528.76H32.5134V529.576C32.9094 528.964 33.7254 528.628 34.6494 528.628C36.3414 528.628 37.1814 529.564 37.1814 531.448V535H36.1734V531.568C36.1734 530.188 35.5854 529.576 34.3494 529.576C33.5814 529.576 32.8494 530.08 32.5134 530.836V535ZM38.2238 531.868C38.2238 530.92 38.5358 530.14 39.1478 529.528C39.7598 528.916 40.5518 528.616 41.5238 528.616C42.5078 528.616 43.3118 528.916 43.9238 529.528C44.5358 530.14 44.8478 530.92 44.8478 531.868C44.8478 532.816 44.5358 533.584 43.9238 534.196C43.2998 534.808 42.4958 535.108 41.5238 535.108C40.5518 535.108 39.7598 534.808 39.1478 534.196C38.5358 533.584 38.2238 532.816 38.2238 531.868ZM39.2918 531.868C39.2918 532.528 39.4958 533.08 39.9158 533.512C40.3358 533.944 40.8638 534.16 41.5238 534.16C42.1838 534.16 42.7358 533.944 43.1558 533.524C43.5758 533.104 43.7798 532.552 43.7798 531.868C43.7798 531.184 43.5638 530.632 43.1438 530.2C42.7118 529.78 42.1718 529.564 41.5238 529.564C40.8758 529.564 40.3478 529.78 39.9278 530.2C39.5078 530.62 39.2918 531.184 39.2918 531.868ZM46.9744 535H45.9664V528.76H46.9744V529.24C47.1784 528.82 47.7184 528.628 48.2584 528.628C48.8104 528.628 49.2304 528.82 49.5304 529.192L48.8944 529.888C48.7384 529.684 48.4984 529.576 48.1504 529.576C47.6104 529.576 47.1184 530.02 46.9744 530.656V535ZM54.8142 535H53.8062V528.76H54.8142V529.24C55.0182 528.82 55.5582 528.628 56.0982 528.628C56.6502 528.628 57.0702 528.82 57.3702 529.192L56.7342 529.888C56.5782 529.684 56.3382 529.576 55.9902 529.576C55.4502 529.576 54.9582 530.02 54.8142 530.656V535ZM59.1884 535H58.1804V528.76H59.1884V535ZM58.0484 526.732C58.0484 526.396 58.3244 526.144 58.6964 526.144C59.0324 526.144 59.3204 526.396 59.3204 526.732C59.3204 527.08 59.0324 527.356 58.6964 527.356C58.3244 527.356 58.0484 527.08 58.0484 526.732ZM64.6069 533.296C64.6069 532.456 63.1789 532.324 62.0389 532C61.2589 531.772 60.6349 531.256 60.6349 530.404C60.6349 529.3 61.6789 528.616 63.2269 528.616C64.2709 528.616 65.1109 529.06 65.5549 529.696L64.8469 530.356C64.4509 529.828 63.8509 529.564 63.0469 529.564C62.3269 529.564 61.7029 529.84 61.7029 530.356C61.7029 531.088 63.1309 531.22 64.2709 531.568C65.0389 531.808 65.6629 532.384 65.6629 533.284C65.6629 534.496 64.6909 535.108 63.1669 535.108C61.8829 535.108 60.7909 534.532 60.3469 533.632L61.1509 533.068C61.5229 533.728 62.3749 534.16 63.3349 534.16C64.1869 534.16 64.6069 533.872 64.6069 533.296ZM67.7517 535H66.7437V526.24H67.7517V531.532L70.7757 528.76H72.1317L69.1317 531.532L72.3357 535H71.0037L68.2437 532.096L67.7517 532.504V535ZM76.8647 533.296C76.8647 532.456 75.4367 532.324 74.2967 532C73.5167 531.772 72.8927 531.256 72.8927 530.404C72.8927 529.3 73.9367 528.616 75.4847 528.616C76.5287 528.616 77.3687 529.06 77.8127 529.696L77.1047 530.356C76.7087 529.828 76.1087 529.564 75.3047 529.564C74.5847 529.564 73.9607 529.84 73.9607 530.356C73.9607 531.088 75.3887 531.22 76.5287 531.568C77.2967 531.808 77.9207 532.384 77.9207 533.284C77.9207 534.496 76.9487 535.108 75.4247 535.108C74.1407 535.108 73.0487 534.532 72.6047 533.632L73.4087 533.068C73.7807 533.728 74.6327 534.16 75.5927 534.16C76.4447 534.16 76.8647 533.872 76.8647 533.296ZM83.0792 530.26L82.5632 529.504C83.1392 528.964 84.1352 528.616 85.0592 528.616C86.7272 528.616 87.6152 529.528 87.6152 531.148V535H86.6072V534.076C86.2112 534.652 85.4312 535.084 84.4232 535.084C83.0672 535.084 82.1552 534.328 82.1552 533.176C82.1552 531.868 83.2712 531.244 85.1432 531.244C85.7312 531.244 86.2112 531.304 86.6072 531.424C86.6072 530.212 86.1752 529.564 84.9392 529.564C84.3152 529.564 83.6912 529.792 83.0792 530.26ZM84.6632 534.172C85.1312 534.172 85.5512 534.04 85.8992 533.788C86.2472 533.536 86.4752 533.248 86.6072 532.948V532.312C86.2592 532.192 85.8152 532.132 85.2752 532.132C83.9072 532.132 83.2232 532.468 83.2232 533.14C83.2232 533.776 83.7992 534.172 84.6632 534.172ZM90.0173 535H89.0093V528.76H90.0173V529.24C90.2213 528.82 90.7613 528.628 91.3013 528.628C91.8533 528.628 92.2733 528.82 92.5733 529.192L91.9373 529.888C91.7813 529.684 91.5413 529.576 91.1933 529.576C90.6533 529.576 90.1613 530.02 90.0173 530.656V535ZM97.7123 533.212L98.3603 533.812C97.7843 534.676 96.9563 535.108 95.8643 535.108C94.8683 535.108 94.0643 534.808 93.4523 534.22C92.8403 533.632 92.5403 532.852 92.5403 531.868C92.5403 530.92 92.8163 530.14 93.3803 529.528C93.9323 528.916 94.7123 528.616 95.7203 528.616C96.5483 528.616 97.2443 528.88 97.7843 529.396C98.3242 529.912 98.6003 530.596 98.6003 531.448C98.6003 531.724 98.5763 531.976 98.5403 532.204H93.6203C93.6803 533.44 94.5923 534.16 95.9003 534.16C96.6323 534.16 97.3283 533.776 97.7123 533.212ZM95.6483 529.54C94.5083 529.54 93.7643 530.236 93.6083 531.292H97.5323C97.4723 530.188 96.7643 529.54 95.6483 529.54ZM100.2 530.26L99.6843 529.504C100.26 528.964 101.256 528.616 102.18 528.616C103.848 528.616 104.736 529.528 104.736 531.148V535H103.728V534.076C103.332 534.652 102.552 535.084 101.544 535.084C100.188 535.084 99.2763 534.328 99.2763 533.176C99.2763 531.868 100.392 531.244 102.264 531.244C102.852 531.244 103.332 531.304 103.728 531.424C103.728 530.212 103.296 529.564 102.06 529.564C101.436 529.564 100.812 529.792 100.2 530.26ZM101.784 534.172C102.252 534.172 102.672 534.04 103.02 533.788C103.368 533.536 103.596 533.248 103.728 532.948V532.312C103.38 532.192 102.936 532.132 102.396 532.132C101.028 532.132 100.344 532.468 100.344 533.14C100.344 533.776 100.92 534.172 101.784 534.172Z" fill="#76848D"/>
</svg>
