<svg width="335" height="225" viewBox="0 0 335 225" fill="none" xmlns="http://www.w3.org/2000/svg">
<path d="M164.648 60.386L164.2 59.336L167.56 57.726H168.358V67.582H167.154V59.224L164.648 60.386ZM170.241 66.784C170.241 66.392 170.605 66 171.109 66C171.571 66 171.949 66.392 171.949 66.784C171.949 67.232 171.599 67.61 171.109 67.61C170.605 67.61 170.241 67.232 170.241 66.784ZM176.971 61.996H177.405C178.035 61.996 178.553 61.842 178.987 61.548C179.407 61.254 179.617 60.862 179.617 60.4C179.617 59.35 178.791 58.818 177.153 58.818C175.585 58.818 174.731 59.392 174.731 60.4C174.731 61.31 175.669 61.996 176.971 61.996ZM177.377 63.102H177.027C176.271 63.102 175.641 63.27 175.151 63.592C174.661 63.914 174.409 64.32 174.409 64.81C174.409 65.874 175.389 66.546 177.167 66.546C178.973 66.546 179.939 65.902 179.939 64.824C179.939 63.746 178.903 63.102 177.377 63.102ZM180.135 66.952C179.421 67.456 178.427 67.708 177.181 67.708C175.935 67.708 174.941 67.456 174.213 66.966C173.485 66.476 173.121 65.804 173.121 64.936C173.121 63.802 173.863 62.906 175.053 62.514C173.975 62.164 173.443 61.31 173.443 60.316C173.443 58.692 174.815 57.656 177.167 57.656C179.533 57.656 180.905 58.692 180.905 60.316C180.905 61.254 180.387 61.968 179.351 62.444C180.597 62.822 181.213 63.634 181.213 64.88C181.213 65.762 180.849 66.462 180.135 66.952Z" fill="#2A3C3C"/>
<path d="M164.648 60.386L164.2 59.336L167.56 57.726H168.358V67.582H167.154V59.224L164.648 60.386ZM170.241 66.784C170.241 66.392 170.605 66 171.109 66C171.571 66 171.949 66.392 171.949 66.784C171.949 67.232 171.599 67.61 171.109 67.61C170.605 67.61 170.241 67.232 170.241 66.784ZM176.971 61.996H177.405C178.035 61.996 178.553 61.842 178.987 61.548C179.407 61.254 179.617 60.862 179.617 60.4C179.617 59.35 178.791 58.818 177.153 58.818C175.585 58.818 174.731 59.392 174.731 60.4C174.731 61.31 175.669 61.996 176.971 61.996ZM177.377 63.102H177.027C176.271 63.102 175.641 63.27 175.151 63.592C174.661 63.914 174.409 64.32 174.409 64.81C174.409 65.874 175.389 66.546 177.167 66.546C178.973 66.546 179.939 65.902 179.939 64.824C179.939 63.746 178.903 63.102 177.377 63.102ZM180.135 66.952C179.421 67.456 178.427 67.708 177.181 67.708C175.935 67.708 174.941 67.456 174.213 66.966C173.485 66.476 173.121 65.804 173.121 64.936C173.121 63.802 173.863 62.906 175.053 62.514C173.975 62.164 173.443 61.31 173.443 60.316C173.443 58.692 174.815 57.656 177.167 57.656C179.533 57.656 180.905 58.692 180.905 60.316C180.905 61.254 180.387 61.968 179.351 62.444C180.597 62.822 181.213 63.634 181.213 64.88C181.213 65.762 180.849 66.462 180.135 66.952Z" fill="#1A3341"/>
<path d="M156.69 216.382C156.69 215.17 157.098 214.138 157.926 213.31C158.754 212.482 159.762 212.074 160.962 212.074C162.15 212.074 163.158 212.482 163.986 213.298C164.814 214.114 165.222 215.146 165.222 216.382C165.222 217.606 164.814 218.626 163.986 219.454C163.158 220.282 162.15 220.69 160.962 220.69C159.762 220.69 158.754 220.282 157.926 219.466C157.098 218.65 156.69 217.618 156.69 216.382ZM157.83 216.382C157.83 217.318 158.142 218.098 158.754 218.71C159.366 219.334 160.098 219.646 160.962 219.646C161.85 219.646 162.594 219.334 163.194 218.722C163.782 218.11 164.082 217.33 164.082 216.382C164.082 215.434 163.782 214.654 163.17 214.042C162.558 213.43 161.814 213.118 160.962 213.118C160.086 213.118 159.354 213.43 158.742 214.042C158.13 214.654 157.83 215.434 157.83 216.382ZM172.581 220.582H166.425V212.182H172.473V213.202H167.517V215.818H172.137V216.814H167.517V219.562H172.581V220.582ZM180.461 218.518L181.085 219.214C180.449 220.114 179.177 220.69 177.821 220.69C176.501 220.69 175.445 220.294 174.665 219.514C173.885 218.734 173.489 217.69 173.489 216.382C173.489 215.146 173.885 214.126 174.665 213.298C175.445 212.482 176.465 212.074 177.737 212.074C179.177 212.074 180.353 212.65 180.965 213.466L180.257 214.15C179.573 213.466 178.733 213.118 177.761 213.118C176.789 213.118 176.033 213.418 175.469 214.018C174.905 214.618 174.629 215.41 174.629 216.382C174.629 217.366 174.929 218.158 175.529 218.746C176.129 219.346 176.921 219.646 177.893 219.646C178.937 219.646 179.789 219.274 180.461 218.518ZM184.559 220.582H182.087V212.182H184.679C188.087 212.182 189.311 214.066 189.311 216.262C189.311 217.534 188.915 218.566 188.111 219.37C187.307 220.174 186.131 220.582 184.559 220.582ZM184.655 213.202H183.179V219.562H184.631C187.031 219.562 188.183 218.278 188.183 216.262C188.183 214.378 187.115 213.202 184.655 213.202Z" fill="#76848D"/>
<path d="M145 79.582C145 78.4775 145.895 77.582 147 77.582H199C200.105 77.582 201 78.4775 201 79.582V205.582H145V79.582Z" fill="url(#paint0_linear_2355_31860)"/>
<path opacity="0.2" d="M157 77.582H189V205.582H157V77.582Z" fill="url(#paint1_linear_2355_31860)"/>
<path opacity="0.04" d="M189 77.582H199C200.105 77.582 201 78.4775 201 79.582V205.582H189V77.582Z" fill="#0D262C"/>
<path opacity="0.5" d="M145 79.582C145 78.4775 145.895 77.582 147 77.582H157V205.582H145V79.582Z" fill="url(#paint2_linear_2355_31860)"/>
<path d="M268.369 4.01603L267.347 3.65203C267.697 1.91603 269.013 0.670031 271.099 0.670031C273.115 0.670031 274.347 1.83203 274.347 3.61003C274.347 4.54803 273.941 5.48603 273.437 6.15803C273.185 6.50803 272.863 6.84403 272.485 7.19403C271.715 7.88003 271.169 8.24403 270.371 8.74803L269.293 9.42003H274.711V10.582H267.081V9.63003L269.209 8.21603C269.587 7.97803 269.853 7.79603 270.007 7.68403C270.161 7.58603 270.413 7.40403 270.749 7.16603C271.085 6.92803 271.337 6.71803 271.505 6.56403C271.659 6.41003 271.869 6.21403 272.107 5.96203C272.751 5.26203 272.989 4.61803 273.059 3.73603C273.059 2.46203 272.233 1.88803 271.015 1.88803C270.259 1.88803 269.657 2.09803 269.223 2.51803C268.789 2.93803 268.495 3.44203 268.369 4.01603ZM275.779 9.78403C275.779 9.39203 276.143 9.00003 276.647 9.00003C277.109 9.00003 277.487 9.39203 277.487 9.78403C277.487 10.232 277.137 10.61 276.647 10.61C276.143 10.61 275.779 10.232 275.779 9.78403ZM278.645 5.94803C278.645 4.25403 279.065 2.95203 279.891 2.02803C280.717 1.11803 281.753 0.656031 282.999 0.656031C284.637 0.656031 285.925 1.39803 286.471 2.57403L285.519 3.21803C284.945 2.30803 284.091 1.86003 282.943 1.86003C282.075 1.86003 281.347 2.19603 280.759 2.86803C280.171 3.55403 279.877 4.47803 279.891 5.66803C280.437 4.64603 281.711 4.03003 283.111 4.03003C284.245 4.03003 285.155 4.32403 285.813 4.92603C286.471 5.52803 286.807 6.32603 286.807 7.30603C286.807 8.30003 286.443 9.12603 285.701 9.75603C284.959 10.386 284.035 10.708 282.929 10.708C280.283 10.708 278.645 8.98603 278.645 5.94803ZM280.045 7.13803C280.311 8.52403 281.361 9.50403 282.915 9.50403C283.671 9.50403 284.301 9.30803 284.791 8.90203C285.281 8.51003 285.519 7.99203 285.519 7.36203C285.519 5.97603 284.539 5.23403 283.041 5.23403C282.215 5.23403 281.529 5.43003 280.997 5.82203C280.451 6.21403 280.143 6.64803 280.045 7.13803Z" fill="#2A3C3C"/>
<path d="M268.369 4.01603L267.347 3.65203C267.697 1.91603 269.013 0.670031 271.099 0.670031C273.115 0.670031 274.347 1.83203 274.347 3.61003C274.347 4.54803 273.941 5.48603 273.437 6.15803C273.185 6.50803 272.863 6.84403 272.485 7.19403C271.715 7.88003 271.169 8.24403 270.371 8.74803L269.293 9.42003H274.711V10.582H267.081V9.63003L269.209 8.21603C269.587 7.97803 269.853 7.79603 270.007 7.68403C270.161 7.58603 270.413 7.40403 270.749 7.16603C271.085 6.92803 271.337 6.71803 271.505 6.56403C271.659 6.41003 271.869 6.21403 272.107 5.96203C272.751 5.26203 272.989 4.61803 273.059 3.73603C273.059 2.46203 272.233 1.88803 271.015 1.88803C270.259 1.88803 269.657 2.09803 269.223 2.51803C268.789 2.93803 268.495 3.44203 268.369 4.01603ZM275.779 9.78403C275.779 9.39203 276.143 9.00003 276.647 9.00003C277.109 9.00003 277.487 9.39203 277.487 9.78403C277.487 10.232 277.137 10.61 276.647 10.61C276.143 10.61 275.779 10.232 275.779 9.78403ZM278.645 5.94803C278.645 4.25403 279.065 2.95203 279.891 2.02803C280.717 1.11803 281.753 0.656031 282.999 0.656031C284.637 0.656031 285.925 1.39803 286.471 2.57403L285.519 3.21803C284.945 2.30803 284.091 1.86003 282.943 1.86003C282.075 1.86003 281.347 2.19603 280.759 2.86803C280.171 3.55403 279.877 4.47803 279.891 5.66803C280.437 4.64603 281.711 4.03003 283.111 4.03003C284.245 4.03003 285.155 4.32403 285.813 4.92603C286.471 5.52803 286.807 6.32603 286.807 7.30603C286.807 8.30003 286.443 9.12603 285.701 9.75603C284.959 10.386 284.035 10.708 282.929 10.708C280.283 10.708 278.645 8.98603 278.645 5.94803ZM280.045 7.13803C280.311 8.52403 281.361 9.50403 282.915 9.50403C283.671 9.50403 284.301 9.30803 284.791 8.90203C285.281 8.51003 285.519 7.99203 285.519 7.36203C285.519 5.97603 284.539 5.23403 283.041 5.23403C282.215 5.23403 281.529 5.43003 280.997 5.82203C280.451 6.21403 280.143 6.64803 280.045 7.13803Z" fill="#1A3341"/>
<path d="M269.039 220.582H267.947V212.182H269.039V220.582ZM271.791 220.582H270.699V212.182H271.707L274.899 216.406L277.983 212.182H278.967V220.582H277.875V214.066L275.007 217.93H274.743L271.791 214.066V220.582ZM281.726 220.582H280.622V212.182H286.658V213.202H281.726V216.082H286.322V217.102H281.726V220.582Z" fill="#76848D"/>
<path d="M249 22.582C249 21.4775 249.895 20.582 251 20.582H303C304.105 20.582 305 21.4775 305 22.582V205.582H249V22.582Z" fill="url(#paint3_linear_2355_31860)"/>
<path opacity="0.2" d="M261 20.582H293V205.582H261V20.582Z" fill="url(#paint4_linear_2355_31860)"/>
<path opacity="0.04" d="M293 20.582H303C304.105 20.582 305 21.4775 305 22.582V205.582H293V20.582Z" fill="#0D262C"/>
<path opacity="0.5" d="M249 22.582C249 21.4775 249.895 20.582 251 20.582H261V205.582H249V22.582Z" fill="url(#paint5_linear_2355_31860)"/>
<path d="M60.9962 95.386L60.5482 94.336L63.9082 92.726H64.7062V102.582H63.5022V94.224L60.9962 95.386ZM66.5896 101.784C66.5896 101.392 66.9536 101 67.4576 101C67.9196 101 68.2976 101.392 68.2976 101.784C68.2976 102.232 67.9476 102.61 67.4576 102.61C66.9536 102.61 66.5896 102.232 66.5896 101.784ZM70.4212 95.638L69.3712 95.162C69.8892 93.65 71.2472 92.656 73.2772 92.656C74.2432 92.656 75.0412 92.88 75.6572 93.328C76.2732 93.776 76.5812 94.378 76.5812 95.12C76.5812 96.254 75.9792 97.094 74.8592 97.416C75.9372 97.486 76.8052 98.298 76.8052 99.754C76.8052 100.678 76.4692 101.406 75.7972 101.924C75.1252 102.442 74.2712 102.708 73.2212 102.708C71.0792 102.708 69.5952 101.686 69.1052 100.076L70.2392 99.586C70.8412 100.86 71.8632 101.504 73.3052 101.504C74.6632 101.504 75.5172 100.874 75.5172 99.768C75.5172 98.69 74.6772 98.144 72.9972 98.144H71.9052V96.982H72.7732C74.2992 96.982 75.2932 96.296 75.2932 95.358C75.2932 94.392 74.4952 93.846 73.2212 93.846C71.7232 93.846 70.8132 94.616 70.4212 95.638Z" fill="#2A3C3C"/>
<path d="M60.9962 95.386L60.5482 94.336L63.9082 92.726H64.7062V102.582H63.5022V94.224L60.9962 95.386ZM66.5896 101.784C66.5896 101.392 66.9536 101 67.4576 101C67.9196 101 68.2976 101.392 68.2976 101.784C68.2976 102.232 67.9476 102.61 67.4576 102.61C66.9536 102.61 66.5896 102.232 66.5896 101.784ZM70.4212 95.638L69.3712 95.162C69.8892 93.65 71.2472 92.656 73.2772 92.656C74.2432 92.656 75.0412 92.88 75.6572 93.328C76.2732 93.776 76.5812 94.378 76.5812 95.12C76.5812 96.254 75.9792 97.094 74.8592 97.416C75.9372 97.486 76.8052 98.298 76.8052 99.754C76.8052 100.678 76.4692 101.406 75.7972 101.924C75.1252 102.442 74.2712 102.708 73.2212 102.708C71.0792 102.708 69.5952 101.686 69.1052 100.076L70.2392 99.586C70.8412 100.86 71.8632 101.504 73.3052 101.504C74.6632 101.504 75.5172 100.874 75.5172 99.768C75.5172 98.69 74.6772 98.144 72.9972 98.144H71.9052V96.982H72.7732C74.2992 96.982 75.2932 96.296 75.2932 95.358C75.2932 94.392 74.4952 93.846 73.2212 93.846C71.7232 93.846 70.8132 94.616 70.4212 95.638Z" fill="#1A3341"/>
<path d="M41 114.582C41 113.477 41.8954 112.582 43 112.582H95C96.1046 112.582 97 113.477 97 114.582V205.582H41V114.582Z" fill="url(#paint6_linear_2355_31860)"/>
<path opacity="0.2" d="M53 112.582H85V205.582H53V112.582Z" fill="url(#paint7_linear_2355_31860)"/>
<path opacity="0.04" d="M85 112.582H95C96.1046 112.582 97 113.477 97 114.582V205.582H85V112.582Z" fill="#0D262C"/>
<path opacity="0.5" d="M41 114.582C41 113.477 41.8954 112.582 43 112.582H53V205.582H41V114.582Z" fill="url(#paint8_linear_2355_31860)"/>
<path d="M48.1114 212.182H49.1914L46.6954 220.582H45.7594L43.4794 214.054L41.2354 220.582H40.2994L37.6834 212.182H38.8234L40.8274 218.662L43.0234 212.182H43.9474L46.2034 218.65L48.1114 212.182ZM48.8216 217.45C48.8216 216.502 49.1336 215.722 49.7456 215.11C50.3576 214.498 51.1496 214.198 52.1216 214.198C53.1056 214.198 53.9096 214.498 54.5216 215.11C55.1336 215.722 55.4456 216.502 55.4456 217.45C55.4456 218.398 55.1336 219.166 54.5216 219.778C53.8976 220.39 53.0936 220.69 52.1216 220.69C51.1496 220.69 50.3576 220.39 49.7456 219.778C49.1336 219.166 48.8216 218.398 48.8216 217.45ZM49.8896 217.45C49.8896 218.11 50.0936 218.662 50.5136 219.094C50.9336 219.526 51.4616 219.742 52.1216 219.742C52.7816 219.742 53.3336 219.526 53.7536 219.106C54.1736 218.686 54.3776 218.134 54.3776 217.45C54.3776 216.766 54.1616 216.214 53.7416 215.782C53.3096 215.362 52.7696 215.146 52.1216 215.146C51.4736 215.146 50.9456 215.362 50.5256 215.782C50.1056 216.202 49.8896 216.766 49.8896 217.45ZM57.4521 220.582H56.4441V214.342H57.4521V214.822C57.6561 214.402 58.1961 214.21 58.7361 214.21C59.2881 214.21 59.7081 214.402 60.0081 214.774L59.3721 215.47C59.2161 215.266 58.9761 215.158 58.6281 215.158C58.0881 215.158 57.5961 215.602 57.4521 216.238V220.582ZM61.6703 220.582H60.6623V211.822H61.6703V220.582ZM68.7825 220.582H67.7745V219.838C67.4985 220.27 66.7785 220.69 65.8305 220.69C64.9065 220.69 64.1745 220.402 63.6105 219.826C63.0465 219.25 62.7585 218.47 62.7585 217.474C62.7585 216.514 63.0585 215.722 63.6705 215.11C64.2825 214.498 65.0265 214.198 65.9145 214.198C66.7425 214.198 67.3665 214.402 67.7745 214.81V211.822H68.7825V220.582ZM65.9745 219.73C66.8265 219.73 67.4865 219.13 67.7745 218.542V216.022C67.3785 215.434 66.7905 215.146 66.0345 215.146C65.4225 215.146 64.8945 215.362 64.4745 215.782C64.0425 216.202 63.8265 216.766 63.8265 217.45C63.8265 218.842 64.7145 219.73 65.9745 219.73ZM77.0928 220.582H73.7568V212.182H77.1528C79.3008 212.182 80.1168 212.962 80.1168 214.27C80.1168 215.206 79.7208 215.842 78.9288 216.19C79.8528 216.382 80.4168 217.09 80.4168 218.182C80.4168 219.826 79.1928 220.582 77.0928 220.582ZM77.2008 216.79H74.8488V219.562H77.0808C78.6048 219.562 79.2888 219.118 79.2888 218.122C79.2888 217.234 78.5928 216.79 77.2008 216.79ZM77.0568 213.202H74.8488V215.794H77.2368C78.3048 215.794 79.0008 215.314 79.0008 214.498C79.0008 213.598 78.4848 213.202 77.0568 213.202ZM82.035 215.842L81.519 215.086C82.095 214.546 83.091 214.198 84.015 214.198C85.683 214.198 86.571 215.11 86.571 216.73V220.582H85.563V219.658C85.167 220.234 84.387 220.666 83.379 220.666C82.023 220.666 81.111 219.91 81.111 218.758C81.111 217.45 82.227 216.826 84.099 216.826C84.687 216.826 85.167 216.886 85.563 217.006C85.563 215.794 85.131 215.146 83.895 215.146C83.271 215.146 82.647 215.374 82.035 215.842ZM83.619 219.754C84.087 219.754 84.507 219.622 84.855 219.37C85.203 219.118 85.431 218.83 85.563 218.53V217.894C85.215 217.774 84.771 217.714 84.231 217.714C82.863 217.714 82.179 218.05 82.179 218.722C82.179 219.358 82.755 219.754 83.619 219.754ZM88.8532 220.582H87.8452V214.342H88.8532V215.158C89.2492 214.546 90.0652 214.21 90.9892 214.21C92.6812 214.21 93.5212 215.146 93.5212 217.03V220.582H92.5132V217.15C92.5132 215.77 91.9252 215.158 90.6892 215.158C89.9212 215.158 89.1892 215.662 88.8532 216.418V220.582ZM95.7996 220.582H94.7916V211.822H95.7996V217.114L98.8236 214.342H100.18L97.1796 217.114L100.384 220.582H99.0516L96.2916 217.678L95.7996 218.086V220.582Z" fill="#76848D"/>
<line x1="-4.37114e-08" y1="205.082" x2="335" y2="205.082" stroke="#ABBEC9"/>
<defs>
<linearGradient id="paint0_linear_2355_31860" x1="173" y1="77.582" x2="173" y2="205.582" gradientUnits="userSpaceOnUse">
<stop stop-color="#6AA2E2"/>
<stop offset="1" stop-color="#9DBCFA"/>
</linearGradient>
<linearGradient id="paint1_linear_2355_31860" x1="173" y1="77.582" x2="173" y2="205.582" gradientUnits="userSpaceOnUse">
<stop stop-color="white" stop-opacity="0"/>
<stop offset="0.739583" stop-color="white"/>
</linearGradient>
<linearGradient id="paint2_linear_2355_31860" x1="151" y1="-172.018" x2="151" y2="205.582" gradientUnits="userSpaceOnUse">
<stop stop-color="white" stop-opacity="0.05"/>
<stop offset="0.75" stop-color="white" stop-opacity="0.8"/>
</linearGradient>
<linearGradient id="paint3_linear_2355_31860" x1="277" y1="20.582" x2="277" y2="205.582" gradientUnits="userSpaceOnUse">
<stop stop-color="#6D73F9"/>
<stop offset="1" stop-color="#9BB8F1"/>
</linearGradient>
<linearGradient id="paint4_linear_2355_31860" x1="277" y1="20.582" x2="277" y2="205.582" gradientUnits="userSpaceOnUse">
<stop stop-color="white" stop-opacity="0"/>
<stop offset="0.739583" stop-color="white"/>
</linearGradient>
<linearGradient id="paint5_linear_2355_31860" x1="255" y1="-340.168" x2="255" y2="205.582" gradientUnits="userSpaceOnUse">
<stop stop-color="white" stop-opacity="0.05"/>
<stop offset="0.75" stop-color="white" stop-opacity="0.8"/>
</linearGradient>
<linearGradient id="paint6_linear_2355_31860" x1="69" y1="112.582" x2="69" y2="205.582" gradientUnits="userSpaceOnUse">
<stop stop-color="#CDE3E9"/>
<stop offset="1" stop-color="#D3E8ED"/>
</linearGradient>
<linearGradient id="paint7_linear_2355_31860" x1="69" y1="112.582" x2="69" y2="205.582" gradientUnits="userSpaceOnUse">
<stop stop-color="white" stop-opacity="0"/>
<stop offset="0.739583" stop-color="white"/>
</linearGradient>
<linearGradient id="paint8_linear_2355_31860" x1="47" y1="-68.768" x2="47" y2="205.582" gradientUnits="userSpaceOnUse">
<stop stop-color="white" stop-opacity="0.05"/>
<stop offset="0.75" stop-color="white" stop-opacity="0.8"/>
</linearGradient>
</defs>
</svg>
