<svg width="1120" height="305" viewBox="0 0 1120 305" fill="none" xmlns="http://www.w3.org/2000/svg">
<path d="M709 186.52L706.113 191.52L711.887 191.52L709 186.52ZM708.5 191.02L708.5 242.577L709.5 242.577L709.5 191.02L708.5 191.02Z" fill="#ABBEC9"/>
<path d="M410 186.52L407.113 191.52L412.887 191.52L410 186.52ZM409.5 191.02L409.5 242.577L410.5 242.577L410.5 191.02L409.5 191.02Z" fill="#ABBEC9"/>
<path d="M1015 186.519L1012.11 191.519L1017.89 191.519L1015 186.519ZM1015 242.576L1015 243.076L1015.5 243.076L1015.5 242.576L1015 242.576ZM105 242.576L104.5 242.576L104.5 243.076L105 243.076L105 242.576ZM105 186.518L102.113 191.518L107.887 191.518L105 186.518ZM1014.5 191.019L1014.5 242.576L1015.5 242.576L1015.5 191.019L1014.5 191.019ZM1015 242.076L105 242.076L105 243.076L1015 243.076L1015 242.076ZM105.5 242.576L105.5 191.018L104.5 191.018L104.5 242.576L105.5 242.576Z" fill="#ABBEC9"/>
<rect x="598" y="132.5" width="222" height="45.8654" rx="2" fill="white"/>
<circle cx="624.5" cy="155.434" r="10.5" fill="#7BC3F8"/>
<path d="M622.636 155.392L621.844 155.183L622.295 151.234H627.135V152.169H623.142L622.856 154.237C623.241 153.951 623.824 153.808 624.605 153.808C625.507 153.808 626.211 154.05 626.728 154.523C627.234 155.007 627.487 155.623 627.487 156.382C627.487 157.141 627.201 157.779 626.64 158.274C626.068 158.78 625.353 159.033 624.506 159.033C623.065 159.033 621.866 158.351 621.371 157.152L622.251 156.778C622.57 157.515 623.395 158.098 624.506 158.098C625.771 158.098 626.475 157.372 626.475 156.415C626.475 155.392 625.65 154.732 624.341 154.732C623.637 154.732 623.065 154.952 622.636 155.392Z" fill="white"/>
<path d="M644.98 155.146V158.434H643.888V150.034H647.104C649.276 150.034 650.356 150.874 650.356 152.554C650.356 153.742 649.54 154.678 648.304 154.93L650.992 158.434H649.66L647.164 155.146H644.98ZM647.068 151.054H644.98V154.126H647.14C648.424 154.126 649.24 153.514 649.24 152.554C649.24 151.558 648.52 151.054 647.068 151.054ZM653.005 158.434H651.997V152.194H653.005V158.434ZM651.865 150.166C651.865 149.83 652.141 149.578 652.513 149.578C652.849 149.578 653.137 149.83 653.137 150.166C653.137 150.514 652.849 150.79 652.513 150.79C652.141 150.79 651.865 150.514 651.865 150.166ZM658.423 156.73C658.423 155.89 656.995 155.758 655.855 155.434C655.075 155.206 654.451 154.69 654.451 153.838C654.451 152.734 655.495 152.05 657.043 152.05C658.087 152.05 658.927 152.494 659.371 153.13L658.663 153.79C658.267 153.262 657.667 152.998 656.863 152.998C656.143 152.998 655.519 153.274 655.519 153.79C655.519 154.522 656.947 154.654 658.087 155.002C658.855 155.242 659.479 155.818 659.479 156.718C659.479 157.93 658.507 158.542 656.983 158.542C655.699 158.542 654.607 157.966 654.163 157.066L654.967 156.502C655.339 157.162 656.191 157.594 657.151 157.594C658.003 157.594 658.423 157.306 658.423 156.73ZM661.568 158.434H660.56V149.674H661.568V154.966L664.592 152.194H665.948L662.948 154.966L666.152 158.434H664.82L662.06 155.53L661.568 155.938V158.434ZM670.931 153.694L670.415 152.938C670.991 152.398 671.987 152.05 672.911 152.05C674.579 152.05 675.467 152.962 675.467 154.582V158.434H674.459V157.51C674.063 158.086 673.283 158.518 672.275 158.518C670.919 158.518 670.007 157.762 670.007 156.61C670.007 155.302 671.123 154.678 672.995 154.678C673.583 154.678 674.063 154.738 674.459 154.858C674.459 153.646 674.027 152.998 672.791 152.998C672.167 152.998 671.543 153.226 670.931 153.694ZM672.515 157.606C672.983 157.606 673.403 157.474 673.751 157.222C674.099 156.97 674.327 156.682 674.459 156.382V155.746C674.111 155.626 673.667 155.566 673.127 155.566C671.759 155.566 671.075 155.902 671.075 156.574C671.075 157.21 671.651 157.606 672.515 157.606ZM680.689 156.73C680.689 155.89 679.261 155.758 678.121 155.434C677.341 155.206 676.717 154.69 676.717 153.838C676.717 152.734 677.761 152.05 679.309 152.05C680.353 152.05 681.193 152.494 681.637 153.13L680.929 153.79C680.533 153.262 679.933 152.998 679.129 152.998C678.409 152.998 677.785 153.274 677.785 153.79C677.785 154.522 679.213 154.654 680.353 155.002C681.121 155.242 681.745 155.818 681.745 156.718C681.745 157.93 680.773 158.542 679.249 158.542C677.965 158.542 676.873 157.966 676.429 157.066L677.233 156.502C677.605 157.162 678.457 157.594 679.417 157.594C680.269 157.594 680.689 157.306 680.689 156.73ZM686.654 156.73C686.654 155.89 685.226 155.758 684.086 155.434C683.306 155.206 682.682 154.69 682.682 153.838C682.682 152.734 683.726 152.05 685.274 152.05C686.318 152.05 687.158 152.494 687.602 153.13L686.894 153.79C686.498 153.262 685.898 152.998 685.094 152.998C684.374 152.998 683.75 153.274 683.75 153.79C683.75 154.522 685.178 154.654 686.318 155.002C687.086 155.242 687.71 155.818 687.71 156.718C687.71 157.93 686.738 158.542 685.214 158.542C683.93 158.542 682.838 157.966 682.394 157.066L683.198 156.502C683.57 157.162 684.422 157.594 685.382 157.594C686.234 157.594 686.654 157.306 686.654 156.73ZM693.615 156.646L694.263 157.246C693.687 158.11 692.859 158.542 691.767 158.542C690.771 158.542 689.967 158.242 689.355 157.654C688.743 157.066 688.443 156.286 688.443 155.302C688.443 154.354 688.719 153.574 689.283 152.962C689.835 152.35 690.615 152.05 691.623 152.05C692.451 152.05 693.147 152.314 693.687 152.83C694.227 153.346 694.503 154.03 694.503 154.882C694.503 155.158 694.479 155.41 694.443 155.638H689.523C689.583 156.874 690.495 157.594 691.803 157.594C692.535 157.594 693.231 157.21 693.615 156.646ZM691.551 152.974C690.411 152.974 689.667 153.67 689.511 154.726H693.435C693.375 153.622 692.667 152.974 691.551 152.974ZM699.451 156.73C699.451 155.89 698.023 155.758 696.883 155.434C696.103 155.206 695.479 154.69 695.479 153.838C695.479 152.734 696.523 152.05 698.071 152.05C699.115 152.05 699.955 152.494 700.399 153.13L699.691 153.79C699.295 153.262 698.695 152.998 697.891 152.998C697.171 152.998 696.547 153.274 696.547 153.79C696.547 154.522 697.975 154.654 699.115 155.002C699.883 155.242 700.507 155.818 700.507 156.718C700.507 157.93 699.535 158.542 698.011 158.542C696.727 158.542 695.635 157.966 695.191 157.066L695.995 156.502C696.367 157.162 697.219 157.594 698.179 157.594C699.031 157.594 699.451 157.306 699.451 156.73ZM705.415 156.73C705.415 155.89 703.987 155.758 702.847 155.434C702.067 155.206 701.443 154.69 701.443 153.838C701.443 152.734 702.487 152.05 704.035 152.05C705.079 152.05 705.919 152.494 706.363 153.13L705.655 153.79C705.259 153.262 704.659 152.998 703.855 152.998C703.135 152.998 702.511 153.274 702.511 153.79C702.511 154.522 703.939 154.654 705.079 155.002C705.847 155.242 706.471 155.818 706.471 156.718C706.471 157.93 705.499 158.542 703.975 158.542C702.691 158.542 701.599 157.966 701.155 157.066L701.959 156.502C702.331 157.162 703.183 157.594 704.143 157.594C704.995 157.594 705.415 157.306 705.415 156.73ZM716.6 154.294V158.434H715.592V154.606C715.592 153.538 715.16 153.01 714.296 153.01C713.516 153.01 712.94 153.394 712.58 154.15V158.434H711.572V154.282C711.572 153.526 711.08 153.01 710.276 153.01C709.472 153.01 708.836 153.61 708.56 154.27V158.434H707.552V152.194H708.56V153.034C708.932 152.458 709.652 152.062 710.468 152.062C711.356 152.062 711.968 152.386 712.304 153.034C712.796 152.386 713.48 152.062 714.356 152.062C715.748 152.062 716.6 152.758 716.6 154.294ZM722.806 156.646L723.454 157.246C722.878 158.11 722.05 158.542 720.958 158.542C719.962 158.542 719.158 158.242 718.546 157.654C717.934 157.066 717.634 156.286 717.634 155.302C717.634 154.354 717.91 153.574 718.474 152.962C719.026 152.35 719.806 152.05 720.814 152.05C721.642 152.05 722.338 152.314 722.878 152.83C723.418 153.346 723.694 154.03 723.694 154.882C723.694 155.158 723.67 155.41 723.634 155.638H718.714C718.774 156.874 719.686 157.594 720.994 157.594C721.726 157.594 722.422 157.21 722.806 156.646ZM720.742 152.974C719.602 152.974 718.858 153.67 718.702 154.726H722.626C722.566 153.622 721.858 152.974 720.742 152.974ZM725.822 158.434H724.814V152.194H725.822V153.01C726.218 152.398 727.034 152.062 727.958 152.062C729.65 152.062 730.49 152.998 730.49 154.882V158.434H729.482V155.002C729.482 153.622 728.894 153.01 727.658 153.01C726.89 153.01 726.158 153.514 725.822 154.27V158.434ZM732.516 153.154H731.22V152.194H732.516V150.598H733.524V152.194H735.672V153.154H733.524V155.902C733.524 157.114 733.836 157.558 734.604 157.558C734.976 157.558 735.36 157.414 735.732 157.114L736.188 157.858C735.792 158.302 735.204 158.518 734.424 158.518C733.188 158.518 732.516 157.702 732.516 156.166V153.154Z" fill="#3C525E"/>
<rect y="132.5" width="222" height="45.8654" rx="2" fill="white"/>
<circle cx="26.5" cy="155.434" r="10.5" fill="#7BC3F8"/>
<path d="M24.3375 153.478L23.5125 153.104C23.9195 151.916 24.9865 151.135 26.5815 151.135C27.3405 151.135 27.9675 151.311 28.4515 151.663C28.9355 152.015 29.1775 152.488 29.1775 153.071C29.1775 153.962 28.7045 154.622 27.8245 154.875C28.6715 154.93 29.3535 155.568 29.3535 156.712C29.3535 157.438 29.0895 158.01 28.5615 158.417C28.0335 158.824 27.3625 159.033 26.5375 159.033C24.8545 159.033 23.6885 158.23 23.3035 156.965L24.1945 156.58C24.6675 157.581 25.4705 158.087 26.6035 158.087C27.6705 158.087 28.3415 157.592 28.3415 156.723C28.3415 155.876 27.6815 155.447 26.3615 155.447H25.5035V154.534H26.1855C27.3845 154.534 28.1655 153.995 28.1655 153.258C28.1655 152.499 27.5385 152.07 26.5375 152.07C25.3605 152.07 24.6455 152.675 24.3375 153.478Z" fill="white"/>
<path d="M46.98 155.338V158.434H45.888V150.034H49.152C51.444 150.034 52.596 150.91 52.596 152.674C52.596 153.43 52.32 154.066 51.768 154.57C51.204 155.086 50.328 155.338 49.14 155.338H46.98ZM49.2 151.054H46.98V154.33H49.116C50.7 154.33 51.468 153.706 51.468 152.662C51.468 151.594 50.712 151.054 49.2 151.054ZM54.793 158.434H53.785V149.674H54.793V158.434ZM56.8292 153.694L56.3132 152.938C56.8892 152.398 57.8852 152.05 58.8092 152.05C60.4772 152.05 61.3652 152.962 61.3652 154.582V158.434H60.3572V157.51C59.9612 158.086 59.1812 158.518 58.1732 158.518C56.8172 158.518 55.9052 157.762 55.9052 156.61C55.9052 155.302 57.0212 154.678 58.8932 154.678C59.4812 154.678 59.9612 154.738 60.3572 154.858C60.3572 153.646 59.9252 152.998 58.6892 152.998C58.0652 152.998 57.4412 153.226 56.8292 153.694ZM58.4132 157.606C58.8812 157.606 59.3012 157.474 59.6492 157.222C59.9972 156.97 60.2252 156.682 60.3572 156.382V155.746C60.0092 155.626 59.5652 155.566 59.0252 155.566C57.6572 155.566 56.9732 155.902 56.9732 156.574C56.9732 157.21 57.5492 157.606 58.4132 157.606ZM63.7673 158.434H62.7593V152.194H63.7673V153.01C64.1633 152.398 64.9793 152.062 65.9033 152.062C67.5953 152.062 68.4353 152.998 68.4353 154.882V158.434H67.4273V155.002C67.4273 153.622 66.8393 153.01 65.6033 153.01C64.8353 153.01 64.1033 153.514 63.7673 154.27V158.434ZM70.8338 158.434H69.8258V152.194H70.8338V153.01C71.2298 152.398 72.0458 152.062 72.9698 152.062C74.6618 152.062 75.5018 152.998 75.5018 154.882V158.434H74.4938V155.002C74.4938 153.622 73.9058 153.01 72.6698 153.01C71.9018 153.01 71.1698 153.514 70.8338 154.27V158.434ZM78.0322 158.434H77.0242V152.194H78.0322V158.434ZM76.8922 150.166C76.8922 149.83 77.1682 149.578 77.5402 149.578C77.8762 149.578 78.1642 149.83 78.1642 150.166C78.1642 150.514 77.8762 150.79 77.5402 150.79C77.1682 150.79 76.8922 150.514 76.8922 150.166ZM80.6306 158.434H79.6226V152.194H80.6306V153.01C81.0266 152.398 81.8426 152.062 82.7666 152.062C84.4586 152.062 85.2986 152.998 85.2986 154.882V158.434H84.2906V155.002C84.2906 153.622 83.7026 153.01 82.4666 153.01C81.6986 153.01 80.9666 153.514 80.6306 154.27V158.434ZM91.333 152.194H92.353V157.954C92.353 159.97 91.249 160.942 89.557 160.942C88.201 160.942 87.121 160.354 86.773 159.43L87.673 159.034C87.949 159.574 88.573 159.982 89.497 159.982C90.697 159.982 91.333 159.298 91.333 158.134V157.762C90.865 158.302 90.421 158.542 89.449 158.542C88.501 158.542 87.757 158.254 87.193 157.666C86.629 157.09 86.341 156.298 86.341 155.302C86.341 154.318 86.641 153.526 87.241 152.938C87.829 152.35 88.573 152.062 89.461 152.062C90.337 152.062 91.009 152.362 91.333 152.746V152.194ZM89.617 157.594C90.469 157.594 91.105 157.066 91.333 156.406V153.898C91.033 153.37 90.409 153.01 89.605 153.01C88.981 153.01 88.465 153.214 88.045 153.622C87.625 154.03 87.409 154.594 87.409 155.326C87.409 156.73 88.261 157.594 89.617 157.594Z" fill="#3C525E"/>
<rect width="288" height="57.0769" rx="2" fill="white"/>
<circle cx="26.5" cy="28.5391" r="10.5" fill="#7BC3F8"/>
<path d="M24.7151 26.3851L24.3631 25.5601L27.0031 24.2951H27.6301V32.0391H26.6841V25.4721L24.7151 26.3851Z" fill="white"/>
<path d="M46.98 23.5391H45.888V15.1391H46.98V23.5391ZM49.6111 23.5391H48.6031V17.2991H49.6111V18.1151C50.0071 17.5031 50.8231 17.1671 51.7471 17.1671C53.4391 17.1671 54.2791 18.1031 54.2791 19.9871V23.5391H53.2711V20.1071C53.2711 18.7271 52.6831 18.1151 51.4471 18.1151C50.6791 18.1151 49.9471 18.6191 49.6111 19.3751V23.5391ZM56.1135 18.2591H54.9615V17.2991H56.1135V17.0111C56.1135 16.2071 56.3175 15.6071 56.7255 15.2351C57.1215 14.8631 57.6135 14.6831 58.2015 14.6831C58.8375 14.6831 59.4375 14.9711 59.7375 15.4151L59.1375 16.0391C58.9335 15.7751 58.6335 15.6431 58.2495 15.6431C57.4935 15.6431 57.1215 16.1231 57.1215 17.0951V17.2991H59.0535V18.2591H57.1215V23.5391H56.1135V18.2591ZM59.2121 20.4071C59.2121 19.4591 59.5241 18.6791 60.1361 18.0671C60.7481 17.4551 61.5401 17.1551 62.5121 17.1551C63.4961 17.1551 64.3001 17.4551 64.9121 18.0671C65.5241 18.6791 65.8361 19.4591 65.8361 20.4071C65.8361 21.3551 65.5241 22.1231 64.9121 22.7351C64.2881 23.3471 63.4841 23.6471 62.5121 23.6471C61.5401 23.6471 60.7481 23.3471 60.1361 22.7351C59.5241 22.1231 59.2121 21.3551 59.2121 20.4071ZM60.2801 20.4071C60.2801 21.0671 60.4841 21.6191 60.9041 22.0511C61.3241 22.4831 61.8521 22.6991 62.5121 22.6991C63.1721 22.6991 63.7241 22.4831 64.1441 22.0631C64.5641 21.6431 64.7681 21.0911 64.7681 20.4071C64.7681 19.7231 64.5521 19.1711 64.1321 18.7391C63.7001 18.3191 63.1601 18.1031 62.5121 18.1031C61.8641 18.1031 61.3361 18.3191 60.9161 18.7391C60.4961 19.1591 60.2801 19.7231 60.2801 20.4071ZM67.9627 23.5391H66.9547V17.2991H67.9627V17.7791C68.1667 17.3591 68.7067 17.1671 69.2467 17.1671C69.7987 17.1671 70.2187 17.3591 70.5187 17.7311L69.8827 18.4271C69.7267 18.2231 69.4867 18.1151 69.1387 18.1151C68.5987 18.1151 68.1067 18.5591 67.9627 19.1951V23.5391ZM80.2448 19.3991V23.5391H79.2368V19.7111C79.2368 18.6431 78.8048 18.1151 77.9408 18.1151C77.1608 18.1151 76.5848 18.4991 76.2248 19.2551V23.5391H75.2168V19.3871C75.2168 18.6311 74.7248 18.1151 73.9208 18.1151C73.1168 18.1151 72.4808 18.7151 72.2048 19.3751V23.5391H71.1968V17.2991H72.2048V18.1391C72.5768 17.5631 73.2968 17.1671 74.1128 17.1671C75.0008 17.1671 75.6128 17.4911 75.9488 18.1391C76.4408 17.4911 77.1248 17.1671 78.0008 17.1671C79.3928 17.1671 80.2448 17.8631 80.2448 19.3991ZM82.1065 18.7991L81.5905 18.0431C82.1665 17.5031 83.1625 17.1551 84.0865 17.1551C85.7545 17.1551 86.6425 18.0671 86.6425 19.6871V23.5391H85.6345V22.6151C85.2385 23.1911 84.4585 23.6231 83.4505 23.6231C82.0945 23.6231 81.1825 22.8671 81.1825 21.7151C81.1825 20.4071 82.2985 19.7831 84.1705 19.7831C84.7585 19.7831 85.2385 19.8431 85.6345 19.9631C85.6345 18.7511 85.2025 18.1031 83.9665 18.1031C83.3425 18.1031 82.7185 18.3311 82.1065 18.7991ZM83.6905 22.7111C84.1585 22.7111 84.5785 22.5791 84.9265 22.3271C85.2745 22.0751 85.5025 21.7871 85.6345 21.4871V20.8511C85.2865 20.7311 84.8425 20.6711 84.3025 20.6711C82.9345 20.6711 82.2505 21.0071 82.2505 21.6791C82.2505 22.3151 82.8265 22.7111 83.6905 22.7111ZM88.6727 18.2591H87.3767V17.2991H88.6727V15.7031H89.6807V17.2991H91.8287V18.2591H89.6807V21.0071C89.6807 22.2191 89.9927 22.6631 90.7607 22.6631C91.1327 22.6631 91.5167 22.5191 91.8887 22.2191L92.3447 22.9631C91.9487 23.4071 91.3607 23.6231 90.5807 23.6231C89.3447 23.6231 88.6727 22.8071 88.6727 21.2711V18.2591ZM94.2158 23.5391H93.2078V17.2991H94.2158V23.5391ZM93.0758 15.2711C93.0758 14.9351 93.3518 14.6831 93.7238 14.6831C94.0598 14.6831 94.3478 14.9351 94.3478 15.2711C94.3478 15.6191 94.0598 15.8951 93.7238 15.8951C93.3518 15.8951 93.0758 15.6191 93.0758 15.2711ZM95.4582 20.4071C95.4582 19.4591 95.7702 18.6791 96.3822 18.0671C96.9942 17.4551 97.7862 17.1551 98.7582 17.1551C99.7422 17.1551 100.546 17.4551 101.158 18.0671C101.77 18.6791 102.082 19.4591 102.082 20.4071C102.082 21.3551 101.77 22.1231 101.158 22.7351C100.534 23.3471 99.7302 23.6471 98.7582 23.6471C97.7862 23.6471 96.9942 23.3471 96.3822 22.7351C95.7702 22.1231 95.4582 21.3551 95.4582 20.4071ZM96.5262 20.4071C96.5262 21.0671 96.7302 21.6191 97.1502 22.0511C97.5702 22.4831 98.0982 22.6991 98.7582 22.6991C99.4182 22.6991 99.9702 22.4831 100.39 22.0631C100.81 21.6431 101.014 21.0911 101.014 20.4071C101.014 19.7231 100.798 19.1711 100.378 18.7391C99.9462 18.3191 99.4062 18.1031 98.7582 18.1031C98.1102 18.1031 97.5822 18.3191 97.1622 18.7391C96.7422 19.1591 96.5262 19.7231 96.5262 20.4071ZM104.209 23.5391H103.201V17.2991H104.209V18.1151C104.605 17.5031 105.421 17.1671 106.345 17.1671C108.037 17.1671 108.877 18.1031 108.877 19.9871V23.5391H107.869V20.1071C107.869 18.7271 107.281 18.1151 106.045 18.1151C105.277 18.1151 104.545 18.6191 104.209 19.3751V23.5391ZM118.689 21.7511L119.337 22.3511C118.761 23.2151 117.933 23.6471 116.841 23.6471C115.845 23.6471 115.041 23.3471 114.429 22.7591C113.817 22.1711 113.517 21.3911 113.517 20.4071C113.517 19.4591 113.793 18.6791 114.357 18.0671C114.909 17.4551 115.689 17.1551 116.697 17.1551C117.525 17.1551 118.221 17.4191 118.761 17.9351C119.301 18.4511 119.577 19.1351 119.577 19.9871C119.577 20.2631 119.553 20.5151 119.517 20.7431H114.597C114.657 21.9791 115.569 22.6991 116.877 22.6991C117.609 22.6991 118.305 22.3151 118.689 21.7511ZM116.625 18.0791C115.485 18.0791 114.741 18.7751 114.585 19.8311H118.509C118.449 18.7271 117.741 18.0791 116.625 18.0791ZM124.724 17.2991H125.948L123.56 20.3111L126.068 23.5391H124.808L122.876 21.0311L120.92 23.5391H119.72L122.216 20.3231L119.852 17.2991H121.112L122.912 19.5911L124.724 17.2991ZM131.381 21.7391L132.101 22.2551C131.633 23.1311 130.577 23.6471 129.533 23.6471C128.537 23.6471 127.733 23.3471 127.121 22.7591C126.509 22.1711 126.197 21.3911 126.197 20.4071C126.197 19.4711 126.497 18.6911 127.109 18.0791C127.721 17.4671 128.501 17.1551 129.473 17.1551C130.589 17.1551 131.585 17.6591 132.005 18.4271L131.225 18.9551C130.805 18.3911 130.229 18.1031 129.497 18.1031C128.849 18.1031 128.321 18.3191 127.901 18.7511C127.481 19.1831 127.265 19.7351 127.265 20.4071C127.265 21.0911 127.481 21.6431 127.925 22.0631C128.357 22.4831 128.921 22.6991 129.629 22.6991C130.373 22.6991 130.961 22.3751 131.381 21.7391ZM133.939 23.5391H132.931V14.7791H133.939V18.1151C134.419 17.4791 135.091 17.1671 135.967 17.1671C137.719 17.1671 138.595 18.1151 138.595 19.9991V23.5391H137.587V20.0951C137.587 18.7511 137.011 18.1151 135.775 18.1151C134.947 18.1151 134.275 18.6431 133.939 19.4111V23.5391ZM140.466 18.7991L139.95 18.0431C140.526 17.5031 141.522 17.1551 142.446 17.1551C144.114 17.1551 145.002 18.0671 145.002 19.6871V23.5391H143.994V22.6151C143.598 23.1911 142.818 23.6231 141.81 23.6231C140.454 23.6231 139.542 22.8671 139.542 21.7151C139.542 20.4071 140.658 19.7831 142.53 19.7831C143.118 19.7831 143.598 19.8431 143.994 19.9631C143.994 18.7511 143.562 18.1031 142.326 18.1031C141.702 18.1031 141.078 18.3311 140.466 18.7991ZM142.05 22.7111C142.518 22.7111 142.938 22.5791 143.286 22.3271C143.634 22.0751 143.862 21.7871 143.994 21.4871V20.8511C143.646 20.7311 143.202 20.6711 142.662 20.6711C141.294 20.6711 140.61 21.0071 140.61 21.6791C140.61 22.3151 141.186 22.7111 142.05 22.7111ZM147.404 23.5391H146.396V17.2991H147.404V18.1151C147.8 17.5031 148.616 17.1671 149.54 17.1671C151.232 17.1671 152.072 18.1031 152.072 19.9871V23.5391H151.064V20.1071C151.064 18.7271 150.476 18.1151 149.24 18.1151C148.472 18.1151 147.74 18.6191 147.404 19.3751V23.5391ZM158.106 17.2991H159.126V23.0591C159.126 25.0751 158.022 26.0471 156.33 26.0471C154.974 26.0471 153.894 25.4591 153.546 24.5351L154.446 24.1391C154.722 24.6791 155.346 25.0871 156.27 25.0871C157.47 25.0871 158.106 24.4031 158.106 23.2391V22.8671C157.638 23.4071 157.194 23.6471 156.222 23.6471C155.274 23.6471 154.53 23.3591 153.966 22.7711C153.402 22.1951 153.114 21.4031 153.114 20.4071C153.114 19.4231 153.414 18.6311 154.014 18.0431C154.602 17.4551 155.346 17.1671 156.234 17.1671C157.11 17.1671 157.782 17.4671 158.106 17.8511V17.2991ZM156.39 22.6991C157.242 22.6991 157.878 22.1711 158.106 21.5111V19.0031C157.806 18.4751 157.182 18.1151 156.378 18.1151C155.754 18.1151 155.238 18.3191 154.818 18.7271C154.398 19.1351 154.182 19.6991 154.182 20.4311C154.182 21.8351 155.034 22.6991 156.39 22.6991ZM165.4 21.7511L166.048 22.3511C165.472 23.2151 164.644 23.6471 163.552 23.6471C162.556 23.6471 161.752 23.3471 161.14 22.7591C160.528 22.1711 160.228 21.3911 160.228 20.4071C160.228 19.4591 160.504 18.6791 161.068 18.0671C161.62 17.4551 162.4 17.1551 163.408 17.1551C164.236 17.1551 164.932 17.4191 165.472 17.9351C166.012 18.4511 166.288 19.1351 166.288 19.9871C166.288 20.2631 166.264 20.5151 166.228 20.7431H161.308C161.368 21.9791 162.28 22.6991 163.588 22.6991C164.32 22.6991 165.016 22.3151 165.4 21.7511ZM163.336 18.0791C162.196 18.0791 161.452 18.7751 161.296 19.8311H165.22C165.16 18.7271 164.452 18.0791 163.336 18.0791ZM46.212 34.7991L45.696 34.0431C46.272 33.5031 47.268 33.1551 48.192 33.1551C49.86 33.1551 50.748 34.0671 50.748 35.6871V39.5391H49.74V38.6151C49.344 39.1911 48.564 39.6231 47.556 39.6231C46.2 39.6231 45.288 38.8671 45.288 37.7151C45.288 36.4071 46.404 35.7831 48.276 35.7831C48.864 35.7831 49.344 35.8431 49.74 35.9631C49.74 34.7511 49.308 34.1031 48.072 34.1031C47.448 34.1031 46.824 34.3311 46.212 34.7991ZM47.796 38.7111C48.264 38.7111 48.684 38.5791 49.032 38.3271C49.38 38.0751 49.608 37.7871 49.74 37.4871V36.8511C49.392 36.7311 48.948 36.6711 48.408 36.6711C47.04 36.6711 46.356 37.0071 46.356 37.6791C46.356 38.3151 46.932 38.7111 47.796 38.7111ZM53.1502 39.5391H52.1422V33.2991H53.1502V34.1151C53.5462 33.5031 54.3622 33.1671 55.2862 33.1671C56.9782 33.1671 57.8182 34.1031 57.8182 35.9871V39.5391H56.8102V36.1071C56.8102 34.7271 56.2222 34.1151 54.9862 34.1151C54.2182 34.1151 53.4862 34.6191 53.1502 35.3751V39.5391ZM64.8846 39.5391H63.8766V38.7951C63.6006 39.2271 62.8806 39.6471 61.9326 39.6471C61.0086 39.6471 60.2766 39.3591 59.7126 38.7831C59.1486 38.2071 58.8606 37.4271 58.8606 36.4311C58.8606 35.4711 59.1606 34.6791 59.7726 34.0671C60.3846 33.4551 61.1286 33.1551 62.0166 33.1551C62.8446 33.1551 63.4686 33.3591 63.8766 33.7671V30.7791H64.8846V39.5391ZM62.0766 38.6871C62.9286 38.6871 63.5886 38.0871 63.8766 37.4991V34.9791C63.4806 34.3911 62.8926 34.1031 62.1366 34.1031C61.5246 34.1031 60.9966 34.3191 60.5766 34.7391C60.1446 35.1591 59.9286 35.7231 59.9286 36.4071C59.9286 37.7991 60.8166 38.6871 62.0766 38.6871ZM74.7789 37.7391L75.4989 38.2551C75.0309 39.1311 73.9749 39.6471 72.9309 39.6471C71.9349 39.6471 71.1309 39.3471 70.5189 38.7591C69.9069 38.1711 69.5949 37.3911 69.5949 36.4071C69.5949 35.4711 69.8949 34.6911 70.5069 34.0791C71.1189 33.4671 71.8989 33.1551 72.8709 33.1551C73.9869 33.1551 74.9829 33.6591 75.4029 34.4271L74.6229 34.9551C74.2029 34.3911 73.6269 34.1031 72.8949 34.1031C72.2469 34.1031 71.7189 34.3191 71.2989 34.7511C70.8789 35.1831 70.6629 35.7351 70.6629 36.4071C70.6629 37.0911 70.8789 37.6431 71.3229 38.0631C71.7549 38.4831 72.3189 38.6991 73.0269 38.6991C73.7709 38.6991 74.3589 38.3751 74.7789 37.7391ZM75.9231 36.4071C75.9231 35.4591 76.2351 34.6791 76.8471 34.0671C77.4591 33.4551 78.2511 33.1551 79.2231 33.1551C80.2071 33.1551 81.0111 33.4551 81.6231 34.0671C82.2351 34.6791 82.5471 35.4591 82.5471 36.4071C82.5471 37.3551 82.2351 38.1231 81.6231 38.7351C80.9991 39.3471 80.1951 39.6471 79.2231 39.6471C78.2511 39.6471 77.4591 39.3471 76.8471 38.7351C76.2351 38.1231 75.9231 37.3551 75.9231 36.4071ZM76.9911 36.4071C76.9911 37.0671 77.1951 37.6191 77.6151 38.0511C78.0351 38.4831 78.5631 38.6991 79.2231 38.6991C79.8831 38.6991 80.4351 38.4831 80.8551 38.0631C81.2751 37.6431 81.4791 37.0911 81.4791 36.4071C81.4791 35.7231 81.2631 35.1711 80.8431 34.7391C80.4111 34.3191 79.8711 34.1031 79.2231 34.1031C78.5751 34.1031 78.0471 34.3191 77.6271 34.7391C77.2071 35.1591 76.9911 35.7231 76.9911 36.4071ZM92.7136 35.3991V39.5391H91.7056V35.7111C91.7056 34.6431 91.2736 34.1151 90.4096 34.1151C89.6296 34.1151 89.0536 34.4991 88.6936 35.2551V39.5391H87.6856V35.3871C87.6856 34.6311 87.1936 34.1151 86.3896 34.1151C85.5856 34.1151 84.9496 34.7151 84.6736 35.3751V39.5391H83.6656V33.2991H84.6736V34.1391C85.0456 33.5631 85.7656 33.1671 86.5816 33.1671C87.4696 33.1671 88.0816 33.4911 88.4176 34.1391C88.9096 33.4911 89.5936 33.1671 90.4696 33.1671C91.8616 33.1671 92.7136 33.8631 92.7136 35.3991ZM103.143 35.3991V39.5391H102.135V35.7111C102.135 34.6431 101.703 34.1151 100.839 34.1151C100.059 34.1151 99.4833 34.4991 99.1233 35.2551V39.5391H98.1153V35.3871C98.1153 34.6311 97.6233 34.1151 96.8193 34.1151C96.0153 34.1151 95.3793 34.7151 95.1033 35.3751V39.5391H94.0953V33.2991H95.1033V34.1391C95.4753 33.5631 96.1953 33.1671 97.0113 33.1671C97.8993 33.1671 98.5113 33.4911 98.8473 34.1391C99.3393 33.4911 100.023 33.1671 100.899 33.1671C102.291 33.1671 103.143 33.8631 103.143 35.3991ZM109.037 33.2631H110.045V39.5391H109.037V38.6511C108.557 39.3111 107.885 39.6471 107.009 39.6471C105.281 39.6471 104.441 38.7831 104.441 36.8751V33.2631H105.449V36.7311C105.449 38.0391 106.001 38.6991 107.093 38.6991C107.957 38.6991 108.653 38.2071 109.037 37.3431V33.2631ZM112.506 39.5391H111.498V33.2991H112.506V34.1151C112.902 33.5031 113.718 33.1671 114.642 33.1671C116.334 33.1671 117.174 34.1031 117.174 35.9871V39.5391H116.166V36.1071C116.166 34.7271 115.578 34.1151 114.342 34.1151C113.574 34.1151 112.842 34.6191 112.506 35.3751V39.5391ZM119.704 39.5391H118.696V33.2991H119.704V39.5391ZM118.564 31.2711C118.564 30.9351 118.84 30.6831 119.212 30.6831C119.548 30.6831 119.836 30.9351 119.836 31.2711C119.836 31.6191 119.548 31.8951 119.212 31.8951C118.84 31.8951 118.564 31.6191 118.564 31.2711ZM126.131 37.7391L126.851 38.2551C126.383 39.1311 125.327 39.6471 124.283 39.6471C123.287 39.6471 122.483 39.3471 121.871 38.7591C121.259 38.1711 120.947 37.3911 120.947 36.4071C120.947 35.4711 121.247 34.6911 121.859 34.0791C122.471 33.4671 123.251 33.1551 124.223 33.1551C125.339 33.1551 126.335 33.6591 126.755 34.4271L125.975 34.9551C125.555 34.3911 124.979 34.1031 124.247 34.1031C123.599 34.1031 123.071 34.3191 122.651 34.7511C122.231 35.1831 122.015 35.7351 122.015 36.4071C122.015 37.0911 122.231 37.6431 122.675 38.0631C123.107 38.4831 123.671 38.6991 124.379 38.6991C125.123 38.6991 125.711 38.3751 126.131 37.7391ZM128.161 34.7991L127.645 34.0431C128.221 33.5031 129.217 33.1551 130.141 33.1551C131.809 33.1551 132.697 34.0671 132.697 35.6871V39.5391H131.689V38.6151C131.293 39.1911 130.513 39.6231 129.505 39.6231C128.149 39.6231 127.237 38.8671 127.237 37.7151C127.237 36.4071 128.353 35.7831 130.225 35.7831C130.813 35.7831 131.293 35.8431 131.689 35.9631C131.689 34.7511 131.257 34.1031 130.021 34.1031C129.397 34.1031 128.773 34.3311 128.161 34.7991ZM129.745 38.7111C130.213 38.7111 130.633 38.5791 130.981 38.3271C131.329 38.0751 131.557 37.7871 131.689 37.4871V36.8511C131.341 36.7311 130.897 36.6711 130.357 36.6711C128.989 36.6711 128.305 37.0071 128.305 37.6791C128.305 38.3151 128.881 38.7111 129.745 38.7111ZM134.727 34.2591H133.431V33.2991H134.727V31.7031H135.735V33.2991H137.883V34.2591H135.735V37.0071C135.735 38.2191 136.047 38.6631 136.815 38.6631C137.187 38.6631 137.571 38.5191 137.943 38.2191L138.399 38.9631C138.003 39.4071 137.415 39.6231 136.635 39.6231C135.399 39.6231 134.727 38.8071 134.727 37.2711V34.2591ZM140.27 39.5391H139.262V33.2991H140.27V39.5391ZM139.13 31.2711C139.13 30.9351 139.406 30.6831 139.778 30.6831C140.114 30.6831 140.402 30.9351 140.402 31.2711C140.402 31.6191 140.114 31.8951 139.778 31.8951C139.406 31.8951 139.13 31.6191 139.13 31.2711ZM141.513 36.4071C141.513 35.4591 141.825 34.6791 142.437 34.0671C143.049 33.4551 143.841 33.1551 144.813 33.1551C145.797 33.1551 146.601 33.4551 147.213 34.0671C147.825 34.6791 148.137 35.4591 148.137 36.4071C148.137 37.3551 147.825 38.1231 147.213 38.7351C146.589 39.3471 145.785 39.6471 144.813 39.6471C143.841 39.6471 143.049 39.3471 142.437 38.7351C141.825 38.1231 141.513 37.3551 141.513 36.4071ZM142.581 36.4071C142.581 37.0671 142.785 37.6191 143.205 38.0511C143.625 38.4831 144.153 38.6991 144.813 38.6991C145.473 38.6991 146.025 38.4831 146.445 38.0631C146.865 37.6431 147.069 37.0911 147.069 36.4071C147.069 35.7231 146.853 35.1711 146.433 34.7391C146.001 34.3191 145.461 34.1031 144.813 34.1031C144.165 34.1031 143.637 34.3191 143.217 34.7391C142.797 35.1591 142.581 35.7231 142.581 36.4071ZM150.263 39.5391H149.255V33.2991H150.263V34.1151C150.659 33.5031 151.475 33.1671 152.399 33.1671C154.091 33.1671 154.931 34.1031 154.931 35.9871V39.5391H153.923V36.1071C153.923 34.7271 153.335 34.1151 152.099 34.1151C151.331 34.1151 150.599 34.6191 150.263 35.3751V39.5391Z" fill="#3C525E"/>
<path d="M590 155.941L585 153.055V158.828L590 155.941ZM585.5 155.441H521V156.441H585.5V155.441Z" fill="#ABBEC9"/>
<path d="M889 155.941L884 153.055V158.828L889 155.941ZM884.5 155.441H820V156.441H884.5V155.441Z" fill="#ABBEC9"/>
<path d="M291 155.941L286 153.055V158.828L291 155.941ZM286.5 155.441H222V156.441H286.5V155.441Z" fill="#ABBEC9"/>
<rect x="299" y="132.5" width="233" height="45.8654" rx="2" fill="white"/>
<circle cx="325.5" cy="155.434" r="10.5" fill="#7BC3F8"/>
<path d="M327.091 158.934H326.134V157.361H321.426V156.723L326.244 151.234H327.091V156.47H328.521V157.361H327.091V158.934ZM326.134 152.774L322.746 156.47H326.134V152.774Z" fill="white"/>
<path d="M345.98 155.146V158.434H344.888V150.034H348.104C350.276 150.034 351.356 150.874 351.356 152.554C351.356 153.742 350.54 154.678 349.304 154.93L351.992 158.434H350.66L348.164 155.146H345.98ZM348.068 151.054H345.98V154.126H348.14C349.424 154.126 350.24 153.514 350.24 152.554C350.24 151.558 349.52 151.054 348.068 151.054ZM354.005 158.434H352.997V152.194H354.005V158.434ZM352.865 150.166C352.865 149.83 353.141 149.578 353.513 149.578C353.849 149.578 354.137 149.83 354.137 150.166C354.137 150.514 353.849 150.79 353.513 150.79C353.141 150.79 352.865 150.514 352.865 150.166ZM359.423 156.73C359.423 155.89 357.995 155.758 356.855 155.434C356.075 155.206 355.451 154.69 355.451 153.838C355.451 152.734 356.495 152.05 358.043 152.05C359.087 152.05 359.927 152.494 360.371 153.13L359.663 153.79C359.267 153.262 358.667 152.998 357.863 152.998C357.143 152.998 356.519 153.274 356.519 153.79C356.519 154.522 357.947 154.654 359.087 155.002C359.855 155.242 360.479 155.818 360.479 156.718C360.479 157.93 359.507 158.542 357.983 158.542C356.699 158.542 355.607 157.966 355.163 157.066L355.967 156.502C356.339 157.162 357.191 157.594 358.151 157.594C359.003 157.594 359.423 157.306 359.423 156.73ZM362.568 158.434H361.56V149.674H362.568V154.966L365.592 152.194H366.948L363.948 154.966L367.152 158.434H365.82L363.06 155.53L362.568 155.938V158.434ZM372.591 158.434H371.583V152.194H372.591V158.434ZM371.451 150.166C371.451 149.83 371.727 149.578 372.099 149.578C372.435 149.578 372.723 149.83 372.723 150.166C372.723 150.514 372.435 150.79 372.099 150.79C371.727 150.79 371.451 150.514 371.451 150.166ZM379.857 158.434H378.849V157.69C378.573 158.122 377.853 158.542 376.905 158.542C375.981 158.542 375.249 158.254 374.685 157.678C374.121 157.102 373.833 156.322 373.833 155.326C373.833 154.366 374.133 153.574 374.745 152.962C375.357 152.35 376.101 152.05 376.989 152.05C377.817 152.05 378.441 152.254 378.849 152.662V149.674H379.857V158.434ZM377.049 157.582C377.901 157.582 378.561 156.982 378.849 156.394V153.874C378.453 153.286 377.865 152.998 377.109 152.998C376.497 152.998 375.969 153.214 375.549 153.634C375.117 154.054 374.901 154.618 374.901 155.302C374.901 156.694 375.789 157.582 377.049 157.582ZM386.142 156.646L386.79 157.246C386.214 158.11 385.386 158.542 384.294 158.542C383.298 158.542 382.494 158.242 381.882 157.654C381.27 157.066 380.97 156.286 380.97 155.302C380.97 154.354 381.246 153.574 381.81 152.962C382.362 152.35 383.142 152.05 384.15 152.05C384.978 152.05 385.674 152.314 386.214 152.83C386.754 153.346 387.03 154.03 387.03 154.882C387.03 155.158 387.006 155.41 386.97 155.638H382.05C382.11 156.874 383.022 157.594 384.33 157.594C385.062 157.594 385.758 157.21 386.142 156.646ZM384.078 152.974C382.938 152.974 382.194 153.67 382.038 154.726H385.962C385.902 153.622 385.194 152.974 384.078 152.974ZM389.158 158.434H388.15V152.194H389.158V153.01C389.554 152.398 390.37 152.062 391.294 152.062C392.986 152.062 393.826 152.998 393.826 154.882V158.434H392.818V155.002C392.818 153.622 392.23 153.01 390.994 153.01C390.226 153.01 389.494 153.514 389.158 154.27V158.434ZM395.852 153.154H394.556V152.194H395.852V150.598H396.86V152.194H399.008V153.154H396.86V155.902C396.86 157.114 397.172 157.558 397.94 157.558C398.312 157.558 398.696 157.414 399.068 157.114L399.524 157.858C399.128 158.302 398.54 158.518 397.76 158.518C396.524 158.518 395.852 157.702 395.852 156.166V153.154ZM401.395 158.434H400.387V152.194H401.395V158.434ZM400.255 150.166C400.255 149.83 400.531 149.578 400.903 149.578C401.239 149.578 401.527 149.83 401.527 150.166C401.527 150.514 401.239 150.79 400.903 150.79C400.531 150.79 400.255 150.514 400.255 150.166ZM403.43 153.154H402.278V152.194H403.43V151.906C403.43 151.102 403.634 150.502 404.042 150.13C404.438 149.758 404.93 149.578 405.518 149.578C405.902 149.578 406.19 149.65 406.394 149.794L406.022 150.658C405.914 150.574 405.77 150.538 405.566 150.538C404.81 150.538 404.438 151.018 404.438 151.99V152.194H406.286V153.154H404.438V158.434H403.43V153.154ZM408.122 158.434H407.114V152.194H408.122V158.434ZM406.982 150.286C406.982 149.95 407.258 149.698 407.63 149.698C407.966 149.698 408.254 149.95 408.254 150.286C408.254 150.634 407.966 150.91 407.63 150.91C407.258 150.91 406.982 150.634 406.982 150.286ZM414.548 156.634L415.268 157.15C414.8 158.026 413.744 158.542 412.7 158.542C411.704 158.542 410.9 158.242 410.288 157.654C409.676 157.066 409.364 156.286 409.364 155.302C409.364 154.366 409.664 153.586 410.276 152.974C410.888 152.362 411.668 152.05 412.64 152.05C413.756 152.05 414.752 152.554 415.172 153.322L414.392 153.85C413.972 153.286 413.396 152.998 412.664 152.998C412.016 152.998 411.488 153.214 411.068 153.646C410.648 154.078 410.432 154.63 410.432 155.302C410.432 155.986 410.648 156.538 411.092 156.958C411.524 157.378 412.088 157.594 412.796 157.594C413.54 157.594 414.128 157.27 414.548 156.634ZM416.579 153.694L416.063 152.938C416.639 152.398 417.635 152.05 418.559 152.05C420.227 152.05 421.115 152.962 421.115 154.582V158.434H420.107V157.51C419.711 158.086 418.931 158.518 417.923 158.518C416.567 158.518 415.655 157.762 415.655 156.61C415.655 155.302 416.771 154.678 418.643 154.678C419.231 154.678 419.711 154.738 420.107 154.858C420.107 153.646 419.675 152.998 418.439 152.998C417.815 152.998 417.191 153.226 416.579 153.694ZM418.163 157.606C418.631 157.606 419.051 157.474 419.399 157.222C419.747 156.97 419.975 156.682 420.107 156.382V155.746C419.759 155.626 419.315 155.566 418.775 155.566C417.407 155.566 416.723 155.902 416.723 156.574C416.723 157.21 417.299 157.606 418.163 157.606ZM423.145 153.154H421.849V152.194H423.145V150.598H424.153V152.194H426.301V153.154H424.153V155.902C424.153 157.114 424.465 157.558 425.233 157.558C425.605 157.558 425.989 157.414 426.361 157.114L426.817 157.858C426.421 158.302 425.833 158.518 425.053 158.518C423.817 158.518 423.145 157.702 423.145 156.166V153.154ZM428.688 158.434H427.68V152.194H428.688V158.434ZM427.548 150.166C427.548 149.83 427.824 149.578 428.196 149.578C428.532 149.578 428.82 149.83 428.82 150.166C428.82 150.514 428.532 150.79 428.196 150.79C427.824 150.79 427.548 150.514 427.548 150.166ZM429.931 155.302C429.931 154.354 430.243 153.574 430.855 152.962C431.467 152.35 432.259 152.05 433.231 152.05C434.215 152.05 435.019 152.35 435.631 152.962C436.243 153.574 436.555 154.354 436.555 155.302C436.555 156.25 436.243 157.018 435.631 157.63C435.007 158.242 434.203 158.542 433.231 158.542C432.259 158.542 431.467 158.242 430.855 157.63C430.243 157.018 429.931 156.25 429.931 155.302ZM430.999 155.302C430.999 155.962 431.203 156.514 431.623 156.946C432.043 157.378 432.571 157.594 433.231 157.594C433.891 157.594 434.443 157.378 434.863 156.958C435.283 156.538 435.487 155.986 435.487 155.302C435.487 154.618 435.271 154.066 434.851 153.634C434.419 153.214 433.879 152.998 433.231 152.998C432.583 152.998 432.055 153.214 431.635 153.634C431.215 154.054 430.999 154.618 430.999 155.302ZM438.681 158.434H437.673V152.194H438.681V153.01C439.077 152.398 439.893 152.062 440.817 152.062C442.509 152.062 443.349 152.998 443.349 154.882V158.434H442.341V155.002C442.341 153.622 441.753 153.01 440.517 153.01C439.749 153.01 439.017 153.514 438.681 154.27V158.434ZM448.817 153.694L448.301 152.938C448.877 152.398 449.873 152.05 450.797 152.05C452.465 152.05 453.353 152.962 453.353 154.582V158.434H452.345V157.51C451.949 158.086 451.169 158.518 450.161 158.518C448.805 158.518 447.893 157.762 447.893 156.61C447.893 155.302 449.009 154.678 450.881 154.678C451.469 154.678 451.949 154.738 452.345 154.858C452.345 153.646 451.913 152.998 450.677 152.998C450.053 152.998 449.429 153.226 448.817 153.694ZM450.401 157.606C450.869 157.606 451.289 157.474 451.637 157.222C451.985 156.97 452.213 156.682 452.345 156.382V155.746C451.997 155.626 451.553 155.566 451.013 155.566C449.645 155.566 448.961 155.902 448.961 156.574C448.961 157.21 449.537 157.606 450.401 157.606ZM455.756 158.434H454.748V152.194H455.756V153.01C456.152 152.398 456.968 152.062 457.892 152.062C459.584 152.062 460.424 152.998 460.424 154.882V158.434H459.416V155.002C459.416 153.622 458.828 153.01 457.592 153.01C456.824 153.01 456.092 153.514 455.756 154.27V158.434ZM467.49 158.434H466.482V157.69C466.206 158.122 465.486 158.542 464.538 158.542C463.614 158.542 462.882 158.254 462.318 157.678C461.754 157.102 461.466 156.322 461.466 155.326C461.466 154.366 461.766 153.574 462.378 152.962C462.99 152.35 463.734 152.05 464.622 152.05C465.45 152.05 466.074 152.254 466.482 152.662V149.674H467.49V158.434ZM464.682 157.582C465.534 157.582 466.194 156.982 466.482 156.394V153.874C466.086 153.286 465.498 152.998 464.742 152.998C464.13 152.998 463.602 153.214 463.182 153.634C462.75 154.054 462.534 154.618 462.534 155.302C462.534 156.694 463.422 157.582 464.682 157.582ZM473.028 153.694L472.512 152.938C473.088 152.398 474.084 152.05 475.008 152.05C476.676 152.05 477.564 152.962 477.564 154.582V158.434H476.556V157.51C476.16 158.086 475.38 158.518 474.372 158.518C473.016 158.518 472.104 157.762 472.104 156.61C472.104 155.302 473.22 154.678 475.092 154.678C475.68 154.678 476.16 154.738 476.556 154.858C476.556 153.646 476.124 152.998 474.888 152.998C474.264 152.998 473.64 153.226 473.028 153.694ZM474.612 157.606C475.08 157.606 475.5 157.474 475.848 157.222C476.196 156.97 476.424 156.682 476.556 156.382V155.746C476.208 155.626 475.764 155.566 475.224 155.566C473.856 155.566 473.172 155.902 473.172 156.574C473.172 157.21 473.748 157.606 474.612 157.606ZM479.967 158.434H478.959V152.194H479.967V153.01C480.363 152.398 481.179 152.062 482.103 152.062C483.795 152.062 484.635 152.998 484.635 154.882V158.434H483.627V155.002C483.627 153.622 483.039 153.01 481.803 153.01C481.035 153.01 480.303 153.514 479.967 154.27V158.434ZM486.505 153.694L485.989 152.938C486.565 152.398 487.561 152.05 488.485 152.05C490.153 152.05 491.041 152.962 491.041 154.582V158.434H490.033V157.51C489.637 158.086 488.857 158.518 487.849 158.518C486.493 158.518 485.581 157.762 485.581 156.61C485.581 155.302 486.697 154.678 488.569 154.678C489.157 154.678 489.637 154.738 490.033 154.858C490.033 153.646 489.601 152.998 488.365 152.998C487.741 152.998 487.117 153.226 486.505 153.694ZM488.089 157.606C488.557 157.606 488.977 157.474 489.325 157.222C489.673 156.97 489.901 156.682 490.033 156.382V155.746C489.685 155.626 489.241 155.566 488.701 155.566C487.333 155.566 486.649 155.902 486.649 156.574C486.649 157.21 487.225 157.606 488.089 157.606ZM493.539 158.434H492.531V149.674H493.539V158.434ZM495.239 160.81L495.635 159.934C495.731 159.97 495.815 159.994 495.899 159.994C496.367 159.994 496.691 159.67 497.111 158.674L497.303 158.206L494.279 152.194H495.467L497.807 156.934L499.571 152.194H500.675L498.299 158.338C497.891 159.346 497.507 160.03 497.159 160.402C496.799 160.774 496.391 160.954 495.935 160.954C495.671 160.954 495.443 160.906 495.239 160.81ZM505.181 156.73C505.181 155.89 503.753 155.758 502.613 155.434C501.833 155.206 501.209 154.69 501.209 153.838C501.209 152.734 502.253 152.05 503.801 152.05C504.845 152.05 505.685 152.494 506.129 153.13L505.421 153.79C505.025 153.262 504.425 152.998 503.621 152.998C502.901 152.998 502.277 153.274 502.277 153.79C502.277 154.522 503.705 154.654 504.845 155.002C505.613 155.242 506.237 155.818 506.237 156.718C506.237 157.93 505.265 158.542 503.741 158.542C502.457 158.542 501.365 157.966 500.921 157.066L501.725 156.502C502.097 157.162 502.949 157.594 503.909 157.594C504.761 157.594 505.181 157.306 505.181 156.73ZM508.458 158.434H507.45V152.194H508.458V158.434ZM507.318 150.166C507.318 149.83 507.594 149.578 507.966 149.578C508.302 149.578 508.59 149.83 508.59 150.166C508.59 150.514 508.302 150.79 507.966 150.79C507.594 150.79 507.318 150.514 507.318 150.166ZM513.876 156.73C513.876 155.89 512.448 155.758 511.308 155.434C510.528 155.206 509.904 154.69 509.904 153.838C509.904 152.734 510.948 152.05 512.496 152.05C513.54 152.05 514.38 152.494 514.824 153.13L514.116 153.79C513.72 153.262 513.12 152.998 512.316 152.998C511.596 152.998 510.972 153.274 510.972 153.79C510.972 154.522 512.4 154.654 513.54 155.002C514.308 155.242 514.932 155.818 514.932 156.718C514.932 157.93 513.96 158.542 512.436 158.542C511.152 158.542 510.06 157.966 509.616 157.066L510.42 156.502C510.792 157.162 511.644 157.594 512.604 157.594C513.456 157.594 513.876 157.306 513.876 156.73Z" fill="#3C525E"/>
<rect x="897" y="132.5" width="222" height="45.8654" rx="2" fill="white"/>
<circle cx="923.5" cy="155.434" r="10.5" fill="#7BC3F8"/>
<path d="M919.815 155.293C919.815 153.962 920.145 152.939 920.794 152.213C921.443 151.498 922.257 151.135 923.236 151.135C924.523 151.135 925.535 151.718 925.964 152.642L925.216 153.148C924.765 152.433 924.094 152.081 923.192 152.081C922.51 152.081 921.938 152.345 921.476 152.873C921.014 153.412 920.783 154.138 920.794 155.073C921.223 154.27 922.224 153.786 923.324 153.786C924.215 153.786 924.93 154.017 925.447 154.49C925.964 154.963 926.228 155.59 926.228 156.36C926.228 157.141 925.942 157.79 925.359 158.285C924.776 158.78 924.05 159.033 923.181 159.033C921.102 159.033 919.815 157.68 919.815 155.293ZM920.915 156.228C921.124 157.317 921.949 158.087 923.17 158.087C923.764 158.087 924.259 157.933 924.644 157.614C925.029 157.306 925.216 156.899 925.216 156.404C925.216 155.315 924.446 154.732 923.269 154.732C922.62 154.732 922.081 154.886 921.663 155.194C921.234 155.502 920.992 155.843 920.915 156.228Z" fill="white"/>
<path d="M943.98 155.146V158.434H942.888V150.034H946.104C948.276 150.034 949.356 150.874 949.356 152.554C949.356 153.742 948.54 154.678 947.304 154.93L949.992 158.434H948.66L946.164 155.146H943.98ZM946.068 151.054H943.98V154.126H946.14C947.424 154.126 948.24 153.514 948.24 152.554C948.24 151.558 947.52 151.054 946.068 151.054ZM955.161 156.646L955.809 157.246C955.233 158.11 954.405 158.542 953.313 158.542C952.317 158.542 951.513 158.242 950.901 157.654C950.289 157.066 949.989 156.286 949.989 155.302C949.989 154.354 950.265 153.574 950.829 152.962C951.381 152.35 952.161 152.05 953.169 152.05C953.997 152.05 954.693 152.314 955.233 152.83C955.773 153.346 956.049 154.03 956.049 154.882C956.049 155.158 956.025 155.41 955.989 155.638H951.069C951.129 156.874 952.041 157.594 953.349 157.594C954.081 157.594 954.777 157.21 955.161 156.646ZM953.097 152.974C951.957 152.974 951.213 153.67 951.057 154.726H954.981C954.921 153.622 954.213 152.974 953.097 152.974ZM960.998 156.73C960.998 155.89 959.57 155.758 958.43 155.434C957.65 155.206 957.026 154.69 957.026 153.838C957.026 152.734 958.07 152.05 959.618 152.05C960.662 152.05 961.502 152.494 961.946 153.13L961.238 153.79C960.842 153.262 960.242 152.998 959.438 152.998C958.718 152.998 958.094 153.274 958.094 153.79C958.094 154.522 959.521 154.654 960.662 155.002C961.43 155.242 962.054 155.818 962.054 156.718C962.054 157.93 961.082 158.542 959.558 158.542C958.274 158.542 957.182 157.966 956.738 157.066L957.542 156.502C957.914 157.162 958.766 157.594 959.726 157.594C960.578 157.594 960.998 157.306 960.998 156.73ZM964.142 160.834H963.134V152.194H964.142V152.974C964.562 152.362 965.234 152.05 966.158 152.05C967.07 152.05 967.802 152.338 968.342 152.926C968.882 153.514 969.146 154.27 969.146 155.206C969.146 156.166 968.858 156.958 968.282 157.594C967.694 158.23 966.95 158.542 966.038 158.542C965.198 158.542 964.562 158.326 964.142 157.906V160.834ZM966.05 152.998C965.138 152.998 964.43 153.586 964.142 154.294V156.622C964.502 157.27 965.102 157.594 965.954 157.594C966.566 157.594 967.082 157.378 967.478 156.946C967.874 156.514 968.078 155.962 968.078 155.278C968.078 153.886 967.298 152.998 966.05 152.998ZM969.911 155.302C969.911 154.354 970.223 153.574 970.835 152.962C971.447 152.35 972.239 152.05 973.211 152.05C974.195 152.05 974.999 152.35 975.611 152.962C976.223 153.574 976.535 154.354 976.535 155.302C976.535 156.25 976.223 157.018 975.611 157.63C974.987 158.242 974.183 158.542 973.211 158.542C972.239 158.542 971.447 158.242 970.835 157.63C970.223 157.018 969.911 156.25 969.911 155.302ZM970.979 155.302C970.979 155.962 971.183 156.514 971.603 156.946C972.023 157.378 972.551 157.594 973.211 157.594C973.871 157.594 974.423 157.378 974.843 156.958C975.263 156.538 975.467 155.986 975.467 155.302C975.467 154.618 975.251 154.066 974.831 153.634C974.399 153.214 973.859 152.998 973.211 152.998C972.563 152.998 972.035 153.214 971.615 153.634C971.195 154.054 970.979 154.618 970.979 155.302ZM978.662 158.434H977.654V152.194H978.662V153.01C979.058 152.398 979.874 152.062 980.798 152.062C982.49 152.062 983.33 152.998 983.33 154.882V158.434H982.322V155.002C982.322 153.622 981.734 153.01 980.498 153.01C979.73 153.01 978.998 153.514 978.662 154.27V158.434ZM990.396 158.434H989.388V157.69C989.112 158.122 988.392 158.542 987.444 158.542C986.52 158.542 985.788 158.254 985.224 157.678C984.66 157.102 984.372 156.322 984.372 155.326C984.372 154.366 984.672 153.574 985.284 152.962C985.896 152.35 986.64 152.05 987.528 152.05C988.356 152.05 988.98 152.254 989.388 152.662V149.674H990.396V158.434ZM987.588 157.582C988.44 157.582 989.1 156.982 989.388 156.394V153.874C988.992 153.286 988.404 152.998 987.648 152.998C987.036 152.998 986.508 153.214 986.088 153.634C985.656 154.054 985.44 154.618 985.44 155.302C985.44 156.694 986.328 157.582 987.588 157.582ZM992.997 158.434H991.989V152.194H992.997V158.434ZM991.857 150.166C991.857 149.83 992.133 149.578 992.505 149.578C992.841 149.578 993.129 149.83 993.129 150.166C993.129 150.514 992.841 150.79 992.505 150.79C992.133 150.79 991.857 150.514 991.857 150.166ZM995.595 158.434H994.587V152.194H995.595V153.01C995.991 152.398 996.807 152.062 997.731 152.062C999.423 152.062 1000.26 152.998 1000.26 154.882V158.434H999.255V155.002C999.255 153.622 998.667 153.01 997.431 153.01C996.663 153.01 995.931 153.514 995.595 154.27V158.434ZM1006.3 152.194H1007.32V157.954C1007.32 159.97 1006.21 160.942 1004.52 160.942C1003.17 160.942 1002.09 160.354 1001.74 159.43L1002.64 159.034C1002.91 159.574 1003.54 159.982 1004.46 159.982C1005.66 159.982 1006.3 159.298 1006.3 158.134V157.762C1005.83 158.302 1005.39 158.542 1004.41 158.542C1003.47 158.542 1002.72 158.254 1002.16 157.666C1001.59 157.09 1001.31 156.298 1001.31 155.302C1001.31 154.318 1001.61 153.526 1002.21 152.938C1002.79 152.35 1003.54 152.062 1004.43 152.062C1005.3 152.062 1005.97 152.362 1006.3 152.746V152.194ZM1004.58 157.594C1005.43 157.594 1006.07 157.066 1006.3 156.406V153.898C1006 153.37 1005.37 153.01 1004.57 153.01C1003.95 153.01 1003.43 153.214 1003.01 153.622C1002.59 154.03 1002.37 154.594 1002.37 155.326C1002.37 156.73 1003.23 157.594 1004.58 157.594ZM1013 153.154H1011.7V152.194H1013V150.598H1014.01V152.194H1016.16V153.154H1014.01V155.902C1014.01 157.114 1014.32 157.558 1015.09 157.558C1015.46 157.558 1015.84 157.414 1016.22 157.114L1016.67 157.858C1016.28 158.302 1015.69 158.518 1014.91 158.518C1013.67 158.518 1013 157.702 1013 156.166V153.154ZM1016.88 155.302C1016.88 154.354 1017.19 153.574 1017.8 152.962C1018.42 152.35 1019.21 152.05 1020.18 152.05C1021.16 152.05 1021.97 152.35 1022.58 152.962C1023.19 153.574 1023.5 154.354 1023.5 155.302C1023.5 156.25 1023.19 157.018 1022.58 157.63C1021.96 158.242 1021.15 158.542 1020.18 158.542C1019.21 158.542 1018.42 158.242 1017.8 157.63C1017.19 157.018 1016.88 156.25 1016.88 155.302ZM1017.95 155.302C1017.95 155.962 1018.15 156.514 1018.57 156.946C1018.99 157.378 1019.52 157.594 1020.18 157.594C1020.84 157.594 1021.39 157.378 1021.81 156.958C1022.23 156.538 1022.44 155.986 1022.44 155.302C1022.44 154.618 1022.22 154.066 1021.8 153.634C1021.37 153.214 1020.83 152.998 1020.18 152.998C1019.53 152.998 1019 153.214 1018.58 153.634C1018.16 154.054 1017.95 154.618 1017.95 155.302ZM1028.7 153.694L1028.18 152.938C1028.76 152.398 1029.76 152.05 1030.68 152.05C1032.35 152.05 1033.24 152.962 1033.24 154.582V158.434H1032.23V157.51C1031.83 158.086 1031.05 158.518 1030.04 158.518C1028.69 158.518 1027.78 157.762 1027.78 156.61C1027.78 155.302 1028.89 154.678 1030.76 154.678C1031.35 154.678 1031.83 154.738 1032.23 154.858C1032.23 153.646 1031.8 152.998 1030.56 152.998C1029.94 152.998 1029.31 153.226 1028.7 153.694ZM1030.28 157.606C1030.75 157.606 1031.17 157.474 1031.52 157.222C1031.87 156.97 1032.1 156.682 1032.23 156.382V155.746C1031.88 155.626 1031.44 155.566 1030.9 155.566C1029.53 155.566 1028.84 155.902 1028.84 156.574C1028.84 157.21 1029.42 157.606 1030.28 157.606ZM1039.24 158.434H1038.23V152.194H1039.24V152.674C1039.44 152.254 1039.98 152.062 1040.52 152.062C1041.07 152.062 1041.49 152.254 1041.79 152.626L1041.16 153.322C1041 153.118 1040.76 153.01 1040.41 153.01C1039.87 153.01 1039.38 153.454 1039.24 154.09V158.434ZM1043.61 158.434H1042.6V152.194H1043.61V158.434ZM1042.47 150.166C1042.47 149.83 1042.75 149.578 1043.12 149.578C1043.45 149.578 1043.74 149.83 1043.74 150.166C1043.74 150.514 1043.45 150.79 1043.12 150.79C1042.75 150.79 1042.47 150.514 1042.47 150.166ZM1049.03 156.73C1049.03 155.89 1047.6 155.758 1046.46 155.434C1045.68 155.206 1045.06 154.69 1045.06 153.838C1045.06 152.734 1046.1 152.05 1047.65 152.05C1048.69 152.05 1049.53 152.494 1049.98 153.13L1049.27 153.79C1048.87 153.262 1048.27 152.998 1047.47 152.998C1046.75 152.998 1046.12 153.274 1046.12 153.79C1046.12 154.522 1047.55 154.654 1048.69 155.002C1049.46 155.242 1050.08 155.818 1050.08 156.718C1050.08 157.93 1049.11 158.542 1047.59 158.542C1046.3 158.542 1045.21 157.966 1044.77 157.066L1045.57 156.502C1045.94 157.162 1046.8 157.594 1047.76 157.594C1048.61 157.594 1049.03 157.306 1049.03 156.73ZM1052.17 158.434H1051.17V149.674H1052.17V154.966L1055.2 152.194H1056.55L1053.55 154.966L1056.76 158.434H1055.43L1052.67 155.53L1052.17 155.938V158.434Z" fill="#3C525E"/>
<path d="M105 124.347L107.887 119.347H102.113L105 124.347ZM105 68.2891V67.7891H104.5V68.2891H105ZM1015 68.2891H1015.5V67.7891H1015V68.2891ZM1015 124.347L1017.89 119.347H1012.11L1015 124.347ZM105.5 119.847V68.2891H104.5V119.847H105.5ZM105 68.7891H1015V67.7891H105V68.7891ZM1014.5 68.2891V119.847H1015.5V68.2891H1014.5Z" fill="#ABBEC9"/>
<path d="M709 124.346L711.887 119.346L706.113 119.346L709 124.346ZM709.5 119.846L709.5 68.288L708.5 68.288L708.5 119.846L709.5 119.846Z" fill="#ABBEC9"/>
<path d="M410 124.346L412.887 119.346L407.113 119.346L410 124.346ZM410.5 119.846L410.5 68.288L409.5 68.288L409.5 119.846L410.5 119.846Z" fill="#ABBEC9"/>
<rect x="449" y="45.8652" width="222" height="45.8654" rx="2" fill="white"/>
<circle cx="475.5" cy="68.7988" r="10.5" fill="#7BC3F8"/>
<path d="M473.485 67.1398L472.682 66.8538C472.957 65.4898 473.991 64.5108 475.63 64.5108C477.214 64.5108 478.182 65.4238 478.182 66.8208C478.182 67.5578 477.863 68.2948 477.467 68.8228C477.269 69.0978 477.016 69.3618 476.719 69.6368C476.114 70.1758 475.685 70.4618 475.058 70.8578L474.211 71.3858H478.468V72.2988H472.473V71.5508L474.145 70.4398C474.442 70.2528 474.651 70.1098 474.772 70.0218C474.893 69.9448 475.091 69.8018 475.355 69.6148C475.619 69.4278 475.817 69.2628 475.949 69.1418C476.07 69.0208 476.235 68.8668 476.422 68.6688C476.928 68.1188 477.115 67.6128 477.17 66.9198C477.17 65.9188 476.521 65.4678 475.564 65.4678C474.97 65.4678 474.497 65.6328 474.156 65.9628C473.815 66.2928 473.584 66.6888 473.485 67.1398Z" fill="white"/>
<path d="M495.98 71.7988H494.888V63.3988H495.896L499.088 67.6228L502.172 63.3988H503.156V71.7988H502.064V65.2828L499.196 69.1468H498.932L495.98 65.2828V71.7988ZM504.427 68.6668C504.427 67.7188 504.739 66.9388 505.351 66.3268C505.963 65.7148 506.755 65.4148 507.727 65.4148C508.711 65.4148 509.515 65.7148 510.127 66.3268C510.739 66.9388 511.051 67.7188 511.051 68.6668C511.051 69.6148 510.739 70.3828 510.127 70.9948C509.503 71.6068 508.699 71.9068 507.727 71.9068C506.755 71.9068 505.963 71.6068 505.351 70.9948C504.739 70.3828 504.427 69.6148 504.427 68.6668ZM505.495 68.6668C505.495 69.3268 505.699 69.8788 506.119 70.3108C506.539 70.7428 507.067 70.9588 507.727 70.9588C508.387 70.9588 508.939 70.7428 509.359 70.3228C509.779 69.9028 509.983 69.3508 509.983 68.6668C509.983 67.9828 509.767 67.4308 509.347 66.9988C508.915 66.5788 508.375 66.3628 507.727 66.3628C507.079 66.3628 506.551 66.5788 506.131 66.9988C505.711 67.4188 505.495 67.9828 505.495 68.6668ZM513.178 71.7988H512.17V65.5588H513.178V66.3748C513.574 65.7628 514.39 65.4268 515.314 65.4268C517.006 65.4268 517.846 66.3628 517.846 68.2468V71.7988H516.838V68.3668C516.838 66.9868 516.25 66.3748 515.014 66.3748C514.246 66.3748 513.514 66.8788 513.178 67.6348V71.7988ZM520.376 71.7988H519.368V65.5588H520.376V71.7988ZM519.236 63.5308C519.236 63.1948 519.512 62.9428 519.884 62.9428C520.22 62.9428 520.508 63.1948 520.508 63.5308C520.508 63.8788 520.22 64.1548 519.884 64.1548C519.512 64.1548 519.236 63.8788 519.236 63.5308ZM522.602 66.5188H521.306V65.5588H522.602V63.9628H523.61V65.5588H525.758V66.5188H523.61V69.2668C523.61 70.4788 523.922 70.9228 524.69 70.9228C525.062 70.9228 525.446 70.7788 525.818 70.4788L526.274 71.2228C525.878 71.6668 525.29 71.8828 524.51 71.8828C523.274 71.8828 522.602 71.0668 522.602 69.5308V66.5188ZM526.482 68.6668C526.482 67.7188 526.794 66.9388 527.406 66.3268C528.018 65.7148 528.81 65.4148 529.782 65.4148C530.766 65.4148 531.57 65.7148 532.182 66.3268C532.794 66.9388 533.106 67.7188 533.106 68.6668C533.106 69.6148 532.794 70.3828 532.182 70.9948C531.558 71.6068 530.754 71.9068 529.782 71.9068C528.81 71.9068 528.018 71.6068 527.406 70.9948C526.794 70.3828 526.482 69.6148 526.482 68.6668ZM527.55 68.6668C527.55 69.3268 527.754 69.8788 528.174 70.3108C528.594 70.7428 529.122 70.9588 529.782 70.9588C530.442 70.9588 530.994 70.7428 531.414 70.3228C531.834 69.9028 532.038 69.3508 532.038 68.6668C532.038 67.9828 531.822 67.4308 531.402 66.9988C530.97 66.5788 530.43 66.3628 529.782 66.3628C529.134 66.3628 528.606 66.5788 528.186 66.9988C527.766 67.4188 527.55 67.9828 527.55 68.6668ZM535.232 71.7988H534.224V65.5588H535.232V66.0388C535.436 65.6188 535.976 65.4268 536.516 65.4268C537.068 65.4268 537.488 65.6188 537.788 65.9908L537.152 66.6868C536.996 66.4828 536.756 66.3748 536.408 66.3748C535.868 66.3748 535.376 66.8188 535.232 67.4548V71.7988ZM539.606 71.7988H538.598V65.5588H539.606V71.7988ZM538.466 63.5308C538.466 63.1948 538.742 62.9428 539.114 62.9428C539.45 62.9428 539.738 63.1948 539.738 63.5308C539.738 63.8788 539.45 64.1548 539.114 64.1548C538.742 64.1548 538.466 63.8788 538.466 63.5308ZM542.205 71.7988H541.197V65.5588H542.205V66.3748C542.601 65.7628 543.417 65.4268 544.341 65.4268C546.033 65.4268 546.873 66.3628 546.873 68.2468V71.7988H545.865V68.3668C545.865 66.9868 545.277 66.3748 544.041 66.3748C543.273 66.3748 542.541 66.8788 542.205 67.6348V71.7988ZM552.907 65.5588H553.927V71.3188C553.927 73.3348 552.823 74.3068 551.131 74.3068C549.775 74.3068 548.695 73.7188 548.347 72.7948L549.247 72.3988C549.523 72.9388 550.147 73.3468 551.071 73.3468C552.271 73.3468 552.907 72.6628 552.907 71.4988V71.1268C552.439 71.6668 551.995 71.9068 551.023 71.9068C550.075 71.9068 549.331 71.6188 548.767 71.0308C548.203 70.4548 547.915 69.6628 547.915 68.6668C547.915 67.6828 548.215 66.8908 548.815 66.3028C549.403 65.7148 550.147 65.4268 551.035 65.4268C551.911 65.4268 552.583 65.7268 552.907 66.1108V65.5588ZM551.191 70.9588C552.043 70.9588 552.679 70.4308 552.907 69.7708V67.2628C552.607 66.7348 551.983 66.3748 551.179 66.3748C550.555 66.3748 550.039 66.5788 549.619 66.9868C549.199 67.3948 548.983 67.9588 548.983 68.6908C548.983 70.0948 549.835 70.9588 551.191 70.9588Z" fill="#3C525E"/>
<rect x="449" y="219.135" width="222" height="45.8654" rx="2" fill="white"/>
<circle cx="475.5" cy="242.068" r="10.5" fill="#7BC3F8"/>
<path d="M477.242 238.803H472.578V237.868H478.419V238.495L474.591 245.568H473.546L477.242 238.803Z" fill="white"/>
<path d="M497.36 245.068H494.888V236.668H497.48C500.888 236.668 502.112 238.552 502.112 240.748C502.112 242.02 501.716 243.052 500.912 243.856C500.108 244.66 498.932 245.068 497.36 245.068ZM497.456 237.688H495.98V244.048H497.432C499.832 244.048 500.984 242.764 500.984 240.748C500.984 238.864 499.916 237.688 497.456 237.688ZM502.868 241.936C502.868 240.988 503.18 240.208 503.792 239.596C504.404 238.984 505.196 238.684 506.168 238.684C507.152 238.684 507.956 238.984 508.568 239.596C509.18 240.208 509.492 240.988 509.492 241.936C509.492 242.884 509.18 243.652 508.568 244.264C507.944 244.876 507.14 245.176 506.168 245.176C505.196 245.176 504.404 244.876 503.792 244.264C503.18 243.652 502.868 242.884 502.868 241.936ZM503.936 241.936C503.936 242.596 504.14 243.148 504.56 243.58C504.98 244.012 505.508 244.228 506.168 244.228C506.828 244.228 507.38 244.012 507.8 243.592C508.22 243.172 508.424 242.62 508.424 241.936C508.424 241.252 508.208 240.7 507.788 240.268C507.356 239.848 506.816 239.632 506.168 239.632C505.52 239.632 504.992 239.848 504.572 240.268C504.152 240.688 503.936 241.252 503.936 241.936ZM515.447 243.268L516.167 243.784C515.699 244.66 514.643 245.176 513.599 245.176C512.603 245.176 511.799 244.876 511.187 244.288C510.575 243.7 510.263 242.92 510.263 241.936C510.263 241 510.563 240.22 511.175 239.608C511.787 238.996 512.567 238.684 513.539 238.684C514.655 238.684 515.651 239.188 516.071 239.956L515.291 240.484C514.871 239.92 514.295 239.632 513.563 239.632C512.915 239.632 512.387 239.848 511.967 240.28C511.547 240.712 511.331 241.264 511.331 241.936C511.331 242.62 511.547 243.172 511.991 243.592C512.423 244.012 512.987 244.228 513.695 244.228C514.439 244.228 515.027 243.904 515.447 243.268ZM521.51 238.792H522.518V245.068H521.51V244.18C521.03 244.84 520.358 245.176 519.482 245.176C517.754 245.176 516.914 244.312 516.914 242.404V238.792H517.922V242.26C517.922 243.568 518.474 244.228 519.566 244.228C520.43 244.228 521.126 243.736 521.51 242.872V238.792ZM533.018 240.928V245.068H532.01V241.24C532.01 240.172 531.578 239.644 530.714 239.644C529.934 239.644 529.358 240.028 528.998 240.784V245.068H527.99V240.916C527.99 240.16 527.498 239.644 526.694 239.644C525.89 239.644 525.254 240.244 524.978 240.904V245.068H523.97V238.828H524.978V239.668C525.35 239.092 526.07 238.696 526.886 238.696C527.774 238.696 528.386 239.02 528.722 239.668C529.214 239.02 529.898 238.696 530.774 238.696C532.166 238.696 533.018 239.392 533.018 240.928ZM539.224 243.28L539.872 243.88C539.296 244.744 538.468 245.176 537.376 245.176C536.38 245.176 535.576 244.876 534.964 244.288C534.352 243.7 534.052 242.92 534.052 241.936C534.052 240.988 534.328 240.208 534.892 239.596C535.444 238.984 536.224 238.684 537.232 238.684C538.06 238.684 538.756 238.948 539.296 239.464C539.836 239.98 540.112 240.664 540.112 241.516C540.112 241.792 540.088 242.044 540.052 242.272H535.132C535.192 243.508 536.104 244.228 537.412 244.228C538.144 244.228 538.84 243.844 539.224 243.28ZM537.16 239.608C536.02 239.608 535.276 240.304 535.12 241.36H539.044C538.984 240.256 538.276 239.608 537.16 239.608ZM542.24 245.068H541.232V238.828H542.24V239.644C542.636 239.032 543.452 238.696 544.376 238.696C546.068 238.696 546.908 239.632 546.908 241.516V245.068H545.9V241.636C545.9 240.256 545.312 239.644 544.076 239.644C543.308 239.644 542.576 240.148 542.24 240.904V245.068ZM548.934 239.788H547.638V238.828H548.934V237.232H549.942V238.828H552.09V239.788H549.942V242.536C549.942 243.748 550.254 244.192 551.022 244.192C551.394 244.192 551.778 244.048 552.15 243.748L552.606 244.492C552.21 244.936 551.622 245.152 550.842 245.152C549.606 245.152 548.934 244.336 548.934 242.8V239.788ZM553.817 240.328L553.301 239.572C553.877 239.032 554.873 238.684 555.797 238.684C557.465 238.684 558.353 239.596 558.353 241.216V245.068H557.345V244.144C556.949 244.72 556.169 245.152 555.161 245.152C553.805 245.152 552.893 244.396 552.893 243.244C552.893 241.936 554.009 241.312 555.881 241.312C556.469 241.312 556.949 241.372 557.345 241.492C557.345 240.28 556.913 239.632 555.677 239.632C555.053 239.632 554.429 239.86 553.817 240.328ZM555.401 244.24C555.869 244.24 556.289 244.108 556.637 243.856C556.985 243.604 557.213 243.316 557.345 243.016V242.38C556.997 242.26 556.553 242.2 556.013 242.2C554.645 242.2 553.961 242.536 553.961 243.208C553.961 243.844 554.537 244.24 555.401 244.24ZM560.384 239.788H559.088V238.828H560.384V237.232H561.392V238.828H563.54V239.788H561.392V242.536C561.392 243.748 561.704 244.192 562.472 244.192C562.844 244.192 563.228 244.048 563.6 243.748L564.056 244.492C563.66 244.936 563.072 245.152 562.292 245.152C561.056 245.152 560.384 244.336 560.384 242.8V239.788ZM565.927 245.068H564.919V238.828H565.927V245.068ZM564.787 236.8C564.787 236.464 565.063 236.212 565.435 236.212C565.771 236.212 566.059 236.464 566.059 236.8C566.059 237.148 565.771 237.424 565.435 237.424C565.063 237.424 564.787 237.148 564.787 236.8ZM567.169 241.936C567.169 240.988 567.481 240.208 568.093 239.596C568.705 238.984 569.497 238.684 570.469 238.684C571.453 238.684 572.257 238.984 572.869 239.596C573.481 240.208 573.793 240.988 573.793 241.936C573.793 242.884 573.481 243.652 572.869 244.264C572.245 244.876 571.441 245.176 570.469 245.176C569.497 245.176 568.705 244.876 568.093 244.264C567.481 243.652 567.169 242.884 567.169 241.936ZM568.237 241.936C568.237 242.596 568.441 243.148 568.861 243.58C569.281 244.012 569.809 244.228 570.469 244.228C571.129 244.228 571.681 244.012 572.101 243.592C572.521 243.172 572.725 242.62 572.725 241.936C572.725 241.252 572.509 240.7 572.089 240.268C571.657 239.848 571.117 239.632 570.469 239.632C569.821 239.632 569.293 239.848 568.873 240.268C568.453 240.688 568.237 241.252 568.237 241.936ZM575.92 245.068H574.912V238.828H575.92V239.644C576.316 239.032 577.132 238.696 578.056 238.696C579.748 238.696 580.588 239.632 580.588 241.516V245.068H579.58V241.636C579.58 240.256 578.992 239.644 577.756 239.644C576.988 239.644 576.256 240.148 575.92 240.904V245.068Z" fill="#3C525E"/>
<rect x="0.5" y="0.5" width="1119" height="304" rx="1.5" stroke="#7BC3F8" stroke-dasharray="2 2"/>
</svg>
