<svg width="335" height="523" viewBox="0 0 335 523" fill="none" xmlns="http://www.w3.org/2000/svg">
<rect y="2.58203" width="10" height="10" fill="url(#paint0_linear_2355_31535)"/>
<path d="M19.98 8.29403V11.582H18.888V3.18203H22.104C24.276 3.18203 25.356 4.02203 25.356 5.70203C25.356 6.89003 24.54 7.82603 23.304 8.07803L25.992 11.582H24.66L22.164 8.29403H19.98ZM22.068 4.20203H19.98V7.27403H22.14C23.424 7.27403 24.24 6.66203 24.24 5.70203C24.24 4.70603 23.52 4.20203 22.068 4.20203ZM31.2568 5.30603H32.2648V11.582H31.2568V10.694C30.7768 11.354 30.1048 11.69 29.2288 11.69C27.5008 11.69 26.6608 10.826 26.6608 8.91803V5.30603H27.6688V8.77403C27.6688 10.082 28.2208 10.742 29.3128 10.742C30.1768 10.742 30.8728 10.25 31.2568 9.38603V5.30603ZM37.4255 9.87803C37.4255 9.03803 35.9975 8.90603 34.8575 8.58203C34.0775 8.35403 33.4535 7.83803 33.4535 6.98603C33.4535 5.88203 34.4975 5.19803 36.0455 5.19803C37.0895 5.19803 37.9295 5.64203 38.3735 6.27803L37.6655 6.93803C37.2695 6.41003 36.6695 6.14603 35.8655 6.14603C35.1455 6.14603 34.5215 6.42203 34.5215 6.93803C34.5215 7.67003 35.9495 7.80203 37.0895 8.15003C37.8575 8.39003 38.4815 8.96603 38.4815 9.86603C38.4815 11.078 37.5095 11.69 35.9855 11.69C34.7015 11.69 33.6095 11.114 33.1655 10.214L33.9695 9.65003C34.3415 10.31 35.1935 10.742 36.1535 10.742C37.0055 10.742 37.4255 10.454 37.4255 9.87803ZM43.2703 9.87803C43.2703 9.03803 41.8423 8.90603 40.7023 8.58203C39.9223 8.35403 39.2983 7.83803 39.2983 6.98603C39.2983 5.88203 40.3423 5.19803 41.8903 5.19803C42.9343 5.19803 43.7743 5.64203 44.2183 6.27803L43.5103 6.93803C43.1143 6.41003 42.5143 6.14603 41.7103 6.14603C40.9903 6.14603 40.3663 6.42203 40.3663 6.93803C40.3663 7.67003 41.7943 7.80203 42.9343 8.15003C43.7023 8.39003 44.3263 8.96603 44.3263 9.86603C44.3263 11.078 43.3543 11.69 41.8303 11.69C40.5463 11.69 39.4543 11.114 39.0103 10.214L39.8143 9.65003C40.1863 10.31 41.0383 10.742 41.9983 10.742C42.8503 10.742 43.2703 10.454 43.2703 9.87803ZM46.4272 11.582H45.4192V5.34203H46.4272V11.582ZM45.2872 3.31403C45.2872 2.97803 45.5632 2.72603 45.9352 2.72603C46.2712 2.72603 46.5592 2.97803 46.5592 3.31403C46.5592 3.66203 46.2712 3.93803 45.9352 3.93803C45.5632 3.93803 45.2872 3.66203 45.2872 3.31403ZM48.3776 6.84203L47.8616 6.08603C48.4376 5.54603 49.4336 5.19803 50.3576 5.19803C52.0256 5.19803 52.9136 6.11003 52.9136 7.73003V11.582H51.9056V10.658C51.5096 11.234 50.7296 11.666 49.7216 11.666C48.3656 11.666 47.4536 10.91 47.4536 9.75803C47.4536 8.45003 48.5696 7.82603 50.4416 7.82603C51.0296 7.82603 51.5096 7.88603 51.9056 8.00603C51.9056 6.79403 51.4736 6.14603 50.2376 6.14603C49.6136 6.14603 48.9896 6.37403 48.3776 6.84203ZM49.9616 10.754C50.4296 10.754 50.8496 10.622 51.1976 10.37C51.5456 10.118 51.7736 9.83003 51.9056 9.53003V8.89403C51.5576 8.77403 51.1136 8.71403 50.5736 8.71403C49.2056 8.71403 48.5216 9.05003 48.5216 9.72203C48.5216 10.358 49.0976 10.754 49.9616 10.754Z" fill="#76848D"/>
<rect x="90" y="2.58203" width="10" height="10" fill="#737AF9"/>
<path d="M112.224 11.582H108.888V3.18203H112.284C114.432 3.18203 115.248 3.96203 115.248 5.27003C115.248 6.20603 114.852 6.84203 114.06 7.19003C114.984 7.38203 115.548 8.09003 115.548 9.18203C115.548 10.826 114.324 11.582 112.224 11.582ZM112.332 7.79003H109.98V10.562H112.212C113.736 10.562 114.42 10.118 114.42 9.12203C114.42 8.23403 113.724 7.79003 112.332 7.79003ZM112.188 4.20203H109.98V6.79403H112.368C113.436 6.79403 114.132 6.31403 114.132 5.49803C114.132 4.59803 113.616 4.20203 112.188 4.20203ZM121.51 9.79403L122.158 10.394C121.582 11.258 120.754 11.69 119.662 11.69C118.666 11.69 117.862 11.39 117.25 10.802C116.638 10.214 116.338 9.43403 116.338 8.45003C116.338 7.50203 116.614 6.72203 117.178 6.11003C117.73 5.49803 118.51 5.19803 119.518 5.19803C120.346 5.19803 121.042 5.46203 121.582 5.97803C122.122 6.49403 122.398 7.17803 122.398 8.03003C122.398 8.30603 122.374 8.55803 122.338 8.78603H117.418C117.478 10.022 118.39 10.742 119.698 10.742C120.43 10.742 121.126 10.358 121.51 9.79403ZM119.446 6.12203C118.306 6.12203 117.562 6.81803 117.406 7.87403H121.33C121.27 6.77003 120.562 6.12203 119.446 6.12203ZM124.502 11.582H123.494V2.82203H124.502V11.582ZM126.418 6.84203L125.902 6.08603C126.478 5.54603 127.474 5.19803 128.398 5.19803C130.066 5.19803 130.954 6.11003 130.954 7.73003V11.582H129.946V10.658C129.55 11.234 128.77 11.666 127.762 11.666C126.406 11.666 125.494 10.91 125.494 9.75803C125.494 8.45003 126.61 7.82603 128.482 7.82603C129.07 7.82603 129.55 7.88603 129.946 8.00603C129.946 6.79403 129.514 6.14603 128.278 6.14603C127.654 6.14603 127.03 6.37403 126.418 6.84203ZM128.002 10.754C128.47 10.754 128.89 10.622 129.238 10.37C129.586 10.118 129.814 9.83003 129.946 9.53003V8.89403C129.598 8.77403 129.154 8.71403 128.614 8.71403C127.246 8.71403 126.562 9.05003 126.562 9.72203C126.562 10.358 127.138 10.754 128.002 10.754ZM133.237 11.582H132.229V5.34203H133.237V5.82203C133.441 5.40203 133.981 5.21003 134.521 5.21003C135.073 5.21003 135.493 5.40203 135.793 5.77403L135.157 6.47003C135.001 6.26603 134.761 6.15803 134.413 6.15803C133.873 6.15803 133.381 6.60203 133.237 7.23803V11.582ZM140.863 5.30603H141.871V11.582H140.863V10.694C140.383 11.354 139.711 11.69 138.835 11.69C137.107 11.69 136.267 10.826 136.267 8.91803V5.30603H137.275V8.77403C137.275 10.082 137.827 10.742 138.919 10.742C139.783 10.742 140.479 10.25 140.863 9.38603V5.30603ZM147.031 9.87803C147.031 9.03803 145.603 8.90603 144.463 8.58203C143.683 8.35403 143.059 7.83803 143.059 6.98603C143.059 5.88203 144.103 5.19803 145.651 5.19803C146.695 5.19803 147.535 5.64203 147.979 6.27803L147.271 6.93803C146.875 6.41003 146.275 6.14603 145.471 6.14603C144.751 6.14603 144.127 6.42203 144.127 6.93803C144.127 7.67003 145.555 7.80203 146.695 8.15003C147.463 8.39003 148.087 8.96603 148.087 9.86603C148.087 11.078 147.115 11.69 145.591 11.69C144.307 11.69 143.215 11.114 142.771 10.214L143.575 9.65003C143.947 10.31 144.799 10.742 145.759 10.742C146.611 10.742 147.031 10.454 147.031 9.87803Z" fill="#76848D"/>
<path d="M18.0781 47.638L17.0281 47.162C17.5461 45.65 18.9041 44.656 20.9341 44.656C21.9001 44.656 22.6981 44.88 23.3141 45.328C23.9301 45.776 24.2381 46.378 24.2381 47.12C24.2381 48.254 23.6361 49.094 22.5161 49.416C23.5941 49.486 24.4621 50.298 24.4621 51.754C24.4621 52.678 24.1261 53.406 23.4541 53.924C22.7821 54.442 21.9281 54.708 20.8781 54.708C18.7361 54.708 17.2521 53.686 16.7621 52.076L17.8961 51.586C18.4981 52.86 19.5201 53.504 20.9621 53.504C22.3201 53.504 23.1741 52.874 23.1741 51.768C23.1741 50.69 22.3341 50.144 20.6541 50.144H19.5621V48.982H20.4301C21.9561 48.982 22.9501 48.296 22.9501 47.358C22.9501 46.392 22.1521 45.846 20.8781 45.846C19.3801 45.846 18.4701 46.616 18.0781 47.638ZM25.7107 53.784C25.7107 53.392 26.0747 53 26.5787 53C27.0407 53 27.4187 53.392 27.4187 53.784C27.4187 54.232 27.0687 54.61 26.5787 54.61C26.0747 54.61 25.7107 54.232 25.7107 53.784ZM28.5763 49.682C28.5763 48.17 28.9263 46.952 29.6403 46.042C30.3403 45.132 31.3763 44.67 32.7343 44.67C35.5203 44.67 36.9063 46.504 36.9063 49.682C36.9063 51.208 36.5563 52.412 35.8703 53.322C35.1703 54.232 34.1343 54.694 32.7623 54.694C31.4463 54.694 30.4243 54.232 29.6823 53.308C28.9403 52.384 28.5763 51.18 28.5763 49.682ZM29.8643 49.682C29.8643 52.076 30.9563 53.504 32.7623 53.504C34.6663 53.504 35.6183 52.23 35.6183 49.682C35.6183 47.134 34.6523 45.86 32.7343 45.86C30.7883 45.86 29.8643 47.26 29.8643 49.682Z" fill="#1A3341"/>
<path d="M11 66.582C11 65.4775 11.8954 64.582 13 64.582H41C42.1046 64.582 43 65.4775 43 66.582V102.582H11V66.582Z" fill="url(#paint1_linear_2355_31535)"/>
<path opacity="0.2" d="M23 64.582H31V102.582H23V64.582Z" fill="url(#paint2_linear_2355_31535)"/>
<path opacity="0.04" d="M31 64.582H41C42.1046 64.582 43 65.4775 43 66.582V102.582H31V64.582Z" fill="#0D262C"/>
<path opacity="0.5" d="M11 66.582C11 65.4775 11.8954 64.582 13 64.582H23V102.582H11V66.582Z" fill="url(#paint3_linear_2355_31535)"/>
<path d="M51 105.582C51 106.687 51.8954 107.582 53 107.582H81C82.1046 107.582 83 106.687 83 105.582V102.582H51V105.582Z" fill="url(#paint4_linear_2355_31535)"/>
<path opacity="0.2" d="M63 107.582H71V102.582H63V107.582Z" fill="url(#paint5_linear_2355_31535)"/>
<path opacity="0.04" d="M71 107.582H81C82.1046 107.582 83 106.687 83 105.582V102.582H71V107.582Z" fill="#0D262C"/>
<path opacity="0.5" d="M51 105.582C51 106.687 51.8954 107.582 53 107.582H63V102.582H51V105.582Z" fill="url(#paint6_linear_2355_31535)"/>
<path d="M61.3855 122.074H54.8895V121.024H61.3855V122.074ZM62.6339 121.682C62.6339 120.17 62.9839 118.952 63.6979 118.042C64.3979 117.132 65.4339 116.67 66.7919 116.67C69.5779 116.67 70.9639 118.504 70.9639 121.682C70.9639 123.208 70.6139 124.412 69.9279 125.322C69.2279 126.232 68.1919 126.694 66.8199 126.694C65.5039 126.694 64.4819 126.232 63.7399 125.308C62.9979 124.384 62.6339 123.18 62.6339 121.682ZM63.9219 121.682C63.9219 124.076 65.0139 125.504 66.8199 125.504C68.7239 125.504 69.6759 124.23 69.6759 121.682C69.6759 119.134 68.7099 117.86 66.7919 117.86C64.8459 117.86 63.9219 119.26 63.9219 121.682ZM72.1075 125.784C72.1075 125.392 72.4715 125 72.9755 125C73.4375 125 73.8155 125.392 73.8155 125.784C73.8155 126.232 73.4655 126.61 72.9755 126.61C72.4715 126.61 72.1075 126.232 72.1075 125.784ZM74.8611 119.386L74.4131 118.336L77.7731 116.726H78.5711V126.582H77.3671V118.224L74.8611 119.386Z" fill="#2A3C3C"/>
<path d="M61.3855 122.074H54.8895V121.024H61.3855V122.074ZM62.6339 121.682C62.6339 120.17 62.9839 118.952 63.6979 118.042C64.3979 117.132 65.4339 116.67 66.7919 116.67C69.5779 116.67 70.9639 118.504 70.9639 121.682C70.9639 123.208 70.6139 124.412 69.9279 125.322C69.2279 126.232 68.1919 126.694 66.8199 126.694C65.5039 126.694 64.4819 126.232 63.7399 125.308C62.9979 124.384 62.6339 123.18 62.6339 121.682ZM63.9219 121.682C63.9219 124.076 65.0139 125.504 66.8199 125.504C68.7239 125.504 69.6759 124.23 69.6759 121.682C69.6759 119.134 68.7099 117.86 66.7919 117.86C64.8459 117.86 63.9219 119.26 63.9219 121.682ZM72.1075 125.784C72.1075 125.392 72.4715 125 72.9755 125C73.4375 125 73.8155 125.392 73.8155 125.784C73.8155 126.232 73.4655 126.61 72.9755 126.61C72.4715 126.61 72.1075 126.232 72.1075 125.784ZM74.8611 119.386L74.4131 118.336L77.7731 116.726H78.5711V126.582H77.3671V118.224L74.8611 119.386Z" fill="#1A3341"/>
<path d="M251 136.582C251 137.687 251.895 138.582 253 138.582H281C282.105 138.582 283 137.687 283 136.582V102.582H251V136.582Z" fill="url(#paint7_linear_2355_31535)"/>
<path opacity="0.2" d="M263 138.582H271V102.582H263V138.582Z" fill="url(#paint8_linear_2355_31535)"/>
<path opacity="0.04" d="M271 138.582H281C282.105 138.582 283 137.687 283 136.582V102.582H271V138.582Z" fill="#0D262C"/>
<path opacity="0.5" d="M251 136.582C251 137.687 251.895 138.582 253 138.582H263V102.582H251V136.582Z" fill="url(#paint9_linear_2355_31535)"/>
<path d="M260.62 153.074H254.124V152.024H260.62V153.074ZM262.988 151.016L261.966 150.652C262.316 148.916 263.632 147.67 265.718 147.67C267.734 147.67 268.966 148.832 268.966 150.61C268.966 151.548 268.56 152.486 268.056 153.158C267.804 153.508 267.482 153.844 267.104 154.194C266.334 154.88 265.788 155.244 264.99 155.748L263.912 156.42H269.33V157.582H261.7V156.63L263.828 155.216C264.206 154.978 264.472 154.796 264.626 154.684C264.78 154.586 265.032 154.404 265.368 154.166C265.704 153.928 265.956 153.718 266.124 153.564C266.278 153.41 266.488 153.214 266.726 152.962C267.37 152.262 267.608 151.618 267.678 150.736C267.678 149.462 266.852 148.888 265.634 148.888C264.878 148.888 264.276 149.098 263.842 149.518C263.408 149.938 263.114 150.442 262.988 151.016ZM270.399 156.784C270.399 156.392 270.763 156 271.267 156C271.729 156 272.107 156.392 272.107 156.784C272.107 157.232 271.757 157.61 271.267 157.61C270.763 157.61 270.399 157.232 270.399 156.784ZM278.878 148.972H272.942V147.782H280.376V148.58L275.504 157.582H274.174L278.878 148.972Z" fill="#1A3341"/>
<path d="M291 159.582C291 160.687 291.895 161.582 293 161.582H321C322.105 161.582 323 160.687 323 159.582V102.582H291V159.582Z" fill="url(#paint10_linear_2355_31535)"/>
<path opacity="0.2" d="M303 161.582H311V102.582H303V161.582Z" fill="url(#paint11_linear_2355_31535)"/>
<path opacity="0.04" d="M311 161.582H321C322.105 161.582 323 160.687 323 159.582V102.582H311V161.582Z" fill="#0D262C"/>
<path opacity="0.5" d="M291 159.582C291 160.687 291.895 161.582 293 161.582H303V102.582H291V159.582Z" fill="url(#paint12_linear_2355_31535)"/>
<path d="M299.8 176.074H293.304V175.024H299.8V176.074ZM307.81 180.582H306.592V178.58H300.6V177.768L306.732 170.782H307.81V177.446H309.63V178.58H307.81V180.582ZM306.592 172.742L302.28 177.446H306.592V172.742ZM310.412 179.784C310.412 179.392 310.776 179 311.28 179C311.742 179 312.12 179.392 312.12 179.784C312.12 180.232 311.77 180.61 311.28 180.61C310.776 180.61 310.412 180.232 310.412 179.784ZM314.706 176.074L313.698 175.808L314.272 170.782H320.432V171.972H315.35L314.986 174.604C315.476 174.24 316.218 174.058 317.212 174.058C318.36 174.058 319.256 174.366 319.914 174.968C320.558 175.584 320.88 176.368 320.88 177.334C320.88 178.3 320.516 179.112 319.802 179.742C319.074 180.386 318.164 180.708 317.086 180.708C315.252 180.708 313.726 179.84 313.096 178.314L314.216 177.838C314.622 178.776 315.672 179.518 317.086 179.518C318.696 179.518 319.592 178.594 319.592 177.376C319.592 176.074 318.542 175.234 316.876 175.234C315.98 175.234 315.252 175.514 314.706 176.074Z" fill="#2A3C3C"/>
<path d="M299.8 176.074H293.304V175.024H299.8V176.074ZM307.81 180.582H306.592V178.58H300.6V177.768L306.732 170.782H307.81V177.446H309.63V178.58H307.81V180.582ZM306.592 172.742L302.28 177.446H306.592V172.742ZM310.412 179.784C310.412 179.392 310.776 179 311.28 179C311.742 179 312.12 179.392 312.12 179.784C312.12 180.232 311.77 180.61 311.28 180.61C310.776 180.61 310.412 180.232 310.412 179.784ZM314.706 176.074L313.698 175.808L314.272 170.782H320.432V171.972H315.35L314.986 174.604C315.476 174.24 316.218 174.058 317.212 174.058C318.36 174.058 319.256 174.366 319.914 174.968C320.558 175.584 320.88 176.368 320.88 177.334C320.88 178.3 320.516 179.112 319.802 179.742C319.074 180.386 318.164 180.708 317.086 180.708C315.252 180.708 313.726 179.84 313.096 178.314L314.216 177.838C314.622 178.776 315.672 179.518 317.086 179.518C318.696 179.518 319.592 178.594 319.592 177.376C319.592 176.074 318.542 175.234 316.876 175.234C315.98 175.234 315.252 175.514 314.706 176.074Z" fill="#1A3341"/>
<path d="M91 159.582C91 160.687 91.8954 161.582 93 161.582H121C122.105 161.582 123 160.687 123 159.582V102.582H91V159.582Z" fill="url(#paint13_linear_2355_31535)"/>
<path opacity="0.2" d="M103 161.582H111V102.582H103V161.582Z" fill="url(#paint14_linear_2355_31535)"/>
<path opacity="0.04" d="M111 161.582H121C122.105 161.582 123 160.687 123 159.582V102.582H111V161.582Z" fill="#0D262C"/>
<path opacity="0.5" d="M91 159.582C91 160.687 91.8954 161.582 93 161.582H103V102.582H91V159.582Z" fill="url(#paint15_linear_2355_31535)"/>
<path d="M99.7996 176.074H93.3036V175.024H99.7996V176.074ZM107.81 180.582H106.592V178.58H100.6V177.768L106.732 170.782H107.81V177.446H109.63V178.58H107.81V180.582ZM106.592 172.742L102.28 177.446H106.592V172.742ZM110.412 179.784C110.412 179.392 110.776 179 111.28 179C111.742 179 112.12 179.392 112.12 179.784C112.12 180.232 111.77 180.61 111.28 180.61C110.776 180.61 110.412 180.232 110.412 179.784ZM114.706 176.074L113.698 175.808L114.272 170.782H120.432V171.972H115.35L114.986 174.604C115.476 174.24 116.218 174.058 117.212 174.058C118.36 174.058 119.256 174.366 119.914 174.968C120.558 175.584 120.88 176.368 120.88 177.334C120.88 178.3 120.516 179.112 119.802 179.742C119.074 180.386 118.164 180.708 117.086 180.708C115.252 180.708 113.726 179.84 113.096 178.314L114.216 177.838C114.622 178.776 115.672 179.518 117.086 179.518C118.696 179.518 119.592 178.594 119.592 177.376C119.592 176.074 118.542 175.234 116.876 175.234C115.98 175.234 115.252 175.514 114.706 176.074Z" fill="#1A3341"/>
<path d="M131 203.582C131 204.687 131.895 205.582 133 205.582H161C162.105 205.582 163 204.687 163 203.582V102.582H131V203.582Z" fill="url(#paint16_linear_2355_31535)"/>
<path opacity="0.2" d="M143 205.582H151V102.582H143V205.582Z" fill="url(#paint17_linear_2355_31535)"/>
<path opacity="0.04" d="M151 205.582H161C162.105 205.582 163 204.687 163 203.582V102.582H151V205.582Z" fill="#0D262C"/>
<path opacity="0.5" d="M131 203.582C131 204.687 131.895 205.582 133 205.582H143V102.582H131V203.582Z" fill="url(#paint18_linear_2355_31535)"/>
<path d="M140.661 220.074H134.165V219.024H140.661V220.074ZM147.523 215.972H141.587V214.782H149.021V215.58L144.149 224.582H142.819L147.523 215.972ZM149.018 223.784C149.018 223.392 149.382 223 149.886 223C150.348 223 150.726 223.392 150.726 223.784C150.726 224.232 150.376 224.61 149.886 224.61C149.382 224.61 149.018 224.232 149.018 223.784ZM160.031 219.5C160.031 221.166 159.639 222.454 158.841 223.35C158.043 224.26 156.979 224.708 155.649 224.708C154.025 224.708 152.751 224.022 152.121 222.972L153.129 222.272C153.689 223.056 154.711 223.504 155.817 223.504C156.727 223.504 157.455 223.14 158.029 222.412C158.603 221.698 158.841 220.802 158.771 219.738C158.309 220.802 157.147 221.586 155.593 221.586C154.501 221.586 153.605 221.278 152.905 220.648C152.191 220.032 151.841 219.22 151.841 218.226C151.841 217.134 152.219 216.266 152.975 215.622C153.731 214.978 154.739 214.656 155.985 214.656C158.505 214.656 160.031 216.42 160.031 219.5ZM158.561 218.184C158.351 216.882 157.455 215.86 155.845 215.86C154.165 215.86 153.129 216.728 153.129 218.184C153.129 219.57 154.179 220.382 155.817 220.382C156.559 220.382 157.189 220.158 157.679 219.71C158.169 219.262 158.463 218.758 158.561 218.184Z" fill="#2A3C3C"/>
<path d="M140.661 220.074H134.165V219.024H140.661V220.074ZM147.523 215.972H141.587V214.782H149.021V215.58L144.149 224.582H142.819L147.523 215.972ZM149.018 223.784C149.018 223.392 149.382 223 149.886 223C150.348 223 150.726 223.392 150.726 223.784C150.726 224.232 150.376 224.61 149.886 224.61C149.382 224.61 149.018 224.232 149.018 223.784ZM160.031 219.5C160.031 221.166 159.639 222.454 158.841 223.35C158.043 224.26 156.979 224.708 155.649 224.708C154.025 224.708 152.751 224.022 152.121 222.972L153.129 222.272C153.689 223.056 154.711 223.504 155.817 223.504C156.727 223.504 157.455 223.14 158.029 222.412C158.603 221.698 158.841 220.802 158.771 219.738C158.309 220.802 157.147 221.586 155.593 221.586C154.501 221.586 153.605 221.278 152.905 220.648C152.191 220.032 151.841 219.22 151.841 218.226C151.841 217.134 152.219 216.266 152.975 215.622C153.731 214.978 154.739 214.656 155.985 214.656C158.505 214.656 160.031 216.42 160.031 219.5ZM158.561 218.184C158.351 216.882 157.455 215.86 155.845 215.86C154.165 215.86 153.129 216.728 153.129 218.184C153.129 219.57 154.179 220.382 155.817 220.382C156.559 220.382 157.189 220.158 157.679 219.71C158.169 219.262 158.463 218.758 158.561 218.184Z" fill="#1A3341"/>
<path d="M171 146.582C171 147.687 171.895 148.582 173 148.582H201C202.105 148.582 203 147.687 203 146.582V102.582H171V146.582Z" fill="url(#paint19_linear_2355_31535)"/>
<path opacity="0.2" d="M183 148.582H191V102.582H183V148.582Z" fill="url(#paint20_linear_2355_31535)"/>
<path opacity="0.04" d="M191 148.582H201C202.105 148.582 203 147.687 203 146.582V102.582H191V148.582Z" fill="#0D262C"/>
<path opacity="0.5" d="M171 146.582C171 147.687 171.895 148.582 173 148.582H183V102.582H171V146.582Z" fill="url(#paint21_linear_2355_31535)"/>
<path d="M180.182 163.074H173.686V162.024H180.182V163.074ZM182.397 160.638L181.347 160.162C181.865 158.65 183.223 157.656 185.253 157.656C186.219 157.656 187.017 157.88 187.633 158.328C188.249 158.776 188.557 159.378 188.557 160.12C188.557 161.254 187.955 162.094 186.835 162.416C187.913 162.486 188.781 163.298 188.781 164.754C188.781 165.678 188.445 166.406 187.773 166.924C187.101 167.442 186.247 167.708 185.197 167.708C183.055 167.708 181.571 166.686 181.081 165.076L182.215 164.586C182.817 165.86 183.839 166.504 185.281 166.504C186.639 166.504 187.493 165.874 187.493 164.768C187.493 163.69 186.653 163.144 184.973 163.144H183.881V161.982H184.749C186.275 161.982 187.269 161.296 187.269 160.358C187.269 159.392 186.471 158.846 185.197 158.846C183.699 158.846 182.789 159.616 182.397 160.638ZM190.029 166.784C190.029 166.392 190.393 166 190.897 166C191.359 166 191.737 166.392 191.737 166.784C191.737 167.232 191.387 167.61 190.897 167.61C190.393 167.61 190.029 167.232 190.029 166.784ZM194.323 163.074L193.315 162.808L193.889 157.782H200.049V158.972H194.967L194.603 161.604C195.093 161.24 195.835 161.058 196.829 161.058C197.977 161.058 198.873 161.366 199.531 161.968C200.175 162.584 200.497 163.368 200.497 164.334C200.497 165.3 200.133 166.112 199.419 166.742C198.691 167.386 197.781 167.708 196.703 167.708C194.869 167.708 193.343 166.84 192.713 165.314L193.833 164.838C194.239 165.776 195.289 166.518 196.703 166.518C198.313 166.518 199.209 165.594 199.209 164.376C199.209 163.074 198.159 162.234 196.493 162.234C195.597 162.234 194.869 162.514 194.323 163.074Z" fill="#1A3341"/>
<path d="M211 169.582C211 170.687 211.895 171.582 213 171.582H241C242.105 171.582 243 170.687 243 169.582V102.582H211V169.582Z" fill="url(#paint22_linear_2355_31535)"/>
<path opacity="0.2" d="M223 171.582H231V102.582H223V171.582Z" fill="url(#paint23_linear_2355_31535)"/>
<path opacity="0.04" d="M231 171.582H241C242.105 171.582 243 170.687 243 169.582V102.582H231V171.582Z" fill="#0D262C"/>
<path opacity="0.5" d="M211 169.582C211 170.687 211.895 171.582 213 171.582H223V102.582H211V169.582Z" fill="url(#paint24_linear_2355_31535)"/>
<path d="M220.182 186.074H213.686V185.024H220.182V186.074ZM222.859 186.074L221.851 185.808L222.425 180.782H228.585V181.972H223.503L223.139 184.604C223.629 184.24 224.371 184.058 225.365 184.058C226.513 184.058 227.409 184.366 228.067 184.968C228.711 185.584 229.033 186.368 229.033 187.334C229.033 188.3 228.669 189.112 227.955 189.742C227.227 190.386 226.317 190.708 225.239 190.708C223.405 190.708 221.879 189.84 221.249 188.314L222.369 187.838C222.775 188.776 223.825 189.518 225.239 189.518C226.849 189.518 227.745 188.594 227.745 187.376C227.745 186.074 226.695 185.234 225.029 185.234C224.133 185.234 223.405 185.514 222.859 186.074ZM230.193 189.784C230.193 189.392 230.557 189 231.061 189C231.523 189 231.901 189.392 231.901 189.784C231.901 190.232 231.551 190.61 231.061 190.61C230.557 190.61 230.193 190.232 230.193 189.784ZM234.025 183.638L232.975 183.162C233.493 181.65 234.851 180.656 236.881 180.656C237.847 180.656 238.645 180.88 239.261 181.328C239.877 181.776 240.185 182.378 240.185 183.12C240.185 184.254 239.583 185.094 238.463 185.416C239.541 185.486 240.409 186.298 240.409 187.754C240.409 188.678 240.073 189.406 239.401 189.924C238.729 190.442 237.875 190.708 236.825 190.708C234.683 190.708 233.199 189.686 232.709 188.076L233.843 187.586C234.445 188.86 235.467 189.504 236.909 189.504C238.267 189.504 239.121 188.874 239.121 187.768C239.121 186.69 238.281 186.144 236.601 186.144H235.509V184.982H236.377C237.903 184.982 238.897 184.296 238.897 183.358C238.897 182.392 238.099 181.846 236.825 181.846C235.327 181.846 234.417 182.616 234.025 183.638Z" fill="#2A3C3C"/>
<path d="M220.182 186.074H213.686V185.024H220.182V186.074ZM222.859 186.074L221.851 185.808L222.425 180.782H228.585V181.972H223.503L223.139 184.604C223.629 184.24 224.371 184.058 225.365 184.058C226.513 184.058 227.409 184.366 228.067 184.968C228.711 185.584 229.033 186.368 229.033 187.334C229.033 188.3 228.669 189.112 227.955 189.742C227.227 190.386 226.317 190.708 225.239 190.708C223.405 190.708 221.879 189.84 221.249 188.314L222.369 187.838C222.775 188.776 223.825 189.518 225.239 189.518C226.849 189.518 227.745 188.594 227.745 187.376C227.745 186.074 226.695 185.234 225.029 185.234C224.133 185.234 223.405 185.514 222.859 186.074ZM230.193 189.784C230.193 189.392 230.557 189 231.061 189C231.523 189 231.901 189.392 231.901 189.784C231.901 190.232 231.551 190.61 231.061 190.61C230.557 190.61 230.193 190.232 230.193 189.784ZM234.025 183.638L232.975 183.162C233.493 181.65 234.851 180.656 236.881 180.656C237.847 180.656 238.645 180.88 239.261 181.328C239.877 181.776 240.185 182.378 240.185 183.12C240.185 184.254 239.583 185.094 238.463 185.416C239.541 185.486 240.409 186.298 240.409 187.754C240.409 188.678 240.073 189.406 239.401 189.924C238.729 190.442 237.875 190.708 236.825 190.708C234.683 190.708 233.199 189.686 232.709 188.076L233.843 187.586C234.445 188.86 235.467 189.504 236.909 189.504C238.267 189.504 239.121 188.874 239.121 187.768C239.121 186.69 238.281 186.144 236.601 186.144H235.509V184.982H236.377C237.903 184.982 238.897 184.296 238.897 183.358C238.897 182.392 238.099 181.846 236.825 181.846C235.327 181.846 234.417 182.616 234.025 183.638Z" fill="#1A3341"/>
<line x1="-4.37114e-08" y1="103.082" x2="335" y2="103.082" stroke="#ABBEC9"/>
<path d="M33.5564 238.954L32.6804 238.642C32.9804 237.154 34.1084 236.086 35.8964 236.086C37.6244 236.086 38.6804 237.082 38.6804 238.606C38.6804 239.41 38.3324 240.214 37.9004 240.79C37.6844 241.09 37.4084 241.378 37.0844 241.678C36.4244 242.266 35.9564 242.578 35.2724 243.01L34.3484 243.586H38.9924V244.582H32.4524V243.766L34.2764 242.554C34.6004 242.35 34.8284 242.194 34.9604 242.098C35.0924 242.014 35.3084 241.858 35.5964 241.654C35.8844 241.45 36.1004 241.27 36.2444 241.138C36.3764 241.006 36.5564 240.838 36.7604 240.622C37.3124 240.022 37.5164 239.47 37.5764 238.714C37.5764 237.622 36.8684 237.13 35.8244 237.13C35.1764 237.13 34.6604 237.31 34.2884 237.67C33.9164 238.03 33.6644 238.462 33.5564 238.954ZM39.824 240.382C39.824 239.086 40.124 238.042 40.736 237.262C41.336 236.482 42.224 236.086 43.388 236.086C45.776 236.086 46.964 237.658 46.964 240.382C46.964 241.69 46.664 242.722 46.076 243.502C45.476 244.282 44.588 244.678 43.412 244.678C42.284 244.678 41.408 244.282 40.772 243.49C40.136 242.698 39.824 241.666 39.824 240.382ZM40.928 240.382C40.928 242.434 41.864 243.658 43.412 243.658C45.044 243.658 45.86 242.566 45.86 240.382C45.86 238.198 45.032 237.106 43.388 237.106C41.72 237.106 40.928 238.306 40.928 240.382ZM48.8203 238.954L47.9443 238.642C48.2443 237.154 49.3723 236.086 51.1603 236.086C52.8883 236.086 53.9443 237.082 53.9443 238.606C53.9443 239.41 53.5963 240.214 53.1643 240.79C52.9483 241.09 52.6723 241.378 52.3483 241.678C51.6883 242.266 51.2203 242.578 50.5363 243.01L49.6123 243.586H54.2563V244.582H47.7163V243.766L49.5403 242.554C49.8643 242.35 50.0923 242.194 50.2243 242.098C50.3563 242.014 50.5723 241.858 50.8603 241.654C51.1483 241.45 51.3643 241.27 51.5083 241.138C51.6403 241.006 51.8203 240.838 52.0243 240.622C52.5763 240.022 52.7803 239.47 52.8403 238.714C52.8403 237.622 52.1323 237.13 51.0883 237.13C50.4403 237.13 49.9243 237.31 49.5523 237.67C49.1803 238.03 48.9283 238.462 48.8203 238.954ZM56.048 238.954L55.172 238.642C55.472 237.154 56.6 236.086 58.388 236.086C60.116 236.086 61.172 237.082 61.172 238.606C61.172 239.41 60.824 240.214 60.392 240.79C60.176 241.09 59.9 241.378 59.576 241.678C58.916 242.266 58.448 242.578 57.764 243.01L56.84 243.586H61.484V244.582H54.944V243.766L56.768 242.554C57.092 242.35 57.32 242.194 57.452 242.098C57.584 242.014 57.8 241.858 58.088 241.654C58.376 241.45 58.592 241.27 58.736 241.138C58.868 241.006 59.048 240.838 59.252 240.622C59.804 240.022 60.008 239.47 60.068 238.714C60.068 237.622 59.36 237.13 58.316 237.13C57.668 237.13 57.152 237.31 56.78 237.67C56.408 238.03 56.156 238.462 56.048 238.954ZM40.4256 254.382C40.4256 253.17 40.8336 252.138 41.6616 251.31C42.4896 250.482 43.4976 250.074 44.6976 250.074C45.8856 250.074 46.8936 250.482 47.7216 251.298C48.5496 252.114 48.9576 253.146 48.9576 254.382C48.9576 255.57 48.5136 256.626 47.6256 257.526L48.4656 258.534L47.7216 259.158L46.8576 258.114C46.1736 258.498 45.4536 258.69 44.6976 258.69C43.4736 258.69 42.4536 258.282 41.6496 257.466C40.8336 256.662 40.4256 255.63 40.4256 254.382ZM41.5656 254.382C41.5656 255.33 41.8656 256.11 42.4656 256.722C43.0656 257.334 43.8096 257.646 44.6976 257.646C45.2376 257.646 45.7296 257.514 46.1976 257.238L45.4776 256.374L46.1736 255.762L46.9416 256.686C47.5296 256.074 47.8176 255.306 47.8176 254.382C47.8176 253.434 47.5176 252.654 46.9176 252.042C46.3176 251.43 45.5736 251.118 44.6976 251.118C43.8096 251.118 43.0656 251.418 42.4656 252.03C41.8656 252.642 41.5656 253.434 41.5656 254.382ZM49.692 252.414L49.308 251.514L52.188 250.134H52.872V258.582H51.84V251.418L49.692 252.414Z" fill="#76848D"/>
<path d="M119.119 254.382C119.119 253.17 119.527 252.138 120.355 251.31C121.183 250.482 122.191 250.074 123.391 250.074C124.579 250.074 125.587 250.482 126.415 251.298C127.243 252.114 127.651 253.146 127.651 254.382C127.651 255.57 127.207 256.626 126.319 257.526L127.159 258.534L126.415 259.158L125.551 258.114C124.867 258.498 124.147 258.69 123.391 258.69C122.167 258.69 121.147 258.282 120.343 257.466C119.527 256.662 119.119 255.63 119.119 254.382ZM120.259 254.382C120.259 255.33 120.559 256.11 121.159 256.722C121.759 257.334 122.503 257.646 123.391 257.646C123.931 257.646 124.423 257.514 124.891 257.238L124.171 256.374L124.867 255.762L125.635 256.686C126.223 256.074 126.511 255.306 126.511 254.382C126.511 253.434 126.211 252.654 125.611 252.042C125.011 251.43 124.267 251.118 123.391 251.118C122.503 251.118 121.759 251.418 121.159 252.03C120.559 252.642 120.259 253.434 120.259 254.382ZM129.441 252.954L128.565 252.642C128.865 251.154 129.993 250.086 131.781 250.086C133.509 250.086 134.565 251.082 134.565 252.606C134.565 253.41 134.217 254.214 133.785 254.79C133.569 255.09 133.293 255.378 132.969 255.678C132.309 256.266 131.841 256.578 131.157 257.01L130.233 257.586H134.877V258.582H128.337V257.766L130.161 256.554C130.485 256.35 130.713 256.194 130.845 256.098C130.977 256.014 131.193 255.858 131.481 255.654C131.769 255.45 131.985 255.27 132.129 255.138C132.261 255.006 132.441 254.838 132.645 254.622C133.197 254.022 133.401 253.47 133.461 252.714C133.461 251.622 132.753 251.13 131.709 251.13C131.061 251.13 130.545 251.31 130.173 251.67C129.801 252.03 129.549 252.462 129.441 252.954Z" fill="#76848D"/>
<path d="M199.09 254.382C199.09 253.17 199.498 252.138 200.326 251.31C201.154 250.482 202.162 250.074 203.362 250.074C204.55 250.074 205.558 250.482 206.386 251.298C207.214 252.114 207.622 253.146 207.622 254.382C207.622 255.57 207.178 256.626 206.29 257.526L207.13 258.534L206.386 259.158L205.522 258.114C204.838 258.498 204.118 258.69 203.362 258.69C202.138 258.69 201.118 258.282 200.314 257.466C199.498 256.662 199.09 255.63 199.09 254.382ZM200.23 254.382C200.23 255.33 200.53 256.11 201.13 256.722C201.73 257.334 202.474 257.646 203.362 257.646C203.902 257.646 204.394 257.514 204.862 257.238L204.142 256.374L204.838 255.762L205.606 256.686C206.194 256.074 206.482 255.306 206.482 254.382C206.482 253.434 206.182 252.654 205.582 252.042C204.982 251.43 204.238 251.118 203.362 251.118C202.474 251.118 201.73 251.418 201.13 252.03C200.53 252.642 200.23 253.434 200.23 254.382ZM209.28 252.63L208.38 252.222C208.824 250.926 209.988 250.074 211.728 250.074C212.556 250.074 213.24 250.266 213.768 250.65C214.296 251.034 214.56 251.55 214.56 252.186C214.56 253.158 214.044 253.878 213.084 254.154C214.008 254.214 214.752 254.91 214.752 256.158C214.752 256.95 214.464 257.574 213.888 258.018C213.312 258.462 212.58 258.69 211.68 258.69C209.844 258.69 208.572 257.814 208.152 256.434L209.124 256.014C209.64 257.106 210.516 257.658 211.752 257.658C212.916 257.658 213.648 257.118 213.648 256.17C213.648 255.246 212.928 254.778 211.488 254.778H210.552V253.782H211.296C212.604 253.782 213.456 253.194 213.456 252.39C213.456 251.562 212.772 251.094 211.68 251.094C210.396 251.094 209.616 251.754 209.28 252.63Z" fill="#76848D"/>
<path d="M278.762 254.382C278.762 253.17 279.17 252.138 279.998 251.31C280.826 250.482 281.834 250.074 283.034 250.074C284.222 250.074 285.23 250.482 286.058 251.298C286.886 252.114 287.294 253.146 287.294 254.382C287.294 255.57 286.85 256.626 285.962 257.526L286.802 258.534L286.058 259.158L285.194 258.114C284.51 258.498 283.79 258.69 283.034 258.69C281.81 258.69 280.79 258.282 279.986 257.466C279.17 256.662 278.762 255.63 278.762 254.382ZM279.902 254.382C279.902 255.33 280.202 256.11 280.802 256.722C281.402 257.334 282.146 257.646 283.034 257.646C283.574 257.646 284.066 257.514 284.534 257.238L283.814 256.374L284.51 255.762L285.278 256.686C285.866 256.074 286.154 255.306 286.154 254.382C286.154 253.434 285.854 252.654 285.254 252.042C284.654 251.43 283.91 251.118 283.034 251.118C282.146 251.118 281.402 251.418 280.802 252.03C280.202 252.642 279.902 253.434 279.902 254.382ZM293.92 258.582H292.876V256.866H287.74V256.17L292.996 250.182H293.92V255.894H295.48V256.866H293.92V258.582ZM292.876 251.862L289.18 255.894H292.876V251.862Z" fill="#76848D"/>
<path d="M11 444.582C11 445.687 11.8954 446.582 13 446.582H41C42.1046 446.582 43 445.687 43 444.582V422.582H11V444.582Z" fill="url(#paint25_linear_2355_31535)"/>
<path opacity="0.2" d="M23 446.582H31V422.582H23V446.582Z" fill="url(#paint26_linear_2355_31535)"/>
<path opacity="0.04" d="M31 446.582H41C42.1046 446.582 43 445.687 43 444.582V422.582H31V446.582Z" fill="#0D262C"/>
<path opacity="0.5" d="M11 444.582C11 445.687 11.8954 446.582 13 446.582H23V422.582H11V444.582Z" fill="url(#paint27_linear_2355_31535)"/>
<path d="M21.4744 461.074H14.9784V460.024H21.4744V461.074ZM22.6108 458.386L22.1628 457.336L25.5228 455.726H26.3208V465.582H25.1168V457.224L22.6108 458.386ZM28.2042 464.784C28.2042 464.392 28.5682 464 29.0722 464C29.5342 464 29.9122 464.392 29.9122 464.784C29.9122 465.232 29.5622 465.61 29.0722 465.61C28.5682 465.61 28.2042 465.232 28.2042 464.784ZM34.9337 459.996H35.3677C35.9977 459.996 36.5157 459.842 36.9497 459.548C37.3697 459.254 37.5797 458.862 37.5797 458.4C37.5797 457.35 36.7537 456.818 35.1157 456.818C33.5477 456.818 32.6937 457.392 32.6937 458.4C32.6937 459.31 33.6317 459.996 34.9337 459.996ZM35.3397 461.102H34.9897C34.2337 461.102 33.6037 461.27 33.1137 461.592C32.6237 461.914 32.3717 462.32 32.3717 462.81C32.3717 463.874 33.3517 464.546 35.1297 464.546C36.9357 464.546 37.9017 463.902 37.9017 462.824C37.9017 461.746 36.8657 461.102 35.3397 461.102ZM38.0977 464.952C37.3837 465.456 36.3897 465.708 35.1437 465.708C33.8977 465.708 32.9037 465.456 32.1757 464.966C31.4477 464.476 31.0837 463.804 31.0837 462.936C31.0837 461.802 31.8257 460.906 33.0157 460.514C31.9377 460.164 31.4057 459.31 31.4057 458.316C31.4057 456.692 32.7777 455.656 35.1297 455.656C37.4957 455.656 38.8677 456.692 38.8677 458.316C38.8677 459.254 38.3497 459.968 37.3137 460.444C38.5597 460.822 39.1757 461.634 39.1757 462.88C39.1757 463.762 38.8117 464.462 38.0977 464.952Z" fill="#1A3341"/>
<path d="M51 445.582C51 446.687 51.8954 447.582 53 447.582H81C82.1046 447.582 83 446.687 83 445.582V422.582H51V445.582Z" fill="url(#paint28_linear_2355_31535)"/>
<path opacity="0.2" d="M63 447.582H71V422.582H63V447.582Z" fill="url(#paint29_linear_2355_31535)"/>
<path opacity="0.04" d="M71 447.582H81C82.1046 447.582 83 446.687 83 445.582V422.582H71V447.582Z" fill="#0D262C"/>
<path opacity="0.5" d="M51 445.582C51 446.687 51.8954 447.582 53 447.582H63V422.582H51V445.582Z" fill="url(#paint30_linear_2355_31535)"/>
<path d="M61.4744 462.074H54.9784V461.024H61.4744V462.074ZM62.6108 459.386L62.1628 458.336L65.5228 456.726H66.3208V466.582H65.1168V458.224L62.6108 459.386ZM68.2042 465.784C68.2042 465.392 68.5682 465 69.0722 465C69.5342 465 69.9122 465.392 69.9122 465.784C69.9122 466.232 69.5622 466.61 69.0722 466.61C68.5682 466.61 68.2042 466.232 68.2042 465.784ZM79.2177 461.5C79.2177 463.166 78.8257 464.454 78.0277 465.35C77.2297 466.26 76.1657 466.708 74.8357 466.708C73.2117 466.708 71.9377 466.022 71.3077 464.972L72.3157 464.272C72.8757 465.056 73.8977 465.504 75.0037 465.504C75.9137 465.504 76.6417 465.14 77.2157 464.412C77.7897 463.698 78.0277 462.802 77.9577 461.738C77.4957 462.802 76.3337 463.586 74.7797 463.586C73.6877 463.586 72.7917 463.278 72.0917 462.648C71.3777 462.032 71.0277 461.22 71.0277 460.226C71.0277 459.134 71.4057 458.266 72.1617 457.622C72.9177 456.978 73.9257 456.656 75.1717 456.656C77.6917 456.656 79.2177 458.42 79.2177 461.5ZM77.7477 460.184C77.5377 458.882 76.6417 457.86 75.0317 457.86C73.3517 457.86 72.3157 458.728 72.3157 460.184C72.3157 461.57 73.3657 462.382 75.0037 462.382C75.7457 462.382 76.3757 462.158 76.8657 461.71C77.3557 461.262 77.6497 460.758 77.7477 460.184Z" fill="#2A3C3C"/>
<path d="M61.4744 462.074H54.9784V461.024H61.4744V462.074ZM62.6108 459.386L62.1628 458.336L65.5228 456.726H66.3208V466.582H65.1168V458.224L62.6108 459.386ZM68.2042 465.784C68.2042 465.392 68.5682 465 69.0722 465C69.5342 465 69.9122 465.392 69.9122 465.784C69.9122 466.232 69.5622 466.61 69.0722 466.61C68.5682 466.61 68.2042 466.232 68.2042 465.784ZM79.2177 461.5C79.2177 463.166 78.8257 464.454 78.0277 465.35C77.2297 466.26 76.1657 466.708 74.8357 466.708C73.2117 466.708 71.9377 466.022 71.3077 464.972L72.3157 464.272C72.8757 465.056 73.8977 465.504 75.0037 465.504C75.9137 465.504 76.6417 465.14 77.2157 464.412C77.7897 463.698 78.0277 462.802 77.9577 461.738C77.4957 462.802 76.3337 463.586 74.7797 463.586C73.6877 463.586 72.7917 463.278 72.0917 462.648C71.3777 462.032 71.0277 461.22 71.0277 460.226C71.0277 459.134 71.4057 458.266 72.1617 457.622C72.9177 456.978 73.9257 456.656 75.1717 456.656C77.6917 456.656 79.2177 458.42 79.2177 461.5ZM77.7477 460.184C77.5377 458.882 76.6417 457.86 75.0317 457.86C73.3517 457.86 72.3157 458.728 72.3157 460.184C72.3157 461.57 73.3657 462.382 75.0037 462.382C75.7457 462.382 76.3757 462.158 76.8657 461.71C77.3557 461.262 77.6497 460.758 77.7477 460.184Z" fill="#1A3341"/>
<path d="M103.58 349.582H102.362V347.58H96.3702V346.768L102.502 339.782H103.58V346.446H105.4V347.58H103.58V349.582ZM102.362 341.742L98.0502 346.446H102.362V341.742ZM106.182 348.784C106.182 348.392 106.546 348 107.05 348C107.512 348 107.89 348.392 107.89 348.784C107.89 349.232 107.54 349.61 107.05 349.61C106.546 349.61 106.182 349.232 106.182 348.784ZM117.196 344.5C117.196 346.166 116.804 347.454 116.006 348.35C115.208 349.26 114.144 349.708 112.814 349.708C111.19 349.708 109.916 349.022 109.286 347.972L110.294 347.272C110.854 348.056 111.876 348.504 112.982 348.504C113.892 348.504 114.62 348.14 115.194 347.412C115.768 346.698 116.006 345.802 115.936 344.738C115.474 345.802 114.312 346.586 112.758 346.586C111.666 346.586 110.77 346.278 110.07 345.648C109.356 345.032 109.006 344.22 109.006 343.226C109.006 342.134 109.384 341.266 110.14 340.622C110.896 339.978 111.904 339.656 113.15 339.656C115.67 339.656 117.196 341.42 117.196 344.5ZM115.726 343.184C115.516 341.882 114.62 340.86 113.01 340.86C111.33 340.86 110.294 341.728 110.294 343.184C110.294 344.57 111.344 345.382 112.982 345.382C113.724 345.382 114.354 345.158 114.844 344.71C115.334 344.262 115.628 343.758 115.726 343.184Z" fill="#1A3341"/>
<path d="M91 361.582C91 360.477 91.8954 359.582 93 359.582H121C122.105 359.582 123 360.477 123 361.582V422.582H91V361.582Z" fill="url(#paint31_linear_2355_31535)"/>
<path opacity="0.2" d="M103 359.582H111V422.582H103V359.582Z" fill="url(#paint32_linear_2355_31535)"/>
<path opacity="0.04" d="M111 359.582H121C122.105 359.582 123 360.477 123 361.582V422.582H111V359.582Z" fill="#0D262C"/>
<path opacity="0.5" d="M91 361.582C91 360.477 91.8954 359.582 93 359.582H103V422.582H91V361.582Z" fill="url(#paint33_linear_2355_31535)"/>
<path d="M180.454 342.074L179.446 341.808L180.02 336.782H186.18V337.972H181.098L180.734 340.604C181.224 340.24 181.966 340.058 182.96 340.058C184.108 340.058 185.004 340.366 185.662 340.968C186.306 341.584 186.628 342.368 186.628 343.334C186.628 344.3 186.264 345.112 185.55 345.742C184.822 346.386 183.912 346.708 182.834 346.708C181 346.708 179.474 345.84 178.844 344.314L179.964 343.838C180.37 344.776 181.42 345.518 182.834 345.518C184.444 345.518 185.34 344.594 185.34 343.376C185.34 342.074 184.29 341.234 182.624 341.234C181.728 341.234 181 341.514 180.454 342.074ZM187.789 345.784C187.789 345.392 188.153 345 188.657 345C189.119 345 189.497 345.392 189.497 345.784C189.497 346.232 189.147 346.61 188.657 346.61C188.153 346.61 187.789 346.232 187.789 345.784ZM190.542 339.386L190.094 338.336L193.454 336.726H194.252V346.582H193.048V338.224L190.542 339.386Z" fill="#1A3341"/>
<path d="M171 358.582C171 357.477 171.895 356.582 173 356.582H201C202.105 356.582 203 357.477 203 358.582V422.582H171V358.582Z" fill="url(#paint34_linear_2355_31535)"/>
<path opacity="0.2" d="M183 356.582H191V422.582H183V356.582Z" fill="url(#paint35_linear_2355_31535)"/>
<path opacity="0.04" d="M191 356.582H201C202.105 356.582 203 357.477 203 358.582V422.582H191V356.582Z" fill="#0D262C"/>
<path opacity="0.5" d="M171 358.582C171 357.477 171.895 356.582 173 356.582H183V422.582H171V358.582Z" fill="url(#paint36_linear_2355_31535)"/>
<path d="M138.773 328.948C138.773 327.254 139.193 325.952 140.019 325.028C140.845 324.118 141.881 323.656 143.127 323.656C144.765 323.656 146.053 324.398 146.599 325.574L145.647 326.218C145.073 325.308 144.219 324.86 143.071 324.86C142.203 324.86 141.475 325.196 140.887 325.868C140.299 326.554 140.005 327.478 140.019 328.668C140.565 327.646 141.839 327.03 143.239 327.03C144.373 327.03 145.283 327.324 145.941 327.926C146.599 328.528 146.935 329.326 146.935 330.306C146.935 331.3 146.571 332.126 145.829 332.756C145.087 333.386 144.163 333.708 143.057 333.708C140.411 333.708 138.773 331.986 138.773 328.948ZM140.173 330.138C140.439 331.524 141.489 332.504 143.043 332.504C143.799 332.504 144.429 332.308 144.919 331.902C145.409 331.51 145.647 330.992 145.647 330.362C145.647 328.976 144.667 328.234 143.169 328.234C142.343 328.234 141.657 328.43 141.125 328.822C140.579 329.214 140.271 329.648 140.173 330.138ZM148.042 332.784C148.042 332.392 148.406 332 148.91 332C149.372 332 149.75 332.392 149.75 332.784C149.75 333.232 149.4 333.61 148.91 333.61C148.406 333.61 148.042 333.232 148.042 332.784ZM150.795 326.386L150.347 325.336L153.707 323.726H154.505V333.582H153.301V325.224L150.795 326.386Z" fill="#1A3341"/>
<path d="M131 345.582C131 344.477 131.895 343.582 133 343.582H161C162.105 343.582 163 344.477 163 345.582V422.582H131V345.582Z" fill="url(#paint37_linear_2355_31535)"/>
<path opacity="0.2" d="M143 343.582H151V422.582H143V343.582Z" fill="url(#paint38_linear_2355_31535)"/>
<path opacity="0.04" d="M151 343.582H161C162.105 343.582 163 344.477 163 345.582V422.582H151V343.582Z" fill="#0D262C"/>
<path opacity="0.5" d="M131 345.582C131 344.477 131.895 343.582 133 343.582H143V422.582H131V345.582Z" fill="url(#paint39_linear_2355_31535)"/>
<path d="M217.249 327.948C217.249 326.254 217.669 324.952 218.495 324.028C219.321 323.118 220.357 322.656 221.603 322.656C223.241 322.656 224.529 323.398 225.075 324.574L224.123 325.218C223.549 324.308 222.695 323.86 221.547 323.86C220.679 323.86 219.951 324.196 219.363 324.868C218.775 325.554 218.481 326.478 218.495 327.668C219.041 326.646 220.315 326.03 221.715 326.03C222.849 326.03 223.759 326.324 224.417 326.926C225.075 327.528 225.411 328.326 225.411 329.306C225.411 330.3 225.047 331.126 224.305 331.756C223.563 332.386 222.639 332.708 221.533 332.708C218.887 332.708 217.249 330.986 217.249 327.948ZM218.649 329.138C218.915 330.524 219.965 331.504 221.519 331.504C222.275 331.504 222.905 331.308 223.395 330.902C223.885 330.51 224.123 329.992 224.123 329.362C224.123 327.976 223.143 327.234 221.645 327.234C220.819 327.234 220.133 327.43 219.601 327.822C219.055 328.214 218.747 328.648 218.649 329.138ZM226.517 331.784C226.517 331.392 226.881 331 227.385 331C227.847 331 228.225 331.392 228.225 331.784C228.225 332.232 227.875 332.61 227.385 332.61C226.881 332.61 226.517 332.232 226.517 331.784ZM230.503 326.016L229.481 325.652C229.831 323.916 231.147 322.67 233.233 322.67C235.249 322.67 236.481 323.832 236.481 325.61C236.481 326.548 236.075 327.486 235.571 328.158C235.319 328.508 234.997 328.844 234.619 329.194C233.849 329.88 233.303 330.244 232.505 330.748L231.427 331.42H236.845V332.582H229.215V331.63L231.343 330.216C231.721 329.978 231.987 329.796 232.141 329.684C232.295 329.586 232.547 329.404 232.883 329.166C233.219 328.928 233.471 328.718 233.639 328.564C233.793 328.41 234.003 328.214 234.241 327.962C234.885 327.262 235.123 326.618 235.193 325.736C235.193 324.462 234.367 323.888 233.149 323.888C232.393 323.888 231.791 324.098 231.357 324.518C230.923 324.938 230.629 325.442 230.503 326.016Z" fill="#1A3341"/>
<path d="M211 344.582C211 343.477 211.895 342.582 213 342.582H241C242.105 342.582 243 343.477 243 344.582V422.582H211V344.582Z" fill="url(#paint40_linear_2355_31535)"/>
<path opacity="0.2" d="M223 342.582H231V422.582H223V342.582Z" fill="url(#paint41_linear_2355_31535)"/>
<path opacity="0.04" d="M231 342.582H241C242.105 342.582 243 343.477 243 344.582V422.582H231V342.582Z" fill="#0D262C"/>
<path opacity="0.5" d="M211 344.582C211 343.477 211.895 342.582 213 342.582H223V422.582H211V344.582Z" fill="url(#paint42_linear_2355_31535)"/>
<path d="M303.58 353.582H302.362V351.58H296.37V350.768L302.502 343.782H303.58V350.446H305.4V351.58H303.58V353.582ZM302.362 345.742L298.05 350.446H302.362V345.742ZM306.182 352.784C306.182 352.392 306.546 352 307.05 352C307.512 352 307.89 352.392 307.89 352.784C307.89 353.232 307.54 353.61 307.05 353.61C306.546 353.61 306.182 353.232 306.182 352.784ZM312.912 347.996H313.346C313.976 347.996 314.494 347.842 314.928 347.548C315.348 347.254 315.558 346.862 315.558 346.4C315.558 345.35 314.732 344.818 313.094 344.818C311.526 344.818 310.672 345.392 310.672 346.4C310.672 347.31 311.61 347.996 312.912 347.996ZM313.318 349.102H312.968C312.212 349.102 311.582 349.27 311.092 349.592C310.602 349.914 310.35 350.32 310.35 350.81C310.35 351.874 311.33 352.546 313.108 352.546C314.914 352.546 315.88 351.902 315.88 350.824C315.88 349.746 314.844 349.102 313.318 349.102ZM316.076 352.952C315.362 353.456 314.368 353.708 313.122 353.708C311.876 353.708 310.882 353.456 310.154 352.966C309.426 352.476 309.062 351.804 309.062 350.936C309.062 349.802 309.804 348.906 310.994 348.514C309.916 348.164 309.384 347.31 309.384 346.316C309.384 344.692 310.756 343.656 313.108 343.656C315.474 343.656 316.846 344.692 316.846 346.316C316.846 347.254 316.328 347.968 315.292 348.444C316.538 348.822 317.154 349.634 317.154 350.88C317.154 351.762 316.79 352.462 316.076 352.952Z" fill="#1A3341"/>
<path d="M291 365.582C291 364.477 291.895 363.582 293 363.582H321C322.105 363.582 323 364.477 323 365.582V422.582H291V365.582Z" fill="url(#paint43_linear_2355_31535)"/>
<path opacity="0.2" d="M303 363.582H311V422.582H303V363.582Z" fill="url(#paint44_linear_2355_31535)"/>
<path opacity="0.04" d="M311 363.582H321C322.105 363.582 323 364.477 323 365.582V422.582H311V363.582Z" fill="#0D262C"/>
<path opacity="0.5" d="M291 365.582C291 364.477 291.895 363.582 293 363.582H303V422.582H291V365.582Z" fill="url(#paint45_linear_2355_31535)"/>
<path d="M258.814 337.074L257.806 336.808L258.38 331.782H264.54V332.972H259.458L259.094 335.604C259.584 335.24 260.326 335.058 261.32 335.058C262.468 335.058 263.364 335.366 264.022 335.968C264.666 336.584 264.988 337.368 264.988 338.334C264.988 339.3 264.624 340.112 263.91 340.742C263.182 341.386 262.272 341.708 261.194 341.708C259.36 341.708 257.834 340.84 257.204 339.314L258.324 338.838C258.73 339.776 259.78 340.518 261.194 340.518C262.804 340.518 263.7 339.594 263.7 338.376C263.7 337.074 262.65 336.234 260.984 336.234C260.088 336.234 259.36 336.514 258.814 337.074ZM266.148 340.784C266.148 340.392 266.512 340 267.016 340C267.478 340 267.856 340.392 267.856 340.784C267.856 341.232 267.506 341.61 267.016 341.61C266.512 341.61 266.148 341.232 266.148 340.784ZM270.442 337.074L269.434 336.808L270.008 331.782H276.168V332.972H271.086L270.722 335.604C271.212 335.24 271.954 335.058 272.948 335.058C274.096 335.058 274.992 335.366 275.65 335.968C276.294 336.584 276.616 337.368 276.616 338.334C276.616 339.3 276.252 340.112 275.538 340.742C274.81 341.386 273.9 341.708 272.822 341.708C270.988 341.708 269.462 340.84 268.832 339.314L269.952 338.838C270.358 339.776 271.408 340.518 272.822 340.518C274.432 340.518 275.328 339.594 275.328 338.376C275.328 337.074 274.278 336.234 272.612 336.234C271.716 336.234 270.988 336.514 270.442 337.074Z" fill="#1A3341"/>
<path d="M251 353.582C251 352.477 251.895 351.582 253 351.582H281C282.105 351.582 283 352.477 283 353.582V422.582H251V353.582Z" fill="url(#paint46_linear_2355_31535)"/>
<path opacity="0.2" d="M263 351.582H271V422.582H263V351.582Z" fill="url(#paint47_linear_2355_31535)"/>
<path opacity="0.04" d="M271 351.582H281C282.105 351.582 283 352.477 283 353.582V422.582H271V351.582Z" fill="#0D262C"/>
<path opacity="0.5" d="M251 353.582C251 352.477 251.895 351.582 253 351.582H263V422.582H251V353.582Z" fill="url(#paint48_linear_2355_31535)"/>
<line x1="-4.37114e-08" y1="423.082" x2="335" y2="423.082" stroke="#ABBEC9"/>
<path d="M33.5271 498.954L32.6511 498.642C32.9511 497.154 34.0791 496.086 35.8671 496.086C37.5951 496.086 38.6511 497.082 38.6511 498.606C38.6511 499.41 38.3031 500.214 37.8711 500.79C37.6551 501.09 37.3791 501.378 37.0551 501.678C36.3951 502.266 35.9271 502.578 35.2431 503.01L34.3191 503.586H38.9631V504.582H32.4231V503.766L34.2471 502.554C34.5711 502.35 34.7991 502.194 34.9311 502.098C35.0631 502.014 35.2791 501.858 35.5671 501.654C35.8551 501.45 36.0711 501.27 36.2151 501.138C36.3471 501.006 36.5271 500.838 36.7311 500.622C37.2831 500.022 37.4871 499.47 37.5471 498.714C37.5471 497.622 36.8391 497.13 35.7951 497.13C35.1471 497.13 34.6311 497.31 34.2591 497.67C33.8871 498.03 33.6351 498.462 33.5271 498.954ZM39.7948 500.382C39.7948 499.086 40.0948 498.042 40.7068 497.262C41.3068 496.482 42.1948 496.086 43.3588 496.086C45.7468 496.086 46.9348 497.658 46.9348 500.382C46.9348 501.69 46.6348 502.722 46.0468 503.502C45.4468 504.282 44.5588 504.678 43.3828 504.678C42.2548 504.678 41.3788 504.282 40.7428 503.49C40.1068 502.698 39.7948 501.666 39.7948 500.382ZM40.8988 500.382C40.8988 502.434 41.8348 503.658 43.3828 503.658C45.0148 503.658 45.8308 502.566 45.8308 500.382C45.8308 498.198 45.0028 497.106 43.3588 497.106C41.6908 497.106 40.8988 498.306 40.8988 500.382ZM48.791 498.954L47.915 498.642C48.215 497.154 49.343 496.086 51.131 496.086C52.859 496.086 53.915 497.082 53.915 498.606C53.915 499.41 53.567 500.214 53.135 500.79C52.919 501.09 52.643 501.378 52.319 501.678C51.659 502.266 51.191 502.578 50.507 503.01L49.583 503.586H54.227V504.582H47.687V503.766L49.511 502.554C49.835 502.35 50.063 502.194 50.195 502.098C50.327 502.014 50.543 501.858 50.831 501.654C51.119 501.45 51.335 501.27 51.479 501.138C51.611 501.006 51.791 500.838 51.995 500.622C52.547 500.022 52.751 499.47 52.811 498.714C52.811 497.622 52.103 497.13 51.059 497.13C50.411 497.13 49.895 497.31 49.523 497.67C49.151 498.03 48.899 498.462 48.791 498.954ZM55.8867 498.63L54.9867 498.222C55.4307 496.926 56.5947 496.074 58.3347 496.074C59.1627 496.074 59.8467 496.266 60.3747 496.65C60.9027 497.034 61.1667 497.55 61.1667 498.186C61.1667 499.158 60.6507 499.878 59.6907 500.154C60.6147 500.214 61.3587 500.91 61.3587 502.158C61.3587 502.95 61.0707 503.574 60.4947 504.018C59.9187 504.462 59.1867 504.69 58.2867 504.69C56.4507 504.69 55.1787 503.814 54.7587 502.434L55.7307 502.014C56.2467 503.106 57.1227 503.658 58.3587 503.658C59.5227 503.658 60.2547 503.118 60.2547 502.17C60.2547 501.246 59.5347 500.778 58.0947 500.778H57.1587V499.782H57.9027C59.2107 499.782 60.0627 499.194 60.0627 498.39C60.0627 497.562 59.3787 497.094 58.2867 497.094C57.0027 497.094 56.2227 497.754 55.8867 498.63ZM40.4256 514.382C40.4256 513.17 40.8336 512.138 41.6616 511.31C42.4896 510.482 43.4976 510.074 44.6976 510.074C45.8856 510.074 46.8936 510.482 47.7216 511.298C48.5496 512.114 48.9576 513.146 48.9576 514.382C48.9576 515.57 48.5136 516.626 47.6256 517.526L48.4656 518.534L47.7216 519.158L46.8576 518.114C46.1736 518.498 45.4536 518.69 44.6976 518.69C43.4736 518.69 42.4536 518.282 41.6496 517.466C40.8336 516.662 40.4256 515.63 40.4256 514.382ZM41.5656 514.382C41.5656 515.33 41.8656 516.11 42.4656 516.722C43.0656 517.334 43.8096 517.646 44.6976 517.646C45.2376 517.646 45.7296 517.514 46.1976 517.238L45.4776 516.374L46.1736 515.762L46.9416 516.686C47.5296 516.074 47.8176 515.306 47.8176 514.382C47.8176 513.434 47.5176 512.654 46.9176 512.042C46.3176 511.43 45.5736 511.118 44.6976 511.118C43.8096 511.118 43.0656 511.418 42.4656 512.03C41.8656 512.642 41.5656 513.434 41.5656 514.382ZM49.692 512.414L49.308 511.514L52.188 510.134H52.872V518.582H51.84V511.418L49.692 512.414Z" fill="#76848D"/>
<path d="M119.119 514.382C119.119 513.17 119.527 512.138 120.355 511.31C121.183 510.482 122.191 510.074 123.391 510.074C124.579 510.074 125.587 510.482 126.415 511.298C127.243 512.114 127.651 513.146 127.651 514.382C127.651 515.57 127.207 516.626 126.319 517.526L127.159 518.534L126.415 519.158L125.551 518.114C124.867 518.498 124.147 518.69 123.391 518.69C122.167 518.69 121.147 518.282 120.343 517.466C119.527 516.662 119.119 515.63 119.119 514.382ZM120.259 514.382C120.259 515.33 120.559 516.11 121.159 516.722C121.759 517.334 122.503 517.646 123.391 517.646C123.931 517.646 124.423 517.514 124.891 517.238L124.171 516.374L124.867 515.762L125.635 516.686C126.223 516.074 126.511 515.306 126.511 514.382C126.511 513.434 126.211 512.654 125.611 512.042C125.011 511.43 124.267 511.118 123.391 511.118C122.503 511.118 121.759 511.418 121.159 512.03C120.559 512.642 120.259 513.434 120.259 514.382ZM129.441 512.954L128.565 512.642C128.865 511.154 129.993 510.086 131.781 510.086C133.509 510.086 134.565 511.082 134.565 512.606C134.565 513.41 134.217 514.214 133.785 514.79C133.569 515.09 133.293 515.378 132.969 515.678C132.309 516.266 131.841 516.578 131.157 517.01L130.233 517.586H134.877V518.582H128.337V517.766L130.161 516.554C130.485 516.35 130.713 516.194 130.845 516.098C130.977 516.014 131.193 515.858 131.481 515.654C131.769 515.45 131.985 515.27 132.129 515.138C132.261 515.006 132.441 514.838 132.645 514.622C133.197 514.022 133.401 513.47 133.461 512.714C133.461 511.622 132.753 511.13 131.709 511.13C131.061 511.13 130.545 511.31 130.173 511.67C129.801 512.03 129.549 512.462 129.441 512.954Z" fill="#76848D"/>
<path d="M199.09 514.382C199.09 513.17 199.498 512.138 200.326 511.31C201.154 510.482 202.162 510.074 203.362 510.074C204.55 510.074 205.558 510.482 206.386 511.298C207.214 512.114 207.622 513.146 207.622 514.382C207.622 515.57 207.178 516.626 206.29 517.526L207.13 518.534L206.386 519.158L205.522 518.114C204.838 518.498 204.118 518.69 203.362 518.69C202.138 518.69 201.118 518.282 200.314 517.466C199.498 516.662 199.09 515.63 199.09 514.382ZM200.23 514.382C200.23 515.33 200.53 516.11 201.13 516.722C201.73 517.334 202.474 517.646 203.362 517.646C203.902 517.646 204.394 517.514 204.862 517.238L204.142 516.374L204.838 515.762L205.606 516.686C206.194 516.074 206.482 515.306 206.482 514.382C206.482 513.434 206.182 512.654 205.582 512.042C204.982 511.43 204.238 511.118 203.362 511.118C202.474 511.118 201.73 511.418 201.13 512.03C200.53 512.642 200.23 513.434 200.23 514.382ZM209.28 512.63L208.38 512.222C208.824 510.926 209.988 510.074 211.728 510.074C212.556 510.074 213.24 510.266 213.768 510.65C214.296 511.034 214.56 511.55 214.56 512.186C214.56 513.158 214.044 513.878 213.084 514.154C214.008 514.214 214.752 514.91 214.752 516.158C214.752 516.95 214.464 517.574 213.888 518.018C213.312 518.462 212.58 518.69 211.68 518.69C209.844 518.69 208.572 517.814 208.152 516.434L209.124 516.014C209.64 517.106 210.516 517.658 211.752 517.658C212.916 517.658 213.648 517.118 213.648 516.17C213.648 515.246 212.928 514.778 211.488 514.778H210.552V513.782H211.296C212.604 513.782 213.456 513.194 213.456 512.39C213.456 511.562 212.772 511.094 211.68 511.094C210.396 511.094 209.616 511.754 209.28 512.63Z" fill="#76848D"/>
<path d="M278.762 514.382C278.762 513.17 279.17 512.138 279.998 511.31C280.826 510.482 281.834 510.074 283.034 510.074C284.222 510.074 285.23 510.482 286.058 511.298C286.886 512.114 287.294 513.146 287.294 514.382C287.294 515.57 286.85 516.626 285.962 517.526L286.802 518.534L286.058 519.158L285.194 518.114C284.51 518.498 283.79 518.69 283.034 518.69C281.81 518.69 280.79 518.282 279.986 517.466C279.17 516.662 278.762 515.63 278.762 514.382ZM279.902 514.382C279.902 515.33 280.202 516.11 280.802 516.722C281.402 517.334 282.146 517.646 283.034 517.646C283.574 517.646 284.066 517.514 284.534 517.238L283.814 516.374L284.51 515.762L285.278 516.686C285.866 516.074 286.154 515.306 286.154 514.382C286.154 513.434 285.854 512.654 285.254 512.042C284.654 511.43 283.91 511.118 283.034 511.118C282.146 511.118 281.402 511.418 280.802 512.03C280.202 512.642 279.902 513.434 279.902 514.382ZM293.92 518.582H292.876V516.866H287.74V516.17L292.996 510.182H293.92V515.894H295.48V516.866H293.92V518.582ZM292.876 511.862L289.18 515.894H292.876V511.862Z" fill="#76848D"/>
<defs>
<linearGradient id="paint0_linear_2355_31535" x1="0.476191" y1="12.582" x2="10" y2="12.582" gradientUnits="userSpaceOnUse">
<stop stop-color="#CEE8EF"/>
<stop offset="1" stop-color="#CEE8EF"/>
</linearGradient>
<linearGradient id="paint1_linear_2355_31535" x1="27" y1="64.582" x2="27" y2="102.582" gradientUnits="userSpaceOnUse">
<stop stop-color="#CDE3E9"/>
<stop offset="1" stop-color="#D3E8ED"/>
</linearGradient>
<linearGradient id="paint2_linear_2355_31535" x1="27" y1="64.582" x2="27" y2="102.582" gradientUnits="userSpaceOnUse">
<stop stop-color="white" stop-opacity="0"/>
<stop offset="0.739583" stop-color="white"/>
</linearGradient>
<linearGradient id="paint3_linear_2355_31535" x1="17" y1="-9.51797" x2="17" y2="102.582" gradientUnits="userSpaceOnUse">
<stop stop-color="white" stop-opacity="0.05"/>
<stop offset="0.75" stop-color="white" stop-opacity="0.8"/>
</linearGradient>
<linearGradient id="paint4_linear_2355_31535" x1="67" y1="107.582" x2="67" y2="102.582" gradientUnits="userSpaceOnUse">
<stop stop-color="#6D73F9"/>
<stop offset="1" stop-color="#9BB8F1"/>
</linearGradient>
<linearGradient id="paint5_linear_2355_31535" x1="67" y1="107.582" x2="67" y2="102.582" gradientUnits="userSpaceOnUse">
<stop stop-color="white" stop-opacity="0"/>
<stop offset="0.739583" stop-color="white"/>
</linearGradient>
<linearGradient id="paint6_linear_2355_31535" x1="57" y1="117.332" x2="57" y2="102.582" gradientUnits="userSpaceOnUse">
<stop stop-color="white" stop-opacity="0.05"/>
<stop offset="0.75" stop-color="white" stop-opacity="0.8"/>
</linearGradient>
<linearGradient id="paint7_linear_2355_31535" x1="267" y1="138.582" x2="267" y2="102.582" gradientUnits="userSpaceOnUse">
<stop stop-color="#CDE3E9"/>
<stop offset="1" stop-color="#D3E8ED"/>
</linearGradient>
<linearGradient id="paint8_linear_2355_31535" x1="267" y1="138.582" x2="267" y2="102.582" gradientUnits="userSpaceOnUse">
<stop stop-color="white" stop-opacity="0"/>
<stop offset="0.739583" stop-color="white"/>
</linearGradient>
<linearGradient id="paint9_linear_2355_31535" x1="257" y1="208.782" x2="257" y2="102.582" gradientUnits="userSpaceOnUse">
<stop stop-color="white" stop-opacity="0.05"/>
<stop offset="0.75" stop-color="white" stop-opacity="0.8"/>
</linearGradient>
<linearGradient id="paint10_linear_2355_31535" x1="307" y1="161.582" x2="307" y2="102.582" gradientUnits="userSpaceOnUse">
<stop stop-color="#6D73F9"/>
<stop offset="1" stop-color="#9BB8F1"/>
</linearGradient>
<linearGradient id="paint11_linear_2355_31535" x1="307" y1="161.582" x2="307" y2="102.582" gradientUnits="userSpaceOnUse">
<stop stop-color="white" stop-opacity="0"/>
<stop offset="0.739583" stop-color="white"/>
</linearGradient>
<linearGradient id="paint12_linear_2355_31535" x1="297" y1="276.632" x2="297" y2="102.582" gradientUnits="userSpaceOnUse">
<stop stop-color="white" stop-opacity="0.05"/>
<stop offset="0.75" stop-color="white" stop-opacity="0.8"/>
</linearGradient>
<linearGradient id="paint13_linear_2355_31535" x1="107" y1="161.582" x2="107" y2="102.582" gradientUnits="userSpaceOnUse">
<stop stop-color="#CDE3E9"/>
<stop offset="1" stop-color="#D3E8ED"/>
</linearGradient>
<linearGradient id="paint14_linear_2355_31535" x1="107" y1="161.582" x2="107" y2="102.582" gradientUnits="userSpaceOnUse">
<stop stop-color="white" stop-opacity="0"/>
<stop offset="0.739583" stop-color="white"/>
</linearGradient>
<linearGradient id="paint15_linear_2355_31535" x1="97" y1="276.632" x2="97" y2="102.582" gradientUnits="userSpaceOnUse">
<stop stop-color="white" stop-opacity="0.05"/>
<stop offset="0.75" stop-color="white" stop-opacity="0.8"/>
</linearGradient>
<linearGradient id="paint16_linear_2355_31535" x1="147" y1="205.582" x2="147" y2="102.582" gradientUnits="userSpaceOnUse">
<stop stop-color="#6D73F9"/>
<stop offset="1" stop-color="#9BB8F1"/>
</linearGradient>
<linearGradient id="paint17_linear_2355_31535" x1="147" y1="205.582" x2="147" y2="102.582" gradientUnits="userSpaceOnUse">
<stop stop-color="white" stop-opacity="0"/>
<stop offset="0.739583" stop-color="white"/>
</linearGradient>
<linearGradient id="paint18_linear_2355_31535" x1="137" y1="406.432" x2="137" y2="102.582" gradientUnits="userSpaceOnUse">
<stop stop-color="white" stop-opacity="0.05"/>
<stop offset="0.75" stop-color="white" stop-opacity="0.8"/>
</linearGradient>
<linearGradient id="paint19_linear_2355_31535" x1="187" y1="148.582" x2="187" y2="102.582" gradientUnits="userSpaceOnUse">
<stop stop-color="#CDE3E9"/>
<stop offset="1" stop-color="#D3E8ED"/>
</linearGradient>
<linearGradient id="paint20_linear_2355_31535" x1="187" y1="148.582" x2="187" y2="102.582" gradientUnits="userSpaceOnUse">
<stop stop-color="white" stop-opacity="0"/>
<stop offset="0.739583" stop-color="white"/>
</linearGradient>
<linearGradient id="paint21_linear_2355_31535" x1="177" y1="238.282" x2="177" y2="102.582" gradientUnits="userSpaceOnUse">
<stop stop-color="white" stop-opacity="0.05"/>
<stop offset="0.75" stop-color="white" stop-opacity="0.8"/>
</linearGradient>
<linearGradient id="paint22_linear_2355_31535" x1="227" y1="171.582" x2="227" y2="102.582" gradientUnits="userSpaceOnUse">
<stop stop-color="#6D73F9"/>
<stop offset="1" stop-color="#9BB8F1"/>
</linearGradient>
<linearGradient id="paint23_linear_2355_31535" x1="227" y1="171.582" x2="227" y2="102.582" gradientUnits="userSpaceOnUse">
<stop stop-color="white" stop-opacity="0"/>
<stop offset="0.739583" stop-color="white"/>
</linearGradient>
<linearGradient id="paint24_linear_2355_31535" x1="217" y1="306.132" x2="217" y2="102.582" gradientUnits="userSpaceOnUse">
<stop stop-color="white" stop-opacity="0.05"/>
<stop offset="0.75" stop-color="white" stop-opacity="0.8"/>
</linearGradient>
<linearGradient id="paint25_linear_2355_31535" x1="27" y1="446.582" x2="27" y2="422.582" gradientUnits="userSpaceOnUse">
<stop stop-color="#CDE3E9"/>
<stop offset="1" stop-color="#D3E8ED"/>
</linearGradient>
<linearGradient id="paint26_linear_2355_31535" x1="27" y1="446.582" x2="27" y2="422.582" gradientUnits="userSpaceOnUse">
<stop stop-color="white" stop-opacity="0"/>
<stop offset="0.739583" stop-color="white"/>
</linearGradient>
<linearGradient id="paint27_linear_2355_31535" x1="17" y1="493.382" x2="17" y2="422.582" gradientUnits="userSpaceOnUse">
<stop stop-color="white" stop-opacity="0.05"/>
<stop offset="0.75" stop-color="white" stop-opacity="0.8"/>
</linearGradient>
<linearGradient id="paint28_linear_2355_31535" x1="67" y1="447.582" x2="67" y2="422.582" gradientUnits="userSpaceOnUse">
<stop stop-color="#6D73F9"/>
<stop offset="1" stop-color="#9BB8F1"/>
</linearGradient>
<linearGradient id="paint29_linear_2355_31535" x1="67" y1="447.582" x2="67" y2="422.582" gradientUnits="userSpaceOnUse">
<stop stop-color="white" stop-opacity="0"/>
<stop offset="0.739583" stop-color="white"/>
</linearGradient>
<linearGradient id="paint30_linear_2355_31535" x1="57" y1="496.332" x2="57" y2="422.582" gradientUnits="userSpaceOnUse">
<stop stop-color="white" stop-opacity="0.05"/>
<stop offset="0.75" stop-color="white" stop-opacity="0.8"/>
</linearGradient>
<linearGradient id="paint31_linear_2355_31535" x1="107" y1="359.582" x2="107" y2="422.582" gradientUnits="userSpaceOnUse">
<stop stop-color="#CDE3E9"/>
<stop offset="1" stop-color="#D3E8ED"/>
</linearGradient>
<linearGradient id="paint32_linear_2355_31535" x1="107" y1="359.582" x2="107" y2="422.582" gradientUnits="userSpaceOnUse">
<stop stop-color="white" stop-opacity="0"/>
<stop offset="0.739583" stop-color="white"/>
</linearGradient>
<linearGradient id="paint33_linear_2355_31535" x1="97" y1="236.732" x2="97" y2="422.582" gradientUnits="userSpaceOnUse">
<stop stop-color="white" stop-opacity="0.05"/>
<stop offset="0.75" stop-color="white" stop-opacity="0.8"/>
</linearGradient>
<linearGradient id="paint34_linear_2355_31535" x1="187" y1="356.582" x2="187" y2="422.582" gradientUnits="userSpaceOnUse">
<stop stop-color="#CDE3E9"/>
<stop offset="1" stop-color="#D3E8ED"/>
</linearGradient>
<linearGradient id="paint35_linear_2355_31535" x1="187" y1="356.582" x2="187" y2="422.582" gradientUnits="userSpaceOnUse">
<stop stop-color="white" stop-opacity="0"/>
<stop offset="0.739583" stop-color="white"/>
</linearGradient>
<linearGradient id="paint36_linear_2355_31535" x1="177" y1="227.882" x2="177" y2="422.582" gradientUnits="userSpaceOnUse">
<stop stop-color="white" stop-opacity="0.05"/>
<stop offset="0.75" stop-color="white" stop-opacity="0.8"/>
</linearGradient>
<linearGradient id="paint37_linear_2355_31535" x1="147" y1="343.582" x2="147" y2="422.582" gradientUnits="userSpaceOnUse">
<stop stop-color="#6D73F9"/>
<stop offset="1" stop-color="#9BB8F1"/>
</linearGradient>
<linearGradient id="paint38_linear_2355_31535" x1="147" y1="343.582" x2="147" y2="422.582" gradientUnits="userSpaceOnUse">
<stop stop-color="white" stop-opacity="0"/>
<stop offset="0.739583" stop-color="white"/>
</linearGradient>
<linearGradient id="paint39_linear_2355_31535" x1="137" y1="189.532" x2="137" y2="422.582" gradientUnits="userSpaceOnUse">
<stop stop-color="white" stop-opacity="0.05"/>
<stop offset="0.75" stop-color="white" stop-opacity="0.8"/>
</linearGradient>
<linearGradient id="paint40_linear_2355_31535" x1="227" y1="342.582" x2="227" y2="422.582" gradientUnits="userSpaceOnUse">
<stop stop-color="#6D73F9"/>
<stop offset="1" stop-color="#9BB8F1"/>
</linearGradient>
<linearGradient id="paint41_linear_2355_31535" x1="227" y1="342.582" x2="227" y2="422.582" gradientUnits="userSpaceOnUse">
<stop stop-color="white" stop-opacity="0"/>
<stop offset="0.739583" stop-color="white"/>
</linearGradient>
<linearGradient id="paint42_linear_2355_31535" x1="217" y1="186.582" x2="217" y2="422.582" gradientUnits="userSpaceOnUse">
<stop stop-color="white" stop-opacity="0.05"/>
<stop offset="0.75" stop-color="white" stop-opacity="0.8"/>
</linearGradient>
<linearGradient id="paint43_linear_2355_31535" x1="307" y1="363.582" x2="307" y2="422.582" gradientUnits="userSpaceOnUse">
<stop stop-color="#6D73F9"/>
<stop offset="1" stop-color="#9BB8F1"/>
</linearGradient>
<linearGradient id="paint44_linear_2355_31535" x1="307" y1="363.582" x2="307" y2="422.582" gradientUnits="userSpaceOnUse">
<stop stop-color="white" stop-opacity="0"/>
<stop offset="0.739583" stop-color="white"/>
</linearGradient>
<linearGradient id="paint45_linear_2355_31535" x1="297" y1="248.532" x2="297" y2="422.582" gradientUnits="userSpaceOnUse">
<stop stop-color="white" stop-opacity="0.05"/>
<stop offset="0.75" stop-color="white" stop-opacity="0.8"/>
</linearGradient>
<linearGradient id="paint46_linear_2355_31535" x1="267" y1="351.582" x2="267" y2="422.582" gradientUnits="userSpaceOnUse">
<stop stop-color="#CDE3E9"/>
<stop offset="1" stop-color="#D3E8ED"/>
</linearGradient>
<linearGradient id="paint47_linear_2355_31535" x1="267" y1="351.582" x2="267" y2="422.582" gradientUnits="userSpaceOnUse">
<stop stop-color="white" stop-opacity="0"/>
<stop offset="0.739583" stop-color="white"/>
</linearGradient>
<linearGradient id="paint48_linear_2355_31535" x1="257" y1="213.132" x2="257" y2="422.582" gradientUnits="userSpaceOnUse">
<stop stop-color="white" stop-opacity="0.05"/>
<stop offset="0.75" stop-color="white" stop-opacity="0.8"/>
</linearGradient>
</defs>
</svg>
