<svg width="1095" height="362" viewBox="0 0 1095 362" fill="none" xmlns="http://www.w3.org/2000/svg">
<rect y="2" width="10" height="10" fill="url(#paint0_linear_7006_29061)"/>
<path d="M19.98 7.712V11H18.888V2.6H22.104C24.276 2.6 25.356 3.44 25.356 5.12C25.356 6.308 24.54 7.244 23.304 7.496L25.992 11H24.66L22.164 7.712H19.98ZM22.068 3.62H19.98V6.692H22.14C23.424 6.692 24.24 6.08 24.24 5.12C24.24 4.124 23.52 3.62 22.068 3.62ZM31.2568 4.724H32.2648V11H31.2568V10.112C30.7768 10.772 30.1048 11.108 29.2288 11.108C27.5008 11.108 26.6608 10.244 26.6608 8.336V4.724H27.6688V8.192C27.6688 9.5 28.2208 10.16 29.3128 10.16C30.1768 10.16 30.8728 9.668 31.2568 8.804V4.724ZM37.4255 9.296C37.4255 8.456 35.9975 8.324 34.8575 8C34.0775 7.772 33.4535 7.256 33.4535 6.404C33.4535 5.3 34.4975 4.616 36.0455 4.616C37.0895 4.616 37.9295 5.06 38.3735 5.696L37.6655 6.356C37.2695 5.828 36.6695 5.564 35.8655 5.564C35.1455 5.564 34.5215 5.84 34.5215 6.356C34.5215 7.088 35.9495 7.22 37.0895 7.568C37.8575 7.808 38.4815 8.384 38.4815 9.284C38.4815 10.496 37.5095 11.108 35.9855 11.108C34.7015 11.108 33.6095 10.532 33.1655 9.632L33.9695 9.068C34.3415 9.728 35.1935 10.16 36.1535 10.16C37.0055 10.16 37.4255 9.872 37.4255 9.296ZM43.2703 9.296C43.2703 8.456 41.8423 8.324 40.7023 8C39.9223 7.772 39.2983 7.256 39.2983 6.404C39.2983 5.3 40.3423 4.616 41.8903 4.616C42.9343 4.616 43.7743 5.06 44.2183 5.696L43.5103 6.356C43.1143 5.828 42.5143 5.564 41.7103 5.564C40.9903 5.564 40.3663 5.84 40.3663 6.356C40.3663 7.088 41.7943 7.22 42.9343 7.568C43.7023 7.808 44.3263 8.384 44.3263 9.284C44.3263 10.496 43.3543 11.108 41.8303 11.108C40.5463 11.108 39.4543 10.532 39.0103 9.632L39.8143 9.068C40.1863 9.728 41.0383 10.16 41.9983 10.16C42.8503 10.16 43.2703 9.872 43.2703 9.296ZM46.4272 11H45.4192V4.76H46.4272V11ZM45.2872 2.732C45.2872 2.396 45.5632 2.144 45.9352 2.144C46.2712 2.144 46.5592 2.396 46.5592 2.732C46.5592 3.08 46.2712 3.356 45.9352 3.356C45.5632 3.356 45.2872 3.08 45.2872 2.732ZM48.3776 6.26L47.8616 5.504C48.4376 4.964 49.4336 4.616 50.3576 4.616C52.0256 4.616 52.9136 5.528 52.9136 7.148V11H51.9056V10.076C51.5096 10.652 50.7296 11.084 49.7216 11.084C48.3656 11.084 47.4536 10.328 47.4536 9.176C47.4536 7.868 48.5696 7.244 50.4416 7.244C51.0296 7.244 51.5096 7.304 51.9056 7.424C51.9056 6.212 51.4736 5.564 50.2376 5.564C49.6136 5.564 48.9896 5.792 48.3776 6.26ZM49.9616 10.172C50.4296 10.172 50.8496 10.04 51.1976 9.788C51.5456 9.536 51.7736 9.248 51.9056 8.948V8.312C51.5576 8.192 51.1136 8.132 50.5736 8.132C49.2056 8.132 48.5216 8.468 48.5216 9.14C48.5216 9.776 49.0976 10.172 49.9616 10.172Z" fill="#76848D"/>
<rect x="90" y="2" width="10" height="10" fill="#737AF9"/>
<path d="M112.224 11H108.888V2.6H112.284C114.432 2.6 115.248 3.38 115.248 4.688C115.248 5.624 114.852 6.26 114.06 6.608C114.984 6.8 115.548 7.508 115.548 8.6C115.548 10.244 114.324 11 112.224 11ZM112.332 7.208H109.98V9.98H112.212C113.736 9.98 114.42 9.536 114.42 8.54C114.42 7.652 113.724 7.208 112.332 7.208ZM112.188 3.62H109.98V6.212H112.368C113.436 6.212 114.132 5.732 114.132 4.916C114.132 4.016 113.616 3.62 112.188 3.62ZM121.51 9.212L122.158 9.812C121.582 10.676 120.754 11.108 119.662 11.108C118.666 11.108 117.862 10.808 117.25 10.22C116.638 9.632 116.338 8.852 116.338 7.868C116.338 6.92 116.614 6.14 117.178 5.528C117.73 4.916 118.51 4.616 119.518 4.616C120.346 4.616 121.042 4.88 121.582 5.396C122.122 5.912 122.398 6.596 122.398 7.448C122.398 7.724 122.374 7.976 122.338 8.204H117.418C117.478 9.44 118.39 10.16 119.698 10.16C120.43 10.16 121.126 9.776 121.51 9.212ZM119.446 5.54C118.306 5.54 117.562 6.236 117.406 7.292H121.33C121.27 6.188 120.562 5.54 119.446 5.54ZM124.502 11H123.494V2.24H124.502V11ZM126.418 6.26L125.902 5.504C126.478 4.964 127.474 4.616 128.398 4.616C130.066 4.616 130.954 5.528 130.954 7.148V11H129.946V10.076C129.55 10.652 128.77 11.084 127.762 11.084C126.406 11.084 125.494 10.328 125.494 9.176C125.494 7.868 126.61 7.244 128.482 7.244C129.07 7.244 129.55 7.304 129.946 7.424C129.946 6.212 129.514 5.564 128.278 5.564C127.654 5.564 127.03 5.792 126.418 6.26ZM128.002 10.172C128.47 10.172 128.89 10.04 129.238 9.788C129.586 9.536 129.814 9.248 129.946 8.948V8.312C129.598 8.192 129.154 8.132 128.614 8.132C127.246 8.132 126.562 8.468 126.562 9.14C126.562 9.776 127.138 10.172 128.002 10.172ZM133.237 11H132.229V4.76H133.237V5.24C133.441 4.82 133.981 4.628 134.521 4.628C135.073 4.628 135.493 4.82 135.793 5.192L135.157 5.888C135.001 5.684 134.761 5.576 134.413 5.576C133.873 5.576 133.381 6.02 133.237 6.656V11ZM140.863 4.724H141.871V11H140.863V10.112C140.383 10.772 139.711 11.108 138.835 11.108C137.107 11.108 136.267 10.244 136.267 8.336V4.724H137.275V8.192C137.275 9.5 137.827 10.16 138.919 10.16C139.783 10.16 140.479 9.668 140.863 8.804V4.724ZM147.031 9.296C147.031 8.456 145.603 8.324 144.463 8C143.683 7.772 143.059 7.256 143.059 6.404C143.059 5.3 144.103 4.616 145.651 4.616C146.695 4.616 147.535 5.06 147.979 5.696L147.271 6.356C146.875 5.828 146.275 5.564 145.471 5.564C144.751 5.564 144.127 5.84 144.127 6.356C144.127 7.088 145.555 7.22 146.695 7.568C147.463 7.808 148.087 8.384 148.087 9.284C148.087 10.496 147.115 11.108 145.591 11.108C144.307 11.108 143.215 10.532 142.771 9.632L143.575 9.068C143.947 9.728 144.799 10.16 145.759 10.16C146.611 10.16 147.031 9.872 147.031 9.296Z" fill="#76848D"/>
<path d="M69.45 248.492H62.954V247.442H69.45V248.492ZM71.8184 246.434L70.7964 246.07C71.1464 244.334 72.4624 243.088 74.5484 243.088C76.5644 243.088 77.7964 244.25 77.7964 246.028C77.7964 246.966 77.3904 247.904 76.8864 248.576C76.6344 248.926 76.3124 249.262 75.9344 249.612C75.1644 250.298 74.6184 250.662 73.8204 251.166L72.7424 251.838H78.1604V253H70.5304V252.048L72.6584 250.634C73.0364 250.396 73.3024 250.214 73.4564 250.102C73.6104 250.004 73.8624 249.822 74.1984 249.584C74.5344 249.346 74.7864 249.136 74.9544 248.982C75.1084 248.828 75.3184 248.632 75.5564 248.38C76.2004 247.68 76.4384 247.036 76.5084 246.154C76.5084 244.88 75.6824 244.306 74.4644 244.306C73.7084 244.306 73.1064 244.516 72.6724 244.936C72.2384 245.356 71.9444 245.86 71.8184 246.434ZM79.2286 252.202C79.2286 251.81 79.5926 251.418 80.0966 251.418C80.5586 251.418 80.9366 251.81 80.9366 252.202C80.9366 252.65 80.5866 253.028 80.0966 253.028C79.5926 253.028 79.2286 252.65 79.2286 252.202ZM90.2421 247.918C90.2421 249.584 89.8501 250.872 89.0521 251.768C88.2541 252.678 87.1901 253.126 85.8601 253.126C84.2361 253.126 82.9621 252.44 82.3321 251.39L83.3401 250.69C83.9001 251.474 84.9221 251.922 86.0281 251.922C86.9381 251.922 87.6661 251.558 88.2401 250.83C88.8141 250.116 89.0521 249.22 88.9821 248.156C88.5201 249.22 87.3581 250.004 85.8041 250.004C84.7121 250.004 83.8161 249.696 83.1161 249.066C82.4021 248.45 82.0521 247.638 82.0521 246.644C82.0521 245.552 82.4301 244.684 83.1861 244.04C83.9421 243.396 84.9501 243.074 86.1961 243.074C88.7161 243.074 90.2421 244.838 90.2421 247.918ZM88.7721 246.602C88.5621 245.3 87.6661 244.278 86.0561 244.278C84.3761 244.278 83.3401 245.146 83.3401 246.602C83.3401 247.988 84.3901 248.8 86.0281 248.8C86.7701 248.8 87.4001 248.576 87.8901 248.128C88.3801 247.68 88.6741 247.176 88.7721 246.602Z" fill="#1A3341"/>
<path d="M59 232.333C59 233.254 59.7462 234 60.6667 234H92.3333C93.2538 234 94 233.254 94 232.333V203H59V232.333Z" fill="url(#paint1_linear_7006_29061)"/>
<path opacity="0.2" d="M69 234H84V203H69V234Z" fill="url(#paint2_linear_7006_29061)"/>
<path opacity="0.04" d="M84 234H92.3333C93.2538 234 94 233.254 94 232.333V203H84V234Z" fill="#0D262C"/>
<path opacity="0.5" d="M59 232.333C59 233.254 59.7462 234 60.6667 234H69V203H59V232.333Z" fill="url(#paint3_linear_7006_29061)"/>
<path d="M161.94 258.492H155.444V257.442H161.94V258.492ZM169.951 263H168.733V260.998H162.741V260.186L168.873 253.2H169.951V259.864H171.771V260.998H169.951V263ZM168.733 255.16L164.421 259.864H168.733V255.16ZM172.553 262.202C172.553 261.81 172.917 261.418 173.421 261.418C173.883 261.418 174.261 261.81 174.261 262.202C174.261 262.65 173.911 263.028 173.421 263.028C172.917 263.028 172.553 262.65 172.553 262.202ZM175.306 255.804L174.858 254.754L178.218 253.144H179.016V263H177.812V254.642L175.306 255.804Z" fill="#1A3341"/>
<path d="M150 242.333C150 243.254 150.746 244 151.667 244H183.333C184.254 244 185 243.254 185 242.333V203H150V242.333Z" fill="url(#paint4_linear_7006_29061)"/>
<path opacity="0.2" d="M160 244H175V203H160V244Z" fill="url(#paint5_linear_7006_29061)"/>
<path opacity="0.04" d="M175 244H183.333C184.254 244 185 243.254 185 242.333V203H175V244Z" fill="#0D262C"/>
<path opacity="0.5" d="M150 242.333C150 243.254 150.746 244 151.667 244H160V203H150V242.333Z" fill="url(#paint6_linear_7006_29061)"/>
<path d="M251.429 253.492H244.933V252.442H251.429V253.492ZM253.644 251.056L252.594 250.58C253.112 249.068 254.47 248.074 256.5 248.074C257.466 248.074 258.264 248.298 258.88 248.746C259.496 249.194 259.804 249.796 259.804 250.538C259.804 251.672 259.202 252.512 258.082 252.834C259.16 252.904 260.028 253.716 260.028 255.172C260.028 256.096 259.692 256.824 259.02 257.342C258.348 257.86 257.494 258.126 256.444 258.126C254.302 258.126 252.818 257.104 252.328 255.494L253.462 255.004C254.064 256.278 255.086 256.922 256.528 256.922C257.886 256.922 258.74 256.292 258.74 255.186C258.74 254.108 257.9 253.562 256.22 253.562H255.128V252.4H255.996C257.522 252.4 258.516 251.714 258.516 250.776C258.516 249.81 257.718 249.264 256.444 249.264C254.946 249.264 254.036 250.034 253.644 251.056ZM261.276 257.202C261.276 256.81 261.64 256.418 262.144 256.418C262.606 256.418 262.984 256.81 262.984 257.202C262.984 257.65 262.634 258.028 262.144 258.028C261.64 258.028 261.276 257.65 261.276 257.202ZM264.142 253.366C264.142 251.672 264.562 250.37 265.388 249.446C266.214 248.536 267.25 248.074 268.496 248.074C270.134 248.074 271.422 248.816 271.968 249.992L271.016 250.636C270.442 249.726 269.588 249.278 268.44 249.278C267.572 249.278 266.844 249.614 266.256 250.286C265.668 250.972 265.374 251.896 265.388 253.086C265.934 252.064 267.208 251.448 268.608 251.448C269.742 251.448 270.652 251.742 271.31 252.344C271.968 252.946 272.304 253.744 272.304 254.724C272.304 255.718 271.94 256.544 271.198 257.174C270.456 257.804 269.532 258.126 268.426 258.126C265.78 258.126 264.142 256.404 264.142 253.366ZM265.542 254.556C265.808 255.942 266.858 256.922 268.412 256.922C269.168 256.922 269.798 256.726 270.288 256.32C270.778 255.928 271.016 255.41 271.016 254.78C271.016 253.394 270.036 252.652 268.538 252.652C267.712 252.652 267.026 252.848 266.494 253.24C265.948 253.632 265.64 254.066 265.542 254.556Z" fill="#1A3341"/>
<path d="M241 237.333C241 238.254 241.746 239 242.667 239H274.333C275.254 239 276 238.254 276 237.333V203H241V237.333Z" fill="url(#paint7_linear_7006_29061)"/>
<path opacity="0.2" d="M251 239H266V203H251V239Z" fill="url(#paint8_linear_7006_29061)"/>
<path opacity="0.04" d="M266 239H274.333C275.254 239 276 238.254 276 237.333V203H266V239Z" fill="#0D262C"/>
<path opacity="0.5" d="M241 237.333C241 238.254 241.746 239 242.667 239H251V203H241V237.333Z" fill="url(#paint9_linear_7006_29061)"/>
<path d="M336.726 80.804L336.278 79.754L339.638 78.144H340.436V88H339.232V79.642L336.726 80.804ZM342.222 83.1C342.222 81.588 342.572 80.37 343.286 79.46C343.986 78.55 345.022 78.088 346.38 78.088C349.166 78.088 350.552 79.922 350.552 83.1C350.552 84.626 350.202 85.83 349.516 86.74C348.816 87.65 347.78 88.112 346.408 88.112C345.092 88.112 344.07 87.65 343.328 86.726C342.586 85.802 342.222 84.598 342.222 83.1ZM343.51 83.1C343.51 85.494 344.602 86.922 346.408 86.922C348.312 86.922 349.264 85.648 349.264 83.1C349.264 80.552 348.298 79.278 346.38 79.278C344.434 79.278 343.51 80.678 343.51 83.1ZM351.695 87.202C351.695 86.81 352.059 86.418 352.563 86.418C353.025 86.418 353.403 86.81 353.403 87.202C353.403 87.65 353.053 88.028 352.563 88.028C352.059 88.028 351.695 87.65 351.695 87.202ZM355.989 83.492L354.981 83.226L355.555 78.2H361.715V79.39H356.633L356.269 82.022C356.759 81.658 357.501 81.476 358.495 81.476C359.643 81.476 360.539 81.784 361.197 82.386C361.841 83.002 362.163 83.786 362.163 84.752C362.163 85.718 361.799 86.53 361.085 87.16C360.357 87.804 359.447 88.126 358.369 88.126C356.535 88.126 355.009 87.258 354.379 85.732L355.499 85.256C355.905 86.194 356.955 86.936 358.369 86.936C359.979 86.936 360.875 86.012 360.875 84.794C360.875 83.492 359.825 82.652 358.159 82.652C357.263 82.652 356.535 82.932 355.989 83.492Z" fill="#1A3341"/>
<path d="M332 99.6667C332 98.7462 332.746 98 333.667 98H365.333C366.254 98 367 98.7462 367 99.6667V203H332V99.6667Z" fill="url(#paint10_linear_7006_29061)"/>
<path opacity="0.2" d="M342 98H357V203H342V98Z" fill="url(#paint11_linear_7006_29061)"/>
<path opacity="0.04" d="M357 98H365.333C366.254 98 367 98.7462 367 99.6667V203H357V98Z" fill="#0D262C"/>
<path opacity="0.5" d="M332 99.6667C332 98.7462 332.746 98 333.667 98H342V203H332V99.6667Z" fill="url(#paint12_linear_7006_29061)"/>
<path d="M428.164 50.804L427.716 49.754L431.076 48.144H431.874V58H430.67V49.642L428.164 50.804ZM434.625 51.056L433.575 50.58C434.093 49.068 435.451 48.074 437.481 48.074C438.447 48.074 439.245 48.298 439.861 48.746C440.477 49.194 440.785 49.796 440.785 50.538C440.785 51.672 440.183 52.512 439.063 52.834C440.141 52.904 441.009 53.716 441.009 55.172C441.009 56.096 440.673 56.824 440.001 57.342C439.329 57.86 438.475 58.126 437.425 58.126C435.283 58.126 433.799 57.104 433.309 55.494L434.443 55.004C435.045 56.278 436.067 56.922 437.509 56.922C438.867 56.922 439.721 56.292 439.721 55.186C439.721 54.108 438.881 53.562 437.201 53.562H436.109V52.4H436.977C438.503 52.4 439.497 51.714 439.497 50.776C439.497 49.81 438.699 49.264 437.425 49.264C435.927 49.264 435.017 50.034 434.625 51.056ZM442.258 57.202C442.258 56.81 442.622 56.418 443.126 56.418C443.588 56.418 443.966 56.81 443.966 57.202C443.966 57.65 443.616 58.028 443.126 58.028C442.622 58.028 442.258 57.65 442.258 57.202ZM446.551 53.492L445.543 53.226L446.117 48.2H452.277V49.39H447.195L446.831 52.022C447.321 51.658 448.063 51.476 449.057 51.476C450.205 51.476 451.101 51.784 451.759 52.386C452.403 53.002 452.725 53.786 452.725 54.752C452.725 55.718 452.361 56.53 451.647 57.16C450.919 57.804 450.009 58.126 448.931 58.126C447.097 58.126 445.571 57.258 444.941 55.732L446.061 55.256C446.467 56.194 447.517 56.936 448.931 56.936C450.541 56.936 451.437 56.012 451.437 54.794C451.437 53.492 450.387 52.652 448.721 52.652C447.825 52.652 447.097 52.932 446.551 53.492Z" fill="#1A3341"/>
<path d="M423 69.6667C423 68.7462 423.746 68 424.667 68H456.333C457.254 68 458 68.7462 458 69.6667V203H423V69.6667Z" fill="url(#paint13_linear_7006_29061)"/>
<path opacity="0.2" d="M433 68H448V203H433V68Z" fill="url(#paint14_linear_7006_29061)"/>
<path opacity="0.04" d="M448 68H456.333C457.254 68 458 68.7462 458 69.6667V203H448V68Z" fill="#0D262C"/>
<path opacity="0.5" d="M423 69.6667C423 68.7462 423.746 68 424.667 68H433V203H423V69.6667Z" fill="url(#paint15_linear_7006_29061)"/>
<path d="M518.931 57.804L518.483 56.754L521.843 55.144H522.641V65H521.437V56.642L518.931 57.804ZM525.547 58.434L524.525 58.07C524.875 56.334 526.191 55.088 528.277 55.088C530.293 55.088 531.525 56.25 531.525 58.028C531.525 58.966 531.119 59.904 530.615 60.576C530.363 60.926 530.041 61.262 529.663 61.612C528.893 62.298 528.347 62.662 527.549 63.166L526.471 63.838H531.889V65H524.259V64.048L526.387 62.634C526.765 62.396 527.031 62.214 527.185 62.102C527.339 62.004 527.591 61.822 527.927 61.584C528.263 61.346 528.515 61.136 528.683 60.982C528.837 60.828 529.047 60.632 529.285 60.38C529.929 59.68 530.167 59.036 530.237 58.154C530.237 56.88 529.411 56.306 528.193 56.306C527.437 56.306 526.835 56.516 526.401 56.936C525.967 57.356 525.673 57.86 525.547 58.434ZM532.957 64.202C532.957 63.81 533.321 63.418 533.825 63.418C534.287 63.418 534.665 63.81 534.665 64.202C534.665 64.65 534.315 65.028 533.825 65.028C533.321 65.028 532.957 64.65 532.957 64.202ZM539.687 59.414H540.121C540.751 59.414 541.269 59.26 541.703 58.966C542.123 58.672 542.333 58.28 542.333 57.818C542.333 56.768 541.507 56.236 539.869 56.236C538.301 56.236 537.447 56.81 537.447 57.818C537.447 58.728 538.385 59.414 539.687 59.414ZM540.093 60.52H539.743C538.987 60.52 538.357 60.688 537.867 61.01C537.377 61.332 537.125 61.738 537.125 62.228C537.125 63.292 538.105 63.964 539.883 63.964C541.689 63.964 542.655 63.32 542.655 62.242C542.655 61.164 541.619 60.52 540.093 60.52ZM542.851 64.37C542.137 64.874 541.143 65.126 539.897 65.126C538.651 65.126 537.657 64.874 536.929 64.384C536.201 63.894 535.837 63.222 535.837 62.354C535.837 61.22 536.579 60.324 537.769 59.932C536.691 59.582 536.159 58.728 536.159 57.734C536.159 56.11 537.531 55.074 539.883 55.074C542.249 55.074 543.621 56.11 543.621 57.734C543.621 58.672 543.103 59.386 542.067 59.862C543.313 60.24 543.929 61.052 543.929 62.298C543.929 63.18 543.565 63.88 542.851 64.37Z" fill="#1A3341"/>
<path d="M514 76.6667C514 75.7462 514.746 75 515.667 75H547.333C548.254 75 549 75.7462 549 76.6667V203H514V76.6667Z" fill="url(#paint16_linear_7006_29061)"/>
<path opacity="0.2" d="M524 75H539V203H524V75Z" fill="url(#paint17_linear_7006_29061)"/>
<path opacity="0.04" d="M539 75H547.333C548.254 75 549 75.7462 549 76.6667V203H539V75Z" fill="#0D262C"/>
<path opacity="0.5" d="M514 76.6667C514 75.7462 514.746 75 515.667 75H524V203H514V76.6667Z" fill="url(#paint18_linear_7006_29061)"/>
<path d="M616.565 104.414H616.999C617.629 104.414 618.147 104.26 618.581 103.966C619.001 103.672 619.211 103.28 619.211 102.818C619.211 101.768 618.385 101.236 616.747 101.236C615.179 101.236 614.325 101.81 614.325 102.818C614.325 103.728 615.263 104.414 616.565 104.414ZM616.971 105.52H616.621C615.865 105.52 615.235 105.688 614.745 106.01C614.255 106.332 614.003 106.738 614.003 107.228C614.003 108.292 614.983 108.964 616.761 108.964C618.567 108.964 619.533 108.32 619.533 107.242C619.533 106.164 618.497 105.52 616.971 105.52ZM619.729 109.37C619.015 109.874 618.021 110.126 616.775 110.126C615.529 110.126 614.535 109.874 613.807 109.384C613.079 108.894 612.715 108.222 612.715 107.354C612.715 106.22 613.457 105.324 614.647 104.932C613.569 104.582 613.037 103.728 613.037 102.734C613.037 101.11 614.409 100.074 616.761 100.074C619.127 100.074 620.499 101.11 620.499 102.734C620.499 103.672 619.981 104.386 618.945 104.862C620.191 105.24 620.807 106.052 620.807 107.298C620.807 108.18 620.443 108.88 619.729 109.37ZM621.997 109.202C621.997 108.81 622.361 108.418 622.865 108.418C623.327 108.418 623.705 108.81 623.705 109.202C623.705 109.65 623.355 110.028 622.865 110.028C622.361 110.028 621.997 109.65 621.997 109.202ZM625.828 103.056L624.778 102.58C625.296 101.068 626.654 100.074 628.684 100.074C629.65 100.074 630.448 100.298 631.064 100.746C631.68 101.194 631.988 101.796 631.988 102.538C631.988 103.672 631.386 104.512 630.266 104.834C631.344 104.904 632.212 105.716 632.212 107.172C632.212 108.096 631.876 108.824 631.204 109.342C630.532 109.86 629.678 110.126 628.628 110.126C626.486 110.126 625.002 109.104 624.512 107.494L625.646 107.004C626.248 108.278 627.27 108.922 628.712 108.922C630.07 108.922 630.924 108.292 630.924 107.186C630.924 106.108 630.084 105.562 628.404 105.562H627.312V104.4H628.18C629.706 104.4 630.7 103.714 630.7 102.776C630.7 101.81 629.902 101.264 628.628 101.264C627.13 101.264 626.22 102.034 625.828 103.056Z" fill="#1A3341"/>
<path d="M605 121.667C605 120.746 605.746 120 606.667 120H638.333C639.254 120 640 120.746 640 121.667V203H605V121.667Z" fill="url(#paint19_linear_7006_29061)"/>
<path opacity="0.2" d="M615 120H630V203H615V120Z" fill="url(#paint20_linear_7006_29061)"/>
<path opacity="0.04" d="M630 120H638.333C639.254 120 640 120.746 640 121.667V203H630V120Z" fill="#0D262C"/>
<path opacity="0.5" d="M605 121.667C605 120.746 605.746 120 606.667 120H615V203H605V121.667Z" fill="url(#paint21_linear_7006_29061)"/>
<path d="M702.839 73.804L702.391 72.754L705.751 71.144H706.549V81H705.345V72.642L702.839 73.804ZM708.222 73.804L707.774 72.754L711.134 71.144H711.932V81H710.728V72.642L708.222 73.804ZM713.816 80.202C713.816 79.81 714.18 79.418 714.684 79.418C715.146 79.418 715.524 79.81 715.524 80.202C715.524 80.65 715.174 81.028 714.684 81.028C714.18 81.028 713.816 80.65 713.816 80.202ZM717.801 74.434L716.779 74.07C717.129 72.334 718.445 71.088 720.531 71.088C722.547 71.088 723.779 72.25 723.779 74.028C723.779 74.966 723.373 75.904 722.869 76.576C722.617 76.926 722.295 77.262 721.917 77.612C721.147 78.298 720.601 78.662 719.803 79.166L718.725 79.838H724.143V81H716.513V80.048L718.641 78.634C719.019 78.396 719.285 78.214 719.439 78.102C719.593 78.004 719.845 77.822 720.181 77.584C720.517 77.346 720.769 77.136 720.937 76.982C721.091 76.828 721.301 76.632 721.539 76.38C722.183 75.68 722.421 75.036 722.491 74.154C722.491 72.88 721.665 72.306 720.447 72.306C719.691 72.306 719.089 72.516 718.655 72.936C718.221 73.356 717.927 73.86 717.801 74.434Z" fill="#1A3341"/>
<path d="M696 92.6667C696 91.7462 696.746 91 697.667 91H729.333C730.254 91 731 91.7462 731 92.6667V203H696V92.6667Z" fill="url(#paint22_linear_7006_29061)"/>
<path opacity="0.2" d="M706 91H721V203H706V91Z" fill="url(#paint23_linear_7006_29061)"/>
<path opacity="0.04" d="M721 91H729.333C730.254 91 731 91.7462 731 92.6667V203H721V91Z" fill="#0D262C"/>
<path opacity="0.5" d="M696 92.6667C696 91.7462 696.746 91 697.667 91H706V203H696V92.6667Z" fill="url(#paint24_linear_7006_29061)"/>
<path d="M792.314 63.804L791.866 62.754L795.226 61.144H796.024V71H794.82V62.642L792.314 63.804ZM798.93 64.434L797.908 64.07C798.258 62.334 799.574 61.088 801.66 61.088C803.676 61.088 804.908 62.25 804.908 64.028C804.908 64.966 804.502 65.904 803.998 66.576C803.746 66.926 803.424 67.262 803.046 67.612C802.276 68.298 801.73 68.662 800.932 69.166L799.854 69.838H805.272V71H797.642V70.048L799.77 68.634C800.148 68.396 800.414 68.214 800.568 68.102C800.722 68.004 800.974 67.822 801.31 67.584C801.646 67.346 801.898 67.136 802.066 66.982C802.22 66.828 802.43 66.632 802.668 66.38C803.312 65.68 803.55 65.036 803.62 64.154C803.62 62.88 802.794 62.306 801.576 62.306C800.82 62.306 800.218 62.516 799.784 62.936C799.35 63.356 799.056 63.86 798.93 64.434ZM806.34 70.202C806.34 69.81 806.704 69.418 807.208 69.418C807.67 69.418 808.048 69.81 808.048 70.202C808.048 70.65 807.698 71.028 807.208 71.028C806.704 71.028 806.34 70.65 806.34 70.202ZM810.325 64.434L809.303 64.07C809.653 62.334 810.969 61.088 813.055 61.088C815.071 61.088 816.303 62.25 816.303 64.028C816.303 64.966 815.897 65.904 815.393 66.576C815.141 66.926 814.819 67.262 814.441 67.612C813.671 68.298 813.125 68.662 812.327 69.166L811.249 69.838H816.667V71H809.037V70.048L811.165 68.634C811.543 68.396 811.809 68.214 811.963 68.102C812.117 68.004 812.369 67.822 812.705 67.584C813.041 67.346 813.293 67.136 813.461 66.982C813.615 66.828 813.825 66.632 814.063 66.38C814.707 65.68 814.945 65.036 815.015 64.154C815.015 62.88 814.189 62.306 812.971 62.306C812.215 62.306 811.613 62.516 811.179 62.936C810.745 63.356 810.451 63.86 810.325 64.434Z" fill="#1A3341"/>
<path d="M787 82.6667C787 81.7462 787.746 81 788.667 81H820.333C821.254 81 822 81.7462 822 82.6667V203H787V82.6667Z" fill="url(#paint25_linear_7006_29061)"/>
<path opacity="0.2" d="M797 81H812V203H797V81Z" fill="url(#paint26_linear_7006_29061)"/>
<path opacity="0.04" d="M812 81H820.333C821.254 81 822 81.7462 822 82.6667V203H812V81Z" fill="#0D262C"/>
<path opacity="0.5" d="M787 82.6667C787 81.7462 787.746 81 788.667 81H797V203H787V82.6667Z" fill="url(#paint27_linear_7006_29061)"/>
<path d="M882.781 31.804L882.333 30.754L885.693 29.144H886.491V39H885.287V30.642L882.781 31.804ZM889.704 34.492L888.696 34.226L889.27 29.2H895.43V30.39H890.348L889.984 33.022C890.474 32.658 891.216 32.476 892.21 32.476C893.358 32.476 894.254 32.784 894.912 33.386C895.556 34.002 895.878 34.786 895.878 35.752C895.878 36.718 895.514 37.53 894.8 38.16C894.072 38.804 893.162 39.126 892.084 39.126C890.25 39.126 888.724 38.258 888.094 36.732L889.214 36.256C889.62 37.194 890.67 37.936 892.084 37.936C893.694 37.936 894.59 37.012 894.59 35.794C894.59 34.492 893.54 33.652 891.874 33.652C890.978 33.652 890.25 33.932 889.704 34.492ZM897.039 38.202C897.039 37.81 897.403 37.418 897.907 37.418C898.369 37.418 898.747 37.81 898.747 38.202C898.747 38.65 898.397 39.028 897.907 39.028C897.403 39.028 897.039 38.65 897.039 38.202ZM906.667 39H905.449V36.998H899.457V36.186L905.589 29.2H906.667V35.864H908.487V36.998H906.667V39ZM905.449 31.16L901.137 35.864H905.449V31.16Z" fill="#1A3341"/>
<path d="M878 50.6667C878 49.7462 878.746 49 879.667 49H911.333C912.254 49 913 49.7462 913 50.6667V203H878V50.6667Z" fill="url(#paint28_linear_7006_29061)"/>
<path opacity="0.2" d="M888 49H903V203H888V49Z" fill="url(#paint29_linear_7006_29061)"/>
<path opacity="0.04" d="M903 49H911.333C912.254 49 913 49.7462 913 50.6667V203H903V49Z" fill="#0D262C"/>
<path opacity="0.5" d="M878 50.6667C878 49.7462 878.746 49 879.667 49H888V203H878V50.6667Z" fill="url(#paint30_linear_7006_29061)"/>
<path d="M973.863 51.804L973.415 50.754L976.775 49.144H977.573V59H976.369V50.642L973.863 51.804ZM980.325 52.056L979.275 51.58C979.793 50.068 981.151 49.074 983.181 49.074C984.147 49.074 984.945 49.298 985.561 49.746C986.177 50.194 986.485 50.796 986.485 51.538C986.485 52.672 985.883 53.512 984.763 53.834C985.841 53.904 986.709 54.716 986.709 56.172C986.709 57.096 986.373 57.824 985.701 58.342C985.029 58.86 984.175 59.126 983.125 59.126C980.983 59.126 979.499 58.104 979.009 56.494L980.143 56.004C980.745 57.278 981.767 57.922 983.209 57.922C984.567 57.922 985.421 57.292 985.421 56.186C985.421 55.108 984.581 54.562 982.901 54.562H981.809V53.4H982.677C984.203 53.4 985.197 52.714 985.197 51.776C985.197 50.81 984.399 50.264 983.125 50.264C981.627 50.264 980.717 51.034 980.325 52.056ZM987.957 58.202C987.957 57.81 988.321 57.418 988.825 57.418C989.287 57.418 989.665 57.81 989.665 58.202C989.665 58.65 989.315 59.028 988.825 59.028C988.321 59.028 987.957 58.65 987.957 58.202ZM997.585 59H996.367V56.998H990.375V56.186L996.507 49.2H997.585V55.864H999.405V56.998H997.585V59ZM996.367 51.16L992.055 55.864H996.367V51.16Z" fill="#1A3341"/>
<path d="M969 70.6667C969 69.7462 969.746 69 970.667 69H1002.33C1003.25 69 1004 69.7462 1004 70.6667V203H969V70.6667Z" fill="url(#paint31_linear_7006_29061)"/>
<path opacity="0.2" d="M979 69H994V203H979V69Z" fill="url(#paint32_linear_7006_29061)"/>
<path opacity="0.04" d="M994 69H1002.33C1003.25 69 1004 69.7462 1004 70.6667V203H994V69Z" fill="#0D262C"/>
<path opacity="0.5" d="M969 70.6667C969 69.7462 969.746 69 970.667 69H979V203H969V70.6667Z" fill="url(#paint33_linear_7006_29061)"/>
<path d="M1067.13 68.804L1066.68 67.754L1070.04 66.144H1070.84V76H1069.63V67.642L1067.13 68.804ZM1072.51 68.804L1072.06 67.754L1075.42 66.144H1076.22V76H1075.02V67.642L1072.51 68.804ZM1078.1 75.202C1078.1 74.81 1078.47 74.418 1078.97 74.418C1079.43 74.418 1079.81 74.81 1079.81 75.202C1079.81 75.65 1079.46 76.028 1078.97 76.028C1078.47 76.028 1078.1 75.65 1078.1 75.202ZM1086.58 67.39H1080.65V66.2H1088.08V66.998L1083.21 76H1081.88L1086.58 67.39Z" fill="#1A3341"/>
<path d="M1060 87.6667C1060 86.7462 1060.75 86 1061.67 86H1093.33C1094.25 86 1095 86.7462 1095 87.6667V203H1060V87.6667Z" fill="url(#paint34_linear_7006_29061)"/>
<path opacity="0.2" d="M1070 86H1085V203H1070V86Z" fill="url(#paint35_linear_7006_29061)"/>
<path opacity="0.04" d="M1085 86H1093.33C1094.25 86 1095 86.7462 1095 87.6667V203H1085V86Z" fill="#0D262C"/>
<path opacity="0.5" d="M1060 87.6667C1060 86.7462 1060.75 86 1061.67 86H1070V203H1060V87.6667Z" fill="url(#paint36_linear_7006_29061)"/>
<path d="M48.1307 339.8C48.1307 338.504 48.4307 337.46 49.0427 336.68C49.6427 335.9 50.5307 335.504 51.6947 335.504C54.0827 335.504 55.2707 337.076 55.2707 339.8C55.2707 341.108 54.9707 342.14 54.3827 342.92C53.7827 343.7 52.8947 344.096 51.7187 344.096C50.5907 344.096 49.7147 343.7 49.0787 342.908C48.4427 342.116 48.1307 341.084 48.1307 339.8ZM49.2347 339.8C49.2347 341.852 50.1707 343.076 51.7187 343.076C53.3507 343.076 54.1667 341.984 54.1667 339.8C54.1667 337.616 53.3387 336.524 51.6947 336.524C50.0267 336.524 49.2347 337.724 49.2347 339.8ZM56.0709 337.832L55.6869 336.932L58.5669 335.552H59.2509V344H58.2189V336.836L56.0709 337.832ZM40.5271 352.372L39.6511 352.06C39.9511 350.572 41.0791 349.504 42.8671 349.504C44.5951 349.504 45.6511 350.5 45.6511 352.024C45.6511 352.828 45.3031 353.632 44.8711 354.208C44.6551 354.508 44.3791 354.796 44.0551 355.096C43.3951 355.684 42.9271 355.996 42.2431 356.428L41.3191 357.004H45.9631V358H39.4231V357.184L41.2471 355.972C41.5711 355.768 41.7991 355.612 41.9311 355.516C42.0631 355.432 42.2791 355.276 42.5671 355.072C42.8551 354.868 43.0711 354.688 43.2151 354.556C43.3471 354.424 43.5271 354.256 43.7311 354.04C44.2831 353.44 44.4871 352.888 44.5471 352.132C44.5471 351.04 43.8391 350.548 42.7951 350.548C42.1471 350.548 41.6311 350.728 41.2591 351.088C40.8871 351.448 40.6351 351.88 40.5271 352.372ZM46.7948 353.8C46.7948 352.504 47.0948 351.46 47.7068 350.68C48.3068 349.9 49.1948 349.504 50.3588 349.504C52.7468 349.504 53.9348 351.076 53.9348 353.8C53.9348 355.108 53.6348 356.14 53.0468 356.92C52.4468 357.7 51.5588 358.096 50.3828 358.096C49.2548 358.096 48.3788 357.7 47.7428 356.908C47.1068 356.116 46.7948 355.084 46.7948 353.8ZM47.8988 353.8C47.8988 355.852 48.8348 357.076 50.3828 357.076C52.0148 357.076 52.8308 355.984 52.8308 353.8C52.8308 351.616 52.0028 350.524 50.3588 350.524C48.6908 350.524 47.8988 351.724 47.8988 353.8ZM55.791 352.372L54.915 352.06C55.215 350.572 56.343 349.504 58.131 349.504C59.859 349.504 60.915 350.5 60.915 352.024C60.915 352.828 60.567 353.632 60.135 354.208C59.919 354.508 59.643 354.796 59.319 355.096C58.659 355.684 58.191 355.996 57.507 356.428L56.583 357.004H61.227V358H54.687V357.184L56.511 355.972C56.835 355.768 57.063 355.612 57.195 355.516C57.327 355.432 57.543 355.276 57.831 355.072C58.119 354.868 58.335 354.688 58.479 354.556C58.611 354.424 58.791 354.256 58.995 354.04C59.547 353.44 59.751 352.888 59.811 352.132C59.811 351.04 59.103 350.548 58.059 350.548C57.411 350.548 56.895 350.728 56.523 351.088C56.151 351.448 55.899 351.88 55.791 352.372ZM62.8867 352.048L61.9867 351.64C62.4307 350.344 63.5947 349.492 65.3347 349.492C66.1627 349.492 66.8467 349.684 67.3747 350.068C67.9027 350.452 68.1667 350.968 68.1667 351.604C68.1667 352.576 67.6507 353.296 66.6907 353.572C67.6147 353.632 68.3587 354.328 68.3587 355.576C68.3587 356.368 68.0707 356.992 67.4947 357.436C66.9187 357.88 66.1867 358.108 65.2867 358.108C63.4507 358.108 62.1787 357.232 61.7587 355.852L62.7307 355.432C63.2467 356.524 64.1227 357.076 65.3587 357.076C66.5227 357.076 67.2547 356.536 67.2547 355.588C67.2547 354.664 66.5347 354.196 65.0947 354.196H64.1587V353.2H64.9027C66.2107 353.2 67.0627 352.612 67.0627 351.808C67.0627 350.98 66.3787 350.512 65.2867 350.512C64.0027 350.512 63.2227 351.172 62.8867 352.048Z" fill="#76848D"/>
<path d="M137.824 339.8C137.824 338.504 138.124 337.46 138.736 336.68C139.336 335.9 140.224 335.504 141.388 335.504C143.776 335.504 144.964 337.076 144.964 339.8C144.964 341.108 144.664 342.14 144.076 342.92C143.476 343.7 142.588 344.096 141.412 344.096C140.284 344.096 139.408 343.7 138.772 342.908C138.136 342.116 137.824 341.084 137.824 339.8ZM138.928 339.8C138.928 341.852 139.864 343.076 141.412 343.076C143.044 343.076 143.86 341.984 143.86 339.8C143.86 337.616 143.032 336.524 141.388 336.524C139.72 336.524 138.928 337.724 138.928 339.8ZM146.82 338.372L145.944 338.06C146.244 336.572 147.372 335.504 149.16 335.504C150.888 335.504 151.944 336.5 151.944 338.024C151.944 338.828 151.596 339.632 151.164 340.208C150.948 340.508 150.672 340.796 150.348 341.096C149.688 341.684 149.22 341.996 148.536 342.428L147.612 343.004H152.256V344H145.716V343.184L147.54 341.972C147.864 341.768 148.092 341.612 148.224 341.516C148.356 341.432 148.572 341.276 148.86 341.072C149.148 340.868 149.364 340.688 149.508 340.556C149.64 340.424 149.82 340.256 150.024 340.04C150.576 339.44 150.78 338.888 150.84 338.132C150.84 337.04 150.132 336.548 149.088 336.548C148.44 336.548 147.924 336.728 147.552 337.088C147.18 337.448 146.928 337.88 146.82 338.372Z" fill="#76848D"/>
<path d="M228.795 339.8C228.795 338.504 229.095 337.46 229.707 336.68C230.307 335.9 231.195 335.504 232.359 335.504C234.747 335.504 235.935 337.076 235.935 339.8C235.935 341.108 235.635 342.14 235.047 342.92C234.447 343.7 233.559 344.096 232.383 344.096C231.255 344.096 230.379 343.7 229.743 342.908C229.107 342.116 228.795 341.084 228.795 339.8ZM229.899 339.8C229.899 341.852 230.835 343.076 232.383 343.076C234.015 343.076 234.831 341.984 234.831 339.8C234.831 337.616 234.003 336.524 232.359 336.524C230.691 336.524 229.899 337.724 229.899 339.8ZM237.659 338.048L236.759 337.64C237.203 336.344 238.367 335.492 240.107 335.492C240.935 335.492 241.619 335.684 242.147 336.068C242.675 336.452 242.939 336.968 242.939 337.604C242.939 338.576 242.423 339.296 241.463 339.572C242.387 339.632 243.131 340.328 243.131 341.576C243.131 342.368 242.843 342.992 242.267 343.436C241.691 343.88 240.959 344.108 240.059 344.108C238.223 344.108 236.951 343.232 236.531 341.852L237.503 341.432C238.019 342.524 238.895 343.076 240.131 343.076C241.295 343.076 242.027 342.536 242.027 341.588C242.027 340.664 241.307 340.196 239.867 340.196H238.931V339.2H239.675C240.983 339.2 241.835 338.612 241.835 337.808C241.835 336.98 241.151 336.512 240.059 336.512C238.775 336.512 237.995 337.172 237.659 338.048Z" fill="#76848D"/>
<path d="M319.467 339.8C319.467 338.504 319.767 337.46 320.379 336.68C320.979 335.9 321.867 335.504 323.031 335.504C325.419 335.504 326.607 337.076 326.607 339.8C326.607 341.108 326.307 342.14 325.719 342.92C325.119 343.7 324.231 344.096 323.055 344.096C321.927 344.096 321.051 343.7 320.415 342.908C319.779 342.116 319.467 341.084 319.467 339.8ZM320.571 339.8C320.571 341.852 321.507 343.076 323.055 343.076C324.687 343.076 325.503 341.984 325.503 339.8C325.503 337.616 324.675 336.524 323.031 336.524C321.363 336.524 320.571 337.724 320.571 339.8ZM333.299 344H332.255V342.284H327.119V341.588L332.375 335.6H333.299V341.312H334.859V342.284H333.299V344ZM332.255 337.28L328.559 341.312H332.255V337.28Z" fill="#76848D"/>
<path d="M410.724 339.8C410.724 338.504 411.024 337.46 411.636 336.68C412.236 335.9 413.124 335.504 414.288 335.504C416.676 335.504 417.864 337.076 417.864 339.8C417.864 341.108 417.564 342.14 416.976 342.92C416.376 343.7 415.488 344.096 414.312 344.096C413.184 344.096 412.308 343.7 411.672 342.908C411.036 342.116 410.724 341.084 410.724 339.8ZM411.828 339.8C411.828 341.852 412.764 343.076 414.312 343.076C415.944 343.076 416.76 341.984 416.76 339.8C416.76 337.616 415.932 336.524 414.288 336.524C412.62 336.524 411.828 337.724 411.828 339.8ZM419.985 340.136L419.121 339.908L419.613 335.6H424.893V336.62H420.537L420.225 338.876C420.645 338.564 421.281 338.408 422.133 338.408C423.117 338.408 423.885 338.672 424.449 339.188C425.001 339.716 425.277 340.388 425.277 341.216C425.277 342.044 424.965 342.74 424.353 343.28C423.729 343.832 422.949 344.108 422.025 344.108C420.453 344.108 419.145 343.364 418.605 342.056L419.565 341.648C419.913 342.452 420.813 343.088 422.025 343.088C423.405 343.088 424.173 342.296 424.173 341.252C424.173 340.136 423.273 339.416 421.845 339.416C421.077 339.416 420.453 339.656 419.985 340.136Z" fill="#76848D"/>
<path d="M501.508 339.8C501.508 338.504 501.808 337.46 502.42 336.68C503.02 335.9 503.908 335.504 505.072 335.504C507.46 335.504 508.648 337.076 508.648 339.8C508.648 341.108 508.348 342.14 507.76 342.92C507.16 343.7 506.272 344.096 505.096 344.096C503.968 344.096 503.092 343.7 502.456 342.908C501.82 342.116 501.508 341.084 501.508 339.8ZM502.612 339.8C502.612 341.852 503.548 343.076 505.096 343.076C506.728 343.076 507.544 341.984 507.544 339.8C507.544 337.616 506.716 336.524 505.072 336.524C503.404 336.524 502.612 337.724 502.612 339.8ZM509.544 340.028C509.544 338.576 509.904 337.46 510.612 336.668C511.32 335.888 512.208 335.492 513.276 335.492C514.68 335.492 515.784 336.128 516.252 337.136L515.436 337.688C514.944 336.908 514.212 336.524 513.228 336.524C512.484 336.524 511.86 336.812 511.356 337.388C510.852 337.976 510.6 338.768 510.612 339.788C511.08 338.912 512.172 338.384 513.372 338.384C514.344 338.384 515.124 338.636 515.688 339.152C516.252 339.668 516.54 340.352 516.54 341.192C516.54 342.044 516.228 342.752 515.592 343.292C514.956 343.832 514.164 344.108 513.216 344.108C510.948 344.108 509.544 342.632 509.544 340.028ZM510.744 341.048C510.972 342.236 511.872 343.076 513.204 343.076C513.852 343.076 514.392 342.908 514.812 342.56C515.232 342.224 515.436 341.78 515.436 341.24C515.436 340.052 514.596 339.416 513.312 339.416C512.604 339.416 512.016 339.584 511.56 339.92C511.092 340.256 510.828 340.628 510.744 341.048Z" fill="#76848D"/>
<path d="M593.07 339.8C593.07 338.504 593.37 337.46 593.982 336.68C594.582 335.9 595.47 335.504 596.634 335.504C599.022 335.504 600.21 337.076 600.21 339.8C600.21 341.108 599.91 342.14 599.322 342.92C598.722 343.7 597.834 344.096 596.658 344.096C595.53 344.096 594.654 343.7 594.018 342.908C593.382 342.116 593.07 341.084 593.07 339.8ZM594.174 339.8C594.174 341.852 595.11 343.076 596.658 343.076C598.29 343.076 599.106 341.984 599.106 339.8C599.106 337.616 598.278 336.524 596.634 336.524C594.966 336.524 594.174 337.724 594.174 339.8ZM605.918 336.62H600.83V335.6H607.202V336.284L603.026 344H601.886L605.918 336.62Z" fill="#76848D"/>
<path d="M683.496 339.8C683.496 338.504 683.796 337.46 684.408 336.68C685.008 335.9 685.896 335.504 687.06 335.504C689.448 335.504 690.636 337.076 690.636 339.8C690.636 341.108 690.336 342.14 689.748 342.92C689.148 343.7 688.26 344.096 687.084 344.096C685.956 344.096 685.08 343.7 684.444 342.908C683.808 342.116 683.496 341.084 683.496 339.8ZM684.6 339.8C684.6 341.852 685.536 343.076 687.084 343.076C688.716 343.076 689.532 341.984 689.532 339.8C689.532 337.616 688.704 336.524 687.06 336.524C685.392 336.524 684.6 337.724 684.6 339.8ZM694.844 339.212H695.216C695.756 339.212 696.2 339.08 696.572 338.828C696.932 338.576 697.112 338.24 697.112 337.844C697.112 336.944 696.404 336.488 695 336.488C693.656 336.488 692.924 336.98 692.924 337.844C692.924 338.624 693.728 339.212 694.844 339.212ZM695.192 340.16H694.892C694.244 340.16 693.704 340.304 693.284 340.58C692.864 340.856 692.648 341.204 692.648 341.624C692.648 342.536 693.488 343.112 695.012 343.112C696.56 343.112 697.388 342.56 697.388 341.636C697.388 340.712 696.5 340.16 695.192 340.16ZM697.556 343.46C696.944 343.892 696.092 344.108 695.024 344.108C693.956 344.108 693.104 343.892 692.48 343.472C691.856 343.052 691.544 342.476 691.544 341.732C691.544 340.76 692.18 339.992 693.2 339.656C692.276 339.356 691.82 338.624 691.82 337.772C691.82 336.38 692.996 335.492 695.012 335.492C697.04 335.492 698.216 336.38 698.216 337.772C698.216 338.576 697.772 339.188 696.884 339.596C697.952 339.92 698.48 340.616 698.48 341.684C698.48 342.44 698.168 343.04 697.556 343.46Z" fill="#76848D"/>
<path d="M774.496 339.8C774.496 338.504 774.796 337.46 775.408 336.68C776.008 335.9 776.896 335.504 778.06 335.504C780.448 335.504 781.636 337.076 781.636 339.8C781.636 341.108 781.336 342.14 780.748 342.92C780.148 343.7 779.26 344.096 778.084 344.096C776.956 344.096 776.08 343.7 775.444 342.908C774.808 342.116 774.496 341.084 774.496 339.8ZM775.6 339.8C775.6 341.852 776.536 343.076 778.084 343.076C779.716 343.076 780.532 341.984 780.532 339.8C780.532 337.616 779.704 336.524 778.06 336.524C776.392 336.524 775.6 337.724 775.6 339.8ZM789.516 339.644C789.516 341.072 789.18 342.176 788.496 342.944C787.812 343.724 786.9 344.108 785.76 344.108C784.368 344.108 783.276 343.52 782.736 342.62L783.6 342.02C784.08 342.692 784.956 343.076 785.904 343.076C786.684 343.076 787.308 342.764 787.8 342.14C788.292 341.528 788.496 340.76 788.436 339.848C788.04 340.76 787.044 341.432 785.712 341.432C784.776 341.432 784.008 341.168 783.408 340.628C782.796 340.1 782.496 339.404 782.496 338.552C782.496 337.616 782.82 336.872 783.468 336.32C784.116 335.768 784.98 335.492 786.048 335.492C788.208 335.492 789.516 337.004 789.516 339.644ZM788.256 338.516C788.076 337.4 787.308 336.524 785.928 336.524C784.488 336.524 783.6 337.268 783.6 338.516C783.6 339.704 784.5 340.4 785.904 340.4C786.54 340.4 787.08 340.208 787.5 339.824C787.92 339.44 788.172 339.008 788.256 338.516Z" fill="#76848D"/>
<path d="M867.035 337.832L866.651 336.932L869.531 335.552H870.215V344H869.183V336.836L867.035 337.832ZM871.745 339.8C871.745 338.504 872.045 337.46 872.657 336.68C873.257 335.9 874.145 335.504 875.309 335.504C877.697 335.504 878.885 337.076 878.885 339.8C878.885 341.108 878.585 342.14 877.997 342.92C877.397 343.7 876.509 344.096 875.333 344.096C874.205 344.096 873.329 343.7 872.693 342.908C872.057 342.116 871.745 341.084 871.745 339.8ZM872.849 339.8C872.849 341.852 873.785 343.076 875.333 343.076C876.965 343.076 877.781 341.984 877.781 339.8C877.781 337.616 876.953 336.524 875.309 336.524C873.641 336.524 872.849 337.724 872.849 339.8Z" fill="#76848D"/>
<path d="M959.746 337.832L959.362 336.932L962.242 335.552H962.926V344H961.894V336.836L959.746 337.832ZM964.36 337.832L963.976 336.932L966.856 335.552H967.54V344H966.508V336.836L964.36 337.832Z" fill="#76848D"/>
<path d="M1049.44 337.832L1049.05 336.932L1051.93 335.552H1052.62V344H1051.59V336.836L1049.44 337.832ZM1055.11 338.372L1054.23 338.06C1054.53 336.572 1055.66 335.504 1057.45 335.504C1059.18 335.504 1060.23 336.5 1060.23 338.024C1060.23 338.828 1059.89 339.632 1059.45 340.208C1059.24 340.508 1058.96 340.796 1058.64 341.096C1057.98 341.684 1057.51 341.996 1056.83 342.428L1055.9 343.004H1060.55V344H1054.01V343.184L1055.83 341.972C1056.15 341.768 1056.38 341.612 1056.51 341.516C1056.65 341.432 1056.86 341.276 1057.15 341.072C1057.44 340.868 1057.65 340.688 1057.8 340.556C1057.93 340.424 1058.11 340.256 1058.31 340.04C1058.87 339.44 1059.07 338.888 1059.13 338.132C1059.13 337.04 1058.42 336.548 1057.38 336.548C1056.73 336.548 1056.21 336.728 1055.84 337.088C1055.47 337.448 1055.22 337.88 1055.11 338.372Z" fill="#76848D"/>
<path d="M25.4275 292.492H18.9315V291.442H25.4275V292.492ZM32.2899 288.39H26.3539V287.2H33.7879V287.998L28.9159 297H27.5859L32.2899 288.39ZM33.7843 296.202C33.7843 295.81 34.1483 295.418 34.6523 295.418C35.1143 295.418 35.4923 295.81 35.4923 296.202C35.4923 296.65 35.1423 297.028 34.6523 297.028C34.1483 297.028 33.7843 296.65 33.7843 296.202ZM38.0778 292.492L37.0698 292.226L37.6438 287.2H43.8038V288.39H38.7218L38.3578 291.022C38.8478 290.658 39.5898 290.476 40.5838 290.476C41.7318 290.476 42.6278 290.784 43.2858 291.386C43.9298 292.002 44.2518 292.786 44.2518 293.752C44.2518 294.718 43.8878 295.53 43.1738 296.16C42.4458 296.804 41.5358 297.126 40.4578 297.126C38.6238 297.126 37.0978 296.258 36.4678 294.732L37.5878 294.256C37.9938 295.194 39.0438 295.936 40.4578 295.936C42.0678 295.936 42.9638 295.012 42.9638 293.794C42.9638 292.492 41.9138 291.652 40.2478 291.652C39.3518 291.652 38.6238 291.932 38.0778 292.492Z" fill="#1A3341"/>
<path d="M14 276.333C14 277.254 14.7462 278 15.6667 278H47.3333C48.2538 278 49 277.254 49 276.333V203H14V276.333Z" fill="url(#paint37_linear_7006_29061)"/>
<path opacity="0.2" d="M24 278H39V203H24V278Z" fill="url(#paint38_linear_7006_29061)"/>
<path opacity="0.04" d="M39 278H47.3333C48.2538 278 49 277.254 49 276.333V203H39V278Z" fill="#0D262C"/>
<path opacity="0.5" d="M14 276.333C14 277.254 14.7462 278 15.6667 278H24V203H14V276.333Z" fill="url(#paint39_linear_7006_29061)"/>
<path d="M115.737 304.492H109.241V303.442H115.737V304.492ZM120.849 303.414H121.283C121.913 303.414 122.431 303.26 122.865 302.966C123.285 302.672 123.495 302.28 123.495 301.818C123.495 300.768 122.669 300.236 121.031 300.236C119.463 300.236 118.609 300.81 118.609 301.818C118.609 302.728 119.547 303.414 120.849 303.414ZM121.255 304.52H120.905C120.149 304.52 119.519 304.688 119.029 305.01C118.539 305.332 118.287 305.738 118.287 306.228C118.287 307.292 119.267 307.964 121.045 307.964C122.851 307.964 123.817 307.32 123.817 306.242C123.817 305.164 122.781 304.52 121.255 304.52ZM124.013 308.37C123.299 308.874 122.305 309.126 121.059 309.126C119.813 309.126 118.819 308.874 118.091 308.384C117.363 307.894 116.999 307.222 116.999 306.354C116.999 305.22 117.741 304.324 118.931 303.932C117.853 303.582 117.321 302.728 117.321 301.734C117.321 300.11 118.693 299.074 121.045 299.074C123.411 299.074 124.783 300.11 124.783 301.734C124.783 302.672 124.265 303.386 123.229 303.862C124.475 304.24 125.091 305.052 125.091 306.298C125.091 307.18 124.727 307.88 124.013 308.37ZM126.281 308.202C126.281 307.81 126.645 307.418 127.149 307.418C127.611 307.418 127.989 307.81 127.989 308.202C127.989 308.65 127.639 309.028 127.149 309.028C126.645 309.028 126.281 308.65 126.281 308.202ZM134.761 300.39H128.825V299.2H136.259V299.998L131.387 309H130.057L134.761 300.39Z" fill="#1A3341"/>
<path d="M105 288.333C105 289.254 105.746 290 106.667 290H138.333C139.254 290 140 289.254 140 288.333V203H105V288.333Z" fill="url(#paint40_linear_7006_29061)"/>
<path opacity="0.2" d="M115 290H130V203H115V290Z" fill="url(#paint41_linear_7006_29061)"/>
<path opacity="0.04" d="M130 290H138.333C139.254 290 140 289.254 140 288.333V203H130V290Z" fill="#0D262C"/>
<path opacity="0.5" d="M105 288.333C105 289.254 105.746 290 106.667 290H115V203H105V288.333Z" fill="url(#paint42_linear_7006_29061)"/>
<path d="M206.033 265.492H199.537V264.442H206.033V265.492ZM214.043 270H212.825V267.998H206.833V267.186L212.965 260.2H214.043V266.864H215.863V267.998H214.043V270ZM212.825 262.16L208.513 266.864H212.825V262.16ZM216.646 269.202C216.646 268.81 217.01 268.418 217.514 268.418C217.976 268.418 218.354 268.81 218.354 269.202C218.354 269.65 218.004 270.028 217.514 270.028C217.01 270.028 216.646 269.65 216.646 269.202ZM223.375 264.414H223.809C224.439 264.414 224.957 264.26 225.391 263.966C225.811 263.672 226.021 263.28 226.021 262.818C226.021 261.768 225.195 261.236 223.557 261.236C221.989 261.236 221.135 261.81 221.135 262.818C221.135 263.728 222.073 264.414 223.375 264.414ZM223.781 265.52H223.431C222.675 265.52 222.045 265.688 221.555 266.01C221.065 266.332 220.813 266.738 220.813 267.228C220.813 268.292 221.793 268.964 223.571 268.964C225.377 268.964 226.343 268.32 226.343 267.242C226.343 266.164 225.307 265.52 223.781 265.52ZM226.539 269.37C225.825 269.874 224.831 270.126 223.585 270.126C222.339 270.126 221.345 269.874 220.617 269.384C219.889 268.894 219.525 268.222 219.525 267.354C219.525 266.22 220.267 265.324 221.457 264.932C220.379 264.582 219.847 263.728 219.847 262.734C219.847 261.11 221.219 260.074 223.571 260.074C225.937 260.074 227.309 261.11 227.309 262.734C227.309 263.672 226.791 264.386 225.755 264.862C227.001 265.24 227.617 266.052 227.617 267.298C227.617 268.18 227.253 268.88 226.539 269.37Z" fill="#1A3341"/>
<path d="M196 249.333C196 250.254 196.746 251 197.667 251H229.333C230.254 251 231 250.254 231 249.333V203H196V249.333Z" fill="url(#paint43_linear_7006_29061)"/>
<path opacity="0.2" d="M206 251H221V203H206V251Z" fill="url(#paint44_linear_7006_29061)"/>
<path opacity="0.04" d="M221 251H229.333C230.254 251 231 250.254 231 249.333V203H221V251Z" fill="#0D262C"/>
<path opacity="0.5" d="M196 249.333C196 250.254 196.746 251 197.667 251H206V203H196V249.333Z" fill="url(#paint45_linear_7006_29061)"/>
<path d="M298.599 105.414H299.033C299.663 105.414 300.181 105.26 300.615 104.966C301.035 104.672 301.245 104.28 301.245 103.818C301.245 102.768 300.419 102.236 298.781 102.236C297.213 102.236 296.359 102.81 296.359 103.818C296.359 104.728 297.297 105.414 298.599 105.414ZM299.005 106.52H298.655C297.899 106.52 297.269 106.688 296.779 107.01C296.289 107.332 296.037 107.738 296.037 108.228C296.037 109.292 297.017 109.964 298.795 109.964C300.601 109.964 301.567 109.32 301.567 108.242C301.567 107.164 300.531 106.52 299.005 106.52ZM301.763 110.37C301.049 110.874 300.055 111.126 298.809 111.126C297.563 111.126 296.569 110.874 295.841 110.384C295.113 109.894 294.749 109.222 294.749 108.354C294.749 107.22 295.491 106.324 296.681 105.932C295.603 105.582 295.071 104.728 295.071 103.734C295.071 102.11 296.443 101.074 298.795 101.074C301.161 101.074 302.533 102.11 302.533 103.734C302.533 104.672 302.015 105.386 300.979 105.862C302.225 106.24 302.841 107.052 302.841 108.298C302.841 109.18 302.477 109.88 301.763 110.37ZM304.031 110.202C304.031 109.81 304.395 109.418 304.899 109.418C305.361 109.418 305.739 109.81 305.739 110.202C305.739 110.65 305.389 111.028 304.899 111.028C304.395 111.028 304.031 110.65 304.031 110.202ZM308.017 104.434L306.995 104.07C307.345 102.334 308.661 101.088 310.747 101.088C312.763 101.088 313.995 102.25 313.995 104.028C313.995 104.966 313.589 105.904 313.085 106.576C312.833 106.926 312.511 107.262 312.133 107.612C311.363 108.298 310.817 108.662 310.019 109.166L308.941 109.838H314.359V111H306.729V110.048L308.857 108.634C309.235 108.396 309.501 108.214 309.655 108.102C309.809 108.004 310.061 107.822 310.397 107.584C310.733 107.346 310.985 107.136 311.153 106.982C311.307 106.828 311.517 106.632 311.755 106.38C312.399 105.68 312.637 105.036 312.707 104.154C312.707 102.88 311.881 102.306 310.663 102.306C309.907 102.306 309.305 102.516 308.871 102.936C308.437 103.356 308.143 103.86 308.017 104.434Z" fill="#1A3341"/>
<path d="M287 122.667C287 121.746 287.746 121 288.667 121H320.333C321.254 121 322 121.746 322 122.667V203H287V122.667Z" fill="url(#paint46_linear_7006_29061)"/>
<path opacity="0.2" d="M297 121H312V203H297V121Z" fill="url(#paint47_linear_7006_29061)"/>
<path opacity="0.04" d="M312 121H320.333C321.254 121 322 121.746 322 122.667V203H312V121Z" fill="#0D262C"/>
<path opacity="0.5" d="M287 122.667C287 121.746 287.746 121 288.667 121H297V203H287V122.667Z" fill="url(#paint48_linear_7006_29061)"/>
<path d="M393.514 91.918C393.514 93.584 393.122 94.872 392.324 95.768C391.526 96.678 390.462 97.126 389.132 97.126C387.508 97.126 386.234 96.44 385.604 95.39L386.612 94.69C387.172 95.474 388.194 95.922 389.3 95.922C390.21 95.922 390.938 95.558 391.512 94.83C392.086 94.116 392.324 93.22 392.254 92.156C391.792 93.22 390.63 94.004 389.076 94.004C387.984 94.004 387.088 93.696 386.388 93.066C385.674 92.45 385.324 91.638 385.324 90.644C385.324 89.552 385.702 88.684 386.458 88.04C387.214 87.396 388.222 87.074 389.468 87.074C391.988 87.074 393.514 88.838 393.514 91.918ZM392.044 90.602C391.834 89.3 390.938 88.278 389.328 88.278C387.648 88.278 386.612 89.146 386.612 90.602C386.612 91.988 387.662 92.8 389.3 92.8C390.042 92.8 390.672 92.576 391.162 92.128C391.652 91.68 391.946 91.176 392.044 90.602ZM394.662 96.202C394.662 95.81 395.026 95.418 395.53 95.418C395.992 95.418 396.37 95.81 396.37 96.202C396.37 96.65 396.02 97.028 395.53 97.028C395.026 97.028 394.662 96.65 394.662 96.202ZM397.527 92.366C397.527 90.672 397.947 89.37 398.773 88.446C399.599 87.536 400.635 87.074 401.881 87.074C403.519 87.074 404.807 87.816 405.353 88.992L404.401 89.636C403.827 88.726 402.973 88.278 401.825 88.278C400.957 88.278 400.229 88.614 399.641 89.286C399.053 89.972 398.759 90.896 398.773 92.086C399.319 91.064 400.593 90.448 401.993 90.448C403.127 90.448 404.037 90.742 404.695 91.344C405.353 91.946 405.689 92.744 405.689 93.724C405.689 94.718 405.325 95.544 404.583 96.174C403.841 96.804 402.917 97.126 401.811 97.126C399.165 97.126 397.527 95.404 397.527 92.366ZM398.927 93.556C399.193 94.942 400.243 95.922 401.797 95.922C402.553 95.922 403.183 95.726 403.673 95.32C404.163 94.928 404.401 94.41 404.401 93.78C404.401 92.394 403.421 91.652 401.923 91.652C401.097 91.652 400.411 91.848 399.879 92.24C399.333 92.632 399.025 93.066 398.927 93.556Z" fill="#1A3341"/>
<path d="M378 108.667C378 107.746 378.746 107 379.667 107H411.333C412.254 107 413 107.746 413 108.667V203H378V108.667Z" fill="url(#paint49_linear_7006_29061)"/>
<path opacity="0.2" d="M388 107H403V203H388V107Z" fill="url(#paint50_linear_7006_29061)"/>
<path opacity="0.04" d="M403 107H411.333C412.254 107 413 107.746 413 108.667V203H403V107Z" fill="#0D262C"/>
<path opacity="0.5" d="M378 108.667C378 107.746 378.746 107 379.667 107H388V203H378V108.667Z" fill="url(#paint51_linear_7006_29061)"/>
<path d="M473.808 82.804L473.36 81.754L476.72 80.144H477.518V90H476.314V81.642L473.808 82.804ZM479.304 85.1C479.304 83.588 479.654 82.37 480.368 81.46C481.068 80.55 482.104 80.088 483.462 80.088C486.248 80.088 487.634 81.922 487.634 85.1C487.634 86.626 487.284 87.83 486.598 88.74C485.898 89.65 484.862 90.112 483.49 90.112C482.174 90.112 481.152 89.65 480.41 88.726C479.668 87.802 479.304 86.598 479.304 85.1ZM480.592 85.1C480.592 87.494 481.684 88.922 483.49 88.922C485.394 88.922 486.346 87.648 486.346 85.1C486.346 82.552 485.38 81.278 483.462 81.278C481.516 81.278 480.592 82.678 480.592 85.1ZM488.777 89.202C488.777 88.81 489.141 88.418 489.645 88.418C490.107 88.418 490.485 88.81 490.485 89.202C490.485 89.65 490.135 90.028 489.645 90.028C489.141 90.028 488.777 89.65 488.777 89.202ZM492.609 83.056L491.559 82.58C492.077 81.068 493.435 80.074 495.465 80.074C496.431 80.074 497.229 80.298 497.845 80.746C498.461 81.194 498.769 81.796 498.769 82.538C498.769 83.672 498.167 84.512 497.047 84.834C498.125 84.904 498.993 85.716 498.993 87.172C498.993 88.096 498.657 88.824 497.985 89.342C497.313 89.86 496.459 90.126 495.409 90.126C493.267 90.126 491.783 89.104 491.293 87.494L492.427 87.004C493.029 88.278 494.051 88.922 495.493 88.922C496.851 88.922 497.705 88.292 497.705 87.186C497.705 86.108 496.865 85.562 495.185 85.562H494.093V84.4H494.961C496.487 84.4 497.481 83.714 497.481 82.776C497.481 81.81 496.683 81.264 495.409 81.264C493.911 81.264 493.001 82.034 492.609 83.056Z" fill="#1A3341"/>
<path d="M469 101.667C469 100.746 469.746 100 470.667 100H502.333C503.254 100 504 100.746 504 101.667V203H469V101.667Z" fill="url(#paint52_linear_7006_29061)"/>
<path opacity="0.2" d="M479 100H494V203H479V100Z" fill="url(#paint53_linear_7006_29061)"/>
<path opacity="0.04" d="M494 100H502.333C503.254 100 504 100.746 504 101.667V203H494V100Z" fill="#0D262C"/>
<path opacity="0.5" d="M469 101.667C469 100.746 469.746 100 470.667 100H479V203H469V101.667Z" fill="url(#paint54_linear_7006_29061)"/>
<path d="M564.46 77.804L564.012 76.754L567.372 75.144H568.17V85H566.966V76.642L564.46 77.804ZM569.955 80.1C569.955 78.588 570.305 77.37 571.019 76.46C571.719 75.55 572.755 75.088 574.113 75.088C576.899 75.088 578.285 76.922 578.285 80.1C578.285 81.626 577.935 82.83 577.249 83.74C576.549 84.65 575.513 85.112 574.141 85.112C572.825 85.112 571.803 84.65 571.061 83.726C570.319 82.802 569.955 81.598 569.955 80.1ZM571.243 80.1C571.243 82.494 572.335 83.922 574.141 83.922C576.045 83.922 576.997 82.648 576.997 80.1C576.997 77.552 576.031 76.278 574.113 76.278C572.167 76.278 571.243 77.678 571.243 80.1ZM579.429 84.202C579.429 83.81 579.793 83.418 580.297 83.418C580.759 83.418 581.137 83.81 581.137 84.202C581.137 84.65 580.787 85.028 580.297 85.028C579.793 85.028 579.429 84.65 579.429 84.202ZM586.158 79.414H586.592C587.222 79.414 587.74 79.26 588.174 78.966C588.594 78.672 588.804 78.28 588.804 77.818C588.804 76.768 587.978 76.236 586.34 76.236C584.772 76.236 583.918 76.81 583.918 77.818C583.918 78.728 584.856 79.414 586.158 79.414ZM586.564 80.52H586.214C585.458 80.52 584.828 80.688 584.338 81.01C583.848 81.332 583.596 81.738 583.596 82.228C583.596 83.292 584.576 83.964 586.354 83.964C588.16 83.964 589.126 83.32 589.126 82.242C589.126 81.164 588.09 80.52 586.564 80.52ZM589.322 84.37C588.608 84.874 587.614 85.126 586.368 85.126C585.122 85.126 584.128 84.874 583.4 84.384C582.672 83.894 582.308 83.222 582.308 82.354C582.308 81.22 583.05 80.324 584.24 79.932C583.162 79.582 582.63 78.728 582.63 77.734C582.63 76.11 584.002 75.074 586.354 75.074C588.72 75.074 590.092 76.11 590.092 77.734C590.092 78.672 589.574 79.386 588.538 79.862C589.784 80.24 590.4 81.052 590.4 82.298C590.4 83.18 590.036 83.88 589.322 84.37Z" fill="#1A3341"/>
<path d="M560 96.6667C560 95.7462 560.746 95 561.667 95H593.333C594.254 95 595 95.7462 595 96.6667V203H560V96.6667Z" fill="url(#paint55_linear_7006_29061)"/>
<path opacity="0.2" d="M570 95H585V203H570V95Z" fill="url(#paint56_linear_7006_29061)"/>
<path opacity="0.04" d="M585 95H593.333C594.254 95 595 95.7462 595 96.6667V203H585V95Z" fill="#0D262C"/>
<path opacity="0.5" d="M560 96.6667C560 95.7462 560.746 95 561.667 95H570V203H560V96.6667Z" fill="url(#paint57_linear_7006_29061)"/>
<path d="M657.367 75.804L656.919 74.754L660.279 73.144H661.077V83H659.873V74.642L657.367 75.804ZM662.75 75.804L662.302 74.754L665.662 73.144H666.46V83H665.256V74.642L662.75 75.804ZM668.344 82.202C668.344 81.81 668.708 81.418 669.212 81.418C669.674 81.418 670.052 81.81 670.052 82.202C670.052 82.65 669.702 83.028 669.212 83.028C668.708 83.028 668.344 82.65 668.344 82.202ZM671.209 78.1C671.209 76.588 671.559 75.37 672.273 74.46C672.973 73.55 674.009 73.088 675.367 73.088C678.153 73.088 679.539 74.922 679.539 78.1C679.539 79.626 679.189 80.83 678.503 81.74C677.803 82.65 676.767 83.112 675.395 83.112C674.079 83.112 673.057 82.65 672.315 81.726C671.573 80.802 671.209 79.598 671.209 78.1ZM672.497 78.1C672.497 80.494 673.589 81.922 675.395 81.922C677.299 81.922 678.251 80.648 678.251 78.1C678.251 75.552 677.285 74.278 675.367 74.278C673.421 74.278 672.497 75.678 672.497 78.1Z" fill="#1A3341"/>
<path d="M651 94.6667C651 93.7462 651.746 93 652.667 93H684.333C685.254 93 686 93.7462 686 94.6667V203H651V94.6667Z" fill="url(#paint58_linear_7006_29061)"/>
<path opacity="0.2" d="M661 93H676V203H661V93Z" fill="url(#paint59_linear_7006_29061)"/>
<path opacity="0.04" d="M676 93H684.333C685.254 93 686 93.7462 686 94.6667V203H676V93Z" fill="#0D262C"/>
<path opacity="0.5" d="M651 94.6667C651 93.7462 651.746 93 652.667 93H661V203H651V94.6667Z" fill="url(#paint60_linear_7006_29061)"/>
<path d="M747.314 63.804L746.866 62.754L750.226 61.144H751.024V71H749.82V62.642L747.314 63.804ZM753.93 64.434L752.908 64.07C753.258 62.334 754.574 61.088 756.66 61.088C758.676 61.088 759.908 62.25 759.908 64.028C759.908 64.966 759.502 65.904 758.998 66.576C758.746 66.926 758.424 67.262 758.046 67.612C757.276 68.298 756.73 68.662 755.932 69.166L754.854 69.838H760.272V71H752.642V70.048L754.77 68.634C755.148 68.396 755.414 68.214 755.568 68.102C755.722 68.004 755.974 67.822 756.31 67.584C756.646 67.346 756.898 67.136 757.066 66.982C757.22 66.828 757.43 66.632 757.668 66.38C758.312 65.68 758.55 65.036 758.62 64.154C758.62 62.88 757.794 62.306 756.576 62.306C755.82 62.306 755.218 62.516 754.784 62.936C754.35 63.356 754.056 63.86 753.93 64.434ZM761.34 70.202C761.34 69.81 761.704 69.418 762.208 69.418C762.67 69.418 763.048 69.81 763.048 70.202C763.048 70.65 762.698 71.028 762.208 71.028C761.704 71.028 761.34 70.65 761.34 70.202ZM765.325 64.434L764.303 64.07C764.653 62.334 765.969 61.088 768.055 61.088C770.071 61.088 771.303 62.25 771.303 64.028C771.303 64.966 770.897 65.904 770.393 66.576C770.141 66.926 769.819 67.262 769.441 67.612C768.671 68.298 768.125 68.662 767.327 69.166L766.249 69.838H771.667V71H764.037V70.048L766.165 68.634C766.543 68.396 766.809 68.214 766.963 68.102C767.117 68.004 767.369 67.822 767.705 67.584C768.041 67.346 768.293 67.136 768.461 66.982C768.615 66.828 768.825 66.632 769.063 66.38C769.707 65.68 769.945 65.036 770.015 64.154C770.015 62.88 769.189 62.306 767.971 62.306C767.215 62.306 766.613 62.516 766.179 62.936C765.745 63.356 765.451 63.86 765.325 64.434Z" fill="#1A3341"/>
<path d="M742 82.6667C742 81.7462 742.746 81 743.667 81H775.333C776.254 81 777 81.7462 777 82.6667V203H742V82.6667Z" fill="url(#paint61_linear_7006_29061)"/>
<path opacity="0.2" d="M752 81H767V203H752V81Z" fill="url(#paint62_linear_7006_29061)"/>
<path opacity="0.04" d="M767 81H775.333C776.254 81 777 81.7462 777 82.6667V203H767V81Z" fill="#0D262C"/>
<path opacity="0.5" d="M742 82.6667C742 81.7462 742.746 81 743.667 81H752V203H742V82.6667Z" fill="url(#paint63_linear_7006_29061)"/>
<path d="M838.601 58.804L838.153 57.754L841.513 56.144H842.311V66H841.107V57.642L838.601 58.804ZM845.217 59.434L844.195 59.07C844.545 57.334 845.861 56.088 847.947 56.088C849.963 56.088 851.195 57.25 851.195 59.028C851.195 59.966 850.789 60.904 850.285 61.576C850.033 61.926 849.711 62.262 849.333 62.612C848.563 63.298 848.017 63.662 847.219 64.166L846.141 64.838H851.559V66H843.929V65.048L846.057 63.634C846.435 63.396 846.701 63.214 846.855 63.102C847.009 63.004 847.261 62.822 847.597 62.584C847.933 62.346 848.185 62.136 848.353 61.982C848.507 61.828 848.717 61.632 848.955 61.38C849.599 60.68 849.837 60.036 849.907 59.154C849.907 57.88 849.081 57.306 847.863 57.306C847.107 57.306 846.505 57.516 846.071 57.936C845.637 58.356 845.343 58.86 845.217 59.434ZM852.627 65.202C852.627 64.81 852.991 64.418 853.495 64.418C853.957 64.418 854.335 64.81 854.335 65.202C854.335 65.65 853.985 66.028 853.495 66.028C852.991 66.028 852.627 65.65 852.627 65.202ZM861.107 57.39H855.171V56.2H862.605V56.998L857.733 66H856.403L861.107 57.39Z" fill="#1A3341"/>
<path d="M833 77.6667C833 76.7462 833.746 76 834.667 76H866.333C867.254 76 868 76.7462 868 77.6667V203H833V77.6667Z" fill="url(#paint64_linear_7006_29061)"/>
<path opacity="0.2" d="M843 76H858V203H843V76Z" fill="url(#paint65_linear_7006_29061)"/>
<path opacity="0.04" d="M858 76H866.333C867.254 76 868 76.7462 868 77.6667V203H858V76Z" fill="#0D262C"/>
<path opacity="0.5" d="M833 77.6667C833 76.7462 833.746 76 834.667 76H843V203H833V77.6667Z" fill="url(#paint66_linear_7006_29061)"/>
<path d="M928.726 80.804L928.278 79.754L931.638 78.144H932.436V88H931.232V79.642L928.726 80.804ZM934.222 83.1C934.222 81.588 934.572 80.37 935.286 79.46C935.986 78.55 937.022 78.088 938.38 78.088C941.166 78.088 942.552 79.922 942.552 83.1C942.552 84.626 942.202 85.83 941.516 86.74C940.816 87.65 939.78 88.112 938.408 88.112C937.092 88.112 936.07 87.65 935.328 86.726C934.586 85.802 934.222 84.598 934.222 83.1ZM935.51 83.1C935.51 85.494 936.602 86.922 938.408 86.922C940.312 86.922 941.264 85.648 941.264 83.1C941.264 80.552 940.298 79.278 938.38 79.278C936.434 79.278 935.51 80.678 935.51 83.1ZM943.695 87.202C943.695 86.81 944.059 86.418 944.563 86.418C945.025 86.418 945.403 86.81 945.403 87.202C945.403 87.65 945.053 88.028 944.563 88.028C944.059 88.028 943.695 87.65 943.695 87.202ZM947.989 83.492L946.981 83.226L947.555 78.2H953.715V79.39H948.633L948.269 82.022C948.759 81.658 949.501 81.476 950.495 81.476C951.643 81.476 952.539 81.784 953.197 82.386C953.841 83.002 954.163 83.786 954.163 84.752C954.163 85.718 953.799 86.53 953.085 87.16C952.357 87.804 951.447 88.126 950.369 88.126C948.535 88.126 947.009 87.258 946.379 85.732L947.499 85.256C947.905 86.194 948.955 86.936 950.369 86.936C951.979 86.936 952.875 86.012 952.875 84.794C952.875 83.492 951.825 82.652 950.159 82.652C949.263 82.652 948.535 82.932 947.989 83.492Z" fill="#1A3341"/>
<path d="M924 99.6667C924 98.7462 924.746 98 925.667 98H957.333C958.254 98 959 98.7462 959 99.6667V203H924V99.6667Z" fill="url(#paint67_linear_7006_29061)"/>
<path opacity="0.2" d="M934 98H949V203H934V98Z" fill="url(#paint68_linear_7006_29061)"/>
<path opacity="0.04" d="M949 98H957.333C958.254 98 959 98.7462 959 99.6667V203H949V98Z" fill="#0D262C"/>
<path opacity="0.5" d="M924 99.6667C924 98.7462 924.746 98 925.667 98H934V203H924V99.6667Z" fill="url(#paint69_linear_7006_29061)"/>
<path d="M1019.84 83.804L1019.39 82.754L1022.75 81.144H1023.55V91H1022.35V82.642L1019.84 83.804ZM1025.34 86.1C1025.34 84.588 1025.69 83.37 1026.4 82.46C1027.1 81.55 1028.14 81.088 1029.5 81.088C1032.28 81.088 1033.67 82.922 1033.67 86.1C1033.67 87.626 1033.32 88.83 1032.63 89.74C1031.93 90.65 1030.9 91.112 1029.52 91.112C1028.21 91.112 1027.19 90.65 1026.44 89.726C1025.7 88.802 1025.34 87.598 1025.34 86.1ZM1026.63 86.1C1026.63 88.494 1027.72 89.922 1029.52 89.922C1031.43 89.922 1032.38 88.648 1032.38 86.1C1032.38 83.552 1031.41 82.278 1029.5 82.278C1027.55 82.278 1026.63 83.678 1026.63 86.1ZM1034.81 90.202C1034.81 89.81 1035.18 89.418 1035.68 89.418C1036.14 89.418 1036.52 89.81 1036.52 90.202C1036.52 90.65 1036.17 91.028 1035.68 91.028C1035.18 91.028 1034.81 90.65 1034.81 90.202ZM1038.8 84.434L1037.78 84.07C1038.13 82.334 1039.44 81.088 1041.53 81.088C1043.54 81.088 1044.78 82.25 1044.78 84.028C1044.78 84.966 1044.37 85.904 1043.87 86.576C1043.61 86.926 1043.29 87.262 1042.91 87.612C1042.14 88.298 1041.6 88.662 1040.8 89.166L1039.72 89.838H1045.14V91H1037.51V90.048L1039.64 88.634C1040.02 88.396 1040.28 88.214 1040.44 88.102C1040.59 88.004 1040.84 87.822 1041.18 87.584C1041.51 87.346 1041.77 87.136 1041.93 86.982C1042.09 86.828 1042.3 86.632 1042.54 86.38C1043.18 85.68 1043.42 85.036 1043.49 84.154C1043.49 82.88 1042.66 82.306 1041.44 82.306C1040.69 82.306 1040.09 82.516 1039.65 82.936C1039.22 83.356 1038.92 83.86 1038.8 84.434Z" fill="#1A3341"/>
<path d="M1015 102.667C1015 101.746 1015.75 101 1016.67 101H1048.33C1049.25 101 1050 101.746 1050 102.667V203H1015V102.667Z" fill="url(#paint70_linear_7006_29061)"/>
<path opacity="0.2" d="M1025 101H1040V203H1025V101Z" fill="url(#paint71_linear_7006_29061)"/>
<path opacity="0.04" d="M1040 101H1048.33C1049.25 101 1050 101.746 1050 102.667V203H1040V101Z" fill="#0D262C"/>
<path opacity="0.5" d="M1015 102.667C1015 101.746 1015.75 101 1016.67 101H1025V203H1015V102.667Z" fill="url(#paint72_linear_7006_29061)"/>
<defs>
<linearGradient id="paint0_linear_7006_29061" x1="0.476191" y1="12" x2="10" y2="12" gradientUnits="userSpaceOnUse">
<stop stop-color="#CEE8EF"/>
<stop offset="1" stop-color="#CEE8EF"/>
</linearGradient>
<linearGradient id="paint1_linear_7006_29061" x1="76.5" y1="234" x2="76.5" y2="203" gradientUnits="userSpaceOnUse">
<stop stop-color="#6D73F9"/>
<stop offset="1" stop-color="#9BB8F1"/>
</linearGradient>
<linearGradient id="paint2_linear_7006_29061" x1="76.5" y1="234" x2="76.5" y2="203" gradientUnits="userSpaceOnUse">
<stop stop-color="white" stop-opacity="0"/>
<stop offset="0.739583" stop-color="white"/>
</linearGradient>
<linearGradient id="paint3_linear_7006_29061" x1="64" y1="294.45" x2="64" y2="203" gradientUnits="userSpaceOnUse">
<stop stop-color="white" stop-opacity="0.05"/>
<stop offset="0.75" stop-color="white" stop-opacity="0.8"/>
</linearGradient>
<linearGradient id="paint4_linear_7006_29061" x1="167.5" y1="244" x2="167.5" y2="203" gradientUnits="userSpaceOnUse">
<stop stop-color="#6D73F9"/>
<stop offset="1" stop-color="#9BB8F1"/>
</linearGradient>
<linearGradient id="paint5_linear_7006_29061" x1="167.5" y1="244" x2="167.5" y2="203" gradientUnits="userSpaceOnUse">
<stop stop-color="white" stop-opacity="0"/>
<stop offset="0.739583" stop-color="white"/>
</linearGradient>
<linearGradient id="paint6_linear_7006_29061" x1="155" y1="323.95" x2="155" y2="203" gradientUnits="userSpaceOnUse">
<stop stop-color="white" stop-opacity="0.05"/>
<stop offset="0.75" stop-color="white" stop-opacity="0.8"/>
</linearGradient>
<linearGradient id="paint7_linear_7006_29061" x1="258.5" y1="239" x2="258.5" y2="203" gradientUnits="userSpaceOnUse">
<stop stop-color="#6D73F9"/>
<stop offset="1" stop-color="#9BB8F1"/>
</linearGradient>
<linearGradient id="paint8_linear_7006_29061" x1="258.5" y1="239" x2="258.5" y2="203" gradientUnits="userSpaceOnUse">
<stop stop-color="white" stop-opacity="0"/>
<stop offset="0.739583" stop-color="white"/>
</linearGradient>
<linearGradient id="paint9_linear_7006_29061" x1="246" y1="309.2" x2="246" y2="203" gradientUnits="userSpaceOnUse">
<stop stop-color="white" stop-opacity="0.05"/>
<stop offset="0.75" stop-color="white" stop-opacity="0.8"/>
</linearGradient>
<linearGradient id="paint10_linear_7006_29061" x1="349.5" y1="98" x2="349.5" y2="203" gradientUnits="userSpaceOnUse">
<stop stop-color="#6D73F9"/>
<stop offset="1" stop-color="#9BB8F1"/>
</linearGradient>
<linearGradient id="paint11_linear_7006_29061" x1="349.5" y1="98" x2="349.5" y2="203" gradientUnits="userSpaceOnUse">
<stop stop-color="white" stop-opacity="0"/>
<stop offset="0.739583" stop-color="white"/>
</linearGradient>
<linearGradient id="paint12_linear_7006_29061" x1="337" y1="-106.75" x2="337" y2="203" gradientUnits="userSpaceOnUse">
<stop stop-color="white" stop-opacity="0.05"/>
<stop offset="0.75" stop-color="white" stop-opacity="0.8"/>
</linearGradient>
<linearGradient id="paint13_linear_7006_29061" x1="440.5" y1="68" x2="440.5" y2="203" gradientUnits="userSpaceOnUse">
<stop stop-color="#6D73F9"/>
<stop offset="1" stop-color="#9BB8F1"/>
</linearGradient>
<linearGradient id="paint14_linear_7006_29061" x1="440.5" y1="68" x2="440.5" y2="203" gradientUnits="userSpaceOnUse">
<stop stop-color="white" stop-opacity="0"/>
<stop offset="0.739583" stop-color="white"/>
</linearGradient>
<linearGradient id="paint15_linear_7006_29061" x1="428" y1="-195.25" x2="428" y2="203" gradientUnits="userSpaceOnUse">
<stop stop-color="white" stop-opacity="0.05"/>
<stop offset="0.75" stop-color="white" stop-opacity="0.8"/>
</linearGradient>
<linearGradient id="paint16_linear_7006_29061" x1="531.5" y1="75" x2="531.5" y2="203" gradientUnits="userSpaceOnUse">
<stop stop-color="#6D73F9"/>
<stop offset="1" stop-color="#9BB8F1"/>
</linearGradient>
<linearGradient id="paint17_linear_7006_29061" x1="531.5" y1="75" x2="531.5" y2="203" gradientUnits="userSpaceOnUse">
<stop stop-color="white" stop-opacity="0"/>
<stop offset="0.739583" stop-color="white"/>
</linearGradient>
<linearGradient id="paint18_linear_7006_29061" x1="519" y1="-174.6" x2="519" y2="203" gradientUnits="userSpaceOnUse">
<stop stop-color="white" stop-opacity="0.05"/>
<stop offset="0.75" stop-color="white" stop-opacity="0.8"/>
</linearGradient>
<linearGradient id="paint19_linear_7006_29061" x1="622.5" y1="120" x2="622.5" y2="203" gradientUnits="userSpaceOnUse">
<stop stop-color="#6D73F9"/>
<stop offset="1" stop-color="#9BB8F1"/>
</linearGradient>
<linearGradient id="paint20_linear_7006_29061" x1="622.5" y1="120" x2="622.5" y2="203" gradientUnits="userSpaceOnUse">
<stop stop-color="white" stop-opacity="0"/>
<stop offset="0.739583" stop-color="white"/>
</linearGradient>
<linearGradient id="paint21_linear_7006_29061" x1="610" y1="-41.85" x2="610" y2="203" gradientUnits="userSpaceOnUse">
<stop stop-color="white" stop-opacity="0.05"/>
<stop offset="0.75" stop-color="white" stop-opacity="0.8"/>
</linearGradient>
<linearGradient id="paint22_linear_7006_29061" x1="713.5" y1="91" x2="713.5" y2="203" gradientUnits="userSpaceOnUse">
<stop stop-color="#6D73F9"/>
<stop offset="1" stop-color="#9BB8F1"/>
</linearGradient>
<linearGradient id="paint23_linear_7006_29061" x1="713.5" y1="91" x2="713.5" y2="203" gradientUnits="userSpaceOnUse">
<stop stop-color="white" stop-opacity="0"/>
<stop offset="0.739583" stop-color="white"/>
</linearGradient>
<linearGradient id="paint24_linear_7006_29061" x1="701" y1="-127.4" x2="701" y2="203" gradientUnits="userSpaceOnUse">
<stop stop-color="white" stop-opacity="0.05"/>
<stop offset="0.75" stop-color="white" stop-opacity="0.8"/>
</linearGradient>
<linearGradient id="paint25_linear_7006_29061" x1="804.5" y1="81" x2="804.5" y2="203" gradientUnits="userSpaceOnUse">
<stop stop-color="#6D73F9"/>
<stop offset="1" stop-color="#9BB8F1"/>
</linearGradient>
<linearGradient id="paint26_linear_7006_29061" x1="804.5" y1="81" x2="804.5" y2="203" gradientUnits="userSpaceOnUse">
<stop stop-color="white" stop-opacity="0"/>
<stop offset="0.739583" stop-color="white"/>
</linearGradient>
<linearGradient id="paint27_linear_7006_29061" x1="792" y1="-156.9" x2="792" y2="203" gradientUnits="userSpaceOnUse">
<stop stop-color="white" stop-opacity="0.05"/>
<stop offset="0.75" stop-color="white" stop-opacity="0.8"/>
</linearGradient>
<linearGradient id="paint28_linear_7006_29061" x1="895.5" y1="49" x2="895.5" y2="203" gradientUnits="userSpaceOnUse">
<stop stop-color="#6D73F9"/>
<stop offset="1" stop-color="#9BB8F1"/>
</linearGradient>
<linearGradient id="paint29_linear_7006_29061" x1="895.5" y1="49" x2="895.5" y2="203" gradientUnits="userSpaceOnUse">
<stop stop-color="white" stop-opacity="0"/>
<stop offset="0.739583" stop-color="white"/>
</linearGradient>
<linearGradient id="paint30_linear_7006_29061" x1="883" y1="-251.3" x2="883" y2="203" gradientUnits="userSpaceOnUse">
<stop stop-color="white" stop-opacity="0.05"/>
<stop offset="0.75" stop-color="white" stop-opacity="0.8"/>
</linearGradient>
<linearGradient id="paint31_linear_7006_29061" x1="986.5" y1="69" x2="986.5" y2="203" gradientUnits="userSpaceOnUse">
<stop stop-color="#6D73F9"/>
<stop offset="1" stop-color="#9BB8F1"/>
</linearGradient>
<linearGradient id="paint32_linear_7006_29061" x1="986.5" y1="69" x2="986.5" y2="203" gradientUnits="userSpaceOnUse">
<stop stop-color="white" stop-opacity="0"/>
<stop offset="0.739583" stop-color="white"/>
</linearGradient>
<linearGradient id="paint33_linear_7006_29061" x1="974" y1="-192.3" x2="974" y2="203" gradientUnits="userSpaceOnUse">
<stop stop-color="white" stop-opacity="0.05"/>
<stop offset="0.75" stop-color="white" stop-opacity="0.8"/>
</linearGradient>
<linearGradient id="paint34_linear_7006_29061" x1="1077.5" y1="86" x2="1077.5" y2="203" gradientUnits="userSpaceOnUse">
<stop stop-color="#6D73F9"/>
<stop offset="1" stop-color="#9BB8F1"/>
</linearGradient>
<linearGradient id="paint35_linear_7006_29061" x1="1077.5" y1="86" x2="1077.5" y2="203" gradientUnits="userSpaceOnUse">
<stop stop-color="white" stop-opacity="0"/>
<stop offset="0.739583" stop-color="white"/>
</linearGradient>
<linearGradient id="paint36_linear_7006_29061" x1="1065" y1="-142.15" x2="1065" y2="203" gradientUnits="userSpaceOnUse">
<stop stop-color="white" stop-opacity="0.05"/>
<stop offset="0.75" stop-color="white" stop-opacity="0.8"/>
</linearGradient>
<linearGradient id="paint37_linear_7006_29061" x1="31.5" y1="278" x2="31.5" y2="203" gradientUnits="userSpaceOnUse">
<stop stop-color="#CDE3E9"/>
<stop offset="1" stop-color="#D3E8ED"/>
</linearGradient>
<linearGradient id="paint38_linear_7006_29061" x1="31.5" y1="278" x2="31.5" y2="203" gradientUnits="userSpaceOnUse">
<stop stop-color="white" stop-opacity="0"/>
<stop offset="0.739583" stop-color="white"/>
</linearGradient>
<linearGradient id="paint39_linear_7006_29061" x1="19" y1="424.25" x2="19" y2="203" gradientUnits="userSpaceOnUse">
<stop stop-color="white" stop-opacity="0.05"/>
<stop offset="0.75" stop-color="white" stop-opacity="0.8"/>
</linearGradient>
<linearGradient id="paint40_linear_7006_29061" x1="122.5" y1="290" x2="122.5" y2="203" gradientUnits="userSpaceOnUse">
<stop stop-color="#CDE3E9"/>
<stop offset="1" stop-color="#D3E8ED"/>
</linearGradient>
<linearGradient id="paint41_linear_7006_29061" x1="122.5" y1="290" x2="122.5" y2="203" gradientUnits="userSpaceOnUse">
<stop stop-color="white" stop-opacity="0"/>
<stop offset="0.739583" stop-color="white"/>
</linearGradient>
<linearGradient id="paint42_linear_7006_29061" x1="110" y1="459.65" x2="110" y2="203" gradientUnits="userSpaceOnUse">
<stop stop-color="white" stop-opacity="0.05"/>
<stop offset="0.75" stop-color="white" stop-opacity="0.8"/>
</linearGradient>
<linearGradient id="paint43_linear_7006_29061" x1="213.5" y1="251" x2="213.5" y2="203" gradientUnits="userSpaceOnUse">
<stop stop-color="#CDE3E9"/>
<stop offset="1" stop-color="#D3E8ED"/>
</linearGradient>
<linearGradient id="paint44_linear_7006_29061" x1="213.5" y1="251" x2="213.5" y2="203" gradientUnits="userSpaceOnUse">
<stop stop-color="white" stop-opacity="0"/>
<stop offset="0.739583" stop-color="white"/>
</linearGradient>
<linearGradient id="paint45_linear_7006_29061" x1="201" y1="344.6" x2="201" y2="203" gradientUnits="userSpaceOnUse">
<stop stop-color="white" stop-opacity="0.05"/>
<stop offset="0.75" stop-color="white" stop-opacity="0.8"/>
</linearGradient>
<linearGradient id="paint46_linear_7006_29061" x1="304.5" y1="121" x2="304.5" y2="203" gradientUnits="userSpaceOnUse">
<stop stop-color="#CDE3E9"/>
<stop offset="1" stop-color="#D3E8ED"/>
</linearGradient>
<linearGradient id="paint47_linear_7006_29061" x1="304.5" y1="121" x2="304.5" y2="203" gradientUnits="userSpaceOnUse">
<stop stop-color="white" stop-opacity="0"/>
<stop offset="0.739583" stop-color="white"/>
</linearGradient>
<linearGradient id="paint48_linear_7006_29061" x1="292" y1="-38.9" x2="292" y2="203" gradientUnits="userSpaceOnUse">
<stop stop-color="white" stop-opacity="0.05"/>
<stop offset="0.75" stop-color="white" stop-opacity="0.8"/>
</linearGradient>
<linearGradient id="paint49_linear_7006_29061" x1="395.5" y1="107" x2="395.5" y2="203" gradientUnits="userSpaceOnUse">
<stop stop-color="#CDE3E9"/>
<stop offset="1" stop-color="#D3E8ED"/>
</linearGradient>
<linearGradient id="paint50_linear_7006_29061" x1="395.5" y1="107" x2="395.5" y2="203" gradientUnits="userSpaceOnUse">
<stop stop-color="white" stop-opacity="0"/>
<stop offset="0.739583" stop-color="white"/>
</linearGradient>
<linearGradient id="paint51_linear_7006_29061" x1="383" y1="-80.2" x2="383" y2="203" gradientUnits="userSpaceOnUse">
<stop stop-color="white" stop-opacity="0.05"/>
<stop offset="0.75" stop-color="white" stop-opacity="0.8"/>
</linearGradient>
<linearGradient id="paint52_linear_7006_29061" x1="486.5" y1="100" x2="486.5" y2="203" gradientUnits="userSpaceOnUse">
<stop stop-color="#CDE3E9"/>
<stop offset="1" stop-color="#D3E8ED"/>
</linearGradient>
<linearGradient id="paint53_linear_7006_29061" x1="486.5" y1="100" x2="486.5" y2="203" gradientUnits="userSpaceOnUse">
<stop stop-color="white" stop-opacity="0"/>
<stop offset="0.739583" stop-color="white"/>
</linearGradient>
<linearGradient id="paint54_linear_7006_29061" x1="474" y1="-100.85" x2="474" y2="203" gradientUnits="userSpaceOnUse">
<stop stop-color="white" stop-opacity="0.05"/>
<stop offset="0.75" stop-color="white" stop-opacity="0.8"/>
</linearGradient>
<linearGradient id="paint55_linear_7006_29061" x1="577.5" y1="95" x2="577.5" y2="203" gradientUnits="userSpaceOnUse">
<stop stop-color="#CDE3E9"/>
<stop offset="1" stop-color="#D3E8ED"/>
</linearGradient>
<linearGradient id="paint56_linear_7006_29061" x1="577.5" y1="95" x2="577.5" y2="203" gradientUnits="userSpaceOnUse">
<stop stop-color="white" stop-opacity="0"/>
<stop offset="0.739583" stop-color="white"/>
</linearGradient>
<linearGradient id="paint57_linear_7006_29061" x1="565" y1="-115.6" x2="565" y2="203" gradientUnits="userSpaceOnUse">
<stop stop-color="white" stop-opacity="0.05"/>
<stop offset="0.75" stop-color="white" stop-opacity="0.8"/>
</linearGradient>
<linearGradient id="paint58_linear_7006_29061" x1="668.5" y1="93" x2="668.5" y2="203" gradientUnits="userSpaceOnUse">
<stop stop-color="#CDE3E9"/>
<stop offset="1" stop-color="#D3E8ED"/>
</linearGradient>
<linearGradient id="paint59_linear_7006_29061" x1="668.5" y1="93" x2="668.5" y2="203" gradientUnits="userSpaceOnUse">
<stop stop-color="white" stop-opacity="0"/>
<stop offset="0.739583" stop-color="white"/>
</linearGradient>
<linearGradient id="paint60_linear_7006_29061" x1="656" y1="-121.5" x2="656" y2="203" gradientUnits="userSpaceOnUse">
<stop stop-color="white" stop-opacity="0.05"/>
<stop offset="0.75" stop-color="white" stop-opacity="0.8"/>
</linearGradient>
<linearGradient id="paint61_linear_7006_29061" x1="759.5" y1="81" x2="759.5" y2="203" gradientUnits="userSpaceOnUse">
<stop stop-color="#CDE3E9"/>
<stop offset="1" stop-color="#D3E8ED"/>
</linearGradient>
<linearGradient id="paint62_linear_7006_29061" x1="759.5" y1="81" x2="759.5" y2="203" gradientUnits="userSpaceOnUse">
<stop stop-color="white" stop-opacity="0"/>
<stop offset="0.739583" stop-color="white"/>
</linearGradient>
<linearGradient id="paint63_linear_7006_29061" x1="747" y1="-156.9" x2="747" y2="203" gradientUnits="userSpaceOnUse">
<stop stop-color="white" stop-opacity="0.05"/>
<stop offset="0.75" stop-color="white" stop-opacity="0.8"/>
</linearGradient>
<linearGradient id="paint64_linear_7006_29061" x1="850.5" y1="76" x2="850.5" y2="203" gradientUnits="userSpaceOnUse">
<stop stop-color="#CDE3E9"/>
<stop offset="1" stop-color="#D3E8ED"/>
</linearGradient>
<linearGradient id="paint65_linear_7006_29061" x1="850.5" y1="76" x2="850.5" y2="203" gradientUnits="userSpaceOnUse">
<stop stop-color="white" stop-opacity="0"/>
<stop offset="0.739583" stop-color="white"/>
</linearGradient>
<linearGradient id="paint66_linear_7006_29061" x1="838" y1="-171.65" x2="838" y2="203" gradientUnits="userSpaceOnUse">
<stop stop-color="white" stop-opacity="0.05"/>
<stop offset="0.75" stop-color="white" stop-opacity="0.8"/>
</linearGradient>
<linearGradient id="paint67_linear_7006_29061" x1="941.5" y1="98" x2="941.5" y2="203" gradientUnits="userSpaceOnUse">
<stop stop-color="#CDE3E9"/>
<stop offset="1" stop-color="#D3E8ED"/>
</linearGradient>
<linearGradient id="paint68_linear_7006_29061" x1="941.5" y1="98" x2="941.5" y2="203" gradientUnits="userSpaceOnUse">
<stop stop-color="white" stop-opacity="0"/>
<stop offset="0.739583" stop-color="white"/>
</linearGradient>
<linearGradient id="paint69_linear_7006_29061" x1="929" y1="-106.75" x2="929" y2="203" gradientUnits="userSpaceOnUse">
<stop stop-color="white" stop-opacity="0.05"/>
<stop offset="0.75" stop-color="white" stop-opacity="0.8"/>
</linearGradient>
<linearGradient id="paint70_linear_7006_29061" x1="1032.5" y1="101" x2="1032.5" y2="203" gradientUnits="userSpaceOnUse">
<stop stop-color="#CDE3E9"/>
<stop offset="1" stop-color="#D3E8ED"/>
</linearGradient>
<linearGradient id="paint71_linear_7006_29061" x1="1032.5" y1="101" x2="1032.5" y2="203" gradientUnits="userSpaceOnUse">
<stop stop-color="white" stop-opacity="0"/>
<stop offset="0.739583" stop-color="white"/>
</linearGradient>
<linearGradient id="paint72_linear_7006_29061" x1="1020" y1="-97.9" x2="1020" y2="203" gradientUnits="userSpaceOnUse">
<stop stop-color="white" stop-opacity="0.05"/>
<stop offset="0.75" stop-color="white" stop-opacity="0.8"/>
</linearGradient>
</defs>
</svg>
