<svg width="1160" height="249" viewBox="0 0 1160 249" fill="none" xmlns="http://www.w3.org/2000/svg">
<rect width="1160" height="249" fill="white"/>
<rect x="992" y="34" width="147" height="165" fill="#F2FAFC"/>
<rect x="992" y="34" width="147" height="165" fill="url(#paint0_radial_6003_39896)" fill-opacity="0.2"/>
<path d="M1032.85 44.6H1033.94V49.448C1033.94 50.66 1033.61 51.56 1032.94 52.172C1032.26 52.784 1031.46 53.096 1030.51 53.096C1029.47 53.096 1028.6 52.772 1027.91 52.124C1027.21 51.476 1026.86 50.564 1026.86 49.376V44.6H1027.96V49.22C1027.96 50.12 1028.2 50.816 1028.69 51.308C1029.17 51.812 1029.78 52.064 1030.51 52.064C1032.04 52.064 1032.85 51.008 1032.85 49.28V44.6ZM1036.41 53H1035.4V46.76H1036.41V47.576C1036.81 46.964 1037.62 46.628 1038.55 46.628C1040.24 46.628 1041.08 47.564 1041.08 49.448V53H1040.07V49.568C1040.07 48.188 1039.48 47.576 1038.25 47.576C1037.48 47.576 1036.75 48.08 1036.41 48.836V53ZM1048.02 53H1047.02V52.256C1046.74 52.688 1046.02 53.108 1045.07 53.108C1044.15 53.108 1043.42 52.82 1042.85 52.244C1042.29 51.668 1042 50.888 1042 49.892C1042 48.932 1042.3 48.14 1042.91 47.528C1043.52 46.916 1044.27 46.616 1045.16 46.616C1045.98 46.616 1046.61 46.82 1047.02 47.228V44.24H1048.02V53ZM1045.22 52.148C1046.07 52.148 1046.73 51.548 1047.02 50.96V48.44C1046.62 47.852 1046.03 47.564 1045.28 47.564C1044.66 47.564 1044.14 47.78 1043.72 48.2C1043.28 48.62 1043.07 49.184 1043.07 49.868C1043.07 51.26 1043.96 52.148 1045.22 52.148ZM1054.19 51.212L1054.84 51.812C1054.26 52.676 1053.43 53.108 1052.34 53.108C1051.35 53.108 1050.54 52.808 1049.93 52.22C1049.32 51.632 1049.02 50.852 1049.02 49.868C1049.02 48.92 1049.29 48.14 1049.86 47.528C1050.41 46.916 1051.19 46.616 1052.2 46.616C1053.03 46.616 1053.72 46.88 1054.26 47.396C1054.8 47.912 1055.08 48.596 1055.08 49.448C1055.08 49.724 1055.05 49.976 1055.02 50.204H1050.1C1050.16 51.44 1051.07 52.16 1052.38 52.16C1053.11 52.16 1053.81 51.776 1054.19 51.212ZM1052.13 47.54C1050.99 47.54 1050.24 48.236 1050.09 49.292H1054.01C1053.95 48.188 1053.24 47.54 1052.13 47.54ZM1057.09 53H1056.08V46.76H1057.09V47.24C1057.29 46.82 1057.83 46.628 1058.37 46.628C1058.92 46.628 1059.34 46.82 1059.64 47.192L1059.01 47.888C1058.85 47.684 1058.61 47.576 1058.26 47.576C1057.72 47.576 1057.23 48.02 1057.09 48.656V53ZM1064.67 51.2L1065.39 51.716C1064.92 52.592 1063.87 53.108 1062.82 53.108C1061.83 53.108 1061.02 52.808 1060.41 52.22C1059.8 51.632 1059.49 50.852 1059.49 49.868C1059.49 48.932 1059.79 48.152 1060.4 47.54C1061.01 46.928 1061.79 46.616 1062.76 46.616C1063.88 46.616 1064.88 47.12 1065.3 47.888L1064.52 48.416C1064.1 47.852 1063.52 47.564 1062.79 47.564C1062.14 47.564 1061.61 47.78 1061.19 48.212C1060.77 48.644 1060.56 49.196 1060.56 49.868C1060.56 50.552 1060.77 51.104 1061.22 51.524C1061.65 51.944 1062.21 52.16 1062.92 52.16C1063.66 52.16 1064.25 51.836 1064.67 51.2ZM1066.58 48.26L1066.07 47.504C1066.64 46.964 1067.64 46.616 1068.56 46.616C1070.23 46.616 1071.12 47.528 1071.12 49.148V53H1070.11V52.076C1069.72 52.652 1068.94 53.084 1067.93 53.084C1066.57 53.084 1065.66 52.328 1065.66 51.176C1065.66 49.868 1066.78 49.244 1068.65 49.244C1069.24 49.244 1069.72 49.304 1070.11 49.424C1070.11 48.212 1069.68 47.564 1068.44 47.564C1067.82 47.564 1067.2 47.792 1066.58 48.26ZM1068.17 52.172C1068.64 52.172 1069.06 52.04 1069.4 51.788C1069.75 51.536 1069.98 51.248 1070.11 50.948V50.312C1069.76 50.192 1069.32 50.132 1068.78 50.132C1067.41 50.132 1066.73 50.468 1066.73 51.14C1066.73 51.776 1067.3 52.172 1068.17 52.172ZM1073.4 55.4H1072.39V46.76H1073.4V47.54C1073.82 46.928 1074.49 46.616 1075.42 46.616C1076.33 46.616 1077.06 46.904 1077.6 47.492C1078.14 48.08 1078.41 48.836 1078.41 49.772C1078.41 50.732 1078.12 51.524 1077.54 52.16C1076.95 52.796 1076.21 53.108 1075.3 53.108C1074.46 53.108 1073.82 52.892 1073.4 52.472V55.4ZM1075.31 47.564C1074.4 47.564 1073.69 48.152 1073.4 48.86V51.188C1073.76 51.836 1074.36 52.16 1075.21 52.16C1075.83 52.16 1076.34 51.944 1076.74 51.512C1077.13 51.08 1077.34 50.528 1077.34 49.844C1077.34 48.452 1076.56 47.564 1075.31 47.564ZM1079.88 48.26L1079.36 47.504C1079.94 46.964 1080.93 46.616 1081.86 46.616C1083.53 46.616 1084.41 47.528 1084.41 49.148V53H1083.41V52.076C1083.01 52.652 1082.23 53.084 1081.22 53.084C1079.87 53.084 1078.95 52.328 1078.95 51.176C1078.95 49.868 1080.07 49.244 1081.94 49.244C1082.53 49.244 1083.01 49.304 1083.41 49.424C1083.41 48.212 1082.97 47.564 1081.74 47.564C1081.11 47.564 1080.49 47.792 1079.88 48.26ZM1081.46 52.172C1081.93 52.172 1082.35 52.04 1082.7 51.788C1083.05 51.536 1083.27 51.248 1083.41 50.948V50.312C1083.06 50.192 1082.61 50.132 1082.07 50.132C1080.71 50.132 1080.02 50.468 1080.02 51.14C1080.02 51.776 1080.6 52.172 1081.46 52.172ZM1090.52 51.2L1091.24 51.716C1090.78 52.592 1089.72 53.108 1088.68 53.108C1087.68 53.108 1086.88 52.808 1086.26 52.22C1085.65 51.632 1085.34 50.852 1085.34 49.868C1085.34 48.932 1085.64 48.152 1086.25 47.54C1086.86 46.928 1087.64 46.616 1088.62 46.616C1089.73 46.616 1090.73 47.12 1091.15 47.888L1090.37 48.416C1089.95 47.852 1089.37 47.564 1088.64 47.564C1087.99 47.564 1087.46 47.78 1087.04 48.212C1086.62 48.644 1086.41 49.196 1086.41 49.868C1086.41 50.552 1086.62 51.104 1087.07 51.524C1087.5 51.944 1088.06 52.16 1088.77 52.16C1089.52 52.16 1090.1 51.836 1090.52 51.2ZM1093.1 53H1092.09V46.76H1093.1V53ZM1091.96 44.732C1091.96 44.396 1092.23 44.144 1092.6 44.144C1092.94 44.144 1093.23 44.396 1093.23 44.732C1093.23 45.08 1092.94 45.356 1092.6 45.356C1092.23 45.356 1091.96 45.08 1091.96 44.732ZM1095.2 47.72H1093.91V46.76H1095.2V45.164H1096.21V46.76H1098.36V47.72H1096.21V50.468C1096.21 51.68 1096.52 52.124 1097.29 52.124C1097.66 52.124 1098.05 51.98 1098.42 51.68L1098.87 52.424C1098.48 52.868 1097.89 53.084 1097.11 53.084C1095.87 53.084 1095.2 52.268 1095.2 50.732V47.72ZM1099.59 55.376L1099.99 54.5C1100.09 54.536 1100.17 54.56 1100.25 54.56C1100.72 54.56 1101.05 54.236 1101.47 53.24L1101.66 52.772L1098.63 46.76H1099.82L1102.16 51.5L1103.93 46.76H1105.03L1102.65 52.904C1102.25 53.912 1101.86 54.596 1101.51 54.968C1101.15 55.34 1100.75 55.52 1100.29 55.52C1100.03 55.52 1099.8 55.472 1099.59 55.376Z" fill="#7DA4C1"/>
<path d="M1030.23 115.8C1030.23 114.588 1030.64 113.556 1031.46 112.728C1032.29 111.9 1033.3 111.492 1034.5 111.492C1035.69 111.492 1036.7 111.9 1037.52 112.716C1038.35 113.532 1038.76 114.564 1038.76 115.8C1038.76 117.024 1038.35 118.044 1037.52 118.872C1036.7 119.7 1035.69 120.108 1034.5 120.108C1033.3 120.108 1032.29 119.7 1031.46 118.884C1030.64 118.068 1030.23 117.036 1030.23 115.8ZM1031.37 115.8C1031.37 116.736 1031.68 117.516 1032.29 118.128C1032.9 118.752 1033.64 119.064 1034.5 119.064C1035.39 119.064 1036.13 118.752 1036.73 118.14C1037.32 117.528 1037.62 116.748 1037.62 115.8C1037.62 114.852 1037.32 114.072 1036.71 113.46C1036.1 112.848 1035.35 112.536 1034.5 112.536C1033.62 112.536 1032.89 112.848 1032.28 113.46C1031.67 114.072 1031.37 114.852 1031.37 115.8ZM1044.24 113.76H1045.32L1042.52 120H1041.78L1038.86 113.76H1040.02L1042.17 118.428L1044.24 113.76ZM1050.42 118.212L1051.07 118.812C1050.49 119.676 1049.66 120.108 1048.57 120.108C1047.57 120.108 1046.77 119.808 1046.16 119.22C1045.55 118.632 1045.25 117.852 1045.25 116.868C1045.25 115.92 1045.52 115.14 1046.09 114.528C1046.64 113.916 1047.42 113.616 1048.43 113.616C1049.25 113.616 1049.95 113.88 1050.49 114.396C1051.03 114.912 1051.31 115.596 1051.31 116.448C1051.31 116.724 1051.28 116.976 1051.25 117.204H1046.33C1046.39 118.44 1047.3 119.16 1048.61 119.16C1049.34 119.16 1050.03 118.776 1050.42 118.212ZM1048.35 114.54C1047.21 114.54 1046.47 115.236 1046.31 116.292H1050.24C1050.18 115.188 1049.47 114.54 1048.35 114.54ZM1053.31 120H1052.31V113.76H1053.31V114.24C1053.52 113.82 1054.06 113.628 1054.6 113.628C1055.15 113.628 1055.57 113.82 1055.87 114.192L1055.23 114.888C1055.08 114.684 1054.84 114.576 1054.49 114.576C1053.95 114.576 1053.46 115.02 1053.31 115.656V120ZM1060.9 118.2L1061.62 118.716C1061.15 119.592 1060.1 120.108 1059.05 120.108C1058.06 120.108 1057.25 119.808 1056.64 119.22C1056.03 118.632 1055.72 117.852 1055.72 116.868C1055.72 115.932 1056.02 115.152 1056.63 114.54C1057.24 113.928 1058.02 113.616 1058.99 113.616C1060.11 113.616 1061.1 114.12 1061.52 114.888L1060.74 115.416C1060.32 114.852 1059.75 114.564 1059.02 114.564C1058.37 114.564 1057.84 114.78 1057.42 115.212C1057 115.644 1056.78 116.196 1056.78 116.868C1056.78 117.552 1057 118.104 1057.44 118.524C1057.88 118.944 1058.44 119.16 1059.15 119.16C1059.89 119.16 1060.48 118.836 1060.9 118.2ZM1062.81 115.26L1062.3 114.504C1062.87 113.964 1063.87 113.616 1064.79 113.616C1066.46 113.616 1067.35 114.528 1067.35 116.148V120H1066.34V119.076C1065.94 119.652 1065.16 120.084 1064.16 120.084C1062.8 120.084 1061.89 119.328 1061.89 118.176C1061.89 116.868 1063 116.244 1064.88 116.244C1065.46 116.244 1065.94 116.304 1066.34 116.424C1066.34 115.212 1065.91 114.564 1064.67 114.564C1064.05 114.564 1063.42 114.792 1062.81 115.26ZM1064.4 119.172C1064.86 119.172 1065.28 119.04 1065.63 118.788C1065.98 118.536 1066.21 118.248 1066.34 117.948V117.312C1065.99 117.192 1065.55 117.132 1065.01 117.132C1063.64 117.132 1062.96 117.468 1062.96 118.14C1062.96 118.776 1063.53 119.172 1064.4 119.172ZM1069.63 122.4H1068.62V113.76H1069.63V114.54C1070.05 113.928 1070.72 113.616 1071.65 113.616C1072.56 113.616 1073.29 113.904 1073.83 114.492C1074.37 115.08 1074.63 115.836 1074.63 116.772C1074.63 117.732 1074.35 118.524 1073.77 119.16C1073.18 119.796 1072.44 120.108 1071.53 120.108C1070.69 120.108 1070.05 119.892 1069.63 119.472V122.4ZM1071.54 114.564C1070.63 114.564 1069.92 115.152 1069.63 115.86V118.188C1069.99 118.836 1070.59 119.16 1071.44 119.16C1072.05 119.16 1072.57 118.944 1072.97 118.512C1073.36 118.08 1073.57 117.528 1073.57 116.844C1073.57 115.452 1072.79 114.564 1071.54 114.564ZM1076.11 115.26L1075.59 114.504C1076.17 113.964 1077.16 113.616 1078.09 113.616C1079.75 113.616 1080.64 114.528 1080.64 116.148V120H1079.63V119.076C1079.24 119.652 1078.46 120.084 1077.45 120.084C1076.09 120.084 1075.18 119.328 1075.18 118.176C1075.18 116.868 1076.3 116.244 1078.17 116.244C1078.76 116.244 1079.24 116.304 1079.63 116.424C1079.63 115.212 1079.2 114.564 1077.97 114.564C1077.34 114.564 1076.72 114.792 1076.11 115.26ZM1077.69 119.172C1078.16 119.172 1078.58 119.04 1078.93 118.788C1079.27 118.536 1079.5 118.248 1079.63 117.948V117.312C1079.29 117.192 1078.84 117.132 1078.3 117.132C1076.93 117.132 1076.25 117.468 1076.25 118.14C1076.25 118.776 1076.83 119.172 1077.69 119.172ZM1086.75 118.2L1087.47 118.716C1087 119.592 1085.95 120.108 1084.9 120.108C1083.91 120.108 1083.1 119.808 1082.49 119.22C1081.88 118.632 1081.57 117.852 1081.57 116.868C1081.57 115.932 1081.87 115.152 1082.48 114.54C1083.09 113.928 1083.87 113.616 1084.84 113.616C1085.96 113.616 1086.96 114.12 1087.38 114.888L1086.6 115.416C1086.18 114.852 1085.6 114.564 1084.87 114.564C1084.22 114.564 1083.69 114.78 1083.27 115.212C1082.85 115.644 1082.64 116.196 1082.64 116.868C1082.64 117.552 1082.85 118.104 1083.3 118.524C1083.73 118.944 1084.29 119.16 1085 119.16C1085.74 119.16 1086.33 118.836 1086.75 118.2ZM1089.32 120H1088.32V113.76H1089.32V120ZM1088.18 111.732C1088.18 111.396 1088.46 111.144 1088.83 111.144C1089.17 111.144 1089.46 111.396 1089.46 111.732C1089.46 112.08 1089.17 112.356 1088.83 112.356C1088.46 112.356 1088.18 112.08 1088.18 111.732ZM1091.43 114.72H1090.13V113.76H1091.43V112.164H1092.44V113.76H1094.59V114.72H1092.44V117.468C1092.44 118.68 1092.75 119.124 1093.52 119.124C1093.89 119.124 1094.27 118.98 1094.65 118.68L1095.1 119.424C1094.71 119.868 1094.12 120.084 1093.34 120.084C1092.1 120.084 1091.43 119.268 1091.43 117.732V114.72ZM1095.82 122.376L1096.22 121.5C1096.31 121.536 1096.4 121.56 1096.48 121.56C1096.95 121.56 1097.27 121.236 1097.69 120.24L1097.89 119.772L1094.86 113.76H1096.05L1098.39 118.5L1100.15 113.76H1101.26L1098.88 119.904C1098.47 120.912 1098.09 121.596 1097.74 121.968C1097.38 122.34 1096.97 122.52 1096.52 122.52C1096.25 122.52 1096.03 122.472 1095.82 122.376Z" fill="#7DA4C1"/>
<path d="M72.5466 209.372L71.6706 209.06C71.9706 207.572 73.0986 206.504 74.8866 206.504C76.6146 206.504 77.6706 207.5 77.6706 209.024C77.6706 209.828 77.3226 210.632 76.8906 211.208C76.6746 211.508 76.3986 211.796 76.0746 212.096C75.4146 212.684 74.9466 212.996 74.2626 213.428L73.3386 214.004H77.9826V215H71.4426V214.184L73.2666 212.972C73.5906 212.768 73.8186 212.612 73.9506 212.516C74.0826 212.432 74.2986 212.276 74.5866 212.072C74.8746 211.868 75.0906 211.688 75.2346 211.556C75.3666 211.424 75.5466 211.256 75.7506 211.04C76.3026 210.44 76.5066 209.888 76.5666 209.132C76.5666 208.04 75.8586 207.548 74.8146 207.548C74.1666 207.548 73.6506 207.728 73.2786 208.088C72.9066 208.448 72.6546 208.88 72.5466 209.372ZM78.8143 210.8C78.8143 209.504 79.1143 208.46 79.7263 207.68C80.3263 206.9 81.2143 206.504 82.3783 206.504C84.7663 206.504 85.9543 208.076 85.9543 210.8C85.9543 212.108 85.6543 213.14 85.0663 213.92C84.4663 214.7 83.5783 215.096 82.4023 215.096C81.2743 215.096 80.3983 214.7 79.7623 213.908C79.1263 213.116 78.8143 212.084 78.8143 210.8ZM79.9183 210.8C79.9183 212.852 80.8543 214.076 82.4023 214.076C84.0343 214.076 84.8503 212.984 84.8503 210.8C84.8503 208.616 84.0223 207.524 82.3783 207.524C80.7103 207.524 79.9183 208.724 79.9183 210.8ZM86.7545 208.832L86.3705 207.932L89.2505 206.552H89.9345V215H88.9025V207.836L86.7545 208.832ZM91.4649 211.028C91.4649 209.576 91.8249 208.46 92.5329 207.668C93.2409 206.888 94.1289 206.492 95.1969 206.492C96.6009 206.492 97.7049 207.128 98.1729 208.136L97.3569 208.688C96.8649 207.908 96.1329 207.524 95.1489 207.524C94.4049 207.524 93.7809 207.812 93.2769 208.388C92.7729 208.976 92.5209 209.768 92.5329 210.788C93.0009 209.912 94.0929 209.384 95.2929 209.384C96.2649 209.384 97.0449 209.636 97.6089 210.152C98.1729 210.668 98.4609 211.352 98.4609 212.192C98.4609 213.044 98.1489 213.752 97.5129 214.292C96.8769 214.832 96.0849 215.108 95.1369 215.108C92.8689 215.108 91.4649 213.632 91.4649 211.028ZM92.6649 212.048C92.8929 213.236 93.7929 214.076 95.1249 214.076C95.7729 214.076 96.3129 213.908 96.7329 213.56C97.1529 213.224 97.3569 212.78 97.3569 212.24C97.3569 211.052 96.5169 210.416 95.2329 210.416C94.5249 210.416 93.9369 210.584 93.4809 210.92C93.0129 211.256 92.7489 211.628 92.6649 212.048Z" fill="#76848D"/>
<path d="M563.652 209.372L562.776 209.06C563.076 207.572 564.204 206.504 565.992 206.504C567.72 206.504 568.776 207.5 568.776 209.024C568.776 209.828 568.428 210.632 567.996 211.208C567.78 211.508 567.504 211.796 567.18 212.096C566.52 212.684 566.052 212.996 565.368 213.428L564.444 214.004H569.088V215H562.548V214.184L564.372 212.972C564.696 212.768 564.924 212.612 565.056 212.516C565.188 212.432 565.404 212.276 565.692 212.072C565.98 211.868 566.196 211.688 566.34 211.556C566.472 211.424 566.652 211.256 566.856 211.04C567.408 210.44 567.612 209.888 567.672 209.132C567.672 208.04 566.964 207.548 565.92 207.548C565.272 207.548 564.756 207.728 564.384 208.088C564.012 208.448 563.76 208.88 563.652 209.372ZM569.92 210.8C569.92 209.504 570.22 208.46 570.832 207.68C571.432 206.9 572.32 206.504 573.484 206.504C575.872 206.504 577.06 208.076 577.06 210.8C577.06 212.108 576.76 213.14 576.172 213.92C575.572 214.7 574.684 215.096 573.508 215.096C572.38 215.096 571.504 214.7 570.868 213.908C570.232 213.116 569.92 212.084 569.92 210.8ZM571.024 210.8C571.024 212.852 571.96 214.076 573.508 214.076C575.14 214.076 575.956 212.984 575.956 210.8C575.956 208.616 575.128 207.524 573.484 207.524C571.816 207.524 571.024 208.724 571.024 210.8ZM578.916 209.372L578.04 209.06C578.34 207.572 579.468 206.504 581.256 206.504C582.984 206.504 584.04 207.5 584.04 209.024C584.04 209.828 583.692 210.632 583.26 211.208C583.044 211.508 582.768 211.796 582.444 212.096C581.784 212.684 581.316 212.996 580.632 213.428L579.708 214.004H584.352V215H577.812V214.184L579.636 212.972C579.96 212.768 580.188 212.612 580.32 212.516C580.452 212.432 580.668 212.276 580.956 212.072C581.244 211.868 581.46 211.688 581.604 211.556C581.736 211.424 581.916 211.256 582.12 211.04C582.672 210.44 582.876 209.888 582.936 209.132C582.936 208.04 582.228 207.548 581.184 207.548C580.536 207.548 580.02 207.728 579.648 208.088C579.276 208.448 579.024 208.88 578.916 209.372ZM585.184 210.8C585.184 209.504 585.484 208.46 586.096 207.68C586.696 206.9 587.584 206.504 588.748 206.504C591.136 206.504 592.324 208.076 592.324 210.8C592.324 212.108 592.024 213.14 591.436 213.92C590.836 214.7 589.948 215.096 588.772 215.096C587.644 215.096 586.768 214.7 586.132 213.908C585.496 213.116 585.184 212.084 585.184 210.8ZM586.288 210.8C586.288 212.852 587.224 214.076 588.772 214.076C590.404 214.076 591.22 212.984 591.22 210.8C591.22 208.616 590.392 207.524 588.748 207.524C587.08 207.524 586.288 208.724 586.288 210.8Z" fill="#76848D"/>
<path d="M318.035 209.372L317.159 209.06C317.459 207.572 318.587 206.504 320.375 206.504C322.103 206.504 323.159 207.5 323.159 209.024C323.159 209.828 322.811 210.632 322.379 211.208C322.163 211.508 321.887 211.796 321.563 212.096C320.903 212.684 320.435 212.996 319.751 213.428L318.827 214.004H323.471V215H316.931V214.184L318.755 212.972C319.079 212.768 319.307 212.612 319.439 212.516C319.571 212.432 319.787 212.276 320.075 212.072C320.363 211.868 320.579 211.688 320.723 211.556C320.855 211.424 321.035 211.256 321.239 211.04C321.791 210.44 321.995 209.888 322.055 209.132C322.055 208.04 321.347 207.548 320.303 207.548C319.655 207.548 319.139 207.728 318.767 208.088C318.395 208.448 318.143 208.88 318.035 209.372ZM324.303 210.8C324.303 209.504 324.603 208.46 325.215 207.68C325.815 206.9 326.703 206.504 327.867 206.504C330.255 206.504 331.443 208.076 331.443 210.8C331.443 212.108 331.143 213.14 330.555 213.92C329.955 214.7 329.067 215.096 327.891 215.096C326.763 215.096 325.887 214.7 325.251 213.908C324.615 213.116 324.303 212.084 324.303 210.8ZM325.407 210.8C325.407 212.852 326.343 214.076 327.891 214.076C329.523 214.076 330.339 212.984 330.339 210.8C330.339 208.616 329.511 207.524 327.867 207.524C326.199 207.524 325.407 208.724 325.407 210.8ZM332.243 208.832L331.859 207.932L334.739 206.552H335.423V215H334.391V207.836L332.243 208.832ZM340.265 210.212H340.637C341.177 210.212 341.621 210.08 341.993 209.828C342.353 209.576 342.533 209.24 342.533 208.844C342.533 207.944 341.825 207.488 340.421 207.488C339.077 207.488 338.345 207.98 338.345 208.844C338.345 209.624 339.149 210.212 340.265 210.212ZM340.613 211.16H340.313C339.665 211.16 339.125 211.304 338.705 211.58C338.285 211.856 338.069 212.204 338.069 212.624C338.069 213.536 338.909 214.112 340.433 214.112C341.981 214.112 342.809 213.56 342.809 212.636C342.809 211.712 341.921 211.16 340.613 211.16ZM342.977 214.46C342.365 214.892 341.513 215.108 340.445 215.108C339.377 215.108 338.525 214.892 337.901 214.472C337.277 214.052 336.965 213.476 336.965 212.732C336.965 211.76 337.601 210.992 338.621 210.656C337.697 210.356 337.241 209.624 337.241 208.772C337.241 207.38 338.417 206.492 340.433 206.492C342.461 206.492 343.637 207.38 343.637 208.772C343.637 209.576 343.193 210.188 342.305 210.596C343.373 210.92 343.901 211.616 343.901 212.684C343.901 213.44 343.589 214.04 342.977 214.46Z" fill="#76848D"/>
<path d="M808.556 209.372L807.68 209.06C807.98 207.572 809.108 206.504 810.896 206.504C812.624 206.504 813.68 207.5 813.68 209.024C813.68 209.828 813.332 210.632 812.9 211.208C812.684 211.508 812.408 211.796 812.084 212.096C811.424 212.684 810.956 212.996 810.272 213.428L809.348 214.004H813.992V215H807.452V214.184L809.276 212.972C809.6 212.768 809.828 212.612 809.96 212.516C810.092 212.432 810.308 212.276 810.596 212.072C810.884 211.868 811.1 211.688 811.244 211.556C811.376 211.424 811.556 211.256 811.76 211.04C812.312 210.44 812.516 209.888 812.576 209.132C812.576 208.04 811.868 207.548 810.824 207.548C810.176 207.548 809.66 207.728 809.288 208.088C808.916 208.448 808.664 208.88 808.556 209.372ZM814.824 210.8C814.824 209.504 815.124 208.46 815.736 207.68C816.336 206.9 817.224 206.504 818.388 206.504C820.776 206.504 821.964 208.076 821.964 210.8C821.964 212.108 821.664 213.14 821.076 213.92C820.476 214.7 819.588 215.096 818.412 215.096C817.284 215.096 816.408 214.7 815.772 213.908C815.136 213.116 814.824 212.084 814.824 210.8ZM815.928 210.8C815.928 212.852 816.864 214.076 818.412 214.076C820.044 214.076 820.86 212.984 820.86 210.8C820.86 208.616 820.032 207.524 818.388 207.524C816.72 207.524 815.928 208.724 815.928 210.8ZM823.82 209.372L822.944 209.06C823.244 207.572 824.372 206.504 826.16 206.504C827.888 206.504 828.944 207.5 828.944 209.024C828.944 209.828 828.596 210.632 828.164 211.208C827.948 211.508 827.672 211.796 827.348 212.096C826.688 212.684 826.22 212.996 825.536 213.428L824.612 214.004H829.256V215H822.716V214.184L824.54 212.972C824.864 212.768 825.092 212.612 825.224 212.516C825.356 212.432 825.572 212.276 825.86 212.072C826.148 211.868 826.364 211.688 826.508 211.556C826.64 211.424 826.82 211.256 827.024 211.04C827.576 210.44 827.78 209.888 827.84 209.132C827.84 208.04 827.132 207.548 826.088 207.548C825.44 207.548 824.924 207.728 824.552 208.088C824.18 208.448 823.928 208.88 823.82 209.372ZM831.048 209.372L830.172 209.06C830.472 207.572 831.6 206.504 833.388 206.504C835.116 206.504 836.172 207.5 836.172 209.024C836.172 209.828 835.824 210.632 835.392 211.208C835.176 211.508 834.9 211.796 834.576 212.096C833.916 212.684 833.448 212.996 832.764 213.428L831.84 214.004H836.484V215H829.944V214.184L831.768 212.972C832.092 212.768 832.32 212.612 832.452 212.516C832.584 212.432 832.8 212.276 833.088 212.072C833.376 211.868 833.592 211.688 833.736 211.556C833.868 211.424 834.048 211.256 834.252 211.04C834.804 210.44 835.008 209.888 835.068 209.132C835.068 208.04 834.36 207.548 833.316 207.548C832.668 207.548 832.152 207.728 831.78 208.088C831.408 208.448 831.156 208.88 831.048 209.372Z" fill="#76848D"/>
<path d="M195.609 209.372L194.733 209.06C195.033 207.572 196.161 206.504 197.949 206.504C199.677 206.504 200.733 207.5 200.733 209.024C200.733 209.828 200.385 210.632 199.953 211.208C199.737 211.508 199.461 211.796 199.137 212.096C198.477 212.684 198.009 212.996 197.325 213.428L196.401 214.004H201.045V215H194.505V214.184L196.329 212.972C196.653 212.768 196.881 212.612 197.013 212.516C197.145 212.432 197.361 212.276 197.649 212.072C197.937 211.868 198.153 211.688 198.297 211.556C198.429 211.424 198.609 211.256 198.813 211.04C199.365 210.44 199.569 209.888 199.629 209.132C199.629 208.04 198.921 207.548 197.877 207.548C197.229 207.548 196.713 207.728 196.341 208.088C195.969 208.448 195.717 208.88 195.609 209.372ZM201.877 210.8C201.877 209.504 202.177 208.46 202.789 207.68C203.389 206.9 204.277 206.504 205.441 206.504C207.829 206.504 209.017 208.076 209.017 210.8C209.017 212.108 208.717 213.14 208.129 213.92C207.529 214.7 206.641 215.096 205.465 215.096C204.337 215.096 203.461 214.7 202.825 213.908C202.189 213.116 201.877 212.084 201.877 210.8ZM202.981 210.8C202.981 212.852 203.917 214.076 205.465 214.076C207.097 214.076 207.913 212.984 207.913 210.8C207.913 208.616 207.085 207.524 205.441 207.524C203.773 207.524 202.981 208.724 202.981 210.8ZM209.817 208.832L209.433 207.932L212.313 206.552H212.997V215H211.965V207.836L209.817 208.832ZM219.339 207.62H214.251V206.6H220.623V207.284L216.447 215H215.307L219.339 207.62Z" fill="#76848D"/>
<path d="M685.363 209.372L684.487 209.06C684.787 207.572 685.915 206.504 687.703 206.504C689.431 206.504 690.487 207.5 690.487 209.024C690.487 209.828 690.139 210.632 689.707 211.208C689.491 211.508 689.215 211.796 688.891 212.096C688.231 212.684 687.763 212.996 687.079 213.428L686.155 214.004H690.799V215H684.259V214.184L686.083 212.972C686.407 212.768 686.635 212.612 686.767 212.516C686.899 212.432 687.115 212.276 687.403 212.072C687.691 211.868 687.907 211.688 688.051 211.556C688.183 211.424 688.363 211.256 688.567 211.04C689.119 210.44 689.323 209.888 689.383 209.132C689.383 208.04 688.675 207.548 687.631 207.548C686.983 207.548 686.467 207.728 686.095 208.088C685.723 208.448 685.471 208.88 685.363 209.372ZM691.631 210.8C691.631 209.504 691.931 208.46 692.543 207.68C693.143 206.9 694.031 206.504 695.195 206.504C697.583 206.504 698.771 208.076 698.771 210.8C698.771 212.108 698.471 213.14 697.883 213.92C697.283 214.7 696.395 215.096 695.219 215.096C694.091 215.096 693.215 214.7 692.579 213.908C691.943 213.116 691.631 212.084 691.631 210.8ZM692.735 210.8C692.735 212.852 693.671 214.076 695.219 214.076C696.851 214.076 697.667 212.984 697.667 210.8C697.667 208.616 696.839 207.524 695.195 207.524C693.527 207.524 692.735 208.724 692.735 210.8ZM700.627 209.372L699.751 209.06C700.051 207.572 701.179 206.504 702.967 206.504C704.695 206.504 705.751 207.5 705.751 209.024C705.751 209.828 705.403 210.632 704.971 211.208C704.755 211.508 704.479 211.796 704.155 212.096C703.495 212.684 703.027 212.996 702.343 213.428L701.419 214.004H706.063V215H699.523V214.184L701.347 212.972C701.671 212.768 701.899 212.612 702.031 212.516C702.163 212.432 702.379 212.276 702.667 212.072C702.955 211.868 703.171 211.688 703.315 211.556C703.447 211.424 703.627 211.256 703.831 211.04C704.383 210.44 704.587 209.888 704.647 209.132C704.647 208.04 703.939 207.548 702.895 207.548C702.247 207.548 701.731 207.728 701.359 208.088C700.987 208.448 700.735 208.88 700.627 209.372ZM706.799 208.832L706.415 207.932L709.295 206.552H709.979V215H708.947V207.836L706.799 208.832Z" fill="#76848D"/>
<path d="M439.035 209.372L438.159 209.06C438.459 207.572 439.587 206.504 441.375 206.504C443.103 206.504 444.159 207.5 444.159 209.024C444.159 209.828 443.811 210.632 443.379 211.208C443.163 211.508 442.887 211.796 442.563 212.096C441.903 212.684 441.435 212.996 440.751 213.428L439.827 214.004H444.471V215H437.931V214.184L439.755 212.972C440.079 212.768 440.307 212.612 440.439 212.516C440.571 212.432 440.787 212.276 441.075 212.072C441.363 211.868 441.579 211.688 441.723 211.556C441.855 211.424 442.035 211.256 442.239 211.04C442.791 210.44 442.995 209.888 443.055 209.132C443.055 208.04 442.347 207.548 441.303 207.548C440.655 207.548 440.139 207.728 439.767 208.088C439.395 208.448 439.143 208.88 439.035 209.372ZM445.303 210.8C445.303 209.504 445.603 208.46 446.215 207.68C446.815 206.9 447.703 206.504 448.867 206.504C451.255 206.504 452.443 208.076 452.443 210.8C452.443 212.108 452.143 213.14 451.555 213.92C450.955 214.7 450.067 215.096 448.891 215.096C447.763 215.096 446.887 214.7 446.251 213.908C445.615 213.116 445.303 212.084 445.303 210.8ZM446.407 210.8C446.407 212.852 447.343 214.076 448.891 214.076C450.523 214.076 451.339 212.984 451.339 210.8C451.339 208.616 450.511 207.524 448.867 207.524C447.199 207.524 446.407 208.724 446.407 210.8ZM453.243 208.832L452.859 207.932L455.739 206.552H456.423V215H455.391V207.836L453.243 208.832ZM464.937 210.644C464.937 212.072 464.601 213.176 463.917 213.944C463.233 214.724 462.321 215.108 461.181 215.108C459.789 215.108 458.697 214.52 458.157 213.62L459.021 213.02C459.501 213.692 460.377 214.076 461.325 214.076C462.105 214.076 462.729 213.764 463.221 213.14C463.713 212.528 463.917 211.76 463.857 210.848C463.461 211.76 462.465 212.432 461.133 212.432C460.197 212.432 459.429 212.168 458.829 211.628C458.217 211.1 457.917 210.404 457.917 209.552C457.917 208.616 458.241 207.872 458.889 207.32C459.537 206.768 460.401 206.492 461.469 206.492C463.629 206.492 464.937 208.004 464.937 210.644ZM463.677 209.516C463.497 208.4 462.729 207.524 461.349 207.524C459.909 207.524 459.021 208.268 459.021 209.516C459.021 210.704 459.921 211.4 461.325 211.4C461.961 211.4 462.501 211.208 462.921 210.824C463.341 210.44 463.593 210.008 463.677 209.516Z" fill="#76848D"/>
<path d="M928.527 209.372L927.651 209.06C927.951 207.572 929.079 206.504 930.867 206.504C932.595 206.504 933.651 207.5 933.651 209.024C933.651 209.828 933.303 210.632 932.871 211.208C932.655 211.508 932.379 211.796 932.055 212.096C931.395 212.684 930.927 212.996 930.243 213.428L929.319 214.004H933.963V215H927.423V214.184L929.247 212.972C929.571 212.768 929.799 212.612 929.931 212.516C930.063 212.432 930.279 212.276 930.567 212.072C930.855 211.868 931.071 211.688 931.215 211.556C931.347 211.424 931.527 211.256 931.731 211.04C932.283 210.44 932.487 209.888 932.547 209.132C932.547 208.04 931.839 207.548 930.795 207.548C930.147 207.548 929.631 207.728 929.259 208.088C928.887 208.448 928.635 208.88 928.527 209.372ZM934.795 210.8C934.795 209.504 935.095 208.46 935.707 207.68C936.307 206.9 937.195 206.504 938.359 206.504C940.747 206.504 941.935 208.076 941.935 210.8C941.935 212.108 941.635 213.14 941.047 213.92C940.447 214.7 939.559 215.096 938.383 215.096C937.255 215.096 936.379 214.7 935.743 213.908C935.107 213.116 934.795 212.084 934.795 210.8ZM935.899 210.8C935.899 212.852 936.835 214.076 938.383 214.076C940.015 214.076 940.831 212.984 940.831 210.8C940.831 208.616 940.003 207.524 938.359 207.524C936.691 207.524 935.899 208.724 935.899 210.8ZM943.791 209.372L942.915 209.06C943.215 207.572 944.343 206.504 946.131 206.504C947.859 206.504 948.915 207.5 948.915 209.024C948.915 209.828 948.567 210.632 948.135 211.208C947.919 211.508 947.643 211.796 947.319 212.096C946.659 212.684 946.191 212.996 945.507 213.428L944.583 214.004H949.227V215H942.687V214.184L944.511 212.972C944.835 212.768 945.063 212.612 945.195 212.516C945.327 212.432 945.543 212.276 945.831 212.072C946.119 211.868 946.335 211.688 946.479 211.556C946.611 211.424 946.791 211.256 946.995 211.04C947.547 210.44 947.751 209.888 947.811 209.132C947.811 208.04 947.103 207.548 946.059 207.548C945.411 207.548 944.895 207.728 944.523 208.088C944.151 208.448 943.899 208.88 943.791 209.372ZM950.887 209.048L949.987 208.64C950.431 207.344 951.595 206.492 953.335 206.492C954.163 206.492 954.847 206.684 955.375 207.068C955.903 207.452 956.167 207.968 956.167 208.604C956.167 209.576 955.651 210.296 954.691 210.572C955.615 210.632 956.359 211.328 956.359 212.576C956.359 213.368 956.071 213.992 955.495 214.436C954.919 214.88 954.187 215.108 953.287 215.108C951.451 215.108 950.179 214.232 949.759 212.852L950.731 212.432C951.247 213.524 952.123 214.076 953.359 214.076C954.523 214.076 955.255 213.536 955.255 212.588C955.255 211.664 954.535 211.196 953.095 211.196H952.159V210.2H952.903C954.211 210.2 955.063 209.612 955.063 208.808C955.063 207.98 954.379 207.512 953.287 207.512C952.003 207.512 951.223 208.172 950.887 209.048Z" fill="#76848D"/>
<path d="M1051.7 209.372L1050.82 209.06C1051.12 207.572 1052.25 206.504 1054.04 206.504C1055.77 206.504 1056.82 207.5 1056.82 209.024C1056.82 209.828 1056.47 210.632 1056.04 211.208C1055.83 211.508 1055.55 211.796 1055.23 212.096C1054.57 212.684 1054.1 212.996 1053.41 213.428L1052.49 214.004H1057.13V215H1050.59V214.184L1052.42 212.972C1052.74 212.768 1052.97 212.612 1053.1 212.516C1053.23 212.432 1053.45 212.276 1053.74 212.072C1054.03 211.868 1054.24 211.688 1054.39 211.556C1054.52 211.424 1054.7 211.256 1054.9 211.04C1055.45 210.44 1055.66 209.888 1055.72 209.132C1055.72 208.04 1055.01 207.548 1053.97 207.548C1053.32 207.548 1052.8 207.728 1052.43 208.088C1052.06 208.448 1051.81 208.88 1051.7 209.372ZM1057.97 210.8C1057.97 209.504 1058.27 208.46 1058.88 207.68C1059.48 206.9 1060.37 206.504 1061.53 206.504C1063.92 206.504 1065.11 208.076 1065.11 210.8C1065.11 212.108 1064.81 213.14 1064.22 213.92C1063.62 214.7 1062.73 215.096 1061.55 215.096C1060.43 215.096 1059.55 214.7 1058.91 213.908C1058.28 213.116 1057.97 212.084 1057.97 210.8ZM1059.07 210.8C1059.07 212.852 1060.01 214.076 1061.55 214.076C1063.19 214.076 1064 212.984 1064 210.8C1064 208.616 1063.17 207.524 1061.53 207.524C1059.86 207.524 1059.07 208.724 1059.07 210.8ZM1066.96 209.372L1066.09 209.06C1066.39 207.572 1067.51 206.504 1069.3 206.504C1071.03 206.504 1072.09 207.5 1072.09 209.024C1072.09 209.828 1071.74 210.632 1071.31 211.208C1071.09 211.508 1070.81 211.796 1070.49 212.096C1069.83 212.684 1069.36 212.996 1068.68 213.428L1067.75 214.004H1072.4V215H1065.86V214.184L1067.68 212.972C1068.01 212.768 1068.23 212.612 1068.37 212.516C1068.5 212.432 1068.71 212.276 1069 212.072C1069.29 211.868 1069.51 211.688 1069.65 211.556C1069.78 211.424 1069.96 211.256 1070.17 211.04C1070.72 210.44 1070.92 209.888 1070.98 209.132C1070.98 208.04 1070.27 207.548 1069.23 207.548C1068.58 207.548 1068.07 207.728 1067.69 208.088C1067.32 208.448 1067.07 208.88 1066.96 209.372ZM1079.03 215H1077.98V213.284H1072.85V212.588L1078.1 206.6H1079.03V212.312H1080.59V213.284H1079.03V215ZM1077.98 208.28L1074.29 212.312H1077.98V208.28Z" fill="#76848D"/>
<line x1="46" y1="98.5" x2="1139" y2="98.5" stroke="#ABBEC9"/>
<line x1="46" y1="65.5" x2="1139" y2="65.5" stroke="#CEE0ED"/>
<line x1="46" y1="163.5" x2="1139" y2="163.5" stroke="#CEE0ED"/>
<line x1="46" y1="198.5" x2="1139" y2="198.5" stroke="#CEE0ED"/>
<line x1="46" y1="33.5" x2="1139" y2="33.5" stroke="#CEE0ED"/>
<line x1="46" y1="132.5" x2="1139" y2="132.5" stroke="#CEE0ED"/>
<path d="M82 149C107.939 146.833 181.131 143.1 246.09 143.5C327.29 144 325.598 143.5 367.889 146C436.384 150.049 463.374 146.841 498.147 135.5C547.204 119.5 575.117 109.5 603.029 103.5C633.267 97 667.291 80 734.978 80C784.036 80 821.252 89 838.169 97C850.657 102.906 907.526 144 915.985 149C924.443 154 958.276 175 998.876 178.5C1035.37 181.646 1047.93 178.5 1075 183" stroke="#0085D0" stroke-width="3" stroke-linecap="round" stroke-linejoin="round"/>
<path d="M80 149.377C105.946 147.199 179.159 143.445 244.137 143.847C325.359 144.35 323.667 143.847 365.971 146.361C434.485 150.432 461.482 147.206 496.265 135.803C545.337 119.716 573.257 109.661 601.177 103.628C631.424 97.0929 665.457 80 733.164 80C782.236 80 819.463 89.0492 836.384 97.0929C848.875 103.031 905.762 144.35 914.222 149.377C922.683 154.404 946.373 172 985.292 172C1030.98 172 1048.65 167.5 1076 169.5" stroke="#737AF9" stroke-width="3" stroke-linecap="round" stroke-linejoin="round"/>
<path d="M80 148.623C105.946 146.468 179.159 142.755 244.137 143.153C325.359 143.65 323.667 143.153 365.97 145.639C434.485 149.666 461.482 146.476 496.264 135.197C545.336 119.284 573.256 109.339 601.177 103.372C631.424 96.9071 665.457 80 733.163 80C782.235 80 819.462 88.9508 836.383 96.9071C848.874 102.78 905.76 143.65 914.221 148.623C922.682 153.596 950.355 171 989.274 171C1034.96 171 1041.98 163.044 1078 159.563" stroke="#CDD3FB" stroke-width="3" stroke-linecap="round" stroke-linejoin="round"/>
<path d="M30.3821 193.62H25.2941V192.6H31.6661V193.284L27.4901 201H26.3501L30.3821 193.62ZM32.3056 196.8C32.3056 195.504 32.6056 194.46 33.2176 193.68C33.8176 192.9 34.7056 192.504 35.8696 192.504C38.2576 192.504 39.4456 194.076 39.4456 196.8C39.4456 198.108 39.1456 199.14 38.5576 199.92C37.9576 200.7 37.0696 201.096 35.8936 201.096C34.7656 201.096 33.8896 200.7 33.2536 199.908C32.6176 199.116 32.3056 198.084 32.3056 196.8ZM33.4096 196.8C33.4096 198.852 34.3456 200.076 35.8936 200.076C37.5256 200.076 38.3416 198.984 38.3416 196.8C38.3416 194.616 37.5136 193.524 35.8696 193.524C34.2016 193.524 33.4096 194.724 33.4096 196.8Z" fill="#76848D"/>
<path d="M27.3079 161.212H27.6799C28.2199 161.212 28.6639 161.08 29.0359 160.828C29.3959 160.576 29.5759 160.24 29.5759 159.844C29.5759 158.944 28.8679 158.488 27.4639 158.488C26.1199 158.488 25.3879 158.98 25.3879 159.844C25.3879 160.624 26.1919 161.212 27.3079 161.212ZM27.6559 162.16H27.3559C26.7079 162.16 26.1679 162.304 25.7479 162.58C25.3279 162.856 25.1119 163.204 25.1119 163.624C25.1119 164.536 25.9519 165.112 27.4759 165.112C29.0239 165.112 29.8519 164.56 29.8519 163.636C29.8519 162.712 28.9639 162.16 27.6559 162.16ZM30.0199 165.46C29.4079 165.892 28.5559 166.108 27.4879 166.108C26.4199 166.108 25.5679 165.892 24.9439 165.472C24.3199 165.052 24.0079 164.476 24.0079 163.732C24.0079 162.76 24.6439 161.992 25.6639 161.656C24.7399 161.356 24.2839 160.624 24.2839 159.772C24.2839 158.38 25.4599 157.492 27.4759 157.492C29.5039 157.492 30.6799 158.38 30.6799 159.772C30.6799 160.576 30.2359 161.188 29.3479 161.596C30.4159 161.92 30.9439 162.616 30.9439 163.684C30.9439 164.44 30.6319 165.04 30.0199 165.46ZM31.8798 161.8C31.8798 160.504 32.1798 159.46 32.7918 158.68C33.3918 157.9 34.2798 157.504 35.4438 157.504C37.8318 157.504 39.0198 159.076 39.0198 161.8C39.0198 163.108 38.7198 164.14 38.1318 164.92C37.5318 165.7 36.6438 166.096 35.4678 166.096C34.3398 166.096 33.4638 165.7 32.8278 164.908C32.1918 164.116 31.8798 163.084 31.8798 161.8ZM32.9838 161.8C32.9838 163.852 33.9198 165.076 35.4678 165.076C37.0998 165.076 37.9158 163.984 37.9158 161.8C37.9158 159.616 37.0878 158.524 35.4438 158.524C33.7758 158.524 32.9838 159.724 32.9838 161.8Z" fill="#76848D"/>
<path d="M30.9799 129.644C30.9799 131.072 30.6439 132.176 29.9599 132.944C29.2759 133.724 28.3639 134.108 27.2239 134.108C25.8319 134.108 24.7399 133.52 24.1999 132.62L25.0639 132.02C25.5439 132.692 26.4199 133.076 27.3679 133.076C28.1479 133.076 28.7719 132.764 29.2639 132.14C29.7559 131.528 29.9599 130.76 29.8999 129.848C29.5039 130.76 28.5079 131.432 27.1759 131.432C26.2399 131.432 25.4719 131.168 24.8719 130.628C24.2599 130.1 23.9599 129.404 23.9599 128.552C23.9599 127.616 24.2839 126.872 24.9319 126.32C25.5799 125.768 26.4439 125.492 27.5119 125.492C29.6719 125.492 30.9799 127.004 30.9799 129.644ZM29.7199 128.516C29.5399 127.4 28.7719 126.524 27.3919 126.524C25.9519 126.524 25.0639 127.268 25.0639 128.516C25.0639 129.704 25.9639 130.4 27.3679 130.4C28.0039 130.4 28.5439 130.208 28.9639 129.824C29.3839 129.44 29.6359 129.008 29.7199 128.516ZM31.8798 129.8C31.8798 128.504 32.1798 127.46 32.7918 126.68C33.3918 125.9 34.2798 125.504 35.4438 125.504C37.8318 125.504 39.0198 127.076 39.0198 129.8C39.0198 131.108 38.7198 132.14 38.1318 132.92C37.5318 133.7 36.6438 134.096 35.4678 134.096C34.3398 134.096 33.4638 133.7 32.8278 132.908C32.1918 132.116 31.8798 131.084 31.8798 129.8ZM32.9838 129.8C32.9838 131.852 33.9198 133.076 35.4678 133.076C37.0998 133.076 37.9158 131.984 37.9158 129.8C37.9158 127.616 37.0878 126.524 35.4438 126.524C33.7758 126.524 32.9838 127.724 32.9838 129.8Z" fill="#76848D"/>
<path d="M30.9799 129.644C30.9799 131.072 30.6439 132.176 29.9599 132.944C29.2759 133.724 28.3639 134.108 27.2239 134.108C25.8319 134.108 24.7399 133.52 24.1999 132.62L25.0639 132.02C25.5439 132.692 26.4199 133.076 27.3679 133.076C28.1479 133.076 28.7719 132.764 29.2639 132.14C29.7559 131.528 29.9599 130.76 29.8999 129.848C29.5039 130.76 28.5079 131.432 27.1759 131.432C26.2399 131.432 25.4719 131.168 24.8719 130.628C24.2599 130.1 23.9599 129.404 23.9599 128.552C23.9599 127.616 24.2839 126.872 24.9319 126.32C25.5799 125.768 26.4439 125.492 27.5119 125.492C29.6719 125.492 30.9799 127.004 30.9799 129.644ZM29.7199 128.516C29.5399 127.4 28.7719 126.524 27.3919 126.524C25.9519 126.524 25.0639 127.268 25.0639 128.516C25.0639 129.704 25.9639 130.4 27.3679 130.4C28.0039 130.4 28.5439 130.208 28.9639 129.824C29.3839 129.44 29.6359 129.008 29.7199 128.516ZM31.8798 129.8C31.8798 128.504 32.1798 127.46 32.7918 126.68C33.3918 125.9 34.2798 125.504 35.4438 125.504C37.8318 125.504 39.0198 127.076 39.0198 129.8C39.0198 131.108 38.7198 132.14 38.1318 132.92C37.5318 133.7 36.6438 134.096 35.4678 134.096C34.3398 134.096 33.4638 133.7 32.8278 132.908C32.1918 132.116 31.8798 131.084 31.8798 129.8ZM32.9838 129.8C32.9838 131.852 33.9198 133.076 35.4678 133.076C37.0998 133.076 37.9158 131.984 37.9158 129.8C37.9158 127.616 37.0878 126.524 35.4438 126.524C33.7758 126.524 32.9838 127.724 32.9838 129.8Z" fill="#76848D"/>
<path d="M19.5166 94.832L19.1326 93.932L22.0126 92.552H22.6966V101H21.6646V93.836L19.5166 94.832ZM24.2269 96.8C24.2269 95.504 24.5269 94.46 25.1389 93.68C25.7389 92.9 26.6269 92.504 27.7909 92.504C30.1789 92.504 31.3669 94.076 31.3669 96.8C31.3669 98.108 31.0669 99.14 30.4789 99.92C29.8789 100.7 28.9909 101.096 27.8149 101.096C26.6869 101.096 25.8109 100.7 25.1749 99.908C24.5389 99.116 24.2269 98.084 24.2269 96.8ZM25.3309 96.8C25.3309 98.852 26.2669 100.076 27.8149 100.076C29.4469 100.076 30.2629 98.984 30.2629 96.8C30.2629 94.616 29.4349 93.524 27.7909 93.524C26.1229 93.524 25.3309 94.724 25.3309 96.8ZM32.2632 96.8C32.2632 95.504 32.5632 94.46 33.1752 93.68C33.7752 92.9 34.6632 92.504 35.8272 92.504C38.2152 92.504 39.4032 94.076 39.4032 96.8C39.4032 98.108 39.1032 99.14 38.5152 99.92C37.9152 100.7 37.0272 101.096 35.8512 101.096C34.7232 101.096 33.8472 100.7 33.2112 99.908C32.5752 99.116 32.2632 98.084 32.2632 96.8ZM33.3672 96.8C33.3672 98.852 34.3032 100.076 35.8512 100.076C37.4832 100.076 38.2992 98.984 38.2992 96.8C38.2992 94.616 37.4712 93.524 35.8272 93.524C34.1592 93.524 33.3672 94.724 33.3672 96.8Z" fill="#76848D"/>
<path d="M46.42 84.832L46.036 83.932L48.916 82.552H49.6V91H48.568V83.836L46.42 84.832ZM58.1144 86.644C58.1144 88.072 57.7784 89.176 57.0944 89.944C56.4104 90.724 55.4984 91.108 54.3584 91.108C52.9664 91.108 51.8744 90.52 51.3344 89.62L52.1984 89.02C52.6784 89.692 53.5544 90.076 54.5024 90.076C55.2824 90.076 55.9064 89.764 56.3984 89.14C56.8904 88.528 57.0944 87.76 57.0344 86.848C56.6384 87.76 55.6424 88.432 54.3104 88.432C53.3744 88.432 52.6064 88.168 52.0064 87.628C51.3944 87.1 51.0944 86.404 51.0944 85.552C51.0944 84.616 51.4184 83.872 52.0664 83.32C52.7144 82.768 53.5784 82.492 54.6464 82.492C56.8064 82.492 58.1144 84.004 58.1144 86.644ZM56.8544 85.516C56.6744 84.4 55.9064 83.524 54.5264 83.524C53.0864 83.524 52.1984 84.268 52.1984 85.516C52.1984 86.704 53.0984 87.4 54.5024 87.4C55.1384 87.4 55.6784 87.208 56.0984 86.824C56.5184 86.44 56.7704 86.008 56.8544 85.516ZM62.3263 86.212H62.6983C63.2383 86.212 63.6823 86.08 64.0543 85.828C64.4143 85.576 64.5943 85.24 64.5943 84.844C64.5943 83.944 63.8863 83.488 62.4823 83.488C61.1383 83.488 60.4063 83.98 60.4063 84.844C60.4063 85.624 61.2103 86.212 62.3263 86.212ZM62.6743 87.16H62.3743C61.7263 87.16 61.1863 87.304 60.7663 87.58C60.3463 87.856 60.1303 88.204 60.1303 88.624C60.1303 89.536 60.9703 90.112 62.4943 90.112C64.0423 90.112 64.8703 89.56 64.8703 88.636C64.8703 87.712 63.9823 87.16 62.6743 87.16ZM65.0383 90.46C64.4263 90.892 63.5743 91.108 62.5063 91.108C61.4383 91.108 60.5863 90.892 59.9623 90.472C59.3383 90.052 59.0263 89.476 59.0263 88.732C59.0263 87.76 59.6623 86.992 60.6823 86.656C59.7583 86.356 59.3023 85.624 59.3023 84.772C59.3023 83.38 60.4783 82.492 62.4943 82.492C64.5223 82.492 65.6983 83.38 65.6983 84.772C65.6983 85.576 65.2543 86.188 64.3663 86.596C65.4343 86.92 65.9623 87.616 65.9623 88.684C65.9623 89.44 65.6503 90.04 65.0383 90.46ZM66.8982 86.8C66.8982 85.504 67.1982 84.46 67.8102 83.68C68.4102 82.9 69.2982 82.504 70.4622 82.504C72.8502 82.504 74.0382 84.076 74.0382 86.8C74.0382 88.108 73.7382 89.14 73.1502 89.92C72.5502 90.7 71.6622 91.096 70.4862 91.096C69.3582 91.096 68.4822 90.7 67.8462 89.908C67.2102 89.116 66.8982 88.084 66.8982 86.8ZM68.0022 86.8C68.0022 88.852 68.9382 90.076 70.4862 90.076C72.1182 90.076 72.9342 88.984 72.9342 86.8C72.9342 84.616 72.1062 83.524 70.4622 83.524C68.7942 83.524 68.0022 84.724 68.0022 86.8ZM84.0881 86.056H78.7121V85.168H84.0881V86.056ZM84.0881 88.204H78.7121V87.316H84.0881V88.204ZM88.6698 84.832L88.2858 83.932L91.1658 82.552H91.8498V91H90.8178V83.836L88.6698 84.832ZM93.3802 86.8C93.3802 85.504 93.6802 84.46 94.2922 83.68C94.8922 82.9 95.7802 82.504 96.9442 82.504C99.3322 82.504 100.52 84.076 100.52 86.8C100.52 88.108 100.22 89.14 99.6322 89.92C99.0322 90.7 98.1442 91.096 96.9682 91.096C95.8402 91.096 94.9642 90.7 94.3282 89.908C93.6922 89.116 93.3802 88.084 93.3802 86.8ZM94.4842 86.8C94.4842 88.852 95.4202 90.076 96.9682 90.076C98.6002 90.076 99.4162 88.984 99.4162 86.8C99.4162 84.616 98.5882 83.524 96.9442 83.524C95.2762 83.524 94.4842 84.724 94.4842 86.8ZM101.416 86.8C101.416 85.504 101.716 84.46 102.328 83.68C102.928 82.9 103.816 82.504 104.98 82.504C107.368 82.504 108.556 84.076 108.556 86.8C108.556 88.108 108.256 89.14 107.668 89.92C107.068 90.7 106.18 91.096 105.004 91.096C103.876 91.096 103 90.7 102.364 89.908C101.728 89.116 101.416 88.084 101.416 86.8ZM102.52 86.8C102.52 88.852 103.456 90.076 105.004 90.076C106.636 90.076 107.452 88.984 107.452 86.8C107.452 84.616 106.624 83.524 104.98 83.524C103.312 83.524 102.52 84.724 102.52 86.8Z" fill="#3C525E"/>
<path d="M20.7275 61.832L20.3435 60.932L23.2235 59.552H23.9075V68H22.8755V60.836L20.7275 61.832ZM25.3419 61.832L24.9579 60.932L27.8379 59.552H28.5219V68H27.4899V60.836L25.3419 61.832ZM30.0523 63.8C30.0523 62.504 30.3523 61.46 30.9643 60.68C31.5643 59.9 32.4523 59.504 33.6163 59.504C36.0043 59.504 37.1923 61.076 37.1923 63.8C37.1923 65.108 36.8923 66.14 36.3043 66.92C35.7043 67.7 34.8163 68.096 33.6403 68.096C32.5123 68.096 31.6363 67.7 31.0003 66.908C30.3643 66.116 30.0523 65.084 30.0523 63.8ZM31.1563 63.8C31.1563 65.852 32.0923 67.076 33.6403 67.076C35.2723 67.076 36.0883 65.984 36.0883 63.8C36.0883 61.616 35.2603 60.524 33.6163 60.524C31.9483 60.524 31.1563 61.724 31.1563 63.8Z" fill="#76848D"/>
<path d="M19.4209 29.832L19.0369 28.932L21.9169 27.552H22.6009V36H21.5689V28.836L19.4209 29.832ZM25.0912 30.372L24.2152 30.06C24.5152 28.572 25.6432 27.504 27.4312 27.504C29.1592 27.504 30.2152 28.5 30.2152 30.024C30.2152 30.828 29.8672 31.632 29.4352 32.208C29.2192 32.508 28.9432 32.796 28.6192 33.096C27.9592 33.684 27.4912 33.996 26.8072 34.428L25.8832 35.004H30.5272V36H23.9872V35.184L25.8112 33.972C26.1352 33.768 26.3632 33.612 26.4952 33.516C26.6272 33.432 26.8432 33.276 27.1312 33.072C27.4192 32.868 27.6352 32.688 27.7792 32.556C27.9112 32.424 28.0912 32.256 28.2952 32.04C28.8472 31.44 29.0512 30.888 29.1112 30.132C29.1112 29.04 28.4032 28.548 27.3592 28.548C26.7112 28.548 26.1952 28.728 25.8232 29.088C25.4512 29.448 25.1992 29.88 25.0912 30.372ZM31.3589 31.8C31.3589 30.504 31.6589 29.46 32.2709 28.68C32.8709 27.9 33.7589 27.504 34.9229 27.504C37.3109 27.504 38.4989 29.076 38.4989 31.8C38.4989 33.108 38.1989 34.14 37.6109 34.92C37.0109 35.7 36.1229 36.096 34.9469 36.096C33.8189 36.096 32.9429 35.7 32.3069 34.908C31.6709 34.116 31.3589 33.084 31.3589 31.8ZM32.4629 31.8C32.4629 33.852 33.3989 35.076 34.9469 35.076C36.5789 35.076 37.3949 33.984 37.3949 31.8C37.3949 29.616 36.5669 28.524 34.9229 28.524C33.2549 28.524 32.4629 29.724 32.4629 31.8Z" fill="#76848D"/>
<defs>
<radialGradient id="paint0_radial_6003_39896" cx="0" cy="0" r="1" gradientUnits="userSpaceOnUse" gradientTransform="translate(1139 199) rotate(-131.698) scale(220.984 291.395)">
<stop stop-color="#C4FFF1"/>
<stop offset="0.625" stop-color="#A9D2B7" stop-opacity="0"/>
</radialGradient>
</defs>
</svg>
