<svg width="1120" height="296" viewBox="0 0 1120 296" fill="none" xmlns="http://www.w3.org/2000/svg">
<line x1="25" y1="180.5" x2="1120" y2="180.5" stroke="#CEE0ED"/>
<line x1="25" y1="94.5" x2="1120" y2="94.5001" stroke="#CEE0ED"/>
<line x1="25" y1="8.5" x2="1120" y2="8.50007" stroke="#CEE0ED"/>
<path d="M45.535 38.804L45.087 37.754L48.447 36.144H49.245V46H48.041V37.642L45.535 38.804ZM57.7924 46H56.5744V43.998H50.5824V43.186L56.7144 36.2H57.7924V42.864H59.6124V43.998H57.7924V46ZM56.5744 38.16L52.2624 42.864H56.5744V38.16ZM61.2346 46C60.7166 46.056 60.3246 45.762 60.3246 45.258C60.3246 44.768 60.6326 44.46 61.1786 44.46C61.7946 44.46 62.2006 44.88 62.2006 45.664C62.2006 47.064 61.4306 47.778 60.4086 48.016L60.1146 47.358C60.4226 47.274 60.7026 47.106 60.9546 46.84C61.1926 46.574 61.2906 46.294 61.2346 46ZM67.0831 40.414H67.5171C68.1471 40.414 68.6651 40.26 69.0991 39.966C69.5191 39.672 69.7291 39.28 69.7291 38.818C69.7291 37.768 68.9031 37.236 67.2651 37.236C65.6971 37.236 64.8431 37.81 64.8431 38.818C64.8431 39.728 65.7811 40.414 67.0831 40.414ZM67.4891 41.52H67.1391C66.3831 41.52 65.7531 41.688 65.2631 42.01C64.7731 42.332 64.5211 42.738 64.5211 43.228C64.5211 44.292 65.5011 44.964 67.2791 44.964C69.0851 44.964 70.0511 44.32 70.0511 43.242C70.0511 42.164 69.0151 41.52 67.4891 41.52ZM70.2471 45.37C69.5331 45.874 68.5391 46.126 67.2931 46.126C66.0471 46.126 65.0531 45.874 64.3251 45.384C63.5971 44.894 63.2331 44.222 63.2331 43.354C63.2331 42.22 63.9751 41.324 65.1651 40.932C64.0871 40.582 63.5551 39.728 63.5551 38.734C63.5551 37.11 64.9271 36.074 67.2791 36.074C69.6451 36.074 71.0171 37.11 71.0171 38.734C71.0171 39.672 70.4991 40.386 69.4631 40.862C70.7091 41.24 71.3251 42.052 71.3251 43.298C71.3251 44.18 70.9611 44.88 70.2471 45.37Z" fill="#2A3C3C"/>
<path d="M45.535 38.804L45.087 37.754L48.447 36.144H49.245V46H48.041V37.642L45.535 38.804ZM57.7924 46H56.5744V43.998H50.5824V43.186L56.7144 36.2H57.7924V42.864H59.6124V43.998H57.7924V46ZM56.5744 38.16L52.2624 42.864H56.5744V38.16ZM61.2346 46C60.7166 46.056 60.3246 45.762 60.3246 45.258C60.3246 44.768 60.6326 44.46 61.1786 44.46C61.7946 44.46 62.2006 44.88 62.2006 45.664C62.2006 47.064 61.4306 47.778 60.4086 48.016L60.1146 47.358C60.4226 47.274 60.7026 47.106 60.9546 46.84C61.1926 46.574 61.2906 46.294 61.2346 46ZM67.0831 40.414H67.5171C68.1471 40.414 68.6651 40.26 69.0991 39.966C69.5191 39.672 69.7291 39.28 69.7291 38.818C69.7291 37.768 68.9031 37.236 67.2651 37.236C65.6971 37.236 64.8431 37.81 64.8431 38.818C64.8431 39.728 65.7811 40.414 67.0831 40.414ZM67.4891 41.52H67.1391C66.3831 41.52 65.7531 41.688 65.2631 42.01C64.7731 42.332 64.5211 42.738 64.5211 43.228C64.5211 44.292 65.5011 44.964 67.2791 44.964C69.0851 44.964 70.0511 44.32 70.0511 43.242C70.0511 42.164 69.0151 41.52 67.4891 41.52ZM70.2471 45.37C69.5331 45.874 68.5391 46.126 67.2931 46.126C66.0471 46.126 65.0531 45.874 64.3251 45.384C63.5971 44.894 63.2331 44.222 63.2331 43.354C63.2331 42.22 63.9751 41.324 65.1651 40.932C64.0871 40.582 63.5551 39.728 63.5551 38.734C63.5551 37.11 64.9271 36.074 67.2791 36.074C69.6451 36.074 71.0171 37.11 71.0171 38.734C71.0171 39.672 70.4991 40.386 69.4631 40.862C70.7091 41.24 71.3251 42.052 71.3251 43.298C71.3251 44.18 70.9611 44.88 70.2471 45.37Z" fill="#1A3341"/>
<path d="M52.1307 276.8C52.1307 275.504 52.4307 274.46 53.0427 273.68C53.6427 272.9 54.5307 272.504 55.6947 272.504C58.0827 272.504 59.2707 274.076 59.2707 276.8C59.2707 278.108 58.9707 279.14 58.3827 279.92C57.7827 280.7 56.8947 281.096 55.7187 281.096C54.5907 281.096 53.7147 280.7 53.0787 279.908C52.4427 279.116 52.1307 278.084 52.1307 276.8ZM53.2347 276.8C53.2347 278.852 54.1707 280.076 55.7187 280.076C57.3507 280.076 58.1667 278.984 58.1667 276.8C58.1667 274.616 57.3387 273.524 55.6947 273.524C54.0267 273.524 53.2347 274.724 53.2347 276.8ZM60.0709 274.832L59.6869 273.932L62.5669 272.552H63.2509V281H62.2189V273.836L60.0709 274.832ZM44.5564 289.372L43.6804 289.06C43.9804 287.572 45.1084 286.504 46.8964 286.504C48.6244 286.504 49.6804 287.5 49.6804 289.024C49.6804 289.828 49.3324 290.632 48.9004 291.208C48.6844 291.508 48.4084 291.796 48.0844 292.096C47.4244 292.684 46.9564 292.996 46.2724 293.428L45.3484 294.004H49.9924V295H43.4524V294.184L45.2764 292.972C45.6004 292.768 45.8284 292.612 45.9604 292.516C46.0924 292.432 46.3084 292.276 46.5964 292.072C46.8844 291.868 47.1004 291.688 47.2444 291.556C47.3764 291.424 47.5564 291.256 47.7604 291.04C48.3124 290.44 48.5164 289.888 48.5764 289.132C48.5764 288.04 47.8684 287.548 46.8244 287.548C46.1764 287.548 45.6604 287.728 45.2884 288.088C44.9164 288.448 44.6644 288.88 44.5564 289.372ZM50.824 290.8C50.824 289.504 51.124 288.46 51.736 287.68C52.336 286.9 53.224 286.504 54.388 286.504C56.776 286.504 57.964 288.076 57.964 290.8C57.964 292.108 57.664 293.14 57.076 293.92C56.476 294.7 55.588 295.096 54.412 295.096C53.284 295.096 52.408 294.7 51.772 293.908C51.136 293.116 50.824 292.084 50.824 290.8ZM51.928 290.8C51.928 292.852 52.864 294.076 54.412 294.076C56.044 294.076 56.86 292.984 56.86 290.8C56.86 288.616 56.032 287.524 54.388 287.524C52.72 287.524 51.928 288.724 51.928 290.8ZM59.8203 289.372L58.9443 289.06C59.2443 287.572 60.3723 286.504 62.1603 286.504C63.8883 286.504 64.9443 287.5 64.9443 289.024C64.9443 289.828 64.5963 290.632 64.1643 291.208C63.9483 291.508 63.6723 291.796 63.3483 292.096C62.6883 292.684 62.2203 292.996 61.5363 293.428L60.6123 294.004H65.2563V295H58.7163V294.184L60.5403 292.972C60.8643 292.768 61.0923 292.612 61.2243 292.516C61.3563 292.432 61.5723 292.276 61.8603 292.072C62.1483 291.868 62.3643 291.688 62.5083 291.556C62.6403 291.424 62.8203 291.256 63.0243 291.04C63.5763 290.44 63.7803 289.888 63.8403 289.132C63.8403 288.04 63.1323 287.548 62.0883 287.548C61.4403 287.548 60.9243 287.728 60.5523 288.088C60.1803 288.448 59.9283 288.88 59.8203 289.372ZM67.048 289.372L66.172 289.06C66.472 287.572 67.6 286.504 69.388 286.504C71.116 286.504 72.172 287.5 72.172 289.024C72.172 289.828 71.824 290.632 71.392 291.208C71.176 291.508 70.9 291.796 70.576 292.096C69.916 292.684 69.448 292.996 68.764 293.428L67.84 294.004H72.484V295H65.944V294.184L67.768 292.972C68.092 292.768 68.32 292.612 68.452 292.516C68.584 292.432 68.8 292.276 69.088 292.072C69.376 291.868 69.592 291.688 69.736 291.556C69.868 291.424 70.048 291.256 70.252 291.04C70.804 290.44 71.008 289.888 71.068 289.132C71.068 288.04 70.36 287.548 69.316 287.548C68.668 287.548 68.152 287.728 67.78 288.088C67.408 288.448 67.156 288.88 67.048 289.372Z" fill="#76848D"/>
<path d="M91.952 167.804L91.504 166.754L94.864 165.144H95.662V175H94.458V166.642L91.952 167.804ZM98.5674 168.434L97.5454 168.07C97.8954 166.334 99.2114 165.088 101.297 165.088C103.313 165.088 104.545 166.25 104.545 168.028C104.545 168.966 104.139 169.904 103.635 170.576C103.383 170.926 103.061 171.262 102.683 171.612C101.913 172.298 101.367 172.662 100.569 173.166L99.4914 173.838H104.909V175H97.2794V174.048L99.4074 172.634C99.7854 172.396 100.051 172.214 100.205 172.102C100.359 172.004 100.611 171.822 100.947 171.584C101.283 171.346 101.535 171.136 101.703 170.982C101.857 170.828 102.067 170.632 102.305 170.38C102.949 169.68 103.187 169.036 103.257 168.154C103.257 166.88 102.431 166.306 101.213 166.306C100.457 166.306 99.8554 166.516 99.4214 166.936C98.9874 167.356 98.6934 167.86 98.5674 168.434ZM106.818 175C106.3 175.056 105.908 174.762 105.908 174.258C105.908 173.768 106.216 173.46 106.762 173.46C107.378 173.46 107.784 173.88 107.784 174.664C107.784 176.064 107.014 176.778 105.992 177.016L105.698 176.358C106.006 176.274 106.286 176.106 106.538 175.84C106.776 175.574 106.874 175.294 106.818 175ZM112.666 169.414H113.1C113.73 169.414 114.248 169.26 114.682 168.966C115.102 168.672 115.312 168.28 115.312 167.818C115.312 166.768 114.486 166.236 112.848 166.236C111.28 166.236 110.426 166.81 110.426 167.818C110.426 168.728 111.364 169.414 112.666 169.414ZM113.072 170.52H112.722C111.966 170.52 111.336 170.688 110.846 171.01C110.356 171.332 110.104 171.738 110.104 172.228C110.104 173.292 111.084 173.964 112.862 173.964C114.668 173.964 115.634 173.32 115.634 172.242C115.634 171.164 114.598 170.52 113.072 170.52ZM115.83 174.37C115.116 174.874 114.122 175.126 112.876 175.126C111.63 175.126 110.636 174.874 109.908 174.384C109.18 173.894 108.816 173.222 108.816 172.354C108.816 171.22 109.558 170.324 110.748 169.932C109.67 169.582 109.138 168.728 109.138 167.734C109.138 166.11 110.51 165.074 112.862 165.074C115.228 165.074 116.6 166.11 116.6 167.734C116.6 168.672 116.082 169.386 115.046 169.862C116.292 170.24 116.908 171.052 116.908 172.298C116.908 173.18 116.544 173.88 115.83 174.37Z" fill="#2A3C3C"/>
<path d="M91.952 167.804L91.504 166.754L94.864 165.144H95.662V175H94.458V166.642L91.952 167.804ZM98.5674 168.434L97.5454 168.07C97.8954 166.334 99.2114 165.088 101.297 165.088C103.313 165.088 104.545 166.25 104.545 168.028C104.545 168.966 104.139 169.904 103.635 170.576C103.383 170.926 103.061 171.262 102.683 171.612C101.913 172.298 101.367 172.662 100.569 173.166L99.4914 173.838H104.909V175H97.2794V174.048L99.4074 172.634C99.7854 172.396 100.051 172.214 100.205 172.102C100.359 172.004 100.611 171.822 100.947 171.584C101.283 171.346 101.535 171.136 101.703 170.982C101.857 170.828 102.067 170.632 102.305 170.38C102.949 169.68 103.187 169.036 103.257 168.154C103.257 166.88 102.431 166.306 101.213 166.306C100.457 166.306 99.8554 166.516 99.4214 166.936C98.9874 167.356 98.6934 167.86 98.5674 168.434ZM106.818 175C106.3 175.056 105.908 174.762 105.908 174.258C105.908 173.768 106.216 173.46 106.762 173.46C107.378 173.46 107.784 173.88 107.784 174.664C107.784 176.064 107.014 176.778 105.992 177.016L105.698 176.358C106.006 176.274 106.286 176.106 106.538 175.84C106.776 175.574 106.874 175.294 106.818 175ZM112.666 169.414H113.1C113.73 169.414 114.248 169.26 114.682 168.966C115.102 168.672 115.312 168.28 115.312 167.818C115.312 166.768 114.486 166.236 112.848 166.236C111.28 166.236 110.426 166.81 110.426 167.818C110.426 168.728 111.364 169.414 112.666 169.414ZM113.072 170.52H112.722C111.966 170.52 111.336 170.688 110.846 171.01C110.356 171.332 110.104 171.738 110.104 172.228C110.104 173.292 111.084 173.964 112.862 173.964C114.668 173.964 115.634 173.32 115.634 172.242C115.634 171.164 114.598 170.52 113.072 170.52ZM115.83 174.37C115.116 174.874 114.122 175.126 112.876 175.126C111.63 175.126 110.636 174.874 109.908 174.384C109.18 173.894 108.816 173.222 108.816 172.354C108.816 171.22 109.558 170.324 110.748 169.932C109.67 169.582 109.138 168.728 109.138 167.734C109.138 166.11 110.51 165.074 112.862 165.074C115.228 165.074 116.6 166.11 116.6 167.734C116.6 168.672 116.082 169.386 115.046 169.862C116.292 170.24 116.908 171.052 116.908 172.298C116.908 173.18 116.544 173.88 115.83 174.37Z" fill="#1A3341"/>
<path d="M96.824 276.8C96.824 275.504 97.124 274.46 97.736 273.68C98.336 272.9 99.224 272.504 100.388 272.504C102.776 272.504 103.964 274.076 103.964 276.8C103.964 278.108 103.664 279.14 103.076 279.92C102.476 280.7 101.588 281.096 100.412 281.096C99.284 281.096 98.408 280.7 97.772 279.908C97.136 279.116 96.824 278.084 96.824 276.8ZM97.928 276.8C97.928 278.852 98.864 280.076 100.412 280.076C102.044 280.076 102.86 278.984 102.86 276.8C102.86 274.616 102.032 273.524 100.388 273.524C98.72 273.524 97.928 274.724 97.928 276.8ZM105.82 275.372L104.944 275.06C105.244 273.572 106.372 272.504 108.16 272.504C109.888 272.504 110.944 273.5 110.944 275.024C110.944 275.828 110.596 276.632 110.164 277.208C109.948 277.508 109.672 277.796 109.348 278.096C108.688 278.684 108.22 278.996 107.536 279.428L106.612 280.004H111.256V281H104.716V280.184L106.54 278.972C106.864 278.768 107.092 278.612 107.224 278.516C107.356 278.432 107.572 278.276 107.86 278.072C108.148 277.868 108.364 277.688 108.508 277.556C108.64 277.424 108.82 277.256 109.024 277.04C109.576 276.44 109.78 275.888 109.84 275.132C109.84 274.04 109.132 273.548 108.088 273.548C107.44 273.548 106.924 273.728 106.552 274.088C106.18 274.448 105.928 274.88 105.82 275.372Z" fill="#76848D"/>
<path d="M137.719 23.804L137.271 22.754L140.631 21.144H141.429V31H140.225V22.642L137.719 23.804ZM144.642 26.492L143.634 26.226L144.208 21.2H150.368V22.39H145.286L144.922 25.022C145.412 24.658 146.154 24.476 147.148 24.476C148.296 24.476 149.192 24.784 149.85 25.386C150.494 26.002 150.816 26.786 150.816 27.752C150.816 28.718 150.452 29.53 149.738 30.16C149.01 30.804 148.1 31.126 147.022 31.126C145.188 31.126 143.662 30.258 143.032 28.732L144.152 28.256C144.558 29.194 145.608 29.936 147.022 29.936C148.632 29.936 149.528 29.012 149.528 27.794C149.528 26.492 148.478 25.652 146.812 25.652C145.916 25.652 145.188 25.932 144.642 26.492ZM152.817 31C152.299 31.056 151.907 30.762 151.907 30.258C151.907 29.768 152.215 29.46 152.761 29.46C153.377 29.46 153.783 29.88 153.783 30.664C153.783 32.064 153.013 32.778 151.991 33.016L151.697 32.358C152.005 32.274 152.285 32.106 152.537 31.84C152.775 31.574 152.873 31.294 152.817 31ZM155.921 24.434L154.899 24.07C155.249 22.334 156.565 21.088 158.651 21.088C160.667 21.088 161.899 22.25 161.899 24.028C161.899 24.966 161.493 25.904 160.989 26.576C160.737 26.926 160.415 27.262 160.037 27.612C159.267 28.298 158.721 28.662 157.923 29.166L156.845 29.838H162.263V31H154.633V30.048L156.761 28.634C157.139 28.396 157.405 28.214 157.559 28.102C157.713 28.004 157.965 27.822 158.301 27.584C158.637 27.346 158.889 27.136 159.057 26.982C159.211 26.828 159.421 26.632 159.659 26.38C160.303 25.68 160.541 25.036 160.611 24.154C160.611 22.88 159.785 22.306 158.567 22.306C157.811 22.306 157.209 22.516 156.775 22.936C156.341 23.356 156.047 23.86 155.921 24.434Z" fill="#2A3C3C"/>
<path d="M137.719 23.804L137.271 22.754L140.631 21.144H141.429V31H140.225V22.642L137.719 23.804ZM144.642 26.492L143.634 26.226L144.208 21.2H150.368V22.39H145.286L144.922 25.022C145.412 24.658 146.154 24.476 147.148 24.476C148.296 24.476 149.192 24.784 149.85 25.386C150.494 26.002 150.816 26.786 150.816 27.752C150.816 28.718 150.452 29.53 149.738 30.16C149.01 30.804 148.1 31.126 147.022 31.126C145.188 31.126 143.662 30.258 143.032 28.732L144.152 28.256C144.558 29.194 145.608 29.936 147.022 29.936C148.632 29.936 149.528 29.012 149.528 27.794C149.528 26.492 148.478 25.652 146.812 25.652C145.916 25.652 145.188 25.932 144.642 26.492ZM152.817 31C152.299 31.056 151.907 30.762 151.907 30.258C151.907 29.768 152.215 29.46 152.761 29.46C153.377 29.46 153.783 29.88 153.783 30.664C153.783 32.064 153.013 32.778 151.991 33.016L151.697 32.358C152.005 32.274 152.285 32.106 152.537 31.84C152.775 31.574 152.873 31.294 152.817 31ZM155.921 24.434L154.899 24.07C155.249 22.334 156.565 21.088 158.651 21.088C160.667 21.088 161.899 22.25 161.899 24.028C161.899 24.966 161.493 25.904 160.989 26.576C160.737 26.926 160.415 27.262 160.037 27.612C159.267 28.298 158.721 28.662 157.923 29.166L156.845 29.838H162.263V31H154.633V30.048L156.761 28.634C157.139 28.396 157.405 28.214 157.559 28.102C157.713 28.004 157.965 27.822 158.301 27.584C158.637 27.346 158.889 27.136 159.057 26.982C159.211 26.828 159.421 26.632 159.659 26.38C160.303 25.68 160.541 25.036 160.611 24.154C160.611 22.88 159.785 22.306 158.567 22.306C157.811 22.306 157.209 22.516 156.775 22.936C156.341 23.356 156.047 23.86 155.921 24.434Z" fill="#1A3341"/>
<path d="M142.795 276.8C142.795 275.504 143.095 274.46 143.707 273.68C144.307 272.9 145.195 272.504 146.359 272.504C148.747 272.504 149.935 274.076 149.935 276.8C149.935 278.108 149.635 279.14 149.047 279.92C148.447 280.7 147.559 281.096 146.383 281.096C145.255 281.096 144.379 280.7 143.743 279.908C143.107 279.116 142.795 278.084 142.795 276.8ZM143.899 276.8C143.899 278.852 144.835 280.076 146.383 280.076C148.015 280.076 148.831 278.984 148.831 276.8C148.831 274.616 148.003 273.524 146.359 273.524C144.691 273.524 143.899 274.724 143.899 276.8ZM151.659 275.048L150.759 274.64C151.203 273.344 152.367 272.492 154.107 272.492C154.935 272.492 155.619 272.684 156.147 273.068C156.675 273.452 156.939 273.968 156.939 274.604C156.939 275.576 156.423 276.296 155.463 276.572C156.387 276.632 157.131 277.328 157.131 278.576C157.131 279.368 156.843 279.992 156.267 280.436C155.691 280.88 154.959 281.108 154.059 281.108C152.223 281.108 150.951 280.232 150.531 278.852L151.503 278.432C152.019 279.524 152.895 280.076 154.131 280.076C155.295 280.076 156.027 279.536 156.027 278.588C156.027 277.664 155.307 277.196 153.867 277.196H152.931V276.2H153.675C154.983 276.2 155.835 275.612 155.835 274.808C155.835 273.98 155.151 273.512 154.059 273.512C152.775 273.512 151.995 274.172 151.659 275.048Z" fill="#76848D"/>
<path d="M183.802 94.804L183.354 93.754L186.714 92.144H187.512V102H186.308V93.642L183.802 94.804ZM196.059 102H194.841V99.998H188.849V99.186L194.981 92.2H196.059V98.864H197.879V99.998H196.059V102ZM194.841 94.16L190.529 98.864H194.841V94.16ZM199.501 102C198.983 102.056 198.591 101.762 198.591 101.258C198.591 100.768 198.899 100.46 199.445 100.46C200.061 100.46 200.467 100.88 200.467 101.664C200.467 103.064 199.697 103.778 198.675 104.016L198.381 103.358C198.689 103.274 198.969 103.106 199.221 102.84C199.459 102.574 199.557 102.294 199.501 102ZM202.914 97.492L201.906 97.226L202.48 92.2H208.64V93.39H203.558L203.194 96.022C203.684 95.658 204.426 95.476 205.42 95.476C206.568 95.476 207.464 95.784 208.122 96.386C208.766 97.002 209.088 97.786 209.088 98.752C209.088 99.718 208.724 100.53 208.01 101.16C207.282 101.804 206.372 102.126 205.294 102.126C203.46 102.126 201.934 101.258 201.304 99.732L202.424 99.256C202.83 100.194 203.88 100.936 205.294 100.936C206.904 100.936 207.8 100.012 207.8 98.794C207.8 97.492 206.75 96.652 205.084 96.652C204.188 96.652 203.46 96.932 202.914 97.492Z" fill="#2A3C3C"/>
<path d="M183.802 94.804L183.354 93.754L186.714 92.144H187.512V102H186.308V93.642L183.802 94.804ZM196.059 102H194.841V99.998H188.849V99.186L194.981 92.2H196.059V98.864H197.879V99.998H196.059V102ZM194.841 94.16L190.529 98.864H194.841V94.16ZM199.501 102C198.983 102.056 198.591 101.762 198.591 101.258C198.591 100.768 198.899 100.46 199.445 100.46C200.061 100.46 200.467 100.88 200.467 101.664C200.467 103.064 199.697 103.778 198.675 104.016L198.381 103.358C198.689 103.274 198.969 103.106 199.221 102.84C199.459 102.574 199.557 102.294 199.501 102ZM202.914 97.492L201.906 97.226L202.48 92.2H208.64V93.39H203.558L203.194 96.022C203.684 95.658 204.426 95.476 205.42 95.476C206.568 95.476 207.464 95.784 208.122 96.386C208.766 97.002 209.088 97.786 209.088 98.752C209.088 99.718 208.724 100.53 208.01 101.16C207.282 101.804 206.372 102.126 205.294 102.126C203.46 102.126 201.934 101.258 201.304 99.732L202.424 99.256C202.83 100.194 203.88 100.936 205.294 100.936C206.904 100.936 207.8 100.012 207.8 98.794C207.8 97.492 206.75 96.652 205.084 96.652C204.188 96.652 203.46 96.932 202.914 97.492Z" fill="#1A3341"/>
<path d="M188.467 276.8C188.467 275.504 188.767 274.46 189.379 273.68C189.979 272.9 190.867 272.504 192.031 272.504C194.419 272.504 195.607 274.076 195.607 276.8C195.607 278.108 195.307 279.14 194.719 279.92C194.119 280.7 193.231 281.096 192.055 281.096C190.927 281.096 190.051 280.7 189.415 279.908C188.779 279.116 188.467 278.084 188.467 276.8ZM189.571 276.8C189.571 278.852 190.507 280.076 192.055 280.076C193.687 280.076 194.503 278.984 194.503 276.8C194.503 274.616 193.675 273.524 192.031 273.524C190.363 273.524 189.571 274.724 189.571 276.8ZM202.299 281H201.255V279.284H196.119V278.588L201.375 272.6H202.299V278.312H203.859V279.284H202.299V281ZM201.255 274.28L197.559 278.312H201.255V274.28Z" fill="#76848D"/>
<path d="M228.849 2.804L228.401 1.754L231.761 0.143999H232.559V10H231.355V1.642L228.849 2.804ZM235.773 5.492L234.765 5.226L235.339 0.199999H241.499V1.39H236.417L236.053 4.022C236.543 3.658 237.285 3.476 238.279 3.476C239.427 3.476 240.323 3.784 240.981 4.386C241.625 5.002 241.947 5.786 241.947 6.752C241.947 7.718 241.583 8.53 240.869 9.16C240.141 9.804 239.231 10.126 238.153 10.126C236.319 10.126 234.793 9.258 234.163 7.732L235.283 7.256C235.689 8.194 236.739 8.936 238.153 8.936C239.763 8.936 240.659 8.012 240.659 6.794C240.659 5.492 239.609 4.652 237.943 4.652C237.047 4.652 236.319 4.932 235.773 5.492ZM243.948 10C243.43 10.056 243.038 9.762 243.038 9.258C243.038 8.768 243.346 8.46 243.892 8.46C244.508 8.46 244.914 8.88 244.914 9.664C244.914 11.064 244.144 11.778 243.122 12.016L242.828 11.358C243.136 11.274 243.416 11.106 243.668 10.84C243.906 10.574 244.004 10.294 243.948 10ZM245.932 5.366C245.932 3.672 246.352 2.37 247.178 1.446C248.004 0.535999 249.04 0.0739993 250.286 0.0739993C251.924 0.0739993 253.212 0.816 253.758 1.992L252.806 2.636C252.232 1.726 251.378 1.278 250.23 1.278C249.362 1.278 248.634 1.614 248.046 2.286C247.458 2.972 247.164 3.896 247.178 5.086C247.724 4.064 248.998 3.448 250.398 3.448C251.532 3.448 252.442 3.742 253.1 4.344C253.758 4.946 254.094 5.744 254.094 6.724C254.094 7.718 253.73 8.544 252.988 9.174C252.246 9.804 251.322 10.126 250.216 10.126C247.57 10.126 245.932 8.404 245.932 5.366ZM247.332 6.556C247.598 7.942 248.648 8.922 250.202 8.922C250.958 8.922 251.588 8.726 252.078 8.32C252.568 7.928 252.806 7.41 252.806 6.78C252.806 5.394 251.826 4.652 250.328 4.652C249.502 4.652 248.816 4.848 248.284 5.24C247.738 5.632 247.43 6.066 247.332 6.556Z" fill="#2A3C3C"/>
<path d="M228.849 2.804L228.401 1.754L231.761 0.143999H232.559V10H231.355V1.642L228.849 2.804ZM235.773 5.492L234.765 5.226L235.339 0.199999H241.499V1.39H236.417L236.053 4.022C236.543 3.658 237.285 3.476 238.279 3.476C239.427 3.476 240.323 3.784 240.981 4.386C241.625 5.002 241.947 5.786 241.947 6.752C241.947 7.718 241.583 8.53 240.869 9.16C240.141 9.804 239.231 10.126 238.153 10.126C236.319 10.126 234.793 9.258 234.163 7.732L235.283 7.256C235.689 8.194 236.739 8.936 238.153 8.936C239.763 8.936 240.659 8.012 240.659 6.794C240.659 5.492 239.609 4.652 237.943 4.652C237.047 4.652 236.319 4.932 235.773 5.492ZM243.948 10C243.43 10.056 243.038 9.762 243.038 9.258C243.038 8.768 243.346 8.46 243.892 8.46C244.508 8.46 244.914 8.88 244.914 9.664C244.914 11.064 244.144 11.778 243.122 12.016L242.828 11.358C243.136 11.274 243.416 11.106 243.668 10.84C243.906 10.574 244.004 10.294 243.948 10ZM245.932 5.366C245.932 3.672 246.352 2.37 247.178 1.446C248.004 0.535999 249.04 0.0739993 250.286 0.0739993C251.924 0.0739993 253.212 0.816 253.758 1.992L252.806 2.636C252.232 1.726 251.378 1.278 250.23 1.278C249.362 1.278 248.634 1.614 248.046 2.286C247.458 2.972 247.164 3.896 247.178 5.086C247.724 4.064 248.998 3.448 250.398 3.448C251.532 3.448 252.442 3.742 253.1 4.344C253.758 4.946 254.094 5.744 254.094 6.724C254.094 7.718 253.73 8.544 252.988 9.174C252.246 9.804 251.322 10.126 250.216 10.126C247.57 10.126 245.932 8.404 245.932 5.366ZM247.332 6.556C247.598 7.942 248.648 8.922 250.202 8.922C250.958 8.922 251.588 8.726 252.078 8.32C252.568 7.928 252.806 7.41 252.806 6.78C252.806 5.394 251.826 4.652 250.328 4.652C249.502 4.652 248.816 4.848 248.284 5.24C247.738 5.632 247.43 6.066 247.332 6.556Z" fill="#1A3341"/>
<path d="M234.224 276.8C234.224 275.504 234.524 274.46 235.136 273.68C235.736 272.9 236.624 272.504 237.788 272.504C240.176 272.504 241.364 274.076 241.364 276.8C241.364 278.108 241.064 279.14 240.476 279.92C239.876 280.7 238.988 281.096 237.812 281.096C236.684 281.096 235.808 280.7 235.172 279.908C234.536 279.116 234.224 278.084 234.224 276.8ZM235.328 276.8C235.328 278.852 236.264 280.076 237.812 280.076C239.444 280.076 240.26 278.984 240.26 276.8C240.26 274.616 239.432 273.524 237.788 273.524C236.12 273.524 235.328 274.724 235.328 276.8ZM243.485 277.136L242.621 276.908L243.113 272.6H248.393V273.62H244.037L243.725 275.876C244.145 275.564 244.781 275.408 245.633 275.408C246.617 275.408 247.385 275.672 247.949 276.188C248.501 276.716 248.777 277.388 248.777 278.216C248.777 279.044 248.465 279.74 247.853 280.28C247.229 280.832 246.449 281.108 245.525 281.108C243.953 281.108 242.645 280.364 242.105 279.056L243.065 278.648C243.413 279.452 244.313 280.088 245.525 280.088C246.905 280.088 247.673 279.296 247.673 278.252C247.673 277.136 246.773 276.416 245.345 276.416C244.577 276.416 243.953 276.656 243.485 277.136Z" fill="#76848D"/>
<path d="M274.684 16.804L274.236 15.754L277.596 14.144H278.394V24H277.19V15.642L274.684 16.804ZM281.608 19.492L280.6 19.226L281.174 14.2H287.334V15.39H282.252L281.888 18.022C282.378 17.658 283.12 17.476 284.114 17.476C285.262 17.476 286.158 17.784 286.816 18.386C287.46 19.002 287.782 19.786 287.782 20.752C287.782 21.718 287.418 22.53 286.704 23.16C285.976 23.804 285.066 24.126 283.988 24.126C282.154 24.126 280.628 23.258 279.998 21.732L281.118 21.256C281.524 22.194 282.574 22.936 283.988 22.936C285.598 22.936 286.494 22.012 286.494 20.794C286.494 19.492 285.444 18.652 283.778 18.652C282.882 18.652 282.154 18.932 281.608 19.492ZM289.783 24C289.265 24.056 288.873 23.762 288.873 23.258C288.873 22.768 289.181 22.46 289.727 22.46C290.343 22.46 290.749 22.88 290.749 23.664C290.749 25.064 289.979 25.778 288.957 26.016L288.663 25.358C288.971 25.274 289.251 25.106 289.503 24.84C289.741 24.574 289.839 24.294 289.783 24ZM292.733 17.056L291.683 16.58C292.201 15.068 293.559 14.074 295.589 14.074C296.555 14.074 297.353 14.298 297.969 14.746C298.585 15.194 298.893 15.796 298.893 16.538C298.893 17.672 298.291 18.512 297.171 18.834C298.249 18.904 299.117 19.716 299.117 21.172C299.117 22.096 298.781 22.824 298.109 23.342C297.437 23.86 296.583 24.126 295.533 24.126C293.391 24.126 291.907 23.104 291.417 21.494L292.551 21.004C293.153 22.278 294.175 22.922 295.617 22.922C296.975 22.922 297.829 22.292 297.829 21.186C297.829 20.108 296.989 19.562 295.309 19.562H294.217V18.4H295.085C296.611 18.4 297.605 17.714 297.605 16.776C297.605 15.81 296.807 15.264 295.533 15.264C294.035 15.264 293.125 16.034 292.733 17.056Z" fill="#2A3C3C"/>
<path d="M274.684 16.804L274.236 15.754L277.596 14.144H278.394V24H277.19V15.642L274.684 16.804ZM281.608 19.492L280.6 19.226L281.174 14.2H287.334V15.39H282.252L281.888 18.022C282.378 17.658 283.12 17.476 284.114 17.476C285.262 17.476 286.158 17.784 286.816 18.386C287.46 19.002 287.782 19.786 287.782 20.752C287.782 21.718 287.418 22.53 286.704 23.16C285.976 23.804 285.066 24.126 283.988 24.126C282.154 24.126 280.628 23.258 279.998 21.732L281.118 21.256C281.524 22.194 282.574 22.936 283.988 22.936C285.598 22.936 286.494 22.012 286.494 20.794C286.494 19.492 285.444 18.652 283.778 18.652C282.882 18.652 282.154 18.932 281.608 19.492ZM289.783 24C289.265 24.056 288.873 23.762 288.873 23.258C288.873 22.768 289.181 22.46 289.727 22.46C290.343 22.46 290.749 22.88 290.749 23.664C290.749 25.064 289.979 25.778 288.957 26.016L288.663 25.358C288.971 25.274 289.251 25.106 289.503 24.84C289.741 24.574 289.839 24.294 289.783 24ZM292.733 17.056L291.683 16.58C292.201 15.068 293.559 14.074 295.589 14.074C296.555 14.074 297.353 14.298 297.969 14.746C298.585 15.194 298.893 15.796 298.893 16.538C298.893 17.672 298.291 18.512 297.171 18.834C298.249 18.904 299.117 19.716 299.117 21.172C299.117 22.096 298.781 22.824 298.109 23.342C297.437 23.86 296.583 24.126 295.533 24.126C293.391 24.126 291.907 23.104 291.417 21.494L292.551 21.004C293.153 22.278 294.175 22.922 295.617 22.922C296.975 22.922 297.829 22.292 297.829 21.186C297.829 20.108 296.989 19.562 295.309 19.562H294.217V18.4H295.085C296.611 18.4 297.605 17.714 297.605 16.776C297.605 15.81 296.807 15.264 295.533 15.264C294.035 15.264 293.125 16.034 292.733 17.056Z" fill="#1A3341"/>
<path d="M280.008 276.8C280.008 275.504 280.308 274.46 280.92 273.68C281.52 272.9 282.408 272.504 283.572 272.504C285.96 272.504 287.148 274.076 287.148 276.8C287.148 278.108 286.848 279.14 286.26 279.92C285.66 280.7 284.772 281.096 283.596 281.096C282.468 281.096 281.592 280.7 280.956 279.908C280.32 279.116 280.008 278.084 280.008 276.8ZM281.112 276.8C281.112 278.852 282.048 280.076 283.596 280.076C285.228 280.076 286.044 278.984 286.044 276.8C286.044 274.616 285.216 273.524 283.572 273.524C281.904 273.524 281.112 274.724 281.112 276.8ZM288.044 277.028C288.044 275.576 288.404 274.46 289.112 273.668C289.82 272.888 290.708 272.492 291.776 272.492C293.18 272.492 294.284 273.128 294.752 274.136L293.936 274.688C293.444 273.908 292.712 273.524 291.728 273.524C290.984 273.524 290.36 273.812 289.856 274.388C289.352 274.976 289.1 275.768 289.112 276.788C289.58 275.912 290.672 275.384 291.872 275.384C292.844 275.384 293.624 275.636 294.188 276.152C294.752 276.668 295.04 277.352 295.04 278.192C295.04 279.044 294.728 279.752 294.092 280.292C293.456 280.832 292.664 281.108 291.716 281.108C289.448 281.108 288.044 279.632 288.044 277.028ZM289.244 278.048C289.472 279.236 290.372 280.076 291.704 280.076C292.352 280.076 292.892 279.908 293.312 279.56C293.732 279.224 293.936 278.78 293.936 278.24C293.936 277.052 293.096 276.416 291.812 276.416C291.104 276.416 290.516 276.584 290.06 276.92C289.592 277.256 289.328 277.628 289.244 278.048Z" fill="#76848D"/>
<path d="M321.743 27.804L321.295 26.754L324.655 25.144H325.453V35H324.249V26.642L321.743 27.804ZM328.666 30.492L327.658 30.226L328.232 25.2H334.392V26.39H329.31L328.946 29.022C329.436 28.658 330.178 28.476 331.172 28.476C332.32 28.476 333.216 28.784 333.874 29.386C334.518 30.002 334.84 30.786 334.84 31.752C334.84 32.718 334.476 33.53 333.762 34.16C333.034 34.804 332.124 35.126 331.046 35.126C329.212 35.126 327.686 34.258 327.056 32.732L328.176 32.256C328.582 33.194 329.632 33.936 331.046 33.936C332.656 33.936 333.552 33.012 333.552 31.794C333.552 30.492 332.502 29.652 330.836 29.652C329.94 29.652 329.212 29.932 328.666 30.492ZM336.841 35C336.323 35.056 335.931 34.762 335.931 34.258C335.931 33.768 336.239 33.46 336.785 33.46C337.401 33.46 337.807 33.88 337.807 34.664C337.807 36.064 337.037 36.778 336.015 37.016L335.721 36.358C336.029 36.274 336.309 36.106 336.561 35.84C336.799 35.574 336.897 35.294 336.841 35ZM338.714 27.804L338.266 26.754L341.626 25.144H342.424V35H341.22V26.642L338.714 27.804Z" fill="#2A3C3C"/>
<path d="M321.743 27.804L321.295 26.754L324.655 25.144H325.453V35H324.249V26.642L321.743 27.804ZM328.666 30.492L327.658 30.226L328.232 25.2H334.392V26.39H329.31L328.946 29.022C329.436 28.658 330.178 28.476 331.172 28.476C332.32 28.476 333.216 28.784 333.874 29.386C334.518 30.002 334.84 30.786 334.84 31.752C334.84 32.718 334.476 33.53 333.762 34.16C333.034 34.804 332.124 35.126 331.046 35.126C329.212 35.126 327.686 34.258 327.056 32.732L328.176 32.256C328.582 33.194 329.632 33.936 331.046 33.936C332.656 33.936 333.552 33.012 333.552 31.794C333.552 30.492 332.502 29.652 330.836 29.652C329.94 29.652 329.212 29.932 328.666 30.492ZM336.841 35C336.323 35.056 335.931 34.762 335.931 34.258C335.931 33.768 336.239 33.46 336.785 33.46C337.401 33.46 337.807 33.88 337.807 34.664C337.807 36.064 337.037 36.778 336.015 37.016L335.721 36.358C336.029 36.274 336.309 36.106 336.561 35.84C336.799 35.574 336.897 35.294 336.841 35ZM338.714 27.804L338.266 26.754L341.626 25.144H342.424V35H341.22V26.642L338.714 27.804Z" fill="#1A3341"/>
<path d="M325.07 276.8C325.07 275.504 325.37 274.46 325.982 273.68C326.582 272.9 327.47 272.504 328.634 272.504C331.022 272.504 332.21 274.076 332.21 276.8C332.21 278.108 331.91 279.14 331.322 279.92C330.722 280.7 329.834 281.096 328.658 281.096C327.53 281.096 326.654 280.7 326.018 279.908C325.382 279.116 325.07 278.084 325.07 276.8ZM326.174 276.8C326.174 278.852 327.11 280.076 328.658 280.076C330.29 280.076 331.106 278.984 331.106 276.8C331.106 274.616 330.278 273.524 328.634 273.524C326.966 273.524 326.174 274.724 326.174 276.8ZM337.918 273.62H332.83V272.6H339.202V273.284L335.026 281H333.886L337.918 273.62Z" fill="#76848D"/>
<path d="M362.535 42.804L362.087 41.754L365.447 40.144H366.245V50H365.041V41.642L362.535 42.804ZM374.792 50H373.574V47.998H367.582V47.186L373.714 40.2H374.792V46.864H376.612V47.998H374.792V50ZM373.574 42.16L369.262 46.864H373.574V42.16ZM378.235 50C377.717 50.056 377.325 49.762 377.325 49.258C377.325 48.768 377.633 48.46 378.179 48.46C378.795 48.46 379.201 48.88 379.201 49.664C379.201 51.064 378.431 51.778 377.409 52.016L377.115 51.358C377.423 51.274 377.703 51.106 377.955 50.84C378.193 50.574 378.291 50.294 378.235 50ZM384.083 44.414H384.517C385.147 44.414 385.665 44.26 386.099 43.966C386.519 43.672 386.729 43.28 386.729 42.818C386.729 41.768 385.903 41.236 384.265 41.236C382.697 41.236 381.843 41.81 381.843 42.818C381.843 43.728 382.781 44.414 384.083 44.414ZM384.489 45.52H384.139C383.383 45.52 382.753 45.688 382.263 46.01C381.773 46.332 381.521 46.738 381.521 47.228C381.521 48.292 382.501 48.964 384.279 48.964C386.085 48.964 387.051 48.32 387.051 47.242C387.051 46.164 386.015 45.52 384.489 45.52ZM387.247 49.37C386.533 49.874 385.539 50.126 384.293 50.126C383.047 50.126 382.053 49.874 381.325 49.384C380.597 48.894 380.233 48.222 380.233 47.354C380.233 46.22 380.975 45.324 382.165 44.932C381.087 44.582 380.555 43.728 380.555 42.734C380.555 41.11 381.927 40.074 384.279 40.074C386.645 40.074 388.017 41.11 388.017 42.734C388.017 43.672 387.499 44.386 386.463 44.862C387.709 45.24 388.325 46.052 388.325 47.298C388.325 48.18 387.961 48.88 387.247 49.37Z" fill="#2A3C3C"/>
<path d="M362.535 42.804L362.087 41.754L365.447 40.144H366.245V50H365.041V41.642L362.535 42.804ZM374.792 50H373.574V47.998H367.582V47.186L373.714 40.2H374.792V46.864H376.612V47.998H374.792V50ZM373.574 42.16L369.262 46.864H373.574V42.16ZM378.235 50C377.717 50.056 377.325 49.762 377.325 49.258C377.325 48.768 377.633 48.46 378.179 48.46C378.795 48.46 379.201 48.88 379.201 49.664C379.201 51.064 378.431 51.778 377.409 52.016L377.115 51.358C377.423 51.274 377.703 51.106 377.955 50.84C378.193 50.574 378.291 50.294 378.235 50ZM384.083 44.414H384.517C385.147 44.414 385.665 44.26 386.099 43.966C386.519 43.672 386.729 43.28 386.729 42.818C386.729 41.768 385.903 41.236 384.265 41.236C382.697 41.236 381.843 41.81 381.843 42.818C381.843 43.728 382.781 44.414 384.083 44.414ZM384.489 45.52H384.139C383.383 45.52 382.753 45.688 382.263 46.01C381.773 46.332 381.521 46.738 381.521 47.228C381.521 48.292 382.501 48.964 384.279 48.964C386.085 48.964 387.051 48.32 387.051 47.242C387.051 46.164 386.015 45.52 384.489 45.52ZM387.247 49.37C386.533 49.874 385.539 50.126 384.293 50.126C383.047 50.126 382.053 49.874 381.325 49.384C380.597 48.894 380.233 48.222 380.233 47.354C380.233 46.22 380.975 45.324 382.165 44.932C381.087 44.582 380.555 43.728 380.555 42.734C380.555 41.11 381.927 40.074 384.279 40.074C386.645 40.074 388.017 41.11 388.017 42.734C388.017 43.672 387.499 44.386 386.463 44.862C387.709 45.24 388.325 46.052 388.325 47.298C388.325 48.18 387.961 48.88 387.247 49.37Z" fill="#1A3341"/>
<path d="M367.496 276.8C367.496 275.504 367.796 274.46 368.408 273.68C369.008 272.9 369.896 272.504 371.06 272.504C373.448 272.504 374.636 274.076 374.636 276.8C374.636 278.108 374.336 279.14 373.748 279.92C373.148 280.7 372.26 281.096 371.084 281.096C369.956 281.096 369.08 280.7 368.444 279.908C367.808 279.116 367.496 278.084 367.496 276.8ZM368.6 276.8C368.6 278.852 369.536 280.076 371.084 280.076C372.716 280.076 373.532 278.984 373.532 276.8C373.532 274.616 372.704 273.524 371.06 273.524C369.392 273.524 368.6 274.724 368.6 276.8ZM378.844 276.212H379.216C379.756 276.212 380.2 276.08 380.572 275.828C380.932 275.576 381.112 275.24 381.112 274.844C381.112 273.944 380.404 273.488 379 273.488C377.656 273.488 376.924 273.98 376.924 274.844C376.924 275.624 377.728 276.212 378.844 276.212ZM379.192 277.16H378.892C378.244 277.16 377.704 277.304 377.284 277.58C376.864 277.856 376.648 278.204 376.648 278.624C376.648 279.536 377.488 280.112 379.012 280.112C380.56 280.112 381.388 279.56 381.388 278.636C381.388 277.712 380.5 277.16 379.192 277.16ZM381.556 280.46C380.944 280.892 380.092 281.108 379.024 281.108C377.956 281.108 377.104 280.892 376.48 280.472C375.856 280.052 375.544 279.476 375.544 278.732C375.544 277.76 376.18 276.992 377.2 276.656C376.276 276.356 375.82 275.624 375.82 274.772C375.82 273.38 376.996 272.492 379.012 272.492C381.04 272.492 382.216 273.38 382.216 274.772C382.216 275.576 381.772 276.188 380.884 276.596C381.952 276.92 382.48 277.616 382.48 278.684C382.48 279.44 382.168 280.04 381.556 280.46Z" fill="#76848D"/>
<path d="M407.684 142.804L407.236 141.754L410.596 140.144H411.394V150H410.19V141.642L407.684 142.804ZM414.146 143.056L413.096 142.58C413.614 141.068 414.972 140.074 417.002 140.074C417.968 140.074 418.766 140.298 419.382 140.746C419.998 141.194 420.306 141.796 420.306 142.538C420.306 143.672 419.704 144.512 418.584 144.834C419.662 144.904 420.53 145.716 420.53 147.172C420.53 148.096 420.194 148.824 419.522 149.342C418.85 149.86 417.996 150.126 416.946 150.126C414.804 150.126 413.32 149.104 412.83 147.494L413.964 147.004C414.566 148.278 415.588 148.922 417.03 148.922C418.388 148.922 419.242 148.292 419.242 147.186C419.242 146.108 418.402 145.562 416.722 145.562H415.63V144.4H416.498C418.024 144.4 419.018 143.714 419.018 142.776C419.018 141.81 418.22 141.264 416.946 141.264C415.448 141.264 414.538 142.034 414.146 143.056ZM422.618 150C422.1 150.056 421.708 149.762 421.708 149.258C421.708 148.768 422.016 148.46 422.562 148.46C423.178 148.46 423.584 148.88 423.584 149.664C423.584 151.064 422.814 151.778 421.792 152.016L421.498 151.358C421.806 151.274 422.086 151.106 422.338 150.84C422.576 150.574 422.674 150.294 422.618 150ZM426.031 145.492L425.023 145.226L425.597 140.2H431.757V141.39H426.675L426.311 144.022C426.801 143.658 427.543 143.476 428.537 143.476C429.685 143.476 430.581 143.784 431.239 144.386C431.883 145.002 432.205 145.786 432.205 146.752C432.205 147.718 431.841 148.53 431.127 149.16C430.399 149.804 429.489 150.126 428.411 150.126C426.577 150.126 425.051 149.258 424.421 147.732L425.541 147.256C425.947 148.194 426.997 148.936 428.411 148.936C430.021 148.936 430.917 148.012 430.917 146.794C430.917 145.492 429.867 144.652 428.201 144.652C427.305 144.652 426.577 144.932 426.031 145.492Z" fill="#2A3C3C"/>
<path d="M407.684 142.804L407.236 141.754L410.596 140.144H411.394V150H410.19V141.642L407.684 142.804ZM414.146 143.056L413.096 142.58C413.614 141.068 414.972 140.074 417.002 140.074C417.968 140.074 418.766 140.298 419.382 140.746C419.998 141.194 420.306 141.796 420.306 142.538C420.306 143.672 419.704 144.512 418.584 144.834C419.662 144.904 420.53 145.716 420.53 147.172C420.53 148.096 420.194 148.824 419.522 149.342C418.85 149.86 417.996 150.126 416.946 150.126C414.804 150.126 413.32 149.104 412.83 147.494L413.964 147.004C414.566 148.278 415.588 148.922 417.03 148.922C418.388 148.922 419.242 148.292 419.242 147.186C419.242 146.108 418.402 145.562 416.722 145.562H415.63V144.4H416.498C418.024 144.4 419.018 143.714 419.018 142.776C419.018 141.81 418.22 141.264 416.946 141.264C415.448 141.264 414.538 142.034 414.146 143.056ZM422.618 150C422.1 150.056 421.708 149.762 421.708 149.258C421.708 148.768 422.016 148.46 422.562 148.46C423.178 148.46 423.584 148.88 423.584 149.664C423.584 151.064 422.814 151.778 421.792 152.016L421.498 151.358C421.806 151.274 422.086 151.106 422.338 150.84C422.576 150.574 422.674 150.294 422.618 150ZM426.031 145.492L425.023 145.226L425.597 140.2H431.757V141.39H426.675L426.311 144.022C426.801 143.658 427.543 143.476 428.537 143.476C429.685 143.476 430.581 143.784 431.239 144.386C431.883 145.002 432.205 145.786 432.205 146.752C432.205 147.718 431.841 148.53 431.127 149.16C430.399 149.804 429.489 150.126 428.411 150.126C426.577 150.126 425.051 149.258 424.421 147.732L425.541 147.256C425.947 148.194 426.997 148.936 428.411 148.936C430.021 148.936 430.917 148.012 430.917 146.794C430.917 145.492 429.867 144.652 428.201 144.652C427.305 144.652 426.577 144.932 426.031 145.492Z" fill="#1A3341"/>
<path d="M412.996 276.8C412.996 275.504 413.296 274.46 413.908 273.68C414.508 272.9 415.396 272.504 416.56 272.504C418.948 272.504 420.136 274.076 420.136 276.8C420.136 278.108 419.836 279.14 419.248 279.92C418.648 280.7 417.76 281.096 416.584 281.096C415.456 281.096 414.58 280.7 413.944 279.908C413.308 279.116 412.996 278.084 412.996 276.8ZM414.1 276.8C414.1 278.852 415.036 280.076 416.584 280.076C418.216 280.076 419.032 278.984 419.032 276.8C419.032 274.616 418.204 273.524 416.56 273.524C414.892 273.524 414.1 274.724 414.1 276.8ZM428.016 276.644C428.016 278.072 427.68 279.176 426.996 279.944C426.312 280.724 425.4 281.108 424.26 281.108C422.868 281.108 421.776 280.52 421.236 279.62L422.1 279.02C422.58 279.692 423.456 280.076 424.404 280.076C425.184 280.076 425.808 279.764 426.3 279.14C426.792 278.528 426.996 277.76 426.936 276.848C426.54 277.76 425.544 278.432 424.212 278.432C423.276 278.432 422.508 278.168 421.908 277.628C421.296 277.1 420.996 276.404 420.996 275.552C420.996 274.616 421.32 273.872 421.968 273.32C422.616 272.768 423.48 272.492 424.548 272.492C426.708 272.492 428.016 274.004 428.016 276.644ZM426.756 275.516C426.576 274.4 425.808 273.524 424.428 273.524C422.988 273.524 422.1 274.268 422.1 275.516C422.1 276.704 423 277.4 424.404 277.4C425.04 277.4 425.58 277.208 426 276.824C426.42 276.44 426.672 276.008 426.756 275.516Z" fill="#76848D"/>
<path d="M452.946 70.804L452.498 69.754L455.858 68.144H456.656V78H455.452V69.642L452.946 70.804ZM465.204 78H463.986V75.998H457.994V75.186L464.126 68.2H465.204V74.864H467.024V75.998H465.204V78ZM463.986 70.16L459.674 74.864H463.986V70.16ZM468.646 78C468.128 78.056 467.736 77.762 467.736 77.258C467.736 76.768 468.044 76.46 468.59 76.46C469.206 76.46 469.612 76.88 469.612 77.664C469.612 79.064 468.842 79.778 467.82 80.016L467.526 79.358C467.834 79.274 468.114 79.106 468.366 78.84C468.604 78.574 468.702 78.294 468.646 78ZM470.63 73.1C470.63 71.588 470.98 70.37 471.694 69.46C472.394 68.55 473.43 68.088 474.788 68.088C477.574 68.088 478.96 69.922 478.96 73.1C478.96 74.626 478.61 75.83 477.924 76.74C477.224 77.65 476.188 78.112 474.816 78.112C473.5 78.112 472.478 77.65 471.736 76.726C470.994 75.802 470.63 74.598 470.63 73.1ZM471.918 73.1C471.918 75.494 473.01 76.922 474.816 76.922C476.72 76.922 477.672 75.648 477.672 73.1C477.672 70.552 476.706 69.278 474.788 69.278C472.842 69.278 471.918 70.678 471.918 73.1Z" fill="#2A3C3C"/>
<path d="M452.946 70.804L452.498 69.754L455.858 68.144H456.656V78H455.452V69.642L452.946 70.804ZM465.204 78H463.986V75.998H457.994V75.186L464.126 68.2H465.204V74.864H467.024V75.998H465.204V78ZM463.986 70.16L459.674 74.864H463.986V70.16ZM468.646 78C468.128 78.056 467.736 77.762 467.736 77.258C467.736 76.768 468.044 76.46 468.59 76.46C469.206 76.46 469.612 76.88 469.612 77.664C469.612 79.064 468.842 79.778 467.82 80.016L467.526 79.358C467.834 79.274 468.114 79.106 468.366 78.84C468.604 78.574 468.702 78.294 468.646 78ZM470.63 73.1C470.63 71.588 470.98 70.37 471.694 69.46C472.394 68.55 473.43 68.088 474.788 68.088C477.574 68.088 478.96 69.922 478.96 73.1C478.96 74.626 478.61 75.83 477.924 76.74C477.224 77.65 476.188 78.112 474.816 78.112C473.5 78.112 472.478 77.65 471.736 76.726C470.994 75.802 470.63 74.598 470.63 73.1ZM471.918 73.1C471.918 75.494 473.01 76.922 474.816 76.922C476.72 76.922 477.672 75.648 477.672 73.1C477.672 70.552 476.706 69.278 474.788 69.278C472.842 69.278 471.918 70.678 471.918 73.1Z" fill="#1A3341"/>
<path d="M460.035 274.832L459.651 273.932L462.531 272.552H463.215V281H462.183V273.836L460.035 274.832ZM464.745 276.8C464.745 275.504 465.045 274.46 465.657 273.68C466.257 272.9 467.145 272.504 468.309 272.504C470.697 272.504 471.885 274.076 471.885 276.8C471.885 278.108 471.585 279.14 470.997 279.92C470.397 280.7 469.509 281.096 468.333 281.096C467.205 281.096 466.329 280.7 465.693 279.908C465.057 279.116 464.745 278.084 464.745 276.8ZM465.849 276.8C465.849 278.852 466.785 280.076 468.333 280.076C469.965 280.076 470.781 278.984 470.781 276.8C470.781 274.616 469.953 273.524 468.309 273.524C466.641 273.524 465.849 274.724 465.849 276.8Z" fill="#76848D"/>
<path d="M499.588 128.804L499.14 127.754L502.5 126.144H503.298V136H502.094V127.642L499.588 128.804ZM506.049 129.056L504.999 128.58C505.517 127.068 506.875 126.074 508.905 126.074C509.871 126.074 510.669 126.298 511.285 126.746C511.901 127.194 512.209 127.796 512.209 128.538C512.209 129.672 511.607 130.512 510.487 130.834C511.565 130.904 512.433 131.716 512.433 133.172C512.433 134.096 512.097 134.824 511.425 135.342C510.753 135.86 509.899 136.126 508.849 136.126C506.707 136.126 505.223 135.104 504.733 133.494L505.867 133.004C506.469 134.278 507.491 134.922 508.933 134.922C510.291 134.922 511.145 134.292 511.145 133.186C511.145 132.108 510.305 131.562 508.625 131.562H507.533V130.4H508.401C509.927 130.4 510.921 129.714 510.921 128.776C510.921 127.81 510.123 127.264 508.849 127.264C507.351 127.264 506.441 128.034 506.049 129.056ZM514.522 136C514.004 136.056 513.612 135.762 513.612 135.258C513.612 134.768 513.92 134.46 514.466 134.46C515.082 134.46 515.488 134.88 515.488 135.664C515.488 137.064 514.718 137.778 513.696 138.016L513.402 137.358C513.71 137.274 513.99 137.106 514.242 136.84C514.48 136.574 514.578 136.294 514.522 136ZM522.12 127.39H516.184V126.2H523.618V126.998L518.746 136H517.416L522.12 127.39Z" fill="#2A3C3C"/>
<path d="M499.588 128.804L499.14 127.754L502.5 126.144H503.298V136H502.094V127.642L499.588 128.804ZM506.049 129.056L504.999 128.58C505.517 127.068 506.875 126.074 508.905 126.074C509.871 126.074 510.669 126.298 511.285 126.746C511.901 127.194 512.209 127.796 512.209 128.538C512.209 129.672 511.607 130.512 510.487 130.834C511.565 130.904 512.433 131.716 512.433 133.172C512.433 134.096 512.097 134.824 511.425 135.342C510.753 135.86 509.899 136.126 508.849 136.126C506.707 136.126 505.223 135.104 504.733 133.494L505.867 133.004C506.469 134.278 507.491 134.922 508.933 134.922C510.291 134.922 511.145 134.292 511.145 133.186C511.145 132.108 510.305 131.562 508.625 131.562H507.533V130.4H508.401C509.927 130.4 510.921 129.714 510.921 128.776C510.921 127.81 510.123 127.264 508.849 127.264C507.351 127.264 506.441 128.034 506.049 129.056ZM514.522 136C514.004 136.056 513.612 135.762 513.612 135.258C513.612 134.768 513.92 134.46 514.466 134.46C515.082 134.46 515.488 134.88 515.488 135.664C515.488 137.064 514.718 137.778 513.696 138.016L513.402 137.358C513.71 137.274 513.99 137.106 514.242 136.84C514.48 136.574 514.578 136.294 514.522 136ZM522.12 127.39H516.184V126.2H523.618V126.998L518.746 136H517.416L522.12 127.39Z" fill="#1A3341"/>
<path d="M506.746 274.832L506.362 273.932L509.242 272.552H509.926V281H508.894V273.836L506.746 274.832ZM511.36 274.832L510.976 273.932L513.856 272.552H514.54V281H513.508V273.836L511.36 274.832Z" fill="#76848D"/>
<path d="M544.942 69.804L544.494 68.754L547.854 67.144H548.652V77H547.448V68.642L544.942 69.804ZM557.2 77H555.982V74.998H549.99V74.186L556.122 67.2H557.2V73.864H559.02V74.998H557.2V77ZM555.982 69.16L551.67 73.864H555.982V69.16ZM560.642 77C560.124 77.056 559.732 76.762 559.732 76.258C559.732 75.768 560.04 75.46 560.586 75.46C561.202 75.46 561.608 75.88 561.608 76.664C561.608 78.064 560.838 78.778 559.816 79.016L559.522 78.358C559.83 78.274 560.11 78.106 560.362 77.84C560.6 77.574 560.698 77.294 560.642 77ZM562.514 69.804L562.066 68.754L565.426 67.144H566.224V77H565.02V68.642L562.514 69.804Z" fill="#2A3C3C"/>
<path d="M544.942 69.804L544.494 68.754L547.854 67.144H548.652V77H547.448V68.642L544.942 69.804ZM557.2 77H555.982V74.998H549.99V74.186L556.122 67.2H557.2V73.864H559.02V74.998H557.2V77ZM555.982 69.16L551.67 73.864H555.982V69.16ZM560.642 77C560.124 77.056 559.732 76.762 559.732 76.258C559.732 75.768 560.04 75.46 560.586 75.46C561.202 75.46 561.608 75.88 561.608 76.664C561.608 78.064 560.838 78.778 559.816 79.016L559.522 78.358C559.83 78.274 560.11 78.106 560.362 77.84C560.6 77.574 560.698 77.294 560.642 77ZM562.514 69.804L562.066 68.754L565.426 67.144H566.224V77H565.02V68.642L562.514 69.804Z" fill="#1A3341"/>
<path d="M550.439 274.832L550.055 273.932L552.935 272.552H553.619V281H552.587V273.836L550.439 274.832ZM556.109 275.372L555.233 275.06C555.533 273.572 556.661 272.504 558.449 272.504C560.177 272.504 561.233 273.5 561.233 275.024C561.233 275.828 560.885 276.632 560.453 277.208C560.237 277.508 559.961 277.796 559.637 278.096C558.977 278.684 558.509 278.996 557.825 279.428L556.901 280.004H561.545V281H555.005V280.184L556.829 278.972C557.153 278.768 557.381 278.612 557.513 278.516C557.645 278.432 557.861 278.276 558.149 278.072C558.437 277.868 558.653 277.688 558.797 277.556C558.929 277.424 559.109 277.256 559.313 277.04C559.865 276.44 560.069 275.888 560.129 275.132C560.129 274.04 559.421 273.548 558.377 273.548C557.729 273.548 557.213 273.728 556.841 274.088C556.469 274.448 556.217 274.88 556.109 275.372Z" fill="#76848D"/>
<path d="M586.766 99.804L586.318 98.754L589.678 97.144H590.476V107H589.272V98.642L586.766 99.804ZM593.228 100.056L592.178 99.58C592.696 98.068 594.054 97.074 596.084 97.074C597.05 97.074 597.848 97.298 598.464 97.746C599.08 98.194 599.388 98.796 599.388 99.538C599.388 100.672 598.786 101.512 597.666 101.834C598.744 101.904 599.612 102.716 599.612 104.172C599.612 105.096 599.276 105.824 598.604 106.342C597.932 106.86 597.078 107.126 596.028 107.126C593.886 107.126 592.402 106.104 591.912 104.494L593.046 104.004C593.648 105.278 594.67 105.922 596.112 105.922C597.47 105.922 598.324 105.292 598.324 104.186C598.324 103.108 597.484 102.562 595.804 102.562H594.712V101.4H595.58C597.106 101.4 598.1 100.714 598.1 99.776C598.1 98.81 597.302 98.264 596.028 98.264C594.53 98.264 593.62 99.034 593.228 100.056ZM601.7 107C601.182 107.056 600.79 106.762 600.79 106.258C600.79 105.768 601.098 105.46 601.644 105.46C602.26 105.46 602.666 105.88 602.666 106.664C602.666 108.064 601.896 108.778 600.874 109.016L600.58 108.358C600.888 108.274 601.168 108.106 601.42 107.84C601.658 107.574 601.756 107.294 601.7 107ZM604.651 100.056L603.601 99.58C604.119 98.068 605.477 97.074 607.507 97.074C608.473 97.074 609.271 97.298 609.887 97.746C610.503 98.194 610.811 98.796 610.811 99.538C610.811 100.672 610.209 101.512 609.089 101.834C610.167 101.904 611.035 102.716 611.035 104.172C611.035 105.096 610.699 105.824 610.027 106.342C609.355 106.86 608.501 107.126 607.451 107.126C605.309 107.126 603.825 106.104 603.335 104.494L604.469 104.004C605.071 105.278 606.093 105.922 607.535 105.922C608.893 105.922 609.747 105.292 609.747 104.186C609.747 103.108 608.907 102.562 607.227 102.562H606.135V101.4H607.003C608.529 101.4 609.523 100.714 609.523 99.776C609.523 98.81 608.725 98.264 607.451 98.264C605.953 98.264 605.043 99.034 604.651 100.056Z" fill="#2A3C3C"/>
<path d="M586.766 99.804L586.318 98.754L589.678 97.144H590.476V107H589.272V98.642L586.766 99.804ZM593.228 100.056L592.178 99.58C592.696 98.068 594.054 97.074 596.084 97.074C597.05 97.074 597.848 97.298 598.464 97.746C599.08 98.194 599.388 98.796 599.388 99.538C599.388 100.672 598.786 101.512 597.666 101.834C598.744 101.904 599.612 102.716 599.612 104.172C599.612 105.096 599.276 105.824 598.604 106.342C597.932 106.86 597.078 107.126 596.028 107.126C593.886 107.126 592.402 106.104 591.912 104.494L593.046 104.004C593.648 105.278 594.67 105.922 596.112 105.922C597.47 105.922 598.324 105.292 598.324 104.186C598.324 103.108 597.484 102.562 595.804 102.562H594.712V101.4H595.58C597.106 101.4 598.1 100.714 598.1 99.776C598.1 98.81 597.302 98.264 596.028 98.264C594.53 98.264 593.62 99.034 593.228 100.056ZM601.7 107C601.182 107.056 600.79 106.762 600.79 106.258C600.79 105.768 601.098 105.46 601.644 105.46C602.26 105.46 602.666 105.88 602.666 106.664C602.666 108.064 601.896 108.778 600.874 109.016L600.58 108.358C600.888 108.274 601.168 108.106 601.42 107.84C601.658 107.574 601.756 107.294 601.7 107ZM604.651 100.056L603.601 99.58C604.119 98.068 605.477 97.074 607.507 97.074C608.473 97.074 609.271 97.298 609.887 97.746C610.503 98.194 610.811 98.796 610.811 99.538C610.811 100.672 610.209 101.512 609.089 101.834C610.167 101.904 611.035 102.716 611.035 104.172C611.035 105.096 610.699 105.824 610.027 106.342C609.355 106.86 608.501 107.126 607.451 107.126C605.309 107.126 603.825 106.104 603.335 104.494L604.469 104.004C605.071 105.278 606.093 105.922 607.535 105.922C608.893 105.922 609.747 105.292 609.747 104.186C609.747 103.108 608.907 102.562 607.227 102.562H606.135V101.4H607.003C608.529 101.4 609.523 100.714 609.523 99.776C609.523 98.81 608.725 98.264 607.451 98.264C605.953 98.264 605.043 99.034 604.651 100.056Z" fill="#1A3341"/>
<path d="M593.131 276.8C593.131 275.504 593.431 274.46 594.043 273.68C594.643 272.9 595.531 272.504 596.695 272.504C599.083 272.504 600.271 274.076 600.271 276.8C600.271 278.108 599.971 279.14 599.383 279.92C598.783 280.7 597.895 281.096 596.719 281.096C595.591 281.096 594.715 280.7 594.079 279.908C593.443 279.116 593.131 278.084 593.131 276.8ZM594.235 276.8C594.235 278.852 595.171 280.076 596.719 280.076C598.351 280.076 599.167 278.984 599.167 276.8C599.167 274.616 598.339 273.524 596.695 273.524C595.027 273.524 594.235 274.724 594.235 276.8ZM601.071 274.832L600.687 273.932L603.567 272.552H604.251V281H603.219V273.836L601.071 274.832ZM585.527 289.372L584.651 289.06C584.951 287.572 586.079 286.504 587.867 286.504C589.595 286.504 590.651 287.5 590.651 289.024C590.651 289.828 590.303 290.632 589.871 291.208C589.655 291.508 589.379 291.796 589.055 292.096C588.395 292.684 587.927 292.996 587.243 293.428L586.319 294.004H590.963V295H584.423V294.184L586.247 292.972C586.571 292.768 586.799 292.612 586.931 292.516C587.063 292.432 587.279 292.276 587.567 292.072C587.855 291.868 588.071 291.688 588.215 291.556C588.347 291.424 588.527 291.256 588.731 291.04C589.283 290.44 589.487 289.888 589.547 289.132C589.547 288.04 588.839 287.548 587.795 287.548C587.147 287.548 586.631 287.728 586.259 288.088C585.887 288.448 585.635 288.88 585.527 289.372ZM591.795 290.8C591.795 289.504 592.095 288.46 592.707 287.68C593.307 286.9 594.195 286.504 595.359 286.504C597.747 286.504 598.935 288.076 598.935 290.8C598.935 292.108 598.635 293.14 598.047 293.92C597.447 294.7 596.559 295.096 595.383 295.096C594.255 295.096 593.379 294.7 592.743 293.908C592.107 293.116 591.795 292.084 591.795 290.8ZM592.899 290.8C592.899 292.852 593.835 294.076 595.383 294.076C597.015 294.076 597.831 292.984 597.831 290.8C597.831 288.616 597.003 287.524 595.359 287.524C593.691 287.524 592.899 288.724 592.899 290.8ZM600.791 289.372L599.915 289.06C600.215 287.572 601.343 286.504 603.131 286.504C604.859 286.504 605.915 287.5 605.915 289.024C605.915 289.828 605.567 290.632 605.135 291.208C604.919 291.508 604.643 291.796 604.319 292.096C603.659 292.684 603.191 292.996 602.507 293.428L601.583 294.004H606.227V295H599.687V294.184L601.511 292.972C601.835 292.768 602.063 292.612 602.195 292.516C602.327 292.432 602.543 292.276 602.831 292.072C603.119 291.868 603.335 291.688 603.479 291.556C603.611 291.424 603.791 291.256 603.995 291.04C604.547 290.44 604.751 289.888 604.811 289.132C604.811 288.04 604.103 287.548 603.059 287.548C602.411 287.548 601.895 287.728 601.523 288.088C601.151 288.448 600.899 288.88 600.791 289.372ZM607.887 289.048L606.987 288.64C607.431 287.344 608.595 286.492 610.335 286.492C611.163 286.492 611.847 286.684 612.375 287.068C612.903 287.452 613.167 287.968 613.167 288.604C613.167 289.576 612.651 290.296 611.691 290.572C612.615 290.632 613.359 291.328 613.359 292.576C613.359 293.368 613.071 293.992 612.495 294.436C611.919 294.88 611.187 295.108 610.287 295.108C608.451 295.108 607.179 294.232 606.759 292.852L607.731 292.432C608.247 293.524 609.123 294.076 610.359 294.076C611.523 294.076 612.255 293.536 612.255 292.588C612.255 291.664 611.535 291.196 610.095 291.196H609.159V290.2H609.903C611.211 290.2 612.063 289.612 612.063 288.808C612.063 287.98 611.379 287.512 610.287 287.512C609.003 287.512 608.223 288.172 607.887 289.048Z" fill="#76848D"/>
<path d="M631.976 209.804L631.528 208.754L634.888 207.144H635.686V217H634.482V208.642L631.976 209.804ZM637.36 209.804L636.912 208.754L640.272 207.144H641.07V217H639.866V208.642L637.36 209.804ZM643.793 217C643.275 217.056 642.883 216.762 642.883 216.258C642.883 215.768 643.191 215.46 643.737 215.46C644.353 215.46 644.759 215.88 644.759 216.664C644.759 218.064 643.989 218.778 642.967 219.016L642.673 218.358C642.981 218.274 643.261 218.106 643.513 217.84C643.751 217.574 643.849 217.294 643.793 217ZM653.926 211.918C653.926 213.584 653.534 214.872 652.736 215.768C651.938 216.678 650.874 217.126 649.544 217.126C647.92 217.126 646.646 216.44 646.016 215.39L647.024 214.69C647.584 215.474 648.606 215.922 649.712 215.922C650.622 215.922 651.35 215.558 651.924 214.83C652.498 214.116 652.736 213.22 652.666 212.156C652.204 213.22 651.042 214.004 649.488 214.004C648.396 214.004 647.5 213.696 646.8 213.066C646.086 212.45 645.736 211.638 645.736 210.644C645.736 209.552 646.114 208.684 646.87 208.04C647.626 207.396 648.634 207.074 649.88 207.074C652.4 207.074 653.926 208.838 653.926 211.918ZM652.456 210.602C652.246 209.3 651.35 208.278 649.74 208.278C648.06 208.278 647.024 209.146 647.024 210.602C647.024 211.988 648.074 212.8 649.712 212.8C650.454 212.8 651.084 212.576 651.574 212.128C652.064 211.68 652.358 211.176 652.456 210.602Z" fill="#2A3C3C"/>
<path d="M631.976 209.804L631.528 208.754L634.888 207.144H635.686V217H634.482V208.642L631.976 209.804ZM637.36 209.804L636.912 208.754L640.272 207.144H641.07V217H639.866V208.642L637.36 209.804ZM643.793 217C643.275 217.056 642.883 216.762 642.883 216.258C642.883 215.768 643.191 215.46 643.737 215.46C644.353 215.46 644.759 215.88 644.759 216.664C644.759 218.064 643.989 218.778 642.967 219.016L642.673 218.358C642.981 218.274 643.261 218.106 643.513 217.84C643.751 217.574 643.849 217.294 643.793 217ZM653.926 211.918C653.926 213.584 653.534 214.872 652.736 215.768C651.938 216.678 650.874 217.126 649.544 217.126C647.92 217.126 646.646 216.44 646.016 215.39L647.024 214.69C647.584 215.474 648.606 215.922 649.712 215.922C650.622 215.922 651.35 215.558 651.924 214.83C652.498 214.116 652.736 213.22 652.666 212.156C652.204 213.22 651.042 214.004 649.488 214.004C648.396 214.004 647.5 213.696 646.8 213.066C646.086 212.45 645.736 211.638 645.736 210.644C645.736 209.552 646.114 208.684 646.87 208.04C647.626 207.396 648.634 207.074 649.88 207.074C652.4 207.074 653.926 208.838 653.926 211.918ZM652.456 210.602C652.246 209.3 651.35 208.278 649.74 208.278C648.06 208.278 647.024 209.146 647.024 210.602C647.024 211.988 648.074 212.8 649.712 212.8C650.454 212.8 651.084 212.576 651.574 212.128C652.064 211.68 652.358 211.176 652.456 210.602Z" fill="#1A3341"/>
<path d="M635.824 276.8C635.824 275.504 636.124 274.46 636.736 273.68C637.336 272.9 638.224 272.504 639.388 272.504C641.776 272.504 642.964 274.076 642.964 276.8C642.964 278.108 642.664 279.14 642.076 279.92C641.476 280.7 640.588 281.096 639.412 281.096C638.284 281.096 637.408 280.7 636.772 279.908C636.136 279.116 635.824 278.084 635.824 276.8ZM636.928 276.8C636.928 278.852 637.864 280.076 639.412 280.076C641.044 280.076 641.86 278.984 641.86 276.8C641.86 274.616 641.032 273.524 639.388 273.524C637.72 273.524 636.928 274.724 636.928 276.8ZM644.82 275.372L643.944 275.06C644.244 273.572 645.372 272.504 647.16 272.504C648.888 272.504 649.944 273.5 649.944 275.024C649.944 275.828 649.596 276.632 649.164 277.208C648.948 277.508 648.672 277.796 648.348 278.096C647.688 278.684 647.22 278.996 646.536 279.428L645.612 280.004H650.256V281H643.716V280.184L645.54 278.972C645.864 278.768 646.092 278.612 646.224 278.516C646.356 278.432 646.572 278.276 646.86 278.072C647.148 277.868 647.364 277.688 647.508 277.556C647.64 277.424 647.82 277.256 648.024 277.04C648.576 276.44 648.78 275.888 648.84 275.132C648.84 274.04 648.132 273.548 647.088 273.548C646.44 273.548 645.924 273.728 645.552 274.088C645.18 274.448 644.928 274.88 644.82 275.372Z" fill="#76848D"/>
<path d="M676.535 31.804L676.087 30.754L679.447 29.144H680.245V39H679.041V30.642L676.535 31.804ZM688.792 39H687.574V36.998H681.582V36.186L687.714 29.2H688.792V35.864H690.612V36.998H688.792V39ZM687.574 31.16L683.262 35.864H687.574V31.16ZM692.235 39C691.717 39.056 691.325 38.762 691.325 38.258C691.325 37.768 691.633 37.46 692.179 37.46C692.795 37.46 693.201 37.88 693.201 38.664C693.201 40.064 692.431 40.778 691.409 41.016L691.115 40.358C691.423 40.274 691.703 40.106 691.955 39.84C692.193 39.574 692.291 39.294 692.235 39ZM698.083 33.414H698.517C699.147 33.414 699.665 33.26 700.099 32.966C700.519 32.672 700.729 32.28 700.729 31.818C700.729 30.768 699.903 30.236 698.265 30.236C696.697 30.236 695.843 30.81 695.843 31.818C695.843 32.728 696.781 33.414 698.083 33.414ZM698.489 34.52H698.139C697.383 34.52 696.753 34.688 696.263 35.01C695.773 35.332 695.521 35.738 695.521 36.228C695.521 37.292 696.501 37.964 698.279 37.964C700.085 37.964 701.051 37.32 701.051 36.242C701.051 35.164 700.015 34.52 698.489 34.52ZM701.247 38.37C700.533 38.874 699.539 39.126 698.293 39.126C697.047 39.126 696.053 38.874 695.325 38.384C694.597 37.894 694.233 37.222 694.233 36.354C694.233 35.22 694.975 34.324 696.165 33.932C695.087 33.582 694.555 32.728 694.555 31.734C694.555 30.11 695.927 29.074 698.279 29.074C700.645 29.074 702.017 30.11 702.017 31.734C702.017 32.672 701.499 33.386 700.463 33.862C701.709 34.24 702.325 35.052 702.325 36.298C702.325 37.18 701.961 37.88 701.247 38.37Z" fill="#2A3C3C"/>
<path d="M676.535 31.804L676.087 30.754L679.447 29.144H680.245V39H679.041V30.642L676.535 31.804ZM688.792 39H687.574V36.998H681.582V36.186L687.714 29.2H688.792V35.864H690.612V36.998H688.792V39ZM687.574 31.16L683.262 35.864H687.574V31.16ZM692.235 39C691.717 39.056 691.325 38.762 691.325 38.258C691.325 37.768 691.633 37.46 692.179 37.46C692.795 37.46 693.201 37.88 693.201 38.664C693.201 40.064 692.431 40.778 691.409 41.016L691.115 40.358C691.423 40.274 691.703 40.106 691.955 39.84C692.193 39.574 692.291 39.294 692.235 39ZM698.083 33.414H698.517C699.147 33.414 699.665 33.26 700.099 32.966C700.519 32.672 700.729 32.28 700.729 31.818C700.729 30.768 699.903 30.236 698.265 30.236C696.697 30.236 695.843 30.81 695.843 31.818C695.843 32.728 696.781 33.414 698.083 33.414ZM698.489 34.52H698.139C697.383 34.52 696.753 34.688 696.263 35.01C695.773 35.332 695.521 35.738 695.521 36.228C695.521 37.292 696.501 37.964 698.279 37.964C700.085 37.964 701.051 37.32 701.051 36.242C701.051 35.164 700.015 34.52 698.489 34.52ZM701.247 38.37C700.533 38.874 699.539 39.126 698.293 39.126C697.047 39.126 696.053 38.874 695.325 38.384C694.597 37.894 694.233 37.222 694.233 36.354C694.233 35.22 694.975 34.324 696.165 33.932C695.087 33.582 694.555 32.728 694.555 31.734C694.555 30.11 695.927 29.074 698.279 29.074C700.645 29.074 702.017 30.11 702.017 31.734C702.017 32.672 701.499 33.386 700.463 33.862C701.709 34.24 702.325 35.052 702.325 36.298C702.325 37.18 701.961 37.88 701.247 38.37Z" fill="#1A3341"/>
<path d="M681.795 276.8C681.795 275.504 682.095 274.46 682.707 273.68C683.307 272.9 684.195 272.504 685.359 272.504C687.747 272.504 688.935 274.076 688.935 276.8C688.935 278.108 688.635 279.14 688.047 279.92C687.447 280.7 686.559 281.096 685.383 281.096C684.255 281.096 683.379 280.7 682.743 279.908C682.107 279.116 681.795 278.084 681.795 276.8ZM682.899 276.8C682.899 278.852 683.835 280.076 685.383 280.076C687.015 280.076 687.831 278.984 687.831 276.8C687.831 274.616 687.003 273.524 685.359 273.524C683.691 273.524 682.899 274.724 682.899 276.8ZM690.659 275.048L689.759 274.64C690.203 273.344 691.367 272.492 693.107 272.492C693.935 272.492 694.619 272.684 695.147 273.068C695.675 273.452 695.939 273.968 695.939 274.604C695.939 275.576 695.423 276.296 694.463 276.572C695.387 276.632 696.131 277.328 696.131 278.576C696.131 279.368 695.843 279.992 695.267 280.436C694.691 280.88 693.959 281.108 693.059 281.108C691.223 281.108 689.951 280.232 689.531 278.852L690.503 278.432C691.019 279.524 691.895 280.076 693.131 280.076C694.295 280.076 695.027 279.536 695.027 278.588C695.027 277.664 694.307 277.196 692.867 277.196H691.931V276.2H692.675C693.983 276.2 694.835 275.612 694.835 274.808C694.835 273.98 694.151 273.512 693.059 273.512C691.775 273.512 690.995 274.172 690.659 275.048Z" fill="#76848D"/>
<path d="M722.946 116.804L722.498 115.754L725.858 114.144H726.656V124H725.452V115.642L722.946 116.804ZM735.204 124H733.986V121.998H727.994V121.186L734.126 114.2H735.204V120.864H737.024V121.998H735.204V124ZM733.986 116.16L729.674 120.864H733.986V116.16ZM738.646 124C738.128 124.056 737.736 123.762 737.736 123.258C737.736 122.768 738.044 122.46 738.59 122.46C739.206 122.46 739.612 122.88 739.612 123.664C739.612 125.064 738.842 125.778 737.82 126.016L737.526 125.358C737.834 125.274 738.114 125.106 738.366 124.84C738.604 124.574 738.702 124.294 738.646 124ZM740.63 119.1C740.63 117.588 740.98 116.37 741.694 115.46C742.394 114.55 743.43 114.088 744.788 114.088C747.574 114.088 748.96 115.922 748.96 119.1C748.96 120.626 748.61 121.83 747.924 122.74C747.224 123.65 746.188 124.112 744.816 124.112C743.5 124.112 742.478 123.65 741.736 122.726C740.994 121.802 740.63 120.598 740.63 119.1ZM741.918 119.1C741.918 121.494 743.01 122.922 744.816 122.922C746.72 122.922 747.672 121.648 747.672 119.1C747.672 116.552 746.706 115.278 744.788 115.278C742.842 115.278 741.918 116.678 741.918 119.1Z" fill="#2A3C3C"/>
<path d="M722.946 116.804L722.498 115.754L725.858 114.144H726.656V124H725.452V115.642L722.946 116.804ZM735.204 124H733.986V121.998H727.994V121.186L734.126 114.2H735.204V120.864H737.024V121.998H735.204V124ZM733.986 116.16L729.674 120.864H733.986V116.16ZM738.646 124C738.128 124.056 737.736 123.762 737.736 123.258C737.736 122.768 738.044 122.46 738.59 122.46C739.206 122.46 739.612 122.88 739.612 123.664C739.612 125.064 738.842 125.778 737.82 126.016L737.526 125.358C737.834 125.274 738.114 125.106 738.366 124.84C738.604 124.574 738.702 124.294 738.646 124ZM740.63 119.1C740.63 117.588 740.98 116.37 741.694 115.46C742.394 114.55 743.43 114.088 744.788 114.088C747.574 114.088 748.96 115.922 748.96 119.1C748.96 120.626 748.61 121.83 747.924 122.74C747.224 123.65 746.188 124.112 744.816 124.112C743.5 124.112 742.478 123.65 741.736 122.726C740.994 121.802 740.63 120.598 740.63 119.1ZM741.918 119.1C741.918 121.494 743.01 122.922 744.816 122.922C746.72 122.922 747.672 121.648 747.672 119.1C747.672 116.552 746.706 115.278 744.788 115.278C742.842 115.278 741.918 116.678 741.918 119.1Z" fill="#1A3341"/>
<path d="M728.467 276.8C728.467 275.504 728.767 274.46 729.379 273.68C729.979 272.9 730.867 272.504 732.031 272.504C734.419 272.504 735.607 274.076 735.607 276.8C735.607 278.108 735.307 279.14 734.719 279.92C734.119 280.7 733.231 281.096 732.055 281.096C730.927 281.096 730.051 280.7 729.415 279.908C728.779 279.116 728.467 278.084 728.467 276.8ZM729.571 276.8C729.571 278.852 730.507 280.076 732.055 280.076C733.687 280.076 734.503 278.984 734.503 276.8C734.503 274.616 733.675 273.524 732.031 273.524C730.363 273.524 729.571 274.724 729.571 276.8ZM742.299 281H741.255V279.284H736.119V278.588L741.375 272.6H742.299V278.312H743.859V279.284H742.299V281ZM741.255 274.28L737.559 278.312H741.255V274.28Z" fill="#76848D"/>
<path d="M769.743 23.804L769.295 22.754L772.655 21.144H773.453V31H772.249V22.642L769.743 23.804ZM776.666 26.492L775.658 26.226L776.232 21.2H782.392V22.39H777.31L776.946 25.022C777.436 24.658 778.178 24.476 779.172 24.476C780.32 24.476 781.216 24.784 781.874 25.386C782.518 26.002 782.84 26.786 782.84 27.752C782.84 28.718 782.476 29.53 781.762 30.16C781.034 30.804 780.124 31.126 779.046 31.126C777.212 31.126 775.686 30.258 775.056 28.732L776.176 28.256C776.582 29.194 777.632 29.936 779.046 29.936C780.656 29.936 781.552 29.012 781.552 27.794C781.552 26.492 780.502 25.652 778.836 25.652C777.94 25.652 777.212 25.932 776.666 26.492ZM784.841 31C784.323 31.056 783.931 30.762 783.931 30.258C783.931 29.768 784.239 29.46 784.785 29.46C785.401 29.46 785.807 29.88 785.807 30.664C785.807 32.064 785.037 32.778 784.015 33.016L783.721 32.358C784.029 32.274 784.309 32.106 784.561 31.84C784.799 31.574 784.897 31.294 784.841 31ZM786.714 23.804L786.266 22.754L789.626 21.144H790.424V31H789.22V22.642L786.714 23.804Z" fill="#2A3C3C"/>
<path d="M769.743 23.804L769.295 22.754L772.655 21.144H773.453V31H772.249V22.642L769.743 23.804ZM776.666 26.492L775.658 26.226L776.232 21.2H782.392V22.39H777.31L776.946 25.022C777.436 24.658 778.178 24.476 779.172 24.476C780.32 24.476 781.216 24.784 781.874 25.386C782.518 26.002 782.84 26.786 782.84 27.752C782.84 28.718 782.476 29.53 781.762 30.16C781.034 30.804 780.124 31.126 779.046 31.126C777.212 31.126 775.686 30.258 775.056 28.732L776.176 28.256C776.582 29.194 777.632 29.936 779.046 29.936C780.656 29.936 781.552 29.012 781.552 27.794C781.552 26.492 780.502 25.652 778.836 25.652C777.94 25.652 777.212 25.932 776.666 26.492ZM784.841 31C784.323 31.056 783.931 30.762 783.931 30.258C783.931 29.768 784.239 29.46 784.785 29.46C785.401 29.46 785.807 29.88 785.807 30.664C785.807 32.064 785.037 32.778 784.015 33.016L783.721 32.358C784.029 32.274 784.309 32.106 784.561 31.84C784.799 31.574 784.897 31.294 784.841 31ZM786.714 23.804L786.266 22.754L789.626 21.144H790.424V31H789.22V22.642L786.714 23.804Z" fill="#1A3341"/>
<path d="M772.724 276.8C772.724 275.504 773.024 274.46 773.636 273.68C774.236 272.9 775.124 272.504 776.288 272.504C778.676 272.504 779.864 274.076 779.864 276.8C779.864 278.108 779.564 279.14 778.976 279.92C778.376 280.7 777.488 281.096 776.312 281.096C775.184 281.096 774.308 280.7 773.672 279.908C773.036 279.116 772.724 278.084 772.724 276.8ZM773.828 276.8C773.828 278.852 774.764 280.076 776.312 280.076C777.944 280.076 778.76 278.984 778.76 276.8C778.76 274.616 777.932 273.524 776.288 273.524C774.62 273.524 773.828 274.724 773.828 276.8ZM781.985 277.136L781.121 276.908L781.613 272.6H786.893V273.62H782.537L782.225 275.876C782.645 275.564 783.281 275.408 784.133 275.408C785.117 275.408 785.885 275.672 786.449 276.188C787.001 276.716 787.277 277.388 787.277 278.216C787.277 279.044 786.965 279.74 786.353 280.28C785.729 280.832 784.949 281.108 784.025 281.108C782.453 281.108 781.145 280.364 780.605 279.056L781.565 278.648C781.913 279.452 782.813 280.088 784.025 280.088C785.405 280.088 786.173 279.296 786.173 278.252C786.173 277.136 785.273 276.416 783.845 276.416C783.077 276.416 782.453 276.656 781.985 277.136Z" fill="#76848D"/>
<path d="M809.535 35.804L809.087 34.754L812.447 33.144H813.245V43H812.041V34.642L809.535 35.804ZM821.792 43H820.574V40.998H814.582V40.186L820.714 33.2H821.792V39.864H823.612V40.998H821.792V43ZM820.574 35.16L816.262 39.864H820.574V35.16ZM825.235 43C824.717 43.056 824.325 42.762 824.325 42.258C824.325 41.768 824.633 41.46 825.179 41.46C825.795 41.46 826.201 41.88 826.201 42.664C826.201 44.064 825.431 44.778 824.409 45.016L824.115 44.358C824.423 44.274 824.703 44.106 824.955 43.84C825.193 43.574 825.291 43.294 825.235 43ZM831.083 37.414H831.517C832.147 37.414 832.665 37.26 833.099 36.966C833.519 36.672 833.729 36.28 833.729 35.818C833.729 34.768 832.903 34.236 831.265 34.236C829.697 34.236 828.843 34.81 828.843 35.818C828.843 36.728 829.781 37.414 831.083 37.414ZM831.489 38.52H831.139C830.383 38.52 829.753 38.688 829.263 39.01C828.773 39.332 828.521 39.738 828.521 40.228C828.521 41.292 829.501 41.964 831.279 41.964C833.085 41.964 834.051 41.32 834.051 40.242C834.051 39.164 833.015 38.52 831.489 38.52ZM834.247 42.37C833.533 42.874 832.539 43.126 831.293 43.126C830.047 43.126 829.053 42.874 828.325 42.384C827.597 41.894 827.233 41.222 827.233 40.354C827.233 39.22 827.975 38.324 829.165 37.932C828.087 37.582 827.555 36.728 827.555 35.734C827.555 34.11 828.927 33.074 831.279 33.074C833.645 33.074 835.017 34.11 835.017 35.734C835.017 36.672 834.499 37.386 833.463 37.862C834.709 38.24 835.325 39.052 835.325 40.298C835.325 41.18 834.961 41.88 834.247 42.37Z" fill="#2A3C3C"/>
<path d="M809.535 35.804L809.087 34.754L812.447 33.144H813.245V43H812.041V34.642L809.535 35.804ZM821.792 43H820.574V40.998H814.582V40.186L820.714 33.2H821.792V39.864H823.612V40.998H821.792V43ZM820.574 35.16L816.262 39.864H820.574V35.16ZM825.235 43C824.717 43.056 824.325 42.762 824.325 42.258C824.325 41.768 824.633 41.46 825.179 41.46C825.795 41.46 826.201 41.88 826.201 42.664C826.201 44.064 825.431 44.778 824.409 45.016L824.115 44.358C824.423 44.274 824.703 44.106 824.955 43.84C825.193 43.574 825.291 43.294 825.235 43ZM831.083 37.414H831.517C832.147 37.414 832.665 37.26 833.099 36.966C833.519 36.672 833.729 36.28 833.729 35.818C833.729 34.768 832.903 34.236 831.265 34.236C829.697 34.236 828.843 34.81 828.843 35.818C828.843 36.728 829.781 37.414 831.083 37.414ZM831.489 38.52H831.139C830.383 38.52 829.753 38.688 829.263 39.01C828.773 39.332 828.521 39.738 828.521 40.228C828.521 41.292 829.501 41.964 831.279 41.964C833.085 41.964 834.051 41.32 834.051 40.242C834.051 39.164 833.015 38.52 831.489 38.52ZM834.247 42.37C833.533 42.874 832.539 43.126 831.293 43.126C830.047 43.126 829.053 42.874 828.325 42.384C827.597 41.894 827.233 41.222 827.233 40.354C827.233 39.22 827.975 38.324 829.165 37.932C828.087 37.582 827.555 36.728 827.555 35.734C827.555 34.11 828.927 33.074 831.279 33.074C833.645 33.074 835.017 34.11 835.017 35.734C835.017 36.672 834.499 37.386 833.463 37.862C834.709 38.24 835.325 39.052 835.325 40.298C835.325 41.18 834.961 41.88 834.247 42.37Z" fill="#1A3341"/>
<path d="M814.508 276.8C814.508 275.504 814.808 274.46 815.42 273.68C816.02 272.9 816.908 272.504 818.072 272.504C820.46 272.504 821.648 274.076 821.648 276.8C821.648 278.108 821.348 279.14 820.76 279.92C820.16 280.7 819.272 281.096 818.096 281.096C816.968 281.096 816.092 280.7 815.456 279.908C814.82 279.116 814.508 278.084 814.508 276.8ZM815.612 276.8C815.612 278.852 816.548 280.076 818.096 280.076C819.728 280.076 820.544 278.984 820.544 276.8C820.544 274.616 819.716 273.524 818.072 273.524C816.404 273.524 815.612 274.724 815.612 276.8ZM822.544 277.028C822.544 275.576 822.904 274.46 823.612 273.668C824.32 272.888 825.208 272.492 826.276 272.492C827.68 272.492 828.784 273.128 829.252 274.136L828.436 274.688C827.944 273.908 827.212 273.524 826.228 273.524C825.484 273.524 824.86 273.812 824.356 274.388C823.852 274.976 823.6 275.768 823.612 276.788C824.08 275.912 825.172 275.384 826.372 275.384C827.344 275.384 828.124 275.636 828.688 276.152C829.252 276.668 829.54 277.352 829.54 278.192C829.54 279.044 829.228 279.752 828.592 280.292C827.956 280.832 827.164 281.108 826.216 281.108C823.948 281.108 822.544 279.632 822.544 277.028ZM823.744 278.048C823.972 279.236 824.872 280.076 826.204 280.076C826.852 280.076 827.392 279.908 827.812 279.56C828.232 279.224 828.436 278.78 828.436 278.24C828.436 277.052 827.596 276.416 826.312 276.416C825.604 276.416 825.016 276.584 824.56 276.92C824.092 277.256 823.828 277.628 823.744 278.048Z" fill="#76848D"/>
<path d="M851.747 26.804L851.299 25.754L854.659 24.144H855.457V34H854.253V25.642L851.747 26.804ZM858.67 29.492L857.662 29.226L858.236 24.2H864.396V25.39H859.314L858.95 28.022C859.44 27.658 860.182 27.476 861.176 27.476C862.324 27.476 863.22 27.784 863.878 28.386C864.522 29.002 864.844 29.786 864.844 30.752C864.844 31.718 864.48 32.53 863.766 33.16C863.038 33.804 862.128 34.126 861.05 34.126C859.216 34.126 857.69 33.258 857.06 31.732L858.18 31.256C858.586 32.194 859.636 32.936 861.05 32.936C862.66 32.936 863.556 32.012 863.556 30.794C863.556 29.492 862.506 28.652 860.84 28.652C859.944 28.652 859.216 28.932 858.67 29.492ZM866.845 34C866.327 34.056 865.935 33.762 865.935 33.258C865.935 32.768 866.243 32.46 866.789 32.46C867.405 32.46 867.811 32.88 867.811 33.664C867.811 35.064 867.041 35.778 866.019 36.016L865.725 35.358C866.033 35.274 866.313 35.106 866.565 34.84C866.803 34.574 866.901 34.294 866.845 34ZM868.83 29.1C868.83 27.588 869.18 26.37 869.894 25.46C870.594 24.55 871.63 24.088 872.988 24.088C875.774 24.088 877.16 25.922 877.16 29.1C877.16 30.626 876.81 31.83 876.124 32.74C875.424 33.65 874.388 34.112 873.016 34.112C871.7 34.112 870.678 33.65 869.936 32.726C869.194 31.802 868.83 30.598 868.83 29.1ZM870.118 29.1C870.118 31.494 871.21 32.922 873.016 32.922C874.92 32.922 875.872 31.648 875.872 29.1C875.872 26.552 874.906 25.278 872.988 25.278C871.042 25.278 870.118 26.678 870.118 29.1Z" fill="#2A3C3C"/>
<path d="M851.747 26.804L851.299 25.754L854.659 24.144H855.457V34H854.253V25.642L851.747 26.804ZM858.67 29.492L857.662 29.226L858.236 24.2H864.396V25.39H859.314L858.95 28.022C859.44 27.658 860.182 27.476 861.176 27.476C862.324 27.476 863.22 27.784 863.878 28.386C864.522 29.002 864.844 29.786 864.844 30.752C864.844 31.718 864.48 32.53 863.766 33.16C863.038 33.804 862.128 34.126 861.05 34.126C859.216 34.126 857.69 33.258 857.06 31.732L858.18 31.256C858.586 32.194 859.636 32.936 861.05 32.936C862.66 32.936 863.556 32.012 863.556 30.794C863.556 29.492 862.506 28.652 860.84 28.652C859.944 28.652 859.216 28.932 858.67 29.492ZM866.845 34C866.327 34.056 865.935 33.762 865.935 33.258C865.935 32.768 866.243 32.46 866.789 32.46C867.405 32.46 867.811 32.88 867.811 33.664C867.811 35.064 867.041 35.778 866.019 36.016L865.725 35.358C866.033 35.274 866.313 35.106 866.565 34.84C866.803 34.574 866.901 34.294 866.845 34ZM868.83 29.1C868.83 27.588 869.18 26.37 869.894 25.46C870.594 24.55 871.63 24.088 872.988 24.088C875.774 24.088 877.16 25.922 877.16 29.1C877.16 30.626 876.81 31.83 876.124 32.74C875.424 33.65 874.388 34.112 873.016 34.112C871.7 34.112 870.678 33.65 869.936 32.726C869.194 31.802 868.83 30.598 868.83 29.1ZM870.118 29.1C870.118 31.494 871.21 32.922 873.016 32.922C874.92 32.922 875.872 31.648 875.872 29.1C875.872 26.552 874.906 25.278 872.988 25.278C871.042 25.278 870.118 26.678 870.118 29.1Z" fill="#1A3341"/>
<path d="M857.07 276.8C857.07 275.504 857.37 274.46 857.982 273.68C858.582 272.9 859.47 272.504 860.634 272.504C863.022 272.504 864.21 274.076 864.21 276.8C864.21 278.108 863.91 279.14 863.322 279.92C862.722 280.7 861.834 281.096 860.658 281.096C859.53 281.096 858.654 280.7 858.018 279.908C857.382 279.116 857.07 278.084 857.07 276.8ZM858.174 276.8C858.174 278.852 859.11 280.076 860.658 280.076C862.29 280.076 863.106 278.984 863.106 276.8C863.106 274.616 862.278 273.524 860.634 273.524C858.966 273.524 858.174 274.724 858.174 276.8ZM869.918 273.62H864.83V272.6H871.202V273.284L867.026 281H865.886L869.918 273.62Z" fill="#76848D"/>
<path d="M893.684 15.804L893.236 14.754L896.596 13.144H897.394V23H896.19V14.642L893.684 15.804ZM900.608 18.492L899.6 18.226L900.174 13.2H906.334V14.39H901.252L900.888 17.022C901.378 16.658 902.12 16.476 903.114 16.476C904.262 16.476 905.158 16.784 905.816 17.386C906.46 18.002 906.782 18.786 906.782 19.752C906.782 20.718 906.418 21.53 905.704 22.16C904.976 22.804 904.066 23.126 902.988 23.126C901.154 23.126 899.628 22.258 898.998 20.732L900.118 20.256C900.524 21.194 901.574 21.936 902.988 21.936C904.598 21.936 905.494 21.012 905.494 19.794C905.494 18.492 904.444 17.652 902.778 17.652C901.882 17.652 901.154 17.932 900.608 18.492ZM908.783 23C908.265 23.056 907.873 22.762 907.873 22.258C907.873 21.768 908.181 21.46 908.727 21.46C909.343 21.46 909.749 21.88 909.749 22.664C909.749 24.064 908.979 24.778 907.957 25.016L907.663 24.358C907.971 24.274 908.251 24.106 908.503 23.84C908.741 23.574 908.839 23.294 908.783 23ZM911.733 16.056L910.683 15.58C911.201 14.068 912.559 13.074 914.589 13.074C915.555 13.074 916.353 13.298 916.969 13.746C917.585 14.194 917.893 14.796 917.893 15.538C917.893 16.672 917.291 17.512 916.171 17.834C917.249 17.904 918.117 18.716 918.117 20.172C918.117 21.096 917.781 21.824 917.109 22.342C916.437 22.86 915.583 23.126 914.533 23.126C912.391 23.126 910.907 22.104 910.417 20.494L911.551 20.004C912.153 21.278 913.175 21.922 914.617 21.922C915.975 21.922 916.829 21.292 916.829 20.186C916.829 19.108 915.989 18.562 914.309 18.562H913.217V17.4H914.085C915.611 17.4 916.605 16.714 916.605 15.776C916.605 14.81 915.807 14.264 914.533 14.264C913.035 14.264 912.125 15.034 911.733 16.056Z" fill="#2A3C3C"/>
<path d="M893.684 15.804L893.236 14.754L896.596 13.144H897.394V23H896.19V14.642L893.684 15.804ZM900.608 18.492L899.6 18.226L900.174 13.2H906.334V14.39H901.252L900.888 17.022C901.378 16.658 902.12 16.476 903.114 16.476C904.262 16.476 905.158 16.784 905.816 17.386C906.46 18.002 906.782 18.786 906.782 19.752C906.782 20.718 906.418 21.53 905.704 22.16C904.976 22.804 904.066 23.126 902.988 23.126C901.154 23.126 899.628 22.258 898.998 20.732L900.118 20.256C900.524 21.194 901.574 21.936 902.988 21.936C904.598 21.936 905.494 21.012 905.494 19.794C905.494 18.492 904.444 17.652 902.778 17.652C901.882 17.652 901.154 17.932 900.608 18.492ZM908.783 23C908.265 23.056 907.873 22.762 907.873 22.258C907.873 21.768 908.181 21.46 908.727 21.46C909.343 21.46 909.749 21.88 909.749 22.664C909.749 24.064 908.979 24.778 907.957 25.016L907.663 24.358C907.971 24.274 908.251 24.106 908.503 23.84C908.741 23.574 908.839 23.294 908.783 23ZM911.733 16.056L910.683 15.58C911.201 14.068 912.559 13.074 914.589 13.074C915.555 13.074 916.353 13.298 916.969 13.746C917.585 14.194 917.893 14.796 917.893 15.538C917.893 16.672 917.291 17.512 916.171 17.834C917.249 17.904 918.117 18.716 918.117 20.172C918.117 21.096 917.781 21.824 917.109 22.342C916.437 22.86 915.583 23.126 914.533 23.126C912.391 23.126 910.907 22.104 910.417 20.494L911.551 20.004C912.153 21.278 913.175 21.922 914.617 21.922C915.975 21.922 916.829 21.292 916.829 20.186C916.829 19.108 915.989 18.562 914.309 18.562H913.217V17.4H914.085C915.611 17.4 916.605 16.714 916.605 15.776C916.605 14.81 915.807 14.264 914.533 14.264C913.035 14.264 912.125 15.034 911.733 16.056Z" fill="#1A3341"/>
<path d="M898.996 276.8C898.996 275.504 899.296 274.46 899.908 273.68C900.508 272.9 901.396 272.504 902.56 272.504C904.948 272.504 906.136 274.076 906.136 276.8C906.136 278.108 905.836 279.14 905.248 279.92C904.648 280.7 903.76 281.096 902.584 281.096C901.456 281.096 900.58 280.7 899.944 279.908C899.308 279.116 898.996 278.084 898.996 276.8ZM900.1 276.8C900.1 278.852 901.036 280.076 902.584 280.076C904.216 280.076 905.032 278.984 905.032 276.8C905.032 274.616 904.204 273.524 902.56 273.524C900.892 273.524 900.1 274.724 900.1 276.8ZM910.344 276.212H910.716C911.256 276.212 911.7 276.08 912.072 275.828C912.432 275.576 912.612 275.24 912.612 274.844C912.612 273.944 911.904 273.488 910.5 273.488C909.156 273.488 908.424 273.98 908.424 274.844C908.424 275.624 909.228 276.212 910.344 276.212ZM910.692 277.16H910.392C909.744 277.16 909.204 277.304 908.784 277.58C908.364 277.856 908.148 278.204 908.148 278.624C908.148 279.536 908.988 280.112 910.512 280.112C912.06 280.112 912.888 279.56 912.888 278.636C912.888 277.712 912 277.16 910.692 277.16ZM913.056 280.46C912.444 280.892 911.592 281.108 910.524 281.108C909.456 281.108 908.604 280.892 907.98 280.472C907.356 280.052 907.044 279.476 907.044 278.732C907.044 277.76 907.68 276.992 908.7 276.656C907.776 276.356 907.32 275.624 907.32 274.772C907.32 273.38 908.496 272.492 910.512 272.492C912.54 272.492 913.716 273.38 913.716 274.772C913.716 275.576 913.272 276.188 912.384 276.596C913.452 276.92 913.98 277.616 913.98 278.684C913.98 279.44 913.668 280.04 913.056 280.46Z" fill="#76848D"/>
<path d="M937.747 27.804L937.299 26.754L940.659 25.144H941.457V35H940.253V26.642L937.747 27.804ZM944.67 30.492L943.662 30.226L944.236 25.2H950.396V26.39H945.314L944.95 29.022C945.44 28.658 946.182 28.476 947.176 28.476C948.324 28.476 949.22 28.784 949.878 29.386C950.522 30.002 950.844 30.786 950.844 31.752C950.844 32.718 950.48 33.53 949.766 34.16C949.038 34.804 948.128 35.126 947.05 35.126C945.216 35.126 943.69 34.258 943.06 32.732L944.18 32.256C944.586 33.194 945.636 33.936 947.05 33.936C948.66 33.936 949.556 33.012 949.556 31.794C949.556 30.492 948.506 29.652 946.84 29.652C945.944 29.652 945.216 29.932 944.67 30.492ZM952.845 35C952.327 35.056 951.935 34.762 951.935 34.258C951.935 33.768 952.243 33.46 952.789 33.46C953.405 33.46 953.811 33.88 953.811 34.664C953.811 36.064 953.041 36.778 952.019 37.016L951.725 36.358C952.033 36.274 952.313 36.106 952.565 35.84C952.803 35.574 952.901 35.294 952.845 35ZM954.83 30.1C954.83 28.588 955.18 27.37 955.894 26.46C956.594 25.55 957.63 25.088 958.988 25.088C961.774 25.088 963.16 26.922 963.16 30.1C963.16 31.626 962.81 32.83 962.124 33.74C961.424 34.65 960.388 35.112 959.016 35.112C957.7 35.112 956.678 34.65 955.936 33.726C955.194 32.802 954.83 31.598 954.83 30.1ZM956.118 30.1C956.118 32.494 957.21 33.922 959.016 33.922C960.92 33.922 961.872 32.648 961.872 30.1C961.872 27.552 960.906 26.278 958.988 26.278C957.042 26.278 956.118 27.678 956.118 30.1Z" fill="#2A3C3C"/>
<path d="M937.747 27.804L937.299 26.754L940.659 25.144H941.457V35H940.253V26.642L937.747 27.804ZM944.67 30.492L943.662 30.226L944.236 25.2H950.396V26.39H945.314L944.95 29.022C945.44 28.658 946.182 28.476 947.176 28.476C948.324 28.476 949.22 28.784 949.878 29.386C950.522 30.002 950.844 30.786 950.844 31.752C950.844 32.718 950.48 33.53 949.766 34.16C949.038 34.804 948.128 35.126 947.05 35.126C945.216 35.126 943.69 34.258 943.06 32.732L944.18 32.256C944.586 33.194 945.636 33.936 947.05 33.936C948.66 33.936 949.556 33.012 949.556 31.794C949.556 30.492 948.506 29.652 946.84 29.652C945.944 29.652 945.216 29.932 944.67 30.492ZM952.845 35C952.327 35.056 951.935 34.762 951.935 34.258C951.935 33.768 952.243 33.46 952.789 33.46C953.405 33.46 953.811 33.88 953.811 34.664C953.811 36.064 953.041 36.778 952.019 37.016L951.725 36.358C952.033 36.274 952.313 36.106 952.565 35.84C952.803 35.574 952.901 35.294 952.845 35ZM954.83 30.1C954.83 28.588 955.18 27.37 955.894 26.46C956.594 25.55 957.63 25.088 958.988 25.088C961.774 25.088 963.16 26.922 963.16 30.1C963.16 31.626 962.81 32.83 962.124 33.74C961.424 34.65 960.388 35.112 959.016 35.112C957.7 35.112 956.678 34.65 955.936 33.726C955.194 32.802 954.83 31.598 954.83 30.1ZM956.118 30.1C956.118 32.494 957.21 33.922 959.016 33.922C960.92 33.922 961.872 32.648 961.872 30.1C961.872 27.552 960.906 26.278 958.988 26.278C957.042 26.278 956.118 27.678 956.118 30.1Z" fill="#1A3341"/>
<path d="M942.996 276.8C942.996 275.504 943.296 274.46 943.908 273.68C944.508 272.9 945.396 272.504 946.56 272.504C948.948 272.504 950.136 274.076 950.136 276.8C950.136 278.108 949.836 279.14 949.248 279.92C948.648 280.7 947.76 281.096 946.584 281.096C945.456 281.096 944.58 280.7 943.944 279.908C943.308 279.116 942.996 278.084 942.996 276.8ZM944.1 276.8C944.1 278.852 945.036 280.076 946.584 280.076C948.216 280.076 949.032 278.984 949.032 276.8C949.032 274.616 948.204 273.524 946.56 273.524C944.892 273.524 944.1 274.724 944.1 276.8ZM958.016 276.644C958.016 278.072 957.68 279.176 956.996 279.944C956.312 280.724 955.4 281.108 954.26 281.108C952.868 281.108 951.776 280.52 951.236 279.62L952.1 279.02C952.58 279.692 953.456 280.076 954.404 280.076C955.184 280.076 955.808 279.764 956.3 279.14C956.792 278.528 956.996 277.76 956.936 276.848C956.54 277.76 955.544 278.432 954.212 278.432C953.276 278.432 952.508 278.168 951.908 277.628C951.296 277.1 950.996 276.404 950.996 275.552C950.996 274.616 951.32 273.872 951.968 273.32C952.616 272.768 953.48 272.492 954.548 272.492C956.708 272.492 958.016 274.004 958.016 276.644ZM956.756 275.516C956.576 274.4 955.808 273.524 954.428 273.524C952.988 273.524 952.1 274.268 952.1 275.516C952.1 276.704 953 277.4 954.404 277.4C955.04 277.4 955.58 277.208 956 276.824C956.42 276.44 956.672 276.008 956.756 275.516Z" fill="#76848D"/>
<path d="M983.743 23.804L983.295 22.754L986.655 21.144H987.453V31H986.249V22.642L983.743 23.804ZM990.666 26.492L989.658 26.226L990.232 21.2H996.392V22.39H991.31L990.946 25.022C991.436 24.658 992.178 24.476 993.172 24.476C994.32 24.476 995.216 24.784 995.874 25.386C996.518 26.002 996.84 26.786 996.84 27.752C996.84 28.718 996.476 29.53 995.762 30.16C995.034 30.804 994.124 31.126 993.046 31.126C991.212 31.126 989.686 30.258 989.056 28.732L990.176 28.256C990.582 29.194 991.632 29.936 993.046 29.936C994.656 29.936 995.552 29.012 995.552 27.794C995.552 26.492 994.502 25.652 992.836 25.652C991.94 25.652 991.212 25.932 990.666 26.492ZM998.841 31C998.323 31.056 997.931 30.762 997.931 30.258C997.931 29.768 998.239 29.46 998.785 29.46C999.401 29.46 999.807 29.88 999.807 30.664C999.807 32.064 999.037 32.778 998.015 33.016L997.721 32.358C998.029 32.274 998.309 32.106 998.561 31.84C998.799 31.574 998.897 31.294 998.841 31ZM1000.71 23.804L1000.27 22.754L1003.63 21.144H1004.42V31H1003.22V22.642L1000.71 23.804Z" fill="#2A3C3C"/>
<path d="M983.743 23.804L983.295 22.754L986.655 21.144H987.453V31H986.249V22.642L983.743 23.804ZM990.666 26.492L989.658 26.226L990.232 21.2H996.392V22.39H991.31L990.946 25.022C991.436 24.658 992.178 24.476 993.172 24.476C994.32 24.476 995.216 24.784 995.874 25.386C996.518 26.002 996.84 26.786 996.84 27.752C996.84 28.718 996.476 29.53 995.762 30.16C995.034 30.804 994.124 31.126 993.046 31.126C991.212 31.126 989.686 30.258 989.056 28.732L990.176 28.256C990.582 29.194 991.632 29.936 993.046 29.936C994.656 29.936 995.552 29.012 995.552 27.794C995.552 26.492 994.502 25.652 992.836 25.652C991.94 25.652 991.212 25.932 990.666 26.492ZM998.841 31C998.323 31.056 997.931 30.762 997.931 30.258C997.931 29.768 998.239 29.46 998.785 29.46C999.401 29.46 999.807 29.88 999.807 30.664C999.807 32.064 999.037 32.778 998.015 33.016L997.721 32.358C998.029 32.274 998.309 32.106 998.561 31.84C998.799 31.574 998.897 31.294 998.841 31ZM1000.71 23.804L1000.27 22.754L1003.63 21.144H1004.42V31H1003.22V22.642L1000.71 23.804Z" fill="#1A3341"/>
<path d="M988.535 274.832L988.151 273.932L991.031 272.552H991.715V281H990.683V273.836L988.535 274.832ZM993.245 276.8C993.245 275.504 993.545 274.46 994.157 273.68C994.757 272.9 995.645 272.504 996.809 272.504C999.197 272.504 1000.39 274.076 1000.39 276.8C1000.39 278.108 1000.09 279.14 999.497 279.92C998.897 280.7 998.009 281.096 996.833 281.096C995.705 281.096 994.829 280.7 994.193 279.908C993.557 279.116 993.245 278.084 993.245 276.8ZM994.349 276.8C994.349 278.852 995.285 280.076 996.833 280.076C998.465 280.076 999.281 278.984 999.281 276.8C999.281 274.616 998.453 273.524 996.809 273.524C995.141 273.524 994.349 274.724 994.349 276.8Z" fill="#76848D"/>
<path d="M1026.55 86.804L1026.1 85.754L1029.46 84.144H1030.26V94H1029.05V85.642L1026.55 86.804ZM1038.81 94H1037.59V91.998H1031.6V91.186L1037.73 84.2H1038.81V90.864H1040.63V91.998H1038.81V94ZM1037.59 86.16L1033.28 90.864H1037.59V86.16ZM1042.25 94C1041.73 94.056 1041.34 93.762 1041.34 93.258C1041.34 92.768 1041.65 92.46 1042.19 92.46C1042.81 92.46 1043.21 92.88 1043.21 93.664C1043.21 95.064 1042.44 95.778 1041.42 96.016L1041.13 95.358C1041.44 95.274 1041.72 95.106 1041.97 94.84C1042.21 94.574 1042.3 94.294 1042.25 94ZM1044.23 89.366C1044.23 87.672 1044.65 86.37 1045.48 85.446C1046.3 84.536 1047.34 84.074 1048.59 84.074C1050.22 84.074 1051.51 84.816 1052.06 85.992L1051.11 86.636C1050.53 85.726 1049.68 85.278 1048.53 85.278C1047.66 85.278 1046.93 85.614 1046.35 86.286C1045.76 86.972 1045.46 87.896 1045.48 89.086C1046.02 88.064 1047.3 87.448 1048.7 87.448C1049.83 87.448 1050.74 87.742 1051.4 88.344C1052.06 88.946 1052.39 89.744 1052.39 90.724C1052.39 91.718 1052.03 92.544 1051.29 93.174C1050.55 93.804 1049.62 94.126 1048.52 94.126C1045.87 94.126 1044.23 92.404 1044.23 89.366ZM1045.63 90.556C1045.9 91.942 1046.95 92.922 1048.5 92.922C1049.26 92.922 1049.89 92.726 1050.38 92.32C1050.87 91.928 1051.11 91.41 1051.11 90.78C1051.11 89.394 1050.13 88.652 1048.63 88.652C1047.8 88.652 1047.12 88.848 1046.58 89.24C1046.04 89.632 1045.73 90.066 1045.63 90.556Z" fill="#2A3C3C"/>
<path d="M1026.55 86.804L1026.1 85.754L1029.46 84.144H1030.26V94H1029.05V85.642L1026.55 86.804ZM1038.81 94H1037.59V91.998H1031.6V91.186L1037.73 84.2H1038.81V90.864H1040.63V91.998H1038.81V94ZM1037.59 86.16L1033.28 90.864H1037.59V86.16ZM1042.25 94C1041.73 94.056 1041.34 93.762 1041.34 93.258C1041.34 92.768 1041.65 92.46 1042.19 92.46C1042.81 92.46 1043.21 92.88 1043.21 93.664C1043.21 95.064 1042.44 95.778 1041.42 96.016L1041.13 95.358C1041.44 95.274 1041.72 95.106 1041.97 94.84C1042.21 94.574 1042.3 94.294 1042.25 94ZM1044.23 89.366C1044.23 87.672 1044.65 86.37 1045.48 85.446C1046.3 84.536 1047.34 84.074 1048.59 84.074C1050.22 84.074 1051.51 84.816 1052.06 85.992L1051.11 86.636C1050.53 85.726 1049.68 85.278 1048.53 85.278C1047.66 85.278 1046.93 85.614 1046.35 86.286C1045.76 86.972 1045.46 87.896 1045.48 89.086C1046.02 88.064 1047.3 87.448 1048.7 87.448C1049.83 87.448 1050.74 87.742 1051.4 88.344C1052.06 88.946 1052.39 89.744 1052.39 90.724C1052.39 91.718 1052.03 92.544 1051.29 93.174C1050.55 93.804 1049.62 94.126 1048.52 94.126C1045.87 94.126 1044.23 92.404 1044.23 89.366ZM1045.63 90.556C1045.9 91.942 1046.95 92.922 1048.5 92.922C1049.26 92.922 1049.89 92.726 1050.38 92.32C1050.87 91.928 1051.11 91.41 1051.11 90.78C1051.11 89.394 1050.13 88.652 1048.63 88.652C1047.8 88.652 1047.12 88.848 1046.58 89.24C1046.04 89.632 1045.73 90.066 1045.63 90.556Z" fill="#1A3341"/>
<path d="M1034.75 274.832L1034.36 273.932L1037.24 272.552H1037.93V281H1036.89V273.836L1034.75 274.832ZM1039.36 274.832L1038.98 273.932L1041.86 272.552H1042.54V281H1041.51V273.836L1039.36 274.832Z" fill="#76848D"/>
<path d="M1072.74 23.804L1072.29 22.754L1075.65 21.144H1076.45V31H1075.25V22.642L1072.74 23.804ZM1079.67 26.492L1078.66 26.226L1079.23 21.2H1085.39V22.39H1080.31L1079.95 25.022C1080.44 24.658 1081.18 24.476 1082.17 24.476C1083.32 24.476 1084.22 24.784 1084.87 25.386C1085.52 26.002 1085.84 26.786 1085.84 27.752C1085.84 28.718 1085.48 29.53 1084.76 30.16C1084.03 30.804 1083.12 31.126 1082.05 31.126C1080.21 31.126 1078.69 30.258 1078.06 28.732L1079.18 28.256C1079.58 29.194 1080.63 29.936 1082.05 29.936C1083.66 29.936 1084.55 29.012 1084.55 27.794C1084.55 26.492 1083.5 25.652 1081.84 25.652C1080.94 25.652 1080.21 25.932 1079.67 26.492ZM1087.84 31C1087.32 31.056 1086.93 30.762 1086.93 30.258C1086.93 29.768 1087.24 29.46 1087.79 29.46C1088.4 29.46 1088.81 29.88 1088.81 30.664C1088.81 32.064 1088.04 32.778 1087.02 33.016L1086.72 32.358C1087.03 32.274 1087.31 32.106 1087.56 31.84C1087.8 31.574 1087.9 31.294 1087.84 31ZM1089.71 23.804L1089.27 22.754L1092.63 21.144H1093.42V31H1092.22V22.642L1089.71 23.804Z" fill="#2A3C3C"/>
<path d="M1072.74 23.804L1072.29 22.754L1075.65 21.144H1076.45V31H1075.25V22.642L1072.74 23.804ZM1079.67 26.492L1078.66 26.226L1079.23 21.2H1085.39V22.39H1080.31L1079.95 25.022C1080.44 24.658 1081.18 24.476 1082.17 24.476C1083.32 24.476 1084.22 24.784 1084.87 25.386C1085.52 26.002 1085.84 26.786 1085.84 27.752C1085.84 28.718 1085.48 29.53 1084.76 30.16C1084.03 30.804 1083.12 31.126 1082.05 31.126C1080.21 31.126 1078.69 30.258 1078.06 28.732L1079.18 28.256C1079.58 29.194 1080.63 29.936 1082.05 29.936C1083.66 29.936 1084.55 29.012 1084.55 27.794C1084.55 26.492 1083.5 25.652 1081.84 25.652C1080.94 25.652 1080.21 25.932 1079.67 26.492ZM1087.84 31C1087.32 31.056 1086.93 30.762 1086.93 30.258C1086.93 29.768 1087.24 29.46 1087.79 29.46C1088.4 29.46 1088.81 29.88 1088.81 30.664C1088.81 32.064 1088.04 32.778 1087.02 33.016L1086.72 32.358C1087.03 32.274 1087.31 32.106 1087.56 31.84C1087.8 31.574 1087.9 31.294 1087.84 31ZM1089.71 23.804L1089.27 22.754L1092.63 21.144H1093.42V31H1092.22V22.642L1089.71 23.804Z" fill="#1A3341"/>
<path d="M1077.44 274.832L1077.05 273.932L1079.93 272.552H1080.62V281H1079.59V273.836L1077.44 274.832ZM1083.11 275.372L1082.23 275.06C1082.53 273.572 1083.66 272.504 1085.45 272.504C1087.18 272.504 1088.23 273.5 1088.23 275.024C1088.23 275.828 1087.89 276.632 1087.45 277.208C1087.24 277.508 1086.96 277.796 1086.64 278.096C1085.98 278.684 1085.51 278.996 1084.83 279.428L1083.9 280.004H1088.55V281H1082.01V280.184L1083.83 278.972C1084.15 278.768 1084.38 278.612 1084.51 278.516C1084.65 278.432 1084.86 278.276 1085.15 278.072C1085.44 277.868 1085.65 277.688 1085.8 277.556C1085.93 277.424 1086.11 277.256 1086.31 277.04C1086.87 276.44 1087.07 275.888 1087.13 275.132C1087.13 274.04 1086.42 273.548 1085.38 273.548C1084.73 273.548 1084.21 273.728 1083.84 274.088C1083.47 274.448 1083.22 274.88 1083.11 275.372Z" fill="#76848D"/>
<line x1="4.91124e-08" y1="266.5" x2="1120" y2="266.5" stroke="#ABBEC9"/>
<path d="M59 62.8517L106.08 147.426L149.465 46.0892L198.071 76.8412L241.62 28L288.536 42.6534L334.051 52.657L375.14 67.7798L420.792 120.74L465.812 94.2816L512.383 107.383L556.633 90.3177L601.298 128.801L643.513 185L689.176 56.3646L737.357 95.9675L780.342 48.7148L823.328 61.7184L865.543 49.7148L907.403 39.2996L952.354 53.2455L995.201 47.361L1039.95 67.6029L1081.5 47.361" stroke="#737AF9" stroke-width="4" stroke-linejoin="round"/>
<circle cx="147" cy="46" r="7" fill="#6D73F9" stroke="white" stroke-width="2"/>
<circle cx="103" cy="148" r="7" fill="#6D73F9" stroke="white" stroke-width="2"/>
<circle cx="56" cy="62" r="7" fill="#6D73F9" stroke="white" stroke-width="2"/>
<circle cx="195" cy="76" r="7" fill="#6D73F9" stroke="white" stroke-width="2"/>
<circle cx="239" cy="28" r="7" fill="#6D73F9" stroke="white" stroke-width="2"/>
<circle cx="285" cy="42" r="7" fill="#6D73F9" stroke="white" stroke-width="2"/>
<circle cx="331" cy="53" r="7" fill="#6D73F9" stroke="white" stroke-width="2"/>
<circle cx="372" cy="68" r="7" fill="#6D73F9" stroke="white" stroke-width="2"/>
<circle cx="417" cy="121" r="7" fill="#6D73F9" stroke="white" stroke-width="2"/>
<circle cx="463" cy="95" r="7" fill="#6D73F9" stroke="white" stroke-width="2"/>
<circle cx="509" cy="107" r="7" fill="#6D73F9" stroke="white" stroke-width="2"/>
<circle cx="553" cy="91" r="7" fill="#6D73F9" stroke="white" stroke-width="2"/>
<circle cx="597" cy="128" r="7" fill="#6D73F9" stroke="white" stroke-width="2"/>
<circle cx="640" cy="185" r="7" fill="#6D73F9" stroke="white" stroke-width="2"/>
<circle cx="687" cy="57" r="7" fill="#6D73F9" stroke="white" stroke-width="2"/>
<circle cx="735" cy="96" r="7" fill="#6D73F9" stroke="white" stroke-width="2"/>
<circle cx="777" cy="49" r="7" fill="#6D73F9" stroke="white" stroke-width="2"/>
<circle cx="820" cy="61" r="7" fill="#6D73F9" stroke="white" stroke-width="2"/>
<circle cx="863" cy="50" r="7" fill="#6D73F9" stroke="white" stroke-width="2"/>
<circle cx="904" cy="40" r="7" fill="#6D73F9" stroke="white" stroke-width="2"/>
<circle cx="949" cy="53" r="7" fill="#6D73F9" stroke="white" stroke-width="2"/>
<circle cx="992" cy="47" r="7" fill="#6D73F9" stroke="white" stroke-width="2"/>
<circle cx="1037" cy="66" r="7" fill="#6D73F9" stroke="white" stroke-width="2"/>
<circle cx="1081" cy="47" r="7" fill="#6D73F9" stroke="white" stroke-width="2"/>
<path d="M0.42 177.832L0.036 176.932L2.916 175.552H3.6V184H2.568V176.836L0.42 177.832ZM6.09038 178.372L5.21438 178.06C5.51438 176.572 6.64238 175.504 8.43038 175.504C10.1584 175.504 11.2144 176.5 11.2144 178.024C11.2144 178.828 10.8664 179.632 10.4344 180.208C10.2184 180.508 9.94238 180.796 9.61838 181.096C8.95838 181.684 8.49038 181.996 7.80638 182.428L6.88238 183.004H11.5264V184H4.98638V183.184L6.81038 181.972C7.13438 181.768 7.36238 181.612 7.49438 181.516C7.62638 181.432 7.84238 181.276 8.13038 181.072C8.41838 180.868 8.63438 180.688 8.77838 180.556C8.91038 180.424 9.09038 180.256 9.29438 180.04C9.84638 179.44 10.0504 178.888 10.1104 178.132C10.1104 177.04 9.40238 176.548 8.35838 176.548C7.71038 176.548 7.19438 176.728 6.82238 177.088C6.45038 177.448 6.19838 177.88 6.09038 178.372Z" fill="#76848D"/>
<path d="M0.42 91.832L0.036 90.932L2.916 89.552H3.6V98H2.568V90.836L0.42 91.832ZM10.9264 98H9.88238V96.284H4.74638V95.588L10.0024 89.6H10.9264V95.312H12.4864V96.284H10.9264V98ZM9.88238 91.28L6.18638 95.312H9.88238V91.28Z" fill="#76848D"/>
<path d="M0.42 5.832L0.036 4.932L2.916 3.552H3.6V12H2.568V4.836L0.42 5.832ZM5.13038 8.028C5.13038 6.576 5.49038 5.46 6.19838 4.668C6.90638 3.888 7.79438 3.492 8.86238 3.492C10.2664 3.492 11.3704 4.128 11.8384 5.136L11.0224 5.688C10.5304 4.908 9.79838 4.524 8.81438 4.524C8.07038 4.524 7.44638 4.812 6.94238 5.388C6.43838 5.976 6.18638 6.768 6.19838 7.788C6.66638 6.912 7.75838 6.384 8.95838 6.384C9.93038 6.384 10.7104 6.636 11.2744 7.152C11.8384 7.668 12.1264 8.352 12.1264 9.192C12.1264 10.044 11.8144 10.752 11.1784 11.292C10.5424 11.832 9.75038 12.108 8.80238 12.108C6.53438 12.108 5.13038 10.632 5.13038 8.028ZM6.33038 9.048C6.55838 10.236 7.45838 11.076 8.79038 11.076C9.43838 11.076 9.97838 10.908 10.3984 10.56C10.8184 10.224 11.0224 9.78 11.0224 9.24C11.0224 8.052 10.1824 7.416 8.89838 7.416C8.19038 7.416 7.60238 7.584 7.14638 7.92C6.67838 8.256 6.41438 8.628 6.33038 9.048Z" fill="#76848D"/>
</svg>
