<svg width="309" height="650" viewBox="0 0 309 650" fill="none" xmlns="http://www.w3.org/2000/svg">
<path d="M116 31C136.298 31 156.234 36.3723 173.783 46.5713C191.333 56.7702 205.87 71.4324 215.919 89.0683L203.929 95.9001C195.086 80.3805 182.293 67.4778 166.849 58.5027C151.406 49.5277 133.862 44.8 116 44.8V31Z" fill="url(#paint0_linear_6006_29664)"/>
<path d="M215.646 88.5912C225.967 106.507 231.268 126.874 230.99 147.549L217.191 147.363C217.436 129.169 212.771 111.246 203.688 95.4803L215.646 88.5912Z" fill="url(#paint1_linear_6006_29664)"/>
<path d="M231 146C231 168.745 224.255 190.979 211.619 209.891C198.983 228.802 181.022 243.542 160.009 252.246C138.995 260.95 115.872 263.228 93.5646 258.79C71.2568 254.353 50.7657 243.4 34.6827 227.317C18.5997 211.234 7.64698 190.743 3.20968 168.435C-1.22762 146.128 1.04979 123.005 9.75386 101.991C18.4579 80.9779 33.1978 63.0173 52.1095 50.381C71.0211 37.7446 93.2552 31 116 31L116 44.8C95.9846 44.8 76.4186 50.7353 59.7763 61.8553C43.1341 72.9752 30.163 88.7805 22.5034 107.272C14.8438 125.764 12.8397 146.112 16.7445 165.743C20.6493 185.374 30.2877 203.406 44.4408 217.559C58.5938 231.712 76.626 241.351 96.2568 245.255C115.888 249.16 136.236 247.156 154.728 239.497C173.219 231.837 189.025 218.866 200.145 202.224C211.265 185.581 217.2 166.015 217.2 146L231 146Z" fill="url(#paint2_linear_6006_29664)"/>
<path d="M185.03 9.492L184.022 9.226L184.596 4.2H190.756V5.39H185.674L185.31 8.022C185.8 7.658 186.542 7.476 187.536 7.476C188.684 7.476 189.58 7.784 190.238 8.386C190.882 9.002 191.204 9.786 191.204 10.752C191.204 11.718 190.84 12.53 190.126 13.16C189.398 13.804 188.488 14.126 187.41 14.126C185.576 14.126 184.05 13.258 183.42 11.732L184.54 11.256C184.946 12.194 185.996 12.936 187.41 12.936C189.02 12.936 189.916 12.012 189.916 10.794C189.916 9.492 188.866 8.652 187.2 8.652C186.304 8.652 185.576 8.932 185.03 9.492ZM192.365 13.202C192.365 12.81 192.729 12.418 193.233 12.418C193.695 12.418 194.073 12.81 194.073 13.202C194.073 13.65 193.723 14.028 193.233 14.028C192.729 14.028 192.365 13.65 192.365 13.202ZM196.196 7.056L195.146 6.58C195.664 5.068 197.022 4.074 199.052 4.074C200.018 4.074 200.816 4.298 201.432 4.746C202.048 5.194 202.356 5.796 202.356 6.538C202.356 7.672 201.754 8.512 200.634 8.834C201.712 8.904 202.58 9.716 202.58 11.172C202.58 12.096 202.244 12.824 201.572 13.342C200.9 13.86 200.046 14.126 198.996 14.126C196.854 14.126 195.37 13.104 194.88 11.494L196.014 11.004C196.616 12.278 197.638 12.922 199.08 12.922C200.438 12.922 201.292 12.292 201.292 11.186C201.292 10.108 200.452 9.562 198.772 9.562H197.68V8.4H198.548C200.074 8.4 201.068 7.714 201.068 6.776C201.068 5.81 200.27 5.264 198.996 5.264C197.498 5.264 196.588 6.034 196.196 7.056ZM203.619 6.804L203.171 5.754L206.531 4.144H207.329V14H206.125V5.642L203.619 6.804Z" fill="#1A3341"/>
<path d="M185.952 26.62H183.036V25.6H189.972V26.62H187.044V34H185.952V26.62ZM193.85 32.212L194.498 32.812C193.922 33.676 193.094 34.108 192.002 34.108C191.006 34.108 190.202 33.808 189.59 33.22C188.978 32.632 188.678 31.852 188.678 30.868C188.678 29.92 188.954 29.14 189.518 28.528C190.07 27.916 190.85 27.616 191.858 27.616C192.686 27.616 193.382 27.88 193.922 28.396C194.462 28.912 194.738 29.596 194.738 30.448C194.738 30.724 194.714 30.976 194.678 31.204H189.758C189.818 32.44 190.73 33.16 192.038 33.16C192.77 33.16 193.466 32.776 193.85 32.212ZM191.786 28.54C190.646 28.54 189.902 29.236 189.746 30.292H193.67C193.61 29.188 192.902 28.54 191.786 28.54ZM196.746 34H195.738V27.76H196.746V28.576C197.142 27.964 197.958 27.628 198.882 27.628C200.574 27.628 201.414 28.564 201.414 30.448V34H200.406V30.568C200.406 29.188 199.818 28.576 198.582 28.576C197.814 28.576 197.082 29.08 196.746 29.836V34ZM208.36 34H207.352V33.256C207.076 33.688 206.356 34.108 205.408 34.108C204.484 34.108 203.752 33.82 203.188 33.244C202.624 32.668 202.336 31.888 202.336 30.892C202.336 29.932 202.636 29.14 203.248 28.528C203.86 27.916 204.604 27.616 205.492 27.616C206.32 27.616 206.944 27.82 207.352 28.228V25.24H208.36V34ZM205.552 33.148C206.404 33.148 207.064 32.548 207.352 31.96V29.44C206.956 28.852 206.368 28.564 205.612 28.564C205 28.564 204.472 28.78 204.052 29.2C203.62 29.62 203.404 30.184 203.404 30.868C203.404 32.26 204.292 33.148 205.552 33.148ZM214.525 32.212L215.173 32.812C214.597 33.676 213.769 34.108 212.677 34.108C211.681 34.108 210.877 33.808 210.265 33.22C209.653 32.632 209.353 31.852 209.353 30.868C209.353 29.92 209.629 29.14 210.193 28.528C210.745 27.916 211.525 27.616 212.533 27.616C213.361 27.616 214.057 27.88 214.597 28.396C215.137 28.912 215.413 29.596 215.413 30.448C215.413 30.724 215.389 30.976 215.353 31.204H210.433C210.493 32.44 211.405 33.16 212.713 33.16C213.445 33.16 214.141 32.776 214.525 32.212ZM212.461 28.54C211.321 28.54 210.577 29.236 210.421 30.292H214.345C214.285 29.188 213.577 28.54 212.461 28.54ZM217.421 34H216.413V27.76H217.421V28.24C217.625 27.82 218.165 27.628 218.705 27.628C219.257 27.628 219.677 27.82 219.977 28.192L219.341 28.888C219.185 28.684 218.945 28.576 218.597 28.576C218.057 28.576 217.565 29.02 217.421 29.656V34Z" fill="#1A3341" fill-opacity="0.6"/>
<path d="M244.49 90.804L244.042 89.754L247.402 88.144H248.2V98H246.996V89.642L244.49 90.804ZM250.083 97.202C250.083 96.81 250.447 96.418 250.951 96.418C251.413 96.418 251.791 96.81 251.791 97.202C251.791 97.65 251.441 98.028 250.951 98.028C250.447 98.028 250.083 97.65 250.083 97.202ZM261.097 92.918C261.097 94.584 260.705 95.872 259.907 96.768C259.109 97.678 258.045 98.126 256.715 98.126C255.091 98.126 253.817 97.44 253.187 96.39L254.195 95.69C254.755 96.474 255.777 96.922 256.883 96.922C257.793 96.922 258.521 96.558 259.095 95.83C259.669 95.116 259.907 94.22 259.837 93.156C259.375 94.22 258.213 95.004 256.659 95.004C255.567 95.004 254.671 94.696 253.971 94.066C253.257 93.45 252.907 92.638 252.907 91.644C252.907 90.552 253.285 89.684 254.041 89.04C254.797 88.396 255.805 88.074 257.051 88.074C259.571 88.074 261.097 89.838 261.097 92.918ZM259.627 91.602C259.417 90.3 258.521 89.278 256.911 89.278C255.231 89.278 254.195 90.146 254.195 91.602C254.195 92.988 255.245 93.8 256.883 93.8C257.625 93.8 258.255 93.576 258.745 93.128C259.235 92.68 259.529 92.176 259.627 91.602ZM266.011 92.414H266.445C267.075 92.414 267.593 92.26 268.027 91.966C268.447 91.672 268.657 91.28 268.657 90.818C268.657 89.768 267.831 89.236 266.193 89.236C264.625 89.236 263.771 89.81 263.771 90.818C263.771 91.728 264.709 92.414 266.011 92.414ZM266.417 93.52H266.067C265.311 93.52 264.681 93.688 264.191 94.01C263.701 94.332 263.449 94.738 263.449 95.228C263.449 96.292 264.429 96.964 266.207 96.964C268.013 96.964 268.979 96.32 268.979 95.242C268.979 94.164 267.943 93.52 266.417 93.52ZM269.175 97.37C268.461 97.874 267.467 98.126 266.221 98.126C264.975 98.126 263.981 97.874 263.253 97.384C262.525 96.894 262.161 96.222 262.161 95.354C262.161 94.22 262.903 93.324 264.093 92.932C263.015 92.582 262.483 91.728 262.483 90.734C262.483 89.11 263.855 88.074 266.207 88.074C268.573 88.074 269.945 89.11 269.945 90.734C269.945 91.672 269.427 92.386 268.391 92.862C269.637 93.24 270.253 94.052 270.253 95.298C270.253 96.18 269.889 96.88 269.175 97.37Z" fill="#1A3341"/>
<path d="M245.98 110.712V114H244.888V105.6H248.104C250.276 105.6 251.356 106.44 251.356 108.12C251.356 109.308 250.54 110.244 249.304 110.496L251.992 114H250.66L248.164 110.712H245.98ZM248.068 106.62H245.98V109.692H248.14C249.424 109.692 250.24 109.08 250.24 108.12C250.24 107.124 249.52 106.62 248.068 106.62ZM257.041 112.212L257.689 112.812C257.113 113.676 256.285 114.108 255.193 114.108C254.197 114.108 253.393 113.808 252.781 113.22C252.169 112.632 251.869 111.852 251.869 110.868C251.869 109.92 252.145 109.14 252.709 108.528C253.261 107.916 254.041 107.616 255.049 107.616C255.877 107.616 256.573 107.88 257.113 108.396C257.653 108.912 257.929 109.596 257.929 110.448C257.929 110.724 257.905 110.976 257.869 111.204H252.949C253.009 112.44 253.921 113.16 255.229 113.16C255.961 113.16 256.657 112.776 257.041 112.212ZM254.977 108.54C253.837 108.54 253.093 109.236 252.937 110.292H256.861C256.801 109.188 256.093 108.54 254.977 108.54ZM264.476 116.4H263.456V113.412C263.036 113.88 262.4 114.108 261.572 114.108C260.636 114.108 259.88 113.808 259.316 113.22C258.752 112.632 258.464 111.852 258.464 110.868C258.464 109.932 258.788 109.152 259.424 108.54C260.06 107.928 260.828 107.628 261.752 107.628C262.544 107.628 263.108 107.808 263.456 108.168V107.76H264.476V116.4ZM261.692 113.16C262.496 113.16 263.156 112.728 263.456 112.092V109.344C263.108 108.828 262.532 108.576 261.752 108.576C261.14 108.576 260.612 108.792 260.18 109.236C259.748 109.68 259.532 110.232 259.532 110.892C259.532 111.576 259.736 112.128 260.144 112.536C260.54 112.956 261.056 113.16 261.692 113.16ZM270.318 107.724H271.326V114H270.318V113.112C269.838 113.772 269.166 114.108 268.29 114.108C266.562 114.108 265.722 113.244 265.722 111.336V107.724H266.73V111.192C266.73 112.5 267.282 113.16 268.374 113.16C269.238 113.16 269.934 112.668 270.318 111.804V107.724ZM277.482 112.212L278.13 112.812C277.554 113.676 276.726 114.108 275.634 114.108C274.638 114.108 273.834 113.808 273.222 113.22C272.61 112.632 272.31 111.852 272.31 110.868C272.31 109.92 272.586 109.14 273.15 108.528C273.702 107.916 274.482 107.616 275.49 107.616C276.318 107.616 277.014 107.88 277.554 108.396C278.094 108.912 278.37 109.596 278.37 110.448C278.37 110.724 278.346 110.976 278.31 111.204H273.39C273.45 112.44 274.362 113.16 275.67 113.16C276.402 113.16 277.098 112.776 277.482 112.212ZM275.418 108.54C274.278 108.54 273.534 109.236 273.378 110.292H277.302C277.242 109.188 276.534 108.54 275.418 108.54ZM283.198 112.296C283.198 111.456 281.77 111.324 280.63 111C279.85 110.772 279.226 110.256 279.226 109.404C279.226 108.3 280.27 107.616 281.818 107.616C282.862 107.616 283.702 108.06 284.146 108.696L283.438 109.356C283.042 108.828 282.442 108.564 281.638 108.564C280.918 108.564 280.294 108.84 280.294 109.356C280.294 110.088 281.722 110.22 282.862 110.568C283.63 110.808 284.254 111.384 284.254 112.284C284.254 113.496 283.282 114.108 281.758 114.108C280.474 114.108 279.382 113.532 278.938 112.632L279.742 112.068C280.114 112.728 280.966 113.16 281.926 113.16C282.778 113.16 283.198 112.872 283.198 112.296ZM285.851 108.72H284.555V107.76H285.851V106.164H286.859V107.76H289.007V108.72H286.859V111.468C286.859 112.68 287.171 113.124 287.939 113.124C288.311 113.124 288.695 112.98 289.067 112.68L289.523 113.424C289.127 113.868 288.539 114.084 287.759 114.084C286.523 114.084 285.851 113.268 285.851 111.732V108.72ZM294.056 108.72H292.904V107.76H294.056V107.472C294.056 106.668 294.26 106.068 294.668 105.696C295.064 105.324 295.556 105.144 296.144 105.144C296.78 105.144 297.38 105.432 297.68 105.876L297.08 106.5C296.876 106.236 296.576 106.104 296.192 106.104C295.436 106.104 295.064 106.584 295.064 107.556V107.76H296.996V108.72H295.064V114H294.056V108.72ZM297.034 110.868C297.034 109.92 297.346 109.14 297.958 108.528C298.57 107.916 299.362 107.616 300.334 107.616C301.318 107.616 302.122 107.916 302.734 108.528C303.346 109.14 303.658 109.92 303.658 110.868C303.658 111.816 303.346 112.584 302.734 113.196C302.11 113.808 301.306 114.108 300.334 114.108C299.362 114.108 298.57 113.808 297.958 113.196C297.346 112.584 297.034 111.816 297.034 110.868ZM298.102 110.868C298.102 111.528 298.306 112.08 298.726 112.512C299.146 112.944 299.674 113.16 300.334 113.16C300.994 113.16 301.546 112.944 301.966 112.524C302.386 112.104 302.59 111.552 302.59 110.868C302.59 110.184 302.374 109.632 301.954 109.2C301.522 108.78 300.982 108.564 300.334 108.564C299.686 108.564 299.158 108.78 298.738 109.2C298.318 109.62 298.102 110.184 298.102 110.868ZM305.665 114H304.657V107.76H305.665V108.24C305.869 107.82 306.409 107.628 306.949 107.628C307.501 107.628 307.921 107.82 308.221 108.192L307.585 108.888C307.429 108.684 307.189 108.576 306.841 108.576C306.301 108.576 305.809 109.02 305.665 109.656V114ZM245.74 132.4H244.732V123.76H245.74V124.54C246.16 123.928 246.832 123.616 247.756 123.616C248.668 123.616 249.4 123.904 249.94 124.492C250.48 125.08 250.744 125.836 250.744 126.772C250.744 127.732 250.456 128.524 249.88 129.16C249.292 129.796 248.548 130.108 247.636 130.108C246.796 130.108 246.16 129.892 245.74 129.472V132.4ZM247.648 124.564C246.736 124.564 246.028 125.152 245.74 125.86V128.188C246.1 128.836 246.7 129.16 247.552 129.16C248.164 129.16 248.68 128.944 249.076 128.512C249.472 128.08 249.676 127.528 249.676 126.844C249.676 125.452 248.896 124.564 247.648 124.564ZM252.745 130H251.737V123.76H252.745V124.24C252.949 123.82 253.489 123.628 254.029 123.628C254.581 123.628 255.001 123.82 255.301 124.192L254.665 124.888C254.509 124.684 254.269 124.576 253.921 124.576C253.381 124.576 252.889 125.02 252.745 125.656V130ZM256.999 130H255.991V123.76H256.999V130ZM255.859 121.732C255.859 121.396 256.135 121.144 256.507 121.144C256.843 121.144 257.131 121.396 257.131 121.732C257.131 122.08 256.843 122.356 256.507 122.356C256.135 122.356 255.859 122.08 255.859 121.732ZM263.306 128.2L264.026 128.716C263.558 129.592 262.502 130.108 261.458 130.108C260.462 130.108 259.658 129.808 259.046 129.22C258.434 128.632 258.122 127.852 258.122 126.868C258.122 125.932 258.422 125.152 259.034 124.54C259.646 123.928 260.426 123.616 261.398 123.616C262.514 123.616 263.51 124.12 263.93 124.888L263.15 125.416C262.73 124.852 262.154 124.564 261.422 124.564C260.774 124.564 260.246 124.78 259.826 125.212C259.406 125.644 259.19 126.196 259.19 126.868C259.19 127.552 259.406 128.104 259.85 128.524C260.282 128.944 260.846 129.16 261.554 129.16C262.298 129.16 262.886 128.836 263.306 128.2ZM269.502 128.212L270.15 128.812C269.574 129.676 268.746 130.108 267.654 130.108C266.658 130.108 265.854 129.808 265.242 129.22C264.63 128.632 264.33 127.852 264.33 126.868C264.33 125.92 264.606 125.14 265.17 124.528C265.722 123.916 266.502 123.616 267.51 123.616C268.338 123.616 269.034 123.88 269.574 124.396C270.114 124.912 270.39 125.596 270.39 126.448C270.39 126.724 270.366 126.976 270.33 127.204H265.41C265.47 128.44 266.382 129.16 267.69 129.16C268.422 129.16 269.118 128.776 269.502 128.212ZM267.438 124.54C266.298 124.54 265.554 125.236 265.398 126.292H269.322C269.262 125.188 268.554 124.54 267.438 124.54ZM275.218 128.296C275.218 127.456 273.79 127.324 272.65 127C271.87 126.772 271.246 126.256 271.246 125.404C271.246 124.3 272.29 123.616 273.838 123.616C274.882 123.616 275.722 124.06 276.166 124.696L275.458 125.356C275.062 124.828 274.462 124.564 273.658 124.564C272.938 124.564 272.314 124.84 272.314 125.356C272.314 126.088 273.742 126.22 274.882 126.568C275.65 126.808 276.274 127.384 276.274 128.284C276.274 129.496 275.302 130.108 273.778 130.108C272.494 130.108 271.402 129.532 270.958 128.632L271.762 128.068C272.134 128.728 272.986 129.16 273.946 129.16C274.798 129.16 275.218 128.872 275.218 128.296Z" fill="#1A3341" fill-opacity="0.6"/>
<path d="M0.49 254.804L0.042 253.754L3.402 252.144H4.2V262H2.996V253.642L0.49 254.804ZM7.41344 257.492L6.40544 257.226L6.97944 252.2H13.1394V253.39H8.05744L7.69344 256.022C8.18344 255.658 8.92544 255.476 9.91944 255.476C11.0674 255.476 11.9634 255.784 12.6214 256.386C13.2654 257.002 13.5874 257.786 13.5874 258.752C13.5874 259.718 13.2234 260.53 12.5094 261.16C11.7814 261.804 10.8714 262.126 9.79344 262.126C7.95944 262.126 6.43344 261.258 5.80344 259.732L6.92344 259.256C7.32944 260.194 8.37944 260.936 9.79344 260.936C11.4034 260.936 12.2994 260.012 12.2994 258.794C12.2994 257.492 11.2494 256.652 9.58344 256.652C8.68744 256.652 7.95944 256.932 7.41344 257.492ZM14.7481 261.202C14.7481 260.81 15.1121 260.418 15.6161 260.418C16.0781 260.418 16.4561 260.81 16.4561 261.202C16.4561 261.65 16.1061 262.028 15.6161 262.028C15.1121 262.028 14.7481 261.65 14.7481 261.202ZM19.0416 257.492L18.0336 257.226L18.6076 252.2H24.7676V253.39H19.6856L19.3216 256.022C19.8116 255.658 20.5536 255.476 21.5476 255.476C22.6956 255.476 23.5916 255.784 24.2496 256.386C24.8936 257.002 25.2156 257.786 25.2156 258.752C25.2156 259.718 24.8516 260.53 24.1376 261.16C23.4096 261.804 22.4996 262.126 21.4216 262.126C19.5876 262.126 18.0616 261.258 17.4316 259.732L18.5516 259.256C18.9576 260.194 20.0076 260.936 21.4216 260.936C23.0316 260.936 23.9276 260.012 23.9276 258.794C23.9276 257.492 22.8776 256.652 21.2116 256.652C20.3156 256.652 19.5876 256.932 19.0416 257.492ZM33.0403 262H31.8223V259.998H25.8303V259.186L31.9623 252.2H33.0403V258.864H34.8603V259.998H33.0403V262ZM31.8223 254.16L27.5103 258.864H31.8223V254.16Z" fill="#1A3341"/>
<path d="M1.98 278.712V282H0.888V273.6H4.104C6.276 273.6 7.356 274.44 7.356 276.12C7.356 277.308 6.54 278.244 5.304 278.496L7.992 282H6.66L4.164 278.712H1.98ZM4.068 274.62H1.98V277.692H4.14C5.424 277.692 6.24 277.08 6.24 276.12C6.24 275.124 5.52 274.62 4.068 274.62ZM13.0415 280.212L13.6895 280.812C13.1135 281.676 12.2855 282.108 11.1935 282.108C10.1975 282.108 9.39347 281.808 8.78147 281.22C8.16947 280.632 7.86947 279.852 7.86947 278.868C7.86947 277.92 8.14547 277.14 8.70947 276.528C9.26147 275.916 10.0415 275.616 11.0495 275.616C11.8775 275.616 12.5735 275.88 13.1135 276.396C13.6535 276.912 13.9295 277.596 13.9295 278.448C13.9295 278.724 13.9055 278.976 13.8695 279.204H8.94947C9.00947 280.44 9.92147 281.16 11.2295 281.16C11.9615 281.16 12.6575 280.776 13.0415 280.212ZM10.9775 276.54C9.83747 276.54 9.09347 277.236 8.93747 278.292H12.8615C12.8015 277.188 12.0935 276.54 10.9775 276.54ZM20.4763 284.4H19.4563V281.412C19.0363 281.88 18.4003 282.108 17.5723 282.108C16.6363 282.108 15.8803 281.808 15.3163 281.22C14.7523 280.632 14.4643 279.852 14.4643 278.868C14.4643 277.932 14.7883 277.152 15.4243 276.54C16.0603 275.928 16.8283 275.628 17.7523 275.628C18.5443 275.628 19.1083 275.808 19.4563 276.168V275.76H20.4763V284.4ZM17.6923 281.16C18.4963 281.16 19.1563 280.728 19.4563 280.092V277.344C19.1083 276.828 18.5323 276.576 17.7523 276.576C17.1403 276.576 16.6123 276.792 16.1803 277.236C15.7483 277.68 15.5323 278.232 15.5323 278.892C15.5323 279.576 15.7363 280.128 16.1443 280.536C16.5403 280.956 17.0563 281.16 17.6923 281.16ZM26.3176 275.724H27.3256V282H26.3176V281.112C25.8376 281.772 25.1656 282.108 24.2896 282.108C22.5616 282.108 21.7216 281.244 21.7216 279.336V275.724H22.7296V279.192C22.7296 280.5 23.2816 281.16 24.3736 281.16C25.2376 281.16 25.9336 280.668 26.3176 279.804V275.724ZM33.4823 280.212L34.1303 280.812C33.5543 281.676 32.7263 282.108 31.6343 282.108C30.6383 282.108 29.8343 281.808 29.2223 281.22C28.6103 280.632 28.3103 279.852 28.3103 278.868C28.3103 277.92 28.5863 277.14 29.1503 276.528C29.7023 275.916 30.4823 275.616 31.4903 275.616C32.3183 275.616 33.0143 275.88 33.5543 276.396C34.0943 276.912 34.3703 277.596 34.3703 278.448C34.3703 278.724 34.3463 278.976 34.3103 279.204H29.3903C29.4503 280.44 30.3623 281.16 31.6703 281.16C32.4023 281.16 33.0983 280.776 33.4823 280.212ZM31.4183 276.54C30.2783 276.54 29.5343 277.236 29.3783 278.292H33.3023C33.2423 277.188 32.5343 276.54 31.4183 276.54ZM39.1983 280.296C39.1983 279.456 37.7703 279.324 36.6303 279C35.8503 278.772 35.2263 278.256 35.2263 277.404C35.2263 276.3 36.2703 275.616 37.8183 275.616C38.8623 275.616 39.7023 276.06 40.1463 276.696L39.4383 277.356C39.0423 276.828 38.4423 276.564 37.6383 276.564C36.9183 276.564 36.2943 276.84 36.2943 277.356C36.2943 278.088 37.7223 278.22 38.8623 278.568C39.6303 278.808 40.2543 279.384 40.2543 280.284C40.2543 281.496 39.2823 282.108 37.7583 282.108C36.4743 282.108 35.3823 281.532 34.9383 280.632L35.7423 280.068C36.1143 280.728 36.9663 281.16 37.9263 281.16C38.7783 281.16 39.1983 280.872 39.1983 280.296ZM41.8511 276.72H40.5551V275.76H41.8511V274.164H42.8591V275.76H45.0071V276.72H42.8591V279.468C42.8591 280.68 43.1711 281.124 43.9391 281.124C44.3111 281.124 44.6951 280.98 45.0671 280.68L45.5231 281.424C45.1271 281.868 44.5391 282.084 43.7591 282.084C42.5231 282.084 41.8511 281.268 41.8511 279.732V276.72ZM50.0558 276.72H48.9038V275.76H50.0558V275.472C50.0558 274.668 50.2598 274.068 50.6678 273.696C51.0638 273.324 51.5558 273.144 52.1438 273.144C52.7798 273.144 53.3798 273.432 53.6798 273.876L53.0798 274.5C52.8758 274.236 52.5758 274.104 52.1918 274.104C51.4358 274.104 51.0638 274.584 51.0638 275.556V275.76H52.9958V276.72H51.0638V282H50.0558V276.72ZM53.0345 278.868C53.0345 277.92 53.3465 277.14 53.9585 276.528C54.5705 275.916 55.3625 275.616 56.3345 275.616C57.3185 275.616 58.1225 275.916 58.7345 276.528C59.3465 277.14 59.6585 277.92 59.6585 278.868C59.6585 279.816 59.3465 280.584 58.7345 281.196C58.1105 281.808 57.3065 282.108 56.3345 282.108C55.3625 282.108 54.5705 281.808 53.9585 281.196C53.3465 280.584 53.0345 279.816 53.0345 278.868ZM54.1025 278.868C54.1025 279.528 54.3065 280.08 54.7265 280.512C55.1465 280.944 55.6745 281.16 56.3345 281.16C56.9945 281.16 57.5465 280.944 57.9665 280.524C58.3865 280.104 58.5905 279.552 58.5905 278.868C58.5905 278.184 58.3745 277.632 57.9545 277.2C57.5225 276.78 56.9825 276.564 56.3345 276.564C55.6865 276.564 55.1585 276.78 54.7385 277.2C54.3185 277.62 54.1025 278.184 54.1025 278.868ZM61.665 282H60.657V275.76H61.665V276.24C61.869 275.82 62.409 275.628 62.949 275.628C63.501 275.628 63.921 275.82 64.221 276.192L63.585 276.888C63.429 276.684 63.189 276.576 62.841 276.576C62.301 276.576 61.809 277.02 61.665 277.656V282ZM6.396 304.4H5.376V301.412C4.956 301.88 4.32 302.108 3.492 302.108C2.556 302.108 1.8 301.808 1.236 301.22C0.672 300.632 0.384 299.852 0.384 298.868C0.384 297.932 0.708 297.152 1.344 296.54C1.98 295.928 2.748 295.628 3.672 295.628C4.464 295.628 5.028 295.808 5.376 296.168V295.76H6.396V304.4ZM3.612 301.16C4.416 301.16 5.076 300.728 5.376 300.092V297.344C5.028 296.828 4.452 296.576 3.672 296.576C3.06 296.576 2.532 296.792 2.1 297.236C1.668 297.68 1.452 298.232 1.452 298.892C1.452 299.576 1.656 300.128 2.064 300.536C2.46 300.956 2.976 301.16 3.612 301.16ZM12.2373 295.724H13.2453V302H12.2373V301.112C11.7573 301.772 11.0853 302.108 10.2093 302.108C8.48128 302.108 7.64128 301.244 7.64128 299.336V295.724H8.64928V299.192C8.64928 300.5 9.20128 301.16 10.2933 301.16C11.1573 301.16 11.8533 300.668 12.2373 299.804V295.724ZM14.2299 298.868C14.2299 297.92 14.5419 297.14 15.1539 296.528C15.7659 295.916 16.5579 295.616 17.5299 295.616C18.5139 295.616 19.3179 295.916 19.9299 296.528C20.5419 297.14 20.8539 297.92 20.8539 298.868C20.8539 299.816 20.5419 300.584 19.9299 301.196C19.3059 301.808 18.5019 302.108 17.5299 302.108C16.5579 302.108 15.7659 301.808 15.1539 301.196C14.5419 300.584 14.2299 299.816 14.2299 298.868ZM15.2979 298.868C15.2979 299.528 15.5019 300.08 15.9219 300.512C16.3419 300.944 16.8699 301.16 17.5299 301.16C18.1899 301.16 18.7419 300.944 19.1619 300.524C19.5819 300.104 19.7859 299.552 19.7859 298.868C19.7859 298.184 19.5699 297.632 19.1499 297.2C18.7179 296.78 18.1779 296.564 17.5299 296.564C16.8819 296.564 16.3539 296.78 15.9339 297.2C15.5139 297.62 15.2979 298.184 15.2979 298.868ZM22.4885 296.72H21.1925V295.76H22.4885V294.164H23.4965V295.76H25.6445V296.72H23.4965V299.468C23.4965 300.68 23.8085 301.124 24.5765 301.124C24.9485 301.124 25.3325 300.98 25.7045 300.68L26.1605 301.424C25.7645 301.868 25.1765 302.084 24.3965 302.084C23.1605 302.084 22.4885 301.268 22.4885 299.732V296.72ZM27.2515 297.26L26.7355 296.504C27.3115 295.964 28.3075 295.616 29.2315 295.616C30.8995 295.616 31.7875 296.528 31.7875 298.148V302H30.7795V301.076C30.3835 301.652 29.6035 302.084 28.5955 302.084C27.2395 302.084 26.3275 301.328 26.3275 300.176C26.3275 298.868 27.4435 298.244 29.3155 298.244C29.9035 298.244 30.3835 298.304 30.7795 298.424C30.7795 297.212 30.3475 296.564 29.1115 296.564C28.4875 296.564 27.8635 296.792 27.2515 297.26ZM28.8355 301.172C29.3035 301.172 29.7235 301.04 30.0715 300.788C30.4195 300.536 30.6475 300.248 30.7795 299.948V299.312C30.4315 299.192 29.9875 299.132 29.4475 299.132C28.0795 299.132 27.3955 299.468 27.3955 300.14C27.3955 300.776 27.9715 301.172 28.8355 301.172ZM33.6977 296.72H32.4017V295.76H33.6977V294.164H34.7057V295.76H36.8537V296.72H34.7057V299.468C34.7057 300.68 35.0177 301.124 35.7857 301.124C36.1577 301.124 36.5417 300.98 36.9137 300.68L37.3697 301.424C36.9737 301.868 36.3857 302.084 35.6057 302.084C34.3697 302.084 33.6977 301.268 33.6977 299.732V296.72ZM39.1207 302H38.1127V295.76H39.1207V302ZM37.9807 293.732C37.9807 293.396 38.2567 293.144 38.6287 293.144C38.9647 293.144 39.2527 293.396 39.2527 293.732C39.2527 294.08 38.9647 294.356 38.6287 294.356C38.2567 294.356 37.9807 294.08 37.9807 293.732ZM40.2432 298.868C40.2432 297.92 40.5552 297.14 41.1672 296.528C41.7792 295.916 42.5712 295.616 43.5432 295.616C44.5272 295.616 45.3312 295.916 45.9432 296.528C46.5552 297.14 46.8672 297.92 46.8672 298.868C46.8672 299.816 46.5552 300.584 45.9432 301.196C45.3192 301.808 44.5152 302.108 43.5432 302.108C42.5712 302.108 41.7792 301.808 41.1672 301.196C40.5552 300.584 40.2432 299.816 40.2432 298.868ZM41.3112 298.868C41.3112 299.528 41.5152 300.08 41.9352 300.512C42.3552 300.944 42.8832 301.16 43.5432 301.16C44.2032 301.16 44.7552 300.944 45.1752 300.524C45.5952 300.104 45.7992 299.552 45.7992 298.868C45.7992 298.184 45.5832 297.632 45.1632 297.2C44.7312 296.78 44.1912 296.564 43.5432 296.564C42.8952 296.564 42.3672 296.78 41.9472 297.2C41.5272 297.62 41.3112 298.184 41.3112 298.868ZM48.8738 302H47.8658V295.76H48.8738V296.576C49.2698 295.964 50.0858 295.628 51.0098 295.628C52.7018 295.628 53.5418 296.564 53.5418 298.448V302H52.5338V298.568C52.5338 297.188 51.9458 296.576 50.7098 296.576C49.9418 296.576 49.2098 297.08 48.8738 297.836V302ZM58.6402 300.296C58.6402 299.456 57.2122 299.324 56.0722 299C55.2922 298.772 54.6682 298.256 54.6682 297.404C54.6682 296.3 55.7122 295.616 57.2602 295.616C58.3042 295.616 59.1442 296.06 59.5882 296.696L58.8802 297.356C58.4842 296.828 57.8842 296.564 57.0802 296.564C56.3602 296.564 55.7362 296.84 55.7362 297.356C55.7362 298.088 57.1642 298.22 58.3042 298.568C59.0722 298.808 59.6962 299.384 59.6962 300.284C59.6962 301.496 58.7242 302.108 57.2002 302.108C55.9162 302.108 54.8242 301.532 54.3802 300.632L55.1842 300.068C55.5562 300.728 56.4082 301.16 57.3682 301.16C58.2202 301.16 58.6402 300.872 58.6402 300.296Z" fill="#1A3341" fill-opacity="0.6"/>
<path d="M90.1755 136.152V139H70.6875V136.44L79.9355 131.096C81.7488 130.051 83.0928 129.208 83.9675 128.568C84.8422 127.907 85.4288 127.299 85.7275 126.744C86.0475 126.189 86.2075 125.528 86.2075 124.76V124.44C86.2075 123.203 85.6848 122.253 84.6395 121.592C83.6155 120.931 82.1328 120.6 80.1915 120.6C78.1862 120.6 76.6608 120.952 75.6155 121.656C74.5915 122.36 74.0795 123.384 74.0795 124.728V125.368H70.8795V124.696C70.8795 122.413 71.6795 120.664 73.2795 119.448C74.8795 118.232 77.1622 117.624 80.1275 117.624C83.0288 117.624 85.3008 118.221 86.9435 119.416C88.5862 120.611 89.4075 122.253 89.4075 124.344V124.664C89.4075 125.795 89.1835 126.787 88.7355 127.64C88.2875 128.493 87.5088 129.357 86.3995 130.232C85.3115 131.107 83.7115 132.152 81.5995 133.368L76.7355 136.152H90.1755ZM104.444 139.384C102.31 139.384 100.422 139 98.7797 138.232C97.1584 137.464 95.8891 136.387 94.9717 135C94.0757 133.613 93.6277 132.024 93.6277 130.232V126.808C93.6277 124.995 94.0757 123.395 94.9717 122.008C95.8891 120.621 97.1584 119.544 98.7797 118.776C100.422 118.008 102.31 117.624 104.444 117.624C106.556 117.624 108.422 118.008 110.044 118.776C111.665 119.544 112.924 120.621 113.82 122.008C114.716 123.395 115.164 124.995 115.164 126.808V130.232C115.164 132.045 114.716 133.645 113.82 135.032C112.924 136.397 111.665 137.464 110.044 138.232C108.422 139 106.556 139.384 104.444 139.384ZM104.444 136.408C106.79 136.408 108.636 135.864 109.98 134.776C111.324 133.688 111.996 132.184 111.996 130.264V126.776C111.996 124.877 111.313 123.373 109.948 122.264C108.604 121.155 106.758 120.6 104.412 120.6C102.044 120.6 100.177 121.155 98.8117 122.264C97.4677 123.352 96.7957 124.856 96.7957 126.776V130.264C96.7957 132.184 97.4677 133.688 98.8117 134.776C100.177 135.864 102.054 136.408 104.444 136.408ZM138.568 136.152V139H119.08V136.44L128.328 131.096C130.141 130.051 131.485 129.208 132.36 128.568C133.235 127.907 133.821 127.299 134.12 126.744C134.44 126.189 134.6 125.528 134.6 124.76V124.44C134.6 123.203 134.077 122.253 133.032 121.592C132.008 120.931 130.525 120.6 128.584 120.6C126.579 120.6 125.053 120.952 124.008 121.656C122.984 122.36 122.472 123.384 122.472 124.728V125.368H119.272V124.696C119.272 122.413 120.072 120.664 121.672 119.448C123.272 118.232 125.555 117.624 128.52 117.624C131.421 117.624 133.693 118.221 135.336 119.416C136.979 120.611 137.8 122.253 137.8 124.344V124.664C137.8 125.795 137.576 126.787 137.128 127.64C136.68 128.493 135.901 129.357 134.792 130.232C133.704 131.107 132.104 132.152 129.992 133.368L125.128 136.152H138.568ZM161.764 136.152V139H142.276V136.44L151.524 131.096C153.338 130.051 154.682 129.208 155.556 128.568C156.431 127.907 157.018 127.299 157.316 126.744C157.636 126.189 157.796 125.528 157.796 124.76V124.44C157.796 123.203 157.274 122.253 156.228 121.592C155.204 120.931 153.722 120.6 151.78 120.6C149.775 120.6 148.25 120.952 147.204 121.656C146.18 122.36 145.668 123.384 145.668 124.728V125.368H142.468V124.696C142.468 122.413 143.268 120.664 144.868 119.448C146.468 118.232 148.751 117.624 151.716 117.624C154.618 117.624 156.89 118.221 158.532 119.416C160.175 120.611 160.996 122.253 160.996 124.344V124.664C160.996 125.795 160.772 126.787 160.324 127.64C159.876 128.493 159.098 129.357 157.988 130.232C156.9 131.107 155.3 132.152 153.188 133.368L148.324 136.152H161.764Z" fill="#1A3341" fill-opacity="0.6"/>
<path d="M97.5955 162.012C97.5955 161.032 95.9295 160.878 94.5995 160.5C93.6895 160.234 92.9615 159.632 92.9615 158.638C92.9615 157.35 94.1795 156.552 95.9855 156.552C97.2035 156.552 98.1835 157.07 98.7015 157.812L97.8755 158.582C97.4135 157.966 96.7135 157.658 95.7755 157.658C94.9355 157.658 94.2075 157.98 94.2075 158.582C94.2075 159.436 95.8735 159.59 97.2035 159.996C98.0995 160.276 98.8275 160.948 98.8275 161.998C98.8275 163.412 97.6935 164.126 95.9155 164.126C94.4175 164.126 93.1435 163.454 92.6255 162.404L93.5635 161.746C93.9975 162.516 94.9915 163.02 96.1115 163.02C97.1055 163.02 97.5955 162.684 97.5955 162.012ZM100.508 158.47L99.9065 157.588C100.578 156.958 101.74 156.552 102.818 156.552C104.764 156.552 105.8 157.616 105.8 159.506V164H104.624V162.922C104.162 163.594 103.252 164.098 102.076 164.098C100.494 164.098 99.4305 163.216 99.4305 161.872C99.4305 160.346 100.732 159.618 102.916 159.618C103.602 159.618 104.162 159.688 104.624 159.828C104.624 158.414 104.12 157.658 102.678 157.658C101.95 157.658 101.222 157.924 100.508 158.47ZM102.356 163.034C102.902 163.034 103.392 162.88 103.798 162.586C104.204 162.292 104.47 161.956 104.624 161.606V160.864C104.218 160.724 103.7 160.654 103.07 160.654C101.474 160.654 100.676 161.046 100.676 161.83C100.676 162.572 101.348 163.034 102.356 163.034ZM112.523 156.72H113.783L110.521 164H109.653L106.251 156.72H107.609L110.115 162.166L112.523 156.72ZM115.641 164H114.465V156.72H115.641V164ZM114.311 154.354C114.311 153.962 114.633 153.668 115.067 153.668C115.459 153.668 115.795 153.962 115.795 154.354C115.795 154.76 115.459 155.082 115.067 155.082C114.633 155.082 114.311 154.76 114.311 154.354ZM118.533 164H117.357V156.72H118.533V157.672C118.995 156.958 119.947 156.566 121.025 156.566C122.999 156.566 123.979 157.658 123.979 159.856V164H122.803V159.996C122.803 158.386 122.117 157.672 120.675 157.672C119.779 157.672 118.925 158.26 118.533 159.142V164ZM130.879 156.72H132.069V163.44C132.069 165.792 130.781 166.926 128.807 166.926C127.225 166.926 125.965 166.24 125.559 165.162L126.609 164.7C126.931 165.33 127.659 165.806 128.737 165.806C130.137 165.806 130.879 165.008 130.879 163.65V163.216C130.333 163.846 129.815 164.126 128.681 164.126C127.575 164.126 126.707 163.79 126.049 163.104C125.391 162.432 125.055 161.508 125.055 160.346C125.055 159.198 125.405 158.274 126.105 157.588C126.791 156.902 127.659 156.566 128.695 156.566C129.717 156.566 130.501 156.916 130.879 157.364V156.72ZM128.877 163.02C129.871 163.02 130.613 162.404 130.879 161.634V158.708C130.529 158.092 129.801 157.672 128.863 157.672C128.135 157.672 127.533 157.91 127.043 158.386C126.553 158.862 126.301 159.52 126.301 160.374C126.301 162.012 127.295 163.02 128.877 163.02ZM138.086 162.012C138.086 161.032 136.42 160.878 135.09 160.5C134.18 160.234 133.452 159.632 133.452 158.638C133.452 157.35 134.67 156.552 136.476 156.552C137.694 156.552 138.674 157.07 139.192 157.812L138.366 158.582C137.904 157.966 137.204 157.658 136.266 157.658C135.426 157.658 134.698 157.98 134.698 158.582C134.698 159.436 136.364 159.59 137.694 159.996C138.59 160.276 139.318 160.948 139.318 161.998C139.318 163.412 138.184 164.126 136.406 164.126C134.908 164.126 133.634 163.454 133.116 162.404L134.054 161.746C134.488 162.516 135.482 163.02 136.602 163.02C137.596 163.02 138.086 162.684 138.086 162.012Z" fill="#318F73"/>
<path d="M101.688 189.864V192H87.0722V190.08L94.0082 186.072C95.3682 185.288 96.3762 184.656 97.0322 184.176C97.6882 183.68 98.1282 183.224 98.3522 182.808C98.5922 182.392 98.7122 181.896 98.7122 181.32V181.08C98.7122 180.152 98.3202 179.44 97.5362 178.944C96.7682 178.448 95.6562 178.2 94.2002 178.2C92.6962 178.2 91.5522 178.464 90.7682 178.992C90.0002 179.52 89.6162 180.288 89.6162 181.296V181.776H87.2162V181.272C87.2162 179.56 87.8162 178.248 89.0162 177.336C90.2162 176.424 91.9282 175.968 94.1522 175.968C96.3282 175.968 98.0322 176.416 99.2642 177.312C100.496 178.208 101.112 179.44 101.112 181.008V181.248C101.112 182.096 100.944 182.84 100.608 183.48C100.272 184.12 99.6882 184.768 98.8562 185.424C98.0402 186.08 96.8402 186.864 95.2562 187.776L91.6082 189.864H101.688ZM119.085 189.864V192H104.469V190.08L111.405 186.072C112.765 185.288 113.773 184.656 114.429 184.176C115.085 183.68 115.525 183.224 115.749 182.808C115.989 182.392 116.109 181.896 116.109 181.32V181.08C116.109 180.152 115.717 179.44 114.933 178.944C114.165 178.448 113.053 178.2 111.597 178.2C110.093 178.2 108.949 178.464 108.165 178.992C107.397 179.52 107.013 180.288 107.013 181.296V181.776H104.613V181.272C104.613 179.56 105.213 178.248 106.413 177.336C107.613 176.424 109.325 175.968 111.549 175.968C113.725 175.968 115.429 176.416 116.661 177.312C117.893 178.208 118.509 179.44 118.509 181.008V181.248C118.509 182.096 118.341 182.84 118.005 183.48C117.669 184.12 117.085 184.768 116.253 185.424C115.437 186.08 114.237 186.864 112.653 187.776L109.005 189.864H119.085ZM123.955 192.288C123.523 192.288 123.171 192.152 122.899 191.88C122.627 191.608 122.491 191.264 122.491 190.848C122.491 190.432 122.627 190.088 122.899 189.816C123.171 189.544 123.523 189.408 123.955 189.408C124.387 189.408 124.739 189.544 125.011 189.816C125.283 190.088 125.419 190.432 125.419 190.848C125.419 191.264 125.283 191.608 125.011 191.88C124.739 192.152 124.387 192.288 123.955 192.288ZM142.043 183.888C143.035 184.224 143.779 184.688 144.275 185.28C144.787 185.872 145.043 186.584 145.043 187.416V187.68C145.043 190.752 142.291 192.288 136.787 192.288C131.283 192.288 128.531 190.752 128.531 187.68V187.416C128.531 186.584 128.779 185.872 129.275 185.28C129.787 184.688 130.539 184.224 131.531 183.888C130.779 183.552 130.211 183.12 129.827 182.592C129.443 182.048 129.251 181.432 129.251 180.744V180.48C129.251 179.584 129.563 178.792 130.187 178.104C130.811 177.416 131.691 176.888 132.827 176.52C133.963 176.152 135.283 175.968 136.787 175.968C138.291 175.968 139.611 176.152 140.747 176.52C141.883 176.888 142.763 177.416 143.387 178.104C144.011 178.792 144.323 179.584 144.323 180.48V180.744C144.323 181.432 144.131 182.048 143.747 182.592C143.363 183.12 142.795 183.552 142.043 183.888ZM131.603 180.672C131.603 181.488 132.019 182.088 132.851 182.472C133.699 182.856 135.011 183.048 136.787 183.048C138.547 183.048 139.843 182.856 140.675 182.472C141.523 182.088 141.947 181.488 141.947 180.672V180.48C141.947 178.912 140.227 178.128 136.787 178.128C133.331 178.128 131.603 178.912 131.603 180.48V180.672ZM142.667 187.584C142.667 186.736 142.203 186.128 141.275 185.76C140.363 185.376 138.867 185.184 136.787 185.184C134.707 185.184 133.203 185.376 132.275 185.76C131.363 186.128 130.907 186.736 130.907 187.584V187.776C130.907 188.592 131.379 189.192 132.323 189.576C133.267 189.944 134.755 190.128 136.787 190.128C138.819 190.128 140.307 189.944 141.251 189.576C142.195 189.192 142.667 188.592 142.667 187.776V187.584Z" fill="#318F73"/>
<path d="M113.828 360.006C136.264 359.777 158.277 366.117 177.155 378.244L169.696 389.854C153.084 379.183 133.713 373.604 113.969 373.805L113.828 360.006Z" fill="url(#paint3_linear_6006_29664)"/>
<path d="M177.076 378.193C189.789 386.345 200.772 396.921 209.397 409.318C218.023 421.714 224.122 435.688 227.347 450.442L213.866 453.389C211.027 440.406 205.66 428.108 198.07 417.2C190.479 406.291 180.814 396.984 169.627 389.81L177.076 378.193Z" fill="url(#paint4_linear_6006_29664)"/>
<path d="M226.895 448.457C232.399 471.66 230.554 496.001 221.614 518.11C212.675 540.218 197.083 559 176.998 571.857C156.913 584.713 133.328 591.008 109.508 589.869C85.6874 588.73 62.8105 580.214 44.0437 565.5C25.2769 550.786 11.5486 530.601 4.75916 507.741C-2.03025 484.88 -1.54488 460.475 6.14804 437.902C13.841 415.33 28.3609 395.707 47.6979 381.751C67.0349 367.794 90.2323 360.195 114.079 360.004L114.189 373.803C93.2044 373.971 72.7907 380.659 55.7742 392.941C38.7576 405.222 25.9801 422.49 19.2103 442.354C12.4405 462.218 12.0134 483.695 17.9881 503.812C23.9627 523.929 36.0437 541.691 52.5585 554.64C69.0732 567.588 89.205 575.082 110.167 576.085C131.128 577.087 151.883 571.548 169.558 560.234C187.233 548.92 200.954 532.392 208.82 512.936C216.687 493.481 218.311 472.061 213.468 451.642L226.895 448.457Z" fill="url(#paint5_linear_6006_29664)"/>
<path d="M154.722 320.434L153.7 320.07C154.05 318.334 155.366 317.088 157.452 317.088C159.468 317.088 160.7 318.25 160.7 320.028C160.7 320.966 160.294 321.904 159.79 322.576C159.538 322.926 159.216 323.262 158.838 323.612C158.068 324.298 157.522 324.662 156.724 325.166L155.646 325.838H161.064V327H153.434V326.048L155.562 324.634C155.94 324.396 156.206 324.214 156.36 324.102C156.514 324.004 156.766 323.822 157.102 323.584C157.438 323.346 157.69 323.136 157.858 322.982C158.012 322.828 158.222 322.632 158.46 322.38C159.104 321.68 159.342 321.036 159.412 320.154C159.412 318.88 158.586 318.306 157.368 318.306C156.612 318.306 156.01 318.516 155.576 318.936C155.142 319.356 154.848 319.86 154.722 320.434ZM162.132 326.202C162.132 325.81 162.496 325.418 163 325.418C163.462 325.418 163.84 325.81 163.84 326.202C163.84 326.65 163.49 327.028 163 327.028C162.496 327.028 162.132 326.65 162.132 326.202ZM166.118 320.434L165.096 320.07C165.446 318.334 166.762 317.088 168.848 317.088C170.864 317.088 172.096 318.25 172.096 320.028C172.096 320.966 171.69 321.904 171.186 322.576C170.934 322.926 170.612 323.262 170.234 323.612C169.464 324.298 168.918 324.662 168.12 325.166L167.042 325.838H172.46V327H164.83V326.048L166.958 324.634C167.336 324.396 167.602 324.214 167.756 324.102C167.91 324.004 168.162 323.822 168.498 323.584C168.834 323.346 169.086 323.136 169.254 322.982C169.408 322.828 169.618 322.632 169.856 322.38C170.5 321.68 170.738 321.036 170.808 320.154C170.808 318.88 169.982 318.306 168.764 318.306C168.008 318.306 167.406 318.516 166.972 318.936C166.538 319.356 166.244 319.86 166.118 320.434ZM173.318 319.804L172.87 318.754L176.23 317.144H177.028V327H175.824V318.642L173.318 319.804Z" fill="#1A3341"/>
<path d="M155.952 339.62H153.036V338.6H159.972V339.62H157.044V347H155.952V339.62ZM163.85 345.212L164.498 345.812C163.922 346.676 163.094 347.108 162.002 347.108C161.006 347.108 160.202 346.808 159.59 346.22C158.978 345.632 158.678 344.852 158.678 343.868C158.678 342.92 158.954 342.14 159.518 341.528C160.07 340.916 160.85 340.616 161.858 340.616C162.686 340.616 163.382 340.88 163.922 341.396C164.462 341.912 164.738 342.596 164.738 343.448C164.738 343.724 164.714 343.976 164.678 344.204H159.758C159.818 345.44 160.73 346.16 162.038 346.16C162.77 346.16 163.466 345.776 163.85 345.212ZM161.786 341.54C160.646 341.54 159.902 342.236 159.746 343.292H163.67C163.61 342.188 162.902 341.54 161.786 341.54ZM166.746 347H165.738V340.76H166.746V341.576C167.142 340.964 167.958 340.628 168.882 340.628C170.574 340.628 171.414 341.564 171.414 343.448V347H170.406V343.568C170.406 342.188 169.818 341.576 168.582 341.576C167.814 341.576 167.082 342.08 166.746 342.836V347ZM178.36 347H177.352V346.256C177.076 346.688 176.356 347.108 175.408 347.108C174.484 347.108 173.752 346.82 173.188 346.244C172.624 345.668 172.336 344.888 172.336 343.892C172.336 342.932 172.636 342.14 173.248 341.528C173.86 340.916 174.604 340.616 175.492 340.616C176.32 340.616 176.944 340.82 177.352 341.228V338.24H178.36V347ZM175.552 346.148C176.404 346.148 177.064 345.548 177.352 344.96V342.44C176.956 341.852 176.368 341.564 175.612 341.564C175 341.564 174.472 341.78 174.052 342.2C173.62 342.62 173.404 343.184 173.404 343.868C173.404 345.26 174.292 346.148 175.552 346.148ZM184.525 345.212L185.173 345.812C184.597 346.676 183.769 347.108 182.677 347.108C181.681 347.108 180.877 346.808 180.265 346.22C179.653 345.632 179.353 344.852 179.353 343.868C179.353 342.92 179.629 342.14 180.193 341.528C180.745 340.916 181.525 340.616 182.533 340.616C183.361 340.616 184.057 340.88 184.597 341.396C185.137 341.912 185.413 342.596 185.413 343.448C185.413 343.724 185.389 343.976 185.353 344.204H180.433C180.493 345.44 181.405 346.16 182.713 346.16C183.445 346.16 184.141 345.776 184.525 345.212ZM182.461 341.54C181.321 341.54 180.577 342.236 180.421 343.292H184.345C184.285 342.188 183.577 341.54 182.461 341.54ZM187.421 347H186.413V340.76H187.421V341.24C187.625 340.82 188.165 340.628 188.705 340.628C189.257 340.628 189.677 340.82 189.977 341.192L189.341 341.888C189.185 341.684 188.945 341.576 188.597 341.576C188.057 341.576 187.565 342.02 187.421 342.656V347Z" fill="#1A3341" fill-opacity="0.6"/>
<path d="M231.568 380.056L230.518 379.58C231.036 378.068 232.394 377.074 234.424 377.074C235.39 377.074 236.188 377.298 236.804 377.746C237.42 378.194 237.728 378.796 237.728 379.538C237.728 380.672 237.126 381.512 236.006 381.834C237.084 381.904 237.952 382.716 237.952 384.172C237.952 385.096 237.616 385.824 236.944 386.342C236.272 386.86 235.418 387.126 234.368 387.126C232.226 387.126 230.742 386.104 230.252 384.494L231.386 384.004C231.988 385.278 233.01 385.922 234.452 385.922C235.81 385.922 236.664 385.292 236.664 384.186C236.664 383.108 235.824 382.562 234.144 382.562H233.052V381.4H233.92C235.446 381.4 236.44 380.714 236.44 379.776C236.44 378.81 235.642 378.264 234.368 378.264C232.87 378.264 231.96 379.034 231.568 380.056ZM239.201 386.202C239.201 385.81 239.565 385.418 240.069 385.418C240.531 385.418 240.909 385.81 240.909 386.202C240.909 386.65 240.559 387.028 240.069 387.028C239.565 387.028 239.201 386.65 239.201 386.202ZM242.066 382.1C242.066 380.588 242.416 379.37 243.13 378.46C243.83 377.55 244.866 377.088 246.224 377.088C249.01 377.088 250.396 378.922 250.396 382.1C250.396 383.626 250.046 384.83 249.36 385.74C248.66 386.65 247.624 387.112 246.252 387.112C244.936 387.112 243.914 386.65 243.172 385.726C242.43 384.802 242.066 383.598 242.066 382.1ZM243.354 382.1C243.354 384.494 244.446 385.922 246.252 385.922C248.156 385.922 249.108 384.648 249.108 382.1C249.108 379.552 248.142 378.278 246.224 378.278C244.278 378.278 243.354 379.678 243.354 382.1ZM251.442 382.1C251.442 380.588 251.792 379.37 252.506 378.46C253.206 377.55 254.242 377.088 255.6 377.088C258.386 377.088 259.772 378.922 259.772 382.1C259.772 383.626 259.422 384.83 258.736 385.74C258.036 386.65 257 387.112 255.628 387.112C254.312 387.112 253.29 386.65 252.548 385.726C251.806 384.802 251.442 383.598 251.442 382.1ZM252.73 382.1C252.73 384.494 253.822 385.922 255.628 385.922C257.532 385.922 258.484 384.648 258.484 382.1C258.484 379.552 257.518 378.278 255.6 378.278C253.654 378.278 252.73 379.678 252.73 382.1Z" fill="#1A3341"/>
<path d="M231.98 403.712V407H230.888V398.6H234.104C236.276 398.6 237.356 399.44 237.356 401.12C237.356 402.308 236.54 403.244 235.304 403.496L237.992 407H236.66L234.164 403.712H231.98ZM234.068 399.62H231.98V402.692H234.14C235.424 402.692 236.24 402.08 236.24 401.12C236.24 400.124 235.52 399.62 234.068 399.62ZM243.041 405.212L243.689 405.812C243.113 406.676 242.285 407.108 241.193 407.108C240.197 407.108 239.393 406.808 238.781 406.22C238.169 405.632 237.869 404.852 237.869 403.868C237.869 402.92 238.145 402.14 238.709 401.528C239.261 400.916 240.041 400.616 241.049 400.616C241.877 400.616 242.573 400.88 243.113 401.396C243.653 401.912 243.929 402.596 243.929 403.448C243.929 403.724 243.905 403.976 243.869 404.204H238.949C239.009 405.44 239.921 406.16 241.229 406.16C241.961 406.16 242.657 405.776 243.041 405.212ZM240.977 401.54C239.837 401.54 239.093 402.236 238.937 403.292H242.861C242.801 402.188 242.093 401.54 240.977 401.54ZM250.476 409.4H249.456V406.412C249.036 406.88 248.4 407.108 247.572 407.108C246.636 407.108 245.88 406.808 245.316 406.22C244.752 405.632 244.464 404.852 244.464 403.868C244.464 402.932 244.788 402.152 245.424 401.54C246.06 400.928 246.828 400.628 247.752 400.628C248.544 400.628 249.108 400.808 249.456 401.168V400.76H250.476V409.4ZM247.692 406.16C248.496 406.16 249.156 405.728 249.456 405.092V402.344C249.108 401.828 248.532 401.576 247.752 401.576C247.14 401.576 246.612 401.792 246.18 402.236C245.748 402.68 245.532 403.232 245.532 403.892C245.532 404.576 245.736 405.128 246.144 405.536C246.54 405.956 247.056 406.16 247.692 406.16ZM256.318 400.724H257.326V407H256.318V406.112C255.838 406.772 255.166 407.108 254.29 407.108C252.562 407.108 251.722 406.244 251.722 404.336V400.724H252.73V404.192C252.73 405.5 253.282 406.16 254.374 406.16C255.238 406.16 255.934 405.668 256.318 404.804V400.724ZM263.482 405.212L264.13 405.812C263.554 406.676 262.726 407.108 261.634 407.108C260.638 407.108 259.834 406.808 259.222 406.22C258.61 405.632 258.31 404.852 258.31 403.868C258.31 402.92 258.586 402.14 259.15 401.528C259.702 400.916 260.482 400.616 261.49 400.616C262.318 400.616 263.014 400.88 263.554 401.396C264.094 401.912 264.37 402.596 264.37 403.448C264.37 403.724 264.346 403.976 264.31 404.204H259.39C259.45 405.44 260.362 406.16 261.67 406.16C262.402 406.16 263.098 405.776 263.482 405.212ZM261.418 401.54C260.278 401.54 259.534 402.236 259.378 403.292H263.302C263.242 402.188 262.534 401.54 261.418 401.54ZM269.198 405.296C269.198 404.456 267.77 404.324 266.63 404C265.85 403.772 265.226 403.256 265.226 402.404C265.226 401.3 266.27 400.616 267.818 400.616C268.862 400.616 269.702 401.06 270.146 401.696L269.438 402.356C269.042 401.828 268.442 401.564 267.638 401.564C266.918 401.564 266.294 401.84 266.294 402.356C266.294 403.088 267.722 403.22 268.862 403.568C269.63 403.808 270.254 404.384 270.254 405.284C270.254 406.496 269.282 407.108 267.758 407.108C266.474 407.108 265.382 406.532 264.938 405.632L265.742 405.068C266.114 405.728 266.966 406.16 267.926 406.16C268.778 406.16 269.198 405.872 269.198 405.296ZM271.851 401.72H270.555V400.76H271.851V399.164H272.859V400.76H275.007V401.72H272.859V404.468C272.859 405.68 273.171 406.124 273.939 406.124C274.311 406.124 274.695 405.98 275.067 405.68L275.523 406.424C275.127 406.868 274.539 407.084 273.759 407.084C272.523 407.084 271.851 406.268 271.851 404.732V401.72ZM280.056 401.72H278.904V400.76H280.056V400.472C280.056 399.668 280.26 399.068 280.668 398.696C281.064 398.324 281.556 398.144 282.144 398.144C282.78 398.144 283.38 398.432 283.68 398.876L283.08 399.5C282.876 399.236 282.576 399.104 282.192 399.104C281.436 399.104 281.064 399.584 281.064 400.556V400.76H282.996V401.72H281.064V407H280.056V401.72ZM283.034 403.868C283.034 402.92 283.346 402.14 283.958 401.528C284.57 400.916 285.362 400.616 286.334 400.616C287.318 400.616 288.122 400.916 288.734 401.528C289.346 402.14 289.658 402.92 289.658 403.868C289.658 404.816 289.346 405.584 288.734 406.196C288.11 406.808 287.306 407.108 286.334 407.108C285.362 407.108 284.57 406.808 283.958 406.196C283.346 405.584 283.034 404.816 283.034 403.868ZM284.102 403.868C284.102 404.528 284.306 405.08 284.726 405.512C285.146 405.944 285.674 406.16 286.334 406.16C286.994 406.16 287.546 405.944 287.966 405.524C288.386 405.104 288.59 404.552 288.59 403.868C288.59 403.184 288.374 402.632 287.954 402.2C287.522 401.78 286.982 401.564 286.334 401.564C285.686 401.564 285.158 401.78 284.738 402.2C284.318 402.62 284.102 403.184 284.102 403.868ZM291.665 407H290.657V400.76H291.665V401.24C291.869 400.82 292.409 400.628 292.949 400.628C293.501 400.628 293.921 400.82 294.221 401.192L293.585 401.888C293.429 401.684 293.189 401.576 292.841 401.576C292.301 401.576 291.809 402.02 291.665 402.656V407ZM231.74 429.4H230.732V420.76H231.74V421.54C232.16 420.928 232.832 420.616 233.756 420.616C234.668 420.616 235.4 420.904 235.94 421.492C236.48 422.08 236.744 422.836 236.744 423.772C236.744 424.732 236.456 425.524 235.88 426.16C235.292 426.796 234.548 427.108 233.636 427.108C232.796 427.108 232.16 426.892 231.74 426.472V429.4ZM233.648 421.564C232.736 421.564 232.028 422.152 231.74 422.86V425.188C232.1 425.836 232.7 426.16 233.552 426.16C234.164 426.16 234.68 425.944 235.076 425.512C235.472 425.08 235.676 424.528 235.676 423.844C235.676 422.452 234.896 421.564 233.648 421.564ZM238.745 427H237.737V420.76H238.745V421.24C238.949 420.82 239.489 420.628 240.029 420.628C240.581 420.628 241.001 420.82 241.301 421.192L240.665 421.888C240.509 421.684 240.269 421.576 239.921 421.576C239.381 421.576 238.889 422.02 238.745 422.656V427ZM242.999 427H241.991V420.76H242.999V427ZM241.859 418.732C241.859 418.396 242.135 418.144 242.507 418.144C242.843 418.144 243.131 418.396 243.131 418.732C243.131 419.08 242.843 419.356 242.507 419.356C242.135 419.356 241.859 419.08 241.859 418.732ZM249.306 425.2L250.026 425.716C249.558 426.592 248.502 427.108 247.458 427.108C246.462 427.108 245.658 426.808 245.046 426.22C244.434 425.632 244.122 424.852 244.122 423.868C244.122 422.932 244.422 422.152 245.034 421.54C245.646 420.928 246.426 420.616 247.398 420.616C248.514 420.616 249.51 421.12 249.93 421.888L249.15 422.416C248.73 421.852 248.154 421.564 247.422 421.564C246.774 421.564 246.246 421.78 245.826 422.212C245.406 422.644 245.19 423.196 245.19 423.868C245.19 424.552 245.406 425.104 245.85 425.524C246.282 425.944 246.846 426.16 247.554 426.16C248.298 426.16 248.886 425.836 249.306 425.2ZM255.502 425.212L256.15 425.812C255.574 426.676 254.746 427.108 253.654 427.108C252.658 427.108 251.854 426.808 251.242 426.22C250.63 425.632 250.33 424.852 250.33 423.868C250.33 422.92 250.606 422.14 251.17 421.528C251.722 420.916 252.502 420.616 253.51 420.616C254.338 420.616 255.034 420.88 255.574 421.396C256.114 421.912 256.39 422.596 256.39 423.448C256.39 423.724 256.366 423.976 256.33 424.204H251.41C251.47 425.44 252.382 426.16 253.69 426.16C254.422 426.16 255.118 425.776 255.502 425.212ZM253.438 421.54C252.298 421.54 251.554 422.236 251.398 423.292H255.322C255.262 422.188 254.554 421.54 253.438 421.54ZM261.218 425.296C261.218 424.456 259.79 424.324 258.65 424C257.87 423.772 257.246 423.256 257.246 422.404C257.246 421.3 258.29 420.616 259.838 420.616C260.882 420.616 261.722 421.06 262.166 421.696L261.458 422.356C261.062 421.828 260.462 421.564 259.658 421.564C258.938 421.564 258.314 421.84 258.314 422.356C258.314 423.088 259.742 423.22 260.882 423.568C261.65 423.808 262.274 424.384 262.274 425.284C262.274 426.496 261.302 427.108 259.778 427.108C258.494 427.108 257.402 426.532 256.958 425.632L257.762 425.068C258.134 425.728 258.986 426.16 259.946 426.16C260.798 426.16 261.218 425.872 261.218 425.296Z" fill="#1A3341" fill-opacity="0.6"/>
<path d="M1.722 596.434L0.7 596.07C1.05 594.334 2.366 593.088 4.452 593.088C6.468 593.088 7.7 594.25 7.7 596.028C7.7 596.966 7.294 597.904 6.79 598.576C6.538 598.926 6.216 599.262 5.838 599.612C5.068 600.298 4.522 600.662 3.724 601.166L2.646 601.838H8.064V603H0.434V602.048L2.562 600.634C2.94 600.396 3.206 600.214 3.36 600.102C3.514 600.004 3.766 599.822 4.102 599.584C4.438 599.346 4.69 599.136 4.858 598.982C5.012 598.828 5.222 598.632 5.46 598.38C6.104 597.68 6.342 597.036 6.412 596.154C6.412 594.88 5.586 594.306 4.368 594.306C3.612 594.306 3.01 594.516 2.576 594.936C2.142 595.356 1.848 595.86 1.722 596.434ZM9.03427 598.1C9.03427 596.588 9.38427 595.37 10.0983 594.46C10.7983 593.55 11.8343 593.088 13.1923 593.088C15.9783 593.088 17.3643 594.922 17.3643 598.1C17.3643 599.626 17.0143 600.83 16.3283 601.74C15.6283 602.65 14.5923 603.112 13.2203 603.112C11.9043 603.112 10.8823 602.65 10.1403 601.726C9.39827 600.802 9.03427 599.598 9.03427 598.1ZM10.3223 598.1C10.3223 600.494 11.4143 601.922 13.2203 601.922C15.1243 601.922 16.0763 600.648 16.0763 598.1C16.0763 595.552 15.1103 594.278 13.1923 594.278C11.2463 594.278 10.3223 595.678 10.3223 598.1ZM18.5079 602.202C18.5079 601.81 18.8719 601.418 19.3759 601.418C19.8379 601.418 20.2159 601.81 20.2159 602.202C20.2159 602.65 19.8659 603.028 19.3759 603.028C18.8719 603.028 18.5079 602.65 18.5079 602.202ZM26.9874 594.39H21.0514V593.2H28.4854V593.998L23.6134 603H22.2834L26.9874 594.39ZM34.8455 594.39H28.9095V593.2H36.3435V593.998L31.4715 603H30.1415L34.8455 594.39Z" fill="#1A3341"/>
<path d="M1.98 619.712V623H0.888V614.6H4.104C6.276 614.6 7.356 615.44 7.356 617.12C7.356 618.308 6.54 619.244 5.304 619.496L7.992 623H6.66L4.164 619.712H1.98ZM4.068 615.62H1.98V618.692H4.14C5.424 618.692 6.24 618.08 6.24 617.12C6.24 616.124 5.52 615.62 4.068 615.62ZM13.0415 621.212L13.6895 621.812C13.1135 622.676 12.2855 623.108 11.1935 623.108C10.1975 623.108 9.39347 622.808 8.78147 622.22C8.16947 621.632 7.86947 620.852 7.86947 619.868C7.86947 618.92 8.14547 618.14 8.70947 617.528C9.26147 616.916 10.0415 616.616 11.0495 616.616C11.8775 616.616 12.5735 616.88 13.1135 617.396C13.6535 617.912 13.9295 618.596 13.9295 619.448C13.9295 619.724 13.9055 619.976 13.8695 620.204H8.94947C9.00947 621.44 9.92147 622.16 11.2295 622.16C11.9615 622.16 12.6575 621.776 13.0415 621.212ZM10.9775 617.54C9.83747 617.54 9.09347 618.236 8.93747 619.292H12.8615C12.8015 618.188 12.0935 617.54 10.9775 617.54ZM20.4763 625.4H19.4563V622.412C19.0363 622.88 18.4003 623.108 17.5723 623.108C16.6363 623.108 15.8803 622.808 15.3163 622.22C14.7523 621.632 14.4643 620.852 14.4643 619.868C14.4643 618.932 14.7883 618.152 15.4243 617.54C16.0603 616.928 16.8283 616.628 17.7523 616.628C18.5443 616.628 19.1083 616.808 19.4563 617.168V616.76H20.4763V625.4ZM17.6923 622.16C18.4963 622.16 19.1563 621.728 19.4563 621.092V618.344C19.1083 617.828 18.5323 617.576 17.7523 617.576C17.1403 617.576 16.6123 617.792 16.1803 618.236C15.7483 618.68 15.5323 619.232 15.5323 619.892C15.5323 620.576 15.7363 621.128 16.1443 621.536C16.5403 621.956 17.0563 622.16 17.6923 622.16ZM26.3176 616.724H27.3256V623H26.3176V622.112C25.8376 622.772 25.1656 623.108 24.2896 623.108C22.5616 623.108 21.7216 622.244 21.7216 620.336V616.724H22.7296V620.192C22.7296 621.5 23.2816 622.16 24.3736 622.16C25.2376 622.16 25.9336 621.668 26.3176 620.804V616.724ZM33.4823 621.212L34.1303 621.812C33.5543 622.676 32.7263 623.108 31.6343 623.108C30.6383 623.108 29.8343 622.808 29.2223 622.22C28.6103 621.632 28.3103 620.852 28.3103 619.868C28.3103 618.92 28.5863 618.14 29.1503 617.528C29.7023 616.916 30.4823 616.616 31.4903 616.616C32.3183 616.616 33.0143 616.88 33.5543 617.396C34.0943 617.912 34.3703 618.596 34.3703 619.448C34.3703 619.724 34.3463 619.976 34.3103 620.204H29.3903C29.4503 621.44 30.3623 622.16 31.6703 622.16C32.4023 622.16 33.0983 621.776 33.4823 621.212ZM31.4183 617.54C30.2783 617.54 29.5343 618.236 29.3783 619.292H33.3023C33.2423 618.188 32.5343 617.54 31.4183 617.54ZM39.1983 621.296C39.1983 620.456 37.7703 620.324 36.6303 620C35.8503 619.772 35.2263 619.256 35.2263 618.404C35.2263 617.3 36.2703 616.616 37.8183 616.616C38.8623 616.616 39.7023 617.06 40.1463 617.696L39.4383 618.356C39.0423 617.828 38.4423 617.564 37.6383 617.564C36.9183 617.564 36.2943 617.84 36.2943 618.356C36.2943 619.088 37.7223 619.22 38.8623 619.568C39.6303 619.808 40.2543 620.384 40.2543 621.284C40.2543 622.496 39.2823 623.108 37.7583 623.108C36.4743 623.108 35.3823 622.532 34.9383 621.632L35.7423 621.068C36.1143 621.728 36.9663 622.16 37.9263 622.16C38.7783 622.16 39.1983 621.872 39.1983 621.296ZM41.8511 617.72H40.5551V616.76H41.8511V615.164H42.8591V616.76H45.0071V617.72H42.8591V620.468C42.8591 621.68 43.1711 622.124 43.9391 622.124C44.3111 622.124 44.6951 621.98 45.0671 621.68L45.5231 622.424C45.1271 622.868 44.5391 623.084 43.7591 623.084C42.5231 623.084 41.8511 622.268 41.8511 620.732V617.72ZM50.0558 617.72H48.9038V616.76H50.0558V616.472C50.0558 615.668 50.2598 615.068 50.6678 614.696C51.0638 614.324 51.5558 614.144 52.1438 614.144C52.7798 614.144 53.3798 614.432 53.6798 614.876L53.0798 615.5C52.8758 615.236 52.5758 615.104 52.1918 615.104C51.4358 615.104 51.0638 615.584 51.0638 616.556V616.76H52.9958V617.72H51.0638V623H50.0558V617.72ZM53.0345 619.868C53.0345 618.92 53.3465 618.14 53.9585 617.528C54.5705 616.916 55.3625 616.616 56.3345 616.616C57.3185 616.616 58.1225 616.916 58.7345 617.528C59.3465 618.14 59.6585 618.92 59.6585 619.868C59.6585 620.816 59.3465 621.584 58.7345 622.196C58.1105 622.808 57.3065 623.108 56.3345 623.108C55.3625 623.108 54.5705 622.808 53.9585 622.196C53.3465 621.584 53.0345 620.816 53.0345 619.868ZM54.1025 619.868C54.1025 620.528 54.3065 621.08 54.7265 621.512C55.1465 621.944 55.6745 622.16 56.3345 622.16C56.9945 622.16 57.5465 621.944 57.9665 621.524C58.3865 621.104 58.5905 620.552 58.5905 619.868C58.5905 619.184 58.3745 618.632 57.9545 618.2C57.5225 617.78 56.9825 617.564 56.3345 617.564C55.6865 617.564 55.1585 617.78 54.7385 618.2C54.3185 618.62 54.1025 619.184 54.1025 619.868ZM61.665 623H60.657V616.76H61.665V617.24C61.869 616.82 62.409 616.628 62.949 616.628C63.501 616.628 63.921 616.82 64.221 617.192L63.585 617.888C63.429 617.684 63.189 617.576 62.841 617.576C62.301 617.576 61.809 618.02 61.665 618.656V623ZM6.396 645.4H5.376V642.412C4.956 642.88 4.32 643.108 3.492 643.108C2.556 643.108 1.8 642.808 1.236 642.22C0.672 641.632 0.384 640.852 0.384 639.868C0.384 638.932 0.708 638.152 1.344 637.54C1.98 636.928 2.748 636.628 3.672 636.628C4.464 636.628 5.028 636.808 5.376 637.168V636.76H6.396V645.4ZM3.612 642.16C4.416 642.16 5.076 641.728 5.376 641.092V638.344C5.028 637.828 4.452 637.576 3.672 637.576C3.06 637.576 2.532 637.792 2.1 638.236C1.668 638.68 1.452 639.232 1.452 639.892C1.452 640.576 1.656 641.128 2.064 641.536C2.46 641.956 2.976 642.16 3.612 642.16ZM12.2373 636.724H13.2453V643H12.2373V642.112C11.7573 642.772 11.0853 643.108 10.2093 643.108C8.48128 643.108 7.64128 642.244 7.64128 640.336V636.724H8.64928V640.192C8.64928 641.5 9.20128 642.16 10.2933 642.16C11.1573 642.16 11.8533 641.668 12.2373 640.804V636.724ZM14.2299 639.868C14.2299 638.92 14.5419 638.14 15.1539 637.528C15.7659 636.916 16.5579 636.616 17.5299 636.616C18.5139 636.616 19.3179 636.916 19.9299 637.528C20.5419 638.14 20.8539 638.92 20.8539 639.868C20.8539 640.816 20.5419 641.584 19.9299 642.196C19.3059 642.808 18.5019 643.108 17.5299 643.108C16.5579 643.108 15.7659 642.808 15.1539 642.196C14.5419 641.584 14.2299 640.816 14.2299 639.868ZM15.2979 639.868C15.2979 640.528 15.5019 641.08 15.9219 641.512C16.3419 641.944 16.8699 642.16 17.5299 642.16C18.1899 642.16 18.7419 641.944 19.1619 641.524C19.5819 641.104 19.7859 640.552 19.7859 639.868C19.7859 639.184 19.5699 638.632 19.1499 638.2C18.7179 637.78 18.1779 637.564 17.5299 637.564C16.8819 637.564 16.3539 637.78 15.9339 638.2C15.5139 638.62 15.2979 639.184 15.2979 639.868ZM22.4885 637.72H21.1925V636.76H22.4885V635.164H23.4965V636.76H25.6445V637.72H23.4965V640.468C23.4965 641.68 23.8085 642.124 24.5765 642.124C24.9485 642.124 25.3325 641.98 25.7045 641.68L26.1605 642.424C25.7645 642.868 25.1765 643.084 24.3965 643.084C23.1605 643.084 22.4885 642.268 22.4885 640.732V637.72ZM27.2515 638.26L26.7355 637.504C27.3115 636.964 28.3075 636.616 29.2315 636.616C30.8995 636.616 31.7875 637.528 31.7875 639.148V643H30.7795V642.076C30.3835 642.652 29.6035 643.084 28.5955 643.084C27.2395 643.084 26.3275 642.328 26.3275 641.176C26.3275 639.868 27.4435 639.244 29.3155 639.244C29.9035 639.244 30.3835 639.304 30.7795 639.424C30.7795 638.212 30.3475 637.564 29.1115 637.564C28.4875 637.564 27.8635 637.792 27.2515 638.26ZM28.8355 642.172C29.3035 642.172 29.7235 642.04 30.0715 641.788C30.4195 641.536 30.6475 641.248 30.7795 640.948V640.312C30.4315 640.192 29.9875 640.132 29.4475 640.132C28.0795 640.132 27.3955 640.468 27.3955 641.14C27.3955 641.776 27.9715 642.172 28.8355 642.172ZM33.6977 637.72H32.4017V636.76H33.6977V635.164H34.7057V636.76H36.8537V637.72H34.7057V640.468C34.7057 641.68 35.0177 642.124 35.7857 642.124C36.1577 642.124 36.5417 641.98 36.9137 641.68L37.3697 642.424C36.9737 642.868 36.3857 643.084 35.6057 643.084C34.3697 643.084 33.6977 642.268 33.6977 640.732V637.72ZM39.1207 643H38.1127V636.76H39.1207V643ZM37.9807 634.732C37.9807 634.396 38.2567 634.144 38.6287 634.144C38.9647 634.144 39.2527 634.396 39.2527 634.732C39.2527 635.08 38.9647 635.356 38.6287 635.356C38.2567 635.356 37.9807 635.08 37.9807 634.732ZM40.2432 639.868C40.2432 638.92 40.5552 638.14 41.1672 637.528C41.7792 636.916 42.5712 636.616 43.5432 636.616C44.5272 636.616 45.3312 636.916 45.9432 637.528C46.5552 638.14 46.8672 638.92 46.8672 639.868C46.8672 640.816 46.5552 641.584 45.9432 642.196C45.3192 642.808 44.5152 643.108 43.5432 643.108C42.5712 643.108 41.7792 642.808 41.1672 642.196C40.5552 641.584 40.2432 640.816 40.2432 639.868ZM41.3112 639.868C41.3112 640.528 41.5152 641.08 41.9352 641.512C42.3552 641.944 42.8832 642.16 43.5432 642.16C44.2032 642.16 44.7552 641.944 45.1752 641.524C45.5952 641.104 45.7992 640.552 45.7992 639.868C45.7992 639.184 45.5832 638.632 45.1632 638.2C44.7312 637.78 44.1912 637.564 43.5432 637.564C42.8952 637.564 42.3672 637.78 41.9472 638.2C41.5272 638.62 41.3112 639.184 41.3112 639.868ZM48.8738 643H47.8658V636.76H48.8738V637.576C49.2698 636.964 50.0858 636.628 51.0098 636.628C52.7018 636.628 53.5418 637.564 53.5418 639.448V643H52.5338V639.568C52.5338 638.188 51.9458 637.576 50.7098 637.576C49.9418 637.576 49.2098 638.08 48.8738 638.836V643ZM58.6402 641.296C58.6402 640.456 57.2122 640.324 56.0722 640C55.2922 639.772 54.6682 639.256 54.6682 638.404C54.6682 637.3 55.7122 636.616 57.2602 636.616C58.3042 636.616 59.1442 637.06 59.5882 637.696L58.8802 638.356C58.4842 637.828 57.8842 637.564 57.0802 637.564C56.3602 637.564 55.7362 637.84 55.7362 638.356C55.7362 639.088 57.1642 639.22 58.3042 639.568C59.0722 639.808 59.6962 640.384 59.6962 641.284C59.6962 642.496 58.7242 643.108 57.2002 643.108C55.9162 643.108 54.8242 642.532 54.3802 641.632L55.1842 641.068C55.5562 641.728 56.4082 642.16 57.3682 642.16C58.2202 642.16 58.6402 641.872 58.6402 641.296Z" fill="#1A3341" fill-opacity="0.6"/>
<path d="M88.613 465.152V468H69.125V465.44L78.373 460.096C80.1863 459.051 81.5303 458.208 82.405 457.568C83.2797 456.907 83.8663 456.299 84.165 455.744C84.485 455.189 84.645 454.528 84.645 453.76V453.44C84.645 452.203 84.1223 451.253 83.077 450.592C82.053 449.931 80.5703 449.6 78.629 449.6C76.6237 449.6 75.0983 449.952 74.053 450.656C73.029 451.36 72.517 452.384 72.517 453.728V454.368H69.317V453.696C69.317 451.413 70.117 449.664 71.717 448.448C73.317 447.232 75.5997 446.624 78.565 446.624C81.4663 446.624 83.7383 447.221 85.381 448.416C87.0237 449.611 87.845 451.253 87.845 453.344V453.664C87.845 454.795 87.621 455.787 87.173 456.64C86.725 457.493 85.9463 458.357 84.837 459.232C83.749 460.107 82.149 461.152 80.037 462.368L75.173 465.152H88.613ZM102.881 468.384C100.748 468.384 98.8599 468 97.2172 467.232C95.5959 466.464 94.3266 465.387 93.4092 464C92.5132 462.613 92.0652 461.024 92.0652 459.232V455.808C92.0652 453.995 92.5132 452.395 93.4092 451.008C94.3266 449.621 95.5959 448.544 97.2172 447.776C98.8599 447.008 100.748 446.624 102.881 446.624C104.993 446.624 106.86 447.008 108.481 447.776C110.103 448.544 111.361 449.621 112.257 451.008C113.153 452.395 113.601 453.995 113.601 455.808V459.232C113.601 461.045 113.153 462.645 112.257 464.032C111.361 465.397 110.103 466.464 108.481 467.232C106.86 468 104.993 468.384 102.881 468.384ZM102.881 465.408C105.228 465.408 107.073 464.864 108.417 463.776C109.761 462.688 110.433 461.184 110.433 459.264V455.776C110.433 453.877 109.751 452.373 108.385 451.264C107.041 450.155 105.196 449.6 102.849 449.6C100.481 449.6 98.6146 450.155 97.2492 451.264C95.9052 452.352 95.2332 453.856 95.2332 455.776V459.264C95.2332 461.184 95.9052 462.688 97.2492 463.776C98.6146 464.864 100.492 465.408 102.881 465.408ZM137.006 465.152V468H117.518V465.44L126.766 460.096C128.579 459.051 129.923 458.208 130.798 457.568C131.672 456.907 132.259 456.299 132.558 455.744C132.878 455.189 133.038 454.528 133.038 453.76V453.44C133.038 452.203 132.515 451.253 131.47 450.592C130.446 449.931 128.963 449.6 127.022 449.6C125.016 449.6 123.491 449.952 122.446 450.656C121.422 451.36 120.91 452.384 120.91 453.728V454.368H117.71V453.696C117.71 451.413 118.51 449.664 120.11 448.448C121.71 447.232 123.992 446.624 126.958 446.624C129.859 446.624 132.131 447.221 133.774 448.416C135.416 449.611 136.238 451.253 136.238 453.344V453.664C136.238 454.795 136.014 455.787 135.566 456.64C135.118 457.493 134.339 458.357 133.23 459.232C132.142 460.107 130.542 461.152 128.43 462.368L123.566 465.152H137.006ZM151.978 455.328C154.815 455.413 156.98 455.979 158.474 457.024C159.988 458.048 160.746 459.477 160.746 461.312V461.728C160.746 463.883 159.882 465.536 158.154 466.688C156.426 467.819 153.908 468.384 150.602 468.384C147.38 468.363 144.884 467.797 143.114 466.688C141.364 465.579 140.49 464.011 140.49 461.984V461.76H143.658V461.984C143.658 463.051 144.276 463.893 145.514 464.512C146.751 465.109 148.458 465.408 150.634 465.408C152.916 465.408 154.644 465.109 155.818 464.512C156.991 463.893 157.578 462.987 157.578 461.792V461.408C157.578 459.168 155.295 458.048 150.73 458.048H147.274V455.232L155.178 449.856H140.874V447.008H160.234V449.856L151.978 455.328Z" fill="#1A3341"/>
<path d="M96.5955 491.012C96.5955 490.032 94.9295 489.878 93.5995 489.5C92.6895 489.234 91.9615 488.632 91.9615 487.638C91.9615 486.35 93.1795 485.552 94.9855 485.552C96.2035 485.552 97.1835 486.07 97.7015 486.812L96.8755 487.582C96.4135 486.966 95.7135 486.658 94.7755 486.658C93.9355 486.658 93.2075 486.98 93.2075 487.582C93.2075 488.436 94.8735 488.59 96.2035 488.996C97.0995 489.276 97.8275 489.948 97.8275 490.998C97.8275 492.412 96.6935 493.126 94.9155 493.126C93.4175 493.126 92.1435 492.454 91.6255 491.404L92.5635 490.746C92.9975 491.516 93.9915 492.02 95.1115 492.02C96.1055 492.02 96.5955 491.684 96.5955 491.012ZM99.5085 487.47L98.9065 486.588C99.5785 485.958 100.74 485.552 101.818 485.552C103.764 485.552 104.8 486.616 104.8 488.506V493H103.624V491.922C103.162 492.594 102.252 493.098 101.076 493.098C99.4945 493.098 98.4305 492.216 98.4305 490.872C98.4305 489.346 99.7325 488.618 101.916 488.618C102.602 488.618 103.162 488.688 103.624 488.828C103.624 487.414 103.12 486.658 101.678 486.658C100.95 486.658 100.222 486.924 99.5085 487.47ZM101.356 492.034C101.902 492.034 102.392 491.88 102.798 491.586C103.204 491.292 103.47 490.956 103.624 490.606V489.864C103.218 489.724 102.7 489.654 102.07 489.654C100.474 489.654 99.6765 490.046 99.6765 490.83C99.6765 491.572 100.348 492.034 101.356 492.034ZM111.523 485.72H112.783L109.521 493H108.653L105.251 485.72H106.609L109.115 491.166L111.523 485.72ZM114.641 493H113.465V485.72H114.641V493ZM113.311 483.354C113.311 482.962 113.633 482.668 114.067 482.668C114.459 482.668 114.795 482.962 114.795 483.354C114.795 483.76 114.459 484.082 114.067 484.082C113.633 484.082 113.311 483.76 113.311 483.354ZM117.533 493H116.357V485.72H117.533V486.672C117.995 485.958 118.947 485.566 120.025 485.566C121.999 485.566 122.979 486.658 122.979 488.856V493H121.803V488.996C121.803 487.386 121.117 486.672 119.675 486.672C118.779 486.672 117.925 487.26 117.533 488.142V493ZM129.879 485.72H131.069V492.44C131.069 494.792 129.781 495.926 127.807 495.926C126.225 495.926 124.965 495.24 124.559 494.162L125.609 493.7C125.931 494.33 126.659 494.806 127.737 494.806C129.137 494.806 129.879 494.008 129.879 492.65V492.216C129.333 492.846 128.815 493.126 127.681 493.126C126.575 493.126 125.707 492.79 125.049 492.104C124.391 491.432 124.055 490.508 124.055 489.346C124.055 488.198 124.405 487.274 125.105 486.588C125.791 485.902 126.659 485.566 127.695 485.566C128.717 485.566 129.501 485.916 129.879 486.364V485.72ZM127.877 492.02C128.871 492.02 129.613 491.404 129.879 490.634V487.708C129.529 487.092 128.801 486.672 127.863 486.672C127.135 486.672 126.533 486.91 126.043 487.386C125.553 487.862 125.301 488.52 125.301 489.374C125.301 491.012 126.295 492.02 127.877 492.02ZM137.086 491.012C137.086 490.032 135.42 489.878 134.09 489.5C133.18 489.234 132.452 488.632 132.452 487.638C132.452 486.35 133.67 485.552 135.476 485.552C136.694 485.552 137.674 486.07 138.192 486.812L137.366 487.582C136.904 486.966 136.204 486.658 135.266 486.658C134.426 486.658 133.698 486.98 133.698 487.582C133.698 488.436 135.364 488.59 136.694 488.996C137.59 489.276 138.318 489.948 138.318 490.998C138.318 492.412 137.184 493.126 135.406 493.126C133.908 493.126 132.634 492.454 132.116 491.404L133.054 490.746C133.488 491.516 134.482 492.02 135.602 492.02C136.596 492.02 137.086 491.684 137.086 491.012Z" fill="#318F73"/>
<path d="M102.118 518.864V521H87.5019V519.08L94.4379 515.072C95.7979 514.288 96.8059 513.656 97.4619 513.176C98.1179 512.68 98.5579 512.224 98.7819 511.808C99.0219 511.392 99.1419 510.896 99.1419 510.32V510.08C99.1419 509.152 98.7499 508.44 97.9659 507.944C97.1979 507.448 96.0859 507.2 94.6299 507.2C93.1259 507.2 91.9819 507.464 91.1979 507.992C90.4299 508.52 90.0459 509.288 90.0459 510.296V510.776H87.6459V510.272C87.6459 508.56 88.2459 507.248 89.4459 506.336C90.6459 505.424 92.3579 504.968 94.5819 504.968C96.7579 504.968 98.4619 505.416 99.6939 506.312C100.926 507.208 101.542 508.44 101.542 510.008V510.248C101.542 511.096 101.374 511.84 101.038 512.48C100.702 513.12 100.118 513.768 99.2859 514.424C98.4699 515.08 97.2699 515.864 95.6859 516.776L92.0379 518.864H102.118ZM112.579 510.8C114.947 510.8 116.803 511.24 118.147 512.12C119.507 513 120.187 514.216 120.187 515.768V516.152C120.187 517.784 119.523 519.048 118.195 519.944C116.867 520.84 114.995 521.288 112.579 521.288C110.147 521.288 108.267 520.912 106.939 520.16C105.627 519.408 104.971 518.336 104.971 516.944V516.752H107.371V516.944C107.371 517.6 107.827 518.12 108.739 518.504C109.651 518.872 110.907 519.056 112.507 519.056C114.155 519.056 115.451 518.8 116.395 518.288C117.339 517.776 117.811 517.072 117.811 516.176V515.792C117.811 514.928 117.331 514.248 116.371 513.752C115.427 513.256 114.115 513.008 112.435 513.008C110.963 513.008 109.755 513.2 108.811 513.584C107.867 513.952 107.371 514.44 107.323 515.048H104.971L105.499 505.256H119.179V507.392H107.611L107.371 512.024C108.603 511.208 110.339 510.8 112.579 510.8ZM124.548 521.288C124.116 521.288 123.764 521.152 123.492 520.88C123.22 520.608 123.084 520.264 123.084 519.848C123.084 519.432 123.22 519.088 123.492 518.816C123.764 518.544 124.116 518.408 124.548 518.408C124.98 518.408 125.332 518.544 125.604 518.816C125.876 519.088 126.012 519.432 126.012 519.848C126.012 520.264 125.876 520.608 125.604 520.88C125.332 521.152 124.98 521.288 124.548 521.288ZM136.157 504.968C137.821 504.968 139.261 505.208 140.477 505.688C141.709 506.168 142.645 506.856 143.285 507.752C143.941 508.648 144.269 509.704 144.269 510.92V514.904C144.269 516.904 143.557 518.472 142.133 519.608C140.725 520.728 138.765 521.288 136.253 521.288C134.749 521.288 133.437 521.088 132.317 520.688C131.197 520.288 130.333 519.72 129.725 518.984C129.133 518.232 128.837 517.352 128.837 516.344V516.152H131.213V516.344C131.213 517.192 131.661 517.856 132.557 518.336C133.453 518.816 134.685 519.056 136.253 519.056C138.077 519.056 139.469 518.704 140.429 518C141.405 517.296 141.893 516.28 141.893 514.952V513.464C140.501 514.584 138.533 515.144 135.989 515.144C133.605 515.144 131.773 514.744 130.493 513.944C129.213 513.128 128.573 511.952 128.573 510.416V510.08C128.573 508.48 129.245 507.232 130.589 506.336C131.949 505.424 133.805 504.968 136.157 504.968ZM136.013 512.936C137.405 512.936 138.613 512.776 139.637 512.456C140.661 512.12 141.413 511.648 141.893 511.04V510.896C141.893 509.744 141.389 508.84 140.381 508.184C139.373 507.528 137.957 507.2 136.133 507.2C134.501 507.2 133.229 507.44 132.317 507.92C131.405 508.4 130.949 509.088 130.949 509.984V510.32C130.949 512.064 132.637 512.936 136.013 512.936Z" fill="#318F73"/>
<defs>
<linearGradient id="paint0_linear_6006_29664" x1="73.5" y1="11.5" x2="251.5" y2="142.5" gradientUnits="userSpaceOnUse">
<stop stop-color="#D2F38D"/>
<stop offset="1" stop-color="#E2FDA9"/>
</linearGradient>
<linearGradient id="paint1_linear_6006_29664" x1="141.5" y1="11.5" x2="281.5" y2="186" gradientUnits="userSpaceOnUse">
<stop stop-color="#9AE8A6"/>
<stop offset="1" stop-color="#97E1A2"/>
</linearGradient>
<linearGradient id="paint2_linear_6006_29664" x1="207.5" y1="275" x2="-184.5" y2="-301.5" gradientUnits="userSpaceOnUse">
<stop stop-color="#56BE83"/>
<stop offset="1" stop-color="#A4EB7A"/>
</linearGradient>
<linearGradient id="paint3_linear_6006_29664" x1="72.5" y1="340.5" x2="218" y2="427" gradientUnits="userSpaceOnUse">
<stop stop-color="#D2F38D"/>
<stop offset="1" stop-color="#E2FDA9"/>
</linearGradient>
<linearGradient id="paint4_linear_6006_29664" x1="140.5" y1="340.5" x2="280.5" y2="515" gradientUnits="userSpaceOnUse">
<stop stop-color="#B4E4BC"/>
<stop offset="1" stop-color="#A9EDB4"/>
</linearGradient>
<linearGradient id="paint5_linear_6006_29664" x1="259" y1="642" x2="-48" y2="56" gradientUnits="userSpaceOnUse">
<stop stop-color="#56BE83"/>
<stop offset="1" stop-color="#A4EB7A"/>
</linearGradient>
</defs>
</svg>
