<svg width="297" height="362" viewBox="0 0 297 362" fill="none" xmlns="http://www.w3.org/2000/svg">
<path d="M270.043 157.033C263.633 173.357 253.574 188 240.636 199.839C227.697 211.679 212.223 220.403 195.395 225.343C178.567 230.283 160.832 231.309 143.547 228.343C126.262 225.376 109.884 218.495 95.667 208.227L103.747 197.04C116.258 206.076 130.671 212.131 145.882 214.742C161.093 217.352 176.699 216.449 191.507 212.102C206.316 207.754 219.934 200.078 231.319 189.659C242.705 179.24 251.557 166.355 257.198 151.989L270.043 157.033Z" fill="url(#paint0_linear_4002_20363)"/>
<path d="M56.283 157.854C49.2718 140.395 46.6515 121.481 48.6518 102.773C50.6522 84.0651 57.2122 66.1336 67.7564 50.5511C78.3007 34.9686 92.5072 22.2112 109.13 13.3978C125.753 4.58425 144.284 -0.0161402 163.099 3.57314e-05L163.087 13.8C146.53 13.7858 130.222 17.8341 115.594 25.59C100.966 33.3459 88.4646 44.5724 79.1857 58.285C69.9067 71.9975 64.134 87.7773 62.3736 104.24C60.6133 120.704 62.9192 137.347 69.089 152.712L56.283 157.854Z" fill="#DBE9EE"/>
<path d="M95.7508 208.287C78.0484 195.526 64.3425 177.991 56.2337 157.731L69.0457 152.603C76.1814 170.432 88.2426 185.863 103.821 197.093L95.7508 208.287Z" fill="#9DDDDC"/>
<path d="M163 0.000183105C181.759 0.000183329 200.233 4.58921 216.812 13.3671C233.391 22.1451 247.57 34.8453 258.114 50.3606C268.658 65.8758 275.247 83.735 277.306 102.381C279.364 121.026 276.83 139.893 269.924 157.334L257.093 152.254C263.17 136.906 265.4 120.303 263.589 103.895C261.777 87.4868 255.979 71.7708 246.701 58.1173C237.422 44.4639 224.944 33.2877 210.354 25.5631C195.765 17.8385 179.508 13.8002 163 13.8002V0.000183105Z" fill="url(#paint1_linear_4002_20363)"/>
<path d="M275.975 53.056L274.925 52.58C275.443 51.068 276.801 50.074 278.831 50.074C279.797 50.074 280.595 50.298 281.211 50.746C281.827 51.194 282.135 51.796 282.135 52.538C282.135 53.672 281.533 54.512 280.413 54.834C281.491 54.904 282.359 55.716 282.359 57.172C282.359 58.096 282.023 58.824 281.351 59.342C280.679 59.86 279.825 60.126 278.775 60.126C276.633 60.126 275.149 59.104 274.659 57.494L275.793 57.004C276.395 58.278 277.417 58.922 278.859 58.922C280.217 58.922 281.071 58.292 281.071 57.186C281.071 56.108 280.231 55.562 278.551 55.562H277.459V54.4H278.327C279.853 54.4 280.847 53.714 280.847 52.776C280.847 51.81 280.049 51.264 278.775 51.264C277.277 51.264 276.367 52.034 275.975 53.056ZM283.398 52.804L282.95 51.754L286.31 50.144H287.108V60H285.904V51.642L283.398 52.804Z" fill="#1A3341"/>
<path d="M197.722 238.434L196.7 238.07C197.05 236.334 198.366 235.088 200.452 235.088C202.468 235.088 203.7 236.25 203.7 238.028C203.7 238.966 203.294 239.904 202.79 240.576C202.538 240.926 202.216 241.262 201.838 241.612C201.068 242.298 200.522 242.662 199.724 243.166L198.646 243.838H204.064V245H196.434V244.048L198.562 242.634C198.94 242.396 199.206 242.214 199.36 242.102C199.514 242.004 199.766 241.822 200.102 241.584C200.438 241.346 200.69 241.136 200.858 240.982C201.012 240.828 201.222 240.632 201.46 240.38C202.104 239.68 202.342 239.036 202.412 238.154C202.412 236.88 201.586 236.306 200.368 236.306C199.612 236.306 199.01 236.516 198.576 236.936C198.142 237.356 197.848 237.86 197.722 238.434ZM213.182 239.918C213.182 241.584 212.79 242.872 211.992 243.768C211.194 244.678 210.13 245.126 208.8 245.126C207.176 245.126 205.902 244.44 205.272 243.39L206.28 242.69C206.84 243.474 207.862 243.922 208.968 243.922C209.878 243.922 210.606 243.558 211.18 242.83C211.754 242.116 211.992 241.22 211.922 240.156C211.46 241.22 210.298 242.004 208.744 242.004C207.652 242.004 206.756 241.696 206.056 241.066C205.342 240.45 204.992 239.638 204.992 238.644C204.992 237.552 205.37 236.684 206.126 236.04C206.882 235.396 207.89 235.074 209.136 235.074C211.656 235.074 213.182 236.838 213.182 239.918ZM211.712 238.602C211.502 237.3 210.606 236.278 208.996 236.278C207.316 236.278 206.28 237.146 206.28 238.602C206.28 239.988 207.33 240.8 208.968 240.8C209.71 240.8 210.34 240.576 210.83 240.128C211.32 239.68 211.614 239.176 211.712 238.602Z" fill="#1A3341"/>
<path d="M63.2507 193.918C63.2507 195.584 62.8587 196.872 62.0607 197.768C61.2627 198.678 60.1987 199.126 58.8687 199.126C57.2447 199.126 55.9707 198.44 55.3407 197.39L56.3487 196.69C56.9087 197.474 57.9307 197.922 59.0367 197.922C59.9467 197.922 60.6747 197.558 61.2487 196.83C61.8227 196.116 62.0607 195.22 61.9907 194.156C61.5287 195.22 60.3667 196.004 58.8127 196.004C57.7207 196.004 56.8247 195.696 56.1247 195.066C55.4107 194.45 55.0607 193.638 55.0607 192.644C55.0607 191.552 55.4387 190.684 56.1947 190.04C56.9507 189.396 57.9587 189.074 59.2047 189.074C61.7247 189.074 63.2507 190.838 63.2507 193.918ZM61.7807 192.602C61.5707 191.3 60.6747 190.278 59.0647 190.278C57.3847 190.278 56.3487 191.146 56.3487 192.602C56.3487 193.988 57.3987 194.8 59.0367 194.8C59.7787 194.8 60.4087 194.576 60.8987 194.128C61.3887 193.68 61.6827 193.176 61.7807 192.602Z" fill="#1A3341"/>
<path d="M81.3826 7.05618L80.3326 6.58018C80.8506 5.06818 82.2086 4.07418 84.2386 4.07418C85.2046 4.07418 86.0026 4.29818 86.6186 4.74618C87.2346 5.19418 87.5426 5.79618 87.5426 6.53818C87.5426 7.67218 86.9406 8.51218 85.8206 8.83418C86.8986 8.90418 87.7666 9.71618 87.7666 11.1722C87.7666 12.0962 87.4306 12.8242 86.7586 13.3422C86.0866 13.8602 85.2326 14.1262 84.1826 14.1262C82.0406 14.1262 80.5566 13.1042 80.0666 11.4942L81.2006 11.0042C81.8026 12.2782 82.8246 12.9222 84.2666 12.9222C85.6246 12.9222 86.4786 12.2922 86.4786 11.1862C86.4786 10.1082 85.6386 9.56218 83.9586 9.56218H82.8666V8.40018H83.7346C85.2606 8.40018 86.2546 7.71418 86.2546 6.77618C86.2546 5.81018 85.4566 5.26418 84.1826 5.26418C82.6846 5.26418 81.7746 6.03418 81.3826 7.05618ZM88.8052 6.80418L88.3572 5.75418L91.7172 4.14418H92.5152V14.0002H91.3112V5.64218L88.8052 6.80418Z" fill="#1A3341"/>
<rect y="276" width="10" height="10" fill="url(#paint2_linear_4002_20363)"/>
<path d="M19.98 285H18.888V276.6H19.98V280.656L24.228 276.6H25.656L21.696 280.404L25.944 285H24.504L20.88 281.124L19.98 281.988V285ZM31.2736 280.332L27.4696 285H26.5456V278.76H27.5536V283.44L31.3456 278.76H32.2816V285H31.2736V280.332ZM35.2889 279.708H32.9009V278.76H38.7089V279.708H36.2969V285H35.2889V279.708ZM39.6059 280.26L39.0899 279.504C39.6659 278.964 40.6619 278.616 41.5859 278.616C43.2539 278.616 44.1419 279.528 44.1419 281.148V285H43.1339V284.076C42.7379 284.652 41.9579 285.084 40.9499 285.084C39.5939 285.084 38.6819 284.328 38.6819 283.176C38.6819 281.868 39.7979 281.244 41.6699 281.244C42.2579 281.244 42.7379 281.304 43.1339 281.424C43.1339 280.212 42.7019 279.564 41.4659 279.564C40.8419 279.564 40.2179 279.792 39.6059 280.26ZM41.1899 284.172C41.6579 284.172 42.0779 284.04 42.4259 283.788C42.7739 283.536 43.0019 283.248 43.1339 282.948V282.312C42.7859 282.192 42.3419 282.132 41.8019 282.132C40.4339 282.132 39.7499 282.468 39.7499 283.14C39.7499 283.776 40.3259 284.172 41.1899 284.172ZM50.1441 280.332L46.3401 285H45.4161V278.76H46.4241V283.44L50.2161 278.76H51.1521V285H50.1441V280.332ZM46.3761 276.072H47.3241C47.3361 276.66 47.7201 277.056 48.3921 277.056C49.0281 277.056 49.4241 276.66 49.4241 276.072H50.3721C50.3601 277.164 49.5081 277.86 48.3921 277.86C47.1921 277.86 46.3881 277.176 46.3761 276.072ZM61.9163 282.156H54.5003V281.268H61.9163V282.156ZM71.5684 285H65.4124V276.6H71.4604V277.62H66.5044V280.236H71.1244V281.232H66.5044V283.98H71.5684V285ZM75.561 285H72.777V278.76H75.369C77.109 278.76 77.925 279.204 77.925 280.356C77.925 280.932 77.661 281.388 77.121 281.712C77.793 281.916 78.129 282.408 78.129 283.212C78.129 284.376 77.205 285 75.561 285ZM75.573 282.276H73.785V284.064H75.453C76.521 284.064 77.061 283.764 77.061 283.164C77.061 282.576 76.569 282.276 75.573 282.276ZM75.333 279.696H73.785V281.364H75.681C76.413 281.364 76.857 281.064 76.857 280.5C76.857 279.864 76.341 279.696 75.333 279.696ZM80.1455 287.4H79.1375V278.76H80.1455V279.54C80.5655 278.928 81.2375 278.616 82.1615 278.616C83.0735 278.616 83.8055 278.904 84.3455 279.492C84.8855 280.08 85.1495 280.836 85.1495 281.772C85.1495 282.732 84.8615 283.524 84.2855 284.16C83.6975 284.796 82.9535 285.108 82.0415 285.108C81.2015 285.108 80.5655 284.892 80.1455 284.472V287.4ZM82.0535 279.564C81.1415 279.564 80.4335 280.152 80.1455 280.86V283.188C80.5055 283.836 81.1055 284.16 81.9575 284.16C82.5695 284.16 83.0855 283.944 83.4815 283.512C83.8775 283.08 84.0815 282.528 84.0815 281.844C84.0815 280.452 83.3015 279.564 82.0535 279.564ZM85.7945 281.868C85.7945 280.92 86.1065 280.14 86.7185 279.528C87.3305 278.916 88.1225 278.616 89.0945 278.616C90.0785 278.616 90.8825 278.916 91.4945 279.528C92.1065 280.14 92.4185 280.92 92.4185 281.868C92.4185 282.816 92.1065 283.584 91.4945 284.196C90.8705 284.808 90.0665 285.108 89.0945 285.108C88.1225 285.108 87.3305 284.808 86.7185 284.196C86.1065 283.584 85.7945 282.816 85.7945 281.868ZM86.8625 281.868C86.8625 282.528 87.0665 283.08 87.4865 283.512C87.9065 283.944 88.4345 284.16 89.0945 284.16C89.7545 284.16 90.3065 283.944 90.7265 283.524C91.1465 283.104 91.3505 282.552 91.3505 281.868C91.3505 281.184 91.1345 280.632 90.7145 280.2C90.2825 279.78 89.7425 279.564 89.0945 279.564C88.4465 279.564 87.9185 279.78 87.4985 280.2C87.0785 280.62 86.8625 281.184 86.8625 281.868ZM98.961 285H97.953V279.708H94.425V285H93.417V278.76H98.961V285ZM100.785 280.26L100.269 279.504C100.845 278.964 101.841 278.616 102.765 278.616C104.433 278.616 105.321 279.528 105.321 281.148V285H104.313V284.076C103.917 284.652 103.137 285.084 102.129 285.084C100.773 285.084 99.8608 284.328 99.8608 283.176C99.8608 281.868 100.977 281.244 102.849 281.244C103.437 281.244 103.917 281.304 104.313 281.424C104.313 280.212 103.881 279.564 102.645 279.564C102.021 279.564 101.397 279.792 100.785 280.26ZM102.369 284.172C102.837 284.172 103.257 284.04 103.605 283.788C103.953 283.536 104.181 283.248 104.313 282.948V282.312C103.965 282.192 103.521 282.132 102.981 282.132C101.613 282.132 100.929 282.468 100.929 283.14C100.929 283.776 101.505 284.172 102.369 284.172ZM116.02 282.156H108.604V281.268H116.02V282.156ZM120.608 285H119.516V276.6H120.608V280.656L124.856 276.6H126.284L122.324 280.404L126.572 285H125.132L121.508 281.124L120.608 281.988V285ZM131.902 280.332L128.098 285H127.174V278.76H128.182V283.44L131.974 278.76H132.91V285H131.902V280.332ZM135.917 279.708H133.529V278.76H139.337V279.708H136.925V285H135.917V279.708ZM140.234 280.26L139.718 279.504C140.294 278.964 141.29 278.616 142.214 278.616C143.882 278.616 144.77 279.528 144.77 281.148V285H143.762V284.076C143.366 284.652 142.586 285.084 141.578 285.084C140.222 285.084 139.31 284.328 139.31 283.176C139.31 281.868 140.426 281.244 142.298 281.244C142.886 281.244 143.366 281.304 143.762 281.424C143.762 280.212 143.33 279.564 142.094 279.564C141.47 279.564 140.846 279.792 140.234 280.26ZM141.818 284.172C142.286 284.172 142.706 284.04 143.054 283.788C143.402 283.536 143.63 283.248 143.762 282.948V282.312C143.414 282.192 142.97 282.132 142.43 282.132C141.062 282.132 140.378 282.468 140.378 283.14C140.378 283.776 140.954 284.172 141.818 284.172ZM150.772 280.332L146.968 285H146.044V278.76H147.052V283.44L150.844 278.76H151.78V285H150.772V280.332ZM147.004 276.072H147.952C147.964 276.66 148.348 277.056 149.02 277.056C149.656 277.056 150.052 276.66 150.052 276.072H151C150.988 277.164 150.136 277.86 149.02 277.86C147.82 277.86 147.016 277.176 147.004 276.072Z" fill="#1A3341" fill-opacity="0.6"/>
<rect y="300" width="10" height="10" fill="url(#paint3_linear_4002_20363)"/>
<path d="M19.98 309H18.888V300.6H19.98V304.656L24.228 300.6H25.656L21.696 304.404L25.944 309H24.504L20.88 305.124L19.98 305.988V309ZM31.2736 304.332L27.4696 309H26.5456V302.76H27.5536V307.44L31.3456 302.76H32.2816V309H31.2736V304.332ZM35.2889 303.708H32.9009V302.76H38.7089V303.708H36.2969V309H35.2889V303.708ZM39.6059 304.26L39.0899 303.504C39.6659 302.964 40.6619 302.616 41.5859 302.616C43.2539 302.616 44.1419 303.528 44.1419 305.148V309H43.1339V308.076C42.7379 308.652 41.9579 309.084 40.9499 309.084C39.5939 309.084 38.6819 308.328 38.6819 307.176C38.6819 305.868 39.7979 305.244 41.6699 305.244C42.2579 305.244 42.7379 305.304 43.1339 305.424C43.1339 304.212 42.7019 303.564 41.4659 303.564C40.8419 303.564 40.2179 303.792 39.6059 304.26ZM41.1899 308.172C41.6579 308.172 42.0779 308.04 42.4259 307.788C42.7739 307.536 43.0019 307.248 43.1339 306.948V306.312C42.7859 306.192 42.3419 306.132 41.8019 306.132C40.4339 306.132 39.7499 306.468 39.7499 307.14C39.7499 307.776 40.3259 308.172 41.1899 308.172ZM50.1441 304.332L46.3401 309H45.4161V302.76H46.4241V307.44L50.2161 302.76H51.1521V309H50.1441V304.332ZM46.3761 300.072H47.3241C47.3361 300.66 47.7201 301.056 48.3921 301.056C49.0281 301.056 49.4241 300.66 49.4241 300.072H50.3721C50.3601 301.164 49.5081 301.86 48.3921 301.86C47.1921 301.86 46.3881 301.176 46.3761 300.072ZM61.9163 306.156H54.5003V305.268H61.9163V306.156ZM66.5044 305.904V309H65.4124V300.6H68.6764C70.9684 300.6 72.1204 301.476 72.1204 303.24C72.1204 303.996 71.8444 304.632 71.2924 305.136C70.7284 305.652 69.8524 305.904 68.6644 305.904H66.5044ZM68.7244 301.62H66.5044V304.896H68.6404C70.2244 304.896 70.9924 304.272 70.9924 303.228C70.9924 302.16 70.2364 301.62 68.7244 301.62ZM72.1243 305.868C72.1243 304.92 72.4363 304.14 73.0483 303.528C73.6603 302.916 74.4523 302.616 75.4243 302.616C76.4083 302.616 77.2123 302.916 77.8243 303.528C78.4363 304.14 78.7483 304.92 78.7483 305.868C78.7483 306.816 78.4363 307.584 77.8243 308.196C77.2003 308.808 76.3963 309.108 75.4243 309.108C74.4523 309.108 73.6603 308.808 73.0483 308.196C72.4363 307.584 72.1243 306.816 72.1243 305.868ZM73.1923 305.868C73.1923 306.528 73.3963 307.08 73.8163 307.512C74.2363 307.944 74.7643 308.16 75.4243 308.16C76.0843 308.16 76.6363 307.944 77.0563 307.524C77.4763 307.104 77.6803 306.552 77.6803 305.868C77.6803 305.184 77.4643 304.632 77.0443 304.2C76.6123 303.78 76.0723 303.564 75.4243 303.564C74.7763 303.564 74.2483 303.78 73.8283 304.2C73.4083 304.62 73.1923 305.184 73.1923 305.868ZM84.5828 307.2L85.3028 307.716C84.8348 308.592 83.7788 309.108 82.7348 309.108C81.7388 309.108 80.9348 308.808 80.3228 308.22C79.7108 307.632 79.3988 306.852 79.3988 305.868C79.3988 304.932 79.6988 304.152 80.3108 303.54C80.9228 302.928 81.7028 302.616 82.6748 302.616C83.7908 302.616 84.7868 303.12 85.2068 303.888L84.4268 304.416C84.0068 303.852 83.4308 303.564 82.6988 303.564C82.0508 303.564 81.5228 303.78 81.1028 304.212C80.6828 304.644 80.4668 305.196 80.4668 305.868C80.4668 306.552 80.6828 307.104 81.1268 307.524C81.5588 307.944 82.1228 308.16 82.8308 308.16C83.5748 308.16 84.1628 307.836 84.5828 307.2ZM90.5097 307.2L91.2297 307.716C90.7617 308.592 89.7057 309.108 88.6617 309.108C87.6657 309.108 86.8617 308.808 86.2497 308.22C85.6377 307.632 85.3257 306.852 85.3257 305.868C85.3257 304.932 85.6257 304.152 86.2377 303.54C86.8497 302.928 87.6297 302.616 88.6017 302.616C89.7177 302.616 90.7137 303.12 91.1337 303.888L90.3537 304.416C89.9337 303.852 89.3577 303.564 88.6257 303.564C87.9777 303.564 87.4497 303.78 87.0297 304.212C86.6097 304.644 86.3937 305.196 86.3937 305.868C86.3937 306.552 86.6097 307.104 87.0537 307.524C87.4857 307.944 88.0497 308.16 88.7577 308.16C89.5017 308.16 90.0897 307.836 90.5097 307.2ZM96.6684 304.332L92.8644 309H91.9404V302.76H92.9484V307.44L96.7404 302.76H97.6764V309H96.6684V304.332ZM101.5 302.76H104.008V309H103V306.792H101.476L99.6278 309H98.4038L100.396 306.636C99.4358 306.456 98.7998 305.724 98.7998 304.764C98.7998 303.576 99.6278 302.76 101.5 302.76ZM99.8678 304.788C99.8678 305.4 100.444 305.832 101.356 305.832H103V303.72H101.38C100.372 303.72 99.8678 304.08 99.8678 304.788Z" fill="#1A3341" fill-opacity="0.6"/>
<rect y="324" width="10" height="10" fill="#9DDDDC"/>
<path d="M19.98 333H18.888V324.6H19.98V328.656L24.228 324.6H25.656L21.696 328.404L25.944 333H24.504L20.88 329.124L19.98 329.988V333ZM31.2736 328.332L27.4696 333H26.5456V326.76H27.5536V331.44L31.3456 326.76H32.2816V333H31.2736V328.332ZM35.2889 327.708H32.9009V326.76H38.7089V327.708H36.2969V333H35.2889V327.708ZM39.6059 328.26L39.0899 327.504C39.6659 326.964 40.6619 326.616 41.5859 326.616C43.2539 326.616 44.1419 327.528 44.1419 329.148V333H43.1339V332.076C42.7379 332.652 41.9579 333.084 40.9499 333.084C39.5939 333.084 38.6819 332.328 38.6819 331.176C38.6819 329.868 39.7979 329.244 41.6699 329.244C42.2579 329.244 42.7379 329.304 43.1339 329.424C43.1339 328.212 42.7019 327.564 41.4659 327.564C40.8419 327.564 40.2179 327.792 39.6059 328.26ZM41.1899 332.172C41.6579 332.172 42.0779 332.04 42.4259 331.788C42.7739 331.536 43.0019 331.248 43.1339 330.948V330.312C42.7859 330.192 42.3419 330.132 41.8019 330.132C40.4339 330.132 39.7499 330.468 39.7499 331.14C39.7499 331.776 40.3259 332.172 41.1899 332.172ZM50.1441 328.332L46.3401 333H45.4161V326.76H46.4241V331.44L50.2161 326.76H51.1521V333H50.1441V328.332ZM46.3761 324.072H47.3241C47.3361 324.66 47.7201 325.056 48.3921 325.056C49.0281 325.056 49.4241 324.66 49.4241 324.072H50.3721C50.3601 325.164 49.5081 325.86 48.3921 325.86C47.1921 325.86 46.3881 325.176 46.3761 324.072ZM61.9163 330.156H54.5003V329.268H61.9163V330.156ZM65.4124 324.6H71.4124V325.62H66.5044V328.032H69.0004C70.9804 328.032 72.0364 328.884 72.0364 330.432C72.0364 332.16 70.8244 333 68.6764 333H65.4124V324.6ZM68.8324 329.052H66.5044V331.98H68.7604C70.1884 331.98 70.9084 331.464 70.9084 330.444C70.9084 329.52 70.2124 329.052 68.8324 329.052ZM77.8822 331.212L78.5302 331.812C77.9542 332.676 77.1262 333.108 76.0342 333.108C75.0382 333.108 74.2342 332.808 73.6222 332.22C73.0102 331.632 72.7102 330.852 72.7102 329.868C72.7102 328.92 72.9862 328.14 73.5502 327.528C74.1022 326.916 74.8822 326.616 75.8902 326.616C76.7182 326.616 77.4142 326.88 77.9542 327.396C78.4942 327.912 78.7702 328.596 78.7702 329.448C78.7702 329.724 78.7462 329.976 78.7102 330.204H73.7902C73.8502 331.44 74.7622 332.16 76.0702 332.16C76.8022 332.16 77.4982 331.776 77.8822 331.212ZM75.8182 327.54C74.6782 327.54 73.9342 328.236 73.7782 329.292H77.7022C77.6422 328.188 76.9342 327.54 75.8182 327.54ZM85.0537 333H84.0457V327.72H81.4057V328.008C81.4057 330.024 81.1777 331.416 80.7217 332.136C80.2657 332.856 79.7017 333.096 78.9217 333V332.04C79.7257 332.04 80.3977 331.692 80.3977 328.044V326.76H85.0537V333ZM86.8803 328.26L86.3643 327.504C86.9403 326.964 87.9363 326.616 88.8603 326.616C90.5283 326.616 91.4163 327.528 91.4163 329.148V333H90.4083V332.076C90.0123 332.652 89.2323 333.084 88.2243 333.084C86.8683 333.084 85.9563 332.328 85.9563 331.176C85.9563 329.868 87.0723 329.244 88.9443 329.244C89.5323 329.244 90.0123 329.304 90.4083 329.424C90.4083 328.212 89.9763 327.564 88.7403 327.564C88.1163 327.564 87.4923 327.792 86.8803 328.26ZM88.4643 332.172C88.9323 332.172 89.3523 332.04 89.7003 331.788C90.0483 331.536 90.2763 331.248 90.4083 330.948V330.312C90.0603 330.192 89.6163 330.132 89.0763 330.132C87.7083 330.132 87.0243 330.468 87.0243 331.14C87.0243 331.776 87.6003 332.172 88.4643 332.172ZM93.6984 335.4H92.6904V326.76H93.6984V327.54C94.1184 326.928 94.7904 326.616 95.7144 326.616C96.6264 326.616 97.3584 326.904 97.8984 327.492C98.4384 328.08 98.7024 328.836 98.7024 329.772C98.7024 330.732 98.4144 331.524 97.8384 332.16C97.2504 332.796 96.5064 333.108 95.5944 333.108C94.7544 333.108 94.1184 332.892 93.6984 332.472V335.4ZM95.6064 327.564C94.6944 327.564 93.9864 328.152 93.6984 328.86V331.188C94.0584 331.836 94.6584 332.16 95.5104 332.16C96.1224 332.16 96.6384 331.944 97.0344 331.512C97.4304 331.08 97.6344 330.528 97.6344 329.844C97.6344 328.452 96.8544 327.564 95.6064 327.564ZM99.5816 335.376L99.9776 334.5C100.074 334.536 100.158 334.56 100.242 334.56C100.71 334.56 101.034 334.236 101.454 333.24L101.646 332.772L98.6216 326.76H99.8096L102.15 331.5L103.914 326.76H105.018L102.642 332.904C102.234 333.912 101.85 334.596 101.502 334.968C101.142 335.34 100.734 335.52 100.278 335.52C100.014 335.52 99.7856 335.472 99.5816 335.376ZM110.154 331.2L110.874 331.716C110.406 332.592 109.35 333.108 108.306 333.108C107.31 333.108 106.506 332.808 105.894 332.22C105.282 331.632 104.97 330.852 104.97 329.868C104.97 328.932 105.27 328.152 105.882 327.54C106.494 326.928 107.274 326.616 108.246 326.616C109.362 326.616 110.358 327.12 110.778 327.888L109.998 328.416C109.578 327.852 109.002 327.564 108.27 327.564C107.622 327.564 107.094 327.78 106.674 328.212C106.254 328.644 106.038 329.196 106.038 329.868C106.038 330.552 106.254 331.104 106.698 331.524C107.13 331.944 107.694 332.16 108.402 332.16C109.146 332.16 109.734 331.836 110.154 331.2ZM114.104 333H111.584V326.76H112.592V328.704H114.2C115.904 328.704 116.756 329.412 116.756 330.84C116.756 332.1 115.964 333 114.104 333ZM114.068 329.664H112.592V332.04H114.068C115.22 332.04 115.688 331.632 115.688 330.852C115.688 330.06 115.148 329.664 114.068 329.664Z" fill="#1A3341" fill-opacity="0.6"/>
<rect y="348" width="10" height="10" fill="#DBE9EE"/>
<path d="M19.044 358.536H18V355.98H18.888C19.416 355.152 20.004 353.076 20.004 349.62V348.6H25.68V355.98H26.736V358.536H25.692V357H19.044V358.536ZM24.588 349.62H21.048V350.4C21.048 351.42 20.952 352.476 20.76 353.568C20.556 354.66 20.328 355.464 20.064 355.98H24.588V349.62ZM26.8187 353.868C26.8187 352.92 27.1307 352.14 27.7427 351.528C28.3547 350.916 29.1467 350.616 30.1187 350.616C31.1027 350.616 31.9067 350.916 32.5187 351.528C33.1307 352.14 33.4427 352.92 33.4427 353.868C33.4427 354.816 33.1307 355.584 32.5187 356.196C31.8947 356.808 31.0907 357.108 30.1187 357.108C29.1467 357.108 28.3547 356.808 27.7427 356.196C27.1307 355.584 26.8187 354.816 26.8187 353.868ZM27.8867 353.868C27.8867 354.528 28.0907 355.08 28.5107 355.512C28.9307 355.944 29.4587 356.16 30.1187 356.16C30.7787 356.16 31.3307 355.944 31.7507 355.524C32.1707 355.104 32.3747 354.552 32.3747 353.868C32.3747 353.184 32.1587 352.632 31.7387 352.2C31.3067 351.78 30.7667 351.564 30.1187 351.564C29.4707 351.564 28.9427 351.78 28.5227 352.2C28.1027 352.62 27.8867 353.184 27.8867 353.868ZM39.9852 357H38.9772V351.708H35.4492V357H34.4412V350.76H39.9852V357ZM40.981 353.868C40.981 352.92 41.293 352.14 41.905 351.528C42.517 350.916 43.309 350.616 44.281 350.616C45.265 350.616 46.069 350.916 46.681 351.528C47.293 352.14 47.605 352.92 47.605 353.868C47.605 354.816 47.293 355.584 46.681 356.196C46.057 356.808 45.253 357.108 44.281 357.108C43.309 357.108 42.517 356.808 41.905 356.196C41.293 355.584 40.981 354.816 40.981 353.868ZM42.049 353.868C42.049 354.528 42.253 355.08 42.673 355.512C43.093 355.944 43.621 356.16 44.281 356.16C44.941 356.16 45.493 355.944 45.913 355.524C46.333 355.104 46.537 354.552 46.537 353.868C46.537 353.184 46.321 352.632 45.901 352.2C45.469 351.78 44.929 351.564 44.281 351.564C43.633 351.564 43.105 351.78 42.685 352.2C42.265 352.62 42.049 353.184 42.049 353.868ZM53.8869 357H52.8789V351.72H50.2389V352.008C50.2389 354.024 50.0109 355.416 49.5549 356.136C49.0989 356.856 48.5349 357.096 47.7549 357V356.04C48.5589 356.04 49.2309 355.692 49.2309 352.044V350.76H53.8869V357ZM60.8496 357H59.8416V354.3H56.2416V357H55.2336V350.76H56.2416V353.352H59.8416V350.76H60.8496V357ZM66.9197 352.332L63.1157 357H62.1917V350.76H63.1997V355.44L66.9917 350.76H67.9277V357H66.9197V352.332ZM70.935 351.708H68.547V350.76H74.355V351.708H71.943V357H70.935V351.708ZM79.5726 355.212L80.2206 355.812C79.6446 356.676 78.8166 357.108 77.7246 357.108C76.7286 357.108 75.9246 356.808 75.3126 356.22C74.7006 355.632 74.4006 354.852 74.4006 353.868C74.4006 352.92 74.6766 352.14 75.2406 351.528C75.7926 350.916 76.5726 350.616 77.5806 350.616C78.4086 350.616 79.1046 350.88 79.6446 351.396C80.1846 351.912 80.4606 352.596 80.4606 353.448C80.4606 353.724 80.4366 353.976 80.4006 354.204H75.4806C75.5406 355.44 76.4526 356.16 77.7606 356.16C78.4926 356.16 79.1886 355.776 79.5726 355.212ZM77.5086 351.54C76.3686 351.54 75.6246 352.236 75.4686 353.292H79.3926C79.3326 352.188 78.6246 351.54 77.5086 351.54ZM86.744 357H85.736V351.72H83.096V352.008C83.096 354.024 82.868 355.416 82.412 356.136C81.956 356.856 81.392 357.096 80.612 357V356.04C81.416 356.04 82.088 355.692 82.088 352.044V350.76H86.744V357ZM90.6106 357H88.0906V350.76H89.0986V352.704H90.7066C92.4106 352.704 93.2626 353.412 93.2626 354.84C93.2626 356.1 92.4706 357 90.6106 357ZM90.5746 353.664H89.0986V356.04H90.5746C91.7266 356.04 92.1946 355.632 92.1946 354.852C92.1946 354.06 91.6546 353.664 90.5746 353.664ZM99.7741 357H98.7661V354.3H95.1661V357H94.1581V350.76H95.1661V353.352H98.7661V350.76H99.7741V357ZM103.372 357H101.116V350.76H102.124V352.704H103.468C105.304 352.704 106.036 353.556 106.036 354.84C106.036 356.1 105.232 357 103.372 357ZM103.36 353.664H102.124V356.04H103.348C104.5 356.04 104.968 355.632 104.968 354.852C104.968 354.06 104.428 353.664 103.36 353.664ZM107.944 357H106.924V350.76H107.944V357ZM114.105 355.212L114.753 355.812C114.177 356.676 113.349 357.108 112.257 357.108C111.261 357.108 110.457 356.808 109.845 356.22C109.233 355.632 108.933 354.852 108.933 353.868C108.933 352.92 109.209 352.14 109.773 351.528C110.325 350.916 111.105 350.616 112.113 350.616C112.941 350.616 113.637 350.88 114.177 351.396C114.717 351.912 114.993 352.596 114.993 353.448C114.993 353.724 114.969 353.976 114.933 354.204H110.013C110.073 355.44 110.985 356.16 112.293 356.16C113.025 356.16 113.721 355.776 114.105 355.212ZM112.041 351.54C110.901 351.54 110.157 352.236 110.001 353.292H113.925C113.865 352.188 113.157 351.54 112.041 351.54ZM120.479 357H119.471V350.76H120.395L122.699 353.808L124.943 350.76H125.807V357H124.799V352.536L122.687 355.416L120.479 352.536V357ZM127.636 352.26L127.12 351.504C127.696 350.964 128.692 350.616 129.616 350.616C131.284 350.616 132.172 351.528 132.172 353.148V357H131.164V356.076C130.768 356.652 129.988 357.084 128.98 357.084C127.624 357.084 126.712 356.328 126.712 355.176C126.712 353.868 127.828 353.244 129.7 353.244C130.288 353.244 130.768 353.304 131.164 353.424C131.164 352.212 130.732 351.564 129.496 351.564C128.872 351.564 128.248 351.792 127.636 352.26ZM129.22 356.172C129.688 356.172 130.108 356.04 130.456 355.788C130.804 355.536 131.032 355.248 131.164 354.948V354.312C130.816 354.192 130.372 354.132 129.832 354.132C128.464 354.132 127.78 354.468 127.78 355.14C127.78 355.776 128.356 356.172 129.22 356.172ZM134.454 359.4H133.446V350.76H134.454V351.54C134.874 350.928 135.546 350.616 136.47 350.616C137.382 350.616 138.114 350.904 138.654 351.492C139.194 352.08 139.458 352.836 139.458 353.772C139.458 354.732 139.17 355.524 138.594 356.16C138.006 356.796 137.262 357.108 136.35 357.108C135.51 357.108 134.874 356.892 134.454 356.472V359.4ZM136.362 351.564C135.45 351.564 134.742 352.152 134.454 352.86V355.188C134.814 355.836 135.414 356.16 136.266 356.16C136.878 356.16 137.394 355.944 137.79 355.512C138.186 355.08 138.39 354.528 138.39 353.844C138.39 352.452 137.61 351.564 136.362 351.564ZM147.963 357H140.451V350.76H141.459V356.04H143.703V350.76H144.711V356.04H146.955V350.76H147.963V357ZM150.315 359.4H149.307V350.76H150.315V351.54C150.735 350.928 151.407 350.616 152.331 350.616C153.243 350.616 153.975 350.904 154.515 351.492C155.055 352.08 155.319 352.836 155.319 353.772C155.319 354.732 155.031 355.524 154.455 356.16C153.867 356.796 153.123 357.108 152.211 357.108C151.371 357.108 150.735 356.892 150.315 356.472V359.4ZM152.223 351.564C151.311 351.564 150.603 352.152 150.315 352.86V355.188C150.675 355.836 151.275 356.16 152.127 356.16C152.739 356.16 153.255 355.944 153.651 355.512C154.047 355.08 154.251 354.528 154.251 353.844C154.251 352.452 153.471 351.564 152.223 351.564ZM156.199 359.376L156.595 358.5C156.691 358.536 156.775 358.56 156.859 358.56C157.327 358.56 157.651 358.236 158.071 357.24L158.263 356.772L155.239 350.76H156.427L158.767 355.5L160.531 350.76H161.635L159.259 356.904C158.851 357.912 158.467 358.596 158.119 358.968C157.759 359.34 157.351 359.52 156.895 359.52C156.631 359.52 156.403 359.472 156.199 359.376ZM164.036 351.708H161.648V350.76H167.456V351.708H165.044V357H164.036V351.708ZM170.34 357H168.084V350.76H169.092V352.704H170.436C172.272 352.704 173.004 353.556 173.004 354.84C173.004 356.1 172.2 357 170.34 357ZM170.328 353.664H169.092V356.04H170.316C171.468 356.04 171.936 355.632 171.936 354.852C171.936 354.06 171.396 353.664 170.328 353.664ZM174.912 357H173.892V350.76H174.912V357Z" fill="#1A3341" fill-opacity="0.6"/>
<defs>
<linearGradient id="paint0_linear_4002_20363" x1="278" y1="115" x2="83.5" y2="365.5" gradientUnits="userSpaceOnUse">
<stop offset="0" stop-color="#43C3BB"/>
<stop offset="1" stop-color="#78CCD1"/>
</linearGradient>
<linearGradient id="paint1_linear_4002_20363" x1="163" y1="0.000183105" x2="266" y2="186.5" gradientUnits="userSpaceOnUse">
<stop offset="0" stop-color="#66CFF0"/>
<stop offset="1" stop-color="#A6E0F2"/>
</linearGradient>
<linearGradient id="paint2_linear_4002_20363" x1="5" y1="276" x2="9.47826" y2="284.109" gradientUnits="userSpaceOnUse">
<stop offset="0" stop-color="#66CFF0"/>
<stop offset="1" stop-color="#A6E0F2"/>
</linearGradient>
<linearGradient id="paint3_linear_4002_20363" x1="5" y1="300" x2="10.8956" y2="305.521" gradientUnits="userSpaceOnUse">
<stop offset="0" stop-color="#43C3BB"/>
<stop offset="1" stop-color="#78CCD1"/>
</linearGradient>
</defs>
</svg>
