<svg width="545" height="265" viewBox="0 0 545 265" fill="none" xmlns="http://www.w3.org/2000/svg">
<path d="M81.384 151.979H73.4861V149.359H84.0431V159.44C82.8922 160.67 81.3046 161.663 79.3599 162.377C77.4152 163.131 75.4308 163.488 73.4464 163.488C69.2395 163.488 65.7866 162.178 63.0879 159.559C60.3494 156.979 59 153.526 59 149.24C59 145.232 60.3494 141.858 63.0879 139.12C65.8263 136.381 69.1601 134.992 73.1289 134.992C77.6137 134.992 81.0268 136.342 83.3684 139.001L81.7015 140.866C79.7171 138.683 76.939 137.612 73.367 137.612C69.9936 137.612 67.2154 138.683 65.1119 140.866C62.9688 143.049 61.8972 145.827 61.8972 149.24C61.8972 152.772 62.9688 155.59 65.1516 157.694C67.3345 159.797 70.1126 160.869 73.5258 160.869C76.6215 160.869 79.2409 159.956 81.384 158.17V151.979Z" fill="#1A3341"/>
<path d="M102.535 168.801H100.987V156.895H109.458V158.34H102.535V168.801Z" fill="#1A3341"/>
<path d="M98.637 168.801H97.0892V158.34H90.0644V168.801H88.5166V156.895H98.637V168.801Z" fill="#1A3341"/>
<path d="M182.818 124.066V134.782H180V107H190.001C197.502 107 201.273 109.818 201.273 115.493C201.273 117.954 200.36 119.978 198.574 121.605C196.748 123.232 193.891 124.066 189.962 124.066H182.818ZM190.2 109.58H182.818V121.486H189.882C195.597 121.486 198.376 119.224 198.376 115.454C198.376 111.524 195.637 109.58 190.2 109.58Z" fill="#1A3341"/>
<path d="M224.878 136.063V140.451H223.33V128.545H227.957C231.205 128.545 232.838 129.787 232.838 132.287C232.838 133.359 232.447 134.26 231.665 134.974C230.865 135.706 229.623 136.063 227.94 136.063H224.878ZM228.025 129.991H224.878V134.634H227.906C230.151 134.634 231.239 133.75 231.239 132.27C231.239 130.756 230.168 129.991 228.025 129.991Z" fill="#1A3341"/>
<path d="M220.026 135.094H213.817V133.648H220.009C219.737 131.318 218.087 129.838 215.518 129.838C214.158 129.838 212.593 130.553 211.708 131.658L210.671 130.672C211.759 129.226 213.715 128.393 215.62 128.393C217.474 128.393 218.937 128.937 220.009 130.025C221.08 131.114 221.608 132.594 221.608 134.448C221.608 136.268 221.063 137.748 219.975 138.887C218.886 140.027 217.389 140.605 215.484 140.605C213.63 140.605 211.742 139.874 210.637 138.326L211.691 137.441C212.491 138.53 214.056 139.159 215.569 139.159C216.828 139.159 217.866 138.785 218.665 138.037C219.464 137.288 219.924 136.302 220.026 135.094Z" fill="#1A3341"/>
<path d="M204.836 129.991H200.703V128.545H210.534V129.991H206.384V140.451H204.836V129.991Z" fill="#1A3341"/>
<path d="M292.405 134.782H289.588V121.962H271.728V134.782H268.91V107H271.728V119.343H289.588V107H292.405V134.782Z" fill="#1A3341"/>
<path d="M310.919 140.451H309.371V128.545H310.8L315.324 134.532L319.696 128.545H321.09V140.451H319.543V131.215L315.477 136.692H315.103L310.919 131.215V140.451Z" fill="#1A3341"/>
<path d="M299.844 140.451H298.296V128.545H299.844V134.294L305.865 128.545H307.889L302.276 133.937L308.297 140.451H306.256L301.119 134.957L299.844 136.182V140.451Z" fill="#1A3341"/>
<path d="M265.944 183.258C265.944 179.249 267.294 175.836 270.032 173.098C272.731 170.359 276.065 169.01 279.994 169.01C283.923 169.01 287.257 170.359 289.956 173.058C292.654 175.757 294.004 179.17 294.004 183.258C294.004 187.306 292.456 190.878 289.4 193.934L292.297 197.387L290.432 198.974L287.416 195.402C285.193 196.791 282.732 197.506 279.994 197.506C276.025 197.506 272.691 196.156 269.993 193.458C267.294 190.798 265.944 187.385 265.944 183.258ZM268.842 183.258C268.842 186.552 269.913 189.33 272.096 191.553C274.279 193.775 276.898 194.886 279.994 194.886C281.978 194.886 283.883 194.331 285.749 193.259L283.248 190.243L285.034 188.616L287.654 191.791C289.956 189.528 291.107 186.711 291.107 183.258C291.107 179.924 290.035 177.146 287.892 174.923C285.709 172.74 283.09 171.629 279.994 171.629C276.859 171.629 274.239 172.74 272.096 174.923C269.913 177.146 268.842 179.924 268.842 183.258Z" fill="#1A3341"/>
<path d="M320.057 202.819V190.912H321.604V196.916L327.626 190.912H329.65L324.071 196.559L330.058 202.819H327.983L322.625 197.325L321.604 198.243V202.819H320.057Z" fill="#1A3341"/>
<path d="M308.631 192.358V190.912H318.462V192.358H314.312V202.819H312.764V192.358H308.631Z" fill="#1A3341"/>
<path d="M298.67 202.819V190.912H300.218V196.916L306.239 190.912H308.263L302.684 196.559L308.671 202.819H306.596L301.238 197.325L300.218 198.243V202.819H298.67Z" fill="#1A3341"/>
<path d="M248.055 120.027L249.05 119.014L251.537 121.501L254.025 119.014L255.02 120.027L252.532 122.496L255.02 124.984L254.025 125.997L251.537 123.491L249.05 125.997L248.055 124.984L250.561 122.496L248.055 120.027Z" fill="#1A3341"/>
<path d="M335.936 120.027L336.931 119.014L339.418 121.501L341.906 119.014L342.901 120.027L340.413 122.496L342.901 124.984L341.906 125.997L339.418 123.491L336.931 125.997L335.936 124.984L338.442 122.496L335.936 120.027Z" fill="#1A3341"/>
<path d="M359.609 134.782H356.791V107H359.609V121.208L374.73 107H378.421L364.967 119.66L379.453 134.782H375.603L362.943 121.526L359.609 124.582V134.782Z" fill="#1A3341"/>
<path d="M410.811 137.305L409.824 136.744C410.283 135.655 411.44 134.924 412.75 134.924C414.332 134.924 415.335 135.723 415.335 136.999C415.335 138.207 414.57 139.295 413.022 140.265L411.967 140.945H415.641V142.153H409.858V141.098L411.542 140.01C413.09 138.989 413.991 138.156 413.991 137.254C413.991 136.506 413.549 136.131 412.682 136.131C411.865 136.131 411.236 136.523 410.811 137.305Z" fill="#1A3341"/>
<path d="M396.622 134.499C396.622 132.781 397.2 131.318 398.374 130.145C399.548 128.971 400.976 128.393 402.677 128.393C404.361 128.393 405.79 128.971 406.964 130.128C408.137 131.284 408.716 132.747 408.716 134.499C408.716 136.234 408.137 137.68 406.964 138.853C405.79 140.027 404.361 140.605 402.677 140.605C400.976 140.605 399.548 140.027 398.374 138.87C397.2 137.714 396.622 136.251 396.622 134.499ZM398.238 134.499C398.238 135.826 398.68 136.931 399.548 137.799C400.415 138.683 401.453 139.125 402.677 139.125C403.936 139.125 404.991 138.683 405.841 137.816C406.674 136.948 407.1 135.843 407.1 134.499C407.1 133.155 406.674 132.05 405.807 131.182C404.94 130.315 403.885 129.872 402.677 129.872C401.436 129.872 400.398 130.315 399.531 131.182C398.663 132.05 398.238 133.155 398.238 134.499Z" fill="#1A3341"/>
<path d="M395.413 137.526L396.297 138.513C395.396 139.789 393.593 140.605 391.671 140.605C389.8 140.605 388.303 140.044 387.197 138.938C386.092 137.833 385.53 136.353 385.53 134.499C385.53 132.747 386.092 131.301 387.197 130.128C388.303 128.971 389.749 128.393 391.552 128.393C393.593 128.393 395.259 129.209 396.127 130.366L395.123 131.335C394.154 130.366 392.963 129.872 391.586 129.872C390.208 129.872 389.136 130.298 388.337 131.148C387.537 131.999 387.146 133.121 387.146 134.499C387.146 135.894 387.571 137.016 388.422 137.85C389.272 138.7 390.395 139.125 391.773 139.125C393.252 139.125 394.46 138.598 395.413 137.526Z" fill="#1A3341"/>
<path d="M132.198 169.927H128.576V169.083H132.188C132.029 167.724 131.067 166.861 129.568 166.861C128.775 166.861 127.862 167.278 127.346 167.923L126.741 167.347C127.376 166.504 128.517 166.018 129.628 166.018C130.709 166.018 131.563 166.335 132.188 166.97C132.813 167.605 133.12 168.468 133.12 169.55C133.12 170.611 132.803 171.475 132.168 172.139C131.533 172.804 130.66 173.142 129.548 173.142C128.467 173.142 127.366 172.715 126.721 171.812L127.336 171.296C127.802 171.931 128.715 172.298 129.598 172.298C130.332 172.298 130.938 172.08 131.404 171.643C131.87 171.207 132.138 170.631 132.198 169.927Z" fill="#1A3341"/>
<path d="M123.225 173.202H122.322V172.359H122.272C121.201 172.359 120.357 172.101 119.742 171.575C119.117 171.059 118.81 170.364 118.81 169.481C118.81 168.559 119.127 167.854 119.772 167.348C120.407 166.852 121.26 166.604 122.322 166.604V165.959H123.225V166.604C124.237 166.604 125.08 166.852 125.745 167.348C126.41 167.844 126.737 168.559 126.737 169.481C126.737 170.364 126.43 171.059 125.805 171.575C125.179 172.101 124.336 172.359 123.274 172.359H123.225V173.202ZM123.245 167.437H123.225V171.525H123.274C124.862 171.525 125.805 170.791 125.805 169.481C125.805 168.182 124.922 167.437 123.245 167.437ZM119.742 169.481C119.742 170.722 120.665 171.525 122.282 171.525H122.322V167.437C120.764 167.437 119.742 168.132 119.742 169.481Z" fill="#1A3341"/>
<path d="M112.218 174.323H111.354V172.209H112.089C112.525 171.525 113.011 169.808 113.011 166.951V166.107H117.705V172.209H118.578V174.323H117.714V173.053H112.218V174.323ZM116.802 166.951H113.875V167.596C113.875 168.439 113.795 169.312 113.637 170.215C113.468 171.118 113.279 171.783 113.061 172.209H116.802V166.951Z" fill="#1A3341"/>
<path d="M160.221 152.21H142.48V149.908H160.221V152.21ZM160.221 159.156H142.48V156.854H160.221V159.156Z" fill="#1A3341"/>
<path fill-rule="evenodd" clip-rule="evenodd" d="M418.936 154.626L179.391 154.626L179.391 153.209L418.936 153.209L418.936 154.626Z" fill="#ABBEC9"/>
<path d="M14.872 241H11.814V233.3H14.927C16.896 233.3 17.644 234.015 17.644 235.214C17.644 236.072 17.281 236.655 16.555 236.974C17.402 237.15 17.919 237.799 17.919 238.8C17.919 240.307 16.797 241 14.872 241ZM14.971 237.524H12.815V240.065H14.861C16.258 240.065 16.885 239.658 16.885 238.745C16.885 237.931 16.247 237.524 14.971 237.524ZM14.839 234.235H12.815V236.611H15.004C15.983 236.611 16.621 236.171 16.621 235.423C16.621 234.598 16.148 234.235 14.839 234.235ZM21.1404 241H19.0724V235.28H19.9964V237.062H21.2284C22.9114 237.062 23.5824 237.843 23.5824 239.02C23.5824 240.175 22.8454 241 21.1404 241ZM21.1294 237.942H19.9964V240.12H21.1184C22.1744 240.12 22.6034 239.746 22.6034 239.031C22.6034 238.305 22.1084 237.942 21.1294 237.942ZM25.3314 241H24.3964V235.28H25.3314V241ZM31.5511 232.827L31.7161 233.674C31.3971 233.795 30.8911 233.894 30.1761 233.971C29.4611 234.048 28.9661 234.158 28.6911 234.29C27.8661 234.697 27.3821 235.456 27.2611 236.578L27.3051 236.589C27.7781 235.841 28.5481 235.467 29.6041 235.467C30.4071 235.467 31.0561 235.709 31.5511 236.182C32.0461 236.666 32.2881 237.337 32.2881 238.184C32.2881 239.009 32.0131 239.702 31.4741 240.263C30.9351 240.824 30.2311 241.11 29.3841 241.11C27.5251 241.11 26.3701 239.867 26.3701 237.678C26.3701 236.578 26.5131 235.698 26.7991 235.027C27.0741 234.367 27.5801 233.85 28.2951 233.487C28.6801 233.3 29.2521 233.157 30.0111 233.08C30.7701 233.003 31.2871 232.915 31.5511 232.827ZM27.3491 237.843V237.92C27.3491 238.624 27.5361 239.185 27.9211 239.603C28.2951 240.021 28.7791 240.23 29.3731 240.23C29.9561 240.23 30.4181 240.043 30.7811 239.658C31.1331 239.284 31.3091 238.811 31.3091 238.239C31.3091 237.084 30.6271 236.347 29.4061 236.347C28.3501 236.347 27.5801 237.018 27.3491 237.843ZM34.2298 243.2H33.3058V235.28H34.2298V235.995C34.6148 235.434 35.2308 235.148 36.0778 235.148C36.9138 235.148 37.5848 235.412 38.0798 235.951C38.5748 236.49 38.8168 237.183 38.8168 238.041C38.8168 238.921 38.5528 239.647 38.0248 240.23C37.4858 240.813 36.8038 241.099 35.9678 241.099C35.1978 241.099 34.6148 240.901 34.2298 240.516V243.2ZM35.9788 236.017C35.1428 236.017 34.4938 236.556 34.2298 237.205V239.339C34.5598 239.933 35.1098 240.23 35.8908 240.23C36.4518 240.23 36.9248 240.032 37.2878 239.636C37.6508 239.24 37.8378 238.734 37.8378 238.107C37.8378 236.831 37.1228 236.017 35.9788 236.017ZM39.518 238.129C39.518 237.26 39.804 236.545 40.365 235.984C40.926 235.423 41.652 235.148 42.543 235.148C43.445 235.148 44.182 235.423 44.743 235.984C45.304 236.545 45.59 237.26 45.59 238.129C45.59 238.998 45.304 239.702 44.743 240.263C44.171 240.824 43.434 241.099 42.543 241.099C41.652 241.099 40.926 240.824 40.365 240.263C39.804 239.702 39.518 238.998 39.518 238.129ZM40.497 238.129C40.497 238.734 40.684 239.24 41.069 239.636C41.454 240.032 41.938 240.23 42.543 240.23C43.148 240.23 43.654 240.032 44.039 239.647C44.424 239.262 44.611 238.756 44.611 238.129C44.611 237.502 44.413 236.996 44.028 236.6C43.632 236.215 43.137 236.017 42.543 236.017C41.949 236.017 41.465 236.215 41.08 236.6C40.695 236.985 40.497 237.502 40.497 238.129ZM51.0483 239.35L51.7083 239.823C51.2793 240.626 50.3113 241.099 49.3543 241.099C48.4413 241.099 47.7043 240.824 47.1433 240.285C46.5823 239.746 46.2963 239.031 46.2963 238.129C46.2963 237.271 46.5713 236.556 47.1323 235.995C47.6933 235.434 48.4083 235.148 49.2993 235.148C50.3223 235.148 51.2353 235.61 51.6203 236.314L50.9053 236.798C50.5203 236.281 49.9923 236.017 49.3213 236.017C48.7273 236.017 48.2433 236.215 47.8583 236.611C47.4733 237.007 47.2753 237.513 47.2753 238.129C47.2753 238.756 47.4733 239.262 47.8803 239.647C48.2763 240.032 48.7933 240.23 49.4423 240.23C50.1243 240.23 50.6633 239.933 51.0483 239.35ZM54.5378 241H52.4698V235.28H53.3938V237.062H54.6258C56.3088 237.062 56.9798 237.843 56.9798 239.02C56.9798 240.175 56.2428 241 54.5378 241ZM54.5268 237.942H53.3938V240.12H54.5158C55.5718 240.12 56.0008 239.746 56.0008 239.031C56.0008 238.305 55.5058 237.942 54.5268 237.942ZM58.7288 241H57.7938V235.28H58.7288V241ZM68.4444 241H67.5204V236.149H64.2864V241H63.3624V235.28H68.4444V241ZM70.2262 236.655L69.7532 235.962C70.2812 235.467 71.1942 235.148 72.0412 235.148C73.5702 235.148 74.3842 235.984 74.3842 237.469V241H73.4602V240.153C73.0972 240.681 72.3822 241.077 71.4582 241.077C70.2152 241.077 69.3792 240.384 69.3792 239.328C69.3792 238.129 70.4022 237.557 72.1182 237.557C72.6572 237.557 73.0972 237.612 73.4602 237.722C73.4602 236.611 73.0642 236.017 71.9312 236.017C71.3592 236.017 70.7872 236.226 70.2262 236.655ZM71.6782 240.241C72.1072 240.241 72.4922 240.12 72.8112 239.889C73.1302 239.658 73.3392 239.394 73.4602 239.119V238.536C73.1412 238.426 72.7342 238.371 72.2392 238.371C70.9852 238.371 70.3582 238.679 70.3582 239.295C70.3582 239.878 70.8862 240.241 71.6782 240.241ZM76.5862 243.2H75.6622V235.28H76.5862V235.995C76.9712 235.434 77.5872 235.148 78.4342 235.148C79.2702 235.148 79.9412 235.412 80.4362 235.951C80.9312 236.49 81.1732 237.183 81.1732 238.041C81.1732 238.921 80.9092 239.647 80.3812 240.23C79.8422 240.813 79.1602 241.099 78.3242 241.099C77.5542 241.099 76.9712 240.901 76.5862 240.516V243.2ZM78.3352 236.017C77.4992 236.017 76.8502 236.556 76.5862 237.205V239.339C76.9162 239.933 77.4662 240.23 78.2472 240.23C78.8082 240.23 79.2812 240.032 79.6442 239.636C80.0072 239.24 80.1942 238.734 80.1942 238.107C80.1942 236.831 79.4792 236.017 78.3352 236.017ZM87.3415 241H86.4175V238.525H83.1175V241H82.1935V235.28H83.1175V237.656H86.4175V235.28H87.3415V241ZM93.0157 236.721L89.5287 241H88.6817V235.28H89.6057V239.57L93.0817 235.28H93.9397V241H93.0157V236.721ZM96.2014 241H95.2774V235.28H96.2014V237.843L99.0944 235.28H100.337L97.3784 237.909L100.48 241H99.2484L96.6744 238.481L96.2014 238.921V241ZM100.308 238.129C100.308 237.26 100.594 236.545 101.155 235.984C101.716 235.423 102.442 235.148 103.333 235.148C104.235 235.148 104.972 235.423 105.533 235.984C106.094 236.545 106.38 237.26 106.38 238.129C106.38 238.998 106.094 239.702 105.533 240.263C104.961 240.824 104.224 241.099 103.333 241.099C102.442 241.099 101.716 240.824 101.155 240.263C100.594 239.702 100.308 238.998 100.308 238.129ZM101.287 238.129C101.287 238.734 101.474 239.24 101.859 239.636C102.244 240.032 102.728 240.23 103.333 240.23C103.938 240.23 104.444 240.032 104.829 239.647C105.214 239.262 105.401 238.756 105.401 238.129C105.401 237.502 105.203 236.996 104.818 236.6C104.422 236.215 103.927 236.017 103.333 236.017C102.739 236.017 102.255 236.215 101.87 236.6C101.485 236.985 101.287 237.502 101.287 238.129ZM109.957 241H107.405V235.28H109.781C111.376 235.28 112.124 235.687 112.124 236.743C112.124 237.271 111.882 237.689 111.387 237.986C112.003 238.173 112.311 238.624 112.311 239.361C112.311 240.428 111.464 241 109.957 241ZM109.968 238.503H108.329V240.142H109.858C110.837 240.142 111.332 239.867 111.332 239.317C111.332 238.778 110.881 238.503 109.968 238.503ZM109.748 236.138H108.329V237.667H110.067C110.738 237.667 111.145 237.392 111.145 236.875C111.145 236.292 110.672 236.138 109.748 236.138ZM115.414 241H113.346V235.28H114.27V237.062H115.502C117.185 237.062 117.856 237.843 117.856 239.02C117.856 240.175 117.119 241 115.414 241ZM115.403 237.942H114.27V240.12H115.392C116.448 240.12 116.877 239.746 116.877 239.031C116.877 238.305 116.382 237.942 115.403 237.942ZM119.605 241H118.67V235.28H119.605V241ZM124.89 235.28H126.012L123.823 238.041L126.122 241H124.967L123.196 238.701L121.403 241H120.303L122.591 238.052L120.424 235.28H121.579L123.229 237.381L124.89 235.28ZM12.595 257H11.671V251.28H15.84V252.149H12.595V257ZM16.7839 252.655L16.3109 251.962C16.8389 251.467 17.7519 251.148 18.5989 251.148C20.1279 251.148 20.9419 251.984 20.9419 253.469V257H20.0179V256.153C19.6549 256.681 18.9399 257.077 18.0159 257.077C16.7729 257.077 15.9369 256.384 15.9369 255.328C15.9369 254.129 16.9599 253.557 18.6759 253.557C19.2149 253.557 19.6549 253.612 20.0179 253.722C20.0179 252.611 19.6219 252.017 18.4889 252.017C17.9169 252.017 17.3449 252.226 16.7839 252.655ZM18.2359 256.241C18.6649 256.241 19.0499 256.12 19.3689 255.889C19.6879 255.658 19.8969 255.394 20.0179 255.119V254.536C19.6989 254.426 19.2919 254.371 18.7969 254.371C17.5429 254.371 16.9159 254.679 16.9159 255.295C16.9159 255.878 17.4439 256.241 18.2359 256.241ZM24.2878 257.11C23.1108 257.11 22.2418 256.67 21.7028 255.801L22.4288 255.295C22.7478 255.878 23.4518 256.252 24.2988 256.252C25.2118 256.252 25.8608 255.878 25.8608 255.262C25.8608 254.756 25.4758 254.503 24.7168 254.503H23.3748V253.667H24.6508C25.2118 253.667 25.6518 253.337 25.6518 252.842C25.6518 252.303 25.0798 251.995 24.2548 251.995C23.5618 251.995 22.9898 252.259 22.5608 252.798L21.8788 252.347C22.2638 251.687 23.1438 251.137 24.3428 251.137C25.7838 251.137 26.6308 251.742 26.6308 252.699C26.6308 253.238 26.3998 253.656 25.9488 253.931C26.6088 254.25 26.8398 254.635 26.8398 255.24C26.8398 255.823 26.5978 256.274 26.1248 256.604C25.6518 256.945 25.0358 257.11 24.2878 257.11ZM27.5512 254.129C27.5512 253.26 27.8372 252.545 28.3982 251.984C28.9592 251.423 29.6852 251.148 30.5762 251.148C31.4782 251.148 32.2152 251.423 32.7762 251.984C33.3372 252.545 33.6232 253.26 33.6232 254.129C33.6232 254.998 33.3372 255.702 32.7762 256.263C32.2042 256.824 31.4672 257.099 30.5762 257.099C29.6852 257.099 28.9592 256.824 28.3982 256.263C27.8372 255.702 27.5512 254.998 27.5512 254.129ZM28.5302 254.129C28.5302 254.734 28.7172 255.24 29.1022 255.636C29.4872 256.032 29.9712 256.23 30.5762 256.23C31.1812 256.23 31.6872 256.032 32.0722 255.647C32.4572 255.262 32.6442 254.756 32.6442 254.129C32.6442 253.502 32.4462 252.996 32.0612 252.6C31.6652 252.215 31.1702 252.017 30.5762 252.017C29.9822 252.017 29.4982 252.215 29.1132 252.6C28.7282 252.985 28.5302 253.502 28.5302 254.129ZM37.2005 257H34.6485V251.28H37.0245C38.6195 251.28 39.3675 251.687 39.3675 252.743C39.3675 253.271 39.1255 253.689 38.6305 253.986C39.2465 254.173 39.5545 254.624 39.5545 255.361C39.5545 256.428 38.7075 257 37.2005 257ZM37.2115 254.503H35.5725V256.142H37.1015C38.0805 256.142 38.5755 255.867 38.5755 255.317C38.5755 254.778 38.1245 254.503 37.2115 254.503ZM36.9915 252.138H35.5725V253.667H37.3105C37.9815 253.667 38.3885 253.392 38.3885 252.875C38.3885 252.292 37.9155 252.138 36.9915 252.138ZM43.6558 259.255L42.8418 258.947L46.4938 249.157L47.3078 249.421L43.6558 259.255ZM51.1875 258.408H50.2305V256.065H51.0445C51.5285 255.306 52.0675 253.403 52.0675 250.235V249.3H57.2705V256.065H58.2385V258.408H57.2815V257H51.1875V258.408ZM56.2695 250.235H53.0245V250.95C53.0245 251.885 52.9365 252.853 52.7605 253.854C52.5735 254.855 52.3645 255.592 52.1225 256.065H56.2695V250.235ZM63.5009 257.165H62.4999V256.23H62.4449C61.2569 256.23 60.3219 255.944 59.6399 255.361C58.9469 254.789 58.6059 254.019 58.6059 253.04C58.6059 252.017 58.9579 251.236 59.6729 250.675C60.3769 250.125 61.3229 249.85 62.4999 249.85V249.135H63.5009V249.85C64.6229 249.85 65.5579 250.125 66.2949 250.675C67.0319 251.225 67.3949 252.017 67.3949 253.04C67.3949 254.019 67.0539 254.789 66.3609 255.361C65.6679 255.944 64.7329 256.23 63.5559 256.23H63.5009V257.165ZM63.5229 250.774H63.5009V255.306H63.5559C65.3159 255.306 66.3609 254.492 66.3609 253.04C66.3609 251.599 65.3819 250.774 63.5229 250.774ZM59.6399 253.04C59.6399 254.415 60.6629 255.306 62.4559 255.306H62.4999V250.774C60.7729 250.774 59.6399 251.544 59.6399 253.04ZM73.558 253.535H69.543V252.6H73.547C73.371 251.093 72.304 250.136 70.643 250.136C69.763 250.136 68.751 250.598 68.179 251.313L67.508 250.675C68.212 249.74 69.477 249.201 70.709 249.201C71.908 249.201 72.854 249.553 73.547 250.257C74.24 250.961 74.581 251.918 74.581 253.117C74.581 254.294 74.229 255.251 73.525 255.988C72.821 256.725 71.853 257.099 70.621 257.099C69.422 257.099 68.201 256.626 67.486 255.625L68.168 255.053C68.685 255.757 69.697 256.164 70.676 256.164C71.49 256.164 72.161 255.922 72.678 255.438C73.195 254.954 73.492 254.316 73.558 253.535ZM81.6551 258.606L81.0281 259.244C80.2141 258.54 79.6201 257.737 79.2461 256.835C78.8721 255.933 78.6851 255.042 78.6851 254.151C78.6851 252.391 79.3781 250.532 81.0391 249.047L81.6441 249.685C80.3021 250.939 79.6311 252.424 79.6311 254.151C79.6311 255.79 80.3791 257.374 81.6551 258.606ZM83.3645 257H82.4405V251.28H83.3645V253.843L86.2575 251.28H87.5005L84.5415 253.909L87.6435 257H86.4115L83.8375 254.481L83.3645 254.921V257ZM89.1546 257H88.2306V251.28H92.3996V252.149H89.1546V257ZM102.511 255.108L103.083 255.746C102.5 256.571 101.334 257.099 100.091 257.099C98.8806 257.099 97.9126 256.736 97.1976 256.021C96.4826 255.306 96.1196 254.349 96.1196 253.15C96.1196 252.017 96.4826 251.082 97.1976 250.323C97.9126 249.575 98.8476 249.201 100.014 249.201C101.334 249.201 102.412 249.729 102.973 250.477L102.324 251.104C101.697 250.477 100.927 250.158 100.036 250.158C99.1446 250.158 98.4516 250.433 97.9346 250.983C97.4176 251.533 97.1646 252.259 97.1646 253.15C97.1646 254.052 97.4396 254.778 97.9896 255.317C98.5396 255.867 99.2656 256.142 100.157 256.142C101.114 256.142 101.895 255.801 102.511 255.108ZM103.403 253.15C103.403 252.039 103.777 251.093 104.536 250.334C105.295 249.575 106.219 249.201 107.319 249.201C108.408 249.201 109.332 249.575 110.091 250.323C110.85 251.071 111.224 252.017 111.224 253.15C111.224 254.272 110.85 255.207 110.091 255.966C109.332 256.725 108.408 257.099 107.319 257.099C106.219 257.099 105.295 256.725 104.536 255.977C103.777 255.229 103.403 254.283 103.403 253.15ZM104.448 253.15C104.448 254.008 104.734 254.723 105.295 255.284C105.856 255.856 106.527 256.142 107.319 256.142C108.133 256.142 108.815 255.856 109.365 255.295C109.904 254.734 110.179 254.019 110.179 253.15C110.179 252.281 109.904 251.566 109.343 251.005C108.782 250.444 108.1 250.158 107.319 250.158C106.516 250.158 105.845 250.444 105.284 251.005C104.723 251.566 104.448 252.281 104.448 253.15ZM112.689 254.965L112.051 254.602C112.348 253.898 113.096 253.425 113.943 253.425C114.966 253.425 115.615 253.942 115.615 254.767C115.615 255.548 115.12 256.252 114.119 256.879L113.437 257.319H115.813V258.1H112.073V257.418L113.162 256.714C114.163 256.054 114.746 255.515 114.746 254.932C114.746 254.448 114.46 254.206 113.899 254.206C113.371 254.206 112.964 254.459 112.689 254.965ZM116.946 259.233L116.319 258.628C116.979 258.045 117.485 257.363 117.826 256.549C118.167 255.746 118.332 254.954 118.332 254.151C118.332 252.424 117.661 250.939 116.319 249.696L116.935 249.047C118.596 250.532 119.278 252.391 119.278 254.151C119.278 255.042 119.091 255.933 118.728 256.835C118.354 257.737 117.76 258.54 116.946 259.233Z" fill="#3C525E"/>
<path d="M52.4683 8.162V11H51.4673V3.3H54.4593C56.5603 3.3 57.6163 4.103 57.6163 5.72C57.6163 6.413 57.3633 6.996 56.8573 7.458C56.3403 7.931 55.5373 8.162 54.4483 8.162H52.4683ZM54.5033 4.235H52.4683V7.238H54.4263C55.8783 7.238 56.5823 6.666 56.5823 5.709C56.5823 4.73 55.8893 4.235 54.5033 4.235ZM59.0583 6.655L58.5853 5.962C59.1133 5.467 60.0263 5.148 60.8733 5.148C62.4023 5.148 63.2163 5.984 63.2163 7.469V11H62.2923V10.153C61.9293 10.681 61.2143 11.077 60.2903 11.077C59.0473 11.077 58.2113 10.384 58.2113 9.328C58.2113 8.129 59.2343 7.557 60.9503 7.557C61.4893 7.557 61.9293 7.612 62.2923 7.722C62.2923 6.611 61.8963 6.017 60.7633 6.017C60.1913 6.017 59.6193 6.226 59.0583 6.655ZM60.5103 10.241C60.9393 10.241 61.3243 10.12 61.6433 9.889C61.9623 9.658 62.1713 9.394 62.2923 9.119V8.536C61.9733 8.426 61.5663 8.371 61.0713 8.371C59.8173 8.371 59.1903 8.679 59.1903 9.295C59.1903 9.878 59.7183 10.241 60.5103 10.241ZM68.9272 9.35L69.5872 9.823C69.1582 10.626 68.1902 11.099 67.2332 11.099C66.3202 11.099 65.5832 10.824 65.0222 10.285C64.4612 9.746 64.1752 9.031 64.1752 8.129C64.1752 7.271 64.4502 6.556 65.0112 5.995C65.5722 5.434 66.2872 5.148 67.1782 5.148C68.2012 5.148 69.1142 5.61 69.4992 6.314L68.7842 6.798C68.3992 6.281 67.8712 6.017 67.2002 6.017C66.6062 6.017 66.1222 6.215 65.7372 6.611C65.3522 7.007 65.1542 7.513 65.1542 8.129C65.1542 8.756 65.3522 9.262 65.7592 9.647C66.1552 10.032 66.6722 10.23 67.3212 10.23C68.0032 10.23 68.5422 9.933 68.9272 9.35ZM74.2333 5.28H75.3553L73.1663 8.041L75.4653 11H74.3103L72.5393 8.701L70.7463 11H69.6463L71.9343 8.052L69.7673 5.28H70.9223L72.5723 7.381L74.2333 5.28ZM75.4331 8.129C75.4331 7.26 75.7191 6.545 76.2801 5.984C76.8411 5.423 77.5671 5.148 78.4581 5.148C79.3601 5.148 80.0971 5.423 80.6581 5.984C81.2191 6.545 81.5051 7.26 81.5051 8.129C81.5051 8.998 81.2191 9.702 80.6581 10.263C80.0861 10.824 79.3491 11.099 78.4581 11.099C77.5671 11.099 76.8411 10.824 76.2801 10.263C75.7191 9.702 75.4331 8.998 75.4331 8.129ZM76.4121 8.129C76.4121 8.734 76.5991 9.24 76.9841 9.636C77.3691 10.032 77.8531 10.23 78.4581 10.23C79.0631 10.23 79.5691 10.032 79.9541 9.647C80.3391 9.262 80.5261 8.756 80.5261 8.129C80.5261 7.502 80.3281 6.996 79.9431 6.6C79.5471 6.215 79.0521 6.017 78.4581 6.017C77.8641 6.017 77.3801 6.215 76.9951 6.6C76.6101 6.985 76.4121 7.502 76.4121 8.129ZM82.5148 12.386H81.6348V10.12H82.2728C82.8558 9.229 83.0758 7.975 83.0758 5.808V5.28H87.2778V10.12H88.1028V12.386H87.2228V11H82.5148V12.386ZM86.3538 6.16H83.9448V6.556C83.9448 8.019 83.7138 9.207 83.2628 10.12H86.3538V6.16ZM94.2333 4.235H91.5603V3.3H97.9183V4.235H95.2343V11H94.2333V4.235ZM104.166 7.535H100.151V6.6H104.155C103.979 5.093 102.912 4.136 101.251 4.136C100.371 4.136 99.3594 4.598 98.7874 5.313L98.1164 4.675C98.8204 3.74 100.085 3.201 101.317 3.201C102.516 3.201 103.462 3.553 104.155 4.257C104.848 4.961 105.189 5.918 105.189 7.117C105.189 8.294 104.837 9.251 104.133 9.988C103.429 10.725 102.461 11.099 101.229 11.099C100.03 11.099 98.8094 10.626 98.0944 9.625L98.7764 9.053C99.2934 9.757 100.305 10.164 101.284 10.164C102.098 10.164 102.769 9.922 103.286 9.438C103.803 8.954 104.1 8.316 104.166 7.535ZM107.415 8.162V11H106.414V3.3H109.406C111.507 3.3 112.563 4.103 112.563 5.72C112.563 6.413 112.31 6.996 111.804 7.458C111.287 7.931 110.484 8.162 109.395 8.162H107.415ZM109.45 4.235H107.415V7.238H109.373C110.825 7.238 111.529 6.666 111.529 5.709C111.529 4.73 110.836 4.235 109.45 4.235ZM122.01 11H121.086V8.525H117.786V11H116.862V5.28H117.786V7.656H121.086V5.28H122.01V11ZM123.791 6.655L123.318 5.962C123.846 5.467 124.759 5.148 125.606 5.148C127.135 5.148 127.949 5.984 127.949 7.469V11H127.025V10.153C126.662 10.681 125.947 11.077 125.023 11.077C123.78 11.077 122.944 10.384 122.944 9.328C122.944 8.129 123.967 7.557 125.683 7.557C126.222 7.557 126.662 7.612 127.025 7.722C127.025 6.611 126.629 6.017 125.496 6.017C124.924 6.017 124.352 6.226 123.791 6.655ZM125.243 10.241C125.672 10.241 126.057 10.12 126.376 9.889C126.695 9.658 126.904 9.394 127.025 9.119V8.536C126.706 8.426 126.299 8.371 125.804 8.371C124.55 8.371 123.923 8.679 123.923 9.295C123.923 9.878 124.451 10.241 125.243 10.241ZM132.239 5.346L131.887 4.521L134.527 3.256H135.154V11H134.208V4.433L132.239 5.346ZM141.086 11H140.162V5.28H141.086V7.843L143.979 5.28H145.222L142.263 7.909L145.365 11H144.133L141.559 8.481L141.086 8.921V11ZM146.876 11H145.952V5.28H146.799L148.911 8.074L150.968 5.28H151.76V11H150.836V6.908L148.9 9.548L146.876 6.908V11ZM161.486 11H160.562V6.149H157.328V11H156.404V5.28H161.486V11ZM162.96 13.178L163.323 12.375C163.411 12.408 163.488 12.43 163.565 12.43C163.994 12.43 164.291 12.133 164.676 11.22L164.852 10.791L162.08 5.28H163.169L165.314 9.625L166.931 5.28H167.943L165.765 10.912C165.391 11.836 165.039 12.463 164.72 12.804C164.39 13.145 164.016 13.31 163.598 13.31C163.356 13.31 163.147 13.266 162.96 13.178ZM170.255 6.149H168.066V5.28H173.39V6.149H171.179V11H170.255V6.149ZM178.409 6.721L174.922 11H174.075V5.28H174.999V9.57L178.475 5.28H179.333V11H178.409V6.721Z" fill="#1A3341"/>
<path d="M75.5896 28.606L74.9626 29.244C74.1486 28.54 73.5546 27.737 73.1806 26.835C72.8066 25.933 72.6196 25.042 72.6196 24.151C72.6196 22.391 73.3126 20.532 74.9736 19.047L75.5786 19.685C74.2366 20.939 73.5656 22.424 73.5656 24.151C73.5656 25.79 74.3136 27.374 75.5896 28.606ZM77.9041 22.149H75.7151V21.28H81.0391V22.149H78.8281V27H77.9041V22.149ZM81.1909 24.129C81.1909 23.26 81.4769 22.545 82.0379 21.984C82.5989 21.423 83.3249 21.148 84.2159 21.148C85.1179 21.148 85.8549 21.423 86.4159 21.984C86.9769 22.545 87.2629 23.26 87.2629 24.129C87.2629 24.998 86.9769 25.702 86.4159 26.263C85.8439 26.824 85.1069 27.099 84.2159 27.099C83.3249 27.099 82.5989 26.824 82.0379 26.263C81.4769 25.702 81.1909 24.998 81.1909 24.129ZM82.1699 24.129C82.1699 24.734 82.3569 25.24 82.7419 25.636C83.1269 26.032 83.6109 26.23 84.2159 26.23C84.8209 26.23 85.3269 26.032 85.7119 25.647C86.0969 25.262 86.2839 24.756 86.2839 24.129C86.2839 23.502 86.0859 22.996 85.7009 22.6C85.3049 22.215 84.8099 22.017 84.2159 22.017C83.6219 22.017 83.1379 22.215 82.7529 22.6C82.3679 22.985 82.1699 23.502 82.1699 24.129ZM93.4362 27H92.5122V24.525H89.2122V27H88.2882V21.28H89.2122V23.656H92.5122V21.28H93.4362V27ZM99.9245 27H99.0005V24.525H95.7005V27H94.7765V21.28H95.7005V23.656H99.0005V21.28H99.9245V27ZM101.804 27C101.397 27.044 101.089 26.813 101.089 26.417C101.089 26.032 101.331 25.79 101.76 25.79C102.244 25.79 102.563 26.12 102.563 26.736C102.563 27.836 101.958 28.397 101.155 28.584L100.924 28.067C101.166 28.001 101.386 27.869 101.584 27.66C101.771 27.451 101.848 27.231 101.804 27ZM108.498 22.149H106.309V21.28H111.633V22.149H109.422V27H108.498V22.149ZM114.386 27H112.318V21.28H113.242V23.062H114.474C116.157 23.062 116.828 23.843 116.828 25.02C116.828 26.175 116.091 27 114.386 27ZM114.375 23.942H113.242V26.12H114.364C115.42 26.12 115.849 25.746 115.849 25.031C115.849 24.305 115.354 23.942 114.375 23.942ZM118.577 27H117.642V21.28H118.577V27ZM124.346 25.35L125.006 25.823C124.577 26.626 123.609 27.099 122.652 27.099C121.739 27.099 121.002 26.824 120.441 26.285C119.88 25.746 119.594 25.031 119.594 24.129C119.594 23.271 119.869 22.556 120.43 21.995C120.991 21.434 121.706 21.148 122.597 21.148C123.62 21.148 124.533 21.61 124.918 22.314L124.203 22.798C123.818 22.281 123.29 22.017 122.619 22.017C122.025 22.017 121.541 22.215 121.156 22.611C120.771 23.007 120.573 23.513 120.573 24.129C120.573 24.756 120.771 25.262 121.178 25.647C121.574 26.032 122.091 26.23 122.74 26.23C123.422 26.23 123.961 25.933 124.346 25.35ZM128.045 21.28H130.344V27H129.42V24.976H128.023L126.329 27H125.207L127.033 24.833C126.153 24.668 125.57 23.997 125.57 23.117C125.57 22.028 126.329 21.28 128.045 21.28ZM126.549 23.139C126.549 23.7 127.077 24.096 127.913 24.096H129.42V22.16H127.935C127.011 22.16 126.549 22.49 126.549 23.139ZM135.394 21.28H136.318V27H135.394V24.591C134.976 25.009 134.393 25.218 133.645 25.218C132.138 25.218 131.39 24.459 131.39 22.941V21.28H132.314V22.688C132.314 23.843 132.798 24.338 133.81 24.338C134.47 24.338 135.097 23.986 135.394 23.557V21.28ZM141.881 27H140.957V21.28H141.804L143.916 24.074L145.973 21.28H146.765V27H145.841V22.908L143.905 25.548L141.881 22.908V27ZM148.54 20.411L147.935 19.982C148.32 19.344 148.958 19.025 149.849 19.025C150.872 19.025 151.521 19.465 151.521 20.18C151.521 20.697 151.279 21.049 150.784 21.247C151.367 21.39 151.653 21.764 151.653 22.369C151.653 23.238 150.839 23.755 149.772 23.755C148.936 23.755 148.144 23.37 147.803 22.677L148.463 22.259C148.65 22.688 149.189 22.974 149.772 22.974C150.443 22.974 150.773 22.765 150.773 22.336C150.773 21.918 150.443 21.709 149.783 21.709H149.178V21.005H149.662C150.278 21.005 150.652 20.763 150.652 20.356C150.652 19.993 150.377 19.806 149.827 19.806C149.211 19.806 148.848 19.982 148.54 20.411ZM153.334 27C152.927 27.044 152.619 26.813 152.619 26.417C152.619 26.032 152.861 25.79 153.29 25.79C153.774 25.79 154.093 26.12 154.093 26.736C154.093 27.836 153.488 28.397 152.685 28.584L152.454 28.067C152.696 28.001 152.916 27.869 153.114 27.66C153.301 27.451 153.378 27.231 153.334 27ZM159.106 27H158.105V19.3H163.583V20.235H159.106V27ZM163.677 27H162.753V21.28H163.677V23.843L166.57 21.28H167.813L164.854 23.909L167.956 27H166.724L164.15 24.481L163.677 24.921V27ZM168.919 22.655L168.446 21.962C168.974 21.467 169.887 21.148 170.734 21.148C172.263 21.148 173.077 21.984 173.077 23.469V27H172.153V26.153C171.79 26.681 171.075 27.077 170.151 27.077C168.908 27.077 168.072 26.384 168.072 25.328C168.072 24.129 169.095 23.557 170.811 23.557C171.35 23.557 171.79 23.612 172.153 23.722C172.153 22.611 171.757 22.017 170.624 22.017C170.052 22.017 169.48 22.226 168.919 22.655ZM170.371 26.241C170.8 26.241 171.185 26.12 171.504 25.889C171.823 25.658 172.032 25.394 172.153 25.119V24.536C171.834 24.426 171.427 24.371 170.932 24.371C169.678 24.371 169.051 24.679 169.051 25.295C169.051 25.878 169.579 26.241 170.371 26.241ZM179.327 27H178.403V22.16H175.983V22.424C175.983 24.272 175.774 25.548 175.356 26.208C174.938 26.868 174.421 27.088 173.706 27V26.12C174.443 26.12 175.059 25.801 175.059 22.457V21.28H179.327V27ZM113.419 38.721L109.932 43H109.085V37.28H110.009V41.57L113.485 37.28H114.343V43H113.419V38.721ZM120.653 43H119.729V38.16H117.309V38.424C117.309 40.272 117.1 41.548 116.682 42.208C116.264 42.868 115.747 43.088 115.032 43V42.12C115.769 42.12 116.385 41.801 116.385 38.457V37.28H120.653V43ZM126.331 38.721L122.844 43H121.997V37.28H122.921V41.57L126.397 37.28H127.255V43H126.331V38.721ZM132.815 43H131.891V37.28H132.815V39.843L135.708 37.28H136.951L133.992 39.909L137.094 43H135.862L133.288 40.481L132.815 40.921V43ZM140.882 43H137.824V35.3H140.937C142.906 35.3 143.654 36.015 143.654 37.214C143.654 38.072 143.291 38.655 142.565 38.974C143.412 39.15 143.929 39.799 143.929 40.8C143.929 42.307 142.807 43 140.882 43ZM140.981 39.524H138.825V42.065H140.871C142.268 42.065 142.895 41.658 142.895 40.745C142.895 39.931 142.257 39.524 140.981 39.524ZM140.849 36.235H138.825V38.611H141.014C141.993 38.611 142.631 38.171 142.631 37.423C142.631 36.598 142.158 36.235 140.849 36.235ZM146.611 38.149H144.422V37.28H149.746V38.149H147.535V43H146.611V38.149ZM156.282 43H153.73V37.28H156.106C157.701 37.28 158.449 37.687 158.449 38.743C158.449 39.271 158.207 39.689 157.712 39.986C158.328 40.173 158.636 40.624 158.636 41.361C158.636 42.428 157.789 43 156.282 43ZM156.293 40.503H154.654V42.142H156.183C157.162 42.142 157.657 41.867 157.657 41.317C157.657 40.778 157.206 40.503 156.293 40.503ZM156.073 38.138H154.654V39.667H156.392C157.063 39.667 157.47 39.392 157.47 38.875C157.47 38.292 156.997 38.138 156.073 38.138ZM166.675 37.28H167.599V43H166.675V40.591C166.257 41.009 165.674 41.218 164.926 41.218C163.419 41.218 162.671 40.459 162.671 38.941V37.28H163.595V38.688C163.595 39.843 164.079 40.338 165.091 40.338C165.751 40.338 166.378 39.986 166.675 39.557V37.28ZM169.381 38.655L168.908 37.962C169.436 37.467 170.349 37.148 171.196 37.148C172.725 37.148 173.539 37.984 173.539 39.469V43H172.615V42.153C172.252 42.681 171.537 43.077 170.613 43.077C169.37 43.077 168.534 42.384 168.534 41.328C168.534 40.129 169.557 39.557 171.273 39.557C171.812 39.557 172.252 39.612 172.615 39.722C172.615 38.611 172.219 38.017 171.086 38.017C170.514 38.017 169.942 38.226 169.381 38.655ZM170.833 42.241C171.262 42.241 171.647 42.12 171.966 41.889C172.285 41.658 172.494 41.394 172.615 41.119V40.536C172.296 40.426 171.889 40.371 171.394 40.371C170.14 40.371 169.513 40.679 169.513 41.295C169.513 41.878 170.041 42.241 170.833 42.241ZM179.25 41.35L179.91 41.823C179.481 42.626 178.513 43.099 177.556 43.099C176.643 43.099 175.906 42.824 175.345 42.285C174.784 41.746 174.498 41.031 174.498 40.129C174.498 39.271 174.773 38.556 175.334 37.995C175.895 37.434 176.61 37.148 177.501 37.148C178.524 37.148 179.437 37.61 179.822 38.314L179.107 38.798C178.722 38.281 178.194 38.017 177.523 38.017C176.929 38.017 176.445 38.215 176.06 38.611C175.675 39.007 175.477 39.513 175.477 40.129C175.477 40.756 175.675 41.262 176.082 41.647C176.478 42.032 176.995 42.23 177.644 42.23C178.326 42.23 178.865 41.933 179.25 41.35ZM180.737 45.233L180.11 44.628C180.77 44.045 181.276 43.363 181.617 42.549C181.958 41.746 182.123 40.954 182.123 40.151C182.123 38.424 181.452 36.939 180.11 35.696L180.726 35.047C182.387 36.532 183.069 38.391 183.069 40.151C183.069 41.042 182.882 41.933 182.519 42.835C182.145 43.737 181.551 44.54 180.737 45.233Z" fill="#3C525E"/>
<path d="M295.753 11H294.829V6.149H291.595V11H290.671V5.28H295.753V11ZM296.776 8.129C296.776 7.26 297.062 6.545 297.623 5.984C298.184 5.423 298.91 5.148 299.801 5.148C300.703 5.148 301.44 5.423 302.001 5.984C302.562 6.545 302.848 7.26 302.848 8.129C302.848 8.998 302.562 9.702 302.001 10.263C301.429 10.824 300.692 11.099 299.801 11.099C298.91 11.099 298.184 10.824 297.623 10.263C297.062 9.702 296.776 8.998 296.776 8.129ZM297.755 8.129C297.755 8.734 297.942 9.24 298.327 9.636C298.712 10.032 299.196 10.23 299.801 10.23C300.406 10.23 300.912 10.032 301.297 9.647C301.682 9.262 301.869 8.756 301.869 8.129C301.869 7.502 301.671 6.996 301.286 6.6C300.89 6.215 300.395 6.017 299.801 6.017C299.207 6.017 298.723 6.215 298.338 6.6C297.953 6.985 297.755 7.502 297.755 8.129ZM308.716 11H307.792V6.16H305.372V6.424C305.372 8.272 305.163 9.548 304.745 10.208C304.327 10.868 303.81 11.088 303.095 11V10.12C303.832 10.12 304.448 9.801 304.448 6.457V5.28H308.716V11ZM315.209 11H314.285V8.525H310.985V11H310.061V5.28H310.985V7.656H314.285V5.28H315.209V11ZM316.23 8.129C316.23 7.26 316.516 6.545 317.077 5.984C317.638 5.423 318.364 5.148 319.255 5.148C320.157 5.148 320.894 5.423 321.455 5.984C322.016 6.545 322.302 7.26 322.302 8.129C322.302 8.998 322.016 9.702 321.455 10.263C320.883 10.824 320.146 11.099 319.255 11.099C318.364 11.099 317.638 10.824 317.077 10.263C316.516 9.702 316.23 8.998 316.23 8.129ZM317.209 8.129C317.209 8.734 317.396 9.24 317.781 9.636C318.166 10.032 318.65 10.23 319.255 10.23C319.86 10.23 320.366 10.032 320.751 9.647C321.136 9.262 321.323 8.756 321.323 8.129C321.323 7.502 321.125 6.996 320.74 6.6C320.344 6.215 319.849 6.017 319.255 6.017C318.661 6.017 318.177 6.215 317.792 6.6C317.407 6.985 317.209 7.502 317.209 8.129ZM327.749 9.361L328.343 9.911C327.815 10.703 327.056 11.099 326.055 11.099C325.142 11.099 324.405 10.824 323.844 10.285C323.283 9.746 323.008 9.031 323.008 8.129C323.008 7.26 323.261 6.545 323.778 5.984C324.284 5.423 324.999 5.148 325.923 5.148C326.682 5.148 327.32 5.39 327.815 5.863C328.31 6.336 328.563 6.963 328.563 7.744C328.563 7.997 328.541 8.228 328.508 8.437H323.998C324.053 9.57 324.889 10.23 326.088 10.23C326.759 10.23 327.397 9.878 327.749 9.361ZM325.857 5.995C324.812 5.995 324.13 6.633 323.987 7.601H327.584C327.529 6.589 326.88 5.995 325.857 5.995ZM291.595 29.2H290.671V21.28H291.595V21.995C291.98 21.434 292.596 21.148 293.443 21.148C294.279 21.148 294.95 21.412 295.445 21.951C295.94 22.49 296.182 23.183 296.182 24.041C296.182 24.921 295.918 25.647 295.39 26.23C294.851 26.813 294.169 27.099 293.333 27.099C292.563 27.099 291.98 26.901 291.595 26.516V29.2ZM293.344 22.017C292.508 22.017 291.859 22.556 291.595 23.205V25.339C291.925 25.933 292.475 26.23 293.256 26.23C293.817 26.23 294.29 26.032 294.653 25.636C295.016 25.24 295.203 24.734 295.203 24.107C295.203 22.831 294.488 22.017 293.344 22.017ZM297.642 22.655L297.169 21.962C297.697 21.467 298.61 21.148 299.457 21.148C300.986 21.148 301.8 21.984 301.8 23.469V27H300.876V26.153C300.513 26.681 299.798 27.077 298.874 27.077C297.631 27.077 296.795 26.384 296.795 25.328C296.795 24.129 297.818 23.557 299.534 23.557C300.073 23.557 300.513 23.612 300.876 23.722C300.876 22.611 300.48 22.017 299.347 22.017C298.775 22.017 298.203 22.226 297.642 22.655ZM299.094 26.241C299.523 26.241 299.908 26.12 300.227 25.889C300.546 25.658 300.755 25.394 300.876 25.119V24.536C300.557 24.426 300.15 24.371 299.655 24.371C298.401 24.371 297.774 24.679 297.774 25.295C297.774 25.878 298.302 26.241 299.094 26.241ZM307.511 25.35L308.171 25.823C307.742 26.626 306.774 27.099 305.817 27.099C304.904 27.099 304.167 26.824 303.606 26.285C303.045 25.746 302.759 25.031 302.759 24.129C302.759 23.271 303.034 22.556 303.595 21.995C304.156 21.434 304.871 21.148 305.762 21.148C306.785 21.148 307.698 21.61 308.083 22.314L307.368 22.798C306.983 22.281 306.455 22.017 305.784 22.017C305.19 22.017 304.706 22.215 304.321 22.611C303.936 23.007 303.738 23.513 303.738 24.129C303.738 24.756 303.936 25.262 304.343 25.647C304.739 26.032 305.256 26.23 305.905 26.23C306.587 26.23 307.126 25.933 307.511 25.35ZM313.054 25.35L313.714 25.823C313.285 26.626 312.317 27.099 311.36 27.099C310.447 27.099 309.71 26.824 309.149 26.285C308.588 25.746 308.302 25.031 308.302 24.129C308.302 23.271 308.577 22.556 309.138 21.995C309.699 21.434 310.414 21.148 311.305 21.148C312.328 21.148 313.241 21.61 313.626 22.314L312.911 22.798C312.526 22.281 311.998 22.017 311.327 22.017C310.733 22.017 310.249 22.215 309.864 22.611C309.479 23.007 309.281 23.513 309.281 24.129C309.281 24.756 309.479 25.262 309.886 25.647C310.282 26.032 310.799 26.23 311.448 26.23C312.13 26.23 312.669 25.933 313.054 25.35ZM316.091 22.149H313.902V21.28H319.226V22.149H317.015V27H316.091V22.149ZM319.377 24.129C319.377 23.26 319.663 22.545 320.224 21.984C320.785 21.423 321.511 21.148 322.402 21.148C323.304 21.148 324.041 21.423 324.602 21.984C325.163 22.545 325.449 23.26 325.449 24.129C325.449 24.998 325.163 25.702 324.602 26.263C324.03 26.824 323.293 27.099 322.402 27.099C321.511 27.099 320.785 26.824 320.224 26.263C319.663 25.702 319.377 24.998 319.377 24.129ZM320.356 24.129C320.356 24.734 320.543 25.24 320.928 25.636C321.313 26.032 321.797 26.23 322.402 26.23C323.007 26.23 323.513 26.032 323.898 25.647C324.283 25.262 324.47 24.756 324.47 24.129C324.47 23.502 324.272 22.996 323.887 22.6C323.491 22.215 322.996 22.017 322.402 22.017C321.808 22.017 321.324 22.215 320.939 22.6C320.554 22.985 320.356 23.502 320.356 24.129ZM328.537 21.28H330.836V27H329.912V24.976H328.515L326.821 27H325.699L327.525 24.833C326.645 24.668 326.062 23.997 326.062 23.117C326.062 22.028 326.821 21.28 328.537 21.28ZM327.041 23.139C327.041 23.7 327.569 24.096 328.405 24.096H329.912V22.16H328.427C327.503 22.16 327.041 22.49 327.041 23.139ZM337.327 27H336.403V24.525H333.103V27H332.179V21.28H333.103V23.656H336.403V21.28H337.327V27ZM343.001 22.721L339.514 27H338.667V21.28H339.591V25.57L343.067 21.28H343.925V27H343.001V22.721ZM349.685 25.361L350.279 25.911C349.751 26.703 348.992 27.099 347.991 27.099C347.078 27.099 346.341 26.824 345.78 26.285C345.219 25.746 344.944 25.031 344.944 24.129C344.944 23.26 345.197 22.545 345.714 21.984C346.22 21.423 346.935 21.148 347.859 21.148C348.618 21.148 349.256 21.39 349.751 21.863C350.246 22.336 350.499 22.963 350.499 23.744C350.499 23.997 350.477 24.228 350.444 24.437H345.934C345.989 25.57 346.825 26.23 348.024 26.23C348.695 26.23 349.333 25.878 349.685 25.361ZM347.793 21.995C346.748 21.995 346.066 22.633 345.923 23.601H349.52C349.465 22.589 348.816 21.995 347.793 21.995ZM291.595 43H290.671V37.28H291.518L293.63 40.074L295.687 37.28H296.479V43H295.555V38.908L293.619 41.548L291.595 38.908V43ZM298.265 38.655L297.792 37.962C298.32 37.467 299.233 37.148 300.08 37.148C301.609 37.148 302.423 37.984 302.423 39.469V43H301.499V42.153C301.136 42.681 300.421 43.077 299.497 43.077C298.254 43.077 297.418 42.384 297.418 41.328C297.418 40.129 298.441 39.557 300.157 39.557C300.696 39.557 301.136 39.612 301.499 39.722C301.499 38.611 301.103 38.017 299.97 38.017C299.398 38.017 298.826 38.226 298.265 38.655ZM299.717 42.241C300.146 42.241 300.531 42.12 300.85 41.889C301.169 41.658 301.378 41.394 301.499 41.119V40.536C301.18 40.426 300.773 40.371 300.278 40.371C299.024 40.371 298.397 40.679 298.397 41.295C298.397 41.878 298.925 42.241 299.717 42.241ZM304.625 45.2H303.701V37.28H304.625V37.995C305.01 37.434 305.626 37.148 306.473 37.148C307.309 37.148 307.98 37.412 308.475 37.951C308.97 38.49 309.212 39.183 309.212 40.041C309.212 40.921 308.948 41.647 308.42 42.23C307.881 42.813 307.199 43.099 306.363 43.099C305.593 43.099 305.01 42.901 304.625 42.516V45.2ZM306.374 38.017C305.538 38.017 304.889 38.556 304.625 39.205V41.339C304.955 41.933 305.505 42.23 306.286 42.23C306.847 42.23 307.32 42.032 307.683 41.636C308.046 41.24 308.233 40.734 308.233 40.107C308.233 38.831 307.518 38.017 306.374 38.017ZM317.119 43H310.233V37.28H311.157V42.12H313.214V37.28H314.138V42.12H316.195V37.28H317.119V43ZM319.385 45.2H318.461V37.28H319.385V37.995C319.77 37.434 320.386 37.148 321.233 37.148C322.069 37.148 322.74 37.412 323.235 37.951C323.73 38.49 323.972 39.183 323.972 40.041C323.972 40.921 323.708 41.647 323.18 42.23C322.641 42.813 321.959 43.099 321.123 43.099C320.353 43.099 319.77 42.901 319.385 42.516V45.2ZM321.134 38.017C320.298 38.017 319.649 38.556 319.385 39.205V41.339C319.715 41.933 320.265 42.23 321.046 42.23C321.607 42.23 322.08 42.032 322.443 41.636C322.806 41.24 322.993 40.734 322.993 40.107C322.993 38.831 322.278 38.017 321.134 38.017ZM324.888 45.178L325.251 44.375C325.339 44.408 325.416 44.43 325.493 44.43C325.922 44.43 326.219 44.133 326.604 43.22L326.78 42.791L324.008 37.28H325.097L327.242 41.625L328.859 37.28H329.871L327.693 42.912C327.319 43.836 326.967 44.463 326.648 44.804C326.318 45.145 325.944 45.31 325.526 45.31C325.284 45.31 325.075 45.266 324.888 45.178ZM332.182 38.149H329.993V37.28H335.317V38.149H333.106V43H332.182V38.149ZM336.25 38.655L335.777 37.962C336.305 37.467 337.218 37.148 338.065 37.148C339.594 37.148 340.408 37.984 340.408 39.469V43H339.484V42.153C339.121 42.681 338.406 43.077 337.482 43.077C336.239 43.077 335.403 42.384 335.403 41.328C335.403 40.129 336.426 39.557 338.142 39.557C338.681 39.557 339.121 39.612 339.484 39.722C339.484 38.611 339.088 38.017 337.955 38.017C337.383 38.017 336.811 38.226 336.25 38.655ZM337.702 42.241C338.131 42.241 338.516 42.12 338.835 41.889C339.154 41.658 339.363 41.394 339.484 41.119V40.536C339.165 40.426 338.758 40.371 338.263 40.371C337.009 40.371 336.382 40.679 336.382 41.295C336.382 41.878 336.91 42.241 337.702 42.241Z" fill="#1A3341"/>
<path d="M293.366 60.606L292.739 61.244C291.925 60.54 291.331 59.737 290.957 58.835C290.583 57.933 290.396 57.042 290.396 56.151C290.396 54.391 291.089 52.532 292.75 51.047L293.355 51.685C292.013 52.939 291.342 54.424 291.342 56.151C291.342 57.79 292.09 59.374 293.366 60.606ZM295.075 59H294.151V53.28H295.075V55.843L297.968 53.28H299.211L296.252 55.909L299.354 59H298.122L295.548 56.481L295.075 56.921V59ZM300.866 59H299.942V53.28H300.789L302.901 56.074L304.958 53.28H305.75V59H304.826V54.908L302.89 57.548L300.866 54.908V59ZM307.162 61.233L306.535 60.628C307.195 60.045 307.701 59.363 308.042 58.549C308.383 57.746 308.548 56.954 308.548 56.151C308.548 54.424 307.877 52.939 306.535 51.696L307.151 51.047C308.812 52.532 309.494 54.391 309.494 56.151C309.494 57.042 309.307 57.933 308.944 58.835C308.57 59.737 307.976 60.54 307.162 61.233Z" fill="#3C525E"/>
<path d="M291.815 241H290.814V233.3H291.815V237.018L295.709 233.3H297.018L293.388 236.787L297.282 241H295.962L292.64 237.447L291.815 238.239V241ZM297.13 238.129C297.13 237.26 297.416 236.545 297.977 235.984C298.538 235.423 299.264 235.148 300.155 235.148C301.057 235.148 301.794 235.423 302.355 235.984C302.916 236.545 303.202 237.26 303.202 238.129C303.202 238.998 302.916 239.702 302.355 240.263C301.783 240.824 301.046 241.099 300.155 241.099C299.264 241.099 298.538 240.824 297.977 240.263C297.416 239.702 297.13 238.998 297.13 238.129ZM298.109 238.129C298.109 238.734 298.296 239.24 298.681 239.636C299.066 240.032 299.55 240.23 300.155 240.23C300.76 240.23 301.266 240.032 301.651 239.647C302.036 239.262 302.223 238.756 302.223 238.129C302.223 237.502 302.025 236.996 301.64 236.6C301.244 236.215 300.749 236.017 300.155 236.017C299.561 236.017 299.077 236.215 298.692 236.6C298.307 236.985 298.109 237.502 298.109 238.129ZM309.071 241H308.147V236.16H305.727V236.424C305.727 238.272 305.518 239.548 305.1 240.208C304.682 240.868 304.165 241.088 303.45 241V240.12C304.187 240.12 304.803 239.801 304.803 236.457V235.28H309.071V241ZM314.749 236.721L311.262 241H310.415V235.28H311.339V239.57L314.815 235.28H315.673V241H314.749V236.721ZM320.718 235.28H321.642V241H320.718V238.591C320.3 239.009 319.717 239.218 318.969 239.218C317.462 239.218 316.714 238.459 316.714 236.941V235.28H317.638V236.688C317.638 237.843 318.122 238.338 319.134 238.338C319.794 238.338 320.421 237.986 320.718 237.557V235.28ZM327.406 239.361L328 239.911C327.472 240.703 326.713 241.099 325.712 241.099C324.799 241.099 324.062 240.824 323.501 240.285C322.94 239.746 322.665 239.031 322.665 238.129C322.665 237.26 322.918 236.545 323.435 235.984C323.941 235.423 324.656 235.148 325.58 235.148C326.339 235.148 326.977 235.39 327.472 235.863C327.966 236.336 328.22 236.963 328.22 237.744C328.22 237.997 328.198 238.228 328.165 238.437H323.655C323.71 239.57 324.546 240.23 325.745 240.23C326.416 240.23 327.054 239.878 327.406 239.361ZM325.514 235.995C324.469 235.995 323.787 236.633 323.644 237.601H327.241C327.186 236.589 326.537 235.995 325.514 235.995ZM333.679 239.35L334.339 239.823C333.91 240.626 332.942 241.099 331.985 241.099C331.072 241.099 330.335 240.824 329.774 240.285C329.213 239.746 328.927 239.031 328.927 238.129C328.927 237.271 329.202 236.556 329.763 235.995C330.324 235.434 331.039 235.148 331.93 235.148C332.953 235.148 333.866 235.61 334.251 236.314L333.536 236.798C333.151 236.281 332.623 236.017 331.952 236.017C331.358 236.017 330.874 236.215 330.489 236.611C330.104 237.007 329.906 237.513 329.906 238.129C329.906 238.756 330.104 239.262 330.511 239.647C330.907 240.032 331.424 240.23 332.073 240.23C332.755 240.23 333.294 239.933 333.679 239.35ZM336.716 236.149H334.527V235.28H339.851V236.149H337.64V241H336.716V236.149ZM343.088 241H340.536V235.28H342.912C344.507 235.28 345.255 235.687 345.255 236.743C345.255 237.271 345.013 237.689 344.518 237.986C345.134 238.173 345.442 238.624 345.442 239.361C345.442 240.428 344.595 241 343.088 241ZM343.099 238.503H341.46V240.142H342.989C343.968 240.142 344.463 239.867 344.463 239.317C344.463 238.778 344.012 238.503 343.099 238.503ZM342.879 236.138H341.46V237.667H343.198C343.869 237.667 344.276 237.392 344.276 236.875C344.276 236.292 343.803 236.138 342.879 236.138ZM346.158 238.129C346.158 237.26 346.444 236.545 347.005 235.984C347.566 235.423 348.292 235.148 349.183 235.148C350.085 235.148 350.822 235.423 351.383 235.984C351.944 236.545 352.23 237.26 352.23 238.129C352.23 238.998 351.944 239.702 351.383 240.263C350.811 240.824 350.074 241.099 349.183 241.099C348.292 241.099 347.566 240.824 347.005 240.263C346.444 239.702 346.158 238.998 346.158 238.129ZM347.137 238.129C347.137 238.734 347.324 239.24 347.709 239.636C348.094 240.032 348.578 240.23 349.183 240.23C349.788 240.23 350.294 240.032 350.679 239.647C351.064 239.262 351.251 238.756 351.251 238.129C351.251 237.502 351.053 236.996 350.668 236.6C350.272 236.215 349.777 236.017 349.183 236.017C348.589 236.017 348.105 236.215 347.72 236.6C347.335 236.985 347.137 237.502 347.137 238.129ZM357.477 241H356.553V235.28H357.477V237.843L360.37 235.28H361.613L358.654 237.909L361.756 241H360.524L357.95 238.481L357.477 238.921V241ZM361.583 238.129C361.583 237.26 361.869 236.545 362.43 235.984C362.991 235.423 363.717 235.148 364.608 235.148C365.51 235.148 366.247 235.423 366.808 235.984C367.369 236.545 367.655 237.26 367.655 238.129C367.655 238.998 367.369 239.702 366.808 240.263C366.236 240.824 365.499 241.099 364.608 241.099C363.717 241.099 362.991 240.824 362.43 240.263C361.869 239.702 361.583 238.998 361.583 238.129ZM362.562 238.129C362.562 238.734 362.749 239.24 363.134 239.636C363.519 240.032 364.003 240.23 364.608 240.23C365.213 240.23 365.719 240.032 366.104 239.647C366.489 239.262 366.676 238.756 366.676 238.129C366.676 237.502 366.478 236.996 366.093 236.6C365.697 236.215 365.202 236.017 364.608 236.017C364.014 236.017 363.53 236.215 363.145 236.6C362.76 236.985 362.562 237.502 362.562 238.129ZM373.829 241H372.905V238.525H369.605V241H368.681V235.28H369.605V237.656H372.905V235.28H373.829V241ZM376.698 236.149H374.509V235.28H379.833V236.149H377.622V241H376.698V236.149ZM384.726 239.361L385.32 239.911C384.792 240.703 384.033 241.099 383.032 241.099C382.119 241.099 381.382 240.824 380.821 240.285C380.26 239.746 379.985 239.031 379.985 238.129C379.985 237.26 380.238 236.545 380.755 235.984C381.261 235.423 381.976 235.148 382.9 235.148C383.659 235.148 384.297 235.39 384.792 235.863C385.287 236.336 385.54 236.963 385.54 237.744C385.54 237.997 385.518 238.228 385.485 238.437H380.975C381.03 239.57 381.866 240.23 383.065 240.23C383.736 240.23 384.374 239.878 384.726 239.361ZM382.834 235.995C381.789 235.995 381.107 236.633 380.964 237.601H384.561C384.506 236.589 383.857 235.995 382.834 235.995ZM390.901 236.721L387.414 241H386.567V235.28H387.491V239.57L390.967 235.28H391.825V241H390.901V236.721ZM387.447 232.816H388.316C388.327 233.355 388.679 233.718 389.295 233.718C389.878 233.718 390.241 233.355 390.241 232.816H391.11C391.099 233.817 390.318 234.455 389.295 234.455C388.195 234.455 387.458 233.828 387.447 232.816ZM398.31 241H397.386V238.525H394.086V241H393.162V235.28H394.086V237.656H397.386V235.28H398.31V241ZM404.072 239.361L404.666 239.911C404.138 240.703 403.379 241.099 402.378 241.099C401.465 241.099 400.728 240.824 400.167 240.285C399.606 239.746 399.331 239.031 399.331 238.129C399.331 237.26 399.584 236.545 400.101 235.984C400.607 235.423 401.322 235.148 402.246 235.148C403.005 235.148 403.643 235.39 404.138 235.863C404.633 236.336 404.886 236.963 404.886 237.744C404.886 237.997 404.864 238.228 404.831 238.437H400.321C400.376 239.57 401.212 240.23 402.411 240.23C403.082 240.23 403.72 239.878 404.072 239.361ZM402.18 235.995C401.135 235.995 400.453 236.633 400.31 237.601H403.907C403.852 236.589 403.203 235.995 402.18 235.995ZM406.837 243.2H405.913V235.28H406.837V235.995C407.222 235.434 407.838 235.148 408.685 235.148C409.521 235.148 410.192 235.412 410.687 235.951C411.182 236.49 411.424 237.183 411.424 238.041C411.424 238.921 411.16 239.647 410.632 240.23C410.093 240.813 409.411 241.099 408.575 241.099C407.805 241.099 407.222 240.901 406.837 240.516V243.2ZM408.586 236.017C407.75 236.017 407.101 236.556 406.837 237.205V239.339C407.167 239.933 407.717 240.23 408.498 240.23C409.059 240.23 409.532 240.032 409.895 239.636C410.258 239.24 410.445 238.734 410.445 238.107C410.445 236.831 409.73 236.017 408.586 236.017ZM412.125 238.129C412.125 237.26 412.411 236.545 412.972 235.984C413.533 235.423 414.259 235.148 415.15 235.148C416.052 235.148 416.789 235.423 417.35 235.984C417.911 236.545 418.197 237.26 418.197 238.129C418.197 238.998 417.911 239.702 417.35 240.263C416.778 240.824 416.041 241.099 415.15 241.099C414.259 241.099 413.533 240.824 412.972 240.263C412.411 239.702 412.125 238.998 412.125 238.129ZM413.104 238.129C413.104 238.734 413.291 239.24 413.676 239.636C414.061 240.032 414.545 240.23 415.15 240.23C415.755 240.23 416.261 240.032 416.646 239.647C417.031 239.262 417.218 238.756 417.218 238.129C417.218 237.502 417.02 236.996 416.635 236.6C416.239 236.215 415.744 236.017 415.15 236.017C414.556 236.017 414.072 236.215 413.687 236.6C413.302 236.985 413.104 237.502 413.104 238.129ZM421.775 241H419.223V235.28H421.599C423.194 235.28 423.942 235.687 423.942 236.743C423.942 237.271 423.7 237.689 423.205 237.986C423.821 238.173 424.129 238.624 424.129 239.361C424.129 240.428 423.282 241 421.775 241ZM421.786 238.503H420.147V240.142H421.676C422.655 240.142 423.15 239.867 423.15 239.317C423.15 238.778 422.699 238.503 421.786 238.503ZM421.566 236.138H420.147V237.667H421.885C422.556 237.667 422.963 237.392 422.963 236.875C422.963 236.292 422.49 236.138 421.566 236.138ZM293.223 257H290.671V251.28H293.047C294.642 251.28 295.39 251.687 295.39 252.743C295.39 253.271 295.148 253.689 294.653 253.986C295.269 254.173 295.577 254.624 295.577 255.361C295.577 256.428 294.73 257 293.223 257ZM293.234 254.503H291.595V256.142H293.124C294.103 256.142 294.598 255.867 294.598 255.317C294.598 254.778 294.147 254.503 293.234 254.503ZM293.014 252.138H291.595V253.667H293.333C294.004 253.667 294.411 253.392 294.411 252.875C294.411 252.292 293.938 252.138 293.014 252.138ZM304.991 257H304.067V252.149H300.833V257H299.909V251.28H304.991V257ZM306.014 254.129C306.014 253.26 306.3 252.545 306.861 251.984C307.422 251.423 308.148 251.148 309.039 251.148C309.941 251.148 310.678 251.423 311.239 251.984C311.8 252.545 312.086 253.26 312.086 254.129C312.086 254.998 311.8 255.702 311.239 256.263C310.667 256.824 309.93 257.099 309.039 257.099C308.148 257.099 307.422 256.824 306.861 256.263C306.3 255.702 306.014 254.998 306.014 254.129ZM306.993 254.129C306.993 254.734 307.18 255.24 307.565 255.636C307.95 256.032 308.434 256.23 309.039 256.23C309.644 256.23 310.15 256.032 310.535 255.647C310.92 255.262 311.107 254.756 311.107 254.129C311.107 253.502 310.909 252.996 310.524 252.6C310.128 252.215 309.633 252.017 309.039 252.017C308.445 252.017 307.961 252.215 307.576 252.6C307.191 252.985 306.993 253.502 306.993 254.129ZM317.533 255.361L318.127 255.911C317.599 256.703 316.84 257.099 315.839 257.099C314.926 257.099 314.189 256.824 313.628 256.285C313.067 255.746 312.792 255.031 312.792 254.129C312.792 253.26 313.045 252.545 313.562 251.984C314.068 251.423 314.783 251.148 315.707 251.148C316.466 251.148 317.104 251.39 317.599 251.863C318.094 252.336 318.347 252.963 318.347 253.744C318.347 253.997 318.325 254.228 318.292 254.437H313.782C313.837 255.57 314.673 256.23 315.872 256.23C316.543 256.23 317.181 255.878 317.533 255.361ZM315.641 251.995C314.596 251.995 313.914 252.633 313.771 253.601H317.368C317.313 252.589 316.664 251.995 315.641 251.995ZM321.227 257.11C320.05 257.11 319.181 256.67 318.642 255.801L319.368 255.295C319.687 255.878 320.391 256.252 321.238 256.252C322.151 256.252 322.8 255.878 322.8 255.262C322.8 254.756 322.415 254.503 321.656 254.503H320.314V253.667H321.59C322.151 253.667 322.591 253.337 322.591 252.842C322.591 252.303 322.019 251.995 321.194 251.995C320.501 251.995 319.929 252.259 319.5 252.798L318.818 252.347C319.203 251.687 320.083 251.137 321.282 251.137C322.723 251.137 323.57 251.742 323.57 252.699C323.57 253.238 323.339 253.656 322.888 253.931C323.548 254.25 323.779 254.635 323.779 255.24C323.779 255.823 323.537 256.274 323.064 256.604C322.591 256.945 321.975 257.11 321.227 257.11ZM325.063 258.386H324.183V256.12H324.821C325.404 255.229 325.624 253.975 325.624 251.808V251.28H329.826V256.12H330.651V258.386H329.771V257H325.063V258.386ZM328.902 252.16H326.493V252.556C326.493 254.019 326.262 255.207 325.811 256.12H328.902V252.16ZM335.87 255.361L336.464 255.911C335.936 256.703 335.177 257.099 334.176 257.099C333.263 257.099 332.526 256.824 331.965 256.285C331.404 255.746 331.129 255.031 331.129 254.129C331.129 253.26 331.382 252.545 331.899 251.984C332.405 251.423 333.12 251.148 334.044 251.148C334.803 251.148 335.441 251.39 335.936 251.863C336.431 252.336 336.684 252.963 336.684 253.744C336.684 253.997 336.662 254.228 336.629 254.437H332.119C332.174 255.57 333.01 256.23 334.209 256.23C334.88 256.23 335.518 255.878 335.87 255.361ZM333.978 251.995C332.933 251.995 332.251 252.633 332.108 253.601H335.705C335.65 252.589 335.001 251.995 333.978 251.995Z" fill="#1A3341"/>
<path d="M343.704 258.606L343.077 259.244C342.263 258.54 341.669 257.737 341.295 256.835C340.921 255.933 340.734 255.042 340.734 254.151C340.734 252.391 341.427 250.532 343.088 249.047L343.693 249.685C342.351 250.939 341.68 252.424 341.68 254.151C341.68 255.79 342.428 257.374 343.704 258.606ZM344.775 258.408H343.818V256.065H344.632C345.116 255.306 345.655 253.403 345.655 250.235V249.3H350.858V256.065H351.826V258.408H350.869V257H344.775V258.408ZM349.857 250.235H346.612V250.95C346.612 251.885 346.524 252.853 346.348 253.854C346.161 254.855 345.952 255.592 345.71 256.065H349.857V250.235ZM357.089 257.165H356.088V256.23H356.033C354.845 256.23 353.91 255.944 353.228 255.361C352.535 254.789 352.194 254.019 352.194 253.04C352.194 252.017 352.546 251.236 353.261 250.675C353.965 250.125 354.911 249.85 356.088 249.85V249.135H357.089V249.85C358.211 249.85 359.146 250.125 359.883 250.675C360.62 251.225 360.983 252.017 360.983 253.04C360.983 254.019 360.642 254.789 359.949 255.361C359.256 255.944 358.321 256.23 357.144 256.23H357.089V257.165ZM357.111 250.774H357.089V255.306H357.144C358.904 255.306 359.949 254.492 359.949 253.04C359.949 251.599 358.97 250.774 357.111 250.774ZM353.228 253.04C353.228 254.415 354.251 255.306 356.044 255.306H356.088V250.774C354.361 250.774 353.228 251.544 353.228 253.04ZM367.146 253.535H363.131V252.6H367.135C366.959 251.093 365.892 250.136 364.231 250.136C363.351 250.136 362.339 250.598 361.767 251.313L361.096 250.675C361.8 249.74 363.065 249.201 364.297 249.201C365.496 249.201 366.442 249.553 367.135 250.257C367.828 250.961 368.169 251.918 368.169 253.117C368.169 254.294 367.817 255.251 367.113 255.988C366.409 256.725 365.441 257.099 364.209 257.099C363.01 257.099 361.789 256.626 361.074 255.625L361.756 255.053C362.273 255.757 363.285 256.164 364.264 256.164C365.078 256.164 365.749 255.922 366.266 255.438C366.783 254.954 367.08 254.316 367.146 253.535ZM369.316 259.233L368.689 258.628C369.349 258.045 369.855 257.363 370.196 256.549C370.537 255.746 370.702 254.954 370.702 254.151C370.702 252.424 370.031 250.939 368.689 249.696L369.305 249.047C370.966 250.532 371.648 252.391 371.648 254.151C371.648 255.042 371.461 255.933 371.098 256.835C370.724 257.737 370.13 258.54 369.316 259.233Z" fill="#3C525E"/>
<path d="M379.815 11H378.814V3.3H379.815V7.018L383.709 3.3H385.018L381.388 6.787L385.282 11H383.962L380.64 7.447L379.815 8.239V11ZM385.13 8.129C385.13 7.26 385.416 6.545 385.977 5.984C386.538 5.423 387.264 5.148 388.155 5.148C389.057 5.148 389.794 5.423 390.355 5.984C390.916 6.545 391.202 7.26 391.202 8.129C391.202 8.998 390.916 9.702 390.355 10.263C389.783 10.824 389.046 11.099 388.155 11.099C387.264 11.099 386.538 10.824 385.977 10.263C385.416 9.702 385.13 8.998 385.13 8.129ZM386.109 8.129C386.109 8.734 386.296 9.24 386.681 9.636C387.066 10.032 387.55 10.23 388.155 10.23C388.76 10.23 389.266 10.032 389.651 9.647C390.036 9.262 390.223 8.756 390.223 8.129C390.223 7.502 390.025 6.996 389.64 6.6C389.244 6.215 388.749 6.017 388.155 6.017C387.561 6.017 387.077 6.215 386.692 6.6C386.307 6.985 386.109 7.502 386.109 8.129ZM396.199 8.492H393.339V7.656H396.177C396.034 6.567 395.297 6.017 394.197 6.017C393.372 6.017 392.756 6.325 392.349 6.93L391.645 6.435C392.25 5.577 393.108 5.148 394.219 5.148C395.132 5.148 395.847 5.412 396.386 5.951C396.914 6.49 397.178 7.216 397.178 8.129C397.178 8.998 396.914 9.713 396.386 10.263C395.858 10.824 395.132 11.099 394.219 11.099C392.998 11.099 392.151 10.703 391.656 9.911L392.349 9.394C392.734 9.955 393.339 10.23 394.142 10.23C395.297 10.23 396.1 9.515 396.199 8.492ZM401.918 13.2H400.994V11.11H400.928C399.971 11.11 399.223 10.835 398.684 10.285C398.134 9.735 397.859 9.02 397.859 8.151C397.859 7.326 398.134 6.633 398.684 6.05C399.234 5.467 399.982 5.181 400.917 5.181H400.994V2.97H401.918V5.181H402.006C402.919 5.181 403.667 5.456 404.228 6.017C404.789 6.578 405.064 7.293 405.064 8.151C405.064 9.02 404.789 9.735 404.25 10.285C403.7 10.835 402.941 11.11 401.984 11.11H401.918V13.2ZM398.838 8.151C398.838 9.427 399.575 10.23 400.928 10.23H400.994V6.061H400.917C399.586 6.061 398.838 6.908 398.838 8.151ZM401.984 6.061H401.918V10.23H401.984C403.359 10.23 404.085 9.438 404.085 8.151C404.085 6.93 403.315 6.061 401.984 6.061ZM409.782 13.2H408.858V11.11H408.792C407.835 11.11 407.087 10.835 406.548 10.285C405.998 9.735 405.723 9.02 405.723 8.151C405.723 7.326 405.998 6.633 406.548 6.05C407.098 5.467 407.846 5.181 408.781 5.181H408.858V2.97H409.782V5.181H409.87C410.783 5.181 411.531 5.456 412.092 6.017C412.653 6.578 412.928 7.293 412.928 8.151C412.928 9.02 412.653 9.735 412.114 10.285C411.564 10.835 410.805 11.11 409.848 11.11H409.782V13.2ZM406.702 8.151C406.702 9.427 407.439 10.23 408.792 10.23H408.858V6.061H408.781C407.45 6.061 406.702 6.908 406.702 8.151ZM409.848 6.061H409.782V10.23H409.848C411.223 10.23 411.949 9.438 411.949 8.151C411.949 6.93 411.179 6.061 409.848 6.061ZM418.261 6.721L414.774 11H413.927V5.28H414.851V9.57L418.327 5.28H419.185V11H418.261V6.721ZM425.506 11H420.523V5.28H421.447V10.12H424.648V5.28H425.572V10.12H426.375V12.386H425.506V11ZM431.517 6.721L428.03 11H427.183V5.28H428.107V9.57L431.583 5.28H432.441V11H431.517V6.721ZM438.2 9.361L438.794 9.911C438.266 10.703 437.507 11.099 436.506 11.099C435.593 11.099 434.856 10.824 434.295 10.285C433.734 9.746 433.459 9.031 433.459 8.129C433.459 7.26 433.712 6.545 434.229 5.984C434.735 5.423 435.45 5.148 436.374 5.148C437.133 5.148 437.771 5.39 438.266 5.863C438.761 6.336 439.014 6.963 439.014 7.744C439.014 7.997 438.992 8.228 438.959 8.437H434.449C434.504 9.57 435.34 10.23 436.539 10.23C437.21 10.23 437.848 9.878 438.2 9.361ZM436.308 5.995C435.263 5.995 434.581 6.633 434.438 7.601H438.035C437.98 6.589 437.331 5.995 436.308 5.995ZM445.189 11H444.265V8.525H440.965V11H440.041V5.28H440.965V7.656H444.265V5.28H445.189V11ZM448.058 6.149H445.869V5.28H451.193V6.149H448.982V11H448.058V6.149ZM457.729 11H455.177V5.28H457.553C459.148 5.28 459.896 5.687 459.896 6.743C459.896 7.271 459.654 7.689 459.159 7.986C459.775 8.173 460.083 8.624 460.083 9.361C460.083 10.428 459.236 11 457.729 11ZM457.74 8.503H456.101V10.142H457.63C458.609 10.142 459.104 9.867 459.104 9.317C459.104 8.778 458.653 8.503 457.74 8.503ZM457.52 6.138H456.101V7.667H457.839C458.51 7.667 458.917 7.392 458.917 6.875C458.917 6.292 458.444 6.138 457.52 6.138ZM463.185 11H461.117V5.28H462.041V7.062H463.273C464.956 7.062 465.627 7.843 465.627 9.02C465.627 10.175 464.89 11 463.185 11ZM463.174 7.942H462.041V10.12H463.163C464.219 10.12 464.648 9.746 464.648 9.031C464.648 8.305 464.153 7.942 463.174 7.942ZM467.376 11H466.441V5.28H467.376V11ZM473.596 2.827L473.761 3.674C473.442 3.795 472.936 3.894 472.221 3.971C471.506 4.048 471.011 4.158 470.736 4.29C469.911 4.697 469.427 5.456 469.306 6.578L469.35 6.589C469.823 5.841 470.593 5.467 471.649 5.467C472.452 5.467 473.101 5.709 473.596 6.182C474.091 6.666 474.333 7.337 474.333 8.184C474.333 9.009 474.058 9.702 473.519 10.263C472.98 10.824 472.276 11.11 471.429 11.11C469.57 11.11 468.415 9.867 468.415 7.678C468.415 6.578 468.558 5.698 468.844 5.027C469.119 4.367 469.625 3.85 470.34 3.487C470.725 3.3 471.297 3.157 472.056 3.08C472.815 3.003 473.332 2.915 473.596 2.827ZM469.394 7.843V7.92C469.394 8.624 469.581 9.185 469.966 9.603C470.34 10.021 470.824 10.23 471.418 10.23C472.001 10.23 472.463 10.043 472.826 9.658C473.178 9.284 473.354 8.811 473.354 8.239C473.354 7.084 472.672 6.347 471.451 6.347C470.395 6.347 469.625 7.018 469.394 7.843ZM476.275 13.2H475.351V5.28H476.275V5.995C476.66 5.434 477.276 5.148 478.123 5.148C478.959 5.148 479.63 5.412 480.125 5.951C480.62 6.49 480.862 7.183 480.862 8.041C480.862 8.921 480.598 9.647 480.07 10.23C479.531 10.813 478.849 11.099 478.013 11.099C477.243 11.099 476.66 10.901 476.275 10.516V13.2ZM478.024 6.017C477.188 6.017 476.539 6.556 476.275 7.205V9.339C476.605 9.933 477.155 10.23 477.936 10.23C478.497 10.23 478.97 10.032 479.333 9.636C479.696 9.24 479.883 8.734 479.883 8.107C479.883 6.831 479.168 6.017 478.024 6.017ZM481.563 8.129C481.563 7.26 481.849 6.545 482.41 5.984C482.971 5.423 483.697 5.148 484.588 5.148C485.49 5.148 486.227 5.423 486.788 5.984C487.349 6.545 487.635 7.26 487.635 8.129C487.635 8.998 487.349 9.702 486.788 10.263C486.216 10.824 485.479 11.099 484.588 11.099C483.697 11.099 482.971 10.824 482.41 10.263C481.849 9.702 481.563 8.998 481.563 8.129ZM482.542 8.129C482.542 8.734 482.729 9.24 483.114 9.636C483.499 10.032 483.983 10.23 484.588 10.23C485.193 10.23 485.699 10.032 486.084 9.647C486.469 9.262 486.656 8.756 486.656 8.129C486.656 7.502 486.458 6.996 486.073 6.6C485.677 6.215 485.182 6.017 484.588 6.017C483.994 6.017 483.51 6.215 483.125 6.6C482.74 6.985 482.542 7.502 482.542 8.129ZM493.093 9.35L493.753 9.823C493.324 10.626 492.356 11.099 491.399 11.099C490.486 11.099 489.749 10.824 489.188 10.285C488.627 9.746 488.341 9.031 488.341 8.129C488.341 7.271 488.616 6.556 489.177 5.995C489.738 5.434 490.453 5.148 491.344 5.148C492.367 5.148 493.28 5.61 493.665 6.314L492.95 6.798C492.565 6.281 492.037 6.017 491.366 6.017C490.772 6.017 490.288 6.215 489.903 6.611C489.518 7.007 489.32 7.513 489.32 8.129C489.32 8.756 489.518 9.262 489.925 9.647C490.321 10.032 490.838 10.23 491.487 10.23C492.169 10.23 492.708 9.933 493.093 9.35ZM494.955 6.655L494.482 5.962C495.01 5.467 495.923 5.148 496.77 5.148C498.299 5.148 499.113 5.984 499.113 7.469V11H498.189V10.153C497.826 10.681 497.111 11.077 496.187 11.077C494.944 11.077 494.108 10.384 494.108 9.328C494.108 8.129 495.131 7.557 496.847 7.557C497.386 7.557 497.826 7.612 498.189 7.722C498.189 6.611 497.793 6.017 496.66 6.017C496.088 6.017 495.516 6.226 494.955 6.655ZM496.407 10.241C496.836 10.241 497.221 10.12 497.54 9.889C497.859 9.658 498.068 9.394 498.189 9.119V8.536C497.87 8.426 497.463 8.371 496.968 8.371C495.714 8.371 495.087 8.679 495.087 9.295C495.087 9.878 495.615 10.241 496.407 10.241ZM509.805 9.108L510.377 9.746C509.794 10.571 508.628 11.099 507.385 11.099C506.175 11.099 505.207 10.736 504.492 10.021C503.777 9.306 503.414 8.349 503.414 7.15C503.414 6.017 503.777 5.082 504.492 4.323C505.207 3.575 506.142 3.201 507.308 3.201C508.628 3.201 509.706 3.729 510.267 4.477L509.618 5.104C508.991 4.477 508.221 4.158 507.33 4.158C506.439 4.158 505.746 4.433 505.229 4.983C504.712 5.533 504.459 6.259 504.459 7.15C504.459 8.052 504.734 8.778 505.284 9.317C505.834 9.867 506.56 10.142 507.451 10.142C508.408 10.142 509.189 9.801 509.805 9.108ZM510.697 7.15C510.697 6.039 511.071 5.093 511.83 4.334C512.589 3.575 513.513 3.201 514.613 3.201C515.702 3.201 516.626 3.575 517.385 4.323C518.144 5.071 518.518 6.017 518.518 7.15C518.518 8.272 518.144 9.207 517.385 9.966C516.626 10.725 515.702 11.099 514.613 11.099C513.513 11.099 512.589 10.725 511.83 9.977C511.071 9.229 510.697 8.283 510.697 7.15ZM511.742 7.15C511.742 8.008 512.028 8.723 512.589 9.284C513.15 9.856 513.821 10.142 514.613 10.142C515.427 10.142 516.109 9.856 516.659 9.295C517.198 8.734 517.473 8.019 517.473 7.15C517.473 6.281 517.198 5.566 516.637 5.005C516.076 4.444 515.394 4.158 514.613 4.158C513.81 4.158 513.139 4.444 512.578 5.005C512.017 5.566 511.742 6.281 511.742 7.15ZM519.983 8.965L519.345 8.602C519.642 7.898 520.39 7.425 521.237 7.425C522.26 7.425 522.909 7.942 522.909 8.767C522.909 9.548 522.414 10.252 521.413 10.879L520.731 11.319H523.107V12.1H519.367V11.418L520.456 10.714C521.457 10.054 522.04 9.515 522.04 8.932C522.04 8.448 521.754 8.206 521.193 8.206C520.665 8.206 520.258 8.459 519.983 8.965Z" fill="#1A3341"/>
<path d="M381.366 28.606L380.739 29.244C379.925 28.54 379.331 27.737 378.957 26.835C378.583 25.933 378.396 25.042 378.396 24.151C378.396 22.391 379.089 20.532 380.75 19.047L381.355 19.685C380.013 20.939 379.342 22.424 379.342 24.151C379.342 25.79 380.09 27.374 381.366 28.606ZM383.68 22.149H381.491V21.28H386.815V22.149H384.604V27H383.68V22.149ZM386.967 24.129C386.967 23.26 387.253 22.545 387.814 21.984C388.375 21.423 389.101 21.148 389.992 21.148C390.894 21.148 391.631 21.423 392.192 21.984C392.753 22.545 393.039 23.26 393.039 24.129C393.039 24.998 392.753 25.702 392.192 26.263C391.62 26.824 390.883 27.099 389.992 27.099C389.101 27.099 388.375 26.824 387.814 26.263C387.253 25.702 386.967 24.998 386.967 24.129ZM387.946 24.129C387.946 24.734 388.133 25.24 388.518 25.636C388.903 26.032 389.387 26.23 389.992 26.23C390.597 26.23 391.103 26.032 391.488 25.647C391.873 25.262 392.06 24.756 392.06 24.129C392.06 23.502 391.862 22.996 391.477 22.6C391.081 22.215 390.586 22.017 389.992 22.017C389.398 22.017 388.914 22.215 388.529 22.6C388.144 22.985 387.946 23.502 387.946 24.129ZM399.213 27H398.289V24.525H394.989V27H394.065V21.28H394.989V23.656H398.289V21.28H399.213V27ZM405.701 27H404.777V24.525H401.477V27H400.553V21.28H401.477V23.656H404.777V21.28H405.701V27ZM416.455 25.108L417.027 25.746C416.444 26.571 415.278 27.099 414.035 27.099C412.825 27.099 411.857 26.736 411.142 26.021C410.427 25.306 410.064 24.349 410.064 23.15C410.064 22.017 410.427 21.082 411.142 20.323C411.857 19.575 412.792 19.201 413.958 19.201C415.278 19.201 416.356 19.729 416.917 20.477L416.268 21.104C415.641 20.477 414.871 20.158 413.98 20.158C413.089 20.158 412.396 20.433 411.879 20.983C411.362 21.533 411.109 22.259 411.109 23.15C411.109 24.052 411.384 24.778 411.934 25.317C412.484 25.867 413.21 26.142 414.101 26.142C415.058 26.142 415.839 25.801 416.455 25.108ZM417.347 23.15C417.347 22.039 417.721 21.093 418.48 20.334C419.239 19.575 420.163 19.201 421.263 19.201C422.352 19.201 423.276 19.575 424.035 20.323C424.794 21.071 425.168 22.017 425.168 23.15C425.168 24.272 424.794 25.207 424.035 25.966C423.276 26.725 422.352 27.099 421.263 27.099C420.163 27.099 419.239 26.725 418.48 25.977C417.721 25.229 417.347 24.283 417.347 23.15ZM418.392 23.15C418.392 24.008 418.678 24.723 419.239 25.284C419.8 25.856 420.471 26.142 421.263 26.142C422.077 26.142 422.759 25.856 423.309 25.295C423.848 24.734 424.123 24.019 424.123 23.15C424.123 22.281 423.848 21.566 423.287 21.005C422.726 20.444 422.044 20.158 421.263 20.158C420.46 20.158 419.789 20.444 419.228 21.005C418.667 21.566 418.392 22.281 418.392 23.15ZM426.633 24.965L425.995 24.602C426.292 23.898 427.04 23.425 427.887 23.425C428.91 23.425 429.559 23.942 429.559 24.767C429.559 25.548 429.064 26.252 428.063 26.879L427.381 27.319H429.757V28.1H426.017V27.418L427.106 26.714C428.107 26.054 428.69 25.515 428.69 24.932C428.69 24.448 428.404 24.206 427.843 24.206C427.315 24.206 426.908 24.459 426.633 24.965ZM433.891 29.255L433.077 28.947L436.729 19.157L437.543 19.421L433.891 29.255ZM442.666 22.149H440.477V21.28H445.801V22.149H443.59V27H442.666V22.149ZM454.118 22.721L450.631 27H449.784V21.28H450.708V25.57L454.184 21.28H455.042V27H454.118V22.721ZM461.352 27H460.428V22.16H458.008V22.424C458.008 24.272 457.799 25.548 457.381 26.208C456.963 26.868 456.446 27.088 455.731 27V26.12C456.468 26.12 457.084 25.801 457.084 22.457V21.28H461.352V27ZM467.03 22.721L463.543 27H462.696V21.28H463.62V25.57L467.096 21.28H467.954V27H467.03V22.721ZM474.119 22.149H471.93V21.28H477.254V22.149H475.043V27H474.119V22.149ZM480.008 27H477.94V21.28H478.864V23.062H480.096C481.779 23.062 482.45 23.843 482.45 25.02C482.45 26.175 481.713 27 480.008 27ZM479.997 23.942H478.864V26.12H479.986C481.042 26.12 481.471 25.746 481.471 25.031C481.471 24.305 480.976 23.942 479.997 23.942ZM484.199 27H483.264V21.28H484.199V27ZM489.967 25.35L490.627 25.823C490.198 26.626 489.23 27.099 488.273 27.099C487.36 27.099 486.623 26.824 486.062 26.285C485.501 25.746 485.215 25.031 485.215 24.129C485.215 23.271 485.49 22.556 486.051 21.995C486.612 21.434 487.327 21.148 488.218 21.148C489.241 21.148 490.154 21.61 490.539 22.314L489.824 22.798C489.439 22.281 488.911 22.017 488.24 22.017C487.646 22.017 487.162 22.215 486.777 22.611C486.392 23.007 486.194 23.513 486.194 24.129C486.194 24.756 486.392 25.262 486.799 25.647C487.195 26.032 487.712 26.23 488.361 26.23C489.043 26.23 489.582 25.933 489.967 25.35ZM493.666 21.28H495.965V27H495.041V24.976H493.644L491.95 27H490.828L492.654 24.833C491.774 24.668 491.191 23.997 491.191 23.117C491.191 22.028 491.95 21.28 493.666 21.28ZM492.17 23.139C492.17 23.7 492.698 24.096 493.534 24.096H495.041V22.16H493.556C492.632 22.16 492.17 22.49 492.17 23.139ZM501.015 21.28H501.939V27H501.015V24.591C500.597 25.009 500.014 25.218 499.266 25.218C497.759 25.218 497.011 24.459 497.011 22.941V21.28H497.935V22.688C497.935 23.843 498.419 24.338 499.431 24.338C500.091 24.338 500.718 23.986 501.015 23.557V21.28ZM507.502 27H506.578V21.28H507.425L509.537 24.074L511.594 21.28H512.386V27H511.462V22.908L509.526 25.548L507.502 22.908V27ZM514.162 20.411L513.557 19.982C513.942 19.344 514.58 19.025 515.471 19.025C516.494 19.025 517.143 19.465 517.143 20.18C517.143 20.697 516.901 21.049 516.406 21.247C516.989 21.39 517.275 21.764 517.275 22.369C517.275 23.238 516.461 23.755 515.394 23.755C514.558 23.755 513.766 23.37 513.425 22.677L514.085 22.259C514.272 22.688 514.811 22.974 515.394 22.974C516.065 22.974 516.395 22.765 516.395 22.336C516.395 21.918 516.065 21.709 515.405 21.709H514.8V21.005H515.284C515.9 21.005 516.274 20.763 516.274 20.356C516.274 19.993 515.999 19.806 515.449 19.806C514.833 19.806 514.47 19.982 514.162 20.411ZM380.2 38.149H378.011V37.28H383.335V38.149H381.124V43H380.2V38.149ZM383.487 40.129C383.487 39.26 383.773 38.545 384.334 37.984C384.895 37.423 385.621 37.148 386.512 37.148C387.414 37.148 388.151 37.423 388.712 37.984C389.273 38.545 389.559 39.26 389.559 40.129C389.559 40.998 389.273 41.702 388.712 42.263C388.14 42.824 387.403 43.099 386.512 43.099C385.621 43.099 384.895 42.824 384.334 42.263C383.773 41.702 383.487 40.998 383.487 40.129ZM384.466 40.129C384.466 40.734 384.653 41.24 385.038 41.636C385.423 42.032 385.907 42.23 386.512 42.23C387.117 42.23 387.623 42.032 388.008 41.647C388.393 41.262 388.58 40.756 388.58 40.129C388.58 39.502 388.382 38.996 387.997 38.6C387.601 38.215 387.106 38.017 386.512 38.017C385.918 38.017 385.434 38.215 385.049 38.6C384.664 38.985 384.466 39.502 384.466 40.129ZM395.666 43H394.742V38.149H391.508V43H390.584V37.28H395.666V43ZM401.98 43H401.056V38.16H398.636V38.424C398.636 40.272 398.427 41.548 398.009 42.208C397.591 42.868 397.074 43.088 396.359 43V42.12C397.096 42.12 397.712 41.801 397.712 38.457V37.28H401.98V43ZM407.658 38.721L404.171 43H403.324V37.28H404.248V41.57L407.724 37.28H408.582V43H407.658V38.721ZM412.472 43H409.92V37.28H412.296C413.891 37.28 414.639 37.687 414.639 38.743C414.639 39.271 414.397 39.689 413.902 39.986C414.518 40.173 414.826 40.624 414.826 41.361C414.826 42.428 413.979 43 412.472 43ZM412.483 40.503H410.844V42.142H412.373C413.352 42.142 413.847 41.867 413.847 41.317C413.847 40.778 413.396 40.503 412.483 40.503ZM412.263 38.138H410.844V39.667H412.582C413.253 39.667 413.66 39.392 413.66 38.875C413.66 38.292 413.187 38.138 412.263 38.138ZM416.343 38.655L415.87 37.962C416.398 37.467 417.311 37.148 418.158 37.148C419.687 37.148 420.501 37.984 420.501 39.469V43H419.577V42.153C419.214 42.681 418.499 43.077 417.575 43.077C416.332 43.077 415.496 42.384 415.496 41.328C415.496 40.129 416.519 39.557 418.235 39.557C418.774 39.557 419.214 39.612 419.577 39.722C419.577 38.611 419.181 38.017 418.048 38.017C417.476 38.017 416.904 38.226 416.343 38.655ZM417.795 42.241C418.224 42.241 418.609 42.12 418.928 41.889C419.247 41.658 419.456 41.394 419.577 41.119V40.536C419.258 40.426 418.851 40.371 418.356 40.371C417.102 40.371 416.475 40.679 416.475 41.295C416.475 41.878 417.003 42.241 417.795 42.241ZM422.318 43C421.911 43.044 421.603 42.813 421.603 42.417C421.603 42.032 421.845 41.79 422.274 41.79C422.758 41.79 423.077 42.12 423.077 42.736C423.077 43.836 422.472 44.397 421.669 44.584L421.438 44.067C421.68 44.001 421.9 43.869 422.098 43.66C422.285 43.451 422.362 43.231 422.318 43ZM428.475 38.149H426.286V37.28H431.61V38.149H429.399V43H428.475V38.149ZM431.762 40.129C431.762 39.26 432.048 38.545 432.609 37.984C433.17 37.423 433.896 37.148 434.787 37.148C435.689 37.148 436.426 37.423 436.987 37.984C437.548 38.545 437.834 39.26 437.834 40.129C437.834 40.998 437.548 41.702 436.987 42.263C436.415 42.824 435.678 43.099 434.787 43.099C433.896 43.099 433.17 42.824 432.609 42.263C432.048 41.702 431.762 40.998 431.762 40.129ZM432.741 40.129C432.741 40.734 432.928 41.24 433.313 41.636C433.698 42.032 434.182 42.23 434.787 42.23C435.392 42.23 435.898 42.032 436.283 41.647C436.668 41.262 436.855 40.756 436.855 40.129C436.855 39.502 436.657 38.996 436.272 38.6C435.876 38.215 435.381 38.017 434.787 38.017C434.193 38.017 433.709 38.215 433.324 38.6C432.939 38.985 432.741 39.502 432.741 40.129ZM444.007 43H443.083V40.525H439.783V43H438.859V37.28H439.783V39.656H443.083V37.28H444.007V43ZM450.496 43H449.572V40.525H446.272V43H445.348V37.28H446.272V39.656H449.572V37.28H450.496V43ZM461.25 41.108L461.822 41.746C461.239 42.571 460.073 43.099 458.83 43.099C457.62 43.099 456.652 42.736 455.937 42.021C455.222 41.306 454.859 40.349 454.859 39.15C454.859 38.017 455.222 37.082 455.937 36.323C456.652 35.575 457.587 35.201 458.753 35.201C460.073 35.201 461.151 35.729 461.712 36.477L461.063 37.104C460.436 36.477 459.666 36.158 458.775 36.158C457.884 36.158 457.191 36.433 456.674 36.983C456.157 37.533 455.904 38.259 455.904 39.15C455.904 40.052 456.179 40.778 456.729 41.317C457.279 41.867 458.005 42.142 458.896 42.142C459.853 42.142 460.634 41.801 461.25 41.108ZM462.142 39.15C462.142 38.039 462.516 37.093 463.275 36.334C464.034 35.575 464.958 35.201 466.058 35.201C467.147 35.201 468.071 35.575 468.83 36.323C469.589 37.071 469.963 38.017 469.963 39.15C469.963 40.272 469.589 41.207 468.83 41.966C468.071 42.725 467.147 43.099 466.058 43.099C464.958 43.099 464.034 42.725 463.275 41.977C462.516 41.229 462.142 40.283 462.142 39.15ZM463.187 39.15C463.187 40.008 463.473 40.723 464.034 41.284C464.595 41.856 465.266 42.142 466.058 42.142C466.872 42.142 467.554 41.856 468.104 41.295C468.643 40.734 468.918 40.019 468.918 39.15C468.918 38.281 468.643 37.566 468.082 37.005C467.521 36.444 466.839 36.158 466.058 36.158C465.255 36.158 464.584 36.444 464.023 37.005C463.462 37.566 463.187 38.281 463.187 39.15ZM471.428 40.965L470.79 40.602C471.087 39.898 471.835 39.425 472.682 39.425C473.705 39.425 474.354 39.942 474.354 40.767C474.354 41.548 473.859 42.252 472.858 42.879L472.176 43.319H474.552V44.1H470.812V43.418L471.901 42.714C472.902 42.054 473.485 41.515 473.485 40.932C473.485 40.448 473.199 40.206 472.638 40.206C472.11 40.206 471.703 40.459 471.428 40.965ZM478.686 45.255L477.872 44.947L481.524 35.157L482.338 35.421L478.686 45.255ZM487.076 43H486.075V35.3H491.553V36.235H487.076V43ZM491.647 43H490.723V37.28H491.647V39.843L494.54 37.28H495.783L492.824 39.909L495.926 43H494.694L492.12 40.481L491.647 40.921V43ZM496.888 38.655L496.415 37.962C496.943 37.467 497.856 37.148 498.703 37.148C500.232 37.148 501.046 37.984 501.046 39.469V43H500.122V42.153C499.759 42.681 499.044 43.077 498.12 43.077C496.877 43.077 496.041 42.384 496.041 41.328C496.041 40.129 497.064 39.557 498.78 39.557C499.319 39.557 499.759 39.612 500.122 39.722C500.122 38.611 499.726 38.017 498.593 38.017C498.021 38.017 497.449 38.226 496.888 38.655ZM498.34 42.241C498.769 42.241 499.154 42.12 499.473 41.889C499.792 41.658 500.001 41.394 500.122 41.119V40.536C499.803 40.426 499.396 40.371 498.901 40.371C497.647 40.371 497.02 40.679 497.02 41.295C497.02 41.878 497.548 42.241 498.34 42.241ZM507.296 43H506.372V38.16H503.952V38.424C503.952 40.272 503.743 41.548 503.325 42.208C502.907 42.868 502.39 43.088 501.675 43V42.12C502.412 42.12 503.028 41.801 503.028 38.457V37.28H507.296V43ZM380.2 54.149H378.011V53.28H383.335V54.149H381.124V59H380.2V54.149ZM388.228 57.361L388.822 57.911C388.294 58.703 387.535 59.099 386.534 59.099C385.621 59.099 384.884 58.824 384.323 58.285C383.762 57.746 383.487 57.031 383.487 56.129C383.487 55.26 383.74 54.545 384.257 53.984C384.763 53.423 385.478 53.148 386.402 53.148C387.161 53.148 387.799 53.39 388.294 53.863C388.789 54.336 389.042 54.963 389.042 55.744C389.042 55.997 389.02 56.228 388.987 56.437H384.477C384.532 57.57 385.368 58.23 386.567 58.23C387.238 58.23 387.876 57.878 388.228 57.361ZM386.336 53.995C385.291 53.995 384.609 54.633 384.466 55.601H388.063C388.008 54.589 387.359 53.995 386.336 53.995ZM395.15 59H394.226V54.149H390.992V59H390.068V53.28H395.15V59ZM401.464 59H400.54V54.16H398.12V54.424C398.12 56.272 397.911 57.548 397.493 58.208C397.075 58.868 396.558 59.088 395.843 59V58.12C396.58 58.12 397.196 57.801 397.196 54.457V53.28H401.464V59ZM402.49 56.129C402.49 55.26 402.776 54.545 403.337 53.984C403.898 53.423 404.624 53.148 405.515 53.148C406.417 53.148 407.154 53.423 407.715 53.984C408.276 54.545 408.562 55.26 408.562 56.129C408.562 56.998 408.276 57.702 407.715 58.263C407.143 58.824 406.406 59.099 405.515 59.099C404.624 59.099 403.898 58.824 403.337 58.263C402.776 57.702 402.49 56.998 402.49 56.129ZM403.469 56.129C403.469 56.734 403.656 57.24 404.041 57.636C404.426 58.032 404.91 58.23 405.515 58.23C406.12 58.23 406.626 58.032 407.011 57.647C407.396 57.262 407.583 56.756 407.583 56.129C407.583 55.502 407.385 54.996 407 54.6C406.604 54.215 406.109 54.017 405.515 54.017C404.921 54.017 404.437 54.215 404.052 54.6C403.667 54.985 403.469 55.502 403.469 56.129ZM412.139 59H409.587V53.28H411.963C413.558 53.28 414.306 53.687 414.306 54.743C414.306 55.271 414.064 55.689 413.569 55.986C414.185 56.173 414.493 56.624 414.493 57.361C414.493 58.428 413.646 59 412.139 59ZM412.15 56.503H410.511V58.142H412.04C413.019 58.142 413.514 57.867 413.514 57.317C413.514 56.778 413.063 56.503 412.15 56.503ZM411.93 54.138H410.511V55.667H412.249C412.92 55.667 413.327 55.392 413.327 54.875C413.327 54.292 412.854 54.138 411.93 54.138ZM415.208 56.129C415.208 55.26 415.494 54.545 416.055 53.984C416.616 53.423 417.342 53.148 418.233 53.148C419.135 53.148 419.872 53.423 420.433 53.984C420.994 54.545 421.28 55.26 421.28 56.129C421.28 56.998 420.994 57.702 420.433 58.263C419.861 58.824 419.124 59.099 418.233 59.099C417.342 59.099 416.616 58.824 416.055 58.263C415.494 57.702 415.208 56.998 415.208 56.129ZM416.187 56.129C416.187 56.734 416.374 57.24 416.759 57.636C417.144 58.032 417.628 58.23 418.233 58.23C418.838 58.23 419.344 58.032 419.729 57.647C420.114 57.262 420.301 56.756 420.301 56.129C420.301 55.502 420.103 54.996 419.718 54.6C419.322 54.215 418.827 54.017 418.233 54.017C417.639 54.017 417.155 54.215 416.77 54.6C416.385 54.985 416.187 55.502 416.187 56.129ZM426.64 54.721L423.153 59H422.306V53.28H423.23V57.57L426.706 53.28H427.564V59H426.64V54.721ZM423.186 50.816H424.055C424.066 51.355 424.418 51.718 425.034 51.718C425.617 51.718 425.98 51.355 425.98 50.816H426.849C426.838 51.817 426.057 52.455 425.034 52.455C423.934 52.455 423.197 51.828 423.186 50.816ZM436.17 56.492H433.31V55.656H436.148C436.005 54.567 435.268 54.017 434.168 54.017C433.343 54.017 432.727 54.325 432.32 54.93L431.616 54.435C432.221 53.577 433.079 53.148 434.19 53.148C435.103 53.148 435.818 53.412 436.357 53.951C436.885 54.49 437.149 55.216 437.149 56.129C437.149 56.998 436.885 57.713 436.357 58.263C435.829 58.824 435.103 59.099 434.19 59.099C432.969 59.099 432.122 58.703 431.627 57.911L432.32 57.394C432.705 57.955 433.31 58.23 434.113 58.23C435.268 58.23 436.071 57.515 436.17 56.492ZM443.32 59H442.396V56.525H439.096V59H438.172V53.28H439.096V55.656H442.396V53.28H443.32V59ZM449.082 57.361L449.676 57.911C449.148 58.703 448.389 59.099 447.388 59.099C446.475 59.099 445.738 58.824 445.177 58.285C444.616 57.746 444.341 57.031 444.341 56.129C444.341 55.26 444.594 54.545 445.111 53.984C445.617 53.423 446.332 53.148 447.256 53.148C448.015 53.148 448.653 53.39 449.148 53.863C449.643 54.336 449.896 54.963 449.896 55.744C449.896 55.997 449.874 56.228 449.841 56.437H445.331C445.386 57.57 446.222 58.23 447.421 58.23C448.092 58.23 448.73 57.878 449.082 57.361ZM447.19 53.995C446.145 53.995 445.463 54.633 445.32 55.601H448.917C448.862 54.589 448.213 53.995 447.19 53.995ZM451.847 61.2H450.923V53.28H451.847V53.995C452.232 53.434 452.848 53.148 453.695 53.148C454.531 53.148 455.202 53.412 455.697 53.951C456.192 54.49 456.434 55.183 456.434 56.041C456.434 56.921 456.17 57.647 455.642 58.23C455.103 58.813 454.421 59.099 453.585 59.099C452.815 59.099 452.232 58.901 451.847 58.516V61.2ZM453.596 54.017C452.76 54.017 452.111 54.556 451.847 55.205V57.339C452.177 57.933 452.727 58.23 453.508 58.23C454.069 58.23 454.542 58.032 454.905 57.636C455.268 57.24 455.455 56.734 455.455 56.107C455.455 54.831 454.74 54.017 453.596 54.017ZM458.378 59H457.454V53.28H461.623V54.149H458.378V59ZM466.654 54.721L463.167 59H462.32V53.28H463.244V57.57L466.72 53.28H467.578V59H466.654V54.721ZM473.25 54.721L469.763 59H468.916V53.28H469.84V57.57L473.316 53.28H474.174V59H473.25V54.721ZM476.051 59C475.644 59.044 475.336 58.813 475.336 58.417C475.336 58.032 475.578 57.79 476.007 57.79C476.491 57.79 476.81 58.12 476.81 58.736C476.81 59.836 476.205 60.397 475.402 60.584L475.171 60.067C475.413 60.001 475.633 59.869 475.831 59.66C476.018 59.451 476.095 59.231 476.051 59ZM481.603 59H480.679V53.28H481.603V55.843L484.496 53.28H485.739L482.78 55.909L485.882 59H484.65L482.076 56.481L481.603 56.921V59ZM487.393 59H486.469V53.28H490.638V54.149H487.393V59ZM500.749 57.108L501.321 57.746C500.738 58.571 499.572 59.099 498.329 59.099C497.119 59.099 496.151 58.736 495.436 58.021C494.721 57.306 494.358 56.349 494.358 55.15C494.358 54.017 494.721 53.082 495.436 52.323C496.151 51.575 497.086 51.201 498.252 51.201C499.572 51.201 500.65 51.729 501.211 52.477L500.562 53.104C499.935 52.477 499.165 52.158 498.274 52.158C497.383 52.158 496.69 52.433 496.173 52.983C495.656 53.533 495.403 54.259 495.403 55.15C495.403 56.052 495.678 56.778 496.228 57.317C496.778 57.867 497.504 58.142 498.395 58.142C499.352 58.142 500.133 57.801 500.749 57.108ZM501.641 55.15C501.641 54.039 502.015 53.093 502.774 52.334C503.533 51.575 504.457 51.201 505.557 51.201C506.646 51.201 507.57 51.575 508.329 52.323C509.088 53.071 509.462 54.017 509.462 55.15C509.462 56.272 509.088 57.207 508.329 57.966C507.57 58.725 506.646 59.099 505.557 59.099C504.457 59.099 503.533 58.725 502.774 57.977C502.015 57.229 501.641 56.283 501.641 55.15ZM502.686 55.15C502.686 56.008 502.972 56.723 503.533 57.284C504.094 57.856 504.765 58.142 505.557 58.142C506.371 58.142 507.053 57.856 507.603 57.295C508.142 56.734 508.417 56.019 508.417 55.15C508.417 54.281 508.142 53.566 507.581 53.005C507.02 52.444 506.338 52.158 505.557 52.158C504.754 52.158 504.083 52.444 503.522 53.005C502.961 53.566 502.686 54.281 502.686 55.15ZM510.927 56.965L510.289 56.602C510.586 55.898 511.334 55.425 512.181 55.425C513.204 55.425 513.853 55.942 513.853 56.767C513.853 57.548 513.358 58.252 512.357 58.879L511.675 59.319H514.051V60.1H510.311V59.418L511.4 58.714C512.401 58.054 512.984 57.515 512.984 56.932C512.984 56.448 512.698 56.206 512.137 56.206C511.609 56.206 511.202 56.459 510.927 56.965ZM518.185 61.255L517.371 60.947L521.023 51.157L521.837 51.421L518.185 61.255ZM526.355 59H525.431V53.28H526.355V55.843L529.248 53.28H530.491L527.532 55.909L530.634 59H529.402L526.828 56.481L526.355 56.921V59ZM534.422 59H531.364V51.3H534.477C536.446 51.3 537.194 52.015 537.194 53.214C537.194 54.072 536.831 54.655 536.105 54.974C536.952 55.15 537.469 55.799 537.469 56.8C537.469 58.307 536.347 59 534.422 59ZM534.521 55.524H532.365V58.065H534.411C535.808 58.065 536.435 57.658 536.435 56.745C536.435 55.931 535.797 55.524 534.521 55.524ZM534.389 52.235H532.365V54.611H534.554C535.533 54.611 536.171 54.171 536.171 53.423C536.171 52.598 535.698 52.235 534.389 52.235ZM540.151 54.149H537.962V53.28H543.286V54.149H541.075V59H540.151V54.149ZM381.223 75H378.671V69.28H381.047C382.642 69.28 383.39 69.687 383.39 70.743C383.39 71.271 383.148 71.689 382.653 71.986C383.269 72.173 383.577 72.624 383.577 73.361C383.577 74.428 382.73 75 381.223 75ZM381.234 72.503H379.595V74.142H381.124C382.103 74.142 382.598 73.867 382.598 73.317C382.598 72.778 382.147 72.503 381.234 72.503ZM381.014 70.138H379.595V71.667H381.333C382.004 71.667 382.411 71.392 382.411 70.875C382.411 70.292 381.938 70.138 381.014 70.138ZM391.616 69.28H392.54V75H391.616V72.591C391.198 73.009 390.615 73.218 389.867 73.218C388.36 73.218 387.612 72.459 387.612 70.941V69.28H388.536V70.688C388.536 71.843 389.02 72.338 390.032 72.338C390.692 72.338 391.319 71.986 391.616 71.557V69.28ZM394.322 70.655L393.849 69.962C394.377 69.467 395.29 69.148 396.137 69.148C397.666 69.148 398.48 69.984 398.48 71.469V75H397.556V74.153C397.193 74.681 396.478 75.077 395.554 75.077C394.311 75.077 393.475 74.384 393.475 73.328C393.475 72.129 394.498 71.557 396.214 71.557C396.753 71.557 397.193 71.612 397.556 71.722C397.556 70.611 397.16 70.017 396.027 70.017C395.455 70.017 394.883 70.226 394.322 70.655ZM395.774 74.241C396.203 74.241 396.588 74.12 396.907 73.889C397.226 73.658 397.435 73.394 397.556 73.119V72.536C397.237 72.426 396.83 72.371 396.335 72.371C395.081 72.371 394.454 72.679 394.454 73.295C394.454 73.878 394.982 74.241 395.774 74.241ZM404.191 73.35L404.851 73.823C404.422 74.626 403.454 75.099 402.497 75.099C401.584 75.099 400.847 74.824 400.286 74.285C399.725 73.746 399.439 73.031 399.439 72.129C399.439 71.271 399.714 70.556 400.275 69.995C400.836 69.434 401.551 69.148 402.442 69.148C403.465 69.148 404.378 69.61 404.763 70.314L404.048 70.798C403.663 70.281 403.135 70.017 402.464 70.017C401.87 70.017 401.386 70.215 401.001 70.611C400.616 71.007 400.418 71.513 400.418 72.129C400.418 72.756 400.616 73.262 401.023 73.647C401.419 74.032 401.936 74.23 402.585 74.23C403.267 74.23 403.806 73.933 404.191 73.35ZM412.881 72.492H410.021V71.656H412.859C412.716 70.567 411.979 70.017 410.879 70.017C410.054 70.017 409.438 70.325 409.031 70.93L408.327 70.435C408.932 69.577 409.79 69.148 410.901 69.148C411.814 69.148 412.529 69.412 413.068 69.951C413.596 70.49 413.86 71.216 413.86 72.129C413.86 72.998 413.596 73.713 413.068 74.263C412.54 74.824 411.814 75.099 410.901 75.099C409.68 75.099 408.833 74.703 408.338 73.911L409.031 73.394C409.416 73.955 410.021 74.23 410.824 74.23C411.979 74.23 412.782 73.515 412.881 72.492ZM419.726 75H418.802V70.16H416.382V70.424C416.382 72.272 416.173 73.548 415.755 74.208C415.337 74.868 414.82 75.088 414.105 75V74.12C414.842 74.12 415.458 73.801 415.458 70.457V69.28H419.726V75ZM425.492 73.361L426.086 73.911C425.558 74.703 424.799 75.099 423.798 75.099C422.885 75.099 422.148 74.824 421.587 74.285C421.026 73.746 420.751 73.031 420.751 72.129C420.751 71.26 421.004 70.545 421.521 69.984C422.027 69.423 422.742 69.148 423.666 69.148C424.425 69.148 425.063 69.39 425.558 69.863C426.053 70.336 426.306 70.963 426.306 71.744C426.306 71.997 426.284 72.228 426.251 72.437H421.741C421.796 73.57 422.632 74.23 423.831 74.23C424.502 74.23 425.14 73.878 425.492 73.361ZM423.6 69.995C422.555 69.995 421.873 70.633 421.73 71.601H425.327C425.272 70.589 424.623 69.995 423.6 69.995ZM428.257 75H427.333V69.28H428.257V71.843L431.15 69.28H432.393L429.434 71.909L432.536 75H431.304L428.73 72.481L428.257 72.921V75ZM434.652 70.149H432.463V69.28H437.787V70.149H435.576V75H434.652V70.149ZM439.397 77.2H438.473V69.28H439.397V69.995C439.782 69.434 440.398 69.148 441.245 69.148C442.081 69.148 442.752 69.412 443.247 69.951C443.742 70.49 443.984 71.183 443.984 72.041C443.984 72.921 443.72 73.647 443.192 74.23C442.653 74.813 441.971 75.099 441.135 75.099C440.365 75.099 439.782 74.901 439.397 74.516V77.2ZM441.146 70.017C440.31 70.017 439.661 70.556 439.397 71.205V73.339C439.727 73.933 440.277 74.23 441.058 74.23C441.619 74.23 442.092 74.032 442.455 73.636C442.818 73.24 443.005 72.734 443.005 72.107C443.005 70.831 442.29 70.017 441.146 70.017ZM444.685 72.129C444.685 71.26 444.971 70.545 445.532 69.984C446.093 69.423 446.819 69.148 447.71 69.148C448.612 69.148 449.349 69.423 449.91 69.984C450.471 70.545 450.757 71.26 450.757 72.129C450.757 72.998 450.471 73.702 449.91 74.263C449.338 74.824 448.601 75.099 447.71 75.099C446.819 75.099 446.093 74.824 445.532 74.263C444.971 73.702 444.685 72.998 444.685 72.129ZM445.664 72.129C445.664 72.734 445.851 73.24 446.236 73.636C446.621 74.032 447.105 74.23 447.71 74.23C448.315 74.23 448.821 74.032 449.206 73.647C449.591 73.262 449.778 72.756 449.778 72.129C449.778 71.502 449.58 70.996 449.195 70.6C448.799 70.215 448.304 70.017 447.71 70.017C447.116 70.017 446.632 70.215 446.247 70.6C445.862 70.985 445.664 71.502 445.664 72.129ZM455.753 72.492H452.893V71.656H455.731C455.588 70.567 454.851 70.017 453.751 70.017C452.926 70.017 452.31 70.325 451.903 70.93L451.199 70.435C451.804 69.577 452.662 69.148 453.773 69.148C454.686 69.148 455.401 69.412 455.94 69.951C456.468 70.49 456.732 71.216 456.732 72.129C456.732 72.998 456.468 73.713 455.94 74.263C455.412 74.824 454.686 75.099 453.773 75.099C452.552 75.099 451.705 74.703 451.21 73.911L451.903 73.394C452.288 73.955 452.893 74.23 453.696 74.23C454.851 74.23 455.654 73.515 455.753 72.492ZM462.903 75H461.979V72.525H458.679V75H457.755V69.28H458.679V71.656H461.979V69.28H462.903V75ZM468.665 73.361L469.259 73.911C468.731 74.703 467.972 75.099 466.971 75.099C466.058 75.099 465.321 74.824 464.76 74.285C464.199 73.746 463.924 73.031 463.924 72.129C463.924 71.26 464.177 70.545 464.694 69.984C465.2 69.423 465.915 69.148 466.839 69.148C467.598 69.148 468.236 69.39 468.731 69.863C469.226 70.336 469.479 70.963 469.479 71.744C469.479 71.997 469.457 72.228 469.424 72.437H464.914C464.969 73.57 465.805 74.23 467.004 74.23C467.675 74.23 468.313 73.878 468.665 73.361ZM466.773 69.995C465.728 69.995 465.046 70.633 464.903 71.601H468.5C468.445 70.589 467.796 69.995 466.773 69.995ZM471.43 77.2H470.506V69.28H471.43V69.995C471.815 69.434 472.431 69.148 473.278 69.148C474.114 69.148 474.785 69.412 475.28 69.951C475.775 70.49 476.017 71.183 476.017 72.041C476.017 72.921 475.753 73.647 475.225 74.23C474.686 74.813 474.004 75.099 473.168 75.099C472.398 75.099 471.815 74.901 471.43 74.516V77.2ZM473.179 70.017C472.343 70.017 471.694 70.556 471.43 71.205V73.339C471.76 73.933 472.31 74.23 473.091 74.23C473.652 74.23 474.125 74.032 474.488 73.636C474.851 73.24 475.038 72.734 475.038 72.107C475.038 70.831 474.323 70.017 473.179 70.017ZM477.961 75H477.037V69.28H481.206V70.149H477.961V75ZM486.237 70.721L482.75 75H481.903V69.28H482.827V73.57L486.303 69.28H487.161V75H486.237V70.721ZM492.833 70.721L489.346 75H488.499V69.28H489.423V73.57L492.899 69.28H493.757V75H492.833V70.721ZM495.161 77.233L494.534 76.628C495.194 76.045 495.7 75.363 496.041 74.549C496.382 73.746 496.547 72.954 496.547 72.151C496.547 70.424 495.876 68.939 494.534 67.696L495.15 67.047C496.811 68.532 497.493 70.391 497.493 72.151C497.493 73.042 497.306 73.933 496.943 74.835C496.569 75.737 495.975 76.54 495.161 77.233Z" fill="#3C525E"/>
<path d="M190 87L192.887 82L187.113 82L190 87ZM190.5 82.5L190.5 5.96243e-09L189.5 -5.96243e-09L189.5 82.5L190.5 82.5Z" fill="#CEE0ED"/>
<path d="M280 87L282.887 82L277.113 82L280 87ZM280.5 82.5L280.5 5.96243e-09L279.5 -5.96243e-09L279.5 82.5L280.5 82.5Z" fill="#CEE0ED"/>
<path d="M280 217L277.113 222L282.887 222L280 217ZM279.5 221.5L279.5 265L280.5 265L280.5 221.5L279.5 221.5Z" fill="#CEE0ED"/>
<path d="M368 87L370.887 82L365.113 82L368 87ZM368.5 82.5L368.5 5.96243e-09L367.5 -5.96243e-09L367.5 82.5L368.5 82.5Z" fill="#CEE0ED"/>
<path d="M1 152H0.5V151.5H1V152ZM41 152L36 154.887V149.113L41 152ZM0.5 265V152H1.5V265H0.5ZM1 151.5H36.5V152.5H1V151.5Z" fill="#CEE0ED"/>
</svg>
