<svg width="539" height="290" viewBox="0 0 539 290" fill="none" xmlns="http://www.w3.org/2000/svg">
<path d="M157.304 70.366C157.304 68.672 157.724 67.37 158.55 66.446C159.376 65.536 160.412 65.074 161.658 65.074C163.296 65.074 164.584 65.816 165.13 66.992L164.178 67.636C163.604 66.726 162.75 66.278 161.602 66.278C160.734 66.278 160.006 66.614 159.418 67.286C158.83 67.972 158.536 68.896 158.55 70.086C159.096 69.064 160.37 68.448 161.77 68.448C162.904 68.448 163.814 68.742 164.472 69.344C165.13 69.946 165.466 70.744 165.466 71.724C165.466 72.718 165.102 73.544 164.36 74.174C163.618 74.804 162.694 75.126 161.588 75.126C158.942 75.126 157.304 73.404 157.304 70.366ZM158.704 71.556C158.97 72.942 160.02 73.922 161.574 73.922C162.33 73.922 162.96 73.726 163.45 73.32C163.94 72.928 164.178 72.41 164.178 71.78C164.178 70.394 163.198 69.652 161.7 69.652C160.874 69.652 160.188 69.848 159.656 70.24C159.11 70.632 158.802 71.066 158.704 71.556ZM167.594 68.434L166.572 68.07C166.922 66.334 168.238 65.088 170.324 65.088C172.34 65.088 173.572 66.25 173.572 68.028C173.572 68.966 173.166 69.904 172.662 70.576C172.41 70.926 172.088 71.262 171.71 71.612C170.94 72.298 170.394 72.662 169.596 73.166L168.518 73.838H173.936V75H166.306V74.048L168.434 72.634C168.812 72.396 169.078 72.214 169.232 72.102C169.386 72.004 169.638 71.822 169.974 71.584C170.31 71.346 170.562 71.136 170.73 70.982C170.884 70.828 171.094 70.632 171.332 70.38C171.976 69.68 172.214 69.036 172.284 68.154C172.284 66.88 171.458 66.306 170.24 66.306C169.484 66.306 168.882 66.516 168.448 66.936C168.014 67.356 167.72 67.86 167.594 68.434ZM176.335 70.492L175.327 70.226L175.901 65.2H182.061V66.39H176.979L176.615 69.022C177.105 68.658 177.847 68.476 178.841 68.476C179.989 68.476 180.885 68.784 181.543 69.386C182.187 70.002 182.509 70.786 182.509 71.752C182.509 72.718 182.145 73.53 181.431 74.16C180.703 74.804 179.793 75.126 178.715 75.126C176.881 75.126 175.355 74.258 174.725 72.732L175.845 72.256C176.251 73.194 177.301 73.936 178.715 73.936C180.325 73.936 181.221 73.012 181.221 71.794C181.221 70.492 180.171 69.652 178.505 69.652C177.609 69.652 176.881 69.932 176.335 70.492ZM184.509 75C183.991 75.056 183.599 74.762 183.599 74.258C183.599 73.768 183.907 73.46 184.453 73.46C185.069 73.46 185.475 73.88 185.475 74.664C185.475 76.064 184.705 76.778 183.683 77.016L183.389 76.358C183.697 76.274 183.977 76.106 184.229 75.84C184.467 75.574 184.565 75.294 184.509 75ZM193.256 75H192.038V72.998H186.046V72.186L192.178 65.2H193.256V71.864H195.076V72.998H193.256V75ZM192.038 67.16L187.726 71.864H192.038V67.16Z" fill="#2A3C3C"/>
<path d="M157.304 70.366C157.304 68.672 157.724 67.37 158.55 66.446C159.376 65.536 160.412 65.074 161.658 65.074C163.296 65.074 164.584 65.816 165.13 66.992L164.178 67.636C163.604 66.726 162.75 66.278 161.602 66.278C160.734 66.278 160.006 66.614 159.418 67.286C158.83 67.972 158.536 68.896 158.55 70.086C159.096 69.064 160.37 68.448 161.77 68.448C162.904 68.448 163.814 68.742 164.472 69.344C165.13 69.946 165.466 70.744 165.466 71.724C165.466 72.718 165.102 73.544 164.36 74.174C163.618 74.804 162.694 75.126 161.588 75.126C158.942 75.126 157.304 73.404 157.304 70.366ZM158.704 71.556C158.97 72.942 160.02 73.922 161.574 73.922C162.33 73.922 162.96 73.726 163.45 73.32C163.94 72.928 164.178 72.41 164.178 71.78C164.178 70.394 163.198 69.652 161.7 69.652C160.874 69.652 160.188 69.848 159.656 70.24C159.11 70.632 158.802 71.066 158.704 71.556ZM167.594 68.434L166.572 68.07C166.922 66.334 168.238 65.088 170.324 65.088C172.34 65.088 173.572 66.25 173.572 68.028C173.572 68.966 173.166 69.904 172.662 70.576C172.41 70.926 172.088 71.262 171.71 71.612C170.94 72.298 170.394 72.662 169.596 73.166L168.518 73.838H173.936V75H166.306V74.048L168.434 72.634C168.812 72.396 169.078 72.214 169.232 72.102C169.386 72.004 169.638 71.822 169.974 71.584C170.31 71.346 170.562 71.136 170.73 70.982C170.884 70.828 171.094 70.632 171.332 70.38C171.976 69.68 172.214 69.036 172.284 68.154C172.284 66.88 171.458 66.306 170.24 66.306C169.484 66.306 168.882 66.516 168.448 66.936C168.014 67.356 167.72 67.86 167.594 68.434ZM176.335 70.492L175.327 70.226L175.901 65.2H182.061V66.39H176.979L176.615 69.022C177.105 68.658 177.847 68.476 178.841 68.476C179.989 68.476 180.885 68.784 181.543 69.386C182.187 70.002 182.509 70.786 182.509 71.752C182.509 72.718 182.145 73.53 181.431 74.16C180.703 74.804 179.793 75.126 178.715 75.126C176.881 75.126 175.355 74.258 174.725 72.732L175.845 72.256C176.251 73.194 177.301 73.936 178.715 73.936C180.325 73.936 181.221 73.012 181.221 71.794C181.221 70.492 180.171 69.652 178.505 69.652C177.609 69.652 176.881 69.932 176.335 70.492ZM184.509 75C183.991 75.056 183.599 74.762 183.599 74.258C183.599 73.768 183.907 73.46 184.453 73.46C185.069 73.46 185.475 73.88 185.475 74.664C185.475 76.064 184.705 76.778 183.683 77.016L183.389 76.358C183.697 76.274 183.977 76.106 184.229 75.84C184.467 75.574 184.565 75.294 184.509 75ZM193.256 75H192.038V72.998H186.046V72.186L192.178 65.2H193.256V71.864H195.076V72.998H193.256V75ZM192.038 67.16L187.726 71.864H192.038V67.16Z" fill="#1A3341"/>
<path d="M148 87C148 85.8954 148.895 85 150 85H202C203.105 85 204 85.8954 204 87V270H148V87Z" fill="url(#paint0_linear_4004_9085)"/>
<path opacity="0.2" d="M160 85H192V270H160V85Z" fill="url(#paint1_linear_4004_9085)"/>
<path opacity="0.04" d="M192 85H202C203.105 85 204 85.8954 204 87V270H192V85Z" fill="#0D262C"/>
<path opacity="0.5" d="M148 87C148 85.8954 148.895 85 150 85H160V270H148V87Z" fill="url(#paint2_linear_4004_9085)"/>
<path d="M376.591 105.492L375.583 105.226L376.157 100.2H382.317V101.39H377.235L376.871 104.022C377.361 103.658 378.103 103.476 379.097 103.476C380.245 103.476 381.141 103.784 381.799 104.386C382.443 105.002 382.765 105.786 382.765 106.752C382.765 107.718 382.401 108.53 381.687 109.16C380.959 109.804 380.049 110.126 378.971 110.126C377.137 110.126 375.611 109.258 374.981 107.732L376.101 107.256C376.507 108.194 377.557 108.936 378.971 108.936C380.581 108.936 381.477 108.012 381.477 106.794C381.477 105.492 380.427 104.652 378.761 104.652C377.865 104.652 377.137 104.932 376.591 105.492ZM383.716 102.804L383.268 101.754L386.628 100.144H387.426V110H386.222V101.642L383.716 102.804ZM390.177 103.056L389.127 102.58C389.645 101.068 391.003 100.074 393.033 100.074C393.999 100.074 394.797 100.298 395.413 100.746C396.029 101.194 396.337 101.796 396.337 102.538C396.337 103.672 395.735 104.512 394.615 104.834C395.693 104.904 396.561 105.716 396.561 107.172C396.561 108.096 396.225 108.824 395.553 109.342C394.881 109.86 394.027 110.126 392.977 110.126C390.835 110.126 389.351 109.104 388.861 107.494L389.995 107.004C390.597 108.278 391.619 108.922 393.061 108.922C394.419 108.922 395.273 108.292 395.273 107.186C395.273 106.108 394.433 105.562 392.753 105.562H391.661V104.4H392.529C394.055 104.4 395.049 103.714 395.049 102.776C395.049 101.81 394.251 101.264 392.977 101.264C391.479 101.264 390.569 102.034 390.177 103.056ZM398.65 110C398.132 110.056 397.74 109.762 397.74 109.258C397.74 108.768 398.048 108.46 398.594 108.46C399.21 108.46 399.616 108.88 399.616 109.664C399.616 111.064 398.846 111.778 397.824 112.016L397.53 111.358C397.838 111.274 398.118 111.106 398.37 110.84C398.608 110.574 398.706 110.294 398.65 110ZM407.397 110H406.179V107.998H400.187V107.186L406.319 100.2H407.397V106.864H409.217V107.998H407.397V110ZM406.179 102.16L401.867 106.864H406.179V102.16Z" fill="#2A3C3C"/>
<path d="M376.591 105.492L375.583 105.226L376.157 100.2H382.317V101.39H377.235L376.871 104.022C377.361 103.658 378.103 103.476 379.097 103.476C380.245 103.476 381.141 103.784 381.799 104.386C382.443 105.002 382.765 105.786 382.765 106.752C382.765 107.718 382.401 108.53 381.687 109.16C380.959 109.804 380.049 110.126 378.971 110.126C377.137 110.126 375.611 109.258 374.981 107.732L376.101 107.256C376.507 108.194 377.557 108.936 378.971 108.936C380.581 108.936 381.477 108.012 381.477 106.794C381.477 105.492 380.427 104.652 378.761 104.652C377.865 104.652 377.137 104.932 376.591 105.492ZM383.716 102.804L383.268 101.754L386.628 100.144H387.426V110H386.222V101.642L383.716 102.804ZM390.177 103.056L389.127 102.58C389.645 101.068 391.003 100.074 393.033 100.074C393.999 100.074 394.797 100.298 395.413 100.746C396.029 101.194 396.337 101.796 396.337 102.538C396.337 103.672 395.735 104.512 394.615 104.834C395.693 104.904 396.561 105.716 396.561 107.172C396.561 108.096 396.225 108.824 395.553 109.342C394.881 109.86 394.027 110.126 392.977 110.126C390.835 110.126 389.351 109.104 388.861 107.494L389.995 107.004C390.597 108.278 391.619 108.922 393.061 108.922C394.419 108.922 395.273 108.292 395.273 107.186C395.273 106.108 394.433 105.562 392.753 105.562H391.661V104.4H392.529C394.055 104.4 395.049 103.714 395.049 102.776C395.049 101.81 394.251 101.264 392.977 101.264C391.479 101.264 390.569 102.034 390.177 103.056ZM398.65 110C398.132 110.056 397.74 109.762 397.74 109.258C397.74 108.768 398.048 108.46 398.594 108.46C399.21 108.46 399.616 108.88 399.616 109.664C399.616 111.064 398.846 111.778 397.824 112.016L397.53 111.358C397.838 111.274 398.118 111.106 398.37 110.84C398.608 110.574 398.706 110.294 398.65 110ZM407.397 110H406.179V107.998H400.187V107.186L406.319 100.2H407.397V106.864H409.217V107.998H407.397V110ZM406.179 102.16L401.867 106.864H406.179V102.16Z" fill="#1A3341"/>
<path d="M364 122C364 120.895 364.895 120 366 120H418C419.105 120 420 120.895 420 122V270H364V122Z" fill="url(#paint3_linear_4004_9085)"/>
<path opacity="0.2" d="M376 120H408V270H376V120Z" fill="url(#paint4_linear_4004_9085)"/>
<path opacity="0.04" d="M408 120H418C419.105 120 420 120.895 420 122V270H408V120Z" fill="#0D262C"/>
<path opacity="0.5" d="M364 122C364 120.895 364.895 120 366 120H376V270H364V122Z" fill="url(#paint5_linear_4004_9085)"/>
<path d="M80.3243 185.434L79.3023 185.07C79.6523 183.334 80.9683 182.088 83.0543 182.088C85.0703 182.088 86.3023 183.25 86.3023 185.028C86.3023 185.966 85.8963 186.904 85.3923 187.576C85.1403 187.926 84.8183 188.262 84.4403 188.612C83.6703 189.298 83.1243 189.662 82.3263 190.166L81.2483 190.838H86.6663V192H79.0363V191.048L81.1643 189.634C81.5423 189.396 81.8083 189.214 81.9623 189.102C82.1163 189.004 82.3683 188.822 82.7043 188.584C83.0403 188.346 83.2923 188.136 83.4603 187.982C83.6143 187.828 83.8243 187.632 84.0623 187.38C84.7063 186.68 84.9443 186.036 85.0143 185.154C85.0143 183.88 84.1883 183.306 82.9703 183.306C82.2143 183.306 81.6123 183.516 81.1783 183.936C80.7443 184.356 80.4503 184.86 80.3243 185.434ZM88.7565 185.434L87.7345 185.07C88.0845 183.334 89.4005 182.088 91.4865 182.088C93.5025 182.088 94.7345 183.25 94.7345 185.028C94.7345 185.966 94.3285 186.904 93.8245 187.576C93.5725 187.926 93.2505 188.262 92.8725 188.612C92.1025 189.298 91.5565 189.662 90.7585 190.166L89.6805 190.838H95.0985V192H87.4685V191.048L89.5965 189.634C89.9745 189.396 90.2405 189.214 90.3945 189.102C90.5485 189.004 90.8005 188.822 91.1365 188.584C91.4725 188.346 91.7245 188.136 91.8925 187.982C92.0465 187.828 92.2565 187.632 92.4945 187.38C93.1385 186.68 93.3765 186.036 93.4465 185.154C93.4465 183.88 92.6205 183.306 91.4025 183.306C90.6465 183.306 90.0445 183.516 89.6105 183.936C89.1765 184.356 88.8825 184.86 88.7565 185.434ZM101.683 183.39H95.7468V182.2H103.181V182.998L98.3088 192H96.9788L101.683 183.39ZM104.017 192C103.499 192.056 103.107 191.762 103.107 191.258C103.107 190.768 103.415 190.46 103.961 190.46C104.577 190.46 104.983 190.88 104.983 191.664C104.983 193.064 104.213 193.778 103.191 194.016L102.897 193.358C103.205 193.274 103.485 193.106 103.737 192.84C103.975 192.574 104.073 192.294 104.017 192ZM111.616 183.39H105.68V182.2H113.114V182.998L108.242 192H106.912L111.616 183.39Z" fill="#2A3C3C"/>
<path d="M80.3243 185.434L79.3023 185.07C79.6523 183.334 80.9683 182.088 83.0543 182.088C85.0703 182.088 86.3023 183.25 86.3023 185.028C86.3023 185.966 85.8963 186.904 85.3923 187.576C85.1403 187.926 84.8183 188.262 84.4403 188.612C83.6703 189.298 83.1243 189.662 82.3263 190.166L81.2483 190.838H86.6663V192H79.0363V191.048L81.1643 189.634C81.5423 189.396 81.8083 189.214 81.9623 189.102C82.1163 189.004 82.3683 188.822 82.7043 188.584C83.0403 188.346 83.2923 188.136 83.4603 187.982C83.6143 187.828 83.8243 187.632 84.0623 187.38C84.7063 186.68 84.9443 186.036 85.0143 185.154C85.0143 183.88 84.1883 183.306 82.9703 183.306C82.2143 183.306 81.6123 183.516 81.1783 183.936C80.7443 184.356 80.4503 184.86 80.3243 185.434ZM88.7565 185.434L87.7345 185.07C88.0845 183.334 89.4005 182.088 91.4865 182.088C93.5025 182.088 94.7345 183.25 94.7345 185.028C94.7345 185.966 94.3285 186.904 93.8245 187.576C93.5725 187.926 93.2505 188.262 92.8725 188.612C92.1025 189.298 91.5565 189.662 90.7585 190.166L89.6805 190.838H95.0985V192H87.4685V191.048L89.5965 189.634C89.9745 189.396 90.2405 189.214 90.3945 189.102C90.5485 189.004 90.8005 188.822 91.1365 188.584C91.4725 188.346 91.7245 188.136 91.8925 187.982C92.0465 187.828 92.2565 187.632 92.4945 187.38C93.1385 186.68 93.3765 186.036 93.4465 185.154C93.4465 183.88 92.6205 183.306 91.4025 183.306C90.6465 183.306 90.0445 183.516 89.6105 183.936C89.1765 184.356 88.8825 184.86 88.7565 185.434ZM101.683 183.39H95.7468V182.2H103.181V182.998L98.3088 192H96.9788L101.683 183.39ZM104.017 192C103.499 192.056 103.107 191.762 103.107 191.258C103.107 190.768 103.415 190.46 103.961 190.46C104.577 190.46 104.983 190.88 104.983 191.664C104.983 193.064 104.213 193.778 103.191 194.016L102.897 193.358C103.205 193.274 103.485 193.106 103.737 192.84C103.975 192.574 104.073 192.294 104.017 192ZM111.616 183.39H105.68V182.2H113.114V182.998L108.242 192H106.912L111.616 183.39Z" fill="#1A3341"/>
<path d="M68 204C68 202.895 68.8954 202 70 202H122C123.105 202 124 202.895 124 204V270H68V204Z" fill="url(#paint6_linear_4004_9085)"/>
<path opacity="0.2" d="M80 202H112V270H80V202Z" fill="url(#paint7_linear_4004_9085)"/>
<path opacity="0.04" d="M112 202H122C123.105 202 124 202.895 124 204V270H112V202Z" fill="#0D262C"/>
<path opacity="0.5" d="M68 204C68 202.895 68.8954 202 70 202H80V270H68V204Z" fill="url(#paint8_linear_4004_9085)"/>
<path d="M295.142 188.434L294.12 188.07C294.47 186.334 295.786 185.088 297.872 185.088C299.888 185.088 301.12 186.25 301.12 188.028C301.12 188.966 300.714 189.904 300.21 190.576C299.958 190.926 299.636 191.262 299.258 191.612C298.488 192.298 297.942 192.662 297.144 193.166L296.066 193.838H301.484V195H293.854V194.048L295.982 192.634C296.36 192.396 296.626 192.214 296.78 192.102C296.934 192.004 297.186 191.822 297.522 191.584C297.858 191.346 298.11 191.136 298.278 190.982C298.432 190.828 298.642 190.632 298.88 190.38C299.524 189.68 299.762 189.036 299.832 188.154C299.832 186.88 299.006 186.306 297.788 186.306C297.032 186.306 296.43 186.516 295.996 186.936C295.562 187.356 295.268 187.86 295.142 188.434ZM303.574 188.434L302.552 188.07C302.902 186.334 304.218 185.088 306.304 185.088C308.32 185.088 309.552 186.25 309.552 188.028C309.552 188.966 309.146 189.904 308.642 190.576C308.39 190.926 308.068 191.262 307.69 191.612C306.92 192.298 306.374 192.662 305.576 193.166L304.498 193.838H309.916V195H302.286V194.048L304.414 192.634C304.792 192.396 305.058 192.214 305.212 192.102C305.366 192.004 305.618 191.822 305.954 191.584C306.29 191.346 306.542 191.136 306.71 190.982C306.864 190.828 307.074 190.632 307.312 190.38C307.956 189.68 308.194 189.036 308.264 188.154C308.264 186.88 307.438 186.306 306.22 186.306C305.464 186.306 304.862 186.516 304.428 186.936C303.994 187.356 303.7 187.86 303.574 188.434ZM310.886 190.1C310.886 188.588 311.236 187.37 311.95 186.46C312.65 185.55 313.686 185.088 315.044 185.088C317.83 185.088 319.216 186.922 319.216 190.1C319.216 191.626 318.866 192.83 318.18 193.74C317.48 194.65 316.444 195.112 315.072 195.112C313.756 195.112 312.734 194.65 311.992 193.726C311.25 192.802 310.886 191.598 310.886 190.1ZM312.174 190.1C312.174 192.494 313.266 193.922 315.072 193.922C316.976 193.922 317.928 192.648 317.928 190.1C317.928 187.552 316.962 186.278 315.044 186.278C313.098 186.278 312.174 187.678 312.174 190.1ZM321.2 195C320.682 195.056 320.29 194.762 320.29 194.258C320.29 193.768 320.598 193.46 321.144 193.46C321.76 193.46 322.166 193.88 322.166 194.664C322.166 196.064 321.396 196.778 320.374 197.016L320.08 196.358C320.388 196.274 320.668 196.106 320.92 195.84C321.158 195.574 321.256 195.294 321.2 195ZM328.798 186.39H322.862V185.2H330.296V185.998L325.424 195H324.094L328.798 186.39Z" fill="#2A3C3C"/>
<path d="M295.142 188.434L294.12 188.07C294.47 186.334 295.786 185.088 297.872 185.088C299.888 185.088 301.12 186.25 301.12 188.028C301.12 188.966 300.714 189.904 300.21 190.576C299.958 190.926 299.636 191.262 299.258 191.612C298.488 192.298 297.942 192.662 297.144 193.166L296.066 193.838H301.484V195H293.854V194.048L295.982 192.634C296.36 192.396 296.626 192.214 296.78 192.102C296.934 192.004 297.186 191.822 297.522 191.584C297.858 191.346 298.11 191.136 298.278 190.982C298.432 190.828 298.642 190.632 298.88 190.38C299.524 189.68 299.762 189.036 299.832 188.154C299.832 186.88 299.006 186.306 297.788 186.306C297.032 186.306 296.43 186.516 295.996 186.936C295.562 187.356 295.268 187.86 295.142 188.434ZM303.574 188.434L302.552 188.07C302.902 186.334 304.218 185.088 306.304 185.088C308.32 185.088 309.552 186.25 309.552 188.028C309.552 188.966 309.146 189.904 308.642 190.576C308.39 190.926 308.068 191.262 307.69 191.612C306.92 192.298 306.374 192.662 305.576 193.166L304.498 193.838H309.916V195H302.286V194.048L304.414 192.634C304.792 192.396 305.058 192.214 305.212 192.102C305.366 192.004 305.618 191.822 305.954 191.584C306.29 191.346 306.542 191.136 306.71 190.982C306.864 190.828 307.074 190.632 307.312 190.38C307.956 189.68 308.194 189.036 308.264 188.154C308.264 186.88 307.438 186.306 306.22 186.306C305.464 186.306 304.862 186.516 304.428 186.936C303.994 187.356 303.7 187.86 303.574 188.434ZM310.886 190.1C310.886 188.588 311.236 187.37 311.95 186.46C312.65 185.55 313.686 185.088 315.044 185.088C317.83 185.088 319.216 186.922 319.216 190.1C319.216 191.626 318.866 192.83 318.18 193.74C317.48 194.65 316.444 195.112 315.072 195.112C313.756 195.112 312.734 194.65 311.992 193.726C311.25 192.802 310.886 191.598 310.886 190.1ZM312.174 190.1C312.174 192.494 313.266 193.922 315.072 193.922C316.976 193.922 317.928 192.648 317.928 190.1C317.928 187.552 316.962 186.278 315.044 186.278C313.098 186.278 312.174 187.678 312.174 190.1ZM321.2 195C320.682 195.056 320.29 194.762 320.29 194.258C320.29 193.768 320.598 193.46 321.144 193.46C321.76 193.46 322.166 193.88 322.166 194.664C322.166 196.064 321.396 196.778 320.374 197.016L320.08 196.358C320.388 196.274 320.668 196.106 320.92 195.84C321.158 195.574 321.256 195.294 321.2 195ZM328.798 186.39H322.862V185.2H330.296V185.998L325.424 195H324.094L328.798 186.39Z" fill="#1A3341"/>
<path d="M284 207C284 205.895 284.895 205 286 205H338C339.105 205 340 205.895 340 207V270H284V207Z" fill="url(#paint9_linear_4004_9085)"/>
<path opacity="0.2" d="M296 205H328V270H296V205Z" fill="url(#paint10_linear_4004_9085)"/>
<path opacity="0.04" d="M328 205H338C339.105 205 340 205.895 340 207V270H328V205Z" fill="#0D262C"/>
<path opacity="0.5" d="M284 207C284 205.895 284.895 205 286 205H296V270H284V207Z" fill="url(#paint11_linear_4004_9085)"/>
<path d="M118.556 280.372L117.68 280.06C117.98 278.572 119.108 277.504 120.896 277.504C122.624 277.504 123.68 278.5 123.68 280.024C123.68 280.828 123.332 281.632 122.9 282.208C122.684 282.508 122.408 282.796 122.084 283.096C121.424 283.684 120.956 283.996 120.272 284.428L119.348 285.004H123.992V286H117.452V285.184L119.276 283.972C119.6 283.768 119.828 283.612 119.96 283.516C120.092 283.432 120.308 283.276 120.596 283.072C120.884 282.868 121.1 282.688 121.244 282.556C121.376 282.424 121.556 282.256 121.76 282.04C122.312 281.44 122.516 280.888 122.576 280.132C122.576 279.04 121.868 278.548 120.824 278.548C120.176 278.548 119.66 278.728 119.288 279.088C118.916 279.448 118.664 279.88 118.556 280.372ZM124.824 281.8C124.824 280.504 125.124 279.46 125.736 278.68C126.336 277.9 127.224 277.504 128.388 277.504C130.776 277.504 131.964 279.076 131.964 281.8C131.964 283.108 131.664 284.14 131.076 284.92C130.476 285.7 129.588 286.096 128.412 286.096C127.284 286.096 126.408 285.7 125.772 284.908C125.136 284.116 124.824 283.084 124.824 281.8ZM125.928 281.8C125.928 283.852 126.864 285.076 128.412 285.076C130.044 285.076 130.86 283.984 130.86 281.8C130.86 279.616 130.032 278.524 128.388 278.524C126.72 278.524 125.928 279.724 125.928 281.8ZM133.82 280.372L132.944 280.06C133.244 278.572 134.372 277.504 136.16 277.504C137.888 277.504 138.944 278.5 138.944 280.024C138.944 280.828 138.596 281.632 138.164 282.208C137.948 282.508 137.672 282.796 137.348 283.096C136.688 283.684 136.22 283.996 135.536 284.428L134.612 285.004H139.256V286H132.716V285.184L134.54 283.972C134.864 283.768 135.092 283.612 135.224 283.516C135.356 283.432 135.572 283.276 135.86 283.072C136.148 282.868 136.364 282.688 136.508 282.556C136.64 282.424 136.82 282.256 137.024 282.04C137.576 281.44 137.78 280.888 137.84 280.132C137.84 279.04 137.132 278.548 136.088 278.548C135.44 278.548 134.924 278.728 134.552 279.088C134.18 279.448 133.928 279.88 133.82 280.372ZM141.048 280.372L140.172 280.06C140.472 278.572 141.6 277.504 143.388 277.504C145.116 277.504 146.172 278.5 146.172 280.024C146.172 280.828 145.824 281.632 145.392 282.208C145.176 282.508 144.9 282.796 144.576 283.096C143.916 283.684 143.448 283.996 142.764 284.428L141.84 285.004H146.484V286H139.944V285.184L141.768 283.972C142.092 283.768 142.32 283.612 142.452 283.516C142.584 283.432 142.8 283.276 143.088 283.072C143.376 282.868 143.592 282.688 143.736 282.556C143.868 282.424 144.048 282.256 144.252 282.04C144.804 281.44 145.008 280.888 145.068 280.132C145.068 279.04 144.36 278.548 143.316 278.548C142.668 278.548 142.152 278.728 141.78 279.088C141.408 279.448 141.156 279.88 141.048 280.372Z" fill="#76848D"/>
<path d="M334.527 280.372L333.651 280.06C333.951 278.572 335.079 277.504 336.867 277.504C338.595 277.504 339.651 278.5 339.651 280.024C339.651 280.828 339.303 281.632 338.871 282.208C338.655 282.508 338.379 282.796 338.055 283.096C337.395 283.684 336.927 283.996 336.243 284.428L335.319 285.004H339.963V286H333.423V285.184L335.247 283.972C335.571 283.768 335.799 283.612 335.931 283.516C336.063 283.432 336.279 283.276 336.567 283.072C336.855 282.868 337.071 282.688 337.215 282.556C337.347 282.424 337.527 282.256 337.731 282.04C338.283 281.44 338.487 280.888 338.547 280.132C338.547 279.04 337.839 278.548 336.795 278.548C336.147 278.548 335.631 278.728 335.259 279.088C334.887 279.448 334.635 279.88 334.527 280.372ZM340.795 281.8C340.795 280.504 341.095 279.46 341.707 278.68C342.307 277.9 343.195 277.504 344.359 277.504C346.747 277.504 347.935 279.076 347.935 281.8C347.935 283.108 347.635 284.14 347.047 284.92C346.447 285.7 345.559 286.096 344.383 286.096C343.255 286.096 342.379 285.7 341.743 284.908C341.107 284.116 340.795 283.084 340.795 281.8ZM341.899 281.8C341.899 283.852 342.835 285.076 344.383 285.076C346.015 285.076 346.831 283.984 346.831 281.8C346.831 279.616 346.003 278.524 344.359 278.524C342.691 278.524 341.899 279.724 341.899 281.8ZM349.791 280.372L348.915 280.06C349.215 278.572 350.343 277.504 352.131 277.504C353.859 277.504 354.915 278.5 354.915 280.024C354.915 280.828 354.567 281.632 354.135 282.208C353.919 282.508 353.643 282.796 353.319 283.096C352.659 283.684 352.191 283.996 351.507 284.428L350.583 285.004H355.227V286H348.687V285.184L350.511 283.972C350.835 283.768 351.063 283.612 351.195 283.516C351.327 283.432 351.543 283.276 351.831 283.072C352.119 282.868 352.335 282.688 352.479 282.556C352.611 282.424 352.791 282.256 352.995 282.04C353.547 281.44 353.751 280.888 353.811 280.132C353.811 279.04 353.103 278.548 352.059 278.548C351.411 278.548 350.895 278.728 350.523 279.088C350.151 279.448 349.899 279.88 349.791 280.372ZM356.887 280.048L355.987 279.64C356.431 278.344 357.595 277.492 359.335 277.492C360.163 277.492 360.847 277.684 361.375 278.068C361.903 278.452 362.167 278.968 362.167 279.604C362.167 280.576 361.651 281.296 360.691 281.572C361.615 281.632 362.359 282.328 362.359 283.576C362.359 284.368 362.071 284.992 361.495 285.436C360.919 285.88 360.187 286.108 359.287 286.108C357.451 286.108 356.179 285.232 355.759 283.852L356.731 283.432C357.247 284.524 358.123 285.076 359.359 285.076C360.523 285.076 361.255 284.536 361.255 283.588C361.255 282.664 360.535 282.196 359.095 282.196H358.159V281.2H358.903C360.211 281.2 361.063 280.612 361.063 279.808C361.063 278.98 360.379 278.512 359.287 278.512C358.003 278.512 357.223 279.172 356.887 280.048Z" fill="#76848D"/>
<path d="M0 269.5L539 269.5" stroke="#ABBEC9"/>
<rect y="2" width="10" height="10" fill="url(#paint12_linear_4004_9085)"/>
<path d="M24.792 7.22H20.412V6.2H24.78C24.588 4.556 23.424 3.512 21.612 3.512C20.652 3.512 19.548 4.016 18.924 4.796L18.192 4.1C18.96 3.08 20.34 2.492 21.684 2.492C22.992 2.492 24.024 2.876 24.78 3.644C25.536 4.412 25.908 5.456 25.908 6.764C25.908 8.048 25.524 9.092 24.756 9.896C23.988 10.7 22.932 11.108 21.588 11.108C20.28 11.108 18.948 10.592 18.168 9.5L18.912 8.876C19.476 9.644 20.58 10.088 21.648 10.088C22.536 10.088 23.268 9.824 23.832 9.296C24.396 8.768 24.72 8.072 24.792 7.22ZM27.9755 11H26.9675V4.76H27.9755V7.556L31.1315 4.76H32.4875L29.2595 7.628L32.6435 11H31.2995L28.4915 8.252L27.9755 8.732V11ZM37.7069 9.2L38.4269 9.716C37.9589 10.592 36.9029 11.108 35.8589 11.108C34.8629 11.108 34.0589 10.808 33.4469 10.22C32.8349 9.632 32.5229 8.852 32.5229 7.868C32.5229 6.932 32.8229 6.152 33.4349 5.54C34.0469 4.928 34.8269 4.616 35.7989 4.616C36.9149 4.616 37.9109 5.12 38.3309 5.888L37.5509 6.416C37.1309 5.852 36.5549 5.564 35.8229 5.564C35.1749 5.564 34.6469 5.78 34.2269 6.212C33.8069 6.644 33.5909 7.196 33.5909 7.868C33.5909 8.552 33.8069 9.104 34.2509 9.524C34.6829 9.944 35.2469 10.16 35.9549 10.16C36.6989 10.16 37.2869 9.836 37.7069 9.2ZM44.6816 11H43.6736V5.708H40.1456V11H39.1376V4.76H44.6816V11ZM45.6774 7.868C45.6774 6.92 45.9894 6.14 46.6014 5.528C47.2134 4.916 48.0054 4.616 48.9774 4.616C49.9614 4.616 50.7654 4.916 51.3774 5.528C51.9894 6.14 52.3014 6.92 52.3014 7.868C52.3014 8.816 51.9894 9.584 51.3774 10.196C50.7534 10.808 49.9494 11.108 48.9774 11.108C48.0054 11.108 47.2134 10.808 46.6014 10.196C45.9894 9.584 45.6774 8.816 45.6774 7.868ZM46.7454 7.868C46.7454 8.528 46.9494 9.08 47.3694 9.512C47.7894 9.944 48.3174 10.16 48.9774 10.16C49.6374 10.16 50.1894 9.944 50.6094 9.524C51.0294 9.104 51.2334 8.552 51.2334 7.868C51.2334 7.184 51.0174 6.632 50.5974 6.2C50.1654 5.78 49.6254 5.564 48.9774 5.564C48.3294 5.564 47.8014 5.78 47.3814 6.2C46.9614 6.62 46.7454 7.184 46.7454 7.868ZM54.308 13.4H53.3V4.76H54.308V5.54C54.728 4.928 55.4 4.616 56.324 4.616C57.236 4.616 57.968 4.904 58.508 5.492C59.048 6.08 59.312 6.836 59.312 7.772C59.312 8.732 59.024 9.524 58.448 10.16C57.86 10.796 57.116 11.108 56.204 11.108C55.364 11.108 54.728 10.892 54.308 10.472V13.4ZM56.216 5.564C55.304 5.564 54.596 6.152 54.308 6.86V9.188C54.668 9.836 55.268 10.16 56.12 10.16C56.732 10.16 57.248 9.944 57.644 9.512C58.04 9.08 58.244 8.528 58.244 7.844C58.244 6.452 57.464 5.564 56.216 5.564ZM61.7386 5.708H59.3506V4.76H65.1586V5.708H62.7466V11H61.7386V5.708ZM75.5762 11H69.4202V2.6H75.4682V3.62H70.5122V6.236H75.1322V7.232H70.5122V9.98H75.5762V11ZM83.4568 8.936L84.0808 9.632C83.4448 10.532 82.1728 11.108 80.8168 11.108C79.4968 11.108 78.4408 10.712 77.6608 9.932C76.8808 9.152 76.4848 8.108 76.4848 6.8C76.4848 5.564 76.8808 4.544 77.6608 3.716C78.4408 2.9 79.4608 2.492 80.7328 2.492C82.1728 2.492 83.3488 3.068 83.9608 3.884L83.2528 4.568C82.5688 3.884 81.7288 3.536 80.7568 3.536C79.7848 3.536 79.0288 3.836 78.4648 4.436C77.9008 5.036 77.6248 5.828 77.6248 6.8C77.6248 7.784 77.9248 8.576 78.5248 9.164C79.1248 9.764 79.9168 10.064 80.8888 10.064C81.9328 10.064 82.7848 9.692 83.4568 8.936ZM91.3442 12.752L90.6602 13.448C89.7722 12.68 89.1242 11.804 88.7162 10.82C88.3082 9.836 88.1042 8.864 88.1042 7.892C88.1042 5.972 88.8602 3.944 90.6722 2.324L91.3322 3.02C89.8682 4.388 89.1362 6.008 89.1362 7.892C89.1362 9.68 89.9522 11.408 91.3442 12.752ZM92.8251 5.372L91.9491 5.06C92.2491 3.572 93.3771 2.504 95.1651 2.504C96.8931 2.504 97.9491 3.5 97.9491 5.024C97.9491 5.828 97.6011 6.632 97.1691 7.208C96.9531 7.508 96.6771 7.796 96.3531 8.096C95.6931 8.684 95.2251 8.996 94.5411 9.428L93.6171 10.004H98.2611V11H91.7211V10.184L93.5451 8.972C93.8691 8.768 94.0971 8.612 94.2291 8.516C94.3611 8.432 94.5771 8.276 94.8651 8.072C95.1531 7.868 95.3691 7.688 95.5131 7.556C95.6451 7.424 95.8251 7.256 96.0291 7.04C96.5811 6.44 96.7851 5.888 96.8451 5.132C96.8451 4.04 96.1371 3.548 95.0931 3.548C94.4451 3.548 93.9291 3.728 93.5571 4.088C93.1851 4.448 92.9331 4.88 92.8251 5.372ZM103.905 3.62H98.8167V2.6H105.189V3.284L101.013 11H99.8727L103.905 3.62ZM114.358 9.2L115.078 9.716C114.61 10.592 113.554 11.108 112.51 11.108C111.514 11.108 110.71 10.808 110.098 10.22C109.486 9.632 109.174 8.852 109.174 7.868C109.174 6.932 109.474 6.152 110.086 5.54C110.698 4.928 111.478 4.616 112.45 4.616C113.566 4.616 114.562 5.12 114.982 5.888L114.202 6.416C113.782 5.852 113.206 5.564 112.474 5.564C111.826 5.564 111.298 5.78 110.878 6.212C110.458 6.644 110.242 7.196 110.242 7.868C110.242 8.552 110.458 9.104 110.902 9.524C111.334 9.944 111.898 10.16 112.606 10.16C113.35 10.16 113.938 9.836 114.358 9.2ZM117.55 5.708H115.162V4.76H120.97V5.708H118.558V11H117.55V5.708ZM122.606 13.4H121.598V4.76H122.606V5.54C123.026 4.928 123.698 4.616 124.622 4.616C125.534 4.616 126.266 4.904 126.806 5.492C127.346 6.08 127.61 6.836 127.61 7.772C127.61 8.732 127.322 9.524 126.746 10.16C126.158 10.796 125.414 11.108 124.502 11.108C123.662 11.108 123.026 10.892 122.606 10.472V13.4ZM124.514 5.564C123.602 5.564 122.894 6.152 122.606 6.86V9.188C122.966 9.836 123.566 10.16 124.418 10.16C125.03 10.16 125.546 9.944 125.942 9.512C126.338 9.08 126.542 8.528 126.542 7.844C126.542 6.452 125.762 5.564 124.514 5.564ZM129.083 6.26L128.567 5.504C129.143 4.964 130.139 4.616 131.063 4.616C132.731 4.616 133.619 5.528 133.619 7.148V11H132.611V10.076C132.215 10.652 131.435 11.084 130.427 11.084C129.071 11.084 128.159 10.328 128.159 9.176C128.159 7.868 129.275 7.244 131.147 7.244C131.735 7.244 132.215 7.304 132.611 7.424C132.611 6.212 132.179 5.564 130.943 5.564C130.319 5.564 129.695 5.792 129.083 6.26ZM130.667 10.172C131.135 10.172 131.555 10.04 131.903 9.788C132.251 9.536 132.479 9.248 132.611 8.948V8.312C132.263 8.192 131.819 8.132 131.279 8.132C129.911 8.132 129.227 8.468 129.227 9.14C129.227 9.776 129.803 10.172 130.667 10.172ZM140.509 11H139.501V8.3H135.901V11H134.893V4.76H135.901V7.352H139.501V4.76H140.509V11ZM141.924 13.436L141.24 12.776C141.96 12.14 142.512 11.396 142.884 10.508C143.256 9.632 143.436 8.768 143.436 7.892C143.436 6.008 142.704 4.388 141.24 3.032L141.912 2.324C143.724 3.944 144.468 5.972 144.468 7.892C144.468 8.864 144.264 9.836 143.868 10.82C143.46 11.804 142.812 12.68 141.924 13.436ZM151.778 11H148.994V4.76H151.586C153.326 4.76 154.142 5.204 154.142 6.356C154.142 6.932 153.878 7.388 153.338 7.712C154.01 7.916 154.346 8.408 154.346 9.212C154.346 10.376 153.422 11 151.778 11ZM151.79 8.276H150.002V10.064H151.67C152.738 10.064 153.278 9.764 153.278 9.164C153.278 8.576 152.786 8.276 151.79 8.276ZM151.55 5.696H150.002V7.364H151.898C152.63 7.364 153.074 7.064 153.074 6.5C153.074 5.864 152.558 5.696 151.55 5.696ZM160.08 11H158.988V2.6H160.08V6.656L164.328 2.6H165.756L161.796 6.404L166.044 11H164.604L160.98 7.124L160.08 7.988V11ZM171.374 6.332L167.57 11H166.646V4.76H167.654V9.44L171.446 4.76H172.382V11H171.374V6.332ZM175.389 5.708H173.001V4.76H178.809V5.708H176.397V11H175.389V5.708ZM179.706 6.26L179.19 5.504C179.766 4.964 180.762 4.616 181.686 4.616C183.354 4.616 184.242 5.528 184.242 7.148V11H183.234V10.076C182.838 10.652 182.058 11.084 181.05 11.084C179.694 11.084 178.782 10.328 178.782 9.176C178.782 7.868 179.898 7.244 181.77 7.244C182.358 7.244 182.838 7.304 183.234 7.424C183.234 6.212 182.802 5.564 181.566 5.564C180.942 5.564 180.318 5.792 179.706 6.26ZM181.29 10.172C181.758 10.172 182.178 10.04 182.526 9.788C182.874 9.536 183.102 9.248 183.234 8.948V8.312C182.886 8.192 182.442 8.132 181.902 8.132C180.534 8.132 179.85 8.468 179.85 9.14C179.85 9.776 180.426 10.172 181.29 10.172ZM190.245 6.332L186.441 11H185.517V4.76H186.525V9.44L190.317 4.76H191.253V11H190.245V6.332ZM186.477 2.072H187.425C187.437 2.66 187.821 3.056 188.493 3.056C189.129 3.056 189.525 2.66 189.525 2.072H190.473C190.461 3.164 189.609 3.86 188.493 3.86C187.293 3.86 186.489 3.176 186.477 2.072Z" fill="#76848D"/>
<rect y="26" width="10" height="10" fill="#737AF9"/>
<path d="M24.792 31.22H20.412V30.2H24.78C24.588 28.556 23.424 27.512 21.612 27.512C20.652 27.512 19.548 28.016 18.924 28.796L18.192 28.1C18.96 27.08 20.34 26.492 21.684 26.492C22.992 26.492 24.024 26.876 24.78 27.644C25.536 28.412 25.908 29.456 25.908 30.764C25.908 32.048 25.524 33.092 24.756 33.896C23.988 34.7 22.932 35.108 21.588 35.108C20.28 35.108 18.948 34.592 18.168 33.5L18.912 32.876C19.476 33.644 20.58 34.088 21.648 34.088C22.536 34.088 23.268 33.824 23.832 33.296C24.396 32.768 24.72 32.072 24.792 31.22ZM27.9755 35H26.9675V28.76H27.9755V31.556L31.1315 28.76H32.4875L29.2595 31.628L32.6435 35H31.2995L28.4915 32.252L27.9755 32.732V35ZM37.7069 33.2L38.4269 33.716C37.9589 34.592 36.9029 35.108 35.8589 35.108C34.8629 35.108 34.0589 34.808 33.4469 34.22C32.8349 33.632 32.5229 32.852 32.5229 31.868C32.5229 30.932 32.8229 30.152 33.4349 29.54C34.0469 28.928 34.8269 28.616 35.7989 28.616C36.9149 28.616 37.9109 29.12 38.3309 29.888L37.5509 30.416C37.1309 29.852 36.5549 29.564 35.8229 29.564C35.1749 29.564 34.6469 29.78 34.2269 30.212C33.8069 30.644 33.5909 31.196 33.5909 31.868C33.5909 32.552 33.8069 33.104 34.2509 33.524C34.6829 33.944 35.2469 34.16 35.9549 34.16C36.6989 34.16 37.2869 33.836 37.7069 33.2ZM44.6816 35H43.6736V29.708H40.1456V35H39.1376V28.76H44.6816V35ZM45.6774 31.868C45.6774 30.92 45.9894 30.14 46.6014 29.528C47.2134 28.916 48.0054 28.616 48.9774 28.616C49.9614 28.616 50.7654 28.916 51.3774 29.528C51.9894 30.14 52.3014 30.92 52.3014 31.868C52.3014 32.816 51.9894 33.584 51.3774 34.196C50.7534 34.808 49.9494 35.108 48.9774 35.108C48.0054 35.108 47.2134 34.808 46.6014 34.196C45.9894 33.584 45.6774 32.816 45.6774 31.868ZM46.7454 31.868C46.7454 32.528 46.9494 33.08 47.3694 33.512C47.7894 33.944 48.3174 34.16 48.9774 34.16C49.6374 34.16 50.1894 33.944 50.6094 33.524C51.0294 33.104 51.2334 32.552 51.2334 31.868C51.2334 31.184 51.0174 30.632 50.5974 30.2C50.1654 29.78 49.6254 29.564 48.9774 29.564C48.3294 29.564 47.8014 29.78 47.3814 30.2C46.9614 30.62 46.7454 31.184 46.7454 31.868ZM54.308 37.4H53.3V28.76H54.308V29.54C54.728 28.928 55.4 28.616 56.324 28.616C57.236 28.616 57.968 28.904 58.508 29.492C59.048 30.08 59.312 30.836 59.312 31.772C59.312 32.732 59.024 33.524 58.448 34.16C57.86 34.796 57.116 35.108 56.204 35.108C55.364 35.108 54.728 34.892 54.308 34.472V37.4ZM56.216 29.564C55.304 29.564 54.596 30.152 54.308 30.86V33.188C54.668 33.836 55.268 34.16 56.12 34.16C56.732 34.16 57.248 33.944 57.644 33.512C58.04 33.08 58.244 32.528 58.244 31.844C58.244 30.452 57.464 29.564 56.216 29.564ZM61.7386 29.708H59.3506V28.76H65.1586V29.708H62.7466V35H61.7386V29.708ZM70.5122 35H69.4202V26.6H70.5122V30.656L74.7602 26.6H76.1882L72.2282 30.404L76.4762 35H75.0362L71.4122 31.124L70.5122 31.988V35ZM81.8058 30.332L78.0018 35H77.0778V28.76H78.0858V33.44L81.8778 28.76H82.8138V35H81.8058V30.332ZM85.8211 29.708H83.4331V28.76H89.2411V29.708H86.8291V35H85.8211V29.708ZM90.1381 30.26L89.6221 29.504C90.1981 28.964 91.1941 28.616 92.1181 28.616C93.7861 28.616 94.6741 29.528 94.6741 31.148V35H93.6661V34.076C93.2701 34.652 92.4901 35.084 91.4821 35.084C90.1261 35.084 89.2141 34.328 89.2141 33.176C89.2141 31.868 90.3301 31.244 92.2021 31.244C92.7901 31.244 93.2701 31.304 93.6661 31.424C93.6661 30.212 93.2341 29.564 91.9981 29.564C91.3741 29.564 90.7501 29.792 90.1381 30.26ZM91.7221 34.172C92.1901 34.172 92.6101 34.04 92.9581 33.788C93.3061 33.536 93.5341 33.248 93.6661 32.948V32.312C93.3181 32.192 92.8741 32.132 92.3341 32.132C90.9661 32.132 90.2821 32.468 90.2821 33.14C90.2821 33.776 90.8581 34.172 91.7221 34.172ZM98.4322 28.76H100.94V35H99.9322V32.792H98.4082L96.5602 35H95.3362L97.3282 32.636C96.3682 32.456 95.7322 31.724 95.7322 30.764C95.7322 29.576 96.5602 28.76 98.4322 28.76ZM96.8002 30.788C96.8002 31.4 97.3762 31.832 98.2882 31.832H99.9322V29.72H98.3122C97.3042 29.72 96.8002 30.08 96.8002 30.788ZM108.547 35H105.763V28.76H108.355C110.095 28.76 110.911 29.204 110.911 30.356C110.911 30.932 110.647 31.388 110.107 31.712C110.779 31.916 111.115 32.408 111.115 33.212C111.115 34.376 110.191 35 108.547 35ZM108.559 32.276H106.771V34.064H108.439C109.507 34.064 110.047 33.764 110.047 33.164C110.047 32.576 109.555 32.276 108.559 32.276ZM108.319 29.696H106.771V31.364H108.667C109.399 31.364 109.843 31.064 109.843 30.5C109.843 29.864 109.327 29.696 108.319 29.696ZM121.913 35H115.757V26.6H121.805V27.62H116.849V30.236H121.469V31.232H116.849V33.98H121.913V35ZM129.794 32.936L130.418 33.632C129.782 34.532 128.51 35.108 127.154 35.108C125.834 35.108 124.778 34.712 123.998 33.932C123.218 33.152 122.822 32.108 122.822 30.8C122.822 29.564 123.218 28.544 123.998 27.716C124.778 26.9 125.798 26.492 127.07 26.492C128.51 26.492 129.686 27.068 130.298 27.884L129.59 28.568C128.906 27.884 128.066 27.536 127.094 27.536C126.122 27.536 125.366 27.836 124.802 28.436C124.238 29.036 123.962 29.828 123.962 30.8C123.962 31.784 124.262 32.576 124.862 33.164C125.462 33.764 126.254 34.064 127.226 34.064C128.27 34.064 129.122 33.692 129.794 32.936ZM137.681 36.752L136.997 37.448C136.109 36.68 135.461 35.804 135.053 34.82C134.645 33.836 134.441 32.864 134.441 31.892C134.441 29.972 135.197 27.944 137.009 26.324L137.669 27.02C136.205 28.388 135.473 30.008 135.473 31.892C135.473 33.68 136.289 35.408 137.681 36.752ZM139.162 29.372L138.286 29.06C138.586 27.572 139.714 26.504 141.502 26.504C143.23 26.504 144.286 27.5 144.286 29.024C144.286 29.828 143.938 30.632 143.506 31.208C143.29 31.508 143.014 31.796 142.69 32.096C142.03 32.684 141.562 32.996 140.878 33.428L139.954 34.004H144.598V35H138.058V34.184L139.882 32.972C140.206 32.768 140.434 32.612 140.566 32.516C140.698 32.432 140.914 32.276 141.202 32.072C141.49 31.868 141.706 31.688 141.85 31.556C141.982 31.424 142.162 31.256 142.366 31.04C142.918 30.44 143.122 29.888 143.182 29.132C143.182 28.04 142.474 27.548 141.43 27.548C140.782 27.548 140.266 27.728 139.894 28.088C139.522 28.448 139.27 28.88 139.162 29.372ZM150.242 27.62H145.154V26.6H151.526V27.284L147.35 35H146.21L150.242 27.62ZM160.695 33.2L161.415 33.716C160.947 34.592 159.891 35.108 158.847 35.108C157.851 35.108 157.047 34.808 156.435 34.22C155.823 33.632 155.511 32.852 155.511 31.868C155.511 30.932 155.811 30.152 156.423 29.54C157.035 28.928 157.815 28.616 158.787 28.616C159.903 28.616 160.899 29.12 161.319 29.888L160.539 30.416C160.119 29.852 159.543 29.564 158.811 29.564C158.163 29.564 157.635 29.78 157.215 30.212C156.795 30.644 156.579 31.196 156.579 31.868C156.579 32.552 156.795 33.104 157.239 33.524C157.671 33.944 158.235 34.16 158.943 34.16C159.687 34.16 160.275 33.836 160.695 33.2ZM163.887 29.708H161.499V28.76H167.307V29.708H164.895V35H163.887V29.708ZM168.943 37.4H167.935V28.76H168.943V29.54C169.363 28.928 170.035 28.616 170.959 28.616C171.871 28.616 172.603 28.904 173.143 29.492C173.683 30.08 173.947 30.836 173.947 31.772C173.947 32.732 173.659 33.524 173.083 34.16C172.495 34.796 171.751 35.108 170.839 35.108C169.999 35.108 169.363 34.892 168.943 34.472V37.4ZM170.851 29.564C169.939 29.564 169.231 30.152 168.943 30.86V33.188C169.303 33.836 169.903 34.16 170.755 34.16C171.367 34.16 171.883 33.944 172.279 33.512C172.675 33.08 172.879 32.528 172.879 31.844C172.879 30.452 172.099 29.564 170.851 29.564ZM175.42 30.26L174.904 29.504C175.48 28.964 176.476 28.616 177.4 28.616C179.068 28.616 179.956 29.528 179.956 31.148V35H178.948V34.076C178.552 34.652 177.772 35.084 176.764 35.084C175.408 35.084 174.496 34.328 174.496 33.176C174.496 31.868 175.612 31.244 177.484 31.244C178.072 31.244 178.552 31.304 178.948 31.424C178.948 30.212 178.516 29.564 177.28 29.564C176.656 29.564 176.032 29.792 175.42 30.26ZM177.004 34.172C177.472 34.172 177.892 34.04 178.24 33.788C178.588 33.536 178.816 33.248 178.948 32.948V32.312C178.6 32.192 178.156 32.132 177.616 32.132C176.248 32.132 175.564 32.468 175.564 33.14C175.564 33.776 176.14 34.172 177.004 34.172ZM186.846 35H185.838V32.3H182.238V35H181.23V28.76H182.238V31.352H185.838V28.76H186.846V35ZM188.26 37.436L187.576 36.776C188.296 36.14 188.848 35.396 189.22 34.508C189.592 33.632 189.772 32.768 189.772 31.892C189.772 30.008 189.04 28.388 187.576 27.032L188.248 26.324C190.06 27.944 190.804 29.972 190.804 31.892C190.804 32.864 190.6 33.836 190.204 34.82C189.796 35.804 189.148 36.68 188.26 37.436Z" fill="#76848D"/>
<defs>
<linearGradient id="paint0_linear_4004_9085" x1="176" y1="85" x2="176" y2="270" gradientUnits="userSpaceOnUse">
<stop offset="0" stop-color="#6D73F9"/>
<stop offset="1" stop-color="#9BB8F1"/>
</linearGradient>
<linearGradient id="paint1_linear_4004_9085" x1="176" y1="85" x2="176" y2="270" gradientUnits="userSpaceOnUse">
<stop offset="0" stop-color="white" stop-opacity="0"/>
<stop offset="0.739583" stop-color="white"/>
</linearGradient>
<linearGradient id="paint2_linear_4004_9085" x1="154" y1="-275.75" x2="154" y2="270" gradientUnits="userSpaceOnUse">
<stop offset="0" stop-color="white" stop-opacity="0.05"/>
<stop offset="0.75" stop-color="white" stop-opacity="0.8"/>
</linearGradient>
<linearGradient id="paint3_linear_4004_9085" x1="392" y1="120" x2="392" y2="270" gradientUnits="userSpaceOnUse">
<stop offset="0" stop-color="#6D73F9"/>
<stop offset="1" stop-color="#9BB8F1"/>
</linearGradient>
<linearGradient id="paint4_linear_4004_9085" x1="392" y1="120" x2="392" y2="270" gradientUnits="userSpaceOnUse">
<stop offset="0" stop-color="white" stop-opacity="0"/>
<stop offset="0.739583" stop-color="white"/>
</linearGradient>
<linearGradient id="paint5_linear_4004_9085" x1="370" y1="-172.5" x2="370" y2="270" gradientUnits="userSpaceOnUse">
<stop offset="0" stop-color="white" stop-opacity="0.05"/>
<stop offset="0.75" stop-color="white" stop-opacity="0.8"/>
</linearGradient>
<linearGradient id="paint6_linear_4004_9085" x1="96" y1="202" x2="96" y2="270" gradientUnits="userSpaceOnUse">
<stop offset="0" stop-color="#CDE3E9"/>
<stop offset="1" stop-color="#D3E8ED"/>
</linearGradient>
<linearGradient id="paint7_linear_4004_9085" x1="96" y1="202" x2="96" y2="270" gradientUnits="userSpaceOnUse">
<stop offset="0" stop-color="white" stop-opacity="0"/>
<stop offset="0.739583" stop-color="white"/>
</linearGradient>
<linearGradient id="paint8_linear_4004_9085" x1="74" y1="69.4" x2="74" y2="270" gradientUnits="userSpaceOnUse">
<stop offset="0" stop-color="white" stop-opacity="0.05"/>
<stop offset="0.75" stop-color="white" stop-opacity="0.8"/>
</linearGradient>
<linearGradient id="paint9_linear_4004_9085" x1="312" y1="205" x2="312" y2="270" gradientUnits="userSpaceOnUse">
<stop offset="0" stop-color="#CDE3E9"/>
<stop offset="1" stop-color="#D3E8ED"/>
</linearGradient>
<linearGradient id="paint10_linear_4004_9085" x1="312" y1="205" x2="312" y2="270" gradientUnits="userSpaceOnUse">
<stop offset="0" stop-color="white" stop-opacity="0"/>
<stop offset="0.739583" stop-color="white"/>
</linearGradient>
<linearGradient id="paint11_linear_4004_9085" x1="290" y1="78.25" x2="290" y2="270" gradientUnits="userSpaceOnUse">
<stop offset="0" stop-color="white" stop-opacity="0.05"/>
<stop offset="0.75" stop-color="white" stop-opacity="0.8"/>
</linearGradient>
<linearGradient id="paint12_linear_4004_9085" x1="0.476191" y1="12" x2="10" y2="12" gradientUnits="userSpaceOnUse">
<stop offset="0" stop-color="#CEE8EF"/>
<stop offset="1" stop-color="#CEE8EF"/>
</linearGradient>
</defs>
</svg>
