<svg width="390" height="312" viewBox="0 0 390 312" fill="none" xmlns="http://www.w3.org/2000/svg">
<path d="M344.364 114H343.146V111.998H337.154V111.186L343.286 104.2H344.364V110.864H346.184V111.998H344.364V114ZM343.146 106.16L338.834 110.864H343.146V106.16ZM353.63 114H352.412V111.998H346.42V111.186L352.552 104.2H353.63V110.864H355.45V111.998H353.63V114ZM352.412 106.16L348.1 110.864H352.412V106.16ZM358.57 114.21L357.646 113.678L364.884 103.892L365.766 104.536L358.57 114.21ZM356.134 106.552C356.134 105.852 356.372 105.278 356.862 104.83C357.352 104.382 357.954 104.158 358.696 104.158C359.424 104.158 360.026 104.382 360.516 104.83C361.006 105.278 361.244 105.852 361.244 106.552C361.244 107.238 361.006 107.812 360.516 108.26C360.026 108.708 359.424 108.932 358.696 108.932C357.954 108.932 357.352 108.708 356.862 108.26C356.372 107.812 356.134 107.238 356.134 106.552ZM357.31 106.552C357.31 107.35 357.954 107.938 358.696 107.938C359.466 107.938 360.068 107.378 360.068 106.552C360.068 105.726 359.438 105.166 358.696 105.166C357.926 105.166 357.31 105.726 357.31 106.552ZM362.868 113.384C362.378 112.936 362.14 112.362 362.14 111.662C362.14 110.962 362.378 110.388 362.868 109.94C363.358 109.506 363.961 109.282 364.702 109.282C365.43 109.282 366.033 109.506 366.522 109.94C367.013 110.388 367.25 110.962 367.25 111.662C367.25 112.348 367.013 112.922 366.522 113.37C366.033 113.832 365.43 114.056 364.702 114.056C363.961 114.056 363.358 113.832 362.868 113.384ZM363.317 111.662C363.317 112.46 363.961 113.048 364.702 113.048C365.472 113.048 366.074 112.488 366.074 111.662C366.074 110.836 365.444 110.276 364.702 110.276C363.932 110.276 363.317 110.836 363.317 111.662Z" fill="#1A3341"/>
<path d="M338.98 134H337.888V125.6H343.864V126.62H338.98V134ZM347.475 132.212L348.123 132.812C347.547 133.676 346.719 134.108 345.627 134.108C344.631 134.108 343.827 133.808 343.215 133.22C342.603 132.632 342.303 131.852 342.303 130.868C342.303 129.92 342.579 129.14 343.143 128.528C343.695 127.916 344.475 127.616 345.483 127.616C346.311 127.616 347.007 127.88 347.547 128.396C348.087 128.912 348.363 129.596 348.363 130.448C348.363 130.724 348.339 130.976 348.303 131.204H343.383C343.443 132.44 344.355 133.16 345.663 133.16C346.395 133.16 347.091 132.776 347.475 132.212ZM345.411 128.54C344.271 128.54 343.527 129.236 343.371 130.292H347.295C347.235 129.188 346.527 128.54 345.411 128.54ZM350.371 136.4H349.363V127.76H350.371V128.54C350.791 127.928 351.463 127.616 352.387 127.616C353.299 127.616 354.031 127.904 354.571 128.492C355.111 129.08 355.375 129.836 355.375 130.772C355.375 131.732 355.087 132.524 354.511 133.16C353.923 133.796 353.179 134.108 352.267 134.108C351.427 134.108 350.791 133.892 350.371 133.472V136.4ZM352.279 128.564C351.367 128.564 350.659 129.152 350.371 129.86V132.188C350.731 132.836 351.331 133.16 352.183 133.16C352.795 133.16 353.311 132.944 353.707 132.512C354.103 132.08 354.307 131.528 354.307 130.844C354.307 129.452 353.527 128.564 352.279 128.564ZM357.376 134H356.368V127.76H357.292L359.596 130.808L361.84 127.76H362.704V134H361.696V129.536L359.584 132.416L357.376 129.536V134ZM364.533 129.26L364.017 128.504C364.593 127.964 365.589 127.616 366.513 127.616C368.181 127.616 369.069 128.528 369.069 130.148V134H368.061V133.076C367.665 133.652 366.885 134.084 365.877 134.084C364.521 134.084 363.609 133.328 363.609 132.176C363.609 130.868 364.725 130.244 366.597 130.244C367.185 130.244 367.665 130.304 368.061 130.424C368.061 129.212 367.629 128.564 366.393 128.564C365.769 128.564 365.145 128.792 364.533 129.26ZM366.117 133.172C366.585 133.172 367.005 133.04 367.353 132.788C367.701 132.536 367.929 132.248 368.061 131.948V131.312C367.713 131.192 367.269 131.132 366.729 131.132C365.361 131.132 364.677 131.468 364.677 132.14C364.677 132.776 365.253 133.172 366.117 133.172ZM375.959 134H374.951V131.3H371.351V134H370.343V127.76H371.351V130.352H374.951V127.76H375.959V134ZM382.029 129.332L378.225 134H377.301V127.76H378.309V132.44L382.101 127.76H383.037V134H382.029V129.332ZM386.86 127.76H389.368V134H388.36V131.792H386.836L384.988 134H383.764L385.756 131.636C384.796 131.456 384.16 130.724 384.16 129.764C384.16 128.576 384.988 127.76 386.86 127.76ZM385.228 129.788C385.228 130.4 385.804 130.832 386.716 130.832H388.36V128.72H386.74C385.732 128.72 385.228 129.08 385.228 129.788Z" fill="#76848D"/>
<path d="M191.49 277.804L191.042 276.754L194.402 275.144H195.2V285H193.996V276.642L191.49 277.804ZM196.873 277.804L196.425 276.754L199.785 275.144H200.583V285H199.379V276.642L196.873 277.804ZM204.805 285.21L203.881 284.678L211.119 274.892L212.001 275.536L204.805 285.21ZM202.369 277.552C202.369 276.852 202.607 276.278 203.097 275.83C203.587 275.382 204.189 275.158 204.931 275.158C205.659 275.158 206.261 275.382 206.751 275.83C207.241 276.278 207.479 276.852 207.479 277.552C207.479 278.238 207.241 278.812 206.751 279.26C206.261 279.708 205.659 279.932 204.931 279.932C204.189 279.932 203.587 279.708 203.097 279.26C202.607 278.812 202.369 278.238 202.369 277.552ZM203.545 277.552C203.545 278.35 204.189 278.938 204.931 278.938C205.701 278.938 206.303 278.378 206.303 277.552C206.303 276.726 205.673 276.166 204.931 276.166C204.161 276.166 203.545 276.726 203.545 277.552ZM209.103 284.384C208.613 283.936 208.375 283.362 208.375 282.662C208.375 281.962 208.613 281.388 209.103 280.94C209.593 280.506 210.195 280.282 210.937 280.282C211.665 280.282 212.267 280.506 212.757 280.94C213.247 281.388 213.485 281.962 213.485 282.662C213.485 283.348 213.247 283.922 212.757 284.37C212.267 284.832 211.665 285.056 210.937 285.056C210.195 285.056 209.593 284.832 209.103 284.384ZM209.551 282.662C209.551 283.46 210.195 284.048 210.937 284.048C211.707 284.048 212.309 283.488 212.309 282.662C212.309 281.836 211.679 281.276 210.937 281.276C210.167 281.276 209.551 281.836 209.551 282.662Z" fill="#1A3341"/>
<path d="M196.676 305.18H195.584V304.16H195.524C194.228 304.16 193.208 303.848 192.464 303.212C191.708 302.588 191.336 301.748 191.336 300.68C191.336 299.564 191.72 298.712 192.5 298.1C193.268 297.5 194.3 297.2 195.584 297.2V296.42H196.676V297.2C197.9 297.2 198.92 297.5 199.724 298.1C200.528 298.7 200.924 299.564 200.924 300.68C200.924 301.748 200.552 302.588 199.796 303.212C199.04 303.848 198.02 304.16 196.736 304.16H196.676V305.18ZM196.7 298.208H196.676V303.152H196.736C198.656 303.152 199.796 302.264 199.796 300.68C199.796 299.108 198.728 298.208 196.7 298.208ZM192.464 300.68C192.464 302.18 193.58 303.152 195.536 303.152H195.584V298.208C193.7 298.208 192.464 299.048 192.464 300.68ZM202.886 307.4H201.878V298.76H202.886V299.54C203.306 298.928 203.978 298.616 204.902 298.616C205.814 298.616 206.546 298.904 207.086 299.492C207.626 300.08 207.89 300.836 207.89 301.772C207.89 302.732 207.602 303.524 207.026 304.16C206.438 304.796 205.694 305.108 204.782 305.108C203.942 305.108 203.306 304.892 202.886 304.472V307.4ZM204.794 299.564C203.882 299.564 203.174 300.152 202.886 300.86V303.188C203.246 303.836 203.846 304.16 204.698 304.16C205.31 304.16 205.826 303.944 206.222 303.512C206.618 303.08 206.822 302.528 206.822 301.844C206.822 300.452 206.042 299.564 204.794 299.564ZM209.363 300.26L208.847 299.504C209.423 298.964 210.419 298.616 211.343 298.616C213.011 298.616 213.899 299.528 213.899 301.148V305H212.891V304.076C212.495 304.652 211.715 305.084 210.707 305.084C209.351 305.084 208.439 304.328 208.439 303.176C208.439 301.868 209.555 301.244 211.427 301.244C212.015 301.244 212.495 301.304 212.891 301.424C212.891 300.212 212.459 299.564 211.223 299.564C210.599 299.564 209.975 299.792 209.363 300.26ZM210.947 304.172C211.415 304.172 211.835 304.04 212.183 303.788C212.531 303.536 212.759 303.248 212.891 302.948V302.312C212.543 302.192 212.099 302.132 211.559 302.132C210.191 302.132 209.507 302.468 209.507 303.14C209.507 303.776 210.083 304.172 210.947 304.172ZM220.789 305H219.781V302.3H216.181V305H215.173V298.76H216.181V301.352H219.781V298.76H220.789V305ZM227.567 305H222.131V298.76H223.139V304.04H226.631V298.76H227.639V304.04H228.515V306.512H227.567V305ZM234.005 300.332L230.201 305H229.277V298.76H230.285V303.44L234.077 298.76H235.013V305H234.005V300.332ZM238.836 298.76H241.344V305H240.336V302.792H238.812L236.964 305H235.74L237.732 302.636C236.772 302.456 236.136 301.724 236.136 300.764C236.136 299.576 236.964 298.76 238.836 298.76ZM237.204 300.788C237.204 301.4 237.78 301.832 238.692 301.832H240.336V299.72H238.716C237.708 299.72 237.204 300.08 237.204 300.788Z" fill="#76848D"/>
<path d="M101.413 249.804L100.965 248.754L104.325 247.144H105.123V257H103.919V248.642L101.413 249.804ZM106.908 252.1C106.908 250.588 107.258 249.37 107.972 248.46C108.672 247.55 109.708 247.088 111.066 247.088C113.852 247.088 115.238 248.922 115.238 252.1C115.238 253.626 114.888 254.83 114.202 255.74C113.502 256.65 112.466 257.112 111.094 257.112C109.778 257.112 108.756 256.65 108.014 255.726C107.272 254.802 106.908 253.598 106.908 252.1ZM108.196 252.1C108.196 254.494 109.288 255.922 111.094 255.922C112.998 255.922 113.95 254.648 113.95 252.1C113.95 249.552 112.984 248.278 111.066 248.278C109.12 248.278 108.196 249.678 108.196 252.1ZM118.72 257.21L117.796 256.678L125.034 246.892L125.916 247.536L118.72 257.21ZM116.284 249.552C116.284 248.852 116.522 248.278 117.012 247.83C117.502 247.382 118.104 247.158 118.846 247.158C119.574 247.158 120.176 247.382 120.666 247.83C121.156 248.278 121.394 248.852 121.394 249.552C121.394 250.238 121.156 250.812 120.666 251.26C120.176 251.708 119.574 251.932 118.846 251.932C118.104 251.932 117.502 251.708 117.012 251.26C116.522 250.812 116.284 250.238 116.284 249.552ZM117.46 249.552C117.46 250.35 118.104 250.938 118.846 250.938C119.616 250.938 120.218 250.378 120.218 249.552C120.218 248.726 119.588 248.166 118.846 248.166C118.076 248.166 117.46 248.726 117.46 249.552ZM123.018 256.384C122.528 255.936 122.29 255.362 122.29 254.662C122.29 253.962 122.528 253.388 123.018 252.94C123.508 252.506 124.11 252.282 124.852 252.282C125.58 252.282 126.182 252.506 126.672 252.94C127.162 253.388 127.4 253.962 127.4 254.662C127.4 255.348 127.162 255.922 126.672 256.37C126.182 256.832 125.58 257.056 124.852 257.056C124.11 257.056 123.508 256.832 123.018 256.384ZM123.466 254.662C123.466 255.46 124.11 256.048 124.852 256.048C125.622 256.048 126.224 255.488 126.224 254.662C126.224 253.836 125.594 253.276 124.852 253.276C124.082 253.276 123.466 253.836 123.466 254.662Z" fill="#1A3341"/>
<path d="M64.151 277H63.059V273.244H58.055V277H56.963V268.6H58.055V272.224H63.059V268.6H64.151V277ZM70.3798 272.332L66.5758 277H65.6518V270.76H66.6598V275.44L70.4518 270.76H71.3878V277H70.3798V272.332ZM73.0032 278.512H72.0432V276.04H72.7392C73.3752 275.068 73.6152 273.7 73.6152 271.336V270.76H78.1992V276.04H79.0992V278.512H78.1392V277H73.0032V278.512ZM77.1912 271.72H74.5632V272.152C74.5632 273.748 74.3112 275.044 73.8192 276.04H77.1912V271.72ZM84.6733 275.212L85.3213 275.812C84.7453 276.676 83.9173 277.108 82.8253 277.108C81.8293 277.108 81.0253 276.808 80.4133 276.22C79.8013 275.632 79.5013 274.852 79.5013 273.868C79.5013 272.92 79.7773 272.14 80.3413 271.528C80.8933 270.916 81.6733 270.616 82.6813 270.616C83.5093 270.616 84.2053 270.88 84.7453 271.396C85.2853 271.912 85.5613 272.596 85.5613 273.448C85.5613 273.724 85.5373 273.976 85.5013 274.204H80.5813C80.6413 275.44 81.5533 276.16 82.8613 276.16C83.5933 276.16 84.2893 275.776 84.6733 275.212ZM82.6093 271.54C81.4693 271.54 80.7253 272.236 80.5693 273.292H84.4933C84.4333 272.188 83.7253 271.54 82.6093 271.54ZM87.5694 279.4H86.5614V270.76H87.5694V271.54C87.9894 270.928 88.6614 270.616 89.5854 270.616C90.4974 270.616 91.2294 270.904 91.7694 271.492C92.3094 272.08 92.5734 272.836 92.5734 273.772C92.5734 274.732 92.2854 275.524 91.7094 276.16C91.1214 276.796 90.3774 277.108 89.4654 277.108C88.6254 277.108 87.9894 276.892 87.5694 276.472V279.4ZM89.4774 271.564C88.5654 271.564 87.8574 272.152 87.5694 272.86V275.188C87.9294 275.836 88.5294 276.16 89.3814 276.16C89.9934 276.16 90.5094 275.944 90.9054 275.512C91.3014 275.08 91.5054 274.528 91.5054 273.844C91.5054 272.452 90.7254 271.564 89.4774 271.564ZM98.8497 277H97.8417V271.72H95.2017V272.008C95.2017 274.024 94.9737 275.416 94.5177 276.136C94.0617 276.856 93.4977 277.096 92.7177 277V276.04C93.5217 276.04 94.1937 275.692 94.1937 272.044V270.76H98.8497V277ZM100.676 272.26L100.16 271.504C100.736 270.964 101.732 270.616 102.656 270.616C104.324 270.616 105.212 271.528 105.212 273.148V277H104.204V276.076C103.808 276.652 103.028 277.084 102.02 277.084C100.664 277.084 99.7524 276.328 99.7524 275.176C99.7524 273.868 100.868 273.244 102.74 273.244C103.328 273.244 103.808 273.304 104.204 273.424C104.204 272.212 103.772 271.564 102.536 271.564C101.912 271.564 101.288 271.792 100.676 272.26ZM102.26 276.172C102.728 276.172 103.148 276.04 103.496 275.788C103.844 275.536 104.072 275.248 104.204 274.948V274.312C103.856 274.192 103.412 274.132 102.872 274.132C101.504 274.132 100.82 274.468 100.82 275.14C100.82 275.776 101.396 276.172 102.26 276.172ZM112.103 277H111.095V274.3H107.495V277H106.487V270.76H107.495V273.352H111.095V270.76H112.103V277ZM113.721 278.512H112.761V276.04H113.457C114.093 275.068 114.333 273.7 114.333 271.336V270.76H118.917V276.04H119.817V278.512H118.857V277H113.721V278.512ZM117.909 271.72H115.281V272.152C115.281 273.748 115.029 275.044 114.537 276.04H117.909V271.72ZM122.823 277H120.567V270.76H121.575V272.704H122.919C124.755 272.704 125.487 273.556 125.487 274.84C125.487 276.1 124.683 277 122.823 277ZM122.811 273.664H121.575V276.04H122.799C123.951 276.04 124.419 275.632 124.419 274.852C124.419 274.06 123.879 273.664 122.811 273.664ZM127.395 277H126.375V270.76H127.395V277Z" fill="#76848D"/>
<path d="M55.2337 170.918C55.2337 172.584 54.8417 173.872 54.0437 174.768C53.2457 175.678 52.1817 176.126 50.8517 176.126C49.2277 176.126 47.9537 175.44 47.3237 174.39L48.3317 173.69C48.8917 174.474 49.9137 174.922 51.0197 174.922C51.9297 174.922 52.6577 174.558 53.2317 173.83C53.8057 173.116 54.0437 172.22 53.9737 171.156C53.5117 172.22 52.3497 173.004 50.7957 173.004C49.7037 173.004 48.8077 172.696 48.1077 172.066C47.3937 171.45 47.0437 170.638 47.0437 169.644C47.0437 168.552 47.4217 167.684 48.1777 167.04C48.9337 166.396 49.9417 166.074 51.1877 166.074C53.7077 166.074 55.2337 167.838 55.2337 170.918ZM53.7637 169.602C53.5537 168.3 52.6577 167.278 51.0477 167.278C49.3677 167.278 48.3317 168.146 48.3317 169.602C48.3317 170.988 49.3817 171.8 51.0197 171.8C51.7617 171.8 52.3917 171.576 52.8817 171.128C53.3717 170.68 53.6657 170.176 53.7637 169.602ZM58.7196 176.21L57.7956 175.678L65.0336 165.892L65.9156 166.536L58.7196 176.21ZM56.2836 168.552C56.2836 167.852 56.5216 167.278 57.0116 166.83C57.5016 166.382 58.1036 166.158 58.8456 166.158C59.5736 166.158 60.1756 166.382 60.6656 166.83C61.1556 167.278 61.3936 167.852 61.3936 168.552C61.3936 169.238 61.1556 169.812 60.6656 170.26C60.1756 170.708 59.5736 170.932 58.8456 170.932C58.1036 170.932 57.5016 170.708 57.0116 170.26C56.5216 169.812 56.2836 169.238 56.2836 168.552ZM57.4596 168.552C57.4596 169.35 58.1036 169.938 58.8456 169.938C59.6156 169.938 60.2176 169.378 60.2176 168.552C60.2176 167.726 59.5876 167.166 58.8456 167.166C58.0756 167.166 57.4596 167.726 57.4596 168.552ZM63.0176 175.384C62.5276 174.936 62.2896 174.362 62.2896 173.662C62.2896 172.962 62.5276 172.388 63.0176 171.94C63.5076 171.506 64.1096 171.282 64.8516 171.282C65.5796 171.282 66.1816 171.506 66.6716 171.94C67.1616 172.388 67.3996 172.962 67.3996 173.662C67.3996 174.348 67.1616 174.922 66.6716 175.37C66.1816 175.832 65.5796 176.056 64.8516 176.056C64.1096 176.056 63.5076 175.832 63.0176 175.384ZM63.4656 173.662C63.4656 174.46 64.1096 175.048 64.8516 175.048C65.6216 175.048 66.2236 174.488 66.2236 173.662C66.2236 172.836 65.5936 172.276 64.8516 172.276C64.0816 172.276 63.4656 172.836 63.4656 173.662Z" fill="#1A3341"/>
<path d="M34.1476 189.496L29.0476 196H28.1236V187.6H29.2156V194.104L34.3036 187.6H35.2396V196H34.1476V189.496ZM38.4219 190.708H36.0339V189.76H41.8419V190.708H39.4299V196H38.4219V190.708ZM42.7389 191.26L42.2229 190.504C42.7989 189.964 43.7949 189.616 44.7189 189.616C46.3869 189.616 47.2749 190.528 47.2749 192.148V196H46.2669V195.076C45.8709 195.652 45.0909 196.084 44.0829 196.084C42.7269 196.084 41.8149 195.328 41.8149 194.176C41.8149 192.868 42.9309 192.244 44.8029 192.244C45.3909 192.244 45.8709 192.304 46.2669 192.424C46.2669 191.212 45.8349 190.564 44.5989 190.564C43.9749 190.564 43.3509 190.792 42.7389 191.26ZM44.3229 195.172C44.7909 195.172 45.2109 195.04 45.5589 194.788C45.9069 194.536 46.1349 194.248 46.2669 193.948V193.312C45.9189 193.192 45.4749 193.132 44.9349 193.132C43.5669 193.132 42.8829 193.468 42.8829 194.14C42.8829 194.776 43.4589 195.172 44.3229 195.172ZM53.973 196H52.965V190.72H50.325V191.008C50.325 193.024 50.097 194.416 49.641 195.136C49.185 195.856 48.621 196.096 47.841 196V195.04C48.645 195.04 49.317 194.692 49.317 191.044V189.76H53.973V196ZM60.0477 191.332L56.2437 196H55.3197V189.76H56.3277V194.44L60.1197 189.76H61.0557V196H60.0477V191.332ZM64.879 189.76H67.387V196H66.379V193.792H64.855L63.007 196H61.783L63.775 193.636C62.815 193.456 62.179 192.724 62.179 191.764C62.179 190.576 63.007 189.76 64.879 189.76ZM63.247 191.788C63.247 192.4 63.823 192.832 64.735 192.832H66.379V190.72H64.759C63.751 190.72 63.247 191.08 63.247 191.788Z" fill="#76848D"/>
<path d="M50.7794 122H49.5614V119.998H43.5694V119.186L49.7014 112.2H50.7794V118.864H52.5994V119.998H50.7794V122ZM49.5614 114.16L45.2494 118.864H49.5614V114.16ZM55.7196 122.21L54.7956 121.678L62.0336 111.892L62.9156 112.536L55.7196 122.21ZM53.2836 114.552C53.2836 113.852 53.5216 113.278 54.0116 112.83C54.5016 112.382 55.1036 112.158 55.8456 112.158C56.5736 112.158 57.1756 112.382 57.6656 112.83C58.1556 113.278 58.3936 113.852 58.3936 114.552C58.3936 115.238 58.1556 115.812 57.6656 116.26C57.1756 116.708 56.5736 116.932 55.8456 116.932C55.1036 116.932 54.5016 116.708 54.0116 116.26C53.5216 115.812 53.2836 115.238 53.2836 114.552ZM54.4596 114.552C54.4596 115.35 55.1036 115.938 55.8456 115.938C56.6156 115.938 57.2176 115.378 57.2176 114.552C57.2176 113.726 56.5876 113.166 55.8456 113.166C55.0756 113.166 54.4596 113.726 54.4596 114.552ZM60.0176 121.384C59.5276 120.936 59.2896 120.362 59.2896 119.662C59.2896 118.962 59.5276 118.388 60.0176 117.94C60.5076 117.506 61.1096 117.282 61.8516 117.282C62.5796 117.282 63.1816 117.506 63.6716 117.94C64.1616 118.388 64.3996 118.962 64.3996 119.662C64.3996 120.348 64.1616 120.922 63.6716 121.37C63.1816 121.832 62.5796 122.056 61.8516 122.056C61.1096 122.056 60.5076 121.832 60.0176 121.384ZM60.4656 119.662C60.4656 120.46 61.1096 121.048 61.8516 121.048C62.6216 121.048 63.2236 120.488 63.2236 119.662C63.2236 118.836 62.5936 118.276 61.8516 118.276C61.0816 118.276 60.4656 118.836 60.4656 119.662Z" fill="#1A3341"/>
<path d="M15.7079 135.496L10.6079 142H9.68394V133.6H10.7759V140.104L15.8639 133.6H16.7999V142H15.7079V135.496ZM19.3222 144.4H18.3142V135.76H19.3222V136.54C19.7422 135.928 20.4142 135.616 21.3382 135.616C22.2502 135.616 22.9822 135.904 23.5222 136.492C24.0622 137.08 24.3262 137.836 24.3262 138.772C24.3262 139.732 24.0382 140.524 23.4622 141.16C22.8742 141.796 22.1302 142.108 21.2182 142.108C20.3782 142.108 19.7422 141.892 19.3222 141.472V144.4ZM21.2302 136.564C20.3182 136.564 19.6102 137.152 19.3222 137.86V140.188C19.6822 140.836 20.2822 141.16 21.1342 141.16C21.7462 141.16 22.2622 140.944 22.6582 140.512C23.0542 140.08 23.2582 139.528 23.2582 138.844C23.2582 137.452 22.4782 136.564 21.2302 136.564ZM30.6026 142H29.5946V136.72H26.9546V137.008C26.9546 139.024 26.7266 140.416 26.2706 141.136C25.8146 141.856 25.2506 142.096 24.4706 142V141.04C25.2746 141.04 25.9466 140.692 25.9466 137.044V135.76H30.6026V142ZM32.4292 137.26L31.9132 136.504C32.4892 135.964 33.4852 135.616 34.4092 135.616C36.0772 135.616 36.9652 136.528 36.9652 138.148V142H35.9572V141.076C35.5612 141.652 34.7812 142.084 33.7732 142.084C32.4172 142.084 31.5052 141.328 31.5052 140.176C31.5052 138.868 32.6212 138.244 34.4932 138.244C35.0812 138.244 35.5612 138.304 35.9572 138.424C35.9572 137.212 35.5252 136.564 34.2892 136.564C33.6652 136.564 33.0412 136.792 32.4292 137.26ZM34.0132 141.172C34.4812 141.172 34.9012 141.04 35.2492 140.788C35.5972 140.536 35.8252 140.248 35.9572 139.948V139.312C35.6092 139.192 35.1652 139.132 34.6252 139.132C33.2572 139.132 32.5732 139.468 32.5732 140.14C32.5732 140.776 33.1492 141.172 34.0132 141.172ZM43.8553 142H42.8473V139.3H39.2473V142H38.2393V135.76H39.2473V138.352H42.8473V135.76H43.8553V142ZM45.4735 143.512H44.5135V141.04H45.2095C45.8455 140.068 46.0855 138.7 46.0855 136.336V135.76H50.6695V141.04H51.5695V143.512H50.6095V142H45.4735V143.512ZM49.6615 136.72H47.0335V137.152C47.0335 138.748 46.7815 140.044 46.2895 141.04H49.6615V136.72ZM57.0477 137.332L53.2437 142H52.3197V135.76H53.3277V140.44L57.1197 135.76H58.0557V142H57.0477V137.332ZM61.879 135.76H64.387V142H63.379V139.792H61.855L60.007 142H58.783L60.775 139.636C59.815 139.456 59.179 138.724 59.179 137.764C59.179 136.576 60.007 135.76 61.879 135.76ZM60.247 137.788C60.247 138.4 60.823 138.832 61.735 138.832H63.379V136.72H61.759C60.751 136.72 60.247 137.08 60.247 137.788Z" fill="#76848D"/>
<path d="M8.04978 93H6.83178V90.998H0.839783V90.186L6.97178 83.2H8.04978V89.864H9.86978V90.998H8.04978V93ZM6.83178 85.16L2.51978 89.864H6.83178V85.16ZM12.99 93.21L12.066 92.678L19.304 82.892L20.186 83.536L12.99 93.21ZM10.554 85.552C10.554 84.852 10.792 84.278 11.282 83.83C11.772 83.382 12.374 83.158 13.116 83.158C13.844 83.158 14.446 83.382 14.936 83.83C15.426 84.278 15.664 84.852 15.664 85.552C15.664 86.238 15.426 86.812 14.936 87.26C14.446 87.708 13.844 87.932 13.116 87.932C12.374 87.932 11.772 87.708 11.282 87.26C10.792 86.812 10.554 86.238 10.554 85.552ZM11.73 85.552C11.73 86.35 12.374 86.938 13.116 86.938C13.886 86.938 14.488 86.378 14.488 85.552C14.488 84.726 13.858 84.166 13.116 84.166C12.346 84.166 11.73 84.726 11.73 85.552ZM17.288 92.384C16.798 91.936 16.56 91.362 16.56 90.662C16.56 89.962 16.798 89.388 17.288 88.94C17.778 88.506 18.38 88.282 19.122 88.282C19.85 88.282 20.452 88.506 20.942 88.94C21.432 89.388 21.67 89.962 21.67 90.662C21.67 91.348 21.432 91.922 20.942 92.37C20.452 92.832 19.85 93.056 19.122 93.056C18.38 93.056 17.778 92.832 17.288 92.384ZM17.736 90.662C17.736 91.46 18.38 92.048 19.122 92.048C19.892 92.048 20.494 91.488 20.494 90.662C20.494 89.836 19.864 89.276 19.122 89.276C18.352 89.276 17.736 89.836 17.736 90.662Z" fill="#1A3341"/>
<path d="M27.0757 84.6H33.0757V85.62H28.1677V88.032H30.6637C32.6437 88.032 33.6997 88.884 33.6997 90.432C33.6997 92.16 32.4877 93 30.3397 93H27.0757V84.6ZM30.4957 89.052H28.1677V91.98H30.4237C31.8517 91.98 32.5717 91.464 32.5717 90.444C32.5717 89.52 31.8757 89.052 30.4957 89.052ZM39.5455 91.212L40.1935 91.812C39.6175 92.676 38.7895 93.108 37.6975 93.108C36.7015 93.108 35.8975 92.808 35.2855 92.22C34.6735 91.632 34.3735 90.852 34.3735 89.868C34.3735 88.92 34.6495 88.14 35.2135 87.528C35.7655 86.916 36.5455 86.616 37.5535 86.616C38.3815 86.616 39.0775 86.88 39.6175 87.396C40.1575 87.912 40.4335 88.596 40.4335 89.448C40.4335 89.724 40.4095 89.976 40.3735 90.204H35.4535C35.5135 91.44 36.4255 92.16 37.7335 92.16C38.4655 92.16 39.1615 91.776 39.5455 91.212ZM37.4815 87.54C36.3415 87.54 35.5975 88.236 35.4415 89.292H39.3655C39.3055 88.188 38.5975 87.54 37.4815 87.54ZM46.7169 93H45.7089V87.72H43.0689V88.008C43.0689 90.024 42.8409 91.416 42.3849 92.136C41.9289 92.856 41.3649 93.096 40.5849 93V92.04C41.3889 92.04 42.0609 91.692 42.0609 88.044V86.76H46.7169V93ZM50.5836 93H48.0636V86.76H49.0716V88.704H50.6796C52.3836 88.704 53.2356 89.412 53.2356 90.84C53.2356 92.1 52.4436 93 50.5836 93ZM50.5476 89.664H49.0716V92.04H50.5476C51.6996 92.04 52.1676 91.632 52.1676 90.852C52.1676 90.06 51.6276 89.664 50.5476 89.664ZM55.1391 93H54.1311V86.76H58.6791V87.708H55.1391V93ZM64.0477 88.332L60.2437 93H59.3197V86.76H60.3277V91.44L64.1197 86.76H65.0557V93H64.0477V88.332ZM68.879 86.76H71.387V93H70.379V90.792H68.855L67.007 93H65.783L67.775 90.636C66.815 90.456 66.179 89.724 66.179 88.764C66.179 87.576 67.007 86.76 68.879 86.76ZM67.247 88.788C67.247 89.4 67.823 89.832 68.735 89.832H70.379V87.72H68.759C67.751 87.72 67.247 88.08 67.247 88.788Z" fill="#76848D"/>
<path d="M16.2303 59.056L15.1803 58.58C15.6983 57.068 17.0563 56.074 19.0863 56.074C20.0523 56.074 20.8503 56.298 21.4663 56.746C22.0823 57.194 22.3903 57.796 22.3903 58.538C22.3903 59.672 21.7883 60.512 20.6683 60.834C21.7463 60.904 22.6143 61.716 22.6143 63.172C22.6143 64.096 22.2783 64.824 21.6063 65.342C20.9343 65.86 20.0803 66.126 19.0303 66.126C16.8883 66.126 15.4043 65.104 14.9143 63.494L16.0483 63.004C16.6503 64.278 17.6723 64.922 19.1143 64.922C20.4723 64.922 21.3263 64.292 21.3263 63.186C21.3263 62.108 20.4863 61.562 18.8063 61.562H17.7143V60.4H18.5823C20.1083 60.4 21.1023 59.714 21.1023 58.776C21.1023 57.81 20.3043 57.264 19.0303 57.264C17.5323 57.264 16.6223 58.034 16.2303 59.056ZM26.201 66.21L25.277 65.678L32.515 55.892L33.397 56.536L26.201 66.21ZM23.765 58.552C23.765 57.852 24.003 57.278 24.493 56.83C24.983 56.382 25.585 56.158 26.327 56.158C27.055 56.158 27.657 56.382 28.147 56.83C28.637 57.278 28.875 57.852 28.875 58.552C28.875 59.238 28.637 59.812 28.147 60.26C27.657 60.708 27.055 60.932 26.327 60.932C25.585 60.932 24.983 60.708 24.493 60.26C24.003 59.812 23.765 59.238 23.765 58.552ZM24.941 58.552C24.941 59.35 25.585 59.938 26.327 59.938C27.097 59.938 27.699 59.378 27.699 58.552C27.699 57.726 27.069 57.166 26.327 57.166C25.557 57.166 24.941 57.726 24.941 58.552ZM30.499 65.384C30.009 64.936 29.771 64.362 29.771 63.662C29.771 62.962 30.009 62.388 30.499 61.94C30.989 61.506 31.591 61.282 32.333 61.282C33.061 61.282 33.663 61.506 34.153 61.94C34.643 62.388 34.881 62.962 34.881 63.662C34.881 64.348 34.643 64.922 34.153 65.37C33.663 65.832 33.061 66.056 32.333 66.056C31.591 66.056 30.989 65.832 30.499 65.384ZM30.947 63.662C30.947 64.46 31.591 65.048 32.333 65.048C33.103 65.048 33.705 64.488 33.705 63.662C33.705 62.836 33.075 62.276 32.333 62.276C31.563 62.276 30.947 62.836 30.947 63.662Z" fill="#1A3341"/>
<path d="M46.3106 59.496L41.2106 66H40.2866V57.6H41.3786V64.104L46.4666 57.6H47.4026V66H46.3106V59.496ZM53.7528 64.2L54.4728 64.716C54.0048 65.592 52.9488 66.108 51.9048 66.108C50.9088 66.108 50.1048 65.808 49.4928 65.22C48.8808 64.632 48.5688 63.852 48.5688 62.868C48.5688 61.932 48.8688 61.152 49.4808 60.54C50.0928 59.928 50.8728 59.616 51.8448 59.616C52.9608 59.616 53.9568 60.12 54.3768 60.888L53.5968 61.416C53.1768 60.852 52.6008 60.564 51.8688 60.564C51.2208 60.564 50.6928 60.78 50.2728 61.212C49.8528 61.644 49.6368 62.196 49.6368 62.868C49.6368 63.552 49.8528 64.104 50.2968 64.524C50.7288 64.944 51.2928 65.16 52.0008 65.16C52.7448 65.16 53.3328 64.836 53.7528 64.2ZM60.7276 66H59.7196V60.708H56.1916V66H55.1836V59.76H60.7276V66ZM62.5514 61.26L62.0354 60.504C62.6114 59.964 63.6074 59.616 64.5314 59.616C66.1994 59.616 67.0874 60.528 67.0874 62.148V66H66.0794V65.076C65.6834 65.652 64.9034 66.084 63.8954 66.084C62.5394 66.084 61.6274 65.328 61.6274 64.176C61.6274 62.868 62.7434 62.244 64.6154 62.244C65.2034 62.244 65.6834 62.304 66.0794 62.424C66.0794 61.212 65.6474 60.564 64.4114 60.564C63.7874 60.564 63.1634 60.792 62.5514 61.26ZM64.1354 65.172C64.6034 65.172 65.0234 65.04 65.3714 64.788C65.7194 64.536 65.9474 64.248 66.0794 63.948V63.312C65.7314 63.192 65.2874 63.132 64.7474 63.132C63.3794 63.132 62.6954 63.468 62.6954 64.14C62.6954 64.776 63.2714 65.172 64.1354 65.172ZM73.9775 66H72.9695V63.3H69.3695V66H68.3615V59.76H69.3695V62.352H72.9695V59.76H73.9775V66ZM80.0477 61.332L76.2437 66H75.3197V59.76H76.3277V64.44L80.1197 59.76H81.0557V66H80.0477V61.332ZM84.879 59.76H87.387V66H86.379V63.792H84.855L83.007 66H81.783L83.775 63.636C82.815 63.456 82.179 62.724 82.179 61.764C82.179 60.576 83.007 59.76 84.879 59.76ZM83.247 61.788C83.247 62.4 83.823 62.832 84.735 62.832H86.379V60.72H84.759C83.751 60.72 83.247 61.08 83.247 61.788Z" fill="#76848D"/>
<path d="M34.0244 33.056L32.9744 32.58C33.4924 31.068 34.8504 30.074 36.8804 30.074C37.8464 30.074 38.6444 30.298 39.2604 30.746C39.8764 31.194 40.1844 31.796 40.1844 32.538C40.1844 33.672 39.5824 34.512 38.4624 34.834C39.5404 34.904 40.4084 35.716 40.4084 37.172C40.4084 38.096 40.0724 38.824 39.4004 39.342C38.7284 39.86 37.8744 40.126 36.8244 40.126C34.6824 40.126 33.1984 39.104 32.7084 37.494L33.8424 37.004C34.4444 38.278 35.4664 38.922 36.9084 38.922C38.2664 38.922 39.1204 38.292 39.1204 37.186C39.1204 36.108 38.2804 35.562 36.6004 35.562H35.5084V34.4H36.3764C37.9024 34.4 38.8964 33.714 38.8964 32.776C38.8964 31.81 38.0984 31.264 36.8244 31.264C35.3264 31.264 34.4164 32.034 34.0244 33.056ZM43.995 40.21L43.071 39.678L50.309 29.892L51.191 30.536L43.995 40.21ZM41.559 32.552C41.559 31.852 41.797 31.278 42.287 30.83C42.777 30.382 43.379 30.158 44.121 30.158C44.849 30.158 45.451 30.382 45.941 30.83C46.431 31.278 46.669 31.852 46.669 32.552C46.669 33.238 46.431 33.812 45.941 34.26C45.451 34.708 44.849 34.932 44.121 34.932C43.379 34.932 42.777 34.708 42.287 34.26C41.797 33.812 41.559 33.238 41.559 32.552ZM42.735 32.552C42.735 33.35 43.379 33.938 44.121 33.938C44.891 33.938 45.493 33.378 45.493 32.552C45.493 31.726 44.863 31.166 44.121 31.166C43.351 31.166 42.735 31.726 42.735 32.552ZM48.293 39.384C47.803 38.936 47.565 38.362 47.565 37.662C47.565 36.962 47.803 36.388 48.293 35.94C48.783 35.506 49.385 35.282 50.127 35.282C50.855 35.282 51.457 35.506 51.947 35.94C52.437 36.388 52.675 36.962 52.675 37.662C52.675 38.348 52.437 38.922 51.947 39.37C51.457 39.832 50.855 40.056 50.127 40.056C49.385 40.056 48.783 39.832 48.293 39.384ZM48.741 37.662C48.741 38.46 49.385 39.048 50.127 39.048C50.897 39.048 51.499 38.488 51.499 37.662C51.499 36.836 50.869 36.276 50.127 36.276C49.357 36.276 48.741 36.836 48.741 37.662Z" fill="#1A3341"/>
<path d="M67.5967 40H58.0807V31.6H59.1727V38.98H62.2927V31.6H63.3847V38.98H66.5047V31.6H67.5967V40ZM71.8855 40H69.1015V33.76H71.6935C73.4335 33.76 74.2495 34.204 74.2495 35.356C74.2495 35.932 73.9855 36.388 73.4455 36.712C74.1175 36.916 74.4535 37.408 74.4535 38.212C74.4535 39.376 73.5295 40 71.8855 40ZM71.8975 37.276H70.1095V39.064H71.7775C72.8455 39.064 73.3855 38.764 73.3855 38.164C73.3855 37.576 72.8935 37.276 71.8975 37.276ZM71.6575 34.696H70.1095V36.364H72.0055C72.7375 36.364 73.1815 36.064 73.1815 35.5C73.1815 34.864 72.6655 34.696 71.6575 34.696ZM80.286 38.212L80.934 38.812C80.358 39.676 79.53 40.108 78.438 40.108C77.442 40.108 76.638 39.808 76.026 39.22C75.414 38.632 75.114 37.852 75.114 36.868C75.114 35.92 75.39 35.14 75.954 34.528C76.506 33.916 77.286 33.616 78.294 33.616C79.122 33.616 79.818 33.88 80.358 34.396C80.898 34.912 81.174 35.596 81.174 36.448C81.174 36.724 81.15 36.976 81.114 37.204H76.194C76.254 38.44 77.166 39.16 78.474 39.16C79.206 39.16 79.902 38.776 80.286 38.212ZM78.222 34.54C77.082 34.54 76.338 35.236 76.182 36.292H80.106C80.046 35.188 79.338 34.54 78.222 34.54ZM87.61 40H82.174V33.76H83.182V39.04H86.674V33.76H87.682V39.04H88.558V41.512H87.61V40ZM94.0477 35.332L90.2437 40H89.3197V33.76H90.3277V38.44L94.1197 33.76H95.0557V40H94.0477V35.332ZM98.879 33.76H101.387V40H100.379V37.792H98.855L97.007 40H95.783L97.775 37.636C96.815 37.456 96.179 36.724 96.179 35.764C96.179 34.576 97.007 33.76 98.879 33.76ZM97.247 35.788C97.247 36.4 97.823 36.832 98.735 36.832H100.379V34.72H98.759C97.751 34.72 97.247 35.08 97.247 35.788Z" fill="#76848D"/>
<path d="M79.1782 6.804L78.7302 5.754L82.0902 4.144H82.8882V14H81.6842V5.642L79.1782 6.804ZM85.7936 7.434L84.7716 7.07C85.1216 5.334 86.4376 4.088 88.5236 4.088C90.5396 4.088 91.7716 5.25 91.7716 7.028C91.7716 7.966 91.3656 8.904 90.8616 9.576C90.6096 9.926 90.2876 10.262 89.9096 10.612C89.1396 11.298 88.5936 11.662 87.7956 12.166L86.7176 12.838H92.1356V14H84.5056V13.048L86.6336 11.634C87.0116 11.396 87.2776 11.214 87.4316 11.102C87.5856 11.004 87.8376 10.822 88.1736 10.584C88.5096 10.346 88.7616 10.136 88.9296 9.982C89.0836 9.828 89.2936 9.632 89.5316 9.38C90.1756 8.68 90.4136 8.036 90.4836 7.154C90.4836 5.88 89.6576 5.306 88.4396 5.306C87.6836 5.306 87.0816 5.516 86.6476 5.936C86.2136 6.356 85.9196 6.86 85.7936 7.434ZM95.5419 14.21L94.6179 13.678L101.856 3.892L102.738 4.536L95.5419 14.21ZM93.1059 6.552C93.1059 5.852 93.3439 5.278 93.8339 4.83C94.3239 4.382 94.9259 4.158 95.6679 4.158C96.3959 4.158 96.9979 4.382 97.4879 4.83C97.9779 5.278 98.2159 5.852 98.2159 6.552C98.2159 7.238 97.9779 7.812 97.4879 8.26C96.9979 8.708 96.3959 8.932 95.6679 8.932C94.9259 8.932 94.3239 8.708 93.8339 8.26C93.3439 7.812 93.1059 7.238 93.1059 6.552ZM94.2819 6.552C94.2819 7.35 94.9259 7.938 95.6679 7.938C96.4379 7.938 97.0399 7.378 97.0399 6.552C97.0399 5.726 96.4099 5.166 95.6679 5.166C94.8979 5.166 94.2819 5.726 94.2819 6.552ZM99.8399 13.384C99.3499 12.936 99.1119 12.362 99.1119 11.662C99.1119 10.962 99.3499 10.388 99.8399 9.94C100.33 9.506 100.932 9.282 101.674 9.282C102.402 9.282 103.004 9.506 103.494 9.94C103.984 10.388 104.222 10.962 104.222 11.662C104.222 12.348 103.984 12.922 103.494 13.37C103.004 13.832 102.402 14.056 101.674 14.056C100.932 14.056 100.33 13.832 99.8399 13.384ZM100.288 11.662C100.288 12.46 100.932 13.048 101.674 13.048C102.444 13.048 103.046 12.488 103.046 11.662C103.046 10.836 102.416 10.276 101.674 10.276C100.904 10.276 100.288 10.836 100.288 11.662Z" fill="#1A3341"/>
<path d="M116.768 14H115.676V6.62H110.72V14H109.628V5.6H116.768V14ZM119.277 16.4H118.269V7.76H119.277V8.54C119.697 7.928 120.369 7.616 121.293 7.616C122.205 7.616 122.937 7.904 123.477 8.492C124.017 9.08 124.281 9.836 124.281 10.772C124.281 11.732 123.993 12.524 123.417 13.16C122.829 13.796 122.085 14.108 121.173 14.108C120.333 14.108 119.697 13.892 119.277 13.472V16.4ZM121.185 8.564C120.273 8.564 119.565 9.152 119.277 9.86V12.188C119.637 12.836 120.237 13.16 121.089 13.16C121.701 13.16 122.217 12.944 122.613 12.512C123.009 12.08 123.213 11.528 123.213 10.844C123.213 9.452 122.433 8.564 121.185 8.564ZM124.926 10.868C124.926 9.92 125.238 9.14 125.85 8.528C126.462 7.916 127.254 7.616 128.226 7.616C129.21 7.616 130.014 7.916 130.626 8.528C131.238 9.14 131.551 9.92 131.551 10.868C131.551 11.816 131.238 12.584 130.626 13.196C130.002 13.808 129.198 14.108 128.226 14.108C127.254 14.108 126.462 13.808 125.85 13.196C125.238 12.584 124.926 11.816 124.926 10.868ZM125.994 10.868C125.994 11.528 126.198 12.08 126.618 12.512C127.038 12.944 127.566 13.16 128.226 13.16C128.886 13.16 129.438 12.944 129.858 12.524C130.278 12.104 130.482 11.552 130.482 10.868C130.482 10.184 130.266 9.632 129.846 9.2C129.414 8.78 128.874 8.564 128.226 8.564C127.578 8.564 127.05 8.78 126.63 9.2C126.21 9.62 125.994 10.184 125.994 10.868ZM136.593 7.76H137.601V14H136.593V11.372C136.137 11.828 135.501 12.056 134.685 12.056C133.041 12.056 132.225 11.228 132.225 9.572V7.76H133.233V9.296C133.233 10.556 133.761 11.096 134.865 11.096C135.585 11.096 136.269 10.712 136.593 10.244V7.76ZM143.673 9.332L139.869 14H138.945V7.76H139.953V12.44L143.745 7.76H144.681V14H143.673V9.332ZM150.844 12.212L151.492 12.812C150.916 13.676 150.088 14.108 148.996 14.108C148 14.108 147.196 13.808 146.584 13.22C145.972 12.632 145.672 11.852 145.672 10.868C145.672 9.92 145.948 9.14 146.512 8.528C147.064 7.916 147.844 7.616 148.852 7.616C149.68 7.616 150.376 7.88 150.916 8.396C151.456 8.912 151.732 9.596 151.732 10.448C151.732 10.724 151.708 10.976 151.672 11.204H146.752C146.812 12.44 147.724 13.16 149.032 13.16C149.764 13.16 150.46 12.776 150.844 12.212ZM148.78 8.54C147.64 8.54 146.896 9.236 146.74 10.292H150.664C150.604 9.188 149.896 8.54 148.78 8.54Z" fill="#76848D"/>
<path d="M177.613 142.152V145H158.125V142.44L167.373 137.096C169.186 136.051 170.53 135.208 171.405 134.568C172.28 133.907 172.866 133.299 173.165 132.744C173.485 132.189 173.645 131.528 173.645 130.76V130.44C173.645 129.203 173.122 128.253 172.077 127.592C171.053 126.931 169.57 126.6 167.629 126.6C165.624 126.6 164.098 126.952 163.053 127.656C162.029 128.36 161.517 129.384 161.517 130.728V131.368H158.317V130.696C158.317 128.413 159.117 126.664 160.717 125.448C162.317 124.232 164.6 123.624 167.565 123.624C170.466 123.624 172.738 124.221 174.381 125.416C176.024 126.611 176.845 128.253 176.845 130.344V130.664C176.845 131.795 176.621 132.787 176.173 133.64C175.725 134.493 174.946 135.357 173.837 136.232C172.749 137.107 171.149 138.152 169.037 139.368L164.173 142.152H177.613ZM191.881 145.384C189.748 145.384 187.86 145 186.217 144.232C184.596 143.464 183.327 142.387 182.409 141C181.513 139.613 181.065 138.024 181.065 136.232V132.808C181.065 130.995 181.513 129.395 182.409 128.008C183.327 126.621 184.596 125.544 186.217 124.776C187.86 124.008 189.748 123.624 191.881 123.624C193.993 123.624 195.86 124.008 197.481 124.776C199.103 125.544 200.361 126.621 201.257 128.008C202.153 129.395 202.601 130.995 202.601 132.808V136.232C202.601 138.045 202.153 139.645 201.257 141.032C200.361 142.397 199.103 143.464 197.481 144.232C195.86 145 193.993 145.384 191.881 145.384ZM191.881 142.408C194.228 142.408 196.073 141.864 197.417 140.776C198.761 139.688 199.433 138.184 199.433 136.264V132.776C199.433 130.877 198.751 129.373 197.385 128.264C196.041 127.155 194.196 126.6 191.849 126.6C189.481 126.6 187.615 127.155 186.249 128.264C184.905 129.352 184.233 130.856 184.233 132.776V136.264C184.233 138.184 184.905 139.688 186.249 140.776C187.615 141.864 189.492 142.408 191.881 142.408ZM226.006 142.152V145H206.518V142.44L215.766 137.096C217.579 136.051 218.923 135.208 219.798 134.568C220.672 133.907 221.259 133.299 221.558 132.744C221.878 132.189 222.038 131.528 222.038 130.76V130.44C222.038 129.203 221.515 128.253 220.47 127.592C219.446 126.931 217.963 126.6 216.022 126.6C214.016 126.6 212.491 126.952 211.446 127.656C210.422 128.36 209.91 129.384 209.91 130.728V131.368H206.71V130.696C206.71 128.413 207.51 126.664 209.11 125.448C210.71 124.232 212.992 123.624 215.958 123.624C218.859 123.624 221.131 124.221 222.774 125.416C224.416 126.611 225.238 128.253 225.238 130.344V130.664C225.238 131.795 225.014 132.787 224.566 133.64C224.118 134.493 223.339 135.357 222.23 136.232C221.142 137.107 219.542 138.152 217.43 139.368L212.566 142.152H226.006ZM240.978 132.328C243.815 132.413 245.98 132.979 247.474 134.024C248.988 135.048 249.746 136.477 249.746 138.312V138.728C249.746 140.883 248.882 142.536 247.154 143.688C245.426 144.819 242.908 145.384 239.602 145.384C236.38 145.363 233.884 144.797 232.114 143.688C230.364 142.579 229.49 141.011 229.49 138.984V138.76H232.658V138.984C232.658 140.051 233.276 140.893 234.514 141.512C235.751 142.109 237.458 142.408 239.634 142.408C241.916 142.408 243.644 142.109 244.818 141.512C245.991 140.893 246.578 139.987 246.578 138.792V138.408C246.578 136.168 244.295 135.048 239.73 135.048H236.274V132.232L244.178 126.856H229.874V124.008H249.234V126.856L240.978 132.328Z" fill="#1A3341"/>
<path d="M204 20C230.761 20 256.684 29.3329 277.304 46.391C297.923 63.4491 311.949 87.1642 316.963 113.451C321.978 139.738 317.667 166.951 304.775 190.402C291.883 213.852 271.216 232.073 246.334 241.924L241.254 229.093C263.15 220.424 281.337 204.39 292.682 183.753C304.027 163.117 307.82 139.17 303.407 116.037C298.995 92.9045 286.653 72.0352 268.507 57.0241C250.362 42.013 227.55 33.8 204 33.8V20Z" fill="url(#paint0_linear_4004_9087)"/>
<path d="M246.373 241.909C221.495 251.769 193.957 252.645 168.503 244.384L172.762 231.258C195.162 238.527 219.396 237.757 241.288 229.08L246.373 241.909Z" fill="url(#paint1_linear_4004_9087)"/>
<path d="M110.969 202.604C98.1406 184.95 90.5998 164.011 89.2276 142.231L103 141.364C104.208 160.529 110.844 178.956 122.133 194.491L110.969 202.604Z" fill="url(#paint2_linear_4004_9087)"/>
<path d="M168.481 244.377C145.383 236.876 125.252 222.256 110.974 202.611L122.137 194.497C134.702 211.785 152.417 224.651 172.743 231.252L168.481 244.377Z" fill="url(#paint3_linear_4004_9087)"/>
<path d="M89.2258 142.203C88.6216 132.575 89.2312 122.909 91.0403 113.434L104.595 116.022C103.003 124.36 102.467 132.866 102.999 141.339L89.2258 142.203Z" fill="url(#paint4_linear_4004_9087)"/>
<path d="M99.9698 85.9825C103.052 79.4412 106.744 73.2052 110.997 67.3574L122.158 75.4745C118.415 80.6206 115.166 86.1083 112.453 91.8646L99.9698 85.9825Z" fill="url(#paint5_linear_4004_9087)"/>
<path d="M91.0479 113.394C92.8603 103.919 95.8578 94.7095 99.9697 85.9828L112.453 91.8648C108.835 99.5444 106.197 107.649 104.602 115.987L91.0479 113.394Z" fill="url(#paint6_linear_4004_9087)"/>
<path d="M110.997 67.3584C115.25 61.5105 120.045 56.0768 125.319 51.1294L134.761 61.1939C130.12 65.5476 125.9 70.3293 122.157 75.4754L110.997 67.3584Z" fill="#AECEE5"/>
<path d="M125.326 51.1229C146.66 31.1124 174.817 19.983 204.067 20L204.059 33.8C178.319 33.7851 153.54 43.5789 134.767 61.1882L125.326 51.1229Z" fill="#DBE9EE"/>
<defs>
<linearGradient id="paint0_linear_4004_9087" x1="210" y1="3.00001" x2="319" y2="122" gradientUnits="userSpaceOnUse">
<stop offset="0" stop-color="#5358CC"/>
<stop offset="1" stop-color="#3B38CE"/>
</linearGradient>
<linearGradient id="paint1_linear_4004_9087" x1="225.5" y1="250" x2="7.99999" y2="140.5" gradientUnits="userSpaceOnUse">
<stop offset="0" stop-color="#6D73F9"/>
<stop offset="1" stop-color="#9BB8F1"/>
</linearGradient>
<linearGradient id="paint2_linear_4004_9087" x1="163.5" y1="233.5" x2="218.5" y2="241.5" gradientUnits="userSpaceOnUse">
<stop offset="0" stop-color="#C9D2EA"/>
<stop offset="1" stop-color="#D1DCFB"/>
</linearGradient>
<linearGradient id="paint3_linear_4004_9087" x1="119.5" y1="53.5" x2="184.5" y2="20" gradientUnits="userSpaceOnUse">
<stop offset="0" stop-color="#ACAEEA"/>
<stop offset="1" stop-color="#A4B9F0"/>
</linearGradient>
<linearGradient id="paint4_linear_4004_9087" x1="105.5" y1="94.5" x2="149" y2="51" gradientUnits="userSpaceOnUse">
<stop offset="0" stop-color="#476DD3"/>
<stop offset="1" stop-color="#7094F1"/>
</linearGradient>
<linearGradient id="paint5_linear_4004_9087" x1="101.5" y1="174" x2="104" y2="126" gradientUnits="userSpaceOnUse">
<stop offset="0" stop-color="#CADFF3"/>
<stop offset="1" stop-color="#D2E6FE"/>
</linearGradient>
<linearGradient id="paint6_linear_4004_9087" x1="135" y1="62" x2="171" y2="40.5" gradientUnits="userSpaceOnUse">
<stop offset="0" stop-color="#A0CEF7"/>
<stop offset="1" stop-color="#7FB1EC"/>
</linearGradient>
</defs>
</svg>
