<svg width="545" height="262" viewBox="0 0 545 262" fill="none" xmlns="http://www.w3.org/2000/svg">
<path d="M81 46H350C350.552 46 351 46.4477 351 47V63C351 63.5523 350.552 64 350 64H81V46Z" fill="url(#paint0_linear_4002_9225)"/>
<path d="M359.49 51.804L359.042 50.754L362.402 49.144H363.2V59H361.996V50.642L359.49 51.804ZM366.105 52.434L365.083 52.07C365.433 50.334 366.749 49.088 368.835 49.088C370.851 49.088 372.083 50.25 372.083 52.028C372.083 52.966 371.677 53.904 371.173 54.576C370.921 54.926 370.599 55.262 370.221 55.612C369.451 56.298 368.905 56.662 368.107 57.166L367.029 57.838H372.447V59H364.817V58.048L366.945 56.634C367.323 56.396 367.589 56.214 367.743 56.102C367.897 56.004 368.149 55.822 368.485 55.584C368.821 55.346 369.073 55.136 369.241 54.982C369.395 54.828 369.605 54.632 369.843 54.38C370.487 53.68 370.725 53.036 370.795 52.154C370.795 50.88 369.969 50.306 368.751 50.306C367.995 50.306 367.393 50.516 366.959 50.936C366.525 51.356 366.231 51.86 366.105 52.434ZM381.566 53.918C381.566 55.584 381.174 56.872 380.376 57.768C379.578 58.678 378.514 59.126 377.184 59.126C375.56 59.126 374.286 58.44 373.656 57.39L374.664 56.69C375.224 57.474 376.246 57.922 377.352 57.922C378.262 57.922 378.99 57.558 379.564 56.83C380.138 56.116 380.376 55.22 380.306 54.156C379.844 55.22 378.682 56.004 377.128 56.004C376.036 56.004 375.14 55.696 374.44 55.066C373.726 54.45 373.376 53.638 373.376 52.644C373.376 51.552 373.754 50.684 374.51 50.04C375.266 49.396 376.274 49.074 377.52 49.074C380.04 49.074 381.566 50.838 381.566 53.918ZM380.096 52.602C379.886 51.3 378.99 50.278 377.38 50.278C375.7 50.278 374.664 51.146 374.664 52.602C374.664 53.988 375.714 54.8 377.352 54.8C378.094 54.8 378.724 54.576 379.214 54.128C379.704 53.68 379.998 53.176 380.096 52.602ZM386.673 54.366C386.673 52.672 387.093 51.37 387.919 50.446C388.745 49.536 389.781 49.074 391.027 49.074C392.665 49.074 393.953 49.816 394.499 50.992L393.547 51.636C392.973 50.726 392.119 50.278 390.971 50.278C390.103 50.278 389.375 50.614 388.787 51.286C388.199 51.972 387.905 52.896 387.919 54.086C388.465 53.064 389.739 52.448 391.139 52.448C392.273 52.448 393.183 52.742 393.841 53.344C394.499 53.946 394.835 54.744 394.835 55.724C394.835 56.718 394.471 57.544 393.729 58.174C392.987 58.804 392.063 59.126 390.957 59.126C388.311 59.126 386.673 57.404 386.673 54.366ZM388.073 55.556C388.339 56.942 389.389 57.922 390.943 57.922C391.699 57.922 392.329 57.726 392.819 57.32C393.309 56.928 393.547 56.41 393.547 55.78C393.547 54.394 392.567 53.652 391.069 53.652C390.243 53.652 389.557 53.848 389.025 54.24C388.479 54.632 388.171 55.066 388.073 55.556ZM396.809 52.056L395.759 51.58C396.277 50.068 397.635 49.074 399.665 49.074C400.631 49.074 401.429 49.298 402.045 49.746C402.661 50.194 402.969 50.796 402.969 51.538C402.969 52.672 402.367 53.512 401.247 53.834C402.325 53.904 403.193 54.716 403.193 56.172C403.193 57.096 402.857 57.824 402.185 58.342C401.513 58.86 400.659 59.126 399.609 59.126C397.467 59.126 395.983 58.104 395.493 56.494L396.627 56.004C397.229 57.278 398.251 57.922 399.693 57.922C401.051 57.922 401.905 57.292 401.905 56.186C401.905 55.108 401.065 54.562 399.385 54.562H398.293V53.4H399.161C400.687 53.4 401.681 52.714 401.681 51.776C401.681 50.81 400.883 50.264 399.609 50.264C398.111 50.264 397.201 51.034 396.809 52.056ZM405.464 52.434L404.442 52.07C404.792 50.334 406.108 49.088 408.194 49.088C410.21 49.088 411.442 50.25 411.442 52.028C411.442 52.966 411.036 53.904 410.532 54.576C410.28 54.926 409.958 55.262 409.58 55.612C408.81 56.298 408.264 56.662 407.466 57.166L406.388 57.838H411.806V59H404.176V58.048L406.304 56.634C406.682 56.396 406.948 56.214 407.102 56.102C407.256 56.004 407.508 55.822 407.844 55.584C408.18 55.346 408.432 55.136 408.6 54.982C408.754 54.828 408.964 54.632 409.202 54.38C409.846 53.68 410.084 53.036 410.154 52.154C410.154 50.88 409.328 50.306 408.11 50.306C407.354 50.306 406.752 50.516 406.318 50.936C405.884 51.356 405.59 51.86 405.464 52.434Z" fill="#1A3341"/>
<path d="M81 70H433C433.552 70 434 70.4477 434 71V87C434 87.5523 433.552 88 433 88H81V70Z" fill="url(#paint1_linear_4002_9225)"/>
<path d="M442.49 75.804L442.042 74.754L445.402 73.144H446.2V83H444.996V74.642L442.49 75.804ZM453.599 74.39H447.663V73.2H455.097V73.998L450.225 83H448.895L453.599 74.39ZM455.843 78.1C455.843 76.588 456.193 75.37 456.907 74.46C457.607 73.55 458.643 73.088 460.001 73.088C462.787 73.088 464.173 74.922 464.173 78.1C464.173 79.626 463.823 80.83 463.137 81.74C462.437 82.65 461.401 83.112 460.029 83.112C458.713 83.112 457.691 82.65 456.949 81.726C456.207 80.802 455.843 79.598 455.843 78.1ZM457.131 78.1C457.131 80.494 458.223 81.922 460.029 81.922C461.933 81.922 462.885 80.648 462.885 78.1C462.885 75.552 461.919 74.278 460.001 74.278C458.055 74.278 457.131 75.678 457.131 78.1ZM469.276 78.1C469.276 76.588 469.626 75.37 470.34 74.46C471.04 73.55 472.076 73.088 473.434 73.088C476.22 73.088 477.606 74.922 477.606 78.1C477.606 79.626 477.256 80.83 476.57 81.74C475.87 82.65 474.834 83.112 473.462 83.112C472.146 83.112 471.124 82.65 470.382 81.726C469.64 80.802 469.276 79.598 469.276 78.1ZM470.564 78.1C470.564 80.494 471.656 81.922 473.462 81.922C475.366 81.922 476.318 80.648 476.318 78.1C476.318 75.552 475.352 74.278 473.434 74.278C471.488 74.278 470.564 75.678 470.564 78.1ZM484.266 74.39H478.33V73.2H485.764V73.998L480.892 83H479.562L484.266 74.39ZM490.374 77.414H490.808C491.438 77.414 491.956 77.26 492.39 76.966C492.81 76.672 493.02 76.28 493.02 75.818C493.02 74.768 492.194 74.236 490.556 74.236C488.988 74.236 488.134 74.81 488.134 75.818C488.134 76.728 489.072 77.414 490.374 77.414ZM490.78 78.52H490.43C489.674 78.52 489.044 78.688 488.554 79.01C488.064 79.332 487.812 79.738 487.812 80.228C487.812 81.292 488.792 81.964 490.57 81.964C492.376 81.964 493.342 81.32 493.342 80.242C493.342 79.164 492.306 78.52 490.78 78.52ZM493.538 82.37C492.824 82.874 491.83 83.126 490.584 83.126C489.338 83.126 488.344 82.874 487.616 82.384C486.888 81.894 486.524 81.222 486.524 80.354C486.524 79.22 487.266 78.324 488.456 77.932C487.378 77.582 486.846 76.728 486.846 75.734C486.846 74.11 488.218 73.074 490.57 73.074C492.936 73.074 494.308 74.11 494.308 75.734C494.308 76.672 493.79 77.386 492.754 77.862C494 78.24 494.616 79.052 494.616 80.298C494.616 81.18 494.252 81.88 493.538 82.37Z" fill="#1A3341"/>
<path opacity="0.6" d="M3.55109 57H2.45909V48.6H3.46709L6.65909 52.824L9.74309 48.6H10.7271V57H9.63509V50.484L6.76709 54.348H6.50309L3.55109 50.484V57ZM11.8781 53.868C11.8781 52.92 12.1901 52.14 12.8021 51.528C13.4141 50.916 14.2061 50.616 15.1781 50.616C16.1621 50.616 16.9661 50.916 17.5781 51.528C18.1901 52.14 18.5021 52.92 18.5021 53.868C18.5021 54.816 18.1901 55.584 17.5781 56.196C16.9541 56.808 16.1501 57.108 15.1781 57.108C14.2061 57.108 13.4141 56.808 12.8021 56.196C12.1901 55.584 11.8781 54.816 11.8781 53.868ZM12.9461 53.868C12.9461 54.528 13.1501 55.08 13.5701 55.512C13.9901 55.944 14.5181 56.16 15.1781 56.16C15.8381 56.16 16.3901 55.944 16.8101 55.524C17.2301 55.104 17.4341 54.552 17.4341 53.868C17.4341 53.184 17.2181 52.632 16.7981 52.2C16.3661 51.78 15.8261 51.564 15.1781 51.564C14.5301 51.564 14.0021 51.78 13.5821 52.2C13.1621 52.62 12.9461 53.184 12.9461 53.868ZM24.3366 55.2L25.0566 55.716C24.5886 56.592 23.5326 57.108 22.4886 57.108C21.4926 57.108 20.6886 56.808 20.0766 56.22C19.4646 55.632 19.1526 54.852 19.1526 53.868C19.1526 52.932 19.4526 52.152 20.0646 51.54C20.6766 50.928 21.4566 50.616 22.4286 50.616C23.5446 50.616 24.5406 51.12 24.9606 51.888L24.1806 52.416C23.7606 51.852 23.1846 51.564 22.4526 51.564C21.8046 51.564 21.2766 51.78 20.8566 52.212C20.4366 52.644 20.2206 53.196 20.2206 53.868C20.2206 54.552 20.4366 55.104 20.8806 55.524C21.3126 55.944 21.8766 56.16 22.5846 56.16C23.3286 56.16 23.9166 55.836 24.3366 55.2ZM26.7753 57H25.7673V50.76H26.7753V53.556L29.9313 50.76H31.2873L28.0593 53.628L31.4433 57H30.0993L27.2913 54.252L26.7753 54.732V57ZM31.1352 53.868C31.1352 52.92 31.4472 52.14 32.0592 51.528C32.6712 50.916 33.4632 50.616 34.4352 50.616C35.4192 50.616 36.2232 50.916 36.8352 51.528C37.4472 52.14 37.7592 52.92 37.7592 53.868C37.7592 54.816 37.4472 55.584 36.8352 56.196C36.2112 56.808 35.4072 57.108 34.4352 57.108C33.4632 57.108 32.6712 56.808 32.0592 56.196C31.4472 55.584 31.1352 54.816 31.1352 53.868ZM32.2032 53.868C32.2032 54.528 32.4072 55.08 32.8272 55.512C33.2472 55.944 33.7752 56.16 34.4352 56.16C35.0952 56.16 35.6472 55.944 36.0672 55.524C36.4872 55.104 36.6912 54.552 36.6912 53.868C36.6912 53.184 36.4752 52.632 36.0552 52.2C35.6232 51.78 35.0832 51.564 34.4352 51.564C33.7872 51.564 33.2592 51.78 32.8392 52.2C32.4192 52.62 32.2032 53.184 32.2032 53.868ZM41.5418 57H38.7578V50.76H41.3498C43.0898 50.76 43.9058 51.204 43.9058 52.356C43.9058 52.932 43.6418 53.388 43.1018 53.712C43.7738 53.916 44.1098 54.408 44.1098 55.212C44.1098 56.376 43.1858 57 41.5418 57ZM41.5538 54.276H39.7658V56.064H41.4338C42.5018 56.064 43.0418 55.764 43.0418 55.164C43.0418 54.576 42.5498 54.276 41.5538 54.276ZM41.3138 51.696H39.7658V53.364H41.6618C42.3938 53.364 42.8378 53.064 42.8378 52.5C42.8378 51.864 42.3218 51.696 41.3138 51.696ZM49.9542 55.2L50.6742 55.716C50.2062 56.592 49.1502 57.108 48.1062 57.108C47.1102 57.108 46.3062 56.808 45.6942 56.22C45.0822 55.632 44.7702 54.852 44.7702 53.868C44.7702 52.932 45.0702 52.152 45.6822 51.54C46.2942 50.928 47.0742 50.616 48.0462 50.616C49.1622 50.616 50.1582 51.12 50.5782 51.888L49.7982 52.416C49.3782 51.852 48.8022 51.564 48.0702 51.564C47.4222 51.564 46.8942 51.78 46.4742 52.212C46.0542 52.644 45.8382 53.196 45.8382 53.868C45.8382 54.552 46.0542 55.104 46.4982 55.524C46.9302 55.944 47.4942 56.16 48.2022 56.16C48.9462 56.16 49.5342 55.836 49.9542 55.2ZM52.393 57H51.385V50.76H52.393V53.556L55.549 50.76H56.905L53.677 53.628L57.061 57H55.717L52.909 54.252L52.393 54.732V57ZM62.3094 52.332L58.5054 57H57.5814V50.76H58.5894V55.44L62.3814 50.76H63.3174V57H62.3094V52.332ZM69.3847 52.332L65.5807 57H64.6567V50.76H65.6647V55.44L69.4567 50.76H70.3927V57H69.3847V52.332ZM65.6167 48.072H66.5647C66.5767 48.66 66.9607 49.056 67.6327 49.056C68.2687 49.056 68.6647 48.66 68.6647 48.072H69.6127C69.6007 49.164 68.7487 49.86 67.6327 49.86C66.4327 49.86 65.6287 49.176 65.6167 48.072ZM46.2321 71.376L46.6281 70.5C46.7241 70.536 46.8081 70.56 46.8921 70.56C47.3601 70.56 47.6841 70.236 48.1041 69.24L48.2961 68.772L45.2721 62.76H46.4601L48.8001 67.5L50.5641 62.76H51.6681L49.2921 68.904C48.8841 69.912 48.5001 70.596 48.1521 70.968C47.7921 71.34 47.3841 71.52 46.9281 71.52C46.6641 71.52 46.4361 71.472 46.2321 71.376ZM54.4819 69.12C53.1979 69.12 52.2499 68.64 51.6619 67.692L52.4539 67.14C52.8019 67.776 53.5699 68.184 54.4939 68.184C55.4899 68.184 56.1979 67.776 56.1979 67.104C56.1979 66.552 55.7779 66.276 54.9499 66.276H53.4859V65.364H54.8779C55.4899 65.364 55.9699 65.004 55.9699 64.464C55.9699 63.876 55.3459 63.54 54.4459 63.54C53.6899 63.54 53.0659 63.828 52.5979 64.416L51.8539 63.924C52.2739 63.204 53.2339 62.604 54.5419 62.604C56.1139 62.604 57.0379 63.264 57.0379 64.308C57.0379 64.896 56.7859 65.352 56.2939 65.652C57.0139 66 57.2659 66.42 57.2659 67.08C57.2659 67.716 57.0019 68.208 56.4859 68.568C55.9699 68.94 55.2979 69.12 54.4819 69.12ZM63.094 67.212L63.742 67.812C63.166 68.676 62.338 69.108 61.246 69.108C60.25 69.108 59.446 68.808 58.834 68.22C58.222 67.632 57.922 66.852 57.922 65.868C57.922 64.92 58.198 64.14 58.762 63.528C59.314 62.916 60.094 62.616 61.102 62.616C61.93 62.616 62.626 62.88 63.166 63.396C63.706 63.912 63.982 64.596 63.982 65.448C63.982 65.724 63.958 65.976 63.922 66.204H59.002C59.062 67.44 59.974 68.16 61.282 68.16C62.014 68.16 62.71 67.776 63.094 67.212ZM61.03 63.54C59.89 63.54 59.146 64.236 58.99 65.292H62.914C62.854 64.188 62.146 63.54 61.03 63.54ZM70.2654 69H69.2574V63.72H66.6174V64.008C66.6174 66.024 66.3894 67.416 65.9334 68.136C65.4774 68.856 64.9134 69.096 64.1334 69V68.04C64.9374 68.04 65.6094 67.692 65.6094 64.044V62.76H70.2654V69Z" fill="#1A3341"/>
<path d="M81 121H109C109.552 121 110 121.448 110 122V138C110 138.552 109.552 139 109 139H81V121Z" fill="url(#paint2_linear_4002_9225)"/>
<path d="M118.49 126.804L118.042 125.754L121.402 124.144H122.2V134H120.996V125.642L118.49 126.804ZM130.747 134H129.529V131.998H123.537V131.186L129.669 124.2H130.747V130.864H132.567V131.998H130.747V134ZM129.529 126.16L125.217 130.864H129.529V126.16ZM137.309 129.1C137.309 127.588 137.659 126.37 138.373 125.46C139.073 124.55 140.109 124.088 141.467 124.088C144.253 124.088 145.639 125.922 145.639 129.1C145.639 130.626 145.289 131.83 144.603 132.74C143.903 133.65 142.867 134.112 141.495 134.112C140.179 134.112 139.157 133.65 138.415 132.726C137.673 131.802 137.309 130.598 137.309 129.1ZM138.597 129.1C138.597 131.494 139.689 132.922 141.495 132.922C143.399 132.922 144.351 131.648 144.351 129.1C144.351 126.552 143.385 125.278 141.467 125.278C139.521 125.278 138.597 126.678 138.597 129.1ZM154.833 128.918C154.833 130.584 154.441 131.872 153.643 132.768C152.845 133.678 151.781 134.126 150.451 134.126C148.827 134.126 147.553 133.44 146.923 132.39L147.931 131.69C148.491 132.474 149.513 132.922 150.619 132.922C151.529 132.922 152.257 132.558 152.831 131.83C153.405 131.116 153.643 130.22 153.573 129.156C153.111 130.22 151.949 131.004 150.395 131.004C149.303 131.004 148.407 130.696 147.707 130.066C146.993 129.45 146.643 128.638 146.643 127.644C146.643 126.552 147.021 125.684 147.777 125.04C148.533 124.396 149.541 124.074 150.787 124.074C153.307 124.074 154.833 125.838 154.833 128.918ZM153.363 127.602C153.153 126.3 152.257 125.278 150.647 125.278C148.967 125.278 147.931 126.146 147.931 127.602C147.931 128.988 148.981 129.8 150.619 129.8C151.361 129.8 151.991 129.576 152.481 129.128C152.971 128.68 153.265 128.176 153.363 127.602ZM159.746 128.414H160.18C160.81 128.414 161.328 128.26 161.762 127.966C162.182 127.672 162.392 127.28 162.392 126.818C162.392 125.768 161.566 125.236 159.928 125.236C158.36 125.236 157.506 125.81 157.506 126.818C157.506 127.728 158.444 128.414 159.746 128.414ZM160.152 129.52H159.802C159.046 129.52 158.416 129.688 157.926 130.01C157.436 130.332 157.184 130.738 157.184 131.228C157.184 132.292 158.164 132.964 159.942 132.964C161.748 132.964 162.714 132.32 162.714 131.242C162.714 130.164 161.678 129.52 160.152 129.52ZM162.91 133.37C162.196 133.874 161.202 134.126 159.956 134.126C158.71 134.126 157.716 133.874 156.988 133.384C156.26 132.894 155.896 132.222 155.896 131.354C155.896 130.22 156.638 129.324 157.828 128.932C156.75 128.582 156.218 127.728 156.218 126.734C156.218 125.11 157.59 124.074 159.942 124.074C162.308 124.074 163.68 125.11 163.68 126.734C163.68 127.672 163.162 128.386 162.126 128.862C163.372 129.24 163.988 130.052 163.988 131.298C163.988 132.18 163.624 132.88 162.91 133.37Z" fill="#1A3341"/>
<path d="M81 145H203C203.552 145 204 145.448 204 146V162C204 162.552 203.552 163 203 163H81V145Z" fill="url(#paint3_linear_4002_9225)"/>
<path d="M214.03 153.492L213.022 153.226L213.596 148.2H219.756V149.39H214.674L214.31 152.022C214.8 151.658 215.542 151.476 216.536 151.476C217.684 151.476 218.58 151.784 219.238 152.386C219.882 153.002 220.204 153.786 220.204 154.752C220.204 155.718 219.84 156.53 219.126 157.16C218.398 157.804 217.488 158.126 216.41 158.126C214.576 158.126 213.05 157.258 212.42 155.732L213.54 155.256C213.946 156.194 214.996 156.936 216.41 156.936C218.02 156.936 218.916 156.012 218.916 154.794C218.916 153.492 217.866 152.652 216.2 152.652C215.304 152.652 214.576 152.932 214.03 153.492ZM229.415 152.918C229.415 154.584 229.023 155.872 228.225 156.768C227.427 157.678 226.363 158.126 225.033 158.126C223.409 158.126 222.135 157.44 221.505 156.39L222.513 155.69C223.073 156.474 224.095 156.922 225.201 156.922C226.111 156.922 226.839 156.558 227.413 155.83C227.987 155.116 228.225 154.22 228.155 153.156C227.693 154.22 226.531 155.004 224.977 155.004C223.885 155.004 222.989 154.696 222.289 154.066C221.575 153.45 221.225 152.638 221.225 151.644C221.225 150.552 221.603 149.684 222.359 149.04C223.115 148.396 224.123 148.074 225.369 148.074C227.889 148.074 229.415 149.838 229.415 152.918ZM227.945 151.602C227.735 150.3 226.839 149.278 225.229 149.278C223.549 149.278 222.513 150.146 222.513 151.602C222.513 152.988 223.563 153.8 225.201 153.8C225.943 153.8 226.573 153.576 227.063 153.128C227.553 152.68 227.847 152.176 227.945 151.602ZM241.284 158H240.066V155.998H234.074V155.186L240.206 148.2H241.284V154.864H243.104V155.998H241.284V158ZM240.066 150.16L235.754 154.864H240.066V150.16ZM251.936 152.918C251.936 154.584 251.544 155.872 250.746 156.768C249.948 157.678 248.884 158.126 247.554 158.126C245.93 158.126 244.656 157.44 244.026 156.39L245.034 155.69C245.594 156.474 246.616 156.922 247.722 156.922C248.632 156.922 249.36 156.558 249.934 155.83C250.508 155.116 250.746 154.22 250.676 153.156C250.214 154.22 249.052 155.004 247.498 155.004C246.406 155.004 245.51 154.696 244.81 154.066C244.096 153.45 243.746 152.638 243.746 151.644C243.746 150.552 244.124 149.684 244.88 149.04C245.636 148.396 246.644 148.074 247.89 148.074C250.41 148.074 251.936 149.838 251.936 152.918ZM250.466 151.602C250.256 150.3 249.36 149.278 247.75 149.278C246.07 149.278 245.034 150.146 245.034 151.602C245.034 152.988 246.084 153.8 247.722 153.8C248.464 153.8 249.094 153.576 249.584 153.128C250.074 152.68 250.368 152.176 250.466 151.602ZM259.748 158H258.53V155.998H252.538V155.186L258.67 148.2H259.748V154.864H261.568V155.998H259.748V158ZM258.53 150.16L254.218 154.864H258.53V150.16Z" fill="#1A3341"/>
<path opacity="0.6" d="M19.3725 136.6H25.3725V137.62H20.4645V140.032H22.9605C24.9405 140.032 25.9965 140.884 25.9965 142.432C25.9965 144.16 24.7845 145 22.6365 145H19.3725V136.6ZM22.7925 141.052H20.4645V143.98H22.7205C24.1485 143.98 24.8685 143.464 24.8685 142.444C24.8685 141.52 24.1725 141.052 22.7925 141.052ZM31.8424 143.212L32.4904 143.812C31.9144 144.676 31.0864 145.108 29.9944 145.108C28.9984 145.108 28.1944 144.808 27.5824 144.22C26.9704 143.632 26.6704 142.852 26.6704 141.868C26.6704 140.92 26.9464 140.14 27.5104 139.528C28.0624 138.916 28.8424 138.616 29.8504 138.616C30.6784 138.616 31.3744 138.88 31.9144 139.396C32.4544 139.912 32.7304 140.596 32.7304 141.448C32.7304 141.724 32.7064 141.976 32.6704 142.204H27.7504C27.8104 143.44 28.7224 144.16 30.0304 144.16C30.7624 144.16 31.4584 143.776 31.8424 143.212ZM29.7784 139.54C28.6384 139.54 27.8944 140.236 27.7384 141.292H31.6624C31.6024 140.188 30.8944 139.54 29.7784 139.54ZM39.0138 145H38.0058V139.72H35.3658V140.008C35.3658 142.024 35.1378 143.416 34.6818 144.136C34.2258 144.856 33.6618 145.096 32.8818 145V144.04C33.6858 144.04 34.3578 143.692 34.3578 140.044V138.76H39.0138V145ZM40.8404 140.26L40.3244 139.504C40.9004 138.964 41.8964 138.616 42.8204 138.616C44.4884 138.616 45.3764 139.528 45.3764 141.148V145H44.3684V144.076C43.9724 144.652 43.1924 145.084 42.1844 145.084C40.8284 145.084 39.9164 144.328 39.9164 143.176C39.9164 141.868 41.0324 141.244 42.9044 141.244C43.4924 141.244 43.9724 141.304 44.3684 141.424C44.3684 140.212 43.9364 139.564 42.7004 139.564C42.0764 139.564 41.4524 139.792 40.8404 140.26ZM42.4244 144.172C42.8924 144.172 43.3124 144.04 43.6604 143.788C44.0084 143.536 44.2364 143.248 44.3684 142.948V142.312C44.0204 142.192 43.5764 142.132 43.0364 142.132C41.6684 142.132 40.9844 142.468 40.9844 143.14C40.9844 143.776 41.5604 144.172 42.4244 144.172ZM47.6586 147.4H46.6506V138.76H47.6586V139.54C48.0786 138.928 48.7506 138.616 49.6746 138.616C50.5866 138.616 51.3186 138.904 51.8586 139.492C52.3986 140.08 52.6626 140.836 52.6626 141.772C52.6626 142.732 52.3746 143.524 51.7986 144.16C51.2106 144.796 50.4666 145.108 49.5546 145.108C48.7146 145.108 48.0786 144.892 47.6586 144.472V147.4ZM49.5666 139.564C48.6546 139.564 47.9466 140.152 47.6586 140.86V143.188C48.0186 143.836 48.6186 144.16 49.4706 144.16C50.0826 144.16 50.5986 143.944 50.9946 143.512C51.3906 143.08 51.5946 142.528 51.5946 141.844C51.5946 140.452 50.8146 139.564 49.5666 139.564ZM53.5418 147.376L53.9378 146.5C54.0338 146.536 54.1178 146.56 54.2018 146.56C54.6698 146.56 54.9938 146.236 55.4138 145.24L55.6058 144.772L52.5818 138.76H53.7698L56.1098 143.5L57.8738 138.76H58.9778L56.6018 144.904C56.1938 145.912 55.8098 146.596 55.4618 146.968C55.1018 147.34 54.6938 147.52 54.2378 147.52C53.9738 147.52 53.7458 147.472 53.5418 147.376ZM64.1138 143.2L64.8338 143.716C64.3658 144.592 63.3098 145.108 62.2658 145.108C61.2698 145.108 60.4658 144.808 59.8538 144.22C59.2418 143.632 58.9298 142.852 58.9298 141.868C58.9298 140.932 59.2298 140.152 59.8418 139.54C60.4538 138.928 61.2338 138.616 62.2058 138.616C63.3218 138.616 64.3178 139.12 64.7378 139.888L63.9578 140.416C63.5378 139.852 62.9618 139.564 62.2298 139.564C61.5818 139.564 61.0538 139.78 60.6338 140.212C60.2138 140.644 59.9978 141.196 59.9978 141.868C59.9978 142.552 60.2138 143.104 60.6578 143.524C61.0898 143.944 61.6538 144.16 62.3618 144.16C63.1058 144.16 63.6938 143.836 64.1138 143.2ZM68.0645 145H65.5445V138.76H66.5525V140.704H68.1605C69.8645 140.704 70.7165 141.412 70.7165 142.84C70.7165 144.1 69.9245 145 68.0645 145ZM68.0285 141.664H66.5525V144.04H68.0285C69.1805 144.04 69.6485 143.632 69.6485 142.852C69.6485 142.06 69.1085 141.664 68.0285 141.664Z" fill="#1A3341"/>
<path d="M81 196H119C119.552 196 120 196.448 120 197V213C120 213.552 119.552 214 119 214H81V196Z" fill="url(#paint4_linear_4002_9225)"/>
<path d="M128.49 201.804L128.042 200.754L131.402 199.144H132.2V209H130.996V200.642L128.49 201.804ZM137.849 203.414H138.283C138.913 203.414 139.431 203.26 139.865 202.966C140.285 202.672 140.495 202.28 140.495 201.818C140.495 200.768 139.669 200.236 138.031 200.236C136.463 200.236 135.609 200.81 135.609 201.818C135.609 202.728 136.547 203.414 137.849 203.414ZM138.255 204.52H137.905C137.149 204.52 136.519 204.688 136.029 205.01C135.539 205.332 135.287 205.738 135.287 206.228C135.287 207.292 136.267 207.964 138.045 207.964C139.851 207.964 140.817 207.32 140.817 206.242C140.817 205.164 139.781 204.52 138.255 204.52ZM141.013 208.37C140.299 208.874 139.305 209.126 138.059 209.126C136.813 209.126 135.819 208.874 135.091 208.384C134.363 207.894 133.999 207.222 133.999 206.354C133.999 205.22 134.741 204.324 135.931 203.932C134.853 203.582 134.321 202.728 134.321 201.734C134.321 200.11 135.693 199.074 138.045 199.074C140.411 199.074 141.783 200.11 141.783 201.734C141.783 202.672 141.265 203.386 140.229 203.862C141.475 204.24 142.091 205.052 142.091 206.298C142.091 207.18 141.727 207.88 141.013 208.37ZM155.389 203.918C155.389 205.584 154.997 206.872 154.199 207.768C153.401 208.678 152.337 209.126 151.007 209.126C149.383 209.126 148.109 208.44 147.479 207.39L148.487 206.69C149.047 207.474 150.069 207.922 151.175 207.922C152.085 207.922 152.813 207.558 153.387 206.83C153.961 206.116 154.199 205.22 154.129 204.156C153.667 205.22 152.505 206.004 150.951 206.004C149.859 206.004 148.963 205.696 148.263 205.066C147.549 204.45 147.199 203.638 147.199 202.644C147.199 201.552 147.577 200.684 148.333 200.04C149.089 199.396 150.097 199.074 151.343 199.074C153.863 199.074 155.389 200.838 155.389 203.918ZM153.919 202.602C153.709 201.3 152.813 200.278 151.203 200.278C149.523 200.278 148.487 201.146 148.487 202.602C148.487 203.988 149.537 204.8 151.175 204.8C151.917 204.8 152.547 204.576 153.037 204.128C153.527 203.68 153.821 203.176 153.919 202.602ZM157.558 202.434L156.536 202.07C156.886 200.334 158.202 199.088 160.288 199.088C162.304 199.088 163.536 200.25 163.536 202.028C163.536 202.966 163.13 203.904 162.626 204.576C162.374 204.926 162.052 205.262 161.674 205.612C160.904 206.298 160.358 206.662 159.56 207.166L158.482 207.838H163.9V209H156.27V208.048L158.398 206.634C158.776 206.396 159.042 206.214 159.196 206.102C159.35 206.004 159.602 205.822 159.938 205.584C160.274 205.346 160.526 205.136 160.694 204.982C160.848 204.828 161.058 204.632 161.296 204.38C161.94 203.68 162.178 203.036 162.248 202.154C162.248 200.88 161.422 200.306 160.204 200.306C159.448 200.306 158.846 200.516 158.412 200.936C157.978 201.356 157.684 201.86 157.558 202.434ZM168.735 203.414H169.169C169.799 203.414 170.317 203.26 170.751 202.966C171.171 202.672 171.381 202.28 171.381 201.818C171.381 200.768 170.555 200.236 168.917 200.236C167.349 200.236 166.495 200.81 166.495 201.818C166.495 202.728 167.433 203.414 168.735 203.414ZM169.141 204.52H168.791C168.035 204.52 167.405 204.688 166.915 205.01C166.425 205.332 166.173 205.738 166.173 206.228C166.173 207.292 167.153 207.964 168.931 207.964C170.737 207.964 171.703 207.32 171.703 206.242C171.703 205.164 170.667 204.52 169.141 204.52ZM171.899 208.37C171.185 208.874 170.191 209.126 168.945 209.126C167.699 209.126 166.705 208.874 165.977 208.384C165.249 207.894 164.885 207.222 164.885 206.354C164.885 205.22 165.627 204.324 166.817 203.932C165.739 203.582 165.207 202.728 165.207 201.734C165.207 200.11 166.579 199.074 168.931 199.074C171.297 199.074 172.669 200.11 172.669 201.734C172.669 202.672 172.151 203.386 171.115 203.862C172.361 204.24 172.977 205.052 172.977 206.298C172.977 207.18 172.613 207.88 171.899 208.37Z" fill="#1A3341"/>
<path d="M81 220H134C134.552 220 135 220.448 135 221V237C135 237.552 134.552 238 134 238H81V220Z" fill="url(#paint5_linear_4002_9225)"/>
<path d="M144.722 226.434L143.7 226.07C144.05 224.334 145.366 223.088 147.452 223.088C149.468 223.088 150.7 224.25 150.7 226.028C150.7 226.966 150.294 227.904 149.79 228.576C149.538 228.926 149.216 229.262 148.838 229.612C148.068 230.298 147.522 230.662 146.724 231.166L145.646 231.838H151.064V233H143.434V232.048L145.562 230.634C145.94 230.396 146.206 230.214 146.36 230.102C146.514 230.004 146.766 229.822 147.102 229.584C147.438 229.346 147.69 229.136 147.858 228.982C148.012 228.828 148.222 228.632 148.46 228.38C149.104 227.68 149.342 227.036 149.412 226.154C149.412 224.88 148.586 224.306 147.368 224.306C146.612 224.306 146.01 224.516 145.576 224.936C145.142 225.356 144.848 225.86 144.722 226.434ZM153.462 228.492L152.454 228.226L153.028 223.2H159.188V224.39H154.106L153.742 227.022C154.232 226.658 154.974 226.476 155.968 226.476C157.116 226.476 158.012 226.784 158.67 227.386C159.314 228.002 159.636 228.786 159.636 229.752C159.636 230.718 159.272 231.53 158.558 232.16C157.83 232.804 156.92 233.126 155.842 233.126C154.008 233.126 152.482 232.258 151.852 230.732L152.972 230.256C153.378 231.194 154.428 231.936 155.842 231.936C157.452 231.936 158.348 231.012 158.348 229.794C158.348 228.492 157.298 227.652 155.632 227.652C154.736 227.652 154.008 227.932 153.462 228.492ZM166.184 228.492L165.176 228.226L165.75 223.2H171.91V224.39H166.828L166.464 227.022C166.954 226.658 167.696 226.476 168.69 226.476C169.838 226.476 170.734 226.784 171.392 227.386C172.036 228.002 172.358 228.786 172.358 229.752C172.358 230.718 171.994 231.53 171.28 232.16C170.552 232.804 169.642 233.126 168.564 233.126C166.73 233.126 165.204 232.258 164.574 230.732L165.694 230.256C166.1 231.194 167.15 231.936 168.564 231.936C170.174 231.936 171.07 231.012 171.07 229.794C171.07 228.492 170.02 227.652 168.354 227.652C167.458 227.652 166.73 227.932 166.184 228.492ZM174.849 228.492L173.841 228.226L174.415 223.2H180.575V224.39H175.493L175.129 227.022C175.619 226.658 176.361 226.476 177.355 226.476C178.503 226.476 179.399 226.784 180.057 227.386C180.701 228.002 181.023 228.786 181.023 229.752C181.023 230.718 180.659 231.53 179.945 232.16C179.217 232.804 178.307 233.126 177.229 233.126C175.395 233.126 173.869 232.258 173.239 230.732L174.359 230.256C174.765 231.194 175.815 231.936 177.229 231.936C178.839 231.936 179.735 231.012 179.735 229.794C179.735 228.492 178.685 227.652 177.019 227.652C176.123 227.652 175.395 227.932 174.849 228.492ZM182.086 228.1C182.086 226.588 182.436 225.37 183.15 224.46C183.85 223.55 184.886 223.088 186.244 223.088C189.03 223.088 190.416 224.922 190.416 228.1C190.416 229.626 190.066 230.83 189.38 231.74C188.68 232.65 187.644 233.112 186.272 233.112C184.956 233.112 183.934 232.65 183.192 231.726C182.45 230.802 182.086 229.598 182.086 228.1ZM183.374 228.1C183.374 230.494 184.466 231.922 186.272 231.922C188.176 231.922 189.128 230.648 189.128 228.1C189.128 225.552 188.162 224.278 186.244 224.278C184.298 224.278 183.374 225.678 183.374 228.1Z" fill="#1A3341"/>
<path opacity="0.6" d="M35.7675 215H34.6755V207.62H29.7195V215H28.6275V206.6H35.7675V215ZM38.2775 217.4H37.2695V208.76H38.2775V209.54C38.6975 208.928 39.3695 208.616 40.2935 208.616C41.2055 208.616 41.9375 208.904 42.4775 209.492C43.0175 210.08 43.2815 210.836 43.2815 211.772C43.2815 212.732 42.9935 213.524 42.4175 214.16C41.8295 214.796 41.0855 215.108 40.1735 215.108C39.3335 215.108 38.6975 214.892 38.2775 214.472V217.4ZM40.1855 209.564C39.2735 209.564 38.5655 210.152 38.2775 210.86V213.188C38.6375 213.836 39.2375 214.16 40.0895 214.16C40.7015 214.16 41.2175 213.944 41.6135 213.512C42.0095 213.08 42.2135 212.528 42.2135 211.844C42.2135 210.452 41.4335 209.564 40.1855 209.564ZM43.9265 211.868C43.9265 210.92 44.2385 210.14 44.8505 209.528C45.4625 208.916 46.2545 208.616 47.2265 208.616C48.2105 208.616 49.0145 208.916 49.6265 209.528C50.2385 210.14 50.5505 210.92 50.5505 211.868C50.5505 212.816 50.2385 213.584 49.6265 214.196C49.0025 214.808 48.1985 215.108 47.2265 215.108C46.2545 215.108 45.4625 214.808 44.8505 214.196C44.2385 213.584 43.9265 212.816 43.9265 211.868ZM44.9945 211.868C44.9945 212.528 45.1985 213.08 45.6185 213.512C46.0385 213.944 46.5665 214.16 47.2265 214.16C47.8865 214.16 48.4385 213.944 48.8585 213.524C49.2785 213.104 49.4825 212.552 49.4825 211.868C49.4825 211.184 49.2665 210.632 48.8465 210.2C48.4145 209.78 47.8745 209.564 47.2265 209.564C46.5785 209.564 46.0505 209.78 45.6305 210.2C45.2105 210.62 44.9945 211.184 44.9945 211.868ZM55.593 208.76H56.601V215H55.593V212.372C55.137 212.828 54.501 213.056 53.685 213.056C52.041 213.056 51.225 212.228 51.225 210.572V208.76H52.233V210.296C52.233 211.556 52.761 212.096 53.865 212.096C54.585 212.096 55.269 211.712 55.593 211.244V208.76ZM62.6727 210.332L58.8687 215H57.9447V208.76H58.9527V213.44L62.7447 208.76H63.6807V215H62.6727V210.332ZM69.844 213.212L70.492 213.812C69.916 214.676 69.088 215.108 67.996 215.108C67 215.108 66.196 214.808 65.584 214.22C64.972 213.632 64.672 212.852 64.672 211.868C64.672 210.92 64.948 210.14 65.512 209.528C66.064 208.916 66.844 208.616 67.852 208.616C68.68 208.616 69.376 208.88 69.916 209.396C70.456 209.912 70.732 210.596 70.732 211.448C70.732 211.724 70.708 211.976 70.672 212.204H65.752C65.812 213.44 66.724 214.16 68.032 214.16C68.764 214.16 69.46 213.776 69.844 213.212ZM67.78 209.54C66.64 209.54 65.896 210.236 65.74 211.292H69.664C69.604 210.188 68.896 209.54 67.78 209.54ZM11.2093 227H10.2013V224.3H6.60125V227H5.59325V220.76H6.60125V223.352H10.2013V220.76H11.2093V227ZM13.0314 222.26L12.5154 221.504C13.0914 220.964 14.0874 220.616 15.0114 220.616C16.6794 220.616 17.5674 221.528 17.5674 223.148V227H16.5594V226.076C16.1634 226.652 15.3834 227.084 14.3754 227.084C13.0194 227.084 12.1074 226.328 12.1074 225.176C12.1074 223.868 13.2234 223.244 15.0954 223.244C15.6834 223.244 16.1634 223.304 16.5594 223.424C16.5594 222.212 16.1274 221.564 14.8914 221.564C14.2674 221.564 13.6434 221.792 13.0314 222.26ZM14.6154 226.172C15.0834 226.172 15.5034 226.04 15.8514 225.788C16.1994 225.536 16.4274 225.248 16.5594 224.948V224.312C16.2114 224.192 15.7674 224.132 15.2274 224.132C13.8594 224.132 13.1754 224.468 13.1754 225.14C13.1754 225.776 13.7514 226.172 14.6154 226.172ZM21.0975 227.12C19.8135 227.12 18.8655 226.64 18.2775 225.692L19.0695 225.14C19.4175 225.776 20.1855 226.184 21.1095 226.184C22.1055 226.184 22.8135 225.776 22.8135 225.104C22.8135 224.552 22.3935 224.276 21.5655 224.276H20.1015V223.364H21.4935C22.1055 223.364 22.5855 223.004 22.5855 222.464C22.5855 221.876 21.9615 221.54 21.0615 221.54C20.3055 221.54 19.6815 221.828 19.2135 222.416L18.4695 221.924C18.8895 221.204 19.8495 220.604 21.1575 220.604C22.7295 220.604 23.6535 221.264 23.6535 222.308C23.6535 222.896 23.4015 223.352 22.9095 223.652C23.6295 224 23.8815 224.42 23.8815 225.08C23.8815 225.716 23.6175 226.208 23.1015 226.568C22.5855 226.94 21.9135 227.12 21.0975 227.12ZM30.5016 227H29.4936V224.3H25.8936V227H24.8856V220.76H25.8936V223.352H29.4936V220.76H30.5016V227ZM32.3237 222.26L31.8077 221.504C32.3837 220.964 33.3797 220.616 34.3037 220.616C35.9717 220.616 36.8597 221.528 36.8597 223.148V227H35.8517V226.076C35.4557 226.652 34.6757 227.084 33.6677 227.084C32.3117 227.084 31.3997 226.328 31.3997 225.176C31.3997 223.868 32.5157 223.244 34.3877 223.244C34.9757 223.244 35.4557 223.304 35.8517 223.424C35.8517 222.212 35.4197 221.564 34.1837 221.564C33.5597 221.564 32.9357 221.792 32.3237 222.26ZM33.9077 226.172C34.3757 226.172 34.7957 226.04 35.1437 225.788C35.4917 225.536 35.7197 225.248 35.8517 224.948V224.312C35.5037 224.192 35.0597 224.132 34.5197 224.132C33.1517 224.132 32.4677 224.468 32.4677 225.14C32.4677 225.776 33.0437 226.172 33.9077 226.172ZM42.1779 220.76H43.1859V227H42.1779V224.372C41.7219 224.828 41.0859 225.056 40.2699 225.056C38.6259 225.056 37.8099 224.228 37.8099 222.572V220.76H38.8179V222.296C38.8179 223.556 39.3459 224.096 40.4499 224.096C41.1699 224.096 41.8539 223.712 42.1779 223.244V220.76ZM49.3535 225.212L50.0015 225.812C49.4255 226.676 48.5975 227.108 47.5055 227.108C46.5095 227.108 45.7055 226.808 45.0935 226.22C44.4815 225.632 44.1815 224.852 44.1815 223.868C44.1815 222.92 44.4575 222.14 45.0215 221.528C45.5735 220.916 46.3535 220.616 47.3615 220.616C48.1895 220.616 48.8855 220.88 49.4255 221.396C49.9655 221.912 50.2415 222.596 50.2415 223.448C50.2415 223.724 50.2175 223.976 50.1815 224.204H45.2615C45.3215 225.44 46.2335 226.16 47.5415 226.16C48.2735 226.16 48.9695 225.776 49.3535 225.212ZM47.2895 221.54C46.1495 221.54 45.4055 222.236 45.2495 223.292H49.1735C49.1135 222.188 48.4055 221.54 47.2895 221.54ZM56.8575 227H55.8495V224.3H52.2495V227H51.2415V220.76H52.2495V223.352H55.8495V220.76H56.8575V227ZM62.9277 222.332L59.1237 227H58.1997V220.76H59.2077V225.44L62.9997 220.76H63.9357V227H62.9277V222.332ZM67.759 220.76H70.267V227H69.259V224.792H67.735L65.887 227H64.663L66.655 224.636C65.695 224.456 65.059 223.724 65.059 222.764C65.059 221.576 65.887 220.76 67.759 220.76ZM66.127 222.788C66.127 223.4 66.703 223.832 67.615 223.832H69.259V221.72H67.639C66.631 221.72 66.127 222.08 66.127 222.788Z" fill="#1A3341"/>
<line x1="81.5" y1="32" x2="81.5" y2="262" stroke="#ABBEC9"/>
<rect x="3" y="2" width="10" height="10" fill="url(#paint6_linear_4002_9225)"/>
<path d="M22.476 5.372L21.6 5.06C21.9 3.572 23.028 2.504 24.816 2.504C26.544 2.504 27.6 3.5 27.6 5.024C27.6 5.828 27.252 6.632 26.82 7.208C26.604 7.508 26.328 7.796 26.004 8.096C25.344 8.684 24.876 8.996 24.192 9.428L23.268 10.004H27.912V11H21.372V10.184L23.196 8.972C23.52 8.768 23.748 8.612 23.88 8.516C24.012 8.432 24.228 8.276 24.516 8.072C24.804 7.868 25.02 7.688 25.164 7.556C25.296 7.424 25.476 7.256 25.68 7.04C26.232 6.44 26.436 5.888 26.496 5.132C26.496 4.04 25.788 3.548 24.744 3.548C24.096 3.548 23.58 3.728 23.208 4.088C22.836 4.448 22.584 4.88 22.476 5.372ZM28.7437 6.8C28.7437 5.504 29.0437 4.46 29.6557 3.68C30.2557 2.9 31.1437 2.504 32.3077 2.504C34.6957 2.504 35.8837 4.076 35.8837 6.8C35.8837 8.108 35.5837 9.14 34.9957 9.92C34.3957 10.7 33.5077 11.096 32.3317 11.096C31.2037 11.096 30.3277 10.7 29.6917 9.908C29.0557 9.116 28.7437 8.084 28.7437 6.8ZM29.8477 6.8C29.8477 8.852 30.7837 10.076 32.3317 10.076C33.9637 10.076 34.7797 8.984 34.7797 6.8C34.7797 4.616 33.9517 3.524 32.3077 3.524C30.6397 3.524 29.8477 4.724 29.8477 6.8ZM37.7399 5.372L36.8639 5.06C37.1639 3.572 38.2919 2.504 40.0799 2.504C41.8079 2.504 42.8639 3.5 42.8639 5.024C42.8639 5.828 42.5159 6.632 42.0839 7.208C41.8679 7.508 41.5919 7.796 41.2679 8.096C40.6079 8.684 40.1399 8.996 39.4559 9.428L38.5319 10.004H43.1759V11H36.6359V10.184L38.4599 8.972C38.7839 8.768 39.0119 8.612 39.1439 8.516C39.2759 8.432 39.4919 8.276 39.7799 8.072C40.0679 7.868 40.2839 7.688 40.4279 7.556C40.5599 7.424 40.7399 7.256 40.9439 7.04C41.4959 6.44 41.6999 5.888 41.7599 5.132C41.7599 4.04 41.0519 3.548 40.0079 3.548C39.3599 3.548 38.8439 3.728 38.4719 4.088C38.0999 4.448 37.8479 4.88 37.7399 5.372ZM44.9676 5.372L44.0916 5.06C44.3916 3.572 45.5196 2.504 47.3076 2.504C49.0356 2.504 50.0916 3.5 50.0916 5.024C50.0916 5.828 49.7436 6.632 49.3116 7.208C49.0956 7.508 48.8196 7.796 48.4956 8.096C47.8356 8.684 47.3676 8.996 46.6836 9.428L45.7596 10.004H50.4036V11H43.8636V10.184L45.6876 8.972C46.0116 8.768 46.2396 8.612 46.3716 8.516C46.5036 8.432 46.7196 8.276 47.0076 8.072C47.2956 7.868 47.5116 7.688 47.6556 7.556C47.7876 7.424 47.9676 7.256 48.1716 7.04C48.7236 6.44 48.9276 5.888 48.9876 5.132C48.9876 4.04 48.2796 3.548 47.2356 3.548C46.5876 3.548 46.0716 3.728 45.6996 4.088C45.3276 4.448 45.0756 4.88 44.9676 5.372Z" fill="#1A3341" fill-opacity="0.6"/>
<rect x="87" y="2" width="10" height="10" fill="url(#paint7_linear_4002_9225)"/>
<path d="M106.476 5.372L105.6 5.06C105.9 3.572 107.028 2.504 108.816 2.504C110.544 2.504 111.6 3.5 111.6 5.024C111.6 5.828 111.252 6.632 110.82 7.208C110.604 7.508 110.328 7.796 110.004 8.096C109.344 8.684 108.876 8.996 108.192 9.428L107.268 10.004H111.912V11H105.372V10.184L107.196 8.972C107.52 8.768 107.748 8.612 107.88 8.516C108.012 8.432 108.228 8.276 108.516 8.072C108.804 7.868 109.02 7.688 109.164 7.556C109.296 7.424 109.476 7.256 109.68 7.04C110.232 6.44 110.436 5.888 110.496 5.132C110.496 4.04 109.788 3.548 108.744 3.548C108.096 3.548 107.58 3.728 107.208 4.088C106.836 4.448 106.584 4.88 106.476 5.372ZM112.744 6.8C112.744 5.504 113.044 4.46 113.656 3.68C114.256 2.9 115.144 2.504 116.308 2.504C118.696 2.504 119.884 4.076 119.884 6.8C119.884 8.108 119.584 9.14 118.996 9.92C118.396 10.7 117.508 11.096 116.332 11.096C115.204 11.096 114.328 10.7 113.692 9.908C113.056 9.116 112.744 8.084 112.744 6.8ZM113.848 6.8C113.848 8.852 114.784 10.076 116.332 10.076C117.964 10.076 118.78 8.984 118.78 6.8C118.78 4.616 117.952 3.524 116.308 3.524C114.64 3.524 113.848 4.724 113.848 6.8ZM121.74 5.372L120.864 5.06C121.164 3.572 122.292 2.504 124.08 2.504C125.808 2.504 126.864 3.5 126.864 5.024C126.864 5.828 126.516 6.632 126.084 7.208C125.868 7.508 125.592 7.796 125.268 8.096C124.608 8.684 124.14 8.996 123.456 9.428L122.532 10.004H127.176V11H120.636V10.184L122.46 8.972C122.784 8.768 123.012 8.612 123.144 8.516C123.276 8.432 123.492 8.276 123.78 8.072C124.068 7.868 124.284 7.688 124.428 7.556C124.56 7.424 124.74 7.256 124.944 7.04C125.496 6.44 125.7 5.888 125.76 5.132C125.76 4.04 125.052 3.548 124.008 3.548C123.36 3.548 122.844 3.728 122.472 4.088C122.1 4.448 121.848 4.88 121.74 5.372ZM128.836 5.048L127.936 4.64C128.38 3.344 129.544 2.492 131.284 2.492C132.112 2.492 132.796 2.684 133.324 3.068C133.852 3.452 134.116 3.968 134.116 4.604C134.116 5.576 133.6 6.296 132.64 6.572C133.564 6.632 134.308 7.328 134.308 8.576C134.308 9.368 134.02 9.992 133.444 10.436C132.868 10.88 132.136 11.108 131.236 11.108C129.4 11.108 128.128 10.232 127.708 8.852L128.68 8.432C129.196 9.524 130.072 10.076 131.308 10.076C132.472 10.076 133.204 9.536 133.204 8.588C133.204 7.664 132.484 7.196 131.044 7.196H130.108V6.2H130.852C132.16 6.2 133.012 5.612 133.012 4.808C133.012 3.98 132.328 3.512 131.236 3.512C129.952 3.512 129.172 4.172 128.836 5.048Z" fill="#1A3341" fill-opacity="0.6"/>
<path d="M518.765 76.056L517.715 75.58C518.233 74.068 519.591 73.074 521.621 73.074C522.587 73.074 523.385 73.298 524.001 73.746C524.617 74.194 524.925 74.796 524.925 75.538C524.925 76.672 524.323 77.512 523.203 77.834C524.281 77.904 525.149 78.716 525.149 80.172C525.149 81.096 524.813 81.824 524.141 82.342C523.469 82.86 522.615 83.126 521.565 83.126C519.423 83.126 517.939 82.104 517.449 80.494L518.583 80.004C519.185 81.278 520.207 81.922 521.649 81.922C523.007 81.922 523.861 81.292 523.861 80.186C523.861 79.108 523.021 78.562 521.341 78.562H520.249V77.4H521.117C522.643 77.4 523.637 76.714 523.637 75.776C523.637 74.81 522.839 74.264 521.565 74.264C520.067 74.264 519.157 75.034 518.765 76.056ZM526.188 75.804L525.74 74.754L529.1 73.144H529.898V83H528.694V74.642L526.188 75.804ZM534.119 83.21L533.195 82.678L540.433 72.892L541.315 73.536L534.119 83.21ZM531.683 75.552C531.683 74.852 531.921 74.278 532.411 73.83C532.901 73.382 533.503 73.158 534.245 73.158C534.973 73.158 535.575 73.382 536.065 73.83C536.555 74.278 536.793 74.852 536.793 75.552C536.793 76.238 536.555 76.812 536.065 77.26C535.575 77.708 534.973 77.932 534.245 77.932C533.503 77.932 532.901 77.708 532.411 77.26C531.921 76.812 531.683 76.238 531.683 75.552ZM532.859 75.552C532.859 76.35 533.503 76.938 534.245 76.938C535.015 76.938 535.617 76.378 535.617 75.552C535.617 74.726 534.987 74.166 534.245 74.166C533.475 74.166 532.859 74.726 532.859 75.552ZM538.417 82.384C537.927 81.936 537.689 81.362 537.689 80.662C537.689 79.962 537.927 79.388 538.417 78.94C538.907 78.506 539.509 78.282 540.251 78.282C540.979 78.282 541.581 78.506 542.071 78.94C542.561 79.388 542.799 79.962 542.799 80.662C542.799 81.348 542.561 81.922 542.071 82.37C541.581 82.832 540.979 83.056 540.251 83.056C539.509 83.056 538.907 82.832 538.417 82.384ZM538.865 80.662C538.865 81.46 539.509 82.048 540.251 82.048C541.021 82.048 541.623 81.488 541.623 80.662C541.623 79.836 540.993 79.276 540.251 79.276C539.481 79.276 538.865 79.836 538.865 80.662Z" fill="#737AF9"/>
<path d="M201.196 224L196 232L206.393 232L201.196 224Z" fill="#737AF9"/>
<path d="M282.765 151.056L281.715 150.58C282.233 149.068 283.591 148.074 285.621 148.074C286.587 148.074 287.385 148.298 288.001 148.746C288.617 149.194 288.925 149.796 288.925 150.538C288.925 151.672 288.323 152.512 287.203 152.834C288.281 152.904 289.149 153.716 289.149 155.172C289.149 156.096 288.813 156.824 288.141 157.342C287.469 157.86 286.615 158.126 285.565 158.126C283.423 158.126 281.939 157.104 281.449 155.494L282.583 155.004C283.185 156.278 284.207 156.922 285.649 156.922C287.007 156.922 287.861 156.292 287.861 155.186C287.861 154.108 287.021 153.562 285.341 153.562H284.249V152.4H285.117C286.643 152.4 287.637 151.714 287.637 150.776C287.637 149.81 286.839 149.264 285.565 149.264C284.067 149.264 283.157 150.034 282.765 151.056ZM291.42 151.434L290.398 151.07C290.748 149.334 292.064 148.088 294.15 148.088C296.166 148.088 297.398 149.25 297.398 151.028C297.398 151.966 296.992 152.904 296.488 153.576C296.236 153.926 295.914 154.262 295.536 154.612C294.766 155.298 294.22 155.662 293.422 156.166L292.344 156.838H297.762V158H290.132V157.048L292.26 155.634C292.638 155.396 292.904 155.214 293.058 155.102C293.212 155.004 293.464 154.822 293.8 154.584C294.136 154.346 294.388 154.136 294.556 153.982C294.71 153.828 294.92 153.632 295.158 153.38C295.802 152.68 296.04 152.036 296.11 151.154C296.11 149.88 295.284 149.306 294.066 149.306C293.31 149.306 292.708 149.516 292.274 149.936C291.84 150.356 291.546 150.86 291.42 151.434ZM299.852 151.434L298.83 151.07C299.18 149.334 300.496 148.088 302.582 148.088C304.598 148.088 305.83 149.25 305.83 151.028C305.83 151.966 305.424 152.904 304.92 153.576C304.668 153.926 304.346 154.262 303.968 154.612C303.198 155.298 302.652 155.662 301.854 156.166L300.776 156.838H306.194V158H298.564V157.048L300.692 155.634C301.07 155.396 301.336 155.214 301.49 155.102C301.644 155.004 301.896 154.822 302.232 154.584C302.568 154.346 302.82 154.136 302.988 153.982C303.142 153.828 303.352 153.632 303.59 153.38C304.234 152.68 304.472 152.036 304.542 151.154C304.542 149.88 303.716 149.306 302.498 149.306C301.742 149.306 301.14 149.516 300.706 149.936C300.272 150.356 299.978 150.86 299.852 151.434ZM309.6 158.21L308.676 157.678L315.914 147.892L316.796 148.536L309.6 158.21ZM307.164 150.552C307.164 149.852 307.402 149.278 307.892 148.83C308.382 148.382 308.984 148.158 309.726 148.158C310.454 148.158 311.056 148.382 311.546 148.83C312.036 149.278 312.274 149.852 312.274 150.552C312.274 151.238 312.036 151.812 311.546 152.26C311.056 152.708 310.454 152.932 309.726 152.932C308.984 152.932 308.382 152.708 307.892 152.26C307.402 151.812 307.164 151.238 307.164 150.552ZM308.34 150.552C308.34 151.35 308.984 151.938 309.726 151.938C310.496 151.938 311.098 151.378 311.098 150.552C311.098 149.726 310.468 149.166 309.726 149.166C308.956 149.166 308.34 149.726 308.34 150.552ZM313.898 157.384C313.408 156.936 313.17 156.362 313.17 155.662C313.17 154.962 313.408 154.388 313.898 153.94C314.388 153.506 314.99 153.282 315.732 153.282C316.46 153.282 317.062 153.506 317.552 153.94C318.042 154.388 318.28 154.962 318.28 155.662C318.28 156.348 318.042 156.922 317.552 157.37C317.062 157.832 316.46 158.056 315.732 158.056C314.99 158.056 314.388 157.832 313.898 157.384ZM314.346 155.662C314.346 156.46 314.99 157.048 315.732 157.048C316.502 157.048 317.104 156.488 317.104 155.662C317.104 154.836 316.474 154.276 315.732 154.276C314.962 154.276 314.346 154.836 314.346 155.662Z" fill="#737AF9"/>
<path d="M272.196 149L267 157L277.393 157L272.196 149Z" fill="#737AF9"/>
<path d="M211.765 226.056L210.715 225.58C211.233 224.068 212.591 223.074 214.621 223.074C215.587 223.074 216.385 223.298 217.001 223.746C217.617 224.194 217.925 224.796 217.925 225.538C217.925 226.672 217.323 227.512 216.203 227.834C217.281 227.904 218.149 228.716 218.149 230.172C218.149 231.096 217.813 231.824 217.141 232.342C216.469 232.86 215.615 233.126 214.565 233.126C212.423 233.126 210.939 232.104 210.449 230.494L211.583 230.004C212.185 231.278 213.207 231.922 214.649 231.922C216.007 231.922 216.861 231.292 216.861 230.186C216.861 229.108 216.021 228.562 214.341 228.562H213.249V227.4H214.117C215.643 227.4 216.637 226.714 216.637 225.776C216.637 224.81 215.839 224.264 214.565 224.264C213.067 224.264 212.157 225.034 211.765 226.056ZM220.728 228.492L219.72 228.226L220.294 223.2H226.454V224.39H221.372L221.008 227.022C221.498 226.658 222.24 226.476 223.234 226.476C224.382 226.476 225.278 226.784 225.936 227.386C226.58 228.002 226.902 228.786 226.902 229.752C226.902 230.718 226.538 231.53 225.824 232.16C225.096 232.804 224.186 233.126 223.108 233.126C221.274 233.126 219.748 232.258 219.118 230.732L220.238 230.256C220.644 231.194 221.694 231.936 223.108 231.936C224.718 231.936 225.614 231.012 225.614 229.794C225.614 228.492 224.564 227.652 222.898 227.652C222.002 227.652 221.274 227.932 220.728 228.492ZM230.401 233.21L229.477 232.678L236.715 222.892L237.597 223.536L230.401 233.21ZM227.965 225.552C227.965 224.852 228.203 224.278 228.693 223.83C229.183 223.382 229.785 223.158 230.527 223.158C231.255 223.158 231.857 223.382 232.347 223.83C232.837 224.278 233.075 224.852 233.075 225.552C233.075 226.238 232.837 226.812 232.347 227.26C231.857 227.708 231.255 227.932 230.527 227.932C229.785 227.932 229.183 227.708 228.693 227.26C228.203 226.812 227.965 226.238 227.965 225.552ZM229.141 225.552C229.141 226.35 229.785 226.938 230.527 226.938C231.297 226.938 231.899 226.378 231.899 225.552C231.899 224.726 231.269 224.166 230.527 224.166C229.757 224.166 229.141 224.726 229.141 225.552ZM234.699 232.384C234.209 231.936 233.971 231.362 233.971 230.662C233.971 229.962 234.209 229.388 234.699 228.94C235.189 228.506 235.791 228.282 236.533 228.282C237.261 228.282 237.863 228.506 238.353 228.94C238.843 229.388 239.081 229.962 239.081 230.662C239.081 231.348 238.843 231.922 238.353 232.37C237.863 232.832 237.261 233.056 236.533 233.056C235.791 233.056 235.189 232.832 234.699 232.384ZM235.147 230.662C235.147 231.46 235.791 232.048 236.533 232.048C237.303 232.048 237.905 231.488 237.905 230.662C237.905 229.836 237.275 229.276 236.533 229.276C235.763 229.276 235.147 229.836 235.147 230.662Z" fill="#737AF9"/>
<path d="M508.196 74L503 82L513.393 82L508.196 74Z" fill="#737AF9"/>
<defs>
<linearGradient id="paint0_linear_4002_9225" x1="93.8571" y1="64" x2="351" y2="64" gradientUnits="userSpaceOnUse">
<stop offset="0" stop-color="#CEE8EF"/>
<stop offset="1" stop-color="#CEE8EF"/>
</linearGradient>
<linearGradient id="paint1_linear_4002_9225" x1="434" y1="79" x2="81" y2="79" gradientUnits="userSpaceOnUse">
<stop offset="0" stop-color="#6D73F9"/>
<stop offset="1" stop-color="#9BB8F1"/>
</linearGradient>
<linearGradient id="paint2_linear_4002_9225" x1="82.381" y1="139" x2="110" y2="139" gradientUnits="userSpaceOnUse">
<stop offset="0" stop-color="#CEE8EF"/>
<stop offset="1" stop-color="#CEE8EF"/>
</linearGradient>
<linearGradient id="paint3_linear_4002_9225" x1="204" y1="154" x2="81" y2="154" gradientUnits="userSpaceOnUse">
<stop offset="0" stop-color="#6D73F9"/>
<stop offset="1" stop-color="#9BB8F1"/>
</linearGradient>
<linearGradient id="paint4_linear_4002_9225" x1="82.8571" y1="214" x2="120" y2="214" gradientUnits="userSpaceOnUse">
<stop offset="0" stop-color="#CEE8EF"/>
<stop offset="1" stop-color="#CEE8EF"/>
</linearGradient>
<linearGradient id="paint5_linear_4002_9225" x1="135" y1="229" x2="81" y2="229" gradientUnits="userSpaceOnUse">
<stop offset="0" stop-color="#6D73F9"/>
<stop offset="1" stop-color="#9BB8F1"/>
</linearGradient>
<linearGradient id="paint6_linear_4002_9225" x1="8" y1="2" x2="8" y2="12" gradientUnits="userSpaceOnUse">
<stop offset="0" stop-color="#CDE3E9"/>
<stop offset="1" stop-color="#D3E8ED"/>
</linearGradient>
<linearGradient id="paint7_linear_4002_9225" x1="92" y1="2" x2="92" y2="12" gradientUnits="userSpaceOnUse">
<stop offset="0" stop-color="#6D73F9"/>
<stop offset="1" stop-color="#9BB8F1"/>
</linearGradient>
</defs>
</svg>
