<svg width="375" height="318" viewBox="0 0 375 318" fill="none" xmlns="http://www.w3.org/2000/svg">
<path d="M194 26C222.876 26 250.695 36.8629 271.929 56.4304C293.164 75.9979 306.261 102.838 308.617 131.617L294.863 132.743C292.789 107.417 281.264 83.7981 262.578 66.5787C243.891 49.3594 219.411 39.8 194 39.8V26Z" fill="url(#paint0_linear_4004_9086)"/>
<path d="M307.81 124.5C311.188 147.802 307.333 171.579 296.764 192.619C286.195 213.66 269.423 230.949 248.713 242.151L242.147 230.013C260.372 220.155 275.132 204.94 284.432 186.425C293.733 167.91 297.126 146.986 294.153 126.48L307.81 124.5Z" fill="url(#paint1_linear_4004_9086)"/>
<path d="M270.95 226.462C252.351 243.208 228.798 253.43 203.863 255.576L202.679 241.827C224.622 239.938 245.349 230.943 261.716 216.206L270.95 226.462Z" fill="url(#paint2_linear_4004_9086)"/>
<path d="M210.741 254.775C188.665 258.023 166.12 254.779 145.855 245.437L151.633 232.905C169.466 241.125 189.305 243.981 208.732 241.122L210.741 254.775Z" fill="url(#paint3_linear_4004_9086)"/>
<path d="M152.353 248.194C134.069 241.09 117.906 229.428 105.401 214.316L116.033 205.518C127.038 218.817 141.261 229.08 157.351 235.331L152.353 248.194Z" fill="url(#paint4_linear_4004_9086)"/>
<path d="M109.901 219.437C98.0221 206.701 89.1914 191.433 84.0748 174.785L97.2658 170.731C101.768 185.381 109.539 198.816 119.993 210.024L109.901 219.437Z" fill="url(#paint5_linear_4004_9086)"/>
<path d="M86.3382 181.422C80.388 165.574 78.01 148.608 79.3738 131.735L93.129 132.847C91.9288 147.695 94.0215 162.625 99.2577 176.571L86.3382 181.422Z" fill="url(#paint6_linear_4004_9086)"/>
<path d="M79.024 138.649C79.3154 124.401 82.2526 110.33 87.686 97.1556L100.444 102.417C95.6623 114.011 93.0776 126.392 92.8212 138.931L79.024 138.649Z" fill="#AECEE5"/>
<path d="M85.2788 103.521C93.0809 80.888 107.752 61.2544 127.245 47.3579C146.739 33.4615 170.084 25.9951 194.023 26L194.021 39.8C172.954 39.7957 152.41 46.3661 135.256 58.595C118.102 70.8238 105.191 88.1014 98.3253 108.018L85.2788 103.521Z" fill="#DBE9EE"/>
<path d="M284.722 13.434L283.7 13.07C284.05 11.334 285.366 10.088 287.452 10.088C289.468 10.088 290.7 11.25 290.7 13.028C290.7 13.966 290.294 14.904 289.79 15.576C289.538 15.926 289.216 16.262 288.838 16.612C288.068 17.298 287.522 17.662 286.724 18.166L285.646 18.838H291.064V20H283.434V19.048L285.562 17.634C285.94 17.396 286.206 17.214 286.36 17.102C286.514 17.004 286.766 16.822 287.102 16.584C287.438 16.346 287.69 16.136 287.858 15.982C288.012 15.828 288.222 15.632 288.46 15.38C289.104 14.68 289.342 14.036 289.412 13.154C289.412 11.88 288.586 11.306 287.368 11.306C286.612 11.306 286.01 11.516 285.576 11.936C285.142 12.356 284.848 12.86 284.722 13.434ZM293 13.056L291.95 12.58C292.468 11.068 293.826 10.074 295.856 10.074C296.822 10.074 297.62 10.298 298.236 10.746C298.852 11.194 299.16 11.796 299.16 12.538C299.16 13.672 298.558 14.512 297.438 14.834C298.516 14.904 299.384 15.716 299.384 17.172C299.384 18.096 299.048 18.824 298.376 19.342C297.704 19.86 296.85 20.126 295.8 20.126C293.658 20.126 292.174 19.104 291.684 17.494L292.818 17.004C293.42 18.278 294.442 18.922 295.884 18.922C297.242 18.922 298.096 18.292 298.096 17.186C298.096 16.108 297.256 15.562 295.576 15.562H294.484V14.4H295.352C296.878 14.4 297.872 13.714 297.872 12.776C297.872 11.81 297.074 11.264 295.8 11.264C294.302 11.264 293.392 12.034 293 13.056ZM302.971 20.21L302.047 19.678L309.285 9.892L310.167 10.536L302.971 20.21ZM300.535 12.552C300.535 11.852 300.773 11.278 301.263 10.83C301.753 10.382 302.355 10.158 303.097 10.158C303.825 10.158 304.427 10.382 304.917 10.83C305.407 11.278 305.645 11.852 305.645 12.552C305.645 13.238 305.407 13.812 304.917 14.26C304.427 14.708 303.825 14.932 303.097 14.932C302.355 14.932 301.753 14.708 301.263 14.26C300.773 13.812 300.535 13.238 300.535 12.552ZM301.711 12.552C301.711 13.35 302.355 13.938 303.097 13.938C303.867 13.938 304.469 13.378 304.469 12.552C304.469 11.726 303.839 11.166 303.097 11.166C302.327 11.166 301.711 11.726 301.711 12.552ZM307.269 19.384C306.779 18.936 306.541 18.362 306.541 17.662C306.541 16.962 306.779 16.388 307.269 15.94C307.759 15.506 308.361 15.282 309.103 15.282C309.831 15.282 310.433 15.506 310.923 15.94C311.413 16.388 311.651 16.962 311.651 17.662C311.651 18.348 311.413 18.922 310.923 19.37C310.433 19.832 309.831 20.056 309.103 20.056C308.361 20.056 307.759 19.832 307.269 19.384ZM307.717 17.662C307.717 18.46 308.361 19.048 309.103 19.048C309.873 19.048 310.475 18.488 310.475 17.662C310.475 16.836 309.845 16.276 309.103 16.276C308.333 16.276 307.717 16.836 307.717 17.662Z" fill="#1A3341"/>
<path d="M291.076 40H289.984V36.244H284.98V40H283.888V31.6H284.98V35.224H289.984V31.6H291.076V40ZM297.305 35.332L293.501 40H292.577V33.76H293.585V38.44L297.377 33.76H298.313V40H297.305V35.332ZM299.928 41.512H298.968V39.04H299.664C300.3 38.068 300.54 36.7 300.54 34.336V33.76H305.124V39.04H306.024V41.512H305.064V40H299.928V41.512ZM304.116 34.72H301.488V35.152C301.488 36.748 301.236 38.044 300.744 39.04H304.116V34.72ZM311.598 38.212L312.246 38.812C311.67 39.676 310.842 40.108 309.75 40.108C308.754 40.108 307.95 39.808 307.338 39.22C306.726 38.632 306.426 37.852 306.426 36.868C306.426 35.92 306.702 35.14 307.266 34.528C307.818 33.916 308.598 33.616 309.606 33.616C310.434 33.616 311.13 33.88 311.67 34.396C312.21 34.912 312.486 35.596 312.486 36.448C312.486 36.724 312.462 36.976 312.426 37.204H307.506C307.566 38.44 308.478 39.16 309.786 39.16C310.518 39.16 311.214 38.776 311.598 38.212ZM309.534 34.54C308.394 34.54 307.65 35.236 307.494 36.292H311.418C311.358 35.188 310.65 34.54 309.534 34.54ZM314.494 42.4H313.486V33.76H314.494V34.54C314.914 33.928 315.586 33.616 316.51 33.616C317.422 33.616 318.154 33.904 318.694 34.492C319.234 35.08 319.498 35.836 319.498 36.772C319.498 37.732 319.21 38.524 318.634 39.16C318.046 39.796 317.302 40.108 316.39 40.108C315.55 40.108 314.914 39.892 314.494 39.472V42.4ZM316.402 34.564C315.49 34.564 314.782 35.152 314.494 35.86V38.188C314.854 38.836 315.454 39.16 316.306 39.16C316.918 39.16 317.434 38.944 317.83 38.512C318.226 38.08 318.43 37.528 318.43 36.844C318.43 35.452 317.65 34.564 316.402 34.564ZM325.775 40H324.767V34.72H322.127V35.008C322.127 37.024 321.899 38.416 321.443 39.136C320.987 39.856 320.423 40.096 319.643 40V39.04C320.447 39.04 321.119 38.692 321.119 35.044V33.76H325.775V40ZM327.601 35.26L327.085 34.504C327.661 33.964 328.657 33.616 329.581 33.616C331.249 33.616 332.137 34.528 332.137 36.148V40H331.129V39.076C330.733 39.652 329.953 40.084 328.945 40.084C327.589 40.084 326.677 39.328 326.677 38.176C326.677 36.868 327.793 36.244 329.665 36.244C330.253 36.244 330.733 36.304 331.129 36.424C331.129 35.212 330.697 34.564 329.461 34.564C328.837 34.564 328.213 34.792 327.601 35.26ZM329.185 39.172C329.653 39.172 330.073 39.04 330.421 38.788C330.769 38.536 330.997 38.248 331.129 37.948V37.312C330.781 37.192 330.337 37.132 329.797 37.132C328.429 37.132 327.745 37.468 327.745 38.14C327.745 38.776 328.321 39.172 329.185 39.172ZM339.028 40H338.02V37.3H334.42V40H333.412V33.76H334.42V36.352H338.02V33.76H339.028V40ZM340.646 41.512H339.686V39.04H340.382C341.018 38.068 341.258 36.7 341.258 34.336V33.76H345.842V39.04H346.742V41.512H345.782V40H340.646V41.512ZM344.834 34.72H342.206V35.152C342.206 36.748 341.954 38.044 341.462 39.04H344.834V34.72ZM349.748 40H347.492V33.76H348.5V35.704H349.844C351.68 35.704 352.412 36.556 352.412 37.84C352.412 39.1 351.608 40 349.748 40ZM349.736 36.664H348.5V39.04H349.724C350.876 39.04 351.344 38.632 351.344 37.852C351.344 37.06 350.804 36.664 349.736 36.664ZM354.32 40H353.3V33.76H354.32V40Z" fill="#76848D"/>
<path d="M322.49 172.804L322.042 171.754L325.402 170.144H326.2V180H324.996V171.642L322.49 172.804ZM331.849 174.414H332.283C332.913 174.414 333.431 174.26 333.865 173.966C334.285 173.672 334.495 173.28 334.495 172.818C334.495 171.768 333.669 171.236 332.031 171.236C330.463 171.236 329.609 171.81 329.609 172.818C329.609 173.728 330.547 174.414 331.849 174.414ZM332.255 175.52H331.905C331.149 175.52 330.519 175.688 330.029 176.01C329.539 176.332 329.287 176.738 329.287 177.228C329.287 178.292 330.267 178.964 332.045 178.964C333.851 178.964 334.817 178.32 334.817 177.242C334.817 176.164 333.781 175.52 332.255 175.52ZM335.013 179.37C334.299 179.874 333.305 180.126 332.059 180.126C330.813 180.126 329.819 179.874 329.091 179.384C328.363 178.894 327.999 178.222 327.999 177.354C327.999 176.22 328.741 175.324 329.931 174.932C328.853 174.582 328.321 173.728 328.321 172.734C328.321 171.11 329.693 170.074 332.045 170.074C334.411 170.074 335.783 171.11 335.783 172.734C335.783 173.672 335.265 174.386 334.229 174.862C335.475 175.24 336.091 176.052 336.091 177.298C336.091 178.18 335.727 178.88 335.013 179.37ZM339.619 180.21L338.695 179.678L345.933 169.892L346.815 170.536L339.619 180.21ZM337.183 172.552C337.183 171.852 337.421 171.278 337.911 170.83C338.401 170.382 339.003 170.158 339.745 170.158C340.473 170.158 341.075 170.382 341.565 170.83C342.055 171.278 342.293 171.852 342.293 172.552C342.293 173.238 342.055 173.812 341.565 174.26C341.075 174.708 340.473 174.932 339.745 174.932C339.003 174.932 338.401 174.708 337.911 174.26C337.421 173.812 337.183 173.238 337.183 172.552ZM338.359 172.552C338.359 173.35 339.003 173.938 339.745 173.938C340.515 173.938 341.117 173.378 341.117 172.552C341.117 171.726 340.487 171.166 339.745 171.166C338.975 171.166 338.359 171.726 338.359 172.552ZM343.917 179.384C343.427 178.936 343.189 178.362 343.189 177.662C343.189 176.962 343.427 176.388 343.917 175.94C344.407 175.506 345.009 175.282 345.751 175.282C346.479 175.282 347.081 175.506 347.571 175.94C348.061 176.388 348.299 176.962 348.299 177.662C348.299 178.348 348.061 178.922 347.571 179.37C347.081 179.832 346.479 180.056 345.751 180.056C345.009 180.056 344.407 179.832 343.917 179.384ZM344.365 177.662C344.365 178.46 345.009 179.048 345.751 179.048C346.521 179.048 347.123 178.488 347.123 177.662C347.123 176.836 346.493 176.276 345.751 176.276C344.981 176.276 344.365 176.836 344.365 177.662Z" fill="#1A3341"/>
<path d="M323.98 200H322.888V191.6H328.864V192.62H323.98V200ZM332.475 198.212L333.123 198.812C332.547 199.676 331.719 200.108 330.627 200.108C329.631 200.108 328.827 199.808 328.215 199.22C327.603 198.632 327.303 197.852 327.303 196.868C327.303 195.92 327.579 195.14 328.143 194.528C328.695 193.916 329.475 193.616 330.483 193.616C331.311 193.616 332.007 193.88 332.547 194.396C333.087 194.912 333.363 195.596 333.363 196.448C333.363 196.724 333.339 196.976 333.303 197.204H328.383C328.443 198.44 329.355 199.16 330.663 199.16C331.395 199.16 332.091 198.776 332.475 198.212ZM330.411 194.54C329.271 194.54 328.527 195.236 328.371 196.292H332.295C332.235 195.188 331.527 194.54 330.411 194.54ZM335.371 202.4H334.363V193.76H335.371V194.54C335.791 193.928 336.463 193.616 337.387 193.616C338.299 193.616 339.031 193.904 339.571 194.492C340.111 195.08 340.375 195.836 340.375 196.772C340.375 197.732 340.087 198.524 339.511 199.16C338.923 199.796 338.179 200.108 337.267 200.108C336.427 200.108 335.791 199.892 335.371 199.472V202.4ZM337.279 194.564C336.367 194.564 335.659 195.152 335.371 195.86V198.188C335.731 198.836 336.331 199.16 337.183 199.16C337.795 199.16 338.311 198.944 338.707 198.512C339.103 198.08 339.307 197.528 339.307 196.844C339.307 195.452 338.527 194.564 337.279 194.564ZM342.376 200H341.368V193.76H342.292L344.596 196.808L346.84 193.76H347.704V200H346.696V195.536L344.584 198.416L342.376 195.536V200ZM349.533 195.26L349.017 194.504C349.593 193.964 350.589 193.616 351.513 193.616C353.181 193.616 354.069 194.528 354.069 196.148V200H353.061V199.076C352.665 199.652 351.885 200.084 350.877 200.084C349.521 200.084 348.609 199.328 348.609 198.176C348.609 196.868 349.725 196.244 351.597 196.244C352.185 196.244 352.665 196.304 353.061 196.424C353.061 195.212 352.629 194.564 351.393 194.564C350.769 194.564 350.145 194.792 349.533 195.26ZM351.117 199.172C351.585 199.172 352.005 199.04 352.353 198.788C352.701 198.536 352.929 198.248 353.061 197.948V197.312C352.713 197.192 352.269 197.132 351.729 197.132C350.361 197.132 349.677 197.468 349.677 198.14C349.677 198.776 350.253 199.172 351.117 199.172ZM360.959 200H359.951V197.3H356.351V200H355.343V193.76H356.351V196.352H359.951V193.76H360.959V200ZM367.029 195.332L363.225 200H362.301V193.76H363.309V198.44L367.101 193.76H368.037V200H367.029V195.332ZM371.86 193.76H374.368V200H373.36V197.792H371.836L369.988 200H368.764L370.756 197.636C369.796 197.456 369.16 196.724 369.16 195.764C369.16 194.576 369.988 193.76 371.86 193.76ZM370.228 195.788C370.228 196.4 370.804 196.832 371.716 196.832H373.36V194.72H371.74C370.732 194.72 370.228 195.08 370.228 195.788Z" fill="#76848D"/>
<path d="M260.75 267.918C260.75 269.584 260.358 270.872 259.56 271.768C258.762 272.678 257.698 273.126 256.368 273.126C254.744 273.126 253.47 272.44 252.84 271.39L253.848 270.69C254.408 271.474 255.43 271.922 256.536 271.922C257.446 271.922 258.174 271.558 258.748 270.83C259.322 270.116 259.56 269.22 259.49 268.156C259.028 269.22 257.866 270.004 256.312 270.004C255.22 270.004 254.324 269.696 253.624 269.066C252.91 268.45 252.56 267.638 252.56 266.644C252.56 265.552 252.938 264.684 253.694 264.04C254.45 263.396 255.458 263.074 256.704 263.074C259.224 263.074 260.75 264.838 260.75 267.918ZM259.28 266.602C259.07 265.3 258.174 264.278 256.564 264.278C254.884 264.278 253.848 265.146 253.848 266.602C253.848 267.988 254.898 268.8 256.536 268.8C257.278 268.8 257.908 268.576 258.398 268.128C258.888 267.68 259.182 267.176 259.28 266.602ZM264.236 273.21L263.312 272.678L270.55 262.892L271.432 263.536L264.236 273.21ZM261.8 265.552C261.8 264.852 262.038 264.278 262.528 263.83C263.018 263.382 263.62 263.158 264.362 263.158C265.09 263.158 265.692 263.382 266.182 263.83C266.672 264.278 266.91 264.852 266.91 265.552C266.91 266.238 266.672 266.812 266.182 267.26C265.692 267.708 265.09 267.932 264.362 267.932C263.62 267.932 263.018 267.708 262.528 267.26C262.038 266.812 261.8 266.238 261.8 265.552ZM262.976 265.552C262.976 266.35 263.62 266.938 264.362 266.938C265.132 266.938 265.734 266.378 265.734 265.552C265.734 264.726 265.104 264.166 264.362 264.166C263.592 264.166 262.976 264.726 262.976 265.552ZM268.534 272.384C268.044 271.936 267.806 271.362 267.806 270.662C267.806 269.962 268.044 269.388 268.534 268.94C269.024 268.506 269.626 268.282 270.368 268.282C271.096 268.282 271.698 268.506 272.188 268.94C272.678 269.388 272.916 269.962 272.916 270.662C272.916 271.348 272.678 271.922 272.188 272.37C271.698 272.832 271.096 273.056 270.368 273.056C269.626 273.056 269.024 272.832 268.534 272.384ZM268.982 270.662C268.982 271.46 269.626 272.048 270.368 272.048C271.138 272.048 271.74 271.488 271.74 270.662C271.74 269.836 271.11 269.276 270.368 269.276C269.598 269.276 268.982 269.836 268.982 270.662Z" fill="#1A3341"/>
<path d="M258.912 286.496L253.812 293H252.888V284.6H253.98V291.104L259.068 284.6H260.004V293H258.912V286.496ZM263.186 287.708H260.798V286.76H266.606V287.708H264.194V293H263.186V287.708ZM267.503 288.26L266.987 287.504C267.563 286.964 268.559 286.616 269.483 286.616C271.151 286.616 272.039 287.528 272.039 289.148V293H271.031V292.076C270.635 292.652 269.855 293.084 268.847 293.084C267.491 293.084 266.579 292.328 266.579 291.176C266.579 289.868 267.695 289.244 269.567 289.244C270.155 289.244 270.635 289.304 271.031 289.424C271.031 288.212 270.599 287.564 269.363 287.564C268.739 287.564 268.115 287.792 267.503 288.26ZM269.087 292.172C269.555 292.172 269.975 292.04 270.323 291.788C270.671 291.536 270.899 291.248 271.031 290.948V290.312C270.683 290.192 270.239 290.132 269.699 290.132C268.331 290.132 267.647 290.468 267.647 291.14C267.647 291.776 268.223 292.172 269.087 292.172ZM278.737 293H277.729V287.72H275.089V288.008C275.089 290.024 274.861 291.416 274.405 292.136C273.949 292.856 273.385 293.096 272.605 293V292.04C273.409 292.04 274.081 291.692 274.081 288.044V286.76H278.737V293ZM284.812 288.332L281.008 293H280.084V286.76H281.092V291.44L284.884 286.76H285.82V293H284.812V288.332ZM289.643 286.76H292.151V293H291.143V290.792H289.619L287.771 293H286.547L288.539 290.636C287.579 290.456 286.943 289.724 286.943 288.764C286.943 287.576 287.771 286.76 289.643 286.76ZM288.011 288.788C288.011 289.4 288.587 289.832 289.499 289.832H291.143V287.72H289.523C288.515 287.72 288.011 288.08 288.011 288.788Z" fill="#76848D"/>
<path d="M159.466 285.414H159.9C160.53 285.414 161.048 285.26 161.482 284.966C161.902 284.672 162.112 284.28 162.112 283.818C162.112 282.768 161.286 282.236 159.648 282.236C158.08 282.236 157.226 282.81 157.226 283.818C157.226 284.728 158.164 285.414 159.466 285.414ZM159.872 286.52H159.522C158.766 286.52 158.136 286.688 157.646 287.01C157.156 287.332 156.904 287.738 156.904 288.228C156.904 289.292 157.884 289.964 159.662 289.964C161.468 289.964 162.434 289.32 162.434 288.242C162.434 287.164 161.398 286.52 159.872 286.52ZM162.63 290.37C161.916 290.874 160.922 291.126 159.676 291.126C158.43 291.126 157.436 290.874 156.708 290.384C155.98 289.894 155.616 289.222 155.616 288.354C155.616 287.22 156.358 286.324 157.548 285.932C156.47 285.582 155.938 284.728 155.938 283.734C155.938 282.11 157.31 281.074 159.662 281.074C162.028 281.074 163.4 282.11 163.4 283.734C163.4 284.672 162.882 285.386 161.846 285.862C163.092 286.24 163.708 287.052 163.708 288.298C163.708 289.18 163.344 289.88 162.63 290.37ZM167.236 291.21L166.312 290.678L173.55 280.892L174.432 281.536L167.236 291.21ZM164.8 283.552C164.8 282.852 165.038 282.278 165.528 281.83C166.018 281.382 166.62 281.158 167.362 281.158C168.09 281.158 168.692 281.382 169.182 281.83C169.672 282.278 169.91 282.852 169.91 283.552C169.91 284.238 169.672 284.812 169.182 285.26C168.692 285.708 168.09 285.932 167.362 285.932C166.62 285.932 166.018 285.708 165.528 285.26C165.038 284.812 164.8 284.238 164.8 283.552ZM165.976 283.552C165.976 284.35 166.62 284.938 167.362 284.938C168.132 284.938 168.734 284.378 168.734 283.552C168.734 282.726 168.104 282.166 167.362 282.166C166.592 282.166 165.976 282.726 165.976 283.552ZM171.534 290.384C171.044 289.936 170.806 289.362 170.806 288.662C170.806 287.962 171.044 287.388 171.534 286.94C172.024 286.506 172.626 286.282 173.368 286.282C174.096 286.282 174.698 286.506 175.188 286.94C175.678 287.388 175.916 287.962 175.916 288.662C175.916 289.348 175.678 289.922 175.188 290.37C174.698 290.832 174.096 291.056 173.368 291.056C172.626 291.056 172.024 290.832 171.534 290.384ZM171.982 288.662C171.982 289.46 172.626 290.048 173.368 290.048C174.138 290.048 174.74 289.488 174.74 288.662C174.74 287.836 174.11 287.276 173.368 287.276C172.598 287.276 171.982 287.836 171.982 288.662Z" fill="#1A3341"/>
<path d="M160.676 311.18H159.584V310.16H159.524C158.228 310.16 157.208 309.848 156.464 309.212C155.708 308.588 155.336 307.748 155.336 306.68C155.336 305.564 155.72 304.712 156.5 304.1C157.268 303.5 158.3 303.2 159.584 303.2V302.42H160.676V303.2C161.9 303.2 162.92 303.5 163.724 304.1C164.528 304.7 164.924 305.564 164.924 306.68C164.924 307.748 164.552 308.588 163.796 309.212C163.04 309.848 162.02 310.16 160.736 310.16H160.676V311.18ZM160.7 304.208H160.676V309.152H160.736C162.656 309.152 163.796 308.264 163.796 306.68C163.796 305.108 162.728 304.208 160.7 304.208ZM156.464 306.68C156.464 308.18 157.58 309.152 159.536 309.152H159.584V304.208C157.7 304.208 156.464 305.048 156.464 306.68ZM166.886 313.4H165.878V304.76H166.886V305.54C167.306 304.928 167.978 304.616 168.902 304.616C169.814 304.616 170.546 304.904 171.086 305.492C171.626 306.08 171.89 306.836 171.89 307.772C171.89 308.732 171.602 309.524 171.026 310.16C170.438 310.796 169.694 311.108 168.782 311.108C167.942 311.108 167.306 310.892 166.886 310.472V313.4ZM168.794 305.564C167.882 305.564 167.174 306.152 166.886 306.86V309.188C167.246 309.836 167.846 310.16 168.698 310.16C169.31 310.16 169.826 309.944 170.222 309.512C170.618 309.08 170.822 308.528 170.822 307.844C170.822 306.452 170.042 305.564 168.794 305.564ZM173.363 306.26L172.847 305.504C173.423 304.964 174.419 304.616 175.343 304.616C177.011 304.616 177.899 305.528 177.899 307.148V311H176.891V310.076C176.495 310.652 175.715 311.084 174.707 311.084C173.351 311.084 172.439 310.328 172.439 309.176C172.439 307.868 173.555 307.244 175.427 307.244C176.015 307.244 176.495 307.304 176.891 307.424C176.891 306.212 176.459 305.564 175.223 305.564C174.599 305.564 173.975 305.792 173.363 306.26ZM174.947 310.172C175.415 310.172 175.835 310.04 176.183 309.788C176.531 309.536 176.759 309.248 176.891 308.948V308.312C176.543 308.192 176.099 308.132 175.559 308.132C174.191 308.132 173.507 308.468 173.507 309.14C173.507 309.776 174.083 310.172 174.947 310.172ZM184.789 311H183.781V308.3H180.181V311H179.173V304.76H180.181V307.352H183.781V304.76H184.789V311ZM191.567 311H186.131V304.76H187.139V310.04H190.631V304.76H191.639V310.04H192.515V312.512H191.567V311ZM198.005 306.332L194.201 311H193.277V304.76H194.285V309.44L198.077 304.76H199.013V311H198.005V306.332ZM202.836 304.76H205.344V311H204.336V308.792H202.812L200.964 311H199.74L201.732 308.636C200.772 308.456 200.136 307.724 200.136 306.764C200.136 305.576 200.964 304.76 202.836 304.76ZM201.204 306.788C201.204 307.4 201.78 307.832 202.692 307.832H204.336V305.72H202.716C201.708 305.72 201.204 306.08 201.204 306.788Z" fill="#76848D"/>
<path d="M103.04 262.39H97.1036V261.2H104.538V261.998L99.6656 271H98.3356L103.04 262.39ZM107.72 271.21L106.796 270.678L114.034 260.892L114.916 261.536L107.72 271.21ZM105.284 263.552C105.284 262.852 105.522 262.278 106.012 261.83C106.502 261.382 107.104 261.158 107.846 261.158C108.574 261.158 109.176 261.382 109.666 261.83C110.156 262.278 110.394 262.852 110.394 263.552C110.394 264.238 110.156 264.812 109.666 265.26C109.176 265.708 108.574 265.932 107.846 265.932C107.104 265.932 106.502 265.708 106.012 265.26C105.522 264.812 105.284 264.238 105.284 263.552ZM106.46 263.552C106.46 264.35 107.104 264.938 107.846 264.938C108.616 264.938 109.218 264.378 109.218 263.552C109.218 262.726 108.588 262.166 107.846 262.166C107.076 262.166 106.46 262.726 106.46 263.552ZM112.018 270.384C111.528 269.936 111.29 269.362 111.29 268.662C111.29 267.962 111.528 267.388 112.018 266.94C112.508 266.506 113.11 266.282 113.852 266.282C114.58 266.282 115.182 266.506 115.672 266.94C116.162 267.388 116.4 267.962 116.4 268.662C116.4 269.348 116.162 269.922 115.672 270.37C115.182 270.832 114.58 271.056 113.852 271.056C113.11 271.056 112.508 270.832 112.018 270.384ZM112.466 268.662C112.466 269.46 113.11 270.048 113.852 270.048C114.622 270.048 115.224 269.488 115.224 268.662C115.224 267.836 114.594 267.276 113.852 267.276C113.082 267.276 112.466 267.836 112.466 268.662Z" fill="#1A3341"/>
<path d="M75.3106 284.496L70.2106 291H69.2866V282.6H70.3786V289.104L75.4666 282.6H76.4026V291H75.3106V284.496ZM82.7528 289.2L83.4728 289.716C83.0048 290.592 81.9488 291.108 80.9048 291.108C79.9088 291.108 79.1048 290.808 78.4928 290.22C77.8808 289.632 77.5688 288.852 77.5688 287.868C77.5688 286.932 77.8688 286.152 78.4808 285.54C79.0928 284.928 79.8728 284.616 80.8448 284.616C81.9608 284.616 82.9568 285.12 83.3768 285.888L82.5968 286.416C82.1768 285.852 81.6008 285.564 80.8688 285.564C80.2208 285.564 79.6928 285.78 79.2728 286.212C78.8528 286.644 78.6368 287.196 78.6368 287.868C78.6368 288.552 78.8528 289.104 79.2968 289.524C79.7288 289.944 80.2928 290.16 81.0008 290.16C81.7448 290.16 82.3328 289.836 82.7528 289.2ZM89.7276 291H88.7196V285.708H85.1916V291H84.1836V284.76H89.7276V291ZM91.5514 286.26L91.0354 285.504C91.6114 284.964 92.6074 284.616 93.5314 284.616C95.1994 284.616 96.0874 285.528 96.0874 287.148V291H95.0794V290.076C94.6834 290.652 93.9034 291.084 92.8954 291.084C91.5394 291.084 90.6274 290.328 90.6274 289.176C90.6274 287.868 91.7434 287.244 93.6154 287.244C94.2034 287.244 94.6834 287.304 95.0794 287.424C95.0794 286.212 94.6474 285.564 93.4114 285.564C92.7874 285.564 92.1634 285.792 91.5514 286.26ZM93.1354 290.172C93.6034 290.172 94.0234 290.04 94.3714 289.788C94.7194 289.536 94.9474 289.248 95.0794 288.948V288.312C94.7314 288.192 94.2874 288.132 93.7474 288.132C92.3794 288.132 91.6954 288.468 91.6954 289.14C91.6954 289.776 92.2714 290.172 93.1354 290.172ZM102.978 291H101.97V288.3H98.3695V291H97.3615V284.76H98.3695V287.352H101.97V284.76H102.978V291ZM109.048 286.332L105.244 291H104.32V284.76H105.328V289.44L109.12 284.76H110.056V291H109.048V286.332ZM113.879 284.76H116.387V291H115.379V288.792H113.855L112.007 291H110.783L112.775 288.636C111.815 288.456 111.179 287.724 111.179 286.764C111.179 285.576 112.007 284.76 113.879 284.76ZM112.247 286.788C112.247 287.4 112.823 287.832 113.735 287.832H115.379V285.72H113.759C112.751 285.72 112.247 286.08 112.247 286.788Z" fill="#76848D"/>
<path d="M49.1131 212.366C49.1131 210.672 49.5331 209.37 50.3591 208.446C51.1851 207.536 52.2211 207.074 53.4671 207.074C55.1051 207.074 56.3931 207.816 56.9391 208.992L55.9871 209.636C55.4131 208.726 54.5591 208.278 53.4111 208.278C52.5431 208.278 51.8151 208.614 51.2271 209.286C50.6391 209.972 50.3451 210.896 50.3591 212.086C50.9051 211.064 52.1791 210.448 53.5791 210.448C54.7131 210.448 55.6231 210.742 56.2811 211.344C56.9391 211.946 57.2751 212.744 57.2751 213.724C57.2751 214.718 56.9111 215.544 56.1691 216.174C55.4271 216.804 54.5031 217.126 53.3971 217.126C50.7511 217.126 49.1131 215.404 49.1131 212.366ZM50.5131 213.556C50.7791 214.942 51.8291 215.922 53.3831 215.922C54.1391 215.922 54.7691 215.726 55.2591 215.32C55.7491 214.928 55.9871 214.41 55.9871 213.78C55.9871 212.394 55.0071 211.652 53.5091 211.652C52.6831 211.652 51.9971 211.848 51.4651 212.24C50.9191 212.632 50.6111 213.066 50.5131 213.556ZM60.7196 217.21L59.7956 216.678L67.0336 206.892L67.9156 207.536L60.7196 217.21ZM58.2836 209.552C58.2836 208.852 58.5216 208.278 59.0116 207.83C59.5016 207.382 60.1036 207.158 60.8456 207.158C61.5736 207.158 62.1756 207.382 62.6656 207.83C63.1556 208.278 63.3936 208.852 63.3936 209.552C63.3936 210.238 63.1556 210.812 62.6656 211.26C62.1756 211.708 61.5736 211.932 60.8456 211.932C60.1036 211.932 59.5016 211.708 59.0116 211.26C58.5216 210.812 58.2836 210.238 58.2836 209.552ZM59.4596 209.552C59.4596 210.35 60.1036 210.938 60.8456 210.938C61.6156 210.938 62.2176 210.378 62.2176 209.552C62.2176 208.726 61.5876 208.166 60.8456 208.166C60.0756 208.166 59.4596 208.726 59.4596 209.552ZM65.0176 216.384C64.5276 215.936 64.2896 215.362 64.2896 214.662C64.2896 213.962 64.5276 213.388 65.0176 212.94C65.5076 212.506 66.1096 212.282 66.8516 212.282C67.5796 212.282 68.1816 212.506 68.6716 212.94C69.1616 213.388 69.3996 213.962 69.3996 214.662C69.3996 215.348 69.1616 215.922 68.6716 216.37C68.1816 216.832 67.5796 217.056 66.8516 217.056C66.1096 217.056 65.5076 216.832 65.0176 216.384ZM65.4656 214.662C65.4656 215.46 66.1096 216.048 66.8516 216.048C67.6216 216.048 68.2236 215.488 68.2236 214.662C68.2236 213.836 67.5936 213.276 66.8516 213.276C66.0816 213.276 65.4656 213.836 65.4656 214.662Z" fill="#1A3341"/>
<path d="M34.1113 237H33.0193V229.62H28.0633V237H26.9713V228.6H34.1113V237ZM35.2653 233.868C35.2653 232.92 35.5773 232.14 36.1893 231.528C36.8013 230.916 37.5933 230.616 38.5653 230.616C39.5493 230.616 40.3533 230.916 40.9653 231.528C41.5773 232.14 41.8893 232.92 41.8893 233.868C41.8893 234.816 41.5773 235.584 40.9653 236.196C40.3413 236.808 39.5373 237.108 38.5653 237.108C37.5933 237.108 36.8013 236.808 36.1893 236.196C35.5773 235.584 35.2653 234.816 35.2653 233.868ZM36.3333 233.868C36.3333 234.528 36.5373 235.08 36.9573 235.512C37.3773 235.944 37.9053 236.16 38.5653 236.16C39.2253 236.16 39.7773 235.944 40.1973 235.524C40.6173 235.104 40.8213 234.552 40.8213 233.868C40.8213 233.184 40.6053 232.632 40.1853 232.2C39.7533 231.78 39.2133 231.564 38.5653 231.564C37.9173 231.564 37.3893 231.78 36.9693 232.2C36.5493 232.62 36.3333 233.184 36.3333 233.868ZM48.1712 237H47.1632V231.72H44.5232V232.008C44.5232 234.024 44.2952 235.416 43.8392 236.136C43.3832 236.856 42.8192 237.096 42.0392 237V236.04C42.8432 236.04 43.5152 235.692 43.5152 232.044V230.76H48.1712V237ZM52.0378 237H49.5178V230.76H50.5258V232.704H52.1338C53.8378 232.704 54.6898 233.412 54.6898 234.84C54.6898 236.1 53.8978 237 52.0378 237ZM52.0018 233.664H50.5258V236.04H52.0018C53.1538 236.04 53.6218 235.632 53.6218 234.852C53.6218 234.06 53.0818 233.664 52.0018 233.664ZM63.0973 237H55.5853V230.76H56.5933V236.04H58.8373V230.76H59.8453V236.04H62.0893V230.76H63.0973V237ZM64.9218 232.26L64.4058 231.504C64.9818 230.964 65.9778 230.616 66.9018 230.616C68.5698 230.616 69.4578 231.528 69.4578 233.148V237H68.4498V236.076C68.0538 236.652 67.2738 237.084 66.2658 237.084C64.9098 237.084 63.9978 236.328 63.9978 235.176C63.9978 233.868 65.1138 233.244 66.9858 233.244C67.5738 233.244 68.0538 233.304 68.4498 233.424C68.4498 232.212 68.0178 231.564 66.7818 231.564C66.1578 231.564 65.5338 231.792 64.9218 232.26ZM66.5058 236.172C66.9738 236.172 67.3938 236.04 67.7418 235.788C68.0898 235.536 68.3178 235.248 68.4498 234.948V234.312C68.1018 234.192 67.6578 234.132 67.1178 234.132C65.7498 234.132 65.0658 234.468 65.0658 235.14C65.0658 235.776 65.6418 236.172 66.5058 236.172Z" fill="#76848D"/>
<path d="M25.1131 150.366C25.1131 148.672 25.5331 147.37 26.3591 146.446C27.1851 145.536 28.2211 145.074 29.4671 145.074C31.1051 145.074 32.3931 145.816 32.9391 146.992L31.9871 147.636C31.4131 146.726 30.5591 146.278 29.4111 146.278C28.5431 146.278 27.8151 146.614 27.2271 147.286C26.6391 147.972 26.3451 148.896 26.3591 150.086C26.9051 149.064 28.1791 148.448 29.5791 148.448C30.7131 148.448 31.6231 148.742 32.2811 149.344C32.9391 149.946 33.2751 150.744 33.2751 151.724C33.2751 152.718 32.9111 153.544 32.1691 154.174C31.4271 154.804 30.5031 155.126 29.3971 155.126C26.7511 155.126 25.1131 153.404 25.1131 150.366ZM26.5131 151.556C26.7791 152.942 27.8291 153.922 29.3831 153.922C30.1391 153.922 30.7691 153.726 31.2591 153.32C31.7491 152.928 31.9871 152.41 31.9871 151.78C31.9871 150.394 31.0071 149.652 29.5091 149.652C28.6831 149.652 27.9971 149.848 27.4651 150.24C26.9191 150.632 26.6111 151.066 26.5131 151.556ZM36.7196 155.21L35.7956 154.678L43.0336 144.892L43.9156 145.536L36.7196 155.21ZM34.2836 147.552C34.2836 146.852 34.5216 146.278 35.0116 145.83C35.5016 145.382 36.1036 145.158 36.8456 145.158C37.5736 145.158 38.1756 145.382 38.6656 145.83C39.1556 146.278 39.3936 146.852 39.3936 147.552C39.3936 148.238 39.1556 148.812 38.6656 149.26C38.1756 149.708 37.5736 149.932 36.8456 149.932C36.1036 149.932 35.5016 149.708 35.0116 149.26C34.5216 148.812 34.2836 148.238 34.2836 147.552ZM35.4596 147.552C35.4596 148.35 36.1036 148.938 36.8456 148.938C37.6156 148.938 38.2176 148.378 38.2176 147.552C38.2176 146.726 37.5876 146.166 36.8456 146.166C36.0756 146.166 35.4596 146.726 35.4596 147.552ZM41.0176 154.384C40.5276 153.936 40.2896 153.362 40.2896 152.662C40.2896 151.962 40.5276 151.388 41.0176 150.94C41.5076 150.506 42.1096 150.282 42.8516 150.282C43.5796 150.282 44.1816 150.506 44.6716 150.94C45.1616 151.388 45.3996 151.962 45.3996 152.662C45.3996 153.348 45.1616 153.922 44.6716 154.37C44.1816 154.832 43.5796 155.056 42.8516 155.056C42.1096 155.056 41.5076 154.832 41.0176 154.384ZM41.4656 152.662C41.4656 153.46 42.1096 154.048 42.8516 154.048C43.6216 154.048 44.2236 153.488 44.2236 152.662C44.2236 151.836 43.5936 151.276 42.8516 151.276C42.0816 151.276 41.4656 151.836 41.4656 152.662Z" fill="#1A3341"/>
<path d="M1.07566 166.6H7.07566V167.62H2.16766V170.032H4.66366C6.64366 170.032 7.69966 170.884 7.69966 172.432C7.69966 174.16 6.48766 175 4.33966 175H1.07566V166.6ZM4.49566 171.052H2.16766V173.98H4.42366C5.85166 173.98 6.57166 173.464 6.57166 172.444C6.57166 171.52 5.87566 171.052 4.49566 171.052ZM13.5455 173.212L14.1935 173.812C13.6175 174.676 12.7895 175.108 11.6975 175.108C10.7015 175.108 9.89753 174.808 9.28553 174.22C8.67353 173.632 8.37353 172.852 8.37353 171.868C8.37353 170.92 8.64953 170.14 9.21353 169.528C9.76553 168.916 10.5455 168.616 11.5535 168.616C12.3815 168.616 13.0775 168.88 13.6175 169.396C14.1575 169.912 14.4335 170.596 14.4335 171.448C14.4335 171.724 14.4095 171.976 14.3735 172.204H9.45353C9.51353 173.44 10.4255 174.16 11.7335 174.16C12.4655 174.16 13.1615 173.776 13.5455 173.212ZM11.4815 169.54C10.3415 169.54 9.59753 170.236 9.44153 171.292H13.3655C13.3055 170.188 12.5975 169.54 11.4815 169.54ZM20.7169 175H19.7089V169.72H17.0689V170.008C17.0689 172.024 16.8409 173.416 16.3849 174.136C15.9289 174.856 15.3649 175.096 14.5849 175V174.04C15.3889 174.04 16.0609 173.692 16.0609 170.044V168.76H20.7169V175ZM24.5836 175H22.0636V168.76H23.0716V170.704H24.6796C26.3836 170.704 27.2356 171.412 27.2356 172.84C27.2356 174.1 26.4436 175 24.5836 175ZM24.5476 171.664H23.0716V174.04H24.5476C25.6996 174.04 26.1676 173.632 26.1676 172.852C26.1676 172.06 25.6276 171.664 24.5476 171.664ZM29.1391 175H28.1311V168.76H32.6791V169.708H29.1391V175ZM38.0477 170.332L34.2437 175H33.3197V168.76H34.3277V173.44L38.1197 168.76H39.0557V175H38.0477V170.332ZM42.879 168.76H45.387V175H44.379V172.792H42.855L41.007 175H39.783L41.775 172.636C40.815 172.456 40.179 171.724 40.179 170.764C40.179 169.576 41.007 168.76 42.879 168.76ZM41.247 170.788C41.247 171.4 41.823 171.832 42.735 171.832H44.379V169.72H42.759C41.751 169.72 41.247 170.08 41.247 170.788Z" fill="#76848D"/>
<path d="M38.047 91.492L37.039 91.226L37.613 86.2H43.773V87.39H38.691L38.327 90.022C38.817 89.658 39.559 89.476 40.553 89.476C41.701 89.476 42.597 89.784 43.255 90.386C43.899 91.002 44.221 91.786 44.221 92.752C44.221 93.718 43.857 94.53 43.143 95.16C42.415 95.804 41.505 96.126 40.427 96.126C38.593 96.126 37.067 95.258 36.437 93.732L37.557 93.256C37.963 94.194 39.013 94.936 40.427 94.936C42.037 94.936 42.933 94.012 42.933 92.794C42.933 91.492 41.883 90.652 40.217 90.652C39.321 90.652 38.593 90.932 38.047 91.492ZM47.7196 96.21L46.7956 95.678L54.0336 85.892L54.9156 86.536L47.7196 96.21ZM45.2836 88.552C45.2836 87.852 45.5216 87.278 46.0116 86.83C46.5016 86.382 47.1036 86.158 47.8456 86.158C48.5736 86.158 49.1756 86.382 49.6656 86.83C50.1556 87.278 50.3936 87.852 50.3936 88.552C50.3936 89.238 50.1556 89.812 49.6656 90.26C49.1756 90.708 48.5736 90.932 47.8456 90.932C47.1036 90.932 46.5016 90.708 46.0116 90.26C45.5216 89.812 45.2836 89.238 45.2836 88.552ZM46.4596 88.552C46.4596 89.35 47.1036 89.938 47.8456 89.938C48.6156 89.938 49.2176 89.378 49.2176 88.552C49.2176 87.726 48.5876 87.166 47.8456 87.166C47.0756 87.166 46.4596 87.726 46.4596 88.552ZM52.0176 95.384C51.5276 94.936 51.2896 94.362 51.2896 93.662C51.2896 92.962 51.5276 92.388 52.0176 91.94C52.5076 91.506 53.1096 91.282 53.8516 91.282C54.5796 91.282 55.1816 91.506 55.6716 91.94C56.1616 92.388 56.3996 92.962 56.3996 93.662C56.3996 94.348 56.1616 94.922 55.6716 95.37C55.1816 95.832 54.5796 96.056 53.8516 96.056C53.1096 96.056 52.5076 95.832 52.0176 95.384ZM52.4656 93.662C52.4656 94.46 53.1096 95.048 53.8516 95.048C54.6216 95.048 55.2236 94.488 55.2236 93.662C55.2236 92.836 54.5936 92.276 53.8516 92.276C53.0816 92.276 52.4656 92.836 52.4656 93.662Z" fill="#1A3341"/>
<path d="M29.0002 107.6H30.0922V116H29.0002V112.424C28.7482 112.58 28.3882 112.724 27.9322 112.844C27.4762 112.964 27.0322 113.024 26.5882 113.024C25.6162 113.024 24.8362 112.796 24.2242 112.34C23.6122 111.884 23.3122 111.188 23.3122 110.264V107.6H24.4042V109.736C24.4042 111.248 25.1962 112.004 26.7802 112.004C27.5122 112.004 28.2562 111.788 29.0002 111.368V107.6ZM36.411 114.212L37.059 114.812C36.483 115.676 35.655 116.108 34.563 116.108C33.567 116.108 32.763 115.808 32.151 115.22C31.539 114.632 31.239 113.852 31.239 112.868C31.239 111.92 31.515 111.14 32.079 110.528C32.631 109.916 33.411 109.616 34.419 109.616C35.247 109.616 35.943 109.88 36.483 110.396C37.023 110.912 37.299 111.596 37.299 112.448C37.299 112.724 37.275 112.976 37.239 113.204H32.319C32.379 114.44 33.291 115.16 34.599 115.16C35.331 115.16 36.027 114.776 36.411 114.212ZM34.347 110.54C33.207 110.54 32.463 111.236 32.307 112.292H36.231C36.171 111.188 35.463 110.54 34.347 110.54ZM42.3258 109.76H43.5498L41.1618 112.772L43.6698 116H42.4098L40.4778 113.492L38.5218 116H37.3218L39.8178 112.784L37.4538 109.76H38.7138L40.5138 112.052L42.3258 109.76ZM49.0477 111.332L45.2437 116H44.3197V109.76H45.3277V114.44L49.1197 109.76H50.0557V116H49.0477V111.332ZM53.879 109.76H56.387V116H55.379V113.792H53.855L52.007 116H50.783L52.775 113.636C51.815 113.456 51.179 112.724 51.179 111.764C51.179 110.576 52.007 109.76 53.879 109.76ZM52.247 111.788C52.247 112.4 52.823 112.832 53.735 112.832H55.379V110.72H53.759C52.751 110.72 52.247 111.08 52.247 111.788Z" fill="#76848D"/>
<path d="M80.9302 6.804L80.4822 5.754L83.8422 4.144H84.6402V14H83.4362V5.642L80.9302 6.804ZM92.0396 5.39H86.1036V4.2H93.5376V4.998L88.6656 14H87.3356L92.0396 5.39ZM96.7196 14.21L95.7956 13.678L103.034 3.892L103.916 4.536L96.7196 14.21ZM94.2836 6.552C94.2836 5.852 94.5216 5.278 95.0116 4.83C95.5016 4.382 96.1036 4.158 96.8456 4.158C97.5736 4.158 98.1756 4.382 98.6656 4.83C99.1556 5.278 99.3936 5.852 99.3936 6.552C99.3936 7.238 99.1556 7.812 98.6656 8.26C98.1756 8.708 97.5736 8.932 96.8456 8.932C96.1036 8.932 95.5016 8.708 95.0116 8.26C94.5216 7.812 94.2836 7.238 94.2836 6.552ZM95.4596 6.552C95.4596 7.35 96.1036 7.938 96.8456 7.938C97.6156 7.938 98.2176 7.378 98.2176 6.552C98.2176 5.726 97.5876 5.166 96.8456 5.166C96.0756 5.166 95.4596 5.726 95.4596 6.552ZM101.018 13.384C100.528 12.936 100.29 12.362 100.29 11.662C100.29 10.962 100.528 10.388 101.018 9.94C101.508 9.506 102.11 9.282 102.852 9.282C103.58 9.282 104.182 9.506 104.672 9.94C105.162 10.388 105.4 10.962 105.4 11.662C105.4 12.348 105.162 12.922 104.672 13.37C104.182 13.832 103.58 14.056 102.852 14.056C102.11 14.056 101.508 13.832 101.018 13.384ZM101.466 11.662C101.466 12.46 102.11 13.048 102.852 13.048C103.622 13.048 104.224 12.488 104.224 11.662C104.224 10.836 103.594 10.276 102.852 10.276C102.082 10.276 101.466 10.836 101.466 11.662Z" fill="#1A3341"/>
<path d="M70.7675 34H69.6755V26.62H64.7195V34H63.6275V25.6H70.7675V34ZM73.2775 36.4H72.2695V27.76H73.2775V28.54C73.6975 27.928 74.3695 27.616 75.2935 27.616C76.2055 27.616 76.9375 27.904 77.4775 28.492C78.0175 29.08 78.2815 29.836 78.2815 30.772C78.2815 31.732 77.9935 32.524 77.4175 33.16C76.8295 33.796 76.0855 34.108 75.1735 34.108C74.3335 34.108 73.6975 33.892 73.2775 33.472V36.4ZM75.1855 28.564C74.2735 28.564 73.5655 29.152 73.2775 29.86V32.188C73.6375 32.836 74.2375 33.16 75.0895 33.16C75.7015 33.16 76.2175 32.944 76.6135 32.512C77.0095 32.08 77.2135 31.528 77.2135 30.844C77.2135 29.452 76.4335 28.564 75.1855 28.564ZM78.9265 30.868C78.9265 29.92 79.2385 29.14 79.8505 28.528C80.4625 27.916 81.2545 27.616 82.2265 27.616C83.2105 27.616 84.0145 27.916 84.6265 28.528C85.2385 29.14 85.5505 29.92 85.5505 30.868C85.5505 31.816 85.2385 32.584 84.6265 33.196C84.0025 33.808 83.1985 34.108 82.2265 34.108C81.2545 34.108 80.4625 33.808 79.8505 33.196C79.2385 32.584 78.9265 31.816 78.9265 30.868ZM79.9945 30.868C79.9945 31.528 80.1985 32.08 80.6185 32.512C81.0385 32.944 81.5665 33.16 82.2265 33.16C82.8865 33.16 83.4385 32.944 83.8585 32.524C84.2785 32.104 84.4825 31.552 84.4825 30.868C84.4825 30.184 84.2665 29.632 83.8465 29.2C83.4145 28.78 82.8745 28.564 82.2265 28.564C81.5785 28.564 81.0505 28.78 80.6305 29.2C80.2105 29.62 79.9945 30.184 79.9945 30.868ZM90.593 27.76H91.601V34H90.593V31.372C90.137 31.828 89.501 32.056 88.685 32.056C87.041 32.056 86.225 31.228 86.225 29.572V27.76H87.233V29.296C87.233 30.556 87.761 31.096 88.865 31.096C89.585 31.096 90.269 30.712 90.593 30.244V27.76ZM97.6727 29.332L93.8687 34H92.9447V27.76H93.9527V32.44L97.7447 27.76H98.6807V34H97.6727V29.332ZM104.844 32.212L105.492 32.812C104.916 33.676 104.088 34.108 102.996 34.108C102 34.108 101.196 33.808 100.584 33.22C99.972 32.632 99.672 31.852 99.672 30.868C99.672 29.92 99.948 29.14 100.512 28.528C101.064 27.916 101.844 27.616 102.852 27.616C103.68 27.616 104.376 27.88 104.916 28.396C105.456 28.912 105.732 29.596 105.732 30.448C105.732 30.724 105.708 30.976 105.672 31.204H100.752C100.812 32.44 101.724 33.16 103.032 33.16C103.764 33.16 104.46 32.776 104.844 32.212ZM102.78 28.54C101.64 28.54 100.896 29.236 100.74 30.292H104.664C104.604 29.188 103.896 28.54 102.78 28.54Z" fill="#76848D"/>
<path d="M166.613 148.152V151H147.125V148.44L156.373 143.096C158.186 142.051 159.53 141.208 160.405 140.568C161.28 139.907 161.866 139.299 162.165 138.744C162.485 138.189 162.645 137.528 162.645 136.76V136.44C162.645 135.203 162.122 134.253 161.077 133.592C160.053 132.931 158.57 132.6 156.629 132.6C154.624 132.6 153.098 132.952 152.053 133.656C151.029 134.36 150.517 135.384 150.517 136.728V137.368H147.317V136.696C147.317 134.413 148.117 132.664 149.717 131.448C151.317 130.232 153.6 129.624 156.565 129.624C159.466 129.624 161.738 130.221 163.381 131.416C165.024 132.611 165.845 134.253 165.845 136.344V136.664C165.845 137.795 165.621 138.787 165.173 139.64C164.725 140.493 163.946 141.357 162.837 142.232C161.749 143.107 160.149 144.152 158.037 145.368L153.173 148.152H166.613ZM180.881 151.384C178.748 151.384 176.86 151 175.217 150.232C173.596 149.464 172.327 148.387 171.409 147C170.513 145.613 170.065 144.024 170.065 142.232V138.808C170.065 136.995 170.513 135.395 171.409 134.008C172.327 132.621 173.596 131.544 175.217 130.776C176.86 130.008 178.748 129.624 180.881 129.624C182.993 129.624 184.86 130.008 186.481 130.776C188.103 131.544 189.361 132.621 190.257 134.008C191.153 135.395 191.601 136.995 191.601 138.808V142.232C191.601 144.045 191.153 145.645 190.257 147.032C189.361 148.397 188.103 149.464 186.481 150.232C184.86 151 182.993 151.384 180.881 151.384ZM180.881 148.408C183.228 148.408 185.073 147.864 186.417 146.776C187.761 145.688 188.433 144.184 188.433 142.264V138.776C188.433 136.877 187.751 135.373 186.385 134.264C185.041 133.155 183.196 132.6 180.849 132.6C178.481 132.6 176.615 133.155 175.249 134.264C173.905 135.352 173.233 136.856 173.233 138.776V142.264C173.233 144.184 173.905 145.688 175.249 146.776C176.615 147.864 178.492 148.408 180.881 148.408ZM215.006 148.152V151H195.518V148.44L204.766 143.096C206.579 142.051 207.923 141.208 208.798 140.568C209.672 139.907 210.259 139.299 210.558 138.744C210.878 138.189 211.038 137.528 211.038 136.76V136.44C211.038 135.203 210.515 134.253 209.47 133.592C208.446 132.931 206.963 132.6 205.022 132.6C203.016 132.6 201.491 132.952 200.446 133.656C199.422 134.36 198.91 135.384 198.91 136.728V137.368H195.71V136.696C195.71 134.413 196.51 132.664 198.11 131.448C199.71 130.232 201.992 129.624 204.958 129.624C207.859 129.624 210.131 130.221 211.774 131.416C213.416 132.611 214.238 134.253 214.238 136.344V136.664C214.238 137.795 214.014 138.787 213.566 139.64C213.118 140.493 212.339 141.357 211.23 142.232C210.142 143.107 208.542 144.152 206.43 145.368L201.566 148.152H215.006ZM229.978 138.328C232.815 138.413 234.98 138.979 236.474 140.024C237.988 141.048 238.746 142.477 238.746 144.312V144.728C238.746 146.883 237.882 148.536 236.154 149.688C234.426 150.819 231.908 151.384 228.602 151.384C225.38 151.363 222.884 150.797 221.114 149.688C219.364 148.579 218.49 147.011 218.49 144.984V144.76H221.658V144.984C221.658 146.051 222.276 146.893 223.514 147.512C224.751 148.109 226.458 148.408 228.634 148.408C230.916 148.408 232.644 148.109 233.818 147.512C234.991 146.893 235.578 145.987 235.578 144.792V144.408C235.578 142.168 233.295 141.048 228.73 141.048H225.274V138.232L233.178 132.856H218.874V130.008H238.234V132.856L229.978 138.328Z" fill="#1A3341"/>
<defs>
<linearGradient id="paint0_linear_4004_9086" x1="200" y1="9.00001" x2="309" y2="128" gradientUnits="userSpaceOnUse">
<stop offset="0" stop-color="#5358CC"/>
<stop offset="1" stop-color="#3B38CE"/>
</linearGradient>
<linearGradient id="paint1_linear_4004_9086" x1="309" y1="119.5" x2="199.5" y2="337" gradientUnits="userSpaceOnUse">
<stop offset="0" stop-color="#6D73F9"/>
<stop offset="1" stop-color="#9BB8F1"/>
</linearGradient>
<linearGradient id="paint2_linear_4004_9086" x1="278.5" y1="222.5" x2="213.5" y2="256" gradientUnits="userSpaceOnUse">
<stop offset="0" stop-color="#ACAEEA"/>
<stop offset="1" stop-color="#A4B9F0"/>
</linearGradient>
<linearGradient id="paint3_linear_4004_9086" x1="153.5" y1="239.5" x2="208.5" y2="247.5" gradientUnits="userSpaceOnUse">
<stop offset="0" stop-color="#C9D2EA"/>
<stop offset="1" stop-color="#D1DCFB"/>
</linearGradient>
<linearGradient id="paint4_linear_4004_9086" x1="153.5" y1="239.5" x2="110" y2="196" gradientUnits="userSpaceOnUse">
<stop offset="0" stop-color="#476DD3"/>
<stop offset="1" stop-color="#7094F1"/>
</linearGradient>
<linearGradient id="paint5_linear_4004_9086" x1="121" y1="210" x2="99.5" y2="174" gradientUnits="userSpaceOnUse">
<stop offset="0" stop-color="#A0CEF7"/>
<stop offset="1" stop-color="#7FB1EC"/>
</linearGradient>
<linearGradient id="paint6_linear_4004_9086" x1="91.5" y1="180" x2="94" y2="132" gradientUnits="userSpaceOnUse">
<stop offset="0" stop-color="#CADFF3"/>
<stop offset="1" stop-color="#D2E6FE"/>
</linearGradient>
</defs>
</svg>
