<svg width="335" height="333" viewBox="0 0 335 333" fill="none" xmlns="http://www.w3.org/2000/svg">
<path d="M286.312 199H285.268V197.284H280.132V196.588L285.388 190.6H286.312V196.312H287.872V197.284H286.312V199ZM285.268 192.28L281.572 196.312H285.268V192.28ZM294.255 199H293.211V197.284H288.075V196.588L293.331 190.6H294.255V196.312H295.815V197.284H294.255V199ZM293.211 192.28L289.515 196.312H293.211V192.28ZM298.489 199.18L297.697 198.724L303.901 190.336L304.657 190.888L298.489 199.18ZM296.401 192.616C296.401 192.016 296.605 191.524 297.025 191.14C297.445 190.756 297.961 190.564 298.597 190.564C299.221 190.564 299.737 190.756 300.157 191.14C300.577 191.524 300.781 192.016 300.781 192.616C300.781 193.204 300.577 193.696 300.157 194.08C299.737 194.464 299.221 194.656 298.597 194.656C297.961 194.656 297.445 194.464 297.025 194.08C296.605 193.696 296.401 193.204 296.401 192.616ZM297.409 192.616C297.409 193.3 297.961 193.804 298.597 193.804C299.257 193.804 299.773 193.324 299.773 192.616C299.773 191.908 299.233 191.428 298.597 191.428C297.937 191.428 297.409 191.908 297.409 192.616ZM302.173 198.472C301.753 198.088 301.549 197.596 301.549 196.996C301.549 196.396 301.753 195.904 302.173 195.52C302.593 195.148 303.109 194.956 303.745 194.956C304.369 194.956 304.885 195.148 305.305 195.52C305.725 195.904 305.929 196.396 305.929 196.996C305.929 197.584 305.725 198.076 305.305 198.46C304.885 198.856 304.369 199.048 303.745 199.048C303.109 199.048 302.593 198.856 302.173 198.472ZM302.557 196.996C302.557 197.68 303.109 198.184 303.745 198.184C304.405 198.184 304.921 197.704 304.921 196.996C304.921 196.288 304.381 195.808 303.745 195.808C303.085 195.808 302.557 196.288 302.557 196.996Z" fill="#1A3341"/>
<path d="M156.42 322.832L156.036 321.932L158.916 320.552H159.6V329H158.568V321.836L156.42 322.832ZM161.034 322.832L160.65 321.932L163.53 320.552H164.214V329H163.182V321.836L161.034 322.832ZM167.833 329.18L167.041 328.724L173.245 320.336L174.001 320.888L167.833 329.18ZM165.745 322.616C165.745 322.016 165.949 321.524 166.369 321.14C166.789 320.756 167.305 320.564 167.941 320.564C168.565 320.564 169.081 320.756 169.501 321.14C169.921 321.524 170.125 322.016 170.125 322.616C170.125 323.204 169.921 323.696 169.501 324.08C169.081 324.464 168.565 324.656 167.941 324.656C167.305 324.656 166.789 324.464 166.369 324.08C165.949 323.696 165.745 323.204 165.745 322.616ZM166.753 322.616C166.753 323.3 167.305 323.804 167.941 323.804C168.601 323.804 169.117 323.324 169.117 322.616C169.117 321.908 168.577 321.428 167.941 321.428C167.281 321.428 166.753 321.908 166.753 322.616ZM171.517 328.472C171.097 328.088 170.893 327.596 170.893 326.996C170.893 326.396 171.097 325.904 171.517 325.52C171.937 325.148 172.453 324.956 173.089 324.956C173.713 324.956 174.229 325.148 174.649 325.52C175.069 325.904 175.273 326.396 175.273 326.996C175.273 327.584 175.069 328.076 174.649 328.46C174.229 328.856 173.713 329.048 173.089 329.048C172.453 329.048 171.937 328.856 171.517 328.472ZM171.901 326.996C171.901 327.68 172.453 328.184 173.089 328.184C173.749 328.184 174.265 327.704 174.265 326.996C174.265 326.288 173.725 325.808 173.089 325.808C172.429 325.808 171.901 326.288 171.901 326.996Z" fill="#1A3341"/>
<path d="M82.2108 301.832L81.8268 300.932L84.7068 299.552H85.3908V308H84.3588V300.836L82.2108 301.832ZM86.9212 303.8C86.9212 302.504 87.2212 301.46 87.8332 300.68C88.4332 299.9 89.3212 299.504 90.4852 299.504C92.8732 299.504 94.0612 301.076 94.0612 303.8C94.0612 305.108 93.7612 306.14 93.1732 306.92C92.5732 307.7 91.6852 308.096 90.5092 308.096C89.3812 308.096 88.5052 307.7 87.8692 306.908C87.2332 306.116 86.9212 305.084 86.9212 303.8ZM88.0252 303.8C88.0252 305.852 88.9612 307.076 90.5092 307.076C92.1412 307.076 92.9572 305.984 92.9572 303.8C92.9572 301.616 92.1292 300.524 90.4852 300.524C88.8172 300.524 88.0252 301.724 88.0252 303.8ZM97.0454 308.18L96.2534 307.724L102.457 299.336L103.213 299.888L97.0454 308.18ZM94.9574 301.616C94.9574 301.016 95.1614 300.524 95.5814 300.14C96.0014 299.756 96.5174 299.564 97.1534 299.564C97.7774 299.564 98.2934 299.756 98.7134 300.14C99.1334 300.524 99.3374 301.016 99.3374 301.616C99.3374 302.204 99.1334 302.696 98.7134 303.08C98.2934 303.464 97.7774 303.656 97.1534 303.656C96.5174 303.656 96.0014 303.464 95.5814 303.08C95.1614 302.696 94.9574 302.204 94.9574 301.616ZM95.9654 301.616C95.9654 302.3 96.5174 302.804 97.1534 302.804C97.8134 302.804 98.3294 302.324 98.3294 301.616C98.3294 300.908 97.7894 300.428 97.1534 300.428C96.4934 300.428 95.9654 300.908 95.9654 301.616ZM100.729 307.472C100.309 307.088 100.105 306.596 100.105 305.996C100.105 305.396 100.309 304.904 100.729 304.52C101.149 304.148 101.665 303.956 102.301 303.956C102.925 303.956 103.441 304.148 103.861 304.52C104.281 304.904 104.485 305.396 104.485 305.996C104.485 306.584 104.281 307.076 103.861 307.46C103.441 307.856 102.925 308.048 102.301 308.048C101.665 308.048 101.149 307.856 100.729 307.472ZM101.113 305.996C101.113 306.68 101.665 307.184 102.301 307.184C102.961 307.184 103.477 306.704 103.477 305.996C103.477 305.288 102.937 304.808 102.301 304.808C101.641 304.808 101.113 305.288 101.113 305.996Z" fill="#1A3341"/>
<path d="M51.0575 246.644C51.0575 248.072 50.7215 249.176 50.0375 249.944C49.3535 250.724 48.4415 251.108 47.3015 251.108C45.9095 251.108 44.8175 250.52 44.2775 249.62L45.1415 249.02C45.6215 249.692 46.4975 250.076 47.4455 250.076C48.2255 250.076 48.8495 249.764 49.3415 249.14C49.8335 248.528 50.0375 247.76 49.9775 246.848C49.5815 247.76 48.5855 248.432 47.2535 248.432C46.3175 248.432 45.5495 248.168 44.9495 247.628C44.3375 247.1 44.0375 246.404 44.0375 245.552C44.0375 244.616 44.3615 243.872 45.0095 243.32C45.6575 242.768 46.5215 242.492 47.5895 242.492C49.7495 242.492 51.0575 244.004 51.0575 246.644ZM49.7975 245.516C49.6175 244.4 48.8495 243.524 47.4695 243.524C46.0295 243.524 45.1415 244.268 45.1415 245.516C45.1415 246.704 46.0415 247.4 47.4455 247.4C48.0815 247.4 48.6215 247.208 49.0415 246.824C49.4615 246.44 49.7135 246.008 49.7975 245.516ZM54.0454 251.18L53.2534 250.724L59.4574 242.336L60.2134 242.888L54.0454 251.18ZM51.9574 244.616C51.9574 244.016 52.1614 243.524 52.5814 243.14C53.0014 242.756 53.5174 242.564 54.1534 242.564C54.7774 242.564 55.2934 242.756 55.7134 243.14C56.1334 243.524 56.3374 244.016 56.3374 244.616C56.3374 245.204 56.1334 245.696 55.7134 246.08C55.2934 246.464 54.7774 246.656 54.1534 246.656C53.5174 246.656 53.0014 246.464 52.5814 246.08C52.1614 245.696 51.9574 245.204 51.9574 244.616ZM52.9654 244.616C52.9654 245.3 53.5174 245.804 54.1534 245.804C54.8134 245.804 55.3294 245.324 55.3294 244.616C55.3294 243.908 54.7894 243.428 54.1534 243.428C53.4934 243.428 52.9654 243.908 52.9654 244.616ZM57.7294 250.472C57.3094 250.088 57.1054 249.596 57.1054 248.996C57.1054 248.396 57.3094 247.904 57.7294 247.52C58.1494 247.148 58.6654 246.956 59.3014 246.956C59.9254 246.956 60.4414 247.148 60.8614 247.52C61.2814 247.904 61.4854 248.396 61.4854 248.996C61.4854 249.584 61.2814 250.076 60.8614 250.46C60.4414 250.856 59.9254 251.048 59.3014 251.048C58.6654 251.048 58.1494 250.856 57.7294 250.472ZM58.1134 248.996C58.1134 249.68 58.6654 250.184 59.3014 250.184C59.9614 250.184 60.4774 249.704 60.4774 248.996C60.4774 248.288 59.9374 247.808 59.3014 247.808C58.6414 247.808 58.1134 248.288 58.1134 248.996Z" fill="#1A3341"/>
<path d="M42.8109 201H41.7669V199.284H36.6309V198.588L41.8869 192.6H42.8109V198.312H44.3709V199.284H42.8109V201ZM41.7669 194.28L38.0709 198.312H41.7669V194.28ZM47.0454 201.18L46.2534 200.724L52.4574 192.336L53.2134 192.888L47.0454 201.18ZM44.9574 194.616C44.9574 194.016 45.1614 193.524 45.5814 193.14C46.0014 192.756 46.5174 192.564 47.1534 192.564C47.7774 192.564 48.2934 192.756 48.7134 193.14C49.1334 193.524 49.3374 194.016 49.3374 194.616C49.3374 195.204 49.1334 195.696 48.7134 196.08C48.2934 196.464 47.7774 196.656 47.1534 196.656C46.5174 196.656 46.0014 196.464 45.5814 196.08C45.1614 195.696 44.9574 195.204 44.9574 194.616ZM45.9654 194.616C45.9654 195.3 46.5174 195.804 47.1534 195.804C47.8134 195.804 48.3294 195.324 48.3294 194.616C48.3294 193.908 47.7894 193.428 47.1534 193.428C46.4934 193.428 45.9654 193.908 45.9654 194.616ZM50.7294 200.472C50.3094 200.088 50.1054 199.596 50.1054 198.996C50.1054 198.396 50.3094 197.904 50.7294 197.52C51.1494 197.148 51.6654 196.956 52.3014 196.956C52.9254 196.956 53.4414 197.148 53.8614 197.52C54.2814 197.904 54.4854 198.396 54.4854 198.996C54.4854 199.584 54.2814 200.076 53.8614 200.46C53.4414 200.856 52.9254 201.048 52.3014 201.048C51.6654 201.048 51.1494 200.856 50.7294 200.472ZM51.1134 198.996C51.1134 199.68 51.6654 200.184 52.3014 200.184C52.9614 200.184 53.4774 199.704 53.4774 198.996C53.4774 198.288 52.9374 197.808 52.3014 197.808C51.6414 197.808 51.1134 198.288 51.1134 198.996Z" fill="#1A3341"/>
<path d="M45.8109 175H44.7669V173.284H39.6309V172.588L44.8869 166.6H45.8109V172.312H47.3709V173.284H45.8109V175ZM44.7669 168.28L41.0709 172.312H44.7669V168.28ZM50.0454 175.18L49.2534 174.724L55.4574 166.336L56.2134 166.888L50.0454 175.18ZM47.9574 168.616C47.9574 168.016 48.1614 167.524 48.5814 167.14C49.0014 166.756 49.5174 166.564 50.1534 166.564C50.7774 166.564 51.2934 166.756 51.7134 167.14C52.1334 167.524 52.3374 168.016 52.3374 168.616C52.3374 169.204 52.1334 169.696 51.7134 170.08C51.2934 170.464 50.7774 170.656 50.1534 170.656C49.5174 170.656 49.0014 170.464 48.5814 170.08C48.1614 169.696 47.9574 169.204 47.9574 168.616ZM48.9654 168.616C48.9654 169.3 49.5174 169.804 50.1534 169.804C50.8134 169.804 51.3294 169.324 51.3294 168.616C51.3294 167.908 50.7894 167.428 50.1534 167.428C49.4934 167.428 48.9654 167.908 48.9654 168.616ZM53.7294 174.472C53.3094 174.088 53.1054 173.596 53.1054 172.996C53.1054 172.396 53.3094 171.904 53.7294 171.52C54.1494 171.148 54.6654 170.956 55.3014 170.956C55.9254 170.956 56.4414 171.148 56.8614 171.52C57.2814 171.904 57.4854 172.396 57.4854 172.996C57.4854 173.584 57.2814 174.076 56.8614 174.46C56.4414 174.856 55.9254 175.048 55.3014 175.048C54.6654 175.048 54.1494 174.856 53.7294 174.472ZM54.1134 172.996C54.1134 173.68 54.6654 174.184 55.3014 174.184C55.9614 174.184 56.4774 173.704 56.4774 172.996C56.4774 172.288 55.9374 171.808 55.3014 171.808C54.6414 171.808 54.1134 172.288 54.1134 172.996Z" fill="#1A3341"/>
<path d="M51.4992 145.048L50.5992 144.64C51.0432 143.344 52.2072 142.492 53.9472 142.492C54.7752 142.492 55.4592 142.684 55.9872 143.068C56.5152 143.452 56.7792 143.968 56.7792 144.604C56.7792 145.576 56.2632 146.296 55.3032 146.572C56.2272 146.632 56.9712 147.328 56.9712 148.576C56.9712 149.368 56.6832 149.992 56.1072 150.436C55.5312 150.88 54.7992 151.108 53.8992 151.108C52.0632 151.108 50.7912 150.232 50.3712 148.852L51.3432 148.432C51.8592 149.524 52.7352 150.076 53.9712 150.076C55.1352 150.076 55.8672 149.536 55.8672 148.588C55.8672 147.664 55.1472 147.196 53.7072 147.196H52.7712V146.2H53.5152C54.8232 146.2 55.6752 145.612 55.6752 144.808C55.6752 143.98 54.9912 143.512 53.8992 143.512C52.6152 143.512 51.8352 144.172 51.4992 145.048ZM60.0454 151.18L59.2534 150.724L65.4574 142.336L66.2134 142.888L60.0454 151.18ZM57.9574 144.616C57.9574 144.016 58.1614 143.524 58.5814 143.14C59.0014 142.756 59.5174 142.564 60.1534 142.564C60.7774 142.564 61.2934 142.756 61.7134 143.14C62.1334 143.524 62.3374 144.016 62.3374 144.616C62.3374 145.204 62.1334 145.696 61.7134 146.08C61.2934 146.464 60.7774 146.656 60.1534 146.656C59.5174 146.656 59.0014 146.464 58.5814 146.08C58.1614 145.696 57.9574 145.204 57.9574 144.616ZM58.9654 144.616C58.9654 145.3 59.5174 145.804 60.1534 145.804C60.8134 145.804 61.3294 145.324 61.3294 144.616C61.3294 143.908 60.7894 143.428 60.1534 143.428C59.4934 143.428 58.9654 143.908 58.9654 144.616ZM63.7294 150.472C63.3094 150.088 63.1054 149.596 63.1054 148.996C63.1054 148.396 63.3094 147.904 63.7294 147.52C64.1494 147.148 64.6654 146.956 65.3014 146.956C65.9254 146.956 66.4414 147.148 66.8614 147.52C67.2814 147.904 67.4854 148.396 67.4854 148.996C67.4854 149.584 67.2814 150.076 66.8614 150.46C66.4414 150.856 65.9254 151.048 65.3014 151.048C64.6654 151.048 64.1494 150.856 63.7294 150.472ZM64.1134 148.996C64.1134 149.68 64.6654 150.184 65.3014 150.184C65.9614 150.184 66.4774 149.704 66.4774 148.996C66.4774 148.288 65.9374 147.808 65.3014 147.808C64.6414 147.808 64.1134 148.288 64.1134 148.996Z" fill="#1A3341"/>
<path d="M67.4992 122.048L66.5992 121.64C67.0432 120.344 68.2072 119.492 69.9472 119.492C70.7752 119.492 71.4592 119.684 71.9872 120.068C72.5152 120.452 72.7792 120.968 72.7792 121.604C72.7792 122.576 72.2632 123.296 71.3032 123.572C72.2272 123.632 72.9712 124.328 72.9712 125.576C72.9712 126.368 72.6832 126.992 72.1072 127.436C71.5312 127.88 70.7992 128.108 69.8992 128.108C68.0632 128.108 66.7912 127.232 66.3712 125.852L67.3432 125.432C67.8592 126.524 68.7352 127.076 69.9712 127.076C71.1352 127.076 71.8672 126.536 71.8672 125.588C71.8672 124.664 71.1472 124.196 69.7072 124.196H68.7712V123.2H69.5152C70.8232 123.2 71.6752 122.612 71.6752 121.808C71.6752 120.98 70.9912 120.512 69.8992 120.512C68.6152 120.512 67.8352 121.172 67.4992 122.048ZM76.0454 128.18L75.2534 127.724L81.4574 119.336L82.2134 119.888L76.0454 128.18ZM73.9574 121.616C73.9574 121.016 74.1614 120.524 74.5814 120.14C75.0014 119.756 75.5174 119.564 76.1534 119.564C76.7774 119.564 77.2934 119.756 77.7134 120.14C78.1334 120.524 78.3374 121.016 78.3374 121.616C78.3374 122.204 78.1334 122.696 77.7134 123.08C77.2934 123.464 76.7774 123.656 76.1534 123.656C75.5174 123.656 75.0014 123.464 74.5814 123.08C74.1614 122.696 73.9574 122.204 73.9574 121.616ZM74.9654 121.616C74.9654 122.3 75.5174 122.804 76.1534 122.804C76.8134 122.804 77.3294 122.324 77.3294 121.616C77.3294 120.908 76.7894 120.428 76.1534 120.428C75.4934 120.428 74.9654 120.908 74.9654 121.616ZM79.7294 127.472C79.3094 127.088 79.1054 126.596 79.1054 125.996C79.1054 125.396 79.3094 124.904 79.7294 124.52C80.1494 124.148 80.6654 123.956 81.3014 123.956C81.9254 123.956 82.4414 124.148 82.8614 124.52C83.2814 124.904 83.4854 125.396 83.4854 125.996C83.4854 126.584 83.2814 127.076 82.8614 127.46C82.4414 127.856 81.9254 128.048 81.3014 128.048C80.6654 128.048 80.1494 127.856 79.7294 127.472ZM80.1134 125.996C80.1134 126.68 80.6654 127.184 81.3014 127.184C81.9614 127.184 82.4774 126.704 82.4774 125.996C82.4774 125.288 81.9374 124.808 81.3014 124.808C80.6414 124.808 80.1134 125.288 80.1134 125.996Z" fill="#1A3341"/>
<path d="M106.139 91.832L105.755 90.932L108.635 89.552H109.319V98H108.287V90.836L106.139 91.832ZM111.81 92.372L110.934 92.06C111.234 90.572 112.362 89.504 114.15 89.504C115.878 89.504 116.934 90.5 116.934 92.024C116.934 92.828 116.586 93.632 116.154 94.208C115.938 94.508 115.662 94.796 115.338 95.096C114.678 95.684 114.21 95.996 113.526 96.428L112.602 97.004H117.246V98H110.706V97.184L112.53 95.972C112.854 95.768 113.082 95.612 113.214 95.516C113.346 95.432 113.562 95.276 113.85 95.072C114.138 94.868 114.354 94.688 114.498 94.556C114.63 94.424 114.81 94.256 115.014 94.04C115.566 93.44 115.77 92.888 115.83 92.132C115.83 91.04 115.122 90.548 114.078 90.548C113.43 90.548 112.914 90.728 112.542 91.088C112.17 91.448 111.918 91.88 111.81 92.372ZM120.165 98.18L119.373 97.724L125.577 89.336L126.333 89.888L120.165 98.18ZM118.077 91.616C118.077 91.016 118.281 90.524 118.701 90.14C119.121 89.756 119.637 89.564 120.273 89.564C120.897 89.564 121.413 89.756 121.833 90.14C122.253 90.524 122.457 91.016 122.457 91.616C122.457 92.204 122.253 92.696 121.833 93.08C121.413 93.464 120.897 93.656 120.273 93.656C119.637 93.656 119.121 93.464 118.701 93.08C118.281 92.696 118.077 92.204 118.077 91.616ZM119.085 91.616C119.085 92.3 119.637 92.804 120.273 92.804C120.933 92.804 121.449 92.324 121.449 91.616C121.449 90.908 120.909 90.428 120.273 90.428C119.613 90.428 119.085 90.908 119.085 91.616ZM123.849 97.472C123.429 97.088 123.225 96.596 123.225 95.996C123.225 95.396 123.429 94.904 123.849 94.52C124.269 94.148 124.785 93.956 125.421 93.956C126.045 93.956 126.561 94.148 126.981 94.52C127.401 94.904 127.605 95.396 127.605 95.996C127.605 96.584 127.401 97.076 126.981 97.46C126.561 97.856 126.045 98.048 125.421 98.048C124.785 98.048 124.269 97.856 123.849 97.472ZM124.233 95.996C124.233 96.68 124.785 97.184 125.421 97.184C126.081 97.184 126.597 96.704 126.597 95.996C126.597 95.288 126.057 94.808 125.421 94.808C124.761 94.808 124.233 95.288 124.233 95.996Z" fill="#1A3341"/>
<path d="M141.287 208.163V211.011H121.799V208.451L131.047 203.107C132.86 202.061 134.204 201.219 135.079 200.579C135.954 199.917 136.54 199.309 136.839 198.755C137.159 198.2 137.319 197.539 137.319 196.771V196.451C137.319 195.213 136.796 194.264 135.751 193.603C134.727 192.941 133.244 192.611 131.303 192.611C129.298 192.611 127.772 192.963 126.727 193.667C125.703 194.371 125.191 195.395 125.191 196.739V197.379H121.991V196.707C121.991 194.424 122.791 192.675 124.391 191.459C125.991 190.243 128.274 189.635 131.239 189.635C134.14 189.635 136.412 190.232 138.055 191.427C139.698 192.621 140.519 194.264 140.519 196.355V196.675C140.519 197.805 140.295 198.797 139.847 199.651C139.399 200.504 138.62 201.368 137.511 202.243C136.423 203.117 134.823 204.163 132.711 205.379L127.847 208.163H141.287ZM155.555 211.395C153.422 211.395 151.534 211.011 149.891 210.243C148.27 209.475 147.001 208.397 146.083 207.011C145.187 205.624 144.739 204.035 144.739 202.243V198.819C144.739 197.005 145.187 195.405 146.083 194.019C147.001 192.632 148.27 191.555 149.891 190.787C151.534 190.019 153.422 189.635 155.555 189.635C157.667 189.635 159.534 190.019 161.155 190.787C162.777 191.555 164.035 192.632 164.931 194.019C165.827 195.405 166.275 197.005 166.275 198.819V202.243C166.275 204.056 165.827 205.656 164.931 207.043C164.035 208.408 162.777 209.475 161.155 210.243C159.534 211.011 157.667 211.395 155.555 211.395ZM155.555 208.419C157.902 208.419 159.747 207.875 161.091 206.787C162.435 205.699 163.107 204.195 163.107 202.275V198.787C163.107 196.888 162.425 195.384 161.059 194.275C159.715 193.165 157.87 192.611 155.523 192.611C153.155 192.611 151.289 193.165 149.923 194.275C148.579 195.363 147.907 196.867 147.907 198.787V202.275C147.907 204.195 148.579 205.699 149.923 206.787C151.289 207.875 153.166 208.419 155.555 208.419ZM189.68 208.163V211.011H170.192V208.451L179.44 203.107C181.253 202.061 182.597 201.219 183.472 200.579C184.346 199.917 184.933 199.309 185.232 198.755C185.552 198.2 185.712 197.539 185.712 196.771V196.451C185.712 195.213 185.189 194.264 184.144 193.603C183.12 192.941 181.637 192.611 179.696 192.611C177.69 192.611 176.165 192.963 175.12 193.667C174.096 194.371 173.584 195.395 173.584 196.739V197.379H170.384V196.707C170.384 194.424 171.184 192.675 172.784 191.459C174.384 190.243 176.666 189.635 179.632 189.635C182.533 189.635 184.805 190.232 186.448 191.427C188.09 192.621 188.912 194.264 188.912 196.355V196.675C188.912 197.805 188.688 198.797 188.24 199.651C187.792 200.504 187.013 201.368 185.904 202.243C184.816 203.117 183.216 204.163 181.104 205.379L176.24 208.163H189.68ZM204.652 198.339C207.489 198.424 209.654 198.989 211.148 200.035C212.662 201.059 213.42 202.488 213.42 204.323V204.739C213.42 206.893 212.556 208.547 210.828 209.699C209.1 210.829 206.582 211.395 203.276 211.395C200.054 211.373 197.558 210.808 195.788 209.699C194.038 208.589 193.164 207.021 193.164 204.995V204.771H196.332V204.995C196.332 206.061 196.95 206.904 198.188 207.523C199.425 208.12 201.132 208.419 203.308 208.419C205.59 208.419 207.318 208.12 208.492 207.523C209.665 206.904 210.252 205.997 210.252 204.803V204.419C210.252 202.179 207.969 201.059 203.404 201.059H199.948V198.243L207.852 192.867H193.548V190.019H212.908V192.867L204.652 198.339Z" fill="#1A3341"/>
<path d="M168 98C192.434 98 216.103 106.521 234.93 122.096C253.756 137.671 266.562 159.324 271.14 183.325C275.719 207.326 271.783 232.173 260.012 253.584C248.241 274.996 229.371 291.632 206.653 300.627L202.015 288.911C222.007 280.996 238.612 266.356 248.971 247.514C259.329 228.672 262.792 206.807 258.763 185.686C254.734 164.565 243.465 145.51 226.898 131.805C210.331 118.099 189.502 110.6 168 110.6V98Z" fill="url(#paint0_linear_4001_19857)"/>
<path d="M206.688 300.613C183.974 309.615 158.83 310.415 135.589 302.873L139.479 290.888C159.931 297.525 182.057 296.822 202.046 288.899L206.688 300.613Z" fill="url(#paint1_linear_4001_19857)"/>
<path d="M83.0589 264.725C71.3458 248.607 64.4607 229.488 63.2078 209.603L75.7829 208.81C76.8854 226.309 82.9443 243.134 93.2518 257.318L83.0589 264.725Z" fill="url(#paint2_linear_4001_19857)"/>
<path d="M135.57 302.866C114.48 296.018 96.0998 282.668 83.0634 264.731L93.2558 257.324C104.728 273.108 120.902 284.856 139.461 290.882L135.57 302.866Z" fill="url(#paint3_linear_4001_19857)"/>
<path d="M63.2062 209.577C62.6545 200.786 63.2111 191.961 64.8629 183.309L77.2393 185.672C75.7858 193.285 75.2959 201.052 75.7814 208.788L63.2062 209.577Z" fill="url(#paint4_linear_4001_19857)"/>
<path d="M73.0159 158.245C75.83 152.272 79.2012 146.579 83.0846 141.239L93.2745 148.651C89.857 153.349 86.8904 158.36 84.414 163.616L73.0159 158.245Z" fill="url(#paint5_linear_4001_19857)"/>
<path d="M64.8698 183.273C66.5246 174.622 69.2615 166.213 73.0158 158.245L84.4139 163.616C81.1101 170.627 78.7017 178.027 77.2454 185.64L64.8698 183.273Z" fill="url(#paint6_linear_4001_19857)"/>
<path d="M83.0839 141.24C86.9673 135.901 91.3456 130.94 96.1607 126.423L104.781 135.612C100.544 139.587 96.6912 143.953 93.2739 148.651L83.0839 141.24Z" fill="#AECEE5"/>
<path d="M96.167 126.417C115.646 108.146 141.355 97.9845 168.061 98L168.054 110.6C144.552 110.586 121.928 119.529 104.787 135.607L96.167 126.417Z" fill="#DBE9EE"/>
<rect y="2" width="10" height="10" fill="#4545CE"/>
<path d="M19.98 11H18.888V2.6H24.864V3.62H19.98V11ZM28.4751 9.212L29.1231 9.812C28.5471 10.676 27.7191 11.108 26.6271 11.108C25.6311 11.108 24.8271 10.808 24.2151 10.22C23.6031 9.632 23.3031 8.852 23.3031 7.868C23.3031 6.92 23.5791 6.14 24.1431 5.528C24.6951 4.916 25.4751 4.616 26.4831 4.616C27.3111 4.616 28.0071 4.88 28.5471 5.396C29.0871 5.912 29.3631 6.596 29.3631 7.448C29.3631 7.724 29.3391 7.976 29.3031 8.204H24.3831C24.4431 9.44 25.3551 10.16 26.6631 10.16C27.3951 10.16 28.0911 9.776 28.4751 9.212ZM26.4111 5.54C25.2711 5.54 24.5271 6.236 24.3711 7.292H28.2951C28.2351 6.188 27.5271 5.54 26.4111 5.54ZM31.3711 13.4H30.3631V4.76H31.3711V5.54C31.7911 4.928 32.4631 4.616 33.3871 4.616C34.2991 4.616 35.0311 4.904 35.5711 5.492C36.1111 6.08 36.3751 6.836 36.3751 7.772C36.3751 8.732 36.0871 9.524 35.5111 10.16C34.9231 10.796 34.1791 11.108 33.2671 11.108C32.4271 11.108 31.7911 10.892 31.3711 10.472V13.4ZM33.2791 5.564C32.3671 5.564 31.6591 6.152 31.3711 6.86V9.188C31.7311 9.836 32.3311 10.16 33.1831 10.16C33.7951 10.16 34.3111 9.944 34.7071 9.512C35.1031 9.08 35.3071 8.528 35.3071 7.844C35.3071 6.452 34.5271 5.564 33.2791 5.564ZM38.3761 11H37.3681V4.76H38.2921L40.5961 7.808L42.8401 4.76H43.7041V11H42.6961V6.536L40.5841 9.416L38.3761 6.536V11ZM45.5328 6.26L45.0168 5.504C45.5928 4.964 46.5888 4.616 47.5128 4.616C49.1808 4.616 50.0688 5.528 50.0688 7.148V11H49.0608V10.076C48.6648 10.652 47.8848 11.084 46.8768 11.084C45.5208 11.084 44.6088 10.328 44.6088 9.176C44.6088 7.868 45.7248 7.244 47.5968 7.244C48.1848 7.244 48.6648 7.304 49.0608 7.424C49.0608 6.212 48.6288 5.564 47.3928 5.564C46.7688 5.564 46.1448 5.792 45.5328 6.26ZM47.1168 10.172C47.5848 10.172 48.0048 10.04 48.3528 9.788C48.7008 9.536 48.9288 9.248 49.0608 8.948V8.312C48.7128 8.192 48.2688 8.132 47.7288 8.132C46.3608 8.132 45.6768 8.468 45.6768 9.14C45.6768 9.776 46.2528 10.172 47.1168 10.172ZM56.9589 11H55.9509V8.3H52.3509V11H51.3429V4.76H52.3509V7.352H55.9509V4.76H56.9589V11ZM63.0291 6.332L59.2251 11H58.3011V4.76H59.3091V9.44L63.1011 4.76H64.0371V11H63.0291V6.332ZM67.8604 4.76H70.3684V11H69.3604V8.792H67.8364L65.9884 11H64.7644L66.7564 8.636C65.7964 8.456 65.1604 7.724 65.1604 6.764C65.1604 5.576 65.9884 4.76 67.8604 4.76ZM66.2284 6.788C66.2284 7.4 66.8044 7.832 67.7164 7.832H69.3604V5.72H67.7404C66.7324 5.72 66.2284 6.08 66.2284 6.788Z" fill="#76848D"/>
<rect y="26" width="10" height="10" fill="#737AF9"/>
<path d="M23.676 35.18H22.584V34.16H22.524C21.228 34.16 20.208 33.848 19.464 33.212C18.708 32.588 18.336 31.748 18.336 30.68C18.336 29.564 18.72 28.712 19.5 28.1C20.268 27.5 21.3 27.2 22.584 27.2V26.42H23.676V27.2C24.9 27.2 25.92 27.5 26.724 28.1C27.528 28.7 27.924 29.564 27.924 30.68C27.924 31.748 27.552 32.588 26.796 33.212C26.04 33.848 25.02 34.16 23.736 34.16H23.676V35.18ZM23.7 28.208H23.676V33.152H23.736C25.656 33.152 26.796 32.264 26.796 30.68C26.796 29.108 25.728 28.208 23.7 28.208ZM19.464 30.68C19.464 32.18 20.58 33.152 22.536 33.152H22.584V28.208C20.7 28.208 19.464 29.048 19.464 30.68ZM29.8856 37.4H28.8776V28.76H29.8856V29.54C30.3056 28.928 30.9776 28.616 31.9016 28.616C32.8136 28.616 33.5456 28.904 34.0856 29.492C34.6256 30.08 34.8896 30.836 34.8896 31.772C34.8896 32.732 34.6016 33.524 34.0256 34.16C33.4376 34.796 32.6936 35.108 31.7816 35.108C30.9416 35.108 30.3056 34.892 29.8856 34.472V37.4ZM31.7936 29.564C30.8816 29.564 30.1736 30.152 29.8856 30.86V33.188C30.2456 33.836 30.8456 34.16 31.6976 34.16C32.3096 34.16 32.8256 33.944 33.2216 33.512C33.6176 33.08 33.8216 32.528 33.8216 31.844C33.8216 30.452 33.0416 29.564 31.7936 29.564ZM36.3626 30.26L35.8466 29.504C36.4226 28.964 37.4186 28.616 38.3426 28.616C40.0106 28.616 40.8986 29.528 40.8986 31.148V35H39.8906V34.076C39.4946 34.652 38.7146 35.084 37.7066 35.084C36.3506 35.084 35.4386 34.328 35.4386 33.176C35.4386 31.868 36.5546 31.244 38.4266 31.244C39.0146 31.244 39.4946 31.304 39.8906 31.424C39.8906 30.212 39.4586 29.564 38.2226 29.564C37.5986 29.564 36.9746 29.792 36.3626 30.26ZM37.9466 34.172C38.4146 34.172 38.8346 34.04 39.1826 33.788C39.5306 33.536 39.7586 33.248 39.8906 32.948V32.312C39.5426 32.192 39.0986 32.132 38.5586 32.132C37.1906 32.132 36.5066 32.468 36.5066 33.14C36.5066 33.776 37.0826 34.172 37.9466 34.172ZM47.7888 35H46.7808V32.3H43.1808V35H42.1728V28.76H43.1808V31.352H46.7808V28.76H47.7888V35ZM54.5669 35H49.1309V28.76H50.1389V34.04H53.6309V28.76H54.6389V34.04H55.5149V36.512H54.5669V35ZM61.0045 30.332L57.2005 35H56.2765V28.76H57.2845V33.44L61.0765 28.76H62.0125V35H61.0045V30.332ZM65.8358 28.76H68.3438V35H67.3358V32.792H65.8118L63.9638 35H62.7398L64.7318 32.636C63.7718 32.456 63.1358 31.724 63.1358 30.764C63.1358 29.576 63.9638 28.76 65.8358 28.76ZM64.2038 30.788C64.2038 31.4 64.7798 31.832 65.6918 31.832H67.3358V29.72H65.7158C64.7078 29.72 64.2038 30.08 64.2038 30.788Z" fill="#76848D"/>
<rect y="50" width="10" height="10" fill="#CDD3FB"/>
<path d="M26.076 58H24.984V54.244H19.98V58H18.888V49.6H19.98V53.224H24.984V49.6H26.076V58ZM32.3048 53.332L28.5008 58H27.5768V51.76H28.5848V56.44L32.3768 51.76H33.3128V58H32.3048V53.332ZM34.9282 59.512H33.9682V57.04H34.6642C35.3002 56.068 35.5402 54.7 35.5402 52.336V51.76H40.1242V57.04H41.0242V59.512H40.0642V58H34.9282V59.512ZM39.1162 52.72H36.4882V53.152C36.4882 54.748 36.2362 56.044 35.7442 57.04H39.1162V52.72ZM46.5983 56.212L47.2463 56.812C46.6703 57.676 45.8423 58.108 44.7503 58.108C43.7543 58.108 42.9503 57.808 42.3383 57.22C41.7263 56.632 41.4263 55.852 41.4263 54.868C41.4263 53.92 41.7023 53.14 42.2663 52.528C42.8183 51.916 43.5983 51.616 44.6063 51.616C45.4343 51.616 46.1303 51.88 46.6703 52.396C47.2103 52.912 47.4863 53.596 47.4863 54.448C47.4863 54.724 47.4623 54.976 47.4263 55.204H42.5063C42.5663 56.44 43.4783 57.16 44.7863 57.16C45.5183 57.16 46.2143 56.776 46.5983 56.212ZM44.5343 52.54C43.3943 52.54 42.6503 53.236 42.4943 54.292H46.4183C46.3583 53.188 45.6503 52.54 44.5343 52.54ZM49.4944 60.4H48.4864V51.76H49.4944V52.54C49.9144 51.928 50.5864 51.616 51.5104 51.616C52.4224 51.616 53.1544 51.904 53.6944 52.492C54.2344 53.08 54.4984 53.836 54.4984 54.772C54.4984 55.732 54.2104 56.524 53.6344 57.16C53.0464 57.796 52.3024 58.108 51.3904 58.108C50.5504 58.108 49.9144 57.892 49.4944 57.472V60.4ZM51.4024 52.564C50.4904 52.564 49.7824 53.152 49.4944 53.86V56.188C49.8544 56.836 50.4544 57.16 51.3064 57.16C51.9184 57.16 52.4344 56.944 52.8304 56.512C53.2264 56.08 53.4304 55.528 53.4304 54.844C53.4304 53.452 52.6504 52.564 51.4024 52.564ZM60.7748 58H59.7668V52.72H57.1268V53.008C57.1268 55.024 56.8988 56.416 56.4428 57.136C55.9868 57.856 55.4228 58.096 54.6428 58V57.04C55.4468 57.04 56.1188 56.692 56.1188 53.044V51.76H60.7748V58ZM62.6014 53.26L62.0854 52.504C62.6614 51.964 63.6574 51.616 64.5814 51.616C66.2494 51.616 67.1374 52.528 67.1374 54.148V58H66.1294V57.076C65.7334 57.652 64.9534 58.084 63.9454 58.084C62.5894 58.084 61.6774 57.328 61.6774 56.176C61.6774 54.868 62.7934 54.244 64.6654 54.244C65.2534 54.244 65.7334 54.304 66.1294 54.424C66.1294 53.212 65.6974 52.564 64.4614 52.564C63.8374 52.564 63.2134 52.792 62.6014 53.26ZM64.1854 57.172C64.6534 57.172 65.0734 57.04 65.4214 56.788C65.7694 56.536 65.9974 56.248 66.1294 55.948V55.312C65.7814 55.192 65.3374 55.132 64.7974 55.132C63.4294 55.132 62.7454 55.468 62.7454 56.14C62.7454 56.776 63.3214 57.172 64.1854 57.172ZM74.0275 58H73.0195V55.3H69.4195V58H68.4115V51.76H69.4195V54.352H73.0195V51.76H74.0275V58ZM75.6457 59.512H74.6857V57.04H75.3817C76.0177 56.068 76.2577 54.7 76.2577 52.336V51.76H80.8417V57.04H81.7417V59.512H80.7817V58H75.6457V59.512ZM79.8337 52.72H77.2057V53.152C77.2057 54.748 76.9537 56.044 76.4617 57.04H79.8337V52.72ZM84.7478 58H82.4918V51.76H83.4998V53.704H84.8438C86.6798 53.704 87.4118 54.556 87.4118 55.84C87.4118 57.1 86.6078 58 84.7478 58ZM84.7358 54.664H83.4998V57.04H84.7238C85.8758 57.04 86.3438 56.632 86.3438 55.852C86.3438 55.06 85.8038 54.664 84.7358 54.664ZM89.3198 58H88.2998V51.76H89.3198V58Z" fill="#1A3341" fill-opacity="0.6"/>
<rect x="116" y="2" width="10" height="10" fill="#CDD8F3"/>
<path d="M140.912 4.496L135.812 11H134.888V2.6H135.98V9.104L141.068 2.6H142.004V11H140.912V4.496ZM145.186 5.708H142.798V4.76H148.606V5.708H146.194V11H145.186V5.708ZM149.503 6.26L148.987 5.504C149.563 4.964 150.559 4.616 151.483 4.616C153.151 4.616 154.039 5.528 154.039 7.148V11H153.031V10.076C152.635 10.652 151.855 11.084 150.847 11.084C149.491 11.084 148.579 10.328 148.579 9.176C148.579 7.868 149.695 7.244 151.567 7.244C152.155 7.244 152.635 7.304 153.031 7.424C153.031 6.212 152.599 5.564 151.363 5.564C150.739 5.564 150.115 5.792 149.503 6.26ZM151.087 10.172C151.555 10.172 151.975 10.04 152.323 9.788C152.671 9.536 152.899 9.248 153.031 8.948V8.312C152.683 8.192 152.239 8.132 151.699 8.132C150.331 8.132 149.647 8.468 149.647 9.14C149.647 9.776 150.223 10.172 151.087 10.172ZM160.737 11H159.729V5.72H157.089V6.008C157.089 8.024 156.861 9.416 156.405 10.136C155.949 10.856 155.385 11.096 154.605 11V10.04C155.409 10.04 156.081 9.692 156.081 6.044V4.76H160.737V11ZM166.812 6.332L163.008 11H162.084V4.76H163.092V9.44L166.884 4.76H167.82V11H166.812V6.332ZM171.643 4.76H174.151V11H173.143V8.792H171.619L169.771 11H168.547L170.539 8.636C169.579 8.456 168.943 7.724 168.943 6.764C168.943 5.576 169.771 4.76 171.643 4.76ZM170.011 6.788C170.011 7.4 170.587 7.832 171.499 7.832H173.143V5.72H171.523C170.515 5.72 170.011 6.08 170.011 6.788Z" fill="#76848D"/>
<rect x="116" y="26" width="10" height="10" fill="#5A7FE0"/>
<path d="M140.912 28.496L135.812 35H134.888V26.6H135.98V33.104L141.068 26.6H142.004V35H140.912V28.496ZM144.526 37.4H143.518V28.76H144.526V29.54C144.946 28.928 145.618 28.616 146.542 28.616C147.454 28.616 148.186 28.904 148.726 29.492C149.266 30.08 149.53 30.836 149.53 31.772C149.53 32.732 149.242 33.524 148.666 34.16C148.078 34.796 147.334 35.108 146.422 35.108C145.582 35.108 144.946 34.892 144.526 34.472V37.4ZM146.434 29.564C145.522 29.564 144.814 30.152 144.526 30.86V33.188C144.886 33.836 145.486 34.16 146.338 34.16C146.95 34.16 147.466 33.944 147.862 33.512C148.258 33.08 148.462 32.528 148.462 31.844C148.462 30.452 147.682 29.564 146.434 29.564ZM155.807 35H154.799V29.72H152.159V30.008C152.159 32.024 151.931 33.416 151.475 34.136C151.019 34.856 150.455 35.096 149.675 35V34.04C150.479 34.04 151.151 33.692 151.151 30.044V28.76H155.807V35ZM157.633 30.26L157.117 29.504C157.693 28.964 158.689 28.616 159.613 28.616C161.281 28.616 162.169 29.528 162.169 31.148V35H161.161V34.076C160.765 34.652 159.985 35.084 158.977 35.084C157.621 35.084 156.709 34.328 156.709 33.176C156.709 31.868 157.825 31.244 159.697 31.244C160.285 31.244 160.765 31.304 161.161 31.424C161.161 30.212 160.729 29.564 159.493 29.564C158.869 29.564 158.245 29.792 157.633 30.26ZM159.217 34.172C159.685 34.172 160.105 34.04 160.453 33.788C160.801 33.536 161.029 33.248 161.161 32.948V32.312C160.813 32.192 160.369 32.132 159.829 32.132C158.461 32.132 157.777 32.468 157.777 33.14C157.777 33.776 158.353 34.172 159.217 34.172ZM169.059 35H168.051V32.3H164.451V35H163.443V28.76H164.451V31.352H168.051V28.76H169.059V35ZM170.678 36.512H169.718V34.04H170.414C171.05 33.068 171.29 31.7 171.29 29.336V28.76H175.874V34.04H176.774V36.512H175.814V35H170.678V36.512ZM174.866 29.72H172.238V30.152C172.238 31.748 171.986 33.044 171.494 34.04H174.866V29.72ZM182.252 30.332L178.448 35H177.524V28.76H178.532V33.44L182.324 28.76H183.26V35H182.252V30.332ZM187.083 28.76H189.591V35H188.583V32.792H187.059L185.211 35H183.987L185.979 32.636C185.019 32.456 184.383 31.724 184.383 30.764C184.383 29.576 185.211 28.76 187.083 28.76ZM185.451 30.788C185.451 31.4 186.027 31.832 186.939 31.832H188.583V29.72H186.963C185.955 29.72 185.451 30.08 185.451 30.788Z" fill="#1A3341" fill-opacity="0.6"/>
<rect x="116" y="50" width="10" height="10" fill="#96C5F4"/>
<path d="M134.888 50.6H140.888V51.62H135.98V54.032H138.476C140.456 54.032 141.512 54.884 141.512 56.432C141.512 58.16 140.3 59 138.152 59H134.888V50.6ZM138.308 55.052H135.98V57.98H138.236C139.664 57.98 140.384 57.464 140.384 56.444C140.384 55.52 139.688 55.052 138.308 55.052ZM147.358 57.212L148.006 57.812C147.43 58.676 146.602 59.108 145.51 59.108C144.514 59.108 143.71 58.808 143.098 58.22C142.486 57.632 142.186 56.852 142.186 55.868C142.186 54.92 142.462 54.14 143.026 53.528C143.578 52.916 144.358 52.616 145.366 52.616C146.194 52.616 146.89 52.88 147.43 53.396C147.97 53.912 148.246 54.596 148.246 55.448C148.246 55.724 148.222 55.976 148.186 56.204H143.266C143.326 57.44 144.238 58.16 145.546 58.16C146.278 58.16 146.974 57.776 147.358 57.212ZM145.294 53.54C144.154 53.54 143.41 54.236 143.254 55.292H147.178C147.118 54.188 146.41 53.54 145.294 53.54ZM154.529 59H153.521V53.72H150.881V54.008C150.881 56.024 150.653 57.416 150.197 58.136C149.741 58.856 149.177 59.096 148.397 59V58.04C149.201 58.04 149.873 57.692 149.873 54.044V52.76H154.529V59ZM158.396 59H155.876V52.76H156.884V54.704H158.492C160.196 54.704 161.048 55.412 161.048 56.84C161.048 58.1 160.256 59 158.396 59ZM158.36 55.664H156.884V58.04H158.36C159.512 58.04 159.98 57.632 159.98 56.852C159.98 56.06 159.44 55.664 158.36 55.664ZM162.951 59H161.943V52.76H166.491V53.708H162.951V59ZM171.86 54.332L168.056 59H167.132V52.76H168.14V57.44L171.932 52.76H172.868V59H171.86V54.332ZM176.691 52.76H179.199V59H178.191V56.792H176.667L174.819 59H173.595L175.587 56.636C174.627 56.456 173.991 55.724 173.991 54.764C173.991 53.576 174.819 52.76 176.691 52.76ZM175.059 54.788C175.059 55.4 175.635 55.832 176.547 55.832H178.191V53.72H176.571C175.563 53.72 175.059 54.08 175.059 54.788Z" fill="#76848D"/>
<rect x="232" y="2" width="10" height="10" fill="#CEE3F8"/>
<path d="M256.912 3.496L251.812 10H250.888V1.6H251.98V8.104L257.068 1.6H258.004V10H256.912V3.496ZM264.354 8.2L265.074 8.716C264.606 9.592 263.55 10.108 262.506 10.108C261.51 10.108 260.706 9.808 260.094 9.22C259.482 8.632 259.17 7.852 259.17 6.868C259.17 5.932 259.47 5.152 260.082 4.54C260.694 3.928 261.474 3.616 262.446 3.616C263.562 3.616 264.558 4.12 264.978 4.888L264.198 5.416C263.778 4.852 263.202 4.564 262.47 4.564C261.822 4.564 261.294 4.78 260.874 5.212C260.454 5.644 260.238 6.196 260.238 6.868C260.238 7.552 260.454 8.104 260.898 8.524C261.33 8.944 261.894 9.16 262.602 9.16C263.346 9.16 263.934 8.836 264.354 8.2ZM271.329 10H270.321V4.708H266.793V10H265.785V3.76H271.329V10ZM273.153 5.26L272.637 4.504C273.213 3.964 274.209 3.616 275.133 3.616C276.801 3.616 277.689 4.528 277.689 6.148V10H276.681V9.076C276.285 9.652 275.505 10.084 274.497 10.084C273.141 10.084 272.229 9.328 272.229 8.176C272.229 6.868 273.345 6.244 275.217 6.244C275.805 6.244 276.285 6.304 276.681 6.424C276.681 5.212 276.249 4.564 275.013 4.564C274.389 4.564 273.765 4.792 273.153 5.26ZM274.737 9.172C275.205 9.172 275.625 9.04 275.973 8.788C276.321 8.536 276.549 8.248 276.681 7.948V7.312C276.333 7.192 275.889 7.132 275.349 7.132C273.981 7.132 273.297 7.468 273.297 8.14C273.297 8.776 273.873 9.172 274.737 9.172ZM284.579 10H283.571V7.3H279.971V10H278.963V3.76H279.971V6.352H283.571V3.76H284.579V10ZM290.649 5.332L286.845 10H285.921V3.76H286.929V8.44L290.721 3.76H291.657V10H290.649V5.332ZM295.48 3.76H297.988V10H296.98V7.792H295.456L293.608 10H292.384L294.376 7.636C293.416 7.456 292.78 6.724 292.78 5.764C292.78 4.576 293.608 3.76 295.48 3.76ZM293.848 5.788C293.848 6.4 294.424 6.832 295.336 6.832H296.98V4.72H295.36C294.352 4.72 293.848 5.08 293.848 5.788Z" fill="#1A3341" fill-opacity="0.6"/>
<rect x="232" y="25" width="10" height="10" fill="#AECEE5"/>
<path d="M260.404 34H250.888V25.6H251.98V32.98H255.1V25.6H256.192V32.98H259.312V25.6H260.404V34ZM264.693 34H261.909V27.76H264.501C266.241 27.76 267.057 28.204 267.057 29.356C267.057 29.932 266.793 30.388 266.253 30.712C266.925 30.916 267.261 31.408 267.261 32.212C267.261 33.376 266.337 34 264.693 34ZM264.705 31.276H262.917V33.064H264.585C265.653 33.064 266.193 32.764 266.193 32.164C266.193 31.576 265.701 31.276 264.705 31.276ZM264.465 28.696H262.917V30.364H264.813C265.545 30.364 265.989 30.064 265.989 29.5C265.989 28.864 265.473 28.696 264.465 28.696ZM273.093 32.212L273.741 32.812C273.165 33.676 272.337 34.108 271.245 34.108C270.249 34.108 269.445 33.808 268.833 33.22C268.221 32.632 267.921 31.852 267.921 30.868C267.921 29.92 268.197 29.14 268.761 28.528C269.313 27.916 270.093 27.616 271.101 27.616C271.929 27.616 272.625 27.88 273.165 28.396C273.705 28.912 273.981 29.596 273.981 30.448C273.981 30.724 273.957 30.976 273.921 31.204H269.001C269.061 32.44 269.973 33.16 271.281 33.16C272.013 33.16 272.709 32.776 273.093 32.212ZM271.029 28.54C269.889 28.54 269.145 29.236 268.989 30.292H272.913C272.853 29.188 272.145 28.54 271.029 28.54ZM280.417 34H274.981V27.76H275.989V33.04H279.481V27.76H280.489V33.04H281.365V35.512H280.417V34ZM286.855 29.332L283.051 34H282.127V27.76H283.135V32.44L286.927 27.76H287.863V34H286.855V29.332ZM291.686 27.76H294.194V34H293.186V31.792H291.662L289.814 34H288.59L290.582 31.636C289.622 31.456 288.986 30.724 288.986 29.764C288.986 28.576 289.814 27.76 291.686 27.76ZM290.054 29.788C290.054 30.4 290.63 30.832 291.542 30.832H293.186V28.72H291.566C290.558 28.72 290.054 29.08 290.054 29.788Z" fill="#1A3341" fill-opacity="0.6"/>
<rect x="232" y="49" width="10" height="10" fill="#DBE9EE"/>
<path d="M258.028 58H256.936V50.62H251.98V58H250.888V49.6H258.028V58ZM260.538 60.4H259.53V51.76H260.538V52.54C260.958 51.928 261.63 51.616 262.554 51.616C263.466 51.616 264.198 51.904 264.738 52.492C265.278 53.08 265.542 53.836 265.542 54.772C265.542 55.732 265.254 56.524 264.678 57.16C264.09 57.796 263.346 58.108 262.434 58.108C261.594 58.108 260.958 57.892 260.538 57.472V60.4ZM262.446 52.564C261.534 52.564 260.826 53.152 260.538 53.86V56.188C260.898 56.836 261.498 57.16 262.35 57.16C262.962 57.16 263.478 56.944 263.874 56.512C264.27 56.08 264.474 55.528 264.474 54.844C264.474 53.452 263.694 52.564 262.446 52.564ZM266.187 54.868C266.187 53.92 266.499 53.14 267.111 52.528C267.723 51.916 268.515 51.616 269.487 51.616C270.471 51.616 271.275 51.916 271.887 52.528C272.499 53.14 272.811 53.92 272.811 54.868C272.811 55.816 272.499 56.584 271.887 57.196C271.263 57.808 270.459 58.108 269.487 58.108C268.515 58.108 267.723 57.808 267.111 57.196C266.499 56.584 266.187 55.816 266.187 54.868ZM267.255 54.868C267.255 55.528 267.459 56.08 267.879 56.512C268.299 56.944 268.827 57.16 269.487 57.16C270.147 57.16 270.699 56.944 271.119 56.524C271.539 56.104 271.743 55.552 271.743 54.868C271.743 54.184 271.527 53.632 271.107 53.2C270.675 52.78 270.135 52.564 269.487 52.564C268.839 52.564 268.311 52.78 267.891 53.2C267.471 53.62 267.255 54.184 267.255 54.868ZM277.853 51.76H278.861V58H277.853V55.372C277.397 55.828 276.761 56.056 275.945 56.056C274.301 56.056 273.485 55.228 273.485 53.572V51.76H274.493V53.296C274.493 54.556 275.021 55.096 276.125 55.096C276.845 55.096 277.529 54.712 277.853 54.244V51.76ZM284.933 53.332L281.129 58H280.205V51.76H281.213V56.44L285.005 51.76H285.941V58H284.933V53.332ZM292.104 56.212L292.752 56.812C292.176 57.676 291.348 58.108 290.256 58.108C289.26 58.108 288.456 57.808 287.844 57.22C287.232 56.632 286.932 55.852 286.932 54.868C286.932 53.92 287.208 53.14 287.772 52.528C288.324 51.916 289.104 51.616 290.112 51.616C290.94 51.616 291.636 51.88 292.176 52.396C292.716 52.912 292.992 53.596 292.992 54.448C292.992 54.724 292.968 54.976 292.932 55.204H288.012C288.072 56.44 288.984 57.16 290.292 57.16C291.024 57.16 291.72 56.776 292.104 56.212ZM290.04 52.54C288.9 52.54 288.156 53.236 288 54.292H291.924C291.864 53.188 291.156 52.54 290.04 52.54Z" fill="#76848D"/>
<defs>
<linearGradient id="paint0_linear_4001_19857" x1="173.478" y1="82.4783" x2="273" y2="191.13" gradientUnits="userSpaceOnUse">
<stop offset="0" stop-color="#5358CC"/>
<stop offset="1" stop-color="#3B38CE"/>
</linearGradient>
<linearGradient id="paint1_linear_4001_19857" x1="187.63" y1="308" x2="-10.9565" y2="208.022" gradientUnits="userSpaceOnUse">
<stop offset="0" stop-color="#6D73F9"/>
<stop offset="1" stop-color="#9BB8F1"/>
</linearGradient>
<linearGradient id="paint2_linear_4001_19857" x1="131.022" y1="292.935" x2="181.239" y2="300.239" gradientUnits="userSpaceOnUse">
<stop offset="0" stop-color="#C9D2EA"/>
<stop offset="1" stop-color="#D1DCFB"/>
</linearGradient>
<linearGradient id="paint3_linear_4001_19857" x1="90.8479" y1="128.587" x2="150.196" y2="98" gradientUnits="userSpaceOnUse">
<stop offset="0" stop-color="#ACAEEA"/>
<stop offset="1" stop-color="#A4B9F0"/>
</linearGradient>
<linearGradient id="paint4_linear_4001_19857" x1="78.0652" y1="166.022" x2="117.783" y2="126.304" gradientUnits="userSpaceOnUse">
<stop offset="0" stop-color="#476DD3"/>
<stop offset="1" stop-color="#7094F1"/>
</linearGradient>
<linearGradient id="paint5_linear_4001_19857" x1="74.4131" y1="238.609" x2="76.6956" y2="194.783" gradientUnits="userSpaceOnUse">
<stop offset="0" stop-color="#CADFF3"/>
<stop offset="1" stop-color="#D2E6FE"/>
</linearGradient>
<linearGradient id="paint6_linear_4001_19857" x1="105" y1="136.348" x2="137.87" y2="116.717" gradientUnits="userSpaceOnUse">
<stop offset="0" stop-color="#A0CEF7"/>
<stop offset="1" stop-color="#7FB1EC"/>
</linearGradient>
</defs>
</svg>
