<svg width="322" height="452" viewBox="0 0 322 452" fill="none" xmlns="http://www.w3.org/2000/svg">
<rect y="2" width="10" height="10" fill="#737AF9"/>
<path d="M19.128 11H18.012L21.696 2.576H22.56L26.244 11H25.104L24.168 8.876H20.052L19.128 11ZM23.76 7.916L22.104 4.1L20.46 7.916H23.76ZM29.6577 11H26.8737V4.76H29.4657C31.2057 4.76 32.0217 5.204 32.0217 6.356C32.0217 6.932 31.7577 7.388 31.2177 7.712C31.8897 7.916 32.2257 8.408 32.2257 9.212C32.2257 10.376 31.3017 11 29.6577 11ZM29.6697 8.276H27.8817V10.064H29.5497C30.6177 10.064 31.1577 9.764 31.1577 9.164C31.1577 8.576 30.6657 8.276 29.6697 8.276ZM29.4297 5.696H27.8817V7.364H29.7777C30.5097 7.364 30.9537 7.064 30.9537 6.5C30.9537 5.864 30.4377 5.696 29.4297 5.696ZM37.9622 6.332L34.1582 11H33.2342V4.76H34.2422V9.44L38.0342 4.76H38.9702V11H37.9622V6.332ZM40.7895 6.26L40.2735 5.504C40.8495 4.964 41.8455 4.616 42.7695 4.616C44.4375 4.616 45.3255 5.528 45.3255 7.148V11H44.3175V10.076C43.9215 10.652 43.1415 11.084 42.1335 11.084C40.7775 11.084 39.8655 10.328 39.8655 9.176C39.8655 7.868 40.9815 7.244 42.8535 7.244C43.4415 7.244 43.9215 7.304 44.3175 7.424C44.3175 6.212 43.8855 5.564 42.6495 5.564C42.0255 5.564 41.4015 5.792 40.7895 6.26ZM42.3735 10.172C42.8415 10.172 43.2615 10.04 43.6095 9.788C43.9575 9.536 44.1855 9.248 44.3175 8.948V8.312C43.9695 8.192 43.5255 8.132 42.9855 8.132C41.6175 8.132 40.9335 8.468 40.9335 9.14C40.9335 9.776 41.5095 10.172 42.3735 10.172ZM52.1437 11H51.1357V5.708H47.6077V11H46.5997V4.76H52.1437V11ZM58.3115 9.212L58.9595 9.812C58.3835 10.676 57.5555 11.108 56.4635 11.108C55.4675 11.108 54.6635 10.808 54.0515 10.22C53.4395 9.632 53.1395 8.852 53.1395 7.868C53.1395 6.92 53.4155 6.14 53.9795 5.528C54.5315 4.916 55.3115 4.616 56.3195 4.616C57.1475 4.616 57.8435 4.88 58.3835 5.396C58.9235 5.912 59.1995 6.596 59.1995 7.448C59.1995 7.724 59.1755 7.976 59.1395 8.204H54.2195C54.2795 9.44 55.1915 10.16 56.4995 10.16C57.2315 10.16 57.9275 9.776 58.3115 9.212ZM56.2475 5.54C55.1075 5.54 54.3635 6.236 54.2075 7.292H58.1315C58.0715 6.188 57.3635 5.54 56.2475 5.54ZM61.2075 13.4H60.1995V4.76H61.2075V5.54C61.6275 4.928 62.2995 4.616 63.2235 4.616C64.1355 4.616 64.8675 4.904 65.4075 5.492C65.9475 6.08 66.2115 6.836 66.2115 7.772C66.2115 8.732 65.9235 9.524 65.3475 10.16C64.7595 10.796 64.0155 11.108 63.1035 11.108C62.2635 11.108 61.6275 10.892 61.2075 10.472V13.4ZM63.1155 5.564C62.2035 5.564 61.4955 6.152 61.2075 6.86V9.188C61.5675 9.836 62.1675 10.16 63.0195 10.16C63.6315 10.16 64.1475 9.944 64.5435 9.512C64.9395 9.08 65.1435 8.528 65.1435 7.844C65.1435 6.452 64.3635 5.564 63.1155 5.564ZM72.0285 9.212L72.6765 9.812C72.1005 10.676 71.2725 11.108 70.1805 11.108C69.1845 11.108 68.3805 10.808 67.7685 10.22C67.1565 9.632 66.8565 8.852 66.8565 7.868C66.8565 6.92 67.1325 6.14 67.6965 5.528C68.2485 4.916 69.0285 4.616 70.0365 4.616C70.8645 4.616 71.5605 4.88 72.1005 5.396C72.6405 5.912 72.9165 6.596 72.9165 7.448C72.9165 7.724 72.8925 7.976 72.8565 8.204H67.9365C67.9965 9.44 68.9085 10.16 70.2165 10.16C70.9485 10.16 71.6445 9.776 72.0285 9.212ZM69.9645 5.54C68.8245 5.54 68.0805 6.236 67.9245 7.292H71.8485C71.7885 6.188 71.0805 5.54 69.9645 5.54ZM76.7005 11H73.9165V4.76H76.5085C78.2485 4.76 79.0645 5.204 79.0645 6.356C79.0645 6.932 78.8005 7.388 78.2605 7.712C78.9325 7.916 79.2685 8.408 79.2685 9.212C79.2685 10.376 78.3445 11 76.7005 11ZM76.7125 8.276H74.9245V10.064H76.5925C77.6605 10.064 78.2005 9.764 78.2005 9.164C78.2005 8.576 77.7085 8.276 76.7125 8.276ZM76.4725 5.696H74.9245V7.364H76.8205C77.5525 7.364 77.9965 7.064 77.9965 6.5C77.9965 5.864 77.4805 5.696 76.4725 5.696ZM79.929 7.868C79.929 6.92 80.241 6.14 80.853 5.528C81.465 4.916 82.257 4.616 83.229 4.616C84.213 4.616 85.017 4.916 85.629 5.528C86.241 6.14 86.553 6.92 86.553 7.868C86.553 8.816 86.241 9.584 85.629 10.196C85.005 10.808 84.201 11.108 83.229 11.108C82.257 11.108 81.465 10.808 80.853 10.196C80.241 9.584 79.929 8.816 79.929 7.868ZM80.997 7.868C80.997 8.528 81.201 9.08 81.621 9.512C82.041 9.944 82.569 10.16 83.229 10.16C83.889 10.16 84.441 9.944 84.861 9.524C85.281 9.104 85.485 8.552 85.485 7.868C85.485 7.184 85.269 6.632 84.849 6.2C84.417 5.78 83.877 5.564 83.229 5.564C82.581 5.564 82.053 5.78 81.633 6.2C81.213 6.62 80.997 7.184 80.997 7.868ZM89.8075 11.12C88.5235 11.12 87.5755 10.64 86.9875 9.692L87.7795 9.14C88.1275 9.776 88.8955 10.184 89.8195 10.184C90.8155 10.184 91.5235 9.776 91.5235 9.104C91.5235 8.552 91.1035 8.276 90.2755 8.276H88.8115V7.364H90.2035C90.8155 7.364 91.2955 7.004 91.2955 6.464C91.2955 5.876 90.6715 5.54 89.7715 5.54C89.0155 5.54 88.3915 5.828 87.9235 6.416L87.1795 5.924C87.5995 5.204 88.5595 4.604 89.8675 4.604C91.4395 4.604 92.3635 5.264 92.3635 6.308C92.3635 6.896 92.1115 7.352 91.6195 7.652C92.3395 8 92.5915 8.42 92.5915 9.08C92.5915 9.716 92.3275 10.208 91.8115 10.568C91.2955 10.94 90.6235 11.12 89.8075 11.12ZM94.6036 11H93.5956V4.76H94.6036V7.556L97.7596 4.76H99.1156L95.8876 7.628L99.2716 11H97.9276L95.1196 8.252L94.6036 8.732V11ZM104.52 6.332L100.716 11H99.792V4.76H100.8V9.44L104.592 4.76H105.528V11H104.52V6.332Z" fill="#76848D"/>
<rect y="26" width="10" height="10" fill="#8FB7EF"/>
<path d="M18.024 35L21.696 30.428L18.096 26.6H19.428L23.028 30.38V26.6H24.12V30.392L27.72 26.6H29.064L25.428 30.428L29.136 35H27.828L24.6 31.028L24.12 31.496V35H23.028V31.484L22.5 30.992L19.284 35H18.024ZM34.0415 33.212L34.6895 33.812C34.1135 34.676 33.2855 35.108 32.1935 35.108C31.1975 35.108 30.3935 34.808 29.7815 34.22C29.1695 33.632 28.8695 32.852 28.8695 31.868C28.8695 30.92 29.1455 30.14 29.7095 29.528C30.2615 28.916 31.0415 28.616 32.0495 28.616C32.8775 28.616 33.5735 28.88 34.1135 29.396C34.6535 29.912 34.9295 30.596 34.9295 31.448C34.9295 31.724 34.9055 31.976 34.8695 32.204H29.9495C30.0095 33.44 30.9215 34.16 32.2295 34.16C32.9615 34.16 33.6575 33.776 34.0415 33.212ZM31.9775 29.54C30.8375 29.54 30.0935 30.236 29.9375 31.292H33.8615C33.8015 30.188 33.0935 29.54 31.9775 29.54ZM41.2129 35H40.2049V29.72H37.5649V30.008C37.5649 32.024 37.3369 33.416 36.8809 34.136C36.4249 34.856 35.8609 35.096 35.0809 35V34.04C35.8849 34.04 36.5569 33.692 36.5569 30.044V28.76H41.2129V35ZM47.3835 33.212L48.0315 33.812C47.4555 34.676 46.6275 35.108 45.5355 35.108C44.5395 35.108 43.7355 34.808 43.1235 34.22C42.5115 33.632 42.2115 32.852 42.2115 31.868C42.2115 30.92 42.4875 30.14 43.0515 29.528C43.6035 28.916 44.3835 28.616 45.3915 28.616C46.2195 28.616 46.9155 28.88 47.4555 29.396C47.9955 29.912 48.2715 30.596 48.2715 31.448C48.2715 31.724 48.2475 31.976 48.2115 32.204H43.2915C43.3515 33.44 44.2635 34.16 45.5715 34.16C46.3035 34.16 46.9995 33.776 47.3835 33.212ZM45.3195 29.54C44.1795 29.54 43.4355 30.236 43.2795 31.292H47.2035C47.1435 30.188 46.4355 29.54 45.3195 29.54ZM51.2932 35.12C50.0092 35.12 49.0612 34.64 48.4732 33.692L49.2652 33.14C49.6132 33.776 50.3812 34.184 51.3052 34.184C52.3012 34.184 53.0092 33.776 53.0092 33.104C53.0092 32.552 52.5892 32.276 51.7612 32.276H50.2972V31.364H51.6892C52.3012 31.364 52.7812 31.004 52.7812 30.464C52.7812 29.876 52.1572 29.54 51.2572 29.54C50.5012 29.54 49.8772 29.828 49.4092 30.416L48.6652 29.924C49.0852 29.204 50.0452 28.604 51.3532 28.604C52.9252 28.604 53.8492 29.264 53.8492 30.308C53.8492 30.896 53.5972 31.352 53.1052 31.652C53.8252 32 54.0772 32.42 54.0772 33.08C54.0772 33.716 53.8132 34.208 53.2972 34.568C52.7812 34.94 52.1092 35.12 51.2932 35.12ZM60.6972 35H59.6892V32.3H56.0892V35H55.0812V28.76H56.0892V31.352H59.6892V28.76H60.6972V35ZM61.6913 31.868C61.6913 30.92 62.0033 30.14 62.6153 29.528C63.2273 28.916 64.0193 28.616 64.9913 28.616C65.9753 28.616 66.7793 28.916 67.3913 29.528C68.0033 30.14 68.3153 30.92 68.3153 31.868C68.3153 32.816 68.0033 33.584 67.3913 34.196C66.7673 34.808 65.9633 35.108 64.9913 35.108C64.0193 35.108 63.2273 34.808 62.6153 34.196C62.0033 33.584 61.6913 32.816 61.6913 31.868ZM62.7593 31.868C62.7593 32.528 62.9633 33.08 63.3833 33.512C63.8033 33.944 64.3313 34.16 64.9913 34.16C65.6513 34.16 66.2033 33.944 66.6233 33.524C67.0433 33.104 67.2473 32.552 67.2473 31.868C67.2473 31.184 67.0313 30.632 66.6113 30.2C66.1793 29.78 65.6393 29.564 64.9913 29.564C64.3433 29.564 63.8153 29.78 63.3953 30.2C62.9753 30.62 62.7593 31.184 62.7593 31.868ZM69.2969 36.512H68.3369V34.04H69.0329C69.6689 33.068 69.9089 31.7 69.9089 29.336V28.76H74.4929V34.04H75.3929V36.512H74.4329V35H69.2969V36.512ZM73.4849 29.72H70.8569V30.152C70.8569 31.748 70.6049 33.044 70.1129 34.04H73.4849V29.72ZM75.7951 31.868C75.7951 30.92 76.1071 30.14 76.7191 29.528C77.3311 28.916 78.1231 28.616 79.0951 28.616C80.0791 28.616 80.8831 28.916 81.4951 29.528C82.1071 30.14 82.4191 30.92 82.4191 31.868C82.4191 32.816 82.1071 33.584 81.4951 34.196C80.8711 34.808 80.0671 35.108 79.0951 35.108C78.1231 35.108 77.3311 34.808 76.7191 34.196C76.1071 33.584 75.7951 32.816 75.7951 31.868ZM76.8631 31.868C76.8631 32.528 77.0671 33.08 77.4871 33.512C77.9071 33.944 78.4351 34.16 79.0951 34.16C79.7551 34.16 80.3071 33.944 80.7271 33.524C81.1471 33.104 81.3511 32.552 81.3511 31.868C81.3511 31.184 81.1351 30.632 80.7151 30.2C80.2831 29.78 79.7431 29.564 79.0951 29.564C78.4471 29.564 77.9191 29.78 77.4991 30.2C77.0791 30.62 76.8631 31.184 76.8631 31.868ZM84.4256 37.4H83.4176V28.76H84.4256V29.54C84.8456 28.928 85.5176 28.616 86.4416 28.616C87.3536 28.616 88.0856 28.904 88.6256 29.492C89.1656 30.08 89.4296 30.836 89.4296 31.772C89.4296 32.732 89.1416 33.524 88.5656 34.16C87.9776 34.796 87.2336 35.108 86.3216 35.108C85.4816 35.108 84.8456 34.892 84.4256 34.472V37.4ZM86.3336 29.564C85.4216 29.564 84.7136 30.152 84.4256 30.86V33.188C84.7856 33.836 85.3856 34.16 86.2376 34.16C86.8496 34.16 87.3656 33.944 87.7616 33.512C88.1576 33.08 88.3616 32.528 88.3616 31.844C88.3616 30.452 87.5816 29.564 86.3336 29.564ZM90.0746 31.868C90.0746 30.92 90.3866 30.14 90.9986 29.528C91.6106 28.916 92.4026 28.616 93.3746 28.616C94.3586 28.616 95.1626 28.916 95.7746 29.528C96.3866 30.14 96.6986 30.92 96.6986 31.868C96.6986 32.816 96.3866 33.584 95.7746 34.196C95.1506 34.808 94.3466 35.108 93.3746 35.108C92.4026 35.108 91.6106 34.808 90.9986 34.196C90.3866 33.584 90.0746 32.816 90.0746 31.868ZM91.1426 31.868C91.1426 32.528 91.3466 33.08 91.7666 33.512C92.1866 33.944 92.7146 34.16 93.3746 34.16C94.0346 34.16 94.5866 33.944 95.0066 33.524C95.4266 33.104 95.6306 32.552 95.6306 31.868C95.6306 31.184 95.4146 30.632 94.9946 30.2C94.5626 29.78 94.0226 29.564 93.3746 29.564C92.7266 29.564 92.1986 29.78 91.7786 30.2C91.3586 30.62 91.1426 31.184 91.1426 31.868ZM96.6019 35L99.3139 31.64L96.6619 28.76H97.9459L100.478 31.484V28.76H101.486V31.484L104.054 28.76H105.302L102.626 31.616L105.41 35H104.162L101.894 32.228L101.486 32.612V35H100.478V32.624L100.046 32.276L97.8259 35H96.6019ZM111.642 35H110.634V32.3H107.034V35H106.026V28.76H107.034V31.352H110.634V28.76H111.642V35ZM115.241 35H112.985V28.76H113.993V30.704H115.337C117.173 30.704 117.905 31.556 117.905 32.84C117.905 34.1 117.101 35 115.241 35ZM115.229 31.664H113.993V34.04H115.217C116.369 34.04 116.837 33.632 116.837 32.852C116.837 32.06 116.297 31.664 115.229 31.664ZM119.813 35H118.793V28.76H119.813V35ZM125.878 30.332L122.074 35H121.15V28.76H122.158V33.44L125.95 28.76H126.886V35H125.878V30.332ZM122.11 26.072H123.058C123.07 26.66 123.454 27.056 124.126 27.056C124.762 27.056 125.158 26.66 125.158 26.072H126.106C126.094 27.164 125.242 27.86 124.126 27.86C122.926 27.86 122.122 27.176 122.11 26.072ZM133.371 29.708H130.983V28.76H136.791V29.708H134.379V35H133.371V29.708ZM138.427 37.4H137.419V28.76H138.427V29.54C138.847 28.928 139.519 28.616 140.443 28.616C141.355 28.616 142.087 28.904 142.627 29.492C143.167 30.08 143.431 30.836 143.431 31.772C143.431 32.732 143.143 33.524 142.567 34.16C141.979 34.796 141.235 35.108 140.323 35.108C139.483 35.108 138.847 34.892 138.427 34.472V37.4ZM140.335 29.564C139.423 29.564 138.715 30.152 138.427 30.86V33.188C138.787 33.836 139.387 34.16 140.239 34.16C140.851 34.16 141.367 33.944 141.763 33.512C142.159 33.08 142.363 32.528 142.363 31.844C142.363 30.452 141.583 29.564 140.335 29.564ZM144.904 30.26L144.388 29.504C144.964 28.964 145.96 28.616 146.884 28.616C148.552 28.616 149.44 29.528 149.44 31.148V35H148.432V34.076C148.036 34.652 147.256 35.084 146.248 35.084C144.892 35.084 143.98 34.328 143.98 33.176C143.98 31.868 145.096 31.244 146.968 31.244C147.556 31.244 148.036 31.304 148.432 31.424C148.432 30.212 148 29.564 146.764 29.564C146.14 29.564 145.516 29.792 144.904 30.26ZM146.488 34.172C146.956 34.172 147.376 34.04 147.724 33.788C148.072 33.536 148.3 33.248 148.432 32.948V32.312C148.084 32.192 147.64 32.132 147.1 32.132C145.732 32.132 145.048 32.468 145.048 33.14C145.048 33.776 145.624 34.172 146.488 34.172ZM156.33 35H155.322V32.3H151.722V35H150.714V28.76H151.722V31.352H155.322V28.76H156.33V35ZM162.508 33.2L163.228 33.716C162.76 34.592 161.704 35.108 160.66 35.108C159.664 35.108 158.86 34.808 158.248 34.22C157.636 33.632 157.324 32.852 157.324 31.868C157.324 30.932 157.624 30.152 158.236 29.54C158.848 28.928 159.628 28.616 160.6 28.616C161.716 28.616 162.712 29.12 163.132 29.888L162.352 30.416C161.932 29.852 161.356 29.564 160.624 29.564C159.976 29.564 159.448 29.78 159.028 30.212C158.608 30.644 158.392 31.196 158.392 31.868C158.392 32.552 158.608 33.104 159.052 33.524C159.484 33.944 160.048 34.16 160.756 34.16C161.5 34.16 162.088 33.836 162.508 33.2ZM169.483 35H168.475V29.708H164.947V35H163.939V28.76H169.483V35ZM170.478 31.868C170.478 30.92 170.79 30.14 171.402 29.528C172.014 28.916 172.806 28.616 173.778 28.616C174.762 28.616 175.566 28.916 176.178 29.528C176.79 30.14 177.102 30.92 177.102 31.868C177.102 32.816 176.79 33.584 176.178 34.196C175.554 34.808 174.75 35.108 173.778 35.108C172.806 35.108 172.014 34.808 171.402 34.196C170.79 33.584 170.478 32.816 170.478 31.868ZM171.546 31.868C171.546 32.528 171.75 33.08 172.17 33.512C172.59 33.944 173.118 34.16 173.778 34.16C174.438 34.16 174.99 33.944 175.41 33.524C175.83 33.104 176.034 32.552 176.034 31.868C176.034 31.184 175.818 30.632 175.398 30.2C174.966 29.78 174.426 29.564 173.778 29.564C173.13 29.564 172.602 29.78 172.182 30.2C171.762 30.62 171.546 31.184 171.546 31.868ZM179.109 37.4H178.101V28.76H179.109V29.54C179.529 28.928 180.201 28.616 181.125 28.616C182.037 28.616 182.769 28.904 183.309 29.492C183.849 30.08 184.113 30.836 184.113 31.772C184.113 32.732 183.825 33.524 183.249 34.16C182.661 34.796 181.917 35.108 181.005 35.108C180.165 35.108 179.529 34.892 179.109 34.472V37.4ZM181.017 29.564C180.105 29.564 179.397 30.152 179.109 30.86V33.188C179.469 33.836 180.069 34.16 180.921 34.16C181.533 34.16 182.049 33.944 182.445 33.512C182.841 33.08 183.045 32.528 183.045 31.844C183.045 30.452 182.265 29.564 181.017 29.564ZM186.54 29.708H184.152V28.76H189.96V29.708H187.548V35H186.54V29.708Z" fill="#76848D"/>
<rect y="50" width="10" height="10" fill="#CFD4FB"/>
<path d="M19.128 59H18.012L21.696 50.576H22.56L26.244 59H25.104L24.168 56.876H20.052L19.128 59ZM23.76 55.916L22.104 52.1L20.46 55.916H23.76ZM29.6577 59H26.8737V52.76H29.4657C31.2057 52.76 32.0217 53.204 32.0217 54.356C32.0217 54.932 31.7577 55.388 31.2177 55.712C31.8897 55.916 32.2257 56.408 32.2257 57.212C32.2257 58.376 31.3017 59 29.6577 59ZM29.6697 56.276H27.8817V58.064H29.5497C30.6177 58.064 31.1577 57.764 31.1577 57.164C31.1577 56.576 30.6657 56.276 29.6697 56.276ZM29.4297 53.696H27.8817V55.364H29.7777C30.5097 55.364 30.9537 55.064 30.9537 54.5C30.9537 53.864 30.4377 53.696 29.4297 53.696ZM34.9022 53.708H32.5142V52.76H38.3222V53.708H35.9102V59H34.9022V53.708ZM38.3677 55.868C38.3677 54.92 38.6797 54.14 39.2917 53.528C39.9037 52.916 40.6957 52.616 41.6677 52.616C42.6517 52.616 43.4557 52.916 44.0677 53.528C44.6797 54.14 44.9918 54.92 44.9918 55.868C44.9918 56.816 44.6797 57.584 44.0677 58.196C43.4437 58.808 42.6397 59.108 41.6677 59.108C40.6957 59.108 39.9037 58.808 39.2917 58.196C38.6797 57.584 38.3677 56.816 38.3677 55.868ZM39.4357 55.868C39.4357 56.528 39.6397 57.08 40.0597 57.512C40.4797 57.944 41.0077 58.16 41.6677 58.16C42.3277 58.16 42.8797 57.944 43.2997 57.524C43.7197 57.104 43.9237 56.552 43.9237 55.868C43.9237 55.184 43.7077 54.632 43.2877 54.2C42.8557 53.78 42.3157 53.564 41.6677 53.564C41.0197 53.564 40.4917 53.78 40.0717 54.2C39.6517 54.62 39.4357 55.184 39.4357 55.868ZM47.4239 53.708H45.0359V52.76H50.8439V53.708H48.4319V59H47.4239V53.708ZM52.4798 61.4H51.4718V52.76H52.4798V53.54C52.8998 52.928 53.5718 52.616 54.4958 52.616C55.4078 52.616 56.1398 52.904 56.6798 53.492C57.2198 54.08 57.4838 54.836 57.4838 55.772C57.4838 56.732 57.1958 57.524 56.6198 58.16C56.0318 58.796 55.2878 59.108 54.3758 59.108C53.5358 59.108 52.8998 58.892 52.4798 58.472V61.4ZM54.3878 53.564C53.4758 53.564 52.7678 54.152 52.4798 54.86V57.188C52.8398 57.836 53.4398 58.16 54.2918 58.16C54.9038 58.16 55.4198 57.944 55.8158 57.512C56.2118 57.08 56.4158 56.528 56.4158 55.844C56.4158 54.452 55.6358 53.564 54.3878 53.564ZM58.9568 54.26L58.4408 53.504C59.0168 52.964 60.0128 52.616 60.9368 52.616C62.6048 52.616 63.4928 53.528 63.4928 55.148V59H62.4848V58.076C62.0888 58.652 61.3088 59.084 60.3008 59.084C58.9448 59.084 58.0328 58.328 58.0328 57.176C58.0328 55.868 59.1488 55.244 61.0208 55.244C61.6088 55.244 62.0888 55.304 62.4848 55.424C62.4848 54.212 62.0528 53.564 60.8168 53.564C60.1928 53.564 59.5688 53.792 58.9568 54.26ZM60.5408 58.172C61.0088 58.172 61.4288 58.04 61.7768 57.788C62.1248 57.536 62.3528 57.248 62.4848 56.948V56.312C62.1368 56.192 61.6928 56.132 61.1528 56.132C59.7848 56.132 59.1008 56.468 59.1008 57.14C59.1008 57.776 59.6768 58.172 60.5408 58.172ZM70.383 59H69.375V56.3H65.775V59H64.767V52.76H65.775V55.352H69.375V52.76H70.383V59ZM76.5611 57.2L77.2811 57.716C76.8131 58.592 75.7571 59.108 74.7131 59.108C73.7171 59.108 72.9131 58.808 72.3011 58.22C71.6891 57.632 71.3771 56.852 71.3771 55.868C71.3771 54.932 71.6771 54.152 72.2891 53.54C72.9011 52.928 73.6811 52.616 74.6531 52.616C75.7691 52.616 76.7651 53.12 77.1851 53.888L76.4051 54.416C75.9851 53.852 75.4091 53.564 74.6771 53.564C74.0291 53.564 73.5011 53.78 73.0811 54.212C72.6611 54.644 72.4451 55.196 72.4451 55.868C72.4451 56.552 72.6611 57.104 73.1051 57.524C73.5371 57.944 74.1011 58.16 74.8091 58.16C75.5531 58.16 76.1411 57.836 76.5611 57.2ZM83.5358 59H82.5278V53.708H78.9998V59H77.9918V52.76H83.5358V59ZM84.5317 55.868C84.5317 54.92 84.8437 54.14 85.4557 53.528C86.0677 52.916 86.8597 52.616 87.8317 52.616C88.8157 52.616 89.6197 52.916 90.2317 53.528C90.8437 54.14 91.1557 54.92 91.1557 55.868C91.1557 56.816 90.8437 57.584 90.2317 58.196C89.6077 58.808 88.8037 59.108 87.8317 59.108C86.8597 59.108 86.0677 58.808 85.4557 58.196C84.8437 57.584 84.5317 56.816 84.5317 55.868ZM85.5997 55.868C85.5997 56.528 85.8037 57.08 86.2237 57.512C86.6437 57.944 87.1717 58.16 87.8317 58.16C88.4917 58.16 89.0437 57.944 89.4637 57.524C89.8837 57.104 90.0877 56.552 90.0877 55.868C90.0877 55.184 89.8717 54.632 89.4517 54.2C89.0197 53.78 88.4797 53.564 87.8317 53.564C87.1837 53.564 86.6557 53.78 86.2357 54.2C85.8157 54.62 85.5997 55.184 85.5997 55.868ZM93.1622 61.4H92.1542V52.76H93.1622V53.54C93.5822 52.928 94.2542 52.616 95.1782 52.616C96.0902 52.616 96.8222 52.904 97.3622 53.492C97.9022 54.08 98.1662 54.836 98.1662 55.772C98.1662 56.732 97.8782 57.524 97.3022 58.16C96.7142 58.796 95.9702 59.108 95.0582 59.108C94.2182 59.108 93.5822 58.892 93.1622 58.472V61.4ZM95.0702 53.564C94.1582 53.564 93.4502 54.152 93.1622 54.86V57.188C93.5222 57.836 94.1222 58.16 94.9742 58.16C95.5862 58.16 96.1022 57.944 96.4982 57.512C96.8942 57.08 97.0982 56.528 97.0982 55.844C97.0982 54.452 96.3182 53.564 95.0702 53.564ZM100.593 53.708H98.2048V52.76H104.013V53.708H101.601V59H100.593V53.708Z" fill="#76848D"/>
<rect y="74" width="10" height="10" fill="url(#paint0_linear_4001_19881)"/>
<path d="M19.98 83H18.888V74.6H19.896L23.088 78.824L26.172 74.6H27.156V83H26.064V76.484L23.196 80.348H22.932L19.98 76.484V83ZM28.307 79.868C28.307 78.92 28.619 78.14 29.231 77.528C29.843 76.916 30.635 76.616 31.607 76.616C32.591 76.616 33.395 76.916 34.007 77.528C34.619 78.14 34.931 78.92 34.931 79.868C34.931 80.816 34.619 81.584 34.007 82.196C33.383 82.808 32.579 83.108 31.607 83.108C30.635 83.108 29.843 82.808 29.231 82.196C28.619 81.584 28.307 80.816 28.307 79.868ZM29.375 79.868C29.375 80.528 29.579 81.08 29.999 81.512C30.419 81.944 30.947 82.16 31.607 82.16C32.267 82.16 32.819 81.944 33.239 81.524C33.659 81.104 33.863 80.552 33.863 79.868C33.863 79.184 33.647 78.632 33.227 78.2C32.795 77.78 32.255 77.564 31.607 77.564C30.959 77.564 30.431 77.78 30.011 78.2C29.591 78.62 29.375 79.184 29.375 79.868ZM36.9375 85.4H35.9295V76.76H36.9375V77.54C37.3575 76.928 38.0295 76.616 38.9535 76.616C39.8655 76.616 40.5975 76.904 41.1375 77.492C41.6775 78.08 41.9415 78.836 41.9415 79.772C41.9415 80.732 41.6535 81.524 41.0775 82.16C40.4895 82.796 39.7455 83.108 38.8335 83.108C37.9935 83.108 37.3575 82.892 36.9375 82.472V85.4ZM38.8455 77.564C37.9335 77.564 37.2255 78.152 36.9375 78.86V81.188C37.2975 81.836 37.8975 82.16 38.7495 82.16C39.3615 82.16 39.8775 81.944 40.2735 81.512C40.6695 81.08 40.8735 80.528 40.8735 79.844C40.8735 78.452 40.0935 77.564 38.8455 77.564ZM47.7705 81.2L48.4905 81.716C48.0225 82.592 46.9665 83.108 45.9225 83.108C44.9265 83.108 44.1225 82.808 43.5105 82.22C42.8985 81.632 42.5865 80.852 42.5865 79.868C42.5865 78.932 42.8865 78.152 43.4985 77.54C44.1105 76.928 44.8905 76.616 45.8625 76.616C46.9785 76.616 47.9745 77.12 48.3945 77.888L47.6145 78.416C47.1945 77.852 46.6185 77.564 45.8865 77.564C45.2385 77.564 44.7105 77.78 44.2905 78.212C43.8705 78.644 43.6545 79.196 43.6545 79.868C43.6545 80.552 43.8705 81.104 44.3145 81.524C44.7465 81.944 45.3105 82.16 46.0185 82.16C46.7625 82.16 47.3505 81.836 47.7705 81.2ZM50.2092 83H49.2012V76.76H50.2092V79.556L53.3652 76.76H54.7212L51.4932 79.628L54.8772 83H53.5332L50.7252 80.252L50.2092 80.732V83ZM54.5692 79.868C54.5692 78.92 54.8812 78.14 55.4932 77.528C56.1052 76.916 56.8972 76.616 57.8692 76.616C58.8532 76.616 59.6572 76.916 60.2692 77.528C60.8812 78.14 61.1932 78.92 61.1932 79.868C61.1932 80.816 60.8812 81.584 60.2692 82.196C59.6452 82.808 58.8412 83.108 57.8692 83.108C56.8972 83.108 56.1052 82.808 55.4932 82.196C54.8812 81.584 54.5692 80.816 54.5692 79.868ZM55.6372 79.868C55.6372 80.528 55.8412 81.08 56.2612 81.512C56.6812 81.944 57.2092 82.16 57.8692 82.16C58.5292 82.16 59.0812 81.944 59.5012 81.524C59.9212 81.104 60.1252 80.552 60.1252 79.868C60.1252 79.184 59.9092 78.632 59.4892 78.2C59.0572 77.78 58.5172 77.564 57.8692 77.564C57.2212 77.564 56.6932 77.78 56.2732 78.2C55.8532 78.62 55.6372 79.184 55.6372 79.868ZM66.9197 78.332L63.1157 83H62.1917V76.76H63.1997V81.44L66.9917 76.76H67.9277V83H66.9197V78.332ZM63.1517 74.072H64.0997C64.1117 74.66 64.4957 75.056 65.1677 75.056C65.8037 75.056 66.1997 74.66 66.1997 74.072H67.1477C67.1357 75.164 66.2837 75.86 65.1677 75.86C63.9677 75.86 63.1637 75.176 63.1517 74.072ZM74.4127 77.708H72.0247V76.76H77.8327V77.708H75.4207V83H74.4127V77.708ZM79.4686 85.4H78.4606V76.76H79.4686V77.54C79.8886 76.928 80.5606 76.616 81.4846 76.616C82.3966 76.616 83.1286 76.904 83.6686 77.492C84.2086 78.08 84.4726 78.836 84.4726 79.772C84.4726 80.732 84.1846 81.524 83.6086 82.16C83.0206 82.796 82.2766 83.108 81.3646 83.108C80.5246 83.108 79.8886 82.892 79.4686 82.472V85.4ZM81.3766 77.564C80.4646 77.564 79.7566 78.152 79.4686 78.86V81.188C79.8286 81.836 80.4286 82.16 81.2806 82.16C81.8926 82.16 82.4086 81.944 82.8046 81.512C83.2006 81.08 83.4046 80.528 83.4046 79.844C83.4046 78.452 82.6246 77.564 81.3766 77.564ZM85.9456 78.26L85.4296 77.504C86.0056 76.964 87.0016 76.616 87.9256 76.616C89.5936 76.616 90.4816 77.528 90.4816 79.148V83H89.4736V82.076C89.0776 82.652 88.2976 83.084 87.2896 83.084C85.9336 83.084 85.0216 82.328 85.0216 81.176C85.0216 79.868 86.1376 79.244 88.0096 79.244C88.5976 79.244 89.0776 79.304 89.4736 79.424C89.4736 78.212 89.0416 77.564 87.8056 77.564C87.1816 77.564 86.5576 77.792 85.9456 78.26ZM87.5296 82.172C87.9976 82.172 88.4176 82.04 88.7656 81.788C89.1136 81.536 89.3416 81.248 89.4736 80.948V80.312C89.1256 80.192 88.6816 80.132 88.1416 80.132C86.7736 80.132 86.0896 80.468 86.0896 81.14C86.0896 81.776 86.6656 82.172 87.5296 82.172ZM97.3718 83H96.3638V80.3H92.7638V83H91.7558V76.76H92.7638V79.352H96.3638V76.76H97.3718V83ZM103.55 81.2L104.27 81.716C103.802 82.592 102.746 83.108 101.702 83.108C100.706 83.108 99.9019 82.808 99.2899 82.22C98.6779 81.632 98.3659 80.852 98.3659 79.868C98.3659 78.932 98.6659 78.152 99.2779 77.54C99.8899 76.928 100.67 76.616 101.642 76.616C102.758 76.616 103.754 77.12 104.174 77.888L103.394 78.416C102.974 77.852 102.398 77.564 101.666 77.564C101.018 77.564 100.49 77.78 100.07 78.212C99.6499 78.644 99.4339 79.196 99.4339 79.868C99.4339 80.552 99.6499 81.104 100.094 81.524C100.526 81.944 101.09 82.16 101.798 82.16C102.542 82.16 103.13 81.836 103.55 81.2ZM110.525 83H109.517V77.708H105.989V83H104.981V76.76H110.525V83ZM111.52 79.868C111.52 78.92 111.832 78.14 112.444 77.528C113.056 76.916 113.848 76.616 114.82 76.616C115.804 76.616 116.608 76.916 117.22 77.528C117.832 78.14 118.144 78.92 118.144 79.868C118.144 80.816 117.832 81.584 117.22 82.196C116.596 82.808 115.792 83.108 114.82 83.108C113.848 83.108 113.056 82.808 112.444 82.196C111.832 81.584 111.52 80.816 111.52 79.868ZM112.588 79.868C112.588 80.528 112.792 81.08 113.212 81.512C113.632 81.944 114.16 82.16 114.82 82.16C115.48 82.16 116.032 81.944 116.452 81.524C116.872 81.104 117.076 80.552 117.076 79.868C117.076 79.184 116.86 78.632 116.44 78.2C116.008 77.78 115.468 77.564 114.82 77.564C114.172 77.564 113.644 77.78 113.224 78.2C112.804 78.62 112.588 79.184 112.588 79.868ZM120.151 85.4H119.143V76.76H120.151V77.54C120.571 76.928 121.243 76.616 122.167 76.616C123.079 76.616 123.811 76.904 124.351 77.492C124.891 78.08 125.155 78.836 125.155 79.772C125.155 80.732 124.867 81.524 124.291 82.16C123.703 82.796 122.959 83.108 122.047 83.108C121.207 83.108 120.571 82.892 120.151 82.472V85.4ZM122.059 77.564C121.147 77.564 120.439 78.152 120.151 78.86V81.188C120.511 81.836 121.111 82.16 121.963 82.16C122.575 82.16 123.091 81.944 123.487 81.512C123.883 81.08 124.087 80.528 124.087 79.844C124.087 78.452 123.307 77.564 122.059 77.564ZM127.582 77.708H125.194V76.76H131.002V77.708H128.59V83H127.582V77.708Z" fill="#76848D"/>
<path d="M64 414L112 414L112 426C112 427.105 111.105 428 110 428L66 428C64.8954 428 64 427.105 64 426L64 414Z" fill="url(#paint1_linear_4001_19881)"/>
<path opacity="0.2" d="M76 414L100 414L100 428L76 428L76 414Z" fill="url(#paint2_linear_4001_19881)"/>
<path opacity="0.04" d="M100 414L110 414C111.105 414 112 414.895 112 416L112 428L100 428L100 414Z" fill="#0D262C"/>
<path opacity="0.5" d="M64 414L76 414L76 428L66 428C64.8954 428 64 427.105 64 426L64 414Z" fill="url(#paint3_linear_4001_19881)"/>
<rect x="64" y="396" width="48" height="18" fill="url(#paint4_linear_4001_19881)"/>
<path opacity="0.2" d="M76 396L100 396L100 414L76 414L76 396Z" fill="url(#paint5_linear_4001_19881)"/>
<path opacity="0.04" d="M100 396L110 396C111.105 396 112 396.895 112 398L112 414L100 414L100 396Z" fill="#0D262C"/>
<rect opacity="0.5" x="64" y="396" width="12" height="18" fill="url(#paint6_linear_4001_19881)"/>
<path d="M64 110C64 108.895 64.8954 108 66 108L110 108C111.105 108 112 108.895 112 110L112 328L64 328L64 110Z" fill="url(#paint7_linear_4001_19881)"/>
<path opacity="0.2" d="M76 108L100 108L100 328L76 328L76 108Z" fill="url(#paint8_linear_4001_19881)"/>
<path opacity="0.04" d="M100 108L110 108C111.105 108 112 108.895 112 110L112 328L100 328L100 108Z" fill="#0D262C"/>
<path opacity="0.5" d="M64 110C64 108.895 64.8954 108 66 108L76 108L76 328L64 328L64 110Z" fill="url(#paint9_linear_4001_19881)"/>
<rect opacity="0.42" x="64" y="328" width="48" height="68" fill="url(#paint10_linear_4001_19881)"/>
<path opacity="0.2" d="M76 328L100 328L100 396L76 396L76 328Z" fill="url(#paint11_linear_4001_19881)"/>
<path opacity="0.04" d="M100 328L110 328C111.105 328 112 328.895 112 330L112 396L100 396L100 328Z" fill="#0D262C"/>
<rect opacity="0.5" x="64" y="328" width="12" height="68" fill="url(#paint12_linear_4001_19881)"/>
<path d="M74.5271 443.372L73.6511 443.06C73.9511 441.572 75.0791 440.504 76.8671 440.504C78.5951 440.504 79.6511 441.5 79.6511 443.024C79.6511 443.828 79.3031 444.632 78.8711 445.208C78.6551 445.508 78.3791 445.796 78.0551 446.096C77.3951 446.684 76.9271 446.996 76.2431 447.428L75.3191 448.004H79.9631V449H73.4231V448.184L75.2471 446.972C75.5711 446.768 75.7991 446.612 75.9311 446.516C76.0631 446.432 76.2791 446.276 76.5671 446.072C76.8551 445.868 77.0711 445.688 77.2151 445.556C77.3471 445.424 77.5271 445.256 77.7311 445.04C78.2831 444.44 78.4871 443.888 78.5471 443.132C78.5471 442.04 77.8391 441.548 76.7951 441.548C76.1471 441.548 75.6311 441.728 75.2591 442.088C74.8871 442.448 74.6351 442.88 74.5271 443.372ZM80.7948 444.8C80.7948 443.504 81.0948 442.46 81.7068 441.68C82.3068 440.9 83.1948 440.504 84.3588 440.504C86.7468 440.504 87.9348 442.076 87.9348 444.8C87.9348 446.108 87.6348 447.14 87.0468 447.92C86.4468 448.7 85.5588 449.096 84.3828 449.096C83.2548 449.096 82.3788 448.7 81.7428 447.908C81.1068 447.116 80.7948 446.084 80.7948 444.8ZM81.8988 444.8C81.8988 446.852 82.8348 448.076 84.3828 448.076C86.0148 448.076 86.8308 446.984 86.8308 444.8C86.8308 442.616 86.0028 441.524 84.3588 441.524C82.6908 441.524 81.8988 442.724 81.8988 444.8ZM89.791 443.372L88.915 443.06C89.215 441.572 90.343 440.504 92.131 440.504C93.859 440.504 94.915 441.5 94.915 443.024C94.915 443.828 94.567 444.632 94.135 445.208C93.919 445.508 93.643 445.796 93.319 446.096C92.659 446.684 92.191 446.996 91.507 447.428L90.583 448.004H95.227V449H88.687V448.184L90.511 446.972C90.835 446.768 91.063 446.612 91.195 446.516C91.327 446.432 91.543 446.276 91.831 446.072C92.119 445.868 92.335 445.688 92.479 445.556C92.611 445.424 92.791 445.256 92.995 445.04C93.547 444.44 93.751 443.888 93.811 443.132C93.811 442.04 93.103 441.548 92.059 441.548C91.411 441.548 90.895 441.728 90.523 442.088C90.151 442.448 89.899 442.88 89.791 443.372ZM96.8867 443.048L95.9867 442.64C96.4307 441.344 97.5947 440.492 99.3347 440.492C100.163 440.492 100.847 440.684 101.375 441.068C101.903 441.452 102.167 441.968 102.167 442.604C102.167 443.576 101.651 444.296 100.691 444.572C101.615 444.632 102.359 445.328 102.359 446.576C102.359 447.368 102.071 447.992 101.495 448.436C100.919 448.88 100.187 449.108 99.2867 449.108C97.4507 449.108 96.1787 448.232 95.7587 446.852L96.7307 446.432C97.2467 447.524 98.1227 448.076 99.3587 448.076C100.523 448.076 101.255 447.536 101.255 446.588C101.255 445.664 100.535 445.196 99.0947 445.196H98.1587V444.2H98.9027C100.211 444.2 101.063 443.612 101.063 442.808C101.063 441.98 100.379 441.512 99.2867 441.512C98.0027 441.512 97.2227 442.172 96.8867 443.048Z" fill="#76848D"/>
<path d="M122.49 420.804L122.042 419.754L125.402 418.144H126.2V428H124.996V419.642L122.49 420.804ZM128.923 428C128.405 428.056 128.013 427.762 128.013 427.258C128.013 426.768 128.321 426.46 128.867 426.46C129.483 426.46 129.889 426.88 129.889 427.664C129.889 429.064 129.119 429.778 128.097 430.016L127.803 429.358C128.111 429.274 128.391 429.106 128.643 428.84C128.881 428.574 128.979 428.294 128.923 428ZM131.874 421.056L130.824 420.58C131.342 419.068 132.7 418.074 134.73 418.074C135.696 418.074 136.494 418.298 137.11 418.746C137.726 419.194 138.034 419.796 138.034 420.538C138.034 421.672 137.432 422.512 136.312 422.834C137.39 422.904 138.258 423.716 138.258 425.172C138.258 426.096 137.922 426.824 137.25 427.342C136.578 427.86 135.724 428.126 134.674 428.126C132.532 428.126 131.048 427.104 130.558 425.494L131.692 425.004C132.294 426.278 133.316 426.922 134.758 426.922C136.116 426.922 136.97 426.292 136.97 425.186C136.97 424.108 136.13 423.562 134.45 423.562H133.358V422.4H134.226C135.752 422.4 136.746 421.714 136.746 420.776C136.746 419.81 135.948 419.264 134.674 419.264C133.176 419.264 132.266 420.034 131.874 421.056Z" fill="#1A3341"/>
<path d="M122.49 398.804L122.042 397.754L125.402 396.144H126.2V406H124.996V397.642L122.49 398.804ZM128.923 406C128.405 406.056 128.013 405.762 128.013 405.258C128.013 404.768 128.321 404.46 128.867 404.46C129.483 404.46 129.889 404.88 129.889 405.664C129.889 407.064 129.119 407.778 128.097 408.016L127.803 407.358C128.111 407.274 128.391 407.106 128.643 406.84C128.881 406.574 128.979 406.294 128.923 406ZM134.772 400.414H135.206C135.836 400.414 136.354 400.26 136.788 399.966C137.208 399.672 137.418 399.28 137.418 398.818C137.418 397.768 136.592 397.236 134.954 397.236C133.386 397.236 132.532 397.81 132.532 398.818C132.532 399.728 133.47 400.414 134.772 400.414ZM135.178 401.52H134.828C134.072 401.52 133.442 401.688 132.952 402.01C132.462 402.332 132.21 402.738 132.21 403.228C132.21 404.292 133.19 404.964 134.968 404.964C136.774 404.964 137.74 404.32 137.74 403.242C137.74 402.164 136.704 401.52 135.178 401.52ZM137.936 405.37C137.222 405.874 136.228 406.126 134.982 406.126C133.736 406.126 132.742 405.874 132.014 405.384C131.286 404.894 130.922 404.222 130.922 403.354C130.922 402.22 131.664 401.324 132.854 400.932C131.776 400.582 131.244 399.728 131.244 398.734C131.244 397.11 132.616 396.074 134.968 396.074C137.334 396.074 138.706 397.11 138.706 398.734C138.706 399.672 138.188 400.386 137.152 400.862C138.398 401.24 139.014 402.052 139.014 403.298C139.014 404.18 138.65 404.88 137.936 405.37Z" fill="#1A3341"/>
<path d="M122.602 333.366C122.602 331.672 123.022 330.37 123.848 329.446C124.674 328.536 125.71 328.074 126.956 328.074C128.594 328.074 129.882 328.816 130.428 329.992L129.476 330.636C128.902 329.726 128.048 329.278 126.9 329.278C126.032 329.278 125.304 329.614 124.716 330.286C124.128 330.972 123.834 331.896 123.848 333.086C124.394 332.064 125.668 331.448 127.068 331.448C128.202 331.448 129.112 331.742 129.77 332.344C130.428 332.946 130.764 333.744 130.764 334.724C130.764 335.718 130.4 336.544 129.658 337.174C128.916 337.804 127.992 338.126 126.886 338.126C124.24 338.126 122.602 336.404 122.602 333.366ZM124.002 334.556C124.268 335.942 125.318 336.922 126.872 336.922C127.628 336.922 128.258 336.726 128.748 336.32C129.238 335.928 129.476 335.41 129.476 334.78C129.476 333.394 128.496 332.652 126.998 332.652C126.172 332.652 125.486 332.848 124.954 333.24C124.408 333.632 124.1 334.066 124.002 334.556ZM132.711 338C132.193 338.056 131.801 337.762 131.801 337.258C131.801 336.768 132.109 336.46 132.655 336.46C133.271 336.46 133.677 336.88 133.677 337.664C133.677 339.064 132.907 339.778 131.885 340.016L131.591 339.358C131.899 339.274 132.179 339.106 132.431 338.84C132.669 338.574 132.767 338.294 132.711 338ZM136.123 333.492L135.115 333.226L135.689 328.2H141.849V329.39H136.767L136.403 332.022C136.893 331.658 137.635 331.476 138.629 331.476C139.777 331.476 140.673 331.784 141.331 332.386C141.975 333.002 142.297 333.786 142.297 334.752C142.297 335.718 141.933 336.53 141.219 337.16C140.491 337.804 139.581 338.126 138.503 338.126C136.669 338.126 135.143 337.258 134.513 335.732L135.633 335.256C136.039 336.194 137.089 336.936 138.503 336.936C140.113 336.936 141.009 336.012 141.009 334.794C141.009 333.492 139.959 332.652 138.293 332.652C137.397 332.652 136.669 332.932 136.123 333.492Z" fill="#1A3341"/>
<path d="M130.75 112.918C130.75 114.584 130.358 115.872 129.56 116.768C128.762 117.678 127.698 118.126 126.368 118.126C124.744 118.126 123.47 117.44 122.84 116.39L123.848 115.69C124.408 116.474 125.43 116.922 126.536 116.922C127.446 116.922 128.174 116.558 128.748 115.83C129.322 115.116 129.56 114.22 129.49 113.156C129.028 114.22 127.866 115.004 126.312 115.004C125.22 115.004 124.324 114.696 123.624 114.066C122.91 113.45 122.56 112.638 122.56 111.644C122.56 110.552 122.938 109.684 123.694 109.04C124.45 108.396 125.458 108.074 126.704 108.074C129.224 108.074 130.75 109.838 130.75 112.918ZM129.28 111.602C129.07 110.3 128.174 109.278 126.564 109.278C124.884 109.278 123.848 110.146 123.848 111.602C123.848 112.988 124.898 113.8 126.536 113.8C127.278 113.8 127.908 113.576 128.398 113.128C128.888 112.68 129.182 112.176 129.28 111.602ZM131.8 113.1C131.8 111.588 132.15 110.37 132.864 109.46C133.564 108.55 134.6 108.088 135.958 108.088C138.744 108.088 140.13 109.922 140.13 113.1C140.13 114.626 139.78 115.83 139.094 116.74C138.394 117.65 137.358 118.112 135.986 118.112C134.67 118.112 133.648 117.65 132.906 116.726C132.164 115.802 131.8 114.598 131.8 113.1ZM133.088 113.1C133.088 115.494 134.18 116.922 135.986 116.922C137.89 116.922 138.842 115.648 138.842 113.1C138.842 110.552 137.876 109.278 135.958 109.278C134.012 109.278 133.088 110.678 133.088 113.1ZM142.114 118C141.596 118.056 141.204 117.762 141.204 117.258C141.204 116.768 141.512 116.46 142.058 116.46C142.674 116.46 143.08 116.88 143.08 117.664C143.08 119.064 142.31 119.778 141.288 120.016L140.994 119.358C141.302 119.274 141.582 119.106 141.834 118.84C142.072 118.574 142.17 118.294 142.114 118ZM150.86 118H149.642V115.998H143.65V115.186L149.782 108.2H150.86V114.864H152.68V115.998H150.86V118ZM149.642 110.16L145.33 114.864H149.642V110.16Z" fill="#1A3341"/>
<path d="M172 412L220 412L220 426C220 427.105 219.105 428 218 428L174 428C172.895 428 172 427.105 172 426L172 412Z" fill="url(#paint13_linear_4001_19881)"/>
<path opacity="0.2" d="M184 412L208 412L208 428L184 428L184 412Z" fill="url(#paint14_linear_4001_19881)"/>
<path opacity="0.04" d="M208 412L218 412C219.105 412 220 412.895 220 414L220 428L208 428L208 412Z" fill="#0D262C"/>
<path opacity="0.5" d="M172 412L184 412L184 428L174 428C172.895 428 172 427.105 172 426L172 412Z" fill="url(#paint15_linear_4001_19881)"/>
<rect x="172" y="387" width="48" height="25" fill="url(#paint16_linear_4001_19881)"/>
<path opacity="0.2" d="M184 387L208 387L208 412L184 412L184 387Z" fill="url(#paint17_linear_4001_19881)"/>
<path opacity="0.04" d="M208 387L218 387C219.105 387 220 387.895 220 389L220 412L208 412L208 387Z" fill="#0D262C"/>
<rect opacity="0.5" x="172" y="387" width="12" height="25" fill="url(#paint18_linear_4001_19881)"/>
<path d="M172 110C172 108.895 172.895 108 174 108L218 108C219.105 108 220 108.895 220 110L220 315L172 315L172 110Z" fill="url(#paint19_linear_4001_19881)"/>
<path opacity="0.2" d="M184 108L208 108L208 315L184 315L184 108Z" fill="url(#paint20_linear_4001_19881)"/>
<path opacity="0.04" d="M208 108L218 108C219.105 108 220 108.895 220 110L220 315L208 315L208 108Z" fill="#0D262C"/>
<path opacity="0.5" d="M172 110C172 108.895 172.895 108 174 108L184 108L184 315L172 315L172 110Z" fill="url(#paint21_linear_4001_19881)"/>
<rect opacity="0.42" x="172" y="315" width="48" height="72" fill="url(#paint22_linear_4001_19881)"/>
<path opacity="0.2" d="M184 315L208 315L208 387L184 387L184 315Z" fill="url(#paint23_linear_4001_19881)"/>
<path opacity="0.04" d="M208 315L218 315C219.105 315 220 315.895 220 317L220 387L208 387L208 315Z" fill="#0D262C"/>
<rect opacity="0.5" x="172" y="315" width="12" height="72" fill="url(#paint24_linear_4001_19881)"/>
<path d="M182.556 443.372L181.68 443.06C181.98 441.572 183.108 440.504 184.896 440.504C186.624 440.504 187.68 441.5 187.68 443.024C187.68 443.828 187.332 444.632 186.9 445.208C186.684 445.508 186.408 445.796 186.084 446.096C185.424 446.684 184.956 446.996 184.272 447.428L183.348 448.004H187.992V449H181.452V448.184L183.276 446.972C183.6 446.768 183.828 446.612 183.96 446.516C184.092 446.432 184.308 446.276 184.596 446.072C184.884 445.868 185.1 445.688 185.244 445.556C185.376 445.424 185.556 445.256 185.76 445.04C186.312 444.44 186.516 443.888 186.576 443.132C186.576 442.04 185.868 441.548 184.824 441.548C184.176 441.548 183.66 441.728 183.288 442.088C182.916 442.448 182.664 442.88 182.556 443.372ZM188.824 444.8C188.824 443.504 189.124 442.46 189.736 441.68C190.336 440.9 191.224 440.504 192.388 440.504C194.776 440.504 195.964 442.076 195.964 444.8C195.964 446.108 195.664 447.14 195.076 447.92C194.476 448.7 193.588 449.096 192.412 449.096C191.284 449.096 190.408 448.7 189.772 447.908C189.136 447.116 188.824 446.084 188.824 444.8ZM189.928 444.8C189.928 446.852 190.864 448.076 192.412 448.076C194.044 448.076 194.86 446.984 194.86 444.8C194.86 442.616 194.032 441.524 192.388 441.524C190.72 441.524 189.928 442.724 189.928 444.8ZM197.82 443.372L196.944 443.06C197.244 441.572 198.372 440.504 200.16 440.504C201.888 440.504 202.944 441.5 202.944 443.024C202.944 443.828 202.596 444.632 202.164 445.208C201.948 445.508 201.672 445.796 201.348 446.096C200.688 446.684 200.22 446.996 199.536 447.428L198.612 448.004H203.256V449H196.716V448.184L198.54 446.972C198.864 446.768 199.092 446.612 199.224 446.516C199.356 446.432 199.572 446.276 199.86 446.072C200.148 445.868 200.364 445.688 200.508 445.556C200.64 445.424 200.82 445.256 201.024 445.04C201.576 444.44 201.78 443.888 201.84 443.132C201.84 442.04 201.132 441.548 200.088 441.548C199.44 441.548 198.924 441.728 198.552 442.088C198.18 442.448 197.928 442.88 197.82 443.372ZM205.048 443.372L204.172 443.06C204.472 441.572 205.6 440.504 207.388 440.504C209.116 440.504 210.172 441.5 210.172 443.024C210.172 443.828 209.824 444.632 209.392 445.208C209.176 445.508 208.9 445.796 208.576 446.096C207.916 446.684 207.448 446.996 206.764 447.428L205.84 448.004H210.484V449H203.944V448.184L205.768 446.972C206.092 446.768 206.32 446.612 206.452 446.516C206.584 446.432 206.8 446.276 207.088 446.072C207.376 445.868 207.592 445.688 207.736 445.556C207.868 445.424 208.048 445.256 208.252 445.04C208.804 444.44 209.008 443.888 209.068 443.132C209.068 442.04 208.36 441.548 207.316 441.548C206.668 441.548 206.152 441.728 205.78 442.088C205.408 442.448 205.156 442.88 205.048 443.372Z" fill="#76848D"/>
<path d="M230.49 420.804L230.042 419.754L233.402 418.144H234.2V428H232.996V419.642L230.49 420.804ZM236.923 428C236.405 428.056 236.013 427.762 236.013 427.258C236.013 426.768 236.321 426.46 236.867 426.46C237.483 426.46 237.889 426.88 237.889 427.664C237.889 429.064 237.119 429.778 236.097 430.016L235.803 429.358C236.111 429.274 236.391 429.106 236.643 428.84C236.881 428.574 236.979 428.294 236.923 428ZM240.336 423.492L239.328 423.226L239.902 418.2H246.062V419.39H240.98L240.616 422.022C241.106 421.658 241.848 421.476 242.842 421.476C243.99 421.476 244.886 421.784 245.544 422.386C246.188 423.002 246.51 423.786 246.51 424.752C246.51 425.718 246.146 426.53 245.432 427.16C244.704 427.804 243.794 428.126 242.716 428.126C240.882 428.126 239.356 427.258 238.726 425.732L239.846 425.256C240.252 426.194 241.302 426.936 242.716 426.936C244.326 426.936 245.222 426.012 245.222 424.794C245.222 423.492 244.172 422.652 242.506 422.652C241.61 422.652 240.882 422.932 240.336 423.492Z" fill="#1A3341"/>
<path d="M231.722 390.434L230.7 390.07C231.05 388.334 232.366 387.088 234.452 387.088C236.468 387.088 237.7 388.25 237.7 390.028C237.7 390.966 237.294 391.904 236.79 392.576C236.538 392.926 236.216 393.262 235.838 393.612C235.068 394.298 234.522 394.662 233.724 395.166L232.646 395.838H238.064V397H230.434V396.048L232.562 394.634C232.94 394.396 233.206 394.214 233.36 394.102C233.514 394.004 233.766 393.822 234.102 393.584C234.438 393.346 234.69 393.136 234.858 392.982C235.012 392.828 235.222 392.632 235.46 392.38C236.104 391.68 236.342 391.036 236.412 390.154C236.412 388.88 235.586 388.306 234.368 388.306C233.612 388.306 233.01 388.516 232.576 388.936C232.142 389.356 231.848 389.86 231.722 390.434ZM239.972 397C239.454 397.056 239.062 396.762 239.062 396.258C239.062 395.768 239.37 395.46 239.916 395.46C240.532 395.46 240.938 395.88 240.938 396.664C240.938 398.064 240.168 398.778 239.146 399.016L238.852 398.358C239.16 398.274 239.44 398.106 239.692 397.84C239.93 397.574 240.028 397.294 239.972 397ZM248.719 397H247.501V394.998H241.509V394.186L247.641 387.2H248.719V393.864H250.539V394.998H248.719V397ZM247.501 389.16L243.189 393.864H247.501V389.16Z" fill="#1A3341"/>
<path d="M230.602 320.366C230.602 318.672 231.022 317.37 231.848 316.446C232.674 315.536 233.71 315.074 234.956 315.074C236.594 315.074 237.882 315.816 238.428 316.992L237.476 317.636C236.902 316.726 236.048 316.278 234.9 316.278C234.032 316.278 233.304 316.614 232.716 317.286C232.128 317.972 231.834 318.896 231.848 320.086C232.394 319.064 233.668 318.448 235.068 318.448C236.202 318.448 237.112 318.742 237.77 319.344C238.428 319.946 238.764 320.744 238.764 321.724C238.764 322.718 238.4 323.544 237.658 324.174C236.916 324.804 235.992 325.126 234.886 325.126C232.24 325.126 230.602 323.404 230.602 320.366ZM232.002 321.556C232.268 322.942 233.318 323.922 234.872 323.922C235.628 323.922 236.258 323.726 236.748 323.32C237.238 322.928 237.476 322.41 237.476 321.78C237.476 320.394 236.496 319.652 234.998 319.652C234.172 319.652 233.486 319.848 232.954 320.24C232.408 320.632 232.1 321.066 232.002 321.556ZM240.711 325C240.193 325.056 239.801 324.762 239.801 324.258C239.801 323.768 240.109 323.46 240.655 323.46C241.271 323.46 241.677 323.88 241.677 324.664C241.677 326.064 240.907 326.778 239.885 327.016L239.591 326.358C239.899 326.274 240.179 326.106 240.431 325.84C240.669 325.574 240.767 325.294 240.711 325ZM250.843 319.918C250.843 321.584 250.451 322.872 249.653 323.768C248.855 324.678 247.791 325.126 246.461 325.126C244.837 325.126 243.563 324.44 242.933 323.39L243.941 322.69C244.501 323.474 245.523 323.922 246.629 323.922C247.539 323.922 248.267 323.558 248.841 322.83C249.415 322.116 249.653 321.22 249.583 320.156C249.121 321.22 247.959 322.004 246.405 322.004C245.313 322.004 244.417 321.696 243.717 321.066C243.003 320.45 242.653 319.638 242.653 318.644C242.653 317.552 243.031 316.684 243.787 316.04C244.543 315.396 245.551 315.074 246.797 315.074C249.317 315.074 250.843 316.838 250.843 319.918ZM249.373 318.602C249.163 317.3 248.267 316.278 246.657 316.278C244.977 316.278 243.941 317.146 243.941 318.602C243.941 319.988 244.991 320.8 246.629 320.8C247.371 320.8 248.001 320.576 248.491 320.128C248.981 319.68 249.275 319.176 249.373 318.602Z" fill="#1A3341"/>
<path d="M234.466 112.414H234.9C235.53 112.414 236.048 112.26 236.482 111.966C236.902 111.672 237.112 111.28 237.112 110.818C237.112 109.768 236.286 109.236 234.648 109.236C233.08 109.236 232.226 109.81 232.226 110.818C232.226 111.728 233.164 112.414 234.466 112.414ZM234.872 113.52H234.522C233.766 113.52 233.136 113.688 232.646 114.01C232.156 114.332 231.904 114.738 231.904 115.228C231.904 116.292 232.884 116.964 234.662 116.964C236.468 116.964 237.434 116.32 237.434 115.242C237.434 114.164 236.398 113.52 234.872 113.52ZM237.63 117.37C236.916 117.874 235.922 118.126 234.676 118.126C233.43 118.126 232.436 117.874 231.708 117.384C230.98 116.894 230.616 116.222 230.616 115.354C230.616 114.22 231.358 113.324 232.548 112.932C231.47 112.582 230.938 111.728 230.938 110.734C230.938 109.11 232.31 108.074 234.662 108.074C237.028 108.074 238.4 109.11 238.4 110.734C238.4 111.672 237.882 112.386 236.846 112.862C238.092 113.24 238.708 114.052 238.708 115.298C238.708 116.18 238.344 116.88 237.63 117.37ZM247.948 112.918C247.948 114.584 247.556 115.872 246.758 116.768C245.96 117.678 244.896 118.126 243.566 118.126C241.942 118.126 240.668 117.44 240.038 116.39L241.046 115.69C241.606 116.474 242.628 116.922 243.734 116.922C244.644 116.922 245.372 116.558 245.946 115.83C246.52 115.116 246.758 114.22 246.688 113.156C246.226 114.22 245.064 115.004 243.51 115.004C242.418 115.004 241.522 114.696 240.822 114.066C240.108 113.45 239.758 112.638 239.758 111.644C239.758 110.552 240.136 109.684 240.892 109.04C241.648 108.396 242.656 108.074 243.902 108.074C246.422 108.074 247.948 109.838 247.948 112.918ZM246.478 111.602C246.268 110.3 245.372 109.278 243.762 109.278C242.082 109.278 241.046 110.146 241.046 111.602C241.046 112.988 242.096 113.8 243.734 113.8C244.476 113.8 245.106 113.576 245.596 113.128C246.086 112.68 246.38 112.176 246.478 111.602ZM249.936 118C249.418 118.056 249.026 117.762 249.026 117.258C249.026 116.768 249.334 116.46 249.88 116.46C250.496 116.46 250.902 116.88 250.902 117.664C250.902 119.064 250.132 119.778 249.11 120.016L248.816 119.358C249.124 119.274 249.404 119.106 249.656 118.84C249.894 118.574 249.992 118.294 249.936 118ZM253.04 111.434L252.018 111.07C252.368 109.334 253.684 108.088 255.77 108.088C257.786 108.088 259.018 109.25 259.018 111.028C259.018 111.966 258.612 112.904 258.108 113.576C257.856 113.926 257.534 114.262 257.156 114.612C256.386 115.298 255.84 115.662 255.042 116.166L253.964 116.838H259.382V118H251.752V117.048L253.88 115.634C254.258 115.396 254.524 115.214 254.678 115.102C254.832 115.004 255.084 114.822 255.42 114.584C255.756 114.346 256.008 114.136 256.176 113.982C256.33 113.828 256.54 113.632 256.778 113.38C257.422 112.68 257.66 112.036 257.73 111.154C257.73 109.88 256.904 109.306 255.686 109.306C254.93 109.306 254.328 109.516 253.894 109.936C253.46 110.356 253.166 110.86 253.04 111.434Z" fill="#1A3341"/>
<defs>
<linearGradient id="paint0_linear_4001_19881" x1="5" y1="74" x2="5" y2="84" gradientUnits="userSpaceOnUse">
<stop offset="0" stop-color="#CDE3E9"/>
<stop offset="1" stop-color="#D3E8ED"/>
</linearGradient>
<linearGradient id="paint1_linear_4001_19881" x1="88" y1="414" x2="88" y2="428" gradientUnits="userSpaceOnUse">
<stop offset="0" stop-color="#6D73F9"/>
<stop offset="1" stop-color="#9BB8F1"/>
</linearGradient>
<linearGradient id="paint2_linear_4001_19881" x1="88" y1="414" x2="88" y2="428" gradientUnits="userSpaceOnUse">
<stop offset="0" stop-color="white" stop-opacity="0"/>
<stop offset="0.739583" stop-color="white"/>
</linearGradient>
<linearGradient id="paint3_linear_4001_19881" x1="70" y1="386.7" x2="70" y2="428" gradientUnits="userSpaceOnUse">
<stop offset="0" stop-color="white" stop-opacity="0.05"/>
<stop offset="0.75" stop-color="white" stop-opacity="0.8"/>
</linearGradient>
<linearGradient id="paint4_linear_4001_19881" x1="88" y1="396" x2="88" y2="414" gradientUnits="userSpaceOnUse">
<stop offset="0" stop-color="#6AA2E2"/>
<stop offset="1" stop-color="#9DBCFA"/>
</linearGradient>
<linearGradient id="paint5_linear_4001_19881" x1="88" y1="396" x2="88" y2="414" gradientUnits="userSpaceOnUse">
<stop offset="0" stop-color="white" stop-opacity="0"/>
<stop offset="0.739583" stop-color="white"/>
</linearGradient>
<linearGradient id="paint6_linear_4001_19881" x1="70" y1="360.9" x2="70" y2="414" gradientUnits="userSpaceOnUse">
<stop offset="0" stop-color="white" stop-opacity="0.05"/>
<stop offset="0.75" stop-color="white" stop-opacity="0.8"/>
</linearGradient>
<linearGradient id="paint7_linear_4001_19881" x1="88" y1="108" x2="88" y2="328" gradientUnits="userSpaceOnUse">
<stop offset="0" stop-color="#CDE3E9"/>
<stop offset="1" stop-color="#D3E8ED"/>
</linearGradient>
<linearGradient id="paint8_linear_4001_19881" x1="88" y1="108" x2="88" y2="328" gradientUnits="userSpaceOnUse">
<stop offset="0" stop-color="white" stop-opacity="0"/>
<stop offset="0.739583" stop-color="white"/>
</linearGradient>
<linearGradient id="paint9_linear_4001_19881" x1="70" y1="-321" x2="70" y2="328" gradientUnits="userSpaceOnUse">
<stop offset="0" stop-color="white" stop-opacity="0.05"/>
<stop offset="0.75" stop-color="white" stop-opacity="0.8"/>
</linearGradient>
<linearGradient id="paint10_linear_4001_19881" x1="88" y1="328" x2="88" y2="396" gradientUnits="userSpaceOnUse">
<stop offset="0" stop-color="#6D73F9"/>
<stop offset="1" stop-color="#9BB8F1"/>
</linearGradient>
<linearGradient id="paint11_linear_4001_19881" x1="88" y1="328" x2="88" y2="396" gradientUnits="userSpaceOnUse">
<stop offset="0" stop-color="white" stop-opacity="0"/>
<stop offset="0.739583" stop-color="white"/>
</linearGradient>
<linearGradient id="paint12_linear_4001_19881" x1="70" y1="195.4" x2="70" y2="396" gradientUnits="userSpaceOnUse">
<stop offset="0" stop-color="white" stop-opacity="0.05"/>
<stop offset="0.75" stop-color="white" stop-opacity="0.8"/>
</linearGradient>
<linearGradient id="paint13_linear_4001_19881" x1="196" y1="412" x2="196" y2="428" gradientUnits="userSpaceOnUse">
<stop offset="0" stop-color="#6D73F9"/>
<stop offset="1" stop-color="#9BB8F1"/>
</linearGradient>
<linearGradient id="paint14_linear_4001_19881" x1="196" y1="412" x2="196" y2="428" gradientUnits="userSpaceOnUse">
<stop offset="0" stop-color="white" stop-opacity="0"/>
<stop offset="0.739583" stop-color="white"/>
</linearGradient>
<linearGradient id="paint15_linear_4001_19881" x1="178" y1="380.8" x2="178" y2="428" gradientUnits="userSpaceOnUse">
<stop offset="0" stop-color="white" stop-opacity="0.05"/>
<stop offset="0.75" stop-color="white" stop-opacity="0.8"/>
</linearGradient>
<linearGradient id="paint16_linear_4001_19881" x1="196" y1="387" x2="196" y2="412" gradientUnits="userSpaceOnUse">
<stop offset="0" stop-color="#6AA2E2"/>
<stop offset="1" stop-color="#9DBCFA"/>
</linearGradient>
<linearGradient id="paint17_linear_4001_19881" x1="196" y1="387" x2="196" y2="412" gradientUnits="userSpaceOnUse">
<stop offset="0" stop-color="white" stop-opacity="0"/>
<stop offset="0.739583" stop-color="white"/>
</linearGradient>
<linearGradient id="paint18_linear_4001_19881" x1="178" y1="338.25" x2="178" y2="412" gradientUnits="userSpaceOnUse">
<stop offset="0" stop-color="white" stop-opacity="0.05"/>
<stop offset="0.75" stop-color="white" stop-opacity="0.8"/>
</linearGradient>
<linearGradient id="paint19_linear_4001_19881" x1="196" y1="108" x2="196" y2="315" gradientUnits="userSpaceOnUse">
<stop offset="0" stop-color="#CDE3E9"/>
<stop offset="1" stop-color="#D3E8ED"/>
</linearGradient>
<linearGradient id="paint20_linear_4001_19881" x1="196" y1="108" x2="196" y2="315" gradientUnits="userSpaceOnUse">
<stop offset="0" stop-color="white" stop-opacity="0"/>
<stop offset="0.739583" stop-color="white"/>
</linearGradient>
<linearGradient id="paint21_linear_4001_19881" x1="178" y1="-295.65" x2="178" y2="315" gradientUnits="userSpaceOnUse">
<stop offset="0" stop-color="white" stop-opacity="0.05"/>
<stop offset="0.75" stop-color="white" stop-opacity="0.8"/>
</linearGradient>
<linearGradient id="paint22_linear_4001_19881" x1="196" y1="315" x2="196" y2="387" gradientUnits="userSpaceOnUse">
<stop offset="0" stop-color="#6D73F9"/>
<stop offset="1" stop-color="#9BB8F1"/>
</linearGradient>
<linearGradient id="paint23_linear_4001_19881" x1="196" y1="315" x2="196" y2="387" gradientUnits="userSpaceOnUse">
<stop offset="0" stop-color="white" stop-opacity="0"/>
<stop offset="0.739583" stop-color="white"/>
</linearGradient>
<linearGradient id="paint24_linear_4001_19881" x1="178" y1="174.6" x2="178" y2="387" gradientUnits="userSpaceOnUse">
<stop offset="0" stop-color="white" stop-opacity="0.05"/>
<stop offset="0.75" stop-color="white" stop-opacity="0.8"/>
</linearGradient>
</defs>
</svg>
