<svg width="1119" height="302" viewBox="0 0 1119 302" fill="none" xmlns="http://www.w3.org/2000/svg">
<path d="M113 146L113 194L69 194C67.8954 194 67 193.105 67 192L67 148C67 146.895 67.8954 146 69 146L113 146Z" fill="url(#paint0_linear_4004_9091)"/>
<path opacity="0.2" d="M113 158L113 182L67 182L67 158L113 158Z" fill="url(#paint1_linear_4004_9091)"/>
<path opacity="0.04" d="M113 182L113 192C113 193.105 112.105 194 111 194L67 194L67 182L113 182Z" fill="#0D262C"/>
<path opacity="0.5" d="M113 146L113 158L67 158L67 148C67 146.895 67.8954 146 69 146L113 146Z" fill="url(#paint2_linear_4004_9091)"/>
<rect x="175" y="146" width="48" height="62" transform="rotate(90 175 146)" fill="url(#paint3_linear_4004_9091)"/>
<path opacity="0.2" d="M175 158L175 182L113 182L113 158L175 158Z" fill="url(#paint4_linear_4004_9091)"/>
<path opacity="0.04" d="M175 182L175 192C175 193.105 174.105 194 173 194L113 194L113 182L175 182Z" fill="#0D262C"/>
<rect opacity="0.5" x="175" y="146" width="12" height="62" transform="rotate(90 175 146)" fill="url(#paint5_linear_4004_9091)"/>
<path d="M1117 146C1118.1 146 1119 146.895 1119 148L1119 192C1119 193.105 1118.1 194 1117 194L397 194L397 146L1117 146Z" fill="url(#paint6_linear_4004_9091)"/>
<path opacity="0.2" d="M1119 158L1119 182L397 182L397 158L1119 158Z" fill="url(#paint7_linear_4004_9091)"/>
<path opacity="0.04" d="M1119 182L1119 192C1119 193.105 1118.1 194 1117 194L397 194L397 182L1119 182Z" fill="#0D262C"/>
<path opacity="0.5" d="M1117 146C1118.1 146 1119 146.895 1119 148L1119 158L397 158L397 146L1117 146Z" fill="url(#paint8_linear_4004_9091)"/>
<rect opacity="0.42" x="397" y="146" width="48" height="222" transform="rotate(90 397 146)" fill="url(#paint9_linear_4004_9091)"/>
<path opacity="0.2" d="M397 158L397 182L175 182L175 158L397 158Z" fill="url(#paint10_linear_4004_9091)"/>
<path opacity="0.04" d="M397 182L397 192C397 193.105 396.105 194 395 194L175 194L175 182L397 182Z" fill="#0D262C"/>
<rect opacity="0.5" x="397" y="146" width="12" height="222" transform="rotate(90 397 146)" fill="url(#paint11_linear_4004_9091)"/>
<path d="M11.5782 167.372L10.7022 167.06C11.0022 165.572 12.1302 164.504 13.9182 164.504C15.6462 164.504 16.7022 165.5 16.7022 167.024C16.7022 167.828 16.3542 168.632 15.9222 169.208C15.7062 169.508 15.4302 169.796 15.1062 170.096C14.4462 170.684 13.9782 170.996 13.2942 171.428L12.3702 172.004H17.0142V173H10.4742V172.184L12.2982 170.972C12.6222 170.768 12.8502 170.612 12.9822 170.516C13.1142 170.432 13.3302 170.276 13.6182 170.072C13.9062 169.868 14.1222 169.688 14.2662 169.556C14.3982 169.424 14.5782 169.256 14.7822 169.04C15.3342 168.44 15.5382 167.888 15.5982 167.132C15.5982 166.04 14.8902 165.548 13.8462 165.548C13.1982 165.548 12.6822 165.728 12.3102 166.088C11.9382 166.448 11.6862 166.88 11.5782 167.372ZM17.8458 168.8C17.8458 167.504 18.1458 166.46 18.7578 165.68C19.3578 164.9 20.2458 164.504 21.4098 164.504C23.7978 164.504 24.9858 166.076 24.9858 168.8C24.9858 170.108 24.6858 171.14 24.0978 171.92C23.4978 172.7 22.6098 173.096 21.4338 173.096C20.3058 173.096 19.4298 172.7 18.7938 171.908C18.1578 171.116 17.8458 170.084 17.8458 168.8ZM18.9498 168.8C18.9498 170.852 19.8858 172.076 21.4338 172.076C23.0658 172.076 23.8818 170.984 23.8818 168.8C23.8818 166.616 23.0538 165.524 21.4098 165.524C19.7418 165.524 18.9498 166.724 18.9498 168.8ZM26.8421 167.372L25.9661 167.06C26.2661 165.572 27.3941 164.504 29.1821 164.504C30.9101 164.504 31.9661 165.5 31.9661 167.024C31.9661 167.828 31.6181 168.632 31.1861 169.208C30.9701 169.508 30.6941 169.796 30.3701 170.096C29.7101 170.684 29.2421 170.996 28.5581 171.428L27.6341 172.004H32.2781V173H25.7381V172.184L27.5621 170.972C27.8861 170.768 28.1141 170.612 28.2461 170.516C28.3781 170.432 28.5941 170.276 28.8821 170.072C29.1701 169.868 29.3861 169.688 29.5301 169.556C29.6621 169.424 29.8421 169.256 30.0461 169.04C30.5981 168.44 30.8021 167.888 30.8621 167.132C30.8621 166.04 30.1541 165.548 29.1101 165.548C28.4621 165.548 27.9461 165.728 27.5741 166.088C27.2021 166.448 26.9501 166.88 26.8421 167.372ZM33.9378 167.048L33.0378 166.64C33.4818 165.344 34.6458 164.492 36.3858 164.492C37.2138 164.492 37.8978 164.684 38.4258 165.068C38.9538 165.452 39.2178 165.968 39.2178 166.604C39.2178 167.576 38.7018 168.296 37.7418 168.572C38.6658 168.632 39.4098 169.328 39.4098 170.576C39.4098 171.368 39.1218 171.992 38.5458 172.436C37.9698 172.88 37.2378 173.108 36.3378 173.108C34.5018 173.108 33.2298 172.232 32.8098 170.852L33.7818 170.432C34.2978 171.524 35.1738 172.076 36.4098 172.076C37.5738 172.076 38.3058 171.536 38.3058 170.588C38.3058 169.664 37.5858 169.196 36.1458 169.196H35.2098V168.2H35.9538C37.2618 168.2 38.1138 167.612 38.1138 166.808C38.1138 165.98 37.4298 165.512 36.3378 165.512C35.0538 165.512 34.2738 166.172 33.9378 167.048Z" fill="#76848D"/>
<rect y="2" width="10" height="10" fill="#737AF9"/>
<path d="M19.128 11H18.012L21.696 2.576H22.56L26.244 11H25.104L24.168 8.876H20.052L19.128 11ZM23.76 7.916L22.104 4.1L20.46 7.916H23.76ZM29.6577 11H26.8737V4.76H29.4657C31.2057 4.76 32.0217 5.204 32.0217 6.356C32.0217 6.932 31.7577 7.388 31.2177 7.712C31.8897 7.916 32.2257 8.408 32.2257 9.212C32.2257 10.376 31.3017 11 29.6577 11ZM29.6697 8.276H27.8817V10.064H29.5497C30.6177 10.064 31.1577 9.764 31.1577 9.164C31.1577 8.576 30.6657 8.276 29.6697 8.276ZM29.4297 5.696H27.8817V7.364H29.7777C30.5097 7.364 30.9537 7.064 30.9537 6.5C30.9537 5.864 30.4377 5.696 29.4297 5.696ZM37.9622 6.332L34.1582 11H33.2342V4.76H34.2422V9.44L38.0342 4.76H38.9702V11H37.9622V6.332ZM40.7895 6.26L40.2735 5.504C40.8495 4.964 41.8455 4.616 42.7695 4.616C44.4375 4.616 45.3255 5.528 45.3255 7.148V11H44.3175V10.076C43.9215 10.652 43.1415 11.084 42.1335 11.084C40.7775 11.084 39.8655 10.328 39.8655 9.176C39.8655 7.868 40.9815 7.244 42.8535 7.244C43.4415 7.244 43.9215 7.304 44.3175 7.424C44.3175 6.212 43.8855 5.564 42.6495 5.564C42.0255 5.564 41.4015 5.792 40.7895 6.26ZM42.3735 10.172C42.8415 10.172 43.2615 10.04 43.6095 9.788C43.9575 9.536 44.1855 9.248 44.3175 8.948V8.312C43.9695 8.192 43.5255 8.132 42.9855 8.132C41.6175 8.132 40.9335 8.468 40.9335 9.14C40.9335 9.776 41.5095 10.172 42.3735 10.172ZM52.1437 11H51.1357V5.708H47.6077V11H46.5997V4.76H52.1437V11ZM58.3115 9.212L58.9595 9.812C58.3835 10.676 57.5555 11.108 56.4635 11.108C55.4675 11.108 54.6635 10.808 54.0515 10.22C53.4395 9.632 53.1395 8.852 53.1395 7.868C53.1395 6.92 53.4155 6.14 53.9795 5.528C54.5315 4.916 55.3115 4.616 56.3195 4.616C57.1475 4.616 57.8435 4.88 58.3835 5.396C58.9235 5.912 59.1995 6.596 59.1995 7.448C59.1995 7.724 59.1755 7.976 59.1395 8.204H54.2195C54.2795 9.44 55.1915 10.16 56.4995 10.16C57.2315 10.16 57.9275 9.776 58.3115 9.212ZM56.2475 5.54C55.1075 5.54 54.3635 6.236 54.2075 7.292H58.1315C58.0715 6.188 57.3635 5.54 56.2475 5.54ZM61.2075 13.4H60.1995V4.76H61.2075V5.54C61.6275 4.928 62.2995 4.616 63.2235 4.616C64.1355 4.616 64.8675 4.904 65.4075 5.492C65.9475 6.08 66.2115 6.836 66.2115 7.772C66.2115 8.732 65.9235 9.524 65.3475 10.16C64.7595 10.796 64.0155 11.108 63.1035 11.108C62.2635 11.108 61.6275 10.892 61.2075 10.472V13.4ZM63.1155 5.564C62.2035 5.564 61.4955 6.152 61.2075 6.86V9.188C61.5675 9.836 62.1675 10.16 63.0195 10.16C63.6315 10.16 64.1475 9.944 64.5435 9.512C64.9395 9.08 65.1435 8.528 65.1435 7.844C65.1435 6.452 64.3635 5.564 63.1155 5.564ZM72.0285 9.212L72.6765 9.812C72.1005 10.676 71.2725 11.108 70.1805 11.108C69.1845 11.108 68.3805 10.808 67.7685 10.22C67.1565 9.632 66.8565 8.852 66.8565 7.868C66.8565 6.92 67.1325 6.14 67.6965 5.528C68.2485 4.916 69.0285 4.616 70.0365 4.616C70.8645 4.616 71.5605 4.88 72.1005 5.396C72.6405 5.912 72.9165 6.596 72.9165 7.448C72.9165 7.724 72.8925 7.976 72.8565 8.204H67.9365C67.9965 9.44 68.9085 10.16 70.2165 10.16C70.9485 10.16 71.6445 9.776 72.0285 9.212ZM69.9645 5.54C68.8245 5.54 68.0805 6.236 67.9245 7.292H71.8485C71.7885 6.188 71.0805 5.54 69.9645 5.54ZM76.7005 11H73.9165V4.76H76.5085C78.2485 4.76 79.0645 5.204 79.0645 6.356C79.0645 6.932 78.8005 7.388 78.2605 7.712C78.9325 7.916 79.2685 8.408 79.2685 9.212C79.2685 10.376 78.3445 11 76.7005 11ZM76.7125 8.276H74.9245V10.064H76.5925C77.6605 10.064 78.2005 9.764 78.2005 9.164C78.2005 8.576 77.7085 8.276 76.7125 8.276ZM76.4725 5.696H74.9245V7.364H76.8205C77.5525 7.364 77.9965 7.064 77.9965 6.5C77.9965 5.864 77.4805 5.696 76.4725 5.696ZM79.929 7.868C79.929 6.92 80.241 6.14 80.853 5.528C81.465 4.916 82.257 4.616 83.229 4.616C84.213 4.616 85.017 4.916 85.629 5.528C86.241 6.14 86.553 6.92 86.553 7.868C86.553 8.816 86.241 9.584 85.629 10.196C85.005 10.808 84.201 11.108 83.229 11.108C82.257 11.108 81.465 10.808 80.853 10.196C80.241 9.584 79.929 8.816 79.929 7.868ZM80.997 7.868C80.997 8.528 81.201 9.08 81.621 9.512C82.041 9.944 82.569 10.16 83.229 10.16C83.889 10.16 84.441 9.944 84.861 9.524C85.281 9.104 85.485 8.552 85.485 7.868C85.485 7.184 85.269 6.632 84.849 6.2C84.417 5.78 83.877 5.564 83.229 5.564C82.581 5.564 82.053 5.78 81.633 6.2C81.213 6.62 80.997 7.184 80.997 7.868ZM89.8075 11.12C88.5235 11.12 87.5755 10.64 86.9875 9.692L87.7795 9.14C88.1275 9.776 88.8955 10.184 89.8195 10.184C90.8155 10.184 91.5235 9.776 91.5235 9.104C91.5235 8.552 91.1035 8.276 90.2755 8.276H88.8115V7.364H90.2035C90.8155 7.364 91.2955 7.004 91.2955 6.464C91.2955 5.876 90.6715 5.54 89.7715 5.54C89.0155 5.54 88.3915 5.828 87.9235 6.416L87.1795 5.924C87.5995 5.204 88.5595 4.604 89.8675 4.604C91.4395 4.604 92.3635 5.264 92.3635 6.308C92.3635 6.896 92.1115 7.352 91.6195 7.652C92.3395 8 92.5915 8.42 92.5915 9.08C92.5915 9.716 92.3275 10.208 91.8115 10.568C91.2955 10.94 90.6235 11.12 89.8075 11.12ZM94.6036 11H93.5956V4.76H94.6036V7.556L97.7596 4.76H99.1156L95.8876 7.628L99.2716 11H97.9276L95.1196 8.252L94.6036 8.732V11ZM104.52 6.332L100.716 11H99.792V4.76H100.8V9.44L104.592 4.76H105.528V11H104.52V6.332Z" fill="#76848D"/>
<rect y="26" width="10" height="10" fill="#8FB7EF"/>
<path d="M18.024 35L21.696 30.428L18.096 26.6H19.428L23.028 30.38V26.6H24.12V30.392L27.72 26.6H29.064L25.428 30.428L29.136 35H27.828L24.6 31.028L24.12 31.496V35H23.028V31.484L22.5 30.992L19.284 35H18.024ZM34.0415 33.212L34.6895 33.812C34.1135 34.676 33.2855 35.108 32.1935 35.108C31.1975 35.108 30.3935 34.808 29.7815 34.22C29.1695 33.632 28.8695 32.852 28.8695 31.868C28.8695 30.92 29.1455 30.14 29.7095 29.528C30.2615 28.916 31.0415 28.616 32.0495 28.616C32.8775 28.616 33.5735 28.88 34.1135 29.396C34.6535 29.912 34.9295 30.596 34.9295 31.448C34.9295 31.724 34.9055 31.976 34.8695 32.204H29.9495C30.0095 33.44 30.9215 34.16 32.2295 34.16C32.9615 34.16 33.6575 33.776 34.0415 33.212ZM31.9775 29.54C30.8375 29.54 30.0935 30.236 29.9375 31.292H33.8615C33.8015 30.188 33.0935 29.54 31.9775 29.54ZM41.2129 35H40.2049V29.72H37.5649V30.008C37.5649 32.024 37.3369 33.416 36.8809 34.136C36.4249 34.856 35.8609 35.096 35.0809 35V34.04C35.8849 34.04 36.5569 33.692 36.5569 30.044V28.76H41.2129V35ZM47.3835 33.212L48.0315 33.812C47.4555 34.676 46.6275 35.108 45.5355 35.108C44.5395 35.108 43.7355 34.808 43.1235 34.22C42.5115 33.632 42.2115 32.852 42.2115 31.868C42.2115 30.92 42.4875 30.14 43.0515 29.528C43.6035 28.916 44.3835 28.616 45.3915 28.616C46.2195 28.616 46.9155 28.88 47.4555 29.396C47.9955 29.912 48.2715 30.596 48.2715 31.448C48.2715 31.724 48.2475 31.976 48.2115 32.204H43.2915C43.3515 33.44 44.2635 34.16 45.5715 34.16C46.3035 34.16 46.9995 33.776 47.3835 33.212ZM45.3195 29.54C44.1795 29.54 43.4355 30.236 43.2795 31.292H47.2035C47.1435 30.188 46.4355 29.54 45.3195 29.54ZM51.2932 35.12C50.0092 35.12 49.0612 34.64 48.4732 33.692L49.2652 33.14C49.6132 33.776 50.3812 34.184 51.3052 34.184C52.3012 34.184 53.0092 33.776 53.0092 33.104C53.0092 32.552 52.5892 32.276 51.7612 32.276H50.2972V31.364H51.6892C52.3012 31.364 52.7812 31.004 52.7812 30.464C52.7812 29.876 52.1572 29.54 51.2572 29.54C50.5012 29.54 49.8772 29.828 49.4092 30.416L48.6652 29.924C49.0852 29.204 50.0452 28.604 51.3532 28.604C52.9252 28.604 53.8492 29.264 53.8492 30.308C53.8492 30.896 53.5972 31.352 53.1052 31.652C53.8252 32 54.0772 32.42 54.0772 33.08C54.0772 33.716 53.8132 34.208 53.2972 34.568C52.7812 34.94 52.1092 35.12 51.2932 35.12ZM60.6972 35H59.6892V32.3H56.0892V35H55.0812V28.76H56.0892V31.352H59.6892V28.76H60.6972V35ZM61.6913 31.868C61.6913 30.92 62.0033 30.14 62.6153 29.528C63.2273 28.916 64.0193 28.616 64.9913 28.616C65.9753 28.616 66.7793 28.916 67.3913 29.528C68.0033 30.14 68.3153 30.92 68.3153 31.868C68.3153 32.816 68.0033 33.584 67.3913 34.196C66.7673 34.808 65.9633 35.108 64.9913 35.108C64.0193 35.108 63.2273 34.808 62.6153 34.196C62.0033 33.584 61.6913 32.816 61.6913 31.868ZM62.7593 31.868C62.7593 32.528 62.9633 33.08 63.3833 33.512C63.8033 33.944 64.3313 34.16 64.9913 34.16C65.6513 34.16 66.2033 33.944 66.6233 33.524C67.0433 33.104 67.2473 32.552 67.2473 31.868C67.2473 31.184 67.0313 30.632 66.6113 30.2C66.1793 29.78 65.6393 29.564 64.9913 29.564C64.3433 29.564 63.8153 29.78 63.3953 30.2C62.9753 30.62 62.7593 31.184 62.7593 31.868ZM69.2969 36.512H68.3369V34.04H69.0329C69.6689 33.068 69.9089 31.7 69.9089 29.336V28.76H74.4929V34.04H75.3929V36.512H74.4329V35H69.2969V36.512ZM73.4849 29.72H70.8569V30.152C70.8569 31.748 70.6049 33.044 70.1129 34.04H73.4849V29.72ZM75.7951 31.868C75.7951 30.92 76.1071 30.14 76.7191 29.528C77.3311 28.916 78.1231 28.616 79.0951 28.616C80.0791 28.616 80.8831 28.916 81.4951 29.528C82.1071 30.14 82.4191 30.92 82.4191 31.868C82.4191 32.816 82.1071 33.584 81.4951 34.196C80.8711 34.808 80.0671 35.108 79.0951 35.108C78.1231 35.108 77.3311 34.808 76.7191 34.196C76.1071 33.584 75.7951 32.816 75.7951 31.868ZM76.8631 31.868C76.8631 32.528 77.0671 33.08 77.4871 33.512C77.9071 33.944 78.4351 34.16 79.0951 34.16C79.7551 34.16 80.3071 33.944 80.7271 33.524C81.1471 33.104 81.3511 32.552 81.3511 31.868C81.3511 31.184 81.1351 30.632 80.7151 30.2C80.2831 29.78 79.7431 29.564 79.0951 29.564C78.4471 29.564 77.9191 29.78 77.4991 30.2C77.0791 30.62 76.8631 31.184 76.8631 31.868ZM84.4256 37.4H83.4176V28.76H84.4256V29.54C84.8456 28.928 85.5176 28.616 86.4416 28.616C87.3536 28.616 88.0856 28.904 88.6256 29.492C89.1656 30.08 89.4296 30.836 89.4296 31.772C89.4296 32.732 89.1416 33.524 88.5656 34.16C87.9776 34.796 87.2336 35.108 86.3216 35.108C85.4816 35.108 84.8456 34.892 84.4256 34.472V37.4ZM86.3336 29.564C85.4216 29.564 84.7136 30.152 84.4256 30.86V33.188C84.7856 33.836 85.3856 34.16 86.2376 34.16C86.8496 34.16 87.3656 33.944 87.7616 33.512C88.1576 33.08 88.3616 32.528 88.3616 31.844C88.3616 30.452 87.5816 29.564 86.3336 29.564ZM90.0746 31.868C90.0746 30.92 90.3866 30.14 90.9986 29.528C91.6106 28.916 92.4026 28.616 93.3746 28.616C94.3586 28.616 95.1626 28.916 95.7746 29.528C96.3866 30.14 96.6986 30.92 96.6986 31.868C96.6986 32.816 96.3866 33.584 95.7746 34.196C95.1506 34.808 94.3466 35.108 93.3746 35.108C92.4026 35.108 91.6106 34.808 90.9986 34.196C90.3866 33.584 90.0746 32.816 90.0746 31.868ZM91.1426 31.868C91.1426 32.528 91.3466 33.08 91.7666 33.512C92.1866 33.944 92.7146 34.16 93.3746 34.16C94.0346 34.16 94.5866 33.944 95.0066 33.524C95.4266 33.104 95.6306 32.552 95.6306 31.868C95.6306 31.184 95.4146 30.632 94.9946 30.2C94.5626 29.78 94.0226 29.564 93.3746 29.564C92.7266 29.564 92.1986 29.78 91.7786 30.2C91.3586 30.62 91.1426 31.184 91.1426 31.868ZM96.6019 35L99.3139 31.64L96.6619 28.76H97.9459L100.478 31.484V28.76H101.486V31.484L104.054 28.76H105.302L102.626 31.616L105.41 35H104.162L101.894 32.228L101.486 32.612V35H100.478V32.624L100.046 32.276L97.8259 35H96.6019ZM111.642 35H110.634V32.3H107.034V35H106.026V28.76H107.034V31.352H110.634V28.76H111.642V35ZM115.241 35H112.985V28.76H113.993V30.704H115.337C117.173 30.704 117.905 31.556 117.905 32.84C117.905 34.1 117.101 35 115.241 35ZM115.229 31.664H113.993V34.04H115.217C116.369 34.04 116.837 33.632 116.837 32.852C116.837 32.06 116.297 31.664 115.229 31.664ZM119.813 35H118.793V28.76H119.813V35ZM125.878 30.332L122.074 35H121.15V28.76H122.158V33.44L125.95 28.76H126.886V35H125.878V30.332ZM122.11 26.072H123.058C123.07 26.66 123.454 27.056 124.126 27.056C124.762 27.056 125.158 26.66 125.158 26.072H126.106C126.094 27.164 125.242 27.86 124.126 27.86C122.926 27.86 122.122 27.176 122.11 26.072ZM133.371 29.708H130.983V28.76H136.791V29.708H134.379V35H133.371V29.708ZM138.427 37.4H137.419V28.76H138.427V29.54C138.847 28.928 139.519 28.616 140.443 28.616C141.355 28.616 142.087 28.904 142.627 29.492C143.167 30.08 143.431 30.836 143.431 31.772C143.431 32.732 143.143 33.524 142.567 34.16C141.979 34.796 141.235 35.108 140.323 35.108C139.483 35.108 138.847 34.892 138.427 34.472V37.4ZM140.335 29.564C139.423 29.564 138.715 30.152 138.427 30.86V33.188C138.787 33.836 139.387 34.16 140.239 34.16C140.851 34.16 141.367 33.944 141.763 33.512C142.159 33.08 142.363 32.528 142.363 31.844C142.363 30.452 141.583 29.564 140.335 29.564ZM144.904 30.26L144.388 29.504C144.964 28.964 145.96 28.616 146.884 28.616C148.552 28.616 149.44 29.528 149.44 31.148V35H148.432V34.076C148.036 34.652 147.256 35.084 146.248 35.084C144.892 35.084 143.98 34.328 143.98 33.176C143.98 31.868 145.096 31.244 146.968 31.244C147.556 31.244 148.036 31.304 148.432 31.424C148.432 30.212 148 29.564 146.764 29.564C146.14 29.564 145.516 29.792 144.904 30.26ZM146.488 34.172C146.956 34.172 147.376 34.04 147.724 33.788C148.072 33.536 148.3 33.248 148.432 32.948V32.312C148.084 32.192 147.64 32.132 147.1 32.132C145.732 32.132 145.048 32.468 145.048 33.14C145.048 33.776 145.624 34.172 146.488 34.172ZM156.33 35H155.322V32.3H151.722V35H150.714V28.76H151.722V31.352H155.322V28.76H156.33V35ZM162.508 33.2L163.228 33.716C162.76 34.592 161.704 35.108 160.66 35.108C159.664 35.108 158.86 34.808 158.248 34.22C157.636 33.632 157.324 32.852 157.324 31.868C157.324 30.932 157.624 30.152 158.236 29.54C158.848 28.928 159.628 28.616 160.6 28.616C161.716 28.616 162.712 29.12 163.132 29.888L162.352 30.416C161.932 29.852 161.356 29.564 160.624 29.564C159.976 29.564 159.448 29.78 159.028 30.212C158.608 30.644 158.392 31.196 158.392 31.868C158.392 32.552 158.608 33.104 159.052 33.524C159.484 33.944 160.048 34.16 160.756 34.16C161.5 34.16 162.088 33.836 162.508 33.2ZM169.483 35H168.475V29.708H164.947V35H163.939V28.76H169.483V35ZM170.478 31.868C170.478 30.92 170.79 30.14 171.402 29.528C172.014 28.916 172.806 28.616 173.778 28.616C174.762 28.616 175.566 28.916 176.178 29.528C176.79 30.14 177.102 30.92 177.102 31.868C177.102 32.816 176.79 33.584 176.178 34.196C175.554 34.808 174.75 35.108 173.778 35.108C172.806 35.108 172.014 34.808 171.402 34.196C170.79 33.584 170.478 32.816 170.478 31.868ZM171.546 31.868C171.546 32.528 171.75 33.08 172.17 33.512C172.59 33.944 173.118 34.16 173.778 34.16C174.438 34.16 174.99 33.944 175.41 33.524C175.83 33.104 176.034 32.552 176.034 31.868C176.034 31.184 175.818 30.632 175.398 30.2C174.966 29.78 174.426 29.564 173.778 29.564C173.13 29.564 172.602 29.78 172.182 30.2C171.762 30.62 171.546 31.184 171.546 31.868ZM179.109 37.4H178.101V28.76H179.109V29.54C179.529 28.928 180.201 28.616 181.125 28.616C182.037 28.616 182.769 28.904 183.309 29.492C183.849 30.08 184.113 30.836 184.113 31.772C184.113 32.732 183.825 33.524 183.249 34.16C182.661 34.796 181.917 35.108 181.005 35.108C180.165 35.108 179.529 34.892 179.109 34.472V37.4ZM181.017 29.564C180.105 29.564 179.397 30.152 179.109 30.86V33.188C179.469 33.836 180.069 34.16 180.921 34.16C181.533 34.16 182.049 33.944 182.445 33.512C182.841 33.08 183.045 32.528 183.045 31.844C183.045 30.452 182.265 29.564 181.017 29.564ZM186.54 29.708H184.152V28.76H189.96V29.708H187.548V35H186.54V29.708Z" fill="#76848D"/>
<rect y="50" width="10" height="10" fill="#CFD4FB"/>
<path d="M19.128 59H18.012L21.696 50.576H22.56L26.244 59H25.104L24.168 56.876H20.052L19.128 59ZM23.76 55.916L22.104 52.1L20.46 55.916H23.76ZM29.6577 59H26.8737V52.76H29.4657C31.2057 52.76 32.0217 53.204 32.0217 54.356C32.0217 54.932 31.7577 55.388 31.2177 55.712C31.8897 55.916 32.2257 56.408 32.2257 57.212C32.2257 58.376 31.3017 59 29.6577 59ZM29.6697 56.276H27.8817V58.064H29.5497C30.6177 58.064 31.1577 57.764 31.1577 57.164C31.1577 56.576 30.6657 56.276 29.6697 56.276ZM29.4297 53.696H27.8817V55.364H29.7777C30.5097 55.364 30.9537 55.064 30.9537 54.5C30.9537 53.864 30.4377 53.696 29.4297 53.696ZM34.9022 53.708H32.5142V52.76H38.3222V53.708H35.9102V59H34.9022V53.708ZM38.3677 55.868C38.3677 54.92 38.6797 54.14 39.2917 53.528C39.9037 52.916 40.6957 52.616 41.6677 52.616C42.6517 52.616 43.4557 52.916 44.0677 53.528C44.6797 54.14 44.9918 54.92 44.9918 55.868C44.9918 56.816 44.6797 57.584 44.0677 58.196C43.4437 58.808 42.6397 59.108 41.6677 59.108C40.6957 59.108 39.9037 58.808 39.2917 58.196C38.6797 57.584 38.3677 56.816 38.3677 55.868ZM39.4357 55.868C39.4357 56.528 39.6397 57.08 40.0597 57.512C40.4797 57.944 41.0077 58.16 41.6677 58.16C42.3277 58.16 42.8797 57.944 43.2997 57.524C43.7197 57.104 43.9237 56.552 43.9237 55.868C43.9237 55.184 43.7077 54.632 43.2877 54.2C42.8557 53.78 42.3157 53.564 41.6677 53.564C41.0197 53.564 40.4917 53.78 40.0717 54.2C39.6517 54.62 39.4357 55.184 39.4357 55.868ZM47.4239 53.708H45.0359V52.76H50.8439V53.708H48.4319V59H47.4239V53.708ZM52.4798 61.4H51.4718V52.76H52.4798V53.54C52.8998 52.928 53.5718 52.616 54.4958 52.616C55.4078 52.616 56.1398 52.904 56.6798 53.492C57.2198 54.08 57.4838 54.836 57.4838 55.772C57.4838 56.732 57.1958 57.524 56.6198 58.16C56.0318 58.796 55.2878 59.108 54.3758 59.108C53.5358 59.108 52.8998 58.892 52.4798 58.472V61.4ZM54.3878 53.564C53.4758 53.564 52.7678 54.152 52.4798 54.86V57.188C52.8398 57.836 53.4398 58.16 54.2918 58.16C54.9038 58.16 55.4198 57.944 55.8158 57.512C56.2118 57.08 56.4158 56.528 56.4158 55.844C56.4158 54.452 55.6358 53.564 54.3878 53.564ZM58.9568 54.26L58.4408 53.504C59.0168 52.964 60.0128 52.616 60.9368 52.616C62.6048 52.616 63.4928 53.528 63.4928 55.148V59H62.4848V58.076C62.0888 58.652 61.3088 59.084 60.3008 59.084C58.9448 59.084 58.0328 58.328 58.0328 57.176C58.0328 55.868 59.1488 55.244 61.0208 55.244C61.6088 55.244 62.0888 55.304 62.4848 55.424C62.4848 54.212 62.0528 53.564 60.8168 53.564C60.1928 53.564 59.5688 53.792 58.9568 54.26ZM60.5408 58.172C61.0088 58.172 61.4288 58.04 61.7768 57.788C62.1248 57.536 62.3528 57.248 62.4848 56.948V56.312C62.1368 56.192 61.6928 56.132 61.1528 56.132C59.7848 56.132 59.1008 56.468 59.1008 57.14C59.1008 57.776 59.6768 58.172 60.5408 58.172ZM70.383 59H69.375V56.3H65.775V59H64.767V52.76H65.775V55.352H69.375V52.76H70.383V59ZM76.5611 57.2L77.2811 57.716C76.8131 58.592 75.7571 59.108 74.7131 59.108C73.7171 59.108 72.9131 58.808 72.3011 58.22C71.6891 57.632 71.3771 56.852 71.3771 55.868C71.3771 54.932 71.6771 54.152 72.2891 53.54C72.9011 52.928 73.6811 52.616 74.6531 52.616C75.7691 52.616 76.7651 53.12 77.1851 53.888L76.4051 54.416C75.9851 53.852 75.4091 53.564 74.6771 53.564C74.0291 53.564 73.5011 53.78 73.0811 54.212C72.6611 54.644 72.4451 55.196 72.4451 55.868C72.4451 56.552 72.6611 57.104 73.1051 57.524C73.5371 57.944 74.1011 58.16 74.8091 58.16C75.5531 58.16 76.1411 57.836 76.5611 57.2ZM83.5358 59H82.5278V53.708H78.9998V59H77.9918V52.76H83.5358V59ZM84.5317 55.868C84.5317 54.92 84.8437 54.14 85.4557 53.528C86.0677 52.916 86.8597 52.616 87.8317 52.616C88.8157 52.616 89.6197 52.916 90.2317 53.528C90.8437 54.14 91.1557 54.92 91.1557 55.868C91.1557 56.816 90.8437 57.584 90.2317 58.196C89.6077 58.808 88.8037 59.108 87.8317 59.108C86.8597 59.108 86.0677 58.808 85.4557 58.196C84.8437 57.584 84.5317 56.816 84.5317 55.868ZM85.5997 55.868C85.5997 56.528 85.8037 57.08 86.2237 57.512C86.6437 57.944 87.1717 58.16 87.8317 58.16C88.4917 58.16 89.0437 57.944 89.4637 57.524C89.8837 57.104 90.0877 56.552 90.0877 55.868C90.0877 55.184 89.8717 54.632 89.4517 54.2C89.0197 53.78 88.4797 53.564 87.8317 53.564C87.1837 53.564 86.6557 53.78 86.2357 54.2C85.8157 54.62 85.5997 55.184 85.5997 55.868ZM93.1622 61.4H92.1542V52.76H93.1622V53.54C93.5822 52.928 94.2542 52.616 95.1782 52.616C96.0902 52.616 96.8222 52.904 97.3622 53.492C97.9022 54.08 98.1662 54.836 98.1662 55.772C98.1662 56.732 97.8782 57.524 97.3022 58.16C96.7142 58.796 95.9702 59.108 95.0582 59.108C94.2182 59.108 93.5822 58.892 93.1622 58.472V61.4ZM95.0702 53.564C94.1582 53.564 93.4502 54.152 93.1622 54.86V57.188C93.5222 57.836 94.1222 58.16 94.9742 58.16C95.5862 58.16 96.1022 57.944 96.4982 57.512C96.8942 57.08 97.0982 56.528 97.0982 55.844C97.0982 54.452 96.3182 53.564 95.0702 53.564ZM100.593 53.708H98.2048V52.76H104.013V53.708H101.601V59H100.593V53.708Z" fill="#76848D"/>
<rect y="74" width="10" height="10" fill="url(#paint12_linear_4004_9091)"/>
<path d="M19.98 83H18.888V74.6H19.896L23.088 78.824L26.172 74.6H27.156V83H26.064V76.484L23.196 80.348H22.932L19.98 76.484V83ZM28.307 79.868C28.307 78.92 28.619 78.14 29.231 77.528C29.843 76.916 30.635 76.616 31.607 76.616C32.591 76.616 33.395 76.916 34.007 77.528C34.619 78.14 34.931 78.92 34.931 79.868C34.931 80.816 34.619 81.584 34.007 82.196C33.383 82.808 32.579 83.108 31.607 83.108C30.635 83.108 29.843 82.808 29.231 82.196C28.619 81.584 28.307 80.816 28.307 79.868ZM29.375 79.868C29.375 80.528 29.579 81.08 29.999 81.512C30.419 81.944 30.947 82.16 31.607 82.16C32.267 82.16 32.819 81.944 33.239 81.524C33.659 81.104 33.863 80.552 33.863 79.868C33.863 79.184 33.647 78.632 33.227 78.2C32.795 77.78 32.255 77.564 31.607 77.564C30.959 77.564 30.431 77.78 30.011 78.2C29.591 78.62 29.375 79.184 29.375 79.868ZM36.9375 85.4H35.9295V76.76H36.9375V77.54C37.3575 76.928 38.0295 76.616 38.9535 76.616C39.8655 76.616 40.5975 76.904 41.1375 77.492C41.6775 78.08 41.9415 78.836 41.9415 79.772C41.9415 80.732 41.6535 81.524 41.0775 82.16C40.4895 82.796 39.7455 83.108 38.8335 83.108C37.9935 83.108 37.3575 82.892 36.9375 82.472V85.4ZM38.8455 77.564C37.9335 77.564 37.2255 78.152 36.9375 78.86V81.188C37.2975 81.836 37.8975 82.16 38.7495 82.16C39.3615 82.16 39.8775 81.944 40.2735 81.512C40.6695 81.08 40.8735 80.528 40.8735 79.844C40.8735 78.452 40.0935 77.564 38.8455 77.564ZM47.7705 81.2L48.4905 81.716C48.0225 82.592 46.9665 83.108 45.9225 83.108C44.9265 83.108 44.1225 82.808 43.5105 82.22C42.8985 81.632 42.5865 80.852 42.5865 79.868C42.5865 78.932 42.8865 78.152 43.4985 77.54C44.1105 76.928 44.8905 76.616 45.8625 76.616C46.9785 76.616 47.9745 77.12 48.3945 77.888L47.6145 78.416C47.1945 77.852 46.6185 77.564 45.8865 77.564C45.2385 77.564 44.7105 77.78 44.2905 78.212C43.8705 78.644 43.6545 79.196 43.6545 79.868C43.6545 80.552 43.8705 81.104 44.3145 81.524C44.7465 81.944 45.3105 82.16 46.0185 82.16C46.7625 82.16 47.3505 81.836 47.7705 81.2ZM50.2092 83H49.2012V76.76H50.2092V79.556L53.3652 76.76H54.7212L51.4932 79.628L54.8772 83H53.5332L50.7252 80.252L50.2092 80.732V83ZM54.5692 79.868C54.5692 78.92 54.8812 78.14 55.4932 77.528C56.1052 76.916 56.8972 76.616 57.8692 76.616C58.8532 76.616 59.6572 76.916 60.2692 77.528C60.8812 78.14 61.1932 78.92 61.1932 79.868C61.1932 80.816 60.8812 81.584 60.2692 82.196C59.6452 82.808 58.8412 83.108 57.8692 83.108C56.8972 83.108 56.1052 82.808 55.4932 82.196C54.8812 81.584 54.5692 80.816 54.5692 79.868ZM55.6372 79.868C55.6372 80.528 55.8412 81.08 56.2612 81.512C56.6812 81.944 57.2092 82.16 57.8692 82.16C58.5292 82.16 59.0812 81.944 59.5012 81.524C59.9212 81.104 60.1252 80.552 60.1252 79.868C60.1252 79.184 59.9092 78.632 59.4892 78.2C59.0572 77.78 58.5172 77.564 57.8692 77.564C57.2212 77.564 56.6932 77.78 56.2732 78.2C55.8532 78.62 55.6372 79.184 55.6372 79.868ZM66.9197 78.332L63.1157 83H62.1917V76.76H63.1997V81.44L66.9917 76.76H67.9277V83H66.9197V78.332ZM63.1517 74.072H64.0997C64.1117 74.66 64.4957 75.056 65.1677 75.056C65.8037 75.056 66.1997 74.66 66.1997 74.072H67.1477C67.1357 75.164 66.2837 75.86 65.1677 75.86C63.9677 75.86 63.1637 75.176 63.1517 74.072ZM74.4127 77.708H72.0247V76.76H77.8327V77.708H75.4207V83H74.4127V77.708ZM79.4686 85.4H78.4606V76.76H79.4686V77.54C79.8886 76.928 80.5606 76.616 81.4846 76.616C82.3966 76.616 83.1286 76.904 83.6686 77.492C84.2086 78.08 84.4726 78.836 84.4726 79.772C84.4726 80.732 84.1846 81.524 83.6086 82.16C83.0206 82.796 82.2766 83.108 81.3646 83.108C80.5246 83.108 79.8886 82.892 79.4686 82.472V85.4ZM81.3766 77.564C80.4646 77.564 79.7566 78.152 79.4686 78.86V81.188C79.8286 81.836 80.4286 82.16 81.2806 82.16C81.8926 82.16 82.4086 81.944 82.8046 81.512C83.2006 81.08 83.4046 80.528 83.4046 79.844C83.4046 78.452 82.6246 77.564 81.3766 77.564ZM85.9456 78.26L85.4296 77.504C86.0056 76.964 87.0016 76.616 87.9256 76.616C89.5936 76.616 90.4816 77.528 90.4816 79.148V83H89.4736V82.076C89.0776 82.652 88.2976 83.084 87.2896 83.084C85.9336 83.084 85.0216 82.328 85.0216 81.176C85.0216 79.868 86.1376 79.244 88.0096 79.244C88.5976 79.244 89.0776 79.304 89.4736 79.424C89.4736 78.212 89.0416 77.564 87.8056 77.564C87.1816 77.564 86.5576 77.792 85.9456 78.26ZM87.5296 82.172C87.9976 82.172 88.4176 82.04 88.7656 81.788C89.1136 81.536 89.3416 81.248 89.4736 80.948V80.312C89.1256 80.192 88.6816 80.132 88.1416 80.132C86.7736 80.132 86.0896 80.468 86.0896 81.14C86.0896 81.776 86.6656 82.172 87.5296 82.172ZM97.3718 83H96.3638V80.3H92.7638V83H91.7558V76.76H92.7638V79.352H96.3638V76.76H97.3718V83ZM103.55 81.2L104.27 81.716C103.802 82.592 102.746 83.108 101.702 83.108C100.706 83.108 99.9019 82.808 99.2899 82.22C98.6779 81.632 98.3659 80.852 98.3659 79.868C98.3659 78.932 98.6659 78.152 99.2779 77.54C99.8899 76.928 100.67 76.616 101.642 76.616C102.758 76.616 103.754 77.12 104.174 77.888L103.394 78.416C102.974 77.852 102.398 77.564 101.666 77.564C101.018 77.564 100.49 77.78 100.07 78.212C99.6499 78.644 99.4339 79.196 99.4339 79.868C99.4339 80.552 99.6499 81.104 100.094 81.524C100.526 81.944 101.09 82.16 101.798 82.16C102.542 82.16 103.13 81.836 103.55 81.2ZM110.525 83H109.517V77.708H105.989V83H104.981V76.76H110.525V83ZM111.52 79.868C111.52 78.92 111.832 78.14 112.444 77.528C113.056 76.916 113.848 76.616 114.82 76.616C115.804 76.616 116.608 76.916 117.22 77.528C117.832 78.14 118.144 78.92 118.144 79.868C118.144 80.816 117.832 81.584 117.22 82.196C116.596 82.808 115.792 83.108 114.82 83.108C113.848 83.108 113.056 82.808 112.444 82.196C111.832 81.584 111.52 80.816 111.52 79.868ZM112.588 79.868C112.588 80.528 112.792 81.08 113.212 81.512C113.632 81.944 114.16 82.16 114.82 82.16C115.48 82.16 116.032 81.944 116.452 81.524C116.872 81.104 117.076 80.552 117.076 79.868C117.076 79.184 116.86 78.632 116.44 78.2C116.008 77.78 115.468 77.564 114.82 77.564C114.172 77.564 113.644 77.78 113.224 78.2C112.804 78.62 112.588 79.184 112.588 79.868ZM120.151 85.4H119.143V76.76H120.151V77.54C120.571 76.928 121.243 76.616 122.167 76.616C123.079 76.616 123.811 76.904 124.351 77.492C124.891 78.08 125.155 78.836 125.155 79.772C125.155 80.732 124.867 81.524 124.291 82.16C123.703 82.796 122.959 83.108 122.047 83.108C121.207 83.108 120.571 82.892 120.151 82.472V85.4ZM122.059 77.564C121.147 77.564 120.439 78.152 120.151 78.86V81.188C120.511 81.836 121.111 82.16 121.963 82.16C122.575 82.16 123.091 81.944 123.487 81.512C123.883 81.08 124.087 80.528 124.087 79.844C124.087 78.452 123.307 77.564 122.059 77.564ZM127.582 77.708H125.194V76.76H131.002V77.708H128.59V83H127.582V77.708Z" fill="#76848D"/>
<path d="M96.5434 123.804L96.0954 122.754L99.4554 121.144H100.253V131H99.0494V122.642L96.5434 123.804ZM102.977 131C102.459 131.056 102.067 130.762 102.067 130.258C102.067 129.768 102.375 129.46 102.921 129.46C103.537 129.46 103.943 129.88 103.943 130.664C103.943 132.064 103.173 132.778 102.151 133.016L101.857 132.358C102.165 132.274 102.445 132.106 102.697 131.84C102.935 131.574 103.033 131.294 102.977 131ZM105.927 124.056L104.877 123.58C105.395 122.068 106.753 121.074 108.783 121.074C109.749 121.074 110.547 121.298 111.163 121.746C111.779 122.194 112.087 122.796 112.087 123.538C112.087 124.672 111.485 125.512 110.365 125.834C111.443 125.904 112.311 126.716 112.311 128.172C112.311 129.096 111.975 129.824 111.303 130.342C110.631 130.86 109.777 131.126 108.727 131.126C106.585 131.126 105.101 130.104 104.611 128.494L105.745 128.004C106.347 129.278 107.369 129.922 108.811 129.922C110.169 129.922 111.023 129.292 111.023 128.186C111.023 127.108 110.183 126.562 108.503 126.562H107.411V125.4H108.279C109.805 125.4 110.799 124.714 110.799 123.776C110.799 122.81 110.001 122.264 108.727 122.264C107.229 122.264 106.319 123.034 105.927 124.056Z" fill="#1A3341"/>
<path d="M157.846 123.804L157.398 122.754L160.758 121.144H161.556V131H160.352V122.642L157.846 123.804ZM164.28 131C163.762 131.056 163.37 130.762 163.37 130.258C163.37 129.768 163.678 129.46 164.224 129.46C164.84 129.46 165.246 129.88 165.246 130.664C165.246 132.064 164.476 132.778 163.454 133.016L163.16 132.358C163.468 132.274 163.748 132.106 164 131.84C164.238 131.574 164.336 131.294 164.28 131ZM170.128 125.414H170.562C171.192 125.414 171.71 125.26 172.144 124.966C172.564 124.672 172.774 124.28 172.774 123.818C172.774 122.768 171.948 122.236 170.31 122.236C168.742 122.236 167.888 122.81 167.888 123.818C167.888 124.728 168.826 125.414 170.128 125.414ZM170.534 126.52H170.184C169.428 126.52 168.798 126.688 168.308 127.01C167.818 127.332 167.566 127.738 167.566 128.228C167.566 129.292 168.546 129.964 170.324 129.964C172.13 129.964 173.096 129.32 173.096 128.242C173.096 127.164 172.06 126.52 170.534 126.52ZM173.292 130.37C172.578 130.874 171.584 131.126 170.338 131.126C169.092 131.126 168.098 130.874 167.37 130.384C166.642 129.894 166.278 129.222 166.278 128.354C166.278 127.22 167.02 126.324 168.21 125.932C167.132 125.582 166.6 124.728 166.6 123.734C166.6 122.11 167.972 121.074 170.324 121.074C172.69 121.074 174.062 122.11 174.062 123.734C174.062 124.672 173.544 125.386 172.508 125.862C173.754 126.24 174.37 127.052 174.37 128.298C174.37 129.18 174.006 129.88 173.292 130.37Z" fill="#1A3341"/>
<path d="M376.704 126.366C376.704 124.672 377.124 123.37 377.95 122.446C378.776 121.536 379.812 121.074 381.058 121.074C382.696 121.074 383.984 121.816 384.53 122.992L383.578 123.636C383.004 122.726 382.15 122.278 381.002 122.278C380.134 122.278 379.406 122.614 378.818 123.286C378.23 123.972 377.936 124.896 377.95 126.086C378.496 125.064 379.77 124.448 381.17 124.448C382.304 124.448 383.214 124.742 383.872 125.344C384.53 125.946 384.866 126.744 384.866 127.724C384.866 128.718 384.502 129.544 383.76 130.174C383.018 130.804 382.094 131.126 380.988 131.126C378.342 131.126 376.704 129.404 376.704 126.366ZM378.104 127.556C378.37 128.942 379.42 129.922 380.974 129.922C381.73 129.922 382.36 129.726 382.85 129.32C383.34 128.928 383.578 128.41 383.578 127.78C383.578 126.394 382.598 125.652 381.1 125.652C380.274 125.652 379.588 125.848 379.056 126.24C378.51 126.632 378.202 127.066 378.104 127.556ZM386.813 131C386.295 131.056 385.903 130.762 385.903 130.258C385.903 129.768 386.211 129.46 386.757 129.46C387.373 129.46 387.779 129.88 387.779 130.664C387.779 132.064 387.009 132.778 385.987 133.016L385.693 132.358C386.001 132.274 386.281 132.106 386.533 131.84C386.771 131.574 386.869 131.294 386.813 131ZM390.225 126.492L389.217 126.226L389.791 121.2H395.951V122.39H390.869L390.505 125.022C390.995 124.658 391.737 124.476 392.731 124.476C393.879 124.476 394.775 124.784 395.433 125.386C396.077 126.002 396.399 126.786 396.399 127.752C396.399 128.718 396.035 129.53 395.321 130.16C394.593 130.804 393.683 131.126 392.605 131.126C390.771 131.126 389.245 130.258 388.615 128.732L389.735 128.256C390.141 129.194 391.191 129.936 392.605 129.936C394.215 129.936 395.111 129.012 395.111 127.794C395.111 126.492 394.061 125.652 392.395 125.652C391.499 125.652 390.771 125.932 390.225 126.492Z" fill="#1A3341"/>
<path d="M1096.85 125.918C1096.85 127.584 1096.46 128.872 1095.66 129.768C1094.86 130.678 1093.8 131.126 1092.47 131.126C1090.84 131.126 1089.57 130.44 1088.94 129.39L1089.95 128.69C1090.51 129.474 1091.53 129.922 1092.63 129.922C1093.54 129.922 1094.27 129.558 1094.85 128.83C1095.42 128.116 1095.66 127.22 1095.59 126.156C1095.13 127.22 1093.96 128.004 1092.41 128.004C1091.32 128.004 1090.42 127.696 1089.72 127.066C1089.01 126.45 1088.66 125.638 1088.66 124.644C1088.66 123.552 1089.04 122.684 1089.79 122.04C1090.55 121.396 1091.56 121.074 1092.8 121.074C1095.32 121.074 1096.85 122.838 1096.85 125.918ZM1095.38 124.602C1095.17 123.3 1094.27 122.278 1092.66 122.278C1090.98 122.278 1089.95 123.146 1089.95 124.602C1089.95 125.988 1091 126.8 1092.63 126.8C1093.38 126.8 1094.01 126.576 1094.5 126.128C1094.99 125.68 1095.28 125.176 1095.38 124.602ZM1097.9 126.1C1097.9 124.588 1098.25 123.37 1098.96 122.46C1099.66 121.55 1100.7 121.088 1102.06 121.088C1104.84 121.088 1106.23 122.922 1106.23 126.1C1106.23 127.626 1105.88 128.83 1105.19 129.74C1104.49 130.65 1103.46 131.112 1102.08 131.112C1100.77 131.112 1099.75 130.65 1099 129.726C1098.26 128.802 1097.9 127.598 1097.9 126.1ZM1099.19 126.1C1099.19 128.494 1100.28 129.922 1102.08 129.922C1103.99 129.922 1104.94 128.648 1104.94 126.1C1104.94 123.552 1103.97 122.278 1102.06 122.278C1100.11 122.278 1099.19 123.678 1099.19 126.1ZM1108.21 131C1107.69 131.056 1107.3 130.762 1107.3 130.258C1107.3 129.768 1107.61 129.46 1108.16 129.46C1108.77 129.46 1109.18 129.88 1109.18 130.664C1109.18 132.064 1108.41 132.778 1107.39 133.016L1107.09 132.358C1107.4 132.274 1107.68 132.106 1107.93 131.84C1108.17 131.574 1108.27 131.294 1108.21 131ZM1116.96 131H1115.74V128.998H1109.75V128.186L1115.88 121.2H1116.96V127.864H1118.78V128.998H1116.96V131ZM1115.74 123.16L1111.43 127.864H1115.74V123.16Z" fill="#1A3341"/>
<path d="M120 254L120 302L69 302C67.8954 302 67 301.105 67 300L67 256C67 254.895 67.8954 254 69 254L120 254Z" fill="url(#paint13_linear_4004_9091)"/>
<path opacity="0.2" d="M120 266L120 290L67 290L67 266L120 266Z" fill="url(#paint14_linear_4004_9091)"/>
<path opacity="0.04" d="M120 290L120 300C120 301.105 119.105 302 118 302L67 302L67 290L120 290Z" fill="#0D262C"/>
<path opacity="0.5" d="M120 254L120 266L67 266L67 256C67 254.895 67.8954 254 69 254L120 254Z" fill="url(#paint15_linear_4004_9091)"/>
<rect x="201" y="254" width="48" height="81" transform="rotate(90 201 254)" fill="url(#paint16_linear_4004_9091)"/>
<path opacity="0.2" d="M201 266L201 290L120 290L120 266L201 266Z" fill="url(#paint17_linear_4004_9091)"/>
<path opacity="0.04" d="M201 290L201 300C201 301.105 200.105 302 199 302L120 302L120 290L201 290Z" fill="#0D262C"/>
<rect opacity="0.5" x="201" y="254" width="12" height="81" transform="rotate(90 201 254)" fill="url(#paint18_linear_4004_9091)"/>
<path d="M1117 254C1118.1 254 1119 254.895 1119 256L1119 300C1119 301.105 1118.1 302 1117 302L440 302L440 254L1117 254Z" fill="url(#paint19_linear_4004_9091)"/>
<path opacity="0.2" d="M1119 266L1119 290L440 290L440 266L1119 266Z" fill="url(#paint20_linear_4004_9091)"/>
<path opacity="0.04" d="M1119 290L1119 300C1119 301.105 1118.1 302 1117 302L440 302L440 290L1119 290Z" fill="#0D262C"/>
<path opacity="0.5" d="M1117 254C1118.1 254 1119 254.895 1119 256L1119 266L440 266L440 254L1117 254Z" fill="url(#paint21_linear_4004_9091)"/>
<rect opacity="0.42" x="440" y="254" width="48" height="239" transform="rotate(90 440 254)" fill="url(#paint22_linear_4004_9091)"/>
<path opacity="0.2" d="M440 266L440 290L201 290L201 266L440 266Z" fill="url(#paint23_linear_4004_9091)"/>
<path opacity="0.04" d="M440 290L440 300C440 301.105 439.105 302 438 302L201 302L201 290L440 290Z" fill="#0D262C"/>
<rect opacity="0.5" x="440" y="254" width="12" height="239" transform="rotate(90 440 254)" fill="url(#paint24_linear_4004_9091)"/>
<path d="M11.6368 275.372L10.7608 275.06C11.0608 273.572 12.1888 272.504 13.9768 272.504C15.7048 272.504 16.7608 273.5 16.7608 275.024C16.7608 275.828 16.4128 276.632 15.9808 277.208C15.7648 277.508 15.4888 277.796 15.1648 278.096C14.5048 278.684 14.0368 278.996 13.3528 279.428L12.4288 280.004H17.0728V281H10.5328V280.184L12.3568 278.972C12.6808 278.768 12.9088 278.612 13.0408 278.516C13.1728 278.432 13.3888 278.276 13.6768 278.072C13.9648 277.868 14.1808 277.688 14.3248 277.556C14.4568 277.424 14.6368 277.256 14.8408 277.04C15.3928 276.44 15.5968 275.888 15.6568 275.132C15.6568 274.04 14.9488 273.548 13.9048 273.548C13.2568 273.548 12.7408 273.728 12.3688 274.088C11.9968 274.448 11.7448 274.88 11.6368 275.372ZM17.9044 276.8C17.9044 275.504 18.2044 274.46 18.8164 273.68C19.4164 272.9 20.3044 272.504 21.4684 272.504C23.8564 272.504 25.0444 274.076 25.0444 276.8C25.0444 278.108 24.7444 279.14 24.1564 279.92C23.5564 280.7 22.6684 281.096 21.4924 281.096C20.3644 281.096 19.4884 280.7 18.8524 279.908C18.2164 279.116 17.9044 278.084 17.9044 276.8ZM19.0084 276.8C19.0084 278.852 19.9444 280.076 21.4924 280.076C23.1244 280.076 23.9404 278.984 23.9404 276.8C23.9404 274.616 23.1124 273.524 21.4684 273.524C19.8004 273.524 19.0084 274.724 19.0084 276.8ZM26.9007 275.372L26.0247 275.06C26.3247 273.572 27.4527 272.504 29.2407 272.504C30.9687 272.504 32.0247 273.5 32.0247 275.024C32.0247 275.828 31.6767 276.632 31.2447 277.208C31.0287 277.508 30.7527 277.796 30.4287 278.096C29.7687 278.684 29.3007 278.996 28.6167 279.428L27.6927 280.004H32.3367V281H25.7967V280.184L27.6207 278.972C27.9447 278.768 28.1727 278.612 28.3047 278.516C28.4367 278.432 28.6527 278.276 28.9407 278.072C29.2287 277.868 29.4447 277.688 29.5887 277.556C29.7207 277.424 29.9007 277.256 30.1047 277.04C30.6567 276.44 30.8607 275.888 30.9207 275.132C30.9207 274.04 30.2127 273.548 29.1687 273.548C28.5207 273.548 28.0047 273.728 27.6327 274.088C27.2607 274.448 27.0087 274.88 26.9007 275.372ZM34.1283 275.372L33.2523 275.06C33.5523 273.572 34.6803 272.504 36.4683 272.504C38.1963 272.504 39.2523 273.5 39.2523 275.024C39.2523 275.828 38.9043 276.632 38.4723 277.208C38.2563 277.508 37.9803 277.796 37.6563 278.096C36.9963 278.684 36.5283 278.996 35.8443 279.428L34.9203 280.004H39.5643V281H33.0243V280.184L34.8483 278.972C35.1723 278.768 35.4003 278.612 35.5323 278.516C35.6643 278.432 35.8803 278.276 36.1683 278.072C36.4563 277.868 36.6723 277.688 36.8163 277.556C36.9483 277.424 37.1283 277.256 37.3323 277.04C37.8843 276.44 38.0883 275.888 38.1483 275.132C38.1483 274.04 37.4403 273.548 36.3963 273.548C35.7483 273.548 35.2323 273.728 34.8603 274.088C34.4883 274.448 34.2363 274.88 34.1283 275.372Z" fill="#76848D"/>
<path d="M103.379 231.804L102.931 230.754L106.291 229.144H107.089V239H105.885V230.642L103.379 231.804ZM109.813 239C109.295 239.056 108.903 238.762 108.903 238.258C108.903 237.768 109.211 237.46 109.757 237.46C110.373 237.46 110.779 237.88 110.779 238.664C110.779 240.064 110.009 240.778 108.987 241.016L108.693 240.358C109.001 240.274 109.281 240.106 109.533 239.84C109.771 239.574 109.869 239.294 109.813 239ZM113.225 234.492L112.217 234.226L112.791 229.2H118.951V230.39H113.869L113.505 233.022C113.995 232.658 114.737 232.476 115.731 232.476C116.879 232.476 117.775 232.784 118.433 233.386C119.077 234.002 119.399 234.786 119.399 235.752C119.399 236.718 119.035 237.53 118.321 238.16C117.593 238.804 116.683 239.126 115.605 239.126C113.771 239.126 112.245 238.258 111.615 236.732L112.735 236.256C113.141 237.194 114.191 237.936 115.605 237.936C117.215 237.936 118.111 237.012 118.111 235.794C118.111 234.492 117.061 233.652 115.395 233.652C114.499 233.652 113.771 233.932 113.225 234.492Z" fill="#1A3341"/>
<path d="M181.961 232.434L180.939 232.07C181.289 230.334 182.605 229.088 184.691 229.088C186.707 229.088 187.939 230.25 187.939 232.028C187.939 232.966 187.533 233.904 187.029 234.576C186.777 234.926 186.455 235.262 186.077 235.612C185.307 236.298 184.761 236.662 183.963 237.166L182.885 237.838H188.303V239H180.673V238.048L182.801 236.634C183.179 236.396 183.445 236.214 183.599 236.102C183.753 236.004 184.005 235.822 184.341 235.584C184.677 235.346 184.929 235.136 185.097 234.982C185.251 234.828 185.461 234.632 185.699 234.38C186.343 233.68 186.581 233.036 186.651 232.154C186.651 230.88 185.825 230.306 184.607 230.306C183.851 230.306 183.249 230.516 182.815 230.936C182.381 231.356 182.087 231.86 181.961 232.434ZM190.211 239C189.693 239.056 189.301 238.762 189.301 238.258C189.301 237.768 189.609 237.46 190.155 237.46C190.771 237.46 191.177 237.88 191.177 238.664C191.177 240.064 190.407 240.778 189.385 241.016L189.091 240.358C189.399 240.274 189.679 240.106 189.931 239.84C190.169 239.574 190.267 239.294 190.211 239ZM198.958 239H197.74V236.998H191.748V236.186L197.88 229.2H198.958V235.864H200.778V236.998H198.958V239ZM197.74 231.16L193.428 235.864H197.74V231.16Z" fill="#1A3341"/>
<path d="M419.171 234.366C419.171 232.672 419.591 231.37 420.417 230.446C421.243 229.536 422.279 229.074 423.525 229.074C425.163 229.074 426.451 229.816 426.997 230.992L426.045 231.636C425.471 230.726 424.617 230.278 423.469 230.278C422.601 230.278 421.873 230.614 421.285 231.286C420.697 231.972 420.403 232.896 420.417 234.086C420.963 233.064 422.237 232.448 423.637 232.448C424.771 232.448 425.681 232.742 426.339 233.344C426.997 233.946 427.333 234.744 427.333 235.724C427.333 236.718 426.969 237.544 426.227 238.174C425.485 238.804 424.561 239.126 423.455 239.126C420.809 239.126 419.171 237.404 419.171 234.366ZM420.571 235.556C420.837 236.942 421.887 237.922 423.441 237.922C424.197 237.922 424.827 237.726 425.317 237.32C425.807 236.928 426.045 236.41 426.045 235.78C426.045 234.394 425.065 233.652 423.567 233.652C422.741 233.652 422.055 233.848 421.523 234.24C420.977 234.632 420.669 235.066 420.571 235.556ZM429.28 239C428.762 239.056 428.37 238.762 428.37 238.258C428.37 237.768 428.678 237.46 429.224 237.46C429.84 237.46 430.246 237.88 430.246 238.664C430.246 240.064 429.476 240.778 428.454 241.016L428.16 240.358C428.468 240.274 428.748 240.106 429 239.84C429.238 239.574 429.336 239.294 429.28 239ZM439.412 233.918C439.412 235.584 439.02 236.872 438.222 237.768C437.424 238.678 436.36 239.126 435.03 239.126C433.406 239.126 432.132 238.44 431.502 237.39L432.51 236.69C433.07 237.474 434.092 237.922 435.198 237.922C436.108 237.922 436.836 237.558 437.41 236.83C437.984 236.116 438.222 235.22 438.152 234.156C437.69 235.22 436.528 236.004 434.974 236.004C433.882 236.004 432.986 235.696 432.286 235.066C431.572 234.45 431.222 233.638 431.222 232.644C431.222 231.552 431.6 230.684 432.356 230.04C433.112 229.396 434.12 229.074 435.366 229.074C437.886 229.074 439.412 230.838 439.412 233.918ZM437.942 232.602C437.732 231.3 436.836 230.278 435.226 230.278C433.546 230.278 432.51 231.146 432.51 232.602C432.51 233.988 433.56 234.8 435.198 234.8C435.94 234.8 436.57 234.576 437.06 234.128C437.55 233.68 437.844 233.176 437.942 232.602Z" fill="#1A3341"/>
<path d="M1093.58 233.414H1094.01C1094.64 233.414 1095.16 233.26 1095.59 232.966C1096.01 232.672 1096.22 232.28 1096.22 231.818C1096.22 230.768 1095.4 230.236 1093.76 230.236C1092.19 230.236 1091.34 230.81 1091.34 231.818C1091.34 232.728 1092.27 233.414 1093.58 233.414ZM1093.98 234.52H1093.63C1092.88 234.52 1092.25 234.688 1091.76 235.01C1091.27 235.332 1091.01 235.738 1091.01 236.228C1091.01 237.292 1091.99 237.964 1093.77 237.964C1095.58 237.964 1096.54 237.32 1096.54 236.242C1096.54 235.164 1095.51 234.52 1093.98 234.52ZM1096.74 238.37C1096.03 238.874 1095.03 239.126 1093.79 239.126C1092.54 239.126 1091.55 238.874 1090.82 238.384C1090.09 237.894 1089.73 237.222 1089.73 236.354C1089.73 235.22 1090.47 234.324 1091.66 233.932C1090.58 233.582 1090.05 232.728 1090.05 231.734C1090.05 230.11 1091.42 229.074 1093.77 229.074C1096.14 229.074 1097.51 230.11 1097.51 231.734C1097.51 232.672 1096.99 233.386 1095.96 233.862C1097.2 234.24 1097.82 235.052 1097.82 236.298C1097.82 237.18 1097.45 237.88 1096.74 238.37ZM1107.06 233.918C1107.06 235.584 1106.67 236.872 1105.87 237.768C1105.07 238.678 1104.01 239.126 1102.68 239.126C1101.05 239.126 1099.78 238.44 1099.15 237.39L1100.16 236.69C1100.72 237.474 1101.74 237.922 1102.84 237.922C1103.75 237.922 1104.48 237.558 1105.06 236.83C1105.63 236.116 1105.87 235.22 1105.8 234.156C1105.34 235.22 1104.17 236.004 1102.62 236.004C1101.53 236.004 1100.63 235.696 1099.93 235.066C1099.22 234.45 1098.87 233.638 1098.87 232.644C1098.87 231.552 1099.25 230.684 1100 230.04C1100.76 229.396 1101.77 229.074 1103.01 229.074C1105.53 229.074 1107.06 230.838 1107.06 233.918ZM1105.59 232.602C1105.38 231.3 1104.48 230.278 1102.87 230.278C1101.19 230.278 1100.16 231.146 1100.16 232.602C1100.16 233.988 1101.21 234.8 1102.84 234.8C1103.59 234.8 1104.22 234.576 1104.71 234.128C1105.2 233.68 1105.49 233.176 1105.59 232.602ZM1109.05 239C1108.53 239.056 1108.14 238.762 1108.14 238.258C1108.14 237.768 1108.44 237.46 1108.99 237.46C1109.61 237.46 1110.01 237.88 1110.01 238.664C1110.01 240.064 1109.24 240.778 1108.22 241.016L1107.93 240.358C1108.23 240.274 1108.51 240.106 1108.77 239.84C1109 239.574 1109.1 239.294 1109.05 239ZM1112.15 232.434L1111.13 232.07C1111.48 230.334 1112.79 229.088 1114.88 229.088C1116.9 229.088 1118.13 230.25 1118.13 232.028C1118.13 232.966 1117.72 233.904 1117.22 234.576C1116.97 234.926 1116.64 235.262 1116.27 235.612C1115.5 236.298 1114.95 236.662 1114.15 237.166L1113.07 237.838H1118.49V239H1110.86V238.048L1112.99 236.634C1113.37 236.396 1113.63 236.214 1113.79 236.102C1113.94 236.004 1114.19 235.822 1114.53 235.584C1114.87 235.346 1115.12 235.136 1115.29 234.982C1115.44 234.828 1115.65 234.632 1115.89 234.38C1116.53 233.68 1116.77 233.036 1116.84 232.154C1116.84 230.88 1116.01 230.306 1114.8 230.306C1114.04 230.306 1113.44 230.516 1113 230.936C1112.57 231.356 1112.28 231.86 1112.15 232.434Z" fill="#1A3341"/>
<defs>
<linearGradient id="paint0_linear_4004_9091" x1="113" y1="170" x2="67" y2="170" gradientUnits="userSpaceOnUse">
<stop offset="0" stop-color="#6D73F9"/>
<stop offset="1" stop-color="#9BB8F1"/>
</linearGradient>
<linearGradient id="paint1_linear_4004_9091" x1="113" y1="170" x2="67" y2="170" gradientUnits="userSpaceOnUse">
<stop offset="0" stop-color="white" stop-opacity="0"/>
<stop offset="0.739583" stop-color="white"/>
</linearGradient>
<linearGradient id="paint2_linear_4004_9091" x1="202.7" y1="152" x2="67" y2="152" gradientUnits="userSpaceOnUse">
<stop offset="0" stop-color="white" stop-opacity="0.05"/>
<stop offset="0.75" stop-color="white" stop-opacity="0.8"/>
</linearGradient>
<linearGradient id="paint3_linear_4004_9091" x1="199" y1="146" x2="199" y2="208" gradientUnits="userSpaceOnUse">
<stop offset="0" stop-color="#6AA2E2"/>
<stop offset="1" stop-color="#9DBCFA"/>
</linearGradient>
<linearGradient id="paint4_linear_4004_9091" x1="175" y1="170" x2="113" y2="170" gradientUnits="userSpaceOnUse">
<stop offset="0" stop-color="white" stop-opacity="0"/>
<stop offset="0.739583" stop-color="white"/>
</linearGradient>
<linearGradient id="paint5_linear_4004_9091" x1="181" y1="25.1" x2="181" y2="208" gradientUnits="userSpaceOnUse">
<stop offset="0" stop-color="white" stop-opacity="0.05"/>
<stop offset="0.75" stop-color="white" stop-opacity="0.8"/>
</linearGradient>
<linearGradient id="paint6_linear_4004_9091" x1="1119" y1="170" x2="397" y2="170" gradientUnits="userSpaceOnUse">
<stop offset="0" stop-color="#CDE3E9"/>
<stop offset="1" stop-color="#D3E8ED"/>
</linearGradient>
<linearGradient id="paint7_linear_4004_9091" x1="1119" y1="170" x2="397" y2="170" gradientUnits="userSpaceOnUse">
<stop offset="0" stop-color="white" stop-opacity="0"/>
<stop offset="0.739583" stop-color="white"/>
</linearGradient>
<linearGradient id="paint8_linear_4004_9091" x1="2526.9" y1="152" x2="397" y2="152" gradientUnits="userSpaceOnUse">
<stop offset="0" stop-color="white" stop-opacity="0.05"/>
<stop offset="0.75" stop-color="white" stop-opacity="0.8"/>
</linearGradient>
<linearGradient id="paint9_linear_4004_9091" x1="421" y1="146" x2="421" y2="368" gradientUnits="userSpaceOnUse">
<stop offset="0" stop-color="#6D73F9"/>
<stop offset="1" stop-color="#9BB8F1"/>
</linearGradient>
<linearGradient id="paint10_linear_4004_9091" x1="397" y1="170" x2="175" y2="170" gradientUnits="userSpaceOnUse">
<stop offset="0" stop-color="white" stop-opacity="0"/>
<stop offset="0.739583" stop-color="white"/>
</linearGradient>
<linearGradient id="paint11_linear_4004_9091" x1="403" y1="-286.9" x2="403" y2="368" gradientUnits="userSpaceOnUse">
<stop offset="0" stop-color="white" stop-opacity="0.05"/>
<stop offset="0.75" stop-color="white" stop-opacity="0.8"/>
</linearGradient>
<linearGradient id="paint12_linear_4004_9091" x1="5" y1="74" x2="5" y2="84" gradientUnits="userSpaceOnUse">
<stop offset="0" stop-color="#CDE3E9"/>
<stop offset="1" stop-color="#D3E8ED"/>
</linearGradient>
<linearGradient id="paint13_linear_4004_9091" x1="120" y1="278" x2="67" y2="278" gradientUnits="userSpaceOnUse">
<stop offset="0" stop-color="#6D73F9"/>
<stop offset="1" stop-color="#9BB8F1"/>
</linearGradient>
<linearGradient id="paint14_linear_4004_9091" x1="120" y1="278" x2="67" y2="278" gradientUnits="userSpaceOnUse">
<stop offset="0" stop-color="white" stop-opacity="0"/>
<stop offset="0.739583" stop-color="white"/>
</linearGradient>
<linearGradient id="paint15_linear_4004_9091" x1="223.35" y1="260" x2="67" y2="260" gradientUnits="userSpaceOnUse">
<stop offset="0" stop-color="white" stop-opacity="0.05"/>
<stop offset="0.75" stop-color="white" stop-opacity="0.8"/>
</linearGradient>
<linearGradient id="paint16_linear_4004_9091" x1="225" y1="254" x2="225" y2="335" gradientUnits="userSpaceOnUse">
<stop offset="0" stop-color="#6AA2E2"/>
<stop offset="1" stop-color="#9DBCFA"/>
</linearGradient>
<linearGradient id="paint17_linear_4004_9091" x1="201" y1="278" x2="120" y2="278" gradientUnits="userSpaceOnUse">
<stop offset="0" stop-color="white" stop-opacity="0"/>
<stop offset="0.739583" stop-color="white"/>
</linearGradient>
<linearGradient id="paint18_linear_4004_9091" x1="207" y1="96.05" x2="207" y2="335" gradientUnits="userSpaceOnUse">
<stop offset="0" stop-color="white" stop-opacity="0.05"/>
<stop offset="0.75" stop-color="white" stop-opacity="0.8"/>
</linearGradient>
<linearGradient id="paint19_linear_4004_9091" x1="1119" y1="278" x2="440" y2="278" gradientUnits="userSpaceOnUse">
<stop offset="0" stop-color="#CDE3E9"/>
<stop offset="1" stop-color="#D3E8ED"/>
</linearGradient>
<linearGradient id="paint20_linear_4004_9091" x1="1119" y1="278" x2="440" y2="278" gradientUnits="userSpaceOnUse">
<stop offset="0" stop-color="white" stop-opacity="0"/>
<stop offset="0.739583" stop-color="white"/>
</linearGradient>
<linearGradient id="paint21_linear_4004_9091" x1="2443.05" y1="260" x2="440" y2="260" gradientUnits="userSpaceOnUse">
<stop offset="0" stop-color="white" stop-opacity="0.05"/>
<stop offset="0.75" stop-color="white" stop-opacity="0.8"/>
</linearGradient>
<linearGradient id="paint22_linear_4004_9091" x1="464" y1="254" x2="464" y2="493" gradientUnits="userSpaceOnUse">
<stop offset="0" stop-color="#6D73F9"/>
<stop offset="1" stop-color="#9BB8F1"/>
</linearGradient>
<linearGradient id="paint23_linear_4004_9091" x1="440" y1="278" x2="201" y2="278" gradientUnits="userSpaceOnUse">
<stop offset="0" stop-color="white" stop-opacity="0"/>
<stop offset="0.739583" stop-color="white"/>
</linearGradient>
<linearGradient id="paint24_linear_4004_9091" x1="446" y1="-212.05" x2="446" y2="493" gradientUnits="userSpaceOnUse">
<stop offset="0" stop-color="white" stop-opacity="0.05"/>
<stop offset="0.75" stop-color="white" stop-opacity="0.8"/>
</linearGradient>
</defs>
</svg>
