<svg width="336" height="262" viewBox="0 0 336 262" fill="none" xmlns="http://www.w3.org/2000/svg">
<rect y="2" width="10" height="10" fill="url(#paint0_linear_4001_19540)"/>
<path d="M19.476 5.372L18.6 5.06C18.9 3.572 20.028 2.504 21.816 2.504C23.544 2.504 24.6 3.5 24.6 5.024C24.6 5.828 24.252 6.632 23.82 7.208C23.604 7.508 23.328 7.796 23.004 8.096C22.344 8.684 21.876 8.996 21.192 9.428L20.268 10.004H24.912V11H18.372V10.184L20.196 8.972C20.52 8.768 20.748 8.612 20.88 8.516C21.012 8.432 21.228 8.276 21.516 8.072C21.804 7.868 22.02 7.688 22.164 7.556C22.296 7.424 22.476 7.256 22.68 7.04C23.232 6.44 23.436 5.888 23.496 5.132C23.496 4.04 22.788 3.548 21.744 3.548C21.096 3.548 20.58 3.728 20.208 4.088C19.836 4.448 19.584 4.88 19.476 5.372ZM25.7437 6.8C25.7437 5.504 26.0437 4.46 26.6557 3.68C27.2557 2.9 28.1437 2.504 29.3077 2.504C31.6957 2.504 32.8837 4.076 32.8837 6.8C32.8837 8.108 32.5837 9.14 31.9957 9.92C31.3957 10.7 30.5077 11.096 29.3317 11.096C28.2037 11.096 27.3277 10.7 26.6917 9.908C26.0557 9.116 25.7437 8.084 25.7437 6.8ZM26.8477 6.8C26.8477 8.852 27.7837 10.076 29.3317 10.076C30.9637 10.076 31.7797 8.984 31.7797 6.8C31.7797 4.616 30.9517 3.524 29.3077 3.524C27.6397 3.524 26.8477 4.724 26.8477 6.8ZM34.7399 5.372L33.8639 5.06C34.1639 3.572 35.2919 2.504 37.0799 2.504C38.8079 2.504 39.8639 3.5 39.8639 5.024C39.8639 5.828 39.5159 6.632 39.0839 7.208C38.8679 7.508 38.5919 7.796 38.2679 8.096C37.6079 8.684 37.1399 8.996 36.4559 9.428L35.5319 10.004H40.1759V11H33.6359V10.184L35.4599 8.972C35.7839 8.768 36.0119 8.612 36.1439 8.516C36.2759 8.432 36.4919 8.276 36.7799 8.072C37.0679 7.868 37.2839 7.688 37.4279 7.556C37.5599 7.424 37.7399 7.256 37.9439 7.04C38.4959 6.44 38.6999 5.888 38.7599 5.132C38.7599 4.04 38.0519 3.548 37.0079 3.548C36.3599 3.548 35.8439 3.728 35.4719 4.088C35.0999 4.448 34.8479 4.88 34.7399 5.372ZM41.9676 5.372L41.0916 5.06C41.3916 3.572 42.5196 2.504 44.3076 2.504C46.0356 2.504 47.0916 3.5 47.0916 5.024C47.0916 5.828 46.7436 6.632 46.3116 7.208C46.0956 7.508 45.8196 7.796 45.4956 8.096C44.8356 8.684 44.3676 8.996 43.6836 9.428L42.7596 10.004H47.4036V11H40.8636V10.184L42.6876 8.972C43.0116 8.768 43.2396 8.612 43.3716 8.516C43.5036 8.432 43.7196 8.276 44.0076 8.072C44.2956 7.868 44.5116 7.688 44.6556 7.556C44.7876 7.424 44.9676 7.256 45.1716 7.04C45.7236 6.44 45.9276 5.888 45.9876 5.132C45.9876 4.04 45.2796 3.548 44.2356 3.548C43.5876 3.548 43.0716 3.728 42.6996 4.088C42.3276 4.448 42.0756 4.88 41.9676 5.372Z" fill="#1A3341" fill-opacity="0.6"/>
<rect x="84" y="2" width="10" height="10" fill="url(#paint1_linear_4001_19540)"/>
<path d="M103.476 5.372L102.6 5.06C102.9 3.572 104.028 2.504 105.816 2.504C107.544 2.504 108.6 3.5 108.6 5.024C108.6 5.828 108.252 6.632 107.82 7.208C107.604 7.508 107.328 7.796 107.004 8.096C106.344 8.684 105.876 8.996 105.192 9.428L104.268 10.004H108.912V11H102.372V10.184L104.196 8.972C104.52 8.768 104.748 8.612 104.88 8.516C105.012 8.432 105.228 8.276 105.516 8.072C105.804 7.868 106.02 7.688 106.164 7.556C106.296 7.424 106.476 7.256 106.68 7.04C107.232 6.44 107.436 5.888 107.496 5.132C107.496 4.04 106.788 3.548 105.744 3.548C105.096 3.548 104.58 3.728 104.208 4.088C103.836 4.448 103.584 4.88 103.476 5.372ZM109.744 6.8C109.744 5.504 110.044 4.46 110.656 3.68C111.256 2.9 112.144 2.504 113.308 2.504C115.696 2.504 116.884 4.076 116.884 6.8C116.884 8.108 116.584 9.14 115.996 9.92C115.396 10.7 114.508 11.096 113.332 11.096C112.204 11.096 111.328 10.7 110.692 9.908C110.056 9.116 109.744 8.084 109.744 6.8ZM110.848 6.8C110.848 8.852 111.784 10.076 113.332 10.076C114.964 10.076 115.78 8.984 115.78 6.8C115.78 4.616 114.952 3.524 113.308 3.524C111.64 3.524 110.848 4.724 110.848 6.8ZM118.74 5.372L117.864 5.06C118.164 3.572 119.292 2.504 121.08 2.504C122.808 2.504 123.864 3.5 123.864 5.024C123.864 5.828 123.516 6.632 123.084 7.208C122.868 7.508 122.592 7.796 122.268 8.096C121.608 8.684 121.14 8.996 120.456 9.428L119.532 10.004H124.176V11H117.636V10.184L119.46 8.972C119.784 8.768 120.012 8.612 120.144 8.516C120.276 8.432 120.492 8.276 120.78 8.072C121.068 7.868 121.284 7.688 121.428 7.556C121.56 7.424 121.74 7.256 121.944 7.04C122.496 6.44 122.7 5.888 122.76 5.132C122.76 4.04 122.052 3.548 121.008 3.548C120.36 3.548 119.844 3.728 119.472 4.088C119.1 4.448 118.848 4.88 118.74 5.372ZM125.836 5.048L124.936 4.64C125.38 3.344 126.544 2.492 128.284 2.492C129.112 2.492 129.796 2.684 130.324 3.068C130.852 3.452 131.116 3.968 131.116 4.604C131.116 5.576 130.6 6.296 129.64 6.572C130.564 6.632 131.308 7.328 131.308 8.576C131.308 9.368 131.02 9.992 130.444 10.436C129.868 10.88 129.136 11.108 128.236 11.108C126.4 11.108 125.128 10.232 124.708 8.852L125.68 8.432C126.196 9.524 127.072 10.076 128.308 10.076C129.472 10.076 130.204 9.536 130.204 8.588C130.204 7.664 129.484 7.196 128.044 7.196H127.108V6.2H127.852C129.16 6.2 130.012 5.612 130.012 4.808C130.012 3.98 129.328 3.512 128.236 3.512C126.952 3.512 126.172 4.172 125.836 5.048Z" fill="#1A3341" fill-opacity="0.6"/>
<path d="M81 46H189C189.552 46 190 46.4477 190 47V63C190 63.5523 189.552 64 189 64H81V46Z" fill="url(#paint2_linear_4001_19540)"/>
<path d="M198.49 51.804L198.042 50.754L201.402 49.144H202.2V59H200.996V50.642L198.49 51.804ZM205.105 52.434L204.083 52.07C204.433 50.334 205.749 49.088 207.835 49.088C209.851 49.088 211.083 50.25 211.083 52.028C211.083 52.966 210.677 53.904 210.173 54.576C209.921 54.926 209.599 55.262 209.221 55.612C208.451 56.298 207.905 56.662 207.107 57.166L206.029 57.838H211.447V59H203.817V58.048L205.945 56.634C206.323 56.396 206.589 56.214 206.743 56.102C206.897 56.004 207.149 55.822 207.485 55.584C207.821 55.346 208.073 55.136 208.241 54.982C208.395 54.828 208.605 54.632 208.843 54.38C209.487 53.68 209.725 53.036 209.795 52.154C209.795 50.88 208.969 50.306 207.751 50.306C206.995 50.306 206.393 50.516 205.959 50.936C205.525 51.356 205.231 51.86 205.105 52.434ZM220.566 53.918C220.566 55.584 220.174 56.872 219.376 57.768C218.578 58.678 217.514 59.126 216.184 59.126C214.56 59.126 213.286 58.44 212.656 57.39L213.664 56.69C214.224 57.474 215.246 57.922 216.352 57.922C217.262 57.922 217.99 57.558 218.564 56.83C219.138 56.116 219.376 55.22 219.306 54.156C218.844 55.22 217.682 56.004 216.128 56.004C215.036 56.004 214.14 55.696 213.44 55.066C212.726 54.45 212.376 53.638 212.376 52.644C212.376 51.552 212.754 50.684 213.51 50.04C214.266 49.396 215.274 49.074 216.52 49.074C219.04 49.074 220.566 50.838 220.566 53.918ZM219.096 52.602C218.886 51.3 217.99 50.278 216.38 50.278C214.7 50.278 213.664 51.146 213.664 52.602C213.664 53.988 214.714 54.8 216.352 54.8C217.094 54.8 217.724 54.576 218.214 54.128C218.704 53.68 218.998 53.176 219.096 52.602ZM225.673 54.366C225.673 52.672 226.093 51.37 226.919 50.446C227.745 49.536 228.781 49.074 230.027 49.074C231.665 49.074 232.953 49.816 233.499 50.992L232.547 51.636C231.973 50.726 231.119 50.278 229.971 50.278C229.103 50.278 228.375 50.614 227.787 51.286C227.199 51.972 226.905 52.896 226.919 54.086C227.465 53.064 228.739 52.448 230.139 52.448C231.273 52.448 232.183 52.742 232.841 53.344C233.499 53.946 233.835 54.744 233.835 55.724C233.835 56.718 233.471 57.544 232.729 58.174C231.987 58.804 231.063 59.126 229.957 59.126C227.311 59.126 225.673 57.404 225.673 54.366ZM227.073 55.556C227.339 56.942 228.389 57.922 229.943 57.922C230.699 57.922 231.329 57.726 231.819 57.32C232.309 56.928 232.547 56.41 232.547 55.78C232.547 54.394 231.567 53.652 230.069 53.652C229.243 53.652 228.557 53.848 228.025 54.24C227.479 54.632 227.171 55.066 227.073 55.556ZM235.809 52.056L234.759 51.58C235.277 50.068 236.635 49.074 238.665 49.074C239.631 49.074 240.429 49.298 241.045 49.746C241.661 50.194 241.969 50.796 241.969 51.538C241.969 52.672 241.367 53.512 240.247 53.834C241.325 53.904 242.193 54.716 242.193 56.172C242.193 57.096 241.857 57.824 241.185 58.342C240.513 58.86 239.659 59.126 238.609 59.126C236.467 59.126 234.983 58.104 234.493 56.494L235.627 56.004C236.229 57.278 237.251 57.922 238.693 57.922C240.051 57.922 240.905 57.292 240.905 56.186C240.905 55.108 240.065 54.562 238.385 54.562H237.293V53.4H238.161C239.687 53.4 240.681 52.714 240.681 51.776C240.681 50.81 239.883 50.264 238.609 50.264C237.111 50.264 236.201 51.034 235.809 52.056ZM244.464 52.434L243.442 52.07C243.792 50.334 245.108 49.088 247.194 49.088C249.21 49.088 250.442 50.25 250.442 52.028C250.442 52.966 250.036 53.904 249.532 54.576C249.28 54.926 248.958 55.262 248.58 55.612C247.81 56.298 247.264 56.662 246.466 57.166L245.388 57.838H250.806V59H243.176V58.048L245.304 56.634C245.682 56.396 245.948 56.214 246.102 56.102C246.256 56.004 246.508 55.822 246.844 55.584C247.18 55.346 247.432 55.136 247.6 54.982C247.754 54.828 247.964 54.632 248.202 54.38C248.846 53.68 249.084 53.036 249.154 52.154C249.154 50.88 248.328 50.306 247.11 50.306C246.354 50.306 245.752 50.516 245.318 50.936C244.884 51.356 244.59 51.86 244.464 52.434Z" fill="#1A3341"/>
<path d="M81 70H222C222.552 70 223 70.4477 223 71V87C223 87.5523 222.552 88 222 88H81V70Z" fill="url(#paint3_linear_4001_19540)"/>
<path d="M231.49 75.804L231.042 74.754L234.402 73.144H235.2V83H233.996V74.642L231.49 75.804ZM242.599 74.39H236.663V73.2H244.097V73.998L239.225 83H237.895L242.599 74.39ZM244.843 78.1C244.843 76.588 245.193 75.37 245.907 74.46C246.607 73.55 247.643 73.088 249.001 73.088C251.787 73.088 253.173 74.922 253.173 78.1C253.173 79.626 252.823 80.83 252.137 81.74C251.437 82.65 250.401 83.112 249.029 83.112C247.713 83.112 246.691 82.65 245.949 81.726C245.207 80.802 244.843 79.598 244.843 78.1ZM246.131 78.1C246.131 80.494 247.223 81.922 249.029 81.922C250.933 81.922 251.885 80.648 251.885 78.1C251.885 75.552 250.919 74.278 249.001 74.278C247.055 74.278 246.131 75.678 246.131 78.1ZM258.276 78.1C258.276 76.588 258.626 75.37 259.34 74.46C260.04 73.55 261.076 73.088 262.434 73.088C265.22 73.088 266.606 74.922 266.606 78.1C266.606 79.626 266.256 80.83 265.57 81.74C264.87 82.65 263.834 83.112 262.462 83.112C261.146 83.112 260.124 82.65 259.382 81.726C258.64 80.802 258.276 79.598 258.276 78.1ZM259.564 78.1C259.564 80.494 260.656 81.922 262.462 81.922C264.366 81.922 265.318 80.648 265.318 78.1C265.318 75.552 264.352 74.278 262.434 74.278C260.488 74.278 259.564 75.678 259.564 78.1ZM273.266 74.39H267.33V73.2H274.764V73.998L269.892 83H268.562L273.266 74.39ZM279.374 77.414H279.808C280.438 77.414 280.956 77.26 281.39 76.966C281.81 76.672 282.02 76.28 282.02 75.818C282.02 74.768 281.194 74.236 279.556 74.236C277.988 74.236 277.134 74.81 277.134 75.818C277.134 76.728 278.072 77.414 279.374 77.414ZM279.78 78.52H279.43C278.674 78.52 278.044 78.688 277.554 79.01C277.064 79.332 276.812 79.738 276.812 80.228C276.812 81.292 277.792 81.964 279.57 81.964C281.376 81.964 282.342 81.32 282.342 80.242C282.342 79.164 281.306 78.52 279.78 78.52ZM282.538 82.37C281.824 82.874 280.83 83.126 279.584 83.126C278.338 83.126 277.344 82.874 276.616 82.384C275.888 81.894 275.524 81.222 275.524 80.354C275.524 79.22 276.266 78.324 277.456 77.932C276.378 77.582 275.846 76.728 275.846 75.734C275.846 74.11 277.218 73.074 279.57 73.074C281.936 73.074 283.308 74.11 283.308 75.734C283.308 76.672 282.79 77.386 281.754 77.862C283 78.24 283.616 79.052 283.616 80.298C283.616 81.18 283.252 81.88 282.538 82.37Z" fill="#1A3341"/>
<path opacity="0.6" d="M3.55109 57H2.45909V48.6H3.46709L6.65909 52.824L9.74309 48.6H10.7271V57H9.63509V50.484L6.76709 54.348H6.50309L3.55109 50.484V57ZM11.8781 53.868C11.8781 52.92 12.1901 52.14 12.8021 51.528C13.4141 50.916 14.2061 50.616 15.1781 50.616C16.1621 50.616 16.9661 50.916 17.5781 51.528C18.1901 52.14 18.5021 52.92 18.5021 53.868C18.5021 54.816 18.1901 55.584 17.5781 56.196C16.9541 56.808 16.1501 57.108 15.1781 57.108C14.2061 57.108 13.4141 56.808 12.8021 56.196C12.1901 55.584 11.8781 54.816 11.8781 53.868ZM12.9461 53.868C12.9461 54.528 13.1501 55.08 13.5701 55.512C13.9901 55.944 14.5181 56.16 15.1781 56.16C15.8381 56.16 16.3901 55.944 16.8101 55.524C17.2301 55.104 17.4341 54.552 17.4341 53.868C17.4341 53.184 17.2181 52.632 16.7981 52.2C16.3661 51.78 15.8261 51.564 15.1781 51.564C14.5301 51.564 14.0021 51.78 13.5821 52.2C13.1621 52.62 12.9461 53.184 12.9461 53.868ZM24.3366 55.2L25.0566 55.716C24.5886 56.592 23.5326 57.108 22.4886 57.108C21.4926 57.108 20.6886 56.808 20.0766 56.22C19.4646 55.632 19.1526 54.852 19.1526 53.868C19.1526 52.932 19.4526 52.152 20.0646 51.54C20.6766 50.928 21.4566 50.616 22.4286 50.616C23.5446 50.616 24.5406 51.12 24.9606 51.888L24.1806 52.416C23.7606 51.852 23.1846 51.564 22.4526 51.564C21.8046 51.564 21.2766 51.78 20.8566 52.212C20.4366 52.644 20.2206 53.196 20.2206 53.868C20.2206 54.552 20.4366 55.104 20.8806 55.524C21.3126 55.944 21.8766 56.16 22.5846 56.16C23.3286 56.16 23.9166 55.836 24.3366 55.2ZM26.7753 57H25.7673V50.76H26.7753V53.556L29.9313 50.76H31.2873L28.0593 53.628L31.4433 57H30.0993L27.2913 54.252L26.7753 54.732V57ZM31.1352 53.868C31.1352 52.92 31.4472 52.14 32.0592 51.528C32.6712 50.916 33.4632 50.616 34.4352 50.616C35.4192 50.616 36.2232 50.916 36.8352 51.528C37.4472 52.14 37.7592 52.92 37.7592 53.868C37.7592 54.816 37.4472 55.584 36.8352 56.196C36.2112 56.808 35.4072 57.108 34.4352 57.108C33.4632 57.108 32.6712 56.808 32.0592 56.196C31.4472 55.584 31.1352 54.816 31.1352 53.868ZM32.2032 53.868C32.2032 54.528 32.4072 55.08 32.8272 55.512C33.2472 55.944 33.7752 56.16 34.4352 56.16C35.0952 56.16 35.6472 55.944 36.0672 55.524C36.4872 55.104 36.6912 54.552 36.6912 53.868C36.6912 53.184 36.4752 52.632 36.0552 52.2C35.6232 51.78 35.0832 51.564 34.4352 51.564C33.7872 51.564 33.2592 51.78 32.8392 52.2C32.4192 52.62 32.2032 53.184 32.2032 53.868ZM41.5418 57H38.7578V50.76H41.3498C43.0898 50.76 43.9058 51.204 43.9058 52.356C43.9058 52.932 43.6418 53.388 43.1018 53.712C43.7738 53.916 44.1098 54.408 44.1098 55.212C44.1098 56.376 43.1858 57 41.5418 57ZM41.5538 54.276H39.7658V56.064H41.4338C42.5018 56.064 43.0418 55.764 43.0418 55.164C43.0418 54.576 42.5498 54.276 41.5538 54.276ZM41.3138 51.696H39.7658V53.364H41.6618C42.3938 53.364 42.8378 53.064 42.8378 52.5C42.8378 51.864 42.3218 51.696 41.3138 51.696ZM49.9542 55.2L50.6742 55.716C50.2062 56.592 49.1502 57.108 48.1062 57.108C47.1102 57.108 46.3062 56.808 45.6942 56.22C45.0822 55.632 44.7702 54.852 44.7702 53.868C44.7702 52.932 45.0702 52.152 45.6822 51.54C46.2942 50.928 47.0742 50.616 48.0462 50.616C49.1622 50.616 50.1582 51.12 50.5782 51.888L49.7982 52.416C49.3782 51.852 48.8022 51.564 48.0702 51.564C47.4222 51.564 46.8942 51.78 46.4742 52.212C46.0542 52.644 45.8382 53.196 45.8382 53.868C45.8382 54.552 46.0542 55.104 46.4982 55.524C46.9302 55.944 47.4942 56.16 48.2022 56.16C48.9462 56.16 49.5342 55.836 49.9542 55.2ZM52.393 57H51.385V50.76H52.393V53.556L55.549 50.76H56.905L53.677 53.628L57.061 57H55.717L52.909 54.252L52.393 54.732V57ZM62.3094 52.332L58.5054 57H57.5814V50.76H58.5894V55.44L62.3814 50.76H63.3174V57H62.3094V52.332ZM69.3847 52.332L65.5807 57H64.6567V50.76H65.6647V55.44L69.4567 50.76H70.3927V57H69.3847V52.332ZM65.6167 48.072H66.5647C66.5767 48.66 66.9607 49.056 67.6327 49.056C68.2687 49.056 68.6647 48.66 68.6647 48.072H69.6127C69.6007 49.164 68.7487 49.86 67.6327 49.86C66.4327 49.86 65.6287 49.176 65.6167 48.072ZM46.2321 71.376L46.6281 70.5C46.7241 70.536 46.8081 70.56 46.8921 70.56C47.3601 70.56 47.6841 70.236 48.1041 69.24L48.2961 68.772L45.2721 62.76H46.4601L48.8001 67.5L50.5641 62.76H51.6681L49.2921 68.904C48.8841 69.912 48.5001 70.596 48.1521 70.968C47.7921 71.34 47.3841 71.52 46.9281 71.52C46.6641 71.52 46.4361 71.472 46.2321 71.376ZM54.4819 69.12C53.1979 69.12 52.2499 68.64 51.6619 67.692L52.4539 67.14C52.8019 67.776 53.5699 68.184 54.4939 68.184C55.4899 68.184 56.1979 67.776 56.1979 67.104C56.1979 66.552 55.7779 66.276 54.9499 66.276H53.4859V65.364H54.8779C55.4899 65.364 55.9699 65.004 55.9699 64.464C55.9699 63.876 55.3459 63.54 54.4459 63.54C53.6899 63.54 53.0659 63.828 52.5979 64.416L51.8539 63.924C52.2739 63.204 53.2339 62.604 54.5419 62.604C56.1139 62.604 57.0379 63.264 57.0379 64.308C57.0379 64.896 56.7859 65.352 56.2939 65.652C57.0139 66 57.2659 66.42 57.2659 67.08C57.2659 67.716 57.0019 68.208 56.4859 68.568C55.9699 68.94 55.2979 69.12 54.4819 69.12ZM63.094 67.212L63.742 67.812C63.166 68.676 62.338 69.108 61.246 69.108C60.25 69.108 59.446 68.808 58.834 68.22C58.222 67.632 57.922 66.852 57.922 65.868C57.922 64.92 58.198 64.14 58.762 63.528C59.314 62.916 60.094 62.616 61.102 62.616C61.93 62.616 62.626 62.88 63.166 63.396C63.706 63.912 63.982 64.596 63.982 65.448C63.982 65.724 63.958 65.976 63.922 66.204H59.002C59.062 67.44 59.974 68.16 61.282 68.16C62.014 68.16 62.71 67.776 63.094 67.212ZM61.03 63.54C59.89 63.54 59.146 64.236 58.99 65.292H62.914C62.854 64.188 62.146 63.54 61.03 63.54ZM70.2654 69H69.2574V63.72H66.6174V64.008C66.6174 66.024 66.3894 67.416 65.9334 68.136C65.4774 68.856 64.9134 69.096 64.1334 69V68.04C64.9374 68.04 65.6094 67.692 65.6094 64.044V62.76H70.2654V69Z" fill="#1A3341"/>
<path d="M81 121H92C92.5523 121 93 121.448 93 122V138C93 138.552 92.5523 139 92 139H81V121Z" fill="url(#paint4_linear_4001_19540)"/>
<path d="M101.49 126.804L101.042 125.754L104.402 124.144H105.2V134H103.996V125.642L101.49 126.804ZM113.747 134H112.529V131.998H106.537V131.186L112.669 124.2H113.747V130.864H115.567V131.998H113.747V134ZM112.529 126.16L108.217 130.864H112.529V126.16ZM120.309 129.1C120.309 127.588 120.659 126.37 121.373 125.46C122.073 124.55 123.109 124.088 124.467 124.088C127.253 124.088 128.639 125.922 128.639 129.1C128.639 130.626 128.289 131.83 127.603 132.74C126.903 133.65 125.867 134.112 124.495 134.112C123.179 134.112 122.157 133.65 121.415 132.726C120.673 131.802 120.309 130.598 120.309 129.1ZM121.597 129.1C121.597 131.494 122.689 132.922 124.495 132.922C126.399 132.922 127.351 131.648 127.351 129.1C127.351 126.552 126.385 125.278 124.467 125.278C122.521 125.278 121.597 126.678 121.597 129.1ZM137.833 128.918C137.833 130.584 137.441 131.872 136.643 132.768C135.845 133.678 134.781 134.126 133.451 134.126C131.827 134.126 130.553 133.44 129.923 132.39L130.931 131.69C131.491 132.474 132.513 132.922 133.619 132.922C134.529 132.922 135.257 132.558 135.831 131.83C136.405 131.116 136.643 130.22 136.573 129.156C136.111 130.22 134.949 131.004 133.395 131.004C132.303 131.004 131.407 130.696 130.707 130.066C129.993 129.45 129.643 128.638 129.643 127.644C129.643 126.552 130.021 125.684 130.777 125.04C131.533 124.396 132.541 124.074 133.787 124.074C136.307 124.074 137.833 125.838 137.833 128.918ZM136.363 127.602C136.153 126.3 135.257 125.278 133.647 125.278C131.967 125.278 130.931 126.146 130.931 127.602C130.931 128.988 131.981 129.8 133.619 129.8C134.361 129.8 134.991 129.576 135.481 129.128C135.971 128.68 136.265 128.176 136.363 127.602ZM142.746 128.414H143.18C143.81 128.414 144.328 128.26 144.762 127.966C145.182 127.672 145.392 127.28 145.392 126.818C145.392 125.768 144.566 125.236 142.928 125.236C141.36 125.236 140.506 125.81 140.506 126.818C140.506 127.728 141.444 128.414 142.746 128.414ZM143.152 129.52H142.802C142.046 129.52 141.416 129.688 140.926 130.01C140.436 130.332 140.184 130.738 140.184 131.228C140.184 132.292 141.164 132.964 142.942 132.964C144.748 132.964 145.714 132.32 145.714 131.242C145.714 130.164 144.678 129.52 143.152 129.52ZM145.91 133.37C145.196 133.874 144.202 134.126 142.956 134.126C141.71 134.126 140.716 133.874 139.988 133.384C139.26 132.894 138.896 132.222 138.896 131.354C138.896 130.22 139.638 129.324 140.828 128.932C139.75 128.582 139.218 127.728 139.218 126.734C139.218 125.11 140.59 124.074 142.942 124.074C145.308 124.074 146.68 125.11 146.68 126.734C146.68 127.672 146.162 128.386 145.126 128.862C146.372 129.24 146.988 130.052 146.988 131.298C146.988 132.18 146.624 132.88 145.91 133.37Z" fill="#1A3341"/>
<path d="M81 145H129C129.552 145 130 145.448 130 146V162C130 162.552 129.552 163 129 163H81V145Z" fill="url(#paint5_linear_4001_19540)"/>
<path d="M140.03 153.492L139.022 153.226L139.596 148.2H145.756V149.39H140.674L140.31 152.022C140.8 151.658 141.542 151.476 142.536 151.476C143.684 151.476 144.58 151.784 145.238 152.386C145.882 153.002 146.204 153.786 146.204 154.752C146.204 155.718 145.84 156.53 145.126 157.16C144.398 157.804 143.488 158.126 142.41 158.126C140.576 158.126 139.05 157.258 138.42 155.732L139.54 155.256C139.946 156.194 140.996 156.936 142.41 156.936C144.02 156.936 144.916 156.012 144.916 154.794C144.916 153.492 143.866 152.652 142.2 152.652C141.304 152.652 140.576 152.932 140.03 153.492ZM155.415 152.918C155.415 154.584 155.023 155.872 154.225 156.768C153.427 157.678 152.363 158.126 151.033 158.126C149.409 158.126 148.135 157.44 147.505 156.39L148.513 155.69C149.073 156.474 150.095 156.922 151.201 156.922C152.111 156.922 152.839 156.558 153.413 155.83C153.987 155.116 154.225 154.22 154.155 153.156C153.693 154.22 152.531 155.004 150.977 155.004C149.885 155.004 148.989 154.696 148.289 154.066C147.575 153.45 147.225 152.638 147.225 151.644C147.225 150.552 147.603 149.684 148.359 149.04C149.115 148.396 150.123 148.074 151.369 148.074C153.889 148.074 155.415 149.838 155.415 152.918ZM153.945 151.602C153.735 150.3 152.839 149.278 151.229 149.278C149.549 149.278 148.513 150.146 148.513 151.602C148.513 152.988 149.563 153.8 151.201 153.8C151.943 153.8 152.573 153.576 153.063 153.128C153.553 152.68 153.847 152.176 153.945 151.602ZM167.284 158H166.066V155.998H160.074V155.186L166.206 148.2H167.284V154.864H169.104V155.998H167.284V158ZM166.066 150.16L161.754 154.864H166.066V150.16ZM177.936 152.918C177.936 154.584 177.544 155.872 176.746 156.768C175.948 157.678 174.884 158.126 173.554 158.126C171.93 158.126 170.656 157.44 170.026 156.39L171.034 155.69C171.594 156.474 172.616 156.922 173.722 156.922C174.632 156.922 175.36 156.558 175.934 155.83C176.508 155.116 176.746 154.22 176.676 153.156C176.214 154.22 175.052 155.004 173.498 155.004C172.406 155.004 171.51 154.696 170.81 154.066C170.096 153.45 169.746 152.638 169.746 151.644C169.746 150.552 170.124 149.684 170.88 149.04C171.636 148.396 172.644 148.074 173.89 148.074C176.41 148.074 177.936 149.838 177.936 152.918ZM176.466 151.602C176.256 150.3 175.36 149.278 173.75 149.278C172.07 149.278 171.034 150.146 171.034 151.602C171.034 152.988 172.084 153.8 173.722 153.8C174.464 153.8 175.094 153.576 175.584 153.128C176.074 152.68 176.368 152.176 176.466 151.602ZM185.748 158H184.53V155.998H178.538V155.186L184.67 148.2H185.748V154.864H187.568V155.998H185.748V158ZM184.53 150.16L180.218 154.864H184.53V150.16Z" fill="#1A3341"/>
<path opacity="0.6" d="M19.3725 136.6H25.3725V137.62H20.4645V140.032H22.9605C24.9405 140.032 25.9965 140.884 25.9965 142.432C25.9965 144.16 24.7845 145 22.6365 145H19.3725V136.6ZM22.7925 141.052H20.4645V143.98H22.7205C24.1485 143.98 24.8685 143.464 24.8685 142.444C24.8685 141.52 24.1725 141.052 22.7925 141.052ZM31.8424 143.212L32.4904 143.812C31.9144 144.676 31.0864 145.108 29.9944 145.108C28.9984 145.108 28.1944 144.808 27.5824 144.22C26.9704 143.632 26.6704 142.852 26.6704 141.868C26.6704 140.92 26.9464 140.14 27.5104 139.528C28.0624 138.916 28.8424 138.616 29.8504 138.616C30.6784 138.616 31.3744 138.88 31.9144 139.396C32.4544 139.912 32.7304 140.596 32.7304 141.448C32.7304 141.724 32.7064 141.976 32.6704 142.204H27.7504C27.8104 143.44 28.7224 144.16 30.0304 144.16C30.7624 144.16 31.4584 143.776 31.8424 143.212ZM29.7784 139.54C28.6384 139.54 27.8944 140.236 27.7384 141.292H31.6624C31.6024 140.188 30.8944 139.54 29.7784 139.54ZM39.0138 145H38.0058V139.72H35.3658V140.008C35.3658 142.024 35.1378 143.416 34.6818 144.136C34.2258 144.856 33.6618 145.096 32.8818 145V144.04C33.6858 144.04 34.3578 143.692 34.3578 140.044V138.76H39.0138V145ZM40.8404 140.26L40.3244 139.504C40.9004 138.964 41.8964 138.616 42.8204 138.616C44.4884 138.616 45.3764 139.528 45.3764 141.148V145H44.3684V144.076C43.9724 144.652 43.1924 145.084 42.1844 145.084C40.8284 145.084 39.9164 144.328 39.9164 143.176C39.9164 141.868 41.0324 141.244 42.9044 141.244C43.4924 141.244 43.9724 141.304 44.3684 141.424C44.3684 140.212 43.9364 139.564 42.7004 139.564C42.0764 139.564 41.4524 139.792 40.8404 140.26ZM42.4244 144.172C42.8924 144.172 43.3124 144.04 43.6604 143.788C44.0084 143.536 44.2364 143.248 44.3684 142.948V142.312C44.0204 142.192 43.5764 142.132 43.0364 142.132C41.6684 142.132 40.9844 142.468 40.9844 143.14C40.9844 143.776 41.5604 144.172 42.4244 144.172ZM47.6586 147.4H46.6506V138.76H47.6586V139.54C48.0786 138.928 48.7506 138.616 49.6746 138.616C50.5866 138.616 51.3186 138.904 51.8586 139.492C52.3986 140.08 52.6626 140.836 52.6626 141.772C52.6626 142.732 52.3746 143.524 51.7986 144.16C51.2106 144.796 50.4666 145.108 49.5546 145.108C48.7146 145.108 48.0786 144.892 47.6586 144.472V147.4ZM49.5666 139.564C48.6546 139.564 47.9466 140.152 47.6586 140.86V143.188C48.0186 143.836 48.6186 144.16 49.4706 144.16C50.0826 144.16 50.5986 143.944 50.9946 143.512C51.3906 143.08 51.5946 142.528 51.5946 141.844C51.5946 140.452 50.8146 139.564 49.5666 139.564ZM53.5418 147.376L53.9378 146.5C54.0338 146.536 54.1178 146.56 54.2018 146.56C54.6698 146.56 54.9938 146.236 55.4138 145.24L55.6058 144.772L52.5818 138.76H53.7698L56.1098 143.5L57.8738 138.76H58.9778L56.6018 144.904C56.1938 145.912 55.8098 146.596 55.4618 146.968C55.1018 147.34 54.6938 147.52 54.2378 147.52C53.9738 147.52 53.7458 147.472 53.5418 147.376ZM64.1138 143.2L64.8338 143.716C64.3658 144.592 63.3098 145.108 62.2658 145.108C61.2698 145.108 60.4658 144.808 59.8538 144.22C59.2418 143.632 58.9298 142.852 58.9298 141.868C58.9298 140.932 59.2298 140.152 59.8418 139.54C60.4538 138.928 61.2338 138.616 62.2058 138.616C63.3218 138.616 64.3178 139.12 64.7378 139.888L63.9578 140.416C63.5378 139.852 62.9618 139.564 62.2298 139.564C61.5818 139.564 61.0538 139.78 60.6338 140.212C60.2138 140.644 59.9978 141.196 59.9978 141.868C59.9978 142.552 60.2138 143.104 60.6578 143.524C61.0898 143.944 61.6538 144.16 62.3618 144.16C63.1058 144.16 63.6938 143.836 64.1138 143.2ZM68.0645 145H65.5445V138.76H66.5525V140.704H68.1605C69.8645 140.704 70.7165 141.412 70.7165 142.84C70.7165 144.1 69.9245 145 68.0645 145ZM68.0285 141.664H66.5525V144.04H68.0285C69.1805 144.04 69.6485 143.632 69.6485 142.852C69.6485 142.06 69.1085 141.664 68.0285 141.664Z" fill="#1A3341"/>
<path d="M81 196H96C96.5523 196 97 196.448 97 197V213C97 213.552 96.5523 214 96 214H81V196Z" fill="url(#paint6_linear_4001_19540)"/>
<path d="M105.49 201.804L105.042 200.754L108.402 199.144H109.2V209H107.996V200.642L105.49 201.804ZM114.849 203.414H115.283C115.913 203.414 116.431 203.26 116.865 202.966C117.285 202.672 117.495 202.28 117.495 201.818C117.495 200.768 116.669 200.236 115.031 200.236C113.463 200.236 112.609 200.81 112.609 201.818C112.609 202.728 113.547 203.414 114.849 203.414ZM115.255 204.52H114.905C114.149 204.52 113.519 204.688 113.029 205.01C112.539 205.332 112.287 205.738 112.287 206.228C112.287 207.292 113.267 207.964 115.045 207.964C116.851 207.964 117.817 207.32 117.817 206.242C117.817 205.164 116.781 204.52 115.255 204.52ZM118.013 208.37C117.299 208.874 116.305 209.126 115.059 209.126C113.813 209.126 112.819 208.874 112.091 208.384C111.363 207.894 110.999 207.222 110.999 206.354C110.999 205.22 111.741 204.324 112.931 203.932C111.853 203.582 111.321 202.728 111.321 201.734C111.321 200.11 112.693 199.074 115.045 199.074C117.411 199.074 118.783 200.11 118.783 201.734C118.783 202.672 118.265 203.386 117.229 203.862C118.475 204.24 119.091 205.052 119.091 206.298C119.091 207.18 118.727 207.88 118.013 208.37ZM132.389 203.918C132.389 205.584 131.997 206.872 131.199 207.768C130.401 208.678 129.337 209.126 128.007 209.126C126.383 209.126 125.109 208.44 124.479 207.39L125.487 206.69C126.047 207.474 127.069 207.922 128.175 207.922C129.085 207.922 129.813 207.558 130.387 206.83C130.961 206.116 131.199 205.22 131.129 204.156C130.667 205.22 129.505 206.004 127.951 206.004C126.859 206.004 125.963 205.696 125.263 205.066C124.549 204.45 124.199 203.638 124.199 202.644C124.199 201.552 124.577 200.684 125.333 200.04C126.089 199.396 127.097 199.074 128.343 199.074C130.863 199.074 132.389 200.838 132.389 203.918ZM130.919 202.602C130.709 201.3 129.813 200.278 128.203 200.278C126.523 200.278 125.487 201.146 125.487 202.602C125.487 203.988 126.537 204.8 128.175 204.8C128.917 204.8 129.547 204.576 130.037 204.128C130.527 203.68 130.821 203.176 130.919 202.602ZM134.558 202.434L133.536 202.07C133.886 200.334 135.202 199.088 137.288 199.088C139.304 199.088 140.536 200.25 140.536 202.028C140.536 202.966 140.13 203.904 139.626 204.576C139.374 204.926 139.052 205.262 138.674 205.612C137.904 206.298 137.358 206.662 136.56 207.166L135.482 207.838H140.9V209H133.27V208.048L135.398 206.634C135.776 206.396 136.042 206.214 136.196 206.102C136.35 206.004 136.602 205.822 136.938 205.584C137.274 205.346 137.526 205.136 137.694 204.982C137.848 204.828 138.058 204.632 138.296 204.38C138.94 203.68 139.178 203.036 139.248 202.154C139.248 200.88 138.422 200.306 137.204 200.306C136.448 200.306 135.846 200.516 135.412 200.936C134.978 201.356 134.684 201.86 134.558 202.434ZM145.735 203.414H146.169C146.799 203.414 147.317 203.26 147.751 202.966C148.171 202.672 148.381 202.28 148.381 201.818C148.381 200.768 147.555 200.236 145.917 200.236C144.349 200.236 143.495 200.81 143.495 201.818C143.495 202.728 144.433 203.414 145.735 203.414ZM146.141 204.52H145.791C145.035 204.52 144.405 204.688 143.915 205.01C143.425 205.332 143.173 205.738 143.173 206.228C143.173 207.292 144.153 207.964 145.931 207.964C147.737 207.964 148.703 207.32 148.703 206.242C148.703 205.164 147.667 204.52 146.141 204.52ZM148.899 208.37C148.185 208.874 147.191 209.126 145.945 209.126C144.699 209.126 143.705 208.874 142.977 208.384C142.249 207.894 141.885 207.222 141.885 206.354C141.885 205.22 142.627 204.324 143.817 203.932C142.739 203.582 142.207 202.728 142.207 201.734C142.207 200.11 143.579 199.074 145.931 199.074C148.297 199.074 149.669 200.11 149.669 201.734C149.669 202.672 149.151 203.386 148.115 203.862C149.361 204.24 149.977 205.052 149.977 206.298C149.977 207.18 149.613 207.88 148.899 208.37Z" fill="#1A3341"/>
<path d="M81 220H102C102.552 220 103 220.448 103 221V237C103 237.552 102.552 238 102 238H81V220Z" fill="url(#paint7_linear_4001_19540)"/>
<path d="M112.722 226.434L111.7 226.07C112.05 224.334 113.366 223.088 115.452 223.088C117.468 223.088 118.7 224.25 118.7 226.028C118.7 226.966 118.294 227.904 117.79 228.576C117.538 228.926 117.216 229.262 116.838 229.612C116.068 230.298 115.522 230.662 114.724 231.166L113.646 231.838H119.064V233H111.434V232.048L113.562 230.634C113.94 230.396 114.206 230.214 114.36 230.102C114.514 230.004 114.766 229.822 115.102 229.584C115.438 229.346 115.69 229.136 115.858 228.982C116.012 228.828 116.222 228.632 116.46 228.38C117.104 227.68 117.342 227.036 117.412 226.154C117.412 224.88 116.586 224.306 115.368 224.306C114.612 224.306 114.01 224.516 113.576 224.936C113.142 225.356 112.848 225.86 112.722 226.434ZM121.462 228.492L120.454 228.226L121.028 223.2H127.188V224.39H122.106L121.742 227.022C122.232 226.658 122.974 226.476 123.968 226.476C125.116 226.476 126.012 226.784 126.67 227.386C127.314 228.002 127.636 228.786 127.636 229.752C127.636 230.718 127.272 231.53 126.558 232.16C125.83 232.804 124.92 233.126 123.842 233.126C122.008 233.126 120.482 232.258 119.852 230.732L120.972 230.256C121.378 231.194 122.428 231.936 123.842 231.936C125.452 231.936 126.348 231.012 126.348 229.794C126.348 228.492 125.298 227.652 123.632 227.652C122.736 227.652 122.008 227.932 121.462 228.492ZM134.184 228.492L133.176 228.226L133.75 223.2H139.91V224.39H134.828L134.464 227.022C134.954 226.658 135.696 226.476 136.69 226.476C137.838 226.476 138.734 226.784 139.392 227.386C140.036 228.002 140.358 228.786 140.358 229.752C140.358 230.718 139.994 231.53 139.28 232.16C138.552 232.804 137.642 233.126 136.564 233.126C134.73 233.126 133.204 232.258 132.574 230.732L133.694 230.256C134.1 231.194 135.15 231.936 136.564 231.936C138.174 231.936 139.07 231.012 139.07 229.794C139.07 228.492 138.02 227.652 136.354 227.652C135.458 227.652 134.73 227.932 134.184 228.492ZM142.849 228.492L141.841 228.226L142.415 223.2H148.575V224.39H143.493L143.129 227.022C143.619 226.658 144.361 226.476 145.355 226.476C146.503 226.476 147.399 226.784 148.057 227.386C148.701 228.002 149.023 228.786 149.023 229.752C149.023 230.718 148.659 231.53 147.945 232.16C147.217 232.804 146.307 233.126 145.229 233.126C143.395 233.126 141.869 232.258 141.239 230.732L142.359 230.256C142.765 231.194 143.815 231.936 145.229 231.936C146.839 231.936 147.735 231.012 147.735 229.794C147.735 228.492 146.685 227.652 145.019 227.652C144.123 227.652 143.395 227.932 142.849 228.492ZM150.086 228.1C150.086 226.588 150.436 225.37 151.15 224.46C151.85 223.55 152.886 223.088 154.244 223.088C157.03 223.088 158.416 224.922 158.416 228.1C158.416 229.626 158.066 230.83 157.38 231.74C156.68 232.65 155.644 233.112 154.272 233.112C152.956 233.112 151.934 232.65 151.192 231.726C150.45 230.802 150.086 229.598 150.086 228.1ZM151.374 228.1C151.374 230.494 152.466 231.922 154.272 231.922C156.176 231.922 157.128 230.648 157.128 228.1C157.128 225.552 156.162 224.278 154.244 224.278C152.298 224.278 151.374 225.678 151.374 228.1Z" fill="#1A3341"/>
<path opacity="0.6" d="M35.7675 215H34.6755V207.62H29.7195V215H28.6275V206.6H35.7675V215ZM38.2775 217.4H37.2695V208.76H38.2775V209.54C38.6975 208.928 39.3695 208.616 40.2935 208.616C41.2055 208.616 41.9375 208.904 42.4775 209.492C43.0175 210.08 43.2815 210.836 43.2815 211.772C43.2815 212.732 42.9935 213.524 42.4175 214.16C41.8295 214.796 41.0855 215.108 40.1735 215.108C39.3335 215.108 38.6975 214.892 38.2775 214.472V217.4ZM40.1855 209.564C39.2735 209.564 38.5655 210.152 38.2775 210.86V213.188C38.6375 213.836 39.2375 214.16 40.0895 214.16C40.7015 214.16 41.2175 213.944 41.6135 213.512C42.0095 213.08 42.2135 212.528 42.2135 211.844C42.2135 210.452 41.4335 209.564 40.1855 209.564ZM43.9265 211.868C43.9265 210.92 44.2385 210.14 44.8505 209.528C45.4625 208.916 46.2545 208.616 47.2265 208.616C48.2105 208.616 49.0145 208.916 49.6265 209.528C50.2385 210.14 50.5505 210.92 50.5505 211.868C50.5505 212.816 50.2385 213.584 49.6265 214.196C49.0025 214.808 48.1985 215.108 47.2265 215.108C46.2545 215.108 45.4625 214.808 44.8505 214.196C44.2385 213.584 43.9265 212.816 43.9265 211.868ZM44.9945 211.868C44.9945 212.528 45.1985 213.08 45.6185 213.512C46.0385 213.944 46.5665 214.16 47.2265 214.16C47.8865 214.16 48.4385 213.944 48.8585 213.524C49.2785 213.104 49.4825 212.552 49.4825 211.868C49.4825 211.184 49.2665 210.632 48.8465 210.2C48.4145 209.78 47.8745 209.564 47.2265 209.564C46.5785 209.564 46.0505 209.78 45.6305 210.2C45.2105 210.62 44.9945 211.184 44.9945 211.868ZM55.593 208.76H56.601V215H55.593V212.372C55.137 212.828 54.501 213.056 53.685 213.056C52.041 213.056 51.225 212.228 51.225 210.572V208.76H52.233V210.296C52.233 211.556 52.761 212.096 53.865 212.096C54.585 212.096 55.269 211.712 55.593 211.244V208.76ZM62.6727 210.332L58.8687 215H57.9447V208.76H58.9527V213.44L62.7447 208.76H63.6807V215H62.6727V210.332ZM69.844 213.212L70.492 213.812C69.916 214.676 69.088 215.108 67.996 215.108C67 215.108 66.196 214.808 65.584 214.22C64.972 213.632 64.672 212.852 64.672 211.868C64.672 210.92 64.948 210.14 65.512 209.528C66.064 208.916 66.844 208.616 67.852 208.616C68.68 208.616 69.376 208.88 69.916 209.396C70.456 209.912 70.732 210.596 70.732 211.448C70.732 211.724 70.708 211.976 70.672 212.204H65.752C65.812 213.44 66.724 214.16 68.032 214.16C68.764 214.16 69.46 213.776 69.844 213.212ZM67.78 209.54C66.64 209.54 65.896 210.236 65.74 211.292H69.664C69.604 210.188 68.896 209.54 67.78 209.54ZM11.2093 227H10.2013V224.3H6.60125V227H5.59325V220.76H6.60125V223.352H10.2013V220.76H11.2093V227ZM13.0314 222.26L12.5154 221.504C13.0914 220.964 14.0874 220.616 15.0114 220.616C16.6794 220.616 17.5674 221.528 17.5674 223.148V227H16.5594V226.076C16.1634 226.652 15.3834 227.084 14.3754 227.084C13.0194 227.084 12.1074 226.328 12.1074 225.176C12.1074 223.868 13.2234 223.244 15.0954 223.244C15.6834 223.244 16.1634 223.304 16.5594 223.424C16.5594 222.212 16.1274 221.564 14.8914 221.564C14.2674 221.564 13.6434 221.792 13.0314 222.26ZM14.6154 226.172C15.0834 226.172 15.5034 226.04 15.8514 225.788C16.1994 225.536 16.4274 225.248 16.5594 224.948V224.312C16.2114 224.192 15.7674 224.132 15.2274 224.132C13.8594 224.132 13.1754 224.468 13.1754 225.14C13.1754 225.776 13.7514 226.172 14.6154 226.172ZM21.0975 227.12C19.8135 227.12 18.8655 226.64 18.2775 225.692L19.0695 225.14C19.4175 225.776 20.1855 226.184 21.1095 226.184C22.1055 226.184 22.8135 225.776 22.8135 225.104C22.8135 224.552 22.3935 224.276 21.5655 224.276H20.1015V223.364H21.4935C22.1055 223.364 22.5855 223.004 22.5855 222.464C22.5855 221.876 21.9615 221.54 21.0615 221.54C20.3055 221.54 19.6815 221.828 19.2135 222.416L18.4695 221.924C18.8895 221.204 19.8495 220.604 21.1575 220.604C22.7295 220.604 23.6535 221.264 23.6535 222.308C23.6535 222.896 23.4015 223.352 22.9095 223.652C23.6295 224 23.8815 224.42 23.8815 225.08C23.8815 225.716 23.6175 226.208 23.1015 226.568C22.5855 226.94 21.9135 227.12 21.0975 227.12ZM30.5016 227H29.4936V224.3H25.8936V227H24.8856V220.76H25.8936V223.352H29.4936V220.76H30.5016V227ZM32.3237 222.26L31.8077 221.504C32.3837 220.964 33.3797 220.616 34.3037 220.616C35.9717 220.616 36.8597 221.528 36.8597 223.148V227H35.8517V226.076C35.4557 226.652 34.6757 227.084 33.6677 227.084C32.3117 227.084 31.3997 226.328 31.3997 225.176C31.3997 223.868 32.5157 223.244 34.3877 223.244C34.9757 223.244 35.4557 223.304 35.8517 223.424C35.8517 222.212 35.4197 221.564 34.1837 221.564C33.5597 221.564 32.9357 221.792 32.3237 222.26ZM33.9077 226.172C34.3757 226.172 34.7957 226.04 35.1437 225.788C35.4917 225.536 35.7197 225.248 35.8517 224.948V224.312C35.5037 224.192 35.0597 224.132 34.5197 224.132C33.1517 224.132 32.4677 224.468 32.4677 225.14C32.4677 225.776 33.0437 226.172 33.9077 226.172ZM42.1779 220.76H43.1859V227H42.1779V224.372C41.7219 224.828 41.0859 225.056 40.2699 225.056C38.6259 225.056 37.8099 224.228 37.8099 222.572V220.76H38.8179V222.296C38.8179 223.556 39.3459 224.096 40.4499 224.096C41.1699 224.096 41.8539 223.712 42.1779 223.244V220.76ZM49.3535 225.212L50.0015 225.812C49.4255 226.676 48.5975 227.108 47.5055 227.108C46.5095 227.108 45.7055 226.808 45.0935 226.22C44.4815 225.632 44.1815 224.852 44.1815 223.868C44.1815 222.92 44.4575 222.14 45.0215 221.528C45.5735 220.916 46.3535 220.616 47.3615 220.616C48.1895 220.616 48.8855 220.88 49.4255 221.396C49.9655 221.912 50.2415 222.596 50.2415 223.448C50.2415 223.724 50.2175 223.976 50.1815 224.204H45.2615C45.3215 225.44 46.2335 226.16 47.5415 226.16C48.2735 226.16 48.9695 225.776 49.3535 225.212ZM47.2895 221.54C46.1495 221.54 45.4055 222.236 45.2495 223.292H49.1735C49.1135 222.188 48.4055 221.54 47.2895 221.54ZM56.8575 227H55.8495V224.3H52.2495V227H51.2415V220.76H52.2495V223.352H55.8495V220.76H56.8575V227ZM62.9277 222.332L59.1237 227H58.1997V220.76H59.2077V225.44L62.9997 220.76H63.9357V227H62.9277V222.332ZM67.759 220.76H70.267V227H69.259V224.792H67.735L65.887 227H64.663L66.655 224.636C65.695 224.456 65.059 223.724 65.059 222.764C65.059 221.576 65.887 220.76 67.759 220.76ZM66.127 222.788C66.127 223.4 66.703 223.832 67.615 223.832H69.259V221.72H67.639C66.631 221.72 66.127 222.08 66.127 222.788Z" fill="#1A3341"/>
<line x1="81.5" y1="32" x2="81.5" y2="262" stroke="#ABBEC9"/>
<path d="M171.196 224L166 232L176.393 232L171.196 224Z" fill="#737AF9"/>
<path d="M210.765 151.056L209.715 150.58C210.233 149.068 211.591 148.074 213.621 148.074C214.587 148.074 215.385 148.298 216.001 148.746C216.617 149.194 216.925 149.796 216.925 150.538C216.925 151.672 216.323 152.512 215.203 152.834C216.281 152.904 217.149 153.716 217.149 155.172C217.149 156.096 216.813 156.824 216.141 157.342C215.469 157.86 214.615 158.126 213.565 158.126C211.423 158.126 209.939 157.104 209.449 155.494L210.583 155.004C211.185 156.278 212.207 156.922 213.649 156.922C215.007 156.922 215.861 156.292 215.861 155.186C215.861 154.108 215.021 153.562 213.341 153.562H212.249V152.4H213.117C214.643 152.4 215.637 151.714 215.637 150.776C215.637 149.81 214.839 149.264 213.565 149.264C212.067 149.264 211.157 150.034 210.765 151.056ZM219.42 151.434L218.398 151.07C218.748 149.334 220.064 148.088 222.15 148.088C224.166 148.088 225.398 149.25 225.398 151.028C225.398 151.966 224.992 152.904 224.488 153.576C224.236 153.926 223.914 154.262 223.536 154.612C222.766 155.298 222.22 155.662 221.422 156.166L220.344 156.838H225.762V158H218.132V157.048L220.26 155.634C220.638 155.396 220.904 155.214 221.058 155.102C221.212 155.004 221.464 154.822 221.8 154.584C222.136 154.346 222.388 154.136 222.556 153.982C222.71 153.828 222.92 153.632 223.158 153.38C223.802 152.68 224.04 152.036 224.11 151.154C224.11 149.88 223.284 149.306 222.066 149.306C221.31 149.306 220.708 149.516 220.274 149.936C219.84 150.356 219.546 150.86 219.42 151.434ZM227.852 151.434L226.83 151.07C227.18 149.334 228.496 148.088 230.582 148.088C232.598 148.088 233.83 149.25 233.83 151.028C233.83 151.966 233.424 152.904 232.92 153.576C232.668 153.926 232.346 154.262 231.968 154.612C231.198 155.298 230.652 155.662 229.854 156.166L228.776 156.838H234.194V158H226.564V157.048L228.692 155.634C229.07 155.396 229.336 155.214 229.49 155.102C229.644 155.004 229.896 154.822 230.232 154.584C230.568 154.346 230.82 154.136 230.988 153.982C231.142 153.828 231.352 153.632 231.59 153.38C232.234 152.68 232.472 152.036 232.542 151.154C232.542 149.88 231.716 149.306 230.498 149.306C229.742 149.306 229.14 149.516 228.706 149.936C228.272 150.356 227.978 150.86 227.852 151.434ZM237.6 158.21L236.676 157.678L243.914 147.892L244.796 148.536L237.6 158.21ZM235.164 150.552C235.164 149.852 235.402 149.278 235.892 148.83C236.382 148.382 236.984 148.158 237.726 148.158C238.454 148.158 239.056 148.382 239.546 148.83C240.036 149.278 240.274 149.852 240.274 150.552C240.274 151.238 240.036 151.812 239.546 152.26C239.056 152.708 238.454 152.932 237.726 152.932C236.984 152.932 236.382 152.708 235.892 152.26C235.402 151.812 235.164 151.238 235.164 150.552ZM236.34 150.552C236.34 151.35 236.984 151.938 237.726 151.938C238.496 151.938 239.098 151.378 239.098 150.552C239.098 149.726 238.468 149.166 237.726 149.166C236.956 149.166 236.34 149.726 236.34 150.552ZM241.898 157.384C241.408 156.936 241.17 156.362 241.17 155.662C241.17 154.962 241.408 154.388 241.898 153.94C242.388 153.506 242.99 153.282 243.732 153.282C244.46 153.282 245.062 153.506 245.552 153.94C246.042 154.388 246.28 154.962 246.28 155.662C246.28 156.348 246.042 156.922 245.552 157.37C245.062 157.832 244.46 158.056 243.732 158.056C242.99 158.056 242.388 157.832 241.898 157.384ZM242.346 155.662C242.346 156.46 242.99 157.048 243.732 157.048C244.502 157.048 245.104 156.488 245.104 155.662C245.104 154.836 244.474 154.276 243.732 154.276C242.962 154.276 242.346 154.836 242.346 155.662Z" fill="#737AF9"/>
<path d="M200.196 149L195 157L205.393 157L200.196 149Z" fill="#737AF9"/>
<path d="M181.765 226.056L180.715 225.58C181.233 224.068 182.591 223.074 184.621 223.074C185.587 223.074 186.385 223.298 187.001 223.746C187.617 224.194 187.925 224.796 187.925 225.538C187.925 226.672 187.323 227.512 186.203 227.834C187.281 227.904 188.149 228.716 188.149 230.172C188.149 231.096 187.813 231.824 187.141 232.342C186.469 232.86 185.615 233.126 184.565 233.126C182.423 233.126 180.939 232.104 180.449 230.494L181.583 230.004C182.185 231.278 183.207 231.922 184.649 231.922C186.007 231.922 186.861 231.292 186.861 230.186C186.861 229.108 186.021 228.562 184.341 228.562H183.249V227.4H184.117C185.643 227.4 186.637 226.714 186.637 225.776C186.637 224.81 185.839 224.264 184.565 224.264C183.067 224.264 182.157 225.034 181.765 226.056ZM190.728 228.492L189.72 228.226L190.294 223.2H196.454V224.39H191.372L191.008 227.022C191.498 226.658 192.24 226.476 193.234 226.476C194.382 226.476 195.278 226.784 195.936 227.386C196.58 228.002 196.902 228.786 196.902 229.752C196.902 230.718 196.538 231.53 195.824 232.16C195.096 232.804 194.186 233.126 193.108 233.126C191.274 233.126 189.748 232.258 189.118 230.732L190.238 230.256C190.644 231.194 191.694 231.936 193.108 231.936C194.718 231.936 195.614 231.012 195.614 229.794C195.614 228.492 194.564 227.652 192.898 227.652C192.002 227.652 191.274 227.932 190.728 228.492ZM200.401 233.21L199.477 232.678L206.715 222.892L207.597 223.536L200.401 233.21ZM197.965 225.552C197.965 224.852 198.203 224.278 198.693 223.83C199.183 223.382 199.785 223.158 200.527 223.158C201.255 223.158 201.857 223.382 202.347 223.83C202.837 224.278 203.075 224.852 203.075 225.552C203.075 226.238 202.837 226.812 202.347 227.26C201.857 227.708 201.255 227.932 200.527 227.932C199.785 227.932 199.183 227.708 198.693 227.26C198.203 226.812 197.965 226.238 197.965 225.552ZM199.141 225.552C199.141 226.35 199.785 226.938 200.527 226.938C201.297 226.938 201.899 226.378 201.899 225.552C201.899 224.726 201.269 224.166 200.527 224.166C199.757 224.166 199.141 224.726 199.141 225.552ZM204.699 232.384C204.209 231.936 203.971 231.362 203.971 230.662C203.971 229.962 204.209 229.388 204.699 228.94C205.189 228.506 205.791 228.282 206.533 228.282C207.261 228.282 207.863 228.506 208.353 228.94C208.843 229.388 209.081 229.962 209.081 230.662C209.081 231.348 208.843 231.922 208.353 232.37C207.863 232.832 207.261 233.056 206.533 233.056C205.791 233.056 205.189 232.832 204.699 232.384ZM205.147 230.662C205.147 231.46 205.791 232.048 206.533 232.048C207.303 232.048 207.905 231.488 207.905 230.662C207.905 229.836 207.275 229.276 206.533 229.276C205.763 229.276 205.147 229.836 205.147 230.662Z" fill="#737AF9"/>
<path d="M309.765 76.056L308.715 75.58C309.233 74.068 310.591 73.074 312.621 73.074C313.587 73.074 314.385 73.298 315.001 73.746C315.617 74.194 315.925 74.796 315.925 75.538C315.925 76.672 315.323 77.512 314.203 77.834C315.281 77.904 316.149 78.716 316.149 80.172C316.149 81.096 315.813 81.824 315.141 82.342C314.469 82.86 313.615 83.126 312.565 83.126C310.423 83.126 308.939 82.104 308.449 80.494L309.583 80.004C310.185 81.278 311.207 81.922 312.649 81.922C314.007 81.922 314.861 81.292 314.861 80.186C314.861 79.108 314.021 78.562 312.341 78.562H311.249V77.4H312.117C313.643 77.4 314.637 76.714 314.637 75.776C314.637 74.81 313.839 74.264 312.565 74.264C311.067 74.264 310.157 75.034 309.765 76.056ZM317.188 75.804L316.74 74.754L320.1 73.144H320.898V83H319.694V74.642L317.188 75.804ZM325.119 83.21L324.195 82.678L331.433 72.892L332.315 73.536L325.119 83.21ZM322.683 75.552C322.683 74.852 322.921 74.278 323.411 73.83C323.901 73.382 324.503 73.158 325.245 73.158C325.973 73.158 326.575 73.382 327.065 73.83C327.555 74.278 327.793 74.852 327.793 75.552C327.793 76.238 327.555 76.812 327.065 77.26C326.575 77.708 325.973 77.932 325.245 77.932C324.503 77.932 323.901 77.708 323.411 77.26C322.921 76.812 322.683 76.238 322.683 75.552ZM323.859 75.552C323.859 76.35 324.503 76.938 325.245 76.938C326.015 76.938 326.617 76.378 326.617 75.552C326.617 74.726 325.987 74.166 325.245 74.166C324.475 74.166 323.859 74.726 323.859 75.552ZM329.417 82.384C328.927 81.936 328.689 81.362 328.689 80.662C328.689 79.962 328.927 79.388 329.417 78.94C329.907 78.506 330.509 78.282 331.251 78.282C331.979 78.282 332.581 78.506 333.071 78.94C333.561 79.388 333.799 79.962 333.799 80.662C333.799 81.348 333.561 81.922 333.071 82.37C332.581 82.832 331.979 83.056 331.251 83.056C330.509 83.056 329.907 82.832 329.417 82.384ZM329.865 80.662C329.865 81.46 330.509 82.048 331.251 82.048C332.021 82.048 332.623 81.488 332.623 80.662C332.623 79.836 331.993 79.276 331.251 79.276C330.481 79.276 329.865 79.836 329.865 80.662Z" fill="#737AF9"/>
<path d="M299.196 74L294 82L304.393 82L299.196 74Z" fill="#737AF9"/>
<defs>
<linearGradient id="paint0_linear_4001_19540" x1="5" y1="2" x2="5" y2="12" gradientUnits="userSpaceOnUse">
<stop offset="0" stop-color="#CDE3E9"/>
<stop offset="1" stop-color="#D3E8ED"/>
</linearGradient>
<linearGradient id="paint1_linear_4001_19540" x1="89" y1="2" x2="89" y2="12" gradientUnits="userSpaceOnUse">
<stop offset="0" stop-color="#6D73F9"/>
<stop offset="1" stop-color="#9BB8F1"/>
</linearGradient>
<linearGradient id="paint2_linear_4001_19540" x1="86.1905" y1="64" x2="190" y2="64" gradientUnits="userSpaceOnUse">
<stop offset="0" stop-color="#CEE8EF"/>
<stop offset="1" stop-color="#CEE8EF"/>
</linearGradient>
<linearGradient id="paint3_linear_4001_19540" x1="223" y1="79" x2="81" y2="79" gradientUnits="userSpaceOnUse">
<stop offset="0" stop-color="#6D73F9"/>
<stop offset="1" stop-color="#9BB8F1"/>
</linearGradient>
<linearGradient id="paint4_linear_4001_19540" x1="81.5714" y1="139" x2="93" y2="139" gradientUnits="userSpaceOnUse">
<stop offset="0" stop-color="#CEE8EF"/>
<stop offset="1" stop-color="#CEE8EF"/>
</linearGradient>
<linearGradient id="paint5_linear_4001_19540" x1="130" y1="154" x2="81" y2="154" gradientUnits="userSpaceOnUse">
<stop offset="0" stop-color="#6D73F9"/>
<stop offset="1" stop-color="#9BB8F1"/>
</linearGradient>
<linearGradient id="paint6_linear_4001_19540" x1="81.7619" y1="214" x2="97" y2="214" gradientUnits="userSpaceOnUse">
<stop offset="0" stop-color="#CEE8EF"/>
<stop offset="1" stop-color="#CEE8EF"/>
</linearGradient>
<linearGradient id="paint7_linear_4001_19540" x1="103" y1="229" x2="81" y2="229" gradientUnits="userSpaceOnUse">
<stop offset="0" stop-color="#6D73F9"/>
<stop offset="1" stop-color="#9BB8F1"/>
</linearGradient>
</defs>
</svg>
