<svg width="338" height="251" viewBox="0 0 338 251" fill="none" xmlns="http://www.w3.org/2000/svg">
<path d="M23.8333 148.862H16.4825V146.424H26.3082V155.807C25.2369 156.952 23.7594 157.875 21.9494 158.54C20.1394 159.242 18.2925 159.575 16.4456 159.575C12.5301 159.575 9.31647 158.356 6.80466 155.918C4.25591 153.517 3 150.303 3 146.314C3 142.583 4.25591 139.443 6.80466 136.894C9.35341 134.346 12.4562 133.053 16.1501 133.053C20.3241 133.053 23.5008 134.309 25.6802 136.784L24.1288 138.52C22.2819 136.488 19.6962 135.491 16.3717 135.491C13.2319 135.491 10.6463 136.488 8.68852 138.52C6.69384 140.551 5.69651 143.137 5.69651 146.314C5.69651 149.601 6.69384 152.224 8.72546 154.182C10.7571 156.139 13.3428 157.137 16.5195 157.137C19.4007 157.137 21.8386 156.287 23.8333 154.625V148.862Z" fill="#1A3341"/>
<path d="M43.5192 164.519H42.0786V153.438H49.9623V154.783H43.5192V164.519Z" fill="#1A3341"/>
<path d="M39.8905 164.519H38.4499V154.783H31.9118V164.519H30.4712V153.438H39.8905V164.519Z" fill="#1A3341"/>
<path d="M118.24 122.884V132.857H115.617V107H124.926C131.907 107 135.416 109.623 135.416 114.905C135.416 117.195 134.567 119.079 132.904 120.593C131.205 122.108 128.546 122.884 124.889 122.884H118.24ZM125.11 109.401H118.24V120.483H124.815C130.134 120.483 132.72 118.377 132.72 114.868C132.72 111.211 130.171 109.401 125.11 109.401Z" fill="#1A3341"/>
<path d="M157.386 134.05V138.134H155.945V127.053H160.251C163.275 127.053 164.795 128.208 164.795 130.536C164.795 131.533 164.431 132.372 163.702 133.037C162.958 133.717 161.803 134.05 160.235 134.05H157.386ZM160.315 128.398H157.386V132.72H160.204C162.293 132.72 163.307 131.897 163.307 130.52C163.307 129.111 162.309 128.398 160.315 128.398Z" fill="#1A3341"/>
<path d="M152.869 133.147H147.091V131.802H152.854C152.6 129.633 151.065 128.256 148.674 128.256C147.408 128.256 145.951 128.921 145.128 129.95L144.163 129.031C145.176 127.686 146.996 126.91 148.769 126.91C150.495 126.91 151.856 127.417 152.854 128.43C153.851 129.443 154.342 130.82 154.342 132.546C154.342 134.24 153.835 135.617 152.822 136.678C151.809 137.738 150.416 138.277 148.643 138.277C146.917 138.277 145.16 137.596 144.131 136.155L145.112 135.332C145.856 136.345 147.313 136.931 148.722 136.931C149.893 136.931 150.859 136.583 151.603 135.886C152.347 135.19 152.774 134.271 152.869 133.147Z" fill="#1A3341"/>
<path d="M138.733 128.398H134.886V127.053H144.036V128.398H140.174V138.134H138.733V128.398Z" fill="#1A3341"/>
<path d="M220.235 132.857H217.613V120.926H200.99V132.857H198.368V107H200.99V118.488H217.613V107H220.235V132.857Z" fill="#1A3341"/>
<path d="M237.466 138.134H236.025V127.053H237.355L241.566 132.625L245.635 127.053H246.933V138.134H245.492V129.538L241.709 134.636H241.36L237.466 129.538V138.134Z" fill="#1A3341"/>
<path d="M227.158 138.134H225.717V127.053H227.158V132.404L232.762 127.053H234.646L229.422 132.071L235.026 138.134H233.126L228.345 133.021L227.158 134.161V138.134Z" fill="#1A3341"/>
<path d="M195.607 177.974C195.607 174.243 196.863 171.066 199.412 168.518C201.924 165.969 205.027 164.713 208.684 164.713C212.341 164.713 215.443 165.969 217.955 168.481C220.467 170.992 221.723 174.169 221.723 177.974C221.723 181.742 220.282 185.066 217.438 187.91L220.135 191.124L218.398 192.601L215.591 189.277C213.523 190.57 211.232 191.235 208.684 191.235C204.99 191.235 201.887 189.979 199.375 187.467C196.863 184.992 195.607 181.815 195.607 177.974ZM198.304 177.974C198.304 181.04 199.301 183.625 201.333 185.694C203.364 187.762 205.802 188.797 208.684 188.797C210.531 188.797 212.304 188.28 214.04 187.282L211.713 184.475L213.375 182.96L215.813 185.916C217.955 183.81 219.026 181.187 219.026 177.974C219.026 174.871 218.029 172.285 216.034 170.217C214.003 168.185 211.565 167.151 208.684 167.151C205.765 167.151 203.328 168.185 201.333 170.217C199.301 172.285 198.304 174.871 198.304 177.974Z" fill="#1A3341"/>
<path d="M245.971 196.181V185.1H247.411V190.688L253.015 185.1H254.899L249.707 190.355L255.279 196.181H253.348L248.361 191.068L247.411 191.923V196.181H245.971Z" fill="#1A3341"/>
<path d="M235.337 186.445V185.1H244.487V186.445H240.624V196.181H239.184V186.445H235.337Z" fill="#1A3341"/>
<path d="M226.066 196.181V185.1H227.507V190.688L233.111 185.1H234.994L229.802 190.355L235.374 196.181H233.443L228.456 191.068L227.507 191.923V196.181H226.066Z" fill="#1A3341"/>
<path d="M178.958 119.125L179.884 118.182L182.199 120.497L184.514 118.182L185.44 119.125L183.125 121.423L185.44 123.738L184.514 124.681L182.199 122.349L179.884 124.681L178.958 123.738L181.29 121.423L178.958 119.125Z" fill="#1A3341"/>
<path d="M260.75 119.125L261.676 118.182L263.991 120.497L266.306 118.182L267.232 119.125L264.917 121.423L267.232 123.738L266.306 124.681L263.991 122.349L261.676 124.681L260.75 123.738L263.082 121.423L260.75 119.125Z" fill="#1A3341"/>
<path d="M282.782 132.857H280.16V107H282.782V120.224L296.856 107H300.291L287.769 118.783L301.252 132.857H297.668L285.885 120.519L282.782 123.364V132.857Z" fill="#1A3341"/>
<path d="M330.438 135.207L329.52 134.684C329.947 133.671 331.024 132.99 332.243 132.99C333.715 132.99 334.649 133.734 334.649 134.922C334.649 136.046 333.937 137.059 332.496 137.961L331.515 138.594H334.934V139.718H329.552V138.737L331.119 137.724C332.56 136.774 333.399 135.998 333.399 135.159C333.399 134.462 332.987 134.114 332.18 134.114C331.42 134.114 330.834 134.478 330.438 135.207Z" fill="#1A3341"/>
<path d="M317.232 132.593C317.232 130.994 317.77 129.633 318.863 128.541C319.955 127.448 321.285 126.91 322.868 126.91C324.435 126.91 325.765 127.448 326.857 128.525C327.949 129.601 328.488 130.963 328.488 132.593C328.488 134.208 327.949 135.554 326.857 136.646C325.765 137.738 324.435 138.277 322.868 138.277C321.285 138.277 319.955 137.738 318.863 136.662C317.77 135.585 317.232 134.224 317.232 132.593ZM318.736 132.593C318.736 133.828 319.147 134.857 319.955 135.665C320.762 136.488 321.728 136.899 322.868 136.899C324.039 136.899 325.021 136.488 325.812 135.68C326.588 134.873 326.984 133.844 326.984 132.593C326.984 131.343 326.588 130.314 325.781 129.506C324.973 128.699 323.992 128.287 322.868 128.287C321.712 128.287 320.746 128.699 319.939 129.506C319.132 130.314 318.736 131.343 318.736 132.593Z" fill="#1A3341"/>
<path d="M316.106 135.411L316.93 136.329C316.091 137.517 314.412 138.277 312.624 138.277C310.882 138.277 309.489 137.754 308.46 136.725C307.431 135.696 306.909 134.319 306.909 132.593C306.909 130.963 307.431 129.617 308.46 128.525C309.489 127.448 310.835 126.91 312.513 126.91C314.412 126.91 315.964 127.67 316.771 128.747L315.837 129.649C314.935 128.747 313.827 128.287 312.544 128.287C311.262 128.287 310.265 128.683 309.521 129.475C308.777 130.266 308.413 131.311 308.413 132.593C308.413 133.892 308.808 134.936 309.6 135.712C310.391 136.504 311.436 136.899 312.719 136.899C314.096 136.899 315.22 136.409 316.106 135.411Z" fill="#1A3341"/>
<path d="M71.1263 165.568H67.7557V164.783H71.1171C70.9693 163.518 70.0736 162.715 68.6791 162.715C67.9404 162.715 67.0908 163.102 66.6106 163.703L66.0473 163.167C66.6383 162.382 67.7003 161.93 68.7345 161.93C69.7411 161.93 70.5353 162.225 71.1171 162.816C71.6989 163.407 71.9851 164.211 71.9851 165.217C71.9851 166.205 71.6896 167.009 71.0986 167.627C70.5076 168.246 69.6949 168.56 68.6607 168.56C67.6541 168.56 66.6291 168.163 66.0288 167.323L66.6014 166.842C67.0354 167.434 67.885 167.775 68.7068 167.775C69.3902 167.775 69.9535 167.572 70.3875 167.166C70.8216 166.759 71.0709 166.224 71.1263 165.568Z" fill="#1A3341"/>
<path d="M62.7754 168.616H61.9351V167.831H61.8889C60.8916 167.831 60.1066 167.591 59.5341 167.102C58.9523 166.622 58.666 165.975 58.666 165.153C58.666 164.294 58.9615 163.639 59.5618 163.168C60.1528 162.706 60.947 162.475 61.9351 162.475V161.875H62.7754V162.475C63.7173 162.475 64.5023 162.706 65.121 163.168C65.7397 163.63 66.0445 164.294 66.0445 165.153C66.0445 165.975 65.7582 166.622 65.1764 167.102C64.5946 167.591 63.8097 167.831 62.8216 167.831H62.7754V168.616ZM62.7939 163.251H62.7754V167.056H62.8216C64.2991 167.056 65.1764 166.372 65.1764 165.153C65.1764 163.944 64.3545 163.251 62.7939 163.251ZM59.5341 165.153C59.5341 166.308 60.3929 167.056 61.8981 167.056H61.9351V163.251C60.4852 163.251 59.5341 163.897 59.5341 165.153Z" fill="#1A3341"/>
<path d="M52.5305 169.658H51.7271V167.691H52.4104C52.8167 167.054 53.2692 165.456 53.2692 162.797V162.012H57.6372V167.691H58.4498V169.658H57.6464V168.476H52.5305V169.658ZM56.7969 162.797H54.0726V163.397C54.0726 164.182 53.9988 164.994 53.851 165.835C53.694 166.675 53.5186 167.294 53.3154 167.691H56.7969V162.797Z" fill="#1A3341"/>
<path d="M97.2087 149.078H80.6973V146.936H97.2087V149.078ZM97.2087 155.542H80.6973V153.4H97.2087V155.542Z" fill="#1A3341"/>
<path fill-rule="evenodd" clip-rule="evenodd" d="M338 151.327L115.05 151.327L115.05 150.008L338 150.008L338 151.327Z" fill="#ABBEC9"/>
<path d="M328 96L330.887 91L325.113 91L328 96ZM328.5 91.5L328.5 -7.62282e-06L327.5 -7.63597e-06L327.5 91.5L328.5 91.5Z" fill="#CEE0ED"/>
<path d="M16.168 225H13.666V218.7H16.213C17.824 218.7 18.436 219.285 18.436 220.266C18.436 220.968 18.139 221.445 17.545 221.706C18.238 221.85 18.661 222.381 18.661 223.2C18.661 224.433 17.743 225 16.168 225ZM16.249 222.156H14.485V224.235H16.159C17.302 224.235 17.815 223.902 17.815 223.155C17.815 222.489 17.293 222.156 16.249 222.156ZM16.141 219.465H14.485V221.409H16.276C17.077 221.409 17.599 221.049 17.599 220.437C17.599 219.762 17.212 219.465 16.141 219.465ZM21.2967 225H19.6047V220.32H20.3607V221.778H21.3687C22.7457 221.778 23.2947 222.417 23.2947 223.38C23.2947 224.325 22.6917 225 21.2967 225ZM21.2877 222.498H20.3607V224.28H21.2787C22.1427 224.28 22.4937 223.974 22.4937 223.389C22.4937 222.795 22.0887 222.498 21.2877 222.498ZM24.7257 225H23.9607V220.32H24.7257V225ZM29.8145 218.313L29.9495 219.006C29.6885 219.105 29.2745 219.186 28.6895 219.249C28.1045 219.312 27.6995 219.402 27.4745 219.51C26.7995 219.843 26.4035 220.464 26.3045 221.382L26.3405 221.391C26.7275 220.779 27.3575 220.473 28.2215 220.473C28.8785 220.473 29.4095 220.671 29.8145 221.058C30.2195 221.454 30.4175 222.003 30.4175 222.696C30.4175 223.371 30.1925 223.938 29.7515 224.397C29.3105 224.856 28.7345 225.09 28.0415 225.09C26.5205 225.09 25.5755 224.073 25.5755 222.282C25.5755 221.382 25.6925 220.662 25.9265 220.113C26.1515 219.573 26.5655 219.15 27.1505 218.853C27.4655 218.7 27.9335 218.583 28.5545 218.52C29.1755 218.457 29.5985 218.385 29.8145 218.313ZM26.3765 222.417V222.48C26.3765 223.056 26.5295 223.515 26.8445 223.857C27.1505 224.199 27.5465 224.37 28.0325 224.37C28.5095 224.37 28.8875 224.217 29.1845 223.902C29.4725 223.596 29.6165 223.209 29.6165 222.741C29.6165 221.796 29.0585 221.193 28.0595 221.193C27.1955 221.193 26.5655 221.742 26.3765 222.417ZM32.0062 226.8H31.2502V220.32H32.0062V220.905C32.3212 220.446 32.8252 220.212 33.5182 220.212C34.2022 220.212 34.7512 220.428 35.1562 220.869C35.5612 221.31 35.7592 221.877 35.7592 222.579C35.7592 223.299 35.5432 223.893 35.1112 224.37C34.6702 224.847 34.1122 225.081 33.4282 225.081C32.7982 225.081 32.3212 224.919 32.0062 224.604V226.8ZM33.4372 220.923C32.7532 220.923 32.2222 221.364 32.0062 221.895V223.641C32.2762 224.127 32.7262 224.37 33.3652 224.37C33.8242 224.37 34.2112 224.208 34.5082 223.884C34.8052 223.56 34.9582 223.146 34.9582 222.633C34.9582 221.589 34.3732 220.923 33.4372 220.923ZM36.3329 222.651C36.3329 221.94 36.5669 221.355 37.0259 220.896C37.4849 220.437 38.0789 220.212 38.8079 220.212C39.5459 220.212 40.1489 220.437 40.6079 220.896C41.0669 221.355 41.3009 221.94 41.3009 222.651C41.3009 223.362 41.0669 223.938 40.6079 224.397C40.1399 224.856 39.5369 225.081 38.8079 225.081C38.0789 225.081 37.4849 224.856 37.0259 224.397C36.5669 223.938 36.3329 223.362 36.3329 222.651ZM37.1339 222.651C37.1339 223.146 37.2869 223.56 37.6019 223.884C37.9169 224.208 38.3129 224.37 38.8079 224.37C39.3029 224.37 39.7169 224.208 40.0319 223.893C40.3469 223.578 40.4999 223.164 40.4999 222.651C40.4999 222.138 40.3379 221.724 40.0229 221.4C39.6989 221.085 39.2939 220.923 38.8079 220.923C38.3219 220.923 37.9259 221.085 37.6109 221.4C37.2959 221.715 37.1339 222.138 37.1339 222.651ZM45.7668 223.65L46.3068 224.037C45.9558 224.694 45.1638 225.081 44.3808 225.081C43.6338 225.081 43.0308 224.856 42.5718 224.415C42.1128 223.974 41.8788 223.389 41.8788 222.651C41.8788 221.949 42.1038 221.364 42.5628 220.905C43.0218 220.446 43.6068 220.212 44.3358 220.212C45.1728 220.212 45.9198 220.59 46.2348 221.166L45.6498 221.562C45.3348 221.139 44.9028 220.923 44.3538 220.923C43.8678 220.923 43.4718 221.085 43.1568 221.409C42.8418 221.733 42.6798 222.147 42.6798 222.651C42.6798 223.164 42.8418 223.578 43.1748 223.893C43.4988 224.208 43.9218 224.37 44.4528 224.37C45.0108 224.37 45.4518 224.127 45.7668 223.65ZM48.6219 225H46.9299V220.32H47.6859V221.778H48.6939C50.0709 221.778 50.6199 222.417 50.6199 223.38C50.6199 224.325 50.0169 225 48.6219 225ZM48.6129 222.498H47.6859V224.28H48.6039C49.4679 224.28 49.8189 223.974 49.8189 223.389C49.8189 222.795 49.4139 222.498 48.6129 222.498ZM52.0509 225H51.2859V220.32H52.0509V225ZM60 225H59.244V221.031H56.598V225H55.842V220.32H60V225ZM61.4578 221.445L61.0708 220.878C61.5028 220.473 62.2498 220.212 62.9428 220.212C64.1938 220.212 64.8598 220.896 64.8598 222.111V225H64.1038V224.307C63.8068 224.739 63.2218 225.063 62.4658 225.063C61.4488 225.063 60.7648 224.496 60.7648 223.632C60.7648 222.651 61.6018 222.183 63.0058 222.183C63.4468 222.183 63.8068 222.228 64.1038 222.318C64.1038 221.409 63.7798 220.923 62.8528 220.923C62.3848 220.923 61.9168 221.094 61.4578 221.445ZM62.6458 224.379C62.9968 224.379 63.3118 224.28 63.5728 224.091C63.8338 223.902 64.0048 223.686 64.1038 223.461V222.984C63.8428 222.894 63.5098 222.849 63.1048 222.849C62.0788 222.849 61.5658 223.101 61.5658 223.605C61.5658 224.082 61.9978 224.379 62.6458 224.379ZM66.6614 226.8H65.9054V220.32H66.6614V220.905C66.9764 220.446 67.4804 220.212 68.1734 220.212C68.8574 220.212 69.4064 220.428 69.8114 220.869C70.2164 221.31 70.4144 221.877 70.4144 222.579C70.4144 223.299 70.1984 223.893 69.7664 224.37C69.3254 224.847 68.7674 225.081 68.0834 225.081C67.4534 225.081 66.9764 224.919 66.6614 224.604V226.8ZM68.0924 220.923C67.4084 220.923 66.8774 221.364 66.6614 221.895V223.641C66.9314 224.127 67.3814 224.37 68.0204 224.37C68.4794 224.37 68.8664 224.208 69.1634 223.884C69.4604 223.56 69.6134 223.146 69.6134 222.633C69.6134 221.589 69.0284 220.923 68.0924 220.923ZM75.4612 225H74.7052V222.975H72.0052V225H71.2492V220.32H72.0052V222.264H74.7052V220.32H75.4612V225ZM80.1038 221.499L77.2508 225H76.5578V220.32H77.3138V223.83L80.1578 220.32H80.8598V225H80.1038V221.499ZM82.7103 225H81.9543V220.32H82.7103V222.417L85.0773 220.32H86.0943L83.6733 222.471L86.2113 225H85.2033L83.0973 222.939L82.7103 223.299V225ZM86.0702 222.651C86.0702 221.94 86.3042 221.355 86.7632 220.896C87.2222 220.437 87.8162 220.212 88.5452 220.212C89.2832 220.212 89.8862 220.437 90.3452 220.896C90.8042 221.355 91.0382 221.94 91.0382 222.651C91.0382 223.362 90.8042 223.938 90.3452 224.397C89.8772 224.856 89.2742 225.081 88.5452 225.081C87.8162 225.081 87.2222 224.856 86.7632 224.397C86.3042 223.938 86.0702 223.362 86.0702 222.651ZM86.8712 222.651C86.8712 223.146 87.0242 223.56 87.3392 223.884C87.6542 224.208 88.0502 224.37 88.5452 224.37C89.0402 224.37 89.4542 224.208 89.7692 223.893C90.0842 223.578 90.2372 223.164 90.2372 222.651C90.2372 222.138 90.0752 221.724 89.7602 221.4C89.4362 221.085 89.0312 220.923 88.5452 220.923C88.0592 220.923 87.6632 221.085 87.3482 221.4C87.0332 221.715 86.8712 222.138 86.8712 222.651ZM93.9651 225H91.8771V220.32H93.8211C95.1261 220.32 95.7381 220.653 95.7381 221.517C95.7381 221.949 95.5401 222.291 95.1351 222.534C95.6391 222.687 95.8911 223.056 95.8911 223.659C95.8911 224.532 95.1981 225 93.9651 225ZM93.9741 222.957H92.6331V224.298H93.8841C94.6851 224.298 95.0901 224.073 95.0901 223.623C95.0901 223.182 94.7211 222.957 93.9741 222.957ZM93.7941 221.022H92.6331V222.273H94.0551C94.6041 222.273 94.9371 222.048 94.9371 221.625C94.9371 221.148 94.5501 221.022 93.7941 221.022ZM98.4295 225H96.7375V220.32H97.4935V221.778H98.5015C99.8785 221.778 100.427 222.417 100.427 223.38C100.427 224.325 99.8245 225 98.4295 225ZM98.4205 222.498H97.4935V224.28H98.4115C99.2755 224.28 99.6265 223.974 99.6265 223.389C99.6265 222.795 99.2215 222.498 98.4205 222.498ZM101.858 225H101.093V220.32H101.858V225ZM106.182 220.32H107.1L105.309 222.579L107.19 225H106.245L104.796 223.119L103.329 225H102.429L104.301 222.588L102.528 220.32H103.473L104.823 222.039L106.182 220.32ZM111.222 225H110.466V220.32H113.877V221.031H111.222V225ZM114.649 221.445L114.262 220.878C114.694 220.473 115.441 220.212 116.134 220.212C117.385 220.212 118.051 220.896 118.051 222.111V225H117.295V224.307C116.998 224.739 116.413 225.063 115.657 225.063C114.64 225.063 113.956 224.496 113.956 223.632C113.956 222.651 114.793 222.183 116.197 222.183C116.638 222.183 116.998 222.228 117.295 222.318C117.295 221.409 116.971 220.923 116.044 220.923C115.576 220.923 115.108 221.094 114.649 221.445ZM115.837 224.379C116.188 224.379 116.503 224.28 116.764 224.091C117.025 223.902 117.196 223.686 117.295 223.461V222.984C117.034 222.894 116.701 222.849 116.296 222.849C115.27 222.849 114.757 223.101 114.757 223.605C114.757 224.082 115.189 224.379 115.837 224.379ZM120.789 225.09C119.826 225.09 119.115 224.73 118.674 224.019L119.268 223.605C119.529 224.082 120.105 224.388 120.798 224.388C121.545 224.388 122.076 224.082 122.076 223.578C122.076 223.164 121.761 222.957 121.14 222.957H120.042V222.273H121.086C121.545 222.273 121.905 222.003 121.905 221.598C121.905 221.157 121.437 220.905 120.762 220.905C120.195 220.905 119.727 221.121 119.376 221.562L118.818 221.193C119.133 220.653 119.853 220.203 120.834 220.203C122.013 220.203 122.706 220.698 122.706 221.481C122.706 221.922 122.517 222.264 122.148 222.489C122.688 222.75 122.877 223.065 122.877 223.56C122.877 224.037 122.679 224.406 122.292 224.676C121.905 224.955 121.401 225.09 120.789 225.09ZM123.459 222.651C123.459 221.94 123.693 221.355 124.152 220.896C124.611 220.437 125.205 220.212 125.934 220.212C126.672 220.212 127.275 220.437 127.734 220.896C128.193 221.355 128.427 221.94 128.427 222.651C128.427 223.362 128.193 223.938 127.734 224.397C127.266 224.856 126.663 225.081 125.934 225.081C125.205 225.081 124.611 224.856 124.152 224.397C123.693 223.938 123.459 223.362 123.459 222.651ZM124.26 222.651C124.26 223.146 124.413 223.56 124.728 223.884C125.043 224.208 125.439 224.37 125.934 224.37C126.429 224.37 126.843 224.208 127.158 223.893C127.473 223.578 127.626 223.164 127.626 222.651C127.626 222.138 127.464 221.724 127.149 221.4C126.825 221.085 126.42 220.923 125.934 220.923C125.448 220.923 125.052 221.085 124.737 221.4C124.422 221.715 124.26 222.138 124.26 222.651ZM131.354 225H129.266V220.32H131.21C132.515 220.32 133.127 220.653 133.127 221.517C133.127 221.949 132.929 222.291 132.524 222.534C133.028 222.687 133.28 223.056 133.28 223.659C133.28 224.532 132.587 225 131.354 225ZM131.363 222.957H130.022V224.298H131.273C132.074 224.298 132.479 224.073 132.479 223.623C132.479 223.182 132.11 222.957 131.363 222.957ZM131.183 221.022H130.022V222.273H131.444C131.993 222.273 132.326 222.048 132.326 221.625C132.326 221.148 131.939 221.022 131.183 221.022ZM136.635 226.845L135.969 226.593L138.957 218.583L139.623 218.799L136.635 226.845ZM13.783 239.152H13V237.235H13.666C14.062 236.614 14.503 235.057 14.503 232.465V231.7H18.76V237.235H19.552V239.152H18.769V238H13.783V239.152ZM17.941 232.465H15.286V233.05C15.286 233.815 15.214 234.607 15.07 235.426C14.917 236.245 14.746 236.848 14.548 237.235H17.941V232.465ZM23.8576 238.135H23.0386V237.37H22.9936C22.0216 237.37 21.2566 237.136 20.6986 236.659C20.1316 236.191 19.8526 235.561 19.8526 234.76C19.8526 233.923 20.1406 233.284 20.7256 232.825C21.3016 232.375 22.0756 232.15 23.0386 232.15V231.565H23.8576V232.15C24.7756 232.15 25.5406 232.375 26.1436 232.825C26.7466 233.275 27.0436 233.923 27.0436 234.76C27.0436 235.561 26.7646 236.191 26.1976 236.659C25.6306 237.136 24.8656 237.37 23.9026 237.37H23.8576V238.135ZM23.8756 232.906H23.8576V236.614H23.9026C25.3426 236.614 26.1976 235.948 26.1976 234.76C26.1976 233.581 25.3966 232.906 23.8756 232.906ZM20.6986 234.76C20.6986 235.885 21.5356 236.614 23.0026 236.614H23.0386V232.906C21.6256 232.906 20.6986 233.536 20.6986 234.76ZM32.0862 235.165H28.8012V234.4H32.0772C31.9332 233.167 31.0602 232.384 29.7012 232.384C28.9812 232.384 28.1532 232.762 27.6852 233.347L27.1362 232.825C27.7122 232.06 28.7472 231.619 29.7552 231.619C30.7362 231.619 31.5102 231.907 32.0772 232.483C32.6442 233.059 32.9232 233.842 32.9232 234.823C32.9232 235.786 32.6352 236.569 32.0592 237.172C31.4832 237.775 30.6912 238.081 29.6832 238.081C28.7022 238.081 27.7032 237.694 27.1182 236.875L27.6762 236.407C28.0992 236.983 28.9272 237.316 29.7282 237.316C30.3942 237.316 30.9432 237.118 31.3662 236.722C31.7892 236.326 32.0322 235.804 32.0862 235.165ZM38.711 239.314L38.198 239.836C37.532 239.26 37.046 238.603 36.74 237.865C36.434 237.127 36.281 236.398 36.281 235.669C36.281 234.229 36.848 232.708 38.207 231.493L38.702 232.015C37.604 233.041 37.055 234.256 37.055 235.669C37.055 237.01 37.667 238.306 38.711 239.314ZM40.1097 238H39.3537V233.32H40.1097V235.417L42.4767 233.32H43.4937L41.0727 235.471L43.6107 238H42.6027L40.4967 235.939L40.1097 236.299V238ZM44.847 238H44.091V233.32H47.502V234.031H44.847V238ZM55.7747 236.452L56.2427 236.974C55.7657 237.649 54.8117 238.081 53.7947 238.081C52.8047 238.081 52.0127 237.784 51.4277 237.199C50.8427 236.614 50.5457 235.831 50.5457 234.85C50.5457 233.923 50.8427 233.158 51.4277 232.537C52.0127 231.925 52.7777 231.619 53.7317 231.619C54.8117 231.619 55.6937 232.051 56.1527 232.663L55.6217 233.176C55.1087 232.663 54.4787 232.402 53.7497 232.402C53.0207 232.402 52.4537 232.627 52.0307 233.077C51.6077 233.527 51.4007 234.121 51.4007 234.85C51.4007 235.588 51.6257 236.182 52.0757 236.623C52.5257 237.073 53.1197 237.298 53.8487 237.298C54.6317 237.298 55.2707 237.019 55.7747 236.452ZM56.5047 234.85C56.5047 233.941 56.8107 233.167 57.4317 232.546C58.0527 231.925 58.8087 231.619 59.7087 231.619C60.5997 231.619 61.3557 231.925 61.9767 232.537C62.5977 233.149 62.9037 233.923 62.9037 234.85C62.9037 235.768 62.5977 236.533 61.9767 237.154C61.3557 237.775 60.5997 238.081 59.7087 238.081C58.8087 238.081 58.0527 237.775 57.4317 237.163C56.8107 236.551 56.5047 235.777 56.5047 234.85ZM57.3597 234.85C57.3597 235.552 57.5937 236.137 58.0527 236.596C58.5117 237.064 59.0607 237.298 59.7087 237.298C60.3747 237.298 60.9327 237.064 61.3827 236.605C61.8237 236.146 62.0487 235.561 62.0487 234.85C62.0487 234.139 61.8237 233.554 61.3647 233.095C60.9057 232.636 60.3477 232.402 59.7087 232.402C59.0517 232.402 58.5027 232.636 58.0437 233.095C57.5847 233.554 57.3597 234.139 57.3597 234.85ZM64.1025 236.335L63.5805 236.038C63.8235 235.462 64.4355 235.075 65.1285 235.075C65.9655 235.075 66.4965 235.498 66.4965 236.173C66.4965 236.812 66.0915 237.388 65.2725 237.901L64.7145 238.261H66.6585V238.9H63.5985V238.342L64.4895 237.766C65.3085 237.226 65.7855 236.785 65.7855 236.308C65.7855 235.912 65.5515 235.714 65.0925 235.714C64.6605 235.714 64.3275 235.921 64.1025 236.335ZM67.5854 239.827L67.0724 239.332C67.6124 238.855 68.0264 238.297 68.3054 237.631C68.5844 236.974 68.7194 236.326 68.7194 235.669C68.7194 234.256 68.1704 233.041 67.0724 232.024L67.5764 231.493C68.9354 232.708 69.4934 234.229 69.4934 235.669C69.4934 236.398 69.3404 237.127 69.0434 237.865C68.7374 238.603 68.2514 239.26 67.5854 239.827Z" fill="#3C525E"/>
<path d="M55.5612 6.678V9H54.7422V2.7H57.1902C58.9092 2.7 59.7732 3.357 59.7732 4.68C59.7732 5.247 59.5662 5.724 59.1522 6.102C58.7292 6.489 58.0722 6.678 57.1812 6.678H55.5612ZM57.2262 3.465H55.5612V5.922H57.1632C58.3512 5.922 58.9272 5.454 58.9272 4.671C58.9272 3.87 58.3602 3.465 57.2262 3.465ZM60.9529 5.445L60.5659 4.878C60.9979 4.473 61.7449 4.212 62.4379 4.212C63.6889 4.212 64.3549 4.896 64.3549 6.111V9H63.5989V8.307C63.3019 8.739 62.7169 9.063 61.9609 9.063C60.9439 9.063 60.2599 8.496 60.2599 7.632C60.2599 6.651 61.0969 6.183 62.5009 6.183C62.9419 6.183 63.3019 6.228 63.5989 6.318C63.5989 5.409 63.2749 4.923 62.3479 4.923C61.8799 4.923 61.4119 5.094 60.9529 5.445ZM62.1409 8.379C62.4919 8.379 62.8069 8.28 63.0679 8.091C63.3289 7.902 63.4999 7.686 63.5989 7.461V6.984C63.3379 6.894 63.0049 6.849 62.5999 6.849C61.5739 6.849 61.0609 7.101 61.0609 7.605C61.0609 8.082 61.4929 8.379 62.1409 8.379ZM69.0276 7.65L69.5676 8.037C69.2166 8.694 68.4246 9.081 67.6416 9.081C66.8946 9.081 66.2916 8.856 65.8326 8.415C65.3736 7.974 65.1396 7.389 65.1396 6.651C65.1396 5.949 65.3646 5.364 65.8236 4.905C66.2826 4.446 66.8676 4.212 67.5966 4.212C68.4336 4.212 69.1806 4.59 69.4956 5.166L68.9106 5.562C68.5956 5.139 68.1636 4.923 67.6146 4.923C67.1286 4.923 66.7326 5.085 66.4176 5.409C66.1026 5.733 65.9406 6.147 65.9406 6.651C65.9406 7.164 66.1026 7.578 66.4356 7.893C66.7596 8.208 67.1826 8.37 67.7136 8.37C68.2716 8.37 68.7126 8.127 69.0276 7.65ZM73.3689 4.32H74.2869L72.4959 6.579L74.3769 9H73.4319L71.9829 7.119L70.5159 9H69.6159L71.4879 6.588L69.7149 4.32H70.6599L72.0099 6.039L73.3689 4.32ZM74.3505 6.651C74.3505 5.94 74.5845 5.355 75.0435 4.896C75.5025 4.437 76.0965 4.212 76.8255 4.212C77.5635 4.212 78.1665 4.437 78.6255 4.896C79.0845 5.355 79.3185 5.94 79.3185 6.651C79.3185 7.362 79.0845 7.938 78.6255 8.397C78.1575 8.856 77.5545 9.081 76.8255 9.081C76.0965 9.081 75.5025 8.856 75.0435 8.397C74.5845 7.938 74.3505 7.362 74.3505 6.651ZM75.1515 6.651C75.1515 7.146 75.3045 7.56 75.6195 7.884C75.9345 8.208 76.3305 8.37 76.8255 8.37C77.3205 8.37 77.7345 8.208 78.0495 7.893C78.3645 7.578 78.5175 7.164 78.5175 6.651C78.5175 6.138 78.3555 5.724 78.0405 5.4C77.7165 5.085 77.3115 4.923 76.8255 4.923C76.3395 4.923 75.9435 5.085 75.6285 5.4C75.3135 5.715 75.1515 6.138 75.1515 6.651ZM80.1447 10.134H79.4247V8.28H79.9467C80.4237 7.551 80.6037 6.525 80.6037 4.752V4.32H84.0417V8.28H84.7167V10.134H83.9967V9H80.1447V10.134ZM83.2857 5.04H81.3147V5.364C81.3147 6.561 81.1257 7.533 80.7567 8.28H83.2857V5.04ZM89.7326 3.465H87.5456V2.7H92.7476V3.465H90.5516V9H89.7326V3.465ZM97.8596 6.165H94.5746V5.4H97.8506C97.7066 4.167 96.8336 3.384 95.4746 3.384C94.7546 3.384 93.9266 3.762 93.4586 4.347L92.9096 3.825C93.4856 3.06 94.5206 2.619 95.5286 2.619C96.5096 2.619 97.2836 2.907 97.8506 3.483C98.4176 4.059 98.6966 4.842 98.6966 5.823C98.6966 6.786 98.4086 7.569 97.8326 8.172C97.2566 8.775 96.4646 9.081 95.4566 9.081C94.4756 9.081 93.4766 8.694 92.8916 7.875L93.4496 7.407C93.8726 7.983 94.7006 8.316 95.5016 8.316C96.1676 8.316 96.7166 8.118 97.1396 7.722C97.5626 7.326 97.8056 6.804 97.8596 6.165ZM100.517 6.678V9H99.6982V2.7H102.146C103.865 2.7 104.729 3.357 104.729 4.68C104.729 5.247 104.522 5.724 104.108 6.102C103.685 6.489 103.028 6.678 102.137 6.678H100.517ZM102.182 3.465H100.517V5.922H102.119C103.307 5.922 103.883 5.454 103.883 4.671C103.883 3.87 103.316 3.465 102.182 3.465ZM57.554 22H56.798V19.975H54.098V22H53.342V17.32H54.098V19.264H56.798V17.32H57.554V22ZM59.0106 18.445L58.6236 17.878C59.0556 17.473 59.8026 17.212 60.4956 17.212C61.7466 17.212 62.4126 17.896 62.4126 19.111V22H61.6566V21.307C61.3596 21.739 60.7746 22.063 60.0186 22.063C59.0016 22.063 58.3176 21.496 58.3176 20.632C58.3176 19.651 59.1546 19.183 60.5586 19.183C60.9996 19.183 61.3596 19.228 61.6566 19.318C61.6566 18.409 61.3326 17.923 60.4056 17.923C59.9376 17.923 59.4696 18.094 59.0106 18.445ZM60.1986 21.379C60.5496 21.379 60.8646 21.28 61.1256 21.091C61.3866 20.902 61.5576 20.686 61.6566 20.461V19.984C61.3956 19.894 61.0626 19.849 60.6576 19.849C59.6316 19.849 59.1186 20.101 59.1186 20.605C59.1186 21.082 59.5506 21.379 60.1986 21.379ZM65.9224 17.374L65.6344 16.699L67.7944 15.664H68.3074V22H67.5334V16.627L65.9224 17.374ZM73.1614 22H72.4054V17.32H73.1614V19.417L75.5284 17.32H76.5454L74.1244 19.471L76.6624 22H75.6544L73.5484 19.939L73.1614 20.299V22ZM77.8988 22H77.1428V17.32H77.8358L79.5638 19.606L81.2468 17.32H81.8948V22H81.1387V18.652L79.5548 20.812L77.8988 18.652V22ZM89.8525 22H89.0965V18.031H86.4505V22H85.6945V17.32H89.8525V22ZM91.0584 23.782L91.3554 23.125C91.4274 23.152 91.4904 23.17 91.5534 23.17C91.9044 23.17 92.1474 22.927 92.4624 22.18L92.6064 21.829L90.3384 17.32H91.2294L92.9844 20.875L94.3074 17.32H95.1354L93.3534 21.928C93.0474 22.684 92.7594 23.197 92.4984 23.476C92.2284 23.755 91.9224 23.89 91.5804 23.89C91.3824 23.89 91.2114 23.854 91.0584 23.782ZM97.0266 18.031H95.2356V17.32H99.5916V18.031H97.7826V22H97.0266V18.031ZM103.699 18.499L100.846 22H100.153V17.32H100.909V20.83L103.753 17.32H104.455V22H103.699V18.499Z" fill="#1A3341"/>
<path d="M19.5733 36.314L19.0603 36.836C18.3943 36.26 17.9083 35.603 17.6023 34.865C17.2963 34.127 17.1433 33.398 17.1433 32.669C17.1433 31.229 17.7103 29.708 19.0693 28.493L19.5643 29.015C18.4663 30.041 17.9173 31.256 17.9173 32.669C17.9173 34.01 18.5293 35.306 19.5733 36.314ZM21.467 31.031H19.676V30.32H24.032V31.031H22.223V35H21.467V31.031ZM24.1562 32.651C24.1562 31.94 24.3902 31.355 24.8492 30.896C25.3082 30.437 25.9022 30.212 26.6312 30.212C27.3692 30.212 27.9722 30.437 28.4312 30.896C28.8902 31.355 29.1242 31.94 29.1242 32.651C29.1242 33.362 28.8902 33.938 28.4312 34.397C27.9632 34.856 27.3602 35.081 26.6312 35.081C25.9022 35.081 25.3082 34.856 24.8492 34.397C24.3902 33.938 24.1562 33.362 24.1562 32.651ZM24.9572 32.651C24.9572 33.146 25.1102 33.56 25.4252 33.884C25.7402 34.208 26.1362 34.37 26.6312 34.37C27.1262 34.37 27.5402 34.208 27.8552 33.893C28.1702 33.578 28.3232 33.164 28.3232 32.651C28.3232 32.138 28.1612 31.724 27.8462 31.4C27.5222 31.085 27.1172 30.923 26.6312 30.923C26.1452 30.923 25.7492 31.085 25.4342 31.4C25.1192 31.715 24.9572 32.138 24.9572 32.651ZM34.1751 35H33.4191V32.975H30.7191V35H29.9631V30.32H30.7191V32.264H33.4191V30.32H34.1751V35ZM39.4837 35H38.7277V32.975H36.0277V35H35.2717V30.32H36.0277V32.264H38.7277V30.32H39.4837V35ZM41.0213 35C40.6883 35.036 40.4363 34.847 40.4363 34.523C40.4363 34.208 40.6343 34.01 40.9853 34.01C41.3813 34.01 41.6423 34.28 41.6423 34.784C41.6423 35.684 41.1473 36.143 40.4903 36.296L40.3013 35.873C40.4993 35.819 40.6793 35.711 40.8413 35.54C40.9943 35.369 41.0573 35.189 41.0213 35ZM46.4982 31.031H44.7072V30.32H49.0632V31.031H47.2542V35H46.4982V31.031ZM51.3162 35H49.6242V30.32H50.3802V31.778H51.3882C52.7652 31.778 53.3142 32.417 53.3142 33.38C53.3142 34.325 52.7112 35 51.3162 35ZM51.3072 32.498H50.3802V34.28H51.2982C52.1622 34.28 52.5132 33.974 52.5132 33.389C52.5132 32.795 52.1082 32.498 51.3072 32.498ZM54.7452 35H53.9802V30.32H54.7452V35ZM59.4651 33.65L60.0051 34.037C59.6541 34.694 58.8621 35.081 58.0791 35.081C57.3321 35.081 56.7291 34.856 56.2701 34.415C55.8111 33.974 55.5771 33.389 55.5771 32.651C55.5771 31.949 55.8021 31.364 56.2611 30.905C56.7201 30.446 57.3051 30.212 58.0341 30.212C58.8711 30.212 59.6181 30.59 59.9331 31.166L59.3481 31.562C59.0331 31.139 58.6011 30.923 58.0521 30.923C57.5661 30.923 57.1701 31.085 56.8551 31.409C56.5401 31.733 56.3781 32.147 56.3781 32.651C56.3781 33.164 56.5401 33.578 56.8731 33.893C57.1971 34.208 57.6201 34.37 58.1511 34.37C58.7091 34.37 59.1501 34.127 59.4651 33.65ZM62.4911 30.32H64.3721V35H63.6161V33.344H62.4731L61.0871 35H60.1691L61.6631 33.227C60.9431 33.092 60.4661 32.543 60.4661 31.823C60.4661 30.932 61.0871 30.32 62.4911 30.32ZM61.2671 31.841C61.2671 32.3 61.6991 32.624 62.3831 32.624H63.6161V31.04H62.4011C61.6451 31.04 61.2671 31.31 61.2671 31.841ZM68.5039 30.32H69.2599V35H68.5039V33.029C68.1619 33.371 67.6849 33.542 67.0729 33.542C65.8399 33.542 65.2279 32.921 65.2279 31.679V30.32H65.9839V31.472C65.9839 32.417 66.3799 32.822 67.2079 32.822C67.7479 32.822 68.2609 32.534 68.5039 32.183V30.32ZM73.8118 35H73.0558V30.32H73.7488L75.4768 32.606L77.1598 30.32H77.8078V35H77.0518V31.652L75.4678 33.812L73.8118 31.652V35ZM79.2604 29.609L78.7654 29.258C79.0804 28.736 79.6024 28.475 80.3314 28.475C81.1684 28.475 81.6994 28.835 81.6994 29.42C81.6994 29.843 81.5014 30.131 81.0964 30.293C81.5734 30.41 81.8074 30.716 81.8074 31.211C81.8074 31.922 81.1414 32.345 80.2684 32.345C79.5844 32.345 78.9364 32.03 78.6574 31.463L79.1974 31.121C79.3504 31.472 79.7914 31.706 80.2684 31.706C80.8174 31.706 81.0874 31.535 81.0874 31.184C81.0874 30.842 80.8174 30.671 80.2774 30.671H79.7824V30.095H80.1784C80.6824 30.095 80.9884 29.897 80.9884 29.564C80.9884 29.267 80.7634 29.114 80.3134 29.114C79.8094 29.114 79.5124 29.258 79.2604 29.609ZM83.1824 35C82.8494 35.036 82.5974 34.847 82.5974 34.523C82.5974 34.208 82.7954 34.01 83.1464 34.01C83.5424 34.01 83.8034 34.28 83.8034 34.784C83.8034 35.684 83.3084 36.143 82.6514 36.296L82.4624 35.873C82.6604 35.819 82.8404 35.711 83.0024 35.54C83.1554 35.369 83.2184 35.189 83.1824 35ZM87.9049 35H87.0859V28.7H91.5679V29.465H87.9049V35ZM91.6448 35H90.8888V30.32H91.6448V32.417L94.0118 30.32H95.0288L92.6078 32.471L95.1458 35H94.1378L92.0318 32.939L91.6448 33.299V35ZM95.9334 31.445L95.5464 30.878C95.9784 30.473 96.7254 30.212 97.4184 30.212C98.6694 30.212 99.3354 30.896 99.3354 32.111V35H98.5794V34.307C98.2824 34.739 97.6974 35.063 96.9414 35.063C95.9244 35.063 95.2404 34.496 95.2404 33.632C95.2404 32.651 96.0774 32.183 97.4814 32.183C97.9224 32.183 98.2824 32.228 98.5794 32.318C98.5794 31.409 98.2554 30.923 97.3284 30.923C96.8604 30.923 96.3924 31.094 95.9334 31.445ZM97.1214 34.379C97.4724 34.379 97.7874 34.28 98.0484 34.091C98.3094 33.902 98.4804 33.686 98.5794 33.461V32.984C98.3184 32.894 97.9854 32.849 97.5804 32.849C96.5544 32.849 96.0414 33.101 96.0414 33.605C96.0414 34.082 96.4734 34.379 97.1214 34.379ZM104.449 35H103.693V31.04H101.713V31.256C101.713 32.768 101.542 33.812 101.2 34.352C100.858 34.892 100.435 35.072 99.85 35V34.28C100.453 34.28 100.957 34.019 100.957 31.283V30.32H104.449V35ZM50.5247 44.499L47.6717 48H46.9787V43.32H47.7347V46.83L50.5787 43.32H51.2807V48H50.5247V44.499ZM56.4432 48H55.6872V44.04H53.7072V44.256C53.7072 45.768 53.5362 46.812 53.1942 47.352C52.8522 47.892 52.4292 48.072 51.8442 48V47.28C52.4472 47.28 52.9512 47.019 52.9512 44.283V43.32H56.4432V48ZM61.0891 44.499L58.2361 48H57.5431V43.32H58.2991V46.83L61.1431 43.32H61.8451V48H61.0891V44.499ZM66.3939 48H65.6379V43.32H66.3939V45.417L68.7609 43.32H69.7779L67.3569 45.471L69.8949 48H68.8869L66.7809 45.939L66.3939 46.299V48ZM72.9942 48H70.4922V41.7H73.0392C74.6502 41.7 75.2622 42.285 75.2622 43.266C75.2622 43.968 74.9652 44.445 74.3712 44.706C75.0642 44.85 75.4872 45.381 75.4872 46.2C75.4872 47.433 74.5692 48 72.9942 48ZM73.0752 45.156H71.3112V47.235H72.9852C74.1282 47.235 74.6412 46.902 74.6412 46.155C74.6412 45.489 74.1192 45.156 73.0752 45.156ZM72.9672 42.465H71.3112V44.409H73.1022C73.9032 44.409 74.4252 44.049 74.4252 43.437C74.4252 42.762 74.0382 42.465 72.9672 42.465ZM77.6818 44.031H75.8908V43.32H80.2468V44.031H78.4378V48H77.6818V44.031ZM85.594 48H83.506V43.32H85.45C86.755 43.32 87.367 43.653 87.367 44.517C87.367 44.949 87.169 45.291 86.764 45.534C87.268 45.687 87.52 46.056 87.52 46.659C87.52 47.532 86.827 48 85.594 48ZM85.603 45.957H84.262V47.298H85.513C86.314 47.298 86.719 47.073 86.719 46.623C86.719 46.182 86.35 45.957 85.603 45.957ZM85.423 44.022H84.262V45.273H85.684C86.233 45.273 86.566 45.048 86.566 44.625C86.566 44.148 86.179 44.022 85.423 44.022ZM94.0976 43.32H94.8536V48H94.0976V46.029C93.7556 46.371 93.2786 46.542 92.6666 46.542C91.4336 46.542 90.8216 45.921 90.8216 44.679V43.32H91.5776V44.472C91.5776 45.417 91.9736 45.822 92.8016 45.822C93.3416 45.822 93.8546 45.534 94.0976 45.183V43.32ZM96.3113 44.445L95.9243 43.878C96.3563 43.473 97.1033 43.212 97.7963 43.212C99.0473 43.212 99.7133 43.896 99.7133 45.111V48H98.9573V47.307C98.6603 47.739 98.0753 48.063 97.3193 48.063C96.3023 48.063 95.6183 47.496 95.6183 46.632C95.6183 45.651 96.4553 45.183 97.8593 45.183C98.3003 45.183 98.6603 45.228 98.9573 45.318C98.9573 44.409 98.6333 43.923 97.7063 43.923C97.2383 43.923 96.7703 44.094 96.3113 44.445ZM97.4993 47.379C97.8503 47.379 98.1653 47.28 98.4263 47.091C98.6873 46.902 98.8583 46.686 98.9573 46.461V45.984C98.6963 45.894 98.3633 45.849 97.9583 45.849C96.9323 45.849 96.4193 46.101 96.4193 46.605C96.4193 47.082 96.8513 47.379 97.4993 47.379ZM104.386 46.65L104.926 47.037C104.575 47.694 103.783 48.081 103 48.081C102.253 48.081 101.65 47.856 101.191 47.415C100.732 46.974 100.498 46.389 100.498 45.651C100.498 44.949 100.723 44.364 101.182 43.905C101.641 43.446 102.226 43.212 102.955 43.212C103.792 43.212 104.539 43.59 104.854 44.166L104.269 44.562C103.954 44.139 103.522 43.923 102.973 43.923C102.487 43.923 102.091 44.085 101.776 44.409C101.461 44.733 101.299 45.147 101.299 45.651C101.299 46.164 101.461 46.578 101.794 46.893C102.118 47.208 102.541 47.37 103.072 47.37C103.63 47.37 104.071 47.127 104.386 46.65ZM105.603 49.827L105.09 49.332C105.63 48.855 106.044 48.297 106.323 47.631C106.602 46.974 106.737 46.326 106.737 45.669C106.737 44.256 106.188 43.041 105.09 42.024L105.594 41.493C106.953 42.708 107.511 44.229 107.511 45.669C107.511 46.398 107.358 47.127 107.061 47.865C106.755 48.603 106.269 49.26 105.603 49.827Z" fill="#3C525E"/>
<path d="M161.746 9H160.927V3.465H157.21V9H156.391V2.7H161.746V9ZM162.701 6.651C162.701 5.94 162.935 5.355 163.394 4.896C163.853 4.437 164.447 4.212 165.176 4.212C165.914 4.212 166.517 4.437 166.976 4.896C167.435 5.355 167.669 5.94 167.669 6.651C167.669 7.362 167.435 7.938 166.976 8.397C166.508 8.856 165.905 9.081 165.176 9.081C164.447 9.081 163.853 8.856 163.394 8.397C162.935 7.938 162.701 7.362 162.701 6.651ZM163.502 6.651C163.502 7.146 163.655 7.56 163.97 7.884C164.285 8.208 164.681 8.37 165.176 8.37C165.671 8.37 166.085 8.208 166.4 7.893C166.715 7.578 166.868 7.164 166.868 6.651C166.868 6.138 166.706 5.724 166.391 5.4C166.067 5.085 165.662 4.923 165.176 4.923C164.69 4.923 164.294 5.085 163.979 5.4C163.664 5.715 163.502 6.138 163.502 6.651ZM172.471 9H171.715V5.04H169.735V5.256C169.735 6.768 169.564 7.812 169.222 8.352C168.88 8.892 168.457 9.072 167.872 9V8.28C168.475 8.28 168.979 8.019 168.979 5.283V4.32H172.471V9ZM177.782 9H177.026V6.975H174.326V9H173.57V4.32H174.326V6.264H177.026V4.32H177.782V9ZM178.618 6.651C178.618 5.94 178.852 5.355 179.311 4.896C179.77 4.437 180.364 4.212 181.093 4.212C181.831 4.212 182.434 4.437 182.893 4.896C183.352 5.355 183.586 5.94 183.586 6.651C183.586 7.362 183.352 7.938 182.893 8.397C182.425 8.856 181.822 9.081 181.093 9.081C180.364 9.081 179.77 8.856 179.311 8.397C178.852 7.938 178.618 7.362 178.618 6.651ZM179.419 6.651C179.419 7.146 179.572 7.56 179.887 7.884C180.202 8.208 180.598 8.37 181.093 8.37C181.588 8.37 182.002 8.208 182.317 7.893C182.632 7.578 182.785 7.164 182.785 6.651C182.785 6.138 182.623 5.724 182.308 5.4C181.984 5.085 181.579 4.923 181.093 4.923C180.607 4.923 180.211 5.085 179.896 5.4C179.581 5.715 179.419 6.138 179.419 6.651ZM188.043 7.659L188.529 8.109C188.097 8.757 187.476 9.081 186.657 9.081C185.91 9.081 185.307 8.856 184.848 8.415C184.389 7.974 184.164 7.389 184.164 6.651C184.164 5.94 184.371 5.355 184.794 4.896C185.208 4.437 185.793 4.212 186.549 4.212C187.17 4.212 187.692 4.41 188.097 4.797C188.502 5.184 188.709 5.697 188.709 6.336C188.709 6.543 188.691 6.732 188.664 6.903H184.974C185.019 7.83 185.703 8.37 186.684 8.37C187.233 8.37 187.755 8.082 188.043 7.659ZM186.495 4.905C185.64 4.905 185.082 5.427 184.965 6.219H187.908C187.863 5.391 187.332 4.905 186.495 4.905ZM140.515 23.8H139.759V17.32H140.515V17.905C140.83 17.446 141.334 17.212 142.027 17.212C142.711 17.212 143.26 17.428 143.665 17.869C144.07 18.31 144.268 18.877 144.268 19.579C144.268 20.299 144.052 20.893 143.62 21.37C143.179 21.847 142.621 22.081 141.937 22.081C141.307 22.081 140.83 21.919 140.515 21.604V23.8ZM141.946 17.923C141.262 17.923 140.731 18.364 140.515 18.895V20.641C140.785 21.127 141.235 21.37 141.874 21.37C142.333 21.37 142.72 21.208 143.017 20.884C143.314 20.56 143.467 20.146 143.467 19.633C143.467 18.589 142.882 17.923 141.946 17.923ZM145.463 18.445L145.076 17.878C145.508 17.473 146.255 17.212 146.948 17.212C148.199 17.212 148.865 17.896 148.865 19.111V22H148.109V21.307C147.812 21.739 147.227 22.063 146.471 22.063C145.454 22.063 144.77 21.496 144.77 20.632C144.77 19.651 145.607 19.183 147.011 19.183C147.452 19.183 147.812 19.228 148.109 19.318C148.109 18.409 147.785 17.923 146.858 17.923C146.39 17.923 145.922 18.094 145.463 18.445ZM146.651 21.379C147.002 21.379 147.317 21.28 147.578 21.091C147.839 20.902 148.01 20.686 148.109 20.461V19.984C147.848 19.894 147.515 19.849 147.11 19.849C146.084 19.849 145.571 20.101 145.571 20.605C145.571 21.082 146.003 21.379 146.651 21.379ZM153.537 20.65L154.077 21.037C153.726 21.694 152.934 22.081 152.151 22.081C151.404 22.081 150.801 21.856 150.342 21.415C149.883 20.974 149.649 20.389 149.649 19.651C149.649 18.949 149.874 18.364 150.333 17.905C150.792 17.446 151.377 17.212 152.106 17.212C152.943 17.212 153.69 17.59 154.005 18.166L153.42 18.562C153.105 18.139 152.673 17.923 152.124 17.923C151.638 17.923 151.242 18.085 150.927 18.409C150.612 18.733 150.45 19.147 150.45 19.651C150.45 20.164 150.612 20.578 150.945 20.893C151.269 21.208 151.692 21.37 152.223 21.37C152.781 21.37 153.222 21.127 153.537 20.65ZM158.072 20.65L158.612 21.037C158.261 21.694 157.469 22.081 156.686 22.081C155.939 22.081 155.336 21.856 154.877 21.415C154.418 20.974 154.184 20.389 154.184 19.651C154.184 18.949 154.409 18.364 154.868 17.905C155.327 17.446 155.912 17.212 156.641 17.212C157.478 17.212 158.225 17.59 158.54 18.166L157.955 18.562C157.64 18.139 157.208 17.923 156.659 17.923C156.173 17.923 155.777 18.085 155.462 18.409C155.147 18.733 154.985 19.147 154.985 19.651C154.985 20.164 155.147 20.578 155.48 20.893C155.804 21.208 156.227 21.37 156.758 21.37C157.316 21.37 157.757 21.127 158.072 20.65ZM160.557 18.031H158.766V17.32H163.122V18.031H161.313V22H160.557V18.031ZM163.246 19.651C163.246 18.94 163.48 18.355 163.939 17.896C164.398 17.437 164.992 17.212 165.721 17.212C166.459 17.212 167.062 17.437 167.521 17.896C167.98 18.355 168.214 18.94 168.214 19.651C168.214 20.362 167.98 20.938 167.521 21.397C167.053 21.856 166.45 22.081 165.721 22.081C164.992 22.081 164.398 21.856 163.939 21.397C163.48 20.938 163.246 20.362 163.246 19.651ZM164.047 19.651C164.047 20.146 164.2 20.56 164.515 20.884C164.83 21.208 165.226 21.37 165.721 21.37C166.216 21.37 166.63 21.208 166.945 20.893C167.26 20.578 167.413 20.164 167.413 19.651C167.413 19.138 167.251 18.724 166.936 18.4C166.612 18.085 166.207 17.923 165.721 17.923C165.235 17.923 164.839 18.085 164.524 18.4C164.209 18.715 164.047 19.138 164.047 19.651ZM170.74 17.32H172.621V22H171.865V20.344H170.722L169.336 22H168.418L169.912 20.227C169.192 20.092 168.715 19.543 168.715 18.823C168.715 17.932 169.336 17.32 170.74 17.32ZM169.516 18.841C169.516 19.3 169.948 19.624 170.632 19.624H171.865V18.04H170.65C169.894 18.04 169.516 18.31 169.516 18.841ZM177.932 22H177.176V19.975H174.476V22H173.72V17.32H174.476V19.264H177.176V17.32H177.932V22ZM182.574 18.499L179.721 22H179.028V17.32H179.784V20.83L182.628 17.32H183.33V22H182.574V18.499ZM188.043 20.659L188.529 21.109C188.097 21.757 187.476 22.081 186.657 22.081C185.91 22.081 185.307 21.856 184.848 21.415C184.389 20.974 184.164 20.389 184.164 19.651C184.164 18.94 184.371 18.355 184.794 17.896C185.208 17.437 185.793 17.212 186.549 17.212C187.17 17.212 187.692 17.41 188.097 17.797C188.502 18.184 188.709 18.697 188.709 19.336C188.709 19.543 188.691 19.732 188.664 19.903H184.974C185.019 20.83 185.703 21.37 186.684 21.37C187.233 21.37 187.755 21.082 188.043 20.659ZM186.495 17.905C185.64 17.905 185.082 18.427 184.965 19.219H187.908C187.863 18.391 187.332 17.905 186.495 17.905ZM132.429 35H131.673V30.32H132.366L134.094 32.606L135.777 30.32H136.425V35H135.669V31.652L134.085 33.812L132.429 31.652V35ZM137.887 31.445L137.5 30.878C137.932 30.473 138.679 30.212 139.372 30.212C140.623 30.212 141.289 30.896 141.289 32.111V35H140.533V34.307C140.236 34.739 139.651 35.063 138.895 35.063C137.878 35.063 137.194 34.496 137.194 33.632C137.194 32.651 138.031 32.183 139.435 32.183C139.876 32.183 140.236 32.228 140.533 32.318C140.533 31.409 140.209 30.923 139.282 30.923C138.814 30.923 138.346 31.094 137.887 31.445ZM139.075 34.379C139.426 34.379 139.741 34.28 140.002 34.091C140.263 33.902 140.434 33.686 140.533 33.461V32.984C140.272 32.894 139.939 32.849 139.534 32.849C138.508 32.849 137.995 33.101 137.995 33.605C137.995 34.082 138.427 34.379 139.075 34.379ZM143.09 36.8H142.334V30.32H143.09V30.905C143.405 30.446 143.909 30.212 144.602 30.212C145.286 30.212 145.835 30.428 146.24 30.869C146.645 31.31 146.843 31.877 146.843 32.579C146.843 33.299 146.627 33.893 146.195 34.37C145.754 34.847 145.196 35.081 144.512 35.081C143.882 35.081 143.405 34.919 143.09 34.604V36.8ZM144.521 30.923C143.837 30.923 143.306 31.364 143.09 31.895V33.641C143.36 34.127 143.81 34.37 144.449 34.37C144.908 34.37 145.295 34.208 145.592 33.884C145.889 33.56 146.042 33.146 146.042 32.633C146.042 31.589 145.457 30.923 144.521 30.923ZM153.312 35H147.678V30.32H148.434V34.28H150.117V30.32H150.873V34.28H152.556V30.32H153.312V35ZM155.166 36.8H154.41V30.32H155.166V30.905C155.481 30.446 155.985 30.212 156.678 30.212C157.362 30.212 157.911 30.428 158.316 30.869C158.721 31.31 158.919 31.877 158.919 32.579C158.919 33.299 158.703 33.893 158.271 34.37C157.83 34.847 157.272 35.081 156.588 35.081C155.958 35.081 155.481 34.919 155.166 34.604V36.8ZM156.597 30.923C155.913 30.923 155.382 31.364 155.166 31.895V33.641C155.436 34.127 155.886 34.37 156.525 34.37C156.984 34.37 157.371 34.208 157.668 33.884C157.965 33.56 158.118 33.146 158.118 32.633C158.118 31.589 157.533 30.923 156.597 30.923ZM159.669 36.782L159.966 36.125C160.038 36.152 160.101 36.17 160.164 36.17C160.515 36.17 160.758 35.927 161.073 35.18L161.217 34.829L158.949 30.32H159.84L161.595 33.875L162.918 30.32H163.746L161.964 34.928C161.658 35.684 161.37 36.197 161.109 36.476C160.839 36.755 160.533 36.89 160.191 36.89C159.993 36.89 159.822 36.854 159.669 36.782ZM165.637 31.031H163.846V30.32H168.202V31.031H166.393V35H165.637V31.031ZM168.965 31.445L168.578 30.878C169.01 30.473 169.757 30.212 170.45 30.212C171.701 30.212 172.367 30.896 172.367 32.111V35H171.611V34.307C171.314 34.739 170.729 35.063 169.973 35.063C168.956 35.063 168.272 34.496 168.272 33.632C168.272 32.651 169.109 32.183 170.513 32.183C170.954 32.183 171.314 32.228 171.611 32.318C171.611 31.409 171.287 30.923 170.36 30.923C169.892 30.923 169.424 31.094 168.965 31.445ZM170.153 34.379C170.504 34.379 170.819 34.28 171.08 34.091C171.341 33.902 171.512 33.686 171.611 33.461V32.984C171.35 32.894 171.017 32.849 170.612 32.849C169.586 32.849 169.073 33.101 169.073 33.605C169.073 34.082 169.505 34.379 170.153 34.379Z" fill="#1A3341"/>
<path d="M178.316 36.314L177.803 36.836C177.137 36.26 176.651 35.603 176.345 34.865C176.039 34.127 175.886 33.398 175.886 32.669C175.886 31.229 176.453 29.708 177.812 28.493L178.307 29.015C177.209 30.041 176.66 31.256 176.66 32.669C176.66 34.01 177.272 35.306 178.316 36.314ZM179.714 35H178.958V30.32H179.714V32.417L182.081 30.32H183.098L180.677 32.471L183.215 35H182.207L180.101 32.939L179.714 33.299V35ZM184.451 35H183.695V30.32H184.388L186.116 32.606L187.799 30.32H188.447V35H187.691V31.652L186.107 33.812L184.451 31.652V35ZM189.603 36.827L189.09 36.332C189.63 35.855 190.044 35.297 190.323 34.631C190.602 33.974 190.737 33.326 190.737 32.669C190.737 31.256 190.188 30.041 189.09 29.024L189.594 28.493C190.953 29.708 191.511 31.229 191.511 32.669C191.511 33.398 191.358 34.127 191.061 34.865C190.755 35.603 190.269 36.26 189.603 36.827Z" fill="#3C525E"/>
<path d="M212.485 225H211.666V218.7H212.485V221.742L215.671 218.7H216.742L213.772 221.553L216.958 225H215.878L213.16 222.093L212.485 222.741V225ZM216.834 222.651C216.834 221.94 217.068 221.355 217.527 220.896C217.986 220.437 218.58 220.212 219.309 220.212C220.047 220.212 220.65 220.437 221.109 220.896C221.568 221.355 221.802 221.94 221.802 222.651C221.802 223.362 221.568 223.938 221.109 224.397C220.641 224.856 220.038 225.081 219.309 225.081C218.58 225.081 217.986 224.856 217.527 224.397C217.068 223.938 216.834 223.362 216.834 222.651ZM217.635 222.651C217.635 223.146 217.788 223.56 218.103 223.884C218.418 224.208 218.814 224.37 219.309 224.37C219.804 224.37 220.218 224.208 220.533 223.893C220.848 223.578 221.001 223.164 221.001 222.651C221.001 222.138 220.839 221.724 220.524 221.4C220.2 221.085 219.795 220.923 219.309 220.923C218.823 220.923 218.427 221.085 218.112 221.4C217.797 221.715 217.635 222.138 217.635 222.651ZM226.603 225H225.847V221.04H223.867V221.256C223.867 222.768 223.696 223.812 223.354 224.352C223.012 224.892 222.589 225.072 222.004 225V224.28C222.607 224.28 223.111 224.019 223.111 221.283V220.32H226.603V225ZM231.249 221.499L228.396 225H227.703V220.32H228.459V223.83L231.303 220.32H232.005V225H231.249V221.499ZM236.133 220.32H236.889V225H236.133V223.029C235.791 223.371 235.314 223.542 234.702 223.542C233.469 223.542 232.857 222.921 232.857 221.679V220.32H233.613V221.472C233.613 222.417 234.009 222.822 234.837 222.822C235.377 222.822 235.89 222.534 236.133 222.183V220.32ZM241.605 223.659L242.091 224.109C241.659 224.757 241.038 225.081 240.219 225.081C239.472 225.081 238.869 224.856 238.41 224.415C237.951 223.974 237.726 223.389 237.726 222.651C237.726 221.94 237.933 221.355 238.356 220.896C238.77 220.437 239.355 220.212 240.111 220.212C240.732 220.212 241.254 220.41 241.659 220.797C242.063 221.184 242.271 221.697 242.271 222.336C242.271 222.543 242.253 222.732 242.226 222.903H238.536C238.581 223.83 239.265 224.37 240.246 224.37C240.795 224.37 241.317 224.082 241.605 223.659ZM240.057 220.905C239.202 220.905 238.644 221.427 238.527 222.219H241.47C241.425 221.391 240.894 220.905 240.057 220.905ZM246.738 223.65L247.278 224.037C246.927 224.694 246.135 225.081 245.352 225.081C244.605 225.081 244.002 224.856 243.543 224.415C243.084 223.974 242.85 223.389 242.85 222.651C242.85 221.949 243.075 221.364 243.534 220.905C243.993 220.446 244.578 220.212 245.307 220.212C246.144 220.212 246.891 220.59 247.206 221.166L246.621 221.562C246.306 221.139 245.874 220.923 245.325 220.923C244.839 220.923 244.443 221.085 244.128 221.409C243.813 221.733 243.651 222.147 243.651 222.651C243.651 223.164 243.813 223.578 244.146 223.893C244.47 224.208 244.893 224.37 245.424 224.37C245.982 224.37 246.423 224.127 246.738 223.65ZM249.222 221.031H247.431V220.32H251.787V221.031H249.978V225H249.222V221.031ZM254.436 225H252.348V220.32H254.292C255.597 220.32 256.209 220.653 256.209 221.517C256.209 221.949 256.011 222.291 255.606 222.534C256.11 222.687 256.362 223.056 256.362 223.659C256.362 224.532 255.669 225 254.436 225ZM254.445 222.957H253.104V224.298H254.355C255.156 224.298 255.561 224.073 255.561 223.623C255.561 223.182 255.192 222.957 254.445 222.957ZM254.265 221.022H253.104V222.273H254.526C255.075 222.273 255.408 222.048 255.408 221.625C255.408 221.148 255.021 221.022 254.265 221.022ZM256.947 222.651C256.947 221.94 257.181 221.355 257.64 220.896C258.099 220.437 258.693 220.212 259.422 220.212C260.16 220.212 260.763 220.437 261.222 220.896C261.681 221.355 261.915 221.94 261.915 222.651C261.915 223.362 261.681 223.938 261.222 224.397C260.754 224.856 260.151 225.081 259.422 225.081C258.693 225.081 258.099 224.856 257.64 224.397C257.181 223.938 256.947 223.362 256.947 222.651ZM257.748 222.651C257.748 223.146 257.901 223.56 258.216 223.884C258.531 224.208 258.927 224.37 259.422 224.37C259.917 224.37 260.331 224.208 260.646 223.893C260.961 223.578 261.114 223.164 261.114 222.651C261.114 222.138 260.952 221.724 260.637 221.4C260.313 221.085 259.908 220.923 259.422 220.923C258.936 220.923 258.54 221.085 258.225 221.4C257.91 221.715 257.748 222.138 257.748 222.651ZM266.208 225H265.452V220.32H266.208V222.417L268.575 220.32H269.592L267.171 222.471L269.709 225H268.701L266.595 222.939L266.208 223.299V225ZM269.568 222.651C269.568 221.94 269.802 221.355 270.261 220.896C270.72 220.437 271.314 220.212 272.043 220.212C272.781 220.212 273.384 220.437 273.843 220.896C274.302 221.355 274.536 221.94 274.536 222.651C274.536 223.362 274.302 223.938 273.843 224.397C273.375 224.856 272.772 225.081 272.043 225.081C271.314 225.081 270.72 224.856 270.261 224.397C269.802 223.938 269.568 223.362 269.568 222.651ZM270.369 222.651C270.369 223.146 270.522 223.56 270.837 223.884C271.152 224.208 271.548 224.37 272.043 224.37C272.538 224.37 272.952 224.208 273.267 223.893C273.582 223.578 273.735 223.164 273.735 222.651C273.735 222.138 273.573 221.724 273.258 221.4C272.934 221.085 272.529 220.923 272.043 220.923C271.557 220.923 271.161 221.085 270.846 221.4C270.531 221.715 270.369 222.138 270.369 222.651ZM279.587 225H278.831V222.975H276.131V225H275.375V220.32H276.131V222.264H278.831V220.32H279.587V225ZM281.935 221.031H280.144V220.32H284.5V221.031H282.691V225H281.935V221.031ZM288.503 223.659L288.989 224.109C288.557 224.757 287.936 225.081 287.117 225.081C286.37 225.081 285.767 224.856 285.308 224.415C284.849 223.974 284.624 223.389 284.624 222.651C284.624 221.94 284.831 221.355 285.254 220.896C285.668 220.437 286.253 220.212 287.009 220.212C287.63 220.212 288.152 220.41 288.557 220.797C288.962 221.184 289.169 221.697 289.169 222.336C289.169 222.543 289.151 222.732 289.124 222.903H285.434C285.479 223.83 286.163 224.37 287.144 224.37C287.693 224.37 288.215 224.082 288.503 223.659ZM286.955 220.905C286.1 220.905 285.542 221.427 285.425 222.219H288.368C288.323 221.391 287.792 220.905 286.955 220.905ZM293.555 221.499L290.702 225H290.009V220.32H290.765V223.83L293.609 220.32H294.311V225H293.555V221.499ZM290.729 218.304H291.44C291.449 218.745 291.737 219.042 292.241 219.042C292.718 219.042 293.015 218.745 293.015 218.304H293.726C293.717 219.123 293.078 219.645 292.241 219.645C291.341 219.645 290.738 219.132 290.729 218.304ZM299.617 225H298.861V222.975H296.161V225H295.405V220.32H296.161V222.264H298.861V220.32H299.617V225ZM304.332 223.659L304.818 224.109C304.386 224.757 303.765 225.081 302.946 225.081C302.199 225.081 301.596 224.856 301.137 224.415C300.678 223.974 300.453 223.389 300.453 222.651C300.453 221.94 300.66 221.355 301.083 220.896C301.497 220.437 302.082 220.212 302.838 220.212C303.459 220.212 303.981 220.41 304.386 220.797C304.791 221.184 304.998 221.697 304.998 222.336C304.998 222.543 304.98 222.732 304.953 222.903H301.263C301.308 223.83 301.992 224.37 302.973 224.37C303.522 224.37 304.044 224.082 304.332 223.659ZM302.784 220.905C301.929 220.905 301.371 221.427 301.254 222.219H304.197C304.152 221.391 303.621 220.905 302.784 220.905ZM306.594 226.8H305.838V220.32H306.594V220.905C306.909 220.446 307.413 220.212 308.106 220.212C308.79 220.212 309.339 220.428 309.744 220.869C310.149 221.31 310.347 221.877 310.347 222.579C310.347 223.299 310.131 223.893 309.699 224.37C309.258 224.847 308.7 225.081 308.016 225.081C307.386 225.081 306.909 224.919 306.594 224.604V226.8ZM308.025 220.923C307.341 220.923 306.81 221.364 306.594 221.895V223.641C306.864 224.127 307.314 224.37 307.953 224.37C308.412 224.37 308.799 224.208 309.096 223.884C309.393 223.56 309.546 223.146 309.546 222.633C309.546 221.589 308.961 220.923 308.025 220.923ZM310.921 222.651C310.921 221.94 311.155 221.355 311.614 220.896C312.073 220.437 312.667 220.212 313.396 220.212C314.134 220.212 314.737 220.437 315.196 220.896C315.655 221.355 315.889 221.94 315.889 222.651C315.889 223.362 315.655 223.938 315.196 224.397C314.728 224.856 314.125 225.081 313.396 225.081C312.667 225.081 312.073 224.856 311.614 224.397C311.155 223.938 310.921 223.362 310.921 222.651ZM311.722 222.651C311.722 223.146 311.875 223.56 312.19 223.884C312.505 224.208 312.901 224.37 313.396 224.37C313.891 224.37 314.305 224.208 314.62 223.893C314.935 223.578 315.088 223.164 315.088 222.651C315.088 222.138 314.926 221.724 314.611 221.4C314.287 221.085 313.882 220.923 313.396 220.923C312.91 220.923 312.514 221.085 312.199 221.4C311.884 221.715 311.722 222.138 311.722 222.651ZM318.816 225H316.728V220.32H318.672C319.977 220.32 320.589 220.653 320.589 221.517C320.589 221.949 320.391 222.291 319.986 222.534C320.49 222.687 320.742 223.056 320.742 223.659C320.742 224.532 320.049 225 318.816 225ZM318.825 222.957H317.484V224.298H318.735C319.536 224.298 319.941 224.073 319.941 223.623C319.941 223.182 319.572 222.957 318.825 222.957ZM318.645 221.022H317.484V222.273H318.906C319.455 222.273 319.788 222.048 319.788 221.625C319.788 221.148 319.401 221.022 318.645 221.022ZM213.637 238H211.549V233.32H213.493C214.798 233.32 215.41 233.653 215.41 234.517C215.41 234.949 215.212 235.291 214.807 235.534C215.311 235.687 215.563 236.056 215.563 236.659C215.563 237.532 214.87 238 213.637 238ZM213.646 235.957H212.305V237.298H213.556C214.357 237.298 214.762 237.073 214.762 236.623C214.762 236.182 214.393 235.957 213.646 235.957ZM213.466 234.022H212.305V235.273H213.727C214.276 235.273 214.609 235.048 214.609 234.625C214.609 234.148 214.222 234.022 213.466 234.022ZM223.266 238H222.51V234.031H219.864V238H219.108V233.32H223.266V238ZM224.102 235.651C224.102 234.94 224.336 234.355 224.795 233.896C225.254 233.437 225.848 233.212 226.577 233.212C227.315 233.212 227.918 233.437 228.377 233.896C228.836 234.355 229.07 234.94 229.07 235.651C229.07 236.362 228.836 236.938 228.377 237.397C227.909 237.856 227.306 238.081 226.577 238.081C225.848 238.081 225.254 237.856 224.795 237.397C224.336 236.938 224.102 236.362 224.102 235.651ZM224.903 235.651C224.903 236.146 225.056 236.56 225.371 236.884C225.686 237.208 226.082 237.37 226.577 237.37C227.072 237.37 227.486 237.208 227.801 236.893C228.116 236.578 228.269 236.164 228.269 235.651C228.269 235.138 228.107 234.724 227.792 234.4C227.468 234.085 227.063 233.923 226.577 233.923C226.091 233.923 225.695 234.085 225.38 234.4C225.065 234.715 224.903 235.138 224.903 235.651ZM233.527 236.659L234.013 237.109C233.581 237.757 232.96 238.081 232.141 238.081C231.394 238.081 230.791 237.856 230.332 237.415C229.873 236.974 229.648 236.389 229.648 235.651C229.648 234.94 229.855 234.355 230.278 233.896C230.692 233.437 231.277 233.212 232.033 233.212C232.654 233.212 233.176 233.41 233.581 233.797C233.986 234.184 234.193 234.697 234.193 235.336C234.193 235.543 234.175 235.732 234.148 235.903H230.458C230.503 236.83 231.187 237.37 232.168 237.37C232.717 237.37 233.239 237.082 233.527 236.659ZM231.979 233.905C231.124 233.905 230.566 234.427 230.449 235.219H233.392C233.347 234.391 232.816 233.905 231.979 233.905ZM236.55 238.09C235.587 238.09 234.876 237.73 234.435 237.019L235.029 236.605C235.29 237.082 235.866 237.388 236.559 237.388C237.306 237.388 237.837 237.082 237.837 236.578C237.837 236.164 237.522 235.957 236.901 235.957H235.803V235.273H236.847C237.306 235.273 237.666 235.003 237.666 234.598C237.666 234.157 237.198 233.905 236.523 233.905C235.956 233.905 235.488 234.121 235.137 234.562L234.579 234.193C234.894 233.653 235.614 233.203 236.595 233.203C237.774 233.203 238.467 233.698 238.467 234.481C238.467 234.922 238.278 235.264 237.909 235.489C238.449 235.75 238.638 236.065 238.638 236.56C238.638 237.037 238.44 237.406 238.053 237.676C237.666 237.955 237.162 238.09 236.55 238.09ZM239.688 239.134H238.968V237.28H239.49C239.967 236.551 240.147 235.525 240.147 233.752V233.32H243.585V237.28H244.26V239.134H243.54V238H239.688V239.134ZM242.829 234.04H240.858V234.364C240.858 235.561 240.669 236.533 240.3 237.28H242.829V234.04ZM248.53 236.659L249.016 237.109C248.584 237.757 247.963 238.081 247.144 238.081C246.397 238.081 245.794 237.856 245.335 237.415C244.876 236.974 244.651 236.389 244.651 235.651C244.651 234.94 244.858 234.355 245.281 233.896C245.695 233.437 246.28 233.212 247.036 233.212C247.657 233.212 248.179 233.41 248.584 233.797C248.989 234.184 249.196 234.697 249.196 235.336C249.196 235.543 249.178 235.732 249.151 235.903H245.461C245.506 236.83 246.19 237.37 247.171 237.37C247.72 237.37 248.242 237.082 248.53 236.659ZM246.982 233.905C246.127 233.905 245.569 234.427 245.452 235.219H248.395C248.35 234.391 247.819 233.905 246.982 233.905Z" fill="#1A3341"/>
<path d="M254.94 239.314L254.427 239.836C253.761 239.26 253.275 238.603 252.969 237.865C252.663 237.127 252.51 236.398 252.51 235.669C252.51 234.229 253.077 232.708 254.436 231.493L254.931 232.015C253.833 233.041 253.284 234.256 253.284 235.669C253.284 237.01 253.896 238.306 254.94 239.314ZM255.816 239.152H255.033V237.235H255.699C256.095 236.614 256.536 235.057 256.536 232.465V231.7H260.793V237.235H261.585V239.152H260.802V238H255.816V239.152ZM259.974 232.465H257.319V233.05C257.319 233.815 257.247 234.607 257.103 235.426C256.95 236.245 256.779 236.848 256.581 237.235H259.974V232.465ZM265.891 238.135H265.072V237.37H265.027C264.055 237.37 263.29 237.136 262.732 236.659C262.165 236.191 261.886 235.561 261.886 234.76C261.886 233.923 262.174 233.284 262.759 232.825C263.335 232.375 264.109 232.15 265.072 232.15V231.565H265.891V232.15C266.809 232.15 267.574 232.375 268.177 232.825C268.78 233.275 269.077 233.923 269.077 234.76C269.077 235.561 268.798 236.191 268.231 236.659C267.664 237.136 266.899 237.37 265.936 237.37H265.891V238.135ZM265.909 232.906H265.891V236.614H265.936C267.376 236.614 268.231 235.948 268.231 234.76C268.231 233.581 267.43 232.906 265.909 232.906ZM262.732 234.76C262.732 235.885 263.569 236.614 265.036 236.614H265.072V232.906C263.659 232.906 262.732 233.536 262.732 234.76ZM274.119 235.165H270.834V234.4H274.11C273.966 233.167 273.093 232.384 271.734 232.384C271.014 232.384 270.186 232.762 269.718 233.347L269.169 232.825C269.745 232.06 270.78 231.619 271.788 231.619C272.769 231.619 273.543 231.907 274.11 232.483C274.677 233.059 274.956 233.842 274.956 234.823C274.956 235.786 274.668 236.569 274.092 237.172C273.516 237.775 272.724 238.081 271.716 238.081C270.735 238.081 269.736 237.694 269.151 236.875L269.709 236.407C270.132 236.983 270.96 237.316 271.761 237.316C272.427 237.316 272.976 237.118 273.399 236.722C273.822 236.326 274.065 235.804 274.119 235.165ZM275.895 239.827L275.382 239.332C275.922 238.855 276.336 238.297 276.615 237.631C276.894 236.974 277.029 236.326 277.029 235.669C277.029 234.256 276.48 233.041 275.382 232.024L275.886 231.493C277.245 232.708 277.803 234.229 277.803 235.669C277.803 236.398 277.65 237.127 277.353 237.865C277.047 238.603 276.561 239.26 275.895 239.827Z" fill="#3C525E"/>
<path d="M115 96L117.887 91L112.113 91L115 96ZM115.5 91.5L115.5 -7.62282e-06L114.5 -7.63597e-06L114.5 91.5L115.5 91.5Z" fill="#CEE0ED"/>
<path d="M197 96L199.887 91L194.113 91L197 96ZM197.5 91.5L197.5 -7.62282e-06L196.5 -7.63597e-06L196.5 91.5L197.5 91.5Z" fill="#CEE0ED"/>
<path d="M201 203L198.113 208L203.887 208L201 203ZM200.5 207.5L200.5 251L201.5 251L201.5 207.5L200.5 207.5Z" fill="#CEE0ED"/>
<path d="M3 179L0.113252 184L5.88675 184L3 179ZM3.5 251L3.5 183.5L2.5 183.5L2.5 251L3.5 251Z" fill="#CEE0ED"/>
<path d="M258.588 9H257.769V2.7H258.588V5.742L261.774 2.7H262.845L259.875 5.553L263.061 9H261.981L259.263 6.093L258.588 6.741V9ZM262.936 6.651C262.936 5.94 263.17 5.355 263.629 4.896C264.088 4.437 264.682 4.212 265.411 4.212C266.149 4.212 266.752 4.437 267.211 4.896C267.67 5.355 267.904 5.94 267.904 6.651C267.904 7.362 267.67 7.938 267.211 8.397C266.743 8.856 266.14 9.081 265.411 9.081C264.682 9.081 264.088 8.856 263.629 8.397C263.17 7.938 262.936 7.362 262.936 6.651ZM263.737 6.651C263.737 7.146 263.89 7.56 264.205 7.884C264.52 8.208 264.916 8.37 265.411 8.37C265.906 8.37 266.32 8.208 266.635 7.893C266.95 7.578 267.103 7.164 267.103 6.651C267.103 6.138 266.941 5.724 266.626 5.4C266.302 5.085 265.897 4.923 265.411 4.923C264.925 4.923 264.529 5.085 264.214 5.4C263.899 5.715 263.737 6.138 263.737 6.651ZM271.992 6.948H269.652V6.264H271.974C271.857 5.373 271.254 4.923 270.354 4.923C269.679 4.923 269.175 5.175 268.842 5.67L268.266 5.265C268.761 4.563 269.463 4.212 270.372 4.212C271.119 4.212 271.704 4.428 272.145 4.869C272.577 5.31 272.793 5.904 272.793 6.651C272.793 7.362 272.577 7.947 272.145 8.397C271.713 8.856 271.119 9.081 270.372 9.081C269.373 9.081 268.68 8.757 268.275 8.109L268.842 7.686C269.157 8.145 269.652 8.37 270.309 8.37C271.254 8.37 271.911 7.785 271.992 6.948ZM276.672 10.8H275.916V9.09H275.862C275.079 9.09 274.467 8.865 274.026 8.415C273.576 7.965 273.351 7.38 273.351 6.669C273.351 5.994 273.576 5.427 274.026 4.95C274.476 4.473 275.088 4.239 275.853 4.239H275.916V2.43H276.672V4.239H276.744C277.491 4.239 278.103 4.464 278.562 4.923C279.021 5.382 279.246 5.967 279.246 6.669C279.246 7.38 279.021 7.965 278.58 8.415C278.13 8.865 277.509 9.09 276.726 9.09H276.672V10.8ZM274.152 6.669C274.152 7.713 274.755 8.37 275.862 8.37H275.916V4.959H275.853C274.764 4.959 274.152 5.652 274.152 6.669ZM276.726 4.959H276.672V8.37H276.726C277.851 8.37 278.445 7.722 278.445 6.669C278.445 5.67 277.815 4.959 276.726 4.959ZM283.106 10.8H282.35V9.09H282.296C281.513 9.09 280.901 8.865 280.46 8.415C280.01 7.965 279.785 7.38 279.785 6.669C279.785 5.994 280.01 5.427 280.46 4.95C280.91 4.473 281.522 4.239 282.287 4.239H282.35V2.43H283.106V4.239H283.178C283.925 4.239 284.537 4.464 284.996 4.923C285.455 5.382 285.68 5.967 285.68 6.669C285.68 7.38 285.455 7.965 285.014 8.415C284.564 8.865 283.943 9.09 283.16 9.09H283.106V10.8ZM280.586 6.669C280.586 7.713 281.189 8.37 282.296 8.37H282.35V4.959H282.287C281.198 4.959 280.586 5.652 280.586 6.669ZM283.16 4.959H283.106V8.37H283.16C284.285 8.37 284.879 7.722 284.879 6.669C284.879 5.67 284.249 4.959 283.16 4.959ZM290.043 5.499L287.19 9H286.497V4.32H287.253V7.83L290.097 4.32H290.799V9H290.043V5.499ZM295.971 9H291.894V4.32H292.65V8.28H295.269V4.32H296.025V8.28H296.682V10.134H295.971V9ZM300.889 5.499L298.036 9H297.343V4.32H298.099V7.83L300.943 4.32H301.645V9H300.889V5.499ZM306.357 7.659L306.843 8.109C306.411 8.757 305.79 9.081 304.971 9.081C304.224 9.081 303.621 8.856 303.162 8.415C302.703 7.974 302.478 7.389 302.478 6.651C302.478 5.94 302.685 5.355 303.108 4.896C303.522 4.437 304.107 4.212 304.863 4.212C305.484 4.212 306.006 4.41 306.411 4.797C306.816 5.184 307.023 5.697 307.023 6.336C307.023 6.543 307.005 6.732 306.978 6.903H303.288C303.333 7.83 304.017 8.37 304.998 8.37C305.547 8.37 306.069 8.082 306.357 7.659ZM304.809 4.905C303.954 4.905 303.396 5.427 303.279 6.219H306.222C306.177 5.391 305.646 4.905 304.809 4.905ZM312.075 9H311.319V6.975H308.619V9H307.863V4.32H308.619V6.264H311.319V4.32H312.075V9ZM314.423 5.031H312.632V4.32H316.988V5.031H315.179V9H314.423V5.031ZM263.185 22H261.097V17.32H263.041C264.346 17.32 264.958 17.653 264.958 18.517C264.958 18.949 264.76 19.291 264.355 19.534C264.859 19.687 265.111 20.056 265.111 20.659C265.111 21.532 264.418 22 263.185 22ZM263.194 19.957H261.853V21.298H263.104C263.905 21.298 264.31 21.073 264.31 20.623C264.31 20.182 263.941 19.957 263.194 19.957ZM263.014 18.022H261.853V19.273H263.275C263.824 19.273 264.157 19.048 264.157 18.625C264.157 18.148 263.77 18.022 263.014 18.022ZM267.649 22H265.957V17.32H266.713V18.778H267.721C269.098 18.778 269.647 19.417 269.647 20.38C269.647 21.325 269.044 22 267.649 22ZM267.64 19.498H266.713V21.28H267.631C268.495 21.28 268.846 20.974 268.846 20.389C268.846 19.795 268.441 19.498 267.64 19.498ZM271.078 22H270.313V17.32H271.078V22ZM276.167 15.313L276.302 16.006C276.041 16.105 275.627 16.186 275.042 16.249C274.457 16.312 274.052 16.402 273.827 16.51C273.152 16.843 272.756 17.464 272.657 18.382L272.693 18.391C273.08 17.779 273.71 17.473 274.574 17.473C275.231 17.473 275.762 17.671 276.167 18.058C276.572 18.454 276.77 19.003 276.77 19.696C276.77 20.371 276.545 20.938 276.104 21.397C275.663 21.856 275.087 22.09 274.394 22.09C272.873 22.09 271.928 21.073 271.928 19.282C271.928 18.382 272.045 17.662 272.279 17.113C272.504 16.573 272.918 16.15 273.503 15.853C273.818 15.7 274.286 15.583 274.907 15.52C275.528 15.457 275.951 15.385 276.167 15.313ZM272.729 19.417V19.48C272.729 20.056 272.882 20.515 273.197 20.857C273.503 21.199 273.899 21.37 274.385 21.37C274.862 21.37 275.24 21.217 275.537 20.902C275.825 20.596 275.969 20.209 275.969 19.741C275.969 18.796 275.411 18.193 274.412 18.193C273.548 18.193 272.918 18.742 272.729 19.417ZM278.359 23.8H277.603V17.32H278.359V17.905C278.674 17.446 279.178 17.212 279.871 17.212C280.555 17.212 281.104 17.428 281.509 17.869C281.914 18.31 282.112 18.877 282.112 19.579C282.112 20.299 281.896 20.893 281.464 21.37C281.023 21.847 280.465 22.081 279.781 22.081C279.151 22.081 278.674 21.919 278.359 21.604V23.8ZM279.79 17.923C279.106 17.923 278.575 18.364 278.359 18.895V20.641C278.629 21.127 279.079 21.37 279.718 21.37C280.177 21.37 280.564 21.208 280.861 20.884C281.158 20.56 281.311 20.146 281.311 19.633C281.311 18.589 280.726 17.923 279.79 17.923ZM282.685 19.651C282.685 18.94 282.919 18.355 283.378 17.896C283.837 17.437 284.431 17.212 285.16 17.212C285.898 17.212 286.501 17.437 286.96 17.896C287.419 18.355 287.653 18.94 287.653 19.651C287.653 20.362 287.419 20.938 286.96 21.397C286.492 21.856 285.889 22.081 285.16 22.081C284.431 22.081 283.837 21.856 283.378 21.397C282.919 20.938 282.685 20.362 282.685 19.651ZM283.486 19.651C283.486 20.146 283.639 20.56 283.954 20.884C284.269 21.208 284.665 21.37 285.16 21.37C285.655 21.37 286.069 21.208 286.384 20.893C286.699 20.578 286.852 20.164 286.852 19.651C286.852 19.138 286.69 18.724 286.375 18.4C286.051 18.085 285.646 17.923 285.16 17.923C284.674 17.923 284.278 18.085 283.963 18.4C283.648 18.715 283.486 19.138 283.486 19.651ZM292.119 20.65L292.659 21.037C292.308 21.694 291.516 22.081 290.733 22.081C289.986 22.081 289.383 21.856 288.924 21.415C288.465 20.974 288.231 20.389 288.231 19.651C288.231 18.949 288.456 18.364 288.915 17.905C289.374 17.446 289.959 17.212 290.688 17.212C291.525 17.212 292.272 17.59 292.587 18.166L292.002 18.562C291.687 18.139 291.255 17.923 290.706 17.923C290.22 17.923 289.824 18.085 289.509 18.409C289.194 18.733 289.032 19.147 289.032 19.651C289.032 20.164 289.194 20.578 289.527 20.893C289.851 21.208 290.274 21.37 290.805 21.37C291.363 21.37 291.804 21.127 292.119 20.65ZM293.642 18.445L293.255 17.878C293.687 17.473 294.434 17.212 295.127 17.212C296.378 17.212 297.044 17.896 297.044 19.111V22H296.288V21.307C295.991 21.739 295.406 22.063 294.65 22.063C293.633 22.063 292.949 21.496 292.949 20.632C292.949 19.651 293.786 19.183 295.19 19.183C295.631 19.183 295.991 19.228 296.288 19.318C296.288 18.409 295.964 17.923 295.037 17.923C294.569 17.923 294.101 18.094 293.642 18.445ZM294.83 21.379C295.181 21.379 295.496 21.28 295.757 21.091C296.018 20.902 296.189 20.686 296.288 20.461V19.984C296.027 19.894 295.694 19.849 295.289 19.849C294.263 19.849 293.75 20.101 293.75 20.605C293.75 21.082 294.182 21.379 294.83 21.379ZM305.792 20.452L306.26 20.974C305.783 21.649 304.829 22.081 303.812 22.081C302.822 22.081 302.03 21.784 301.445 21.199C300.86 20.614 300.563 19.831 300.563 18.85C300.563 17.923 300.86 17.158 301.445 16.537C302.03 15.925 302.795 15.619 303.749 15.619C304.829 15.619 305.711 16.051 306.17 16.663L305.639 17.176C305.126 16.663 304.496 16.402 303.767 16.402C303.038 16.402 302.471 16.627 302.048 17.077C301.625 17.527 301.418 18.121 301.418 18.85C301.418 19.588 301.643 20.182 302.093 20.623C302.543 21.073 303.137 21.298 303.866 21.298C304.649 21.298 305.288 21.019 305.792 20.452ZM306.522 18.85C306.522 17.941 306.828 17.167 307.449 16.546C308.07 15.925 308.826 15.619 309.726 15.619C310.617 15.619 311.373 15.925 311.994 16.537C312.615 17.149 312.921 17.923 312.921 18.85C312.921 19.768 312.615 20.533 311.994 21.154C311.373 21.775 310.617 22.081 309.726 22.081C308.826 22.081 308.07 21.775 307.449 21.163C306.828 20.551 306.522 19.777 306.522 18.85ZM307.377 18.85C307.377 19.552 307.611 20.137 308.07 20.596C308.529 21.064 309.078 21.298 309.726 21.298C310.392 21.298 310.95 21.064 311.4 20.605C311.841 20.146 312.066 19.561 312.066 18.85C312.066 18.139 311.841 17.554 311.382 17.095C310.923 16.636 310.365 16.402 309.726 16.402C309.069 16.402 308.52 16.636 308.061 17.095C307.602 17.554 307.377 18.139 307.377 18.85ZM314.12 20.335L313.598 20.038C313.841 19.462 314.453 19.075 315.146 19.075C315.983 19.075 316.514 19.498 316.514 20.173C316.514 20.812 316.109 21.388 315.29 21.901L314.732 22.261H316.676V22.9H313.616V22.342L314.507 21.766C315.326 21.226 315.803 20.785 315.803 20.308C315.803 19.912 315.569 19.714 315.11 19.714C314.678 19.714 314.345 19.921 314.12 20.335Z" fill="#1A3341"/>
<path d="M245.609 36.314L245.096 36.836C244.43 36.26 243.944 35.603 243.638 34.865C243.332 34.127 243.179 33.398 243.179 32.669C243.179 31.229 243.746 29.708 245.105 28.493L245.6 29.015C244.502 30.041 243.953 31.256 243.953 32.669C243.953 34.01 244.565 35.306 245.609 36.314ZM247.503 31.031H245.712V30.32H250.068V31.031H248.259V35H247.503V31.031ZM250.192 32.651C250.192 31.94 250.426 31.355 250.885 30.896C251.344 30.437 251.938 30.212 252.667 30.212C253.405 30.212 254.008 30.437 254.467 30.896C254.926 31.355 255.16 31.94 255.16 32.651C255.16 33.362 254.926 33.938 254.467 34.397C253.999 34.856 253.396 35.081 252.667 35.081C251.938 35.081 251.344 34.856 250.885 34.397C250.426 33.938 250.192 33.362 250.192 32.651ZM250.993 32.651C250.993 33.146 251.146 33.56 251.461 33.884C251.776 34.208 252.172 34.37 252.667 34.37C253.162 34.37 253.576 34.208 253.891 33.893C254.206 33.578 254.359 33.164 254.359 32.651C254.359 32.138 254.197 31.724 253.882 31.4C253.558 31.085 253.153 30.923 252.667 30.923C252.181 30.923 251.785 31.085 251.47 31.4C251.155 31.715 250.993 32.138 250.993 32.651ZM260.211 35H259.455V32.975H256.755V35H255.999V30.32H256.755V32.264H259.455V30.32H260.211V35ZM265.52 35H264.764V32.975H262.064V35H261.308V30.32H262.064V32.264H264.764V30.32H265.52V35ZM274.319 33.452L274.787 33.974C274.31 34.649 273.356 35.081 272.339 35.081C271.349 35.081 270.557 34.784 269.972 34.199C269.387 33.614 269.09 32.831 269.09 31.85C269.09 30.923 269.387 30.158 269.972 29.537C270.557 28.925 271.322 28.619 272.276 28.619C273.356 28.619 274.238 29.051 274.697 29.663L274.166 30.176C273.653 29.663 273.023 29.402 272.294 29.402C271.565 29.402 270.998 29.627 270.575 30.077C270.152 30.527 269.945 31.121 269.945 31.85C269.945 32.588 270.17 33.182 270.62 33.623C271.07 34.073 271.664 34.298 272.393 34.298C273.176 34.298 273.815 34.019 274.319 33.452ZM275.049 31.85C275.049 30.941 275.355 30.167 275.976 29.546C276.597 28.925 277.353 28.619 278.253 28.619C279.144 28.619 279.9 28.925 280.521 29.537C281.142 30.149 281.448 30.923 281.448 31.85C281.448 32.768 281.142 33.533 280.521 34.154C279.9 34.775 279.144 35.081 278.253 35.081C277.353 35.081 276.597 34.775 275.976 34.163C275.355 33.551 275.049 32.777 275.049 31.85ZM275.904 31.85C275.904 32.552 276.138 33.137 276.597 33.596C277.056 34.064 277.605 34.298 278.253 34.298C278.919 34.298 279.477 34.064 279.927 33.605C280.368 33.146 280.593 32.561 280.593 31.85C280.593 31.139 280.368 30.554 279.909 30.095C279.45 29.636 278.892 29.402 278.253 29.402C277.596 29.402 277.047 29.636 276.588 30.095C276.129 30.554 275.904 31.139 275.904 31.85ZM282.646 33.335L282.124 33.038C282.367 32.462 282.979 32.075 283.672 32.075C284.509 32.075 285.04 32.498 285.04 33.173C285.04 33.812 284.635 34.388 283.816 34.901L283.258 35.261H285.202V35.9H282.142V35.342L283.033 34.766C283.852 34.226 284.329 33.785 284.329 33.308C284.329 32.912 284.095 32.714 283.636 32.714C283.204 32.714 282.871 32.921 282.646 33.335ZM288.585 36.845L287.919 36.593L290.907 28.583L291.573 28.799L288.585 36.845ZM295.764 31.031H293.973V30.32H298.329V31.031H296.52V35H295.764V31.031ZM305.134 31.499L302.281 35H301.588V30.32H302.344V33.83L305.188 30.32H305.89V35H305.134V31.499ZM311.053 35H310.297V31.04H308.317V31.256C308.317 32.768 308.146 33.812 307.804 34.352C307.462 34.892 307.039 35.072 306.454 35V34.28C307.057 34.28 307.561 34.019 307.561 31.283V30.32H311.053V35ZM315.699 31.499L312.846 35H312.153V30.32H312.909V33.83L315.753 30.32H316.455V35H315.699V31.499ZM218.745 44.031H216.954V43.32H221.31V44.031H219.501V48H218.745V44.031ZM223.563 48H221.871V43.32H222.627V44.778H223.635C225.012 44.778 225.561 45.417 225.561 46.38C225.561 47.325 224.958 48 223.563 48ZM223.554 45.498H222.627V47.28H223.545C224.409 47.28 224.76 46.974 224.76 46.389C224.76 45.795 224.355 45.498 223.554 45.498ZM226.992 48H226.227V43.32H226.992V48ZM231.712 46.65L232.252 47.037C231.901 47.694 231.109 48.081 230.326 48.081C229.579 48.081 228.976 47.856 228.517 47.415C228.058 46.974 227.824 46.389 227.824 45.651C227.824 44.949 228.049 44.364 228.508 43.905C228.967 43.446 229.552 43.212 230.281 43.212C231.118 43.212 231.865 43.59 232.18 44.166L231.595 44.562C231.28 44.139 230.848 43.923 230.299 43.923C229.813 43.923 229.417 44.085 229.102 44.409C228.787 44.733 228.625 45.147 228.625 45.651C228.625 46.164 228.787 46.578 229.12 46.893C229.444 47.208 229.867 47.37 230.398 47.37C230.956 47.37 231.397 47.127 231.712 46.65ZM234.738 43.32H236.619V48H235.863V46.344H234.72L233.334 48H232.416L233.91 46.227C233.19 46.092 232.713 45.543 232.713 44.823C232.713 43.932 233.334 43.32 234.738 43.32ZM233.514 44.841C233.514 45.3 233.946 45.624 234.63 45.624H235.863V44.04H234.648C233.892 44.04 233.514 44.31 233.514 44.841ZM240.751 43.32H241.507V48H240.751V46.029C240.409 46.371 239.932 46.542 239.32 46.542C238.087 46.542 237.475 45.921 237.475 44.679V43.32H238.231V44.472C238.231 45.417 238.627 45.822 239.455 45.822C239.995 45.822 240.508 45.534 240.751 45.183V43.32ZM246.059 48H245.303V43.32H245.996L247.724 45.606L249.407 43.32H250.055V48H249.299V44.652L247.715 46.812L246.059 44.652V48ZM251.507 42.609L251.012 42.258C251.327 41.736 251.849 41.475 252.578 41.475C253.415 41.475 253.946 41.835 253.946 42.42C253.946 42.843 253.748 43.131 253.343 43.293C253.82 43.41 254.054 43.716 254.054 44.211C254.054 44.922 253.388 45.345 252.515 45.345C251.831 45.345 251.183 45.03 250.904 44.463L251.444 44.121C251.597 44.472 252.038 44.706 252.515 44.706C253.064 44.706 253.334 44.535 253.334 44.184C253.334 43.842 253.064 43.671 252.524 43.671H252.029V43.095H252.425C252.929 43.095 253.235 42.897 253.235 42.564C253.235 42.267 253.01 42.114 252.56 42.114C252.056 42.114 251.759 42.258 251.507 42.609ZM258.938 44.031H257.147V43.32H261.503V44.031H259.694V48H258.938V44.031ZM261.627 45.651C261.627 44.94 261.861 44.355 262.32 43.896C262.779 43.437 263.373 43.212 264.102 43.212C264.84 43.212 265.443 43.437 265.902 43.896C266.361 44.355 266.595 44.94 266.595 45.651C266.595 46.362 266.361 46.938 265.902 47.397C265.434 47.856 264.831 48.081 264.102 48.081C263.373 48.081 262.779 47.856 262.32 47.397C261.861 46.938 261.627 46.362 261.627 45.651ZM262.428 45.651C262.428 46.146 262.581 46.56 262.896 46.884C263.211 47.208 263.607 47.37 264.102 47.37C264.597 47.37 265.011 47.208 265.326 46.893C265.641 46.578 265.794 46.164 265.794 45.651C265.794 45.138 265.632 44.724 265.317 44.4C264.993 44.085 264.588 43.923 264.102 43.923C263.616 43.923 263.22 44.085 262.905 44.4C262.59 44.715 262.428 45.138 262.428 45.651ZM271.592 48H270.836V44.031H268.19V48H267.434V43.32H271.592V48ZM276.758 48H276.002V44.04H274.022V44.256C274.022 45.768 273.851 46.812 273.509 47.352C273.167 47.892 272.744 48.072 272.159 48V47.28C272.762 47.28 273.266 47.019 273.266 44.283V43.32H276.758V48ZM281.404 44.499L278.551 48H277.858V43.32H278.614V46.83L281.458 43.32H282.16V48H281.404V44.499ZM285.342 48H283.254V43.32H285.198C286.503 43.32 287.115 43.653 287.115 44.517C287.115 44.949 286.917 45.291 286.512 45.534C287.016 45.687 287.268 46.056 287.268 46.659C287.268 47.532 286.575 48 285.342 48ZM285.351 45.957H284.01V47.298H285.261C286.062 47.298 286.467 47.073 286.467 46.623C286.467 46.182 286.098 45.957 285.351 45.957ZM285.171 44.022H284.01V45.273H285.432C285.981 45.273 286.314 45.048 286.314 44.625C286.314 44.148 285.927 44.022 285.171 44.022ZM288.51 44.445L288.123 43.878C288.555 43.473 289.302 43.212 289.995 43.212C291.246 43.212 291.912 43.896 291.912 45.111V48H291.156V47.307C290.859 47.739 290.274 48.063 289.518 48.063C288.501 48.063 287.817 47.496 287.817 46.632C287.817 45.651 288.654 45.183 290.058 45.183C290.499 45.183 290.859 45.228 291.156 45.318C291.156 44.409 290.832 43.923 289.905 43.923C289.437 43.923 288.969 44.094 288.51 44.445ZM289.698 47.379C290.049 47.379 290.364 47.28 290.625 47.091C290.886 46.902 291.057 46.686 291.156 46.461V45.984C290.895 45.894 290.562 45.849 290.157 45.849C289.131 45.849 288.618 46.101 288.618 46.605C288.618 47.082 289.05 47.379 289.698 47.379ZM293.398 48C293.065 48.036 292.813 47.847 292.813 47.523C292.813 47.208 293.011 47.01 293.362 47.01C293.758 47.01 294.019 47.28 294.019 47.784C294.019 48.684 293.524 49.143 292.867 49.296L292.678 48.873C292.876 48.819 293.056 48.711 293.218 48.54C293.371 48.369 293.434 48.189 293.398 48ZM298.436 44.031H296.645V43.32H301.001V44.031H299.192V48H298.436V44.031ZM301.125 45.651C301.125 44.94 301.359 44.355 301.818 43.896C302.277 43.437 302.871 43.212 303.6 43.212C304.338 43.212 304.941 43.437 305.4 43.896C305.859 44.355 306.093 44.94 306.093 45.651C306.093 46.362 305.859 46.938 305.4 47.397C304.932 47.856 304.329 48.081 303.6 48.081C302.871 48.081 302.277 47.856 301.818 47.397C301.359 46.938 301.125 46.362 301.125 45.651ZM301.926 45.651C301.926 46.146 302.079 46.56 302.394 46.884C302.709 47.208 303.105 47.37 303.6 47.37C304.095 47.37 304.509 47.208 304.824 46.893C305.139 46.578 305.292 46.164 305.292 45.651C305.292 45.138 305.13 44.724 304.815 44.4C304.491 44.085 304.086 43.923 303.6 43.923C303.114 43.923 302.718 44.085 302.403 44.4C302.088 44.715 301.926 45.138 301.926 45.651ZM311.144 48H310.388V45.975H307.688V48H306.932V43.32H307.688V45.264H310.388V43.32H311.144V48ZM316.452 48H315.696V45.975H312.996V48H312.24V43.32H312.996V45.264H315.696V43.32H316.452V48ZM234.979 59.452L235.447 59.974C234.97 60.649 234.016 61.081 232.999 61.081C232.009 61.081 231.217 60.784 230.632 60.199C230.047 59.614 229.75 58.831 229.75 57.85C229.75 56.923 230.047 56.158 230.632 55.537C231.217 54.925 231.982 54.619 232.936 54.619C234.016 54.619 234.898 55.051 235.357 55.663L234.826 56.176C234.313 55.663 233.683 55.402 232.954 55.402C232.225 55.402 231.658 55.627 231.235 56.077C230.812 56.527 230.605 57.121 230.605 57.85C230.605 58.588 230.83 59.182 231.28 59.623C231.73 60.073 232.324 60.298 233.053 60.298C233.836 60.298 234.475 60.019 234.979 59.452ZM235.709 57.85C235.709 56.941 236.015 56.167 236.636 55.546C237.257 54.925 238.013 54.619 238.913 54.619C239.804 54.619 240.56 54.925 241.181 55.537C241.802 56.149 242.108 56.923 242.108 57.85C242.108 58.768 241.802 59.533 241.181 60.154C240.56 60.775 239.804 61.081 238.913 61.081C238.013 61.081 237.257 60.775 236.636 60.163C236.015 59.551 235.709 58.777 235.709 57.85ZM236.564 57.85C236.564 58.552 236.798 59.137 237.257 59.596C237.716 60.064 238.265 60.298 238.913 60.298C239.579 60.298 240.137 60.064 240.587 59.605C241.028 59.146 241.253 58.561 241.253 57.85C241.253 57.139 241.028 56.554 240.569 56.095C240.11 55.636 239.552 55.402 238.913 55.402C238.256 55.402 237.707 55.636 237.248 56.095C236.789 56.554 236.564 57.139 236.564 57.85ZM243.307 59.335L242.785 59.038C243.028 58.462 243.64 58.075 244.333 58.075C245.17 58.075 245.701 58.498 245.701 59.173C245.701 59.812 245.296 60.388 244.477 60.901L243.919 61.261H245.863V61.9H242.803V61.342L243.694 60.766C244.513 60.226 244.99 59.785 244.99 59.308C244.99 58.912 244.756 58.714 244.297 58.714C243.865 58.714 243.532 58.921 243.307 59.335ZM249.245 62.845L248.579 62.593L251.567 54.583L252.233 54.799L249.245 62.845ZM256.109 61H255.29V54.7H259.772V55.465H256.109V61ZM259.849 61H259.093V56.32H259.849V58.417L262.216 56.32H263.233L260.812 58.471L263.35 61H262.342L260.236 58.939L259.849 59.299V61ZM264.138 57.445L263.751 56.878C264.183 56.473 264.93 56.212 265.623 56.212C266.874 56.212 267.54 56.896 267.54 58.111V61H266.784V60.307C266.487 60.739 265.902 61.063 265.146 61.063C264.129 61.063 263.445 60.496 263.445 59.632C263.445 58.651 264.282 58.183 265.686 58.183C266.127 58.183 266.487 58.228 266.784 58.318C266.784 57.409 266.46 56.923 265.533 56.923C265.065 56.923 264.597 57.094 264.138 57.445ZM265.326 60.379C265.677 60.379 265.992 60.28 266.253 60.091C266.514 59.902 266.685 59.686 266.784 59.461V58.984C266.523 58.894 266.19 58.849 265.785 58.849C264.759 58.849 264.246 59.101 264.246 59.605C264.246 60.082 264.678 60.379 265.326 60.379ZM272.653 61H271.897V57.04H269.917V57.256C269.917 58.768 269.746 59.812 269.404 60.352C269.062 60.892 268.639 61.072 268.054 61V60.28C268.657 60.28 269.161 60.019 269.161 57.283V56.32H272.653V61ZM277.702 57.031H275.911V56.32H280.267V57.031H278.458V61H277.702V57.031ZM284.271 59.659L284.757 60.109C284.325 60.757 283.704 61.081 282.885 61.081C282.138 61.081 281.535 60.856 281.076 60.415C280.617 59.974 280.392 59.389 280.392 58.651C280.392 57.94 280.599 57.355 281.022 56.896C281.436 56.437 282.021 56.212 282.777 56.212C283.398 56.212 283.92 56.41 284.325 56.797C284.73 57.184 284.937 57.697 284.937 58.336C284.937 58.543 284.919 58.732 284.892 58.903H281.202C281.247 59.83 281.931 60.37 282.912 60.37C283.461 60.37 283.983 60.082 284.271 59.659ZM282.723 56.905C281.868 56.905 281.31 57.427 281.193 58.219H284.136C284.091 57.391 283.56 56.905 282.723 56.905ZM289.935 61H289.179V57.031H286.533V61H285.777V56.32H289.935V61ZM295.1 61H294.344V57.04H292.364V57.256C292.364 58.768 292.193 59.812 291.851 60.352C291.509 60.892 291.086 61.072 290.501 61V60.28C291.104 60.28 291.608 60.019 291.608 57.283V56.32H295.1V61ZM295.939 58.651C295.939 57.94 296.173 57.355 296.632 56.896C297.091 56.437 297.685 56.212 298.414 56.212C299.152 56.212 299.755 56.437 300.214 56.896C300.673 57.355 300.907 57.94 300.907 58.651C300.907 59.362 300.673 59.938 300.214 60.397C299.746 60.856 299.143 61.081 298.414 61.081C297.685 61.081 297.091 60.856 296.632 60.397C296.173 59.938 295.939 59.362 295.939 58.651ZM296.74 58.651C296.74 59.146 296.893 59.56 297.208 59.884C297.523 60.208 297.919 60.37 298.414 60.37C298.909 60.37 299.323 60.208 299.638 59.893C299.953 59.578 300.106 59.164 300.106 58.651C300.106 58.138 299.944 57.724 299.629 57.4C299.305 57.085 298.9 56.923 298.414 56.923C297.928 56.923 297.532 57.085 297.217 57.4C296.902 57.715 296.74 58.138 296.74 58.651ZM303.834 61H301.746V56.32H303.69C304.995 56.32 305.607 56.653 305.607 57.517C305.607 57.949 305.409 58.291 305.004 58.534C305.508 58.687 305.76 59.056 305.76 59.659C305.76 60.532 305.067 61 303.834 61ZM303.843 58.957H302.502V60.298H303.753C304.554 60.298 304.959 60.073 304.959 59.623C304.959 59.182 304.59 58.957 303.843 58.957ZM303.663 57.022H302.502V58.273H303.924C304.473 58.273 304.806 58.048 304.806 57.625C304.806 57.148 304.419 57.022 303.663 57.022ZM306.346 58.651C306.346 57.94 306.58 57.355 307.039 56.896C307.498 56.437 308.092 56.212 308.821 56.212C309.559 56.212 310.162 56.437 310.621 56.896C311.08 57.355 311.314 57.94 311.314 58.651C311.314 59.362 311.08 59.938 310.621 60.397C310.153 60.856 309.55 61.081 308.821 61.081C308.092 61.081 307.498 60.856 307.039 60.397C306.58 59.938 306.346 59.362 306.346 58.651ZM307.147 58.651C307.147 59.146 307.3 59.56 307.615 59.884C307.93 60.208 308.326 60.37 308.821 60.37C309.316 60.37 309.73 60.208 310.045 59.893C310.36 59.578 310.513 59.164 310.513 58.651C310.513 58.138 310.351 57.724 310.036 57.4C309.712 57.085 309.307 56.923 308.821 56.923C308.335 56.923 307.939 57.085 307.624 57.4C307.309 57.715 307.147 58.138 307.147 58.651ZM315.699 57.499L312.846 61H312.153V56.32H312.909V59.83L315.753 56.32H316.455V61H315.699V57.499ZM312.873 54.304H313.584C313.593 54.745 313.881 55.042 314.385 55.042C314.862 55.042 315.159 54.745 315.159 54.304H315.87C315.861 55.123 315.222 55.645 314.385 55.645C313.485 55.645 312.882 55.132 312.873 54.304ZM229.348 71.948H227.008V71.264H229.33C229.213 70.373 228.61 69.923 227.71 69.923C227.035 69.923 226.531 70.175 226.198 70.67L225.622 70.265C226.117 69.563 226.819 69.212 227.728 69.212C228.475 69.212 229.06 69.428 229.501 69.869C229.933 70.31 230.149 70.904 230.149 71.651C230.149 72.362 229.933 72.947 229.501 73.397C229.069 73.856 228.475 74.081 227.728 74.081C226.729 74.081 226.036 73.757 225.631 73.109L226.198 72.686C226.513 73.145 227.008 73.37 227.665 73.37C228.61 73.37 229.267 72.785 229.348 71.948ZM235.198 74H234.442V71.975H231.742V74H230.986V69.32H231.742V71.264H234.442V69.32H235.198V74ZM239.912 72.659L240.398 73.109C239.966 73.757 239.345 74.081 238.526 74.081C237.779 74.081 237.176 73.856 236.717 73.415C236.258 72.974 236.033 72.389 236.033 71.651C236.033 70.94 236.24 70.355 236.663 69.896C237.077 69.437 237.662 69.212 238.418 69.212C239.039 69.212 239.561 69.41 239.966 69.797C240.371 70.184 240.578 70.697 240.578 71.336C240.578 71.543 240.56 71.732 240.533 71.903H236.843C236.888 72.83 237.572 73.37 238.553 73.37C239.102 73.37 239.624 73.082 239.912 72.659ZM238.364 69.905C237.509 69.905 236.951 70.427 236.834 71.219H239.777C239.732 70.391 239.201 69.905 238.364 69.905ZM242.174 75.8H241.418V69.32H242.174V69.905C242.489 69.446 242.993 69.212 243.686 69.212C244.37 69.212 244.919 69.428 245.324 69.869C245.729 70.31 245.927 70.877 245.927 71.579C245.927 72.299 245.711 72.893 245.279 73.37C244.838 73.847 244.28 74.081 243.596 74.081C242.966 74.081 242.489 73.919 242.174 73.604V75.8ZM243.605 69.923C242.921 69.923 242.39 70.364 242.174 70.895V72.641C242.444 73.127 242.894 73.37 243.533 73.37C243.992 73.37 244.379 73.208 244.676 72.884C244.973 72.56 245.126 72.146 245.126 71.633C245.126 70.589 244.541 69.923 243.605 69.923ZM247.518 74H246.762V69.32H250.173V70.031H247.518V74ZM254.289 70.499L251.436 74H250.743V69.32H251.499V72.83L254.343 69.32H255.045V74H254.289V70.499ZM259.686 70.499L256.833 74H256.14V69.32H256.896V72.83L259.74 69.32H260.442V74H259.686V70.499ZM261.977 74C261.644 74.036 261.392 73.847 261.392 73.523C261.392 73.208 261.59 73.01 261.941 73.01C262.337 73.01 262.598 73.28 262.598 73.784C262.598 74.684 262.103 75.143 261.446 75.296L261.257 74.873C261.455 74.819 261.635 74.711 261.797 74.54C261.95 74.369 262.013 74.189 261.977 74ZM266.52 74H265.764V69.32H266.52V71.417L268.887 69.32H269.904L267.483 71.471L270.021 74H269.013L266.907 71.939L266.52 72.299V74ZM271.257 74H270.501V69.32H273.912V70.031H271.257V74ZM282.185 72.452L282.653 72.974C282.176 73.649 281.222 74.081 280.205 74.081C279.215 74.081 278.423 73.784 277.838 73.199C277.253 72.614 276.956 71.831 276.956 70.85C276.956 69.923 277.253 69.158 277.838 68.537C278.423 67.925 279.188 67.619 280.142 67.619C281.222 67.619 282.104 68.051 282.563 68.663L282.032 69.176C281.519 68.663 280.889 68.402 280.16 68.402C279.431 68.402 278.864 68.627 278.441 69.077C278.018 69.527 277.811 70.121 277.811 70.85C277.811 71.588 278.036 72.182 278.486 72.623C278.936 73.073 279.53 73.298 280.259 73.298C281.042 73.298 281.681 73.019 282.185 72.452ZM282.915 70.85C282.915 69.941 283.221 69.167 283.842 68.546C284.463 67.925 285.219 67.619 286.119 67.619C287.01 67.619 287.766 67.925 288.387 68.537C289.008 69.149 289.314 69.923 289.314 70.85C289.314 71.768 289.008 72.533 288.387 73.154C287.766 73.775 287.01 74.081 286.119 74.081C285.219 74.081 284.463 73.775 283.842 73.163C283.221 72.551 282.915 71.777 282.915 70.85ZM283.77 70.85C283.77 71.552 284.004 72.137 284.463 72.596C284.922 73.064 285.471 73.298 286.119 73.298C286.785 73.298 287.343 73.064 287.793 72.605C288.234 72.146 288.459 71.561 288.459 70.85C288.459 70.139 288.234 69.554 287.775 69.095C287.316 68.636 286.758 68.402 286.119 68.402C285.462 68.402 284.913 68.636 284.454 69.095C283.995 69.554 283.77 70.139 283.77 70.85ZM290.513 72.335L289.991 72.038C290.234 71.462 290.846 71.075 291.539 71.075C292.376 71.075 292.907 71.498 292.907 72.173C292.907 72.812 292.502 73.388 291.683 73.901L291.125 74.261H293.069V74.9H290.009V74.342L290.9 73.766C291.719 73.226 292.196 72.785 292.196 72.308C292.196 71.912 291.962 71.714 291.503 71.714C291.071 71.714 290.738 71.921 290.513 72.335ZM296.451 75.845L295.785 75.593L298.773 67.583L299.439 67.799L296.451 75.845ZM303.135 74H302.379V69.32H303.135V71.417L305.502 69.32H306.519L304.098 71.471L306.636 74H305.628L303.522 71.939L303.135 72.299V74ZM309.735 74H307.233V67.7H309.78C311.391 67.7 312.003 68.285 312.003 69.266C312.003 69.968 311.706 70.445 311.112 70.706C311.805 70.85 312.228 71.381 312.228 72.2C312.228 73.433 311.31 74 309.735 74ZM309.816 71.156H308.052V73.235H309.726C310.869 73.235 311.382 72.902 311.382 72.155C311.382 71.489 310.86 71.156 309.816 71.156ZM309.708 68.465H308.052V70.409H309.843C310.644 70.409 311.166 70.049 311.166 69.437C311.166 68.762 310.779 68.465 309.708 68.465ZM314.423 70.031H312.632V69.32H316.988V70.031H315.179V74H314.423V70.031ZM224.381 87H222.293V82.32H224.237C225.542 82.32 226.154 82.653 226.154 83.517C226.154 83.949 225.956 84.291 225.551 84.534C226.055 84.687 226.307 85.056 226.307 85.659C226.307 86.532 225.614 87 224.381 87ZM224.39 84.957H223.049V86.298H224.3C225.101 86.298 225.506 86.073 225.506 85.623C225.506 85.182 225.137 84.957 224.39 84.957ZM224.21 83.022H223.049V84.273H224.471C225.02 84.273 225.353 84.048 225.353 83.625C225.353 83.148 224.966 83.022 224.21 83.022ZM232.885 82.32H233.641V87H232.885V85.029C232.543 85.371 232.066 85.542 231.454 85.542C230.221 85.542 229.609 84.921 229.609 83.679V82.32H230.365V83.472C230.365 84.417 230.761 84.822 231.589 84.822C232.129 84.822 232.642 84.534 232.885 84.183V82.32ZM235.098 83.445L234.711 82.878C235.143 82.473 235.89 82.212 236.583 82.212C237.834 82.212 238.5 82.896 238.5 84.111V87H237.744V86.307C237.447 86.739 236.862 87.063 236.106 87.063C235.089 87.063 234.405 86.496 234.405 85.632C234.405 84.651 235.242 84.183 236.646 84.183C237.087 84.183 237.447 84.228 237.744 84.318C237.744 83.409 237.42 82.923 236.493 82.923C236.025 82.923 235.557 83.094 235.098 83.445ZM236.286 86.379C236.637 86.379 236.952 86.28 237.213 86.091C237.474 85.902 237.645 85.686 237.744 85.461V84.984C237.483 84.894 237.15 84.849 236.745 84.849C235.719 84.849 235.206 85.101 235.206 85.605C235.206 86.082 235.638 86.379 236.286 86.379ZM243.173 85.65L243.713 86.037C243.362 86.694 242.57 87.081 241.787 87.081C241.04 87.081 240.437 86.856 239.978 86.415C239.519 85.974 239.285 85.389 239.285 84.651C239.285 83.949 239.51 83.364 239.969 82.905C240.428 82.446 241.013 82.212 241.742 82.212C242.579 82.212 243.326 82.59 243.641 83.166L243.056 83.562C242.741 83.139 242.309 82.923 241.76 82.923C241.274 82.923 240.878 83.085 240.563 83.409C240.248 83.733 240.086 84.147 240.086 84.651C240.086 85.164 240.248 85.578 240.581 85.893C240.905 86.208 241.328 86.37 241.859 86.37C242.417 86.37 242.858 86.127 243.173 85.65ZM250.283 84.948H247.943V84.264H250.265C250.148 83.373 249.545 82.923 248.645 82.923C247.97 82.923 247.466 83.175 247.133 83.67L246.557 83.265C247.052 82.563 247.754 82.212 248.663 82.212C249.41 82.212 249.995 82.428 250.436 82.869C250.868 83.31 251.084 83.904 251.084 84.651C251.084 85.362 250.868 85.947 250.436 86.397C250.004 86.856 249.41 87.081 248.663 87.081C247.664 87.081 246.971 86.757 246.566 86.109L247.133 85.686C247.448 86.145 247.943 86.37 248.6 86.37C249.545 86.37 250.202 85.785 250.283 84.948ZM255.884 87H255.128V83.04H253.148V83.256C253.148 84.768 252.977 85.812 252.635 86.352C252.293 86.892 251.87 87.072 251.285 87V86.28C251.888 86.28 252.392 86.019 252.392 83.283V82.32H255.884V87ZM260.602 85.659L261.088 86.109C260.656 86.757 260.035 87.081 259.216 87.081C258.469 87.081 257.866 86.856 257.407 86.415C256.948 85.974 256.723 85.389 256.723 84.651C256.723 83.94 256.93 83.355 257.353 82.896C257.767 82.437 258.352 82.212 259.108 82.212C259.729 82.212 260.251 82.41 260.656 82.797C261.061 83.184 261.268 83.697 261.268 84.336C261.268 84.543 261.25 84.732 261.223 84.903H257.533C257.578 85.83 258.262 86.37 259.243 86.37C259.792 86.37 260.314 86.082 260.602 85.659ZM259.054 82.905C258.199 82.905 257.641 83.427 257.524 84.219H260.467C260.422 83.391 259.891 82.905 259.054 82.905ZM262.864 87H262.108V82.32H262.864V84.417L265.231 82.32H266.248L263.827 84.471L266.365 87H265.357L263.251 84.939L262.864 85.299V87ZM268.096 83.031H266.305V82.32H270.661V83.031H268.852V87H268.096V83.031ZM271.978 88.8H271.222V82.32H271.978V82.905C272.293 82.446 272.797 82.212 273.49 82.212C274.174 82.212 274.723 82.428 275.128 82.869C275.533 83.31 275.731 83.877 275.731 84.579C275.731 85.299 275.515 85.893 275.083 86.37C274.642 86.847 274.084 87.081 273.4 87.081C272.77 87.081 272.293 86.919 271.978 86.604V88.8ZM273.409 82.923C272.725 82.923 272.194 83.364 271.978 83.895V85.641C272.248 86.127 272.698 86.37 273.337 86.37C273.796 86.37 274.183 86.208 274.48 85.884C274.777 85.56 274.93 85.146 274.93 84.633C274.93 83.589 274.345 82.923 273.409 82.923ZM276.305 84.651C276.305 83.94 276.539 83.355 276.998 82.896C277.457 82.437 278.051 82.212 278.78 82.212C279.518 82.212 280.121 82.437 280.58 82.896C281.039 83.355 281.273 83.94 281.273 84.651C281.273 85.362 281.039 85.938 280.58 86.397C280.112 86.856 279.509 87.081 278.78 87.081C278.051 87.081 277.457 86.856 276.998 86.397C276.539 85.938 276.305 85.362 276.305 84.651ZM277.106 84.651C277.106 85.146 277.259 85.56 277.574 85.884C277.889 86.208 278.285 86.37 278.78 86.37C279.275 86.37 279.689 86.208 280.004 85.893C280.319 85.578 280.472 85.164 280.472 84.651C280.472 84.138 280.31 83.724 279.995 83.4C279.671 83.085 279.266 82.923 278.78 82.923C278.294 82.923 277.898 83.085 277.583 83.4C277.268 83.715 277.106 84.138 277.106 84.651ZM285.361 84.948H283.021V84.264H285.343C285.226 83.373 284.623 82.923 283.723 82.923C283.048 82.923 282.544 83.175 282.211 83.67L281.635 83.265C282.13 82.563 282.832 82.212 283.741 82.212C284.488 82.212 285.073 82.428 285.514 82.869C285.946 83.31 286.162 83.904 286.162 84.651C286.162 85.362 285.946 85.947 285.514 86.397C285.082 86.856 284.488 87.081 283.741 87.081C282.742 87.081 282.049 86.757 281.644 86.109L282.211 85.686C282.526 86.145 283.021 86.37 283.678 86.37C284.623 86.37 285.28 85.785 285.361 84.948ZM291.21 87H290.454V84.975H287.754V87H286.998V82.32H287.754V84.264H290.454V82.32H291.21V87ZM295.925 85.659L296.411 86.109C295.979 86.757 295.358 87.081 294.539 87.081C293.792 87.081 293.189 86.856 292.73 86.415C292.271 85.974 292.046 85.389 292.046 84.651C292.046 83.94 292.253 83.355 292.676 82.896C293.09 82.437 293.675 82.212 294.431 82.212C295.052 82.212 295.574 82.41 295.979 82.797C296.384 83.184 296.591 83.697 296.591 84.336C296.591 84.543 296.573 84.732 296.546 84.903H292.856C292.901 85.83 293.585 86.37 294.566 86.37C295.115 86.37 295.637 86.082 295.925 85.659ZM294.377 82.905C293.522 82.905 292.964 83.427 292.847 84.219H295.79C295.745 83.391 295.214 82.905 294.377 82.905ZM298.187 88.8H297.431V82.32H298.187V82.905C298.502 82.446 299.006 82.212 299.699 82.212C300.383 82.212 300.932 82.428 301.337 82.869C301.742 83.31 301.94 83.877 301.94 84.579C301.94 85.299 301.724 85.893 301.292 86.37C300.851 86.847 300.293 87.081 299.609 87.081C298.979 87.081 298.502 86.919 298.187 86.604V88.8ZM299.618 82.923C298.934 82.923 298.403 83.364 298.187 83.895V85.641C298.457 86.127 298.907 86.37 299.546 86.37C300.005 86.37 300.392 86.208 300.689 85.884C300.986 85.56 301.139 85.146 301.139 84.633C301.139 83.589 300.554 82.923 299.618 82.923ZM303.531 87H302.775V82.32H306.186V83.031H303.531V87ZM310.302 83.499L307.449 87H306.756V82.32H307.512V85.83L310.356 82.32H311.058V87H310.302V83.499ZM315.699 83.499L312.846 87H312.153V82.32H312.909V85.83L315.753 82.32H316.455V87H315.699V83.499ZM317.603 88.827L317.09 88.332C317.63 87.855 318.044 87.297 318.323 86.631C318.602 85.974 318.737 85.326 318.737 84.669C318.737 83.256 318.188 82.041 317.09 81.024L317.594 80.493C318.953 81.708 319.511 83.229 319.511 84.669C319.511 85.398 319.358 86.127 319.061 86.865C318.755 87.603 318.269 88.26 317.603 88.827Z" fill="#3C525E"/>
</svg>
