<svg width="335" height="214" viewBox="0 0 335 214" fill="none" xmlns="http://www.w3.org/2000/svg">
<path d="M123.454 69.1C123.454 67.588 123.804 66.37 124.518 65.46C125.218 64.55 126.254 64.088 127.612 64.088C130.398 64.088 131.784 65.922 131.784 69.1C131.784 70.626 131.434 71.83 130.748 72.74C130.048 73.65 129.012 74.112 127.64 74.112C126.324 74.112 125.302 73.65 124.56 72.726C123.818 71.802 123.454 70.598 123.454 69.1ZM124.742 69.1C124.742 71.494 125.834 72.922 127.64 72.922C129.544 72.922 130.496 71.648 130.496 69.1C130.496 66.552 129.53 65.278 127.612 65.278C125.666 65.278 124.742 66.678 124.742 69.1ZM133.768 74C133.25 74.056 132.858 73.762 132.858 73.258C132.858 72.768 133.166 72.46 133.712 72.46C134.328 72.46 134.734 72.88 134.734 73.664C134.734 75.064 133.964 75.778 132.942 76.016L132.648 75.358C132.956 75.274 133.236 75.106 133.488 74.84C133.726 74.574 133.824 74.294 133.768 74ZM141.366 65.39H135.43V64.2H142.864V64.998L137.992 74H136.662L141.366 65.39Z" fill="#2A3C3C"/>
<path d="M123.454 69.1C123.454 67.588 123.804 66.37 124.518 65.46C125.218 64.55 126.254 64.088 127.612 64.088C130.398 64.088 131.784 65.922 131.784 69.1C131.784 70.626 131.434 71.83 130.748 72.74C130.048 73.65 129.012 74.112 127.64 74.112C126.324 74.112 125.302 73.65 124.56 72.726C123.818 71.802 123.454 70.598 123.454 69.1ZM124.742 69.1C124.742 71.494 125.834 72.922 127.64 72.922C129.544 72.922 130.496 71.648 130.496 69.1C130.496 66.552 129.53 65.278 127.612 65.278C125.666 65.278 124.742 66.678 124.742 69.1ZM133.768 74C133.25 74.056 132.858 73.762 132.858 73.258C132.858 72.768 133.166 72.46 133.712 72.46C134.328 72.46 134.734 72.88 134.734 73.664C134.734 75.064 133.964 75.778 132.942 76.016L132.648 75.358C132.956 75.274 133.236 75.106 133.488 74.84C133.726 74.574 133.824 74.294 133.768 74ZM141.366 65.39H135.43V64.2H142.864V64.998L137.992 74H136.662L141.366 65.39Z" fill="#1A3341"/>
<path d="M105 86C105 84.8954 105.895 84 107 84H159C160.105 84 161 84.8954 161 86V181H105V86Z" fill="url(#paint0_linear_4012_20036)"/>
<path opacity="0.2" d="M117 84H149V181H117V84Z" fill="url(#paint1_linear_4012_20036)"/>
<path opacity="0.04" d="M149 84H159C160.105 84 161 84.8954 161 86V181H149V84Z" fill="#0D262C"/>
<path opacity="0.5" d="M105 86C105 84.8954 105.895 84 107 84H117V181H105V86Z" fill="url(#paint2_linear_4012_20036)"/>
<path d="M190.784 45.1C190.784 43.588 191.134 42.37 191.848 41.46C192.548 40.55 193.584 40.088 194.942 40.088C197.728 40.088 199.114 41.922 199.114 45.1C199.114 46.626 198.764 47.83 198.078 48.74C197.378 49.65 196.342 50.112 194.97 50.112C193.654 50.112 192.632 49.65 191.89 48.726C191.148 47.802 190.784 46.598 190.784 45.1ZM192.072 45.1C192.072 47.494 193.164 48.922 194.97 48.922C196.874 48.922 197.826 47.648 197.826 45.1C197.826 42.552 196.86 41.278 194.942 41.278C192.996 41.278 192.072 42.678 192.072 45.1ZM201.098 50C200.58 50.056 200.188 49.762 200.188 49.258C200.188 48.768 200.496 48.46 201.042 48.46C201.658 48.46 202.064 48.88 202.064 49.664C202.064 51.064 201.294 51.778 200.272 52.016L199.978 51.358C200.286 51.274 200.566 51.106 200.818 50.84C201.056 50.574 201.154 50.294 201.098 50ZM211.23 44.918C211.23 46.584 210.838 47.872 210.04 48.768C209.242 49.678 208.178 50.126 206.848 50.126C205.224 50.126 203.95 49.44 203.32 48.39L204.328 47.69C204.888 48.474 205.91 48.922 207.016 48.922C207.926 48.922 208.654 48.558 209.228 47.83C209.802 47.116 210.04 46.22 209.97 45.156C209.508 46.22 208.346 47.004 206.792 47.004C205.7 47.004 204.804 46.696 204.104 46.066C203.39 45.45 203.04 44.638 203.04 43.644C203.04 42.552 203.418 41.684 204.174 41.04C204.93 40.396 205.938 40.074 207.184 40.074C209.704 40.074 211.23 41.838 211.23 44.918ZM209.76 43.602C209.55 42.3 208.654 41.278 207.044 41.278C205.364 41.278 204.328 42.146 204.328 43.602C204.328 44.988 205.378 45.8 207.016 45.8C207.758 45.8 208.388 45.576 208.878 45.128C209.368 44.68 209.662 44.176 209.76 43.602Z" fill="#2A3C3C"/>
<path d="M190.784 45.1C190.784 43.588 191.134 42.37 191.848 41.46C192.548 40.55 193.584 40.088 194.942 40.088C197.728 40.088 199.114 41.922 199.114 45.1C199.114 46.626 198.764 47.83 198.078 48.74C197.378 49.65 196.342 50.112 194.97 50.112C193.654 50.112 192.632 49.65 191.89 48.726C191.148 47.802 190.784 46.598 190.784 45.1ZM192.072 45.1C192.072 47.494 193.164 48.922 194.97 48.922C196.874 48.922 197.826 47.648 197.826 45.1C197.826 42.552 196.86 41.278 194.942 41.278C192.996 41.278 192.072 42.678 192.072 45.1ZM201.098 50C200.58 50.056 200.188 49.762 200.188 49.258C200.188 48.768 200.496 48.46 201.042 48.46C201.658 48.46 202.064 48.88 202.064 49.664C202.064 51.064 201.294 51.778 200.272 52.016L199.978 51.358C200.286 51.274 200.566 51.106 200.818 50.84C201.056 50.574 201.154 50.294 201.098 50ZM211.23 44.918C211.23 46.584 210.838 47.872 210.04 48.768C209.242 49.678 208.178 50.126 206.848 50.126C205.224 50.126 203.95 49.44 203.32 48.39L204.328 47.69C204.888 48.474 205.91 48.922 207.016 48.922C207.926 48.922 208.654 48.558 209.228 47.83C209.802 47.116 210.04 46.22 209.97 45.156C209.508 46.22 208.346 47.004 206.792 47.004C205.7 47.004 204.804 46.696 204.104 46.066C203.39 45.45 203.04 44.638 203.04 43.644C203.04 42.552 203.418 41.684 204.174 41.04C204.93 40.396 205.938 40.074 207.184 40.074C209.704 40.074 211.23 41.838 211.23 44.918ZM209.76 43.602C209.55 42.3 208.654 41.278 207.044 41.278C205.364 41.278 204.328 42.146 204.328 43.602C204.328 44.988 205.378 45.8 207.016 45.8C207.758 45.8 208.388 45.576 208.878 45.128C209.368 44.68 209.662 44.176 209.76 43.602Z" fill="#1A3341"/>
<path d="M188.909 196H187.817V187.6H188.825L192.017 191.824L195.101 187.6H196.085V196H194.993V189.484L192.125 193.348H191.861L188.909 189.484V196ZM201.076 196H197.74V187.6H201.136C203.284 187.6 204.1 188.38 204.1 189.688C204.1 190.624 203.704 191.26 202.912 191.608C203.836 191.8 204.4 192.508 204.4 193.6C204.4 195.244 203.176 196 201.076 196ZM201.184 192.208H198.832V194.98H201.064C202.588 194.98 203.272 194.536 203.272 193.54C203.272 192.652 202.576 192.208 201.184 192.208ZM201.04 188.62H198.832V191.212H201.22C202.288 191.212 202.984 190.732 202.984 189.916C202.984 189.016 202.468 188.62 201.04 188.62ZM210.482 196.18H209.39V195.16H209.33C208.034 195.16 207.014 194.848 206.27 194.212C205.514 193.588 205.142 192.748 205.142 191.68C205.142 190.564 205.526 189.712 206.306 189.1C207.074 188.5 208.106 188.2 209.39 188.2V187.42H210.482V188.2C211.706 188.2 212.726 188.5 213.53 189.1C214.334 189.7 214.73 190.564 214.73 191.68C214.73 192.748 214.358 193.588 213.602 194.212C212.846 194.848 211.826 195.16 210.542 195.16H210.482V196.18ZM210.506 189.208H210.482V194.152H210.542C212.462 194.152 213.602 193.264 213.602 191.68C213.602 190.108 212.534 189.208 210.506 189.208ZM206.27 191.68C206.27 193.18 207.386 194.152 209.342 194.152H209.39V189.208C207.506 189.208 206.27 190.048 206.27 191.68Z" fill="#76848D"/>
<path d="M173 62C173 60.8954 173.895 60 175 60H227C228.105 60 229 60.8954 229 62V181H173V62Z" fill="url(#paint3_linear_4012_20036)"/>
<path opacity="0.2" d="M185 60H217V181H185V60Z" fill="url(#paint4_linear_4012_20036)"/>
<path opacity="0.04" d="M217 60H227C228.105 60 229 60.8954 229 62V181H217V60Z" fill="#0D262C"/>
<path opacity="0.5" d="M173 62C173 60.8954 173.895 60 175 60H185V181H173V62Z" fill="url(#paint5_linear_4012_20036)"/>
<path d="M261.051 2.804L260.603 1.754L263.963 0.143999H264.761V10H263.557V1.642L261.051 2.804ZM267.484 10C266.966 10.056 266.574 9.762 266.574 9.258C266.574 8.768 266.882 8.46 267.428 8.46C268.044 8.46 268.45 8.88 268.45 9.664C268.45 11.064 267.68 11.778 266.658 12.016L266.364 11.358C266.672 11.274 266.952 11.106 267.204 10.84C267.442 10.574 267.54 10.294 267.484 10ZM270.589 3.434L269.567 3.07C269.917 1.334 271.233 0.0879999 273.319 0.0879999C275.335 0.0879999 276.567 1.25 276.567 3.028C276.567 3.966 276.161 4.904 275.657 5.576C275.405 5.926 275.083 6.262 274.705 6.612C273.935 7.298 273.389 7.662 272.591 8.166L271.513 8.838H276.931V10H269.301V9.048L271.429 7.634C271.807 7.396 272.073 7.214 272.227 7.102C272.381 7.004 272.633 6.822 272.969 6.584C273.305 6.346 273.557 6.136 273.725 5.982C273.879 5.828 274.089 5.632 274.327 5.38C274.971 4.68 275.209 4.036 275.279 3.154C275.279 1.88 274.453 1.306 273.235 1.306C272.479 1.306 271.877 1.516 271.443 1.936C271.009 2.356 270.715 2.86 270.589 3.434Z" fill="#2A3C3C"/>
<path d="M261.051 2.804L260.603 1.754L263.963 0.143999H264.761V10H263.557V1.642L261.051 2.804ZM267.484 10C266.966 10.056 266.574 9.762 266.574 9.258C266.574 8.768 266.882 8.46 267.428 8.46C268.044 8.46 268.45 8.88 268.45 9.664C268.45 11.064 267.68 11.778 266.658 12.016L266.364 11.358C266.672 11.274 266.952 11.106 267.204 10.84C267.442 10.574 267.54 10.294 267.484 10ZM270.589 3.434L269.567 3.07C269.917 1.334 271.233 0.0879999 273.319 0.0879999C275.335 0.0879999 276.567 1.25 276.567 3.028C276.567 3.966 276.161 4.904 275.657 5.576C275.405 5.926 275.083 6.262 274.705 6.612C273.935 7.298 273.389 7.662 272.591 8.166L271.513 8.838H276.931V10H269.301V9.048L271.429 7.634C271.807 7.396 272.073 7.214 272.227 7.102C272.381 7.004 272.633 6.822 272.969 6.584C273.305 6.346 273.557 6.136 273.725 5.982C273.879 5.828 274.089 5.632 274.327 5.38C274.971 4.68 275.209 4.036 275.279 3.154C275.279 1.88 274.453 1.306 273.235 1.306C272.479 1.306 271.877 1.516 271.443 1.936C271.009 2.356 270.715 2.86 270.589 3.434Z" fill="#1A3341"/>
<path opacity="0.4" d="M241 22C241 20.8954 241.895 20 243 20H295C296.105 20 297 20.8954 297 22V180H241V22Z" fill="url(#paint6_linear_4012_20036)"/>
<path opacity="0.2" d="M253 20H285V180H253V20Z" fill="url(#paint7_linear_4012_20036)"/>
<path opacity="0.04" d="M285 20H295C296.105 20 297 20.8954 297 22V180H285V20Z" fill="#0D262C"/>
<path opacity="0.5" d="M241 22C241 20.8954 241.895 20 243 20H253V180H241V22Z" fill="url(#paint8_linear_4012_20036)"/>
<path d="M54.7977 85.1C54.7977 83.588 55.1477 82.37 55.8617 81.46C56.5617 80.55 57.5977 80.088 58.9557 80.088C61.7417 80.088 63.1277 81.922 63.1277 85.1C63.1277 86.626 62.7777 87.83 62.0917 88.74C61.3917 89.65 60.3557 90.112 58.9837 90.112C57.6677 90.112 56.6457 89.65 55.9037 88.726C55.1617 87.802 54.7977 86.598 54.7977 85.1ZM56.0857 85.1C56.0857 87.494 57.1777 88.922 58.9837 88.922C60.8877 88.922 61.8397 87.648 61.8397 85.1C61.8397 82.552 60.8737 81.278 58.9557 81.278C57.0097 81.278 56.0857 82.678 56.0857 85.1ZM65.1113 90C64.5933 90.056 64.2013 89.762 64.2013 89.258C64.2013 88.768 64.5093 88.46 65.0553 88.46C65.6713 88.46 66.0773 88.88 66.0773 89.664C66.0773 91.064 65.3073 91.778 64.2853 92.016L63.9913 91.358C64.2993 91.274 64.5793 91.106 64.8313 90.84C65.0693 90.574 65.1673 90.294 65.1113 90ZM67.0958 85.366C67.0958 83.672 67.5158 82.37 68.3418 81.446C69.1678 80.536 70.2038 80.074 71.4498 80.074C73.0878 80.074 74.3758 80.816 74.9218 81.992L73.9698 82.636C73.3958 81.726 72.5418 81.278 71.3938 81.278C70.5258 81.278 69.7978 81.614 69.2098 82.286C68.6218 82.972 68.3278 83.896 68.3418 85.086C68.8878 84.064 70.1618 83.448 71.5618 83.448C72.6958 83.448 73.6058 83.742 74.2638 84.344C74.9218 84.946 75.2578 85.744 75.2578 86.724C75.2578 87.718 74.8938 88.544 74.1518 89.174C73.4098 89.804 72.4858 90.126 71.3798 90.126C68.7338 90.126 67.0958 88.404 67.0958 85.366ZM68.4958 86.556C68.7618 87.942 69.8118 88.922 71.3658 88.922C72.1218 88.922 72.7518 88.726 73.2418 88.32C73.7318 87.928 73.9698 87.41 73.9698 86.78C73.9698 85.394 72.9898 84.652 71.4918 84.652C70.6658 84.652 69.9798 84.848 69.4478 85.24C68.9018 85.632 68.5938 86.066 68.4958 86.556Z" fill="#2A3C3C"/>
<path d="M54.7977 85.1C54.7977 83.588 55.1477 82.37 55.8617 81.46C56.5617 80.55 57.5977 80.088 58.9557 80.088C61.7417 80.088 63.1277 81.922 63.1277 85.1C63.1277 86.626 62.7777 87.83 62.0917 88.74C61.3917 89.65 60.3557 90.112 58.9837 90.112C57.6677 90.112 56.6457 89.65 55.9037 88.726C55.1617 87.802 54.7977 86.598 54.7977 85.1ZM56.0857 85.1C56.0857 87.494 57.1777 88.922 58.9837 88.922C60.8877 88.922 61.8397 87.648 61.8397 85.1C61.8397 82.552 60.8737 81.278 58.9557 81.278C57.0097 81.278 56.0857 82.678 56.0857 85.1ZM65.1113 90C64.5933 90.056 64.2013 89.762 64.2013 89.258C64.2013 88.768 64.5093 88.46 65.0553 88.46C65.6713 88.46 66.0773 88.88 66.0773 89.664C66.0773 91.064 65.3073 91.778 64.2853 92.016L63.9913 91.358C64.2993 91.274 64.5793 91.106 64.8313 90.84C65.0693 90.574 65.1673 90.294 65.1113 90ZM67.0958 85.366C67.0958 83.672 67.5158 82.37 68.3418 81.446C69.1678 80.536 70.2038 80.074 71.4498 80.074C73.0878 80.074 74.3758 80.816 74.9218 81.992L73.9698 82.636C73.3958 81.726 72.5418 81.278 71.3938 81.278C70.5258 81.278 69.7978 81.614 69.2098 82.286C68.6218 82.972 68.3278 83.896 68.3418 85.086C68.8878 84.064 70.1618 83.448 71.5618 83.448C72.6958 83.448 73.6058 83.742 74.2638 84.344C74.9218 84.946 75.2578 85.744 75.2578 86.724C75.2578 87.718 74.8938 88.544 74.1518 89.174C73.4098 89.804 72.4858 90.126 71.3798 90.126C68.7338 90.126 67.0958 88.404 67.0958 85.366ZM68.4958 86.556C68.7618 87.942 69.8118 88.922 71.3658 88.922C72.1218 88.922 72.7518 88.726 73.2418 88.32C73.7318 87.928 73.9698 87.41 73.9698 86.78C73.9698 85.394 72.9898 84.652 71.4918 84.652C70.6658 84.652 69.9798 84.848 69.4478 85.24C68.9018 85.632 68.5938 86.066 68.4958 86.556Z" fill="#1A3341"/>
<path d="M48.8308 190.8C48.8308 189.588 49.2388 188.556 50.0668 187.728C50.8948 186.9 51.9028 186.492 53.1028 186.492C54.2908 186.492 55.2988 186.9 56.1268 187.716C56.9548 188.532 57.3628 189.564 57.3628 190.8C57.3628 192.024 56.9548 193.044 56.1268 193.872C55.2988 194.7 54.2908 195.108 53.1028 195.108C51.9028 195.108 50.8948 194.7 50.0668 193.884C49.2388 193.068 48.8308 192.036 48.8308 190.8ZM49.9708 190.8C49.9708 191.736 50.2828 192.516 50.8948 193.128C51.5068 193.752 52.2388 194.064 53.1028 194.064C53.9908 194.064 54.7348 193.752 55.3348 193.14C55.9228 192.528 56.2228 191.748 56.2228 190.8C56.2228 189.852 55.9228 189.072 55.3108 188.46C54.6988 187.848 53.9548 187.536 53.1028 187.536C52.2268 187.536 51.4948 187.848 50.8828 188.46C50.2708 189.072 49.9708 189.852 49.9708 190.8ZM64.059 191.22H59.679V190.2H64.047C63.855 188.556 62.691 187.512 60.879 187.512C59.919 187.512 58.815 188.016 58.191 188.796L57.459 188.1C58.227 187.08 59.607 186.492 60.951 186.492C62.259 186.492 63.291 186.876 64.047 187.644C64.803 188.412 65.175 189.456 65.175 190.764C65.175 192.048 64.791 193.092 64.023 193.896C63.255 194.7 62.199 195.108 60.855 195.108C59.547 195.108 58.215 194.592 57.435 193.5L58.179 192.876C58.743 193.644 59.847 194.088 60.915 194.088C61.803 194.088 62.535 193.824 63.099 193.296C63.663 192.768 63.987 192.072 64.059 191.22ZM72.9065 192.936L73.5305 193.632C72.8945 194.532 71.6225 195.108 70.2665 195.108C68.9465 195.108 67.8905 194.712 67.1105 193.932C66.3305 193.152 65.9345 192.108 65.9345 190.8C65.9345 189.564 66.3305 188.544 67.1105 187.716C67.8905 186.9 68.9105 186.492 70.1825 186.492C71.6225 186.492 72.7985 187.068 73.4105 187.884L72.7025 188.568C72.0185 187.884 71.1785 187.536 70.2065 187.536C69.2345 187.536 68.4785 187.836 67.9145 188.436C67.3505 189.036 67.0745 189.828 67.0745 190.8C67.0745 191.784 67.3745 192.576 67.9745 193.164C68.5745 193.764 69.3665 194.064 70.3385 194.064C71.3825 194.064 72.2345 193.692 72.9065 192.936ZM75.6242 191.904V195H74.5322V186.6H77.7962C80.0882 186.6 81.2402 187.476 81.2402 189.24C81.2402 189.996 80.9642 190.632 80.4122 191.136C79.8482 191.652 78.9722 191.904 77.7842 191.904H75.6242ZM77.8442 187.62H75.6242V190.896H77.7602C79.3442 190.896 80.1122 190.272 80.1122 189.228C80.1122 188.16 79.3562 187.62 77.8442 187.62Z" fill="#76848D"/>
<path d="M37 102C37 100.895 37.8954 100 39 100H91C92.1046 100 93 100.895 93 102V180H37V102Z" fill="url(#paint9_linear_4012_20036)"/>
<path opacity="0.2" d="M49 100H81V180H49V100Z" fill="url(#paint10_linear_4012_20036)"/>
<path opacity="0.04" d="M81 100H91C92.1046 100 93 100.895 93 102V180H81V100Z" fill="#0D262C"/>
<path opacity="0.5" d="M37 102C37 100.895 37.8954 100 39 100H49V180H37V102Z" fill="url(#paint11_linear_4012_20036)"/>
<path d="M239.056 196H232.9V187.6H238.948V188.62H233.992V191.236H238.612V192.232H233.992V194.98H239.056V196ZM243.049 196H240.265V189.76H242.857C244.597 189.76 245.413 190.204 245.413 191.356C245.413 191.932 245.149 192.388 244.609 192.712C245.281 192.916 245.617 193.408 245.617 194.212C245.617 195.376 244.693 196 243.049 196ZM243.061 193.276H241.273V195.064H242.941C244.009 195.064 244.549 194.764 244.549 194.164C244.549 193.576 244.057 193.276 243.061 193.276ZM242.821 190.696H241.273V192.364H243.169C243.901 192.364 244.345 192.064 244.345 191.5C244.345 190.864 243.829 190.696 242.821 190.696ZM247.633 198.4H246.625V189.76H247.633V190.54C248.053 189.928 248.725 189.616 249.649 189.616C250.561 189.616 251.293 189.904 251.833 190.492C252.373 191.08 252.637 191.836 252.637 192.772C252.637 193.732 252.349 194.524 251.773 195.16C251.185 195.796 250.441 196.108 249.529 196.108C248.689 196.108 248.053 195.892 247.633 195.472V198.4ZM249.541 190.564C248.629 190.564 247.921 191.152 247.633 191.86V194.188C247.993 194.836 248.593 195.16 249.445 195.16C250.057 195.16 250.573 194.944 250.969 194.512C251.365 194.08 251.569 193.528 251.569 192.844C251.569 191.452 250.789 190.564 249.541 190.564ZM253.282 192.868C253.282 191.92 253.594 191.14 254.206 190.528C254.818 189.916 255.61 189.616 256.582 189.616C257.566 189.616 258.37 189.916 258.982 190.528C259.594 191.14 259.906 191.92 259.906 192.868C259.906 193.816 259.594 194.584 258.982 195.196C258.358 195.808 257.554 196.108 256.582 196.108C255.61 196.108 254.818 195.808 254.206 195.196C253.594 194.584 253.282 193.816 253.282 192.868ZM254.35 192.868C254.35 193.528 254.554 194.08 254.974 194.512C255.394 194.944 255.922 195.16 256.582 195.16C257.242 195.16 257.794 194.944 258.214 194.524C258.634 194.104 258.838 193.552 258.838 192.868C258.838 192.184 258.622 191.632 258.202 191.2C257.77 190.78 257.23 190.564 256.582 190.564C255.934 190.564 255.406 190.78 254.986 191.2C254.566 191.62 254.35 192.184 254.35 192.868ZM266.449 196H265.441V190.708H261.913V196H260.905V189.76H266.449V196ZM272.617 194.212L273.265 194.812C272.689 195.676 271.861 196.108 270.769 196.108C269.773 196.108 268.969 195.808 268.357 195.22C267.745 194.632 267.445 193.852 267.445 192.868C267.445 191.92 267.721 191.14 268.285 190.528C268.837 189.916 269.617 189.616 270.625 189.616C271.453 189.616 272.149 189.88 272.689 190.396C273.229 190.912 273.505 191.596 273.505 192.448C273.505 192.724 273.481 192.976 273.445 193.204H268.525C268.585 194.44 269.497 195.16 270.805 195.16C271.537 195.16 272.233 194.776 272.617 194.212ZM270.553 190.54C269.413 190.54 268.669 191.236 268.513 192.292H272.437C272.377 191.188 271.669 190.54 270.553 190.54ZM279.233 191.332L275.429 196H274.505V189.76H275.513V194.44L279.305 189.76H280.241V196H279.233V191.332ZM275.465 187.072H276.413C276.425 187.66 276.809 188.056 277.481 188.056C278.117 188.056 278.513 187.66 278.513 187.072H279.461C279.449 188.164 278.597 188.86 277.481 188.86C276.281 188.86 275.477 188.176 275.465 187.072ZM286.416 194.2L287.136 194.716C286.668 195.592 285.612 196.108 284.568 196.108C283.572 196.108 282.768 195.808 282.156 195.22C281.544 194.632 281.232 193.852 281.232 192.868C281.232 191.932 281.532 191.152 282.144 190.54C282.756 189.928 283.536 189.616 284.508 189.616C285.624 189.616 286.62 190.12 287.04 190.888L286.26 191.416C285.84 190.852 285.264 190.564 284.532 190.564C283.884 190.564 283.356 190.78 282.936 191.212C282.516 191.644 282.3 192.196 282.3 192.868C282.3 193.552 282.516 194.104 282.96 194.524C283.392 194.944 283.956 195.16 284.664 195.16C285.408 195.16 285.996 194.836 286.416 194.2ZM288.855 196H287.847V189.76H288.855V192.556L292.011 189.76H293.367L290.139 192.628L293.523 196H292.179L289.371 193.252L288.855 193.732V196ZM294.453 191.26L293.937 190.504C294.513 189.964 295.509 189.616 296.433 189.616C298.101 189.616 298.989 190.528 298.989 192.148V196H297.981V195.076C297.585 195.652 296.805 196.084 295.797 196.084C294.441 196.084 293.529 195.328 293.529 194.176C293.529 192.868 294.645 192.244 296.517 192.244C297.105 192.244 297.585 192.304 297.981 192.424C297.981 191.212 297.549 190.564 296.313 190.564C295.689 190.564 295.065 190.792 294.453 191.26ZM296.037 195.172C296.505 195.172 296.925 195.04 297.273 194.788C297.621 194.536 297.849 194.248 297.981 193.948V193.312C297.633 193.192 297.189 193.132 296.649 193.132C295.281 193.132 294.597 193.468 294.597 194.14C294.597 194.776 295.173 195.172 296.037 195.172ZM302.747 189.76H305.255V196H304.247V193.792H302.723L300.875 196H299.651L301.643 193.636C300.683 193.456 300.047 192.724 300.047 191.764C300.047 190.576 300.875 189.76 302.747 189.76ZM301.115 191.788C301.115 192.4 301.691 192.832 302.603 192.832H304.247V190.72H302.627C301.619 190.72 301.115 191.08 301.115 191.788ZM244.002 210H242.994V203.76H244.002V206.556L247.158 203.76H248.514L245.286 206.628L248.67 210H247.326L244.518 207.252L244.002 207.732V210ZM248.362 206.868C248.362 205.92 248.674 205.14 249.286 204.528C249.898 203.916 250.69 203.616 251.662 203.616C252.646 203.616 253.45 203.916 254.062 204.528C254.674 205.14 254.986 205.92 254.986 206.868C254.986 207.816 254.674 208.584 254.062 209.196C253.438 209.808 252.634 210.108 251.662 210.108C250.69 210.108 249.898 209.808 249.286 209.196C248.674 208.584 248.362 207.816 248.362 206.868ZM249.43 206.868C249.43 207.528 249.634 208.08 250.054 208.512C250.474 208.944 251.002 209.16 251.662 209.16C252.322 209.16 252.874 208.944 253.294 208.524C253.714 208.104 253.918 207.552 253.918 206.868C253.918 206.184 253.702 205.632 253.282 205.2C252.85 204.78 252.31 204.564 251.662 204.564C251.014 204.564 250.486 204.78 250.066 205.2C249.646 205.62 249.43 206.184 249.43 206.868ZM256.992 210H255.984V203.76H256.908L259.212 206.808L261.456 203.76H262.32V210H261.312V205.536L259.2 208.416L256.992 205.536V210ZM268.397 205.332L264.593 210H263.669V203.76H264.677V208.44L268.469 203.76H269.405V210H268.397V205.332ZM275.58 208.2L276.3 208.716C275.832 209.592 274.776 210.108 273.732 210.108C272.736 210.108 271.932 209.808 271.32 209.22C270.708 208.632 270.396 207.852 270.396 206.868C270.396 205.932 270.696 205.152 271.308 204.54C271.92 203.928 272.7 203.616 273.672 203.616C274.788 203.616 275.784 204.12 276.204 204.888L275.424 205.416C275.004 204.852 274.428 204.564 273.696 204.564C273.048 204.564 272.52 204.78 272.1 205.212C271.68 205.644 271.464 206.196 271.464 206.868C271.464 207.552 271.68 208.104 272.124 208.524C272.556 208.944 273.12 209.16 273.828 209.16C274.572 209.16 275.16 208.836 275.58 208.2ZM281.507 208.2L282.227 208.716C281.759 209.592 280.703 210.108 279.659 210.108C278.663 210.108 277.859 209.808 277.247 209.22C276.635 208.632 276.323 207.852 276.323 206.868C276.323 205.932 276.623 205.152 277.235 204.54C277.847 203.928 278.627 203.616 279.599 203.616C280.715 203.616 281.711 204.12 282.131 204.888L281.351 205.416C280.931 204.852 280.355 204.564 279.623 204.564C278.975 204.564 278.447 204.78 278.027 205.212C277.607 205.644 277.391 206.196 277.391 206.868C277.391 207.552 277.607 208.104 278.051 208.524C278.483 208.944 279.047 209.16 279.755 209.16C280.499 209.16 281.087 208.836 281.507 208.2ZM287.666 205.332L283.862 210H282.938V203.76H283.946V208.44L287.738 203.76H288.674V210H287.666V205.332ZM292.497 203.76H295.005V210H293.997V207.792H292.473L290.625 210H289.401L291.393 207.636C290.433 207.456 289.797 206.724 289.797 205.764C289.797 204.576 290.625 203.76 292.497 203.76ZM290.865 205.788C290.865 206.4 291.441 206.832 292.353 206.832H293.997V204.72H292.377C291.369 204.72 290.865 205.08 290.865 205.788Z" fill="#76848D"/>
<path d="M103.886 196H100.55V187.6H103.946C106.094 187.6 106.91 188.38 106.91 189.688C106.91 190.624 106.514 191.26 105.722 191.608C106.646 191.8 107.21 192.508 107.21 193.6C107.21 195.244 105.986 196 103.886 196ZM103.994 192.208H101.642V194.98H103.874C105.398 194.98 106.082 194.536 106.082 193.54C106.082 192.652 105.386 192.208 103.994 192.208ZM103.85 188.62H101.642V191.212H104.03C105.098 191.212 105.794 190.732 105.794 189.916C105.794 189.016 105.278 188.62 103.85 188.62ZM113.184 194.2L113.904 194.716C113.436 195.592 112.38 196.108 111.336 196.108C110.34 196.108 109.536 195.808 108.924 195.22C108.312 194.632 108 193.852 108 192.868C108 191.932 108.3 191.152 108.912 190.54C109.524 189.928 110.304 189.616 111.276 189.616C112.392 189.616 113.388 190.12 113.808 190.888L113.028 191.416C112.608 190.852 112.032 190.564 111.3 190.564C110.652 190.564 110.124 190.78 109.704 191.212C109.284 191.644 109.068 192.196 109.068 192.868C109.068 193.552 109.284 194.104 109.728 194.524C110.16 194.944 110.724 195.16 111.432 195.16C112.176 195.16 112.764 194.836 113.184 194.2ZM119.099 194.212L119.747 194.812C119.171 195.676 118.343 196.108 117.251 196.108C116.255 196.108 115.451 195.808 114.839 195.22C114.227 194.632 113.927 193.852 113.927 192.868C113.927 191.92 114.203 191.14 114.767 190.528C115.319 189.916 116.099 189.616 117.107 189.616C117.935 189.616 118.631 189.88 119.171 190.396C119.711 190.912 119.987 191.596 119.987 192.448C119.987 192.724 119.963 192.976 119.927 193.204H115.007C115.067 194.44 115.979 195.16 117.287 195.16C118.019 195.16 118.715 194.776 119.099 194.212ZM117.035 190.54C115.895 190.54 115.151 191.236 114.995 192.292H118.919C118.859 191.188 118.151 190.54 117.035 190.54ZM121.995 196H120.987V189.76H121.911L124.215 192.808L126.459 189.76H127.323V196H126.315V191.536L124.203 194.416L121.995 191.536V196ZM133.399 191.332L129.595 196H128.671V189.76H129.679V194.44L133.471 189.76H134.407V196H133.399V191.332ZM136.755 198.4H135.747V189.76H136.755V190.54C137.175 189.928 137.847 189.616 138.771 189.616C139.683 189.616 140.415 189.904 140.955 190.492C141.495 191.08 141.759 191.836 141.759 192.772C141.759 193.732 141.471 194.524 140.895 195.16C140.307 195.796 139.563 196.108 138.651 196.108C137.811 196.108 137.175 195.892 136.755 195.472V198.4ZM138.663 190.564C137.751 190.564 137.043 191.152 136.755 191.86V194.188C137.115 194.836 137.715 195.16 138.567 195.16C139.179 195.16 139.695 194.944 140.091 194.512C140.487 194.08 140.691 193.528 140.691 192.844C140.691 191.452 139.911 190.564 138.663 190.564ZM148.368 196H147.36V193.3H143.76V196H142.752V189.76H143.76V192.352H147.36V189.76H148.368V196ZM151.966 196H149.71V189.76H150.718V191.704H152.062C153.898 191.704 154.63 192.556 154.63 193.84C154.63 195.1 153.826 196 151.966 196ZM151.954 192.664H150.718V195.04H151.942C153.094 195.04 153.562 194.632 153.562 193.852C153.562 193.06 153.022 192.664 151.954 192.664ZM156.538 196H155.518V189.76H156.538V196ZM162.603 191.332L158.799 196H157.875V189.76H158.883V194.44L162.675 189.76H163.611V196H162.603V191.332ZM158.835 187.072H159.783C159.795 187.66 160.179 188.056 160.851 188.056C161.487 188.056 161.883 187.66 161.883 187.072H162.831C162.819 188.164 161.967 188.86 160.851 188.86C159.651 188.86 158.847 188.176 158.835 187.072ZM124.717 201.084L124.897 202.008C124.549 202.14 123.997 202.248 123.217 202.332C122.437 202.416 121.897 202.536 121.597 202.68C120.697 203.124 120.169 203.952 120.037 205.176L120.085 205.188C120.601 204.372 121.441 203.964 122.593 203.964C123.469 203.964 124.177 204.228 124.717 204.744C125.257 205.272 125.521 206.004 125.521 206.928C125.521 207.828 125.221 208.584 124.633 209.196C124.045 209.808 123.277 210.12 122.353 210.12C120.325 210.12 119.065 208.764 119.065 206.376C119.065 205.176 119.221 204.216 119.533 203.484C119.833 202.764 120.385 202.2 121.165 201.804C121.585 201.6 122.209 201.444 123.037 201.36C123.865 201.276 124.429 201.18 124.717 201.084ZM120.133 206.556V206.64C120.133 207.408 120.337 208.02 120.757 208.476C121.165 208.932 121.693 209.16 122.341 209.16C122.977 209.16 123.481 208.956 123.877 208.536C124.261 208.128 124.453 207.612 124.453 206.988C124.453 205.728 123.709 204.924 122.377 204.924C121.225 204.924 120.385 205.656 120.133 206.556ZM126.991 205.26L126.475 204.504C127.051 203.964 128.047 203.616 128.971 203.616C130.639 203.616 131.527 204.528 131.527 206.148V210H130.519V209.076C130.123 209.652 129.343 210.084 128.335 210.084C126.979 210.084 126.067 209.328 126.067 208.176C126.067 206.868 127.183 206.244 129.055 206.244C129.643 206.244 130.123 206.304 130.519 206.424C130.519 205.212 130.087 204.564 128.851 204.564C128.227 204.564 127.603 204.792 126.991 205.26ZM128.575 209.172C129.043 209.172 129.463 209.04 129.811 208.788C130.159 208.536 130.387 208.248 130.519 207.948V207.312C130.171 207.192 129.727 207.132 129.187 207.132C127.819 207.132 127.135 207.468 127.135 208.14C127.135 208.776 127.711 209.172 128.575 209.172ZM138.417 210H137.409V207.3H133.809V210H132.801V203.76H133.809V206.352H137.409V203.76H138.417V210ZM140.767 210H139.759V203.76H140.767V206.556L143.923 203.76H145.279L142.051 206.628L145.435 210H144.091L141.283 207.252L140.767 207.732V210Z" fill="#76848D"/>
<line x1="-4.37114e-08" y1="180.5" x2="335" y2="180.5" stroke="#ABBEC9"/>
<defs>
<linearGradient id="paint0_linear_4012_20036" x1="133" y1="84" x2="133" y2="181" gradientUnits="userSpaceOnUse">
<stop offset="0" stop-color="#6AA2E2"/>
<stop offset="1" stop-color="#9DBCFA"/>
</linearGradient>
<linearGradient id="paint1_linear_4012_20036" x1="133" y1="84" x2="133" y2="181" gradientUnits="userSpaceOnUse">
<stop offset="0" stop-color="white" stop-opacity="0"/>
<stop offset="0.739583" stop-color="white"/>
</linearGradient>
<linearGradient id="paint2_linear_4012_20036" x1="111" y1="-105.15" x2="111" y2="181" gradientUnits="userSpaceOnUse">
<stop offset="0" stop-color="white" stop-opacity="0.05"/>
<stop offset="0.75" stop-color="white" stop-opacity="0.8"/>
</linearGradient>
<linearGradient id="paint3_linear_4012_20036" x1="201" y1="60" x2="201" y2="181" gradientUnits="userSpaceOnUse">
<stop offset="0" stop-color="#6D73F9"/>
<stop offset="1" stop-color="#9BB8F1"/>
</linearGradient>
<linearGradient id="paint4_linear_4012_20036" x1="201" y1="60" x2="201" y2="181" gradientUnits="userSpaceOnUse">
<stop offset="0" stop-color="white" stop-opacity="0"/>
<stop offset="0.739583" stop-color="white"/>
</linearGradient>
<linearGradient id="paint5_linear_4012_20036" x1="179" y1="-175.95" x2="179" y2="181" gradientUnits="userSpaceOnUse">
<stop offset="0" stop-color="white" stop-opacity="0.05"/>
<stop offset="0.75" stop-color="white" stop-opacity="0.8"/>
</linearGradient>
<linearGradient id="paint6_linear_4012_20036" x1="269" y1="20" x2="269" y2="180" gradientUnits="userSpaceOnUse">
<stop offset="0" stop-color="#6D73F9"/>
<stop offset="1" stop-color="#9BB8F1"/>
</linearGradient>
<linearGradient id="paint7_linear_4012_20036" x1="269" y1="20" x2="269" y2="180" gradientUnits="userSpaceOnUse">
<stop offset="0" stop-color="white" stop-opacity="0"/>
<stop offset="0.739583" stop-color="white"/>
</linearGradient>
<linearGradient id="paint8_linear_4012_20036" x1="247" y1="-292" x2="247" y2="180" gradientUnits="userSpaceOnUse">
<stop offset="0" stop-color="white" stop-opacity="0.05"/>
<stop offset="0.75" stop-color="white" stop-opacity="0.8"/>
</linearGradient>
<linearGradient id="paint9_linear_4012_20036" x1="65" y1="100" x2="65" y2="180" gradientUnits="userSpaceOnUse">
<stop offset="0" stop-color="#CDE3E9"/>
<stop offset="1" stop-color="#D3E8ED"/>
</linearGradient>
<linearGradient id="paint10_linear_4012_20036" x1="65" y1="100" x2="65" y2="180" gradientUnits="userSpaceOnUse">
<stop offset="0" stop-color="white" stop-opacity="0"/>
<stop offset="0.739583" stop-color="white"/>
</linearGradient>
<linearGradient id="paint11_linear_4012_20036" x1="43" y1="-56" x2="43" y2="180" gradientUnits="userSpaceOnUse">
<stop offset="0" stop-color="white" stop-opacity="0.05"/>
<stop offset="0.75" stop-color="white" stop-opacity="0.8"/>
</linearGradient>
</defs>
</svg>
