<svg width="335" height="804" viewBox="0 0 335 804" fill="none" xmlns="http://www.w3.org/2000/svg">
<path d="M198.167 746.1C198.167 744.588 198.517 743.37 199.231 742.46C199.931 741.55 200.967 741.088 202.325 741.088C205.111 741.088 206.497 742.922 206.497 746.1C206.497 747.626 206.147 748.83 205.461 749.74C204.761 750.65 203.725 751.112 202.353 751.112C201.037 751.112 200.015 750.65 199.273 749.726C198.531 748.802 198.167 747.598 198.167 746.1ZM199.455 746.1C199.455 748.494 200.547 749.922 202.353 749.922C204.257 749.922 205.209 748.648 205.209 746.1C205.209 743.552 204.243 742.278 202.325 742.278C200.379 742.278 199.455 743.678 199.455 746.1ZM208.48 751C207.962 751.056 207.57 750.762 207.57 750.258C207.57 749.768 207.878 749.46 208.424 749.46C209.04 749.46 209.446 749.88 209.446 750.664C209.446 752.064 208.676 752.778 207.654 753.016L207.36 752.358C207.668 752.274 207.948 752.106 208.2 751.84C208.438 751.574 208.536 751.294 208.48 751ZM211.585 744.434L210.563 744.07C210.913 742.334 212.229 741.088 214.315 741.088C216.331 741.088 217.563 742.25 217.563 744.028C217.563 744.966 217.157 745.904 216.653 746.576C216.401 746.926 216.079 747.262 215.701 747.612C214.931 748.298 214.385 748.662 213.587 749.166L212.509 749.838H217.927V751H210.297V750.048L212.425 748.634C212.803 748.396 213.069 748.214 213.223 748.102C213.377 748.004 213.629 747.822 213.965 747.584C214.301 747.346 214.553 747.136 214.721 746.982C214.875 746.828 215.085 746.632 215.323 746.38C215.967 745.68 216.205 745.036 216.275 744.154C216.275 742.88 215.449 742.306 214.231 742.306C213.475 742.306 212.873 742.516 212.439 742.936C212.005 743.356 211.711 743.86 211.585 744.434Z" fill="#1A3341"/>
<path d="M184 763C184 761.895 184.895 761 186 761H230C231.105 761 232 761.895 232 763V769H184V763Z" fill="url(#paint0_linear_3014_19939)"/>
<path opacity="0.2" d="M196 761H220V769H196V761Z" fill="url(#paint1_linear_3014_19939)"/>
<path opacity="0.04" d="M220 761H230C231.105 761 232 761.895 232 763V769H220V761Z" fill="#0D262C"/>
<path opacity="0.5" d="M184 763C184 761.895 184.895 761 186 761H196V769H184V763Z" fill="url(#paint2_linear_3014_19939)"/>
<path d="M255.691 750.1C255.691 748.588 256.041 747.37 256.755 746.46C257.455 745.55 258.491 745.088 259.849 745.088C262.635 745.088 264.021 746.922 264.021 750.1C264.021 751.626 263.671 752.83 262.985 753.74C262.285 754.65 261.249 755.112 259.877 755.112C258.561 755.112 257.539 754.65 256.797 753.726C256.055 752.802 255.691 751.598 255.691 750.1ZM256.979 750.1C256.979 752.494 258.071 753.922 259.877 753.922C261.781 753.922 262.733 752.648 262.733 750.1C262.733 747.552 261.767 746.278 259.849 746.278C257.903 746.278 256.979 747.678 256.979 750.1ZM266.005 755C265.487 755.056 265.095 754.762 265.095 754.258C265.095 753.768 265.403 753.46 265.949 753.46C266.565 753.46 266.971 753.88 266.971 754.664C266.971 756.064 266.201 756.778 265.179 757.016L264.885 756.358C265.193 756.274 265.473 756.106 265.725 755.84C265.963 755.574 266.061 755.294 266.005 755ZM267.877 747.804L267.429 746.754L270.789 745.144H271.587V755H270.383V746.642L267.877 747.804Z" fill="#2A3C3C"/>
<path d="M255.691 750.1C255.691 748.588 256.041 747.37 256.755 746.46C257.455 745.55 258.491 745.088 259.849 745.088C262.635 745.088 264.021 746.922 264.021 750.1C264.021 751.626 263.671 752.83 262.985 753.74C262.285 754.65 261.249 755.112 259.877 755.112C258.561 755.112 257.539 754.65 256.797 753.726C256.055 752.802 255.691 751.598 255.691 750.1ZM256.979 750.1C256.979 752.494 258.071 753.922 259.877 753.922C261.781 753.922 262.733 752.648 262.733 750.1C262.733 747.552 261.767 746.278 259.849 746.278C257.903 746.278 256.979 747.678 256.979 750.1ZM266.005 755C265.487 755.056 265.095 754.762 265.095 754.258C265.095 753.768 265.403 753.46 265.949 753.46C266.565 753.46 266.971 753.88 266.971 754.664C266.971 756.064 266.201 756.778 265.179 757.016L264.885 756.358C265.193 756.274 265.473 756.106 265.725 755.84C265.963 755.574 266.061 755.294 266.005 755ZM267.877 747.804L267.429 746.754L270.789 745.144H271.587V755H270.383V746.642L267.877 747.804Z" fill="#1A3341"/>
<path d="M240 767C240 765.895 240.895 765 242 765H286C287.105 765 288 765.895 288 767V769H240V767Z" fill="url(#paint3_linear_3014_19939)"/>
<path opacity="0.2" d="M252 765H276V769H252V765Z" fill="url(#paint4_linear_3014_19939)"/>
<path opacity="0.04" d="M276 765H286C287.105 765 288 765.895 288 767V769H276V765Z" fill="#0D262C"/>
<path opacity="0.5" d="M240 767C240 765.895 240.895 765 242 765H252V769H240V767Z" fill="url(#paint5_linear_3014_19939)"/>
<line x1="-4.37114e-08" y1="769.5" x2="335" y2="769.5" stroke="#ABBEC9"/>
<path d="M79.5897 781.8C79.5897 780.588 79.9977 779.556 80.8257 778.728C81.6537 777.9 82.6617 777.492 83.8617 777.492C85.0497 777.492 86.0577 777.9 86.8857 778.716C87.7137 779.532 88.1217 780.564 88.1217 781.8C88.1217 782.988 87.6777 784.044 86.7897 784.944L87.6297 785.952L86.8857 786.576L86.0217 785.532C85.3377 785.916 84.6177 786.108 83.8617 786.108C82.6377 786.108 81.6177 785.7 80.8137 784.884C79.9977 784.08 79.5897 783.048 79.5897 781.8ZM80.7297 781.8C80.7297 782.748 81.0297 783.528 81.6297 784.14C82.2297 784.752 82.9737 785.064 83.8617 785.064C84.4017 785.064 84.8937 784.932 85.3617 784.656L84.6417 783.792L85.3377 783.18L86.1057 784.104C86.6937 783.492 86.9817 782.724 86.9817 781.8C86.9817 780.852 86.6817 780.072 86.0817 779.46C85.4817 778.848 84.7377 778.536 83.8617 778.536C82.9737 778.536 82.2297 778.836 81.6297 779.448C81.0297 780.06 80.7297 780.852 80.7297 781.8ZM89.7801 780.048L88.8801 779.64C89.3241 778.344 90.4881 777.492 92.2281 777.492C93.0561 777.492 93.7401 777.684 94.2681 778.068C94.7961 778.452 95.0601 778.968 95.0601 779.604C95.0601 780.576 94.5441 781.296 93.5841 781.572C94.5081 781.632 95.2521 782.328 95.2521 783.576C95.2521 784.368 94.9641 784.992 94.3881 785.436C93.8121 785.88 93.0801 786.108 92.1801 786.108C90.3441 786.108 89.0721 785.232 88.6521 783.852L89.6241 783.432C90.1401 784.524 91.0161 785.076 92.2521 785.076C93.4161 785.076 94.1481 784.536 94.1481 783.588C94.1481 782.664 93.4281 782.196 91.9881 782.196H91.0521V781.2H91.7961C93.1041 781.2 93.9561 780.612 93.9561 779.808C93.9561 778.98 93.2721 778.512 92.1801 778.512C90.8961 778.512 90.1161 779.172 89.7801 780.048ZM74.0271 794.372L73.1511 794.06C73.4511 792.572 74.5791 791.504 76.3671 791.504C78.0951 791.504 79.1511 792.5 79.1511 794.024C79.1511 794.828 78.8031 795.632 78.3711 796.208C78.1551 796.508 77.8791 796.796 77.5551 797.096C76.8951 797.684 76.4271 797.996 75.7431 798.428L74.8191 799.004H79.4631V800H72.9231V799.184L74.7471 797.972C75.0711 797.768 75.2991 797.612 75.4311 797.516C75.5631 797.432 75.7791 797.276 76.0671 797.072C76.3551 796.868 76.5711 796.688 76.7151 796.556C76.8471 796.424 77.0271 796.256 77.2311 796.04C77.7831 795.44 77.9871 794.888 78.0471 794.132C78.0471 793.04 77.3391 792.548 76.2951 792.548C75.6471 792.548 75.1311 792.728 74.7591 793.088C74.3871 793.448 74.1351 793.88 74.0271 794.372ZM80.2948 795.8C80.2948 794.504 80.5948 793.46 81.2068 792.68C81.8068 791.9 82.6948 791.504 83.8588 791.504C86.2468 791.504 87.4348 793.076 87.4348 795.8C87.4348 797.108 87.1348 798.14 86.5468 798.92C85.9468 799.7 85.0588 800.096 83.8828 800.096C82.7548 800.096 81.8788 799.7 81.2428 798.908C80.6068 798.116 80.2948 797.084 80.2948 795.8ZM81.3988 795.8C81.3988 797.852 82.3348 799.076 83.8828 799.076C85.5148 799.076 86.3308 797.984 86.3308 795.8C86.3308 793.616 85.5028 792.524 83.8588 792.524C82.1908 792.524 81.3988 793.724 81.3988 795.8ZM89.291 794.372L88.415 794.06C88.715 792.572 89.843 791.504 91.631 791.504C93.359 791.504 94.415 792.5 94.415 794.024C94.415 794.828 94.067 795.632 93.635 796.208C93.419 796.508 93.143 796.796 92.819 797.096C92.159 797.684 91.691 797.996 91.007 798.428L90.083 799.004H94.727V800H88.187V799.184L90.011 797.972C90.335 797.768 90.563 797.612 90.695 797.516C90.827 797.432 91.043 797.276 91.331 797.072C91.619 796.868 91.835 796.688 91.979 796.556C92.111 796.424 92.291 796.256 92.495 796.04C93.047 795.44 93.251 794.888 93.311 794.132C93.311 793.04 92.603 792.548 91.559 792.548C90.911 792.548 90.395 792.728 90.023 793.088C89.651 793.448 89.399 793.88 89.291 794.372ZM96.3867 794.048L95.4867 793.64C95.9307 792.344 97.0947 791.492 98.8347 791.492C99.6627 791.492 100.347 791.684 100.875 792.068C101.403 792.452 101.667 792.968 101.667 793.604C101.667 794.576 101.151 795.296 100.191 795.572C101.115 795.632 101.859 796.328 101.859 797.576C101.859 798.368 101.571 798.992 100.995 799.436C100.419 799.88 99.6867 800.108 98.7867 800.108C96.9507 800.108 95.6787 799.232 95.2587 797.852L96.2307 797.432C96.7467 798.524 97.6227 799.076 98.8587 799.076C100.023 799.076 100.755 798.536 100.755 797.588C100.755 796.664 100.035 796.196 98.5947 796.196H97.6587V795.2H98.4027C99.7107 795.2 100.563 794.612 100.563 793.808C100.563 792.98 99.8787 792.512 98.7867 792.512C97.5027 792.512 96.7227 793.172 96.3867 794.048Z" fill="#76848D"/>
<path d="M225.762 781.8C225.762 780.588 226.17 779.556 226.998 778.728C227.826 777.9 228.834 777.492 230.034 777.492C231.222 777.492 232.23 777.9 233.058 778.716C233.886 779.532 234.294 780.564 234.294 781.8C234.294 782.988 233.85 784.044 232.962 784.944L233.802 785.952L233.058 786.576L232.194 785.532C231.51 785.916 230.79 786.108 230.034 786.108C228.81 786.108 227.79 785.7 226.986 784.884C226.17 784.08 225.762 783.048 225.762 781.8ZM226.902 781.8C226.902 782.748 227.202 783.528 227.802 784.14C228.402 784.752 229.146 785.064 230.034 785.064C230.574 785.064 231.066 784.932 231.534 784.656L230.814 783.792L231.51 783.18L232.278 784.104C232.866 783.492 233.154 782.724 233.154 781.8C233.154 780.852 232.854 780.072 232.254 779.46C231.654 778.848 230.91 778.536 230.034 778.536C229.146 778.536 228.402 778.836 227.802 779.448C227.202 780.06 226.902 780.852 226.902 781.8ZM240.92 786H239.876V784.284H234.74V783.588L239.996 777.6H240.92V783.312H242.48V784.284H240.92V786ZM239.876 779.28L236.18 783.312H239.876V779.28ZM220.527 794.372L219.651 794.06C219.951 792.572 221.079 791.504 222.867 791.504C224.595 791.504 225.651 792.5 225.651 794.024C225.651 794.828 225.303 795.632 224.871 796.208C224.655 796.508 224.379 796.796 224.055 797.096C223.395 797.684 222.927 797.996 222.243 798.428L221.319 799.004H225.963V800H219.423V799.184L221.247 797.972C221.571 797.768 221.799 797.612 221.931 797.516C222.063 797.432 222.279 797.276 222.567 797.072C222.855 796.868 223.071 796.688 223.215 796.556C223.347 796.424 223.527 796.256 223.731 796.04C224.283 795.44 224.487 794.888 224.547 794.132C224.547 793.04 223.839 792.548 222.795 792.548C222.147 792.548 221.631 792.728 221.259 793.088C220.887 793.448 220.635 793.88 220.527 794.372ZM226.795 795.8C226.795 794.504 227.095 793.46 227.707 792.68C228.307 791.9 229.195 791.504 230.359 791.504C232.747 791.504 233.935 793.076 233.935 795.8C233.935 797.108 233.635 798.14 233.047 798.92C232.447 799.7 231.559 800.096 230.383 800.096C229.255 800.096 228.379 799.7 227.743 798.908C227.107 798.116 226.795 797.084 226.795 795.8ZM227.899 795.8C227.899 797.852 228.835 799.076 230.383 799.076C232.015 799.076 232.831 797.984 232.831 795.8C232.831 793.616 232.003 792.524 230.359 792.524C228.691 792.524 227.899 793.724 227.899 795.8ZM235.791 794.372L234.915 794.06C235.215 792.572 236.343 791.504 238.131 791.504C239.859 791.504 240.915 792.5 240.915 794.024C240.915 794.828 240.567 795.632 240.135 796.208C239.919 796.508 239.643 796.796 239.319 797.096C238.659 797.684 238.191 797.996 237.507 798.428L236.583 799.004H241.227V800H234.687V799.184L236.511 797.972C236.835 797.768 237.063 797.612 237.195 797.516C237.327 797.432 237.543 797.276 237.831 797.072C238.119 796.868 238.335 796.688 238.479 796.556C238.611 796.424 238.791 796.256 238.995 796.04C239.547 795.44 239.751 794.888 239.811 794.132C239.811 793.04 239.103 792.548 238.059 792.548C237.411 792.548 236.895 792.728 236.523 793.088C236.151 793.448 235.899 793.88 235.791 794.372ZM242.887 794.048L241.987 793.64C242.431 792.344 243.595 791.492 245.335 791.492C246.163 791.492 246.847 791.684 247.375 792.068C247.903 792.452 248.167 792.968 248.167 793.604C248.167 794.576 247.651 795.296 246.691 795.572C247.615 795.632 248.359 796.328 248.359 797.576C248.359 798.368 248.071 798.992 247.495 799.436C246.919 799.88 246.187 800.108 245.287 800.108C243.451 800.108 242.179 799.232 241.759 797.852L242.731 797.432C243.247 798.524 244.123 799.076 245.359 799.076C246.523 799.076 247.255 798.536 247.255 797.588C247.255 796.664 246.535 796.196 245.095 796.196H244.159V795.2H244.903C246.211 795.2 247.063 794.612 247.063 793.808C247.063 792.98 246.379 792.512 245.287 792.512C244.003 792.512 243.223 793.172 242.887 794.048Z" fill="#76848D"/>
<path d="M51.5753 595.804L51.1273 594.754L54.4873 593.144H55.2853V603H54.0813V594.642L51.5753 595.804ZM58.0088 603C57.4908 603.056 57.0988 602.762 57.0988 602.258C57.0988 601.768 57.4068 601.46 57.9528 601.46C58.5688 601.46 58.9748 601.88 58.9748 602.664C58.9748 604.064 58.2048 604.778 57.1828 605.016L56.8888 604.358C57.1968 604.274 57.4768 604.106 57.7288 603.84C57.9668 603.574 58.0648 603.294 58.0088 603ZM59.8813 595.804L59.4333 594.754L62.7933 593.144H63.5913V603H62.3873V594.642L59.8813 595.804Z" fill="#1A3341"/>
<path d="M34 615C34 613.895 34.8954 613 36 613H80C81.1046 613 82 613.895 82 615V654H34V615Z" fill="url(#paint6_linear_3014_19939)"/>
<path opacity="0.2" d="M46 613H70V654H46V613Z" fill="url(#paint7_linear_3014_19939)"/>
<path opacity="0.04" d="M70 613H80C81.1046 613 82 613.895 82 615V654H70V613Z" fill="#0D262C"/>
<path opacity="0.5" d="M34 615C34 613.895 34.8954 613 36 613H46V654H34V615Z" fill="url(#paint8_linear_3014_19939)"/>
<path d="M106.017 591.804L105.569 590.754L108.929 589.144H109.727V599H108.523V590.642L106.017 591.804ZM112.45 599C111.932 599.056 111.54 598.762 111.54 598.258C111.54 597.768 111.848 597.46 112.394 597.46C113.01 597.46 113.416 597.88 113.416 598.664C113.416 600.064 112.646 600.778 111.624 601.016L111.33 600.358C111.638 600.274 111.918 600.106 112.17 599.84C112.408 599.574 112.506 599.294 112.45 599ZM115.401 592.056L114.351 591.58C114.869 590.068 116.227 589.074 118.257 589.074C119.223 589.074 120.021 589.298 120.637 589.746C121.253 590.194 121.561 590.796 121.561 591.538C121.561 592.672 120.959 593.512 119.839 593.834C120.917 593.904 121.785 594.716 121.785 596.172C121.785 597.096 121.449 597.824 120.777 598.342C120.105 598.86 119.251 599.126 118.201 599.126C116.059 599.126 114.575 598.104 114.085 596.494L115.219 596.004C115.821 597.278 116.843 597.922 118.285 597.922C119.643 597.922 120.497 597.292 120.497 596.186C120.497 595.108 119.657 594.562 117.977 594.562H116.885V593.4H117.753C119.279 593.4 120.273 592.714 120.273 591.776C120.273 590.81 119.475 590.264 118.201 590.264C116.703 590.264 115.793 591.034 115.401 592.056Z" fill="#2A3C3C"/>
<path d="M106.017 591.804L105.569 590.754L108.929 589.144H109.727V599H108.523V590.642L106.017 591.804ZM112.45 599C111.932 599.056 111.54 598.762 111.54 598.258C111.54 597.768 111.848 597.46 112.394 597.46C113.01 597.46 113.416 597.88 113.416 598.664C113.416 600.064 112.646 600.778 111.624 601.016L111.33 600.358C111.638 600.274 111.918 600.106 112.17 599.84C112.408 599.574 112.506 599.294 112.45 599ZM115.401 592.056L114.351 591.58C114.869 590.068 116.227 589.074 118.257 589.074C119.223 589.074 120.021 589.298 120.637 589.746C121.253 590.194 121.561 590.796 121.561 591.538C121.561 592.672 120.959 593.512 119.839 593.834C120.917 593.904 121.785 594.716 121.785 596.172C121.785 597.096 121.449 597.824 120.777 598.342C120.105 598.86 119.251 599.126 118.201 599.126C116.059 599.126 114.575 598.104 114.085 596.494L115.219 596.004C115.821 597.278 116.843 597.922 118.285 597.922C119.643 597.922 120.497 597.292 120.497 596.186C120.497 595.108 119.657 594.562 117.977 594.562H116.885V593.4H117.753C119.279 593.4 120.273 592.714 120.273 591.776C120.273 590.81 119.475 590.264 118.201 590.264C116.703 590.264 115.793 591.034 115.401 592.056Z" fill="#1A3341"/>
<path d="M90 611C90 609.895 90.8954 609 92 609H136C137.105 609 138 609.895 138 611V654H90V611Z" fill="url(#paint9_linear_3014_19939)"/>
<path opacity="0.2" d="M102 609H126V654H102V609Z" fill="url(#paint10_linear_3014_19939)"/>
<path opacity="0.04" d="M126 609H136C137.105 609 138 609.895 138 611V654H126V609Z" fill="#0D262C"/>
<path opacity="0.5" d="M90 611C90 609.895 90.8954 609 92 609H102V654H90V611Z" fill="url(#paint11_linear_3014_19939)"/>
<path d="M197.051 620.1C197.051 618.588 197.401 617.37 198.115 616.46C198.815 615.55 199.851 615.088 201.209 615.088C203.995 615.088 205.381 616.922 205.381 620.1C205.381 621.626 205.031 622.83 204.345 623.74C203.645 624.65 202.609 625.112 201.237 625.112C199.921 625.112 198.899 624.65 198.157 623.726C197.415 622.802 197.051 621.598 197.051 620.1ZM198.339 620.1C198.339 622.494 199.431 623.922 201.237 623.922C203.141 623.922 204.093 622.648 204.093 620.1C204.093 617.552 203.127 616.278 201.209 616.278C199.263 616.278 198.339 617.678 198.339 620.1ZM207.364 625C206.846 625.056 206.454 624.762 206.454 624.258C206.454 623.768 206.762 623.46 207.308 623.46C207.924 623.46 208.33 623.88 208.33 624.664C208.33 626.064 207.56 626.778 206.538 627.016L206.244 626.358C206.552 626.274 206.832 626.106 207.084 625.84C207.322 625.574 207.42 625.294 207.364 625ZM210.777 620.492L209.769 620.226L210.343 615.2H216.503V616.39H211.421L211.057 619.022C211.547 618.658 212.289 618.476 213.283 618.476C214.431 618.476 215.327 618.784 215.985 619.386C216.629 620.002 216.951 620.786 216.951 621.752C216.951 622.718 216.587 623.53 215.873 624.16C215.145 624.804 214.235 625.126 213.157 625.126C211.323 625.126 209.797 624.258 209.167 622.732L210.287 622.256C210.693 623.194 211.743 623.936 213.157 623.936C214.767 623.936 215.663 623.012 215.663 621.794C215.663 620.492 214.613 619.652 212.947 619.652C212.051 619.652 211.323 619.932 210.777 620.492Z" fill="#1A3341"/>
<path d="M183 637C183 635.895 183.895 635 185 635H229C230.105 635 231 635.895 231 637V655H183V637Z" fill="url(#paint12_linear_3014_19939)"/>
<path opacity="0.2" d="M195 635H219V655H195V635Z" fill="url(#paint13_linear_3014_19939)"/>
<path opacity="0.04" d="M219 635H229C230.105 635 231 635.895 231 637V655H219V635Z" fill="#0D262C"/>
<path opacity="0.5" d="M183 637C183 635.895 183.895 635 185 635H195V655H183V637Z" fill="url(#paint14_linear_3014_19939)"/>
<path d="M253.051 616.1C253.051 614.588 253.401 613.37 254.115 612.46C254.815 611.55 255.851 611.088 257.209 611.088C259.995 611.088 261.381 612.922 261.381 616.1C261.381 617.626 261.031 618.83 260.345 619.74C259.645 620.65 258.609 621.112 257.237 621.112C255.921 621.112 254.899 620.65 254.157 619.726C253.415 618.802 253.051 617.598 253.051 616.1ZM254.339 616.1C254.339 618.494 255.431 619.922 257.237 619.922C259.141 619.922 260.093 618.648 260.093 616.1C260.093 613.552 259.127 612.278 257.209 612.278C255.263 612.278 254.339 613.678 254.339 616.1ZM263.364 621C262.846 621.056 262.454 620.762 262.454 620.258C262.454 619.768 262.762 619.46 263.308 619.46C263.924 619.46 264.33 619.88 264.33 620.664C264.33 622.064 263.56 622.778 262.538 623.016L262.244 622.358C262.552 622.274 262.832 622.106 263.084 621.84C263.322 621.574 263.42 621.294 263.364 621ZM266.777 616.492L265.769 616.226L266.343 611.2H272.503V612.39H267.421L267.057 615.022C267.547 614.658 268.289 614.476 269.283 614.476C270.431 614.476 271.327 614.784 271.985 615.386C272.629 616.002 272.951 616.786 272.951 617.752C272.951 618.718 272.587 619.53 271.873 620.16C271.145 620.804 270.235 621.126 269.157 621.126C267.323 621.126 265.797 620.258 265.167 618.732L266.287 618.256C266.693 619.194 267.743 619.936 269.157 619.936C270.767 619.936 271.663 619.012 271.663 617.794C271.663 616.492 270.613 615.652 268.947 615.652C268.051 615.652 267.323 615.932 266.777 616.492Z" fill="#1A3341"/>
<path d="M239 633C239 631.895 239.895 631 241 631H285C286.105 631 287 631.895 287 633V655H239V633Z" fill="url(#paint15_linear_3014_19939)"/>
<path opacity="0.2" d="M251 631H275V655H251V631Z" fill="url(#paint16_linear_3014_19939)"/>
<path opacity="0.04" d="M275 631H285C286.105 631 287 631.895 287 633V655H275V631Z" fill="#0D262C"/>
<path opacity="0.5" d="M239 633C239 631.895 239.895 631 241 631H251V655H239V633Z" fill="url(#paint17_linear_3014_19939)"/>
<line x1="-4.37114e-08" y1="654.5" x2="335" y2="654.5" stroke="#ABBEC9"/>
<path d="M79.4256 666.8C79.4256 665.588 79.8336 664.556 80.6616 663.728C81.4896 662.9 82.4976 662.492 83.6976 662.492C84.8856 662.492 85.8936 662.9 86.7216 663.716C87.5496 664.532 87.9576 665.564 87.9576 666.8C87.9576 667.988 87.5136 669.044 86.6256 669.944L87.4656 670.952L86.7216 671.576L85.8576 670.532C85.1736 670.916 84.4536 671.108 83.6976 671.108C82.4736 671.108 81.4536 670.7 80.6496 669.884C79.8336 669.08 79.4256 668.048 79.4256 666.8ZM80.5656 666.8C80.5656 667.748 80.8656 668.528 81.4656 669.14C82.0656 669.752 82.8096 670.064 83.6976 670.064C84.2376 670.064 84.7296 669.932 85.1976 669.656L84.4776 668.792L85.1736 668.18L85.9416 669.104C86.5296 668.492 86.8176 667.724 86.8176 666.8C86.8176 665.852 86.5176 665.072 85.9176 664.46C85.3176 663.848 84.5736 663.536 83.6976 663.536C82.8096 663.536 82.0656 663.836 81.4656 664.448C80.8656 665.06 80.5656 665.852 80.5656 666.8ZM88.692 664.832L88.308 663.932L91.188 662.552H91.872V671H90.84V663.836L88.692 664.832ZM72.5271 679.372L71.6511 679.06C71.9511 677.572 73.0791 676.504 74.8671 676.504C76.5951 676.504 77.6511 677.5 77.6511 679.024C77.6511 679.828 77.3031 680.632 76.8711 681.208C76.6551 681.508 76.3791 681.796 76.0551 682.096C75.3951 682.684 74.9271 682.996 74.2431 683.428L73.3191 684.004H77.9631V685H71.4231V684.184L73.2471 682.972C73.5711 682.768 73.7991 682.612 73.9311 682.516C74.0631 682.432 74.2791 682.276 74.5671 682.072C74.8551 681.868 75.0711 681.688 75.2151 681.556C75.3471 681.424 75.5271 681.256 75.7311 681.04C76.2831 680.44 76.4871 679.888 76.5471 679.132C76.5471 678.04 75.8391 677.548 74.7951 677.548C74.1471 677.548 73.6311 677.728 73.2591 678.088C72.8871 678.448 72.6351 678.88 72.5271 679.372ZM78.7948 680.8C78.7948 679.504 79.0948 678.46 79.7068 677.68C80.3068 676.9 81.1948 676.504 82.3588 676.504C84.7468 676.504 85.9348 678.076 85.9348 680.8C85.9348 682.108 85.6348 683.14 85.0468 683.92C84.4468 684.7 83.5588 685.096 82.3828 685.096C81.2548 685.096 80.3788 684.7 79.7428 683.908C79.1068 683.116 78.7948 682.084 78.7948 680.8ZM79.8988 680.8C79.8988 682.852 80.8348 684.076 82.3828 684.076C84.0148 684.076 84.8308 682.984 84.8308 680.8C84.8308 678.616 84.0028 677.524 82.3588 677.524C80.6908 677.524 79.8988 678.724 79.8988 680.8ZM87.791 679.372L86.915 679.06C87.215 677.572 88.343 676.504 90.131 676.504C91.859 676.504 92.915 677.5 92.915 679.024C92.915 679.828 92.567 680.632 92.135 681.208C91.919 681.508 91.643 681.796 91.319 682.096C90.659 682.684 90.191 682.996 89.507 683.428L88.583 684.004H93.227V685H86.687V684.184L88.511 682.972C88.835 682.768 89.063 682.612 89.195 682.516C89.327 682.432 89.543 682.276 89.831 682.072C90.119 681.868 90.335 681.688 90.479 681.556C90.611 681.424 90.791 681.256 90.995 681.04C91.547 680.44 91.751 679.888 91.811 679.132C91.811 678.04 91.103 677.548 90.059 677.548C89.411 677.548 88.895 677.728 88.523 678.088C88.151 678.448 87.899 678.88 87.791 679.372ZM94.8867 679.048L93.9867 678.64C94.4307 677.344 95.5947 676.492 97.3347 676.492C98.1627 676.492 98.8467 676.684 99.3747 677.068C99.9027 677.452 100.167 677.968 100.167 678.604C100.167 679.576 99.6507 680.296 98.6907 680.572C99.6147 680.632 100.359 681.328 100.359 682.576C100.359 683.368 100.071 683.992 99.4947 684.436C98.9187 684.88 98.1867 685.108 97.2867 685.108C95.4507 685.108 94.1787 684.232 93.7587 682.852L94.7307 682.432C95.2467 683.524 96.1227 684.076 97.3587 684.076C98.5227 684.076 99.2547 683.536 99.2547 682.588C99.2547 681.664 98.5347 681.196 97.0947 681.196H96.1587V680.2H96.9027C98.2107 680.2 99.0627 679.612 99.0627 678.808C99.0627 677.98 98.3787 677.512 97.2867 677.512C96.0027 677.512 95.2227 678.172 94.8867 679.048Z" fill="#76848D"/>
<path d="M226.119 666.8C226.119 665.588 226.527 664.556 227.355 663.728C228.183 662.9 229.191 662.492 230.391 662.492C231.579 662.492 232.587 662.9 233.415 663.716C234.243 664.532 234.651 665.564 234.651 666.8C234.651 667.988 234.207 669.044 233.319 669.944L234.159 670.952L233.415 671.576L232.551 670.532C231.867 670.916 231.147 671.108 230.391 671.108C229.167 671.108 228.147 670.7 227.343 669.884C226.527 669.08 226.119 668.048 226.119 666.8ZM227.259 666.8C227.259 667.748 227.559 668.528 228.159 669.14C228.759 669.752 229.503 670.064 230.391 670.064C230.931 670.064 231.423 669.932 231.891 669.656L231.171 668.792L231.867 668.18L232.635 669.104C233.223 668.492 233.511 667.724 233.511 666.8C233.511 665.852 233.211 665.072 232.611 664.46C232.011 663.848 231.267 663.536 230.391 663.536C229.503 663.536 228.759 663.836 228.159 664.448C227.559 665.06 227.259 665.852 227.259 666.8ZM236.441 665.372L235.565 665.06C235.865 663.572 236.993 662.504 238.781 662.504C240.509 662.504 241.565 663.5 241.565 665.024C241.565 665.828 241.217 666.632 240.785 667.208C240.569 667.508 240.293 667.796 239.969 668.096C239.309 668.684 238.841 668.996 238.157 669.428L237.233 670.004H241.877V671H235.337V670.184L237.161 668.972C237.485 668.768 237.713 668.612 237.845 668.516C237.977 668.432 238.193 668.276 238.481 668.072C238.769 667.868 238.985 667.688 239.129 667.556C239.261 667.424 239.441 667.256 239.645 667.04C240.197 666.44 240.401 665.888 240.461 665.132C240.461 664.04 239.753 663.548 238.709 663.548C238.061 663.548 237.545 663.728 237.173 664.088C236.801 664.448 236.549 664.88 236.441 665.372ZM220.527 679.372L219.651 679.06C219.951 677.572 221.079 676.504 222.867 676.504C224.595 676.504 225.651 677.5 225.651 679.024C225.651 679.828 225.303 680.632 224.871 681.208C224.655 681.508 224.379 681.796 224.055 682.096C223.395 682.684 222.927 682.996 222.243 683.428L221.319 684.004H225.963V685H219.423V684.184L221.247 682.972C221.571 682.768 221.799 682.612 221.931 682.516C222.063 682.432 222.279 682.276 222.567 682.072C222.855 681.868 223.071 681.688 223.215 681.556C223.347 681.424 223.527 681.256 223.731 681.04C224.283 680.44 224.487 679.888 224.547 679.132C224.547 678.04 223.839 677.548 222.795 677.548C222.147 677.548 221.631 677.728 221.259 678.088C220.887 678.448 220.635 678.88 220.527 679.372ZM226.795 680.8C226.795 679.504 227.095 678.46 227.707 677.68C228.307 676.9 229.195 676.504 230.359 676.504C232.747 676.504 233.935 678.076 233.935 680.8C233.935 682.108 233.635 683.14 233.047 683.92C232.447 684.7 231.559 685.096 230.383 685.096C229.255 685.096 228.379 684.7 227.743 683.908C227.107 683.116 226.795 682.084 226.795 680.8ZM227.899 680.8C227.899 682.852 228.835 684.076 230.383 684.076C232.015 684.076 232.831 682.984 232.831 680.8C232.831 678.616 232.003 677.524 230.359 677.524C228.691 677.524 227.899 678.724 227.899 680.8ZM235.791 679.372L234.915 679.06C235.215 677.572 236.343 676.504 238.131 676.504C239.859 676.504 240.915 677.5 240.915 679.024C240.915 679.828 240.567 680.632 240.135 681.208C239.919 681.508 239.643 681.796 239.319 682.096C238.659 682.684 238.191 682.996 237.507 683.428L236.583 684.004H241.227V685H234.687V684.184L236.511 682.972C236.835 682.768 237.063 682.612 237.195 682.516C237.327 682.432 237.543 682.276 237.831 682.072C238.119 681.868 238.335 681.688 238.479 681.556C238.611 681.424 238.791 681.256 238.995 681.04C239.547 680.44 239.751 679.888 239.811 679.132C239.811 678.04 239.103 677.548 238.059 677.548C237.411 677.548 236.895 677.728 236.523 678.088C236.151 678.448 235.899 678.88 235.791 679.372ZM242.887 679.048L241.987 678.64C242.431 677.344 243.595 676.492 245.335 676.492C246.163 676.492 246.847 676.684 247.375 677.068C247.903 677.452 248.167 677.968 248.167 678.604C248.167 679.576 247.651 680.296 246.691 680.572C247.615 680.632 248.359 681.328 248.359 682.576C248.359 683.368 248.071 683.992 247.495 684.436C246.919 684.88 246.187 685.108 245.287 685.108C243.451 685.108 242.179 684.232 241.759 682.852L242.731 682.432C243.247 683.524 244.123 684.076 245.359 684.076C246.523 684.076 247.255 683.536 247.255 682.588C247.255 681.664 246.535 681.196 245.095 681.196H244.159V680.2H244.903C246.211 680.2 247.063 679.612 247.063 678.808C247.063 677.98 246.379 677.512 245.287 677.512C244.003 677.512 243.223 678.172 242.887 679.048Z" fill="#76848D"/>
<path d="M201.338 430.804L200.89 429.754L204.25 428.144H205.048V438H203.844V429.642L201.338 430.804ZM207.771 438C207.253 438.056 206.861 437.762 206.861 437.258C206.861 436.768 207.169 436.46 207.715 436.46C208.331 436.46 208.737 436.88 208.737 437.664C208.737 439.064 207.967 439.778 206.945 440.016L206.651 439.358C206.959 439.274 207.239 439.106 207.491 438.84C207.729 438.574 207.827 438.294 207.771 438ZM215.37 429.39H209.434V428.2H216.868V428.998L211.996 438H210.666L215.37 429.39Z" fill="#1A3341"/>
<path d="M185 450C185 448.895 185.895 448 187 448H231C232.105 448 233 448.895 233 450V511H185V450Z" fill="url(#paint18_linear_3014_19939)"/>
<path opacity="0.2" d="M197 448H221V511H197V448Z" fill="url(#paint19_linear_3014_19939)"/>
<path opacity="0.04" d="M221 448H231C232.105 448 233 448.895 233 450V511H221V448Z" fill="#0D262C"/>
<path opacity="0.5" d="M185 450C185 448.895 185.895 448 187 448H197V511H185V450Z" fill="url(#paint20_linear_3014_19939)"/>
<path d="M256.668 426.804L256.22 425.754L259.58 424.144H260.378V434H259.174V425.642L256.668 426.804ZM263.102 434C262.584 434.056 262.192 433.762 262.192 433.258C262.192 432.768 262.5 432.46 263.046 432.46C263.662 432.46 264.068 432.88 264.068 433.664C264.068 435.064 263.298 435.778 262.276 436.016L261.982 435.358C262.29 435.274 262.57 435.106 262.822 434.84C263.06 434.574 263.158 434.294 263.102 434ZM268.95 428.414H269.384C270.014 428.414 270.532 428.26 270.966 427.966C271.386 427.672 271.596 427.28 271.596 426.818C271.596 425.768 270.77 425.236 269.132 425.236C267.564 425.236 266.71 425.81 266.71 426.818C266.71 427.728 267.648 428.414 268.95 428.414ZM269.356 429.52H269.006C268.25 429.52 267.62 429.688 267.13 430.01C266.64 430.332 266.388 430.738 266.388 431.228C266.388 432.292 267.368 432.964 269.146 432.964C270.952 432.964 271.918 432.32 271.918 431.242C271.918 430.164 270.882 429.52 269.356 429.52ZM272.114 433.37C271.4 433.874 270.406 434.126 269.16 434.126C267.914 434.126 266.92 433.874 266.192 433.384C265.464 432.894 265.1 432.222 265.1 431.354C265.1 430.22 265.842 429.324 267.032 428.932C265.954 428.582 265.422 427.728 265.422 426.734C265.422 425.11 266.794 424.074 269.146 424.074C271.512 424.074 272.884 425.11 272.884 426.734C272.884 427.672 272.366 428.386 271.33 428.862C272.576 429.24 273.192 430.052 273.192 431.298C273.192 432.18 272.828 432.88 272.114 433.37Z" fill="#2A3C3C"/>
<path d="M256.668 426.804L256.22 425.754L259.58 424.144H260.378V434H259.174V425.642L256.668 426.804ZM263.102 434C262.584 434.056 262.192 433.762 262.192 433.258C262.192 432.768 262.5 432.46 263.046 432.46C263.662 432.46 264.068 432.88 264.068 433.664C264.068 435.064 263.298 435.778 262.276 436.016L261.982 435.358C262.29 435.274 262.57 435.106 262.822 434.84C263.06 434.574 263.158 434.294 263.102 434ZM268.95 428.414H269.384C270.014 428.414 270.532 428.26 270.966 427.966C271.386 427.672 271.596 427.28 271.596 426.818C271.596 425.768 270.77 425.236 269.132 425.236C267.564 425.236 266.71 425.81 266.71 426.818C266.71 427.728 267.648 428.414 268.95 428.414ZM269.356 429.52H269.006C268.25 429.52 267.62 429.688 267.13 430.01C266.64 430.332 266.388 430.738 266.388 431.228C266.388 432.292 267.368 432.964 269.146 432.964C270.952 432.964 271.918 432.32 271.918 431.242C271.918 430.164 270.882 429.52 269.356 429.52ZM272.114 433.37C271.4 433.874 270.406 434.126 269.16 434.126C267.914 434.126 266.92 433.874 266.192 433.384C265.464 432.894 265.1 432.222 265.1 431.354C265.1 430.22 265.842 429.324 267.032 428.932C265.954 428.582 265.422 427.728 265.422 426.734C265.422 425.11 266.794 424.074 269.146 424.074C271.512 424.074 272.884 425.11 272.884 426.734C272.884 427.672 272.366 428.386 271.33 428.862C272.576 429.24 273.192 430.052 273.192 431.298C273.192 432.18 272.828 432.88 272.114 433.37Z" fill="#1A3341"/>
<path d="M241 446C241 444.895 241.895 444 243 444H287C288.105 444 289 444.895 289 446V511H241V446Z" fill="url(#paint21_linear_3014_19939)"/>
<path opacity="0.2" d="M253 444H277V511H253V444Z" fill="url(#paint22_linear_3014_19939)"/>
<path opacity="0.04" d="M277 444H287C288.105 444 289 444.895 289 446V511H277V444Z" fill="#0D262C"/>
<path opacity="0.5" d="M241 446C241 444.895 241.895 444 243 444H253V511H241V446Z" fill="url(#paint23_linear_3014_19939)"/>
<path d="M48.6423 399.434L47.6203 399.07C47.9703 397.334 49.2863 396.088 51.3723 396.088C53.3883 396.088 54.6203 397.25 54.6203 399.028C54.6203 399.966 54.2143 400.904 53.7103 401.576C53.4583 401.926 53.1363 402.262 52.7583 402.612C51.9883 403.298 51.4423 403.662 50.6443 404.166L49.5663 404.838H54.9843V406H47.3543V405.048L49.4823 403.634C49.8603 403.396 50.1263 403.214 50.2803 403.102C50.4343 403.004 50.6863 402.822 51.0223 402.584C51.3583 402.346 51.6103 402.136 51.7783 401.982C51.9323 401.828 52.1423 401.632 52.3803 401.38C53.0243 400.68 53.2623 400.036 53.3323 399.154C53.3323 397.88 52.5063 397.306 51.2883 397.306C50.5323 397.306 49.9303 397.516 49.4963 397.936C49.0623 398.356 48.7683 398.86 48.6423 399.434ZM56.8925 406C56.3745 406.056 55.9825 405.762 55.9825 405.258C55.9825 404.768 56.2905 404.46 56.8365 404.46C57.4525 404.46 57.8585 404.88 57.8585 405.664C57.8585 407.064 57.0885 407.778 56.0665 408.016L55.7725 407.358C56.0805 407.274 56.3605 407.106 56.6125 406.84C56.8505 406.574 56.9485 406.294 56.8925 406ZM60.305 401.492L59.297 401.226L59.871 396.2H66.031V397.39H60.949L60.585 400.022C61.075 399.658 61.817 399.476 62.811 399.476C63.959 399.476 64.855 399.784 65.513 400.386C66.157 401.002 66.479 401.786 66.479 402.752C66.479 403.718 66.115 404.53 65.401 405.16C64.673 405.804 63.763 406.126 62.685 406.126C60.851 406.126 59.325 405.258 58.695 403.732L59.815 403.256C60.221 404.194 61.271 404.936 62.685 404.936C64.295 404.936 65.191 404.012 65.191 402.794C65.191 401.492 64.141 400.652 62.475 400.652C61.579 400.652 60.851 400.932 60.305 401.492Z" fill="#1A3341"/>
<path d="M33 418C33 416.895 33.8954 416 35 416H79C80.1046 416 81 416.895 81 418V511H33V418Z" fill="url(#paint24_linear_3014_19939)"/>
<path opacity="0.2" d="M45 416H69V511H45V416Z" fill="url(#paint25_linear_3014_19939)"/>
<path opacity="0.04" d="M69 416H79C80.1046 416 81 416.895 81 418V511H69V416Z" fill="#0D262C"/>
<path opacity="0.5" d="M33 418C33 416.895 33.8954 416 35 416H45V511H33V418Z" fill="url(#paint26_linear_3014_19939)"/>
<path d="M104.341 404.434L103.319 404.07C103.669 402.334 104.985 401.088 107.071 401.088C109.087 401.088 110.319 402.25 110.319 404.028C110.319 404.966 109.913 405.904 109.409 406.576C109.157 406.926 108.835 407.262 108.457 407.612C107.687 408.298 107.141 408.662 106.343 409.166L105.265 409.838H110.683V411H103.053V410.048L105.181 408.634C105.559 408.396 105.825 408.214 105.979 408.102C106.133 408.004 106.385 407.822 106.721 407.584C107.057 407.346 107.309 407.136 107.477 406.982C107.631 406.828 107.841 406.632 108.079 406.38C108.723 405.68 108.961 405.036 109.031 404.154C109.031 402.88 108.205 402.306 106.987 402.306C106.231 402.306 105.629 402.516 105.195 402.936C104.761 403.356 104.467 403.86 104.341 404.434ZM112.592 411C112.074 411.056 111.682 410.762 111.682 410.258C111.682 409.768 111.99 409.46 112.536 409.46C113.152 409.46 113.558 409.88 113.558 410.664C113.558 412.064 112.788 412.778 111.766 413.016L111.472 412.358C111.78 412.274 112.06 412.106 112.312 411.84C112.55 411.574 112.648 411.294 112.592 411ZM121.338 411H120.12V408.998H114.128V408.186L120.26 401.2H121.338V407.864H123.158V408.998H121.338V411ZM120.12 403.16L115.808 407.864H120.12V403.16Z" fill="#2A3C3C"/>
<path d="M104.341 404.434L103.319 404.07C103.669 402.334 104.985 401.088 107.071 401.088C109.087 401.088 110.319 402.25 110.319 404.028C110.319 404.966 109.913 405.904 109.409 406.576C109.157 406.926 108.835 407.262 108.457 407.612C107.687 408.298 107.141 408.662 106.343 409.166L105.265 409.838H110.683V411H103.053V410.048L105.181 408.634C105.559 408.396 105.825 408.214 105.979 408.102C106.133 408.004 106.385 407.822 106.721 407.584C107.057 407.346 107.309 407.136 107.477 406.982C107.631 406.828 107.841 406.632 108.079 406.38C108.723 405.68 108.961 405.036 109.031 404.154C109.031 402.88 108.205 402.306 106.987 402.306C106.231 402.306 105.629 402.516 105.195 402.936C104.761 403.356 104.467 403.86 104.341 404.434ZM112.592 411C112.074 411.056 111.682 410.762 111.682 410.258C111.682 409.768 111.99 409.46 112.536 409.46C113.152 409.46 113.558 409.88 113.558 410.664C113.558 412.064 112.788 412.778 111.766 413.016L111.472 412.358C111.78 412.274 112.06 412.106 112.312 411.84C112.55 411.574 112.648 411.294 112.592 411ZM121.338 411H120.12V408.998H114.128V408.186L120.26 401.2H121.338V407.864H123.158V408.998H121.338V411ZM120.12 403.16L115.808 407.864H120.12V403.16Z" fill="#1A3341"/>
<path d="M89 423C89 421.895 89.8954 421 91 421H135C136.105 421 137 421.895 137 423V511H89V423Z" fill="url(#paint27_linear_3014_19939)"/>
<path opacity="0.2" d="M101 421H125V511H101V421Z" fill="url(#paint28_linear_3014_19939)"/>
<path opacity="0.04" d="M125 421H135C136.105 421 137 421.895 137 423V511H125V421Z" fill="#0D262C"/>
<path opacity="0.5" d="M89 423C89 421.895 89.8954 421 91 421H101V511H89V423Z" fill="url(#paint29_linear_3014_19939)"/>
<line x1="-4.37114e-08" y1="510.5" x2="335" y2="510.5" stroke="#ABBEC9"/>
<path d="M78.0897 522.8C78.0897 521.588 78.4977 520.556 79.3257 519.728C80.1537 518.9 81.1617 518.492 82.3617 518.492C83.5497 518.492 84.5577 518.9 85.3857 519.716C86.2137 520.532 86.6217 521.564 86.6217 522.8C86.6217 523.988 86.1777 525.044 85.2897 525.944L86.1297 526.952L85.3857 527.576L84.5217 526.532C83.8377 526.916 83.1177 527.108 82.3617 527.108C81.1377 527.108 80.1177 526.7 79.3137 525.884C78.4977 525.08 78.0897 524.048 78.0897 522.8ZM79.2297 522.8C79.2297 523.748 79.5297 524.528 80.1297 525.14C80.7297 525.752 81.4737 526.064 82.3617 526.064C82.9017 526.064 83.3937 525.932 83.8617 525.656L83.1417 524.792L83.8377 524.18L84.6057 525.104C85.1937 524.492 85.4817 523.724 85.4817 522.8C85.4817 521.852 85.1817 521.072 84.5817 520.46C83.9817 519.848 83.2377 519.536 82.3617 519.536C81.4737 519.536 80.7297 519.836 80.1297 520.448C79.5297 521.06 79.2297 521.852 79.2297 522.8ZM88.2801 521.048L87.3801 520.64C87.8241 519.344 88.9881 518.492 90.7281 518.492C91.5561 518.492 92.2401 518.684 92.7681 519.068C93.2961 519.452 93.5601 519.968 93.5601 520.604C93.5601 521.576 93.0441 522.296 92.0841 522.572C93.0081 522.632 93.7521 523.328 93.7521 524.576C93.7521 525.368 93.4641 525.992 92.8881 526.436C92.3121 526.88 91.5801 527.108 90.6801 527.108C88.8441 527.108 87.5721 526.232 87.1521 524.852L88.1241 524.432C88.6401 525.524 89.5161 526.076 90.7521 526.076C91.9161 526.076 92.6481 525.536 92.6481 524.588C92.6481 523.664 91.9281 523.196 90.4881 523.196H89.5521V522.2H90.2961C91.6041 522.2 92.4561 521.612 92.4561 520.808C92.4561 519.98 91.7721 519.512 90.6801 519.512C89.3961 519.512 88.6161 520.172 88.2801 521.048ZM72.5564 535.372L71.6804 535.06C71.9804 533.572 73.1084 532.504 74.8964 532.504C76.6244 532.504 77.6804 533.5 77.6804 535.024C77.6804 535.828 77.3324 536.632 76.9004 537.208C76.6844 537.508 76.4084 537.796 76.0844 538.096C75.4244 538.684 74.9564 538.996 74.2724 539.428L73.3484 540.004H77.9924V541H71.4524V540.184L73.2764 538.972C73.6004 538.768 73.8284 538.612 73.9604 538.516C74.0924 538.432 74.3084 538.276 74.5964 538.072C74.8844 537.868 75.1004 537.688 75.2444 537.556C75.3764 537.424 75.5564 537.256 75.7604 537.04C76.3124 536.44 76.5164 535.888 76.5764 535.132C76.5764 534.04 75.8684 533.548 74.8244 533.548C74.1764 533.548 73.6604 533.728 73.2884 534.088C72.9164 534.448 72.6644 534.88 72.5564 535.372ZM78.824 536.8C78.824 535.504 79.124 534.46 79.736 533.68C80.336 532.9 81.224 532.504 82.388 532.504C84.776 532.504 85.964 534.076 85.964 536.8C85.964 538.108 85.664 539.14 85.076 539.92C84.476 540.7 83.588 541.096 82.412 541.096C81.284 541.096 80.408 540.7 79.772 539.908C79.136 539.116 78.824 538.084 78.824 536.8ZM79.928 536.8C79.928 538.852 80.864 540.076 82.412 540.076C84.044 540.076 84.86 538.984 84.86 536.8C84.86 534.616 84.032 533.524 82.388 533.524C80.72 533.524 79.928 534.724 79.928 536.8ZM87.8203 535.372L86.9443 535.06C87.2443 533.572 88.3723 532.504 90.1603 532.504C91.8883 532.504 92.9443 533.5 92.9443 535.024C92.9443 535.828 92.5963 536.632 92.1643 537.208C91.9483 537.508 91.6723 537.796 91.3483 538.096C90.6883 538.684 90.2203 538.996 89.5363 539.428L88.6123 540.004H93.2563V541H86.7163V540.184L88.5403 538.972C88.8643 538.768 89.0923 538.612 89.2243 538.516C89.3563 538.432 89.5723 538.276 89.8603 538.072C90.1483 537.868 90.3643 537.688 90.5083 537.556C90.6403 537.424 90.8203 537.256 91.0243 537.04C91.5763 536.44 91.7803 535.888 91.8403 535.132C91.8403 534.04 91.1323 533.548 90.0883 533.548C89.4403 533.548 88.9243 533.728 88.5523 534.088C88.1803 534.448 87.9283 534.88 87.8203 535.372ZM95.048 535.372L94.172 535.06C94.472 533.572 95.6 532.504 97.388 532.504C99.116 532.504 100.172 533.5 100.172 535.024C100.172 535.828 99.824 536.632 99.392 537.208C99.176 537.508 98.9 537.796 98.576 538.096C97.916 538.684 97.448 538.996 96.764 539.428L95.84 540.004H100.484V541H93.944V540.184L95.768 538.972C96.092 538.768 96.32 538.612 96.452 538.516C96.584 538.432 96.8 538.276 97.088 538.072C97.376 537.868 97.592 537.688 97.736 537.556C97.868 537.424 98.048 537.256 98.252 537.04C98.804 536.44 99.008 535.888 99.068 535.132C99.068 534.04 98.36 533.548 97.316 533.548C96.668 533.548 96.152 533.728 95.78 534.088C95.408 534.448 95.156 534.88 95.048 535.372Z" fill="#76848D"/>
<path d="M228.762 522.8C228.762 521.588 229.17 520.556 229.998 519.728C230.826 518.9 231.834 518.492 233.034 518.492C234.222 518.492 235.23 518.9 236.058 519.716C236.886 520.532 237.294 521.564 237.294 522.8C237.294 523.988 236.85 525.044 235.962 525.944L236.802 526.952L236.058 527.576L235.194 526.532C234.51 526.916 233.79 527.108 233.034 527.108C231.81 527.108 230.79 526.7 229.986 525.884C229.17 525.08 228.762 524.048 228.762 522.8ZM229.902 522.8C229.902 523.748 230.202 524.528 230.802 525.14C231.402 525.752 232.146 526.064 233.034 526.064C233.574 526.064 234.066 525.932 234.534 525.656L233.814 524.792L234.51 524.18L235.278 525.104C235.866 524.492 236.154 523.724 236.154 522.8C236.154 521.852 235.854 521.072 235.254 520.46C234.654 519.848 233.91 519.536 233.034 519.536C232.146 519.536 231.402 519.836 230.802 520.448C230.202 521.06 229.902 521.852 229.902 522.8ZM243.92 527H242.876V525.284H237.74V524.588L242.996 518.6H243.92V524.312H245.48V525.284H243.92V527ZM242.876 520.28L239.18 524.312H242.876V520.28ZM223.556 535.372L222.68 535.06C222.98 533.572 224.108 532.504 225.896 532.504C227.624 532.504 228.68 533.5 228.68 535.024C228.68 535.828 228.332 536.632 227.9 537.208C227.684 537.508 227.408 537.796 227.084 538.096C226.424 538.684 225.956 538.996 225.272 539.428L224.348 540.004H228.992V541H222.452V540.184L224.276 538.972C224.6 538.768 224.828 538.612 224.96 538.516C225.092 538.432 225.308 538.276 225.596 538.072C225.884 537.868 226.1 537.688 226.244 537.556C226.376 537.424 226.556 537.256 226.76 537.04C227.312 536.44 227.516 535.888 227.576 535.132C227.576 534.04 226.868 533.548 225.824 533.548C225.176 533.548 224.66 533.728 224.288 534.088C223.916 534.448 223.664 534.88 223.556 535.372ZM229.824 536.8C229.824 535.504 230.124 534.46 230.736 533.68C231.336 532.9 232.224 532.504 233.388 532.504C235.776 532.504 236.964 534.076 236.964 536.8C236.964 538.108 236.664 539.14 236.076 539.92C235.476 540.7 234.588 541.096 233.412 541.096C232.284 541.096 231.408 540.7 230.772 539.908C230.136 539.116 229.824 538.084 229.824 536.8ZM230.928 536.8C230.928 538.852 231.864 540.076 233.412 540.076C235.044 540.076 235.86 538.984 235.86 536.8C235.86 534.616 235.032 533.524 233.388 533.524C231.72 533.524 230.928 534.724 230.928 536.8ZM238.82 535.372L237.944 535.06C238.244 533.572 239.372 532.504 241.16 532.504C242.888 532.504 243.944 533.5 243.944 535.024C243.944 535.828 243.596 536.632 243.164 537.208C242.948 537.508 242.672 537.796 242.348 538.096C241.688 538.684 241.22 538.996 240.536 539.428L239.612 540.004H244.256V541H237.716V540.184L239.54 538.972C239.864 538.768 240.092 538.612 240.224 538.516C240.356 538.432 240.572 538.276 240.86 538.072C241.148 537.868 241.364 537.688 241.508 537.556C241.64 537.424 241.82 537.256 242.024 537.04C242.576 536.44 242.78 535.888 242.84 535.132C242.84 534.04 242.132 533.548 241.088 533.548C240.44 533.548 239.924 533.728 239.552 534.088C239.18 534.448 238.928 534.88 238.82 535.372ZM246.048 535.372L245.172 535.06C245.472 533.572 246.6 532.504 248.388 532.504C250.116 532.504 251.172 533.5 251.172 535.024C251.172 535.828 250.824 536.632 250.392 537.208C250.176 537.508 249.9 537.796 249.576 538.096C248.916 538.684 248.448 538.996 247.764 539.428L246.84 540.004H251.484V541H244.944V540.184L246.768 538.972C247.092 538.768 247.32 538.612 247.452 538.516C247.584 538.432 247.8 538.276 248.088 538.072C248.376 537.868 248.592 537.688 248.736 537.556C248.868 537.424 249.048 537.256 249.252 537.04C249.804 536.44 250.008 535.888 250.068 535.132C250.068 534.04 249.36 533.548 248.316 533.548C247.668 533.548 247.152 533.728 246.78 534.088C246.408 534.448 246.156 534.88 246.048 535.372Z" fill="#76848D"/>
<path d="M47.5811 89.492L46.5731 89.226L47.1471 84.2H53.3071V85.39H48.2251L47.8611 88.022C48.3511 87.658 49.0931 87.476 50.0871 87.476C51.2351 87.476 52.1311 87.784 52.7891 88.386C53.4331 89.002 53.7551 89.786 53.7551 90.752C53.7551 91.718 53.3911 92.53 52.6771 93.16C51.9491 93.804 51.0391 94.126 49.9611 94.126C48.1271 94.126 46.6011 93.258 45.9711 91.732L47.0911 91.256C47.4971 92.194 48.5471 92.936 49.9611 92.936C51.5711 92.936 52.4671 92.012 52.4671 90.794C52.4671 89.492 51.4171 88.652 49.7511 88.652C48.8551 88.652 48.1271 88.932 47.5811 89.492ZM55.7558 94C55.2378 94.056 54.8458 93.762 54.8458 93.258C54.8458 92.768 55.1538 92.46 55.6998 92.46C56.3158 92.46 56.7218 92.88 56.7218 93.664C56.7218 95.064 55.9518 95.778 54.9298 96.016L54.6358 95.358C54.9438 95.274 55.2238 95.106 55.4758 94.84C55.7138 94.574 55.8118 94.294 55.7558 94ZM57.7403 89.366C57.7403 87.672 58.1603 86.37 58.9863 85.446C59.8123 84.536 60.8483 84.074 62.0943 84.074C63.7323 84.074 65.0203 84.816 65.5663 85.992L64.6143 86.636C64.0403 85.726 63.1863 85.278 62.0383 85.278C61.1703 85.278 60.4423 85.614 59.8543 86.286C59.2663 86.972 58.9723 87.896 58.9863 89.086C59.5323 88.064 60.8063 87.448 62.2063 87.448C63.3403 87.448 64.2503 87.742 64.9083 88.344C65.5663 88.946 65.9023 89.744 65.9023 90.724C65.9023 91.718 65.5383 92.544 64.7963 93.174C64.0543 93.804 63.1303 94.126 62.0243 94.126C59.3783 94.126 57.7403 92.404 57.7403 89.366ZM59.1403 90.556C59.4063 91.942 60.4563 92.922 62.0103 92.922C62.7663 92.922 63.3963 92.726 63.8863 92.32C64.3763 91.928 64.6143 91.41 64.6143 90.78C64.6143 89.394 63.6343 88.652 62.1363 88.652C61.3103 88.652 60.6243 88.848 60.0923 89.24C59.5463 89.632 59.2383 90.066 59.1403 90.556Z" fill="#1A3341"/>
<path d="M32 106C32 104.895 32.8954 104 34 104H78C79.1046 104 80 104.895 80 106V324H32V106Z" fill="url(#paint30_linear_3014_19939)"/>
<path opacity="0.2" d="M44 104H68V324H44V104Z" fill="url(#paint31_linear_3014_19939)"/>
<path opacity="0.04" d="M68 104H78C79.1046 104 80 104.895 80 106V324H68V104Z" fill="#0D262C"/>
<path opacity="0.5" d="M32 106C32 104.895 32.8954 104 34 104H44V324H32V106Z" fill="url(#paint32_linear_3014_19939)"/>
<path d="M103.834 95.492L102.826 95.226L103.4 90.2H109.56V91.39H104.478L104.114 94.022C104.604 93.658 105.346 93.476 106.34 93.476C107.488 93.476 108.384 93.784 109.042 94.386C109.686 95.002 110.008 95.786 110.008 96.752C110.008 97.718 109.644 98.53 108.93 99.16C108.202 99.804 107.292 100.126 106.214 100.126C104.38 100.126 102.854 99.258 102.224 97.732L103.344 97.256C103.75 98.194 104.8 98.936 106.214 98.936C107.824 98.936 108.72 98.012 108.72 96.794C108.72 95.492 107.67 94.652 106.004 94.652C105.108 94.652 104.38 94.932 103.834 95.492ZM112.009 100C111.491 100.056 111.099 99.762 111.099 99.258C111.099 98.768 111.407 98.46 111.953 98.46C112.569 98.46 112.975 98.88 112.975 99.664C112.975 101.064 112.205 101.778 111.183 102.016L110.889 101.358C111.197 101.274 111.477 101.106 111.729 100.84C111.967 100.574 112.065 100.294 112.009 100ZM115.421 95.492L114.413 95.226L114.987 90.2H121.147V91.39H116.065L115.701 94.022C116.191 93.658 116.933 93.476 117.927 93.476C119.075 93.476 119.971 93.784 120.629 94.386C121.273 95.002 121.595 95.786 121.595 96.752C121.595 97.718 121.231 98.53 120.517 99.16C119.789 99.804 118.879 100.126 117.801 100.126C115.967 100.126 114.441 99.258 113.811 97.732L114.931 97.256C115.337 98.194 116.387 98.936 117.801 98.936C119.411 98.936 120.307 98.012 120.307 96.794C120.307 95.492 119.257 94.652 117.591 94.652C116.695 94.652 115.967 94.932 115.421 95.492Z" fill="#2A3C3C"/>
<path d="M103.834 95.492L102.826 95.226L103.4 90.2H109.56V91.39H104.478L104.114 94.022C104.604 93.658 105.346 93.476 106.34 93.476C107.488 93.476 108.384 93.784 109.042 94.386C109.686 95.002 110.008 95.786 110.008 96.752C110.008 97.718 109.644 98.53 108.93 99.16C108.202 99.804 107.292 100.126 106.214 100.126C104.38 100.126 102.854 99.258 102.224 97.732L103.344 97.256C103.75 98.194 104.8 98.936 106.214 98.936C107.824 98.936 108.72 98.012 108.72 96.794C108.72 95.492 107.67 94.652 106.004 94.652C105.108 94.652 104.38 94.932 103.834 95.492ZM112.009 100C111.491 100.056 111.099 99.762 111.099 99.258C111.099 98.768 111.407 98.46 111.953 98.46C112.569 98.46 112.975 98.88 112.975 99.664C112.975 101.064 112.205 101.778 111.183 102.016L110.889 101.358C111.197 101.274 111.477 101.106 111.729 100.84C111.967 100.574 112.065 100.294 112.009 100ZM115.421 95.492L114.413 95.226L114.987 90.2H121.147V91.39H116.065L115.701 94.022C116.191 93.658 116.933 93.476 117.927 93.476C119.075 93.476 119.971 93.784 120.629 94.386C121.273 95.002 121.595 95.786 121.595 96.752C121.595 97.718 121.231 98.53 120.517 99.16C119.789 99.804 118.879 100.126 117.801 100.126C115.967 100.126 114.441 99.258 113.811 97.732L114.931 97.256C115.337 98.194 116.387 98.936 117.801 98.936C119.411 98.936 120.307 98.012 120.307 96.794C120.307 95.492 119.257 94.652 117.591 94.652C116.695 94.652 115.967 94.932 115.421 95.492Z" fill="#1A3341"/>
<path d="M88 112C88 110.895 88.8954 110 90 110H134C135.105 110 136 110.895 136 112V324H88V112Z" fill="url(#paint33_linear_3014_19939)"/>
<path opacity="0.2" d="M100 110H124V324H100V110Z" fill="url(#paint34_linear_3014_19939)"/>
<path opacity="0.04" d="M124 110H134C135.105 110 136 110.895 136 112V324H124V110Z" fill="#0D262C"/>
<path opacity="0.5" d="M88 112C88 110.895 88.8954 110 90 110H100V324H88V112Z" fill="url(#paint35_linear_3014_19939)"/>
<path d="M204.567 148H203.349V145.998H197.357V145.186L203.489 138.2H204.567V144.864H206.387V145.998H204.567V148ZM203.349 140.16L199.037 144.864H203.349V140.16ZM208.009 148C207.491 148.056 207.099 147.762 207.099 147.258C207.099 146.768 207.407 146.46 207.953 146.46C208.569 146.46 208.975 146.88 208.975 147.664C208.975 149.064 208.205 149.778 207.183 150.016L206.889 149.358C207.197 149.274 207.477 149.106 207.729 148.84C207.967 148.574 208.065 148.294 208.009 148ZM216.755 148H215.537V145.998H209.545V145.186L215.677 138.2H216.755V144.864H218.575V145.998H216.755V148ZM215.537 140.16L211.225 144.864H215.537V140.16Z" fill="#1A3341"/>
<path d="M184 160C184 158.895 184.895 158 186 158H230C231.105 158 232 158.895 232 160V324H184V160Z" fill="url(#paint36_linear_3014_19939)"/>
<path opacity="0.2" d="M196 158H220V324H196V158Z" fill="url(#paint37_linear_3014_19939)"/>
<path opacity="0.04" d="M220 158H230C231.105 158 232 158.895 232 160V324H220V158Z" fill="#0D262C"/>
<path opacity="0.5" d="M184 160C184 158.895 184.895 158 186 158H196V324H184V160Z" fill="url(#paint38_linear_3014_19939)"/>
<path d="M260.949 152H259.731V149.998H253.739V149.186L259.871 142.2H260.949V148.864H262.769V149.998H260.949V152ZM259.731 144.16L255.419 148.864H259.731V144.16ZM264.392 152C263.874 152.056 263.482 151.762 263.482 151.258C263.482 150.768 263.79 150.46 264.336 150.46C264.952 150.46 265.358 150.88 265.358 151.664C265.358 153.064 264.588 153.778 263.566 154.016L263.272 153.358C263.58 153.274 263.86 153.106 264.112 152.84C264.35 152.574 264.448 152.294 264.392 152ZM267.342 145.056L266.292 144.58C266.81 143.068 268.168 142.074 270.198 142.074C271.164 142.074 271.962 142.298 272.578 142.746C273.194 143.194 273.502 143.796 273.502 144.538C273.502 145.672 272.9 146.512 271.78 146.834C272.858 146.904 273.726 147.716 273.726 149.172C273.726 150.096 273.39 150.824 272.718 151.342C272.046 151.86 271.192 152.126 270.142 152.126C268 152.126 266.516 151.104 266.026 149.494L267.16 149.004C267.762 150.278 268.784 150.922 270.226 150.922C271.584 150.922 272.438 150.292 272.438 149.186C272.438 148.108 271.598 147.562 269.918 147.562H268.826V146.4H269.694C271.22 146.4 272.214 145.714 272.214 144.776C272.214 143.81 271.416 143.264 270.142 143.264C268.644 143.264 267.734 144.034 267.342 145.056Z" fill="#2A3C3C"/>
<path d="M260.949 152H259.731V149.998H253.739V149.186L259.871 142.2H260.949V148.864H262.769V149.998H260.949V152ZM259.731 144.16L255.419 148.864H259.731V144.16ZM264.392 152C263.874 152.056 263.482 151.762 263.482 151.258C263.482 150.768 263.79 150.46 264.336 150.46C264.952 150.46 265.358 150.88 265.358 151.664C265.358 153.064 264.588 153.778 263.566 154.016L263.272 153.358C263.58 153.274 263.86 153.106 264.112 152.84C264.35 152.574 264.448 152.294 264.392 152ZM267.342 145.056L266.292 144.58C266.81 143.068 268.168 142.074 270.198 142.074C271.164 142.074 271.962 142.298 272.578 142.746C273.194 143.194 273.502 143.796 273.502 144.538C273.502 145.672 272.9 146.512 271.78 146.834C272.858 146.904 273.726 147.716 273.726 149.172C273.726 150.096 273.39 150.824 272.718 151.342C272.046 151.86 271.192 152.126 270.142 152.126C268 152.126 266.516 151.104 266.026 149.494L267.16 149.004C267.762 150.278 268.784 150.922 270.226 150.922C271.584 150.922 272.438 150.292 272.438 149.186C272.438 148.108 271.598 147.562 269.918 147.562H268.826V146.4H269.694C271.22 146.4 272.214 145.714 272.214 144.776C272.214 143.81 271.416 143.264 270.142 143.264C268.644 143.264 267.734 144.034 267.342 145.056Z" fill="#1A3341"/>
<path d="M240 164C240 162.895 240.895 162 242 162H286C287.105 162 288 162.895 288 164V324H240V164Z" fill="url(#paint39_linear_3014_19939)"/>
<path opacity="0.2" d="M252 162H276V324H252V162Z" fill="url(#paint40_linear_3014_19939)"/>
<path opacity="0.04" d="M276 162H286C287.105 162 288 162.895 288 164V324H276V162Z" fill="#0D262C"/>
<path opacity="0.5" d="M240 164C240 162.895 240.895 162 242 162H252V324H240V164Z" fill="url(#paint41_linear_3014_19939)"/>
<line x1="-4.37114e-08" y1="324.5" x2="335" y2="324.5" stroke="#ABBEC9"/>
<path d="M77.6868 336.8C77.6868 335.588 78.0948 334.556 78.9228 333.728C79.7508 332.9 80.7588 332.492 81.9588 332.492C83.1468 332.492 84.1548 332.9 84.9828 333.716C85.8108 334.532 86.2188 335.564 86.2188 336.8C86.2188 337.988 85.7748 339.044 84.8868 339.944L85.7268 340.952L84.9828 341.576L84.1188 340.532C83.4348 340.916 82.7148 341.108 81.9588 341.108C80.7348 341.108 79.7148 340.7 78.9108 339.884C78.0948 339.08 77.6868 338.048 77.6868 336.8ZM78.8268 336.8C78.8268 337.748 79.1268 338.528 79.7268 339.14C80.3268 339.752 81.0708 340.064 81.9588 340.064C82.4988 340.064 82.9908 339.932 83.4588 339.656L82.7388 338.792L83.4348 338.18L84.2028 339.104C84.7908 338.492 85.0788 337.724 85.0788 336.8C85.0788 335.852 84.7788 335.072 84.1788 334.46C83.5788 333.848 82.8348 333.536 81.9588 333.536C81.0708 333.536 80.3268 333.836 79.7268 334.448C79.1268 335.06 78.8268 335.852 78.8268 336.8ZM86.9532 334.832L86.5692 333.932L89.4492 332.552H90.1332V341H89.1012V333.836L86.9532 334.832ZM72.5564 349.372L71.6804 349.06C71.9804 347.572 73.1084 346.504 74.8964 346.504C76.6244 346.504 77.6804 347.5 77.6804 349.024C77.6804 349.828 77.3324 350.632 76.9004 351.208C76.6844 351.508 76.4084 351.796 76.0844 352.096C75.4244 352.684 74.9564 352.996 74.2724 353.428L73.3484 354.004H77.9924V355H71.4524V354.184L73.2764 352.972C73.6004 352.768 73.8284 352.612 73.9604 352.516C74.0924 352.432 74.3084 352.276 74.5964 352.072C74.8844 351.868 75.1004 351.688 75.2444 351.556C75.3764 351.424 75.5564 351.256 75.7604 351.04C76.3124 350.44 76.5164 349.888 76.5764 349.132C76.5764 348.04 75.8684 347.548 74.8244 347.548C74.1764 347.548 73.6604 347.728 73.2884 348.088C72.9164 348.448 72.6644 348.88 72.5564 349.372ZM78.824 350.8C78.824 349.504 79.124 348.46 79.736 347.68C80.336 346.9 81.224 346.504 82.388 346.504C84.776 346.504 85.964 348.076 85.964 350.8C85.964 352.108 85.664 353.14 85.076 353.92C84.476 354.7 83.588 355.096 82.412 355.096C81.284 355.096 80.408 354.7 79.772 353.908C79.136 353.116 78.824 352.084 78.824 350.8ZM79.928 350.8C79.928 352.852 80.864 354.076 82.412 354.076C84.044 354.076 84.86 352.984 84.86 350.8C84.86 348.616 84.032 347.524 82.388 347.524C80.72 347.524 79.928 348.724 79.928 350.8ZM87.8203 349.372L86.9443 349.06C87.2443 347.572 88.3723 346.504 90.1603 346.504C91.8883 346.504 92.9443 347.5 92.9443 349.024C92.9443 349.828 92.5963 350.632 92.1643 351.208C91.9483 351.508 91.6723 351.796 91.3483 352.096C90.6883 352.684 90.2203 352.996 89.5363 353.428L88.6123 354.004H93.2563V355H86.7163V354.184L88.5403 352.972C88.8643 352.768 89.0923 352.612 89.2243 352.516C89.3563 352.432 89.5723 352.276 89.8603 352.072C90.1483 351.868 90.3643 351.688 90.5083 351.556C90.6403 351.424 90.8203 351.256 91.0243 351.04C91.5763 350.44 91.7803 349.888 91.8403 349.132C91.8403 348.04 91.1323 347.548 90.0883 347.548C89.4403 347.548 88.9243 347.728 88.5523 348.088C88.1803 348.448 87.9283 348.88 87.8203 349.372ZM95.048 349.372L94.172 349.06C94.472 347.572 95.6 346.504 97.388 346.504C99.116 346.504 100.172 347.5 100.172 349.024C100.172 349.828 99.824 350.632 99.392 351.208C99.176 351.508 98.9 351.796 98.576 352.096C97.916 352.684 97.448 352.996 96.764 353.428L95.84 354.004H100.484V355H93.944V354.184L95.768 352.972C96.092 352.768 96.32 352.612 96.452 352.516C96.584 352.432 96.8 352.276 97.088 352.072C97.376 351.868 97.592 351.688 97.736 351.556C97.868 351.424 98.048 351.256 98.252 351.04C98.804 350.44 99.008 349.888 99.068 349.132C99.068 348.04 98.36 347.548 97.316 347.548C96.668 347.548 96.152 347.728 95.78 348.088C95.408 348.448 95.156 348.88 95.048 349.372Z" fill="#76848D"/>
<path d="M229.619 336.8C229.619 335.588 230.027 334.556 230.855 333.728C231.683 332.9 232.691 332.492 233.891 332.492C235.079 332.492 236.087 332.9 236.915 333.716C237.743 334.532 238.151 335.564 238.151 336.8C238.151 337.988 237.707 339.044 236.819 339.944L237.659 340.952L236.915 341.576L236.051 340.532C235.367 340.916 234.647 341.108 233.891 341.108C232.667 341.108 231.647 340.7 230.843 339.884C230.027 339.08 229.619 338.048 229.619 336.8ZM230.759 336.8C230.759 337.748 231.059 338.528 231.659 339.14C232.259 339.752 233.003 340.064 233.891 340.064C234.431 340.064 234.923 339.932 235.391 339.656L234.671 338.792L235.367 338.18L236.135 339.104C236.723 338.492 237.011 337.724 237.011 336.8C237.011 335.852 236.711 335.072 236.111 334.46C235.511 333.848 234.767 333.536 233.891 333.536C233.003 333.536 232.259 333.836 231.659 334.448C231.059 335.06 230.759 335.852 230.759 336.8ZM239.941 335.372L239.065 335.06C239.365 333.572 240.493 332.504 242.281 332.504C244.009 332.504 245.065 333.5 245.065 335.024C245.065 335.828 244.717 336.632 244.285 337.208C244.069 337.508 243.793 337.796 243.469 338.096C242.809 338.684 242.341 338.996 241.657 339.428L240.733 340.004H245.377V341H238.837V340.184L240.661 338.972C240.985 338.768 241.213 338.612 241.345 338.516C241.477 338.432 241.693 338.276 241.981 338.072C242.269 337.868 242.485 337.688 242.629 337.556C242.761 337.424 242.941 337.256 243.145 337.04C243.697 336.44 243.901 335.888 243.961 335.132C243.961 334.04 243.253 333.548 242.209 333.548C241.561 333.548 241.045 333.728 240.673 334.088C240.301 334.448 240.049 334.88 239.941 335.372ZM224.056 349.372L223.18 349.06C223.48 347.572 224.608 346.504 226.396 346.504C228.124 346.504 229.18 347.5 229.18 349.024C229.18 349.828 228.832 350.632 228.4 351.208C228.184 351.508 227.908 351.796 227.584 352.096C226.924 352.684 226.456 352.996 225.772 353.428L224.848 354.004H229.492V355H222.952V354.184L224.776 352.972C225.1 352.768 225.328 352.612 225.46 352.516C225.592 352.432 225.808 352.276 226.096 352.072C226.384 351.868 226.6 351.688 226.744 351.556C226.876 351.424 227.056 351.256 227.26 351.04C227.812 350.44 228.016 349.888 228.076 349.132C228.076 348.04 227.368 347.548 226.324 347.548C225.676 347.548 225.16 347.728 224.788 348.088C224.416 348.448 224.164 348.88 224.056 349.372ZM230.324 350.8C230.324 349.504 230.624 348.46 231.236 347.68C231.836 346.9 232.724 346.504 233.888 346.504C236.276 346.504 237.464 348.076 237.464 350.8C237.464 352.108 237.164 353.14 236.576 353.92C235.976 354.7 235.088 355.096 233.912 355.096C232.784 355.096 231.908 354.7 231.272 353.908C230.636 353.116 230.324 352.084 230.324 350.8ZM231.428 350.8C231.428 352.852 232.364 354.076 233.912 354.076C235.544 354.076 236.36 352.984 236.36 350.8C236.36 348.616 235.532 347.524 233.888 347.524C232.22 347.524 231.428 348.724 231.428 350.8ZM239.32 349.372L238.444 349.06C238.744 347.572 239.872 346.504 241.66 346.504C243.388 346.504 244.444 347.5 244.444 349.024C244.444 349.828 244.096 350.632 243.664 351.208C243.448 351.508 243.172 351.796 242.848 352.096C242.188 352.684 241.72 352.996 241.036 353.428L240.112 354.004H244.756V355H238.216V354.184L240.04 352.972C240.364 352.768 240.592 352.612 240.724 352.516C240.856 352.432 241.072 352.276 241.36 352.072C241.648 351.868 241.864 351.688 242.008 351.556C242.14 351.424 242.32 351.256 242.524 351.04C243.076 350.44 243.28 349.888 243.34 349.132C243.34 348.04 242.632 347.548 241.588 347.548C240.94 347.548 240.424 347.728 240.052 348.088C239.68 348.448 239.428 348.88 239.32 349.372ZM246.548 349.372L245.672 349.06C245.972 347.572 247.1 346.504 248.888 346.504C250.616 346.504 251.672 347.5 251.672 349.024C251.672 349.828 251.324 350.632 250.892 351.208C250.676 351.508 250.4 351.796 250.076 352.096C249.416 352.684 248.948 352.996 248.264 353.428L247.34 354.004H251.984V355H245.444V354.184L247.268 352.972C247.592 352.768 247.82 352.612 247.952 352.516C248.084 352.432 248.3 352.276 248.588 352.072C248.876 351.868 249.092 351.688 249.236 351.556C249.368 351.424 249.548 351.256 249.752 351.04C250.304 350.44 250.508 349.888 250.568 349.132C250.568 348.04 249.86 347.548 248.816 347.548C248.168 347.548 247.652 347.728 247.28 348.088C246.908 348.448 246.656 348.88 246.548 349.372Z" fill="#76848D"/>
<rect y="2" width="10" height="10" fill="url(#paint42_linear_3014_19939)"/>
<path d="M25.044 11H18.888V2.6H24.936V3.62H19.98V6.236H24.6V7.232H19.98V9.98H25.044V11ZM32.9246 8.936L33.5486 9.632C32.9126 10.532 31.6406 11.108 30.2846 11.108C28.9646 11.108 27.9086 10.712 27.1286 9.932C26.3486 9.152 25.9526 8.108 25.9526 6.8C25.9526 5.564 26.3486 4.544 27.1286 3.716C27.9086 2.9 28.9286 2.492 30.2006 2.492C31.6406 2.492 32.8166 3.068 33.4286 3.884L32.7206 4.568C32.0366 3.884 31.1966 3.536 30.2246 3.536C29.2526 3.536 28.4966 3.836 27.9326 4.436C27.3686 5.036 27.0926 5.828 27.0926 6.8C27.0926 7.784 27.3926 8.576 27.9926 9.164C28.5926 9.764 29.3846 10.064 30.3566 10.064C31.4006 10.064 32.2526 9.692 32.9246 8.936ZM40.812 12.752L40.128 13.448C39.24 12.68 38.592 11.804 38.184 10.82C37.776 9.836 37.572 8.864 37.572 7.892C37.572 5.972 38.328 3.944 40.14 2.324L40.8 3.02C39.336 4.388 38.604 6.008 38.604 7.892C38.604 9.68 39.42 11.408 40.812 12.752ZM42.2929 5.372L41.4169 5.06C41.7169 3.572 42.8449 2.504 44.6329 2.504C46.3609 2.504 47.4169 3.5 47.4169 5.024C47.4169 5.828 47.0689 6.632 46.6369 7.208C46.4209 7.508 46.1449 7.796 45.8209 8.096C45.1609 8.684 44.6929 8.996 44.0089 9.428L43.0849 10.004H47.7289V11H41.1889V10.184L43.0129 8.972C43.3369 8.768 43.5649 8.612 43.6969 8.516C43.8289 8.432 44.0449 8.276 44.3329 8.072C44.6209 7.868 44.8369 7.688 44.9809 7.556C45.1129 7.424 45.2929 7.256 45.4969 7.04C46.0489 6.44 46.2529 5.888 46.3129 5.132C46.3129 4.04 45.6049 3.548 44.5609 3.548C43.9129 3.548 43.3969 3.728 43.0249 4.088C42.6529 4.448 42.4009 4.88 42.2929 5.372ZM53.3725 3.62H48.2845V2.6H54.6565V3.284L50.4805 11H49.3405L53.3725 3.62ZM63.8257 9.2L64.5457 9.716C64.0777 10.592 63.0217 11.108 61.9777 11.108C60.9817 11.108 60.1777 10.808 59.5657 10.22C58.9537 9.632 58.6417 8.852 58.6417 7.868C58.6417 6.932 58.9417 6.152 59.5537 5.54C60.1657 4.928 60.9457 4.616 61.9177 4.616C63.0337 4.616 64.0297 5.12 64.4497 5.888L63.6697 6.416C63.2497 5.852 62.6737 5.564 61.9417 5.564C61.2937 5.564 60.7657 5.78 60.3457 6.212C59.9257 6.644 59.7097 7.196 59.7097 7.868C59.7097 8.552 59.9257 9.104 60.3697 9.524C60.8017 9.944 61.3657 10.16 62.0737 10.16C62.8177 10.16 63.4057 9.836 63.8257 9.2ZM67.0181 5.708H64.6301V4.76H70.4381V5.708H68.0261V11H67.0181V5.708ZM72.0741 13.4H71.0661V4.76H72.0741V5.54C72.4941 4.928 73.1661 4.616 74.0901 4.616C75.0021 4.616 75.7341 4.904 76.2741 5.492C76.8141 6.08 77.0781 6.836 77.0781 7.772C77.0781 8.732 76.7901 9.524 76.2141 10.16C75.6261 10.796 74.8821 11.108 73.9701 11.108C73.1301 11.108 72.4941 10.892 72.0741 10.472V13.4ZM73.9821 5.564C73.0701 5.564 72.3621 6.152 72.0741 6.86V9.188C72.4341 9.836 73.0341 10.16 73.8861 10.16C74.4981 10.16 75.0141 9.944 75.4101 9.512C75.8061 9.08 76.0101 8.528 76.0101 7.844C76.0101 6.452 75.2301 5.564 73.9821 5.564ZM78.5511 6.26L78.0351 5.504C78.6111 4.964 79.6071 4.616 80.5311 4.616C82.1991 4.616 83.0871 5.528 83.0871 7.148V11H82.0791V10.076C81.6831 10.652 80.9031 11.084 79.8951 11.084C78.5391 11.084 77.6271 10.328 77.6271 9.176C77.6271 7.868 78.7431 7.244 80.6151 7.244C81.2031 7.244 81.6831 7.304 82.0791 7.424C82.0791 6.212 81.6471 5.564 80.4111 5.564C79.7871 5.564 79.1631 5.792 78.5511 6.26ZM80.1351 10.172C80.6031 10.172 81.0231 10.04 81.3711 9.788C81.7191 9.536 81.9471 9.248 82.0791 8.948V8.312C81.7311 8.192 81.2871 8.132 80.7471 8.132C79.3791 8.132 78.6951 8.468 78.6951 9.14C78.6951 9.776 79.2711 10.172 80.1351 10.172ZM89.9772 11H88.9692V8.3H85.3692V11H84.3612V4.76H85.3692V7.352H88.9692V4.76H89.9772V11ZM91.3913 13.436L90.7073 12.776C91.4273 12.14 91.9793 11.396 92.3513 10.508C92.7233 9.632 92.9033 8.768 92.9033 7.892C92.9033 6.008 92.1713 4.388 90.7073 3.032L91.3793 2.324C93.1913 3.944 93.9353 5.972 93.9353 7.892C93.9353 8.864 93.7313 9.836 93.3353 10.82C92.9273 11.804 92.2793 12.68 91.3913 13.436Z" fill="#76848D"/>
<rect y="26" width="10" height="10" fill="#737AF9"/>
<path d="M25.044 35H18.888V26.6H24.936V27.62H19.98V30.236H24.6V31.232H19.98V33.98H25.044V35ZM29.0366 35H26.2526V28.76H28.8446C30.5846 28.76 31.4006 29.204 31.4006 30.356C31.4006 30.932 31.1366 31.388 30.5966 31.712C31.2686 31.916 31.6046 32.408 31.6046 33.212C31.6046 34.376 30.6806 35 29.0366 35ZM29.0486 32.276H27.2606V34.064H28.9286C29.9966 34.064 30.5366 33.764 30.5366 33.164C30.5366 32.576 30.0446 32.276 29.0486 32.276ZM28.8086 29.696H27.2606V31.364H29.1566C29.8886 31.364 30.3326 31.064 30.3326 30.5C30.3326 29.864 29.8166 29.696 28.8086 29.696ZM33.6211 37.4H32.6131V28.76H33.6211V29.54C34.0411 28.928 34.7131 28.616 35.6371 28.616C36.5491 28.616 37.2811 28.904 37.8211 29.492C38.3611 30.08 38.6251 30.836 38.6251 31.772C38.6251 32.732 38.3371 33.524 37.7611 34.16C37.1731 34.796 36.4291 35.108 35.5171 35.108C34.6771 35.108 34.0411 34.892 33.6211 34.472V37.4ZM35.5291 29.564C34.6171 29.564 33.9091 30.152 33.6211 30.86V33.188C33.9811 33.836 34.5811 34.16 35.4331 34.16C36.0451 34.16 36.5611 33.944 36.9571 33.512C37.3531 33.08 37.5571 32.528 37.5571 31.844C37.5571 30.452 36.7771 29.564 35.5291 29.564ZM39.2701 31.868C39.2701 30.92 39.5821 30.14 40.1941 29.528C40.8061 28.916 41.5981 28.616 42.5701 28.616C43.5541 28.616 44.3581 28.916 44.9701 29.528C45.5821 30.14 45.8941 30.92 45.8941 31.868C45.8941 32.816 45.5821 33.584 44.9701 34.196C44.3461 34.808 43.5421 35.108 42.5701 35.108C41.5981 35.108 40.8061 34.808 40.1941 34.196C39.5821 33.584 39.2701 32.816 39.2701 31.868ZM40.3381 31.868C40.3381 32.528 40.5421 33.08 40.9621 33.512C41.3821 33.944 41.9101 34.16 42.5701 34.16C43.2301 34.16 43.7821 33.944 44.2021 33.524C44.6221 33.104 44.8261 32.552 44.8261 31.868C44.8261 31.184 44.6101 30.632 44.1901 30.2C43.7581 29.78 43.2181 29.564 42.5701 29.564C41.9221 29.564 41.3941 29.78 40.9741 30.2C40.5541 30.62 40.3381 31.184 40.3381 31.868ZM49.1486 35.12C47.8646 35.12 46.9166 34.64 46.3286 33.692L47.1206 33.14C47.4686 33.776 48.2366 34.184 49.1606 34.184C50.1566 34.184 50.8646 33.776 50.8646 33.104C50.8646 32.552 50.4446 32.276 49.6166 32.276H48.1526V31.364H49.5446C50.1566 31.364 50.6366 31.004 50.6366 30.464C50.6366 29.876 50.0126 29.54 49.1126 29.54C48.3566 29.54 47.7326 29.828 47.2646 30.416L46.5206 29.924C46.9406 29.204 47.9006 28.604 49.2086 28.604C50.7806 28.604 51.7046 29.264 51.7046 30.308C51.7046 30.896 51.4526 31.352 50.9606 31.652C51.6806 32 51.9326 32.42 51.9326 33.08C51.9326 33.716 51.6686 34.208 51.1526 34.568C50.6366 34.94 49.9646 35.12 49.1486 35.12ZM52.5887 31.868C52.5887 30.92 52.9007 30.14 53.5127 29.528C54.1247 28.916 54.9167 28.616 55.8887 28.616C56.8727 28.616 57.6767 28.916 58.2887 29.528C58.9007 30.14 59.2127 30.92 59.2127 31.868C59.2127 32.816 58.9007 33.584 58.2887 34.196C57.6647 34.808 56.8607 35.108 55.8887 35.108C54.9167 35.108 54.1247 34.808 53.5127 34.196C52.9007 33.584 52.5887 32.816 52.5887 31.868ZM53.6567 31.868C53.6567 32.528 53.8607 33.08 54.2807 33.512C54.7007 33.944 55.2287 34.16 55.8887 34.16C56.5487 34.16 57.1007 33.944 57.5207 33.524C57.9407 33.104 58.1447 32.552 58.1447 31.868C58.1447 31.184 57.9287 30.632 57.5087 30.2C57.0767 29.78 56.5367 29.564 55.8887 29.564C55.2407 29.564 54.7127 29.78 54.2927 30.2C53.8727 30.62 53.6567 31.184 53.6567 31.868ZM65.8272 35H64.8192V32.3H61.2192V35H60.2112V28.76H61.2192V31.352H64.8192V28.76H65.8272V35ZM67.6493 30.26L67.1333 29.504C67.7093 28.964 68.7053 28.616 69.6293 28.616C71.2973 28.616 72.1853 29.528 72.1853 31.148V35H71.1773V34.076C70.7813 34.652 70.0013 35.084 68.9933 35.084C67.6373 35.084 66.7253 34.328 66.7253 33.176C66.7253 31.868 67.8413 31.244 69.7133 31.244C70.3013 31.244 70.7813 31.304 71.1773 31.424C71.1773 30.212 70.7453 29.564 69.5093 29.564C68.8853 29.564 68.2613 29.792 67.6493 30.26ZM69.2333 34.172C69.7013 34.172 70.1213 34.04 70.4693 33.788C70.8173 33.536 71.0453 33.248 71.1773 32.948V32.312C70.8293 32.192 70.3853 32.132 69.8453 32.132C68.4773 32.132 67.7933 32.468 67.7933 33.14C67.7933 33.776 68.3693 34.172 69.2333 34.172ZM79.8772 36.752L79.1932 37.448C78.3052 36.68 77.6572 35.804 77.2492 34.82C76.8412 33.836 76.6372 32.864 76.6372 31.892C76.6372 29.972 77.3932 27.944 79.2052 26.324L79.8652 27.02C78.4012 28.388 77.6692 30.008 77.6692 31.892C77.6692 33.68 78.4852 35.408 79.8772 36.752ZM80.302 28.832L79.918 27.932L82.798 26.552H83.482V35H82.45V27.836L80.302 28.832ZM91.9964 30.644C91.9964 32.072 91.6604 33.176 90.9764 33.944C90.2924 34.724 89.3804 35.108 88.2404 35.108C86.8484 35.108 85.7564 34.52 85.2164 33.62L86.0804 33.02C86.5604 33.692 87.4364 34.076 88.3844 34.076C89.1644 34.076 89.7884 33.764 90.2804 33.14C90.7724 32.528 90.9764 31.76 90.9164 30.848C90.5204 31.76 89.5244 32.432 88.1924 32.432C87.2564 32.432 86.4884 32.168 85.8884 31.628C85.2764 31.1 84.9764 30.404 84.9764 29.552C84.9764 28.616 85.3004 27.872 85.9484 27.32C86.5964 26.768 87.4604 26.492 88.5284 26.492C90.6884 26.492 91.9964 28.004 91.9964 30.644ZM90.7364 29.516C90.5564 28.4 89.7884 27.524 88.4084 27.524C86.9684 27.524 86.0804 28.268 86.0804 29.516C86.0804 30.704 86.9804 31.4 88.3844 31.4C89.0204 31.4 89.5604 31.208 89.9804 30.824C90.4004 30.44 90.6524 30.008 90.7364 29.516ZM101.426 33.2L102.146 33.716C101.678 34.592 100.622 35.108 99.578 35.108C98.582 35.108 97.778 34.808 97.166 34.22C96.554 33.632 96.242 32.852 96.242 31.868C96.242 30.932 96.542 30.152 97.154 29.54C97.766 28.928 98.546 28.616 99.518 28.616C100.634 28.616 101.63 29.12 102.05 29.888L101.27 30.416C100.85 29.852 100.274 29.564 99.542 29.564C98.894 29.564 98.366 29.78 97.946 30.212C97.526 30.644 97.31 31.196 97.31 31.868C97.31 32.552 97.526 33.104 97.97 33.524C98.402 33.944 98.966 34.16 99.674 34.16C100.418 34.16 101.006 33.836 101.426 33.2ZM104.618 29.708H102.23V28.76H108.038V29.708H105.626V35H104.618V29.708ZM109.674 37.4H108.666V28.76H109.674V29.54C110.094 28.928 110.766 28.616 111.69 28.616C112.602 28.616 113.334 28.904 113.874 29.492C114.414 30.08 114.678 30.836 114.678 31.772C114.678 32.732 114.39 33.524 113.814 34.16C113.226 34.796 112.482 35.108 111.57 35.108C110.73 35.108 110.094 34.892 109.674 34.472V37.4ZM111.582 29.564C110.67 29.564 109.962 30.152 109.674 30.86V33.188C110.034 33.836 110.634 34.16 111.486 34.16C112.098 34.16 112.614 33.944 113.01 33.512C113.406 33.08 113.61 32.528 113.61 31.844C113.61 30.452 112.83 29.564 111.582 29.564ZM116.151 30.26L115.635 29.504C116.211 28.964 117.207 28.616 118.131 28.616C119.799 28.616 120.687 29.528 120.687 31.148V35H119.679V34.076C119.283 34.652 118.503 35.084 117.495 35.084C116.139 35.084 115.227 34.328 115.227 33.176C115.227 31.868 116.343 31.244 118.215 31.244C118.803 31.244 119.283 31.304 119.679 31.424C119.679 30.212 119.247 29.564 118.011 29.564C117.387 29.564 116.763 29.792 116.151 30.26ZM117.735 34.172C118.203 34.172 118.623 34.04 118.971 33.788C119.319 33.536 119.547 33.248 119.679 32.948V32.312C119.331 32.192 118.887 32.132 118.347 32.132C116.979 32.132 116.295 32.468 116.295 33.14C116.295 33.776 116.871 34.172 117.735 34.172ZM127.578 35H126.57V32.3H122.97V35H121.962V28.76H122.97V31.352H126.57V28.76H127.578V35ZM128.992 37.436L128.308 36.776C129.028 36.14 129.58 35.396 129.952 34.508C130.324 33.632 130.504 32.768 130.504 31.892C130.504 30.008 129.772 28.388 128.308 27.032L128.98 26.324C130.792 27.944 131.536 29.972 131.536 31.892C131.536 32.864 131.332 33.836 130.936 34.82C130.528 35.804 129.88 36.68 128.992 37.436Z" fill="#76848D"/>
<defs>
<linearGradient id="paint0_linear_3014_19939" x1="208" y1="761" x2="208" y2="769" gradientUnits="userSpaceOnUse">
<stop offset="0" stop-color="#CDE3E9"/>
<stop offset="1" stop-color="#D3E8ED"/>
</linearGradient>
<linearGradient id="paint1_linear_3014_19939" x1="208" y1="761" x2="208" y2="769" gradientUnits="userSpaceOnUse">
<stop offset="0" stop-color="white" stop-opacity="0"/>
<stop offset="0.739583" stop-color="white"/>
</linearGradient>
<linearGradient id="paint2_linear_3014_19939" x1="190" y1="745.4" x2="190" y2="769" gradientUnits="userSpaceOnUse">
<stop offset="0" stop-color="white" stop-opacity="0.05"/>
<stop offset="0.75" stop-color="white" stop-opacity="0.8"/>
</linearGradient>
<linearGradient id="paint3_linear_3014_19939" x1="264" y1="765" x2="264" y2="769" gradientUnits="userSpaceOnUse">
<stop offset="0" stop-color="#6D73F9"/>
<stop offset="1" stop-color="#9BB8F1"/>
</linearGradient>
<linearGradient id="paint4_linear_3014_19939" x1="264" y1="765" x2="264" y2="769" gradientUnits="userSpaceOnUse">
<stop offset="0" stop-color="white" stop-opacity="0"/>
<stop offset="0.739583" stop-color="white"/>
</linearGradient>
<linearGradient id="paint5_linear_3014_19939" x1="246" y1="757.2" x2="246" y2="769" gradientUnits="userSpaceOnUse">
<stop offset="0" stop-color="white" stop-opacity="0.05"/>
<stop offset="0.75" stop-color="white" stop-opacity="0.8"/>
</linearGradient>
<linearGradient id="paint6_linear_3014_19939" x1="58" y1="613" x2="58" y2="654" gradientUnits="userSpaceOnUse">
<stop offset="0" stop-color="#CDE3E9"/>
<stop offset="1" stop-color="#D3E8ED"/>
</linearGradient>
<linearGradient id="paint7_linear_3014_19939" x1="58" y1="613" x2="58" y2="654" gradientUnits="userSpaceOnUse">
<stop offset="0" stop-color="white" stop-opacity="0"/>
<stop offset="0.739583" stop-color="white"/>
</linearGradient>
<linearGradient id="paint8_linear_3014_19939" x1="40" y1="533.05" x2="40" y2="654" gradientUnits="userSpaceOnUse">
<stop offset="0" stop-color="white" stop-opacity="0.05"/>
<stop offset="0.75" stop-color="white" stop-opacity="0.8"/>
</linearGradient>
<linearGradient id="paint9_linear_3014_19939" x1="114" y1="609" x2="114" y2="654" gradientUnits="userSpaceOnUse">
<stop offset="0" stop-color="#6D73F9"/>
<stop offset="1" stop-color="#9BB8F1"/>
</linearGradient>
<linearGradient id="paint10_linear_3014_19939" x1="114" y1="609" x2="114" y2="654" gradientUnits="userSpaceOnUse">
<stop offset="0" stop-color="white" stop-opacity="0"/>
<stop offset="0.739583" stop-color="white"/>
</linearGradient>
<linearGradient id="paint11_linear_3014_19939" x1="96" y1="521.25" x2="96" y2="654" gradientUnits="userSpaceOnUse">
<stop offset="0" stop-color="white" stop-opacity="0.05"/>
<stop offset="0.75" stop-color="white" stop-opacity="0.8"/>
</linearGradient>
<linearGradient id="paint12_linear_3014_19939" x1="207" y1="635" x2="207" y2="655" gradientUnits="userSpaceOnUse">
<stop offset="0" stop-color="#CDE3E9"/>
<stop offset="1" stop-color="#D3E8ED"/>
</linearGradient>
<linearGradient id="paint13_linear_3014_19939" x1="207" y1="635" x2="207" y2="655" gradientUnits="userSpaceOnUse">
<stop offset="0" stop-color="white" stop-opacity="0"/>
<stop offset="0.739583" stop-color="white"/>
</linearGradient>
<linearGradient id="paint14_linear_3014_19939" x1="189" y1="596" x2="189" y2="655" gradientUnits="userSpaceOnUse">
<stop offset="0" stop-color="white" stop-opacity="0.05"/>
<stop offset="0.75" stop-color="white" stop-opacity="0.8"/>
</linearGradient>
<linearGradient id="paint15_linear_3014_19939" x1="263" y1="631" x2="263" y2="655" gradientUnits="userSpaceOnUse">
<stop offset="0" stop-color="#6D73F9"/>
<stop offset="1" stop-color="#9BB8F1"/>
</linearGradient>
<linearGradient id="paint16_linear_3014_19939" x1="263" y1="631" x2="263" y2="655" gradientUnits="userSpaceOnUse">
<stop offset="0" stop-color="white" stop-opacity="0"/>
<stop offset="0.739583" stop-color="white"/>
</linearGradient>
<linearGradient id="paint17_linear_3014_19939" x1="245" y1="584.2" x2="245" y2="655" gradientUnits="userSpaceOnUse">
<stop offset="0" stop-color="white" stop-opacity="0.05"/>
<stop offset="0.75" stop-color="white" stop-opacity="0.8"/>
</linearGradient>
<linearGradient id="paint18_linear_3014_19939" x1="209" y1="448" x2="209" y2="511" gradientUnits="userSpaceOnUse">
<stop offset="0" stop-color="#CDE3E9"/>
<stop offset="1" stop-color="#D3E8ED"/>
</linearGradient>
<linearGradient id="paint19_linear_3014_19939" x1="209" y1="448" x2="209" y2="511" gradientUnits="userSpaceOnUse">
<stop offset="0" stop-color="white" stop-opacity="0"/>
<stop offset="0.739583" stop-color="white"/>
</linearGradient>
<linearGradient id="paint20_linear_3014_19939" x1="191" y1="325.15" x2="191" y2="511" gradientUnits="userSpaceOnUse">
<stop offset="0" stop-color="white" stop-opacity="0.05"/>
<stop offset="0.75" stop-color="white" stop-opacity="0.8"/>
</linearGradient>
<linearGradient id="paint21_linear_3014_19939" x1="265" y1="444" x2="265" y2="511" gradientUnits="userSpaceOnUse">
<stop offset="0" stop-color="#6D73F9"/>
<stop offset="1" stop-color="#9BB8F1"/>
</linearGradient>
<linearGradient id="paint22_linear_3014_19939" x1="265" y1="444" x2="265" y2="511" gradientUnits="userSpaceOnUse">
<stop offset="0" stop-color="white" stop-opacity="0"/>
<stop offset="0.739583" stop-color="white"/>
</linearGradient>
<linearGradient id="paint23_linear_3014_19939" x1="247" y1="313.35" x2="247" y2="511" gradientUnits="userSpaceOnUse">
<stop offset="0" stop-color="white" stop-opacity="0.05"/>
<stop offset="0.75" stop-color="white" stop-opacity="0.8"/>
</linearGradient>
<linearGradient id="paint24_linear_3014_19939" x1="57" y1="416" x2="57" y2="511" gradientUnits="userSpaceOnUse">
<stop offset="0" stop-color="#CDE3E9"/>
<stop offset="1" stop-color="#D3E8ED"/>
</linearGradient>
<linearGradient id="paint25_linear_3014_19939" x1="57" y1="416" x2="57" y2="511" gradientUnits="userSpaceOnUse">
<stop offset="0" stop-color="white" stop-opacity="0"/>
<stop offset="0.739583" stop-color="white"/>
</linearGradient>
<linearGradient id="paint26_linear_3014_19939" x1="39" y1="230.75" x2="39" y2="511" gradientUnits="userSpaceOnUse">
<stop offset="0" stop-color="white" stop-opacity="0.05"/>
<stop offset="0.75" stop-color="white" stop-opacity="0.8"/>
</linearGradient>
<linearGradient id="paint27_linear_3014_19939" x1="113" y1="421" x2="113" y2="511" gradientUnits="userSpaceOnUse">
<stop offset="0" stop-color="#6D73F9"/>
<stop offset="1" stop-color="#9BB8F1"/>
</linearGradient>
<linearGradient id="paint28_linear_3014_19939" x1="113" y1="421" x2="113" y2="511" gradientUnits="userSpaceOnUse">
<stop offset="0" stop-color="white" stop-opacity="0"/>
<stop offset="0.739583" stop-color="white"/>
</linearGradient>
<linearGradient id="paint29_linear_3014_19939" x1="95" y1="245.5" x2="95" y2="511" gradientUnits="userSpaceOnUse">
<stop offset="0" stop-color="white" stop-opacity="0.05"/>
<stop offset="0.75" stop-color="white" stop-opacity="0.8"/>
</linearGradient>
<linearGradient id="paint30_linear_3014_19939" x1="56" y1="104" x2="56" y2="324" gradientUnits="userSpaceOnUse">
<stop offset="0" stop-color="#CDE3E9"/>
<stop offset="1" stop-color="#D3E8ED"/>
</linearGradient>
<linearGradient id="paint31_linear_3014_19939" x1="56" y1="104" x2="56" y2="324" gradientUnits="userSpaceOnUse">
<stop offset="0" stop-color="white" stop-opacity="0"/>
<stop offset="0.739583" stop-color="white"/>
</linearGradient>
<linearGradient id="paint32_linear_3014_19939" x1="38" y1="-325" x2="38" y2="324" gradientUnits="userSpaceOnUse">
<stop offset="0" stop-color="white" stop-opacity="0.05"/>
<stop offset="0.75" stop-color="white" stop-opacity="0.8"/>
</linearGradient>
<linearGradient id="paint33_linear_3014_19939" x1="112" y1="110" x2="112" y2="324" gradientUnits="userSpaceOnUse">
<stop offset="0" stop-color="#6D73F9"/>
<stop offset="1" stop-color="#9BB8F1"/>
</linearGradient>
<linearGradient id="paint34_linear_3014_19939" x1="112" y1="110" x2="112" y2="324" gradientUnits="userSpaceOnUse">
<stop offset="0" stop-color="white" stop-opacity="0"/>
<stop offset="0.739583" stop-color="white"/>
</linearGradient>
<linearGradient id="paint35_linear_3014_19939" x1="94" y1="-307.3" x2="94" y2="324" gradientUnits="userSpaceOnUse">
<stop offset="0" stop-color="white" stop-opacity="0.05"/>
<stop offset="0.75" stop-color="white" stop-opacity="0.8"/>
</linearGradient>
<linearGradient id="paint36_linear_3014_19939" x1="208" y1="158" x2="208" y2="324" gradientUnits="userSpaceOnUse">
<stop offset="0" stop-color="#CDE3E9"/>
<stop offset="1" stop-color="#D3E8ED"/>
</linearGradient>
<linearGradient id="paint37_linear_3014_19939" x1="208" y1="158" x2="208" y2="324" gradientUnits="userSpaceOnUse">
<stop offset="0" stop-color="white" stop-opacity="0"/>
<stop offset="0.739583" stop-color="white"/>
</linearGradient>
<linearGradient id="paint38_linear_3014_19939" x1="190" y1="-165.7" x2="190" y2="324" gradientUnits="userSpaceOnUse">
<stop offset="0" stop-color="white" stop-opacity="0.05"/>
<stop offset="0.75" stop-color="white" stop-opacity="0.8"/>
</linearGradient>
<linearGradient id="paint39_linear_3014_19939" x1="264" y1="162" x2="264" y2="324" gradientUnits="userSpaceOnUse">
<stop offset="0" stop-color="#6D73F9"/>
<stop offset="1" stop-color="#9BB8F1"/>
</linearGradient>
<linearGradient id="paint40_linear_3014_19939" x1="264" y1="162" x2="264" y2="324" gradientUnits="userSpaceOnUse">
<stop offset="0" stop-color="white" stop-opacity="0"/>
<stop offset="0.739583" stop-color="white"/>
</linearGradient>
<linearGradient id="paint41_linear_3014_19939" x1="246" y1="-153.9" x2="246" y2="324" gradientUnits="userSpaceOnUse">
<stop offset="0" stop-color="white" stop-opacity="0.05"/>
<stop offset="0.75" stop-color="white" stop-opacity="0.8"/>
</linearGradient>
<linearGradient id="paint42_linear_3014_19939" x1="0.476191" y1="12" x2="10" y2="12" gradientUnits="userSpaceOnUse">
<stop offset="0" stop-color="#CEE8EF"/>
<stop offset="1" stop-color="#CEE8EF"/>
</linearGradient>
</defs>
</svg>
