<svg width="540" height="214" viewBox="0 0 540 214" fill="none" xmlns="http://www.w3.org/2000/svg">
<path d="M188.454 69.1C188.454 67.588 188.804 66.37 189.518 65.46C190.218 64.55 191.254 64.088 192.612 64.088C195.398 64.088 196.784 65.922 196.784 69.1C196.784 70.626 196.434 71.83 195.748 72.74C195.048 73.65 194.012 74.112 192.64 74.112C191.324 74.112 190.302 73.65 189.56 72.726C188.818 71.802 188.454 70.598 188.454 69.1ZM189.742 69.1C189.742 71.494 190.834 72.922 192.64 72.922C194.544 72.922 195.496 71.648 195.496 69.1C195.496 66.552 194.53 65.278 192.612 65.278C190.666 65.278 189.742 66.678 189.742 69.1ZM198.768 74C198.25 74.056 197.858 73.762 197.858 73.258C197.858 72.768 198.166 72.46 198.712 72.46C199.328 72.46 199.734 72.88 199.734 73.664C199.734 75.064 198.964 75.778 197.942 76.016L197.648 75.358C197.956 75.274 198.236 75.106 198.488 74.84C198.726 74.574 198.824 74.294 198.768 74ZM206.366 65.39H200.43V64.2H207.864V64.998L202.992 74H201.662L206.366 65.39Z" fill="#2A3C3C"/>
<path d="M188.454 69.1C188.454 67.588 188.804 66.37 189.518 65.46C190.218 64.55 191.254 64.088 192.612 64.088C195.398 64.088 196.784 65.922 196.784 69.1C196.784 70.626 196.434 71.83 195.748 72.74C195.048 73.65 194.012 74.112 192.64 74.112C191.324 74.112 190.302 73.65 189.56 72.726C188.818 71.802 188.454 70.598 188.454 69.1ZM189.742 69.1C189.742 71.494 190.834 72.922 192.64 72.922C194.544 72.922 195.496 71.648 195.496 69.1C195.496 66.552 194.53 65.278 192.612 65.278C190.666 65.278 189.742 66.678 189.742 69.1ZM198.768 74C198.25 74.056 197.858 73.762 197.858 73.258C197.858 72.768 198.166 72.46 198.712 72.46C199.328 72.46 199.734 72.88 199.734 73.664C199.734 75.064 198.964 75.778 197.942 76.016L197.648 75.358C197.956 75.274 198.236 75.106 198.488 74.84C198.726 74.574 198.824 74.294 198.768 74ZM206.366 65.39H200.43V64.2H207.864V64.998L202.992 74H201.662L206.366 65.39Z" fill="#1A3341"/>
<path d="M170 86C170 84.8954 170.895 84 172 84H224C225.105 84 226 84.8954 226 86V181H170V86Z" fill="url(#paint0_linear_4012_9225)"/>
<path opacity="0.2" d="M182 84H214V181H182V84Z" fill="url(#paint1_linear_4012_9225)"/>
<path opacity="0.04" d="M214 84H224C225.105 84 226 84.8954 226 86V181H214V84Z" fill="#0D262C"/>
<path opacity="0.5" d="M170 86C170 84.8954 170.895 84 172 84H182V181H170V86Z" fill="url(#paint2_linear_4012_9225)"/>
<path d="M299.784 45.1C299.784 43.588 300.134 42.37 300.848 41.46C301.548 40.55 302.584 40.088 303.942 40.088C306.728 40.088 308.114 41.922 308.114 45.1C308.114 46.626 307.764 47.83 307.078 48.74C306.378 49.65 305.342 50.112 303.97 50.112C302.654 50.112 301.632 49.65 300.89 48.726C300.148 47.802 299.784 46.598 299.784 45.1ZM301.072 45.1C301.072 47.494 302.164 48.922 303.97 48.922C305.874 48.922 306.826 47.648 306.826 45.1C306.826 42.552 305.86 41.278 303.942 41.278C301.996 41.278 301.072 42.678 301.072 45.1ZM310.098 50C309.58 50.056 309.188 49.762 309.188 49.258C309.188 48.768 309.496 48.46 310.042 48.46C310.658 48.46 311.064 48.88 311.064 49.664C311.064 51.064 310.294 51.778 309.272 52.016L308.978 51.358C309.286 51.274 309.566 51.106 309.818 50.84C310.056 50.574 310.154 50.294 310.098 50ZM320.23 44.918C320.23 46.584 319.838 47.872 319.04 48.768C318.242 49.678 317.178 50.126 315.848 50.126C314.224 50.126 312.95 49.44 312.32 48.39L313.328 47.69C313.888 48.474 314.91 48.922 316.016 48.922C316.926 48.922 317.654 48.558 318.228 47.83C318.802 47.116 319.04 46.22 318.97 45.156C318.508 46.22 317.346 47.004 315.792 47.004C314.7 47.004 313.804 46.696 313.104 46.066C312.39 45.45 312.04 44.638 312.04 43.644C312.04 42.552 312.418 41.684 313.174 41.04C313.93 40.396 314.938 40.074 316.184 40.074C318.704 40.074 320.23 41.838 320.23 44.918ZM318.76 43.602C318.55 42.3 317.654 41.278 316.044 41.278C314.364 41.278 313.328 42.146 313.328 43.602C313.328 44.988 314.378 45.8 316.016 45.8C316.758 45.8 317.388 45.576 317.878 45.128C318.368 44.68 318.662 44.176 318.76 43.602Z" fill="#2A3C3C"/>
<path d="M299.784 45.1C299.784 43.588 300.134 42.37 300.848 41.46C301.548 40.55 302.584 40.088 303.942 40.088C306.728 40.088 308.114 41.922 308.114 45.1C308.114 46.626 307.764 47.83 307.078 48.74C306.378 49.65 305.342 50.112 303.97 50.112C302.654 50.112 301.632 49.65 300.89 48.726C300.148 47.802 299.784 46.598 299.784 45.1ZM301.072 45.1C301.072 47.494 302.164 48.922 303.97 48.922C305.874 48.922 306.826 47.648 306.826 45.1C306.826 42.552 305.86 41.278 303.942 41.278C301.996 41.278 301.072 42.678 301.072 45.1ZM310.098 50C309.58 50.056 309.188 49.762 309.188 49.258C309.188 48.768 309.496 48.46 310.042 48.46C310.658 48.46 311.064 48.88 311.064 49.664C311.064 51.064 310.294 51.778 309.272 52.016L308.978 51.358C309.286 51.274 309.566 51.106 309.818 50.84C310.056 50.574 310.154 50.294 310.098 50ZM320.23 44.918C320.23 46.584 319.838 47.872 319.04 48.768C318.242 49.678 317.178 50.126 315.848 50.126C314.224 50.126 312.95 49.44 312.32 48.39L313.328 47.69C313.888 48.474 314.91 48.922 316.016 48.922C316.926 48.922 317.654 48.558 318.228 47.83C318.802 47.116 319.04 46.22 318.97 45.156C318.508 46.22 317.346 47.004 315.792 47.004C314.7 47.004 313.804 46.696 313.104 46.066C312.39 45.45 312.04 44.638 312.04 43.644C312.04 42.552 312.418 41.684 313.174 41.04C313.93 40.396 314.938 40.074 316.184 40.074C318.704 40.074 320.23 41.838 320.23 44.918ZM318.76 43.602C318.55 42.3 317.654 41.278 316.044 41.278C314.364 41.278 313.328 42.146 313.328 43.602C313.328 44.988 314.378 45.8 316.016 45.8C316.758 45.8 317.388 45.576 317.878 45.128C318.368 44.68 318.662 44.176 318.76 43.602Z" fill="#1A3341"/>
<path d="M297.909 196H296.817V187.6H297.825L301.017 191.824L304.101 187.6H305.085V196H303.993V189.484L301.125 193.348H300.861L297.909 189.484V196ZM310.076 196H306.74V187.6H310.136C312.284 187.6 313.1 188.38 313.1 189.688C313.1 190.624 312.704 191.26 311.912 191.608C312.836 191.8 313.4 192.508 313.4 193.6C313.4 195.244 312.176 196 310.076 196ZM310.184 192.208H307.832V194.98H310.064C311.588 194.98 312.272 194.536 312.272 193.54C312.272 192.652 311.576 192.208 310.184 192.208ZM310.04 188.62H307.832V191.212H310.22C311.288 191.212 311.984 190.732 311.984 189.916C311.984 189.016 311.468 188.62 310.04 188.62ZM319.482 196.18H318.39V195.16H318.33C317.034 195.16 316.014 194.848 315.27 194.212C314.514 193.588 314.142 192.748 314.142 191.68C314.142 190.564 314.526 189.712 315.306 189.1C316.074 188.5 317.106 188.2 318.39 188.2V187.42H319.482V188.2C320.706 188.2 321.726 188.5 322.53 189.1C323.334 189.7 323.73 190.564 323.73 191.68C323.73 192.748 323.358 193.588 322.602 194.212C321.846 194.848 320.826 195.16 319.542 195.16H319.482V196.18ZM319.506 189.208H319.482V194.152H319.542C321.462 194.152 322.602 193.264 322.602 191.68C322.602 190.108 321.534 189.208 319.506 189.208ZM315.27 191.68C315.27 193.18 316.386 194.152 318.342 194.152H318.39V189.208C316.506 189.208 315.27 190.048 315.27 191.68Z" fill="#76848D"/>
<path d="M282 62C282 60.8954 282.895 60 284 60H336C337.105 60 338 60.8954 338 62V181H282V62Z" fill="url(#paint3_linear_4012_9225)"/>
<path opacity="0.2" d="M294 60H326V181H294V60Z" fill="url(#paint4_linear_4012_9225)"/>
<path opacity="0.04" d="M326 60H336C337.105 60 338 60.8954 338 62V181H326V60Z" fill="#0D262C"/>
<path opacity="0.5" d="M282 62C282 60.8954 282.895 60 284 60H294V181H282V62Z" fill="url(#paint5_linear_4012_9225)"/>
<path d="M414.051 2.804L413.603 1.754L416.963 0.143999H417.761V10H416.557V1.642L414.051 2.804ZM420.484 10C419.966 10.056 419.574 9.762 419.574 9.258C419.574 8.768 419.882 8.46 420.428 8.46C421.044 8.46 421.45 8.88 421.45 9.664C421.45 11.064 420.68 11.778 419.658 12.016L419.364 11.358C419.672 11.274 419.952 11.106 420.204 10.84C420.442 10.574 420.54 10.294 420.484 10ZM423.589 3.434L422.567 3.07C422.917 1.334 424.233 0.0879999 426.319 0.0879999C428.335 0.0879999 429.567 1.25 429.567 3.028C429.567 3.966 429.161 4.904 428.657 5.576C428.405 5.926 428.083 6.262 427.705 6.612C426.935 7.298 426.389 7.662 425.591 8.166L424.513 8.838H429.931V10H422.301V9.048L424.429 7.634C424.807 7.396 425.073 7.214 425.227 7.102C425.381 7.004 425.633 6.822 425.969 6.584C426.305 6.346 426.557 6.136 426.725 5.982C426.879 5.828 427.089 5.632 427.327 5.38C427.971 4.68 428.209 4.036 428.279 3.154C428.279 1.88 427.453 1.306 426.235 1.306C425.479 1.306 424.877 1.516 424.443 1.936C424.009 2.356 423.715 2.86 423.589 3.434Z" fill="#2A3C3C"/>
<path d="M414.051 2.804L413.603 1.754L416.963 0.143999H417.761V10H416.557V1.642L414.051 2.804ZM420.484 10C419.966 10.056 419.574 9.762 419.574 9.258C419.574 8.768 419.882 8.46 420.428 8.46C421.044 8.46 421.45 8.88 421.45 9.664C421.45 11.064 420.68 11.778 419.658 12.016L419.364 11.358C419.672 11.274 419.952 11.106 420.204 10.84C420.442 10.574 420.54 10.294 420.484 10ZM423.589 3.434L422.567 3.07C422.917 1.334 424.233 0.0879999 426.319 0.0879999C428.335 0.0879999 429.567 1.25 429.567 3.028C429.567 3.966 429.161 4.904 428.657 5.576C428.405 5.926 428.083 6.262 427.705 6.612C426.935 7.298 426.389 7.662 425.591 8.166L424.513 8.838H429.931V10H422.301V9.048L424.429 7.634C424.807 7.396 425.073 7.214 425.227 7.102C425.381 7.004 425.633 6.822 425.969 6.584C426.305 6.346 426.557 6.136 426.725 5.982C426.879 5.828 427.089 5.632 427.327 5.38C427.971 4.68 428.209 4.036 428.279 3.154C428.279 1.88 427.453 1.306 426.235 1.306C425.479 1.306 424.877 1.516 424.443 1.936C424.009 2.356 423.715 2.86 423.589 3.434Z" fill="#1A3341"/>
<path opacity="0.4" d="M394 22C394 20.8954 394.895 20 396 20H448C449.105 20 450 20.8954 450 22V180H394V22Z" fill="url(#paint6_linear_4012_9225)"/>
<path opacity="0.2" d="M406 20H438V180H406V20Z" fill="url(#paint7_linear_4012_9225)"/>
<path opacity="0.04" d="M438 20H448C449.105 20 450 20.8954 450 22V180H438V20Z" fill="#0D262C"/>
<path opacity="0.5" d="M394 22C394 20.8954 394.895 20 396 20H406V180H394V22Z" fill="url(#paint8_linear_4012_9225)"/>
<path d="M75.7977 85.1C75.7977 83.588 76.1477 82.37 76.8617 81.46C77.5617 80.55 78.5977 80.088 79.9557 80.088C82.7417 80.088 84.1277 81.922 84.1277 85.1C84.1277 86.626 83.7777 87.83 83.0917 88.74C82.3917 89.65 81.3557 90.112 79.9837 90.112C78.6677 90.112 77.6457 89.65 76.9037 88.726C76.1617 87.802 75.7977 86.598 75.7977 85.1ZM77.0857 85.1C77.0857 87.494 78.1777 88.922 79.9837 88.922C81.8877 88.922 82.8397 87.648 82.8397 85.1C82.8397 82.552 81.8737 81.278 79.9557 81.278C78.0097 81.278 77.0857 82.678 77.0857 85.1ZM86.1113 90C85.5933 90.056 85.2013 89.762 85.2013 89.258C85.2013 88.768 85.5093 88.46 86.0553 88.46C86.6713 88.46 87.0773 88.88 87.0773 89.664C87.0773 91.064 86.3073 91.778 85.2853 92.016L84.9913 91.358C85.2993 91.274 85.5793 91.106 85.8313 90.84C86.0693 90.574 86.1673 90.294 86.1113 90ZM88.0958 85.366C88.0958 83.672 88.5158 82.37 89.3418 81.446C90.1678 80.536 91.2038 80.074 92.4498 80.074C94.0878 80.074 95.3758 80.816 95.9218 81.992L94.9698 82.636C94.3958 81.726 93.5418 81.278 92.3938 81.278C91.5258 81.278 90.7978 81.614 90.2098 82.286C89.6218 82.972 89.3278 83.896 89.3418 85.086C89.8878 84.064 91.1618 83.448 92.5618 83.448C93.6958 83.448 94.6058 83.742 95.2638 84.344C95.9218 84.946 96.2578 85.744 96.2578 86.724C96.2578 87.718 95.8938 88.544 95.1518 89.174C94.4098 89.804 93.4858 90.126 92.3798 90.126C89.7338 90.126 88.0958 88.404 88.0958 85.366ZM89.4958 86.556C89.7618 87.942 90.8118 88.922 92.3658 88.922C93.1218 88.922 93.7518 88.726 94.2418 88.32C94.7318 87.928 94.9698 87.41 94.9698 86.78C94.9698 85.394 93.9898 84.652 92.4918 84.652C91.6658 84.652 90.9798 84.848 90.4478 85.24C89.9018 85.632 89.5938 86.066 89.4958 86.556Z" fill="#2A3C3C"/>
<path d="M75.7977 85.1C75.7977 83.588 76.1477 82.37 76.8617 81.46C77.5617 80.55 78.5977 80.088 79.9557 80.088C82.7417 80.088 84.1277 81.922 84.1277 85.1C84.1277 86.626 83.7777 87.83 83.0917 88.74C82.3917 89.65 81.3557 90.112 79.9837 90.112C78.6677 90.112 77.6457 89.65 76.9037 88.726C76.1617 87.802 75.7977 86.598 75.7977 85.1ZM77.0857 85.1C77.0857 87.494 78.1777 88.922 79.9837 88.922C81.8877 88.922 82.8397 87.648 82.8397 85.1C82.8397 82.552 81.8737 81.278 79.9557 81.278C78.0097 81.278 77.0857 82.678 77.0857 85.1ZM86.1113 90C85.5933 90.056 85.2013 89.762 85.2013 89.258C85.2013 88.768 85.5093 88.46 86.0553 88.46C86.6713 88.46 87.0773 88.88 87.0773 89.664C87.0773 91.064 86.3073 91.778 85.2853 92.016L84.9913 91.358C85.2993 91.274 85.5793 91.106 85.8313 90.84C86.0693 90.574 86.1673 90.294 86.1113 90ZM88.0958 85.366C88.0958 83.672 88.5158 82.37 89.3418 81.446C90.1678 80.536 91.2038 80.074 92.4498 80.074C94.0878 80.074 95.3758 80.816 95.9218 81.992L94.9698 82.636C94.3958 81.726 93.5418 81.278 92.3938 81.278C91.5258 81.278 90.7978 81.614 90.2098 82.286C89.6218 82.972 89.3278 83.896 89.3418 85.086C89.8878 84.064 91.1618 83.448 92.5618 83.448C93.6958 83.448 94.6058 83.742 95.2638 84.344C95.9218 84.946 96.2578 85.744 96.2578 86.724C96.2578 87.718 95.8938 88.544 95.1518 89.174C94.4098 89.804 93.4858 90.126 92.3798 90.126C89.7338 90.126 88.0958 88.404 88.0958 85.366ZM89.4958 86.556C89.7618 87.942 90.8118 88.922 92.3658 88.922C93.1218 88.922 93.7518 88.726 94.2418 88.32C94.7318 87.928 94.9698 87.41 94.9698 86.78C94.9698 85.394 93.9898 84.652 92.4918 84.652C91.6658 84.652 90.9798 84.848 90.4478 85.24C89.9018 85.632 89.5938 86.066 89.4958 86.556Z" fill="#1A3341"/>
<path d="M69.8308 190.8C69.8308 189.588 70.2388 188.556 71.0668 187.728C71.8948 186.9 72.9028 186.492 74.1028 186.492C75.2908 186.492 76.2988 186.9 77.1268 187.716C77.9548 188.532 78.3628 189.564 78.3628 190.8C78.3628 192.024 77.9548 193.044 77.1268 193.872C76.2988 194.7 75.2908 195.108 74.1028 195.108C72.9028 195.108 71.8948 194.7 71.0668 193.884C70.2388 193.068 69.8308 192.036 69.8308 190.8ZM70.9708 190.8C70.9708 191.736 71.2828 192.516 71.8948 193.128C72.5068 193.752 73.2388 194.064 74.1028 194.064C74.9908 194.064 75.7348 193.752 76.3348 193.14C76.9228 192.528 77.2228 191.748 77.2228 190.8C77.2228 189.852 76.9228 189.072 76.3108 188.46C75.6988 187.848 74.9548 187.536 74.1028 187.536C73.2268 187.536 72.4948 187.848 71.8828 188.46C71.2708 189.072 70.9708 189.852 70.9708 190.8ZM85.059 191.22H80.679V190.2H85.047C84.855 188.556 83.691 187.512 81.879 187.512C80.919 187.512 79.815 188.016 79.191 188.796L78.459 188.1C79.227 187.08 80.607 186.492 81.951 186.492C83.259 186.492 84.291 186.876 85.047 187.644C85.803 188.412 86.175 189.456 86.175 190.764C86.175 192.048 85.791 193.092 85.023 193.896C84.255 194.7 83.199 195.108 81.855 195.108C80.547 195.108 79.215 194.592 78.435 193.5L79.179 192.876C79.743 193.644 80.847 194.088 81.915 194.088C82.803 194.088 83.535 193.824 84.099 193.296C84.663 192.768 84.987 192.072 85.059 191.22ZM93.9065 192.936L94.5305 193.632C93.8945 194.532 92.6225 195.108 91.2665 195.108C89.9465 195.108 88.8905 194.712 88.1105 193.932C87.3305 193.152 86.9345 192.108 86.9345 190.8C86.9345 189.564 87.3305 188.544 88.1105 187.716C88.8905 186.9 89.9105 186.492 91.1825 186.492C92.6225 186.492 93.7985 187.068 94.4105 187.884L93.7025 188.568C93.0185 187.884 92.1785 187.536 91.2065 187.536C90.2345 187.536 89.4785 187.836 88.9145 188.436C88.3505 189.036 88.0745 189.828 88.0745 190.8C88.0745 191.784 88.3745 192.576 88.9745 193.164C89.5745 193.764 90.3665 194.064 91.3385 194.064C92.3825 194.064 93.2345 193.692 93.9065 192.936ZM96.6242 191.904V195H95.5322V186.6H98.7962C101.088 186.6 102.24 187.476 102.24 189.24C102.24 189.996 101.964 190.632 101.412 191.136C100.848 191.652 99.9722 191.904 98.7842 191.904H96.6242ZM98.8442 187.62H96.6242V190.896H98.7602C100.344 190.896 101.112 190.272 101.112 189.228C101.112 188.16 100.356 187.62 98.8442 187.62Z" fill="#76848D"/>
<path d="M58 102C58 100.895 58.8954 100 60 100H112C113.105 100 114 100.895 114 102V180H58V102Z" fill="url(#paint9_linear_4012_9225)"/>
<path opacity="0.2" d="M70 100H102V180H70V100Z" fill="url(#paint10_linear_4012_9225)"/>
<path opacity="0.04" d="M102 100H112C113.105 100 114 100.895 114 102V180H102V100Z" fill="#0D262C"/>
<path opacity="0.5" d="M58 102C58 100.895 58.8954 100 60 100H70V180H58V102Z" fill="url(#paint11_linear_4012_9225)"/>
<path d="M392.056 196H385.9V187.6H391.948V188.62H386.992V191.236H391.612V192.232H386.992V194.98H392.056V196ZM396.049 196H393.265V189.76H395.857C397.597 189.76 398.413 190.204 398.413 191.356C398.413 191.932 398.149 192.388 397.609 192.712C398.281 192.916 398.617 193.408 398.617 194.212C398.617 195.376 397.693 196 396.049 196ZM396.061 193.276H394.273V195.064H395.941C397.009 195.064 397.549 194.764 397.549 194.164C397.549 193.576 397.057 193.276 396.061 193.276ZM395.821 190.696H394.273V192.364H396.169C396.901 192.364 397.345 192.064 397.345 191.5C397.345 190.864 396.829 190.696 395.821 190.696ZM400.633 198.4H399.625V189.76H400.633V190.54C401.053 189.928 401.725 189.616 402.649 189.616C403.561 189.616 404.293 189.904 404.833 190.492C405.373 191.08 405.637 191.836 405.637 192.772C405.637 193.732 405.349 194.524 404.773 195.16C404.185 195.796 403.441 196.108 402.529 196.108C401.689 196.108 401.053 195.892 400.633 195.472V198.4ZM402.541 190.564C401.629 190.564 400.921 191.152 400.633 191.86V194.188C400.993 194.836 401.593 195.16 402.445 195.16C403.057 195.16 403.573 194.944 403.969 194.512C404.365 194.08 404.569 193.528 404.569 192.844C404.569 191.452 403.789 190.564 402.541 190.564ZM406.282 192.868C406.282 191.92 406.594 191.14 407.206 190.528C407.818 189.916 408.61 189.616 409.582 189.616C410.566 189.616 411.37 189.916 411.982 190.528C412.594 191.14 412.906 191.92 412.906 192.868C412.906 193.816 412.594 194.584 411.982 195.196C411.358 195.808 410.554 196.108 409.582 196.108C408.61 196.108 407.818 195.808 407.206 195.196C406.594 194.584 406.282 193.816 406.282 192.868ZM407.35 192.868C407.35 193.528 407.554 194.08 407.974 194.512C408.394 194.944 408.922 195.16 409.582 195.16C410.242 195.16 410.794 194.944 411.214 194.524C411.634 194.104 411.838 193.552 411.838 192.868C411.838 192.184 411.622 191.632 411.202 191.2C410.77 190.78 410.23 190.564 409.582 190.564C408.934 190.564 408.406 190.78 407.986 191.2C407.566 191.62 407.35 192.184 407.35 192.868ZM419.449 196H418.441V190.708H414.913V196H413.905V189.76H419.449V196ZM425.617 194.212L426.265 194.812C425.689 195.676 424.861 196.108 423.769 196.108C422.773 196.108 421.969 195.808 421.357 195.22C420.745 194.632 420.445 193.852 420.445 192.868C420.445 191.92 420.721 191.14 421.285 190.528C421.837 189.916 422.617 189.616 423.625 189.616C424.453 189.616 425.149 189.88 425.689 190.396C426.229 190.912 426.505 191.596 426.505 192.448C426.505 192.724 426.481 192.976 426.445 193.204H421.525C421.585 194.44 422.497 195.16 423.805 195.16C424.537 195.16 425.233 194.776 425.617 194.212ZM423.553 190.54C422.413 190.54 421.669 191.236 421.513 192.292H425.437C425.377 191.188 424.669 190.54 423.553 190.54ZM432.233 191.332L428.429 196H427.505V189.76H428.513V194.44L432.305 189.76H433.241V196H432.233V191.332ZM428.465 187.072H429.413C429.425 187.66 429.809 188.056 430.481 188.056C431.117 188.056 431.513 187.66 431.513 187.072H432.461C432.449 188.164 431.597 188.86 430.481 188.86C429.281 188.86 428.477 188.176 428.465 187.072ZM439.416 194.2L440.136 194.716C439.668 195.592 438.612 196.108 437.568 196.108C436.572 196.108 435.768 195.808 435.156 195.22C434.544 194.632 434.232 193.852 434.232 192.868C434.232 191.932 434.532 191.152 435.144 190.54C435.756 189.928 436.536 189.616 437.508 189.616C438.624 189.616 439.62 190.12 440.04 190.888L439.26 191.416C438.84 190.852 438.264 190.564 437.532 190.564C436.884 190.564 436.356 190.78 435.936 191.212C435.516 191.644 435.3 192.196 435.3 192.868C435.3 193.552 435.516 194.104 435.96 194.524C436.392 194.944 436.956 195.16 437.664 195.16C438.408 195.16 438.996 194.836 439.416 194.2ZM441.855 196H440.847V189.76H441.855V192.556L445.011 189.76H446.367L443.139 192.628L446.523 196H445.179L442.371 193.252L441.855 193.732V196ZM447.453 191.26L446.937 190.504C447.513 189.964 448.509 189.616 449.433 189.616C451.101 189.616 451.989 190.528 451.989 192.148V196H450.981V195.076C450.585 195.652 449.805 196.084 448.797 196.084C447.441 196.084 446.529 195.328 446.529 194.176C446.529 192.868 447.645 192.244 449.517 192.244C450.105 192.244 450.585 192.304 450.981 192.424C450.981 191.212 450.549 190.564 449.313 190.564C448.689 190.564 448.065 190.792 447.453 191.26ZM449.037 195.172C449.505 195.172 449.925 195.04 450.273 194.788C450.621 194.536 450.849 194.248 450.981 193.948V193.312C450.633 193.192 450.189 193.132 449.649 193.132C448.281 193.132 447.597 193.468 447.597 194.14C447.597 194.776 448.173 195.172 449.037 195.172ZM455.747 189.76H458.255V196H457.247V193.792H455.723L453.875 196H452.651L454.643 193.636C453.683 193.456 453.047 192.724 453.047 191.764C453.047 190.576 453.875 189.76 455.747 189.76ZM454.115 191.788C454.115 192.4 454.691 192.832 455.603 192.832H457.247V190.72H455.627C454.619 190.72 454.115 191.08 454.115 191.788ZM397.002 210H395.994V203.76H397.002V206.556L400.158 203.76H401.514L398.286 206.628L401.67 210H400.326L397.518 207.252L397.002 207.732V210ZM401.362 206.868C401.362 205.92 401.674 205.14 402.286 204.528C402.898 203.916 403.69 203.616 404.662 203.616C405.646 203.616 406.45 203.916 407.062 204.528C407.674 205.14 407.986 205.92 407.986 206.868C407.986 207.816 407.674 208.584 407.062 209.196C406.438 209.808 405.634 210.108 404.662 210.108C403.69 210.108 402.898 209.808 402.286 209.196C401.674 208.584 401.362 207.816 401.362 206.868ZM402.43 206.868C402.43 207.528 402.634 208.08 403.054 208.512C403.474 208.944 404.002 209.16 404.662 209.16C405.322 209.16 405.874 208.944 406.294 208.524C406.714 208.104 406.918 207.552 406.918 206.868C406.918 206.184 406.702 205.632 406.282 205.2C405.85 204.78 405.31 204.564 404.662 204.564C404.014 204.564 403.486 204.78 403.066 205.2C402.646 205.62 402.43 206.184 402.43 206.868ZM409.992 210H408.984V203.76H409.908L412.212 206.808L414.456 203.76H415.32V210H414.312V205.536L412.2 208.416L409.992 205.536V210ZM421.397 205.332L417.593 210H416.669V203.76H417.677V208.44L421.469 203.76H422.405V210H421.397V205.332ZM428.58 208.2L429.3 208.716C428.832 209.592 427.776 210.108 426.732 210.108C425.736 210.108 424.932 209.808 424.32 209.22C423.708 208.632 423.396 207.852 423.396 206.868C423.396 205.932 423.696 205.152 424.308 204.54C424.92 203.928 425.7 203.616 426.672 203.616C427.788 203.616 428.784 204.12 429.204 204.888L428.424 205.416C428.004 204.852 427.428 204.564 426.696 204.564C426.048 204.564 425.52 204.78 425.1 205.212C424.68 205.644 424.464 206.196 424.464 206.868C424.464 207.552 424.68 208.104 425.124 208.524C425.556 208.944 426.12 209.16 426.828 209.16C427.572 209.16 428.16 208.836 428.58 208.2ZM434.507 208.2L435.227 208.716C434.759 209.592 433.703 210.108 432.659 210.108C431.663 210.108 430.859 209.808 430.247 209.22C429.635 208.632 429.323 207.852 429.323 206.868C429.323 205.932 429.623 205.152 430.235 204.54C430.847 203.928 431.627 203.616 432.599 203.616C433.715 203.616 434.711 204.12 435.131 204.888L434.351 205.416C433.931 204.852 433.355 204.564 432.623 204.564C431.975 204.564 431.447 204.78 431.027 205.212C430.607 205.644 430.391 206.196 430.391 206.868C430.391 207.552 430.607 208.104 431.051 208.524C431.483 208.944 432.047 209.16 432.755 209.16C433.499 209.16 434.087 208.836 434.507 208.2ZM440.666 205.332L436.862 210H435.938V203.76H436.946V208.44L440.738 203.76H441.674V210H440.666V205.332ZM445.497 203.76H448.005V210H446.997V207.792H445.473L443.625 210H442.401L444.393 207.636C443.433 207.456 442.797 206.724 442.797 205.764C442.797 204.576 443.625 203.76 445.497 203.76ZM443.865 205.788C443.865 206.4 444.441 206.832 445.353 206.832H446.997V204.72H445.377C444.369 204.72 443.865 205.08 443.865 205.788Z" fill="#76848D"/>
<path d="M169.886 196H166.55V187.6H169.946C172.094 187.6 172.91 188.38 172.91 189.688C172.91 190.624 172.514 191.26 171.722 191.608C172.646 191.8 173.21 192.508 173.21 193.6C173.21 195.244 171.986 196 169.886 196ZM169.994 192.208H167.642V194.98H169.874C171.398 194.98 172.082 194.536 172.082 193.54C172.082 192.652 171.386 192.208 169.994 192.208ZM169.85 188.62H167.642V191.212H170.03C171.098 191.212 171.794 190.732 171.794 189.916C171.794 189.016 171.278 188.62 169.85 188.62ZM179.184 194.2L179.904 194.716C179.436 195.592 178.38 196.108 177.336 196.108C176.34 196.108 175.536 195.808 174.924 195.22C174.312 194.632 174 193.852 174 192.868C174 191.932 174.3 191.152 174.912 190.54C175.524 189.928 176.304 189.616 177.276 189.616C178.392 189.616 179.388 190.12 179.808 190.888L179.028 191.416C178.608 190.852 178.032 190.564 177.3 190.564C176.652 190.564 176.124 190.78 175.704 191.212C175.284 191.644 175.068 192.196 175.068 192.868C175.068 193.552 175.284 194.104 175.728 194.524C176.16 194.944 176.724 195.16 177.432 195.16C178.176 195.16 178.764 194.836 179.184 194.2ZM185.099 194.212L185.747 194.812C185.171 195.676 184.343 196.108 183.251 196.108C182.255 196.108 181.451 195.808 180.839 195.22C180.227 194.632 179.927 193.852 179.927 192.868C179.927 191.92 180.203 191.14 180.767 190.528C181.319 189.916 182.099 189.616 183.107 189.616C183.935 189.616 184.631 189.88 185.171 190.396C185.711 190.912 185.987 191.596 185.987 192.448C185.987 192.724 185.963 192.976 185.927 193.204H181.007C181.067 194.44 181.979 195.16 183.287 195.16C184.019 195.16 184.715 194.776 185.099 194.212ZM183.035 190.54C181.895 190.54 181.151 191.236 180.995 192.292H184.919C184.859 191.188 184.151 190.54 183.035 190.54ZM187.995 196H186.987V189.76H187.911L190.215 192.808L192.459 189.76H193.323V196H192.315V191.536L190.203 194.416L187.995 191.536V196ZM199.399 191.332L195.595 196H194.671V189.76H195.679V194.44L199.471 189.76H200.407V196H199.399V191.332ZM202.755 198.4H201.747V189.76H202.755V190.54C203.175 189.928 203.847 189.616 204.771 189.616C205.683 189.616 206.415 189.904 206.955 190.492C207.495 191.08 207.759 191.836 207.759 192.772C207.759 193.732 207.471 194.524 206.895 195.16C206.307 195.796 205.563 196.108 204.651 196.108C203.811 196.108 203.175 195.892 202.755 195.472V198.4ZM204.663 190.564C203.751 190.564 203.043 191.152 202.755 191.86V194.188C203.115 194.836 203.715 195.16 204.567 195.16C205.179 195.16 205.695 194.944 206.091 194.512C206.487 194.08 206.691 193.528 206.691 192.844C206.691 191.452 205.911 190.564 204.663 190.564ZM214.368 196H213.36V193.3H209.76V196H208.752V189.76H209.76V192.352H213.36V189.76H214.368V196ZM217.966 196H215.71V189.76H216.718V191.704H218.062C219.898 191.704 220.63 192.556 220.63 193.84C220.63 195.1 219.826 196 217.966 196ZM217.954 192.664H216.718V195.04H217.942C219.094 195.04 219.562 194.632 219.562 193.852C219.562 193.06 219.022 192.664 217.954 192.664ZM222.538 196H221.518V189.76H222.538V196ZM228.603 191.332L224.799 196H223.875V189.76H224.883V194.44L228.675 189.76H229.611V196H228.603V191.332ZM224.835 187.072H225.783C225.795 187.66 226.179 188.056 226.851 188.056C227.487 188.056 227.883 187.66 227.883 187.072H228.831C228.819 188.164 227.967 188.86 226.851 188.86C225.651 188.86 224.847 188.176 224.835 187.072ZM190.717 201.084L190.897 202.008C190.549 202.14 189.997 202.248 189.217 202.332C188.437 202.416 187.897 202.536 187.597 202.68C186.697 203.124 186.169 203.952 186.037 205.176L186.085 205.188C186.601 204.372 187.441 203.964 188.593 203.964C189.469 203.964 190.177 204.228 190.717 204.744C191.257 205.272 191.521 206.004 191.521 206.928C191.521 207.828 191.221 208.584 190.633 209.196C190.045 209.808 189.277 210.12 188.353 210.12C186.325 210.12 185.065 208.764 185.065 206.376C185.065 205.176 185.221 204.216 185.533 203.484C185.833 202.764 186.385 202.2 187.165 201.804C187.585 201.6 188.209 201.444 189.037 201.36C189.865 201.276 190.429 201.18 190.717 201.084ZM186.133 206.556V206.64C186.133 207.408 186.337 208.02 186.757 208.476C187.165 208.932 187.693 209.16 188.341 209.16C188.977 209.16 189.481 208.956 189.877 208.536C190.261 208.128 190.453 207.612 190.453 206.988C190.453 205.728 189.709 204.924 188.377 204.924C187.225 204.924 186.385 205.656 186.133 206.556ZM192.991 205.26L192.475 204.504C193.051 203.964 194.047 203.616 194.971 203.616C196.639 203.616 197.527 204.528 197.527 206.148V210H196.519V209.076C196.123 209.652 195.343 210.084 194.335 210.084C192.979 210.084 192.067 209.328 192.067 208.176C192.067 206.868 193.183 206.244 195.055 206.244C195.643 206.244 196.123 206.304 196.519 206.424C196.519 205.212 196.087 204.564 194.851 204.564C194.227 204.564 193.603 204.792 192.991 205.26ZM194.575 209.172C195.043 209.172 195.463 209.04 195.811 208.788C196.159 208.536 196.387 208.248 196.519 207.948V207.312C196.171 207.192 195.727 207.132 195.187 207.132C193.819 207.132 193.135 207.468 193.135 208.14C193.135 208.776 193.711 209.172 194.575 209.172ZM204.417 210H203.409V207.3H199.809V210H198.801V203.76H199.809V206.352H203.409V203.76H204.417V210ZM206.767 210H205.759V203.76H206.767V206.556L209.923 203.76H211.279L208.051 206.628L211.435 210H210.091L207.283 207.252L206.767 207.732V210Z" fill="#76848D"/>
<line x1="-4.37114e-08" y1="180.5" x2="540" y2="180.5" stroke="#ABBEC9"/>
<defs>
<linearGradient id="paint0_linear_4012_9225" x1="198" y1="84" x2="198" y2="181" gradientUnits="userSpaceOnUse">
<stop offset="0" stop-color="#6AA2E2"/>
<stop offset="1" stop-color="#9DBCFA"/>
</linearGradient>
<linearGradient id="paint1_linear_4012_9225" x1="198" y1="84" x2="198" y2="181" gradientUnits="userSpaceOnUse">
<stop offset="0" stop-color="white" stop-opacity="0"/>
<stop offset="0.739583" stop-color="white"/>
</linearGradient>
<linearGradient id="paint2_linear_4012_9225" x1="176" y1="-105.15" x2="176" y2="181" gradientUnits="userSpaceOnUse">
<stop offset="0" stop-color="white" stop-opacity="0.05"/>
<stop offset="0.75" stop-color="white" stop-opacity="0.8"/>
</linearGradient>
<linearGradient id="paint3_linear_4012_9225" x1="310" y1="60" x2="310" y2="181" gradientUnits="userSpaceOnUse">
<stop offset="0" stop-color="#6D73F9"/>
<stop offset="1" stop-color="#9BB8F1"/>
</linearGradient>
<linearGradient id="paint4_linear_4012_9225" x1="310" y1="60" x2="310" y2="181" gradientUnits="userSpaceOnUse">
<stop offset="0" stop-color="white" stop-opacity="0"/>
<stop offset="0.739583" stop-color="white"/>
</linearGradient>
<linearGradient id="paint5_linear_4012_9225" x1="288" y1="-175.95" x2="288" y2="181" gradientUnits="userSpaceOnUse">
<stop offset="0" stop-color="white" stop-opacity="0.05"/>
<stop offset="0.75" stop-color="white" stop-opacity="0.8"/>
</linearGradient>
<linearGradient id="paint6_linear_4012_9225" x1="422" y1="20" x2="422" y2="180" gradientUnits="userSpaceOnUse">
<stop offset="0" stop-color="#6D73F9"/>
<stop offset="1" stop-color="#9BB8F1"/>
</linearGradient>
<linearGradient id="paint7_linear_4012_9225" x1="422" y1="20" x2="422" y2="180" gradientUnits="userSpaceOnUse">
<stop offset="0" stop-color="white" stop-opacity="0"/>
<stop offset="0.739583" stop-color="white"/>
</linearGradient>
<linearGradient id="paint8_linear_4012_9225" x1="400" y1="-292" x2="400" y2="180" gradientUnits="userSpaceOnUse">
<stop offset="0" stop-color="white" stop-opacity="0.05"/>
<stop offset="0.75" stop-color="white" stop-opacity="0.8"/>
</linearGradient>
<linearGradient id="paint9_linear_4012_9225" x1="86" y1="100" x2="86" y2="180" gradientUnits="userSpaceOnUse">
<stop offset="0" stop-color="#CDE3E9"/>
<stop offset="1" stop-color="#D3E8ED"/>
</linearGradient>
<linearGradient id="paint10_linear_4012_9225" x1="86" y1="100" x2="86" y2="180" gradientUnits="userSpaceOnUse">
<stop offset="0" stop-color="white" stop-opacity="0"/>
<stop offset="0.739583" stop-color="white"/>
</linearGradient>
<linearGradient id="paint11_linear_4012_9225" x1="64" y1="-56" x2="64" y2="180" gradientUnits="userSpaceOnUse">
<stop offset="0" stop-color="white" stop-opacity="0.05"/>
<stop offset="0.75" stop-color="white" stop-opacity="0.8"/>
</linearGradient>
</defs>
</svg>
