<svg width="338" height="159" viewBox="0 0 338 159" fill="none" xmlns="http://www.w3.org/2000/svg">
<path d="M37.3675 23.0025C26.5201 19.7656 20.038 18 8 18V136H328V71.2618C310.933 71.2618 305.071 72.711 299.165 74.1711L299.029 74.2045C287.854 76.9667 280.583 85.5935 269.794 85.5935C262.603 85.5935 257.095 87.0471 240.823 84.5037C232.754 83.2424 228.389 80.9726 211.853 83.2424C205.792 84.0744 191.742 93.6259 182.618 93.6259C169.654 93.6259 168.86 88.9177 153.515 82.4439C146.453 79.4648 130.37 71.6789 124.412 67.7307C118.194 63.611 109.993 56.8429 95.3088 53.606C86.0939 51.5746 81.9479 46.2494 66.2059 36.5387C60.2773 32.8815 48.0595 26.193 37.3675 23.0025Z" fill="url(#paint0_linear_6001_19543)" fill-opacity="0.3"/>
<path d="M7.08712 146.2C7.08712 145.336 7.28712 144.64 7.69512 144.12C8.09513 143.6 8.68713 143.336 9.46312 143.336C11.0551 143.336 11.8471 144.384 11.8471 146.2C11.8471 147.072 11.6471 147.76 11.2551 148.28C10.8551 148.8 10.2631 149.064 9.47913 149.064C8.72713 149.064 8.14313 148.8 7.71913 148.272C7.29513 147.744 7.08712 147.056 7.08712 146.2ZM7.82313 146.2C7.82313 147.568 8.44713 148.384 9.47913 148.384C10.5671 148.384 11.1111 147.656 11.1111 146.2C11.1111 144.744 10.5591 144.016 9.46312 144.016C8.35113 144.016 7.82313 144.816 7.82313 146.2ZM12.3806 144.888L12.1246 144.288L14.0446 143.368H14.5006V149H13.8126V144.224L12.3806 144.888ZM2.01806 153.248L1.43406 153.04C1.63406 152.048 2.38606 151.336 3.57806 151.336C4.73006 151.336 5.43406 152 5.43406 153.016C5.43406 153.552 5.20206 154.088 4.91406 154.472C4.77006 154.672 4.58606 154.864 4.37006 155.064C3.93006 155.456 3.61806 155.664 3.16206 155.952L2.54606 156.336H5.64206V157H1.28206V156.456L2.49806 155.648C2.71406 155.512 2.86606 155.408 2.95406 155.344C3.04206 155.288 3.18606 155.184 3.37806 155.048C3.57006 154.912 3.71406 154.792 3.81006 154.704C3.89806 154.616 4.01806 154.504 4.15406 154.36C4.52206 153.96 4.65806 153.592 4.69806 153.088C4.69806 152.36 4.22606 152.032 3.53006 152.032C3.09806 152.032 2.75406 152.152 2.50606 152.392C2.25806 152.632 2.09006 152.92 2.01806 153.248ZM6.1965 154.2C6.1965 153.336 6.3965 152.64 6.8045 152.12C7.2045 151.6 7.7965 151.336 8.5725 151.336C10.1645 151.336 10.9565 152.384 10.9565 154.2C10.9565 155.072 10.7565 155.76 10.3645 156.28C9.9645 156.8 9.3725 157.064 8.5885 157.064C7.8365 157.064 7.2525 156.8 6.8285 156.272C6.4045 155.744 6.1965 155.056 6.1965 154.2ZM6.9325 154.2C6.9325 155.568 7.5565 156.384 8.5885 156.384C9.6765 156.384 10.2205 155.656 10.2205 154.2C10.2205 152.744 9.6685 152.016 8.5725 152.016C7.4605 152.016 6.9325 152.816 6.9325 154.2ZM12.194 153.248L11.61 153.04C11.81 152.048 12.562 151.336 13.754 151.336C14.906 151.336 15.61 152 15.61 153.016C15.61 153.552 15.378 154.088 15.09 154.472C14.946 154.672 14.762 154.864 14.546 155.064C14.106 155.456 13.794 155.664 13.338 155.952L12.722 156.336H15.818V157H11.458V156.456L12.674 155.648C12.89 155.512 13.042 155.408 13.13 155.344C13.218 155.288 13.362 155.184 13.554 155.048C13.746 154.912 13.89 154.792 13.986 154.704C14.074 154.616 14.194 154.504 14.33 154.36C14.698 153.96 14.834 153.592 14.874 153.088C14.874 152.36 14.402 152.032 13.706 152.032C13.274 152.032 12.93 152.152 12.682 152.392C12.434 152.632 12.266 152.92 12.194 153.248ZM16.9244 153.032L16.3244 152.76C16.6204 151.896 17.3964 151.328 18.5564 151.328C19.1084 151.328 19.5644 151.456 19.9164 151.712C20.2684 151.968 20.4444 152.312 20.4444 152.736C20.4444 153.384 20.1004 153.864 19.4604 154.048C20.0764 154.088 20.5724 154.552 20.5724 155.384C20.5724 155.912 20.3804 156.328 19.9964 156.624C19.6124 156.92 19.1244 157.072 18.5244 157.072C17.3004 157.072 16.4524 156.488 16.1724 155.568L16.8204 155.288C17.1644 156.016 17.7484 156.384 18.5724 156.384C19.3484 156.384 19.8364 156.024 19.8364 155.392C19.8364 154.776 19.3564 154.464 18.3964 154.464H17.7724V153.8H18.2684C19.1404 153.8 19.7084 153.408 19.7084 152.872C19.7084 152.32 19.2524 152.008 18.5244 152.008C17.6684 152.008 17.1484 152.448 16.9244 153.032Z" fill="#76848D"/>
<path d="M150.005 146.2C150.005 145.336 150.205 144.64 150.613 144.12C151.013 143.6 151.605 143.336 152.381 143.336C153.973 143.336 154.765 144.384 154.765 146.2C154.765 147.072 154.565 147.76 154.173 148.28C153.773 148.8 153.181 149.064 152.397 149.064C151.645 149.064 151.061 148.8 150.637 148.272C150.213 147.744 150.005 147.056 150.005 146.2ZM150.741 146.2C150.741 147.568 151.365 148.384 152.397 148.384C153.485 148.384 154.029 147.656 154.029 146.2C154.029 144.744 153.477 144.016 152.381 144.016C151.269 144.016 150.741 144.816 150.741 146.2ZM155.363 146.352C155.363 145.384 155.603 144.64 156.075 144.112C156.547 143.592 157.139 143.328 157.851 143.328C158.787 143.328 159.523 143.752 159.835 144.424L159.291 144.792C158.963 144.272 158.475 144.016 157.819 144.016C157.323 144.016 156.907 144.208 156.571 144.592C156.235 144.984 156.067 145.512 156.075 146.192C156.387 145.608 157.115 145.256 157.915 145.256C158.563 145.256 159.083 145.424 159.459 145.768C159.835 146.112 160.027 146.568 160.027 147.128C160.027 147.696 159.819 148.168 159.395 148.528C158.971 148.888 158.443 149.072 157.811 149.072C156.299 149.072 155.363 148.088 155.363 146.352ZM156.163 147.032C156.315 147.824 156.915 148.384 157.803 148.384C158.235 148.384 158.595 148.272 158.875 148.04C159.155 147.816 159.291 147.52 159.291 147.16C159.291 146.368 158.731 145.944 157.875 145.944C157.403 145.944 157.011 146.056 156.707 146.28C156.395 146.504 156.219 146.752 156.163 147.032Z" fill="#76848D"/>
<path d="M35.216 146.2C35.216 145.336 35.416 144.64 35.824 144.12C36.224 143.6 36.816 143.336 37.592 143.336C39.184 143.336 39.976 144.384 39.976 146.2C39.976 147.072 39.776 147.76 39.384 148.28C38.984 148.8 38.392 149.064 37.608 149.064C36.856 149.064 36.272 148.8 35.848 148.272C35.424 147.744 35.216 147.056 35.216 146.2ZM35.952 146.2C35.952 147.568 36.576 148.384 37.608 148.384C38.696 148.384 39.24 147.656 39.24 146.2C39.24 144.744 38.688 144.016 37.592 144.016C36.48 144.016 35.952 144.816 35.952 146.2ZM41.2135 145.248L40.6295 145.04C40.8295 144.048 41.5815 143.336 42.7735 143.336C43.9255 143.336 44.6295 144 44.6295 145.016C44.6295 145.552 44.3975 146.088 44.1095 146.472C43.9655 146.672 43.7815 146.864 43.5655 147.064C43.1255 147.456 42.8135 147.664 42.3575 147.952L41.7415 148.336H44.8375V149H40.4775V148.456L41.6935 147.648C41.9095 147.512 42.0615 147.408 42.1495 147.344C42.2375 147.288 42.3815 147.184 42.5735 147.048C42.7655 146.912 42.9095 146.792 43.0055 146.704C43.0935 146.616 43.2135 146.504 43.3495 146.36C43.7175 145.96 43.8535 145.592 43.8935 145.088C43.8935 144.36 43.4215 144.032 42.7255 144.032C42.2935 144.032 41.9495 144.152 41.7015 144.392C41.4535 144.632 41.2855 144.92 41.2135 145.248Z" fill="#76848D"/>
<path d="M179.38 146.2C179.38 145.336 179.58 144.64 179.988 144.12C180.388 143.6 180.98 143.336 181.756 143.336C183.348 143.336 184.14 144.384 184.14 146.2C184.14 147.072 183.94 147.76 183.548 148.28C183.148 148.8 182.556 149.064 181.772 149.064C181.02 149.064 180.436 148.8 180.012 148.272C179.588 147.744 179.38 147.056 179.38 146.2ZM180.116 146.2C180.116 147.568 180.74 148.384 181.772 148.384C182.86 148.384 183.404 147.656 183.404 146.2C183.404 144.744 182.852 144.016 181.756 144.016C180.644 144.016 180.116 144.816 180.116 146.2ZM187.946 144.08H184.554V143.4H188.802V143.856L186.018 149H185.258L187.946 144.08Z" fill="#76848D"/>
<path d="M63.1965 146.2C63.1965 145.336 63.3965 144.64 63.8045 144.12C64.2045 143.6 64.7965 143.336 65.5725 143.336C67.1645 143.336 67.9565 144.384 67.9565 146.2C67.9565 147.072 67.7565 147.76 67.3645 148.28C66.9645 148.8 66.3725 149.064 65.5885 149.064C64.8365 149.064 64.2525 148.8 63.8285 148.272C63.4045 147.744 63.1965 147.056 63.1965 146.2ZM63.9325 146.2C63.9325 147.568 64.5565 148.384 65.5885 148.384C66.6765 148.384 67.2205 147.656 67.2205 146.2C67.2205 144.744 66.6685 144.016 65.5725 144.016C64.4605 144.016 63.9325 144.816 63.9325 146.2ZM69.106 145.032L68.506 144.76C68.802 143.896 69.578 143.328 70.738 143.328C71.29 143.328 71.746 143.456 72.098 143.712C72.45 143.968 72.626 144.312 72.626 144.736C72.626 145.384 72.282 145.864 71.642 146.048C72.258 146.088 72.754 146.552 72.754 147.384C72.754 147.912 72.562 148.328 72.178 148.624C71.794 148.92 71.306 149.072 70.706 149.072C69.482 149.072 68.634 148.488 68.354 147.568L69.002 147.288C69.346 148.016 69.93 148.384 70.754 148.384C71.53 148.384 72.018 148.024 72.018 147.392C72.018 146.776 71.538 146.464 70.578 146.464H69.954V145.8H70.45C71.322 145.8 71.89 145.408 71.89 144.872C71.89 144.32 71.434 144.008 70.706 144.008C69.85 144.008 69.33 144.448 69.106 145.032Z" fill="#76848D"/>
<path d="M206.997 146.2C206.997 145.336 207.197 144.64 207.605 144.12C208.005 143.6 208.597 143.336 209.373 143.336C210.965 143.336 211.757 144.384 211.757 146.2C211.757 147.072 211.557 147.76 211.165 148.28C210.765 148.8 210.173 149.064 209.389 149.064C208.637 149.064 208.053 148.8 207.629 148.272C207.205 147.744 206.997 147.056 206.997 146.2ZM207.733 146.2C207.733 147.568 208.357 148.384 209.389 148.384C210.477 148.384 211.021 147.656 211.021 146.2C211.021 144.744 210.469 144.016 209.373 144.016C208.261 144.016 207.733 144.816 207.733 146.2ZM214.563 145.808H214.811C215.171 145.808 215.467 145.72 215.715 145.552C215.955 145.384 216.075 145.16 216.075 144.896C216.075 144.296 215.603 143.992 214.667 143.992C213.771 143.992 213.283 144.32 213.283 144.896C213.283 145.416 213.819 145.808 214.563 145.808ZM214.795 146.44H214.595C214.163 146.44 213.803 146.536 213.523 146.72C213.243 146.904 213.099 147.136 213.099 147.416C213.099 148.024 213.659 148.408 214.675 148.408C215.707 148.408 216.259 148.04 216.259 147.424C216.259 146.808 215.667 146.44 214.795 146.44ZM216.371 148.64C215.963 148.928 215.395 149.072 214.683 149.072C213.971 149.072 213.403 148.928 212.987 148.648C212.571 148.368 212.363 147.984 212.363 147.488C212.363 146.84 212.787 146.328 213.467 146.104C212.851 145.904 212.547 145.416 212.547 144.848C212.547 143.92 213.331 143.328 214.675 143.328C216.027 143.328 216.811 143.92 216.811 144.848C216.811 145.384 216.515 145.792 215.923 146.064C216.635 146.28 216.987 146.744 216.987 147.456C216.987 147.96 216.779 148.36 216.371 148.64Z" fill="#76848D"/>
<path d="M91.9777 146.2C91.9777 145.336 92.1777 144.64 92.5857 144.12C92.9858 143.6 93.5778 143.336 94.3537 143.336C95.9458 143.336 96.7378 144.384 96.7378 146.2C96.7378 147.072 96.5378 147.76 96.1458 148.28C95.7457 148.8 95.1538 149.064 94.3698 149.064C93.6178 149.064 93.0338 148.8 92.6098 148.272C92.1858 147.744 91.9777 147.056 91.9777 146.2ZM92.7138 146.2C92.7138 147.568 93.3378 148.384 94.3698 148.384C95.4578 148.384 96.0017 147.656 96.0017 146.2C96.0017 144.744 95.4498 144.016 94.3537 144.016C93.2418 144.016 92.7138 144.816 92.7138 146.2ZM101.199 149H100.503V147.856H97.0793V147.392L100.583 143.4H101.199V147.208H102.239V147.856H101.199V149ZM100.503 144.52L98.0393 147.208H100.503V144.52Z" fill="#76848D"/>
<path d="M235.997 146.2C235.997 145.336 236.197 144.64 236.605 144.12C237.005 143.6 237.597 143.336 238.373 143.336C239.965 143.336 240.757 144.384 240.757 146.2C240.757 147.072 240.557 147.76 240.165 148.28C239.765 148.8 239.173 149.064 238.389 149.064C237.637 149.064 237.053 148.8 236.629 148.272C236.205 147.744 235.997 147.056 235.997 146.2ZM236.733 146.2C236.733 147.568 237.357 148.384 238.389 148.384C239.477 148.384 240.021 147.656 240.021 146.2C240.021 144.744 239.469 144.016 238.373 144.016C237.261 144.016 236.733 144.816 236.733 146.2ZM246.011 146.096C246.011 147.048 245.787 147.784 245.331 148.296C244.875 148.816 244.267 149.072 243.507 149.072C242.579 149.072 241.851 148.68 241.491 148.08L242.067 147.68C242.387 148.128 242.971 148.384 243.603 148.384C244.123 148.384 244.539 148.176 244.867 147.76C245.195 147.352 245.331 146.84 245.291 146.232C245.027 146.84 244.363 147.288 243.475 147.288C242.851 147.288 242.339 147.112 241.939 146.752C241.531 146.4 241.331 145.936 241.331 145.368C241.331 144.744 241.547 144.248 241.979 143.88C242.411 143.512 242.987 143.328 243.699 143.328C245.139 143.328 246.011 144.336 246.011 146.096ZM245.171 145.344C245.051 144.6 244.539 144.016 243.619 144.016C242.659 144.016 242.067 144.512 242.067 145.344C242.067 146.136 242.667 146.6 243.603 146.6C244.027 146.6 244.387 146.472 244.667 146.216C244.947 145.96 245.115 145.672 245.171 145.344Z" fill="#76848D"/>
<path d="M120.15 146.2C120.15 145.336 120.35 144.64 120.758 144.12C121.158 143.6 121.75 143.336 122.526 143.336C124.118 143.336 124.91 144.384 124.91 146.2C124.91 147.072 124.71 147.76 124.318 148.28C123.918 148.8 123.326 149.064 122.542 149.064C121.79 149.064 121.206 148.8 120.782 148.272C120.358 147.744 120.15 147.056 120.15 146.2ZM120.886 146.2C120.886 147.568 121.51 148.384 122.542 148.384C123.63 148.384 124.174 147.656 124.174 146.2C124.174 144.744 123.622 144.016 122.526 144.016C121.414 144.016 120.886 144.816 120.886 146.2ZM126.323 146.424L125.747 146.272L126.075 143.4H129.595V144.08H126.691L126.483 145.584C126.763 145.376 127.187 145.272 127.755 145.272C128.411 145.272 128.923 145.448 129.299 145.792C129.667 146.144 129.851 146.592 129.851 147.144C129.851 147.696 129.643 148.16 129.235 148.52C128.819 148.888 128.299 149.072 127.683 149.072C126.635 149.072 125.763 148.576 125.403 147.704L126.043 147.432C126.275 147.968 126.875 148.392 127.683 148.392C128.603 148.392 129.115 147.864 129.115 147.168C129.115 146.424 128.515 145.944 127.563 145.944C127.051 145.944 126.635 146.104 126.323 146.424Z" fill="#76848D"/>
<path d="M266.023 144.888L265.767 144.288L267.687 143.368H268.143V149H267.455V144.224L266.023 144.888ZM269.163 146.2C269.163 145.336 269.363 144.64 269.771 144.12C270.171 143.6 270.763 143.336 271.539 143.336C273.131 143.336 273.923 144.384 273.923 146.2C273.923 147.072 273.723 147.76 273.331 148.28C272.931 148.8 272.339 149.064 271.555 149.064C270.803 149.064 270.219 148.8 269.795 148.272C269.371 147.744 269.163 147.056 269.163 146.2ZM269.899 146.2C269.899 147.568 270.523 148.384 271.555 148.384C272.643 148.384 273.187 147.656 273.187 146.2C273.187 144.744 272.635 144.016 271.539 144.016C270.427 144.016 269.899 144.816 269.899 146.2Z" fill="#76848D"/>
<path d="M296.162 144.888L295.906 144.288L297.826 143.368H298.282V149H297.594V144.224L296.162 144.888ZM299.238 144.888L298.982 144.288L300.902 143.368H301.358V149H300.67V144.224L299.238 144.888Z" fill="#76848D"/>
<path d="M323.293 144.888L323.037 144.288L324.957 143.368H325.413V149H324.725V144.224L323.293 144.888ZM327.073 145.248L326.489 145.04C326.689 144.048 327.441 143.336 328.633 143.336C329.785 143.336 330.489 144 330.489 145.016C330.489 145.552 330.257 146.088 329.969 146.472C329.825 146.672 329.641 146.864 329.425 147.064C328.985 147.456 328.673 147.664 328.217 147.952L327.601 148.336H330.697V149H326.337V148.456L327.553 147.648C327.769 147.512 327.921 147.408 328.009 147.344C328.097 147.288 328.241 147.184 328.433 147.048C328.625 146.912 328.769 146.792 328.865 146.704C328.953 146.616 329.073 146.504 329.209 146.36C329.577 145.96 329.713 145.592 329.753 145.088C329.753 144.36 329.281 144.032 328.585 144.032C328.153 144.032 327.809 144.152 327.561 144.392C327.313 144.632 327.145 144.92 327.073 145.248Z" fill="#76848D"/>
<line x1="2" y1="134.5" x2="337" y2="134.5" stroke="#ABBEC9"/>
<path d="M8.38672 17.6934C20.2828 17.6934 26.6883 19.4466 37.4079 22.6608C47.9738 25.829 60.0474 32.4706 65.9061 36.1022C81.4625 45.7449 85.5596 51.0329 94.6658 53.05C109.176 56.2642 117.281 62.9849 123.426 67.0758C129.314 70.9963 145.207 78.7277 152.185 81.6859C167.349 88.1144 168.134 92.7897 180.945 92.7897C189.962 92.7897 203.846 83.305 209.835 82.4789C226.176 80.2249 230.49 82.4789 238.464 83.7314C254.544 86.2569 259.987 84.8135 267.093 84.8135C277.755 84.8135 284.94 76.2471 295.984 73.5042C301.866 72.0432 307.618 70.5822 324.613 70.5822" stroke="#737AF9" stroke-width="2.93345"/>
<circle cx="10.7336" cy="17.6935" r="4.19352" fill="#6D73F9" stroke="white"/>
<path d="M6.42956 8H5.73356V6.856H2.30956V6.392L5.81356 2.4H6.42956V6.208H7.46956V6.856H6.42956V8ZM5.73356 3.52L3.26956 6.208H5.73356V3.52ZM10.0686 4.808H10.3166C10.6766 4.808 10.9726 4.72 11.2206 4.552C11.4606 4.384 11.5806 4.16 11.5806 3.896C11.5806 3.296 11.1086 2.992 10.1726 2.992C9.27656 2.992 8.78856 3.32 8.78856 3.896C8.78856 4.416 9.32456 4.808 10.0686 4.808ZM10.3006 5.44H10.1006C9.66856 5.44 9.30856 5.536 9.02856 5.72C8.74856 5.904 8.60456 6.136 8.60456 6.416C8.60456 7.024 9.16456 7.408 10.1806 7.408C11.2126 7.408 11.7646 7.04 11.7646 6.424C11.7646 5.808 11.1726 5.44 10.3006 5.44ZM11.8766 7.64C11.4686 7.928 10.9006 8.072 10.1886 8.072C9.47656 8.072 8.90856 7.928 8.49256 7.648C8.07656 7.368 7.86856 6.984 7.86856 6.488C7.86856 5.84 8.29256 5.328 8.97256 5.104C8.35656 4.904 8.05256 4.416 8.05256 3.848C8.05256 2.92 8.83656 2.328 10.1806 2.328C11.5326 2.328 12.3166 2.92 12.3166 3.848C12.3166 4.384 12.0206 4.792 11.4286 5.064C12.1406 5.28 12.4926 5.744 12.4926 6.456C12.4926 6.96 12.2846 7.36 11.8766 7.64ZM13.6525 8C13.3565 8.032 13.1325 7.864 13.1325 7.576C13.1325 7.296 13.3085 7.12 13.6205 7.12C13.9725 7.12 14.2045 7.36 14.2045 7.808C14.2045 8.608 13.7645 9.016 13.1805 9.152L13.0125 8.776C13.1885 8.728 13.3485 8.632 13.4925 8.48C13.6285 8.328 13.6845 8.168 13.6525 8ZM16.9945 4.808H17.2425C17.6025 4.808 17.8985 4.72 18.1465 4.552C18.3865 4.384 18.5065 4.16 18.5065 3.896C18.5065 3.296 18.0345 2.992 17.0985 2.992C16.2025 2.992 15.7145 3.32 15.7145 3.896C15.7145 4.416 16.2505 4.808 16.9945 4.808ZM17.2265 5.44H17.0265C16.5945 5.44 16.2345 5.536 15.9545 5.72C15.6745 5.904 15.5305 6.136 15.5305 6.416C15.5305 7.024 16.0905 7.408 17.1065 7.408C18.1385 7.408 18.6905 7.04 18.6905 6.424C18.6905 5.808 18.0985 5.44 17.2265 5.44ZM18.8025 7.64C18.3945 7.928 17.8265 8.072 17.1145 8.072C16.4025 8.072 15.8345 7.928 15.4185 7.648C15.0025 7.368 14.7945 6.984 14.7945 6.488C14.7945 5.84 15.2185 5.328 15.8985 5.104C15.2825 4.904 14.9785 4.416 14.9785 3.848C14.9785 2.92 15.7625 2.328 17.1065 2.328C18.4585 2.328 19.2425 2.92 19.2425 3.848C19.2425 4.384 18.9465 4.792 18.3545 5.064C19.0665 5.28 19.4185 5.744 19.4185 6.456C19.4185 6.96 19.2105 7.36 18.8025 7.64Z" fill="#2A3C3C"/>
<path d="M6.42956 8H5.73356V6.856H2.30956V6.392L5.81356 2.4H6.42956V6.208H7.46956V6.856H6.42956V8ZM5.73356 3.52L3.26956 6.208H5.73356V3.52ZM10.0686 4.808H10.3166C10.6766 4.808 10.9726 4.72 11.2206 4.552C11.4606 4.384 11.5806 4.16 11.5806 3.896C11.5806 3.296 11.1086 2.992 10.1726 2.992C9.27656 2.992 8.78856 3.32 8.78856 3.896C8.78856 4.416 9.32456 4.808 10.0686 4.808ZM10.3006 5.44H10.1006C9.66856 5.44 9.30856 5.536 9.02856 5.72C8.74856 5.904 8.60456 6.136 8.60456 6.416C8.60456 7.024 9.16456 7.408 10.1806 7.408C11.2126 7.408 11.7646 7.04 11.7646 6.424C11.7646 5.808 11.1726 5.44 10.3006 5.44ZM11.8766 7.64C11.4686 7.928 10.9006 8.072 10.1886 8.072C9.47656 8.072 8.90856 7.928 8.49256 7.648C8.07656 7.368 7.86856 6.984 7.86856 6.488C7.86856 5.84 8.29256 5.328 8.97256 5.104C8.35656 4.904 8.05256 4.416 8.05256 3.848C8.05256 2.92 8.83656 2.328 10.1806 2.328C11.5326 2.328 12.3166 2.92 12.3166 3.848C12.3166 4.384 12.0206 4.792 11.4286 5.064C12.1406 5.28 12.4926 5.744 12.4926 6.456C12.4926 6.96 12.2846 7.36 11.8766 7.64ZM13.6525 8C13.3565 8.032 13.1325 7.864 13.1325 7.576C13.1325 7.296 13.3085 7.12 13.6205 7.12C13.9725 7.12 14.2045 7.36 14.2045 7.808C14.2045 8.608 13.7645 9.016 13.1805 9.152L13.0125 8.776C13.1885 8.728 13.3485 8.632 13.4925 8.48C13.6285 8.328 13.6845 8.168 13.6525 8ZM16.9945 4.808H17.2425C17.6025 4.808 17.8985 4.72 18.1465 4.552C18.3865 4.384 18.5065 4.16 18.5065 3.896C18.5065 3.296 18.0345 2.992 17.0985 2.992C16.2025 2.992 15.7145 3.32 15.7145 3.896C15.7145 4.416 16.2505 4.808 16.9945 4.808ZM17.2265 5.44H17.0265C16.5945 5.44 16.2345 5.536 15.9545 5.72C15.6745 5.904 15.5305 6.136 15.5305 6.416C15.5305 7.024 16.0905 7.408 17.1065 7.408C18.1385 7.408 18.6905 7.04 18.6905 6.424C18.6905 5.808 18.0985 5.44 17.2265 5.44ZM18.8025 7.64C18.3945 7.928 17.8265 8.072 17.1145 8.072C16.4025 8.072 15.8345 7.928 15.4185 7.648C15.0025 7.368 14.7945 6.984 14.7945 6.488C14.7945 5.84 15.2185 5.328 15.8985 5.104C15.2825 4.904 14.9785 4.416 14.9785 3.848C14.9785 2.92 15.7625 2.328 17.1065 2.328C18.4585 2.328 19.2425 2.92 19.2425 3.848C19.2425 4.384 18.9465 4.792 18.3545 5.064C19.0665 5.28 19.4185 5.744 19.4185 6.456C19.4185 6.96 19.2105 7.36 18.8025 7.64Z" fill="#1A3341"/>
<circle cx="39.4816" cy="22.3869" r="4.19352" fill="#6D73F9" stroke="white"/>
<path d="M36.5819 12H35.8859V10.856H32.4619V10.392L35.9659 6.4H36.5819V10.208H37.6219V10.856H36.5819V12ZM35.8859 7.52L33.4219 10.208H35.8859V7.52ZM40.2209 8.808H40.4689C40.8289 8.808 41.1249 8.72 41.3729 8.552C41.6129 8.384 41.7329 8.16 41.7329 7.896C41.7329 7.296 41.2609 6.992 40.3249 6.992C39.4289 6.992 38.9409 7.32 38.9409 7.896C38.9409 8.416 39.4769 8.808 40.2209 8.808ZM40.4529 9.44H40.2529C39.8209 9.44 39.4609 9.536 39.1809 9.72C38.9009 9.904 38.7569 10.136 38.7569 10.416C38.7569 11.024 39.3169 11.408 40.3329 11.408C41.3649 11.408 41.9169 11.04 41.9169 10.424C41.9169 9.808 41.3249 9.44 40.4529 9.44ZM42.0289 11.64C41.6209 11.928 41.0529 12.072 40.3409 12.072C39.6289 12.072 39.0609 11.928 38.6449 11.648C38.2289 11.368 38.0209 10.984 38.0209 10.488C38.0209 9.84 38.4449 9.328 39.1249 9.104C38.5089 8.904 38.2049 8.416 38.2049 7.848C38.2049 6.92 38.9889 6.328 40.3329 6.328C41.6849 6.328 42.4689 6.92 42.4689 7.848C42.4689 8.384 42.1729 8.792 41.5809 9.064C42.2929 9.28 42.6449 9.744 42.6449 10.456C42.6449 10.96 42.4369 11.36 42.0289 11.64ZM43.8048 12C43.5088 12.032 43.2848 11.864 43.2848 11.576C43.2848 11.296 43.4608 11.12 43.7728 11.12C44.1248 11.12 44.3568 11.36 44.3568 11.808C44.3568 12.608 43.9168 13.016 43.3328 13.152L43.1648 12.776C43.3408 12.728 43.5008 12.632 43.6448 12.48C43.7808 12.328 43.8368 12.168 43.8048 12ZM45.7548 9.424L45.1788 9.272L45.5068 6.4H49.0268V7.08H46.1228L45.9148 8.584C46.1948 8.376 46.6188 8.272 47.1868 8.272C47.8428 8.272 48.3548 8.448 48.7308 8.792C49.0988 9.144 49.2828 9.592 49.2828 10.144C49.2828 10.696 49.0748 11.16 48.6668 11.52C48.2508 11.888 47.7308 12.072 47.1148 12.072C46.0668 12.072 45.1948 11.576 44.8348 10.704L45.4748 10.432C45.7068 10.968 46.3068 11.392 47.1148 11.392C48.0348 11.392 48.5468 10.864 48.5468 10.168C48.5468 9.424 47.9468 8.944 46.9948 8.944C46.4828 8.944 46.0668 9.104 45.7548 9.424Z" fill="#2A3C3C"/>
<path d="M36.5819 12H35.8859V10.856H32.4619V10.392L35.9659 6.4H36.5819V10.208H37.6219V10.856H36.5819V12ZM35.8859 7.52L33.4219 10.208H35.8859V7.52ZM40.2209 8.808H40.4689C40.8289 8.808 41.1249 8.72 41.3729 8.552C41.6129 8.384 41.7329 8.16 41.7329 7.896C41.7329 7.296 41.2609 6.992 40.3249 6.992C39.4289 6.992 38.9409 7.32 38.9409 7.896C38.9409 8.416 39.4769 8.808 40.2209 8.808ZM40.4529 9.44H40.2529C39.8209 9.44 39.4609 9.536 39.1809 9.72C38.9009 9.904 38.7569 10.136 38.7569 10.416C38.7569 11.024 39.3169 11.408 40.3329 11.408C41.3649 11.408 41.9169 11.04 41.9169 10.424C41.9169 9.808 41.3249 9.44 40.4529 9.44ZM42.0289 11.64C41.6209 11.928 41.0529 12.072 40.3409 12.072C39.6289 12.072 39.0609 11.928 38.6449 11.648C38.2289 11.368 38.0209 10.984 38.0209 10.488C38.0209 9.84 38.4449 9.328 39.1249 9.104C38.5089 8.904 38.2049 8.416 38.2049 7.848C38.2049 6.92 38.9889 6.328 40.3329 6.328C41.6849 6.328 42.4689 6.92 42.4689 7.848C42.4689 8.384 42.1729 8.792 41.5809 9.064C42.2929 9.28 42.6449 9.744 42.6449 10.456C42.6449 10.96 42.4369 11.36 42.0289 11.64ZM43.8048 12C43.5088 12.032 43.2848 11.864 43.2848 11.576C43.2848 11.296 43.4608 11.12 43.7728 11.12C44.1248 11.12 44.3568 11.36 44.3568 11.808C44.3568 12.608 43.9168 13.016 43.3328 13.152L43.1648 12.776C43.3408 12.728 43.5008 12.632 43.6448 12.48C43.7808 12.328 43.8368 12.168 43.8048 12ZM45.7548 9.424L45.1788 9.272L45.5068 6.4H49.0268V7.08H46.1228L45.9148 8.584C46.1948 8.376 46.6188 8.272 47.1868 8.272C47.8428 8.272 48.3548 8.448 48.7308 8.792C49.0988 9.144 49.2828 9.592 49.2828 10.144C49.2828 10.696 49.0748 11.16 48.6668 11.52C48.2508 11.888 47.7308 12.072 47.1148 12.072C46.0668 12.072 45.1948 11.576 44.8348 10.704L45.4748 10.432C45.7068 10.968 46.3068 11.392 47.1148 11.392C48.0348 11.392 48.5468 10.864 48.5468 10.168C48.5468 9.424 47.9468 8.944 46.9948 8.944C46.4828 8.944 46.0668 9.104 45.7548 9.424Z" fill="#1A3341"/>
<circle cx="68.2297" cy="35.881" r="4.19352" fill="#6D73F9" stroke="white"/>
<path d="M64.2538 26H63.5578V24.856H60.1338V24.392L63.6378 20.4H64.2538V24.208H65.2938V24.856H64.2538V26ZM63.5578 21.52L61.0938 24.208H63.5578V21.52ZM68.8928 21.08H65.5008V20.4H69.7488V20.856L66.9648 26H66.2048L68.8928 21.08ZM70.2267 26C69.9307 26.032 69.7067 25.864 69.7067 25.576C69.7067 25.296 69.8827 25.12 70.1947 25.12C70.5467 25.12 70.7787 25.36 70.7787 25.808C70.7787 26.608 70.3387 27.016 69.7547 27.152L69.5867 26.776C69.7627 26.728 69.9227 26.632 70.0667 26.48C70.2027 26.328 70.2587 26.168 70.2267 26ZM71.9127 22.032L71.3127 21.76C71.6087 20.896 72.3847 20.328 73.5447 20.328C74.0967 20.328 74.5527 20.456 74.9047 20.712C75.2567 20.968 75.4327 21.312 75.4327 21.736C75.4327 22.384 75.0887 22.864 74.4487 23.048C75.0647 23.088 75.5607 23.552 75.5607 24.384C75.5607 24.912 75.3687 25.328 74.9847 25.624C74.6007 25.92 74.1127 26.072 73.5127 26.072C72.2887 26.072 71.4407 25.488 71.1607 24.568L71.8087 24.288C72.1527 25.016 72.7367 25.384 73.5607 25.384C74.3367 25.384 74.8247 25.024 74.8247 24.392C74.8247 23.776 74.3447 23.464 73.3847 23.464H72.7607V22.8H73.2567C74.1287 22.8 74.6967 22.408 74.6967 21.872C74.6967 21.32 74.2407 21.008 73.5127 21.008C72.6567 21.008 72.1367 21.448 71.9127 22.032Z" fill="#2A3C3C"/>
<path d="M64.2538 26H63.5578V24.856H60.1338V24.392L63.6378 20.4H64.2538V24.208H65.2938V24.856H64.2538V26ZM63.5578 21.52L61.0938 24.208H63.5578V21.52ZM68.8928 21.08H65.5008V20.4H69.7488V20.856L66.9648 26H66.2048L68.8928 21.08ZM70.2267 26C69.9307 26.032 69.7067 25.864 69.7067 25.576C69.7067 25.296 69.8827 25.12 70.1947 25.12C70.5467 25.12 70.7787 25.36 70.7787 25.808C70.7787 26.608 70.3387 27.016 69.7547 27.152L69.5867 26.776C69.7627 26.728 69.9227 26.632 70.0667 26.48C70.2027 26.328 70.2587 26.168 70.2267 26ZM71.9127 22.032L71.3127 21.76C71.6087 20.896 72.3847 20.328 73.5447 20.328C74.0967 20.328 74.5527 20.456 74.9047 20.712C75.2567 20.968 75.4327 21.312 75.4327 21.736C75.4327 22.384 75.0887 22.864 74.4487 23.048C75.0647 23.088 75.5607 23.552 75.5607 24.384C75.5607 24.912 75.3687 25.328 74.9847 25.624C74.6007 25.92 74.1127 26.072 73.5127 26.072C72.2887 26.072 71.4407 25.488 71.1607 24.568L71.8087 24.288C72.1527 25.016 72.7367 25.384 73.5607 25.384C74.3367 25.384 74.8247 25.024 74.8247 24.392C74.8247 23.776 74.3447 23.464 73.3847 23.464H72.7607V22.8H73.2567C74.1287 22.8 74.6967 22.408 74.6967 21.872C74.6967 21.32 74.2407 21.008 73.5127 21.008C72.6567 21.008 72.1367 21.448 71.9127 22.032Z" fill="#1A3341"/>
<circle cx="96.9777" cy="52.8947" r="4.19352" fill="#6D73F9" stroke="white"/>
<path d="M91.5819 43H90.8859V41.856H87.4619V41.392L90.9659 37.4H91.5819V41.208H92.6219V41.856H91.5819V43ZM90.8859 38.52L88.4219 41.208H90.8859V38.52ZM93.8289 40.424L93.2529 40.272L93.5809 37.4H97.1009V38.08H94.1969L93.9889 39.584C94.2689 39.376 94.6929 39.272 95.2609 39.272C95.9169 39.272 96.4289 39.448 96.8049 39.792C97.1729 40.144 97.3569 40.592 97.3569 41.144C97.3569 41.696 97.1489 42.16 96.7409 42.52C96.3249 42.888 95.8049 43.072 95.1889 43.072C94.1409 43.072 93.2689 42.576 92.9089 41.704L93.5489 41.432C93.7809 41.968 94.3809 42.392 95.1889 42.392C96.1089 42.392 96.6209 41.864 96.6209 41.168C96.6209 40.424 96.0209 39.944 95.0689 39.944C94.5569 39.944 94.1409 40.104 93.8289 40.424ZM98.5002 43C98.2042 43.032 97.9802 42.864 97.9802 42.576C97.9802 42.296 98.1562 42.12 98.4682 42.12C98.8202 42.12 99.0522 42.36 99.0522 42.808C99.0522 43.608 98.6122 44.016 98.0282 44.152L97.8602 43.776C98.0362 43.728 98.1962 43.632 98.3402 43.48C98.4762 43.328 98.5322 43.168 98.5002 43ZM101.842 39.808H102.09C102.45 39.808 102.746 39.72 102.994 39.552C103.234 39.384 103.354 39.16 103.354 38.896C103.354 38.296 102.882 37.992 101.946 37.992C101.05 37.992 100.562 38.32 100.562 38.896C100.562 39.416 101.098 39.808 101.842 39.808ZM102.074 40.44H101.874C101.442 40.44 101.082 40.536 100.802 40.72C100.522 40.904 100.378 41.136 100.378 41.416C100.378 42.024 100.938 42.408 101.954 42.408C102.986 42.408 103.538 42.04 103.538 41.424C103.538 40.808 102.946 40.44 102.074 40.44ZM103.65 42.64C103.242 42.928 102.674 43.072 101.962 43.072C101.25 43.072 100.682 42.928 100.266 42.648C99.8502 42.368 99.6422 41.984 99.6422 41.488C99.6422 40.84 100.066 40.328 100.746 40.104C100.13 39.904 99.8262 39.416 99.8262 38.848C99.8262 37.92 100.61 37.328 101.954 37.328C103.306 37.328 104.09 37.92 104.09 38.848C104.09 39.384 103.794 39.792 103.202 40.064C103.914 40.28 104.266 40.744 104.266 41.456C104.266 41.96 104.058 42.36 103.65 42.64Z" fill="#2A3C3C"/>
<path d="M91.5819 43H90.8859V41.856H87.4619V41.392L90.9659 37.4H91.5819V41.208H92.6219V41.856H91.5819V43ZM90.8859 38.52L88.4219 41.208H90.8859V38.52ZM93.8289 40.424L93.2529 40.272L93.5809 37.4H97.1009V38.08H94.1969L93.9889 39.584C94.2689 39.376 94.6929 39.272 95.2609 39.272C95.9169 39.272 96.4289 39.448 96.8049 39.792C97.1729 40.144 97.3569 40.592 97.3569 41.144C97.3569 41.696 97.1489 42.16 96.7409 42.52C96.3249 42.888 95.8049 43.072 95.1889 43.072C94.1409 43.072 93.2689 42.576 92.9089 41.704L93.5489 41.432C93.7809 41.968 94.3809 42.392 95.1889 42.392C96.1089 42.392 96.6209 41.864 96.6209 41.168C96.6209 40.424 96.0209 39.944 95.0689 39.944C94.5569 39.944 94.1409 40.104 93.8289 40.424ZM98.5002 43C98.2042 43.032 97.9802 42.864 97.9802 42.576C97.9802 42.296 98.1562 42.12 98.4682 42.12C98.8202 42.12 99.0522 42.36 99.0522 42.808C99.0522 43.608 98.6122 44.016 98.0282 44.152L97.8602 43.776C98.0362 43.728 98.1962 43.632 98.3402 43.48C98.4762 43.328 98.5322 43.168 98.5002 43ZM101.842 39.808H102.09C102.45 39.808 102.746 39.72 102.994 39.552C103.234 39.384 103.354 39.16 103.354 38.896C103.354 38.296 102.882 37.992 101.946 37.992C101.05 37.992 100.562 38.32 100.562 38.896C100.562 39.416 101.098 39.808 101.842 39.808ZM102.074 40.44H101.874C101.442 40.44 101.082 40.536 100.802 40.72C100.522 40.904 100.378 41.136 100.378 41.416C100.378 42.024 100.938 42.408 101.954 42.408C102.986 42.408 103.538 42.04 103.538 41.424C103.538 40.808 102.946 40.44 102.074 40.44ZM103.65 42.64C103.242 42.928 102.674 43.072 101.962 43.072C101.25 43.072 100.682 42.928 100.266 42.648C99.8502 42.368 99.6422 41.984 99.6422 41.488C99.6422 40.84 100.066 40.328 100.746 40.104C100.13 39.904 99.8262 39.416 99.8262 38.848C99.8262 37.92 100.61 37.328 101.954 37.328C103.306 37.328 104.09 37.92 104.09 38.848C104.09 39.384 103.794 39.792 103.202 40.064C103.914 40.28 104.266 40.744 104.266 41.456C104.266 41.96 104.058 42.36 103.65 42.64Z" fill="#1A3341"/>
<circle cx="126.312" cy="66.9757" r="4.19352" fill="#6D73F9" stroke="white"/>
<path d="M121.41 57H120.714V55.856H117.29V55.392L120.794 51.4H121.41V55.208H122.45V55.856H121.41V57ZM120.714 52.52L118.25 55.208H120.714V52.52ZM126.705 57H126.009V55.856H122.585V55.392L126.089 51.4H126.705V55.208H127.745V55.856H126.705V57ZM126.009 52.52L123.545 55.208H126.009V52.52ZM128.672 57C128.376 57.032 128.152 56.864 128.152 56.576C128.152 56.296 128.328 56.12 128.64 56.12C128.992 56.12 129.224 56.36 129.224 56.808C129.224 57.608 128.784 58.016 128.2 58.152L128.032 57.776C128.208 57.728 128.368 57.632 128.512 57.48C128.648 57.328 128.704 57.168 128.672 57ZM132.014 53.808H132.262C132.622 53.808 132.918 53.72 133.166 53.552C133.406 53.384 133.526 53.16 133.526 52.896C133.526 52.296 133.054 51.992 132.118 51.992C131.222 51.992 130.734 52.32 130.734 52.896C130.734 53.416 131.27 53.808 132.014 53.808ZM132.246 54.44H132.046C131.614 54.44 131.254 54.536 130.974 54.72C130.694 54.904 130.55 55.136 130.55 55.416C130.55 56.024 131.11 56.408 132.126 56.408C133.158 56.408 133.71 56.04 133.71 55.424C133.71 54.808 133.118 54.44 132.246 54.44ZM133.822 56.64C133.414 56.928 132.846 57.072 132.134 57.072C131.422 57.072 130.854 56.928 130.438 56.648C130.022 56.368 129.814 55.984 129.814 55.488C129.814 54.84 130.238 54.328 130.918 54.104C130.302 53.904 129.998 53.416 129.998 52.848C129.998 51.92 130.782 51.328 132.126 51.328C133.478 51.328 134.262 51.92 134.262 52.848C134.262 53.384 133.966 53.792 133.374 54.064C134.086 54.28 134.438 54.744 134.438 55.456C134.438 55.96 134.23 56.36 133.822 56.64Z" fill="#2A3C3C"/>
<path d="M121.41 57H120.714V55.856H117.29V55.392L120.794 51.4H121.41V55.208H122.45V55.856H121.41V57ZM120.714 52.52L118.25 55.208H120.714V52.52ZM126.705 57H126.009V55.856H122.585V55.392L126.089 51.4H126.705V55.208H127.745V55.856H126.705V57ZM126.009 52.52L123.545 55.208H126.009V52.52ZM128.672 57C128.376 57.032 128.152 56.864 128.152 56.576C128.152 56.296 128.328 56.12 128.64 56.12C128.992 56.12 129.224 56.36 129.224 56.808C129.224 57.608 128.784 58.016 128.2 58.152L128.032 57.776C128.208 57.728 128.368 57.632 128.512 57.48C128.648 57.328 128.704 57.168 128.672 57ZM132.014 53.808H132.262C132.622 53.808 132.918 53.72 133.166 53.552C133.406 53.384 133.526 53.16 133.526 52.896C133.526 52.296 133.054 51.992 132.118 51.992C131.222 51.992 130.734 52.32 130.734 52.896C130.734 53.416 131.27 53.808 132.014 53.808ZM132.246 54.44H132.046C131.614 54.44 131.254 54.536 130.974 54.72C130.694 54.904 130.55 55.136 130.55 55.416C130.55 56.024 131.11 56.408 132.126 56.408C133.158 56.408 133.71 56.04 133.71 55.424C133.71 54.808 133.118 54.44 132.246 54.44ZM133.822 56.64C133.414 56.928 132.846 57.072 132.134 57.072C131.422 57.072 130.854 56.928 130.438 56.648C130.022 56.368 129.814 55.984 129.814 55.488C129.814 54.84 130.238 54.328 130.918 54.104C130.302 53.904 129.998 53.416 129.998 52.848C129.998 51.92 130.782 51.328 132.126 51.328C133.478 51.328 134.262 51.92 134.262 52.848C134.262 53.384 133.966 53.792 133.374 54.064C134.086 54.28 134.438 54.744 134.438 55.456C134.438 55.96 134.23 56.36 133.822 56.64Z" fill="#1A3341"/>
<circle cx="154.473" cy="82.2297" r="4.19352" fill="#6D73F9" stroke="white"/>
<path d="M150.109 72H149.413V70.856H145.989V70.392L149.493 66.4H150.109V70.208H151.149V70.856H150.109V72ZM149.413 67.52L146.949 70.208H149.413V67.52ZM152.092 68.032L151.492 67.76C151.788 66.896 152.564 66.328 153.724 66.328C154.276 66.328 154.732 66.456 155.084 66.712C155.436 66.968 155.612 67.312 155.612 67.736C155.612 68.384 155.268 68.864 154.628 69.048C155.244 69.088 155.74 69.552 155.74 70.384C155.74 70.912 155.548 71.328 155.164 71.624C154.78 71.92 154.292 72.072 153.692 72.072C152.468 72.072 151.62 71.488 151.34 70.568L151.988 70.288C152.332 71.016 152.916 71.384 153.74 71.384C154.516 71.384 155.004 71.024 155.004 70.392C155.004 69.776 154.524 69.464 153.564 69.464H152.94V68.8H153.436C154.308 68.8 154.876 68.408 154.876 67.872C154.876 67.32 154.42 67.008 153.692 67.008C152.836 67.008 152.316 67.448 152.092 68.032ZM156.934 72C156.638 72.032 156.414 71.864 156.414 71.576C156.414 71.296 156.59 71.12 156.902 71.12C157.254 71.12 157.486 71.36 157.486 71.808C157.486 72.608 157.046 73.016 156.462 73.152L156.294 72.776C156.47 72.728 156.63 72.632 156.774 72.48C156.91 72.328 156.966 72.168 156.934 72ZM161.932 72H161.236V70.856H157.812V70.392L161.316 66.4H161.932V70.208H162.972V70.856H161.932V72ZM161.236 67.52L158.772 70.208H161.236V67.52Z" fill="#2A3C3C"/>
<path d="M150.109 72H149.413V70.856H145.989V70.392L149.493 66.4H150.109V70.208H151.149V70.856H150.109V72ZM149.413 67.52L146.949 70.208H149.413V67.52ZM152.092 68.032L151.492 67.76C151.788 66.896 152.564 66.328 153.724 66.328C154.276 66.328 154.732 66.456 155.084 66.712C155.436 66.968 155.612 67.312 155.612 67.736C155.612 68.384 155.268 68.864 154.628 69.048C155.244 69.088 155.74 69.552 155.74 70.384C155.74 70.912 155.548 71.328 155.164 71.624C154.78 71.92 154.292 72.072 153.692 72.072C152.468 72.072 151.62 71.488 151.34 70.568L151.988 70.288C152.332 71.016 152.916 71.384 153.74 71.384C154.516 71.384 155.004 71.024 155.004 70.392C155.004 69.776 154.524 69.464 153.564 69.464H152.94V68.8H153.436C154.308 68.8 154.876 68.408 154.876 67.872C154.876 67.32 154.42 67.008 153.692 67.008C152.836 67.008 152.316 67.448 152.092 68.032ZM156.934 72C156.638 72.032 156.414 71.864 156.414 71.576C156.414 71.296 156.59 71.12 156.902 71.12C157.254 71.12 157.486 71.36 157.486 71.808C157.486 72.608 157.046 73.016 156.462 73.152L156.294 72.776C156.47 72.728 156.63 72.632 156.774 72.48C156.91 72.328 156.966 72.168 156.934 72ZM161.932 72H161.236V70.856H157.812V70.392L161.316 66.4H161.932V70.208H162.972V70.856H161.932V72ZM161.236 67.52L158.772 70.208H161.236V67.52Z" fill="#1A3341"/>
<circle cx="183.221" cy="92.7902" r="4.19352" fill="#6D73F9" stroke="white"/>
<path d="M179.531 83H178.835V81.856H175.411V81.392L178.915 77.4H179.531V81.208H180.571V81.856H179.531V83ZM178.835 78.52L176.371 81.208H178.835V78.52ZM181.602 79.248L181.018 79.04C181.218 78.048 181.97 77.336 183.162 77.336C184.314 77.336 185.018 78 185.018 79.016C185.018 79.552 184.786 80.088 184.498 80.472C184.354 80.672 184.17 80.864 183.954 81.064C183.514 81.456 183.202 81.664 182.746 81.952L182.13 82.336H185.226V83H180.866V82.456L182.082 81.648C182.298 81.512 182.45 81.408 182.538 81.344C182.626 81.288 182.77 81.184 182.962 81.048C183.154 80.912 183.298 80.792 183.394 80.704C183.482 80.616 183.602 80.504 183.738 80.36C184.106 79.96 184.242 79.592 184.282 79.088C184.282 78.36 183.81 78.032 183.114 78.032C182.682 78.032 182.338 78.152 182.09 78.392C181.842 78.632 181.674 78.92 181.602 79.248ZM186.317 83C186.021 83.032 185.797 82.864 185.797 82.576C185.797 82.296 185.973 82.12 186.285 82.12C186.637 82.12 186.869 82.36 186.869 82.808C186.869 83.608 186.429 84.016 185.845 84.152L185.677 83.776C185.853 83.728 186.013 83.632 186.157 83.48C186.293 83.328 186.349 83.168 186.317 83ZM190.659 78.08H187.267V77.4H191.515V77.856L188.731 83H187.971L190.659 78.08Z" fill="#2A3C3C"/>
<path d="M179.531 83H178.835V81.856H175.411V81.392L178.915 77.4H179.531V81.208H180.571V81.856H179.531V83ZM178.835 78.52L176.371 81.208H178.835V78.52ZM181.602 79.248L181.018 79.04C181.218 78.048 181.97 77.336 183.162 77.336C184.314 77.336 185.018 78 185.018 79.016C185.018 79.552 184.786 80.088 184.498 80.472C184.354 80.672 184.17 80.864 183.954 81.064C183.514 81.456 183.202 81.664 182.746 81.952L182.13 82.336H185.226V83H180.866V82.456L182.082 81.648C182.298 81.512 182.45 81.408 182.538 81.344C182.626 81.288 182.77 81.184 182.962 81.048C183.154 80.912 183.298 80.792 183.394 80.704C183.482 80.616 183.602 80.504 183.738 80.36C184.106 79.96 184.242 79.592 184.282 79.088C184.282 78.36 183.81 78.032 183.114 78.032C182.682 78.032 182.338 78.152 182.09 78.392C181.842 78.632 181.674 78.92 181.602 79.248ZM186.317 83C186.021 83.032 185.797 82.864 185.797 82.576C185.797 82.296 185.973 82.12 186.285 82.12C186.637 82.12 186.869 82.36 186.869 82.808C186.869 83.608 186.429 84.016 185.845 84.152L185.677 83.776C185.853 83.728 186.013 83.632 186.157 83.48C186.293 83.328 186.349 83.168 186.317 83ZM190.659 78.08H187.267V77.4H191.515V77.856L188.731 83H187.971L190.659 78.08Z" fill="#1A3341"/>
<circle cx="211.969" cy="82.8166" r="4.19352" fill="#6D73F9" stroke="white"/>
<path d="M206.781 73H206.085V71.856H202.661V71.392L206.165 67.4H206.781V71.208H207.821V71.856H206.781V73ZM206.085 68.52L203.621 71.208H206.085V68.52ZM208.764 69.032L208.164 68.76C208.46 67.896 209.236 67.328 210.396 67.328C210.948 67.328 211.404 67.456 211.756 67.712C212.108 67.968 212.284 68.312 212.284 68.736C212.284 69.384 211.94 69.864 211.3 70.048C211.916 70.088 212.412 70.552 212.412 71.384C212.412 71.912 212.22 72.328 211.836 72.624C211.452 72.92 210.964 73.072 210.364 73.072C209.14 73.072 208.292 72.488 208.012 71.568L208.66 71.288C209.004 72.016 209.588 72.384 210.412 72.384C211.188 72.384 211.676 72.024 211.676 71.392C211.676 70.776 211.196 70.464 210.236 70.464H209.612V69.8H210.108C210.98 69.8 211.548 69.408 211.548 68.872C211.548 68.32 211.092 68.008 210.364 68.008C209.508 68.008 208.988 68.448 208.764 69.032ZM213.606 73C213.31 73.032 213.086 72.864 213.086 72.576C213.086 72.296 213.262 72.12 213.574 72.12C213.926 72.12 214.158 72.36 214.158 72.808C214.158 73.608 213.718 74.016 213.134 74.152L212.966 73.776C213.142 73.728 213.302 73.632 213.446 73.48C213.582 73.328 213.638 73.168 213.606 73ZM215.556 70.424L214.98 70.272L215.308 67.4H218.828V68.08H215.924L215.716 69.584C215.996 69.376 216.42 69.272 216.988 69.272C217.644 69.272 218.156 69.448 218.532 69.792C218.9 70.144 219.084 70.592 219.084 71.144C219.084 71.696 218.876 72.16 218.468 72.52C218.052 72.888 217.532 73.072 216.916 73.072C215.868 73.072 214.996 72.576 214.636 71.704L215.276 71.432C215.508 71.968 216.108 72.392 216.916 72.392C217.836 72.392 218.348 71.864 218.348 71.168C218.348 70.424 217.748 69.944 216.796 69.944C216.284 69.944 215.868 70.104 215.556 70.424Z" fill="#2A3C3C"/>
<path d="M206.781 73H206.085V71.856H202.661V71.392L206.165 67.4H206.781V71.208H207.821V71.856H206.781V73ZM206.085 68.52L203.621 71.208H206.085V68.52ZM208.764 69.032L208.164 68.76C208.46 67.896 209.236 67.328 210.396 67.328C210.948 67.328 211.404 67.456 211.756 67.712C212.108 67.968 212.284 68.312 212.284 68.736C212.284 69.384 211.94 69.864 211.3 70.048C211.916 70.088 212.412 70.552 212.412 71.384C212.412 71.912 212.22 72.328 211.836 72.624C211.452 72.92 210.964 73.072 210.364 73.072C209.14 73.072 208.292 72.488 208.012 71.568L208.66 71.288C209.004 72.016 209.588 72.384 210.412 72.384C211.188 72.384 211.676 72.024 211.676 71.392C211.676 70.776 211.196 70.464 210.236 70.464H209.612V69.8H210.108C210.98 69.8 211.548 69.408 211.548 68.872C211.548 68.32 211.092 68.008 210.364 68.008C209.508 68.008 208.988 68.448 208.764 69.032ZM213.606 73C213.31 73.032 213.086 72.864 213.086 72.576C213.086 72.296 213.262 72.12 213.574 72.12C213.926 72.12 214.158 72.36 214.158 72.808C214.158 73.608 213.718 74.016 213.134 74.152L212.966 73.776C213.142 73.728 213.302 73.632 213.446 73.48C213.582 73.328 213.638 73.168 213.606 73ZM215.556 70.424L214.98 70.272L215.308 67.4H218.828V68.08H215.924L215.716 69.584C215.996 69.376 216.42 69.272 216.988 69.272C217.644 69.272 218.156 69.448 218.532 69.792C218.9 70.144 219.084 70.592 219.084 71.144C219.084 71.696 218.876 72.16 218.468 72.52C218.052 72.888 217.532 73.072 216.916 73.072C215.868 73.072 214.996 72.576 214.636 71.704L215.276 71.432C215.508 71.968 216.108 72.392 216.916 72.392C217.836 72.392 218.348 71.864 218.348 71.168C218.348 70.424 217.748 69.944 216.796 69.944C216.284 69.944 215.868 70.104 215.556 70.424Z" fill="#1A3341"/>
<circle cx="241.303" cy="83.4025" r="4.19352" fill="#6D73F9" stroke="white"/>
<path d="M236.609 73H235.913V71.856H232.489V71.392L235.993 67.4H236.609V71.208H237.649V71.856H236.609V73ZM235.913 68.52L233.449 71.208H235.913V68.52ZM238.592 69.032L237.992 68.76C238.288 67.896 239.064 67.328 240.224 67.328C240.776 67.328 241.232 67.456 241.584 67.712C241.936 67.968 242.112 68.312 242.112 68.736C242.112 69.384 241.768 69.864 241.128 70.048C241.744 70.088 242.24 70.552 242.24 71.384C242.24 71.912 242.048 72.328 241.664 72.624C241.28 72.92 240.792 73.072 240.192 73.072C238.968 73.072 238.12 72.488 237.84 71.568L238.488 71.288C238.832 72.016 239.416 72.384 240.24 72.384C241.016 72.384 241.504 72.024 241.504 71.392C241.504 70.776 241.024 70.464 240.064 70.464H239.44V69.8H239.936C240.808 69.8 241.376 69.408 241.376 68.872C241.376 68.32 240.92 68.008 240.192 68.008C239.336 68.008 238.816 68.448 238.592 69.032ZM243.434 73C243.138 73.032 242.914 72.864 242.914 72.576C242.914 72.296 243.09 72.12 243.402 72.12C243.754 72.12 243.986 72.36 243.986 72.808C243.986 73.608 243.546 74.016 242.962 74.152L242.794 73.776C242.97 73.728 243.13 73.632 243.274 73.48C243.41 73.328 243.466 73.168 243.434 73ZM248.432 73H247.736V71.856H244.312V71.392L247.816 67.4H248.432V71.208H249.472V71.856H248.432V73ZM247.736 68.52L245.272 71.208H247.736V68.52Z" fill="#2A3C3C"/>
<path d="M236.609 73H235.913V71.856H232.489V71.392L235.993 67.4H236.609V71.208H237.649V71.856H236.609V73ZM235.913 68.52L233.449 71.208H235.913V68.52ZM238.592 69.032L237.992 68.76C238.288 67.896 239.064 67.328 240.224 67.328C240.776 67.328 241.232 67.456 241.584 67.712C241.936 67.968 242.112 68.312 242.112 68.736C242.112 69.384 241.768 69.864 241.128 70.048C241.744 70.088 242.24 70.552 242.24 71.384C242.24 71.912 242.048 72.328 241.664 72.624C241.28 72.92 240.792 73.072 240.192 73.072C238.968 73.072 238.12 72.488 237.84 71.568L238.488 71.288C238.832 72.016 239.416 72.384 240.24 72.384C241.016 72.384 241.504 72.024 241.504 71.392C241.504 70.776 241.024 70.464 240.064 70.464H239.44V69.8H239.936C240.808 69.8 241.376 69.408 241.376 68.872C241.376 68.32 240.92 68.008 240.192 68.008C239.336 68.008 238.816 68.448 238.592 69.032ZM243.434 73C243.138 73.032 242.914 72.864 242.914 72.576C242.914 72.296 243.09 72.12 243.402 72.12C243.754 72.12 243.986 72.36 243.986 72.808C243.986 73.608 243.546 74.016 242.962 74.152L242.794 73.776C242.97 73.728 243.13 73.632 243.274 73.48C243.41 73.328 243.466 73.168 243.434 73ZM248.432 73H247.736V71.856H244.312V71.392L247.816 67.4H248.432V71.208H249.472V71.856H248.432V73ZM247.736 68.52L245.272 71.208H247.736V68.52Z" fill="#1A3341"/>
<circle cx="270.051" cy="84.5763" r="4.19352" fill="#6D73F9" stroke="white"/>
<path d="M265.719 74H265.023V72.856H261.599V72.392L265.103 68.4H265.719V72.208H266.759V72.856H265.719V74ZM265.023 69.52L262.559 72.208H265.023V69.52ZM267.702 70.032L267.102 69.76C267.398 68.896 268.174 68.328 269.334 68.328C269.886 68.328 270.342 68.456 270.694 68.712C271.046 68.968 271.222 69.312 271.222 69.736C271.222 70.384 270.878 70.864 270.238 71.048C270.854 71.088 271.35 71.552 271.35 72.384C271.35 72.912 271.158 73.328 270.774 73.624C270.39 73.92 269.902 74.072 269.302 74.072C268.078 74.072 267.23 73.488 266.95 72.568L267.598 72.288C267.942 73.016 268.526 73.384 269.35 73.384C270.126 73.384 270.614 73.024 270.614 72.392C270.614 71.776 270.134 71.464 269.174 71.464H268.55V70.8H269.046C269.918 70.8 270.486 70.408 270.486 69.872C270.486 69.32 270.03 69.008 269.302 69.008C268.446 69.008 267.926 69.448 267.702 70.032ZM272.543 74C272.247 74.032 272.023 73.864 272.023 73.576C272.023 73.296 272.199 73.12 272.511 73.12C272.863 73.12 273.095 73.36 273.095 73.808C273.095 74.608 272.655 75.016 272.071 75.152L271.903 74.776C272.079 74.728 272.239 74.632 272.383 74.48C272.519 74.328 272.575 74.168 272.543 74ZM273.613 69.888L273.357 69.288L275.277 68.368H275.733V74H275.045V69.224L273.613 69.888Z" fill="#2A3C3C"/>
<path d="M265.719 74H265.023V72.856H261.599V72.392L265.103 68.4H265.719V72.208H266.759V72.856H265.719V74ZM265.023 69.52L262.559 72.208H265.023V69.52ZM267.702 70.032L267.102 69.76C267.398 68.896 268.174 68.328 269.334 68.328C269.886 68.328 270.342 68.456 270.694 68.712C271.046 68.968 271.222 69.312 271.222 69.736C271.222 70.384 270.878 70.864 270.238 71.048C270.854 71.088 271.35 71.552 271.35 72.384C271.35 72.912 271.158 73.328 270.774 73.624C270.39 73.92 269.902 74.072 269.302 74.072C268.078 74.072 267.23 73.488 266.95 72.568L267.598 72.288C267.942 73.016 268.526 73.384 269.35 73.384C270.126 73.384 270.614 73.024 270.614 72.392C270.614 71.776 270.134 71.464 269.174 71.464H268.55V70.8H269.046C269.918 70.8 270.486 70.408 270.486 69.872C270.486 69.32 270.03 69.008 269.302 69.008C268.446 69.008 267.926 69.448 267.702 70.032ZM272.543 74C272.247 74.032 272.023 73.864 272.023 73.576C272.023 73.296 272.199 73.12 272.511 73.12C272.863 73.12 273.095 73.36 273.095 73.808C273.095 74.608 272.655 75.016 272.071 75.152L271.903 74.776C272.079 74.728 272.239 74.632 272.383 74.48C272.519 74.328 272.575 74.168 272.543 74ZM273.613 69.888L273.357 69.288L275.277 68.368H275.733V74H275.045V69.224L273.613 69.888Z" fill="#1A3341"/>
<circle cx="298.799" cy="73.4289" r="4.19352" fill="#6D73F9" stroke="white"/>
<path d="M293.629 63H292.933V61.856H289.509V61.392L293.013 57.4H293.629V61.208H294.669V61.856H293.629V63ZM292.933 58.52L290.469 61.208H292.933V58.52ZM298.924 63H298.228V61.856H294.804V61.392L298.308 57.4H298.924V61.208H299.964V61.856H298.924V63ZM298.228 58.52L295.764 61.208H298.228V58.52ZM300.891 63C300.595 63.032 300.371 62.864 300.371 62.576C300.371 62.296 300.547 62.12 300.859 62.12C301.211 62.12 301.443 62.36 301.443 62.808C301.443 63.608 301.003 64.016 300.419 64.152L300.251 63.776C300.427 63.728 300.587 63.632 300.731 63.48C300.867 63.328 300.923 63.168 300.891 63ZM302.665 59.248L302.081 59.04C302.281 58.048 303.033 57.336 304.225 57.336C305.377 57.336 306.081 58 306.081 59.016C306.081 59.552 305.849 60.088 305.561 60.472C305.417 60.672 305.233 60.864 305.017 61.064C304.577 61.456 304.265 61.664 303.809 61.952L303.193 62.336H306.289V63H301.929V62.456L303.145 61.648C303.361 61.512 303.513 61.408 303.601 61.344C303.689 61.288 303.833 61.184 304.025 61.048C304.217 60.912 304.361 60.792 304.457 60.704C304.545 60.616 304.665 60.504 304.801 60.36C305.169 59.96 305.305 59.592 305.345 59.088C305.345 58.36 304.873 58.032 304.177 58.032C303.745 58.032 303.401 58.152 303.153 58.392C302.905 58.632 302.737 58.92 302.665 59.248Z" fill="#2A3C3C"/>
<path d="M293.629 63H292.933V61.856H289.509V61.392L293.013 57.4H293.629V61.208H294.669V61.856H293.629V63ZM292.933 58.52L290.469 61.208H292.933V58.52ZM298.924 63H298.228V61.856H294.804V61.392L298.308 57.4H298.924V61.208H299.964V61.856H298.924V63ZM298.228 58.52L295.764 61.208H298.228V58.52ZM300.891 63C300.595 63.032 300.371 62.864 300.371 62.576C300.371 62.296 300.547 62.12 300.859 62.12C301.211 62.12 301.443 62.36 301.443 62.808C301.443 63.608 301.003 64.016 300.419 64.152L300.251 63.776C300.427 63.728 300.587 63.632 300.731 63.48C300.867 63.328 300.923 63.168 300.891 63ZM302.665 59.248L302.081 59.04C302.281 58.048 303.033 57.336 304.225 57.336C305.377 57.336 306.081 58 306.081 59.016C306.081 59.552 305.849 60.088 305.561 60.472C305.417 60.672 305.233 60.864 305.017 61.064C304.577 61.456 304.265 61.664 303.809 61.952L303.193 62.336H306.289V63H301.929V62.456L303.145 61.648C303.361 61.512 303.513 61.408 303.601 61.344C303.689 61.288 303.833 61.184 304.025 61.048C304.217 60.912 304.361 60.792 304.457 60.704C304.545 60.616 304.665 60.504 304.801 60.36C305.169 59.96 305.305 59.592 305.345 59.088C305.345 58.36 304.873 58.032 304.177 58.032C303.745 58.032 303.401 58.152 303.153 58.392C302.905 58.632 302.737 58.92 302.665 59.248Z" fill="#1A3341"/>
<circle cx="327.546" cy="70.4953" r="4.19352" fill="#6D73F9" stroke="white"/>
<path d="M322.391 60H321.694V58.856H318.27V58.392L321.775 54.4H322.391V58.208H323.431V58.856H322.391V60ZM321.694 55.52L319.23 58.208H321.694V55.52ZM327.686 60H326.99V58.856H323.565V58.392L327.07 54.4H327.686V58.208H328.726V58.856H327.686V60ZM326.99 55.52L324.526 58.208H326.99V55.52ZM329.653 60C329.357 60.032 329.133 59.864 329.133 59.576C329.133 59.296 329.309 59.12 329.621 59.12C329.973 59.12 330.205 59.36 330.205 59.808C330.205 60.608 329.765 61.016 329.181 61.152L329.013 60.776C329.189 60.728 329.349 60.632 329.493 60.48C329.629 60.328 329.685 60.168 329.653 60ZM334.651 60H333.955V58.856H330.531V58.392L334.035 54.4H334.651V58.208H335.691V58.856H334.651V60ZM333.955 55.52L331.491 58.208H333.955V55.52Z" fill="#2A3C3C"/>
<path d="M322.391 60H321.694V58.856H318.27V58.392L321.775 54.4H322.391V58.208H323.431V58.856H322.391V60ZM321.694 55.52L319.23 58.208H321.694V55.52ZM327.686 60H326.99V58.856H323.565V58.392L327.07 54.4H327.686V58.208H328.726V58.856H327.686V60ZM326.99 55.52L324.526 58.208H326.99V55.52ZM329.653 60C329.357 60.032 329.133 59.864 329.133 59.576C329.133 59.296 329.309 59.12 329.621 59.12C329.973 59.12 330.205 59.36 330.205 59.808C330.205 60.608 329.765 61.016 329.181 61.152L329.013 60.776C329.189 60.728 329.349 60.632 329.493 60.48C329.629 60.328 329.685 60.168 329.653 60ZM334.651 60H333.955V58.856H330.531V58.392L334.035 54.4H334.651V58.208H335.691V58.856H334.651V60ZM333.955 55.52L331.491 58.208H333.955V55.52Z" fill="#1A3341"/>
<defs>
<linearGradient id="paint0_linear_6001_19543" x1="168" y1="18" x2="168" y2="136" gradientUnits="userSpaceOnUse">
<stop stop-color="#6D73F9"/>
<stop offset="1" stop-color="white"/>
</linearGradient>
</defs>
</svg>
