<svg width="1120" height="329" viewBox="0 0 1120 329" fill="none" xmlns="http://www.w3.org/2000/svg">
<line x1="-4.37114e-08" y1="294.5" x2="1106.17" y2="294.5" stroke="#ABBEC9"/>
<path d="M43.2354 56.492L42.2274 56.226L42.8014 51.2H48.9614V52.39H43.8794L43.5154 55.022C44.0054 54.658 44.7474 54.476 45.7414 54.476C46.8894 54.476 47.7854 54.784 48.4434 55.386C49.0874 56.002 49.4094 56.786 49.4094 57.752C49.4094 58.718 49.0454 59.53 48.3314 60.16C47.6034 60.804 46.6934 61.126 45.6154 61.126C43.7814 61.126 42.2554 60.258 41.6254 58.732L42.7454 58.256C43.1514 59.194 44.2014 59.936 45.6154 59.936C47.2254 59.936 48.1214 59.012 48.1214 57.794C48.1214 56.492 47.0714 55.652 45.4054 55.652C44.5094 55.652 43.7814 55.932 43.2354 56.492ZM51.4101 61C50.8921 61.056 50.5001 60.762 50.5001 60.258C50.5001 59.768 50.8081 59.46 51.3541 59.46C51.9701 59.46 52.3761 59.88 52.3761 60.664C52.3761 62.064 51.6061 62.778 50.5841 63.016L50.2901 62.358C50.5981 62.274 50.8781 62.106 51.1301 61.84C51.3681 61.574 51.4661 61.294 51.4101 61ZM53.3946 56.366C53.3946 54.672 53.8146 53.37 54.6406 52.446C55.4666 51.536 56.5026 51.074 57.7486 51.074C59.3866 51.074 60.6746 51.816 61.2206 52.992L60.2686 53.636C59.6946 52.726 58.8406 52.278 57.6926 52.278C56.8246 52.278 56.0966 52.614 55.5086 53.286C54.9206 53.972 54.6266 54.896 54.6406 56.086C55.1866 55.064 56.4606 54.448 57.8606 54.448C58.9946 54.448 59.9046 54.742 60.5626 55.344C61.2206 55.946 61.5566 56.744 61.5566 57.724C61.5566 58.718 61.1926 59.544 60.4506 60.174C59.7086 60.804 58.7846 61.126 57.6786 61.126C55.0326 61.126 53.3946 59.404 53.3946 56.366ZM54.7946 57.556C55.0606 58.942 56.1106 59.922 57.6646 59.922C58.4206 59.922 59.0506 59.726 59.5406 59.32C60.0306 58.928 60.2686 58.41 60.2686 57.78C60.2686 56.394 59.2886 55.652 57.7906 55.652C56.9646 55.652 56.2786 55.848 55.7466 56.24C55.2006 56.632 54.8926 57.066 54.7946 57.556Z" fill="#1A3341"/>
<path d="M27.6543 73C27.6543 71.8954 28.5497 71 29.6543 71H73.6543C74.7589 71 75.6543 71.8954 75.6543 73V295H27.6543V73Z" fill="url(#paint0_linear_792_18364)"/>
<path opacity="0.2" d="M39.6543 71H63.6543V295H39.6543V71Z" fill="url(#paint1_linear_792_18364)"/>
<path opacity="0.04" d="M63.6543 71H73.6543C74.7589 71 75.6543 71.8954 75.6543 73V295H63.6543V71Z" fill="#0D262C"/>
<path opacity="0.5" d="M27.6543 73C27.6543 71.8954 28.5497 71 29.6543 71H39.6543V295H27.6543V73Z" fill="url(#paint2_linear_792_18364)"/>
<path d="M105.711 64.492L104.703 64.226L105.277 59.2H111.437V60.39H106.355L105.991 63.022C106.481 62.658 107.223 62.476 108.217 62.476C109.365 62.476 110.261 62.784 110.919 63.386C111.563 64.002 111.885 64.786 111.885 65.752C111.885 66.718 111.521 67.53 110.807 68.16C110.079 68.804 109.169 69.126 108.091 69.126C106.257 69.126 104.731 68.258 104.101 66.732L105.221 66.256C105.627 67.194 106.677 67.936 108.091 67.936C109.701 67.936 110.597 67.012 110.597 65.794C110.597 64.492 109.547 63.652 107.881 63.652C106.985 63.652 106.257 63.932 105.711 64.492ZM113.885 69C113.367 69.056 112.975 68.762 112.975 68.258C112.975 67.768 113.283 67.46 113.829 67.46C114.445 67.46 114.851 67.88 114.851 68.664C114.851 70.064 114.081 70.778 113.059 71.016L112.765 70.358C113.073 70.274 113.353 70.106 113.605 69.84C113.843 69.574 113.941 69.294 113.885 69ZM117.298 64.492L116.29 64.226L116.864 59.2H123.024V60.39H117.942L117.578 63.022C118.068 62.658 118.81 62.476 119.804 62.476C120.952 62.476 121.848 62.784 122.506 63.386C123.15 64.002 123.472 64.786 123.472 65.752C123.472 66.718 123.108 67.53 122.394 68.16C121.666 68.804 120.756 69.126 119.678 69.126C117.844 69.126 116.318 68.258 115.688 66.732L116.808 66.256C117.214 67.194 118.264 67.936 119.678 67.936C121.288 67.936 122.184 67.012 122.184 65.794C122.184 64.492 121.134 63.652 119.468 63.652C118.572 63.652 117.844 63.932 117.298 64.492Z" fill="#2A3C3C"/>
<path d="M105.711 64.492L104.703 64.226L105.277 59.2H111.437V60.39H106.355L105.991 63.022C106.481 62.658 107.223 62.476 108.217 62.476C109.365 62.476 110.261 62.784 110.919 63.386C111.563 64.002 111.885 64.786 111.885 65.752C111.885 66.718 111.521 67.53 110.807 68.16C110.079 68.804 109.169 69.126 108.091 69.126C106.257 69.126 104.731 68.258 104.101 66.732L105.221 66.256C105.627 67.194 106.677 67.936 108.091 67.936C109.701 67.936 110.597 67.012 110.597 65.794C110.597 64.492 109.547 63.652 107.881 63.652C106.985 63.652 106.257 63.932 105.711 64.492ZM113.885 69C113.367 69.056 112.975 68.762 112.975 68.258C112.975 67.768 113.283 67.46 113.829 67.46C114.445 67.46 114.851 67.88 114.851 68.664C114.851 70.064 114.081 70.778 113.059 71.016L112.765 70.358C113.073 70.274 113.353 70.106 113.605 69.84C113.843 69.574 113.941 69.294 113.885 69ZM117.298 64.492L116.29 64.226L116.864 59.2H123.024V60.39H117.942L117.578 63.022C118.068 62.658 118.81 62.476 119.804 62.476C120.952 62.476 121.848 62.784 122.506 63.386C123.15 64.002 123.472 64.786 123.472 65.752C123.472 66.718 123.108 67.53 122.394 68.16C121.666 68.804 120.756 69.126 119.678 69.126C117.844 69.126 116.318 68.258 115.688 66.732L116.808 66.256C117.214 67.194 118.264 67.936 119.678 67.936C121.288 67.936 122.184 67.012 122.184 65.794C122.184 64.492 121.134 63.652 119.468 63.652C118.572 63.652 117.844 63.932 117.298 64.492Z" fill="#1A3341"/>
<path d="M89.8765 81C89.8765 79.8954 90.7719 79 91.8765 79H135.876C136.981 79 137.876 79.8954 137.876 81V295H89.8765V81Z" fill="url(#paint3_linear_792_18364)"/>
<path opacity="0.2" d="M101.876 79H125.876V295H101.876V79Z" fill="url(#paint4_linear_792_18364)"/>
<path opacity="0.04" d="M125.876 79H135.876C136.981 79 137.876 79.8954 137.876 81V295H125.876V79Z" fill="#0D262C"/>
<path opacity="0.5" d="M89.8765 81C89.8765 79.8954 90.7719 79 91.8765 79H101.876V295H89.8765V81Z" fill="url(#paint5_linear_792_18364)"/>
<path d="M458.807 205.804L458.359 204.754L461.719 203.144H462.517V213H461.313V204.642L458.807 205.804ZM465.241 213C464.723 213.056 464.331 212.762 464.331 212.258C464.331 211.768 464.639 211.46 465.185 211.46C465.801 211.46 466.207 211.88 466.207 212.664C466.207 214.064 465.437 214.778 464.415 215.016L464.121 214.358C464.429 214.274 464.709 214.106 464.961 213.84C465.199 213.574 465.297 213.294 465.241 213ZM472.839 204.39H466.903V203.2H474.337V203.998L469.465 213H468.135L472.839 204.39Z" fill="#1A3341"/>
<path d="M442.469 225C442.469 223.895 443.365 223 444.469 223H488.469C489.574 223 490.469 223.895 490.469 225V295H442.469V225Z" fill="url(#paint6_linear_792_18364)"/>
<path opacity="0.2" d="M454.469 223H478.469V295H454.469V223Z" fill="url(#paint7_linear_792_18364)"/>
<path opacity="0.04" d="M478.469 223H488.469C489.574 223 490.469 223.895 490.469 225V295H478.469V223Z" fill="#0D262C"/>
<path opacity="0.5" d="M442.469 225C442.469 223.895 443.365 223 444.469 223H454.469V295H442.469V225Z" fill="url(#paint8_linear_792_18364)"/>
<path d="M520.359 201.804L519.911 200.754L523.271 199.144H524.069V209H522.865V200.642L520.359 201.804ZM526.793 209C526.275 209.056 525.883 208.762 525.883 208.258C525.883 207.768 526.191 207.46 526.737 207.46C527.353 207.46 527.759 207.88 527.759 208.664C527.759 210.064 526.989 210.778 525.967 211.016L525.673 210.358C525.981 210.274 526.261 210.106 526.513 209.84C526.751 209.574 526.849 209.294 526.793 209ZM532.641 203.414H533.075C533.705 203.414 534.223 203.26 534.657 202.966C535.077 202.672 535.287 202.28 535.287 201.818C535.287 200.768 534.461 200.236 532.823 200.236C531.255 200.236 530.401 200.81 530.401 201.818C530.401 202.728 531.339 203.414 532.641 203.414ZM533.047 204.52H532.697C531.941 204.52 531.311 204.688 530.821 205.01C530.331 205.332 530.079 205.738 530.079 206.228C530.079 207.292 531.059 207.964 532.837 207.964C534.643 207.964 535.609 207.32 535.609 206.242C535.609 205.164 534.573 204.52 533.047 204.52ZM535.805 208.37C535.091 208.874 534.097 209.126 532.851 209.126C531.605 209.126 530.611 208.874 529.883 208.384C529.155 207.894 528.791 207.222 528.791 206.354C528.791 205.22 529.533 204.324 530.723 203.932C529.645 203.582 529.113 202.728 529.113 201.734C529.113 200.11 530.485 199.074 532.837 199.074C535.203 199.074 536.575 200.11 536.575 201.734C536.575 202.672 536.057 203.386 535.021 203.862C536.267 204.24 536.883 205.052 536.883 206.298C536.883 207.18 536.519 207.88 535.805 208.37Z" fill="#2A3C3C"/>
<path d="M520.359 201.804L519.911 200.754L523.271 199.144H524.069V209H522.865V200.642L520.359 201.804ZM526.793 209C526.275 209.056 525.883 208.762 525.883 208.258C525.883 207.768 526.191 207.46 526.737 207.46C527.353 207.46 527.759 207.88 527.759 208.664C527.759 210.064 526.989 210.778 525.967 211.016L525.673 210.358C525.981 210.274 526.261 210.106 526.513 209.84C526.751 209.574 526.849 209.294 526.793 209ZM532.641 203.414H533.075C533.705 203.414 534.223 203.26 534.657 202.966C535.077 202.672 535.287 202.28 535.287 201.818C535.287 200.768 534.461 200.236 532.823 200.236C531.255 200.236 530.401 200.81 530.401 201.818C530.401 202.728 531.339 203.414 532.641 203.414ZM533.047 204.52H532.697C531.941 204.52 531.311 204.688 530.821 205.01C530.331 205.332 530.079 205.738 530.079 206.228C530.079 207.292 531.059 207.964 532.837 207.964C534.643 207.964 535.609 207.32 535.609 206.242C535.609 205.164 534.573 204.52 533.047 204.52ZM535.805 208.37C535.091 208.874 534.097 209.126 532.851 209.126C531.605 209.126 530.611 208.874 529.883 208.384C529.155 207.894 528.791 207.222 528.791 206.354C528.791 205.22 529.533 204.324 530.723 203.932C529.645 203.582 529.113 202.728 529.113 201.734C529.113 200.11 530.485 199.074 532.837 199.074C535.203 199.074 536.575 200.11 536.575 201.734C536.575 202.672 536.057 203.386 535.021 203.862C536.267 204.24 536.883 205.052 536.883 206.298C536.883 207.18 536.519 207.88 535.805 208.37Z" fill="#1A3341"/>
<path d="M504.691 221C504.691 219.895 505.587 219 506.691 219H550.691C551.796 219 552.691 219.895 552.691 221V295H504.691V221Z" fill="url(#paint9_linear_792_18364)"/>
<path opacity="0.2" d="M516.691 219H540.691V295H516.691V219Z" fill="url(#paint10_linear_792_18364)"/>
<path opacity="0.04" d="M540.691 219H550.691C551.796 219 552.691 219.895 552.691 221V295H540.691V219Z" fill="#0D262C"/>
<path opacity="0.5" d="M504.691 221C504.691 219.895 505.587 219 506.691 219H516.691V295H504.691V221Z" fill="url(#paint11_linear_792_18364)"/>
<path d="M186.492 119H185.274V116.998H179.282V116.186L185.414 109.2H186.492V115.864H188.312V116.998H186.492V119ZM185.274 111.16L180.962 115.864H185.274V111.16ZM189.935 119C189.417 119.056 189.025 118.762 189.025 118.258C189.025 117.768 189.333 117.46 189.879 117.46C190.495 117.46 190.901 117.88 190.901 118.664C190.901 120.064 190.131 120.778 189.109 121.016L188.815 120.358C189.123 120.274 189.403 120.106 189.655 119.84C189.893 119.574 189.991 119.294 189.935 119ZM198.681 119H197.463V116.998H191.471V116.186L197.603 109.2H198.681V115.864H200.501V116.998H198.681V119ZM197.463 111.16L193.151 115.864H197.463V111.16Z" fill="#1A3341"/>
<path d="M165.926 131C165.926 129.895 166.821 129 167.926 129H211.926C213.03 129 213.926 129.895 213.926 131V295H165.926V131Z" fill="url(#paint12_linear_792_18364)"/>
<path opacity="0.2" d="M177.926 129H201.926V295H177.926V129Z" fill="url(#paint13_linear_792_18364)"/>
<path opacity="0.04" d="M201.926 129H211.926C213.03 129 213.926 129.895 213.926 131V295H201.926V129Z" fill="#0D262C"/>
<path opacity="0.5" d="M165.926 131C165.926 129.895 166.821 129 167.926 129H177.926V295H165.926V131Z" fill="url(#paint14_linear_792_18364)"/>
<path d="M249.097 121H247.879V118.998H241.887V118.186L248.019 111.2H249.097V117.864H250.917V118.998H249.097V121ZM247.879 113.16L243.567 117.864H247.879V113.16ZM252.54 121C252.022 121.056 251.63 120.762 251.63 120.258C251.63 119.768 251.938 119.46 252.484 119.46C253.1 119.46 253.506 119.88 253.506 120.664C253.506 122.064 252.736 122.778 251.714 123.016L251.42 122.358C251.728 122.274 252.008 122.106 252.26 121.84C252.498 121.574 252.596 121.294 252.54 121ZM255.49 114.056L254.44 113.58C254.958 112.068 256.316 111.074 258.346 111.074C259.312 111.074 260.11 111.298 260.726 111.746C261.342 112.194 261.65 112.796 261.65 113.538C261.65 114.672 261.048 115.512 259.928 115.834C261.006 115.904 261.874 116.716 261.874 118.172C261.874 119.096 261.538 119.824 260.866 120.342C260.194 120.86 259.34 121.126 258.29 121.126C256.148 121.126 254.664 120.104 254.174 118.494L255.308 118.004C255.91 119.278 256.932 119.922 258.374 119.922C259.732 119.922 260.586 119.292 260.586 118.186C260.586 117.108 259.746 116.562 258.066 116.562H256.974V115.4H257.842C259.368 115.4 260.362 114.714 260.362 113.776C260.362 112.81 259.564 112.264 258.29 112.264C256.792 112.264 255.882 113.034 255.49 114.056Z" fill="#2A3C3C"/>
<path d="M249.097 121H247.879V118.998H241.887V118.186L248.019 111.2H249.097V117.864H250.917V118.998H249.097V121ZM247.879 113.16L243.567 117.864H247.879V113.16ZM252.54 121C252.022 121.056 251.63 120.762 251.63 120.258C251.63 119.768 251.938 119.46 252.484 119.46C253.1 119.46 253.506 119.88 253.506 120.664C253.506 122.064 252.736 122.778 251.714 123.016L251.42 122.358C251.728 122.274 252.008 122.106 252.26 121.84C252.498 121.574 252.596 121.294 252.54 121ZM255.49 114.056L254.44 113.58C254.958 112.068 256.316 111.074 258.346 111.074C259.312 111.074 260.11 111.298 260.726 111.746C261.342 112.194 261.65 112.796 261.65 113.538C261.65 114.672 261.048 115.512 259.928 115.834C261.006 115.904 261.874 116.716 261.874 118.172C261.874 119.096 261.538 119.824 260.866 120.342C260.194 120.86 259.34 121.126 258.29 121.126C256.148 121.126 254.664 120.104 254.174 118.494L255.308 118.004C255.91 119.278 256.932 119.922 258.374 119.922C259.732 119.922 260.586 119.292 260.586 118.186C260.586 117.108 259.746 116.562 258.066 116.562H256.974V115.4H257.842C259.368 115.4 260.362 114.714 260.362 113.776C260.362 112.81 259.564 112.264 258.29 112.264C256.792 112.264 255.882 113.034 255.49 114.056Z" fill="#1A3341"/>
<path d="M228.148 133C228.148 131.895 229.043 131 230.148 131H274.148C275.253 131 276.148 131.895 276.148 133V295H228.148V133Z" fill="url(#paint15_linear_792_18364)"/>
<path opacity="0.2" d="M240.148 131H264.148V295H240.148V131Z" fill="url(#paint16_linear_792_18364)"/>
<path opacity="0.04" d="M264.148 131H274.148C275.253 131 276.148 131.895 276.148 133V295H264.148V131Z" fill="#0D262C"/>
<path opacity="0.5" d="M228.148 133C228.148 131.895 229.043 131 230.148 131H240.148V295H228.148V133Z" fill="url(#paint17_linear_792_18364)"/>
<path d="M598.316 229.804L597.868 228.754L601.228 227.144H602.026V237H600.822V228.642L598.316 229.804ZM604.749 237C604.231 237.056 603.839 236.762 603.839 236.258C603.839 235.768 604.147 235.46 604.693 235.46C605.309 235.46 605.715 235.88 605.715 236.664C605.715 238.064 604.945 238.778 603.923 239.016L603.629 238.358C603.937 238.274 604.217 238.106 604.469 237.84C604.707 237.574 604.805 237.294 604.749 237ZM606.622 229.804L606.174 228.754L609.534 227.144H610.332V237H609.128V228.642L606.622 229.804Z" fill="#1A3341"/>
<path d="M580.741 249C580.741 247.895 581.636 247 582.741 247H626.741C627.845 247 628.741 247.895 628.741 249V295H580.741V249Z" fill="url(#paint18_linear_792_18364)"/>
<path opacity="0.2" d="M592.741 247H616.741V295H592.741V247Z" fill="url(#paint19_linear_792_18364)"/>
<path opacity="0.04" d="M616.741 247H626.741C627.845 247 628.741 247.895 628.741 249V295H616.741V247Z" fill="#0D262C"/>
<path opacity="0.5" d="M580.741 249C580.741 247.895 581.636 247 582.741 247H592.741V295H580.741V249Z" fill="url(#paint20_linear_792_18364)"/>
<path d="M658.98 225.804L658.532 224.754L661.892 223.144H662.69V233H661.486V224.642L658.98 225.804ZM665.413 233C664.895 233.056 664.503 232.762 664.503 232.258C664.503 231.768 664.811 231.46 665.357 231.46C665.973 231.46 666.379 231.88 666.379 232.664C666.379 234.064 665.609 234.778 664.587 235.016L664.293 234.358C664.601 234.274 664.881 234.106 665.133 233.84C665.371 233.574 665.469 233.294 665.413 233ZM668.364 226.056L667.314 225.58C667.832 224.068 669.19 223.074 671.22 223.074C672.186 223.074 672.984 223.298 673.6 223.746C674.216 224.194 674.524 224.796 674.524 225.538C674.524 226.672 673.922 227.512 672.802 227.834C673.88 227.904 674.748 228.716 674.748 230.172C674.748 231.096 674.412 231.824 673.74 232.342C673.068 232.86 672.214 233.126 671.164 233.126C669.022 233.126 667.538 232.104 667.048 230.494L668.182 230.004C668.784 231.278 669.806 231.922 671.248 231.922C672.606 231.922 673.46 231.292 673.46 230.186C673.46 229.108 672.62 228.562 670.94 228.562H669.848V227.4H670.716C672.242 227.4 673.236 226.714 673.236 225.776C673.236 224.81 672.438 224.264 671.164 224.264C669.666 224.264 668.756 225.034 668.364 226.056Z" fill="#2A3C3C"/>
<path d="M658.98 225.804L658.532 224.754L661.892 223.144H662.69V233H661.486V224.642L658.98 225.804ZM665.413 233C664.895 233.056 664.503 232.762 664.503 232.258C664.503 231.768 664.811 231.46 665.357 231.46C665.973 231.46 666.379 231.88 666.379 232.664C666.379 234.064 665.609 234.778 664.587 235.016L664.293 234.358C664.601 234.274 664.881 234.106 665.133 233.84C665.371 233.574 665.469 233.294 665.413 233ZM668.364 226.056L667.314 225.58C667.832 224.068 669.19 223.074 671.22 223.074C672.186 223.074 672.984 223.298 673.6 223.746C674.216 224.194 674.524 224.796 674.524 225.538C674.524 226.672 673.922 227.512 672.802 227.834C673.88 227.904 674.748 228.716 674.748 230.172C674.748 231.096 674.412 231.824 673.74 232.342C673.068 232.86 672.214 233.126 671.164 233.126C669.022 233.126 667.538 232.104 667.048 230.494L668.182 230.004C668.784 231.278 669.806 231.922 671.248 231.922C672.606 231.922 673.46 231.292 673.46 230.186C673.46 229.108 672.62 228.562 670.94 228.562H669.848V227.4H670.716C672.242 227.4 673.236 226.714 673.236 225.776C673.236 224.81 672.438 224.264 671.164 224.264C669.666 224.264 668.756 225.034 668.364 226.056Z" fill="#1A3341"/>
<path d="M642.963 245C642.963 243.895 643.858 243 644.963 243H688.963C690.067 243 690.963 243.895 690.963 245V295H642.963V245Z" fill="url(#paint21_linear_792_18364)"/>
<path opacity="0.2" d="M654.963 243H678.963V295H654.963V243Z" fill="url(#paint22_linear_792_18364)"/>
<path opacity="0.04" d="M678.963 243H688.963C690.067 243 690.963 243.895 690.963 245V295H678.963V243Z" fill="#0D262C"/>
<path opacity="0.5" d="M642.963 245C642.963 243.895 643.858 243 644.963 243H654.963V295H642.963V245Z" fill="url(#paint23_linear_792_18364)"/>
<path d="M319.84 174.434L318.818 174.07C319.168 172.334 320.484 171.088 322.57 171.088C324.586 171.088 325.818 172.25 325.818 174.028C325.818 174.966 325.412 175.904 324.908 176.576C324.656 176.926 324.334 177.262 323.956 177.612C323.186 178.298 322.64 178.662 321.842 179.166L320.764 179.838H326.182V181H318.552V180.048L320.68 178.634C321.058 178.396 321.324 178.214 321.478 178.102C321.632 178.004 321.884 177.822 322.22 177.584C322.556 177.346 322.808 177.136 322.976 176.982C323.13 176.828 323.34 176.632 323.578 176.38C324.222 175.68 324.46 175.036 324.53 174.154C324.53 172.88 323.704 172.306 322.486 172.306C321.73 172.306 321.128 172.516 320.694 172.936C320.26 173.356 319.966 173.86 319.84 174.434ZM328.09 181C327.572 181.056 327.18 180.762 327.18 180.258C327.18 179.768 327.488 179.46 328.034 179.46C328.65 179.46 329.056 179.88 329.056 180.664C329.056 182.064 328.286 182.778 327.264 183.016L326.97 182.358C327.278 182.274 327.558 182.106 327.81 181.84C328.048 181.574 328.146 181.294 328.09 181ZM331.503 176.492L330.495 176.226L331.069 171.2H337.229V172.39H332.147L331.783 175.022C332.273 174.658 333.015 174.476 334.009 174.476C335.157 174.476 336.053 174.784 336.711 175.386C337.355 176.002 337.677 176.786 337.677 177.752C337.677 178.718 337.313 179.53 336.599 180.16C335.871 180.804 334.961 181.126 333.883 181.126C332.049 181.126 330.523 180.258 329.893 178.732L331.013 178.256C331.419 179.194 332.469 179.936 333.883 179.936C335.493 179.936 336.389 179.012 336.389 177.794C336.389 176.492 335.339 175.652 333.673 175.652C332.777 175.652 332.049 175.932 331.503 176.492Z" fill="#1A3341"/>
<path d="M304.198 193C304.198 191.895 305.093 191 306.198 191H350.198C351.302 191 352.198 191.895 352.198 193V295H304.198V193Z" fill="url(#paint24_linear_792_18364)"/>
<path opacity="0.2" d="M316.198 191H340.198V295H316.198V191Z" fill="url(#paint25_linear_792_18364)"/>
<path opacity="0.04" d="M340.198 191H350.198C351.302 191 352.198 191.895 352.198 193V295H340.198V191Z" fill="#0D262C"/>
<path opacity="0.5" d="M304.198 193C304.198 191.895 305.093 191 306.198 191H316.198V295H304.198V193Z" fill="url(#paint26_linear_792_18364)"/>
<path d="M381.761 178.434L380.739 178.07C381.089 176.334 382.405 175.088 384.491 175.088C386.507 175.088 387.739 176.25 387.739 178.028C387.739 178.966 387.333 179.904 386.829 180.576C386.577 180.926 386.255 181.262 385.877 181.612C385.107 182.298 384.561 182.662 383.763 183.166L382.685 183.838H388.103V185H380.473V184.048L382.601 182.634C382.979 182.396 383.245 182.214 383.399 182.102C383.553 182.004 383.805 181.822 384.141 181.584C384.477 181.346 384.729 181.136 384.897 180.982C385.051 180.828 385.261 180.632 385.499 180.38C386.143 179.68 386.381 179.036 386.451 178.154C386.451 176.88 385.625 176.306 384.407 176.306C383.651 176.306 383.049 176.516 382.615 176.936C382.181 177.356 381.887 177.86 381.761 178.434ZM390.012 185C389.494 185.056 389.102 184.762 389.102 184.258C389.102 183.768 389.41 183.46 389.956 183.46C390.572 183.46 390.978 183.88 390.978 184.664C390.978 186.064 390.208 186.778 389.186 187.016L388.892 186.358C389.2 186.274 389.48 186.106 389.732 185.84C389.97 185.574 390.068 185.294 390.012 185ZM398.758 185H397.54V182.998H391.548V182.186L397.68 175.2H398.758V181.864H400.578V182.998H398.758V185ZM397.54 177.16L393.228 181.864H397.54V177.16Z" fill="#2A3C3C"/>
<path d="M381.761 178.434L380.739 178.07C381.089 176.334 382.405 175.088 384.491 175.088C386.507 175.088 387.739 176.25 387.739 178.028C387.739 178.966 387.333 179.904 386.829 180.576C386.577 180.926 386.255 181.262 385.877 181.612C385.107 182.298 384.561 182.662 383.763 183.166L382.685 183.838H388.103V185H380.473V184.048L382.601 182.634C382.979 182.396 383.245 182.214 383.399 182.102C383.553 182.004 383.805 181.822 384.141 181.584C384.477 181.346 384.729 181.136 384.897 180.982C385.051 180.828 385.261 180.632 385.499 180.38C386.143 179.68 386.381 179.036 386.451 178.154C386.451 176.88 385.625 176.306 384.407 176.306C383.651 176.306 383.049 176.516 382.615 176.936C382.181 177.356 381.887 177.86 381.761 178.434ZM390.012 185C389.494 185.056 389.102 184.762 389.102 184.258C389.102 183.768 389.41 183.46 389.956 183.46C390.572 183.46 390.978 183.88 390.978 184.664C390.978 186.064 390.208 186.778 389.186 187.016L388.892 186.358C389.2 186.274 389.48 186.106 389.732 185.84C389.97 185.574 390.068 185.294 390.012 185ZM398.758 185H397.54V182.998H391.548V182.186L397.68 175.2H398.758V181.864H400.578V182.998H398.758V185ZM397.54 177.16L393.228 181.864H397.54V177.16Z" fill="#1A3341"/>
<path d="M366.42 197C366.42 195.895 367.315 195 368.42 195H412.42C413.524 195 414.42 195.895 414.42 197V295H366.42V197Z" fill="url(#paint27_linear_792_18364)"/>
<path opacity="0.2" d="M378.42 195H402.42V295H378.42V195Z" fill="url(#paint28_linear_792_18364)"/>
<path opacity="0.04" d="M402.42 195H412.42C413.524 195 414.42 195.895 414.42 197V295H402.42V195Z" fill="#0D262C"/>
<path opacity="0.5" d="M366.42 197C366.42 195.895 367.315 195 368.42 195H378.42V295H366.42V197Z" fill="url(#paint29_linear_792_18364)"/>
<path d="M733.063 256.1C733.063 254.588 733.413 253.37 734.127 252.46C734.827 251.55 735.863 251.088 737.221 251.088C740.007 251.088 741.393 252.922 741.393 256.1C741.393 257.626 741.043 258.83 740.357 259.74C739.657 260.65 738.621 261.112 737.249 261.112C735.933 261.112 734.911 260.65 734.169 259.726C733.427 258.802 733.063 257.598 733.063 256.1ZM734.351 256.1C734.351 258.494 735.443 259.922 737.249 259.922C739.153 259.922 740.105 258.648 740.105 256.1C740.105 253.552 739.139 252.278 737.221 252.278C735.275 252.278 734.351 253.678 734.351 256.1ZM743.376 261C742.858 261.056 742.466 260.762 742.466 260.258C742.466 259.768 742.774 259.46 743.32 259.46C743.936 259.46 744.342 259.88 744.342 260.664C744.342 262.064 743.572 262.778 742.55 263.016L742.256 262.358C742.564 262.274 742.844 262.106 743.096 261.84C743.334 261.574 743.432 261.294 743.376 261ZM746.789 256.492L745.781 256.226L746.355 251.2H752.515V252.39H747.433L747.069 255.022C747.559 254.658 748.301 254.476 749.295 254.476C750.443 254.476 751.339 254.784 751.997 255.386C752.641 256.002 752.963 256.786 752.963 257.752C752.963 258.718 752.599 259.53 751.885 260.16C751.157 260.804 750.247 261.126 749.169 261.126C747.335 261.126 745.809 260.258 745.179 258.732L746.299 258.256C746.705 259.194 747.755 259.936 749.169 259.936C750.779 259.936 751.675 259.012 751.675 257.794C751.675 256.492 750.625 255.652 748.959 255.652C748.063 255.652 747.335 255.932 746.789 256.492Z" fill="#1A3341"/>
<path d="M719.012 273C719.012 271.895 719.908 271 721.012 271H765.012C766.117 271 767.012 271.895 767.012 273V295H719.012V273Z" fill="url(#paint30_linear_792_18364)"/>
<path opacity="0.2" d="M731.012 271H755.012V295H731.012V271Z" fill="url(#paint31_linear_792_18364)"/>
<path opacity="0.04" d="M755.012 271H765.012C766.117 271 767.012 271.895 767.012 273V295H755.012V271Z" fill="#0D262C"/>
<path opacity="0.5" d="M719.012 273C719.012 271.895 719.908 271 721.012 271H731.012V295H719.012V273Z" fill="url(#paint32_linear_792_18364)"/>
<path d="M795.032 252.1C795.032 250.588 795.382 249.37 796.096 248.46C796.796 247.55 797.832 247.088 799.19 247.088C801.976 247.088 803.362 248.922 803.362 252.1C803.362 253.626 803.012 254.83 802.326 255.74C801.626 256.65 800.59 257.112 799.218 257.112C797.902 257.112 796.88 256.65 796.138 255.726C795.396 254.802 795.032 253.598 795.032 252.1ZM796.32 252.1C796.32 254.494 797.412 255.922 799.218 255.922C801.122 255.922 802.074 254.648 802.074 252.1C802.074 249.552 801.108 248.278 799.19 248.278C797.244 248.278 796.32 249.678 796.32 252.1ZM805.346 257C804.828 257.056 804.436 256.762 804.436 256.258C804.436 255.768 804.744 255.46 805.29 255.46C805.906 255.46 806.312 255.88 806.312 256.664C806.312 258.064 805.542 258.778 804.52 259.016L804.226 258.358C804.534 258.274 804.814 258.106 805.066 257.84C805.304 257.574 805.402 257.294 805.346 257ZM807.33 252.366C807.33 250.672 807.75 249.37 808.576 248.446C809.402 247.536 810.438 247.074 811.684 247.074C813.322 247.074 814.61 247.816 815.156 248.992L814.204 249.636C813.63 248.726 812.776 248.278 811.628 248.278C810.76 248.278 810.032 248.614 809.444 249.286C808.856 249.972 808.562 250.896 808.576 252.086C809.122 251.064 810.396 250.448 811.796 250.448C812.93 250.448 813.84 250.742 814.498 251.344C815.156 251.946 815.492 252.744 815.492 253.724C815.492 254.718 815.128 255.544 814.386 256.174C813.644 256.804 812.72 257.126 811.614 257.126C808.968 257.126 807.33 255.404 807.33 252.366ZM808.73 253.556C808.996 254.942 810.046 255.922 811.6 255.922C812.356 255.922 812.986 255.726 813.476 255.32C813.966 254.928 814.204 254.41 814.204 253.78C814.204 252.394 813.224 251.652 811.726 251.652C810.9 251.652 810.214 251.848 809.682 252.24C809.136 252.632 808.828 253.066 808.73 253.556Z" fill="#1A3341"/>
<path d="M781.234 269C781.234 267.895 782.13 267 783.234 267H827.234C828.339 267 829.234 267.895 829.234 269V295H781.234V269Z" fill="url(#paint33_linear_792_18364)"/>
<path opacity="0.2" d="M793.234 267H817.234V295H793.234V267Z" fill="url(#paint34_linear_792_18364)"/>
<path opacity="0.04" d="M817.234 267H827.234C828.339 267 829.234 267.895 829.234 269V295H817.234V267Z" fill="#0D262C"/>
<path opacity="0.5" d="M781.234 269C781.234 267.895 782.13 267 783.234 267H793.234V295H781.234V269Z" fill="url(#paint35_linear_792_18364)"/>
<path opacity="0.5" d="M857.284 292C857.284 290.895 858.18 290 859.284 290H869.284V294H857.284V292Z" fill="url(#paint36_linear_792_18364)"/>
<path opacity="0.5" d="M919.506 292C919.506 290.895 920.402 290 921.506 290H931.506V294H919.506V292Z" fill="url(#paint37_linear_792_18364)"/>
<path d="M1009.72 271.1C1009.72 269.588 1010.07 268.37 1010.79 267.46C1011.49 266.55 1012.52 266.088 1013.88 266.088C1016.67 266.088 1018.05 267.922 1018.05 271.1C1018.05 272.626 1017.7 273.83 1017.02 274.74C1016.32 275.65 1015.28 276.112 1013.91 276.112C1012.59 276.112 1011.57 275.65 1010.83 274.726C1010.09 273.802 1009.72 272.598 1009.72 271.1ZM1011.01 271.1C1011.01 273.494 1012.1 274.922 1013.91 274.922C1015.81 274.922 1016.76 273.648 1016.76 271.1C1016.76 268.552 1015.8 267.278 1013.88 267.278C1011.93 267.278 1011.01 268.678 1011.01 271.1ZM1020.04 276C1019.52 276.056 1019.13 275.762 1019.13 275.258C1019.13 274.768 1019.43 274.46 1019.98 274.46C1020.6 274.46 1021 274.88 1021 275.664C1021 277.064 1020.23 277.778 1019.21 278.016L1018.92 277.358C1019.22 277.274 1019.5 277.106 1019.76 276.84C1019.99 276.574 1020.09 276.294 1020.04 276ZM1023.14 269.434L1022.12 269.07C1022.47 267.334 1023.78 266.088 1025.87 266.088C1027.89 266.088 1029.12 267.25 1029.12 269.028C1029.12 269.966 1028.71 270.904 1028.21 271.576C1027.96 271.926 1027.63 272.262 1027.26 272.612C1026.49 273.298 1025.94 273.662 1025.14 274.166L1024.06 274.838H1029.48V276H1021.85V275.048L1023.98 273.634C1024.36 273.396 1024.62 273.214 1024.78 273.102C1024.93 273.004 1025.18 272.822 1025.52 272.584C1025.86 272.346 1026.11 272.136 1026.28 271.982C1026.43 271.828 1026.64 271.632 1026.88 271.38C1027.52 270.68 1027.76 270.036 1027.83 269.154C1027.83 267.88 1027 267.306 1025.79 267.306C1025.03 267.306 1024.43 267.516 1023.99 267.936C1023.56 268.356 1023.27 268.86 1023.14 269.434Z" fill="#1A3341"/>
<path d="M995.556 288C995.556 286.895 996.451 286 997.556 286H1041.56C1042.66 286 1043.56 286.895 1043.56 288V294H995.556V288Z" fill="url(#paint38_linear_792_18364)"/>
<path opacity="0.2" d="M1007.56 286H1031.56V294H1007.56V286Z" fill="url(#paint39_linear_792_18364)"/>
<path opacity="0.04" d="M1031.56 286H1041.56C1042.66 286 1043.56 286.895 1043.56 288V294H1031.56V286Z" fill="#0D262C"/>
<path opacity="0.5" d="M995.556 288C995.556 286.895 996.451 286 997.556 286H1007.56V294H995.556V288Z" fill="url(#paint40_linear_792_18364)"/>
<path d="M1073.47 275.1C1073.47 273.588 1073.82 272.37 1074.53 271.46C1075.23 270.55 1076.27 270.088 1077.63 270.088C1080.41 270.088 1081.8 271.922 1081.8 275.1C1081.8 276.626 1081.45 277.83 1080.76 278.74C1080.06 279.65 1079.03 280.112 1077.66 280.112C1076.34 280.112 1075.32 279.65 1074.58 278.726C1073.83 277.802 1073.47 276.598 1073.47 275.1ZM1074.76 275.1C1074.76 277.494 1075.85 278.922 1077.66 278.922C1079.56 278.922 1080.51 277.648 1080.51 275.1C1080.51 272.552 1079.55 271.278 1077.63 271.278C1075.68 271.278 1074.76 272.678 1074.76 275.1ZM1083.78 280C1083.26 280.056 1082.87 279.762 1082.87 279.258C1082.87 278.768 1083.18 278.46 1083.73 278.46C1084.34 278.46 1084.75 278.88 1084.75 279.664C1084.75 281.064 1083.98 281.778 1082.96 282.016L1082.66 281.358C1082.97 281.274 1083.25 281.106 1083.5 280.84C1083.74 280.574 1083.84 280.294 1083.78 280ZM1085.66 272.804L1085.21 271.754L1088.57 270.144H1089.37V280H1088.16V271.642L1085.66 272.804Z" fill="#2A3C3C"/>
<path d="M1073.47 275.1C1073.47 273.588 1073.82 272.37 1074.53 271.46C1075.23 270.55 1076.27 270.088 1077.63 270.088C1080.41 270.088 1081.8 271.922 1081.8 275.1C1081.8 276.626 1081.45 277.83 1080.76 278.74C1080.06 279.65 1079.03 280.112 1077.66 280.112C1076.34 280.112 1075.32 279.65 1074.58 278.726C1073.83 277.802 1073.47 276.598 1073.47 275.1ZM1074.76 275.1C1074.76 277.494 1075.85 278.922 1077.66 278.922C1079.56 278.922 1080.51 277.648 1080.51 275.1C1080.51 272.552 1079.55 271.278 1077.63 271.278C1075.68 271.278 1074.76 272.678 1074.76 275.1ZM1083.78 280C1083.26 280.056 1082.87 279.762 1082.87 279.258C1082.87 278.768 1083.18 278.46 1083.73 278.46C1084.34 278.46 1084.75 278.88 1084.75 279.664C1084.75 281.064 1083.98 281.778 1082.96 282.016L1082.66 281.358C1082.97 281.274 1083.25 281.106 1083.5 280.84C1083.74 280.574 1083.84 280.294 1083.78 280ZM1085.66 272.804L1085.21 271.754L1088.57 270.144H1089.37V280H1088.16V271.642L1085.66 272.804Z" fill="#1A3341"/>
<path d="M1057.78 292C1057.78 290.895 1058.67 290 1059.78 290H1103.78C1104.88 290 1105.78 290.895 1105.78 292V294H1057.78V292Z" fill="url(#paint41_linear_792_18364)"/>
<path opacity="0.2" d="M1069.78 290H1093.78V294H1069.78V290Z" fill="url(#paint42_linear_792_18364)"/>
<path opacity="0.04" d="M1093.78 290H1103.78C1104.88 290 1105.78 290.895 1105.78 292V294H1093.78V290Z" fill="#0D262C"/>
<path opacity="0.5" d="M1057.78 292C1057.78 290.895 1058.67 290 1059.78 290H1069.78V294H1057.78V292Z" fill="url(#paint43_linear_792_18364)"/>
<line x1="13.8271" y1="294.5" x2="1120" y2="294.5" stroke="#ABBEC9"/>
<path d="M74.6497 306.8C74.6497 305.588 75.0577 304.556 75.8857 303.728C76.7137 302.9 77.7217 302.492 78.9217 302.492C80.1097 302.492 81.1177 302.9 81.9457 303.716C82.7737 304.532 83.1817 305.564 83.1817 306.8C83.1817 307.988 82.7377 309.044 81.8497 309.944L82.6897 310.952L81.9457 311.576L81.0817 310.532C80.3977 310.916 79.6777 311.108 78.9217 311.108C77.6977 311.108 76.6777 310.7 75.8737 309.884C75.0577 309.08 74.6497 308.048 74.6497 306.8ZM75.7897 306.8C75.7897 307.748 76.0897 308.528 76.6897 309.14C77.2897 309.752 78.0337 310.064 78.9217 310.064C79.4617 310.064 79.9537 309.932 80.4217 309.656L79.7017 308.792L80.3977 308.18L81.1657 309.104C81.7537 308.492 82.0417 307.724 82.0417 306.8C82.0417 305.852 81.7417 305.072 81.1417 304.46C80.5417 303.848 79.7977 303.536 78.9217 303.536C78.0337 303.536 77.2897 303.836 76.6897 304.448C76.0897 305.06 75.7897 305.852 75.7897 306.8ZM83.9161 304.832L83.5321 303.932L86.4121 302.552H87.0961V311H86.0641V303.836L83.9161 304.832ZM69.5193 319.372L68.6433 319.06C68.9433 317.572 70.0713 316.504 71.8593 316.504C73.5873 316.504 74.6433 317.5 74.6433 319.024C74.6433 319.828 74.2953 320.632 73.8633 321.208C73.6473 321.508 73.3713 321.796 73.0473 322.096C72.3873 322.684 71.9193 322.996 71.2353 323.428L70.3113 324.004H74.9553V325H68.4153V324.184L70.2393 322.972C70.5633 322.768 70.7913 322.612 70.9233 322.516C71.0553 322.432 71.2713 322.276 71.5593 322.072C71.8473 321.868 72.0633 321.688 72.2073 321.556C72.3393 321.424 72.5193 321.256 72.7233 321.04C73.2753 320.44 73.4793 319.888 73.5393 319.132C73.5393 318.04 72.8313 317.548 71.7873 317.548C71.1393 317.548 70.6233 317.728 70.2513 318.088C69.8793 318.448 69.6273 318.88 69.5193 319.372ZM75.787 320.8C75.787 319.504 76.087 318.46 76.699 317.68C77.299 316.9 78.187 316.504 79.351 316.504C81.739 316.504 82.927 318.076 82.927 320.8C82.927 322.108 82.627 323.14 82.039 323.92C81.439 324.7 80.551 325.096 79.375 325.096C78.247 325.096 77.371 324.7 76.735 323.908C76.099 323.116 75.787 322.084 75.787 320.8ZM76.891 320.8C76.891 322.852 77.827 324.076 79.375 324.076C81.007 324.076 81.823 322.984 81.823 320.8C81.823 318.616 80.995 317.524 79.351 317.524C77.683 317.524 76.891 318.724 76.891 320.8ZM84.7832 319.372L83.9072 319.06C84.2072 317.572 85.3352 316.504 87.1232 316.504C88.8512 316.504 89.9072 317.5 89.9072 319.024C89.9072 319.828 89.5592 320.632 89.1272 321.208C88.9112 321.508 88.6352 321.796 88.3112 322.096C87.6512 322.684 87.1832 322.996 86.4992 323.428L85.5752 324.004H90.2192V325H83.6792V324.184L85.5032 322.972C85.8272 322.768 86.0552 322.612 86.1872 322.516C86.3192 322.432 86.5352 322.276 86.8232 322.072C87.1112 321.868 87.3272 321.688 87.4712 321.556C87.6032 321.424 87.7832 321.256 87.9872 321.04C88.5392 320.44 88.7432 319.888 88.8032 319.132C88.8032 318.04 88.0952 317.548 87.0512 317.548C86.4032 317.548 85.8872 317.728 85.5152 318.088C85.1432 318.448 84.8912 318.88 84.7832 319.372ZM92.0109 319.372L91.1349 319.06C91.4349 317.572 92.5629 316.504 94.3509 316.504C96.0789 316.504 97.1349 317.5 97.1349 319.024C97.1349 319.828 96.7869 320.632 96.3549 321.208C96.1389 321.508 95.8629 321.796 95.5389 322.096C94.8789 322.684 94.4109 322.996 93.7269 323.428L92.8029 324.004H97.4469V325H90.9069V324.184L92.7309 322.972C93.0549 322.768 93.2829 322.612 93.4149 322.516C93.5469 322.432 93.7629 322.276 94.0509 322.072C94.3389 321.868 94.5549 321.688 94.6989 321.556C94.8309 321.424 95.0109 321.256 95.2149 321.04C95.7669 320.44 95.9709 319.888 96.0309 319.132C96.0309 318.04 95.3229 317.548 94.2789 317.548C93.6309 317.548 93.1149 317.728 92.7429 318.088C92.3709 318.448 92.1189 318.88 92.0109 319.372Z" fill="#76848D"/>
<path d="M213.353 306.8C213.353 305.588 213.761 304.556 214.589 303.728C215.417 302.9 216.425 302.492 217.625 302.492C218.813 302.492 219.821 302.9 220.649 303.716C221.477 304.532 221.885 305.564 221.885 306.8C221.885 307.988 221.441 309.044 220.553 309.944L221.393 310.952L220.649 311.576L219.785 310.532C219.101 310.916 218.381 311.108 217.625 311.108C216.401 311.108 215.381 310.7 214.577 309.884C213.761 309.08 213.353 308.048 213.353 306.8ZM214.493 306.8C214.493 307.748 214.793 308.528 215.393 309.14C215.993 309.752 216.737 310.064 217.625 310.064C218.165 310.064 218.657 309.932 219.125 309.656L218.405 308.792L219.101 308.18L219.869 309.104C220.457 308.492 220.745 307.724 220.745 306.8C220.745 305.852 220.445 305.072 219.845 304.46C219.245 303.848 218.501 303.536 217.625 303.536C216.737 303.536 215.993 303.836 215.393 304.448C214.793 305.06 214.493 305.852 214.493 306.8ZM223.676 305.372L222.8 305.06C223.1 303.572 224.228 302.504 226.016 302.504C227.744 302.504 228.8 303.5 228.8 305.024C228.8 305.828 228.452 306.632 228.02 307.208C227.804 307.508 227.528 307.796 227.204 308.096C226.544 308.684 226.076 308.996 225.392 309.428L224.468 310.004H229.112V311H222.572V310.184L224.396 308.972C224.72 308.768 224.948 308.612 225.08 308.516C225.212 308.432 225.428 308.276 225.716 308.072C226.004 307.868 226.22 307.688 226.364 307.556C226.496 307.424 226.676 307.256 226.88 307.04C227.432 306.44 227.636 305.888 227.696 305.132C227.696 304.04 226.988 303.548 225.944 303.548C225.296 303.548 224.78 303.728 224.408 304.088C224.036 304.448 223.784 304.88 223.676 305.372ZM207.791 319.372L206.915 319.06C207.215 317.572 208.343 316.504 210.131 316.504C211.859 316.504 212.915 317.5 212.915 319.024C212.915 319.828 212.567 320.632 212.135 321.208C211.919 321.508 211.643 321.796 211.319 322.096C210.659 322.684 210.191 322.996 209.507 323.428L208.583 324.004H213.227V325H206.687V324.184L208.511 322.972C208.835 322.768 209.063 322.612 209.195 322.516C209.327 322.432 209.543 322.276 209.831 322.072C210.119 321.868 210.335 321.688 210.479 321.556C210.611 321.424 210.791 321.256 210.995 321.04C211.547 320.44 211.751 319.888 211.811 319.132C211.811 318.04 211.103 317.548 210.059 317.548C209.411 317.548 208.895 317.728 208.523 318.088C208.151 318.448 207.899 318.88 207.791 319.372ZM214.058 320.8C214.058 319.504 214.358 318.46 214.97 317.68C215.57 316.9 216.458 316.504 217.622 316.504C220.01 316.504 221.198 318.076 221.198 320.8C221.198 322.108 220.898 323.14 220.31 323.92C219.71 324.7 218.822 325.096 217.646 325.096C216.518 325.096 215.642 324.7 215.006 323.908C214.37 323.116 214.058 322.084 214.058 320.8ZM215.162 320.8C215.162 322.852 216.098 324.076 217.646 324.076C219.278 324.076 220.094 322.984 220.094 320.8C220.094 318.616 219.266 317.524 217.622 317.524C215.954 317.524 215.162 318.724 215.162 320.8ZM223.055 319.372L222.179 319.06C222.479 317.572 223.607 316.504 225.395 316.504C227.123 316.504 228.179 317.5 228.179 319.024C228.179 319.828 227.831 320.632 227.399 321.208C227.183 321.508 226.907 321.796 226.583 322.096C225.923 322.684 225.455 322.996 224.771 323.428L223.847 324.004H228.491V325H221.951V324.184L223.775 322.972C224.099 322.768 224.327 322.612 224.459 322.516C224.591 322.432 224.807 322.276 225.095 322.072C225.383 321.868 225.599 321.688 225.743 321.556C225.875 321.424 226.055 321.256 226.259 321.04C226.811 320.44 227.015 319.888 227.075 319.132C227.075 318.04 226.367 317.548 225.323 317.548C224.675 317.548 224.159 317.728 223.787 318.088C223.415 318.448 223.163 318.88 223.055 319.372ZM230.282 319.372L229.406 319.06C229.706 317.572 230.834 316.504 232.622 316.504C234.35 316.504 235.406 317.5 235.406 319.024C235.406 319.828 235.058 320.632 234.626 321.208C234.41 321.508 234.134 321.796 233.81 322.096C233.15 322.684 232.682 322.996 231.998 323.428L231.074 324.004H235.718V325H229.178V324.184L231.002 322.972C231.326 322.768 231.554 322.612 231.686 322.516C231.818 322.432 232.034 322.276 232.322 322.072C232.61 321.868 232.826 321.688 232.97 321.556C233.102 321.424 233.282 321.256 233.486 321.04C234.038 320.44 234.242 319.888 234.302 319.132C234.302 318.04 233.594 317.548 232.55 317.548C231.902 317.548 231.386 317.728 231.014 318.088C230.642 318.448 230.39 318.88 230.282 319.372Z" fill="#76848D"/>
<path d="M351.596 306.8C351.596 305.588 352.004 304.556 352.832 303.728C353.66 302.9 354.668 302.492 355.868 302.492C357.056 302.492 358.064 302.9 358.892 303.716C359.72 304.532 360.128 305.564 360.128 306.8C360.128 307.988 359.684 309.044 358.796 309.944L359.636 310.952L358.892 311.576L358.028 310.532C357.344 310.916 356.624 311.108 355.868 311.108C354.644 311.108 353.624 310.7 352.82 309.884C352.004 309.08 351.596 308.048 351.596 306.8ZM352.736 306.8C352.736 307.748 353.036 308.528 353.636 309.14C354.236 309.752 354.98 310.064 355.868 310.064C356.408 310.064 356.9 309.932 357.368 309.656L356.648 308.792L357.344 308.18L358.112 309.104C358.7 308.492 358.988 307.724 358.988 306.8C358.988 305.852 358.688 305.072 358.088 304.46C357.488 303.848 356.744 303.536 355.868 303.536C354.98 303.536 354.236 303.836 353.636 304.448C353.036 305.06 352.736 305.852 352.736 306.8ZM361.786 305.048L360.886 304.64C361.33 303.344 362.494 302.492 364.234 302.492C365.062 302.492 365.746 302.684 366.274 303.068C366.802 303.452 367.066 303.968 367.066 304.604C367.066 305.576 366.55 306.296 365.59 306.572C366.514 306.632 367.258 307.328 367.258 308.576C367.258 309.368 366.97 309.992 366.394 310.436C365.818 310.88 365.086 311.108 364.186 311.108C362.35 311.108 361.078 310.232 360.658 308.852L361.63 308.432C362.146 309.524 363.022 310.076 364.258 310.076C365.422 310.076 366.154 309.536 366.154 308.588C366.154 307.664 365.434 307.196 363.994 307.196H363.058V306.2H363.802C365.11 306.2 365.962 305.612 365.962 304.808C365.962 303.98 365.278 303.512 364.186 303.512C362.902 303.512 362.122 304.172 361.786 305.048ZM346.063 319.372L345.187 319.06C345.487 317.572 346.615 316.504 348.403 316.504C350.131 316.504 351.187 317.5 351.187 319.024C351.187 319.828 350.839 320.632 350.407 321.208C350.191 321.508 349.915 321.796 349.591 322.096C348.931 322.684 348.463 322.996 347.779 323.428L346.855 324.004H351.499V325H344.959V324.184L346.783 322.972C347.107 322.768 347.335 322.612 347.467 322.516C347.599 322.432 347.815 322.276 348.103 322.072C348.391 321.868 348.607 321.688 348.751 321.556C348.883 321.424 349.063 321.256 349.267 321.04C349.819 320.44 350.023 319.888 350.083 319.132C350.083 318.04 349.375 317.548 348.331 317.548C347.683 317.548 347.167 317.728 346.795 318.088C346.423 318.448 346.171 318.88 346.063 319.372ZM352.33 320.8C352.33 319.504 352.63 318.46 353.242 317.68C353.842 316.9 354.73 316.504 355.894 316.504C358.282 316.504 359.47 318.076 359.47 320.8C359.47 322.108 359.17 323.14 358.582 323.92C357.982 324.7 357.094 325.096 355.918 325.096C354.79 325.096 353.914 324.7 353.278 323.908C352.642 323.116 352.33 322.084 352.33 320.8ZM353.434 320.8C353.434 322.852 354.37 324.076 355.918 324.076C357.55 324.076 358.366 322.984 358.366 320.8C358.366 318.616 357.538 317.524 355.894 317.524C354.226 317.524 353.434 318.724 353.434 320.8ZM361.327 319.372L360.451 319.06C360.751 317.572 361.879 316.504 363.667 316.504C365.395 316.504 366.451 317.5 366.451 319.024C366.451 319.828 366.103 320.632 365.671 321.208C365.455 321.508 365.179 321.796 364.855 322.096C364.195 322.684 363.727 322.996 363.043 323.428L362.119 324.004H366.763V325H360.223V324.184L362.047 322.972C362.371 322.768 362.599 322.612 362.731 322.516C362.863 322.432 363.079 322.276 363.367 322.072C363.655 321.868 363.871 321.688 364.015 321.556C364.147 321.424 364.327 321.256 364.531 321.04C365.083 320.44 365.287 319.888 365.347 319.132C365.347 318.04 364.639 317.548 363.595 317.548C362.947 317.548 362.431 317.728 362.059 318.088C361.687 318.448 361.435 318.88 361.327 319.372ZM368.554 319.372L367.678 319.06C367.978 317.572 369.106 316.504 370.894 316.504C372.622 316.504 373.678 317.5 373.678 319.024C373.678 319.828 373.33 320.632 372.898 321.208C372.682 321.508 372.406 321.796 372.082 322.096C371.422 322.684 370.954 322.996 370.27 323.428L369.346 324.004H373.99V325H367.45V324.184L369.274 322.972C369.598 322.768 369.826 322.612 369.958 322.516C370.09 322.432 370.306 322.276 370.594 322.072C370.882 321.868 371.098 321.688 371.242 321.556C371.374 321.424 371.554 321.256 371.758 321.04C372.31 320.44 372.514 319.888 372.574 319.132C372.574 318.04 371.866 317.548 370.822 317.548C370.174 317.548 369.658 317.728 369.286 318.088C368.914 318.448 368.662 318.88 368.554 319.372Z" fill="#76848D"/>
<path d="M489.539 306.8C489.539 305.588 489.947 304.556 490.775 303.728C491.603 302.9 492.611 302.492 493.811 302.492C494.999 302.492 496.007 302.9 496.835 303.716C497.663 304.532 498.071 305.564 498.071 306.8C498.071 307.988 497.627 309.044 496.739 309.944L497.579 310.952L496.835 311.576L495.971 310.532C495.287 310.916 494.567 311.108 493.811 311.108C492.587 311.108 491.567 310.7 490.763 309.884C489.947 309.08 489.539 308.048 489.539 306.8ZM490.679 306.8C490.679 307.748 490.979 308.528 491.579 309.14C492.179 309.752 492.923 310.064 493.811 310.064C494.351 310.064 494.843 309.932 495.311 309.656L494.591 308.792L495.287 308.18L496.055 309.104C496.643 308.492 496.931 307.724 496.931 306.8C496.931 305.852 496.631 305.072 496.031 304.46C495.431 303.848 494.687 303.536 493.811 303.536C492.923 303.536 492.179 303.836 491.579 304.448C490.979 305.06 490.679 305.852 490.679 306.8ZM504.698 311H503.654V309.284H498.518V308.588L503.774 302.6H504.698V308.312H506.258V309.284H504.698V311ZM503.654 304.28L499.958 308.312H503.654V304.28ZM484.334 319.372L483.458 319.06C483.758 317.572 484.886 316.504 486.674 316.504C488.402 316.504 489.458 317.5 489.458 319.024C489.458 319.828 489.11 320.632 488.678 321.208C488.462 321.508 488.186 321.796 487.862 322.096C487.202 322.684 486.734 322.996 486.05 323.428L485.126 324.004H489.77V325H483.23V324.184L485.054 322.972C485.378 322.768 485.606 322.612 485.738 322.516C485.87 322.432 486.086 322.276 486.374 322.072C486.662 321.868 486.878 321.688 487.022 321.556C487.154 321.424 487.334 321.256 487.538 321.04C488.09 320.44 488.294 319.888 488.354 319.132C488.354 318.04 487.646 317.548 486.602 317.548C485.954 317.548 485.438 317.728 485.066 318.088C484.694 318.448 484.442 318.88 484.334 319.372ZM490.602 320.8C490.602 319.504 490.902 318.46 491.514 317.68C492.114 316.9 493.002 316.504 494.166 316.504C496.554 316.504 497.742 318.076 497.742 320.8C497.742 322.108 497.442 323.14 496.854 323.92C496.254 324.7 495.366 325.096 494.19 325.096C493.062 325.096 492.186 324.7 491.55 323.908C490.914 323.116 490.602 322.084 490.602 320.8ZM491.706 320.8C491.706 322.852 492.642 324.076 494.19 324.076C495.822 324.076 496.638 322.984 496.638 320.8C496.638 318.616 495.81 317.524 494.166 317.524C492.498 317.524 491.706 318.724 491.706 320.8ZM499.598 319.372L498.722 319.06C499.022 317.572 500.15 316.504 501.938 316.504C503.666 316.504 504.722 317.5 504.722 319.024C504.722 319.828 504.374 320.632 503.942 321.208C503.726 321.508 503.45 321.796 503.126 322.096C502.466 322.684 501.998 322.996 501.314 323.428L500.39 324.004H505.034V325H498.494V324.184L500.318 322.972C500.642 322.768 500.87 322.612 501.002 322.516C501.134 322.432 501.35 322.276 501.638 322.072C501.926 321.868 502.142 321.688 502.286 321.556C502.418 321.424 502.598 321.256 502.802 321.04C503.354 320.44 503.558 319.888 503.618 319.132C503.618 318.04 502.91 317.548 501.866 317.548C501.218 317.548 500.702 317.728 500.33 318.088C499.958 318.448 499.706 318.88 499.598 319.372ZM506.826 319.372L505.95 319.06C506.25 317.572 507.378 316.504 509.166 316.504C510.894 316.504 511.95 317.5 511.95 319.024C511.95 319.828 511.602 320.632 511.17 321.208C510.954 321.508 510.678 321.796 510.354 322.096C509.694 322.684 509.226 322.996 508.542 323.428L507.618 324.004H512.262V325H505.722V324.184L507.546 322.972C507.87 322.768 508.098 322.612 508.23 322.516C508.362 322.432 508.578 322.276 508.866 322.072C509.154 321.868 509.37 321.688 509.514 321.556C509.646 321.424 509.826 321.256 510.03 321.04C510.582 320.44 510.786 319.888 510.846 319.132C510.846 318.04 510.138 317.548 509.094 317.548C508.446 317.548 507.93 317.728 507.558 318.088C507.186 318.448 506.934 318.88 506.826 319.372Z" fill="#76848D"/>
<path d="M629.475 306.8C629.475 305.588 629.883 304.556 630.711 303.728C631.539 302.9 632.547 302.492 633.747 302.492C634.935 302.492 635.943 302.9 636.771 303.716C637.599 304.532 638.007 305.564 638.007 306.8C638.007 307.988 637.563 309.044 636.675 309.944L637.515 310.952L636.771 311.576L635.907 310.532C635.223 310.916 634.503 311.108 633.747 311.108C632.523 311.108 631.503 310.7 630.699 309.884C629.883 309.08 629.475 308.048 629.475 306.8ZM630.615 306.8C630.615 307.748 630.915 308.528 631.515 309.14C632.115 309.752 632.859 310.064 633.747 310.064C634.287 310.064 634.779 309.932 635.247 309.656L634.527 308.792L635.223 308.18L635.991 309.104C636.579 308.492 636.867 307.724 636.867 306.8C636.867 305.852 636.567 305.072 635.967 304.46C635.367 303.848 634.623 303.536 633.747 303.536C632.859 303.536 632.115 303.836 631.515 304.448C630.915 305.06 630.615 305.852 630.615 306.8ZM638.741 304.832L638.357 303.932L641.237 302.552H641.921V311H640.889V303.836L638.741 304.832ZM622.576 319.372L621.7 319.06C622 317.572 623.128 316.504 624.916 316.504C626.644 316.504 627.7 317.5 627.7 319.024C627.7 319.828 627.352 320.632 626.92 321.208C626.704 321.508 626.428 321.796 626.104 322.096C625.444 322.684 624.976 322.996 624.292 323.428L623.368 324.004H628.012V325H621.472V324.184L623.296 322.972C623.62 322.768 623.848 322.612 623.98 322.516C624.112 322.432 624.328 322.276 624.616 322.072C624.904 321.868 625.12 321.688 625.264 321.556C625.396 321.424 625.576 321.256 625.78 321.04C626.332 320.44 626.536 319.888 626.596 319.132C626.596 318.04 625.888 317.548 624.844 317.548C624.196 317.548 623.68 317.728 623.308 318.088C622.936 318.448 622.684 318.88 622.576 319.372ZM628.844 320.8C628.844 319.504 629.144 318.46 629.756 317.68C630.356 316.9 631.244 316.504 632.408 316.504C634.796 316.504 635.984 318.076 635.984 320.8C635.984 322.108 635.684 323.14 635.096 323.92C634.496 324.7 633.608 325.096 632.432 325.096C631.304 325.096 630.428 324.7 629.792 323.908C629.156 323.116 628.844 322.084 628.844 320.8ZM629.948 320.8C629.948 322.852 630.884 324.076 632.432 324.076C634.064 324.076 634.88 322.984 634.88 320.8C634.88 318.616 634.052 317.524 632.408 317.524C630.74 317.524 629.948 318.724 629.948 320.8ZM637.84 319.372L636.964 319.06C637.264 317.572 638.392 316.504 640.18 316.504C641.908 316.504 642.964 317.5 642.964 319.024C642.964 319.828 642.616 320.632 642.184 321.208C641.968 321.508 641.692 321.796 641.368 322.096C640.708 322.684 640.24 322.996 639.556 323.428L638.632 324.004H643.276V325H636.736V324.184L638.56 322.972C638.884 322.768 639.112 322.612 639.244 322.516C639.376 322.432 639.592 322.276 639.88 322.072C640.168 321.868 640.384 321.688 640.528 321.556C640.66 321.424 640.84 321.256 641.044 321.04C641.596 320.44 641.8 319.888 641.86 319.132C641.86 318.04 641.152 317.548 640.108 317.548C639.46 317.548 638.944 317.728 638.572 318.088C638.2 318.448 637.948 318.88 637.84 319.372ZM644.936 319.048L644.036 318.64C644.48 317.344 645.644 316.492 647.384 316.492C648.212 316.492 648.896 316.684 649.424 317.068C649.952 317.452 650.216 317.968 650.216 318.604C650.216 319.576 649.7 320.296 648.74 320.572C649.664 320.632 650.408 321.328 650.408 322.576C650.408 323.368 650.12 323.992 649.544 324.436C648.968 324.88 648.236 325.108 647.336 325.108C645.5 325.108 644.228 324.232 643.808 322.852L644.78 322.432C645.296 323.524 646.172 324.076 647.408 324.076C648.572 324.076 649.304 323.536 649.304 322.588C649.304 321.664 648.584 321.196 647.144 321.196H646.208V320.2H646.952C648.26 320.2 649.112 319.612 649.112 318.808C649.112 317.98 648.428 317.512 647.336 317.512C646.052 317.512 645.272 318.172 644.936 319.048Z" fill="#76848D"/>
<path d="M766.44 306.8C766.44 305.588 766.848 304.556 767.676 303.728C768.504 302.9 769.512 302.492 770.712 302.492C771.9 302.492 772.908 302.9 773.736 303.716C774.564 304.532 774.972 305.564 774.972 306.8C774.972 307.988 774.528 309.044 773.64 309.944L774.48 310.952L773.736 311.576L772.872 310.532C772.188 310.916 771.468 311.108 770.712 311.108C769.488 311.108 768.468 310.7 767.664 309.884C766.848 309.08 766.44 308.048 766.44 306.8ZM767.58 306.8C767.58 307.748 767.88 308.528 768.48 309.14C769.08 309.752 769.824 310.064 770.712 310.064C771.252 310.064 771.744 309.932 772.212 309.656L771.492 308.792L772.188 308.18L772.956 309.104C773.544 308.492 773.832 307.724 773.832 306.8C773.832 305.852 773.532 305.072 772.932 304.46C772.332 303.848 771.588 303.536 770.712 303.536C769.824 303.536 769.08 303.836 768.48 304.448C767.88 305.06 767.58 305.852 767.58 306.8ZM776.762 305.372L775.886 305.06C776.186 303.572 777.314 302.504 779.102 302.504C780.83 302.504 781.886 303.5 781.886 305.024C781.886 305.828 781.538 306.632 781.106 307.208C780.89 307.508 780.614 307.796 780.29 308.096C779.63 308.684 779.162 308.996 778.478 309.428L777.554 310.004H782.198V311H775.658V310.184L777.482 308.972C777.806 308.768 778.034 308.612 778.166 308.516C778.298 308.432 778.514 308.276 778.802 308.072C779.09 307.868 779.306 307.688 779.45 307.556C779.582 307.424 779.762 307.256 779.966 307.04C780.518 306.44 780.722 305.888 780.782 305.132C780.782 304.04 780.074 303.548 779.03 303.548C778.382 303.548 777.866 303.728 777.494 304.088C777.122 304.448 776.87 304.88 776.762 305.372ZM760.848 319.372L759.972 319.06C760.272 317.572 761.4 316.504 763.188 316.504C764.916 316.504 765.972 317.5 765.972 319.024C765.972 319.828 765.624 320.632 765.192 321.208C764.976 321.508 764.7 321.796 764.376 322.096C763.716 322.684 763.248 322.996 762.564 323.428L761.64 324.004H766.284V325H759.744V324.184L761.568 322.972C761.892 322.768 762.12 322.612 762.252 322.516C762.384 322.432 762.6 322.276 762.888 322.072C763.176 321.868 763.392 321.688 763.536 321.556C763.668 321.424 763.848 321.256 764.052 321.04C764.604 320.44 764.808 319.888 764.868 319.132C764.868 318.04 764.16 317.548 763.116 317.548C762.468 317.548 761.952 317.728 761.58 318.088C761.208 318.448 760.956 318.88 760.848 319.372ZM767.116 320.8C767.116 319.504 767.416 318.46 768.028 317.68C768.628 316.9 769.516 316.504 770.68 316.504C773.068 316.504 774.256 318.076 774.256 320.8C774.256 322.108 773.956 323.14 773.368 323.92C772.768 324.7 771.88 325.096 770.704 325.096C769.576 325.096 768.7 324.7 768.064 323.908C767.428 323.116 767.116 322.084 767.116 320.8ZM768.22 320.8C768.22 322.852 769.156 324.076 770.704 324.076C772.336 324.076 773.152 322.984 773.152 320.8C773.152 318.616 772.324 317.524 770.68 317.524C769.012 317.524 768.22 318.724 768.22 320.8ZM776.112 319.372L775.236 319.06C775.536 317.572 776.664 316.504 778.452 316.504C780.18 316.504 781.236 317.5 781.236 319.024C781.236 319.828 780.888 320.632 780.456 321.208C780.24 321.508 779.964 321.796 779.64 322.096C778.98 322.684 778.512 322.996 777.828 323.428L776.904 324.004H781.548V325H775.008V324.184L776.832 322.972C777.156 322.768 777.384 322.612 777.516 322.516C777.648 322.432 777.864 322.276 778.152 322.072C778.44 321.868 778.656 321.688 778.8 321.556C778.932 321.424 779.112 321.256 779.316 321.04C779.868 320.44 780.072 319.888 780.132 319.132C780.132 318.04 779.424 317.548 778.38 317.548C777.732 317.548 777.216 317.728 776.844 318.088C776.472 318.448 776.22 318.88 776.112 319.372ZM783.208 319.048L782.308 318.64C782.752 317.344 783.916 316.492 785.656 316.492C786.484 316.492 787.168 316.684 787.696 317.068C788.224 317.452 788.488 317.968 788.488 318.604C788.488 319.576 787.972 320.296 787.012 320.572C787.936 320.632 788.68 321.328 788.68 322.576C788.68 323.368 788.392 323.992 787.816 324.436C787.24 324.88 786.508 325.108 785.608 325.108C783.772 325.108 782.5 324.232 782.08 322.852L783.052 322.432C783.568 323.524 784.444 324.076 785.68 324.076C786.844 324.076 787.576 323.536 787.576 322.588C787.576 321.664 786.856 321.196 785.416 321.196H784.48V320.2H785.224C786.532 320.2 787.384 319.612 787.384 318.808C787.384 317.98 786.7 317.512 785.608 317.512C784.324 317.512 783.544 318.172 783.208 319.048Z" fill="#76848D"/>
<path d="M904.682 306.8C904.682 305.588 905.09 304.556 905.918 303.728C906.746 302.9 907.754 302.492 908.954 302.492C910.142 302.492 911.15 302.9 911.978 303.716C912.806 304.532 913.214 305.564 913.214 306.8C913.214 307.988 912.77 309.044 911.882 309.944L912.722 310.952L911.978 311.576L911.114 310.532C910.43 310.916 909.71 311.108 908.954 311.108C907.73 311.108 906.71 310.7 905.906 309.884C905.09 309.08 904.682 308.048 904.682 306.8ZM905.822 306.8C905.822 307.748 906.122 308.528 906.722 309.14C907.322 309.752 908.066 310.064 908.954 310.064C909.494 310.064 909.986 309.932 910.454 309.656L909.734 308.792L910.43 308.18L911.198 309.104C911.786 308.492 912.074 307.724 912.074 306.8C912.074 305.852 911.774 305.072 911.174 304.46C910.574 303.848 909.83 303.536 908.954 303.536C908.066 303.536 907.322 303.836 906.722 304.448C906.122 305.06 905.822 305.852 905.822 306.8ZM914.873 305.048L913.973 304.64C914.417 303.344 915.581 302.492 917.321 302.492C918.149 302.492 918.833 302.684 919.361 303.068C919.889 303.452 920.153 303.968 920.153 304.604C920.153 305.576 919.637 306.296 918.677 306.572C919.601 306.632 920.345 307.328 920.345 308.576C920.345 309.368 920.057 309.992 919.481 310.436C918.905 310.88 918.173 311.108 917.273 311.108C915.437 311.108 914.165 310.232 913.745 308.852L914.717 308.432C915.233 309.524 916.109 310.076 917.345 310.076C918.509 310.076 919.241 309.536 919.241 308.588C919.241 307.664 918.521 307.196 917.081 307.196H916.145V306.2H916.889C918.197 306.2 919.049 305.612 919.049 304.808C919.049 303.98 918.365 303.512 917.273 303.512C915.989 303.512 915.209 304.172 914.873 305.048ZM899.12 319.372L898.244 319.06C898.544 317.572 899.672 316.504 901.46 316.504C903.188 316.504 904.244 317.5 904.244 319.024C904.244 319.828 903.896 320.632 903.464 321.208C903.248 321.508 902.972 321.796 902.648 322.096C901.988 322.684 901.52 322.996 900.836 323.428L899.912 324.004H904.556V325H898.016V324.184L899.84 322.972C900.164 322.768 900.392 322.612 900.524 322.516C900.656 322.432 900.872 322.276 901.16 322.072C901.448 321.868 901.664 321.688 901.808 321.556C901.94 321.424 902.12 321.256 902.324 321.04C902.876 320.44 903.08 319.888 903.14 319.132C903.14 318.04 902.432 317.548 901.388 317.548C900.74 317.548 900.224 317.728 899.852 318.088C899.48 318.448 899.228 318.88 899.12 319.372ZM905.388 320.8C905.388 319.504 905.688 318.46 906.3 317.68C906.9 316.9 907.788 316.504 908.952 316.504C911.34 316.504 912.528 318.076 912.528 320.8C912.528 322.108 912.228 323.14 911.64 323.92C911.04 324.7 910.152 325.096 908.976 325.096C907.848 325.096 906.972 324.7 906.336 323.908C905.7 323.116 905.388 322.084 905.388 320.8ZM906.492 320.8C906.492 322.852 907.428 324.076 908.976 324.076C910.608 324.076 911.424 322.984 911.424 320.8C911.424 318.616 910.596 317.524 908.952 317.524C907.284 317.524 906.492 318.724 906.492 320.8ZM914.384 319.372L913.508 319.06C913.808 317.572 914.936 316.504 916.724 316.504C918.452 316.504 919.508 317.5 919.508 319.024C919.508 319.828 919.16 320.632 918.728 321.208C918.512 321.508 918.236 321.796 917.912 322.096C917.252 322.684 916.784 322.996 916.1 323.428L915.176 324.004H919.82V325H913.28V324.184L915.104 322.972C915.428 322.768 915.656 322.612 915.788 322.516C915.92 322.432 916.136 322.276 916.424 322.072C916.712 321.868 916.928 321.688 917.072 321.556C917.204 321.424 917.384 321.256 917.588 321.04C918.14 320.44 918.344 319.888 918.404 319.132C918.404 318.04 917.696 317.548 916.652 317.548C916.004 317.548 915.488 317.728 915.116 318.088C914.744 318.448 914.492 318.88 914.384 319.372ZM921.479 319.048L920.579 318.64C921.023 317.344 922.187 316.492 923.927 316.492C924.755 316.492 925.439 316.684 925.967 317.068C926.495 317.452 926.759 317.968 926.759 318.604C926.759 319.576 926.243 320.296 925.283 320.572C926.207 320.632 926.951 321.328 926.951 322.576C926.951 323.368 926.663 323.992 926.087 324.436C925.511 324.88 924.779 325.108 923.879 325.108C922.043 325.108 920.771 324.232 920.351 322.852L921.323 322.432C921.839 323.524 922.715 324.076 923.951 324.076C925.115 324.076 925.847 323.536 925.847 322.588C925.847 321.664 925.127 321.196 923.687 321.196H922.751V320.2H923.495C924.803 320.2 925.655 319.612 925.655 318.808C925.655 317.98 924.971 317.512 923.879 317.512C922.595 317.512 921.815 318.172 921.479 319.048Z" fill="#76848D"/>
<path d="M1042.63 306.8C1042.63 305.588 1043.03 304.556 1043.86 303.728C1044.69 302.9 1045.7 302.492 1046.9 302.492C1048.09 302.492 1049.09 302.9 1049.92 303.716C1050.75 304.532 1051.16 305.564 1051.16 306.8C1051.16 307.988 1050.71 309.044 1049.83 309.944L1050.67 310.952L1049.92 311.576L1049.06 310.532C1048.37 310.916 1047.65 311.108 1046.9 311.108C1045.67 311.108 1044.65 310.7 1043.85 309.884C1043.03 309.08 1042.63 308.048 1042.63 306.8ZM1043.77 306.8C1043.77 307.748 1044.07 308.528 1044.67 309.14C1045.27 309.752 1046.01 310.064 1046.9 310.064C1047.44 310.064 1047.93 309.932 1048.4 309.656L1047.68 308.792L1048.37 308.18L1049.14 309.104C1049.73 308.492 1050.02 307.724 1050.02 306.8C1050.02 305.852 1049.72 305.072 1049.12 304.46C1048.52 303.848 1047.77 303.536 1046.9 303.536C1046.01 303.536 1045.27 303.836 1044.67 304.448C1044.07 305.06 1043.77 305.852 1043.77 306.8ZM1057.78 311H1056.74V309.284H1051.6V308.588L1056.86 302.6H1057.78V308.312H1059.34V309.284H1057.78V311ZM1056.74 304.28L1053.04 308.312H1056.74V304.28ZM1037.39 319.372L1036.52 319.06C1036.82 317.572 1037.94 316.504 1039.73 316.504C1041.46 316.504 1042.52 317.5 1042.52 319.024C1042.52 319.828 1042.17 320.632 1041.74 321.208C1041.52 321.508 1041.24 321.796 1040.92 322.096C1040.26 322.684 1039.79 322.996 1039.11 323.428L1038.18 324.004H1042.83V325H1036.29V324.184L1038.11 322.972C1038.44 322.768 1038.66 322.612 1038.8 322.516C1038.93 322.432 1039.14 322.276 1039.43 322.072C1039.72 321.868 1039.94 321.688 1040.08 321.556C1040.21 321.424 1040.39 321.256 1040.6 321.04C1041.15 320.44 1041.35 319.888 1041.41 319.132C1041.41 318.04 1040.7 317.548 1039.66 317.548C1039.01 317.548 1038.5 317.728 1038.12 318.088C1037.75 318.448 1037.5 318.88 1037.39 319.372ZM1043.66 320.8C1043.66 319.504 1043.96 318.46 1044.57 317.68C1045.17 316.9 1046.06 316.504 1047.22 316.504C1049.61 316.504 1050.8 318.076 1050.8 320.8C1050.8 322.108 1050.5 323.14 1049.91 323.92C1049.31 324.7 1048.42 325.096 1047.25 325.096C1046.12 325.096 1045.24 324.7 1044.61 323.908C1043.97 323.116 1043.66 322.084 1043.66 320.8ZM1044.76 320.8C1044.76 322.852 1045.7 324.076 1047.25 324.076C1048.88 324.076 1049.7 322.984 1049.7 320.8C1049.7 318.616 1048.87 317.524 1047.22 317.524C1045.56 317.524 1044.76 318.724 1044.76 320.8ZM1052.66 319.372L1051.78 319.06C1052.08 317.572 1053.21 316.504 1055 316.504C1056.72 316.504 1057.78 317.5 1057.78 319.024C1057.78 319.828 1057.43 320.632 1057 321.208C1056.78 321.508 1056.51 321.796 1056.18 322.096C1055.52 322.684 1055.06 322.996 1054.37 323.428L1053.45 324.004H1058.09V325H1051.55V324.184L1053.38 322.972C1053.7 322.768 1053.93 322.612 1054.06 322.516C1054.19 322.432 1054.41 322.276 1054.7 322.072C1054.98 321.868 1055.2 321.688 1055.34 321.556C1055.48 321.424 1055.66 321.256 1055.86 321.04C1056.41 320.44 1056.62 319.888 1056.68 319.132C1056.68 318.04 1055.97 317.548 1054.92 317.548C1054.28 317.548 1053.76 317.728 1053.39 318.088C1053.02 318.448 1052.76 318.88 1052.66 319.372ZM1059.75 319.048L1058.85 318.64C1059.29 317.344 1060.46 316.492 1062.2 316.492C1063.03 316.492 1063.71 316.684 1064.24 317.068C1064.77 317.452 1065.03 317.968 1065.03 318.604C1065.03 319.576 1064.51 320.296 1063.55 320.572C1064.48 320.632 1065.22 321.328 1065.22 322.576C1065.22 323.368 1064.93 323.992 1064.36 324.436C1063.78 324.88 1063.05 325.108 1062.15 325.108C1060.31 325.108 1059.04 324.232 1058.62 322.852L1059.59 322.432C1060.11 323.524 1060.99 324.076 1062.22 324.076C1063.39 324.076 1064.12 323.536 1064.12 322.588C1064.12 321.664 1063.4 321.196 1061.96 321.196H1061.02V320.2H1061.77C1063.07 320.2 1063.93 319.612 1063.93 318.808C1063.93 317.98 1063.24 317.512 1062.15 317.512C1060.87 317.512 1060.09 318.172 1059.75 319.048Z" fill="#76848D"/>
<rect y="2" width="10" height="10" fill="url(#paint44_linear_792_18364)"/>
<path d="M25.044 11H18.888V2.6H24.936V3.62H19.98V6.236H24.6V7.232H19.98V9.98H25.044V11ZM32.9246 8.936L33.5486 9.632C32.9126 10.532 31.6406 11.108 30.2846 11.108C28.9646 11.108 27.9086 10.712 27.1286 9.932C26.3486 9.152 25.9526 8.108 25.9526 6.8C25.9526 5.564 26.3486 4.544 27.1286 3.716C27.9086 2.9 28.9286 2.492 30.2006 2.492C31.6406 2.492 32.8166 3.068 33.4286 3.884L32.7206 4.568C32.0366 3.884 31.1966 3.536 30.2246 3.536C29.2526 3.536 28.4966 3.836 27.9326 4.436C27.3686 5.036 27.0926 5.828 27.0926 6.8C27.0926 7.784 27.3926 8.576 27.9926 9.164C28.5926 9.764 29.3846 10.064 30.3566 10.064C31.4006 10.064 32.2526 9.692 32.9246 8.936ZM40.812 12.752L40.128 13.448C39.24 12.68 38.592 11.804 38.184 10.82C37.776 9.836 37.572 8.864 37.572 7.892C37.572 5.972 38.328 3.944 40.14 2.324L40.8 3.02C39.336 4.388 38.604 6.008 38.604 7.892C38.604 9.68 39.42 11.408 40.812 12.752ZM42.2929 5.372L41.4169 5.06C41.7169 3.572 42.8449 2.504 44.6329 2.504C46.3609 2.504 47.4169 3.5 47.4169 5.024C47.4169 5.828 47.0689 6.632 46.6369 7.208C46.4209 7.508 46.1449 7.796 45.8209 8.096C45.1609 8.684 44.6929 8.996 44.0089 9.428L43.0849 10.004H47.7289V11H41.1889V10.184L43.0129 8.972C43.3369 8.768 43.5649 8.612 43.6969 8.516C43.8289 8.432 44.0449 8.276 44.3329 8.072C44.6209 7.868 44.8369 7.688 44.9809 7.556C45.1129 7.424 45.2929 7.256 45.4969 7.04C46.0489 6.44 46.2529 5.888 46.3129 5.132C46.3129 4.04 45.6049 3.548 44.5609 3.548C43.9129 3.548 43.3969 3.728 43.0249 4.088C42.6529 4.448 42.4009 4.88 42.2929 5.372ZM53.3725 3.62H48.2845V2.6H54.6565V3.284L50.4805 11H49.3405L53.3725 3.62ZM63.8257 9.2L64.5457 9.716C64.0777 10.592 63.0217 11.108 61.9777 11.108C60.9817 11.108 60.1777 10.808 59.5657 10.22C58.9537 9.632 58.6417 8.852 58.6417 7.868C58.6417 6.932 58.9417 6.152 59.5537 5.54C60.1657 4.928 60.9457 4.616 61.9177 4.616C63.0337 4.616 64.0297 5.12 64.4497 5.888L63.6697 6.416C63.2497 5.852 62.6737 5.564 61.9417 5.564C61.2937 5.564 60.7657 5.78 60.3457 6.212C59.9257 6.644 59.7097 7.196 59.7097 7.868C59.7097 8.552 59.9257 9.104 60.3697 9.524C60.8017 9.944 61.3657 10.16 62.0737 10.16C62.8177 10.16 63.4057 9.836 63.8257 9.2ZM67.0181 5.708H64.6301V4.76H70.4381V5.708H68.0261V11H67.0181V5.708ZM72.0741 13.4H71.0661V4.76H72.0741V5.54C72.4941 4.928 73.1661 4.616 74.0901 4.616C75.0021 4.616 75.7341 4.904 76.2741 5.492C76.8141 6.08 77.0781 6.836 77.0781 7.772C77.0781 8.732 76.7901 9.524 76.2141 10.16C75.6261 10.796 74.8821 11.108 73.9701 11.108C73.1301 11.108 72.4941 10.892 72.0741 10.472V13.4ZM73.9821 5.564C73.0701 5.564 72.3621 6.152 72.0741 6.86V9.188C72.4341 9.836 73.0341 10.16 73.8861 10.16C74.4981 10.16 75.0141 9.944 75.4101 9.512C75.8061 9.08 76.0101 8.528 76.0101 7.844C76.0101 6.452 75.2301 5.564 73.9821 5.564ZM78.5511 6.26L78.0351 5.504C78.6111 4.964 79.6071 4.616 80.5311 4.616C82.1991 4.616 83.0871 5.528 83.0871 7.148V11H82.0791V10.076C81.6831 10.652 80.9031 11.084 79.8951 11.084C78.5391 11.084 77.6271 10.328 77.6271 9.176C77.6271 7.868 78.7431 7.244 80.6151 7.244C81.2031 7.244 81.6831 7.304 82.0791 7.424C82.0791 6.212 81.6471 5.564 80.4111 5.564C79.7871 5.564 79.1631 5.792 78.5511 6.26ZM80.1351 10.172C80.6031 10.172 81.0231 10.04 81.3711 9.788C81.7191 9.536 81.9471 9.248 82.0791 8.948V8.312C81.7311 8.192 81.2871 8.132 80.7471 8.132C79.3791 8.132 78.6951 8.468 78.6951 9.14C78.6951 9.776 79.2711 10.172 80.1351 10.172ZM89.9772 11H88.9692V8.3H85.3692V11H84.3612V4.76H85.3692V7.352H88.9692V4.76H89.9772V11ZM91.3913 13.436L90.7073 12.776C91.4273 12.14 91.9793 11.396 92.3513 10.508C92.7233 9.632 92.9033 8.768 92.9033 7.892C92.9033 6.008 92.1713 4.388 90.7073 3.032L91.3793 2.324C93.1913 3.944 93.9353 5.972 93.9353 7.892C93.9353 8.864 93.7313 9.836 93.3353 10.82C92.9273 11.804 92.2793 12.68 91.3913 13.436Z" fill="#76848D"/>
<rect x="131" y="2" width="10" height="10" fill="#737AF9"/>
<path d="M156.044 11H149.888V2.6H155.936V3.62H150.98V6.236H155.6V7.232H150.98V9.98H156.044V11ZM160.037 11H157.253V4.76H159.845C161.585 4.76 162.401 5.204 162.401 6.356C162.401 6.932 162.137 7.388 161.597 7.712C162.269 7.916 162.605 8.408 162.605 9.212C162.605 10.376 161.681 11 160.037 11ZM160.049 8.276H158.261V10.064H159.929C160.997 10.064 161.537 9.764 161.537 9.164C161.537 8.576 161.045 8.276 160.049 8.276ZM159.809 5.696H158.261V7.364H160.157C160.889 7.364 161.333 7.064 161.333 6.5C161.333 5.864 160.817 5.696 159.809 5.696ZM164.621 13.4H163.613V4.76H164.621V5.54C165.041 4.928 165.713 4.616 166.637 4.616C167.549 4.616 168.281 4.904 168.821 5.492C169.361 6.08 169.625 6.836 169.625 7.772C169.625 8.732 169.337 9.524 168.761 10.16C168.173 10.796 167.429 11.108 166.517 11.108C165.677 11.108 165.041 10.892 164.621 10.472V13.4ZM166.529 5.564C165.617 5.564 164.909 6.152 164.621 6.86V9.188C164.981 9.836 165.581 10.16 166.433 10.16C167.045 10.16 167.561 9.944 167.957 9.512C168.353 9.08 168.557 8.528 168.557 7.844C168.557 6.452 167.777 5.564 166.529 5.564ZM170.27 7.868C170.27 6.92 170.582 6.14 171.194 5.528C171.806 4.916 172.598 4.616 173.57 4.616C174.554 4.616 175.358 4.916 175.97 5.528C176.582 6.14 176.894 6.92 176.894 7.868C176.894 8.816 176.582 9.584 175.97 10.196C175.346 10.808 174.542 11.108 173.57 11.108C172.598 11.108 171.806 10.808 171.194 10.196C170.582 9.584 170.27 8.816 170.27 7.868ZM171.338 7.868C171.338 8.528 171.542 9.08 171.962 9.512C172.382 9.944 172.91 10.16 173.57 10.16C174.23 10.16 174.782 9.944 175.202 9.524C175.622 9.104 175.826 8.552 175.826 7.868C175.826 7.184 175.61 6.632 175.19 6.2C174.758 5.78 174.218 5.564 173.57 5.564C172.922 5.564 172.394 5.78 171.974 6.2C171.554 6.62 171.338 7.184 171.338 7.868ZM180.149 11.12C178.865 11.12 177.917 10.64 177.329 9.692L178.121 9.14C178.469 9.776 179.237 10.184 180.161 10.184C181.157 10.184 181.865 9.776 181.865 9.104C181.865 8.552 181.445 8.276 180.617 8.276H179.153V7.364H180.545C181.157 7.364 181.637 7.004 181.637 6.464C181.637 5.876 181.013 5.54 180.113 5.54C179.357 5.54 178.733 5.828 178.265 6.416L177.521 5.924C177.941 5.204 178.901 4.604 180.209 4.604C181.781 4.604 182.705 5.264 182.705 6.308C182.705 6.896 182.453 7.352 181.961 7.652C182.681 8 182.933 8.42 182.933 9.08C182.933 9.716 182.669 10.208 182.153 10.568C181.637 10.94 180.965 11.12 180.149 11.12ZM183.589 7.868C183.589 6.92 183.901 6.14 184.513 5.528C185.125 4.916 185.917 4.616 186.889 4.616C187.873 4.616 188.677 4.916 189.289 5.528C189.901 6.14 190.213 6.92 190.213 7.868C190.213 8.816 189.901 9.584 189.289 10.196C188.665 10.808 187.861 11.108 186.889 11.108C185.917 11.108 185.125 10.808 184.513 10.196C183.901 9.584 183.589 8.816 183.589 7.868ZM184.657 7.868C184.657 8.528 184.861 9.08 185.281 9.512C185.701 9.944 186.229 10.16 186.889 10.16C187.549 10.16 188.101 9.944 188.521 9.524C188.941 9.104 189.145 8.552 189.145 7.868C189.145 7.184 188.929 6.632 188.509 6.2C188.077 5.78 187.537 5.564 186.889 5.564C186.241 5.564 185.713 5.78 185.293 6.2C184.873 6.62 184.657 7.184 184.657 7.868ZM196.827 11H195.819V8.3H192.219V11H191.211V4.76H192.219V7.352H195.819V4.76H196.827V11ZM198.649 6.26L198.133 5.504C198.709 4.964 199.705 4.616 200.629 4.616C202.297 4.616 203.185 5.528 203.185 7.148V11H202.177V10.076C201.781 10.652 201.001 11.084 199.993 11.084C198.637 11.084 197.725 10.328 197.725 9.176C197.725 7.868 198.841 7.244 200.713 7.244C201.301 7.244 201.781 7.304 202.177 7.424C202.177 6.212 201.745 5.564 200.509 5.564C199.885 5.564 199.261 5.792 198.649 6.26ZM200.233 10.172C200.701 10.172 201.121 10.04 201.469 9.788C201.817 9.536 202.045 9.248 202.177 8.948V8.312C201.829 8.192 201.385 8.132 200.845 8.132C199.477 8.132 198.793 8.468 198.793 9.14C198.793 9.776 199.369 10.172 200.233 10.172ZM210.877 12.752L210.193 13.448C209.305 12.68 208.657 11.804 208.249 10.82C207.841 9.836 207.637 8.864 207.637 7.892C207.637 5.972 208.393 3.944 210.205 2.324L210.865 3.02C209.401 4.388 208.669 6.008 208.669 7.892C208.669 9.68 209.485 11.408 210.877 12.752ZM211.302 4.832L210.918 3.932L213.798 2.552H214.482V11H213.45V3.836L211.302 4.832ZM222.996 6.644C222.996 8.072 222.66 9.176 221.976 9.944C221.292 10.724 220.38 11.108 219.24 11.108C217.848 11.108 216.756 10.52 216.216 9.62L217.08 9.02C217.56 9.692 218.436 10.076 219.384 10.076C220.164 10.076 220.788 9.764 221.28 9.14C221.772 8.528 221.976 7.76 221.916 6.848C221.52 7.76 220.524 8.432 219.192 8.432C218.256 8.432 217.488 8.168 216.888 7.628C216.276 7.1 215.976 6.404 215.976 5.552C215.976 4.616 216.3 3.872 216.948 3.32C217.596 2.768 218.46 2.492 219.528 2.492C221.688 2.492 222.996 4.004 222.996 6.644ZM221.736 5.516C221.556 4.4 220.788 3.524 219.408 3.524C217.968 3.524 217.08 4.268 217.08 5.516C217.08 6.704 217.98 7.4 219.384 7.4C220.02 7.4 220.56 7.208 220.98 6.824C221.4 6.44 221.652 6.008 221.736 5.516ZM232.426 9.2L233.146 9.716C232.678 10.592 231.622 11.108 230.578 11.108C229.582 11.108 228.778 10.808 228.166 10.22C227.554 9.632 227.242 8.852 227.242 7.868C227.242 6.932 227.542 6.152 228.154 5.54C228.766 4.928 229.546 4.616 230.518 4.616C231.634 4.616 232.63 5.12 233.05 5.888L232.27 6.416C231.85 5.852 231.274 5.564 230.542 5.564C229.894 5.564 229.366 5.78 228.946 6.212C228.526 6.644 228.31 7.196 228.31 7.868C228.31 8.552 228.526 9.104 228.97 9.524C229.402 9.944 229.966 10.16 230.674 10.16C231.418 10.16 232.006 9.836 232.426 9.2ZM235.618 5.708H233.23V4.76H239.038V5.708H236.626V11H235.618V5.708ZM240.674 13.4H239.666V4.76H240.674V5.54C241.094 4.928 241.766 4.616 242.69 4.616C243.602 4.616 244.334 4.904 244.874 5.492C245.414 6.08 245.678 6.836 245.678 7.772C245.678 8.732 245.39 9.524 244.814 10.16C244.226 10.796 243.482 11.108 242.57 11.108C241.73 11.108 241.094 10.892 240.674 10.472V13.4ZM242.582 5.564C241.67 5.564 240.962 6.152 240.674 6.86V9.188C241.034 9.836 241.634 10.16 242.486 10.16C243.098 10.16 243.614 9.944 244.01 9.512C244.406 9.08 244.61 8.528 244.61 7.844C244.61 6.452 243.83 5.564 242.582 5.564ZM247.151 6.26L246.635 5.504C247.211 4.964 248.207 4.616 249.131 4.616C250.799 4.616 251.687 5.528 251.687 7.148V11H250.679V10.076C250.283 10.652 249.503 11.084 248.495 11.084C247.139 11.084 246.227 10.328 246.227 9.176C246.227 7.868 247.343 7.244 249.215 7.244C249.803 7.244 250.283 7.304 250.679 7.424C250.679 6.212 250.247 5.564 249.011 5.564C248.387 5.564 247.763 5.792 247.151 6.26ZM248.735 10.172C249.203 10.172 249.623 10.04 249.971 9.788C250.319 9.536 250.547 9.248 250.679 8.948V8.312C250.331 8.192 249.887 8.132 249.347 8.132C247.979 8.132 247.295 8.468 247.295 9.14C247.295 9.776 247.871 10.172 248.735 10.172ZM258.578 11H257.57V8.3H253.97V11H252.962V4.76H253.97V7.352H257.57V4.76H258.578V11ZM259.992 13.436L259.308 12.776C260.028 12.14 260.58 11.396 260.952 10.508C261.324 9.632 261.504 8.768 261.504 7.892C261.504 6.008 260.772 4.388 259.308 3.032L259.98 2.324C261.792 3.944 262.536 5.972 262.536 7.892C262.536 8.864 262.332 9.836 261.936 10.82C261.528 11.804 260.88 12.68 259.992 13.436Z" fill="#76848D"/>
<defs>
<linearGradient id="paint0_linear_792_18364" x1="51.6543" y1="71" x2="51.6543" y2="295" gradientUnits="userSpaceOnUse">
<stop offset="0" stop-color="#CDE3E9"/>
<stop offset="1" stop-color="#D3E8ED"/>
</linearGradient>
<linearGradient id="paint1_linear_792_18364" x1="51.6543" y1="71" x2="51.6543" y2="295" gradientUnits="userSpaceOnUse">
<stop offset="0" stop-color="white" stop-opacity="0"/>
<stop offset="0.739583" stop-color="white"/>
</linearGradient>
<linearGradient id="paint2_linear_792_18364" x1="33.6543" y1="-365.8" x2="33.6543" y2="295" gradientUnits="userSpaceOnUse">
<stop offset="0" stop-color="white" stop-opacity="0.05"/>
<stop offset="0.75" stop-color="white" stop-opacity="0.8"/>
</linearGradient>
<linearGradient id="paint3_linear_792_18364" x1="113.876" y1="79" x2="113.876" y2="295" gradientUnits="userSpaceOnUse">
<stop offset="0" stop-color="#6D73F9"/>
<stop offset="1" stop-color="#9BB8F1"/>
</linearGradient>
<linearGradient id="paint4_linear_792_18364" x1="113.876" y1="79" x2="113.876" y2="295" gradientUnits="userSpaceOnUse">
<stop offset="0" stop-color="white" stop-opacity="0"/>
<stop offset="0.739583" stop-color="white"/>
</linearGradient>
<linearGradient id="paint5_linear_792_18364" x1="95.8765" y1="-342.2" x2="95.8765" y2="295" gradientUnits="userSpaceOnUse">
<stop offset="0" stop-color="white" stop-opacity="0.05"/>
<stop offset="0.75" stop-color="white" stop-opacity="0.8"/>
</linearGradient>
<linearGradient id="paint6_linear_792_18364" x1="466.469" y1="223" x2="466.469" y2="295" gradientUnits="userSpaceOnUse">
<stop offset="0" stop-color="#CDE3E9"/>
<stop offset="1" stop-color="#D3E8ED"/>
</linearGradient>
<linearGradient id="paint7_linear_792_18364" x1="466.469" y1="223" x2="466.469" y2="295" gradientUnits="userSpaceOnUse">
<stop offset="0" stop-color="white" stop-opacity="0"/>
<stop offset="0.739583" stop-color="white"/>
</linearGradient>
<linearGradient id="paint8_linear_792_18364" x1="448.469" y1="82.6" x2="448.469" y2="295" gradientUnits="userSpaceOnUse">
<stop offset="0" stop-color="white" stop-opacity="0.05"/>
<stop offset="0.75" stop-color="white" stop-opacity="0.8"/>
</linearGradient>
<linearGradient id="paint9_linear_792_18364" x1="528.691" y1="219" x2="528.691" y2="295" gradientUnits="userSpaceOnUse">
<stop offset="0" stop-color="#6D73F9"/>
<stop offset="1" stop-color="#9BB8F1"/>
</linearGradient>
<linearGradient id="paint10_linear_792_18364" x1="528.691" y1="219" x2="528.691" y2="295" gradientUnits="userSpaceOnUse">
<stop offset="0" stop-color="white" stop-opacity="0"/>
<stop offset="0.739583" stop-color="white"/>
</linearGradient>
<linearGradient id="paint11_linear_792_18364" x1="510.691" y1="70.8" x2="510.691" y2="295" gradientUnits="userSpaceOnUse">
<stop offset="0" stop-color="white" stop-opacity="0.05"/>
<stop offset="0.75" stop-color="white" stop-opacity="0.8"/>
</linearGradient>
<linearGradient id="paint12_linear_792_18364" x1="189.926" y1="129" x2="189.926" y2="295" gradientUnits="userSpaceOnUse">
<stop offset="0" stop-color="#CDE3E9"/>
<stop offset="1" stop-color="#D3E8ED"/>
</linearGradient>
<linearGradient id="paint13_linear_792_18364" x1="189.926" y1="129" x2="189.926" y2="295" gradientUnits="userSpaceOnUse">
<stop offset="0" stop-color="white" stop-opacity="0"/>
<stop offset="0.739583" stop-color="white"/>
</linearGradient>
<linearGradient id="paint14_linear_792_18364" x1="171.926" y1="-194.7" x2="171.926" y2="295" gradientUnits="userSpaceOnUse">
<stop offset="0" stop-color="white" stop-opacity="0.05"/>
<stop offset="0.75" stop-color="white" stop-opacity="0.8"/>
</linearGradient>
<linearGradient id="paint15_linear_792_18364" x1="252.148" y1="131" x2="252.148" y2="295" gradientUnits="userSpaceOnUse">
<stop offset="0" stop-color="#6D73F9"/>
<stop offset="1" stop-color="#9BB8F1"/>
</linearGradient>
<linearGradient id="paint16_linear_792_18364" x1="252.148" y1="131" x2="252.148" y2="295" gradientUnits="userSpaceOnUse">
<stop offset="0" stop-color="white" stop-opacity="0"/>
<stop offset="0.739583" stop-color="white"/>
</linearGradient>
<linearGradient id="paint17_linear_792_18364" x1="234.148" y1="-188.8" x2="234.148" y2="295" gradientUnits="userSpaceOnUse">
<stop offset="0" stop-color="white" stop-opacity="0.05"/>
<stop offset="0.75" stop-color="white" stop-opacity="0.8"/>
</linearGradient>
<linearGradient id="paint18_linear_792_18364" x1="604.741" y1="247" x2="604.741" y2="295" gradientUnits="userSpaceOnUse">
<stop offset="0" stop-color="#CDE3E9"/>
<stop offset="1" stop-color="#D3E8ED"/>
</linearGradient>
<linearGradient id="paint19_linear_792_18364" x1="604.741" y1="247" x2="604.741" y2="295" gradientUnits="userSpaceOnUse">
<stop offset="0" stop-color="white" stop-opacity="0"/>
<stop offset="0.739583" stop-color="white"/>
</linearGradient>
<linearGradient id="paint20_linear_792_18364" x1="586.741" y1="153.4" x2="586.741" y2="295" gradientUnits="userSpaceOnUse">
<stop offset="0" stop-color="white" stop-opacity="0.05"/>
<stop offset="0.75" stop-color="white" stop-opacity="0.8"/>
</linearGradient>
<linearGradient id="paint21_linear_792_18364" x1="666.963" y1="243" x2="666.963" y2="295" gradientUnits="userSpaceOnUse">
<stop offset="0" stop-color="#6D73F9"/>
<stop offset="1" stop-color="#9BB8F1"/>
</linearGradient>
<linearGradient id="paint22_linear_792_18364" x1="666.963" y1="243" x2="666.963" y2="295" gradientUnits="userSpaceOnUse">
<stop offset="0" stop-color="white" stop-opacity="0"/>
<stop offset="0.739583" stop-color="white"/>
</linearGradient>
<linearGradient id="paint23_linear_792_18364" x1="648.963" y1="141.6" x2="648.963" y2="295" gradientUnits="userSpaceOnUse">
<stop offset="0" stop-color="white" stop-opacity="0.05"/>
<stop offset="0.75" stop-color="white" stop-opacity="0.8"/>
</linearGradient>
<linearGradient id="paint24_linear_792_18364" x1="328.198" y1="191" x2="328.198" y2="295" gradientUnits="userSpaceOnUse">
<stop offset="0" stop-color="#CDE3E9"/>
<stop offset="1" stop-color="#D3E8ED"/>
</linearGradient>
<linearGradient id="paint25_linear_792_18364" x1="328.198" y1="191" x2="328.198" y2="295" gradientUnits="userSpaceOnUse">
<stop offset="0" stop-color="white" stop-opacity="0"/>
<stop offset="0.739583" stop-color="white"/>
</linearGradient>
<linearGradient id="paint26_linear_792_18364" x1="310.198" y1="-11.8" x2="310.198" y2="295" gradientUnits="userSpaceOnUse">
<stop offset="0" stop-color="white" stop-opacity="0.05"/>
<stop offset="0.75" stop-color="white" stop-opacity="0.8"/>
</linearGradient>
<linearGradient id="paint27_linear_792_18364" x1="390.42" y1="195" x2="390.42" y2="295" gradientUnits="userSpaceOnUse">
<stop offset="0" stop-color="#6D73F9"/>
<stop offset="1" stop-color="#9BB8F1"/>
</linearGradient>
<linearGradient id="paint28_linear_792_18364" x1="390.42" y1="195" x2="390.42" y2="295" gradientUnits="userSpaceOnUse">
<stop offset="0" stop-color="white" stop-opacity="0"/>
<stop offset="0.739583" stop-color="white"/>
</linearGradient>
<linearGradient id="paint29_linear_792_18364" x1="372.42" y1="7.03335e-06" x2="372.42" y2="295" gradientUnits="userSpaceOnUse">
<stop offset="0" stop-color="white" stop-opacity="0.05"/>
<stop offset="0.75" stop-color="white" stop-opacity="0.8"/>
</linearGradient>
<linearGradient id="paint30_linear_792_18364" x1="743.012" y1="271" x2="743.012" y2="295" gradientUnits="userSpaceOnUse">
<stop offset="0" stop-color="#CDE3E9"/>
<stop offset="1" stop-color="#D3E8ED"/>
</linearGradient>
<linearGradient id="paint31_linear_792_18364" x1="743.012" y1="271" x2="743.012" y2="295" gradientUnits="userSpaceOnUse">
<stop offset="0" stop-color="white" stop-opacity="0"/>
<stop offset="0.739583" stop-color="white"/>
</linearGradient>
<linearGradient id="paint32_linear_792_18364" x1="725.012" y1="224.2" x2="725.012" y2="295" gradientUnits="userSpaceOnUse">
<stop offset="0" stop-color="white" stop-opacity="0.05"/>
<stop offset="0.75" stop-color="white" stop-opacity="0.8"/>
</linearGradient>
<linearGradient id="paint33_linear_792_18364" x1="805.234" y1="267" x2="805.234" y2="295" gradientUnits="userSpaceOnUse">
<stop offset="0" stop-color="#6D73F9"/>
<stop offset="1" stop-color="#9BB8F1"/>
</linearGradient>
<linearGradient id="paint34_linear_792_18364" x1="805.234" y1="267" x2="805.234" y2="295" gradientUnits="userSpaceOnUse">
<stop offset="0" stop-color="white" stop-opacity="0"/>
<stop offset="0.739583" stop-color="white"/>
</linearGradient>
<linearGradient id="paint35_linear_792_18364" x1="787.234" y1="212.4" x2="787.234" y2="295" gradientUnits="userSpaceOnUse">
<stop offset="0" stop-color="white" stop-opacity="0.05"/>
<stop offset="0.75" stop-color="white" stop-opacity="0.8"/>
</linearGradient>
<linearGradient id="paint36_linear_792_18364" x1="863.284" y1="282.2" x2="863.284" y2="294" gradientUnits="userSpaceOnUse">
<stop offset="0" stop-color="white" stop-opacity="0.05"/>
<stop offset="0.75" stop-color="white" stop-opacity="0.8"/>
</linearGradient>
<linearGradient id="paint37_linear_792_18364" x1="925.506" y1="282.2" x2="925.506" y2="294" gradientUnits="userSpaceOnUse">
<stop offset="0" stop-color="white" stop-opacity="0.05"/>
<stop offset="0.75" stop-color="white" stop-opacity="0.8"/>
</linearGradient>
<linearGradient id="paint38_linear_792_18364" x1="1019.56" y1="286" x2="1019.56" y2="294" gradientUnits="userSpaceOnUse">
<stop offset="0" stop-color="#CDE3E9"/>
<stop offset="1" stop-color="#D3E8ED"/>
</linearGradient>
<linearGradient id="paint39_linear_792_18364" x1="1019.56" y1="286" x2="1019.56" y2="294" gradientUnits="userSpaceOnUse">
<stop offset="0" stop-color="white" stop-opacity="0"/>
<stop offset="0.739583" stop-color="white"/>
</linearGradient>
<linearGradient id="paint40_linear_792_18364" x1="1001.56" y1="270.4" x2="1001.56" y2="294" gradientUnits="userSpaceOnUse">
<stop offset="0" stop-color="white" stop-opacity="0.05"/>
<stop offset="0.75" stop-color="white" stop-opacity="0.8"/>
</linearGradient>
<linearGradient id="paint41_linear_792_18364" x1="1081.78" y1="290" x2="1081.78" y2="294" gradientUnits="userSpaceOnUse">
<stop offset="0" stop-color="#6D73F9"/>
<stop offset="1" stop-color="#9BB8F1"/>
</linearGradient>
<linearGradient id="paint42_linear_792_18364" x1="1081.78" y1="290" x2="1081.78" y2="294" gradientUnits="userSpaceOnUse">
<stop offset="0" stop-color="white" stop-opacity="0"/>
<stop offset="0.739583" stop-color="white"/>
</linearGradient>
<linearGradient id="paint43_linear_792_18364" x1="1063.78" y1="282.2" x2="1063.78" y2="294" gradientUnits="userSpaceOnUse">
<stop offset="0" stop-color="white" stop-opacity="0.05"/>
<stop offset="0.75" stop-color="white" stop-opacity="0.8"/>
</linearGradient>
<linearGradient id="paint44_linear_792_18364" x1="0.476191" y1="12" x2="10" y2="12" gradientUnits="userSpaceOnUse">
<stop offset="0" stop-color="#CEE8EF"/>
<stop offset="1" stop-color="#CEE8EF"/>
</linearGradient>
</defs>
</svg>
