<svg width="335" height="223" viewBox="0 0 335 223" fill="none" xmlns="http://www.w3.org/2000/svg">
<path d="M25.3823 146H24.1643V143.998H18.1723V143.186L24.3043 136.2H25.3823V142.864H27.2023V143.998H25.3823V146ZM24.1643 138.16L19.8523 142.864H24.1643V138.16ZM31.9438 141.366C31.9438 139.672 32.3638 138.37 33.1898 137.446C34.0158 136.536 35.0518 136.074 36.2978 136.074C37.9358 136.074 39.2238 136.816 39.7698 137.992L38.8178 138.636C38.2438 137.726 37.3898 137.278 36.2418 137.278C35.3738 137.278 34.6458 137.614 34.0578 138.286C33.4698 138.972 33.1758 139.896 33.1898 141.086C33.7358 140.064 35.0098 139.448 36.4098 139.448C37.5438 139.448 38.4538 139.742 39.1118 140.344C39.7698 140.946 40.1058 141.744 40.1058 142.724C40.1058 143.718 39.7418 144.544 38.9998 145.174C38.2578 145.804 37.3338 146.126 36.2278 146.126C33.5818 146.126 31.9438 144.404 31.9438 141.366ZM33.3438 142.556C33.6098 143.942 34.6598 144.922 36.2138 144.922C36.9698 144.922 37.5998 144.726 38.0898 144.32C38.5798 143.928 38.8178 143.41 38.8178 142.78C38.8178 141.394 37.8378 140.652 36.3398 140.652C35.5138 140.652 34.8278 140.848 34.2958 141.24C33.7498 141.632 33.4418 142.066 33.3438 142.556ZM42.5423 141.492L41.5343 141.226L42.1083 136.2H48.2683V137.39H43.1863L42.8223 140.022C43.3123 139.658 44.0543 139.476 45.0483 139.476C46.1963 139.476 47.0923 139.784 47.7503 140.386C48.3943 141.002 48.7163 141.786 48.7163 142.752C48.7163 143.718 48.3523 144.53 47.6383 145.16C46.9103 145.804 46.0003 146.126 44.9223 146.126C43.0883 146.126 41.5623 145.258 40.9323 143.732L42.0523 143.256C42.4583 144.194 43.5083 144.936 44.9223 144.936C46.5323 144.936 47.4283 144.012 47.4283 142.794C47.4283 141.492 46.3783 140.652 44.7123 140.652C43.8163 140.652 43.0883 140.932 42.5423 141.492ZM51.207 141.492L50.199 141.226L50.773 136.2H56.933V137.39H51.851L51.487 140.022C51.977 139.658 52.719 139.476 53.713 139.476C54.861 139.476 55.757 139.784 56.415 140.386C57.059 141.002 57.381 141.786 57.381 142.752C57.381 143.718 57.017 144.53 56.303 145.16C55.575 145.804 54.665 146.126 53.587 146.126C51.753 146.126 50.227 145.258 49.597 143.732L50.717 143.256C51.123 144.194 52.173 144.936 53.587 144.936C55.197 144.936 56.093 144.012 56.093 142.794C56.093 141.492 55.043 140.652 53.377 140.652C52.481 140.652 51.753 140.932 51.207 141.492Z" fill="#1A3341"/>
<path d="M25.863 216.372L24.987 216.06C25.287 214.572 26.415 213.504 28.203 213.504C29.931 213.504 30.987 214.5 30.987 216.024C30.987 216.828 30.639 217.632 30.207 218.208C29.991 218.508 29.715 218.796 29.391 219.096C28.731 219.684 28.263 219.996 27.579 220.428L26.655 221.004H31.299V222H24.759V221.184L26.583 219.972C26.907 219.768 27.135 219.612 27.267 219.516C27.399 219.432 27.615 219.276 27.903 219.072C28.191 218.868 28.407 218.688 28.551 218.556C28.683 218.424 28.863 218.256 29.067 218.04C29.619 217.44 29.823 216.888 29.883 216.132C29.883 215.04 29.175 214.548 28.131 214.548C27.483 214.548 26.967 214.728 26.595 215.088C26.223 215.448 25.971 215.88 25.863 216.372ZM32.1307 217.8C32.1307 216.504 32.4307 215.46 33.0427 214.68C33.6427 213.9 34.5307 213.504 35.6947 213.504C38.0827 213.504 39.2707 215.076 39.2707 217.8C39.2707 219.108 38.9707 220.14 38.3827 220.92C37.7827 221.7 36.8947 222.096 35.7187 222.096C34.5907 222.096 33.7147 221.7 33.0787 220.908C32.4427 220.116 32.1307 219.084 32.1307 217.8ZM33.2347 217.8C33.2347 219.852 34.1707 221.076 35.7187 221.076C37.3507 221.076 38.1667 219.984 38.1667 217.8C38.1667 215.616 37.3387 214.524 35.6947 214.524C34.0267 214.524 33.2347 215.724 33.2347 217.8ZM41.1269 216.372L40.2509 216.06C40.5509 214.572 41.6789 213.504 43.4669 213.504C45.1949 213.504 46.2509 214.5 46.2509 216.024C46.2509 216.828 45.9029 217.632 45.4709 218.208C45.2549 218.508 44.9789 218.796 44.6549 219.096C43.9949 219.684 43.5269 219.996 42.8429 220.428L41.9189 221.004H46.5629V222H40.0229V221.184L41.8469 219.972C42.1709 219.768 42.3989 219.612 42.5309 219.516C42.6629 219.432 42.8789 219.276 43.1669 219.072C43.4549 218.868 43.6709 218.688 43.8149 218.556C43.9469 218.424 44.1269 218.256 44.3309 218.04C44.8829 217.44 45.0869 216.888 45.1469 216.132C45.1469 215.04 44.4389 214.548 43.3949 214.548C42.7469 214.548 42.2309 214.728 41.8589 215.088C41.4869 215.448 41.2349 215.88 41.1269 216.372ZM47.2986 215.832L46.9146 214.932L49.7946 213.552H50.4786V222H49.4466V214.836L47.2986 215.832Z" fill="#1A3341" fill-opacity="0.6"/>
<path d="M10 158C10 156.895 10.8954 156 12 156H64C65.1046 156 66 156.895 66 158V207H10V158Z" fill="url(#paint0_linear_6004_39839)"/>
<path opacity="0.2" d="M22 156H54V207H22V156Z" fill="url(#paint1_linear_6004_39839)"/>
<path opacity="0.04" d="M54 156H64C65.1046 156 66 156.895 66 158V207H54V156Z" fill="#0D262C"/>
<path opacity="0.5" d="M10 158C10 156.895 10.8954 156 12 156H22V207H10V158Z" fill="url(#paint2_linear_6004_39839)"/>
<path d="M151.009 126H149.791V123.998H143.799V123.186L149.931 116.2H151.009V122.864H152.829V123.998H151.009V126ZM149.791 118.16L145.479 122.864H149.791V118.16ZM161.435 120.414H161.869C162.499 120.414 163.017 120.26 163.451 119.966C163.871 119.672 164.081 119.28 164.081 118.818C164.081 117.768 163.255 117.236 161.617 117.236C160.049 117.236 159.195 117.81 159.195 118.818C159.195 119.728 160.133 120.414 161.435 120.414ZM161.841 121.52H161.491C160.735 121.52 160.105 121.688 159.615 122.01C159.125 122.332 158.873 122.738 158.873 123.228C158.873 124.292 159.853 124.964 161.631 124.964C163.437 124.964 164.403 124.32 164.403 123.242C164.403 122.164 163.367 121.52 161.841 121.52ZM164.599 125.37C163.885 125.874 162.891 126.126 161.645 126.126C160.399 126.126 159.405 125.874 158.677 125.384C157.949 124.894 157.585 124.222 157.585 123.354C157.585 122.22 158.327 121.324 159.517 120.932C158.439 120.582 157.907 119.728 157.907 118.734C157.907 117.11 159.279 116.074 161.631 116.074C163.997 116.074 165.369 117.11 165.369 118.734C165.369 119.672 164.851 120.386 163.815 120.862C165.061 121.24 165.677 122.052 165.677 123.298C165.677 124.18 165.313 124.88 164.599 125.37ZM166.657 118.804L166.209 117.754L169.569 116.144H170.367V126H169.163V117.642L166.657 118.804ZM173.58 121.492L172.572 121.226L173.146 116.2H179.306V117.39H174.224L173.86 120.022C174.35 119.658 175.092 119.476 176.086 119.476C177.234 119.476 178.13 119.784 178.788 120.386C179.432 121.002 179.754 121.786 179.754 122.752C179.754 123.718 179.39 124.53 178.676 125.16C177.948 125.804 177.038 126.126 175.96 126.126C174.126 126.126 172.6 125.258 171.97 123.732L173.09 123.256C173.496 124.194 174.546 124.936 175.96 124.936C177.57 124.936 178.466 124.012 178.466 122.794C178.466 121.492 177.416 120.652 175.75 120.652C174.854 120.652 174.126 120.932 173.58 121.492Z" fill="#1A3341"/>
<path d="M148.556 216.372L147.68 216.06C147.98 214.572 149.108 213.504 150.896 213.504C152.624 213.504 153.68 214.5 153.68 216.024C153.68 216.828 153.332 217.632 152.9 218.208C152.684 218.508 152.408 218.796 152.084 219.096C151.424 219.684 150.956 219.996 150.272 220.428L149.348 221.004H153.992V222H147.452V221.184L149.276 219.972C149.6 219.768 149.828 219.612 149.96 219.516C150.092 219.432 150.308 219.276 150.596 219.072C150.884 218.868 151.1 218.688 151.244 218.556C151.376 218.424 151.556 218.256 151.76 218.04C152.312 217.44 152.516 216.888 152.576 216.132C152.576 215.04 151.868 214.548 150.824 214.548C150.176 214.548 149.66 214.728 149.288 215.088C148.916 215.448 148.664 215.88 148.556 216.372ZM154.824 217.8C154.824 216.504 155.124 215.46 155.736 214.68C156.336 213.9 157.224 213.504 158.388 213.504C160.776 213.504 161.964 215.076 161.964 217.8C161.964 219.108 161.664 220.14 161.076 220.92C160.476 221.7 159.588 222.096 158.412 222.096C157.284 222.096 156.408 221.7 155.772 220.908C155.136 220.116 154.824 219.084 154.824 217.8ZM155.928 217.8C155.928 219.852 156.864 221.076 158.412 221.076C160.044 221.076 160.86 219.984 160.86 217.8C160.86 215.616 160.032 214.524 158.388 214.524C156.72 214.524 155.928 215.724 155.928 217.8ZM163.82 216.372L162.944 216.06C163.244 214.572 164.372 213.504 166.16 213.504C167.888 213.504 168.944 214.5 168.944 216.024C168.944 216.828 168.596 217.632 168.164 218.208C167.948 218.508 167.672 218.796 167.348 219.096C166.688 219.684 166.22 219.996 165.536 220.428L164.612 221.004H169.256V222H162.716V221.184L164.54 219.972C164.864 219.768 165.092 219.612 165.224 219.516C165.356 219.432 165.572 219.276 165.86 219.072C166.148 218.868 166.364 218.688 166.508 218.556C166.64 218.424 166.82 218.256 167.024 218.04C167.576 217.44 167.78 216.888 167.84 216.132C167.84 215.04 167.132 214.548 166.088 214.548C165.44 214.548 164.924 214.728 164.552 215.088C164.18 215.448 163.928 215.88 163.82 216.372ZM171.048 216.372L170.172 216.06C170.472 214.572 171.6 213.504 173.388 213.504C175.116 213.504 176.172 214.5 176.172 216.024C176.172 216.828 175.824 217.632 175.392 218.208C175.176 218.508 174.9 218.796 174.576 219.096C173.916 219.684 173.448 219.996 172.764 220.428L171.84 221.004H176.484V222H169.944V221.184L171.768 219.972C172.092 219.768 172.32 219.612 172.452 219.516C172.584 219.432 172.8 219.276 173.088 219.072C173.376 218.868 173.592 218.688 173.736 218.556C173.868 218.424 174.048 218.256 174.252 218.04C174.804 217.44 175.008 216.888 175.068 216.132C175.068 215.04 174.36 214.548 173.316 214.548C172.668 214.548 172.152 214.728 171.78 215.088C171.408 215.448 171.156 215.88 171.048 216.372Z" fill="#1A3341" fill-opacity="0.6"/>
<path d="M134 138C134 136.895 134.895 136 136 136H188C189.105 136 190 136.895 190 138V207H134V138Z" fill="url(#paint3_linear_6004_39839)"/>
<path opacity="0.2" d="M146 136H178V207H146V136Z" fill="url(#paint4_linear_6004_39839)"/>
<path opacity="0.04" d="M178 136H188C189.105 136 190 136.895 190 138V207H178V136Z" fill="#0D262C"/>
<path opacity="0.5" d="M134 138C134 136.895 134.895 136 136 136H146V207H134V138Z" fill="url(#paint5_linear_6004_39839)"/>
<path d="M269.979 149.056L268.929 148.58C269.447 147.068 270.805 146.074 272.835 146.074C273.801 146.074 274.599 146.298 275.215 146.746C275.831 147.194 276.139 147.796 276.139 148.538C276.139 149.672 275.537 150.512 274.417 150.834C275.495 150.904 276.363 151.716 276.363 153.172C276.363 154.096 276.027 154.824 275.355 155.342C274.683 155.86 273.829 156.126 272.779 156.126C270.637 156.126 269.153 155.104 268.663 153.494L269.797 153.004C270.399 154.278 271.421 154.922 272.863 154.922C274.221 154.922 275.075 154.292 275.075 153.186C275.075 152.108 274.235 151.562 272.555 151.562H271.463V150.4H272.331C273.857 150.4 274.851 149.714 274.851 148.776C274.851 147.81 274.053 147.264 272.779 147.264C271.281 147.264 270.371 148.034 269.979 149.056ZM282.691 149.434L281.669 149.07C282.019 147.334 283.335 146.088 285.421 146.088C287.437 146.088 288.669 147.25 288.669 149.028C288.669 149.966 288.263 150.904 287.759 151.576C287.507 151.926 287.185 152.262 286.807 152.612C286.037 153.298 285.491 153.662 284.693 154.166L283.615 154.838H289.033V156H281.403V155.048L283.531 153.634C283.909 153.396 284.175 153.214 284.329 153.102C284.483 153.004 284.735 152.822 285.071 152.584C285.407 152.346 285.659 152.136 285.827 151.982C285.981 151.828 286.191 151.632 286.429 151.38C287.073 150.68 287.311 150.036 287.381 149.154C287.381 147.88 286.555 147.306 285.337 147.306C284.581 147.306 283.979 147.516 283.545 147.936C283.111 148.356 282.817 148.86 282.691 149.434ZM289.891 148.804L289.443 147.754L292.803 146.144H293.601V156H292.397V147.642L289.891 148.804ZM296.814 151.492L295.806 151.226L296.38 146.2H302.54V147.39H297.458L297.094 150.022C297.584 149.658 298.326 149.476 299.32 149.476C300.468 149.476 301.364 149.784 302.022 150.386C302.666 151.002 302.988 151.786 302.988 152.752C302.988 153.718 302.624 154.53 301.91 155.16C301.182 155.804 300.272 156.126 299.194 156.126C297.36 156.126 295.834 155.258 295.204 153.732L296.324 153.256C296.73 154.194 297.78 154.936 299.194 154.936C300.804 154.936 301.7 154.012 301.7 152.794C301.7 151.492 300.65 150.652 298.984 150.652C298.088 150.652 297.36 150.932 296.814 151.492Z" fill="#1A3341"/>
<path d="M272.527 216.372L271.651 216.06C271.951 214.572 273.079 213.504 274.867 213.504C276.595 213.504 277.651 214.5 277.651 216.024C277.651 216.828 277.303 217.632 276.871 218.208C276.655 218.508 276.379 218.796 276.055 219.096C275.395 219.684 274.927 219.996 274.243 220.428L273.319 221.004H277.963V222H271.423V221.184L273.247 219.972C273.571 219.768 273.799 219.612 273.931 219.516C274.063 219.432 274.279 219.276 274.567 219.072C274.855 218.868 275.071 218.688 275.215 218.556C275.347 218.424 275.527 218.256 275.731 218.04C276.283 217.44 276.487 216.888 276.547 216.132C276.547 215.04 275.839 214.548 274.795 214.548C274.147 214.548 273.631 214.728 273.259 215.088C272.887 215.448 272.635 215.88 272.527 216.372ZM278.795 217.8C278.795 216.504 279.095 215.46 279.707 214.68C280.307 213.9 281.195 213.504 282.359 213.504C284.747 213.504 285.935 215.076 285.935 217.8C285.935 219.108 285.635 220.14 285.047 220.92C284.447 221.7 283.559 222.096 282.383 222.096C281.255 222.096 280.379 221.7 279.743 220.908C279.107 220.116 278.795 219.084 278.795 217.8ZM279.899 217.8C279.899 219.852 280.835 221.076 282.383 221.076C284.015 221.076 284.831 219.984 284.831 217.8C284.831 215.616 284.003 214.524 282.359 214.524C280.691 214.524 279.899 215.724 279.899 217.8ZM287.791 216.372L286.915 216.06C287.215 214.572 288.343 213.504 290.131 213.504C291.859 213.504 292.915 214.5 292.915 216.024C292.915 216.828 292.567 217.632 292.135 218.208C291.919 218.508 291.643 218.796 291.319 219.096C290.659 219.684 290.191 219.996 289.507 220.428L288.583 221.004H293.227V222H286.687V221.184L288.511 219.972C288.835 219.768 289.063 219.612 289.195 219.516C289.327 219.432 289.543 219.276 289.831 219.072C290.119 218.868 290.335 218.688 290.479 218.556C290.611 218.424 290.791 218.256 290.995 218.04C291.547 217.44 291.751 216.888 291.811 216.132C291.811 215.04 291.103 214.548 290.059 214.548C289.411 214.548 288.895 214.728 288.523 215.088C288.151 215.448 287.899 215.88 287.791 216.372ZM294.887 216.048L293.987 215.64C294.431 214.344 295.595 213.492 297.335 213.492C298.163 213.492 298.847 213.684 299.375 214.068C299.903 214.452 300.167 214.968 300.167 215.604C300.167 216.576 299.651 217.296 298.691 217.572C299.615 217.632 300.359 218.328 300.359 219.576C300.359 220.368 300.071 220.992 299.495 221.436C298.919 221.88 298.187 222.108 297.287 222.108C295.451 222.108 294.179 221.232 293.759 219.852L294.731 219.432C295.247 220.524 296.123 221.076 297.359 221.076C298.523 221.076 299.255 220.536 299.255 219.588C299.255 218.664 298.535 218.196 297.095 218.196H296.159V217.2H296.903C298.211 217.2 299.063 216.612 299.063 215.808C299.063 214.98 298.379 214.512 297.287 214.512C296.003 214.512 295.223 215.172 294.887 216.048Z" fill="#1A3341" fill-opacity="0.6"/>
<path d="M258 168C258 166.895 258.895 166 260 166H312C313.105 166 314 166.895 314 168V207H258V168Z" fill="url(#paint6_linear_6004_39839)"/>
<path opacity="0.2" d="M270 166H302V207H270V166Z" fill="url(#paint7_linear_6004_39839)"/>
<path opacity="0.04" d="M302 166H312C313.105 166 314 166.895 314 168V207H302V166Z" fill="#0D262C"/>
<path opacity="0.5" d="M258 168C258 166.895 258.895 166 260 166H270V207H258V168Z" fill="url(#paint8_linear_6004_39839)"/>
<path d="M125.927 151.354C126.122 151.158 126.122 150.842 125.927 150.646L122.745 147.464C122.55 147.269 122.233 147.269 122.038 147.464C121.843 147.66 121.843 147.976 122.038 148.172L124.867 151L122.038 153.828C121.843 154.024 121.843 154.34 122.038 154.536C122.233 154.731 122.55 154.731 122.745 154.536L125.927 151.354ZM74.1797 151.5L125.574 151.5L125.574 150.5L74.1797 150.5L74.1797 151.5Z" fill="#318F73"/>
<path d="M88.6445 138.136H86.3765V137.224H88.6445V134.944H89.5925V137.224H91.8845V138.136H89.5925V140.44H88.6445V138.136ZM94.1495 136.048L93.2495 135.64C93.7535 134.212 94.8335 133.492 96.4775 133.492C97.3055 133.492 97.9895 133.684 98.5175 134.068C99.0455 134.452 99.3095 134.968 99.3095 135.604C99.3095 136.576 98.7935 137.296 97.8335 137.572C98.7575 137.632 99.5015 138.328 99.5015 139.576C99.5015 140.368 99.2135 140.992 98.6375 141.436C98.0615 141.88 97.3295 142.108 96.4295 142.108C94.6055 142.108 93.4535 141.244 93.0215 139.852L93.9935 139.432C94.4735 140.476 95.1095 141.076 96.5015 141.076C97.6655 141.076 98.3975 140.536 98.3975 139.588C98.3975 138.664 97.6775 138.196 96.2375 138.196H95.3015V137.2H96.0455C97.3535 137.2 98.2055 136.612 98.2055 135.808C98.2055 134.98 97.5215 134.512 96.4295 134.512C95.3135 134.512 94.5455 135.028 94.1495 136.048ZM102.485 142.18L101.693 141.724L107.897 133.336L108.653 133.888L102.485 142.18ZM100.397 135.616C100.397 135.016 100.601 134.524 101.021 134.14C101.441 133.756 101.957 133.564 102.593 133.564C103.217 133.564 103.733 133.756 104.153 134.14C104.573 134.524 104.777 135.016 104.777 135.616C104.777 136.204 104.573 136.696 104.153 137.08C103.733 137.464 103.217 137.656 102.593 137.656C101.957 137.656 101.441 137.464 101.021 137.08C100.601 136.696 100.397 136.204 100.397 135.616ZM101.405 135.616C101.405 136.3 101.957 136.804 102.593 136.804C103.253 136.804 103.769 136.324 103.769 135.616C103.769 134.908 103.229 134.428 102.593 134.428C101.933 134.428 101.405 134.908 101.405 135.616ZM106.169 141.472C105.749 141.088 105.545 140.596 105.545 139.996C105.545 139.396 105.749 138.904 106.169 138.52C106.589 138.148 107.105 137.956 107.741 137.956C108.365 137.956 108.881 138.148 109.301 138.52C109.721 138.904 109.925 139.396 109.925 139.996C109.925 140.584 109.721 141.076 109.301 141.46C108.881 141.856 108.365 142.048 107.741 142.048C107.105 142.048 106.589 141.856 106.169 141.472ZM106.553 139.996C106.553 140.68 107.105 141.184 107.741 141.184C108.401 141.184 108.917 140.704 108.917 139.996C108.917 139.288 108.377 138.808 107.741 138.808C107.081 138.808 106.553 139.288 106.553 139.996Z" fill="#318F73"/>
<path d="M249.927 151.354C250.122 151.158 250.122 150.842 249.927 150.646L246.745 147.464C246.55 147.269 246.233 147.269 246.038 147.464C245.843 147.66 245.843 147.976 246.038 148.172L248.867 151L246.038 153.828C245.843 154.024 245.843 154.34 246.038 154.536C246.233 154.731 246.55 154.731 246.745 154.536L249.927 151.354ZM198.18 151.5L249.574 151.5L249.574 150.5L198.18 150.5L198.18 151.5Z" fill="#7DA4C1"/>
<path d="M207.398 138.136H201.83V137.236H207.398V138.136ZM209.536 136.048L208.636 135.64C209.14 134.212 210.22 133.492 211.864 133.492C212.692 133.492 213.376 133.684 213.904 134.068C214.432 134.452 214.696 134.968 214.696 135.604C214.696 136.576 214.18 137.296 213.22 137.572C214.144 137.632 214.888 138.328 214.888 139.576C214.888 140.368 214.6 140.992 214.024 141.436C213.448 141.88 212.716 142.108 211.816 142.108C209.992 142.108 208.84 141.244 208.408 139.852L209.38 139.432C209.86 140.476 210.496 141.076 211.888 141.076C213.052 141.076 213.784 140.536 213.784 139.588C213.784 138.664 213.064 138.196 211.624 138.196H210.688V137.2H211.432C212.74 137.2 213.592 136.612 213.592 135.808C213.592 134.98 212.908 134.512 211.816 134.512C210.7 134.512 209.932 135.028 209.536 136.048ZM216.732 136.048L215.832 135.64C216.336 134.212 217.416 133.492 219.06 133.492C219.888 133.492 220.572 133.684 221.1 134.068C221.628 134.452 221.892 134.968 221.892 135.604C221.892 136.576 221.376 137.296 220.416 137.572C221.34 137.632 222.084 138.328 222.084 139.576C222.084 140.368 221.796 140.992 221.22 141.436C220.644 141.88 219.912 142.108 219.012 142.108C217.188 142.108 216.036 141.244 215.604 139.852L216.576 139.432C217.056 140.476 217.692 141.076 219.084 141.076C220.248 141.076 220.98 140.536 220.98 139.588C220.98 138.664 220.26 138.196 218.82 138.196H217.884V137.2H218.628C219.936 137.2 220.788 136.612 220.788 135.808C220.788 134.98 220.104 134.512 219.012 134.512C217.896 134.512 217.128 135.028 216.732 136.048ZM223.783 142C223.339 142.048 223.003 141.796 223.003 141.364C223.003 140.944 223.267 140.68 223.735 140.68C224.263 140.68 224.611 141.04 224.611 141.712C224.611 142.912 223.951 143.524 223.075 143.728L222.823 143.164C223.087 143.092 223.327 142.948 223.543 142.72C223.747 142.492 223.831 142.252 223.783 142ZM226.564 136.372L225.688 136.06C225.988 134.56 227.068 133.504 228.844 133.504C230.572 133.504 231.568 134.5 231.568 136.024C231.532 137.284 230.944 138.28 230.056 139.084C229.432 139.672 228.94 140.008 228.28 140.428L227.356 141.004H231.88V142H225.58V141.184L227.284 139.972C228.28 139.264 228.928 138.772 229.228 138.496C230.056 137.74 230.464 136.948 230.464 136.132C230.464 135.028 229.792 134.548 228.772 134.548C227.476 134.548 226.804 135.364 226.564 136.372ZM234.887 142.18L234.095 141.724L240.299 133.336L241.055 133.888L234.887 142.18ZM232.799 135.616C232.799 135.016 233.003 134.524 233.423 134.14C233.843 133.756 234.359 133.564 234.995 133.564C235.619 133.564 236.135 133.756 236.555 134.14C236.975 134.524 237.179 135.016 237.179 135.616C237.179 136.204 236.975 136.696 236.555 137.08C236.135 137.464 235.619 137.656 234.995 137.656C234.359 137.656 233.843 137.464 233.423 137.08C233.003 136.696 232.799 136.204 232.799 135.616ZM233.807 135.616C233.807 136.3 234.359 136.804 234.995 136.804C235.655 136.804 236.171 136.324 236.171 135.616C236.171 134.908 235.631 134.428 234.995 134.428C234.335 134.428 233.807 134.908 233.807 135.616ZM238.571 141.472C238.151 141.088 237.947 140.596 237.947 139.996C237.947 139.396 238.151 138.904 238.571 138.52C238.991 138.148 239.507 137.956 240.143 137.956C240.767 137.956 241.283 138.148 241.703 138.52C242.123 138.904 242.327 139.396 242.327 139.996C242.327 140.584 242.123 141.076 241.703 141.46C241.283 141.856 240.767 142.048 240.143 142.048C239.507 142.048 238.991 141.856 238.571 141.472ZM238.955 139.996C238.955 140.68 239.507 141.184 240.143 141.184C240.803 141.184 241.319 140.704 241.319 139.996C241.319 139.288 240.779 138.808 240.143 138.808C239.483 138.808 238.955 139.288 238.955 139.996Z" fill="#7DA4C1"/>
<path d="M36.6396 63L160.063 25L282.664 95.5" stroke="url(#paint9_linear_6004_39839)" stroke-width="5"/>
<circle cx="284.493" cy="96" r="7" fill="#64BBEA" stroke="white" stroke-width="2"/>
<circle cx="161.069" cy="25" r="7" fill="#64BBEA" stroke="white" stroke-width="2"/>
<circle cx="38.4683" cy="64" r="7" fill="#64BBEA" stroke="white" stroke-width="2"/>
<path d="M30.5807 41.85H26.3407V41H31.6507V41.57L28.1707 48H27.2207L30.5807 41.85ZM33.1068 48C32.7368 48.04 32.4568 47.83 32.4568 47.47C32.4568 47.12 32.6768 46.9 33.0668 46.9C33.5068 46.9 33.7968 47.2 33.7968 47.76C33.7968 48.76 33.2468 49.27 32.5168 49.44L32.3068 48.97C32.5268 48.91 32.7268 48.79 32.9068 48.6C33.0768 48.41 33.1468 48.21 33.1068 48ZM35.4243 43.31L34.6943 43.05C34.9443 41.8 35.8443 40.92 37.3243 40.92C38.7643 40.92 39.5943 41.75 39.5943 43.02C39.5643 44.07 39.0743 44.9 38.3343 45.57C37.8143 46.06 37.4043 46.34 36.8543 46.69L36.0843 47.17H39.8543V48H34.6043V47.32L36.0243 46.31C36.8543 45.72 37.3943 45.31 37.6443 45.08C38.3343 44.45 38.6743 43.79 38.6743 43.11C38.6743 42.19 38.1143 41.79 37.2643 41.79C36.1843 41.79 35.6243 42.47 35.4243 43.31ZM42.3604 48.15L41.7004 47.77L46.8704 40.78L47.5004 41.24L42.3604 48.15ZM40.6204 42.68C40.6204 42.18 40.7904 41.77 41.1404 41.45C41.4904 41.13 41.9204 40.97 42.4504 40.97C42.9704 40.97 43.4004 41.13 43.7504 41.45C44.1004 41.77 44.2704 42.18 44.2704 42.68C44.2704 43.17 44.1004 43.58 43.7504 43.9C43.4004 44.22 42.9704 44.38 42.4504 44.38C41.9204 44.38 41.4904 44.22 41.1404 43.9C40.7904 43.58 40.6204 43.17 40.6204 42.68ZM41.4604 42.68C41.4604 43.25 41.9204 43.67 42.4504 43.67C43.0004 43.67 43.4304 43.27 43.4304 42.68C43.4304 42.09 42.9804 41.69 42.4504 41.69C41.9004 41.69 41.4604 42.09 41.4604 42.68ZM45.4304 47.56C45.0804 47.24 44.9104 46.83 44.9104 46.33C44.9104 45.83 45.0804 45.42 45.4304 45.1C45.7804 44.79 46.2104 44.63 46.7404 44.63C47.2604 44.63 47.6904 44.79 48.0404 45.1C48.3904 45.42 48.5604 45.83 48.5604 46.33C48.5604 46.82 48.3904 47.23 48.0404 47.55C47.6904 47.88 47.2604 48.04 46.7404 48.04C46.2104 48.04 45.7804 47.88 45.4304 47.56ZM45.7504 46.33C45.7504 46.9 46.2104 47.32 46.7404 47.32C47.2904 47.32 47.7204 46.92 47.7204 46.33C47.7204 45.74 47.2704 45.34 46.7404 45.34C46.1904 45.34 45.7504 45.74 45.7504 46.33Z" fill="#357D94"/>
<path d="M154.763 6.01H155.073C155.443 6.01 155.773 5.9 156.043 5.69C156.313 5.48 156.453 5.2 156.453 4.87C156.453 4.12 155.933 3.74 154.893 3.74C153.873 3.74 153.363 4.12 153.363 4.87C153.363 5.52 153.953 6.01 154.763 6.01ZM155.053 6.8H154.803C153.753 6.8 153.133 7.3 153.133 8.02C153.133 8.78 153.753 9.26 154.903 9.26C156.053 9.26 156.683 8.8 156.683 8.03C156.683 7.24 156.123 6.8 155.053 6.8ZM154.913 10.09C153.243 10.09 152.213 9.35 152.213 8.11C152.213 7.28 152.663 6.66 153.493 6.38C152.783 6.11 152.443 5.52 152.443 4.81C152.443 3.66 153.383 2.91 154.903 2.91C156.473 2.91 157.373 3.65 157.373 4.81C157.373 5.51 157.033 6.02 156.363 6.33C157.273 6.61 157.593 7.18 157.593 8.07C157.593 9.34 156.543 10.09 154.913 10.09ZM158.999 10C158.629 10.04 158.349 9.83 158.349 9.47C158.349 9.12 158.569 8.9 158.959 8.9C159.399 8.9 159.689 9.2 159.689 9.76C159.689 10.76 159.139 11.27 158.409 11.44L158.199 10.97C158.419 10.91 158.619 10.79 158.799 10.6C158.969 10.41 159.039 10.21 158.999 10ZM164.656 3.85H160.416V3H165.726V3.57L162.246 10H161.296L164.656 3.85ZM168.253 10.15L167.593 9.77L172.763 2.78L173.393 3.24L168.253 10.15ZM166.513 4.68C166.513 4.18 166.683 3.77 167.033 3.45C167.383 3.13 167.813 2.97 168.343 2.97C168.863 2.97 169.293 3.13 169.643 3.45C169.993 3.77 170.163 4.18 170.163 4.68C170.163 5.17 169.993 5.58 169.643 5.9C169.293 6.22 168.863 6.38 168.343 6.38C167.813 6.38 167.383 6.22 167.033 5.9C166.683 5.58 166.513 5.17 166.513 4.68ZM167.353 4.68C167.353 5.25 167.813 5.67 168.343 5.67C168.893 5.67 169.323 5.27 169.323 4.68C169.323 4.09 168.873 3.69 168.343 3.69C167.793 3.69 167.353 4.09 167.353 4.68ZM171.323 9.56C170.973 9.24 170.803 8.83 170.803 8.33C170.803 7.83 170.973 7.42 171.323 7.1C171.673 6.79 172.103 6.63 172.633 6.63C173.153 6.63 173.583 6.79 173.933 7.1C174.283 7.42 174.453 7.83 174.453 8.33C174.453 8.82 174.283 9.23 173.933 9.55C173.583 9.88 173.153 10.04 172.633 10.04C172.103 10.04 171.673 9.88 171.323 9.56ZM171.643 8.33C171.643 8.9 172.103 9.32 172.633 9.32C173.183 9.32 173.613 8.92 173.613 8.33C173.613 7.74 173.163 7.34 172.633 7.34C172.083 7.34 171.643 7.74 171.643 8.33Z" fill="#357D94"/>
<path d="M274.257 78.78L273.537 78.59L273.947 75H278.347V75.85H274.717L274.457 77.73C274.807 77.47 275.337 77.34 276.047 77.34C276.867 77.34 277.507 77.56 277.977 77.99C278.437 78.43 278.667 78.99 278.667 79.68C278.667 80.37 278.407 80.95 277.897 81.4C277.377 81.86 276.727 82.09 275.957 82.09C274.647 82.09 273.557 81.47 273.107 80.38L273.907 80.04C274.197 80.71 274.947 81.24 275.957 81.24C277.107 81.24 277.747 80.58 277.747 79.71C277.747 78.78 276.997 78.18 275.807 78.18C275.167 78.18 274.647 78.38 274.257 78.78ZM279.903 82C279.533 82.04 279.253 81.83 279.253 81.47C279.253 81.12 279.473 80.9 279.863 80.9C280.303 80.9 280.593 81.2 280.593 81.76C280.593 82.76 280.043 83.27 279.313 83.44L279.103 82.97C279.323 82.91 279.523 82.79 279.703 82.6C279.873 82.41 279.943 82.21 279.903 82ZM283.85 78.01H284.16C284.53 78.01 284.86 77.9 285.13 77.69C285.4 77.48 285.54 77.2 285.54 76.87C285.54 76.12 285.02 75.74 283.98 75.74C282.96 75.74 282.45 76.12 282.45 76.87C282.45 77.52 283.04 78.01 283.85 78.01ZM284.14 78.8H283.89C282.84 78.8 282.22 79.3 282.22 80.02C282.22 80.78 282.84 81.26 283.99 81.26C285.14 81.26 285.77 80.8 285.77 80.03C285.77 79.24 285.21 78.8 284.14 78.8ZM284 82.09C282.33 82.09 281.3 81.35 281.3 80.11C281.3 79.28 281.75 78.66 282.58 78.38C281.87 78.11 281.53 77.52 281.53 76.81C281.53 75.66 282.47 74.91 283.99 74.91C285.56 74.91 286.46 75.65 286.46 76.81C286.46 77.51 286.12 78.02 285.45 78.33C286.36 78.61 286.68 79.18 286.68 80.07C286.68 81.34 285.63 82.09 284 82.09ZM289.156 82.15L288.496 81.77L293.666 74.78L294.296 75.24L289.156 82.15ZM287.416 76.68C287.416 76.18 287.586 75.77 287.936 75.45C288.286 75.13 288.716 74.97 289.246 74.97C289.766 74.97 290.196 75.13 290.546 75.45C290.896 75.77 291.066 76.18 291.066 76.68C291.066 77.17 290.896 77.58 290.546 77.9C290.196 78.22 289.766 78.38 289.246 78.38C288.716 78.38 288.286 78.22 287.936 77.9C287.586 77.58 287.416 77.17 287.416 76.68ZM288.256 76.68C288.256 77.25 288.716 77.67 289.246 77.67C289.796 77.67 290.226 77.27 290.226 76.68C290.226 76.09 289.776 75.69 289.246 75.69C288.696 75.69 288.256 76.09 288.256 76.68ZM292.226 81.56C291.876 81.24 291.706 80.83 291.706 80.33C291.706 79.83 291.876 79.42 292.226 79.1C292.576 78.79 293.006 78.63 293.536 78.63C294.056 78.63 294.486 78.79 294.836 79.1C295.186 79.42 295.356 79.83 295.356 80.33C295.356 80.82 295.186 81.23 294.836 81.55C294.486 81.88 294.056 82.04 293.536 82.04C293.006 82.04 292.576 81.88 292.226 81.56ZM292.546 80.33C292.546 80.9 293.006 81.32 293.536 81.32C294.086 81.32 294.516 80.92 294.516 80.33C294.516 79.74 294.066 79.34 293.536 79.34C292.986 79.34 292.546 79.74 292.546 80.33Z" fill="#357D94"/>
<line y1="206.5" x2="335" y2="206.5" stroke="#ABBEC9"/>
<defs>
<linearGradient id="paint0_linear_6004_39839" x1="38" y1="156" x2="38" y2="207" gradientUnits="userSpaceOnUse">
<stop stop-color="#45B8DB"/>
<stop offset="1" stop-color="#ADE4E4"/>
</linearGradient>
<linearGradient id="paint1_linear_6004_39839" x1="38" y1="156" x2="38" y2="207" gradientUnits="userSpaceOnUse">
<stop stop-color="white" stop-opacity="0"/>
<stop offset="0.739583" stop-color="white"/>
</linearGradient>
<linearGradient id="paint2_linear_6004_39839" x1="16" y1="56.55" x2="16" y2="207" gradientUnits="userSpaceOnUse">
<stop stop-color="white" stop-opacity="0.05"/>
<stop offset="0.75" stop-color="white" stop-opacity="0.8"/>
</linearGradient>
<linearGradient id="paint3_linear_6004_39839" x1="162" y1="136" x2="162" y2="207" gradientUnits="userSpaceOnUse">
<stop stop-color="#45B8DB"/>
<stop offset="1" stop-color="#ADE4E4"/>
</linearGradient>
<linearGradient id="paint4_linear_6004_39839" x1="162" y1="136" x2="162" y2="207" gradientUnits="userSpaceOnUse">
<stop stop-color="white" stop-opacity="0"/>
<stop offset="0.739583" stop-color="white"/>
</linearGradient>
<linearGradient id="paint5_linear_6004_39839" x1="140" y1="-2.45" x2="140" y2="207" gradientUnits="userSpaceOnUse">
<stop stop-color="white" stop-opacity="0.05"/>
<stop offset="0.75" stop-color="white" stop-opacity="0.8"/>
</linearGradient>
<linearGradient id="paint6_linear_6004_39839" x1="286" y1="166" x2="286" y2="207" gradientUnits="userSpaceOnUse">
<stop stop-color="#45B8DB"/>
<stop offset="1" stop-color="#ADE4E4"/>
</linearGradient>
<linearGradient id="paint7_linear_6004_39839" x1="286" y1="166" x2="286" y2="207" gradientUnits="userSpaceOnUse">
<stop stop-color="white" stop-opacity="0"/>
<stop offset="0.739583" stop-color="white"/>
</linearGradient>
<linearGradient id="paint8_linear_6004_39839" x1="264" y1="86.05" x2="264" y2="207" gradientUnits="userSpaceOnUse">
<stop stop-color="white" stop-opacity="0.05"/>
<stop offset="0.75" stop-color="white" stop-opacity="0.8"/>
</linearGradient>
<linearGradient id="paint9_linear_6004_39839" x1="282.664" y1="25" x2="36.6396" y2="25" gradientUnits="userSpaceOnUse">
<stop stop-color="#56BCF6"/>
<stop offset="1" stop-color="#A2DEE7"/>
</linearGradient>
</defs>
</svg>
