<svg width="335" height="150" viewBox="0 0 335 150" fill="none" xmlns="http://www.w3.org/2000/svg">
<line y1="134.5" x2="335" y2="134.5" stroke="#ABBEC9"/>
<path d="M150.857 28H149.639V25.998H143.647V25.186L149.779 18.2H150.857V24.864H152.677V25.998H150.857V28ZM149.639 20.16L145.327 24.864H149.639V20.16ZM158.975 19.39H153.039V18.2H160.473V18.998L155.601 28H154.271L158.975 19.39ZM170.89 19.39H164.954V18.2H172.388V18.998L167.516 28H166.186L170.89 19.39ZM173.134 23.366C173.134 21.672 173.554 20.37 174.38 19.446C175.206 18.536 176.242 18.074 177.488 18.074C179.126 18.074 180.414 18.816 180.96 19.992L180.008 20.636C179.434 19.726 178.58 19.278 177.432 19.278C176.564 19.278 175.836 19.614 175.248 20.286C174.66 20.972 174.366 21.896 174.38 23.086C174.926 22.064 176.2 21.448 177.6 21.448C178.734 21.448 179.644 21.742 180.302 22.344C180.96 22.946 181.296 23.744 181.296 24.724C181.296 25.718 180.932 26.544 180.19 27.174C179.448 27.804 178.524 28.126 177.418 28.126C174.772 28.126 173.134 26.404 173.134 23.366ZM174.534 24.556C174.8 25.942 175.85 26.922 177.404 26.922C178.16 26.922 178.79 26.726 179.28 26.32C179.77 25.928 180.008 25.41 180.008 24.78C180.008 23.394 179.028 22.652 177.53 22.652C176.704 22.652 176.018 22.848 175.486 23.24C174.94 23.632 174.632 24.066 174.534 24.556ZM183.733 23.492L182.725 23.226L183.299 18.2H189.459V19.39H184.377L184.013 22.022C184.503 21.658 185.245 21.476 186.239 21.476C187.387 21.476 188.283 21.784 188.941 22.386C189.585 23.002 189.907 23.786 189.907 24.752C189.907 25.718 189.543 26.53 188.829 27.16C188.101 27.804 187.191 28.126 186.113 28.126C184.279 28.126 182.753 27.258 182.123 25.732L183.243 25.256C183.649 26.194 184.699 26.936 186.113 26.936C187.723 26.936 188.619 26.012 188.619 24.794C188.619 23.492 187.569 22.652 185.903 22.652C185.007 22.652 184.279 22.932 183.733 23.492Z" fill="#1A3341"/>
<path d="M153.556 143.372L152.68 143.06C152.98 141.572 154.108 140.504 155.896 140.504C157.624 140.504 158.68 141.5 158.68 143.024C158.68 143.828 158.332 144.632 157.9 145.208C157.684 145.508 157.408 145.796 157.084 146.096C156.424 146.684 155.956 146.996 155.272 147.428L154.348 148.004H158.992V149H152.452V148.184L154.276 146.972C154.6 146.768 154.828 146.612 154.96 146.516C155.092 146.432 155.308 146.276 155.596 146.072C155.884 145.868 156.1 145.688 156.244 145.556C156.376 145.424 156.556 145.256 156.76 145.04C157.312 144.44 157.516 143.888 157.576 143.132C157.576 142.04 156.868 141.548 155.824 141.548C155.176 141.548 154.66 141.728 154.288 142.088C153.916 142.448 153.664 142.88 153.556 143.372ZM159.824 144.8C159.824 143.504 160.124 142.46 160.736 141.68C161.336 140.9 162.224 140.504 163.388 140.504C165.776 140.504 166.964 142.076 166.964 144.8C166.964 146.108 166.664 147.14 166.076 147.92C165.476 148.7 164.588 149.096 163.412 149.096C162.284 149.096 161.408 148.7 160.772 147.908C160.136 147.116 159.824 146.084 159.824 144.8ZM160.928 144.8C160.928 146.852 161.864 148.076 163.412 148.076C165.044 148.076 165.86 146.984 165.86 144.8C165.86 142.616 165.032 141.524 163.388 141.524C161.72 141.524 160.928 142.724 160.928 144.8ZM168.82 143.372L167.944 143.06C168.244 141.572 169.372 140.504 171.16 140.504C172.888 140.504 173.944 141.5 173.944 143.024C173.944 143.828 173.596 144.632 173.164 145.208C172.948 145.508 172.672 145.796 172.348 146.096C171.688 146.684 171.22 146.996 170.536 147.428L169.612 148.004H174.256V149H167.716V148.184L169.54 146.972C169.864 146.768 170.092 146.612 170.224 146.516C170.356 146.432 170.572 146.276 170.86 146.072C171.148 145.868 171.364 145.688 171.508 145.556C171.64 145.424 171.82 145.256 172.024 145.04C172.576 144.44 172.78 143.888 172.84 143.132C172.84 142.04 172.132 141.548 171.088 141.548C170.44 141.548 169.924 141.728 169.552 142.088C169.18 142.448 168.928 142.88 168.82 143.372ZM176.048 143.372L175.172 143.06C175.472 141.572 176.6 140.504 178.388 140.504C180.116 140.504 181.172 141.5 181.172 143.024C181.172 143.828 180.824 144.632 180.392 145.208C180.176 145.508 179.9 145.796 179.576 146.096C178.916 146.684 178.448 146.996 177.764 147.428L176.84 148.004H181.484V149H174.944V148.184L176.768 146.972C177.092 146.768 177.32 146.612 177.452 146.516C177.584 146.432 177.8 146.276 178.088 146.072C178.376 145.868 178.592 145.688 178.736 145.556C178.868 145.424 179.048 145.256 179.252 145.04C179.804 144.44 180.008 143.888 180.068 143.132C180.068 142.04 179.36 141.548 178.316 141.548C177.668 141.548 177.152 141.728 176.78 142.088C176.408 142.448 176.156 142.88 176.048 143.372Z" fill="#1A3341" fill-opacity="0.6"/>
<path d="M139 40C139 38.8954 139.895 38 141 38H193C194.105 38 195 38.8954 195 40V134H139V40Z" fill="url(#paint0_linear_826_23122)"/>
<path opacity="0.2" d="M151 38H183V134H151V38Z" fill="url(#paint1_linear_826_23122)"/>
<path opacity="0.04" d="M183 38H193C194.105 38 195 38.8954 195 40V134H183V38Z" fill="#0D262C"/>
<path opacity="0.5" d="M139 40C139 38.8954 139.895 38 141 38H151V134H139V40Z" fill="url(#paint2_linear_826_23122)"/>
<path d="M16.128 5.492L15.12 5.226L15.694 0.199999H21.854V1.39H16.772L16.408 4.022C16.898 3.658 17.64 3.476 18.634 3.476C19.782 3.476 20.678 3.784 21.336 4.386C21.98 5.002 22.302 5.786 22.302 6.752C22.302 7.718 21.938 8.53 21.224 9.16C20.496 9.804 19.586 10.126 18.508 10.126C16.674 10.126 15.148 9.258 14.518 7.732L15.638 7.256C16.044 8.194 17.094 8.936 18.508 8.936C20.118 8.936 21.014 8.012 21.014 6.794C21.014 5.492 19.964 4.652 18.298 4.652C17.402 4.652 16.674 4.932 16.128 5.492ZM23.3647 5.366C23.3647 3.672 23.7847 2.37 24.6107 1.446C25.4367 0.535999 26.4727 0.0739993 27.7187 0.0739993C29.3567 0.0739993 30.6447 0.816 31.1907 1.992L30.2387 2.636C29.6647 1.726 28.8107 1.278 27.6627 1.278C26.7947 1.278 26.0667 1.614 25.4787 2.286C24.8907 2.972 24.5967 3.896 24.6107 5.086C25.1567 4.064 26.4307 3.448 27.8307 3.448C28.9647 3.448 29.8747 3.742 30.5327 4.344C31.1907 4.946 31.5267 5.744 31.5267 6.724C31.5267 7.718 31.1627 8.544 30.4207 9.174C29.6787 9.804 28.7547 10.126 27.6487 10.126C25.0027 10.126 23.3647 8.404 23.3647 5.366ZM24.7647 6.556C25.0307 7.942 26.0807 8.922 27.6347 8.922C28.3907 8.922 29.0207 8.726 29.5107 8.32C30.0007 7.928 30.2387 7.41 30.2387 6.78C30.2387 5.394 29.2587 4.652 27.7607 4.652C26.9347 4.652 26.2487 4.848 25.7167 5.24C25.1707 5.632 24.8627 6.066 24.7647 6.556ZM40.4565 4.414H40.8905C41.5205 4.414 42.0385 4.26 42.4725 3.966C42.8925 3.672 43.1025 3.28 43.1025 2.818C43.1025 1.768 42.2765 1.236 40.6385 1.236C39.0705 1.236 38.2165 1.81 38.2165 2.818C38.2165 3.728 39.1545 4.414 40.4565 4.414ZM40.8625 5.52H40.5125C39.7565 5.52 39.1265 5.688 38.6365 6.01C38.1465 6.332 37.8945 6.738 37.8945 7.228C37.8945 8.292 38.8745 8.964 40.6525 8.964C42.4585 8.964 43.4245 8.32 43.4245 7.242C43.4245 6.164 42.3885 5.52 40.8625 5.52ZM43.6205 9.37C42.9065 9.874 41.9125 10.126 40.6665 10.126C39.4205 10.126 38.4265 9.874 37.6985 9.384C36.9705 8.894 36.6065 8.222 36.6065 7.354C36.6065 6.22 37.3485 5.324 38.5385 4.932C37.4605 4.582 36.9285 3.728 36.9285 2.734C36.9285 1.11 38.3005 0.0739993 40.6525 0.0739993C43.0185 0.0739993 44.3905 1.11 44.3905 2.734C44.3905 3.672 43.8725 4.386 42.8365 4.862C44.0825 5.24 44.6985 6.052 44.6985 7.298C44.6985 8.18 44.3345 8.88 43.6205 9.37ZM53.9384 4.918C53.9384 6.584 53.5464 7.872 52.7484 8.768C51.9504 9.678 50.8864 10.126 49.5564 10.126C47.9324 10.126 46.6584 9.44 46.0284 8.39L47.0364 7.69C47.5964 8.474 48.6184 8.922 49.7244 8.922C50.6344 8.922 51.3624 8.558 51.9364 7.83C52.5104 7.116 52.7484 6.22 52.6784 5.156C52.2164 6.22 51.0544 7.004 49.5004 7.004C48.4084 7.004 47.5124 6.696 46.8124 6.066C46.0984 5.45 45.7484 4.638 45.7484 3.644C45.7484 2.552 46.1264 1.684 46.8824 1.04C47.6384 0.395999 48.6464 0.0739993 49.8924 0.0739993C52.4124 0.0739993 53.9384 1.838 53.9384 4.918ZM52.4684 3.602C52.2584 2.3 51.3624 1.278 49.7524 1.278C48.0724 1.278 47.0364 2.146 47.0364 3.602C47.0364 4.988 48.0864 5.8 49.7244 5.8C50.4664 5.8 51.0964 5.576 51.5864 5.128C52.0764 4.68 52.3704 4.176 52.4684 3.602ZM54.9883 5.1C54.9883 3.588 55.3383 2.37 56.0523 1.46C56.7523 0.55 57.7883 0.0879999 59.1463 0.0879999C61.9323 0.0879999 63.3183 1.922 63.3183 5.1C63.3183 6.626 62.9683 7.83 62.2823 8.74C61.5823 9.65 60.5463 10.112 59.1743 10.112C57.8583 10.112 56.8363 9.65 56.0943 8.726C55.3523 7.802 54.9883 6.598 54.9883 5.1ZM56.2763 5.1C56.2763 7.494 57.3683 8.922 59.1743 8.922C61.0783 8.922 62.0303 7.648 62.0303 5.1C62.0303 2.552 61.0643 1.278 59.1463 1.278C57.2003 1.278 56.2763 2.678 56.2763 5.1Z" fill="#1A3341"/>
<path d="M26.863 143.372L25.987 143.06C26.287 141.572 27.415 140.504 29.203 140.504C30.931 140.504 31.987 141.5 31.987 143.024C31.987 143.828 31.639 144.632 31.207 145.208C30.991 145.508 30.715 145.796 30.391 146.096C29.731 146.684 29.263 146.996 28.579 147.428L27.655 148.004H32.299V149H25.759V148.184L27.583 146.972C27.907 146.768 28.135 146.612 28.267 146.516C28.399 146.432 28.615 146.276 28.903 146.072C29.191 145.868 29.407 145.688 29.551 145.556C29.683 145.424 29.863 145.256 30.067 145.04C30.619 144.44 30.823 143.888 30.883 143.132C30.883 142.04 30.175 141.548 29.131 141.548C28.483 141.548 27.967 141.728 27.595 142.088C27.223 142.448 26.971 142.88 26.863 143.372ZM33.1307 144.8C33.1307 143.504 33.4307 142.46 34.0427 141.68C34.6427 140.9 35.5307 140.504 36.6947 140.504C39.0827 140.504 40.2707 142.076 40.2707 144.8C40.2707 146.108 39.9707 147.14 39.3827 147.92C38.7827 148.7 37.8947 149.096 36.7187 149.096C35.5907 149.096 34.7147 148.7 34.0787 147.908C33.4427 147.116 33.1307 146.084 33.1307 144.8ZM34.2347 144.8C34.2347 146.852 35.1707 148.076 36.7187 148.076C38.3507 148.076 39.1667 146.984 39.1667 144.8C39.1667 142.616 38.3387 141.524 36.6947 141.524C35.0267 141.524 34.2347 142.724 34.2347 144.8ZM42.1269 143.372L41.2509 143.06C41.5509 141.572 42.6789 140.504 44.4669 140.504C46.1949 140.504 47.2509 141.5 47.2509 143.024C47.2509 143.828 46.9029 144.632 46.4709 145.208C46.2549 145.508 45.9789 145.796 45.6549 146.096C44.9949 146.684 44.5269 146.996 43.8429 147.428L42.9189 148.004H47.5629V149H41.0229V148.184L42.8469 146.972C43.1709 146.768 43.3989 146.612 43.5309 146.516C43.6629 146.432 43.8789 146.276 44.1669 146.072C44.4549 145.868 44.6709 145.688 44.8149 145.556C44.9469 145.424 45.1269 145.256 45.3309 145.04C45.8829 144.44 46.0869 143.888 46.1469 143.132C46.1469 142.04 45.4389 141.548 44.3949 141.548C43.7469 141.548 43.2309 141.728 42.8589 142.088C42.4869 142.448 42.2349 142.88 42.1269 143.372ZM48.2986 142.832L47.9146 141.932L50.7946 140.552H51.4786V149H50.4466V141.836L48.2986 142.832Z" fill="#1A3341" fill-opacity="0.6"/>
<path d="M11 22C11 20.8954 11.8954 20 13 20H65C66.1046 20 67 20.8954 67 22V134H11V22Z" fill="url(#paint3_linear_826_23122)"/>
<path opacity="0.2" d="M23 20H55V134H23V20Z" fill="url(#paint4_linear_826_23122)"/>
<path opacity="0.04" d="M55 20H65C66.1046 20 67 20.8954 67 22V134H55V20Z" fill="#0D262C"/>
<path opacity="0.5" d="M11 22C11 20.8954 11.8954 20 13 20H23V134H11V22Z" fill="url(#paint5_linear_826_23122)"/>
<path d="M280.046 30H278.828V27.998H272.836V27.186L278.968 20.2H280.046V26.864H281.866V27.998H280.046V30ZM278.828 22.16L274.516 26.864H278.828V22.16ZM288.164 21.39H282.228V20.2H289.662V20.998L284.79 30H283.46L288.164 21.39ZM295.894 25.492L294.886 25.226L295.46 20.2H301.62V21.39H296.538L296.174 24.022C296.664 23.658 297.406 23.476 298.4 23.476C299.548 23.476 300.444 23.784 301.102 24.386C301.746 25.002 302.068 25.786 302.068 26.752C302.068 27.718 301.704 28.53 300.99 29.16C300.262 29.804 299.352 30.126 298.274 30.126C296.44 30.126 294.914 29.258 294.284 27.732L295.404 27.256C295.81 28.194 296.86 28.936 298.274 28.936C299.884 28.936 300.78 28.012 300.78 26.794C300.78 25.492 299.73 24.652 298.064 24.652C297.168 24.652 296.44 24.932 295.894 25.492ZM309.892 30H308.674V27.998H302.682V27.186L308.814 20.2H309.892V26.864H311.712V27.998H309.892V30ZM308.674 22.16L304.362 26.864H308.674V22.16ZM312.285 22.804L311.837 21.754L315.197 20.144H315.995V30H314.791V21.642L312.285 22.804Z" fill="#1A3341"/>
<path d="M281.527 143.372L280.651 143.06C280.951 141.572 282.079 140.504 283.867 140.504C285.595 140.504 286.651 141.5 286.651 143.024C286.651 143.828 286.303 144.632 285.871 145.208C285.655 145.508 285.379 145.796 285.055 146.096C284.395 146.684 283.927 146.996 283.243 147.428L282.319 148.004H286.963V149H280.423V148.184L282.247 146.972C282.571 146.768 282.799 146.612 282.931 146.516C283.063 146.432 283.279 146.276 283.567 146.072C283.855 145.868 284.071 145.688 284.215 145.556C284.347 145.424 284.527 145.256 284.731 145.04C285.283 144.44 285.487 143.888 285.547 143.132C285.547 142.04 284.839 141.548 283.795 141.548C283.147 141.548 282.631 141.728 282.259 142.088C281.887 142.448 281.635 142.88 281.527 143.372ZM287.795 144.8C287.795 143.504 288.095 142.46 288.707 141.68C289.307 140.9 290.195 140.504 291.359 140.504C293.747 140.504 294.935 142.076 294.935 144.8C294.935 146.108 294.635 147.14 294.047 147.92C293.447 148.7 292.559 149.096 291.383 149.096C290.255 149.096 289.379 148.7 288.743 147.908C288.107 147.116 287.795 146.084 287.795 144.8ZM288.899 144.8C288.899 146.852 289.835 148.076 291.383 148.076C293.015 148.076 293.831 146.984 293.831 144.8C293.831 142.616 293.003 141.524 291.359 141.524C289.691 141.524 288.899 142.724 288.899 144.8ZM296.791 143.372L295.915 143.06C296.215 141.572 297.343 140.504 299.131 140.504C300.859 140.504 301.915 141.5 301.915 143.024C301.915 143.828 301.567 144.632 301.135 145.208C300.919 145.508 300.643 145.796 300.319 146.096C299.659 146.684 299.191 146.996 298.507 147.428L297.583 148.004H302.227V149H295.687V148.184L297.511 146.972C297.835 146.768 298.063 146.612 298.195 146.516C298.327 146.432 298.543 146.276 298.831 146.072C299.119 145.868 299.335 145.688 299.479 145.556C299.611 145.424 299.791 145.256 299.995 145.04C300.547 144.44 300.751 143.888 300.811 143.132C300.811 142.04 300.103 141.548 299.059 141.548C298.411 141.548 297.895 141.728 297.523 142.088C297.151 142.448 296.899 142.88 296.791 143.372ZM303.887 143.048L302.987 142.64C303.431 141.344 304.595 140.492 306.335 140.492C307.163 140.492 307.847 140.684 308.375 141.068C308.903 141.452 309.167 141.968 309.167 142.604C309.167 143.576 308.651 144.296 307.691 144.572C308.615 144.632 309.359 145.328 309.359 146.576C309.359 147.368 309.071 147.992 308.495 148.436C307.919 148.88 307.187 149.108 306.287 149.108C304.451 149.108 303.179 148.232 302.759 146.852L303.731 146.432C304.247 147.524 305.123 148.076 306.359 148.076C307.523 148.076 308.255 147.536 308.255 146.588C308.255 145.664 307.535 145.196 306.095 145.196H305.159V144.2H305.903C307.211 144.2 308.063 143.612 308.063 142.808C308.063 141.98 307.379 141.512 306.287 141.512C305.003 141.512 304.223 142.172 303.887 143.048Z" fill="#1A3341" fill-opacity="0.6"/>
<path d="M267 42C267 40.8954 267.895 40 269 40H321C322.105 40 323 40.8954 323 42V134H267V42Z" fill="url(#paint6_linear_826_23122)"/>
<path opacity="0.2" d="M279 40H311V134H279V40Z" fill="url(#paint7_linear_826_23122)"/>
<path opacity="0.04" d="M311 40H321C322.105 40 323 40.8954 323 42V134H311V40Z" fill="#0D262C"/>
<path opacity="0.5" d="M267 42C267 40.8954 267.895 40 269 40H279V134H267V42Z" fill="url(#paint8_linear_826_23122)"/>
<path d="M91.3084 25.136H85.7404V24.236H91.3084V25.136ZM98.2584 29H92.8464V28.004H95.4024V21.836L93.2544 22.832L92.8704 21.932L95.7504 20.552H96.4344V28.004H98.2584V29ZM99.6337 25.028C99.6337 23.576 99.9577 22.448 100.606 21.668C101.254 20.888 102.094 20.492 103.126 20.492C104.446 20.492 105.358 21.044 105.862 22.136L105.046 22.688C104.554 21.908 104.038 21.524 103.078 21.524C101.626 21.524 100.69 22.712 100.702 24.788C101.206 23.852 102.046 23.384 103.222 23.384C105.142 23.384 106.15 24.464 106.15 26.192C106.15 27.056 105.862 27.752 105.286 28.292C104.698 28.832 103.966 29.108 103.066 29.108C100.954 29.108 99.6337 27.62 99.6337 25.028ZM100.834 26.048C101.098 27.404 101.842 28.076 103.054 28.076C104.314 28.076 105.046 27.356 105.046 26.24C105.046 25.028 104.422 24.416 103.162 24.416C101.77 24.416 101.014 25.172 100.834 26.048ZM108.977 29.18L108.185 28.724L114.389 20.336L115.145 20.888L108.977 29.18ZM106.889 22.616C106.889 22.016 107.093 21.524 107.513 21.14C107.933 20.756 108.449 20.564 109.085 20.564C109.709 20.564 110.225 20.756 110.645 21.14C111.065 21.524 111.269 22.016 111.269 22.616C111.269 23.204 111.065 23.696 110.645 24.08C110.225 24.464 109.709 24.656 109.085 24.656C108.449 24.656 107.933 24.464 107.513 24.08C107.093 23.696 106.889 23.204 106.889 22.616ZM107.897 22.616C107.897 23.3 108.449 23.804 109.085 23.804C109.745 23.804 110.261 23.324 110.261 22.616C110.261 21.908 109.721 21.428 109.085 21.428C108.425 21.428 107.897 21.908 107.897 22.616ZM112.661 28.472C112.241 28.088 112.037 27.596 112.037 26.996C112.037 26.396 112.241 25.904 112.661 25.52C113.081 25.148 113.597 24.956 114.233 24.956C114.857 24.956 115.373 25.148 115.793 25.52C116.213 25.904 116.417 26.396 116.417 26.996C116.417 27.584 116.213 28.076 115.793 28.46C115.373 28.856 114.857 29.048 114.233 29.048C113.597 29.048 113.081 28.856 112.661 28.472ZM113.045 26.996C113.045 27.68 113.597 28.184 114.233 28.184C114.893 28.184 115.409 27.704 115.409 26.996C115.409 26.288 114.869 25.808 114.233 25.808C113.573 25.808 113.045 26.288 113.045 26.996Z" fill="#7DA4C1"/>
<path d="M128.747 38.3536C128.943 38.1583 128.943 37.8417 128.747 37.6465L125.566 34.4645C125.37 34.2692 125.054 34.2692 124.858 34.4645C124.663 34.6597 124.663 34.9763 124.858 35.1716L127.687 38L124.858 40.8284C124.663 41.0237 124.663 41.3403 124.858 41.5355C125.054 41.7308 125.37 41.7308 125.566 41.5355L128.747 38.3536ZM77 38.5L128.394 38.5L128.394 37.5L77 37.5L77 38.5Z" fill="#7DA4C1"/>
<path d="M216.996 25.136H211.428V24.236H216.996V25.136ZM218.054 24.8C218.054 23.504 218.33 22.46 218.87 21.68C219.41 20.9 220.202 20.504 221.258 20.504C223.406 20.504 224.474 22.076 224.474 24.8C224.474 26.108 224.21 27.14 223.67 27.92C223.13 28.7 222.338 29.096 221.282 29.096C220.262 29.096 219.47 28.7 218.906 27.908C218.342 27.116 218.054 26.084 218.054 24.8ZM219.158 24.8C219.158 26.828 219.95 28.076 221.282 28.076C222.674 28.076 223.37 26.984 223.37 24.8C223.37 22.616 222.662 21.524 221.258 21.524C219.854 21.524 219.158 22.616 219.158 24.8ZM226.185 29C225.741 29.048 225.405 28.796 225.405 28.364C225.405 27.944 225.669 27.68 226.137 27.68C226.665 27.68 227.013 28.04 227.013 28.712C227.013 29.912 226.353 30.524 225.477 30.728L225.225 30.164C225.489 30.092 225.729 29.948 225.945 29.72C226.149 29.492 226.233 29.252 226.185 29ZM229.23 25.136L228.366 24.908L228.858 20.6H234.138V21.62H229.782L229.47 23.876C229.89 23.564 230.526 23.408 231.378 23.408C232.362 23.408 233.13 23.672 233.694 24.188C234.246 24.716 234.522 25.388 234.522 26.216C234.522 27.044 234.21 27.74 233.598 28.28C232.974 28.832 232.194 29.108 231.27 29.108C229.698 29.108 228.39 28.364 227.85 27.056L228.81 26.648C229.158 27.452 230.058 28.088 231.27 28.088C232.65 28.088 233.418 27.296 233.418 26.252C233.418 25.136 232.518 24.416 231.09 24.416C230.322 24.416 229.698 24.656 229.23 25.136ZM237.29 29.18L236.498 28.724L242.702 20.336L243.458 20.888L237.29 29.18ZM235.202 22.616C235.202 22.016 235.406 21.524 235.826 21.14C236.246 20.756 236.762 20.564 237.398 20.564C238.022 20.564 238.538 20.756 238.958 21.14C239.378 21.524 239.582 22.016 239.582 22.616C239.582 23.204 239.378 23.696 238.958 24.08C238.538 24.464 238.022 24.656 237.398 24.656C236.762 24.656 236.246 24.464 235.826 24.08C235.406 23.696 235.202 23.204 235.202 22.616ZM236.21 22.616C236.21 23.3 236.762 23.804 237.398 23.804C238.058 23.804 238.574 23.324 238.574 22.616C238.574 21.908 238.034 21.428 237.398 21.428C236.738 21.428 236.21 21.908 236.21 22.616ZM240.974 28.472C240.554 28.088 240.35 27.596 240.35 26.996C240.35 26.396 240.554 25.904 240.974 25.52C241.394 25.148 241.91 24.956 242.546 24.956C243.17 24.956 243.686 25.148 244.106 25.52C244.526 25.904 244.73 26.396 244.73 26.996C244.73 27.584 244.526 28.076 244.106 28.46C243.686 28.856 243.17 29.048 242.546 29.048C241.91 29.048 241.394 28.856 240.974 28.472ZM241.358 26.996C241.358 27.68 241.91 28.184 242.546 28.184C243.206 28.184 243.722 27.704 243.722 26.996C243.722 26.288 243.182 25.808 242.546 25.808C241.886 25.808 241.358 26.288 241.358 26.996Z" fill="#7DA4C1"/>
<path d="M255.778 38.3536C255.973 38.1583 255.973 37.8417 255.778 37.6464L252.596 34.4645C252.401 34.2692 252.084 34.2692 251.889 34.4645C251.693 34.6597 251.693 34.9763 251.889 35.1716L254.717 38L251.889 40.8284C251.693 41.0237 251.693 41.3403 251.889 41.5355C252.084 41.7308 252.401 41.7308 252.596 41.5355L255.778 38.3536ZM205 38.5L255.424 38.5L255.424 37.5L205 37.5L205 38.5Z" fill="#7DA4C1"/>
<defs>
<linearGradient id="paint0_linear_826_23122" x1="167" y1="38" x2="167" y2="134" gradientUnits="userSpaceOnUse">
<stop stop-color="#45B8DB"/>
<stop offset="1" stop-color="#ADE4E4"/>
</linearGradient>
<linearGradient id="paint1_linear_826_23122" x1="167" y1="38" x2="167" y2="134" gradientUnits="userSpaceOnUse">
<stop stop-color="white" stop-opacity="0"/>
<stop offset="0.739583" stop-color="white"/>
</linearGradient>
<linearGradient id="paint2_linear_826_23122" x1="145" y1="-149.2" x2="145" y2="134" gradientUnits="userSpaceOnUse">
<stop stop-color="white" stop-opacity="0.05"/>
<stop offset="0.75" stop-color="white" stop-opacity="0.8"/>
</linearGradient>
<linearGradient id="paint3_linear_826_23122" x1="39" y1="20" x2="39" y2="134" gradientUnits="userSpaceOnUse">
<stop stop-color="#45B8DB"/>
<stop offset="1" stop-color="#ADE4E4"/>
</linearGradient>
<linearGradient id="paint4_linear_826_23122" x1="39" y1="20" x2="39" y2="134" gradientUnits="userSpaceOnUse">
<stop stop-color="white" stop-opacity="0"/>
<stop offset="0.739583" stop-color="white"/>
</linearGradient>
<linearGradient id="paint5_linear_826_23122" x1="17" y1="-202.3" x2="17" y2="134" gradientUnits="userSpaceOnUse">
<stop stop-color="white" stop-opacity="0.05"/>
<stop offset="0.75" stop-color="white" stop-opacity="0.8"/>
</linearGradient>
<linearGradient id="paint6_linear_826_23122" x1="295" y1="40" x2="295" y2="134" gradientUnits="userSpaceOnUse">
<stop stop-color="#45B8DB"/>
<stop offset="1" stop-color="#ADE4E4"/>
</linearGradient>
<linearGradient id="paint7_linear_826_23122" x1="295" y1="40" x2="295" y2="134" gradientUnits="userSpaceOnUse">
<stop stop-color="white" stop-opacity="0"/>
<stop offset="0.739583" stop-color="white"/>
</linearGradient>
<linearGradient id="paint8_linear_826_23122" x1="273" y1="-143.3" x2="273" y2="134" gradientUnits="userSpaceOnUse">
<stop stop-color="white" stop-opacity="0.05"/>
<stop offset="0.75" stop-color="white" stop-opacity="0.8"/>
</linearGradient>
</defs>
</svg>
