<svg width="335" height="221" viewBox="0 0 335 221" fill="none" xmlns="http://www.w3.org/2000/svg">
<path d="M24.788 78.39H18.852V77.2H26.286V77.998L21.414 87H20.084L24.788 78.39ZM39.2373 81.918C39.2373 83.584 38.8453 84.872 38.0473 85.768C37.2493 86.678 36.1853 87.126 34.8553 87.126C33.2313 87.126 31.9573 86.44 31.3273 85.39L32.3353 84.69C32.8953 85.474 33.9173 85.922 35.0233 85.922C35.9333 85.922 36.6613 85.558 37.2353 84.83C37.8093 84.116 38.0473 83.22 37.9773 82.156C37.5153 83.22 36.3533 84.004 34.7993 84.004C33.7073 84.004 32.8113 83.696 32.1113 83.066C31.3973 82.45 31.0473 81.638 31.0473 80.644C31.0473 79.552 31.4253 78.684 32.1813 78.04C32.9373 77.396 33.9453 77.074 35.1913 77.074C37.7113 77.074 39.2373 78.838 39.2373 81.918ZM37.7673 80.602C37.5573 79.3 36.6613 78.278 35.0513 78.278C33.3713 78.278 32.3353 79.146 32.3353 80.602C32.3353 81.988 33.3853 82.8 35.0233 82.8C35.7653 82.8 36.3953 82.576 36.8853 82.128C37.3753 81.68 37.6693 81.176 37.7673 80.602ZM40.2872 82.366C40.2872 80.672 40.7072 79.37 41.5332 78.446C42.3592 77.536 43.3952 77.074 44.6412 77.074C46.2792 77.074 47.5672 77.816 48.1132 78.992L47.1612 79.636C46.5872 78.726 45.7332 78.278 44.5852 78.278C43.7172 78.278 42.9892 78.614 42.4012 79.286C41.8132 79.972 41.5192 80.896 41.5332 82.086C42.0792 81.064 43.3532 80.448 44.7532 80.448C45.8872 80.448 46.7972 80.742 47.4552 81.344C48.1132 81.946 48.4492 82.744 48.4492 83.724C48.4492 84.718 48.0852 85.544 47.3432 86.174C46.6012 86.804 45.6772 87.126 44.5712 87.126C41.9252 87.126 40.2872 85.404 40.2872 82.366ZM41.6872 83.556C41.9532 84.942 43.0032 85.922 44.5572 85.922C45.3132 85.922 45.9432 85.726 46.4332 85.32C46.9232 84.928 47.1612 84.41 47.1612 83.78C47.1612 82.394 46.1812 81.652 44.6832 81.652C43.8572 81.652 43.1712 81.848 42.6392 82.24C42.0932 82.632 41.7852 83.066 41.6872 83.556ZM50.5777 80.434L49.5557 80.07C49.9057 78.334 51.2217 77.088 53.3077 77.088C55.3237 77.088 56.5557 78.25 56.5557 80.028C56.5557 80.966 56.1497 81.904 55.6457 82.576C55.3937 82.926 55.0717 83.262 54.6937 83.612C53.9237 84.298 53.3777 84.662 52.5797 85.166L51.5017 85.838H56.9197V87H49.2897V86.048L51.4177 84.634C51.7957 84.396 52.0617 84.214 52.2157 84.102C52.3697 84.004 52.6217 83.822 52.9577 83.584C53.2937 83.346 53.5457 83.136 53.7137 82.982C53.8677 82.828 54.0777 82.632 54.3157 82.38C54.9597 81.68 55.1977 81.036 55.2677 80.154C55.2677 78.88 54.4417 78.306 53.2237 78.306C52.4677 78.306 51.8657 78.516 51.4317 78.936C50.9977 79.356 50.7037 79.86 50.5777 80.434Z" fill="#1A3341"/>
<path d="M25.863 214.372L24.987 214.06C25.287 212.572 26.415 211.504 28.203 211.504C29.931 211.504 30.987 212.5 30.987 214.024C30.987 214.828 30.639 215.632 30.207 216.208C29.991 216.508 29.715 216.796 29.391 217.096C28.731 217.684 28.263 217.996 27.579 218.428L26.655 219.004H31.299V220H24.759V219.184L26.583 217.972C26.907 217.768 27.135 217.612 27.267 217.516C27.399 217.432 27.615 217.276 27.903 217.072C28.191 216.868 28.407 216.688 28.551 216.556C28.683 216.424 28.863 216.256 29.067 216.04C29.619 215.44 29.823 214.888 29.883 214.132C29.883 213.04 29.175 212.548 28.131 212.548C27.483 212.548 26.967 212.728 26.595 213.088C26.223 213.448 25.971 213.88 25.863 214.372ZM32.1307 215.8C32.1307 214.504 32.4307 213.46 33.0427 212.68C33.6427 211.9 34.5307 211.504 35.6947 211.504C38.0827 211.504 39.2707 213.076 39.2707 215.8C39.2707 217.108 38.9707 218.14 38.3827 218.92C37.7827 219.7 36.8947 220.096 35.7187 220.096C34.5907 220.096 33.7147 219.7 33.0787 218.908C32.4427 218.116 32.1307 217.084 32.1307 215.8ZM33.2347 215.8C33.2347 217.852 34.1707 219.076 35.7187 219.076C37.3507 219.076 38.1667 217.984 38.1667 215.8C38.1667 213.616 37.3387 212.524 35.6947 212.524C34.0267 212.524 33.2347 213.724 33.2347 215.8ZM41.1269 214.372L40.2509 214.06C40.5509 212.572 41.6789 211.504 43.4669 211.504C45.1949 211.504 46.2509 212.5 46.2509 214.024C46.2509 214.828 45.9029 215.632 45.4709 216.208C45.2549 216.508 44.9789 216.796 44.6549 217.096C43.9949 217.684 43.5269 217.996 42.8429 218.428L41.9189 219.004H46.5629V220H40.0229V219.184L41.8469 217.972C42.1709 217.768 42.3989 217.612 42.5309 217.516C42.6629 217.432 42.8789 217.276 43.1669 217.072C43.4549 216.868 43.6709 216.688 43.8149 216.556C43.9469 216.424 44.1269 216.256 44.3309 216.04C44.8829 215.44 45.0869 214.888 45.1469 214.132C45.1469 213.04 44.4389 212.548 43.3949 212.548C42.7469 212.548 42.2309 212.728 41.8589 213.088C41.4869 213.448 41.2349 213.88 41.1269 214.372ZM47.2986 213.832L46.9146 212.932L49.7946 211.552H50.4786V220H49.4466V212.836L47.2986 213.832Z" fill="#1A3341" fill-opacity="0.6"/>
<path d="M10 99C10 97.8954 10.8954 97 12 97H64C65.1046 97 66 97.8954 66 99V205H10V99Z" fill="url(#paint0_linear_6004_39826)"/>
<path opacity="0.2" d="M22 97H54V205H22V97Z" fill="url(#paint1_linear_6004_39826)"/>
<path opacity="0.04" d="M54 97H64C65.1046 97 66 97.8954 66 99V205H54V97Z" fill="#0D262C"/>
<path opacity="0.5" d="M10 99C10 97.8954 10.8954 97 12 97H22V205H10V99Z" fill="url(#paint2_linear_6004_39826)"/>
<path d="M146.682 92.39H140.746V91.2H148.18V91.998L143.308 101H141.978L146.682 92.39ZM156.847 95.414H157.281C157.911 95.414 158.429 95.26 158.863 94.966C159.283 94.672 159.493 94.28 159.493 93.818C159.493 92.768 158.667 92.236 157.029 92.236C155.461 92.236 154.607 92.81 154.607 93.818C154.607 94.728 155.545 95.414 156.847 95.414ZM157.253 96.52H156.903C156.147 96.52 155.517 96.688 155.027 97.01C154.537 97.332 154.285 97.738 154.285 98.228C154.285 99.292 155.265 99.964 157.043 99.964C158.849 99.964 159.815 99.32 159.815 98.242C159.815 97.164 158.779 96.52 157.253 96.52ZM160.011 100.37C159.297 100.874 158.303 101.126 157.057 101.126C155.811 101.126 154.817 100.874 154.089 100.384C153.361 99.894 152.997 99.222 152.997 98.354C152.997 97.22 153.739 96.324 154.929 95.932C153.851 95.582 153.319 94.728 153.319 93.734C153.319 92.11 154.691 91.074 157.043 91.074C159.409 91.074 160.781 92.11 160.781 93.734C160.781 94.672 160.263 95.386 159.227 95.862C160.473 96.24 161.089 97.052 161.089 98.298C161.089 99.18 160.725 99.88 160.011 100.37ZM162.069 93.804L161.621 92.754L164.981 91.144H165.779V101H164.575V92.642L162.069 93.804ZM168.684 94.434L167.662 94.07C168.012 92.334 169.328 91.088 171.414 91.088C173.43 91.088 174.662 92.25 174.662 94.028C174.662 94.966 174.256 95.904 173.752 96.576C173.5 96.926 173.178 97.262 172.8 97.612C172.03 98.298 171.484 98.662 170.686 99.166L169.608 99.838H175.026V101H167.396V100.048L169.524 98.634C169.902 98.396 170.168 98.214 170.322 98.102C170.476 98.004 170.728 97.822 171.064 97.584C171.4 97.346 171.652 97.136 171.82 96.982C171.974 96.828 172.184 96.632 172.422 96.38C173.066 95.68 173.304 95.036 173.374 94.154C173.374 92.88 172.548 92.306 171.33 92.306C170.574 92.306 169.972 92.516 169.538 92.936C169.104 93.356 168.81 93.86 168.684 94.434Z" fill="#1A3341"/>
<path d="M144.556 214.372L143.68 214.06C143.98 212.572 145.108 211.504 146.896 211.504C148.624 211.504 149.68 212.5 149.68 214.024C149.68 214.828 149.332 215.632 148.9 216.208C148.684 216.508 148.408 216.796 148.084 217.096C147.424 217.684 146.956 217.996 146.272 218.428L145.348 219.004H149.992V220H143.452V219.184L145.276 217.972C145.6 217.768 145.828 217.612 145.96 217.516C146.092 217.432 146.308 217.276 146.596 217.072C146.884 216.868 147.1 216.688 147.244 216.556C147.376 216.424 147.556 216.256 147.76 216.04C148.312 215.44 148.516 214.888 148.576 214.132C148.576 213.04 147.868 212.548 146.824 212.548C146.176 212.548 145.66 212.728 145.288 213.088C144.916 213.448 144.664 213.88 144.556 214.372ZM150.824 215.8C150.824 214.504 151.124 213.46 151.736 212.68C152.336 211.9 153.224 211.504 154.388 211.504C156.776 211.504 157.964 213.076 157.964 215.8C157.964 217.108 157.664 218.14 157.076 218.92C156.476 219.7 155.588 220.096 154.412 220.096C153.284 220.096 152.408 219.7 151.772 218.908C151.136 218.116 150.824 217.084 150.824 215.8ZM151.928 215.8C151.928 217.852 152.864 219.076 154.412 219.076C156.044 219.076 156.86 217.984 156.86 215.8C156.86 213.616 156.032 212.524 154.388 212.524C152.72 212.524 151.928 213.724 151.928 215.8ZM159.82 214.372L158.944 214.06C159.244 212.572 160.372 211.504 162.16 211.504C163.888 211.504 164.944 212.5 164.944 214.024C164.944 214.828 164.596 215.632 164.164 216.208C163.948 216.508 163.672 216.796 163.348 217.096C162.688 217.684 162.22 217.996 161.536 218.428L160.612 219.004H165.256V220H158.716V219.184L160.54 217.972C160.864 217.768 161.092 217.612 161.224 217.516C161.356 217.432 161.572 217.276 161.86 217.072C162.148 216.868 162.364 216.688 162.508 216.556C162.64 216.424 162.82 216.256 163.024 216.04C163.576 215.44 163.78 214.888 163.84 214.132C163.84 213.04 163.132 212.548 162.088 212.548C161.44 212.548 160.924 212.728 160.552 213.088C160.18 213.448 159.928 213.88 159.82 214.372ZM167.048 214.372L166.172 214.06C166.472 212.572 167.6 211.504 169.388 211.504C171.116 211.504 172.172 212.5 172.172 214.024C172.172 214.828 171.824 215.632 171.392 216.208C171.176 216.508 170.9 216.796 170.576 217.096C169.916 217.684 169.448 217.996 168.764 218.428L167.84 219.004H172.484V220H165.944V219.184L167.768 217.972C168.092 217.768 168.32 217.612 168.452 217.516C168.584 217.432 168.8 217.276 169.088 217.072C169.376 216.868 169.592 216.688 169.736 216.556C169.868 216.424 170.048 216.256 170.252 216.04C170.804 215.44 171.008 214.888 171.068 214.132C171.068 213.04 170.36 212.548 169.316 212.548C168.668 212.548 168.152 212.728 167.78 213.088C167.408 213.448 167.156 213.88 167.048 214.372Z" fill="#1A3341" fill-opacity="0.6"/>
<path d="M130 113C130 111.895 130.895 111 132 111H184C185.105 111 186 111.895 186 113V205H130V113Z" fill="url(#paint3_linear_6004_39826)"/>
<path opacity="0.2" d="M142 111H174V205H142V111Z" fill="url(#paint4_linear_6004_39826)"/>
<path opacity="0.04" d="M174 111H184C185.105 111 186 111.895 186 113V205H174V111Z" fill="#0D262C"/>
<path opacity="0.5" d="M130 113C130 111.895 130.895 111 132 111H142V205H130V113Z" fill="url(#paint5_linear_6004_39826)"/>
<path d="M264.357 85.39H258.421V84.2H265.855V84.998L260.983 94H259.653L264.357 85.39ZM278.807 88.918C278.807 90.584 278.415 91.872 277.617 92.768C276.819 93.678 275.755 94.126 274.425 94.126C272.801 94.126 271.527 93.44 270.897 92.39L271.905 91.69C272.465 92.474 273.487 92.922 274.593 92.922C275.503 92.922 276.231 92.558 276.805 91.83C277.379 91.116 277.617 90.22 277.547 89.156C277.085 90.22 275.923 91.004 274.369 91.004C273.277 91.004 272.381 90.696 271.681 90.066C270.967 89.45 270.617 88.638 270.617 87.644C270.617 86.552 270.995 85.684 271.751 85.04C272.507 84.396 273.515 84.074 274.761 84.074C277.281 84.074 278.807 85.838 278.807 88.918ZM277.337 87.602C277.127 86.3 276.231 85.278 274.621 85.278C272.941 85.278 271.905 86.146 271.905 87.602C271.905 88.988 272.955 89.8 274.593 89.8C275.335 89.8 275.965 89.576 276.455 89.128C276.945 88.68 277.239 88.176 277.337 87.602ZM286.619 94H285.401V91.998H279.409V91.186L285.541 84.2H286.619V90.864H288.439V91.998H286.619V94ZM285.401 86.16L281.089 90.864H285.401V86.16ZM297.271 88.918C297.271 90.584 296.879 91.872 296.081 92.768C295.283 93.678 294.219 94.126 292.889 94.126C291.265 94.126 289.991 93.44 289.361 92.39L290.369 91.69C290.929 92.474 291.951 92.922 293.057 92.922C293.967 92.922 294.695 92.558 295.269 91.83C295.843 91.116 296.081 90.22 296.011 89.156C295.549 90.22 294.387 91.004 292.833 91.004C291.741 91.004 290.845 90.696 290.145 90.066C289.431 89.45 289.081 88.638 289.081 87.644C289.081 86.552 289.459 85.684 290.215 85.04C290.971 84.396 291.979 84.074 293.225 84.074C295.745 84.074 297.271 85.838 297.271 88.918ZM295.801 87.602C295.591 86.3 294.695 85.278 293.085 85.278C291.405 85.278 290.369 86.146 290.369 87.602C290.369 88.988 291.419 89.8 293.057 89.8C293.799 89.8 294.429 89.576 294.919 89.128C295.409 88.68 295.703 88.176 295.801 87.602Z" fill="#1A3341"/>
<path d="M264.527 214.372L263.651 214.06C263.951 212.572 265.079 211.504 266.867 211.504C268.595 211.504 269.651 212.5 269.651 214.024C269.651 214.828 269.303 215.632 268.871 216.208C268.655 216.508 268.379 216.796 268.055 217.096C267.395 217.684 266.927 217.996 266.243 218.428L265.319 219.004H269.963V220H263.423V219.184L265.247 217.972C265.571 217.768 265.799 217.612 265.931 217.516C266.063 217.432 266.279 217.276 266.567 217.072C266.855 216.868 267.071 216.688 267.215 216.556C267.347 216.424 267.527 216.256 267.731 216.04C268.283 215.44 268.487 214.888 268.547 214.132C268.547 213.04 267.839 212.548 266.795 212.548C266.147 212.548 265.631 212.728 265.259 213.088C264.887 213.448 264.635 213.88 264.527 214.372ZM270.795 215.8C270.795 214.504 271.095 213.46 271.707 212.68C272.307 211.9 273.195 211.504 274.359 211.504C276.747 211.504 277.935 213.076 277.935 215.8C277.935 217.108 277.635 218.14 277.047 218.92C276.447 219.7 275.559 220.096 274.383 220.096C273.255 220.096 272.379 219.7 271.743 218.908C271.107 218.116 270.795 217.084 270.795 215.8ZM271.899 215.8C271.899 217.852 272.835 219.076 274.383 219.076C276.015 219.076 276.831 217.984 276.831 215.8C276.831 213.616 276.003 212.524 274.359 212.524C272.691 212.524 271.899 213.724 271.899 215.8ZM279.791 214.372L278.915 214.06C279.215 212.572 280.343 211.504 282.131 211.504C283.859 211.504 284.915 212.5 284.915 214.024C284.915 214.828 284.567 215.632 284.135 216.208C283.919 216.508 283.643 216.796 283.319 217.096C282.659 217.684 282.191 217.996 281.507 218.428L280.583 219.004H285.227V220H278.687V219.184L280.511 217.972C280.835 217.768 281.063 217.612 281.195 217.516C281.327 217.432 281.543 217.276 281.831 217.072C282.119 216.868 282.335 216.688 282.479 216.556C282.611 216.424 282.791 216.256 282.995 216.04C283.547 215.44 283.751 214.888 283.811 214.132C283.811 213.04 283.103 212.548 282.059 212.548C281.411 212.548 280.895 212.728 280.523 213.088C280.151 213.448 279.899 213.88 279.791 214.372ZM286.887 214.048L285.987 213.64C286.431 212.344 287.595 211.492 289.335 211.492C290.163 211.492 290.847 211.684 291.375 212.068C291.903 212.452 292.167 212.968 292.167 213.604C292.167 214.576 291.651 215.296 290.691 215.572C291.615 215.632 292.359 216.328 292.359 217.576C292.359 218.368 292.071 218.992 291.495 219.436C290.919 219.88 290.187 220.108 289.287 220.108C287.451 220.108 286.179 219.232 285.759 217.852L286.731 217.432C287.247 218.524 288.123 219.076 289.359 219.076C290.523 219.076 291.255 218.536 291.255 217.588C291.255 216.664 290.535 216.196 289.095 216.196H288.159V215.2H288.903C290.211 215.2 291.063 214.612 291.063 213.808C291.063 212.98 290.379 212.512 289.287 212.512C288.003 212.512 287.223 213.172 286.887 214.048Z" fill="#1A3341" fill-opacity="0.6"/>
<path d="M250 106C250 104.895 250.895 104 252 104H304C305.105 104 306 104.895 306 106V205H250V106Z" fill="url(#paint6_linear_6004_39826)"/>
<path opacity="0.2" d="M262 104H294V205H262V104Z" fill="url(#paint7_linear_6004_39826)"/>
<path opacity="0.04" d="M294 104H304C305.105 104 306 104.895 306 106V205H294V104Z" fill="#0D262C"/>
<path opacity="0.5" d="M250 106C250 104.895 250.895 104 252 104H262V205H250V106Z" fill="url(#paint8_linear_6004_39826)"/>
<path d="M123.927 189.354C124.122 189.158 124.122 188.842 123.927 188.646L120.745 185.464C120.55 185.269 120.233 185.269 120.038 185.464C119.843 185.66 119.843 185.976 120.038 186.172L122.867 189L120.038 191.828C119.843 192.024 119.843 192.34 120.038 192.536C120.233 192.731 120.55 192.731 120.745 192.536L123.927 189.354ZM72.1797 189.5L123.574 189.5L123.574 188.5L72.1797 188.5L72.1797 189.5Z" fill="#7DA4C1"/>
<path d="M89.906 176.136H84.338V175.236H89.906V176.136ZM92.0561 174.372L91.1801 174.06C91.4801 172.56 92.5601 171.504 94.3361 171.504C96.0641 171.504 97.0601 172.5 97.0601 174.024C97.0241 175.284 96.4361 176.28 95.5481 177.084C94.9241 177.672 94.4321 178.008 93.7721 178.428L92.8481 179.004H97.3721V180H91.0721V179.184L92.7761 177.972C93.7721 177.264 94.4201 176.772 94.7201 176.496C95.5481 175.74 95.9561 174.948 95.9561 174.132C95.9561 173.028 95.2841 172.548 94.2641 172.548C92.9681 172.548 92.2961 173.364 92.0561 174.372ZM100.379 180.18L99.5874 179.724L105.791 171.336L106.547 171.888L100.379 180.18ZM98.2914 173.616C98.2914 173.016 98.4954 172.524 98.9154 172.14C99.3354 171.756 99.8514 171.564 100.487 171.564C101.111 171.564 101.627 171.756 102.047 172.14C102.467 172.524 102.671 173.016 102.671 173.616C102.671 174.204 102.467 174.696 102.047 175.08C101.627 175.464 101.111 175.656 100.487 175.656C99.8514 175.656 99.3354 175.464 98.9154 175.08C98.4954 174.696 98.2914 174.204 98.2914 173.616ZM99.2994 173.616C99.2994 174.3 99.8514 174.804 100.487 174.804C101.147 174.804 101.663 174.324 101.663 173.616C101.663 172.908 101.123 172.428 100.487 172.428C99.8274 172.428 99.2994 172.908 99.2994 173.616ZM104.063 179.472C103.643 179.088 103.439 178.596 103.439 177.996C103.439 177.396 103.643 176.904 104.063 176.52C104.483 176.148 104.999 175.956 105.635 175.956C106.259 175.956 106.775 176.148 107.195 176.52C107.615 176.904 107.819 177.396 107.819 177.996C107.819 178.584 107.615 179.076 107.195 179.46C106.775 179.856 106.259 180.048 105.635 180.048C104.999 180.048 104.483 179.856 104.063 179.472ZM104.447 177.996C104.447 178.68 104.999 179.184 105.635 179.184C106.295 179.184 106.811 178.704 106.811 177.996C106.811 177.288 106.271 176.808 105.635 176.808C104.975 176.808 104.447 177.288 104.447 177.996Z" fill="#7DA4C1"/>
<path d="M33.5 63L154 23.5L274 11.5" stroke="url(#paint9_linear_6004_39826)" stroke-width="5"/>
<circle cx="274" cy="12" r="7" fill="#64BBEA" stroke="white" stroke-width="2"/>
<circle cx="154" cy="23" r="7" fill="#64BBEA" stroke="white" stroke-width="2"/>
<circle cx="34" cy="63" r="7" fill="#64BBEA" stroke="white" stroke-width="2"/>
<path d="M25.2427 49H20.7327V48.17H22.8627V43.03L21.0727 43.86L20.7527 43.11L23.1527 41.96H23.7227V48.17H25.2427V49ZM27.2388 44.31L26.5088 44.05C26.7588 42.8 27.6588 41.92 29.1388 41.92C30.5788 41.92 31.4088 42.75 31.4088 44.02C31.3788 45.07 30.8888 45.9 30.1488 46.57C29.6288 47.06 29.2188 47.34 28.6688 47.69L27.8988 48.17H31.6688V49H26.4188V48.32L27.8388 47.31C28.6688 46.72 29.2088 46.31 29.4588 46.08C30.1488 45.45 30.4888 44.79 30.4888 44.11C30.4888 43.19 29.9288 42.79 29.0788 42.79C27.9988 42.79 27.4388 43.47 27.2388 44.31ZM33.1049 49C32.7349 49.04 32.4549 48.83 32.4549 48.47C32.4549 48.12 32.6749 47.9 33.0649 47.9C33.5049 47.9 33.7949 48.2 33.7949 48.76C33.7949 49.76 33.2449 50.27 32.5149 50.44L32.3049 49.97C32.5249 49.91 32.7249 49.79 32.9049 49.6C33.0749 49.41 33.1449 49.21 33.1049 49ZM35.4124 44.04L34.6624 43.7C35.0824 42.51 35.9824 41.91 37.3524 41.91C38.0424 41.91 38.6124 42.07 39.0524 42.39C39.4924 42.71 39.7124 43.14 39.7124 43.67C39.7124 44.48 39.2824 45.08 38.4824 45.31C39.2524 45.36 39.8724 45.94 39.8724 46.98C39.8724 47.64 39.6324 48.16 39.1524 48.53C38.6724 48.9 38.0624 49.09 37.3124 49.09C35.7924 49.09 34.8324 48.37 34.4724 47.21L35.2824 46.86C35.6824 47.73 36.2124 48.23 37.3724 48.23C38.3424 48.23 38.9524 47.78 38.9524 46.99C38.9524 46.22 38.3524 45.83 37.1524 45.83H36.3724V45H36.9924C38.0824 45 38.7924 44.51 38.7924 43.84C38.7924 43.15 38.2224 42.76 37.3124 42.76C36.3824 42.76 35.7424 43.19 35.4124 44.04ZM42.3585 49.15L41.6985 48.77L46.8685 41.78L47.4985 42.24L42.3585 49.15ZM40.6185 43.68C40.6185 43.18 40.7885 42.77 41.1385 42.45C41.4885 42.13 41.9185 41.97 42.4485 41.97C42.9685 41.97 43.3985 42.13 43.7485 42.45C44.0985 42.77 44.2685 43.18 44.2685 43.68C44.2685 44.17 44.0985 44.58 43.7485 44.9C43.3985 45.22 42.9685 45.38 42.4485 45.38C41.9185 45.38 41.4885 45.22 41.1385 44.9C40.7885 44.58 40.6185 44.17 40.6185 43.68ZM41.4585 43.68C41.4585 44.25 41.9185 44.67 42.4485 44.67C42.9985 44.67 43.4285 44.27 43.4285 43.68C43.4285 43.09 42.9785 42.69 42.4485 42.69C41.8985 42.69 41.4585 43.09 41.4585 43.68ZM45.4285 48.56C45.0785 48.24 44.9085 47.83 44.9085 47.33C44.9085 46.83 45.0785 46.42 45.4285 46.1C45.7785 45.79 46.2085 45.63 46.7385 45.63C47.2585 45.63 47.6885 45.79 48.0385 46.1C48.3885 46.42 48.5585 46.83 48.5585 47.33C48.5585 47.82 48.3885 48.23 48.0385 48.55C47.6885 48.88 47.2585 49.04 46.7385 49.04C46.2085 49.04 45.7785 48.88 45.4285 48.56ZM45.7485 47.33C45.7485 47.9 46.2085 48.32 46.7385 48.32C47.2885 48.32 47.7185 47.92 47.7185 47.33C47.7185 46.74 47.2685 46.34 46.7385 46.34C46.1885 46.34 45.7485 46.74 45.7485 47.33Z" fill="#357D94"/>
<path d="M144.743 10H140.233V9.17H142.363V4.03L140.573 4.86L140.253 4.11L142.653 2.96H143.223V9.17H144.743V10ZM150.329 10H149.459V8.57H145.679V7.99L149.559 3H150.329V7.76H151.429V8.57H150.329V10ZM149.459 4.4L146.879 7.76H149.459V4.4ZM152.605 10C152.235 10.04 151.955 9.83 151.955 9.47C151.955 9.12 152.175 8.9 152.565 8.9C153.005 8.9 153.295 9.2 153.295 9.76C153.295 10.76 152.745 11.27 152.015 11.44L151.805 10.97C152.025 10.91 152.225 10.79 152.405 10.6C152.575 10.41 152.645 10.21 152.605 10ZM158.922 10H154.412V9.17H156.542V4.03L154.752 4.86L154.432 4.11L156.832 2.96H157.402V9.17H158.922V10ZM161.858 10.15L161.198 9.77L166.368 2.78L166.998 3.24L161.858 10.15ZM160.118 4.68C160.118 4.18 160.288 3.77 160.638 3.45C160.988 3.13 161.418 2.97 161.948 2.97C162.468 2.97 162.898 3.13 163.248 3.45C163.598 3.77 163.768 4.18 163.768 4.68C163.768 5.17 163.598 5.58 163.248 5.9C162.898 6.22 162.468 6.38 161.948 6.38C161.418 6.38 160.988 6.22 160.638 5.9C160.288 5.58 160.118 5.17 160.118 4.68ZM160.958 4.68C160.958 5.25 161.418 5.67 161.948 5.67C162.498 5.67 162.928 5.27 162.928 4.68C162.928 4.09 162.478 3.69 161.948 3.69C161.398 3.69 160.958 4.09 160.958 4.68ZM164.928 9.56C164.578 9.24 164.408 8.83 164.408 8.33C164.408 7.83 164.578 7.42 164.928 7.1C165.278 6.79 165.708 6.63 166.238 6.63C166.758 6.63 167.188 6.79 167.538 7.1C167.888 7.42 168.058 7.83 168.058 8.33C168.058 8.82 167.888 9.23 167.538 9.55C167.188 9.88 166.758 10.04 166.238 10.04C165.708 10.04 165.278 9.88 164.928 9.56ZM165.248 8.33C165.248 8.9 165.708 9.32 166.238 9.32C166.788 9.32 167.218 8.92 167.218 8.33C167.218 7.74 166.768 7.34 166.238 7.34C165.688 7.34 165.248 7.74 165.248 8.33Z" fill="#357D94"/>
<path d="M266.743 34H262.233V33.17H264.363V28.03L262.573 28.86L262.253 28.11L264.653 26.96H265.223V33.17H266.743V34ZM272.329 34H271.459V32.57H267.679V31.99L271.559 27H272.329V31.76H273.429V32.57H272.329V34ZM271.459 28.4L268.879 31.76H271.459V28.4ZM274.605 34C274.235 34.04 273.955 33.83 273.955 33.47C273.955 33.12 274.175 32.9 274.565 32.9C275.005 32.9 275.295 33.2 275.295 33.76C275.295 34.76 274.745 35.27 274.015 35.44L273.805 34.97C274.025 34.91 274.225 34.79 274.405 34.6C274.575 34.41 274.645 34.21 274.605 34ZM276.912 29.04L276.162 28.7C276.582 27.51 277.482 26.91 278.852 26.91C279.542 26.91 280.112 27.07 280.552 27.39C280.992 27.71 281.212 28.14 281.212 28.67C281.212 29.48 280.782 30.08 279.982 30.31C280.752 30.36 281.372 30.94 281.372 31.98C281.372 32.64 281.132 33.16 280.652 33.53C280.172 33.9 279.562 34.09 278.812 34.09C277.292 34.09 276.332 33.37 275.972 32.21L276.782 31.86C277.182 32.73 277.712 33.23 278.872 33.23C279.842 33.23 280.452 32.78 280.452 31.99C280.452 31.22 279.852 30.83 278.652 30.83H277.872V30H278.492C279.582 30 280.292 29.51 280.292 28.84C280.292 28.15 279.722 27.76 278.812 27.76C277.882 27.76 277.242 28.19 276.912 29.04ZM283.858 34.15L283.198 33.77L288.368 26.78L288.998 27.24L283.858 34.15ZM282.118 28.68C282.118 28.18 282.288 27.77 282.638 27.45C282.988 27.13 283.418 26.97 283.948 26.97C284.468 26.97 284.898 27.13 285.248 27.45C285.598 27.77 285.768 28.18 285.768 28.68C285.768 29.17 285.598 29.58 285.248 29.9C284.898 30.22 284.468 30.38 283.948 30.38C283.418 30.38 282.988 30.22 282.638 29.9C282.288 29.58 282.118 29.17 282.118 28.68ZM282.958 28.68C282.958 29.25 283.418 29.67 283.948 29.67C284.498 29.67 284.928 29.27 284.928 28.68C284.928 28.09 284.478 27.69 283.948 27.69C283.398 27.69 282.958 28.09 282.958 28.68ZM286.928 33.56C286.578 33.24 286.408 32.83 286.408 32.33C286.408 31.83 286.578 31.42 286.928 31.1C287.278 30.79 287.708 30.63 288.238 30.63C288.758 30.63 289.188 30.79 289.538 31.1C289.888 31.42 290.058 31.83 290.058 32.33C290.058 32.82 289.888 33.23 289.538 33.55C289.188 33.88 288.758 34.04 288.238 34.04C287.708 34.04 287.278 33.88 286.928 33.56ZM287.248 32.33C287.248 32.9 287.708 33.32 288.238 33.32C288.788 33.32 289.218 32.92 289.218 32.33C289.218 31.74 288.768 31.34 288.238 31.34C287.688 31.34 287.248 31.74 287.248 32.33Z" fill="#357D94"/>
<path d="M243.141 189.354C243.336 189.158 243.336 188.842 243.141 188.646L239.959 185.464C239.764 185.269 239.447 185.269 239.252 185.464C239.057 185.66 239.057 185.976 239.252 186.172L242.08 189L239.252 191.828C239.057 192.024 239.057 192.34 239.252 192.536C239.447 192.731 239.764 192.731 239.959 192.536L243.141 189.354ZM192.363 189.5L242.788 189.5L242.788 188.5L192.363 188.5L192.363 189.5Z" fill="#318F73"/>
<path d="M208.145 176.136H205.877V175.224H208.145V172.944H209.093V175.224H211.385V176.136H209.093V178.44H208.145V176.136ZM213.662 174.372L212.786 174.06C213.086 172.56 214.166 171.504 215.942 171.504C217.67 171.504 218.666 172.5 218.666 174.024C218.63 175.284 218.042 176.28 217.154 177.084C216.53 177.672 216.038 178.008 215.378 178.428L214.454 179.004H218.978V180H212.678V179.184L214.382 177.972C215.378 177.264 216.026 176.772 216.326 176.496C217.154 175.74 217.562 174.948 217.562 174.132C217.562 173.028 216.89 172.548 215.87 172.548C214.574 172.548 213.902 173.364 213.662 174.372ZM221.985 180.18L221.193 179.724L227.397 171.336L228.153 171.888L221.985 180.18ZM219.897 173.616C219.897 173.016 220.101 172.524 220.521 172.14C220.941 171.756 221.457 171.564 222.093 171.564C222.717 171.564 223.233 171.756 223.653 172.14C224.073 172.524 224.277 173.016 224.277 173.616C224.277 174.204 224.073 174.696 223.653 175.08C223.233 175.464 222.717 175.656 222.093 175.656C221.457 175.656 220.941 175.464 220.521 175.08C220.101 174.696 219.897 174.204 219.897 173.616ZM220.905 173.616C220.905 174.3 221.457 174.804 222.093 174.804C222.753 174.804 223.269 174.324 223.269 173.616C223.269 172.908 222.729 172.428 222.093 172.428C221.433 172.428 220.905 172.908 220.905 173.616ZM225.669 179.472C225.249 179.088 225.045 178.596 225.045 177.996C225.045 177.396 225.249 176.904 225.669 176.52C226.089 176.148 226.605 175.956 227.241 175.956C227.865 175.956 228.381 176.148 228.801 176.52C229.221 176.904 229.425 177.396 229.425 177.996C229.425 178.584 229.221 179.076 228.801 179.46C228.381 179.856 227.865 180.048 227.241 180.048C226.605 180.048 226.089 179.856 225.669 179.472ZM226.053 177.996C226.053 178.68 226.605 179.184 227.241 179.184C227.901 179.184 228.417 178.704 228.417 177.996C228.417 177.288 227.877 176.808 227.241 176.808C226.581 176.808 226.053 177.288 226.053 177.996Z" fill="#318F73"/>
<line y1="204.5" x2="335" y2="204.5" stroke="#ABBEC9"/>
<defs>
<linearGradient id="paint0_linear_6004_39826" x1="38" y1="97" x2="38" y2="205" gradientUnits="userSpaceOnUse">
<stop stop-color="#45B8DB"/>
<stop offset="1" stop-color="#ADE4E4"/>
</linearGradient>
<linearGradient id="paint1_linear_6004_39826" x1="38" y1="97" x2="38" y2="205" gradientUnits="userSpaceOnUse">
<stop stop-color="white" stop-opacity="0"/>
<stop offset="0.739583" stop-color="white"/>
</linearGradient>
<linearGradient id="paint2_linear_6004_39826" x1="16" y1="-113.6" x2="16" y2="205" gradientUnits="userSpaceOnUse">
<stop stop-color="white" stop-opacity="0.05"/>
<stop offset="0.75" stop-color="white" stop-opacity="0.8"/>
</linearGradient>
<linearGradient id="paint3_linear_6004_39826" x1="158" y1="111" x2="158" y2="205" gradientUnits="userSpaceOnUse">
<stop stop-color="#45B8DB"/>
<stop offset="1" stop-color="#ADE4E4"/>
</linearGradient>
<linearGradient id="paint4_linear_6004_39826" x1="158" y1="111" x2="158" y2="205" gradientUnits="userSpaceOnUse">
<stop stop-color="white" stop-opacity="0"/>
<stop offset="0.739583" stop-color="white"/>
</linearGradient>
<linearGradient id="paint5_linear_6004_39826" x1="136" y1="-72.3" x2="136" y2="205" gradientUnits="userSpaceOnUse">
<stop stop-color="white" stop-opacity="0.05"/>
<stop offset="0.75" stop-color="white" stop-opacity="0.8"/>
</linearGradient>
<linearGradient id="paint6_linear_6004_39826" x1="278" y1="104" x2="278" y2="205" gradientUnits="userSpaceOnUse">
<stop stop-color="#45B8DB"/>
<stop offset="1" stop-color="#ADE4E4"/>
</linearGradient>
<linearGradient id="paint7_linear_6004_39826" x1="278" y1="104" x2="278" y2="205" gradientUnits="userSpaceOnUse">
<stop stop-color="white" stop-opacity="0"/>
<stop offset="0.739583" stop-color="white"/>
</linearGradient>
<linearGradient id="paint8_linear_6004_39826" x1="256" y1="-92.95" x2="256" y2="205" gradientUnits="userSpaceOnUse">
<stop stop-color="white" stop-opacity="0.05"/>
<stop offset="0.75" stop-color="white" stop-opacity="0.8"/>
</linearGradient>
<linearGradient id="paint9_linear_6004_39826" x1="274" y1="11.5" x2="33.5" y2="11.5" gradientUnits="userSpaceOnUse">
<stop stop-color="#56BCF6"/>
<stop offset="1" stop-color="#A2DEE7"/>
</linearGradient>
</defs>
</svg>
