<svg width="544" height="191" viewBox="0 0 544 191" fill="none" xmlns="http://www.w3.org/2000/svg">
<path d="M121.382 114H120.164V111.998H114.172V111.186L120.304 104.2H121.382V110.864H123.202V111.998H121.382V114ZM120.164 106.16L115.852 110.864H120.164V106.16ZM127.944 109.366C127.944 107.672 128.364 106.37 129.19 105.446C130.016 104.536 131.052 104.074 132.298 104.074C133.936 104.074 135.224 104.816 135.77 105.992L134.818 106.636C134.244 105.726 133.39 105.278 132.242 105.278C131.374 105.278 130.646 105.614 130.058 106.286C129.47 106.972 129.176 107.896 129.19 109.086C129.736 108.064 131.01 107.448 132.41 107.448C133.544 107.448 134.454 107.742 135.112 108.344C135.77 108.946 136.106 109.744 136.106 110.724C136.106 111.718 135.742 112.544 135 113.174C134.258 113.804 133.334 114.126 132.228 114.126C129.582 114.126 127.944 112.404 127.944 109.366ZM129.344 110.556C129.61 111.942 130.66 112.922 132.214 112.922C132.97 112.922 133.6 112.726 134.09 112.32C134.58 111.928 134.818 111.41 134.818 110.78C134.818 109.394 133.838 108.652 132.34 108.652C131.514 108.652 130.828 108.848 130.296 109.24C129.75 109.632 129.442 110.066 129.344 110.556ZM138.542 109.492L137.534 109.226L138.108 104.2H144.268V105.39H139.186L138.822 108.022C139.312 107.658 140.054 107.476 141.048 107.476C142.196 107.476 143.092 107.784 143.75 108.386C144.394 109.002 144.716 109.786 144.716 110.752C144.716 111.718 144.352 112.53 143.638 113.16C142.91 113.804 142 114.126 140.922 114.126C139.088 114.126 137.562 113.258 136.932 111.732L138.052 111.256C138.458 112.194 139.508 112.936 140.922 112.936C142.532 112.936 143.428 112.012 143.428 110.794C143.428 109.492 142.378 108.652 140.712 108.652C139.816 108.652 139.088 108.932 138.542 109.492ZM147.207 109.492L146.199 109.226L146.773 104.2H152.933V105.39H147.851L147.487 108.022C147.977 107.658 148.719 107.476 149.713 107.476C150.861 107.476 151.757 107.784 152.415 108.386C153.059 109.002 153.381 109.786 153.381 110.752C153.381 111.718 153.017 112.53 152.303 113.16C151.575 113.804 150.665 114.126 149.587 114.126C147.753 114.126 146.227 113.258 145.597 111.732L146.717 111.256C147.123 112.194 148.173 112.936 149.587 112.936C151.197 112.936 152.093 112.012 152.093 110.794C152.093 109.492 151.043 108.652 149.377 108.652C148.481 108.652 147.753 108.932 147.207 109.492Z" fill="#1A3341"/>
<path d="M121.863 184.372L120.987 184.06C121.287 182.572 122.415 181.504 124.203 181.504C125.931 181.504 126.987 182.5 126.987 184.024C126.987 184.828 126.639 185.632 126.207 186.208C125.991 186.508 125.715 186.796 125.391 187.096C124.731 187.684 124.263 187.996 123.579 188.428L122.655 189.004H127.299V190H120.759V189.184L122.583 187.972C122.907 187.768 123.135 187.612 123.267 187.516C123.399 187.432 123.615 187.276 123.903 187.072C124.191 186.868 124.407 186.688 124.551 186.556C124.683 186.424 124.863 186.256 125.067 186.04C125.619 185.44 125.823 184.888 125.883 184.132C125.883 183.04 125.175 182.548 124.131 182.548C123.483 182.548 122.967 182.728 122.595 183.088C122.223 183.448 121.971 183.88 121.863 184.372ZM128.131 185.8C128.131 184.504 128.431 183.46 129.043 182.68C129.643 181.9 130.531 181.504 131.695 181.504C134.083 181.504 135.271 183.076 135.271 185.8C135.271 187.108 134.971 188.14 134.383 188.92C133.783 189.7 132.895 190.096 131.719 190.096C130.591 190.096 129.715 189.7 129.079 188.908C128.443 188.116 128.131 187.084 128.131 185.8ZM129.235 185.8C129.235 187.852 130.171 189.076 131.719 189.076C133.351 189.076 134.167 187.984 134.167 185.8C134.167 183.616 133.339 182.524 131.695 182.524C130.027 182.524 129.235 183.724 129.235 185.8ZM137.127 184.372L136.251 184.06C136.551 182.572 137.679 181.504 139.467 181.504C141.195 181.504 142.251 182.5 142.251 184.024C142.251 184.828 141.903 185.632 141.471 186.208C141.255 186.508 140.979 186.796 140.655 187.096C139.995 187.684 139.527 187.996 138.843 188.428L137.919 189.004H142.563V190H136.023V189.184L137.847 187.972C138.171 187.768 138.399 187.612 138.531 187.516C138.663 187.432 138.879 187.276 139.167 187.072C139.455 186.868 139.671 186.688 139.815 186.556C139.947 186.424 140.127 186.256 140.331 186.04C140.883 185.44 141.087 184.888 141.147 184.132C141.147 183.04 140.439 182.548 139.395 182.548C138.747 182.548 138.231 182.728 137.859 183.088C137.487 183.448 137.235 183.88 137.127 184.372ZM143.299 183.832L142.915 182.932L145.795 181.552H146.479V190H145.447V182.836L143.299 183.832Z" fill="#1A3341" fill-opacity="0.6"/>
<path d="M106 126C106 124.895 106.895 124 108 124H160C161.105 124 162 124.895 162 126V175H106V126Z" fill="url(#paint0_linear_6004_39838)"/>
<path opacity="0.2" d="M118 124H150V175H118V124Z" fill="url(#paint1_linear_6004_39838)"/>
<path opacity="0.04" d="M150 124H160C161.105 124 162 124.895 162 126V175H150V124Z" fill="#0D262C"/>
<path opacity="0.5" d="M106 126C106 124.895 106.895 124 108 124H118V175H106V126Z" fill="url(#paint2_linear_6004_39838)"/>
<path d="M273.009 94H271.791V91.998H265.799V91.186L271.931 84.2H273.009V90.864H274.829V91.998H273.009V94ZM271.791 86.16L267.479 90.864H271.791V86.16ZM283.435 88.414H283.869C284.499 88.414 285.017 88.26 285.451 87.966C285.871 87.672 286.081 87.28 286.081 86.818C286.081 85.768 285.255 85.236 283.617 85.236C282.049 85.236 281.195 85.81 281.195 86.818C281.195 87.728 282.133 88.414 283.435 88.414ZM283.841 89.52H283.491C282.735 89.52 282.105 89.688 281.615 90.01C281.125 90.332 280.873 90.738 280.873 91.228C280.873 92.292 281.853 92.964 283.631 92.964C285.437 92.964 286.403 92.32 286.403 91.242C286.403 90.164 285.367 89.52 283.841 89.52ZM286.599 93.37C285.885 93.874 284.891 94.126 283.645 94.126C282.399 94.126 281.405 93.874 280.677 93.384C279.949 92.894 279.585 92.222 279.585 91.354C279.585 90.22 280.327 89.324 281.517 88.932C280.439 88.582 279.907 87.728 279.907 86.734C279.907 85.11 281.279 84.074 283.631 84.074C285.997 84.074 287.369 85.11 287.369 86.734C287.369 87.672 286.851 88.386 285.815 88.862C287.061 89.24 287.677 90.052 287.677 91.298C287.677 92.18 287.313 92.88 286.599 93.37ZM288.657 86.804L288.209 85.754L291.569 84.144H292.367V94H291.163V85.642L288.657 86.804ZM295.58 89.492L294.572 89.226L295.146 84.2H301.306V85.39H296.224L295.86 88.022C296.35 87.658 297.092 87.476 298.086 87.476C299.234 87.476 300.13 87.784 300.788 88.386C301.432 89.002 301.754 89.786 301.754 90.752C301.754 91.718 301.39 92.53 300.676 93.16C299.948 93.804 299.038 94.126 297.96 94.126C296.126 94.126 294.6 93.258 293.97 91.732L295.09 91.256C295.496 92.194 296.546 92.936 297.96 92.936C299.57 92.936 300.466 92.012 300.466 90.794C300.466 89.492 299.416 88.652 297.75 88.652C296.854 88.652 296.126 88.932 295.58 89.492Z" fill="#1A3341"/>
<path d="M270.556 184.372L269.68 184.06C269.98 182.572 271.108 181.504 272.896 181.504C274.624 181.504 275.68 182.5 275.68 184.024C275.68 184.828 275.332 185.632 274.9 186.208C274.684 186.508 274.408 186.796 274.084 187.096C273.424 187.684 272.956 187.996 272.272 188.428L271.348 189.004H275.992V190H269.452V189.184L271.276 187.972C271.6 187.768 271.828 187.612 271.96 187.516C272.092 187.432 272.308 187.276 272.596 187.072C272.884 186.868 273.1 186.688 273.244 186.556C273.376 186.424 273.556 186.256 273.76 186.04C274.312 185.44 274.516 184.888 274.576 184.132C274.576 183.04 273.868 182.548 272.824 182.548C272.176 182.548 271.66 182.728 271.288 183.088C270.916 183.448 270.664 183.88 270.556 184.372ZM276.824 185.8C276.824 184.504 277.124 183.46 277.736 182.68C278.336 181.9 279.224 181.504 280.388 181.504C282.776 181.504 283.964 183.076 283.964 185.8C283.964 187.108 283.664 188.14 283.076 188.92C282.476 189.7 281.588 190.096 280.412 190.096C279.284 190.096 278.408 189.7 277.772 188.908C277.136 188.116 276.824 187.084 276.824 185.8ZM277.928 185.8C277.928 187.852 278.864 189.076 280.412 189.076C282.044 189.076 282.86 187.984 282.86 185.8C282.86 183.616 282.032 182.524 280.388 182.524C278.72 182.524 277.928 183.724 277.928 185.8ZM285.82 184.372L284.944 184.06C285.244 182.572 286.372 181.504 288.16 181.504C289.888 181.504 290.944 182.5 290.944 184.024C290.944 184.828 290.596 185.632 290.164 186.208C289.948 186.508 289.672 186.796 289.348 187.096C288.688 187.684 288.22 187.996 287.536 188.428L286.612 189.004H291.256V190H284.716V189.184L286.54 187.972C286.864 187.768 287.092 187.612 287.224 187.516C287.356 187.432 287.572 187.276 287.86 187.072C288.148 186.868 288.364 186.688 288.508 186.556C288.64 186.424 288.82 186.256 289.024 186.04C289.576 185.44 289.78 184.888 289.84 184.132C289.84 183.04 289.132 182.548 288.088 182.548C287.44 182.548 286.924 182.728 286.552 183.088C286.18 183.448 285.928 183.88 285.82 184.372ZM293.048 184.372L292.172 184.06C292.472 182.572 293.6 181.504 295.388 181.504C297.116 181.504 298.172 182.5 298.172 184.024C298.172 184.828 297.824 185.632 297.392 186.208C297.176 186.508 296.9 186.796 296.576 187.096C295.916 187.684 295.448 187.996 294.764 188.428L293.84 189.004H298.484V190H291.944V189.184L293.768 187.972C294.092 187.768 294.32 187.612 294.452 187.516C294.584 187.432 294.8 187.276 295.088 187.072C295.376 186.868 295.592 186.688 295.736 186.556C295.868 186.424 296.048 186.256 296.252 186.04C296.804 185.44 297.008 184.888 297.068 184.132C297.068 183.04 296.36 182.548 295.316 182.548C294.668 182.548 294.152 182.728 293.78 183.088C293.408 183.448 293.156 183.88 293.048 184.372Z" fill="#1A3341" fill-opacity="0.6"/>
<path d="M256 106C256 104.895 256.895 104 258 104H310C311.105 104 312 104.895 312 106V175H256V106Z" fill="url(#paint3_linear_6004_39838)"/>
<path opacity="0.2" d="M268 104H300V175H268V104Z" fill="url(#paint4_linear_6004_39838)"/>
<path opacity="0.04" d="M300 104H310C311.105 104 312 104.895 312 106V175H300V104Z" fill="#0D262C"/>
<path opacity="0.5" d="M256 106C256 104.895 256.895 104 258 104H268V175H256V106Z" fill="url(#paint5_linear_6004_39838)"/>
<path d="M417.979 117.056L416.929 116.58C417.447 115.068 418.805 114.074 420.835 114.074C421.801 114.074 422.599 114.298 423.215 114.746C423.831 115.194 424.139 115.796 424.139 116.538C424.139 117.672 423.537 118.512 422.417 118.834C423.495 118.904 424.363 119.716 424.363 121.172C424.363 122.096 424.027 122.824 423.355 123.342C422.683 123.86 421.829 124.126 420.779 124.126C418.637 124.126 417.153 123.104 416.663 121.494L417.797 121.004C418.399 122.278 419.421 122.922 420.863 122.922C422.221 122.922 423.075 122.292 423.075 121.186C423.075 120.108 422.235 119.562 420.555 119.562H419.463V118.4H420.331C421.857 118.4 422.851 117.714 422.851 116.776C422.851 115.81 422.053 115.264 420.779 115.264C419.281 115.264 418.371 116.034 417.979 117.056ZM430.691 117.434L429.669 117.07C430.019 115.334 431.335 114.088 433.421 114.088C435.437 114.088 436.669 115.25 436.669 117.028C436.669 117.966 436.263 118.904 435.759 119.576C435.507 119.926 435.185 120.262 434.807 120.612C434.037 121.298 433.491 121.662 432.693 122.166L431.615 122.838H437.033V124H429.403V123.048L431.531 121.634C431.909 121.396 432.175 121.214 432.329 121.102C432.483 121.004 432.735 120.822 433.071 120.584C433.407 120.346 433.659 120.136 433.827 119.982C433.981 119.828 434.191 119.632 434.429 119.38C435.073 118.68 435.311 118.036 435.381 117.154C435.381 115.88 434.555 115.306 433.337 115.306C432.581 115.306 431.979 115.516 431.545 115.936C431.111 116.356 430.817 116.86 430.691 117.434ZM437.891 116.804L437.443 115.754L440.803 114.144H441.601V124H440.397V115.642L437.891 116.804ZM444.814 119.492L443.806 119.226L444.38 114.2H450.54V115.39H445.458L445.094 118.022C445.584 117.658 446.326 117.476 447.32 117.476C448.468 117.476 449.364 117.784 450.022 118.386C450.666 119.002 450.988 119.786 450.988 120.752C450.988 121.718 450.624 122.53 449.91 123.16C449.182 123.804 448.272 124.126 447.194 124.126C445.36 124.126 443.834 123.258 443.204 121.732L444.324 121.256C444.73 122.194 445.78 122.936 447.194 122.936C448.804 122.936 449.7 122.012 449.7 120.794C449.7 119.492 448.65 118.652 446.984 118.652C446.088 118.652 445.36 118.932 444.814 119.492Z" fill="#1A3341"/>
<path d="M420.527 184.372L419.651 184.06C419.951 182.572 421.079 181.504 422.867 181.504C424.595 181.504 425.651 182.5 425.651 184.024C425.651 184.828 425.303 185.632 424.871 186.208C424.655 186.508 424.379 186.796 424.055 187.096C423.395 187.684 422.927 187.996 422.243 188.428L421.319 189.004H425.963V190H419.423V189.184L421.247 187.972C421.571 187.768 421.799 187.612 421.931 187.516C422.063 187.432 422.279 187.276 422.567 187.072C422.855 186.868 423.071 186.688 423.215 186.556C423.347 186.424 423.527 186.256 423.731 186.04C424.283 185.44 424.487 184.888 424.547 184.132C424.547 183.04 423.839 182.548 422.795 182.548C422.147 182.548 421.631 182.728 421.259 183.088C420.887 183.448 420.635 183.88 420.527 184.372ZM426.795 185.8C426.795 184.504 427.095 183.46 427.707 182.68C428.307 181.9 429.195 181.504 430.359 181.504C432.747 181.504 433.935 183.076 433.935 185.8C433.935 187.108 433.635 188.14 433.047 188.92C432.447 189.7 431.559 190.096 430.383 190.096C429.255 190.096 428.379 189.7 427.743 188.908C427.107 188.116 426.795 187.084 426.795 185.8ZM427.899 185.8C427.899 187.852 428.835 189.076 430.383 189.076C432.015 189.076 432.831 187.984 432.831 185.8C432.831 183.616 432.003 182.524 430.359 182.524C428.691 182.524 427.899 183.724 427.899 185.8ZM435.791 184.372L434.915 184.06C435.215 182.572 436.343 181.504 438.131 181.504C439.859 181.504 440.915 182.5 440.915 184.024C440.915 184.828 440.567 185.632 440.135 186.208C439.919 186.508 439.643 186.796 439.319 187.096C438.659 187.684 438.191 187.996 437.507 188.428L436.583 189.004H441.227V190H434.687V189.184L436.511 187.972C436.835 187.768 437.063 187.612 437.195 187.516C437.327 187.432 437.543 187.276 437.831 187.072C438.119 186.868 438.335 186.688 438.479 186.556C438.611 186.424 438.791 186.256 438.995 186.04C439.547 185.44 439.751 184.888 439.811 184.132C439.811 183.04 439.103 182.548 438.059 182.548C437.411 182.548 436.895 182.728 436.523 183.088C436.151 183.448 435.899 183.88 435.791 184.372ZM442.887 184.048L441.987 183.64C442.431 182.344 443.595 181.492 445.335 181.492C446.163 181.492 446.847 181.684 447.375 182.068C447.903 182.452 448.167 182.968 448.167 183.604C448.167 184.576 447.651 185.296 446.691 185.572C447.615 185.632 448.359 186.328 448.359 187.576C448.359 188.368 448.071 188.992 447.495 189.436C446.919 189.88 446.187 190.108 445.287 190.108C443.451 190.108 442.179 189.232 441.759 187.852L442.731 187.432C443.247 188.524 444.123 189.076 445.359 189.076C446.523 189.076 447.255 188.536 447.255 187.588C447.255 186.664 446.535 186.196 445.095 186.196H444.159V185.2H444.903C446.211 185.2 447.063 184.612 447.063 183.808C447.063 182.98 446.379 182.512 445.287 182.512C444.003 182.512 443.223 183.172 442.887 184.048Z" fill="#1A3341" fill-opacity="0.6"/>
<path d="M406 136C406 134.895 406.895 134 408 134H460C461.105 134 462 134.895 462 136V175H406V136Z" fill="url(#paint6_linear_6004_39838)"/>
<path opacity="0.2" d="M418 134H450V175H418V134Z" fill="url(#paint7_linear_6004_39838)"/>
<path opacity="0.04" d="M450 134H460C461.105 134 462 134.895 462 136V175H450V134Z" fill="#0D262C"/>
<path opacity="0.5" d="M406 136C406 134.895 406.895 134 408 134H418V175H406V136Z" fill="url(#paint8_linear_6004_39838)"/>
<path d="M234.927 119.354C235.122 119.158 235.122 118.842 234.927 118.646L231.745 115.464C231.55 115.269 231.233 115.269 231.038 115.464C230.843 115.66 230.843 115.976 231.038 116.172L233.867 119L231.038 121.828C230.843 122.024 230.843 122.34 231.038 122.536C231.233 122.731 231.55 122.731 231.745 122.536L234.927 119.354ZM183.18 119.5L234.574 119.5L234.574 118.5L183.18 118.5L183.18 119.5Z" fill="#318F73"/>
<path d="M197.645 106.136H195.377V105.224H197.645V102.944H198.593V105.224H200.885V106.136H198.593V108.44H197.645V106.136ZM203.15 104.048L202.25 103.64C202.754 102.212 203.834 101.492 205.478 101.492C206.306 101.492 206.99 101.684 207.518 102.068C208.046 102.452 208.31 102.968 208.31 103.604C208.31 104.576 207.794 105.296 206.834 105.572C207.758 105.632 208.502 106.328 208.502 107.576C208.502 108.368 208.214 108.992 207.638 109.436C207.062 109.88 206.33 110.108 205.43 110.108C203.606 110.108 202.454 109.244 202.022 107.852L202.994 107.432C203.474 108.476 204.11 109.076 205.502 109.076C206.666 109.076 207.398 108.536 207.398 107.588C207.398 106.664 206.678 106.196 205.238 106.196H204.302V105.2H205.046C206.354 105.2 207.206 104.612 207.206 103.808C207.206 102.98 206.522 102.512 205.43 102.512C204.314 102.512 203.546 103.028 203.15 104.048ZM211.485 110.18L210.693 109.724L216.897 101.336L217.653 101.888L211.485 110.18ZM209.397 103.616C209.397 103.016 209.601 102.524 210.021 102.14C210.441 101.756 210.957 101.564 211.593 101.564C212.217 101.564 212.733 101.756 213.153 102.14C213.573 102.524 213.777 103.016 213.777 103.616C213.777 104.204 213.573 104.696 213.153 105.08C212.733 105.464 212.217 105.656 211.593 105.656C210.957 105.656 210.441 105.464 210.021 105.08C209.601 104.696 209.397 104.204 209.397 103.616ZM210.405 103.616C210.405 104.3 210.957 104.804 211.593 104.804C212.253 104.804 212.769 104.324 212.769 103.616C212.769 102.908 212.229 102.428 211.593 102.428C210.933 102.428 210.405 102.908 210.405 103.616ZM215.169 109.472C214.749 109.088 214.545 108.596 214.545 107.996C214.545 107.396 214.749 106.904 215.169 106.52C215.589 106.148 216.105 105.956 216.741 105.956C217.365 105.956 217.881 106.148 218.301 106.52C218.721 106.904 218.925 107.396 218.925 107.996C218.925 108.584 218.721 109.076 218.301 109.46C217.881 109.856 217.365 110.048 216.741 110.048C216.105 110.048 215.589 109.856 215.169 109.472ZM215.553 107.996C215.553 108.68 216.105 109.184 216.741 109.184C217.401 109.184 217.917 108.704 217.917 107.996C217.917 107.288 217.377 106.808 216.741 106.808C216.081 106.808 215.553 107.288 215.553 107.996Z" fill="#318F73"/>
<path d="M384.927 119.354C385.122 119.158 385.122 118.842 384.927 118.646L381.745 115.464C381.55 115.269 381.233 115.269 381.038 115.464C380.843 115.66 380.843 115.976 381.038 116.172L383.867 119L381.038 121.828C380.843 122.024 380.843 122.34 381.038 122.536C381.233 122.731 381.55 122.731 381.745 122.536L384.927 119.354ZM333.18 119.5L384.574 119.5L384.574 118.5L333.18 118.5L333.18 119.5Z" fill="#7DA4C1"/>
<path d="M342.398 106.136H336.83V105.236H342.398V106.136ZM344.536 104.048L343.636 103.64C344.14 102.212 345.22 101.492 346.864 101.492C347.692 101.492 348.376 101.684 348.904 102.068C349.432 102.452 349.696 102.968 349.696 103.604C349.696 104.576 349.18 105.296 348.22 105.572C349.144 105.632 349.888 106.328 349.888 107.576C349.888 108.368 349.6 108.992 349.024 109.436C348.448 109.88 347.716 110.108 346.816 110.108C344.992 110.108 343.84 109.244 343.408 107.852L344.38 107.432C344.86 108.476 345.496 109.076 346.888 109.076C348.052 109.076 348.784 108.536 348.784 107.588C348.784 106.664 348.064 106.196 346.624 106.196H345.688V105.2H346.432C347.74 105.2 348.592 104.612 348.592 103.808C348.592 102.98 347.908 102.512 346.816 102.512C345.7 102.512 344.932 103.028 344.536 104.048ZM351.732 104.048L350.832 103.64C351.336 102.212 352.416 101.492 354.06 101.492C354.888 101.492 355.572 101.684 356.1 102.068C356.628 102.452 356.892 102.968 356.892 103.604C356.892 104.576 356.376 105.296 355.416 105.572C356.34 105.632 357.084 106.328 357.084 107.576C357.084 108.368 356.796 108.992 356.22 109.436C355.644 109.88 354.912 110.108 354.012 110.108C352.188 110.108 351.036 109.244 350.604 107.852L351.576 107.432C352.056 108.476 352.692 109.076 354.084 109.076C355.248 109.076 355.98 108.536 355.98 107.588C355.98 106.664 355.26 106.196 353.82 106.196H352.884V105.2H353.628C354.936 105.2 355.788 104.612 355.788 103.808C355.788 102.98 355.104 102.512 354.012 102.512C352.896 102.512 352.128 103.028 351.732 104.048ZM358.783 110C358.339 110.048 358.003 109.796 358.003 109.364C358.003 108.944 358.267 108.68 358.735 108.68C359.263 108.68 359.611 109.04 359.611 109.712C359.611 110.912 358.951 111.524 358.075 111.728L357.823 111.164C358.087 111.092 358.327 110.948 358.543 110.72C358.747 110.492 358.831 110.252 358.783 110ZM361.564 104.372L360.688 104.06C360.988 102.56 362.068 101.504 363.844 101.504C365.572 101.504 366.568 102.5 366.568 104.024C366.532 105.284 365.944 106.28 365.056 107.084C364.432 107.672 363.94 108.008 363.28 108.428L362.356 109.004H366.88V110H360.58V109.184L362.284 107.972C363.28 107.264 363.928 106.772 364.228 106.496C365.056 105.74 365.464 104.948 365.464 104.132C365.464 103.028 364.792 102.548 363.772 102.548C362.476 102.548 361.804 103.364 361.564 104.372ZM369.887 110.18L369.095 109.724L375.299 101.336L376.055 101.888L369.887 110.18ZM367.799 103.616C367.799 103.016 368.003 102.524 368.423 102.14C368.843 101.756 369.359 101.564 369.995 101.564C370.619 101.564 371.135 101.756 371.555 102.14C371.975 102.524 372.179 103.016 372.179 103.616C372.179 104.204 371.975 104.696 371.555 105.08C371.135 105.464 370.619 105.656 369.995 105.656C369.359 105.656 368.843 105.464 368.423 105.08C368.003 104.696 367.799 104.204 367.799 103.616ZM368.807 103.616C368.807 104.3 369.359 104.804 369.995 104.804C370.655 104.804 371.171 104.324 371.171 103.616C371.171 102.908 370.631 102.428 369.995 102.428C369.335 102.428 368.807 102.908 368.807 103.616ZM373.571 109.472C373.151 109.088 372.947 108.596 372.947 107.996C372.947 107.396 373.151 106.904 373.571 106.52C373.991 106.148 374.507 105.956 375.143 105.956C375.767 105.956 376.283 106.148 376.703 106.52C377.123 106.904 377.327 107.396 377.327 107.996C377.327 108.584 377.123 109.076 376.703 109.46C376.283 109.856 375.767 110.048 375.143 110.048C374.507 110.048 373.991 109.856 373.571 109.472ZM373.955 107.996C373.955 108.68 374.507 109.184 375.143 109.184C375.803 109.184 376.319 108.704 376.319 107.996C376.319 107.288 375.779 106.808 375.143 106.808C374.483 106.808 373.955 107.288 373.955 107.996Z" fill="#7DA4C1"/>
<path d="M134.5 63L284.5 25L433.5 95.5" stroke="url(#paint9_linear_6004_39838)" stroke-width="5"/>
<circle cx="434" cy="96" r="7" fill="#64BBEA" stroke="white" stroke-width="2"/>
<circle cx="284" cy="25" r="7" fill="#64BBEA" stroke="white" stroke-width="2"/>
<circle cx="135" cy="64" r="7" fill="#64BBEA" stroke="white" stroke-width="2"/>
<path d="M128.581 41.85H124.341V41H129.651V41.57L126.171 48H125.221L128.581 41.85ZM131.107 48C130.737 48.04 130.457 47.83 130.457 47.47C130.457 47.12 130.677 46.9 131.067 46.9C131.507 46.9 131.797 47.2 131.797 47.76C131.797 48.76 131.247 49.27 130.517 49.44L130.307 48.97C130.527 48.91 130.727 48.79 130.907 48.6C131.077 48.41 131.147 48.21 131.107 48ZM133.424 43.31L132.694 43.05C132.944 41.8 133.844 40.92 135.324 40.92C136.764 40.92 137.594 41.75 137.594 43.02C137.564 44.07 137.074 44.9 136.334 45.57C135.814 46.06 135.404 46.34 134.854 46.69L134.084 47.17H137.854V48H132.604V47.32L134.024 46.31C134.854 45.72 135.394 45.31 135.644 45.08C136.334 44.45 136.674 43.79 136.674 43.11C136.674 42.19 136.114 41.79 135.264 41.79C134.184 41.79 133.624 42.47 133.424 43.31ZM140.36 48.15L139.7 47.77L144.87 40.78L145.5 41.24L140.36 48.15ZM138.62 42.68C138.62 42.18 138.79 41.77 139.14 41.45C139.49 41.13 139.92 40.97 140.45 40.97C140.97 40.97 141.4 41.13 141.75 41.45C142.1 41.77 142.27 42.18 142.27 42.68C142.27 43.17 142.1 43.58 141.75 43.9C141.4 44.22 140.97 44.38 140.45 44.38C139.92 44.38 139.49 44.22 139.14 43.9C138.79 43.58 138.62 43.17 138.62 42.68ZM139.46 42.68C139.46 43.25 139.92 43.67 140.45 43.67C141 43.67 141.43 43.27 141.43 42.68C141.43 42.09 140.98 41.69 140.45 41.69C139.9 41.69 139.46 42.09 139.46 42.68ZM143.43 47.56C143.08 47.24 142.91 46.83 142.91 46.33C142.91 45.83 143.08 45.42 143.43 45.1C143.78 44.79 144.21 44.63 144.74 44.63C145.26 44.63 145.69 44.79 146.04 45.1C146.39 45.42 146.56 45.83 146.56 46.33C146.56 46.82 146.39 47.23 146.04 47.55C145.69 47.88 145.26 48.04 144.74 48.04C144.21 48.04 143.78 47.88 143.43 47.56ZM143.75 46.33C143.75 46.9 144.21 47.32 144.74 47.32C145.29 47.32 145.72 46.92 145.72 46.33C145.72 45.74 145.27 45.34 144.74 45.34C144.19 45.34 143.75 45.74 143.75 46.33Z" fill="#357D94"/>
<path d="M279.871 6.01H280.181C280.551 6.01 280.881 5.9 281.151 5.69C281.421 5.48 281.561 5.2 281.561 4.87C281.561 4.12 281.041 3.74 280.001 3.74C278.981 3.74 278.471 4.12 278.471 4.87C278.471 5.52 279.061 6.01 279.871 6.01ZM280.161 6.8H279.911C278.861 6.8 278.241 7.3 278.241 8.02C278.241 8.78 278.861 9.26 280.011 9.26C281.161 9.26 281.791 8.8 281.791 8.03C281.791 7.24 281.231 6.8 280.161 6.8ZM280.021 10.09C278.351 10.09 277.321 9.35 277.321 8.11C277.321 7.28 277.771 6.66 278.601 6.38C277.891 6.11 277.551 5.52 277.551 4.81C277.551 3.66 278.491 2.91 280.011 2.91C281.581 2.91 282.481 3.65 282.481 4.81C282.481 5.51 282.141 6.02 281.471 6.33C282.381 6.61 282.701 7.18 282.701 8.07C282.701 9.34 281.651 10.09 280.021 10.09ZM284.107 10C283.737 10.04 283.457 9.83 283.457 9.47C283.457 9.12 283.677 8.9 284.067 8.9C284.507 8.9 284.797 9.2 284.797 9.76C284.797 10.76 284.247 11.27 283.517 11.44L283.307 10.97C283.527 10.91 283.727 10.79 283.907 10.6C284.077 10.41 284.147 10.21 284.107 10ZM289.764 3.85H285.524V3H290.834V3.57L287.354 10H286.404L289.764 3.85ZM293.36 10.15L292.7 9.77L297.87 2.78L298.5 3.24L293.36 10.15ZM291.62 4.68C291.62 4.18 291.79 3.77 292.14 3.45C292.49 3.13 292.92 2.97 293.45 2.97C293.97 2.97 294.4 3.13 294.75 3.45C295.1 3.77 295.27 4.18 295.27 4.68C295.27 5.17 295.1 5.58 294.75 5.9C294.4 6.22 293.97 6.38 293.45 6.38C292.92 6.38 292.49 6.22 292.14 5.9C291.79 5.58 291.62 5.17 291.62 4.68ZM292.46 4.68C292.46 5.25 292.92 5.67 293.45 5.67C294 5.67 294.43 5.27 294.43 4.68C294.43 4.09 293.98 3.69 293.45 3.69C292.9 3.69 292.46 4.09 292.46 4.68ZM296.43 9.56C296.08 9.24 295.91 8.83 295.91 8.33C295.91 7.83 296.08 7.42 296.43 7.1C296.78 6.79 297.21 6.63 297.74 6.63C298.26 6.63 298.69 6.79 299.04 7.1C299.39 7.42 299.56 7.83 299.56 8.33C299.56 8.82 299.39 9.23 299.04 9.55C298.69 9.88 298.26 10.04 297.74 10.04C297.21 10.04 296.78 9.88 296.43 9.56ZM296.75 8.33C296.75 8.9 297.21 9.32 297.74 9.32C298.29 9.32 298.72 8.92 298.72 8.33C298.72 7.74 298.27 7.34 297.74 7.34C297.19 7.34 296.75 7.74 296.75 8.33Z" fill="#357D94"/>
<path d="M424.961 78.78L424.241 78.59L424.651 75H429.051V75.85H425.421L425.161 77.73C425.511 77.47 426.041 77.34 426.751 77.34C427.571 77.34 428.211 77.56 428.681 77.99C429.141 78.43 429.371 78.99 429.371 79.68C429.371 80.37 429.111 80.95 428.601 81.4C428.081 81.86 427.431 82.09 426.661 82.09C425.351 82.09 424.261 81.47 423.811 80.38L424.611 80.04C424.901 80.71 425.651 81.24 426.661 81.24C427.811 81.24 428.451 80.58 428.451 79.71C428.451 78.78 427.701 78.18 426.511 78.18C425.871 78.18 425.351 78.38 424.961 78.78ZM430.607 82C430.237 82.04 429.957 81.83 429.957 81.47C429.957 81.12 430.177 80.9 430.567 80.9C431.007 80.9 431.297 81.2 431.297 81.76C431.297 82.76 430.747 83.27 430.017 83.44L429.807 82.97C430.027 82.91 430.227 82.79 430.407 82.6C430.577 82.41 430.647 82.21 430.607 82ZM434.554 78.01H434.864C435.234 78.01 435.564 77.9 435.834 77.69C436.104 77.48 436.244 77.2 436.244 76.87C436.244 76.12 435.724 75.74 434.684 75.74C433.664 75.74 433.154 76.12 433.154 76.87C433.154 77.52 433.744 78.01 434.554 78.01ZM434.844 78.8H434.594C433.544 78.8 432.924 79.3 432.924 80.02C432.924 80.78 433.544 81.26 434.694 81.26C435.844 81.26 436.474 80.8 436.474 80.03C436.474 79.24 435.914 78.8 434.844 78.8ZM434.704 82.09C433.034 82.09 432.004 81.35 432.004 80.11C432.004 79.28 432.454 78.66 433.284 78.38C432.574 78.11 432.234 77.52 432.234 76.81C432.234 75.66 433.174 74.91 434.694 74.91C436.264 74.91 437.164 75.65 437.164 76.81C437.164 77.51 436.824 78.02 436.154 78.33C437.064 78.61 437.384 79.18 437.384 80.07C437.384 81.34 436.334 82.09 434.704 82.09ZM439.86 82.15L439.2 81.77L444.37 74.78L445 75.24L439.86 82.15ZM438.12 76.68C438.12 76.18 438.29 75.77 438.64 75.45C438.99 75.13 439.42 74.97 439.95 74.97C440.47 74.97 440.9 75.13 441.25 75.45C441.6 75.77 441.77 76.18 441.77 76.68C441.77 77.17 441.6 77.58 441.25 77.9C440.9 78.22 440.47 78.38 439.95 78.38C439.42 78.38 438.99 78.22 438.64 77.9C438.29 77.58 438.12 77.17 438.12 76.68ZM438.96 76.68C438.96 77.25 439.42 77.67 439.95 77.67C440.5 77.67 440.93 77.27 440.93 76.68C440.93 76.09 440.48 75.69 439.95 75.69C439.4 75.69 438.96 76.09 438.96 76.68ZM442.93 81.56C442.58 81.24 442.41 80.83 442.41 80.33C442.41 79.83 442.58 79.42 442.93 79.1C443.28 78.79 443.71 78.63 444.24 78.63C444.76 78.63 445.19 78.79 445.54 79.1C445.89 79.42 446.06 79.83 446.06 80.33C446.06 80.82 445.89 81.23 445.54 81.55C445.19 81.88 444.76 82.04 444.24 82.04C443.71 82.04 443.28 81.88 442.93 81.56ZM443.25 80.33C443.25 80.9 443.71 81.32 444.24 81.32C444.79 81.32 445.22 80.92 445.22 80.33C445.22 79.74 444.77 79.34 444.24 79.34C443.69 79.34 443.25 79.74 443.25 80.33Z" fill="#357D94"/>
<line y1="174.5" x2="544" y2="174.5" stroke="#ABBEC9"/>
<defs>
<linearGradient id="paint0_linear_6004_39838" x1="134" y1="124" x2="134" y2="175" gradientUnits="userSpaceOnUse">
<stop stop-color="#45B8DB"/>
<stop offset="1" stop-color="#ADE4E4"/>
</linearGradient>
<linearGradient id="paint1_linear_6004_39838" x1="134" y1="124" x2="134" y2="175" gradientUnits="userSpaceOnUse">
<stop stop-color="white" stop-opacity="0"/>
<stop offset="0.739583" stop-color="white"/>
</linearGradient>
<linearGradient id="paint2_linear_6004_39838" x1="112" y1="24.55" x2="112" y2="175" gradientUnits="userSpaceOnUse">
<stop stop-color="white" stop-opacity="0.05"/>
<stop offset="0.75" stop-color="white" stop-opacity="0.8"/>
</linearGradient>
<linearGradient id="paint3_linear_6004_39838" x1="284" y1="104" x2="284" y2="175" gradientUnits="userSpaceOnUse">
<stop stop-color="#45B8DB"/>
<stop offset="1" stop-color="#ADE4E4"/>
</linearGradient>
<linearGradient id="paint4_linear_6004_39838" x1="284" y1="104" x2="284" y2="175" gradientUnits="userSpaceOnUse">
<stop stop-color="white" stop-opacity="0"/>
<stop offset="0.739583" stop-color="white"/>
</linearGradient>
<linearGradient id="paint5_linear_6004_39838" x1="262" y1="-34.45" x2="262" y2="175" gradientUnits="userSpaceOnUse">
<stop stop-color="white" stop-opacity="0.05"/>
<stop offset="0.75" stop-color="white" stop-opacity="0.8"/>
</linearGradient>
<linearGradient id="paint6_linear_6004_39838" x1="434" y1="134" x2="434" y2="175" gradientUnits="userSpaceOnUse">
<stop stop-color="#45B8DB"/>
<stop offset="1" stop-color="#ADE4E4"/>
</linearGradient>
<linearGradient id="paint7_linear_6004_39838" x1="434" y1="134" x2="434" y2="175" gradientUnits="userSpaceOnUse">
<stop stop-color="white" stop-opacity="0"/>
<stop offset="0.739583" stop-color="white"/>
</linearGradient>
<linearGradient id="paint8_linear_6004_39838" x1="412" y1="54.05" x2="412" y2="175" gradientUnits="userSpaceOnUse">
<stop stop-color="white" stop-opacity="0.05"/>
<stop offset="0.75" stop-color="white" stop-opacity="0.8"/>
</linearGradient>
<linearGradient id="paint9_linear_6004_39838" x1="433.5" y1="25" x2="134.5" y2="25" gradientUnits="userSpaceOnUse">
<stop stop-color="#56BCF6"/>
<stop offset="1" stop-color="#A2DEE7"/>
</linearGradient>
</defs>
</svg>
