<svg width="479" height="150" viewBox="0 0 479 150" fill="none" xmlns="http://www.w3.org/2000/svg">
<line y1="134.5" x2="479" y2="134.5" stroke="#ABBEC9"/>
<path d="M222.857 28H221.639V25.998H215.647V25.186L221.779 18.2H222.857V24.864H224.677V25.998H222.857V28ZM221.639 20.16L217.327 24.864H221.639V20.16ZM230.975 19.39H225.039V18.2H232.473V18.998L227.601 28H226.271L230.975 19.39ZM242.89 19.39H236.954V18.2H244.388V18.998L239.516 28H238.186L242.89 19.39ZM245.134 23.366C245.134 21.672 245.554 20.37 246.38 19.446C247.206 18.536 248.242 18.074 249.488 18.074C251.126 18.074 252.414 18.816 252.96 19.992L252.008 20.636C251.434 19.726 250.58 19.278 249.432 19.278C248.564 19.278 247.836 19.614 247.248 20.286C246.66 20.972 246.366 21.896 246.38 23.086C246.926 22.064 248.2 21.448 249.6 21.448C250.734 21.448 251.644 21.742 252.302 22.344C252.96 22.946 253.296 23.744 253.296 24.724C253.296 25.718 252.932 26.544 252.19 27.174C251.448 27.804 250.524 28.126 249.418 28.126C246.772 28.126 245.134 26.404 245.134 23.366ZM246.534 24.556C246.8 25.942 247.85 26.922 249.404 26.922C250.16 26.922 250.79 26.726 251.28 26.32C251.77 25.928 252.008 25.41 252.008 24.78C252.008 23.394 251.028 22.652 249.53 22.652C248.704 22.652 248.018 22.848 247.486 23.24C246.94 23.632 246.632 24.066 246.534 24.556ZM255.733 23.492L254.725 23.226L255.299 18.2H261.459V19.39H256.377L256.013 22.022C256.503 21.658 257.245 21.476 258.239 21.476C259.387 21.476 260.283 21.784 260.941 22.386C261.585 23.002 261.907 23.786 261.907 24.752C261.907 25.718 261.543 26.53 260.829 27.16C260.101 27.804 259.191 28.126 258.113 28.126C256.279 28.126 254.753 27.258 254.123 25.732L255.243 25.256C255.649 26.194 256.699 26.936 258.113 26.936C259.723 26.936 260.619 26.012 260.619 24.794C260.619 23.492 259.569 22.652 257.903 22.652C257.007 22.652 256.279 22.932 255.733 23.492Z" fill="#1A3341"/>
<path d="M225.556 143.372L224.68 143.06C224.98 141.572 226.108 140.504 227.896 140.504C229.624 140.504 230.68 141.5 230.68 143.024C230.68 143.828 230.332 144.632 229.9 145.208C229.684 145.508 229.408 145.796 229.084 146.096C228.424 146.684 227.956 146.996 227.272 147.428L226.348 148.004H230.992V149H224.452V148.184L226.276 146.972C226.6 146.768 226.828 146.612 226.96 146.516C227.092 146.432 227.308 146.276 227.596 146.072C227.884 145.868 228.1 145.688 228.244 145.556C228.376 145.424 228.556 145.256 228.76 145.04C229.312 144.44 229.516 143.888 229.576 143.132C229.576 142.04 228.868 141.548 227.824 141.548C227.176 141.548 226.66 141.728 226.288 142.088C225.916 142.448 225.664 142.88 225.556 143.372ZM231.824 144.8C231.824 143.504 232.124 142.46 232.736 141.68C233.336 140.9 234.224 140.504 235.388 140.504C237.776 140.504 238.964 142.076 238.964 144.8C238.964 146.108 238.664 147.14 238.076 147.92C237.476 148.7 236.588 149.096 235.412 149.096C234.284 149.096 233.408 148.7 232.772 147.908C232.136 147.116 231.824 146.084 231.824 144.8ZM232.928 144.8C232.928 146.852 233.864 148.076 235.412 148.076C237.044 148.076 237.86 146.984 237.86 144.8C237.86 142.616 237.032 141.524 235.388 141.524C233.72 141.524 232.928 142.724 232.928 144.8ZM240.82 143.372L239.944 143.06C240.244 141.572 241.372 140.504 243.16 140.504C244.888 140.504 245.944 141.5 245.944 143.024C245.944 143.828 245.596 144.632 245.164 145.208C244.948 145.508 244.672 145.796 244.348 146.096C243.688 146.684 243.22 146.996 242.536 147.428L241.612 148.004H246.256V149H239.716V148.184L241.54 146.972C241.864 146.768 242.092 146.612 242.224 146.516C242.356 146.432 242.572 146.276 242.86 146.072C243.148 145.868 243.364 145.688 243.508 145.556C243.64 145.424 243.82 145.256 244.024 145.04C244.576 144.44 244.78 143.888 244.84 143.132C244.84 142.04 244.132 141.548 243.088 141.548C242.44 141.548 241.924 141.728 241.552 142.088C241.18 142.448 240.928 142.88 240.82 143.372ZM248.048 143.372L247.172 143.06C247.472 141.572 248.6 140.504 250.388 140.504C252.116 140.504 253.172 141.5 253.172 143.024C253.172 143.828 252.824 144.632 252.392 145.208C252.176 145.508 251.9 145.796 251.576 146.096C250.916 146.684 250.448 146.996 249.764 147.428L248.84 148.004H253.484V149H246.944V148.184L248.768 146.972C249.092 146.768 249.32 146.612 249.452 146.516C249.584 146.432 249.8 146.276 250.088 146.072C250.376 145.868 250.592 145.688 250.736 145.556C250.868 145.424 251.048 145.256 251.252 145.04C251.804 144.44 252.008 143.888 252.068 143.132C252.068 142.04 251.36 141.548 250.316 141.548C249.668 141.548 249.152 141.728 248.78 142.088C248.408 142.448 248.156 142.88 248.048 143.372Z" fill="#1A3341" fill-opacity="0.6"/>
<path d="M211 40C211 38.8954 211.895 38 213 38H265C266.105 38 267 38.8954 267 40V134H211V40Z" fill="url(#paint0_linear_4002_9569)"/>
<path opacity="0.2" d="M223 38H255V134H223V38Z" fill="url(#paint1_linear_4002_9569)"/>
<path opacity="0.04" d="M255 38H265C266.105 38 267 38.8954 267 40V134H255V38Z" fill="#0D262C"/>
<path opacity="0.5" d="M211 40C211 38.8954 211.895 38 213 38H223V134H211V40Z" fill="url(#paint2_linear_4002_9569)"/>
<path d="M88.128 5.492L87.12 5.226L87.694 0.199999H93.854V1.39H88.772L88.408 4.022C88.898 3.658 89.64 3.476 90.634 3.476C91.782 3.476 92.678 3.784 93.336 4.386C93.98 5.002 94.302 5.786 94.302 6.752C94.302 7.718 93.938 8.53 93.224 9.16C92.496 9.804 91.586 10.126 90.508 10.126C88.674 10.126 87.148 9.258 86.518 7.732L87.638 7.256C88.044 8.194 89.094 8.936 90.508 8.936C92.118 8.936 93.014 8.012 93.014 6.794C93.014 5.492 91.964 4.652 90.298 4.652C89.402 4.652 88.674 4.932 88.128 5.492ZM95.3647 5.366C95.3647 3.672 95.7847 2.37 96.6107 1.446C97.4367 0.535999 98.4727 0.0739993 99.7187 0.0739993C101.357 0.0739993 102.645 0.816 103.191 1.992L102.239 2.636C101.665 1.726 100.811 1.278 99.6627 1.278C98.7947 1.278 98.0667 1.614 97.4787 2.286C96.8907 2.972 96.5967 3.896 96.6107 5.086C97.1567 4.064 98.4307 3.448 99.8307 3.448C100.965 3.448 101.875 3.742 102.533 4.344C103.191 4.946 103.527 5.744 103.527 6.724C103.527 7.718 103.163 8.544 102.421 9.174C101.679 9.804 100.755 10.126 99.6487 10.126C97.0027 10.126 95.3647 8.404 95.3647 5.366ZM96.7647 6.556C97.0307 7.942 98.0807 8.922 99.6347 8.922C100.391 8.922 101.021 8.726 101.511 8.32C102.001 7.928 102.239 7.41 102.239 6.78C102.239 5.394 101.259 4.652 99.7607 4.652C98.9347 4.652 98.2487 4.848 97.7167 5.24C97.1707 5.632 96.8627 6.066 96.7647 6.556ZM112.457 4.414H112.891C113.521 4.414 114.039 4.26 114.473 3.966C114.893 3.672 115.103 3.28 115.103 2.818C115.103 1.768 114.277 1.236 112.639 1.236C111.071 1.236 110.217 1.81 110.217 2.818C110.217 3.728 111.155 4.414 112.457 4.414ZM112.863 5.52H112.513C111.757 5.52 111.127 5.688 110.637 6.01C110.147 6.332 109.895 6.738 109.895 7.228C109.895 8.292 110.875 8.964 112.653 8.964C114.459 8.964 115.425 8.32 115.425 7.242C115.425 6.164 114.389 5.52 112.863 5.52ZM115.621 9.37C114.907 9.874 113.913 10.126 112.667 10.126C111.421 10.126 110.427 9.874 109.699 9.384C108.971 8.894 108.607 8.222 108.607 7.354C108.607 6.22 109.349 5.324 110.539 4.932C109.461 4.582 108.929 3.728 108.929 2.734C108.929 1.11 110.301 0.0739993 112.653 0.0739993C115.019 0.0739993 116.391 1.11 116.391 2.734C116.391 3.672 115.873 4.386 114.837 4.862C116.083 5.24 116.699 6.052 116.699 7.298C116.699 8.18 116.335 8.88 115.621 9.37ZM125.938 4.918C125.938 6.584 125.546 7.872 124.748 8.768C123.95 9.678 122.886 10.126 121.556 10.126C119.932 10.126 118.658 9.44 118.028 8.39L119.036 7.69C119.596 8.474 120.618 8.922 121.724 8.922C122.634 8.922 123.362 8.558 123.936 7.83C124.51 7.116 124.748 6.22 124.678 5.156C124.216 6.22 123.054 7.004 121.5 7.004C120.408 7.004 119.512 6.696 118.812 6.066C118.098 5.45 117.748 4.638 117.748 3.644C117.748 2.552 118.126 1.684 118.882 1.04C119.638 0.395999 120.646 0.0739993 121.892 0.0739993C124.412 0.0739993 125.938 1.838 125.938 4.918ZM124.468 3.602C124.258 2.3 123.362 1.278 121.752 1.278C120.072 1.278 119.036 2.146 119.036 3.602C119.036 4.988 120.086 5.8 121.724 5.8C122.466 5.8 123.096 5.576 123.586 5.128C124.076 4.68 124.37 4.176 124.468 3.602ZM126.988 5.1C126.988 3.588 127.338 2.37 128.052 1.46C128.752 0.55 129.788 0.0879999 131.146 0.0879999C133.932 0.0879999 135.318 1.922 135.318 5.1C135.318 6.626 134.968 7.83 134.282 8.74C133.582 9.65 132.546 10.112 131.174 10.112C129.858 10.112 128.836 9.65 128.094 8.726C127.352 7.802 126.988 6.598 126.988 5.1ZM128.276 5.1C128.276 7.494 129.368 8.922 131.174 8.922C133.078 8.922 134.03 7.648 134.03 5.1C134.03 2.552 133.064 1.278 131.146 1.278C129.2 1.278 128.276 2.678 128.276 5.1Z" fill="#1A3341"/>
<path d="M98.863 143.372L97.987 143.06C98.287 141.572 99.415 140.504 101.203 140.504C102.931 140.504 103.987 141.5 103.987 143.024C103.987 143.828 103.639 144.632 103.207 145.208C102.991 145.508 102.715 145.796 102.391 146.096C101.731 146.684 101.263 146.996 100.579 147.428L99.655 148.004H104.299V149H97.759V148.184L99.583 146.972C99.907 146.768 100.135 146.612 100.267 146.516C100.399 146.432 100.615 146.276 100.903 146.072C101.191 145.868 101.407 145.688 101.551 145.556C101.683 145.424 101.863 145.256 102.067 145.04C102.619 144.44 102.823 143.888 102.883 143.132C102.883 142.04 102.175 141.548 101.131 141.548C100.483 141.548 99.967 141.728 99.595 142.088C99.223 142.448 98.971 142.88 98.863 143.372ZM105.131 144.8C105.131 143.504 105.431 142.46 106.043 141.68C106.643 140.9 107.531 140.504 108.695 140.504C111.083 140.504 112.271 142.076 112.271 144.8C112.271 146.108 111.971 147.14 111.383 147.92C110.783 148.7 109.895 149.096 108.719 149.096C107.591 149.096 106.715 148.7 106.079 147.908C105.443 147.116 105.131 146.084 105.131 144.8ZM106.235 144.8C106.235 146.852 107.171 148.076 108.719 148.076C110.351 148.076 111.167 146.984 111.167 144.8C111.167 142.616 110.339 141.524 108.695 141.524C107.027 141.524 106.235 142.724 106.235 144.8ZM114.127 143.372L113.251 143.06C113.551 141.572 114.679 140.504 116.467 140.504C118.195 140.504 119.251 141.5 119.251 143.024C119.251 143.828 118.903 144.632 118.471 145.208C118.255 145.508 117.979 145.796 117.655 146.096C116.995 146.684 116.527 146.996 115.843 147.428L114.919 148.004H119.563V149H113.023V148.184L114.847 146.972C115.171 146.768 115.399 146.612 115.531 146.516C115.663 146.432 115.879 146.276 116.167 146.072C116.455 145.868 116.671 145.688 116.815 145.556C116.947 145.424 117.127 145.256 117.331 145.04C117.883 144.44 118.087 143.888 118.147 143.132C118.147 142.04 117.439 141.548 116.395 141.548C115.747 141.548 115.231 141.728 114.859 142.088C114.487 142.448 114.235 142.88 114.127 143.372ZM120.299 142.832L119.915 141.932L122.795 140.552H123.479V149H122.447V141.836L120.299 142.832Z" fill="#1A3341" fill-opacity="0.6"/>
<path d="M83 22C83 20.8954 83.8954 20 85 20H137C138.105 20 139 20.8954 139 22V134H83V22Z" fill="url(#paint3_linear_4002_9569)"/>
<path opacity="0.2" d="M95 20H127V134H95V20Z" fill="url(#paint4_linear_4002_9569)"/>
<path opacity="0.04" d="M127 20H137C138.105 20 139 20.8954 139 22V134H127V20Z" fill="#0D262C"/>
<path opacity="0.5" d="M83 22C83 20.8954 83.8954 20 85 20H95V134H83V22Z" fill="url(#paint5_linear_4002_9569)"/>
<path d="M352.046 30H350.828V27.998H344.836V27.186L350.968 20.2H352.046V26.864H353.866V27.998H352.046V30ZM350.828 22.16L346.516 26.864H350.828V22.16ZM360.164 21.39H354.228V20.2H361.662V20.998L356.79 30H355.46L360.164 21.39ZM367.894 25.492L366.886 25.226L367.46 20.2H373.62V21.39H368.538L368.174 24.022C368.664 23.658 369.406 23.476 370.4 23.476C371.548 23.476 372.444 23.784 373.102 24.386C373.746 25.002 374.068 25.786 374.068 26.752C374.068 27.718 373.704 28.53 372.99 29.16C372.262 29.804 371.352 30.126 370.274 30.126C368.44 30.126 366.914 29.258 366.284 27.732L367.404 27.256C367.81 28.194 368.86 28.936 370.274 28.936C371.884 28.936 372.78 28.012 372.78 26.794C372.78 25.492 371.73 24.652 370.064 24.652C369.168 24.652 368.44 24.932 367.894 25.492ZM381.892 30H380.674V27.998H374.682V27.186L380.814 20.2H381.892V26.864H383.712V27.998H381.892V30ZM380.674 22.16L376.362 26.864H380.674V22.16ZM384.285 22.804L383.837 21.754L387.197 20.144H387.995V30H386.791V21.642L384.285 22.804Z" fill="#1A3341"/>
<path d="M353.527 143.372L352.651 143.06C352.951 141.572 354.079 140.504 355.867 140.504C357.595 140.504 358.651 141.5 358.651 143.024C358.651 143.828 358.303 144.632 357.871 145.208C357.655 145.508 357.379 145.796 357.055 146.096C356.395 146.684 355.927 146.996 355.243 147.428L354.319 148.004H358.963V149H352.423V148.184L354.247 146.972C354.571 146.768 354.799 146.612 354.931 146.516C355.063 146.432 355.279 146.276 355.567 146.072C355.855 145.868 356.071 145.688 356.215 145.556C356.347 145.424 356.527 145.256 356.731 145.04C357.283 144.44 357.487 143.888 357.547 143.132C357.547 142.04 356.839 141.548 355.795 141.548C355.147 141.548 354.631 141.728 354.259 142.088C353.887 142.448 353.635 142.88 353.527 143.372ZM359.795 144.8C359.795 143.504 360.095 142.46 360.707 141.68C361.307 140.9 362.195 140.504 363.359 140.504C365.747 140.504 366.935 142.076 366.935 144.8C366.935 146.108 366.635 147.14 366.047 147.92C365.447 148.7 364.559 149.096 363.383 149.096C362.255 149.096 361.379 148.7 360.743 147.908C360.107 147.116 359.795 146.084 359.795 144.8ZM360.899 144.8C360.899 146.852 361.835 148.076 363.383 148.076C365.015 148.076 365.831 146.984 365.831 144.8C365.831 142.616 365.003 141.524 363.359 141.524C361.691 141.524 360.899 142.724 360.899 144.8ZM368.791 143.372L367.915 143.06C368.215 141.572 369.343 140.504 371.131 140.504C372.859 140.504 373.915 141.5 373.915 143.024C373.915 143.828 373.567 144.632 373.135 145.208C372.919 145.508 372.643 145.796 372.319 146.096C371.659 146.684 371.191 146.996 370.507 147.428L369.583 148.004H374.227V149H367.687V148.184L369.511 146.972C369.835 146.768 370.063 146.612 370.195 146.516C370.327 146.432 370.543 146.276 370.831 146.072C371.119 145.868 371.335 145.688 371.479 145.556C371.611 145.424 371.791 145.256 371.995 145.04C372.547 144.44 372.751 143.888 372.811 143.132C372.811 142.04 372.103 141.548 371.059 141.548C370.411 141.548 369.895 141.728 369.523 142.088C369.151 142.448 368.899 142.88 368.791 143.372ZM375.887 143.048L374.987 142.64C375.431 141.344 376.595 140.492 378.335 140.492C379.163 140.492 379.847 140.684 380.375 141.068C380.903 141.452 381.167 141.968 381.167 142.604C381.167 143.576 380.651 144.296 379.691 144.572C380.615 144.632 381.359 145.328 381.359 146.576C381.359 147.368 381.071 147.992 380.495 148.436C379.919 148.88 379.187 149.108 378.287 149.108C376.451 149.108 375.179 148.232 374.759 146.852L375.731 146.432C376.247 147.524 377.123 148.076 378.359 148.076C379.523 148.076 380.255 147.536 380.255 146.588C380.255 145.664 379.535 145.196 378.095 145.196H377.159V144.2H377.903C379.211 144.2 380.063 143.612 380.063 142.808C380.063 141.98 379.379 141.512 378.287 141.512C377.003 141.512 376.223 142.172 375.887 143.048Z" fill="#1A3341" fill-opacity="0.6"/>
<path d="M339 42C339 40.8954 339.895 40 341 40H393C394.105 40 395 40.8954 395 42V134H339V42Z" fill="url(#paint6_linear_4002_9569)"/>
<path opacity="0.2" d="M351 40H383V134H351V40Z" fill="url(#paint7_linear_4002_9569)"/>
<path opacity="0.04" d="M383 40H393C394.105 40 395 40.8954 395 42V134H383V40Z" fill="#0D262C"/>
<path opacity="0.5" d="M339 42C339 40.8954 339.895 40 341 40H351V134H339V42Z" fill="url(#paint8_linear_4002_9569)"/>
<path d="M163.308 9.136H157.74V8.236H163.308V9.136ZM170.258 13H164.846V12.004H167.402V5.836L165.254 6.832L164.87 5.932L167.75 4.552H168.434V12.004H170.258V13ZM171.634 9.028C171.634 7.576 171.958 6.448 172.606 5.668C173.254 4.888 174.094 4.492 175.126 4.492C176.446 4.492 177.358 5.044 177.862 6.136L177.046 6.688C176.554 5.908 176.038 5.524 175.078 5.524C173.626 5.524 172.69 6.712 172.702 8.788C173.206 7.852 174.046 7.384 175.222 7.384C177.142 7.384 178.15 8.464 178.15 10.192C178.15 11.056 177.862 11.752 177.286 12.292C176.698 12.832 175.966 13.108 175.066 13.108C172.954 13.108 171.634 11.62 171.634 9.028ZM172.834 10.048C173.098 11.404 173.842 12.076 175.054 12.076C176.314 12.076 177.046 11.356 177.046 10.24C177.046 9.028 176.422 8.416 175.162 8.416C173.77 8.416 173.014 9.172 172.834 10.048ZM180.977 13.18L180.185 12.724L186.389 4.336L187.145 4.888L180.977 13.18ZM178.889 6.616C178.889 6.016 179.093 5.524 179.513 5.14C179.933 4.756 180.449 4.564 181.085 4.564C181.709 4.564 182.225 4.756 182.645 5.14C183.065 5.524 183.269 6.016 183.269 6.616C183.269 7.204 183.065 7.696 182.645 8.08C182.225 8.464 181.709 8.656 181.085 8.656C180.449 8.656 179.933 8.464 179.513 8.08C179.093 7.696 178.889 7.204 178.889 6.616ZM179.897 6.616C179.897 7.3 180.449 7.804 181.085 7.804C181.745 7.804 182.261 7.324 182.261 6.616C182.261 5.908 181.721 5.428 181.085 5.428C180.425 5.428 179.897 5.908 179.897 6.616ZM184.661 12.472C184.241 12.088 184.037 11.596 184.037 10.996C184.037 10.396 184.241 9.904 184.661 9.52C185.081 9.148 185.597 8.956 186.233 8.956C186.857 8.956 187.373 9.148 187.793 9.52C188.213 9.904 188.417 10.396 188.417 10.996C188.417 11.584 188.213 12.076 187.793 12.46C187.373 12.856 186.857 13.048 186.233 13.048C185.597 13.048 185.081 12.856 184.661 12.472ZM185.045 10.996C185.045 11.68 185.597 12.184 186.233 12.184C186.893 12.184 187.409 11.704 187.409 10.996C187.409 10.288 186.869 9.808 186.233 9.808C185.573 9.808 185.045 10.288 185.045 10.996Z" fill="#7DA4C1"/>
<path d="M200.747 22.3536C200.943 22.1583 200.943 21.8417 200.747 21.6465L197.566 18.4645C197.37 18.2692 197.054 18.2692 196.858 18.4645C196.663 18.6597 196.663 18.9763 196.858 19.1716L199.687 22L196.858 24.8284C196.663 25.0237 196.663 25.3403 196.858 25.5355C197.054 25.7308 197.37 25.7308 197.566 25.5355L200.747 22.3536ZM149 22.5L200.394 22.5L200.394 21.5L149 21.5L149 22.5Z" fill="#7DA4C1"/>
<path d="M288.996 9.136H283.428V8.236H288.996V9.136ZM290.054 8.8C290.054 7.504 290.33 6.46 290.87 5.68C291.41 4.9 292.202 4.504 293.258 4.504C295.406 4.504 296.474 6.076 296.474 8.8C296.474 10.108 296.21 11.14 295.67 11.92C295.13 12.7 294.338 13.096 293.282 13.096C292.262 13.096 291.47 12.7 290.906 11.908C290.342 11.116 290.054 10.084 290.054 8.8ZM291.158 8.8C291.158 10.828 291.95 12.076 293.282 12.076C294.674 12.076 295.37 10.984 295.37 8.8C295.37 6.616 294.662 5.524 293.258 5.524C291.854 5.524 291.158 6.616 291.158 8.8ZM298.185 13C297.741 13.048 297.405 12.796 297.405 12.364C297.405 11.944 297.669 11.68 298.137 11.68C298.665 11.68 299.013 12.04 299.013 12.712C299.013 13.912 298.353 14.524 297.477 14.728L297.225 14.164C297.489 14.092 297.729 13.948 297.945 13.72C298.149 13.492 298.233 13.252 298.185 13ZM301.23 9.136L300.366 8.908L300.858 4.6H306.138V5.62H301.782L301.47 7.876C301.89 7.564 302.526 7.408 303.378 7.408C304.362 7.408 305.13 7.672 305.694 8.188C306.246 8.716 306.522 9.388 306.522 10.216C306.522 11.044 306.21 11.74 305.598 12.28C304.974 12.832 304.194 13.108 303.27 13.108C301.698 13.108 300.39 12.364 299.85 11.056L300.81 10.648C301.158 11.452 302.058 12.088 303.27 12.088C304.65 12.088 305.418 11.296 305.418 10.252C305.418 9.136 304.518 8.416 303.09 8.416C302.322 8.416 301.698 8.656 301.23 9.136ZM309.29 13.18L308.498 12.724L314.702 4.336L315.458 4.888L309.29 13.18ZM307.202 6.616C307.202 6.016 307.406 5.524 307.826 5.14C308.246 4.756 308.762 4.564 309.398 4.564C310.022 4.564 310.538 4.756 310.958 5.14C311.378 5.524 311.582 6.016 311.582 6.616C311.582 7.204 311.378 7.696 310.958 8.08C310.538 8.464 310.022 8.656 309.398 8.656C308.762 8.656 308.246 8.464 307.826 8.08C307.406 7.696 307.202 7.204 307.202 6.616ZM308.21 6.616C308.21 7.3 308.762 7.804 309.398 7.804C310.058 7.804 310.574 7.324 310.574 6.616C310.574 5.908 310.034 5.428 309.398 5.428C308.738 5.428 308.21 5.908 308.21 6.616ZM312.974 12.472C312.554 12.088 312.35 11.596 312.35 10.996C312.35 10.396 312.554 9.904 312.974 9.52C313.394 9.148 313.91 8.956 314.546 8.956C315.17 8.956 315.686 9.148 316.106 9.52C316.526 9.904 316.73 10.396 316.73 10.996C316.73 11.584 316.526 12.076 316.106 12.46C315.686 12.856 315.17 13.048 314.546 13.048C313.91 13.048 313.394 12.856 312.974 12.472ZM313.358 10.996C313.358 11.68 313.91 12.184 314.546 12.184C315.206 12.184 315.722 11.704 315.722 10.996C315.722 10.288 315.182 9.808 314.546 9.808C313.886 9.808 313.358 10.288 313.358 10.996Z" fill="#7DA4C1"/>
<path d="M327.778 22.3536C327.973 22.1583 327.973 21.8417 327.778 21.6464L324.596 18.4645C324.401 18.2692 324.084 18.2692 323.889 18.4645C323.693 18.6597 323.693 18.9763 323.889 19.1716L326.717 22L323.889 24.8284C323.693 25.0237 323.693 25.3403 323.889 25.5355C324.084 25.7308 324.401 25.7308 324.596 25.5355L327.778 22.3536ZM277 22.5L327.424 22.5L327.424 21.5L277 21.5L277 22.5Z" fill="#7DA4C1"/>
<defs>
<linearGradient id="paint0_linear_4002_9569" x1="239" y1="38" x2="239" y2="134" gradientUnits="userSpaceOnUse">
<stop stop-color="#45B8DB"/>
<stop offset="1" stop-color="#ADE4E4"/>
</linearGradient>
<linearGradient id="paint1_linear_4002_9569" x1="239" y1="38" x2="239" y2="134" gradientUnits="userSpaceOnUse">
<stop stop-color="white" stop-opacity="0"/>
<stop offset="0.739583" stop-color="white"/>
</linearGradient>
<linearGradient id="paint2_linear_4002_9569" x1="217" y1="-149.2" x2="217" y2="134" gradientUnits="userSpaceOnUse">
<stop stop-color="white" stop-opacity="0.05"/>
<stop offset="0.75" stop-color="white" stop-opacity="0.8"/>
</linearGradient>
<linearGradient id="paint3_linear_4002_9569" x1="111" y1="20" x2="111" y2="134" gradientUnits="userSpaceOnUse">
<stop stop-color="#45B8DB"/>
<stop offset="1" stop-color="#ADE4E4"/>
</linearGradient>
<linearGradient id="paint4_linear_4002_9569" x1="111" y1="20" x2="111" y2="134" gradientUnits="userSpaceOnUse">
<stop stop-color="white" stop-opacity="0"/>
<stop offset="0.739583" stop-color="white"/>
</linearGradient>
<linearGradient id="paint5_linear_4002_9569" x1="89" y1="-202.3" x2="89" y2="134" gradientUnits="userSpaceOnUse">
<stop stop-color="white" stop-opacity="0.05"/>
<stop offset="0.75" stop-color="white" stop-opacity="0.8"/>
</linearGradient>
<linearGradient id="paint6_linear_4002_9569" x1="367" y1="40" x2="367" y2="134" gradientUnits="userSpaceOnUse">
<stop stop-color="#45B8DB"/>
<stop offset="1" stop-color="#ADE4E4"/>
</linearGradient>
<linearGradient id="paint7_linear_4002_9569" x1="367" y1="40" x2="367" y2="134" gradientUnits="userSpaceOnUse">
<stop stop-color="white" stop-opacity="0"/>
<stop offset="0.739583" stop-color="white"/>
</linearGradient>
<linearGradient id="paint8_linear_4002_9569" x1="345" y1="-143.3" x2="345" y2="134" gradientUnits="userSpaceOnUse">
<stop stop-color="white" stop-opacity="0.05"/>
<stop offset="0.75" stop-color="white" stop-opacity="0.8"/>
</linearGradient>
</defs>
</svg>
