<svg width="335" height="243" viewBox="0 0 335 243" fill="none" xmlns="http://www.w3.org/2000/svg">
<path d="M19.1398 90.366C19.1398 88.672 19.5598 87.37 20.3858 86.446C21.2118 85.536 22.2478 85.074 23.4938 85.074C25.1318 85.074 26.4198 85.816 26.9658 86.992L26.0138 87.636C25.4398 86.726 24.5858 86.278 23.4378 86.278C22.5698 86.278 21.8418 86.614 21.2538 87.286C20.6658 87.972 20.3718 88.896 20.3858 90.086C20.9318 89.064 22.2058 88.448 23.6058 88.448C24.7398 88.448 25.6498 88.742 26.3078 89.344C26.9658 89.946 27.3018 90.744 27.3018 91.724C27.3018 92.718 26.9378 93.544 26.1958 94.174C25.4538 94.804 24.5298 95.126 23.4238 95.126C20.7778 95.126 19.1398 93.404 19.1398 90.366ZM20.5398 91.556C20.8058 92.942 21.8558 93.922 23.4098 93.922C24.1658 93.922 24.7958 93.726 25.2858 93.32C25.7758 92.928 26.0138 92.41 26.0138 91.78C26.0138 90.394 25.0338 89.652 23.5358 89.652C22.7098 89.652 22.0238 89.848 21.4918 90.24C20.9458 90.632 20.6378 91.066 20.5398 91.556ZM37.9816 86.39H32.0456V85.2H39.4796V85.998L34.6076 95H33.2776L37.9816 86.39ZM48.3737 89.918C48.3737 91.584 47.9817 92.872 47.1837 93.768C46.3857 94.678 45.3217 95.126 43.9917 95.126C42.3677 95.126 41.0937 94.44 40.4637 93.39L41.4717 92.69C42.0317 93.474 43.0537 93.922 44.1597 93.922C45.0697 93.922 45.7977 93.558 46.3717 92.83C46.9457 92.116 47.1837 91.22 47.1137 90.156C46.6517 91.22 45.4897 92.004 43.9357 92.004C42.8437 92.004 41.9477 91.696 41.2477 91.066C40.5337 90.45 40.1837 89.638 40.1837 88.644C40.1837 87.552 40.5617 86.684 41.3177 86.04C42.0737 85.396 43.0817 85.074 44.3277 85.074C46.8477 85.074 48.3737 86.838 48.3737 89.918ZM46.9037 88.602C46.6937 87.3 45.7977 86.278 44.1877 86.278C42.5077 86.278 41.4717 87.146 41.4717 88.602C41.4717 89.988 42.5217 90.8 44.1597 90.8C44.9017 90.8 45.5317 90.576 46.0217 90.128C46.5117 89.68 46.8057 89.176 46.9037 88.602ZM50.3896 88.056L49.3396 87.58C49.8576 86.068 51.2156 85.074 53.2456 85.074C54.2116 85.074 55.0096 85.298 55.6256 85.746C56.2416 86.194 56.5496 86.796 56.5496 87.538C56.5496 88.672 55.9476 89.512 54.8276 89.834C55.9056 89.904 56.7736 90.716 56.7736 92.172C56.7736 93.096 56.4376 93.824 55.7656 94.342C55.0936 94.86 54.2396 95.126 53.1896 95.126C51.0476 95.126 49.5636 94.104 49.0736 92.494L50.2076 92.004C50.8096 93.278 51.8316 93.922 53.2736 93.922C54.6316 93.922 55.4856 93.292 55.4856 92.186C55.4856 91.108 54.6456 90.562 52.9656 90.562H51.8736V89.4H52.7416C54.2676 89.4 55.2616 88.714 55.2616 87.776C55.2616 86.81 54.4636 86.264 53.1896 86.264C51.6916 86.264 50.7816 87.034 50.3896 88.056Z" fill="#1A3341"/>
<path d="M25.863 236.372L24.987 236.06C25.287 234.572 26.415 233.504 28.203 233.504C29.931 233.504 30.987 234.5 30.987 236.024C30.987 236.828 30.639 237.632 30.207 238.208C29.991 238.508 29.715 238.796 29.391 239.096C28.731 239.684 28.263 239.996 27.579 240.428L26.655 241.004H31.299V242H24.759V241.184L26.583 239.972C26.907 239.768 27.135 239.612 27.267 239.516C27.399 239.432 27.615 239.276 27.903 239.072C28.191 238.868 28.407 238.688 28.551 238.556C28.683 238.424 28.863 238.256 29.067 238.04C29.619 237.44 29.823 236.888 29.883 236.132C29.883 235.04 29.175 234.548 28.131 234.548C27.483 234.548 26.967 234.728 26.595 235.088C26.223 235.448 25.971 235.88 25.863 236.372ZM32.1307 237.8C32.1307 236.504 32.4307 235.46 33.0427 234.68C33.6427 233.9 34.5307 233.504 35.6947 233.504C38.0827 233.504 39.2707 235.076 39.2707 237.8C39.2707 239.108 38.9707 240.14 38.3827 240.92C37.7827 241.7 36.8947 242.096 35.7187 242.096C34.5907 242.096 33.7147 241.7 33.0787 240.908C32.4427 240.116 32.1307 239.084 32.1307 237.8ZM33.2347 237.8C33.2347 239.852 34.1707 241.076 35.7187 241.076C37.3507 241.076 38.1667 239.984 38.1667 237.8C38.1667 235.616 37.3387 234.524 35.6947 234.524C34.0267 234.524 33.2347 235.724 33.2347 237.8ZM41.1269 236.372L40.2509 236.06C40.5509 234.572 41.6789 233.504 43.4669 233.504C45.1949 233.504 46.2509 234.5 46.2509 236.024C46.2509 236.828 45.9029 237.632 45.4709 238.208C45.2549 238.508 44.9789 238.796 44.6549 239.096C43.9949 239.684 43.5269 239.996 42.8429 240.428L41.9189 241.004H46.5629V242H40.0229V241.184L41.8469 239.972C42.1709 239.768 42.3989 239.612 42.5309 239.516C42.6629 239.432 42.8789 239.276 43.1669 239.072C43.4549 238.868 43.6709 238.688 43.8149 238.556C43.9469 238.424 44.1269 238.256 44.3309 238.04C44.8829 237.44 45.0869 236.888 45.1469 236.132C45.1469 235.04 44.4389 234.548 43.3949 234.548C42.7469 234.548 42.2309 234.728 41.8589 235.088C41.4869 235.448 41.2349 235.88 41.1269 236.372ZM47.2986 235.832L46.9146 234.932L49.7946 233.552H50.4786V242H49.4466V234.836L47.2986 235.832Z" fill="#1A3341" fill-opacity="0.6"/>
<path d="M10 107C10 105.895 10.8954 105 12 105H64C65.1046 105 66 105.895 66 107V227H10V107Z" fill="url(#paint0_linear_6004_39831)"/>
<path opacity="0.2" d="M22 105H54V227H22V105Z" fill="url(#paint1_linear_6004_39831)"/>
<path opacity="0.04" d="M54 105H64C65.1046 105 66 105.895 66 107V227H54V105Z" fill="#0D262C"/>
<path opacity="0.5" d="M10 107C10 105.895 10.8954 105 12 105H22V227H10V107Z" fill="url(#paint2_linear_6004_39831)"/>
<path d="M144.008 103.366C144.008 101.672 144.428 100.37 145.254 99.446C146.08 98.536 147.116 98.074 148.362 98.074C150 98.074 151.288 98.816 151.834 99.992L150.882 100.636C150.308 99.726 149.454 99.278 148.306 99.278C147.438 99.278 146.71 99.614 146.122 100.286C145.534 100.972 145.24 101.896 145.254 103.086C145.8 102.064 147.074 101.448 148.474 101.448C149.608 101.448 150.518 101.742 151.176 102.344C151.834 102.946 152.17 103.744 152.17 104.724C152.17 105.718 151.806 106.544 151.064 107.174C150.322 107.804 149.398 108.126 148.292 108.126C145.646 108.126 144.008 106.404 144.008 103.366ZM145.408 104.556C145.674 105.942 146.724 106.922 148.278 106.922C149.034 106.922 149.664 106.726 150.154 106.32C150.644 105.928 150.882 105.41 150.882 104.78C150.882 103.394 149.902 102.652 148.404 102.652C147.578 102.652 146.892 102.848 146.36 103.24C145.814 103.632 145.506 104.066 145.408 104.556ZM163.998 108H162.78V105.998H156.788V105.186L162.92 98.2H163.998V104.864H165.818V105.998H163.998V108ZM162.78 100.16L158.468 104.864H162.78V100.16ZM166.502 103.366C166.502 101.672 166.922 100.37 167.748 99.446C168.574 98.536 169.61 98.074 170.856 98.074C172.494 98.074 173.782 98.816 174.328 99.992L173.376 100.636C172.802 99.726 171.948 99.278 170.8 99.278C169.932 99.278 169.204 99.614 168.616 100.286C168.028 100.972 167.734 101.896 167.748 103.086C168.294 102.064 169.568 101.448 170.968 101.448C172.102 101.448 173.012 101.742 173.67 102.344C174.328 102.946 174.664 103.744 174.664 104.724C174.664 105.718 174.3 106.544 173.558 107.174C172.816 107.804 171.892 108.126 170.786 108.126C168.14 108.126 166.502 106.404 166.502 103.366ZM167.902 104.556C168.168 105.942 169.218 106.922 170.772 106.922C171.528 106.922 172.158 106.726 172.648 106.32C173.138 105.928 173.376 105.41 173.376 104.78C173.376 103.394 172.396 102.652 170.898 102.652C170.072 102.652 169.386 102.848 168.854 103.24C168.308 103.632 168 104.066 167.902 104.556ZM175.561 100.804L175.113 99.754L178.473 98.144H179.271V108H178.067V99.642L175.561 100.804Z" fill="#1A3341"/>
<path d="M148.556 236.372L147.68 236.06C147.98 234.572 149.108 233.504 150.896 233.504C152.624 233.504 153.68 234.5 153.68 236.024C153.68 236.828 153.332 237.632 152.9 238.208C152.684 238.508 152.408 238.796 152.084 239.096C151.424 239.684 150.956 239.996 150.272 240.428L149.348 241.004H153.992V242H147.452V241.184L149.276 239.972C149.6 239.768 149.828 239.612 149.96 239.516C150.092 239.432 150.308 239.276 150.596 239.072C150.884 238.868 151.1 238.688 151.244 238.556C151.376 238.424 151.556 238.256 151.76 238.04C152.312 237.44 152.516 236.888 152.576 236.132C152.576 235.04 151.868 234.548 150.824 234.548C150.176 234.548 149.66 234.728 149.288 235.088C148.916 235.448 148.664 235.88 148.556 236.372ZM154.824 237.8C154.824 236.504 155.124 235.46 155.736 234.68C156.336 233.9 157.224 233.504 158.388 233.504C160.776 233.504 161.964 235.076 161.964 237.8C161.964 239.108 161.664 240.14 161.076 240.92C160.476 241.7 159.588 242.096 158.412 242.096C157.284 242.096 156.408 241.7 155.772 240.908C155.136 240.116 154.824 239.084 154.824 237.8ZM155.928 237.8C155.928 239.852 156.864 241.076 158.412 241.076C160.044 241.076 160.86 239.984 160.86 237.8C160.86 235.616 160.032 234.524 158.388 234.524C156.72 234.524 155.928 235.724 155.928 237.8ZM163.82 236.372L162.944 236.06C163.244 234.572 164.372 233.504 166.16 233.504C167.888 233.504 168.944 234.5 168.944 236.024C168.944 236.828 168.596 237.632 168.164 238.208C167.948 238.508 167.672 238.796 167.348 239.096C166.688 239.684 166.22 239.996 165.536 240.428L164.612 241.004H169.256V242H162.716V241.184L164.54 239.972C164.864 239.768 165.092 239.612 165.224 239.516C165.356 239.432 165.572 239.276 165.86 239.072C166.148 238.868 166.364 238.688 166.508 238.556C166.64 238.424 166.82 238.256 167.024 238.04C167.576 237.44 167.78 236.888 167.84 236.132C167.84 235.04 167.132 234.548 166.088 234.548C165.44 234.548 164.924 234.728 164.552 235.088C164.18 235.448 163.928 235.88 163.82 236.372ZM171.048 236.372L170.172 236.06C170.472 234.572 171.6 233.504 173.388 233.504C175.116 233.504 176.172 234.5 176.172 236.024C176.172 236.828 175.824 237.632 175.392 238.208C175.176 238.508 174.9 238.796 174.576 239.096C173.916 239.684 173.448 239.996 172.764 240.428L171.84 241.004H176.484V242H169.944V241.184L171.768 239.972C172.092 239.768 172.32 239.612 172.452 239.516C172.584 239.432 172.8 239.276 173.088 239.072C173.376 238.868 173.592 238.688 173.736 238.556C173.868 238.424 174.048 238.256 174.252 238.04C174.804 237.44 175.008 236.888 175.068 236.132C175.068 235.04 174.36 234.548 173.316 234.548C172.668 234.548 172.152 234.728 171.78 235.088C171.408 235.448 171.156 235.88 171.048 236.372Z" fill="#1A3341" fill-opacity="0.6"/>
<path d="M134 120C134 118.895 134.895 118 136 118H188C189.105 118 190 118.895 190 120V227H134V120Z" fill="url(#paint3_linear_6004_39831)"/>
<path opacity="0.2" d="M146 118H178V227H146V118Z" fill="url(#paint4_linear_6004_39831)"/>
<path opacity="0.04" d="M178 118H188C189.105 118 190 118.895 190 120V227H178V118Z" fill="#0D262C"/>
<path opacity="0.5" d="M134 120C134 118.895 134.895 118 136 118H146V227H134V120Z" fill="url(#paint5_linear_6004_39831)"/>
<path d="M266.265 109.366C266.265 107.672 266.685 106.37 267.511 105.446C268.337 104.536 269.373 104.074 270.619 104.074C272.257 104.074 273.545 104.816 274.091 105.992L273.139 106.636C272.565 105.726 271.711 105.278 270.563 105.278C269.695 105.278 268.967 105.614 268.379 106.286C267.791 106.972 267.497 107.896 267.511 109.086C268.057 108.064 269.331 107.448 270.731 107.448C271.865 107.448 272.775 107.742 273.433 108.344C274.091 108.946 274.427 109.744 274.427 110.724C274.427 111.718 274.063 112.544 273.321 113.174C272.579 113.804 271.655 114.126 270.549 114.126C267.903 114.126 266.265 112.404 266.265 109.366ZM267.665 110.556C267.931 111.942 268.981 112.922 270.535 112.922C271.291 112.922 271.921 112.726 272.411 112.32C272.901 111.928 273.139 111.41 273.139 110.78C273.139 109.394 272.159 108.652 270.661 108.652C269.835 108.652 269.149 108.848 268.617 109.24C268.071 109.632 267.763 110.066 267.665 110.556ZM286.255 114H285.037V111.998H279.045V111.186L285.177 104.2H286.255V110.864H288.075V111.998H286.255V114ZM285.037 106.16L280.725 110.864H285.037V106.16ZM290.187 109.492L289.179 109.226L289.753 104.2H295.913V105.39H290.831L290.467 108.022C290.957 107.658 291.699 107.476 292.693 107.476C293.841 107.476 294.737 107.784 295.395 108.386C296.039 109.002 296.361 109.786 296.361 110.752C296.361 111.718 295.997 112.53 295.283 113.16C294.555 113.804 293.645 114.126 292.567 114.126C290.733 114.126 289.207 113.258 288.577 111.732L289.697 111.256C290.103 112.194 291.153 112.936 292.567 112.936C294.177 112.936 295.073 112.012 295.073 110.794C295.073 109.492 294.023 108.652 292.357 108.652C291.461 108.652 290.733 108.932 290.187 109.492ZM297.424 109.1C297.424 107.588 297.774 106.37 298.488 105.46C299.188 104.55 300.224 104.088 301.582 104.088C304.368 104.088 305.754 105.922 305.754 109.1C305.754 110.626 305.404 111.83 304.718 112.74C304.018 113.65 302.982 114.112 301.61 114.112C300.294 114.112 299.272 113.65 298.53 112.726C297.788 111.802 297.424 110.598 297.424 109.1ZM298.712 109.1C298.712 111.494 299.804 112.922 301.61 112.922C303.514 112.922 304.466 111.648 304.466 109.1C304.466 106.552 303.5 105.278 301.582 105.278C299.636 105.278 298.712 106.678 298.712 109.1Z" fill="#1A3341"/>
<path d="M272.527 236.372L271.651 236.06C271.951 234.572 273.079 233.504 274.867 233.504C276.595 233.504 277.651 234.5 277.651 236.024C277.651 236.828 277.303 237.632 276.871 238.208C276.655 238.508 276.379 238.796 276.055 239.096C275.395 239.684 274.927 239.996 274.243 240.428L273.319 241.004H277.963V242H271.423V241.184L273.247 239.972C273.571 239.768 273.799 239.612 273.931 239.516C274.063 239.432 274.279 239.276 274.567 239.072C274.855 238.868 275.071 238.688 275.215 238.556C275.347 238.424 275.527 238.256 275.731 238.04C276.283 237.44 276.487 236.888 276.547 236.132C276.547 235.04 275.839 234.548 274.795 234.548C274.147 234.548 273.631 234.728 273.259 235.088C272.887 235.448 272.635 235.88 272.527 236.372ZM278.795 237.8C278.795 236.504 279.095 235.46 279.707 234.68C280.307 233.9 281.195 233.504 282.359 233.504C284.747 233.504 285.935 235.076 285.935 237.8C285.935 239.108 285.635 240.14 285.047 240.92C284.447 241.7 283.559 242.096 282.383 242.096C281.255 242.096 280.379 241.7 279.743 240.908C279.107 240.116 278.795 239.084 278.795 237.8ZM279.899 237.8C279.899 239.852 280.835 241.076 282.383 241.076C284.015 241.076 284.831 239.984 284.831 237.8C284.831 235.616 284.003 234.524 282.359 234.524C280.691 234.524 279.899 235.724 279.899 237.8ZM287.791 236.372L286.915 236.06C287.215 234.572 288.343 233.504 290.131 233.504C291.859 233.504 292.915 234.5 292.915 236.024C292.915 236.828 292.567 237.632 292.135 238.208C291.919 238.508 291.643 238.796 291.319 239.096C290.659 239.684 290.191 239.996 289.507 240.428L288.583 241.004H293.227V242H286.687V241.184L288.511 239.972C288.835 239.768 289.063 239.612 289.195 239.516C289.327 239.432 289.543 239.276 289.831 239.072C290.119 238.868 290.335 238.688 290.479 238.556C290.611 238.424 290.791 238.256 290.995 238.04C291.547 237.44 291.751 236.888 291.811 236.132C291.811 235.04 291.103 234.548 290.059 234.548C289.411 234.548 288.895 234.728 288.523 235.088C288.151 235.448 287.899 235.88 287.791 236.372ZM294.887 236.048L293.987 235.64C294.431 234.344 295.595 233.492 297.335 233.492C298.163 233.492 298.847 233.684 299.375 234.068C299.903 234.452 300.167 234.968 300.167 235.604C300.167 236.576 299.651 237.296 298.691 237.572C299.615 237.632 300.359 238.328 300.359 239.576C300.359 240.368 300.071 240.992 299.495 241.436C298.919 241.88 298.187 242.108 297.287 242.108C295.451 242.108 294.179 241.232 293.759 239.852L294.731 239.432C295.247 240.524 296.123 241.076 297.359 241.076C298.523 241.076 299.255 240.536 299.255 239.588C299.255 238.664 298.535 238.196 297.095 238.196H296.159V237.2H296.903C298.211 237.2 299.063 236.612 299.063 235.808C299.063 234.98 298.379 234.512 297.287 234.512C296.003 234.512 295.223 235.172 294.887 236.048Z" fill="#1A3341" fill-opacity="0.6"/>
<path d="M258 126C258 124.895 258.895 124 260 124H312C313.105 124 314 124.895 314 126V227H258V126Z" fill="url(#paint6_linear_6004_39831)"/>
<path opacity="0.2" d="M270 124H302V227H270V124Z" fill="url(#paint7_linear_6004_39831)"/>
<path opacity="0.04" d="M302 124H312C313.105 124 314 124.895 314 126V227H302V124Z" fill="#0D262C"/>
<path opacity="0.5" d="M258 126C258 124.895 258.895 124 260 124H270V227H258V126Z" fill="url(#paint8_linear_6004_39831)"/>
<path d="M125.927 166.354C126.122 166.158 126.122 165.842 125.927 165.646L122.745 162.464C122.55 162.269 122.233 162.269 122.038 162.464C121.843 162.66 121.843 162.976 122.038 163.172L124.867 166L122.038 168.828C121.843 169.024 121.843 169.34 122.038 169.536C122.233 169.731 122.55 169.731 122.745 169.536L125.927 166.354ZM74.1797 166.5L125.574 166.5L125.574 165.5L74.1797 165.5L74.1797 166.5Z" fill="#7DA4C1"/>
<path d="M91.906 153.136H86.338V152.236H91.906V153.136ZM94.3201 153.136L93.4561 152.908L93.9481 148.6H99.2281V149.62H94.8721L94.5601 151.876C94.9801 151.564 95.6161 151.408 96.4681 151.408C97.4521 151.408 98.2201 151.672 98.7841 152.188C99.3361 152.716 99.6121 153.388 99.6121 154.216C99.6121 155.044 99.3001 155.74 98.6881 156.28C98.0641 156.832 97.2841 157.108 96.3601 157.108C94.7881 157.108 93.4801 156.364 92.9401 155.056L93.9001 154.648C94.2481 155.452 95.1481 156.088 96.3601 156.088C97.7401 156.088 98.5081 155.296 98.5081 154.252C98.5081 153.136 97.6081 152.416 96.1801 152.416C95.4121 152.416 94.7881 152.656 94.3201 153.136ZM102.379 157.18L101.587 156.724L107.791 148.336L108.547 148.888L102.379 157.18ZM100.291 150.616C100.291 150.016 100.495 149.524 100.915 149.14C101.335 148.756 101.851 148.564 102.487 148.564C103.111 148.564 103.627 148.756 104.047 149.14C104.467 149.524 104.671 150.016 104.671 150.616C104.671 151.204 104.467 151.696 104.047 152.08C103.627 152.464 103.111 152.656 102.487 152.656C101.851 152.656 101.335 152.464 100.915 152.08C100.495 151.696 100.291 151.204 100.291 150.616ZM101.299 150.616C101.299 151.3 101.851 151.804 102.487 151.804C103.147 151.804 103.663 151.324 103.663 150.616C103.663 149.908 103.123 149.428 102.487 149.428C101.827 149.428 101.299 149.908 101.299 150.616ZM106.063 156.472C105.643 156.088 105.439 155.596 105.439 154.996C105.439 154.396 105.643 153.904 106.063 153.52C106.483 153.148 106.999 152.956 107.635 152.956C108.259 152.956 108.775 153.148 109.195 153.52C109.615 153.904 109.819 154.396 109.819 154.996C109.819 155.584 109.615 156.076 109.195 156.46C108.775 156.856 108.259 157.048 107.635 157.048C106.999 157.048 106.483 156.856 106.063 156.472ZM106.447 154.996C106.447 155.68 106.999 156.184 107.635 156.184C108.295 156.184 108.811 155.704 108.811 154.996C108.811 154.288 108.271 153.808 107.635 153.808C106.975 153.808 106.447 154.288 106.447 154.996Z" fill="#7DA4C1"/>
<path d="M249.927 166.354C250.122 166.158 250.122 165.842 249.927 165.646L246.745 162.464C246.55 162.269 246.233 162.269 246.038 162.464C245.843 162.66 245.843 162.976 246.038 163.172L248.867 166L246.038 168.828C245.843 169.024 245.843 169.34 246.038 169.536C246.233 169.731 246.55 169.731 246.745 169.536L249.927 166.354ZM198.18 166.5L249.574 166.5L249.574 165.5L198.18 165.5L198.18 166.5Z" fill="#7DA4C1"/>
<path d="M210.996 153.136H205.428V152.236H210.996V153.136ZM212.054 152.8C212.054 151.504 212.33 150.46 212.87 149.68C213.41 148.9 214.202 148.504 215.258 148.504C217.406 148.504 218.474 150.076 218.474 152.8C218.474 154.108 218.21 155.14 217.67 155.92C217.13 156.7 216.338 157.096 215.282 157.096C214.262 157.096 213.47 156.7 212.906 155.908C212.342 155.116 212.054 154.084 212.054 152.8ZM213.158 152.8C213.158 154.828 213.95 156.076 215.282 156.076C216.674 156.076 217.37 154.984 217.37 152.8C217.37 150.616 216.662 149.524 215.258 149.524C213.854 149.524 213.158 150.616 213.158 152.8ZM220.185 157C219.741 157.048 219.405 156.796 219.405 156.364C219.405 155.944 219.669 155.68 220.137 155.68C220.665 155.68 221.013 156.04 221.013 156.712C221.013 157.912 220.353 158.524 219.477 158.728L219.225 158.164C219.489 158.092 219.729 157.948 219.945 157.72C220.149 157.492 220.233 157.252 220.185 157ZM222.966 151.372L222.09 151.06C222.39 149.56 223.47 148.504 225.246 148.504C226.974 148.504 227.97 149.5 227.97 151.024C227.934 152.284 227.346 153.28 226.458 154.084C225.834 154.672 225.342 155.008 224.682 155.428L223.758 156.004H228.282V157H221.982V156.184L223.686 154.972C224.682 154.264 225.33 153.772 225.63 153.496C226.458 152.74 226.866 151.948 226.866 151.132C226.866 150.028 226.194 149.548 225.174 149.548C223.878 149.548 223.206 150.364 222.966 151.372ZM231.29 157.18L230.498 156.724L236.702 148.336L237.458 148.888L231.29 157.18ZM229.202 150.616C229.202 150.016 229.406 149.524 229.826 149.14C230.246 148.756 230.762 148.564 231.398 148.564C232.022 148.564 232.538 148.756 232.958 149.14C233.378 149.524 233.582 150.016 233.582 150.616C233.582 151.204 233.378 151.696 232.958 152.08C232.538 152.464 232.022 152.656 231.398 152.656C230.762 152.656 230.246 152.464 229.826 152.08C229.406 151.696 229.202 151.204 229.202 150.616ZM230.21 150.616C230.21 151.3 230.762 151.804 231.398 151.804C232.058 151.804 232.574 151.324 232.574 150.616C232.574 149.908 232.034 149.428 231.398 149.428C230.738 149.428 230.21 149.908 230.21 150.616ZM234.974 156.472C234.554 156.088 234.35 155.596 234.35 154.996C234.35 154.396 234.554 153.904 234.974 153.52C235.394 153.148 235.91 152.956 236.546 152.956C237.17 152.956 237.686 153.148 238.106 153.52C238.526 153.904 238.73 154.396 238.73 154.996C238.73 155.584 238.526 156.076 238.106 156.46C237.686 156.856 237.17 157.048 236.546 157.048C235.91 157.048 235.394 156.856 234.974 156.472ZM235.358 154.996C235.358 155.68 235.91 156.184 236.546 156.184C237.206 156.184 237.722 155.704 237.722 154.996C237.722 154.288 237.182 153.808 236.546 153.808C235.886 153.808 235.358 154.288 235.358 154.996Z" fill="#7DA4C1"/>
<line y1="226.5" x2="335" y2="226.5" stroke="#ABBEC9"/>
<path d="M33 41L165.433 23H297" stroke="url(#paint9_linear_6004_39831)" stroke-width="5"/>
<circle cx="297" cy="23" r="7" fill="#64BBEA" stroke="white" stroke-width="2"/>
<circle cx="166" cy="23" r="7" fill="#64BBEA" stroke="white" stroke-width="2"/>
<circle cx="34" cy="40" r="7" fill="#64BBEA" stroke="white" stroke-width="2"/>
<path d="M25.2427 28H20.7327V27.17H22.8627V22.03L21.0727 22.86L20.7527 22.11L23.1527 20.96H23.7227V27.17H25.2427V28ZM26.3288 24.5C26.3288 23.42 26.5588 22.55 27.0088 21.9C27.4588 21.25 28.1188 20.92 28.9988 20.92C30.7888 20.92 31.6788 22.23 31.6788 24.5C31.6788 25.59 31.4588 26.45 31.0088 27.1C30.5588 27.75 29.8988 28.08 29.0188 28.08C28.1688 28.08 27.5088 27.75 27.0388 27.09C26.5688 26.43 26.3288 25.57 26.3288 24.5ZM27.2488 24.5C27.2488 26.19 27.9088 27.23 29.0188 27.23C30.1788 27.23 30.7588 26.32 30.7588 24.5C30.7588 22.68 30.1688 21.77 28.9988 21.77C27.8288 21.77 27.2488 22.68 27.2488 24.5ZM33.1049 28C32.7349 28.04 32.4549 27.83 32.4549 27.47C32.4549 27.12 32.6749 26.9 33.0649 26.9C33.5049 26.9 33.7949 27.2 33.7949 27.76C33.7949 28.76 33.2449 29.27 32.5149 29.44L32.3049 28.97C32.5249 28.91 32.7249 28.79 32.9049 28.6C33.0749 28.41 33.1449 28.21 33.1049 28ZM35.6424 24.78L34.9224 24.59L35.3324 21H39.7324V21.85H36.1024L35.8424 23.73C36.1924 23.47 36.7224 23.34 37.4324 23.34C38.2524 23.34 38.8924 23.56 39.3624 23.99C39.8224 24.43 40.0524 24.99 40.0524 25.68C40.0524 26.37 39.7924 26.95 39.2824 27.4C38.7624 27.86 38.1124 28.09 37.3424 28.09C36.0324 28.09 34.9424 27.47 34.4924 26.38L35.2924 26.04C35.5824 26.71 36.3324 27.24 37.3424 27.24C38.4924 27.24 39.1324 26.58 39.1324 25.71C39.1324 24.78 38.3824 24.18 37.1924 24.18C36.5524 24.18 36.0324 24.38 35.6424 24.78ZM42.3585 28.15L41.6985 27.77L46.8685 20.78L47.4985 21.24L42.3585 28.15ZM40.6185 22.68C40.6185 22.18 40.7885 21.77 41.1385 21.45C41.4885 21.13 41.9185 20.97 42.4485 20.97C42.9685 20.97 43.3985 21.13 43.7485 21.45C44.0985 21.77 44.2685 22.18 44.2685 22.68C44.2685 23.17 44.0985 23.58 43.7485 23.9C43.3985 24.22 42.9685 24.38 42.4485 24.38C41.9185 24.38 41.4885 24.22 41.1385 23.9C40.7885 23.58 40.6185 23.17 40.6185 22.68ZM41.4585 22.68C41.4585 23.25 41.9185 23.67 42.4485 23.67C42.9985 23.67 43.4285 23.27 43.4285 22.68C43.4285 22.09 42.9785 21.69 42.4485 21.69C41.8985 21.69 41.4585 22.09 41.4585 22.68ZM45.4285 27.56C45.0785 27.24 44.9085 26.83 44.9085 26.33C44.9085 25.83 45.0785 25.42 45.4285 25.1C45.7785 24.79 46.2085 24.63 46.7385 24.63C47.2585 24.63 47.6885 24.79 48.0385 25.1C48.3885 25.42 48.5585 25.83 48.5585 26.33C48.5585 26.82 48.3885 27.23 48.0385 27.55C47.6885 27.88 47.2585 28.04 46.7385 28.04C46.2085 28.04 45.7785 27.88 45.4285 27.56ZM45.7485 26.33C45.7485 26.9 46.2085 27.32 46.7385 27.32C47.2885 27.32 47.7185 26.92 47.7185 26.33C47.7185 25.74 47.2685 25.34 46.7385 25.34C46.1885 25.34 45.7485 25.74 45.7485 26.33Z" fill="#357D94"/>
<path d="M156.243 12H151.733V11.17H153.863V6.03L152.073 6.86L151.753 6.11L154.153 4.96H154.723V11.17H156.243V12ZM162.239 12H157.729V11.17H159.859V6.03L158.069 6.86L157.749 6.11L160.149 4.96H160.719V11.17H162.239V12ZM164.105 12C163.735 12.04 163.455 11.83 163.455 11.47C163.455 11.12 163.675 10.9 164.065 10.9C164.505 10.9 164.795 11.2 164.795 11.76C164.795 12.76 164.245 13.27 163.515 13.44L163.305 12.97C163.525 12.91 163.725 12.79 163.905 12.6C164.075 12.41 164.145 12.21 164.105 12ZM165.572 8.69C165.572 7.48 165.842 6.54 166.382 5.89C166.922 5.24 167.622 4.91 168.482 4.91C169.582 4.91 170.342 5.37 170.762 6.28L170.082 6.74C169.672 6.09 169.242 5.77 168.442 5.77C167.232 5.77 166.452 6.76 166.462 8.49C166.882 7.71 167.582 7.32 168.562 7.32C170.162 7.32 171.002 8.22 171.002 9.66C171.002 10.38 170.762 10.96 170.282 11.41C169.792 11.86 169.182 12.09 168.432 12.09C166.672 12.09 165.572 10.85 165.572 8.69ZM166.572 9.54C166.792 10.67 167.412 11.23 168.422 11.23C169.472 11.23 170.082 10.63 170.082 9.7C170.082 8.69 169.562 8.18 168.512 8.18C167.352 8.18 166.722 8.81 166.572 9.54ZM173.358 12.15L172.698 11.77L177.868 4.78L178.498 5.24L173.358 12.15ZM171.618 6.68C171.618 6.18 171.788 5.77 172.138 5.45C172.488 5.13 172.918 4.97 173.448 4.97C173.968 4.97 174.398 5.13 174.748 5.45C175.098 5.77 175.268 6.18 175.268 6.68C175.268 7.17 175.098 7.58 174.748 7.9C174.398 8.22 173.968 8.38 173.448 8.38C172.918 8.38 172.488 8.22 172.138 7.9C171.788 7.58 171.618 7.17 171.618 6.68ZM172.458 6.68C172.458 7.25 172.918 7.67 173.448 7.67C173.998 7.67 174.428 7.27 174.428 6.68C174.428 6.09 173.978 5.69 173.448 5.69C172.898 5.69 172.458 6.09 172.458 6.68ZM176.428 11.56C176.078 11.24 175.908 10.83 175.908 10.33C175.908 9.83 176.078 9.42 176.428 9.1C176.778 8.79 177.208 8.63 177.738 8.63C178.258 8.63 178.688 8.79 179.038 9.1C179.388 9.42 179.558 9.83 179.558 10.33C179.558 10.82 179.388 11.23 179.038 11.55C178.688 11.88 178.258 12.04 177.738 12.04C177.208 12.04 176.778 11.88 176.428 11.56ZM176.748 10.33C176.748 10.9 177.208 11.32 177.738 11.32C178.288 11.32 178.718 10.92 178.718 10.33C178.718 9.74 178.268 9.34 177.738 9.34C177.188 9.34 176.748 9.74 176.748 10.33Z" fill="#357D94"/>
<path d="M289.743 10H285.233V9.17H287.363V4.03L285.573 4.86L285.253 4.11L287.653 2.96H288.223V9.17H289.743V10ZM295.739 10H291.229V9.17H293.359V4.03L291.569 4.86L291.249 4.11L293.649 2.96H294.219V9.17H295.739V10ZM297.605 10C297.235 10.04 296.955 9.83 296.955 9.47C296.955 9.12 297.175 8.9 297.565 8.9C298.005 8.9 298.295 9.2 298.295 9.76C298.295 10.76 297.745 11.27 297.015 11.44L296.805 10.97C297.025 10.91 297.225 10.79 297.405 10.6C297.575 10.41 297.645 10.21 297.605 10ZM299.072 6.69C299.072 5.48 299.342 4.54 299.882 3.89C300.422 3.24 301.122 2.91 301.982 2.91C303.082 2.91 303.842 3.37 304.262 4.28L303.582 4.74C303.172 4.09 302.742 3.77 301.942 3.77C300.732 3.77 299.952 4.76 299.962 6.49C300.382 5.71 301.082 5.32 302.062 5.32C303.662 5.32 304.502 6.22 304.502 7.66C304.502 8.38 304.262 8.96 303.782 9.41C303.292 9.86 302.682 10.09 301.932 10.09C300.172 10.09 299.072 8.85 299.072 6.69ZM300.072 7.54C300.292 8.67 300.912 9.23 301.922 9.23C302.972 9.23 303.582 8.63 303.582 7.7C303.582 6.69 303.062 6.18 302.012 6.18C300.852 6.18 300.222 6.81 300.072 7.54ZM306.858 10.15L306.198 9.77L311.368 2.78L311.998 3.24L306.858 10.15ZM305.118 4.68C305.118 4.18 305.288 3.77 305.638 3.45C305.988 3.13 306.418 2.97 306.948 2.97C307.468 2.97 307.898 3.13 308.248 3.45C308.598 3.77 308.768 4.18 308.768 4.68C308.768 5.17 308.598 5.58 308.248 5.9C307.898 6.22 307.468 6.38 306.948 6.38C306.418 6.38 305.988 6.22 305.638 5.9C305.288 5.58 305.118 5.17 305.118 4.68ZM305.958 4.68C305.958 5.25 306.418 5.67 306.948 5.67C307.498 5.67 307.928 5.27 307.928 4.68C307.928 4.09 307.478 3.69 306.948 3.69C306.398 3.69 305.958 4.09 305.958 4.68ZM309.928 9.56C309.578 9.24 309.408 8.83 309.408 8.33C309.408 7.83 309.578 7.42 309.928 7.1C310.278 6.79 310.708 6.63 311.238 6.63C311.758 6.63 312.188 6.79 312.538 7.1C312.888 7.42 313.058 7.83 313.058 8.33C313.058 8.82 312.888 9.23 312.538 9.55C312.188 9.88 311.758 10.04 311.238 10.04C310.708 10.04 310.278 9.88 309.928 9.56ZM310.248 8.33C310.248 8.9 310.708 9.32 311.238 9.32C311.788 9.32 312.218 8.92 312.218 8.33C312.218 7.74 311.768 7.34 311.238 7.34C310.688 7.34 310.248 7.74 310.248 8.33Z" fill="#357D94"/>
<defs>
<linearGradient id="paint0_linear_6004_39831" x1="38" y1="105" x2="38" y2="227" gradientUnits="userSpaceOnUse">
<stop stop-color="#45B8DB"/>
<stop offset="1" stop-color="#ADE4E4"/>
</linearGradient>
<linearGradient id="paint1_linear_6004_39831" x1="38" y1="105" x2="38" y2="227" gradientUnits="userSpaceOnUse">
<stop stop-color="white" stop-opacity="0"/>
<stop offset="0.739583" stop-color="white"/>
</linearGradient>
<linearGradient id="paint2_linear_6004_39831" x1="16" y1="-132.9" x2="16" y2="227" gradientUnits="userSpaceOnUse">
<stop stop-color="white" stop-opacity="0.05"/>
<stop offset="0.75" stop-color="white" stop-opacity="0.8"/>
</linearGradient>
<linearGradient id="paint3_linear_6004_39831" x1="162" y1="118" x2="162" y2="227" gradientUnits="userSpaceOnUse">
<stop stop-color="#45B8DB"/>
<stop offset="1" stop-color="#ADE4E4"/>
</linearGradient>
<linearGradient id="paint4_linear_6004_39831" x1="162" y1="118" x2="162" y2="227" gradientUnits="userSpaceOnUse">
<stop stop-color="white" stop-opacity="0"/>
<stop offset="0.739583" stop-color="white"/>
</linearGradient>
<linearGradient id="paint5_linear_6004_39831" x1="140" y1="-94.55" x2="140" y2="227" gradientUnits="userSpaceOnUse">
<stop stop-color="white" stop-opacity="0.05"/>
<stop offset="0.75" stop-color="white" stop-opacity="0.8"/>
</linearGradient>
<linearGradient id="paint6_linear_6004_39831" x1="286" y1="124" x2="286" y2="227" gradientUnits="userSpaceOnUse">
<stop stop-color="#45B8DB"/>
<stop offset="1" stop-color="#ADE4E4"/>
</linearGradient>
<linearGradient id="paint7_linear_6004_39831" x1="286" y1="124" x2="286" y2="227" gradientUnits="userSpaceOnUse">
<stop stop-color="white" stop-opacity="0"/>
<stop offset="0.739583" stop-color="white"/>
</linearGradient>
<linearGradient id="paint8_linear_6004_39831" x1="264" y1="-76.85" x2="264" y2="227" gradientUnits="userSpaceOnUse">
<stop stop-color="white" stop-opacity="0.05"/>
<stop offset="0.75" stop-color="white" stop-opacity="0.8"/>
</linearGradient>
<linearGradient id="paint9_linear_6004_39831" x1="297" y1="23" x2="33" y2="23" gradientUnits="userSpaceOnUse">
<stop stop-color="#56BCF6"/>
<stop offset="1" stop-color="#A2DEE7"/>
</linearGradient>
</defs>
</svg>
