<svg width="335" height="164" viewBox="0 0 335 164" fill="none" xmlns="http://www.w3.org/2000/svg">
<line y1="148.5" x2="335" y2="148.5" stroke="#ABBEC9"/>
<path d="M146.076 21.492L145.068 21.226L145.642 16.2H151.802V17.39H146.72L146.356 20.022C146.846 19.658 147.588 19.476 148.582 19.476C149.73 19.476 150.626 19.784 151.284 20.386C151.928 21.002 152.25 21.786 152.25 22.752C152.25 23.718 151.886 24.53 151.172 25.16C150.444 25.804 149.534 26.126 148.456 26.126C146.622 26.126 145.096 25.258 144.466 23.732L145.586 23.256C145.992 24.194 147.042 24.936 148.456 24.936C150.066 24.936 150.962 24.012 150.962 22.794C150.962 21.492 149.912 20.652 148.246 20.652C147.35 20.652 146.622 20.932 146.076 21.492ZM154.741 21.492L153.733 21.226L154.307 16.2H160.467V17.39H155.385L155.021 20.022C155.511 19.658 156.253 19.476 157.247 19.476C158.395 19.476 159.291 19.784 159.949 20.386C160.593 21.002 160.915 21.786 160.915 22.752C160.915 23.718 160.551 24.53 159.837 25.16C159.109 25.804 158.199 26.126 157.121 26.126C155.287 26.126 153.761 25.258 153.131 23.732L154.251 23.256C154.657 24.194 155.707 24.936 157.121 24.936C158.731 24.936 159.627 24.012 159.627 22.794C159.627 21.492 158.577 20.652 156.911 20.652C156.015 20.652 155.287 20.932 154.741 21.492ZM167.463 21.492L166.455 21.226L167.029 16.2H173.189V17.39H168.107L167.743 20.022C168.233 19.658 168.975 19.476 169.969 19.476C171.117 19.476 172.013 19.784 172.671 20.386C173.315 21.002 173.637 21.786 173.637 22.752C173.637 23.718 173.273 24.53 172.559 25.16C171.831 25.804 170.921 26.126 169.843 26.126C168.009 26.126 166.483 25.258 165.853 23.732L166.973 23.256C167.379 24.194 168.429 24.936 169.843 24.936C171.453 24.936 172.349 24.012 172.349 22.794C172.349 21.492 171.299 20.652 169.633 20.652C168.737 20.652 168.009 20.932 167.463 21.492ZM180.314 17.39H174.378V16.2H181.812V16.998L176.94 26H175.61L180.314 17.39ZM188.172 17.39H182.236V16.2H189.67V16.998L184.798 26H183.468L188.172 17.39Z" fill="#1A3341"/>
<path d="M153.556 157.372L152.68 157.06C152.98 155.572 154.108 154.504 155.896 154.504C157.624 154.504 158.68 155.5 158.68 157.024C158.68 157.828 158.332 158.632 157.9 159.208C157.684 159.508 157.408 159.796 157.084 160.096C156.424 160.684 155.956 160.996 155.272 161.428L154.348 162.004H158.992V163H152.452V162.184L154.276 160.972C154.6 160.768 154.828 160.612 154.96 160.516C155.092 160.432 155.308 160.276 155.596 160.072C155.884 159.868 156.1 159.688 156.244 159.556C156.376 159.424 156.556 159.256 156.76 159.04C157.312 158.44 157.516 157.888 157.576 157.132C157.576 156.04 156.868 155.548 155.824 155.548C155.176 155.548 154.66 155.728 154.288 156.088C153.916 156.448 153.664 156.88 153.556 157.372ZM159.824 158.8C159.824 157.504 160.124 156.46 160.736 155.68C161.336 154.9 162.224 154.504 163.388 154.504C165.776 154.504 166.964 156.076 166.964 158.8C166.964 160.108 166.664 161.14 166.076 161.92C165.476 162.7 164.588 163.096 163.412 163.096C162.284 163.096 161.408 162.7 160.772 161.908C160.136 161.116 159.824 160.084 159.824 158.8ZM160.928 158.8C160.928 160.852 161.864 162.076 163.412 162.076C165.044 162.076 165.86 160.984 165.86 158.8C165.86 156.616 165.032 155.524 163.388 155.524C161.72 155.524 160.928 156.724 160.928 158.8ZM168.82 157.372L167.944 157.06C168.244 155.572 169.372 154.504 171.16 154.504C172.888 154.504 173.944 155.5 173.944 157.024C173.944 157.828 173.596 158.632 173.164 159.208C172.948 159.508 172.672 159.796 172.348 160.096C171.688 160.684 171.22 160.996 170.536 161.428L169.612 162.004H174.256V163H167.716V162.184L169.54 160.972C169.864 160.768 170.092 160.612 170.224 160.516C170.356 160.432 170.572 160.276 170.86 160.072C171.148 159.868 171.364 159.688 171.508 159.556C171.64 159.424 171.82 159.256 172.024 159.04C172.576 158.44 172.78 157.888 172.84 157.132C172.84 156.04 172.132 155.548 171.088 155.548C170.44 155.548 169.924 155.728 169.552 156.088C169.18 156.448 168.928 156.88 168.82 157.372ZM176.048 157.372L175.172 157.06C175.472 155.572 176.6 154.504 178.388 154.504C180.116 154.504 181.172 155.5 181.172 157.024C181.172 157.828 180.824 158.632 180.392 159.208C180.176 159.508 179.9 159.796 179.576 160.096C178.916 160.684 178.448 160.996 177.764 161.428L176.84 162.004H181.484V163H174.944V162.184L176.768 160.972C177.092 160.768 177.32 160.612 177.452 160.516C177.584 160.432 177.8 160.276 178.088 160.072C178.376 159.868 178.592 159.688 178.736 159.556C178.868 159.424 179.048 159.256 179.252 159.04C179.804 158.44 180.008 157.888 180.068 157.132C180.068 156.04 179.36 155.548 178.316 155.548C177.668 155.548 177.152 155.728 176.78 156.088C176.408 156.448 176.156 156.88 176.048 157.372Z" fill="#1A3341" fill-opacity="0.6"/>
<path d="M139 38C139 36.8954 139.895 36 141 36H193C194.105 36 195 36.8954 195 38V148H139V38Z" fill="url(#paint0_linear_4002_20367)"/>
<path opacity="0.2" d="M151 36H183V148H151V36Z" fill="url(#paint1_linear_4002_20367)"/>
<path opacity="0.04" d="M183 36H193C194.105 36 195 36.8954 195 38V148H183V36Z" fill="#0D262C"/>
<path opacity="0.5" d="M139 38C139 36.8954 139.895 36 141 36H151V148H139V38Z" fill="url(#paint2_linear_4002_20367)"/>
<path d="M16.662 5.366C16.662 3.672 17.082 2.37 17.908 1.446C18.734 0.535999 19.77 0.0739993 21.016 0.0739993C22.654 0.0739993 23.942 0.816 24.488 1.992L23.536 2.636C22.962 1.726 22.108 1.278 20.96 1.278C20.092 1.278 19.364 1.614 18.776 2.286C18.188 2.972 17.894 3.896 17.908 5.086C18.454 4.064 19.728 3.448 21.128 3.448C22.262 3.448 23.172 3.742 23.83 4.344C24.488 4.946 24.824 5.744 24.824 6.724C24.824 7.718 24.46 8.544 23.718 9.174C22.976 9.804 22.052 10.126 20.946 10.126C18.3 10.126 16.662 8.404 16.662 5.366ZM18.062 6.556C18.328 7.942 19.378 8.922 20.932 8.922C21.688 8.922 22.318 8.726 22.808 8.32C23.298 7.928 23.536 7.41 23.536 6.78C23.536 5.394 22.556 4.652 21.058 4.652C20.232 4.652 19.546 4.848 19.014 5.24C18.468 5.632 18.16 6.066 18.062 6.556ZM32.5945 10H31.3765V7.998H25.3845V7.186L31.5165 0.199999H32.5945V6.864H34.4145V7.998H32.5945V10ZM31.3765 2.16L27.0645 6.864H31.3765V2.16ZM43.02 4.414H43.454C44.084 4.414 44.602 4.26 45.036 3.966C45.456 3.672 45.666 3.28 45.666 2.818C45.666 1.768 44.84 1.236 43.202 1.236C41.634 1.236 40.78 1.81 40.78 2.818C40.78 3.728 41.718 4.414 43.02 4.414ZM43.426 5.52H43.076C42.32 5.52 41.69 5.688 41.2 6.01C40.71 6.332 40.458 6.738 40.458 7.228C40.458 8.292 41.438 8.964 43.216 8.964C45.022 8.964 45.988 8.32 45.988 7.242C45.988 6.164 44.952 5.52 43.426 5.52ZM46.184 9.37C45.47 9.874 44.476 10.126 43.23 10.126C41.984 10.126 40.99 9.874 40.262 9.384C39.534 8.894 39.17 8.222 39.17 7.354C39.17 6.22 39.912 5.324 41.102 4.932C40.024 4.582 39.492 3.728 39.492 2.734C39.492 1.11 40.864 0.0739993 43.216 0.0739993C45.582 0.0739993 46.954 1.11 46.954 2.734C46.954 3.672 46.436 4.386 45.4 4.862C46.646 5.24 47.262 6.052 47.262 7.298C47.262 8.18 46.898 8.88 46.184 9.37ZM49.7819 5.492L48.7739 5.226L49.3479 0.199999H55.5079V1.39H50.4259L50.0619 4.022C50.5519 3.658 51.2939 3.476 52.2879 3.476C53.4359 3.476 54.3319 3.784 54.9899 4.386C55.6339 5.002 55.9559 5.786 55.9559 6.752C55.9559 7.718 55.5919 8.53 54.8779 9.16C54.1499 9.804 53.2399 10.126 52.1619 10.126C50.3279 10.126 48.8019 9.258 48.1719 7.732L49.2919 7.256C49.6979 8.194 50.7479 8.936 52.1619 8.936C53.7719 8.936 54.6679 8.012 54.6679 6.794C54.6679 5.492 53.6179 4.652 51.9519 4.652C51.0559 4.652 50.3279 4.932 49.7819 5.492ZM56.9066 2.804L56.4586 1.754L59.8186 0.143999H60.6166V10H59.4126V1.642L56.9066 2.804Z" fill="#1A3341"/>
<path d="M26.863 157.372L25.987 157.06C26.287 155.572 27.415 154.504 29.203 154.504C30.931 154.504 31.987 155.5 31.987 157.024C31.987 157.828 31.639 158.632 31.207 159.208C30.991 159.508 30.715 159.796 30.391 160.096C29.731 160.684 29.263 160.996 28.579 161.428L27.655 162.004H32.299V163H25.759V162.184L27.583 160.972C27.907 160.768 28.135 160.612 28.267 160.516C28.399 160.432 28.615 160.276 28.903 160.072C29.191 159.868 29.407 159.688 29.551 159.556C29.683 159.424 29.863 159.256 30.067 159.04C30.619 158.44 30.823 157.888 30.883 157.132C30.883 156.04 30.175 155.548 29.131 155.548C28.483 155.548 27.967 155.728 27.595 156.088C27.223 156.448 26.971 156.88 26.863 157.372ZM33.1307 158.8C33.1307 157.504 33.4307 156.46 34.0427 155.68C34.6427 154.9 35.5307 154.504 36.6947 154.504C39.0827 154.504 40.2707 156.076 40.2707 158.8C40.2707 160.108 39.9707 161.14 39.3827 161.92C38.7827 162.7 37.8947 163.096 36.7187 163.096C35.5907 163.096 34.7147 162.7 34.0787 161.908C33.4427 161.116 33.1307 160.084 33.1307 158.8ZM34.2347 158.8C34.2347 160.852 35.1707 162.076 36.7187 162.076C38.3507 162.076 39.1667 160.984 39.1667 158.8C39.1667 156.616 38.3387 155.524 36.6947 155.524C35.0267 155.524 34.2347 156.724 34.2347 158.8ZM42.1269 157.372L41.2509 157.06C41.5509 155.572 42.6789 154.504 44.4669 154.504C46.1949 154.504 47.2509 155.5 47.2509 157.024C47.2509 157.828 46.9029 158.632 46.4709 159.208C46.2549 159.508 45.9789 159.796 45.6549 160.096C44.9949 160.684 44.5269 160.996 43.8429 161.428L42.9189 162.004H47.5629V163H41.0229V162.184L42.8469 160.972C43.1709 160.768 43.3989 160.612 43.5309 160.516C43.6629 160.432 43.8789 160.276 44.1669 160.072C44.4549 159.868 44.6709 159.688 44.8149 159.556C44.9469 159.424 45.1269 159.256 45.3309 159.04C45.8829 158.44 46.0869 157.888 46.1469 157.132C46.1469 156.04 45.4389 155.548 44.3949 155.548C43.7469 155.548 43.2309 155.728 42.8589 156.088C42.4869 156.448 42.2349 156.88 42.1269 157.372ZM48.2986 156.832L47.9146 155.932L50.7946 154.552H51.4786V163H50.4466V155.836L48.2986 156.832Z" fill="#1A3341" fill-opacity="0.6"/>
<path d="M11 22C11 20.8954 11.8954 20 13 20H65C66.1046 20 67 20.8954 67 22V148H11V22Z" fill="url(#paint3_linear_4002_20367)"/>
<path opacity="0.2" d="M23 20H55V148H23V20Z" fill="url(#paint4_linear_4002_20367)"/>
<path opacity="0.04" d="M55 20H65C66.1046 20 67 20.8954 67 22V148H55V20Z" fill="#0D262C"/>
<path opacity="0.5" d="M11 22C11 20.8954 11.8954 20 13 20H23V148H11V22Z" fill="url(#paint5_linear_4002_20367)"/>
<path d="M274.343 23.492L273.335 23.226L273.909 18.2H280.069V19.39H274.987L274.623 22.022C275.113 21.658 275.855 21.476 276.849 21.476C277.997 21.476 278.893 21.784 279.551 22.386C280.195 23.002 280.517 23.786 280.517 24.752C280.517 25.718 280.153 26.53 279.439 27.16C278.711 27.804 277.801 28.126 276.723 28.126C274.889 28.126 273.363 27.258 272.733 25.732L273.853 25.256C274.259 26.194 275.309 26.936 276.723 26.936C278.333 26.936 279.229 26.012 279.229 24.794C279.229 23.492 278.179 22.652 276.513 22.652C275.617 22.652 274.889 22.932 274.343 23.492ZM283.008 23.492L282 23.226L282.574 18.2H288.734V19.39H283.652L283.288 22.022C283.778 21.658 284.52 21.476 285.514 21.476C286.662 21.476 287.558 21.784 288.216 22.386C288.86 23.002 289.182 23.786 289.182 24.752C289.182 25.718 288.818 26.53 288.104 27.16C287.376 27.804 286.466 28.126 285.388 28.126C283.554 28.126 282.028 27.258 281.398 25.732L282.518 25.256C282.924 26.194 283.974 26.936 285.388 26.936C286.998 26.936 287.894 26.012 287.894 24.794C287.894 23.492 286.844 22.652 285.178 22.652C284.282 22.652 283.554 22.932 283.008 23.492ZM301.064 28H299.846V25.998H293.854V25.186L299.986 18.2H301.064V24.864H302.884V25.998H301.064V28ZM299.846 20.16L295.534 24.864H299.846V20.16ZM311.716 22.918C311.716 24.584 311.324 25.872 310.526 26.768C309.728 27.678 308.664 28.126 307.334 28.126C305.71 28.126 304.436 27.44 303.806 26.39L304.814 25.69C305.374 26.474 306.396 26.922 307.502 26.922C308.412 26.922 309.14 26.558 309.714 25.83C310.288 25.116 310.526 24.22 310.456 23.156C309.994 24.22 308.832 25.004 307.278 25.004C306.186 25.004 305.29 24.696 304.59 24.066C303.876 23.45 303.526 22.638 303.526 21.644C303.526 20.552 303.904 19.684 304.66 19.04C305.416 18.396 306.424 18.074 307.67 18.074C310.19 18.074 311.716 19.838 311.716 22.918ZM310.246 21.602C310.036 20.3 309.14 19.278 307.53 19.278C305.85 19.278 304.814 20.146 304.814 21.602C304.814 22.988 305.864 23.8 307.502 23.8C308.244 23.8 308.874 23.576 309.364 23.128C309.854 22.68 310.148 22.176 310.246 21.602ZM312.654 20.804L312.206 19.754L315.566 18.144H316.364V28H315.16V19.642L312.654 20.804Z" fill="#1A3341"/>
<path d="M281.527 157.372L280.651 157.06C280.951 155.572 282.079 154.504 283.867 154.504C285.595 154.504 286.651 155.5 286.651 157.024C286.651 157.828 286.303 158.632 285.871 159.208C285.655 159.508 285.379 159.796 285.055 160.096C284.395 160.684 283.927 160.996 283.243 161.428L282.319 162.004H286.963V163H280.423V162.184L282.247 160.972C282.571 160.768 282.799 160.612 282.931 160.516C283.063 160.432 283.279 160.276 283.567 160.072C283.855 159.868 284.071 159.688 284.215 159.556C284.347 159.424 284.527 159.256 284.731 159.04C285.283 158.44 285.487 157.888 285.547 157.132C285.547 156.04 284.839 155.548 283.795 155.548C283.147 155.548 282.631 155.728 282.259 156.088C281.887 156.448 281.635 156.88 281.527 157.372ZM287.795 158.8C287.795 157.504 288.095 156.46 288.707 155.68C289.307 154.9 290.195 154.504 291.359 154.504C293.747 154.504 294.935 156.076 294.935 158.8C294.935 160.108 294.635 161.14 294.047 161.92C293.447 162.7 292.559 163.096 291.383 163.096C290.255 163.096 289.379 162.7 288.743 161.908C288.107 161.116 287.795 160.084 287.795 158.8ZM288.899 158.8C288.899 160.852 289.835 162.076 291.383 162.076C293.015 162.076 293.831 160.984 293.831 158.8C293.831 156.616 293.003 155.524 291.359 155.524C289.691 155.524 288.899 156.724 288.899 158.8ZM296.791 157.372L295.915 157.06C296.215 155.572 297.343 154.504 299.131 154.504C300.859 154.504 301.915 155.5 301.915 157.024C301.915 157.828 301.567 158.632 301.135 159.208C300.919 159.508 300.643 159.796 300.319 160.096C299.659 160.684 299.191 160.996 298.507 161.428L297.583 162.004H302.227V163H295.687V162.184L297.511 160.972C297.835 160.768 298.063 160.612 298.195 160.516C298.327 160.432 298.543 160.276 298.831 160.072C299.119 159.868 299.335 159.688 299.479 159.556C299.611 159.424 299.791 159.256 299.995 159.04C300.547 158.44 300.751 157.888 300.811 157.132C300.811 156.04 300.103 155.548 299.059 155.548C298.411 155.548 297.895 155.728 297.523 156.088C297.151 156.448 296.899 156.88 296.791 157.372ZM303.887 157.048L302.987 156.64C303.431 155.344 304.595 154.492 306.335 154.492C307.163 154.492 307.847 154.684 308.375 155.068C308.903 155.452 309.167 155.968 309.167 156.604C309.167 157.576 308.651 158.296 307.691 158.572C308.615 158.632 309.359 159.328 309.359 160.576C309.359 161.368 309.071 161.992 308.495 162.436C307.919 162.88 307.187 163.108 306.287 163.108C304.451 163.108 303.179 162.232 302.759 160.852L303.731 160.432C304.247 161.524 305.123 162.076 306.359 162.076C307.523 162.076 308.255 161.536 308.255 160.588C308.255 159.664 307.535 159.196 306.095 159.196H305.159V158.2H305.903C307.211 158.2 308.063 157.612 308.063 156.808C308.063 155.98 307.379 155.512 306.287 155.512C305.003 155.512 304.223 156.172 303.887 157.048Z" fill="#1A3341" fill-opacity="0.6"/>
<path d="M267 40C267 38.8954 267.895 38 269 38H321C322.105 38 323 38.8954 323 40V148H267V40Z" fill="url(#paint6_linear_4002_20367)"/>
<path opacity="0.2" d="M279 38H311V148H279V38Z" fill="url(#paint7_linear_4002_20367)"/>
<path opacity="0.04" d="M311 38H321C322.105 38 323 38.8954 323 40V148H311V38Z" fill="#0D262C"/>
<path opacity="0.5" d="M267 40C267 38.8954 267.895 38 269 38H279V148H267V40Z" fill="url(#paint8_linear_4002_20367)"/>
<path d="M91.3084 23.136H85.7404V22.236H91.3084V23.136ZM98.2584 27H92.8464V26.004H95.4024V19.836L93.2544 20.832L92.8704 19.932L95.7504 18.552H96.4344V26.004H98.2584V27ZM104.962 27H103.918V25.284H99.3817V24.588L104.038 18.6H104.962V24.312H106.282V25.284H104.962V27ZM103.918 20.28L100.822 24.312H103.918V20.28ZM108.977 27.18L108.185 26.724L114.389 18.336L115.145 18.888L108.977 27.18ZM106.889 20.616C106.889 20.016 107.093 19.524 107.513 19.14C107.933 18.756 108.449 18.564 109.085 18.564C109.709 18.564 110.225 18.756 110.645 19.14C111.065 19.524 111.269 20.016 111.269 20.616C111.269 21.204 111.065 21.696 110.645 22.08C110.225 22.464 109.709 22.656 109.085 22.656C108.449 22.656 107.933 22.464 107.513 22.08C107.093 21.696 106.889 21.204 106.889 20.616ZM107.897 20.616C107.897 21.3 108.449 21.804 109.085 21.804C109.745 21.804 110.261 21.324 110.261 20.616C110.261 19.908 109.721 19.428 109.085 19.428C108.425 19.428 107.897 19.908 107.897 20.616ZM112.661 26.472C112.241 26.088 112.037 25.596 112.037 24.996C112.037 24.396 112.241 23.904 112.661 23.52C113.081 23.148 113.597 22.956 114.233 22.956C114.857 22.956 115.373 23.148 115.793 23.52C116.213 23.904 116.417 24.396 116.417 24.996C116.417 25.584 116.213 26.076 115.793 26.46C115.373 26.856 114.857 27.048 114.233 27.048C113.597 27.048 113.081 26.856 112.661 26.472ZM113.045 24.996C113.045 25.68 113.597 26.184 114.233 26.184C114.893 26.184 115.409 25.704 115.409 24.996C115.409 24.288 114.869 23.808 114.233 23.808C113.573 23.808 113.045 24.288 113.045 24.996Z" fill="#7DA4C1"/>
<path d="M128.747 36.3536C128.943 36.1583 128.943 35.8417 128.747 35.6465L125.566 32.4645C125.37 32.2692 125.054 32.2692 124.858 32.4645C124.663 32.6597 124.663 32.9763 124.858 33.1716L127.687 36L124.858 38.8284C124.663 39.0237 124.663 39.3403 124.858 39.5355C125.054 39.7308 125.37 39.7308 125.566 39.5355L128.747 36.3536ZM77 36.5L128.394 36.5L128.394 35.5L77 35.5L77 36.5Z" fill="#7DA4C1"/>
<path d="M216.996 23.136H211.428V22.236H216.996V23.136ZM218.054 22.8C218.054 21.504 218.33 20.46 218.87 19.68C219.41 18.9 220.202 18.504 221.258 18.504C223.406 18.504 224.474 20.076 224.474 22.8C224.474 24.108 224.21 25.14 223.67 25.92C223.13 26.7 222.338 27.096 221.282 27.096C220.262 27.096 219.47 26.7 218.906 25.908C218.342 25.116 218.054 24.084 218.054 22.8ZM219.158 22.8C219.158 24.828 219.95 26.076 221.282 26.076C222.674 26.076 223.37 24.984 223.37 22.8C223.37 20.616 222.662 19.524 221.258 19.524C219.854 19.524 219.158 20.616 219.158 22.8ZM226.185 27C225.741 27.048 225.405 26.796 225.405 26.364C225.405 25.944 225.669 25.68 226.137 25.68C226.665 25.68 227.013 26.04 227.013 26.712C227.013 27.912 226.353 28.524 225.477 28.728L225.225 28.164C225.489 28.092 225.729 27.948 225.945 27.72C226.149 27.492 226.233 27.252 226.185 27ZM228.966 21.372L228.09 21.06C228.39 19.56 229.47 18.504 231.246 18.504C232.974 18.504 233.97 19.5 233.97 21.024C233.934 22.284 233.346 23.28 232.458 24.084C231.834 24.672 231.342 25.008 230.682 25.428L229.758 26.004H234.282V27H227.982V26.184L229.686 24.972C230.682 24.264 231.33 23.772 231.63 23.496C232.458 22.74 232.866 21.948 232.866 21.132C232.866 20.028 232.194 19.548 231.174 19.548C229.878 19.548 229.206 20.364 228.966 21.372ZM237.29 27.18L236.498 26.724L242.702 18.336L243.458 18.888L237.29 27.18ZM235.202 20.616C235.202 20.016 235.406 19.524 235.826 19.14C236.246 18.756 236.762 18.564 237.398 18.564C238.022 18.564 238.538 18.756 238.958 19.14C239.378 19.524 239.582 20.016 239.582 20.616C239.582 21.204 239.378 21.696 238.958 22.08C238.538 22.464 238.022 22.656 237.398 22.656C236.762 22.656 236.246 22.464 235.826 22.08C235.406 21.696 235.202 21.204 235.202 20.616ZM236.21 20.616C236.21 21.3 236.762 21.804 237.398 21.804C238.058 21.804 238.574 21.324 238.574 20.616C238.574 19.908 238.034 19.428 237.398 19.428C236.738 19.428 236.21 19.908 236.21 20.616ZM240.974 26.472C240.554 26.088 240.35 25.596 240.35 24.996C240.35 24.396 240.554 23.904 240.974 23.52C241.394 23.148 241.91 22.956 242.546 22.956C243.17 22.956 243.686 23.148 244.106 23.52C244.526 23.904 244.73 24.396 244.73 24.996C244.73 25.584 244.526 26.076 244.106 26.46C243.686 26.856 243.17 27.048 242.546 27.048C241.91 27.048 241.394 26.856 240.974 26.472ZM241.358 24.996C241.358 25.68 241.91 26.184 242.546 26.184C243.206 26.184 243.722 25.704 243.722 24.996C243.722 24.288 243.182 23.808 242.546 23.808C241.886 23.808 241.358 24.288 241.358 24.996Z" fill="#7DA4C1"/>
<path d="M255.778 36.3536C255.973 36.1583 255.973 35.8417 255.778 35.6464L252.596 32.4645C252.401 32.2692 252.084 32.2692 251.889 32.4645C251.693 32.6597 251.693 32.9763 251.889 33.1716L254.717 36L251.889 38.8284C251.693 39.0237 251.693 39.3403 251.889 39.5355C252.084 39.7308 252.401 39.7308 252.596 39.5355L255.778 36.3536ZM205 36.5L255.424 36.5L255.424 35.5L205 35.5L205 36.5Z" fill="#7DA4C1"/>
<defs>
<linearGradient id="paint0_linear_4002_20367" x1="167" y1="36" x2="167" y2="148" gradientUnits="userSpaceOnUse">
<stop stop-color="#45B8DB"/>
<stop offset="1" stop-color="#ADE4E4"/>
</linearGradient>
<linearGradient id="paint1_linear_4002_20367" x1="167" y1="36" x2="167" y2="148" gradientUnits="userSpaceOnUse">
<stop stop-color="white" stop-opacity="0"/>
<stop offset="0.739583" stop-color="white"/>
</linearGradient>
<linearGradient id="paint2_linear_4002_20367" x1="145" y1="-182.4" x2="145" y2="148" gradientUnits="userSpaceOnUse">
<stop stop-color="white" stop-opacity="0.05"/>
<stop offset="0.75" stop-color="white" stop-opacity="0.8"/>
</linearGradient>
<linearGradient id="paint3_linear_4002_20367" x1="39" y1="20" x2="39" y2="148" gradientUnits="userSpaceOnUse">
<stop stop-color="#45B8DB"/>
<stop offset="1" stop-color="#ADE4E4"/>
</linearGradient>
<linearGradient id="paint4_linear_4002_20367" x1="39" y1="20" x2="39" y2="148" gradientUnits="userSpaceOnUse">
<stop stop-color="white" stop-opacity="0"/>
<stop offset="0.739583" stop-color="white"/>
</linearGradient>
<linearGradient id="paint5_linear_4002_20367" x1="17" y1="-229.6" x2="17" y2="148" gradientUnits="userSpaceOnUse">
<stop stop-color="white" stop-opacity="0.05"/>
<stop offset="0.75" stop-color="white" stop-opacity="0.8"/>
</linearGradient>
<linearGradient id="paint6_linear_4002_20367" x1="295" y1="38" x2="295" y2="148" gradientUnits="userSpaceOnUse">
<stop stop-color="#45B8DB"/>
<stop offset="1" stop-color="#ADE4E4"/>
</linearGradient>
<linearGradient id="paint7_linear_4002_20367" x1="295" y1="38" x2="295" y2="148" gradientUnits="userSpaceOnUse">
<stop stop-color="white" stop-opacity="0"/>
<stop offset="0.739583" stop-color="white"/>
</linearGradient>
<linearGradient id="paint8_linear_4002_20367" x1="273" y1="-176.5" x2="273" y2="148" gradientUnits="userSpaceOnUse">
<stop stop-color="white" stop-opacity="0.05"/>
<stop offset="0.75" stop-color="white" stop-opacity="0.8"/>
</linearGradient>
</defs>
</svg>
