<svg width="544" height="279" viewBox="0 0 544 279" fill="none" xmlns="http://www.w3.org/2000/svg">
<path opacity="0.7" d="M167 0C188.901 2.61164e-07 210.435 5.61934 229.544 16.3205C248.652 27.0217 264.695 42.4467 276.138 61.1202C287.581 79.7936 294.041 101.091 294.901 122.975C295.761 144.859 290.992 166.597 281.049 186.111C271.106 205.624 256.323 222.261 238.113 234.428C219.903 246.596 198.876 253.887 177.043 255.605C155.21 257.324 133.301 253.411 113.412 244.242C93.5226 235.073 76.3188 220.955 63.4458 203.237L167 128V0Z" fill="url(#paint0_radial_4002_9570)" fill-opacity="0.6"/>
<path d="M12.7907 151.144L12.2987 149.944L15.1187 148.576H16.0307V157H14.6387V150.292L12.7907 151.144ZM18.1843 151.264L16.9243 150.76C17.3443 149.32 18.6283 148.516 20.2723 148.516C22.1803 148.516 23.2963 149.512 23.2963 151C23.2963 152.092 22.8283 152.98 22.0003 153.748C21.5803 154.144 21.0043 154.588 20.2723 155.104L19.3123 155.656H23.5603V157H17.0443V155.932L18.9403 154.552C19.0003 154.504 19.1683 154.372 19.4683 154.144C19.7683 153.916 19.9603 153.76 20.0563 153.676C20.1523 153.592 20.3203 153.448 20.5723 153.244C20.8123 153.04 20.9803 152.872 21.0883 152.74C21.2803 152.5 21.6283 152.08 21.7363 151.744C21.7843 151.576 21.8083 151.408 21.8083 151.228C21.8083 150.412 21.2203 149.908 20.2483 149.908C19.2043 149.908 18.5203 150.484 18.1843 151.264ZM24.9302 157C24.4022 157.06 24.0542 156.592 24.0542 156.172C24.0542 155.68 24.4262 155.248 25.0142 155.248C25.7222 155.248 26.0102 155.836 26.0102 156.568C26.0102 157.096 25.8182 157.564 25.4462 157.96C25.0742 158.356 24.6542 158.608 24.1862 158.704L23.8502 157.912C24.0542 157.876 24.2822 157.756 24.5342 157.564C24.7742 157.36 24.9062 157.18 24.9302 157ZM26.5851 151.144L26.0931 149.944L28.9131 148.576H29.8251V157H28.4331V150.292L26.5851 151.144Z" fill="#1A3341"/>
<path d="M39.1489 209.8C39.1489 208.528 39.4729 207.496 40.1089 206.704C40.7449 205.912 41.6329 205.516 42.7729 205.516C43.9249 205.516 44.8249 205.912 45.4609 206.704C46.0969 207.496 46.4209 208.528 46.4209 209.8C46.4209 211.084 46.1089 212.116 45.4729 212.896C44.8369 213.688 43.9489 214.084 42.7969 214.084C41.6449 214.084 40.7449 213.688 40.1089 212.896C39.4729 212.116 39.1489 211.084 39.1489 209.8ZM41.1889 207.652C40.8169 208.156 40.6369 208.876 40.6369 209.8C40.6369 210.724 40.8289 211.444 41.2129 211.948C41.5849 212.452 42.1129 212.704 42.7969 212.704C44.2249 212.704 44.9329 211.732 44.9329 209.8C44.9329 207.916 44.2129 206.896 42.7729 206.896C42.0889 206.896 41.5609 207.148 41.1889 207.652ZM47.8091 214C47.2811 214.06 46.9331 213.592 46.9331 213.172C46.9331 212.68 47.3051 212.248 47.8931 212.248C48.6011 212.248 48.8891 212.836 48.8891 213.568C48.8891 214.096 48.6971 214.564 48.3251 214.96C47.9531 215.356 47.5331 215.608 47.0651 215.704L46.7291 214.912C46.9331 214.876 47.1611 214.756 47.4131 214.564C47.6531 214.36 47.7851 214.18 47.8091 214ZM53.94 206.956H49.128V205.6H55.656V206.512L51.696 214H50.172L53.94 206.956Z" fill="#1A3341"/>
<path d="M229.144 239.902C207.909 251.695 183.757 257.202 159.509 255.781C135.262 254.359 111.919 246.068 92.2072 231.875L101.182 219.41C118.528 231.9 139.07 239.196 160.408 240.447C181.746 241.698 203 236.851 221.686 226.474L229.144 239.902Z" fill="url(#paint1_linear_4002_9570)"/>
<path d="M92.7665 232.275C84.0192 226.048 76.0902 218.745 69.1664 210.538L80.9064 200.634C86.9994 207.856 93.9769 214.283 101.675 219.762L92.7665 232.275Z" fill="url(#paint2_linear_4002_9570)"/>
<path d="M64.3798 204.505C53.9283 190.486 46.4601 174.475 42.4358 157.458C38.4116 140.441 37.9166 122.78 40.9815 105.565L56.1037 108.257C53.4066 123.406 53.8422 138.948 57.3835 153.923C60.9249 168.898 67.4969 182.988 76.6942 195.325L64.3798 204.505Z" fill="url(#paint3_linear_4002_9570)"/>
<path d="M40.8857 106.11C46.0425 76.4005 61.5222 49.4656 84.5959 30.0533C107.67 10.641 136.856 -0.00213623 167.009 3.05176e-05L167.008 15.36C140.473 15.3581 114.789 24.7241 94.4844 41.8069C74.1795 58.8897 60.5574 82.5924 56.0194 108.737L40.8857 106.11Z" fill="#DBE9EE"/>
<path d="M167 0C195.407 3.38747e-07 223.006 9.44948 245.452 26.8602C267.898 44.2708 283.914 68.6534 290.979 96.1677C298.043 123.682 295.754 152.765 284.473 178.835C273.191 204.905 253.557 226.482 228.664 240.167L221.265 226.707C243.171 214.664 260.448 195.677 270.376 172.735C280.304 149.793 282.318 124.2 276.101 99.9876C269.884 75.775 255.79 54.3183 236.038 38.9969C216.286 23.6755 191.998 15.36 167 15.36V0Z" fill="#5A96A8"/>
<path d="M69.3127 210.711C67.2854 208.317 65.3469 205.849 63.501 203.312L75.9209 194.275C77.5453 196.507 79.2512 198.679 81.0352 200.786L69.3127 210.711Z" fill="#184977"/>
<path d="M265.372 24.502H263.968V22.906H259.216V21.97L264.172 16.102H265.372V21.622H266.8V22.906H265.372V24.502ZM263.968 18.394L261.136 21.622H263.968V18.394ZM268.156 18.766L266.896 18.262C267.316 16.822 268.6 16.018 270.244 16.018C272.152 16.018 273.268 17.014 273.268 18.502C273.268 19.594 272.8 20.482 271.972 21.25C271.552 21.646 270.976 22.09 270.244 22.606L269.284 23.158H273.532V24.502H267.016V23.434L268.912 22.054C268.972 22.006 269.14 21.874 269.44 21.646C269.74 21.418 269.932 21.262 270.028 21.178C270.124 21.094 270.292 20.95 270.544 20.746C270.784 20.542 270.952 20.374 271.06 20.242C271.252 20.002 271.6 19.582 271.708 19.246C271.756 19.078 271.78 18.91 271.78 18.73C271.78 17.914 271.192 17.41 270.22 17.41C269.176 17.41 268.492 17.986 268.156 18.766ZM274.902 24.502C274.374 24.562 274.026 24.094 274.026 23.674C274.026 23.182 274.398 22.75 274.986 22.75C275.694 22.75 275.982 23.338 275.982 24.07C275.982 24.598 275.79 25.066 275.418 25.462C275.046 25.858 274.626 26.11 274.158 26.206L273.822 25.414C274.026 25.378 274.254 25.258 274.506 25.066C274.746 24.862 274.878 24.682 274.902 24.502ZM277.66 18.766L276.4 18.262C276.82 16.822 278.104 16.018 279.748 16.018C281.656 16.018 282.772 17.014 282.772 18.502C282.772 19.594 282.304 20.482 281.476 21.25C281.056 21.646 280.48 22.09 279.748 22.606L278.788 23.158H283.036V24.502H276.52V23.434L278.416 22.054C278.476 22.006 278.644 21.874 278.944 21.646C279.244 21.418 279.436 21.262 279.532 21.178C279.628 21.094 279.796 20.95 280.048 20.746C280.288 20.542 280.456 20.374 280.564 20.242C280.756 20.002 281.104 19.582 281.212 19.246C281.26 19.078 281.284 18.91 281.284 18.73C281.284 17.914 280.696 17.41 279.724 17.41C278.68 17.41 277.996 17.986 277.66 18.766Z" fill="#1A3341"/>
<path d="M148.516 270.144L148.024 268.944L150.844 267.576H151.756V276H150.364V269.292L148.516 270.144ZM156.19 271.068H156.538C157.45 271.068 158.182 270.612 158.182 269.928C158.182 269.208 157.534 268.824 156.346 268.824C155.29 268.824 154.522 269.232 154.522 269.916C154.522 270.588 155.194 271.068 156.19 271.068ZM156.514 272.304H156.226C155.038 272.304 154.258 272.844 154.258 273.528C154.258 274.296 155.05 274.788 156.358 274.788C157.642 274.788 158.446 274.32 158.446 273.552C158.446 272.772 157.75 272.304 156.514 272.304ZM156.37 276.096C155.302 276.096 154.426 275.88 153.766 275.436C153.106 275.004 152.77 274.416 152.77 273.66C152.77 272.736 153.274 271.968 154.174 271.644C153.418 271.32 153.034 270.732 153.034 269.856C153.034 268.416 154.282 267.504 156.358 267.504C158.482 267.504 159.682 268.416 159.682 269.856C159.682 270.624 159.238 271.32 158.422 271.62C159.442 271.872 159.946 272.544 159.946 273.612C159.946 274.38 159.61 274.98 158.938 275.424C158.266 275.868 157.414 276.096 156.37 276.096ZM161.37 276C160.842 276.06 160.494 275.592 160.494 275.172C160.494 274.68 160.866 274.248 161.454 274.248C162.162 274.248 162.45 274.836 162.45 275.568C162.45 276.096 162.258 276.564 161.886 276.96C161.514 277.356 161.094 277.608 160.626 277.704L160.29 276.912C160.494 276.876 160.722 276.756 160.974 276.564C161.214 276.36 161.346 276.18 161.37 276ZM164.201 270L162.965 269.448C163.397 268.236 164.669 267.492 166.241 267.492C167.129 267.492 167.861 267.684 168.425 268.068C168.989 268.464 169.277 268.968 169.277 269.604C169.277 270.552 168.725 271.284 167.921 271.524C168.773 271.728 169.457 272.34 169.457 273.492C169.457 274.272 169.157 274.908 168.557 275.376C167.945 275.856 167.201 276.096 166.301 276.096C165.341 276.096 164.429 275.868 163.637 275.208C163.241 274.884 162.953 274.476 162.797 274.008L164.117 273.456C164.285 273.828 164.573 274.128 164.969 274.356C165.365 274.584 165.761 274.704 166.181 274.704C167.201 274.704 167.957 274.26 167.957 273.504C167.957 272.652 167.213 272.364 165.917 272.364H165.101V271.044H165.965C167.057 271.044 167.789 270.564 167.789 269.904C167.789 269.58 167.633 269.316 167.321 269.136C167.009 268.956 166.613 268.86 166.121 268.86C165.629 268.86 165.245 268.956 164.945 269.148C164.645 269.34 164.405 269.628 164.201 270Z" fill="#1A3341"/>
<path d="M64.2541 237H62.8501V235.404H58.0981V234.468L63.0541 228.6H64.2541V234.12H65.6821V235.404H64.2541V237ZM62.8501 230.892L60.0181 234.12H62.8501V230.892ZM66.8457 237C66.3177 237.06 65.9697 236.592 65.9697 236.172C65.9697 235.68 66.3417 235.248 66.9297 235.248C67.6377 235.248 67.9257 235.836 67.9257 236.568C67.9257 237.096 67.7337 237.564 67.3617 237.96C66.9897 238.356 66.5697 238.608 66.1017 238.704L65.7657 237.912C65.9697 237.876 66.1977 237.756 66.4497 237.564C66.6897 237.36 66.8217 237.18 66.8457 237ZM74.3566 237H72.9526V235.404H68.2006V234.468L73.1566 228.6H74.3566V234.12H75.7846V235.404H74.3566V237ZM72.9526 230.892L70.1206 234.12H72.9526V230.892Z" fill="#1A3341"/>
<path d="M58.8647 13.264L57.6047 12.76C58.0247 11.32 59.3087 10.516 60.9527 10.516C62.8607 10.516 63.9767 11.512 63.9767 13C63.9767 14.092 63.5087 14.98 62.6807 15.748C62.2607 16.144 61.6847 16.588 60.9527 17.104L59.9927 17.656H64.2407V19H57.7247V17.932L59.6207 16.552C59.6807 16.504 59.8487 16.372 60.1487 16.144C60.4487 15.916 60.6407 15.76 60.7367 15.676C60.8327 15.592 61.0007 15.448 61.2527 15.244C61.4927 15.04 61.6607 14.872 61.7687 14.74C61.9607 14.5 62.3087 14.08 62.4167 13.744C62.4647 13.576 62.4887 13.408 62.4887 13.228C62.4887 12.412 61.9007 11.908 60.9287 11.908C59.8847 11.908 59.2007 12.484 58.8647 13.264ZM65.8027 13.264L64.5427 12.76C64.9627 11.32 66.2467 10.516 67.8907 10.516C69.7987 10.516 70.9147 11.512 70.9147 13C70.9147 14.092 70.4467 14.98 69.6187 15.748C69.1987 16.144 68.6227 16.588 67.8907 17.104L66.9307 17.656H71.1787V19H64.6627V17.932L66.5587 16.552C66.6187 16.504 66.7867 16.372 67.0867 16.144C67.3867 15.916 67.5787 15.76 67.6747 15.676C67.7707 15.592 67.9387 15.448 68.1907 15.244C68.4307 15.04 68.5987 14.872 68.7067 14.74C68.8987 14.5 69.2467 14.08 69.3547 13.744C69.4027 13.576 69.4267 13.408 69.4267 13.228C69.4267 12.412 68.8387 11.908 67.8667 11.908C66.8227 11.908 66.1387 12.484 65.8027 13.264ZM72.5486 19C72.0206 19.06 71.6726 18.592 71.6726 18.172C71.6726 17.68 72.0446 17.248 72.6326 17.248C73.3406 17.248 73.6286 17.836 73.6286 18.568C73.6286 19.096 73.4366 19.564 73.0646 19.96C72.6926 20.356 72.2726 20.608 71.8046 20.704L71.4686 19.912C71.6726 19.876 71.9006 19.756 72.1526 19.564C72.3926 19.36 72.5246 19.18 72.5486 19ZM75.3795 13L74.1435 12.448C74.5755 11.236 75.8475 10.492 77.4195 10.492C78.3075 10.492 79.0395 10.684 79.6035 11.068C80.1675 11.464 80.4555 11.968 80.4555 12.604C80.4555 13.552 79.9035 14.284 79.0995 14.524C79.9515 14.728 80.6355 15.34 80.6355 16.492C80.6355 17.272 80.3355 17.908 79.7355 18.376C79.1235 18.856 78.3795 19.096 77.4795 19.096C76.5195 19.096 75.6075 18.868 74.8155 18.208C74.4195 17.884 74.1315 17.476 73.9755 17.008L75.2955 16.456C75.4635 16.828 75.7515 17.128 76.1475 17.356C76.5435 17.584 76.9395 17.704 77.3595 17.704C78.3795 17.704 79.1355 17.26 79.1355 16.504C79.1355 15.652 78.3915 15.364 77.0955 15.364H76.2795V14.044H77.1435C78.2355 14.044 78.9675 13.564 78.9675 12.904C78.9675 12.58 78.8115 12.316 78.4995 12.136C78.1875 11.956 77.7915 11.86 77.2995 11.86C76.8075 11.86 76.4235 11.956 76.1235 12.148C75.8235 12.34 75.5835 12.628 75.3795 13Z" fill="#1A3341"/>
<path d="M132.565 111.816C135.744 111.816 138.187 112.36 139.893 113.448C141.6 114.515 142.453 116.072 142.453 118.12V118.568C142.453 120.701 141.547 122.376 139.733 123.592C137.941 124.787 135.477 125.384 132.341 125.384C130.123 125.384 128.192 125.064 126.549 124.424C124.928 123.784 123.68 122.867 122.805 121.672C121.952 120.477 121.525 119.069 121.525 117.448V112.136C121.525 109.469 122.464 107.389 124.341 105.896C126.24 104.381 128.864 103.624 132.213 103.624C134.219 103.624 135.968 103.891 137.461 104.424C138.955 104.957 140.096 105.725 140.885 106.728C141.696 107.709 142.101 108.872 142.101 110.216V110.472H138.933V110.216C138.933 109.085 138.336 108.2 137.141 107.56C135.947 106.92 134.304 106.6 132.213 106.6C129.781 106.6 127.915 107.069 126.613 108.008C125.333 108.947 124.693 110.301 124.693 112.072V114.056C126.549 112.563 129.173 111.816 132.565 111.816ZM139.285 118.248C139.285 115.923 137.035 114.76 132.533 114.76C130.677 114.76 129.067 114.984 127.701 115.432C126.336 115.859 125.333 116.477 124.693 117.288V117.48C124.693 119.016 125.365 120.221 126.709 121.096C128.053 121.971 129.941 122.408 132.373 122.408C134.549 122.408 136.245 122.088 137.461 121.448C138.677 120.808 139.285 119.891 139.285 118.696V118.248ZM156.217 111.4C159.375 111.4 161.85 111.987 163.642 113.16C165.455 114.333 166.361 115.955 166.361 118.024V118.536C166.361 120.712 165.476 122.397 163.705 123.592C161.935 124.787 159.439 125.384 156.217 125.384C152.975 125.384 150.468 124.883 148.697 123.88C146.948 122.877 146.073 121.448 146.073 119.592V119.336H149.273V119.592C149.273 120.467 149.881 121.16 151.097 121.672C152.314 122.163 153.988 122.408 156.122 122.408C158.319 122.408 160.047 122.067 161.306 121.384C162.564 120.701 163.194 119.763 163.194 118.568V118.056C163.194 116.904 162.554 115.997 161.274 115.336C160.015 114.675 158.266 114.344 156.026 114.344C154.063 114.344 152.452 114.6 151.194 115.112C149.935 115.603 149.273 116.253 149.209 117.064H146.073L146.777 104.008H165.017V106.856H149.593L149.273 113.032C150.916 111.944 153.231 111.4 156.217 111.4ZM174.833 120.968V121.448L171.953 129.576H169.009L171.345 120.968H174.833ZM188.966 111.816C192.145 111.816 194.588 112.36 196.294 113.448C198.001 114.515 198.854 116.072 198.854 118.12V118.568C198.854 120.701 197.948 122.376 196.134 123.592C194.342 124.787 191.878 125.384 188.742 125.384C186.524 125.384 184.593 125.064 182.95 124.424C181.329 123.784 180.081 122.867 179.206 121.672C178.353 120.477 177.926 119.069 177.926 117.448V112.136C177.926 109.469 178.865 107.389 180.742 105.896C182.641 104.381 185.265 103.624 188.614 103.624C190.62 103.624 192.369 103.891 193.862 104.424C195.356 104.957 196.497 105.725 197.286 106.728C198.097 107.709 198.502 108.872 198.502 110.216V110.472H195.334V110.216C195.334 109.085 194.737 108.2 193.542 107.56C192.348 106.92 190.705 106.6 188.614 106.6C186.182 106.6 184.316 107.069 183.014 108.008C181.734 108.947 181.094 110.301 181.094 112.072V114.056C182.95 112.563 185.574 111.816 188.966 111.816ZM195.686 118.248C195.686 115.923 193.436 114.76 188.934 114.76C187.078 114.76 185.468 114.984 184.102 115.432C182.737 115.859 181.734 116.477 181.094 117.288V117.48C181.094 119.016 181.766 120.221 183.11 121.096C184.454 121.971 186.342 122.408 188.774 122.408C190.95 122.408 192.646 122.088 193.862 121.448C195.078 120.808 195.686 119.891 195.686 118.696V118.248Z" fill="#1A3341"/>
<path d="M209.774 123.33L208.322 122.494L219.696 107.116L221.082 108.128L209.774 123.33ZM205.946 111.296C205.946 110.196 206.32 109.294 207.09 108.59C207.86 107.886 208.806 107.534 209.972 107.534C211.116 107.534 212.062 107.886 212.832 108.59C213.602 109.294 213.976 110.196 213.976 111.296C213.976 112.374 213.602 113.276 212.832 113.98C212.062 114.684 211.116 115.036 209.972 115.036C208.806 115.036 207.86 114.684 207.09 113.98C206.32 113.276 205.946 112.374 205.946 111.296ZM207.794 111.296C207.794 112.55 208.806 113.474 209.972 113.474C211.182 113.474 212.128 112.594 212.128 111.296C212.128 109.998 211.138 109.118 209.972 109.118C208.762 109.118 207.794 109.998 207.794 111.296ZM216.528 122.032C215.758 121.328 215.384 120.426 215.384 119.326C215.384 118.226 215.758 117.324 216.528 116.62C217.298 115.938 218.244 115.586 219.41 115.586C220.554 115.586 221.5 115.938 222.27 116.62C223.04 117.324 223.414 118.226 223.414 119.326C223.414 120.404 223.04 121.306 222.27 122.01C221.5 122.736 220.554 123.088 219.41 123.088C218.244 123.088 217.298 122.736 216.528 122.032ZM217.232 119.326C217.232 120.58 218.244 121.504 219.41 121.504C220.62 121.504 221.566 120.624 221.566 119.326C221.566 118.028 220.576 117.148 219.41 117.148C218.2 117.148 217.232 118.028 217.232 119.326Z" fill="#1A3341"/>
<path d="M91.4967 140.954L85.9717 148H84.9707V138.9H86.1537V145.946L91.6657 138.9H92.6797V148H91.4967V140.954ZM100.404 148H99.3121V145.075H95.4121V148H94.3201V141.24H95.4121V144.048H99.3121V141.24H100.404V148ZM106.252 150.6H105.16V148.13H105.082C103.951 148.13 103.067 147.805 102.43 147.155C101.78 146.505 101.455 145.66 101.455 144.633C101.455 143.658 101.78 142.839 102.43 142.15C103.08 141.461 103.964 141.123 105.069 141.123H105.16V138.51H106.252V141.123H106.356C107.435 141.123 108.319 141.448 108.982 142.111C109.645 142.774 109.97 143.619 109.97 144.633C109.97 145.66 109.645 146.505 109.008 147.155C108.358 147.805 107.461 148.13 106.33 148.13H106.252V150.6ZM102.612 144.633C102.612 146.141 103.483 147.09 105.082 147.09H105.16V142.163H105.069C103.496 142.163 102.612 143.164 102.612 144.633ZM106.33 142.163H106.252V147.09H106.33C107.955 147.09 108.813 146.154 108.813 144.633C108.813 143.19 107.903 142.163 106.33 142.163ZM112.113 150.6H111.021V141.24H112.113V142.085C112.568 141.422 113.296 141.084 114.297 141.084C115.285 141.084 116.078 141.396 116.663 142.033C117.248 142.67 117.534 143.489 117.534 144.503C117.534 145.543 117.222 146.401 116.598 147.09C115.961 147.779 115.155 148.117 114.167 148.117C113.257 148.117 112.568 147.883 112.113 147.428V150.6ZM114.18 142.111C113.192 142.111 112.425 142.748 112.113 143.515V146.037C112.503 146.739 113.153 147.09 114.076 147.09C114.739 147.09 115.298 146.856 115.727 146.388C116.156 145.92 116.377 145.322 116.377 144.581C116.377 143.073 115.532 142.111 114.18 142.111ZM119.13 142.865L118.571 142.046C119.195 141.461 120.274 141.084 121.275 141.084C123.082 141.084 124.044 142.072 124.044 143.827V148H122.952V146.999C122.523 147.623 121.678 148.091 120.586 148.091C119.117 148.091 118.129 147.272 118.129 146.024C118.129 144.607 119.338 143.931 121.366 143.931C122.003 143.931 122.523 143.996 122.952 144.126C122.952 142.813 122.484 142.111 121.145 142.111C120.469 142.111 119.793 142.358 119.13 142.865ZM120.846 147.103C121.353 147.103 121.808 146.96 122.185 146.687C122.562 146.414 122.809 146.102 122.952 145.777V145.088C122.575 144.958 122.094 144.893 121.509 144.893C120.027 144.893 119.286 145.257 119.286 145.985C119.286 146.674 119.91 147.103 120.846 147.103ZM130.663 146.05L131.443 146.609C130.936 147.558 129.792 148.117 128.661 148.117C127.582 148.117 126.711 147.792 126.048 147.155C125.385 146.518 125.047 145.673 125.047 144.607C125.047 143.593 125.372 142.748 126.035 142.085C126.698 141.422 127.543 141.084 128.596 141.084C129.805 141.084 130.884 141.63 131.339 142.462L130.494 143.034C130.039 142.423 129.415 142.111 128.622 142.111C127.92 142.111 127.348 142.345 126.893 142.813C126.438 143.281 126.204 143.879 126.204 144.607C126.204 145.348 126.438 145.946 126.919 146.401C127.387 146.856 127.998 147.09 128.765 147.09C129.571 147.09 130.208 146.739 130.663 146.05ZM134.122 142.267H131.535V141.24H137.827V142.267H135.214V148H134.122V142.267ZM139.599 150.6H138.507V141.24H139.599V142.085C140.054 141.422 140.782 141.084 141.783 141.084C142.771 141.084 143.564 141.396 144.149 142.033C144.734 142.67 145.02 143.489 145.02 144.503C145.02 145.543 144.708 146.401 144.084 147.09C143.447 147.779 142.641 148.117 141.653 148.117C140.743 148.117 140.054 147.883 139.599 147.428V150.6ZM141.666 142.111C140.678 142.111 139.911 142.748 139.599 143.515V146.037C139.989 146.739 140.639 147.09 141.562 147.09C142.225 147.09 142.784 146.856 143.213 146.388C143.642 145.92 143.863 145.322 143.863 144.581C143.863 143.073 143.018 142.111 141.666 142.111ZM145.972 150.574L146.401 149.625C146.505 149.664 146.596 149.69 146.687 149.69C147.194 149.69 147.545 149.339 148 148.26L148.208 147.753L144.932 141.24H146.219L148.754 146.375L150.665 141.24H151.861L149.287 147.896C148.845 148.988 148.429 149.729 148.052 150.132C147.662 150.535 147.22 150.73 146.726 150.73C146.44 150.73 146.193 150.678 145.972 150.574ZM153.558 148H152.466V141.24H153.558V144.269L156.977 141.24H158.446L154.949 144.347L158.615 148H157.159L154.117 145.023L153.558 145.543V148ZM160.985 142.267H158.398V141.24H164.69V142.267H162.077V148H160.985V142.267ZM165.781 150.574L166.21 149.625C166.314 149.664 166.405 149.69 166.496 149.69C167.003 149.69 167.354 149.339 167.809 148.26L168.017 147.753L164.741 141.24H166.028L168.563 146.375L170.474 141.24H171.67L169.096 147.896C168.654 148.988 168.238 149.729 167.861 150.132C167.471 150.535 167.029 150.73 166.535 150.73C166.249 150.73 166.002 150.678 165.781 150.574ZM173.366 150.6H172.274V141.24H173.366V142.085C173.821 141.422 174.549 141.084 175.55 141.084C176.538 141.084 177.331 141.396 177.916 142.033C178.501 142.67 178.787 143.489 178.787 144.503C178.787 145.543 178.475 146.401 177.851 147.09C177.214 147.779 176.408 148.117 175.42 148.117C174.51 148.117 173.821 147.883 173.366 147.428V150.6ZM175.433 142.111C174.445 142.111 173.678 142.748 173.366 143.515V146.037C173.756 146.739 174.406 147.09 175.329 147.09C175.992 147.09 176.551 146.856 176.98 146.388C177.409 145.92 177.63 145.322 177.63 144.581C177.63 143.073 176.785 142.111 175.433 142.111ZM185.947 148H184.855V145.075H180.955V148H179.863V141.24H180.955V144.048H184.855V141.24H185.947V148ZM189.845 148H187.401V141.24H188.493V143.346H189.949C191.938 143.346 192.731 144.269 192.731 145.66C192.731 147.025 191.86 148 189.845 148ZM189.832 144.386H188.493V146.96H189.819C191.067 146.96 191.574 146.518 191.574 145.673C191.574 144.815 190.989 144.386 189.832 144.386ZM194.798 148H193.693V141.24H194.798V148ZM201.472 146.063L202.174 146.713C201.55 147.649 200.653 148.117 199.47 148.117C198.391 148.117 197.52 147.792 196.857 147.155C196.194 146.518 195.869 145.673 195.869 144.607C195.869 143.58 196.168 142.735 196.779 142.072C197.377 141.409 198.222 141.084 199.314 141.084C200.211 141.084 200.965 141.37 201.55 141.929C202.135 142.488 202.434 143.229 202.434 144.152C202.434 144.451 202.408 144.724 202.369 144.971H197.039C197.104 146.31 198.092 147.09 199.509 147.09C200.302 147.09 201.056 146.674 201.472 146.063ZM199.236 142.085C198.001 142.085 197.195 142.839 197.026 143.983H201.277C201.212 142.787 200.445 142.085 199.236 142.085ZM213.291 148H212.199V142.267H208.377V148H207.285V141.24H213.291V148ZM220.623 148H219.531V142.28H216.671V142.592C216.671 144.776 216.424 146.284 215.93 147.064C215.436 147.844 214.825 148.104 213.98 148V146.96C214.851 146.96 215.579 146.583 215.579 142.631V141.24H220.623V148ZM222.602 142.865L222.043 142.046C222.667 141.461 223.746 141.084 224.747 141.084C226.554 141.084 227.516 142.072 227.516 143.827V148H226.424V146.999C225.995 147.623 225.15 148.091 224.058 148.091C222.589 148.091 221.601 147.272 221.601 146.024C221.601 144.607 222.81 143.931 224.838 143.931C225.475 143.931 225.995 143.996 226.424 144.126C226.424 142.813 225.956 142.111 224.617 142.111C223.941 142.111 223.265 142.358 222.602 142.865ZM224.318 147.103C224.825 147.103 225.28 146.96 225.657 146.687C226.034 146.414 226.281 146.102 226.424 145.777V145.088C226.047 144.958 225.566 144.893 224.981 144.893C223.499 144.893 222.758 145.257 222.758 145.985C222.758 146.674 223.382 147.103 224.318 147.103ZM230.474 142.267H227.887V141.24H234.179V142.267H231.566V148H230.474V142.267ZM239.832 146.063L240.534 146.713C239.91 147.649 239.013 148.117 237.83 148.117C236.751 148.117 235.88 147.792 235.217 147.155C234.554 146.518 234.229 145.673 234.229 144.607C234.229 143.58 234.528 142.735 235.139 142.072C235.737 141.409 236.582 141.084 237.674 141.084C238.571 141.084 239.325 141.37 239.91 141.929C240.495 142.488 240.794 143.229 240.794 144.152C240.794 144.451 240.768 144.724 240.729 144.971H235.399C235.464 146.31 236.452 147.09 237.869 147.09C238.662 147.09 239.416 146.674 239.832 146.063ZM237.596 142.085C236.361 142.085 235.555 142.839 235.386 143.983H239.637C239.572 142.787 238.805 142.085 237.596 142.085ZM240.78 148L243.718 144.36L240.845 141.24H242.236L244.979 144.191V141.24H246.071V144.191L248.853 141.24H250.205L247.306 144.334L250.322 148H248.97L246.513 144.997L246.071 145.413V148H244.979V145.426L244.511 145.049L242.106 148H240.78ZM256.111 142.943L251.99 148H250.989V141.24H252.081V146.31L256.189 141.24H257.203V148H256.111V142.943ZM139.757 165.898L139.016 166.652C138.054 165.82 137.352 164.871 136.91 163.805C136.468 162.739 136.247 161.686 136.247 160.633C136.247 158.553 137.066 156.356 139.029 154.601L139.744 155.355C138.158 156.837 137.365 158.592 137.365 160.633C137.365 162.57 138.249 164.442 139.757 165.898ZM139.763 164L142.701 160.36L139.828 157.24H141.219L143.962 160.191V157.24H145.054V160.191L147.836 157.24H149.188L146.289 160.334L149.305 164H147.953L145.496 160.997L145.054 161.413V164H143.962V161.426L143.494 161.049L141.089 164H139.763ZM149.7 166.665L148.738 166.301L153.054 154.731L154.016 155.043L149.7 166.665ZM154.534 165.638H153.494V162.96H154.248C154.937 161.907 155.197 160.425 155.197 157.864V157.24H160.163V162.96H161.138V165.638H160.098V164H154.534V165.638ZM159.071 158.28H156.224V158.748C156.224 160.477 155.951 161.881 155.418 162.96H159.071V158.28ZM167.525 158.267H164.938V157.24H171.23V158.267H168.617V164H167.525V158.267ZM172.202 158.865L171.643 158.046C172.267 157.461 173.346 157.084 174.347 157.084C176.154 157.084 177.116 158.072 177.116 159.827V164H176.024V162.999C175.595 163.623 174.75 164.091 173.658 164.091C172.189 164.091 171.201 163.272 171.201 162.024C171.201 160.607 172.41 159.931 174.438 159.931C175.075 159.931 175.595 159.996 176.024 160.126C176.024 158.813 175.556 158.111 174.217 158.111C173.541 158.111 172.865 158.358 172.202 158.865ZM173.918 163.103C174.425 163.103 174.88 162.96 175.257 162.687C175.634 162.414 175.881 162.102 176.024 161.777V161.088C175.647 160.958 175.166 160.893 174.581 160.893C173.099 160.893 172.358 161.257 172.358 161.985C172.358 162.674 172.982 163.103 173.918 163.103ZM179.588 166.6H178.496V157.24H179.588V158.085C180.043 157.422 180.771 157.084 181.772 157.084C182.76 157.084 183.553 157.396 184.138 158.033C184.723 158.67 185.009 159.489 185.009 160.503C185.009 161.543 184.697 162.401 184.073 163.09C183.436 163.779 182.63 164.117 181.642 164.117C180.732 164.117 180.043 163.883 179.588 163.428V166.6ZM181.655 158.111C180.667 158.111 179.9 158.748 179.588 159.515V162.037C179.978 162.739 180.628 163.09 181.551 163.09C182.214 163.09 182.773 162.856 183.202 162.388C183.631 161.92 183.852 161.322 183.852 160.581C183.852 159.073 183.007 158.111 181.655 158.111ZM191.207 158.943L187.086 164H186.085V157.24H187.177V162.31L191.285 157.24H192.299V164H191.207V158.943ZM198.144 166.6H197.052V164.13H196.974C195.843 164.13 194.959 163.805 194.322 163.155C193.672 162.505 193.347 161.66 193.347 160.633C193.347 159.658 193.672 158.839 194.322 158.15C194.972 157.461 195.856 157.123 196.961 157.123H197.052V154.51H198.144V157.123H198.248C199.327 157.123 200.211 157.448 200.874 158.111C201.537 158.774 201.862 159.619 201.862 160.633C201.862 161.66 201.537 162.505 200.9 163.155C200.25 163.805 199.353 164.13 198.222 164.13H198.144V166.6ZM194.504 160.633C194.504 162.141 195.375 163.09 196.974 163.09H197.052V158.163H196.961C195.388 158.163 194.504 159.164 194.504 160.633ZM198.222 158.163H198.144V163.09H198.222C199.847 163.09 200.705 162.154 200.705 160.633C200.705 159.19 199.795 158.163 198.222 158.163ZM202.991 166.639L202.25 165.924C203.03 165.235 203.628 164.429 204.031 163.467C204.434 162.518 204.629 161.582 204.629 160.633C204.629 158.592 203.836 156.837 202.25 155.368L202.978 154.601C204.941 156.356 205.747 158.553 205.747 160.633C205.747 161.686 205.526 162.739 205.097 163.805C204.655 164.871 203.953 165.82 202.991 166.639Z" fill="#3C525E"/>
<rect x="352" y="137" width="10" height="10" fill="#5A96A8"/>
<path d="M370.432 141.8C370.432 140.588 370.84 139.556 371.668 138.728C372.496 137.9 373.504 137.492 374.704 137.492C375.892 137.492 376.9 137.9 377.728 138.716C378.556 139.532 378.964 140.564 378.964 141.8C378.964 143.024 378.556 144.044 377.728 144.872C376.9 145.7 375.892 146.108 374.704 146.108C373.504 146.108 372.496 145.7 371.668 144.884C370.84 144.068 370.432 143.036 370.432 141.8ZM371.572 141.8C371.572 142.736 371.884 143.516 372.496 144.128C373.108 144.752 373.84 145.064 374.704 145.064C375.592 145.064 376.336 144.752 376.936 144.14C377.524 143.528 377.824 142.748 377.824 141.8C377.824 140.852 377.524 140.072 376.912 139.46C376.3 138.848 375.556 138.536 374.704 138.536C373.828 138.536 373.096 138.848 372.484 139.46C371.872 140.072 371.572 140.852 371.572 141.8ZM380.233 146H379.117L382.801 137.576H383.665L387.349 146H386.209L385.273 143.876H381.157L380.233 146ZM384.865 142.916L383.209 139.1L381.565 142.916H384.865ZM387.506 141.8C387.506 140.588 387.914 139.556 388.742 138.728C389.57 137.9 390.578 137.492 391.778 137.492C392.966 137.492 393.974 137.9 394.802 138.716C395.63 139.532 396.038 140.564 396.038 141.8C396.038 143.024 395.63 144.044 394.802 144.872C393.974 145.7 392.966 146.108 391.778 146.108C390.578 146.108 389.57 145.7 388.742 144.884C387.914 144.068 387.506 143.036 387.506 141.8ZM388.646 141.8C388.646 142.736 388.958 143.516 389.57 144.128C390.182 144.752 390.914 145.064 391.778 145.064C392.666 145.064 393.41 144.752 394.01 144.14C394.598 143.528 394.898 142.748 394.898 141.8C394.898 140.852 394.598 140.072 393.986 139.46C393.374 138.848 392.63 138.536 391.778 138.536C390.902 138.536 390.17 138.848 389.558 139.46C388.946 140.072 388.646 140.852 388.646 141.8ZM403.478 144.908L402.782 145.544L400.598 142.976V142.904L402.794 140.384L403.478 140.996L401.798 142.952L403.478 144.908ZM405.794 144.908L405.098 145.544L402.914 142.976V142.904L405.122 140.384L405.806 140.996L404.114 142.952L405.794 144.908ZM408.425 142.904V146H407.333V137.6H410.597C412.889 137.6 414.041 138.476 414.041 140.24C414.041 140.996 413.765 141.632 413.213 142.136C412.649 142.652 411.773 142.904 410.585 142.904H408.425ZM410.645 138.62H408.425V141.896H410.561C412.145 141.896 412.913 141.272 412.913 140.228C412.913 139.16 412.157 138.62 410.645 138.62ZM413.993 146L417.665 141.428L414.065 137.6H415.397L418.997 141.38V137.6H420.089V141.392L423.689 137.6H425.033L421.397 141.428L425.105 146H423.797L420.569 142.028L420.089 142.496V146H418.997V142.484L418.469 141.992L415.253 146H413.993ZM426.005 147.536H424.961V144.98H425.849C426.377 144.152 426.965 142.076 426.965 138.62V137.6H432.641V144.98H433.697V147.536H432.653V146H426.005V147.536ZM431.549 138.62H428.009V139.4C428.009 140.42 427.913 141.476 427.721 142.568C427.517 143.66 427.289 144.464 427.025 144.98H431.549V138.62ZM439.556 142.904V142.976L437.372 145.544L436.676 144.908L438.356 142.952L436.676 140.996L437.36 140.384L439.556 142.904ZM437.24 142.904V142.976L435.056 145.544L434.348 144.908L436.04 142.952L434.348 140.996L435.032 140.384L437.24 142.904Z" fill="#1A3341" fill-opacity="0.6"/>
<rect width="10" height="10" transform="translate(352 157)" fill="#60CCCC"/>
<rect opacity="0.7" x="352" y="157" width="10" height="10" fill="#60CCCC"/>
<path d="M372.952 158.62H370.036V157.6H376.972V158.62H374.044V166H372.952V158.62ZM376.901 161.8C376.901 160.588 377.309 159.556 378.137 158.728C378.965 157.9 379.973 157.492 381.173 157.492C382.361 157.492 383.369 157.9 384.197 158.716C385.025 159.532 385.433 160.564 385.433 161.8C385.433 163.024 385.025 164.044 384.197 164.872C383.369 165.7 382.361 166.108 381.173 166.108C379.973 166.108 378.965 165.7 378.137 164.884C377.309 164.068 376.901 163.036 376.901 161.8ZM378.041 161.8C378.041 162.736 378.353 163.516 378.965 164.128C379.577 164.752 380.309 165.064 381.173 165.064C382.061 165.064 382.805 164.752 383.405 164.14C383.993 163.528 384.293 162.748 384.293 161.8C384.293 160.852 383.993 160.072 383.381 159.46C382.769 158.848 382.025 158.536 381.173 158.536C380.297 158.536 379.565 158.848 378.953 159.46C378.341 160.072 378.041 160.852 378.041 161.8ZM386.299 161.8C386.299 160.588 386.707 159.556 387.535 158.728C388.363 157.9 389.371 157.492 390.571 157.492C391.759 157.492 392.767 157.9 393.595 158.716C394.423 159.532 394.831 160.564 394.831 161.8C394.831 163.024 394.423 164.044 393.595 164.872C392.767 165.7 391.759 166.108 390.571 166.108C389.371 166.108 388.363 165.7 387.535 164.884C386.707 164.068 386.299 163.036 386.299 161.8ZM387.439 161.8C387.439 162.736 387.751 163.516 388.363 164.128C388.975 164.752 389.707 165.064 390.571 165.064C391.459 165.064 392.203 164.752 392.803 164.14C393.391 163.528 393.691 162.748 393.691 161.8C393.691 160.852 393.391 160.072 392.779 159.46C392.167 158.848 391.423 158.536 390.571 158.536C389.695 158.536 388.963 158.848 388.351 159.46C387.739 160.072 387.439 160.852 387.439 161.8ZM402.271 164.908L401.575 165.544L399.391 162.976V162.904L401.587 160.384L402.271 160.996L400.591 162.952L402.271 164.908ZM404.587 164.908L403.891 165.544L401.707 162.976V162.904L403.915 160.384L404.599 160.996L402.907 162.952L404.587 164.908ZM407.218 166H406.126V157.6H407.218V161.656L411.466 157.6H412.894L408.934 161.404L413.182 166H411.742L408.118 162.124L407.218 162.988V166ZM415.925 158.62H413.009V157.6H419.945V158.62H417.017V166H415.925V158.62ZM419.794 166L423.466 161.428L419.866 157.6H421.198L424.798 161.38V157.6H425.89V161.392L429.49 157.6H430.834L427.198 161.428L430.906 166H429.598L426.37 162.028L425.89 162.496V166H424.798V162.484L424.27 161.992L421.054 166H419.794ZM434.312 163.156H431.24V162.232H434.312V163.156ZM437.218 166H436.126V157.6H442.102V158.62H437.218V166ZM450.133 166H449.041V158.62H444.085V166H442.993V157.6H450.133V166ZM456.759 162.904V162.976L454.575 165.544L453.879 164.908L455.559 162.952L453.879 160.996L454.563 160.384L456.759 162.904ZM454.443 162.904V162.976L452.259 165.544L451.551 164.908L453.243 162.952L451.551 160.996L452.235 160.384L454.443 162.904Z" fill="#1A3341" fill-opacity="0.6"/>
<rect width="10" height="10" transform="translate(352 177)" fill="url(#paint4_linear_4002_9570)"/>
<path d="M370.888 177.6H376.888V178.62H371.98V181.032H374.476C376.456 181.032 377.512 181.884 377.512 183.432C377.512 185.16 376.3 186 374.152 186H370.888V177.6ZM374.308 182.052H371.98V184.98H374.236C375.664 184.98 376.384 184.464 376.384 183.444C376.384 182.52 375.688 182.052 374.308 182.052ZM383.478 184.212L384.126 184.812C383.55 185.676 382.722 186.108 381.63 186.108C380.634 186.108 379.83 185.808 379.218 185.22C378.606 184.632 378.306 183.852 378.306 182.868C378.306 181.92 378.582 181.14 379.146 180.528C379.698 179.916 380.478 179.616 381.486 179.616C382.314 179.616 383.01 179.88 383.55 180.396C384.09 180.912 384.366 181.596 384.366 182.448C384.366 182.724 384.342 182.976 384.306 183.204H379.386C379.446 184.44 380.358 185.16 381.666 185.16C382.398 185.16 383.094 184.776 383.478 184.212ZM381.414 180.54C380.274 180.54 379.53 181.236 379.374 182.292H383.298C383.238 181.188 382.53 180.54 381.414 180.54ZM390.769 186H389.761V180.72H387.121V181.008C387.121 183.024 386.893 184.416 386.437 185.136C385.981 185.856 385.417 186.096 384.637 186V185.04C385.441 185.04 386.113 184.692 386.113 181.044V179.76H390.769V186ZM391.888 182.868C391.888 181.92 392.2 181.14 392.812 180.528C393.424 179.916 394.216 179.616 395.188 179.616C396.172 179.616 396.976 179.916 397.588 180.528C398.2 181.14 398.512 181.92 398.512 182.868C398.512 183.816 398.2 184.584 397.588 185.196C396.964 185.808 396.16 186.108 395.188 186.108C394.216 186.108 393.424 185.808 392.812 185.196C392.2 184.584 391.888 183.816 391.888 182.868ZM392.956 182.868C392.956 183.528 393.16 184.08 393.58 184.512C394 184.944 394.528 185.16 395.188 185.16C395.848 185.16 396.4 184.944 396.82 184.524C397.24 184.104 397.444 183.552 397.444 182.868C397.444 182.184 397.228 181.632 396.808 181.2C396.376 180.78 395.836 180.564 395.188 180.564C394.54 180.564 394.012 180.78 393.592 181.2C393.172 181.62 392.956 182.184 392.956 182.868ZM400.638 188.4H399.63V179.76H400.638V180.54C401.058 179.928 401.73 179.616 402.654 179.616C403.566 179.616 404.298 179.904 404.838 180.492C405.378 181.08 405.642 181.836 405.642 182.772C405.642 183.732 405.354 184.524 404.778 185.16C404.19 185.796 403.446 186.108 402.534 186.108C401.694 186.108 401.058 185.892 400.638 185.472V188.4ZM402.546 180.564C401.634 180.564 400.926 181.152 400.638 181.86V184.188C400.998 184.836 401.598 185.16 402.45 185.16C403.062 185.16 403.578 184.944 403.974 184.512C404.37 184.08 404.574 183.528 404.574 182.844C404.574 181.452 403.794 180.564 402.546 180.564ZM406.642 188.376L407.038 187.5C407.134 187.536 407.218 187.56 407.302 187.56C407.77 187.56 408.094 187.236 408.514 186.24L408.706 185.772L405.682 179.76H406.87L409.21 184.5L410.974 179.76H412.078L409.702 185.904C409.294 186.912 408.91 187.596 408.562 187.968C408.202 188.34 407.794 188.52 407.338 188.52C407.074 188.52 406.846 188.472 406.642 188.376ZM417.334 184.2L418.054 184.716C417.586 185.592 416.53 186.108 415.486 186.108C414.49 186.108 413.686 185.808 413.074 185.22C412.462 184.632 412.15 183.852 412.15 182.868C412.15 181.932 412.45 181.152 413.062 180.54C413.674 179.928 414.454 179.616 415.426 179.616C416.542 179.616 417.538 180.12 417.958 180.888L417.178 181.416C416.758 180.852 416.182 180.564 415.45 180.564C414.802 180.564 414.274 180.78 413.854 181.212C413.434 181.644 413.218 182.196 413.218 182.868C413.218 183.552 413.434 184.104 413.878 184.524C414.31 184.944 414.874 185.16 415.582 185.16C416.326 185.16 416.914 184.836 417.334 184.2ZM423.381 184.2L424.101 184.716C423.633 185.592 422.577 186.108 421.533 186.108C420.537 186.108 419.733 185.808 419.121 185.22C418.509 184.632 418.197 183.852 418.197 182.868C418.197 181.932 418.497 181.152 419.109 180.54C419.721 179.928 420.501 179.616 421.473 179.616C422.589 179.616 423.585 180.12 424.005 180.888L423.225 181.416C422.805 180.852 422.229 180.564 421.497 180.564C420.849 180.564 420.321 180.78 419.901 181.212C419.481 181.644 419.265 182.196 419.265 182.868C419.265 183.552 419.481 184.104 419.925 184.524C420.357 184.944 420.921 185.16 421.629 185.16C422.373 185.16 422.961 184.836 423.381 184.2ZM425.939 186H424.931V179.76H425.939V182.556L429.095 179.76H430.451L427.223 182.628L430.607 186H429.263L426.455 183.252L425.939 183.732V186ZM431.657 181.26L431.141 180.504C431.717 179.964 432.713 179.616 433.637 179.616C435.305 179.616 436.193 180.528 436.193 182.148V186H435.185V185.076C434.789 185.652 434.009 186.084 433.001 186.084C431.645 186.084 430.733 185.328 430.733 184.176C430.733 182.868 431.849 182.244 433.721 182.244C434.309 182.244 434.789 182.304 435.185 182.424C435.185 181.212 434.753 180.564 433.517 180.564C432.893 180.564 432.269 180.792 431.657 181.26ZM433.241 185.172C433.709 185.172 434.129 185.04 434.477 184.788C434.825 184.536 435.053 184.248 435.185 183.948V183.312C434.837 183.192 434.393 183.132 433.853 183.132C432.485 183.132 431.801 183.468 431.801 184.14C431.801 184.776 432.377 185.172 433.241 185.172ZM440.071 179.76H442.579V186H441.571V183.792H440.047L438.199 186H436.975L438.967 183.636C438.007 183.456 437.371 182.724 437.371 181.764C437.371 180.576 438.199 179.76 440.071 179.76ZM438.439 181.788C438.439 182.4 439.015 182.832 439.927 182.832H441.571V180.72H439.951C438.943 180.72 438.439 181.08 438.439 181.788ZM446.91 186L449.622 182.64L446.97 179.76H448.254L450.786 182.484V179.76H451.794V182.484L454.362 179.76H455.61L452.934 182.616L455.718 186H454.47L452.202 183.228L451.794 183.612V186H450.786V183.624L450.354 183.276L448.134 186H446.91ZM460.869 184.212L461.517 184.812C460.941 185.676 460.113 186.108 459.021 186.108C458.025 186.108 457.221 185.808 456.609 185.22C455.997 184.632 455.697 183.852 455.697 182.868C455.697 181.92 455.973 181.14 456.537 180.528C457.089 179.916 457.869 179.616 458.877 179.616C459.705 179.616 460.401 179.88 460.941 180.396C461.48 180.912 461.757 181.596 461.757 182.448C461.757 182.724 461.733 182.976 461.697 183.204H456.777C456.837 184.44 457.749 185.16 459.057 185.16C459.789 185.16 460.485 184.776 460.869 184.212ZM458.805 180.54C457.665 180.54 456.921 181.236 456.765 182.292H460.689C460.629 181.188 459.921 180.54 458.805 180.54ZM468.16 186H467.152V180.72H464.512V181.008C464.512 183.024 464.284 184.416 463.828 185.136C463.372 185.856 462.808 186.096 462.028 186V185.04C462.832 185.04 463.504 184.692 463.504 181.044V179.76H468.16V186ZM474.451 184.212L475.099 184.812C474.523 185.676 473.695 186.108 472.603 186.108C471.607 186.108 470.803 185.808 470.191 185.22C469.579 184.632 469.279 183.852 469.279 182.868C469.279 181.92 469.555 181.14 470.119 180.528C470.671 179.916 471.451 179.616 472.459 179.616C473.287 179.616 473.983 179.88 474.523 180.396C475.063 180.912 475.339 181.596 475.339 182.448C475.339 182.724 475.315 182.976 475.279 183.204H470.359C470.419 184.44 471.331 185.16 472.639 185.16C473.371 185.16 474.067 184.776 474.451 184.212ZM472.387 180.54C471.247 180.54 470.503 181.236 470.347 182.292H474.271C474.211 181.188 473.503 180.54 472.387 180.54ZM478.48 186.12C477.196 186.12 476.248 185.64 475.66 184.692L476.452 184.14C476.8 184.776 477.568 185.184 478.492 185.184C479.488 185.184 480.196 184.776 480.196 184.104C480.196 183.552 479.776 183.276 478.948 183.276H477.484V182.364H478.876C479.488 182.364 479.968 182.004 479.968 181.464C479.968 180.876 479.344 180.54 478.444 180.54C477.688 180.54 477.064 180.828 476.596 181.416L475.852 180.924C476.272 180.204 477.232 179.604 478.54 179.604C480.112 179.604 481.036 180.264 481.036 181.308C481.036 181.896 480.784 182.352 480.292 182.652C481.012 183 481.264 183.42 481.264 184.08C481.264 184.716 481 185.208 480.484 185.568C479.968 185.94 479.296 186.12 478.48 186.12ZM488.004 186H486.996V183.3H483.396V186H482.388V179.76H483.396V182.352H486.996V179.76H488.004V186ZM489.946 181.26L489.43 180.504C490.006 179.964 491.002 179.616 491.926 179.616C493.594 179.616 494.482 180.528 494.482 182.148V186H493.474V185.076C493.078 185.652 492.298 186.084 491.29 186.084C489.934 186.084 489.022 185.328 489.022 184.176C489.022 182.868 490.138 182.244 492.01 182.244C492.598 182.244 493.078 182.304 493.474 182.424C493.474 181.212 493.042 180.564 491.806 180.564C491.182 180.564 490.558 180.792 489.946 181.26ZM491.53 185.172C491.998 185.172 492.418 185.04 492.766 184.788C493.114 184.536 493.342 184.248 493.474 183.948V183.312C493.126 183.192 492.682 183.132 492.142 183.132C490.774 183.132 490.09 183.468 490.09 184.14C490.09 184.776 490.666 185.172 491.53 185.172ZM498.361 179.76H500.869V186H499.861V183.792H498.337L496.489 186H495.265L497.257 183.636C496.297 183.456 495.661 182.724 495.661 181.764C495.661 180.576 496.489 179.76 498.361 179.76ZM496.729 181.788C496.729 182.4 497.305 182.832 498.217 182.832H499.861V180.72H498.241C497.233 180.72 496.729 181.08 496.729 181.788ZM371.008 203.512H370.048V201.04H370.744C371.38 200.068 371.62 198.7 371.62 196.336V195.76H376.204V201.04H377.104V203.512H376.144V202H371.008V203.512ZM375.196 196.72H372.568V197.152C372.568 198.748 372.316 200.044 371.824 201.04H375.196V196.72ZM377.626 198.868C377.626 197.92 377.938 197.14 378.55 196.528C379.162 195.916 379.954 195.616 380.926 195.616C381.91 195.616 382.714 195.916 383.326 196.528C383.938 197.14 384.25 197.92 384.25 198.868C384.25 199.816 383.938 200.584 383.326 201.196C382.702 201.808 381.898 202.108 380.926 202.108C379.954 202.108 379.162 201.808 378.55 201.196C377.938 200.584 377.626 199.816 377.626 198.868ZM378.694 198.868C378.694 199.528 378.898 200.08 379.318 200.512C379.738 200.944 380.266 201.16 380.926 201.16C381.586 201.16 382.138 200.944 382.558 200.524C382.978 200.104 383.182 199.552 383.182 198.868C383.182 198.184 382.966 197.632 382.546 197.2C382.114 196.78 381.574 196.564 380.926 196.564C380.278 196.564 379.75 196.78 379.33 197.2C378.91 197.62 378.694 198.184 378.694 198.868ZM386.377 204.4H385.369V195.76H386.377V196.54C386.797 195.928 387.469 195.616 388.393 195.616C389.305 195.616 390.037 195.904 390.577 196.492C391.117 197.08 391.381 197.836 391.381 198.772C391.381 199.732 391.093 200.524 390.517 201.16C389.929 201.796 389.185 202.108 388.273 202.108C387.433 202.108 386.797 201.892 386.377 201.472V204.4ZM388.285 196.564C387.373 196.564 386.665 197.152 386.377 197.86V200.188C386.737 200.836 387.337 201.16 388.189 201.16C388.801 201.16 389.317 200.944 389.713 200.512C390.109 200.08 390.313 199.528 390.313 198.844C390.313 197.452 389.533 196.564 388.285 196.564ZM392.146 198.868C392.146 197.92 392.458 197.14 393.07 196.528C393.682 195.916 394.474 195.616 395.446 195.616C396.43 195.616 397.234 195.916 397.846 196.528C398.458 197.14 398.77 197.92 398.77 198.868C398.77 199.816 398.458 200.584 397.846 201.196C397.222 201.808 396.418 202.108 395.446 202.108C394.474 202.108 393.682 201.808 393.07 201.196C392.458 200.584 392.146 199.816 392.146 198.868ZM393.214 198.868C393.214 199.528 393.418 200.08 393.838 200.512C394.258 200.944 394.786 201.16 395.446 201.16C396.106 201.16 396.658 200.944 397.078 200.524C397.498 200.104 397.702 199.552 397.702 198.868C397.702 198.184 397.486 197.632 397.066 197.2C396.634 196.78 396.094 196.564 395.446 196.564C394.798 196.564 394.27 196.78 393.85 197.2C393.43 197.62 393.214 198.184 393.214 198.868ZM400.896 202H399.888V195.76H404.436V196.708H400.896V202ZM405.466 197.26L404.95 196.504C405.526 195.964 406.522 195.616 407.446 195.616C409.114 195.616 410.002 196.528 410.002 198.148V202H408.994V201.076C408.598 201.652 407.818 202.084 406.81 202.084C405.454 202.084 404.542 201.328 404.542 200.176C404.542 198.868 405.658 198.244 407.53 198.244C408.118 198.244 408.598 198.304 408.994 198.424C408.994 197.212 408.562 196.564 407.326 196.564C406.702 196.564 406.078 196.792 405.466 197.26ZM407.05 201.172C407.518 201.172 407.938 201.04 408.286 200.788C408.634 200.536 408.862 200.248 408.994 199.948V199.312C408.646 199.192 408.202 199.132 407.662 199.132C406.294 199.132 405.61 199.468 405.61 200.14C405.61 200.776 406.186 201.172 407.05 201.172Z" fill="#1A3341" fill-opacity="0.6"/>
<rect width="10" height="10" transform="translate(352 213)" fill="#184977"/>
<rect x="352" y="213" width="10" height="10" fill="#184977"/>
<path d="M378.028 222H376.936V214.62H371.98V222H370.888V213.6H378.028V222ZM380.658 224.4H379.65V215.76H380.658V216.54C381.078 215.928 381.75 215.616 382.674 215.616C383.586 215.616 384.318 215.904 384.858 216.492C385.398 217.08 385.662 217.836 385.662 218.772C385.662 219.732 385.374 220.524 384.798 221.16C384.21 221.796 383.466 222.108 382.554 222.108C381.714 222.108 381.078 221.892 380.658 221.472V224.4ZM382.566 216.564C381.654 216.564 380.946 217.152 380.658 217.86V220.188C381.018 220.836 381.618 221.16 382.47 221.16C383.082 221.16 383.598 220.944 383.994 220.512C384.39 220.08 384.594 219.528 384.594 218.844C384.594 217.452 383.814 216.564 382.566 216.564ZM386.427 218.868C386.427 217.92 386.739 217.14 387.351 216.528C387.963 215.916 388.755 215.616 389.727 215.616C390.711 215.616 391.515 215.916 392.127 216.528C392.739 217.14 393.051 217.92 393.051 218.868C393.051 219.816 392.739 220.584 392.127 221.196C391.503 221.808 390.699 222.108 389.727 222.108C388.755 222.108 387.963 221.808 387.351 221.196C386.739 220.584 386.427 219.816 386.427 218.868ZM387.495 218.868C387.495 219.528 387.699 220.08 388.119 220.512C388.539 220.944 389.067 221.16 389.727 221.16C390.387 221.16 390.939 220.944 391.359 220.524C391.779 220.104 391.983 219.552 391.983 218.868C391.983 218.184 391.767 217.632 391.347 217.2C390.915 216.78 390.375 216.564 389.727 216.564C389.079 216.564 388.551 216.78 388.131 217.2C387.711 217.62 387.495 218.184 387.495 218.868ZM398.214 215.76H399.222V222H398.214V219.372C397.758 219.828 397.122 220.056 396.306 220.056C394.662 220.056 393.846 219.228 393.846 217.572V215.76H394.854V217.296C394.854 218.556 395.382 219.096 396.486 219.096C397.206 219.096 397.89 218.712 398.214 218.244V215.76ZM405.413 217.332L401.609 222H400.685V215.76H401.693V220.44L405.485 215.76H406.421V222H405.413V217.332ZM412.704 220.212L413.352 220.812C412.776 221.676 411.948 222.108 410.856 222.108C409.86 222.108 409.056 221.808 408.444 221.22C407.832 220.632 407.532 219.852 407.532 218.868C407.532 217.92 407.808 217.14 408.372 216.528C408.924 215.916 409.704 215.616 410.712 215.616C411.54 215.616 412.236 215.88 412.776 216.396C413.316 216.912 413.592 217.596 413.592 218.448C413.592 218.724 413.568 218.976 413.532 219.204H408.612C408.672 220.44 409.584 221.16 410.892 221.16C411.624 221.16 412.32 220.776 412.704 220.212ZM410.64 216.54C409.5 216.54 408.756 217.236 408.6 218.292H412.524C412.464 217.188 411.756 216.54 410.64 216.54Z" fill="#1A3341" fill-opacity="0.6"/>
<path d="M358.912 99.496L353.812 106H352.888V97.6H353.98V104.104L359.068 97.6H360.004V106H358.912V99.496ZM367.254 106H366.246V103.3H362.646V106H361.638V99.76H362.646V102.352H366.246V99.76H367.254V106ZM372.772 108.4H371.764V106.12H371.692C370.648 106.12 369.832 105.82 369.244 105.22C368.644 104.62 368.344 103.84 368.344 102.892C368.344 101.992 368.644 101.236 369.244 100.6C369.844 99.964 370.66 99.652 371.68 99.652H371.764V97.24H372.772V99.652H372.868C373.864 99.652 374.68 99.952 375.292 100.564C375.904 101.176 376.204 101.956 376.204 102.892C376.204 103.84 375.904 104.62 375.316 105.22C374.716 105.82 373.888 106.12 372.844 106.12H372.772V108.4ZM369.412 102.892C369.412 104.284 370.216 105.16 371.692 105.16H371.764V100.612H371.68C370.228 100.612 369.412 101.536 369.412 102.892ZM372.844 100.612H372.772V105.16H372.844C374.344 105.16 375.136 104.296 375.136 102.892C375.136 101.56 374.296 100.612 372.844 100.612ZM378.303 108.4H377.295V99.76H378.303V100.54C378.723 99.928 379.395 99.616 380.319 99.616C381.231 99.616 381.963 99.904 382.503 100.492C383.043 101.08 383.307 101.836 383.307 102.772C383.307 103.732 383.019 104.524 382.443 105.16C381.855 105.796 381.111 106.108 380.199 106.108C379.359 106.108 378.723 105.892 378.303 105.472V108.4ZM380.211 100.564C379.299 100.564 378.591 101.152 378.303 101.86V104.188C378.663 104.836 379.263 105.16 380.115 105.16C380.727 105.16 381.243 104.944 381.639 104.512C382.035 104.08 382.239 103.528 382.239 102.844C382.239 101.452 381.459 100.564 380.211 100.564ZM384.9 101.26L384.384 100.504C384.96 99.964 385.956 99.616 386.88 99.616C388.548 99.616 389.436 100.528 389.436 102.148V106H388.428V105.076C388.032 105.652 387.252 106.084 386.244 106.084C384.888 106.084 383.976 105.328 383.976 104.176C383.976 102.868 385.092 102.244 386.964 102.244C387.552 102.244 388.032 102.304 388.428 102.424C388.428 101.212 387.996 100.564 386.76 100.564C386.136 100.564 385.512 100.792 384.9 101.26ZM386.484 105.172C386.952 105.172 387.372 105.04 387.72 104.788C388.068 104.536 388.296 104.248 388.428 103.948V103.312C388.08 103.192 387.636 103.132 387.096 103.132C385.728 103.132 385.044 103.468 385.044 104.14C385.044 104.776 385.62 105.172 386.484 105.172ZM395.666 104.2L396.386 104.716C395.918 105.592 394.862 106.108 393.818 106.108C392.822 106.108 392.018 105.808 391.406 105.22C390.794 104.632 390.482 103.852 390.482 102.868C390.482 101.932 390.782 101.152 391.394 100.54C392.006 99.928 392.786 99.616 393.758 99.616C394.874 99.616 395.87 100.12 396.29 100.888L395.51 101.416C395.09 100.852 394.514 100.564 393.782 100.564C393.134 100.564 392.606 100.78 392.186 101.212C391.766 101.644 391.55 102.196 391.55 102.868C391.55 103.552 391.766 104.104 392.21 104.524C392.642 104.944 393.206 105.16 393.914 105.16C394.658 105.16 395.246 104.836 395.666 104.2ZM398.978 100.708H396.59V99.76H402.398V100.708H399.986V106H398.978V100.708ZM404.154 108.4H403.146V99.76H404.154V100.54C404.574 99.928 405.246 99.616 406.17 99.616C407.082 99.616 407.814 99.904 408.354 100.492C408.894 101.08 409.158 101.836 409.158 102.772C409.158 103.732 408.87 104.524 408.294 105.16C407.706 105.796 406.962 106.108 406.05 106.108C405.21 106.108 404.574 105.892 404.154 105.472V108.4ZM406.062 100.564C405.15 100.564 404.442 101.152 404.154 101.86V104.188C404.514 104.836 405.114 105.16 405.966 105.16C406.578 105.16 407.094 104.944 407.49 104.512C407.886 104.08 408.09 103.528 408.09 102.844C408.09 101.452 407.31 100.564 406.062 100.564ZM410.157 108.376L410.553 107.5C410.649 107.536 410.733 107.56 410.817 107.56C411.285 107.56 411.609 107.236 412.029 106.24L412.221 105.772L409.197 99.76H410.385L412.725 104.5L414.489 99.76H415.593L413.217 105.904C412.809 106.912 412.425 107.596 412.077 107.968C411.717 108.34 411.309 108.52 410.853 108.52C410.589 108.52 410.361 108.472 410.157 108.376ZM417.279 106H416.271V99.76H417.279V102.556L420.435 99.76H421.791L418.563 102.628L421.947 106H420.603L417.795 103.252L417.279 103.732V106ZM424.255 100.708H421.867V99.76H427.675V100.708H425.263V106H424.255V100.708ZM428.802 108.376L429.198 107.5C429.294 107.536 429.378 107.56 429.462 107.56C429.93 107.56 430.254 107.236 430.674 106.24L430.866 105.772L427.842 99.76H429.03L431.37 104.5L433.134 99.76H434.238L431.862 105.904C431.454 106.912 431.07 107.596 430.722 107.968C430.362 108.34 429.954 108.52 429.498 108.52C429.234 108.52 429.006 108.472 428.802 108.376ZM435.924 108.4H434.916V99.76H435.924V100.54C436.344 99.928 437.016 99.616 437.94 99.616C438.852 99.616 439.584 99.904 440.124 100.492C440.664 101.08 440.928 101.836 440.928 102.772C440.928 103.732 440.64 104.524 440.064 105.16C439.476 105.796 438.732 106.108 437.82 106.108C436.98 106.108 436.344 105.892 435.924 105.472V108.4ZM437.832 100.564C436.92 100.564 436.212 101.152 435.924 101.86V104.188C436.284 104.836 436.884 105.16 437.736 105.16C438.348 105.16 438.864 104.944 439.26 104.512C439.656 104.08 439.86 103.528 439.86 102.844C439.86 101.452 439.08 100.564 437.832 100.564ZM447.657 106H446.649V103.3H443.049V106H442.041V99.76H443.049V102.352H446.649V99.76H447.657V106ZM451.375 106H449.119V99.76H450.127V101.704H451.471C453.307 101.704 454.039 102.556 454.039 103.84C454.039 105.1 453.235 106 451.375 106ZM451.363 102.664H450.127V105.04H451.351C452.503 105.04 452.971 104.632 452.971 103.852C452.971 103.06 452.431 102.664 451.363 102.664ZM455.947 106H454.927V99.76H455.947V106ZM462.228 104.212L462.876 104.812C462.3 105.676 461.472 106.108 460.38 106.108C459.384 106.108 458.58 105.808 457.968 105.22C457.356 104.632 457.056 103.852 457.056 102.868C457.056 101.92 457.332 101.14 457.896 100.528C458.448 99.916 459.228 99.616 460.236 99.616C461.064 99.616 461.76 99.88 462.3 100.396C462.84 100.912 463.116 101.596 463.116 102.448C463.116 102.724 463.092 102.976 463.056 103.204H458.136C458.196 104.44 459.108 105.16 460.416 105.16C461.148 105.16 461.844 104.776 462.228 104.212ZM460.164 100.54C459.024 100.54 458.28 101.236 458.124 102.292H462.048C461.988 101.188 461.28 100.54 460.164 100.54ZM473.378 106H472.37V100.708H468.842V106H467.834V99.76H473.378V106ZM480.265 106H479.257V100.72H476.617V101.008C476.617 103.024 476.389 104.416 475.933 105.136C475.477 105.856 474.913 106.096 474.133 106V105.04C474.937 105.04 475.609 104.692 475.609 101.044V99.76H480.265V106ZM482.212 101.26L481.696 100.504C482.272 99.964 483.268 99.616 484.192 99.616C485.86 99.616 486.748 100.528 486.748 102.148V106H485.74V105.076C485.344 105.652 484.564 106.084 483.556 106.084C482.2 106.084 481.288 105.328 481.288 104.176C481.288 102.868 482.404 102.244 484.276 102.244C484.864 102.244 485.344 102.304 485.74 102.424C485.74 101.212 485.308 100.564 484.072 100.564C483.448 100.564 482.824 100.792 482.212 101.26ZM483.796 105.172C484.264 105.172 484.684 105.04 485.032 104.788C485.38 104.536 485.608 104.248 485.74 103.948V103.312C485.392 103.192 484.948 103.132 484.408 103.132C483.04 103.132 482.356 103.468 482.356 104.14C482.356 104.776 482.932 105.172 483.796 105.172ZM489.599 100.708H487.211V99.76H493.019V100.708H490.607V106H489.599V100.708ZM498.357 104.212L499.005 104.812C498.429 105.676 497.601 106.108 496.509 106.108C495.513 106.108 494.709 105.808 494.097 105.22C493.485 104.632 493.185 103.852 493.185 102.868C493.185 101.92 493.461 101.14 494.025 100.528C494.577 99.916 495.357 99.616 496.365 99.616C497.193 99.616 497.889 99.88 498.429 100.396C498.969 100.912 499.245 101.596 499.245 102.448C499.245 102.724 499.221 102.976 499.185 103.204H494.265C494.325 104.44 495.237 105.16 496.545 105.16C497.277 105.16 497.973 104.776 498.357 104.212ZM496.293 100.54C495.153 100.54 494.409 101.236 494.253 102.292H498.177C498.117 101.188 497.409 100.54 496.293 100.54ZM499.352 106L502.064 102.64L499.412 99.76H500.696L503.228 102.484V99.76H504.236V102.484L506.804 99.76H508.052L505.376 102.616L508.16 106H506.912L504.644 103.228L504.236 103.612V106H503.228V103.624L502.796 103.276L500.576 106H499.352ZM513.624 101.332L509.82 106H508.896V99.76H509.904V104.44L513.696 99.76H514.632V106H513.624V101.332ZM355.672 123.752L354.988 124.448C354.1 123.68 353.452 122.804 353.044 121.82C352.636 120.836 352.432 119.864 352.432 118.892C352.432 116.972 353.188 114.944 355 113.324L355.66 114.02C354.196 115.388 353.464 117.008 353.464 118.892C353.464 120.68 354.28 122.408 355.672 123.752ZM355.797 122L358.509 118.64L355.857 115.76H357.141L359.673 118.484V115.76H360.681V118.484L363.249 115.76H364.497L361.821 118.616L364.605 122H363.357L361.089 119.228L360.681 119.612V122H359.673V119.624L359.241 119.276L357.021 122H355.797ZM365.089 124.46L364.201 124.124L368.185 113.444L369.073 113.732L365.089 124.46ZM369.672 123.512H368.712V121.04H369.408C370.044 120.068 370.284 118.7 370.284 116.336V115.76H374.868V121.04H375.768V123.512H374.808V122H369.672V123.512ZM373.86 116.72H371.232V117.152C371.232 118.748 370.98 120.044 370.488 121.04H373.86V116.72ZM381.904 116.708H379.516V115.76H385.324V116.708H382.912V122H381.904V116.708ZM386.341 117.26L385.825 116.504C386.401 115.964 387.397 115.616 388.321 115.616C389.989 115.616 390.877 116.528 390.877 118.148V122H389.869V121.076C389.473 121.652 388.693 122.084 387.685 122.084C386.329 122.084 385.417 121.328 385.417 120.176C385.417 118.868 386.533 118.244 388.405 118.244C388.993 118.244 389.473 118.304 389.869 118.424C389.869 117.212 389.437 116.564 388.201 116.564C387.577 116.564 386.953 116.792 386.341 117.26ZM387.925 121.172C388.393 121.172 388.813 121.04 389.161 120.788C389.509 120.536 389.737 120.248 389.869 119.948V119.312C389.521 119.192 389.077 119.132 388.537 119.132C387.169 119.132 386.485 119.468 386.485 120.14C386.485 120.776 387.061 121.172 387.925 121.172ZM393.279 124.4H392.271V115.76H393.279V116.54C393.699 115.928 394.371 115.616 395.295 115.616C396.207 115.616 396.939 115.904 397.479 116.492C398.019 117.08 398.283 117.836 398.283 118.772C398.283 119.732 397.995 120.524 397.419 121.16C396.831 121.796 396.087 122.108 395.175 122.108C394.335 122.108 393.699 121.892 393.279 121.472V124.4ZM395.187 116.564C394.275 116.564 393.567 117.152 393.279 117.86V120.188C393.639 120.836 394.239 121.16 395.091 121.16C395.703 121.16 396.219 120.944 396.615 120.512C397.011 120.08 397.215 119.528 397.215 118.844C397.215 117.452 396.435 116.564 395.187 116.564ZM404.124 117.332L400.32 122H399.396V115.76H400.404V120.44L404.196 115.76H405.132V122H404.124V117.332ZM410.647 124.4H409.639V122.12H409.567C408.523 122.12 407.707 121.82 407.119 121.22C406.519 120.62 406.219 119.84 406.219 118.892C406.219 117.992 406.519 117.236 407.119 116.6C407.719 115.964 408.535 115.652 409.555 115.652H409.639V113.24H410.647V115.652H410.743C411.739 115.652 412.555 115.952 413.167 116.564C413.779 117.176 414.079 117.956 414.079 118.892C414.079 119.84 413.779 120.62 413.191 121.22C412.591 121.82 411.763 122.12 410.719 122.12H410.647V124.4ZM407.287 118.892C407.287 120.284 408.091 121.16 409.567 121.16H409.639V116.612H409.555C408.103 116.612 407.287 117.536 407.287 118.892ZM410.719 116.612H410.647V121.16H410.719C412.219 121.16 413.011 120.296 413.011 118.892C413.011 117.56 412.171 116.612 410.719 116.612ZM415.242 124.436L414.558 123.776C415.278 123.14 415.83 122.396 416.201 121.508C416.574 120.632 416.754 119.768 416.754 118.892C416.754 117.008 416.021 115.388 414.558 114.032L415.229 113.324C417.042 114.944 417.786 116.972 417.786 118.892C417.786 119.864 417.582 120.836 417.186 121.82C416.778 122.804 416.13 123.68 415.242 124.436ZM419.423 121.316C419.423 120.98 419.735 120.644 420.167 120.644C420.563 120.644 420.887 120.98 420.887 121.316C420.887 121.7 420.587 122.024 420.167 122.024C419.735 122.024 419.423 121.7 419.423 121.316ZM419.423 116.396C419.423 116.06 419.735 115.724 420.167 115.724C420.563 115.724 420.887 116.06 420.887 116.396C420.887 116.78 420.587 117.104 420.167 117.104C419.735 117.104 419.423 116.78 419.423 116.396Z" fill="#1A3341" fill-opacity="0.6"/>
<rect x="352" y="245" width="10" height="10" fill="url(#paint5_linear_4002_9570)"/>
<path d="M371.98 250.904V254H370.888V245.6H374.152C376.444 245.6 377.596 246.476 377.596 248.24C377.596 248.996 377.32 249.632 376.768 250.136C376.204 250.652 375.328 250.904 374.14 250.904H371.98ZM374.2 246.62H371.98V249.896H374.116C375.7 249.896 376.468 249.272 376.468 248.228C376.468 247.16 375.712 246.62 374.2 246.62ZM379.169 249.26L378.653 248.504C379.229 247.964 380.225 247.616 381.149 247.616C382.817 247.616 383.705 248.528 383.705 250.148V254H382.697V253.076C382.301 253.652 381.521 254.084 380.513 254.084C379.157 254.084 378.245 253.328 378.245 252.176C378.245 250.868 379.361 250.244 381.233 250.244C381.821 250.244 382.301 250.304 382.697 250.424C382.697 249.212 382.265 248.564 381.029 248.564C380.405 248.564 379.781 248.792 379.169 249.26ZM380.753 253.172C381.221 253.172 381.641 253.04 381.989 252.788C382.337 252.536 382.565 252.248 382.697 251.948V251.312C382.349 251.192 381.905 251.132 381.365 251.132C379.997 251.132 379.313 251.468 379.313 252.14C379.313 252.776 379.889 253.172 380.753 253.172ZM389.935 252.2L390.655 252.716C390.187 253.592 389.131 254.108 388.087 254.108C387.091 254.108 386.287 253.808 385.675 253.22C385.063 252.632 384.751 251.852 384.751 250.868C384.751 249.932 385.051 249.152 385.663 248.54C386.275 247.928 387.055 247.616 388.027 247.616C389.143 247.616 390.139 248.12 390.559 248.888L389.779 249.416C389.359 248.852 388.783 248.564 388.051 248.564C387.403 248.564 386.875 248.78 386.455 249.212C386.035 249.644 385.819 250.196 385.819 250.868C385.819 251.552 386.035 252.104 386.479 252.524C386.911 252.944 387.475 253.16 388.183 253.16C388.927 253.16 389.515 252.836 389.935 252.2ZM395.724 247.76H396.948L394.56 250.772L397.068 254H395.808L393.876 251.492L391.92 254H390.72L393.216 250.784L390.852 247.76H392.112L393.912 250.052L395.724 247.76ZM397.032 250.868C397.032 249.92 397.344 249.14 397.956 248.528C398.568 247.916 399.36 247.616 400.332 247.616C401.316 247.616 402.12 247.916 402.732 248.528C403.344 249.14 403.656 249.92 403.656 250.868C403.656 251.816 403.344 252.584 402.732 253.196C402.108 253.808 401.304 254.108 400.332 254.108C399.36 254.108 398.568 253.808 397.956 253.196C397.344 252.584 397.032 251.816 397.032 250.868ZM398.1 250.868C398.1 251.528 398.304 252.08 398.724 252.512C399.144 252.944 399.672 253.16 400.332 253.16C400.992 253.16 401.544 252.944 401.964 252.524C402.384 252.104 402.588 251.552 402.588 250.868C402.588 250.184 402.372 249.632 401.952 249.2C401.52 248.78 400.98 248.564 400.332 248.564C399.684 248.564 399.156 248.78 398.736 249.2C398.316 249.62 398.1 250.184 398.1 250.868ZM404.758 255.512H403.798V253.04H404.494C405.13 252.068 405.37 250.7 405.37 248.336V247.76H409.954V253.04H410.854V255.512H409.894V254H404.758V255.512ZM408.946 248.72H406.318V249.152C406.318 250.748 406.066 252.044 405.574 253.04H408.946V248.72ZM413.98 254H411.724V247.76H412.732V249.704H414.076C415.912 249.704 416.644 250.556 416.644 251.84C416.644 253.1 415.84 254 413.98 254ZM413.968 250.664H412.732V253.04H413.956C415.108 253.04 415.576 252.632 415.576 251.852C415.576 251.06 415.036 250.664 413.968 250.664ZM418.552 254H417.532V247.76H418.552V254ZM429.223 254H428.215V251.3H424.615V254H423.607V247.76H424.615V250.352H428.215V247.76H429.223V254ZM431.165 249.26L430.649 248.504C431.225 247.964 432.221 247.616 433.145 247.616C434.813 247.616 435.701 248.528 435.701 250.148V254H434.693V253.076C434.297 253.652 433.517 254.084 432.509 254.084C431.153 254.084 430.241 253.328 430.241 252.176C430.241 250.868 431.357 250.244 433.229 250.244C433.817 250.244 434.297 250.304 434.693 250.424C434.693 249.212 434.261 248.564 433.025 248.564C432.401 248.564 431.777 248.792 431.165 249.26ZM432.749 253.172C433.217 253.172 433.637 253.04 433.985 252.788C434.333 252.536 434.561 252.248 434.693 251.948V251.312C434.345 251.192 433.901 251.132 433.361 251.132C431.993 251.132 431.309 251.468 431.309 252.14C431.309 252.776 431.885 253.172 432.749 253.172ZM446.237 254H445.229V248.708H441.701V254H440.693V247.76H446.237V254ZM448.181 249.26L447.665 248.504C448.241 247.964 449.237 247.616 450.161 247.616C451.829 247.616 452.717 248.528 452.717 250.148V254H451.709V253.076C451.313 253.652 450.533 254.084 449.525 254.084C448.169 254.084 447.257 253.328 447.257 252.176C447.257 250.868 448.373 250.244 450.245 250.244C450.833 250.244 451.313 250.304 451.709 250.424C451.709 249.212 451.277 248.564 450.041 248.564C449.417 248.564 448.793 248.792 448.181 249.26ZM449.765 253.172C450.233 253.172 450.653 253.04 451.001 252.788C451.349 252.536 451.577 252.248 451.709 251.948V251.312C451.361 251.192 450.917 251.132 450.377 251.132C449.009 251.132 448.325 251.468 448.325 252.14C448.325 252.776 448.901 253.172 449.765 253.172ZM455.119 256.4H454.111V247.76H455.119V248.54C455.539 247.928 456.211 247.616 457.135 247.616C458.047 247.616 458.779 247.904 459.319 248.492C459.859 249.08 460.123 249.836 460.123 250.772C460.123 251.732 459.835 252.524 459.259 253.16C458.671 253.796 457.927 254.108 457.015 254.108C456.175 254.108 455.539 253.892 455.119 253.472V256.4ZM457.027 248.564C456.115 248.564 455.407 249.152 455.119 249.86V252.188C455.479 252.836 456.079 253.16 456.931 253.16C457.543 253.16 458.059 252.944 458.455 252.512C458.851 252.08 459.055 251.528 459.055 250.844C459.055 249.452 458.275 248.564 457.027 248.564ZM462.244 254H461.236V247.76H462.244V250.556L465.4 247.76H466.756L463.528 250.628L466.912 254H465.568L462.76 251.252L462.244 251.732V254Z" fill="#1A3341" fill-opacity="0.6"/>
<rect width="10" height="10" transform="translate(352 265)" fill="#DBE9EE"/>
<rect opacity="0.5" x="352" y="265" width="10" height="10" fill="#DBE9EE"/>
<path d="M378.028 274H376.936V266.62H371.98V274H370.888V265.6H378.028V274ZM380.658 276.4H379.65V267.76H380.658V268.54C381.078 267.928 381.75 267.616 382.674 267.616C383.586 267.616 384.318 267.904 384.858 268.492C385.398 269.08 385.662 269.836 385.662 270.772C385.662 271.732 385.374 272.524 384.798 273.16C384.21 273.796 383.466 274.108 382.554 274.108C381.714 274.108 381.078 273.892 380.658 273.472V276.4ZM382.566 268.564C381.654 268.564 380.946 269.152 380.658 269.86V272.188C381.018 272.836 381.618 273.16 382.47 273.16C383.082 273.16 383.598 272.944 383.994 272.512C384.39 272.08 384.594 271.528 384.594 270.844C384.594 269.452 383.814 268.564 382.566 268.564ZM386.427 270.868C386.427 269.92 386.739 269.14 387.351 268.528C387.963 267.916 388.755 267.616 389.727 267.616C390.711 267.616 391.515 267.916 392.127 268.528C392.739 269.14 393.051 269.92 393.051 270.868C393.051 271.816 392.739 272.584 392.127 273.196C391.503 273.808 390.699 274.108 389.727 274.108C388.755 274.108 387.963 273.808 387.351 273.196C386.739 272.584 386.427 271.816 386.427 270.868ZM387.495 270.868C387.495 271.528 387.699 272.08 388.119 272.512C388.539 272.944 389.067 273.16 389.727 273.16C390.387 273.16 390.939 272.944 391.359 272.524C391.779 272.104 391.983 271.552 391.983 270.868C391.983 270.184 391.767 269.632 391.347 269.2C390.915 268.78 390.375 268.564 389.727 268.564C389.079 268.564 388.551 268.78 388.131 269.2C387.711 269.62 387.495 270.184 387.495 270.868ZM398.214 267.76H399.222V274H398.214V271.372C397.758 271.828 397.122 272.056 396.306 272.056C394.662 272.056 393.846 271.228 393.846 269.572V267.76H394.854V269.296C394.854 270.556 395.382 271.096 396.486 271.096C397.206 271.096 397.89 270.712 398.214 270.244V267.76ZM405.413 269.332L401.609 274H400.685V267.76H401.693V272.44L405.485 267.76H406.421V274H405.413V269.332ZM412.704 272.212L413.352 272.812C412.776 273.676 411.948 274.108 410.856 274.108C409.86 274.108 409.056 273.808 408.444 273.22C407.832 272.632 407.532 271.852 407.532 270.868C407.532 269.92 407.808 269.14 408.372 268.528C408.924 267.916 409.704 267.616 410.712 267.616C411.54 267.616 412.236 267.88 412.776 268.396C413.316 268.912 413.592 269.596 413.592 270.448C413.592 270.724 413.568 270.976 413.532 271.204H408.612C408.672 272.44 409.584 273.16 410.892 273.16C411.624 273.16 412.32 272.776 412.704 272.212ZM410.64 268.54C409.5 268.54 408.756 269.236 408.6 270.292H412.524C412.464 269.188 411.756 268.54 410.64 268.54ZM419.318 276.4H418.31V267.76H419.318V268.54C419.738 267.928 420.41 267.616 421.334 267.616C422.246 267.616 422.978 267.904 423.518 268.492C424.058 269.08 424.322 269.836 424.322 270.772C424.322 271.732 424.034 272.524 423.458 273.16C422.87 273.796 422.126 274.108 421.214 274.108C420.374 274.108 419.738 273.892 419.318 273.472V276.4ZM421.226 268.564C420.314 268.564 419.606 269.152 419.318 269.86V272.188C419.678 272.836 420.278 273.16 421.13 273.16C421.742 273.16 422.258 272.944 422.654 272.512C423.05 272.08 423.254 271.528 423.254 270.844C423.254 269.452 422.474 268.564 421.226 268.564ZM425.915 269.26L425.399 268.504C425.975 267.964 426.971 267.616 427.895 267.616C429.563 267.616 430.451 268.528 430.451 270.148V274H429.443V273.076C429.047 273.652 428.267 274.084 427.259 274.084C425.903 274.084 424.991 273.328 424.991 272.176C424.991 270.868 426.107 270.244 427.979 270.244C428.567 270.244 429.047 270.304 429.443 270.424C429.443 269.212 429.011 268.564 427.775 268.564C427.151 268.564 426.527 268.792 425.915 269.26ZM427.499 273.172C427.967 273.172 428.387 273.04 428.735 272.788C429.083 272.536 429.311 272.248 429.443 271.948V271.312C429.095 271.192 428.651 271.132 428.111 271.132C426.743 271.132 426.059 271.468 426.059 272.14C426.059 272.776 426.635 273.172 427.499 273.172ZM436.681 272.2L437.401 272.716C436.933 273.592 435.877 274.108 434.833 274.108C433.837 274.108 433.033 273.808 432.421 273.22C431.809 272.632 431.497 271.852 431.497 270.868C431.497 269.932 431.797 269.152 432.409 268.54C433.021 267.928 433.801 267.616 434.773 267.616C435.889 267.616 436.885 268.12 437.305 268.888L436.525 269.416C436.105 268.852 435.529 268.564 434.797 268.564C434.149 268.564 433.621 268.78 433.201 269.212C432.781 269.644 432.565 270.196 432.565 270.868C432.565 271.552 432.781 272.104 433.225 272.524C433.657 272.944 434.221 273.16 434.929 273.16C435.673 273.16 436.261 272.836 436.681 272.2ZM442.47 267.76H443.694L441.306 270.772L443.814 274H442.554L440.622 271.492L438.666 274H437.466L439.962 270.784L437.598 267.76H438.858L440.658 270.052L442.47 267.76ZM443.779 270.868C443.779 269.92 444.091 269.14 444.703 268.528C445.315 267.916 446.107 267.616 447.079 267.616C448.063 267.616 448.867 267.916 449.479 268.528C450.091 269.14 450.403 269.92 450.403 270.868C450.403 271.816 450.091 272.584 449.479 273.196C448.855 273.808 448.051 274.108 447.079 274.108C446.107 274.108 445.315 273.808 444.703 273.196C444.091 272.584 443.779 271.816 443.779 270.868ZM444.847 270.868C444.847 271.528 445.051 272.08 445.471 272.512C445.891 272.944 446.419 273.16 447.079 273.16C447.739 273.16 448.291 272.944 448.711 272.524C449.131 272.104 449.335 271.552 449.335 270.868C449.335 270.184 449.119 269.632 448.699 269.2C448.267 268.78 447.727 268.564 447.079 268.564C446.431 268.564 445.903 268.78 445.483 269.2C445.063 269.62 444.847 270.184 444.847 270.868ZM451.504 275.512H450.544V273.04H451.24C451.876 272.068 452.116 270.7 452.116 268.336V267.76H456.7V273.04H457.6V275.512H456.64V274H451.504V275.512ZM455.692 268.72H453.064V269.152C453.064 270.748 452.812 272.044 452.32 273.04H455.692V268.72ZM460.726 274H458.47V267.76H459.478V269.704H460.822C462.658 269.704 463.39 270.556 463.39 271.84C463.39 273.1 462.586 274 460.726 274ZM460.714 270.664H459.478V273.04H460.702C461.854 273.04 462.322 272.632 462.322 271.852C462.322 271.06 461.782 270.664 460.714 270.664ZM465.298 274H464.278V267.76H465.298V274Z" fill="#1A3341" fill-opacity="0.6"/>
<defs>
<radialGradient id="paint0_radial_4002_9570" cx="0" cy="0" r="1" gradientUnits="userSpaceOnUse" gradientTransform="translate(-261 895) rotate(-59.0541) scale(1097.76 534.976)">
<stop stop-color="#51DDE6"/>
<stop offset="0.920242" stop-color="#E2FFF8" stop-opacity="0.7"/>
</radialGradient>
<linearGradient id="paint1_linear_4002_9570" x1="295" y1="128" x2="153.666" y2="278.927" gradientUnits="userSpaceOnUse">
<stop stop-color="#43C3BB"/>
<stop offset="1" stop-color="#78CCD1"/>
</linearGradient>
<linearGradient id="paint2_linear_4002_9570" x1="167" y1="256" x2="167" y2="1.93275e-05" gradientUnits="userSpaceOnUse">
<stop stop-color="#30B099"/>
<stop offset="1" stop-color="#94E5D7"/>
</linearGradient>
<linearGradient id="paint3_linear_4002_9570" x1="39" y1="128" x2="246.583" y2="13.3565" gradientUnits="userSpaceOnUse">
<stop stop-color="#66CFF0"/>
<stop offset="1" stop-color="#A6E0F2"/>
</linearGradient>
<linearGradient id="paint4_linear_4002_9570" x1="5" y1="0" x2="5" y2="10" gradientUnits="userSpaceOnUse">
<stop stop-color="#30B099"/>
<stop offset="1" stop-color="#94E5D7"/>
</linearGradient>
<linearGradient id="paint5_linear_4002_9570" x1="357" y1="245" x2="361.478" y2="253.109" gradientUnits="userSpaceOnUse">
<stop stop-color="#66CFF0"/>
<stop offset="1" stop-color="#A6E0F2"/>
</linearGradient>
</defs>
</svg>
