<svg width="352" height="226" viewBox="0 0 352 226" fill="none" xmlns="http://www.w3.org/2000/svg">
<rect x="1" y="212" width="10" height="10" fill="url(#paint0_linear_4002_9566)"/>
<path d="M26.56 221H25.468V213.62H21.844V214.136C21.844 216.38 21.64 218.084 21.352 219.068C21.196 219.56 21.016 219.956 20.8 220.256C20.368 220.856 19.972 221.024 19.444 221.024C19.336 221.024 19.168 221.012 18.94 221V219.944C19.468 220.028 20.032 219.848 20.38 218.504C20.596 217.652 20.752 216.092 20.752 213.968V212.6H26.56V221ZM32.7892 216.332L28.9852 221H28.0612V214.76H29.0692V219.44L32.8612 214.76H33.7972V221H32.7892V216.332ZM37.3925 221.12C36.1085 221.12 35.1605 220.64 34.5725 219.692L35.3645 219.14C35.7125 219.776 36.4805 220.184 37.4045 220.184C38.4005 220.184 39.1085 219.776 39.1085 219.104C39.1085 218.552 38.6885 218.276 37.8605 218.276H36.3965V217.364H37.7885C38.4005 217.364 38.8805 217.004 38.8805 216.464C38.8805 215.876 38.2565 215.54 37.3565 215.54C36.6005 215.54 35.9765 215.828 35.5085 216.416L34.7645 215.924C35.1845 215.204 36.1445 214.604 37.4525 214.604C39.0245 214.604 39.9485 215.264 39.9485 216.308C39.9485 216.896 39.6965 217.352 39.2045 217.652C39.9245 218 40.1765 218.42 40.1765 219.08C40.1765 219.716 39.9125 220.208 39.3965 220.568C38.8805 220.94 38.2085 221.12 37.3925 221.12ZM45.9086 216.332L42.1046 221H41.1806V214.76H42.1886V219.44L45.9806 214.76H46.9166V221H45.9086V216.332ZM53.8719 221H52.8639V218.3H49.2639V221H48.2559V214.76H49.2639V217.352H52.8639V214.76H53.8719V221ZM56.222 221H55.214V214.76H59.762V215.708H56.222V221Z" fill="#76848D"/>
<rect x="96" y="212" width="10" height="10" fill="url(#paint1_linear_4002_9566)"/>
<path d="M115.128 221H114.012L117.696 212.576H118.56L122.244 221H121.104L120.168 218.876H116.052L115.128 221ZM119.76 217.916L118.104 214.1L116.46 217.916H119.76ZM123.882 223.4H122.874V214.76H123.882V215.54C124.302 214.928 124.974 214.616 125.898 214.616C126.81 214.616 127.542 214.904 128.082 215.492C128.622 216.08 128.886 216.836 128.886 217.772C128.886 218.732 128.598 219.524 128.022 220.16C127.434 220.796 126.69 221.108 125.778 221.108C124.938 221.108 124.302 220.892 123.882 220.472V223.4ZM125.79 215.564C124.878 215.564 124.17 216.152 123.882 216.86V219.188C124.242 219.836 124.842 220.16 125.694 220.16C126.306 220.16 126.822 219.944 127.218 219.512C127.614 219.08 127.818 218.528 127.818 217.844C127.818 216.452 127.038 215.564 125.79 215.564ZM134.703 219.212L135.351 219.812C134.775 220.676 133.947 221.108 132.855 221.108C131.859 221.108 131.055 220.808 130.443 220.22C129.831 219.632 129.531 218.852 129.531 217.868C129.531 216.92 129.807 216.14 130.371 215.528C130.923 214.916 131.703 214.616 132.711 214.616C133.539 214.616 134.235 214.88 134.775 215.396C135.315 215.912 135.591 216.596 135.591 217.448C135.591 217.724 135.567 217.976 135.531 218.204H130.611C130.671 219.44 131.583 220.16 132.891 220.16C133.623 220.16 134.319 219.776 134.703 219.212ZM132.639 215.54C131.499 215.54 130.755 216.236 130.599 217.292H134.523C134.463 216.188 133.755 215.54 132.639 215.54ZM142.207 221H141.199V218.3H137.599V221H136.591V214.76H137.599V217.352H141.199V214.76H142.207V221ZM143.825 222.512H142.865V220.04H143.561C144.197 219.068 144.437 217.7 144.437 215.336V214.76H149.021V220.04H149.921V222.512H148.961V221H143.825V222.512ZM148.013 215.72H145.385V216.152C145.385 217.748 145.133 219.044 144.641 220.04H148.013V215.72ZM151.221 216.26L150.705 215.504C151.281 214.964 152.277 214.616 153.201 214.616C154.869 214.616 155.757 215.528 155.757 217.148V221H154.749V220.076C154.353 220.652 153.573 221.084 152.565 221.084C151.209 221.084 150.297 220.328 150.297 219.176C150.297 217.868 151.413 217.244 153.285 217.244C153.873 217.244 154.353 217.304 154.749 217.424C154.749 216.212 154.317 215.564 153.081 215.564C152.457 215.564 151.833 215.792 151.221 216.26ZM152.805 220.172C153.273 220.172 153.693 220.04 154.041 219.788C154.389 219.536 154.617 219.248 154.749 218.948V218.312C154.401 218.192 153.957 218.132 153.417 218.132C152.049 218.132 151.365 218.468 151.365 219.14C151.365 219.776 151.941 220.172 152.805 220.172Z" fill="#76848D"/>
<rect x="193" y="211.5" width="10" height="10" fill="#DBE9EE"/>
<path d="M219.028 221H217.936V213.62H212.98V221H211.888V212.6H219.028V221ZM221.538 223.4H220.53V214.76H221.538V215.54C221.958 214.928 222.63 214.616 223.554 214.616C224.466 214.616 225.198 214.904 225.738 215.492C226.278 216.08 226.542 216.836 226.542 217.772C226.542 218.732 226.254 219.524 225.678 220.16C225.09 220.796 224.346 221.108 223.434 221.108C222.594 221.108 221.958 220.892 221.538 220.472V223.4ZM223.446 215.564C222.534 215.564 221.826 216.152 221.538 216.86V219.188C221.898 219.836 222.498 220.16 223.35 220.16C223.962 220.16 224.478 219.944 224.874 219.512C225.27 219.08 225.474 218.528 225.474 217.844C225.474 216.452 224.694 215.564 223.446 215.564ZM232.263 216.332L228.459 221H227.535V214.76H228.543V219.44L232.335 214.76H233.271V221H232.263V216.332ZM237.394 221H234.61V214.76H237.202C238.942 214.76 239.758 215.204 239.758 216.356C239.758 216.932 239.494 217.388 238.954 217.712C239.626 217.916 239.962 218.408 239.962 219.212C239.962 220.376 239.038 221 237.394 221ZM237.406 218.276H235.618V220.064H237.286C238.354 220.064 238.894 219.764 238.894 219.164C238.894 218.576 238.402 218.276 237.406 218.276ZM237.166 215.696H235.618V217.364H237.514C238.246 217.364 238.69 217.064 238.69 216.5C238.69 215.864 238.174 215.696 237.166 215.696ZM246.395 221H245.387V215.72H242.747V216.008C242.747 218.024 242.519 219.416 242.063 220.136C241.607 220.856 241.043 221.096 240.263 221V220.04C241.067 220.04 241.739 219.692 241.739 216.044V214.76H246.395V221ZM252.565 219.212L253.213 219.812C252.637 220.676 251.809 221.108 250.717 221.108C249.721 221.108 248.917 220.808 248.305 220.22C247.693 219.632 247.393 218.852 247.393 217.868C247.393 216.92 247.669 216.14 248.233 215.528C248.785 214.916 249.565 214.616 250.573 214.616C251.401 214.616 252.097 214.88 252.637 215.396C253.177 215.912 253.453 216.596 253.453 217.448C253.453 217.724 253.429 217.976 253.393 218.204H248.473C248.533 219.44 249.445 220.16 250.753 220.16C251.485 220.16 252.181 219.776 252.565 219.212ZM250.501 215.54C249.361 215.54 248.617 216.236 248.461 217.292H252.385C252.325 216.188 251.617 215.54 250.501 215.54ZM258.497 214.76H259.505V221H258.497V218.372C258.041 218.828 257.405 219.056 256.589 219.056C254.945 219.056 254.129 218.228 254.129 216.572V214.76H255.137V216.296C255.137 217.556 255.665 218.096 256.769 218.096C257.489 218.096 258.173 217.712 258.497 217.244V214.76ZM265.673 219.212L266.321 219.812C265.745 220.676 264.917 221.108 263.825 221.108C262.829 221.108 262.025 220.808 261.413 220.22C260.801 219.632 260.501 218.852 260.501 217.868C260.501 216.92 260.777 216.14 261.341 215.528C261.893 214.916 262.673 214.616 263.681 214.616C264.509 214.616 265.205 214.88 265.745 215.396C266.285 215.912 266.561 216.596 266.561 217.448C266.561 217.724 266.537 217.976 266.501 218.204H261.581C261.641 219.44 262.553 220.16 263.861 220.16C264.593 220.16 265.289 219.776 265.673 219.212ZM263.609 215.54C262.469 215.54 261.725 216.236 261.569 217.292H265.493C265.433 216.188 264.725 215.54 263.609 215.54ZM273.177 221H272.169V218.3H268.569V221H267.561V214.76H268.569V217.352H272.169V214.76H273.177V221ZM279.247 216.332L275.443 221H274.519V214.76H275.527V219.44L279.319 214.76H280.255V221H279.247V216.332ZM286.419 219.212L287.067 219.812C286.491 220.676 285.663 221.108 284.571 221.108C283.575 221.108 282.771 220.808 282.159 220.22C281.547 219.632 281.247 218.852 281.247 217.868C281.247 216.92 281.523 216.14 282.087 215.528C282.639 214.916 283.419 214.616 284.427 214.616C285.255 214.616 285.951 214.88 286.491 215.396C287.031 215.912 287.307 216.596 287.307 217.448C287.307 217.724 287.283 217.976 287.247 218.204H282.327C282.387 219.44 283.299 220.16 284.607 220.16C285.339 220.16 286.035 219.776 286.419 219.212ZM284.355 215.54C283.215 215.54 282.471 216.236 282.315 217.292H286.239C286.179 216.188 285.471 215.54 284.355 215.54Z" fill="#76848D"/>
<path d="M61.1312 14.492H58.4852V13.428H61.1312V10.768H62.2372V13.428H64.9112V14.492H62.2372V17.18H61.1312V14.492ZM67.4277 12.434L66.4057 12.07C66.7557 10.334 68.0717 9.088 70.1577 9.088C72.1737 9.088 73.4057 10.25 73.4057 12.028C73.4057 12.966 72.9997 13.904 72.4957 14.576C72.2437 14.926 71.9217 15.262 71.5437 15.612C70.7737 16.298 70.2277 16.662 69.4297 17.166L68.3517 17.838H73.7697V19H66.1397V18.048L68.2677 16.634C68.6457 16.396 68.9117 16.214 69.0657 16.102C69.2197 16.004 69.4717 15.822 69.8077 15.584C70.1437 15.346 70.3957 15.136 70.5637 14.982C70.7177 14.828 70.9277 14.632 71.1657 14.38C71.8097 13.68 72.0477 13.036 72.1177 12.154C72.1177 10.88 71.2917 10.306 70.0737 10.306C69.3177 10.306 68.7157 10.516 68.2817 10.936C67.8477 11.356 67.5537 11.86 67.4277 12.434ZM75.678 19C75.16 19.056 74.768 18.762 74.768 18.258C74.768 17.768 75.076 17.46 75.622 17.46C76.238 17.46 76.644 17.88 76.644 18.664C76.644 20.064 75.874 20.778 74.852 21.016L74.558 20.358C74.866 20.274 75.146 20.106 75.398 19.84C75.636 19.574 75.734 19.294 75.678 19ZM84.4245 19H83.2065V16.998H77.2145V16.186L83.3465 9.2H84.4245V15.864H86.2445V16.998H84.4245V19ZM83.2065 11.16L78.8945 15.864H83.2065V11.16Z" fill="#1A3341"/>
<path d="M48 31C48 29.8954 48.8954 29 50 29H94C95.1046 29 96 29.8954 96 31V65H48V31Z" fill="url(#paint2_linear_4002_9566)"/>
<path opacity="0.2" d="M60 29H84V65H60V29Z" fill="url(#paint3_linear_4002_9566)"/>
<path opacity="0.04" d="M84 29H94C95.1046 29 96 29.8954 96 31V65H84V29Z" fill="#0D262C"/>
<path opacity="0.5" d="M48 31C48 29.8954 48.8954 29 50 29H60V65H48V31Z" fill="url(#paint4_linear_4002_9566)"/>
<path d="M155.191 5.492L152.545 5.492V4.428L155.191 4.428V1.768L156.297 1.768V4.428H158.971V5.492H156.297V8.18H155.191V5.492ZM161.334 3.056L160.284 2.58C160.802 1.068 162.16 0.0739993 164.19 0.0739993C165.156 0.0739993 165.954 0.298 166.57 0.746C167.186 1.194 167.494 1.796 167.494 2.538C167.494 3.672 166.892 4.512 165.772 4.834C166.85 4.904 167.718 5.716 167.718 7.172C167.718 8.096 167.382 8.824 166.71 9.342C166.038 9.86 165.184 10.126 164.134 10.126C161.992 10.126 160.508 9.104 160.018 7.494L161.152 7.004C161.754 8.278 162.776 8.922 164.218 8.922C165.576 8.922 166.43 8.292 166.43 7.186C166.43 6.108 165.59 5.562 163.91 5.562H162.818V4.4H163.686C165.212 4.4 166.206 3.714 166.206 2.776C166.206 1.81 165.408 1.264 164.134 1.264C162.636 1.264 161.726 2.034 161.334 3.056Z" fill="#1A3341"/>
<path d="M136 22C136 20.8954 136.895 20 138 20L182 20C183.105 20 184 20.8954 184 22V65H136V22Z" fill="url(#paint5_linear_4002_9566)"/>
<path opacity="0.2" d="M148 20L172 20V65H148V20Z" fill="url(#paint6_linear_4002_9566)"/>
<path opacity="0.04" d="M172 20H182C183.105 20 184 20.8954 184 22V65H172V20Z" fill="#0D262C"/>
<path opacity="0.5" d="M136 22C136 20.8954 136.895 20 138 20L148 20V65H136V22Z" fill="url(#paint7_linear_4002_9566)"/>
<path d="M224 143C224 144.105 224.895 145 226 145H270C271.105 145 272 144.105 272 143V65H224L224 143Z" fill="url(#paint8_linear_4002_9566)"/>
<path opacity="0.2" d="M236 145H260V65H236L236 145Z" fill="url(#paint9_linear_4002_9566)"/>
<path opacity="0.04" d="M260 145H270C271.105 145 272 144.105 272 143V65H260V145Z" fill="#0D262C"/>
<path opacity="0.5" d="M224 143C224 144.105 224.895 145 226 145H236L236 65H224L224 143Z" fill="url(#paint10_linear_4002_9566)"/>
<path d="M240.82 159.492H234.324V158.442H240.82V159.492ZM243.496 159.492L242.488 159.226L243.062 154.2H249.222V155.39H244.14L243.776 158.022C244.266 157.658 245.008 157.476 246.002 157.476C247.15 157.476 248.046 157.784 248.704 158.386C249.348 159.002 249.67 159.786 249.67 160.752C249.67 161.718 249.306 162.53 248.592 163.16C247.864 163.804 246.954 164.126 245.876 164.126C244.042 164.126 242.516 163.258 241.886 161.732L243.006 161.256C243.412 162.194 244.462 162.936 245.876 162.936C247.486 162.936 248.382 162.012 248.382 160.794C248.382 159.492 247.332 158.652 245.666 158.652C244.77 158.652 244.042 158.932 243.496 159.492ZM251.671 164C251.153 164.056 250.761 163.762 250.761 163.258C250.761 162.768 251.069 162.46 251.615 162.46C252.231 162.46 252.637 162.88 252.637 163.664C252.637 165.064 251.867 165.778 250.845 166.016L250.551 165.358C250.859 165.274 251.139 165.106 251.391 164.84C251.629 164.574 251.727 164.294 251.671 164ZM260.418 164H259.2V161.998H253.208V161.186L259.34 154.2H260.418V160.864H262.238V161.998H260.418V164ZM259.2 156.16L254.888 160.864H259.2V156.16Z" fill="#1A3341"/>
<line x1="4.37114e-08" y1="65.2529" x2="319" y2="65.253" stroke="#ABBEC9"/>
<defs>
<linearGradient id="paint0_linear_4002_9566" x1="6" y1="212" x2="10.4783" y2="220.109" gradientUnits="userSpaceOnUse">
<stop stop-color="#66CFF0"/>
<stop offset="1" stop-color="#A6E0F2"/>
</linearGradient>
<linearGradient id="paint1_linear_4002_9566" x1="101" y1="212" x2="106.896" y2="217.521" gradientUnits="userSpaceOnUse">
<stop stop-color="#43C3BB"/>
<stop offset="1" stop-color="#78CCD1"/>
</linearGradient>
<linearGradient id="paint2_linear_4002_9566" x1="72" y1="29" x2="72" y2="65" gradientUnits="userSpaceOnUse">
<stop stop-color="#5BB0E0"/>
<stop offset="1" stop-color="#8EDDFF"/>
</linearGradient>
<linearGradient id="paint3_linear_4002_9566" x1="72" y1="29" x2="72" y2="65" gradientUnits="userSpaceOnUse">
<stop stop-color="white" stop-opacity="0"/>
<stop offset="0.739583" stop-color="white"/>
</linearGradient>
<linearGradient id="paint4_linear_4002_9566" x1="54" y1="-41.2" x2="54" y2="65" gradientUnits="userSpaceOnUse">
<stop stop-color="white" stop-opacity="0.05"/>
<stop offset="0.75" stop-color="white" stop-opacity="0.8"/>
</linearGradient>
<linearGradient id="paint5_linear_4002_9566" x1="160" y1="20" x2="160" y2="65" gradientUnits="userSpaceOnUse">
<stop stop-color="#30B099"/>
<stop offset="1" stop-color="#94E5D7"/>
</linearGradient>
<linearGradient id="paint6_linear_4002_9566" x1="160" y1="20" x2="160" y2="65" gradientUnits="userSpaceOnUse">
<stop stop-color="white" stop-opacity="0"/>
<stop offset="0.739583" stop-color="white"/>
</linearGradient>
<linearGradient id="paint7_linear_4002_9566" x1="142" y1="-67.75" x2="142" y2="65" gradientUnits="userSpaceOnUse">
<stop stop-color="white" stop-opacity="0.05"/>
<stop offset="0.75" stop-color="white" stop-opacity="0.8"/>
</linearGradient>
<linearGradient id="paint8_linear_4002_9566" x1="248" y1="145" x2="248" y2="65" gradientUnits="userSpaceOnUse">
<stop stop-color="#CDE3E9"/>
<stop offset="1" stop-color="#D3E8ED"/>
</linearGradient>
<linearGradient id="paint9_linear_4002_9566" x1="248" y1="145" x2="248" y2="65" gradientUnits="userSpaceOnUse">
<stop stop-color="white" stop-opacity="0"/>
<stop offset="0.739583" stop-color="white"/>
</linearGradient>
<linearGradient id="paint10_linear_4002_9566" x1="230" y1="301" x2="230" y2="65" gradientUnits="userSpaceOnUse">
<stop stop-color="white" stop-opacity="0.05"/>
<stop offset="0.75" stop-color="white" stop-opacity="0.8"/>
</linearGradient>
</defs>
</svg>
