<svg width="335" height="470" viewBox="0 0 335 470" fill="none" xmlns="http://www.w3.org/2000/svg">
<rect y="344" width="10" height="10" fill="#5A96A8"/>
<path d="M18.432 348.8C18.432 347.588 18.84 346.556 19.668 345.728C20.496 344.9 21.504 344.492 22.704 344.492C23.892 344.492 24.9 344.9 25.728 345.716C26.556 346.532 26.964 347.564 26.964 348.8C26.964 350.024 26.556 351.044 25.728 351.872C24.9 352.7 23.892 353.108 22.704 353.108C21.504 353.108 20.496 352.7 19.668 351.884C18.84 351.068 18.432 350.036 18.432 348.8ZM19.572 348.8C19.572 349.736 19.884 350.516 20.496 351.128C21.108 351.752 21.84 352.064 22.704 352.064C23.592 352.064 24.336 351.752 24.936 351.14C25.524 350.528 25.824 349.748 25.824 348.8C25.824 347.852 25.524 347.072 24.912 346.46C24.3 345.848 23.556 345.536 22.704 345.536C21.828 345.536 21.096 345.848 20.484 346.46C19.872 347.072 19.572 347.852 19.572 348.8ZM28.2335 353H27.1175L30.8015 344.576H31.6655L35.3495 353H34.2095L33.2735 350.876H29.1575L28.2335 353ZM32.8655 349.916L31.2095 346.1L29.5655 349.916H32.8655ZM35.5062 348.8C35.5062 347.588 35.9142 346.556 36.7422 345.728C37.5702 344.9 38.5782 344.492 39.7782 344.492C40.9662 344.492 41.9742 344.9 42.8022 345.716C43.6302 346.532 44.0382 347.564 44.0382 348.8C44.0382 350.024 43.6302 351.044 42.8022 351.872C41.9742 352.7 40.9662 353.108 39.7782 353.108C38.5782 353.108 37.5702 352.7 36.7422 351.884C35.9142 351.068 35.5062 350.036 35.5062 348.8ZM36.6462 348.8C36.6462 349.736 36.9582 350.516 37.5702 351.128C38.1822 351.752 38.9142 352.064 39.7782 352.064C40.6662 352.064 41.4102 351.752 42.0102 351.14C42.5982 350.528 42.8982 349.748 42.8982 348.8C42.8982 347.852 42.5982 347.072 41.9862 346.46C41.3742 345.848 40.6302 345.536 39.7782 345.536C38.9022 345.536 38.1702 345.848 37.5582 346.46C36.9462 347.072 36.6462 347.852 36.6462 348.8ZM51.4783 351.908L50.7823 352.544L48.5983 349.976V349.904L50.7943 347.384L51.4783 347.996L49.7983 349.952L51.4783 351.908ZM53.7943 351.908L53.0983 352.544L50.9143 349.976V349.904L53.1223 347.384L53.8063 347.996L52.1143 349.952L53.7943 351.908ZM56.4253 349.904V353H55.3333V344.6H58.5973C60.8893 344.6 62.0413 345.476 62.0413 347.24C62.0413 347.996 61.7653 348.632 61.2133 349.136C60.6493 349.652 59.7733 349.904 58.5853 349.904H56.4253ZM58.6453 345.62H56.4253V348.896H58.5613C60.1453 348.896 60.9133 348.272 60.9133 347.228C60.9133 346.16 60.1573 345.62 58.6453 345.62ZM61.9928 353L65.6648 348.428L62.0648 344.6H63.3968L66.9968 348.38V344.6H68.0888V348.392L71.6888 344.6H73.0328L69.3968 348.428L73.1048 353H71.7968L68.5688 349.028L68.0888 349.496V353H66.9968V349.484L66.4688 348.992L63.2528 353H61.9928ZM74.0049 354.536H72.9609V351.98H73.8489C74.3769 351.152 74.9649 349.076 74.9649 345.62V344.6H80.6409V351.98H81.6969V354.536H80.6529V353H74.0049V354.536ZM79.5489 345.62H76.0089V346.4C76.0089 347.42 75.9129 348.476 75.7209 349.568C75.5169 350.66 75.2889 351.464 75.0249 351.98H79.5489V345.62ZM87.5563 349.904V349.976L85.3723 352.544L84.6763 351.908L86.3563 349.952L84.6763 347.996L85.3603 347.384L87.5563 349.904ZM85.2403 349.904V349.976L83.0563 352.544L82.3483 351.908L84.0403 349.952L82.3483 347.996L83.0323 347.384L85.2403 349.904Z" fill="#1A3341" fill-opacity="0.6"/>
<rect width="10" height="10" transform="translate(0 364)" fill="#60CCCC"/>
<rect opacity="0.7" y="364" width="10" height="10" fill="#60CCCC"/>
<path d="M20.952 365.62H18.036V364.6H24.972V365.62H22.044V373H20.952V365.62ZM24.9008 368.8C24.9008 367.588 25.3088 366.556 26.1368 365.728C26.9648 364.9 27.9728 364.492 29.1728 364.492C30.3608 364.492 31.3688 364.9 32.1968 365.716C33.0248 366.532 33.4328 367.564 33.4328 368.8C33.4328 370.024 33.0248 371.044 32.1968 371.872C31.3688 372.7 30.3608 373.108 29.1728 373.108C27.9728 373.108 26.9648 372.7 26.1368 371.884C25.3088 371.068 24.9008 370.036 24.9008 368.8ZM26.0408 368.8C26.0408 369.736 26.3528 370.516 26.9648 371.128C27.5768 371.752 28.3088 372.064 29.1728 372.064C30.0608 372.064 30.8047 371.752 31.4048 371.14C31.9928 370.528 32.2928 369.748 32.2928 368.8C32.2928 367.852 31.9928 367.072 31.3808 366.46C30.7688 365.848 30.0248 365.536 29.1728 365.536C28.2968 365.536 27.5648 365.848 26.9528 366.46C26.3408 367.072 26.0408 367.852 26.0408 368.8ZM34.2992 368.8C34.2992 367.588 34.7072 366.556 35.5352 365.728C36.3632 364.9 37.3712 364.492 38.5712 364.492C39.7592 364.492 40.7672 364.9 41.5952 365.716C42.4232 366.532 42.8312 367.564 42.8312 368.8C42.8312 370.024 42.4232 371.044 41.5952 371.872C40.7672 372.7 39.7592 373.108 38.5712 373.108C37.3712 373.108 36.3632 372.7 35.5352 371.884C34.7072 371.068 34.2992 370.036 34.2992 368.8ZM35.4392 368.8C35.4392 369.736 35.7512 370.516 36.3632 371.128C36.9752 371.752 37.7072 372.064 38.5712 372.064C39.4592 372.064 40.2032 371.752 40.8032 371.14C41.3912 370.528 41.6912 369.748 41.6912 368.8C41.6912 367.852 41.3912 367.072 40.7792 366.46C40.1672 365.848 39.4232 365.536 38.5712 365.536C37.6952 365.536 36.9632 365.848 36.3512 366.46C35.7392 367.072 35.4392 367.852 35.4392 368.8ZM50.2713 371.908L49.5753 372.544L47.3913 369.976V369.904L49.5873 367.384L50.2713 367.996L48.5913 369.952L50.2713 371.908ZM52.5873 371.908L51.8913 372.544L49.7073 369.976V369.904L51.9153 367.384L52.5993 367.996L50.9073 369.952L52.5873 371.908ZM55.2183 373H54.1263V364.6H55.2183V368.656L59.4663 364.6H60.8943L56.9343 368.404L61.1823 373H59.7423L56.1183 369.124L55.2183 369.988V373ZM63.9247 365.62H61.0087V364.6H67.9447V365.62H65.0167V373H63.9247V365.62ZM67.7935 373L71.4655 368.428L67.8655 364.6H69.1975L72.7975 368.38V364.6H73.8895V368.392L77.4895 364.6H78.8335L75.1975 368.428L78.9055 373H77.5975L74.3695 369.028L73.8895 369.496V373H72.7975V369.484L72.2695 368.992L69.0535 373H67.7935ZM82.3121 370.156H79.2401V369.232H82.3121V370.156ZM85.2183 373H84.1263V364.6H90.1023V365.62H85.2183V373ZM98.1335 373H97.0415V365.62H92.0855V373H90.9935V364.6H98.1335V373ZM104.759 369.904V369.976L102.575 372.544L101.879 371.908L103.559 369.952L101.879 367.996L102.563 367.384L104.759 369.904ZM102.443 369.904V369.976L100.259 372.544L99.5514 371.908L101.243 369.952L99.5514 367.996L100.235 367.384L102.443 369.904Z" fill="#1A3341" fill-opacity="0.6"/>
<rect width="10" height="10" transform="translate(0 384)" fill="url(#paint0_linear_4002_20370)"/>
<path d="M18.888 384.6H24.888V385.62H19.98V388.032H22.476C24.456 388.032 25.512 388.884 25.512 390.432C25.512 392.16 24.3 393 22.152 393H18.888V384.6ZM22.308 389.052H19.98V391.98H22.236C23.664 391.98 24.384 391.464 24.384 390.444C24.384 389.52 23.688 389.052 22.308 389.052ZM31.4779 391.212L32.1259 391.812C31.5499 392.676 30.7219 393.108 29.6299 393.108C28.6339 393.108 27.8299 392.808 27.2179 392.22C26.6059 391.632 26.3059 390.852 26.3059 389.868C26.3059 388.92 26.5819 388.14 27.1459 387.528C27.6979 386.916 28.4779 386.616 29.4859 386.616C30.3139 386.616 31.0099 386.88 31.5499 387.396C32.0899 387.912 32.3659 388.596 32.3659 389.448C32.3659 389.724 32.3419 389.976 32.3059 390.204H27.3859C27.4459 391.44 28.3579 392.16 29.6659 392.16C30.3979 392.16 31.0939 391.776 31.4779 391.212ZM29.4139 387.54C28.2739 387.54 27.5299 388.236 27.3739 389.292H31.2979C31.2379 388.188 30.5299 387.54 29.4139 387.54ZM38.7693 393H37.7613V387.72H35.1213V388.008C35.1213 390.024 34.8933 391.416 34.4373 392.136C33.9813 392.856 33.4173 393.096 32.6373 393V392.04C33.4413 392.04 34.1133 391.692 34.1133 388.044V386.76H38.7693V393ZM39.8879 389.868C39.8879 388.92 40.1999 388.14 40.8119 387.528C41.4239 386.916 42.2159 386.616 43.1879 386.616C44.1719 386.616 44.9759 386.916 45.5879 387.528C46.1999 388.14 46.5119 388.92 46.5119 389.868C46.5119 390.816 46.1999 391.584 45.5879 392.196C44.9639 392.808 44.1599 393.108 43.1879 393.108C42.2159 393.108 41.4239 392.808 40.8119 392.196C40.1999 391.584 39.8879 390.816 39.8879 389.868ZM40.9559 389.868C40.9559 390.528 41.1599 391.08 41.5799 391.512C41.9999 391.944 42.5279 392.16 43.1879 392.16C43.8479 392.16 44.3999 391.944 44.8199 391.524C45.2399 391.104 45.4439 390.552 45.4439 389.868C45.4439 389.184 45.2279 388.632 44.8079 388.2C44.3759 387.78 43.8359 387.564 43.1879 387.564C42.5399 387.564 42.0119 387.78 41.5919 388.2C41.1719 388.62 40.9559 389.184 40.9559 389.868ZM48.6384 395.4H47.6304V386.76H48.6384V387.54C49.0584 386.928 49.7304 386.616 50.6544 386.616C51.5664 386.616 52.2984 386.904 52.8384 387.492C53.3784 388.08 53.6424 388.836 53.6424 389.772C53.6424 390.732 53.3544 391.524 52.7784 392.16C52.1904 392.796 51.4464 393.108 50.5344 393.108C49.6944 393.108 49.0584 392.892 48.6384 392.472V395.4ZM50.5464 387.564C49.6344 387.564 48.9264 388.152 48.6384 388.86V391.188C48.9984 391.836 49.5984 392.16 50.4504 392.16C51.0624 392.16 51.5784 391.944 51.9744 391.512C52.3704 391.08 52.5744 390.528 52.5744 389.844C52.5744 388.452 51.7944 387.564 50.5464 387.564ZM54.6416 395.376L55.0376 394.5C55.1336 394.536 55.2176 394.56 55.3016 394.56C55.7696 394.56 56.0936 394.236 56.5136 393.24L56.7056 392.772L53.6816 386.76H54.8696L57.2096 391.5L58.9736 386.76H60.0776L57.7016 392.904C57.2936 393.912 56.9096 394.596 56.5616 394.968C56.2016 395.34 55.7936 395.52 55.3376 395.52C55.0736 395.52 54.8456 395.472 54.6416 395.376ZM65.3336 391.2L66.0536 391.716C65.5856 392.592 64.5296 393.108 63.4856 393.108C62.4896 393.108 61.6856 392.808 61.0736 392.22C60.4616 391.632 60.1496 390.852 60.1496 389.868C60.1496 388.932 60.4496 388.152 61.0616 387.54C61.6736 386.928 62.4536 386.616 63.4256 386.616C64.5416 386.616 65.5376 387.12 65.9576 387.888L65.1776 388.416C64.7576 387.852 64.1816 387.564 63.4496 387.564C62.8016 387.564 62.2736 387.78 61.8536 388.212C61.4336 388.644 61.2176 389.196 61.2176 389.868C61.2176 390.552 61.4336 391.104 61.8776 391.524C62.3096 391.944 62.8736 392.16 63.5816 392.16C64.3256 392.16 64.9136 391.836 65.3336 391.2ZM71.3805 391.2L72.1005 391.716C71.6325 392.592 70.5765 393.108 69.5325 393.108C68.5365 393.108 67.7325 392.808 67.1205 392.22C66.5085 391.632 66.1965 390.852 66.1965 389.868C66.1965 388.932 66.4965 388.152 67.1085 387.54C67.7205 386.928 68.5005 386.616 69.4725 386.616C70.5885 386.616 71.5845 387.12 72.0045 387.888L71.2245 388.416C70.8045 387.852 70.2285 387.564 69.4965 387.564C68.8485 387.564 68.3205 387.78 67.9005 388.212C67.4805 388.644 67.2645 389.196 67.2645 389.868C67.2645 390.552 67.4805 391.104 67.9245 391.524C68.3565 391.944 68.9205 392.16 69.6285 392.16C70.3725 392.16 70.9605 391.836 71.3805 391.2ZM73.9392 393H72.9312V386.76H73.9392V389.556L77.0952 386.76H78.4512L75.2232 389.628L78.6072 393H77.2632L74.4552 390.252L73.9392 390.732V393ZM79.6573 388.26L79.1413 387.504C79.7173 386.964 80.7133 386.616 81.6373 386.616C83.3053 386.616 84.1933 387.528 84.1933 389.148V393H83.1853V392.076C82.7893 392.652 82.0093 393.084 81.0013 393.084C79.6453 393.084 78.7333 392.328 78.7333 391.176C78.7333 389.868 79.8493 389.244 81.7213 389.244C82.3093 389.244 82.7893 389.304 83.1853 389.424C83.1853 388.212 82.7533 387.564 81.5173 387.564C80.8933 387.564 80.2693 387.792 79.6573 388.26ZM81.2413 392.172C81.7093 392.172 82.1293 392.04 82.4773 391.788C82.8253 391.536 83.0533 391.248 83.1853 390.948V390.312C82.8373 390.192 82.3933 390.132 81.8533 390.132C80.4853 390.132 79.8013 390.468 79.8013 391.14C79.8013 391.776 80.3773 392.172 81.2413 392.172ZM88.0715 386.76H90.5795V393H89.5715V390.792H88.0475L86.1995 393H84.9755L86.9675 390.636C86.0075 390.456 85.3715 389.724 85.3715 388.764C85.3715 387.576 86.1995 386.76 88.0715 386.76ZM86.4395 388.788C86.4395 389.4 87.0155 389.832 87.9275 389.832H89.5715V387.72H87.9515C86.9435 387.72 86.4395 388.08 86.4395 388.788ZM94.9102 393L97.6222 389.64L94.9702 386.76H96.2542L98.7862 389.484V386.76H99.7942V389.484L102.362 386.76H103.61L100.934 389.616L103.718 393H102.47L100.202 390.228L99.7942 390.612V393H98.7862V390.624L98.3542 390.276L96.1342 393H94.9102ZM108.869 391.212L109.517 391.812C108.941 392.676 108.113 393.108 107.021 393.108C106.025 393.108 105.221 392.808 104.609 392.22C103.997 391.632 103.697 390.852 103.697 389.868C103.697 388.92 103.973 388.14 104.537 387.528C105.089 386.916 105.869 386.616 106.877 386.616C107.705 386.616 108.401 386.88 108.941 387.396C109.48 387.912 109.757 388.596 109.757 389.448C109.757 389.724 109.733 389.976 109.697 390.204H104.777C104.837 391.44 105.749 392.16 107.057 392.16C107.789 392.16 108.485 391.776 108.869 391.212ZM106.805 387.54C105.665 387.54 104.921 388.236 104.765 389.292H108.689C108.629 388.188 107.921 387.54 106.805 387.54ZM116.16 393H115.152V387.72H112.512V388.008C112.512 390.024 112.284 391.416 111.828 392.136C111.372 392.856 110.808 393.096 110.028 393V392.04C110.832 392.04 111.504 391.692 111.504 388.044V386.76H116.16V393ZM122.451 391.212L123.099 391.812C122.523 392.676 121.695 393.108 120.603 393.108C119.607 393.108 118.803 392.808 118.191 392.22C117.579 391.632 117.279 390.852 117.279 389.868C117.279 388.92 117.555 388.14 118.119 387.528C118.671 386.916 119.451 386.616 120.459 386.616C121.287 386.616 121.983 386.88 122.523 387.396C123.063 387.912 123.339 388.596 123.339 389.448C123.339 389.724 123.315 389.976 123.279 390.204H118.359C118.419 391.44 119.331 392.16 120.639 392.16C121.371 392.16 122.067 391.776 122.451 391.212ZM120.387 387.54C119.247 387.54 118.503 388.236 118.347 389.292H122.271C122.211 388.188 121.503 387.54 120.387 387.54ZM126.48 393.12C125.196 393.12 124.248 392.64 123.66 391.692L124.452 391.14C124.8 391.776 125.568 392.184 126.492 392.184C127.488 392.184 128.196 391.776 128.196 391.104C128.196 390.552 127.776 390.276 126.948 390.276H125.484V389.364H126.876C127.488 389.364 127.968 389.004 127.968 388.464C127.968 387.876 127.344 387.54 126.444 387.54C125.688 387.54 125.064 387.828 124.596 388.416L123.852 387.924C124.272 387.204 125.232 386.604 126.54 386.604C128.112 386.604 129.036 387.264 129.036 388.308C129.036 388.896 128.784 389.352 128.292 389.652C129.012 390 129.264 390.42 129.264 391.08C129.264 391.716 129 392.208 128.484 392.568C127.968 392.94 127.296 393.12 126.48 393.12ZM136.004 393H134.996V390.3H131.396V393H130.388V386.76H131.396V389.352H134.996V386.76H136.004V393ZM137.946 388.26L137.43 387.504C138.006 386.964 139.002 386.616 139.926 386.616C141.594 386.616 142.482 387.528 142.482 389.148V393H141.474V392.076C141.078 392.652 140.298 393.084 139.29 393.084C137.934 393.084 137.022 392.328 137.022 391.176C137.022 389.868 138.138 389.244 140.01 389.244C140.598 389.244 141.078 389.304 141.474 389.424C141.474 388.212 141.042 387.564 139.806 387.564C139.182 387.564 138.558 387.792 137.946 388.26ZM139.53 392.172C139.998 392.172 140.418 392.04 140.766 391.788C141.114 391.536 141.342 391.248 141.474 390.948V390.312C141.126 390.192 140.682 390.132 140.142 390.132C138.774 390.132 138.09 390.468 138.09 391.14C138.09 391.776 138.666 392.172 139.53 392.172ZM146.361 386.76H148.869V393H147.861V390.792H146.337L144.489 393H143.265L145.257 390.636C144.297 390.456 143.661 389.724 143.661 388.764C143.661 387.576 144.489 386.76 146.361 386.76ZM144.729 388.788C144.729 389.4 145.305 389.832 146.217 389.832H147.861V387.72H146.241C145.233 387.72 144.729 388.08 144.729 388.788ZM154.207 394.512H153.247V392.04H153.943C154.579 391.068 154.819 389.7 154.819 387.336V386.76H159.403V392.04H160.303V394.512H159.343V393H154.207V394.512ZM158.395 387.72H155.767V388.152C155.767 389.748 155.515 391.044 155.023 392.04H158.395V387.72ZM160.825 389.868C160.825 388.92 161.137 388.14 161.749 387.528C162.361 386.916 163.153 386.616 164.125 386.616C165.109 386.616 165.913 386.916 166.525 387.528C167.137 388.14 167.449 388.92 167.449 389.868C167.449 390.816 167.137 391.584 166.525 392.196C165.901 392.808 165.097 393.108 164.125 393.108C163.153 393.108 162.361 392.808 161.749 392.196C161.137 391.584 160.825 390.816 160.825 389.868ZM161.893 389.868C161.893 390.528 162.097 391.08 162.517 391.512C162.937 391.944 163.465 392.16 164.125 392.16C164.785 392.16 165.337 391.944 165.757 391.524C166.177 391.104 166.381 390.552 166.381 389.868C166.381 389.184 166.165 388.632 165.745 388.2C165.313 387.78 164.773 387.564 164.125 387.564C163.477 387.564 162.949 387.78 162.529 388.2C162.109 388.62 161.893 389.184 161.893 389.868ZM169.576 395.4H168.568V386.76H169.576V387.54C169.996 386.928 170.668 386.616 171.592 386.616C172.504 386.616 173.236 386.904 173.776 387.492C174.316 388.08 174.58 388.836 174.58 389.772C174.58 390.732 174.292 391.524 173.716 392.16C173.128 392.796 172.384 393.108 171.472 393.108C170.632 393.108 169.996 392.892 169.576 392.472V395.4ZM171.484 387.564C170.572 387.564 169.864 388.152 169.576 388.86V391.188C169.936 391.836 170.536 392.16 171.388 392.16C172 392.16 172.516 391.944 172.912 391.512C173.308 391.08 173.512 390.528 173.512 389.844C173.512 388.452 172.732 387.564 171.484 387.564ZM175.345 389.868C175.345 388.92 175.657 388.14 176.269 387.528C176.881 386.916 177.673 386.616 178.645 386.616C179.629 386.616 180.433 386.916 181.045 387.528C181.657 388.14 181.969 388.92 181.969 389.868C181.969 390.816 181.657 391.584 181.045 392.196C180.421 392.808 179.617 393.108 178.645 393.108C177.673 393.108 176.881 392.808 176.269 392.196C175.657 391.584 175.345 390.816 175.345 389.868ZM176.413 389.868C176.413 390.528 176.617 391.08 177.037 391.512C177.457 391.944 177.985 392.16 178.645 392.16C179.305 392.16 179.857 391.944 180.277 391.524C180.697 391.104 180.901 390.552 180.901 389.868C180.901 389.184 180.685 388.632 180.265 388.2C179.833 387.78 179.293 387.564 178.645 387.564C177.997 387.564 177.469 387.78 177.049 388.2C176.629 388.62 176.413 389.184 176.413 389.868ZM184.095 393H183.087V386.76H187.635V387.708H184.095V393ZM188.665 388.26L188.149 387.504C188.725 386.964 189.721 386.616 190.645 386.616C192.313 386.616 193.201 387.528 193.201 389.148V393H192.193V392.076C191.797 392.652 191.017 393.084 190.009 393.084C188.653 393.084 187.741 392.328 187.741 391.176C187.741 389.868 188.857 389.244 190.729 389.244C191.317 389.244 191.797 389.304 192.193 389.424C192.193 388.212 191.761 387.564 190.525 387.564C189.901 387.564 189.277 387.792 188.665 388.26ZM190.249 392.172C190.717 392.172 191.137 392.04 191.485 391.788C191.833 391.536 192.061 391.248 192.193 390.948V390.312C191.845 390.192 191.401 390.132 190.861 390.132C189.493 390.132 188.809 390.468 188.809 391.14C188.809 391.776 189.385 392.172 190.249 392.172Z" fill="#1A3341" fill-opacity="0.6"/>
<rect width="10" height="10" transform="translate(0 404)" fill="#184977"/>
<rect y="404" width="10" height="10" fill="#184977"/>
<path d="M26.028 413H24.936V405.62H19.98V413H18.888V404.6H26.028V413ZM28.658 415.4H27.65V406.76H28.658V407.54C29.078 406.928 29.75 406.616 30.674 406.616C31.586 406.616 32.318 406.904 32.858 407.492C33.398 408.08 33.662 408.836 33.662 409.772C33.662 410.732 33.374 411.524 32.798 412.16C32.21 412.796 31.466 413.108 30.554 413.108C29.714 413.108 29.078 412.892 28.658 412.472V415.4ZM30.566 407.564C29.654 407.564 28.946 408.152 28.658 408.86V411.188C29.018 411.836 29.618 412.16 30.47 412.16C31.082 412.16 31.598 411.944 31.994 411.512C32.39 411.08 32.594 410.528 32.594 409.844C32.594 408.452 31.814 407.564 30.566 407.564ZM34.427 409.868C34.427 408.92 34.739 408.14 35.351 407.528C35.963 406.916 36.755 406.616 37.727 406.616C38.711 406.616 39.515 406.916 40.127 407.528C40.739 408.14 41.051 408.92 41.051 409.868C41.051 410.816 40.739 411.584 40.127 412.196C39.503 412.808 38.699 413.108 37.727 413.108C36.755 413.108 35.963 412.808 35.351 412.196C34.739 411.584 34.427 410.816 34.427 409.868ZM35.495 409.868C35.495 410.528 35.699 411.08 36.119 411.512C36.539 411.944 37.067 412.16 37.727 412.16C38.387 412.16 38.939 411.944 39.359 411.524C39.779 411.104 39.983 410.552 39.983 409.868C39.983 409.184 39.767 408.632 39.347 408.2C38.915 407.78 38.375 407.564 37.727 407.564C37.079 407.564 36.551 407.78 36.131 408.2C35.711 408.62 35.495 409.184 35.495 409.868ZM46.2135 406.76H47.2215V413H46.2135V410.372C45.7575 410.828 45.1215 411.056 44.3055 411.056C42.6615 411.056 41.8455 410.228 41.8455 408.572V406.76H42.8535V408.296C42.8535 409.556 43.3815 410.096 44.4855 410.096C45.2055 410.096 45.8895 409.712 46.2135 409.244V406.76ZM53.4131 408.332L49.6091 413H48.6851V406.76H49.6931V411.44L53.4851 406.76H54.4211V413H53.4131V408.332ZM60.7044 411.212L61.3524 411.812C60.7764 412.676 59.9484 413.108 58.8564 413.108C57.8604 413.108 57.0564 412.808 56.4444 412.22C55.8324 411.632 55.5324 410.852 55.5324 409.868C55.5324 408.92 55.8084 408.14 56.3724 407.528C56.9244 406.916 57.7044 406.616 58.7124 406.616C59.5404 406.616 60.2364 406.88 60.7764 407.396C61.3164 407.912 61.5924 408.596 61.5924 409.448C61.5924 409.724 61.5684 409.976 61.5324 410.204H56.6124C56.6724 411.44 57.5844 412.16 58.8924 412.16C59.6244 412.16 60.3204 411.776 60.7044 411.212ZM58.6404 407.54C57.5004 407.54 56.7564 408.236 56.6004 409.292H60.5244C60.4644 408.188 59.7564 407.54 58.6404 407.54Z" fill="#1A3341" fill-opacity="0.6"/>
<path d="M6.912 314.496L1.812 321H0.888V312.6H1.98V319.104L7.068 312.6H8.004V321H6.912V314.496ZM15.2543 321H14.2463V318.3H10.6463V321H9.63825V314.76H10.6463V317.352H14.2463V314.76H15.2543V321ZM20.7724 323.4H19.7644V321.12H19.6924C18.6484 321.12 17.8324 320.82 17.2444 320.22C16.6444 319.62 16.3444 318.84 16.3444 317.892C16.3444 316.992 16.6444 316.236 17.2444 315.6C17.8444 314.964 18.6604 314.652 19.6804 314.652H19.7644V312.24H20.7724V314.652H20.8684C21.8644 314.652 22.6804 314.952 23.2924 315.564C23.9044 316.176 24.2044 316.956 24.2044 317.892C24.2044 318.84 23.9044 319.62 23.3164 320.22C22.7164 320.82 21.8884 321.12 20.8444 321.12H20.7724V323.4ZM17.4124 317.892C17.4124 319.284 18.2164 320.16 19.6924 320.16H19.7644V315.612H19.6804C18.2284 315.612 17.4124 316.536 17.4124 317.892ZM20.8444 315.612H20.7724V320.16H20.8444C22.3444 320.16 23.1364 319.296 23.1364 317.892C23.1364 316.56 22.2964 315.612 20.8444 315.612ZM26.3025 323.4H25.2945V314.76H26.3025V315.54C26.7225 314.928 27.3945 314.616 28.3185 314.616C29.2305 314.616 29.9625 314.904 30.5025 315.492C31.0425 316.08 31.3065 316.836 31.3065 317.772C31.3065 318.732 31.0185 319.524 30.4425 320.16C29.8545 320.796 29.1105 321.108 28.1985 321.108C27.3585 321.108 26.7225 320.892 26.3025 320.472V323.4ZM28.2105 315.564C27.2985 315.564 26.5905 316.152 26.3025 316.86V319.188C26.6625 319.836 27.2625 320.16 28.1145 320.16C28.7265 320.16 29.2425 319.944 29.6385 319.512C30.0345 319.08 30.2385 318.528 30.2385 317.844C30.2385 316.452 29.4585 315.564 28.2105 315.564ZM32.8995 316.26L32.3835 315.504C32.9595 314.964 33.9555 314.616 34.8795 314.616C36.5475 314.616 37.4355 315.528 37.4355 317.148V321H36.4275V320.076C36.0315 320.652 35.2515 321.084 34.2435 321.084C32.8875 321.084 31.9755 320.328 31.9755 319.176C31.9755 317.868 33.0915 317.244 34.9635 317.244C35.5515 317.244 36.0315 317.304 36.4275 317.424C36.4275 316.212 35.9955 315.564 34.7595 315.564C34.1355 315.564 33.5115 315.792 32.8995 316.26ZM34.4835 320.172C34.9515 320.172 35.3715 320.04 35.7195 319.788C36.0675 319.536 36.2955 319.248 36.4275 318.948V318.312C36.0795 318.192 35.6355 318.132 35.0955 318.132C33.7275 318.132 33.0435 318.468 33.0435 319.14C33.0435 319.776 33.6195 320.172 34.4835 320.172ZM43.6657 319.2L44.3857 319.716C43.9177 320.592 42.8617 321.108 41.8177 321.108C40.8217 321.108 40.0177 320.808 39.4057 320.22C38.7937 319.632 38.4817 318.852 38.4817 317.868C38.4817 316.932 38.7817 316.152 39.3937 315.54C40.0057 314.928 40.7857 314.616 41.7577 314.616C42.8737 314.616 43.8697 315.12 44.2897 315.888L43.5097 316.416C43.0897 315.852 42.5137 315.564 41.7817 315.564C41.1337 315.564 40.6057 315.78 40.1857 316.212C39.7657 316.644 39.5497 317.196 39.5497 317.868C39.5497 318.552 39.7657 319.104 40.2097 319.524C40.6417 319.944 41.2057 320.16 41.9137 320.16C42.6577 320.16 43.2457 319.836 43.6657 319.2ZM46.9781 315.708H44.5901V314.76H50.3981V315.708H47.9861V321H46.9781V315.708ZM52.1541 323.4H51.1461V314.76H52.1541V315.54C52.5741 314.928 53.2461 314.616 54.1701 314.616C55.0821 314.616 55.8141 314.904 56.3541 315.492C56.8941 316.08 57.1581 316.836 57.1581 317.772C57.1581 318.732 56.8701 319.524 56.2941 320.16C55.7061 320.796 54.9621 321.108 54.0501 321.108C53.2101 321.108 52.5741 320.892 52.1541 320.472V323.4ZM54.0621 315.564C53.1501 315.564 52.4421 316.152 52.1541 316.86V319.188C52.5141 319.836 53.1141 320.16 53.9661 320.16C54.5781 320.16 55.0941 319.944 55.4901 319.512C55.8861 319.08 56.0901 318.528 56.0901 317.844C56.0901 316.452 55.3101 315.564 54.0621 315.564ZM58.1573 323.376L58.5533 322.5C58.6493 322.536 58.7333 322.56 58.8173 322.56C59.2853 322.56 59.6093 322.236 60.0293 321.24L60.2213 320.772L57.1972 314.76H58.3853L60.7253 319.5L62.4893 314.76H63.5933L61.2173 320.904C60.8092 321.912 60.4253 322.596 60.0773 322.968C59.7173 323.34 59.3093 323.52 58.8533 323.52C58.5893 323.52 58.3613 323.472 58.1573 323.376ZM65.2791 321H64.2711V314.76H65.2791V317.556L68.4351 314.76H69.7911L66.5631 317.628L69.9471 321H68.6031L65.7951 318.252L65.2791 318.732V321ZM72.2555 315.708H69.8675V314.76H75.6755V315.708H73.2635V321H72.2555V315.708ZM76.8018 323.376L77.1978 322.5C77.2938 322.536 77.3778 322.56 77.4618 322.56C77.9298 322.56 78.2538 322.236 78.6738 321.24L78.8658 320.772L75.8418 314.76H77.0298L79.3698 319.5L81.1338 314.76H82.2378L79.8618 320.904C79.4538 321.912 79.0698 322.596 78.7218 322.968C78.3618 323.34 77.9538 323.52 77.4978 323.52C77.2338 323.52 77.0058 323.472 76.8018 323.376ZM83.9236 323.4H82.9156V314.76H83.9236V315.54C84.3436 314.928 85.0156 314.616 85.9396 314.616C86.8516 314.616 87.5836 314.904 88.1236 315.492C88.6636 316.08 88.9276 316.836 88.9276 317.772C88.9276 318.732 88.6396 319.524 88.0636 320.16C87.4756 320.796 86.7316 321.108 85.8196 321.108C84.9796 321.108 84.3436 320.892 83.9236 320.472V323.4ZM85.8316 315.564C84.9196 315.564 84.2116 316.152 83.9236 316.86V319.188C84.2836 319.836 84.8836 320.16 85.7356 320.16C86.3476 320.16 86.8636 319.944 87.2596 319.512C87.6556 319.08 87.8596 318.528 87.8596 317.844C87.8596 316.452 87.0796 315.564 85.8316 315.564ZM95.6566 321H94.6486V318.3H91.0486V321H90.0406V314.76H91.0486V317.352H94.6486V314.76H95.6566V321ZM99.3747 321H97.1187V314.76H98.1267V316.704H99.4707C101.307 316.704 102.039 317.556 102.039 318.84C102.039 320.1 101.235 321 99.3747 321ZM99.3627 317.664H98.1267V320.04H99.3507C100.503 320.04 100.971 319.632 100.971 318.852C100.971 318.06 100.431 317.664 99.3627 317.664ZM103.947 321H102.927V314.76H103.947V321ZM110.228 319.212L110.876 319.812C110.3 320.676 109.472 321.108 108.38 321.108C107.384 321.108 106.58 320.808 105.968 320.22C105.356 319.632 105.056 318.852 105.056 317.868C105.056 316.92 105.332 316.14 105.896 315.528C106.448 314.916 107.228 314.616 108.236 314.616C109.064 314.616 109.76 314.88 110.3 315.396C110.84 315.912 111.116 316.596 111.116 317.448C111.116 317.724 111.092 317.976 111.056 318.204H106.136C106.196 319.44 107.108 320.16 108.416 320.16C109.148 320.16 109.844 319.776 110.228 319.212ZM108.164 315.54C107.024 315.54 106.28 316.236 106.124 317.292H110.048C109.988 316.188 109.28 315.54 108.164 315.54ZM121.378 321H120.37V315.708H116.842V321H115.834V314.76H121.378V321ZM128.265 321H127.257V315.72H124.617V316.008C124.617 318.024 124.389 319.416 123.933 320.136C123.477 320.856 122.913 321.096 122.133 321V320.04C122.937 320.04 123.609 319.692 123.609 316.044V314.76H128.265V321ZM130.212 316.26L129.696 315.504C130.272 314.964 131.268 314.616 132.192 314.616C133.86 314.616 134.748 315.528 134.748 317.148V321H133.74V320.076C133.344 320.652 132.564 321.084 131.556 321.084C130.2 321.084 129.288 320.328 129.288 319.176C129.288 317.868 130.404 317.244 132.276 317.244C132.864 317.244 133.344 317.304 133.74 317.424C133.74 316.212 133.308 315.564 132.072 315.564C131.448 315.564 130.824 315.792 130.212 316.26ZM131.796 320.172C132.264 320.172 132.684 320.04 133.032 319.788C133.38 319.536 133.608 319.248 133.74 318.948V318.312C133.392 318.192 132.948 318.132 132.408 318.132C131.04 318.132 130.356 318.468 130.356 319.14C130.356 319.776 130.932 320.172 131.796 320.172ZM137.599 315.708H135.211V314.76H141.019V315.708H138.607V321H137.599V315.708ZM146.357 319.212L147.005 319.812C146.429 320.676 145.601 321.108 144.509 321.108C143.513 321.108 142.709 320.808 142.097 320.22C141.485 319.632 141.185 318.852 141.185 317.868C141.185 316.92 141.461 316.14 142.025 315.528C142.577 314.916 143.357 314.616 144.365 314.616C145.193 314.616 145.889 314.88 146.429 315.396C146.969 315.912 147.245 316.596 147.245 317.448C147.245 317.724 147.221 317.976 147.185 318.204H142.265C142.325 319.44 143.237 320.16 144.545 320.16C145.277 320.16 145.973 319.776 146.357 319.212ZM144.293 315.54C143.153 315.54 142.409 316.236 142.253 317.292H146.177C146.117 316.188 145.409 315.54 144.293 315.54ZM147.352 321L150.064 317.64L147.412 314.76H148.696L151.228 317.484V314.76H152.236V317.484L154.804 314.76H156.052L153.376 317.616L156.16 321H154.912L152.644 318.228L152.236 318.612V321H151.228V318.624L150.796 318.276L148.576 321H147.352ZM161.624 316.332L157.82 321H156.896V314.76H157.904V319.44L161.696 314.76H162.632V321H161.624V316.332ZM170.629 322.752L169.945 323.448C169.057 322.68 168.409 321.804 168.001 320.82C167.593 319.836 167.389 318.864 167.389 317.892C167.389 315.972 168.145 313.944 169.957 312.324L170.617 313.02C169.153 314.388 168.421 316.008 168.421 317.892C168.421 319.68 169.237 321.408 170.629 322.752ZM170.754 321L173.466 317.64L170.814 314.76H172.098L174.63 317.484V314.76H175.638V317.484L178.206 314.76H179.454L176.778 317.616L179.562 321H178.314L176.046 318.228L175.638 318.612V321H174.63V318.624L174.198 318.276L171.978 321H170.754ZM180.046 323.46L179.158 323.124L183.142 312.444L184.03 312.732L180.046 323.46ZM184.629 322.512H183.669V320.04H184.365C185.001 319.068 185.241 317.7 185.241 315.336V314.76H189.825V320.04H190.725V322.512H189.765V321H184.629V322.512ZM188.817 315.72H186.189V316.152C186.189 317.748 185.937 319.044 185.445 320.04H188.817V315.72ZM196.861 315.708H194.473V314.76H200.281V315.708H197.869V321H196.861V315.708ZM201.298 316.26L200.782 315.504C201.358 314.964 202.354 314.616 203.278 314.616C204.946 314.616 205.834 315.528 205.834 317.148V321H204.826V320.076C204.43 320.652 203.65 321.084 202.642 321.084C201.286 321.084 200.374 320.328 200.374 319.176C200.374 317.868 201.49 317.244 203.362 317.244C203.95 317.244 204.43 317.304 204.826 317.424C204.826 316.212 204.394 315.564 203.158 315.564C202.534 315.564 201.91 315.792 201.298 316.26ZM202.882 320.172C203.35 320.172 203.77 320.04 204.118 319.788C204.466 319.536 204.694 319.248 204.826 318.948V318.312C204.478 318.192 204.034 318.132 203.494 318.132C202.126 318.132 201.442 318.468 201.442 319.14C201.442 319.776 202.018 320.172 202.882 320.172ZM208.236 323.4H207.228V314.76H208.236V315.54C208.656 314.928 209.328 314.616 210.252 314.616C211.164 314.616 211.896 314.904 212.436 315.492C212.976 316.08 213.24 316.836 213.24 317.772C213.24 318.732 212.952 319.524 212.376 320.16C211.788 320.796 211.044 321.108 210.132 321.108C209.292 321.108 208.656 320.892 208.236 320.472V323.4ZM210.144 315.564C209.232 315.564 208.524 316.152 208.236 316.86V319.188C208.596 319.836 209.196 320.16 210.048 320.16C210.66 320.16 211.176 319.944 211.572 319.512C211.968 319.08 212.172 318.528 212.172 317.844C212.172 316.452 211.392 315.564 210.144 315.564ZM219.081 316.332L215.277 321H214.353V314.76H215.361V319.44L219.153 314.76H220.089V321H219.081V316.332ZM225.604 323.4H224.596V321.12H224.524C223.48 321.12 222.664 320.82 222.076 320.22C221.476 319.62 221.176 318.84 221.176 317.892C221.176 316.992 221.476 316.236 222.076 315.6C222.676 314.964 223.492 314.652 224.512 314.652H224.596V312.24H225.604V314.652H225.7C226.696 314.652 227.512 314.952 228.124 315.564C228.736 316.176 229.036 316.956 229.036 317.892C229.036 318.84 228.736 319.62 228.148 320.22C227.548 320.82 226.72 321.12 225.676 321.12H225.604V323.4ZM222.244 317.892C222.244 319.284 223.048 320.16 224.524 320.16H224.596V315.612H224.512C223.06 315.612 222.244 316.536 222.244 317.892ZM225.676 315.612H225.604V320.16H225.676C227.176 320.16 227.968 319.296 227.968 317.892C227.968 316.56 227.128 315.612 225.676 315.612ZM230.199 323.436L229.515 322.776C230.235 322.14 230.787 321.396 231.159 320.508C231.531 319.632 231.711 318.768 231.711 317.892C231.711 316.008 230.979 314.388 229.515 313.032L230.187 312.324C231.999 313.944 232.743 315.972 232.743 317.892C232.743 318.864 232.539 319.836 232.143 320.82C231.735 321.804 231.087 322.68 230.199 323.436ZM234.38 320.316C234.38 319.98 234.692 319.644 235.124 319.644C235.52 319.644 235.844 319.98 235.844 320.316C235.844 320.7 235.544 321.024 235.124 321.024C234.692 321.024 234.38 320.7 234.38 320.316ZM234.38 315.396C234.38 315.06 234.692 314.724 235.124 314.724C235.52 314.724 235.844 315.06 235.844 315.396C235.844 315.78 235.544 316.104 235.124 316.104C234.692 316.104 234.38 315.78 234.38 315.396Z" fill="#1A3341" fill-opacity="0.6"/>
<rect y="436" width="10" height="10" fill="url(#paint1_linear_4002_20370)"/>
<path d="M19.98 441.904V445H18.888V436.6H22.152C24.444 436.6 25.596 437.476 25.596 439.24C25.596 439.996 25.32 440.632 24.768 441.136C24.204 441.652 23.328 441.904 22.14 441.904H19.98ZM22.2 437.62H19.98V440.896H22.116C23.7 440.896 24.468 440.272 24.468 439.228C24.468 438.16 23.712 437.62 22.2 437.62ZM27.169 440.26L26.653 439.504C27.229 438.964 28.225 438.616 29.149 438.616C30.817 438.616 31.705 439.528 31.705 441.148V445H30.697V444.076C30.301 444.652 29.521 445.084 28.513 445.084C27.157 445.084 26.245 444.328 26.245 443.176C26.245 441.868 27.361 441.244 29.233 441.244C29.821 441.244 30.301 441.304 30.697 441.424C30.697 440.212 30.265 439.564 29.029 439.564C28.405 439.564 27.781 439.792 27.169 440.26ZM28.753 444.172C29.221 444.172 29.641 444.04 29.989 443.788C30.337 443.536 30.565 443.248 30.697 442.948V442.312C30.349 442.192 29.905 442.132 29.365 442.132C27.997 442.132 27.313 442.468 27.313 443.14C27.313 443.776 27.889 444.172 28.753 444.172ZM37.9352 443.2L38.6552 443.716C38.1872 444.592 37.1312 445.108 36.0872 445.108C35.0912 445.108 34.2872 444.808 33.6752 444.22C33.0632 443.632 32.7512 442.852 32.7512 441.868C32.7512 440.932 33.0512 440.152 33.6632 439.54C34.2752 438.928 35.0552 438.616 36.0272 438.616C37.1432 438.616 38.1392 439.12 38.5592 439.888L37.7792 440.416C37.3592 439.852 36.7832 439.564 36.0512 439.564C35.4032 439.564 34.8752 439.78 34.4552 440.212C34.0352 440.644 33.8192 441.196 33.8192 441.868C33.8192 442.552 34.0352 443.104 34.4792 443.524C34.9112 443.944 35.4752 444.16 36.1832 444.16C36.9272 444.16 37.5152 443.836 37.9352 443.2ZM43.7236 438.76H44.9476L42.5596 441.772L45.0676 445H43.8076L41.8756 442.492L39.9196 445H38.7196L41.2156 441.784L38.8516 438.76H40.1116L41.9116 441.052L43.7236 438.76ZM45.0324 441.868C45.0324 440.92 45.3444 440.14 45.9564 439.528C46.5684 438.916 47.3604 438.616 48.3324 438.616C49.3164 438.616 50.1204 438.916 50.7324 439.528C51.3444 440.14 51.6564 440.92 51.6564 441.868C51.6564 442.816 51.3444 443.584 50.7324 444.196C50.1084 444.808 49.3044 445.108 48.3324 445.108C47.3604 445.108 46.5684 444.808 45.9564 444.196C45.3444 443.584 45.0324 442.816 45.0324 441.868ZM46.1004 441.868C46.1004 442.528 46.3044 443.08 46.7244 443.512C47.1444 443.944 47.6724 444.16 48.3324 444.16C48.9924 444.16 49.5444 443.944 49.9644 443.524C50.3844 443.104 50.5884 442.552 50.5884 441.868C50.5884 441.184 50.3724 440.632 49.9524 440.2C49.5204 439.78 48.9804 439.564 48.3324 439.564C47.6844 439.564 47.1564 439.78 46.7364 440.2C46.3164 440.62 46.1004 441.184 46.1004 441.868ZM52.758 446.512H51.798V444.04H52.494C53.13 443.068 53.37 441.7 53.37 439.336V438.76H57.954V444.04H58.854V446.512H57.894V445H52.758V446.512ZM56.946 439.72H54.318V440.152C54.318 441.748 54.066 443.044 53.574 444.04H56.946V439.72ZM61.9802 445H59.7242V438.76H60.7322V440.704H62.0762C63.9122 440.704 64.6442 441.556 64.6442 442.84C64.6442 444.1 63.8402 445 61.9802 445ZM61.9682 441.664H60.7322V444.04H61.9562C63.1082 444.04 63.5762 443.632 63.5762 442.852C63.5762 442.06 63.0362 441.664 61.9682 441.664ZM66.5522 445H65.5322V438.76H66.5522V445ZM77.223 445H76.215V442.3H72.615V445H71.607V438.76H72.615V441.352H76.215V438.76H77.223V445ZM79.1651 440.26L78.6491 439.504C79.2251 438.964 80.2211 438.616 81.1451 438.616C82.8131 438.616 83.7011 439.528 83.7011 441.148V445H82.6931V444.076C82.2971 444.652 81.5171 445.084 80.5091 445.084C79.1531 445.084 78.2411 444.328 78.2411 443.176C78.2411 441.868 79.3571 441.244 81.2291 441.244C81.8171 441.244 82.2971 441.304 82.6931 441.424C82.6931 440.212 82.2611 439.564 81.0251 439.564C80.4011 439.564 79.7771 439.792 79.1651 440.26ZM80.7491 444.172C81.2171 444.172 81.6371 444.04 81.9851 443.788C82.3331 443.536 82.5611 443.248 82.6931 442.948V442.312C82.3451 442.192 81.9011 442.132 81.3611 442.132C79.9931 442.132 79.3091 442.468 79.3091 443.14C79.3091 443.776 79.8851 444.172 80.7491 444.172ZM94.2369 445H93.2289V439.708H89.7009V445H88.6929V438.76H94.2369V445ZM96.1808 440.26L95.6648 439.504C96.2408 438.964 97.2368 438.616 98.1608 438.616C99.8288 438.616 100.717 439.528 100.717 441.148V445H99.7088V444.076C99.3128 444.652 98.5328 445.084 97.5248 445.084C96.1688 445.084 95.2568 444.328 95.2568 443.176C95.2568 441.868 96.3728 441.244 98.2448 441.244C98.8328 441.244 99.3128 441.304 99.7088 441.424C99.7088 440.212 99.2768 439.564 98.0408 439.564C97.4168 439.564 96.7928 439.792 96.1808 440.26ZM97.7648 444.172C98.2328 444.172 98.6528 444.04 99.0008 443.788C99.3488 443.536 99.5768 443.248 99.7088 442.948V442.312C99.3608 442.192 98.9168 442.132 98.3768 442.132C97.0088 442.132 96.3248 442.468 96.3248 443.14C96.3248 443.776 96.9008 444.172 97.7648 444.172ZM103.119 447.4H102.111V438.76H103.119V439.54C103.539 438.928 104.211 438.616 105.135 438.616C106.047 438.616 106.779 438.904 107.319 439.492C107.859 440.08 108.123 440.836 108.123 441.772C108.123 442.732 107.835 443.524 107.259 444.16C106.671 444.796 105.927 445.108 105.015 445.108C104.175 445.108 103.539 444.892 103.119 444.472V447.4ZM105.027 439.564C104.115 439.564 103.407 440.152 103.119 440.86V443.188C103.479 443.836 104.079 444.16 104.931 444.16C105.543 444.16 106.059 443.944 106.455 443.512C106.851 443.08 107.055 442.528 107.055 441.844C107.055 440.452 106.275 439.564 105.027 439.564ZM110.244 445H109.236V438.76H110.244V441.556L113.4 438.76H114.756L111.528 441.628L114.912 445H113.568L110.76 442.252L110.244 442.732V445Z" fill="#1A3341" fill-opacity="0.6"/>
<rect width="10" height="10" transform="translate(0 456)" fill="#DBE9EE"/>
<rect opacity="0.5" y="456" width="10" height="10" fill="#DBE9EE"/>
<path d="M26.028 465H24.936V457.62H19.98V465H18.888V456.6H26.028V465ZM28.658 467.4H27.65V458.76H28.658V459.54C29.078 458.928 29.75 458.616 30.674 458.616C31.586 458.616 32.318 458.904 32.858 459.492C33.398 460.08 33.662 460.836 33.662 461.772C33.662 462.732 33.374 463.524 32.798 464.16C32.21 464.796 31.466 465.108 30.554 465.108C29.714 465.108 29.078 464.892 28.658 464.472V467.4ZM30.566 459.564C29.654 459.564 28.946 460.152 28.658 460.86V463.188C29.018 463.836 29.618 464.16 30.47 464.16C31.082 464.16 31.598 463.944 31.994 463.512C32.39 463.08 32.594 462.528 32.594 461.844C32.594 460.452 31.814 459.564 30.566 459.564ZM34.427 461.868C34.427 460.92 34.739 460.14 35.351 459.528C35.963 458.916 36.755 458.616 37.727 458.616C38.711 458.616 39.515 458.916 40.127 459.528C40.739 460.14 41.051 460.92 41.051 461.868C41.051 462.816 40.739 463.584 40.127 464.196C39.503 464.808 38.699 465.108 37.727 465.108C36.755 465.108 35.963 464.808 35.351 464.196C34.739 463.584 34.427 462.816 34.427 461.868ZM35.495 461.868C35.495 462.528 35.699 463.08 36.119 463.512C36.539 463.944 37.067 464.16 37.727 464.16C38.387 464.16 38.939 463.944 39.359 463.524C39.779 463.104 39.983 462.552 39.983 461.868C39.983 461.184 39.767 460.632 39.347 460.2C38.915 459.78 38.375 459.564 37.727 459.564C37.079 459.564 36.551 459.78 36.131 460.2C35.711 460.62 35.495 461.184 35.495 461.868ZM46.2135 458.76H47.2215V465H46.2135V462.372C45.7575 462.828 45.1215 463.056 44.3055 463.056C42.6615 463.056 41.8455 462.228 41.8455 460.572V458.76H42.8535V460.296C42.8535 461.556 43.3815 462.096 44.4855 462.096C45.2055 462.096 45.8895 461.712 46.2135 461.244V458.76ZM53.4131 460.332L49.6091 465H48.6851V458.76H49.6931V463.44L53.4851 458.76H54.4211V465H53.4131V460.332ZM60.7044 463.212L61.3524 463.812C60.7764 464.676 59.9484 465.108 58.8564 465.108C57.8604 465.108 57.0564 464.808 56.4444 464.22C55.8324 463.632 55.5324 462.852 55.5324 461.868C55.5324 460.92 55.8084 460.14 56.3724 459.528C56.9244 458.916 57.7044 458.616 58.7124 458.616C59.5404 458.616 60.2364 458.88 60.7764 459.396C61.3164 459.912 61.5924 460.596 61.5924 461.448C61.5924 461.724 61.5684 461.976 61.5324 462.204H56.6124C56.6724 463.44 57.5844 464.16 58.8924 464.16C59.6244 464.16 60.3204 463.776 60.7044 463.212ZM58.6404 459.54C57.5004 459.54 56.7564 460.236 56.6004 461.292H60.5244C60.4644 460.188 59.7564 459.54 58.6404 459.54ZM67.3181 467.4H66.3101V458.76H67.3181V459.54C67.7381 458.928 68.4101 458.616 69.3341 458.616C70.2461 458.616 70.9781 458.904 71.5181 459.492C72.0581 460.08 72.3221 460.836 72.3221 461.772C72.3221 462.732 72.0341 463.524 71.4581 464.16C70.8701 464.796 70.1261 465.108 69.2141 465.108C68.3741 465.108 67.7381 464.892 67.3181 464.472V467.4ZM69.2261 459.564C68.3141 459.564 67.6061 460.152 67.3181 460.86V463.188C67.6781 463.836 68.2781 464.16 69.1301 464.16C69.7421 464.16 70.2581 463.944 70.6541 463.512C71.0501 463.08 71.2541 462.528 71.2541 461.844C71.2541 460.452 70.4741 459.564 69.2261 459.564ZM73.9151 460.26L73.3991 459.504C73.9751 458.964 74.9711 458.616 75.8951 458.616C77.5631 458.616 78.4511 459.528 78.4511 461.148V465H77.4431V464.076C77.0471 464.652 76.2671 465.084 75.2591 465.084C73.9031 465.084 72.9911 464.328 72.9911 463.176C72.9911 461.868 74.1071 461.244 75.9791 461.244C76.5671 461.244 77.0471 461.304 77.4431 461.424C77.4431 460.212 77.0111 459.564 75.7751 459.564C75.1511 459.564 74.5271 459.792 73.9151 460.26ZM75.4991 464.172C75.9671 464.172 76.3871 464.04 76.7351 463.788C77.0831 463.536 77.3111 463.248 77.4431 462.948V462.312C77.0951 462.192 76.6511 462.132 76.1111 462.132C74.7431 462.132 74.0591 462.468 74.0591 463.14C74.0591 463.776 74.6351 464.172 75.4991 464.172ZM84.6813 463.2L85.4013 463.716C84.9333 464.592 83.8773 465.108 82.8333 465.108C81.8373 465.108 81.0333 464.808 80.4213 464.22C79.8093 463.632 79.4973 462.852 79.4973 461.868C79.4973 460.932 79.7973 460.152 80.4093 459.54C81.0213 458.928 81.8013 458.616 82.7733 458.616C83.8893 458.616 84.8853 459.12 85.3053 459.888L84.5253 460.416C84.1053 459.852 83.5293 459.564 82.7973 459.564C82.1493 459.564 81.6213 459.78 81.2013 460.212C80.7813 460.644 80.5653 461.196 80.5653 461.868C80.5653 462.552 80.7813 463.104 81.2253 463.524C81.6573 463.944 82.2213 464.16 82.9293 464.16C83.6733 464.16 84.2613 463.836 84.6813 463.2ZM90.4697 458.76H91.6937L89.3057 461.772L91.8137 465H90.5537L88.6217 462.492L86.6657 465H85.4657L87.9617 461.784L85.5977 458.76H86.8577L88.6577 461.052L90.4697 458.76ZM91.7785 461.868C91.7785 460.92 92.0905 460.14 92.7025 459.528C93.3145 458.916 94.1065 458.616 95.0785 458.616C96.0625 458.616 96.8665 458.916 97.4785 459.528C98.0905 460.14 98.4025 460.92 98.4025 461.868C98.4025 462.816 98.0905 463.584 97.4785 464.196C96.8545 464.808 96.0505 465.108 95.0785 465.108C94.1065 465.108 93.3145 464.808 92.7025 464.196C92.0905 463.584 91.7785 462.816 91.7785 461.868ZM92.8465 461.868C92.8465 462.528 93.0505 463.08 93.4705 463.512C93.8905 463.944 94.4185 464.16 95.0785 464.16C95.7385 464.16 96.2905 463.944 96.7105 463.524C97.1305 463.104 97.3345 462.552 97.3345 461.868C97.3345 461.184 97.1185 460.632 96.6985 460.2C96.2665 459.78 95.7265 459.564 95.0785 459.564C94.4305 459.564 93.9025 459.78 93.4825 460.2C93.0625 460.62 92.8465 461.184 92.8465 461.868ZM99.5041 466.512H98.5441V464.04H99.2401C99.8761 463.068 100.116 461.7 100.116 459.336V458.76H104.7V464.04H105.6V466.512H104.64V465H99.5041V466.512ZM103.692 459.72H101.064V460.152C101.064 461.748 100.812 463.044 100.32 464.04H103.692V459.72ZM108.726 465H106.47V458.76H107.478V460.704H108.822C110.658 460.704 111.39 461.556 111.39 462.84C111.39 464.1 110.586 465 108.726 465ZM108.714 461.664H107.478V464.04H108.702C109.854 464.04 110.322 463.632 110.322 462.852C110.322 462.06 109.782 461.664 108.714 461.664ZM113.298 465H112.278V458.76H113.298V465Z" fill="#1A3341" fill-opacity="0.6"/>
<path opacity="0.7" d="M167 0C188.901 2.61164e-07 210.435 5.61934 229.544 16.3205C248.652 27.0217 264.695 42.4467 276.138 61.1202C287.581 79.7936 294.041 101.091 294.901 122.975C295.761 144.859 290.992 166.597 281.049 186.111C271.106 205.624 256.323 222.261 238.113 234.428C219.903 246.596 198.876 253.887 177.043 255.605C155.21 257.324 133.301 253.411 113.412 244.242C93.5226 235.073 76.3188 220.955 63.4458 203.237L167 128V0Z" fill="url(#paint2_radial_4002_20370)" fill-opacity="0.6"/>
<path d="M12.7907 151.144L12.2987 149.944L15.1187 148.576H16.0307V157H14.6387V150.292L12.7907 151.144ZM18.1843 151.264L16.9243 150.76C17.3443 149.32 18.6283 148.516 20.2723 148.516C22.1803 148.516 23.2963 149.512 23.2963 151C23.2963 152.092 22.8283 152.98 22.0003 153.748C21.5803 154.144 21.0043 154.588 20.2723 155.104L19.3123 155.656H23.5603V157H17.0443V155.932L18.9403 154.552C19.0003 154.504 19.1683 154.372 19.4683 154.144C19.7683 153.916 19.9603 153.76 20.0563 153.676C20.1523 153.592 20.3203 153.448 20.5723 153.244C20.8123 153.04 20.9803 152.872 21.0883 152.74C21.2803 152.5 21.6283 152.08 21.7363 151.744C21.7843 151.576 21.8083 151.408 21.8083 151.228C21.8083 150.412 21.2203 149.908 20.2483 149.908C19.2043 149.908 18.5203 150.484 18.1843 151.264ZM24.9302 157C24.4022 157.06 24.0542 156.592 24.0542 156.172C24.0542 155.68 24.4262 155.248 25.0142 155.248C25.7222 155.248 26.0102 155.836 26.0102 156.568C26.0102 157.096 25.8182 157.564 25.4462 157.96C25.0742 158.356 24.6542 158.608 24.1862 158.704L23.8502 157.912C24.0542 157.876 24.2822 157.756 24.5342 157.564C24.7742 157.36 24.9062 157.18 24.9302 157ZM26.5851 151.144L26.0931 149.944L28.9131 148.576H29.8251V157H28.4331V150.292L26.5851 151.144Z" fill="#1A3341"/>
<path d="M39.1489 209.8C39.1489 208.528 39.4729 207.496 40.1089 206.704C40.7449 205.912 41.6329 205.516 42.7729 205.516C43.9249 205.516 44.8249 205.912 45.4609 206.704C46.0969 207.496 46.4209 208.528 46.4209 209.8C46.4209 211.084 46.1089 212.116 45.4729 212.896C44.8369 213.688 43.9489 214.084 42.7969 214.084C41.6449 214.084 40.7449 213.688 40.1089 212.896C39.4729 212.116 39.1489 211.084 39.1489 209.8ZM41.1889 207.652C40.8169 208.156 40.6369 208.876 40.6369 209.8C40.6369 210.724 40.8289 211.444 41.2129 211.948C41.5849 212.452 42.1129 212.704 42.7969 212.704C44.2249 212.704 44.9329 211.732 44.9329 209.8C44.9329 207.916 44.2129 206.896 42.7729 206.896C42.0889 206.896 41.5609 207.148 41.1889 207.652ZM47.8091 214C47.2811 214.06 46.9331 213.592 46.9331 213.172C46.9331 212.68 47.3051 212.248 47.8931 212.248C48.6011 212.248 48.8891 212.836 48.8891 213.568C48.8891 214.096 48.6971 214.564 48.3251 214.96C47.9531 215.356 47.5331 215.608 47.0651 215.704L46.7291 214.912C46.9331 214.876 47.1611 214.756 47.4131 214.564C47.6531 214.36 47.7851 214.18 47.8091 214ZM53.94 206.956H49.128V205.6H55.656V206.512L51.696 214H50.172L53.94 206.956Z" fill="#1A3341"/>
<path d="M229.144 239.902C207.909 251.695 183.757 257.202 159.509 255.781C135.262 254.359 111.919 246.068 92.2072 231.875L101.182 219.41C118.528 231.9 139.07 239.196 160.408 240.447C181.746 241.698 203 236.851 221.686 226.474L229.144 239.902Z" fill="url(#paint3_linear_4002_20370)"/>
<path d="M92.7665 232.275C84.0192 226.048 76.0902 218.745 69.1664 210.538L80.9064 200.634C86.9994 207.856 93.9769 214.283 101.675 219.762L92.7665 232.275Z" fill="url(#paint4_linear_4002_20370)"/>
<path d="M64.3798 204.505C53.9283 190.486 46.4601 174.475 42.4358 157.458C38.4116 140.441 37.9166 122.78 40.9815 105.565L56.1037 108.257C53.4066 123.406 53.8422 138.948 57.3835 153.923C60.9249 168.898 67.4969 182.988 76.6942 195.325L64.3798 204.505Z" fill="url(#paint5_linear_4002_20370)"/>
<path d="M40.8857 106.11C46.0425 76.4005 61.5222 49.4656 84.5959 30.0533C107.67 10.641 136.856 -0.00213623 167.009 3.05176e-05L167.008 15.36C140.473 15.3581 114.789 24.7241 94.4844 41.8069C74.1795 58.8897 60.5574 82.5924 56.0194 108.737L40.8857 106.11Z" fill="#DBE9EE"/>
<path d="M167 0C195.407 3.38747e-07 223.006 9.44948 245.452 26.8602C267.898 44.2708 283.914 68.6534 290.979 96.1677C298.043 123.682 295.754 152.765 284.473 178.835C273.191 204.905 253.557 226.482 228.664 240.167L221.265 226.707C243.171 214.664 260.448 195.677 270.376 172.735C280.304 149.793 282.318 124.2 276.101 99.9876C269.884 75.775 255.79 54.3183 236.038 38.9969C216.286 23.6755 191.998 15.36 167 15.36V0Z" fill="#5A96A8"/>
<path d="M69.3127 210.711C67.2854 208.317 65.3469 205.849 63.501 203.312L75.9209 194.275C77.5453 196.507 79.2512 198.679 81.0352 200.786L69.3127 210.711Z" fill="#184977"/>
<path d="M265.372 24.502H263.968V22.906H259.216V21.97L264.172 16.102H265.372V21.622H266.8V22.906H265.372V24.502ZM263.968 18.394L261.136 21.622H263.968V18.394ZM268.156 18.766L266.896 18.262C267.316 16.822 268.6 16.018 270.244 16.018C272.152 16.018 273.268 17.014 273.268 18.502C273.268 19.594 272.8 20.482 271.972 21.25C271.552 21.646 270.976 22.09 270.244 22.606L269.284 23.158H273.532V24.502H267.016V23.434L268.912 22.054C268.972 22.006 269.14 21.874 269.44 21.646C269.74 21.418 269.932 21.262 270.028 21.178C270.124 21.094 270.292 20.95 270.544 20.746C270.784 20.542 270.952 20.374 271.06 20.242C271.252 20.002 271.6 19.582 271.708 19.246C271.756 19.078 271.78 18.91 271.78 18.73C271.78 17.914 271.192 17.41 270.22 17.41C269.176 17.41 268.492 17.986 268.156 18.766ZM274.902 24.502C274.374 24.562 274.026 24.094 274.026 23.674C274.026 23.182 274.398 22.75 274.986 22.75C275.694 22.75 275.982 23.338 275.982 24.07C275.982 24.598 275.79 25.066 275.418 25.462C275.046 25.858 274.626 26.11 274.158 26.206L273.822 25.414C274.026 25.378 274.254 25.258 274.506 25.066C274.746 24.862 274.878 24.682 274.902 24.502ZM277.66 18.766L276.4 18.262C276.82 16.822 278.104 16.018 279.748 16.018C281.656 16.018 282.772 17.014 282.772 18.502C282.772 19.594 282.304 20.482 281.476 21.25C281.056 21.646 280.48 22.09 279.748 22.606L278.788 23.158H283.036V24.502H276.52V23.434L278.416 22.054C278.476 22.006 278.644 21.874 278.944 21.646C279.244 21.418 279.436 21.262 279.532 21.178C279.628 21.094 279.796 20.95 280.048 20.746C280.288 20.542 280.456 20.374 280.564 20.242C280.756 20.002 281.104 19.582 281.212 19.246C281.26 19.078 281.284 18.91 281.284 18.73C281.284 17.914 280.696 17.41 279.724 17.41C278.68 17.41 277.996 17.986 277.66 18.766Z" fill="#1A3341"/>
<path d="M148.516 270.144L148.024 268.944L150.844 267.576H151.756V276H150.364V269.292L148.516 270.144ZM156.19 271.068H156.538C157.45 271.068 158.182 270.612 158.182 269.928C158.182 269.208 157.534 268.824 156.346 268.824C155.29 268.824 154.522 269.232 154.522 269.916C154.522 270.588 155.194 271.068 156.19 271.068ZM156.514 272.304H156.226C155.038 272.304 154.258 272.844 154.258 273.528C154.258 274.296 155.05 274.788 156.358 274.788C157.642 274.788 158.446 274.32 158.446 273.552C158.446 272.772 157.75 272.304 156.514 272.304ZM156.37 276.096C155.302 276.096 154.426 275.88 153.766 275.436C153.106 275.004 152.77 274.416 152.77 273.66C152.77 272.736 153.274 271.968 154.174 271.644C153.418 271.32 153.034 270.732 153.034 269.856C153.034 268.416 154.282 267.504 156.358 267.504C158.482 267.504 159.682 268.416 159.682 269.856C159.682 270.624 159.238 271.32 158.422 271.62C159.442 271.872 159.946 272.544 159.946 273.612C159.946 274.38 159.61 274.98 158.938 275.424C158.266 275.868 157.414 276.096 156.37 276.096ZM161.37 276C160.842 276.06 160.494 275.592 160.494 275.172C160.494 274.68 160.866 274.248 161.454 274.248C162.162 274.248 162.45 274.836 162.45 275.568C162.45 276.096 162.258 276.564 161.886 276.96C161.514 277.356 161.094 277.608 160.626 277.704L160.29 276.912C160.494 276.876 160.722 276.756 160.974 276.564C161.214 276.36 161.346 276.18 161.37 276ZM164.201 270L162.965 269.448C163.397 268.236 164.669 267.492 166.241 267.492C167.129 267.492 167.861 267.684 168.425 268.068C168.989 268.464 169.277 268.968 169.277 269.604C169.277 270.552 168.725 271.284 167.921 271.524C168.773 271.728 169.457 272.34 169.457 273.492C169.457 274.272 169.157 274.908 168.557 275.376C167.945 275.856 167.201 276.096 166.301 276.096C165.341 276.096 164.429 275.868 163.637 275.208C163.241 274.884 162.953 274.476 162.797 274.008L164.117 273.456C164.285 273.828 164.573 274.128 164.969 274.356C165.365 274.584 165.761 274.704 166.181 274.704C167.201 274.704 167.957 274.26 167.957 273.504C167.957 272.652 167.213 272.364 165.917 272.364H165.101V271.044H165.965C167.057 271.044 167.789 270.564 167.789 269.904C167.789 269.58 167.633 269.316 167.321 269.136C167.009 268.956 166.613 268.86 166.121 268.86C165.629 268.86 165.245 268.956 164.945 269.148C164.645 269.34 164.405 269.628 164.201 270Z" fill="#1A3341"/>
<path d="M64.2541 237H62.8501V235.404H58.0981V234.468L63.0541 228.6H64.2541V234.12H65.6821V235.404H64.2541V237ZM62.8501 230.892L60.0181 234.12H62.8501V230.892ZM66.8457 237C66.3177 237.06 65.9697 236.592 65.9697 236.172C65.9697 235.68 66.3417 235.248 66.9297 235.248C67.6377 235.248 67.9257 235.836 67.9257 236.568C67.9257 237.096 67.7337 237.564 67.3617 237.96C66.9897 238.356 66.5697 238.608 66.1017 238.704L65.7657 237.912C65.9697 237.876 66.1977 237.756 66.4497 237.564C66.6897 237.36 66.8217 237.18 66.8457 237ZM74.3566 237H72.9526V235.404H68.2006V234.468L73.1566 228.6H74.3566V234.12H75.7846V235.404H74.3566V237ZM72.9526 230.892L70.1206 234.12H72.9526V230.892Z" fill="#1A3341"/>
<path d="M58.8647 13.264L57.6047 12.76C58.0247 11.32 59.3087 10.516 60.9527 10.516C62.8607 10.516 63.9767 11.512 63.9767 13C63.9767 14.092 63.5087 14.98 62.6807 15.748C62.2607 16.144 61.6847 16.588 60.9527 17.104L59.9927 17.656H64.2407V19H57.7247V17.932L59.6207 16.552C59.6807 16.504 59.8487 16.372 60.1487 16.144C60.4487 15.916 60.6407 15.76 60.7367 15.676C60.8327 15.592 61.0007 15.448 61.2527 15.244C61.4927 15.04 61.6607 14.872 61.7687 14.74C61.9607 14.5 62.3087 14.08 62.4167 13.744C62.4647 13.576 62.4887 13.408 62.4887 13.228C62.4887 12.412 61.9007 11.908 60.9287 11.908C59.8847 11.908 59.2007 12.484 58.8647 13.264ZM65.8027 13.264L64.5427 12.76C64.9627 11.32 66.2467 10.516 67.8907 10.516C69.7987 10.516 70.9147 11.512 70.9147 13C70.9147 14.092 70.4467 14.98 69.6187 15.748C69.1987 16.144 68.6227 16.588 67.8907 17.104L66.9307 17.656H71.1787V19H64.6627V17.932L66.5587 16.552C66.6187 16.504 66.7867 16.372 67.0867 16.144C67.3867 15.916 67.5787 15.76 67.6747 15.676C67.7707 15.592 67.9387 15.448 68.1907 15.244C68.4307 15.04 68.5987 14.872 68.7067 14.74C68.8987 14.5 69.2467 14.08 69.3547 13.744C69.4027 13.576 69.4267 13.408 69.4267 13.228C69.4267 12.412 68.8387 11.908 67.8667 11.908C66.8227 11.908 66.1387 12.484 65.8027 13.264ZM72.5486 19C72.0206 19.06 71.6726 18.592 71.6726 18.172C71.6726 17.68 72.0446 17.248 72.6326 17.248C73.3406 17.248 73.6286 17.836 73.6286 18.568C73.6286 19.096 73.4366 19.564 73.0646 19.96C72.6926 20.356 72.2726 20.608 71.8046 20.704L71.4686 19.912C71.6726 19.876 71.9006 19.756 72.1526 19.564C72.3926 19.36 72.5246 19.18 72.5486 19ZM75.3795 13L74.1435 12.448C74.5755 11.236 75.8475 10.492 77.4195 10.492C78.3075 10.492 79.0395 10.684 79.6035 11.068C80.1675 11.464 80.4555 11.968 80.4555 12.604C80.4555 13.552 79.9035 14.284 79.0995 14.524C79.9515 14.728 80.6355 15.34 80.6355 16.492C80.6355 17.272 80.3355 17.908 79.7355 18.376C79.1235 18.856 78.3795 19.096 77.4795 19.096C76.5195 19.096 75.6075 18.868 74.8155 18.208C74.4195 17.884 74.1315 17.476 73.9755 17.008L75.2955 16.456C75.4635 16.828 75.7515 17.128 76.1475 17.356C76.5435 17.584 76.9395 17.704 77.3595 17.704C78.3795 17.704 79.1355 17.26 79.1355 16.504C79.1355 15.652 78.3915 15.364 77.0955 15.364H76.2795V14.044H77.1435C78.2355 14.044 78.9675 13.564 78.9675 12.904C78.9675 12.58 78.8115 12.316 78.4995 12.136C78.1875 11.956 77.7915 11.86 77.2995 11.86C76.8075 11.86 76.4235 11.956 76.1235 12.148C75.8235 12.34 75.5835 12.628 75.3795 13Z" fill="#1A3341"/>
<path d="M132.565 111.816C135.744 111.816 138.187 112.36 139.893 113.448C141.6 114.515 142.453 116.072 142.453 118.12V118.568C142.453 120.701 141.547 122.376 139.733 123.592C137.941 124.787 135.477 125.384 132.341 125.384C130.123 125.384 128.192 125.064 126.549 124.424C124.928 123.784 123.68 122.867 122.805 121.672C121.952 120.477 121.525 119.069 121.525 117.448V112.136C121.525 109.469 122.464 107.389 124.341 105.896C126.24 104.381 128.864 103.624 132.213 103.624C134.219 103.624 135.968 103.891 137.461 104.424C138.955 104.957 140.096 105.725 140.885 106.728C141.696 107.709 142.101 108.872 142.101 110.216V110.472H138.933V110.216C138.933 109.085 138.336 108.2 137.141 107.56C135.947 106.92 134.304 106.6 132.213 106.6C129.781 106.6 127.915 107.069 126.613 108.008C125.333 108.947 124.693 110.301 124.693 112.072V114.056C126.549 112.563 129.173 111.816 132.565 111.816ZM139.285 118.248C139.285 115.923 137.035 114.76 132.533 114.76C130.677 114.76 129.067 114.984 127.701 115.432C126.336 115.859 125.333 116.477 124.693 117.288V117.48C124.693 119.016 125.365 120.221 126.709 121.096C128.053 121.971 129.941 122.408 132.373 122.408C134.549 122.408 136.245 122.088 137.461 121.448C138.677 120.808 139.285 119.891 139.285 118.696V118.248ZM156.217 111.4C159.375 111.4 161.85 111.987 163.642 113.16C165.455 114.333 166.361 115.955 166.361 118.024V118.536C166.361 120.712 165.476 122.397 163.705 123.592C161.935 124.787 159.439 125.384 156.217 125.384C152.975 125.384 150.468 124.883 148.697 123.88C146.948 122.877 146.073 121.448 146.073 119.592V119.336H149.273V119.592C149.273 120.467 149.881 121.16 151.097 121.672C152.314 122.163 153.988 122.408 156.122 122.408C158.319 122.408 160.047 122.067 161.306 121.384C162.564 120.701 163.194 119.763 163.194 118.568V118.056C163.194 116.904 162.554 115.997 161.274 115.336C160.015 114.675 158.266 114.344 156.026 114.344C154.063 114.344 152.452 114.6 151.194 115.112C149.935 115.603 149.273 116.253 149.209 117.064H146.073L146.777 104.008H165.017V106.856H149.593L149.273 113.032C150.916 111.944 153.231 111.4 156.217 111.4ZM174.833 120.968V121.448L171.953 129.576H169.009L171.345 120.968H174.833ZM188.966 111.816C192.145 111.816 194.588 112.36 196.294 113.448C198.001 114.515 198.854 116.072 198.854 118.12V118.568C198.854 120.701 197.948 122.376 196.134 123.592C194.342 124.787 191.878 125.384 188.742 125.384C186.524 125.384 184.593 125.064 182.95 124.424C181.329 123.784 180.081 122.867 179.206 121.672C178.353 120.477 177.926 119.069 177.926 117.448V112.136C177.926 109.469 178.865 107.389 180.742 105.896C182.641 104.381 185.265 103.624 188.614 103.624C190.62 103.624 192.369 103.891 193.862 104.424C195.356 104.957 196.497 105.725 197.286 106.728C198.097 107.709 198.502 108.872 198.502 110.216V110.472H195.334V110.216C195.334 109.085 194.737 108.2 193.542 107.56C192.348 106.92 190.705 106.6 188.614 106.6C186.182 106.6 184.316 107.069 183.014 108.008C181.734 108.947 181.094 110.301 181.094 112.072V114.056C182.95 112.563 185.574 111.816 188.966 111.816ZM195.686 118.248C195.686 115.923 193.436 114.76 188.934 114.76C187.078 114.76 185.468 114.984 184.102 115.432C182.737 115.859 181.734 116.477 181.094 117.288V117.48C181.094 119.016 181.766 120.221 183.11 121.096C184.454 121.971 186.342 122.408 188.774 122.408C190.95 122.408 192.646 122.088 193.862 121.448C195.078 120.808 195.686 119.891 195.686 118.696V118.248Z" fill="#1A3341"/>
<path d="M209.774 123.33L208.322 122.494L219.696 107.116L221.082 108.128L209.774 123.33ZM205.946 111.296C205.946 110.196 206.32 109.294 207.09 108.59C207.86 107.886 208.806 107.534 209.972 107.534C211.116 107.534 212.062 107.886 212.832 108.59C213.602 109.294 213.976 110.196 213.976 111.296C213.976 112.374 213.602 113.276 212.832 113.98C212.062 114.684 211.116 115.036 209.972 115.036C208.806 115.036 207.86 114.684 207.09 113.98C206.32 113.276 205.946 112.374 205.946 111.296ZM207.794 111.296C207.794 112.55 208.806 113.474 209.972 113.474C211.182 113.474 212.128 112.594 212.128 111.296C212.128 109.998 211.138 109.118 209.972 109.118C208.762 109.118 207.794 109.998 207.794 111.296ZM216.528 122.032C215.758 121.328 215.384 120.426 215.384 119.326C215.384 118.226 215.758 117.324 216.528 116.62C217.298 115.938 218.244 115.586 219.41 115.586C220.554 115.586 221.5 115.938 222.27 116.62C223.04 117.324 223.414 118.226 223.414 119.326C223.414 120.404 223.04 121.306 222.27 122.01C221.5 122.736 220.554 123.088 219.41 123.088C218.244 123.088 217.298 122.736 216.528 122.032ZM217.232 119.326C217.232 120.58 218.244 121.504 219.41 121.504C220.62 121.504 221.566 120.624 221.566 119.326C221.566 118.028 220.576 117.148 219.41 117.148C218.2 117.148 217.232 118.028 217.232 119.326Z" fill="#1A3341"/>
<path d="M91.4967 140.954L85.9717 148H84.9707V138.9H86.1537V145.946L91.6657 138.9H92.6797V148H91.4967V140.954ZM100.404 148H99.3121V145.075H95.4121V148H94.3201V141.24H95.4121V144.048H99.3121V141.24H100.404V148ZM106.252 150.6H105.16V148.13H105.082C103.951 148.13 103.067 147.805 102.43 147.155C101.78 146.505 101.455 145.66 101.455 144.633C101.455 143.658 101.78 142.839 102.43 142.15C103.08 141.461 103.964 141.123 105.069 141.123H105.16V138.51H106.252V141.123H106.356C107.435 141.123 108.319 141.448 108.982 142.111C109.645 142.774 109.97 143.619 109.97 144.633C109.97 145.66 109.645 146.505 109.008 147.155C108.358 147.805 107.461 148.13 106.33 148.13H106.252V150.6ZM102.612 144.633C102.612 146.141 103.483 147.09 105.082 147.09H105.16V142.163H105.069C103.496 142.163 102.612 143.164 102.612 144.633ZM106.33 142.163H106.252V147.09H106.33C107.955 147.09 108.813 146.154 108.813 144.633C108.813 143.19 107.903 142.163 106.33 142.163ZM112.113 150.6H111.021V141.24H112.113V142.085C112.568 141.422 113.296 141.084 114.297 141.084C115.285 141.084 116.078 141.396 116.663 142.033C117.248 142.67 117.534 143.489 117.534 144.503C117.534 145.543 117.222 146.401 116.598 147.09C115.961 147.779 115.155 148.117 114.167 148.117C113.257 148.117 112.568 147.883 112.113 147.428V150.6ZM114.18 142.111C113.192 142.111 112.425 142.748 112.113 143.515V146.037C112.503 146.739 113.153 147.09 114.076 147.09C114.739 147.09 115.298 146.856 115.727 146.388C116.156 145.92 116.377 145.322 116.377 144.581C116.377 143.073 115.532 142.111 114.18 142.111ZM119.13 142.865L118.571 142.046C119.195 141.461 120.274 141.084 121.275 141.084C123.082 141.084 124.044 142.072 124.044 143.827V148H122.952V146.999C122.523 147.623 121.678 148.091 120.586 148.091C119.117 148.091 118.129 147.272 118.129 146.024C118.129 144.607 119.338 143.931 121.366 143.931C122.003 143.931 122.523 143.996 122.952 144.126C122.952 142.813 122.484 142.111 121.145 142.111C120.469 142.111 119.793 142.358 119.13 142.865ZM120.846 147.103C121.353 147.103 121.808 146.96 122.185 146.687C122.562 146.414 122.809 146.102 122.952 145.777V145.088C122.575 144.958 122.094 144.893 121.509 144.893C120.027 144.893 119.286 145.257 119.286 145.985C119.286 146.674 119.91 147.103 120.846 147.103ZM130.663 146.05L131.443 146.609C130.936 147.558 129.792 148.117 128.661 148.117C127.582 148.117 126.711 147.792 126.048 147.155C125.385 146.518 125.047 145.673 125.047 144.607C125.047 143.593 125.372 142.748 126.035 142.085C126.698 141.422 127.543 141.084 128.596 141.084C129.805 141.084 130.884 141.63 131.339 142.462L130.494 143.034C130.039 142.423 129.415 142.111 128.622 142.111C127.92 142.111 127.348 142.345 126.893 142.813C126.438 143.281 126.204 143.879 126.204 144.607C126.204 145.348 126.438 145.946 126.919 146.401C127.387 146.856 127.998 147.09 128.765 147.09C129.571 147.09 130.208 146.739 130.663 146.05ZM134.122 142.267H131.535V141.24H137.827V142.267H135.214V148H134.122V142.267ZM139.599 150.6H138.507V141.24H139.599V142.085C140.054 141.422 140.782 141.084 141.783 141.084C142.771 141.084 143.564 141.396 144.149 142.033C144.734 142.67 145.02 143.489 145.02 144.503C145.02 145.543 144.708 146.401 144.084 147.09C143.447 147.779 142.641 148.117 141.653 148.117C140.743 148.117 140.054 147.883 139.599 147.428V150.6ZM141.666 142.111C140.678 142.111 139.911 142.748 139.599 143.515V146.037C139.989 146.739 140.639 147.09 141.562 147.09C142.225 147.09 142.784 146.856 143.213 146.388C143.642 145.92 143.863 145.322 143.863 144.581C143.863 143.073 143.018 142.111 141.666 142.111ZM145.972 150.574L146.401 149.625C146.505 149.664 146.596 149.69 146.687 149.69C147.194 149.69 147.545 149.339 148 148.26L148.208 147.753L144.932 141.24H146.219L148.754 146.375L150.665 141.24H151.861L149.287 147.896C148.845 148.988 148.429 149.729 148.052 150.132C147.662 150.535 147.22 150.73 146.726 150.73C146.44 150.73 146.193 150.678 145.972 150.574ZM153.558 148H152.466V141.24H153.558V144.269L156.977 141.24H158.446L154.949 144.347L158.615 148H157.159L154.117 145.023L153.558 145.543V148ZM160.985 142.267H158.398V141.24H164.69V142.267H162.077V148H160.985V142.267ZM165.781 150.574L166.21 149.625C166.314 149.664 166.405 149.69 166.496 149.69C167.003 149.69 167.354 149.339 167.809 148.26L168.017 147.753L164.741 141.24H166.028L168.563 146.375L170.474 141.24H171.67L169.096 147.896C168.654 148.988 168.238 149.729 167.861 150.132C167.471 150.535 167.029 150.73 166.535 150.73C166.249 150.73 166.002 150.678 165.781 150.574ZM173.366 150.6H172.274V141.24H173.366V142.085C173.821 141.422 174.549 141.084 175.55 141.084C176.538 141.084 177.331 141.396 177.916 142.033C178.501 142.67 178.787 143.489 178.787 144.503C178.787 145.543 178.475 146.401 177.851 147.09C177.214 147.779 176.408 148.117 175.42 148.117C174.51 148.117 173.821 147.883 173.366 147.428V150.6ZM175.433 142.111C174.445 142.111 173.678 142.748 173.366 143.515V146.037C173.756 146.739 174.406 147.09 175.329 147.09C175.992 147.09 176.551 146.856 176.98 146.388C177.409 145.92 177.63 145.322 177.63 144.581C177.63 143.073 176.785 142.111 175.433 142.111ZM185.947 148H184.855V145.075H180.955V148H179.863V141.24H180.955V144.048H184.855V141.24H185.947V148ZM189.845 148H187.401V141.24H188.493V143.346H189.949C191.938 143.346 192.731 144.269 192.731 145.66C192.731 147.025 191.86 148 189.845 148ZM189.832 144.386H188.493V146.96H189.819C191.067 146.96 191.574 146.518 191.574 145.673C191.574 144.815 190.989 144.386 189.832 144.386ZM194.798 148H193.693V141.24H194.798V148ZM201.472 146.063L202.174 146.713C201.55 147.649 200.653 148.117 199.47 148.117C198.391 148.117 197.52 147.792 196.857 147.155C196.194 146.518 195.869 145.673 195.869 144.607C195.869 143.58 196.168 142.735 196.779 142.072C197.377 141.409 198.222 141.084 199.314 141.084C200.211 141.084 200.965 141.37 201.55 141.929C202.135 142.488 202.434 143.229 202.434 144.152C202.434 144.451 202.408 144.724 202.369 144.971H197.039C197.104 146.31 198.092 147.09 199.509 147.09C200.302 147.09 201.056 146.674 201.472 146.063ZM199.236 142.085C198.001 142.085 197.195 142.839 197.026 143.983H201.277C201.212 142.787 200.445 142.085 199.236 142.085ZM213.291 148H212.199V142.267H208.377V148H207.285V141.24H213.291V148ZM220.623 148H219.531V142.28H216.671V142.592C216.671 144.776 216.424 146.284 215.93 147.064C215.436 147.844 214.825 148.104 213.98 148V146.96C214.851 146.96 215.579 146.583 215.579 142.631V141.24H220.623V148ZM222.602 142.865L222.043 142.046C222.667 141.461 223.746 141.084 224.747 141.084C226.554 141.084 227.516 142.072 227.516 143.827V148H226.424V146.999C225.995 147.623 225.15 148.091 224.058 148.091C222.589 148.091 221.601 147.272 221.601 146.024C221.601 144.607 222.81 143.931 224.838 143.931C225.475 143.931 225.995 143.996 226.424 144.126C226.424 142.813 225.956 142.111 224.617 142.111C223.941 142.111 223.265 142.358 222.602 142.865ZM224.318 147.103C224.825 147.103 225.28 146.96 225.657 146.687C226.034 146.414 226.281 146.102 226.424 145.777V145.088C226.047 144.958 225.566 144.893 224.981 144.893C223.499 144.893 222.758 145.257 222.758 145.985C222.758 146.674 223.382 147.103 224.318 147.103ZM230.474 142.267H227.887V141.24H234.179V142.267H231.566V148H230.474V142.267ZM239.832 146.063L240.534 146.713C239.91 147.649 239.013 148.117 237.83 148.117C236.751 148.117 235.88 147.792 235.217 147.155C234.554 146.518 234.229 145.673 234.229 144.607C234.229 143.58 234.528 142.735 235.139 142.072C235.737 141.409 236.582 141.084 237.674 141.084C238.571 141.084 239.325 141.37 239.91 141.929C240.495 142.488 240.794 143.229 240.794 144.152C240.794 144.451 240.768 144.724 240.729 144.971H235.399C235.464 146.31 236.452 147.09 237.869 147.09C238.662 147.09 239.416 146.674 239.832 146.063ZM237.596 142.085C236.361 142.085 235.555 142.839 235.386 143.983H239.637C239.572 142.787 238.805 142.085 237.596 142.085ZM240.78 148L243.718 144.36L240.845 141.24H242.236L244.979 144.191V141.24H246.071V144.191L248.853 141.24H250.205L247.306 144.334L250.322 148H248.97L246.513 144.997L246.071 145.413V148H244.979V145.426L244.511 145.049L242.106 148H240.78ZM256.111 142.943L251.99 148H250.989V141.24H252.081V146.31L256.189 141.24H257.203V148H256.111V142.943ZM139.757 165.898L139.016 166.652C138.054 165.82 137.352 164.871 136.91 163.805C136.468 162.739 136.247 161.686 136.247 160.633C136.247 158.553 137.066 156.356 139.029 154.601L139.744 155.355C138.158 156.837 137.365 158.592 137.365 160.633C137.365 162.57 138.249 164.442 139.757 165.898ZM139.763 164L142.701 160.36L139.828 157.24H141.219L143.962 160.191V157.24H145.054V160.191L147.836 157.24H149.188L146.289 160.334L149.305 164H147.953L145.496 160.997L145.054 161.413V164H143.962V161.426L143.494 161.049L141.089 164H139.763ZM149.7 166.665L148.738 166.301L153.054 154.731L154.016 155.043L149.7 166.665ZM154.534 165.638H153.494V162.96H154.248C154.937 161.907 155.197 160.425 155.197 157.864V157.24H160.163V162.96H161.138V165.638H160.098V164H154.534V165.638ZM159.071 158.28H156.224V158.748C156.224 160.477 155.951 161.881 155.418 162.96H159.071V158.28ZM167.525 158.267H164.938V157.24H171.23V158.267H168.617V164H167.525V158.267ZM172.202 158.865L171.643 158.046C172.267 157.461 173.346 157.084 174.347 157.084C176.154 157.084 177.116 158.072 177.116 159.827V164H176.024V162.999C175.595 163.623 174.75 164.091 173.658 164.091C172.189 164.091 171.201 163.272 171.201 162.024C171.201 160.607 172.41 159.931 174.438 159.931C175.075 159.931 175.595 159.996 176.024 160.126C176.024 158.813 175.556 158.111 174.217 158.111C173.541 158.111 172.865 158.358 172.202 158.865ZM173.918 163.103C174.425 163.103 174.88 162.96 175.257 162.687C175.634 162.414 175.881 162.102 176.024 161.777V161.088C175.647 160.958 175.166 160.893 174.581 160.893C173.099 160.893 172.358 161.257 172.358 161.985C172.358 162.674 172.982 163.103 173.918 163.103ZM179.588 166.6H178.496V157.24H179.588V158.085C180.043 157.422 180.771 157.084 181.772 157.084C182.76 157.084 183.553 157.396 184.138 158.033C184.723 158.67 185.009 159.489 185.009 160.503C185.009 161.543 184.697 162.401 184.073 163.09C183.436 163.779 182.63 164.117 181.642 164.117C180.732 164.117 180.043 163.883 179.588 163.428V166.6ZM181.655 158.111C180.667 158.111 179.9 158.748 179.588 159.515V162.037C179.978 162.739 180.628 163.09 181.551 163.09C182.214 163.09 182.773 162.856 183.202 162.388C183.631 161.92 183.852 161.322 183.852 160.581C183.852 159.073 183.007 158.111 181.655 158.111ZM191.207 158.943L187.086 164H186.085V157.24H187.177V162.31L191.285 157.24H192.299V164H191.207V158.943ZM198.144 166.6H197.052V164.13H196.974C195.843 164.13 194.959 163.805 194.322 163.155C193.672 162.505 193.347 161.66 193.347 160.633C193.347 159.658 193.672 158.839 194.322 158.15C194.972 157.461 195.856 157.123 196.961 157.123H197.052V154.51H198.144V157.123H198.248C199.327 157.123 200.211 157.448 200.874 158.111C201.537 158.774 201.862 159.619 201.862 160.633C201.862 161.66 201.537 162.505 200.9 163.155C200.25 163.805 199.353 164.13 198.222 164.13H198.144V166.6ZM194.504 160.633C194.504 162.141 195.375 163.09 196.974 163.09H197.052V158.163H196.961C195.388 158.163 194.504 159.164 194.504 160.633ZM198.222 158.163H198.144V163.09H198.222C199.847 163.09 200.705 162.154 200.705 160.633C200.705 159.19 199.795 158.163 198.222 158.163ZM202.991 166.639L202.25 165.924C203.03 165.235 203.628 164.429 204.031 163.467C204.434 162.518 204.629 161.582 204.629 160.633C204.629 158.592 203.836 156.837 202.25 155.368L202.978 154.601C204.941 156.356 205.747 158.553 205.747 160.633C205.747 161.686 205.526 162.739 205.097 163.805C204.655 164.871 203.953 165.82 202.991 166.639Z" fill="#3C525E"/>
<defs>
<linearGradient id="paint0_linear_4002_20370" x1="5" y1="0" x2="5" y2="10" gradientUnits="userSpaceOnUse">
<stop stop-color="#30B099"/>
<stop offset="1" stop-color="#94E5D7"/>
</linearGradient>
<linearGradient id="paint1_linear_4002_20370" x1="5" y1="436" x2="9.47826" y2="444.109" gradientUnits="userSpaceOnUse">
<stop stop-color="#66CFF0"/>
<stop offset="1" stop-color="#A6E0F2"/>
</linearGradient>
<radialGradient id="paint2_radial_4002_20370" cx="0" cy="0" r="1" gradientUnits="userSpaceOnUse" gradientTransform="translate(-261 895) rotate(-59.0541) scale(1097.76 534.976)">
<stop stop-color="#51DDE6"/>
<stop offset="0.920242" stop-color="#E2FFF8" stop-opacity="0.7"/>
</radialGradient>
<linearGradient id="paint3_linear_4002_20370" x1="295" y1="128" x2="153.666" y2="278.927" gradientUnits="userSpaceOnUse">
<stop stop-color="#43C3BB"/>
<stop offset="1" stop-color="#78CCD1"/>
</linearGradient>
<linearGradient id="paint4_linear_4002_20370" x1="167" y1="256" x2="167" y2="1.93275e-05" gradientUnits="userSpaceOnUse">
<stop stop-color="#30B099"/>
<stop offset="1" stop-color="#94E5D7"/>
</linearGradient>
<linearGradient id="paint5_linear_4002_20370" x1="39" y1="128" x2="246.583" y2="13.3565" gradientUnits="userSpaceOnUse">
<stop stop-color="#66CFF0"/>
<stop offset="1" stop-color="#A6E0F2"/>
</linearGradient>
</defs>
</svg>
