<svg width="480" height="164" viewBox="0 0 480 164" fill="none" xmlns="http://www.w3.org/2000/svg">
<line y1="148.5" x2="480" y2="148.5" stroke="#ABBEC9"/>
<path d="M219.076 21.492L218.068 21.226L218.642 16.2H224.802V17.39H219.72L219.356 20.022C219.846 19.658 220.588 19.476 221.582 19.476C222.73 19.476 223.626 19.784 224.284 20.386C224.928 21.002 225.25 21.786 225.25 22.752C225.25 23.718 224.886 24.53 224.172 25.16C223.444 25.804 222.534 26.126 221.456 26.126C219.622 26.126 218.096 25.258 217.466 23.732L218.586 23.256C218.992 24.194 220.042 24.936 221.456 24.936C223.066 24.936 223.962 24.012 223.962 22.794C223.962 21.492 222.912 20.652 221.246 20.652C220.35 20.652 219.622 20.932 219.076 21.492ZM227.741 21.492L226.733 21.226L227.307 16.2H233.467V17.39H228.385L228.021 20.022C228.511 19.658 229.253 19.476 230.247 19.476C231.395 19.476 232.291 19.784 232.949 20.386C233.593 21.002 233.915 21.786 233.915 22.752C233.915 23.718 233.551 24.53 232.837 25.16C232.109 25.804 231.199 26.126 230.121 26.126C228.287 26.126 226.761 25.258 226.131 23.732L227.251 23.256C227.657 24.194 228.707 24.936 230.121 24.936C231.731 24.936 232.627 24.012 232.627 22.794C232.627 21.492 231.577 20.652 229.911 20.652C229.015 20.652 228.287 20.932 227.741 21.492ZM240.463 21.492L239.455 21.226L240.029 16.2H246.189V17.39H241.107L240.743 20.022C241.233 19.658 241.975 19.476 242.969 19.476C244.117 19.476 245.013 19.784 245.671 20.386C246.315 21.002 246.637 21.786 246.637 22.752C246.637 23.718 246.273 24.53 245.559 25.16C244.831 25.804 243.921 26.126 242.843 26.126C241.009 26.126 239.483 25.258 238.853 23.732L239.973 23.256C240.379 24.194 241.429 24.936 242.843 24.936C244.453 24.936 245.349 24.012 245.349 22.794C245.349 21.492 244.299 20.652 242.633 20.652C241.737 20.652 241.009 20.932 240.463 21.492ZM253.314 17.39H247.378V16.2H254.812V16.998L249.94 26H248.61L253.314 17.39ZM261.172 17.39H255.236V16.2H262.67V16.998L257.798 26H256.468L261.172 17.39Z" fill="#1A3341"/>
<path d="M226.556 157.372L225.68 157.06C225.98 155.572 227.108 154.504 228.896 154.504C230.624 154.504 231.68 155.5 231.68 157.024C231.68 157.828 231.332 158.632 230.9 159.208C230.684 159.508 230.408 159.796 230.084 160.096C229.424 160.684 228.956 160.996 228.272 161.428L227.348 162.004H231.992V163H225.452V162.184L227.276 160.972C227.6 160.768 227.828 160.612 227.96 160.516C228.092 160.432 228.308 160.276 228.596 160.072C228.884 159.868 229.1 159.688 229.244 159.556C229.376 159.424 229.556 159.256 229.76 159.04C230.312 158.44 230.516 157.888 230.576 157.132C230.576 156.04 229.868 155.548 228.824 155.548C228.176 155.548 227.66 155.728 227.288 156.088C226.916 156.448 226.664 156.88 226.556 157.372ZM232.824 158.8C232.824 157.504 233.124 156.46 233.736 155.68C234.336 154.9 235.224 154.504 236.388 154.504C238.776 154.504 239.964 156.076 239.964 158.8C239.964 160.108 239.664 161.14 239.076 161.92C238.476 162.7 237.588 163.096 236.412 163.096C235.284 163.096 234.408 162.7 233.772 161.908C233.136 161.116 232.824 160.084 232.824 158.8ZM233.928 158.8C233.928 160.852 234.864 162.076 236.412 162.076C238.044 162.076 238.86 160.984 238.86 158.8C238.86 156.616 238.032 155.524 236.388 155.524C234.72 155.524 233.928 156.724 233.928 158.8ZM241.82 157.372L240.944 157.06C241.244 155.572 242.372 154.504 244.16 154.504C245.888 154.504 246.944 155.5 246.944 157.024C246.944 157.828 246.596 158.632 246.164 159.208C245.948 159.508 245.672 159.796 245.348 160.096C244.688 160.684 244.22 160.996 243.536 161.428L242.612 162.004H247.256V163H240.716V162.184L242.54 160.972C242.864 160.768 243.092 160.612 243.224 160.516C243.356 160.432 243.572 160.276 243.86 160.072C244.148 159.868 244.364 159.688 244.508 159.556C244.64 159.424 244.82 159.256 245.024 159.04C245.576 158.44 245.78 157.888 245.84 157.132C245.84 156.04 245.132 155.548 244.088 155.548C243.44 155.548 242.924 155.728 242.552 156.088C242.18 156.448 241.928 156.88 241.82 157.372ZM249.048 157.372L248.172 157.06C248.472 155.572 249.6 154.504 251.388 154.504C253.116 154.504 254.172 155.5 254.172 157.024C254.172 157.828 253.824 158.632 253.392 159.208C253.176 159.508 252.9 159.796 252.576 160.096C251.916 160.684 251.448 160.996 250.764 161.428L249.84 162.004H254.484V163H247.944V162.184L249.768 160.972C250.092 160.768 250.32 160.612 250.452 160.516C250.584 160.432 250.8 160.276 251.088 160.072C251.376 159.868 251.592 159.688 251.736 159.556C251.868 159.424 252.048 159.256 252.252 159.04C252.804 158.44 253.008 157.888 253.068 157.132C253.068 156.04 252.36 155.548 251.316 155.548C250.668 155.548 250.152 155.728 249.78 156.088C249.408 156.448 249.156 156.88 249.048 157.372Z" fill="#1A3341" fill-opacity="0.6"/>
<path d="M212 38C212 36.8954 212.895 36 214 36H266C267.105 36 268 36.8954 268 38V148H212V38Z" fill="url(#paint0_linear_4002_9568)"/>
<path opacity="0.2" d="M224 36H256V148H224V36Z" fill="url(#paint1_linear_4002_9568)"/>
<path opacity="0.04" d="M256 36H266C267.105 36 268 36.8954 268 38V148H256V36Z" fill="#0D262C"/>
<path opacity="0.5" d="M212 38C212 36.8954 212.895 36 214 36H224V148H212V38Z" fill="url(#paint2_linear_4002_9568)"/>
<path d="M89.662 5.366C89.662 3.672 90.082 2.37 90.908 1.446C91.734 0.535999 92.77 0.0739993 94.016 0.0739993C95.654 0.0739993 96.942 0.816 97.488 1.992L96.536 2.636C95.962 1.726 95.108 1.278 93.96 1.278C93.092 1.278 92.364 1.614 91.776 2.286C91.188 2.972 90.894 3.896 90.908 5.086C91.454 4.064 92.728 3.448 94.128 3.448C95.262 3.448 96.172 3.742 96.83 4.344C97.488 4.946 97.824 5.744 97.824 6.724C97.824 7.718 97.46 8.544 96.718 9.174C95.976 9.804 95.052 10.126 93.946 10.126C91.3 10.126 89.662 8.404 89.662 5.366ZM91.062 6.556C91.328 7.942 92.378 8.922 93.932 8.922C94.688 8.922 95.318 8.726 95.808 8.32C96.298 7.928 96.536 7.41 96.536 6.78C96.536 5.394 95.556 4.652 94.058 4.652C93.232 4.652 92.546 4.848 92.014 5.24C91.468 5.632 91.16 6.066 91.062 6.556ZM105.595 10H104.377V7.998H98.3845V7.186L104.517 0.199999H105.595V6.864H107.415V7.998H105.595V10ZM104.377 2.16L100.065 6.864H104.377V2.16ZM116.02 4.414H116.454C117.084 4.414 117.602 4.26 118.036 3.966C118.456 3.672 118.666 3.28 118.666 2.818C118.666 1.768 117.84 1.236 116.202 1.236C114.634 1.236 113.78 1.81 113.78 2.818C113.78 3.728 114.718 4.414 116.02 4.414ZM116.426 5.52H116.076C115.32 5.52 114.69 5.688 114.2 6.01C113.71 6.332 113.458 6.738 113.458 7.228C113.458 8.292 114.438 8.964 116.216 8.964C118.022 8.964 118.988 8.32 118.988 7.242C118.988 6.164 117.952 5.52 116.426 5.52ZM119.184 9.37C118.47 9.874 117.476 10.126 116.23 10.126C114.984 10.126 113.99 9.874 113.262 9.384C112.534 8.894 112.17 8.222 112.17 7.354C112.17 6.22 112.912 5.324 114.102 4.932C113.024 4.582 112.492 3.728 112.492 2.734C112.492 1.11 113.864 0.0739993 116.216 0.0739993C118.582 0.0739993 119.954 1.11 119.954 2.734C119.954 3.672 119.436 4.386 118.4 4.862C119.646 5.24 120.262 6.052 120.262 7.298C120.262 8.18 119.898 8.88 119.184 9.37ZM122.782 5.492L121.774 5.226L122.348 0.199999H128.508V1.39H123.426L123.062 4.022C123.552 3.658 124.294 3.476 125.288 3.476C126.436 3.476 127.332 3.784 127.99 4.386C128.634 5.002 128.956 5.786 128.956 6.752C128.956 7.718 128.592 8.53 127.878 9.16C127.15 9.804 126.24 10.126 125.162 10.126C123.328 10.126 121.802 9.258 121.172 7.732L122.292 7.256C122.698 8.194 123.748 8.936 125.162 8.936C126.772 8.936 127.668 8.012 127.668 6.794C127.668 5.492 126.618 4.652 124.952 4.652C124.056 4.652 123.328 4.932 122.782 5.492ZM129.907 2.804L129.459 1.754L132.819 0.143999H133.617V10H132.413V1.642L129.907 2.804Z" fill="#1A3341"/>
<path d="M99.863 157.372L98.987 157.06C99.287 155.572 100.415 154.504 102.203 154.504C103.931 154.504 104.987 155.5 104.987 157.024C104.987 157.828 104.639 158.632 104.207 159.208C103.991 159.508 103.715 159.796 103.391 160.096C102.731 160.684 102.263 160.996 101.579 161.428L100.655 162.004H105.299V163H98.759V162.184L100.583 160.972C100.907 160.768 101.135 160.612 101.267 160.516C101.399 160.432 101.615 160.276 101.903 160.072C102.191 159.868 102.407 159.688 102.551 159.556C102.683 159.424 102.863 159.256 103.067 159.04C103.619 158.44 103.823 157.888 103.883 157.132C103.883 156.04 103.175 155.548 102.131 155.548C101.483 155.548 100.967 155.728 100.595 156.088C100.223 156.448 99.971 156.88 99.863 157.372ZM106.131 158.8C106.131 157.504 106.431 156.46 107.043 155.68C107.643 154.9 108.531 154.504 109.695 154.504C112.083 154.504 113.271 156.076 113.271 158.8C113.271 160.108 112.971 161.14 112.383 161.92C111.783 162.7 110.895 163.096 109.719 163.096C108.591 163.096 107.715 162.7 107.079 161.908C106.443 161.116 106.131 160.084 106.131 158.8ZM107.235 158.8C107.235 160.852 108.171 162.076 109.719 162.076C111.351 162.076 112.167 160.984 112.167 158.8C112.167 156.616 111.339 155.524 109.695 155.524C108.027 155.524 107.235 156.724 107.235 158.8ZM115.127 157.372L114.251 157.06C114.551 155.572 115.679 154.504 117.467 154.504C119.195 154.504 120.251 155.5 120.251 157.024C120.251 157.828 119.903 158.632 119.471 159.208C119.255 159.508 118.979 159.796 118.655 160.096C117.995 160.684 117.527 160.996 116.843 161.428L115.919 162.004H120.563V163H114.023V162.184L115.847 160.972C116.171 160.768 116.399 160.612 116.531 160.516C116.663 160.432 116.879 160.276 117.167 160.072C117.455 159.868 117.671 159.688 117.815 159.556C117.947 159.424 118.127 159.256 118.331 159.04C118.883 158.44 119.087 157.888 119.147 157.132C119.147 156.04 118.439 155.548 117.395 155.548C116.747 155.548 116.231 155.728 115.859 156.088C115.487 156.448 115.235 156.88 115.127 157.372ZM121.299 156.832L120.915 155.932L123.795 154.552H124.479V163H123.447V155.836L121.299 156.832Z" fill="#1A3341" fill-opacity="0.6"/>
<path d="M84 22C84 20.8954 84.8954 20 86 20H138C139.105 20 140 20.8954 140 22V148H84V22Z" fill="url(#paint3_linear_4002_9568)"/>
<path opacity="0.2" d="M96 20H128V148H96V20Z" fill="url(#paint4_linear_4002_9568)"/>
<path opacity="0.04" d="M128 20H138C139.105 20 140 20.8954 140 22V148H128V20Z" fill="#0D262C"/>
<path opacity="0.5" d="M84 22C84 20.8954 84.8954 20 86 20H96V148H84V22Z" fill="url(#paint5_linear_4002_9568)"/>
<path d="M347.343 23.492L346.335 23.226L346.909 18.2H353.069V19.39H347.987L347.623 22.022C348.113 21.658 348.855 21.476 349.849 21.476C350.997 21.476 351.893 21.784 352.551 22.386C353.195 23.002 353.517 23.786 353.517 24.752C353.517 25.718 353.153 26.53 352.439 27.16C351.711 27.804 350.801 28.126 349.723 28.126C347.889 28.126 346.363 27.258 345.733 25.732L346.853 25.256C347.259 26.194 348.309 26.936 349.723 26.936C351.333 26.936 352.229 26.012 352.229 24.794C352.229 23.492 351.179 22.652 349.513 22.652C348.617 22.652 347.889 22.932 347.343 23.492ZM356.008 23.492L355 23.226L355.574 18.2H361.734V19.39H356.652L356.288 22.022C356.778 21.658 357.52 21.476 358.514 21.476C359.662 21.476 360.558 21.784 361.216 22.386C361.86 23.002 362.182 23.786 362.182 24.752C362.182 25.718 361.818 26.53 361.104 27.16C360.376 27.804 359.466 28.126 358.388 28.126C356.554 28.126 355.028 27.258 354.398 25.732L355.518 25.256C355.924 26.194 356.974 26.936 358.388 26.936C359.998 26.936 360.894 26.012 360.894 24.794C360.894 23.492 359.844 22.652 358.178 22.652C357.282 22.652 356.554 22.932 356.008 23.492ZM374.064 28H372.846V25.998H366.854V25.186L372.986 18.2H374.064V24.864H375.884V25.998H374.064V28ZM372.846 20.16L368.534 24.864H372.846V20.16ZM384.716 22.918C384.716 24.584 384.324 25.872 383.526 26.768C382.728 27.678 381.664 28.126 380.334 28.126C378.71 28.126 377.436 27.44 376.806 26.39L377.814 25.69C378.374 26.474 379.396 26.922 380.502 26.922C381.412 26.922 382.14 26.558 382.714 25.83C383.288 25.116 383.526 24.22 383.456 23.156C382.994 24.22 381.832 25.004 380.278 25.004C379.186 25.004 378.29 24.696 377.59 24.066C376.876 23.45 376.526 22.638 376.526 21.644C376.526 20.552 376.904 19.684 377.66 19.04C378.416 18.396 379.424 18.074 380.67 18.074C383.19 18.074 384.716 19.838 384.716 22.918ZM383.246 21.602C383.036 20.3 382.14 19.278 380.53 19.278C378.85 19.278 377.814 20.146 377.814 21.602C377.814 22.988 378.864 23.8 380.502 23.8C381.244 23.8 381.874 23.576 382.364 23.128C382.854 22.68 383.148 22.176 383.246 21.602ZM385.654 20.804L385.206 19.754L388.566 18.144H389.364V28H388.16V19.642L385.654 20.804Z" fill="#1A3341"/>
<path d="M354.527 157.372L353.651 157.06C353.951 155.572 355.079 154.504 356.867 154.504C358.595 154.504 359.651 155.5 359.651 157.024C359.651 157.828 359.303 158.632 358.871 159.208C358.655 159.508 358.379 159.796 358.055 160.096C357.395 160.684 356.927 160.996 356.243 161.428L355.319 162.004H359.963V163H353.423V162.184L355.247 160.972C355.571 160.768 355.799 160.612 355.931 160.516C356.063 160.432 356.279 160.276 356.567 160.072C356.855 159.868 357.071 159.688 357.215 159.556C357.347 159.424 357.527 159.256 357.731 159.04C358.283 158.44 358.487 157.888 358.547 157.132C358.547 156.04 357.839 155.548 356.795 155.548C356.147 155.548 355.631 155.728 355.259 156.088C354.887 156.448 354.635 156.88 354.527 157.372ZM360.795 158.8C360.795 157.504 361.095 156.46 361.707 155.68C362.307 154.9 363.195 154.504 364.359 154.504C366.747 154.504 367.935 156.076 367.935 158.8C367.935 160.108 367.635 161.14 367.047 161.92C366.447 162.7 365.559 163.096 364.383 163.096C363.255 163.096 362.379 162.7 361.743 161.908C361.107 161.116 360.795 160.084 360.795 158.8ZM361.899 158.8C361.899 160.852 362.835 162.076 364.383 162.076C366.015 162.076 366.831 160.984 366.831 158.8C366.831 156.616 366.003 155.524 364.359 155.524C362.691 155.524 361.899 156.724 361.899 158.8ZM369.791 157.372L368.915 157.06C369.215 155.572 370.343 154.504 372.131 154.504C373.859 154.504 374.915 155.5 374.915 157.024C374.915 157.828 374.567 158.632 374.135 159.208C373.919 159.508 373.643 159.796 373.319 160.096C372.659 160.684 372.191 160.996 371.507 161.428L370.583 162.004H375.227V163H368.687V162.184L370.511 160.972C370.835 160.768 371.063 160.612 371.195 160.516C371.327 160.432 371.543 160.276 371.831 160.072C372.119 159.868 372.335 159.688 372.479 159.556C372.611 159.424 372.791 159.256 372.995 159.04C373.547 158.44 373.751 157.888 373.811 157.132C373.811 156.04 373.103 155.548 372.059 155.548C371.411 155.548 370.895 155.728 370.523 156.088C370.151 156.448 369.899 156.88 369.791 157.372ZM376.887 157.048L375.987 156.64C376.431 155.344 377.595 154.492 379.335 154.492C380.163 154.492 380.847 154.684 381.375 155.068C381.903 155.452 382.167 155.968 382.167 156.604C382.167 157.576 381.651 158.296 380.691 158.572C381.615 158.632 382.359 159.328 382.359 160.576C382.359 161.368 382.071 161.992 381.495 162.436C380.919 162.88 380.187 163.108 379.287 163.108C377.451 163.108 376.179 162.232 375.759 160.852L376.731 160.432C377.247 161.524 378.123 162.076 379.359 162.076C380.523 162.076 381.255 161.536 381.255 160.588C381.255 159.664 380.535 159.196 379.095 159.196H378.159V158.2H378.903C380.211 158.2 381.063 157.612 381.063 156.808C381.063 155.98 380.379 155.512 379.287 155.512C378.003 155.512 377.223 156.172 376.887 157.048Z" fill="#1A3341" fill-opacity="0.6"/>
<path d="M340 40C340 38.8954 340.895 38 342 38H394C395.105 38 396 38.8954 396 40V148H340V40Z" fill="url(#paint6_linear_4002_9568)"/>
<path opacity="0.2" d="M352 38H384V148H352V38Z" fill="url(#paint7_linear_4002_9568)"/>
<path opacity="0.04" d="M384 38H394C395.105 38 396 38.8954 396 40V148H384V38Z" fill="#0D262C"/>
<path opacity="0.5" d="M340 40C340 38.8954 340.895 38 342 38H352V148H340V40Z" fill="url(#paint8_linear_4002_9568)"/>
<path d="M164.308 23.136H158.74V22.236H164.308V23.136ZM171.258 27H165.846V26.004H168.402V19.836L166.254 20.832L165.87 19.932L168.75 18.552H169.434V26.004H171.258V27ZM177.962 27H176.918V25.284H172.382V24.588L177.038 18.6H177.962V24.312H179.282V25.284H177.962V27ZM176.918 20.28L173.822 24.312H176.918V20.28ZM181.977 27.18L181.185 26.724L187.389 18.336L188.145 18.888L181.977 27.18ZM179.889 20.616C179.889 20.016 180.093 19.524 180.513 19.14C180.933 18.756 181.449 18.564 182.085 18.564C182.709 18.564 183.225 18.756 183.645 19.14C184.065 19.524 184.269 20.016 184.269 20.616C184.269 21.204 184.065 21.696 183.645 22.08C183.225 22.464 182.709 22.656 182.085 22.656C181.449 22.656 180.933 22.464 180.513 22.08C180.093 21.696 179.889 21.204 179.889 20.616ZM180.897 20.616C180.897 21.3 181.449 21.804 182.085 21.804C182.745 21.804 183.261 21.324 183.261 20.616C183.261 19.908 182.721 19.428 182.085 19.428C181.425 19.428 180.897 19.908 180.897 20.616ZM185.661 26.472C185.241 26.088 185.037 25.596 185.037 24.996C185.037 24.396 185.241 23.904 185.661 23.52C186.081 23.148 186.597 22.956 187.233 22.956C187.857 22.956 188.373 23.148 188.793 23.52C189.213 23.904 189.417 24.396 189.417 24.996C189.417 25.584 189.213 26.076 188.793 26.46C188.373 26.856 187.857 27.048 187.233 27.048C186.597 27.048 186.081 26.856 185.661 26.472ZM186.045 24.996C186.045 25.68 186.597 26.184 187.233 26.184C187.893 26.184 188.409 25.704 188.409 24.996C188.409 24.288 187.869 23.808 187.233 23.808C186.573 23.808 186.045 24.288 186.045 24.996Z" fill="#7DA4C1"/>
<path d="M201.747 36.3536C201.943 36.1583 201.943 35.8417 201.747 35.6465L198.566 32.4645C198.37 32.2692 198.054 32.2692 197.858 32.4645C197.663 32.6597 197.663 32.9763 197.858 33.1716L200.687 36L197.858 38.8284C197.663 39.0237 197.663 39.3403 197.858 39.5355C198.054 39.7308 198.37 39.7308 198.566 39.5355L201.747 36.3536ZM150 36.5L201.394 36.5L201.394 35.5L150 35.5L150 36.5Z" fill="#7DA4C1"/>
<path d="M289.996 23.136H284.428V22.236H289.996V23.136ZM291.054 22.8C291.054 21.504 291.33 20.46 291.87 19.68C292.41 18.9 293.202 18.504 294.258 18.504C296.406 18.504 297.474 20.076 297.474 22.8C297.474 24.108 297.21 25.14 296.67 25.92C296.13 26.7 295.338 27.096 294.282 27.096C293.262 27.096 292.47 26.7 291.906 25.908C291.342 25.116 291.054 24.084 291.054 22.8ZM292.158 22.8C292.158 24.828 292.95 26.076 294.282 26.076C295.674 26.076 296.37 24.984 296.37 22.8C296.37 20.616 295.662 19.524 294.258 19.524C292.854 19.524 292.158 20.616 292.158 22.8ZM299.185 27C298.741 27.048 298.405 26.796 298.405 26.364C298.405 25.944 298.669 25.68 299.137 25.68C299.665 25.68 300.013 26.04 300.013 26.712C300.013 27.912 299.353 28.524 298.477 28.728L298.225 28.164C298.489 28.092 298.729 27.948 298.945 27.72C299.149 27.492 299.233 27.252 299.185 27ZM301.966 21.372L301.09 21.06C301.39 19.56 302.47 18.504 304.246 18.504C305.974 18.504 306.97 19.5 306.97 21.024C306.934 22.284 306.346 23.28 305.458 24.084C304.834 24.672 304.342 25.008 303.682 25.428L302.758 26.004H307.282V27H300.982V26.184L302.686 24.972C303.682 24.264 304.33 23.772 304.63 23.496C305.458 22.74 305.866 21.948 305.866 21.132C305.866 20.028 305.194 19.548 304.174 19.548C302.878 19.548 302.206 20.364 301.966 21.372ZM310.29 27.18L309.498 26.724L315.702 18.336L316.458 18.888L310.29 27.18ZM308.202 20.616C308.202 20.016 308.406 19.524 308.826 19.14C309.246 18.756 309.762 18.564 310.398 18.564C311.022 18.564 311.538 18.756 311.958 19.14C312.378 19.524 312.582 20.016 312.582 20.616C312.582 21.204 312.378 21.696 311.958 22.08C311.538 22.464 311.022 22.656 310.398 22.656C309.762 22.656 309.246 22.464 308.826 22.08C308.406 21.696 308.202 21.204 308.202 20.616ZM309.21 20.616C309.21 21.3 309.762 21.804 310.398 21.804C311.058 21.804 311.574 21.324 311.574 20.616C311.574 19.908 311.034 19.428 310.398 19.428C309.738 19.428 309.21 19.908 309.21 20.616ZM313.974 26.472C313.554 26.088 313.35 25.596 313.35 24.996C313.35 24.396 313.554 23.904 313.974 23.52C314.394 23.148 314.91 22.956 315.546 22.956C316.17 22.956 316.686 23.148 317.106 23.52C317.526 23.904 317.73 24.396 317.73 24.996C317.73 25.584 317.526 26.076 317.106 26.46C316.686 26.856 316.17 27.048 315.546 27.048C314.91 27.048 314.394 26.856 313.974 26.472ZM314.358 24.996C314.358 25.68 314.91 26.184 315.546 26.184C316.206 26.184 316.722 25.704 316.722 24.996C316.722 24.288 316.182 23.808 315.546 23.808C314.886 23.808 314.358 24.288 314.358 24.996Z" fill="#7DA4C1"/>
<path d="M328.778 36.3536C328.973 36.1583 328.973 35.8417 328.778 35.6464L325.596 32.4645C325.401 32.2692 325.084 32.2692 324.889 32.4645C324.693 32.6597 324.693 32.9763 324.889 33.1716L327.717 36L324.889 38.8284C324.693 39.0237 324.693 39.3403 324.889 39.5355C325.084 39.7308 325.401 39.7308 325.596 39.5355L328.778 36.3536ZM278 36.5L328.424 36.5L328.424 35.5L278 35.5L278 36.5Z" fill="#7DA4C1"/>
<defs>
<linearGradient id="paint0_linear_4002_9568" x1="240" y1="36" x2="240" y2="148" gradientUnits="userSpaceOnUse">
<stop stop-color="#45B8DB"/>
<stop offset="1" stop-color="#ADE4E4"/>
</linearGradient>
<linearGradient id="paint1_linear_4002_9568" x1="240" y1="36" x2="240" y2="148" gradientUnits="userSpaceOnUse">
<stop stop-color="white" stop-opacity="0"/>
<stop offset="0.739583" stop-color="white"/>
</linearGradient>
<linearGradient id="paint2_linear_4002_9568" x1="218" y1="-182.4" x2="218" y2="148" gradientUnits="userSpaceOnUse">
<stop stop-color="white" stop-opacity="0.05"/>
<stop offset="0.75" stop-color="white" stop-opacity="0.8"/>
</linearGradient>
<linearGradient id="paint3_linear_4002_9568" x1="112" y1="20" x2="112" y2="148" gradientUnits="userSpaceOnUse">
<stop stop-color="#45B8DB"/>
<stop offset="1" stop-color="#ADE4E4"/>
</linearGradient>
<linearGradient id="paint4_linear_4002_9568" x1="112" y1="20" x2="112" y2="148" gradientUnits="userSpaceOnUse">
<stop stop-color="white" stop-opacity="0"/>
<stop offset="0.739583" stop-color="white"/>
</linearGradient>
<linearGradient id="paint5_linear_4002_9568" x1="90" y1="-229.6" x2="90" y2="148" gradientUnits="userSpaceOnUse">
<stop stop-color="white" stop-opacity="0.05"/>
<stop offset="0.75" stop-color="white" stop-opacity="0.8"/>
</linearGradient>
<linearGradient id="paint6_linear_4002_9568" x1="368" y1="38" x2="368" y2="148" gradientUnits="userSpaceOnUse">
<stop stop-color="#45B8DB"/>
<stop offset="1" stop-color="#ADE4E4"/>
</linearGradient>
<linearGradient id="paint7_linear_4002_9568" x1="368" y1="38" x2="368" y2="148" gradientUnits="userSpaceOnUse">
<stop stop-color="white" stop-opacity="0"/>
<stop offset="0.739583" stop-color="white"/>
</linearGradient>
<linearGradient id="paint8_linear_4002_9568" x1="346" y1="-176.5" x2="346" y2="148" gradientUnits="userSpaceOnUse">
<stop stop-color="white" stop-opacity="0.05"/>
<stop offset="0.75" stop-color="white" stop-opacity="0.8"/>
</linearGradient>
</defs>
</svg>
