<svg width="543" height="242" viewBox="0 0 543 242" fill="none" xmlns="http://www.w3.org/2000/svg">
<path d="M113.087 78.366C113.087 76.672 113.507 75.37 114.333 74.446C115.159 73.536 116.195 73.074 117.441 73.074C119.079 73.074 120.367 73.816 120.913 74.992L119.961 75.636C119.387 74.726 118.533 74.278 117.385 74.278C116.517 74.278 115.789 74.614 115.201 75.286C114.613 75.972 114.319 76.896 114.333 78.086C114.879 77.064 116.153 76.448 117.553 76.448C118.687 76.448 119.597 76.742 120.255 77.344C120.913 77.946 121.249 78.744 121.249 79.724C121.249 80.718 120.885 81.544 120.143 82.174C119.401 82.804 118.477 83.126 117.371 83.126C114.725 83.126 113.087 81.404 113.087 78.366ZM114.487 79.556C114.753 80.942 115.803 81.922 117.357 81.922C118.113 81.922 118.743 81.726 119.233 81.32C119.723 80.928 119.961 80.41 119.961 79.78C119.961 78.394 118.981 77.652 117.483 77.652C116.657 77.652 115.971 77.848 115.439 78.24C114.893 78.632 114.585 79.066 114.487 79.556ZM130.179 77.414H130.613C131.243 77.414 131.761 77.26 132.195 76.966C132.615 76.672 132.825 76.28 132.825 75.818C132.825 74.768 131.999 74.236 130.361 74.236C128.793 74.236 127.939 74.81 127.939 75.818C127.939 76.728 128.877 77.414 130.179 77.414ZM130.585 78.52H130.235C129.479 78.52 128.849 78.688 128.359 79.01C127.869 79.332 127.617 79.738 127.617 80.228C127.617 81.292 128.597 81.964 130.375 81.964C132.181 81.964 133.147 81.32 133.147 80.242C133.147 79.164 132.111 78.52 130.585 78.52ZM133.343 82.37C132.629 82.874 131.635 83.126 130.389 83.126C129.143 83.126 128.149 82.874 127.421 82.384C126.693 81.894 126.329 81.222 126.329 80.354C126.329 79.22 127.071 78.324 128.261 77.932C127.183 77.582 126.651 76.728 126.651 75.734C126.651 74.11 128.023 73.074 130.375 73.074C132.741 73.074 134.113 74.11 134.113 75.734C134.113 76.672 133.595 77.386 132.559 77.862C133.805 78.24 134.421 79.052 134.421 80.298C134.421 81.18 134.057 81.88 133.343 82.37ZM139.377 77.414H139.811C140.441 77.414 140.959 77.26 141.393 76.966C141.813 76.672 142.023 76.28 142.023 75.818C142.023 74.768 141.197 74.236 139.559 74.236C137.991 74.236 137.137 74.81 137.137 75.818C137.137 76.728 138.075 77.414 139.377 77.414ZM139.783 78.52H139.433C138.677 78.52 138.047 78.688 137.557 79.01C137.067 79.332 136.815 79.738 136.815 80.228C136.815 81.292 137.795 81.964 139.573 81.964C141.379 81.964 142.345 81.32 142.345 80.242C142.345 79.164 141.309 78.52 139.783 78.52ZM142.541 82.37C141.827 82.874 140.833 83.126 139.587 83.126C138.341 83.126 137.347 82.874 136.619 82.384C135.891 81.894 135.527 81.222 135.527 80.354C135.527 79.22 136.269 78.324 137.459 77.932C136.381 77.582 135.849 76.728 135.849 75.734C135.849 74.11 137.221 73.074 139.573 73.074C141.939 73.074 143.311 74.11 143.311 75.734C143.311 76.672 142.793 77.386 141.757 77.862C143.003 78.24 143.619 79.052 143.619 80.298C143.619 81.18 143.255 81.88 142.541 82.37ZM151.473 83H150.255V80.998H144.263V80.186L150.395 73.2H151.473V79.864H153.293V80.998H151.473V83ZM150.255 75.16L145.943 79.864H150.255V75.16Z" fill="#1A3341"/>
<path d="M120.863 235.372L119.987 235.06C120.287 233.572 121.415 232.504 123.203 232.504C124.931 232.504 125.987 233.5 125.987 235.024C125.987 235.828 125.639 236.632 125.207 237.208C124.991 237.508 124.715 237.796 124.391 238.096C123.731 238.684 123.263 238.996 122.579 239.428L121.655 240.004H126.299V241H119.759V240.184L121.583 238.972C121.907 238.768 122.135 238.612 122.267 238.516C122.399 238.432 122.615 238.276 122.903 238.072C123.191 237.868 123.407 237.688 123.551 237.556C123.683 237.424 123.863 237.256 124.067 237.04C124.619 236.44 124.823 235.888 124.883 235.132C124.883 234.04 124.175 233.548 123.131 233.548C122.483 233.548 121.967 233.728 121.595 234.088C121.223 234.448 120.971 234.88 120.863 235.372ZM127.131 236.8C127.131 235.504 127.431 234.46 128.043 233.68C128.643 232.9 129.531 232.504 130.695 232.504C133.083 232.504 134.271 234.076 134.271 236.8C134.271 238.108 133.971 239.14 133.383 239.92C132.783 240.7 131.895 241.096 130.719 241.096C129.591 241.096 128.715 240.7 128.079 239.908C127.443 239.116 127.131 238.084 127.131 236.8ZM128.235 236.8C128.235 238.852 129.171 240.076 130.719 240.076C132.351 240.076 133.167 238.984 133.167 236.8C133.167 234.616 132.339 233.524 130.695 233.524C129.027 233.524 128.235 234.724 128.235 236.8ZM136.127 235.372L135.251 235.06C135.551 233.572 136.679 232.504 138.467 232.504C140.195 232.504 141.251 233.5 141.251 235.024C141.251 235.828 140.903 236.632 140.471 237.208C140.255 237.508 139.979 237.796 139.655 238.096C138.995 238.684 138.527 238.996 137.843 239.428L136.919 240.004H141.563V241H135.023V240.184L136.847 238.972C137.171 238.768 137.399 238.612 137.531 238.516C137.663 238.432 137.879 238.276 138.167 238.072C138.455 237.868 138.671 237.688 138.815 237.556C138.947 237.424 139.127 237.256 139.331 237.04C139.883 236.44 140.087 235.888 140.147 235.132C140.147 234.04 139.439 233.548 138.395 233.548C137.747 233.548 137.231 233.728 136.859 234.088C136.487 234.448 136.235 234.88 136.127 235.372ZM142.299 234.832L141.915 233.932L144.795 232.552H145.479V241H144.447V233.836L142.299 234.832Z" fill="#1A3341" fill-opacity="0.6"/>
<path d="M105 95C105 93.8954 105.895 93 107 93H159C160.105 93 161 93.8954 161 95V226H105V95Z" fill="url(#paint0_linear_6004_39834)"/>
<path opacity="0.2" d="M117 93H149V226H117V93Z" fill="url(#paint1_linear_6004_39834)"/>
<path opacity="0.04" d="M149 93H159C160.105 93 161 93.8954 161 95V226H149V93Z" fill="#0D262C"/>
<path opacity="0.5" d="M105 95C105 93.8954 105.895 93 107 93H117V226H105V95Z" fill="url(#paint2_linear_6004_39834)"/>
<path d="M265.76 129.366C265.76 127.672 266.18 126.37 267.006 125.446C267.832 124.536 268.868 124.074 270.114 124.074C271.752 124.074 273.04 124.816 273.586 125.992L272.634 126.636C272.06 125.726 271.206 125.278 270.058 125.278C269.19 125.278 268.462 125.614 267.874 126.286C267.286 126.972 266.992 127.896 267.006 129.086C267.552 128.064 268.826 127.448 270.226 127.448C271.36 127.448 272.27 127.742 272.928 128.344C273.586 128.946 273.922 129.744 273.922 130.724C273.922 131.718 273.558 132.544 272.816 133.174C272.074 133.804 271.15 134.126 270.044 134.126C267.398 134.126 265.76 132.404 265.76 129.366ZM267.16 130.556C267.426 131.942 268.476 132.922 270.03 132.922C270.786 132.922 271.416 132.726 271.906 132.32C272.396 131.928 272.634 131.41 272.634 130.78C272.634 129.394 271.654 128.652 270.156 128.652C269.33 128.652 268.644 128.848 268.112 129.24C267.566 129.632 267.258 130.066 267.16 130.556ZM278.876 126.804L278.428 125.754L281.788 124.144H282.586V134H281.382V125.642L278.876 126.804ZM285.491 127.434L284.469 127.07C284.819 125.334 286.135 124.088 288.221 124.088C290.237 124.088 291.469 125.25 291.469 127.028C291.469 127.966 291.063 128.904 290.559 129.576C290.307 129.926 289.985 130.262 289.607 130.612C288.837 131.298 288.291 131.662 287.493 132.166L286.415 132.838H291.833V134H284.203V133.048L286.331 131.634C286.709 131.396 286.975 131.214 287.129 131.102C287.283 131.004 287.535 130.822 287.871 130.584C288.207 130.346 288.459 130.136 288.627 129.982C288.781 129.828 288.991 129.632 289.229 129.38C289.873 128.68 290.111 128.036 290.181 127.154C290.181 125.88 289.355 125.306 288.137 125.306C287.381 125.306 286.779 125.516 286.345 125.936C285.911 126.356 285.617 126.86 285.491 127.434ZM293.769 127.056L292.719 126.58C293.237 125.068 294.595 124.074 296.625 124.074C297.591 124.074 298.389 124.298 299.005 124.746C299.621 125.194 299.929 125.796 299.929 126.538C299.929 127.672 299.327 128.512 298.207 128.834C299.285 128.904 300.153 129.716 300.153 131.172C300.153 132.096 299.817 132.824 299.145 133.342C298.473 133.86 297.619 134.126 296.569 134.126C294.427 134.126 292.943 133.104 292.453 131.494L293.587 131.004C294.189 132.278 295.211 132.922 296.653 132.922C298.011 132.922 298.865 132.292 298.865 131.186C298.865 130.108 298.025 129.562 296.345 129.562H295.253V128.4H296.121C297.647 128.4 298.641 127.714 298.641 126.776C298.641 125.81 297.843 125.264 296.569 125.264C295.071 125.264 294.161 126.034 293.769 127.056Z" fill="#1A3341"/>
<path d="M269.556 235.372L268.68 235.06C268.98 233.572 270.108 232.504 271.896 232.504C273.624 232.504 274.68 233.5 274.68 235.024C274.68 235.828 274.332 236.632 273.9 237.208C273.684 237.508 273.408 237.796 273.084 238.096C272.424 238.684 271.956 238.996 271.272 239.428L270.348 240.004H274.992V241H268.452V240.184L270.276 238.972C270.6 238.768 270.828 238.612 270.96 238.516C271.092 238.432 271.308 238.276 271.596 238.072C271.884 237.868 272.1 237.688 272.244 237.556C272.376 237.424 272.556 237.256 272.76 237.04C273.312 236.44 273.516 235.888 273.576 235.132C273.576 234.04 272.868 233.548 271.824 233.548C271.176 233.548 270.66 233.728 270.288 234.088C269.916 234.448 269.664 234.88 269.556 235.372ZM275.824 236.8C275.824 235.504 276.124 234.46 276.736 233.68C277.336 232.9 278.224 232.504 279.388 232.504C281.776 232.504 282.964 234.076 282.964 236.8C282.964 238.108 282.664 239.14 282.076 239.92C281.476 240.7 280.588 241.096 279.412 241.096C278.284 241.096 277.408 240.7 276.772 239.908C276.136 239.116 275.824 238.084 275.824 236.8ZM276.928 236.8C276.928 238.852 277.864 240.076 279.412 240.076C281.044 240.076 281.86 238.984 281.86 236.8C281.86 234.616 281.032 233.524 279.388 233.524C277.72 233.524 276.928 234.724 276.928 236.8ZM284.82 235.372L283.944 235.06C284.244 233.572 285.372 232.504 287.16 232.504C288.888 232.504 289.944 233.5 289.944 235.024C289.944 235.828 289.596 236.632 289.164 237.208C288.948 237.508 288.672 237.796 288.348 238.096C287.688 238.684 287.22 238.996 286.536 239.428L285.612 240.004H290.256V241H283.716V240.184L285.54 238.972C285.864 238.768 286.092 238.612 286.224 238.516C286.356 238.432 286.572 238.276 286.86 238.072C287.148 237.868 287.364 237.688 287.508 237.556C287.64 237.424 287.82 237.256 288.024 237.04C288.576 236.44 288.78 235.888 288.84 235.132C288.84 234.04 288.132 233.548 287.088 233.548C286.44 233.548 285.924 233.728 285.552 234.088C285.18 234.448 284.928 234.88 284.82 235.372ZM292.048 235.372L291.172 235.06C291.472 233.572 292.6 232.504 294.388 232.504C296.116 232.504 297.172 233.5 297.172 235.024C297.172 235.828 296.824 236.632 296.392 237.208C296.176 237.508 295.9 237.796 295.576 238.096C294.916 238.684 294.448 238.996 293.764 239.428L292.84 240.004H297.484V241H290.944V240.184L292.768 238.972C293.092 238.768 293.32 238.612 293.452 238.516C293.584 238.432 293.8 238.276 294.088 238.072C294.376 237.868 294.592 237.688 294.736 237.556C294.868 237.424 295.048 237.256 295.252 237.04C295.804 236.44 296.008 235.888 296.068 235.132C296.068 234.04 295.36 233.548 294.316 233.548C293.668 233.548 293.152 233.728 292.78 234.088C292.408 234.448 292.156 234.88 292.048 235.372Z" fill="#1A3341" fill-opacity="0.6"/>
<path d="M255 146C255 144.895 255.895 144 257 144H309C310.105 144 311 144.895 311 146V226H255V146Z" fill="url(#paint3_linear_6004_39834)"/>
<path opacity="0.2" d="M267 144H299V226H267V144Z" fill="url(#paint4_linear_6004_39834)"/>
<path opacity="0.04" d="M299 144H309C310.105 144 311 144.895 311 146V226H299V144Z" fill="#0D262C"/>
<path opacity="0.5" d="M255 146C255 144.895 255.895 144 257 144H267V226H255V146Z" fill="url(#paint5_linear_6004_39834)"/>
<path d="M413.21 99.366C413.21 97.672 413.63 96.37 414.456 95.446C415.282 94.536 416.318 94.074 417.564 94.074C419.202 94.074 420.49 94.816 421.036 95.992L420.084 96.636C419.51 95.726 418.656 95.278 417.508 95.278C416.64 95.278 415.912 95.614 415.324 96.286C414.736 96.972 414.442 97.896 414.456 99.086C415.002 98.064 416.276 97.448 417.676 97.448C418.81 97.448 419.72 97.742 420.378 98.344C421.036 98.946 421.372 99.744 421.372 100.724C421.372 101.718 421.008 102.544 420.266 103.174C419.524 103.804 418.6 104.126 417.494 104.126C414.848 104.126 413.21 102.404 413.21 99.366ZM414.61 100.556C414.876 101.942 415.926 102.922 417.48 102.922C418.236 102.922 418.866 102.726 419.356 102.32C419.846 101.928 420.084 101.41 420.084 100.78C420.084 99.394 419.104 98.652 417.606 98.652C416.78 98.652 416.094 98.848 415.562 99.24C415.016 99.632 414.708 100.066 414.61 100.556ZM427.866 99.492L426.858 99.226L427.432 94.2H433.592V95.39H428.51L428.146 98.022C428.636 97.658 429.378 97.476 430.372 97.476C431.52 97.476 432.416 97.784 433.074 98.386C433.718 99.002 434.04 99.786 434.04 100.752C434.04 101.718 433.676 102.53 432.962 103.16C432.234 103.804 431.324 104.126 430.246 104.126C428.412 104.126 426.886 103.258 426.256 101.732L427.376 101.256C427.782 102.194 428.832 102.936 430.246 102.936C431.856 102.936 432.752 102.012 432.752 100.794C432.752 99.492 431.702 98.652 430.036 98.652C429.14 98.652 428.412 98.932 427.866 99.492ZM435.103 99.1C435.103 97.588 435.453 96.37 436.167 95.46C436.867 94.55 437.903 94.088 439.261 94.088C442.047 94.088 443.433 95.922 443.433 99.1C443.433 100.626 443.083 101.83 442.397 102.74C441.697 103.65 440.661 104.112 439.289 104.112C437.973 104.112 436.951 103.65 436.209 102.726C435.467 101.802 435.103 100.598 435.103 99.1ZM436.391 99.1C436.391 101.494 437.483 102.922 439.289 102.922C441.193 102.922 442.145 101.648 442.145 99.1C442.145 96.552 441.179 95.278 439.261 95.278C437.315 95.278 436.391 96.678 436.391 99.1ZM444.478 99.1C444.478 97.588 444.828 96.37 445.542 95.46C446.242 94.55 447.278 94.088 448.636 94.088C451.422 94.088 452.808 95.922 452.808 99.1C452.808 100.626 452.458 101.83 451.772 102.74C451.072 103.65 450.036 104.112 448.664 104.112C447.348 104.112 446.326 103.65 445.584 102.726C444.842 101.802 444.478 100.598 444.478 99.1ZM445.766 99.1C445.766 101.494 446.858 102.922 448.664 102.922C450.568 102.922 451.52 101.648 451.52 99.1C451.52 96.552 450.554 95.278 448.636 95.278C446.69 95.278 445.766 96.678 445.766 99.1Z" fill="#1A3341"/>
<path d="M419.527 235.372L418.651 235.06C418.951 233.572 420.079 232.504 421.867 232.504C423.595 232.504 424.651 233.5 424.651 235.024C424.651 235.828 424.303 236.632 423.871 237.208C423.655 237.508 423.379 237.796 423.055 238.096C422.395 238.684 421.927 238.996 421.243 239.428L420.319 240.004H424.963V241H418.423V240.184L420.247 238.972C420.571 238.768 420.799 238.612 420.931 238.516C421.063 238.432 421.279 238.276 421.567 238.072C421.855 237.868 422.071 237.688 422.215 237.556C422.347 237.424 422.527 237.256 422.731 237.04C423.283 236.44 423.487 235.888 423.547 235.132C423.547 234.04 422.839 233.548 421.795 233.548C421.147 233.548 420.631 233.728 420.259 234.088C419.887 234.448 419.635 234.88 419.527 235.372ZM425.795 236.8C425.795 235.504 426.095 234.46 426.707 233.68C427.307 232.9 428.195 232.504 429.359 232.504C431.747 232.504 432.935 234.076 432.935 236.8C432.935 238.108 432.635 239.14 432.047 239.92C431.447 240.7 430.559 241.096 429.383 241.096C428.255 241.096 427.379 240.7 426.743 239.908C426.107 239.116 425.795 238.084 425.795 236.8ZM426.899 236.8C426.899 238.852 427.835 240.076 429.383 240.076C431.015 240.076 431.831 238.984 431.831 236.8C431.831 234.616 431.003 233.524 429.359 233.524C427.691 233.524 426.899 234.724 426.899 236.8ZM434.791 235.372L433.915 235.06C434.215 233.572 435.343 232.504 437.131 232.504C438.859 232.504 439.915 233.5 439.915 235.024C439.915 235.828 439.567 236.632 439.135 237.208C438.919 237.508 438.643 237.796 438.319 238.096C437.659 238.684 437.191 238.996 436.507 239.428L435.583 240.004H440.227V241H433.687V240.184L435.511 238.972C435.835 238.768 436.063 238.612 436.195 238.516C436.327 238.432 436.543 238.276 436.831 238.072C437.119 237.868 437.335 237.688 437.479 237.556C437.611 237.424 437.791 237.256 437.995 237.04C438.547 236.44 438.751 235.888 438.811 235.132C438.811 234.04 438.103 233.548 437.059 233.548C436.411 233.548 435.895 233.728 435.523 234.088C435.151 234.448 434.899 234.88 434.791 235.372ZM441.887 235.048L440.987 234.64C441.431 233.344 442.595 232.492 444.335 232.492C445.163 232.492 445.847 232.684 446.375 233.068C446.903 233.452 447.167 233.968 447.167 234.604C447.167 235.576 446.651 236.296 445.691 236.572C446.615 236.632 447.359 237.328 447.359 238.576C447.359 239.368 447.071 239.992 446.495 240.436C445.919 240.88 445.187 241.108 444.287 241.108C442.451 241.108 441.179 240.232 440.759 238.852L441.731 238.432C442.247 239.524 443.123 240.076 444.359 240.076C445.523 240.076 446.255 239.536 446.255 238.588C446.255 237.664 445.535 237.196 444.095 237.196H443.159V236.2H443.903C445.211 236.2 446.063 235.612 446.063 234.808C446.063 233.98 445.379 233.512 444.287 233.512C443.003 233.512 442.223 234.172 441.887 235.048Z" fill="#1A3341" fill-opacity="0.6"/>
<path d="M405 116C405 114.895 405.895 114 407 114H459C460.105 114 461 114.895 461 116V226H405V116Z" fill="url(#paint6_linear_6004_39834)"/>
<path opacity="0.2" d="M417 114H449V226H417V114Z" fill="url(#paint7_linear_6004_39834)"/>
<path opacity="0.04" d="M449 114H459C460.105 114 461 114.895 461 116V226H449V114Z" fill="#0D262C"/>
<path opacity="0.5" d="M405 116C405 114.895 405.895 114 407 114H417V226H405V116Z" fill="url(#paint8_linear_6004_39834)"/>
<path d="M233.927 166.354C234.122 166.158 234.122 165.842 233.927 165.646L230.745 162.464C230.55 162.269 230.233 162.269 230.038 162.464C229.843 162.66 229.843 162.976 230.038 163.172L232.867 166L230.038 168.828C229.843 169.024 229.843 169.34 230.038 169.536C230.233 169.731 230.55 169.731 230.745 169.536L233.927 166.354ZM182.18 166.5L233.574 166.5L233.574 165.5L182.18 165.5L182.18 166.5Z" fill="#7DA4C1"/>
<path d="M196.308 153.136H190.74V152.236H196.308V153.136ZM203.258 157H197.846V156.004H200.402V149.836L198.254 150.832L197.87 149.932L200.75 148.552H201.434V156.004H203.258V157ZM210.454 157H205.042V156.004H207.598V149.836L205.45 150.832L205.066 149.932L207.946 148.552H208.63V156.004H210.454V157ZM213.977 157.18L213.185 156.724L219.389 148.336L220.145 148.888L213.977 157.18ZM211.889 150.616C211.889 150.016 212.093 149.524 212.513 149.14C212.933 148.756 213.449 148.564 214.085 148.564C214.709 148.564 215.225 148.756 215.645 149.14C216.065 149.524 216.269 150.016 216.269 150.616C216.269 151.204 216.065 151.696 215.645 152.08C215.225 152.464 214.709 152.656 214.085 152.656C213.449 152.656 212.933 152.464 212.513 152.08C212.093 151.696 211.889 151.204 211.889 150.616ZM212.897 150.616C212.897 151.3 213.449 151.804 214.085 151.804C214.745 151.804 215.261 151.324 215.261 150.616C215.261 149.908 214.721 149.428 214.085 149.428C213.425 149.428 212.897 149.908 212.897 150.616ZM217.661 156.472C217.241 156.088 217.037 155.596 217.037 154.996C217.037 154.396 217.241 153.904 217.661 153.52C218.081 153.148 218.597 152.956 219.233 152.956C219.857 152.956 220.373 153.148 220.793 153.52C221.213 153.904 221.417 154.396 221.417 154.996C221.417 155.584 221.213 156.076 220.793 156.46C220.373 156.856 219.857 157.048 219.233 157.048C218.597 157.048 218.081 156.856 217.661 156.472ZM218.045 154.996C218.045 155.68 218.597 156.184 219.233 156.184C219.893 156.184 220.409 155.704 220.409 154.996C220.409 154.288 219.869 153.808 219.233 153.808C218.573 153.808 218.045 154.288 218.045 154.996Z" fill="#7DA4C1"/>
<path d="M383.927 166.354C384.122 166.158 384.122 165.842 383.927 165.646L380.745 162.464C380.55 162.269 380.233 162.269 380.038 162.464C379.843 162.66 379.843 162.976 380.038 163.172L382.867 166L380.038 168.828C379.843 169.024 379.843 169.34 380.038 169.536C380.233 169.731 380.55 169.731 380.745 169.536L383.927 166.354ZM332.18 166.5L383.574 166.5L383.574 165.5L332.18 165.5L332.18 166.5Z" fill="#318F73"/>
<path d="M341.734 153.136H339.466V152.224H341.734V149.944H342.682V152.224H344.974V153.136H342.682V155.44H341.734V153.136ZM346.231 153.028C346.231 151.576 346.555 150.448 347.203 149.668C347.851 148.888 348.691 148.492 349.723 148.492C351.043 148.492 351.955 149.044 352.459 150.136L351.643 150.688C351.151 149.908 350.635 149.524 349.675 149.524C348.223 149.524 347.287 150.712 347.299 152.788C347.803 151.852 348.643 151.384 349.819 151.384C351.739 151.384 352.747 152.464 352.747 154.192C352.747 155.056 352.459 155.752 351.883 156.292C351.295 156.832 350.563 157.108 349.663 157.108C347.551 157.108 346.231 155.62 346.231 153.028ZM347.431 154.048C347.695 155.404 348.439 156.076 349.651 156.076C350.911 156.076 351.643 155.356 351.643 154.24C351.643 153.028 351.019 152.416 349.759 152.416C348.367 152.416 347.611 153.172 347.431 154.048ZM354.291 157C353.847 157.048 353.511 156.796 353.511 156.364C353.511 155.944 353.775 155.68 354.243 155.68C354.771 155.68 355.119 156.04 355.119 156.712C355.119 157.912 354.459 158.524 353.583 158.728L353.331 158.164C353.595 158.092 353.835 157.948 354.051 157.72C354.255 157.492 354.339 157.252 354.291 157ZM357.072 151.372L356.196 151.06C356.496 149.56 357.576 148.504 359.352 148.504C361.08 148.504 362.076 149.5 362.076 151.024C362.04 152.284 361.452 153.28 360.564 154.084C359.94 154.672 359.448 155.008 358.788 155.428L357.864 156.004H362.388V157H356.088V156.184L357.792 154.972C358.788 154.264 359.436 153.772 359.736 153.496C360.564 152.74 360.972 151.948 360.972 151.132C360.972 150.028 360.3 149.548 359.28 149.548C357.984 149.548 357.312 150.364 357.072 151.372ZM365.395 157.18L364.603 156.724L370.807 148.336L371.563 148.888L365.395 157.18ZM363.307 150.616C363.307 150.016 363.511 149.524 363.931 149.14C364.351 148.756 364.867 148.564 365.503 148.564C366.127 148.564 366.643 148.756 367.063 149.14C367.483 149.524 367.687 150.016 367.687 150.616C367.687 151.204 367.483 151.696 367.063 152.08C366.643 152.464 366.127 152.656 365.503 152.656C364.867 152.656 364.351 152.464 363.931 152.08C363.511 151.696 363.307 151.204 363.307 150.616ZM364.315 150.616C364.315 151.3 364.867 151.804 365.503 151.804C366.163 151.804 366.679 151.324 366.679 150.616C366.679 149.908 366.139 149.428 365.503 149.428C364.843 149.428 364.315 149.908 364.315 150.616ZM369.079 156.472C368.659 156.088 368.455 155.596 368.455 154.996C368.455 154.396 368.659 153.904 369.079 153.52C369.499 153.148 370.015 152.956 370.651 152.956C371.275 152.956 371.791 153.148 372.211 153.52C372.631 153.904 372.835 154.396 372.835 154.996C372.835 155.584 372.631 156.076 372.211 156.46C371.791 156.856 371.275 157.048 370.651 157.048C370.015 157.048 369.499 156.856 369.079 156.472ZM369.463 154.996C369.463 155.68 370.015 156.184 370.651 156.184C371.311 156.184 371.827 155.704 371.827 154.996C371.827 154.288 371.287 153.808 370.651 153.808C369.991 153.808 369.463 154.288 369.463 154.996Z" fill="#318F73"/>
<line y1="225.5" x2="543" y2="225.5" stroke="#ABBEC9"/>
<path d="M130.5 43L285 35.5L435 23" stroke="url(#paint9_linear_6004_39834)" stroke-width="5"/>
<circle cx="433" cy="23" r="7" fill="#64BBEA" stroke="white" stroke-width="2"/>
<circle cx="285" cy="35" r="7" fill="#64BBEA" stroke="white" stroke-width="2"/>
<circle cx="131" cy="43" r="7" fill="#64BBEA" stroke="white" stroke-width="2"/>
<path d="M122.243 31H117.733V30.17H119.863V25.03L118.073 25.86L117.753 25.11L120.153 23.96H120.723V30.17H122.243V31ZM123.329 27.5C123.329 26.42 123.559 25.55 124.009 24.9C124.459 24.25 125.119 23.92 125.999 23.92C127.789 23.92 128.679 25.23 128.679 27.5C128.679 28.59 128.459 29.45 128.009 30.1C127.559 30.75 126.899 31.08 126.019 31.08C125.169 31.08 124.509 30.75 124.039 30.09C123.569 29.43 123.329 28.57 123.329 27.5ZM124.249 27.5C124.249 29.19 124.909 30.23 126.019 30.23C127.179 30.23 127.759 29.32 127.759 27.5C127.759 25.68 127.169 24.77 125.999 24.77C124.829 24.77 124.249 25.68 124.249 27.5ZM130.105 31C129.735 31.04 129.455 30.83 129.455 30.47C129.455 30.12 129.675 29.9 130.065 29.9C130.505 29.9 130.795 30.2 130.795 30.76C130.795 31.76 130.245 32.27 129.515 32.44L129.305 31.97C129.525 31.91 129.725 31.79 129.905 31.6C130.075 31.41 130.145 31.21 130.105 31ZM131.572 27.69C131.572 26.48 131.842 25.54 132.382 24.89C132.922 24.24 133.622 23.91 134.482 23.91C135.582 23.91 136.342 24.37 136.762 25.28L136.082 25.74C135.672 25.09 135.242 24.77 134.442 24.77C133.232 24.77 132.452 25.76 132.462 27.49C132.882 26.71 133.582 26.32 134.562 26.32C136.162 26.32 137.002 27.22 137.002 28.66C137.002 29.38 136.762 29.96 136.282 30.41C135.792 30.86 135.182 31.09 134.432 31.09C132.672 31.09 131.572 29.85 131.572 27.69ZM132.572 28.54C132.792 29.67 133.412 30.23 134.422 30.23C135.472 30.23 136.082 29.63 136.082 28.7C136.082 27.69 135.562 27.18 134.512 27.18C133.352 27.18 132.722 27.81 132.572 28.54ZM139.358 31.15L138.698 30.77L143.868 23.78L144.498 24.24L139.358 31.15ZM137.618 25.68C137.618 25.18 137.788 24.77 138.138 24.45C138.488 24.13 138.918 23.97 139.448 23.97C139.968 23.97 140.398 24.13 140.748 24.45C141.098 24.77 141.268 25.18 141.268 25.68C141.268 26.17 141.098 26.58 140.748 26.9C140.398 27.22 139.968 27.38 139.448 27.38C138.918 27.38 138.488 27.22 138.138 26.9C137.788 26.58 137.618 26.17 137.618 25.68ZM138.458 25.68C138.458 26.25 138.918 26.67 139.448 26.67C139.998 26.67 140.428 26.27 140.428 25.68C140.428 25.09 139.978 24.69 139.448 24.69C138.898 24.69 138.458 25.09 138.458 25.68ZM142.428 30.56C142.078 30.24 141.908 29.83 141.908 29.33C141.908 28.83 142.078 28.42 142.428 28.1C142.778 27.79 143.208 27.63 143.738 27.63C144.258 27.63 144.688 27.79 145.038 28.1C145.388 28.42 145.558 28.83 145.558 29.33C145.558 29.82 145.388 30.23 145.038 30.55C144.688 30.88 144.258 31.04 143.738 31.04C143.208 31.04 142.778 30.88 142.428 30.56ZM142.748 29.33C142.748 29.9 143.208 30.32 143.738 30.32C144.288 30.32 144.718 29.92 144.718 29.33C144.718 28.74 144.268 28.34 143.738 28.34C143.188 28.34 142.748 28.74 142.748 29.33Z" fill="#357D94"/>
<path d="M275.743 23H271.233V22.17H273.363V17.03L271.573 17.86L271.253 17.11L273.653 15.96H274.223V22.17H275.743V23ZM281.739 23H277.229V22.17H279.359V17.03L277.569 17.86L277.249 17.11L279.649 15.96H280.219V22.17H281.739V23ZM283.605 23C283.235 23.04 282.955 22.83 282.955 22.47C282.955 22.12 283.175 21.9 283.565 21.9C284.005 21.9 284.295 22.2 284.295 22.76C284.295 23.76 283.745 24.27 283.015 24.44L282.805 23.97C283.025 23.91 283.225 23.79 283.405 23.6C283.575 23.41 283.645 23.21 283.605 23ZM285.012 19.5C285.012 18.42 285.242 17.55 285.692 16.9C286.142 16.25 286.802 15.92 287.682 15.92C289.472 15.92 290.362 17.23 290.362 19.5C290.362 20.59 290.142 21.45 289.692 22.1C289.242 22.75 288.582 23.08 287.702 23.08C286.852 23.08 286.192 22.75 285.722 22.09C285.252 21.43 285.012 20.57 285.012 19.5ZM285.932 19.5C285.932 21.19 286.592 22.23 287.702 22.23C288.862 22.23 289.442 21.32 289.442 19.5C289.442 17.68 288.852 16.77 287.682 16.77C286.512 16.77 285.932 17.68 285.932 19.5ZM292.858 23.15L292.198 22.77L297.368 15.78L297.998 16.24L292.858 23.15ZM291.118 17.68C291.118 17.18 291.288 16.77 291.638 16.45C291.988 16.13 292.418 15.97 292.948 15.97C293.468 15.97 293.898 16.13 294.248 16.45C294.598 16.77 294.768 17.18 294.768 17.68C294.768 18.17 294.598 18.58 294.248 18.9C293.898 19.22 293.468 19.38 292.948 19.38C292.418 19.38 291.988 19.22 291.638 18.9C291.288 18.58 291.118 18.17 291.118 17.68ZM291.958 17.68C291.958 18.25 292.418 18.67 292.948 18.67C293.498 18.67 293.928 18.27 293.928 17.68C293.928 17.09 293.478 16.69 292.948 16.69C292.398 16.69 291.958 17.09 291.958 17.68ZM295.928 22.56C295.578 22.24 295.408 21.83 295.408 21.33C295.408 20.83 295.578 20.42 295.928 20.1C296.278 19.79 296.708 19.63 297.238 19.63C297.758 19.63 298.188 19.79 298.538 20.1C298.888 20.42 299.058 20.83 299.058 21.33C299.058 21.82 298.888 22.23 298.538 22.55C298.188 22.88 297.758 23.04 297.238 23.04C296.708 23.04 296.278 22.88 295.928 22.56ZM296.248 21.33C296.248 21.9 296.708 22.32 297.238 22.32C297.788 22.32 298.218 21.92 298.218 21.33C298.218 20.74 297.768 20.34 297.238 20.34C296.688 20.34 296.248 20.74 296.248 21.33Z" fill="#357D94"/>
<path d="M425.743 10H421.233V9.17H423.363V4.03L421.573 4.86L421.253 4.11L423.653 2.96H424.223V9.17H425.743V10ZM431.739 10H427.229V9.17H429.359V4.03L427.569 4.86L427.249 4.11L429.649 2.96H430.219V9.17H431.739V10ZM433.605 10C433.235 10.04 432.955 9.83 432.955 9.47C432.955 9.12 433.175 8.9 433.565 8.9C434.005 8.9 434.295 9.2 434.295 9.76C434.295 10.76 433.745 11.27 433.015 11.44L432.805 10.97C433.025 10.91 433.225 10.79 433.405 10.6C433.575 10.41 433.645 10.21 433.605 10ZM439.262 3.85H435.022V3H440.332V3.57L436.852 10H435.902L439.262 3.85ZM442.858 10.15L442.198 9.77L447.368 2.78L447.998 3.24L442.858 10.15ZM441.118 4.68C441.118 4.18 441.288 3.77 441.638 3.45C441.988 3.13 442.418 2.97 442.948 2.97C443.468 2.97 443.898 3.13 444.248 3.45C444.598 3.77 444.768 4.18 444.768 4.68C444.768 5.17 444.598 5.58 444.248 5.9C443.898 6.22 443.468 6.38 442.948 6.38C442.418 6.38 441.988 6.22 441.638 5.9C441.288 5.58 441.118 5.17 441.118 4.68ZM441.958 4.68C441.958 5.25 442.418 5.67 442.948 5.67C443.498 5.67 443.928 5.27 443.928 4.68C443.928 4.09 443.478 3.69 442.948 3.69C442.398 3.69 441.958 4.09 441.958 4.68ZM445.928 9.56C445.578 9.24 445.408 8.83 445.408 8.33C445.408 7.83 445.578 7.42 445.928 7.1C446.278 6.79 446.708 6.63 447.238 6.63C447.758 6.63 448.188 6.79 448.538 7.1C448.888 7.42 449.058 7.83 449.058 8.33C449.058 8.82 448.888 9.23 448.538 9.55C448.188 9.88 447.758 10.04 447.238 10.04C446.708 10.04 446.278 9.88 445.928 9.56ZM446.248 8.33C446.248 8.9 446.708 9.32 447.238 9.32C447.788 9.32 448.218 8.92 448.218 8.33C448.218 7.74 447.768 7.34 447.238 7.34C446.688 7.34 446.248 7.74 446.248 8.33Z" fill="#357D94"/>
<defs>
<linearGradient id="paint0_linear_6004_39834" x1="133" y1="93" x2="133" y2="226" gradientUnits="userSpaceOnUse">
<stop stop-color="#45B8DB"/>
<stop offset="1" stop-color="#ADE4E4"/>
</linearGradient>
<linearGradient id="paint1_linear_6004_39834" x1="133" y1="93" x2="133" y2="226" gradientUnits="userSpaceOnUse">
<stop stop-color="white" stop-opacity="0"/>
<stop offset="0.739583" stop-color="white"/>
</linearGradient>
<linearGradient id="paint2_linear_6004_39834" x1="111" y1="-166.35" x2="111" y2="226" gradientUnits="userSpaceOnUse">
<stop stop-color="white" stop-opacity="0.05"/>
<stop offset="0.75" stop-color="white" stop-opacity="0.8"/>
</linearGradient>
<linearGradient id="paint3_linear_6004_39834" x1="283" y1="144" x2="283" y2="226" gradientUnits="userSpaceOnUse">
<stop stop-color="#45B8DB"/>
<stop offset="1" stop-color="#ADE4E4"/>
</linearGradient>
<linearGradient id="paint4_linear_6004_39834" x1="283" y1="144" x2="283" y2="226" gradientUnits="userSpaceOnUse">
<stop stop-color="white" stop-opacity="0"/>
<stop offset="0.739583" stop-color="white"/>
</linearGradient>
<linearGradient id="paint5_linear_6004_39834" x1="261" y1="-15.9" x2="261" y2="226" gradientUnits="userSpaceOnUse">
<stop stop-color="white" stop-opacity="0.05"/>
<stop offset="0.75" stop-color="white" stop-opacity="0.8"/>
</linearGradient>
<linearGradient id="paint6_linear_6004_39834" x1="433" y1="114" x2="433" y2="226" gradientUnits="userSpaceOnUse">
<stop stop-color="#45B8DB"/>
<stop offset="1" stop-color="#ADE4E4"/>
</linearGradient>
<linearGradient id="paint7_linear_6004_39834" x1="433" y1="114" x2="433" y2="226" gradientUnits="userSpaceOnUse">
<stop stop-color="white" stop-opacity="0"/>
<stop offset="0.739583" stop-color="white"/>
</linearGradient>
<linearGradient id="paint8_linear_6004_39834" x1="411" y1="-104.4" x2="411" y2="226" gradientUnits="userSpaceOnUse">
<stop stop-color="white" stop-opacity="0.05"/>
<stop offset="0.75" stop-color="white" stop-opacity="0.8"/>
</linearGradient>
<linearGradient id="paint9_linear_6004_39834" x1="435" y1="23" x2="130.5" y2="23" gradientUnits="userSpaceOnUse">
<stop stop-color="#56BCF6"/>
<stop offset="1" stop-color="#A2DEE7"/>
</linearGradient>
</defs>
</svg>
