<svg width="545" height="243" viewBox="0 0 545 243" fill="none" xmlns="http://www.w3.org/2000/svg">
<path d="M115.14 89.366C115.14 87.672 115.56 86.37 116.386 85.446C117.212 84.536 118.248 84.074 119.494 84.074C121.132 84.074 122.42 84.816 122.966 85.992L122.014 86.636C121.44 85.726 120.586 85.278 119.438 85.278C118.57 85.278 117.842 85.614 117.254 86.286C116.666 86.972 116.372 87.896 116.386 89.086C116.932 88.064 118.206 87.448 119.606 87.448C120.74 87.448 121.65 87.742 122.308 88.344C122.966 88.946 123.302 89.744 123.302 90.724C123.302 91.718 122.938 92.544 122.196 93.174C121.454 93.804 120.53 94.126 119.424 94.126C116.778 94.126 115.14 92.404 115.14 89.366ZM116.54 90.556C116.806 91.942 117.856 92.922 119.41 92.922C120.166 92.922 120.796 92.726 121.286 92.32C121.776 91.928 122.014 91.41 122.014 90.78C122.014 89.394 121.034 88.652 119.536 88.652C118.71 88.652 118.024 88.848 117.492 89.24C116.946 89.632 116.638 90.066 116.54 90.556ZM133.982 85.39H128.046V84.2H135.48V84.998L130.608 94H129.278L133.982 85.39ZM144.374 88.918C144.374 90.584 143.982 91.872 143.184 92.768C142.386 93.678 141.322 94.126 139.992 94.126C138.368 94.126 137.094 93.44 136.464 92.39L137.472 91.69C138.032 92.474 139.054 92.922 140.16 92.922C141.07 92.922 141.798 92.558 142.372 91.83C142.946 91.116 143.184 90.22 143.114 89.156C142.652 90.22 141.49 91.004 139.936 91.004C138.844 91.004 137.948 90.696 137.248 90.066C136.534 89.45 136.184 88.638 136.184 87.644C136.184 86.552 136.562 85.684 137.318 85.04C138.074 84.396 139.082 84.074 140.328 84.074C142.848 84.074 144.374 85.838 144.374 88.918ZM142.904 87.602C142.694 86.3 141.798 85.278 140.188 85.278C138.508 85.278 137.472 86.146 137.472 87.602C137.472 88.988 138.522 89.8 140.16 89.8C140.902 89.8 141.532 89.576 142.022 89.128C142.512 88.68 142.806 88.176 142.904 87.602ZM146.39 87.056L145.34 86.58C145.858 85.068 147.216 84.074 149.246 84.074C150.212 84.074 151.01 84.298 151.626 84.746C152.242 85.194 152.55 85.796 152.55 86.538C152.55 87.672 151.948 88.512 150.828 88.834C151.906 88.904 152.774 89.716 152.774 91.172C152.774 92.096 152.438 92.824 151.766 93.342C151.094 93.86 150.24 94.126 149.19 94.126C147.048 94.126 145.564 93.104 145.074 91.494L146.208 91.004C146.81 92.278 147.832 92.922 149.274 92.922C150.632 92.922 151.486 92.292 151.486 91.186C151.486 90.108 150.646 89.562 148.966 89.562H147.874V88.4H148.742C150.268 88.4 151.262 87.714 151.262 86.776C151.262 85.81 150.464 85.264 149.19 85.264C147.692 85.264 146.782 86.034 146.39 87.056Z" fill="#1A3341"/>
<path d="M121.863 235.372L120.987 235.06C121.287 233.572 122.415 232.504 124.203 232.504C125.931 232.504 126.987 233.5 126.987 235.024C126.987 235.828 126.639 236.632 126.207 237.208C125.991 237.508 125.715 237.796 125.391 238.096C124.731 238.684 124.263 238.996 123.579 239.428L122.655 240.004H127.299V241H120.759V240.184L122.583 238.972C122.907 238.768 123.135 238.612 123.267 238.516C123.399 238.432 123.615 238.276 123.903 238.072C124.191 237.868 124.407 237.688 124.551 237.556C124.683 237.424 124.863 237.256 125.067 237.04C125.619 236.44 125.823 235.888 125.883 235.132C125.883 234.04 125.175 233.548 124.131 233.548C123.483 233.548 122.967 233.728 122.595 234.088C122.223 234.448 121.971 234.88 121.863 235.372ZM128.131 236.8C128.131 235.504 128.431 234.46 129.043 233.68C129.643 232.9 130.531 232.504 131.695 232.504C134.083 232.504 135.271 234.076 135.271 236.8C135.271 238.108 134.971 239.14 134.383 239.92C133.783 240.7 132.895 241.096 131.719 241.096C130.591 241.096 129.715 240.7 129.079 239.908C128.443 239.116 128.131 238.084 128.131 236.8ZM129.235 236.8C129.235 238.852 130.171 240.076 131.719 240.076C133.351 240.076 134.167 238.984 134.167 236.8C134.167 234.616 133.339 233.524 131.695 233.524C130.027 233.524 129.235 234.724 129.235 236.8ZM137.127 235.372L136.251 235.06C136.551 233.572 137.679 232.504 139.467 232.504C141.195 232.504 142.251 233.5 142.251 235.024C142.251 235.828 141.903 236.632 141.471 237.208C141.255 237.508 140.979 237.796 140.655 238.096C139.995 238.684 139.527 238.996 138.843 239.428L137.919 240.004H142.563V241H136.023V240.184L137.847 238.972C138.171 238.768 138.399 238.612 138.531 238.516C138.663 238.432 138.879 238.276 139.167 238.072C139.455 237.868 139.671 237.688 139.815 237.556C139.947 237.424 140.127 237.256 140.331 237.04C140.883 236.44 141.087 235.888 141.147 235.132C141.147 234.04 140.439 233.548 139.395 233.548C138.747 233.548 138.231 233.728 137.859 234.088C137.487 234.448 137.235 234.88 137.127 235.372ZM143.299 234.832L142.915 233.932L145.795 232.552H146.479V241H145.447V233.836L143.299 234.832Z" fill="#1A3341" fill-opacity="0.6"/>
<path d="M106 106C106 104.895 106.895 104 108 104H160C161.105 104 162 104.895 162 106V226H106V106Z" fill="url(#paint0_linear_6004_39829)"/>
<path opacity="0.2" d="M118 104H150V226H118V104Z" fill="url(#paint1_linear_6004_39829)"/>
<path opacity="0.04" d="M150 104H160C161.105 104 162 104.895 162 106V226H150V104Z" fill="#0D262C"/>
<path opacity="0.5" d="M106 106C106 104.895 106.895 104 108 104H118V226H106V106Z" fill="url(#paint2_linear_6004_39829)"/>
<path d="M266.008 103.366C266.008 101.672 266.428 100.37 267.254 99.446C268.08 98.536 269.116 98.074 270.362 98.074C272 98.074 273.288 98.816 273.834 99.992L272.882 100.636C272.308 99.726 271.454 99.278 270.306 99.278C269.438 99.278 268.71 99.614 268.122 100.286C267.534 100.972 267.24 101.896 267.254 103.086C267.8 102.064 269.074 101.448 270.474 101.448C271.608 101.448 272.518 101.742 273.176 102.344C273.834 102.946 274.17 103.744 274.17 104.724C274.17 105.718 273.806 106.544 273.064 107.174C272.322 107.804 271.398 108.126 270.292 108.126C267.646 108.126 266.008 106.404 266.008 103.366ZM267.408 104.556C267.674 105.942 268.724 106.922 270.278 106.922C271.034 106.922 271.664 106.726 272.154 106.32C272.644 105.928 272.882 105.41 272.882 104.78C272.882 103.394 271.902 102.652 270.404 102.652C269.578 102.652 268.892 102.848 268.36 103.24C267.814 103.632 267.506 104.066 267.408 104.556ZM285.998 108H284.78V105.998H278.788V105.186L284.92 98.2H285.998V104.864H287.818V105.998H285.998V108ZM284.78 100.16L280.468 104.864H284.78V100.16ZM288.502 103.366C288.502 101.672 288.922 100.37 289.748 99.446C290.574 98.536 291.61 98.074 292.856 98.074C294.494 98.074 295.782 98.816 296.328 99.992L295.376 100.636C294.802 99.726 293.948 99.278 292.8 99.278C291.932 99.278 291.204 99.614 290.616 100.286C290.028 100.972 289.734 101.896 289.748 103.086C290.294 102.064 291.568 101.448 292.968 101.448C294.102 101.448 295.012 101.742 295.67 102.344C296.328 102.946 296.664 103.744 296.664 104.724C296.664 105.718 296.3 106.544 295.558 107.174C294.816 107.804 293.892 108.126 292.786 108.126C290.14 108.126 288.502 106.404 288.502 103.366ZM289.902 104.556C290.168 105.942 291.218 106.922 292.772 106.922C293.528 106.922 294.158 106.726 294.648 106.32C295.138 105.928 295.376 105.41 295.376 104.78C295.376 103.394 294.396 102.652 292.898 102.652C292.072 102.652 291.386 102.848 290.854 103.24C290.308 103.632 290 104.066 289.902 104.556ZM297.561 100.804L297.113 99.754L300.473 98.144H301.271V108H300.067V99.642L297.561 100.804Z" fill="#1A3341"/>
<path d="M270.556 236.372L269.68 236.06C269.98 234.572 271.108 233.504 272.896 233.504C274.624 233.504 275.68 234.5 275.68 236.024C275.68 236.828 275.332 237.632 274.9 238.208C274.684 238.508 274.408 238.796 274.084 239.096C273.424 239.684 272.956 239.996 272.272 240.428L271.348 241.004H275.992V242H269.452V241.184L271.276 239.972C271.6 239.768 271.828 239.612 271.96 239.516C272.092 239.432 272.308 239.276 272.596 239.072C272.884 238.868 273.1 238.688 273.244 238.556C273.376 238.424 273.556 238.256 273.76 238.04C274.312 237.44 274.516 236.888 274.576 236.132C274.576 235.04 273.868 234.548 272.824 234.548C272.176 234.548 271.66 234.728 271.288 235.088C270.916 235.448 270.664 235.88 270.556 236.372ZM276.824 237.8C276.824 236.504 277.124 235.46 277.736 234.68C278.336 233.9 279.224 233.504 280.388 233.504C282.776 233.504 283.964 235.076 283.964 237.8C283.964 239.108 283.664 240.14 283.076 240.92C282.476 241.7 281.588 242.096 280.412 242.096C279.284 242.096 278.408 241.7 277.772 240.908C277.136 240.116 276.824 239.084 276.824 237.8ZM277.928 237.8C277.928 239.852 278.864 241.076 280.412 241.076C282.044 241.076 282.86 239.984 282.86 237.8C282.86 235.616 282.032 234.524 280.388 234.524C278.72 234.524 277.928 235.724 277.928 237.8ZM285.82 236.372L284.944 236.06C285.244 234.572 286.372 233.504 288.16 233.504C289.888 233.504 290.944 234.5 290.944 236.024C290.944 236.828 290.596 237.632 290.164 238.208C289.948 238.508 289.672 238.796 289.348 239.096C288.688 239.684 288.22 239.996 287.536 240.428L286.612 241.004H291.256V242H284.716V241.184L286.54 239.972C286.864 239.768 287.092 239.612 287.224 239.516C287.356 239.432 287.572 239.276 287.86 239.072C288.148 238.868 288.364 238.688 288.508 238.556C288.64 238.424 288.82 238.256 289.024 238.04C289.576 237.44 289.78 236.888 289.84 236.132C289.84 235.04 289.132 234.548 288.088 234.548C287.44 234.548 286.924 234.728 286.552 235.088C286.18 235.448 285.928 235.88 285.82 236.372ZM293.048 236.372L292.172 236.06C292.472 234.572 293.6 233.504 295.388 233.504C297.116 233.504 298.172 234.5 298.172 236.024C298.172 236.828 297.824 237.632 297.392 238.208C297.176 238.508 296.9 238.796 296.576 239.096C295.916 239.684 295.448 239.996 294.764 240.428L293.84 241.004H298.484V242H291.944V241.184L293.768 239.972C294.092 239.768 294.32 239.612 294.452 239.516C294.584 239.432 294.8 239.276 295.088 239.072C295.376 238.868 295.592 238.688 295.736 238.556C295.868 238.424 296.048 238.256 296.252 238.04C296.804 237.44 297.008 236.888 297.068 236.132C297.068 235.04 296.36 234.548 295.316 234.548C294.668 234.548 294.152 234.728 293.78 235.088C293.408 235.448 293.156 235.88 293.048 236.372Z" fill="#1A3341" fill-opacity="0.6"/>
<path d="M256 120C256 118.895 256.895 118 258 118H310C311.105 118 312 118.895 312 120V227H256V120Z" fill="url(#paint3_linear_6004_39829)"/>
<path opacity="0.2" d="M268 118H300V227H268V118Z" fill="url(#paint4_linear_6004_39829)"/>
<path opacity="0.04" d="M300 118H310C311.105 118 312 118.895 312 120V227H300V118Z" fill="#0D262C"/>
<path opacity="0.5" d="M256 120C256 118.895 256.895 118 258 118H268V227H256V120Z" fill="url(#paint5_linear_6004_39829)"/>
<path d="M414.265 109.366C414.265 107.672 414.685 106.37 415.511 105.446C416.337 104.536 417.373 104.074 418.619 104.074C420.257 104.074 421.545 104.816 422.091 105.992L421.139 106.636C420.565 105.726 419.711 105.278 418.563 105.278C417.695 105.278 416.967 105.614 416.379 106.286C415.791 106.972 415.497 107.896 415.511 109.086C416.057 108.064 417.331 107.448 418.731 107.448C419.865 107.448 420.775 107.742 421.433 108.344C422.091 108.946 422.427 109.744 422.427 110.724C422.427 111.718 422.063 112.544 421.321 113.174C420.579 113.804 419.655 114.126 418.549 114.126C415.903 114.126 414.265 112.404 414.265 109.366ZM415.665 110.556C415.931 111.942 416.981 112.922 418.535 112.922C419.291 112.922 419.921 112.726 420.411 112.32C420.901 111.928 421.139 111.41 421.139 110.78C421.139 109.394 420.159 108.652 418.661 108.652C417.835 108.652 417.149 108.848 416.617 109.24C416.071 109.632 415.763 110.066 415.665 110.556ZM434.255 114H433.037V111.998H427.045V111.186L433.177 104.2H434.255V110.864H436.075V111.998H434.255V114ZM433.037 106.16L428.725 110.864H433.037V106.16ZM438.187 109.492L437.179 109.226L437.753 104.2H443.913V105.39H438.831L438.467 108.022C438.957 107.658 439.699 107.476 440.693 107.476C441.841 107.476 442.737 107.784 443.395 108.386C444.039 109.002 444.361 109.786 444.361 110.752C444.361 111.718 443.997 112.53 443.283 113.16C442.555 113.804 441.645 114.126 440.567 114.126C438.733 114.126 437.207 113.258 436.577 111.732L437.697 111.256C438.103 112.194 439.153 112.936 440.567 112.936C442.177 112.936 443.073 112.012 443.073 110.794C443.073 109.492 442.023 108.652 440.357 108.652C439.461 108.652 438.733 108.932 438.187 109.492ZM445.424 109.1C445.424 107.588 445.774 106.37 446.488 105.46C447.188 104.55 448.224 104.088 449.582 104.088C452.368 104.088 453.754 105.922 453.754 109.1C453.754 110.626 453.404 111.83 452.718 112.74C452.018 113.65 450.982 114.112 449.61 114.112C448.294 114.112 447.272 113.65 446.53 112.726C445.788 111.802 445.424 110.598 445.424 109.1ZM446.712 109.1C446.712 111.494 447.804 112.922 449.61 112.922C451.514 112.922 452.466 111.648 452.466 109.1C452.466 106.552 451.5 105.278 449.582 105.278C447.636 105.278 446.712 106.678 446.712 109.1Z" fill="#1A3341"/>
<path d="M420.527 236.372L419.651 236.06C419.951 234.572 421.079 233.504 422.867 233.504C424.595 233.504 425.651 234.5 425.651 236.024C425.651 236.828 425.303 237.632 424.871 238.208C424.655 238.508 424.379 238.796 424.055 239.096C423.395 239.684 422.927 239.996 422.243 240.428L421.319 241.004H425.963V242H419.423V241.184L421.247 239.972C421.571 239.768 421.799 239.612 421.931 239.516C422.063 239.432 422.279 239.276 422.567 239.072C422.855 238.868 423.071 238.688 423.215 238.556C423.347 238.424 423.527 238.256 423.731 238.04C424.283 237.44 424.487 236.888 424.547 236.132C424.547 235.04 423.839 234.548 422.795 234.548C422.147 234.548 421.631 234.728 421.259 235.088C420.887 235.448 420.635 235.88 420.527 236.372ZM426.795 237.8C426.795 236.504 427.095 235.46 427.707 234.68C428.307 233.9 429.195 233.504 430.359 233.504C432.747 233.504 433.935 235.076 433.935 237.8C433.935 239.108 433.635 240.14 433.047 240.92C432.447 241.7 431.559 242.096 430.383 242.096C429.255 242.096 428.379 241.7 427.743 240.908C427.107 240.116 426.795 239.084 426.795 237.8ZM427.899 237.8C427.899 239.852 428.835 241.076 430.383 241.076C432.015 241.076 432.831 239.984 432.831 237.8C432.831 235.616 432.003 234.524 430.359 234.524C428.691 234.524 427.899 235.724 427.899 237.8ZM435.791 236.372L434.915 236.06C435.215 234.572 436.343 233.504 438.131 233.504C439.859 233.504 440.915 234.5 440.915 236.024C440.915 236.828 440.567 237.632 440.135 238.208C439.919 238.508 439.643 238.796 439.319 239.096C438.659 239.684 438.191 239.996 437.507 240.428L436.583 241.004H441.227V242H434.687V241.184L436.511 239.972C436.835 239.768 437.063 239.612 437.195 239.516C437.327 239.432 437.543 239.276 437.831 239.072C438.119 238.868 438.335 238.688 438.479 238.556C438.611 238.424 438.791 238.256 438.995 238.04C439.547 237.44 439.751 236.888 439.811 236.132C439.811 235.04 439.103 234.548 438.059 234.548C437.411 234.548 436.895 234.728 436.523 235.088C436.151 235.448 435.899 235.88 435.791 236.372ZM442.887 236.048L441.987 235.64C442.431 234.344 443.595 233.492 445.335 233.492C446.163 233.492 446.847 233.684 447.375 234.068C447.903 234.452 448.167 234.968 448.167 235.604C448.167 236.576 447.651 237.296 446.691 237.572C447.615 237.632 448.359 238.328 448.359 239.576C448.359 240.368 448.071 240.992 447.495 241.436C446.919 241.88 446.187 242.108 445.287 242.108C443.451 242.108 442.179 241.232 441.759 239.852L442.731 239.432C443.247 240.524 444.123 241.076 445.359 241.076C446.523 241.076 447.255 240.536 447.255 239.588C447.255 238.664 446.535 238.196 445.095 238.196H444.159V237.2H444.903C446.211 237.2 447.063 236.612 447.063 235.808C447.063 234.98 446.379 234.512 445.287 234.512C444.003 234.512 443.223 235.172 442.887 236.048Z" fill="#1A3341" fill-opacity="0.6"/>
<path d="M406 126C406 124.895 406.895 124 408 124H460C461.105 124 462 124.895 462 126V227H406V126Z" fill="url(#paint6_linear_6004_39829)"/>
<path opacity="0.2" d="M418 124H450V227H418V124Z" fill="url(#paint7_linear_6004_39829)"/>
<path opacity="0.04" d="M450 124H460C461.105 124 462 124.895 462 126V227H450V124Z" fill="#0D262C"/>
<path opacity="0.5" d="M406 126C406 124.895 406.895 124 408 124H418V227H406V126Z" fill="url(#paint8_linear_6004_39829)"/>
<path d="M234.927 166.354C235.122 166.158 235.122 165.842 234.927 165.646L231.745 162.464C231.55 162.269 231.233 162.269 231.038 162.464C230.843 162.66 230.843 162.976 231.038 163.172L233.867 166L231.038 168.828C230.843 169.024 230.843 169.34 231.038 169.536C231.233 169.731 231.55 169.731 231.745 169.536L234.927 166.354ZM183.18 166.5L234.574 166.5L234.574 165.5L183.18 165.5L183.18 166.5Z" fill="#7DA4C1"/>
<path d="M200.906 153.136H195.338V152.236H200.906V153.136ZM203.32 153.136L202.456 152.908L202.948 148.6H208.228V149.62H203.872L203.56 151.876C203.98 151.564 204.616 151.408 205.468 151.408C206.452 151.408 207.22 151.672 207.784 152.188C208.336 152.716 208.612 153.388 208.612 154.216C208.612 155.044 208.3 155.74 207.688 156.28C207.064 156.832 206.284 157.108 205.36 157.108C203.788 157.108 202.48 156.364 201.94 155.056L202.9 154.648C203.248 155.452 204.148 156.088 205.36 156.088C206.74 156.088 207.508 155.296 207.508 154.252C207.508 153.136 206.608 152.416 205.18 152.416C204.412 152.416 203.788 152.656 203.32 153.136ZM211.379 157.18L210.587 156.724L216.791 148.336L217.547 148.888L211.379 157.18ZM209.291 150.616C209.291 150.016 209.495 149.524 209.915 149.14C210.335 148.756 210.851 148.564 211.487 148.564C212.111 148.564 212.627 148.756 213.047 149.14C213.467 149.524 213.671 150.016 213.671 150.616C213.671 151.204 213.467 151.696 213.047 152.08C212.627 152.464 212.111 152.656 211.487 152.656C210.851 152.656 210.335 152.464 209.915 152.08C209.495 151.696 209.291 151.204 209.291 150.616ZM210.299 150.616C210.299 151.3 210.851 151.804 211.487 151.804C212.147 151.804 212.663 151.324 212.663 150.616C212.663 149.908 212.123 149.428 211.487 149.428C210.827 149.428 210.299 149.908 210.299 150.616ZM215.063 156.472C214.643 156.088 214.439 155.596 214.439 154.996C214.439 154.396 214.643 153.904 215.063 153.52C215.483 153.148 215.999 152.956 216.635 152.956C217.259 152.956 217.775 153.148 218.195 153.52C218.615 153.904 218.819 154.396 218.819 154.996C218.819 155.584 218.615 156.076 218.195 156.46C217.775 156.856 217.259 157.048 216.635 157.048C215.999 157.048 215.483 156.856 215.063 156.472ZM215.447 154.996C215.447 155.68 215.999 156.184 216.635 156.184C217.295 156.184 217.811 155.704 217.811 154.996C217.811 154.288 217.271 153.808 216.635 153.808C215.975 153.808 215.447 154.288 215.447 154.996Z" fill="#7DA4C1"/>
<path d="M384.927 166.354C385.122 166.158 385.122 165.842 384.927 165.646L381.745 162.464C381.55 162.269 381.233 162.269 381.038 162.464C380.843 162.66 380.843 162.976 381.038 163.172L383.867 166L381.038 168.828C380.843 169.024 380.843 169.34 381.038 169.536C381.233 169.731 381.55 169.731 381.745 169.536L384.927 166.354ZM333.18 166.5L384.574 166.5L384.574 165.5L333.18 165.5L333.18 166.5Z" fill="#7DA4C1"/>
<path d="M345.996 153.136H340.428V152.236H345.996V153.136ZM347.054 152.8C347.054 151.504 347.33 150.46 347.87 149.68C348.41 148.9 349.202 148.504 350.258 148.504C352.406 148.504 353.474 150.076 353.474 152.8C353.474 154.108 353.21 155.14 352.67 155.92C352.13 156.7 351.338 157.096 350.282 157.096C349.262 157.096 348.47 156.7 347.906 155.908C347.342 155.116 347.054 154.084 347.054 152.8ZM348.158 152.8C348.158 154.828 348.95 156.076 350.282 156.076C351.674 156.076 352.37 154.984 352.37 152.8C352.37 150.616 351.662 149.524 350.258 149.524C348.854 149.524 348.158 150.616 348.158 152.8ZM355.185 157C354.741 157.048 354.405 156.796 354.405 156.364C354.405 155.944 354.669 155.68 355.137 155.68C355.665 155.68 356.013 156.04 356.013 156.712C356.013 157.912 355.353 158.524 354.477 158.728L354.225 158.164C354.489 158.092 354.729 157.948 354.945 157.72C355.149 157.492 355.233 157.252 355.185 157ZM357.966 151.372L357.09 151.06C357.39 149.56 358.47 148.504 360.246 148.504C361.974 148.504 362.97 149.5 362.97 151.024C362.934 152.284 362.346 153.28 361.458 154.084C360.834 154.672 360.342 155.008 359.682 155.428L358.758 156.004H363.282V157H356.982V156.184L358.686 154.972C359.682 154.264 360.33 153.772 360.63 153.496C361.458 152.74 361.866 151.948 361.866 151.132C361.866 150.028 361.194 149.548 360.174 149.548C358.878 149.548 358.206 150.364 357.966 151.372ZM366.29 157.18L365.498 156.724L371.702 148.336L372.458 148.888L366.29 157.18ZM364.202 150.616C364.202 150.016 364.406 149.524 364.826 149.14C365.246 148.756 365.762 148.564 366.398 148.564C367.022 148.564 367.538 148.756 367.958 149.14C368.378 149.524 368.582 150.016 368.582 150.616C368.582 151.204 368.378 151.696 367.958 152.08C367.538 152.464 367.022 152.656 366.398 152.656C365.762 152.656 365.246 152.464 364.826 152.08C364.406 151.696 364.202 151.204 364.202 150.616ZM365.21 150.616C365.21 151.3 365.762 151.804 366.398 151.804C367.058 151.804 367.574 151.324 367.574 150.616C367.574 149.908 367.034 149.428 366.398 149.428C365.738 149.428 365.21 149.908 365.21 150.616ZM369.974 156.472C369.554 156.088 369.35 155.596 369.35 154.996C369.35 154.396 369.554 153.904 369.974 153.52C370.394 153.148 370.91 152.956 371.546 152.956C372.17 152.956 372.686 153.148 373.106 153.52C373.526 153.904 373.73 154.396 373.73 154.996C373.73 155.584 373.526 156.076 373.106 156.46C372.686 156.856 372.17 157.048 371.546 157.048C370.91 157.048 370.394 156.856 369.974 156.472ZM370.358 154.996C370.358 155.68 370.91 156.184 371.546 156.184C372.206 156.184 372.722 155.704 372.722 154.996C372.722 154.288 372.182 153.808 371.546 153.808C370.886 153.808 370.358 154.288 370.358 154.996Z" fill="#7DA4C1"/>
<line y1="226.5" x2="545" y2="226.5" stroke="#ABBEC9"/>
<path d="M131.273 41L284.273 23H436.273" stroke="url(#paint9_linear_6004_39829)" stroke-width="5"/>
<circle cx="436" cy="23" r="7" fill="#64BBEA" stroke="white" stroke-width="2"/>
<circle cx="284" cy="23" r="7" fill="#64BBEA" stroke="white" stroke-width="2"/>
<circle cx="132" cy="40" r="7" fill="#64BBEA" stroke="white" stroke-width="2"/>
<path d="M123.243 28H118.733V27.17H120.863V22.03L119.073 22.86L118.753 22.11L121.153 20.96H121.723V27.17H123.243V28ZM124.329 24.5C124.329 23.42 124.559 22.55 125.009 21.9C125.459 21.25 126.119 20.92 126.999 20.92C128.789 20.92 129.679 22.23 129.679 24.5C129.679 25.59 129.459 26.45 129.009 27.1C128.559 27.75 127.899 28.08 127.019 28.08C126.169 28.08 125.509 27.75 125.039 27.09C124.569 26.43 124.329 25.57 124.329 24.5ZM125.249 24.5C125.249 26.19 125.909 27.23 127.019 27.23C128.179 27.23 128.759 26.32 128.759 24.5C128.759 22.68 128.169 21.77 126.999 21.77C125.829 21.77 125.249 22.68 125.249 24.5ZM131.105 28C130.735 28.04 130.455 27.83 130.455 27.47C130.455 27.12 130.675 26.9 131.065 26.9C131.505 26.9 131.795 27.2 131.795 27.76C131.795 28.76 131.245 29.27 130.515 29.44L130.305 28.97C130.525 28.91 130.725 28.79 130.905 28.6C131.075 28.41 131.145 28.21 131.105 28ZM133.642 24.78L132.922 24.59L133.332 21H137.732V21.85H134.102L133.842 23.73C134.192 23.47 134.722 23.34 135.432 23.34C136.252 23.34 136.892 23.56 137.362 23.99C137.822 24.43 138.052 24.99 138.052 25.68C138.052 26.37 137.792 26.95 137.282 27.4C136.762 27.86 136.112 28.09 135.342 28.09C134.032 28.09 132.942 27.47 132.492 26.38L133.292 26.04C133.582 26.71 134.332 27.24 135.342 27.24C136.492 27.24 137.132 26.58 137.132 25.71C137.132 24.78 136.382 24.18 135.192 24.18C134.552 24.18 134.032 24.38 133.642 24.78ZM140.358 28.15L139.698 27.77L144.868 20.78L145.498 21.24L140.358 28.15ZM138.618 22.68C138.618 22.18 138.788 21.77 139.138 21.45C139.488 21.13 139.918 20.97 140.448 20.97C140.968 20.97 141.398 21.13 141.748 21.45C142.098 21.77 142.268 22.18 142.268 22.68C142.268 23.17 142.098 23.58 141.748 23.9C141.398 24.22 140.968 24.38 140.448 24.38C139.918 24.38 139.488 24.22 139.138 23.9C138.788 23.58 138.618 23.17 138.618 22.68ZM139.458 22.68C139.458 23.25 139.918 23.67 140.448 23.67C140.998 23.67 141.428 23.27 141.428 22.68C141.428 22.09 140.978 21.69 140.448 21.69C139.898 21.69 139.458 22.09 139.458 22.68ZM143.428 27.56C143.078 27.24 142.908 26.83 142.908 26.33C142.908 25.83 143.078 25.42 143.428 25.1C143.778 24.79 144.208 24.63 144.738 24.63C145.258 24.63 145.688 24.79 146.038 25.1C146.388 25.42 146.558 25.83 146.558 26.33C146.558 26.82 146.388 27.23 146.038 27.55C145.688 27.88 145.258 28.04 144.738 28.04C144.208 28.04 143.778 27.88 143.428 27.56ZM143.748 26.33C143.748 26.9 144.208 27.32 144.738 27.32C145.288 27.32 145.718 26.92 145.718 26.33C145.718 25.74 145.268 25.34 144.738 25.34C144.188 25.34 143.748 25.74 143.748 26.33Z" fill="#357D94"/>
<path d="M274.743 12H270.233V11.17H272.363V6.03L270.573 6.86L270.253 6.11L272.653 4.96H273.223V11.17H274.743V12ZM280.739 12H276.229V11.17H278.359V6.03L276.569 6.86L276.249 6.11L278.649 4.96H279.219V11.17H280.739V12ZM282.605 12C282.235 12.04 281.955 11.83 281.955 11.47C281.955 11.12 282.175 10.9 282.565 10.9C283.005 10.9 283.295 11.2 283.295 11.76C283.295 12.76 282.745 13.27 282.015 13.44L281.805 12.97C282.025 12.91 282.225 12.79 282.405 12.6C282.575 12.41 282.645 12.21 282.605 12ZM284.072 8.69C284.072 7.48 284.342 6.54 284.882 5.89C285.422 5.24 286.122 4.91 286.982 4.91C288.082 4.91 288.842 5.37 289.262 6.28L288.582 6.74C288.172 6.09 287.742 5.77 286.942 5.77C285.732 5.77 284.952 6.76 284.962 8.49C285.382 7.71 286.082 7.32 287.062 7.32C288.662 7.32 289.502 8.22 289.502 9.66C289.502 10.38 289.262 10.96 288.782 11.41C288.292 11.86 287.682 12.09 286.932 12.09C285.172 12.09 284.072 10.85 284.072 8.69ZM285.072 9.54C285.292 10.67 285.912 11.23 286.922 11.23C287.972 11.23 288.582 10.63 288.582 9.7C288.582 8.69 288.062 8.18 287.012 8.18C285.852 8.18 285.222 8.81 285.072 9.54ZM291.858 12.15L291.198 11.77L296.368 4.78L296.998 5.24L291.858 12.15ZM290.118 6.68C290.118 6.18 290.288 5.77 290.638 5.45C290.988 5.13 291.418 4.97 291.948 4.97C292.468 4.97 292.898 5.13 293.248 5.45C293.598 5.77 293.768 6.18 293.768 6.68C293.768 7.17 293.598 7.58 293.248 7.9C292.898 8.22 292.468 8.38 291.948 8.38C291.418 8.38 290.988 8.22 290.638 7.9C290.288 7.58 290.118 7.17 290.118 6.68ZM290.958 6.68C290.958 7.25 291.418 7.67 291.948 7.67C292.498 7.67 292.928 7.27 292.928 6.68C292.928 6.09 292.478 5.69 291.948 5.69C291.398 5.69 290.958 6.09 290.958 6.68ZM294.928 11.56C294.578 11.24 294.408 10.83 294.408 10.33C294.408 9.83 294.578 9.42 294.928 9.1C295.278 8.79 295.708 8.63 296.238 8.63C296.758 8.63 297.188 8.79 297.538 9.1C297.888 9.42 298.058 9.83 298.058 10.33C298.058 10.82 297.888 11.23 297.538 11.55C297.188 11.88 296.758 12.04 296.238 12.04C295.708 12.04 295.278 11.88 294.928 11.56ZM295.248 10.33C295.248 10.9 295.708 11.32 296.238 11.32C296.788 11.32 297.218 10.92 297.218 10.33C297.218 9.74 296.768 9.34 296.238 9.34C295.688 9.34 295.248 9.74 295.248 10.33Z" fill="#357D94"/>
<path d="M428.743 10H424.233V9.17H426.363V4.03L424.573 4.86L424.253 4.11L426.653 2.96H427.223V9.17H428.743V10ZM434.739 10H430.229V9.17H432.359V4.03L430.569 4.86L430.249 4.11L432.649 2.96H433.219V9.17H434.739V10ZM436.605 10C436.235 10.04 435.955 9.83 435.955 9.47C435.955 9.12 436.175 8.9 436.565 8.9C437.005 8.9 437.295 9.2 437.295 9.76C437.295 10.76 436.745 11.27 436.015 11.44L435.805 10.97C436.025 10.91 436.225 10.79 436.405 10.6C436.575 10.41 436.645 10.21 436.605 10ZM438.072 6.69C438.072 5.48 438.342 4.54 438.882 3.89C439.422 3.24 440.122 2.91 440.982 2.91C442.082 2.91 442.842 3.37 443.262 4.28L442.582 4.74C442.172 4.09 441.742 3.77 440.942 3.77C439.732 3.77 438.952 4.76 438.962 6.49C439.382 5.71 440.082 5.32 441.062 5.32C442.662 5.32 443.502 6.22 443.502 7.66C443.502 8.38 443.262 8.96 442.782 9.41C442.292 9.86 441.682 10.09 440.932 10.09C439.172 10.09 438.072 8.85 438.072 6.69ZM439.072 7.54C439.292 8.67 439.912 9.23 440.922 9.23C441.972 9.23 442.582 8.63 442.582 7.7C442.582 6.69 442.062 6.18 441.012 6.18C439.852 6.18 439.222 6.81 439.072 7.54ZM445.858 10.15L445.198 9.77L450.368 2.78L450.998 3.24L445.858 10.15ZM444.118 4.68C444.118 4.18 444.288 3.77 444.638 3.45C444.988 3.13 445.418 2.97 445.948 2.97C446.468 2.97 446.898 3.13 447.248 3.45C447.598 3.77 447.768 4.18 447.768 4.68C447.768 5.17 447.598 5.58 447.248 5.9C446.898 6.22 446.468 6.38 445.948 6.38C445.418 6.38 444.988 6.22 444.638 5.9C444.288 5.58 444.118 5.17 444.118 4.68ZM444.958 4.68C444.958 5.25 445.418 5.67 445.948 5.67C446.498 5.67 446.928 5.27 446.928 4.68C446.928 4.09 446.478 3.69 445.948 3.69C445.398 3.69 444.958 4.09 444.958 4.68ZM448.928 9.56C448.578 9.24 448.408 8.83 448.408 8.33C448.408 7.83 448.578 7.42 448.928 7.1C449.278 6.79 449.708 6.63 450.238 6.63C450.758 6.63 451.188 6.79 451.538 7.1C451.888 7.42 452.058 7.83 452.058 8.33C452.058 8.82 451.888 9.23 451.538 9.55C451.188 9.88 450.758 10.04 450.238 10.04C449.708 10.04 449.278 9.88 448.928 9.56ZM449.248 8.33C449.248 8.9 449.708 9.32 450.238 9.32C450.788 9.32 451.218 8.92 451.218 8.33C451.218 7.74 450.768 7.34 450.238 7.34C449.688 7.34 449.248 7.74 449.248 8.33Z" fill="#357D94"/>
<defs>
<linearGradient id="paint0_linear_6004_39829" x1="134" y1="104" x2="134" y2="226" gradientUnits="userSpaceOnUse">
<stop stop-color="#45B8DB"/>
<stop offset="1" stop-color="#ADE4E4"/>
</linearGradient>
<linearGradient id="paint1_linear_6004_39829" x1="134" y1="104" x2="134" y2="226" gradientUnits="userSpaceOnUse">
<stop stop-color="white" stop-opacity="0"/>
<stop offset="0.739583" stop-color="white"/>
</linearGradient>
<linearGradient id="paint2_linear_6004_39829" x1="112" y1="-133.9" x2="112" y2="226" gradientUnits="userSpaceOnUse">
<stop stop-color="white" stop-opacity="0.05"/>
<stop offset="0.75" stop-color="white" stop-opacity="0.8"/>
</linearGradient>
<linearGradient id="paint3_linear_6004_39829" x1="284" y1="118" x2="284" y2="227" gradientUnits="userSpaceOnUse">
<stop stop-color="#45B8DB"/>
<stop offset="1" stop-color="#ADE4E4"/>
</linearGradient>
<linearGradient id="paint4_linear_6004_39829" x1="284" y1="118" x2="284" y2="227" gradientUnits="userSpaceOnUse">
<stop stop-color="white" stop-opacity="0"/>
<stop offset="0.739583" stop-color="white"/>
</linearGradient>
<linearGradient id="paint5_linear_6004_39829" x1="262" y1="-94.55" x2="262" y2="227" gradientUnits="userSpaceOnUse">
<stop stop-color="white" stop-opacity="0.05"/>
<stop offset="0.75" stop-color="white" stop-opacity="0.8"/>
</linearGradient>
<linearGradient id="paint6_linear_6004_39829" x1="434" y1="124" x2="434" y2="227" gradientUnits="userSpaceOnUse">
<stop stop-color="#45B8DB"/>
<stop offset="1" stop-color="#ADE4E4"/>
</linearGradient>
<linearGradient id="paint7_linear_6004_39829" x1="434" y1="124" x2="434" y2="227" gradientUnits="userSpaceOnUse">
<stop stop-color="white" stop-opacity="0"/>
<stop offset="0.739583" stop-color="white"/>
</linearGradient>
<linearGradient id="paint8_linear_6004_39829" x1="412" y1="-76.85" x2="412" y2="227" gradientUnits="userSpaceOnUse">
<stop stop-color="white" stop-opacity="0.05"/>
<stop offset="0.75" stop-color="white" stop-opacity="0.8"/>
</linearGradient>
<linearGradient id="paint9_linear_6004_39829" x1="436.273" y1="23" x2="131.273" y2="23" gradientUnits="userSpaceOnUse">
<stop stop-color="#56BCF6"/>
<stop offset="1" stop-color="#A2DEE7"/>
</linearGradient>
</defs>
</svg>
