<svg width="296" height="272" viewBox="0 0 296 272" fill="none" xmlns="http://www.w3.org/2000/svg">
<path d="M226.559 185.42C212.722 198.571 195.632 207.801 177.045 212.16C158.459 216.519 139.047 215.85 120.805 210.221C102.563 204.593 86.1495 194.208 73.2506 180.134C60.3517 166.06 51.4333 148.806 47.4121 130.144L60.0227 127.426C63.5613 143.849 71.4095 159.033 82.7605 171.418C94.1115 183.803 108.556 192.941 124.609 197.895C140.662 202.848 157.744 203.437 174.1 199.601C190.456 195.765 205.495 187.643 217.672 176.069L226.559 185.42Z" fill="url(#paint0_linear_4002_20366)"/>
<path d="M50.1327 140.32C44.9534 124.165 43.671 107.014 46.3902 90.2689C49.1095 73.5236 55.7533 57.6597 65.7784 43.9741C75.8034 30.2885 88.9251 19.1698 104.071 11.5271C119.216 3.88446 135.956 -0.0652116 152.92 0.00105875L152.87 12.9009C137.941 12.8426 123.21 16.3183 109.882 23.0439C96.5541 29.7695 85.007 39.5539 76.185 51.5972C67.3629 63.6405 61.5164 77.6008 59.1234 92.3366C56.7305 107.072 57.859 122.165 62.4168 136.381L50.1327 140.32Z" fill="#184977"/>
<path d="M152.5 0C174.049 2.56971e-07 195.101 6.47638 212.924 18.5888C230.747 30.7013 244.518 47.8906 252.451 67.9265C260.384 87.9625 262.112 109.92 257.411 130.95C252.71 151.98 241.797 171.112 226.089 185.864L217.258 176.46C231.082 163.479 240.685 146.643 244.822 128.136C248.958 109.63 247.437 90.3069 240.457 72.6753C233.476 55.0437 221.357 39.9171 205.673 29.2581C189.989 18.5992 171.463 12.9 152.5 12.9V0Z" fill="url(#paint1_linear_4002_20366)"/>
<path d="M260.706 52.056L259.656 51.58C260.174 50.068 261.532 49.074 263.562 49.074C264.528 49.074 265.326 49.298 265.942 49.746C266.558 50.194 266.866 50.796 266.866 51.538C266.866 52.672 266.264 53.512 265.144 53.834C266.222 53.904 267.09 54.716 267.09 56.172C267.09 57.096 266.754 57.824 266.082 58.342C265.41 58.86 264.556 59.126 263.506 59.126C261.364 59.126 259.88 58.104 259.39 56.494L260.524 56.004C261.126 57.278 262.148 57.922 263.59 57.922C264.948 57.922 265.802 57.292 265.802 56.186C265.802 55.108 264.962 54.562 263.282 54.562H262.19V53.4H263.058C264.584 53.4 265.578 52.714 265.578 51.776C265.578 50.81 264.78 50.264 263.506 50.264C262.008 50.264 261.098 51.034 260.706 52.056ZM272.298 54.1C272.298 52.588 272.648 51.37 273.362 50.46C274.062 49.55 275.098 49.088 276.456 49.088C279.242 49.088 280.628 50.922 280.628 54.1C280.628 55.626 280.278 56.83 279.592 57.74C278.892 58.65 277.856 59.112 276.484 59.112C275.168 59.112 274.146 58.65 273.404 57.726C272.662 56.802 272.298 55.598 272.298 54.1ZM273.586 54.1C273.586 56.494 274.678 57.922 276.484 57.922C278.388 57.922 279.34 56.648 279.34 54.1C279.34 51.552 278.374 50.278 276.456 50.278C274.51 50.278 273.586 51.678 273.586 54.1ZM281.562 51.804L281.114 50.754L284.474 49.144H285.272V59H284.068V50.642L281.562 51.804ZM293.819 59H292.601V56.998H286.609V56.186L292.741 49.2H293.819V55.864H295.639V56.998H293.819V59ZM292.601 51.16L288.289 55.864H292.601V51.16Z" fill="#1A3341"/>
<path d="M44.7461 208.434L43.7241 208.07C44.0741 206.334 45.3901 205.088 47.4761 205.088C49.4921 205.088 50.7241 206.25 50.7241 208.028C50.7241 208.966 50.3181 209.904 49.8141 210.576C49.5621 210.926 49.2401 211.262 48.8621 211.612C48.0921 212.298 47.5461 212.662 46.7481 213.166L45.6701 213.838H51.0881V215H43.4581V214.048L45.5861 212.634C45.9641 212.396 46.2301 212.214 46.3841 212.102C46.5381 212.004 46.7901 211.822 47.1261 211.584C47.4621 211.346 47.7141 211.136 47.8821 210.982C48.0361 210.828 48.2461 210.632 48.4841 210.38C49.1281 209.68 49.3661 209.036 49.4361 208.154C49.4361 206.88 48.6101 206.306 47.3921 206.306C46.6361 206.306 46.0341 206.516 45.6001 206.936C45.1661 207.356 44.8721 207.86 44.7461 208.434ZM64.2637 209.918C64.2637 211.584 63.8717 212.872 63.0737 213.768C62.2757 214.678 61.2117 215.126 59.8817 215.126C58.2577 215.126 56.9837 214.44 56.3537 213.39L57.3617 212.69C57.9217 213.474 58.9437 213.922 60.0497 213.922C60.9597 213.922 61.6877 213.558 62.2617 212.83C62.8357 212.116 63.0737 211.22 63.0037 210.156C62.5417 211.22 61.3797 212.004 59.8257 212.004C58.7337 212.004 57.8377 211.696 57.1377 211.066C56.4237 210.45 56.0737 209.638 56.0737 208.644C56.0737 207.552 56.4517 206.684 57.2077 206.04C57.9637 205.396 58.9717 205.074 60.2177 205.074C62.7377 205.074 64.2637 206.838 64.2637 209.918ZM62.7937 208.602C62.5837 207.3 61.6877 206.278 60.0777 206.278C58.3977 206.278 57.3617 207.146 57.3617 208.602C57.3617 209.988 58.4117 210.8 60.0497 210.8C60.7917 210.8 61.4217 210.576 61.9117 210.128C62.4017 209.68 62.6957 209.176 62.7937 208.602ZM70.9276 206.39H64.9916V205.2H72.4256V205.998L67.5536 215H66.2236L70.9276 206.39ZM79.9336 215H78.7156V212.998H72.7236V212.186L78.8556 205.2H79.9336V211.864H81.7536V212.998H79.9336V215ZM78.7156 207.16L74.4036 211.864H78.7156V207.16Z" fill="#1A3341"/>
<path d="M20.4578 36.434L19.4358 36.07C19.7858 34.334 21.1018 33.088 23.1878 33.088C25.2038 33.088 26.4358 34.25 26.4358 36.028C26.4358 36.966 26.0298 37.904 25.5258 38.576C25.2738 38.926 24.9518 39.262 24.5738 39.612C23.8038 40.298 23.2578 40.662 22.4598 41.166L21.3818 41.838H26.7998V43H19.1698V42.048L21.2978 40.634C21.6758 40.396 21.9418 40.214 22.0958 40.102C22.2498 40.004 22.5018 39.822 22.8378 39.584C23.1738 39.346 23.4258 39.136 23.5938 38.982C23.7478 38.828 23.9578 38.632 24.1958 38.38C24.8398 37.68 25.0778 37.036 25.1478 36.154C25.1478 34.88 24.3218 34.306 23.1038 34.306C22.3478 34.306 21.7458 34.516 21.3118 34.936C20.8778 35.356 20.5838 35.86 20.4578 36.434ZM35.6913 37.414H36.1253C36.7553 37.414 37.2733 37.26 37.7073 36.966C38.1273 36.672 38.3373 36.28 38.3373 35.818C38.3373 34.768 37.5113 34.236 35.8733 34.236C34.3053 34.236 33.4513 34.81 33.4513 35.818C33.4513 36.728 34.3893 37.414 35.6913 37.414ZM36.0973 38.52H35.7473C34.9913 38.52 34.3613 38.688 33.8713 39.01C33.3813 39.332 33.1293 39.738 33.1293 40.228C33.1293 41.292 34.1093 41.964 35.8873 41.964C37.6933 41.964 38.6593 41.32 38.6593 40.242C38.6593 39.164 37.6233 38.52 36.0973 38.52ZM38.8553 42.37C38.1413 42.874 37.1473 43.126 35.9013 43.126C34.6553 43.126 33.6613 42.874 32.9333 42.384C32.2053 41.894 31.8413 41.222 31.8413 40.354C31.8413 39.22 32.5833 38.324 33.7733 37.932C32.6953 37.582 32.1633 36.728 32.1633 35.734C32.1633 34.11 33.5353 33.074 35.8873 33.074C38.2533 33.074 39.6253 34.11 39.6253 35.734C39.6253 36.672 39.1073 37.386 38.0713 37.862C39.3173 38.24 39.9333 39.052 39.9333 40.298C39.9333 41.18 39.5693 41.88 38.8553 42.37ZM47.7872 43H46.5692V40.998H40.5772V40.186L46.7092 33.2H47.7872V39.864H49.6072V40.998H47.7872V43ZM46.5692 35.16L42.2572 39.864H46.5692V35.16ZM50.2915 38.366C50.2915 36.672 50.7115 35.37 51.5375 34.446C52.3635 33.536 53.3995 33.074 54.6455 33.074C56.2835 33.074 57.5715 33.816 58.1175 34.992L57.1655 35.636C56.5915 34.726 55.7375 34.278 54.5895 34.278C53.7215 34.278 52.9935 34.614 52.4055 35.286C51.8175 35.972 51.5235 36.896 51.5375 38.086C52.0835 37.064 53.3575 36.448 54.7575 36.448C55.8915 36.448 56.8015 36.742 57.4595 37.344C58.1175 37.946 58.4535 38.744 58.4535 39.724C58.4535 40.718 58.0895 41.544 57.3475 42.174C56.6055 42.804 55.6815 43.126 54.5755 43.126C51.9295 43.126 50.2915 41.404 50.2915 38.366ZM51.6915 39.556C51.9575 40.942 53.0075 41.922 54.5615 41.922C55.3175 41.922 55.9475 41.726 56.4375 41.32C56.9275 40.928 57.1655 40.41 57.1655 39.78C57.1655 38.394 56.1855 37.652 54.6875 37.652C53.8615 37.652 53.1755 37.848 52.6435 38.24C52.0975 38.632 51.7895 39.066 51.6915 39.556Z" fill="#1A3341"/>
<path d="M113.889 108.184C115.212 108.632 116.204 109.251 116.865 110.04C117.548 110.829 117.889 111.779 117.889 112.888V113.24C117.889 117.336 114.22 119.384 106.881 119.384C99.5422 119.384 95.8729 117.336 95.8729 113.24V112.888C95.8729 111.779 96.2035 110.829 96.8649 110.04C97.5475 109.251 98.5502 108.632 99.8729 108.184C98.8702 107.736 98.1129 107.16 97.6009 106.456C97.0889 105.731 96.8329 104.909 96.8329 103.992V103.64C96.8329 102.445 97.2489 101.389 98.0809 100.472C98.9129 99.5547 100.086 98.8507 101.601 98.36C103.116 97.8693 104.876 97.624 106.881 97.624C108.886 97.624 110.646 97.8693 112.161 98.36C113.676 98.8507 114.849 99.5547 115.681 100.472C116.513 101.389 116.929 102.445 116.929 103.64V103.992C116.929 104.909 116.673 105.731 116.161 106.456C115.649 107.16 114.892 107.736 113.889 108.184ZM99.9689 103.896C99.9689 104.984 100.524 105.784 101.633 106.296C102.764 106.808 104.513 107.064 106.881 107.064C109.228 107.064 110.956 106.808 112.065 106.296C113.196 105.784 113.761 104.984 113.761 103.896V103.64C113.761 101.549 111.468 100.504 106.881 100.504C102.273 100.504 99.9689 101.549 99.9689 103.64V103.896ZM114.721 113.112C114.721 111.981 114.102 111.171 112.865 110.68C111.649 110.168 109.654 109.912 106.881 109.912C104.108 109.912 102.102 110.168 100.865 110.68C99.6489 111.171 99.0409 111.981 99.0409 113.112V113.368C99.0409 114.456 99.6702 115.256 100.929 115.768C102.188 116.259 104.172 116.504 106.881 116.504C109.59 116.504 111.574 116.259 112.833 115.768C114.092 115.256 114.721 114.456 114.721 113.368V113.112ZM152.063 108.184C153.385 108.632 154.377 109.251 155.039 110.04C155.721 110.829 156.063 111.779 156.063 112.888V113.24C156.063 117.336 152.393 119.384 145.055 119.384C137.716 119.384 134.047 117.336 134.047 113.24V112.888C134.047 111.779 134.377 110.829 135.039 110.04C135.721 109.251 136.724 108.632 138.047 108.184C137.044 107.736 136.287 107.16 135.775 106.456C135.263 105.731 135.007 104.909 135.007 103.992V103.64C135.007 102.445 135.423 101.389 136.255 100.472C137.087 99.5547 138.26 98.8507 139.775 98.36C141.289 97.8693 143.049 97.624 145.055 97.624C147.06 97.624 148.82 97.8693 150.335 98.36C151.849 98.8507 153.023 99.5547 153.855 100.472C154.687 101.389 155.103 102.445 155.103 103.64V103.992C155.103 104.909 154.847 105.731 154.335 106.456C153.823 107.16 153.065 107.736 152.063 108.184ZM138.143 103.896C138.143 104.984 138.697 105.784 139.807 106.296C140.937 106.808 142.687 107.064 145.055 107.064C147.401 107.064 149.129 106.808 150.239 106.296C151.369 105.784 151.935 104.984 151.935 103.896V103.64C151.935 101.549 149.641 100.504 145.055 100.504C140.447 100.504 138.143 101.549 138.143 103.64V103.896ZM152.895 113.112C152.895 111.981 152.276 111.171 151.039 110.68C149.823 110.168 147.828 109.912 145.055 109.912C142.281 109.912 140.276 110.168 139.039 110.68C137.823 111.171 137.215 111.981 137.215 113.112V113.368C137.215 114.456 137.844 115.256 139.103 115.768C140.361 116.259 142.345 116.504 145.055 116.504C147.764 116.504 149.748 116.259 151.007 115.768C152.265 115.256 152.895 114.456 152.895 113.368V113.112ZM171.536 106.328C174.373 106.413 176.539 106.979 178.032 108.024C179.547 109.048 180.304 110.477 180.304 112.312V112.728C180.304 114.883 179.44 116.536 177.712 117.688C175.984 118.819 173.467 119.384 170.16 119.384C166.939 119.363 164.443 118.797 162.672 117.688C160.923 116.579 160.048 115.011 160.048 112.984V112.76H163.216V112.984C163.216 114.051 163.835 114.893 165.072 115.512C166.309 116.109 168.016 116.408 170.192 116.408C172.475 116.408 174.203 116.109 175.376 115.512C176.549 114.893 177.136 113.987 177.136 112.792V112.408C177.136 110.168 174.853 109.048 170.288 109.048H166.832V106.232L174.736 100.856H160.432V98.008H179.792V100.856L171.536 106.328ZM208.625 114.232H202.993V119H199.825V114.232H184.529V111.352C186.15 108.835 187.473 106.531 188.497 104.44C189.521 102.328 190.374 100.184 191.057 98.008H194.417V98.488C193.052 102.627 190.982 106.915 188.209 111.352H199.825V101.72H202.993V111.352H208.625V114.232Z" fill="#1A3341"/>
<rect y="258" width="10" height="10" fill="url(#paint2_linear_4002_20366)"/>
<path d="M25.56 267H24.468V259.62H20.844V260.136C20.844 262.38 20.64 264.084 20.352 265.068C20.196 265.56 20.016 265.956 19.8 266.256C19.368 266.856 18.972 267.024 18.444 267.024C18.336 267.024 18.168 267.012 17.94 267V265.944C18.468 266.028 19.032 265.848 19.38 264.504C19.596 263.652 19.752 262.092 19.752 259.968V258.6H25.56V267ZM31.7892 262.332L27.9852 267H27.0612V260.76H28.0692V265.44L31.8612 260.76H32.7972V267H31.7892V262.332ZM36.3925 267.12C35.1085 267.12 34.1605 266.64 33.5725 265.692L34.3645 265.14C34.7125 265.776 35.4805 266.184 36.4045 266.184C37.4005 266.184 38.1085 265.776 38.1085 265.104C38.1085 264.552 37.6885 264.276 36.8605 264.276H35.3965V263.364H36.7885C37.4005 263.364 37.8805 263.004 37.8805 262.464C37.8805 261.876 37.2565 261.54 36.3565 261.54C35.6005 261.54 34.9765 261.828 34.5085 262.416L33.7645 261.924C34.1845 261.204 35.1445 260.604 36.4525 260.604C38.0245 260.604 38.9485 261.264 38.9485 262.308C38.9485 262.896 38.6965 263.352 38.2045 263.652C38.9245 264 39.1765 264.42 39.1765 265.08C39.1765 265.716 38.9125 266.208 38.3965 266.568C37.8805 266.94 37.2085 267.12 36.3925 267.12ZM44.9086 262.332L41.1046 267H40.1806V260.76H41.1886V265.44L44.9806 260.76H45.9166V267H44.9086V262.332ZM52.8719 267H51.8639V264.3H48.2639V267H47.2559V260.76H48.2639V263.352H51.8639V260.76H52.8719V267ZM55.222 267H54.214V260.76H58.762V261.708H55.222V267Z" fill="#76848D"/>
<rect x="95" y="258" width="10" height="10" fill="url(#paint3_linear_4002_20366)"/>
<path d="M114.128 267H113.012L116.696 258.576H117.56L121.244 267H120.104L119.168 264.876H115.052L114.128 267ZM118.76 263.916L117.104 260.1L115.46 263.916H118.76ZM122.882 269.4H121.874V260.76H122.882V261.54C123.302 260.928 123.974 260.616 124.898 260.616C125.81 260.616 126.542 260.904 127.082 261.492C127.622 262.08 127.886 262.836 127.886 263.772C127.886 264.732 127.598 265.524 127.022 266.16C126.434 266.796 125.69 267.108 124.778 267.108C123.938 267.108 123.302 266.892 122.882 266.472V269.4ZM124.79 261.564C123.878 261.564 123.17 262.152 122.882 262.86V265.188C123.242 265.836 123.842 266.16 124.694 266.16C125.306 266.16 125.822 265.944 126.218 265.512C126.614 265.08 126.818 264.528 126.818 263.844C126.818 262.452 126.038 261.564 124.79 261.564ZM133.703 265.212L134.351 265.812C133.775 266.676 132.947 267.108 131.855 267.108C130.859 267.108 130.055 266.808 129.443 266.22C128.831 265.632 128.531 264.852 128.531 263.868C128.531 262.92 128.807 262.14 129.371 261.528C129.923 260.916 130.703 260.616 131.711 260.616C132.539 260.616 133.235 260.88 133.775 261.396C134.315 261.912 134.591 262.596 134.591 263.448C134.591 263.724 134.567 263.976 134.531 264.204H129.611C129.671 265.44 130.583 266.16 131.891 266.16C132.623 266.16 133.319 265.776 133.703 265.212ZM131.639 261.54C130.499 261.54 129.755 262.236 129.599 263.292H133.523C133.463 262.188 132.755 261.54 131.639 261.54ZM141.207 267H140.199V264.3H136.599V267H135.591V260.76H136.599V263.352H140.199V260.76H141.207V267ZM142.825 268.512H141.865V266.04H142.561C143.197 265.068 143.437 263.7 143.437 261.336V260.76H148.021V266.04H148.921V268.512H147.961V267H142.825V268.512ZM147.013 261.72H144.385V262.152C144.385 263.748 144.133 265.044 143.641 266.04H147.013V261.72ZM150.221 262.26L149.705 261.504C150.281 260.964 151.277 260.616 152.201 260.616C153.869 260.616 154.757 261.528 154.757 263.148V267H153.749V266.076C153.353 266.652 152.573 267.084 151.565 267.084C150.209 267.084 149.297 266.328 149.297 265.176C149.297 263.868 150.413 263.244 152.285 263.244C152.873 263.244 153.353 263.304 153.749 263.424C153.749 262.212 153.317 261.564 152.081 261.564C151.457 261.564 150.833 261.792 150.221 262.26ZM151.805 266.172C152.273 266.172 152.693 266.04 153.041 265.788C153.389 265.536 153.617 265.248 153.749 264.948V264.312C153.401 264.192 152.957 264.132 152.417 264.132C151.049 264.132 150.365 264.468 150.365 265.14C150.365 265.776 150.941 266.172 151.805 266.172Z" fill="#76848D"/>
<rect x="192" y="257.5" width="10" height="10" fill="#184977"/>
<path d="M218.028 267H216.936V259.62H211.98V267H210.888V258.6H218.028V267ZM220.538 269.4H219.53V260.76H220.538V261.54C220.958 260.928 221.63 260.616 222.554 260.616C223.466 260.616 224.198 260.904 224.738 261.492C225.278 262.08 225.542 262.836 225.542 263.772C225.542 264.732 225.254 265.524 224.678 266.16C224.09 266.796 223.346 267.108 222.434 267.108C221.594 267.108 220.958 266.892 220.538 266.472V269.4ZM222.446 261.564C221.534 261.564 220.826 262.152 220.538 262.86V265.188C220.898 265.836 221.498 266.16 222.35 266.16C222.962 266.16 223.478 265.944 223.874 265.512C224.27 265.08 224.474 264.528 224.474 263.844C224.474 262.452 223.694 261.564 222.446 261.564ZM231.263 262.332L227.459 267H226.535V260.76H227.543V265.44L231.335 260.76H232.271V267H231.263V262.332ZM236.394 267H233.61V260.76H236.202C237.942 260.76 238.758 261.204 238.758 262.356C238.758 262.932 238.494 263.388 237.954 263.712C238.626 263.916 238.962 264.408 238.962 265.212C238.962 266.376 238.038 267 236.394 267ZM236.406 264.276H234.618V266.064H236.286C237.354 266.064 237.894 265.764 237.894 265.164C237.894 264.576 237.402 264.276 236.406 264.276ZM236.166 261.696H234.618V263.364H236.514C237.246 263.364 237.69 263.064 237.69 262.5C237.69 261.864 237.174 261.696 236.166 261.696ZM245.395 267H244.387V261.72H241.747V262.008C241.747 264.024 241.519 265.416 241.063 266.136C240.607 266.856 240.043 267.096 239.263 267V266.04C240.067 266.04 240.739 265.692 240.739 262.044V260.76H245.395V267ZM251.565 265.212L252.213 265.812C251.637 266.676 250.809 267.108 249.717 267.108C248.721 267.108 247.917 266.808 247.305 266.22C246.693 265.632 246.393 264.852 246.393 263.868C246.393 262.92 246.669 262.14 247.233 261.528C247.785 260.916 248.565 260.616 249.573 260.616C250.401 260.616 251.097 260.88 251.637 261.396C252.177 261.912 252.453 262.596 252.453 263.448C252.453 263.724 252.429 263.976 252.393 264.204H247.473C247.533 265.44 248.445 266.16 249.753 266.16C250.485 266.16 251.181 265.776 251.565 265.212ZM249.501 261.54C248.361 261.54 247.617 262.236 247.461 263.292H251.385C251.325 262.188 250.617 261.54 249.501 261.54ZM257.497 260.76H258.505V267H257.497V264.372C257.041 264.828 256.405 265.056 255.589 265.056C253.945 265.056 253.129 264.228 253.129 262.572V260.76H254.137V262.296C254.137 263.556 254.665 264.096 255.769 264.096C256.489 264.096 257.173 263.712 257.497 263.244V260.76ZM264.673 265.212L265.321 265.812C264.745 266.676 263.917 267.108 262.825 267.108C261.829 267.108 261.025 266.808 260.413 266.22C259.801 265.632 259.501 264.852 259.501 263.868C259.501 262.92 259.777 262.14 260.341 261.528C260.893 260.916 261.673 260.616 262.681 260.616C263.509 260.616 264.205 260.88 264.745 261.396C265.285 261.912 265.561 262.596 265.561 263.448C265.561 263.724 265.537 263.976 265.501 264.204H260.581C260.641 265.44 261.553 266.16 262.861 266.16C263.593 266.16 264.289 265.776 264.673 265.212ZM262.609 261.54C261.469 261.54 260.725 262.236 260.569 263.292H264.493C264.433 262.188 263.725 261.54 262.609 261.54ZM272.177 267H271.169V264.3H267.569V267H266.561V260.76H267.569V263.352H271.169V260.76H272.177V267ZM278.247 262.332L274.443 267H273.519V260.76H274.527V265.44L278.319 260.76H279.255V267H278.247V262.332ZM285.419 265.212L286.067 265.812C285.491 266.676 284.663 267.108 283.571 267.108C282.575 267.108 281.771 266.808 281.159 266.22C280.547 265.632 280.247 264.852 280.247 263.868C280.247 262.92 280.523 262.14 281.087 261.528C281.639 260.916 282.419 260.616 283.427 260.616C284.255 260.616 284.951 260.88 285.491 261.396C286.031 261.912 286.307 262.596 286.307 263.448C286.307 263.724 286.283 263.976 286.247 264.204H281.327C281.387 265.44 282.299 266.16 283.607 266.16C284.339 266.16 285.035 265.776 285.419 265.212ZM283.355 261.54C282.215 261.54 281.471 262.236 281.315 263.292H285.239C285.179 262.188 284.471 261.54 283.355 261.54Z" fill="#76848D"/>
<defs>
<linearGradient id="paint0_linear_4002_20366" x1="260" y1="107.5" x2="78.185" y2="341.662" gradientUnits="userSpaceOnUse">
<stop stop-color="#43C3BB"/>
<stop offset="1" stop-color="#78CCD1"/>
</linearGradient>
<linearGradient id="paint1_linear_4002_20366" x1="152.5" y1="0" x2="248.782" y2="174.337" gradientUnits="userSpaceOnUse">
<stop stop-color="#66CFF0"/>
<stop offset="1" stop-color="#A6E0F2"/>
</linearGradient>
<linearGradient id="paint2_linear_4002_20366" x1="5" y1="258" x2="9.47826" y2="266.109" gradientUnits="userSpaceOnUse">
<stop stop-color="#66CFF0"/>
<stop offset="1" stop-color="#A6E0F2"/>
</linearGradient>
<linearGradient id="paint3_linear_4002_20366" x1="100" y1="258" x2="105.896" y2="263.521" gradientUnits="userSpaceOnUse">
<stop stop-color="#43C3BB"/>
<stop offset="1" stop-color="#78CCD1"/>
</linearGradient>
</defs>
</svg>
