<svg width="287" height="323" viewBox="0 0 287 323" fill="none" xmlns="http://www.w3.org/2000/svg">
<path d="M215.559 185.42C201.722 198.571 184.632 207.801 166.045 212.16C147.459 216.519 128.047 215.85 109.805 210.221C91.5635 204.593 75.1495 194.208 62.2506 180.134C49.3517 166.06 40.4333 148.806 36.4121 130.144L49.0227 127.426C52.5613 143.849 60.4095 159.033 71.7605 171.418C83.1115 183.803 97.5559 192.941 113.609 197.895C129.662 202.848 146.744 203.437 163.1 199.601C179.456 195.765 194.495 187.643 206.672 176.069L215.559 185.42Z" fill="url(#paint0_linear_4002_9567)"/>
<path d="M39.1327 140.32C33.9534 124.165 32.671 107.014 35.3902 90.2689C38.1095 73.5236 44.7533 57.6597 54.7784 43.9741C64.8034 30.2885 77.9251 19.1698 93.0707 11.5271C108.216 3.88446 124.956 -0.0652116 141.92 0.00105875L141.87 12.9009C126.941 12.8426 112.21 16.3183 98.8822 23.0439C85.5541 29.7695 74.007 39.5539 65.185 51.5972C56.3629 63.6405 50.5164 77.6008 48.1234 92.3366C45.7305 107.072 46.859 122.165 51.4168 136.381L39.1327 140.32Z" fill="#184977"/>
<path d="M141.5 0C163.049 2.56971e-07 184.101 6.47638 201.924 18.5888C219.747 30.7013 233.518 47.8906 241.451 67.9265C249.384 87.9625 251.112 109.92 246.411 130.95C241.71 151.98 230.797 171.112 215.089 185.864L206.258 176.46C220.082 163.479 229.685 146.643 233.822 128.136C237.958 109.63 236.437 90.3069 229.457 72.6753C222.476 55.0437 210.357 39.9171 194.673 29.2581C178.989 18.5992 160.463 12.9 141.5 12.9V0Z" fill="url(#paint1_linear_4002_9567)"/>
<path d="M249.706 52.056L248.656 51.58C249.174 50.068 250.532 49.074 252.562 49.074C253.528 49.074 254.326 49.298 254.942 49.746C255.558 50.194 255.866 50.796 255.866 51.538C255.866 52.672 255.264 53.512 254.144 53.834C255.222 53.904 256.09 54.716 256.09 56.172C256.09 57.096 255.754 57.824 255.082 58.342C254.41 58.86 253.556 59.126 252.506 59.126C250.364 59.126 248.88 58.104 248.39 56.494L249.524 56.004C250.126 57.278 251.148 57.922 252.59 57.922C253.948 57.922 254.802 57.292 254.802 56.186C254.802 55.108 253.962 54.562 252.282 54.562H251.19V53.4H252.058C253.584 53.4 254.578 52.714 254.578 51.776C254.578 50.81 253.78 50.264 252.506 50.264C251.008 50.264 250.098 51.034 249.706 52.056ZM261.298 54.1C261.298 52.588 261.648 51.37 262.362 50.46C263.062 49.55 264.098 49.088 265.456 49.088C268.242 49.088 269.628 50.922 269.628 54.1C269.628 55.626 269.278 56.83 268.592 57.74C267.892 58.65 266.856 59.112 265.484 59.112C264.168 59.112 263.146 58.65 262.404 57.726C261.662 56.802 261.298 55.598 261.298 54.1ZM262.586 54.1C262.586 56.494 263.678 57.922 265.484 57.922C267.388 57.922 268.34 56.648 268.34 54.1C268.34 51.552 267.374 50.278 265.456 50.278C263.51 50.278 262.586 51.678 262.586 54.1ZM270.562 51.804L270.114 50.754L273.474 49.144H274.272V59H273.068V50.642L270.562 51.804ZM282.819 59H281.601V56.998H275.609V56.186L281.741 49.2H282.819V55.864H284.639V56.998H282.819V59ZM281.601 51.16L277.289 55.864H281.601V51.16Z" fill="#1A3341"/>
<path d="M33.7461 208.434L32.7241 208.07C33.0741 206.334 34.3901 205.088 36.4761 205.088C38.4921 205.088 39.7241 206.25 39.7241 208.028C39.7241 208.966 39.3181 209.904 38.8141 210.576C38.5621 210.926 38.2401 211.262 37.8621 211.612C37.0921 212.298 36.5461 212.662 35.7481 213.166L34.6701 213.838H40.0881V215H32.4581V214.048L34.5861 212.634C34.9641 212.396 35.2301 212.214 35.3841 212.102C35.5381 212.004 35.7901 211.822 36.1261 211.584C36.4621 211.346 36.7141 211.136 36.8821 210.982C37.0361 210.828 37.2461 210.632 37.4841 210.38C38.1281 209.68 38.3661 209.036 38.4361 208.154C38.4361 206.88 37.6101 206.306 36.3921 206.306C35.6361 206.306 35.0341 206.516 34.6001 206.936C34.1661 207.356 33.8721 207.86 33.7461 208.434ZM53.2637 209.918C53.2637 211.584 52.8717 212.872 52.0737 213.768C51.2757 214.678 50.2117 215.126 48.8817 215.126C47.2577 215.126 45.9837 214.44 45.3537 213.39L46.3617 212.69C46.9217 213.474 47.9437 213.922 49.0497 213.922C49.9597 213.922 50.6877 213.558 51.2617 212.83C51.8357 212.116 52.0737 211.22 52.0037 210.156C51.5417 211.22 50.3797 212.004 48.8257 212.004C47.7337 212.004 46.8377 211.696 46.1377 211.066C45.4237 210.45 45.0737 209.638 45.0737 208.644C45.0737 207.552 45.4517 206.684 46.2077 206.04C46.9637 205.396 47.9717 205.074 49.2177 205.074C51.7377 205.074 53.2637 206.838 53.2637 209.918ZM51.7937 208.602C51.5837 207.3 50.6877 206.278 49.0777 206.278C47.3977 206.278 46.3617 207.146 46.3617 208.602C46.3617 209.988 47.4117 210.8 49.0497 210.8C49.7917 210.8 50.4217 210.576 50.9117 210.128C51.4017 209.68 51.6957 209.176 51.7937 208.602ZM59.9276 206.39H53.9916V205.2H61.4256V205.998L56.5536 215H55.2236L59.9276 206.39ZM68.9336 215H67.7156V212.998H61.7236V212.186L67.8556 205.2H68.9336V211.864H70.7536V212.998H68.9336V215ZM67.7156 207.16L63.4036 211.864H67.7156V207.16Z" fill="#1A3341"/>
<path d="M9.45778 36.434L8.43578 36.07C8.78578 34.334 10.1018 33.088 12.1878 33.088C14.2038 33.088 15.4358 34.25 15.4358 36.028C15.4358 36.966 15.0298 37.904 14.5258 38.576C14.2738 38.926 13.9518 39.262 13.5738 39.612C12.8038 40.298 12.2578 40.662 11.4598 41.166L10.3818 41.838H15.7998V43H8.16978V42.048L10.2978 40.634C10.6758 40.396 10.9418 40.214 11.0958 40.102C11.2498 40.004 11.5018 39.822 11.8378 39.584C12.1738 39.346 12.4258 39.136 12.5938 38.982C12.7478 38.828 12.9578 38.632 13.1958 38.38C13.8398 37.68 14.0778 37.036 14.1478 36.154C14.1478 34.88 13.3218 34.306 12.1038 34.306C11.3478 34.306 10.7458 34.516 10.3118 34.936C9.87778 35.356 9.58378 35.86 9.45778 36.434ZM24.6913 37.414H25.1253C25.7553 37.414 26.2733 37.26 26.7073 36.966C27.1273 36.672 27.3373 36.28 27.3373 35.818C27.3373 34.768 26.5113 34.236 24.8733 34.236C23.3053 34.236 22.4513 34.81 22.4513 35.818C22.4513 36.728 23.3893 37.414 24.6913 37.414ZM25.0973 38.52H24.7473C23.9913 38.52 23.3613 38.688 22.8713 39.01C22.3813 39.332 22.1293 39.738 22.1293 40.228C22.1293 41.292 23.1093 41.964 24.8873 41.964C26.6933 41.964 27.6593 41.32 27.6593 40.242C27.6593 39.164 26.6233 38.52 25.0973 38.52ZM27.8553 42.37C27.1413 42.874 26.1473 43.126 24.9013 43.126C23.6553 43.126 22.6613 42.874 21.9333 42.384C21.2053 41.894 20.8413 41.222 20.8413 40.354C20.8413 39.22 21.5833 38.324 22.7733 37.932C21.6953 37.582 21.1633 36.728 21.1633 35.734C21.1633 34.11 22.5353 33.074 24.8873 33.074C27.2533 33.074 28.6253 34.11 28.6253 35.734C28.6253 36.672 28.1073 37.386 27.0713 37.862C28.3173 38.24 28.9333 39.052 28.9333 40.298C28.9333 41.18 28.5693 41.88 27.8553 42.37ZM36.7872 43H35.5692V40.998H29.5772V40.186L35.7092 33.2H36.7872V39.864H38.6072V40.998H36.7872V43ZM35.5692 35.16L31.2572 39.864H35.5692V35.16ZM39.2915 38.366C39.2915 36.672 39.7115 35.37 40.5375 34.446C41.3635 33.536 42.3995 33.074 43.6455 33.074C45.2835 33.074 46.5715 33.816 47.1175 34.992L46.1655 35.636C45.5915 34.726 44.7375 34.278 43.5895 34.278C42.7215 34.278 41.9935 34.614 41.4055 35.286C40.8175 35.972 40.5235 36.896 40.5375 38.086C41.0835 37.064 42.3575 36.448 43.7575 36.448C44.8915 36.448 45.8015 36.742 46.4595 37.344C47.1175 37.946 47.4535 38.744 47.4535 39.724C47.4535 40.718 47.0895 41.544 46.3475 42.174C45.6055 42.804 44.6815 43.126 43.5755 43.126C40.9295 43.126 39.2915 41.404 39.2915 38.366ZM40.6915 39.556C40.9575 40.942 42.0075 41.922 43.5615 41.922C44.3175 41.922 44.9475 41.726 45.4375 41.32C45.9275 40.928 46.1655 40.41 46.1655 39.78C46.1655 38.394 45.1855 37.652 43.6875 37.652C42.8615 37.652 42.1755 37.848 41.6435 38.24C41.0975 38.632 40.7895 39.066 40.6915 39.556Z" fill="#1A3341"/>
<path d="M102.889 108.184C104.212 108.632 105.204 109.251 105.865 110.04C106.548 110.829 106.889 111.779 106.889 112.888V113.24C106.889 117.336 103.22 119.384 95.8809 119.384C88.5422 119.384 84.8729 117.336 84.8729 113.24V112.888C84.8729 111.779 85.2035 110.829 85.8649 110.04C86.5475 109.251 87.5502 108.632 88.8729 108.184C87.8702 107.736 87.1129 107.16 86.6009 106.456C86.0889 105.731 85.8329 104.909 85.8329 103.992V103.64C85.8329 102.445 86.2489 101.389 87.0809 100.472C87.9129 99.5547 89.0862 98.8507 90.6009 98.36C92.1155 97.8693 93.8755 97.624 95.8809 97.624C97.8862 97.624 99.6462 97.8693 101.161 98.36C102.676 98.8507 103.849 99.5547 104.681 100.472C105.513 101.389 105.929 102.445 105.929 103.64V103.992C105.929 104.909 105.673 105.731 105.161 106.456C104.649 107.16 103.892 107.736 102.889 108.184ZM88.9689 103.896C88.9689 104.984 89.5235 105.784 90.6329 106.296C91.7635 106.808 93.5129 107.064 95.8809 107.064C98.2275 107.064 99.9555 106.808 101.065 106.296C102.196 105.784 102.761 104.984 102.761 103.896V103.64C102.761 101.549 100.468 100.504 95.8809 100.504C91.2729 100.504 88.9689 101.549 88.9689 103.64V103.896ZM103.721 113.112C103.721 111.981 103.102 111.171 101.865 110.68C100.649 110.168 98.6542 109.912 95.8809 109.912C93.1075 109.912 91.1022 110.168 89.8649 110.68C88.6489 111.171 88.0409 111.981 88.0409 113.112V113.368C88.0409 114.456 88.6702 115.256 89.9289 115.768C91.1875 116.259 93.1715 116.504 95.8809 116.504C98.5902 116.504 100.574 116.259 101.833 115.768C103.092 115.256 103.721 114.456 103.721 113.368V113.112ZM141.063 108.184C142.385 108.632 143.377 109.251 144.039 110.04C144.721 110.829 145.063 111.779 145.063 112.888V113.24C145.063 117.336 141.393 119.384 134.055 119.384C126.716 119.384 123.047 117.336 123.047 113.24V112.888C123.047 111.779 123.377 110.829 124.039 110.04C124.721 109.251 125.724 108.632 127.047 108.184C126.044 107.736 125.287 107.16 124.775 106.456C124.263 105.731 124.007 104.909 124.007 103.992V103.64C124.007 102.445 124.423 101.389 125.255 100.472C126.087 99.5547 127.26 98.8507 128.775 98.36C130.289 97.8693 132.049 97.624 134.055 97.624C136.06 97.624 137.82 97.8693 139.335 98.36C140.849 98.8507 142.023 99.5547 142.855 100.472C143.687 101.389 144.103 102.445 144.103 103.64V103.992C144.103 104.909 143.847 105.731 143.335 106.456C142.823 107.16 142.065 107.736 141.063 108.184ZM127.143 103.896C127.143 104.984 127.697 105.784 128.807 106.296C129.937 106.808 131.687 107.064 134.055 107.064C136.401 107.064 138.129 106.808 139.239 106.296C140.369 105.784 140.935 104.984 140.935 103.896V103.64C140.935 101.549 138.641 100.504 134.055 100.504C129.447 100.504 127.143 101.549 127.143 103.64V103.896ZM141.895 113.112C141.895 111.981 141.276 111.171 140.039 110.68C138.823 110.168 136.828 109.912 134.055 109.912C131.281 109.912 129.276 110.168 128.039 110.68C126.823 111.171 126.215 111.981 126.215 113.112V113.368C126.215 114.456 126.844 115.256 128.103 115.768C129.361 116.259 131.345 116.504 134.055 116.504C136.764 116.504 138.748 116.259 140.007 115.768C141.265 115.256 141.895 114.456 141.895 113.368V113.112ZM160.536 106.328C163.373 106.413 165.539 106.979 167.032 108.024C168.547 109.048 169.304 110.477 169.304 112.312V112.728C169.304 114.883 168.44 116.536 166.712 117.688C164.984 118.819 162.467 119.384 159.16 119.384C155.939 119.363 153.443 118.797 151.672 117.688C149.923 116.579 149.048 115.011 149.048 112.984V112.76H152.216V112.984C152.216 114.051 152.835 114.893 154.072 115.512C155.309 116.109 157.016 116.408 159.192 116.408C161.475 116.408 163.203 116.109 164.376 115.512C165.549 114.893 166.136 113.987 166.136 112.792V112.408C166.136 110.168 163.853 109.048 159.288 109.048H155.832V106.232L163.736 100.856H149.432V98.008H168.792V100.856L160.536 106.328ZM197.625 114.232H191.993V119H188.825V114.232H173.529V111.352C175.15 108.835 176.473 106.531 177.497 104.44C178.521 102.328 179.374 100.184 180.057 98.008H183.417V98.488C182.052 102.627 179.982 106.915 177.209 111.352H188.825V101.72H191.993V111.352H197.625V114.232Z" fill="#1A3341"/>
<rect y="309" width="10" height="10" fill="url(#paint2_linear_4002_9567)"/>
<path d="M25.56 318H24.468V310.62H20.844V311.136C20.844 313.38 20.64 315.084 20.352 316.068C20.196 316.56 20.016 316.956 19.8 317.256C19.368 317.856 18.972 318.024 18.444 318.024C18.336 318.024 18.168 318.012 17.94 318V316.944C18.468 317.028 19.032 316.848 19.38 315.504C19.596 314.652 19.752 313.092 19.752 310.968V309.6H25.56V318ZM31.7892 313.332L27.9852 318H27.0612V311.76H28.0692V316.44L31.8612 311.76H32.7972V318H31.7892V313.332ZM36.3925 318.12C35.1085 318.12 34.1605 317.64 33.5725 316.692L34.3645 316.14C34.7125 316.776 35.4805 317.184 36.4045 317.184C37.4005 317.184 38.1085 316.776 38.1085 316.104C38.1085 315.552 37.6885 315.276 36.8605 315.276H35.3965V314.364H36.7885C37.4005 314.364 37.8805 314.004 37.8805 313.464C37.8805 312.876 37.2565 312.54 36.3565 312.54C35.6005 312.54 34.9765 312.828 34.5085 313.416L33.7645 312.924C34.1845 312.204 35.1445 311.604 36.4525 311.604C38.0245 311.604 38.9485 312.264 38.9485 313.308C38.9485 313.896 38.6965 314.352 38.2045 314.652C38.9245 315 39.1765 315.42 39.1765 316.08C39.1765 316.716 38.9125 317.208 38.3965 317.568C37.8805 317.94 37.2085 318.12 36.3925 318.12ZM44.9086 313.332L41.1046 318H40.1806V311.76H41.1886V316.44L44.9806 311.76H45.9166V318H44.9086V313.332ZM52.8719 318H51.8639V315.3H48.2639V318H47.2559V311.76H48.2639V314.352H51.8639V311.76H52.8719V318ZM55.222 318H54.214V311.76H58.762V312.708H55.222V318Z" fill="#76848D"/>
<rect x="95" y="309" width="10" height="10" fill="url(#paint3_linear_4002_9567)"/>
<path d="M114.128 318H113.012L116.696 309.576H117.56L121.244 318H120.104L119.168 315.876H115.052L114.128 318ZM118.76 314.916L117.104 311.1L115.46 314.916H118.76ZM122.882 320.4H121.874V311.76H122.882V312.54C123.302 311.928 123.974 311.616 124.898 311.616C125.81 311.616 126.542 311.904 127.082 312.492C127.622 313.08 127.886 313.836 127.886 314.772C127.886 315.732 127.598 316.524 127.022 317.16C126.434 317.796 125.69 318.108 124.778 318.108C123.938 318.108 123.302 317.892 122.882 317.472V320.4ZM124.79 312.564C123.878 312.564 123.17 313.152 122.882 313.86V316.188C123.242 316.836 123.842 317.16 124.694 317.16C125.306 317.16 125.822 316.944 126.218 316.512C126.614 316.08 126.818 315.528 126.818 314.844C126.818 313.452 126.038 312.564 124.79 312.564ZM133.703 316.212L134.351 316.812C133.775 317.676 132.947 318.108 131.855 318.108C130.859 318.108 130.055 317.808 129.443 317.22C128.831 316.632 128.531 315.852 128.531 314.868C128.531 313.92 128.807 313.14 129.371 312.528C129.923 311.916 130.703 311.616 131.711 311.616C132.539 311.616 133.235 311.88 133.775 312.396C134.315 312.912 134.591 313.596 134.591 314.448C134.591 314.724 134.567 314.976 134.531 315.204H129.611C129.671 316.44 130.583 317.16 131.891 317.16C132.623 317.16 133.319 316.776 133.703 316.212ZM131.639 312.54C130.499 312.54 129.755 313.236 129.599 314.292H133.523C133.463 313.188 132.755 312.54 131.639 312.54ZM141.207 318H140.199V315.3H136.599V318H135.591V311.76H136.599V314.352H140.199V311.76H141.207V318ZM142.825 319.512H141.865V317.04H142.561C143.197 316.068 143.437 314.7 143.437 312.336V311.76H148.021V317.04H148.921V319.512H147.961V318H142.825V319.512ZM147.013 312.72H144.385V313.152C144.385 314.748 144.133 316.044 143.641 317.04H147.013V312.72ZM150.221 313.26L149.705 312.504C150.281 311.964 151.277 311.616 152.201 311.616C153.869 311.616 154.757 312.528 154.757 314.148V318H153.749V317.076C153.353 317.652 152.573 318.084 151.565 318.084C150.209 318.084 149.297 317.328 149.297 316.176C149.297 314.868 150.413 314.244 152.285 314.244C152.873 314.244 153.353 314.304 153.749 314.424C153.749 313.212 153.317 312.564 152.081 312.564C151.457 312.564 150.833 312.792 150.221 313.26ZM151.805 317.172C152.273 317.172 152.693 317.04 153.041 316.788C153.389 316.536 153.617 316.248 153.749 315.948V315.312C153.401 315.192 152.957 315.132 152.417 315.132C151.049 315.132 150.365 315.468 150.365 316.14C150.365 316.776 150.941 317.172 151.805 317.172Z" fill="#76848D"/>
<rect x="192" y="308.5" width="10" height="10" fill="#184977"/>
<path d="M218.028 318H216.936V310.62H211.98V318H210.888V309.6H218.028V318ZM220.538 320.4H219.53V311.76H220.538V312.54C220.958 311.928 221.63 311.616 222.554 311.616C223.466 311.616 224.198 311.904 224.738 312.492C225.278 313.08 225.542 313.836 225.542 314.772C225.542 315.732 225.254 316.524 224.678 317.16C224.09 317.796 223.346 318.108 222.434 318.108C221.594 318.108 220.958 317.892 220.538 317.472V320.4ZM222.446 312.564C221.534 312.564 220.826 313.152 220.538 313.86V316.188C220.898 316.836 221.498 317.16 222.35 317.16C222.962 317.16 223.478 316.944 223.874 316.512C224.27 316.08 224.474 315.528 224.474 314.844C224.474 313.452 223.694 312.564 222.446 312.564ZM231.263 313.332L227.459 318H226.535V311.76H227.543V316.44L231.335 311.76H232.271V318H231.263V313.332ZM236.394 318H233.61V311.76H236.202C237.942 311.76 238.758 312.204 238.758 313.356C238.758 313.932 238.494 314.388 237.954 314.712C238.626 314.916 238.962 315.408 238.962 316.212C238.962 317.376 238.038 318 236.394 318ZM236.406 315.276H234.618V317.064H236.286C237.354 317.064 237.894 316.764 237.894 316.164C237.894 315.576 237.402 315.276 236.406 315.276ZM236.166 312.696H234.618V314.364H236.514C237.246 314.364 237.69 314.064 237.69 313.5C237.69 312.864 237.174 312.696 236.166 312.696ZM245.395 318H244.387V312.72H241.747V313.008C241.747 315.024 241.519 316.416 241.063 317.136C240.607 317.856 240.043 318.096 239.263 318V317.04C240.067 317.04 240.739 316.692 240.739 313.044V311.76H245.395V318ZM251.565 316.212L252.213 316.812C251.637 317.676 250.809 318.108 249.717 318.108C248.721 318.108 247.917 317.808 247.305 317.22C246.693 316.632 246.393 315.852 246.393 314.868C246.393 313.92 246.669 313.14 247.233 312.528C247.785 311.916 248.565 311.616 249.573 311.616C250.401 311.616 251.097 311.88 251.637 312.396C252.177 312.912 252.453 313.596 252.453 314.448C252.453 314.724 252.429 314.976 252.393 315.204H247.473C247.533 316.44 248.445 317.16 249.753 317.16C250.485 317.16 251.181 316.776 251.565 316.212ZM249.501 312.54C248.361 312.54 247.617 313.236 247.461 314.292H251.385C251.325 313.188 250.617 312.54 249.501 312.54ZM257.497 311.76H258.505V318H257.497V315.372C257.041 315.828 256.405 316.056 255.589 316.056C253.945 316.056 253.129 315.228 253.129 313.572V311.76H254.137V313.296C254.137 314.556 254.665 315.096 255.769 315.096C256.489 315.096 257.173 314.712 257.497 314.244V311.76ZM264.673 316.212L265.321 316.812C264.745 317.676 263.917 318.108 262.825 318.108C261.829 318.108 261.025 317.808 260.413 317.22C259.801 316.632 259.501 315.852 259.501 314.868C259.501 313.92 259.777 313.14 260.341 312.528C260.893 311.916 261.673 311.616 262.681 311.616C263.509 311.616 264.205 311.88 264.745 312.396C265.285 312.912 265.561 313.596 265.561 314.448C265.561 314.724 265.537 314.976 265.501 315.204H260.581C260.641 316.44 261.553 317.16 262.861 317.16C263.593 317.16 264.289 316.776 264.673 316.212ZM262.609 312.54C261.469 312.54 260.725 313.236 260.569 314.292H264.493C264.433 313.188 263.725 312.54 262.609 312.54ZM272.177 318H271.169V315.3H267.569V318H266.561V311.76H267.569V314.352H271.169V311.76H272.177V318ZM278.247 313.332L274.443 318H273.519V311.76H274.527V316.44L278.319 311.76H279.255V318H278.247V313.332ZM285.419 316.212L286.067 316.812C285.491 317.676 284.663 318.108 283.571 318.108C282.575 318.108 281.771 317.808 281.159 317.22C280.547 316.632 280.247 315.852 280.247 314.868C280.247 313.92 280.523 313.14 281.087 312.528C281.639 311.916 282.419 311.616 283.427 311.616C284.255 311.616 284.951 311.88 285.491 312.396C286.031 312.912 286.307 313.596 286.307 314.448C286.307 314.724 286.283 314.976 286.247 315.204H281.327C281.387 316.44 282.299 317.16 283.607 317.16C284.339 317.16 285.035 316.776 285.419 316.212ZM283.355 312.54C282.215 312.54 281.471 313.236 281.315 314.292H285.239C285.179 313.188 284.471 312.54 283.355 312.54Z" fill="#76848D"/>
<defs>
<linearGradient id="paint0_linear_4002_9567" x1="249" y1="107.5" x2="67.185" y2="341.662" gradientUnits="userSpaceOnUse">
<stop stop-color="#43C3BB"/>
<stop offset="1" stop-color="#78CCD1"/>
</linearGradient>
<linearGradient id="paint1_linear_4002_9567" x1="141.5" y1="0" x2="237.782" y2="174.337" gradientUnits="userSpaceOnUse">
<stop stop-color="#66CFF0"/>
<stop offset="1" stop-color="#A6E0F2"/>
</linearGradient>
<linearGradient id="paint2_linear_4002_9567" x1="5" y1="309" x2="9.47826" y2="317.109" gradientUnits="userSpaceOnUse">
<stop stop-color="#66CFF0"/>
<stop offset="1" stop-color="#A6E0F2"/>
</linearGradient>
<linearGradient id="paint3_linear_4002_9567" x1="100" y1="309" x2="105.896" y2="314.521" gradientUnits="userSpaceOnUse">
<stop stop-color="#43C3BB"/>
<stop offset="1" stop-color="#78CCD1"/>
</linearGradient>
</defs>
</svg>
