<svg width="188" height="25" viewBox="0 0 188 25" fill="none" xmlns="http://www.w3.org/2000/svg">
<path d="M6.56 2.44V3.56H2.1V5.15H6.36V6.27H2.1V7.88H6.56V9H0.85V2.44H6.56ZM13.7266 5.63C14.0399 5.76333 14.2799 5.95 14.4466 6.19C14.6132 6.42333 14.6966 6.70333 14.6966 7.03V7.14C14.6966 7.51333 14.5966 7.84 14.3966 8.12C14.2032 8.4 13.9266 8.61667 13.5666 8.77C13.2066 8.92333 12.7866 9 12.3066 9H8.27656V2.44H12.1066C12.8599 2.44 13.4432 2.59 13.8566 2.89C14.2766 3.18333 14.4866 3.6 14.4866 4.14V4.25C14.4866 4.85 14.2332 5.31 13.7266 5.63ZM9.52656 3.56V5.13H12.0966C12.4766 5.13 12.7566 5.07 12.9366 4.95C13.1232 4.83 13.2166 4.64667 13.2166 4.4V4.29C13.2166 4.05 13.1199 3.87 12.9266 3.75C12.7399 3.62333 12.4666 3.56 12.1066 3.56H9.52656ZM13.4266 6.99C13.4266 6.74333 13.3332 6.56 13.1466 6.44C12.9599 6.31333 12.6732 6.25 12.2866 6.25H9.52656V7.88H12.2866C12.6466 7.88 12.9266 7.81333 13.1266 7.68C13.3266 7.54 13.4266 7.34667 13.4266 7.1V6.99ZM20.4281 2.44C21.1815 2.44 21.7748 2.62333 22.2081 2.99C22.6481 3.35 22.8681 3.84333 22.8681 4.47V4.58C22.8681 5.20667 22.6481 5.70333 22.2081 6.07C21.7748 6.43 21.1815 6.61 20.4281 6.61H17.5781V9H16.3281V2.44H20.4281ZM20.3981 5.49C20.7848 5.49 21.0815 5.41333 21.2881 5.26C21.4948 5.1 21.5981 4.87333 21.5981 4.58V4.47C21.5981 4.17667 21.4948 3.95333 21.2881 3.8C21.0815 3.64 20.7848 3.56 20.3981 3.56H17.5781V5.49H20.3981ZM30.2005 8.81V9H28.9305L28.2505 7.5H24.7705L24.0905 9H22.8205V8.81L25.8205 2.44H27.2005L30.2005 8.81ZM27.7305 6.38L26.5105 3.7L25.2905 6.38H27.7305ZM37.1052 5.66C37.4252 5.8 37.6686 5.98333 37.8352 6.21C38.0086 6.43 38.0952 6.68667 38.0952 6.98V7.1C38.0952 7.74 37.7886 8.23667 37.1752 8.59C36.5619 8.94333 35.7019 9.12 34.5952 9.12C33.3686 9.12 32.4319 8.88667 31.7852 8.42C31.1386 7.94667 30.8152 7.26333 30.8152 6.37V6.3H32.0752V6.37C32.0752 6.91667 32.2786 7.32 32.6852 7.58C33.0986 7.83333 33.7452 7.96 34.6252 7.96C35.3852 7.96 35.9419 7.89 36.2952 7.75C36.6486 7.60333 36.8252 7.37333 36.8252 7.06V6.96C36.8252 6.78667 36.7652 6.65 36.6452 6.55C36.5319 6.45 36.3419 6.38 36.0752 6.34C35.8086 6.29333 35.4352 6.27 34.9552 6.27H33.3152V5.15H34.8952C35.5486 5.15 36.0052 5.09667 36.2652 4.99C36.5319 4.87667 36.6652 4.68667 36.6652 4.42V4.32C36.6652 3.76 35.9452 3.48 34.5052 3.48C33.6919 3.48 33.0886 3.61333 32.6952 3.88C32.3086 4.14 32.1152 4.54 32.1152 5.08V5.15H30.8552V5.08C30.8552 4.19333 31.1719 3.51333 31.8052 3.04C32.4386 2.56 33.3452 2.32 34.5252 2.32C35.5986 2.32 36.4352 2.49333 37.0352 2.84C37.6352 3.18 37.9352 3.65333 37.9352 4.26V4.38C37.9352 4.65333 37.8652 4.9 37.7252 5.12C37.5852 5.33333 37.3786 5.51333 37.1052 5.66ZM40.7953 2.44V7.3L44.7853 2.44H46.0353V9H44.7853V4.14L40.7953 9H39.5453V2.44H40.7953ZM49.1887 2.44V7.3L53.1787 2.44H54.4287V9H53.1787V4.14L49.1887 9H47.9387V2.44H49.1887ZM51.1887 1.82C50.482 1.82 49.9453 1.69333 49.5787 1.44C49.212 1.18667 49.0287 0.816666 49.0287 0.33V0.26H50.1387V0.33C50.1387 0.483333 50.2287 0.603333 50.4087 0.69C50.5953 0.769999 50.8553 0.809999 51.1887 0.809999C51.502 0.809999 51.7453 0.769999 51.9187 0.69C52.092 0.603333 52.1787 0.483333 52.1787 0.33V0.26H53.3487V0.33C53.3487 0.816666 53.1653 1.18667 52.7987 1.44C52.4387 1.69333 51.902 1.82 51.1887 1.82ZM59.922 9.12C59.142 9.12 58.4587 8.98333 57.872 8.71C57.2854 8.43667 56.832 8.05 56.512 7.55C56.1987 7.05 56.042 6.46333 56.042 5.79V5.66C56.042 4.98667 56.1987 4.4 56.512 3.9C56.832 3.39333 57.2854 3.00333 57.872 2.73C58.4587 2.45667 59.142 2.32 59.922 2.32C60.6354 2.32 61.2754 2.44 61.842 2.68C62.4154 2.91333 62.862 3.24 63.182 3.66C63.5087 4.08 63.672 4.55 63.672 5.07V5.15H62.402V5.07C62.402 4.77 62.2954 4.5 62.082 4.26C61.8754 4.01333 61.582 3.82333 61.202 3.69C60.822 3.55 60.3954 3.48 59.922 3.48C59.082 3.48 58.4354 3.66667 57.982 4.04C57.5354 4.41333 57.312 4.94667 57.312 5.64V5.81C57.312 6.50333 57.5354 7.03667 57.982 7.41C58.4287 7.77667 59.0754 7.96 59.922 7.96C60.4087 7.96 60.8387 7.89333 61.212 7.76C61.592 7.62667 61.8854 7.44 62.092 7.2C62.2987 6.96 62.402 6.68667 62.402 6.38V6.3H63.672V6.38C63.672 6.9 63.5087 7.37 63.182 7.79C62.862 8.20333 62.4154 8.53 61.842 8.77C61.2754 9.00333 60.6354 9.12 59.922 9.12ZM71.9123 2.63L68.9723 5.64L71.7923 8.81V9H70.3323L67.8223 6.23H66.5223V9H65.2723V2.44H66.5223V5.11H67.8123L70.4023 2.44H71.9123V2.63ZM74.7496 2.44V7.3L78.7396 2.44H79.9896V9H78.7396V4.14L74.7496 9H73.4996V2.44H74.7496ZM83.143 2.44V7.3L87.133 2.44H88.383V9H87.133V4.14L83.143 9H81.893V2.44H83.143ZM85.143 1.82C84.4363 1.82 83.8996 1.69333 83.533 1.44C83.1663 1.18667 82.983 0.816666 82.983 0.33V0.26H84.093V0.33C84.093 0.483333 84.183 0.603333 84.363 0.69C84.5496 0.769999 84.8096 0.809999 85.143 0.809999C85.4563 0.809999 85.6996 0.769999 85.873 0.69C86.0463 0.603333 86.133 0.483333 86.133 0.33V0.26H87.303V0.33C87.303 0.816666 87.1196 1.18667 86.753 1.44C86.393 1.69333 85.8563 1.82 85.143 1.82ZM12.03 16.63L9.26 19.64L11.91 22.81V23H10.48L8.12 20.24H6.91V23H5.66V20.24H4.45L2.09 23H0.66V22.81L3.32 19.64L0.54 16.63V16.44H2.02L4.47 19.11H5.66V16.44H6.91V19.11H8.1L10.55 16.44H12.03V16.63ZM19.3284 16.44V17.56H14.8684V19.15H19.1284V20.27H14.8684V21.88H19.3284V23H13.6184V16.44H19.3284ZM27.2849 23H26.0349V17.56L22.8749 17.57L22.8349 20.33C22.8216 21.2433 22.6383 21.9167 22.2849 22.35C21.9383 22.7833 21.4016 23 20.6749 23H20.1949V21.88H20.4449C20.7449 21.88 20.9816 21.83 21.1549 21.73C21.3283 21.6233 21.4516 21.4533 21.5249 21.22C21.6049 20.98 21.6483 20.65 21.6549 20.23L21.7149 16.44H27.2849V23ZM34.8944 16.44V17.56H30.4344V19.15H34.6944V20.27H30.4344V21.88H34.8944V23H29.1844V16.44H34.8944ZM42.7009 19.66C43.0209 19.8 43.2643 19.9833 43.4309 20.21C43.6043 20.43 43.6909 20.6867 43.6909 20.98V21.1C43.6909 21.74 43.3843 22.2367 42.7709 22.59C42.1576 22.9433 41.2976 23.12 40.1909 23.12C38.9643 23.12 38.0276 22.8867 37.3809 22.42C36.7343 21.9467 36.4109 21.2633 36.4109 20.37V20.3H37.6709V20.37C37.6709 20.9167 37.8743 21.32 38.2809 21.58C38.6943 21.8333 39.3409 21.96 40.2209 21.96C40.9809 21.96 41.5376 21.89 41.8909 21.75C42.2443 21.6033 42.4209 21.3733 42.4209 21.06V20.96C42.4209 20.7867 42.3609 20.65 42.2409 20.55C42.1276 20.45 41.9376 20.38 41.6709 20.34C41.4043 20.2933 41.0309 20.27 40.5509 20.27H38.9109V19.15H40.4909C41.1443 19.15 41.6009 19.0967 41.8609 18.99C42.1276 18.8767 42.2609 18.6867 42.2609 18.42V18.32C42.2609 17.76 41.5409 17.48 40.1009 17.48C39.2876 17.48 38.6843 17.6133 38.2909 17.88C37.9043 18.14 37.7109 18.54 37.7109 19.08V19.15H36.4509V19.08C36.4509 18.1933 36.7676 17.5133 37.4009 17.04C38.0343 16.56 38.9409 16.32 40.1209 16.32C41.1943 16.32 42.0309 16.4933 42.6309 16.84C43.2309 17.18 43.5309 17.6533 43.5309 18.26V18.38C43.5309 18.6533 43.4609 18.9 43.3209 19.12C43.1809 19.3333 42.9743 19.5133 42.7009 19.66ZM46.391 16.44V19.16H50.381V16.44H51.631V23H50.381V20.28H46.391V23H45.141V16.44H46.391ZM57.0744 23.12C56.301 23.12 55.6244 22.9833 55.0444 22.71C54.471 22.4367 54.0277 22.05 53.7144 21.55C53.401 21.0433 53.2444 20.4533 53.2444 19.78V19.67C53.2444 18.9967 53.401 18.4067 53.7144 17.9C54.0277 17.3933 54.4744 17.0033 55.0544 16.73C55.6344 16.4567 56.3077 16.32 57.0744 16.32C57.841 16.32 58.511 16.4567 59.0844 16.73C59.6644 17.0033 60.111 17.3933 60.4244 17.9C60.7377 18.4067 60.8944 18.9967 60.8944 19.67V19.78C60.8944 20.4533 60.7377 21.0433 60.4244 21.55C60.111 22.05 59.6677 22.4367 59.0944 22.71C58.521 22.9833 57.8477 23.12 57.0744 23.12ZM57.0744 21.96C57.8877 21.96 58.5144 21.7733 58.9544 21.4C59.401 21.02 59.6244 20.4867 59.6244 19.8V19.66C59.6244 18.9733 59.401 18.44 58.9544 18.06C58.5144 17.6733 57.8877 17.48 57.0744 17.48C56.261 17.48 55.631 17.6733 55.1844 18.06C54.7377 18.44 54.5144 18.9733 54.5144 19.66V19.8C54.5144 20.4867 54.7377 21.02 55.1844 21.4C55.631 21.7733 56.261 21.96 57.0744 21.96ZM69.5933 21.88V24.33H68.3433V23H62.7133V24.33H61.4633V21.88H62.3033C62.6966 21.26 62.8966 20.5033 62.9033 19.61L62.9533 16.44H68.5733V21.88H69.5933ZM64.0633 19.65C64.0433 20.55 63.8733 21.2933 63.5533 21.88H67.3333V17.56H64.1133L64.0633 19.65ZM74.281 23.12C73.5077 23.12 72.831 22.9833 72.251 22.71C71.6777 22.4367 71.2343 22.05 70.921 21.55C70.6077 21.0433 70.451 20.4533 70.451 19.78V19.67C70.451 18.9967 70.6077 18.4067 70.921 17.9C71.2343 17.3933 71.681 17.0033 72.261 16.73C72.841 16.4567 73.5143 16.32 74.281 16.32C75.0477 16.32 75.7177 16.4567 76.291 16.73C76.871 17.0033 77.3177 17.3933 77.631 17.9C77.9443 18.4067 78.101 18.9967 78.101 19.67V19.78C78.101 20.4533 77.9443 21.0433 77.631 21.55C77.3177 22.05 76.8743 22.4367 76.301 22.71C75.7277 22.9833 75.0543 23.12 74.281 23.12ZM74.281 21.96C75.0943 21.96 75.721 21.7733 76.161 21.4C76.6077 21.02 76.831 20.4867 76.831 19.8V19.66C76.831 18.9733 76.6077 18.44 76.161 18.06C75.721 17.6733 75.0943 17.48 74.281 17.48C73.4677 17.48 72.8377 17.6733 72.391 18.06C71.9443 18.44 71.721 18.9733 71.721 19.66V19.8C71.721 20.4867 71.9443 21.02 72.391 21.4C72.8377 21.7733 73.4677 21.96 74.281 21.96ZM83.8106 16.44C84.5639 16.44 85.1572 16.6233 85.5906 16.99C86.0306 17.35 86.2506 17.8433 86.2506 18.47V18.58C86.2506 19.2067 86.0306 19.7033 85.5906 20.07C85.1572 20.43 84.5639 20.61 83.8106 20.61H80.9606V23H79.7105V16.44H83.8106ZM83.7806 19.49C84.1672 19.49 84.4639 19.4133 84.6706 19.26C84.8772 19.1 84.9806 18.8733 84.9806 18.58V18.47C84.9806 18.1767 84.8772 17.9533 84.6706 17.8C84.4639 17.64 84.1672 17.56 83.7806 17.56H80.9606V19.49H83.7806ZM91.3216 23.12C90.5483 23.12 89.8716 22.9833 89.2916 22.71C88.7183 22.4367 88.275 22.05 87.9616 21.55C87.6483 21.0433 87.4916 20.4533 87.4916 19.78V19.67C87.4916 18.9967 87.6483 18.4067 87.9616 17.9C88.275 17.3933 88.7216 17.0033 89.3016 16.73C89.8816 16.4567 90.555 16.32 91.3216 16.32C92.0883 16.32 92.7583 16.4567 93.3316 16.73C93.9116 17.0033 94.3583 17.3933 94.6716 17.9C94.985 18.4067 95.1416 18.9967 95.1416 19.67V19.78C95.1416 20.4533 94.985 21.0433 94.6716 21.55C94.3583 22.05 93.915 22.4367 93.3416 22.71C92.7683 22.9833 92.095 23.12 91.3216 23.12ZM91.3216 21.96C92.135 21.96 92.7616 21.7733 93.2016 21.4C93.6483 21.02 93.8716 20.4867 93.8716 19.8V19.66C93.8716 18.9733 93.6483 18.44 93.2016 18.06C92.7616 17.6733 92.135 17.48 91.3216 17.48C90.5083 17.48 89.8783 17.6733 89.4316 18.06C88.985 18.44 88.7616 18.9733 88.7616 19.66V19.8C88.7616 20.4867 88.985 21.02 89.4316 21.4C89.8783 21.7733 90.5083 21.96 91.3216 21.96ZM107.482 16.63L104.712 19.64L107.362 22.81V23H105.932L103.572 20.24H102.362V23H101.112V20.24H99.902L97.542 23H96.112V22.81L98.772 19.64L95.992 16.63V16.44H97.472L99.922 19.11H101.112V16.44H102.362V19.11H103.552L106.002 16.44H107.482V16.63ZM110.32 16.44V19.16H114.31V16.44H115.56V23H114.31V20.28H110.32V23H109.07V16.44H110.32ZM118.754 16.44V18.84H121.444C122.204 18.84 122.8 19.02 123.234 19.38C123.667 19.74 123.884 20.2333 123.884 20.86V20.99C123.884 21.6233 123.667 22.1167 123.234 22.47C122.8 22.8233 122.204 23 121.444 23H117.504V16.44H118.754ZM125.854 16.44V23H124.604V16.44H125.854ZM121.414 21.88C121.794 21.88 122.087 21.8033 122.294 21.65C122.507 21.4967 122.614 21.2767 122.614 20.99V20.86C122.614 20.5733 122.507 20.3533 122.294 20.2C122.08 20.04 121.787 19.96 121.414 19.96H118.754V21.88H121.414ZM129.041 16.44V21.3L133.031 16.44H134.281V23H133.031V18.14L129.041 23H127.791V16.44H129.041ZM131.041 15.82C130.334 15.82 129.797 15.6933 129.431 15.44C129.064 15.1867 128.881 14.8167 128.881 14.33V14.26H129.991V14.33C129.991 14.4833 130.081 14.6033 130.261 14.69C130.447 14.77 130.707 14.81 131.041 14.81C131.354 14.81 131.597 14.77 131.771 14.69C131.944 14.6033 132.031 14.4833 132.031 14.33V14.26H133.201V14.33C133.201 14.8167 133.017 15.1867 132.651 15.44C132.291 15.6933 131.754 15.82 131.041 15.82ZM146.492 22.81V23H145.222L144.542 21.5H141.062L140.382 23H139.112V22.81L142.112 16.44H143.492L146.492 22.81ZM144.022 20.38L142.802 17.7L141.582 20.38H144.022ZM154.025 23H152.775V17.56L149.615 17.57L149.575 20.33C149.562 21.2433 149.378 21.9167 149.025 22.35C148.678 22.7833 148.142 23 147.415 23H146.935V21.88H147.185C147.485 21.88 147.722 21.83 147.895 21.73C148.068 21.6233 148.192 21.4533 148.265 21.22C148.345 20.98 148.388 20.65 148.395 20.23L148.455 16.44H154.025V23ZM157.175 16.44V18.83H159.915C160.675 18.83 161.271 19.01 161.705 19.37C162.138 19.73 162.355 20.2233 162.355 20.85V20.98C162.355 21.6133 162.138 22.11 161.705 22.47C161.271 22.8233 160.675 23 159.915 23H155.925V16.44H157.175ZM159.885 21.88C160.265 21.88 160.558 21.8 160.765 21.64C160.978 21.48 161.085 21.2533 161.085 20.96V20.86C161.085 20.5733 160.978 20.35 160.765 20.19C160.551 20.03 160.258 19.95 159.885 19.95H157.175V21.88H159.885ZM169.955 16.44V23H168.705V20.59H167.305L164.945 23H163.445V22.81L165.615 20.58C164.935 20.5467 164.399 20.3533 164.005 20C163.612 19.64 163.415 19.1667 163.415 18.58V18.47C163.415 17.8433 163.632 17.35 164.065 16.99C164.505 16.6233 165.102 16.44 165.855 16.44H169.955ZM168.705 17.56H165.885C165.499 17.56 165.202 17.64 164.995 17.8C164.789 17.9533 164.685 18.1767 164.685 18.47V18.58C164.685 18.8733 164.789 19.1 164.995 19.26C165.202 19.4133 165.499 19.49 165.885 19.49H168.705V17.56ZM173.102 16.44V19.16H177.092V16.44H178.342V23H177.092V20.28H173.102V23H171.852V16.44H173.102ZM183.835 23.12C183.055 23.12 182.372 22.9833 181.785 22.71C181.199 22.4367 180.745 22.05 180.425 21.55C180.112 21.05 179.955 20.4633 179.955 19.79V19.66C179.955 18.9867 180.112 18.4 180.425 17.9C180.745 17.3933 181.199 17.0033 181.785 16.73C182.372 16.4567 183.055 16.32 183.835 16.32C184.549 16.32 185.189 16.44 185.755 16.68C186.329 16.9133 186.775 17.24 187.095 17.66C187.422 18.08 187.585 18.55 187.585 19.07V19.15H186.315V19.07C186.315 18.77 186.209 18.5 185.995 18.26C185.789 18.0133 185.495 17.8233 185.115 17.69C184.735 17.55 184.309 17.48 183.835 17.48C182.995 17.48 182.349 17.6667 181.895 18.04C181.449 18.4133 181.225 18.9467 181.225 19.64V19.81C181.225 20.5033 181.449 21.0367 181.895 21.41C182.342 21.7767 182.989 21.96 183.835 21.96C184.322 21.96 184.752 21.8933 185.125 21.76C185.505 21.6267 185.799 21.44 186.005 21.2C186.212 20.96 186.315 20.6867 186.315 20.38V20.3H187.585V20.38C187.585 20.9 187.422 21.37 187.095 21.79C186.775 22.2033 186.329 22.53 185.755 22.77C185.189 23.0033 184.549 23.12 183.835 23.12Z" fill="currentColor"/>
<path d="M6.56 2.44V3.56H2.1V5.15H6.36V6.27H2.1V7.88H6.56V9H0.85V2.44H6.56ZM13.7266 5.63C14.0399 5.76333 14.2799 5.95 14.4466 6.19C14.6132 6.42333 14.6966 6.70333 14.6966 7.03V7.14C14.6966 7.51333 14.5966 7.84 14.3966 8.12C14.2032 8.4 13.9266 8.61667 13.5666 8.77C13.2066 8.92333 12.7866 9 12.3066 9H8.27656V2.44H12.1066C12.8599 2.44 13.4432 2.59 13.8566 2.89C14.2766 3.18333 14.4866 3.6 14.4866 4.14V4.25C14.4866 4.85 14.2332 5.31 13.7266 5.63ZM9.52656 3.56V5.13H12.0966C12.4766 5.13 12.7566 5.07 12.9366 4.95C13.1232 4.83 13.2166 4.64667 13.2166 4.4V4.29C13.2166 4.05 13.1199 3.87 12.9266 3.75C12.7399 3.62333 12.4666 3.56 12.1066 3.56H9.52656ZM13.4266 6.99C13.4266 6.74333 13.3332 6.56 13.1466 6.44C12.9599 6.31333 12.6732 6.25 12.2866 6.25H9.52656V7.88H12.2866C12.6466 7.88 12.9266 7.81333 13.1266 7.68C13.3266 7.54 13.4266 7.34667 13.4266 7.1V6.99ZM20.4281 2.44C21.1815 2.44 21.7748 2.62333 22.2081 2.99C22.6481 3.35 22.8681 3.84333 22.8681 4.47V4.58C22.8681 5.20667 22.6481 5.70333 22.2081 6.07C21.7748 6.43 21.1815 6.61 20.4281 6.61H17.5781V9H16.3281V2.44H20.4281ZM20.3981 5.49C20.7848 5.49 21.0815 5.41333 21.2881 5.26C21.4948 5.1 21.5981 4.87333 21.5981 4.58V4.47C21.5981 4.17667 21.4948 3.95333 21.2881 3.8C21.0815 3.64 20.7848 3.56 20.3981 3.56H17.5781V5.49H20.3981ZM30.2005 8.81V9H28.9305L28.2505 7.5H24.7705L24.0905 9H22.8205V8.81L25.8205 2.44H27.2005L30.2005 8.81ZM27.7305 6.38L26.5105 3.7L25.2905 6.38H27.7305ZM37.1052 5.66C37.4252 5.8 37.6686 5.98333 37.8352 6.21C38.0086 6.43 38.0952 6.68667 38.0952 6.98V7.1C38.0952 7.74 37.7886 8.23667 37.1752 8.59C36.5619 8.94333 35.7019 9.12 34.5952 9.12C33.3686 9.12 32.4319 8.88667 31.7852 8.42C31.1386 7.94667 30.8152 7.26333 30.8152 6.37V6.3H32.0752V6.37C32.0752 6.91667 32.2786 7.32 32.6852 7.58C33.0986 7.83333 33.7452 7.96 34.6252 7.96C35.3852 7.96 35.9419 7.89 36.2952 7.75C36.6486 7.60333 36.8252 7.37333 36.8252 7.06V6.96C36.8252 6.78667 36.7652 6.65 36.6452 6.55C36.5319 6.45 36.3419 6.38 36.0752 6.34C35.8086 6.29333 35.4352 6.27 34.9552 6.27H33.3152V5.15H34.8952C35.5486 5.15 36.0052 5.09667 36.2652 4.99C36.5319 4.87667 36.6652 4.68667 36.6652 4.42V4.32C36.6652 3.76 35.9452 3.48 34.5052 3.48C33.6919 3.48 33.0886 3.61333 32.6952 3.88C32.3086 4.14 32.1152 4.54 32.1152 5.08V5.15H30.8552V5.08C30.8552 4.19333 31.1719 3.51333 31.8052 3.04C32.4386 2.56 33.3452 2.32 34.5252 2.32C35.5986 2.32 36.4352 2.49333 37.0352 2.84C37.6352 3.18 37.9352 3.65333 37.9352 4.26V4.38C37.9352 4.65333 37.8652 4.9 37.7252 5.12C37.5852 5.33333 37.3786 5.51333 37.1052 5.66ZM40.7953 2.44V7.3L44.7853 2.44H46.0353V9H44.7853V4.14L40.7953 9H39.5453V2.44H40.7953ZM49.1887 2.44V7.3L53.1787 2.44H54.4287V9H53.1787V4.14L49.1887 9H47.9387V2.44H49.1887ZM51.1887 1.82C50.482 1.82 49.9453 1.69333 49.5787 1.44C49.212 1.18667 49.0287 0.816666 49.0287 0.33V0.26H50.1387V0.33C50.1387 0.483333 50.2287 0.603333 50.4087 0.69C50.5953 0.769999 50.8553 0.809999 51.1887 0.809999C51.502 0.809999 51.7453 0.769999 51.9187 0.69C52.092 0.603333 52.1787 0.483333 52.1787 0.33V0.26H53.3487V0.33C53.3487 0.816666 53.1653 1.18667 52.7987 1.44C52.4387 1.69333 51.902 1.82 51.1887 1.82ZM59.922 9.12C59.142 9.12 58.4587 8.98333 57.872 8.71C57.2854 8.43667 56.832 8.05 56.512 7.55C56.1987 7.05 56.042 6.46333 56.042 5.79V5.66C56.042 4.98667 56.1987 4.4 56.512 3.9C56.832 3.39333 57.2854 3.00333 57.872 2.73C58.4587 2.45667 59.142 2.32 59.922 2.32C60.6354 2.32 61.2754 2.44 61.842 2.68C62.4154 2.91333 62.862 3.24 63.182 3.66C63.5087 4.08 63.672 4.55 63.672 5.07V5.15H62.402V5.07C62.402 4.77 62.2954 4.5 62.082 4.26C61.8754 4.01333 61.582 3.82333 61.202 3.69C60.822 3.55 60.3954 3.48 59.922 3.48C59.082 3.48 58.4354 3.66667 57.982 4.04C57.5354 4.41333 57.312 4.94667 57.312 5.64V5.81C57.312 6.50333 57.5354 7.03667 57.982 7.41C58.4287 7.77667 59.0754 7.96 59.922 7.96C60.4087 7.96 60.8387 7.89333 61.212 7.76C61.592 7.62667 61.8854 7.44 62.092 7.2C62.2987 6.96 62.402 6.68667 62.402 6.38V6.3H63.672V6.38C63.672 6.9 63.5087 7.37 63.182 7.79C62.862 8.20333 62.4154 8.53 61.842 8.77C61.2754 9.00333 60.6354 9.12 59.922 9.12ZM71.9123 2.63L68.9723 5.64L71.7923 8.81V9H70.3323L67.8223 6.23H66.5223V9H65.2723V2.44H66.5223V5.11H67.8123L70.4023 2.44H71.9123V2.63ZM74.7496 2.44V7.3L78.7396 2.44H79.9896V9H78.7396V4.14L74.7496 9H73.4996V2.44H74.7496ZM83.143 2.44V7.3L87.133 2.44H88.383V9H87.133V4.14L83.143 9H81.893V2.44H83.143ZM85.143 1.82C84.4363 1.82 83.8996 1.69333 83.533 1.44C83.1663 1.18667 82.983 0.816666 82.983 0.33V0.26H84.093V0.33C84.093 0.483333 84.183 0.603333 84.363 0.69C84.5496 0.769999 84.8096 0.809999 85.143 0.809999C85.4563 0.809999 85.6996 0.769999 85.873 0.69C86.0463 0.603333 86.133 0.483333 86.133 0.33V0.26H87.303V0.33C87.303 0.816666 87.1196 1.18667 86.753 1.44C86.393 1.69333 85.8563 1.82 85.143 1.82ZM12.03 16.63L9.26 19.64L11.91 22.81V23H10.48L8.12 20.24H6.91V23H5.66V20.24H4.45L2.09 23H0.66V22.81L3.32 19.64L0.54 16.63V16.44H2.02L4.47 19.11H5.66V16.44H6.91V19.11H8.1L10.55 16.44H12.03V16.63ZM19.3284 16.44V17.56H14.8684V19.15H19.1284V20.27H14.8684V21.88H19.3284V23H13.6184V16.44H19.3284ZM27.2849 23H26.0349V17.56L22.8749 17.57L22.8349 20.33C22.8216 21.2433 22.6383 21.9167 22.2849 22.35C21.9383 22.7833 21.4016 23 20.6749 23H20.1949V21.88H20.4449C20.7449 21.88 20.9816 21.83 21.1549 21.73C21.3283 21.6233 21.4516 21.4533 21.5249 21.22C21.6049 20.98 21.6483 20.65 21.6549 20.23L21.7149 16.44H27.2849V23ZM34.8944 16.44V17.56H30.4344V19.15H34.6944V20.27H30.4344V21.88H34.8944V23H29.1844V16.44H34.8944ZM42.7009 19.66C43.0209 19.8 43.2643 19.9833 43.4309 20.21C43.6043 20.43 43.6909 20.6867 43.6909 20.98V21.1C43.6909 21.74 43.3843 22.2367 42.7709 22.59C42.1576 22.9433 41.2976 23.12 40.1909 23.12C38.9643 23.12 38.0276 22.8867 37.3809 22.42C36.7343 21.9467 36.4109 21.2633 36.4109 20.37V20.3H37.6709V20.37C37.6709 20.9167 37.8743 21.32 38.2809 21.58C38.6943 21.8333 39.3409 21.96 40.2209 21.96C40.9809 21.96 41.5376 21.89 41.8909 21.75C42.2443 21.6033 42.4209 21.3733 42.4209 21.06V20.96C42.4209 20.7867 42.3609 20.65 42.2409 20.55C42.1276 20.45 41.9376 20.38 41.6709 20.34C41.4043 20.2933 41.0309 20.27 40.5509 20.27H38.9109V19.15H40.4909C41.1443 19.15 41.6009 19.0967 41.8609 18.99C42.1276 18.8767 42.2609 18.6867 42.2609 18.42V18.32C42.2609 17.76 41.5409 17.48 40.1009 17.48C39.2876 17.48 38.6843 17.6133 38.2909 17.88C37.9043 18.14 37.7109 18.54 37.7109 19.08V19.15H36.4509V19.08C36.4509 18.1933 36.7676 17.5133 37.4009 17.04C38.0343 16.56 38.9409 16.32 40.1209 16.32C41.1943 16.32 42.0309 16.4933 42.6309 16.84C43.2309 17.18 43.5309 17.6533 43.5309 18.26V18.38C43.5309 18.6533 43.4609 18.9 43.3209 19.12C43.1809 19.3333 42.9743 19.5133 42.7009 19.66ZM46.391 16.44V19.16H50.381V16.44H51.631V23H50.381V20.28H46.391V23H45.141V16.44H46.391ZM57.0744 23.12C56.301 23.12 55.6244 22.9833 55.0444 22.71C54.471 22.4367 54.0277 22.05 53.7144 21.55C53.401 21.0433 53.2444 20.4533 53.2444 19.78V19.67C53.2444 18.9967 53.401 18.4067 53.7144 17.9C54.0277 17.3933 54.4744 17.0033 55.0544 16.73C55.6344 16.4567 56.3077 16.32 57.0744 16.32C57.841 16.32 58.511 16.4567 59.0844 16.73C59.6644 17.0033 60.111 17.3933 60.4244 17.9C60.7377 18.4067 60.8944 18.9967 60.8944 19.67V19.78C60.8944 20.4533 60.7377 21.0433 60.4244 21.55C60.111 22.05 59.6677 22.4367 59.0944 22.71C58.521 22.9833 57.8477 23.12 57.0744 23.12ZM57.0744 21.96C57.8877 21.96 58.5144 21.7733 58.9544 21.4C59.401 21.02 59.6244 20.4867 59.6244 19.8V19.66C59.6244 18.9733 59.401 18.44 58.9544 18.06C58.5144 17.6733 57.8877 17.48 57.0744 17.48C56.261 17.48 55.631 17.6733 55.1844 18.06C54.7377 18.44 54.5144 18.9733 54.5144 19.66V19.8C54.5144 20.4867 54.7377 21.02 55.1844 21.4C55.631 21.7733 56.261 21.96 57.0744 21.96ZM69.5933 21.88V24.33H68.3433V23H62.7133V24.33H61.4633V21.88H62.3033C62.6966 21.26 62.8966 20.5033 62.9033 19.61L62.9533 16.44H68.5733V21.88H69.5933ZM64.0633 19.65C64.0433 20.55 63.8733 21.2933 63.5533 21.88H67.3333V17.56H64.1133L64.0633 19.65ZM74.281 23.12C73.5077 23.12 72.831 22.9833 72.251 22.71C71.6777 22.4367 71.2343 22.05 70.921 21.55C70.6077 21.0433 70.451 20.4533 70.451 19.78V19.67C70.451 18.9967 70.6077 18.4067 70.921 17.9C71.2343 17.3933 71.681 17.0033 72.261 16.73C72.841 16.4567 73.5143 16.32 74.281 16.32C75.0477 16.32 75.7177 16.4567 76.291 16.73C76.871 17.0033 77.3177 17.3933 77.631 17.9C77.9443 18.4067 78.101 18.9967 78.101 19.67V19.78C78.101 20.4533 77.9443 21.0433 77.631 21.55C77.3177 22.05 76.8743 22.4367 76.301 22.71C75.7277 22.9833 75.0543 23.12 74.281 23.12ZM74.281 21.96C75.0943 21.96 75.721 21.7733 76.161 21.4C76.6077 21.02 76.831 20.4867 76.831 19.8V19.66C76.831 18.9733 76.6077 18.44 76.161 18.06C75.721 17.6733 75.0943 17.48 74.281 17.48C73.4677 17.48 72.8377 17.6733 72.391 18.06C71.9443 18.44 71.721 18.9733 71.721 19.66V19.8C71.721 20.4867 71.9443 21.02 72.391 21.4C72.8377 21.7733 73.4677 21.96 74.281 21.96ZM83.8106 16.44C84.5639 16.44 85.1572 16.6233 85.5906 16.99C86.0306 17.35 86.2506 17.8433 86.2506 18.47V18.58C86.2506 19.2067 86.0306 19.7033 85.5906 20.07C85.1572 20.43 84.5639 20.61 83.8106 20.61H80.9606V23H79.7105V16.44H83.8106ZM83.7806 19.49C84.1672 19.49 84.4639 19.4133 84.6706 19.26C84.8772 19.1 84.9806 18.8733 84.9806 18.58V18.47C84.9806 18.1767 84.8772 17.9533 84.6706 17.8C84.4639 17.64 84.1672 17.56 83.7806 17.56H80.9606V19.49H83.7806ZM91.3216 23.12C90.5483 23.12 89.8716 22.9833 89.2916 22.71C88.7183 22.4367 88.275 22.05 87.9616 21.55C87.6483 21.0433 87.4916 20.4533 87.4916 19.78V19.67C87.4916 18.9967 87.6483 18.4067 87.9616 17.9C88.275 17.3933 88.7216 17.0033 89.3016 16.73C89.8816 16.4567 90.555 16.32 91.3216 16.32C92.0883 16.32 92.7583 16.4567 93.3316 16.73C93.9116 17.0033 94.3583 17.3933 94.6716 17.9C94.985 18.4067 95.1416 18.9967 95.1416 19.67V19.78C95.1416 20.4533 94.985 21.0433 94.6716 21.55C94.3583 22.05 93.915 22.4367 93.3416 22.71C92.7683 22.9833 92.095 23.12 91.3216 23.12ZM91.3216 21.96C92.135 21.96 92.7616 21.7733 93.2016 21.4C93.6483 21.02 93.8716 20.4867 93.8716 19.8V19.66C93.8716 18.9733 93.6483 18.44 93.2016 18.06C92.7616 17.6733 92.135 17.48 91.3216 17.48C90.5083 17.48 89.8783 17.6733 89.4316 18.06C88.985 18.44 88.7616 18.9733 88.7616 19.66V19.8C88.7616 20.4867 88.985 21.02 89.4316 21.4C89.8783 21.7733 90.5083 21.96 91.3216 21.96ZM107.482 16.63L104.712 19.64L107.362 22.81V23H105.932L103.572 20.24H102.362V23H101.112V20.24H99.902L97.542 23H96.112V22.81L98.772 19.64L95.992 16.63V16.44H97.472L99.922 19.11H101.112V16.44H102.362V19.11H103.552L106.002 16.44H107.482V16.63ZM110.32 16.44V19.16H114.31V16.44H115.56V23H114.31V20.28H110.32V23H109.07V16.44H110.32ZM118.754 16.44V18.84H121.444C122.204 18.84 122.8 19.02 123.234 19.38C123.667 19.74 123.884 20.2333 123.884 20.86V20.99C123.884 21.6233 123.667 22.1167 123.234 22.47C122.8 22.8233 122.204 23 121.444 23H117.504V16.44H118.754ZM125.854 16.44V23H124.604V16.44H125.854ZM121.414 21.88C121.794 21.88 122.087 21.8033 122.294 21.65C122.507 21.4967 122.614 21.2767 122.614 20.99V20.86C122.614 20.5733 122.507 20.3533 122.294 20.2C122.08 20.04 121.787 19.96 121.414 19.96H118.754V21.88H121.414ZM129.041 16.44V21.3L133.031 16.44H134.281V23H133.031V18.14L129.041 23H127.791V16.44H129.041ZM131.041 15.82C130.334 15.82 129.797 15.6933 129.431 15.44C129.064 15.1867 128.881 14.8167 128.881 14.33V14.26H129.991V14.33C129.991 14.4833 130.081 14.6033 130.261 14.69C130.447 14.77 130.707 14.81 131.041 14.81C131.354 14.81 131.597 14.77 131.771 14.69C131.944 14.6033 132.031 14.4833 132.031 14.33V14.26H133.201V14.33C133.201 14.8167 133.017 15.1867 132.651 15.44C132.291 15.6933 131.754 15.82 131.041 15.82ZM146.492 22.81V23H145.222L144.542 21.5H141.062L140.382 23H139.112V22.81L142.112 16.44H143.492L146.492 22.81ZM144.022 20.38L142.802 17.7L141.582 20.38H144.022ZM154.025 23H152.775V17.56L149.615 17.57L149.575 20.33C149.562 21.2433 149.378 21.9167 149.025 22.35C148.678 22.7833 148.142 23 147.415 23H146.935V21.88H147.185C147.485 21.88 147.722 21.83 147.895 21.73C148.068 21.6233 148.192 21.4533 148.265 21.22C148.345 20.98 148.388 20.65 148.395 20.23L148.455 16.44H154.025V23ZM157.175 16.44V18.83H159.915C160.675 18.83 161.271 19.01 161.705 19.37C162.138 19.73 162.355 20.2233 162.355 20.85V20.98C162.355 21.6133 162.138 22.11 161.705 22.47C161.271 22.8233 160.675 23 159.915 23H155.925V16.44H157.175ZM159.885 21.88C160.265 21.88 160.558 21.8 160.765 21.64C160.978 21.48 161.085 21.2533 161.085 20.96V20.86C161.085 20.5733 160.978 20.35 160.765 20.19C160.551 20.03 160.258 19.95 159.885 19.95H157.175V21.88H159.885ZM169.955 16.44V23H168.705V20.59H167.305L164.945 23H163.445V22.81L165.615 20.58C164.935 20.5467 164.399 20.3533 164.005 20C163.612 19.64 163.415 19.1667 163.415 18.58V18.47C163.415 17.8433 163.632 17.35 164.065 16.99C164.505 16.6233 165.102 16.44 165.855 16.44H169.955ZM168.705 17.56H165.885C165.499 17.56 165.202 17.64 164.995 17.8C164.789 17.9533 164.685 18.1767 164.685 18.47V18.58C164.685 18.8733 164.789 19.1 164.995 19.26C165.202 19.4133 165.499 19.49 165.885 19.49H168.705V17.56ZM173.102 16.44V19.16H177.092V16.44H178.342V23H177.092V20.28H173.102V23H171.852V16.44H173.102ZM183.835 23.12C183.055 23.12 182.372 22.9833 181.785 22.71C181.199 22.4367 180.745 22.05 180.425 21.55C180.112 21.05 179.955 20.4633 179.955 19.79V19.66C179.955 18.9867 180.112 18.4 180.425 17.9C180.745 17.3933 181.199 17.0033 181.785 16.73C182.372 16.4567 183.055 16.32 183.835 16.32C184.549 16.32 185.189 16.44 185.755 16.68C186.329 16.9133 186.775 17.24 187.095 17.66C187.422 18.08 187.585 18.55 187.585 19.07V19.15H186.315V19.07C186.315 18.77 186.209 18.5 185.995 18.26C185.789 18.0133 185.495 17.8233 185.115 17.69C184.735 17.55 184.309 17.48 183.835 17.48C182.995 17.48 182.349 17.6667 181.895 18.04C181.449 18.4133 181.225 18.9467 181.225 19.64V19.81C181.225 20.5033 181.449 21.0367 181.895 21.41C182.342 21.7767 182.989 21.96 183.835 21.96C184.322 21.96 184.752 21.8933 185.125 21.76C185.505 21.6267 185.799 21.44 186.005 21.2C186.212 20.96 186.315 20.6867 186.315 20.38V20.3H187.585V20.38C187.585 20.9 187.422 21.37 187.095 21.79C186.775 22.2033 186.329 22.53 185.755 22.77C185.189 23.0033 184.549 23.12 183.835 23.12Z" fill="currentColor"/>
</svg>
