<svg width="1240" height="600" viewBox="0 0 1240 600" fill="none" xmlns="http://www.w3.org/2000/svg" xmlns:xlink="http://www.w3.org/1999/xlink">
<g clip-path="url(#clip0_237_23399)">
<rect width="1240" height="600" fill=""/>
<path opacity="0.14" d="M149.901 651.477L54.2695 476.641L172.489 408.584L1091.85 78.8589L1460 628.889L149.901 651.477Z"/>
<path d="M464.959 653.237L295.109 406.237L417.729 346.98L1091.85 78.8589L1460 628.889L464.959 653.237Z" fill-opacity="0.13"/>
<path d="M464.959 653.237L295.109 406.237L417.729 346.98L1091.85 78.8589L1460 628.889L464.959 653.237Z" fill-opacity="0.05"/>
<path d="M464.959 653.237L295.109 406.237L417.729 346.98L1091.85 78.8589L1460 628.889L464.959 653.237Z" fill-opacity="0.28"/>
<path opacity="0.12" d="M708.145 632.409L582.005 455.226L627.181 420.611L740.707 474L862.154 410.343L826.072 351.967L920.823 384.235L1098.3 632.409H708.145Z"/>
<rect y="-20" width="1126.46" height="633.635" fill=""/>
<path opacity="0.85" d="M598.656 408.319L598.656 299.164" stroke="#3C525E"/>
<path opacity="0.85" d="M237.027 320.872L237 251" stroke="#3C525E"/>
<path opacity="0.85" d="M613.101 391.383L613.101 323.512" stroke="#3C525E"/>
<path d="M619.516 336.311H617.644V332.535H618.844C619.26 331.911 619.58 331.047 619.788 329.927C619.996 328.807 620.092 327.095 620.092 324.775V323.143H628.012V332.535H629.372V336.311H627.5V334.343H619.516V336.311ZM626.076 324.951H621.932V325.655C621.932 328.903 621.58 331.207 620.86 332.535H626.076V324.951ZM629.592 330.167C629.592 328.903 630.008 327.863 630.84 327.047C631.656 326.231 632.728 325.831 634.04 325.831C635.352 325.831 636.424 326.231 637.256 327.047C638.088 327.863 638.504 328.903 638.504 330.167C638.504 331.415 638.088 332.439 637.256 333.255C636.424 334.071 635.352 334.487 634.04 334.487C632.744 334.487 631.688 334.071 630.856 333.255C630.008 332.439 629.592 331.415 629.592 330.167ZM631.48 330.167C631.48 330.919 631.72 331.543 632.2 332.039C632.664 332.535 633.288 332.791 634.04 332.791C635.576 332.791 636.616 331.751 636.616 330.167C636.616 329.383 636.376 328.743 635.88 328.247C635.384 327.767 634.776 327.527 634.04 327.527C632.552 327.527 631.48 328.567 631.48 330.167ZM646.188 331.607L647.484 332.439C646.828 333.735 645.404 334.487 643.916 334.487C642.572 334.487 641.484 334.087 640.668 333.303C639.852 332.519 639.436 331.463 639.436 330.167C639.436 328.919 639.836 327.879 640.652 327.063C641.468 326.247 642.524 325.831 643.82 325.831C645.484 325.831 646.828 326.583 647.388 327.719L646.028 328.615C645.484 327.895 644.78 327.527 643.9 327.527C642.38 327.527 641.324 328.615 641.324 330.167C641.324 330.919 641.58 331.543 642.092 332.039C642.588 332.535 643.26 332.791 644.092 332.791C644.972 332.791 645.66 332.391 646.188 331.607ZM650.762 327.719H647.754V326.023H655.594V327.719H652.586V334.343H650.762V327.719ZM659.628 334.343H656.492V326.023H658.316V328.439H659.756C662.252 328.439 663.276 329.623 663.276 331.367C663.276 333.079 662.14 334.343 659.628 334.343ZM659.612 330.135H658.316V332.647H659.596C660.876 332.647 661.388 332.231 661.388 331.383C661.388 330.551 660.876 330.135 659.612 330.135ZM665.932 334.343H664.108V326.023H665.932V334.343ZM669.456 334.343H667.632V326.023H669.456V329.399L673.056 326.023H675.44L671.392 329.783L675.584 334.343H673.248L670.064 330.919L669.456 331.511V334.343Z" fill="white"/>
<g>
<ellipse cx="251.987" cy="351.674" rx="3.22684" ry="3.22684" fill="#7E7EEB"/>
<path d="M251.987 356.9C254.873 356.9 257.213 354.56 257.213 351.674C257.213 348.787 254.873 346.447 251.987 346.447C249.1 346.447 246.76 348.787 246.76 351.674C246.76 354.56 249.1 356.9 251.987 356.9Z" stroke="white" stroke-width="4"/>
</g>
<rect width="6.45369" height="6.45369" transform="translate(234.093 317.939)" fill="#A9DCE9"/>
<g>
<ellipse cx="237.32" cy="321.166" rx="3.22684" ry="3.22684" fill="#A9DCE9"/>
<path d="M237.32 326.393C240.206 326.393 242.546 324.053 242.546 321.166C242.546 318.279 240.206 315.939 237.32 315.939C234.433 315.939 232.093 318.279 232.093 321.166C232.093 324.053 234.433 326.393 237.32 326.393Z" stroke="white" stroke-width="4"/>
</g>
<g>
<ellipse cx="612.808" cy="396.263" rx="3.22684" ry="3.22684" fill="#AFBBFB"/>
<path d="M612.808 401.49C615.695 401.49 618.035 399.15 618.035 396.263C618.035 393.376 615.695 391.036 612.808 391.036C609.921 391.036 607.581 393.376 607.581 396.263C607.581 399.15 609.921 401.49 612.808 401.49Z" stroke="white" stroke-width="4"/>
</g>
<g>
<ellipse cx="244.948" cy="361.648" rx="3.22684" ry="3.22684" fill="#7E7EEB"/>
<path d="M244.948 366.875C247.834 366.875 250.174 364.534 250.174 361.648C250.174 358.761 247.834 356.421 244.948 356.421C242.061 356.421 239.721 358.761 239.721 361.648C239.721 364.534 242.061 366.875 244.948 366.875Z" stroke="white" stroke-width="4"/>
</g>
<g>
<ellipse cx="250.228" cy="371.621" rx="3.22684" ry="3.22684" fill="#7E7EEB"/>
<path d="M250.228 376.848C253.115 376.848 255.455 374.508 255.455 371.621C255.455 368.735 253.115 366.395 250.228 366.395C247.341 366.395 245.001 368.735 245.001 371.621C245.001 374.508 247.341 376.848 250.228 376.848Z" stroke="white" stroke-width="4"/>
</g>
<g>
<ellipse cx="598.726" cy="412.691" rx="3.22684" ry="3.22684" fill="#AFBBFB"/>
<path d="M598.726 417.918C601.613 417.918 603.953 415.577 603.953 412.691C603.953 409.804 601.613 407.464 598.726 407.464C595.839 407.464 593.499 409.804 593.499 412.691C593.499 415.577 595.839 417.918 598.726 417.918Z" stroke="white" stroke-width="4"/>
</g>
<path d="M603.767 310.085H601.767L606.679 298.885H608.151L613.063 310.085H611.031L609.943 307.605H604.839L603.767 310.085ZM609.223 305.941L607.383 301.685L605.543 305.941H609.223ZM621.481 310.085H619.657V303.461H616.713V304.757C616.713 309.189 615.273 310.309 613.209 310.149L613.065 308.453C613.929 308.549 614.921 307.989 614.921 304.133V301.765H621.481V310.085ZM625.386 303.461H622.378V301.765H630.218V303.461H627.21V310.085H625.386V303.461ZM634.252 310.085H631.116V301.765H632.94V304.181H634.38C636.876 304.181 637.9 305.365 637.9 307.109C637.9 308.821 636.764 310.085 634.252 310.085ZM634.236 305.877H632.94V308.389H634.22C635.5 308.389 636.012 307.973 636.012 307.125C636.012 306.293 635.5 305.877 634.236 305.877ZM640.556 310.085H638.732V301.765H640.556V310.085ZM649.904 310.085H648.08V306.709H644.08V310.085H642.256V301.765H644.08V305.029H648.08V301.765H649.904V310.085ZM653.44 310.085H651.616V301.765H653.44V305.141L657.04 301.765H659.424L655.376 305.525L659.568 310.085H657.232L654.048 306.661L653.44 307.253V310.085ZM659.341 305.909C659.341 304.645 659.757 303.605 660.589 302.789C661.405 301.973 662.477 301.573 663.789 301.573C665.101 301.573 666.173 301.973 667.005 302.789C667.837 303.605 668.253 304.645 668.253 305.909C668.253 307.157 667.837 308.181 667.005 308.997C666.173 309.813 665.101 310.229 663.789 310.229C662.493 310.229 661.437 309.813 660.605 308.997C659.757 308.181 659.341 307.157 659.341 305.909ZM661.229 305.909C661.229 306.661 661.469 307.285 661.949 307.781C662.413 308.277 663.037 308.533 663.789 308.533C665.325 308.533 666.365 307.493 666.365 305.909C666.365 305.125 666.125 304.485 665.629 303.989C665.133 303.509 664.525 303.269 663.789 303.269C662.301 303.269 661.229 304.309 661.229 305.909ZM676.762 310.085H674.938V303.461H671.994V304.757C671.994 309.189 670.554 310.309 668.49 310.149L668.346 308.453C669.21 308.549 670.202 307.989 670.202 304.133V301.765H676.762V310.085ZM681.931 310.085H678.459V301.765H680.283V304.181H682.043C684.539 304.181 685.563 305.365 685.563 307.109C685.563 308.821 684.443 310.085 681.931 310.085ZM681.883 305.877H680.283V308.389H681.867C683.147 308.389 683.675 307.973 683.675 307.125C683.675 306.293 683.083 305.877 681.883 305.877Z" fill="white"/>
<path d="M455.168 388.808L448.424 395.888L454.832 403.448V404H450.68L445.304 397.664H442.472V404H438.872V388.256H442.472V394.424H445.184L450.872 388.256H455.168V388.808ZM474.002 403.448V404H470.402L468.962 400.736H461.09L459.65 404H456.05V403.448L463.034 388.256H467.018L474.002 403.448ZM467.594 397.616L465.026 391.76L462.458 397.616H467.594ZM489.469 395.984C490.221 396.336 490.789 396.784 491.173 397.328C491.573 397.856 491.773 398.464 491.773 399.152V399.416C491.773 400.952 491.029 402.152 489.541 403.016C488.053 403.864 485.981 404.288 483.325 404.288C480.349 404.288 478.085 403.72 476.533 402.584C474.981 401.432 474.205 399.76 474.205 397.568V397.4H477.853V397.568C477.853 398.768 478.293 399.648 479.173 400.208C480.069 400.752 481.485 401.024 483.421 401.024C486.541 401.024 488.101 400.416 488.101 399.2V398.96C488.101 398.608 487.981 398.336 487.741 398.144C487.501 397.936 487.085 397.792 486.493 397.712C485.917 397.632 485.093 397.592 484.021 397.592H480.421V394.616H483.901C485.325 394.616 486.317 394.512 486.877 394.304C487.437 394.08 487.717 393.696 487.717 393.152V392.912C487.717 392.352 487.325 391.936 486.541 391.664C485.773 391.376 484.637 391.232 483.133 391.232C481.325 391.232 480.005 391.512 479.173 392.072C478.357 392.616 477.949 393.488 477.949 394.688V394.856H474.301V394.688C474.301 392.512 475.061 390.848 476.581 389.696C478.117 388.544 480.325 387.968 483.205 387.968C485.765 387.968 487.765 388.384 489.205 389.216C490.661 390.048 491.389 391.2 491.389 392.672V392.936C491.389 394.248 490.749 395.264 489.469 395.984ZM509.745 403.448V404H506.145L504.705 400.736H496.833L495.393 404H491.793V403.448L498.777 388.256H502.761L509.745 403.448ZM503.337 397.616L500.769 391.76L498.201 397.616H503.337ZM528.07 388.808L521.878 396.128L528.07 403.448V404H523.846L519.358 398.576L514.846 404H510.622V403.448L516.814 396.128L510.622 388.808V388.256H514.846L519.358 393.68L523.87 388.256H528.07V388.808ZM538.279 404.288C536.375 404.288 534.703 403.96 533.263 403.304C531.823 402.648 530.711 401.72 529.927 400.52C529.159 399.304 528.775 397.888 528.775 396.272V396.008C528.775 394.392 529.159 392.984 529.927 391.784C530.711 390.568 531.823 389.632 533.263 388.976C534.703 388.304 536.375 387.968 538.279 387.968C540.039 387.968 541.615 388.256 543.007 388.832C544.415 389.408 545.511 390.208 546.295 391.232C547.095 392.256 547.495 393.408 547.495 394.688V394.88H543.823V394.688C543.823 394.032 543.583 393.448 543.103 392.936C542.639 392.424 541.983 392.024 541.135 391.736C540.303 391.448 539.343 391.304 538.255 391.304C536.351 391.304 534.903 391.704 533.911 392.504C532.935 393.304 532.447 394.456 532.447 395.96V396.32C532.447 397.84 532.935 398.992 533.911 399.776C534.887 400.56 536.343 400.952 538.279 400.952C539.959 400.952 541.303 400.648 542.311 400.04C543.319 399.416 543.823 398.6 543.823 397.592V397.424H547.495V397.592C547.495 398.872 547.095 400.024 546.295 401.048C545.511 402.056 544.415 402.848 543.007 403.424C541.615 404 540.039 404.288 538.279 404.288ZM547.753 391.496V388.256H563.665V391.496H557.521V404H553.897V391.496H547.753ZM579.848 403.448V404H576.248L574.808 400.736H566.936L565.496 404H561.896V403.448L568.88 388.256H572.864L579.848 403.448ZM573.44 397.616L570.872 391.76L568.304 397.616H573.44ZM585.093 388.256V394.52H593.805V388.256H597.405V404H593.805V397.736H585.093V404H581.493V388.256H585.093Z" fill="white"/>
<path d="M658.204 467.838L651.46 474.918L657.868 482.478V483.03H653.716L648.34 476.694H645.508V483.03H641.908V467.286H645.508V473.454H648.22L653.908 467.286H658.204V467.838ZM664.51 467.286V478.086L673.246 467.286H676.846V483.03H673.27V472.23L664.534 483.03H660.934V467.286H664.51ZM678.822 470.526V467.286H694.734V470.526H688.59V483.03H684.966V470.526H678.822ZM711.157 482.478V483.03H707.557L706.117 479.766H698.245L696.805 483.03H693.205V482.478L700.189 467.286H704.173L711.157 482.478ZM704.749 476.646L702.181 470.79L699.613 476.646H704.749ZM716.618 467.286V478.086L725.354 467.286H728.954V483.03H725.378V472.23L716.642 483.03H713.042V467.286H716.618ZM721.01 465.966C719.266 465.966 717.954 465.646 717.074 465.006C716.194 464.35 715.754 463.39 715.754 462.126V461.934H718.778V462.126C718.778 462.478 718.97 462.75 719.354 462.942C719.738 463.134 720.29 463.23 721.01 463.23C721.666 463.23 722.17 463.134 722.522 462.942C722.89 462.75 723.074 462.478 723.074 462.126V461.934H726.266V462.126C726.266 464.686 724.514 465.966 721.01 465.966Z" fill="#3C525E"/>
<path d="M597.284 219.21C600.378 219.21 602.818 219.956 604.604 221.45C606.391 222.943 607.284 224.983 607.284 227.57V228.01C607.284 230.623 606.391 232.676 604.604 234.17C602.818 235.663 600.378 236.41 597.284 236.41H586.644V245.45H580.644V219.21H597.284ZM597.124 231.09C598.431 231.09 599.431 230.836 600.124 230.33C600.818 229.796 601.164 229.023 601.164 228.01V227.57C601.164 226.583 600.818 225.836 600.124 225.33C599.431 224.796 598.431 224.53 597.124 224.53H586.644V231.09H597.124ZM626.169 245.93C623.022 245.93 620.275 245.383 617.929 244.29C615.582 243.196 613.755 241.636 612.449 239.61C611.169 237.583 610.529 235.223 610.529 232.53V232.17C610.529 229.476 611.169 227.116 612.449 225.09C613.755 223.063 615.582 221.503 617.929 220.41C620.302 219.29 623.049 218.73 626.169 218.73C629.315 218.73 632.062 219.29 634.409 220.41C636.755 221.503 638.569 223.063 639.849 225.09C641.129 227.116 641.769 229.476 641.769 232.17V232.53C641.769 235.223 641.129 237.583 639.849 239.61C638.569 241.636 636.755 243.196 634.409 244.29C632.062 245.383 629.315 245.93 626.169 245.93ZM626.169 240.37C629.262 240.37 631.609 239.703 633.209 238.37C634.835 237.036 635.649 235.116 635.649 232.61V232.13C635.649 229.623 634.822 227.69 633.169 226.33C631.542 224.97 629.209 224.29 626.169 224.29C623.102 224.29 620.742 224.97 619.089 226.33C617.462 227.69 616.649 229.623 616.649 232.13V232.61C616.649 235.116 617.462 237.036 619.089 238.37C620.742 239.703 623.102 240.37 626.169 240.37ZM661.047 245.93C657.874 245.93 655.087 245.383 652.687 244.29C650.287 243.196 648.434 241.65 647.127 239.65C645.847 237.623 645.207 235.263 645.207 232.57V232.13C645.207 229.436 645.847 227.09 647.127 225.09C648.434 223.063 650.287 221.503 652.687 220.41C655.087 219.29 657.874 218.73 661.047 218.73C663.98 218.73 666.607 219.21 668.927 220.17C671.274 221.13 673.1 222.463 674.407 224.17C675.74 225.876 676.407 227.796 676.407 229.93V230.25H670.287V229.93C670.287 228.836 669.887 227.863 669.087 227.01C668.314 226.156 667.22 225.49 665.807 225.01C664.42 224.53 662.82 224.29 661.007 224.29C657.834 224.29 655.42 224.956 653.767 226.29C652.14 227.623 651.327 229.543 651.327 232.05V232.65C651.327 235.183 652.14 237.103 653.767 238.41C655.394 239.716 657.82 240.37 661.047 240.37C663.847 240.37 666.087 239.863 667.767 238.85C669.447 237.81 670.287 236.45 670.287 234.77V234.49H676.407V234.77C676.407 236.903 675.74 238.823 674.407 240.53C673.1 242.21 671.274 243.53 668.927 244.49C666.607 245.45 663.98 245.93 661.047 245.93ZM695.608 245.93C692.435 245.93 689.648 245.383 687.248 244.29C684.848 243.196 682.995 241.65 681.688 239.65C680.408 237.623 679.768 235.263 679.768 232.57V232.13C679.768 229.436 680.408 227.09 681.688 225.09C682.995 223.063 684.848 221.503 687.248 220.41C689.648 219.29 692.435 218.73 695.608 218.73C698.541 218.73 701.168 219.21 703.488 220.17C705.835 221.13 707.661 222.463 708.968 224.17C710.301 225.876 710.968 227.796 710.968 229.93V230.25H704.848V229.93C704.848 228.836 704.448 227.863 703.648 227.01C702.875 226.156 701.781 225.49 700.368 225.01C698.981 224.53 697.381 224.29 695.568 224.29C692.395 224.29 689.981 224.956 688.328 226.29C686.701 227.623 685.888 229.543 685.888 232.05V232.65C685.888 235.183 686.701 237.103 688.328 238.41C689.955 239.716 692.381 240.37 695.608 240.37C698.408 240.37 700.648 239.863 702.328 238.85C704.008 237.81 704.848 236.45 704.848 234.77V234.49H710.968V234.77C710.968 236.903 710.301 238.823 708.968 240.53C707.661 242.21 705.835 243.53 703.488 244.49C701.168 245.45 698.541 245.93 695.608 245.93ZM721.489 219.21V237.21L736.049 219.21H742.049V245.45H736.089V227.45L721.529 245.45H715.529V219.21H721.489ZM773.902 219.21V245.45H767.902V236.17H763.342L754.422 245.45H747.382V244.53L755.662 236.09C753.049 235.823 750.996 234.983 749.502 233.57C748.009 232.13 747.262 230.276 747.262 228.01V227.57C747.262 224.983 748.156 222.943 749.942 221.45C751.729 219.956 754.169 219.21 757.262 219.21H773.902ZM767.902 224.53H757.422C756.116 224.53 755.116 224.796 754.422 225.33C753.729 225.836 753.382 226.583 753.382 227.57V228.01C753.382 229.023 753.729 229.796 754.422 230.33C755.116 230.836 756.116 231.09 757.422 231.09H767.902V224.53Z" fill="white"/>
<path d="M707.705 443.7C709.278 443.7 710.553 442.425 710.553 440.852C710.553 439.279 709.278 438.004 707.705 438.004C706.132 438.004 704.856 439.279 704.856 440.852C704.856 442.425 706.132 443.7 707.705 443.7Z" fill="#AFBBFB" stroke="white" stroke-width="2"/>
<path d="M697.673 445.549C699.246 445.549 700.521 444.274 700.521 442.701C700.521 441.128 699.246 439.853 697.673 439.853C696.1 439.853 694.825 441.128 694.825 442.701C694.825 444.274 696.1 445.549 697.673 445.549Z" fill="#AFBBFB" stroke="white" stroke-width="2"/>
<path d="M722.753 437.629C724.326 437.629 725.601 436.354 725.601 434.781C725.601 433.208 724.326 431.933 722.753 431.933C721.18 431.933 719.905 433.208 719.905 434.781C719.905 436.354 721.18 437.629 722.753 437.629Z" fill="#AFBBFB" stroke="white" stroke-width="2"/>
<path d="M719.058 451.885C720.631 451.885 721.906 450.61 721.906 449.037C721.906 447.464 720.631 446.189 719.058 446.189C717.485 446.189 716.21 447.464 716.21 449.037C716.21 450.61 717.485 451.885 719.058 451.885Z" fill="#AFBBFB" stroke="white" stroke-width="2"/>
<path d="M719.967 508.032C721.54 508.032 722.815 506.757 722.815 505.184C722.815 503.611 721.54 502.336 719.967 502.336C718.394 502.336 717.119 503.611 717.119 505.184C717.119 506.757 718.394 508.032 719.967 508.032Z" fill="#AFBBFB" stroke="white" stroke-width="2"/>
<path d="M748.128 522.113C749.701 522.113 750.976 520.838 750.976 519.265C750.976 517.692 749.701 516.417 748.128 516.417C746.555 516.417 745.28 517.692 745.28 519.265C745.28 520.838 746.555 522.113 748.128 522.113Z" fill="#AFBBFB" stroke="white" stroke-width="2"/>
<path d="M824.986 529.153C826.559 529.153 827.834 527.878 827.834 526.305C827.834 524.732 826.559 523.457 824.986 523.457C823.413 523.457 822.138 524.732 822.138 526.305C822.138 527.878 823.413 529.153 824.986 529.153Z" fill="#AFBBFB" stroke="white" stroke-width="2"/>
<path d="M837.894 534.434C839.467 534.434 840.742 533.158 840.742 531.585C840.742 530.012 839.467 528.737 837.894 528.737C836.321 528.737 835.046 530.012 835.046 531.585C835.046 533.158 836.321 534.434 837.894 534.434Z" fill="#AFBBFB" stroke="white" stroke-width="2"/>
<path d="M822.64 513.899C824.213 513.899 825.488 512.624 825.488 511.051C825.488 509.478 824.213 508.203 822.64 508.203C821.067 508.203 819.792 509.478 819.792 511.051C819.792 512.624 821.067 513.899 822.64 513.899Z" fill="#AFBBFB" stroke="white" stroke-width="2"/>
<path d="M813.839 493.364C815.412 493.364 816.687 492.089 816.687 490.516C816.687 488.943 815.412 487.668 813.839 487.668C812.266 487.668 810.991 488.943 810.991 490.516C810.991 492.089 812.266 493.364 813.839 493.364Z" fill="#AFBBFB" stroke="white" stroke-width="2"/>
<path d="M817.271 500.228C818.844 500.228 820.119 498.953 820.119 497.38C820.119 495.807 818.844 494.532 817.271 494.532C815.698 494.532 814.423 495.807 814.423 497.38C814.423 498.953 815.698 500.228 817.271 500.228Z" fill="#AFBBFB" stroke="white" stroke-width="2"/>
<path d="M750.927 476.35C752.5 476.35 753.775 475.075 753.775 473.502C753.775 471.929 752.5 470.654 750.927 470.654C749.354 470.654 748.079 471.929 748.079 473.502C748.079 475.075 749.354 476.35 750.927 476.35Z" fill="#AFBBFB" stroke="white" stroke-width="2"/>
<path d="M744.59 478.99C746.163 478.99 747.438 477.715 747.438 476.142C747.438 474.569 746.163 473.294 744.59 473.294C743.017 473.294 741.742 474.569 741.742 476.142C741.742 477.715 743.017 478.99 744.59 478.99Z" fill="#AFBBFB" stroke="white" stroke-width="2"/>
<path d="M747.231 477.776C748.804 477.776 750.079 476.501 750.079 474.928C750.079 473.355 748.804 472.08 747.231 472.08C745.658 472.08 744.383 473.355 744.383 474.928C744.383 476.501 745.658 477.776 747.231 477.776Z" fill="#AFBBFB" stroke="white" stroke-width="2"/>
<path d="M740.502 485.325C742.075 485.325 743.35 484.049 743.35 482.477C743.35 480.904 742.075 479.628 740.502 479.628C738.929 479.628 737.654 480.904 737.654 482.477C737.654 484.049 738.929 485.325 740.502 485.325Z" fill="#AFBBFB" stroke="white" stroke-width="2"/>
<path d="M795.065 552.621C796.638 552.621 797.913 551.346 797.913 549.773C797.913 548.2 796.638 546.925 795.065 546.925C793.492 546.925 792.217 548.2 792.217 549.773C792.217 551.346 793.492 552.621 795.065 552.621Z" fill="#AFBBFB" stroke="white" stroke-width="2"/>
<path d="M784.563 531.09C786.136 531.09 787.411 529.815 787.411 528.242C787.411 526.669 786.136 525.394 784.563 525.394C782.99 525.394 781.715 526.669 781.715 528.242C781.715 529.815 782.99 531.09 784.563 531.09Z" fill="#AFBBFB" stroke="white" stroke-width="2"/>
<path d="M769.25 520.529C770.823 520.529 772.099 519.254 772.099 517.681C772.099 516.108 770.823 514.833 769.25 514.833C767.677 514.833 766.402 516.108 766.402 517.681C766.402 519.254 767.677 520.529 769.25 520.529Z" fill="#AFBBFB" stroke="white" stroke-width="2"/>
<path d="M772.946 516.833C774.519 516.833 775.794 515.558 775.794 513.985C775.794 512.412 774.519 511.137 772.946 511.137C771.373 511.137 770.098 512.412 770.098 513.985C770.098 515.558 771.373 516.833 772.946 516.833Z" fill="#AFBBFB" stroke="white" stroke-width="2"/>
<path d="M752.776 490.041C754.349 490.041 755.624 488.766 755.624 487.193C755.624 485.62 754.349 484.345 752.776 484.345C751.203 484.345 749.928 485.62 749.928 487.193C749.928 488.766 751.203 490.041 752.776 490.041Z" fill="#AFBBFB" stroke="white" stroke-width="2"/>
<path d="M754.623 483.214C756.196 483.214 757.472 481.939 757.472 480.366C757.472 478.793 756.196 477.518 754.623 477.518C753.051 477.518 751.775 478.793 751.775 480.366C751.775 481.939 753.051 483.214 754.623 483.214Z" fill="#AFBBFB" stroke="white" stroke-width="2"/>
<path d="M749.078 484.798C750.651 484.798 751.926 483.523 751.926 481.95C751.926 480.377 750.651 479.102 749.078 479.102C747.505 479.102 746.229 480.377 746.229 481.95C746.229 483.523 747.505 484.798 749.078 484.798Z" fill="#AFBBFB" stroke="white" stroke-width="2"/>
<path d="M756.342 452.295C757.915 452.295 759.19 451.02 759.19 449.447C759.19 447.874 757.915 446.599 756.342 446.599C754.769 446.599 753.494 447.874 753.494 449.447C753.494 451.02 754.769 452.295 756.342 452.295Z" fill="#AFBBFB" stroke="white" stroke-width="2"/>
<path d="M773.768 450.885C775.341 450.885 776.616 449.61 776.616 448.037C776.616 446.464 775.341 445.189 773.768 445.189C772.195 445.189 770.92 446.464 770.92 448.037C770.92 449.61 772.195 450.885 773.768 450.885Z" fill="#AFBBFB" stroke="white" stroke-width="2"/>
<path d="M784.063 456.52C785.636 456.52 786.911 455.245 786.911 453.672C786.911 452.099 785.636 450.824 784.063 450.824C782.49 450.824 781.215 452.099 781.215 453.672C781.215 455.245 782.49 456.52 784.063 456.52Z" fill="#AFBBFB" stroke="white" stroke-width="2"/>
<path d="M794.889 451.767C796.462 451.767 797.737 450.492 797.737 448.919C797.737 447.346 796.462 446.071 794.889 446.071C793.316 446.071 792.041 447.346 792.041 448.919C792.041 450.492 793.316 451.767 794.889 451.767Z" fill="#AFBBFB" stroke="white" stroke-width="2"/>
<path d="M842 460.803C843.573 460.803 844.849 459.528 844.849 457.955C844.849 456.382 843.573 455.107 842 455.107C840.427 455.107 839.152 456.382 839.152 457.955C839.152 459.528 840.427 460.803 842 460.803Z" fill="#AFBBFB" stroke="white" stroke-width="2"/>
<path d="M846.752 455.816C848.325 455.816 849.6 454.541 849.6 452.968C849.6 451.395 848.325 450.12 846.752 450.12C845.179 450.12 843.904 451.395 843.904 452.968C843.904 454.541 845.179 455.816 846.752 455.816Z" fill="#AFBBFB" stroke="white" stroke-width="2"/>
<path d="M835.107 439.975C836.68 439.975 837.955 438.7 837.955 437.127C837.955 435.554 836.68 434.279 835.107 434.279C833.534 434.279 832.259 435.554 832.259 437.127C832.259 438.7 833.534 439.975 835.107 439.975Z" fill="#AFBBFB" stroke="white" stroke-width="2"/>
<path d="M841.707 439.975C843.28 439.975 844.556 438.7 844.556 437.127C844.556 435.554 843.28 434.279 841.707 434.279C840.135 434.279 838.859 435.554 838.859 437.127C838.859 438.7 840.135 439.975 841.707 439.975Z" fill="#AFBBFB" stroke="white" stroke-width="2"/>
<path d="M823.225 443.671C824.798 443.671 826.073 442.396 826.073 440.823C826.073 439.25 824.798 437.975 823.225 437.975C821.652 437.975 820.377 439.25 820.377 440.823C820.377 442.396 821.652 443.671 823.225 443.671Z" fill="#AFBBFB" stroke="white" stroke-width="2"/>
<path d="M824.019 448.068C825.592 448.068 826.867 446.793 826.867 445.22C826.867 443.647 825.592 442.372 824.019 442.372C822.446 442.372 821.171 443.647 821.171 445.22C821.171 446.793 822.446 448.068 824.019 448.068Z" fill="#AFBBFB" stroke="white" stroke-width="2"/>
<path d="M822.844 408.41C824.417 408.41 825.692 407.135 825.692 405.562C825.692 403.989 824.417 402.714 822.844 402.714C821.271 402.714 819.996 403.989 819.996 405.562C819.996 407.135 821.271 408.41 822.844 408.41Z" fill="#AFBBFB" stroke="white" stroke-width="2"/>
<path d="M837.629 383.065C839.202 383.065 840.477 381.79 840.477 380.217C840.477 378.644 839.202 377.369 837.629 377.369C836.056 377.369 834.781 378.644 834.781 380.217C834.781 381.79 836.056 383.065 837.629 383.065Z" fill="#AFBBFB" stroke="white" stroke-width="2"/>
<path d="M824.692 414.219C826.265 414.219 827.54 412.944 827.54 411.371C827.54 409.798 826.265 408.523 824.692 408.523C823.119 408.523 821.844 409.798 821.844 411.371C821.844 412.944 823.119 414.219 824.692 414.219Z" fill="#AFBBFB" stroke="white" stroke-width="2"/>
<path d="M867.229 432.934C868.802 432.934 870.077 431.659 870.077 430.086C870.077 428.513 868.802 427.238 867.229 427.238C865.656 427.238 864.381 428.513 864.381 430.086C864.381 431.659 865.656 432.934 867.229 432.934Z" fill="#AFBBFB" stroke="white" stroke-width="2"/>
<path d="M863.884 444.081C865.457 444.081 866.732 442.806 866.732 441.233C866.732 439.66 865.457 438.385 863.884 438.385C862.311 438.385 861.036 439.66 861.036 441.233C861.036 442.806 862.311 444.081 863.884 444.081Z" fill="#AFBBFB" stroke="white" stroke-width="2"/>
<path d="M856.081 471.07C857.654 471.07 858.93 469.795 858.93 468.222C858.93 466.649 857.654 465.374 856.081 465.374C854.509 465.374 853.233 466.649 853.233 468.222C853.233 469.795 854.509 471.07 856.081 471.07Z" fill="#AFBBFB" stroke="white" stroke-width="2"/>
<path d="M844.347 471.07C845.92 471.07 847.195 469.795 847.195 468.222C847.195 466.649 845.92 465.374 844.347 465.374C842.774 465.374 841.499 466.649 841.499 468.222C841.499 469.795 842.774 471.07 844.347 471.07Z" fill="#AFBBFB" stroke="white" stroke-width="2"/>
<path d="M853.734 497.471C855.307 497.471 856.582 496.196 856.582 494.623C856.582 493.05 855.307 491.775 853.734 491.775C852.161 491.775 850.886 493.05 850.886 494.623C850.886 496.196 852.161 497.471 853.734 497.471Z" fill="#AFBBFB" stroke="white" stroke-width="2"/>
<path d="M843.174 500.992C844.747 500.992 846.022 499.716 846.022 498.144C846.022 496.571 844.747 495.295 843.174 495.295C841.601 495.295 840.326 496.571 840.326 498.144C840.326 499.716 841.601 500.992 843.174 500.992Z" fill="#AFBBFB" stroke="white" stroke-width="2"/>
<path d="M862.534 500.405C864.107 500.405 865.382 499.13 865.382 497.557C865.382 495.984 864.107 494.708 862.534 494.708C860.961 494.708 859.686 495.984 859.686 497.557C859.686 499.13 860.961 500.405 862.534 500.405Z" fill="#AFBBFB" stroke="white" stroke-width="2"/>
<path d="M869.016 500.405C870.589 500.405 871.864 499.13 871.864 497.557C871.864 495.984 870.589 494.708 869.016 494.708C867.443 494.708 866.168 495.984 866.168 497.557C866.168 499.13 867.443 500.405 869.016 500.405Z" fill="#AFBBFB" stroke="white" stroke-width="2"/>
<path d="M876.997 504.511C878.57 504.511 879.845 503.236 879.845 501.663C879.845 500.09 878.57 498.815 876.997 498.815C875.424 498.815 874.148 500.09 874.148 501.663C874.148 503.236 875.424 504.511 876.997 504.511Z" fill="#AFBBFB" stroke="white" stroke-width="2"/>
<path d="M872.509 505.293C874.082 505.293 875.357 504.018 875.357 502.445C875.357 500.872 874.082 499.597 872.509 499.597C870.936 499.597 869.661 500.872 869.661 502.445C869.661 504.018 870.936 505.293 872.509 505.293Z" fill="#AFBBFB" stroke="white" stroke-width="2"/>
<path d="M885.415 544.994C886.988 544.994 888.264 543.719 888.264 542.146C888.264 540.573 886.988 539.298 885.415 539.298C883.843 539.298 882.567 540.573 882.567 542.146C882.567 543.719 883.843 544.994 885.415 544.994Z" fill="#AFBBFB" stroke="white" stroke-width="2"/>
<path d="M871.114 536.518C872.629 536.095 873.514 534.524 873.091 533.009C872.669 531.494 871.097 530.608 869.582 531.031C868.067 531.454 867.182 533.025 867.605 534.54C868.028 536.055 869.599 536.94 871.114 536.518Z" fill="#AFBBFB" stroke="white" stroke-width="2"/>
<path d="M868.033 541.89C869.548 541.467 870.433 539.896 870.01 538.381C869.587 536.866 868.016 535.98 866.501 536.403C864.986 536.826 864.101 538.397 864.524 539.912C864.947 541.427 866.518 542.313 868.033 541.89Z" fill="#AFBBFB" stroke="white" stroke-width="2"/>
<path d="M864.315 547.078C865.83 546.655 866.716 545.084 866.293 543.569C865.87 542.054 864.299 541.169 862.784 541.592C861.269 542.015 860.383 543.586 860.806 545.101C861.229 546.616 862.8 547.501 864.315 547.078Z" fill="#AFBBFB" stroke="white" stroke-width="2"/>
<path d="M832.026 564.355C833.599 564.355 834.874 563.08 834.874 561.507C834.874 559.934 833.599 558.659 832.026 558.659C830.453 558.659 829.178 559.934 829.178 561.507C829.178 563.08 830.453 564.355 832.026 564.355Z" fill="#AFBBFB" stroke="white" stroke-width="2"/>
<path d="M834.373 557.315C835.946 557.315 837.222 556.04 837.222 554.467C837.222 552.894 835.946 551.619 834.373 551.619C832.801 551.619 831.525 552.894 831.525 554.467C831.525 556.04 832.801 557.315 834.373 557.315Z" fill="#AFBBFB" stroke="white" stroke-width="2"/>
<path d="M827.919 557.315C829.492 557.315 830.767 556.04 830.767 554.467C830.767 552.894 829.492 551.619 827.919 551.619C826.346 551.619 825.071 552.894 825.071 554.467C825.071 556.04 826.346 557.315 827.919 557.315Z" fill="#AFBBFB" stroke="white" stroke-width="2"/>
<path d="M842 559.075C843.573 559.075 844.849 557.799 844.849 556.227C844.849 554.654 843.573 553.378 842 553.378C840.427 553.378 839.152 554.654 839.152 556.227C839.152 557.799 840.427 559.075 842 559.075Z" fill="#AFBBFB" stroke="white" stroke-width="2"/>
<path d="M835.547 552.621C837.12 552.621 838.395 551.346 838.395 549.773C838.395 548.2 837.12 546.925 835.547 546.925C833.974 546.925 832.699 548.2 832.699 549.773C832.699 551.346 833.974 552.621 835.547 552.621Z" fill="#AFBBFB" stroke="white" stroke-width="2"/>
<path d="M828.506 550.274C830.079 550.274 831.354 548.999 831.354 547.426C831.354 545.853 830.079 544.578 828.506 544.578C826.933 544.578 825.658 545.853 825.658 547.426C825.658 548.999 826.933 550.274 828.506 550.274Z" fill="#AFBBFB" stroke="white" stroke-width="2"/>
<path d="M847.222 464.528C848.795 464.528 850.07 463.253 850.07 461.68C850.07 460.107 848.795 458.832 847.222 458.832C845.649 458.832 844.374 460.107 844.374 461.68C844.374 463.253 845.649 464.528 847.222 464.528Z" fill="#AFBBFB" stroke="white" stroke-width="2"/>
<path d="M861.363 464.282C862.936 464.282 864.211 463.007 864.211 461.434C864.211 459.861 862.936 458.585 861.363 458.585C859.79 458.585 858.515 459.861 858.515 461.434C858.515 463.007 859.79 464.282 861.363 464.282Z" fill="#AFBBFB" stroke="white" stroke-width="2"/>
<path d="M865.058 462.856C866.631 462.856 867.906 461.581 867.906 460.008C867.906 458.435 866.631 457.16 865.058 457.16C863.485 457.16 862.21 458.435 862.21 460.008C862.21 461.581 863.485 462.856 865.058 462.856Z" fill="#AFBBFB" stroke="white" stroke-width="2"/>
<path d="M873.682 459.922C875.255 459.922 876.53 458.647 876.53 457.074C876.53 455.501 875.255 454.226 873.682 454.226C872.109 454.226 870.834 455.501 870.834 457.074C870.834 458.647 872.109 459.922 873.682 459.922Z" fill="#AFBBFB" stroke="white" stroke-width="2"/>
<path d="M870.456 456.46C872.028 456.46 873.304 455.185 873.304 453.612C873.304 452.039 872.028 450.764 870.456 450.764C868.883 450.764 867.607 452.039 867.607 453.612C867.607 455.185 868.883 456.46 870.456 456.46Z" fill="#AFBBFB" stroke="white" stroke-width="2"/>
<path d="M782.215 433.55C783.788 433.55 785.063 432.275 785.063 430.702C785.063 429.129 783.788 427.854 782.215 427.854C780.642 427.854 779.367 429.129 779.367 430.702C779.367 432.275 780.642 433.55 782.215 433.55Z" fill="#AFBBFB" stroke="white" stroke-width="2"/>
<path d="M777.463 435.398C779.036 435.398 780.311 434.123 780.311 432.55C780.311 430.977 779.036 429.702 777.463 429.702C775.89 429.702 774.615 430.977 774.615 432.55C774.615 434.123 775.89 435.398 777.463 435.398Z" fill="#AFBBFB" stroke="white" stroke-width="2"/>
<path d="M660.257 414.497C661.759 414.032 662.601 412.437 662.136 410.934C661.671 409.431 660.076 408.59 658.574 409.055C657.071 409.52 656.229 411.114 656.694 412.617C657.159 414.12 658.754 414.961 660.257 414.497Z" fill="#AFBBFB" stroke="white" stroke-width="2"/>
<path d="M616.534 413.577C618.037 413.112 618.878 411.517 618.413 410.014C617.949 408.512 616.354 407.67 614.851 408.135C613.348 408.6 612.507 410.195 612.972 411.697C613.436 413.2 615.031 414.041 616.534 413.577Z" fill="#AFBBFB" stroke="white" stroke-width="2"/>
<path d="M638.07 416.901C639.611 417.22 641.117 416.229 641.436 414.689C641.754 413.148 640.764 411.641 639.223 411.323C637.683 411.005 636.176 411.995 635.858 413.536C635.539 415.076 636.53 416.583 638.07 416.901Z" fill="#AFBBFB" stroke="white" stroke-width="2"/>
<path d="M643.291 418.419C644.831 418.738 646.338 417.747 646.657 416.207C646.975 414.666 645.984 413.159 644.444 412.841C642.903 412.523 641.397 413.513 641.078 415.054C640.76 416.594 641.75 418.101 643.291 418.419Z" fill="#AFBBFB" stroke="white" stroke-width="2"/>
<path d="M612.947 416.898C614.45 416.434 615.291 414.839 614.827 413.336C614.362 411.833 612.767 410.992 611.264 411.457C609.761 411.921 608.92 413.516 609.385 415.019C609.849 416.522 611.444 417.363 612.947 416.898Z" fill="#AFBBFB" stroke="white" stroke-width="2"/>
<path d="M600.616 438.951C602.119 438.486 602.96 436.891 602.495 435.388C602.031 433.886 600.436 433.044 598.933 433.509C597.43 433.974 596.589 435.569 597.054 437.071C597.518 438.574 599.113 439.415 600.616 438.951Z" fill="#AFBBFB" stroke="white" stroke-width="2"/>
<path d="M627.409 431.836C628.912 431.371 629.753 429.776 629.288 428.274C628.824 426.771 627.229 425.929 625.726 426.394C624.223 426.859 623.382 428.454 623.847 429.957C624.311 431.459 625.906 432.301 627.409 431.836Z" fill="#AFBBFB" stroke="white" stroke-width="2"/>
<path d="M578.118 453.217C579.621 452.753 580.462 451.158 579.997 449.655C579.533 448.152 577.938 447.311 576.435 447.775C574.932 448.24 574.091 449.835 574.556 451.338C575.02 452.841 576.615 453.682 578.118 453.217Z" fill="#AFBBFB" stroke="white" stroke-width="2"/>
<path d="M443.353 382.004C444.923 381.9 446.111 380.543 446.006 378.973C445.902 377.404 444.546 376.216 442.976 376.32C441.407 376.424 440.219 377.781 440.323 379.351C440.427 380.92 441.784 382.108 443.353 382.004Z" fill="#359FDA" stroke="white" stroke-width="2"/>
<path d="M477.968 356.189C479.538 356.085 480.726 354.729 480.622 353.159C480.518 351.59 479.161 350.402 477.591 350.506C476.022 350.61 474.834 351.967 474.938 353.536C475.042 355.106 476.399 356.294 477.968 356.189Z" fill="#359FDA" stroke="white" stroke-width="2"/>
<path d="M509.063 350.323C510.633 350.219 511.821 348.862 511.716 347.292C511.612 345.723 510.256 344.535 508.686 344.639C507.117 344.743 505.929 346.1 506.033 347.67C506.137 349.239 507.494 350.427 509.063 350.323Z" fill="#359FDA" stroke="white" stroke-width="2"/>
<path d="M497.917 413.099C499.486 412.995 500.674 411.638 500.57 410.069C500.466 408.499 499.109 407.311 497.54 407.415C495.97 407.52 494.782 408.876 494.886 410.446C494.99 412.015 496.347 413.203 497.917 413.099Z" fill="#359FDA" stroke="white" stroke-width="2"/>
<path d="M513.791 419.356C515.36 419.252 516.548 417.895 516.444 416.326C516.34 414.756 514.983 413.568 513.414 413.672C511.844 413.776 510.656 415.133 510.76 416.703C510.864 418.272 512.221 419.46 513.791 419.356Z" fill="#359FDA" stroke="white" stroke-width="2"/>
<path d="M525.282 429.062C526.851 428.958 528.039 427.601 527.935 426.032C527.831 424.462 526.474 423.274 524.905 423.378C523.335 423.483 522.147 424.839 522.252 426.409C522.356 427.978 523.712 429.166 525.282 429.062Z" fill="#359FDA" stroke="white" stroke-width="2"/>
<path d="M527.776 430.749C529.346 430.645 530.534 429.288 530.429 427.719C530.325 426.149 528.968 424.961 527.399 425.065C525.829 425.17 524.642 426.526 524.746 428.096C524.85 429.665 526.207 430.853 527.776 430.749Z" fill="#359FDA" stroke="white" stroke-width="2"/>
<path d="M576.957 426.131C578.526 426.027 579.714 424.67 579.61 423.1C579.506 421.531 578.149 420.343 576.58 420.447C575.01 420.551 573.822 421.908 573.926 423.478C574.031 425.047 575.387 426.235 576.957 426.131Z" fill="#359FDA" stroke="white" stroke-width="2"/>
<path d="M573.013 422.539C574.583 422.435 575.771 421.078 575.667 419.509C575.562 417.939 574.206 416.751 572.636 416.855C571.067 416.96 569.879 418.316 569.983 419.886C570.087 421.455 571.444 422.643 573.013 422.539Z" fill="#359FDA" stroke="white" stroke-width="2"/>
<path d="M576.481 418.966C578.051 418.862 579.239 417.505 579.134 415.935C579.03 414.366 577.673 413.178 576.104 413.282C574.534 413.386 573.347 414.743 573.451 416.313C573.555 417.882 574.912 419.07 576.481 418.966Z" fill="#359FDA" stroke="white" stroke-width="2"/>
<path d="M520.363 357.123C521.933 357.018 523.12 355.662 523.016 354.092C522.912 352.523 521.555 351.335 519.986 351.439C518.416 351.543 517.228 352.9 517.333 354.469C517.437 356.039 518.794 357.227 520.363 357.123Z" fill="#359FDA" stroke="white" stroke-width="2"/>
<path d="M523.982 358.735C525.552 358.631 526.74 357.274 526.635 355.705C526.531 354.135 525.174 352.948 523.605 353.052C522.035 353.156 520.848 354.513 520.952 356.082C521.056 357.652 522.413 358.84 523.982 358.735Z" fill="#359FDA" stroke="white" stroke-width="2"/>
<path d="M555.413 354.428C556.982 354.324 558.17 352.967 558.066 351.397C557.962 349.828 556.605 348.64 555.036 348.744C553.466 348.848 552.278 350.205 552.382 351.775C552.487 353.344 553.843 354.532 555.413 354.428Z" fill="#359FDA" stroke="white" stroke-width="2"/>
<path d="M561.291 357.357C562.86 357.253 564.048 355.896 563.944 354.327C563.84 352.757 562.483 351.57 560.914 351.674C559.344 351.778 558.156 353.135 558.26 354.704C558.364 356.274 559.721 357.462 561.291 357.357Z" fill="#359FDA" stroke="white" stroke-width="2"/>
<path d="M594.721 372.03C596.291 371.926 597.479 370.569 597.375 368.999C597.27 367.43 595.914 366.242 594.344 366.346C592.775 366.45 591.587 367.807 591.691 369.377C591.795 370.946 593.152 372.134 594.721 372.03Z" fill="#359FDA" stroke="white" stroke-width="2"/>
<path d="M607.042 373.789C608.611 373.684 609.799 372.328 609.695 370.758C609.591 369.189 608.234 368.001 606.665 368.105C605.095 368.209 603.907 369.566 604.011 371.135C604.115 372.705 605.472 373.893 607.042 373.789Z" fill="#359FDA" stroke="white" stroke-width="2"/>
<path d="M602.933 374.962C604.503 374.858 605.691 373.501 605.587 371.931C605.482 370.362 604.126 369.174 602.556 369.278C600.987 369.382 599.799 370.739 599.903 372.309C600.007 373.878 601.364 375.066 602.933 374.962Z" fill="#359FDA" stroke="white" stroke-width="2"/>
<path d="M415.192 405.472C416.762 405.368 417.95 404.011 417.845 402.441C417.741 400.872 416.384 399.684 414.815 399.788C413.245 399.892 412.058 401.249 412.162 402.818C412.266 404.388 413.623 405.576 415.192 405.472Z" fill="#359FDA" stroke="white" stroke-width="2"/>
<path d="M418.126 430.7C419.695 430.596 420.883 429.239 420.779 427.669C420.675 426.1 419.318 424.912 417.749 425.016C416.179 425.12 414.991 426.477 415.095 428.046C415.199 429.616 416.556 430.804 418.126 430.7Z" fill="#359FDA" stroke="white" stroke-width="2"/>
<path d="M343.894 407.706C345.467 407.706 346.742 406.431 346.742 404.858C346.742 403.285 345.467 402.01 343.894 402.01C342.321 402.01 341.046 403.285 341.046 404.858C341.046 406.431 342.321 407.706 343.894 407.706Z" fill="#34D2B6" stroke="white" stroke-width="2"/>
<path d="M382.083 377.308C383.656 377.308 384.931 376.033 384.931 374.46C384.931 372.887 383.656 371.612 382.083 371.612C380.51 371.612 379.235 372.887 379.235 374.46C379.235 376.033 380.51 377.308 382.083 377.308Z" fill="#34D2B6" stroke="white" stroke-width="2"/>
<path d="M405.497 359.011C407.07 359.011 408.346 357.736 408.346 356.163C408.346 354.59 407.07 353.315 405.497 353.315C403.925 353.315 402.649 354.59 402.649 356.163C402.649 357.736 403.925 359.011 405.497 359.011Z" fill="#34D2B6" stroke="white" stroke-width="2"/>
<path d="M427.205 336.716C428.777 336.716 430.053 335.441 430.053 333.868C430.053 332.295 428.777 331.02 427.205 331.02C425.632 331.02 424.356 332.295 424.356 333.868C424.356 335.441 425.632 336.716 427.205 336.716Z" fill="#34D2B6" stroke="white" stroke-width="2"/>
<path d="M368.398 322.557C369.971 322.557 371.246 321.282 371.246 319.709C371.246 318.136 369.971 316.861 368.398 316.861C366.825 316.861 365.55 318.136 365.55 319.709C365.55 321.282 366.825 322.557 368.398 322.557Z" fill="#34D2B6" stroke="white" stroke-width="2"/>
<path d="M333.272 320.998C334.845 320.998 336.12 319.723 336.12 318.15C336.12 316.577 334.845 315.302 333.272 315.302C331.699 315.302 330.424 316.577 330.424 318.15C330.424 319.723 331.699 320.998 333.272 320.998Z" fill="#34D2B6" stroke="white" stroke-width="2"/>
<path d="M330.399 319.691C331.972 319.691 333.247 318.416 333.247 316.843C333.247 315.27 331.972 313.995 330.399 313.995C328.826 313.995 327.551 315.27 327.551 316.843C327.551 318.416 328.826 319.691 330.399 319.691Z" fill="#34D2B6" stroke="white" stroke-width="2"/>
<path d="M324.245 315.804C325.818 315.804 327.093 314.529 327.093 312.956C327.093 311.383 325.818 310.108 324.245 310.108C322.672 310.108 321.396 311.383 321.396 312.956C321.396 314.529 322.672 315.804 324.245 315.804Z" fill="#34D2B6" stroke="white" stroke-width="2"/>
<path d="M322.395 321.538C323.968 321.538 325.243 320.263 325.243 318.69C325.243 317.117 323.968 315.842 322.395 315.842C320.822 315.842 319.547 317.117 319.547 318.69C319.547 320.263 320.822 321.538 322.395 321.538Z" fill="#34D2B6" stroke="white" stroke-width="2"/>
<path d="M272.201 307.469C273.774 307.469 275.049 306.193 275.049 304.621C275.049 303.048 273.774 301.772 272.201 301.772C270.628 301.772 269.353 303.048 269.353 304.621C269.353 306.193 270.628 307.469 272.201 307.469Z" fill="#34D2B6" stroke="white" stroke-width="2"/>
<path d="M265.863 313.67C267.436 313.67 268.711 312.395 268.711 310.822C268.711 309.249 267.436 307.974 265.863 307.974C264.29 307.974 263.015 309.249 263.015 310.822C263.015 312.395 264.29 313.67 265.863 313.67Z" fill="#34D2B6" stroke="white" stroke-width="2"/>
<path d="M272.716 311.403C274.289 311.403 275.564 310.128 275.564 308.555C275.564 306.982 274.289 305.707 272.716 305.707C271.143 305.707 269.868 306.982 269.868 308.555C269.868 310.128 271.143 311.403 272.716 311.403Z" fill="#34D2B6" stroke="white" stroke-width="2"/>
<path d="M277.108 305.621C278.681 305.621 279.956 304.346 279.956 302.773C279.956 301.2 278.681 299.925 277.108 299.925C275.535 299.925 274.26 301.2 274.26 302.773C274.26 304.346 275.535 305.621 277.108 305.621Z" fill="#34D2B6" stroke="white" stroke-width="2"/>
<path d="M276.424 310.379C277.997 310.379 279.272 309.104 279.272 307.531C279.272 305.958 277.997 304.683 276.424 304.683C274.851 304.683 273.576 305.958 273.576 307.531C273.576 309.104 274.851 310.379 276.424 310.379Z" fill="#34D2B6" stroke="white" stroke-width="2"/>
<path d="M328.287 325.234C329.859 325.234 331.135 323.959 331.135 322.386C331.135 320.813 329.859 319.538 328.287 319.538C326.714 319.538 325.438 320.813 325.438 322.386C325.438 323.959 326.714 325.234 328.287 325.234Z" fill="#34D2B6" stroke="white" stroke-width="2"/>
<path d="M315.085 330.64C316.658 330.64 317.933 329.365 317.933 327.792C317.933 326.219 316.658 324.944 315.085 324.944C313.512 324.944 312.237 326.219 312.237 327.792C312.237 329.365 313.512 330.64 315.085 330.64Z" fill="#34D2B6" stroke="white" stroke-width="2"/>
<path d="M326.438 335.255C328.011 335.255 329.286 333.98 329.286 332.407C329.286 330.834 328.011 329.559 326.438 329.559C324.865 329.559 323.59 330.834 323.59 332.407C323.59 333.98 324.865 335.255 326.438 335.255Z" fill="#34D2B6" stroke="white" stroke-width="2"/>
<path d="M450.761 321.461C452.334 321.461 453.609 320.186 453.609 318.613C453.609 317.04 452.334 315.765 450.761 315.765C449.188 315.765 447.913 317.04 447.913 318.613C447.913 320.186 449.188 321.461 450.761 321.461Z" fill="#34D2B6" stroke="white" stroke-width="2"/>
<path d="M407.002 326.156C408.575 326.156 409.85 324.881 409.85 323.308C409.85 321.735 408.575 320.46 407.002 320.46C405.429 320.46 404.154 321.735 404.154 323.308C404.154 324.881 405.429 326.156 407.002 326.156Z" fill="#34D2B6" stroke="white" stroke-width="2"/>
<path d="M447.153 323.698C448.726 323.698 450.001 322.423 450.001 320.85C450.001 319.277 448.726 318.002 447.153 318.002C445.58 318.002 444.305 319.277 444.305 320.85C444.305 322.423 445.58 323.698 447.153 323.698Z" fill="#34D2B6" stroke="white" stroke-width="2"/>
<path d="M400.217 328.732C401.79 328.732 403.065 327.457 403.065 325.884C403.065 324.311 401.79 323.036 400.217 323.036C398.644 323.036 397.369 324.311 397.369 325.884C397.369 327.457 398.644 328.732 400.217 328.732Z" fill="#34D2B6" stroke="white" stroke-width="2"/>
<path d="M451.376 327.395C452.949 327.395 454.224 326.12 454.224 324.547C454.224 322.974 452.949 321.699 451.376 321.699C449.803 321.699 448.528 322.974 448.528 324.547C448.528 326.12 449.803 327.395 451.376 327.395Z" fill="#34D2B6" stroke="white" stroke-width="2"/>
<path d="M583.444 300.341C585.017 300.341 586.292 299.066 586.292 297.493C586.292 295.92 585.017 294.645 583.444 294.645C581.871 294.645 580.596 295.92 580.596 297.493C580.596 299.066 581.871 300.341 583.444 300.341Z" fill="#34D2B6" stroke="white" stroke-width="2"/>
<path d="M676.552 269.833C678.125 269.833 679.4 268.558 679.4 266.985C679.4 265.412 678.125 264.137 676.552 264.137C674.979 264.137 673.704 265.412 673.704 266.985C673.704 268.558 674.979 269.833 676.552 269.833Z" fill="#34D2B6" stroke="white" stroke-width="2"/>
<path d="M579.747 304.037C581.319 304.037 582.595 302.762 582.595 301.189C582.595 299.616 581.319 298.341 579.747 298.341C578.174 298.341 576.898 299.616 576.898 301.189C576.898 302.762 578.174 304.037 579.747 304.037Z" fill="#34D2B6" stroke="white" stroke-width="2"/>
<path d="M407.002 330.581C408.575 330.581 409.85 329.306 409.85 327.733C409.85 326.16 408.575 324.885 407.002 324.885C405.429 324.885 404.154 326.16 404.154 327.733C404.154 329.306 405.429 330.581 407.002 330.581Z" fill="#34D2B6" stroke="white" stroke-width="2"/>
<path d="M448.327 353.144C449.9 353.144 451.175 351.869 451.175 350.296C451.175 348.723 449.9 347.448 448.327 347.448C446.754 347.448 445.479 348.723 445.479 350.296C445.479 351.869 446.754 353.144 448.327 353.144Z" fill="#34D2B6" stroke="white" stroke-width="2"/>
<path d="M241.226 309.499C242.786 309.295 243.885 307.865 243.681 306.306C243.477 304.746 242.048 303.647 240.488 303.851C238.928 304.054 237.829 305.484 238.033 307.044C238.237 308.603 239.666 309.702 241.226 309.499Z" fill="#A9DCE9" stroke="white" stroke-width="2"/>
<path d="M244.179 308.167C245.739 307.963 246.838 306.534 246.634 304.974C246.43 303.414 245.001 302.315 243.441 302.519C241.882 302.723 240.782 304.152 240.986 305.712C241.19 307.272 242.62 308.371 244.179 308.167Z" fill="#A9DCE9" stroke="white" stroke-width="2"/>
<path d="M259.458 301.127C261.017 300.923 262.116 299.493 261.913 297.933C261.709 296.374 260.279 295.275 258.72 295.478C257.16 295.682 256.061 297.112 256.264 298.672C256.468 300.231 257.898 301.33 259.458 301.127Z" fill="#A9DCE9" stroke="white" stroke-width="2"/>
<path d="M267.042 281.766C268.601 281.562 269.7 280.132 269.497 278.573C269.293 277.013 267.863 275.914 266.303 276.118C264.744 276.321 263.645 277.751 263.848 279.311C264.052 280.87 265.482 281.97 267.042 281.766Z" fill="#A9DCE9" stroke="white" stroke-width="2"/>
<path d="M258.241 306.077C259.8 305.873 260.9 304.443 260.696 302.884C260.492 301.324 259.062 300.225 257.503 300.429C255.943 300.632 254.844 302.062 255.048 303.622C255.251 305.181 256.681 306.281 258.241 306.077Z" fill="#A9DCE9" stroke="white" stroke-width="2"/>
<path d="M174.239 331.777C175.812 331.777 177.087 330.502 177.087 328.929C177.087 327.356 175.812 326.081 174.239 326.081C172.666 326.081 171.391 327.356 171.391 328.929C171.391 330.502 172.666 331.777 174.239 331.777Z" fill="#A9DCE9" stroke="white" stroke-width="2"/>
<path d="M160.843 344.929C162.416 344.929 163.691 343.654 163.691 342.081C163.691 340.508 162.416 339.233 160.843 339.233C159.27 339.233 157.995 340.508 157.995 342.081C157.995 343.654 159.27 344.929 160.843 344.929Z" fill="#A9DCE9" stroke="white" stroke-width="2"/>
<path d="M159.033 364.877C160.606 364.877 161.881 363.602 161.881 362.029C161.881 360.456 160.606 359.181 159.033 359.181C157.46 359.181 156.185 360.456 156.185 362.029C156.185 363.602 157.46 364.877 159.033 364.877Z" fill="#A9DCE9" stroke="white" stroke-width="2"/>
<path d="M150.282 369.011C151.855 369.011 153.13 367.736 153.13 366.163C153.13 364.59 151.855 363.315 150.282 363.315C148.709 363.315 147.434 364.59 147.434 366.163C147.434 367.736 148.709 369.011 150.282 369.011Z" fill="#A9DCE9" stroke="white" stroke-width="2"/>
<path d="M133.795 378.897C135.368 378.897 136.643 377.622 136.643 376.049C136.643 374.476 135.368 373.201 133.795 373.201C132.222 373.201 130.947 374.476 130.947 376.049C130.947 377.622 132.222 378.897 133.795 378.897Z" fill="#A9DCE9" stroke="white" stroke-width="2"/>
<path d="M128.837 384.366C130.41 384.366 131.685 383.09 131.685 381.517C131.685 379.945 130.41 378.669 128.837 378.669C127.264 378.669 125.989 379.945 125.989 381.517C125.989 383.09 127.264 384.366 128.837 384.366Z" fill="#A9DCE9" stroke="white" stroke-width="2"/>
<path d="M123.352 391.218C124.925 391.218 126.2 389.942 126.2 388.37C126.2 386.797 124.925 385.521 123.352 385.521C121.779 385.521 120.504 386.797 120.504 388.37C120.504 389.942 121.779 391.218 123.352 391.218Z" fill="#A9DCE9" stroke="white" stroke-width="2"/>
<path d="M116.103 394.914C117.676 394.914 118.951 393.639 118.951 392.066C118.951 390.493 117.676 389.218 116.103 389.218C114.53 389.218 113.255 390.493 113.255 392.066C113.255 393.639 114.53 394.914 116.103 394.914Z" fill="#A9DCE9" stroke="white" stroke-width="2"/>
<path d="M164.322 423.547C165.895 423.547 167.17 422.272 167.17 420.699C167.17 419.126 165.895 417.851 164.322 417.851C162.749 417.851 161.474 419.126 161.474 420.699C161.474 422.272 162.749 423.547 164.322 423.547Z" fill="#A9DCE9" stroke="white" stroke-width="2"/>
<path d="M146.585 402.599C148.158 402.599 149.433 401.324 149.433 399.751C149.433 398.178 148.158 396.903 146.585 396.903C145.012 396.903 143.737 398.178 143.737 399.751C143.737 401.324 145.012 402.599 146.585 402.599Z" fill="#A9DCE9" stroke="white" stroke-width="2"/>
<path d="M146.057 395.207C147.63 395.207 148.905 393.932 148.905 392.359C148.905 390.786 147.63 389.511 146.057 389.511C144.484 389.511 143.209 390.786 143.209 392.359C143.209 393.932 144.484 395.207 146.057 395.207Z" fill="#A9DCE9" stroke="white" stroke-width="2"/>
<path d="M141.833 397.055C143.406 397.055 144.681 395.78 144.681 394.207C144.681 392.634 143.406 391.359 141.833 391.359C140.26 391.359 138.985 392.634 138.985 394.207C138.985 395.78 140.26 397.055 141.833 397.055Z" fill="#A9DCE9" stroke="white" stroke-width="2"/>
<path d="M130.774 397.437C132.347 397.437 133.622 396.162 133.622 394.589C133.622 393.016 132.347 391.741 130.774 391.741C129.201 391.741 127.926 393.016 127.926 394.589C127.926 396.162 129.201 397.437 130.774 397.437Z" fill="#A9DCE9" stroke="white" stroke-width="2"/>
<path d="M135.73 389.438C137.303 389.438 138.578 388.163 138.578 386.59C138.578 385.017 137.303 383.742 135.73 383.742C134.157 383.742 132.882 385.017 132.882 386.59C132.882 388.163 134.157 389.438 135.73 389.438Z" fill="#A9DCE9" stroke="white" stroke-width="2"/>
<path d="M136.376 385.742C137.949 385.742 139.224 384.467 139.224 382.894C139.224 381.321 137.949 380.046 136.376 380.046C134.803 380.046 133.528 381.321 133.528 382.894C133.528 384.467 134.803 385.742 136.376 385.742Z" fill="#A9DCE9" stroke="white" stroke-width="2"/>
<path d="M150.282 377.784C151.855 377.784 153.13 376.509 153.13 374.936C153.13 373.363 151.855 372.088 150.282 372.088C148.709 372.088 147.434 373.363 147.434 374.936C147.434 376.509 148.709 377.784 150.282 377.784Z" fill="#A9DCE9" stroke="white" stroke-width="2"/>
<path d="M176.097 360.728C177.67 360.728 178.945 359.453 178.945 357.88C178.945 356.307 177.67 355.032 176.097 355.032C174.524 355.032 173.249 356.307 173.249 357.88C173.249 359.453 174.524 360.728 176.097 360.728Z" fill="#A9DCE9" stroke="white" stroke-width="2"/>
<path d="M185.119 358.423C186.692 358.423 187.967 357.148 187.967 355.575C187.967 354.002 186.692 352.727 185.119 352.727C183.546 352.727 182.271 354.002 182.271 355.575C182.271 357.148 183.546 358.423 185.119 358.423Z" fill="#A9DCE9" stroke="white" stroke-width="2"/>
<path d="M167.089 425.83C168.662 425.83 169.937 424.555 169.937 422.982C169.937 421.409 168.662 420.134 167.089 420.134C165.516 420.134 164.241 421.409 164.241 422.982C164.241 424.555 165.516 425.83 167.089 425.83Z" fill="#A9DCE9" stroke="white" stroke-width="2"/>
<path d="M162.016 427.679C163.589 427.679 164.864 426.403 164.864 424.83C164.864 423.258 163.589 421.982 162.016 421.982C160.443 421.982 159.168 423.258 159.168 424.83C159.168 426.403 160.443 427.679 162.016 427.679Z" fill="#A9DCE9" stroke="white" stroke-width="2"/>
<path d="M176.097 425.307C177.67 425.307 178.945 424.032 178.945 422.459C178.945 420.886 177.67 419.611 176.097 419.611C174.524 419.611 173.249 420.886 173.249 422.459C173.249 424.032 174.524 425.307 176.097 425.307Z" fill="#A9DCE9" stroke="white" stroke-width="2"/>
<path d="M189.421 415.255C190.994 415.255 192.269 413.98 192.269 412.407C192.269 410.834 190.994 409.559 189.421 409.559C187.848 409.559 186.573 410.834 186.573 412.407C186.573 413.98 187.848 415.255 189.421 415.255Z" fill="#A9DCE9" stroke="white" stroke-width="2"/>
<path d="M182.039 393.523C183.612 393.523 184.888 392.248 184.888 390.675C184.888 389.102 183.612 387.827 182.039 387.827C180.467 387.827 179.191 389.102 179.191 390.675C179.191 392.248 180.467 393.523 182.039 393.523Z" fill="#A9DCE9" stroke="white" stroke-width="2"/>
<path d="M187.627 393.296C189.2 393.296 190.475 392.021 190.475 390.448C190.475 388.875 189.2 387.6 187.627 387.6C186.054 387.6 184.779 388.875 184.779 390.448C184.779 392.021 186.054 393.296 187.627 393.296Z" fill="#A9DCE9" stroke="white" stroke-width="2"/>
<path d="M178.033 387.346C179.606 387.346 180.881 386.07 180.881 384.497C180.881 382.925 179.606 381.649 178.033 381.649C176.46 381.649 175.185 382.925 175.185 384.497C175.185 386.07 176.46 387.346 178.033 387.346Z" fill="#A9DCE9" stroke="white" stroke-width="2"/>
<path d="M190.842 371.331C192.415 371.331 193.69 370.056 193.69 368.483C193.69 366.91 192.415 365.635 190.842 365.635C189.269 365.635 187.994 366.91 187.994 368.483C187.994 370.056 189.269 371.331 190.842 371.331Z" fill="#A9DCE9" stroke="white" stroke-width="2"/>
<path d="M186.071 376.428C187.644 376.428 188.919 375.152 188.919 373.58C188.919 372.007 187.644 370.731 186.071 370.731C184.498 370.731 183.223 372.007 183.223 373.58C183.223 375.152 184.498 376.428 186.071 376.428Z" fill="#A9DCE9" stroke="white" stroke-width="2"/>
<path d="M202.175 371.547C203.748 371.547 205.023 370.272 205.023 368.699C205.023 367.126 203.748 365.851 202.175 365.851C200.602 365.851 199.327 367.126 199.327 368.699C199.327 370.272 200.602 371.547 202.175 371.547Z" fill="#A9DCE9" stroke="white" stroke-width="2"/>
<path d="M205.08 375.42C206.652 375.42 207.928 374.145 207.928 372.572C207.928 370.999 206.652 369.724 205.08 369.724C203.507 369.724 202.231 370.999 202.231 372.572C202.231 374.145 203.507 375.42 205.08 375.42Z" fill="#A9DCE9" stroke="white" stroke-width="2"/>
<path d="M228.838 380.598C230.411 380.598 231.686 379.323 231.686 377.75C231.686 376.177 230.411 374.902 228.838 374.902C227.265 374.902 225.99 376.177 225.99 377.75C225.99 379.323 227.265 380.598 228.838 380.598Z" fill="#A9DCE9" stroke="white" stroke-width="2"/>
<path d="M238.806 369.481C240.379 369.481 241.654 368.206 241.654 366.633C241.654 365.06 240.379 363.785 238.806 363.785C237.233 363.785 235.958 365.06 235.958 366.633C235.958 368.206 237.233 369.481 238.806 369.481Z" fill="#A9DCE9" stroke="white" stroke-width="2"/>
<path d="M242.981 375.438C244.554 375.438 245.829 374.163 245.829 372.59C245.829 371.017 244.554 369.742 242.981 369.742C241.408 369.742 240.133 371.017 240.133 372.59C240.133 374.163 241.408 375.438 242.981 375.438Z" fill="#A9DCE9" stroke="white" stroke-width="2"/>
<path d="M233.063 371.869C234.636 371.869 235.911 370.594 235.911 369.021C235.911 367.448 234.636 366.173 233.063 366.173C231.49 366.173 230.215 367.448 230.215 369.021C230.215 370.594 231.49 371.869 233.063 371.869Z" fill="#A9DCE9" stroke="white" stroke-width="2"/>
<path d="M216.168 381.757C217.741 381.757 219.016 380.482 219.016 378.909C219.016 377.336 217.741 376.061 216.168 376.061C214.595 376.061 213.32 377.336 213.32 378.909C213.32 380.482 214.595 381.757 216.168 381.757Z" fill="#A9DCE9" stroke="white" stroke-width="2"/>
<path d="M223.087 358.357C224.66 358.357 225.935 357.082 225.935 355.509C225.935 353.936 224.66 352.661 223.087 352.661C221.514 352.661 220.239 353.936 220.239 355.509C220.239 357.082 221.514 358.357 223.087 358.357Z" fill="#A9DCE9" stroke="white" stroke-width="2"/>
<path d="M226.422 361.619C227.995 361.619 229.27 360.344 229.27 358.771C229.27 357.198 227.995 355.923 226.422 355.923C224.849 355.923 223.574 357.198 223.574 358.771C223.574 360.344 224.849 361.619 226.422 361.619Z" fill="#A9DCE9" stroke="white" stroke-width="2"/>
<path d="M235.88 382.061C237.453 382.061 238.728 380.786 238.728 379.213C238.728 377.64 237.453 376.365 235.88 376.365C234.307 376.365 233.032 377.64 233.032 379.213C233.032 380.786 234.307 382.061 235.88 382.061Z" fill="#A9DCE9" stroke="white" stroke-width="2"/>
<path d="M197.804 392.625C199.377 392.625 200.652 391.35 200.652 389.777C200.652 388.204 199.377 386.929 197.804 386.929C196.231 386.929 194.956 388.204 194.956 389.777C194.956 391.35 196.231 392.625 197.804 392.625Z" fill="#A9DCE9" stroke="white" stroke-width="2"/>
<path d="M205.357 393.523C206.93 393.523 208.205 392.248 208.205 390.675C208.205 389.102 206.93 387.827 205.357 387.827C203.784 387.827 202.509 389.102 202.509 390.675C202.509 392.248 203.784 393.523 205.357 393.523Z" fill="#A9DCE9" stroke="white" stroke-width="2"/>
<path d="M168.447 402.599C170.02 402.599 171.295 401.324 171.295 399.751C171.295 398.178 170.02 396.903 168.447 396.903C166.874 396.903 165.599 398.178 165.599 399.751C165.599 401.324 166.874 402.599 168.447 402.599Z" fill="#A9DCE9" stroke="white" stroke-width="2"/>
<path d="M176.825 406.824C178.398 406.824 179.673 405.549 179.673 403.976C179.673 402.403 178.398 401.128 176.825 401.128C175.252 401.128 173.977 402.403 173.977 403.976C173.977 405.549 175.252 406.824 176.825 406.824Z" fill="#A9DCE9" stroke="white" stroke-width="2"/>
<path d="M159.163 402.067C160.736 402.067 162.012 400.792 162.012 399.219C162.012 397.646 160.736 396.371 159.163 396.371C157.591 396.371 156.315 397.646 156.315 399.219C156.315 400.792 157.591 402.067 159.163 402.067Z" fill="#A9DCE9" stroke="white" stroke-width="2"/>
<path d="M159.548 386.423C161.121 386.423 162.396 385.148 162.396 383.575C162.396 382.002 161.121 380.727 159.548 380.727C157.975 380.727 156.7 382.002 156.7 383.575C156.7 385.148 157.975 386.423 159.548 386.423Z" fill="#A9DCE9" stroke="white" stroke-width="2"/>
<path d="M164.217 389.062C165.79 389.062 167.065 387.787 167.065 386.214C167.065 384.641 165.79 383.366 164.217 383.366C162.644 383.366 161.369 384.641 161.369 386.214C161.369 387.787 162.644 389.062 164.217 389.062Z" fill="#A9DCE9" stroke="white" stroke-width="2"/>
<path d="M168.571 392.758C170.144 392.758 171.419 391.483 171.419 389.91C171.419 388.337 170.144 387.062 168.571 387.062C166.998 387.062 165.723 388.337 165.723 389.91C165.723 391.483 166.998 392.758 168.571 392.758Z" fill="#A9DCE9" stroke="white" stroke-width="2"/>
<path d="M198.193 403.978C199.766 403.978 201.041 402.703 201.041 401.13C201.041 399.557 199.766 398.282 198.193 398.282C196.62 398.282 195.345 399.557 195.345 401.13C195.345 402.703 196.62 403.978 198.193 403.978Z" fill="#A9DCE9" stroke="white" stroke-width="2"/>
<path d="M231.303 401.171C232.876 401.171 234.151 399.896 234.151 398.323C234.151 396.75 232.876 395.475 231.303 395.475C229.73 395.475 228.455 396.75 228.455 398.323C228.455 399.896 229.73 401.171 231.303 401.171Z" fill="#A9DCE9" stroke="white" stroke-width="2"/>
<path d="M128.719 424.248C130.292 424.248 131.567 422.973 131.567 421.4C131.567 419.827 130.292 418.552 128.719 418.552C127.146 418.552 125.871 419.827 125.871 421.4C125.871 422.973 127.146 424.248 128.719 424.248Z" fill="#A9DCE9" stroke="white" stroke-width="2"/>
<path d="M115.96 411.576C117.533 411.576 118.808 410.301 118.808 408.728C118.808 407.155 117.533 405.88 115.96 405.88C114.387 405.88 113.112 407.155 113.112 408.728C113.112 410.301 114.387 411.576 115.96 411.576Z" fill="#A9DCE9" stroke="white" stroke-width="2"/>
<path d="M119.228 414.476C120.801 414.476 122.076 413.201 122.076 411.628C122.076 410.055 120.801 408.78 119.228 408.78C117.655 408.78 116.38 410.055 116.38 411.628C116.38 413.201 117.655 414.476 119.228 414.476Z" fill="#A9DCE9" stroke="white" stroke-width="2"/>
<path d="M113.907 375.438C115.48 375.438 116.755 374.163 116.755 372.59C116.755 371.017 115.48 369.742 113.907 369.742C112.334 369.742 111.059 371.017 111.059 372.59C111.059 374.163 112.334 375.438 113.907 375.438Z" fill="#A9DCE9" stroke="white" stroke-width="2"/>
<path d="M102.759 363.118C104.332 363.118 105.607 361.842 105.607 360.269C105.607 358.697 104.332 357.421 102.759 357.421C101.186 357.421 99.9111 358.697 99.9111 360.269C99.9111 361.842 101.186 363.118 102.759 363.118Z" fill="#A9DCE9" stroke="white" stroke-width="2"/>
<path d="M102.759 381.305C104.332 381.305 105.607 380.029 105.607 378.456C105.607 376.884 104.332 375.608 102.759 375.608C101.186 375.608 99.9111 376.884 99.9111 378.456C99.9111 380.029 101.186 381.305 102.759 381.305Z" fill="#A9DCE9" stroke="white" stroke-width="2"/>
<path d="M163.188 314.421C164.761 314.421 166.036 313.146 166.036 311.573C166.036 310 164.761 308.725 163.188 308.725C161.615 308.725 160.34 310 160.34 311.573C160.34 313.146 161.615 314.421 163.188 314.421Z" fill="#A9DCE9" stroke="white" stroke-width="2"/>
<path d="M69.9773 431.832V435H59.5853V438.12H69.4973V441.264H59.5853V444.408H69.9773V447.576H55.9853V431.832H69.9773ZM86.553 439.512C87.289 439.848 87.849 440.304 88.233 440.88C88.617 441.456 88.809 442.128 88.809 442.896V443.16C88.809 444.52 88.281 445.6 87.225 446.4C86.169 447.184 84.737 447.576 82.929 447.576H73.089V431.832H82.473C84.329 431.832 85.761 432.2 86.769 432.936C87.793 433.656 88.305 434.672 88.305 435.984V436.248C88.305 437.656 87.721 438.744 86.553 439.512ZM76.689 434.976V438.144H82.449C83.937 438.144 84.681 437.656 84.681 436.68V436.44C84.681 435.96 84.489 435.6 84.105 435.36C83.737 435.104 83.193 434.976 82.473 434.976H76.689ZM85.137 442.632C85.137 441.64 84.385 441.144 82.881 441.144H76.689V444.432H82.881C83.601 444.432 84.153 444.296 84.537 444.024C84.937 443.752 85.137 443.368 85.137 442.872V442.632ZM101.677 431.832C103.533 431.832 104.997 432.28 106.069 433.176C107.141 434.072 107.677 435.296 107.677 436.848V437.112C107.677 438.68 107.141 439.912 106.069 440.808C104.997 441.704 103.533 442.152 101.677 442.152H95.2928V447.576H91.6928V431.832H101.677ZM101.581 438.96C102.365 438.96 102.965 438.808 103.381 438.504C103.797 438.184 104.005 437.72 104.005 437.112V436.848C104.005 436.256 103.797 435.808 103.381 435.504C102.965 435.184 102.365 435.024 101.581 435.024H95.2928V438.96H101.581ZM119.007 447.864C117.119 447.864 115.471 447.536 114.063 446.88C112.655 446.224 111.559 445.288 110.775 444.072C110.007 442.856 109.623 441.44 109.623 439.824V439.608C109.623 437.992 110.007 436.576 110.775 435.36C111.559 434.144 112.655 433.208 114.063 432.552C115.487 431.88 117.135 431.544 119.007 431.544C120.895 431.544 122.543 431.88 123.951 432.552C125.359 433.208 126.447 434.144 127.215 435.36C127.983 436.576 128.367 437.992 128.367 439.608V439.824C128.367 441.44 127.983 442.856 127.215 444.072C126.447 445.288 125.359 446.224 123.951 446.88C122.543 447.536 120.895 447.864 119.007 447.864ZM119.007 444.528C120.863 444.528 122.271 444.128 123.231 443.328C124.207 442.528 124.695 441.376 124.695 439.872V439.584C124.695 438.08 124.199 436.92 123.207 436.104C122.231 435.288 120.831 434.88 119.007 434.88C117.167 434.88 115.751 435.288 114.759 436.104C113.783 436.92 113.295 438.08 113.295 439.584V439.872C113.295 441.376 113.783 442.528 114.759 443.328C115.751 444.128 117.167 444.528 119.007 444.528ZM146.582 431.832V447.576H142.982V435.072H134.75V447.576H131.15V431.832H146.582ZM166.426 447.024V447.576H162.826L161.386 444.312H153.514L152.074 447.576H148.474V447.024L155.458 431.832H159.442L166.426 447.024ZM160.018 441.192L157.45 435.336L154.882 441.192H160.018Z" fill="#3C525E"/>
<path d="M248.364 379.123H256.556V380.947H250.3V383.491H253.388C256.012 383.491 257.356 384.691 257.356 386.819C257.356 389.155 255.836 390.323 252.812 390.323H248.364V379.123ZM253.004 385.315H250.3V388.499H252.908C254.54 388.499 255.356 387.939 255.356 386.835C255.356 385.795 254.652 385.315 253.004 385.315ZM260.51 393.523H258.686V382.003H260.51V382.755C261.006 382.131 261.918 381.811 262.814 381.811C264.046 381.811 265.038 382.195 265.758 382.979C266.478 383.763 266.846 384.771 266.846 386.019C266.846 387.315 266.462 388.371 265.694 389.203C264.926 390.051 263.918 390.467 262.686 390.467C261.614 390.467 260.878 390.243 260.51 389.779V393.523ZM262.622 383.507C261.614 383.507 260.878 384.083 260.51 384.867V387.747C260.91 388.435 261.566 388.771 262.478 388.771C263.966 388.771 264.958 387.715 264.958 386.163C264.958 384.499 264.078 383.507 262.622 383.507ZM274.491 387.667L275.611 388.771C274.763 389.907 273.643 390.467 272.235 390.467C270.891 390.467 269.819 390.067 269.003 389.283C268.187 388.499 267.771 387.459 267.771 386.147C267.771 384.883 268.155 383.843 268.907 383.027C269.659 382.211 270.699 381.811 272.043 381.811C273.179 381.811 274.107 382.163 274.843 382.851C275.579 383.555 275.947 384.483 275.947 385.619C275.947 385.891 275.915 386.291 275.851 386.787H269.675C269.819 388.067 270.843 388.771 272.267 388.771C273.211 388.771 273.947 388.403 274.491 387.667ZM271.963 383.459C270.747 383.459 269.931 384.115 269.691 385.203H274.059C273.915 384.067 273.163 383.459 271.963 383.459ZM283.476 387.587L284.772 388.419C284.116 389.715 282.692 390.467 281.204 390.467C279.86 390.467 278.772 390.067 277.956 389.283C277.14 388.499 276.724 387.443 276.724 386.147C276.724 384.899 277.124 383.859 277.94 383.043C278.756 382.227 279.812 381.811 281.108 381.811C282.772 381.811 284.116 382.563 284.676 383.699L283.316 384.595C282.772 383.875 282.068 383.507 281.188 383.507C279.668 383.507 278.612 384.595 278.612 386.147C278.612 386.899 278.868 387.523 279.38 388.019C279.876 388.515 280.548 388.771 281.38 388.771C282.26 388.771 282.948 388.371 283.476 387.587ZM288.05 383.699H285.042V382.003H292.882V383.699H289.874V390.323H288.05V383.699Z" fill="#3C525E"/>
<path d="M261.605 366.597L262.741 367.845C261.829 369.141 260.117 369.925 258.197 369.925C256.437 369.925 255.045 369.397 254.005 368.357C252.965 367.317 252.437 365.941 252.437 364.197C252.437 362.565 252.965 361.205 254.021 360.101C255.077 359.013 256.453 358.469 258.165 358.469C260.133 358.469 261.781 359.253 262.565 360.405L261.285 361.621C260.501 360.757 259.493 360.325 258.261 360.325C257.109 360.325 256.181 360.677 255.493 361.381C254.805 362.085 254.453 363.029 254.453 364.197C254.453 365.365 254.821 366.293 255.541 366.997C256.261 367.717 257.189 368.069 258.341 368.069C259.701 368.069 260.789 367.573 261.605 366.597ZM267.771 369.797H263.835V361.477H267.387C269.755 361.477 270.891 362.101 270.891 363.685C270.891 364.357 270.587 364.917 269.963 365.381C270.747 365.685 271.131 366.325 271.131 367.317C271.131 368.933 269.899 369.797 267.771 369.797ZM267.643 366.357H265.659V368.149H267.595C268.699 368.149 269.243 367.861 269.243 367.269C269.243 366.629 268.747 366.357 267.643 366.357ZM267.339 363.125H265.659V364.773H267.803C268.603 364.773 269.003 364.485 269.003 363.925C269.003 363.285 268.491 363.125 267.339 363.125ZM278.413 364.389L273.997 369.797H272.413V361.477H274.237V366.901L278.653 361.477H280.237V369.797H278.413V364.389ZM288.313 367.061L289.609 367.893C288.953 369.189 287.529 369.941 286.041 369.941C284.697 369.941 283.609 369.541 282.793 368.757C281.977 367.973 281.561 366.917 281.561 365.621C281.561 364.373 281.961 363.333 282.777 362.517C283.593 361.701 284.649 361.285 285.945 361.285C287.609 361.285 288.953 362.037 289.513 363.173L288.153 364.069C287.609 363.349 286.905 362.981 286.025 362.981C284.505 362.981 283.449 364.069 283.449 365.621C283.449 366.373 283.705 366.997 284.217 367.493C284.713 367.989 285.385 368.245 286.217 368.245C287.097 368.245 287.785 367.845 288.313 367.061ZM297.904 369.797H296.08V363.173H293.136V364.469C293.136 368.901 291.696 370.021 289.632 369.861L289.488 368.165C290.352 368.261 291.344 367.701 291.344 363.845V361.477H297.904V369.797ZM299.217 365.621C299.217 364.357 299.633 363.317 300.465 362.501C301.281 361.685 302.353 361.285 303.665 361.285C304.977 361.285 306.049 361.685 306.881 362.501C307.713 363.317 308.129 364.357 308.129 365.621C308.129 366.869 307.713 367.893 306.881 368.709C306.049 369.525 304.977 369.941 303.665 369.941C302.369 369.941 301.313 369.525 300.481 368.709C299.633 367.893 299.217 366.869 299.217 365.621ZM301.105 365.621C301.105 366.373 301.345 366.997 301.825 367.493C302.289 367.989 302.913 368.245 303.665 368.245C305.201 368.245 306.241 367.205 306.241 365.621C306.241 364.837 306.001 364.197 305.505 363.701C305.009 363.221 304.401 362.981 303.665 362.981C302.177 362.981 301.105 364.021 301.105 365.621ZM314.661 361.477H316.485V369.797H314.661V366.533C314.101 367.045 313.349 367.301 312.421 367.301C310.197 367.301 309.077 366.197 309.077 363.989V361.477H310.901V363.365C310.901 364.981 311.461 365.605 312.821 365.605C313.541 365.605 314.277 365.205 314.661 364.693V361.477ZM321.651 369.797H318.179V361.477H320.003V363.893H321.763C324.259 363.893 325.283 365.077 325.283 366.821C325.283 368.533 324.163 369.797 321.651 369.797ZM321.603 365.589H320.003V368.101H321.587C322.867 368.101 323.395 367.685 323.395 366.837C323.395 366.005 322.803 365.589 321.603 365.589Z" fill="#3C525E"/>
<path d="M249.297 337.138H257.489V338.962H251.233V341.506H254.321C256.945 341.506 258.289 342.706 258.289 344.834C258.289 347.17 256.769 348.338 253.745 348.338H249.297V337.138ZM253.937 343.33H251.233V346.514H253.841C255.473 346.514 256.289 345.954 256.289 344.85C256.289 343.81 255.585 343.33 253.937 343.33ZM261.443 351.538H259.619V340.018H261.443V340.77C261.939 340.146 262.851 339.826 263.747 339.826C264.979 339.826 265.971 340.21 266.691 340.994C267.411 341.778 267.779 342.786 267.779 344.034C267.779 345.33 267.395 346.386 266.627 347.218C265.859 348.066 264.851 348.482 263.619 348.482C262.547 348.482 261.811 348.258 261.443 347.794V351.538ZM263.555 341.522C262.547 341.522 261.811 342.098 261.443 342.882V345.762C261.843 346.45 262.499 346.786 263.411 346.786C264.899 346.786 265.891 345.73 265.891 344.178C265.891 342.514 265.011 341.522 263.555 341.522ZM269.096 351.442L269.816 349.89C269.928 349.954 270.04 349.986 270.184 349.986C270.68 349.986 271.128 349.522 271.496 348.594L271.784 347.842L267.688 340.018H269.8L272.664 345.634L274.872 340.018H276.824L273.56 348.098C273 349.458 272.488 350.386 272.008 350.914C271.512 351.426 270.936 351.682 270.248 351.682C269.8 351.682 269.416 351.602 269.096 351.442ZM280.629 348.53C278.853 348.53 277.573 347.858 276.789 346.514L278.165 345.554C278.677 346.434 279.509 346.882 280.645 346.882C281.749 346.882 282.501 346.434 282.501 345.73C282.501 345.17 282.053 344.898 281.173 344.898H279.333V343.314H281.077C281.765 343.314 282.213 342.962 282.213 342.434C282.213 341.778 281.525 341.426 280.629 341.426C279.493 341.426 278.853 341.826 278.277 342.546L276.981 341.682C277.605 340.61 278.869 339.778 280.725 339.778C282.853 339.778 284.101 340.722 284.101 342.178C284.101 342.866 283.829 343.41 283.285 343.842C284.021 344.274 284.389 344.898 284.389 345.714C284.389 346.578 284.037 347.266 283.333 347.762C282.629 348.274 281.733 348.53 280.629 348.53ZM287.489 348.338H285.665V340.018H291.937V341.714H287.489V348.338ZM298.853 342.93L294.437 348.338H292.853V340.018H294.677V345.442L299.093 340.018H300.677V348.338H298.853V342.93Z" fill="#3C525E"/>
<path d="M176.594 244.775H174.658V233.575H176.594V238.487L181.618 233.575H184.146L179.058 238.599L184.514 244.775H181.938L177.602 239.895L176.594 240.871V244.775ZM186.157 238.839L185.261 237.495C186.045 236.727 187.389 236.263 188.749 236.263C190.925 236.263 192.157 237.511 192.157 239.687V244.775H190.333V243.863C189.725 244.535 188.861 244.871 187.757 244.871C185.917 244.871 184.733 243.847 184.733 242.247C184.733 240.471 186.269 239.607 188.621 239.607C189.309 239.607 189.885 239.687 190.333 239.831C190.349 238.567 189.837 237.959 188.541 237.959C187.725 237.959 186.925 238.247 186.157 238.839ZM188.157 243.287C189.101 243.287 189.837 242.903 190.333 242.151V241.351C189.885 241.207 189.373 241.127 188.813 241.127C187.357 241.127 186.621 241.495 186.621 242.231C186.621 242.887 187.213 243.287 188.157 243.287ZM201.392 244.775H199.568V238.151H196.624V239.447C196.624 243.879 195.184 244.999 193.12 244.839L192.976 243.143C193.84 243.239 194.832 242.679 194.832 238.823V236.455H201.392V244.775ZM209.089 239.367L204.673 244.775H203.089V236.455H204.913V241.879L209.329 236.455H210.913V244.775H209.089V239.367ZM220.268 244.775H218.444V241.399H214.444V244.775H212.62V236.455H214.444V239.719H218.444V236.455H220.268V244.775ZM227.98 239.367L223.564 244.775H221.98V236.455H223.804V241.879L228.22 236.455H229.804V244.775H227.98V239.367ZM239.159 244.775H237.335V241.399H233.335V244.775H231.511V236.455H233.335V239.719H237.335V236.455H239.159V244.775ZM242.694 244.775H240.87V236.455H247.142V238.151H242.694V244.775ZM249.882 247.975H248.058V236.455H249.882V237.207C250.378 236.583 251.29 236.263 252.186 236.263C253.418 236.263 254.41 236.647 255.13 237.431C255.85 238.215 256.218 239.223 256.218 240.471C256.218 241.767 255.834 242.823 255.066 243.655C254.298 244.503 253.29 244.919 252.058 244.919C250.986 244.919 250.25 244.695 249.882 244.231V247.975ZM251.994 237.959C250.986 237.959 250.25 238.535 249.882 239.319V242.199C250.282 242.887 250.938 243.223 251.85 243.223C253.338 243.223 254.33 242.167 254.33 240.615C254.33 238.951 253.45 237.959 251.994 237.959ZM258.423 238.839L257.527 237.495C258.311 236.727 259.655 236.263 261.015 236.263C263.191 236.263 264.423 237.511 264.423 239.687V244.775H262.599V243.863C261.991 244.535 261.127 244.871 260.023 244.871C258.183 244.871 256.999 243.847 256.999 242.247C256.999 240.471 258.535 239.607 260.887 239.607C261.575 239.607 262.151 239.687 262.599 239.831C262.615 238.567 262.103 237.959 260.807 237.959C259.991 237.959 259.191 238.247 258.423 238.839ZM260.423 243.287C261.367 243.287 262.103 242.903 262.599 242.151V241.351C262.151 241.207 261.639 241.127 261.079 241.127C259.623 241.127 258.887 241.495 258.887 242.231C258.887 242.887 259.479 243.287 260.423 243.287ZM267.002 246.679H265.306V243.079H266.266C266.89 241.975 267.21 240.247 267.21 237.895V236.455H273.578V243.079H274.746V246.679H273.05V244.775H267.002V246.679ZM271.754 238.151H268.938V238.839C268.938 240.599 268.682 242.007 268.154 243.079H271.754V238.151Z" fill="#3C525E"/>
<path d="M273.876 397.311V400.455H262.98V403.503H269.1C271.036 403.503 272.516 403.903 273.54 404.703C274.58 405.487 275.1 406.631 275.1 408.135V408.423C275.1 409.911 274.58 411.055 273.54 411.855C272.5 412.655 271.02 413.055 269.1 413.055H259.38V397.311H273.876ZM269.028 409.911C269.796 409.911 270.388 409.775 270.804 409.503C271.236 409.215 271.452 408.823 271.452 408.327V408.063C271.452 407.567 271.236 407.183 270.804 406.911C270.388 406.639 269.796 406.503 269.028 406.503H262.98V409.911H269.028ZM291.976 397.311V400.479H281.584V403.599H291.496V406.743H281.584V409.887H291.976V413.055H277.984V397.311H291.976ZM310.399 413.055H306.799V400.551H299.983L299.863 406.527C299.815 408.735 299.351 410.375 298.471 411.447C297.591 412.519 296.263 413.055 294.487 413.055H293.215V409.815H293.815C294.807 409.815 295.503 409.551 295.903 409.023C296.303 408.495 296.511 407.567 296.527 406.239L296.671 397.311H310.399V413.055ZM330.246 412.503V413.055H326.646L325.206 409.791H317.334L315.894 413.055H312.294V412.503L319.278 397.311H323.262L330.246 412.503ZM323.838 406.671L321.27 400.815L318.702 406.671H323.838ZM342.115 397.311C343.971 397.311 345.435 397.759 346.507 398.655C347.579 399.551 348.115 400.775 348.115 402.327V402.591C348.115 404.159 347.579 405.391 346.507 406.287C345.435 407.183 343.971 407.631 342.115 407.631H335.731V413.055H332.131V397.311H342.115ZM342.019 404.439C342.803 404.439 343.403 404.287 343.819 403.983C344.235 403.663 344.443 403.199 344.443 402.591V402.327C344.443 401.735 344.235 401.287 343.819 400.983C343.403 400.663 342.803 400.503 342.019 400.503H335.731V404.439H342.019ZM366.302 397.311V397.863L360.038 409.455C359.318 410.799 358.566 411.735 357.782 412.263C356.998 412.791 355.966 413.055 354.686 413.055H351.206V409.815H354.638C354.958 409.815 355.214 409.791 355.406 409.743C355.614 409.695 355.798 409.607 355.958 409.479L348.95 397.863V397.311H352.718L357.95 406.311L362.558 397.311H366.302ZM375.403 413.343C373.499 413.343 371.827 413.015 370.387 412.359C368.947 411.703 367.835 410.775 367.051 409.575C366.283 408.359 365.899 406.943 365.899 405.327V405.063C365.899 403.447 366.283 402.039 367.051 400.839C367.835 399.623 368.947 398.687 370.387 398.031C371.827 397.359 373.499 397.023 375.403 397.023C377.163 397.023 378.739 397.311 380.131 397.887C381.539 398.463 382.635 399.263 383.419 400.287C384.219 401.311 384.619 402.463 384.619 403.743V403.935H380.947V403.743C380.947 403.087 380.707 402.503 380.227 401.991C379.763 401.479 379.107 401.079 378.259 400.791C377.427 400.503 376.467 400.359 375.379 400.359C373.475 400.359 372.027 400.759 371.035 401.559C370.059 402.359 369.571 403.511 369.571 405.015V405.375C369.571 406.895 370.059 408.047 371.035 408.831C372.011 409.615 373.467 410.007 375.403 410.007C377.083 410.007 378.427 409.703 379.435 409.095C380.443 408.471 380.947 407.655 380.947 406.647V406.479H384.619V406.647C384.619 407.927 384.219 409.079 383.419 410.103C382.635 411.111 381.539 411.903 380.131 412.479C378.739 413.055 377.163 413.343 375.403 413.343ZM390.956 397.311V402.759H397.076C398.98 402.759 400.452 403.191 401.492 404.055C402.548 404.919 403.076 406.143 403.076 407.727V408.039C403.076 409.639 402.548 410.879 401.492 411.759C400.452 412.623 398.98 413.055 397.076 413.055H387.356V397.311H390.956ZM396.98 409.863C397.764 409.863 398.364 409.703 398.78 409.383C399.196 409.063 399.404 408.607 399.404 408.015V407.751C399.404 407.175 399.188 406.727 398.756 406.407C398.34 406.087 397.748 405.927 396.98 405.927H390.956V409.863H396.98Z" fill="#3C525E"/>
<path d="M84.8844 457.724C86.457 457.724 87.7318 456.45 87.7318 454.877C87.7318 453.305 86.457 452.03 84.8844 452.03C83.3119 452.03 82.0371 453.305 82.0371 454.877C82.0371 456.45 83.3119 457.724 84.8844 457.724Z" fill="#A9DCE9" stroke="white" stroke-width="2"/>
</g>
<defs>
<filter id="filter0_i_237_23399" x="0" y="0" width="1240" height="600" filterUnits="userSpaceOnUse" color-interpolation-filters="sRGB">
<feFlood flood-opacity="0" result="BackgroundImageFix"/>
<feBlend mode="normal" in="SourceGraphic" in2="BackgroundImageFix" result="shape"/>
<feColorMatrix in="SourceAlpha" type="matrix" values="0 0 0 0 0 0 0 0 0 0 0 0 0 0 0 0 0 0 127 0" result="hardAlpha"/>
<feOffset/>
<feGaussianBlur stdDeviation="6"/>
<feComposite in2="hardAlpha" operator="arithmetic" k2="-1" k3="1"/>
<feColorMatrix type="matrix" values="0 0 0 0 0 0 0 0 0 0 0 0 0 0 0 0 0 0 0.08 0"/>
<feBlend mode="normal" in2="shape" result="effect1_innerShadow_237_23399"/>
</filter>
<pattern id="pattern0_237_23399" patternContentUnits="objectBoundingBox" width="1" height="1">
<use xlink:href="#image0_237_23399" transform="scale(0.000260417 0.000462963)"/>
</pattern>
<filter id="filter1_d_237_23399" x="238.76" y="340.447" width="26.4541" height="26.4536" filterUnits="userSpaceOnUse" color-interpolation-filters="sRGB">
<feFlood flood-opacity="0" result="BackgroundImageFix"/>
<feColorMatrix in="SourceAlpha" type="matrix" values="0 0 0 0 0 0 0 0 0 0 0 0 0 0 0 0 0 0 127 0" result="hardAlpha"/>
<feOffset dy="2"/>
<feGaussianBlur stdDeviation="3"/>
<feComposite in2="hardAlpha" operator="out"/>
<feColorMatrix type="matrix" values="0 0 0 0 0 0 0 0 0 0 0 0 0 0 0 0 0 0 0.12 0"/>
<feBlend mode="normal" in2="BackgroundImageFix" result="effect1_dropShadow_237_23399"/>
<feBlend mode="normal" in="SourceGraphic" in2="effect1_dropShadow_237_23399" result="shape"/>
</filter>
<filter id="filter2_d_237_23399" x="224.093" y="309.939" width="26.4541" height="26.4536" filterUnits="userSpaceOnUse" color-interpolation-filters="sRGB">
<feFlood flood-opacity="0" result="BackgroundImageFix"/>
<feColorMatrix in="SourceAlpha" type="matrix" values="0 0 0 0 0 0 0 0 0 0 0 0 0 0 0 0 0 0 127 0" result="hardAlpha"/>
<feOffset dy="2"/>
<feGaussianBlur stdDeviation="3"/>
<feComposite in2="hardAlpha" operator="out"/>
<feColorMatrix type="matrix" values="0 0 0 0 0 0 0 0 0 0 0 0 0 0 0 0 0 0 0.12 0"/>
<feBlend mode="normal" in2="BackgroundImageFix" result="effect1_dropShadow_237_23399"/>
<feBlend mode="normal" in="SourceGraphic" in2="effect1_dropShadow_237_23399" result="shape"/>
</filter>
<filter id="filter3_d_237_23399" x="599.581" y="385.036" width="26.4541" height="26.4536" filterUnits="userSpaceOnUse" color-interpolation-filters="sRGB">
<feFlood flood-opacity="0" result="BackgroundImageFix"/>
<feColorMatrix in="SourceAlpha" type="matrix" values="0 0 0 0 0 0 0 0 0 0 0 0 0 0 0 0 0 0 127 0" result="hardAlpha"/>
<feOffset dy="2"/>
<feGaussianBlur stdDeviation="3"/>
<feComposite in2="hardAlpha" operator="out"/>
<feColorMatrix type="matrix" values="0 0 0 0 0 0 0 0 0 0 0 0 0 0 0 0 0 0 0.12 0"/>
<feBlend mode="normal" in2="BackgroundImageFix" result="effect1_dropShadow_237_23399"/>
<feBlend mode="normal" in="SourceGraphic" in2="effect1_dropShadow_237_23399" result="shape"/>
</filter>
<filter id="filter4_d_237_23399" x="231.721" y="350.421" width="26.4541" height="26.4536" filterUnits="userSpaceOnUse" color-interpolation-filters="sRGB">
<feFlood flood-opacity="0" result="BackgroundImageFix"/>
<feColorMatrix in="SourceAlpha" type="matrix" values="0 0 0 0 0 0 0 0 0 0 0 0 0 0 0 0 0 0 127 0" result="hardAlpha"/>
<feOffset dy="2"/>
<feGaussianBlur stdDeviation="3"/>
<feComposite in2="hardAlpha" operator="out"/>
<feColorMatrix type="matrix" values="0 0 0 0 0 0 0 0 0 0 0 0 0 0 0 0 0 0 0.12 0"/>
<feBlend mode="normal" in2="BackgroundImageFix" result="effect1_dropShadow_237_23399"/>
<feBlend mode="normal" in="SourceGraphic" in2="effect1_dropShadow_237_23399" result="shape"/>
</filter>
<filter id="filter5_d_237_23399" x="237.001" y="360.395" width="26.4541" height="26.4536" filterUnits="userSpaceOnUse" color-interpolation-filters="sRGB">
<feFlood flood-opacity="0" result="BackgroundImageFix"/>
<feColorMatrix in="SourceAlpha" type="matrix" values="0 0 0 0 0 0 0 0 0 0 0 0 0 0 0 0 0 0 127 0" result="hardAlpha"/>
<feOffset dy="2"/>
<feGaussianBlur stdDeviation="3"/>
<feComposite in2="hardAlpha" operator="out"/>
<feColorMatrix type="matrix" values="0 0 0 0 0 0 0 0 0 0 0 0 0 0 0 0 0 0 0.12 0"/>
<feBlend mode="normal" in2="BackgroundImageFix" result="effect1_dropShadow_237_23399"/>
<feBlend mode="normal" in="SourceGraphic" in2="effect1_dropShadow_237_23399" result="shape"/>
</filter>
<filter id="filter6_d_237_23399" x="585.499" y="401.464" width="26.4541" height="26.4536" filterUnits="userSpaceOnUse" color-interpolation-filters="sRGB">
<feFlood flood-opacity="0" result="BackgroundImageFix"/>
<feColorMatrix in="SourceAlpha" type="matrix" values="0 0 0 0 0 0 0 0 0 0 0 0 0 0 0 0 0 0 127 0" result="hardAlpha"/>
<feOffset dy="2"/>
<feGaussianBlur stdDeviation="3"/>
<feComposite in2="hardAlpha" operator="out"/>
<feColorMatrix type="matrix" values="0 0 0 0 0 0 0 0 0 0 0 0 0 0 0 0 0 0 0.12 0"/>
<feBlend mode="normal" in2="BackgroundImageFix" result="effect1_dropShadow_237_23399"/>
<feBlend mode="normal" in="SourceGraphic" in2="effect1_dropShadow_237_23399" result="shape"/>
</filter>
<linearGradient id="paint0_linear_237_23399" x1="1026.43" y1="205.586" x2="434.056" y2="884.788" gradientUnits="userSpaceOnUse">
<stop offset="0" stop-color="#28A7B8" stop-opacity="0.21"/>
<stop offset="0.19" stop-color="#31C5DA" stop-opacity="0.26"/>
<stop offset="1" stop-color="#68A7C2"/>
</linearGradient>
<linearGradient id="paint1_linear_237_23399" x1="1001.2" y1="115.528" x2="581.57" y2="989.973" gradientUnits="userSpaceOnUse">
<stop offset="0" stop-color="#28A7B8"/>
<stop offset="0.19" stop-color="#42DABE"/>
<stop offset="1" stop-color="#93C6B1"/>
</linearGradient>
<linearGradient id="paint2_linear_237_23399" x1="365.807" y1="349.327" x2="504.994" y2="538.35" gradientUnits="userSpaceOnUse">
<stop offset="0" stop-color="#28A7B8"/>
<stop offset="1" stop-color="#93C6B1" stop-opacity="0"/>
</linearGradient>
<linearGradient id="paint3_linear_237_23399" x1="1107.39" y1="103.5" x2="959.198" y2="405.833" gradientUnits="userSpaceOnUse">
<stop offset="0" stop-color="#28A7B8"/>
<stop offset="1" stop-color="#5DD5DC" stop-opacity="0"/>
</linearGradient>
<linearGradient id="paint4_linear_237_23399" x1="863.327" y1="390.102" x2="932.449" y2="626.295" gradientUnits="userSpaceOnUse">
<stop offset="0" stop-color="#5654CF"/>
<stop offset="1" stop-color="#5168B8" stop-opacity="0"/>
</linearGradient>
<clipPath id="clip0_237_23399">
<rect width="1240" height="600" fill="white"/>
</clipPath>
</defs>
</svg>
