<svg width="1920" height="1006" viewBox="0 0 1920 1006" fill="none" xmlns="http://www.w3.org/2000/svg" xmlns:xlink="http://www.w3.org/1999/xlink">
<path opacity="0.14" d="M153.799 1002.5L11.0231 741.471L187.522 639.864L1560.1 147.594L2109.74 968.774L153.799 1002.5Z"/>
<path d="M624.171 1005.13L370.591 636.36L553.659 547.892L1560.1 147.594L2109.74 968.774L624.171 1005.13Z" fill-opacity="0.28"/>
<path opacity="0.12" d="M987.243 974.03L798.918 709.5L866.365 657.82L1035.86 737.53L1217.17 642.492L1163.3 555.337L1304.77 603.513L1569.73 974.03H987.243Z"/>
<rect x="-70" width="1681.78" height="946" fill=""/>
<path opacity="0.85" d="M823.778 639.47L823.778 476.504" stroke="#3C525E" stroke-width="0.875926"/>
<path opacity="0.85" d="M283.874 508.913L283.874 381.027" stroke="#3C525E" stroke-width="0.875926"/>
<path opacity="0.85" d="M845.343 614.184L845.343 512.854" stroke="#3C525E" stroke-width="0.875926"/>
<path d="M853.114 524.141H851.474V520.833H852.525C852.89 520.287 853.17 519.53 853.352 518.549C853.534 517.568 853.618 516.068 853.618 514.036V512.607H860.556V520.833H861.747V524.141H860.107V522.417H853.114V524.141ZM858.86 514.19H855.23V514.807C855.23 517.652 854.922 519.67 854.291 520.833H858.86V514.19ZM861.94 518.759C861.94 517.652 862.304 516.741 863.033 516.026C863.748 515.311 864.687 514.961 865.836 514.961C866.985 514.961 867.924 515.311 868.653 516.026C869.382 516.741 869.746 517.652 869.746 518.759C869.746 519.852 869.382 520.749 868.653 521.464C867.924 522.179 866.985 522.543 865.836 522.543C864.701 522.543 863.776 522.179 863.047 521.464C862.304 520.749 861.94 519.852 861.94 518.759ZM863.594 518.759C863.594 519.418 863.804 519.964 864.224 520.399C864.631 520.833 865.177 521.058 865.836 521.058C867.182 521.058 868.093 520.147 868.093 518.759C868.093 518.072 867.882 517.512 867.448 517.077C867.013 516.657 866.481 516.447 865.836 516.447C864.533 516.447 863.594 517.358 863.594 518.759ZM876.477 520.02L877.612 520.749C877.037 521.884 875.79 522.543 874.487 522.543C873.309 522.543 872.356 522.193 871.642 521.506C870.927 520.819 870.562 519.894 870.562 518.759C870.562 517.666 870.913 516.755 871.628 516.04C872.342 515.325 873.267 514.961 874.402 514.961C875.86 514.961 877.037 515.62 877.528 516.615L876.337 517.4C875.86 516.769 875.243 516.447 874.473 516.447C873.141 516.447 872.216 517.4 872.216 518.759C872.216 519.418 872.44 519.964 872.889 520.399C873.323 520.833 873.912 521.058 874.641 521.058C875.412 521.058 876.014 520.707 876.477 520.02ZM880.483 516.615H877.849V515.129H884.716V516.615H882.081V522.417H880.483V516.615ZM888.249 522.417H885.502V515.129H887.1V517.246H888.361C890.547 517.246 891.444 518.283 891.444 519.81C891.444 521.31 890.449 522.417 888.249 522.417ZM888.235 518.731H887.1V520.931H888.221C889.342 520.931 889.791 520.567 889.791 519.824C889.791 519.095 889.342 518.731 888.235 518.731ZM893.771 522.417H892.173V515.129H893.771V522.417ZM896.858 522.417H895.26V515.129H896.858V518.086L900.011 515.129H902.1L898.554 518.423L902.226 522.417H900.18L897.391 519.418L896.858 519.936V522.417Z" fill="white"/>
<g filter="url(#filter0_d_3001_9034)">
<circle cx="306.21" cy="554.899" r="4.81759" fill="#7E7EEB"/>
<circle cx="306.21" cy="554.899" r="6.56944" stroke="white" stroke-width="3.5037"/>
</g>
<rect width="9.63519" height="9.63519" transform="translate(279.494 504.533)" fill="#A9DCE9"/>
<g>
<circle cx="284.312" cy="509.351" r="4.81759" fill="#A9DCE9"/>
<circle cx="284.312" cy="509.351" r="6.56944" stroke="white" stroke-width="3.5037"/>
</g>
<g>
<circle cx="844.904" cy="621.47" r="4.81759" fill="#AFBBFB"/>
<circle cx="844.904" cy="621.47" r="6.56944" stroke="white" stroke-width="3.5037"/>
</g>
<g>
<circle cx="295.699" cy="569.79" r="4.81759" fill="#7E7EEB"/>
<circle cx="295.699" cy="569.79" r="6.56944" stroke="white" stroke-width="3.5037"/>
</g>
<g>
<circle cx="303.582" cy="584.681" r="4.81759" fill="#7E7EEB"/>
<circle cx="303.582" cy="584.681" r="6.56944" stroke="white" stroke-width="3.5037"/>
</g>
<g>
<circle cx="823.882" cy="645.995" r="4.81759" fill="#AFBBFB"/>
<circle cx="823.882" cy="645.995" r="6.56944" stroke="white" stroke-width="3.5037"/>
</g>
<path d="M830.438 486.504H828.686L832.988 476.694H834.278L838.58 486.504H836.801L835.848 484.332H831.377L830.438 486.504ZM835.217 482.874L833.605 479.146L831.993 482.874H835.217ZM845.954 486.504H844.356V480.702H841.777V481.837C841.777 485.719 840.516 486.7 838.708 486.56L838.582 485.074C839.339 485.158 840.208 484.668 840.208 481.29V479.216H845.954V486.504ZM849.374 480.702H846.74V479.216H853.607V480.702H850.972V486.504H849.374V480.702ZM857.14 486.504H854.393V479.216H855.991V481.332H857.252C859.438 481.332 860.335 482.37 860.335 483.897C860.335 485.397 859.34 486.504 857.14 486.504ZM857.126 482.818H855.991V485.018H857.112C858.233 485.018 858.681 484.654 858.681 483.911C858.681 483.182 858.233 482.818 857.126 482.818ZM862.662 486.504H861.064V479.216H862.662V486.504ZM870.85 486.504H869.253V483.547H865.749V486.504H864.151V479.216H865.749V482.075H869.253V479.216H870.85V486.504ZM873.947 486.504H872.349V479.216H873.947V482.173L877.1 479.216H879.189L875.643 482.51L879.315 486.504H877.269L874.48 483.505L873.947 484.023V486.504ZM879.116 482.846C879.116 481.739 879.481 480.828 880.209 480.113C880.924 479.398 881.863 479.048 883.012 479.048C884.162 479.048 885.101 479.398 885.829 480.113C886.558 480.828 886.923 481.739 886.923 482.846C886.923 483.939 886.558 484.836 885.829 485.551C885.101 486.266 884.162 486.63 883.012 486.63C881.877 486.63 880.952 486.266 880.223 485.551C879.481 484.836 879.116 483.939 879.116 482.846ZM880.77 482.846C880.77 483.505 880.98 484.051 881.401 484.486C881.807 484.92 882.354 485.144 883.012 485.144C884.358 485.144 885.269 484.234 885.269 482.846C885.269 482.159 885.059 481.599 884.624 481.164C884.19 480.744 883.657 480.534 883.012 480.534C881.709 480.534 880.77 481.445 880.77 482.846ZM894.376 486.504H892.778V480.702H890.199V481.837C890.199 485.719 888.938 486.7 887.13 486.56L887.004 485.074C887.761 485.158 888.63 484.668 888.63 481.29V479.216H894.376V486.504ZM898.904 486.504H895.863V479.216H897.46V481.332H899.002C901.188 481.332 902.085 482.37 902.085 483.897C902.085 485.397 901.104 486.504 898.904 486.504ZM898.862 482.818H897.46V485.018H898.848C899.969 485.018 900.431 484.654 900.431 483.911C900.431 483.182 899.913 482.818 898.862 482.818Z" fill="white"/>
<path d="M651.034 601.315L645.127 607.517L650.74 614.139V614.622H647.103L642.394 609.072H639.913V614.622H636.76V600.831H639.913V606.234H642.289L647.271 600.831H651.034V601.315ZM667.531 614.139V614.622H664.378L663.116 611.763H656.221L654.96 614.622H651.806V614.139L657.924 600.831H661.414L667.531 614.139ZM661.918 609.03L659.669 603.901L657.419 609.03H661.918ZM681.079 607.601C681.738 607.909 682.235 608.301 682.572 608.778C682.922 609.24 683.097 609.773 683.097 610.376V610.607C683.097 611.952 682.446 613.003 681.142 613.76C679.839 614.503 678.024 614.874 675.698 614.874C673.091 614.874 671.108 614.377 669.748 613.382C668.389 612.373 667.709 610.908 667.709 608.988V608.841H670.904V608.988C670.904 610.039 671.29 610.81 672.061 611.301C672.846 611.777 674.086 612.015 675.782 612.015C678.515 612.015 679.881 611.483 679.881 610.418V610.207C679.881 609.899 679.776 609.661 679.566 609.493C679.355 609.31 678.991 609.184 678.472 609.114C677.968 609.044 677.246 609.009 676.307 609.009H673.154V606.402H676.202C677.449 606.402 678.318 606.311 678.809 606.129C679.299 605.933 679.545 605.597 679.545 605.12V604.91C679.545 604.419 679.201 604.055 678.515 603.817C677.842 603.564 676.847 603.438 675.529 603.438C673.946 603.438 672.789 603.684 672.061 604.174C671.346 604.651 670.989 605.414 670.989 606.465V606.613H667.793V606.465C667.793 604.559 668.459 603.102 669.79 602.093C671.136 601.084 673.07 600.579 675.592 600.579C677.835 600.579 679.587 600.944 680.848 601.672C682.123 602.401 682.761 603.41 682.761 604.7V604.931C682.761 606.08 682.2 606.97 681.079 607.601ZM698.839 614.139V614.622H695.686L694.425 611.763H687.529L686.268 614.622H683.115V614.139L689.232 600.831H692.722L698.839 614.139ZM693.226 609.03L690.977 603.901L688.728 609.03H693.226ZM714.89 601.315L709.467 607.727L714.89 614.139V614.622H711.191L707.259 609.871L703.307 614.622H699.607V614.139L705.031 607.727L699.607 601.315V600.831H703.307L707.259 605.583L711.212 600.831H714.89V601.315ZM723.834 614.874C722.166 614.874 720.701 614.587 719.44 614.012C718.179 613.438 717.205 612.625 716.518 611.574C715.845 610.509 715.509 609.268 715.509 607.853V607.622C715.509 606.206 715.845 604.973 716.518 603.922C717.205 602.857 718.179 602.037 719.44 601.462C720.701 600.874 722.166 600.579 723.834 600.579C725.375 600.579 726.756 600.831 727.975 601.336C729.208 601.841 730.168 602.541 730.855 603.438C731.556 604.335 731.906 605.344 731.906 606.465V606.634H728.69V606.465C728.69 605.891 728.48 605.379 728.059 604.931C727.653 604.482 727.078 604.132 726.335 603.88C725.607 603.627 724.766 603.501 723.813 603.501C722.145 603.501 720.877 603.852 720.008 604.552C719.153 605.253 718.725 606.262 718.725 607.58V607.895C718.725 609.226 719.153 610.235 720.008 610.922C720.863 611.609 722.138 611.952 723.834 611.952C725.305 611.952 726.482 611.686 727.365 611.153C728.248 610.607 728.69 609.892 728.69 609.009V608.862H731.906V609.009C731.906 610.13 731.556 611.139 730.855 612.036C730.168 612.919 729.208 613.613 727.975 614.118C726.756 614.622 725.375 614.874 723.834 614.874ZM732.132 603.669V600.831H746.069V603.669H740.688V614.622H737.513V603.669H732.132ZM760.245 614.139V614.622H757.091L755.83 611.763H748.935L747.674 614.622H744.52V614.139L750.638 600.831H754.127L760.245 614.139ZM754.632 609.03L752.382 603.901L750.133 609.03H754.632ZM764.839 600.831V606.318H772.47V600.831H775.623V614.622H772.47V609.135H764.839V614.622H761.685V600.831H764.839Z" fill="white"/>
<path d="M901.549 719.565L895.642 725.767L901.255 732.389V732.872H897.618L892.909 727.322H890.428V732.872H887.275V719.081H890.428V724.484H892.804L897.786 719.081H901.549V719.565ZM907.072 719.081V728.541L914.724 719.081H917.878V732.872H914.745V723.412L907.093 732.872H903.94V719.081H907.072ZM919.609 721.919V719.081H933.546V721.919H928.165V732.872H924.99V721.919H919.609ZM947.932 732.389V732.872H944.779L943.517 730.013H936.622L935.361 732.872H932.207V732.389L938.325 719.081H941.815L947.932 732.389ZM942.319 727.28L940.07 722.151L937.82 727.28H942.319ZM952.715 719.081V728.541L960.367 719.081H963.521V732.872H960.388V723.412L952.736 732.872H949.583V719.081H952.715ZM956.562 717.925C955.035 717.925 953.885 717.645 953.115 717.084C952.344 716.51 951.958 715.669 951.958 714.562V714.394H954.607V714.562C954.607 714.87 954.775 715.108 955.112 715.276C955.448 715.445 955.932 715.529 956.562 715.529C957.137 715.529 957.578 715.445 957.887 715.276C958.209 715.108 958.37 714.87 958.37 714.562V714.394H961.166V714.562C961.166 716.804 959.632 717.925 956.562 717.925Z" fill="#3C525E"/>
<path d="M379.672 591.197V593.951H370.128V596.62H375.489C377.185 596.62 378.481 596.971 379.378 597.672C380.289 598.358 380.744 599.36 380.744 600.678V600.93C380.744 602.233 380.289 603.235 379.378 603.936C378.467 604.637 377.171 604.987 375.489 604.987H366.975V591.197H379.672ZM375.426 602.233C376.099 602.233 376.617 602.114 376.982 601.876C377.36 601.624 377.549 601.28 377.549 600.846V600.615C377.549 600.18 377.36 599.844 376.982 599.606C376.617 599.367 376.099 599.248 375.426 599.248H370.128V602.233H375.426ZM395.526 591.197V593.972H386.424V596.705H395.106V599.458H386.424V602.212H395.526V604.987H383.27V591.197H395.526ZM411.664 604.987H408.511V594.035H402.541L402.435 599.269C402.393 601.203 401.987 602.64 401.216 603.579C400.445 604.518 399.282 604.987 397.727 604.987H396.612V602.149H397.138C398.007 602.149 398.616 601.918 398.967 601.456C399.317 600.993 399.499 600.18 399.513 599.017L399.64 591.197H411.664V604.987ZM429.048 604.504V604.987H425.895L424.634 602.128H417.739L416.477 604.987H413.324V604.504L419.441 591.197H422.931L429.048 604.504ZM423.436 599.395L421.186 594.266L418.937 599.395H423.436ZM439.445 591.197C441.07 591.197 442.353 591.589 443.292 592.374C444.231 593.159 444.7 594.231 444.7 595.59V595.822C444.7 597.195 444.231 598.274 443.292 599.059C442.353 599.844 441.07 600.236 439.445 600.236H433.853V604.987H430.699V591.197H439.445ZM439.361 597.44C440.047 597.44 440.573 597.307 440.937 597.041C441.302 596.761 441.484 596.354 441.484 595.822V595.59C441.484 595.072 441.302 594.679 440.937 594.413C440.573 594.133 440.047 593.993 439.361 593.993H433.853V597.44H439.361ZM460.631 591.197V591.68L455.144 601.834C454.514 603.011 453.855 603.831 453.168 604.294C452.481 604.756 451.578 604.987 450.456 604.987H447.408V602.149H450.414C450.695 602.149 450.919 602.128 451.087 602.086C451.269 602.044 451.43 601.967 451.57 601.855L445.432 591.68V591.197H448.732L453.315 599.08L457.352 591.197H460.631ZM468.603 605.24C466.935 605.24 465.471 604.952 464.209 604.378C462.948 603.803 461.974 602.99 461.287 601.939C460.615 600.874 460.278 599.634 460.278 598.218V597.987C460.278 596.571 460.615 595.338 461.287 594.287C461.974 593.222 462.948 592.402 464.209 591.827C465.471 591.239 466.935 590.944 468.603 590.944C470.145 590.944 471.525 591.197 472.744 591.701C473.978 592.206 474.938 592.907 475.625 593.803C476.325 594.7 476.676 595.709 476.676 596.831V596.999H473.459V596.831C473.459 596.256 473.249 595.745 472.829 595.296C472.422 594.848 471.848 594.497 471.105 594.245C470.376 593.993 469.535 593.867 468.582 593.867C466.914 593.867 465.646 594.217 464.777 594.918C463.922 595.618 463.495 596.627 463.495 597.945V598.26C463.495 599.592 463.922 600.601 464.777 601.287C465.632 601.974 466.907 602.317 468.603 602.317C470.075 602.317 471.252 602.051 472.135 601.519C473.018 600.972 473.459 600.257 473.459 599.374V599.227H476.676V599.374C476.676 600.496 476.325 601.505 475.625 602.402C474.938 603.285 473.978 603.978 472.744 604.483C471.525 604.987 470.145 605.24 468.603 605.24ZM482.226 591.197V595.969H487.587C489.254 595.969 490.544 596.347 491.455 597.104C492.38 597.861 492.842 598.933 492.842 600.32V600.594C492.842 601.995 492.38 603.081 491.455 603.852C490.544 604.609 489.254 604.987 487.587 604.987H479.073V591.197H482.226ZM487.503 602.191C488.189 602.191 488.715 602.051 489.079 601.771C489.444 601.491 489.626 601.091 489.626 600.573V600.341C489.626 599.837 489.437 599.444 489.058 599.164C488.694 598.884 488.175 598.744 487.503 598.744H482.226V602.191H487.503Z" fill="#3C525E"/>
<path d="M810.095 352.255C812.805 352.255 814.942 352.909 816.507 354.217C818.072 355.525 818.855 357.312 818.855 359.578V359.963C818.855 362.252 818.072 364.051 816.507 365.359C814.942 366.667 812.805 367.321 810.095 367.321H800.775V375.239H795.52V352.255H810.095ZM809.955 362.661C811.1 362.661 811.976 362.439 812.583 361.995C813.19 361.528 813.494 360.851 813.494 359.963V359.578C813.494 358.713 813.19 358.059 812.583 357.616C811.976 357.148 811.1 356.915 809.955 356.915H800.775V362.661H809.955ZM835.396 375.66C832.64 375.66 830.234 375.181 828.178 374.223C826.123 373.266 824.523 371.899 823.378 370.124C822.257 368.349 821.696 366.281 821.696 363.922V363.607C821.696 361.248 822.257 359.181 823.378 357.405C824.523 355.63 826.123 354.264 828.178 353.306C830.257 352.325 832.663 351.835 835.396 351.835C838.152 351.835 840.558 352.325 842.613 353.306C844.669 354.264 846.257 355.63 847.379 357.405C848.5 359.181 849.06 361.248 849.06 363.607V363.922C849.06 366.281 848.5 368.349 847.379 370.124C846.257 371.899 844.669 373.266 842.613 374.223C840.558 375.181 838.152 375.66 835.396 375.66ZM835.396 370.79C838.105 370.79 840.161 370.206 841.562 369.038C842.987 367.87 843.7 366.188 843.7 363.992V363.572C843.7 361.376 842.976 359.683 841.527 358.492C840.102 357.3 838.059 356.705 835.396 356.705C832.71 356.705 830.642 357.3 829.194 358.492C827.769 359.683 827.057 361.376 827.057 363.572V363.992C827.057 366.188 827.769 367.87 829.194 369.038C830.642 370.206 832.71 370.79 835.396 370.79ZM865.947 375.66C863.167 375.66 860.726 375.181 858.624 374.223C856.522 373.266 854.898 371.911 853.754 370.159C852.632 368.384 852.072 366.316 852.072 363.957V363.572C852.072 361.213 852.632 359.157 853.754 357.405C854.898 355.63 856.522 354.264 858.624 353.306C860.726 352.325 863.167 351.835 865.947 351.835C868.516 351.835 870.817 352.255 872.849 353.096C874.904 353.937 876.504 355.105 877.649 356.6C878.817 358.094 879.401 359.776 879.401 361.645V361.925H874.04V361.645C874.04 360.687 873.69 359.835 872.989 359.087C872.312 358.34 871.354 357.756 870.116 357.335C868.901 356.915 867.5 356.705 865.911 356.705C863.132 356.705 861.018 357.289 859.57 358.457C858.145 359.624 857.433 361.306 857.433 363.502V364.027C857.433 366.246 858.145 367.928 859.57 369.073C860.995 370.217 863.12 370.79 865.947 370.79C868.399 370.79 870.361 370.346 871.833 369.458C873.304 368.547 874.04 367.356 874.04 365.884V365.639H879.401V365.884C879.401 367.753 878.817 369.435 877.649 370.93C876.504 372.401 874.904 373.557 872.849 374.398C870.817 375.239 868.516 375.66 865.947 375.66ZM896.219 375.66C893.44 375.66 890.999 375.181 888.897 374.223C886.794 373.266 885.171 371.911 884.026 370.159C882.905 368.384 882.345 366.316 882.345 363.957V363.572C882.345 361.213 882.905 359.157 884.026 357.405C885.171 355.63 886.794 354.264 888.897 353.306C890.999 352.325 893.44 351.835 896.219 351.835C898.789 351.835 901.089 352.255 903.122 353.096C905.177 353.937 906.777 355.105 907.922 356.6C909.09 358.094 909.674 359.776 909.674 361.645V361.925H904.313V361.645C904.313 360.687 903.963 359.835 903.262 359.087C902.584 358.34 901.627 357.756 900.389 357.335C899.174 356.915 897.773 356.705 896.184 356.705C893.405 356.705 891.291 357.289 889.843 358.457C888.418 359.624 887.705 361.306 887.705 363.502V364.027C887.705 366.246 888.418 367.928 889.843 369.073C891.267 370.217 893.393 370.79 896.219 370.79C898.672 370.79 900.634 370.346 902.106 369.458C903.577 368.547 904.313 367.356 904.313 365.884V365.639H909.674V365.884C909.674 367.753 909.09 369.435 907.922 370.93C906.777 372.401 905.177 373.557 903.122 374.398C901.089 375.239 898.789 375.66 896.219 375.66ZM918.889 352.255V368.022L931.643 352.255H936.898V375.239H931.678V359.473L918.924 375.239H913.669V352.255H918.889ZM964.799 352.255V375.239H959.544V367.111H955.55L947.736 375.239H941.57V374.433L948.823 367.041C946.533 366.807 944.735 366.071 943.427 364.833C942.119 363.572 941.465 361.949 941.465 359.963V359.578C941.465 357.312 942.247 355.525 943.812 354.217C945.377 352.909 947.514 352.255 950.224 352.255H964.799ZM959.544 356.915H950.364C949.22 356.915 948.344 357.148 947.736 357.616C947.129 358.059 946.825 358.713 946.825 359.578V359.963C946.825 360.851 947.129 361.528 947.736 361.995C948.344 362.439 949.22 362.661 950.364 362.661H959.544V356.915Z" fill="white"/>
<path d="M13.9697 672.658V675.433H4.86704V678.165H13.5492V680.919H4.86704V683.673H13.9697V686.448H1.71371V672.658H13.9697ZM28.4888 679.385C29.1335 679.679 29.624 680.079 29.9603 680.583C30.2967 681.088 30.4649 681.676 30.4649 682.349V682.58C30.4649 683.771 30.0024 684.717 29.0774 685.418C28.1524 686.105 26.8981 686.448 25.3144 686.448H16.6953V672.658H24.915C26.5407 672.658 27.7951 672.98 28.678 673.625C29.5749 674.255 30.0234 675.145 30.0234 676.295V676.526C30.0234 677.759 29.5119 678.712 28.4888 679.385ZM19.8487 675.412V678.187H24.894C26.1974 678.187 26.8491 677.759 26.8491 676.904V676.694C26.8491 676.273 26.6809 675.958 26.3445 675.748C26.0222 675.524 25.5457 675.412 24.915 675.412H19.8487ZM27.2485 682.118C27.2485 681.249 26.5898 680.814 25.2724 680.814H19.8487V683.694H25.2724C25.9031 683.694 26.3866 683.575 26.7229 683.337C27.0733 683.099 27.2485 682.762 27.2485 682.328V682.118ZM41.7361 672.658C43.3618 672.658 44.6442 673.05 45.5831 673.835C46.5221 674.62 46.9916 675.692 46.9916 677.051V677.283C46.9916 678.656 46.5221 679.735 45.5831 680.52C44.6442 681.305 43.3618 681.697 41.7361 681.697H36.1442V686.448H32.9908V672.658H41.7361ZM41.652 678.901C42.3387 678.901 42.8643 678.768 43.2287 678.502C43.593 678.222 43.7752 677.815 43.7752 677.283V677.051C43.7752 676.533 43.593 676.14 43.2287 675.874C42.8643 675.594 42.3387 675.454 41.652 675.454H36.1442V678.901H41.652ZM56.9164 686.701C55.2627 686.701 53.8191 686.413 52.5858 685.839C51.3525 685.264 50.3925 684.444 49.7058 683.379C49.0331 682.314 48.6967 681.074 48.6967 679.658V679.469C48.6967 678.053 49.0331 676.813 49.7058 675.748C50.3925 674.683 51.3525 673.863 52.5858 673.288C53.8332 672.7 55.2767 672.405 56.9164 672.405C58.5702 672.405 60.0137 672.7 61.247 673.288C62.4803 673.863 63.4333 674.683 64.106 675.748C64.7787 676.813 65.1151 678.053 65.1151 679.469V679.658C65.1151 681.074 64.7787 682.314 64.106 683.379C63.4333 684.444 62.4803 685.264 61.247 685.839C60.0137 686.413 58.5702 686.701 56.9164 686.701ZM56.9164 683.778C58.5421 683.778 59.7754 683.428 60.6163 682.727C61.4712 682.027 61.8987 681.018 61.8987 679.7V679.448C61.8987 678.13 61.4642 677.114 60.5953 676.4C59.7404 675.685 58.5141 675.327 56.9164 675.327C55.3047 675.327 54.0644 675.685 53.1955 676.4C52.3406 677.114 51.9131 678.13 51.9131 679.448V679.7C51.9131 681.018 52.3406 682.027 53.1955 682.727C54.0644 683.428 55.3047 683.778 56.9164 683.778ZM81.07 672.658V686.448H77.9166V675.496H70.706V686.448H67.5527V672.658H81.07ZM98.4517 685.965V686.448H95.2984L94.0371 683.589H87.1418L85.8804 686.448H82.7271V685.965L88.8446 672.658H92.3343L98.4517 685.965ZM92.8388 680.856L90.5894 675.727L88.34 680.856H92.8388Z" fill="#3C525E"/>
<path d="M299.746 596.695H306.921V598.293H301.442V600.522H304.146C306.445 600.522 307.622 601.573 307.622 603.437C307.622 605.483 306.291 606.506 303.642 606.506H299.746V596.695ZM303.81 602.119H301.442V604.908H303.726C305.156 604.908 305.87 604.418 305.87 603.451C305.87 602.54 305.254 602.119 303.81 602.119ZM310.385 609.309H308.787V599.218H310.385V599.877C310.819 599.33 311.618 599.05 312.403 599.05C313.482 599.05 314.351 599.386 314.981 600.073C315.612 600.76 315.934 601.643 315.934 602.736C315.934 603.871 315.598 604.796 314.925 605.525C314.253 606.268 313.37 606.632 312.291 606.632C311.352 606.632 310.707 606.436 310.385 606.029V609.309ZM312.235 600.536C311.352 600.536 310.707 601.04 310.385 601.727V604.249C310.735 604.852 311.31 605.146 312.108 605.146C313.412 605.146 314.281 604.221 314.281 602.862C314.281 601.404 313.51 600.536 312.235 600.536ZM322.631 604.179L323.612 605.146C322.869 606.141 321.888 606.632 320.655 606.632C319.477 606.632 318.538 606.282 317.824 605.595C317.109 604.908 316.744 603.997 316.744 602.848C316.744 601.741 317.081 600.83 317.74 600.115C318.398 599.4 319.309 599.05 320.486 599.05C321.481 599.05 322.294 599.358 322.939 599.961C323.584 600.578 323.906 601.39 323.906 602.386C323.906 602.624 323.878 602.974 323.822 603.409H318.412C318.538 604.53 319.435 605.146 320.683 605.146C321.51 605.146 322.154 604.824 322.631 604.179ZM320.416 600.494C319.351 600.494 318.636 601.068 318.426 602.021H322.252C322.126 601.026 321.467 600.494 320.416 600.494ZM330.501 604.109L331.636 604.838C331.062 605.973 329.814 606.632 328.511 606.632C327.334 606.632 326.381 606.282 325.666 605.595C324.951 604.908 324.587 603.983 324.587 602.848C324.587 601.755 324.937 600.844 325.652 600.129C326.367 599.414 327.292 599.05 328.427 599.05C329.884 599.05 331.062 599.709 331.552 600.704L330.361 601.489C329.884 600.858 329.268 600.536 328.497 600.536C327.165 600.536 326.24 601.489 326.24 602.848C326.24 603.507 326.465 604.053 326.913 604.488C327.348 604.922 327.936 605.146 328.665 605.146C329.436 605.146 330.039 604.796 330.501 604.109ZM334.508 600.704H331.873V599.218H338.74V600.704H336.105V606.506H334.508V600.704Z" fill="#3C525E"/>
<path d="M315.141 572.17L316.136 573.263C315.337 574.398 313.838 575.085 312.156 575.085C310.614 575.085 309.395 574.622 308.484 573.711C307.573 572.8 307.111 571.595 307.111 570.067C307.111 568.638 307.573 567.447 308.498 566.48C309.423 565.527 310.628 565.05 312.128 565.05C313.852 565.05 315.295 565.737 315.982 566.746L314.861 567.811C314.174 567.054 313.291 566.676 312.212 566.676C311.203 566.676 310.39 566.984 309.787 567.601C309.185 568.218 308.876 569.044 308.876 570.067C308.876 571.091 309.199 571.903 309.829 572.52C310.46 573.151 311.273 573.459 312.282 573.459C313.473 573.459 314.426 573.025 315.141 572.17ZM320.542 574.973H317.094V567.685H320.206C322.28 567.685 323.275 568.232 323.275 569.619C323.275 570.208 323.009 570.698 322.462 571.105C323.149 571.371 323.485 571.931 323.485 572.8C323.485 574.216 322.406 574.973 320.542 574.973ZM320.43 571.959H318.692V573.529H320.388C321.355 573.529 321.831 573.277 321.831 572.758C321.831 572.198 321.397 571.959 320.43 571.959ZM320.164 569.128H318.692V570.572H320.57C321.271 570.572 321.621 570.32 321.621 569.829C321.621 569.269 321.173 569.128 320.164 569.128ZM329.864 570.236L325.996 574.973H324.608V567.685H326.206V572.436L330.074 567.685H331.462V574.973H329.864V570.236ZM338.535 572.576L339.67 573.305C339.095 574.44 337.848 575.099 336.545 575.099C335.367 575.099 334.414 574.748 333.7 574.062C332.985 573.375 332.621 572.45 332.621 571.315C332.621 570.222 332.971 569.311 333.686 568.596C334.4 567.881 335.325 567.517 336.461 567.517C337.918 567.517 339.095 568.175 339.586 569.171L338.395 569.955C337.918 569.325 337.302 569.002 336.531 569.002C335.199 569.002 334.274 569.955 334.274 571.315C334.274 571.973 334.499 572.52 334.947 572.955C335.382 573.389 335.97 573.613 336.699 573.613C337.47 573.613 338.072 573.263 338.535 572.576ZM346.936 574.973H345.338V569.171H342.759V570.306C342.759 574.188 341.498 575.169 339.69 575.029L339.564 573.543C340.321 573.627 341.19 573.137 341.19 569.759V567.685H346.936V574.973ZM348.086 571.315C348.086 570.208 348.451 569.297 349.179 568.582C349.894 567.867 350.833 567.517 351.982 567.517C353.131 567.517 354.07 567.867 354.799 568.582C355.528 569.297 355.892 570.208 355.892 571.315C355.892 572.408 355.528 573.305 354.799 574.02C354.07 574.734 353.131 575.099 351.982 575.099C350.847 575.099 349.922 574.734 349.193 574.02C348.451 573.305 348.086 572.408 348.086 571.315ZM349.74 571.315C349.74 571.973 349.95 572.52 350.371 572.955C350.777 573.389 351.324 573.613 351.982 573.613C353.328 573.613 354.239 572.702 354.239 571.315C354.239 570.628 354.028 570.067 353.594 569.633C353.16 569.213 352.627 569.002 351.982 569.002C350.679 569.002 349.74 569.913 349.74 571.315ZM361.614 567.685H363.211V574.973H361.614V572.114C361.123 572.562 360.465 572.786 359.652 572.786C357.704 572.786 356.723 571.819 356.723 569.885V567.685H358.32V569.339C358.32 570.754 358.811 571.301 360.002 571.301C360.633 571.301 361.277 570.95 361.614 570.502V567.685ZM367.737 574.973H364.696V567.685H366.293V569.801H367.835C370.021 569.801 370.918 570.838 370.918 572.366C370.918 573.865 369.937 574.973 367.737 574.973ZM367.695 571.287H366.293V573.487H367.681C368.802 573.487 369.264 573.123 369.264 572.38C369.264 571.651 368.746 571.287 367.695 571.287Z" fill="#3C525E"/>
<path d="M301.498 533.628H308.673V535.226H303.193V537.454H305.898C308.197 537.454 309.374 538.505 309.374 540.369C309.374 542.415 308.043 543.438 305.394 543.438H301.498V533.628ZM305.562 539.052H303.193V541.841H305.478C306.907 541.841 307.622 541.35 307.622 540.383C307.622 539.472 307.005 539.052 305.562 539.052ZM312.136 546.241H310.539V536.151H312.136V536.809C312.571 536.263 313.37 535.983 314.155 535.983C315.234 535.983 316.103 536.319 316.733 537.006C317.364 537.692 317.686 538.575 317.686 539.668C317.686 540.804 317.35 541.729 316.677 542.457C316.005 543.2 315.122 543.565 314.042 543.565C313.103 543.565 312.459 543.368 312.136 542.962V546.241ZM313.986 537.468C313.103 537.468 312.459 537.973 312.136 538.659V541.182C312.487 541.785 313.061 542.079 313.86 542.079C315.164 542.079 316.033 541.154 316.033 539.795C316.033 538.337 315.262 537.468 313.986 537.468ZM318.84 546.157L319.471 544.798C319.569 544.854 319.667 544.882 319.793 544.882C320.227 544.882 320.62 544.476 320.942 543.663L321.194 543.004L317.607 536.151H319.457L321.965 541.07L323.899 536.151H325.609L322.75 543.228C322.259 544.42 321.811 545.232 321.391 545.695C320.956 546.143 320.452 546.368 319.849 546.368C319.457 546.368 319.12 546.297 318.84 546.157ZM328.942 543.607C327.387 543.607 326.266 543.018 325.579 541.841L326.784 541C327.233 541.771 327.961 542.163 328.956 542.163C329.924 542.163 330.582 541.771 330.582 541.154C330.582 540.664 330.19 540.425 329.419 540.425H327.807V539.038H329.335C329.938 539.038 330.33 538.729 330.33 538.267C330.33 537.692 329.727 537.384 328.942 537.384C327.947 537.384 327.387 537.734 326.882 538.365L325.747 537.608C326.294 536.669 327.401 535.941 329.027 535.941C330.891 535.941 331.984 536.767 331.984 538.043C331.984 538.645 331.745 539.122 331.269 539.5C331.914 539.879 332.236 540.425 332.236 541.14C332.236 541.897 331.928 542.499 331.311 542.934C330.694 543.382 329.91 543.607 328.942 543.607ZM334.952 543.438H333.354V536.151H338.848V537.636H334.952V543.438ZM344.905 538.701L341.037 543.438H339.65V536.151H341.247V540.902L345.115 536.151H346.503V543.438H344.905V538.701Z" fill="#3C525E"/>
<path d="M191.951 389.276H190.255V379.466H191.951V383.769L196.352 379.466H198.566L194.109 383.867L198.888 389.276H196.632L192.834 385.002L191.951 385.857V389.276ZM200.327 384.077L199.543 382.9C200.229 382.227 201.406 381.82 202.598 381.82C204.504 381.82 205.583 382.914 205.583 384.82V389.276H203.985V388.478C203.453 389.066 202.696 389.36 201.729 389.36C200.117 389.36 199.08 388.464 199.08 387.062C199.08 385.506 200.425 384.75 202.486 384.75C203.088 384.75 203.593 384.82 203.985 384.946C203.999 383.839 203.551 383.306 202.416 383.306C201.701 383.306 201 383.558 200.327 384.077ZM202.079 387.973C202.906 387.973 203.551 387.637 203.985 386.978V386.277C203.593 386.151 203.144 386.081 202.654 386.081C201.378 386.081 200.734 386.403 200.734 387.048C200.734 387.623 201.252 387.973 202.079 387.973ZM213.672 389.276H212.074V383.474H209.496V384.609C209.496 388.492 208.234 389.473 206.426 389.332L206.3 387.847C207.057 387.931 207.926 387.44 207.926 384.063V381.989H213.672V389.276ZM220.414 384.539L216.546 389.276H215.159V381.989H216.756V386.74L220.624 381.989H222.012V389.276H220.414V384.539ZM230.206 389.276H228.609V386.319H225.105V389.276H223.507V381.989H225.105V384.848H228.609V381.989H230.206V389.276ZM236.961 384.539L233.093 389.276H231.705V381.989H233.303V386.74L237.171 381.989H238.559V389.276H236.961V384.539ZM246.753 389.276H245.155V386.319H241.652V389.276H240.054V381.989H241.652V384.848H245.155V381.989H246.753V389.276ZM249.85 389.276H248.252V381.989H253.746V383.474H249.85V389.276ZM256.146 392.079H254.548V381.989H256.146V382.647C256.58 382.101 257.379 381.82 258.164 381.82C259.243 381.82 260.112 382.157 260.742 382.844C261.373 383.53 261.695 384.413 261.695 385.506C261.695 386.642 261.359 387.567 260.686 388.295C260.014 389.038 259.131 389.403 258.052 389.403C257.113 389.403 256.468 389.206 256.146 388.8V392.079ZM257.996 383.306C257.113 383.306 256.468 383.811 256.146 384.497V387.02C256.496 387.623 257.071 387.917 257.869 387.917C259.173 387.917 260.042 386.992 260.042 385.633C260.042 384.175 259.271 383.306 257.996 383.306ZM263.627 384.077L262.842 382.9C263.529 382.227 264.706 381.82 265.897 381.82C267.803 381.82 268.882 382.914 268.882 384.82V389.276H267.285V388.478C266.752 389.066 265.995 389.36 265.028 389.36C263.416 389.36 262.379 388.464 262.379 387.062C262.379 385.506 263.725 384.75 265.785 384.75C266.388 384.75 266.892 384.82 267.285 384.946C267.299 383.839 266.85 383.306 265.715 383.306C265 383.306 264.299 383.558 263.627 384.077ZM265.379 387.973C266.205 387.973 266.85 387.637 267.285 386.978V386.277C266.892 386.151 266.444 386.081 265.953 386.081C264.678 386.081 264.033 386.403 264.033 387.048C264.033 387.623 264.552 387.973 265.379 387.973ZM271.141 390.944H269.656V387.791H270.496C271.043 386.824 271.323 385.31 271.323 383.25V381.989H276.901V387.791H277.924V390.944H276.439V389.276H271.141V390.944ZM275.304 383.474H272.837V384.077C272.837 385.619 272.613 386.852 272.15 387.791H275.304V383.474Z" fill="#3C525E"/>
<rect x="92" y="120" width="236" height="184" fill="white"/>
<path d="M989.419 695.196C991.408 695.196 993.054 693.613 993.054 691.621C993.054 689.628 991.408 688.046 989.419 688.046C987.43 688.046 985.784 689.628 985.784 691.621C985.784 693.613 987.43 695.196 989.419 695.196Z" fill="#AFBBFB" stroke="white" stroke-width="1.75185"/>
<path d="M974.441 697.895C976.43 697.895 978.076 696.313 978.076 694.32C978.076 692.328 976.43 690.745 974.441 690.745C972.451 690.745 970.805 692.328 970.805 694.32C970.805 696.313 972.451 697.895 974.441 697.895Z" fill="#AFBBFB" stroke="white" stroke-width="1.75185"/>
<path d="M1011.89 686.328C1013.88 686.328 1015.52 684.745 1015.52 682.753C1015.52 680.76 1013.88 679.178 1011.89 679.178C1009.9 679.178 1008.25 680.76 1008.25 682.753C1008.25 684.745 1009.9 686.328 1011.89 686.328Z" fill="#AFBBFB" stroke="white" stroke-width="1.75185"/>
<path d="M1006.37 707.149C1008.36 707.149 1010 705.567 1010 703.574C1010 701.582 1008.36 699.999 1006.37 699.999C1004.38 699.999 1002.73 701.582 1002.73 703.574C1002.73 705.567 1004.38 707.149 1006.37 707.149Z" fill="#AFBBFB" stroke="white" stroke-width="1.75185"/>
<path d="M1007.73 789.148C1009.72 789.148 1011.36 787.566 1011.36 785.573C1011.36 783.581 1009.72 781.998 1007.73 781.998C1005.74 781.998 1004.09 783.581 1004.09 785.573C1004.09 787.566 1005.74 789.148 1007.73 789.148Z" fill="#AFBBFB" stroke="white" stroke-width="1.75185"/>
<path d="M1049.77 809.711C1051.76 809.711 1053.41 808.129 1053.41 806.137C1053.41 804.144 1051.76 802.562 1049.77 802.562C1047.78 802.562 1046.14 804.144 1046.14 806.137C1046.14 808.129 1047.78 809.711 1049.77 809.711Z" fill="#AFBBFB" stroke="white" stroke-width="1.75185"/>
<path d="M1164.52 819.994C1166.51 819.994 1168.15 818.411 1168.15 816.419C1168.15 814.426 1166.51 812.844 1164.52 812.844C1162.53 812.844 1160.88 814.426 1160.88 816.419C1160.88 818.411 1162.53 819.994 1164.52 819.994Z" fill="#AFBBFB" stroke="white" stroke-width="1.75185"/>
<path d="M1183.79 827.706C1185.78 827.706 1187.42 826.123 1187.42 824.131C1187.42 822.138 1185.78 820.556 1183.79 820.556C1181.8 820.556 1180.15 822.138 1180.15 824.131C1180.15 826.123 1181.8 827.706 1183.79 827.706Z" fill="#AFBBFB" stroke="white" stroke-width="1.75185"/>
<path d="M1161.01 797.716C1163 797.716 1164.65 796.134 1164.65 794.141C1164.65 792.149 1163 790.566 1161.01 790.566C1159.02 790.566 1157.38 792.149 1157.38 794.141C1157.38 796.134 1159.02 797.716 1161.01 797.716Z" fill="#AFBBFB" stroke="white" stroke-width="1.75185"/>
<path d="M1147.87 767.727C1149.86 767.727 1151.51 766.145 1151.51 764.152C1151.51 762.16 1149.86 760.577 1147.87 760.577C1145.88 760.577 1144.24 762.16 1144.24 764.152C1144.24 766.145 1145.88 767.727 1147.87 767.727Z" fill="#AFBBFB" stroke="white" stroke-width="1.75185"/>
<path d="M1153 777.752C1154.99 777.752 1156.63 776.169 1156.63 774.177C1156.63 772.184 1154.99 770.602 1153 770.602C1151.01 770.602 1149.36 772.184 1149.36 774.177C1149.36 776.169 1151.01 777.752 1153 777.752Z" fill="#AFBBFB" stroke="white" stroke-width="1.75185"/>
<path d="M1053.95 742.878C1055.94 742.878 1057.58 741.296 1057.58 739.304C1057.58 737.311 1055.94 735.729 1053.95 735.729C1051.96 735.729 1050.31 737.311 1050.31 739.304C1050.31 741.296 1051.96 742.878 1053.95 742.878Z" fill="#AFBBFB" stroke="white" stroke-width="1.75185"/>
<path d="M1044.49 746.734C1046.48 746.734 1048.12 745.151 1048.12 743.159C1048.12 741.166 1046.48 739.584 1044.49 739.584C1042.5 739.584 1040.85 741.166 1040.85 743.159C1040.85 745.151 1042.5 746.734 1044.49 746.734Z" fill="#AFBBFB" stroke="white" stroke-width="1.75185"/>
<path d="M1048.43 744.96C1050.42 744.96 1052.06 743.378 1052.06 741.386C1052.06 739.393 1050.42 737.811 1048.43 737.811C1046.44 737.811 1044.79 739.393 1044.79 741.386C1044.79 743.378 1046.44 744.96 1048.43 744.96Z" fill="#AFBBFB" stroke="white" stroke-width="1.75185"/>
<path d="M1038.38 755.985C1040.37 755.985 1042.02 754.402 1042.02 752.41C1042.02 750.417 1040.37 748.835 1038.38 748.835C1036.39 748.835 1034.75 750.417 1034.75 752.41C1034.75 754.402 1036.39 755.985 1038.38 755.985Z" fill="#AFBBFB" stroke="white" stroke-width="1.75185"/>
<path d="M1119.84 854.267C1121.83 854.267 1123.48 852.685 1123.48 850.692C1123.48 848.7 1121.83 847.117 1119.84 847.117C1117.85 847.117 1116.21 848.7 1116.21 850.692C1116.21 852.685 1117.85 854.267 1119.84 854.267Z" fill="#AFBBFB" stroke="white" stroke-width="1.75185"/>
<path d="M1104.16 822.822C1106.15 822.822 1107.8 821.239 1107.8 819.247C1107.8 817.254 1106.15 815.672 1104.16 815.672C1102.18 815.672 1100.53 817.254 1100.53 819.247C1100.53 821.239 1102.18 822.822 1104.16 822.822Z" fill="#AFBBFB" stroke="white" stroke-width="1.75185"/>
<path d="M1081.3 807.399C1083.29 807.399 1084.94 805.817 1084.94 803.824C1084.94 801.832 1083.29 800.249 1081.3 800.249C1079.31 800.249 1077.67 801.832 1077.67 803.824C1077.67 805.817 1079.31 807.399 1081.3 807.399Z" fill="#AFBBFB" stroke="white" stroke-width="1.75185"/>
<path d="M1086.82 802C1088.81 802 1090.46 800.417 1090.46 798.425C1090.46 796.432 1088.81 794.85 1086.82 794.85C1084.83 794.85 1083.19 796.432 1083.19 798.425C1083.19 800.417 1084.83 802 1086.82 802Z" fill="#AFBBFB" stroke="white" stroke-width="1.75185"/>
<path d="M1056.71 762.874C1058.7 762.874 1060.34 761.291 1060.34 759.299C1060.34 757.306 1058.7 755.724 1056.71 755.724C1054.72 755.724 1053.07 757.306 1053.07 759.299C1053.07 761.291 1054.72 762.874 1056.71 762.874Z" fill="#AFBBFB" stroke="white" stroke-width="1.75185"/>
<path d="M1059.47 752.903C1061.46 752.903 1063.1 751.32 1063.1 749.328C1063.1 747.335 1061.46 745.753 1059.47 745.753C1057.48 745.753 1055.83 747.335 1055.83 749.328C1055.83 751.32 1057.48 752.903 1059.47 752.903Z" fill="#AFBBFB" stroke="white" stroke-width="1.75185"/>
<path d="M1051.19 755.215C1053.18 755.215 1054.82 753.633 1054.82 751.64C1054.82 749.648 1053.18 748.065 1051.19 748.065C1049.2 748.065 1047.55 749.648 1047.55 751.64C1047.55 753.633 1049.2 755.215 1051.19 755.215Z" fill="#AFBBFB" stroke="white" stroke-width="1.75185"/>
<path d="M1062.03 707.749C1064.02 707.749 1065.67 706.166 1065.67 704.174C1065.67 702.181 1064.02 700.599 1062.03 700.599C1060.04 700.599 1058.4 702.181 1058.4 704.174C1058.4 706.166 1060.04 707.749 1062.03 707.749Z" fill="#AFBBFB" stroke="white" stroke-width="1.75185"/>
<path d="M1088.05 705.688C1090.04 705.688 1091.68 704.106 1091.68 702.113C1091.68 700.121 1090.04 698.538 1088.05 698.538C1086.06 698.538 1084.41 700.121 1084.41 702.113C1084.41 704.106 1086.06 705.688 1088.05 705.688Z" fill="#AFBBFB" stroke="white" stroke-width="1.75185"/>
<path d="M1103.42 713.918C1105.41 713.918 1107.06 712.335 1107.06 710.343C1107.06 708.35 1105.41 706.768 1103.42 706.768C1101.43 706.768 1099.79 708.35 1099.79 710.343C1099.79 712.335 1101.43 713.918 1103.42 713.918Z" fill="#AFBBFB" stroke="white" stroke-width="1.75185"/>
<path d="M1119.58 706.977C1121.57 706.977 1123.22 705.395 1123.22 703.402C1123.22 701.41 1121.57 699.827 1119.58 699.827C1117.59 699.827 1115.95 701.41 1115.95 703.402C1115.95 705.395 1117.59 706.977 1119.58 706.977Z" fill="#AFBBFB" stroke="white" stroke-width="1.75185"/>
<path d="M1189.92 720.173C1191.91 720.173 1193.55 718.591 1193.55 716.598C1193.55 714.606 1191.91 713.023 1189.92 713.023C1187.93 713.023 1186.28 714.606 1186.28 716.598C1186.28 718.591 1187.93 720.173 1189.92 720.173Z" fill="#AFBBFB" stroke="white" stroke-width="1.75185"/>
<path d="M1197.01 712.889C1199 712.889 1200.65 711.307 1200.65 709.314C1200.65 707.322 1199 705.739 1197.01 705.739C1195.02 705.739 1193.38 707.322 1193.38 709.314C1193.38 711.307 1195.02 712.889 1197.01 712.889Z" fill="#AFBBFB" stroke="white" stroke-width="1.75185"/>
<path d="M1179.63 689.755C1181.62 689.755 1183.26 688.173 1183.26 686.18C1183.26 684.188 1181.62 682.606 1179.63 682.606C1177.64 682.606 1175.99 684.188 1175.99 686.18C1175.99 688.173 1177.64 689.755 1179.63 689.755Z" fill="#AFBBFB" stroke="white" stroke-width="1.75185"/>
<path d="M1189.48 689.755C1191.47 689.755 1193.12 688.173 1193.12 686.18C1193.12 684.188 1191.47 682.606 1189.48 682.606C1187.49 682.606 1185.85 684.188 1185.85 686.18C1185.85 688.173 1187.49 689.755 1189.48 689.755Z" fill="#AFBBFB" stroke="white" stroke-width="1.75185"/>
<path d="M1161.89 695.153C1163.88 695.153 1165.52 693.57 1165.52 691.578C1165.52 689.585 1163.88 688.003 1161.89 688.003C1159.9 688.003 1158.25 689.585 1158.25 691.578C1158.25 693.57 1159.9 695.153 1161.89 695.153Z" fill="#AFBBFB" stroke="white" stroke-width="1.75185"/>
<path d="M1163.07 701.575C1165.06 701.575 1166.71 699.992 1166.71 698C1166.71 696.007 1165.06 694.425 1163.07 694.425C1161.08 694.425 1159.44 696.007 1159.44 698C1159.44 699.992 1161.08 701.575 1163.07 701.575Z" fill="#AFBBFB" stroke="white" stroke-width="1.75185"/>
<path d="M1161.32 643.658C1163.31 643.658 1164.95 642.075 1164.95 640.083C1164.95 638.09 1163.31 636.508 1161.32 636.508C1159.33 636.508 1157.68 638.09 1157.68 640.083C1157.68 642.075 1159.33 643.658 1161.32 643.658Z" fill="#AFBBFB" stroke="white" stroke-width="1.75185"/>
<path d="M1183.39 606.642C1185.38 606.642 1187.03 605.06 1187.03 603.067C1187.03 601.075 1185.38 599.492 1183.39 599.492C1181.4 599.492 1179.76 601.075 1179.76 603.067C1179.76 605.06 1181.4 606.642 1183.39 606.642Z" fill="#AFBBFB" stroke="white" stroke-width="1.75185"/>
<path d="M1164.08 652.139C1166.07 652.139 1167.71 650.557 1167.71 648.564C1167.71 646.572 1166.07 644.989 1164.08 644.989C1162.09 644.989 1160.44 646.572 1160.44 648.564C1160.44 650.557 1162.09 652.139 1164.08 652.139Z" fill="#AFBBFB" stroke="white" stroke-width="1.75185"/>
<path d="M1227.58 679.473C1229.57 679.473 1231.22 677.891 1231.22 675.898C1231.22 673.906 1229.57 672.323 1227.58 672.323C1225.59 672.323 1223.95 673.906 1223.95 675.898C1223.95 677.891 1225.59 679.473 1227.58 679.473Z" fill="#AFBBFB" stroke="white" stroke-width="1.75185"/>
<path d="M1222.59 695.752C1224.58 695.752 1226.23 694.17 1226.23 692.178C1226.23 690.185 1224.58 688.603 1222.59 688.603C1220.6 688.603 1218.95 690.185 1218.95 692.178C1218.95 694.17 1220.6 695.752 1222.59 695.752Z" fill="#AFBBFB" stroke="white" stroke-width="1.75185"/>
<path d="M1210.94 735.168C1212.93 735.168 1214.58 733.585 1214.58 731.593C1214.58 729.6 1212.93 728.018 1210.94 728.018C1208.95 728.018 1207.31 729.6 1207.31 731.593C1207.31 733.585 1208.95 735.168 1210.94 735.168Z" fill="#AFBBFB" stroke="white" stroke-width="1.75185"/>
<path d="M1193.42 735.168C1195.41 735.168 1197.06 733.585 1197.06 731.593C1197.06 729.6 1195.41 728.018 1193.42 728.018C1191.43 728.018 1189.79 729.6 1189.79 731.593C1189.79 733.585 1191.43 735.168 1193.42 735.168Z" fill="#AFBBFB" stroke="white" stroke-width="1.75185"/>
<path d="M1207.44 773.724C1209.43 773.724 1211.07 772.142 1211.07 770.149C1211.07 768.157 1209.43 766.574 1207.44 766.574C1205.45 766.574 1203.8 768.157 1203.8 770.149C1203.8 772.142 1205.45 773.724 1207.44 773.724Z" fill="#AFBBFB" stroke="white" stroke-width="1.75185"/>
<path d="M1191.67 778.866C1193.66 778.866 1195.31 777.283 1195.31 775.291C1195.31 773.298 1193.66 771.716 1191.67 771.716C1189.68 771.716 1188.03 773.298 1188.03 775.291C1188.03 777.283 1189.68 778.866 1191.67 778.866Z" fill="#AFBBFB" stroke="white" stroke-width="1.75185"/>
<path d="M1220.58 778.008C1222.57 778.008 1224.21 776.426 1224.21 774.433C1224.21 772.441 1222.57 770.858 1220.58 770.858C1218.59 770.858 1216.94 772.441 1216.94 774.433C1216.94 776.426 1218.59 778.008 1220.58 778.008Z" fill="#AFBBFB" stroke="white" stroke-width="1.75185"/>
<path d="M1230.25 778.008C1232.24 778.008 1233.89 776.426 1233.89 774.433C1233.89 772.441 1232.24 770.858 1230.25 770.858C1228.26 770.858 1226.62 772.441 1226.62 774.433C1226.62 776.426 1228.26 778.008 1230.25 778.008Z" fill="#AFBBFB" stroke="white" stroke-width="1.75185"/>
<path d="M1242.17 784.006C1244.16 784.006 1245.8 782.424 1245.8 780.431C1245.8 778.439 1244.16 776.856 1242.17 776.856C1240.18 776.856 1238.53 778.439 1238.53 780.431C1238.53 782.424 1240.18 784.006 1242.17 784.006Z" fill="#AFBBFB" stroke="white" stroke-width="1.75185"/>
<path d="M1235.47 785.148C1237.46 785.148 1239.1 783.566 1239.1 781.573C1239.1 779.581 1237.46 777.998 1235.47 777.998C1233.48 777.998 1231.83 779.581 1231.83 781.573C1231.83 783.566 1233.48 785.148 1235.47 785.148Z" fill="#AFBBFB" stroke="white" stroke-width="1.75185"/>
<path d="M1254.74 843.128C1256.73 843.128 1258.37 841.546 1258.37 839.554C1258.37 837.561 1256.73 835.979 1254.74 835.979C1252.75 835.979 1251.1 837.561 1251.1 839.554C1251.1 841.546 1252.75 843.128 1254.74 843.128Z" fill="#AFBBFB" stroke="white" stroke-width="1.75185"/>
<path d="M1233.22 830.769C1235.14 830.245 1236.29 828.286 1235.74 826.371C1235.2 824.455 1233.18 823.361 1231.26 823.885C1229.34 824.409 1228.19 826.368 1228.74 828.283C1229.28 830.199 1231.3 831.293 1233.22 830.769Z" fill="#AFBBFB" stroke="white" stroke-width="1.75185"/>
<path d="M1228.62 838.615C1230.54 838.091 1231.69 836.132 1231.14 834.216C1230.6 832.3 1228.58 831.207 1226.66 831.731C1224.74 832.255 1223.59 834.213 1224.14 836.129C1224.68 838.045 1226.7 839.139 1228.62 838.615Z" fill="#AFBBFB" stroke="white" stroke-width="1.75185"/>
<path d="M1223.07 846.192C1224.99 845.668 1226.14 843.709 1225.59 841.793C1225.05 839.878 1223.03 838.784 1221.11 839.308C1219.19 839.832 1218.04 841.791 1218.59 843.706C1219.14 845.622 1221.15 846.716 1223.07 846.192Z" fill="#AFBBFB" stroke="white" stroke-width="1.75185"/>
<path d="M1175.03 871.404C1177.02 871.404 1178.66 869.821 1178.66 867.829C1178.66 865.836 1177.02 864.254 1175.03 864.254C1173.04 864.254 1171.39 865.836 1171.39 867.829C1171.39 869.821 1173.04 871.404 1175.03 871.404Z" fill="#AFBBFB" stroke="white" stroke-width="1.75185"/>
<path d="M1178.53 861.122C1180.52 861.122 1182.17 859.539 1182.17 857.547C1182.17 855.554 1180.52 853.972 1178.53 853.972C1176.54 853.972 1174.9 855.554 1174.9 857.547C1174.9 859.539 1176.54 861.122 1178.53 861.122Z" fill="#AFBBFB" stroke="white" stroke-width="1.75185"/>
<path d="M1168.9 861.122C1170.89 861.122 1172.53 859.539 1172.53 857.547C1172.53 855.554 1170.89 853.972 1168.9 853.972C1166.91 853.972 1165.26 855.554 1165.26 857.547C1165.26 859.539 1166.91 861.122 1168.9 861.122Z" fill="#AFBBFB" stroke="white" stroke-width="1.75185"/>
<path d="M1189.92 863.692C1191.91 863.692 1193.55 862.109 1193.55 860.117C1193.55 858.125 1191.91 856.542 1189.92 856.542C1187.93 856.542 1186.28 858.125 1186.28 860.117C1186.28 862.109 1187.93 863.692 1189.92 863.692Z" fill="#AFBBFB" stroke="white" stroke-width="1.75185"/>
<path d="M1180.28 854.267C1182.27 854.267 1183.92 852.685 1183.92 850.692C1183.92 848.7 1182.27 847.117 1180.28 847.117C1178.29 847.117 1176.65 848.7 1176.65 850.692C1176.65 852.685 1178.29 854.267 1180.28 854.267Z" fill="#AFBBFB" stroke="white" stroke-width="1.75185"/>
<path d="M1169.77 850.839C1171.76 850.839 1173.41 849.257 1173.41 847.264C1173.41 845.272 1171.76 843.69 1169.77 843.69C1167.78 843.69 1166.14 845.272 1166.14 847.264C1166.14 849.257 1167.78 850.839 1169.77 850.839Z" fill="#AFBBFB" stroke="white" stroke-width="1.75185"/>
<path d="M1197.71 725.613C1199.7 725.613 1201.35 724.03 1201.35 722.038C1201.35 720.045 1199.7 718.463 1197.71 718.463C1195.72 718.463 1194.08 720.045 1194.08 722.038C1194.08 724.03 1195.72 725.613 1197.71 725.613Z" fill="#AFBBFB" stroke="white" stroke-width="1.75185"/>
<path d="M1218.82 725.253C1220.81 725.253 1222.46 723.671 1222.46 721.679C1222.46 719.686 1220.81 718.104 1218.82 718.104C1216.83 718.104 1215.19 719.686 1215.19 721.679C1215.19 723.671 1216.83 725.253 1218.82 725.253Z" fill="#AFBBFB" stroke="white" stroke-width="1.75185"/>
<path d="M1224.34 723.171C1226.33 723.171 1227.98 721.589 1227.98 719.596C1227.98 717.604 1226.33 716.022 1224.34 716.022C1222.35 716.022 1220.71 717.604 1220.71 719.596C1220.71 721.589 1222.35 723.171 1224.34 723.171Z" fill="#AFBBFB" stroke="white" stroke-width="1.75185"/>
<path d="M1237.22 718.887C1239.21 718.887 1240.85 717.305 1240.85 715.312C1240.85 713.32 1239.21 711.737 1237.22 711.737C1235.23 711.737 1233.58 713.32 1233.58 715.312C1233.58 717.305 1235.23 718.887 1237.22 718.887Z" fill="#AFBBFB" stroke="white" stroke-width="1.75185"/>
<path d="M1232.4 713.832C1234.39 713.832 1236.04 712.249 1236.04 710.257C1236.04 708.264 1234.39 706.682 1232.4 706.682C1230.41 706.682 1228.77 708.264 1228.77 710.257C1228.77 712.249 1230.41 713.832 1232.4 713.832Z" fill="#AFBBFB" stroke="white" stroke-width="1.75185"/>
<path d="M1100.66 680.373C1102.65 680.373 1104.3 678.79 1104.3 676.798C1104.3 674.805 1102.65 673.223 1100.66 673.223C1098.67 673.223 1097.03 674.805 1097.03 676.798C1097.03 678.79 1098.67 680.373 1100.66 680.373Z" fill="#AFBBFB" stroke="white" stroke-width="1.75185"/>
<path d="M1093.57 683.072C1095.56 683.072 1097.2 681.489 1097.2 679.497C1097.2 677.504 1095.56 675.922 1093.57 675.922C1091.58 675.922 1089.93 677.504 1089.93 679.497C1089.93 681.489 1091.58 683.072 1093.57 683.072Z" fill="#AFBBFB" stroke="white" stroke-width="1.75185"/>
<path d="M918.401 652.571C920.306 651.995 921.397 650.006 920.796 648.106C920.196 646.206 918.147 645.167 916.243 645.743C914.338 646.319 913.247 648.309 913.847 650.208C914.448 652.108 916.497 653.147 918.401 652.571Z" fill="#AFBBFB" stroke="white" stroke-width="1.75185"/>
<path d="M853.126 651.227C855.03 650.651 856.121 648.662 855.521 646.762C854.92 644.863 852.872 643.823 850.967 644.4C849.063 644.976 847.971 646.965 848.572 648.864C849.173 650.764 851.221 651.803 853.126 651.227Z" fill="#AFBBFB" stroke="white" stroke-width="1.75185"/>
<path d="M885.576 656.07C887.526 656.464 889.465 655.239 889.877 653.289C890.288 651.34 889.006 649.463 887.055 649.069C885.105 648.675 883.167 649.9 882.755 651.849C882.343 653.799 883.626 655.675 885.576 656.07Z" fill="#AFBBFB" stroke="white" stroke-width="1.75185"/>
<path d="M893.371 658.286C895.321 658.681 897.259 657.455 897.671 655.506C898.083 653.557 896.8 651.68 894.85 651.286C892.9 650.892 890.961 652.117 890.549 654.066C890.138 656.016 891.421 657.892 893.371 658.286Z" fill="#AFBBFB" stroke="white" stroke-width="1.75185"/>
<path d="M847.769 656.078C849.673 655.501 850.764 653.512 850.164 651.613C849.563 649.713 847.515 648.674 845.61 649.25C843.706 649.826 842.615 651.815 843.215 653.715C843.816 655.615 845.864 656.654 847.769 656.078Z" fill="#AFBBFB" stroke="white" stroke-width="1.75185"/>
<path d="M829.36 688.284C831.265 687.707 832.356 685.718 831.755 683.819C831.155 681.919 829.106 680.88 827.202 681.456C825.297 682.032 824.206 684.021 824.806 685.921C825.407 687.821 827.456 688.86 829.36 688.284Z" fill="#AFBBFB" stroke="white" stroke-width="1.75185"/>
<path d="M869.36 677.894C871.264 677.318 872.356 675.329 871.755 673.429C871.154 671.53 869.106 670.49 867.201 671.067C865.297 671.643 864.206 673.632 864.806 675.531C865.407 677.431 867.455 678.47 869.36 677.894Z" fill="#AFBBFB" stroke="white" stroke-width="1.75185"/>
<path d="M795.771 709.121C797.676 708.544 798.767 706.555 798.166 704.656C797.566 702.756 795.517 701.717 793.613 702.293C791.708 702.869 790.617 704.858 791.217 706.758C791.818 708.658 793.867 709.697 795.771 709.121Z" fill="#AFBBFB" stroke="white" stroke-width="1.75185"/>
<path d="M594.708 605.095C596.693 604.966 598.228 603.28 598.093 601.293C597.958 599.305 596.209 597.832 594.224 597.961C592.239 598.09 590.704 599.776 590.839 601.763C590.974 603.751 592.723 605.224 594.708 605.095Z" fill="#359FDA" stroke="white" stroke-width="1.75185"/>
<path d="M646.388 567.395C648.373 567.266 649.908 565.58 649.773 563.592C649.638 561.604 647.889 560.132 645.904 560.261C643.918 560.39 642.383 562.075 642.518 564.063C642.653 566.051 644.402 567.524 646.388 567.395Z" fill="#359FDA" stroke="white" stroke-width="1.75185"/>
<path d="M692.812 558.826C694.797 558.698 696.332 557.012 696.197 555.024C696.062 553.036 694.313 551.564 692.328 551.692C690.342 551.821 688.808 553.507 688.942 555.495C689.077 557.483 690.826 558.955 692.812 558.826Z" fill="#359FDA" stroke="white" stroke-width="1.75185"/>
<path d="M676.169 650.508C678.154 650.379 679.689 648.694 679.554 646.706C679.419 644.718 677.67 643.245 675.685 643.374C673.7 643.503 672.165 645.189 672.3 647.177C672.435 649.164 674.184 650.637 676.169 650.508Z" fill="#359FDA" stroke="white" stroke-width="1.75185"/>
<path d="M699.869 659.646C701.854 659.517 703.389 657.831 703.254 655.843C703.119 653.855 701.37 652.383 699.385 652.512C697.399 652.641 695.865 654.326 695.999 656.314C696.134 658.302 697.883 659.775 699.869 659.646Z" fill="#359FDA" stroke="white" stroke-width="1.75185"/>
<path d="M717.026 673.82C719.011 673.691 720.546 672.005 720.411 670.017C720.276 668.029 718.527 666.557 716.542 666.686C714.557 666.815 713.022 668.5 713.157 670.488C713.292 672.476 715.041 673.948 717.026 673.82Z" fill="#359FDA" stroke="white" stroke-width="1.75185"/>
<path d="M720.749 676.283C722.734 676.155 724.269 674.469 724.134 672.481C723.999 670.493 722.25 669.021 720.265 669.149C718.28 669.278 716.745 670.964 716.88 672.952C717.015 674.94 718.764 676.412 720.749 676.283Z" fill="#359FDA" stroke="white" stroke-width="1.75185"/>
<path d="M794.173 669.539C796.158 669.41 797.693 667.725 797.558 665.737C797.423 663.749 795.674 662.276 793.689 662.405C791.704 662.534 790.169 664.22 790.304 666.208C790.438 668.196 792.188 669.668 794.173 669.539Z" fill="#359FDA" stroke="white" stroke-width="1.75185"/>
<path d="M788.288 664.294C790.273 664.165 791.808 662.48 791.673 660.492C791.538 658.504 789.789 657.031 787.804 657.16C785.818 657.289 784.283 658.975 784.418 660.963C784.553 662.951 786.302 664.423 788.288 664.294Z" fill="#359FDA" stroke="white" stroke-width="1.75185"/>
<path d="M793.463 659.076C795.448 658.948 796.983 657.262 796.848 655.274C796.713 653.286 794.964 651.814 792.979 651.942C790.994 652.071 789.459 653.757 789.594 655.745C789.728 657.733 791.478 659.205 793.463 659.076Z" fill="#359FDA" stroke="white" stroke-width="1.75185"/>
<path d="M709.682 568.757C711.667 568.628 713.202 566.943 713.067 564.955C712.932 562.967 711.183 561.494 709.198 561.623C707.213 561.752 705.678 563.438 705.813 565.426C705.947 567.413 707.697 568.886 709.682 568.757Z" fill="#359FDA" stroke="white" stroke-width="1.75185"/>
<path d="M715.084 571.114C717.07 570.985 718.604 569.299 718.47 567.311C718.335 565.323 716.586 563.851 714.6 563.98C712.615 564.108 711.08 565.794 711.215 567.782C711.35 569.77 713.099 571.242 715.084 571.114Z" fill="#359FDA" stroke="white" stroke-width="1.75185"/>
<path d="M762.009 564.823C763.994 564.694 765.529 563.008 765.394 561.02C765.259 559.032 763.51 557.56 761.525 557.689C759.54 557.817 758.005 559.503 758.14 561.491C758.275 563.479 760.024 564.951 762.009 564.823Z" fill="#359FDA" stroke="white" stroke-width="1.75185"/>
<path d="M770.785 569.1C772.771 568.971 774.306 567.285 774.171 565.297C774.036 563.31 772.287 561.837 770.301 561.966C768.316 562.095 766.781 563.78 766.916 565.768C767.051 567.756 768.8 569.229 770.785 569.1Z" fill="#359FDA" stroke="white" stroke-width="1.75185"/>
<path d="M820.696 590.528C822.681 590.399 824.216 588.713 824.081 586.725C823.946 584.737 822.197 583.265 820.212 583.394C818.227 583.523 816.692 585.208 816.827 587.196C816.962 589.184 818.711 590.657 820.696 590.528Z" fill="#359FDA" stroke="white" stroke-width="1.75185"/>
<path d="M839.09 593.097C841.075 592.968 842.61 591.282 842.475 589.294C842.34 587.307 840.591 585.834 838.606 585.963C836.621 586.092 835.086 587.778 835.22 589.765C835.355 591.753 837.105 593.226 839.09 593.097Z" fill="#359FDA" stroke="white" stroke-width="1.75185"/>
<path d="M832.958 594.811C834.943 594.682 836.478 592.996 836.343 591.008C836.209 589.02 834.459 587.548 832.474 587.677C830.489 587.806 828.954 589.491 829.089 591.479C829.224 593.467 830.973 594.94 832.958 594.811Z" fill="#359FDA" stroke="white" stroke-width="1.75185"/>
<path d="M552.663 639.367C554.648 639.239 556.183 637.553 556.048 635.565C555.913 633.577 554.164 632.105 552.179 632.233C550.194 632.362 548.659 634.048 548.794 636.036C548.928 638.024 550.678 639.496 552.663 639.367Z" fill="#359FDA" stroke="white" stroke-width="1.75185"/>
<path d="M557.042 676.211C559.028 676.082 560.562 674.397 560.428 672.409C560.293 670.421 558.544 668.948 556.558 669.077C554.573 669.206 553.038 670.892 553.173 672.88C553.308 674.868 555.057 676.34 557.042 676.211Z" fill="#359FDA" stroke="white" stroke-width="1.75185"/>
<path d="M446.257 642.629C448.247 642.629 449.892 641.047 449.892 639.054C449.892 637.062 448.247 635.48 446.257 635.48C444.268 635.48 442.622 637.062 442.622 639.054C442.622 641.047 444.268 642.629 446.257 642.629Z" fill="#34D2B6" stroke="white" stroke-width="1.75185"/>
<path d="M503.274 598.234C505.263 598.234 506.909 596.651 506.909 594.659C506.909 592.666 505.263 591.084 503.274 591.084C501.284 591.084 499.639 592.666 499.639 594.659C499.639 596.651 501.284 598.234 503.274 598.234Z" fill="#34D2B6" stroke="white" stroke-width="1.75185"/>
<path d="M538.229 571.512C540.219 571.512 541.865 569.93 541.865 567.937C541.865 565.945 540.219 564.362 538.229 564.362C536.24 564.362 534.594 565.945 534.594 567.937C534.594 569.93 536.24 571.512 538.229 571.512Z" fill="#34D2B6" stroke="white" stroke-width="1.75185"/>
<path d="M570.639 538.952C572.628 538.952 574.274 537.369 574.274 535.377C574.274 533.384 572.628 531.802 570.639 531.802C568.649 531.802 567.004 533.384 567.004 535.377C567.004 537.369 568.649 538.952 570.639 538.952Z" fill="#34D2B6" stroke="white" stroke-width="1.75185"/>
<path d="M482.842 518.274C484.831 518.274 486.477 516.691 486.477 514.699C486.477 512.707 484.831 511.124 482.842 511.124C480.853 511.124 479.207 512.707 479.207 514.699C479.207 516.691 480.853 518.274 482.842 518.274Z" fill="#34D2B6" stroke="white" stroke-width="1.75185"/>
<path d="M430.4 515.998C432.39 515.998 434.035 514.415 434.035 512.423C434.035 510.43 432.39 508.848 430.4 508.848C428.411 508.848 426.765 510.43 426.765 512.423C426.765 514.415 428.411 515.998 430.4 515.998Z" fill="#34D2B6" stroke="white" stroke-width="1.75185"/>
<path d="M426.109 514.087C428.099 514.087 429.744 512.505 429.744 510.512C429.744 508.52 428.099 506.938 426.109 506.938C424.12 506.938 422.474 508.52 422.474 510.512C422.474 512.505 424.12 514.087 426.109 514.087Z" fill="#34D2B6" stroke="white" stroke-width="1.75185"/>
<path d="M416.92 508.413C418.91 508.413 420.555 506.83 420.555 504.838C420.555 502.845 418.91 501.263 416.92 501.263C414.931 501.263 413.285 502.845 413.285 504.838C413.285 506.83 414.931 508.413 416.92 508.413Z" fill="#34D2B6" stroke="white" stroke-width="1.75185"/>
<path d="M414.161 516.787C416.151 516.787 417.796 515.204 417.796 513.212C417.796 511.219 416.151 509.637 414.161 509.637C412.172 509.637 410.526 511.219 410.526 513.212C410.526 515.204 412.172 516.787 414.161 516.787Z" fill="#34D2B6" stroke="white" stroke-width="1.75185"/>
<path d="M339.22 496.239C341.209 496.239 342.855 494.656 342.855 492.664C342.855 490.671 341.209 489.089 339.22 489.089C337.231 489.089 335.585 490.671 335.585 492.664C335.585 494.656 337.231 496.239 339.22 496.239Z" fill="#34D2B6" stroke="white" stroke-width="1.75185"/>
<path d="M329.759 505.295C331.748 505.295 333.394 503.713 333.394 501.72C333.394 499.728 331.748 498.146 329.759 498.146C327.77 498.146 326.124 499.728 326.124 501.72C326.124 503.713 327.77 505.295 329.759 505.295Z" fill="#34D2B6" stroke="white" stroke-width="1.75185"/>
<path d="M339.991 501.985C341.981 501.985 343.626 500.402 343.626 498.41C343.626 496.417 341.981 494.835 339.991 494.835C338.002 494.835 336.356 496.417 336.356 498.41C336.356 500.402 338.002 501.985 339.991 501.985Z" fill="#34D2B6" stroke="white" stroke-width="1.75185"/>
<path d="M346.547 493.54C348.536 493.54 350.182 491.958 350.182 489.966C350.182 487.973 348.536 486.391 346.547 486.391C344.558 486.391 342.912 487.973 342.912 489.966C342.912 491.958 344.558 493.54 346.547 493.54Z" fill="#34D2B6" stroke="white" stroke-width="1.75185"/>
<path d="M345.526 500.489C347.515 500.489 349.161 498.906 349.161 496.914C349.161 494.921 347.515 493.339 345.526 493.339C343.537 493.339 341.891 494.921 341.891 496.914C341.891 498.906 343.537 500.489 345.526 500.489Z" fill="#34D2B6" stroke="white" stroke-width="1.75185"/>
<path d="M422.956 522.184C424.945 522.184 426.591 520.602 426.591 518.609C426.591 516.617 424.945 515.034 422.956 515.034C420.967 515.034 419.321 516.617 419.321 518.609C419.321 520.602 420.967 522.184 422.956 522.184Z" fill="#34D2B6" stroke="white" stroke-width="1.75185"/>
<path d="M403.248 530.08C405.237 530.08 406.883 528.497 406.883 526.505C406.883 524.512 405.237 522.93 403.248 522.93C401.259 522.93 399.613 524.512 399.613 526.505C399.613 528.497 401.259 530.08 403.248 530.08Z" fill="#34D2B6" stroke="white" stroke-width="1.75185"/>
<path d="M420.197 536.819C422.186 536.819 423.832 535.236 423.832 533.244C423.832 531.251 422.186 529.669 420.197 529.669C418.208 529.669 416.562 531.251 416.562 533.244C416.562 535.236 418.208 536.819 420.197 536.819Z" fill="#34D2B6" stroke="white" stroke-width="1.75185"/>
<path d="M605.809 516.674C607.798 516.674 609.444 515.092 609.444 513.099C609.444 511.107 607.798 509.524 605.809 509.524C603.82 509.524 602.174 511.107 602.174 513.099C602.174 515.092 603.82 516.674 605.809 516.674Z" fill="#34D2B6" stroke="white" stroke-width="1.75185"/>
<path d="M540.478 523.53C542.467 523.53 544.113 521.947 544.113 519.955C544.113 517.962 542.467 516.38 540.478 516.38C538.488 516.38 536.842 517.962 536.842 519.955C536.842 521.947 538.488 523.53 540.478 523.53Z" fill="#34D2B6" stroke="white" stroke-width="1.75185"/>
<path d="M600.42 519.941C602.41 519.941 604.055 518.358 604.055 516.366C604.055 514.374 602.41 512.791 600.42 512.791C598.431 512.791 596.785 514.374 596.785 516.366C596.785 518.358 598.431 519.941 600.42 519.941Z" fill="#34D2B6" stroke="white" stroke-width="1.75185"/>
<path d="M530.346 527.291C532.335 527.291 533.981 525.709 533.981 523.717C533.981 521.724 532.335 520.142 530.346 520.142C528.357 520.142 526.711 521.724 526.711 523.717C526.711 525.709 528.357 527.291 530.346 527.291Z" fill="#34D2B6" stroke="white" stroke-width="1.75185"/>
<path d="M606.726 525.339C608.715 525.339 610.361 523.757 610.361 521.764C610.361 519.772 608.715 518.19 606.726 518.19C604.737 518.19 603.091 519.772 603.091 521.764C603.091 523.757 604.737 525.339 606.726 525.339Z" fill="#34D2B6" stroke="white" stroke-width="1.75185"/>
<path d="M803.899 485.83C805.888 485.83 807.534 484.247 807.534 482.255C807.534 480.262 805.888 478.68 803.899 478.68C801.909 478.68 800.263 480.262 800.263 482.255C800.263 484.247 801.909 485.83 803.899 485.83Z" fill="#34D2B6" stroke="white" stroke-width="1.75185"/>
<path d="M942.907 441.274C944.897 441.274 946.542 439.691 946.542 437.699C946.542 435.707 944.897 434.124 942.907 434.124C940.918 434.124 939.272 435.707 939.272 437.699C939.272 439.691 940.918 441.274 942.907 441.274Z" fill="#34D2B6" stroke="white" stroke-width="1.75185"/>
<path d="M798.379 491.228C800.369 491.228 802.015 489.646 802.015 487.653C802.015 485.661 800.369 484.078 798.379 484.078C796.39 484.078 794.744 485.661 794.744 487.653C794.744 489.646 796.39 491.228 798.379 491.228Z" fill="#34D2B6" stroke="white" stroke-width="1.75185"/>
<path d="M540.478 529.993C542.467 529.993 544.113 528.41 544.113 526.418C544.113 524.425 542.467 522.843 540.478 522.843C538.488 522.843 536.842 524.425 536.842 526.418C536.842 528.41 538.488 529.993 540.478 529.993Z" fill="#34D2B6" stroke="white" stroke-width="1.75185"/>
<path d="M602.172 562.944C604.161 562.944 605.807 561.361 605.807 559.369C605.807 557.376 604.161 555.794 602.172 555.794C600.183 555.794 598.537 557.376 598.537 559.369C598.537 561.361 600.183 562.944 602.172 562.944Z" fill="#34D2B6" stroke="white" stroke-width="1.75185"/>
<path d="M289.874 487.346C291.969 487.073 293.445 485.153 293.171 483.058C292.897 480.964 290.978 479.488 288.883 479.762C286.789 480.035 285.313 481.955 285.586 484.049C285.86 486.144 287.78 487.62 289.874 487.346Z" fill="#A9DCE9" stroke="white" stroke-width="2"/>
<path d="M294.386 485.312C296.48 485.038 297.956 483.119 297.682 481.024C297.409 478.93 295.489 477.454 293.395 477.727C291.3 478.001 289.824 479.921 290.098 482.015C290.371 484.11 292.291 485.586 294.386 485.312Z" fill="#A9DCE9" stroke="white" stroke-width="2"/>
<path d="M317.738 474.551C319.833 474.278 321.309 472.358 321.035 470.263C320.761 468.169 318.842 466.693 316.747 466.967C314.653 467.24 313.177 469.16 313.45 471.255C313.724 473.349 315.644 474.825 317.738 474.551Z" fill="#A9DCE9" stroke="white" stroke-width="2"/>
<path d="M329.329 444.959C331.423 444.686 332.899 442.766 332.626 440.672C332.352 438.577 330.432 437.101 328.338 437.375C326.243 437.649 324.767 439.568 325.041 441.663C325.315 443.757 327.234 445.233 329.329 444.959Z" fill="#A9DCE9" stroke="white" stroke-width="2"/>
<path d="M315.878 482.118C317.973 481.844 319.449 479.924 319.175 477.83C318.901 475.735 316.982 474.259 314.887 474.533C312.793 474.807 311.317 476.726 311.59 478.821C311.864 480.915 313.784 482.391 315.878 482.118Z" fill="#A9DCE9" stroke="white" stroke-width="2"/>
<path d="M187.559 521.39C189.671 521.39 191.383 519.678 191.383 517.566C191.383 515.454 189.671 513.741 187.559 513.741C185.447 513.741 183.734 515.454 183.734 517.566C183.734 519.678 185.447 521.39 187.559 521.39Z" fill="#A9DCE9" stroke="white" stroke-width="2"/>
<path d="M167.086 541.493C169.198 541.493 170.91 539.781 170.91 537.668C170.91 535.556 169.198 533.844 167.086 533.844C164.973 533.844 163.261 535.556 163.261 537.668C163.261 539.781 164.973 541.493 167.086 541.493Z" fill="#A9DCE9" stroke="white" stroke-width="2"/>
<path d="M164.318 571.979C166.431 571.979 168.143 570.267 168.143 568.155C168.143 566.042 166.431 564.33 164.318 564.33C162.206 564.33 160.494 566.042 160.494 568.155C160.494 570.267 162.206 571.979 164.318 571.979Z" fill="#A9DCE9" stroke="white" stroke-width="2"/>
<path d="M150.945 578.299C153.057 578.299 154.769 576.587 154.769 574.475C154.769 572.363 153.057 570.65 150.945 570.65C148.833 570.65 147.12 572.363 147.12 574.475C147.12 576.587 148.833 578.299 150.945 578.299Z" fill="#A9DCE9" stroke="white" stroke-width="2"/>
<path d="M125.746 593.41C127.858 593.41 129.57 591.698 129.57 589.585C129.57 587.473 127.858 585.761 125.746 585.761C123.634 585.761 121.921 587.473 121.921 589.585C121.921 591.698 123.634 593.41 125.746 593.41Z" fill="#A9DCE9" stroke="white" stroke-width="2"/>
<path d="M118.169 601.767C120.282 601.767 121.994 600.055 121.994 597.943C121.994 595.83 120.282 594.118 118.169 594.118C116.057 594.118 114.345 595.83 114.345 597.943C114.345 600.055 116.057 601.767 118.169 601.767Z" fill="#A9DCE9" stroke="white" stroke-width="2"/>
<path d="M109.785 612.24C111.898 612.24 113.61 610.528 113.61 608.415C113.61 606.303 111.898 604.591 109.785 604.591C107.673 604.591 105.961 606.303 105.961 608.415C105.961 610.528 107.673 612.24 109.785 612.24Z" fill="#A9DCE9" stroke="white" stroke-width="2"/>
<path d="M98.7065 617.888C100.819 617.888 102.531 616.176 102.531 614.064C102.531 611.952 100.819 610.239 98.7065 610.239C96.5943 610.239 94.882 611.952 94.882 614.064C94.882 616.176 96.5943 617.888 98.7065 617.888Z" fill="#A9DCE9" stroke="white" stroke-width="2"/>
<path d="M172.403 661.651C174.516 661.651 176.228 659.939 176.228 657.826C176.228 655.714 174.516 654.002 172.403 654.002C170.291 654.002 168.579 655.714 168.579 657.826C168.579 659.939 170.291 661.651 172.403 661.651Z" fill="#A9DCE9" stroke="white" stroke-width="2"/>
<path d="M145.294 629.634C147.406 629.634 149.118 627.922 149.118 625.81C149.118 623.698 147.406 621.985 145.294 621.985C143.182 621.985 141.469 623.698 141.469 625.81C141.469 627.922 143.182 629.634 145.294 629.634Z" fill="#A9DCE9" stroke="white" stroke-width="2"/>
<path d="M144.487 618.337C146.599 618.337 148.311 616.624 148.311 614.512C148.311 612.4 146.599 610.688 144.487 610.688C142.375 610.688 140.662 612.4 140.662 614.512C140.662 616.624 142.375 618.337 144.487 618.337Z" fill="#A9DCE9" stroke="white" stroke-width="2"/>
<path d="M138.031 621.162C140.143 621.162 141.855 619.449 141.855 617.337C141.855 615.225 140.143 613.513 138.031 613.513C135.919 613.513 134.206 615.225 134.206 617.337C134.206 619.449 135.919 621.162 138.031 621.162Z" fill="#A9DCE9" stroke="white" stroke-width="2"/>
<path d="M121.128 621.746C123.24 621.746 124.953 620.033 124.953 617.921C124.953 615.809 123.24 614.097 121.128 614.097C119.016 614.097 117.304 615.809 117.304 617.921C117.304 620.033 119.016 621.746 121.128 621.746Z" fill="#A9DCE9" stroke="white" stroke-width="2"/>
<path d="M128.705 609.519C130.817 609.519 132.529 607.807 132.529 605.695C132.529 603.582 130.817 601.87 128.705 601.87C126.593 601.87 124.88 603.582 124.88 605.695C124.88 607.807 126.593 609.519 128.705 609.519Z" fill="#A9DCE9" stroke="white" stroke-width="2"/>
<path d="M129.692 603.871C131.804 603.871 133.516 602.158 133.516 600.046C133.516 597.934 131.804 596.222 129.692 596.222C127.579 596.222 125.867 597.934 125.867 600.046C125.867 602.158 127.579 603.871 129.692 603.871Z" fill="#A9DCE9" stroke="white" stroke-width="2"/>
<path d="M150.945 591.708C153.057 591.708 154.769 589.995 154.769 587.883C154.769 585.771 153.057 584.059 150.945 584.059C148.833 584.059 147.12 585.771 147.12 587.883C147.12 589.995 148.833 591.708 150.945 591.708Z" fill="#A9DCE9" stroke="white" stroke-width="2"/>
<path d="M190.4 565.641C192.512 565.641 194.224 563.929 194.224 561.817C194.224 559.704 192.512 557.992 190.4 557.992C188.287 557.992 186.575 559.704 186.575 561.817C186.575 563.929 188.287 565.641 190.4 565.641Z" fill="#A9DCE9" stroke="white" stroke-width="2"/>
<path d="M204.188 562.116C206.3 562.116 208.013 560.404 208.013 558.291C208.013 556.179 206.3 554.467 204.188 554.467C202.076 554.467 200.364 556.179 200.364 558.291C200.364 560.404 202.076 562.116 204.188 562.116Z" fill="#A9DCE9" stroke="white" stroke-width="2"/>
<path d="M176.634 665.139C178.746 665.139 180.458 663.427 180.458 661.315C180.458 659.203 178.746 657.49 176.634 657.49C174.521 657.49 172.809 659.203 172.809 661.315C172.809 663.427 174.521 665.139 176.634 665.139Z" fill="#A9DCE9" stroke="white" stroke-width="2"/>
<path d="M168.879 667.965C170.991 667.965 172.703 666.253 172.703 664.141C172.703 662.029 170.991 660.316 168.879 660.316C166.767 660.316 165.054 662.029 165.054 664.141C165.054 666.253 166.767 667.965 168.879 667.965Z" fill="#A9DCE9" stroke="white" stroke-width="2"/>
<path d="M190.4 664.34C192.512 664.34 194.224 662.628 194.224 660.516C194.224 658.404 192.512 656.691 190.4 656.691C188.287 656.691 186.575 658.404 186.575 660.516C186.575 662.628 188.287 664.34 190.4 664.34Z" fill="#A9DCE9" stroke="white" stroke-width="2"/>
<path d="M210.765 648.977C212.878 648.977 214.59 647.265 214.59 645.153C214.59 643.04 212.878 641.328 210.765 641.328C208.653 641.328 206.941 643.04 206.941 645.153C206.941 647.265 208.653 648.977 210.765 648.977Z" fill="#A9DCE9" stroke="white" stroke-width="2"/>
<path d="M199.483 615.762C201.595 615.762 203.308 614.05 203.308 611.938C203.308 609.826 201.595 608.113 199.483 608.113C197.371 608.113 195.659 609.826 195.659 611.938C195.659 614.05 197.371 615.762 199.483 615.762Z" fill="#A9DCE9" stroke="white" stroke-width="2"/>
<path d="M208.023 615.417C210.135 615.417 211.848 613.704 211.848 611.592C211.848 609.48 210.135 607.768 208.023 607.768C205.911 607.768 204.198 609.48 204.198 611.592C204.198 613.704 205.911 615.417 208.023 615.417Z" fill="#A9DCE9" stroke="white" stroke-width="2"/>
<path d="M193.36 606.321C195.472 606.321 197.184 604.609 197.184 602.496C197.184 600.384 195.472 598.672 193.36 598.672C191.247 598.672 189.535 600.384 189.535 602.496C189.535 604.609 191.247 606.321 193.36 606.321Z" fill="#A9DCE9" stroke="white" stroke-width="2"/>
<path d="M212.936 581.844C215.049 581.844 216.761 580.132 216.761 578.02C216.761 575.908 215.049 574.195 212.936 574.195C210.824 574.195 209.112 575.908 209.112 578.02C209.112 580.132 210.824 581.844 212.936 581.844Z" fill="#A9DCE9" stroke="white" stroke-width="2"/>
<path d="M205.644 589.633C207.756 589.633 209.468 587.921 209.468 585.809C209.468 583.697 207.756 581.984 205.644 581.984C203.531 581.984 201.819 583.697 201.819 585.809C201.819 587.921 203.531 589.633 205.644 589.633Z" fill="#A9DCE9" stroke="white" stroke-width="2"/>
<path d="M230.257 582.175C232.369 582.175 234.082 580.463 234.082 578.351C234.082 576.239 232.369 574.526 230.257 574.526C228.145 574.526 226.433 576.239 226.433 578.351C226.433 580.463 228.145 582.175 230.257 582.175Z" fill="#A9DCE9" stroke="white" stroke-width="2"/>
<path d="M234.696 588.095C236.808 588.095 238.52 586.383 238.52 584.271C238.52 582.159 236.808 580.446 234.696 580.446C232.583 580.446 230.871 582.159 230.871 584.271C230.871 586.383 232.583 588.095 234.696 588.095Z" fill="#A9DCE9" stroke="white" stroke-width="2"/>
<path d="M271.01 596.009C273.122 596.009 274.834 594.297 274.834 592.185C274.834 590.073 273.122 588.36 271.01 588.36C268.898 588.36 267.185 590.073 267.185 592.185C267.185 594.297 268.898 596.009 271.01 596.009Z" fill="#A9DCE9" stroke="white" stroke-width="2"/>
<path d="M286.244 579.017C288.356 579.017 290.068 577.305 290.068 575.193C290.068 573.08 288.356 571.368 286.244 571.368C284.131 571.368 282.419 573.08 282.419 575.193C282.419 577.305 284.131 579.017 286.244 579.017Z" fill="#A9DCE9" stroke="white" stroke-width="2"/>
<path d="M292.623 588.122C294.736 588.122 296.448 586.409 296.448 584.297C296.448 582.185 294.736 580.473 292.623 580.473C290.511 580.473 288.799 582.185 288.799 584.297C288.799 586.409 290.511 588.122 292.623 588.122Z" fill="#A9DCE9" stroke="white" stroke-width="2"/>
<path d="M277.466 582.669C279.578 582.669 281.29 580.956 281.29 578.844C281.29 576.732 279.578 575.02 277.466 575.02C275.354 575.02 273.641 576.732 273.641 578.844C273.641 580.956 275.354 582.669 277.466 582.669Z" fill="#A9DCE9" stroke="white" stroke-width="2"/>
<path d="M251.643 597.78C253.755 597.78 255.468 596.068 255.468 593.955C255.468 591.843 253.755 590.131 251.643 590.131C249.531 590.131 247.818 591.843 247.818 593.955C247.818 596.068 249.531 597.78 251.643 597.78Z" fill="#A9DCE9" stroke="white" stroke-width="2"/>
<path d="M262.219 562.014C264.332 562.014 266.044 560.302 266.044 558.19C266.044 556.078 264.332 554.365 262.219 554.365C260.107 554.365 258.395 556.078 258.395 558.19C258.395 560.302 260.107 562.014 262.219 562.014Z" fill="#A9DCE9" stroke="white" stroke-width="2"/>
<path d="M267.317 567.002C269.429 567.002 271.141 565.289 271.141 563.177C271.141 561.065 269.429 559.353 267.317 559.353C265.205 559.353 263.492 561.065 263.492 563.177C263.492 565.289 265.205 567.002 267.317 567.002Z" fill="#A9DCE9" stroke="white" stroke-width="2"/>
<path d="M281.77 598.243C283.883 598.243 285.595 596.531 285.595 594.418C285.595 592.306 283.883 590.594 281.77 590.594C279.658 590.594 277.946 592.306 277.946 594.418C277.946 596.531 279.658 598.243 281.77 598.243Z" fill="#A9DCE9" stroke="white" stroke-width="2"/>
<path d="M223.575 614.391C225.687 614.391 227.4 612.679 227.4 610.567C227.4 608.454 225.687 606.742 223.575 606.742C221.463 606.742 219.75 608.454 219.75 610.567C219.75 612.679 221.463 614.391 223.575 614.391Z" fill="#A9DCE9" stroke="white" stroke-width="2"/>
<path d="M235.121 615.762C237.233 615.762 238.945 614.05 238.945 611.938C238.945 609.826 237.233 608.113 235.121 608.113C233.009 608.113 231.296 609.826 231.296 611.938C231.296 614.05 233.009 615.762 235.121 615.762Z" fill="#A9DCE9" stroke="white" stroke-width="2"/>
<path d="M178.706 629.633C180.819 629.633 182.531 627.921 182.531 625.809C182.531 623.697 180.819 621.984 178.706 621.984C176.594 621.984 174.882 623.697 174.882 625.809C174.882 627.921 176.594 629.633 178.706 629.633Z" fill="#A9DCE9" stroke="white" stroke-width="2"/>
<path d="M191.511 636.09C193.624 636.09 195.336 634.378 195.336 632.266C195.336 630.154 193.624 628.441 191.511 628.441C189.399 628.441 187.687 630.154 187.687 632.266C187.687 634.378 189.399 636.09 191.511 636.09Z" fill="#A9DCE9" stroke="white" stroke-width="2"/>
<path d="M164.519 628.821C166.631 628.821 168.343 627.109 168.343 624.996C168.343 622.884 166.631 621.172 164.519 621.172C162.407 621.172 160.694 622.884 160.694 624.996C160.694 627.109 162.407 628.821 164.519 628.821Z" fill="#A9DCE9" stroke="white" stroke-width="2"/>
<path d="M165.107 604.911C167.219 604.911 168.931 603.198 168.931 601.086C168.931 598.974 167.219 597.262 165.107 597.262C162.995 597.262 161.282 598.974 161.282 601.086C161.282 603.198 162.995 604.911 165.107 604.911Z" fill="#A9DCE9" stroke="white" stroke-width="2"/>
<path d="M172.242 608.946C174.355 608.946 176.067 607.234 176.067 605.121C176.067 603.009 174.355 601.297 172.242 601.297C170.13 601.297 168.418 603.009 168.418 605.121C168.418 607.234 170.13 608.946 172.242 608.946Z" fill="#A9DCE9" stroke="white" stroke-width="2"/>
<path d="M178.896 614.594C181.008 614.594 182.72 612.882 182.72 610.77C182.72 608.658 181.008 606.945 178.896 606.945C176.783 606.945 175.071 608.658 175.071 610.77C175.071 612.882 176.783 614.594 178.896 614.594Z" fill="#A9DCE9" stroke="white" stroke-width="2"/>
<path d="M224.171 631.743C226.283 631.743 227.995 630.031 227.995 627.918C227.995 625.806 226.283 624.094 224.171 624.094C222.059 624.094 220.346 625.806 220.346 627.918C220.346 630.031 222.059 631.743 224.171 631.743Z" fill="#A9DCE9" stroke="white" stroke-width="2"/>
<path d="M274.776 627.453C276.888 627.453 278.6 625.74 278.6 623.628C278.6 621.516 276.888 619.804 274.776 619.804C272.664 619.804 270.951 621.516 270.951 623.628C270.951 625.74 272.664 627.453 274.776 627.453Z" fill="#A9DCE9" stroke="white" stroke-width="2"/>
<path d="M47.8245 713.658C49.9368 713.658 51.6491 711.946 51.6491 709.833C51.6491 707.721 49.9368 706.009 47.8245 706.009C45.7123 706.009 44 707.721 44 709.833C44 711.946 45.7123 713.658 47.8245 713.658Z" fill="#A9DCE9" stroke="white" stroke-width="2"/>
<path d="M117.988 662.723C120.1 662.723 121.813 661.011 121.813 658.899C121.813 656.787 120.1 655.074 117.988 655.074C115.876 655.074 114.164 656.787 114.164 658.899C114.164 661.011 115.876 662.723 117.988 662.723Z" fill="#A9DCE9" stroke="white" stroke-width="2"/>
<path d="M98.4876 643.355C100.6 643.355 102.312 641.643 102.312 639.531C102.312 637.418 100.6 635.706 98.4876 635.706C96.3754 635.706 94.6631 637.418 94.6631 639.531C94.6631 641.643 96.3754 643.355 98.4876 643.355Z" fill="#A9DCE9" stroke="white" stroke-width="2"/>
<path d="M103.482 647.787C105.595 647.787 107.307 646.074 107.307 643.962C107.307 641.85 105.595 640.138 103.482 640.138C101.37 640.138 99.6578 641.85 99.6578 643.962C99.6578 646.074 101.37 647.787 103.482 647.787Z" fill="#A9DCE9" stroke="white" stroke-width="2"/>
<path d="M95.3496 588.122C97.4618 588.122 99.1741 586.409 99.1741 584.297C99.1741 582.185 97.4618 580.473 95.3496 580.473C93.2373 580.473 91.525 582.185 91.525 584.297C91.525 586.409 93.2373 588.122 95.3496 588.122Z" fill="#A9DCE9" stroke="white" stroke-width="2"/>
<path d="M78.3123 569.29C80.4246 569.29 82.1369 567.577 82.1369 565.465C82.1369 563.353 80.4246 561.641 78.3123 561.641C76.2001 561.641 74.4878 563.353 74.4878 565.465C74.4878 567.577 76.2001 569.29 78.3123 569.29Z" fill="#A9DCE9" stroke="white" stroke-width="2"/>
<path d="M78.3123 597.089C80.4246 597.089 82.1369 595.377 82.1369 593.265C82.1369 591.153 80.4246 589.44 78.3123 589.44C76.2001 589.44 74.4878 591.153 74.4878 593.265C74.4878 595.377 76.2001 597.089 78.3123 597.089Z" fill="#A9DCE9" stroke="white" stroke-width="2"/>
<path d="M170.672 494.865C172.784 494.865 174.497 493.153 174.497 491.04C174.497 488.928 172.784 487.216 170.672 487.216C168.56 487.216 166.848 488.928 166.848 491.04C166.848 493.153 168.56 494.865 170.672 494.865Z" fill="#A9DCE9" stroke="white" stroke-width="2"/>
<defs>
<pattern id="pattern0_3001_9034" patternContentUnits="objectBoundingBox" width="1" height="1">
<use xlink:href="#image0_3001_9034" transform="scale(0.000260417 0.000462963)"/>
</pattern>
<filter id="filter0_d_3001_9034" x="292.633" y="543.073" width="27.1537" height="27.1537" filterUnits="userSpaceOnUse" color-interpolation-filters="sRGB">
<feFlood flood-opacity="0" result="BackgroundImageFix"/>
<feColorMatrix in="SourceAlpha" type="matrix" values="0 0 0 0 0 0 0 0 0 0 0 0 0 0 0 0 0 0 127 0" result="hardAlpha"/>
<feOffset dy="1.75185"/>
<feGaussianBlur stdDeviation="2.62778"/>
<feComposite in2="hardAlpha" operator="out"/>
<feColorMatrix type="matrix" values="0 0 0 0 0 0 0 0 0 0 0 0 0 0 0 0 0 0 0.12 0"/>
<feBlend mode="normal" in2="BackgroundImageFix" result="effect1_dropShadow_3001_9034"/>
<feBlend mode="normal" in="SourceGraphic" in2="effect1_dropShadow_3001_9034" result="shape"/>
</filter>
<filter id="filter1_d_3001_9034" x="270.735" y="497.526" width="27.1537" height="27.1537" filterUnits="userSpaceOnUse" color-interpolation-filters="sRGB">
<feFlood flood-opacity="0" result="BackgroundImageFix"/>
<feColorMatrix in="SourceAlpha" type="matrix" values="0 0 0 0 0 0 0 0 0 0 0 0 0 0 0 0 0 0 127 0" result="hardAlpha"/>
<feOffset dy="1.75185"/>
<feGaussianBlur stdDeviation="2.62778"/>
<feComposite in2="hardAlpha" operator="out"/>
<feColorMatrix type="matrix" values="0 0 0 0 0 0 0 0 0 0 0 0 0 0 0 0 0 0 0.12 0"/>
<feBlend mode="normal" in2="BackgroundImageFix" result="effect1_dropShadow_3001_9034"/>
<feBlend mode="normal" in="SourceGraphic" in2="effect1_dropShadow_3001_9034" result="shape"/>
</filter>
<filter id="filter2_d_3001_9034" x="831.328" y="609.645" width="27.1537" height="27.1537" filterUnits="userSpaceOnUse" color-interpolation-filters="sRGB">
<feFlood flood-opacity="0" result="BackgroundImageFix"/>
<feColorMatrix in="SourceAlpha" type="matrix" values="0 0 0 0 0 0 0 0 0 0 0 0 0 0 0 0 0 0 127 0" result="hardAlpha"/>
<feOffset dy="1.75185"/>
<feGaussianBlur stdDeviation="2.62778"/>
<feComposite in2="hardAlpha" operator="out"/>
<feColorMatrix type="matrix" values="0 0 0 0 0 0 0 0 0 0 0 0 0 0 0 0 0 0 0.12 0"/>
<feBlend mode="normal" in2="BackgroundImageFix" result="effect1_dropShadow_3001_9034"/>
<feBlend mode="normal" in="SourceGraphic" in2="effect1_dropShadow_3001_9034" result="shape"/>
</filter>
<filter id="filter3_d_3001_9034" x="282.122" y="557.965" width="27.1537" height="27.1537" filterUnits="userSpaceOnUse" color-interpolation-filters="sRGB">
<feFlood flood-opacity="0" result="BackgroundImageFix"/>
<feColorMatrix in="SourceAlpha" type="matrix" values="0 0 0 0 0 0 0 0 0 0 0 0 0 0 0 0 0 0 127 0" result="hardAlpha"/>
<feOffset dy="1.75185"/>
<feGaussianBlur stdDeviation="2.62778"/>
<feComposite in2="hardAlpha" operator="out"/>
<feColorMatrix type="matrix" values="0 0 0 0 0 0 0 0 0 0 0 0 0 0 0 0 0 0 0.12 0"/>
<feBlend mode="normal" in2="BackgroundImageFix" result="effect1_dropShadow_3001_9034"/>
<feBlend mode="normal" in="SourceGraphic" in2="effect1_dropShadow_3001_9034" result="shape"/>
</filter>
<filter id="filter4_d_3001_9034" x="290.006" y="572.856" width="27.1537" height="27.1537" filterUnits="userSpaceOnUse" color-interpolation-filters="sRGB">
<feFlood flood-opacity="0" result="BackgroundImageFix"/>
<feColorMatrix in="SourceAlpha" type="matrix" values="0 0 0 0 0 0 0 0 0 0 0 0 0 0 0 0 0 0 127 0" result="hardAlpha"/>
<feOffset dy="1.75185"/>
<feGaussianBlur stdDeviation="2.62778"/>
<feComposite in2="hardAlpha" operator="out"/>
<feColorMatrix type="matrix" values="0 0 0 0 0 0 0 0 0 0 0 0 0 0 0 0 0 0 0.12 0"/>
<feBlend mode="normal" in2="BackgroundImageFix" result="effect1_dropShadow_3001_9034"/>
<feBlend mode="normal" in="SourceGraphic" in2="effect1_dropShadow_3001_9034" result="shape"/>
</filter>
<filter id="filter5_d_3001_9034" x="810.305" y="634.17" width="27.1537" height="27.1537" filterUnits="userSpaceOnUse" color-interpolation-filters="sRGB">
<feFlood flood-opacity="0" result="BackgroundImageFix"/>
<feColorMatrix in="SourceAlpha" type="matrix" values="0 0 0 0 0 0 0 0 0 0 0 0 0 0 0 0 0 0 127 0" result="hardAlpha"/>
<feOffset dy="1.75185"/>
<feGaussianBlur stdDeviation="2.62778"/>
<feComposite in2="hardAlpha" operator="out"/>
<feColorMatrix type="matrix" values="0 0 0 0 0 0 0 0 0 0 0 0 0 0 0 0 0 0 0.12 0"/>
<feBlend mode="normal" in2="BackgroundImageFix" result="effect1_dropShadow_3001_9034"/>
<feBlend mode="normal" in="SourceGraphic" in2="effect1_dropShadow_3001_9034" result="shape"/>
</filter>
<linearGradient id="paint0_linear_3001_9034" x1="437.394" y1="949" x2="368.219" y2="648.252" gradientUnits="userSpaceOnUse">
<stop offset="0.005" stop-color="#68A7C2" stop-opacity="0"/>
<stop offset="1" stop-color="#68A7C2"/>
</linearGradient>
<linearGradient id="paint1_linear_3001_9034" x1="473.394" y1="317" x2="904.815" y2="736.568" gradientUnits="userSpaceOnUse">
<stop offset="0" stop-color="#28A7B8"/>
<stop offset="1" stop-color="#5DD5DC" stop-opacity="0"/>
</linearGradient>
<linearGradient id="paint2_linear_3001_9034" x1="1218.92" y1="612.272" x2="1300.24" y2="923.463" gradientUnits="userSpaceOnUse">
<stop offset="0" stop-color="#5654CF"/>
<stop offset="1" stop-color="#5168B8" stop-opacity="0"/>
</linearGradient>
</defs>
</svg>
