<svg width="1920" height="431" viewBox="0 0 1920 431" fill="none" xmlns="http://www.w3.org/2000/svg">
<path opacity="0.86" d="M941.669 186.964H657.132" stroke="url(#paint0_linear_6026_19819)" stroke-width="13.7142"/>
<path opacity="0.86" d="M946.911 87.1499H893.848C864.713 87.1499 838.758 105.562 829.13 133.06L825.959 142.115C816.331 169.613 790.377 188.025 761.241 188.025H614.628" stroke="url(#paint1_linear_6026_19819)" stroke-width="14.3999"/>
<path opacity="0.85" d="M944.969 287.839H917.037C897.044 287.839 879.145 275.447 872.108 256.734L857.969 219.132C850.932 200.418 833.033 188.026 813.041 188.026H720.795" stroke="url(#paint2_linear_6026_19819)" stroke-width="9.59993"/>
<path opacity="0.17" d="M1917.02 5H990.61C961.914 5 936.253 22.8685 926.298 49.7824L892.477 141.218C882.522 168.131 856.861 186 828.165 186H563.273" stroke="url(#paint3_linear_6026_19819)" stroke-width="9.59993"/>
<path opacity="0.17" d="M1920 428H875.979C845.202 428 818.196 407.494 809.928 377.849L774.678 251.447C766.411 221.802 739.404 201.296 708.628 201.296H5.46875" stroke="url(#paint4_linear_6026_19819)" stroke-width="5.48567"/>
<path d="M944.97 385.53L896.932 385.53C866.196 385.53 839.215 365.077 830.911 335.484L803.877 239.135C795.574 209.542 768.592 189.089 737.856 189.089H0" stroke="url(#paint5_linear_6026_19819)" stroke-width="20.5713"/>
<path d="M970.338 156.8C970.338 155.588 970.758 154.568 971.586 153.74C972.414 152.912 973.422 152.504 974.634 152.504C975.846 152.504 976.866 152.912 977.694 153.728C978.522 154.544 978.93 155.564 978.93 156.8C978.93 158.024 978.51 159.044 977.682 159.86C976.854 160.688 975.834 161.096 974.634 161.096C973.434 161.096 972.414 160.688 971.586 159.872C970.758 159.056 970.338 158.036 970.338 156.8ZM971.85 156.8C971.85 157.652 972.126 158.348 972.666 158.888C973.206 159.428 973.866 159.704 974.634 159.704C975.426 159.704 976.086 159.428 976.626 158.888C977.154 158.348 977.418 157.652 977.418 156.8C977.418 155.948 977.142 155.252 976.602 154.712C976.05 154.172 975.39 153.896 974.634 153.896C973.866 153.896 973.206 154.16 972.666 154.7C972.126 155.24 971.85 155.948 971.85 156.8ZM985.305 152.084L985.533 153.32C985.185 153.464 984.597 153.56 983.793 153.62C982.977 153.68 982.413 153.776 982.113 153.908C981.405 154.244 981.009 154.94 980.949 155.996C981.393 155.36 982.161 155.036 983.229 155.036C984.069 155.036 984.765 155.288 985.305 155.792C985.845 156.308 986.109 157.016 986.109 157.928C986.109 158.852 985.821 159.62 985.233 160.22C984.645 160.82 983.889 161.12 982.941 161.12C980.889 161.12 979.593 159.764 979.593 157.376C979.593 156.14 979.737 155.156 980.025 154.412C980.313 153.668 980.841 153.104 981.621 152.708C982.041 152.504 982.677 152.372 983.553 152.312C984.417 152.252 985.005 152.18 985.305 152.084ZM981.009 157.604V157.736C981.009 158.336 981.189 158.84 981.549 159.236C981.909 159.644 982.365 159.848 982.929 159.848C984.033 159.848 984.693 159.104 984.693 158.012C984.693 156.968 984.069 156.308 982.965 156.308C982.005 156.308 981.309 156.848 981.009 157.604ZM991.719 159.008L992.559 159.836C991.923 160.688 991.083 161.108 990.027 161.108C989.019 161.108 988.215 160.808 987.603 160.22C986.991 159.632 986.679 158.852 986.679 157.868C986.679 156.92 986.967 156.14 987.531 155.528C988.095 154.916 988.875 154.616 989.883 154.616C990.735 154.616 991.431 154.88 991.983 155.396C992.535 155.924 992.811 156.62 992.811 157.472C992.811 157.676 992.787 157.976 992.739 158.348H988.107C988.215 159.308 988.983 159.836 990.051 159.836C990.759 159.836 991.311 159.56 991.719 159.008ZM989.823 155.852C988.911 155.852 988.299 156.344 988.119 157.16H991.395C991.287 156.308 990.723 155.852 989.823 155.852ZM998.338 158.948L999.31 159.572C998.818 160.544 997.75 161.108 996.634 161.108C995.626 161.108 994.81 160.808 994.198 160.22C993.586 159.632 993.274 158.84 993.274 157.868C993.274 156.932 993.574 156.152 994.186 155.54C994.798 154.928 995.59 154.616 996.562 154.616C997.81 154.616 998.818 155.18 999.238 156.032L998.218 156.704C997.81 156.164 997.282 155.888 996.622 155.888C995.482 155.888 994.69 156.704 994.69 157.868C994.69 158.432 994.882 158.9 995.266 159.272C995.638 159.644 996.142 159.836 996.766 159.836C997.426 159.836 997.942 159.536 998.338 158.948ZM1005.56 161H1004.2V156.032H1001.27V161H999.899V154.76H1005.56V161ZM1011.48 159.008L1012.32 159.836C1011.68 160.688 1010.84 161.108 1009.79 161.108C1008.78 161.108 1007.98 160.808 1007.36 160.22C1006.75 159.632 1006.44 158.852 1006.44 157.868C1006.44 156.92 1006.73 156.14 1007.29 155.528C1007.86 154.916 1008.64 154.616 1009.64 154.616C1010.5 154.616 1011.19 154.88 1011.74 155.396C1012.3 155.924 1012.57 156.62 1012.57 157.472C1012.57 157.676 1012.55 157.976 1012.5 158.348H1007.87C1007.98 159.308 1008.74 159.836 1009.81 159.836C1010.52 159.836 1011.07 159.56 1011.48 159.008ZM1009.58 155.852C1008.67 155.852 1008.06 156.344 1007.88 157.16H1011.16C1011.05 156.308 1010.48 155.852 1009.58 155.852ZM1017.35 154.76H1018.72V161H1017.35V158.552C1016.93 158.936 1016.37 159.128 1015.67 159.128C1014 159.128 1013.16 158.3 1013.16 156.644V154.76H1014.53V156.176C1014.53 157.388 1014.95 157.856 1015.97 157.856C1016.51 157.856 1017.06 157.556 1017.35 157.172V154.76ZM1024.62 159.008L1025.46 159.836C1024.83 160.688 1023.99 161.108 1022.93 161.108C1021.92 161.108 1021.12 160.808 1020.51 160.22C1019.9 159.632 1019.58 158.852 1019.58 157.868C1019.58 156.92 1019.87 156.14 1020.44 155.528C1021 154.916 1021.78 154.616 1022.79 154.616C1023.64 154.616 1024.34 154.88 1024.89 155.396C1025.44 155.924 1025.72 156.62 1025.72 157.472C1025.72 157.676 1025.69 157.976 1025.64 158.348H1021.01C1021.12 159.308 1021.89 159.836 1022.96 159.836C1023.66 159.836 1024.22 159.56 1024.62 159.008ZM1022.73 155.852C1021.82 155.852 1021.2 156.344 1021.02 157.16H1024.3C1024.19 156.308 1023.63 155.852 1022.73 155.852ZM1032.32 161H1030.95V158.468H1027.95V161H1026.58V154.76H1027.95V157.208H1030.95V154.76H1032.32V161ZM1037.98 156.944L1034.67 161H1033.48V154.76H1034.85V158.828L1038.16 154.76H1039.35V161H1037.98V156.944ZM1045.26 159.008L1046.1 159.836C1045.47 160.688 1044.63 161.108 1043.57 161.108C1042.56 161.108 1041.76 160.808 1041.15 160.22C1040.54 159.632 1040.22 158.852 1040.22 157.868C1040.22 156.92 1040.51 156.14 1041.08 155.528C1041.64 154.916 1042.42 154.616 1043.43 154.616C1044.28 154.616 1044.98 154.88 1045.53 155.396C1046.08 155.924 1046.36 156.62 1046.36 157.472C1046.36 157.676 1046.33 157.976 1046.28 158.348H1041.65C1041.76 159.308 1042.53 159.836 1043.6 159.836C1044.3 159.836 1044.86 159.56 1045.26 159.008ZM1043.37 155.852C1042.46 155.852 1041.84 156.344 1041.66 157.16H1044.94C1044.83 156.308 1044.27 155.852 1043.37 155.852ZM973.53 175H970.578V168.76H973.242C975.018 168.76 975.87 169.228 975.87 170.416C975.87 170.92 975.642 171.34 975.174 171.688C975.762 171.916 976.05 172.396 976.05 173.14C976.05 174.352 975.126 175 973.53 175ZM973.434 172.42H971.946V173.764H973.398C974.226 173.764 974.634 173.548 974.634 173.104C974.634 172.624 974.262 172.42 973.434 172.42ZM973.206 169.996H971.946V171.232H973.554C974.154 171.232 974.454 171.016 974.454 170.596C974.454 170.116 974.07 169.996 973.206 169.996ZM976.604 171.868C976.604 170.92 976.916 170.14 977.54 169.528C978.152 168.916 978.956 168.616 979.94 168.616C980.924 168.616 981.728 168.916 982.352 169.528C982.976 170.14 983.288 170.92 983.288 171.868C983.288 172.804 982.976 173.572 982.352 174.184C981.728 174.796 980.924 175.108 979.94 175.108C978.968 175.108 978.176 174.796 977.552 174.184C976.916 173.572 976.604 172.804 976.604 171.868ZM978.02 171.868C978.02 172.432 978.2 172.9 978.56 173.272C978.908 173.644 979.376 173.836 979.94 173.836C981.092 173.836 981.872 173.056 981.872 171.868C981.872 171.28 981.692 170.8 981.32 170.428C980.948 170.068 980.492 169.888 979.94 169.888C978.824 169.888 978.02 170.668 978.02 171.868ZM986.495 175.144C985.163 175.144 984.203 174.64 983.615 173.632L984.647 172.912C985.031 173.572 985.655 173.908 986.507 173.908C987.335 173.908 987.899 173.572 987.899 173.044C987.899 172.624 987.563 172.42 986.903 172.42H985.523V171.232H986.831C987.347 171.232 987.683 170.968 987.683 170.572C987.683 170.08 987.167 169.816 986.495 169.816C985.643 169.816 985.163 170.116 984.731 170.656L983.759 170.008C984.227 169.204 985.175 168.58 986.567 168.58C988.163 168.58 989.099 169.288 989.099 170.38C989.099 170.896 988.895 171.304 988.487 171.628C989.039 171.952 989.315 172.42 989.315 173.032C989.315 173.68 989.051 174.196 988.523 174.568C987.995 174.952 987.323 175.144 986.495 175.144ZM991.52 175H990.152V168.76H991.376L993.56 171.592L995.744 168.76H996.872V175H995.504V171.124L993.572 173.632L991.52 171.088V175ZM997.748 171.868C997.748 170.92 998.06 170.14 998.684 169.528C999.296 168.916 1000.1 168.616 1001.08 168.616C1002.07 168.616 1002.87 168.916 1003.5 169.528C1004.12 170.14 1004.43 170.92 1004.43 171.868C1004.43 172.804 1004.12 173.572 1003.5 174.184C1002.87 174.796 1002.07 175.108 1001.08 175.108C1000.11 175.108 999.32 174.796 998.696 174.184C998.06 173.572 997.748 172.804 997.748 171.868ZM999.164 171.868C999.164 172.432 999.344 172.9 999.704 173.272C1000.05 173.644 1000.52 173.836 1001.08 173.836C1002.24 173.836 1003.02 173.056 1003.02 171.868C1003.02 171.28 1002.84 170.8 1002.46 170.428C1002.09 170.068 1001.64 169.888 1001.08 169.888C999.968 169.888 999.164 170.668 999.164 171.868ZM1004.2 175L1006.8 171.604L1004.23 168.76H1005.93L1008.12 171.196V168.76H1009.48V171.208L1011.72 168.76H1013.37L1010.78 171.592L1013.43 175H1011.76L1009.75 172.36L1009.48 172.636V175H1008.12V172.648L1007.83 172.348L1005.84 175H1004.2ZM1019.62 175H1018.25V172.468H1015.25V175H1013.89V168.76H1015.25V171.208H1018.25V168.76H1019.62V175ZM1020.5 171.868C1020.5 170.92 1020.81 170.14 1021.43 169.528C1022.05 168.916 1022.85 168.616 1023.83 168.616C1024.82 168.616 1025.62 168.916 1026.25 169.528C1026.87 170.14 1027.18 170.92 1027.18 171.868C1027.18 172.804 1026.87 173.572 1026.25 174.184C1025.62 174.796 1024.82 175.108 1023.83 175.108C1022.86 175.108 1022.07 174.796 1021.45 174.184C1020.81 173.572 1020.5 172.804 1020.5 171.868ZM1021.91 171.868C1021.91 172.432 1022.09 172.9 1022.45 173.272C1022.8 173.644 1023.27 173.836 1023.83 173.836C1024.99 173.836 1025.77 173.056 1025.77 171.868C1025.77 171.28 1025.59 170.8 1025.21 170.428C1024.84 170.068 1024.39 169.888 1023.83 169.888C1022.72 169.888 1021.91 170.668 1021.91 171.868ZM1032.82 172.948L1033.8 173.572C1033.3 174.544 1032.24 175.108 1031.12 175.108C1030.11 175.108 1029.3 174.808 1028.68 174.22C1028.07 173.632 1027.76 172.84 1027.76 171.868C1027.76 170.932 1028.06 170.152 1028.67 169.54C1029.28 168.928 1030.08 168.616 1031.05 168.616C1032.3 168.616 1033.3 169.18 1033.72 170.032L1032.7 170.704C1032.3 170.164 1031.77 169.888 1031.11 169.888C1029.97 169.888 1029.18 170.704 1029.18 171.868C1029.18 172.432 1029.37 172.9 1029.75 173.272C1030.12 173.644 1030.63 173.836 1031.25 173.836C1031.91 173.836 1032.43 173.536 1032.82 172.948ZM1036.13 170.032H1033.88V168.76H1039.76V170.032H1037.5V175H1036.13V170.032ZM1044.81 170.944L1041.5 175H1040.31V168.76H1041.68V172.828L1044.99 168.76H1046.18V175H1044.81V170.944ZM971.274 190.428H970.002V187.728H970.722C971.19 186.9 971.43 185.604 971.43 183.84V182.76H976.206V187.728H977.082V190.428H975.81V189H971.274V190.428ZM974.838 184.032H972.726V184.548C972.726 185.868 972.534 186.924 972.138 187.728H974.838V184.032ZM983.33 189H981.962V184.032H979.754V185.004C979.754 188.328 978.674 189.168 977.126 189.048L977.018 187.776C977.666 187.848 978.41 187.428 978.41 184.536V182.76H983.33V189ZM987.111 182.76H989.679V189H988.311V186.948H987.147L985.563 189H983.967L985.767 186.72C984.891 186.516 984.339 185.784 984.339 184.824C984.339 183.612 985.191 182.76 987.111 182.76ZM985.755 184.872C985.755 185.352 986.187 185.676 986.955 185.676H988.311V184.032H986.991C986.163 184.032 985.755 184.308 985.755 184.872ZM993.26 185.868C993.26 184.92 993.572 184.14 994.196 183.528C994.808 182.916 995.612 182.616 996.596 182.616C997.58 182.616 998.384 182.916 999.008 183.528C999.632 184.14 999.944 184.92 999.944 185.868C999.944 186.804 999.632 187.572 999.008 188.184C998.384 188.796 997.58 189.108 996.596 189.108C995.624 189.108 994.832 188.796 994.208 188.184C993.572 187.572 993.26 186.804 993.26 185.868ZM994.676 185.868C994.676 186.432 994.856 186.9 995.216 187.272C995.564 187.644 996.032 187.836 996.596 187.836C997.748 187.836 998.528 187.056 998.528 185.868C998.528 185.28 998.348 184.8 997.976 184.428C997.604 184.068 997.148 183.888 996.596 183.888C995.48 183.888 994.676 184.668 994.676 185.868ZM1006.27 180.084L1006.5 181.32C1006.15 181.464 1005.56 181.56 1004.76 181.62C1003.94 181.68 1003.38 181.776 1003.08 181.908C1002.37 182.244 1001.97 182.94 1001.91 183.996C1002.36 183.36 1003.13 183.036 1004.19 183.036C1005.03 183.036 1005.73 183.288 1006.27 183.792C1006.81 184.308 1007.07 185.016 1007.07 185.928C1007.07 186.852 1006.79 187.62 1006.2 188.22C1005.61 188.82 1004.85 189.12 1003.91 189.12C1001.85 189.12 1000.56 187.764 1000.56 185.376C1000.56 184.14 1000.7 183.156 1000.99 182.412C1001.28 181.668 1001.81 181.104 1002.59 180.708C1003.01 180.504 1003.64 180.372 1004.52 180.312C1005.38 180.252 1005.97 180.18 1006.27 180.084ZM1001.97 185.604V185.736C1001.97 186.336 1002.15 186.84 1002.51 187.236C1002.87 187.644 1003.33 187.848 1003.89 187.848C1005 187.848 1005.66 187.104 1005.66 186.012C1005.66 184.968 1005.03 184.308 1003.93 184.308C1002.97 184.308 1002.27 184.848 1001.97 185.604ZM1007.94 191.328L1008.48 190.164C1008.56 190.212 1008.65 190.236 1008.75 190.236C1009.13 190.236 1009.46 189.888 1009.74 189.192L1009.95 188.628L1006.88 182.76H1008.47L1010.61 186.972L1012.27 182.76H1013.73L1011.29 188.82C1010.87 189.84 1010.48 190.536 1010.12 190.932C1009.75 191.316 1009.32 191.508 1008.8 191.508C1008.47 191.508 1008.18 191.448 1007.94 191.328ZM1018.04 182.76H1019.41V189H1018.04V186.552C1017.62 186.936 1017.06 187.128 1016.36 187.128C1014.69 187.128 1013.85 186.3 1013.85 184.644V182.76H1015.22V184.176C1015.22 185.388 1015.64 185.856 1016.66 185.856C1017.2 185.856 1017.75 185.556 1018.04 185.172V182.76ZM1025.31 187.008L1026.15 187.836C1025.52 188.688 1024.68 189.108 1023.62 189.108C1022.61 189.108 1021.81 188.808 1021.2 188.22C1020.58 187.632 1020.27 186.852 1020.27 185.868C1020.27 184.92 1020.56 184.14 1021.12 183.528C1021.69 182.916 1022.47 182.616 1023.48 182.616C1024.33 182.616 1025.02 182.88 1025.58 183.396C1026.13 183.924 1026.4 184.62 1026.4 185.472C1026.4 185.676 1026.38 185.976 1026.33 186.348H1021.7C1021.81 187.308 1022.58 187.836 1023.64 187.836C1024.35 187.836 1024.9 187.56 1025.31 187.008ZM1023.42 183.852C1022.5 183.852 1021.89 184.344 1021.71 185.16H1024.99C1024.88 184.308 1024.32 183.852 1023.42 183.852ZM1033.01 189H1031.64V186.468H1028.64V189H1027.27V182.76H1028.64V185.208H1031.64V182.76H1033.01V189ZM1038.67 184.944L1035.36 189H1034.17V182.76H1035.54V186.828L1038.85 182.76H1040.04V189H1038.67V184.944ZM1043.83 182.76H1046.4V189H1045.03V186.948H1043.86L1042.28 189H1040.68L1042.48 186.72C1041.61 186.516 1041.06 185.784 1041.06 184.824C1041.06 183.612 1041.91 182.76 1043.83 182.76ZM1042.47 184.872C1042.47 185.352 1042.9 185.676 1043.67 185.676H1045.03V184.032H1043.71C1042.88 184.032 1042.47 184.308 1042.47 184.872ZM1048.34 189C1047.81 189.06 1047.46 188.592 1047.46 188.172C1047.46 187.68 1047.84 187.248 1048.42 187.248C1049.13 187.248 1049.42 187.836 1049.42 188.568C1049.42 189.096 1049.23 189.564 1048.86 189.96C1048.48 190.356 1048.06 190.608 1047.6 190.704L1047.26 189.912C1047.46 189.876 1047.69 189.756 1047.94 189.564C1048.18 189.36 1048.32 189.18 1048.34 189ZM971.946 203H970.578V196.76H971.946V199.292L974.646 196.76H976.434L973.398 199.58L976.542 203H974.79L972.402 200.432L971.946 200.876V203ZM977.494 198.548L976.822 197.54C977.41 196.964 978.418 196.616 979.438 196.616C981.07 196.616 981.994 197.552 981.994 199.184V203H980.626V202.316C980.17 202.82 979.522 203.072 978.694 203.072C977.314 203.072 976.426 202.304 976.426 201.104C976.426 199.772 977.578 199.124 979.342 199.124C979.858 199.124 980.29 199.184 980.626 199.292C980.638 198.344 980.254 197.888 979.282 197.888C978.67 197.888 978.07 198.104 977.494 198.548ZM978.994 201.884C979.702 201.884 980.254 201.596 980.626 201.032V200.432C980.29 200.324 979.906 200.264 979.486 200.264C978.394 200.264 977.842 200.54 977.842 201.092C977.842 201.584 978.286 201.884 978.994 201.884ZM984.48 205.4H983.112V196.76H984.48V197.324C984.852 196.856 985.536 196.616 986.208 196.616C987.132 196.616 987.876 196.904 988.416 197.492C988.956 198.08 989.232 198.836 989.232 199.772C989.232 200.744 988.944 201.536 988.368 202.16C987.792 202.796 987.036 203.108 986.112 203.108C985.308 203.108 984.756 202.94 984.48 202.592V205.4ZM986.064 197.888C985.308 197.888 984.756 198.32 984.48 198.908V201.068C984.78 201.584 985.272 201.836 985.956 201.836C987.072 201.836 987.816 201.044 987.816 199.88C987.816 198.632 987.156 197.888 986.064 197.888ZM992.697 203H990.093V196.76H991.461V198.572H992.781C994.653 198.572 995.421 199.46 995.421 200.768C995.421 202.052 994.581 203 992.697 203ZM992.661 199.844H991.461V201.728H992.649C993.609 201.728 994.005 201.416 994.005 200.78C994.005 200.156 993.561 199.844 992.661 199.844ZM1000.81 201.008L1001.65 201.836C1001.01 202.688 1000.17 203.108 999.115 203.108C998.107 203.108 997.303 202.808 996.691 202.22C996.079 201.632 995.767 200.852 995.767 199.868C995.767 198.92 996.055 198.14 996.619 197.528C997.183 196.916 997.963 196.616 998.971 196.616C999.823 196.616 1000.52 196.88 1001.07 197.396C1001.62 197.924 1001.9 198.62 1001.9 199.472C1001.9 199.676 1001.88 199.976 1001.83 200.348H997.195C997.303 201.308 998.071 201.836 999.139 201.836C999.847 201.836 1000.4 201.56 1000.81 201.008ZM998.911 197.852C997.999 197.852 997.387 198.344 997.207 199.16H1000.48C1000.38 198.308 999.811 197.852 998.911 197.852ZM1004.14 205.4H1002.77V196.76H1004.14V197.324C1004.51 196.856 1005.19 196.616 1005.86 196.616C1006.79 196.616 1007.53 196.904 1008.07 197.492C1008.61 198.08 1008.89 198.836 1008.89 199.772C1008.89 200.744 1008.6 201.536 1008.02 202.16C1007.45 202.796 1006.69 203.108 1005.77 203.108C1004.96 203.108 1004.41 202.94 1004.14 202.592V205.4ZM1005.72 197.888C1004.96 197.888 1004.41 198.32 1004.14 198.908V201.068C1004.44 201.584 1004.93 201.836 1005.61 201.836C1006.73 201.836 1007.47 201.044 1007.47 199.88C1007.47 198.632 1006.81 197.888 1005.72 197.888ZM1015.49 203H1014.12V200.468H1011.12V203H1009.75V196.76H1011.12V199.208H1014.12V196.76H1015.49V203ZM1016.36 199.868C1016.36 198.92 1016.67 198.14 1017.3 197.528C1017.91 196.916 1018.71 196.616 1019.7 196.616C1020.68 196.616 1021.48 196.916 1022.11 197.528C1022.73 198.14 1023.04 198.92 1023.04 199.868C1023.04 200.804 1022.73 201.572 1022.11 202.184C1021.48 202.796 1020.68 203.108 1019.7 203.108C1018.72 203.108 1017.93 202.796 1017.31 202.184C1016.67 201.572 1016.36 200.804 1016.36 199.868ZM1017.78 199.868C1017.78 200.432 1017.96 200.9 1018.32 201.272C1018.66 201.644 1019.13 201.836 1019.7 201.836C1020.85 201.836 1021.63 201.056 1021.63 199.868C1021.63 199.28 1021.45 198.8 1021.08 198.428C1020.7 198.068 1020.25 197.888 1019.7 197.888C1018.58 197.888 1017.78 198.668 1017.78 199.868ZM1025.28 203H1023.91V196.76H1028.62V198.032H1025.28V203ZM1028.67 199.868C1028.67 198.92 1028.98 198.14 1029.61 197.528C1030.22 196.916 1031.02 196.616 1032.01 196.616C1032.99 196.616 1033.8 196.916 1034.42 197.528C1035.04 198.14 1035.36 198.92 1035.36 199.868C1035.36 200.804 1035.04 201.572 1034.42 202.184C1033.8 202.796 1032.99 203.108 1032.01 203.108C1031.04 203.108 1030.24 202.796 1029.62 202.184C1028.98 201.572 1028.67 200.804 1028.67 199.868ZM1030.09 199.868C1030.09 200.432 1030.27 200.9 1030.63 201.272C1030.98 201.644 1031.44 201.836 1032.01 201.836C1033.16 201.836 1033.94 201.056 1033.94 199.868C1033.94 199.28 1033.76 198.8 1033.39 198.428C1033.02 198.068 1032.56 197.888 1032.01 197.888C1030.89 197.888 1030.09 198.668 1030.09 199.868ZM1040.31 205.4H1038.94V196.76H1040.31V197.324C1040.68 196.856 1041.36 196.616 1042.03 196.616C1042.96 196.616 1043.7 196.904 1044.24 197.492C1044.78 198.08 1045.06 198.836 1045.06 199.772C1045.06 200.744 1044.77 201.536 1044.19 202.16C1043.62 202.796 1042.86 203.108 1041.94 203.108C1041.13 203.108 1040.58 202.94 1040.31 202.592V205.4ZM1041.89 197.888C1041.13 197.888 1040.58 198.32 1040.31 198.908V201.068C1040.61 201.584 1041.1 201.836 1041.78 201.836C1042.9 201.836 1043.64 201.044 1043.64 199.88C1043.64 198.632 1042.98 197.888 1041.89 197.888ZM1046.59 198.548L1045.92 197.54C1046.51 196.964 1047.52 196.616 1048.54 196.616C1050.17 196.616 1051.09 197.552 1051.09 199.184V203H1049.72V202.316C1049.27 202.82 1048.62 203.072 1047.79 203.072C1046.41 203.072 1045.52 202.304 1045.52 201.104C1045.52 199.772 1046.68 199.124 1048.44 199.124C1048.96 199.124 1049.39 199.184 1049.72 199.292C1049.74 198.344 1049.35 197.888 1048.38 197.888C1047.77 197.888 1047.17 198.104 1046.59 198.548ZM1048.09 201.884C1048.8 201.884 1049.35 201.596 1049.72 201.032V200.432C1049.39 200.324 1049 200.264 1048.58 200.264C1047.49 200.264 1046.94 200.54 1046.94 201.092C1046.94 201.584 1047.38 201.884 1048.09 201.884ZM1054.55 203.144C1053.22 203.144 1052.26 202.64 1051.67 201.632L1052.7 200.912C1053.09 201.572 1053.71 201.908 1054.56 201.908C1055.39 201.908 1055.95 201.572 1055.95 201.044C1055.95 200.624 1055.62 200.42 1054.96 200.42H1053.58V199.232H1054.89C1055.4 199.232 1055.74 198.968 1055.74 198.572C1055.74 198.08 1055.22 197.816 1054.55 197.816C1053.7 197.816 1053.22 198.116 1052.79 198.656L1051.81 198.008C1052.28 197.204 1053.23 196.58 1054.62 196.58C1056.22 196.58 1057.15 197.288 1057.15 198.38C1057.15 198.896 1056.95 199.304 1056.54 199.628C1057.09 199.952 1057.37 200.42 1057.37 201.032C1057.37 201.68 1057.11 202.196 1056.58 202.568C1056.05 202.952 1055.38 203.144 1054.55 203.144ZM1061.16 203H1058.21V196.76H1060.87C1062.65 196.76 1063.5 197.228 1063.5 198.416C1063.5 198.92 1063.27 199.34 1062.8 199.688C1063.39 199.916 1063.68 200.396 1063.68 201.14C1063.68 202.352 1062.75 203 1061.16 203ZM1061.06 200.42H1059.57V201.764H1061.03C1061.85 201.764 1062.26 201.548 1062.26 201.104C1062.26 200.624 1061.89 200.42 1061.06 200.42ZM1060.83 197.996H1059.57V199.232H1061.18C1061.78 199.232 1062.08 199.016 1062.08 198.596C1062.08 198.116 1061.7 197.996 1060.83 197.996ZM1069.02 198.944L1065.71 203H1064.52V196.76H1065.89V200.828L1069.2 196.76H1070.39V203H1069.02V198.944ZM1073.21 198.032H1070.95V196.76H1076.83V198.032H1074.57V203H1073.21V198.032ZM1081.88 198.944L1078.57 203H1077.38V196.76H1078.75V200.828L1082.06 196.76H1083.25V203H1081.88V198.944ZM1087.04 196.76H1089.61V203H1088.24V200.948H1087.07L1085.49 203H1083.89L1085.69 200.72C1084.82 200.516 1084.27 199.784 1084.27 198.824C1084.27 197.612 1085.12 196.76 1087.04 196.76ZM1085.68 198.872C1085.68 199.352 1086.11 199.676 1086.88 199.676H1088.24V198.032H1086.92C1086.09 198.032 1085.68 198.308 1085.68 198.872ZM975.078 212.944L971.766 217H970.578V210.76H971.946V214.828L975.258 210.76H976.446V217H975.078V212.944ZM981.691 217H980.323V210.76H985.027V212.032H981.691V217ZM985.083 213.868C985.083 212.92 985.395 212.14 986.019 211.528C986.631 210.916 987.435 210.616 988.419 210.616C989.403 210.616 990.207 210.916 990.831 211.528C991.455 212.14 991.767 212.92 991.767 213.868C991.767 214.804 991.455 215.572 990.831 216.184C990.207 216.796 989.403 217.108 988.419 217.108C987.447 217.108 986.655 216.796 986.031 216.184C985.395 215.572 985.083 214.804 985.083 213.868ZM986.499 213.868C986.499 214.432 986.679 214.9 987.039 215.272C987.387 215.644 987.855 215.836 988.419 215.836C989.571 215.836 990.351 215.056 990.351 213.868C990.351 213.28 990.171 212.8 989.799 212.428C989.427 212.068 988.971 211.888 988.419 211.888C987.303 211.888 986.499 212.668 986.499 213.868ZM994.002 219.4H992.634V210.76H994.002V211.324C994.374 210.856 995.058 210.616 995.73 210.616C996.654 210.616 997.398 210.904 997.938 211.492C998.478 212.08 998.754 212.836 998.754 213.772C998.754 214.744 998.466 215.536 997.89 216.16C997.314 216.796 996.558 217.108 995.634 217.108C994.83 217.108 994.278 216.94 994.002 216.592V219.4ZM995.586 211.888C994.83 211.888 994.278 212.32 994.002 212.908V215.068C994.302 215.584 994.794 215.836 995.478 215.836C996.594 215.836 997.338 215.044 997.338 213.88C997.338 212.632 996.678 211.888 995.586 211.888ZM1004.12 212.944L1000.8 217H999.615V210.76H1000.98V214.828L1004.3 210.76H1005.48V217H1004.12V212.944ZM1008.98 217.144C1007.65 217.144 1006.69 216.64 1006.1 215.632L1007.14 214.912C1007.52 215.572 1008.14 215.908 1009 215.908C1009.82 215.908 1010.39 215.572 1010.39 215.044C1010.39 214.624 1010.05 214.42 1009.39 214.42H1008.01V213.232H1009.32C1009.84 213.232 1010.17 212.968 1010.17 212.572C1010.17 212.08 1009.66 211.816 1008.98 211.816C1008.13 211.816 1007.65 212.116 1007.22 212.656L1006.25 212.008C1006.72 211.204 1007.66 210.58 1009.06 210.58C1010.65 210.58 1011.59 211.288 1011.59 212.38C1011.59 212.896 1011.38 213.304 1010.98 213.628C1011.53 213.952 1011.8 214.42 1011.8 215.032C1011.8 215.68 1011.54 216.196 1011.01 216.568C1010.48 216.952 1009.81 217.144 1008.98 217.144ZM1012.35 213.868C1012.35 212.92 1012.66 212.14 1013.29 211.528C1013.9 210.916 1014.7 210.616 1015.69 210.616C1016.67 210.616 1017.48 210.916 1018.1 211.528C1018.72 212.14 1019.04 212.92 1019.04 213.868C1019.04 214.804 1018.72 215.572 1018.1 216.184C1017.48 216.796 1016.67 217.108 1015.69 217.108C1014.72 217.108 1013.92 216.796 1013.3 216.184C1012.66 215.572 1012.35 214.804 1012.35 213.868ZM1013.77 213.868C1013.77 214.432 1013.95 214.9 1014.31 215.272C1014.66 215.644 1015.12 215.836 1015.69 215.836C1016.84 215.836 1017.62 215.056 1017.62 213.868C1017.62 213.28 1017.44 212.8 1017.07 212.428C1016.7 212.068 1016.24 211.888 1015.69 211.888C1014.57 211.888 1013.77 212.668 1013.77 213.868ZM1025.64 217H1024.27V214.468H1021.27V217H1019.9V210.76H1021.27V213.208H1024.27V210.76H1025.64V217ZM1028.46 212.032H1026.2V210.76H1032.08V212.032H1029.83V217H1028.46V212.032ZM1033.31 212.548L1032.64 211.54C1033.22 210.964 1034.23 210.616 1035.25 210.616C1036.88 210.616 1037.81 211.552 1037.81 213.184V217H1036.44V216.316C1035.98 216.82 1035.34 217.072 1034.51 217.072C1033.13 217.072 1032.24 216.304 1032.24 215.104C1032.24 213.772 1033.39 213.124 1035.16 213.124C1035.67 213.124 1036.1 213.184 1036.44 213.292C1036.45 212.344 1036.07 211.888 1035.1 211.888C1034.48 211.888 1033.88 212.104 1033.31 212.548ZM1034.81 215.884C1035.52 215.884 1036.07 215.596 1036.44 215.032V214.432C1036.1 214.324 1035.72 214.264 1035.3 214.264C1034.21 214.264 1033.66 214.54 1033.66 215.092C1033.66 215.584 1034.1 215.884 1034.81 215.884ZM1044.61 217H1043.25V212.032H1041.04V213.004C1041.04 216.328 1039.96 217.168 1038.41 217.048L1038.3 215.776C1038.95 215.848 1039.69 215.428 1039.69 212.536V210.76H1044.61V217ZM1048.37 217H1045.77V210.76H1047.14V212.572H1048.46C1050.33 212.572 1051.1 213.46 1051.1 214.768C1051.1 216.052 1050.26 217 1048.37 217ZM1048.34 213.844H1047.14V215.728H1048.32C1049.28 215.728 1049.68 215.416 1049.68 214.78C1049.68 214.156 1049.24 213.844 1048.34 213.844ZM1057.58 217H1056.21V214.468H1053.21V217H1051.85V210.76H1053.21V213.208H1056.21V210.76H1057.58V217ZM1058.46 213.868C1058.46 212.92 1058.77 212.14 1059.39 211.528C1060.01 210.916 1060.81 210.616 1061.79 210.616C1062.78 210.616 1063.58 210.916 1064.21 211.528C1064.83 212.14 1065.14 212.92 1065.14 213.868C1065.14 214.804 1064.83 215.572 1064.21 216.184C1063.58 216.796 1062.78 217.108 1061.79 217.108C1060.82 217.108 1060.03 216.796 1059.41 216.184C1058.77 215.572 1058.46 214.804 1058.46 213.868ZM1059.87 213.868C1059.87 214.432 1060.05 214.9 1060.41 215.272C1060.76 215.644 1061.23 215.836 1061.79 215.836C1062.95 215.836 1063.73 215.056 1063.73 213.868C1063.73 213.28 1063.55 212.8 1063.17 212.428C1062.8 212.068 1062.35 211.888 1061.79 211.888C1060.68 211.888 1059.87 212.668 1059.87 213.868ZM1070.51 212.944L1067.2 217H1066.01V210.76H1067.38V214.828L1070.69 210.76H1071.88V217H1070.51V212.944ZM1066.96 208.108H1068.22C1068.23 208.6 1068.54 208.924 1069.08 208.924C1069.61 208.924 1069.9 208.6 1069.9 208.108H1071.14C1071.13 208.696 1070.94 209.152 1070.54 209.476C1070.15 209.812 1069.66 209.98 1069.08 209.98C1067.84 209.98 1066.97 209.308 1066.96 208.108ZM971.946 233.4H970.578V224.76H971.946V225.324C972.318 224.856 973.002 224.616 973.674 224.616C974.598 224.616 975.342 224.904 975.882 225.492C976.422 226.08 976.698 226.836 976.698 227.772C976.698 228.744 976.41 229.536 975.834 230.16C975.258 230.796 974.502 231.108 973.578 231.108C972.774 231.108 972.222 230.94 971.946 230.592V233.4ZM973.53 225.888C972.774 225.888 972.222 226.32 971.946 226.908V229.068C972.246 229.584 972.738 229.836 973.422 229.836C974.538 229.836 975.282 229.044 975.282 227.88C975.282 226.632 974.622 225.888 973.53 225.888ZM977.272 227.868C977.272 226.92 977.584 226.14 978.208 225.528C978.82 224.916 979.624 224.616 980.608 224.616C981.592 224.616 982.396 224.916 983.02 225.528C983.644 226.14 983.956 226.92 983.956 227.868C983.956 228.804 983.644 229.572 983.02 230.184C982.396 230.796 981.592 231.108 980.608 231.108C979.636 231.108 978.844 230.796 978.22 230.184C977.584 229.572 977.272 228.804 977.272 227.868ZM978.688 227.868C978.688 228.432 978.868 228.9 979.228 229.272C979.576 229.644 980.044 229.836 980.608 229.836C981.76 229.836 982.54 229.056 982.54 227.868C982.54 227.28 982.36 226.8 981.988 226.428C981.616 226.068 981.16 225.888 980.608 225.888C979.492 225.888 978.688 226.668 978.688 227.868ZM986.221 226.032H983.965V224.76H989.845V226.032H987.589V231H986.221V226.032ZM991.07 226.548L990.398 225.54C990.986 224.964 991.994 224.616 993.014 224.616C994.646 224.616 995.57 225.552 995.57 227.184V231H994.202V230.316C993.746 230.82 993.098 231.072 992.27 231.072C990.89 231.072 990.002 230.304 990.002 229.104C990.002 227.772 991.154 227.124 992.918 227.124C993.434 227.124 993.866 227.184 994.202 227.292C994.214 226.344 993.83 225.888 992.858 225.888C992.246 225.888 991.646 226.104 991.07 226.548ZM992.57 229.884C993.278 229.884 993.83 229.596 994.202 229.032V228.432C993.866 228.324 993.482 228.264 993.062 228.264C991.97 228.264 991.418 228.54 991.418 229.092C991.418 229.584 991.862 229.884 992.57 229.884ZM1001.88 231H996.688V224.76H998.056V229.728H1000.95V224.76H1002.32V229.728H1003.16V232.428H1001.88V231ZM1008.24 226.944L1004.93 231H1003.74V224.76H1005.11V228.828L1008.42 224.76H1009.61V231H1008.24V226.944ZM1015.27 226.944L1011.96 231H1010.77V224.76H1012.14V228.828L1015.45 224.76H1016.64V231H1015.27V226.944Z" fill="#3C525E"/>
<path d="M970.338 281.8C970.338 280.588 970.758 279.568 971.586 278.74C972.414 277.912 973.422 277.504 974.634 277.504C975.846 277.504 976.866 277.912 977.694 278.728C978.522 279.544 978.93 280.564 978.93 281.8C978.93 283.024 978.51 284.044 977.682 284.86C976.854 285.688 975.834 286.096 974.634 286.096C973.434 286.096 972.414 285.688 971.586 284.872C970.758 284.056 970.338 283.036 970.338 281.8ZM971.85 281.8C971.85 282.652 972.126 283.348 972.666 283.888C973.206 284.428 973.866 284.704 974.634 284.704C975.426 284.704 976.086 284.428 976.626 283.888C977.154 283.348 977.418 282.652 977.418 281.8C977.418 280.948 977.142 280.252 976.602 279.712C976.05 279.172 975.39 278.896 974.634 278.896C973.866 278.896 973.206 279.16 972.666 279.7C972.126 280.24 971.85 280.948 971.85 281.8ZM981.213 288.4H979.845V279.76H981.213V280.324C981.585 279.856 982.269 279.616 982.941 279.616C983.865 279.616 984.609 279.904 985.149 280.492C985.689 281.08 985.965 281.836 985.965 282.772C985.965 283.744 985.677 284.536 985.101 285.16C984.525 285.796 983.769 286.108 982.845 286.108C982.041 286.108 981.489 285.94 981.213 285.592V288.4ZM982.797 280.888C982.041 280.888 981.489 281.32 981.213 281.908V284.068C981.513 284.584 982.005 284.836 982.689 284.836C983.805 284.836 984.549 284.044 984.549 282.88C984.549 281.632 983.889 280.888 982.797 280.888ZM988.195 286H986.827V279.76H991.531V281.032H988.195V286ZM992.769 281.548L992.097 280.54C992.685 279.964 993.693 279.616 994.713 279.616C996.345 279.616 997.269 280.552 997.269 282.184V286H995.901V285.316C995.445 285.82 994.797 286.072 993.969 286.072C992.589 286.072 991.701 285.304 991.701 284.104C991.701 282.772 992.853 282.124 994.617 282.124C995.133 282.124 995.565 282.184 995.901 282.292C995.913 281.344 995.529 280.888 994.557 280.888C993.945 280.888 993.345 281.104 992.769 281.548ZM994.269 284.884C994.977 284.884 995.529 284.596 995.901 284.032V283.432C995.565 283.324 995.181 283.264 994.761 283.264C993.669 283.264 993.117 283.54 993.117 284.092C993.117 284.584 993.561 284.884 994.269 284.884ZM1004.12 286H1002.76V283.468H999.755V286H998.387V279.76H999.755V282.208H1002.76V279.76H1004.12V286ZM1009.79 281.944L1006.47 286H1005.29V279.76H1006.65V283.828L1009.97 279.76H1011.15V286H1009.79V281.944ZM1014.66 286.144C1013.32 286.144 1012.36 285.64 1011.78 284.632L1012.81 283.912C1013.19 284.572 1013.82 284.908 1014.67 284.908C1015.5 284.908 1016.06 284.572 1016.06 284.044C1016.06 283.624 1015.72 283.42 1015.06 283.42H1013.68V282.232H1014.99C1015.51 282.232 1015.84 281.968 1015.84 281.572C1015.84 281.08 1015.33 280.816 1014.66 280.816C1013.8 280.816 1013.32 281.116 1012.89 281.656L1011.92 281.008C1012.39 280.204 1013.34 279.58 1014.73 279.58C1016.32 279.58 1017.26 280.288 1017.26 281.38C1017.26 281.896 1017.06 282.304 1016.65 282.628C1017.2 282.952 1017.48 283.42 1017.48 284.032C1017.48 284.68 1017.21 285.196 1016.68 285.568C1016.16 285.952 1015.48 286.144 1014.66 286.144ZM1018.98 281.548L1018.31 280.54C1018.9 279.964 1019.91 279.616 1020.93 279.616C1022.56 279.616 1023.48 280.552 1023.48 282.184V286H1022.12V285.316C1021.66 285.82 1021.01 286.072 1020.18 286.072C1018.8 286.072 1017.92 285.304 1017.92 284.104C1017.92 282.772 1019.07 282.124 1020.83 282.124C1021.35 282.124 1021.78 282.184 1022.12 282.292C1022.13 281.344 1021.74 280.888 1020.77 280.888C1020.16 280.888 1019.56 281.104 1018.98 281.548ZM1020.48 284.884C1021.19 284.884 1021.74 284.596 1022.12 284.032V283.432C1021.78 283.324 1021.4 283.264 1020.98 283.264C1019.88 283.264 1019.33 283.54 1019.33 284.092C1019.33 284.584 1019.78 284.884 1020.48 284.884ZM1029.8 286H1024.6V279.76H1025.97V284.728H1028.86V279.76H1030.23V284.728H1031.07V287.428H1029.8V286ZM1036.15 281.944L1032.84 286H1031.65V279.76H1033.02V283.828L1036.33 279.76H1037.52V286H1036.15V281.944ZM1041.31 279.76H1043.88V286H1042.51V283.948H1041.35L1039.76 286H1038.17L1039.97 283.72C1039.09 283.516 1038.54 282.784 1038.54 281.824C1038.54 280.612 1039.39 279.76 1041.31 279.76ZM1039.96 281.872C1039.96 282.352 1040.39 282.676 1041.16 282.676H1042.51V281.032H1041.19C1040.36 281.032 1039.96 281.308 1039.96 281.872ZM1048.01 288.328L1048.55 287.164C1048.64 287.212 1048.72 287.236 1048.83 287.236C1049.2 287.236 1049.54 286.888 1049.81 286.192L1050.03 285.628L1046.96 279.76H1048.54L1050.69 283.972L1052.34 279.76H1053.81L1051.36 285.82C1050.94 286.84 1050.56 287.536 1050.2 287.932C1049.82 288.316 1049.39 288.508 1048.88 288.508C1048.54 288.508 1048.25 288.448 1048.01 288.328ZM1058.11 279.76H1059.48V286H1058.11V283.552C1057.69 283.936 1057.13 284.128 1056.43 284.128C1054.77 284.128 1053.93 283.3 1053.93 281.644V279.76H1055.29V281.176C1055.29 282.388 1055.71 282.856 1056.73 282.856C1057.27 282.856 1057.83 282.556 1058.11 282.172V279.76ZM1061.3 281.548L1060.63 280.54C1061.22 279.964 1062.23 279.616 1063.25 279.616C1064.88 279.616 1065.8 280.552 1065.8 282.184V286H1064.44V285.316C1063.98 285.82 1063.33 286.072 1062.5 286.072C1061.12 286.072 1060.24 285.304 1060.24 284.104C1060.24 282.772 1061.39 282.124 1063.15 282.124C1063.67 282.124 1064.1 282.184 1064.44 282.292C1064.45 281.344 1064.06 280.888 1063.09 280.888C1062.48 280.888 1061.88 281.104 1061.3 281.548ZM1062.8 284.884C1063.51 284.884 1064.06 284.596 1064.44 284.032V283.432C1064.1 283.324 1063.72 283.264 1063.3 283.264C1062.2 283.264 1061.65 283.54 1061.65 284.092C1061.65 284.584 1062.1 284.884 1062.8 284.884ZM1071.7 283.948L1072.67 284.572C1072.18 285.544 1071.11 286.108 1069.99 286.108C1068.99 286.108 1068.17 285.808 1067.56 285.22C1066.95 284.632 1066.63 283.84 1066.63 282.868C1066.63 281.932 1066.93 281.152 1067.55 280.54C1068.16 279.928 1068.95 279.616 1069.92 279.616C1071.17 279.616 1072.18 280.18 1072.6 281.032L1071.58 281.704C1071.17 281.164 1070.64 280.888 1069.98 280.888C1068.84 280.888 1068.05 281.704 1068.05 282.868C1068.05 283.432 1068.24 283.9 1068.63 284.272C1069 284.644 1069.5 284.836 1070.13 284.836C1070.79 284.836 1071.3 284.536 1071.7 283.948ZM1075.01 281.032H1072.75V279.76H1078.63V281.032H1076.38V286H1075.01V281.032ZM1083.69 281.944L1080.37 286H1079.19V279.76H1080.55V283.828L1083.87 279.76H1085.05V286H1083.69V281.944ZM1088.84 279.76H1091.41V286H1090.04V283.948H1088.88L1087.3 286H1085.7L1087.5 283.72C1086.62 283.516 1086.07 282.784 1086.07 281.824C1086.07 280.612 1086.92 279.76 1088.84 279.76ZM1087.49 281.872C1087.49 282.352 1087.92 282.676 1088.69 282.676H1090.04V281.032H1088.72C1087.9 281.032 1087.49 281.308 1087.49 281.872ZM973.53 300H970.578V293.76H973.242C975.018 293.76 975.87 294.228 975.87 295.416C975.87 295.92 975.642 296.34 975.174 296.688C975.762 296.916 976.05 297.396 976.05 298.14C976.05 299.352 975.126 300 973.53 300ZM973.434 297.42H971.946V298.764H973.398C974.226 298.764 974.634 298.548 974.634 298.104C974.634 297.624 974.262 297.42 973.434 297.42ZM973.206 294.996H971.946V296.232H973.554C974.154 296.232 974.454 296.016 974.454 295.596C974.454 295.116 974.07 294.996 973.206 294.996ZM980.976 300H979.608V293.76H980.976V296.292L983.676 293.76H985.464L982.428 296.58L985.572 300H983.82L981.432 297.432L980.976 297.876V300ZM987.395 302.4H986.027V293.76H987.395V294.324C987.767 293.856 988.451 293.616 989.123 293.616C990.047 293.616 990.791 293.904 991.331 294.492C991.871 295.08 992.147 295.836 992.147 296.772C992.147 297.744 991.859 298.536 991.283 299.16C990.707 299.796 989.951 300.108 989.027 300.108C988.223 300.108 987.671 299.94 987.395 299.592V302.4ZM988.979 294.888C988.223 294.888 987.671 295.32 987.395 295.908V298.068C987.695 298.584 988.187 298.836 988.871 298.836C989.987 298.836 990.731 298.044 990.731 296.88C990.731 295.632 990.071 294.888 988.979 294.888ZM992.721 296.868C992.721 295.92 993.033 295.14 993.657 294.528C994.269 293.916 995.073 293.616 996.057 293.616C997.041 293.616 997.845 293.916 998.469 294.528C999.093 295.14 999.405 295.92 999.405 296.868C999.405 297.804 999.093 298.572 998.469 299.184C997.845 299.796 997.041 300.108 996.057 300.108C995.085 300.108 994.293 299.796 993.669 299.184C993.033 298.572 992.721 297.804 992.721 296.868ZM994.137 296.868C994.137 297.432 994.317 297.9 994.677 298.272C995.025 298.644 995.493 298.836 996.057 298.836C997.209 298.836 997.989 298.056 997.989 296.868C997.989 296.28 997.809 295.8 997.437 295.428C997.065 295.068 996.609 294.888 996.057 294.888C994.941 294.888 994.137 295.668 994.137 296.868ZM1005.05 297.948L1006.02 298.572C1005.53 299.544 1004.46 300.108 1003.34 300.108C1002.34 300.108 1001.52 299.808 1000.91 299.22C1000.3 298.632 999.983 297.84 999.983 296.868C999.983 295.932 1000.28 295.152 1000.9 294.54C1001.51 293.928 1002.3 293.616 1003.27 293.616C1004.52 293.616 1005.53 294.18 1005.95 295.032L1004.93 295.704C1004.52 295.164 1003.99 294.888 1003.33 294.888C1002.19 294.888 1001.4 295.704 1001.4 296.868C1001.4 297.432 1001.59 297.9 1001.98 298.272C1002.35 298.644 1002.85 298.836 1003.48 298.836C1004.14 298.836 1004.65 298.536 1005.05 297.948ZM1011.04 297.948L1012.02 298.572C1011.52 299.544 1010.46 300.108 1009.34 300.108C1008.33 300.108 1007.52 299.808 1006.9 299.22C1006.29 298.632 1005.98 297.84 1005.98 296.868C1005.98 295.932 1006.28 295.152 1006.89 294.54C1007.5 293.928 1008.3 293.616 1009.27 293.616C1010.52 293.616 1011.52 294.18 1011.94 295.032L1010.92 295.704C1010.52 295.164 1009.99 294.888 1009.33 294.888C1008.19 294.888 1007.4 295.704 1007.4 296.868C1007.4 297.432 1007.59 297.9 1007.97 298.272C1008.34 298.644 1008.85 298.836 1009.47 298.836C1010.13 298.836 1010.65 298.536 1011.04 297.948ZM1015.72 297.276H1012.39V296.064H1015.72V297.276ZM1021.6 302.4H1020.23V300.12H1020.16C1019.12 300.12 1018.3 299.82 1017.71 299.22C1017.11 298.62 1016.81 297.84 1016.81 296.892C1016.81 295.992 1017.11 295.236 1017.71 294.6C1018.31 293.964 1019.13 293.652 1020.15 293.652H1020.23V291.24H1021.6V293.652H1021.7C1022.69 293.652 1023.5 293.952 1024.11 294.564C1024.72 295.176 1025.02 295.944 1025.02 296.892C1025.02 297.84 1024.72 298.62 1024.13 299.22C1023.53 299.82 1022.72 300.12 1021.67 300.12H1021.6V302.4ZM1018.23 296.892C1018.23 298.128 1018.91 298.848 1020.16 298.848H1020.23V294.924H1020.15C1018.87 294.924 1018.23 295.692 1018.23 296.892ZM1021.67 294.924H1021.6V298.848H1021.67C1022.96 298.848 1023.61 298.2 1023.61 296.892C1023.61 295.692 1022.96 294.924 1021.67 294.924ZM1025.85 302.328L1026.39 301.164C1026.47 301.212 1026.56 301.236 1026.66 301.236C1027.04 301.236 1027.37 300.888 1027.65 300.192L1027.86 299.628L1024.79 293.76H1026.38L1028.52 297.972L1030.18 293.76H1031.64L1029.2 299.82C1028.78 300.84 1028.39 301.536 1028.03 301.932C1027.66 302.316 1027.23 302.508 1026.71 302.508C1026.38 302.508 1026.09 302.448 1025.85 302.328ZM1037.77 300H1036.41V297.468H1033.41V300H1032.04V293.76H1033.41V296.208H1036.41V293.76H1037.77V300ZM1040.31 300H1038.94V293.76H1040.31V296.292L1043.01 293.76H1044.79L1041.76 296.58L1044.9 300H1043.15L1040.76 297.432L1040.31 297.876V300ZM1050.55 300H1045.36V293.76H1046.73V298.728H1049.62V293.76H1050.99V298.728H1051.83V301.428H1050.55V300ZM1056.91 295.944L1053.6 300H1052.41V293.76H1053.78V297.828L1057.09 293.76H1058.28V300H1056.91V295.944ZM1059.15 296.868C1059.15 295.92 1059.46 295.14 1060.09 294.528C1060.7 293.916 1061.5 293.616 1062.49 293.616C1063.47 293.616 1064.27 293.916 1064.9 294.528C1065.52 295.14 1065.83 295.92 1065.83 296.868C1065.83 297.804 1065.52 298.572 1064.9 299.184C1064.27 299.796 1063.47 300.108 1062.49 300.108C1061.51 300.108 1060.72 299.796 1060.1 299.184C1059.46 298.572 1059.15 297.804 1059.15 296.868ZM1060.57 296.868C1060.57 297.432 1060.75 297.9 1061.11 298.272C1061.45 298.644 1061.92 298.836 1062.49 298.836C1063.64 298.836 1064.42 298.056 1064.42 296.868C1064.42 296.28 1064.24 295.8 1063.87 295.428C1063.49 295.068 1063.04 294.888 1062.49 294.888C1061.37 294.888 1060.57 295.668 1060.57 296.868ZM1072.44 300H1071.07V297.468H1068.07V300H1066.7V293.76H1068.07V296.208H1071.07V293.76H1072.44V300ZM1074.27 295.548L1073.6 294.54C1074.19 293.964 1075.2 293.616 1076.22 293.616C1077.85 293.616 1078.77 294.552 1078.77 296.184V300H1077.4V299.316C1076.95 299.82 1076.3 300.072 1075.47 300.072C1074.09 300.072 1073.2 299.304 1073.2 298.104C1073.2 296.772 1074.36 296.124 1076.12 296.124C1076.64 296.124 1077.07 296.184 1077.4 296.292C1077.42 295.344 1077.03 294.888 1076.06 294.888C1075.45 294.888 1074.85 295.104 1074.27 295.548ZM1075.77 298.884C1076.48 298.884 1077.03 298.596 1077.4 298.032V297.432C1077.07 297.324 1076.68 297.264 1076.26 297.264C1075.17 297.264 1074.62 297.54 1074.62 298.092C1074.62 298.584 1075.06 298.884 1075.77 298.884ZM1085.58 300H1084.21V295.032H1082V296.004C1082 299.328 1080.92 300.168 1079.37 300.048L1079.27 298.776C1079.91 298.848 1080.66 298.428 1080.66 295.536V293.76H1085.58V300ZM1089.33 300H1086.73V293.76H1088.1V295.572H1089.42C1091.29 295.572 1092.06 296.46 1092.06 297.768C1092.06 299.052 1091.22 300 1089.33 300ZM1089.3 296.844H1088.1V298.728H1089.29C1090.25 298.728 1090.64 298.416 1090.64 297.78C1090.64 297.156 1090.2 296.844 1089.3 296.844ZM1098.55 300H1097.18V297.468H1094.18V300H1092.81V293.76H1094.18V296.208H1097.18V293.76H1098.55V300ZM1102.06 300H1099.71V293.76H1101.08V295.572H1102.16C1104.03 295.572 1104.8 296.46 1104.8 297.768C1104.8 299.052 1103.95 300 1102.06 300ZM1102.05 296.844H1101.08V298.728H1102.04C1103 298.728 1103.38 298.416 1103.38 297.78C1103.38 297.156 1103 296.844 1102.05 296.844ZM1106.79 300H1105.42V293.76H1106.79V300ZM1112.24 293.76H1113.89L1111.5 296.772L1114.01 300H1112.31L1110.62 297.78L1108.89 300H1107.27L1109.77 296.796L1107.39 293.76H1109.07L1110.66 295.764L1112.24 293.76ZM975.354 311.948L976.326 312.572C975.834 313.544 974.766 314.108 973.65 314.108C972.642 314.108 971.826 313.808 971.214 313.22C970.602 312.632 970.29 311.84 970.29 310.868C970.29 309.932 970.59 309.152 971.202 308.54C971.814 307.928 972.606 307.616 973.578 307.616C974.826 307.616 975.834 308.18 976.254 309.032L975.234 309.704C974.826 309.164 974.298 308.888 973.638 308.888C972.498 308.888 971.706 309.704 971.706 310.868C971.706 311.432 971.898 311.9 972.282 312.272C972.654 312.644 973.158 312.836 973.782 312.836C974.442 312.836 974.958 312.536 975.354 311.948ZM978.665 309.032H976.409V307.76H982.289V309.032H980.033V314H978.665V309.032ZM983.514 309.548L982.842 308.54C983.43 307.964 984.438 307.616 985.458 307.616C987.09 307.616 988.014 308.552 988.014 310.184V314H986.646V313.316C986.19 313.82 985.542 314.072 984.714 314.072C983.334 314.072 982.446 313.304 982.446 312.104C982.446 310.772 983.598 310.124 985.362 310.124C985.878 310.124 986.31 310.184 986.646 310.292C986.658 309.344 986.274 308.888 985.302 308.888C984.69 308.888 984.09 309.104 983.514 309.548ZM985.014 312.884C985.722 312.884 986.274 312.596 986.646 312.032V311.432C986.31 311.324 985.926 311.264 985.506 311.264C984.414 311.264 983.862 311.54 983.862 312.092C983.862 312.584 984.306 312.884 985.014 312.884ZM988.46 314L991.052 310.604L988.484 307.76H990.188L992.372 310.196V307.76H993.74V310.208L995.972 307.76H997.628L995.036 310.592L997.688 314H996.02L994.004 311.36L993.74 311.636V314H992.372V311.648L992.084 311.348L990.092 314H988.46ZM1002.64 309.944L999.329 314H998.141V307.76H999.509V311.828L1002.82 307.76H1004.01V314H1002.64V309.944ZM1006.54 316.4H1005.17V307.76H1006.54V308.324C1006.91 307.856 1007.59 307.616 1008.27 307.616C1009.19 307.616 1009.93 307.904 1010.47 308.492C1011.01 309.08 1011.29 309.836 1011.29 310.772C1011.29 311.744 1011 312.536 1010.43 313.16C1009.85 313.796 1009.09 314.108 1008.17 314.108C1007.37 314.108 1006.81 313.94 1006.54 313.592V316.4ZM1008.12 308.888C1007.37 308.888 1006.81 309.32 1006.54 309.908V312.068C1006.84 312.584 1007.33 312.836 1008.01 312.836C1009.13 312.836 1009.87 312.044 1009.87 310.88C1009.87 309.632 1009.21 308.888 1008.12 308.888ZM1011.86 310.868C1011.86 309.92 1012.18 309.14 1012.8 308.528C1013.41 307.916 1014.22 307.616 1015.2 307.616C1016.18 307.616 1016.99 307.916 1017.61 308.528C1018.24 309.14 1018.55 309.92 1018.55 310.868C1018.55 311.804 1018.24 312.572 1017.61 313.184C1016.99 313.796 1016.18 314.108 1015.2 314.108C1014.23 314.108 1013.44 313.796 1012.81 313.184C1012.18 312.572 1011.86 311.804 1011.86 310.868ZM1013.28 310.868C1013.28 311.432 1013.46 311.9 1013.82 312.272C1014.17 312.644 1014.64 312.836 1015.2 312.836C1016.35 312.836 1017.13 312.056 1017.13 310.868C1017.13 310.28 1016.95 309.8 1016.58 309.428C1016.21 309.068 1015.75 308.888 1015.2 308.888C1014.08 308.888 1013.28 309.668 1013.28 310.868ZM1022.37 314H1019.41V307.76H1022.08C1023.85 307.76 1024.71 308.228 1024.71 309.416C1024.71 309.92 1024.48 310.34 1024.01 310.688C1024.6 310.916 1024.89 311.396 1024.89 312.14C1024.89 313.352 1023.96 314 1022.37 314ZM1022.27 311.42H1020.78V312.764H1022.23C1023.06 312.764 1023.47 312.548 1023.47 312.104C1023.47 311.624 1023.1 311.42 1022.27 311.42ZM1022.04 308.996H1020.78V310.232H1022.39C1022.99 310.232 1023.29 310.016 1023.29 309.596C1023.29 309.116 1022.91 308.996 1022.04 308.996ZM1027.1 314H1025.73V307.76H1027.1V310.292L1029.8 307.76H1031.58L1028.55 310.58L1031.69 314H1029.94L1027.55 311.432L1027.1 311.876V314ZM1032.64 309.548L1031.97 308.54C1032.56 307.964 1033.57 307.616 1034.59 307.616C1036.22 307.616 1037.14 308.552 1037.14 310.184V314H1035.78V313.316C1035.32 313.82 1034.67 314.072 1033.84 314.072C1032.46 314.072 1031.58 313.304 1031.58 312.104C1031.58 310.772 1032.73 310.124 1034.49 310.124C1035.01 310.124 1035.44 310.184 1035.78 310.292C1035.79 309.344 1035.4 308.888 1034.43 308.888C1033.82 308.888 1033.22 309.104 1032.64 309.548ZM1034.14 312.884C1034.85 312.884 1035.4 312.596 1035.78 312.032V311.432C1035.44 311.324 1035.06 311.264 1034.64 311.264C1033.54 311.264 1032.99 311.54 1032.99 312.092C1032.99 312.584 1033.44 312.884 1034.14 312.884ZM1042.56 307.76H1044.2L1041.81 310.772L1044.32 314H1042.63L1040.94 311.78L1039.21 314H1037.59L1040.09 310.796L1037.71 307.76H1039.39L1040.97 309.764L1042.56 307.76Z" fill="#3C525E"/>
<path d="M978.054 375H976.602V367.968H972.234V375H970.782V366.6H978.054V375ZM980.78 377.4H979.412V368.76H980.78V369.324C981.152 368.856 981.836 368.616 982.508 368.616C983.432 368.616 984.176 368.904 984.716 369.492C985.256 370.08 985.532 370.836 985.532 371.772C985.532 372.744 985.244 373.536 984.668 374.16C984.092 374.796 983.336 375.108 982.412 375.108C981.608 375.108 981.056 374.94 980.78 374.592V377.4ZM982.364 369.888C981.608 369.888 981.056 370.32 980.78 370.908V373.068C981.08 373.584 981.572 373.836 982.256 373.836C983.372 373.836 984.116 373.044 984.116 371.88C984.116 370.632 983.456 369.888 982.364 369.888ZM986.105 371.868C986.105 370.92 986.417 370.14 987.041 369.528C987.653 368.916 988.457 368.616 989.441 368.616C990.425 368.616 991.229 368.916 991.853 369.528C992.477 370.14 992.789 370.92 992.789 371.868C992.789 372.804 992.477 373.572 991.853 374.184C991.229 374.796 990.425 375.108 989.441 375.108C988.469 375.108 987.677 374.796 987.053 374.184C986.417 373.572 986.105 372.804 986.105 371.868ZM987.521 371.868C987.521 372.432 987.701 372.9 988.061 373.272C988.409 373.644 988.877 373.836 989.441 373.836C990.593 373.836 991.373 373.056 991.373 371.868C991.373 371.28 991.193 370.8 990.821 370.428C990.449 370.068 989.993 369.888 989.441 369.888C988.325 369.888 987.521 370.668 987.521 371.868ZM996.608 375H993.656V368.76H996.32C998.096 368.76 998.948 369.228 998.948 370.416C998.948 370.92 998.72 371.34 998.252 371.688C998.84 371.916 999.128 372.396 999.128 373.14C999.128 374.352 998.204 375 996.608 375ZM996.512 372.42H995.024V373.764H996.476C997.304 373.764 997.712 373.548 997.712 373.104C997.712 372.624 997.34 372.42 996.512 372.42ZM996.284 369.996H995.024V371.232H996.632C997.232 371.232 997.532 371.016 997.532 370.596C997.532 370.116 997.148 369.996 996.284 369.996ZM1004.72 373.008L1005.56 373.836C1004.93 374.688 1004.09 375.108 1003.03 375.108C1002.02 375.108 1001.22 374.808 1000.61 374.22C999.993 373.632 999.681 372.852 999.681 371.868C999.681 370.92 999.969 370.14 1000.53 369.528C1001.1 368.916 1001.88 368.616 1002.89 368.616C1003.74 368.616 1004.43 368.88 1004.99 369.396C1005.54 369.924 1005.81 370.62 1005.81 371.472C1005.81 371.676 1005.79 371.976 1005.74 372.348H1001.11C1001.22 373.308 1001.99 373.836 1003.05 373.836C1003.76 373.836 1004.31 373.56 1004.72 373.008ZM1002.83 369.852C1001.91 369.852 1001.3 370.344 1001.12 371.16H1004.4C1004.29 370.308 1003.73 369.852 1002.83 369.852ZM1007.23 376.428H1005.95V373.728H1006.67C1007.14 372.9 1007.38 371.604 1007.38 369.84V368.76H1012.16V373.728H1013.03V376.428H1011.76V375H1007.23V376.428ZM1010.79 370.032H1008.68V370.548C1008.68 371.868 1008.49 372.924 1008.09 373.728H1010.79V370.032ZM1018.34 373.008L1019.18 373.836C1018.55 374.688 1017.71 375.108 1016.65 375.108C1015.64 375.108 1014.84 374.808 1014.23 374.22C1013.62 373.632 1013.3 372.852 1013.3 371.868C1013.3 370.92 1013.59 370.14 1014.16 369.528C1014.72 368.916 1015.5 368.616 1016.51 368.616C1017.36 368.616 1018.06 368.88 1018.61 369.396C1019.16 369.924 1019.44 370.62 1019.44 371.472C1019.44 371.676 1019.41 371.976 1019.36 372.348H1014.73C1014.84 373.308 1015.61 373.836 1016.68 373.836C1017.38 373.836 1017.94 373.56 1018.34 373.008ZM1016.45 369.852C1015.54 369.852 1014.92 370.344 1014.74 371.16H1018.02C1017.91 370.308 1017.35 369.852 1016.45 369.852ZM1026.04 375H1024.67V372.468H1021.67V375H1020.3V368.76H1021.67V371.208H1024.67V368.76H1026.04V375ZM1031.7 370.944L1028.39 375H1027.2V368.76H1028.57V372.828L1031.88 368.76H1033.07V375H1031.7V370.944ZM1038.98 373.008L1039.82 373.836C1039.19 374.688 1038.35 375.108 1037.29 375.108C1036.28 375.108 1035.48 374.808 1034.87 374.22C1034.26 373.632 1033.94 372.852 1033.94 371.868C1033.94 370.92 1034.23 370.14 1034.8 369.528C1035.36 368.916 1036.14 368.616 1037.15 368.616C1038 368.616 1038.7 368.88 1039.25 369.396C1039.8 369.924 1040.08 370.62 1040.08 371.472C1040.08 371.676 1040.05 371.976 1040 372.348H1035.37C1035.48 373.308 1036.25 373.836 1037.32 373.836C1038.02 373.836 1038.58 373.56 1038.98 373.008ZM1037.09 369.852C1036.18 369.852 1035.56 370.344 1035.38 371.16H1038.66C1038.55 370.308 1037.99 369.852 1037.09 369.852ZM971.946 389H970.578V382.76H971.946V385.292L974.646 382.76H976.434L973.398 385.58L976.542 389H974.79L972.402 386.432L971.946 386.876V389ZM976.252 385.868C976.252 384.92 976.564 384.14 977.188 383.528C977.8 382.916 978.604 382.616 979.588 382.616C980.572 382.616 981.376 382.916 982 383.528C982.624 384.14 982.936 384.92 982.936 385.868C982.936 386.804 982.624 387.572 982 388.184C981.376 388.796 980.572 389.108 979.588 389.108C978.616 389.108 977.824 388.796 977.2 388.184C976.564 387.572 976.252 386.804 976.252 385.868ZM977.668 385.868C977.668 386.432 977.848 386.9 978.208 387.272C978.556 387.644 979.024 387.836 979.588 387.836C980.74 387.836 981.52 387.056 981.52 385.868C981.52 385.28 981.34 384.8 980.968 384.428C980.596 384.068 980.14 383.888 979.588 383.888C978.472 383.888 977.668 384.668 977.668 385.868ZM985.171 391.4H983.803V382.76H985.171V383.324C985.543 382.856 986.227 382.616 986.899 382.616C987.823 382.616 988.567 382.904 989.107 383.492C989.647 384.08 989.923 384.836 989.923 385.772C989.923 386.744 989.635 387.536 989.059 388.16C988.483 388.796 987.727 389.108 986.803 389.108C985.999 389.108 985.447 388.94 985.171 388.592V391.4ZM986.755 383.888C985.999 383.888 985.447 384.32 985.171 384.908V387.068C985.471 387.584 985.963 387.836 986.647 387.836C987.763 387.836 988.507 387.044 988.507 385.88C988.507 384.632 987.847 383.888 986.755 383.888ZM996.449 389H995.081V384.032H992.153V389H990.785V382.76H996.449V389ZM997.326 385.868C997.326 384.92 997.638 384.14 998.262 383.528C998.874 382.916 999.678 382.616 1000.66 382.616C1001.65 382.616 1002.45 382.916 1003.07 383.528C1003.7 384.14 1004.01 384.92 1004.01 385.868C1004.01 386.804 1003.7 387.572 1003.07 388.184C1002.45 388.796 1001.65 389.108 1000.66 389.108C999.69 389.108 998.898 388.796 998.274 388.184C997.638 387.572 997.326 386.804 997.326 385.868ZM998.742 385.868C998.742 386.432 998.922 386.9 999.282 387.272C999.63 387.644 1000.1 387.836 1000.66 387.836C1001.81 387.836 1002.59 387.056 1002.59 385.868C1002.59 385.28 1002.41 384.8 1002.04 384.428C1001.67 384.068 1001.21 383.888 1000.66 383.888C999.546 383.888 998.742 384.668 998.742 385.868ZM1006.24 391.4H1004.88V382.76H1006.24V383.324C1006.62 382.856 1007.3 382.616 1007.97 382.616C1008.9 382.616 1009.64 382.904 1010.18 383.492C1010.72 384.08 1011 384.836 1011 385.772C1011 386.744 1010.71 387.536 1010.13 388.16C1009.56 388.796 1008.8 389.108 1007.88 389.108C1007.07 389.108 1006.52 388.94 1006.24 388.592V391.4ZM1007.83 383.888C1007.07 383.888 1006.52 384.32 1006.24 384.908V387.068C1006.54 387.584 1007.04 387.836 1007.72 387.836C1008.84 387.836 1009.58 387.044 1009.58 385.88C1009.58 384.632 1008.92 383.888 1007.83 383.888ZM1012.53 384.548L1011.86 383.54C1012.45 382.964 1013.45 382.616 1014.47 382.616C1016.11 382.616 1017.03 383.552 1017.03 385.184V389H1015.66V388.316C1015.21 388.82 1014.56 389.072 1013.73 389.072C1012.35 389.072 1011.46 388.304 1011.46 387.104C1011.46 385.772 1012.61 385.124 1014.38 385.124C1014.89 385.124 1015.33 385.184 1015.66 385.292C1015.67 384.344 1015.29 383.888 1014.32 383.888C1013.71 383.888 1013.11 384.104 1012.53 384.548ZM1014.03 387.884C1014.74 387.884 1015.29 387.596 1015.66 387.032V386.432C1015.33 386.324 1014.94 386.264 1014.52 386.264C1013.43 386.264 1012.88 386.54 1012.88 387.092C1012.88 387.584 1013.32 387.884 1014.03 387.884ZM1019.8 384.032H1017.55V382.76H1023.43V384.032H1021.17V389H1019.8V384.032ZM1028.48 384.944L1025.17 389H1023.98V382.76H1025.35V386.828L1028.66 382.76H1029.85V389H1028.48V384.944ZM1033.96 389H1031.01V382.76H1033.67C1035.45 382.76 1036.3 383.228 1036.3 384.416C1036.3 384.92 1036.07 385.34 1035.61 385.688C1036.19 385.916 1036.48 386.396 1036.48 387.14C1036.48 388.352 1035.56 389 1033.96 389ZM1033.87 386.42H1032.38V387.764H1033.83C1034.66 387.764 1035.07 387.548 1035.07 387.104C1035.07 386.624 1034.69 386.42 1033.87 386.42ZM1033.64 383.996H1032.38V385.232H1033.99C1034.59 385.232 1034.89 385.016 1034.89 384.596C1034.89 384.116 1034.5 383.996 1033.64 383.996ZM1043.06 389H1041.69V386.468H1038.69V389H1037.32V382.76H1038.69V385.208H1041.69V382.76H1043.06V389ZM1046.58 389H1044.22V382.76H1045.59V384.572H1046.67C1048.54 384.572 1049.31 385.46 1049.31 386.768C1049.31 388.052 1048.46 389 1046.58 389ZM1046.56 385.844H1045.59V387.728H1046.55C1047.51 387.728 1047.9 387.416 1047.9 386.78C1047.9 386.156 1047.51 385.844 1046.56 385.844ZM1051.3 389H1049.94V382.76H1051.3V389ZM1056.75 382.76H1058.4L1056.01 385.772L1058.52 389H1056.83L1055.13 386.78L1053.41 389H1051.79L1054.28 385.796L1051.91 382.76H1053.59L1055.17 384.764L1056.75 382.76ZM971.946 403H970.578V396.76H971.802L973.986 399.592L976.17 396.76H977.298V403H975.93V399.124L973.998 401.632L971.946 399.088V403ZM983.214 401.008L984.054 401.836C983.418 402.688 982.578 403.108 981.522 403.108C980.514 403.108 979.71 402.808 979.098 402.22C978.486 401.632 978.174 400.852 978.174 399.868C978.174 398.92 978.462 398.14 979.026 397.528C979.59 396.916 980.37 396.616 981.378 396.616C982.23 396.616 982.926 396.88 983.478 397.396C984.03 397.924 984.306 398.62 984.306 399.472C984.306 399.676 984.282 399.976 984.234 400.348H979.602C979.71 401.308 980.478 401.836 981.546 401.836C982.254 401.836 982.806 401.56 983.214 401.008ZM981.318 397.852C980.406 397.852 979.794 398.344 979.614 399.16H982.89C982.782 398.308 982.218 397.852 981.318 397.852ZM986.542 405.4H985.174V396.76H986.542V397.324C986.914 396.856 987.598 396.616 988.27 396.616C989.194 396.616 989.938 396.904 990.478 397.492C991.018 398.08 991.294 398.836 991.294 399.772C991.294 400.744 991.006 401.536 990.43 402.16C989.854 402.796 989.098 403.108 988.174 403.108C987.37 403.108 986.818 402.94 986.542 402.592V405.4ZM988.126 397.888C987.37 397.888 986.818 398.32 986.542 398.908V401.068C986.842 401.584 987.334 401.836 988.018 401.836C989.134 401.836 989.878 401.044 989.878 399.88C989.878 398.632 989.218 397.888 988.126 397.888ZM991.868 399.868C991.868 398.92 992.18 398.14 992.804 397.528C993.416 396.916 994.22 396.616 995.204 396.616C996.188 396.616 996.992 396.916 997.616 397.528C998.24 398.14 998.552 398.92 998.552 399.868C998.552 400.804 998.24 401.572 997.616 402.184C996.992 402.796 996.188 403.108 995.204 403.108C994.232 403.108 993.44 402.796 992.816 402.184C992.18 401.572 991.868 400.804 991.868 399.868ZM993.284 399.868C993.284 400.432 993.464 400.9 993.824 401.272C994.172 401.644 994.64 401.836 995.204 401.836C996.356 401.836 997.136 401.056 997.136 399.868C997.136 399.28 996.956 398.8 996.584 398.428C996.212 398.068 995.756 397.888 995.204 397.888C994.088 397.888 993.284 398.668 993.284 399.868ZM1005.08 403H1003.71V398.032H1000.79V403H999.419V396.76H1005.08V403ZM1007.62 405.4H1006.25V396.76H1007.62V397.324C1007.99 396.856 1008.67 396.616 1009.34 396.616C1010.27 396.616 1011.01 396.904 1011.55 397.492C1012.09 398.08 1012.37 398.836 1012.37 399.772C1012.37 400.744 1012.08 401.536 1011.5 402.16C1010.93 402.796 1010.17 403.108 1009.25 403.108C1008.44 403.108 1007.89 402.94 1007.62 402.592V405.4ZM1009.2 397.888C1008.44 397.888 1007.89 398.32 1007.62 398.908V401.068C1007.92 401.584 1008.41 401.836 1009.09 401.836C1010.21 401.836 1010.95 401.044 1010.95 399.88C1010.95 398.632 1010.29 397.888 1009.2 397.888ZM1017.73 398.944L1014.42 403H1013.23V396.76H1014.6V400.828L1017.91 396.76H1019.1V403H1017.73V398.944ZM1022.89 396.76H1025.45V403H1024.09V400.948H1022.92L1021.34 403H1019.74L1021.54 400.72C1020.67 400.516 1020.11 399.784 1020.11 398.824C1020.11 397.612 1020.97 396.76 1022.89 396.76ZM1021.53 398.872C1021.53 399.352 1021.96 399.676 1022.73 399.676H1024.09V398.032H1022.77C1021.94 398.032 1021.53 398.308 1021.53 398.872ZM1028.26 398.032H1026.01V396.76H1031.89V398.032H1029.63V403H1028.26V398.032ZM1036.94 398.944L1033.63 403H1032.44V396.76H1033.81V400.828L1037.12 396.76H1038.31V403H1036.94V398.944ZM1043.97 398.944L1040.66 403H1039.47V396.76H1040.84V400.828L1044.15 396.76H1045.34V403H1043.97V398.944ZM1040.42 394.108H1041.68C1041.69 394.6 1042 394.924 1042.54 394.924C1043.07 394.924 1043.36 394.6 1043.36 394.108H1044.6C1044.59 394.696 1044.4 395.152 1044 395.476C1043.61 395.812 1043.12 395.98 1042.54 395.98C1041.3 395.98 1040.43 395.308 1040.42 394.108ZM1053.71 398.944L1050.4 403H1049.21V396.76H1050.58V400.828L1053.89 396.76H1055.08V403H1053.71V398.944ZM1060.61 398.032H1058.36V396.76H1064.24V398.032H1061.98V403H1060.61V398.032ZM1066.16 405.4H1064.79V396.76H1066.16V397.324C1066.53 396.856 1067.21 396.616 1067.89 396.616C1068.81 396.616 1069.55 396.904 1070.09 397.492C1070.63 398.08 1070.91 398.836 1070.91 399.772C1070.91 400.744 1070.62 401.536 1070.05 402.16C1069.47 402.796 1068.71 403.108 1067.79 403.108C1066.99 403.108 1066.43 402.94 1066.16 402.592V405.4ZM1067.74 397.888C1066.99 397.888 1066.43 398.32 1066.16 398.908V401.068C1066.46 401.584 1066.95 401.836 1067.63 401.836C1068.75 401.836 1069.49 401.044 1069.49 399.88C1069.49 398.632 1068.83 397.888 1067.74 397.888ZM1076.52 401.008L1077.36 401.836C1076.73 402.688 1075.89 403.108 1074.83 403.108C1073.82 403.108 1073.02 402.808 1072.41 402.22C1071.8 401.632 1071.48 400.852 1071.48 399.868C1071.48 398.92 1071.77 398.14 1072.34 397.528C1072.9 396.916 1073.68 396.616 1074.69 396.616C1075.54 396.616 1076.24 396.88 1076.79 397.396C1077.34 397.924 1077.62 398.62 1077.62 399.472C1077.62 399.676 1077.59 399.976 1077.54 400.348H1072.91C1073.02 401.308 1073.79 401.836 1074.86 401.836C1075.56 401.836 1076.12 401.56 1076.52 401.008ZM1074.63 397.852C1073.72 397.852 1073.1 398.344 1072.92 399.16H1076.2C1076.09 398.308 1075.53 397.852 1074.63 397.852ZM1084.22 403H1082.85V400.468H1079.85V403H1078.48V396.76H1079.85V399.208H1082.85V396.76H1084.22V403ZM1089.88 398.944L1086.57 403H1085.38V396.76H1086.75V400.828L1090.06 396.76H1091.25V403H1089.88V398.944ZM1098.15 403H1096.78V400.468H1093.78V403H1092.41V396.76H1093.78V399.208H1096.78V396.76H1098.15V403ZM1100.68 403H1099.31V396.76H1104.02V398.032H1100.68V403ZM1104.07 399.868C1104.07 398.92 1104.38 398.14 1105.01 397.528C1105.62 396.916 1106.42 396.616 1107.41 396.616C1108.39 396.616 1109.2 396.916 1109.82 397.528C1110.44 398.14 1110.76 398.92 1110.76 399.868C1110.76 400.804 1110.44 401.572 1109.82 402.184C1109.2 402.796 1108.39 403.108 1107.41 403.108C1106.44 403.108 1105.64 402.796 1105.02 402.184C1104.38 401.572 1104.07 400.804 1104.07 399.868ZM1105.49 399.868C1105.49 400.432 1105.67 400.9 1106.03 401.272C1106.38 401.644 1106.84 401.836 1107.41 401.836C1108.56 401.836 1109.34 401.056 1109.34 399.868C1109.34 399.28 1109.16 398.8 1108.79 398.428C1108.42 398.068 1107.96 397.888 1107.41 397.888C1106.29 397.888 1105.49 398.668 1105.49 399.868ZM1114.57 403H1111.62V396.76H1114.29C1116.06 396.76 1116.91 397.228 1116.91 398.416C1116.91 398.92 1116.69 399.34 1116.22 399.688C1116.81 399.916 1117.09 400.396 1117.09 401.14C1117.09 402.352 1116.17 403 1114.57 403ZM1114.48 400.42H1112.99V401.764H1114.44C1115.27 401.764 1115.68 401.548 1115.68 401.104C1115.68 400.624 1115.31 400.42 1114.48 400.42ZM1114.25 397.996H1112.99V399.232H1114.6C1115.2 399.232 1115.5 399.016 1115.5 398.596C1115.5 398.116 1115.11 397.996 1114.25 397.996Z" fill="#3C525E"/>
<path d="M977.06 74H975.608V66.968H971.24V74H969.788V65.6H977.06V74ZM978.129 70.868C978.129 69.92 978.441 69.14 979.065 68.528C979.677 67.916 980.481 67.616 981.465 67.616C982.449 67.616 983.253 67.916 983.877 68.528C984.501 69.14 984.813 69.92 984.813 70.868C984.813 71.804 984.501 72.572 983.877 73.184C983.253 73.796 982.449 74.108 981.465 74.108C980.493 74.108 979.701 73.796 979.077 73.184C978.441 72.572 978.129 71.804 978.129 70.868ZM979.545 70.868C979.545 71.432 979.725 71.9 980.085 72.272C980.433 72.644 980.901 72.836 981.465 72.836C982.617 72.836 983.397 72.056 983.397 70.868C983.397 70.28 983.217 69.8 982.845 69.428C982.473 69.068 982.017 68.888 981.465 68.888C980.349 68.888 979.545 69.668 979.545 70.868ZM985.392 70.868C985.392 69.92 985.704 69.14 986.328 68.528C986.94 67.916 987.744 67.616 988.728 67.616C989.712 67.616 990.516 67.916 991.14 68.528C991.764 69.14 992.076 69.92 992.076 70.868C992.076 71.804 991.764 72.572 991.14 73.184C990.516 73.796 989.712 74.108 988.728 74.108C987.756 74.108 986.964 73.796 986.34 73.184C985.704 72.572 985.392 71.804 985.392 70.868ZM986.808 70.868C986.808 71.432 986.988 71.9 987.348 72.272C987.696 72.644 988.164 72.836 988.728 72.836C989.88 72.836 990.66 72.056 990.66 70.868C990.66 70.28 990.48 69.8 990.108 69.428C989.736 69.068 989.28 68.888 988.728 68.888C987.612 68.888 986.808 69.668 986.808 70.868ZM1000.2 74H992.943V67.76H994.311V72.728H996.111V67.76H997.479V72.728H999.279V67.76H1000.65V72.728H1001.47V75.428H1000.2V74ZM1003.45 76.4H1002.08V67.76H1003.45V68.324C1003.82 67.856 1004.5 67.616 1005.18 67.616C1006.1 67.616 1006.84 67.904 1007.38 68.492C1007.92 69.08 1008.2 69.836 1008.2 70.772C1008.2 71.744 1007.91 72.536 1007.34 73.16C1006.76 73.796 1006 74.108 1005.08 74.108C1004.28 74.108 1003.72 73.94 1003.45 73.592V76.4ZM1005.03 68.888C1004.28 68.888 1003.72 69.32 1003.45 69.908V72.068C1003.75 72.584 1004.24 72.836 1004.92 72.836C1006.04 72.836 1006.78 72.044 1006.78 70.88C1006.78 69.632 1006.12 68.888 1005.03 68.888ZM1013.81 72.008L1014.65 72.836C1014.02 73.688 1013.18 74.108 1012.12 74.108C1011.11 74.108 1010.31 73.808 1009.7 73.22C1009.09 72.632 1008.77 71.852 1008.77 70.868C1008.77 69.92 1009.06 69.14 1009.63 68.528C1010.19 67.916 1010.97 67.616 1011.98 67.616C1012.83 67.616 1013.53 67.88 1014.08 68.396C1014.63 68.924 1014.91 69.62 1014.91 70.472C1014.91 70.676 1014.88 70.976 1014.83 71.348H1010.2C1010.31 72.308 1011.08 72.836 1012.15 72.836C1012.85 72.836 1013.41 72.56 1013.81 72.008ZM1011.92 68.852C1011.01 68.852 1010.39 69.344 1010.21 70.16H1013.49C1013.38 69.308 1012.82 68.852 1011.92 68.852ZM1021.51 74H1020.14V71.468H1017.14V74H1015.77V67.76H1017.14V70.208H1020.14V67.76H1021.51V74ZM1027.17 69.944L1023.86 74H1022.67V67.76H1024.04V71.828L1027.35 67.76H1028.54V74H1027.17V69.944ZM1034.45 72.008L1035.29 72.836C1034.66 73.688 1033.82 74.108 1032.76 74.108C1031.75 74.108 1030.95 73.808 1030.34 73.22C1029.73 72.632 1029.41 71.852 1029.41 70.868C1029.41 69.92 1029.7 69.14 1030.27 68.528C1030.83 67.916 1031.61 67.616 1032.62 67.616C1033.47 67.616 1034.17 67.88 1034.72 68.396C1035.27 68.924 1035.55 69.62 1035.55 70.472C1035.55 70.676 1035.52 70.976 1035.47 71.348H1030.84C1030.95 72.308 1031.72 72.836 1032.79 72.836C1033.49 72.836 1034.05 72.56 1034.45 72.008ZM1032.56 68.852C1031.65 68.852 1031.03 69.344 1030.85 70.16H1034.13C1034.02 69.308 1033.46 68.852 1032.56 68.852ZM1038.84 70.868C1038.84 69.92 1039.15 69.14 1039.78 68.528C1040.39 67.916 1041.19 67.616 1042.18 67.616C1043.16 67.616 1043.97 67.916 1044.59 68.528C1045.21 69.14 1045.53 69.92 1045.53 70.868C1045.53 71.804 1045.21 72.572 1044.59 73.184C1043.97 73.796 1043.16 74.108 1042.18 74.108C1041.21 74.108 1040.41 73.796 1039.79 73.184C1039.15 72.572 1038.84 71.804 1038.84 70.868ZM1040.26 70.868C1040.26 71.432 1040.44 71.9 1040.8 72.272C1041.15 72.644 1041.61 72.836 1042.18 72.836C1043.33 72.836 1044.11 72.056 1044.11 70.868C1044.11 70.28 1043.93 69.8 1043.56 69.428C1043.19 69.068 1042.73 68.888 1042.18 68.888C1041.06 68.888 1040.26 69.668 1040.26 70.868ZM1047.79 69.032H1045.54V67.76H1051.42V69.032H1049.16V74H1047.79V69.032ZM1057.01 74H1055.64V69.032H1053.44V70.004C1053.44 73.328 1052.36 74.168 1050.81 74.048L1050.7 72.776C1051.35 72.848 1052.09 72.428 1052.09 69.536V67.76H1057.01V74ZM1062.66 69.944L1059.35 74H1058.16V67.76H1059.53V71.828L1062.84 67.76H1064.03V74H1062.66V69.944ZM1069.11 67.76H1070.47V74H1069.11V71.552C1068.69 71.936 1068.12 72.128 1067.43 72.128C1065.76 72.128 1064.92 71.3 1064.92 69.644V67.76H1066.29V69.176C1066.29 70.388 1066.71 70.856 1067.73 70.856C1068.27 70.856 1068.82 70.556 1069.11 70.172V67.76ZM1076.12 69.944L1072.81 74H1071.62V67.76H1072.99V71.828L1076.3 67.76H1077.49V74H1076.12V69.944ZM1081.6 74H1078.65V67.76H1081.32C1083.09 67.76 1083.94 68.228 1083.94 69.416C1083.94 69.92 1083.72 70.34 1083.25 70.688C1083.84 70.916 1084.12 71.396 1084.12 72.14C1084.12 73.352 1083.2 74 1081.6 74ZM1081.51 71.42H1080.02V72.764H1081.47C1082.3 72.764 1082.71 72.548 1082.71 72.104C1082.71 71.624 1082.34 71.42 1081.51 71.42ZM1081.28 68.996H1080.02V70.232H1081.63C1082.23 70.232 1082.53 70.016 1082.53 69.596C1082.53 69.116 1082.14 68.996 1081.28 68.996ZM1092.67 74H1084.97V67.76H1086.33V72.728H1088.13V67.76H1089.5V72.728H1091.3V67.76H1092.67V74ZM1098.32 69.944L1095.01 74H1093.82V67.76H1095.19V71.828L1098.5 67.76L1099.69 67.76V74H1098.32V69.944ZM1105.15 67.76H1106.79L1104.4 70.772L1106.91 74H1105.22L1103.53 71.78L1101.8 74H1100.18L1102.68 70.796L1100.3 67.76H1101.98L1103.56 69.764L1105.15 67.76ZM1111.87 71.948L1112.84 72.572C1112.35 73.544 1111.28 74.108 1110.17 74.108C1109.16 74.108 1108.34 73.808 1107.73 73.22C1107.12 72.632 1106.81 71.84 1106.81 70.868C1106.81 69.932 1107.11 69.152 1107.72 68.54C1108.33 67.928 1109.12 67.616 1110.09 67.616C1111.34 67.616 1112.35 68.18 1112.77 69.032L1111.75 69.704C1111.34 69.164 1110.81 68.888 1110.15 68.888C1109.01 68.888 1108.22 69.704 1108.22 70.868C1108.22 71.432 1108.41 71.9 1108.8 72.272C1109.17 72.644 1109.67 72.836 1110.3 72.836C1110.96 72.836 1111.47 72.536 1111.87 71.948ZM1115.74 67.76H1118.31V74H1116.94V71.948H1115.78L1114.2 74H1112.6L1114.4 71.72C1113.52 71.516 1112.97 70.784 1112.97 69.824C1112.97 68.612 1113.82 67.76 1115.74 67.76ZM1114.39 69.872C1114.39 70.352 1114.82 70.676 1115.59 70.676H1116.94V69.032H1115.62C1114.8 69.032 1114.39 69.308 1114.39 69.872ZM974.36 85.948L975.332 86.572C974.84 87.544 973.772 88.108 972.656 88.108C971.648 88.108 970.832 87.808 970.22 87.22C969.608 86.632 969.296 85.84 969.296 84.868C969.296 83.932 969.596 83.152 970.208 82.54C970.82 81.928 971.612 81.616 972.584 81.616C973.832 81.616 974.84 82.18 975.26 83.032L974.24 83.704C973.832 83.164 973.304 82.888 972.644 82.888C971.504 82.888 970.712 83.704 970.712 84.868C970.712 85.432 970.904 85.9 971.288 86.272C971.66 86.644 972.164 86.836 972.788 86.836C973.448 86.836 973.964 86.536 974.36 85.948ZM975.293 84.868C975.293 83.92 975.605 83.14 976.229 82.528C976.841 81.916 977.645 81.616 978.629 81.616C979.613 81.616 980.417 81.916 981.041 82.528C981.665 83.14 981.977 83.92 981.977 84.868C981.977 85.804 981.665 86.572 981.041 87.184C980.417 87.796 979.613 88.108 978.629 88.108C977.657 88.108 976.865 87.796 976.241 87.184C975.605 86.572 975.293 85.804 975.293 84.868ZM976.709 84.868C976.709 85.432 976.889 85.9 977.249 86.272C977.597 86.644 978.065 86.836 978.629 86.836C979.781 86.836 980.561 86.056 980.561 84.868C980.561 84.28 980.381 83.8 980.009 83.428C979.637 83.068 979.181 82.888 978.629 82.888C977.513 82.888 976.709 83.668 976.709 84.868ZM984.242 83.032H981.986V81.76H987.866V83.032H985.61V88H984.242V83.032ZM989.788 90.4H988.42V81.76H989.788V82.324C990.16 81.856 990.844 81.616 991.516 81.616C992.44 81.616 993.184 81.904 993.724 82.492C994.264 83.08 994.54 83.836 994.54 84.772C994.54 85.744 994.252 86.536 993.676 87.16C993.1 87.796 992.344 88.108 991.42 88.108C990.616 88.108 990.064 87.94 989.788 87.592V90.4ZM991.372 82.888C990.616 82.888 990.064 83.32 989.788 83.908V86.068C990.088 86.584 990.58 86.836 991.264 86.836C992.38 86.836 993.124 86.044 993.124 84.88C993.124 83.632 992.464 82.888 991.372 82.888ZM995.407 90.328L995.947 89.164C996.031 89.212 996.115 89.236 996.223 89.236C996.595 89.236 996.931 88.888 997.207 88.192L997.423 87.628L994.351 81.76H995.935L998.083 85.972L999.739 81.76H1001.2L998.755 87.82C998.335 88.84 997.951 89.536 997.591 89.932C997.219 90.316 996.787 90.508 996.271 90.508C995.935 90.508 995.647 90.448 995.407 90.328ZM1001.93 89.428H1000.66V86.728H1001.38C1001.85 85.9 1002.09 84.604 1002.09 82.84V81.76H1006.86V86.728H1007.74V89.428H1006.47V88H1001.93V89.428ZM1005.49 83.032H1003.38V83.548C1003.38 84.868 1003.19 85.924 1002.79 86.728H1005.49V83.032ZM1014.03 88H1012.67V85.468H1009.67V88H1008.3V81.76H1009.67V84.208H1012.67V81.76H1014.03V88ZM1019.7 83.944L1016.39 88H1015.2V81.76H1016.57V85.828L1019.88 81.76H1021.07V88H1019.7V83.944ZM1023.59 88H1022.23V81.76H1023.59V84.292L1026.29 81.76H1028.08L1025.05 84.58L1028.19 88H1026.44L1024.05 85.432L1023.59 85.876V88ZM1027.9 84.868C1027.9 83.92 1028.21 83.14 1028.84 82.528C1029.45 81.916 1030.25 81.616 1031.24 81.616C1032.22 81.616 1033.02 81.916 1033.65 82.528C1034.27 83.14 1034.58 83.92 1034.58 84.868C1034.58 85.804 1034.27 86.572 1033.65 87.184C1033.02 87.796 1032.22 88.108 1031.24 88.108C1030.26 88.108 1029.47 87.796 1028.85 87.184C1028.21 86.572 1027.9 85.804 1027.9 84.868ZM1029.32 84.868C1029.32 85.432 1029.5 85.9 1029.86 86.272C1030.2 86.644 1030.67 86.836 1031.24 86.836C1032.39 86.836 1033.17 86.056 1033.17 84.868C1033.17 84.28 1032.99 83.8 1032.62 83.428C1032.24 83.068 1031.79 82.888 1031.24 82.888C1030.12 82.888 1029.32 83.668 1029.32 84.868ZM1038.4 88H1035.45V81.76H1038.11C1039.89 81.76 1040.74 82.228 1040.74 83.416C1040.74 83.92 1040.51 84.34 1040.05 84.688C1040.63 84.916 1040.92 85.396 1040.92 86.14C1040.92 87.352 1040 88 1038.4 88ZM1038.31 85.42H1036.82V86.764H1038.27C1039.1 86.764 1039.51 86.548 1039.51 86.104C1039.51 85.624 1039.13 85.42 1038.31 85.42ZM1038.08 82.996H1036.82V84.232H1038.43C1039.03 84.232 1039.33 84.016 1039.33 83.596C1039.33 83.116 1038.94 82.996 1038.08 82.996ZM970.952 102H969.584V95.76H970.952V98.292L973.652 95.76H975.44L972.404 98.58L975.548 102H973.796L971.408 99.432L970.952 99.876V102ZM975.258 98.868C975.258 97.92 975.57 97.14 976.194 96.528C976.806 95.916 977.61 95.616 978.594 95.616C979.578 95.616 980.382 95.916 981.006 96.528C981.63 97.14 981.942 97.92 981.942 98.868C981.942 99.804 981.63 100.572 981.006 101.184C980.382 101.796 979.578 102.108 978.594 102.108C977.622 102.108 976.83 101.796 976.206 101.184C975.57 100.572 975.258 99.804 975.258 98.868ZM976.674 98.868C976.674 99.432 976.854 99.9 977.214 100.272C977.562 100.644 978.03 100.836 978.594 100.836C979.746 100.836 980.526 100.056 980.526 98.868C980.526 98.28 980.346 97.8 979.974 97.428C979.602 97.068 979.146 96.888 978.594 96.888C977.478 96.888 976.674 97.668 976.674 98.868ZM984.177 104.4H982.809V95.76H984.177V96.324C984.549 95.856 985.233 95.616 985.905 95.616C986.829 95.616 987.573 95.904 988.113 96.492C988.653 97.08 988.929 97.836 988.929 98.772C988.929 99.744 988.641 100.536 988.065 101.16C987.489 101.796 986.733 102.108 985.809 102.108C985.005 102.108 984.453 101.94 984.177 101.592V104.4ZM985.761 96.888C985.005 96.888 984.453 97.32 984.177 97.908V100.068C984.477 100.584 984.969 100.836 985.653 100.836C986.769 100.836 987.513 100.044 987.513 98.88C987.513 97.632 986.853 96.888 985.761 96.888ZM995.455 102H994.087V97.032H991.159V102H989.791V95.76H995.455V102ZM996.332 98.868C996.332 97.92 996.644 97.14 997.268 96.528C997.88 95.916 998.684 95.616 999.668 95.616C1000.65 95.616 1001.46 95.916 1002.08 96.528C1002.7 97.14 1003.02 97.92 1003.02 98.868C1003.02 99.804 1002.7 100.572 1002.08 101.184C1001.46 101.796 1000.65 102.108 999.668 102.108C998.696 102.108 997.904 101.796 997.28 101.184C996.644 100.572 996.332 99.804 996.332 98.868ZM997.748 98.868C997.748 99.432 997.928 99.9 998.288 100.272C998.636 100.644 999.104 100.836 999.668 100.836C1000.82 100.836 1001.6 100.056 1001.6 98.868C1001.6 98.28 1001.42 97.8 1001.05 97.428C1000.68 97.068 1000.22 96.888 999.668 96.888C998.552 96.888 997.748 97.668 997.748 98.868ZM1005.25 104.4H1003.88V95.76H1005.25V96.324C1005.62 95.856 1006.31 95.616 1006.98 95.616C1007.9 95.616 1008.65 95.904 1009.19 96.492C1009.73 97.08 1010 97.836 1010 98.772C1010 99.744 1009.71 100.536 1009.14 101.16C1008.56 101.796 1007.81 102.108 1006.88 102.108C1006.08 102.108 1005.53 101.94 1005.25 101.592V104.4ZM1006.83 96.888C1006.08 96.888 1005.53 97.32 1005.25 97.908V100.068C1005.55 100.584 1006.04 100.836 1006.73 100.836C1007.84 100.836 1008.59 100.044 1008.59 98.88C1008.59 97.632 1007.93 96.888 1006.83 96.888ZM1011.54 97.548L1010.86 96.54C1011.45 95.964 1012.46 95.616 1013.48 95.616C1015.11 95.616 1016.04 96.552 1016.04 98.184V102H1014.67V101.316C1014.21 101.82 1013.56 102.072 1012.74 102.072C1011.36 102.072 1010.47 101.304 1010.47 100.104C1010.47 98.772 1011.62 98.124 1013.38 98.124C1013.9 98.124 1014.33 98.184 1014.67 98.292C1014.68 97.344 1014.3 96.888 1013.32 96.888C1012.71 96.888 1012.11 97.104 1011.54 97.548ZM1013.04 100.884C1013.74 100.884 1014.3 100.596 1014.67 100.032V99.432C1014.33 99.324 1013.95 99.264 1013.53 99.264C1012.44 99.264 1011.88 99.54 1011.88 100.092C1011.88 100.584 1012.33 100.884 1013.04 100.884ZM1018.81 97.032H1016.55V95.76H1022.43V97.032H1020.18V102H1018.81V97.032ZM1027.49 97.944L1024.18 102H1022.99V95.76L1024.36 95.76V99.828L1027.67 95.76H1028.86V102H1027.49V97.944ZM1032.97 102H1030.02V95.76H1032.68C1034.46 95.76 1035.31 96.228 1035.31 97.416C1035.31 97.92 1035.08 98.34 1034.61 98.688C1035.2 98.916 1035.49 99.396 1035.49 100.14C1035.49 101.352 1034.56 102 1032.97 102ZM1032.87 99.42H1031.38V100.764H1032.84C1033.66 100.764 1034.07 100.548 1034.07 100.104C1034.07 99.624 1033.7 99.42 1032.87 99.42ZM1032.64 96.996H1031.38V98.232H1032.99C1033.59 98.232 1033.89 98.016 1033.89 97.596C1033.89 97.116 1033.51 96.996 1032.64 96.996ZM1042.07 102H1040.7V99.468H1037.7V102H1036.33V95.76H1037.7V98.208H1040.7V95.76H1042.07V102ZM1045.58 102H1043.23V95.76H1044.6V97.572H1045.68C1047.55 97.572 1048.32 98.46 1048.32 99.768C1048.32 101.052 1047.47 102 1045.58 102ZM1045.57 98.844H1044.6V100.728H1045.56C1046.52 100.728 1046.9 100.416 1046.9 99.78C1046.9 99.156 1046.52 98.844 1045.57 98.844ZM1050.31 102H1048.94V95.76H1050.31V102ZM1052.83 102H1051.46V95.76H1052.69L1054.87 98.592L1057.06 95.76H1058.18V102H1056.82V98.124L1054.88 100.632L1052.83 98.088V102ZM1063.85 97.944L1060.54 102H1059.35V95.76H1060.72V99.828L1064.03 95.76H1065.22V102H1063.85V97.944ZM975.32 116H973.952V113.468H970.952V116H969.584V109.76H970.952V112.208H973.952V109.76H975.32V116ZM977.156 111.548L976.484 110.54C977.072 109.964 978.08 109.616 979.1 109.616C980.732 109.616 981.656 110.552 981.656 112.184V116H980.288V115.316C979.832 115.82 979.184 116.072 978.356 116.072C976.976 116.072 976.088 115.304 976.088 114.104C976.088 112.772 977.24 112.124 979.004 112.124C979.52 112.124 979.952 112.184 980.288 112.292C980.3 111.344 979.916 110.888 978.944 110.888C978.332 110.888 977.732 111.104 977.156 111.548ZM978.656 114.884C979.364 114.884 979.916 114.596 980.288 114.032V113.432C979.952 113.324 979.568 113.264 979.148 113.264C978.056 113.264 977.504 113.54 977.504 114.092C977.504 114.584 977.948 114.884 978.656 114.884ZM984.142 116H982.774V109.76H987.478V111.032H984.142V116ZM989.413 118.4H988.045V109.76H989.413V110.324C989.785 109.856 990.469 109.616 991.141 109.616C992.065 109.616 992.809 109.904 993.349 110.492C993.889 111.08 994.165 111.836 994.165 112.772C994.165 113.744 993.877 114.536 993.301 115.16C992.725 115.796 991.969 116.108 991.045 116.108C990.241 116.108 989.689 115.94 989.413 115.592V118.4ZM990.997 110.888C990.241 110.888 989.689 111.32 989.413 111.908V114.068C989.713 114.584 990.205 114.836 990.889 114.836C992.005 114.836 992.749 114.044 992.749 112.88C992.749 111.632 992.089 110.888 990.997 110.888ZM995.698 111.548L995.026 110.54C995.614 109.964 996.622 109.616 997.642 109.616C999.274 109.616 1000.2 110.552 1000.2 112.184V116H998.83V115.316C998.374 115.82 997.726 116.072 996.898 116.072C995.518 116.072 994.63 115.304 994.63 114.104C994.63 112.772 995.782 112.124 997.546 112.124C998.062 112.124 998.494 112.184 998.83 112.292C998.842 111.344 998.458 110.888 997.486 110.888C996.874 110.888 996.274 111.104 995.698 111.548ZM997.198 114.884C997.906 114.884 998.458 114.596 998.83 114.032V113.432C998.494 113.324 998.11 113.264 997.69 113.264C996.598 113.264 996.046 113.54 996.046 114.092C996.046 114.584 996.49 114.884 997.198 114.884ZM1002.01 117.428H1000.74V114.728H1001.46C1001.93 113.9 1002.17 112.604 1002.17 110.84V109.76H1006.94V114.728H1007.82V117.428H1006.55V116H1002.01V117.428ZM1005.58 111.032H1003.46V111.548C1003.46 112.868 1003.27 113.924 1002.88 114.728H1005.58V111.032ZM1009.05 111.548L1008.38 110.54C1008.97 109.964 1009.98 109.616 1011 109.616C1012.63 109.616 1013.55 110.552 1013.55 112.184V116H1012.18V115.316C1011.73 115.82 1011.08 116.072 1010.25 116.072C1008.87 116.072 1007.98 115.304 1007.98 114.104C1007.98 112.772 1009.14 112.124 1010.9 112.124C1011.42 112.124 1011.85 112.184 1012.18 112.292C1012.2 111.344 1011.81 110.888 1010.84 110.888C1010.23 110.888 1009.63 111.104 1009.05 111.548ZM1010.55 114.884C1011.26 114.884 1011.81 114.596 1012.18 114.032V113.432C1011.85 113.324 1011.46 113.264 1011.04 113.264C1009.95 113.264 1009.4 113.54 1009.4 114.092C1009.4 114.584 1009.84 114.884 1010.55 114.884ZM1016.04 116H1014.67V109.76H1015.89L1018.08 112.592L1020.26 109.76H1021.39V116H1020.02V112.124L1018.09 114.632L1016.04 112.088V116ZM1027.05 111.944L1023.74 116H1022.55V109.76H1023.92V113.828L1027.23 109.76H1028.42V116H1027.05V111.944Z" fill="#3C525E"/>
<g>
<ellipse cx="944.581" cy="187.354" rx="14.2727" ry="14.3544" fill="white"/>
</g>
<path d="M942.873 185.368L941.793 184.936C942.153 183.702 943.253 183.013 944.662 183.013C946.297 183.013 947.254 183.867 947.254 185.142C947.254 186.078 946.853 186.839 946.143 187.497C945.783 187.836 945.289 188.217 944.662 188.659L943.839 189.132H947.48V190.284H941.896V189.368L943.521 188.186C943.572 188.145 943.716 188.032 943.973 187.836C944.23 187.641 944.395 187.507 944.477 187.435C944.559 187.363 944.703 187.24 944.919 187.065C945.125 186.89 945.269 186.746 945.361 186.633C945.526 186.427 945.824 186.067 945.917 185.779C945.958 185.635 945.978 185.491 945.978 185.337C945.978 184.638 945.475 184.206 944.642 184.206C943.747 184.206 943.161 184.7 942.873 185.368Z" fill="#1A3341" fill-opacity="0.6"/>
<g>
<ellipse cx="944.444" cy="88.3544" rx="14.2727" ry="14.3544" fill="white"/>
</g>
<path d="M942.924 86.2652L942.502 85.2368L944.919 84.0645H945.7V91.2837H944.508V85.5351L942.924 86.2652Z" fill="#1A3341" fill-opacity="0.6"/>
<g>
<ellipse cx="944.581" cy="288.354" rx="14.2727" ry="14.3544" fill="white"/>
</g>
<path d="M942.98 286.142L941.92 285.669C942.291 284.63 943.381 283.993 944.728 283.993C945.489 283.993 946.116 284.157 946.6 284.486C947.083 284.825 947.33 285.257 947.33 285.802C947.33 286.615 946.857 287.242 946.168 287.448C946.898 287.623 947.484 288.147 947.484 289.134C947.484 289.803 947.227 290.348 946.713 290.749C946.188 291.16 945.551 291.366 944.779 291.366C943.957 291.366 943.175 291.171 942.496 290.605C942.157 290.327 941.91 289.978 941.776 289.577L942.908 289.104C943.052 289.422 943.298 289.679 943.638 289.875C943.977 290.07 944.317 290.173 944.677 290.173C945.551 290.173 946.199 289.793 946.199 289.145C946.199 288.415 945.561 288.168 944.45 288.168H943.751V287.036H944.491C945.427 287.036 946.055 286.625 946.055 286.06C946.055 285.782 945.921 285.556 945.653 285.401C945.386 285.247 945.047 285.165 944.625 285.165C944.203 285.165 943.874 285.247 943.617 285.412C943.36 285.576 943.155 285.823 942.98 286.142Z" fill="#1A3341" fill-opacity="0.6"/>
<g>
<ellipse cx="944.581" cy="386.354" rx="14.2727" ry="14.3544" fill="white"/>
</g>
<path d="M946.689 389.284H945.486V387.916H941.414V387.114L945.661 382.085H946.689V386.816H947.913V387.916H946.689V389.284ZM945.486 384.049L943.059 386.816H945.486V384.049Z" fill="#1A3341" fill-opacity="0.6"/>
<defs>
<filter id="filter0_d_6026_19819" x="926.838" y="169.958" width="38.0574" height="38.2212" filterUnits="userSpaceOnUse" color-interpolation-filters="sRGB">
<feFlood flood-opacity="0" result="BackgroundImageFix"/>
<feColorMatrix in="SourceAlpha" type="matrix" values="0 0 0 0 0 0 0 0 0 0 0 0 0 0 0 0 0 0 127 0" result="hardAlpha"/>
<feOffset dx="1.28547" dy="1.71396"/>
<feGaussianBlur stdDeviation="2.37812"/>
<feComposite in2="hardAlpha" operator="out"/>
<feColorMatrix type="matrix" values="0 0 0 0 0.479755 0 0 0 0 0.80096 0 0 0 0 0.704599 0 0 0 0.21 0"/>
<feBlend mode="normal" in2="BackgroundImageFix" result="effect1_dropShadow_6026_19819"/>
<feBlend mode="normal" in="SourceGraphic" in2="effect1_dropShadow_6026_19819" result="shape"/>
</filter>
<filter id="filter1_d_6026_19819" x="926.7" y="70.9577" width="38.0574" height="38.2212" filterUnits="userSpaceOnUse" color-interpolation-filters="sRGB">
<feFlood flood-opacity="0" result="BackgroundImageFix"/>
<feColorMatrix in="SourceAlpha" type="matrix" values="0 0 0 0 0 0 0 0 0 0 0 0 0 0 0 0 0 0 127 0" result="hardAlpha"/>
<feOffset dx="1.28547" dy="1.71396"/>
<feGaussianBlur stdDeviation="2.37812"/>
<feComposite in2="hardAlpha" operator="out"/>
<feColorMatrix type="matrix" values="0 0 0 0 0.479755 0 0 0 0 0.80096 0 0 0 0 0.704599 0 0 0 0.21 0"/>
<feBlend mode="normal" in2="BackgroundImageFix" result="effect1_dropShadow_6026_19819"/>
<feBlend mode="normal" in="SourceGraphic" in2="effect1_dropShadow_6026_19819" result="shape"/>
</filter>
<filter id="filter2_d_6026_19819" x="926.838" y="270.958" width="38.0574" height="38.2212" filterUnits="userSpaceOnUse" color-interpolation-filters="sRGB">
<feFlood flood-opacity="0" result="BackgroundImageFix"/>
<feColorMatrix in="SourceAlpha" type="matrix" values="0 0 0 0 0 0 0 0 0 0 0 0 0 0 0 0 0 0 127 0" result="hardAlpha"/>
<feOffset dx="1.28547" dy="1.71396"/>
<feGaussianBlur stdDeviation="2.37812"/>
<feComposite in2="hardAlpha" operator="out"/>
<feColorMatrix type="matrix" values="0 0 0 0 0.479755 0 0 0 0 0.80096 0 0 0 0 0.704599 0 0 0 0.21 0"/>
<feBlend mode="normal" in2="BackgroundImageFix" result="effect1_dropShadow_6026_19819"/>
<feBlend mode="normal" in="SourceGraphic" in2="effect1_dropShadow_6026_19819" result="shape"/>
</filter>
<filter id="filter3_d_6026_19819" x="926.838" y="368.958" width="38.0574" height="38.2212" filterUnits="userSpaceOnUse" color-interpolation-filters="sRGB">
<feFlood flood-opacity="0" result="BackgroundImageFix"/>
<feColorMatrix in="SourceAlpha" type="matrix" values="0 0 0 0 0 0 0 0 0 0 0 0 0 0 0 0 0 0 127 0" result="hardAlpha"/>
<feOffset dx="1.28547" dy="1.71396"/>
<feGaussianBlur stdDeviation="2.37812"/>
<feComposite in2="hardAlpha" operator="out"/>
<feColorMatrix type="matrix" values="0 0 0 0 0.479755 0 0 0 0 0.80096 0 0 0 0 0.704599 0 0 0 0.21 0"/>
<feBlend mode="normal" in2="BackgroundImageFix" result="effect1_dropShadow_6026_19819"/>
<feBlend mode="normal" in="SourceGraphic" in2="effect1_dropShadow_6026_19819" result="shape"/>
</filter>
<linearGradient id="paint0_linear_6026_19819" x1="950.836" y1="-1.50083e+14" x2="753.388" y2="-1.50083e+14" gradientUnits="userSpaceOnUse">
<stop stop-color="#92F7CC"/>
<stop offset="1" stop-color="#2B5F90"/>
</linearGradient>
<linearGradient id="paint1_linear_6026_19819" x1="908.987" y1="110.51" x2="772.199" y2="110.51" gradientUnits="userSpaceOnUse">
<stop stop-color="#70D4AA"/>
<stop offset="1" stop-color="#228D9C"/>
</linearGradient>
<linearGradient id="paint2_linear_6026_19819" x1="935.168" y1="237.933" x2="814.638" y2="237.933" gradientUnits="userSpaceOnUse">
<stop stop-color="#49BC77"/>
<stop offset="1" stop-color="#0D5F8D"/>
</linearGradient>
<linearGradient id="paint3_linear_6026_19819" x1="1033.27" y1="95.5773" x2="863.189" y2="95.5773" gradientUnits="userSpaceOnUse">
<stop stop-color="#39EC2A"/>
<stop offset="1" stop-color="#7EDEEC"/>
</linearGradient>
<linearGradient id="paint4_linear_6026_19819" x1="832.824" y1="316.772" x2="624.807" y2="316.772" gradientUnits="userSpaceOnUse">
<stop stop-color="#69D88F"/>
<stop offset="1" stop-color="#4D809E"/>
</linearGradient>
<linearGradient id="paint5_linear_6026_19819" x1="990.775" y1="287.309" x2="714.067" y2="286.139" gradientUnits="userSpaceOnUse">
<stop stop-color="#99F452" stop-opacity="0.68"/>
<stop offset="1" stop-color="#1DA858"/>
</linearGradient>
</defs>
</svg>
