<svg width="355" height="391" viewBox="0 0 355 391" fill="none" xmlns="http://www.w3.org/2000/svg">
<path d="M23.2904 117.028C23.2904 115.576 23.6624 114.448 24.4184 113.668C25.1744 112.888 26.1344 112.492 27.3104 112.492C28.4504 112.492 29.3624 112.852 30.0464 113.584L29.2424 114.604C28.7024 114.136 28.0424 113.896 27.2864 113.896C26.5664 113.896 25.9544 114.124 25.4624 114.592C24.9704 115.06 24.7184 115.708 24.7304 116.548C25.2584 115.78 26.2544 115.264 27.2744 115.264C29.2784 115.264 30.4784 116.368 30.4784 118.096C30.4784 118.984 30.1664 119.704 29.5424 120.268C28.9064 120.832 28.1024 121.108 27.1184 121.108C25.9544 121.108 25.0184 120.748 24.3344 120.04C23.6384 119.332 23.2904 118.324 23.2904 117.028ZM24.9584 117.94C25.1144 118.948 25.8344 119.716 27.1784 119.716C28.1984 119.716 28.9904 119.08 28.9904 118.168C28.9904 117.172 28.3304 116.62 27.1184 116.62C26.6264 116.62 26.1704 116.764 25.7384 117.052C25.3064 117.352 25.0424 117.64 24.9584 117.94Z" fill="#1A3341"/>
<path d="M46.195 77H44.791V75.404H40.039V74.468L44.995 68.6H46.195V74.12H47.623V75.404H46.195V77ZM44.791 70.892L41.959 74.12H44.791V70.892Z" fill="#1A3341"/>
<path d="M30.6058 176.068H30.9538C31.8658 176.068 32.5978 175.612 32.5978 174.928C32.5978 174.208 31.9498 173.824 30.7618 173.824C29.7058 173.824 28.9378 174.232 28.9378 174.916C28.9378 175.588 29.6098 176.068 30.6058 176.068ZM30.9298 177.304H30.6418C29.4538 177.304 28.6738 177.844 28.6738 178.528C28.6738 179.296 29.4658 179.788 30.7738 179.788C32.0578 179.788 32.8618 179.32 32.8618 178.552C32.8618 177.772 32.1658 177.304 30.9298 177.304ZM30.7858 181.096C29.7178 181.096 28.8418 180.88 28.1818 180.436C27.5218 180.004 27.1858 179.416 27.1858 178.66C27.1858 177.736 27.6898 176.968 28.5898 176.644C27.8338 176.32 27.4498 175.732 27.4498 174.856C27.4498 173.416 28.6978 172.504 30.7738 172.504C32.8978 172.504 34.0978 173.416 34.0978 174.856C34.0978 175.624 33.6538 176.32 32.8378 176.62C33.8578 176.872 34.3618 177.544 34.3618 178.612C34.3618 179.38 34.0258 179.98 33.3538 180.424C32.6818 180.868 31.8298 181.096 30.7858 181.096Z" fill="#1A3341"/>
<path d="M292.732 164.987C287.667 191.539 274.325 215.806 254.62 234.31C234.915 252.813 209.858 264.604 183.04 267.991L181.115 252.752C204.715 249.771 226.765 239.396 244.106 223.113C261.446 206.83 273.187 185.475 277.644 162.109L292.732 164.987Z" fill="url(#paint0_linear_4002_19891)"/>
<path d="M183.037 267.991C157.581 271.206 131.746 266.696 108.884 255.046C86.0228 243.397 67.1902 225.145 54.8301 202.66L68.2905 195.26C79.1674 215.047 95.7401 231.109 115.858 241.361C135.976 251.613 158.711 255.581 181.113 252.752L183.037 267.991Z" fill="url(#paint1_linear_4002_19891)"/>
<path d="M54.824 202.649C44.44 183.754 38.9969 162.542 39 140.982L54.36 140.984C54.3573 159.957 59.1472 178.623 68.2851 195.251L54.824 202.649Z" fill="#8BB6C2"/>
<path d="M47.9956 93.8625C51.9498 83.8796 57.1444 74.434 63.457 65.7482L75.8821 74.7784C70.327 82.4219 65.7558 90.7341 62.2761 99.519L47.9956 93.8625Z" fill="url(#paint2_linear_4002_19891)"/>
<path d="M39 141C39 124.867 42.0497 108.88 47.9886 93.8801L62.27 99.5345C57.0438 112.734 54.36 126.803 54.36 141L39 141Z" fill="#5A96A8"/>
<path d="M63.4484 65.76C66.601 61.421 70.0233 57.2845 73.695 53.3748L84.8916 63.8899C81.6605 67.3304 78.6489 70.9705 75.8745 74.7888L63.4484 65.76Z" fill="#0085D0"/>
<path d="M73.6805 53.3902C85.649 40.6418 100.103 30.4808 116.15 23.5341C132.197 16.5874 149.497 13.0023 166.983 13L166.985 28.36C151.597 28.362 136.373 31.5169 122.252 37.63C108.13 43.7431 95.4111 52.6848 84.8789 63.9034L73.6805 53.3902Z" fill="#184977"/>
<path d="M167 13C185.842 13 204.451 17.1597 221.5 25.1821C238.548 33.2046 253.615 44.8919 265.626 59.4097C277.636 73.9275 286.293 90.9178 290.979 109.168C295.664 127.417 296.263 146.477 292.733 164.985L277.645 162.107C280.752 145.82 280.225 129.047 276.101 112.988C271.978 96.9277 264.36 81.9762 253.791 69.2005C243.222 56.4249 229.962 46.14 214.96 39.0803C199.957 32.0205 183.581 28.36 167 28.36V13Z" fill="url(#paint3_linear_4002_19891)"/>
<path d="M260.62 31.766L259.36 31.262C259.78 29.822 261.064 29.018 262.708 29.018C264.616 29.018 265.732 30.014 265.732 31.502C265.732 32.594 265.264 33.482 264.436 34.25C264.016 34.646 263.44 35.09 262.708 35.606L261.748 36.158H265.996V37.502H259.48V36.434L261.376 35.054C261.436 35.006 261.604 34.874 261.904 34.646C262.204 34.418 262.396 34.262 262.492 34.178C262.588 34.094 262.756 33.95 263.008 33.746C263.248 33.542 263.416 33.374 263.524 33.242C263.716 33.002 264.064 32.582 264.172 32.246C264.22 32.078 264.244 31.91 264.244 31.73C264.244 30.914 263.656 30.41 262.684 30.41C261.64 30.41 260.956 30.986 260.62 31.766ZM269.838 32.57H270.186C271.098 32.57 271.83 32.114 271.83 31.43C271.83 30.71 271.182 30.326 269.994 30.326C268.938 30.326 268.17 30.734 268.17 31.418C268.17 32.09 268.842 32.57 269.838 32.57ZM270.162 33.806H269.874C268.686 33.806 267.906 34.346 267.906 35.03C267.906 35.798 268.698 36.29 270.006 36.29C271.29 36.29 272.094 35.822 272.094 35.054C272.094 34.274 271.398 33.806 270.162 33.806ZM270.018 37.598C268.95 37.598 268.074 37.382 267.414 36.938C266.754 36.506 266.418 35.918 266.418 35.162C266.418 34.238 266.922 33.47 267.822 33.146C267.066 32.822 266.682 32.234 266.682 31.358C266.682 29.918 267.93 29.006 270.006 29.006C272.13 29.006 273.33 29.918 273.33 31.358C273.33 32.126 272.886 32.822 272.07 33.122C273.09 33.374 273.594 34.046 273.594 35.114C273.594 35.882 273.258 36.482 272.586 36.926C271.914 37.37 271.062 37.598 270.018 37.598Z" fill="#1A3341"/>
<path d="M263.994 239.709L262.734 239.205C263.154 237.765 264.438 236.961 266.082 236.961C267.99 236.961 269.106 237.957 269.106 239.445C269.106 240.537 268.638 241.425 267.81 242.193C267.39 242.589 266.814 243.033 266.082 243.549L265.122 244.101H269.37V245.445H262.854V244.377L264.75 242.997C264.81 242.949 264.978 242.817 265.278 242.589C265.578 242.361 265.77 242.205 265.866 242.121C265.962 242.037 266.13 241.893 266.382 241.689C266.622 241.485 266.79 241.317 266.898 241.185C267.09 240.945 267.438 240.525 267.546 240.189C267.594 240.021 267.618 239.853 267.618 239.673C267.618 238.857 267.03 238.353 266.058 238.353C265.014 238.353 264.33 238.929 263.994 239.709ZM269.756 241.245C269.756 239.973 270.08 238.941 270.716 238.149C271.352 237.357 272.24 236.961 273.38 236.961C274.532 236.961 275.432 237.357 276.068 238.149C276.704 238.941 277.028 239.973 277.028 241.245C277.028 242.529 276.716 243.561 276.08 244.341C275.444 245.133 274.556 245.529 273.404 245.529C272.252 245.529 271.352 245.133 270.716 244.341C270.08 243.561 269.756 242.529 269.756 241.245ZM271.796 239.097C271.424 239.601 271.244 240.321 271.244 241.245C271.244 242.169 271.436 242.889 271.82 243.393C272.192 243.897 272.72 244.149 273.404 244.149C274.832 244.149 275.54 243.177 275.54 241.245C275.54 239.361 274.82 238.341 273.38 238.341C272.696 238.341 272.168 238.593 271.796 239.097Z" fill="#1A3341"/>
<path d="M83.8595 259.305L83.3675 258.105L86.1875 256.737H87.0995V265.161H85.7075V258.453L83.8595 259.305ZM95.109 260.733C95.109 262.209 94.749 263.325 94.029 264.105C93.297 264.885 92.361 265.269 91.209 265.269C90.069 265.269 89.157 264.909 88.473 264.177L89.277 263.157C89.817 263.625 90.477 263.865 91.233 263.865C91.941 263.865 92.517 263.637 92.973 263.181C93.429 262.737 93.657 262.137 93.657 261.381C93.237 262.017 92.241 262.449 91.185 262.449C90.213 262.449 89.433 262.197 88.857 261.681C88.281 261.165 87.993 260.493 87.993 259.665C87.993 258.789 88.317 258.069 88.977 257.505C89.637 256.941 90.417 256.653 91.341 256.653C92.481 256.653 93.405 257.013 94.089 257.721C94.773 258.429 95.109 259.437 95.109 260.733ZM93.489 259.977C93.477 259.485 93.285 259.041 92.901 258.645C92.505 258.249 91.989 258.045 91.353 258.045C90.849 258.045 90.417 258.189 90.045 258.477C89.673 258.765 89.481 259.137 89.481 259.593C89.481 260.553 90.249 261.141 91.353 261.141C91.809 261.141 92.265 261.021 92.709 260.769C93.153 260.517 93.405 260.253 93.489 259.977Z" fill="#1A3341"/>
<path d="M99.914 7.144L99.422 5.944L102.242 4.576H103.154V13H101.762V6.292L99.914 7.144ZM105.38 7L104.144 6.448C104.576 5.236 105.848 4.492 107.42 4.492C108.308 4.492 109.04 4.684 109.604 5.068C110.168 5.464 110.456 5.968 110.456 6.604C110.456 7.552 109.904 8.284 109.1 8.524C109.952 8.728 110.636 9.34 110.636 10.492C110.636 11.272 110.336 11.908 109.736 12.376C109.124 12.856 108.38 13.096 107.48 13.096C106.52 13.096 105.608 12.868 104.816 12.208C104.42 11.884 104.132 11.476 103.976 11.008L105.296 10.456C105.464 10.828 105.752 11.128 106.148 11.356C106.544 11.584 106.94 11.704 107.36 11.704C108.38 11.704 109.136 11.26 109.136 10.504C109.136 9.652 108.392 9.364 107.096 9.364H106.28V8.044H107.144C108.236 8.044 108.968 7.564 108.968 6.904C108.968 6.58 108.812 6.316 108.5 6.136C108.188 5.956 107.792 5.86 107.3 5.86C106.808 5.86 106.424 5.956 106.124 6.148C105.824 6.34 105.584 6.628 105.38 7Z" fill="#1A3341"/>
<path d="M57.202 47.264L55.942 46.76C56.362 45.32 57.646 44.516 59.29 44.516C61.198 44.516 62.314 45.512 62.314 47C62.314 48.092 61.846 48.98 61.018 49.748C60.598 50.144 60.022 50.588 59.29 51.104L58.33 51.656H62.578V53H56.062V51.932L57.958 50.552C58.018 50.504 58.186 50.372 58.486 50.144C58.786 49.916 58.978 49.76 59.074 49.676C59.17 49.592 59.338 49.448 59.59 49.244C59.83 49.04 59.998 48.872 60.106 48.74C60.298 48.5 60.646 48.08 60.754 47.744C60.802 47.576 60.826 47.408 60.826 47.228C60.826 46.412 60.238 45.908 59.266 45.908C58.222 45.908 57.538 46.484 57.202 47.264Z" fill="#1A3341"/>
<path d="M140.613 133.152V136H121.125V133.44L130.373 128.096C132.186 127.051 133.53 126.208 134.405 125.568C135.28 124.907 135.866 124.299 136.165 123.744C136.485 123.189 136.645 122.528 136.645 121.76V121.44C136.645 120.203 136.122 119.253 135.077 118.592C134.053 117.931 132.57 117.6 130.629 117.6C128.624 117.6 127.098 117.952 126.053 118.656C125.029 119.36 124.517 120.384 124.517 121.728V122.368H121.317V121.696C121.317 119.413 122.117 117.664 123.717 116.448C125.317 115.232 127.6 114.624 130.565 114.624C133.466 114.624 135.738 115.221 137.381 116.416C139.024 117.611 139.845 119.253 139.845 121.344V121.664C139.845 122.795 139.621 123.787 139.173 124.64C138.725 125.493 137.946 126.357 136.837 127.232C135.749 128.107 134.149 129.152 132.037 130.368L127.173 133.152H140.613ZM154.881 136.384C152.748 136.384 150.86 136 149.217 135.232C147.596 134.464 146.327 133.387 145.409 132C144.513 130.613 144.065 129.024 144.065 127.232V123.808C144.065 121.995 144.513 120.395 145.409 119.008C146.327 117.621 147.596 116.544 149.217 115.776C150.86 115.008 152.748 114.624 154.881 114.624C156.993 114.624 158.86 115.008 160.481 115.776C162.103 116.544 163.361 117.621 164.257 119.008C165.153 120.395 165.601 121.995 165.601 123.808V127.232C165.601 129.045 165.153 130.645 164.257 132.032C163.361 133.397 162.103 134.464 160.481 135.232C158.86 136 156.993 136.384 154.881 136.384ZM154.881 133.408C157.228 133.408 159.073 132.864 160.417 131.776C161.761 130.688 162.433 129.184 162.433 127.264V123.776C162.433 121.877 161.751 120.373 160.385 119.264C159.041 118.155 157.196 117.6 154.849 117.6C152.481 117.6 150.615 118.155 149.249 119.264C147.905 120.352 147.233 121.856 147.233 123.776V127.264C147.233 129.184 147.905 130.688 149.249 131.776C150.615 132.864 152.492 133.408 154.881 133.408ZM189.006 133.152V136H169.518V133.44L178.766 128.096C180.579 127.051 181.923 126.208 182.798 125.568C183.672 124.907 184.259 124.299 184.558 123.744C184.878 123.189 185.038 122.528 185.038 121.76V121.44C185.038 120.203 184.515 119.253 183.47 118.592C182.446 117.931 180.963 117.6 179.022 117.6C177.016 117.6 175.491 117.952 174.446 118.656C173.422 119.36 172.91 120.384 172.91 121.728V122.368H169.71V121.696C169.71 119.413 170.51 117.664 172.11 116.448C173.71 115.232 175.992 114.624 178.958 114.624C181.859 114.624 184.131 115.221 185.774 116.416C187.416 117.611 188.238 119.253 188.238 121.344V121.664C188.238 122.795 188.014 123.787 187.566 124.64C187.118 125.493 186.339 126.357 185.23 127.232C184.142 128.107 182.542 129.152 180.43 130.368L175.566 133.152H189.006ZM203.978 123.328C206.815 123.413 208.98 123.979 210.474 125.024C211.988 126.048 212.746 127.477 212.746 129.312V129.728C212.746 131.883 211.882 133.536 210.154 134.688C208.426 135.819 205.908 136.384 202.602 136.384C199.38 136.363 196.884 135.797 195.114 134.688C193.364 133.579 192.49 132.011 192.49 129.984V129.76H195.658V129.984C195.658 131.051 196.276 131.893 197.514 132.512C198.751 133.109 200.458 133.408 202.634 133.408C204.916 133.408 206.644 133.109 207.818 132.512C208.991 131.893 209.578 130.987 209.578 129.792V129.408C209.578 127.168 207.295 126.048 202.73 126.048H199.274V123.232L207.178 117.856H192.874V115.008H212.234V117.856L203.978 123.328Z" fill="#1A3341"/>
<path d="M86.4574 157.646V161H85.2744V151.9H88.8104C91.2934 151.9 92.5414 152.849 92.5414 154.76C92.5414 155.579 92.2424 156.268 91.6444 156.814C91.0334 157.373 90.0844 157.646 88.7974 157.646H86.4574ZM88.8624 153.005H86.4574V156.554H88.7714C90.4874 156.554 91.3194 155.878 91.3194 154.747C91.3194 153.59 90.5004 153.005 88.8624 153.005ZM94.1155 155.865L93.5565 155.046C94.1805 154.461 95.2595 154.084 96.2605 154.084C98.0675 154.084 99.0295 155.072 99.0295 156.827V161H97.9375V159.999C97.5085 160.623 96.6635 161.091 95.5715 161.091C94.1025 161.091 93.1145 160.272 93.1145 159.024C93.1145 157.607 94.3235 156.931 96.3515 156.931C96.9885 156.931 97.5085 156.996 97.9375 157.126C97.9375 155.813 97.4695 155.111 96.1305 155.111C95.4545 155.111 94.7785 155.358 94.1155 155.865ZM95.8315 160.103C96.3385 160.103 96.7935 159.96 97.1705 159.687C97.5475 159.414 97.7945 159.102 97.9375 158.777V158.088C97.5605 157.958 97.0795 157.893 96.4945 157.893C95.0125 157.893 94.2715 158.257 94.2715 158.985C94.2715 159.674 94.8955 160.103 95.8315 160.103ZM105.649 159.05L106.429 159.609C105.922 160.558 104.778 161.117 103.647 161.117C102.568 161.117 101.697 160.792 101.034 160.155C100.371 159.518 100.033 158.673 100.033 157.607C100.033 156.593 100.358 155.748 101.021 155.085C101.684 154.422 102.529 154.084 103.582 154.084C104.791 154.084 105.87 154.63 106.325 155.462L105.48 156.034C105.025 155.423 104.401 155.111 103.608 155.111C102.906 155.111 102.334 155.345 101.879 155.813C101.424 156.281 101.19 156.879 101.19 157.607C101.19 158.348 101.424 158.946 101.905 159.401C102.373 159.856 102.984 160.09 103.751 160.09C104.557 160.09 105.194 159.739 105.649 159.05ZM113.205 161H112.113V155.267H108.291V161H107.199V154.24H113.205V161ZM115.753 163.6H114.661V154.24H115.753V155.085C116.208 154.422 116.936 154.084 117.937 154.084C118.925 154.084 119.718 154.396 120.303 155.033C120.888 155.67 121.174 156.489 121.174 157.503C121.174 158.543 120.862 159.401 120.238 160.09C119.601 160.779 118.795 161.117 117.807 161.117C116.897 161.117 116.208 160.883 115.753 160.428V163.6ZM117.82 155.111C116.832 155.111 116.065 155.748 115.753 156.515V159.037C116.143 159.739 116.793 160.09 117.716 160.09C118.379 160.09 118.938 159.856 119.367 159.388C119.796 158.92 120.017 158.322 120.017 157.581C120.017 156.073 119.172 155.111 117.82 155.111ZM127.475 159.063L128.177 159.713C127.553 160.649 126.656 161.117 125.473 161.117C124.394 161.117 123.523 160.792 122.86 160.155C122.197 159.518 121.872 158.673 121.872 157.607C121.872 156.58 122.171 155.735 122.782 155.072C123.38 154.409 124.225 154.084 125.317 154.084C126.214 154.084 126.968 154.37 127.553 154.929C128.138 155.488 128.437 156.229 128.437 157.152C128.437 157.451 128.411 157.724 128.372 157.971H123.042C123.107 159.31 124.095 160.09 125.512 160.09C126.305 160.09 127.059 159.674 127.475 159.063ZM125.239 155.085C124.004 155.085 123.198 155.839 123.029 156.983H127.28C127.215 155.787 126.448 155.085 125.239 155.085ZM129.591 162.638H128.551V159.96H129.305C129.994 158.907 130.254 157.425 130.254 154.864V154.24H135.22V159.96H136.195V162.638H135.155V161H129.591V162.638ZM134.128 155.28H131.281V155.748C131.281 157.477 131.008 158.881 130.475 159.96H134.128V155.28ZM142.234 159.063L142.936 159.713C142.312 160.649 141.415 161.117 140.232 161.117C139.153 161.117 138.282 160.792 137.619 160.155C136.956 159.518 136.631 158.673 136.631 157.607C136.631 156.58 136.93 155.735 137.541 155.072C138.139 154.409 138.984 154.084 140.076 154.084C140.973 154.084 141.727 154.37 142.312 154.929C142.897 155.488 143.196 156.229 143.196 157.152C143.196 157.451 143.17 157.724 143.131 157.971H137.801C137.866 159.31 138.854 160.09 140.271 160.09C141.064 160.09 141.818 159.674 142.234 159.063ZM139.998 155.085C138.763 155.085 137.957 155.839 137.788 156.983H142.039C141.974 155.787 141.207 155.085 139.998 155.085ZM150.003 161H148.911V155.28H146.051V155.592C146.051 157.776 145.804 159.284 145.31 160.064C144.816 160.844 144.205 161.104 143.36 161V159.96C144.231 159.96 144.959 159.583 144.959 155.631V154.24H150.003V161ZM156.688 159.063L157.39 159.713C156.766 160.649 155.869 161.117 154.686 161.117C153.607 161.117 152.736 160.792 152.073 160.155C151.41 159.518 151.085 158.673 151.085 157.607C151.085 156.58 151.384 155.735 151.995 155.072C152.593 154.409 153.438 154.084 154.53 154.084C155.427 154.084 156.181 154.37 156.766 154.929C157.351 155.488 157.65 156.229 157.65 157.152C157.65 157.451 157.624 157.724 157.585 157.971H152.255C152.32 159.31 153.308 160.09 154.725 160.09C155.518 160.09 156.272 159.674 156.688 159.063ZM154.452 155.085C153.217 155.085 152.411 155.839 152.242 156.983H156.493C156.428 155.787 155.661 155.085 154.452 155.085ZM164.817 161H163.725V158.075H159.825V161H158.733V154.24H159.825V157.048H163.725V154.24H164.817V161ZM171.393 155.943L167.272 161H166.271V154.24H167.363V159.31L171.471 154.24H172.485V161H171.393V155.943ZM179.162 159.063L179.864 159.713C179.24 160.649 178.343 161.117 177.16 161.117C176.081 161.117 175.21 160.792 174.547 160.155C173.884 159.518 173.559 158.673 173.559 157.607C173.559 156.58 173.858 155.735 174.469 155.072C175.067 154.409 175.912 154.084 177.004 154.084C177.901 154.084 178.655 154.37 179.24 154.929C179.825 155.488 180.124 156.229 180.124 157.152C180.124 157.451 180.098 157.724 180.059 157.971H174.729C174.794 159.31 175.782 160.09 177.199 160.09C177.992 160.09 178.746 159.674 179.162 159.063ZM176.926 155.085C175.691 155.085 174.885 155.839 174.716 156.983H178.967C178.902 155.787 178.135 155.085 176.926 155.085ZM190.981 161H189.889V155.267H186.067V161H184.975V154.24H190.981V161ZM197.663 159.063L198.365 159.713C197.741 160.649 196.844 161.117 195.661 161.117C194.582 161.117 193.711 160.792 193.048 160.155C192.385 159.518 192.06 158.673 192.06 157.607C192.06 156.58 192.359 155.735 192.97 155.072C193.568 154.409 194.413 154.084 195.505 154.084C196.402 154.084 197.156 154.37 197.741 154.929C198.326 155.488 198.625 156.229 198.625 157.152C198.625 157.451 198.599 157.724 198.56 157.971H193.23C193.295 159.31 194.283 160.09 195.7 160.09C196.493 160.09 197.247 159.674 197.663 159.063ZM195.427 155.085C194.192 155.085 193.386 155.839 193.217 156.983H197.468C197.403 155.787 196.636 155.085 195.427 155.085ZM200.8 163.6H199.708V154.24H200.8V155.085C201.255 154.422 201.983 154.084 202.984 154.084C203.972 154.084 204.765 154.396 205.35 155.033C205.935 155.67 206.221 156.489 206.221 157.503C206.221 158.543 205.909 159.401 205.285 160.09C204.648 160.779 203.842 161.117 202.854 161.117C201.944 161.117 201.255 160.883 200.8 160.428V163.6ZM202.867 155.111C201.879 155.111 201.112 155.748 200.8 156.515V159.037C201.19 159.739 201.84 160.09 202.763 160.09C203.426 160.09 203.985 159.856 204.414 159.388C204.843 158.92 205.064 158.322 205.064 157.581C205.064 156.073 204.219 155.111 202.867 155.111ZM212.523 159.063L213.225 159.713C212.601 160.649 211.704 161.117 210.521 161.117C209.442 161.117 208.571 160.792 207.908 160.155C207.245 159.518 206.92 158.673 206.92 157.607C206.92 156.58 207.219 155.735 207.83 155.072C208.428 154.409 209.273 154.084 210.365 154.084C211.262 154.084 212.016 154.37 212.601 154.929C213.186 155.488 213.485 156.229 213.485 157.152C213.485 157.451 213.459 157.724 213.42 157.971H208.09C208.155 159.31 209.143 160.09 210.56 160.09C211.353 160.09 212.107 159.674 212.523 159.063ZM210.287 155.085C209.052 155.085 208.246 155.839 208.077 156.983H212.328C212.263 155.787 211.496 155.085 210.287 155.085ZM217.584 161H214.568V154.24H217.376C219.261 154.24 220.145 154.721 220.145 155.969C220.145 156.593 219.859 157.087 219.274 157.438C220.002 157.659 220.366 158.192 220.366 159.063C220.366 160.324 219.365 161 217.584 161ZM217.597 158.049H215.66V159.986H217.467C218.624 159.986 219.209 159.661 219.209 159.011C219.209 158.374 218.676 158.049 217.597 158.049ZM217.337 155.254H215.66V157.061H217.714C218.507 157.061 218.988 156.736 218.988 156.125C218.988 155.436 218.429 155.254 217.337 155.254ZM221.082 157.607C221.082 156.58 221.42 155.735 222.083 155.072C222.746 154.409 223.604 154.084 224.657 154.084C225.723 154.084 226.594 154.409 227.257 155.072C227.92 155.735 228.258 156.58 228.258 157.607C228.258 158.634 227.92 159.466 227.257 160.129C226.581 160.792 225.71 161.117 224.657 161.117C223.604 161.117 222.746 160.792 222.083 160.129C221.42 159.466 221.082 158.634 221.082 157.607ZM222.239 157.607C222.239 158.322 222.46 158.92 222.915 159.388C223.37 159.856 223.942 160.09 224.657 160.09C225.372 160.09 225.97 159.856 226.425 159.401C226.88 158.946 227.101 158.348 227.101 157.607C227.101 156.866 226.867 156.268 226.412 155.8C225.944 155.345 225.359 155.111 224.657 155.111C223.955 155.111 223.383 155.345 222.928 155.8C222.473 156.255 222.239 156.866 222.239 157.607ZM231.783 161.13C230.392 161.13 229.365 160.61 228.728 159.583L229.586 158.985C229.963 159.674 230.795 160.116 231.796 160.116C232.875 160.116 233.642 159.674 233.642 158.946C233.642 158.348 233.187 158.049 232.29 158.049H230.704V157.061H232.212C232.875 157.061 233.395 156.671 233.395 156.086C233.395 155.449 232.719 155.085 231.744 155.085C230.925 155.085 230.249 155.397 229.742 156.034L228.936 155.501C229.391 154.721 230.431 154.071 231.848 154.071C233.551 154.071 234.552 154.786 234.552 155.917C234.552 156.554 234.279 157.048 233.746 157.373C234.526 157.75 234.799 158.205 234.799 158.92C234.799 159.609 234.513 160.142 233.954 160.532C233.395 160.935 232.667 161.13 231.783 161.13ZM235.51 157.607C235.51 156.58 235.848 155.735 236.511 155.072C237.174 154.409 238.032 154.084 239.085 154.084C240.151 154.084 241.022 154.409 241.685 155.072C242.348 155.735 242.686 156.58 242.686 157.607C242.686 158.634 242.348 159.466 241.685 160.129C241.009 160.792 240.138 161.117 239.085 161.117C238.032 161.117 237.174 160.792 236.511 160.129C235.848 159.466 235.51 158.634 235.51 157.607ZM236.667 157.607C236.667 158.322 236.888 158.92 237.343 159.388C237.798 159.856 238.37 160.09 239.085 160.09C239.8 160.09 240.398 159.856 240.853 159.401C241.308 158.946 241.529 158.348 241.529 157.607C241.529 156.866 241.295 156.268 240.84 155.8C240.372 155.345 239.787 155.111 239.085 155.111C238.383 155.111 237.811 155.345 237.356 155.8C236.901 156.255 236.667 156.866 236.667 157.607ZM244.86 161H243.768V154.24H244.86V157.269L248.279 154.24H249.748L246.251 157.347L249.917 161H248.461L245.419 158.023L244.86 158.543V161ZM126.369 177H125.277V171.267H121.455V177H120.363V170.24H126.369V177ZM127.447 173.607C127.447 172.58 127.785 171.735 128.448 171.072C129.111 170.409 129.969 170.084 131.022 170.084C132.088 170.084 132.959 170.409 133.622 171.072C134.285 171.735 134.623 172.58 134.623 173.607C134.623 174.634 134.285 175.466 133.622 176.129C132.946 176.792 132.075 177.117 131.022 177.117C129.969 177.117 129.111 176.792 128.448 176.129C127.785 175.466 127.447 174.634 127.447 173.607ZM128.604 173.607C128.604 174.322 128.825 174.92 129.28 175.388C129.735 175.856 130.307 176.09 131.022 176.09C131.737 176.09 132.335 175.856 132.79 175.401C133.245 174.946 133.466 174.348 133.466 173.607C133.466 172.866 133.232 172.268 132.777 171.8C132.309 171.345 131.724 171.111 131.022 171.111C130.32 171.111 129.748 171.345 129.293 171.8C128.838 172.255 128.604 172.866 128.604 173.607ZM145.479 177H144.387V171.267H140.565V177H139.473V170.24H145.479V177ZM148.026 179.6H146.934V170.24H148.026V171.085C148.481 170.422 149.209 170.084 150.21 170.084C151.198 170.084 151.991 170.396 152.576 171.033C153.161 171.67 153.447 172.489 153.447 173.503C153.447 174.543 153.135 175.401 152.511 176.09C151.874 176.779 151.068 177.117 150.08 177.117C149.17 177.117 148.481 176.883 148.026 176.428V179.6ZM150.093 171.111C149.105 171.111 148.338 171.748 148.026 172.515V175.037C148.416 175.739 149.066 176.09 149.989 176.09C150.652 176.09 151.211 175.856 151.64 175.388C152.069 174.92 152.29 174.322 152.29 173.581C152.29 172.073 151.445 171.111 150.093 171.111ZM154.146 173.607C154.146 172.58 154.484 171.735 155.147 171.072C155.81 170.409 156.668 170.084 157.721 170.084C158.787 170.084 159.658 170.409 160.321 171.072C160.984 171.735 161.322 172.58 161.322 173.607C161.322 174.634 160.984 175.466 160.321 176.129C159.645 176.792 158.774 177.117 157.721 177.117C156.668 177.117 155.81 176.792 155.147 176.129C154.484 175.466 154.146 174.634 154.146 173.607ZM155.303 173.607C155.303 174.322 155.524 174.92 155.979 175.388C156.434 175.856 157.006 176.09 157.721 176.09C158.436 176.09 159.034 175.856 159.489 175.401C159.944 174.946 160.165 174.348 160.165 173.607C160.165 172.866 159.931 172.268 159.476 171.8C159.008 171.345 158.423 171.111 157.721 171.111C157.019 171.111 156.447 171.345 155.992 171.8C155.537 172.255 155.303 172.866 155.303 173.607ZM165.42 177H162.404V170.24H165.212C167.097 170.24 167.981 170.721 167.981 171.969C167.981 172.593 167.695 173.087 167.11 173.438C167.838 173.659 168.202 174.192 168.202 175.063C168.202 176.324 167.201 177 165.42 177ZM165.433 174.049H163.496V175.986H165.303C166.46 175.986 167.045 175.661 167.045 175.011C167.045 174.374 166.512 174.049 165.433 174.049ZM165.173 171.254H163.496V173.061H165.55C166.343 173.061 166.824 172.736 166.824 172.125C166.824 171.436 166.265 171.254 165.173 171.254ZM174.416 171.943L170.295 177H169.294V170.24H170.386V175.31L174.494 170.24H175.508V177H174.416V171.943ZM183.043 177H181.951V174.075H178.051V177H176.959V170.24H178.051V173.048H181.951V170.24H183.043V177ZM190.386 177H184.497V170.24H185.589V175.96H189.372V170.24H190.464V175.96H191.413V178.638H190.386V177ZM197.36 171.943L193.239 177H192.238V170.24H193.33V175.31L197.438 170.24H198.452V177H197.36V171.943ZM202.594 170.24H205.311V177H204.219V174.608H202.568L200.566 177H199.24L201.398 174.439C200.358 174.244 199.669 173.451 199.669 172.411C199.669 171.124 200.566 170.24 202.594 170.24ZM200.826 172.437C200.826 173.1 201.45 173.568 202.438 173.568H204.219V171.28H202.464C201.372 171.28 200.826 171.67 200.826 172.437ZM207.86 177H206.768V170.24H207.769L210.265 173.542L212.696 170.24H213.632V177H212.54V172.164L210.252 175.284L207.86 172.164V177Z" fill="#3C525E"/>
<g opacity="0.8">
<rect opacity="0.9" y="337" width="10" height="10" fill="url(#paint4_linear_4002_19891)"/>
</g>
<path d="M25.404 343.936L26.028 344.632C25.392 345.532 24.12 346.108 22.764 346.108C21.444 346.108 20.388 345.712 19.608 344.932C18.828 344.152 18.432 343.108 18.432 341.8C18.432 340.564 18.828 339.544 19.608 338.716C20.388 337.9 21.408 337.492 22.68 337.492C24.12 337.492 25.296 338.068 25.908 338.884L25.2 339.568C24.516 338.884 23.676 338.536 22.704 338.536C21.732 338.536 20.976 338.836 20.412 339.436C19.848 340.036 19.572 340.828 19.572 341.8C19.572 342.784 19.872 343.576 20.472 344.164C21.072 344.764 21.864 345.064 22.836 345.064C23.88 345.064 24.732 344.692 25.404 343.936ZM31.7217 341.332L27.9177 346H26.9937V339.76H28.0017V344.44L31.7937 339.76H32.7297V346H31.7217V341.332ZM34.669 341.26L34.153 340.504C34.729 339.964 35.725 339.616 36.649 339.616C38.317 339.616 39.205 340.528 39.205 342.148V346H38.197V345.076C37.801 345.652 37.021 346.084 36.013 346.084C34.657 346.084 33.745 345.328 33.745 344.176C33.745 342.868 34.861 342.244 36.733 342.244C37.321 342.244 37.801 342.304 38.197 342.424C38.197 341.212 37.765 340.564 36.529 340.564C35.905 340.564 35.281 340.792 34.669 341.26ZM36.253 345.172C36.721 345.172 37.141 345.04 37.489 344.788C37.837 344.536 38.065 344.248 38.197 343.948V343.312C37.849 343.192 37.405 343.132 36.865 343.132C35.497 343.132 34.813 343.468 34.813 344.14C34.813 344.776 35.389 345.172 36.253 345.172ZM46.2152 346H45.2072V343.3H41.6072V346H40.5992V339.76H41.6072V342.352H45.2072V339.76H46.2152V346ZM50.1973 346H47.6773V339.76H48.6853V341.704H50.2933C51.9973 341.704 52.8493 342.412 52.8493 343.84C52.8493 345.1 52.0573 346 50.1973 346ZM50.1613 342.664H48.6853V345.04H50.1613C51.3133 345.04 51.7813 344.632 51.7813 343.852C51.7813 343.06 51.2413 342.664 50.1613 342.664Z" fill="#1A3341" fill-opacity="0.6"/>
<rect width="10" height="10" transform="translate(0 357)" fill="#60CCCC"/>
<rect opacity="0.7" y="357" width="10" height="10" fill="#60CCCC"/>
<path d="M24.24 357.6H25.332V366H24.24V362.424C23.988 362.58 23.628 362.724 23.172 362.844C22.716 362.964 22.272 363.024 21.828 363.024C20.856 363.024 20.076 362.796 19.464 362.34C18.852 361.884 18.552 361.188 18.552 360.264V357.6H19.644V359.736C19.644 361.248 20.436 362.004 22.02 362.004C22.752 362.004 23.496 361.788 24.24 361.368V357.6ZM27.0908 368.376L27.4868 367.5C27.5828 367.536 27.6668 367.56 27.7508 367.56C28.2188 367.56 28.5428 367.236 28.9628 366.24L29.1548 365.772L26.1308 359.76H27.3188L29.6588 364.5L31.4228 359.76H32.5268L30.1508 365.904C29.7428 366.912 29.3588 367.596 29.0108 367.968C28.6508 368.34 28.2428 368.52 27.7868 368.52C27.5228 368.52 27.2948 368.472 27.0908 368.376ZM38.8207 366H37.8127V363.3H34.2127V366H33.2047V359.76H34.2127V362.352H37.8127V359.76H38.8207V366ZM45.7188 366H40.2828V359.76H41.2908V365.04H44.7828V359.76H45.7908V365.04H46.6668V367.512H45.7188V366ZM52.2764 361.332L48.4724 366H47.5484V359.76H48.5564V364.44L52.3484 359.76H53.2844V366H52.2764V361.332ZM60.3597 366H59.3517V363.3H55.7517V366H54.7437V359.76H55.7517V362.352H59.3517V359.76H60.3597V366Z" fill="#1A3341" fill-opacity="0.6"/>
<rect width="10" height="10" transform="translate(0 377)" fill="url(#paint5_linear_4002_19891)"/>
<path d="M24.24 377.6H25.332V386H24.24V382.424C23.988 382.58 23.628 382.724 23.172 382.844C22.716 382.964 22.272 383.024 21.828 383.024C20.856 383.024 20.076 382.796 19.464 382.34C18.852 381.884 18.552 381.188 18.552 380.264V377.6H19.644V379.736C19.644 381.248 20.436 382.004 22.02 382.004C22.752 382.004 23.496 381.788 24.24 381.368V377.6ZM31.2788 383.264H28.1588V382.352H31.2548C31.0988 381.164 30.2948 380.564 29.0948 380.564C28.1948 380.564 27.5228 380.9 27.0788 381.56L26.3108 381.02C26.9708 380.084 27.9068 379.616 29.1188 379.616C30.1148 379.616 30.8948 379.904 31.4828 380.492C32.0588 381.08 32.3468 381.872 32.3468 382.868C32.3468 383.816 32.0588 384.596 31.4828 385.196C30.9068 385.808 30.1148 386.108 29.1188 386.108C27.7868 386.108 26.8628 385.676 26.3228 384.812L27.0788 384.248C27.4988 384.86 28.1588 385.16 29.0348 385.16C30.2948 385.16 31.1708 384.38 31.2788 383.264ZM39.0785 386H38.0705V383.3H34.4705V386H33.4625V379.76H34.4705V382.352H38.0705V379.76H39.0785V386ZM40.8166 387.512H39.8566V385.04H40.5526C41.1886 384.068 41.4286 382.7 41.4286 380.336V379.76H46.0126V385.04H46.9126V387.512H45.9526V386H40.8166V387.512ZM45.0046 380.72H42.3766V381.152C42.3766 382.748 42.1246 384.044 41.6326 385.04H45.0046V380.72ZM47.9268 388.376L48.3228 387.5C48.4188 387.536 48.5028 387.56 48.5868 387.56C49.0548 387.56 49.3788 387.236 49.7988 386.24L49.9908 385.772L46.9668 379.76H48.1548L50.4948 384.5L52.2588 379.76H53.3628L50.9868 385.904C50.5788 386.912 50.1948 387.596 49.8468 387.968C49.4868 388.34 49.0788 388.52 48.6228 388.52C48.3588 388.52 48.1308 388.472 47.9268 388.376Z" fill="#1A3341" fill-opacity="0.6"/>
<rect width="10" height="10" transform="translate(121 337)" fill="#5A96A8"/>
<rect opacity="0.5" x="121" y="337" width="10" height="10" fill="url(#paint6_linear_4002_19891)"/>
<path d="M145.24 337.6H146.332V346H145.24V342.424C144.988 342.58 144.628 342.724 144.172 342.844C143.716 342.964 143.272 343.024 142.828 343.024C141.856 343.024 141.076 342.796 140.464 342.34C139.852 341.884 139.552 341.188 139.552 340.264V337.6H140.644V339.736C140.644 341.248 141.436 342.004 143.02 342.004C143.752 342.004 144.496 341.788 145.24 341.368V337.6ZM147.215 346L149.927 342.64L147.275 339.76H148.559L151.091 342.484V339.76H152.099V342.484L154.667 339.76H155.915L153.239 342.616L156.023 346H154.775L152.507 343.228L152.099 343.612V346H151.091V343.624L150.659 343.276L148.439 346H147.215ZM161.091 343.264H157.971V342.352H161.067C160.911 341.164 160.107 340.564 158.907 340.564C158.007 340.564 157.335 340.9 156.891 341.56L156.123 341.02C156.783 340.084 157.719 339.616 158.931 339.616C159.927 339.616 160.707 339.904 161.295 340.492C161.871 341.08 162.159 341.872 162.159 342.868C162.159 343.816 161.871 344.596 161.295 345.196C160.719 345.808 159.927 346.108 158.931 346.108C157.599 346.108 156.675 345.676 156.135 344.812L156.891 344.248C157.311 344.86 157.971 345.16 158.847 345.16C160.107 345.16 160.983 344.38 161.091 343.264ZM168.891 346H167.883V343.3H164.283V346H163.275V339.76H164.283V342.352H167.883V339.76H168.891V346ZM174.397 339.76H175.405V346H174.397V343.372C173.941 343.828 173.305 344.056 172.489 344.056C170.845 344.056 170.029 343.228 170.029 341.572V339.76H171.037V341.296C171.037 342.556 171.565 343.096 172.669 343.096C173.389 343.096 174.073 342.712 174.397 342.244V339.76ZM176.137 346L178.849 342.64L176.197 339.76H177.481L180.013 342.484V339.76H181.021V342.484L183.589 339.76H184.837L182.161 342.616L184.945 346H183.697L181.429 343.228L181.021 343.612V346H180.013V343.624L179.581 343.276L177.361 346H176.137ZM184.97 342.868C184.97 341.92 185.282 341.14 185.894 340.528C186.506 339.916 187.298 339.616 188.27 339.616C189.254 339.616 190.058 339.916 190.67 340.528C191.282 341.14 191.594 341.92 191.594 342.868C191.594 343.816 191.282 344.584 190.67 345.196C190.046 345.808 189.242 346.108 188.27 346.108C187.298 346.108 186.506 345.808 185.894 345.196C185.282 344.584 184.97 343.816 184.97 342.868ZM186.038 342.868C186.038 343.528 186.242 344.08 186.662 344.512C187.082 344.944 187.61 345.16 188.27 345.16C188.93 345.16 189.482 344.944 189.902 344.524C190.322 344.104 190.526 343.552 190.526 342.868C190.526 342.184 190.31 341.632 189.89 341.2C189.458 340.78 188.918 340.564 188.27 340.564C187.622 340.564 187.094 340.78 186.674 341.2C186.254 341.62 186.038 342.184 186.038 342.868ZM192.599 348.376L192.995 347.5C193.091 347.536 193.175 347.56 193.259 347.56C193.727 347.56 194.051 347.236 194.471 346.24L194.663 345.772L191.639 339.76H192.827L195.167 344.5L196.931 339.76H198.035L195.659 345.904C195.251 346.912 194.867 347.596 194.519 347.968C194.159 348.34 193.751 348.52 193.295 348.52C193.031 348.52 192.803 348.472 192.599 348.376Z" fill="#1A3341" fill-opacity="0.6"/>
<g opacity="0.8">
<rect width="10" height="10" transform="translate(121 357)" fill="#5A96A8"/>
</g>
<path d="M145.912 359.496L140.812 366H139.888V357.6H140.98V364.104L146.068 357.6H147.004V366H145.912V359.496ZM151.422 366H148.638V359.76H151.23C152.97 359.76 153.786 360.204 153.786 361.356C153.786 361.932 153.522 362.388 152.982 362.712C153.654 362.916 153.99 363.408 153.99 364.212C153.99 365.376 153.066 366 151.422 366ZM151.434 363.276H149.646V365.064H151.314C152.382 365.064 152.922 364.764 152.922 364.164C152.922 363.576 152.43 363.276 151.434 363.276ZM151.194 360.696H149.646V362.364H151.542C152.274 362.364 152.718 362.064 152.718 361.5C152.718 360.864 152.202 360.696 151.194 360.696ZM155.263 368.376L155.659 367.5C155.755 367.536 155.839 367.56 155.923 367.56C156.391 367.56 156.715 367.236 157.135 366.24L157.327 365.772L154.303 359.76H155.491L157.831 364.5L159.595 359.76H160.699L158.323 365.904C157.915 366.912 157.531 367.596 157.183 367.968C156.823 368.34 156.415 368.52 155.959 368.52C155.695 368.52 155.467 368.472 155.263 368.376Z" fill="#1A3341" fill-opacity="0.6"/>
<rect width="10" height="10" transform="translate(121 377)" fill="url(#paint7_linear_4002_19891)"/>
<rect opacity="0.7" x="121" y="377" width="10" height="10" fill="#F7F7F8"/>
<path d="M141.088 385.664L141.628 384.86C141.748 384.944 141.88 384.992 142.012 384.992C142.336 384.992 142.66 384.632 143.008 383.912L138.94 377.6H140.248L143.572 382.796L146.056 377.6H147.184L144.04 384.08C143.416 385.388 142.84 386 141.976 386C141.604 386 141.316 385.892 141.088 385.664ZM151.669 379.76H152.893L150.505 382.772L153.013 386H151.753L149.821 383.492L147.865 386H146.665L149.161 382.784L146.797 379.76H148.057L149.857 382.052L151.669 379.76ZM154.263 381.26L153.747 380.504C154.323 379.964 155.319 379.616 156.243 379.616C157.911 379.616 158.799 380.528 158.799 382.148V386H157.791V385.076C157.395 385.652 156.615 386.084 155.607 386.084C154.251 386.084 153.339 385.328 153.339 384.176C153.339 382.868 154.455 382.244 156.327 382.244C156.915 382.244 157.395 382.304 157.791 382.424C157.791 381.212 157.359 380.564 156.123 380.564C155.499 380.564 154.875 380.792 154.263 381.26ZM155.847 385.172C156.315 385.172 156.735 385.04 157.083 384.788C157.431 384.536 157.659 384.248 157.791 383.948V383.312C157.443 383.192 156.999 383.132 156.459 383.132C155.091 383.132 154.407 383.468 154.407 384.14C154.407 384.776 154.983 385.172 155.847 385.172ZM165.809 386H164.801V383.3H161.201V386H160.193V379.76H161.201V382.352H164.801V379.76H165.809V386ZM169.791 386H167.271V379.76H168.279V381.704H169.887C171.591 381.704 172.443 382.412 172.443 383.84C172.443 385.1 171.651 386 169.791 386ZM169.755 382.664H168.279V385.04H169.755C170.907 385.04 171.375 384.632 171.375 383.852C171.375 383.06 170.835 382.664 169.755 382.664Z" fill="#1A3341" fill-opacity="0.6"/>
<rect width="10" height="10" transform="translate(242 337)" fill="#0085D0"/>
<rect opacity="0.6" x="242" y="337" width="10" height="10" fill="url(#paint8_linear_4002_19891)"/>
<path d="M266.348 337.6H267.668L264.632 341.728L267.764 346H266.456L263.96 342.604L261.464 346H260.156L263.3 341.728L260.288 337.6H261.584L263.972 340.852L266.348 337.6ZM272.986 343.264H269.866V342.352H272.962C272.806 341.164 272.002 340.564 270.802 340.564C269.902 340.564 269.23 340.9 268.786 341.56L268.018 341.02C268.678 340.084 269.614 339.616 270.826 339.616C271.822 339.616 272.602 339.904 273.19 340.492C273.766 341.08 274.054 341.872 274.054 342.868C274.054 343.816 273.766 344.596 273.19 345.196C272.614 345.808 271.822 346.108 270.826 346.108C269.494 346.108 268.57 345.676 268.03 344.812L268.786 344.248C269.206 344.86 269.866 345.16 270.742 345.16C272.002 345.16 272.878 344.38 272.986 343.264ZM279.226 348.4H278.218V346.12H278.146C277.102 346.12 276.286 345.82 275.698 345.22C275.098 344.62 274.798 343.84 274.798 342.892C274.798 341.992 275.098 341.236 275.698 340.6C276.298 339.964 277.114 339.652 278.134 339.652H278.218V337.24H279.226V339.652H279.322C280.318 339.652 281.134 339.952 281.746 340.564C282.358 341.176 282.658 341.956 282.658 342.892C282.658 343.84 282.358 344.62 281.77 345.22C281.17 345.82 280.342 346.12 279.298 346.12H279.226V348.4ZM275.866 342.892C275.866 344.284 276.67 345.16 278.146 345.16H278.218V340.612H278.134C276.682 340.612 275.866 341.536 275.866 342.892ZM279.298 340.612H279.226V345.16H279.298C280.798 345.16 281.59 344.296 281.59 342.892C281.59 341.56 280.75 340.612 279.298 340.612ZM288.08 343.264H284.96V342.352H288.056C287.9 341.164 287.096 340.564 285.896 340.564C284.996 340.564 284.324 340.9 283.88 341.56L283.112 341.02C283.772 340.084 284.708 339.616 285.92 339.616C286.916 339.616 287.696 339.904 288.284 340.492C288.86 341.08 289.148 341.872 289.148 342.868C289.148 343.816 288.86 344.596 288.284 345.196C287.708 345.808 286.916 346.108 285.92 346.108C284.588 346.108 283.664 345.676 283.124 344.812L283.88 344.248C284.3 344.86 284.96 345.16 285.836 345.16C287.096 345.16 287.972 344.38 288.08 343.264ZM294.991 341.332L291.187 346H290.263V339.76H291.271V344.44L295.063 339.76H295.999V346H294.991V341.332ZM291.223 337.072H292.171C292.183 337.66 292.567 338.056 293.239 338.056C293.875 338.056 294.271 337.66 294.271 337.072H295.219C295.207 338.164 294.355 338.86 293.239 338.86C292.039 338.86 291.235 338.176 291.223 337.072Z" fill="#1A3341" fill-opacity="0.6"/>
<rect width="10" height="10" transform="translate(242 357)" fill="#184977"/>
<rect opacity="0.5" x="242" y="357" width="10" height="10" fill="#184977"/>
<path d="M268.028 366H266.936V358.62H261.98V366H260.888V357.6H268.028V366ZM270.658 368.4H269.65V359.76H270.658V360.54C271.078 359.928 271.75 359.616 272.674 359.616C273.586 359.616 274.318 359.904 274.858 360.492C275.398 361.08 275.662 361.836 275.662 362.772C275.662 363.732 275.374 364.524 274.798 365.16C274.21 365.796 273.466 366.108 272.554 366.108C271.714 366.108 271.078 365.892 270.658 365.472V368.4ZM272.566 360.564C271.654 360.564 270.946 361.152 270.658 361.86V364.188C271.018 364.836 271.618 365.16 272.47 365.16C273.082 365.16 273.598 364.944 273.994 364.512C274.39 364.08 274.594 363.528 274.594 362.844C274.594 361.452 273.814 360.564 272.566 360.564ZM276.427 362.868C276.427 361.92 276.739 361.14 277.351 360.528C277.963 359.916 278.755 359.616 279.727 359.616C280.711 359.616 281.515 359.916 282.127 360.528C282.739 361.14 283.051 361.92 283.051 362.868C283.051 363.816 282.739 364.584 282.127 365.196C281.503 365.808 280.699 366.108 279.727 366.108C278.755 366.108 277.963 365.808 277.351 365.196C276.739 364.584 276.427 363.816 276.427 362.868ZM277.495 362.868C277.495 363.528 277.699 364.08 278.119 364.512C278.539 364.944 279.067 365.16 279.727 365.16C280.387 365.16 280.939 364.944 281.359 364.524C281.779 364.104 281.983 363.552 281.983 362.868C281.983 362.184 281.767 361.632 281.347 361.2C280.915 360.78 280.375 360.564 279.727 360.564C279.079 360.564 278.551 360.78 278.131 361.2C277.711 361.62 277.495 362.184 277.495 362.868ZM288.214 359.76H289.222V366H288.214V363.372C287.758 363.828 287.122 364.056 286.306 364.056C284.662 364.056 283.846 363.228 283.846 361.572V359.76H284.854V361.296C284.854 362.556 285.382 363.096 286.486 363.096C287.206 363.096 287.89 362.712 288.214 362.244V359.76ZM295.413 361.332L291.609 366H290.685V359.76H291.693V364.44L295.485 359.76H296.421V366H295.413V361.332ZM302.704 364.212L303.352 364.812C302.776 365.676 301.948 366.108 300.856 366.108C299.86 366.108 299.056 365.808 298.444 365.22C297.832 364.632 297.532 363.852 297.532 362.868C297.532 361.92 297.808 361.14 298.372 360.528C298.924 359.916 299.704 359.616 300.712 359.616C301.54 359.616 302.236 359.88 302.776 360.396C303.316 360.912 303.592 361.596 303.592 362.448C303.592 362.724 303.568 362.976 303.532 363.204H298.612C298.672 364.44 299.584 365.16 300.892 365.16C301.624 365.16 302.32 364.776 302.704 364.212ZM300.64 360.54C299.5 360.54 298.756 361.236 298.6 362.292H302.524C302.464 361.188 301.756 360.54 300.64 360.54Z" fill="#1A3341" fill-opacity="0.6"/>
<rect y="317" width="335" height="1" fill="#ABBEC9"/>
<defs>
<linearGradient id="paint0_linear_4002_19891" x1="295" y1="141" x2="153.666" y2="291.927" gradientUnits="userSpaceOnUse">
<stop offset="0" stop-color="#43C3BB"/>
<stop offset="1" stop-color="#78CCD1"/>
</linearGradient>
<linearGradient id="paint1_linear_4002_19891" x1="167" y1="269" x2="167" y2="13" gradientUnits="userSpaceOnUse">
<stop offset="0" stop-color="#CDE3E9"/>
<stop offset="1" stop-color="#D3E8ED"/>
</linearGradient>
<linearGradient id="paint2_linear_4002_19891" x1="167" y1="19.2136" x2="64.6" y2="64.2001" gradientUnits="userSpaceOnUse">
<stop offset="0" stop-color="#B7C6EF"/>
<stop offset="0.558752" stop-color="#BECCEE"/>
</linearGradient>
<linearGradient id="paint3_linear_4002_19891" x1="167" y1="13" x2="281.643" y2="220.583" gradientUnits="userSpaceOnUse">
<stop offset="0" stop-color="#66CFF0"/>
<stop offset="1" stop-color="#A6E0F2"/>
</linearGradient>
<linearGradient id="paint4_linear_4002_19891" x1="5" y1="337" x2="5" y2="347" gradientUnits="userSpaceOnUse">
<stop offset="0" stop-color="#45B8DB"/>
<stop offset="1" stop-color="#ADE4E4"/>
</linearGradient>
<linearGradient id="paint5_linear_4002_19891" x1="5" y1="0" x2="5" y2="10" gradientUnits="userSpaceOnUse">
<stop offset="0" stop-color="#CDE3E9"/>
<stop offset="1" stop-color="#D3E8ED"/>
</linearGradient>
<linearGradient id="paint6_linear_4002_19891" x1="121" y1="337.5" x2="130.5" y2="347" gradientUnits="userSpaceOnUse">
<stop offset="0" stop-color="#66CFF0"/>
<stop offset="1" stop-color="#A6E0F2"/>
</linearGradient>
<linearGradient id="paint7_linear_4002_19891" x1="9.75728" y1="5" x2="8" y2="1" gradientUnits="userSpaceOnUse">
<stop offset="0" stop-color="#B7C6EF"/>
<stop offset="0.558752" stop-color="#BECCEE"/>
</linearGradient>
<linearGradient id="paint8_linear_4002_19891" x1="247.261" y1="336.261" x2="252" y2="341.435" gradientUnits="userSpaceOnUse">
<stop offset="0" stop-color="#5358CC"/>
<stop offset="1" stop-color="#3B38CE"/>
</linearGradient>
</defs>
</svg>
