<svg width="335" height="390" viewBox="0 0 335 390" fill="none" xmlns="http://www.w3.org/2000/svg">
<path d="M152.6 24.8126C157.396 24.2696 162.219 23.9983 167.046 24L167.041 39.36C162.793 39.3585 158.549 39.5972 154.328 40.0751L152.6 24.8126Z" fill="#184977"/>
<path d="M167 24C199.556 24 230.889 36.4056 254.622 58.692C278.355 80.9784 292.703 111.471 294.747 143.963C296.792 176.455 286.378 208.505 265.626 233.59C244.873 258.675 215.342 274.91 183.043 278.991C150.743 283.071 118.102 274.69 91.7635 255.554C65.4248 236.418 47.3677 207.965 41.2672 175.985C35.1668 144.005 41.4814 110.902 58.9261 83.4141C76.3707 55.9258 103.634 36.1178 135.168 28.0213L138.988 42.8988C111.238 50.0236 87.2462 67.4547 71.8949 91.6444C56.5437 115.834 50.9868 144.964 56.3552 173.107C61.7236 201.249 77.6138 226.288 100.792 243.128C123.97 259.967 152.694 267.343 181.118 263.752C209.541 260.161 235.529 245.874 253.791 223.799C272.053 201.725 281.217 173.52 279.418 144.927C277.619 116.334 264.992 89.501 244.107 69.889C223.223 50.2769 195.65 39.36 167 39.36V24Z" fill="url(#paint0_linear_4002_19894)"/>
<path d="M139.237 27.0471C143.687 26.0584 148.187 25.3081 152.717 24.7994L154.431 40.0635C150.444 40.5111 146.485 41.1714 142.569 42.0415L139.237 27.0471Z" fill="url(#paint1_linear_4002_19894)"/>
<path d="M131.454 29.0347C134.029 28.2902 136.628 27.6268 139.245 27.0454L142.575 42.04C140.272 42.5515 137.986 43.1354 135.719 43.7906L131.454 29.0347Z" fill="#DBE9EE"/>
<path d="M253.476 265.572C253.476 267.048 253.116 268.164 252.396 268.944C251.664 269.724 250.728 270.108 249.576 270.108C248.436 270.108 247.524 269.748 246.84 269.016L247.644 267.996C248.184 268.464 248.844 268.704 249.6 268.704C250.308 268.704 250.884 268.476 251.34 268.02C251.796 267.576 252.024 266.976 252.024 266.22C251.604 266.856 250.608 267.288 249.552 267.288C248.58 267.288 247.8 267.036 247.224 266.52C246.648 266.004 246.36 265.332 246.36 264.504C246.36 263.628 246.684 262.908 247.344 262.344C248.004 261.78 248.784 261.492 249.708 261.492C250.848 261.492 251.772 261.852 252.456 262.56C253.14 263.268 253.476 264.276 253.476 265.572ZM251.856 264.816C251.844 264.324 251.652 263.88 251.268 263.484C250.872 263.088 250.356 262.884 249.72 262.884C249.216 262.884 248.784 263.028 248.412 263.316C248.04 263.604 247.848 263.976 247.848 264.432C247.848 265.392 248.616 265.98 249.72 265.98C250.176 265.98 250.632 265.86 251.076 265.608C251.52 265.356 251.772 265.092 251.856 264.816ZM255.35 266.316L254.138 266.196L254.522 261.6H260.006V262.956H255.794L255.614 264.816C256.01 264.612 256.514 264.516 257.102 264.516C259.118 264.516 260.246 265.596 260.246 267.276C260.246 268.128 259.946 268.8 259.346 269.316C258.734 269.832 257.966 270.096 257.018 270.096C255.722 270.096 254.258 269.592 253.718 268.056L255.062 267.564C255.338 268.284 256.166 268.704 257.09 268.704C258.134 268.704 258.758 268.14 258.758 267.324C258.758 266.376 258.074 265.824 256.934 265.824C256.274 265.824 255.746 265.992 255.35 266.316ZM261.702 270C261.174 270.06 260.826 269.592 260.826 269.172C260.826 268.68 261.198 268.248 261.786 268.248C262.494 268.248 262.782 268.836 262.782 269.568C262.782 270.096 262.59 270.564 262.218 270.96C261.846 271.356 261.426 271.608 260.958 271.704L260.622 270.912C260.826 270.876 261.054 270.756 261.306 270.564C261.546 270.36 261.678 270.18 261.702 270ZM263.285 266.028C263.285 264.576 263.657 263.448 264.413 262.668C265.169 261.888 266.129 261.492 267.305 261.492C268.445 261.492 269.357 261.852 270.041 262.584L269.237 263.604C268.697 263.136 268.037 262.896 267.281 262.896C266.561 262.896 265.949 263.124 265.457 263.592C264.965 264.06 264.713 264.708 264.725 265.548C265.253 264.78 266.249 264.264 267.269 264.264C269.273 264.264 270.473 265.368 270.473 267.096C270.473 267.984 270.161 268.704 269.537 269.268C268.901 269.832 268.097 270.108 267.113 270.108C265.949 270.108 265.013 269.748 264.329 269.04C263.633 268.332 263.285 267.324 263.285 266.028ZM264.953 266.94C265.109 267.948 265.829 268.716 267.173 268.716C268.193 268.716 268.985 268.08 268.985 267.168C268.985 266.172 268.325 265.62 267.113 265.62C266.621 265.62 266.165 265.764 265.733 266.052C265.301 266.352 265.037 266.64 264.953 266.94Z" fill="#1A3341"/>
<path d="M134.643 10.144L134.151 8.944L136.971 7.576H137.883V16H136.491V9.292L134.643 10.144ZM139.844 16C139.316 16.06 138.968 15.592 138.968 15.172C138.968 14.68 139.34 14.248 139.928 14.248C140.636 14.248 140.924 14.836 140.924 15.568C140.924 16.096 140.732 16.564 140.36 16.96C139.988 17.356 139.568 17.608 139.1 17.704L138.764 16.912C138.968 16.876 139.196 16.756 139.448 16.564C139.688 16.36 139.82 16.18 139.844 16ZM145.975 8.956H141.163V7.6H147.691V8.512L143.731 16H142.207L145.975 8.956Z" fill="#1A3341"/>
<path d="M153.021 7.144L152.529 5.944L155.349 4.576H156.261V13H154.869V6.292L153.021 7.144ZM158.223 13C157.695 13.06 157.347 12.592 157.347 12.172C157.347 11.68 157.719 11.248 158.307 11.248C159.015 11.248 159.303 11.836 159.303 12.568C159.303 13.096 159.111 13.564 158.739 13.96C158.367 14.356 157.947 14.608 157.479 14.704L157.143 13.912C157.347 13.876 157.575 13.756 157.827 13.564C158.067 13.36 158.199 13.18 158.223 13ZM163.262 8.068H163.61C164.522 8.068 165.254 7.612 165.254 6.928C165.254 6.208 164.606 5.824 163.418 5.824C162.362 5.824 161.594 6.232 161.594 6.916C161.594 7.588 162.266 8.068 163.262 8.068ZM163.586 9.304H163.298C162.11 9.304 161.33 9.844 161.33 10.528C161.33 11.296 162.122 11.788 163.43 11.788C164.714 11.788 165.518 11.32 165.518 10.552C165.518 9.772 164.822 9.304 163.586 9.304ZM163.442 13.096C162.374 13.096 161.498 12.88 160.838 12.436C160.178 12.004 159.842 11.416 159.842 10.66C159.842 9.736 160.346 8.968 161.246 8.644C160.49 8.32 160.106 7.732 160.106 6.856C160.106 5.416 161.354 4.504 163.43 4.504C165.554 4.504 166.754 5.416 166.754 6.856C166.754 7.624 166.31 8.32 165.494 8.62C166.514 8.872 167.018 9.544 167.018 10.612C167.018 11.38 166.682 11.98 166.01 12.424C165.338 12.868 164.486 13.096 163.442 13.096Z" fill="#1A3341"/>
<path d="M116.01 15.144L115.518 13.944L118.338 12.576H119.25V21H117.858V14.292L116.01 15.144ZM121.211 21C120.683 21.06 120.335 20.592 120.335 20.172C120.335 19.68 120.707 19.248 121.295 19.248C122.003 19.248 122.291 19.836 122.291 20.568C122.291 21.096 122.099 21.564 121.727 21.96C121.355 22.356 120.935 22.608 120.467 22.704L120.131 21.912C120.335 21.876 120.563 21.756 120.815 21.564C121.055 21.36 121.187 21.18 121.211 21ZM122.794 16.8C122.794 15.528 123.118 14.496 123.754 13.704C124.39 12.912 125.278 12.516 126.418 12.516C127.57 12.516 128.47 12.912 129.106 13.704C129.742 14.496 130.066 15.528 130.066 16.8C130.066 18.084 129.754 19.116 129.118 19.896C128.482 20.688 127.594 21.084 126.442 21.084C125.29 21.084 124.39 20.688 123.754 19.896C123.118 19.116 122.794 18.084 122.794 16.8ZM124.834 14.652C124.462 15.156 124.282 15.876 124.282 16.8C124.282 17.724 124.474 18.444 124.858 18.948C125.23 19.452 125.758 19.704 126.442 19.704C127.87 19.704 128.578 18.732 128.578 16.8C128.578 14.916 127.858 13.896 126.418 13.896C125.734 13.896 125.206 14.148 124.834 14.652Z" fill="#1A3341"/>
<path d="M140.113 160.152V163H120.625V160.44L129.873 155.096C131.686 154.051 133.03 153.208 133.905 152.568C134.78 151.907 135.366 151.299 135.665 150.744C135.985 150.189 136.145 149.528 136.145 148.76V148.44C136.145 147.203 135.622 146.253 134.577 145.592C133.553 144.931 132.07 144.6 130.129 144.6C128.124 144.6 126.598 144.952 125.553 145.656C124.529 146.36 124.017 147.384 124.017 148.728V149.368H120.817V148.696C120.817 146.413 121.617 144.664 123.217 143.448C124.817 142.232 127.1 141.624 130.065 141.624C132.966 141.624 135.238 142.221 136.881 143.416C138.524 144.611 139.345 146.253 139.345 148.344V148.664C139.345 149.795 139.121 150.787 138.673 151.64C138.225 152.493 137.446 153.357 136.337 154.232C135.249 155.107 133.649 156.152 131.537 157.368L126.673 160.152H140.113ZM154.381 163.384C152.248 163.384 150.36 163 148.717 162.232C147.096 161.464 145.827 160.387 144.909 159C144.013 157.613 143.565 156.024 143.565 154.232V150.808C143.565 148.995 144.013 147.395 144.909 146.008C145.827 144.621 147.096 143.544 148.717 142.776C150.36 142.008 152.248 141.624 154.381 141.624C156.493 141.624 158.36 142.008 159.981 142.776C161.603 143.544 162.861 144.621 163.757 146.008C164.653 147.395 165.101 148.995 165.101 150.808V154.232C165.101 156.045 164.653 157.645 163.757 159.032C162.861 160.397 161.603 161.464 159.981 162.232C158.36 163 156.493 163.384 154.381 163.384ZM154.381 160.408C156.728 160.408 158.573 159.864 159.917 158.776C161.261 157.688 161.933 156.184 161.933 154.264V150.776C161.933 148.877 161.251 147.373 159.885 146.264C158.541 145.155 156.696 144.6 154.349 144.6C151.981 144.6 150.115 145.155 148.749 146.264C147.405 147.352 146.733 148.856 146.733 150.776V154.264C146.733 156.184 147.405 157.688 148.749 158.776C150.115 159.864 151.992 160.408 154.381 160.408ZM188.506 160.152V163H169.018V160.44L178.266 155.096C180.079 154.051 181.423 153.208 182.298 152.568C183.172 151.907 183.759 151.299 184.058 150.744C184.378 150.189 184.538 149.528 184.538 148.76V148.44C184.538 147.203 184.015 146.253 182.97 145.592C181.946 144.931 180.463 144.6 178.522 144.6C176.516 144.6 174.991 144.952 173.946 145.656C172.922 146.36 172.41 147.384 172.41 148.728V149.368H169.21V148.696C169.21 146.413 170.01 144.664 171.61 143.448C173.21 142.232 175.492 141.624 178.458 141.624C181.359 141.624 183.631 142.221 185.274 143.416C186.916 144.611 187.738 146.253 187.738 148.344V148.664C187.738 149.795 187.514 150.787 187.066 151.64C186.618 152.493 185.839 153.357 184.73 154.232C183.642 155.107 182.042 156.152 179.93 157.368L175.066 160.152H188.506ZM203.478 150.328C206.315 150.413 208.48 150.979 209.974 152.024C211.488 153.048 212.246 154.477 212.246 156.312V156.728C212.246 158.883 211.382 160.536 209.654 161.688C207.926 162.819 205.408 163.384 202.102 163.384C198.88 163.363 196.384 162.797 194.614 161.688C192.864 160.579 191.99 159.011 191.99 156.984V156.76H195.158V156.984C195.158 158.051 195.776 158.893 197.014 159.512C198.251 160.109 199.958 160.408 202.134 160.408C204.416 160.408 206.144 160.109 207.318 159.512C208.491 158.893 209.078 157.987 209.078 156.792V156.408C209.078 154.168 206.795 153.048 202.23 153.048H198.774V150.232L206.678 144.856H192.374V142.008H211.734V144.856L203.478 150.328Z" fill="#1A3341"/>
<rect y="340" width="10" height="10" fill="#8AD9F2"/>
<path d="M19.74 349H18.732V342.76H19.656L21.96 345.808L24.204 342.76H25.068V349H24.06V344.536L21.948 347.416L19.74 344.536V349ZM26.1887 345.868C26.1887 344.92 26.5007 344.14 27.1127 343.528C27.7247 342.916 28.5167 342.616 29.4887 342.616C30.4727 342.616 31.2767 342.916 31.8887 343.528C32.5007 344.14 32.8127 344.92 32.8127 345.868C32.8127 346.816 32.5007 347.584 31.8887 348.196C31.2647 348.808 30.4607 349.108 29.4887 349.108C28.5167 349.108 27.7247 348.808 27.1127 348.196C26.5007 347.584 26.1887 346.816 26.1887 345.868ZM27.2567 345.868C27.2567 346.528 27.4607 347.08 27.8807 347.512C28.3007 347.944 28.8287 348.16 29.4887 348.16C30.1487 348.16 30.7007 347.944 31.1207 347.524C31.5407 347.104 31.7447 346.552 31.7447 345.868C31.7447 345.184 31.5287 344.632 31.1087 344.2C30.6767 343.78 30.1367 343.564 29.4887 343.564C28.8407 343.564 28.3127 343.78 27.8927 344.2C27.4727 344.62 27.2567 345.184 27.2567 345.868ZM34.9392 351.4H33.9312V342.76H34.9392V343.54C35.3592 342.928 36.0312 342.616 36.9552 342.616C37.8672 342.616 38.5992 342.904 39.1392 343.492C39.6792 344.08 39.9432 344.836 39.9432 345.772C39.9432 346.732 39.6552 347.524 39.0792 348.16C38.4912 348.796 37.7472 349.108 36.8352 349.108C35.9952 349.108 35.3592 348.892 34.9392 348.472V351.4ZM36.8472 343.564C35.9352 343.564 35.2272 344.152 34.9392 344.86V347.188C35.2992 347.836 35.8992 348.16 36.7512 348.16C37.3632 348.16 37.8792 347.944 38.2752 347.512C38.6712 347.08 38.8752 346.528 38.8752 345.844C38.8752 344.452 38.0952 343.564 36.8472 343.564ZM45.8922 347.2L46.6122 347.716C46.1442 348.592 45.0882 349.108 44.0442 349.108C43.0482 349.108 42.2442 348.808 41.6322 348.22C41.0202 347.632 40.7082 346.852 40.7082 345.868C40.7082 344.932 41.0082 344.152 41.6202 343.54C42.2322 342.928 43.0122 342.616 43.9842 342.616C45.1002 342.616 46.0962 343.12 46.5162 343.888L45.7362 344.416C45.3162 343.852 44.7402 343.564 44.0082 343.564C43.3602 343.564 42.8322 343.78 42.4122 344.212C41.9922 344.644 41.7762 345.196 41.7762 345.868C41.7762 346.552 41.9922 347.104 42.4362 347.524C42.8682 347.944 43.4322 348.16 44.1402 348.16C44.8842 348.16 45.4722 347.836 45.8922 347.2ZM48.4509 349H47.4429V342.76H48.4509V345.556L51.6069 342.76H52.9629L49.7349 345.628L53.1189 349H51.7749L48.9669 346.252L48.4509 346.732V349ZM52.9309 345.868C52.9309 344.92 53.2429 344.14 53.8549 343.528C54.4669 342.916 55.2589 342.616 56.2309 342.616C57.2149 342.616 58.0189 342.916 58.6309 343.528C59.2429 344.14 59.5549 344.92 59.5549 345.868C59.5549 346.816 59.2429 347.584 58.6309 348.196C58.0069 348.808 57.2029 349.108 56.2309 349.108C55.2589 349.108 54.4669 348.808 53.8549 348.196C53.2429 347.584 52.9309 346.816 52.9309 345.868ZM53.9989 345.868C53.9989 346.528 54.2029 347.08 54.6229 347.512C55.0429 347.944 55.5709 348.16 56.2309 348.16C56.8909 348.16 57.4429 347.944 57.8629 347.524C58.2829 347.104 58.4869 346.552 58.4869 345.868C58.4869 345.184 58.2709 344.632 57.8509 344.2C57.4189 343.78 56.8789 343.564 56.2309 343.564C55.5829 343.564 55.0549 343.78 54.6349 344.2C54.2149 344.62 53.9989 345.184 53.9989 345.868ZM65.4974 347.212L66.1454 347.812C65.5694 348.676 64.7414 349.108 63.6494 349.108C62.6534 349.108 61.8494 348.808 61.2374 348.22C60.6254 347.632 60.3254 346.852 60.3254 345.868C60.3254 344.92 60.6014 344.14 61.1654 343.528C61.7174 342.916 62.4974 342.616 63.5054 342.616C64.3334 342.616 65.0294 342.88 65.5694 343.396C66.1094 343.912 66.3854 344.596 66.3854 345.448C66.3854 345.724 66.3614 345.976 66.3254 346.204H61.4054C61.4654 347.44 62.3774 348.16 63.6854 348.16C64.4174 348.16 65.1134 347.776 65.4974 347.212ZM63.4334 343.54C62.2934 343.54 61.5494 344.236 61.3934 345.292H65.3174C65.2574 344.188 64.5494 343.54 63.4334 343.54ZM75.9391 347.2L76.6591 347.716C76.1911 348.592 75.1351 349.108 74.0911 349.108C73.0951 349.108 72.2911 348.808 71.6791 348.22C71.0671 347.632 70.7551 346.852 70.7551 345.868C70.7551 344.932 71.0551 344.152 71.6671 343.54C72.2791 342.928 73.0591 342.616 74.0311 342.616C75.1471 342.616 76.1431 343.12 76.5631 343.888L75.7831 344.416C75.3631 343.852 74.7871 343.564 74.0551 343.564C73.4071 343.564 72.8791 343.78 72.4591 344.212C72.0391 344.644 71.8231 345.196 71.8231 345.868C71.8231 346.552 72.0391 347.104 72.4831 347.524C72.9151 347.944 73.4791 348.16 74.1871 348.16C74.9311 348.16 75.5191 347.836 75.9391 347.2ZM76.802 345.868C76.802 344.92 77.114 344.14 77.726 343.528C78.338 342.916 79.13 342.616 80.102 342.616C81.086 342.616 81.89 342.916 82.502 343.528C83.114 344.14 83.426 344.92 83.426 345.868C83.426 346.816 83.114 347.584 82.502 348.196C81.878 348.808 81.074 349.108 80.102 349.108C79.13 349.108 78.338 348.808 77.726 348.196C77.114 347.584 76.802 346.816 76.802 345.868ZM77.87 345.868C77.87 346.528 78.074 347.08 78.494 347.512C78.914 347.944 79.442 348.16 80.102 348.16C80.762 348.16 81.314 347.944 81.734 347.524C82.154 347.104 82.358 346.552 82.358 345.868C82.358 345.184 82.142 344.632 81.722 344.2C81.29 343.78 80.75 343.564 80.102 343.564C79.454 343.564 78.926 343.78 78.506 344.2C78.086 344.62 77.87 345.184 77.87 345.868ZM84.1965 345.868C84.1965 344.92 84.5085 344.14 85.1205 343.528C85.7325 342.916 86.5245 342.616 87.4965 342.616C88.4805 342.616 89.2845 342.916 89.8965 343.528C90.5085 344.14 90.8205 344.92 90.8205 345.868C90.8205 346.816 90.5085 347.584 89.8965 348.196C89.2725 348.808 88.4685 349.108 87.4965 349.108C86.5245 349.108 85.7325 348.808 85.1205 348.196C84.5085 347.584 84.1965 346.816 84.1965 345.868ZM85.2645 345.868C85.2645 346.528 85.4685 347.08 85.8885 347.512C86.3085 347.944 86.8365 348.16 87.4965 348.16C88.1565 348.16 88.7085 347.944 89.1285 347.524C89.5485 347.104 89.7525 346.552 89.7525 345.868C89.7525 345.184 89.5365 344.632 89.1165 344.2C88.6845 343.78 88.1445 343.564 87.4965 343.564C86.8485 343.564 86.3205 343.78 85.9005 344.2C85.4805 344.62 85.2645 345.184 85.2645 345.868ZM97.267 340.084L97.447 341.008C97.099 341.14 96.547 341.248 95.767 341.332C94.987 341.416 94.447 341.536 94.147 341.68C93.247 342.124 92.719 342.952 92.587 344.176L92.635 344.188C93.151 343.372 93.991 342.964 95.143 342.964C96.019 342.964 96.727 343.228 97.267 343.744C97.807 344.272 98.071 345.004 98.071 345.928C98.071 346.828 97.771 347.584 97.183 348.196C96.595 348.808 95.827 349.12 94.903 349.12C92.875 349.12 91.615 347.764 91.615 345.376C91.615 344.176 91.771 343.216 92.083 342.484C92.383 341.764 92.935 341.2 93.715 340.804C94.135 340.6 94.759 340.444 95.587 340.36C96.415 340.276 96.979 340.18 97.267 340.084ZM92.683 345.556V345.64C92.683 346.408 92.887 347.02 93.307 347.476C93.715 347.932 94.243 348.16 94.891 348.16C95.527 348.16 96.031 347.956 96.427 347.536C96.811 347.128 97.003 346.612 97.003 345.988C97.003 344.728 96.259 343.924 94.927 343.924C93.775 343.924 92.935 344.656 92.683 345.556ZM106.633 349H99.1812V342.76H100.189V348.04H102.433V342.76H103.441V348.04H105.685V342.76H106.693V348.04H107.569V350.512H106.633V349ZM113.275 347.212L113.923 347.812C113.347 348.676 112.519 349.108 111.427 349.108C110.431 349.108 109.627 348.808 109.015 348.22C108.403 347.632 108.103 346.852 108.103 345.868C108.103 344.92 108.379 344.14 108.943 343.528C109.495 342.916 110.275 342.616 111.283 342.616C112.111 342.616 112.807 342.88 113.347 343.396C113.887 343.912 114.163 344.596 114.163 345.448C114.163 345.724 114.139 345.976 114.103 346.204H109.183C109.243 347.44 110.155 348.16 111.463 348.16C112.195 348.16 112.891 347.776 113.275 347.212ZM111.211 343.54C110.071 343.54 109.327 344.236 109.171 345.292H113.095C113.035 344.188 112.327 343.54 111.211 343.54ZM120.899 349H119.891V346.3H116.291V349H115.283V342.76H116.291V345.352H119.891V342.76H120.899V349ZM127.089 344.332L123.285 349H122.361V342.76H123.369V347.44L127.161 342.76H128.097V349H127.089V344.332ZM134.38 347.212L135.028 347.812C134.452 348.676 133.624 349.108 132.532 349.108C131.536 349.108 130.732 348.808 130.12 348.22C129.508 347.632 129.208 346.852 129.208 345.868C129.208 344.92 129.484 344.14 130.048 343.528C130.6 342.916 131.38 342.616 132.388 342.616C133.216 342.616 133.912 342.88 134.452 343.396C134.992 343.912 135.268 344.596 135.268 345.448C135.268 345.724 135.244 345.976 135.208 346.204H130.288C130.348 347.44 131.26 348.16 132.568 348.16C133.3 348.16 133.996 347.776 134.38 347.212ZM132.316 343.54C131.176 343.54 130.432 344.236 130.276 345.292H134.2C134.14 344.188 133.432 343.54 132.316 343.54Z" fill="#1A3341" fill-opacity="0.6"/>
<rect y="360" width="10" height="10" fill="url(#paint2_linear_4002_19894)"/>
<path d="M18 369L20.712 365.64L18.06 362.76H19.344L21.876 365.484V362.76H22.884V365.484L25.452 362.76H26.7L24.024 365.616L26.808 369H25.56L23.292 366.228L22.884 366.612V369H21.876V366.624L21.444 366.276L19.224 369H18ZM31.9583 367.212L32.6063 367.812C32.0303 368.676 31.2023 369.108 30.1103 369.108C29.1143 369.108 28.3103 368.808 27.6983 368.22C27.0863 367.632 26.7863 366.852 26.7863 365.868C26.7863 364.92 27.0623 364.14 27.6263 363.528C28.1783 362.916 28.9583 362.616 29.9663 362.616C30.7943 362.616 31.4903 362.88 32.0303 363.396C32.5703 363.912 32.8463 364.596 32.8463 365.448C32.8463 365.724 32.8223 365.976 32.7863 366.204H27.8663C27.9263 367.44 28.8383 368.16 30.1463 368.16C30.8783 368.16 31.5743 367.776 31.9583 367.212ZM29.8943 363.54C28.7543 363.54 28.0103 364.236 27.8543 365.292H31.7783C31.7183 364.188 31.0103 363.54 29.8943 363.54ZM39.2498 369H38.2418V363.72H35.6018V364.008C35.6018 366.024 35.3738 367.416 34.9178 368.136C34.4618 368.856 33.8978 369.096 33.1178 369V368.04C33.9218 368.04 34.5938 367.692 34.5938 364.044V362.76H39.2498V369ZM45.5404 367.212L46.1884 367.812C45.6124 368.676 44.7844 369.108 43.6924 369.108C42.6964 369.108 41.8924 368.808 41.2804 368.22C40.6684 367.632 40.3684 366.852 40.3684 365.868C40.3684 364.92 40.6444 364.14 41.2084 363.528C41.7604 362.916 42.5404 362.616 43.5484 362.616C44.3764 362.616 45.0724 362.88 45.6124 363.396C46.1524 363.912 46.4284 364.596 46.4284 365.448C46.4284 365.724 46.4044 365.976 46.3684 366.204H41.4484C41.5084 367.44 42.4204 368.16 43.7284 368.16C44.4604 368.16 45.1564 367.776 45.5404 367.212ZM43.4764 363.54C42.3364 363.54 41.5924 364.236 41.4364 365.292H45.3604C45.3004 364.188 44.5924 363.54 43.4764 363.54ZM49.57 369.12C48.286 369.12 47.338 368.64 46.75 367.692L47.542 367.14C47.89 367.776 48.658 368.184 49.582 368.184C50.578 368.184 51.286 367.776 51.286 367.104C51.286 366.552 50.866 366.276 50.038 366.276H48.574V365.364H49.966C50.578 365.364 51.058 365.004 51.058 364.464C51.058 363.876 50.434 363.54 49.534 363.54C48.778 363.54 48.154 363.828 47.686 364.416L46.942 363.924C47.362 363.204 48.322 362.604 49.63 362.604C51.202 362.604 52.126 363.264 52.126 364.308C52.126 364.896 51.874 365.352 51.382 365.652C52.102 366 52.354 366.42 52.354 367.08C52.354 367.716 52.09 368.208 51.574 368.568C51.058 368.94 50.386 369.12 49.57 369.12ZM59.0941 369H58.0861V366.3H54.4861V369H53.4781V362.76H54.4861V365.352H58.0861V362.76H59.0941V369ZM60.2082 365.868C60.2082 364.92 60.5202 364.14 61.1322 363.528C61.7442 362.916 62.5362 362.616 63.5082 362.616C64.4922 362.616 65.2962 362.916 65.9082 363.528C66.5202 364.14 66.8322 364.92 66.8322 365.868C66.8322 366.816 66.5202 367.584 65.9082 368.196C65.2842 368.808 64.4802 369.108 63.5082 369.108C62.5362 369.108 61.7442 368.808 61.1322 368.196C60.5202 367.584 60.2082 366.816 60.2082 365.868ZM61.2762 365.868C61.2762 366.528 61.4802 367.08 61.9002 367.512C62.3202 367.944 62.8482 368.16 63.5082 368.16C64.1682 368.16 64.7202 367.944 65.1402 367.524C65.5602 367.104 65.7642 366.552 65.7642 365.868C65.7642 365.184 65.5482 364.632 65.1282 364.2C64.6962 363.78 64.1562 363.564 63.5082 363.564C62.8602 363.564 62.3322 363.78 61.9122 364.2C61.4922 364.62 61.2762 365.184 61.2762 365.868ZM67.9338 370.512H66.9738V368.04H67.6698C68.3058 367.068 68.5458 365.7 68.5458 363.336V362.76H73.1298V368.04H74.0298V370.512H73.0698V369H67.9338V370.512ZM72.1218 363.72H69.4938V364.152C69.4938 365.748 69.2418 367.044 68.7498 368.04H72.1218V363.72ZM74.552 365.868C74.552 364.92 74.864 364.14 75.476 363.528C76.088 362.916 76.88 362.616 77.852 362.616C78.836 362.616 79.64 362.916 80.252 363.528C80.864 364.14 81.176 364.92 81.176 365.868C81.176 366.816 80.864 367.584 80.252 368.196C79.628 368.808 78.824 369.108 77.852 369.108C76.88 369.108 76.088 368.808 75.476 368.196C74.864 367.584 74.552 366.816 74.552 365.868ZM75.62 365.868C75.62 366.528 75.824 367.08 76.244 367.512C76.664 367.944 77.192 368.16 77.852 368.16C78.512 368.16 79.064 367.944 79.484 367.524C79.904 367.104 80.108 366.552 80.108 365.868C80.108 365.184 79.892 364.632 79.472 364.2C79.04 363.78 78.5 363.564 77.852 363.564C77.204 363.564 76.676 363.78 76.256 364.2C75.836 364.62 75.62 365.184 75.62 365.868ZM83.3025 371.4H82.2945V362.76H83.3025V363.54C83.7225 362.928 84.3945 362.616 85.3185 362.616C86.2305 362.616 86.9625 362.904 87.5025 363.492C88.0425 364.08 88.3065 364.836 88.3065 365.772C88.3065 366.732 88.0185 367.524 87.4425 368.16C86.8545 368.796 86.1105 369.108 85.1985 369.108C84.3585 369.108 83.7225 368.892 83.3025 368.472V371.4ZM85.2105 363.564C84.2985 363.564 83.5905 364.152 83.3025 364.86V367.188C83.6625 367.836 84.2625 368.16 85.1145 368.16C85.7265 368.16 86.2425 367.944 86.6385 367.512C87.0345 367.08 87.2385 366.528 87.2385 365.844C87.2385 364.452 86.4585 363.564 85.2105 363.564ZM89.0715 365.868C89.0715 364.92 89.3835 364.14 89.9955 363.528C90.6075 362.916 91.3995 362.616 92.3715 362.616C93.3555 362.616 94.1595 362.916 94.7715 363.528C95.3835 364.14 95.6955 364.92 95.6955 365.868C95.6955 366.816 95.3835 367.584 94.7715 368.196C94.1475 368.808 93.3435 369.108 92.3715 369.108C91.3995 369.108 90.6075 368.808 89.9955 368.196C89.3835 367.584 89.0715 366.816 89.0715 365.868ZM90.1395 365.868C90.1395 366.528 90.3435 367.08 90.7635 367.512C91.1835 367.944 91.7115 368.16 92.3715 368.16C93.0315 368.16 93.5835 367.944 94.0035 367.524C94.4235 367.104 94.6275 366.552 94.6275 365.868C94.6275 365.184 94.4115 364.632 93.9915 364.2C93.5595 363.78 93.0195 363.564 92.3715 363.564C91.7235 363.564 91.1955 363.78 90.7755 364.2C90.3555 364.62 90.1395 365.184 90.1395 365.868ZM95.7188 369L98.4308 365.64L95.7788 362.76H97.0628L99.5948 365.484V362.76H100.603V365.484L103.171 362.76H104.419L101.743 365.616L104.527 369H103.279L101.011 366.228L100.603 366.612V369H99.5948V366.624L99.1628 366.276L96.9428 369H95.7188ZM110.879 369H109.871V366.3H106.271V369H105.263V362.76H106.271V365.352H109.871V362.76H110.879V369ZM114.597 369H112.341V362.76H113.349V364.704H114.693C116.529 364.704 117.261 365.556 117.261 366.84C117.261 368.1 116.457 369 114.597 369ZM114.585 365.664H113.349V368.04H114.573C115.725 368.04 116.193 367.632 116.193 366.852C116.193 366.06 115.653 365.664 114.585 365.664ZM119.169 369H118.149V362.76H119.169V369ZM125.451 367.212L126.099 367.812C125.523 368.676 124.695 369.108 123.603 369.108C122.607 369.108 121.803 368.808 121.191 368.22C120.579 367.632 120.279 366.852 120.279 365.868C120.279 364.92 120.555 364.14 121.119 363.528C121.671 362.916 122.451 362.616 123.459 362.616C124.287 362.616 124.983 362.88 125.523 363.396C126.063 363.912 126.339 364.596 126.339 365.448C126.339 365.724 126.315 365.976 126.279 366.204H121.359C121.419 367.44 122.331 368.16 123.639 368.16C124.371 368.16 125.067 367.776 125.451 367.212ZM123.387 363.54C122.247 363.54 121.503 364.236 121.347 365.292H125.271C125.211 364.188 124.503 363.54 123.387 363.54ZM24.276 385H23.268V379.708H19.74V385H18.732V378.76H24.276V385ZM30.5638 383.212L31.2118 383.812C30.6358 384.676 29.8078 385.108 28.7158 385.108C27.7198 385.108 26.9158 384.808 26.3038 384.22C25.6918 383.632 25.3918 382.852 25.3918 381.868C25.3918 380.92 25.6678 380.14 26.2318 379.528C26.7838 378.916 27.5638 378.616 28.5718 378.616C29.3998 378.616 30.0958 378.88 30.6358 379.396C31.1758 379.912 31.4518 380.596 31.4518 381.448C31.4518 381.724 31.4278 381.976 31.3918 382.204H26.4718C26.5318 383.44 27.4438 384.16 28.7518 384.16C29.4838 384.16 30.1798 383.776 30.5638 383.212ZM28.4998 379.54C27.3598 379.54 26.6158 380.236 26.4598 381.292H30.3838C30.3238 380.188 29.6158 379.54 28.4998 379.54ZM33.5798 387.4H32.5718V378.76H33.5798V379.54C33.9998 378.928 34.6718 378.616 35.5958 378.616C36.5078 378.616 37.2398 378.904 37.7798 379.492C38.3198 380.08 38.5838 380.836 38.5838 381.772C38.5838 382.732 38.2958 383.524 37.7198 384.16C37.1318 384.796 36.3878 385.108 35.4758 385.108C34.6358 385.108 33.9998 384.892 33.5798 384.472V387.4ZM35.4878 379.564C34.5758 379.564 33.8678 380.152 33.5798 380.86V383.188C33.9398 383.836 34.5398 384.16 35.3918 384.16C36.0038 384.16 36.5198 383.944 36.9158 383.512C37.3118 383.08 37.5158 382.528 37.5158 381.844C37.5158 380.452 36.7358 379.564 35.4878 379.564ZM44.5208 383.212L45.1688 383.812C44.5928 384.676 43.7648 385.108 42.6728 385.108C41.6768 385.108 40.8728 384.808 40.2608 384.22C39.6488 383.632 39.3488 382.852 39.3488 381.868C39.3488 380.92 39.6248 380.14 40.1888 379.528C40.7408 378.916 41.5208 378.616 42.5288 378.616C43.3568 378.616 44.0528 378.88 44.5928 379.396C45.1328 379.912 45.4088 380.596 45.4088 381.448C45.4088 381.724 45.3848 381.976 45.3488 382.204H40.4288C40.4888 383.44 41.4008 384.16 42.7088 384.16C43.4408 384.16 44.1368 383.776 44.5208 383.212ZM42.4568 379.54C41.3168 379.54 40.5728 380.236 40.4168 381.292H44.3408C44.2808 380.188 43.5728 379.54 42.4568 379.54ZM49.3129 385H46.5289V378.76H49.1209C50.8609 378.76 51.6769 379.204 51.6769 380.356C51.6769 380.932 51.4129 381.388 50.8729 381.712C51.5449 381.916 51.8809 382.408 51.8809 383.212C51.8809 384.376 50.9569 385 49.3129 385ZM49.3249 382.276H47.5369V384.064H49.2049C50.2729 384.064 50.8129 383.764 50.8129 383.164C50.8129 382.576 50.3209 382.276 49.3249 382.276ZM49.0849 379.696H47.5369V381.364H49.4329C50.1649 381.364 50.6089 381.064 50.6089 380.5C50.6089 379.864 50.0929 379.696 49.0849 379.696ZM52.6613 381.868C52.6613 380.92 52.9733 380.14 53.5853 379.528C54.1973 378.916 54.9893 378.616 55.9613 378.616C56.9453 378.616 57.7493 378.916 58.3613 379.528C58.9733 380.14 59.2853 380.92 59.2853 381.868C59.2853 382.816 58.9733 383.584 58.3613 384.196C57.7373 384.808 56.9333 385.108 55.9613 385.108C54.9893 385.108 54.1973 384.808 53.5853 384.196C52.9733 383.584 52.6613 382.816 52.6613 381.868ZM53.7293 381.868C53.7293 382.528 53.9333 383.08 54.3533 383.512C54.7733 383.944 55.3013 384.16 55.9613 384.16C56.6213 384.16 57.1733 383.944 57.5933 383.524C58.0133 383.104 58.2173 382.552 58.2173 381.868C58.2173 381.184 58.0013 380.632 57.5813 380.2C57.1493 379.78 56.6093 379.564 55.9613 379.564C55.3133 379.564 54.7853 379.78 54.3653 380.2C53.9453 380.62 53.7293 381.184 53.7293 381.868ZM62.6599 385.12C61.3759 385.12 60.4279 384.64 59.8399 383.692L60.6319 383.14C60.9799 383.776 61.7479 384.184 62.6719 384.184C63.6679 384.184 64.3759 383.776 64.3759 383.104C64.3759 382.552 63.9559 382.276 63.1279 382.276H61.6639V381.364H63.0559C63.6679 381.364 64.1479 381.004 64.1479 380.464C64.1479 379.876 63.5239 379.54 62.6239 379.54C61.8679 379.54 61.2439 379.828 60.7759 380.416L60.0319 379.924C60.4519 379.204 61.4119 378.604 62.7199 378.604C64.2919 378.604 65.2159 379.264 65.2159 380.308C65.2159 380.896 64.9639 381.352 64.4719 381.652C65.1919 382 65.4439 382.42 65.4439 383.08C65.4439 383.716 65.1799 384.208 64.6639 384.568C64.1479 384.94 63.4759 385.12 62.6599 385.12ZM67.5759 385H66.5679V378.76H67.5759V381.556L70.7319 378.76H72.0879L68.8599 381.628L72.2439 385H70.8999L68.0919 382.252L67.5759 382.732V385ZM77.6123 380.332L73.8083 385H72.8843V378.76H73.8923V383.44L77.6843 378.76H78.6203V385H77.6123V380.332Z" fill="#1A3341" fill-opacity="0.6"/>
<rect y="320" width="335" height="1" fill="#ABBEC9"/>
<rect x="175" y="359.5" width="10" height="10" fill="#60CCCC"/>
<path d="M194.212 364.26L193.696 363.504C194.272 362.964 195.268 362.616 196.192 362.616C197.86 362.616 198.748 363.528 198.748 365.148V369H197.74V368.076C197.344 368.652 196.564 369.084 195.556 369.084C194.2 369.084 193.288 368.328 193.288 367.176C193.288 365.868 194.404 365.244 196.276 365.244C196.864 365.244 197.344 365.304 197.74 365.424C197.74 364.212 197.308 363.564 196.072 363.564C195.448 363.564 194.824 363.792 194.212 364.26ZM195.796 368.172C196.264 368.172 196.684 368.04 197.032 367.788C197.38 367.536 197.608 367.248 197.74 366.948V366.312C197.392 366.192 196.948 366.132 196.408 366.132C195.04 366.132 194.356 366.468 194.356 367.14C194.356 367.776 194.932 368.172 195.796 368.172ZM202.926 369H200.142V362.76H202.734C204.474 362.76 205.29 363.204 205.29 364.356C205.29 364.932 205.026 365.388 204.486 365.712C205.158 365.916 205.494 366.408 205.494 367.212C205.494 368.376 204.57 369 202.926 369ZM202.938 366.276H201.15V368.064H202.818C203.886 368.064 204.426 367.764 204.426 367.164C204.426 366.576 203.934 366.276 202.938 366.276ZM202.698 363.696H201.15V365.364H203.046C203.778 365.364 204.222 365.064 204.222 364.5C204.222 363.864 203.706 363.696 202.698 363.696ZM211.351 364.332L207.547 369H206.623V362.76H207.631V367.44L211.423 362.76H212.359V369H211.351V364.332ZM214.298 364.26L213.782 363.504C214.358 362.964 215.354 362.616 216.278 362.616C217.946 362.616 218.834 363.528 218.834 365.148V369H217.826V368.076C217.43 368.652 216.65 369.084 215.642 369.084C214.286 369.084 213.374 368.328 213.374 367.176C213.374 365.868 214.49 365.244 216.362 365.244C216.95 365.244 217.43 365.304 217.826 365.424C217.826 364.212 217.394 363.564 216.158 363.564C215.534 363.564 214.91 363.792 214.298 364.26ZM215.882 368.172C216.35 368.172 216.77 368.04 217.118 367.788C217.466 367.536 217.694 367.248 217.826 366.948V366.312C217.478 366.192 217.034 366.132 216.494 366.132C215.126 366.132 214.442 366.468 214.442 367.14C214.442 367.776 215.018 368.172 215.882 368.172ZM225.772 369H224.764V363.708H221.236V369H220.228V362.76H225.772V369ZM232.06 367.212L232.708 367.812C232.132 368.676 231.304 369.108 230.212 369.108C229.216 369.108 228.412 368.808 227.8 368.22C227.188 367.632 226.888 366.852 226.888 365.868C226.888 364.92 227.164 364.14 227.728 363.528C228.28 362.916 229.06 362.616 230.068 362.616C230.896 362.616 231.592 362.88 232.132 363.396C232.672 363.912 232.948 364.596 232.948 365.448C232.948 365.724 232.924 365.976 232.888 366.204H227.968C228.028 367.44 228.94 368.16 230.248 368.16C230.98 368.16 231.676 367.776 232.06 367.212ZM229.996 363.54C228.856 363.54 228.112 364.236 227.956 365.292H231.88C231.82 364.188 231.112 363.54 229.996 363.54ZM235.076 371.4H234.068V362.76H235.076V363.54C235.496 362.928 236.168 362.616 237.092 362.616C238.004 362.616 238.736 362.904 239.276 363.492C239.816 364.08 240.08 364.836 240.08 365.772C240.08 366.732 239.792 367.524 239.216 368.16C238.628 368.796 237.884 369.108 236.972 369.108C236.132 369.108 235.496 368.892 235.076 368.472V371.4ZM236.984 363.564C236.072 363.564 235.364 364.152 235.076 364.86V367.188C235.436 367.836 236.036 368.16 236.888 368.16C237.5 368.16 238.016 367.944 238.412 367.512C238.808 367.08 239.012 366.528 239.012 365.844C239.012 364.452 238.232 363.564 236.984 363.564ZM246.017 367.212L246.665 367.812C246.089 368.676 245.261 369.108 244.169 369.108C243.173 369.108 242.369 368.808 241.757 368.22C241.145 367.632 240.845 366.852 240.845 365.868C240.845 364.92 241.121 364.14 241.685 363.528C242.237 362.916 243.017 362.616 244.025 362.616C244.853 362.616 245.549 362.88 246.089 363.396C246.629 363.912 246.905 364.596 246.905 365.448C246.905 365.724 246.881 365.976 246.845 366.204H241.925C241.985 367.44 242.897 368.16 244.205 368.16C244.937 368.16 245.633 367.776 246.017 367.212ZM243.953 363.54C242.813 363.54 242.069 364.236 241.913 365.292H245.837C245.777 364.188 245.069 363.54 243.953 363.54ZM250.809 369H248.025V362.76H250.617C252.357 362.76 253.173 363.204 253.173 364.356C253.173 364.932 252.909 365.388 252.369 365.712C253.041 365.916 253.377 366.408 253.377 367.212C253.377 368.376 252.453 369 250.809 369ZM250.821 366.276H249.033V368.064H250.701C251.769 368.064 252.309 367.764 252.309 367.164C252.309 366.576 251.817 366.276 250.821 366.276ZM250.581 363.696H249.033V365.364H250.929C251.661 365.364 252.105 365.064 252.105 364.5C252.105 363.864 251.589 363.696 250.581 363.696ZM254.157 365.868C254.157 364.92 254.469 364.14 255.081 363.528C255.693 362.916 256.485 362.616 257.457 362.616C258.441 362.616 259.245 362.916 259.857 363.528C260.469 364.14 260.781 364.92 260.781 365.868C260.781 366.816 260.469 367.584 259.857 368.196C259.233 368.808 258.429 369.108 257.457 369.108C256.485 369.108 255.693 368.808 255.081 368.196C254.469 367.584 254.157 366.816 254.157 365.868ZM255.225 365.868C255.225 366.528 255.429 367.08 255.849 367.512C256.269 367.944 256.797 368.16 257.457 368.16C258.117 368.16 258.669 367.944 259.089 367.524C259.509 367.104 259.713 366.552 259.713 365.868C259.713 365.184 259.497 364.632 259.077 364.2C258.645 363.78 258.105 363.564 257.457 363.564C256.809 363.564 256.281 363.78 255.861 364.2C255.441 364.62 255.225 365.184 255.225 365.868ZM264.156 369.12C262.872 369.12 261.924 368.64 261.336 367.692L262.128 367.14C262.476 367.776 263.244 368.184 264.168 368.184C265.164 368.184 265.872 367.776 265.872 367.104C265.872 366.552 265.452 366.276 264.624 366.276H263.16V365.364H264.552C265.164 365.364 265.644 365.004 265.644 364.464C265.644 363.876 265.02 363.54 264.12 363.54C263.364 363.54 262.74 363.828 262.272 364.416L261.528 363.924C261.948 363.204 262.908 362.604 264.216 362.604C265.788 362.604 266.712 363.264 266.712 364.308C266.712 364.896 266.46 365.352 265.968 365.652C266.688 366 266.94 366.42 266.94 367.08C266.94 367.716 266.676 368.208 266.16 368.568C265.644 368.94 264.972 369.12 264.156 369.12ZM269.072 369H268.064V362.76H269.072V365.556L272.228 362.76H273.584L270.356 365.628L273.74 369H272.396L269.588 366.252L269.072 366.732V369ZM279.108 364.332L275.304 369H274.38V362.76H275.388V367.44L279.18 362.76H280.116V369H279.108V364.332Z" fill="#1A3341" fill-opacity="0.6"/>
<rect x="175" y="339.5" width="10" height="10" fill="#184977"/>
<path d="M194.212 344.26L193.696 343.504C194.272 342.964 195.268 342.616 196.192 342.616C197.86 342.616 198.748 343.528 198.748 345.148V349H197.74V348.076C197.344 348.652 196.564 349.084 195.556 349.084C194.2 349.084 193.288 348.328 193.288 347.176C193.288 345.868 194.404 345.244 196.276 345.244C196.864 345.244 197.344 345.304 197.74 345.424C197.74 344.212 197.308 343.564 196.072 343.564C195.448 343.564 194.824 343.792 194.212 344.26ZM195.796 348.172C196.264 348.172 196.684 348.04 197.032 347.788C197.38 347.536 197.608 347.248 197.74 346.948V346.312C197.392 346.192 196.948 346.132 196.408 346.132C195.04 346.132 194.356 346.468 194.356 347.14C194.356 347.776 194.932 348.172 195.796 348.172ZM202.926 349H200.142V342.76H202.734C204.474 342.76 205.29 343.204 205.29 344.356C205.29 344.932 205.026 345.388 204.486 345.712C205.158 345.916 205.494 346.408 205.494 347.212C205.494 348.376 204.57 349 202.926 349ZM202.938 346.276H201.15V348.064H202.818C203.886 348.064 204.426 347.764 204.426 347.164C204.426 346.576 203.934 346.276 202.938 346.276ZM202.698 343.696H201.15V345.364H203.046C203.778 345.364 204.222 345.064 204.222 344.5C204.222 343.864 203.706 343.696 202.698 343.696ZM208.291 343.708H205.903V342.76H211.711V343.708H209.299V349H208.291V343.708ZM211.876 345.868C211.876 344.92 212.188 344.14 212.8 343.528C213.412 342.916 214.204 342.616 215.176 342.616C216.16 342.616 216.964 342.916 217.576 343.528C218.188 344.14 218.5 344.92 218.5 345.868C218.5 346.816 218.188 347.584 217.576 348.196C216.952 348.808 216.148 349.108 215.176 349.108C214.204 349.108 213.412 348.808 212.8 348.196C212.188 347.584 211.876 346.816 211.876 345.868ZM212.944 345.868C212.944 346.528 213.148 347.08 213.568 347.512C213.988 347.944 214.516 348.16 215.176 348.16C215.836 348.16 216.388 347.944 216.808 347.524C217.228 347.104 217.432 346.552 217.432 345.868C217.432 345.184 217.216 344.632 216.796 344.2C216.364 343.78 215.824 343.564 215.176 343.564C214.528 343.564 214 343.78 213.58 344.2C213.16 344.62 212.944 345.184 212.944 345.868ZM221.052 343.708H218.664V342.76H224.472V343.708H222.06V349H221.052V343.708ZM226.228 351.4H225.22V342.76H226.228V343.54C226.648 342.928 227.32 342.616 228.244 342.616C229.156 342.616 229.888 342.904 230.428 343.492C230.968 344.08 231.232 344.836 231.232 345.772C231.232 346.732 230.944 347.524 230.368 348.16C229.78 348.796 229.036 349.108 228.124 349.108C227.284 349.108 226.648 348.892 226.228 348.472V351.4ZM228.136 343.564C227.224 343.564 226.516 344.152 226.228 344.86V347.188C226.588 347.836 227.188 348.16 228.04 348.16C228.652 348.16 229.168 347.944 229.564 347.512C229.96 347.08 230.164 346.528 230.164 345.844C230.164 344.452 229.384 343.564 228.136 343.564ZM232.825 344.26L232.309 343.504C232.885 342.964 233.881 342.616 234.805 342.616C236.473 342.616 237.361 343.528 237.361 345.148V349H236.353V348.076C235.957 348.652 235.177 349.084 234.169 349.084C232.813 349.084 231.901 348.328 231.901 347.176C231.901 345.868 233.017 345.244 234.889 345.244C235.477 345.244 235.957 345.304 236.353 345.424C236.353 344.212 235.921 343.564 234.685 343.564C234.061 343.564 233.437 343.792 232.825 344.26ZM234.409 348.172C234.877 348.172 235.297 348.04 235.645 347.788C235.993 347.536 236.221 347.248 236.353 346.948V346.312C236.005 346.192 235.561 346.132 235.021 346.132C233.653 346.132 232.969 346.468 232.969 347.14C232.969 347.776 233.545 348.172 234.409 348.172ZM244.371 349H243.363V346.3H239.763V349H238.755V342.76H239.763V345.352H243.363V342.76H244.371V349ZM250.67 347.2L251.39 347.716C250.922 348.592 249.866 349.108 248.822 349.108C247.826 349.108 247.022 348.808 246.41 348.22C245.798 347.632 245.486 346.852 245.486 345.868C245.486 344.932 245.786 344.152 246.398 343.54C247.01 342.928 247.79 342.616 248.762 342.616C249.878 342.616 250.874 343.12 251.294 343.888L250.514 344.416C250.094 343.852 249.518 343.564 248.786 343.564C248.138 343.564 247.61 343.78 247.19 344.212C246.77 344.644 246.554 345.196 246.554 345.868C246.554 346.552 246.77 347.104 247.214 347.524C247.646 347.944 248.21 348.16 248.918 348.16C249.662 348.16 250.25 347.836 250.67 347.2ZM257.764 349H256.756V343.708H253.228V349H252.22V342.76H257.764V349ZM258.88 345.868C258.88 344.92 259.192 344.14 259.804 343.528C260.416 342.916 261.208 342.616 262.18 342.616C263.164 342.616 263.968 342.916 264.58 343.528C265.192 344.14 265.504 344.92 265.504 345.868C265.504 346.816 265.192 347.584 264.58 348.196C263.956 348.808 263.152 349.108 262.18 349.108C261.208 349.108 260.416 348.808 259.804 348.196C259.192 347.584 258.88 346.816 258.88 345.868ZM259.948 345.868C259.948 346.528 260.152 347.08 260.572 347.512C260.992 347.944 261.52 348.16 262.18 348.16C262.84 348.16 263.392 347.944 263.812 347.524C264.232 347.104 264.436 346.552 264.436 345.868C264.436 345.184 264.22 344.632 263.8 344.2C263.368 343.78 262.828 343.564 262.18 343.564C261.532 343.564 261.004 343.78 260.584 344.2C260.164 344.62 259.948 345.184 259.948 345.868ZM267.631 351.4H266.623V342.76H267.631V343.54C268.051 342.928 268.723 342.616 269.647 342.616C270.559 342.616 271.291 342.904 271.831 343.492C272.371 344.08 272.635 344.836 272.635 345.772C272.635 346.732 272.347 347.524 271.771 348.16C271.183 348.796 270.439 349.108 269.527 349.108C268.687 349.108 268.051 348.892 267.631 348.472V351.4ZM269.539 343.564C268.627 343.564 267.919 344.152 267.631 344.86V347.188C267.991 347.836 268.591 348.16 269.443 348.16C270.055 348.16 270.571 347.944 270.967 347.512C271.363 347.08 271.567 346.528 271.567 345.844C271.567 344.452 270.787 343.564 269.539 343.564ZM275.181 343.708H272.793V342.76H278.601V343.708H276.189V349H275.181V343.708Z" fill="#1A3341" fill-opacity="0.6"/>
<defs>
<linearGradient id="paint0_linear_4002_19894" x1="167" y1="24" x2="281.643" y2="231.583" gradientUnits="userSpaceOnUse">
<stop offset="0" stop-color="#66CFF0"/>
<stop offset="1" stop-color="#A6E0F2"/>
</linearGradient>
<linearGradient id="paint1_linear_4002_19894" x1="39" y1="152" x2="180.334" y2="1.07294" gradientUnits="userSpaceOnUse">
<stop offset="0" stop-color="#43C3BB"/>
<stop offset="1" stop-color="#78CCD1"/>
</linearGradient>
<linearGradient id="paint2_linear_4002_19894" x1="5" y1="360" x2="5" y2="370" gradientUnits="userSpaceOnUse">
<stop offset="0" stop-color="#CDE3E9"/>
<stop offset="1" stop-color="#D3E8ED"/>
</linearGradient>
</defs>
</svg>
