<svg width="352" height="391" viewBox="0 0 352 391" fill="none" xmlns="http://www.w3.org/2000/svg">
<g clip-path="url(#clip0_4002_9227)">
<rect width="10" height="10" transform="translate(247 337)" fill="#0085D0"/>
<rect opacity="0.6" x="247" y="337" width="10" height="10" fill="url(#paint0_linear_4002_9227)"/>
<path d="M271.348 337.6H272.668L269.632 341.728L272.764 346H271.456L268.96 342.604L266.464 346H265.156L268.3 341.728L265.288 337.6H266.584L268.972 340.852L271.348 337.6ZM277.986 343.264H274.866V342.352H277.962C277.806 341.164 277.002 340.564 275.802 340.564C274.902 340.564 274.23 340.9 273.786 341.56L273.018 341.02C273.678 340.084 274.614 339.616 275.826 339.616C276.822 339.616 277.602 339.904 278.19 340.492C278.766 341.08 279.054 341.872 279.054 342.868C279.054 343.816 278.766 344.596 278.19 345.196C277.614 345.808 276.822 346.108 275.826 346.108C274.494 346.108 273.57 345.676 273.03 344.812L273.786 344.248C274.206 344.86 274.866 345.16 275.742 345.16C277.002 345.16 277.878 344.38 277.986 343.264ZM284.226 348.4H283.218V346.12H283.146C282.102 346.12 281.286 345.82 280.698 345.22C280.098 344.62 279.798 343.84 279.798 342.892C279.798 341.992 280.098 341.236 280.698 340.6C281.298 339.964 282.114 339.652 283.134 339.652H283.218V337.24H284.226V339.652H284.322C285.318 339.652 286.134 339.952 286.746 340.564C287.358 341.176 287.658 341.956 287.658 342.892C287.658 343.84 287.358 344.62 286.77 345.22C286.17 345.82 285.342 346.12 284.298 346.12H284.226V348.4ZM280.866 342.892C280.866 344.284 281.67 345.16 283.146 345.16H283.218V340.612H283.134C281.682 340.612 280.866 341.536 280.866 342.892ZM284.298 340.612H284.226V345.16H284.298C285.798 345.16 286.59 344.296 286.59 342.892C286.59 341.56 285.75 340.612 284.298 340.612ZM293.08 343.264H289.96V342.352H293.056C292.9 341.164 292.096 340.564 290.896 340.564C289.996 340.564 289.324 340.9 288.88 341.56L288.112 341.02C288.772 340.084 289.708 339.616 290.92 339.616C291.916 339.616 292.696 339.904 293.284 340.492C293.86 341.08 294.148 341.872 294.148 342.868C294.148 343.816 293.86 344.596 293.284 345.196C292.708 345.808 291.916 346.108 290.92 346.108C289.588 346.108 288.664 345.676 288.124 344.812L288.88 344.248C289.3 344.86 289.96 345.16 290.836 345.16C292.096 345.16 292.972 344.38 293.08 343.264ZM299.991 341.332L296.187 346H295.263V339.76H296.271V344.44L300.063 339.76H300.999V346H299.991V341.332ZM296.223 337.072H297.171C297.183 337.66 297.567 338.056 298.239 338.056C298.875 338.056 299.271 337.66 299.271 337.072H300.219C300.207 338.164 299.355 338.86 298.239 338.86C297.039 338.86 296.235 338.176 296.223 337.072Z" fill="#1A3341" fill-opacity="0.6"/>
<rect width="10" height="10" transform="translate(247 357)" fill="#184977"/>
<rect opacity="0.5" x="247" y="357" width="10" height="10" fill="#184977"/>
<path d="M273.028 366H271.936V358.62H266.98V366H265.888V357.6H273.028V366ZM275.658 368.4H274.65V359.76H275.658V360.54C276.078 359.928 276.75 359.616 277.674 359.616C278.586 359.616 279.318 359.904 279.858 360.492C280.398 361.08 280.662 361.836 280.662 362.772C280.662 363.732 280.374 364.524 279.798 365.16C279.21 365.796 278.466 366.108 277.554 366.108C276.714 366.108 276.078 365.892 275.658 365.472V368.4ZM277.566 360.564C276.654 360.564 275.946 361.152 275.658 361.86V364.188C276.018 364.836 276.618 365.16 277.47 365.16C278.082 365.16 278.598 364.944 278.994 364.512C279.39 364.08 279.594 363.528 279.594 362.844C279.594 361.452 278.814 360.564 277.566 360.564ZM281.427 362.868C281.427 361.92 281.739 361.14 282.351 360.528C282.963 359.916 283.755 359.616 284.727 359.616C285.711 359.616 286.515 359.916 287.127 360.528C287.739 361.14 288.051 361.92 288.051 362.868C288.051 363.816 287.739 364.584 287.127 365.196C286.503 365.808 285.699 366.108 284.727 366.108C283.755 366.108 282.963 365.808 282.351 365.196C281.739 364.584 281.427 363.816 281.427 362.868ZM282.495 362.868C282.495 363.528 282.699 364.08 283.119 364.512C283.539 364.944 284.067 365.16 284.727 365.16C285.387 365.16 285.939 364.944 286.359 364.524C286.779 364.104 286.983 363.552 286.983 362.868C286.983 362.184 286.767 361.632 286.347 361.2C285.915 360.78 285.375 360.564 284.727 360.564C284.079 360.564 283.551 360.78 283.131 361.2C282.711 361.62 282.495 362.184 282.495 362.868ZM293.214 359.76H294.222V366H293.214V363.372C292.758 363.828 292.122 364.056 291.306 364.056C289.662 364.056 288.846 363.228 288.846 361.572V359.76H289.854V361.296C289.854 362.556 290.382 363.096 291.486 363.096C292.206 363.096 292.89 362.712 293.214 362.244V359.76ZM300.413 361.332L296.609 366H295.685V359.76H296.693V364.44L300.485 359.76H301.421V366H300.413V361.332ZM307.704 364.212L308.352 364.812C307.776 365.676 306.948 366.108 305.856 366.108C304.86 366.108 304.056 365.808 303.444 365.22C302.832 364.632 302.532 363.852 302.532 362.868C302.532 361.92 302.808 361.14 303.372 360.528C303.924 359.916 304.704 359.616 305.712 359.616C306.54 359.616 307.236 359.88 307.776 360.396C308.316 360.912 308.592 361.596 308.592 362.448C308.592 362.724 308.568 362.976 308.532 363.204H303.612C303.672 364.44 304.584 365.16 305.892 365.16C306.624 365.16 307.32 364.776 307.704 364.212ZM305.64 360.54C304.5 360.54 303.756 361.236 303.6 362.292H307.524C307.464 361.188 306.756 360.54 305.64 360.54Z" fill="#1A3341" fill-opacity="0.6"/>
<path d="M31.2904 117.028C31.2904 115.576 31.6624 114.448 32.4184 113.668C33.1744 112.888 34.1344 112.492 35.3104 112.492C36.4504 112.492 37.3624 112.852 38.0464 113.584L37.2424 114.604C36.7024 114.136 36.0424 113.896 35.2864 113.896C34.5664 113.896 33.9544 114.124 33.4624 114.592C32.9704 115.06 32.7184 115.708 32.7304 116.548C33.2584 115.78 34.2544 115.264 35.2744 115.264C37.2784 115.264 38.4784 116.368 38.4784 118.096C38.4784 118.984 38.1664 119.704 37.5424 120.268C36.9064 120.832 36.1024 121.108 35.1184 121.108C33.9544 121.108 33.0184 120.748 32.3344 120.04C31.6384 119.332 31.2904 118.324 31.2904 117.028ZM32.9584 117.94C33.1144 118.948 33.8344 119.716 35.1784 119.716C36.1984 119.716 36.9904 119.08 36.9904 118.168C36.9904 117.172 36.3304 116.62 35.1184 116.62C34.6264 116.62 34.1704 116.764 33.7384 117.052C33.3064 117.352 33.0424 117.64 32.9584 117.94Z" fill="#1A3341"/>
<path d="M54.195 77H52.791V75.404H48.039V74.468L52.995 68.6H54.195V74.12H55.623V75.404H54.195V77ZM52.791 70.892L49.959 74.12H52.791V70.892Z" fill="#1A3341"/>
<path d="M38.6058 176.068H38.9538C39.8658 176.068 40.5978 175.612 40.5978 174.928C40.5978 174.208 39.9498 173.824 38.7618 173.824C37.7058 173.824 36.9378 174.232 36.9378 174.916C36.9378 175.588 37.6098 176.068 38.6058 176.068ZM38.9298 177.304H38.6418C37.4538 177.304 36.6738 177.844 36.6738 178.528C36.6738 179.296 37.4658 179.788 38.7738 179.788C40.0578 179.788 40.8618 179.32 40.8618 178.552C40.8618 177.772 40.1658 177.304 38.9298 177.304ZM38.7858 181.096C37.7178 181.096 36.8418 180.88 36.1818 180.436C35.5218 180.004 35.1858 179.416 35.1858 178.66C35.1858 177.736 35.6898 176.968 36.5898 176.644C35.8338 176.32 35.4498 175.732 35.4498 174.856C35.4498 173.416 36.6978 172.504 38.7738 172.504C40.8978 172.504 42.0978 173.416 42.0978 174.856C42.0978 175.624 41.6538 176.32 40.8378 176.62C41.8578 176.872 42.3618 177.544 42.3618 178.612C42.3618 179.38 42.0258 179.98 41.3538 180.424C40.6818 180.868 39.8298 181.096 38.7858 181.096Z" fill="#1A3341"/>
<path d="M300.732 164.987C295.667 191.539 282.325 215.806 262.62 234.31C242.915 252.813 217.858 264.604 191.04 267.991L189.115 252.752C212.715 249.771 234.765 239.396 252.106 223.113C269.446 206.83 281.187 185.475 285.644 162.109L300.732 164.987Z" fill="url(#paint1_linear_4002_9227)"/>
<path d="M191.037 267.991C165.581 271.206 139.746 266.696 116.884 255.046C94.0228 243.397 75.1902 225.145 62.8301 202.66L76.2905 195.26C87.1674 215.047 103.74 231.109 123.858 241.361C143.976 251.613 166.711 255.581 189.113 252.752L191.037 267.991Z" fill="url(#paint2_linear_4002_9227)"/>
<path d="M62.824 202.649C52.44 183.754 46.9969 162.542 47 140.982L62.36 140.984C62.3573 159.957 67.1472 178.623 76.2851 195.251L62.824 202.649Z" fill="#8BB6C2"/>
<path d="M55.9956 93.8625C59.9498 83.8796 65.1444 74.434 71.457 65.7482L83.8821 74.7784C78.327 82.4219 73.7558 90.7341 70.2761 99.519L55.9956 93.8625Z" fill="url(#paint3_linear_4002_9227)"/>
<path d="M47 141C47 124.867 50.0497 108.88 55.9886 93.8801L70.27 99.5345C65.0438 112.734 62.36 126.803 62.36 141L47 141Z" fill="#5A96A8"/>
<path d="M71.4484 65.76C74.601 61.421 78.0233 57.2845 81.695 53.3748L92.8916 63.8899C89.6605 67.3304 86.6489 70.9705 83.8745 74.7888L71.4484 65.76Z" fill="#0085D0"/>
<path d="M81.6805 53.3902C93.649 40.6418 108.103 30.4808 124.15 23.5341C140.197 16.5874 157.497 13.0023 174.983 13L174.985 28.36C159.597 28.362 144.373 31.5169 130.252 37.63C116.13 43.7431 103.411 52.6848 92.8789 63.9034L81.6805 53.3902Z" fill="#184977"/>
<path d="M175 13C193.842 13 212.451 17.1597 229.5 25.1821C246.548 33.2046 261.615 44.8919 273.626 59.4097C285.636 73.9275 294.293 90.9178 298.979 109.168C303.664 127.417 304.263 146.477 300.733 164.985L285.645 162.107C288.752 145.82 288.225 129.047 284.101 112.988C279.978 96.9277 272.36 81.9762 261.791 69.2005C251.222 56.4249 237.962 46.14 222.96 39.0803C207.957 32.0205 191.581 28.36 175 28.36V13Z" fill="url(#paint4_linear_4002_9227)"/>
<path d="M268.62 31.7664L267.36 31.2624C267.78 29.8224 269.064 29.0184 270.708 29.0184C272.616 29.0184 273.732 30.0144 273.732 31.5024C273.732 32.5944 273.264 33.4824 272.436 34.2504C272.016 34.6464 271.44 35.0904 270.708 35.6064L269.748 36.1584H273.996V37.5024H267.48V36.4344L269.376 35.0544C269.436 35.0064 269.604 34.8744 269.904 34.6464C270.204 34.4184 270.396 34.2624 270.492 34.1784C270.588 34.0944 270.756 33.9504 271.008 33.7464C271.248 33.5424 271.416 33.3744 271.524 33.2424C271.716 33.0024 272.064 32.5824 272.172 32.2464C272.22 32.0784 272.244 31.9104 272.244 31.7304C272.244 30.9144 271.656 30.4104 270.684 30.4104C269.64 30.4104 268.956 30.9864 268.62 31.7664ZM277.838 32.5704H278.186C279.098 32.5704 279.83 32.1144 279.83 31.4304C279.83 30.7104 279.182 30.3264 277.994 30.3264C276.938 30.3264 276.17 30.7344 276.17 31.4184C276.17 32.0904 276.842 32.5704 277.838 32.5704ZM278.162 33.8064H277.874C276.686 33.8064 275.906 34.3464 275.906 35.0304C275.906 35.7984 276.698 36.2904 278.006 36.2904C279.29 36.2904 280.094 35.8224 280.094 35.0544C280.094 34.2744 279.398 33.8064 278.162 33.8064ZM278.018 37.5984C276.95 37.5984 276.074 37.3824 275.414 36.9384C274.754 36.5064 274.418 35.9184 274.418 35.1624C274.418 34.2384 274.922 33.4704 275.822 33.1464C275.066 32.8224 274.682 32.2344 274.682 31.3584C274.682 29.9184 275.93 29.0064 278.006 29.0064C280.13 29.0064 281.33 29.9184 281.33 31.3584C281.33 32.1264 280.886 32.8224 280.07 33.1224C281.09 33.3744 281.594 34.0464 281.594 35.1144C281.594 35.8824 281.258 36.4824 280.586 36.9264C279.914 37.3704 279.062 37.5984 278.018 37.5984Z" fill="#1A3341"/>
<path d="M271.994 239.709L270.734 239.205C271.154 237.765 272.438 236.961 274.082 236.961C275.99 236.961 277.106 237.957 277.106 239.445C277.106 240.537 276.638 241.425 275.81 242.193C275.39 242.589 274.814 243.033 274.082 243.549L273.122 244.101H277.37V245.445H270.854V244.377L272.75 242.997C272.81 242.949 272.978 242.817 273.278 242.589C273.578 242.361 273.77 242.205 273.866 242.121C273.962 242.037 274.13 241.893 274.382 241.689C274.622 241.485 274.79 241.317 274.898 241.185C275.09 240.945 275.438 240.525 275.546 240.189C275.594 240.021 275.618 239.853 275.618 239.673C275.618 238.857 275.03 238.353 274.058 238.353C273.014 238.353 272.33 238.929 271.994 239.709ZM277.756 241.245C277.756 239.973 278.08 238.941 278.716 238.149C279.352 237.357 280.24 236.961 281.38 236.961C282.532 236.961 283.432 237.357 284.068 238.149C284.704 238.941 285.028 239.973 285.028 241.245C285.028 242.529 284.716 243.561 284.08 244.341C283.444 245.133 282.556 245.529 281.404 245.529C280.252 245.529 279.352 245.133 278.716 244.341C278.08 243.561 277.756 242.529 277.756 241.245ZM279.796 239.097C279.424 239.601 279.244 240.321 279.244 241.245C279.244 242.169 279.436 242.889 279.82 243.393C280.192 243.897 280.72 244.149 281.404 244.149C282.832 244.149 283.54 243.177 283.54 241.245C283.54 239.361 282.82 238.341 281.38 238.341C280.696 238.341 280.168 238.593 279.796 239.097Z" fill="#1A3341"/>
<path d="M91.8595 259.305L91.3675 258.105L94.1875 256.737H95.0995V265.161H93.7075V258.453L91.8595 259.305ZM103.109 260.733C103.109 262.209 102.749 263.325 102.029 264.105C101.297 264.885 100.361 265.269 99.209 265.269C98.069 265.269 97.157 264.909 96.473 264.177L97.277 263.157C97.817 263.625 98.477 263.865 99.233 263.865C99.941 263.865 100.517 263.637 100.973 263.181C101.429 262.737 101.657 262.137 101.657 261.381C101.237 262.017 100.241 262.449 99.185 262.449C98.213 262.449 97.433 262.197 96.857 261.681C96.281 261.165 95.993 260.493 95.993 259.665C95.993 258.789 96.317 258.069 96.977 257.505C97.637 256.941 98.417 256.653 99.341 256.653C100.481 256.653 101.405 257.013 102.089 257.721C102.773 258.429 103.109 259.437 103.109 260.733ZM101.489 259.977C101.477 259.485 101.285 259.041 100.901 258.645C100.505 258.249 99.989 258.045 99.353 258.045C98.849 258.045 98.417 258.189 98.045 258.477C97.673 258.765 97.481 259.137 97.481 259.593C97.481 260.553 98.249 261.141 99.353 261.141C99.809 261.141 100.265 261.021 100.709 260.769C101.153 260.517 101.405 260.253 101.489 259.977Z" fill="#1A3341"/>
<path d="M107.914 7.144L107.422 5.944L110.242 4.576H111.154V13H109.762V6.292L107.914 7.144ZM113.38 7L112.144 6.448C112.576 5.236 113.848 4.492 115.42 4.492C116.308 4.492 117.04 4.684 117.604 5.068C118.168 5.464 118.456 5.968 118.456 6.604C118.456 7.552 117.904 8.284 117.1 8.524C117.952 8.728 118.636 9.34 118.636 10.492C118.636 11.272 118.336 11.908 117.736 12.376C117.124 12.856 116.38 13.096 115.48 13.096C114.52 13.096 113.608 12.868 112.816 12.208C112.42 11.884 112.132 11.476 111.976 11.008L113.296 10.456C113.464 10.828 113.752 11.128 114.148 11.356C114.544 11.584 114.94 11.704 115.36 11.704C116.38 11.704 117.136 11.26 117.136 10.504C117.136 9.652 116.392 9.364 115.096 9.364H114.28V8.044H115.144C116.236 8.044 116.968 7.564 116.968 6.904C116.968 6.58 116.812 6.316 116.5 6.136C116.188 5.956 115.792 5.86 115.3 5.86C114.808 5.86 114.424 5.956 114.124 6.148C113.824 6.34 113.584 6.628 113.38 7Z" fill="#1A3341"/>
<path d="M65.202 47.264L63.942 46.76C64.362 45.32 65.646 44.516 67.29 44.516C69.198 44.516 70.314 45.512 70.314 47C70.314 48.092 69.846 48.98 69.018 49.748C68.598 50.144 68.022 50.588 67.29 51.104L66.33 51.656H70.578V53H64.062V51.932L65.958 50.552C66.018 50.504 66.186 50.372 66.486 50.144C66.786 49.916 66.978 49.76 67.074 49.676C67.17 49.592 67.338 49.448 67.59 49.244C67.83 49.04 67.998 48.872 68.106 48.74C68.298 48.5 68.646 48.08 68.754 47.744C68.802 47.576 68.826 47.408 68.826 47.228C68.826 46.412 68.238 45.908 67.266 45.908C66.222 45.908 65.538 46.484 65.202 47.264Z" fill="#1A3341"/>
<path d="M148.613 133.152V136H129.125V133.44L138.373 128.096C140.186 127.051 141.53 126.208 142.405 125.568C143.28 124.907 143.866 124.299 144.165 123.744C144.485 123.189 144.645 122.528 144.645 121.76V121.44C144.645 120.203 144.122 119.253 143.077 118.592C142.053 117.931 140.57 117.6 138.629 117.6C136.624 117.6 135.098 117.952 134.053 118.656C133.029 119.36 132.517 120.384 132.517 121.728V122.368H129.317V121.696C129.317 119.413 130.117 117.664 131.717 116.448C133.317 115.232 135.6 114.624 138.565 114.624C141.466 114.624 143.738 115.221 145.381 116.416C147.024 117.611 147.845 119.253 147.845 121.344V121.664C147.845 122.795 147.621 123.787 147.173 124.64C146.725 125.493 145.946 126.357 144.837 127.232C143.749 128.107 142.149 129.152 140.037 130.368L135.173 133.152H148.613ZM162.881 136.384C160.748 136.384 158.86 136 157.217 135.232C155.596 134.464 154.327 133.387 153.409 132C152.513 130.613 152.065 129.024 152.065 127.232V123.808C152.065 121.995 152.513 120.395 153.409 119.008C154.327 117.621 155.596 116.544 157.217 115.776C158.86 115.008 160.748 114.624 162.881 114.624C164.993 114.624 166.86 115.008 168.481 115.776C170.103 116.544 171.361 117.621 172.257 119.008C173.153 120.395 173.601 121.995 173.601 123.808V127.232C173.601 129.045 173.153 130.645 172.257 132.032C171.361 133.397 170.103 134.464 168.481 135.232C166.86 136 164.993 136.384 162.881 136.384ZM162.881 133.408C165.228 133.408 167.073 132.864 168.417 131.776C169.761 130.688 170.433 129.184 170.433 127.264V123.776C170.433 121.877 169.751 120.373 168.385 119.264C167.041 118.155 165.196 117.6 162.849 117.6C160.481 117.6 158.615 118.155 157.249 119.264C155.905 120.352 155.233 121.856 155.233 123.776V127.264C155.233 129.184 155.905 130.688 157.249 131.776C158.615 132.864 160.492 133.408 162.881 133.408ZM197.006 133.152V136H177.518V133.44L186.766 128.096C188.579 127.051 189.923 126.208 190.798 125.568C191.672 124.907 192.259 124.299 192.558 123.744C192.878 123.189 193.038 122.528 193.038 121.76V121.44C193.038 120.203 192.515 119.253 191.47 118.592C190.446 117.931 188.963 117.6 187.022 117.6C185.016 117.6 183.491 117.952 182.446 118.656C181.422 119.36 180.91 120.384 180.91 121.728V122.368H177.71V121.696C177.71 119.413 178.51 117.664 180.11 116.448C181.71 115.232 183.992 114.624 186.958 114.624C189.859 114.624 192.131 115.221 193.774 116.416C195.416 117.611 196.238 119.253 196.238 121.344V121.664C196.238 122.795 196.014 123.787 195.566 124.64C195.118 125.493 194.339 126.357 193.23 127.232C192.142 128.107 190.542 129.152 188.43 130.368L183.566 133.152H197.006ZM211.978 123.328C214.815 123.413 216.98 123.979 218.474 125.024C219.988 126.048 220.746 127.477 220.746 129.312V129.728C220.746 131.883 219.882 133.536 218.154 134.688C216.426 135.819 213.908 136.384 210.602 136.384C207.38 136.363 204.884 135.797 203.114 134.688C201.364 133.579 200.49 132.011 200.49 129.984V129.76H203.658V129.984C203.658 131.051 204.276 131.893 205.514 132.512C206.751 133.109 208.458 133.408 210.634 133.408C212.916 133.408 214.644 133.109 215.818 132.512C216.991 131.893 217.578 130.987 217.578 129.792V129.408C217.578 127.168 215.295 126.048 210.73 126.048H207.274V123.232L215.178 117.856H200.874V115.008H220.234V117.856L211.978 123.328Z" fill="#1A3341"/>
<path d="M94.4574 157.646V161H93.2744V151.9H96.8104C99.2934 151.9 100.541 152.849 100.541 154.76C100.541 155.579 100.242 156.268 99.6444 156.814C99.0334 157.373 98.0844 157.646 96.7974 157.646H94.4574ZM96.8624 153.005H94.4574V156.554H96.7714C98.4874 156.554 99.3194 155.878 99.3194 154.747C99.3194 153.59 98.5004 153.005 96.8624 153.005ZM102.116 155.865L101.557 155.046C102.181 154.461 103.26 154.084 104.261 154.084C106.068 154.084 107.03 155.072 107.03 156.827V161H105.938V159.999C105.509 160.623 104.664 161.091 103.572 161.091C102.103 161.091 101.115 160.272 101.115 159.024C101.115 157.607 102.324 156.931 104.352 156.931C104.989 156.931 105.509 156.996 105.938 157.126C105.938 155.813 105.47 155.111 104.131 155.111C103.455 155.111 102.779 155.358 102.116 155.865ZM103.832 160.103C104.339 160.103 104.794 159.96 105.171 159.687C105.548 159.414 105.795 159.102 105.938 158.777V158.088C105.561 157.958 105.08 157.893 104.495 157.893C103.013 157.893 102.272 158.257 102.272 158.985C102.272 159.674 102.896 160.103 103.832 160.103ZM113.649 159.05L114.429 159.609C113.922 160.558 112.778 161.117 111.647 161.117C110.568 161.117 109.697 160.792 109.034 160.155C108.371 159.518 108.033 158.673 108.033 157.607C108.033 156.593 108.358 155.748 109.021 155.085C109.684 154.422 110.529 154.084 111.582 154.084C112.791 154.084 113.87 154.63 114.325 155.462L113.48 156.034C113.025 155.423 112.401 155.111 111.608 155.111C110.906 155.111 110.334 155.345 109.879 155.813C109.424 156.281 109.19 156.879 109.19 157.607C109.19 158.348 109.424 158.946 109.905 159.401C110.373 159.856 110.984 160.09 111.751 160.09C112.557 160.09 113.194 159.739 113.649 159.05ZM121.205 161H120.113V155.267H116.291V161H115.199V154.24H121.205V161ZM123.753 163.6H122.661V154.24H123.753V155.085C124.208 154.422 124.936 154.084 125.937 154.084C126.925 154.084 127.718 154.396 128.303 155.033C128.888 155.67 129.174 156.489 129.174 157.503C129.174 158.543 128.862 159.401 128.238 160.09C127.601 160.779 126.795 161.117 125.807 161.117C124.897 161.117 124.208 160.883 123.753 160.428V163.6ZM125.82 155.111C124.832 155.111 124.065 155.748 123.753 156.515V159.037C124.143 159.739 124.793 160.09 125.716 160.09C126.379 160.09 126.938 159.856 127.367 159.388C127.796 158.92 128.017 158.322 128.017 157.581C128.017 156.073 127.172 155.111 125.82 155.111ZM135.475 159.063L136.177 159.713C135.553 160.649 134.656 161.117 133.473 161.117C132.394 161.117 131.523 160.792 130.86 160.155C130.197 159.518 129.872 158.673 129.872 157.607C129.872 156.58 130.171 155.735 130.782 155.072C131.38 154.409 132.225 154.084 133.317 154.084C134.214 154.084 134.968 154.37 135.553 154.929C136.138 155.488 136.437 156.229 136.437 157.152C136.437 157.451 136.411 157.724 136.372 157.971H131.042C131.107 159.31 132.095 160.09 133.512 160.09C134.305 160.09 135.059 159.674 135.475 159.063ZM133.239 155.085C132.004 155.085 131.198 155.839 131.029 156.983H135.28C135.215 155.787 134.448 155.085 133.239 155.085ZM137.591 162.638H136.551V159.96H137.305C137.994 158.907 138.254 157.425 138.254 154.864V154.24H143.22V159.96H144.195V162.638H143.155V161H137.591V162.638ZM142.128 155.28H139.281V155.748C139.281 157.477 139.008 158.881 138.475 159.96H142.128V155.28ZM150.234 159.063L150.936 159.713C150.312 160.649 149.415 161.117 148.232 161.117C147.153 161.117 146.282 160.792 145.619 160.155C144.956 159.518 144.631 158.673 144.631 157.607C144.631 156.58 144.93 155.735 145.541 155.072C146.139 154.409 146.984 154.084 148.076 154.084C148.973 154.084 149.727 154.37 150.312 154.929C150.897 155.488 151.196 156.229 151.196 157.152C151.196 157.451 151.17 157.724 151.131 157.971H145.801C145.866 159.31 146.854 160.09 148.271 160.09C149.064 160.09 149.818 159.674 150.234 159.063ZM147.998 155.085C146.763 155.085 145.957 155.839 145.788 156.983H150.039C149.974 155.787 149.207 155.085 147.998 155.085ZM158.003 161H156.911V155.28H154.051V155.592C154.051 157.776 153.804 159.284 153.31 160.064C152.816 160.844 152.205 161.104 151.36 161V159.96C152.231 159.96 152.959 159.583 152.959 155.631V154.24H158.003V161ZM164.688 159.063L165.39 159.713C164.766 160.649 163.869 161.117 162.686 161.117C161.607 161.117 160.736 160.792 160.073 160.155C159.41 159.518 159.085 158.673 159.085 157.607C159.085 156.58 159.384 155.735 159.995 155.072C160.593 154.409 161.438 154.084 162.53 154.084C163.427 154.084 164.181 154.37 164.766 154.929C165.351 155.488 165.65 156.229 165.65 157.152C165.65 157.451 165.624 157.724 165.585 157.971H160.255C160.32 159.31 161.308 160.09 162.725 160.09C163.518 160.09 164.272 159.674 164.688 159.063ZM162.452 155.085C161.217 155.085 160.411 155.839 160.242 156.983H164.493C164.428 155.787 163.661 155.085 162.452 155.085ZM172.817 161H171.725V158.075H167.825V161H166.733V154.24H167.825V157.048H171.725V154.24H172.817V161ZM179.393 155.943L175.272 161H174.271V154.24H175.363V159.31L179.471 154.24H180.485V161H179.393V155.943ZM187.162 159.063L187.864 159.713C187.24 160.649 186.343 161.117 185.16 161.117C184.081 161.117 183.21 160.792 182.547 160.155C181.884 159.518 181.559 158.673 181.559 157.607C181.559 156.58 181.858 155.735 182.469 155.072C183.067 154.409 183.912 154.084 185.004 154.084C185.901 154.084 186.655 154.37 187.24 154.929C187.825 155.488 188.124 156.229 188.124 157.152C188.124 157.451 188.098 157.724 188.059 157.971H182.729C182.794 159.31 183.782 160.09 185.199 160.09C185.992 160.09 186.746 159.674 187.162 159.063ZM184.926 155.085C183.691 155.085 182.885 155.839 182.716 156.983H186.967C186.902 155.787 186.135 155.085 184.926 155.085ZM198.981 161H197.889V155.267H194.067V161H192.975V154.24H198.981V161ZM205.663 159.063L206.365 159.713C205.741 160.649 204.844 161.117 203.661 161.117C202.582 161.117 201.711 160.792 201.048 160.155C200.385 159.518 200.06 158.673 200.06 157.607C200.06 156.58 200.359 155.735 200.97 155.072C201.568 154.409 202.413 154.084 203.505 154.084C204.402 154.084 205.156 154.37 205.741 154.929C206.326 155.488 206.625 156.229 206.625 157.152C206.625 157.451 206.599 157.724 206.56 157.971H201.23C201.295 159.31 202.283 160.09 203.7 160.09C204.493 160.09 205.247 159.674 205.663 159.063ZM203.427 155.085C202.192 155.085 201.386 155.839 201.217 156.983H205.468C205.403 155.787 204.636 155.085 203.427 155.085ZM208.8 163.6H207.708V154.24H208.8V155.085C209.255 154.422 209.983 154.084 210.984 154.084C211.972 154.084 212.765 154.396 213.35 155.033C213.935 155.67 214.221 156.489 214.221 157.503C214.221 158.543 213.909 159.401 213.285 160.09C212.648 160.779 211.842 161.117 210.854 161.117C209.944 161.117 209.255 160.883 208.8 160.428V163.6ZM210.867 155.111C209.879 155.111 209.112 155.748 208.8 156.515V159.037C209.19 159.739 209.84 160.09 210.763 160.09C211.426 160.09 211.985 159.856 212.414 159.388C212.843 158.92 213.064 158.322 213.064 157.581C213.064 156.073 212.219 155.111 210.867 155.111ZM220.523 159.063L221.225 159.713C220.601 160.649 219.704 161.117 218.521 161.117C217.442 161.117 216.571 160.792 215.908 160.155C215.245 159.518 214.92 158.673 214.92 157.607C214.92 156.58 215.219 155.735 215.83 155.072C216.428 154.409 217.273 154.084 218.365 154.084C219.262 154.084 220.016 154.37 220.601 154.929C221.186 155.488 221.485 156.229 221.485 157.152C221.485 157.451 221.459 157.724 221.42 157.971H216.09C216.155 159.31 217.143 160.09 218.56 160.09C219.353 160.09 220.107 159.674 220.523 159.063ZM218.287 155.085C217.052 155.085 216.246 155.839 216.077 156.983H220.328C220.263 155.787 219.496 155.085 218.287 155.085ZM225.584 161H222.568V154.24H225.376C227.261 154.24 228.145 154.721 228.145 155.969C228.145 156.593 227.859 157.087 227.274 157.438C228.002 157.659 228.366 158.192 228.366 159.063C228.366 160.324 227.365 161 225.584 161ZM225.597 158.049H223.66V159.986H225.467C226.624 159.986 227.209 159.661 227.209 159.011C227.209 158.374 226.676 158.049 225.597 158.049ZM225.337 155.254H223.66V157.061H225.714C226.507 157.061 226.988 156.736 226.988 156.125C226.988 155.436 226.429 155.254 225.337 155.254ZM229.082 157.607C229.082 156.58 229.42 155.735 230.083 155.072C230.746 154.409 231.604 154.084 232.657 154.084C233.723 154.084 234.594 154.409 235.257 155.072C235.92 155.735 236.258 156.58 236.258 157.607C236.258 158.634 235.92 159.466 235.257 160.129C234.581 160.792 233.71 161.117 232.657 161.117C231.604 161.117 230.746 160.792 230.083 160.129C229.42 159.466 229.082 158.634 229.082 157.607ZM230.239 157.607C230.239 158.322 230.46 158.92 230.915 159.388C231.37 159.856 231.942 160.09 232.657 160.09C233.372 160.09 233.97 159.856 234.425 159.401C234.88 158.946 235.101 158.348 235.101 157.607C235.101 156.866 234.867 156.268 234.412 155.8C233.944 155.345 233.359 155.111 232.657 155.111C231.955 155.111 231.383 155.345 230.928 155.8C230.473 156.255 230.239 156.866 230.239 157.607ZM239.783 161.13C238.392 161.13 237.365 160.61 236.728 159.583L237.586 158.985C237.963 159.674 238.795 160.116 239.796 160.116C240.875 160.116 241.642 159.674 241.642 158.946C241.642 158.348 241.187 158.049 240.29 158.049H238.704V157.061H240.212C240.875 157.061 241.395 156.671 241.395 156.086C241.395 155.449 240.719 155.085 239.744 155.085C238.925 155.085 238.249 155.397 237.742 156.034L236.936 155.501C237.391 154.721 238.431 154.071 239.848 154.071C241.551 154.071 242.552 154.786 242.552 155.917C242.552 156.554 242.279 157.048 241.746 157.373C242.526 157.75 242.799 158.205 242.799 158.92C242.799 159.609 242.513 160.142 241.954 160.532C241.395 160.935 240.667 161.13 239.783 161.13ZM243.51 157.607C243.51 156.58 243.848 155.735 244.511 155.072C245.174 154.409 246.032 154.084 247.085 154.084C248.151 154.084 249.022 154.409 249.685 155.072C250.348 155.735 250.686 156.58 250.686 157.607C250.686 158.634 250.348 159.466 249.685 160.129C249.009 160.792 248.138 161.117 247.085 161.117C246.032 161.117 245.174 160.792 244.511 160.129C243.848 159.466 243.51 158.634 243.51 157.607ZM244.667 157.607C244.667 158.322 244.888 158.92 245.343 159.388C245.798 159.856 246.37 160.09 247.085 160.09C247.8 160.09 248.398 159.856 248.853 159.401C249.308 158.946 249.529 158.348 249.529 157.607C249.529 156.866 249.295 156.268 248.84 155.8C248.372 155.345 247.787 155.111 247.085 155.111C246.383 155.111 245.811 155.345 245.356 155.8C244.901 156.255 244.667 156.866 244.667 157.607ZM252.86 161H251.768V154.24H252.86V157.269L256.279 154.24H257.748L254.251 157.347L257.917 161H256.461L253.419 158.023L252.86 158.543V161ZM134.369 177H133.277V171.267H129.455V177H128.363V170.24H134.369V177ZM135.447 173.607C135.447 172.58 135.785 171.735 136.448 171.072C137.111 170.409 137.969 170.084 139.022 170.084C140.088 170.084 140.959 170.409 141.622 171.072C142.285 171.735 142.623 172.58 142.623 173.607C142.623 174.634 142.285 175.466 141.622 176.129C140.946 176.792 140.075 177.117 139.022 177.117C137.969 177.117 137.111 176.792 136.448 176.129C135.785 175.466 135.447 174.634 135.447 173.607ZM136.604 173.607C136.604 174.322 136.825 174.92 137.28 175.388C137.735 175.856 138.307 176.09 139.022 176.09C139.737 176.09 140.335 175.856 140.79 175.401C141.245 174.946 141.466 174.348 141.466 173.607C141.466 172.866 141.232 172.268 140.777 171.8C140.309 171.345 139.724 171.111 139.022 171.111C138.32 171.111 137.748 171.345 137.293 171.8C136.838 172.255 136.604 172.866 136.604 173.607ZM153.479 177H152.387V171.267H148.565V177H147.473V170.24H153.479V177ZM156.026 179.6H154.934V170.24H156.026V171.085C156.481 170.422 157.209 170.084 158.21 170.084C159.198 170.084 159.991 170.396 160.576 171.033C161.161 171.67 161.447 172.489 161.447 173.503C161.447 174.543 161.135 175.401 160.511 176.09C159.874 176.779 159.068 177.117 158.08 177.117C157.17 177.117 156.481 176.883 156.026 176.428V179.6ZM158.093 171.111C157.105 171.111 156.338 171.748 156.026 172.515V175.037C156.416 175.739 157.066 176.09 157.989 176.09C158.652 176.09 159.211 175.856 159.64 175.388C160.069 174.92 160.29 174.322 160.29 173.581C160.29 172.073 159.445 171.111 158.093 171.111ZM162.146 173.607C162.146 172.58 162.484 171.735 163.147 171.072C163.81 170.409 164.668 170.084 165.721 170.084C166.787 170.084 167.658 170.409 168.321 171.072C168.984 171.735 169.322 172.58 169.322 173.607C169.322 174.634 168.984 175.466 168.321 176.129C167.645 176.792 166.774 177.117 165.721 177.117C164.668 177.117 163.81 176.792 163.147 176.129C162.484 175.466 162.146 174.634 162.146 173.607ZM163.303 173.607C163.303 174.322 163.524 174.92 163.979 175.388C164.434 175.856 165.006 176.09 165.721 176.09C166.436 176.09 167.034 175.856 167.489 175.401C167.944 174.946 168.165 174.348 168.165 173.607C168.165 172.866 167.931 172.268 167.476 171.8C167.008 171.345 166.423 171.111 165.721 171.111C165.019 171.111 164.447 171.345 163.992 171.8C163.537 172.255 163.303 172.866 163.303 173.607ZM173.42 177H170.404V170.24H173.212C175.097 170.24 175.981 170.721 175.981 171.969C175.981 172.593 175.695 173.087 175.11 173.438C175.838 173.659 176.202 174.192 176.202 175.063C176.202 176.324 175.201 177 173.42 177ZM173.433 174.049H171.496V175.986H173.303C174.46 175.986 175.045 175.661 175.045 175.011C175.045 174.374 174.512 174.049 173.433 174.049ZM173.173 171.254H171.496V173.061H173.55C174.343 173.061 174.824 172.736 174.824 172.125C174.824 171.436 174.265 171.254 173.173 171.254ZM182.416 171.943L178.295 177H177.294V170.24H178.386V175.31L182.494 170.24H183.508V177H182.416V171.943ZM191.043 177H189.951V174.075H186.051V177H184.959V170.24H186.051V173.048H189.951V170.24H191.043V177ZM198.386 177H192.497V170.24H193.589V175.96H197.372V170.24H198.464V175.96H199.413V178.638H198.386V177ZM205.36 171.943L201.239 177H200.238V170.24H201.33V175.31L205.438 170.24H206.452V177H205.36V171.943ZM210.594 170.24H213.311V177H212.219V174.608H210.568L208.566 177H207.24L209.398 174.439C208.358 174.244 207.669 173.451 207.669 172.411C207.669 171.124 208.566 170.24 210.594 170.24ZM208.826 172.437C208.826 173.1 209.45 173.568 210.438 173.568H212.219V171.28H210.464C209.372 171.28 208.826 171.67 208.826 172.437ZM215.86 177H214.768V170.24H215.769L218.265 173.542L220.696 170.24H221.632V177H220.54V172.164L218.252 175.284L215.86 172.164V177Z" fill="#3C525E"/>
<g opacity="0.8">
<rect opacity="0.9" y="337" width="10" height="10" fill="url(#paint5_linear_4002_9227)"/>
</g>
<path d="M25.404 343.936L26.028 344.632C25.392 345.532 24.12 346.108 22.764 346.108C21.444 346.108 20.388 345.712 19.608 344.932C18.828 344.152 18.432 343.108 18.432 341.8C18.432 340.564 18.828 339.544 19.608 338.716C20.388 337.9 21.408 337.492 22.68 337.492C24.12 337.492 25.296 338.068 25.908 338.884L25.2 339.568C24.516 338.884 23.676 338.536 22.704 338.536C21.732 338.536 20.976 338.836 20.412 339.436C19.848 340.036 19.572 340.828 19.572 341.8C19.572 342.784 19.872 343.576 20.472 344.164C21.072 344.764 21.864 345.064 22.836 345.064C23.88 345.064 24.732 344.692 25.404 343.936ZM31.7217 341.332L27.9177 346H26.9937V339.76H28.0017V344.44L31.7937 339.76H32.7297V346H31.7217V341.332ZM34.669 341.26L34.153 340.504C34.729 339.964 35.725 339.616 36.649 339.616C38.317 339.616 39.205 340.528 39.205 342.148V346H38.197V345.076C37.801 345.652 37.021 346.084 36.013 346.084C34.657 346.084 33.745 345.328 33.745 344.176C33.745 342.868 34.861 342.244 36.733 342.244C37.321 342.244 37.801 342.304 38.197 342.424C38.197 341.212 37.765 340.564 36.529 340.564C35.905 340.564 35.281 340.792 34.669 341.26ZM36.253 345.172C36.721 345.172 37.141 345.04 37.489 344.788C37.837 344.536 38.065 344.248 38.197 343.948V343.312C37.849 343.192 37.405 343.132 36.865 343.132C35.497 343.132 34.813 343.468 34.813 344.14C34.813 344.776 35.389 345.172 36.253 345.172ZM46.2152 346H45.2072V343.3H41.6072V346H40.5992V339.76H41.6072V342.352H45.2072V339.76H46.2152V346ZM50.1973 346H47.6773V339.76H48.6853V341.704H50.2933C51.9973 341.704 52.8493 342.412 52.8493 343.84C52.8493 345.1 52.0573 346 50.1973 346ZM50.1613 342.664H48.6853V345.04H50.1613C51.3133 345.04 51.7813 344.632 51.7813 343.852C51.7813 343.06 51.2413 342.664 50.1613 342.664Z" fill="#1A3341" fill-opacity="0.6"/>
<rect width="10" height="10" transform="translate(0 357)" fill="#60CCCC"/>
<rect opacity="0.7" y="357" width="10" height="10" fill="#60CCCC"/>
<path d="M24.24 357.6H25.332V366H24.24V362.424C23.988 362.58 23.628 362.724 23.172 362.844C22.716 362.964 22.272 363.024 21.828 363.024C20.856 363.024 20.076 362.796 19.464 362.34C18.852 361.884 18.552 361.188 18.552 360.264V357.6H19.644V359.736C19.644 361.248 20.436 362.004 22.02 362.004C22.752 362.004 23.496 361.788 24.24 361.368V357.6ZM27.0908 368.376L27.4868 367.5C27.5828 367.536 27.6668 367.56 27.7508 367.56C28.2188 367.56 28.5428 367.236 28.9628 366.24L29.1548 365.772L26.1308 359.76H27.3188L29.6588 364.5L31.4228 359.76H32.5268L30.1508 365.904C29.7428 366.912 29.3588 367.596 29.0108 367.968C28.6508 368.34 28.2428 368.52 27.7868 368.52C27.5228 368.52 27.2948 368.472 27.0908 368.376ZM38.8207 366H37.8127V363.3H34.2127V366H33.2047V359.76H34.2127V362.352H37.8127V359.76H38.8207V366ZM45.7188 366H40.2828V359.76H41.2908V365.04H44.7828V359.76H45.7908V365.04H46.6668V367.512H45.7188V366ZM52.2764 361.332L48.4724 366H47.5484V359.76H48.5564V364.44L52.3484 359.76H53.2844V366H52.2764V361.332ZM60.3597 366H59.3517V363.3H55.7517V366H54.7437V359.76H55.7517V362.352H59.3517V359.76H60.3597V366Z" fill="#1A3341" fill-opacity="0.6"/>
<rect width="10" height="10" transform="translate(0 377)" fill="url(#paint6_linear_4002_9227)"/>
<path d="M24.24 377.6H25.332V386H24.24V382.424C23.988 382.58 23.628 382.724 23.172 382.844C22.716 382.964 22.272 383.024 21.828 383.024C20.856 383.024 20.076 382.796 19.464 382.34C18.852 381.884 18.552 381.188 18.552 380.264V377.6H19.644V379.736C19.644 381.248 20.436 382.004 22.02 382.004C22.752 382.004 23.496 381.788 24.24 381.368V377.6ZM31.2788 383.264H28.1588V382.352H31.2548C31.0988 381.164 30.2948 380.564 29.0948 380.564C28.1948 380.564 27.5228 380.9 27.0788 381.56L26.3108 381.02C26.9708 380.084 27.9068 379.616 29.1188 379.616C30.1148 379.616 30.8948 379.904 31.4828 380.492C32.0588 381.08 32.3468 381.872 32.3468 382.868C32.3468 383.816 32.0588 384.596 31.4828 385.196C30.9068 385.808 30.1148 386.108 29.1188 386.108C27.7868 386.108 26.8628 385.676 26.3228 384.812L27.0788 384.248C27.4988 384.86 28.1588 385.16 29.0348 385.16C30.2948 385.16 31.1708 384.38 31.2788 383.264ZM39.0785 386H38.0705V383.3H34.4705V386H33.4625V379.76H34.4705V382.352H38.0705V379.76H39.0785V386ZM40.8166 387.512H39.8566V385.04H40.5526C41.1886 384.068 41.4286 382.7 41.4286 380.336V379.76H46.0126V385.04H46.9126V387.512H45.9526V386H40.8166V387.512ZM45.0046 380.72H42.3766V381.152C42.3766 382.748 42.1246 384.044 41.6326 385.04H45.0046V380.72ZM47.9268 388.376L48.3228 387.5C48.4188 387.536 48.5028 387.56 48.5868 387.56C49.0548 387.56 49.3788 387.236 49.7988 386.24L49.9908 385.772L46.9668 379.76H48.1548L50.4948 384.5L52.2588 379.76H53.3628L50.9868 385.904C50.5788 386.912 50.1948 387.596 49.8468 387.968C49.4868 388.34 49.0788 388.52 48.6228 388.52C48.3588 388.52 48.1308 388.472 47.9268 388.376Z" fill="#1A3341" fill-opacity="0.6"/>
<rect width="10" height="10" transform="translate(119 337)" fill="#5A96A8"/>
<rect opacity="0.5" x="119" y="337" width="10" height="10" fill="url(#paint7_linear_4002_9227)"/>
<path d="M143.24 337.6H144.332V346H143.24V342.424C142.988 342.58 142.628 342.724 142.172 342.844C141.716 342.964 141.272 343.024 140.828 343.024C139.856 343.024 139.076 342.796 138.464 342.34C137.852 341.884 137.552 341.188 137.552 340.264V337.6H138.644V339.736C138.644 341.248 139.436 342.004 141.02 342.004C141.752 342.004 142.496 341.788 143.24 341.368V337.6ZM145.215 346L147.927 342.64L145.275 339.76H146.559L149.091 342.484V339.76H150.099V342.484L152.667 339.76H153.915L151.239 342.616L154.023 346H152.775L150.507 343.228L150.099 343.612V346H149.091V343.624L148.659 343.276L146.439 346H145.215ZM159.091 343.264H155.971V342.352H159.067C158.911 341.164 158.107 340.564 156.907 340.564C156.007 340.564 155.335 340.9 154.891 341.56L154.123 341.02C154.783 340.084 155.719 339.616 156.931 339.616C157.927 339.616 158.707 339.904 159.295 340.492C159.871 341.08 160.159 341.872 160.159 342.868C160.159 343.816 159.871 344.596 159.295 345.196C158.719 345.808 157.927 346.108 156.931 346.108C155.599 346.108 154.675 345.676 154.135 344.812L154.891 344.248C155.311 344.86 155.971 345.16 156.847 345.16C158.107 345.16 158.983 344.38 159.091 343.264ZM166.891 346H165.883V343.3H162.283V346H161.275V339.76H162.283V342.352H165.883V339.76H166.891V346ZM172.397 339.76H173.405V346H172.397V343.372C171.941 343.828 171.305 344.056 170.489 344.056C168.845 344.056 168.029 343.228 168.029 341.572V339.76H169.037V341.296C169.037 342.556 169.565 343.096 170.669 343.096C171.389 343.096 172.073 342.712 172.397 342.244V339.76ZM174.137 346L176.849 342.64L174.197 339.76H175.481L178.013 342.484V339.76H179.021V342.484L181.589 339.76H182.837L180.161 342.616L182.945 346H181.697L179.429 343.228L179.021 343.612V346H178.013V343.624L177.581 343.276L175.361 346H174.137ZM182.97 342.868C182.97 341.92 183.282 341.14 183.894 340.528C184.506 339.916 185.298 339.616 186.27 339.616C187.254 339.616 188.058 339.916 188.67 340.528C189.282 341.14 189.594 341.92 189.594 342.868C189.594 343.816 189.282 344.584 188.67 345.196C188.046 345.808 187.242 346.108 186.27 346.108C185.298 346.108 184.506 345.808 183.894 345.196C183.282 344.584 182.97 343.816 182.97 342.868ZM184.038 342.868C184.038 343.528 184.242 344.08 184.662 344.512C185.082 344.944 185.61 345.16 186.27 345.16C186.93 345.16 187.482 344.944 187.902 344.524C188.322 344.104 188.526 343.552 188.526 342.868C188.526 342.184 188.31 341.632 187.89 341.2C187.458 340.78 186.918 340.564 186.27 340.564C185.622 340.564 185.094 340.78 184.674 341.2C184.254 341.62 184.038 342.184 184.038 342.868ZM190.599 348.376L190.995 347.5C191.091 347.536 191.175 347.56 191.259 347.56C191.727 347.56 192.051 347.236 192.471 346.24L192.663 345.772L189.639 339.76H190.827L193.167 344.5L194.931 339.76H196.035L193.659 345.904C193.251 346.912 192.867 347.596 192.519 347.968C192.159 348.34 191.751 348.52 191.295 348.52C191.031 348.52 190.803 348.472 190.599 348.376Z" fill="#1A3341" fill-opacity="0.6"/>
<g opacity="0.8">
<rect width="10" height="10" transform="translate(119 357)" fill="#5A96A8"/>
</g>
<path d="M143.912 359.496L138.812 366H137.888V357.6H138.98V364.104L144.068 357.6H145.004V366H143.912V359.496ZM149.422 366H146.638V359.76H149.23C150.97 359.76 151.786 360.204 151.786 361.356C151.786 361.932 151.522 362.388 150.982 362.712C151.654 362.916 151.99 363.408 151.99 364.212C151.99 365.376 151.066 366 149.422 366ZM149.434 363.276H147.646V365.064H149.314C150.382 365.064 150.922 364.764 150.922 364.164C150.922 363.576 150.43 363.276 149.434 363.276ZM149.194 360.696H147.646V362.364H149.542C150.274 362.364 150.718 362.064 150.718 361.5C150.718 360.864 150.202 360.696 149.194 360.696ZM153.263 368.376L153.659 367.5C153.755 367.536 153.839 367.56 153.923 367.56C154.391 367.56 154.715 367.236 155.135 366.24L155.327 365.772L152.303 359.76H153.491L155.831 364.5L157.595 359.76H158.699L156.323 365.904C155.915 366.912 155.531 367.596 155.183 367.968C154.823 368.34 154.415 368.52 153.959 368.52C153.695 368.52 153.467 368.472 153.263 368.376Z" fill="#1A3341" fill-opacity="0.6"/>
<rect width="10" height="10" transform="translate(119 377)" fill="url(#paint8_linear_4002_9227)"/>
<rect opacity="0.7" x="119" y="377" width="10" height="10" fill="#F7F7F8"/>
<path d="M139.088 385.664L139.628 384.86C139.748 384.944 139.88 384.992 140.012 384.992C140.336 384.992 140.66 384.632 141.008 383.912L136.94 377.6H138.248L141.572 382.796L144.056 377.6H145.184L142.04 384.08C141.416 385.388 140.84 386 139.976 386C139.604 386 139.316 385.892 139.088 385.664ZM149.669 379.76H150.893L148.505 382.772L151.013 386H149.753L147.821 383.492L145.865 386H144.665L147.161 382.784L144.797 379.76H146.057L147.857 382.052L149.669 379.76ZM152.263 381.26L151.747 380.504C152.323 379.964 153.319 379.616 154.243 379.616C155.911 379.616 156.799 380.528 156.799 382.148V386H155.791V385.076C155.395 385.652 154.615 386.084 153.607 386.084C152.251 386.084 151.339 385.328 151.339 384.176C151.339 382.868 152.455 382.244 154.327 382.244C154.915 382.244 155.395 382.304 155.791 382.424C155.791 381.212 155.359 380.564 154.123 380.564C153.499 380.564 152.875 380.792 152.263 381.26ZM153.847 385.172C154.315 385.172 154.735 385.04 155.083 384.788C155.431 384.536 155.659 384.248 155.791 383.948V383.312C155.443 383.192 154.999 383.132 154.459 383.132C153.091 383.132 152.407 383.468 152.407 384.14C152.407 384.776 152.983 385.172 153.847 385.172ZM163.809 386H162.801V383.3H159.201V386H158.193V379.76H159.201V382.352H162.801V379.76H163.809V386ZM167.791 386H165.271V379.76H166.279V381.704H167.887C169.591 381.704 170.443 382.412 170.443 383.84C170.443 385.1 169.651 386 167.791 386ZM167.755 382.664H166.279V385.04H167.755C168.907 385.04 169.375 384.632 169.375 383.852C169.375 383.06 168.835 382.664 167.755 382.664Z" fill="#1A3341" fill-opacity="0.6"/>
<rect y="317" width="352" height="1" fill="#ABBEC9"/>
</g>
<defs>
<linearGradient id="paint0_linear_4002_9227" x1="252.261" y1="336.261" x2="257" y2="341.435" gradientUnits="userSpaceOnUse">
<stop offset="0" stop-color="#5358CC"/>
<stop offset="1" stop-color="#3B38CE"/>
</linearGradient>
<linearGradient id="paint1_linear_4002_9227" x1="303" y1="141" x2="161.666" y2="291.927" gradientUnits="userSpaceOnUse">
<stop offset="0" stop-color="#43C3BB"/>
<stop offset="1" stop-color="#78CCD1"/>
</linearGradient>
<linearGradient id="paint2_linear_4002_9227" x1="175" y1="269" x2="175" y2="13" gradientUnits="userSpaceOnUse">
<stop offset="0" stop-color="#CDE3E9"/>
<stop offset="1" stop-color="#D3E8ED"/>
</linearGradient>
<linearGradient id="paint3_linear_4002_9227" x1="175" y1="19.2136" x2="72.6" y2="64.2001" gradientUnits="userSpaceOnUse">
<stop offset="0" stop-color="#B7C6EF"/>
<stop offset="0.558752" stop-color="#BECCEE"/>
</linearGradient>
<linearGradient id="paint4_linear_4002_9227" x1="175" y1="13" x2="289.643" y2="220.583" gradientUnits="userSpaceOnUse">
<stop offset="0" stop-color="#66CFF0"/>
<stop offset="1" stop-color="#A6E0F2"/>
</linearGradient>
<linearGradient id="paint5_linear_4002_9227" x1="5" y1="337" x2="5" y2="347" gradientUnits="userSpaceOnUse">
<stop offset="0" stop-color="#45B8DB"/>
<stop offset="1" stop-color="#ADE4E4"/>
</linearGradient>
<linearGradient id="paint6_linear_4002_9227" x1="5" y1="0" x2="5" y2="10" gradientUnits="userSpaceOnUse">
<stop offset="0" stop-color="#CDE3E9"/>
<stop offset="1" stop-color="#D3E8ED"/>
</linearGradient>
<linearGradient id="paint7_linear_4002_9227" x1="119" y1="337.5" x2="128.5" y2="347" gradientUnits="userSpaceOnUse">
<stop offset="0" stop-color="#66CFF0"/>
<stop offset="1" stop-color="#A6E0F2"/>
</linearGradient>
<linearGradient id="paint8_linear_4002_9227" x1="9.75728" y1="5" x2="8" y2="1" gradientUnits="userSpaceOnUse">
<stop offset="0" stop-color="#B7C6EF"/>
<stop offset="0.558752" stop-color="#BECCEE"/>
</linearGradient>
<clipPath id="clip0_4002_9227">
<rect width="352" height="391" fill="white"/>
</clipPath>
</defs>
</svg>
