<svg width="335" height="389" viewBox="0 0 335 389" fill="none" xmlns="http://www.w3.org/2000/svg">
<path d="M109.148 29.3186C126.809 20.5632 146.254 16.0052 165.967 16L165.971 31.36C148.624 31.3645 131.512 35.3756 115.97 43.0804L109.148 29.3186Z" fill="#184977"/>
<path d="M166 16C196.857 16 226.675 27.1469 249.966 47.3885C273.256 67.6302 288.45 95.6039 292.751 126.16C297.051 156.716 290.169 187.797 273.371 213.681C256.573 239.565 230.99 258.509 201.332 267.027C171.674 275.545 139.937 273.062 111.965 260.035C83.9919 247.009 61.6665 224.316 49.0984 196.135C36.5303 167.953 34.5656 136.18 43.566 106.665C52.5665 77.1495 71.9262 51.8791 98.0809 35.5058L106.231 48.5251C83.215 62.9336 66.1785 85.1715 58.2581 111.145C50.3377 137.118 52.0666 165.079 63.1266 189.878C74.1865 214.678 93.8329 234.648 118.449 246.111C143.065 257.574 170.993 259.759 197.092 252.264C223.192 244.768 245.705 228.097 260.487 205.319C275.269 182.541 281.325 155.19 277.541 128.301C273.756 101.411 260.385 76.7945 239.89 58.9819C219.394 41.1693 193.154 31.36 166 31.36V16Z" fill="url(#paint0_linear_4002_19893)"/>
<path d="M107.508 30.1461C109.893 28.9209 112.316 27.771 114.773 26.698L120.92 40.7743C118.758 41.7185 116.626 42.7304 114.527 43.8086L107.508 30.1461Z" fill="url(#paint1_linear_4002_19893)"/>
<path d="M95.0019 37.4952C99.0181 34.8179 103.183 32.37 107.475 30.1631L114.498 43.8235C110.721 45.7656 107.056 47.9198 103.522 50.2758L95.0019 37.4952Z" fill="#DBE9EE"/>
<rect y="339" width="10" height="10" fill="#8AD9F2"/>
<path d="M19.74 348H18.732V341.76H19.656L21.96 344.808L24.204 341.76H25.068V348H24.06V343.536L21.948 346.416L19.74 343.536V348ZM26.1887 344.868C26.1887 343.92 26.5007 343.14 27.1127 342.528C27.7247 341.916 28.5167 341.616 29.4887 341.616C30.4727 341.616 31.2767 341.916 31.8887 342.528C32.5007 343.14 32.8127 343.92 32.8127 344.868C32.8127 345.816 32.5007 346.584 31.8887 347.196C31.2647 347.808 30.4607 348.108 29.4887 348.108C28.5167 348.108 27.7247 347.808 27.1127 347.196C26.5007 346.584 26.1887 345.816 26.1887 344.868ZM27.2567 344.868C27.2567 345.528 27.4607 346.08 27.8807 346.512C28.3007 346.944 28.8287 347.16 29.4887 347.16C30.1487 347.16 30.7007 346.944 31.1207 346.524C31.5407 346.104 31.7447 345.552 31.7447 344.868C31.7447 344.184 31.5287 343.632 31.1087 343.2C30.6767 342.78 30.1367 342.564 29.4887 342.564C28.8407 342.564 28.3127 342.78 27.8927 343.2C27.4727 343.62 27.2567 344.184 27.2567 344.868ZM34.9392 350.4H33.9312V341.76H34.9392V342.54C35.3592 341.928 36.0312 341.616 36.9552 341.616C37.8672 341.616 38.5992 341.904 39.1392 342.492C39.6792 343.08 39.9432 343.836 39.9432 344.772C39.9432 345.732 39.6552 346.524 39.0792 347.16C38.4912 347.796 37.7472 348.108 36.8352 348.108C35.9952 348.108 35.3592 347.892 34.9392 347.472V350.4ZM36.8472 342.564C35.9352 342.564 35.2272 343.152 34.9392 343.86V346.188C35.2992 346.836 35.8992 347.16 36.7512 347.16C37.3632 347.16 37.8792 346.944 38.2752 346.512C38.6712 346.08 38.8752 345.528 38.8752 344.844C38.8752 343.452 38.0952 342.564 36.8472 342.564ZM45.8922 346.2L46.6122 346.716C46.1442 347.592 45.0882 348.108 44.0442 348.108C43.0482 348.108 42.2442 347.808 41.6322 347.22C41.0202 346.632 40.7082 345.852 40.7082 344.868C40.7082 343.932 41.0082 343.152 41.6202 342.54C42.2322 341.928 43.0122 341.616 43.9842 341.616C45.1002 341.616 46.0962 342.12 46.5162 342.888L45.7362 343.416C45.3162 342.852 44.7402 342.564 44.0082 342.564C43.3602 342.564 42.8322 342.78 42.4122 343.212C41.9922 343.644 41.7762 344.196 41.7762 344.868C41.7762 345.552 41.9922 346.104 42.4362 346.524C42.8682 346.944 43.4322 347.16 44.1402 347.16C44.8842 347.16 45.4722 346.836 45.8922 346.2ZM48.4509 348H47.4429V341.76H48.4509V344.556L51.6069 341.76H52.9629L49.7349 344.628L53.1189 348H51.7749L48.9669 345.252L48.4509 345.732V348ZM52.9309 344.868C52.9309 343.92 53.2429 343.14 53.8549 342.528C54.4669 341.916 55.2589 341.616 56.2309 341.616C57.2149 341.616 58.0189 341.916 58.6309 342.528C59.2429 343.14 59.5549 343.92 59.5549 344.868C59.5549 345.816 59.2429 346.584 58.6309 347.196C58.0069 347.808 57.2029 348.108 56.2309 348.108C55.2589 348.108 54.4669 347.808 53.8549 347.196C53.2429 346.584 52.9309 345.816 52.9309 344.868ZM53.9989 344.868C53.9989 345.528 54.2029 346.08 54.6229 346.512C55.0429 346.944 55.5709 347.16 56.2309 347.16C56.8909 347.16 57.4429 346.944 57.8629 346.524C58.2829 346.104 58.4869 345.552 58.4869 344.868C58.4869 344.184 58.2709 343.632 57.8509 343.2C57.4189 342.78 56.8789 342.564 56.2309 342.564C55.5829 342.564 55.0549 342.78 54.6349 343.2C54.2149 343.62 53.9989 344.184 53.9989 344.868ZM65.4974 346.212L66.1454 346.812C65.5694 347.676 64.7414 348.108 63.6494 348.108C62.6534 348.108 61.8494 347.808 61.2374 347.22C60.6254 346.632 60.3254 345.852 60.3254 344.868C60.3254 343.92 60.6014 343.14 61.1654 342.528C61.7174 341.916 62.4974 341.616 63.5054 341.616C64.3334 341.616 65.0294 341.88 65.5694 342.396C66.1094 342.912 66.3854 343.596 66.3854 344.448C66.3854 344.724 66.3614 344.976 66.3254 345.204H61.4054C61.4654 346.44 62.3774 347.16 63.6854 347.16C64.4174 347.16 65.1134 346.776 65.4974 346.212ZM63.4334 342.54C62.2934 342.54 61.5494 343.236 61.3934 344.292H65.3174C65.2574 343.188 64.5494 342.54 63.4334 342.54ZM75.9391 346.2L76.6591 346.716C76.1911 347.592 75.1351 348.108 74.0911 348.108C73.0951 348.108 72.2911 347.808 71.6791 347.22C71.0671 346.632 70.7551 345.852 70.7551 344.868C70.7551 343.932 71.0551 343.152 71.6671 342.54C72.2791 341.928 73.0591 341.616 74.0311 341.616C75.1471 341.616 76.1431 342.12 76.5631 342.888L75.7831 343.416C75.3631 342.852 74.7871 342.564 74.0551 342.564C73.4071 342.564 72.8791 342.78 72.4591 343.212C72.0391 343.644 71.8231 344.196 71.8231 344.868C71.8231 345.552 72.0391 346.104 72.4831 346.524C72.9151 346.944 73.4791 347.16 74.1871 347.16C74.9311 347.16 75.5191 346.836 75.9391 346.2ZM76.802 344.868C76.802 343.92 77.114 343.14 77.726 342.528C78.338 341.916 79.13 341.616 80.102 341.616C81.086 341.616 81.89 341.916 82.502 342.528C83.114 343.14 83.426 343.92 83.426 344.868C83.426 345.816 83.114 346.584 82.502 347.196C81.878 347.808 81.074 348.108 80.102 348.108C79.13 348.108 78.338 347.808 77.726 347.196C77.114 346.584 76.802 345.816 76.802 344.868ZM77.87 344.868C77.87 345.528 78.074 346.08 78.494 346.512C78.914 346.944 79.442 347.16 80.102 347.16C80.762 347.16 81.314 346.944 81.734 346.524C82.154 346.104 82.358 345.552 82.358 344.868C82.358 344.184 82.142 343.632 81.722 343.2C81.29 342.78 80.75 342.564 80.102 342.564C79.454 342.564 78.926 342.78 78.506 343.2C78.086 343.62 77.87 344.184 77.87 344.868ZM84.1965 344.868C84.1965 343.92 84.5085 343.14 85.1205 342.528C85.7325 341.916 86.5245 341.616 87.4965 341.616C88.4805 341.616 89.2845 341.916 89.8965 342.528C90.5085 343.14 90.8205 343.92 90.8205 344.868C90.8205 345.816 90.5085 346.584 89.8965 347.196C89.2725 347.808 88.4685 348.108 87.4965 348.108C86.5245 348.108 85.7325 347.808 85.1205 347.196C84.5085 346.584 84.1965 345.816 84.1965 344.868ZM85.2645 344.868C85.2645 345.528 85.4685 346.08 85.8885 346.512C86.3085 346.944 86.8365 347.16 87.4965 347.16C88.1565 347.16 88.7085 346.944 89.1285 346.524C89.5485 346.104 89.7525 345.552 89.7525 344.868C89.7525 344.184 89.5365 343.632 89.1165 343.2C88.6845 342.78 88.1445 342.564 87.4965 342.564C86.8485 342.564 86.3205 342.78 85.9005 343.2C85.4805 343.62 85.2645 344.184 85.2645 344.868ZM97.267 339.084L97.447 340.008C97.099 340.14 96.547 340.248 95.767 340.332C94.987 340.416 94.447 340.536 94.147 340.68C93.247 341.124 92.719 341.952 92.587 343.176L92.635 343.188C93.151 342.372 93.991 341.964 95.143 341.964C96.019 341.964 96.727 342.228 97.267 342.744C97.807 343.272 98.071 344.004 98.071 344.928C98.071 345.828 97.771 346.584 97.183 347.196C96.595 347.808 95.827 348.12 94.903 348.12C92.875 348.12 91.615 346.764 91.615 344.376C91.615 343.176 91.771 342.216 92.083 341.484C92.383 340.764 92.935 340.2 93.715 339.804C94.135 339.6 94.759 339.444 95.587 339.36C96.415 339.276 96.979 339.18 97.267 339.084ZM92.683 344.556V344.64C92.683 345.408 92.887 346.02 93.307 346.476C93.715 346.932 94.243 347.16 94.891 347.16C95.527 347.16 96.031 346.956 96.427 346.536C96.811 346.128 97.003 345.612 97.003 344.988C97.003 343.728 96.259 342.924 94.927 342.924C93.775 342.924 92.935 343.656 92.683 344.556ZM106.633 348H99.1812V341.76H100.189V347.04H102.433V341.76H103.441V347.04H105.685V341.76H106.693V347.04H107.569V349.512H106.633V348ZM113.275 346.212L113.923 346.812C113.347 347.676 112.519 348.108 111.427 348.108C110.431 348.108 109.627 347.808 109.015 347.22C108.403 346.632 108.103 345.852 108.103 344.868C108.103 343.92 108.379 343.14 108.943 342.528C109.495 341.916 110.275 341.616 111.283 341.616C112.111 341.616 112.807 341.88 113.347 342.396C113.887 342.912 114.163 343.596 114.163 344.448C114.163 344.724 114.139 344.976 114.103 345.204H109.183C109.243 346.44 110.155 347.16 111.463 347.16C112.195 347.16 112.891 346.776 113.275 346.212ZM111.211 342.54C110.071 342.54 109.327 343.236 109.171 344.292H113.095C113.035 343.188 112.327 342.54 111.211 342.54ZM120.899 348H119.891V345.3H116.291V348H115.283V341.76H116.291V344.352H119.891V341.76H120.899V348ZM127.089 343.332L123.285 348H122.361V341.76H123.369V346.44L127.161 341.76H128.097V348H127.089V343.332ZM134.38 346.212L135.028 346.812C134.452 347.676 133.624 348.108 132.532 348.108C131.536 348.108 130.732 347.808 130.12 347.22C129.508 346.632 129.208 345.852 129.208 344.868C129.208 343.92 129.484 343.14 130.048 342.528C130.6 341.916 131.38 341.616 132.388 341.616C133.216 341.616 133.912 341.88 134.452 342.396C134.992 342.912 135.268 343.596 135.268 344.448C135.268 344.724 135.244 344.976 135.208 345.204H130.288C130.348 346.44 131.26 347.16 132.568 347.16C133.3 347.16 133.996 346.776 134.38 346.212ZM132.316 342.54C131.176 342.54 130.432 343.236 130.276 344.292H134.2C134.14 343.188 133.432 342.54 132.316 342.54Z" fill="#1A3341" fill-opacity="0.6"/>
<rect y="359" width="10" height="10" fill="url(#paint2_linear_4002_19893)"/>
<path d="M18 368L20.712 364.64L18.06 361.76H19.344L21.876 364.484V361.76H22.884V364.484L25.452 361.76H26.7L24.024 364.616L26.808 368H25.56L23.292 365.228L22.884 365.612V368H21.876V365.624L21.444 365.276L19.224 368H18ZM31.9583 366.212L32.6063 366.812C32.0303 367.676 31.2023 368.108 30.1103 368.108C29.1143 368.108 28.3103 367.808 27.6983 367.22C27.0863 366.632 26.7863 365.852 26.7863 364.868C26.7863 363.92 27.0623 363.14 27.6263 362.528C28.1783 361.916 28.9583 361.616 29.9663 361.616C30.7943 361.616 31.4903 361.88 32.0303 362.396C32.5703 362.912 32.8463 363.596 32.8463 364.448C32.8463 364.724 32.8223 364.976 32.7863 365.204H27.8663C27.9263 366.44 28.8383 367.16 30.1463 367.16C30.8783 367.16 31.5743 366.776 31.9583 366.212ZM29.8943 362.54C28.7543 362.54 28.0103 363.236 27.8543 364.292H31.7783C31.7183 363.188 31.0103 362.54 29.8943 362.54ZM39.2498 368H38.2418V362.72H35.6018V363.008C35.6018 365.024 35.3738 366.416 34.9178 367.136C34.4618 367.856 33.8978 368.096 33.1178 368V367.04C33.9218 367.04 34.5938 366.692 34.5938 363.044V361.76H39.2498V368ZM45.5404 366.212L46.1884 366.812C45.6124 367.676 44.7844 368.108 43.6924 368.108C42.6964 368.108 41.8924 367.808 41.2804 367.22C40.6684 366.632 40.3684 365.852 40.3684 364.868C40.3684 363.92 40.6444 363.14 41.2084 362.528C41.7604 361.916 42.5404 361.616 43.5484 361.616C44.3764 361.616 45.0724 361.88 45.6124 362.396C46.1524 362.912 46.4284 363.596 46.4284 364.448C46.4284 364.724 46.4044 364.976 46.3684 365.204H41.4484C41.5084 366.44 42.4204 367.16 43.7284 367.16C44.4604 367.16 45.1564 366.776 45.5404 366.212ZM43.4764 362.54C42.3364 362.54 41.5924 363.236 41.4364 364.292H45.3604C45.3004 363.188 44.5924 362.54 43.4764 362.54ZM49.57 368.12C48.286 368.12 47.338 367.64 46.75 366.692L47.542 366.14C47.89 366.776 48.658 367.184 49.582 367.184C50.578 367.184 51.286 366.776 51.286 366.104C51.286 365.552 50.866 365.276 50.038 365.276H48.574V364.364H49.966C50.578 364.364 51.058 364.004 51.058 363.464C51.058 362.876 50.434 362.54 49.534 362.54C48.778 362.54 48.154 362.828 47.686 363.416L46.942 362.924C47.362 362.204 48.322 361.604 49.63 361.604C51.202 361.604 52.126 362.264 52.126 363.308C52.126 363.896 51.874 364.352 51.382 364.652C52.102 365 52.354 365.42 52.354 366.08C52.354 366.716 52.09 367.208 51.574 367.568C51.058 367.94 50.386 368.12 49.57 368.12ZM59.0941 368H58.0861V365.3H54.4861V368H53.4781V361.76H54.4861V364.352H58.0861V361.76H59.0941V368ZM60.2082 364.868C60.2082 363.92 60.5202 363.14 61.1322 362.528C61.7442 361.916 62.5362 361.616 63.5082 361.616C64.4922 361.616 65.2962 361.916 65.9082 362.528C66.5202 363.14 66.8322 363.92 66.8322 364.868C66.8322 365.816 66.5202 366.584 65.9082 367.196C65.2842 367.808 64.4802 368.108 63.5082 368.108C62.5362 368.108 61.7442 367.808 61.1322 367.196C60.5202 366.584 60.2082 365.816 60.2082 364.868ZM61.2762 364.868C61.2762 365.528 61.4802 366.08 61.9002 366.512C62.3202 366.944 62.8482 367.16 63.5082 367.16C64.1682 367.16 64.7202 366.944 65.1402 366.524C65.5602 366.104 65.7642 365.552 65.7642 364.868C65.7642 364.184 65.5482 363.632 65.1282 363.2C64.6962 362.78 64.1562 362.564 63.5082 362.564C62.8602 362.564 62.3322 362.78 61.9122 363.2C61.4922 363.62 61.2762 364.184 61.2762 364.868ZM67.9338 369.512H66.9738V367.04H67.6698C68.3058 366.068 68.5458 364.7 68.5458 362.336V361.76H73.1298V367.04H74.0298V369.512H73.0698V368H67.9338V369.512ZM72.1218 362.72H69.4938V363.152C69.4938 364.748 69.2418 366.044 68.7498 367.04H72.1218V362.72ZM74.552 364.868C74.552 363.92 74.864 363.14 75.476 362.528C76.088 361.916 76.88 361.616 77.852 361.616C78.836 361.616 79.64 361.916 80.252 362.528C80.864 363.14 81.176 363.92 81.176 364.868C81.176 365.816 80.864 366.584 80.252 367.196C79.628 367.808 78.824 368.108 77.852 368.108C76.88 368.108 76.088 367.808 75.476 367.196C74.864 366.584 74.552 365.816 74.552 364.868ZM75.62 364.868C75.62 365.528 75.824 366.08 76.244 366.512C76.664 366.944 77.192 367.16 77.852 367.16C78.512 367.16 79.064 366.944 79.484 366.524C79.904 366.104 80.108 365.552 80.108 364.868C80.108 364.184 79.892 363.632 79.472 363.2C79.04 362.78 78.5 362.564 77.852 362.564C77.204 362.564 76.676 362.78 76.256 363.2C75.836 363.62 75.62 364.184 75.62 364.868ZM83.3025 370.4H82.2945V361.76H83.3025V362.54C83.7225 361.928 84.3945 361.616 85.3185 361.616C86.2305 361.616 86.9625 361.904 87.5025 362.492C88.0425 363.08 88.3065 363.836 88.3065 364.772C88.3065 365.732 88.0185 366.524 87.4425 367.16C86.8545 367.796 86.1105 368.108 85.1985 368.108C84.3585 368.108 83.7225 367.892 83.3025 367.472V370.4ZM85.2105 362.564C84.2985 362.564 83.5905 363.152 83.3025 363.86V366.188C83.6625 366.836 84.2625 367.16 85.1145 367.16C85.7265 367.16 86.2425 366.944 86.6385 366.512C87.0345 366.08 87.2385 365.528 87.2385 364.844C87.2385 363.452 86.4585 362.564 85.2105 362.564ZM89.0715 364.868C89.0715 363.92 89.3835 363.14 89.9955 362.528C90.6075 361.916 91.3995 361.616 92.3715 361.616C93.3555 361.616 94.1595 361.916 94.7715 362.528C95.3835 363.14 95.6955 363.92 95.6955 364.868C95.6955 365.816 95.3835 366.584 94.7715 367.196C94.1475 367.808 93.3435 368.108 92.3715 368.108C91.3995 368.108 90.6075 367.808 89.9955 367.196C89.3835 366.584 89.0715 365.816 89.0715 364.868ZM90.1395 364.868C90.1395 365.528 90.3435 366.08 90.7635 366.512C91.1835 366.944 91.7115 367.16 92.3715 367.16C93.0315 367.16 93.5835 366.944 94.0035 366.524C94.4235 366.104 94.6275 365.552 94.6275 364.868C94.6275 364.184 94.4115 363.632 93.9915 363.2C93.5595 362.78 93.0195 362.564 92.3715 362.564C91.7235 362.564 91.1955 362.78 90.7755 363.2C90.3555 363.62 90.1395 364.184 90.1395 364.868ZM95.7188 368L98.4308 364.64L95.7788 361.76H97.0628L99.5948 364.484V361.76H100.603V364.484L103.171 361.76H104.419L101.743 364.616L104.527 368H103.279L101.011 365.228L100.603 365.612V368H99.5948V365.624L99.1628 365.276L96.9428 368H95.7188ZM110.879 368H109.871V365.3H106.271V368H105.263V361.76H106.271V364.352H109.871V361.76H110.879V368ZM114.597 368H112.341V361.76H113.349V363.704H114.693C116.529 363.704 117.261 364.556 117.261 365.84C117.261 367.1 116.457 368 114.597 368ZM114.585 364.664H113.349V367.04H114.573C115.725 367.04 116.193 366.632 116.193 365.852C116.193 365.06 115.653 364.664 114.585 364.664ZM119.169 368H118.149V361.76H119.169V368ZM125.451 366.212L126.099 366.812C125.523 367.676 124.695 368.108 123.603 368.108C122.607 368.108 121.803 367.808 121.191 367.22C120.579 366.632 120.279 365.852 120.279 364.868C120.279 363.92 120.555 363.14 121.119 362.528C121.671 361.916 122.451 361.616 123.459 361.616C124.287 361.616 124.983 361.88 125.523 362.396C126.063 362.912 126.339 363.596 126.339 364.448C126.339 364.724 126.315 364.976 126.279 365.204H121.359C121.419 366.44 122.331 367.16 123.639 367.16C124.371 367.16 125.067 366.776 125.451 366.212ZM123.387 362.54C122.247 362.54 121.503 363.236 121.347 364.292H125.271C125.211 363.188 124.503 362.54 123.387 362.54ZM24.276 384H23.268V378.708H19.74V384H18.732V377.76H24.276V384ZM30.5638 382.212L31.2118 382.812C30.6358 383.676 29.8078 384.108 28.7158 384.108C27.7198 384.108 26.9158 383.808 26.3038 383.22C25.6918 382.632 25.3918 381.852 25.3918 380.868C25.3918 379.92 25.6678 379.14 26.2318 378.528C26.7838 377.916 27.5638 377.616 28.5718 377.616C29.3998 377.616 30.0958 377.88 30.6358 378.396C31.1758 378.912 31.4518 379.596 31.4518 380.448C31.4518 380.724 31.4278 380.976 31.3918 381.204H26.4718C26.5318 382.44 27.4438 383.16 28.7518 383.16C29.4838 383.16 30.1798 382.776 30.5638 382.212ZM28.4998 378.54C27.3598 378.54 26.6158 379.236 26.4598 380.292H30.3838C30.3238 379.188 29.6158 378.54 28.4998 378.54ZM33.5798 386.4H32.5718V377.76H33.5798V378.54C33.9998 377.928 34.6718 377.616 35.5958 377.616C36.5078 377.616 37.2398 377.904 37.7798 378.492C38.3198 379.08 38.5838 379.836 38.5838 380.772C38.5838 381.732 38.2958 382.524 37.7198 383.16C37.1318 383.796 36.3878 384.108 35.4758 384.108C34.6358 384.108 33.9998 383.892 33.5798 383.472V386.4ZM35.4878 378.564C34.5758 378.564 33.8678 379.152 33.5798 379.86V382.188C33.9398 382.836 34.5398 383.16 35.3918 383.16C36.0038 383.16 36.5198 382.944 36.9158 382.512C37.3118 382.08 37.5158 381.528 37.5158 380.844C37.5158 379.452 36.7358 378.564 35.4878 378.564ZM44.5208 382.212L45.1688 382.812C44.5928 383.676 43.7648 384.108 42.6728 384.108C41.6768 384.108 40.8728 383.808 40.2608 383.22C39.6488 382.632 39.3488 381.852 39.3488 380.868C39.3488 379.92 39.6248 379.14 40.1888 378.528C40.7408 377.916 41.5208 377.616 42.5288 377.616C43.3568 377.616 44.0528 377.88 44.5928 378.396C45.1328 378.912 45.4088 379.596 45.4088 380.448C45.4088 380.724 45.3848 380.976 45.3488 381.204H40.4288C40.4888 382.44 41.4008 383.16 42.7088 383.16C43.4408 383.16 44.1368 382.776 44.5208 382.212ZM42.4568 378.54C41.3168 378.54 40.5728 379.236 40.4168 380.292H44.3408C44.2808 379.188 43.5728 378.54 42.4568 378.54ZM49.3129 384H46.5289V377.76H49.1209C50.8609 377.76 51.6769 378.204 51.6769 379.356C51.6769 379.932 51.4129 380.388 50.8729 380.712C51.5449 380.916 51.8809 381.408 51.8809 382.212C51.8809 383.376 50.9569 384 49.3129 384ZM49.3249 381.276H47.5369V383.064H49.2049C50.2729 383.064 50.8129 382.764 50.8129 382.164C50.8129 381.576 50.3209 381.276 49.3249 381.276ZM49.0849 378.696H47.5369V380.364H49.4329C50.1649 380.364 50.6089 380.064 50.6089 379.5C50.6089 378.864 50.0929 378.696 49.0849 378.696ZM52.6613 380.868C52.6613 379.92 52.9733 379.14 53.5853 378.528C54.1973 377.916 54.9893 377.616 55.9613 377.616C56.9453 377.616 57.7493 377.916 58.3613 378.528C58.9733 379.14 59.2853 379.92 59.2853 380.868C59.2853 381.816 58.9733 382.584 58.3613 383.196C57.7373 383.808 56.9333 384.108 55.9613 384.108C54.9893 384.108 54.1973 383.808 53.5853 383.196C52.9733 382.584 52.6613 381.816 52.6613 380.868ZM53.7293 380.868C53.7293 381.528 53.9333 382.08 54.3533 382.512C54.7733 382.944 55.3013 383.16 55.9613 383.16C56.6213 383.16 57.1733 382.944 57.5933 382.524C58.0133 382.104 58.2173 381.552 58.2173 380.868C58.2173 380.184 58.0013 379.632 57.5813 379.2C57.1493 378.78 56.6093 378.564 55.9613 378.564C55.3133 378.564 54.7853 378.78 54.3653 379.2C53.9453 379.62 53.7293 380.184 53.7293 380.868ZM62.6599 384.12C61.3759 384.12 60.4279 383.64 59.8399 382.692L60.6319 382.14C60.9799 382.776 61.7479 383.184 62.6719 383.184C63.6679 383.184 64.3759 382.776 64.3759 382.104C64.3759 381.552 63.9559 381.276 63.1279 381.276H61.6639V380.364H63.0559C63.6679 380.364 64.1479 380.004 64.1479 379.464C64.1479 378.876 63.5239 378.54 62.6239 378.54C61.8679 378.54 61.2439 378.828 60.7759 379.416L60.0319 378.924C60.4519 378.204 61.4119 377.604 62.7199 377.604C64.2919 377.604 65.2159 378.264 65.2159 379.308C65.2159 379.896 64.9639 380.352 64.4719 380.652C65.1919 381 65.4439 381.42 65.4439 382.08C65.4439 382.716 65.1799 383.208 64.6639 383.568C64.1479 383.94 63.4759 384.12 62.6599 384.12ZM67.5759 384H66.5679V377.76H67.5759V380.556L70.7319 377.76H72.0879L68.8599 380.628L72.2439 384H70.8999L68.0919 381.252L67.5759 381.732V384ZM77.6123 379.332L73.8083 384H72.8843V377.76H73.8923V382.44L77.6843 377.76H78.6203V384H77.6123V379.332Z" fill="#1A3341" fill-opacity="0.6"/>
<path d="M252.476 257.572C252.476 259.048 252.116 260.164 251.396 260.944C250.664 261.724 249.728 262.108 248.576 262.108C247.436 262.108 246.524 261.748 245.84 261.016L246.644 259.996C247.184 260.464 247.844 260.704 248.6 260.704C249.308 260.704 249.884 260.476 250.34 260.02C250.796 259.576 251.024 258.976 251.024 258.22C250.604 258.856 249.608 259.288 248.552 259.288C247.58 259.288 246.8 259.036 246.224 258.52C245.648 258.004 245.36 257.332 245.36 256.504C245.36 255.628 245.684 254.908 246.344 254.344C247.004 253.78 247.784 253.492 248.708 253.492C249.848 253.492 250.772 253.852 251.456 254.56C252.14 255.268 252.476 256.276 252.476 257.572ZM250.856 256.816C250.844 256.324 250.652 255.88 250.268 255.484C249.872 255.088 249.356 254.884 248.72 254.884C248.216 254.884 247.784 255.028 247.412 255.316C247.04 255.604 246.848 255.976 246.848 256.432C246.848 257.392 247.616 257.98 248.72 257.98C249.176 257.98 249.632 257.86 250.076 257.608C250.52 257.356 250.772 257.092 250.856 256.816ZM252.886 257.8C252.886 256.528 253.21 255.496 253.846 254.704C254.482 253.912 255.37 253.516 256.51 253.516C257.662 253.516 258.562 253.912 259.198 254.704C259.834 255.496 260.158 256.528 260.158 257.8C260.158 259.084 259.846 260.116 259.21 260.896C258.574 261.688 257.686 262.084 256.534 262.084C255.382 262.084 254.482 261.688 253.846 260.896C253.21 260.116 252.886 259.084 252.886 257.8ZM254.926 255.652C254.554 256.156 254.374 256.876 254.374 257.8C254.374 258.724 254.566 259.444 254.95 259.948C255.322 260.452 255.85 260.704 256.534 260.704C257.962 260.704 258.67 259.732 258.67 257.8C258.67 255.916 257.95 254.896 256.51 254.896C255.826 254.896 255.298 255.148 254.926 255.652ZM261.546 262C261.018 262.06 260.67 261.592 260.67 261.172C260.67 260.68 261.042 260.248 261.63 260.248C262.338 260.248 262.626 260.836 262.626 261.568C262.626 262.096 262.434 262.564 262.062 262.96C261.69 263.356 261.27 263.608 260.802 263.704L260.466 262.912C260.67 262.876 260.898 262.756 261.15 262.564C261.39 262.36 261.522 262.18 261.546 262ZM269.057 262H267.653V260.404H262.901V259.468L267.857 253.6H269.057V259.12H270.485V260.404H269.057V262ZM267.653 255.892L264.821 259.12H267.653V255.892Z" fill="#1A3341"/>
<path d="M96.3473 15.144L95.8553 13.944L98.6753 12.576H99.5873V21H98.1953V14.292L96.3473 15.144ZM101.549 21C101.021 21.06 100.673 20.592 100.673 20.172C100.673 19.68 101.045 19.248 101.633 19.248C102.341 19.248 102.629 19.836 102.629 20.568C102.629 21.096 102.437 21.564 102.065 21.96C101.693 22.356 101.273 22.608 100.805 22.704L100.469 21.912C100.673 21.876 100.901 21.756 101.153 21.564C101.393 21.36 101.525 21.18 101.549 21ZM104.38 15L103.144 14.448C103.576 13.236 104.848 12.492 106.42 12.492C107.308 12.492 108.04 12.684 108.604 13.068C109.168 13.464 109.456 13.968 109.456 14.604C109.456 15.552 108.904 16.284 108.1 16.524C108.952 16.728 109.636 17.34 109.636 18.492C109.636 19.272 109.336 19.908 108.736 20.376C108.124 20.856 107.38 21.096 106.48 21.096C105.52 21.096 104.608 20.868 103.816 20.208C103.42 19.884 103.132 19.476 102.976 19.008L104.296 18.456C104.464 18.828 104.752 19.128 105.148 19.356C105.544 19.584 105.94 19.704 106.36 19.704C107.38 19.704 108.136 19.26 108.136 18.504C108.136 17.652 107.392 17.364 106.096 17.364H105.28V16.044H106.144C107.236 16.044 107.968 15.564 107.968 14.904C107.968 14.58 107.812 14.316 107.5 14.136C107.188 13.956 106.792 13.86 106.3 13.86C105.808 13.86 105.424 13.956 105.124 14.148C104.824 14.34 104.584 14.628 104.38 15Z" fill="#1A3341"/>
<path d="M119.748 9.028C119.748 7.576 120.12 6.448 120.876 5.668C121.632 4.888 122.592 4.492 123.768 4.492C124.908 4.492 125.82 4.852 126.504 5.584L125.7 6.604C125.16 6.136 124.5 5.896 123.744 5.896C123.024 5.896 122.412 6.124 121.92 6.592C121.428 7.06 121.176 7.708 121.188 8.548C121.716 7.78 122.712 7.264 123.732 7.264C125.736 7.264 126.936 8.368 126.936 10.096C126.936 10.984 126.624 11.704 126 12.268C125.364 12.832 124.56 13.108 123.576 13.108C122.412 13.108 121.476 12.748 120.792 12.04C120.096 11.332 119.748 10.324 119.748 9.028ZM121.416 9.94C121.572 10.948 122.292 11.716 123.636 11.716C124.656 11.716 125.448 11.08 125.448 10.168C125.448 9.172 124.788 8.62 123.576 8.62C123.084 8.62 122.628 8.764 122.196 9.052C121.764 9.352 121.5 9.64 121.416 9.94ZM128.244 13C127.716 13.06 127.368 12.592 127.368 12.172C127.368 11.68 127.74 11.248 128.328 11.248C129.036 11.248 129.324 11.836 129.324 12.568C129.324 13.096 129.132 13.564 128.76 13.96C128.388 14.356 127.968 14.608 127.5 14.704L127.164 13.912C127.368 13.876 127.596 13.756 127.848 13.564C128.088 13.36 128.22 13.18 128.244 13ZM131.291 9.316L130.079 9.196L130.463 4.6H135.947V5.956H131.735L131.555 7.816C131.951 7.612 132.455 7.516 133.043 7.516C135.059 7.516 136.187 8.596 136.187 10.276C136.187 11.128 135.887 11.8 135.287 12.316C134.675 12.832 133.907 13.096 132.959 13.096C131.663 13.096 130.199 12.592 129.659 11.056L131.003 10.564C131.279 11.284 132.107 11.704 133.031 11.704C134.075 11.704 134.699 11.14 134.699 10.324C134.699 9.376 134.015 8.824 132.875 8.824C132.215 8.824 131.687 8.992 131.291 9.316Z" fill="#1A3341"/>
<path d="M74.0215 27.144L73.5295 25.944L76.3495 24.576H77.2615V33H75.8695V26.292L74.0215 27.144ZM79.223 33C78.695 33.06 78.347 32.592 78.347 32.172C78.347 31.68 78.719 31.248 79.307 31.248C80.015 31.248 80.303 31.836 80.303 32.568C80.303 33.096 80.111 33.564 79.739 33.96C79.367 34.356 78.947 34.608 78.479 34.704L78.143 33.912C78.347 33.876 78.575 33.756 78.827 33.564C79.067 33.36 79.199 33.18 79.223 33ZM84.2619 28.068H84.6099C85.5219 28.068 86.2539 27.612 86.2539 26.928C86.2539 26.208 85.6059 25.824 84.4179 25.824C83.3619 25.824 82.5939 26.232 82.5939 26.916C82.5939 27.588 83.2659 28.068 84.2619 28.068ZM84.5859 29.304H84.2979C83.1099 29.304 82.3299 29.844 82.3299 30.528C82.3299 31.296 83.1219 31.788 84.4299 31.788C85.7139 31.788 86.5179 31.32 86.5179 30.552C86.5179 29.772 85.8219 29.304 84.5859 29.304ZM84.4419 33.096C83.3739 33.096 82.4979 32.88 81.8379 32.436C81.1779 32.004 80.8419 31.416 80.8419 30.66C80.8419 29.736 81.3459 28.968 82.2459 28.644C81.4899 28.32 81.1059 27.732 81.1059 26.856C81.1059 25.416 82.3539 24.504 84.4299 24.504C86.5539 24.504 87.7539 25.416 87.7539 26.856C87.7539 27.624 87.3099 28.32 86.4939 28.62C87.5139 28.872 88.0179 29.544 88.0179 30.612C88.0179 31.38 87.6819 31.98 87.0099 32.424C86.3379 32.868 85.4859 33.096 84.4419 33.096Z" fill="#1A3341"/>
<path d="M139.113 152.152V155H119.625V152.44L128.873 147.096C130.686 146.051 132.03 145.208 132.905 144.568C133.78 143.907 134.366 143.299 134.665 142.744C134.985 142.189 135.145 141.528 135.145 140.76V140.44C135.145 139.203 134.622 138.253 133.577 137.592C132.553 136.931 131.07 136.6 129.129 136.6C127.124 136.6 125.598 136.952 124.553 137.656C123.529 138.36 123.017 139.384 123.017 140.728V141.368H119.817V140.696C119.817 138.413 120.617 136.664 122.217 135.448C123.817 134.232 126.1 133.624 129.065 133.624C131.966 133.624 134.238 134.221 135.881 135.416C137.524 136.611 138.345 138.253 138.345 140.344V140.664C138.345 141.795 138.121 142.787 137.673 143.64C137.225 144.493 136.446 145.357 135.337 146.232C134.249 147.107 132.649 148.152 130.537 149.368L125.673 152.152H139.113ZM153.381 155.384C151.248 155.384 149.36 155 147.717 154.232C146.096 153.464 144.827 152.387 143.909 151C143.013 149.613 142.565 148.024 142.565 146.232V142.808C142.565 140.995 143.013 139.395 143.909 138.008C144.827 136.621 146.096 135.544 147.717 134.776C149.36 134.008 151.248 133.624 153.381 133.624C155.493 133.624 157.36 134.008 158.981 134.776C160.603 135.544 161.861 136.621 162.757 138.008C163.653 139.395 164.101 140.995 164.101 142.808V146.232C164.101 148.045 163.653 149.645 162.757 151.032C161.861 152.397 160.603 153.464 158.981 154.232C157.36 155 155.493 155.384 153.381 155.384ZM153.381 152.408C155.728 152.408 157.573 151.864 158.917 150.776C160.261 149.688 160.933 148.184 160.933 146.264V142.776C160.933 140.877 160.251 139.373 158.885 138.264C157.541 137.155 155.696 136.6 153.349 136.6C150.981 136.6 149.115 137.155 147.749 138.264C146.405 139.352 145.733 140.856 145.733 142.776V146.264C145.733 148.184 146.405 149.688 147.749 150.776C149.115 151.864 150.992 152.408 153.381 152.408ZM187.506 152.152V155H168.018V152.44L177.266 147.096C179.079 146.051 180.423 145.208 181.298 144.568C182.172 143.907 182.759 143.299 183.058 142.744C183.378 142.189 183.538 141.528 183.538 140.76V140.44C183.538 139.203 183.015 138.253 181.97 137.592C180.946 136.931 179.463 136.6 177.522 136.6C175.516 136.6 173.991 136.952 172.946 137.656C171.922 138.36 171.41 139.384 171.41 140.728V141.368H168.21V140.696C168.21 138.413 169.01 136.664 170.61 135.448C172.21 134.232 174.492 133.624 177.458 133.624C180.359 133.624 182.631 134.221 184.274 135.416C185.916 136.611 186.738 138.253 186.738 140.344V140.664C186.738 141.795 186.514 142.787 186.066 143.64C185.618 144.493 184.839 145.357 183.73 146.232C182.642 147.107 181.042 148.152 178.93 149.368L174.066 152.152H187.506ZM202.478 142.328C205.315 142.413 207.48 142.979 208.974 144.024C210.488 145.048 211.246 146.477 211.246 148.312V148.728C211.246 150.883 210.382 152.536 208.654 153.688C206.926 154.819 204.408 155.384 201.102 155.384C197.88 155.363 195.384 154.797 193.614 153.688C191.864 152.579 190.99 151.011 190.99 148.984V148.76H194.158V148.984C194.158 150.051 194.776 150.893 196.014 151.512C197.251 152.109 198.958 152.408 201.134 152.408C203.416 152.408 205.144 152.109 206.318 151.512C207.491 150.893 208.078 149.987 208.078 148.792V148.408C208.078 146.168 205.795 145.048 201.23 145.048H197.774V142.232L205.678 136.856H191.374V134.008H210.734V136.856L202.478 142.328Z" fill="#1A3341"/>
<rect y="319" width="335" height="1" fill="#ABBEC9"/>
<rect x="175" y="358.5" width="10" height="10" fill="#60CCCC"/>
<path d="M194.212 363.26L193.696 362.504C194.272 361.964 195.268 361.616 196.192 361.616C197.86 361.616 198.748 362.528 198.748 364.148V368H197.74V367.076C197.344 367.652 196.564 368.084 195.556 368.084C194.2 368.084 193.288 367.328 193.288 366.176C193.288 364.868 194.404 364.244 196.276 364.244C196.864 364.244 197.344 364.304 197.74 364.424C197.74 363.212 197.308 362.564 196.072 362.564C195.448 362.564 194.824 362.792 194.212 363.26ZM195.796 367.172C196.264 367.172 196.684 367.04 197.032 366.788C197.38 366.536 197.608 366.248 197.74 365.948V365.312C197.392 365.192 196.948 365.132 196.408 365.132C195.04 365.132 194.356 365.468 194.356 366.14C194.356 366.776 194.932 367.172 195.796 367.172ZM202.926 368H200.142V361.76H202.734C204.474 361.76 205.29 362.204 205.29 363.356C205.29 363.932 205.026 364.388 204.486 364.712C205.158 364.916 205.494 365.408 205.494 366.212C205.494 367.376 204.57 368 202.926 368ZM202.938 365.276H201.15V367.064H202.818C203.886 367.064 204.426 366.764 204.426 366.164C204.426 365.576 203.934 365.276 202.938 365.276ZM202.698 362.696H201.15V364.364H203.046C203.778 364.364 204.222 364.064 204.222 363.5C204.222 362.864 203.706 362.696 202.698 362.696ZM211.351 363.332L207.547 368H206.623V361.76H207.631V366.44L211.423 361.76H212.359V368H211.351V363.332ZM214.298 363.26L213.782 362.504C214.358 361.964 215.354 361.616 216.278 361.616C217.946 361.616 218.834 362.528 218.834 364.148V368H217.826V367.076C217.43 367.652 216.65 368.084 215.642 368.084C214.286 368.084 213.374 367.328 213.374 366.176C213.374 364.868 214.49 364.244 216.362 364.244C216.95 364.244 217.43 364.304 217.826 364.424C217.826 363.212 217.394 362.564 216.158 362.564C215.534 362.564 214.91 362.792 214.298 363.26ZM215.882 367.172C216.35 367.172 216.77 367.04 217.118 366.788C217.466 366.536 217.694 366.248 217.826 365.948V365.312C217.478 365.192 217.034 365.132 216.494 365.132C215.126 365.132 214.442 365.468 214.442 366.14C214.442 366.776 215.018 367.172 215.882 367.172ZM225.772 368H224.764V362.708H221.236V368H220.228V361.76H225.772V368ZM232.06 366.212L232.708 366.812C232.132 367.676 231.304 368.108 230.212 368.108C229.216 368.108 228.412 367.808 227.8 367.22C227.188 366.632 226.888 365.852 226.888 364.868C226.888 363.92 227.164 363.14 227.728 362.528C228.28 361.916 229.06 361.616 230.068 361.616C230.896 361.616 231.592 361.88 232.132 362.396C232.672 362.912 232.948 363.596 232.948 364.448C232.948 364.724 232.924 364.976 232.888 365.204H227.968C228.028 366.44 228.94 367.16 230.248 367.16C230.98 367.16 231.676 366.776 232.06 366.212ZM229.996 362.54C228.856 362.54 228.112 363.236 227.956 364.292H231.88C231.82 363.188 231.112 362.54 229.996 362.54ZM235.076 370.4H234.068V361.76H235.076V362.54C235.496 361.928 236.168 361.616 237.092 361.616C238.004 361.616 238.736 361.904 239.276 362.492C239.816 363.08 240.08 363.836 240.08 364.772C240.08 365.732 239.792 366.524 239.216 367.16C238.628 367.796 237.884 368.108 236.972 368.108C236.132 368.108 235.496 367.892 235.076 367.472V370.4ZM236.984 362.564C236.072 362.564 235.364 363.152 235.076 363.86V366.188C235.436 366.836 236.036 367.16 236.888 367.16C237.5 367.16 238.016 366.944 238.412 366.512C238.808 366.08 239.012 365.528 239.012 364.844C239.012 363.452 238.232 362.564 236.984 362.564ZM246.017 366.212L246.665 366.812C246.089 367.676 245.261 368.108 244.169 368.108C243.173 368.108 242.369 367.808 241.757 367.22C241.145 366.632 240.845 365.852 240.845 364.868C240.845 363.92 241.121 363.14 241.685 362.528C242.237 361.916 243.017 361.616 244.025 361.616C244.853 361.616 245.549 361.88 246.089 362.396C246.629 362.912 246.905 363.596 246.905 364.448C246.905 364.724 246.881 364.976 246.845 365.204H241.925C241.985 366.44 242.897 367.16 244.205 367.16C244.937 367.16 245.633 366.776 246.017 366.212ZM243.953 362.54C242.813 362.54 242.069 363.236 241.913 364.292H245.837C245.777 363.188 245.069 362.54 243.953 362.54ZM250.809 368H248.025V361.76H250.617C252.357 361.76 253.173 362.204 253.173 363.356C253.173 363.932 252.909 364.388 252.369 364.712C253.041 364.916 253.377 365.408 253.377 366.212C253.377 367.376 252.453 368 250.809 368ZM250.821 365.276H249.033V367.064H250.701C251.769 367.064 252.309 366.764 252.309 366.164C252.309 365.576 251.817 365.276 250.821 365.276ZM250.581 362.696H249.033V364.364H250.929C251.661 364.364 252.105 364.064 252.105 363.5C252.105 362.864 251.589 362.696 250.581 362.696ZM254.157 364.868C254.157 363.92 254.469 363.14 255.081 362.528C255.693 361.916 256.485 361.616 257.457 361.616C258.441 361.616 259.245 361.916 259.857 362.528C260.469 363.14 260.781 363.92 260.781 364.868C260.781 365.816 260.469 366.584 259.857 367.196C259.233 367.808 258.429 368.108 257.457 368.108C256.485 368.108 255.693 367.808 255.081 367.196C254.469 366.584 254.157 365.816 254.157 364.868ZM255.225 364.868C255.225 365.528 255.429 366.08 255.849 366.512C256.269 366.944 256.797 367.16 257.457 367.16C258.117 367.16 258.669 366.944 259.089 366.524C259.509 366.104 259.713 365.552 259.713 364.868C259.713 364.184 259.497 363.632 259.077 363.2C258.645 362.78 258.105 362.564 257.457 362.564C256.809 362.564 256.281 362.78 255.861 363.2C255.441 363.62 255.225 364.184 255.225 364.868ZM264.156 368.12C262.872 368.12 261.924 367.64 261.336 366.692L262.128 366.14C262.476 366.776 263.244 367.184 264.168 367.184C265.164 367.184 265.872 366.776 265.872 366.104C265.872 365.552 265.452 365.276 264.624 365.276H263.16V364.364H264.552C265.164 364.364 265.644 364.004 265.644 363.464C265.644 362.876 265.02 362.54 264.12 362.54C263.364 362.54 262.74 362.828 262.272 363.416L261.528 362.924C261.948 362.204 262.908 361.604 264.216 361.604C265.788 361.604 266.712 362.264 266.712 363.308C266.712 363.896 266.46 364.352 265.968 364.652C266.688 365 266.94 365.42 266.94 366.08C266.94 366.716 266.676 367.208 266.16 367.568C265.644 367.94 264.972 368.12 264.156 368.12ZM269.072 368H268.064V361.76H269.072V364.556L272.228 361.76H273.584L270.356 364.628L273.74 368H272.396L269.588 365.252L269.072 365.732V368ZM279.108 363.332L275.304 368H274.38V361.76H275.388V366.44L279.18 361.76H280.116V368H279.108V363.332Z" fill="#1A3341" fill-opacity="0.6"/>
<rect x="175" y="338.5" width="10" height="10" fill="#184977"/>
<path d="M194.212 343.26L193.696 342.504C194.272 341.964 195.268 341.616 196.192 341.616C197.86 341.616 198.748 342.528 198.748 344.148V348H197.74V347.076C197.344 347.652 196.564 348.084 195.556 348.084C194.2 348.084 193.288 347.328 193.288 346.176C193.288 344.868 194.404 344.244 196.276 344.244C196.864 344.244 197.344 344.304 197.74 344.424C197.74 343.212 197.308 342.564 196.072 342.564C195.448 342.564 194.824 342.792 194.212 343.26ZM195.796 347.172C196.264 347.172 196.684 347.04 197.032 346.788C197.38 346.536 197.608 346.248 197.74 345.948V345.312C197.392 345.192 196.948 345.132 196.408 345.132C195.04 345.132 194.356 345.468 194.356 346.14C194.356 346.776 194.932 347.172 195.796 347.172ZM202.926 348H200.142V341.76H202.734C204.474 341.76 205.29 342.204 205.29 343.356C205.29 343.932 205.026 344.388 204.486 344.712C205.158 344.916 205.494 345.408 205.494 346.212C205.494 347.376 204.57 348 202.926 348ZM202.938 345.276H201.15V347.064H202.818C203.886 347.064 204.426 346.764 204.426 346.164C204.426 345.576 203.934 345.276 202.938 345.276ZM202.698 342.696H201.15V344.364H203.046C203.778 344.364 204.222 344.064 204.222 343.5C204.222 342.864 203.706 342.696 202.698 342.696ZM208.291 342.708H205.903V341.76H211.711V342.708H209.299V348H208.291V342.708ZM211.876 344.868C211.876 343.92 212.188 343.14 212.8 342.528C213.412 341.916 214.204 341.616 215.176 341.616C216.16 341.616 216.964 341.916 217.576 342.528C218.188 343.14 218.5 343.92 218.5 344.868C218.5 345.816 218.188 346.584 217.576 347.196C216.952 347.808 216.148 348.108 215.176 348.108C214.204 348.108 213.412 347.808 212.8 347.196C212.188 346.584 211.876 345.816 211.876 344.868ZM212.944 344.868C212.944 345.528 213.148 346.08 213.568 346.512C213.988 346.944 214.516 347.16 215.176 347.16C215.836 347.16 216.388 346.944 216.808 346.524C217.228 346.104 217.432 345.552 217.432 344.868C217.432 344.184 217.216 343.632 216.796 343.2C216.364 342.78 215.824 342.564 215.176 342.564C214.528 342.564 214 342.78 213.58 343.2C213.16 343.62 212.944 344.184 212.944 344.868ZM221.052 342.708H218.664V341.76H224.472V342.708H222.06V348H221.052V342.708ZM226.228 350.4H225.22V341.76H226.228V342.54C226.648 341.928 227.32 341.616 228.244 341.616C229.156 341.616 229.888 341.904 230.428 342.492C230.968 343.08 231.232 343.836 231.232 344.772C231.232 345.732 230.944 346.524 230.368 347.16C229.78 347.796 229.036 348.108 228.124 348.108C227.284 348.108 226.648 347.892 226.228 347.472V350.4ZM228.136 342.564C227.224 342.564 226.516 343.152 226.228 343.86V346.188C226.588 346.836 227.188 347.16 228.04 347.16C228.652 347.16 229.168 346.944 229.564 346.512C229.96 346.08 230.164 345.528 230.164 344.844C230.164 343.452 229.384 342.564 228.136 342.564ZM232.825 343.26L232.309 342.504C232.885 341.964 233.881 341.616 234.805 341.616C236.473 341.616 237.361 342.528 237.361 344.148V348H236.353V347.076C235.957 347.652 235.177 348.084 234.169 348.084C232.813 348.084 231.901 347.328 231.901 346.176C231.901 344.868 233.017 344.244 234.889 344.244C235.477 344.244 235.957 344.304 236.353 344.424C236.353 343.212 235.921 342.564 234.685 342.564C234.061 342.564 233.437 342.792 232.825 343.26ZM234.409 347.172C234.877 347.172 235.297 347.04 235.645 346.788C235.993 346.536 236.221 346.248 236.353 345.948V345.312C236.005 345.192 235.561 345.132 235.021 345.132C233.653 345.132 232.969 345.468 232.969 346.14C232.969 346.776 233.545 347.172 234.409 347.172ZM244.371 348H243.363V345.3H239.763V348H238.755V341.76H239.763V344.352H243.363V341.76H244.371V348ZM250.67 346.2L251.39 346.716C250.922 347.592 249.866 348.108 248.822 348.108C247.826 348.108 247.022 347.808 246.41 347.22C245.798 346.632 245.486 345.852 245.486 344.868C245.486 343.932 245.786 343.152 246.398 342.54C247.01 341.928 247.79 341.616 248.762 341.616C249.878 341.616 250.874 342.12 251.294 342.888L250.514 343.416C250.094 342.852 249.518 342.564 248.786 342.564C248.138 342.564 247.61 342.78 247.19 343.212C246.77 343.644 246.554 344.196 246.554 344.868C246.554 345.552 246.77 346.104 247.214 346.524C247.646 346.944 248.21 347.16 248.918 347.16C249.662 347.16 250.25 346.836 250.67 346.2ZM257.764 348H256.756V342.708H253.228V348H252.22V341.76H257.764V348ZM258.88 344.868C258.88 343.92 259.192 343.14 259.804 342.528C260.416 341.916 261.208 341.616 262.18 341.616C263.164 341.616 263.968 341.916 264.58 342.528C265.192 343.14 265.504 343.92 265.504 344.868C265.504 345.816 265.192 346.584 264.58 347.196C263.956 347.808 263.152 348.108 262.18 348.108C261.208 348.108 260.416 347.808 259.804 347.196C259.192 346.584 258.88 345.816 258.88 344.868ZM259.948 344.868C259.948 345.528 260.152 346.08 260.572 346.512C260.992 346.944 261.52 347.16 262.18 347.16C262.84 347.16 263.392 346.944 263.812 346.524C264.232 346.104 264.436 345.552 264.436 344.868C264.436 344.184 264.22 343.632 263.8 343.2C263.368 342.78 262.828 342.564 262.18 342.564C261.532 342.564 261.004 342.78 260.584 343.2C260.164 343.62 259.948 344.184 259.948 344.868ZM267.631 350.4H266.623V341.76H267.631V342.54C268.051 341.928 268.723 341.616 269.647 341.616C270.559 341.616 271.291 341.904 271.831 342.492C272.371 343.08 272.635 343.836 272.635 344.772C272.635 345.732 272.347 346.524 271.771 347.16C271.183 347.796 270.439 348.108 269.527 348.108C268.687 348.108 268.051 347.892 267.631 347.472V350.4ZM269.539 342.564C268.627 342.564 267.919 343.152 267.631 343.86V346.188C267.991 346.836 268.591 347.16 269.443 347.16C270.055 347.16 270.571 346.944 270.967 346.512C271.363 346.08 271.567 345.528 271.567 344.844C271.567 343.452 270.787 342.564 269.539 342.564ZM275.181 342.708H272.793V341.76H278.601V342.708H276.189V348H275.181V342.708Z" fill="#1A3341" fill-opacity="0.6"/>
<defs>
<linearGradient id="paint0_linear_4002_19893" x1="166" y1="16" x2="280.643" y2="223.583" gradientUnits="userSpaceOnUse">
<stop offset="0" stop-color="#66CFF0"/>
<stop offset="1" stop-color="#A6E0F2"/>
</linearGradient>
<linearGradient id="paint1_linear_4002_19893" x1="38" y1="144" x2="179.334" y2="-6.92706" gradientUnits="userSpaceOnUse">
<stop offset="0" stop-color="#43C3BB"/>
<stop offset="1" stop-color="#78CCD1"/>
</linearGradient>
<linearGradient id="paint2_linear_4002_19893" x1="5" y1="359" x2="5" y2="369" gradientUnits="userSpaceOnUse">
<stop offset="0" stop-color="#CDE3E9"/>
<stop offset="1" stop-color="#D3E8ED"/>
</linearGradient>
</defs>
</svg>
