<svg width="681" height="488" viewBox="0 0 681 488" fill="none" xmlns="http://www.w3.org/2000/svg">
<rect x="241" width="200" height="60" rx="2" fill="#BAEABF"/>
<path d="M295.209 23.936L295.833 24.632C295.197 25.532 293.925 26.108 292.569 26.108C291.249 26.108 290.193 25.712 289.413 24.932C288.633 24.152 288.237 23.108 288.237 21.8C288.237 20.564 288.633 19.544 289.413 18.716C290.193 17.9 291.213 17.492 292.485 17.492C293.925 17.492 295.101 18.068 295.713 18.884L295.005 19.568C294.321 18.884 293.481 18.536 292.509 18.536C291.537 18.536 290.781 18.836 290.217 19.436C289.653 20.036 289.377 20.828 289.377 21.8C289.377 22.784 289.677 23.576 290.277 24.164C290.877 24.764 291.669 25.064 292.641 25.064C293.685 25.064 294.537 24.692 295.209 23.936ZM302.463 26H301.455V20.708H297.927V26H296.919V19.76H302.463V26ZM303.699 22.868C303.699 21.92 304.011 21.14 304.623 20.528C305.235 19.916 306.027 19.616 306.999 19.616C307.983 19.616 308.787 19.916 309.399 20.528C310.011 21.14 310.323 21.92 310.323 22.868C310.323 23.816 310.011 24.584 309.399 25.196C308.775 25.808 307.971 26.108 306.999 26.108C306.027 26.108 305.235 25.808 304.623 25.196C304.011 24.584 303.699 23.816 303.699 22.868ZM304.767 22.868C304.767 23.528 304.971 24.08 305.391 24.512C305.811 24.944 306.339 25.16 306.999 25.16C307.659 25.16 308.211 24.944 308.631 24.524C309.051 24.104 309.255 23.552 309.255 22.868C309.255 22.184 309.039 21.632 308.619 21.2C308.187 20.78 307.647 20.564 306.999 20.564C306.351 20.564 305.823 20.78 305.403 21.2C304.983 21.62 304.767 22.184 304.767 22.868ZM316.397 24.2L317.117 24.716C316.649 25.592 315.593 26.108 314.549 26.108C313.553 26.108 312.749 25.808 312.137 25.22C311.525 24.632 311.213 23.852 311.213 22.868C311.213 21.932 311.513 21.152 312.125 20.54C312.737 19.928 313.517 19.616 314.489 19.616C315.605 19.616 316.601 20.12 317.021 20.888L316.241 21.416C315.821 20.852 315.245 20.564 314.513 20.564C313.865 20.564 313.337 20.78 312.917 21.212C312.497 21.644 312.281 22.196 312.281 22.868C312.281 23.552 312.497 24.104 312.941 24.524C313.373 24.944 313.937 25.16 314.645 25.16C315.389 25.16 315.977 24.836 316.397 24.2ZM317.38 22.868C317.38 21.92 317.692 21.14 318.304 20.528C318.916 19.916 319.708 19.616 320.68 19.616C321.664 19.616 322.468 19.916 323.08 20.528C323.692 21.14 324.004 21.92 324.004 22.868C324.004 23.816 323.692 24.584 323.08 25.196C322.456 25.808 321.652 26.108 320.68 26.108C319.708 26.108 318.916 25.808 318.304 25.196C317.692 24.584 317.38 23.816 317.38 22.868ZM318.448 22.868C318.448 23.528 318.652 24.08 319.072 24.512C319.492 24.944 320.02 25.16 320.68 25.16C321.34 25.16 321.892 24.944 322.312 24.524C322.732 24.104 322.936 23.552 322.936 22.868C322.936 22.184 322.72 21.632 322.3 21.2C321.868 20.78 321.328 20.564 320.68 20.564C320.032 20.564 319.504 20.78 319.084 21.2C318.664 21.62 318.448 22.184 318.448 22.868ZM330.571 17.084L330.751 18.008C330.403 18.14 329.851 18.248 329.071 18.332C328.291 18.416 327.751 18.536 327.451 18.68C326.551 19.124 326.023 19.952 325.891 21.176L325.939 21.188C326.455 20.372 327.295 19.964 328.447 19.964C329.323 19.964 330.031 20.228 330.571 20.744C331.111 21.272 331.375 22.004 331.375 22.928C331.375 23.828 331.075 24.584 330.487 25.196C329.899 25.808 329.131 26.12 328.207 26.12C326.179 26.12 324.919 24.764 324.919 22.376C324.919 21.176 325.075 20.216 325.387 19.484C325.687 18.764 326.239 18.2 327.019 17.804C327.439 17.6 328.063 17.444 328.891 17.36C329.719 17.276 330.283 17.18 330.571 17.084ZM325.987 22.556V22.64C325.987 23.408 326.191 24.02 326.611 24.476C327.019 24.932 327.547 25.16 328.195 25.16C328.831 25.16 329.335 24.956 329.731 24.536C330.115 24.128 330.307 23.612 330.307 22.988C330.307 21.728 329.563 20.924 328.231 20.924C327.079 20.924 326.239 21.656 325.987 22.556ZM334.861 26H332.605V19.76H333.613V21.704H334.957C336.793 21.704 337.525 22.556 337.525 23.84C337.525 25.1 336.721 26 334.861 26ZM334.849 22.664H333.613V25.04H334.837C335.989 25.04 336.457 24.632 336.457 23.852C336.457 23.06 335.917 22.664 334.849 22.664ZM339.433 26H338.413V19.76H339.433V26ZM346.984 26.12C345.7 26.12 344.752 25.64 344.164 24.692L344.956 24.14C345.304 24.776 346.072 25.184 346.996 25.184C347.992 25.184 348.7 24.776 348.7 24.104C348.7 23.552 348.28 23.276 347.452 23.276H345.988V22.364H347.38C347.992 22.364 348.472 22.004 348.472 21.464C348.472 20.876 347.848 20.54 346.948 20.54C346.192 20.54 345.568 20.828 345.1 21.416L344.356 20.924C344.776 20.204 345.736 19.604 347.044 19.604C348.616 19.604 349.54 20.264 349.54 21.308C349.54 21.896 349.288 22.352 348.796 22.652C349.516 23 349.768 23.42 349.768 24.08C349.768 24.716 349.504 25.208 348.988 25.568C348.472 25.94 347.8 26.12 346.984 26.12ZM351.562 21.26L351.046 20.504C351.622 19.964 352.618 19.616 353.542 19.616C355.21 19.616 356.098 20.528 356.098 22.148V26H355.09V25.076C354.694 25.652 353.914 26.084 352.906 26.084C351.55 26.084 350.638 25.328 350.638 24.176C350.638 22.868 351.754 22.244 353.626 22.244C354.214 22.244 354.694 22.304 355.09 22.424C355.09 21.212 354.658 20.564 353.422 20.564C352.798 20.564 352.174 20.792 351.562 21.26ZM353.146 25.172C353.614 25.172 354.034 25.04 354.382 24.788C354.73 24.536 354.958 24.248 355.09 23.948V23.312C354.742 23.192 354.298 23.132 353.758 23.132C352.39 23.132 351.706 23.468 351.706 24.14C351.706 24.776 352.282 25.172 353.146 25.172ZM358.62 26H357.612V19.76H358.62V22.556L361.776 19.76H363.132L359.904 22.628L363.288 26H361.944L359.136 23.252L358.62 23.732V26ZM364.017 28.376L364.413 27.5C364.509 27.536 364.593 27.56 364.677 27.56C365.145 27.56 365.469 27.236 365.889 26.24L366.081 25.772L363.057 19.76H364.245L366.585 24.5L368.349 19.76H369.453L367.077 25.904C366.669 26.912 366.285 27.596 365.937 27.968C365.577 28.34 365.169 28.52 364.713 28.52C364.449 28.52 364.221 28.472 364.017 28.376ZM375.795 26H374.787V20.708H371.259V26H370.251V19.76H375.795V26ZM377.03 22.868C377.03 21.92 377.342 21.14 377.954 20.528C378.566 19.916 379.358 19.616 380.33 19.616C381.314 19.616 382.118 19.916 382.73 20.528C383.342 21.14 383.654 21.92 383.654 22.868C383.654 23.816 383.342 24.584 382.73 25.196C382.106 25.808 381.302 26.108 380.33 26.108C379.358 26.108 378.566 25.808 377.954 25.196C377.342 24.584 377.03 23.816 377.03 22.868ZM378.098 22.868C378.098 23.528 378.302 24.08 378.722 24.512C379.142 24.944 379.67 25.16 380.33 25.16C380.99 25.16 381.542 24.944 381.962 24.524C382.382 24.104 382.586 23.552 382.586 22.868C382.586 22.184 382.37 21.632 381.95 21.2C381.518 20.78 380.978 20.564 380.33 20.564C379.682 20.564 379.154 20.78 378.734 21.2C378.314 21.62 378.098 22.184 378.098 22.868ZM385.901 26H384.893V19.76H385.901V22.556L389.057 19.76H390.413L387.185 22.628L390.569 26H389.225L386.417 23.252L385.901 23.732V26ZM310.753 42H307.969V35.76H310.561C312.301 35.76 313.117 36.204 313.117 37.356C313.117 37.932 312.853 38.388 312.313 38.712C312.985 38.916 313.321 39.408 313.321 40.212C313.321 41.376 312.397 42 310.753 42ZM310.765 39.276H308.977V41.064H310.645C311.713 41.064 312.253 40.764 312.253 40.164C312.253 39.576 311.761 39.276 310.765 39.276ZM310.525 36.696H308.977V38.364H310.873C311.605 38.364 312.049 38.064 312.049 37.5C312.049 36.864 311.533 36.696 310.525 36.696ZM317.94 38.868C317.94 37.92 318.252 37.14 318.864 36.528C319.476 35.916 320.268 35.616 321.24 35.616C322.224 35.616 323.028 35.916 323.64 36.528C324.252 37.14 324.564 37.92 324.564 38.868C324.564 39.816 324.252 40.584 323.64 41.196C323.016 41.808 322.212 42.108 321.24 42.108C320.268 42.108 319.476 41.808 318.864 41.196C318.252 40.584 317.94 39.816 317.94 38.868ZM319.008 38.868C319.008 39.528 319.212 40.08 319.632 40.512C320.052 40.944 320.58 41.16 321.24 41.16C321.9 41.16 322.452 40.944 322.872 40.524C323.292 40.104 323.496 39.552 323.496 38.868C323.496 38.184 323.28 37.632 322.86 37.2C322.428 36.78 321.888 36.564 321.24 36.564C320.592 36.564 320.064 36.78 319.644 37.2C319.224 37.62 319.008 38.184 319.008 38.868ZM331.13 33.084L331.31 34.008C330.962 34.14 330.41 34.248 329.63 34.332C328.85 34.416 328.31 34.536 328.01 34.68C327.11 35.124 326.582 35.952 326.45 37.176L326.498 37.188C327.014 36.372 327.854 35.964 329.006 35.964C329.882 35.964 330.59 36.228 331.13 36.744C331.67 37.272 331.934 38.004 331.934 38.928C331.934 39.828 331.634 40.584 331.046 41.196C330.458 41.808 329.69 42.12 328.766 42.12C326.738 42.12 325.478 40.764 325.478 38.376C325.478 37.176 325.634 36.216 325.946 35.484C326.246 34.764 326.798 34.2 327.578 33.804C327.998 33.6 328.622 33.444 329.45 33.36C330.278 33.276 330.842 33.18 331.13 33.084ZM326.546 38.556V38.64C326.546 39.408 326.75 40.02 327.17 40.476C327.578 40.932 328.106 41.16 328.754 41.16C329.39 41.16 329.894 40.956 330.29 40.536C330.674 40.128 330.866 39.612 330.866 38.988C330.866 37.728 330.122 36.924 328.79 36.924C327.638 36.924 326.798 37.656 326.546 38.556ZM340.616 42H333.164V35.76H334.172V41.04H336.416V35.76H337.424V41.04H339.668V35.76H340.676V41.04H341.552V43.512H340.616V42ZM347.378 40.212L348.026 40.812C347.45 41.676 346.622 42.108 345.53 42.108C344.534 42.108 343.73 41.808 343.118 41.22C342.506 40.632 342.206 39.852 342.206 38.868C342.206 37.92 342.482 37.14 343.046 36.528C343.598 35.916 344.378 35.616 345.386 35.616C346.214 35.616 346.91 35.88 347.45 36.396C347.99 36.912 348.266 37.596 348.266 38.448C348.266 38.724 348.242 38.976 348.206 39.204H343.286C343.346 40.44 344.258 41.16 345.566 41.16C346.298 41.16 346.994 40.776 347.378 40.212ZM345.314 36.54C344.174 36.54 343.43 37.236 343.274 38.292H347.198C347.138 37.188 346.43 36.54 345.314 36.54ZM354.342 40.2L355.062 40.716C354.594 41.592 353.538 42.108 352.494 42.108C351.498 42.108 350.694 41.808 350.082 41.22C349.47 40.632 349.158 39.852 349.158 38.868C349.158 37.932 349.458 37.152 350.07 36.54C350.682 35.928 351.462 35.616 352.434 35.616C353.55 35.616 354.546 36.12 354.966 36.888L354.186 37.416C353.766 36.852 353.19 36.564 352.458 36.564C351.81 36.564 351.282 36.78 350.862 37.212C350.442 37.644 350.226 38.196 350.226 38.868C350.226 39.552 350.442 40.104 350.886 40.524C351.318 40.944 351.882 41.16 352.59 41.16C353.334 41.16 353.922 40.836 354.342 40.2ZM357.774 36.708H355.386V35.76H361.194V36.708H358.782V42H357.774V36.708ZM364.846 42H362.062V35.76H364.654C366.394 35.76 367.21 36.204 367.21 37.356C367.21 37.932 366.946 38.388 366.406 38.712C367.078 38.916 367.414 39.408 367.414 40.212C367.414 41.376 366.49 42 364.846 42ZM364.858 39.276H363.07V41.064H364.738C365.806 41.064 366.346 40.764 366.346 40.164C366.346 39.576 365.854 39.276 364.858 39.276ZM364.618 36.696H363.07V38.364H364.966C365.698 38.364 366.142 38.064 366.142 37.5C366.142 36.864 365.626 36.696 364.618 36.696ZM373.487 40.212L374.135 40.812C373.559 41.676 372.731 42.108 371.639 42.108C370.643 42.108 369.839 41.808 369.227 41.22C368.615 40.632 368.315 39.852 368.315 38.868C368.315 37.92 368.591 37.14 369.155 36.528C369.707 35.916 370.487 35.616 371.495 35.616C372.323 35.616 373.019 35.88 373.559 36.396C374.099 36.912 374.375 37.596 374.375 38.448C374.375 38.724 374.351 38.976 374.315 39.204H369.395C369.455 40.44 370.367 41.16 371.675 41.16C372.407 41.16 373.103 40.776 373.487 40.212ZM371.423 36.54C370.283 36.54 369.539 37.236 369.383 38.292H373.307C373.247 37.188 372.539 36.54 371.423 36.54Z" fill="#1A3341"/>
<rect x="241" y="92" width="200" height="60" rx="2" fill="#BAEADC"/>
<rect width="200" height="60" rx="2" fill="#BAEADC"/>
<path d="M34.5941 34H33.5021V25.6H34.5941V29.656L38.8421 25.6H40.2701L36.3101 29.404L40.5581 34H39.1181L35.4941 30.124L34.5941 30.988V34ZM40.5126 30.868C40.5126 29.92 40.8246 29.14 41.4366 28.528C42.0486 27.916 42.8406 27.616 43.8126 27.616C44.7966 27.616 45.6006 27.916 46.2126 28.528C46.8246 29.14 47.1366 29.92 47.1366 30.868C47.1366 31.816 46.8246 32.584 46.2126 33.196C45.5886 33.808 44.7846 34.108 43.8126 34.108C42.8406 34.108 42.0486 33.808 41.4366 33.196C40.8246 32.584 40.5126 31.816 40.5126 30.868ZM41.5806 30.868C41.5806 31.528 41.7846 32.08 42.2046 32.512C42.6246 32.944 43.1526 33.16 43.8126 33.16C44.4726 33.16 45.0246 32.944 45.4446 32.524C45.8646 32.104 46.0686 31.552 46.0686 30.868C46.0686 30.184 45.8526 29.632 45.4326 29.2C45.0006 28.78 44.4606 28.564 43.8126 28.564C43.1646 28.564 42.6366 28.78 42.2166 29.2C41.7966 29.62 41.5806 30.184 41.5806 30.868ZM53.9911 34H52.9831V31.3H49.3831V34H48.3751V27.76H49.3831V30.352H52.9831V27.76H53.9911V34ZM56.5813 34H55.5733V27.76H56.5813V30.556L59.7373 27.76H61.0933L57.8653 30.628L61.2493 34H59.9053L57.0973 31.252L56.5813 31.732V34ZM61.9779 36.376L62.3739 35.5C62.4699 35.536 62.5539 35.56 62.6379 35.56C63.1059 35.56 63.4299 35.236 63.8499 34.24L64.0419 33.772L61.0179 27.76H62.2059L64.5459 32.5L66.3099 27.76H67.4139L65.0379 33.904C64.6299 34.912 64.2459 35.596 63.8979 35.968C63.5379 36.34 63.1299 36.52 62.6739 36.52C62.4099 36.52 62.1819 36.472 61.9779 36.376ZM69.2197 36.4H68.2117V27.76H69.2197V28.54C69.6397 27.928 70.3117 27.616 71.2357 27.616C72.1477 27.616 72.8797 27.904 73.4197 28.492C73.9597 29.08 74.2237 29.836 74.2237 30.772C74.2237 31.732 73.9357 32.524 73.3597 33.16C72.7717 33.796 72.0277 34.108 71.1157 34.108C70.2757 34.108 69.6397 33.892 69.2197 33.472V36.4ZM71.1277 28.564C70.2157 28.564 69.5077 29.152 69.2197 29.86V32.188C69.5797 32.836 70.1797 33.16 71.0317 33.16C71.6437 33.16 72.1597 32.944 72.5557 32.512C72.9517 32.08 73.1557 31.528 73.1557 30.844C73.1557 29.452 72.3757 28.564 71.1277 28.564ZM80.2807 32.212L80.9287 32.812C80.3527 33.676 79.5247 34.108 78.4327 34.108C77.4367 34.108 76.6327 33.808 76.0207 33.22C75.4087 32.632 75.1087 31.852 75.1087 30.868C75.1087 29.92 75.3847 29.14 75.9487 28.528C76.5007 27.916 77.2807 27.616 78.2887 27.616C79.1167 27.616 79.8127 27.88 80.3527 28.396C80.8927 28.912 81.1687 29.596 81.1687 30.448C81.1687 30.724 81.1447 30.976 81.1087 31.204H76.1887C76.2487 32.44 77.1607 33.16 78.4687 33.16C79.2007 33.16 79.8967 32.776 80.2807 32.212ZM78.2167 28.54C77.0767 28.54 76.3327 29.236 76.1767 30.292H80.1007C80.0407 29.188 79.3327 28.54 78.2167 28.54ZM88.0247 34H87.0167V31.3H83.4167V34H82.4087V27.76H83.4167V30.352H87.0167V27.76H88.0247V34ZM91.2749 28.708H88.8869V27.76H94.6949V28.708H92.2829V34H91.2749V28.708ZM101.179 34H100.171V31.3H96.5708V34H95.5628V27.76H96.5708V30.352H100.171V27.76H101.179V34ZM105.017 34H102.761V27.76H103.769V29.704H105.113C106.949 29.704 107.681 30.556 107.681 31.84C107.681 33.1 106.877 34 105.017 34ZM105.005 30.664H103.769V33.04H104.993C106.145 33.04 106.613 32.632 106.613 31.852C106.613 31.06 106.073 30.664 105.005 30.664ZM109.589 34H108.569V27.76H109.589V34ZM115.99 32.212L116.638 32.812C116.062 33.676 115.234 34.108 114.142 34.108C113.146 34.108 112.342 33.808 111.73 33.22C111.118 32.632 110.818 31.852 110.818 30.868C110.818 29.92 111.094 29.14 111.658 28.528C112.21 27.916 112.99 27.616 113.998 27.616C114.826 27.616 115.522 27.88 116.062 28.396C116.602 28.912 116.878 29.596 116.878 30.448C116.878 30.724 116.854 30.976 116.818 31.204H111.898C111.958 32.44 112.87 33.16 114.178 33.16C114.91 33.16 115.606 32.776 115.99 32.212ZM113.926 28.54C112.786 28.54 112.042 29.236 111.886 30.292H115.81C115.75 29.188 115.042 28.54 113.926 28.54ZM124.092 34.12C122.808 34.12 121.86 33.64 121.272 32.692L122.064 32.14C122.412 32.776 123.18 33.184 124.104 33.184C125.1 33.184 125.808 32.776 125.808 32.104C125.808 31.552 125.388 31.276 124.56 31.276H123.096V30.364H124.488C125.1 30.364 125.58 30.004 125.58 29.464C125.58 28.876 124.956 28.54 124.056 28.54C123.3 28.54 122.676 28.828 122.208 29.416L121.464 28.924C121.884 28.204 122.844 27.604 124.152 27.604C125.724 27.604 126.648 28.264 126.648 29.308C126.648 29.896 126.396 30.352 125.904 30.652C126.624 31 126.876 31.42 126.876 32.08C126.876 32.716 126.612 33.208 126.096 33.568C125.58 33.94 124.908 34.12 124.092 34.12ZM128.67 29.26L128.154 28.504C128.73 27.964 129.726 27.616 130.65 27.616C132.318 27.616 133.206 28.528 133.206 30.148V34H132.198V33.076C131.802 33.652 131.022 34.084 130.014 34.084C128.658 34.084 127.746 33.328 127.746 32.176C127.746 30.868 128.862 30.244 130.734 30.244C131.322 30.244 131.802 30.304 132.198 30.424C132.198 29.212 131.766 28.564 130.53 28.564C129.906 28.564 129.282 28.792 128.67 29.26ZM130.254 33.172C130.722 33.172 131.142 33.04 131.49 32.788C131.838 32.536 132.066 32.248 132.198 31.948V31.312C131.85 31.192 131.406 31.132 130.866 31.132C129.498 31.132 128.814 31.468 128.814 32.14C128.814 32.776 129.39 33.172 130.254 33.172ZM135.728 34H134.72V27.76H135.728V30.556L138.884 27.76H140.24L137.012 30.628L140.396 34H139.052L136.244 31.252L135.728 31.732V34ZM141.125 36.376L141.521 35.5C141.617 35.536 141.701 35.56 141.785 35.56C142.253 35.56 142.577 35.236 142.997 34.24L143.189 33.772L140.165 27.76H141.353L143.693 32.5L145.457 27.76H146.561L144.185 33.904C143.777 34.912 143.393 35.596 143.045 35.968C142.685 36.34 142.277 36.52 141.821 36.52C141.557 36.52 141.329 36.472 141.125 36.376ZM152.903 34H151.895V28.708H148.367V34H147.359V27.76H152.903V34ZM155.495 34H154.487V27.76H155.495V30.556L158.651 27.76H160.007L156.779 30.628L160.163 34H158.819L156.011 31.252L155.495 31.732V34ZM165.651 29.332L161.847 34H160.923V27.76H161.931V32.44L165.723 27.76H166.659V34H165.651V29.332Z" fill="#1A3341"/>
<path d="M305.388 117.664L305.928 116.86C306.048 116.944 306.18 116.992 306.312 116.992C306.636 116.992 306.96 116.632 307.308 115.912L303.24 109.6H304.548L307.872 114.796L310.356 109.6H311.484L308.34 116.08C307.716 117.388 307.14 118 306.276 118C305.904 118 305.616 117.892 305.388 117.664ZM317.114 118H316.106V112.708H312.578V118H311.57V111.76H317.114V118ZM319.706 120.4H318.698V111.76H319.706V112.54C320.126 111.928 320.798 111.616 321.722 111.616C322.634 111.616 323.366 111.904 323.906 112.492C324.446 113.08 324.71 113.836 324.71 114.772C324.71 115.732 324.422 116.524 323.846 117.16C323.258 117.796 322.514 118.108 321.602 118.108C320.762 118.108 320.126 117.892 319.706 117.472V120.4ZM321.614 112.564C320.702 112.564 319.994 113.152 319.706 113.86V116.188C320.066 116.836 320.666 117.16 321.518 117.16C322.13 117.16 322.646 116.944 323.042 116.512C323.438 116.08 323.642 115.528 323.642 114.844C323.642 113.452 322.862 112.564 321.614 112.564ZM325.595 114.868C325.595 113.92 325.907 113.14 326.519 112.528C327.131 111.916 327.923 111.616 328.895 111.616C329.879 111.616 330.683 111.916 331.295 112.528C331.907 113.14 332.219 113.92 332.219 114.868C332.219 115.816 331.907 116.584 331.295 117.196C330.671 117.808 329.867 118.108 328.895 118.108C327.923 118.108 327.131 117.808 326.519 117.196C325.907 116.584 325.595 115.816 325.595 114.868ZM326.663 114.868C326.663 115.528 326.867 116.08 327.287 116.512C327.707 116.944 328.235 117.16 328.895 117.16C329.555 117.16 330.107 116.944 330.527 116.524C330.947 116.104 331.151 115.552 331.151 114.868C331.151 114.184 330.935 113.632 330.515 113.2C330.083 112.78 329.543 112.564 328.895 112.564C328.247 112.564 327.719 112.78 327.299 113.2C326.879 113.62 326.663 114.184 326.663 114.868ZM340.909 118H333.457V111.76H334.465V117.04H336.709V111.76H337.717V117.04H339.961V111.76H340.969V117.04H341.845V119.512H340.909V118ZM347.671 116.212L348.319 116.812C347.743 117.676 346.915 118.108 345.823 118.108C344.827 118.108 344.023 117.808 343.411 117.22C342.799 116.632 342.499 115.852 342.499 114.868C342.499 113.92 342.775 113.14 343.339 112.528C343.891 111.916 344.671 111.616 345.679 111.616C346.507 111.616 347.203 111.88 347.743 112.396C348.283 112.912 348.559 113.596 348.559 114.448C348.559 114.724 348.535 114.976 348.499 115.204H343.579C343.639 116.44 344.551 117.16 345.859 117.16C346.591 117.16 347.287 116.776 347.671 116.212ZM345.607 112.54C344.467 112.54 343.723 113.236 343.567 114.292H347.491C347.431 113.188 346.723 112.54 345.607 112.54ZM355.415 118H354.407V115.3H350.807V118H349.799V111.76H350.807V114.352H354.407V111.76H355.415V118ZM362.613 118H361.605V115.3H358.005V118H356.997V111.76H358.005V114.352H361.605V111.76H362.613V118ZM366.451 118H364.195V111.76H365.203V113.704H366.547C368.383 113.704 369.115 114.556 369.115 115.84C369.115 117.1 368.311 118 366.451 118ZM366.439 114.664H365.203V117.04H366.427C367.579 117.04 368.047 116.632 368.047 115.852C368.047 115.06 367.507 114.664 366.439 114.664ZM371.023 118H370.003V111.76H371.023V118ZM377.424 116.212L378.072 116.812C377.496 117.676 376.668 118.108 375.576 118.108C374.58 118.108 373.776 117.808 373.164 117.22C372.552 116.632 372.252 115.852 372.252 114.868C372.252 113.92 372.528 113.14 373.092 112.528C373.644 111.916 374.424 111.616 375.432 111.616C376.26 111.616 376.956 111.88 377.496 112.396C378.036 112.912 378.312 113.596 378.312 114.448C378.312 114.724 378.288 114.976 378.252 115.204H373.332C373.392 116.44 374.304 117.16 375.612 117.16C376.344 117.16 377.04 116.776 377.424 116.212ZM375.36 112.54C374.22 112.54 373.476 113.236 373.32 114.292H377.244C377.184 113.188 376.476 112.54 375.36 112.54ZM276.133 134H275.125V127.76H276.133V130.556L279.289 127.76H280.645L277.417 130.628L280.801 134H279.457L276.649 131.252L276.133 131.732V134ZM280.733 130.868C280.733 129.92 281.045 129.14 281.657 128.528C282.269 127.916 283.061 127.616 284.033 127.616C285.017 127.616 285.821 127.916 286.433 128.528C287.045 129.14 287.357 129.92 287.357 130.868C287.357 131.816 287.045 132.584 286.433 133.196C285.809 133.808 285.005 134.108 284.033 134.108C283.061 134.108 282.269 133.808 281.657 133.196C281.045 132.584 280.733 131.816 280.733 130.868ZM281.801 130.868C281.801 131.528 282.005 132.08 282.425 132.512C282.845 132.944 283.373 133.16 284.033 133.16C284.693 133.16 285.245 132.944 285.665 132.524C286.085 132.104 286.289 131.552 286.289 130.868C286.289 130.184 286.073 129.632 285.653 129.2C285.221 128.78 284.681 128.564 284.033 128.564C283.385 128.564 282.857 128.78 282.437 129.2C282.017 129.62 281.801 130.184 281.801 130.868ZM294.212 134H293.204V131.3H289.604V134H288.596V127.76H289.604V130.352H293.204V127.76H294.212V134ZM296.802 134H295.794V127.76H296.802V130.556L299.958 127.76H301.314L298.086 130.628L301.47 134H300.126L297.318 131.252L296.802 131.732V134ZM302.198 136.376L302.594 135.5C302.69 135.536 302.774 135.56 302.858 135.56C303.326 135.56 303.65 135.236 304.07 134.24L304.262 133.772L301.238 127.76H302.426L304.766 132.5L306.53 127.76H307.634L305.258 133.904C304.85 134.912 304.466 135.596 304.118 135.968C303.758 136.34 303.35 136.52 302.894 136.52C302.63 136.52 302.402 136.472 302.198 136.376ZM309.44 136.4H308.432V127.76H309.44V128.54C309.86 127.928 310.532 127.616 311.456 127.616C312.368 127.616 313.1 127.904 313.64 128.492C314.18 129.08 314.444 129.836 314.444 130.772C314.444 131.732 314.156 132.524 313.58 133.16C312.992 133.796 312.248 134.108 311.336 134.108C310.496 134.108 309.86 133.892 309.44 133.472V136.4ZM311.348 128.564C310.436 128.564 309.728 129.152 309.44 129.86V132.188C309.8 132.836 310.4 133.16 311.252 133.16C311.864 133.16 312.38 132.944 312.776 132.512C313.172 132.08 313.376 131.528 313.376 130.844C313.376 129.452 312.596 128.564 311.348 128.564ZM320.501 132.212L321.149 132.812C320.573 133.676 319.745 134.108 318.653 134.108C317.657 134.108 316.853 133.808 316.241 133.22C315.629 132.632 315.329 131.852 315.329 130.868C315.329 129.92 315.605 129.14 316.169 128.528C316.721 127.916 317.501 127.616 318.509 127.616C319.337 127.616 320.033 127.88 320.573 128.396C321.113 128.912 321.389 129.596 321.389 130.448C321.389 130.724 321.365 130.976 321.329 131.204H316.409C316.469 132.44 317.381 133.16 318.689 133.16C319.421 133.16 320.117 132.776 320.501 132.212ZM318.437 128.54C317.297 128.54 316.553 129.236 316.397 130.292H320.321C320.261 129.188 319.553 128.54 318.437 128.54ZM328.245 134H327.237V131.3H323.637V134H322.629V127.76H323.637V130.352H327.237V127.76H328.245V134ZM331.495 128.708H329.107V127.76H334.915V128.708H332.503V134H331.495V128.708ZM341.399 134H340.391V131.3H336.791V134H335.783V127.76H336.791V130.352H340.391V127.76H341.399V134ZM345.237 134H342.981V127.76H343.989V129.704H345.333C347.169 129.704 347.901 130.556 347.901 131.84C347.901 133.1 347.097 134 345.237 134ZM345.225 130.664H343.989V133.04H345.213C346.365 133.04 346.833 132.632 346.833 131.852C346.833 131.06 346.293 130.664 345.225 130.664ZM349.809 134H348.789V127.76H349.809V134ZM356.211 132.212L356.859 132.812C356.283 133.676 355.455 134.108 354.363 134.108C353.367 134.108 352.563 133.808 351.951 133.22C351.339 132.632 351.039 131.852 351.039 130.868C351.039 129.92 351.315 129.14 351.879 128.528C352.431 127.916 353.211 127.616 354.219 127.616C355.047 127.616 355.743 127.88 356.283 128.396C356.823 128.912 357.099 129.596 357.099 130.448C357.099 130.724 357.075 130.976 357.039 131.204H352.119C352.179 132.44 353.091 133.16 354.399 133.16C355.131 133.16 355.827 132.776 356.211 132.212ZM354.147 128.54C353.007 128.54 352.263 129.236 352.107 130.292H356.031C355.971 129.188 355.263 128.54 354.147 128.54ZM364.312 134.12C363.028 134.12 362.08 133.64 361.492 132.692L362.284 132.14C362.632 132.776 363.4 133.184 364.324 133.184C365.32 133.184 366.028 132.776 366.028 132.104C366.028 131.552 365.608 131.276 364.78 131.276H363.316V130.364H364.708C365.32 130.364 365.8 130.004 365.8 129.464C365.8 128.876 365.176 128.54 364.276 128.54C363.52 128.54 362.896 128.828 362.428 129.416L361.684 128.924C362.104 128.204 363.064 127.604 364.372 127.604C365.944 127.604 366.868 128.264 366.868 129.308C366.868 129.896 366.616 130.352 366.124 130.652C366.844 131 367.096 131.42 367.096 132.08C367.096 132.716 366.832 133.208 366.316 133.568C365.8 133.94 365.128 134.12 364.312 134.12ZM368.891 129.26L368.375 128.504C368.951 127.964 369.947 127.616 370.871 127.616C372.539 127.616 373.427 128.528 373.427 130.148V134H372.419V133.076C372.023 133.652 371.243 134.084 370.235 134.084C368.879 134.084 367.967 133.328 367.967 132.176C367.967 130.868 369.083 130.244 370.955 130.244C371.543 130.244 372.023 130.304 372.419 130.424C372.419 129.212 371.987 128.564 370.751 128.564C370.127 128.564 369.503 128.792 368.891 129.26ZM370.475 133.172C370.943 133.172 371.363 133.04 371.711 132.788C372.059 132.536 372.287 132.248 372.419 131.948V131.312C372.071 131.192 371.627 131.132 371.087 131.132C369.719 131.132 369.035 131.468 369.035 132.14C369.035 132.776 369.611 133.172 370.475 133.172ZM375.949 134H374.941V127.76H375.949V130.556L379.105 127.76H380.461L377.233 130.628L380.617 134H379.273L376.465 131.252L375.949 131.732V134ZM381.345 136.376L381.741 135.5C381.837 135.536 381.921 135.56 382.005 135.56C382.473 135.56 382.797 135.236 383.217 134.24L383.409 133.772L380.385 127.76H381.573L383.913 132.5L385.677 127.76H386.781L384.405 133.904C383.997 134.912 383.613 135.596 383.265 135.968C382.905 136.34 382.497 136.52 382.041 136.52C381.777 136.52 381.549 136.472 381.345 136.376ZM393.123 134H392.115V128.708H388.587V134H387.579V127.76H393.123V134ZM395.715 134H394.707V127.76H395.715V130.556L398.871 127.76H400.227L396.999 130.628L400.383 134H399.039L396.231 131.252L395.715 131.732V134ZM405.871 129.332L402.067 134H401.143V127.76H402.151V132.44L405.943 127.76H406.879V134H405.871V129.332Z" fill="#1A3341"/>
<rect x="481" y="92" width="200" height="60" rx="2" fill="white"/>
<path d="M507.993 117.12C506.265 117.12 504.897 116.448 504.237 115.392L505.053 114.792C505.749 115.668 506.721 116.1 507.981 116.1C509.289 116.1 510.213 115.452 510.213 114.528C510.213 113.724 509.373 113.22 508.065 113.22H506.589V112.2H507.993C508.533 112.2 508.989 112.068 509.361 111.816C509.733 111.564 509.913 111.252 509.913 110.856C509.913 109.944 509.001 109.5 507.789 109.5C506.745 109.5 505.917 109.908 505.281 110.724L504.453 110.136C505.245 109.032 506.397 108.48 507.921 108.48C508.821 108.48 509.565 108.684 510.153 109.104C510.729 109.524 511.017 110.1 511.017 110.832C511.017 111.6 510.501 112.236 509.721 112.62C510.741 112.872 511.317 113.664 511.317 114.528C511.317 115.32 511.005 115.944 510.369 116.412C509.733 116.88 508.941 117.12 507.993 117.12ZM513.171 112.26L512.655 111.504C513.231 110.964 514.227 110.616 515.151 110.616C516.819 110.616 517.707 111.528 517.707 113.148V117H516.699V116.076C516.303 116.652 515.523 117.084 514.515 117.084C513.159 117.084 512.247 116.328 512.247 115.176C512.247 113.868 513.363 113.244 515.235 113.244C515.823 113.244 516.303 113.304 516.699 113.424C516.699 112.212 516.267 111.564 515.031 111.564C514.407 111.564 513.783 111.792 513.171 112.26ZM514.755 116.172C515.223 116.172 515.643 116.04 515.991 115.788C516.339 115.536 516.567 115.248 516.699 114.948V114.312C516.351 114.192 515.907 114.132 515.367 114.132C513.999 114.132 513.315 114.468 513.315 115.14C513.315 115.776 513.891 116.172 514.755 116.172ZM520.229 117H519.221V110.76H520.229V113.556L523.385 110.76H524.741L521.513 113.628L524.897 117H523.553L520.745 114.252L520.229 114.732V117ZM525.626 119.376L526.022 118.5C526.118 118.536 526.202 118.56 526.286 118.56C526.754 118.56 527.078 118.236 527.498 117.24L527.69 116.772L524.666 110.76H525.854L528.194 115.5L529.958 110.76H531.062L528.686 116.904C528.278 117.912 527.894 118.596 527.546 118.968C527.186 119.34 526.778 119.52 526.322 119.52C526.058 119.52 525.83 119.472 525.626 119.376ZM537.403 117H536.395V111.708H532.867V117H531.859V110.76H537.403V117ZM539.995 117H538.987V110.76H539.995V113.556L543.151 110.76H544.507L541.279 113.628L544.663 117H543.319L540.511 114.252L539.995 114.732V117ZM545.833 112.26L545.317 111.504C545.893 110.964 546.889 110.616 547.813 110.616C549.481 110.616 550.369 111.528 550.369 113.148V117H549.361V116.076C548.965 116.652 548.185 117.084 547.177 117.084C545.821 117.084 544.909 116.328 544.909 115.176C544.909 113.868 546.025 113.244 547.897 113.244C548.485 113.244 548.965 113.304 549.361 113.424C549.361 112.212 548.929 111.564 547.693 111.564C547.069 111.564 546.445 111.792 545.833 112.26ZM547.417 116.172C547.885 116.172 548.305 116.04 548.653 115.788C549.001 115.536 549.229 115.248 549.361 114.948V114.312C549.013 114.192 548.569 114.132 548.029 114.132C546.661 114.132 545.977 114.468 545.977 115.14C545.977 115.776 546.553 116.172 547.417 116.172ZM555.745 119.376L556.141 118.5C556.237 118.536 556.321 118.56 556.405 118.56C556.873 118.56 557.197 118.236 557.617 117.24L557.809 116.772L554.785 110.76H555.973L558.313 115.5L560.077 110.76H561.181L558.805 116.904C558.397 117.912 558.013 118.596 557.665 118.968C557.305 119.34 556.897 119.52 556.441 119.52C556.177 119.52 555.949 119.472 555.745 119.376ZM570.521 115.212L571.169 115.812C570.593 116.676 569.765 117.108 568.673 117.108C567.677 117.108 566.873 116.808 566.261 116.22C565.649 115.632 565.349 114.852 565.349 113.868C565.349 112.92 565.625 112.14 566.189 111.528C566.741 110.916 567.521 110.616 568.529 110.616C569.357 110.616 570.053 110.88 570.593 111.396C571.133 111.912 571.409 112.596 571.409 113.448C571.409 113.724 571.385 113.976 571.349 114.204H566.429C566.489 115.44 567.401 116.16 568.709 116.16C569.441 116.16 570.137 115.776 570.521 115.212ZM568.457 111.54C567.317 111.54 566.573 112.236 566.417 113.292H570.341C570.281 112.188 569.573 111.54 568.457 111.54ZM572.714 118.512H571.754V116.04H572.45C573.086 115.068 573.326 113.7 573.326 111.336V110.76H577.91V116.04H578.81V118.512H577.85V117H572.714V118.512ZM576.902 111.72H574.274V112.152C574.274 113.748 574.022 115.044 573.53 116.04H576.902V111.72ZM584.528 112.332L580.724 117H579.8V110.76H580.808V115.44L584.6 110.76H585.536V117H584.528V112.332ZM592.731 117H591.723V114.3H588.123V117H587.115V110.76H588.123V113.352H591.723V110.76H592.731V117ZM599.149 115.2L599.869 115.716C599.401 116.592 598.345 117.108 597.301 117.108C596.305 117.108 595.501 116.808 594.889 116.22C594.277 115.632 593.965 114.852 593.965 113.868C593.965 112.932 594.265 112.152 594.877 111.54C595.489 110.928 596.269 110.616 597.241 110.616C598.357 110.616 599.353 111.12 599.773 111.888L598.993 112.416C598.573 111.852 597.997 111.564 597.265 111.564C596.617 111.564 596.089 111.78 595.669 112.212C595.249 112.644 595.033 113.196 595.033 113.868C595.033 114.552 595.249 115.104 595.693 115.524C596.125 115.944 596.689 116.16 597.397 116.16C598.141 116.16 598.729 115.836 599.149 115.2ZM602.582 111.708H600.194V110.76H606.002V111.708H603.59V117H602.582V111.708ZM609.654 117H606.87V110.76H609.462C611.202 110.76 612.018 111.204 612.018 112.356C612.018 112.932 611.754 113.388 611.214 113.712C611.886 113.916 612.222 114.408 612.222 115.212C612.222 116.376 611.298 117 609.654 117ZM609.666 114.276H607.878V116.064H609.546C610.614 116.064 611.154 115.764 611.154 115.164C611.154 114.576 610.662 114.276 609.666 114.276ZM609.426 111.696H607.878V113.364H609.774C610.506 113.364 610.95 113.064 610.95 112.5C610.95 111.864 610.434 111.696 609.426 111.696ZM618.294 115.212L618.942 115.812C618.366 116.676 617.538 117.108 616.446 117.108C615.45 117.108 614.646 116.808 614.034 116.22C613.422 115.632 613.122 114.852 613.122 113.868C613.122 112.92 613.398 112.14 613.962 111.528C614.514 110.916 615.294 110.616 616.302 110.616C617.13 110.616 617.826 110.88 618.366 111.396C618.906 111.912 619.182 112.596 619.182 113.448C619.182 113.724 619.158 113.976 619.122 114.204H614.202C614.262 115.44 615.174 116.16 616.482 116.16C617.214 116.16 617.91 115.776 618.294 115.212ZM616.23 111.54C615.09 111.54 614.346 112.236 614.19 113.292H618.114C618.054 112.188 617.346 111.54 616.23 111.54ZM626.038 117H625.03V114.3H621.43V117H620.422V110.76H621.43V113.352H625.03V110.76H626.038V117ZM633.236 117H632.228V114.3H628.628V117H627.62V110.76H628.628V113.352H632.228V110.76H633.236V117ZM634.47 113.868C634.47 112.92 634.782 112.14 635.394 111.528C636.006 110.916 636.798 110.616 637.77 110.616C638.754 110.616 639.558 110.916 640.17 111.528C640.782 112.14 641.094 112.92 641.094 113.868C641.094 114.816 640.782 115.584 640.17 116.196C639.546 116.808 638.742 117.108 637.77 117.108C636.798 117.108 636.006 116.808 635.394 116.196C634.782 115.584 634.47 114.816 634.47 113.868ZM635.538 113.868C635.538 114.528 635.742 115.08 636.162 115.512C636.582 115.944 637.11 116.16 637.77 116.16C638.43 116.16 638.982 115.944 639.402 115.524C639.822 115.104 640.026 114.552 640.026 113.868C640.026 113.184 639.81 112.632 639.39 112.2C638.958 111.78 638.418 111.564 637.77 111.564C637.122 111.564 636.594 111.78 636.174 112.2C635.754 112.62 635.538 113.184 635.538 113.868ZM643.341 117H642.333V110.76H646.881V111.708H643.341V117ZM647.191 113.868C647.191 112.92 647.503 112.14 648.115 111.528C648.727 110.916 649.519 110.616 650.491 110.616C651.475 110.616 652.279 110.916 652.891 111.528C653.503 112.14 653.815 112.92 653.815 113.868C653.815 114.816 653.503 115.584 652.891 116.196C652.267 116.808 651.463 117.108 650.491 117.108C649.519 117.108 648.727 116.808 648.115 116.196C647.503 115.584 647.191 114.816 647.191 113.868ZM648.259 113.868C648.259 114.528 648.463 115.08 648.883 115.512C649.303 115.944 649.831 116.16 650.491 116.16C651.151 116.16 651.703 115.944 652.123 115.524C652.543 115.104 652.747 114.552 652.747 113.868C652.747 113.184 652.531 112.632 652.111 112.2C651.679 111.78 651.139 111.564 650.491 111.564C649.843 111.564 649.315 111.78 648.895 112.2C648.475 112.62 648.259 113.184 648.259 113.868ZM552.476 133H551.468V127.708H547.94V133H546.932V126.76H552.476V133ZM553.712 129.868C553.712 128.92 554.024 128.14 554.636 127.528C555.248 126.916 556.04 126.616 557.012 126.616C557.996 126.616 558.8 126.916 559.412 127.528C560.024 128.14 560.336 128.92 560.336 129.868C560.336 130.816 560.024 131.584 559.412 132.196C558.788 132.808 557.984 133.108 557.012 133.108C556.04 133.108 555.248 132.808 554.636 132.196C554.024 131.584 553.712 130.816 553.712 129.868ZM554.78 129.868C554.78 130.528 554.984 131.08 555.404 131.512C555.824 131.944 556.352 132.16 557.012 132.16C557.672 132.16 558.224 131.944 558.644 131.524C559.064 131.104 559.268 130.552 559.268 129.868C559.268 129.184 559.052 128.632 558.632 128.2C558.2 127.78 557.66 127.564 557.012 127.564C556.364 127.564 555.836 127.78 555.416 128.2C554.996 128.62 554.78 129.184 554.78 129.868ZM566.411 131.2L567.131 131.716C566.663 132.592 565.607 133.108 564.563 133.108C563.567 133.108 562.763 132.808 562.151 132.22C561.539 131.632 561.227 130.852 561.227 129.868C561.227 128.932 561.527 128.152 562.139 127.54C562.751 126.928 563.531 126.616 564.503 126.616C565.619 126.616 566.615 127.12 567.035 127.888L566.255 128.416C565.835 127.852 565.259 127.564 564.527 127.564C563.879 127.564 563.351 127.78 562.931 128.212C562.511 128.644 562.295 129.196 562.295 129.868C562.295 130.552 562.511 131.104 562.955 131.524C563.387 131.944 563.951 132.16 564.659 132.16C565.403 132.16 565.991 131.836 566.411 131.2ZM569.843 127.708H567.455V126.76H573.263V127.708H570.851V133H569.843V127.708ZM574.4 128.26L573.884 127.504C574.46 126.964 575.456 126.616 576.38 126.616C578.048 126.616 578.936 127.528 578.936 129.148V133H577.928V132.076C577.532 132.652 576.752 133.084 575.744 133.084C574.388 133.084 573.476 132.328 573.476 131.176C573.476 129.868 574.592 129.244 576.464 129.244C577.052 129.244 577.532 129.304 577.928 129.424C577.928 128.212 577.496 127.564 576.26 127.564C575.636 127.564 575.012 127.792 574.4 128.26ZM575.984 132.172C576.452 132.172 576.872 132.04 577.22 131.788C577.568 131.536 577.796 131.248 577.928 130.948V130.312C577.58 130.192 577.136 130.132 576.596 130.132C575.228 130.132 574.544 130.468 574.544 131.14C574.544 131.776 575.12 132.172 575.984 132.172ZM583.234 133H580.45V126.76H583.042C584.782 126.76 585.598 127.204 585.598 128.356C585.598 128.932 585.334 129.388 584.794 129.712C585.466 129.916 585.802 130.408 585.802 131.212C585.802 132.376 584.878 133 583.234 133ZM583.246 130.276H581.458V132.064H583.126C584.194 132.064 584.734 131.764 584.734 131.164C584.734 130.576 584.242 130.276 583.246 130.276ZM583.006 127.696H581.458V129.364H583.354C584.086 129.364 584.53 129.064 584.53 128.5C584.53 127.864 584.014 127.696 583.006 127.696ZM594.503 133H587.051V126.76H588.059V132.04H590.303V126.76H591.311V132.04H593.555V126.76H594.563V132.04H595.439V134.512H594.503V133ZM601.168 128.332L597.364 133H596.44V126.76H597.448V131.44L601.24 126.76H602.176V133H601.168V128.332ZM604.763 133H603.755V126.76H604.763V129.556L607.919 126.76H609.275L606.047 129.628L609.431 133H608.087L605.279 130.252L604.763 130.732V133ZM610.602 128.26L610.086 127.504C610.662 126.964 611.658 126.616 612.582 126.616C614.25 126.616 615.138 127.528 615.138 129.148V133H614.13V132.076C613.734 132.652 612.954 133.084 611.946 133.084C610.59 133.084 609.678 132.328 609.678 131.176C609.678 129.868 610.794 129.244 612.666 129.244C613.254 129.244 613.734 129.304 614.13 129.424C614.13 128.212 613.698 127.564 612.462 127.564C611.838 127.564 611.214 127.792 610.602 128.26ZM612.186 132.172C612.654 132.172 613.074 132.04 613.422 131.788C613.77 131.536 613.998 131.248 614.13 130.948V130.312C613.782 130.192 613.338 130.132 612.798 130.132C611.43 130.132 610.746 130.468 610.746 131.14C610.746 131.776 611.322 132.172 612.186 132.172Z" fill="#1A3341"/>
<rect y="92" width="200" height="60" rx="2" fill="white"/>
<path d="M76.1705 125H75.0545L78.7385 116.576H79.6025L83.2865 125H82.1465L81.2105 122.876H77.0945L76.1705 125ZM80.8025 121.916L79.1465 118.1L77.5025 121.916H80.8025ZM83.726 127.376L84.122 126.5C84.218 126.536 84.302 126.56 84.386 126.56C84.854 126.56 85.178 126.236 85.598 125.24L85.79 124.772L82.766 118.76H83.954L86.294 123.5L88.058 118.76H89.162L86.786 124.904C86.378 125.912 85.994 126.596 85.646 126.968C85.286 127.34 84.878 127.52 84.422 127.52C84.158 127.52 83.93 127.472 83.726 127.376ZM90.9678 125H89.9598V118.76H90.9678V121.556L94.1238 118.76H95.4798L92.2518 121.628L95.6358 125H94.2918L91.4838 122.252L90.9678 122.732V125ZM101.832 125H96.3962V118.76H97.4042V124.04H100.896V118.76H101.904V124.04H102.78V126.512H101.832V125ZM108.51 120.332L104.706 125H103.782V118.76H104.79V123.44L108.582 118.76H109.518V125H108.51V120.332ZM110.749 121.868C110.749 120.92 111.061 120.14 111.673 119.528C112.285 118.916 113.077 118.616 114.049 118.616C115.033 118.616 115.837 118.916 116.449 119.528C117.061 120.14 117.373 120.92 117.373 121.868C117.373 122.816 117.061 123.584 116.449 124.196C115.825 124.808 115.021 125.108 114.049 125.108C113.077 125.108 112.285 124.808 111.673 124.196C111.061 123.584 110.749 122.816 110.749 121.868ZM111.817 121.868C111.817 122.528 112.021 123.08 112.441 123.512C112.861 123.944 113.389 124.16 114.049 124.16C114.709 124.16 115.261 123.944 115.681 123.524C116.101 123.104 116.305 122.552 116.305 121.868C116.305 121.184 116.089 120.632 115.669 120.2C115.237 119.78 114.697 119.564 114.049 119.564C113.401 119.564 112.873 119.78 112.453 120.2C112.033 120.62 111.817 121.184 111.817 121.868ZM124.228 125H123.22V122.3H119.62V125H118.612V118.76H119.62V121.352H123.22V118.76H124.228V125Z" fill="#1A3341"/>
<rect y="176" width="200" height="60" rx="2" fill="white"/>
<path d="M49.8032 210.12C48.0752 210.12 46.7072 209.448 46.0472 208.392L46.8632 207.792C47.5592 208.668 48.5312 209.1 49.7912 209.1C51.0992 209.1 52.0232 208.452 52.0232 207.528C52.0232 206.724 51.1832 206.22 49.8752 206.22H48.3992V205.2H49.8032C50.3432 205.2 50.7992 205.068 51.1712 204.816C51.5432 204.564 51.7232 204.252 51.7232 203.856C51.7232 202.944 50.8112 202.5 49.5992 202.5C48.5552 202.5 47.7272 202.908 47.0912 203.724L46.2632 203.136C47.0552 202.032 48.2072 201.48 49.7312 201.48C50.6312 201.48 51.3752 201.684 51.9632 202.104C52.5392 202.524 52.8272 203.1 52.8272 203.832C52.8272 204.6 52.3112 205.236 51.5312 205.62C52.5512 205.872 53.1272 206.664 53.1272 207.528C53.1272 208.32 52.8152 208.944 52.1792 209.412C51.5432 209.88 50.7512 210.12 49.8032 210.12ZM54.981 205.26L54.465 204.504C55.041 203.964 56.037 203.616 56.961 203.616C58.629 203.616 59.517 204.528 59.517 206.148V210H58.509V209.076C58.113 209.652 57.333 210.084 56.325 210.084C54.969 210.084 54.057 209.328 54.057 208.176C54.057 206.868 55.173 206.244 57.045 206.244C57.633 206.244 58.113 206.304 58.509 206.424C58.509 205.212 58.077 204.564 56.841 204.564C56.217 204.564 55.593 204.792 54.981 205.26ZM56.565 209.172C57.033 209.172 57.453 209.04 57.801 208.788C58.149 208.536 58.377 208.248 58.509 207.948V207.312C58.161 207.192 57.717 207.132 57.177 207.132C55.809 207.132 55.125 207.468 55.125 208.14C55.125 208.776 55.701 209.172 56.565 209.172ZM66.5752 210H65.5672V204.708H62.0392V210H61.0312V203.76H66.5752V210ZM69.167 212.4H68.159V203.76H69.167V204.54C69.587 203.928 70.259 203.616 71.183 203.616C72.095 203.616 72.827 203.904 73.367 204.492C73.907 205.08 74.171 205.836 74.171 206.772C74.171 207.732 73.883 208.524 73.307 209.16C72.719 209.796 71.975 210.108 71.063 210.108C70.223 210.108 69.587 209.892 69.167 209.472V212.4ZM71.075 204.564C70.163 204.564 69.455 205.152 69.167 205.86V208.188C69.527 208.836 70.127 209.16 70.979 209.16C71.591 209.16 72.107 208.944 72.503 208.512C72.899 208.08 73.103 207.528 73.103 206.844C73.103 205.452 72.323 204.564 71.075 204.564ZM75.056 206.868C75.056 205.92 75.368 205.14 75.98 204.528C76.592 203.916 77.384 203.616 78.356 203.616C79.34 203.616 80.144 203.916 80.756 204.528C81.368 205.14 81.68 205.92 81.68 206.868C81.68 207.816 81.368 208.584 80.756 209.196C80.132 209.808 79.328 210.108 78.356 210.108C77.384 210.108 76.592 209.808 75.98 209.196C75.368 208.584 75.056 207.816 75.056 206.868ZM76.124 206.868C76.124 207.528 76.328 208.08 76.748 208.512C77.168 208.944 77.696 209.16 78.356 209.16C79.016 209.16 79.568 208.944 79.988 208.524C80.408 208.104 80.612 207.552 80.612 206.868C80.612 206.184 80.396 205.632 79.976 205.2C79.544 204.78 79.004 204.564 78.356 204.564C77.708 204.564 77.18 204.78 76.76 205.2C76.34 205.62 76.124 206.184 76.124 206.868ZM87.7545 208.2L88.4745 208.716C88.0065 209.592 86.9505 210.108 85.9065 210.108C84.9105 210.108 84.1065 209.808 83.4945 209.22C82.8825 208.632 82.5705 207.852 82.5705 206.868C82.5705 205.932 82.8705 205.152 83.4825 204.54C84.0945 203.928 84.8745 203.616 85.8465 203.616C86.9625 203.616 87.9585 204.12 88.3785 204.888L87.5985 205.416C87.1785 204.852 86.6025 204.564 85.8705 204.564C85.2225 204.564 84.6945 204.78 84.2745 205.212C83.8545 205.644 83.6385 206.196 83.6385 206.868C83.6385 207.552 83.8545 208.104 84.2985 208.524C84.7305 208.944 85.2945 209.16 86.0025 209.16C86.7465 209.16 87.3345 208.836 87.7545 208.2ZM94.1509 210H93.1429V203.76H94.1509V206.556L97.3069 203.76H98.6629L95.4349 206.628L98.8189 210H97.4749L94.6669 207.252L94.1509 207.732V210ZM98.7508 206.868C98.7508 205.92 99.0628 205.14 99.6748 204.528C100.287 203.916 101.079 203.616 102.051 203.616C103.035 203.616 103.839 203.916 104.451 204.528C105.063 205.14 105.375 205.92 105.375 206.868C105.375 207.816 105.063 208.584 104.451 209.196C103.827 209.808 103.023 210.108 102.051 210.108C101.079 210.108 100.287 209.808 99.6748 209.196C99.0628 208.584 98.7508 207.816 98.7508 206.868ZM99.8188 206.868C99.8188 207.528 100.023 208.08 100.443 208.512C100.863 208.944 101.391 209.16 102.051 209.16C102.711 209.16 103.263 208.944 103.683 208.524C104.103 208.104 104.307 207.552 104.307 206.868C104.307 206.184 104.091 205.632 103.671 205.2C103.239 204.78 102.699 204.564 102.051 204.564C101.403 204.564 100.875 204.78 100.455 205.2C100.035 205.62 99.8188 206.184 99.8188 206.868ZM108.047 204.708H105.659V203.76H111.467V204.708H109.055V210H108.047V204.708ZM117.063 205.332L113.259 210H112.335V203.76H113.343V208.44L117.135 203.76H118.071V210H117.063V205.332ZM120.658 212.4H119.65V203.76H120.658V204.54C121.078 203.928 121.75 203.616 122.674 203.616C123.586 203.616 124.318 203.904 124.858 204.492C125.398 205.08 125.662 205.836 125.662 206.772C125.662 207.732 125.374 208.524 124.798 209.16C124.21 209.796 123.466 210.108 122.554 210.108C121.714 210.108 121.078 209.892 120.658 209.472V212.4ZM122.566 204.564C121.654 204.564 120.946 205.152 120.658 205.86V208.188C121.018 208.836 121.618 209.16 122.47 209.16C123.082 209.16 123.598 208.944 123.994 208.512C124.39 208.08 124.594 207.528 124.594 206.844C124.594 205.452 123.814 204.564 122.566 204.564ZM126.547 206.868C126.547 205.92 126.859 205.14 127.471 204.528C128.083 203.916 128.875 203.616 129.847 203.616C130.831 203.616 131.635 203.916 132.247 204.528C132.859 205.14 133.171 205.92 133.171 206.868C133.171 207.816 132.859 208.584 132.247 209.196C131.623 209.808 130.819 210.108 129.847 210.108C128.875 210.108 128.083 209.808 127.471 209.196C126.859 208.584 126.547 207.816 126.547 206.868ZM127.615 206.868C127.615 207.528 127.819 208.08 128.239 208.512C128.659 208.944 129.187 209.16 129.847 209.16C130.507 209.16 131.059 208.944 131.479 208.524C131.899 208.104 132.103 207.552 132.103 206.868C132.103 206.184 131.887 205.632 131.467 205.2C131.035 204.78 130.495 204.564 129.847 204.564C129.199 204.564 128.671 204.78 128.251 205.2C127.831 205.62 127.615 206.184 127.615 206.868ZM137.194 210H134.41V203.76H137.002C138.742 203.76 139.558 204.204 139.558 205.356C139.558 205.932 139.294 206.388 138.754 206.712C139.426 206.916 139.762 207.408 139.762 208.212C139.762 209.376 138.838 210 137.194 210ZM137.206 207.276H135.418V209.064H137.086C138.154 209.064 138.694 208.764 138.694 208.164C138.694 207.576 138.202 207.276 137.206 207.276ZM136.966 204.696H135.418V206.364H137.314C138.046 206.364 138.49 206.064 138.49 205.5C138.49 204.864 137.974 204.696 136.966 204.696ZM140.662 206.868C140.662 205.92 140.974 205.14 141.586 204.528C142.198 203.916 142.99 203.616 143.962 203.616C144.946 203.616 145.75 203.916 146.362 204.528C146.974 205.14 147.286 205.92 147.286 206.868C147.286 207.816 146.974 208.584 146.362 209.196C145.738 209.808 144.934 210.108 143.962 210.108C142.99 210.108 142.198 209.808 141.586 209.196C140.974 208.584 140.662 207.816 140.662 206.868ZM141.73 206.868C141.73 207.528 141.934 208.08 142.354 208.512C142.774 208.944 143.302 209.16 143.962 209.16C144.622 209.16 145.174 208.944 145.594 208.524C146.014 208.104 146.218 207.552 146.218 206.868C146.218 206.184 146.002 205.632 145.582 205.2C145.15 204.78 144.61 204.564 143.962 204.564C143.314 204.564 142.786 204.78 142.366 205.2C141.946 205.62 141.73 206.184 141.73 206.868ZM149.533 210H148.525V203.76H149.533V206.556L152.689 203.76H154.045L150.817 206.628L154.201 210H152.857L150.049 207.252L149.533 207.732V210Z" fill="#1A3341"/>
<rect x="241" y="176" width="200" height="60" rx="2" fill="white"/>
<path d="M310.944 210.12C309.216 210.12 307.848 209.448 307.188 208.392L308.004 207.792C308.7 208.668 309.672 209.1 310.932 209.1C312.24 209.1 313.164 208.452 313.164 207.528C313.164 206.724 312.324 206.22 311.016 206.22H309.54V205.2H310.944C311.484 205.2 311.94 205.068 312.312 204.816C312.684 204.564 312.864 204.252 312.864 203.856C312.864 202.944 311.952 202.5 310.74 202.5C309.696 202.5 308.868 202.908 308.232 203.724L307.404 203.136C308.196 202.032 309.348 201.48 310.872 201.48C311.772 201.48 312.516 201.684 313.104 202.104C313.68 202.524 313.968 203.1 313.968 203.832C313.968 204.6 313.452 205.236 312.672 205.62C313.692 205.872 314.268 206.664 314.268 207.528C314.268 208.32 313.956 208.944 313.32 209.412C312.684 209.88 311.892 210.12 310.944 210.12ZM316.122 205.26L315.606 204.504C316.182 203.964 317.178 203.616 318.102 203.616C319.77 203.616 320.658 204.528 320.658 206.148V210H319.65V209.076C319.254 209.652 318.474 210.084 317.466 210.084C316.11 210.084 315.198 209.328 315.198 208.176C315.198 206.868 316.314 206.244 318.186 206.244C318.774 206.244 319.254 206.304 319.65 206.424C319.65 205.212 319.218 204.564 317.982 204.564C317.358 204.564 316.734 204.792 316.122 205.26ZM317.706 209.172C318.174 209.172 318.594 209.04 318.942 208.788C319.29 208.536 319.518 208.248 319.65 207.948V207.312C319.302 207.192 318.858 207.132 318.318 207.132C316.95 207.132 316.266 207.468 316.266 208.14C316.266 208.776 316.842 209.172 317.706 209.172ZM327.716 210H326.708V204.708H323.18V210H322.172V203.76H327.716V210ZM330.308 212.4H329.3V203.76H330.308V204.54C330.728 203.928 331.4 203.616 332.324 203.616C333.236 203.616 333.968 203.904 334.508 204.492C335.048 205.08 335.312 205.836 335.312 206.772C335.312 207.732 335.024 208.524 334.448 209.16C333.86 209.796 333.116 210.108 332.204 210.108C331.364 210.108 330.728 209.892 330.308 209.472V212.4ZM332.216 204.564C331.304 204.564 330.596 205.152 330.308 205.86V208.188C330.668 208.836 331.268 209.16 332.12 209.16C332.732 209.16 333.248 208.944 333.644 208.512C334.04 208.08 334.244 207.528 334.244 206.844C334.244 205.452 333.464 204.564 332.216 204.564ZM336.197 206.868C336.197 205.92 336.509 205.14 337.121 204.528C337.733 203.916 338.525 203.616 339.497 203.616C340.481 203.616 341.285 203.916 341.897 204.528C342.509 205.14 342.821 205.92 342.821 206.868C342.821 207.816 342.509 208.584 341.897 209.196C341.273 209.808 340.469 210.108 339.497 210.108C338.525 210.108 337.733 209.808 337.121 209.196C336.509 208.584 336.197 207.816 336.197 206.868ZM337.265 206.868C337.265 207.528 337.469 208.08 337.889 208.512C338.309 208.944 338.837 209.16 339.497 209.16C340.157 209.16 340.709 208.944 341.129 208.524C341.549 208.104 341.753 207.552 341.753 206.868C341.753 206.184 341.537 205.632 341.117 205.2C340.685 204.78 340.145 204.564 339.497 204.564C338.849 204.564 338.321 204.78 337.901 205.2C337.481 205.62 337.265 206.184 337.265 206.868ZM348.896 208.2L349.616 208.716C349.148 209.592 348.092 210.108 347.048 210.108C346.052 210.108 345.248 209.808 344.636 209.22C344.024 208.632 343.712 207.852 343.712 206.868C343.712 205.932 344.012 205.152 344.624 204.54C345.236 203.928 346.016 203.616 346.988 203.616C348.104 203.616 349.1 204.12 349.52 204.888L348.74 205.416C348.32 204.852 347.744 204.564 347.012 204.564C346.364 204.564 345.836 204.78 345.416 205.212C344.996 205.644 344.78 206.196 344.78 206.868C344.78 207.552 344.996 208.104 345.44 208.524C345.872 208.944 346.436 209.16 347.144 209.16C347.888 209.16 348.476 208.836 348.896 208.2ZM359.72 210H354.284V203.76H355.292V209.04H358.784V203.76H359.792V209.04H360.668V211.512H359.72V210ZM366.494 208.212L367.142 208.812C366.566 209.676 365.738 210.108 364.646 210.108C363.65 210.108 362.846 209.808 362.234 209.22C361.622 208.632 361.322 207.852 361.322 206.868C361.322 205.92 361.598 205.14 362.162 204.528C362.714 203.916 363.494 203.616 364.502 203.616C365.33 203.616 366.026 203.88 366.566 204.396C367.106 204.912 367.382 205.596 367.382 206.448C367.382 206.724 367.358 206.976 367.322 207.204H362.402C362.462 208.44 363.374 209.16 364.682 209.16C365.414 209.16 366.11 208.776 366.494 208.212ZM364.43 204.54C363.29 204.54 362.546 205.236 362.39 206.292H366.314C366.254 205.188 365.546 204.54 364.43 204.54ZM374.238 210H373.23V207.3H369.63V210H368.622V203.76H369.63V206.352H373.23V203.76H374.238V210Z" fill="#1A3341"/>
<rect x="481" y="176" width="200" height="60" rx="2" fill="white"/>
<path d="M538.668 203.12C536.94 203.12 535.572 202.448 534.912 201.392L535.728 200.792C536.424 201.668 537.396 202.1 538.656 202.1C539.964 202.1 540.888 201.452 540.888 200.528C540.888 199.724 540.048 199.22 538.74 199.22H537.264V198.2H538.668C539.208 198.2 539.664 198.068 540.036 197.816C540.408 197.564 540.588 197.252 540.588 196.856C540.588 195.944 539.676 195.5 538.464 195.5C537.42 195.5 536.592 195.908 535.956 196.724L535.128 196.136C535.92 195.032 537.072 194.48 538.596 194.48C539.496 194.48 540.24 194.684 540.828 195.104C541.404 195.524 541.692 196.1 541.692 196.832C541.692 197.6 541.176 198.236 540.396 198.62C541.416 198.872 541.992 199.664 541.992 200.528C541.992 201.32 541.68 201.944 541.044 202.412C540.408 202.88 539.616 203.12 538.668 203.12ZM543.845 198.26L543.329 197.504C543.905 196.964 544.901 196.616 545.825 196.616C547.493 196.616 548.381 197.528 548.381 199.148V203H547.373V202.076C546.977 202.652 546.197 203.084 545.189 203.084C543.833 203.084 542.921 202.328 542.921 201.176C542.921 199.868 544.037 199.244 545.909 199.244C546.497 199.244 546.977 199.304 547.373 199.424C547.373 198.212 546.941 197.564 545.705 197.564C545.081 197.564 544.457 197.792 543.845 198.26ZM545.429 202.172C545.897 202.172 546.317 202.04 546.665 201.788C547.013 201.536 547.241 201.248 547.373 200.948V200.312C547.025 200.192 546.581 200.132 546.041 200.132C544.673 200.132 543.989 200.468 543.989 201.14C543.989 201.776 544.565 202.172 545.429 202.172ZM550.904 203H549.896V196.76H550.904V199.556L554.06 196.76H555.416L552.188 199.628L555.572 203H554.228L551.42 200.252L550.904 200.732V203ZM556.3 205.376L556.696 204.5C556.792 204.536 556.876 204.56 556.96 204.56C557.428 204.56 557.752 204.236 558.172 203.24L558.364 202.772L555.34 196.76H556.528L558.868 201.5L560.632 196.76H561.736L559.36 202.904C558.952 203.912 558.568 204.596 558.22 204.968C557.86 205.34 557.452 205.52 556.996 205.52C556.732 205.52 556.504 205.472 556.3 205.376ZM568.078 203H567.07V197.708H563.542V203H562.534V196.76H568.078V203ZM570.67 203H569.662V196.76H570.67V199.556L573.826 196.76H575.182L571.954 199.628L575.338 203H573.994L571.186 200.252L570.67 200.732V203ZM576.508 198.26L575.992 197.504C576.568 196.964 577.564 196.616 578.488 196.616C580.156 196.616 581.044 197.528 581.044 199.148V203H580.036V202.076C579.64 202.652 578.86 203.084 577.852 203.084C576.496 203.084 575.584 202.328 575.584 201.176C575.584 199.868 576.7 199.244 578.572 199.244C579.16 199.244 579.64 199.304 580.036 199.424C580.036 198.212 579.604 197.564 578.368 197.564C577.744 197.564 577.12 197.792 576.508 198.26ZM578.092 202.172C578.56 202.172 578.98 202.04 579.328 201.788C579.676 201.536 579.904 201.248 580.036 200.948V200.312C579.688 200.192 579.244 200.132 578.704 200.132C577.336 200.132 576.652 200.468 576.652 201.14C576.652 201.776 577.228 202.172 578.092 202.172ZM587.284 203H586.276V196.76H587.2L589.504 199.808L591.748 196.76H592.612V203H591.604V198.536L589.492 201.416L587.284 198.536V203ZM594.68 198.26L594.164 197.504C594.74 196.964 595.736 196.616 596.66 196.616C598.328 196.616 599.216 197.528 599.216 199.148V203H598.208V202.076C597.812 202.652 597.032 203.084 596.024 203.084C594.668 203.084 593.756 202.328 593.756 201.176C593.756 199.868 594.872 199.244 596.744 199.244C597.332 199.244 597.812 199.304 598.208 199.424C598.208 198.212 597.776 197.564 596.54 197.564C595.916 197.564 595.292 197.792 594.68 198.26ZM596.264 202.172C596.732 202.172 597.152 202.04 597.5 201.788C597.848 201.536 598.076 201.248 598.208 200.948V200.312C597.86 200.192 597.416 200.132 596.876 200.132C595.508 200.132 594.824 200.468 594.824 201.14C594.824 201.776 595.4 202.172 596.264 202.172ZM606.155 203H605.147V197.72H602.507V198.008C602.507 200.024 602.279 201.416 601.823 202.136C601.367 202.856 600.803 203.096 600.023 203V202.04C600.827 202.04 601.499 201.692 601.499 198.044V196.76H606.155V203ZM607.393 199.868C607.393 198.92 607.705 198.14 608.317 197.528C608.929 196.916 609.721 196.616 610.693 196.616C611.677 196.616 612.481 196.916 613.093 197.528C613.705 198.14 614.017 198.92 614.017 199.868C614.017 200.816 613.705 201.584 613.093 202.196C612.469 202.808 611.665 203.108 610.693 203.108C609.721 203.108 608.929 202.808 608.317 202.196C607.705 201.584 607.393 200.816 607.393 199.868ZM608.461 199.868C608.461 200.528 608.665 201.08 609.085 201.512C609.505 201.944 610.033 202.16 610.693 202.16C611.353 202.16 611.905 201.944 612.325 201.524C612.745 201.104 612.949 200.552 612.949 199.868C612.949 199.184 612.733 198.632 612.313 198.2C611.881 197.78 611.341 197.564 610.693 197.564C610.045 197.564 609.517 197.78 609.097 198.2C608.677 198.62 608.461 199.184 608.461 199.868ZM616.264 203H615.256V196.76H619.804V197.708H616.264V203ZM620.114 199.868C620.114 198.92 620.426 198.14 621.038 197.528C621.65 196.916 622.442 196.616 623.414 196.616C624.398 196.616 625.202 196.916 625.814 197.528C626.426 198.14 626.738 198.92 626.738 199.868C626.738 200.816 626.426 201.584 625.814 202.196C625.19 202.808 624.386 203.108 623.414 203.108C622.442 203.108 621.65 202.808 621.038 202.196C620.426 201.584 620.114 200.816 620.114 199.868ZM621.182 199.868C621.182 200.528 621.386 201.08 621.806 201.512C622.226 201.944 622.754 202.16 623.414 202.16C624.074 202.16 624.626 201.944 625.046 201.524C625.466 201.104 625.67 200.552 625.67 199.868C625.67 199.184 625.454 198.632 625.034 198.2C624.602 197.78 624.062 197.564 623.414 197.564C622.766 197.564 622.238 197.78 621.818 198.2C621.398 198.62 621.182 199.184 621.182 199.868ZM559.879 215.868C559.879 214.92 560.191 214.14 560.803 213.528C561.415 212.916 562.207 212.616 563.179 212.616C564.163 212.616 564.967 212.916 565.579 213.528C566.191 214.14 566.503 214.92 566.503 215.868C566.503 216.816 566.191 217.584 565.579 218.196C564.955 218.808 564.151 219.108 563.179 219.108C562.207 219.108 561.415 218.808 560.803 218.196C560.191 217.584 559.879 216.816 559.879 215.868ZM560.947 215.868C560.947 216.528 561.151 217.08 561.571 217.512C561.991 217.944 562.519 218.16 563.179 218.16C563.839 218.16 564.391 217.944 564.811 217.524C565.231 217.104 565.435 216.552 565.435 215.868C565.435 215.184 565.219 214.632 564.799 214.2C564.367 213.78 563.827 213.564 563.179 213.564C562.531 213.564 562.003 213.78 561.583 214.2C561.163 214.62 560.947 215.184 560.947 215.868ZM573.069 210.084L573.249 211.008C572.901 211.14 572.349 211.248 571.569 211.332C570.789 211.416 570.249 211.536 569.949 211.68C569.049 212.124 568.521 212.952 568.389 214.176L568.437 214.188C568.953 213.372 569.793 212.964 570.945 212.964C571.821 212.964 572.529 213.228 573.069 213.744C573.609 214.272 573.873 215.004 573.873 215.928C573.873 216.828 573.573 217.584 572.985 218.196C572.397 218.808 571.629 219.12 570.705 219.12C568.677 219.12 567.417 217.764 567.417 215.376C567.417 214.176 567.573 213.216 567.885 212.484C568.185 211.764 568.737 211.2 569.517 210.804C569.937 210.6 570.561 210.444 571.389 210.36C572.217 210.276 572.781 210.18 573.069 210.084ZM568.485 215.556V215.64C568.485 216.408 568.689 217.02 569.109 217.476C569.517 217.932 570.045 218.16 570.693 218.16C571.329 218.16 571.833 217.956 572.229 217.536C572.613 217.128 572.805 216.612 572.805 215.988C572.805 214.728 572.061 213.924 570.729 213.924C569.577 213.924 568.737 214.656 568.485 215.556ZM575.77 213.72H574.138V212.76H576.778V214.692H578.362C580.066 214.692 580.918 215.412 580.918 216.84C580.918 218.1 580.126 219 578.29 219H575.77V213.72ZM578.254 215.652H576.778V218.04H578.242C579.394 218.04 579.862 217.632 579.862 216.852C579.862 216.048 579.322 215.652 578.254 215.652ZM586.774 217.212L587.422 217.812C586.846 218.676 586.018 219.108 584.926 219.108C583.93 219.108 583.126 218.808 582.514 218.22C581.902 217.632 581.602 216.852 581.602 215.868C581.602 214.92 581.878 214.14 582.442 213.528C582.994 212.916 583.774 212.616 584.782 212.616C585.61 212.616 586.306 212.88 586.846 213.396C587.386 213.912 587.662 214.596 587.662 215.448C587.662 215.724 587.638 215.976 587.602 216.204H582.682C582.742 217.44 583.654 218.16 584.962 218.16C585.694 218.16 586.39 217.776 586.774 217.212ZM584.71 213.54C583.57 213.54 582.826 214.236 582.67 215.292H586.594C586.534 214.188 585.826 213.54 584.71 213.54ZM589.91 219H588.902V212.76H589.826L592.13 215.808L594.374 212.76H595.238V219H594.23V214.536L592.118 217.416L589.91 214.536V219ZM597.307 214.26L596.791 213.504C597.367 212.964 598.363 212.616 599.287 212.616C600.955 212.616 601.843 213.528 601.843 215.148V219H600.835V218.076C600.439 218.652 599.659 219.084 598.651 219.084C597.295 219.084 596.383 218.328 596.383 217.176C596.383 215.868 597.499 215.244 599.371 215.244C599.959 215.244 600.439 215.304 600.835 215.424C600.835 214.212 600.403 213.564 599.167 213.564C598.543 213.564 597.919 213.792 597.307 214.26ZM598.891 218.172C599.359 218.172 599.779 218.04 600.127 217.788C600.475 217.536 600.703 217.248 600.835 216.948V216.312C600.487 216.192 600.043 216.132 599.503 216.132C598.135 216.132 597.451 216.468 597.451 217.14C597.451 217.776 598.027 218.172 598.891 218.172Z" fill="#1A3341"/>
<rect y="260" width="200" height="60" rx="2" fill="white"/>
<path d="M77.7315 294H76.6395V285.6H77.7315V289.656L81.9795 285.6H83.4075L79.4475 289.404L83.6955 294H82.2555L78.6315 290.124L77.7315 290.988V294ZM83.65 290.868C83.65 289.92 83.962 289.14 84.574 288.528C85.186 287.916 85.978 287.616 86.95 287.616C87.934 287.616 88.738 287.916 89.35 288.528C89.962 289.14 90.274 289.92 90.274 290.868C90.274 291.816 89.962 292.584 89.35 293.196C88.726 293.808 87.922 294.108 86.95 294.108C85.978 294.108 85.186 293.808 84.574 293.196C83.962 292.584 83.65 291.816 83.65 290.868ZM84.718 290.868C84.718 291.528 84.922 292.08 85.342 292.512C85.762 292.944 86.29 293.16 86.95 293.16C87.61 293.16 88.162 292.944 88.582 292.524C89.002 292.104 89.206 291.552 89.206 290.868C89.206 290.184 88.99 289.632 88.57 289.2C88.138 288.78 87.598 288.564 86.95 288.564C86.302 288.564 85.774 288.78 85.354 289.2C84.934 289.62 84.718 290.184 84.718 290.868ZM97.1286 294H96.1206V291.3H92.5206V294H91.5126V287.76H92.5206V290.352H96.1206V287.76H97.1286V294ZM99.7187 294H98.7107V287.76H99.7187V290.556L102.875 287.76H104.231L101.003 290.628L104.387 294H103.043L100.235 291.252L99.7187 291.732V294ZM105.115 296.376L105.511 295.5C105.607 295.536 105.691 295.56 105.775 295.56C106.243 295.56 106.567 295.236 106.987 294.24L107.179 293.772L104.155 287.76H105.343L107.683 292.5L109.447 287.76H110.551L108.175 293.904C107.767 294.912 107.383 295.596 107.035 295.968C106.675 296.34 106.267 296.52 105.811 296.52C105.547 296.52 105.319 296.472 105.115 296.376ZM112.357 296.4H111.349V287.76H112.357V288.54C112.777 287.928 113.449 287.616 114.373 287.616C115.285 287.616 116.017 287.904 116.557 288.492C117.097 289.08 117.361 289.836 117.361 290.772C117.361 291.732 117.073 292.524 116.497 293.16C115.909 293.796 115.165 294.108 114.253 294.108C113.413 294.108 112.777 293.892 112.357 293.472V296.4ZM114.265 288.564C113.353 288.564 112.645 289.152 112.357 289.86V292.188C112.717 292.836 113.317 293.16 114.169 293.16C114.781 293.16 115.297 292.944 115.693 292.512C116.089 292.08 116.293 291.528 116.293 290.844C116.293 289.452 115.513 288.564 114.265 288.564ZM123.43 292.2L124.15 292.716C123.682 293.592 122.626 294.108 121.582 294.108C120.586 294.108 119.782 293.808 119.17 293.22C118.558 292.632 118.246 291.852 118.246 290.868C118.246 289.932 118.546 289.152 119.158 288.54C119.77 287.928 120.55 287.616 121.522 287.616C122.638 287.616 123.634 288.12 124.054 288.888L123.274 289.416C122.854 288.852 122.278 288.564 121.546 288.564C120.898 288.564 120.37 288.78 119.95 289.212C119.53 289.644 119.314 290.196 119.314 290.868C119.314 291.552 119.53 292.104 119.974 292.524C120.406 292.944 120.97 293.16 121.678 293.16C122.422 293.16 123.01 292.836 123.43 292.2Z" fill="#1A3341"/>
<rect y="344" width="200" height="60" rx="2" fill="white"/>
<path d="M59.6542 370H58.5622V361.6H59.6542V365.656L63.9022 361.6H65.3302L61.3702 365.404L65.6182 370H64.1782L60.5542 366.124L59.6542 366.988V370ZM65.5727 366.868C65.5727 365.92 65.8847 365.14 66.4967 364.528C67.1087 363.916 67.9007 363.616 68.8727 363.616C69.8567 363.616 70.6607 363.916 71.2727 364.528C71.8847 365.14 72.1967 365.92 72.1967 366.868C72.1967 367.816 71.8847 368.584 71.2727 369.196C70.6487 369.808 69.8447 370.108 68.8727 370.108C67.9007 370.108 67.1087 369.808 66.4967 369.196C65.8847 368.584 65.5727 367.816 65.5727 366.868ZM66.6407 366.868C66.6407 367.528 66.8447 368.08 67.2647 368.512C67.6847 368.944 68.2127 369.16 68.8727 369.16C69.5327 369.16 70.0847 368.944 70.5047 368.524C70.9247 368.104 71.1287 367.552 71.1287 366.868C71.1287 366.184 70.9127 365.632 70.4927 365.2C70.0607 364.78 69.5207 364.564 68.8727 364.564C68.2247 364.564 67.6967 364.78 67.2767 365.2C66.8567 365.62 66.6407 366.184 66.6407 366.868ZM79.0512 370H78.0432V367.3H74.4432V370H73.4352V363.76H74.4432V366.352H78.0432V363.76H79.0512V370ZM81.6413 370H80.6333V363.76H81.6413V366.556L84.7973 363.76H86.1533L82.9253 366.628L86.3093 370H84.9653L82.1573 367.252L81.6413 367.732V370ZM87.038 372.376L87.434 371.5C87.53 371.536 87.614 371.56 87.698 371.56C88.166 371.56 88.49 371.236 88.91 370.24L89.102 369.772L86.078 363.76H87.266L89.606 368.5L91.37 363.76H92.474L90.098 369.904C89.69 370.912 89.306 371.596 88.958 371.968C88.598 372.34 88.19 372.52 87.734 372.52C87.47 372.52 87.242 372.472 87.038 372.376ZM94.2798 372.4H93.2718V363.76H94.2798V364.54C94.6998 363.928 95.3718 363.616 96.2958 363.616C97.2078 363.616 97.9398 363.904 98.4798 364.492C99.0198 365.08 99.2838 365.836 99.2838 366.772C99.2838 367.732 98.9958 368.524 98.4198 369.16C97.8318 369.796 97.0878 370.108 96.1758 370.108C95.3358 370.108 94.6998 369.892 94.2798 369.472V372.4ZM96.1878 364.564C95.2758 364.564 94.5678 365.152 94.2798 365.86V368.188C94.6398 368.836 95.2398 369.16 96.0918 369.16C96.7038 369.16 97.2198 368.944 97.6158 368.512C98.0118 368.08 98.2158 367.528 98.2158 366.844C98.2158 365.452 97.4358 364.564 96.1878 364.564ZM105.341 368.212L105.989 368.812C105.413 369.676 104.585 370.108 103.493 370.108C102.497 370.108 101.693 369.808 101.081 369.22C100.469 368.632 100.169 367.852 100.169 366.868C100.169 365.92 100.445 365.14 101.009 364.528C101.561 363.916 102.341 363.616 103.349 363.616C104.177 363.616 104.873 363.88 105.413 364.396C105.953 364.912 106.229 365.596 106.229 366.448C106.229 366.724 106.205 366.976 106.169 367.204H101.249C101.309 368.44 102.221 369.16 103.529 369.16C104.261 369.16 104.957 368.776 105.341 368.212ZM103.277 364.54C102.137 364.54 101.393 365.236 101.237 366.292H105.161C105.101 365.188 104.393 364.54 103.277 364.54ZM113.085 370H112.077V367.3H108.477V370H107.469V363.76H108.477V366.352H112.077V363.76H113.085V370ZM116.335 364.708H113.947V363.76H119.755V364.708H117.343V370H116.335V364.708ZM126.239 370H125.231V367.3H121.631V370H120.623V363.76H121.631V366.352H125.231V363.76H126.239V370ZM130.077 370H127.821V363.76H128.829V365.704H130.173C132.009 365.704 132.741 366.556 132.741 367.84C132.741 369.1 131.937 370 130.077 370ZM130.065 366.664H128.829V369.04H130.053C131.205 369.04 131.673 368.632 131.673 367.852C131.673 367.06 131.133 366.664 130.065 366.664ZM134.649 370H133.629V363.76H134.649V370ZM141.05 368.212L141.698 368.812C141.122 369.676 140.294 370.108 139.202 370.108C138.206 370.108 137.402 369.808 136.79 369.22C136.178 368.632 135.878 367.852 135.878 366.868C135.878 365.92 136.154 365.14 136.718 364.528C137.27 363.916 138.05 363.616 139.058 363.616C139.886 363.616 140.582 363.88 141.122 364.396C141.662 364.912 141.938 365.596 141.938 366.448C141.938 366.724 141.914 366.976 141.878 367.204H136.958C137.018 368.44 137.93 369.16 139.238 369.16C139.97 369.16 140.666 368.776 141.05 368.212ZM138.986 364.54C137.846 364.54 137.102 365.236 136.946 366.292H140.87C140.81 365.188 140.102 364.54 138.986 364.54ZM70.9549 386H69.9469V380.708H66.4189V386H65.4109V379.76H70.9549V386ZM77.3627 384.212L78.0107 384.812C77.4347 385.676 76.6067 386.108 75.5147 386.108C74.5187 386.108 73.7147 385.808 73.1027 385.22C72.4907 384.632 72.1907 383.852 72.1907 382.868C72.1907 381.92 72.4667 381.14 73.0307 380.528C73.5827 379.916 74.3627 379.616 75.3707 379.616C76.1987 379.616 76.8947 379.88 77.4347 380.396C77.9747 380.912 78.2507 381.596 78.2507 382.448C78.2507 382.724 78.2267 382.976 78.1907 383.204H73.2707C73.3307 384.44 74.2427 385.16 75.5507 385.16C76.2827 385.16 76.9787 384.776 77.3627 384.212ZM75.2987 380.54C74.1587 380.54 73.4147 381.236 73.2587 382.292H77.1827C77.1227 381.188 76.4147 380.54 75.2987 380.54ZM80.4988 388.4H79.4908V379.76H80.4988V380.54C80.9188 379.928 81.5908 379.616 82.5148 379.616C83.4268 379.616 84.1588 379.904 84.6988 380.492C85.2388 381.08 85.5028 381.836 85.5028 382.772C85.5028 383.732 85.2148 384.524 84.6388 385.16C84.0508 385.796 83.3068 386.108 82.3948 386.108C81.5548 386.108 80.9188 385.892 80.4988 385.472V388.4ZM82.4068 380.564C81.4948 380.564 80.7868 381.152 80.4988 381.86V384.188C80.8588 384.836 81.4588 385.16 82.3108 385.16C82.9228 385.16 83.4388 384.944 83.8348 384.512C84.2308 384.08 84.4348 383.528 84.4348 382.844C84.4348 381.452 83.6548 380.564 82.4068 380.564ZM91.5598 384.212L92.2078 384.812C91.6318 385.676 90.8038 386.108 89.7118 386.108C88.7158 386.108 87.9118 385.808 87.2998 385.22C86.6878 384.632 86.3878 383.852 86.3878 382.868C86.3878 381.92 86.6638 381.14 87.2278 380.528C87.7798 379.916 88.5598 379.616 89.5678 379.616C90.3958 379.616 91.0918 379.88 91.6318 380.396C92.1718 380.912 92.4478 381.596 92.4478 382.448C92.4478 382.724 92.4238 382.976 92.3878 383.204H87.4678C87.5278 384.44 88.4398 385.16 89.7478 385.16C90.4798 385.16 91.1758 384.776 91.5598 384.212ZM89.4958 380.54C88.3558 380.54 87.6118 381.236 87.4558 382.292H91.3798C91.3198 381.188 90.6118 380.54 89.4958 380.54ZM94.6958 386H93.6878V379.76H98.2358V380.708H94.6958V386ZM98.5457 382.868C98.5457 381.92 98.8577 381.14 99.4697 380.528C100.082 379.916 100.874 379.616 101.846 379.616C102.83 379.616 103.634 379.916 104.246 380.528C104.858 381.14 105.17 381.92 105.17 382.868C105.17 383.816 104.858 384.584 104.246 385.196C103.622 385.808 102.818 386.108 101.846 386.108C100.874 386.108 100.082 385.808 99.4697 385.196C98.8577 384.584 98.5457 383.816 98.5457 382.868ZM99.6137 382.868C99.6137 383.528 99.8177 384.08 100.238 384.512C100.658 384.944 101.186 385.16 101.846 385.16C102.506 385.16 103.058 384.944 103.478 384.524C103.898 384.104 104.102 383.552 104.102 382.868C104.102 382.184 103.886 381.632 103.466 381.2C103.034 380.78 102.494 380.564 101.846 380.564C101.198 380.564 100.67 380.78 100.25 381.2C99.8297 381.62 99.6137 382.184 99.6137 382.868ZM109.192 386H106.408V379.76H109C110.74 379.76 111.556 380.204 111.556 381.356C111.556 381.932 111.292 382.388 110.752 382.712C111.424 382.916 111.76 383.408 111.76 384.212C111.76 385.376 110.836 386 109.192 386ZM109.204 383.276H107.416V385.064H109.084C110.152 385.064 110.692 384.764 110.692 384.164C110.692 383.576 110.2 383.276 109.204 383.276ZM108.964 380.696H107.416V382.364H109.312C110.044 382.364 110.488 382.064 110.488 381.5C110.488 380.864 109.972 380.696 108.964 380.696ZM112.661 382.868C112.661 381.92 112.973 381.14 113.585 380.528C114.197 379.916 114.989 379.616 115.961 379.616C116.945 379.616 117.749 379.916 118.361 380.528C118.973 381.14 119.285 381.92 119.285 382.868C119.285 383.816 118.973 384.584 118.361 385.196C117.737 385.808 116.933 386.108 115.961 386.108C114.989 386.108 114.197 385.808 113.585 385.196C112.973 384.584 112.661 383.816 112.661 382.868ZM113.729 382.868C113.729 383.528 113.933 384.08 114.353 384.512C114.773 384.944 115.301 385.16 115.961 385.16C116.621 385.16 117.173 384.944 117.593 384.524C118.013 384.104 118.217 383.552 118.217 382.868C118.217 382.184 118.001 381.632 117.581 381.2C117.149 380.78 116.609 380.564 115.961 380.564C115.313 380.564 114.785 380.78 114.365 381.2C113.945 381.62 113.729 382.184 113.729 382.868ZM121.531 388.4H120.523V379.76H121.531V380.54C121.951 379.928 122.623 379.616 123.547 379.616C124.459 379.616 125.191 379.904 125.731 380.492C126.271 381.08 126.535 381.836 126.535 382.772C126.535 383.732 126.247 384.524 125.671 385.16C125.083 385.796 124.339 386.108 123.427 386.108C122.587 386.108 121.951 385.892 121.531 385.472V388.4ZM123.439 380.564C122.527 380.564 121.819 381.152 121.531 381.86V384.188C121.891 384.836 122.491 385.16 123.343 385.16C123.955 385.16 124.471 384.944 124.867 384.512C125.263 384.08 125.467 383.528 125.467 382.844C125.467 381.452 124.687 380.564 123.439 380.564ZM130.024 386H127.768V379.76H128.776V381.704H130.12C131.956 381.704 132.688 382.556 132.688 383.84C132.688 385.1 131.884 386 130.024 386ZM130.012 382.664H128.776V385.04H130C131.152 385.04 131.62 384.632 131.62 383.852C131.62 383.06 131.08 382.664 130.012 382.664ZM134.596 386H133.576V379.76H134.596V386Z" fill="#1A3341"/>
<rect y="428" width="200" height="60" rx="2" fill="white"/>
<path d="M61.438 454.12C59.71 454.12 58.342 453.448 57.682 452.392L58.498 451.792C59.194 452.668 60.166 453.1 61.426 453.1C62.734 453.1 63.658 452.452 63.658 451.528C63.658 450.724 62.818 450.22 61.51 450.22H60.034V449.2H61.438C61.978 449.2 62.434 449.068 62.806 448.816C63.178 448.564 63.358 448.252 63.358 447.856C63.358 446.944 62.446 446.5 61.234 446.5C60.19 446.5 59.362 446.908 58.726 447.724L57.898 447.136C58.69 446.032 59.842 445.48 61.366 445.48C62.266 445.48 63.01 445.684 63.598 446.104C64.174 446.524 64.462 447.1 64.462 447.832C64.462 448.6 63.946 449.236 63.166 449.62C64.186 449.872 64.762 450.664 64.762 451.528C64.762 452.32 64.45 452.944 63.814 453.412C63.178 453.88 62.386 454.12 61.438 454.12ZM66.6158 449.26L66.0998 448.504C66.6758 447.964 67.6718 447.616 68.5958 447.616C70.2638 447.616 71.1518 448.528 71.1518 450.148V454H70.1438V453.076C69.7478 453.652 68.9678 454.084 67.9598 454.084C66.6038 454.084 65.6918 453.328 65.6918 452.176C65.6918 450.868 66.8078 450.244 68.6798 450.244C69.2678 450.244 69.7478 450.304 70.1438 450.424C70.1438 449.212 69.7118 448.564 68.4758 448.564C67.8518 448.564 67.2278 448.792 66.6158 449.26ZM68.1998 453.172C68.6678 453.172 69.0878 453.04 69.4358 452.788C69.7838 452.536 70.0118 452.248 70.1438 451.948V451.312C69.7958 451.192 69.3518 451.132 68.8118 451.132C67.4438 451.132 66.7598 451.468 66.7598 452.14C66.7598 452.776 67.3358 453.172 68.1998 453.172ZM73.6739 454H72.6659V447.76H73.6739V450.556L76.8299 447.76H78.1859L74.9579 450.628L78.3419 454H76.9979L74.1899 451.252L73.6739 451.732V454ZM79.0706 456.376L79.4666 455.5C79.5626 455.536 79.6466 455.56 79.7306 455.56C80.1986 455.56 80.5226 455.236 80.9426 454.24L81.1346 453.772L78.1106 447.76H79.2986L81.6386 452.5L83.4026 447.76H84.5066L82.1306 453.904C81.7226 454.912 81.3386 455.596 80.9906 455.968C80.6306 456.34 80.2226 456.52 79.7666 456.52C79.5026 456.52 79.2746 456.472 79.0706 456.376ZM90.8484 454H89.8404V448.708H86.3124V454H85.3044V447.76H90.8484V454ZM93.4402 454H92.4322V447.76H93.4402V450.556L96.5962 447.76H97.9522L94.7242 450.628L98.1082 454H96.7642L93.9562 451.252L93.4402 451.732V454ZM99.2783 449.26L98.7623 448.504C99.3383 447.964 100.334 447.616 101.258 447.616C102.926 447.616 103.814 448.528 103.814 450.148V454H102.806V453.076C102.41 453.652 101.63 454.084 100.622 454.084C99.2663 454.084 98.3543 453.328 98.3543 452.176C98.3543 450.868 99.4703 450.244 101.342 450.244C101.93 450.244 102.41 450.304 102.806 450.424C102.806 449.212 102.374 448.564 101.138 448.564C100.514 448.564 99.8903 448.792 99.2783 449.26ZM100.862 453.172C101.33 453.172 101.75 453.04 102.098 452.788C102.446 452.536 102.674 452.248 102.806 451.948V451.312C102.458 451.192 102.014 451.132 101.474 451.132C100.106 451.132 99.4223 451.468 99.4223 452.14C99.4223 452.776 99.9983 453.172 100.862 453.172ZM114.59 454H113.582V448.708H110.054V454H109.046V447.76H114.59V454ZM116.318 456.376L116.714 455.5C116.81 455.536 116.894 455.56 116.978 455.56C117.446 455.56 117.77 455.236 118.19 454.24L118.382 453.772L115.358 447.76H116.546L118.886 452.5L120.65 447.76H121.754L119.378 453.904C118.97 454.912 118.586 455.596 118.238 455.968C117.878 456.34 117.47 456.52 117.014 456.52C116.75 456.52 116.522 456.472 116.318 456.376ZM124.395 448.708H122.007V447.76H127.815V448.708H125.403V454H124.395V448.708ZM133.273 452.212L133.921 452.812C133.345 453.676 132.517 454.108 131.425 454.108C130.429 454.108 129.625 453.808 129.013 453.22C128.401 452.632 128.101 451.852 128.101 450.868C128.101 449.92 128.377 449.14 128.941 448.528C129.493 447.916 130.273 447.616 131.281 447.616C132.109 447.616 132.805 447.88 133.345 448.396C133.885 448.912 134.161 449.596 134.161 450.448C134.161 450.724 134.137 450.976 134.101 451.204H129.181C129.241 452.44 130.153 453.16 131.461 453.16C132.193 453.16 132.889 452.776 133.273 452.212ZM131.209 448.54C130.069 448.54 129.325 449.236 129.169 450.292H133.093C133.033 449.188 132.325 448.54 131.209 448.54ZM136.409 454H135.401V447.76H136.325L138.629 450.808L140.873 447.76H141.737V454H140.729V449.536L138.617 452.416L136.409 449.536V454ZM41.4889 472.4H40.4809V463.76H41.4889V464.54C41.9089 463.928 42.5809 463.616 43.5049 463.616C44.4169 463.616 45.1489 463.904 45.6889 464.492C46.2289 465.08 46.4929 465.836 46.4929 466.772C46.4929 467.732 46.2049 468.524 45.6289 469.16C45.0409 469.796 44.2969 470.108 43.3849 470.108C42.5449 470.108 41.9089 469.892 41.4889 469.472V472.4ZM43.3969 464.564C42.4849 464.564 41.7769 465.152 41.4889 465.86V468.188C41.8489 468.836 42.4489 469.16 43.3009 469.16C43.9129 469.16 44.4289 468.944 44.8249 468.512C45.2209 468.08 45.4249 467.528 45.4249 466.844C45.4249 465.452 44.6449 464.564 43.3969 464.564ZM48.2059 465.26L47.6899 464.504C48.2659 463.964 49.2619 463.616 50.1859 463.616C51.8539 463.616 52.7419 464.528 52.7419 466.148V470H51.7339V469.076C51.3379 469.652 50.5579 470.084 49.5499 470.084C48.1939 470.084 47.2819 469.328 47.2819 468.176C47.2819 466.868 48.3979 466.244 50.2699 466.244C50.8579 466.244 51.3379 466.304 51.7339 466.424C51.7339 465.212 51.3019 464.564 50.0659 464.564C49.4419 464.564 48.8179 464.792 48.2059 465.26ZM49.7899 469.172C50.2579 469.172 50.6779 469.04 51.0259 468.788C51.3739 468.536 51.6019 468.248 51.7339 467.948V467.312C51.3859 467.192 50.9419 467.132 50.4019 467.132C49.0339 467.132 48.3499 467.468 48.3499 468.14C48.3499 468.776 48.9259 469.172 49.7899 469.172ZM56.512 470.12C55.228 470.12 54.28 469.64 53.692 468.692L54.484 468.14C54.832 468.776 55.6 469.184 56.524 469.184C57.52 469.184 58.228 468.776 58.228 468.104C58.228 467.552 57.808 467.276 56.98 467.276H55.516V466.364H56.908C57.52 466.364 58 466.004 58 465.464C58 464.876 57.376 464.54 56.476 464.54C55.72 464.54 55.096 464.828 54.628 465.416L53.884 464.924C54.304 464.204 55.264 463.604 56.572 463.604C58.144 463.604 59.068 464.264 59.068 465.308C59.068 465.896 58.816 466.352 58.324 466.652C59.044 467 59.296 467.42 59.296 468.08C59.296 468.716 59.032 469.208 58.516 469.568C58 469.94 57.328 470.12 56.512 470.12ZM61.5481 470H60.5401V463.76H61.4641L63.7681 466.808L66.0121 463.76H66.8761V470H65.8681V465.536L63.7561 468.416L61.5481 465.536V470ZM73.2888 468.212L73.9368 468.812C73.3608 469.676 72.5328 470.108 71.4408 470.108C70.4448 470.108 69.6408 469.808 69.0288 469.22C68.4168 468.632 68.1168 467.852 68.1168 466.868C68.1168 465.92 68.3928 465.14 68.9568 464.528C69.5088 463.916 70.2888 463.616 71.2968 463.616C72.1248 463.616 72.8208 463.88 73.3608 464.396C73.9008 464.912 74.1768 465.596 74.1768 466.448C74.1768 466.724 74.1528 466.976 74.1168 467.204H69.1968C69.2568 468.44 70.1688 469.16 71.4768 469.16C72.2088 469.16 72.9048 468.776 73.2888 468.212ZM71.2248 464.54C70.0848 464.54 69.3408 465.236 69.1848 466.292H73.1088C73.0488 465.188 72.3408 464.54 71.2248 464.54ZM82.8688 470H75.4168V463.76H76.4248V469.04H78.6688V463.76H79.6768V469.04H81.9208V463.76H82.9288V469.04H83.8048V471.512H82.8688V470ZM89.6303 468.212L90.2783 468.812C89.7023 469.676 88.8743 470.108 87.7823 470.108C86.7863 470.108 85.9823 469.808 85.3703 469.22C84.7583 468.632 84.4583 467.852 84.4583 466.868C84.4583 465.92 84.7343 465.14 85.2983 464.528C85.8503 463.916 86.6303 463.616 87.6383 463.616C88.4663 463.616 89.1623 463.88 89.7023 464.396C90.2423 464.912 90.5183 465.596 90.5183 466.448C90.5183 466.724 90.4943 466.976 90.4583 467.204H85.5383C85.5983 468.44 86.5103 469.16 87.8183 469.16C88.5503 469.16 89.2463 468.776 89.6303 468.212ZM87.5663 464.54C86.4263 464.54 85.6823 465.236 85.5263 466.292H89.4503C89.3903 465.188 88.6823 464.54 87.5663 464.54ZM97.3744 470H96.3664V467.3H92.7664V470H91.7584V463.76H92.7664V466.352H96.3664V463.76H97.3744V470ZM103.684 465.332L99.8805 470H98.9565V463.76H99.9645V468.44L103.756 463.76H104.692V470H103.684V465.332ZM108.756 463.76H111.264V470H110.256V467.792H108.732L106.884 470H105.66L107.652 467.636C106.692 467.456 106.056 466.724 106.056 465.764C106.056 464.576 106.884 463.76 108.756 463.76ZM107.124 465.788C107.124 466.4 107.7 466.832 108.612 466.832H110.256V464.72H108.636C107.628 464.72 107.124 465.08 107.124 465.788ZM116.218 466.868C116.218 465.92 116.53 465.14 117.142 464.528C117.754 463.916 118.546 463.616 119.518 463.616C120.502 463.616 121.306 463.916 121.918 464.528C122.53 465.14 122.842 465.92 122.842 466.868C122.842 467.816 122.53 468.584 121.918 469.196C121.294 469.808 120.49 470.108 119.518 470.108C118.546 470.108 117.754 469.808 117.142 469.196C116.53 468.584 116.218 467.816 116.218 466.868ZM117.286 466.868C117.286 467.528 117.49 468.08 117.91 468.512C118.33 468.944 118.858 469.16 119.518 469.16C120.178 469.16 120.73 468.944 121.15 468.524C121.57 468.104 121.774 467.552 121.774 466.868C121.774 466.184 121.558 465.632 121.138 465.2C120.706 464.78 120.166 464.564 119.518 464.564C118.87 464.564 118.342 464.78 117.922 465.2C117.502 465.62 117.286 466.184 117.286 466.868ZM128.137 472.4H127.129V470.12H127.057C126.013 470.12 125.197 469.82 124.609 469.22C124.009 468.62 123.709 467.84 123.709 466.892C123.709 465.992 124.009 465.236 124.609 464.6C125.209 463.964 126.025 463.652 127.045 463.652H127.129V461.24H128.137V463.652H128.233C129.229 463.652 130.045 463.952 130.657 464.564C131.269 465.176 131.569 465.956 131.569 466.892C131.569 467.84 131.269 468.62 130.681 469.22C130.081 469.82 129.253 470.12 128.209 470.12H128.137V472.4ZM124.777 466.892C124.777 468.284 125.581 469.16 127.057 469.16H127.129V464.612H127.045C125.593 464.612 124.777 465.536 124.777 466.892ZM128.209 464.612H128.137V469.16H128.209C129.709 469.16 130.501 468.296 130.501 466.892C130.501 465.56 129.661 464.612 128.209 464.612ZM137.603 468.212L138.251 468.812C137.675 469.676 136.847 470.108 135.755 470.108C134.759 470.108 133.955 469.808 133.343 469.22C132.731 468.632 132.431 467.852 132.431 466.868C132.431 465.92 132.707 465.14 133.271 464.528C133.823 463.916 134.603 463.616 135.611 463.616C136.439 463.616 137.135 463.88 137.675 464.396C138.215 464.912 138.491 465.596 138.491 466.448C138.491 466.724 138.467 466.976 138.431 467.204H133.511C133.571 468.44 134.483 469.16 135.791 469.16C136.523 469.16 137.219 468.776 137.603 468.212ZM135.539 464.54C134.399 464.54 133.655 465.236 133.499 466.292H137.423C137.363 465.188 136.655 464.54 135.539 464.54ZM140.739 472.4H139.731V463.76H140.739V464.54C141.159 463.928 141.831 463.616 142.755 463.616C143.667 463.616 144.399 463.904 144.939 464.492C145.479 465.08 145.743 465.836 145.743 466.772C145.743 467.732 145.455 468.524 144.879 469.16C144.291 469.796 143.547 470.108 142.635 470.108C141.795 470.108 141.159 469.892 140.739 469.472V472.4ZM142.647 464.564C141.735 464.564 141.027 465.152 140.739 465.86V468.188C141.099 468.836 141.699 469.16 142.551 469.16C143.163 469.16 143.679 468.944 144.075 468.512C144.471 468.08 144.675 467.528 144.675 466.844C144.675 465.452 143.895 464.564 142.647 464.564ZM148.41 464.708H146.022V463.76H151.83V464.708H149.418V470H148.41V464.708ZM154.954 470H152.698V463.76H153.706V465.704H155.05C156.886 465.704 157.618 466.556 157.618 467.84C157.618 469.1 156.814 470 154.954 470ZM154.942 466.664H153.706V469.04H154.93C156.082 469.04 156.55 468.632 156.55 467.852C156.55 467.06 156.01 466.664 154.942 466.664ZM159.526 470H158.506V463.76H159.526V470Z" fill="#1A3341"/>
<rect x="481" width="200" height="60" rx="2" fill="#BAEADC"/>
<path d="M539.511 26H538.419V22.244H533.415V26H532.323V17.6H533.415V21.224H538.419V17.6H539.511V26ZM546.076 24.212L546.724 24.812C546.148 25.676 545.32 26.108 544.228 26.108C543.232 26.108 542.428 25.808 541.816 25.22C541.204 24.632 540.904 23.852 540.904 22.868C540.904 21.92 541.18 21.14 541.744 20.528C542.296 19.916 543.076 19.616 544.084 19.616C544.912 19.616 545.608 19.88 546.148 20.396C546.688 20.912 546.964 21.596 546.964 22.448C546.964 22.724 546.94 22.976 546.904 23.204H541.984C542.044 24.44 542.956 25.16 544.264 25.16C544.996 25.16 545.692 24.776 546.076 24.212ZM544.012 20.54C542.872 20.54 542.128 21.236 541.972 22.292H545.896C545.836 21.188 545.128 20.54 544.012 20.54ZM549.212 26H548.204V19.76H549.212V22.556L552.368 19.76H553.724L550.496 22.628L553.88 26H552.536L549.728 23.252L549.212 23.732V26ZM553.812 22.868C553.812 21.92 554.124 21.14 554.736 20.528C555.348 19.916 556.14 19.616 557.112 19.616C558.096 19.616 558.9 19.916 559.512 20.528C560.124 21.14 560.436 21.92 560.436 22.868C560.436 23.816 560.124 24.584 559.512 25.196C558.888 25.808 558.084 26.108 557.112 26.108C556.14 26.108 555.348 25.808 554.736 25.196C554.124 24.584 553.812 23.816 553.812 22.868ZM554.88 22.868C554.88 23.528 555.084 24.08 555.504 24.512C555.924 24.944 556.452 25.16 557.112 25.16C557.772 25.16 558.324 24.944 558.744 24.524C559.164 24.104 559.368 23.552 559.368 22.868C559.368 22.184 559.152 21.632 558.732 21.2C558.3 20.78 557.76 20.564 557.112 20.564C556.464 20.564 555.936 20.78 555.516 21.2C555.096 21.62 554.88 22.184 554.88 22.868ZM567.29 26H566.282V23.3H562.682V26H561.674V19.76H562.682V22.352H566.282V19.76H567.29V26ZM569.88 26H568.872V19.76H569.88V22.556L573.036 19.76H574.392L571.164 22.628L574.548 26H573.204L570.396 23.252L569.88 23.732V26ZM575.277 28.376L575.673 27.5C575.769 27.536 575.853 27.56 575.937 27.56C576.405 27.56 576.729 27.236 577.149 26.24L577.341 25.772L574.317 19.76H575.505L577.845 24.5L579.609 19.76H580.713L578.337 25.904C577.929 26.912 577.545 27.596 577.197 27.968C576.837 28.34 576.429 28.52 575.973 28.52C575.709 28.52 575.481 28.472 575.277 28.376ZM582.519 28.4H581.511V19.76H582.519V20.54C582.939 19.928 583.611 19.616 584.535 19.616C585.447 19.616 586.179 19.904 586.719 20.492C587.259 21.08 587.523 21.836 587.523 22.772C587.523 23.732 587.235 24.524 586.659 25.16C586.071 25.796 585.327 26.108 584.415 26.108C583.575 26.108 582.939 25.892 582.519 25.472V28.4ZM584.427 20.564C583.515 20.564 582.807 21.152 582.519 21.86V24.188C582.879 24.836 583.479 25.16 584.331 25.16C584.943 25.16 585.459 24.944 585.855 24.512C586.251 24.08 586.455 23.528 586.455 22.844C586.455 21.452 585.675 20.564 584.427 20.564ZM593.58 24.212L594.228 24.812C593.652 25.676 592.824 26.108 591.732 26.108C590.736 26.108 589.932 25.808 589.32 25.22C588.708 24.632 588.408 23.852 588.408 22.868C588.408 21.92 588.684 21.14 589.248 20.528C589.8 19.916 590.58 19.616 591.588 19.616C592.416 19.616 593.112 19.88 593.652 20.396C594.192 20.912 594.468 21.596 594.468 22.448C594.468 22.724 594.444 22.976 594.408 23.204H589.488C589.548 24.44 590.46 25.16 591.768 25.16C592.5 25.16 593.196 24.776 593.58 24.212ZM591.516 20.54C590.376 20.54 589.632 21.236 589.476 22.292H593.4C593.34 21.188 592.632 20.54 591.516 20.54ZM601.324 26H600.316V23.3H596.716V26H595.708V19.76H596.716V22.352H600.316V19.76H601.324V26ZM604.574 20.708H602.186V19.76H607.994V20.708H605.582V26H604.574V20.708ZM614.478 26H613.47V23.3H609.87V26H608.862V19.76H609.87V22.352H613.47V19.76H614.478V26ZM618.316 26H616.06V19.76H617.068V21.704H618.412C620.248 21.704 620.98 22.556 620.98 23.84C620.98 25.1 620.176 26 618.316 26ZM618.304 22.664H617.068V25.04H618.292C619.444 25.04 619.912 24.632 619.912 23.852C619.912 23.06 619.372 22.664 618.304 22.664ZM622.888 26H621.868V19.76H622.888V26ZM629.289 24.212L629.937 24.812C629.361 25.676 628.533 26.108 627.441 26.108C626.445 26.108 625.641 25.808 625.029 25.22C624.417 24.632 624.117 23.852 624.117 22.868C624.117 21.92 624.393 21.14 624.957 20.528C625.509 19.916 626.289 19.616 627.297 19.616C628.125 19.616 628.821 19.88 629.361 20.396C629.901 20.912 630.177 21.596 630.177 22.448C630.177 22.724 630.153 22.976 630.117 23.204H625.197C625.257 24.44 626.169 25.16 627.477 25.16C628.209 25.16 628.905 24.776 629.289 24.212ZM627.225 20.54C626.085 20.54 625.341 21.236 625.185 22.292H629.109C629.049 21.188 628.341 20.54 627.225 20.54ZM560.847 42.12C559.563 42.12 558.615 41.64 558.027 40.692L558.819 40.14C559.167 40.776 559.935 41.184 560.859 41.184C561.855 41.184 562.563 40.776 562.563 40.104C562.563 39.552 562.143 39.276 561.315 39.276H559.851V38.364H561.243C561.855 38.364 562.335 38.004 562.335 37.464C562.335 36.876 561.711 36.54 560.811 36.54C560.055 36.54 559.431 36.828 558.963 37.416L558.219 36.924C558.639 36.204 559.599 35.604 560.907 35.604C562.479 35.604 563.403 36.264 563.403 37.308C563.403 37.896 563.151 38.352 562.659 38.652C563.379 39 563.631 39.42 563.631 40.08C563.631 40.716 563.367 41.208 562.851 41.568C562.335 41.94 561.663 42.12 560.847 42.12ZM565.425 37.26L564.909 36.504C565.485 35.964 566.481 35.616 567.405 35.616C569.073 35.616 569.961 36.528 569.961 38.148V42H568.953V41.076C568.557 41.652 567.777 42.084 566.769 42.084C565.413 42.084 564.501 41.328 564.501 40.176C564.501 38.868 565.617 38.244 567.489 38.244C568.077 38.244 568.557 38.304 568.953 38.424C568.953 37.212 568.521 36.564 567.285 36.564C566.661 36.564 566.037 36.792 565.425 37.26ZM567.009 41.172C567.477 41.172 567.897 41.04 568.245 40.788C568.593 40.536 568.821 40.248 568.953 39.948V39.312C568.605 39.192 568.161 39.132 567.621 39.132C566.253 39.132 565.569 39.468 565.569 40.14C565.569 40.776 566.145 41.172 567.009 41.172ZM572.483 42H571.475V35.76H572.483V38.556L575.639 35.76H576.995L573.767 38.628L577.151 42H575.807L572.999 39.252L572.483 39.732V42ZM577.88 44.376L578.276 43.5C578.372 43.536 578.456 43.56 578.54 43.56C579.008 43.56 579.332 43.236 579.752 42.24L579.944 41.772L576.92 35.76H578.108L580.448 40.5L582.212 35.76H583.316L580.94 41.904C580.532 42.912 580.148 43.596 579.8 43.968C579.44 44.34 579.032 44.52 578.576 44.52C578.312 44.52 578.084 44.472 577.88 44.376ZM589.658 42H588.65V36.708H585.122V42H584.114V35.76H589.658V42ZM592.249 42H591.241V35.76H592.249V38.556L595.405 35.76H596.761L593.533 38.628L596.917 42H595.573L592.765 39.252L592.249 39.732V42ZM602.406 37.332L598.602 42H597.678V35.76H598.686V40.44L602.478 35.76H603.414V42H602.406V37.332Z" fill="#1A3341"/>
<path d="M209 30L214 32.8867L214 27.1132L209 30ZM241 29.5L213.5 29.5L213.5 30.5L241 30.5L241 29.5Z" fill="#9FC0C7"/>
<path d="M473 30L468 27.1132L468 32.8868L473 30ZM441 30.5L468.5 30.5L468.5 29.5L441 29.5L441 30.5Z" fill="#9FC0C7"/>
<path d="M341 84L343.887 79L338.113 79L341 84ZM340.5 60L340.5 79.5L341.5 79.5L341.5 60L340.5 60Z" fill="#9FC0C7"/>
<path d="M100 71L87 60H113L100 71Z" fill="#BAEADC"/>
<path d="M581 71L568 60H594L581 71Z" fill="#BAEADC"/>
<path d="M341 163L328 152H354L341 163Z" fill="#BAEADC"/>
</svg>
