<svg width="322" height="411" viewBox="0 0 322 411" fill="none" xmlns="http://www.w3.org/2000/svg">
<rect x="27.5002" y="0.5" width="58" height="58" fill="#F5E386" stroke="white"/>
<rect x="27.5002" y="118.5" width="58" height="58" fill="#88C591" stroke="white"/>
<rect x="27.5002" y="59.5" width="58" height="58" fill="#F5E386" stroke="white"/>
<rect x="27.5002" y="177.5" width="58" height="58" fill="#88C591" stroke="white"/>
<rect x="27.5002" y="236.5" width="58" height="58" fill="#88C591" stroke="white"/>
<rect x="86.5002" y="0.5" width="58" height="58" fill="#F5E386" stroke="white"/>
<rect x="86.5002" y="118.5" width="58" height="58" fill="#F5E386" stroke="white"/>
<rect x="86.5002" y="59.5" width="58" height="58" fill="#F5E386" stroke="white"/>
<rect x="86.5002" y="177.5" width="58" height="58" fill="#88C591" stroke="white"/>
<rect x="86.5002" y="236.5" width="58" height="58" fill="#88C591" stroke="white"/>
<rect x="145.5" y="0.5" width="58" height="58" fill="#F87B7B" stroke="white"/>
<rect x="145.5" y="118.5" width="58" height="58" fill="#F5E386" stroke="white"/>
<rect x="145.5" y="59.5" width="58" height="58" fill="#F5E386" stroke="white"/>
<rect x="145.5" y="177.5" width="58" height="58" fill="#F5E386" stroke="white"/>
<rect x="145.5" y="236.5" width="58" height="58" fill="#88C591" stroke="white"/>
<rect x="204.5" y="0.5" width="58" height="58" fill="#F87B7B" stroke="white"/>
<rect x="204.5" y="118.5" width="58" height="58" fill="#F5E386" stroke="white"/>
<rect x="204.5" y="59.5" width="58" height="58" fill="#F87B7B" stroke="white"/>
<rect x="204.5" y="177.5" width="58" height="58" fill="#F5E386" stroke="white"/>
<rect x="204.5" y="236.5" width="58" height="58" fill="#F5E386" stroke="white"/>
<rect x="263.5" y="0.5" width="58" height="58" fill="#F87B7B" stroke="white"/>
<rect x="263.5" y="118.5" width="58" height="58" fill="#F87B7B" stroke="white"/>
<rect x="263.5" y="59.5" width="58" height="58" fill="#F87B7B" stroke="white"/>
<rect x="263.5" y="177.5" width="58" height="58" fill="#F87B7B" stroke="white"/>
<rect x="263.5" y="236.5" width="58" height="58" fill="#F87B7B" stroke="white"/>
<path d="M106.779 325H105.141V312.4H106.653L111.441 318.736L116.067 312.4H117.543V325H115.905V315.226L111.603 321.022H111.207L106.779 315.226V325ZM120.691 317.89L119.917 316.756C120.781 315.946 122.275 315.424 123.661 315.424C126.163 315.424 127.495 316.792 127.495 319.222V325H125.983V323.614C125.389 324.478 124.219 325.126 122.707 325.126C120.673 325.126 119.305 323.992 119.305 322.264C119.305 320.302 120.979 319.366 123.787 319.366C124.669 319.366 125.389 319.456 125.983 319.636C125.983 317.818 125.335 316.846 123.481 316.846C122.545 316.846 121.609 317.188 120.691 317.89ZM123.067 323.758C123.769 323.758 124.399 323.56 124.921 323.182C125.443 322.804 125.785 322.372 125.983 321.922V320.968C125.461 320.788 124.795 320.698 123.985 320.698C121.933 320.698 120.907 321.202 120.907 322.21C120.907 323.164 121.771 323.758 123.067 323.758ZM131.772 317.062H128.19V315.64H136.902V317.062H133.284V325H131.772V317.062ZM144.908 322.318L145.88 323.218C145.016 324.514 143.774 325.162 142.136 325.162C140.642 325.162 139.436 324.712 138.518 323.83C137.6 322.948 137.15 321.778 137.15 320.302C137.15 318.88 137.564 317.71 138.41 316.792C139.238 315.874 140.408 315.424 141.92 315.424C143.162 315.424 144.206 315.82 145.016 316.594C145.826 317.368 146.24 318.394 146.24 319.672C146.24 320.086 146.204 320.464 146.15 320.806H138.77C138.86 322.66 140.228 323.74 142.19 323.74C143.288 323.74 144.332 323.164 144.908 322.318ZM141.812 316.81C140.102 316.81 138.986 317.854 138.752 319.438H144.638C144.548 317.782 143.486 316.81 141.812 316.81ZM149.433 328.6H147.921V315.64H149.433V316.81C150.063 315.892 151.071 315.424 152.457 315.424C153.825 315.424 154.923 315.856 155.733 316.738C156.543 317.62 156.939 318.754 156.939 320.158C156.939 321.598 156.507 322.786 155.643 323.74C154.761 324.694 153.645 325.162 152.277 325.162C151.017 325.162 150.063 324.838 149.433 324.208V328.6ZM152.295 316.846C150.927 316.846 149.865 317.728 149.433 318.79V322.282C149.973 323.254 150.873 323.74 152.151 323.74C153.069 323.74 153.843 323.416 154.437 322.768C155.031 322.12 155.337 321.292 155.337 320.266C155.337 318.178 154.167 316.846 152.295 316.846ZM165.7 317.998L159.994 325H158.608V315.64H160.12V322.66L165.808 315.64H167.212V325H165.7V317.998ZM170.121 317.89L169.347 316.756C170.211 315.946 171.705 315.424 173.091 315.424C175.593 315.424 176.925 316.792 176.925 319.222V325H175.413V323.614C174.819 324.478 173.649 325.126 172.137 325.126C170.103 325.126 168.735 323.992 168.735 322.264C168.735 320.302 170.409 319.366 173.217 319.366C174.099 319.366 174.819 319.456 175.413 319.636C175.413 317.818 174.765 316.846 172.911 316.846C171.975 316.846 171.039 317.188 170.121 317.89ZM172.497 323.758C173.199 323.758 173.829 323.56 174.351 323.182C174.873 322.804 175.215 322.372 175.413 321.922V320.968C174.891 320.788 174.225 320.698 173.415 320.698C171.363 320.698 170.337 321.202 170.337 322.21C170.337 323.164 171.201 323.758 172.497 323.758ZM187.152 325H185.64V317.08H181.68V317.512C181.68 320.536 181.338 322.624 180.654 323.704C179.97 324.784 179.124 325.144 177.954 325V323.56C179.16 323.56 180.168 323.038 180.168 317.566V315.64H187.152V325ZM193.132 325H189.352V315.64H190.864V318.556H193.276C195.832 318.556 197.11 319.618 197.11 321.76C197.11 323.65 195.922 325 193.132 325ZM193.078 319.996H190.864V323.56H193.078C194.806 323.56 195.508 322.948 195.508 321.778C195.508 320.59 194.698 319.996 193.078 319.996ZM207.057 325H205.545V320.95H200.145V325H198.633V315.64H200.145V319.528H205.545V315.64H207.057V325ZM208.729 320.302C208.729 318.88 209.197 317.71 210.115 316.792C211.033 315.874 212.221 315.424 213.679 315.424C215.155 315.424 216.361 315.874 217.279 316.792C218.197 317.71 218.665 318.88 218.665 320.302C218.665 321.724 218.197 322.876 217.279 323.794C216.343 324.712 215.137 325.162 213.679 325.162C212.221 325.162 211.033 324.712 210.115 323.794C209.197 322.876 208.729 321.724 208.729 320.302ZM210.331 320.302C210.331 321.292 210.637 322.12 211.267 322.768C211.897 323.416 212.689 323.74 213.679 323.74C214.669 323.74 215.497 323.416 216.127 322.786C216.757 322.156 217.063 321.328 217.063 320.302C217.063 319.276 216.739 318.448 216.109 317.8C215.461 317.17 214.651 316.846 213.679 316.846C212.707 316.846 211.915 317.17 211.285 317.8C210.655 318.43 210.331 319.276 210.331 320.302ZM227.596 322.3L228.676 323.074C227.974 324.388 226.39 325.162 224.824 325.162C223.33 325.162 222.124 324.712 221.206 323.83C220.288 322.948 219.82 321.778 219.82 320.302C219.82 318.898 220.27 317.728 221.188 316.81C222.106 315.892 223.276 315.424 224.734 315.424C226.408 315.424 227.902 316.18 228.532 317.332L227.362 318.124C226.732 317.278 225.868 316.846 224.77 316.846C223.798 316.846 223.006 317.17 222.376 317.818C221.746 318.466 221.422 319.294 221.422 320.302C221.422 321.328 221.746 322.156 222.412 322.786C223.06 323.416 223.906 323.74 224.968 323.74C226.084 323.74 226.966 323.254 227.596 322.3ZM232.565 317.062H228.983V315.64H237.695V317.062H234.077V325H232.565V317.062ZM242.597 325H238.817V315.64H240.329V318.556H242.741C245.297 318.556 246.575 319.618 246.575 321.76C246.575 323.65 245.387 325 242.597 325ZM242.543 319.996H240.329V323.56H242.543C244.271 323.56 244.973 322.948 244.973 321.778C244.973 320.59 244.163 319.996 242.543 319.996Z" fill="#1A3341" fill-opacity="0.6"/>
<path d="M15 197.51L15 202.514L2.4 202.514L2.4 197.42C2.4 194.198 3.57 192.974 5.532 192.974C6.936 192.974 7.89 193.568 8.412 194.756C8.7 193.37 9.762 192.524 11.4 192.524C13.866 192.524 15 194.36 15 197.51ZM9.312 197.348L9.312 200.876L13.47 200.876L13.47 197.528C13.47 195.242 12.804 194.216 11.31 194.216C9.978 194.216 9.312 195.26 9.312 197.348ZM3.93 197.564L3.93 200.876L7.818 200.876L7.818 197.294C7.818 195.692 7.098 194.648 5.874 194.648C4.524 194.648 3.93 195.422 3.93 197.564ZM12.318 183.4L13.218 182.428C14.514 183.292 15.162 184.534 15.162 186.172C15.162 187.666 14.712 188.872 13.83 189.79C12.948 190.708 11.778 191.158 10.302 191.158C8.88 191.158 7.71 190.744 6.792 189.898C5.874 189.07 5.424 187.9 5.424 186.388C5.424 185.146 5.82 184.102 6.594 183.292C7.368 182.482 8.394 182.068 9.672 182.068C10.086 182.068 10.464 182.104 10.806 182.158L10.806 189.538C12.66 189.448 13.74 188.08 13.74 186.118C13.74 185.02 13.164 183.976 12.318 183.4ZM6.81 186.496C6.81 188.206 7.854 189.322 9.438 189.556L9.438 183.67C7.782 183.76 6.81 184.822 6.81 186.496ZM18.6 178.876L18.6 180.388L5.64 180.388L5.64 178.876L6.81 178.876C5.892 178.246 5.424 177.238 5.424 175.852C5.424 174.484 5.856 173.386 6.738 172.576C7.62 171.766 8.754 171.37 10.158 171.37C11.598 171.37 12.786 171.802 13.74 172.666C14.694 173.548 15.162 174.664 15.162 176.032C15.162 177.292 14.838 178.246 14.208 178.876L18.6 178.876ZM6.846 176.014C6.846 177.382 7.728 178.444 8.79 178.876L12.282 178.876C13.254 178.336 13.74 177.436 13.74 176.158C13.74 175.24 13.416 174.466 12.768 173.872C12.12 173.278 11.292 172.972 10.266 172.972C8.178 172.972 6.846 174.142 6.846 176.014ZM10.302 170.223C8.88 170.223 7.71 169.755 6.792 168.837C5.874 167.919 5.424 166.731 5.424 165.273C5.424 163.797 5.874 162.591 6.792 161.673C7.71 160.755 8.88 160.287 10.302 160.287C11.724 160.287 12.876 160.755 13.794 161.673C14.712 162.609 15.162 163.815 15.162 165.273C15.162 166.731 14.712 167.919 13.794 168.837C12.876 169.755 11.724 170.223 10.302 170.223ZM10.302 168.621C11.292 168.621 12.12 168.315 12.768 167.685C13.416 167.055 13.74 166.263 13.74 165.273C13.74 164.283 13.416 163.455 12.786 162.825C12.156 162.195 11.328 161.889 10.302 161.889C9.276 161.889 8.448 162.213 7.8 162.843C7.17 163.491 6.846 164.301 6.846 165.273C6.846 166.245 7.17 167.037 7.8 167.667C8.43 168.297 9.276 168.621 10.302 168.621ZM5.64 155.235L5.64 151.473L15 151.473L15 152.985L11.688 152.985L11.688 155.271L15 158.043L15 159.879L11.454 156.891C11.184 158.331 10.086 159.285 8.646 159.285C6.864 159.285 5.64 158.043 5.64 155.235ZM8.682 157.683C9.6 157.683 10.248 156.819 10.248 155.451L10.248 152.985L7.08 152.985L7.08 155.415C7.08 156.927 7.62 157.683 8.682 157.683ZM7.062 146.773L7.062 150.355L5.64 150.355L5.64 141.643L7.062 141.643L7.062 145.261L15 145.261L15 146.773L7.062 146.773ZM15 132.097L15 133.609L10.95 133.609L10.95 139.009L15 139.009L15 140.521L5.64 140.521L5.64 139.009L9.528 139.009L9.528 133.609L5.64 133.609L5.64 132.097L15 132.097ZM10.302 130.426C8.88 130.426 7.71 129.958 6.792 129.04C5.874 128.122 5.424 126.934 5.424 125.476C5.424 124 5.874 122.794 6.792 121.876C7.71 120.958 8.88 120.49 10.302 120.49C11.724 120.49 12.876 120.958 13.794 121.876C14.712 122.812 15.162 124.018 15.162 125.476C15.162 126.934 14.712 128.122 13.794 129.04C12.876 129.958 11.724 130.426 10.302 130.426ZM10.302 128.824C11.292 128.824 12.12 128.518 12.768 127.888C13.416 127.258 13.74 126.466 13.74 125.476C13.74 124.486 13.416 123.658 12.786 123.028C12.156 122.398 11.328 122.092 10.302 122.092C9.276 122.092 8.448 122.416 7.8 123.046C7.17 123.694 6.846 124.504 6.846 125.476C6.846 126.448 7.17 127.24 7.8 127.87C8.43 128.5 9.276 128.824 10.302 128.824ZM12.3 111.558L13.074 110.478C14.388 111.18 15.162 112.764 15.162 114.33C15.162 115.824 14.712 117.03 13.83 117.948C12.948 118.866 11.778 119.334 10.302 119.334C8.898 119.334 7.728 118.884 6.81 117.966C5.892 117.048 5.424 115.878 5.424 114.42C5.424 112.746 6.18 111.252 7.332 110.622L8.124 111.792C7.278 112.422 6.846 113.286 6.846 114.384C6.846 115.356 7.17 116.148 7.818 116.778C8.466 117.408 9.294 117.732 10.302 117.732C11.328 117.732 12.156 117.408 12.786 116.742C13.416 116.094 13.74 115.248 13.74 114.186C13.74 113.07 13.254 112.188 12.3 111.558ZM7.062 106.589L7.062 110.171L5.64 110.171L5.63999 101.459L7.062 101.459L7.062 105.077L15 105.077L15 106.589L7.062 106.589ZM15 96.5575L15 100.338L5.63999 100.338L5.63999 98.8255L8.556 98.8255L8.556 96.4135C8.556 93.8575 9.61799 92.5795 11.76 92.5795C13.65 92.5795 15 93.7675 15 96.5575ZM9.99599 96.6115L9.99599 98.8255L13.56 98.8255L13.56 96.6115C13.56 94.8835 12.948 94.1815 11.778 94.1815C10.59 94.1815 9.99599 94.9915 9.99599 96.6115Z" fill="#1A3341" fill-opacity="0.6"/>
<g opacity="0.8">
<rect opacity="0.9" y="357" width="10" height="10" fill="#F87B7B"/>
</g>
<path d="M18.432 361.8C18.432 360.588 18.84 359.556 19.668 358.728C20.496 357.9 21.504 357.492 22.704 357.492C23.892 357.492 24.9 357.9 25.728 358.716C26.556 359.532 26.964 360.564 26.964 361.8C26.964 363.024 26.556 364.044 25.728 364.872C24.9 365.7 23.892 366.108 22.704 366.108C21.504 366.108 20.496 365.7 19.668 364.884C18.84 364.068 18.432 363.036 18.432 361.8ZM19.572 361.8C19.572 362.736 19.884 363.516 20.496 364.128C21.108 364.752 21.84 365.064 22.704 365.064C23.592 365.064 24.336 364.752 24.936 364.14C25.524 363.528 25.824 362.748 25.824 361.8C25.824 360.852 25.524 360.072 24.912 359.46C24.3 358.848 23.556 358.536 22.704 358.536C21.828 358.536 21.096 358.848 20.484 359.46C19.872 360.072 19.572 360.852 19.572 361.8ZM33.4584 357.084L33.6384 358.008C33.2904 358.14 32.7384 358.248 31.9584 358.332C31.1784 358.416 30.6384 358.536 30.3384 358.68C29.4384 359.124 28.9104 359.952 28.7784 361.176L28.8264 361.188C29.3424 360.372 30.1824 359.964 31.3344 359.964C32.2104 359.964 32.9184 360.228 33.4584 360.744C33.9984 361.272 34.2624 362.004 34.2624 362.928C34.2624 363.828 33.9624 364.584 33.3744 365.196C32.7864 365.808 32.0184 366.12 31.0944 366.12C29.0664 366.12 27.8064 364.764 27.8064 362.376C27.8064 361.176 27.9624 360.216 28.2744 359.484C28.5744 358.764 29.1264 358.2 29.9064 357.804C30.3264 357.6 30.9504 357.444 31.7784 357.36C32.6064 357.276 33.1704 357.18 33.4584 357.084ZM28.8744 362.556V362.64C28.8744 363.408 29.0784 364.02 29.4984 364.476C29.9064 364.932 30.4344 365.16 31.0824 365.16C31.7184 365.16 32.2224 364.956 32.6184 364.536C33.0024 364.128 33.1944 363.612 33.1944 362.988C33.1944 361.728 32.4504 360.924 31.1184 360.924C29.9664 360.924 29.1264 361.656 28.8744 362.556ZM40.656 366H39.648V360.72H37.008V361.008C37.008 363.024 36.78 364.416 36.324 365.136C35.868 365.856 35.304 366.096 34.524 366V365.04C35.328 365.04 36 364.692 36 361.044V359.76H40.656V366ZM42.6026 361.26L42.0866 360.504C42.6626 359.964 43.6586 359.616 44.5826 359.616C46.2506 359.616 47.1386 360.528 47.1386 362.148V366H46.1306V365.076C45.7346 365.652 44.9546 366.084 43.9466 366.084C42.5906 366.084 41.6786 365.328 41.6786 364.176C41.6786 362.868 42.7946 362.244 44.6666 362.244C45.2546 362.244 45.7346 362.304 46.1306 362.424C46.1306 361.212 45.6986 360.564 44.4626 360.564C43.8386 360.564 43.2146 360.792 42.6026 361.26ZM44.1866 365.172C44.6546 365.172 45.0746 365.04 45.4226 364.788C45.7706 364.536 45.9986 364.248 46.1306 363.948V363.312C45.7826 363.192 45.3386 363.132 44.7986 363.132C43.4306 363.132 42.7466 363.468 42.7466 364.14C42.7466 364.776 43.3226 365.172 44.1866 365.172ZM53.3688 364.2L54.0888 364.716C53.6208 365.592 52.5648 366.108 51.5208 366.108C50.5248 366.108 49.7208 365.808 49.1088 365.22C48.4968 364.632 48.1848 363.852 48.1848 362.868C48.1848 361.932 48.4848 361.152 49.0968 360.54C49.7088 359.928 50.4888 359.616 51.4608 359.616C52.5768 359.616 53.5728 360.12 53.9928 360.888L53.2128 361.416C52.7928 360.852 52.2168 360.564 51.4848 360.564C50.8368 360.564 50.3088 360.78 49.8888 361.212C49.4688 361.644 49.2528 362.196 49.2528 362.868C49.2528 363.552 49.4688 364.104 49.9128 364.524C50.3448 364.944 50.9088 365.16 51.6168 365.16C52.3608 365.16 52.9488 364.836 53.3688 364.2ZM56.6813 360.708H54.2933V359.76H60.1013V360.708H57.6893V366H56.6813V360.708ZM63.3692 366H60.8492V359.76H61.8572V361.704H63.4652C65.1692 361.704 66.0212 362.412 66.0212 363.84C66.0212 365.1 65.2292 366 63.3692 366ZM63.3332 362.664H61.8572V365.04H63.3332C64.4852 365.04 64.9532 364.632 64.9532 363.852C64.9532 363.06 64.4132 362.664 63.3332 362.664ZM71.6423 366H70.6343V359.76H71.6423V362.556L74.7983 359.76H76.1543L72.9263 362.628L76.3103 366H74.9663L72.1583 363.252L71.6423 363.732V366ZM82.3162 366H81.3082V360.72H78.6682V361.008C78.6682 363.024 78.4402 364.416 77.9842 365.136C77.5282 365.856 76.9642 366.096 76.1842 366V365.04C76.9882 365.04 77.6602 364.692 77.6602 361.044V359.76H82.3162V366ZM84.7908 366H83.7828V359.76H84.7908V362.316H86.0388C86.1588 361.512 86.5068 360.852 87.0828 360.36C87.6468 359.868 88.3548 359.616 89.1948 359.616C90.1428 359.616 90.9108 359.916 91.5108 360.528C92.0988 361.14 92.3988 361.92 92.3988 362.868C92.3988 363.816 92.0988 364.584 91.4988 365.196C90.8988 365.808 90.1308 366.108 89.1948 366.108C88.3188 366.108 87.5988 365.844 87.0228 365.328C86.4468 364.812 86.1108 364.128 86.0268 363.276H84.7908V366ZM87.0708 362.868C87.0708 363.54 87.2748 364.08 87.6828 364.5C88.0788 364.92 88.5948 365.124 89.2068 365.124C90.4548 365.124 91.3308 364.224 91.3308 362.868C91.3308 362.196 91.1388 361.644 90.7428 361.224C90.3468 360.804 89.8308 360.6 89.2068 360.6C88.5948 360.6 88.0908 360.816 87.6828 361.236C87.2748 361.656 87.0708 362.208 87.0708 362.868ZM97.5533 359.76H98.5613V366H97.5533V363.372C97.0973 363.828 96.4613 364.056 95.6453 364.056C94.0013 364.056 93.1853 363.228 93.1853 361.572V359.76H94.1933V361.296C94.1933 362.556 94.7213 363.096 95.8253 363.096C96.5453 363.096 97.2293 362.712 97.5533 362.244V359.76ZM104.849 364.212L105.497 364.812C104.921 365.676 104.093 366.108 103.001 366.108C102.005 366.108 101.201 365.808 100.589 365.22C99.977 364.632 99.677 363.852 99.677 362.868C99.677 361.92 99.953 361.14 100.517 360.528C101.069 359.916 101.849 359.616 102.857 359.616C103.685 359.616 104.381 359.88 104.921 360.396C105.461 360.912 105.737 361.596 105.737 362.448C105.737 362.724 105.713 362.976 105.677 363.204H100.757C100.817 364.44 101.729 365.16 103.037 365.16C103.769 365.16 104.465 364.776 104.849 364.212ZM102.785 360.54C101.645 360.54 100.901 361.236 100.745 362.292H104.669C104.609 361.188 103.901 360.54 102.785 360.54ZM109.641 366H106.857V359.76H109.449C111.189 359.76 112.005 360.204 112.005 361.356C112.005 361.932 111.741 362.388 111.201 362.712C111.873 362.916 112.209 363.408 112.209 364.212C112.209 365.376 111.285 366 109.641 366ZM109.653 363.276H107.865V365.064H109.533C110.601 365.064 111.141 364.764 111.141 364.164C111.141 363.576 110.649 363.276 109.653 363.276ZM109.413 360.696H107.865V362.364H109.761C110.493 362.364 110.937 362.064 110.937 361.5C110.937 360.864 110.421 360.696 109.413 360.696ZM115.593 366H113.337V359.76H114.345V361.704H115.689C117.525 361.704 118.257 362.556 118.257 363.84C118.257 365.1 117.453 366 115.593 366ZM115.581 362.664H114.345V365.04H115.569C116.721 365.04 117.189 364.632 117.189 363.852C117.189 363.06 116.649 362.664 115.581 362.664ZM120.165 366H119.145V359.76H120.165V366ZM125.931 359.76H127.155L124.767 362.772L127.275 366H126.015L124.083 363.492L122.127 366H120.927L123.423 362.784L121.059 359.76H122.319L124.119 362.052L125.931 359.76ZM132.65 368.4H131.642V359.76H132.65V360.54C133.07 359.928 133.742 359.616 134.666 359.616C135.578 359.616 136.31 359.904 136.85 360.492C137.39 361.08 137.654 361.836 137.654 362.772C137.654 363.732 137.366 364.524 136.79 365.16C136.202 365.796 135.458 366.108 134.546 366.108C133.706 366.108 133.07 365.892 132.65 365.472V368.4ZM134.558 360.564C133.646 360.564 132.938 361.152 132.65 361.86V364.188C133.01 364.836 133.61 365.16 134.462 365.16C135.074 365.16 135.59 364.944 135.986 364.512C136.382 364.08 136.586 363.528 136.586 362.844C136.586 361.452 135.806 360.564 134.558 360.564ZM143.495 361.332L139.691 366H138.767V359.76H139.775V364.44L143.567 359.76H144.503V366H143.495V361.332ZM150.798 364.2L151.518 364.716C151.05 365.592 149.994 366.108 148.95 366.108C147.954 366.108 147.15 365.808 146.538 365.22C145.926 364.632 145.614 363.852 145.614 362.868C145.614 361.932 145.914 361.152 146.526 360.54C147.138 359.928 147.918 359.616 148.89 359.616C150.006 359.616 151.002 360.12 151.422 360.888L150.642 361.416C150.222 360.852 149.646 360.564 148.914 360.564C148.266 360.564 147.738 360.78 147.318 361.212C146.898 361.644 146.682 362.196 146.682 362.868C146.682 363.552 146.898 364.104 147.342 364.524C147.774 364.944 148.338 365.16 149.046 365.16C149.79 365.16 150.378 364.836 150.798 364.2ZM153.357 366H152.349V359.76H153.357V362.556L156.513 359.76H157.869L154.641 362.628L158.025 366H156.681L153.873 363.252L153.357 363.732V366ZM157.837 362.868C157.837 361.92 158.149 361.14 158.761 360.528C159.373 359.916 160.165 359.616 161.137 359.616C162.121 359.616 162.925 359.916 163.537 360.528C164.149 361.14 164.461 361.92 164.461 362.868C164.461 363.816 164.149 364.584 163.537 365.196C162.913 365.808 162.109 366.108 161.137 366.108C160.165 366.108 159.373 365.808 158.761 365.196C158.149 364.584 157.837 363.816 157.837 362.868ZM158.905 362.868C158.905 363.528 159.109 364.08 159.529 364.512C159.949 364.944 160.477 365.16 161.137 365.16C161.797 365.16 162.349 364.944 162.769 364.524C163.189 364.104 163.393 363.552 163.393 362.868C163.393 362.184 163.177 361.632 162.757 361.2C162.325 360.78 161.785 360.564 161.137 360.564C160.489 360.564 159.961 360.78 159.541 361.2C159.121 361.62 158.905 362.184 158.905 362.868ZM168.364 366H165.58V359.76H168.172C169.912 359.76 170.728 360.204 170.728 361.356C170.728 361.932 170.464 362.388 169.924 362.712C170.596 362.916 170.932 363.408 170.932 364.212C170.932 365.376 170.008 366 168.364 366ZM168.376 363.276H166.588V365.064H168.256C169.324 365.064 169.864 364.764 169.864 364.164C169.864 363.576 169.372 363.276 168.376 363.276ZM168.136 360.696H166.588V362.364H168.484C169.216 362.364 169.66 362.064 169.66 361.5C169.66 360.864 169.144 360.696 168.136 360.696Z" fill="#1A3341" fill-opacity="0.6"/>
<rect opacity="0.7" y="377" width="10" height="10" fill="#F5E386"/>
<path d="M18.432 381.8C18.432 380.588 18.84 379.556 19.668 378.728C20.496 377.9 21.504 377.492 22.704 377.492C23.892 377.492 24.9 377.9 25.728 378.716C26.556 379.532 26.964 380.564 26.964 381.8C26.964 383.024 26.556 384.044 25.728 384.872C24.9 385.7 23.892 386.108 22.704 386.108C21.504 386.108 20.496 385.7 19.668 384.884C18.84 384.068 18.432 383.036 18.432 381.8ZM19.572 381.8C19.572 382.736 19.884 383.516 20.496 384.128C21.108 384.752 21.84 385.064 22.704 385.064C23.592 385.064 24.336 384.752 24.936 384.14C25.524 383.528 25.824 382.748 25.824 381.8C25.824 380.852 25.524 380.072 24.912 379.46C24.3 378.848 23.556 378.536 22.704 378.536C21.828 378.536 21.096 378.848 20.484 379.46C19.872 380.072 19.572 380.852 19.572 381.8ZM33.4584 377.084L33.6384 378.008C33.2904 378.14 32.7384 378.248 31.9584 378.332C31.1784 378.416 30.6384 378.536 30.3384 378.68C29.4384 379.124 28.9104 379.952 28.7784 381.176L28.8264 381.188C29.3424 380.372 30.1824 379.964 31.3344 379.964C32.2104 379.964 32.9184 380.228 33.4584 380.744C33.9984 381.272 34.2624 382.004 34.2624 382.928C34.2624 383.828 33.9624 384.584 33.3744 385.196C32.7864 385.808 32.0184 386.12 31.0944 386.12C29.0664 386.12 27.8064 384.764 27.8064 382.376C27.8064 381.176 27.9624 380.216 28.2744 379.484C28.5744 378.764 29.1264 378.2 29.9064 377.804C30.3264 377.6 30.9504 377.444 31.7784 377.36C32.6064 377.276 33.1704 377.18 33.4584 377.084ZM28.8744 382.556V382.64C28.8744 383.408 29.0784 384.02 29.4984 384.476C29.9064 384.932 30.4344 385.16 31.0824 385.16C31.7184 385.16 32.2224 384.956 32.6184 384.536C33.0024 384.128 33.1944 383.612 33.1944 382.988C33.1944 381.728 32.4504 380.924 31.1184 380.924C29.9664 380.924 29.1264 381.656 28.8744 382.556ZM40.656 386H39.648V380.72H37.008V381.008C37.008 383.024 36.78 384.416 36.324 385.136C35.868 385.856 35.304 386.096 34.524 386V385.04C35.328 385.04 36 384.692 36 381.044V379.76H40.656V386ZM42.6026 381.26L42.0866 380.504C42.6626 379.964 43.6586 379.616 44.5826 379.616C46.2506 379.616 47.1386 380.528 47.1386 382.148V386H46.1306V385.076C45.7346 385.652 44.9546 386.084 43.9466 386.084C42.5906 386.084 41.6786 385.328 41.6786 384.176C41.6786 382.868 42.7946 382.244 44.6666 382.244C45.2546 382.244 45.7346 382.304 46.1306 382.424C46.1306 381.212 45.6986 380.564 44.4626 380.564C43.8386 380.564 43.2146 380.792 42.6026 381.26ZM44.1866 385.172C44.6546 385.172 45.0746 385.04 45.4226 384.788C45.7706 384.536 45.9986 384.248 46.1306 383.948V383.312C45.7826 383.192 45.3386 383.132 44.7986 383.132C43.4306 383.132 42.7466 383.468 42.7466 384.14C42.7466 384.776 43.3226 385.172 44.1866 385.172ZM53.3688 384.2L54.0888 384.716C53.6208 385.592 52.5648 386.108 51.5208 386.108C50.5248 386.108 49.7208 385.808 49.1088 385.22C48.4968 384.632 48.1848 383.852 48.1848 382.868C48.1848 381.932 48.4848 381.152 49.0968 380.54C49.7088 379.928 50.4888 379.616 51.4608 379.616C52.5768 379.616 53.5728 380.12 53.9928 380.888L53.2128 381.416C52.7928 380.852 52.2168 380.564 51.4848 380.564C50.8368 380.564 50.3088 380.78 49.8888 381.212C49.4688 381.644 49.2528 382.196 49.2528 382.868C49.2528 383.552 49.4688 384.104 49.9128 384.524C50.3448 384.944 50.9088 385.16 51.6168 385.16C52.3608 385.16 52.9488 384.836 53.3688 384.2ZM56.6813 380.708H54.2933V379.76H60.1013V380.708H57.6893V386H56.6813V380.708ZM63.3692 386H60.8492V379.76H61.8572V381.704H63.4652C65.1692 381.704 66.0212 382.412 66.0212 383.84C66.0212 385.1 65.2292 386 63.3692 386ZM63.3332 382.664H61.8572V385.04H63.3332C64.4852 385.04 64.9532 384.632 64.9532 383.852C64.9532 383.06 64.4132 382.664 63.3332 382.664ZM72.8903 386.12C71.6063 386.12 70.6583 385.64 70.0703 384.692L70.8623 384.14C71.2103 384.776 71.9783 385.184 72.9023 385.184C73.8983 385.184 74.6063 384.776 74.6063 384.104C74.6063 383.552 74.1863 383.276 73.3583 383.276H71.8943V382.364H73.2863C73.8983 382.364 74.3783 382.004 74.3783 381.464C74.3783 380.876 73.7543 380.54 72.8543 380.54C72.0983 380.54 71.4743 380.828 71.0063 381.416L70.2623 380.924C70.6823 380.204 71.6423 379.604 72.9503 379.604C74.5223 379.604 75.4463 380.264 75.4463 381.308C75.4463 381.896 75.1943 382.352 74.7023 382.652C75.4223 383 75.6743 383.42 75.6743 384.08C75.6743 384.716 75.4103 385.208 74.8943 385.568C74.3783 385.94 73.7063 386.12 72.8903 386.12ZM82.4144 386H81.4064V383.3H77.8064V386H76.7984V379.76H77.8064V382.352H81.4064V379.76H82.4144V386ZM84.3565 381.26L83.8405 380.504C84.4165 379.964 85.4125 379.616 86.3365 379.616C88.0045 379.616 88.8925 380.528 88.8925 382.148V386H87.8845V385.076C87.4885 385.652 86.7085 386.084 85.7005 386.084C84.3445 386.084 83.4325 385.328 83.4325 384.176C83.4325 382.868 84.5485 382.244 86.4205 382.244C87.0085 382.244 87.4885 382.304 87.8845 382.424C87.8845 381.212 87.4525 380.564 86.2165 380.564C85.5925 380.564 84.9685 380.792 84.3565 381.26ZM85.9405 385.172C86.4085 385.172 86.8285 385.04 87.1765 384.788C87.5245 384.536 87.7525 384.248 87.8845 383.948V383.312C87.5365 383.192 87.0925 383.132 86.5525 383.132C85.1845 383.132 84.5005 383.468 84.5005 384.14C84.5005 384.776 85.0765 385.172 85.9405 385.172ZM94.3307 379.76H95.3387V386H94.3307V383.372C93.8747 383.828 93.2387 384.056 92.4227 384.056C90.7787 384.056 89.9627 383.228 89.9627 381.572V379.76H90.9707V381.296C90.9707 382.556 91.4987 383.096 92.6027 383.096C93.3227 383.096 94.0067 382.712 94.3307 382.244V379.76ZM101.53 381.332L97.7263 386H96.8023V379.76H97.8103V384.44L101.602 379.76H102.538V386H101.53V381.332ZM105.006 386H103.998V379.76H104.922L107.226 382.808L109.47 379.76H110.334V386H109.326V381.536L107.214 384.416L105.006 381.536V386ZM114.058 386H111.802V379.76H112.81V381.704H114.154C115.99 381.704 116.722 382.556 116.722 383.84C116.722 385.1 115.918 386 114.058 386ZM114.046 382.664H112.81V385.04H114.034C115.186 385.04 115.654 384.632 115.654 383.852C115.654 383.06 115.114 382.664 114.046 382.664ZM118.63 386H117.61V379.76H118.63V386ZM124.395 379.76H125.619L123.231 382.772L125.739 386H124.479L122.547 383.492L120.591 386H119.391L121.887 382.784L119.523 379.76H120.783L122.583 382.052L124.395 379.76ZM131.115 388.4H130.107V379.76H131.115V380.54C131.535 379.928 132.207 379.616 133.131 379.616C134.043 379.616 134.775 379.904 135.315 380.492C135.855 381.08 136.119 381.836 136.119 382.772C136.119 383.732 135.831 384.524 135.255 385.16C134.667 385.796 133.923 386.108 133.011 386.108C132.171 386.108 131.535 385.892 131.115 385.472V388.4ZM133.023 380.564C132.111 380.564 131.403 381.152 131.115 381.86V384.188C131.475 384.836 132.075 385.16 132.927 385.16C133.539 385.16 134.055 384.944 134.451 384.512C134.847 384.08 135.051 383.528 135.051 382.844C135.051 381.452 134.271 380.564 133.023 380.564ZM141.96 381.332L138.156 386H137.232V379.76H138.24V384.44L142.032 379.76H142.968V386H141.96V381.332ZM149.263 384.2L149.983 384.716C149.515 385.592 148.459 386.108 147.415 386.108C146.419 386.108 145.615 385.808 145.003 385.22C144.391 384.632 144.079 383.852 144.079 382.868C144.079 381.932 144.379 381.152 144.991 380.54C145.603 379.928 146.383 379.616 147.355 379.616C148.471 379.616 149.467 380.12 149.887 380.888L149.107 381.416C148.687 380.852 148.111 380.564 147.379 380.564C146.731 380.564 146.203 380.78 145.783 381.212C145.363 381.644 145.147 382.196 145.147 382.868C145.147 383.552 145.363 384.104 145.807 384.524C146.239 384.944 146.803 385.16 147.511 385.16C148.255 385.16 148.843 384.836 149.263 384.2ZM151.822 386H150.814V379.76H151.822V382.556L154.978 379.76H156.334L153.106 382.628L156.49 386H155.146L152.338 383.252L151.822 383.732V386ZM156.302 382.868C156.302 381.92 156.614 381.14 157.226 380.528C157.838 379.916 158.63 379.616 159.602 379.616C160.586 379.616 161.39 379.916 162.002 380.528C162.614 381.14 162.926 381.92 162.926 382.868C162.926 383.816 162.614 384.584 162.002 385.196C161.378 385.808 160.574 386.108 159.602 386.108C158.63 386.108 157.838 385.808 157.226 385.196C156.614 384.584 156.302 383.816 156.302 382.868ZM157.37 382.868C157.37 383.528 157.574 384.08 157.994 384.512C158.414 384.944 158.942 385.16 159.602 385.16C160.262 385.16 160.814 384.944 161.234 384.524C161.654 384.104 161.858 383.552 161.858 382.868C161.858 382.184 161.642 381.632 161.222 381.2C160.79 380.78 160.25 380.564 159.602 380.564C158.954 380.564 158.426 380.78 158.006 381.2C157.586 381.62 157.37 382.184 157.37 382.868ZM166.829 386H164.045V379.76H166.637C168.377 379.76 169.193 380.204 169.193 381.356C169.193 381.932 168.929 382.388 168.389 382.712C169.061 382.916 169.397 383.408 169.397 384.212C169.397 385.376 168.473 386 166.829 386ZM166.84 383.276H165.053V385.064H166.721C167.789 385.064 168.329 384.764 168.329 384.164C168.329 383.576 167.837 383.276 166.84 383.276ZM166.601 380.696H165.053V382.364H166.949C167.681 382.364 168.125 382.064 168.125 381.5C168.125 380.864 167.609 380.696 166.601 380.696Z" fill="#1A3341" fill-opacity="0.6"/>
<rect width="10" height="10" transform="translate(0 397)" fill="#88C591"/>
<path d="M18.432 401.8C18.432 400.588 18.84 399.556 19.668 398.728C20.496 397.9 21.504 397.492 22.704 397.492C23.892 397.492 24.9 397.9 25.728 398.716C26.556 399.532 26.964 400.564 26.964 401.8C26.964 403.024 26.556 404.044 25.728 404.872C24.9 405.7 23.892 406.108 22.704 406.108C21.504 406.108 20.496 405.7 19.668 404.884C18.84 404.068 18.432 403.036 18.432 401.8ZM19.572 401.8C19.572 402.736 19.884 403.516 20.496 404.128C21.108 404.752 21.84 405.064 22.704 405.064C23.592 405.064 24.336 404.752 24.936 404.14C25.524 403.528 25.824 402.748 25.824 401.8C25.824 400.852 25.524 400.072 24.912 399.46C24.3 398.848 23.556 398.536 22.704 398.536C21.828 398.536 21.096 398.848 20.484 399.46C19.872 400.072 19.572 400.852 19.572 401.8ZM33.4584 397.084L33.6384 398.008C33.2904 398.14 32.7384 398.248 31.9584 398.332C31.1784 398.416 30.6384 398.536 30.3384 398.68C29.4384 399.124 28.9104 399.952 28.7784 401.176L28.8264 401.188C29.3424 400.372 30.1824 399.964 31.3344 399.964C32.2104 399.964 32.9184 400.228 33.4584 400.744C33.9984 401.272 34.2624 402.004 34.2624 402.928C34.2624 403.828 33.9624 404.584 33.3744 405.196C32.7864 405.808 32.0184 406.12 31.0944 406.12C29.0664 406.12 27.8064 404.764 27.8064 402.376C27.8064 401.176 27.9624 400.216 28.2744 399.484C28.5744 398.764 29.1264 398.2 29.9064 397.804C30.3264 397.6 30.9504 397.444 31.7784 397.36C32.6064 397.276 33.1704 397.18 33.4584 397.084ZM28.8744 402.556V402.64C28.8744 403.408 29.0784 404.02 29.4984 404.476C29.9064 404.932 30.4344 405.16 31.0824 405.16C31.7184 405.16 32.2224 404.956 32.6184 404.536C33.0024 404.128 33.1944 403.612 33.1944 402.988C33.1944 401.728 32.4504 400.924 31.1184 400.924C29.9664 400.924 29.1264 401.656 28.8744 402.556ZM40.656 406H39.648V400.72H37.008V401.008C37.008 403.024 36.78 404.416 36.324 405.136C35.868 405.856 35.304 406.096 34.524 406V405.04C35.328 405.04 36 404.692 36 401.044V399.76H40.656V406ZM42.6026 401.26L42.0866 400.504C42.6626 399.964 43.6586 399.616 44.5826 399.616C46.2506 399.616 47.1386 400.528 47.1386 402.148V406H46.1306V405.076C45.7346 405.652 44.9546 406.084 43.9466 406.084C42.5906 406.084 41.6786 405.328 41.6786 404.176C41.6786 402.868 42.7946 402.244 44.6666 402.244C45.2546 402.244 45.7346 402.304 46.1306 402.424C46.1306 401.212 45.6986 400.564 44.4626 400.564C43.8386 400.564 43.2146 400.792 42.6026 401.26ZM44.1866 405.172C44.6546 405.172 45.0746 405.04 45.4226 404.788C45.7706 404.536 45.9986 404.248 46.1306 403.948V403.312C45.7826 403.192 45.3386 403.132 44.7986 403.132C43.4306 403.132 42.7466 403.468 42.7466 404.14C42.7466 404.776 43.3226 405.172 44.1866 405.172ZM53.3688 404.2L54.0888 404.716C53.6208 405.592 52.5648 406.108 51.5208 406.108C50.5248 406.108 49.7208 405.808 49.1088 405.22C48.4968 404.632 48.1848 403.852 48.1848 402.868C48.1848 401.932 48.4848 401.152 49.0968 400.54C49.7088 399.928 50.4888 399.616 51.4608 399.616C52.5768 399.616 53.5728 400.12 53.9928 400.888L53.2128 401.416C52.7928 400.852 52.2168 400.564 51.4848 400.564C50.8368 400.564 50.3088 400.78 49.8888 401.212C49.4688 401.644 49.2528 402.196 49.2528 402.868C49.2528 403.552 49.4688 404.104 49.9128 404.524C50.3448 404.944 50.9088 405.16 51.6168 405.16C52.3608 405.16 52.9488 404.836 53.3688 404.2ZM56.6813 400.708H54.2933V399.76H60.1013V400.708H57.6893V406H56.6813V400.708ZM63.3692 406H60.8492V399.76H61.8572V401.704H63.4652C65.1692 401.704 66.0212 402.412 66.0212 403.84C66.0212 405.1 65.2292 406 63.3692 406ZM63.3332 402.664H61.8572V405.04H63.3332C64.4852 405.04 64.9532 404.632 64.9532 403.852C64.9532 403.06 64.4132 402.664 63.3332 402.664ZM76.2503 406H75.2423V403.3H71.6423V406H70.6343V399.76H71.6423V402.352H75.2423V399.76H76.2503V406ZM82.5365 404.212L83.1845 404.812C82.6085 405.676 81.7805 406.108 80.6885 406.108C79.6925 406.108 78.8885 405.808 78.2765 405.22C77.6645 404.632 77.3645 403.852 77.3645 402.868C77.3645 401.92 77.6405 401.14 78.2045 400.528C78.7565 399.916 79.5365 399.616 80.5445 399.616C81.3725 399.616 82.0685 399.88 82.6085 400.396C83.1485 400.912 83.4245 401.596 83.4245 402.448C83.4245 402.724 83.4005 402.976 83.3645 403.204H78.4445C78.5045 404.44 79.4165 405.16 80.7245 405.16C81.4565 405.16 82.1525 404.776 82.5365 404.212ZM80.4725 400.54C79.3325 400.54 78.5885 401.236 78.4325 402.292H82.3565C82.2965 401.188 81.5885 400.54 80.4725 400.54ZM86.5661 406.12C85.2821 406.12 84.3341 405.64 83.7461 404.692L84.5381 404.14C84.8861 404.776 85.6541 405.184 86.5781 405.184C87.5741 405.184 88.2821 404.776 88.2821 404.104C88.2821 403.552 87.8621 403.276 87.0341 403.276H85.5701V402.364H86.9621C87.5741 402.364 88.0541 402.004 88.0541 401.464C88.0541 400.876 87.4301 400.54 86.5301 400.54C85.7741 400.54 85.1501 400.828 84.6821 401.416L83.9381 400.924C84.3581 400.204 85.3181 399.604 86.6261 399.604C88.1981 399.604 89.1221 400.264 89.1221 401.308C89.1221 401.896 88.8701 402.352 88.3781 402.652C89.0981 403 89.3501 403.42 89.3501 404.08C89.3501 404.716 89.0861 405.208 88.5701 405.568C88.0541 405.94 87.3821 406.12 86.5661 406.12ZM96.0902 406H95.0822V403.3H91.4822V406H90.4742V399.76H91.4822V402.352H95.0822V399.76H96.0902V406ZM98.0323 401.26L97.5163 400.504C98.0923 399.964 99.0883 399.616 100.012 399.616C101.68 399.616 102.568 400.528 102.568 402.148V406H101.56V405.076C101.164 405.652 100.384 406.084 99.3763 406.084C98.0203 406.084 97.1083 405.328 97.1083 404.176C97.1083 402.868 98.2243 402.244 100.096 402.244C100.684 402.244 101.164 402.304 101.56 402.424C101.56 401.212 101.128 400.564 99.8923 400.564C99.2683 400.564 98.6443 400.792 98.0323 401.26ZM99.6163 405.172C100.084 405.172 100.504 405.04 100.852 404.788C101.2 404.536 101.428 404.248 101.56 403.948V403.312C101.212 403.192 100.768 403.132 100.228 403.132C98.8603 403.132 98.1763 403.468 98.1763 404.14C98.1763 404.776 98.7523 405.172 99.6163 405.172ZM108.006 399.76H109.014V406H108.006V403.372C107.55 403.828 106.914 404.056 106.098 404.056C104.454 404.056 103.638 403.228 103.638 401.572V399.76H104.646V401.296C104.646 402.556 105.174 403.096 106.278 403.096C106.998 403.096 107.682 402.712 108.006 402.244V399.76ZM115.206 401.332L111.402 406H110.478V399.76H111.486V404.44L115.278 399.76H116.214V406H115.206V401.332ZM119.341 400.708H116.953V399.76H122.761V400.708H120.349V406H119.341V400.708ZM128.099 404.212L128.747 404.812C128.171 405.676 127.343 406.108 126.251 406.108C125.255 406.108 124.451 405.808 123.839 405.22C123.227 404.632 122.927 403.852 122.927 402.868C122.927 401.92 123.203 401.14 123.767 400.528C124.319 399.916 125.099 399.616 126.107 399.616C126.935 399.616 127.631 399.88 128.171 400.396C128.711 400.912 128.987 401.596 128.987 402.448C128.987 402.724 128.963 402.976 128.927 403.204H124.007C124.067 404.44 124.979 405.16 126.287 405.16C127.019 405.16 127.715 404.776 128.099 404.212ZM126.035 400.54C124.895 400.54 124.151 401.236 123.995 402.292H127.919C127.859 401.188 127.151 400.54 126.035 400.54ZM135.39 406H134.382V400.72H131.742V401.008C131.742 403.024 131.514 404.416 131.058 405.136C130.602 405.856 130.038 406.096 129.258 406V405.04C130.062 405.04 130.734 404.692 130.734 401.044V399.76H135.39V406ZM139.377 406H136.857V399.76H137.865V401.704H139.473C141.177 401.704 142.029 402.412 142.029 403.84C142.029 405.1 141.237 406 139.377 406ZM139.341 402.664H137.865V405.04H139.341C140.493 405.04 140.961 404.632 140.961 403.852C140.961 403.06 140.421 402.664 139.341 402.664ZM148.661 406H147.653V403.3H144.053V406H143.045V399.76H144.053V402.352H147.653V399.76H148.661V406ZM152.379 406H150.123V399.76H151.131V401.704H152.475C154.311 401.704 155.043 402.556 155.043 403.84C155.043 405.1 154.239 406 152.379 406ZM152.367 402.664H151.131V405.04H152.355C153.507 405.04 153.975 404.632 153.975 403.852C153.975 403.06 153.435 402.664 152.367 402.664ZM156.951 406H155.931V399.76H156.951V406ZM162.716 399.76H163.94L161.552 402.772L164.06 406H162.8L160.868 403.492L158.912 406H157.712L160.208 402.784L157.844 399.76H159.104L160.904 402.052L162.716 399.76ZM169.435 408.4H168.427V399.76H169.435V400.54C169.855 399.928 170.527 399.616 171.451 399.616C172.363 399.616 173.095 399.904 173.635 400.492C174.175 401.08 174.439 401.836 174.439 402.772C174.439 403.732 174.151 404.524 173.575 405.16C172.987 405.796 172.243 406.108 171.331 406.108C170.491 406.108 169.855 405.892 169.435 405.472V408.4ZM171.343 400.564C170.431 400.564 169.723 401.152 169.435 401.86V404.188C169.795 404.836 170.395 405.16 171.247 405.16C171.859 405.16 172.375 404.944 172.771 404.512C173.167 404.08 173.371 403.528 173.371 402.844C173.371 401.452 172.591 400.564 171.343 400.564ZM180.28 401.332L176.476 406H175.552V399.76H176.56V404.44L180.352 399.76H181.288V406H180.28V401.332ZM187.584 404.2L188.304 404.716C187.836 405.592 186.78 406.108 185.736 406.108C184.74 406.108 183.936 405.808 183.324 405.22C182.712 404.632 182.4 403.852 182.4 402.868C182.4 401.932 182.7 401.152 183.312 400.54C183.924 399.928 184.704 399.616 185.676 399.616C186.792 399.616 187.788 400.12 188.208 400.888L187.428 401.416C187.008 400.852 186.432 400.564 185.7 400.564C185.052 400.564 184.524 400.78 184.104 401.212C183.684 401.644 183.468 402.196 183.468 402.868C183.468 403.552 183.684 404.104 184.128 404.524C184.56 404.944 185.124 405.16 185.832 405.16C186.576 405.16 187.164 404.836 187.584 404.2ZM190.142 406H189.134V399.76H190.142V402.556L193.298 399.76H194.654L191.426 402.628L194.81 406H193.466L190.658 403.252L190.142 403.732V406ZM194.622 402.868C194.622 401.92 194.934 401.14 195.546 400.528C196.158 399.916 196.95 399.616 197.922 399.616C198.906 399.616 199.71 399.916 200.322 400.528C200.934 401.14 201.246 401.92 201.246 402.868C201.246 403.816 200.934 404.584 200.322 405.196C199.698 405.808 198.894 406.108 197.922 406.108C196.95 406.108 196.158 405.808 195.546 405.196C194.934 404.584 194.622 403.816 194.622 402.868ZM195.69 402.868C195.69 403.528 195.894 404.08 196.314 404.512C196.734 404.944 197.262 405.16 197.922 405.16C198.582 405.16 199.134 404.944 199.554 404.524C199.974 404.104 200.178 403.552 200.178 402.868C200.178 402.184 199.962 401.632 199.542 401.2C199.11 400.78 198.57 400.564 197.922 400.564C197.274 400.564 196.746 400.78 196.326 401.2C195.906 401.62 195.69 402.184 195.69 402.868ZM205.149 406H202.365V399.76H204.957C206.697 399.76 207.513 400.204 207.513 401.356C207.513 401.932 207.249 402.388 206.709 402.712C207.381 402.916 207.717 403.408 207.717 404.212C207.717 405.376 206.793 406 205.149 406ZM205.161 403.276H203.373V405.064H205.041C206.109 405.064 206.649 404.764 206.649 404.164C206.649 403.576 206.157 403.276 205.161 403.276ZM204.921 400.696H203.373V402.364H205.269C206.001 402.364 206.445 402.064 206.445 401.5C206.445 400.864 205.929 400.696 204.921 400.696Z" fill="#1A3341" fill-opacity="0.6"/>
</svg>
