<svg width="276" height="852" viewBox="0 0 276 852" fill="none" xmlns="http://www.w3.org/2000/svg">
<path d="M125.333 89C126.254 89 127 89.7462 127 90.6667V111.333C127 112.254 126.254 113 125.333 113H42V89H125.333Z" fill="#CDD3FB"/>
<path d="M139.328 99.712H139.7C140.24 99.712 140.684 99.58 141.056 99.328C141.416 99.076 141.596 98.74 141.596 98.344C141.596 97.444 140.888 96.988 139.484 96.988C138.14 96.988 137.408 97.48 137.408 98.344C137.408 99.124 138.212 99.712 139.328 99.712ZM139.676 100.66H139.376C138.728 100.66 138.188 100.804 137.768 101.08C137.348 101.356 137.132 101.704 137.132 102.124C137.132 103.036 137.972 103.612 139.496 103.612C141.044 103.612 141.872 103.06 141.872 102.136C141.872 101.212 140.984 100.66 139.676 100.66ZM142.04 103.96C141.428 104.392 140.576 104.608 139.508 104.608C138.44 104.608 137.588 104.392 136.964 103.972C136.34 103.552 136.028 102.976 136.028 102.232C136.028 101.26 136.664 100.492 137.684 100.156C136.76 99.856 136.304 99.124 136.304 98.272C136.304 96.88 137.48 95.992 139.496 95.992C141.524 95.992 142.7 96.88 142.7 98.272C142.7 99.076 142.256 99.688 141.368 100.096C142.436 100.42 142.964 101.116 142.964 102.184C142.964 102.94 142.652 103.54 142.04 103.96ZM144.704 104.5C144.26 104.548 143.924 104.296 143.924 103.864C143.924 103.444 144.188 103.18 144.656 103.18C145.184 103.18 145.532 103.54 145.532 104.212C145.532 105.412 144.872 106.024 143.996 106.228L143.744 105.664C144.008 105.592 144.248 105.448 144.464 105.22C144.668 104.992 144.752 104.752 144.704 104.5ZM147.629 100.636L146.765 100.408L147.257 96.1H152.537V97.12H148.181L147.869 99.376C148.289 99.064 148.925 98.908 149.777 98.908C150.761 98.908 151.529 99.172 152.093 99.688C152.645 100.216 152.921 100.888 152.921 101.716C152.921 102.544 152.609 103.24 151.997 103.78C151.373 104.332 150.593 104.608 149.669 104.608C148.097 104.608 146.789 103.864 146.249 102.556L147.209 102.148C147.557 102.952 148.457 103.588 149.669 103.588C151.049 103.588 151.817 102.796 151.817 101.752C151.817 100.636 150.917 99.916 149.489 99.916C148.721 99.916 148.097 100.156 147.629 100.636Z" fill="#1A3341"/>
<path d="M125.333 89C126.254 89 127 89.7462 127 90.6667V111.333C127 112.254 126.254 113 125.333 113H42V89H125.333Z" fill="#CDD3FB"/>
<path opacity="0.2" d="M127 99V103H42V99H127Z" fill="#CDD3FB"/>
<path opacity="0.5" d="M125.333 89C126.254 89 127 89.7462 127 90.6667V99H42V89H125.333Z" fill="#CDD3FB"/>
<path d="M240.333 121C241.254 121 242 121.746 242 122.667V142.333C242 143.254 241.254 144 240.333 144H42V121L240.333 121Z" fill="#CDD3FB"/>
<path d="M251.976 130.872L251.1 130.56C251.4 129.072 252.528 128.004 254.316 128.004C256.044 128.004 257.1 129 257.1 130.524C257.1 131.328 256.752 132.132 256.32 132.708C256.104 133.008 255.828 133.296 255.504 133.596C254.844 134.184 254.376 134.496 253.692 134.928L252.768 135.504H257.412V136.5H250.872V135.684L252.696 134.472C253.02 134.268 253.248 134.112 253.38 134.016C253.512 133.932 253.728 133.776 254.016 133.572C254.304 133.368 254.52 133.188 254.664 133.056C254.796 132.924 254.976 132.756 255.18 132.54C255.732 131.94 255.936 131.388 255.996 130.632C255.996 129.54 255.288 129.048 254.244 129.048C253.596 129.048 253.08 129.228 252.708 129.588C252.336 129.948 252.084 130.38 251.976 130.872ZM258.244 132.3C258.244 131.004 258.544 129.96 259.156 129.18C259.756 128.4 260.644 128.004 261.808 128.004C264.196 128.004 265.384 129.576 265.384 132.3C265.384 133.608 265.084 134.64 264.496 135.42C263.896 136.2 263.008 136.596 261.832 136.596C260.704 136.596 259.828 136.2 259.192 135.408C258.556 134.616 258.244 133.584 258.244 132.3ZM259.348 132.3C259.348 134.352 260.284 135.576 261.832 135.576C263.464 135.576 264.28 134.484 264.28 132.3C264.28 130.116 263.452 129.024 261.808 129.024C260.14 129.024 259.348 130.224 259.348 132.3ZM267.084 136.5C266.64 136.548 266.304 136.296 266.304 135.864C266.304 135.444 266.568 135.18 267.036 135.18C267.564 135.18 267.912 135.54 267.912 136.212C267.912 137.412 267.252 138.024 266.376 138.228L266.124 137.664C266.388 137.592 266.628 137.448 266.844 137.22C267.048 136.992 267.132 136.752 267.084 136.5ZM268.785 132.3C268.785 131.004 269.085 129.96 269.697 129.18C270.297 128.4 271.185 128.004 272.349 128.004C274.737 128.004 275.925 129.576 275.925 132.3C275.925 133.608 275.625 134.64 275.037 135.42C274.437 136.2 273.549 136.596 272.373 136.596C271.245 136.596 270.369 136.2 269.733 135.408C269.097 134.616 268.785 133.584 268.785 132.3ZM269.889 132.3C269.889 134.352 270.825 135.576 272.373 135.576C274.005 135.576 274.821 134.484 274.821 132.3C274.821 130.116 273.993 129.024 272.349 129.024C270.681 129.024 269.889 130.224 269.889 132.3Z" fill="#1A3341"/>
<path d="M240.333 121C241.254 121 242 121.746 242 122.667V142.333C242 143.254 241.254 144 240.333 144H42V121L240.333 121Z" fill="#CDD3FB"/>
<path opacity="0.2" d="M242 131V134H42V131H242Z" fill="#CDD3FB"/>
<path opacity="0.04" d="M242 134V142.333C242 143.254 241.254 144 240.333 144H42V134H242Z" fill="#0D262C"/>
<path opacity="0.5" d="M240.333 121C241.254 121 242 121.746 242 122.667V131H42V121L240.333 121Z" fill="#CDD3FB"/>
<path d="M218.333 182C219.254 182 220 182.746 220 183.667V205.333C220 206.254 219.254 207 218.333 207H42V182H218.333Z" fill="#CDD3FB"/>
<path d="M228.92 191.332L228.536 190.432L231.416 189.052H232.1V197.5H231.068V190.336L228.92 191.332ZM238.442 190.12H233.354V189.1H239.726V189.784L235.55 197.5H234.41L238.442 190.12ZM240.443 197.5C239.999 197.548 239.663 197.296 239.663 196.864C239.663 196.444 239.927 196.18 240.395 196.18C240.923 196.18 241.271 196.54 241.271 197.212C241.271 198.412 240.611 199.024 239.735 199.228L239.483 198.664C239.747 198.592 239.987 198.448 240.203 198.22C240.407 197.992 240.491 197.752 240.443 197.5ZM245.456 192.712H245.828C246.368 192.712 246.812 192.58 247.184 192.328C247.544 192.076 247.724 191.74 247.724 191.344C247.724 190.444 247.016 189.988 245.612 189.988C244.268 189.988 243.536 190.48 243.536 191.344C243.536 192.124 244.34 192.712 245.456 192.712ZM245.804 193.66H245.504C244.856 193.66 244.316 193.804 243.896 194.08C243.476 194.356 243.26 194.704 243.26 195.124C243.26 196.036 244.1 196.612 245.624 196.612C247.172 196.612 248 196.06 248 195.136C248 194.212 247.112 193.66 245.804 193.66ZM248.168 196.96C247.556 197.392 246.704 197.608 245.636 197.608C244.568 197.608 243.716 197.392 243.092 196.972C242.468 196.552 242.156 195.976 242.156 195.232C242.156 194.26 242.792 193.492 243.812 193.156C242.888 192.856 242.432 192.124 242.432 191.272C242.432 189.88 243.608 188.992 245.624 188.992C247.652 188.992 248.828 189.88 248.828 191.272C248.828 192.076 248.384 192.688 247.496 193.096C248.564 193.42 249.092 194.116 249.092 195.184C249.092 195.94 248.78 196.54 248.168 196.96Z" fill="#1A3341"/>
<path d="M218.333 182C219.254 182 220 182.746 220 183.667V205.333C220 206.254 219.254 207 218.333 207H42V182H218.333Z" fill="#CDD3FB"/>
<path opacity="0.2" d="M220 192V197H42V192H220Z" fill="#CDD3FB"/>
<path opacity="0.04" d="M220 197V205.333C220 206.254 219.254 207 218.333 207H42V197H220Z" fill="#0D262C"/>
<path opacity="0.5" d="M218.333 182C219.254 182 220 182.746 220 183.667V192H42V182H218.333Z" fill="#CDD3FB"/>
<path d="M115.333 431C116.254 431 117 431.746 117 432.667V454.333C117 455.254 116.254 456 115.333 456H42V431H115.333Z" fill="#CDD3FB"/>
<path d="M130.828 439.12H125.74V438.1H132.112V438.784L127.936 446.5H126.796L130.828 439.12ZM132.829 446.5C132.385 446.548 132.049 446.296 132.049 445.864C132.049 445.444 132.313 445.18 132.781 445.18C133.309 445.18 133.657 445.54 133.657 446.212C133.657 447.412 132.997 448.024 132.121 448.228L131.869 447.664C132.133 447.592 132.373 447.448 132.589 447.22C132.793 446.992 132.877 446.752 132.829 446.5ZM135.754 442.636L134.89 442.408L135.382 438.1H140.662V439.12H136.306L135.994 441.376C136.414 441.064 137.05 440.908 137.902 440.908C138.886 440.908 139.654 441.172 140.218 441.688C140.77 442.216 141.046 442.888 141.046 443.716C141.046 444.544 140.734 445.24 140.122 445.78C139.498 446.332 138.718 446.608 137.794 446.608C136.222 446.608 134.914 445.864 134.374 444.556L135.334 444.148C135.682 444.952 136.582 445.588 137.794 445.588C139.174 445.588 139.942 444.796 139.942 443.752C139.942 442.636 139.042 441.916 137.614 441.916C136.846 441.916 136.222 442.156 135.754 442.636Z" fill="#1A3341"/>
<path d="M115.333 431C116.254 431 117 431.746 117 432.667V454.333C117 455.254 116.254 456 115.333 456H42V431H115.333Z" fill="#CDD3FB"/>
<path opacity="0.2" d="M117 441V446H42V441H117Z" fill="#CDD3FB"/>
<path opacity="0.04" d="M117 446V454.333C117 455.254 116.254 456 115.333 456H42V446H117Z" fill="#0D262C"/>
<path opacity="0.5" d="M115.333 431C116.254 431 117 431.746 117 432.667V441H42V431H115.333Z" fill="#CDD3FB"/>
<path d="M115.333 463C116.254 463 117 463.746 117 464.667V485.333C117 486.254 116.254 487 115.333 487H42V463H115.333Z" fill="#CDD3FB"/>
<path d="M130.828 471.12H125.74V470.1H132.112V470.784L127.936 478.5H126.796L130.828 471.12ZM132.829 478.5C132.385 478.548 132.049 478.296 132.049 477.864C132.049 477.444 132.313 477.18 132.781 477.18C133.309 477.18 133.657 477.54 133.657 478.212C133.657 479.412 132.997 480.024 132.121 480.228L131.869 479.664C132.133 479.592 132.373 479.448 132.589 479.22C132.793 478.992 132.877 478.752 132.829 478.5ZM135.754 474.636L134.89 474.408L135.382 470.1H140.662V471.12H136.306L135.994 473.376C136.414 473.064 137.05 472.908 137.902 472.908C138.886 472.908 139.654 473.172 140.218 473.688C140.77 474.216 141.046 474.888 141.046 475.716C141.046 476.544 140.734 477.24 140.122 477.78C139.498 478.332 138.718 478.608 137.794 478.608C136.222 478.608 134.914 477.864 134.374 476.556L135.334 476.148C135.682 476.952 136.582 477.588 137.794 477.588C139.174 477.588 139.942 476.796 139.942 475.752C139.942 474.636 139.042 473.916 137.614 473.916C136.846 473.916 136.222 474.156 135.754 474.636Z" fill="#1A3341"/>
<path d="M115.333 463C116.254 463 117 463.746 117 464.667V485.333C117 486.254 116.254 487 115.333 487H42V463H115.333Z" fill="#CDD3FB"/>
<path opacity="0.2" d="M117 473V477H42V473H117Z" fill="#CDD3FB"/>
<path opacity="0.04" d="M117 477V485.333C117 486.254 116.254 487 115.333 487H42V477H117Z" fill="#0D262C"/>
<path opacity="0.5" d="M115.333 463C116.254 463 117 463.746 117 464.667V473H42V463H115.333Z" fill="#CDD3FB"/>
<path d="M115.333 556C116.254 556 117 556.746 117 557.667V578.333C117 579.254 116.254 580 115.333 580H42V556H115.333Z" fill="#CDD3FB"/>
<path d="M130.828 564.12H125.74V563.1H132.112V563.784L127.936 571.5H126.796L130.828 564.12ZM132.829 571.5C132.385 571.548 132.049 571.296 132.049 570.864C132.049 570.444 132.313 570.18 132.781 570.18C133.309 570.18 133.657 570.54 133.657 571.212C133.657 572.412 132.997 573.024 132.121 573.228L131.869 572.664C132.133 572.592 132.373 572.448 132.589 572.22C132.793 571.992 132.877 571.752 132.829 571.5ZM135.754 567.636L134.89 567.408L135.382 563.1H140.662V564.12H136.306L135.994 566.376C136.414 566.064 137.05 565.908 137.902 565.908C138.886 565.908 139.654 566.172 140.218 566.688C140.77 567.216 141.046 567.888 141.046 568.716C141.046 569.544 140.734 570.24 140.122 570.78C139.498 571.332 138.718 571.608 137.794 571.608C136.222 571.608 134.914 570.864 134.374 569.556L135.334 569.148C135.682 569.952 136.582 570.588 137.794 570.588C139.174 570.588 139.942 569.796 139.942 568.752C139.942 567.636 139.042 566.916 137.614 566.916C136.846 566.916 136.222 567.156 135.754 567.636Z" fill="#1A3341"/>
<path d="M115.333 556C116.254 556 117 556.746 117 557.667V578.333C117 579.254 116.254 580 115.333 580H42V556H115.333Z" fill="#CDD3FB"/>
<path opacity="0.2" d="M117 566V570H42V566H117Z" fill="#CDD3FB"/>
<path opacity="0.04" d="M117 570V578.333C117 579.254 116.254 580 115.333 580H42V570H117Z" fill="#0D262C"/>
<path opacity="0.5" d="M115.333 556C116.254 556 117 556.746 117 557.667V566H42V556H115.333Z" fill="#CDD3FB"/>
<path d="M135.333 245C136.254 245 137 245.746 137 246.667V266.333C137 267.254 136.254 268 135.333 268H42V245H135.333Z" fill="#CDD3FB"/>
<path d="M153 256.144C153 257.572 152.664 258.676 151.98 259.444C151.296 260.224 150.384 260.608 149.244 260.608C147.852 260.608 146.76 260.02 146.22 259.12L147.084 258.52C147.564 259.192 148.44 259.576 149.388 259.576C150.168 259.576 150.792 259.264 151.284 258.64C151.776 258.028 151.98 257.26 151.92 256.348C151.524 257.26 150.528 257.932 149.196 257.932C148.26 257.932 147.492 257.668 146.892 257.128C146.28 256.6 145.98 255.904 145.98 255.052C145.98 254.116 146.304 253.372 146.952 252.82C147.6 252.268 148.464 251.992 149.532 251.992C151.692 251.992 153 253.504 153 256.144ZM151.74 255.016C151.56 253.9 150.792 253.024 149.412 253.024C147.972 253.024 147.084 253.768 147.084 255.016C147.084 256.204 147.984 256.9 149.388 256.9C150.024 256.9 150.564 256.708 150.984 256.324C151.404 255.94 151.656 255.508 151.74 255.016ZM154.704 260.5C154.26 260.548 153.924 260.296 153.924 259.864C153.924 259.444 154.188 259.18 154.656 259.18C155.184 259.18 155.532 259.54 155.532 260.212C155.532 261.412 154.872 262.024 153.996 262.228L153.744 261.664C154.008 261.592 154.248 261.448 154.464 261.22C154.668 260.992 154.752 260.752 154.704 260.5ZM157.629 256.636L156.765 256.408L157.257 252.1H162.537V253.12H158.181L157.869 255.376C158.289 255.064 158.925 254.908 159.777 254.908C160.761 254.908 161.529 255.172 162.093 255.688C162.645 256.216 162.921 256.888 162.921 257.716C162.921 258.544 162.609 259.24 161.997 259.78C161.373 260.332 160.593 260.608 159.669 260.608C158.097 260.608 156.789 259.864 156.249 258.556L157.209 258.148C157.557 258.952 158.457 259.588 159.669 259.588C161.049 259.588 161.817 258.796 161.817 257.752C161.817 256.636 160.917 255.916 159.489 255.916C158.721 255.916 158.097 256.156 157.629 256.636Z" fill="#1A3341"/>
<path d="M135.333 245C136.254 245 137 245.746 137 246.667V266.333C137 267.254 136.254 268 135.333 268H42V245H135.333Z" fill="#CDD3FB"/>
<path opacity="0.2" d="M137 255V258H42V255H137Z" fill="#CDD3FB"/>
<path opacity="0.04" d="M137 258V266.333C137 267.254 136.254 268 135.333 268H42V258H137Z" fill="#0D262C"/>
<path opacity="0.5" d="M135.333 245C136.254 245 137 245.746 137 246.667V255H42V245H135.333Z" fill="#CDD3FB"/>
<path d="M120.333 307C121.254 307 122 307.746 122 308.667V329.333C122 330.254 121.254 331 120.333 331H42V307H120.333Z" fill="#CDD3FB"/>
<path d="M134.328 317.712H134.7C135.24 317.712 135.684 317.58 136.056 317.328C136.416 317.076 136.596 316.74 136.596 316.344C136.596 315.444 135.888 314.988 134.484 314.988C133.14 314.988 132.408 315.48 132.408 316.344C132.408 317.124 133.212 317.712 134.328 317.712ZM134.676 318.66H134.376C133.728 318.66 133.188 318.804 132.768 319.08C132.348 319.356 132.132 319.704 132.132 320.124C132.132 321.036 132.972 321.612 134.496 321.612C136.044 321.612 136.872 321.06 136.872 320.136C136.872 319.212 135.984 318.66 134.676 318.66ZM137.04 321.96C136.428 322.392 135.576 322.608 134.508 322.608C133.44 322.608 132.588 322.392 131.964 321.972C131.34 321.552 131.028 320.976 131.028 320.232C131.028 319.26 131.664 318.492 132.684 318.156C131.76 317.856 131.304 317.124 131.304 316.272C131.304 314.88 132.48 313.992 134.496 313.992C136.524 313.992 137.7 314.88 137.7 316.272C137.7 317.076 137.256 317.688 136.368 318.096C137.436 318.42 137.964 319.116 137.964 320.184C137.964 320.94 137.652 321.54 137.04 321.96ZM139.704 322.5C139.26 322.548 138.924 322.296 138.924 321.864C138.924 321.444 139.188 321.18 139.656 321.18C140.184 321.18 140.532 321.54 140.532 322.212C140.532 323.412 139.872 324.024 138.996 324.228L138.744 323.664C139.008 323.592 139.248 323.448 139.464 323.22C139.668 322.992 139.752 322.752 139.704 322.5ZM141.405 318.3C141.405 317.004 141.705 315.96 142.317 315.18C142.917 314.4 143.805 314.004 144.969 314.004C147.357 314.004 148.545 315.576 148.545 318.3C148.545 319.608 148.245 320.64 147.657 321.42C147.057 322.2 146.169 322.596 144.993 322.596C143.865 322.596 142.989 322.2 142.353 321.408C141.717 320.616 141.405 319.584 141.405 318.3ZM142.509 318.3C142.509 320.352 143.445 321.576 144.993 321.576C146.625 321.576 147.441 320.484 147.441 318.3C147.441 316.116 146.613 315.024 144.969 315.024C143.301 315.024 142.509 316.224 142.509 318.3Z" fill="#1A3341"/>
<path d="M120.333 307C121.254 307 122 307.746 122 308.667V329.333C122 330.254 121.254 331 120.333 331H42V307H120.333Z" fill="#CDD3FB"/>
<path opacity="0.2" d="M122 317V321H42V317H122Z" fill="#CDD3FB"/>
<path opacity="0.04" d="M122 321V329.333C122 330.254 121.254 331 120.333 331H42V321H122Z" fill="#0D262C"/>
<path opacity="0.5" d="M120.333 307C121.254 307 122 307.746 122 308.667V317H42V307H120.333Z" fill="#CDD3FB"/>
<path d="M115.333 370C116.254 370 117 370.746 117 371.667V391.333C117 392.254 116.254 393 115.333 393H42V370H115.333Z" fill="#CDD3FB"/>
<path d="M130.828 378.12H125.74V377.1H132.112V377.784L127.936 385.5H126.796L130.828 378.12ZM132.829 385.5C132.385 385.548 132.049 385.296 132.049 384.864C132.049 384.444 132.313 384.18 132.781 384.18C133.309 384.18 133.657 384.54 133.657 385.212C133.657 386.412 132.997 387.024 132.121 387.228L131.869 386.664C132.133 386.592 132.373 386.448 132.589 386.22C132.793 385.992 132.877 385.752 132.829 385.5ZM135.754 381.636L134.89 381.408L135.382 377.1H140.662V378.12H136.306L135.994 380.376C136.414 380.064 137.05 379.908 137.902 379.908C138.886 379.908 139.654 380.172 140.218 380.688C140.77 381.216 141.046 381.888 141.046 382.716C141.046 383.544 140.734 384.24 140.122 384.78C139.498 385.332 138.718 385.608 137.794 385.608C136.222 385.608 134.914 384.864 134.374 383.556L135.334 383.148C135.682 383.952 136.582 384.588 137.794 384.588C139.174 384.588 139.942 383.796 139.942 382.752C139.942 381.636 139.042 380.916 137.614 380.916C136.846 380.916 136.222 381.156 135.754 381.636Z" fill="#1A3341"/>
<path d="M115.333 370C116.254 370 117 370.746 117 371.667V391.333C117 392.254 116.254 393 115.333 393H42V370H115.333Z" fill="#CDD3FB"/>
<path opacity="0.2" d="M117 380V383H42V380H117Z" fill="#CDD3FB"/>
<path opacity="0.04" d="M117 383V391.333C117 392.254 116.254 393 115.333 393H42V383H117Z" fill="#0D262C"/>
<path opacity="0.5" d="M115.333 370C116.254 370 117 370.746 117 371.667V380H42V370H115.333Z" fill="#CDD3FB"/>
<path d="M115.333 618C116.254 618 117 618.746 117 619.667V640.333C117 641.254 116.254 642 115.333 642H42V618H115.333Z" fill="#CDD3FB"/>
<path d="M130.828 626.12H125.74V625.1H132.112V625.784L127.936 633.5H126.796L130.828 626.12ZM132.829 633.5C132.385 633.548 132.049 633.296 132.049 632.864C132.049 632.444 132.313 632.18 132.781 632.18C133.309 632.18 133.657 632.54 133.657 633.212C133.657 634.412 132.997 635.024 132.121 635.228L131.869 634.664C132.133 634.592 132.373 634.448 132.589 634.22C132.793 633.992 132.877 633.752 132.829 633.5ZM135.754 629.636L134.89 629.408L135.382 625.1H140.662V626.12H136.306L135.994 628.376C136.414 628.064 137.05 627.908 137.902 627.908C138.886 627.908 139.654 628.172 140.218 628.688C140.77 629.216 141.046 629.888 141.046 630.716C141.046 631.544 140.734 632.24 140.122 632.78C139.498 633.332 138.718 633.608 137.794 633.608C136.222 633.608 134.914 632.864 134.374 631.556L135.334 631.148C135.682 631.952 136.582 632.588 137.794 632.588C139.174 632.588 139.942 631.796 139.942 630.752C139.942 629.636 139.042 628.916 137.614 628.916C136.846 628.916 136.222 629.156 135.754 629.636Z" fill="#1A3341"/>
<path d="M115.333 618C116.254 618 117 618.746 117 619.667V640.333C117 641.254 116.254 642 115.333 642H42V618H115.333Z" fill="#CDD3FB"/>
<path opacity="0.2" d="M117 628V632H42V628H117Z" fill="#CDD3FB"/>
<path opacity="0.04" d="M117 632V640.333C117 641.254 116.254 642 115.333 642H42V632H117Z" fill="#0D262C"/>
<path opacity="0.5" d="M115.333 618C116.254 618 117 618.746 117 619.667V628H42V618H115.333Z" fill="#CDD3FB"/>
<path d="M160.333 680C161.254 680 162 680.746 162 681.667V702.333C162 703.254 161.254 704 160.333 704H42V680H160.333Z" fill="#CDD3FB"/>
<path d="M170.92 689.332L170.536 688.432L173.416 687.052H174.1V695.5H173.068V688.336L170.92 689.332ZM176.59 689.872L175.714 689.56C176.014 688.072 177.142 687.004 178.93 687.004C180.658 687.004 181.714 688 181.714 689.524C181.714 690.328 181.366 691.132 180.934 691.708C180.718 692.008 180.442 692.296 180.118 692.596C179.458 693.184 178.99 693.496 178.306 693.928L177.382 694.504H182.026V695.5H175.486V694.684L177.31 693.472C177.634 693.268 177.862 693.112 177.994 693.016C178.126 692.932 178.342 692.776 178.63 692.572C178.918 692.368 179.134 692.188 179.278 692.056C179.41 691.924 179.59 691.756 179.794 691.54C180.346 690.94 180.55 690.388 180.61 689.632C180.61 688.54 179.902 688.048 178.858 688.048C178.21 688.048 177.694 688.228 177.322 688.588C176.95 688.948 176.698 689.38 176.59 689.872ZM183.662 695.5C183.218 695.548 182.882 695.296 182.882 694.864C182.882 694.444 183.146 694.18 183.614 694.18C184.142 694.18 184.49 694.54 184.49 695.212C184.49 696.412 183.83 697.024 182.954 697.228L182.702 696.664C182.966 696.592 183.206 696.448 183.422 696.22C183.626 695.992 183.71 695.752 183.662 695.5ZM185.363 691.3C185.363 690.004 185.663 688.96 186.275 688.18C186.875 687.4 187.763 687.004 188.927 687.004C191.315 687.004 192.503 688.576 192.503 691.3C192.503 692.608 192.203 693.64 191.615 694.42C191.015 695.2 190.127 695.596 188.951 695.596C187.823 695.596 186.947 695.2 186.311 694.408C185.675 693.616 185.363 692.584 185.363 691.3ZM186.467 691.3C186.467 693.352 187.403 694.576 188.951 694.576C190.583 694.576 191.399 693.484 191.399 691.3C191.399 689.116 190.571 688.024 188.927 688.024C187.259 688.024 186.467 689.224 186.467 691.3Z" fill="#1A3341"/>
<path d="M160.333 680C161.254 680 162 680.746 162 681.667V702.333C162 703.254 161.254 704 160.333 704H42V680H160.333Z" fill="#CDD3FB"/>
<path opacity="0.2" d="M162 690V694H42V690H162Z" fill="#CDD3FB"/>
<path opacity="0.04" d="M162 694V702.333C162 703.254 161.254 704 160.333 704H42V694H162Z" fill="#0D262C"/>
<path opacity="0.5" d="M160.333 680C161.254 680 162 680.746 162 681.667V690H42V680H160.333Z" fill="#CDD3FB"/>
<path d="M190.333 743C191.254 743 192 743.746 192 744.667V764.333C192 765.254 191.254 766 190.333 766H42V743H190.333Z" fill="#CDD3FB"/>
<path d="M200.92 752.332L200.536 751.432L203.416 750.052H204.1V758.5H203.068V751.336L200.92 752.332ZM206.854 754.636L205.99 754.408L206.482 750.1H211.762V751.12H207.406L207.094 753.376C207.514 753.064 208.15 752.908 209.002 752.908C209.986 752.908 210.754 753.172 211.318 753.688C211.87 754.216 212.146 754.888 212.146 755.716C212.146 756.544 211.834 757.24 211.222 757.78C210.598 758.332 209.818 758.608 208.894 758.608C207.322 758.608 206.014 757.864 205.474 756.556L206.434 756.148C206.782 756.952 207.682 757.588 208.894 757.588C210.274 757.588 211.042 756.796 211.042 755.752C211.042 754.636 210.142 753.916 208.714 753.916C207.946 753.916 207.322 754.156 206.854 754.636ZM213.861 758.5C213.417 758.548 213.081 758.296 213.081 757.864C213.081 757.444 213.345 757.18 213.813 757.18C214.341 757.18 214.689 757.54 214.689 758.212C214.689 759.412 214.029 760.024 213.153 760.228L212.901 759.664C213.165 759.592 213.405 759.448 213.621 759.22C213.825 758.992 213.909 758.752 213.861 758.5ZM215.562 754.3C215.562 753.004 215.862 751.96 216.474 751.18C217.074 750.4 217.962 750.004 219.126 750.004C221.514 750.004 222.702 751.576 222.702 754.3C222.702 755.608 222.402 756.64 221.814 757.42C221.214 758.2 220.326 758.596 219.15 758.596C218.022 758.596 217.146 758.2 216.51 757.408C215.874 756.616 215.562 755.584 215.562 754.3ZM216.666 754.3C216.666 756.352 217.602 757.576 219.15 757.576C220.782 757.576 221.598 756.484 221.598 754.3C221.598 752.116 220.77 751.024 219.126 751.024C217.458 751.024 216.666 752.224 216.666 754.3Z" fill="#1A3341"/>
<path d="M190.333 743C191.254 743 192 743.746 192 744.667V764.333C192 765.254 191.254 766 190.333 766H42V743H190.333Z" fill="#CDD3FB"/>
<path opacity="0.2" d="M192 753V756H42V753H192Z" fill="#CDD3FB"/>
<path opacity="0.04" d="M192 756V764.333C192 765.254 191.254 766 190.333 766H42V756H192Z" fill="#0D262C"/>
<path opacity="0.5" d="M190.333 743C191.254 743 192 743.746 192 744.667V753H42V743H190.333Z" fill="#CDD3FB"/>
<path d="M240.333 152C241.254 152 242 152.746 242 153.667V174.333C242 175.254 241.254 176 240.333 176H42V152H240.333Z" fill="#CDD3FB"/>
<path d="M251.976 161.872L251.1 161.56C251.4 160.072 252.528 159.004 254.316 159.004C256.044 159.004 257.1 160 257.1 161.524C257.1 162.328 256.752 163.132 256.32 163.708C256.104 164.008 255.828 164.296 255.504 164.596C254.844 165.184 254.376 165.496 253.692 165.928L252.768 166.504H257.412V167.5H250.872V166.684L252.696 165.472C253.02 165.268 253.248 165.112 253.38 165.016C253.512 164.932 253.728 164.776 254.016 164.572C254.304 164.368 254.52 164.188 254.664 164.056C254.796 163.924 254.976 163.756 255.18 163.54C255.732 162.94 255.936 162.388 255.996 161.632C255.996 160.54 255.288 160.048 254.244 160.048C253.596 160.048 253.08 160.228 252.708 160.588C252.336 160.948 252.084 161.38 251.976 161.872ZM258.244 163.3C258.244 162.004 258.544 160.96 259.156 160.18C259.756 159.4 260.644 159.004 261.808 159.004C264.196 159.004 265.384 160.576 265.384 163.3C265.384 164.608 265.084 165.64 264.496 166.42C263.896 167.2 263.008 167.596 261.832 167.596C260.704 167.596 259.828 167.2 259.192 166.408C258.556 165.616 258.244 164.584 258.244 163.3ZM259.348 163.3C259.348 165.352 260.284 166.576 261.832 166.576C263.464 166.576 264.28 165.484 264.28 163.3C264.28 161.116 263.452 160.024 261.808 160.024C260.14 160.024 259.348 161.224 259.348 163.3ZM267.084 167.5C266.64 167.548 266.304 167.296 266.304 166.864C266.304 166.444 266.568 166.18 267.036 166.18C267.564 166.18 267.912 166.54 267.912 167.212C267.912 168.412 267.252 169.024 266.376 169.228L266.124 168.664C266.388 168.592 266.628 168.448 266.844 168.22C267.048 167.992 267.132 167.752 267.084 167.5ZM268.785 163.3C268.785 162.004 269.085 160.96 269.697 160.18C270.297 159.4 271.185 159.004 272.349 159.004C274.737 159.004 275.925 160.576 275.925 163.3C275.925 164.608 275.625 165.64 275.037 166.42C274.437 167.2 273.549 167.596 272.373 167.596C271.245 167.596 270.369 167.2 269.733 166.408C269.097 165.616 268.785 164.584 268.785 163.3ZM269.889 163.3C269.889 165.352 270.825 166.576 272.373 166.576C274.005 166.576 274.821 165.484 274.821 163.3C274.821 161.116 273.993 160.024 272.349 160.024C270.681 160.024 269.889 161.224 269.889 163.3Z" fill="#1A3341"/>
<path d="M240.333 152C241.254 152 242 152.746 242 153.667V174.333C242 175.254 241.254 176 240.333 176H42V152H240.333Z" fill="#CDD3FB"/>
<path opacity="0.2" d="M242 162V166H42V162H242Z" fill="#CDD3FB"/>
<path opacity="0.04" d="M242 166V174.333C242 175.254 241.254 176 240.333 176H42V166H242Z" fill="#0D262C"/>
<path opacity="0.5" d="M240.333 152C241.254 152 242 152.746 242 153.667V162H42V152H240.333Z" fill="#CDD3FB"/>
<path d="M150.333 214C151.254 214 152 214.746 152 215.667V236.333C152 237.254 151.254 238 150.333 238H42V214H150.333Z" fill="#CDD3FB"/>
<path d="M160.92 223.332L160.536 222.432L163.416 221.052H164.1V229.5H163.068V222.336L160.92 223.332ZM165.534 223.332L165.15 222.432L168.03 221.052H168.714V229.5H167.682V222.336L165.534 223.332ZM171.049 229.5C170.605 229.548 170.269 229.296 170.269 228.864C170.269 228.444 170.533 228.18 171.001 228.18C171.529 228.18 171.877 228.54 171.877 229.212C171.877 230.412 171.217 231.024 170.341 231.228L170.089 230.664C170.353 230.592 170.593 230.448 170.809 230.22C171.013 229.992 171.097 229.752 171.049 229.5ZM172.75 225.3C172.75 224.004 173.05 222.96 173.662 222.18C174.262 221.4 175.15 221.004 176.314 221.004C178.702 221.004 179.89 222.576 179.89 225.3C179.89 226.608 179.59 227.64 179.002 228.42C178.402 229.2 177.514 229.596 176.338 229.596C175.21 229.596 174.334 229.2 173.698 228.408C173.062 227.616 172.75 226.584 172.75 225.3ZM173.854 225.3C173.854 227.352 174.79 228.576 176.338 228.576C177.97 228.576 178.786 227.484 178.786 225.3C178.786 223.116 177.958 222.024 176.314 222.024C174.646 222.024 173.854 223.224 173.854 225.3Z" fill="#1A3341"/>
<path d="M150.333 214C151.254 214 152 214.746 152 215.667V236.333C152 237.254 151.254 238 150.333 238H42V214H150.333Z" fill="#CDD3FB"/>
<path opacity="0.2" d="M152 224V228H42V224H152Z" fill="#CDD3FB"/>
<path opacity="0.04" d="M152 228V236.333C152 237.254 151.254 238 150.333 238H42V228H152Z" fill="#0D262C"/>
<path opacity="0.5" d="M150.333 214C151.254 214 152 214.746 152 215.667V224H42V214H150.333Z" fill="#CDD3FB"/>
<path d="M120.333 276C121.254 276 122 276.746 122 277.667V299.333C122 300.254 121.254 301 120.333 301H42V276H120.333Z" fill="#CDD3FB"/>
<path d="M134.328 286.712H134.7C135.24 286.712 135.684 286.58 136.056 286.328C136.416 286.076 136.596 285.74 136.596 285.344C136.596 284.444 135.888 283.988 134.484 283.988C133.14 283.988 132.408 284.48 132.408 285.344C132.408 286.124 133.212 286.712 134.328 286.712ZM134.676 287.66H134.376C133.728 287.66 133.188 287.804 132.768 288.08C132.348 288.356 132.132 288.704 132.132 289.124C132.132 290.036 132.972 290.612 134.496 290.612C136.044 290.612 136.872 290.06 136.872 289.136C136.872 288.212 135.984 287.66 134.676 287.66ZM137.04 290.96C136.428 291.392 135.576 291.608 134.508 291.608C133.44 291.608 132.588 291.392 131.964 290.972C131.34 290.552 131.028 289.976 131.028 289.232C131.028 288.26 131.664 287.492 132.684 287.156C131.76 286.856 131.304 286.124 131.304 285.272C131.304 283.88 132.48 282.992 134.496 282.992C136.524 282.992 137.7 283.88 137.7 285.272C137.7 286.076 137.256 286.688 136.368 287.096C137.436 287.42 137.964 288.116 137.964 289.184C137.964 289.94 137.652 290.54 137.04 290.96ZM139.704 291.5C139.26 291.548 138.924 291.296 138.924 290.864C138.924 290.444 139.188 290.18 139.656 290.18C140.184 290.18 140.532 290.54 140.532 291.212C140.532 292.412 139.872 293.024 138.996 293.228L138.744 292.664C139.008 292.592 139.248 292.448 139.464 292.22C139.668 291.992 139.752 291.752 139.704 291.5ZM141.405 287.3C141.405 286.004 141.705 284.96 142.317 284.18C142.917 283.4 143.805 283.004 144.969 283.004C147.357 283.004 148.545 284.576 148.545 287.3C148.545 288.608 148.245 289.64 147.657 290.42C147.057 291.2 146.169 291.596 144.993 291.596C143.865 291.596 142.989 291.2 142.353 290.408C141.717 289.616 141.405 288.584 141.405 287.3ZM142.509 287.3C142.509 289.352 143.445 290.576 144.993 290.576C146.625 290.576 147.441 289.484 147.441 287.3C147.441 285.116 146.613 284.024 144.969 284.024C143.301 284.024 142.509 285.224 142.509 287.3Z" fill="#1A3341"/>
<path d="M120.333 276C121.254 276 122 276.746 122 277.667V299.333C122 300.254 121.254 301 120.333 301H42V276H120.333Z" fill="#CDD3FB"/>
<path opacity="0.2" d="M122 286V291H42V286H122Z" fill="#CDD3FB"/>
<path opacity="0.04" d="M122 291V299.333C122 300.254 121.254 301 120.333 301H42V291H122Z" fill="#0D262C"/>
<path opacity="0.5" d="M120.333 276C121.254 276 122 276.746 122 277.667V286H42V276H120.333Z" fill="#CDD3FB"/>
<path d="M115.333 525C116.254 525 117 525.746 117 526.667V548.333C117 549.254 116.254 550 115.333 550H42V525H115.333Z" fill="#CDD3FB"/>
<path d="M130.828 533.12H125.74V532.1H132.112V532.784L127.936 540.5H126.796L130.828 533.12ZM132.829 540.5C132.385 540.548 132.049 540.296 132.049 539.864C132.049 539.444 132.313 539.18 132.781 539.18C133.309 539.18 133.657 539.54 133.657 540.212C133.657 541.412 132.997 542.024 132.121 542.228L131.869 541.664C132.133 541.592 132.373 541.448 132.589 541.22C132.793 540.992 132.877 540.752 132.829 540.5ZM135.754 536.636L134.89 536.408L135.382 532.1H140.662V533.12H136.306L135.994 535.376C136.414 535.064 137.05 534.908 137.902 534.908C138.886 534.908 139.654 535.172 140.218 535.688C140.77 536.216 141.046 536.888 141.046 537.716C141.046 538.544 140.734 539.24 140.122 539.78C139.498 540.332 138.718 540.608 137.794 540.608C136.222 540.608 134.914 539.864 134.374 538.556L135.334 538.148C135.682 538.952 136.582 539.588 137.794 539.588C139.174 539.588 139.942 538.796 139.942 537.752C139.942 536.636 139.042 535.916 137.614 535.916C136.846 535.916 136.222 536.156 135.754 536.636Z" fill="#1A3341"/>
<path d="M115.333 525C116.254 525 117 525.746 117 526.667V548.333C117 549.254 116.254 550 115.333 550H42V525H115.333Z" fill="#CDD3FB"/>
<path opacity="0.2" d="M117 535V540H42V535H117Z" fill="#CDD3FB"/>
<path opacity="0.04" d="M117 540V548.333C117 549.254 116.254 550 115.333 550H42V540H117Z" fill="#0D262C"/>
<path opacity="0.5" d="M115.333 525C116.254 525 117 525.746 117 526.667V535H42V525H115.333Z" fill="#CDD3FB"/>
<path d="M115.333 588C116.254 588 117 588.746 117 589.667V609.333C117 610.254 116.254 611 115.333 611H42V588H115.333Z" fill="#CDD3FB"/>
<path d="M130.828 596.12H125.74V595.1H132.112V595.784L127.936 603.5H126.796L130.828 596.12ZM132.829 603.5C132.385 603.548 132.049 603.296 132.049 602.864C132.049 602.444 132.313 602.18 132.781 602.18C133.309 602.18 133.657 602.54 133.657 603.212C133.657 604.412 132.997 605.024 132.121 605.228L131.869 604.664C132.133 604.592 132.373 604.448 132.589 604.22C132.793 603.992 132.877 603.752 132.829 603.5ZM135.754 599.636L134.89 599.408L135.382 595.1H140.662V596.12H136.306L135.994 598.376C136.414 598.064 137.05 597.908 137.902 597.908C138.886 597.908 139.654 598.172 140.218 598.688C140.77 599.216 141.046 599.888 141.046 600.716C141.046 601.544 140.734 602.24 140.122 602.78C139.498 603.332 138.718 603.608 137.794 603.608C136.222 603.608 134.914 602.864 134.374 601.556L135.334 601.148C135.682 601.952 136.582 602.588 137.794 602.588C139.174 602.588 139.942 601.796 139.942 600.752C139.942 599.636 139.042 598.916 137.614 598.916C136.846 598.916 136.222 599.156 135.754 599.636Z" fill="#1A3341"/>
<path d="M115.333 588C116.254 588 117 588.746 117 589.667V609.333C117 610.254 116.254 611 115.333 611H42V588H115.333Z" fill="#CDD3FB"/>
<path opacity="0.2" d="M117 598V601H42V598H117Z" fill="#CDD3FB"/>
<path opacity="0.04" d="M117 601V609.333C117 610.254 116.254 611 115.333 611H42V601H117Z" fill="#0D262C"/>
<path opacity="0.5" d="M115.333 588C116.254 588 117 588.746 117 589.667V598H42V588H115.333Z" fill="#CDD3FB"/>
<path d="M125.333 650C126.254 650 127 650.746 127 651.667V672.333C127 673.254 126.254 674 125.333 674H42V650H125.333Z" fill="#CDD3FB"/>
<path d="M139.328 660.712H139.7C140.24 660.712 140.684 660.58 141.056 660.328C141.416 660.076 141.596 659.74 141.596 659.344C141.596 658.444 140.888 657.988 139.484 657.988C138.14 657.988 137.408 658.48 137.408 659.344C137.408 660.124 138.212 660.712 139.328 660.712ZM139.676 661.66H139.376C138.728 661.66 138.188 661.804 137.768 662.08C137.348 662.356 137.132 662.704 137.132 663.124C137.132 664.036 137.972 664.612 139.496 664.612C141.044 664.612 141.872 664.06 141.872 663.136C141.872 662.212 140.984 661.66 139.676 661.66ZM142.04 664.96C141.428 665.392 140.576 665.608 139.508 665.608C138.44 665.608 137.588 665.392 136.964 664.972C136.34 664.552 136.028 663.976 136.028 663.232C136.028 662.26 136.664 661.492 137.684 661.156C136.76 660.856 136.304 660.124 136.304 659.272C136.304 657.88 137.48 656.992 139.496 656.992C141.524 656.992 142.7 657.88 142.7 659.272C142.7 660.076 142.256 660.688 141.368 661.096C142.436 661.42 142.964 662.116 142.964 663.184C142.964 663.94 142.652 664.54 142.04 664.96ZM144.704 665.5C144.26 665.548 143.924 665.296 143.924 664.864C143.924 664.444 144.188 664.18 144.656 664.18C145.184 664.18 145.532 664.54 145.532 665.212C145.532 666.412 144.872 667.024 143.996 667.228L143.744 666.664C144.008 666.592 144.248 666.448 144.464 666.22C144.668 665.992 144.752 665.752 144.704 665.5ZM147.629 661.636L146.765 661.408L147.257 657.1H152.537V658.12H148.181L147.869 660.376C148.289 660.064 148.925 659.908 149.777 659.908C150.761 659.908 151.529 660.172 152.093 660.688C152.645 661.216 152.921 661.888 152.921 662.716C152.921 663.544 152.609 664.24 151.997 664.78C151.373 665.332 150.593 665.608 149.669 665.608C148.097 665.608 146.789 664.864 146.249 663.556L147.209 663.148C147.557 663.952 148.457 664.588 149.669 664.588C151.049 664.588 151.817 663.796 151.817 662.752C151.817 661.636 150.917 660.916 149.489 660.916C148.721 660.916 148.097 661.156 147.629 661.636Z" fill="#1A3341"/>
<path d="M125.333 650C126.254 650 127 650.746 127 651.667V672.333C127 673.254 126.254 674 125.333 674H42V650H125.333Z" fill="#CDD3FB"/>
<path opacity="0.2" d="M127 660V664H42V660H127Z" fill="#CDD3FB"/>
<path opacity="0.04" d="M127 664V672.333C127 673.254 126.254 674 125.333 674H42V664H127Z" fill="#0D262C"/>
<path opacity="0.5" d="M125.333 650C126.254 650 127 650.746 127 651.667V660H42V650H125.333Z" fill="#CDD3FB"/>
<path d="M115.333 338C116.254 338 117 338.746 117 339.667V360.333C117 361.254 116.254 362 115.333 362H42V338H115.333Z" fill="#CDD3FB"/>
<path d="M130.828 346.12H125.74V345.1H132.112V345.784L127.936 353.5H126.796L130.828 346.12ZM132.829 353.5C132.385 353.548 132.049 353.296 132.049 352.864C132.049 352.444 132.313 352.18 132.781 352.18C133.309 352.18 133.657 352.54 133.657 353.212C133.657 354.412 132.997 355.024 132.121 355.228L131.869 354.664C132.133 354.592 132.373 354.448 132.589 354.22C132.793 353.992 132.877 353.752 132.829 353.5ZM135.754 349.636L134.89 349.408L135.382 345.1H140.662V346.12H136.306L135.994 348.376C136.414 348.064 137.05 347.908 137.902 347.908C138.886 347.908 139.654 348.172 140.218 348.688C140.77 349.216 141.046 349.888 141.046 350.716C141.046 351.544 140.734 352.24 140.122 352.78C139.498 353.332 138.718 353.608 137.794 353.608C136.222 353.608 134.914 352.864 134.374 351.556L135.334 351.148C135.682 351.952 136.582 352.588 137.794 352.588C139.174 352.588 139.942 351.796 139.942 350.752C139.942 349.636 139.042 348.916 137.614 348.916C136.846 348.916 136.222 349.156 135.754 349.636Z" fill="#1A3341"/>
<path d="M115.333 338C116.254 338 117 338.746 117 339.667V360.333C117 361.254 116.254 362 115.333 362H42V338H115.333Z" fill="#CDD3FB"/>
<path opacity="0.2" d="M117 348V352H42V348H117Z" fill="#CDD3FB"/>
<path opacity="0.04" d="M117 352V360.333C117 361.254 116.254 362 115.333 362H42V352H117Z" fill="#0D262C"/>
<path opacity="0.5" d="M115.333 338C116.254 338 117 338.746 117 339.667V348H42V338H115.333Z" fill="#CDD3FB"/>
<path d="M115.333 401C116.254 401 117 401.746 117 402.667V423.333C117 424.254 116.254 425 115.333 425H42V401H115.333Z" fill="#CDD3FB"/>
<path d="M130.828 409.12H125.74V408.1H132.112V408.784L127.936 416.5H126.796L130.828 409.12ZM132.829 416.5C132.385 416.548 132.049 416.296 132.049 415.864C132.049 415.444 132.313 415.18 132.781 415.18C133.309 415.18 133.657 415.54 133.657 416.212C133.657 417.412 132.997 418.024 132.121 418.228L131.869 417.664C132.133 417.592 132.373 417.448 132.589 417.22C132.793 416.992 132.877 416.752 132.829 416.5ZM135.754 412.636L134.89 412.408L135.382 408.1H140.662V409.12H136.306L135.994 411.376C136.414 411.064 137.05 410.908 137.902 410.908C138.886 410.908 139.654 411.172 140.218 411.688C140.77 412.216 141.046 412.888 141.046 413.716C141.046 414.544 140.734 415.24 140.122 415.78C139.498 416.332 138.718 416.608 137.794 416.608C136.222 416.608 134.914 415.864 134.374 414.556L135.334 414.148C135.682 414.952 136.582 415.588 137.794 415.588C139.174 415.588 139.942 414.796 139.942 413.752C139.942 412.636 139.042 411.916 137.614 411.916C136.846 411.916 136.222 412.156 135.754 412.636Z" fill="#1A3341"/>
<path d="M115.333 401C116.254 401 117 401.746 117 402.667V423.333C117 424.254 116.254 425 115.333 425H42V401H115.333Z" fill="#CDD3FB"/>
<path opacity="0.2" d="M117 411V415H42V411H117Z" fill="#CDD3FB"/>
<path opacity="0.04" d="M117 415V423.333C117 424.254 116.254 425 115.333 425H42V415H117Z" fill="#0D262C"/>
<path opacity="0.5" d="M115.333 401C116.254 401 117 401.746 117 402.667V411H42V401H115.333Z" fill="#CDD3FB"/>
<path d="M115.333 494C116.254 494 117 494.746 117 495.667V515.333C117 516.254 116.254 517 115.333 517H42V494H115.333Z" fill="#CDD3FB"/>
<path d="M130.828 502.12H125.74V501.1H132.112V501.784L127.936 509.5H126.796L130.828 502.12ZM132.829 509.5C132.385 509.548 132.049 509.296 132.049 508.864C132.049 508.444 132.313 508.18 132.781 508.18C133.309 508.18 133.657 508.54 133.657 509.212C133.657 510.412 132.997 511.024 132.121 511.228L131.869 510.664C132.133 510.592 132.373 510.448 132.589 510.22C132.793 509.992 132.877 509.752 132.829 509.5ZM135.754 505.636L134.89 505.408L135.382 501.1H140.662V502.12H136.306L135.994 504.376C136.414 504.064 137.05 503.908 137.902 503.908C138.886 503.908 139.654 504.172 140.218 504.688C140.77 505.216 141.046 505.888 141.046 506.716C141.046 507.544 140.734 508.24 140.122 508.78C139.498 509.332 138.718 509.608 137.794 509.608C136.222 509.608 134.914 508.864 134.374 507.556L135.334 507.148C135.682 507.952 136.582 508.588 137.794 508.588C139.174 508.588 139.942 507.796 139.942 506.752C139.942 505.636 139.042 504.916 137.614 504.916C136.846 504.916 136.222 505.156 135.754 505.636Z" fill="#1A3341"/>
<path d="M115.333 494C116.254 494 117 494.746 117 495.667V515.333C117 516.254 116.254 517 115.333 517H42V494H115.333Z" fill="#CDD3FB"/>
<path opacity="0.2" d="M117 504V507H42V504H117Z" fill="#CDD3FB"/>
<path opacity="0.04" d="M117 507V515.333C117 516.254 116.254 517 115.333 517H42V507H117Z" fill="#0D262C"/>
<path opacity="0.5" d="M115.333 494C116.254 494 117 494.746 117 495.667V504H42V494H115.333Z" fill="#CDD3FB"/>
<path d="M170.333 712C171.254 712 172 712.746 172 713.667V734.333C172 735.254 171.254 736 170.333 736H42V712H170.333Z" fill="#CDD3FB"/>
<path d="M180.92 721.332L180.536 720.432L183.416 719.052H184.1V727.5H183.068V720.336L180.92 721.332ZM186.458 721.548L185.558 721.14C186.002 719.844 187.166 718.992 188.906 718.992C189.734 718.992 190.418 719.184 190.946 719.568C191.474 719.952 191.738 720.468 191.738 721.104C191.738 722.076 191.222 722.796 190.262 723.072C191.186 723.132 191.93 723.828 191.93 725.076C191.93 725.868 191.642 726.492 191.066 726.936C190.49 727.38 189.758 727.608 188.858 727.608C187.022 727.608 185.75 726.732 185.33 725.352L186.302 724.932C186.818 726.024 187.694 726.576 188.93 726.576C190.094 726.576 190.826 726.036 190.826 725.088C190.826 724.164 190.106 723.696 188.666 723.696H187.73V722.7H188.474C189.782 722.7 190.634 722.112 190.634 721.308C190.634 720.48 189.95 720.012 188.858 720.012C187.574 720.012 186.794 720.672 186.458 721.548ZM193.721 727.5C193.277 727.548 192.941 727.296 192.941 726.864C192.941 726.444 193.205 726.18 193.673 726.18C194.201 726.18 194.549 726.54 194.549 727.212C194.549 728.412 193.889 729.024 193.013 729.228L192.761 728.664C193.025 728.592 193.265 728.448 193.481 728.22C193.685 727.992 193.769 727.752 193.721 727.5ZM195.422 723.3C195.422 722.004 195.722 720.96 196.334 720.18C196.934 719.4 197.822 719.004 198.986 719.004C201.374 719.004 202.562 720.576 202.562 723.3C202.562 724.608 202.262 725.64 201.674 726.42C201.074 727.2 200.186 727.596 199.01 727.596C197.882 727.596 197.006 727.2 196.37 726.408C195.734 725.616 195.422 724.584 195.422 723.3ZM196.526 723.3C196.526 725.352 197.462 726.576 199.01 726.576C200.642 726.576 201.458 725.484 201.458 723.3C201.458 721.116 200.63 720.024 198.986 720.024C197.318 720.024 196.526 721.224 196.526 723.3Z" fill="#1A3341"/>
<path d="M170.333 712C171.254 712 172 712.746 172 713.667V734.333C172 735.254 171.254 736 170.333 736H42V712H170.333Z" fill="#CDD3FB"/>
<path opacity="0.2" d="M172 722V726H42V722H172Z" fill="#CDD3FB"/>
<path opacity="0.04" d="M172 726V734.333C172 735.254 171.254 736 170.333 736H42V726H172Z" fill="#0D262C"/>
<path opacity="0.5" d="M170.333 712C171.254 712 172 712.746 172 713.667V722H42V712H170.333Z" fill="#CDD3FB"/>
<path d="M190.333 774C191.254 774 192 774.746 192 775.667V796.333C192 797.254 191.254 798 190.333 798H42V774H190.333Z" fill="#CDD3FB"/>
<path d="M200.92 783.332L200.536 782.432L203.416 781.052H204.1V789.5H203.068V782.336L200.92 783.332ZM206.854 785.636L205.99 785.408L206.482 781.1H211.762V782.12H207.406L207.094 784.376C207.514 784.064 208.15 783.908 209.002 783.908C209.986 783.908 210.754 784.172 211.318 784.688C211.87 785.216 212.146 785.888 212.146 786.716C212.146 787.544 211.834 788.24 211.222 788.78C210.598 789.332 209.818 789.608 208.894 789.608C207.322 789.608 206.014 788.864 205.474 787.556L206.434 787.148C206.782 787.952 207.682 788.588 208.894 788.588C210.274 788.588 211.042 787.796 211.042 786.752C211.042 785.636 210.142 784.916 208.714 784.916C207.946 784.916 207.322 785.156 206.854 785.636ZM213.861 789.5C213.417 789.548 213.081 789.296 213.081 788.864C213.081 788.444 213.345 788.18 213.813 788.18C214.341 788.18 214.689 788.54 214.689 789.212C214.689 790.412 214.029 791.024 213.153 791.228L212.901 790.664C213.165 790.592 213.405 790.448 213.621 790.22C213.825 789.992 213.909 789.752 213.861 789.5ZM215.562 785.3C215.562 784.004 215.862 782.96 216.474 782.18C217.074 781.4 217.962 781.004 219.126 781.004C221.514 781.004 222.702 782.576 222.702 785.3C222.702 786.608 222.402 787.64 221.814 788.42C221.214 789.2 220.326 789.596 219.15 789.596C218.022 789.596 217.146 789.2 216.51 788.408C215.874 787.616 215.562 786.584 215.562 785.3ZM216.666 785.3C216.666 787.352 217.602 788.576 219.15 788.576C220.782 788.576 221.598 787.484 221.598 785.3C221.598 783.116 220.77 782.024 219.126 782.024C217.458 782.024 216.666 783.224 216.666 785.3Z" fill="#1A3341"/>
<path d="M190.333 774C191.254 774 192 774.746 192 775.667V796.333C192 797.254 191.254 798 190.333 798H42V774H190.333Z" fill="#CDD3FB"/>
<path opacity="0.2" d="M192 784V788H42V784H192Z" fill="#CDD3FB"/>
<path opacity="0.04" d="M192 788V796.333C192 797.254 191.254 798 190.333 798H42V788H192Z" fill="#0D262C"/>
<path opacity="0.5" d="M190.333 774C191.254 774 192 774.746 192 775.667V784H42V774H190.333Z" fill="#CDD3FB"/>
<path d="M200.333 805C201.254 805 202 805.746 202 806.667V827.333C202 828.254 201.254 829 200.333 829H42V805H200.333Z" fill="#CDD3FB"/>
<path d="M210.92 814.332L210.536 813.432L213.416 812.052H214.1V820.5H213.068V813.336L210.92 814.332ZM215.63 816.528C215.63 815.076 215.99 813.96 216.698 813.168C217.406 812.388 218.294 811.992 219.362 811.992C220.766 811.992 221.87 812.628 222.338 813.636L221.522 814.188C221.03 813.408 220.298 813.024 219.314 813.024C218.57 813.024 217.946 813.312 217.442 813.888C216.938 814.476 216.686 815.268 216.698 816.288C217.166 815.412 218.258 814.884 219.458 814.884C220.43 814.884 221.21 815.136 221.774 815.652C222.338 816.168 222.626 816.852 222.626 817.692C222.626 818.544 222.314 819.252 221.678 819.792C221.042 820.332 220.25 820.608 219.302 820.608C217.034 820.608 215.63 819.132 215.63 816.528ZM216.83 817.548C217.058 818.736 217.958 819.576 219.29 819.576C219.938 819.576 220.478 819.408 220.898 819.06C221.318 818.724 221.522 818.28 221.522 817.74C221.522 816.552 220.682 815.916 219.398 815.916C218.69 815.916 218.102 816.084 217.646 816.42C217.178 816.756 216.914 817.128 216.83 817.548ZM224.295 820.5C223.851 820.548 223.515 820.296 223.515 819.864C223.515 819.444 223.779 819.18 224.247 819.18C224.775 819.18 225.123 819.54 225.123 820.212C225.123 821.412 224.463 822.024 223.587 822.228L223.335 821.664C223.599 821.592 223.839 821.448 224.055 821.22C224.259 820.992 224.343 820.752 224.295 820.5ZM225.996 816.3C225.996 815.004 226.296 813.96 226.908 813.18C227.508 812.4 228.396 812.004 229.56 812.004C231.948 812.004 233.136 813.576 233.136 816.3C233.136 817.608 232.836 818.64 232.248 819.42C231.648 820.2 230.76 820.596 229.584 820.596C228.456 820.596 227.58 820.2 226.944 819.408C226.308 818.616 225.996 817.584 225.996 816.3ZM227.1 816.3C227.1 818.352 228.036 819.576 229.584 819.576C231.216 819.576 232.032 818.484 232.032 816.3C232.032 814.116 231.204 813.024 229.56 813.024C227.892 813.024 227.1 814.224 227.1 816.3Z" fill="#1A3341"/>
<path d="M200.333 805C201.254 805 202 805.746 202 806.667V827.333C202 828.254 201.254 829 200.333 829H42V805H200.333Z" fill="#CDD3FB"/>
<path opacity="0.2" d="M202 815V819H42V815H202Z" fill="#CDD3FB"/>
<path opacity="0.04" d="M202 819V827.333C202 828.254 201.254 829 200.333 829H42V819H202Z" fill="#0D262C"/>
<path opacity="0.5" d="M200.333 805C201.254 805 202 805.746 202 806.667V815H42V805H200.333Z" fill="#CDD3FB"/>
<line x1="42.5" y1="80" x2="42.5001" y2="846" stroke="#ABBEC9"/>
<path d="M22.7454 93.8C22.7454 92.504 23.0454 91.46 23.6574 90.68C24.2574 89.9 25.1454 89.504 26.3094 89.504C28.6974 89.504 29.8854 91.076 29.8854 93.8C29.8854 95.108 29.5854 96.14 28.9974 96.92C28.3974 97.7 27.5094 98.096 26.3334 98.096C25.2054 98.096 24.3294 97.7 23.6934 96.908C23.0574 96.116 22.7454 95.084 22.7454 93.8ZM23.8494 93.8C23.8494 95.852 24.7854 97.076 26.3334 97.076C27.9654 97.076 28.7814 95.984 28.7814 93.8C28.7814 91.616 27.9534 90.524 26.3094 90.524C24.6414 90.524 23.8494 91.724 23.8494 93.8ZM30.6856 91.832L30.3016 90.932L33.1816 89.552H33.8656V98H32.8336V90.836L30.6856 91.832ZM6.63678 106.372L5.76078 106.06C6.06078 104.572 7.18878 103.504 8.97678 103.504C10.7048 103.504 11.7608 104.5 11.7608 106.024C11.7608 106.828 11.4128 107.632 10.9808 108.208C10.7648 108.508 10.4888 108.796 10.1648 109.096C9.50478 109.684 9.03678 109.996 8.35278 110.428L7.42878 111.004H12.0728V112H5.53278V111.184L7.35678 109.972C7.68078 109.768 7.90878 109.612 8.04078 109.516C8.17278 109.432 8.38878 109.276 8.67678 109.072C8.96478 108.868 9.18078 108.688 9.32478 108.556C9.45678 108.424 9.63678 108.256 9.84078 108.04C10.3928 107.44 10.5968 106.888 10.6568 106.132C10.6568 105.04 9.94878 104.548 8.90478 104.548C8.25678 104.548 7.74078 104.728 7.36878 105.088C6.99678 105.448 6.74478 105.88 6.63678 106.372ZM12.9044 107.8C12.9044 106.504 13.2044 105.46 13.8164 104.68C14.4164 103.9 15.3044 103.504 16.4684 103.504C18.8564 103.504 20.0444 105.076 20.0444 107.8C20.0444 109.108 19.7444 110.14 19.1564 110.92C18.5564 111.7 17.6684 112.096 16.4924 112.096C15.3644 112.096 14.4884 111.7 13.8524 110.908C13.2164 110.116 12.9044 109.084 12.9044 107.8ZM14.0084 107.8C14.0084 109.852 14.9444 111.076 16.4924 111.076C18.1244 111.076 18.9404 109.984 18.9404 107.8C18.9404 105.616 18.1124 104.524 16.4684 104.524C14.8004 104.524 14.0084 105.724 14.0084 107.8ZM21.9007 106.372L21.0247 106.06C21.3247 104.572 22.4527 103.504 24.2407 103.504C25.9687 103.504 27.0247 104.5 27.0247 106.024C27.0247 106.828 26.6767 107.632 26.2447 108.208C26.0287 108.508 25.7527 108.796 25.4287 109.096C24.7687 109.684 24.3007 109.996 23.6167 110.428L22.6927 111.004H27.3367V112H20.7967V111.184L22.6207 109.972C22.9447 109.768 23.1727 109.612 23.3047 109.516C23.4367 109.432 23.6527 109.276 23.9407 109.072C24.2287 108.868 24.4447 108.688 24.5887 108.556C24.7207 108.424 24.9007 108.256 25.1047 108.04C25.6567 107.44 25.8607 106.888 25.9207 106.132C25.9207 105.04 25.2127 104.548 24.1687 104.548C23.5207 104.548 23.0047 104.728 22.6327 105.088C22.2607 105.448 22.0087 105.88 21.9007 106.372ZM29.1283 106.372L28.2523 106.06C28.5523 104.572 29.6803 103.504 31.4683 103.504C33.1963 103.504 34.2523 104.5 34.2523 106.024C34.2523 106.828 33.9043 107.632 33.4723 108.208C33.2563 108.508 32.9803 108.796 32.6563 109.096C31.9963 109.684 31.5283 109.996 30.8443 110.428L29.9203 111.004H34.5643V112H28.0243V111.184L29.8483 109.972C30.1723 109.768 30.4003 109.612 30.5323 109.516C30.6643 109.432 30.8803 109.276 31.1683 109.072C31.4563 108.868 31.6723 108.688 31.8163 108.556C31.9483 108.424 32.1283 108.256 32.3323 108.04C32.8843 107.44 33.0883 106.888 33.1483 106.132C33.1483 105.04 32.4403 104.548 31.3963 104.548C30.7483 104.548 30.2323 104.728 29.8603 105.088C29.4883 105.448 29.2363 105.88 29.1283 106.372Z" fill="#76848D"/>
<path d="M22.7454 473.8C22.7454 472.504 23.0454 471.46 23.6574 470.68C24.2574 469.9 25.1454 469.504 26.3094 469.504C28.6974 469.504 29.8854 471.076 29.8854 473.8C29.8854 475.108 29.5854 476.14 28.9974 476.92C28.3974 477.7 27.5094 478.096 26.3334 478.096C25.2054 478.096 24.3294 477.7 23.6934 476.908C23.0574 476.116 22.7454 475.084 22.7454 473.8ZM23.8494 473.8C23.8494 475.852 24.7854 477.076 26.3334 477.076C27.9654 477.076 28.7814 475.984 28.7814 473.8C28.7814 471.616 27.9534 470.524 26.3094 470.524C24.6414 470.524 23.8494 471.724 23.8494 473.8ZM30.6856 471.832L30.3016 470.932L33.1816 469.552H33.8656V478H32.8336V470.836L30.6856 471.832ZM6.57819 486.372L5.70219 486.06C6.00219 484.572 7.13019 483.504 8.91819 483.504C10.6462 483.504 11.7022 484.5 11.7022 486.024C11.7022 486.828 11.3542 487.632 10.9222 488.208C10.7062 488.508 10.4302 488.796 10.1062 489.096C9.44619 489.684 8.97819 489.996 8.29419 490.428L7.37019 491.004H12.0142V492H5.47419V491.184L7.29819 489.972C7.62219 489.768 7.85019 489.612 7.98219 489.516C8.11419 489.432 8.33019 489.276 8.61819 489.072C8.90619 488.868 9.12219 488.688 9.26619 488.556C9.39819 488.424 9.57819 488.256 9.78219 488.04C10.3342 487.44 10.5382 486.888 10.5982 486.132C10.5982 485.04 9.89019 484.548 8.84619 484.548C8.19819 484.548 7.68219 484.728 7.31019 485.088C6.93819 485.448 6.68619 485.88 6.57819 486.372ZM12.8458 487.8C12.8458 486.504 13.1458 485.46 13.7578 484.68C14.3578 483.9 15.2458 483.504 16.4098 483.504C18.7978 483.504 19.9858 485.076 19.9858 487.8C19.9858 489.108 19.6858 490.14 19.0978 490.92C18.4978 491.7 17.6098 492.096 16.4338 492.096C15.3058 492.096 14.4298 491.7 13.7938 490.908C13.1578 490.116 12.8458 489.084 12.8458 487.8ZM13.9498 487.8C13.9498 489.852 14.8858 491.076 16.4338 491.076C18.0658 491.076 18.8818 489.984 18.8818 487.8C18.8818 485.616 18.0538 484.524 16.4098 484.524C14.7418 484.524 13.9498 485.724 13.9498 487.8ZM21.8421 486.372L20.9661 486.06C21.2661 484.572 22.3941 483.504 24.1821 483.504C25.9101 483.504 26.9661 484.5 26.9661 486.024C26.9661 486.828 26.6181 487.632 26.1861 488.208C25.9701 488.508 25.6941 488.796 25.3701 489.096C24.7101 489.684 24.2421 489.996 23.5581 490.428L22.6341 491.004H27.2781V492H20.7381V491.184L22.5621 489.972C22.8861 489.768 23.1141 489.612 23.2461 489.516C23.3781 489.432 23.5941 489.276 23.8821 489.072C24.1701 488.868 24.3861 488.688 24.5301 488.556C24.6621 488.424 24.8421 488.256 25.0461 488.04C25.5981 487.44 25.8021 486.888 25.8621 486.132C25.8621 485.04 25.1541 484.548 24.1101 484.548C23.4621 484.548 22.9461 484.728 22.5741 485.088C22.2021 485.448 21.9501 485.88 21.8421 486.372ZM28.9378 486.048L28.0378 485.64C28.4818 484.344 29.6458 483.492 31.3858 483.492C32.2138 483.492 32.8978 483.684 33.4258 484.068C33.9538 484.452 34.2178 484.968 34.2178 485.604C34.2178 486.576 33.7018 487.296 32.7418 487.572C33.6658 487.632 34.4098 488.328 34.4098 489.576C34.4098 490.368 34.1218 490.992 33.5458 491.436C32.9698 491.88 32.2378 492.108 31.3378 492.108C29.5018 492.108 28.2298 491.232 27.8098 489.852L28.7818 489.432C29.2978 490.524 30.1738 491.076 31.4098 491.076C32.5738 491.076 33.3058 490.536 33.3058 489.588C33.3058 488.664 32.5858 488.196 31.1458 488.196H30.2098V487.2H30.9538C32.2618 487.2 33.1138 486.612 33.1138 485.808C33.1138 484.98 32.4298 484.512 31.3378 484.512C30.0538 484.512 29.2738 485.172 28.9378 486.048Z" fill="#76848D"/>
<path d="M20.6243 287.8C20.6243 286.504 20.9243 285.46 21.5363 284.68C22.1363 283.9 23.0243 283.504 24.1883 283.504C26.5763 283.504 27.7643 285.076 27.7643 287.8C27.7643 289.108 27.4643 290.14 26.8763 290.92C26.2763 291.7 25.3883 292.096 24.2123 292.096C23.0843 292.096 22.2083 291.7 21.5723 290.908C20.9363 290.116 20.6243 289.084 20.6243 287.8ZM21.7283 287.8C21.7283 289.852 22.6643 291.076 24.2123 291.076C25.8443 291.076 26.6603 289.984 26.6603 287.8C26.6603 285.616 25.8323 284.524 24.1883 284.524C22.5203 284.524 21.7283 285.724 21.7283 287.8ZM33.4725 284.62H28.3845V283.6H34.7565V284.284L30.5805 292H29.4405L33.4725 284.62Z" fill="#76848D"/>
<path d="M20.6243 661.8C20.6243 660.504 20.9243 659.46 21.5363 658.68C22.1363 657.9 23.0243 657.504 24.1883 657.504C26.5763 657.504 27.7643 659.076 27.7643 661.8C27.7643 663.108 27.4643 664.14 26.8763 664.92C26.2763 665.7 25.3883 666.096 24.2123 666.096C23.0843 666.096 22.2083 665.7 21.5723 664.908C20.9363 664.116 20.6243 663.084 20.6243 661.8ZM21.7283 661.8C21.7283 663.852 22.6643 665.076 24.2123 665.076C25.8443 665.076 26.6603 663.984 26.6603 661.8C26.6603 659.616 25.8323 658.524 24.1883 658.524C22.5203 658.524 21.7283 659.724 21.7283 661.8ZM33.4725 658.62H28.3845V657.6H34.7565V658.284L30.5805 666H29.4405L33.4725 658.62Z" fill="#76848D"/>
<path d="M19.4173 193.8C19.4173 192.504 19.7173 191.46 20.3293 190.68C20.9293 189.9 21.8173 189.504 22.9813 189.504C25.3693 189.504 26.5573 191.076 26.5573 193.8C26.5573 195.108 26.2573 196.14 25.6693 196.92C25.0693 197.7 24.1813 198.096 23.0053 198.096C21.8773 198.096 21.0013 197.7 20.3653 196.908C19.7293 196.116 19.4173 195.084 19.4173 193.8ZM20.5213 193.8C20.5213 195.852 21.4573 197.076 23.0053 197.076C24.6373 197.076 25.4533 195.984 25.4533 193.8C25.4533 191.616 24.6253 190.524 22.9813 190.524C21.3133 190.524 20.5213 191.724 20.5213 193.8ZM33.2495 198H32.2055V196.284H27.0695V195.588L32.3255 189.6H33.2495V195.312H34.8095V196.284H33.2495V198ZM32.2055 191.28L28.5095 195.312H32.2055V191.28Z" fill="#76848D"/>
<path d="M19.4173 567.8C19.4173 566.504 19.7173 565.46 20.3293 564.68C20.9293 563.9 21.8173 563.504 22.9813 563.504C25.3693 563.504 26.5573 565.076 26.5573 567.8C26.5573 569.108 26.2573 570.14 25.6693 570.92C25.0693 571.7 24.1813 572.096 23.0053 572.096C21.8773 572.096 21.0013 571.7 20.3653 570.908C19.7293 570.116 19.4173 569.084 19.4173 567.8ZM20.5213 567.8C20.5213 569.852 21.4573 571.076 23.0053 571.076C24.6373 571.076 25.4533 569.984 25.4533 567.8C25.4533 565.616 24.6253 564.524 22.9813 564.524C21.3133 564.524 20.5213 565.724 20.5213 567.8ZM33.2495 572H32.2055V570.284H27.0695V569.588L32.3255 563.6H33.2495V569.312H34.8095V570.284H33.2495V572ZM32.2055 565.28L28.5095 569.312H32.2055V565.28Z" fill="#76848D"/>
<path d="M22.6494 378.832L22.2654 377.932L25.1454 376.552H25.8294V385H24.7974V377.836L22.6494 378.832ZM27.3598 380.8C27.3598 379.504 27.6598 378.46 28.2718 377.68C28.8718 376.9 29.7598 376.504 30.9238 376.504C33.3118 376.504 34.4998 378.076 34.4998 380.8C34.4998 382.108 34.1998 383.14 33.6118 383.92C33.0117 384.7 32.1238 385.096 30.9478 385.096C29.8198 385.096 28.9438 384.7 28.3078 383.908C27.6718 383.116 27.3598 382.084 27.3598 380.8ZM28.4638 380.8C28.4638 382.852 29.3998 384.076 30.9478 384.076C32.5798 384.076 33.3958 382.984 33.3958 380.8C33.3958 378.616 32.5678 377.524 30.9238 377.524C29.2558 377.524 28.4638 378.724 28.4638 380.8Z" fill="#76848D"/>
<path d="M22.6494 752.832L22.2654 751.932L25.1454 750.552H25.8294V759H24.7974V751.836L22.6494 752.832ZM27.3598 754.8C27.3598 753.504 27.6598 752.46 28.2718 751.68C28.8718 750.9 29.7598 750.504 30.9238 750.504C33.3118 750.504 34.4998 752.076 34.4998 754.8C34.4998 756.108 34.1998 757.14 33.6118 757.92C33.0117 758.7 32.1238 759.096 30.9478 759.096C29.8198 759.096 28.9438 758.7 28.3078 757.908C27.6718 757.116 27.3598 756.084 27.3598 754.8ZM28.4638 754.8C28.4638 756.852 29.3998 758.076 30.9478 758.076C32.5798 758.076 33.3958 756.984 33.3958 754.8C33.3958 752.616 32.5678 751.524 30.9238 751.524C29.2558 751.524 28.4638 752.724 28.4638 754.8Z" fill="#76848D"/>
<path d="M20.1321 131.8C20.1321 130.504 20.4321 129.46 21.0441 128.68C21.6441 127.9 22.5321 127.504 23.6961 127.504C26.0841 127.504 27.2721 129.076 27.2721 131.8C27.2721 133.108 26.9721 134.14 26.3841 134.92C25.7841 135.7 24.8961 136.096 23.7201 136.096C22.5921 136.096 21.7161 135.7 21.0801 134.908C20.4441 134.116 20.1321 133.084 20.1321 131.8ZM21.2361 131.8C21.2361 133.852 22.1721 135.076 23.7201 135.076C25.3521 135.076 26.1681 133.984 26.1681 131.8C26.1681 129.616 25.3401 128.524 23.6961 128.524C22.0281 128.524 21.2361 129.724 21.2361 131.8ZM29.1283 130.372L28.2523 130.06C28.5523 128.572 29.6803 127.504 31.4683 127.504C33.1963 127.504 34.2523 128.5 34.2523 130.024C34.2523 130.828 33.9043 131.632 33.4723 132.208C33.2563 132.508 32.9803 132.796 32.6563 133.096C31.9963 133.684 31.5283 133.996 30.8443 134.428L29.9203 135.004H34.5643V136H28.0243V135.184L29.8483 133.972C30.1723 133.768 30.4003 133.612 30.5323 133.516C30.6643 133.432 30.8803 133.276 31.1683 133.072C31.4563 132.868 31.6723 132.688 31.8163 132.556C31.9483 132.424 32.1283 132.256 32.3323 132.04C32.8843 131.44 33.0883 130.888 33.1483 130.132C33.1483 129.04 32.4403 128.548 31.3963 128.548C30.7483 128.548 30.2323 128.728 29.8603 129.088C29.4883 129.448 29.2363 129.88 29.1283 130.372Z" fill="#76848D"/>
<path d="M20.1321 506.8C20.1321 505.504 20.4321 504.46 21.0441 503.68C21.6441 502.9 22.5321 502.504 23.6961 502.504C26.0841 502.504 27.2721 504.076 27.2721 506.8C27.2721 508.108 26.9721 509.14 26.3841 509.92C25.7841 510.7 24.8961 511.096 23.7201 511.096C22.5921 511.096 21.7161 510.7 21.0801 509.908C20.4441 509.116 20.1321 508.084 20.1321 506.8ZM21.2361 506.8C21.2361 508.852 22.1721 510.076 23.7201 510.076C25.3521 510.076 26.1681 508.984 26.1681 506.8C26.1681 504.616 25.3401 503.524 23.6961 503.524C22.0281 503.524 21.2361 504.724 21.2361 506.8ZM29.1283 505.372L28.2523 505.06C28.5523 503.572 29.6803 502.504 31.4683 502.504C33.1963 502.504 34.2523 503.5 34.2523 505.024C34.2523 505.828 33.9043 506.632 33.4723 507.208C33.2563 507.508 32.9803 507.796 32.6563 508.096C31.9963 508.684 31.5283 508.996 30.8443 509.428L29.9203 510.004H34.5643V511H28.0243V510.184L29.8483 508.972C30.1723 508.768 30.4003 508.612 30.5323 508.516C30.6643 508.432 30.8803 508.276 31.1683 508.072C31.4563 507.868 31.6723 507.688 31.8163 507.556C31.9483 507.424 32.1283 507.256 32.3323 507.04C32.8843 506.44 33.0883 505.888 33.1483 505.132C33.1483 504.04 32.4403 503.548 31.3963 503.548C30.7483 503.548 30.2323 503.728 29.8603 504.088C29.4883 504.448 29.2363 504.88 29.1283 505.372Z" fill="#76848D"/>
<path d="M19.4758 317.8C19.4758 316.504 19.7758 315.46 20.3878 314.68C20.9878 313.9 21.8758 313.504 23.0398 313.504C25.4278 313.504 26.6158 315.076 26.6158 317.8C26.6158 319.108 26.3158 320.14 25.7278 320.92C25.1278 321.7 24.2398 322.096 23.0638 322.096C21.9358 322.096 21.0598 321.7 20.4238 320.908C19.7878 320.116 19.4758 319.084 19.4758 317.8ZM20.5798 317.8C20.5798 319.852 21.5158 321.076 23.0638 321.076C24.6958 321.076 25.5118 319.984 25.5118 317.8C25.5118 315.616 24.6838 314.524 23.0398 314.524C21.3718 314.524 20.5798 315.724 20.5798 317.8ZM30.8241 317.212H31.1961C31.7361 317.212 32.1801 317.08 32.5521 316.828C32.9121 316.576 33.0921 316.24 33.0921 315.844C33.0921 314.944 32.3841 314.488 30.9801 314.488C29.6361 314.488 28.9041 314.98 28.9041 315.844C28.9041 316.624 29.7081 317.212 30.8241 317.212ZM31.1721 318.16H30.8721C30.2241 318.16 29.6841 318.304 29.2641 318.58C28.8441 318.856 28.6281 319.204 28.6281 319.624C28.6281 320.536 29.4681 321.112 30.9921 321.112C32.5401 321.112 33.3681 320.56 33.3681 319.636C33.3681 318.712 32.4801 318.16 31.1721 318.16ZM33.5361 321.46C32.9241 321.892 32.0721 322.108 31.0041 322.108C29.9361 322.108 29.0841 321.892 28.4601 321.472C27.8361 321.052 27.5241 320.476 27.5241 319.732C27.5241 318.76 28.1601 317.992 29.1801 317.656C28.2561 317.356 27.8001 316.624 27.8001 315.772C27.8001 314.38 28.9761 313.492 30.9921 313.492C33.0201 313.492 34.1961 314.38 34.1961 315.772C34.1961 316.576 33.7521 317.188 32.8641 317.596C33.9321 317.92 34.4601 318.616 34.4601 319.684C34.4601 320.44 34.1481 321.04 33.5361 321.46Z" fill="#76848D"/>
<path d="M19.4758 692.8C19.4758 691.504 19.7758 690.46 20.3878 689.68C20.9878 688.9 21.8758 688.504 23.0398 688.504C25.4278 688.504 26.6158 690.076 26.6158 692.8C26.6158 694.108 26.3158 695.14 25.7278 695.92C25.1278 696.7 24.2398 697.096 23.0638 697.096C21.9358 697.096 21.0598 696.7 20.4238 695.908C19.7878 695.116 19.4758 694.084 19.4758 692.8ZM20.5798 692.8C20.5798 694.852 21.5158 696.076 23.0638 696.076C24.6958 696.076 25.5118 694.984 25.5118 692.8C25.5118 690.616 24.6838 689.524 23.0398 689.524C21.3718 689.524 20.5798 690.724 20.5798 692.8ZM30.8241 692.212H31.1961C31.7361 692.212 32.1801 692.08 32.5521 691.828C32.9121 691.576 33.0921 691.24 33.0921 690.844C33.0921 689.944 32.3841 689.488 30.9801 689.488C29.6361 689.488 28.9041 689.98 28.9041 690.844C28.9041 691.624 29.7081 692.212 30.8241 692.212ZM31.1721 693.16H30.8721C30.2241 693.16 29.6841 693.304 29.2641 693.58C28.8441 693.856 28.6281 694.204 28.6281 694.624C28.6281 695.536 29.4681 696.112 30.9921 696.112C32.5401 696.112 33.3681 695.56 33.3681 694.636C33.3681 693.712 32.4801 693.16 31.1721 693.16ZM33.5361 696.46C32.9241 696.892 32.0721 697.108 31.0041 697.108C29.9361 697.108 29.0841 696.892 28.4601 696.472C27.8361 696.052 27.5241 695.476 27.5241 694.732C27.5241 693.76 28.1601 692.992 29.1801 692.656C28.2561 692.356 27.8001 691.624 27.8001 690.772C27.8001 689.38 28.9761 688.492 30.9921 688.492C33.0201 688.492 34.1961 689.38 34.1961 690.772C34.1961 691.576 33.7521 692.188 32.8641 692.596C33.9321 692.92 34.4601 693.616 34.4601 694.684C34.4601 695.44 34.1481 696.04 33.5361 696.46Z" fill="#76848D"/>
<path d="M19.9329 224.8C19.9329 223.504 20.2329 222.46 20.8449 221.68C21.4449 220.9 22.3329 220.504 23.4969 220.504C25.8849 220.504 27.0729 222.076 27.0729 224.8C27.0729 226.108 26.7729 227.14 26.1849 227.92C25.5849 228.7 24.6969 229.096 23.5209 229.096C22.3929 229.096 21.5169 228.7 20.8809 227.908C20.2449 227.116 19.9329 226.084 19.9329 224.8ZM21.0369 224.8C21.0369 226.852 21.9729 228.076 23.5209 228.076C25.1529 228.076 25.9689 226.984 25.9689 224.8C25.9689 222.616 25.1409 221.524 23.4969 221.524C21.8289 221.524 21.0369 222.724 21.0369 224.8ZM29.1931 225.136L28.3291 224.908L28.8211 220.6H34.1011V221.62H29.7451L29.4331 223.876C29.8531 223.564 30.4891 223.408 31.3411 223.408C32.3251 223.408 33.0931 223.672 33.6571 224.188C34.2091 224.716 34.4851 225.388 34.4851 226.216C34.4851 227.044 34.1731 227.74 33.5611 228.28C32.9371 228.832 32.1571 229.108 31.2331 229.108C29.6611 229.108 28.3531 228.364 27.8131 227.056L28.7731 226.648C29.1211 227.452 30.0211 228.088 31.2331 228.088C32.6131 228.088 33.3811 227.296 33.3811 226.252C33.3811 225.136 32.4811 224.416 31.0531 224.416C30.2851 224.416 29.6611 224.656 29.1931 225.136Z" fill="#76848D"/>
<path d="M19.9329 598.8C19.9329 597.504 20.2329 596.46 20.8449 595.68C21.4449 594.9 22.3329 594.504 23.4969 594.504C25.8849 594.504 27.0729 596.076 27.0729 598.8C27.0729 600.108 26.7729 601.14 26.1849 601.92C25.5849 602.7 24.6969 603.096 23.5209 603.096C22.3929 603.096 21.5169 602.7 20.8809 601.908C20.2449 601.116 19.9329 600.084 19.9329 598.8ZM21.0369 598.8C21.0369 600.852 21.9729 602.076 23.5209 602.076C25.1529 602.076 25.9689 600.984 25.9689 598.8C25.9689 596.616 25.1409 595.524 23.4969 595.524C21.8289 595.524 21.0369 596.724 21.0369 598.8ZM29.1931 599.136L28.3291 598.908L28.8211 594.6H34.1011V595.62H29.7451L29.4331 597.876C29.8531 597.564 30.4891 597.408 31.3411 597.408C32.3251 597.408 33.0931 597.672 33.6571 598.188C34.2091 598.716 34.4851 599.388 34.4851 600.216C34.4851 601.044 34.1731 601.74 33.5611 602.28C32.9371 602.832 32.1571 603.108 31.2331 603.108C29.6611 603.108 28.3531 602.364 27.8131 601.056L28.7731 600.648C29.1211 601.452 30.0211 602.088 31.2331 602.088C32.6131 602.088 33.3811 601.296 33.3811 600.252C33.3811 599.136 32.4811 598.416 31.0531 598.416C30.2851 598.416 29.6611 598.656 29.1931 599.136Z" fill="#76848D"/>
<path d="M26.0712 409.832L25.6872 408.932L28.5672 407.552H29.2512V416H28.2192V408.836L26.0712 409.832ZM30.6856 409.832L30.3016 408.932L33.1816 407.552H33.8656V416H32.8336V408.836L30.6856 409.832Z" fill="#76848D"/>
<path d="M26.0712 784.832L25.6872 783.932L28.5672 782.552H29.2512V791H28.2192V783.836L26.0712 784.832ZM30.6856 784.832L30.3016 783.932L33.1816 782.552H33.8656V791H32.8336V783.836L30.6856 784.832Z" fill="#76848D"/>
<path d="M20.0735 162.8C20.0735 161.504 20.3735 160.46 20.9855 159.68C21.5855 158.9 22.4735 158.504 23.6375 158.504C26.0255 158.504 27.2135 160.076 27.2135 162.8C27.2135 164.108 26.9135 165.14 26.3255 165.92C25.7255 166.7 24.8375 167.096 23.6615 167.096C22.5335 167.096 21.6575 166.7 21.0215 165.908C20.3855 165.116 20.0735 164.084 20.0735 162.8ZM21.1775 162.8C21.1775 164.852 22.1135 166.076 23.6615 166.076C25.2935 166.076 26.1095 164.984 26.1095 162.8C26.1095 160.616 25.2815 159.524 23.6375 159.524C21.9695 159.524 21.1775 160.724 21.1775 162.8ZM28.9378 161.048L28.0378 160.64C28.4818 159.344 29.6458 158.492 31.3858 158.492C32.2138 158.492 32.8978 158.684 33.4258 159.068C33.9538 159.452 34.2178 159.968 34.2178 160.604C34.2178 161.576 33.7018 162.296 32.7418 162.572C33.6658 162.632 34.4098 163.328 34.4098 164.576C34.4098 165.368 34.1218 165.992 33.5458 166.436C32.9698 166.88 32.2378 167.108 31.3378 167.108C29.5018 167.108 28.2298 166.232 27.8098 164.852L28.7818 164.432C29.2978 165.524 30.1738 166.076 31.4098 166.076C32.5738 166.076 33.3058 165.536 33.3058 164.588C33.3058 163.664 32.5858 163.196 31.1458 163.196H30.2098V162.2H30.9538C32.2618 162.2 33.1138 161.612 33.1138 160.808C33.1138 159.98 32.4298 159.512 31.3378 159.512C30.0538 159.512 29.2738 160.172 28.9378 161.048Z" fill="#76848D"/>
<path d="M20.0735 537.8C20.0735 536.504 20.3735 535.46 20.9855 534.68C21.5855 533.9 22.4735 533.504 23.6375 533.504C26.0255 533.504 27.2135 535.076 27.2135 537.8C27.2135 539.108 26.9135 540.14 26.3255 540.92C25.7255 541.7 24.8375 542.096 23.6615 542.096C22.5335 542.096 21.6575 541.7 21.0215 540.908C20.3855 540.116 20.0735 539.084 20.0735 537.8ZM21.1775 537.8C21.1775 539.852 22.1135 541.076 23.6615 541.076C25.2935 541.076 26.1095 539.984 26.1095 537.8C26.1095 535.616 25.2815 534.524 23.6375 534.524C21.9695 534.524 21.1775 535.724 21.1775 537.8ZM28.9378 536.048L28.0378 535.64C28.4818 534.344 29.6458 533.492 31.3858 533.492C32.2138 533.492 32.8978 533.684 33.4258 534.068C33.9538 534.452 34.2178 534.968 34.2178 535.604C34.2178 536.576 33.7018 537.296 32.7418 537.572C33.6658 537.632 34.4098 538.328 34.4098 539.576C34.4098 540.368 34.1218 540.992 33.5458 541.436C32.9698 541.88 32.2378 542.108 31.3378 542.108C29.5018 542.108 28.2298 541.232 27.8098 539.852L28.7818 539.432C29.2978 540.524 30.1738 541.076 31.4098 541.076C32.5738 541.076 33.3058 540.536 33.3058 539.588C33.3058 538.664 32.5858 538.196 31.1458 538.196H30.2098V537.2H30.9538C32.2618 537.2 33.1138 536.612 33.1138 535.808C33.1138 534.98 32.4298 534.512 31.3378 534.512C30.0538 534.512 29.2738 535.172 28.9378 536.048Z" fill="#76848D"/>
<path d="M19.4758 349.8C19.4758 348.504 19.7758 347.46 20.3878 346.68C20.9878 345.9 21.8758 345.504 23.0398 345.504C25.4278 345.504 26.6158 347.076 26.6158 349.8C26.6158 351.108 26.3158 352.14 25.7278 352.92C25.1278 353.7 24.2398 354.096 23.0638 354.096C21.9358 354.096 21.0598 353.7 20.4238 352.908C19.7878 352.116 19.4758 351.084 19.4758 349.8ZM20.5798 349.8C20.5798 351.852 21.5158 353.076 23.0638 353.076C24.6958 353.076 25.5118 351.984 25.5118 349.8C25.5118 347.616 24.6838 346.524 23.0398 346.524C21.3718 346.524 20.5798 347.724 20.5798 349.8ZM34.4961 349.644C34.4961 351.072 34.1601 352.176 33.4761 352.944C32.7921 353.724 31.8801 354.108 30.7401 354.108C29.3481 354.108 28.2561 353.52 27.7161 352.62L28.5801 352.02C29.0601 352.692 29.9361 353.076 30.8841 353.076C31.6641 353.076 32.2881 352.764 32.7801 352.14C33.2721 351.528 33.4761 350.76 33.4161 349.848C33.0201 350.76 32.0241 351.432 30.6921 351.432C29.7561 351.432 28.9881 351.168 28.3881 350.628C27.7761 350.1 27.4761 349.404 27.4761 348.552C27.4761 347.616 27.8001 346.872 28.4481 346.32C29.0961 345.768 29.9601 345.492 31.0281 345.492C33.1881 345.492 34.4961 347.004 34.4961 349.644ZM33.2361 348.516C33.0561 347.4 32.2881 346.524 30.9081 346.524C29.4681 346.524 28.5801 347.268 28.5801 348.516C28.5801 349.704 29.4801 350.4 30.8841 350.4C31.5201 350.4 32.0601 350.208 32.4801 349.824C32.9001 349.44 33.1521 349.008 33.2361 348.516Z" fill="#76848D"/>
<path d="M19.4758 723.8C19.4758 722.504 19.7758 721.46 20.3878 720.68C20.9878 719.9 21.8758 719.504 23.0398 719.504C25.4278 719.504 26.6158 721.076 26.6158 723.8C26.6158 725.108 26.3158 726.14 25.7278 726.92C25.1278 727.7 24.2398 728.096 23.0638 728.096C21.9358 728.096 21.0598 727.7 20.4238 726.908C19.7878 726.116 19.4758 725.084 19.4758 723.8ZM20.5798 723.8C20.5798 725.852 21.5158 727.076 23.0638 727.076C24.6958 727.076 25.5118 725.984 25.5118 723.8C25.5118 721.616 24.6838 720.524 23.0398 720.524C21.3718 720.524 20.5798 721.724 20.5798 723.8ZM34.4961 723.644C34.4961 725.072 34.1601 726.176 33.4761 726.944C32.7921 727.724 31.8801 728.108 30.7401 728.108C29.3481 728.108 28.2561 727.52 27.7161 726.62L28.5801 726.02C29.0601 726.692 29.9361 727.076 30.8841 727.076C31.6641 727.076 32.2881 726.764 32.7801 726.14C33.2721 725.528 33.4761 724.76 33.4161 723.848C33.0201 724.76 32.0241 725.432 30.6921 725.432C29.7561 725.432 28.9881 725.168 28.3881 724.628C27.7761 724.1 27.4761 723.404 27.4761 722.552C27.4761 721.616 27.8001 720.872 28.4481 720.32C29.0961 719.768 29.9601 719.492 31.0281 719.492C33.1881 719.492 34.4961 721.004 34.4961 723.644ZM33.2361 722.516C33.0561 721.4 32.2881 720.524 30.9081 720.524C29.4681 720.524 28.5801 721.268 28.5801 722.516C28.5801 723.704 29.4801 724.4 30.8841 724.4C31.5201 724.4 32.0601 724.208 32.4801 723.824C32.9001 723.44 33.1521 723.008 33.2361 722.516Z" fill="#76848D"/>
<path d="M19.4993 256.8C19.4993 255.504 19.7993 254.46 20.4113 253.68C21.0113 252.9 21.8993 252.504 23.0633 252.504C25.4513 252.504 26.6393 254.076 26.6393 256.8C26.6393 258.108 26.3393 259.14 25.7513 259.92C25.1513 260.7 24.2633 261.096 23.0873 261.096C21.9593 261.096 21.0833 260.7 20.4473 259.908C19.8113 259.116 19.4993 258.084 19.4993 256.8ZM20.6033 256.8C20.6033 258.852 21.5393 260.076 23.0873 260.076C24.7193 260.076 25.5353 258.984 25.5353 256.8C25.5353 254.616 24.7073 253.524 23.0633 253.524C21.3953 253.524 20.6033 254.724 20.6033 256.8ZM27.5355 257.028C27.5355 255.576 27.8955 254.46 28.6035 253.668C29.3115 252.888 30.1995 252.492 31.2675 252.492C32.6715 252.492 33.7755 253.128 34.2435 254.136L33.4275 254.688C32.9355 253.908 32.2035 253.524 31.2195 253.524C30.4755 253.524 29.8515 253.812 29.3475 254.388C28.8435 254.976 28.5915 255.768 28.6035 256.788C29.0715 255.912 30.1635 255.384 31.3635 255.384C32.3355 255.384 33.1155 255.636 33.6795 256.152C34.2435 256.668 34.5315 257.352 34.5315 258.192C34.5315 259.044 34.2195 259.752 33.5835 260.292C32.9475 260.832 32.1555 261.108 31.2075 261.108C28.9395 261.108 27.5355 259.632 27.5355 257.028ZM28.7355 258.048C28.9635 259.236 29.8635 260.076 31.1955 260.076C31.8435 260.076 32.3835 259.908 32.8035 259.56C33.2235 259.224 33.4275 258.78 33.4275 258.24C33.4275 257.052 32.5875 256.416 31.3035 256.416C30.5955 256.416 30.0075 256.584 29.5515 256.92C29.0835 257.256 28.8195 257.628 28.7355 258.048Z" fill="#76848D"/>
<path d="M19.4993 630.8C19.4993 629.504 19.7993 628.46 20.4113 627.68C21.0113 626.9 21.8993 626.504 23.0633 626.504C25.4513 626.504 26.6393 628.076 26.6393 630.8C26.6393 632.108 26.3393 633.14 25.7513 633.92C25.1513 634.7 24.2633 635.096 23.0873 635.096C21.9593 635.096 21.0833 634.7 20.4473 633.908C19.8113 633.116 19.4993 632.084 19.4993 630.8ZM20.6033 630.8C20.6033 632.852 21.5393 634.076 23.0873 634.076C24.7193 634.076 25.5353 632.984 25.5353 630.8C25.5353 628.616 24.7073 627.524 23.0633 627.524C21.3953 627.524 20.6033 628.724 20.6033 630.8ZM27.5355 631.028C27.5355 629.576 27.8955 628.46 28.6035 627.668C29.3115 626.888 30.1995 626.492 31.2675 626.492C32.6715 626.492 33.7755 627.128 34.2435 628.136L33.4275 628.688C32.9355 627.908 32.2035 627.524 31.2195 627.524C30.4755 627.524 29.8515 627.812 29.3475 628.388C28.8435 628.976 28.5915 629.768 28.6035 630.788C29.0715 629.912 30.1635 629.384 31.3635 629.384C32.3355 629.384 33.1155 629.636 33.6795 630.152C34.2435 630.668 34.5315 631.352 34.5315 632.192C34.5315 633.044 34.2195 633.752 33.5835 634.292C32.9475 634.832 32.1555 635.108 31.2075 635.108C28.9395 635.108 27.5355 633.632 27.5355 631.028ZM28.7355 632.048C28.9635 633.236 29.8635 634.076 31.1955 634.076C31.8435 634.076 32.3835 633.908 32.8035 633.56C33.2235 633.224 33.4275 632.78 33.4275 632.24C33.4275 631.052 32.5875 630.416 31.3035 630.416C30.5955 630.416 30.0075 630.584 29.5515 630.92C29.0835 631.256 28.8195 631.628 28.7355 632.048Z" fill="#76848D"/>
<path d="M23.458 440.832L23.074 439.932L25.954 438.552H26.638V447H25.606V439.836L23.458 440.832ZM29.1283 441.372L28.2523 441.06C28.5523 439.572 29.6803 438.504 31.4683 438.504C33.1963 438.504 34.2523 439.5 34.2523 441.024C34.2523 441.828 33.9043 442.632 33.4723 443.208C33.2563 443.508 32.9803 443.796 32.6563 444.096C31.9963 444.684 31.5283 444.996 30.8443 445.428L29.9203 446.004H34.5643V447H28.0243V446.184L29.8483 444.972C30.1723 444.768 30.4003 444.612 30.5323 444.516C30.6643 444.432 30.8803 444.276 31.1683 444.072C31.4563 443.868 31.6723 443.688 31.8163 443.556C31.9483 443.424 32.1283 443.256 32.3323 443.04C32.8843 442.44 33.0883 441.888 33.1483 441.132C33.1483 440.04 32.4403 439.548 31.3963 439.548C30.7483 439.548 30.2323 439.728 29.8603 440.088C29.4883 440.448 29.2363 440.88 29.1283 441.372Z" fill="#76848D"/>
<path d="M23.458 814.832L23.074 813.932L25.954 812.552H26.638V821H25.606V813.836L23.458 814.832ZM29.1283 815.372L28.2523 815.06C28.5523 813.572 29.6803 812.504 31.4683 812.504C33.1963 812.504 34.2523 813.5 34.2523 815.024C34.2523 815.828 33.9043 816.632 33.4723 817.208C33.2563 817.508 32.9803 817.796 32.6563 818.096C31.9963 818.684 31.5283 818.996 30.8443 819.428L29.9203 820.004H34.5643V821H28.0243V820.184L29.8483 818.972C30.1723 818.768 30.4003 818.612 30.5323 818.516C30.6643 818.432 30.8803 818.276 31.1683 818.072C31.4563 817.868 31.6723 817.688 31.8163 817.556C31.9483 817.424 32.1283 817.256 32.3323 817.04C32.8843 816.44 33.0883 815.888 33.1483 815.132C33.1483 814.04 32.4403 813.548 31.3963 813.548C30.7483 813.548 30.2323 813.728 29.8603 814.088C29.4883 814.448 29.2363 814.88 29.1283 815.372Z" fill="#76848D"/>
<line x1="81" y1="80" x2="80.9999" y2="829" stroke="#7BC3F8" stroke-width="2"/>
<path d="M131.254 101C127.111 115.86 121.932 129.233 145.755 137.406C169.577 145.579 197.543 153.008 206.865 158.952C216.187 164.896 226.545 167.125 223.438 185.699C220.33 204.274 226.545 197.587 220.33 213.189C214.116 228.792 207.901 242.908 202.722 257.025C197.543 271.142 197.543 277.828 193.4 294.174C189.257 310.519 186.15 319.435 186.15 329.094C186.15 338.752 182.007 354.355 176.828 362.528C171.649 370.7 167.506 383.331 166.47 395.961C165.434 408.592 164.398 418.251 163.363 433.11C162.327 447.97 163.363 461.343 163.363 470.259C163.363 479.175 166.47 503.451 148.862 510.881C131.254 518.311 99.1447 521.524 88.787 525.982C78.4293 530.44 66 534.898 66 557.187C66 579.477 67.7799 590.542 69.1073 598.794C72.2146 618.111 79.465 627.77 83.6081 643.373C87.7512 658.975 95.0016 679.778 98.109 697.61C101.216 715.441 108.467 734.016 112.61 753.333C116.753 772.65 131.321 809.183 136.5 828.5" stroke="#737AF9" stroke-width="3" stroke-linejoin="round"/>
<rect y="2" width="10" height="10" fill="#CDD3FB"/>
<path d="M19.98 11H18.888V2.6H19.98V6.656L24.228 2.6H25.656L21.696 6.404L25.944 11H24.504L20.88 7.124L19.98 7.988V11ZM31.8641 11H30.8561V5.72H28.2161V6.008C28.2161 8.024 27.9881 9.416 27.5321 10.136C27.0761 10.856 26.5121 11.096 25.7321 11V10.04C26.5361 10.04 27.2081 9.692 27.2081 6.044V4.76H31.8641V11ZM34.2188 11H33.2108V4.76H34.2188V7.316H35.4668C35.5868 6.512 35.9348 5.852 36.5108 5.36C37.0748 4.868 37.7828 4.616 38.6228 4.616C39.5708 4.616 40.3388 4.916 40.9388 5.528C41.5268 6.14 41.8268 6.92 41.8268 7.868C41.8268 8.816 41.5268 9.584 40.9268 10.196C40.3268 10.808 39.5588 11.108 38.6228 11.108C37.7468 11.108 37.0268 10.844 36.4508 10.328C35.8748 9.812 35.5388 9.128 35.4548 8.276H34.2188V11ZM36.4988 7.868C36.4988 8.54 36.7028 9.08 37.1108 9.5C37.5068 9.92 38.0228 10.124 38.6348 10.124C39.8828 10.124 40.7588 9.224 40.7588 7.868C40.7588 7.196 40.5668 6.644 40.1708 6.224C39.7748 5.804 39.2588 5.6 38.6348 5.6C38.0228 5.6 37.5188 5.816 37.1108 6.236C36.7028 6.656 36.4988 7.208 36.4988 7.868ZM46.8613 4.76H47.8693V11H46.8613V8.372C46.4053 8.828 45.7693 9.056 44.9533 9.056C43.3093 9.056 42.4933 8.228 42.4933 6.572V4.76H43.5013V6.296C43.5013 7.556 44.0293 8.096 45.1333 8.096C45.8533 8.096 46.5373 7.712 46.8613 7.244V4.76ZM54.0369 9.212L54.6849 9.812C54.1089 10.676 53.2809 11.108 52.1889 11.108C51.1929 11.108 50.3889 10.808 49.7769 10.22C49.1649 9.632 48.8649 8.852 48.8649 7.868C48.8649 6.92 49.1409 6.14 49.7049 5.528C50.2569 4.916 51.0369 4.616 52.0449 4.616C52.8729 4.616 53.5689 4.88 54.1089 5.396C54.6489 5.912 54.9249 6.596 54.9249 7.448C54.9249 7.724 54.9009 7.976 54.8649 8.204H49.9449C50.0049 9.44 50.9169 10.16 52.2249 10.16C52.9569 10.16 53.6529 9.776 54.0369 9.212ZM51.9729 5.54C50.8329 5.54 50.0889 6.236 49.9329 7.292H53.8569C53.7969 6.188 53.0889 5.54 51.9729 5.54ZM58.709 11H55.925V4.76H58.517C60.257 4.76 61.073 5.204 61.073 6.356C61.073 6.932 60.809 7.388 60.269 7.712C60.941 7.916 61.277 8.408 61.277 9.212C61.277 10.376 60.353 11 58.709 11ZM58.721 8.276H56.933V10.064H58.601C59.669 10.064 60.209 9.764 60.209 9.164C60.209 8.576 59.717 8.276 58.721 8.276ZM58.481 5.696H56.933V7.364H58.829C59.561 7.364 60.005 7.064 60.005 6.5C60.005 5.864 59.489 5.696 58.481 5.696ZM62.8123 6.26L62.2963 5.504C62.8723 4.964 63.8683 4.616 64.7923 4.616C66.4603 4.616 67.3483 5.528 67.3483 7.148V11H66.3403V10.076C65.9443 10.652 65.1643 11.084 64.1563 11.084C62.8003 11.084 61.8883 10.328 61.8883 9.176C61.8883 7.868 63.0043 7.244 64.8763 7.244C65.4643 7.244 65.9443 7.304 66.3403 7.424C66.3403 6.212 65.9083 5.564 64.6723 5.564C64.0483 5.564 63.4243 5.792 62.8123 6.26ZM64.3963 10.172C64.8643 10.172 65.2843 10.04 65.6323 9.788C65.9803 9.536 66.2083 9.248 66.3403 8.948V8.312C65.9923 8.192 65.5483 8.132 65.0083 8.132C63.6403 8.132 62.9563 8.468 62.9563 9.14C62.9563 9.776 63.5323 10.172 64.3963 10.172ZM71.1065 4.76H73.6145V11H72.6065V8.792H71.0825L69.2345 11H68.0105L70.0025 8.636C69.0425 8.456 68.4065 7.724 68.4065 6.764C68.4065 5.576 69.2345 4.76 71.1065 4.76ZM69.4745 6.788C69.4745 7.4 70.0505 7.832 70.9625 7.832H72.6065V5.72H70.9865C69.9785 5.72 69.4745 6.08 69.4745 6.788ZM83.2732 9.2L83.9932 9.716C83.5252 10.592 82.4692 11.108 81.4252 11.108C80.4292 11.108 79.6252 10.808 79.0132 10.22C78.4012 9.632 78.0892 8.852 78.0892 7.868C78.0892 6.932 78.3892 6.152 79.0012 5.54C79.6132 4.928 80.3932 4.616 81.3652 4.616C82.4812 4.616 83.4772 5.12 83.8972 5.888L83.1172 6.416C82.6972 5.852 82.1212 5.564 81.3892 5.564C80.7412 5.564 80.2132 5.78 79.7932 6.212C79.3732 6.644 79.1572 7.196 79.1572 7.868C79.1572 8.552 79.3732 9.104 79.8172 9.524C80.2492 9.944 80.8132 10.16 81.5212 10.16C82.2652 10.16 82.8532 9.836 83.2732 9.2ZM86.4656 5.708H84.0776V4.76H89.8856V5.708H87.4736V11H86.4656V5.708ZM90.7826 6.26L90.2666 5.504C90.8426 4.964 91.8386 4.616 92.7626 4.616C94.4306 4.616 95.3186 5.528 95.3186 7.148V11H94.3106V10.076C93.9146 10.652 93.1346 11.084 92.1266 11.084C90.7706 11.084 89.8586 10.328 89.8586 9.176C89.8586 7.868 90.9746 7.244 92.8466 7.244C93.4346 7.244 93.9146 7.304 94.3106 7.424C94.3106 6.212 93.8786 5.564 92.6426 5.564C92.0186 5.564 91.3946 5.792 90.7826 6.26ZM92.3666 10.172C92.8346 10.172 93.2546 10.04 93.6026 9.788C93.9506 9.536 94.1786 9.248 94.3106 8.948V8.312C93.9626 8.192 93.5186 8.132 92.9786 8.132C91.6106 8.132 90.9266 8.468 90.9266 9.14C90.9266 9.776 91.5026 10.172 92.3666 10.172ZM99.3768 11H96.5928V4.76H99.1848C100.925 4.76 101.741 5.204 101.741 6.356C101.741 6.932 101.477 7.388 100.937 7.712C101.609 7.916 101.945 8.408 101.945 9.212C101.945 10.376 101.021 11 99.3768 11ZM99.3888 8.276H97.6008V10.064H99.2688C100.337 10.064 100.877 9.764 100.877 9.164C100.877 8.576 100.385 8.276 99.3888 8.276ZM99.1488 5.696H97.6008V7.364H99.4968C100.229 7.364 100.673 7.064 100.673 6.5C100.673 5.864 100.157 5.696 99.1488 5.696ZM103.961 11H102.953V4.76H103.961V7.556L107.117 4.76H108.473L105.245 7.628L108.629 11H107.285L104.477 8.252L103.961 8.732V11ZM109.559 6.26L109.043 5.504C109.619 4.964 110.615 4.616 111.539 4.616C113.207 4.616 114.095 5.528 114.095 7.148V11H113.087V10.076C112.691 10.652 111.911 11.084 110.903 11.084C109.547 11.084 108.635 10.328 108.635 9.176C108.635 7.868 109.751 7.244 111.623 7.244C112.211 7.244 112.691 7.304 113.087 7.424C113.087 6.212 112.655 5.564 111.419 5.564C110.795 5.564 110.171 5.792 109.559 6.26ZM111.143 10.172C111.611 10.172 112.031 10.04 112.379 9.788C112.727 9.536 112.955 9.248 113.087 8.948V8.312C112.739 8.192 112.295 8.132 111.755 8.132C110.387 8.132 109.703 8.468 109.703 9.14C109.703 9.776 110.279 10.172 111.143 10.172ZM115.957 11C115.513 11.048 115.177 10.796 115.177 10.364C115.177 9.944 115.441 9.68 115.909 9.68C116.437 9.68 116.785 10.04 116.785 10.712C116.785 11.912 116.125 12.524 115.249 12.728L114.997 12.164C115.261 12.092 115.501 11.948 115.717 11.72C115.921 11.492 116.005 11.252 115.957 11ZM122.638 11.18L121.846 10.724L128.05 2.336L128.806 2.888L122.638 11.18ZM120.55 4.616C120.55 4.016 120.754 3.524 121.174 3.14C121.594 2.756 122.11 2.564 122.746 2.564C123.37 2.564 123.886 2.756 124.306 3.14C124.726 3.524 124.93 4.016 124.93 4.616C124.93 5.204 124.726 5.696 124.306 6.08C123.886 6.464 123.37 6.656 122.746 6.656C122.11 6.656 121.594 6.464 121.174 6.08C120.754 5.696 120.55 5.204 120.55 4.616ZM121.558 4.616C121.558 5.3 122.11 5.804 122.746 5.804C123.406 5.804 123.922 5.324 123.922 4.616C123.922 3.908 123.382 3.428 122.746 3.428C122.086 3.428 121.558 3.908 121.558 4.616ZM126.322 10.472C125.902 10.088 125.698 9.596 125.698 8.996C125.698 8.396 125.902 7.904 126.322 7.52C126.742 7.148 127.258 6.956 127.894 6.956C128.518 6.956 129.034 7.148 129.454 7.52C129.874 7.904 130.078 8.396 130.078 8.996C130.078 9.584 129.874 10.076 129.454 10.46C129.034 10.856 128.518 11.048 127.894 11.048C127.258 11.048 126.742 10.856 126.322 10.472ZM126.706 8.996C126.706 9.68 127.258 10.184 127.894 10.184C128.554 10.184 129.07 9.704 129.07 8.996C129.07 8.288 128.53 7.808 127.894 7.808C127.234 7.808 126.706 8.288 126.706 8.996ZM135.69 11H134.682V4.76H139.23V5.708H135.69V11ZM139.3 7.868C139.3 6.92 139.612 6.14 140.224 5.528C140.836 4.916 141.628 4.616 142.6 4.616C143.584 4.616 144.388 4.916 145 5.528C145.612 6.14 145.924 6.92 145.924 7.868C145.924 8.816 145.612 9.584 145 10.196C144.376 10.808 143.572 11.108 142.6 11.108C141.628 11.108 140.836 10.808 140.224 10.196C139.612 9.584 139.3 8.816 139.3 7.868ZM140.368 7.868C140.368 8.528 140.572 9.08 140.992 9.512C141.412 9.944 141.94 10.16 142.6 10.16C143.26 10.16 143.812 9.944 144.232 9.524C144.652 9.104 144.856 8.552 144.856 7.868C144.856 7.184 144.64 6.632 144.22 6.2C143.788 5.78 143.248 5.564 142.6 5.564C141.952 5.564 141.424 5.78 141.004 6.2C140.584 6.62 140.368 7.184 140.368 7.868ZM146.906 12.512H145.946V10.04H146.642C147.278 9.068 147.518 7.7 147.518 5.336V4.76H152.102V10.04H153.002V12.512H152.042V11H146.906V12.512ZM151.094 5.72H148.466V6.152C148.466 7.748 148.214 9.044 147.722 10.04H151.094V5.72ZM153.404 7.868C153.404 6.92 153.716 6.14 154.328 5.528C154.94 4.916 155.732 4.616 156.704 4.616C157.688 4.616 158.492 4.916 159.104 5.528C159.716 6.14 160.028 6.92 160.028 7.868C160.028 8.816 159.716 9.584 159.104 10.196C158.48 10.808 157.676 11.108 156.704 11.108C155.732 11.108 154.94 10.808 154.328 10.196C153.716 9.584 153.404 8.816 153.404 7.868ZM154.472 7.868C154.472 8.528 154.676 9.08 155.096 9.512C155.516 9.944 156.044 10.16 156.704 10.16C157.364 10.16 157.916 9.944 158.336 9.524C158.756 9.104 158.96 8.552 158.96 7.868C158.96 7.184 158.744 6.632 158.324 6.2C157.892 5.78 157.352 5.564 156.704 5.564C156.056 5.564 155.528 5.78 155.108 6.2C154.688 6.62 154.472 7.184 154.472 7.868ZM163.811 11H161.027V4.76H163.619C165.359 4.76 166.175 5.204 166.175 6.356C166.175 6.932 165.911 7.388 165.371 7.712C166.043 7.916 166.379 8.408 166.379 9.212C166.379 10.376 165.455 11 163.811 11ZM163.823 8.276H162.035V10.064H163.703C164.771 10.064 165.311 9.764 165.311 9.164C165.311 8.576 164.819 8.276 163.823 8.276ZM163.583 5.696H162.035V7.364H163.931C164.663 7.364 165.107 7.064 165.107 6.5C165.107 5.864 164.591 5.696 163.583 5.696ZM169.643 11H167.387V4.76H168.395V6.704H169.739C171.575 6.704 172.307 7.556 172.307 8.84C172.307 10.1 171.503 11 169.643 11ZM169.631 7.664H168.395V10.04H169.619C170.771 10.04 171.239 9.632 171.239 8.852C171.239 8.06 170.699 7.664 169.631 7.664ZM174.215 11H173.195V4.76H174.215V11ZM179.86 4.76H181.084L178.696 7.772L181.204 11H179.944L178.012 8.492L176.056 11H174.856L177.352 7.784L174.988 4.76H176.248L178.048 7.052L179.86 4.76Z" fill="#76848D"/>
<rect y="26" width="10" height="10" fill="#737AF9"/>
<path d="M24.912 28.496L19.812 35H18.888V26.6H19.98V33.104L25.068 26.6H26.004V35H24.912V28.496ZM33.1343 35H32.1263V32.3H28.5263V35H27.5183V28.76H28.5263V31.352H32.1263V28.76H33.1343V35ZM38.5324 37.4H37.5244V35.12H37.4524C36.4084 35.12 35.5924 34.82 35.0044 34.22C34.4044 33.62 34.1044 32.84 34.1044 31.892C34.1044 30.992 34.4044 30.236 35.0044 29.6C35.6044 28.964 36.4204 28.652 37.4404 28.652H37.5244V26.24H38.5324V28.652H38.6284C39.6244 28.652 40.4404 28.952 41.0524 29.564C41.6644 30.176 41.9644 30.956 41.9644 31.892C41.9644 32.84 41.6644 33.62 41.0764 34.22C40.4764 34.82 39.6484 35.12 38.6044 35.12H38.5324V37.4ZM35.1724 31.892C35.1724 33.284 35.9764 34.16 37.4524 34.16H37.5244V29.612H37.4404C35.9884 29.612 35.1724 30.536 35.1724 31.892ZM38.6044 29.612H38.5324V34.16H38.6044C40.1044 34.16 40.8964 33.296 40.8964 31.892C40.8964 30.56 40.0564 29.612 38.6044 29.612ZM48.2179 35H47.2099V29.72H44.5699V30.008C44.5699 32.024 44.3419 33.416 43.8859 34.136C43.4299 34.856 42.8659 35.096 42.0859 35V34.04C42.8899 34.04 43.5619 33.692 43.5619 30.044V28.76H48.2179V35ZM52.0485 28.76H54.5565V35H53.5485V32.792H52.0245L50.1765 35H48.9525L50.9445 32.636C49.9845 32.456 49.3485 31.724 49.3485 30.764C49.3485 29.576 50.1765 28.76 52.0485 28.76ZM50.4165 30.788C50.4165 31.4 50.9925 31.832 51.9045 31.832H53.5485V29.72H51.9285C50.9205 29.72 50.4165 30.08 50.4165 30.788ZM61.3375 35H55.9015V28.76H56.9095V34.04H60.4015V28.76H61.4095V34.04H62.2855V36.512H61.3375V35ZM67.7752 30.332L63.9712 35H63.0472V28.76H64.0552V33.44L67.8472 28.76H68.7832V35H67.7752V30.332ZM72.6065 28.76H75.1145V35H74.1065V32.792H72.5825L70.7345 35H69.5105L71.5025 32.636C70.5425 32.456 69.9065 31.724 69.9065 30.764C69.9065 29.576 70.7345 28.76 72.6065 28.76ZM70.9745 30.788C70.9745 31.4 71.5505 31.832 72.4625 31.832H74.1065V29.72H72.4865C71.4785 29.72 70.9745 30.08 70.9745 30.788ZM77.0475 35C76.6035 35.048 76.2675 34.796 76.2675 34.364C76.2675 33.944 76.5315 33.68 76.9995 33.68C77.5275 33.68 77.8755 34.04 77.8755 34.712C77.8755 35.912 77.2155 36.524 76.3395 36.728L76.0875 36.164C76.3515 36.092 76.5915 35.948 76.8075 35.72C77.0115 35.492 77.0955 35.252 77.0475 35ZM83.7282 35.18L82.9362 34.724L89.1402 26.336L89.8962 26.888L83.7282 35.18ZM81.6402 28.616C81.6402 28.016 81.8442 27.524 82.2642 27.14C82.6842 26.756 83.2002 26.564 83.8362 26.564C84.4602 26.564 84.9762 26.756 85.3962 27.14C85.8162 27.524 86.0202 28.016 86.0202 28.616C86.0202 29.204 85.8162 29.696 85.3962 30.08C84.9762 30.464 84.4602 30.656 83.8362 30.656C83.2002 30.656 82.6842 30.464 82.2642 30.08C81.8442 29.696 81.6402 29.204 81.6402 28.616ZM82.6482 28.616C82.6482 29.3 83.2002 29.804 83.8362 29.804C84.4962 29.804 85.0122 29.324 85.0122 28.616C85.0122 27.908 84.4722 27.428 83.8362 27.428C83.1762 27.428 82.6482 27.908 82.6482 28.616ZM87.4122 34.472C86.9922 34.088 86.7882 33.596 86.7882 32.996C86.7882 32.396 86.9922 31.904 87.4122 31.52C87.8322 31.148 88.3482 30.956 88.9842 30.956C89.6082 30.956 90.1242 31.148 90.5442 31.52C90.9642 31.904 91.1682 32.396 91.1682 32.996C91.1682 33.584 90.9642 34.076 90.5442 34.46C90.1242 34.856 89.6082 35.048 88.9842 35.048C88.3482 35.048 87.8322 34.856 87.4122 34.472ZM87.7962 32.996C87.7962 33.68 88.3482 34.184 88.9842 34.184C89.6442 34.184 90.1602 33.704 90.1602 32.996C90.1602 32.288 89.6202 31.808 88.9842 31.808C88.3242 31.808 87.7962 32.288 87.7962 32.996ZM96.7805 35H95.7725V28.76H100.32V29.708H96.7805V35ZM100.709 37.46L99.8211 37.124L103.805 26.444L104.693 26.732L100.709 37.46ZM105.904 35H104.896V28.76H109.444V29.708H105.904V35Z" fill="#76848D"/>
<rect y="50" width="10" height="10" fill="#7BC3F8"/>
<path d="M25.776 59H18.888V50.6H19.98V57.98H24.66V50.6H25.752V57.98H26.82V60.536H25.776V59ZM32.0727 57.212L32.7207 57.812C32.1447 58.676 31.3167 59.108 30.2247 59.108C29.2287 59.108 28.4247 58.808 27.8127 58.22C27.2007 57.632 26.9007 56.852 26.9007 55.868C26.9007 54.92 27.1767 54.14 27.7407 53.528C28.2927 52.916 29.0727 52.616 30.0807 52.616C30.9087 52.616 31.6047 52.88 32.1447 53.396C32.6847 53.912 32.9607 54.596 32.9607 55.448C32.9607 55.724 32.9367 55.976 32.9007 56.204H27.9807C28.0407 57.44 28.9527 58.16 30.2607 58.16C30.9927 58.16 31.6887 57.776 32.0727 57.212ZM30.0087 53.54C28.8687 53.54 28.1247 54.236 27.9687 55.292H31.8927C31.8327 54.188 31.1247 53.54 30.0087 53.54ZM39.2441 59H38.2361V53.72H35.5961V54.008C35.5961 56.024 35.3681 57.416 34.9121 58.136C34.4561 58.856 33.8921 59.096 33.1121 59V58.04C33.9161 58.04 34.5881 57.692 34.5881 54.044V52.76H39.2441V59ZM43.1107 59H40.5907V52.76H41.5987V54.704H43.2067C44.9107 54.704 45.7627 55.412 45.7627 56.84C45.7627 58.1 44.9707 59 43.1107 59ZM43.0747 55.664H41.5987V58.04H43.0747C44.2267 58.04 44.6947 57.632 44.6947 56.852C44.6947 56.06 44.1547 55.664 43.0747 55.664ZM55.6799 59H54.6719V53.708H51.1439V59H50.1359V52.76H55.6799V59ZM56.6757 55.868C56.6757 54.92 56.9877 54.14 57.5997 53.528C58.2117 52.916 59.0037 52.616 59.9757 52.616C60.9597 52.616 61.7637 52.916 62.3757 53.528C62.9877 54.14 63.2997 54.92 63.2997 55.868C63.2997 56.816 62.9877 57.584 62.3757 58.196C61.7517 58.808 60.9477 59.108 59.9757 59.108C59.0037 59.108 58.2117 58.808 57.5997 58.196C56.9877 57.584 56.6757 56.816 56.6757 55.868ZM57.7437 55.868C57.7437 56.528 57.9477 57.08 58.3677 57.512C58.7877 57.944 59.3157 58.16 59.9757 58.16C60.6357 58.16 61.1877 57.944 61.6077 57.524C62.0277 57.104 62.2317 56.552 62.2317 55.868C62.2317 55.184 62.0157 54.632 61.5957 54.2C61.1637 53.78 60.6237 53.564 59.9757 53.564C59.3277 53.564 58.7997 53.78 58.3797 54.2C57.9597 54.62 57.7437 55.184 57.7437 55.868ZM72.5039 54.332L68.6999 59H67.7759V52.76H68.7839V57.44L72.5759 52.76H73.5119V59H72.5039V54.332ZM80.4672 59H79.4592V56.3H75.8592V59H74.8512V52.76H75.8592V55.352H79.4592V52.76H80.4672V59ZM85.8653 61.4H84.8573V59.12H84.7853C83.7413 59.12 82.9253 58.82 82.3373 58.22C81.7373 57.62 81.4373 56.84 81.4373 55.892C81.4373 54.992 81.7373 54.236 82.3373 53.6C82.9373 52.964 83.7533 52.652 84.7733 52.652H84.8573V50.24H85.8653V52.652H85.9613C86.9573 52.652 87.7733 52.952 88.3853 53.564C88.9973 54.176 89.2973 54.956 89.2973 55.892C89.2973 56.84 88.9973 57.62 88.4093 58.22C87.8093 58.82 86.9813 59.12 85.9373 59.12H85.8653V61.4ZM82.5053 55.892C82.5053 57.284 83.3093 58.16 84.7853 58.16H84.8573V53.612H84.7733C83.3213 53.612 82.5053 54.536 82.5053 55.892ZM85.9373 53.612H85.8653V58.16H85.9373C87.4373 58.16 88.2293 57.296 88.2293 55.892C88.2293 54.56 87.3893 53.612 85.9373 53.612ZM95.5508 59H94.5428V53.72H91.9028V54.008C91.9028 56.024 91.6748 57.416 91.2188 58.136C90.7628 58.856 90.1988 59.096 89.4188 59V58.04C90.2228 58.04 90.8948 57.692 90.8948 54.044V52.76H95.5508V59ZM99.3815 52.76H101.889V59H100.881V56.792H99.3575L97.5095 59H96.2855L98.2775 56.636C97.3175 56.456 96.6815 55.724 96.6815 54.764C96.6815 53.576 97.5095 52.76 99.3815 52.76ZM97.7495 54.788C97.7495 55.4 98.3255 55.832 99.2375 55.832H100.881V53.72H99.2615C98.2535 53.72 97.7495 54.08 97.7495 54.788ZM108.671 59H103.235V52.76H104.243V58.04H107.735V52.76H108.743V58.04H109.619V60.512H108.671V59ZM115.108 54.332L111.304 59H110.38V52.76H111.388V57.44L115.18 52.76H116.116V59H115.108V54.332ZM122.183 54.332L118.379 59H117.455V52.76H118.463V57.44L122.255 52.76H123.191V59H122.183V54.332Z" fill="#76848D"/>
<path d="M135.328 837.62H130.24V836.6H136.612V837.284L132.436 845H131.296L135.328 837.62ZM137.329 845C136.885 845.048 136.549 844.796 136.549 844.364C136.549 843.944 136.813 843.68 137.281 843.68C137.809 843.68 138.157 844.04 138.157 844.712C138.157 845.912 137.497 846.524 136.621 846.728L136.369 846.164C136.633 846.092 136.873 845.948 137.089 845.72C137.293 845.492 137.377 845.252 137.329 845ZM144.826 845H143.782V843.284H138.646V842.588L143.902 836.6H144.826V842.312H146.386V843.284H144.826V845ZM143.782 838.28L140.086 842.312H143.782V838.28ZM149.06 845.18L148.268 844.724L154.472 836.336L155.228 836.888L149.06 845.18ZM146.972 838.616C146.972 838.016 147.176 837.524 147.596 837.14C148.016 836.756 148.532 836.564 149.168 836.564C149.792 836.564 150.308 836.756 150.728 837.14C151.148 837.524 151.352 838.016 151.352 838.616C151.352 839.204 151.148 839.696 150.728 840.08C150.308 840.464 149.792 840.656 149.168 840.656C148.532 840.656 148.016 840.464 147.596 840.08C147.176 839.696 146.972 839.204 146.972 838.616ZM147.98 838.616C147.98 839.3 148.532 839.804 149.168 839.804C149.828 839.804 150.344 839.324 150.344 838.616C150.344 837.908 149.804 837.428 149.168 837.428C148.508 837.428 147.98 837.908 147.98 838.616ZM152.744 844.472C152.324 844.088 152.12 843.596 152.12 842.996C152.12 842.396 152.324 841.904 152.744 841.52C153.164 841.148 153.68 840.956 154.316 840.956C154.94 840.956 155.456 841.148 155.876 841.52C156.296 841.904 156.5 842.396 156.5 842.996C156.5 843.584 156.296 844.076 155.876 844.46C155.456 844.856 154.94 845.048 154.316 845.048C153.68 845.048 153.164 844.856 152.744 844.472ZM153.128 842.996C153.128 843.68 153.68 844.184 154.316 844.184C154.976 844.184 155.492 843.704 155.492 842.996C155.492 842.288 154.952 841.808 154.316 841.808C153.656 841.808 153.128 842.288 153.128 842.996Z" fill="#1A3341"/>
<path d="M72.312 845H71.268V843.284H66.132V842.588L71.388 836.6H72.312V842.312H73.872V843.284H72.312V845ZM71.268 838.28L67.572 842.312H71.268V838.28ZM75.2625 845C74.8185 845.048 74.4825 844.796 74.4825 844.364C74.4825 843.944 74.7465 843.68 75.2145 843.68C75.7425 843.68 76.0905 844.04 76.0905 844.712C76.0905 845.912 75.4305 846.524 74.5545 846.728L74.3025 846.164C74.5665 846.092 74.8065 845.948 75.0225 845.72C75.2265 845.492 75.3105 845.252 75.2625 845ZM76.9635 840.8C76.9635 839.504 77.2635 838.46 77.8755 837.68C78.4755 836.9 79.3635 836.504 80.5275 836.504C82.9155 836.504 84.1035 838.076 84.1035 840.8C84.1035 842.108 83.8035 843.14 83.2155 843.92C82.6155 844.7 81.7275 845.096 80.5515 845.096C79.4235 845.096 78.5475 844.7 77.9115 843.908C77.2755 843.116 76.9635 842.084 76.9635 840.8ZM78.0675 840.8C78.0675 842.852 79.0035 844.076 80.5515 844.076C82.1835 844.076 82.9995 842.984 82.9995 840.8C82.9995 838.616 82.1715 837.524 80.5275 837.524C78.8595 837.524 78.0675 838.724 78.0675 840.8ZM87.0877 845.18L86.2957 844.724L92.4997 836.336L93.2557 836.888L87.0877 845.18ZM84.9997 838.616C84.9997 838.016 85.2037 837.524 85.6237 837.14C86.0437 836.756 86.5597 836.564 87.1957 836.564C87.8197 836.564 88.3357 836.756 88.7557 837.14C89.1757 837.524 89.3797 838.016 89.3797 838.616C89.3797 839.204 89.1757 839.696 88.7557 840.08C88.3357 840.464 87.8197 840.656 87.1957 840.656C86.5597 840.656 86.0437 840.464 85.6237 840.08C85.2037 839.696 84.9997 839.204 84.9997 838.616ZM86.0077 838.616C86.0077 839.3 86.5597 839.804 87.1957 839.804C87.8557 839.804 88.3717 839.324 88.3717 838.616C88.3717 837.908 87.8317 837.428 87.1957 837.428C86.5357 837.428 86.0077 837.908 86.0077 838.616ZM90.7717 844.472C90.3517 844.088 90.1477 843.596 90.1477 842.996C90.1477 842.396 90.3517 841.904 90.7717 841.52C91.1917 841.148 91.7078 840.956 92.3437 840.956C92.9677 840.956 93.4838 841.148 93.9037 841.52C94.3238 841.904 94.5277 842.396 94.5277 842.996C94.5277 843.584 94.3238 844.076 93.9037 844.46C93.4838 844.856 92.9677 845.048 92.3437 845.048C91.7078 845.048 91.1917 844.856 90.7717 844.472ZM91.1558 842.996C91.1558 843.68 91.7078 844.184 92.3437 844.184C93.0037 844.184 93.5197 843.704 93.5197 842.996C93.5197 842.288 92.9797 841.808 92.3437 841.808C91.6837 841.808 91.1558 842.288 91.1558 842.996Z" fill="#1A3341"/>
</svg>
