<svg width="335" height="522" viewBox="0 0 335 522" fill="none" xmlns="http://www.w3.org/2000/svg">
<rect y="2" width="10" height="10" fill="url(#paint0_linear_4001_19849)"/>
<path d="M19.98 7.904V11H18.888V2.6H22.152C24.444 2.6 25.596 3.476 25.596 5.24C25.596 5.996 25.32 6.632 24.768 7.136C24.204 7.652 23.328 7.904 22.14 7.904H19.98ZM22.2 3.62H19.98V6.896H22.116C23.7 6.896 24.468 6.272 24.468 5.228C24.468 4.16 23.712 3.62 22.2 3.62ZM25.5999 7.868C25.5999 6.92 25.9119 6.14 26.5239 5.528C27.1359 4.916 27.9279 4.616 28.8999 4.616C29.8839 4.616 30.6879 4.916 31.2999 5.528C31.9119 6.14 32.2239 6.92 32.2239 7.868C32.2239 8.816 31.9119 9.584 31.2999 10.196C30.6759 10.808 29.8719 11.108 28.8999 11.108C27.9279 11.108 27.1359 10.808 26.5239 10.196C25.9119 9.584 25.5999 8.816 25.5999 7.868ZM26.6679 7.868C26.6679 8.528 26.8719 9.08 27.2919 9.512C27.7119 9.944 28.2399 10.16 28.8999 10.16C29.5599 10.16 30.1119 9.944 30.5319 9.524C30.9519 9.104 31.1559 8.552 31.1559 7.868C31.1559 7.184 30.9399 6.632 30.5199 6.2C30.0879 5.78 29.5479 5.564 28.8999 5.564C28.2519 5.564 27.7239 5.78 27.3039 6.2C26.8839 6.62 26.6679 7.184 26.6679 7.868ZM38.0585 9.2L38.7785 9.716C38.3105 10.592 37.2545 11.108 36.2105 11.108C35.2145 11.108 34.4105 10.808 33.7985 10.22C33.1865 9.632 32.8745 8.852 32.8745 7.868C32.8745 6.932 33.1745 6.152 33.7865 5.54C34.3985 4.928 35.1785 4.616 36.1505 4.616C37.2665 4.616 38.2625 5.12 38.6825 5.888L37.9025 6.416C37.4825 5.852 36.9065 5.564 36.1745 5.564C35.5265 5.564 34.9985 5.78 34.5785 6.212C34.1585 6.644 33.9425 7.196 33.9425 7.868C33.9425 8.552 34.1585 9.104 34.6025 9.524C35.0345 9.944 35.5985 10.16 36.3065 10.16C37.0505 10.16 37.6385 9.836 38.0585 9.2ZM43.9853 9.2L44.7053 9.716C44.2373 10.592 43.1813 11.108 42.1373 11.108C41.1413 11.108 40.3373 10.808 39.7253 10.22C39.1133 9.632 38.8013 8.852 38.8013 7.868C38.8013 6.932 39.1013 6.152 39.7133 5.54C40.3253 4.928 41.1053 4.616 42.0773 4.616C43.1933 4.616 44.1893 5.12 44.6093 5.888L43.8293 6.416C43.4093 5.852 42.8333 5.564 42.1013 5.564C41.4533 5.564 40.9253 5.78 40.5053 6.212C40.0853 6.644 39.8693 7.196 39.8693 7.868C39.8693 8.552 40.0853 9.104 40.5293 9.524C40.9613 9.944 41.5253 10.16 42.2333 10.16C42.9773 10.16 43.5653 9.836 43.9853 9.2ZM50.1441 6.332L46.3401 11H45.4161V4.76H46.4241V9.44L50.2161 4.76H51.1521V11H50.1441V6.332ZM54.9754 4.76H57.4834V11H56.4754V8.792H54.9514L53.1034 11H51.8794L53.8714 8.636C52.9114 8.456 52.2754 7.724 52.2754 6.764C52.2754 5.576 53.1034 4.76 54.9754 4.76ZM53.3434 6.788C53.3434 7.4 53.9194 7.832 54.8314 7.832H56.4754V5.72H54.8554C53.8474 5.72 53.3434 6.08 53.3434 6.788Z" fill="#76848D"/>
<rect x="95" y="2" width="10" height="10" fill="#737AF9"/>
<path d="M113.888 2.6H119.888V3.62H114.98V6.032H117.476C119.456 6.032 120.512 6.884 120.512 8.432C120.512 10.16 119.3 11 117.152 11H113.888V2.6ZM117.308 7.052H114.98V9.98H117.236C118.664 9.98 119.384 9.464 119.384 8.444C119.384 7.52 118.688 7.052 117.308 7.052ZM126.358 9.212L127.006 9.812C126.43 10.676 125.602 11.108 124.51 11.108C123.514 11.108 122.71 10.808 122.098 10.22C121.486 9.632 121.186 8.852 121.186 7.868C121.186 6.92 121.462 6.14 122.026 5.528C122.578 4.916 123.358 4.616 124.366 4.616C125.194 4.616 125.89 4.88 126.43 5.396C126.97 5.912 127.246 6.596 127.246 7.448C127.246 7.724 127.222 7.976 127.186 8.204H122.266C122.326 9.44 123.238 10.16 124.546 10.16C125.278 10.16 125.974 9.776 126.358 9.212ZM124.294 5.54C123.154 5.54 122.41 6.236 122.254 7.292H126.178C126.118 6.188 125.41 5.54 124.294 5.54ZM133.529 11H132.521V5.72H129.881V6.008C129.881 8.024 129.653 9.416 129.197 10.136C128.741 10.856 128.177 11.096 127.397 11V10.04C128.201 10.04 128.873 9.692 128.873 6.044V4.76H133.529V11ZM135.356 6.26L134.84 5.504C135.416 4.964 136.412 4.616 137.336 4.616C139.004 4.616 139.892 5.528 139.892 7.148V11H138.884V10.076C138.488 10.652 137.708 11.084 136.7 11.084C135.344 11.084 134.432 10.328 134.432 9.176C134.432 7.868 135.548 7.244 137.42 7.244C138.008 7.244 138.488 7.304 138.884 7.424C138.884 6.212 138.452 5.564 137.216 5.564C136.592 5.564 135.968 5.792 135.356 6.26ZM136.94 10.172C137.408 10.172 137.828 10.04 138.176 9.788C138.524 9.536 138.752 9.248 138.884 8.948V8.312C138.536 8.192 138.092 8.132 137.552 8.132C136.184 8.132 135.5 8.468 135.5 9.14C135.5 9.776 136.076 10.172 136.94 10.172ZM142.174 13.4H141.166V4.76H142.174V5.54C142.594 4.928 143.266 4.616 144.19 4.616C145.102 4.616 145.834 4.904 146.374 5.492C146.914 6.08 147.178 6.836 147.178 7.772C147.178 8.732 146.89 9.524 146.314 10.16C145.726 10.796 144.982 11.108 144.07 11.108C143.23 11.108 142.594 10.892 142.174 10.472V13.4ZM144.082 5.564C143.17 5.564 142.462 6.152 142.174 6.86V9.188C142.534 9.836 143.134 10.16 143.986 10.16C144.598 10.16 145.114 9.944 145.51 9.512C145.906 9.08 146.11 8.528 146.11 7.844C146.11 6.452 145.33 5.564 144.082 5.564ZM148.057 13.376L148.453 12.5C148.549 12.536 148.633 12.56 148.717 12.56C149.185 12.56 149.509 12.236 149.929 11.24L150.121 10.772L147.097 4.76H148.285L150.625 9.5L152.389 4.76H153.493L151.117 10.904C150.709 11.912 150.325 12.596 149.977 12.968C149.617 13.34 149.209 13.52 148.753 13.52C148.489 13.52 148.261 13.472 148.057 13.376ZM158.629 9.2L159.349 9.716C158.881 10.592 157.825 11.108 156.781 11.108C155.785 11.108 154.981 10.808 154.369 10.22C153.757 9.632 153.445 8.852 153.445 7.868C153.445 6.932 153.745 6.152 154.357 5.54C154.969 4.928 155.749 4.616 156.721 4.616C157.837 4.616 158.833 5.12 159.253 5.888L158.473 6.416C158.053 5.852 157.477 5.564 156.745 5.564C156.097 5.564 155.569 5.78 155.149 6.212C154.729 6.644 154.513 7.196 154.513 7.868C154.513 8.552 154.729 9.104 155.173 9.524C155.605 9.944 156.169 10.16 156.877 10.16C157.621 10.16 158.209 9.836 158.629 9.2ZM162.58 11H160.06V4.76H161.068V6.704H162.676C164.38 6.704 165.232 7.412 165.232 8.84C165.232 10.1 164.44 11 162.58 11ZM162.544 7.664H161.068V10.04H162.544C163.696 10.04 164.164 9.632 164.164 8.852C164.164 8.06 163.624 7.664 162.544 7.664Z" fill="#76848D"/>
<path d="M18.0986 47.056L17.0486 46.58C17.5666 45.068 18.9246 44.074 20.9546 44.074C21.9206 44.074 22.7186 44.298 23.3346 44.746C23.9506 45.194 24.2586 45.796 24.2586 46.538C24.2586 47.672 23.6566 48.512 22.5366 48.834C23.6146 48.904 24.4826 49.716 24.4826 51.172C24.4826 52.096 24.1466 52.824 23.4746 53.342C22.8026 53.86 21.9486 54.126 20.8986 54.126C18.7566 54.126 17.2726 53.104 16.7826 51.494L17.9166 51.004C18.5186 52.278 19.5406 52.922 20.9826 52.922C22.3406 52.922 23.1946 52.292 23.1946 51.186C23.1946 50.108 22.3546 49.562 20.6746 49.562H19.5826V48.4H20.4506C21.9766 48.4 22.9706 47.714 22.9706 46.776C22.9706 45.81 22.1726 45.264 20.8986 45.264C19.4006 45.264 18.4906 46.034 18.0986 47.056ZM26.5713 54C26.0533 54.056 25.6613 53.762 25.6613 53.258C25.6613 52.768 25.9693 52.46 26.5153 52.46C27.1313 52.46 27.5373 52.88 27.5373 53.664C27.5373 55.064 26.7673 55.778 25.7453 56.016L25.4513 55.358C25.7593 55.274 26.0393 55.106 26.2913 54.84C26.5293 54.574 26.6273 54.294 26.5713 54ZM28.5558 49.1C28.5558 47.588 28.9058 46.37 29.6198 45.46C30.3198 44.55 31.3558 44.088 32.7138 44.088C35.4998 44.088 36.8858 45.922 36.8858 49.1C36.8858 50.626 36.5358 51.83 35.8498 52.74C35.1498 53.65 34.1138 54.112 32.7418 54.112C31.4258 54.112 30.4038 53.65 29.6618 52.726C28.9198 51.802 28.5558 50.598 28.5558 49.1ZM29.8438 49.1C29.8438 51.494 30.9358 52.922 32.7418 52.922C34.6458 52.922 35.5978 51.648 35.5978 49.1C35.5978 46.552 34.6318 45.278 32.7138 45.278C30.7678 45.278 29.8438 46.678 29.8438 49.1Z" fill="#1A3341"/>
<path d="M11 66C11 64.8954 11.8954 64 13 64H41C42.1046 64 43 64.8954 43 66V102H11V66Z" fill="url(#paint1_linear_4001_19849)"/>
<path opacity="0.2" d="M23 64H31V102H23V64Z" fill="url(#paint2_linear_4001_19849)"/>
<path opacity="0.04" d="M31 64H41C42.1046 64 43 64.8954 43 66V102H31V64Z" fill="#0D262C"/>
<path opacity="0.5" d="M11 66C11 64.8954 11.8954 64 13 64H23V102H11V66Z" fill="url(#paint3_linear_4001_19849)"/>
<path d="M51 105C51 106.105 51.8954 107 53 107H81C82.1046 107 83 106.105 83 105V102H51V105Z" fill="url(#paint4_linear_4001_19849)"/>
<path opacity="0.2" d="M63 107H71V102H63V107Z" fill="url(#paint5_linear_4001_19849)"/>
<path opacity="0.04" d="M71 107H81C82.1046 107 83 106.105 83 105V102H71V107Z" fill="#0D262C"/>
<path opacity="0.5" d="M51 105C51 106.105 51.8954 107 53 107H63V102H51V105Z" fill="url(#paint6_linear_4001_19849)"/>
<path d="M61.406 121.492H54.91V120.442H61.406V121.492ZM62.6544 121.1C62.6544 119.588 63.0044 118.37 63.7184 117.46C64.4184 116.55 65.4544 116.088 66.8124 116.088C69.5984 116.088 70.9844 117.922 70.9844 121.1C70.9844 122.626 70.6344 123.83 69.9484 124.74C69.2484 125.65 68.2124 126.112 66.8404 126.112C65.5244 126.112 64.5024 125.65 63.7604 124.726C63.0184 123.802 62.6544 122.598 62.6544 121.1ZM63.9424 121.1C63.9424 123.494 65.0344 124.922 66.8404 124.922C68.7444 124.922 69.6964 123.648 69.6964 121.1C69.6964 118.552 68.7304 117.278 66.8124 117.278C64.8664 117.278 63.9424 118.678 63.9424 121.1ZM72.968 126C72.45 126.056 72.058 125.762 72.058 125.258C72.058 124.768 72.366 124.46 72.912 124.46C73.528 124.46 73.934 124.88 73.934 125.664C73.934 127.064 73.164 127.778 72.142 128.016L71.848 127.358C72.156 127.274 72.436 127.106 72.688 126.84C72.926 126.574 73.024 126.294 72.968 126ZM74.8405 118.804L74.3925 117.754L77.7525 116.144H78.5505V126H77.3465V117.642L74.8405 118.804Z" fill="#2A3C3C"/>
<path d="M61.406 121.492H54.91V120.442H61.406V121.492ZM62.6544 121.1C62.6544 119.588 63.0044 118.37 63.7184 117.46C64.4184 116.55 65.4544 116.088 66.8124 116.088C69.5984 116.088 70.9844 117.922 70.9844 121.1C70.9844 122.626 70.6344 123.83 69.9484 124.74C69.2484 125.65 68.2124 126.112 66.8404 126.112C65.5244 126.112 64.5024 125.65 63.7604 124.726C63.0184 123.802 62.6544 122.598 62.6544 121.1ZM63.9424 121.1C63.9424 123.494 65.0344 124.922 66.8404 124.922C68.7444 124.922 69.6964 123.648 69.6964 121.1C69.6964 118.552 68.7304 117.278 66.8124 117.278C64.8664 117.278 63.9424 118.678 63.9424 121.1ZM72.968 126C72.45 126.056 72.058 125.762 72.058 125.258C72.058 124.768 72.366 124.46 72.912 124.46C73.528 124.46 73.934 124.88 73.934 125.664C73.934 127.064 73.164 127.778 72.142 128.016L71.848 127.358C72.156 127.274 72.436 127.106 72.688 126.84C72.926 126.574 73.024 126.294 72.968 126ZM74.8405 118.804L74.3925 117.754L77.7525 116.144H78.5505V126H77.3465V117.642L74.8405 118.804Z" fill="#1A3341"/>
<path d="M251 136C251 137.105 251.895 138 253 138H281C282.105 138 283 137.105 283 136V102H251V136Z" fill="url(#paint7_linear_4001_19849)"/>
<path opacity="0.2" d="M263 138H271V102H263V138Z" fill="url(#paint8_linear_4001_19849)"/>
<path opacity="0.04" d="M271 138H281C282.105 138 283 137.105 283 136V102H271V138Z" fill="#0D262C"/>
<path opacity="0.5" d="M251 136C251 137.105 251.895 138 253 138H263V102H251V136Z" fill="url(#paint9_linear_4001_19849)"/>
<path d="M260.64 152.492H254.144V151.442H260.64V152.492ZM263.009 150.434L261.987 150.07C262.337 148.334 263.653 147.088 265.739 147.088C267.755 147.088 268.987 148.25 268.987 150.028C268.987 150.966 268.581 151.904 268.077 152.576C267.825 152.926 267.503 153.262 267.125 153.612C266.355 154.298 265.809 154.662 265.011 155.166L263.933 155.838H269.351V157H261.721V156.048L263.849 154.634C264.227 154.396 264.493 154.214 264.647 154.102C264.801 154.004 265.053 153.822 265.389 153.584C265.725 153.346 265.977 153.136 266.145 152.982C266.299 152.828 266.509 152.632 266.747 152.38C267.391 151.68 267.629 151.036 267.699 150.154C267.699 148.88 266.873 148.306 265.655 148.306C264.899 148.306 264.297 148.516 263.863 148.936C263.429 149.356 263.135 149.86 263.009 150.434ZM271.259 157C270.741 157.056 270.349 156.762 270.349 156.258C270.349 155.768 270.657 155.46 271.203 155.46C271.819 155.46 272.225 155.88 272.225 156.664C272.225 158.064 271.455 158.778 270.433 159.016L270.139 158.358C270.447 158.274 270.727 158.106 270.979 157.84C271.217 157.574 271.315 157.294 271.259 157ZM278.858 148.39H272.922V147.2H280.356V147.998L275.484 157H274.154L278.858 148.39Z" fill="#1A3341"/>
<path d="M291 159C291 160.105 291.895 161 293 161H321C322.105 161 323 160.105 323 159V102H291V159Z" fill="url(#paint10_linear_4001_19849)"/>
<path opacity="0.2" d="M303 161H311V102H303V161Z" fill="url(#paint11_linear_4001_19849)"/>
<path opacity="0.04" d="M311 161H321C322.105 161 323 160.105 323 159V102H311V161Z" fill="#0D262C"/>
<path opacity="0.5" d="M291 159C291 160.105 291.895 161 293 161H303V102H291V159Z" fill="url(#paint12_linear_4001_19849)"/>
<path d="M299.82 175.492H293.324V174.442H299.82V175.492ZM307.83 180H306.612V177.998H300.62V177.186L306.752 170.2H307.83V176.864H309.65V177.998H307.83V180ZM306.612 172.16L302.3 176.864H306.612V172.16ZM311.273 180C310.755 180.056 310.363 179.762 310.363 179.258C310.363 178.768 310.671 178.46 311.217 178.46C311.833 178.46 312.239 178.88 312.239 179.664C312.239 181.064 311.469 181.778 310.447 182.016L310.153 181.358C310.461 181.274 310.741 181.106 310.993 180.84C311.231 180.574 311.329 180.294 311.273 180ZM314.685 175.492L313.677 175.226L314.251 170.2H320.411V171.39H315.329L314.965 174.022C315.455 173.658 316.197 173.476 317.191 173.476C318.339 173.476 319.235 173.784 319.893 174.386C320.537 175.002 320.859 175.786 320.859 176.752C320.859 177.718 320.495 178.53 319.781 179.16C319.053 179.804 318.143 180.126 317.065 180.126C315.231 180.126 313.705 179.258 313.075 177.732L314.195 177.256C314.601 178.194 315.651 178.936 317.065 178.936C318.675 178.936 319.571 178.012 319.571 176.794C319.571 175.492 318.521 174.652 316.855 174.652C315.959 174.652 315.231 174.932 314.685 175.492Z" fill="#2A3C3C"/>
<path d="M299.82 175.492H293.324V174.442H299.82V175.492ZM307.83 180H306.612V177.998H300.62V177.186L306.752 170.2H307.83V176.864H309.65V177.998H307.83V180ZM306.612 172.16L302.3 176.864H306.612V172.16ZM311.273 180C310.755 180.056 310.363 179.762 310.363 179.258C310.363 178.768 310.671 178.46 311.217 178.46C311.833 178.46 312.239 178.88 312.239 179.664C312.239 181.064 311.469 181.778 310.447 182.016L310.153 181.358C310.461 181.274 310.741 181.106 310.993 180.84C311.231 180.574 311.329 180.294 311.273 180ZM314.685 175.492L313.677 175.226L314.251 170.2H320.411V171.39H315.329L314.965 174.022C315.455 173.658 316.197 173.476 317.191 173.476C318.339 173.476 319.235 173.784 319.893 174.386C320.537 175.002 320.859 175.786 320.859 176.752C320.859 177.718 320.495 178.53 319.781 179.16C319.053 179.804 318.143 180.126 317.065 180.126C315.231 180.126 313.705 179.258 313.075 177.732L314.195 177.256C314.601 178.194 315.651 178.936 317.065 178.936C318.675 178.936 319.571 178.012 319.571 176.794C319.571 175.492 318.521 174.652 316.855 174.652C315.959 174.652 315.231 174.932 314.685 175.492Z" fill="#1A3341"/>
<path d="M91 159C91 160.105 91.8954 161 93 161H121C122.105 161 123 160.105 123 159V102H91V159Z" fill="url(#paint13_linear_4001_19849)"/>
<path opacity="0.2" d="M103 161H111V102H103V161Z" fill="url(#paint14_linear_4001_19849)"/>
<path opacity="0.04" d="M111 161H121C122.105 161 123 160.105 123 159V102H111V161Z" fill="#0D262C"/>
<path opacity="0.5" d="M91 159C91 160.105 91.8954 161 93 161H103V102H91V159Z" fill="url(#paint15_linear_4001_19849)"/>
<path d="M99.8201 175.492H93.3241V174.442H99.8201V175.492ZM107.83 180H106.612V177.998H100.62V177.186L106.752 170.2H107.83V176.864H109.65V177.998H107.83V180ZM106.612 172.16L102.3 176.864H106.612V172.16ZM111.273 180C110.755 180.056 110.363 179.762 110.363 179.258C110.363 178.768 110.671 178.46 111.217 178.46C111.833 178.46 112.239 178.88 112.239 179.664C112.239 181.064 111.469 181.778 110.447 182.016L110.153 181.358C110.461 181.274 110.741 181.106 110.993 180.84C111.231 180.574 111.329 180.294 111.273 180ZM114.685 175.492L113.677 175.226L114.251 170.2H120.411V171.39H115.329L114.965 174.022C115.455 173.658 116.197 173.476 117.191 173.476C118.339 173.476 119.235 173.784 119.893 174.386C120.537 175.002 120.859 175.786 120.859 176.752C120.859 177.718 120.495 178.53 119.781 179.16C119.053 179.804 118.143 180.126 117.065 180.126C115.231 180.126 113.705 179.258 113.075 177.732L114.195 177.256C114.601 178.194 115.651 178.936 117.065 178.936C118.675 178.936 119.571 178.012 119.571 176.794C119.571 175.492 118.521 174.652 116.855 174.652C115.959 174.652 115.231 174.932 114.685 175.492Z" fill="#1A3341"/>
<path d="M131 203C131 204.105 131.895 205 133 205H161C162.105 205 163 204.105 163 203V102H131V203Z" fill="url(#paint16_linear_4001_19849)"/>
<path opacity="0.2" d="M143 205H151V102H143V205Z" fill="url(#paint17_linear_4001_19849)"/>
<path opacity="0.04" d="M151 205H161C162.105 205 163 204.105 163 203V102H151V205Z" fill="#0D262C"/>
<path opacity="0.5" d="M131 203C131 204.105 131.895 205 133 205H143V102H131V203Z" fill="url(#paint18_linear_4001_19849)"/>
<path d="M140.681 219.492H134.185V218.442H140.681V219.492ZM147.544 215.39H141.608V214.2H149.042V214.998L144.17 224H142.84L147.544 215.39ZM149.878 224C149.36 224.056 148.968 223.762 148.968 223.258C148.968 222.768 149.276 222.46 149.822 222.46C150.438 222.46 150.844 222.88 150.844 223.664C150.844 225.064 150.074 225.778 149.052 226.016L148.758 225.358C149.066 225.274 149.346 225.106 149.598 224.84C149.836 224.574 149.934 224.294 149.878 224ZM160.011 218.918C160.011 220.584 159.619 221.872 158.821 222.768C158.023 223.678 156.959 224.126 155.629 224.126C154.005 224.126 152.731 223.44 152.101 222.39L153.109 221.69C153.669 222.474 154.691 222.922 155.797 222.922C156.707 222.922 157.435 222.558 158.009 221.83C158.583 221.116 158.821 220.22 158.751 219.156C158.289 220.22 157.127 221.004 155.573 221.004C154.481 221.004 153.585 220.696 152.885 220.066C152.171 219.45 151.821 218.638 151.821 217.644C151.821 216.552 152.199 215.684 152.955 215.04C153.711 214.396 154.719 214.074 155.965 214.074C158.485 214.074 160.011 215.838 160.011 218.918ZM158.541 217.602C158.331 216.3 157.435 215.278 155.825 215.278C154.145 215.278 153.109 216.146 153.109 217.602C153.109 218.988 154.159 219.8 155.797 219.8C156.539 219.8 157.169 219.576 157.659 219.128C158.149 218.68 158.443 218.176 158.541 217.602Z" fill="#2A3C3C"/>
<path d="M140.681 219.492H134.185V218.442H140.681V219.492ZM147.544 215.39H141.608V214.2H149.042V214.998L144.17 224H142.84L147.544 215.39ZM149.878 224C149.36 224.056 148.968 223.762 148.968 223.258C148.968 222.768 149.276 222.46 149.822 222.46C150.438 222.46 150.844 222.88 150.844 223.664C150.844 225.064 150.074 225.778 149.052 226.016L148.758 225.358C149.066 225.274 149.346 225.106 149.598 224.84C149.836 224.574 149.934 224.294 149.878 224ZM160.011 218.918C160.011 220.584 159.619 221.872 158.821 222.768C158.023 223.678 156.959 224.126 155.629 224.126C154.005 224.126 152.731 223.44 152.101 222.39L153.109 221.69C153.669 222.474 154.691 222.922 155.797 222.922C156.707 222.922 157.435 222.558 158.009 221.83C158.583 221.116 158.821 220.22 158.751 219.156C158.289 220.22 157.127 221.004 155.573 221.004C154.481 221.004 153.585 220.696 152.885 220.066C152.171 219.45 151.821 218.638 151.821 217.644C151.821 216.552 152.199 215.684 152.955 215.04C153.711 214.396 154.719 214.074 155.965 214.074C158.485 214.074 160.011 215.838 160.011 218.918ZM158.541 217.602C158.331 216.3 157.435 215.278 155.825 215.278C154.145 215.278 153.109 216.146 153.109 217.602C153.109 218.988 154.159 219.8 155.797 219.8C156.539 219.8 157.169 219.576 157.659 219.128C158.149 218.68 158.443 218.176 158.541 217.602Z" fill="#1A3341"/>
<path d="M171 146C171 147.105 171.895 148 173 148H201C202.105 148 203 147.105 203 146V102H171V146Z" fill="url(#paint19_linear_4001_19849)"/>
<path opacity="0.2" d="M183 148H191V102H183V148Z" fill="url(#paint20_linear_4001_19849)"/>
<path opacity="0.04" d="M191 148H201C202.105 148 203 147.105 203 146V102H191V148Z" fill="#0D262C"/>
<path opacity="0.5" d="M171 146C171 147.105 171.895 148 173 148H183V102H171V146Z" fill="url(#paint21_linear_4001_19849)"/>
<path d="M180.203 162.492H173.707V161.442H180.203V162.492ZM182.417 160.056L181.367 159.58C181.885 158.068 183.243 157.074 185.273 157.074C186.239 157.074 187.037 157.298 187.653 157.746C188.269 158.194 188.577 158.796 188.577 159.538C188.577 160.672 187.975 161.512 186.855 161.834C187.933 161.904 188.801 162.716 188.801 164.172C188.801 165.096 188.465 165.824 187.793 166.342C187.121 166.86 186.267 167.126 185.217 167.126C183.075 167.126 181.591 166.104 181.101 164.494L182.235 164.004C182.837 165.278 183.859 165.922 185.301 165.922C186.659 165.922 187.513 165.292 187.513 164.186C187.513 163.108 186.673 162.562 184.993 162.562H183.901V161.4H184.769C186.295 161.4 187.289 160.714 187.289 159.776C187.289 158.81 186.491 158.264 185.217 158.264C183.719 158.264 182.809 159.034 182.417 160.056ZM190.89 167C190.372 167.056 189.98 166.762 189.98 166.258C189.98 165.768 190.288 165.46 190.834 165.46C191.45 165.46 191.856 165.88 191.856 166.664C191.856 168.064 191.086 168.778 190.064 169.016L189.77 168.358C190.078 168.274 190.358 168.106 190.61 167.84C190.848 167.574 190.946 167.294 190.89 167ZM194.302 162.492L193.294 162.226L193.868 157.2H200.028V158.39H194.946L194.582 161.022C195.072 160.658 195.814 160.476 196.808 160.476C197.956 160.476 198.852 160.784 199.51 161.386C200.154 162.002 200.476 162.786 200.476 163.752C200.476 164.718 200.112 165.53 199.398 166.16C198.67 166.804 197.76 167.126 196.682 167.126C194.848 167.126 193.322 166.258 192.692 164.732L193.812 164.256C194.218 165.194 195.268 165.936 196.682 165.936C198.292 165.936 199.188 165.012 199.188 163.794C199.188 162.492 198.138 161.652 196.472 161.652C195.576 161.652 194.848 161.932 194.302 162.492Z" fill="#1A3341"/>
<path d="M211 169C211 170.105 211.895 171 213 171H241C242.105 171 243 170.105 243 169V102H211V169Z" fill="url(#paint22_linear_4001_19849)"/>
<path opacity="0.2" d="M223 171H231V102H223V171Z" fill="url(#paint23_linear_4001_19849)"/>
<path opacity="0.04" d="M231 171H241C242.105 171 243 170.105 243 169V102H231V171Z" fill="#0D262C"/>
<path opacity="0.5" d="M211 169C211 170.105 211.895 171 213 171H223V102H211V169Z" fill="url(#paint24_linear_4001_19849)"/>
<path d="M220.203 185.492H213.707V184.442H220.203V185.492ZM222.879 185.492L221.871 185.226L222.445 180.2H228.605V181.39H223.523L223.159 184.022C223.649 183.658 224.391 183.476 225.385 183.476C226.533 183.476 227.429 183.784 228.087 184.386C228.731 185.002 229.053 185.786 229.053 186.752C229.053 187.718 228.689 188.53 227.975 189.16C227.247 189.804 226.337 190.126 225.259 190.126C223.425 190.126 221.899 189.258 221.269 187.732L222.389 187.256C222.795 188.194 223.845 188.936 225.259 188.936C226.869 188.936 227.765 188.012 227.765 186.794C227.765 185.492 226.715 184.652 225.049 184.652C224.153 184.652 223.425 184.932 222.879 185.492ZM231.054 190C230.536 190.056 230.144 189.762 230.144 189.258C230.144 188.768 230.452 188.46 230.998 188.46C231.614 188.46 232.02 188.88 232.02 189.664C232.02 191.064 231.25 191.778 230.228 192.016L229.934 191.358C230.242 191.274 230.522 191.106 230.774 190.84C231.012 190.574 231.11 190.294 231.054 190ZM234.004 183.056L232.954 182.58C233.472 181.068 234.83 180.074 236.86 180.074C237.826 180.074 238.624 180.298 239.24 180.746C239.856 181.194 240.164 181.796 240.164 182.538C240.164 183.672 239.562 184.512 238.442 184.834C239.52 184.904 240.388 185.716 240.388 187.172C240.388 188.096 240.052 188.824 239.38 189.342C238.708 189.86 237.854 190.126 236.804 190.126C234.662 190.126 233.178 189.104 232.688 187.494L233.822 187.004C234.424 188.278 235.446 188.922 236.888 188.922C238.246 188.922 239.1 188.292 239.1 187.186C239.1 186.108 238.26 185.562 236.58 185.562H235.488V184.4H236.356C237.882 184.4 238.876 183.714 238.876 182.776C238.876 181.81 238.078 181.264 236.804 181.264C235.306 181.264 234.396 182.034 234.004 183.056Z" fill="#2A3C3C"/>
<path d="M220.203 185.492H213.707V184.442H220.203V185.492ZM222.879 185.492L221.871 185.226L222.445 180.2H228.605V181.39H223.523L223.159 184.022C223.649 183.658 224.391 183.476 225.385 183.476C226.533 183.476 227.429 183.784 228.087 184.386C228.731 185.002 229.053 185.786 229.053 186.752C229.053 187.718 228.689 188.53 227.975 189.16C227.247 189.804 226.337 190.126 225.259 190.126C223.425 190.126 221.899 189.258 221.269 187.732L222.389 187.256C222.795 188.194 223.845 188.936 225.259 188.936C226.869 188.936 227.765 188.012 227.765 186.794C227.765 185.492 226.715 184.652 225.049 184.652C224.153 184.652 223.425 184.932 222.879 185.492ZM231.054 190C230.536 190.056 230.144 189.762 230.144 189.258C230.144 188.768 230.452 188.46 230.998 188.46C231.614 188.46 232.02 188.88 232.02 189.664C232.02 191.064 231.25 191.778 230.228 192.016L229.934 191.358C230.242 191.274 230.522 191.106 230.774 190.84C231.012 190.574 231.11 190.294 231.054 190ZM234.004 183.056L232.954 182.58C233.472 181.068 234.83 180.074 236.86 180.074C237.826 180.074 238.624 180.298 239.24 180.746C239.856 181.194 240.164 181.796 240.164 182.538C240.164 183.672 239.562 184.512 238.442 184.834C239.52 184.904 240.388 185.716 240.388 187.172C240.388 188.096 240.052 188.824 239.38 189.342C238.708 189.86 237.854 190.126 236.804 190.126C234.662 190.126 233.178 189.104 232.688 187.494L233.822 187.004C234.424 188.278 235.446 188.922 236.888 188.922C238.246 188.922 239.1 188.292 239.1 187.186C239.1 186.108 238.26 185.562 236.58 185.562H235.488V184.4H236.356C237.882 184.4 238.876 183.714 238.876 182.776C238.876 181.81 238.078 181.264 236.804 181.264C235.306 181.264 234.396 182.034 234.004 183.056Z" fill="#1A3341"/>
<line x1="-4.37114e-08" y1="102.5" x2="335" y2="102.5" stroke="#ABBEC9"/>
<path d="M33.5564 238.372L32.6804 238.06C32.9804 236.572 34.1084 235.504 35.8964 235.504C37.6244 235.504 38.6804 236.5 38.6804 238.024C38.6804 238.828 38.3324 239.632 37.9004 240.208C37.6844 240.508 37.4084 240.796 37.0844 241.096C36.4244 241.684 35.9564 241.996 35.2724 242.428L34.3484 243.004H38.9924V244H32.4524V243.184L34.2764 241.972C34.6004 241.768 34.8284 241.612 34.9604 241.516C35.0924 241.432 35.3084 241.276 35.5964 241.072C35.8844 240.868 36.1004 240.688 36.2444 240.556C36.3764 240.424 36.5564 240.256 36.7604 240.04C37.3124 239.44 37.5164 238.888 37.5764 238.132C37.5764 237.04 36.8684 236.548 35.8244 236.548C35.1764 236.548 34.6604 236.728 34.2884 237.088C33.9164 237.448 33.6644 237.88 33.5564 238.372ZM39.824 239.8C39.824 238.504 40.124 237.46 40.736 236.68C41.336 235.9 42.224 235.504 43.388 235.504C45.776 235.504 46.964 237.076 46.964 239.8C46.964 241.108 46.664 242.14 46.076 242.92C45.476 243.7 44.588 244.096 43.412 244.096C42.284 244.096 41.408 243.7 40.772 242.908C40.136 242.116 39.824 241.084 39.824 239.8ZM40.928 239.8C40.928 241.852 41.864 243.076 43.412 243.076C45.044 243.076 45.86 241.984 45.86 239.8C45.86 237.616 45.032 236.524 43.388 236.524C41.72 236.524 40.928 237.724 40.928 239.8ZM48.8203 238.372L47.9443 238.06C48.2443 236.572 49.3723 235.504 51.1603 235.504C52.8883 235.504 53.9443 236.5 53.9443 238.024C53.9443 238.828 53.5963 239.632 53.1643 240.208C52.9483 240.508 52.6723 240.796 52.3483 241.096C51.6883 241.684 51.2203 241.996 50.5363 242.428L49.6123 243.004H54.2563V244H47.7163V243.184L49.5403 241.972C49.8643 241.768 50.0923 241.612 50.2243 241.516C50.3563 241.432 50.5723 241.276 50.8603 241.072C51.1483 240.868 51.3643 240.688 51.5083 240.556C51.6403 240.424 51.8203 240.256 52.0243 240.04C52.5763 239.44 52.7803 238.888 52.8403 238.132C52.8403 237.04 52.1323 236.548 51.0883 236.548C50.4403 236.548 49.9243 236.728 49.5523 237.088C49.1803 237.448 48.9283 237.88 48.8203 238.372ZM56.048 238.372L55.172 238.06C55.472 236.572 56.6 235.504 58.388 235.504C60.116 235.504 61.172 236.5 61.172 238.024C61.172 238.828 60.824 239.632 60.392 240.208C60.176 240.508 59.9 240.796 59.576 241.096C58.916 241.684 58.448 241.996 57.764 242.428L56.84 243.004H61.484V244H54.944V243.184L56.768 241.972C57.092 241.768 57.32 241.612 57.452 241.516C57.584 241.432 57.8 241.276 58.088 241.072C58.376 240.868 58.592 240.688 58.736 240.556C58.868 240.424 59.048 240.256 59.252 240.04C59.804 239.44 60.008 238.888 60.068 238.132C60.068 237.04 59.36 236.548 58.316 236.548C57.668 236.548 57.152 236.728 56.78 237.088C56.408 237.448 56.156 237.88 56.048 238.372ZM40.4256 253.8C40.4256 252.588 40.8336 251.556 41.6616 250.728C42.4896 249.9 43.4976 249.492 44.6976 249.492C45.8856 249.492 46.8936 249.9 47.7216 250.716C48.5496 251.532 48.9576 252.564 48.9576 253.8C48.9576 254.988 48.5136 256.044 47.6256 256.944L48.4656 257.952L47.7216 258.576L46.8576 257.532C46.1736 257.916 45.4536 258.108 44.6976 258.108C43.4736 258.108 42.4536 257.7 41.6496 256.884C40.8336 256.08 40.4256 255.048 40.4256 253.8ZM41.5656 253.8C41.5656 254.748 41.8656 255.528 42.4656 256.14C43.0656 256.752 43.8096 257.064 44.6976 257.064C45.2376 257.064 45.7296 256.932 46.1976 256.656L45.4776 255.792L46.1736 255.18L46.9416 256.104C47.5296 255.492 47.8176 254.724 47.8176 253.8C47.8176 252.852 47.5176 252.072 46.9176 251.46C46.3176 250.848 45.5736 250.536 44.6976 250.536C43.8096 250.536 43.0656 250.836 42.4656 251.448C41.8656 252.06 41.5656 252.852 41.5656 253.8ZM49.692 251.832L49.308 250.932L52.188 249.552H52.872V258H51.84V250.836L49.692 251.832Z" fill="#76848D"/>
<path d="M119.119 253.8C119.119 252.588 119.527 251.556 120.355 250.728C121.183 249.9 122.191 249.492 123.391 249.492C124.579 249.492 125.587 249.9 126.415 250.716C127.243 251.532 127.651 252.564 127.651 253.8C127.651 254.988 127.207 256.044 126.319 256.944L127.159 257.952L126.415 258.576L125.551 257.532C124.867 257.916 124.147 258.108 123.391 258.108C122.167 258.108 121.147 257.7 120.343 256.884C119.527 256.08 119.119 255.048 119.119 253.8ZM120.259 253.8C120.259 254.748 120.559 255.528 121.159 256.14C121.759 256.752 122.503 257.064 123.391 257.064C123.931 257.064 124.423 256.932 124.891 256.656L124.171 255.792L124.867 255.18L125.635 256.104C126.223 255.492 126.511 254.724 126.511 253.8C126.511 252.852 126.211 252.072 125.611 251.46C125.011 250.848 124.267 250.536 123.391 250.536C122.503 250.536 121.759 250.836 121.159 251.448C120.559 252.06 120.259 252.852 120.259 253.8ZM129.441 252.372L128.565 252.06C128.865 250.572 129.993 249.504 131.781 249.504C133.509 249.504 134.565 250.5 134.565 252.024C134.565 252.828 134.217 253.632 133.785 254.208C133.569 254.508 133.293 254.796 132.969 255.096C132.309 255.684 131.841 255.996 131.157 256.428L130.233 257.004H134.877V258H128.337V257.184L130.161 255.972C130.485 255.768 130.713 255.612 130.845 255.516C130.977 255.432 131.193 255.276 131.481 255.072C131.769 254.868 131.985 254.688 132.129 254.556C132.261 254.424 132.441 254.256 132.645 254.04C133.197 253.44 133.401 252.888 133.461 252.132C133.461 251.04 132.753 250.548 131.709 250.548C131.061 250.548 130.545 250.728 130.173 251.088C129.801 251.448 129.549 251.88 129.441 252.372Z" fill="#76848D"/>
<path d="M199.09 253.8C199.09 252.588 199.498 251.556 200.326 250.728C201.154 249.9 202.162 249.492 203.362 249.492C204.55 249.492 205.558 249.9 206.386 250.716C207.214 251.532 207.622 252.564 207.622 253.8C207.622 254.988 207.178 256.044 206.29 256.944L207.13 257.952L206.386 258.576L205.522 257.532C204.838 257.916 204.118 258.108 203.362 258.108C202.138 258.108 201.118 257.7 200.314 256.884C199.498 256.08 199.09 255.048 199.09 253.8ZM200.23 253.8C200.23 254.748 200.53 255.528 201.13 256.14C201.73 256.752 202.474 257.064 203.362 257.064C203.902 257.064 204.394 256.932 204.862 256.656L204.142 255.792L204.838 255.18L205.606 256.104C206.194 255.492 206.482 254.724 206.482 253.8C206.482 252.852 206.182 252.072 205.582 251.46C204.982 250.848 204.238 250.536 203.362 250.536C202.474 250.536 201.73 250.836 201.13 251.448C200.53 252.06 200.23 252.852 200.23 253.8ZM209.28 252.048L208.38 251.64C208.824 250.344 209.988 249.492 211.728 249.492C212.556 249.492 213.24 249.684 213.768 250.068C214.296 250.452 214.56 250.968 214.56 251.604C214.56 252.576 214.044 253.296 213.084 253.572C214.008 253.632 214.752 254.328 214.752 255.576C214.752 256.368 214.464 256.992 213.888 257.436C213.312 257.88 212.58 258.108 211.68 258.108C209.844 258.108 208.572 257.232 208.152 255.852L209.124 255.432C209.64 256.524 210.516 257.076 211.752 257.076C212.916 257.076 213.648 256.536 213.648 255.588C213.648 254.664 212.928 254.196 211.488 254.196H210.552V253.2H211.296C212.604 253.2 213.456 252.612 213.456 251.808C213.456 250.98 212.772 250.512 211.68 250.512C210.396 250.512 209.616 251.172 209.28 252.048Z" fill="#76848D"/>
<path d="M278.762 253.8C278.762 252.588 279.17 251.556 279.998 250.728C280.826 249.9 281.834 249.492 283.034 249.492C284.222 249.492 285.23 249.9 286.058 250.716C286.886 251.532 287.294 252.564 287.294 253.8C287.294 254.988 286.85 256.044 285.962 256.944L286.802 257.952L286.058 258.576L285.194 257.532C284.51 257.916 283.79 258.108 283.034 258.108C281.81 258.108 280.79 257.7 279.986 256.884C279.17 256.08 278.762 255.048 278.762 253.8ZM279.902 253.8C279.902 254.748 280.202 255.528 280.802 256.14C281.402 256.752 282.146 257.064 283.034 257.064C283.574 257.064 284.066 256.932 284.534 256.656L283.814 255.792L284.51 255.18L285.278 256.104C285.866 255.492 286.154 254.724 286.154 253.8C286.154 252.852 285.854 252.072 285.254 251.46C284.654 250.848 283.91 250.536 283.034 250.536C282.146 250.536 281.402 250.836 280.802 251.448C280.202 252.06 279.902 252.852 279.902 253.8ZM293.92 258H292.876V256.284H287.74V255.588L292.996 249.6H293.92V255.312H295.48V256.284H293.92V258ZM292.876 251.28L289.18 255.312H292.876V251.28Z" fill="#76848D"/>
<path d="M11 444C11 445.105 11.8954 446 13 446H41C42.1046 446 43 445.105 43 444V422H11V444Z" fill="url(#paint25_linear_4001_19849)"/>
<path opacity="0.2" d="M23 446H31V422H23V446Z" fill="url(#paint26_linear_4001_19849)"/>
<path opacity="0.04" d="M31 446H41C42.1046 446 43 445.105 43 444V422H31V446Z" fill="#0D262C"/>
<path opacity="0.5" d="M11 444C11 445.105 11.8954 446 13 446H23V422H11V444Z" fill="url(#paint27_linear_4001_19849)"/>
<path d="M21.4949 460.492H14.9989V459.442H21.4949V460.492ZM22.6313 457.804L22.1833 456.754L25.5433 455.144H26.3413V465H25.1373V456.642L22.6313 457.804ZM29.0647 465C28.5467 465.056 28.1547 464.762 28.1547 464.258C28.1547 463.768 28.4627 463.46 29.0087 463.46C29.6247 463.46 30.0307 463.88 30.0307 464.664C30.0307 466.064 29.2607 466.778 28.2387 467.016L27.9447 466.358C28.2527 466.274 28.5327 466.106 28.7847 465.84C29.0227 465.574 29.1207 465.294 29.0647 465ZM34.9132 459.414H35.3472C35.9772 459.414 36.4952 459.26 36.9292 458.966C37.3492 458.672 37.5592 458.28 37.5592 457.818C37.5592 456.768 36.7332 456.236 35.0952 456.236C33.5272 456.236 32.6732 456.81 32.6732 457.818C32.6732 458.728 33.6112 459.414 34.9132 459.414ZM35.3192 460.52H34.9692C34.2132 460.52 33.5832 460.688 33.0932 461.01C32.6032 461.332 32.3512 461.738 32.3512 462.228C32.3512 463.292 33.3312 463.964 35.1092 463.964C36.9152 463.964 37.8812 463.32 37.8812 462.242C37.8812 461.164 36.8452 460.52 35.3192 460.52ZM38.0772 464.37C37.3632 464.874 36.3692 465.126 35.1232 465.126C33.8772 465.126 32.8832 464.874 32.1552 464.384C31.4272 463.894 31.0632 463.222 31.0632 462.354C31.0632 461.22 31.8052 460.324 32.9952 459.932C31.9172 459.582 31.3852 458.728 31.3852 457.734C31.3852 456.11 32.7572 455.074 35.1092 455.074C37.4752 455.074 38.8472 456.11 38.8472 457.734C38.8472 458.672 38.3292 459.386 37.2932 459.862C38.5392 460.24 39.1552 461.052 39.1552 462.298C39.1552 463.18 38.7912 463.88 38.0772 464.37Z" fill="#1A3341"/>
<path d="M51 445C51 446.105 51.8954 447 53 447H81C82.1046 447 83 446.105 83 445V422H51V445Z" fill="url(#paint28_linear_4001_19849)"/>
<path opacity="0.2" d="M63 447H71V422H63V447Z" fill="url(#paint29_linear_4001_19849)"/>
<path opacity="0.04" d="M71 447H81C82.1046 447 83 446.105 83 445V422H71V447Z" fill="#0D262C"/>
<path opacity="0.5" d="M51 445C51 446.105 51.8954 447 53 447H63V422H51V445Z" fill="url(#paint30_linear_4001_19849)"/>
<path d="M61.4949 461.492H54.9989V460.442H61.4949V461.492ZM62.6313 458.804L62.1833 457.754L65.5433 456.144H66.3413V466H65.1373V457.642L62.6313 458.804ZM69.0647 466C68.5467 466.056 68.1547 465.762 68.1547 465.258C68.1547 464.768 68.4627 464.46 69.0087 464.46C69.6247 464.46 70.0307 464.88 70.0307 465.664C70.0307 467.064 69.2607 467.778 68.2387 468.016L67.9447 467.358C68.2527 467.274 68.5327 467.106 68.7847 466.84C69.0227 466.574 69.1207 466.294 69.0647 466ZM79.1972 460.918C79.1972 462.584 78.8052 463.872 78.0072 464.768C77.2092 465.678 76.1452 466.126 74.8152 466.126C73.1912 466.126 71.9172 465.44 71.2872 464.39L72.2952 463.69C72.8552 464.474 73.8772 464.922 74.9832 464.922C75.8932 464.922 76.6212 464.558 77.1952 463.83C77.7692 463.116 78.0072 462.22 77.9372 461.156C77.4752 462.22 76.3132 463.004 74.7592 463.004C73.6672 463.004 72.7712 462.696 72.0712 462.066C71.3572 461.45 71.0072 460.638 71.0072 459.644C71.0072 458.552 71.3852 457.684 72.1412 457.04C72.8972 456.396 73.9052 456.074 75.1512 456.074C77.6712 456.074 79.1972 457.838 79.1972 460.918ZM77.7272 459.602C77.5172 458.3 76.6212 457.278 75.0112 457.278C73.3312 457.278 72.2952 458.146 72.2952 459.602C72.2952 460.988 73.3452 461.8 74.9832 461.8C75.7252 461.8 76.3552 461.576 76.8452 461.128C77.3352 460.68 77.6292 460.176 77.7272 459.602Z" fill="#2A3C3C"/>
<path d="M61.4949 461.492H54.9989V460.442H61.4949V461.492ZM62.6313 458.804L62.1833 457.754L65.5433 456.144H66.3413V466H65.1373V457.642L62.6313 458.804ZM69.0647 466C68.5467 466.056 68.1547 465.762 68.1547 465.258C68.1547 464.768 68.4627 464.46 69.0087 464.46C69.6247 464.46 70.0307 464.88 70.0307 465.664C70.0307 467.064 69.2607 467.778 68.2387 468.016L67.9447 467.358C68.2527 467.274 68.5327 467.106 68.7847 466.84C69.0227 466.574 69.1207 466.294 69.0647 466ZM79.1972 460.918C79.1972 462.584 78.8052 463.872 78.0072 464.768C77.2092 465.678 76.1452 466.126 74.8152 466.126C73.1912 466.126 71.9172 465.44 71.2872 464.39L72.2952 463.69C72.8552 464.474 73.8772 464.922 74.9832 464.922C75.8932 464.922 76.6212 464.558 77.1952 463.83C77.7692 463.116 78.0072 462.22 77.9372 461.156C77.4752 462.22 76.3132 463.004 74.7592 463.004C73.6672 463.004 72.7712 462.696 72.0712 462.066C71.3572 461.45 71.0072 460.638 71.0072 459.644C71.0072 458.552 71.3852 457.684 72.1412 457.04C72.8972 456.396 73.9052 456.074 75.1512 456.074C77.6712 456.074 79.1972 457.838 79.1972 460.918ZM77.7272 459.602C77.5172 458.3 76.6212 457.278 75.0112 457.278C73.3312 457.278 72.2952 458.146 72.2952 459.602C72.2952 460.988 73.3452 461.8 74.9832 461.8C75.7252 461.8 76.3552 461.576 76.8452 461.128C77.3352 460.68 77.6292 460.176 77.7272 459.602Z" fill="#1A3341"/>
<path d="M103.601 349H102.383V346.998H96.3907V346.186L102.523 339.2H103.601V345.864H105.421V346.998H103.601V349ZM102.383 341.16L98.0707 345.864H102.383V341.16ZM107.043 349C106.525 349.056 106.133 348.762 106.133 348.258C106.133 347.768 106.441 347.46 106.987 347.46C107.603 347.46 108.009 347.88 108.009 348.664C108.009 350.064 107.239 350.778 106.217 351.016L105.923 350.358C106.231 350.274 106.511 350.106 106.763 349.84C107.001 349.574 107.099 349.294 107.043 349ZM117.175 343.918C117.175 345.584 116.783 346.872 115.985 347.768C115.187 348.678 114.123 349.126 112.793 349.126C111.169 349.126 109.895 348.44 109.265 347.39L110.273 346.69C110.833 347.474 111.855 347.922 112.961 347.922C113.871 347.922 114.599 347.558 115.173 346.83C115.747 346.116 115.985 345.22 115.915 344.156C115.453 345.22 114.291 346.004 112.737 346.004C111.645 346.004 110.749 345.696 110.049 345.066C109.335 344.45 108.985 343.638 108.985 342.644C108.985 341.552 109.363 340.684 110.119 340.04C110.875 339.396 111.883 339.074 113.129 339.074C115.649 339.074 117.175 340.838 117.175 343.918ZM115.705 342.602C115.495 341.3 114.599 340.278 112.989 340.278C111.309 340.278 110.273 341.146 110.273 342.602C110.273 343.988 111.323 344.8 112.961 344.8C113.703 344.8 114.333 344.576 114.823 344.128C115.313 343.68 115.607 343.176 115.705 342.602Z" fill="#1A3341"/>
<path d="M91 361C91 359.895 91.8954 359 93 359H121C122.105 359 123 359.895 123 361V422H91V361Z" fill="url(#paint31_linear_4001_19849)"/>
<path opacity="0.2" d="M103 359H111V422H103V359Z" fill="url(#paint32_linear_4001_19849)"/>
<path opacity="0.04" d="M111 359H121C122.105 359 123 359.895 123 361V422H111V359Z" fill="#0D262C"/>
<path opacity="0.5" d="M91 361C91 359.895 91.8954 359 93 359H103V422H91V361Z" fill="url(#paint33_linear_4001_19849)"/>
<path d="M180.475 341.492L179.467 341.226L180.041 336.2H186.201V337.39H181.119L180.755 340.022C181.245 339.658 181.987 339.476 182.981 339.476C184.129 339.476 185.025 339.784 185.683 340.386C186.327 341.002 186.649 341.786 186.649 342.752C186.649 343.718 186.285 344.53 185.571 345.16C184.843 345.804 183.933 346.126 182.855 346.126C181.021 346.126 179.495 345.258 178.865 343.732L179.985 343.256C180.391 344.194 181.441 344.936 182.855 344.936C184.465 344.936 185.361 344.012 185.361 342.794C185.361 341.492 184.311 340.652 182.645 340.652C181.749 340.652 181.021 340.932 180.475 341.492ZM188.649 346C188.131 346.056 187.739 345.762 187.739 345.258C187.739 344.768 188.047 344.46 188.593 344.46C189.209 344.46 189.615 344.88 189.615 345.664C189.615 347.064 188.845 347.778 187.823 348.016L187.529 347.358C187.837 347.274 188.117 347.106 188.369 346.84C188.607 346.574 188.705 346.294 188.649 346ZM190.522 338.804L190.074 337.754L193.434 336.144H194.232V346H193.028V337.642L190.522 338.804Z" fill="#1A3341"/>
<path d="M171 358C171 356.895 171.895 356 173 356H201C202.105 356 203 356.895 203 358V422H171V358Z" fill="url(#paint34_linear_4001_19849)"/>
<path opacity="0.2" d="M183 356H191V422H183V356Z" fill="url(#paint35_linear_4001_19849)"/>
<path opacity="0.04" d="M191 356H201C202.105 356 203 356.895 203 358V422H191V356Z" fill="#0D262C"/>
<path opacity="0.5" d="M171 358C171 356.895 171.895 356 173 356H183V422H171V358Z" fill="url(#paint36_linear_4001_19849)"/>
<path d="M138.794 328.366C138.794 326.672 139.214 325.37 140.04 324.446C140.866 323.536 141.902 323.074 143.148 323.074C144.786 323.074 146.074 323.816 146.62 324.992L145.668 325.636C145.094 324.726 144.24 324.278 143.092 324.278C142.224 324.278 141.496 324.614 140.908 325.286C140.32 325.972 140.026 326.896 140.04 328.086C140.586 327.064 141.86 326.448 143.26 326.448C144.394 326.448 145.304 326.742 145.962 327.344C146.62 327.946 146.956 328.744 146.956 329.724C146.956 330.718 146.592 331.544 145.85 332.174C145.108 332.804 144.184 333.126 143.078 333.126C140.432 333.126 138.794 331.404 138.794 328.366ZM140.194 329.556C140.46 330.942 141.51 331.922 143.064 331.922C143.82 331.922 144.45 331.726 144.94 331.32C145.43 330.928 145.668 330.41 145.668 329.78C145.668 328.394 144.688 327.652 143.19 327.652C142.364 327.652 141.678 327.848 141.146 328.24C140.6 328.632 140.292 329.066 140.194 329.556ZM148.902 333C148.384 333.056 147.992 332.762 147.992 332.258C147.992 331.768 148.3 331.46 148.846 331.46C149.462 331.46 149.868 331.88 149.868 332.664C149.868 334.064 149.098 334.778 148.076 335.016L147.782 334.358C148.09 334.274 148.37 334.106 148.622 333.84C148.86 333.574 148.958 333.294 148.902 333ZM150.775 325.804L150.327 324.754L153.687 323.144H154.485V333H153.281V324.642L150.775 325.804Z" fill="#1A3341"/>
<path d="M131 345C131 343.895 131.895 343 133 343H161C162.105 343 163 343.895 163 345V422H131V345Z" fill="url(#paint37_linear_4001_19849)"/>
<path opacity="0.2" d="M143 343H151V422H143V343Z" fill="url(#paint38_linear_4001_19849)"/>
<path opacity="0.04" d="M151 343H161C162.105 343 163 343.895 163 345V422H151V343Z" fill="#0D262C"/>
<path opacity="0.5" d="M131 345C131 343.895 131.895 343 133 343H143V422H131V345Z" fill="url(#paint39_linear_4001_19849)"/>
<path d="M217.269 327.366C217.269 325.672 217.689 324.37 218.515 323.446C219.341 322.536 220.377 322.074 221.623 322.074C223.261 322.074 224.549 322.816 225.095 323.992L224.143 324.636C223.569 323.726 222.715 323.278 221.567 323.278C220.699 323.278 219.971 323.614 219.383 324.286C218.795 324.972 218.501 325.896 218.515 327.086C219.061 326.064 220.335 325.448 221.735 325.448C222.869 325.448 223.779 325.742 224.437 326.344C225.095 326.946 225.431 327.744 225.431 328.724C225.431 329.718 225.067 330.544 224.325 331.174C223.583 331.804 222.659 332.126 221.553 332.126C218.907 332.126 217.269 330.404 217.269 327.366ZM218.669 328.556C218.935 329.942 219.985 330.922 221.539 330.922C222.295 330.922 222.925 330.726 223.415 330.32C223.905 329.928 224.143 329.41 224.143 328.78C224.143 327.394 223.163 326.652 221.665 326.652C220.839 326.652 220.153 326.848 219.621 327.24C219.075 327.632 218.767 328.066 218.669 328.556ZM227.378 332C226.86 332.056 226.468 331.762 226.468 331.258C226.468 330.768 226.776 330.46 227.322 330.46C227.938 330.46 228.344 330.88 228.344 331.664C228.344 333.064 227.574 333.778 226.552 334.016L226.258 333.358C226.566 333.274 226.846 333.106 227.098 332.84C227.336 332.574 227.434 332.294 227.378 332ZM230.482 325.434L229.46 325.07C229.81 323.334 231.126 322.088 233.212 322.088C235.228 322.088 236.46 323.25 236.46 325.028C236.46 325.966 236.054 326.904 235.55 327.576C235.298 327.926 234.976 328.262 234.598 328.612C233.828 329.298 233.282 329.662 232.484 330.166L231.406 330.838H236.824V332H229.194V331.048L231.322 329.634C231.7 329.396 231.966 329.214 232.12 329.102C232.274 329.004 232.526 328.822 232.862 328.584C233.198 328.346 233.45 328.136 233.618 327.982C233.772 327.828 233.982 327.632 234.22 327.38C234.864 326.68 235.102 326.036 235.172 325.154C235.172 323.88 234.346 323.306 233.128 323.306C232.372 323.306 231.77 323.516 231.336 323.936C230.902 324.356 230.608 324.86 230.482 325.434Z" fill="#1A3341"/>
<path d="M211 344C211 342.895 211.895 342 213 342H241C242.105 342 243 342.895 243 344V422H211V344Z" fill="url(#paint40_linear_4001_19849)"/>
<path opacity="0.2" d="M223 342H231V422H223V342Z" fill="url(#paint41_linear_4001_19849)"/>
<path opacity="0.04" d="M231 342H241C242.105 342 243 342.895 243 344V422H231V342Z" fill="#0D262C"/>
<path opacity="0.5" d="M211 344C211 342.895 211.895 342 213 342H223V422H211V344Z" fill="url(#paint42_linear_4001_19849)"/>
<path d="M303.601 353H302.383V350.998H296.391V350.186L302.523 343.2H303.601V349.864H305.421V350.998H303.601V353ZM302.383 345.16L298.071 349.864H302.383V345.16ZM307.043 353C306.525 353.056 306.133 352.762 306.133 352.258C306.133 351.768 306.441 351.46 306.987 351.46C307.603 351.46 308.009 351.88 308.009 352.664C308.009 354.064 307.239 354.778 306.217 355.016L305.923 354.358C306.231 354.274 306.511 354.106 306.763 353.84C307.001 353.574 307.099 353.294 307.043 353ZM312.891 347.414H313.325C313.955 347.414 314.473 347.26 314.907 346.966C315.327 346.672 315.537 346.28 315.537 345.818C315.537 344.768 314.711 344.236 313.073 344.236C311.505 344.236 310.651 344.81 310.651 345.818C310.651 346.728 311.589 347.414 312.891 347.414ZM313.297 348.52H312.947C312.191 348.52 311.561 348.688 311.071 349.01C310.581 349.332 310.329 349.738 310.329 350.228C310.329 351.292 311.309 351.964 313.087 351.964C314.893 351.964 315.859 351.32 315.859 350.242C315.859 349.164 314.823 348.52 313.297 348.52ZM316.055 352.37C315.341 352.874 314.347 353.126 313.101 353.126C311.855 353.126 310.861 352.874 310.133 352.384C309.405 351.894 309.041 351.222 309.041 350.354C309.041 349.22 309.783 348.324 310.973 347.932C309.895 347.582 309.363 346.728 309.363 345.734C309.363 344.11 310.735 343.074 313.087 343.074C315.453 343.074 316.825 344.11 316.825 345.734C316.825 346.672 316.307 347.386 315.271 347.862C316.517 348.24 317.133 349.052 317.133 350.298C317.133 351.18 316.769 351.88 316.055 352.37Z" fill="#1A3341"/>
<path d="M291 365C291 363.895 291.895 363 293 363H321C322.105 363 323 363.895 323 365V422H291V365Z" fill="url(#paint43_linear_4001_19849)"/>
<path opacity="0.2" d="M303 363H311V422H303V363Z" fill="url(#paint44_linear_4001_19849)"/>
<path opacity="0.04" d="M311 363H321C322.105 363 323 363.895 323 365V422H311V363Z" fill="#0D262C"/>
<path opacity="0.5" d="M291 365C291 363.895 291.895 363 293 363H303V422H291V365Z" fill="url(#paint45_linear_4001_19849)"/>
<path d="M258.834 336.492L257.826 336.226L258.4 331.2H264.56V332.39H259.478L259.114 335.022C259.604 334.658 260.346 334.476 261.34 334.476C262.488 334.476 263.384 334.784 264.042 335.386C264.686 336.002 265.008 336.786 265.008 337.752C265.008 338.718 264.644 339.53 263.93 340.16C263.202 340.804 262.292 341.126 261.214 341.126C259.38 341.126 257.854 340.258 257.224 338.732L258.344 338.256C258.75 339.194 259.8 339.936 261.214 339.936C262.824 339.936 263.72 339.012 263.72 337.794C263.72 336.492 262.67 335.652 261.004 335.652C260.108 335.652 259.38 335.932 258.834 336.492ZM267.009 341C266.491 341.056 266.099 340.762 266.099 340.258C266.099 339.768 266.407 339.46 266.953 339.46C267.569 339.46 267.975 339.88 267.975 340.664C267.975 342.064 267.205 342.778 266.183 343.016L265.889 342.358C266.197 342.274 266.477 342.106 266.729 341.84C266.967 341.574 267.065 341.294 267.009 341ZM270.421 336.492L269.413 336.226L269.987 331.2H276.147V332.39H271.065L270.701 335.022C271.191 334.658 271.933 334.476 272.927 334.476C274.075 334.476 274.971 334.784 275.629 335.386C276.273 336.002 276.595 336.786 276.595 337.752C276.595 338.718 276.231 339.53 275.517 340.16C274.789 340.804 273.879 341.126 272.801 341.126C270.967 341.126 269.441 340.258 268.811 338.732L269.931 338.256C270.337 339.194 271.387 339.936 272.801 339.936C274.411 339.936 275.307 339.012 275.307 337.794C275.307 336.492 274.257 335.652 272.591 335.652C271.695 335.652 270.967 335.932 270.421 336.492Z" fill="#1A3341"/>
<path d="M251 353C251 351.895 251.895 351 253 351H281C282.105 351 283 351.895 283 353V422H251V353Z" fill="url(#paint46_linear_4001_19849)"/>
<path opacity="0.2" d="M263 351H271V422H263V351Z" fill="url(#paint47_linear_4001_19849)"/>
<path opacity="0.04" d="M271 351H281C282.105 351 283 351.895 283 353V422H271V351Z" fill="#0D262C"/>
<path opacity="0.5" d="M251 353C251 351.895 251.895 351 253 351H263V422H251V353Z" fill="url(#paint48_linear_4001_19849)"/>
<line x1="-4.37114e-08" y1="422.5" x2="335" y2="422.5" stroke="#ABBEC9"/>
<path d="M33.5271 498.372L32.6511 498.06C32.9511 496.572 34.0791 495.504 35.8671 495.504C37.5951 495.504 38.6511 496.5 38.6511 498.024C38.6511 498.828 38.3031 499.632 37.8711 500.208C37.6551 500.508 37.3791 500.796 37.0551 501.096C36.3951 501.684 35.9271 501.996 35.2431 502.428L34.3191 503.004H38.9631V504H32.4231V503.184L34.2471 501.972C34.5711 501.768 34.7991 501.612 34.9311 501.516C35.0631 501.432 35.2791 501.276 35.5671 501.072C35.8551 500.868 36.0711 500.688 36.2151 500.556C36.3471 500.424 36.5271 500.256 36.7311 500.04C37.2831 499.44 37.4871 498.888 37.5471 498.132C37.5471 497.04 36.8391 496.548 35.7951 496.548C35.1471 496.548 34.6311 496.728 34.2591 497.088C33.8871 497.448 33.6351 497.88 33.5271 498.372ZM39.7948 499.8C39.7948 498.504 40.0948 497.46 40.7068 496.68C41.3068 495.9 42.1948 495.504 43.3588 495.504C45.7468 495.504 46.9348 497.076 46.9348 499.8C46.9348 501.108 46.6348 502.14 46.0468 502.92C45.4468 503.7 44.5588 504.096 43.3828 504.096C42.2548 504.096 41.3788 503.7 40.7428 502.908C40.1068 502.116 39.7948 501.084 39.7948 499.8ZM40.8988 499.8C40.8988 501.852 41.8348 503.076 43.3828 503.076C45.0148 503.076 45.8308 501.984 45.8308 499.8C45.8308 497.616 45.0028 496.524 43.3588 496.524C41.6908 496.524 40.8988 497.724 40.8988 499.8ZM48.791 498.372L47.915 498.06C48.215 496.572 49.343 495.504 51.131 495.504C52.859 495.504 53.915 496.5 53.915 498.024C53.915 498.828 53.567 499.632 53.135 500.208C52.919 500.508 52.643 500.796 52.319 501.096C51.659 501.684 51.191 501.996 50.507 502.428L49.583 503.004H54.227V504H47.687V503.184L49.511 501.972C49.835 501.768 50.063 501.612 50.195 501.516C50.327 501.432 50.543 501.276 50.831 501.072C51.119 500.868 51.335 500.688 51.479 500.556C51.611 500.424 51.791 500.256 51.995 500.04C52.547 499.44 52.751 498.888 52.811 498.132C52.811 497.04 52.103 496.548 51.059 496.548C50.411 496.548 49.895 496.728 49.523 497.088C49.151 497.448 48.899 497.88 48.791 498.372ZM55.8867 498.048L54.9867 497.64C55.4307 496.344 56.5947 495.492 58.3347 495.492C59.1627 495.492 59.8467 495.684 60.3747 496.068C60.9027 496.452 61.1667 496.968 61.1667 497.604C61.1667 498.576 60.6507 499.296 59.6907 499.572C60.6147 499.632 61.3587 500.328 61.3587 501.576C61.3587 502.368 61.0707 502.992 60.4947 503.436C59.9187 503.88 59.1867 504.108 58.2867 504.108C56.4507 504.108 55.1787 503.232 54.7587 501.852L55.7307 501.432C56.2467 502.524 57.1227 503.076 58.3587 503.076C59.5227 503.076 60.2547 502.536 60.2547 501.588C60.2547 500.664 59.5347 500.196 58.0947 500.196H57.1587V499.2H57.9027C59.2107 499.2 60.0627 498.612 60.0627 497.808C60.0627 496.98 59.3787 496.512 58.2867 496.512C57.0027 496.512 56.2227 497.172 55.8867 498.048ZM40.4256 513.8C40.4256 512.588 40.8336 511.556 41.6616 510.728C42.4896 509.9 43.4976 509.492 44.6976 509.492C45.8856 509.492 46.8936 509.9 47.7216 510.716C48.5496 511.532 48.9576 512.564 48.9576 513.8C48.9576 514.988 48.5136 516.044 47.6256 516.944L48.4656 517.952L47.7216 518.576L46.8576 517.532C46.1736 517.916 45.4536 518.108 44.6976 518.108C43.4736 518.108 42.4536 517.7 41.6496 516.884C40.8336 516.08 40.4256 515.048 40.4256 513.8ZM41.5656 513.8C41.5656 514.748 41.8656 515.528 42.4656 516.14C43.0656 516.752 43.8096 517.064 44.6976 517.064C45.2376 517.064 45.7296 516.932 46.1976 516.656L45.4776 515.792L46.1736 515.18L46.9416 516.104C47.5296 515.492 47.8176 514.724 47.8176 513.8C47.8176 512.852 47.5176 512.072 46.9176 511.46C46.3176 510.848 45.5736 510.536 44.6976 510.536C43.8096 510.536 43.0656 510.836 42.4656 511.448C41.8656 512.06 41.5656 512.852 41.5656 513.8ZM49.692 511.832L49.308 510.932L52.188 509.552H52.872V518H51.84V510.836L49.692 511.832Z" fill="#76848D"/>
<path d="M119.119 513.8C119.119 512.588 119.527 511.556 120.355 510.728C121.183 509.9 122.191 509.492 123.391 509.492C124.579 509.492 125.587 509.9 126.415 510.716C127.243 511.532 127.651 512.564 127.651 513.8C127.651 514.988 127.207 516.044 126.319 516.944L127.159 517.952L126.415 518.576L125.551 517.532C124.867 517.916 124.147 518.108 123.391 518.108C122.167 518.108 121.147 517.7 120.343 516.884C119.527 516.08 119.119 515.048 119.119 513.8ZM120.259 513.8C120.259 514.748 120.559 515.528 121.159 516.14C121.759 516.752 122.503 517.064 123.391 517.064C123.931 517.064 124.423 516.932 124.891 516.656L124.171 515.792L124.867 515.18L125.635 516.104C126.223 515.492 126.511 514.724 126.511 513.8C126.511 512.852 126.211 512.072 125.611 511.46C125.011 510.848 124.267 510.536 123.391 510.536C122.503 510.536 121.759 510.836 121.159 511.448C120.559 512.06 120.259 512.852 120.259 513.8ZM129.441 512.372L128.565 512.06C128.865 510.572 129.993 509.504 131.781 509.504C133.509 509.504 134.565 510.5 134.565 512.024C134.565 512.828 134.217 513.632 133.785 514.208C133.569 514.508 133.293 514.796 132.969 515.096C132.309 515.684 131.841 515.996 131.157 516.428L130.233 517.004H134.877V518H128.337V517.184L130.161 515.972C130.485 515.768 130.713 515.612 130.845 515.516C130.977 515.432 131.193 515.276 131.481 515.072C131.769 514.868 131.985 514.688 132.129 514.556C132.261 514.424 132.441 514.256 132.645 514.04C133.197 513.44 133.401 512.888 133.461 512.132C133.461 511.04 132.753 510.548 131.709 510.548C131.061 510.548 130.545 510.728 130.173 511.088C129.801 511.448 129.549 511.88 129.441 512.372Z" fill="#76848D"/>
<path d="M199.09 513.8C199.09 512.588 199.498 511.556 200.326 510.728C201.154 509.9 202.162 509.492 203.362 509.492C204.55 509.492 205.558 509.9 206.386 510.716C207.214 511.532 207.622 512.564 207.622 513.8C207.622 514.988 207.178 516.044 206.29 516.944L207.13 517.952L206.386 518.576L205.522 517.532C204.838 517.916 204.118 518.108 203.362 518.108C202.138 518.108 201.118 517.7 200.314 516.884C199.498 516.08 199.09 515.048 199.09 513.8ZM200.23 513.8C200.23 514.748 200.53 515.528 201.13 516.14C201.73 516.752 202.474 517.064 203.362 517.064C203.902 517.064 204.394 516.932 204.862 516.656L204.142 515.792L204.838 515.18L205.606 516.104C206.194 515.492 206.482 514.724 206.482 513.8C206.482 512.852 206.182 512.072 205.582 511.46C204.982 510.848 204.238 510.536 203.362 510.536C202.474 510.536 201.73 510.836 201.13 511.448C200.53 512.06 200.23 512.852 200.23 513.8ZM209.28 512.048L208.38 511.64C208.824 510.344 209.988 509.492 211.728 509.492C212.556 509.492 213.24 509.684 213.768 510.068C214.296 510.452 214.56 510.968 214.56 511.604C214.56 512.576 214.044 513.296 213.084 513.572C214.008 513.632 214.752 514.328 214.752 515.576C214.752 516.368 214.464 516.992 213.888 517.436C213.312 517.88 212.58 518.108 211.68 518.108C209.844 518.108 208.572 517.232 208.152 515.852L209.124 515.432C209.64 516.524 210.516 517.076 211.752 517.076C212.916 517.076 213.648 516.536 213.648 515.588C213.648 514.664 212.928 514.196 211.488 514.196H210.552V513.2H211.296C212.604 513.2 213.456 512.612 213.456 511.808C213.456 510.98 212.772 510.512 211.68 510.512C210.396 510.512 209.616 511.172 209.28 512.048Z" fill="#76848D"/>
<path d="M278.762 513.8C278.762 512.588 279.17 511.556 279.998 510.728C280.826 509.9 281.834 509.492 283.034 509.492C284.222 509.492 285.23 509.9 286.058 510.716C286.886 511.532 287.294 512.564 287.294 513.8C287.294 514.988 286.85 516.044 285.962 516.944L286.802 517.952L286.058 518.576L285.194 517.532C284.51 517.916 283.79 518.108 283.034 518.108C281.81 518.108 280.79 517.7 279.986 516.884C279.17 516.08 278.762 515.048 278.762 513.8ZM279.902 513.8C279.902 514.748 280.202 515.528 280.802 516.14C281.402 516.752 282.146 517.064 283.034 517.064C283.574 517.064 284.066 516.932 284.534 516.656L283.814 515.792L284.51 515.18L285.278 516.104C285.866 515.492 286.154 514.724 286.154 513.8C286.154 512.852 285.854 512.072 285.254 511.46C284.654 510.848 283.91 510.536 283.034 510.536C282.146 510.536 281.402 510.836 280.802 511.448C280.202 512.06 279.902 512.852 279.902 513.8ZM293.92 518H292.876V516.284H287.74V515.588L292.996 509.6H293.92V515.312H295.48V516.284H293.92V518ZM292.876 511.28L289.18 515.312H292.876V511.28Z" fill="#76848D"/>
<defs>
<linearGradient id="paint0_linear_4001_19849" x1="0.476191" y1="12" x2="10" y2="12" gradientUnits="userSpaceOnUse">
<stop offset="0" stop-color="#CEE8EF"/>
<stop offset="1" stop-color="#CEE8EF"/>
</linearGradient>
<linearGradient id="paint1_linear_4001_19849" x1="27" y1="64" x2="27" y2="102" gradientUnits="userSpaceOnUse">
<stop offset="0" stop-color="#CDE3E9"/>
<stop offset="1" stop-color="#D3E8ED"/>
</linearGradient>
<linearGradient id="paint2_linear_4001_19849" x1="27" y1="64" x2="27" y2="102" gradientUnits="userSpaceOnUse">
<stop offset="0" stop-color="white" stop-opacity="0"/>
<stop offset="0.739583" stop-color="white"/>
</linearGradient>
<linearGradient id="paint3_linear_4001_19849" x1="17" y1="-10.1" x2="17" y2="102" gradientUnits="userSpaceOnUse">
<stop offset="0" stop-color="white" stop-opacity="0.05"/>
<stop offset="0.75" stop-color="white" stop-opacity="0.8"/>
</linearGradient>
<linearGradient id="paint4_linear_4001_19849" x1="67" y1="107" x2="67" y2="102" gradientUnits="userSpaceOnUse">
<stop offset="0" stop-color="#6D73F9"/>
<stop offset="1" stop-color="#9BB8F1"/>
</linearGradient>
<linearGradient id="paint5_linear_4001_19849" x1="67" y1="107" x2="67" y2="102" gradientUnits="userSpaceOnUse">
<stop offset="0" stop-color="white" stop-opacity="0"/>
<stop offset="0.739583" stop-color="white"/>
</linearGradient>
<linearGradient id="paint6_linear_4001_19849" x1="57" y1="116.75" x2="57" y2="102" gradientUnits="userSpaceOnUse">
<stop offset="0" stop-color="white" stop-opacity="0.05"/>
<stop offset="0.75" stop-color="white" stop-opacity="0.8"/>
</linearGradient>
<linearGradient id="paint7_linear_4001_19849" x1="267" y1="138" x2="267" y2="102" gradientUnits="userSpaceOnUse">
<stop offset="0" stop-color="#CDE3E9"/>
<stop offset="1" stop-color="#D3E8ED"/>
</linearGradient>
<linearGradient id="paint8_linear_4001_19849" x1="267" y1="138" x2="267" y2="102" gradientUnits="userSpaceOnUse">
<stop offset="0" stop-color="white" stop-opacity="0"/>
<stop offset="0.739583" stop-color="white"/>
</linearGradient>
<linearGradient id="paint9_linear_4001_19849" x1="257" y1="208.2" x2="257" y2="102" gradientUnits="userSpaceOnUse">
<stop offset="0" stop-color="white" stop-opacity="0.05"/>
<stop offset="0.75" stop-color="white" stop-opacity="0.8"/>
</linearGradient>
<linearGradient id="paint10_linear_4001_19849" x1="307" y1="161" x2="307" y2="102" gradientUnits="userSpaceOnUse">
<stop offset="0" stop-color="#6D73F9"/>
<stop offset="1" stop-color="#9BB8F1"/>
</linearGradient>
<linearGradient id="paint11_linear_4001_19849" x1="307" y1="161" x2="307" y2="102" gradientUnits="userSpaceOnUse">
<stop offset="0" stop-color="white" stop-opacity="0"/>
<stop offset="0.739583" stop-color="white"/>
</linearGradient>
<linearGradient id="paint12_linear_4001_19849" x1="297" y1="276.05" x2="297" y2="102" gradientUnits="userSpaceOnUse">
<stop offset="0" stop-color="white" stop-opacity="0.05"/>
<stop offset="0.75" stop-color="white" stop-opacity="0.8"/>
</linearGradient>
<linearGradient id="paint13_linear_4001_19849" x1="107" y1="161" x2="107" y2="102" gradientUnits="userSpaceOnUse">
<stop offset="0" stop-color="#CDE3E9"/>
<stop offset="1" stop-color="#D3E8ED"/>
</linearGradient>
<linearGradient id="paint14_linear_4001_19849" x1="107" y1="161" x2="107" y2="102" gradientUnits="userSpaceOnUse">
<stop offset="0" stop-color="white" stop-opacity="0"/>
<stop offset="0.739583" stop-color="white"/>
</linearGradient>
<linearGradient id="paint15_linear_4001_19849" x1="97" y1="276.05" x2="97" y2="102" gradientUnits="userSpaceOnUse">
<stop offset="0" stop-color="white" stop-opacity="0.05"/>
<stop offset="0.75" stop-color="white" stop-opacity="0.8"/>
</linearGradient>
<linearGradient id="paint16_linear_4001_19849" x1="147" y1="205" x2="147" y2="102" gradientUnits="userSpaceOnUse">
<stop offset="0" stop-color="#6D73F9"/>
<stop offset="1" stop-color="#9BB8F1"/>
</linearGradient>
<linearGradient id="paint17_linear_4001_19849" x1="147" y1="205" x2="147" y2="102" gradientUnits="userSpaceOnUse">
<stop offset="0" stop-color="white" stop-opacity="0"/>
<stop offset="0.739583" stop-color="white"/>
</linearGradient>
<linearGradient id="paint18_linear_4001_19849" x1="137" y1="405.85" x2="137" y2="102" gradientUnits="userSpaceOnUse">
<stop offset="0" stop-color="white" stop-opacity="0.05"/>
<stop offset="0.75" stop-color="white" stop-opacity="0.8"/>
</linearGradient>
<linearGradient id="paint19_linear_4001_19849" x1="187" y1="148" x2="187" y2="102" gradientUnits="userSpaceOnUse">
<stop offset="0" stop-color="#CDE3E9"/>
<stop offset="1" stop-color="#D3E8ED"/>
</linearGradient>
<linearGradient id="paint20_linear_4001_19849" x1="187" y1="148" x2="187" y2="102" gradientUnits="userSpaceOnUse">
<stop offset="0" stop-color="white" stop-opacity="0"/>
<stop offset="0.739583" stop-color="white"/>
</linearGradient>
<linearGradient id="paint21_linear_4001_19849" x1="177" y1="237.7" x2="177" y2="102" gradientUnits="userSpaceOnUse">
<stop offset="0" stop-color="white" stop-opacity="0.05"/>
<stop offset="0.75" stop-color="white" stop-opacity="0.8"/>
</linearGradient>
<linearGradient id="paint22_linear_4001_19849" x1="227" y1="171" x2="227" y2="102" gradientUnits="userSpaceOnUse">
<stop offset="0" stop-color="#6D73F9"/>
<stop offset="1" stop-color="#9BB8F1"/>
</linearGradient>
<linearGradient id="paint23_linear_4001_19849" x1="227" y1="171" x2="227" y2="102" gradientUnits="userSpaceOnUse">
<stop offset="0" stop-color="white" stop-opacity="0"/>
<stop offset="0.739583" stop-color="white"/>
</linearGradient>
<linearGradient id="paint24_linear_4001_19849" x1="217" y1="305.55" x2="217" y2="102" gradientUnits="userSpaceOnUse">
<stop offset="0" stop-color="white" stop-opacity="0.05"/>
<stop offset="0.75" stop-color="white" stop-opacity="0.8"/>
</linearGradient>
<linearGradient id="paint25_linear_4001_19849" x1="27" y1="446" x2="27" y2="422" gradientUnits="userSpaceOnUse">
<stop offset="0" stop-color="#CDE3E9"/>
<stop offset="1" stop-color="#D3E8ED"/>
</linearGradient>
<linearGradient id="paint26_linear_4001_19849" x1="27" y1="446" x2="27" y2="422" gradientUnits="userSpaceOnUse">
<stop offset="0" stop-color="white" stop-opacity="0"/>
<stop offset="0.739583" stop-color="white"/>
</linearGradient>
<linearGradient id="paint27_linear_4001_19849" x1="17" y1="492.8" x2="17" y2="422" gradientUnits="userSpaceOnUse">
<stop offset="0" stop-color="white" stop-opacity="0.05"/>
<stop offset="0.75" stop-color="white" stop-opacity="0.8"/>
</linearGradient>
<linearGradient id="paint28_linear_4001_19849" x1="67" y1="447" x2="67" y2="422" gradientUnits="userSpaceOnUse">
<stop offset="0" stop-color="#6D73F9"/>
<stop offset="1" stop-color="#9BB8F1"/>
</linearGradient>
<linearGradient id="paint29_linear_4001_19849" x1="67" y1="447" x2="67" y2="422" gradientUnits="userSpaceOnUse">
<stop offset="0" stop-color="white" stop-opacity="0"/>
<stop offset="0.739583" stop-color="white"/>
</linearGradient>
<linearGradient id="paint30_linear_4001_19849" x1="57" y1="495.75" x2="57" y2="422" gradientUnits="userSpaceOnUse">
<stop offset="0" stop-color="white" stop-opacity="0.05"/>
<stop offset="0.75" stop-color="white" stop-opacity="0.8"/>
</linearGradient>
<linearGradient id="paint31_linear_4001_19849" x1="107" y1="359" x2="107" y2="422" gradientUnits="userSpaceOnUse">
<stop offset="0" stop-color="#CDE3E9"/>
<stop offset="1" stop-color="#D3E8ED"/>
</linearGradient>
<linearGradient id="paint32_linear_4001_19849" x1="107" y1="359" x2="107" y2="422" gradientUnits="userSpaceOnUse">
<stop offset="0" stop-color="white" stop-opacity="0"/>
<stop offset="0.739583" stop-color="white"/>
</linearGradient>
<linearGradient id="paint33_linear_4001_19849" x1="97" y1="236.15" x2="97" y2="422" gradientUnits="userSpaceOnUse">
<stop offset="0" stop-color="white" stop-opacity="0.05"/>
<stop offset="0.75" stop-color="white" stop-opacity="0.8"/>
</linearGradient>
<linearGradient id="paint34_linear_4001_19849" x1="187" y1="356" x2="187" y2="422" gradientUnits="userSpaceOnUse">
<stop offset="0" stop-color="#CDE3E9"/>
<stop offset="1" stop-color="#D3E8ED"/>
</linearGradient>
<linearGradient id="paint35_linear_4001_19849" x1="187" y1="356" x2="187" y2="422" gradientUnits="userSpaceOnUse">
<stop offset="0" stop-color="white" stop-opacity="0"/>
<stop offset="0.739583" stop-color="white"/>
</linearGradient>
<linearGradient id="paint36_linear_4001_19849" x1="177" y1="227.3" x2="177" y2="422" gradientUnits="userSpaceOnUse">
<stop offset="0" stop-color="white" stop-opacity="0.05"/>
<stop offset="0.75" stop-color="white" stop-opacity="0.8"/>
</linearGradient>
<linearGradient id="paint37_linear_4001_19849" x1="147" y1="343" x2="147" y2="422" gradientUnits="userSpaceOnUse">
<stop offset="0" stop-color="#6D73F9"/>
<stop offset="1" stop-color="#9BB8F1"/>
</linearGradient>
<linearGradient id="paint38_linear_4001_19849" x1="147" y1="343" x2="147" y2="422" gradientUnits="userSpaceOnUse">
<stop offset="0" stop-color="white" stop-opacity="0"/>
<stop offset="0.739583" stop-color="white"/>
</linearGradient>
<linearGradient id="paint39_linear_4001_19849" x1="137" y1="188.95" x2="137" y2="422" gradientUnits="userSpaceOnUse">
<stop offset="0" stop-color="white" stop-opacity="0.05"/>
<stop offset="0.75" stop-color="white" stop-opacity="0.8"/>
</linearGradient>
<linearGradient id="paint40_linear_4001_19849" x1="227" y1="342" x2="227" y2="422" gradientUnits="userSpaceOnUse">
<stop offset="0" stop-color="#6D73F9"/>
<stop offset="1" stop-color="#9BB8F1"/>
</linearGradient>
<linearGradient id="paint41_linear_4001_19849" x1="227" y1="342" x2="227" y2="422" gradientUnits="userSpaceOnUse">
<stop offset="0" stop-color="white" stop-opacity="0"/>
<stop offset="0.739583" stop-color="white"/>
</linearGradient>
<linearGradient id="paint42_linear_4001_19849" x1="217" y1="186" x2="217" y2="422" gradientUnits="userSpaceOnUse">
<stop offset="0" stop-color="white" stop-opacity="0.05"/>
<stop offset="0.75" stop-color="white" stop-opacity="0.8"/>
</linearGradient>
<linearGradient id="paint43_linear_4001_19849" x1="307" y1="363" x2="307" y2="422" gradientUnits="userSpaceOnUse">
<stop offset="0" stop-color="#6D73F9"/>
<stop offset="1" stop-color="#9BB8F1"/>
</linearGradient>
<linearGradient id="paint44_linear_4001_19849" x1="307" y1="363" x2="307" y2="422" gradientUnits="userSpaceOnUse">
<stop offset="0" stop-color="white" stop-opacity="0"/>
<stop offset="0.739583" stop-color="white"/>
</linearGradient>
<linearGradient id="paint45_linear_4001_19849" x1="297" y1="247.95" x2="297" y2="422" gradientUnits="userSpaceOnUse">
<stop offset="0" stop-color="white" stop-opacity="0.05"/>
<stop offset="0.75" stop-color="white" stop-opacity="0.8"/>
</linearGradient>
<linearGradient id="paint46_linear_4001_19849" x1="267" y1="351" x2="267" y2="422" gradientUnits="userSpaceOnUse">
<stop offset="0" stop-color="#CDE3E9"/>
<stop offset="1" stop-color="#D3E8ED"/>
</linearGradient>
<linearGradient id="paint47_linear_4001_19849" x1="267" y1="351" x2="267" y2="422" gradientUnits="userSpaceOnUse">
<stop offset="0" stop-color="white" stop-opacity="0"/>
<stop offset="0.739583" stop-color="white"/>
</linearGradient>
<linearGradient id="paint48_linear_4001_19849" x1="257" y1="212.55" x2="257" y2="422" gradientUnits="userSpaceOnUse">
<stop offset="0" stop-color="white" stop-opacity="0.05"/>
<stop offset="0.75" stop-color="white" stop-opacity="0.8"/>
</linearGradient>
</defs>
</svg>
