<svg width="1117" height="755" viewBox="0 0 1117 755" fill="none" xmlns="http://www.w3.org/2000/svg">
<path opacity="0.6" d="M20.3865 57H19.2945V53.892H17.0385L14.4825 57H13.1625L15.8865 53.712C14.5425 53.436 13.7265 52.536 13.7265 51.24C13.7265 50.472 14.0145 49.836 14.5785 49.344C15.1425 48.852 15.9585 48.6 17.0385 48.6H20.3865V57ZM16.7265 52.872H19.2945V49.62H16.9305C15.5265 49.62 14.8665 50.256 14.8665 51.264C14.8665 52.128 15.5745 52.788 16.7265 52.872ZM27.4999 57H26.4919V54.3H22.8919V57H21.8839V50.76H22.8919V53.352H26.4919V50.76H27.4999V57ZM31.626 57H28.842V50.76H31.434C33.174 50.76 33.99 51.204 33.99 52.356C33.99 52.932 33.726 53.388 33.186 53.712C33.858 53.916 34.194 54.408 34.194 55.212C34.194 56.376 33.27 57 31.626 57ZM31.638 54.276H29.85V56.064H31.518C32.586 56.064 33.126 55.764 33.126 55.164C33.126 54.576 32.634 54.276 31.638 54.276ZM31.398 51.696H29.85V53.364H31.746C32.478 53.364 32.922 53.064 32.922 52.5C32.922 51.864 32.406 51.696 31.398 51.696ZM35.7293 52.26L35.2133 51.504C35.7893 50.964 36.7853 50.616 37.7093 50.616C39.3773 50.616 40.2653 51.528 40.2653 53.148V57H39.2573V56.076C38.8613 56.652 38.0813 57.084 37.0733 57.084C35.7173 57.084 34.8053 56.328 34.8053 55.176C34.8053 53.868 35.9213 53.244 37.7933 53.244C38.3813 53.244 38.8613 53.304 39.2573 53.424C39.2573 52.212 38.8253 51.564 37.5893 51.564C36.9653 51.564 36.3413 51.792 35.7293 52.26ZM37.3133 56.172C37.7813 56.172 38.2013 56.04 38.5493 55.788C38.8973 55.536 39.1253 55.248 39.2573 54.948V54.312C38.9093 54.192 38.4653 54.132 37.9253 54.132C36.5573 54.132 35.8733 54.468 35.8733 55.14C35.8733 55.776 36.4493 56.172 37.3133 56.172ZM42.5475 59.4H41.5395V50.76H42.5475V51.54C42.9675 50.928 43.6395 50.616 44.5635 50.616C45.4755 50.616 46.2075 50.904 46.7475 51.492C47.2875 52.08 47.5515 52.836 47.5515 53.772C47.5515 54.732 47.2635 55.524 46.6875 56.16C46.0995 56.796 45.3555 57.108 44.4435 57.108C43.6035 57.108 42.9675 56.892 42.5475 56.472V59.4ZM44.4555 51.564C43.5435 51.564 42.8355 52.152 42.5475 52.86V55.188C42.9075 55.836 43.5075 56.16 44.3595 56.16C44.9715 56.16 45.4875 55.944 45.8835 55.512C46.2795 55.08 46.4835 54.528 46.4835 53.844C46.4835 52.452 45.7035 51.564 44.4555 51.564ZM51.0645 57H48.5445V50.76H49.5525V52.704H51.1605C52.8645 52.704 53.7165 53.412 53.7165 54.84C53.7165 56.1 52.9245 57 51.0645 57ZM51.0285 53.664H49.5525V56.04H51.0285C52.1805 56.04 52.6485 55.632 52.6485 54.852C52.6485 54.06 52.1085 53.664 51.0285 53.664Z" fill="#1A3341"/>
<path opacity="0.6" d="M29.7017 404.496L24.6017 411H23.6777V402.6H24.7697V409.104L29.8577 402.6H30.7937V411H29.7017V404.496ZM33.3159 411H32.3079V404.76H33.3159V407.316H34.5639C34.6839 406.512 35.0319 405.852 35.6079 405.36C36.1719 404.868 36.8799 404.616 37.7199 404.616C38.6679 404.616 39.4359 404.916 40.0359 405.528C40.6239 406.14 40.9239 406.92 40.9239 407.868C40.9239 408.816 40.6239 409.584 40.0239 410.196C39.4239 410.808 38.6559 411.108 37.7199 411.108C36.8439 411.108 36.1239 410.844 35.5479 410.328C34.9719 409.812 34.6359 409.128 34.5519 408.276H33.3159V411ZM35.5959 407.868C35.5959 408.54 35.7999 409.08 36.2079 409.5C36.6039 409.92 37.1199 410.124 37.7319 410.124C38.9799 410.124 39.8559 409.224 39.8559 407.868C39.8559 407.196 39.6639 406.644 39.2679 406.224C38.8719 405.804 38.3559 405.6 37.7319 405.6C37.1199 405.6 36.6159 405.816 36.2079 406.236C35.7999 406.656 35.5959 407.208 35.5959 407.868ZM47.1979 411H46.1899V405.72H43.5499V406.008C43.5499 408.024 43.3219 409.416 42.8659 410.136C42.4099 410.856 41.8459 411.096 41.0659 411V410.04C41.8699 410.04 42.5419 409.692 42.5419 406.044V404.76H47.1979V411ZM51.0645 411H48.5445V404.76H49.5525V406.704H51.1605C52.8645 406.704 53.7165 407.412 53.7165 408.84C53.7165 410.1 52.9245 411 51.0645 411ZM51.0285 407.664H49.5525V410.04H51.0285C52.1805 410.04 52.6485 409.632 52.6485 408.852C52.6485 408.06 52.1085 407.664 51.0285 407.664Z" fill="#1A3341"/>
<path opacity="0.6" d="M13.5639 234H12.4479L16.1319 225.576H16.9959L20.6799 234H19.5399L18.6039 231.876H14.4879L13.5639 234ZM18.1959 230.916L16.5399 227.1L14.8959 230.916H18.1959ZM26.8537 234H25.8457V228.708H22.3177V234H21.3097V227.76H26.8537V234ZM29.2055 236.4H28.1975V227.76H29.2055V228.54C29.6255 227.928 30.2975 227.616 31.2215 227.616C32.1335 227.616 32.8655 227.904 33.4055 228.492C33.9455 229.08 34.2095 229.836 34.2095 230.772C34.2095 231.732 33.9215 232.524 33.3455 233.16C32.7575 233.796 32.0135 234.108 31.1015 234.108C30.2615 234.108 29.6255 233.892 29.2055 233.472V236.4ZM31.1135 228.564C30.2015 228.564 29.4935 229.152 29.2055 229.86V232.188C29.5655 232.836 30.1655 233.16 31.0175 233.16C31.6295 233.16 32.1455 232.944 32.5415 232.512C32.9375 232.08 33.1415 231.528 33.1415 230.844C33.1415 229.452 32.3615 228.564 31.1135 228.564ZM40.0265 232.212L40.6745 232.812C40.0985 233.676 39.2705 234.108 38.1785 234.108C37.1825 234.108 36.3785 233.808 35.7665 233.22C35.1545 232.632 34.8545 231.852 34.8545 230.868C34.8545 229.92 35.1305 229.14 35.6945 228.528C36.2465 227.916 37.0265 227.616 38.0345 227.616C38.8625 227.616 39.5585 227.88 40.0985 228.396C40.6385 228.912 40.9145 229.596 40.9145 230.448C40.9145 230.724 40.8905 230.976 40.8545 231.204H35.9345C35.9945 232.44 36.9065 233.16 38.2145 233.16C38.9465 233.16 39.6425 232.776 40.0265 232.212ZM37.9625 228.54C36.8225 228.54 36.0785 229.236 35.9225 230.292H39.8465C39.7865 229.188 39.0785 228.54 37.9625 228.54ZM47.1979 234H46.1899V228.72H43.5499V229.008C43.5499 231.024 43.3219 232.416 42.8659 233.136C42.4099 233.856 41.8459 234.096 41.0659 234V233.04C41.8699 233.04 42.5419 232.692 42.5419 229.044V227.76H47.1979V234ZM51.0645 234H48.5445V227.76H49.5525V229.704H51.1605C52.8645 229.704 53.7165 230.412 53.7165 231.84C53.7165 233.1 52.9245 234 51.0645 234ZM51.0285 230.664H49.5525V233.04H51.0285C52.1805 233.04 52.6485 232.632 52.6485 231.852C52.6485 231.06 52.1085 230.664 51.0285 230.664Z" fill="#1A3341"/>
<path opacity="0.6" d="M6.777 583.8C6.777 582.588 7.185 581.556 8.013 580.728C8.841 579.9 9.849 579.492 11.049 579.492C12.237 579.492 13.245 579.9 14.073 580.716C14.901 581.532 15.309 582.564 15.309 583.8C15.309 585.024 14.901 586.044 14.073 586.872C13.245 587.7 12.237 588.108 11.049 588.108C9.849 588.108 8.841 587.7 8.013 586.884C7.185 586.068 6.777 585.036 6.777 583.8ZM7.917 583.8C7.917 584.736 8.229 585.516 8.841 586.128C9.453 586.752 10.185 587.064 11.049 587.064C11.937 587.064 12.681 586.752 13.281 586.14C13.869 585.528 14.169 584.748 14.169 583.8C14.169 582.852 13.869 582.072 13.257 581.46C12.645 580.848 11.901 580.536 11.049 580.536C10.173 580.536 9.441 580.848 8.829 581.46C8.217 582.072 7.917 582.852 7.917 583.8ZM17.3634 588H16.3554V581.76H17.3634V584.556L20.5194 581.76H21.8754L18.6474 584.628L22.0314 588H20.6874L17.8794 585.252L17.3634 585.732V588ZM24.2198 582.708H21.8318V581.76H27.6398V582.708H25.2278V588H24.2198V582.708ZM30.5643 581.76H33.0723V588H32.0643V585.792H30.5403L28.6923 588H27.4683L29.4603 585.636C28.5003 585.456 27.8643 584.724 27.8643 583.764C27.8643 582.576 28.6923 581.76 30.5643 581.76ZM28.9323 583.788C28.9323 584.4 29.5083 584.832 30.4203 584.832H32.0643V582.72H30.4443C29.4363 582.72 28.9323 583.08 28.9323 583.788ZM39.7453 579.084L39.9253 580.008C39.5773 580.14 39.0253 580.248 38.2453 580.332C37.4653 580.416 36.9253 580.536 36.6253 580.68C35.7253 581.124 35.1973 581.952 35.0653 583.176L35.1133 583.188C35.6293 582.372 36.4693 581.964 37.6213 581.964C38.4973 581.964 39.2053 582.228 39.7453 582.744C40.2853 583.272 40.5493 584.004 40.5493 584.928C40.5493 585.828 40.2493 586.584 39.6613 587.196C39.0733 587.808 38.3053 588.12 37.3813 588.12C35.3533 588.12 34.0933 586.764 34.0933 584.376C34.0933 583.176 34.2493 582.216 34.5613 581.484C34.8613 580.764 35.4133 580.2 36.1933 579.804C36.6133 579.6 37.2373 579.444 38.0653 579.36C38.8933 579.276 39.4573 579.18 39.7453 579.084ZM35.1613 584.556V584.64C35.1613 585.408 35.3653 586.02 35.7853 586.476C36.1933 586.932 36.7213 587.16 37.3693 587.16C38.0053 587.16 38.5093 586.956 38.9053 586.536C39.2893 586.128 39.4813 585.612 39.4813 584.988C39.4813 583.728 38.7373 582.924 37.4053 582.924C36.2533 582.924 35.4133 583.656 35.1613 584.556ZM42.5475 590.4H41.5395V581.76H42.5475V582.54C42.9675 581.928 43.6395 581.616 44.5635 581.616C45.4755 581.616 46.2075 581.904 46.7475 582.492C47.2875 583.08 47.5515 583.836 47.5515 584.772C47.5515 585.732 47.2635 586.524 46.6875 587.16C46.0995 587.796 45.3555 588.108 44.4435 588.108C43.6035 588.108 42.9675 587.892 42.5475 587.472V590.4ZM44.4555 582.564C43.5435 582.564 42.8355 583.152 42.5475 583.86V586.188C42.9075 586.836 43.5075 587.16 44.3595 587.16C44.9715 587.16 45.4875 586.944 45.8835 586.512C46.2795 586.08 46.4835 585.528 46.4835 584.844C46.4835 583.452 45.7035 582.564 44.4555 582.564ZM51.0645 588H48.5445V581.76H49.5525V583.704H51.1605C52.8645 583.704 53.7165 584.412 53.7165 585.84C53.7165 587.1 52.9245 588 51.0645 588ZM51.0285 584.664H49.5525V587.04H51.0285C52.1805 587.04 52.6485 586.632 52.6485 585.852C52.6485 585.06 52.1085 584.664 51.0285 584.664Z" fill="#1A3341"/>
<path opacity="0.6" d="M10.2632 116.18H9.17119V115.16H9.11119C7.81519 115.16 6.79519 114.848 6.05119 114.212C5.29519 113.588 4.92319 112.748 4.92319 111.68C4.92319 110.564 5.30719 109.712 6.08719 109.1C6.85519 108.5 7.88719 108.2 9.17119 108.2V107.42H10.2632V108.2C11.4872 108.2 12.5072 108.5 13.3112 109.1C14.1152 109.7 14.5112 110.564 14.5112 111.68C14.5112 112.748 14.1392 113.588 13.3832 114.212C12.6272 114.848 11.6072 115.16 10.3232 115.16H10.2632V116.18ZM10.2872 109.208H10.2632V114.152H10.3232C12.2432 114.152 13.3832 113.264 13.3832 111.68C13.3832 110.108 12.3152 109.208 10.2872 109.208ZM6.05119 111.68C6.05119 113.18 7.16719 114.152 9.12319 114.152H9.17119V109.208C7.28719 109.208 6.05119 110.048 6.05119 111.68ZM20.2302 114.212L20.8782 114.812C20.3022 115.676 19.4742 116.108 18.3822 116.108C17.3862 116.108 16.5822 115.808 15.9702 115.22C15.3582 114.632 15.0582 113.852 15.0582 112.868C15.0582 111.92 15.3342 111.14 15.8982 110.528C16.4502 109.916 17.2302 109.616 18.2382 109.616C19.0662 109.616 19.7622 109.88 20.3022 110.396C20.8422 110.912 21.1182 111.596 21.1182 112.448C21.1182 112.724 21.0942 112.976 21.0582 113.204H16.1382C16.1982 114.44 17.1102 115.16 18.4182 115.16C19.1502 115.16 19.8462 114.776 20.2302 114.212ZM18.1662 110.54C17.0262 110.54 16.2822 111.236 16.1262 112.292H20.0502C19.9902 111.188 19.2822 110.54 18.1662 110.54ZM24.9023 116H22.1183V109.76H24.7103C26.4503 109.76 27.2663 110.204 27.2663 111.356C27.2663 111.932 27.0023 112.388 26.4623 112.712C27.1343 112.916 27.4703 113.408 27.4703 114.212C27.4703 115.376 26.5463 116 24.9023 116ZM24.9143 113.276H23.1263V115.064H24.7943C25.8623 115.064 26.4023 114.764 26.4023 114.164C26.4023 113.576 25.9103 113.276 24.9143 113.276ZM24.6743 110.696H23.1263V112.364H25.0223C25.7543 112.364 26.1983 112.064 26.1983 111.5C26.1983 110.864 25.6823 110.696 24.6743 110.696ZM29.4867 118.4H28.4787V109.76H29.4867V110.54C29.9067 109.928 30.5787 109.616 31.5027 109.616C32.4147 109.616 33.1467 109.904 33.6867 110.492C34.2267 111.08 34.4907 111.836 34.4907 112.772C34.4907 113.732 34.2027 114.524 33.6267 115.16C33.0387 115.796 32.2947 116.108 31.3827 116.108C30.5427 116.108 29.9067 115.892 29.4867 115.472V118.4ZM31.3947 110.564C30.4827 110.564 29.7747 111.152 29.4867 111.86V114.188C29.8467 114.836 30.4467 115.16 31.2987 115.16C31.9107 115.16 32.4267 114.944 32.8227 114.512C33.2187 114.08 33.4227 113.528 33.4227 112.844C33.4227 111.452 32.6427 110.564 31.3947 110.564ZM35.9637 111.26L35.4477 110.504C36.0237 109.964 37.0197 109.616 37.9437 109.616C39.6117 109.616 40.4997 110.528 40.4997 112.148V116H39.4917V115.076C39.0957 115.652 38.3157 116.084 37.3077 116.084C35.9517 116.084 35.0397 115.328 35.0397 114.176C35.0397 112.868 36.1557 112.244 38.0277 112.244C38.6157 112.244 39.0957 112.304 39.4917 112.424C39.4917 111.212 39.0597 110.564 37.8237 110.564C37.1997 110.564 36.5757 110.792 35.9637 111.26ZM37.5477 115.172C38.0157 115.172 38.4357 115.04 38.7837 114.788C39.1317 114.536 39.3597 114.248 39.4917 113.948V113.312C39.1437 113.192 38.6997 113.132 38.1597 113.132C36.7917 113.132 36.1077 113.468 36.1077 114.14C36.1077 114.776 36.6837 115.172 37.5477 115.172ZM47.1979 116H46.1899V110.72H43.5499V111.008C43.5499 113.024 43.3219 114.416 42.8659 115.136C42.4099 115.856 41.8459 116.096 41.0659 116V115.04C41.8699 115.04 42.5419 114.692 42.5419 111.044V109.76H47.1979V116ZM51.0645 116H48.5445V109.76H49.5525V111.704H51.1605C52.8645 111.704 53.7165 112.412 53.7165 113.84C53.7165 115.1 52.9245 116 51.0645 116ZM51.0285 112.664H49.5525V115.04H51.0285C52.1805 115.04 52.6485 114.632 52.6485 113.852C52.6485 113.06 52.1085 112.664 51.0285 112.664Z" fill="#1A3341"/>
<path opacity="0.6" d="M17.1264 470H16.0104L19.6944 461.576H20.5584L24.2424 470H23.1024L22.1664 467.876H18.0504L17.1264 470ZM21.7584 466.916L20.1024 463.1L18.4584 466.916H21.7584ZM27.6562 470H24.8722V463.76H27.4642C29.2042 463.76 30.0202 464.204 30.0202 465.356C30.0202 465.932 29.7562 466.388 29.2162 466.712C29.8882 466.916 30.2242 467.408 30.2242 468.212C30.2242 469.376 29.3002 470 27.6562 470ZM27.6682 467.276H25.8802V469.064H27.5482C28.6162 469.064 29.1562 468.764 29.1562 468.164C29.1562 467.576 28.6642 467.276 27.6682 467.276ZM27.4282 464.696H25.8802V466.364H27.7762C28.5082 466.364 28.9522 466.064 28.9522 465.5C28.9522 464.864 28.4362 464.696 27.4282 464.696ZM32.2406 470H31.2326V463.76H35.7806V464.708H32.2406V470ZM36.7996 472.376L37.1956 471.5C37.2916 471.536 37.3756 471.56 37.4596 471.56C37.9276 471.56 38.2516 471.236 38.6716 470.24L38.8636 469.772L35.8396 463.76H37.0276L39.3676 468.5L41.1316 463.76H42.2356L39.8596 469.904C39.4516 470.912 39.0676 471.596 38.7196 471.968C38.3596 472.34 37.9516 472.52 37.4956 472.52C37.2316 472.52 37.0036 472.472 36.7996 472.376ZM47.3716 468.2L48.0916 468.716C47.6236 469.592 46.5676 470.108 45.5236 470.108C44.5276 470.108 43.7236 469.808 43.1116 469.22C42.4996 468.632 42.1876 467.852 42.1876 466.868C42.1876 465.932 42.4876 465.152 43.0996 464.54C43.7116 463.928 44.4916 463.616 45.4636 463.616C46.5796 463.616 47.5756 464.12 47.9956 464.888L47.2156 465.416C46.7956 464.852 46.2196 464.564 45.4876 464.564C44.8396 464.564 44.3116 464.78 43.8916 465.212C43.4716 465.644 43.2556 466.196 43.2556 466.868C43.2556 467.552 43.4716 468.104 43.9156 468.524C44.3476 468.944 44.9116 469.16 45.6196 469.16C46.3636 469.16 46.9516 468.836 47.3716 468.2ZM50.5641 464.708H48.1761V463.76H53.9841V464.708H51.5721V470H50.5641V464.708Z" fill="#1A3341"/>
<path opacity="0.6" d="M32.5716 293H31.4796V284.6H32.4876L35.6796 288.824L38.7636 284.6H39.7476V293H38.6556V286.484L35.7876 290.348H35.5236L32.5716 286.484V293ZM41.7265 288.26L41.2105 287.504C41.7865 286.964 42.7825 286.616 43.7065 286.616C45.3745 286.616 46.2625 287.528 46.2625 289.148V293H45.2545V292.076C44.8585 292.652 44.0785 293.084 43.0705 293.084C41.7145 293.084 40.8025 292.328 40.8025 291.176C40.8025 289.868 41.9185 289.244 43.7905 289.244C44.3785 289.244 44.8585 289.304 45.2545 289.424C45.2545 288.212 44.8225 287.564 43.5865 287.564C42.9625 287.564 42.3385 287.792 41.7265 288.26ZM43.3105 292.172C43.7785 292.172 44.1985 292.04 44.5465 291.788C44.8945 291.536 45.1225 291.248 45.2545 290.948V290.312C44.9065 290.192 44.4625 290.132 43.9225 290.132C42.5545 290.132 41.8705 290.468 41.8705 291.14C41.8705 291.776 42.4465 292.172 43.3105 292.172ZM52.2647 288.332L48.4607 293H47.5367V286.76H48.5447V291.44L52.3367 286.76H53.2727V293H52.2647V288.332ZM48.4967 284.072H49.4447C49.4567 284.66 49.8407 285.056 50.5127 285.056C51.1487 285.056 51.5447 284.66 51.5447 284.072H52.4927C52.4807 285.164 51.6287 285.86 50.5127 285.86C49.3127 285.86 48.5087 285.176 48.4967 284.072Z" fill="#1A3341"/>
<path opacity="0.6" d="M19.5393 647H18.4473V643.244H13.4433V647H12.3513V638.6H13.4433V642.224H18.4473V638.6H19.5393V647ZM20.6921 643.868C20.6921 642.92 21.0041 642.14 21.6161 641.528C22.2281 640.916 23.0201 640.616 23.9921 640.616C24.9761 640.616 25.7801 640.916 26.3921 641.528C27.0041 642.14 27.3161 642.92 27.3161 643.868C27.3161 644.816 27.0041 645.584 26.3921 646.196C25.7681 646.808 24.9641 647.108 23.9921 647.108C23.0201 647.108 22.2281 646.808 21.6161 646.196C21.0041 645.584 20.6921 644.816 20.6921 643.868ZM21.7601 643.868C21.7601 644.528 21.9641 645.08 22.3841 645.512C22.8041 645.944 23.3321 646.16 23.9921 646.16C24.6521 646.16 25.2041 645.944 25.6241 645.524C26.0441 645.104 26.2481 644.552 26.2481 643.868C26.2481 643.184 26.0321 642.632 25.6121 642.2C25.1801 641.78 24.6401 641.564 23.9921 641.564C23.3441 641.564 22.8161 641.78 22.3961 642.2C21.9761 642.62 21.7601 643.184 21.7601 643.868ZM30.5643 640.76H33.0723V647H32.0643V644.792H30.5403L28.6923 647H27.4683L29.4603 644.636C28.5003 644.456 27.8643 643.724 27.8643 642.764C27.8643 641.576 28.6923 640.76 30.5643 640.76ZM28.9323 642.788C28.9323 643.4 29.5083 643.832 30.4203 643.832H32.0643V641.72H30.4443C29.4363 641.72 28.9323 642.08 28.9323 642.788ZM39.7453 638.084L39.9253 639.008C39.5773 639.14 39.0253 639.248 38.2453 639.332C37.4653 639.416 36.9253 639.536 36.6253 639.68C35.7253 640.124 35.1973 640.952 35.0653 642.176L35.1133 642.188C35.6293 641.372 36.4693 640.964 37.6213 640.964C38.4973 640.964 39.2053 641.228 39.7453 641.744C40.2853 642.272 40.5493 643.004 40.5493 643.928C40.5493 644.828 40.2493 645.584 39.6613 646.196C39.0733 646.808 38.3053 647.12 37.3813 647.12C35.3533 647.12 34.0933 645.764 34.0933 643.376C34.0933 642.176 34.2493 641.216 34.5613 640.484C34.8613 639.764 35.4133 639.2 36.1933 638.804C36.6133 638.6 37.2373 638.444 38.0653 638.36C38.8933 638.276 39.4573 638.18 39.7453 638.084ZM35.1613 643.556V643.64C35.1613 644.408 35.3653 645.02 35.7853 645.476C36.1933 645.932 36.7213 646.16 37.3693 646.16C38.0053 646.16 38.5093 645.956 38.9053 645.536C39.2893 645.128 39.4813 644.612 39.4813 643.988C39.4813 642.728 38.7373 641.924 37.4053 641.924C36.2533 641.924 35.4133 642.656 35.1613 643.556ZM42.5475 649.4H41.5395V640.76H42.5475V641.54C42.9675 640.928 43.6395 640.616 44.5635 640.616C45.4755 640.616 46.2075 640.904 46.7475 641.492C47.2875 642.08 47.5515 642.836 47.5515 643.772C47.5515 644.732 47.2635 645.524 46.6875 646.16C46.0995 646.796 45.3555 647.108 44.4435 647.108C43.6035 647.108 42.9675 646.892 42.5475 646.472V649.4ZM44.4555 641.564C43.5435 641.564 42.8355 642.152 42.5475 642.86V645.188C42.9075 645.836 43.5075 646.16 44.3595 646.16C44.9715 646.16 45.4875 645.944 45.8835 645.512C46.2795 645.08 46.4835 644.528 46.4835 643.844C46.4835 642.452 45.7035 641.564 44.4555 641.564ZM51.0645 647H48.5445V640.76H49.5525V642.704H51.1605C52.8645 642.704 53.7165 643.412 53.7165 644.84C53.7165 646.1 52.9245 647 51.0645 647ZM51.0285 643.664H49.5525V646.04H51.0285C52.1805 646.04 52.6485 645.632 52.6485 644.852C52.6485 644.06 52.1085 643.664 51.0285 643.664Z" fill="#1A3341"/>
<path opacity="0.6" d="M27.1603 175H26.0683V166.6H27.0763L30.2683 170.824L33.3523 166.6H34.3363V175H33.2443V168.484L30.3763 172.348H30.1123L27.1603 168.484V175ZM36.3153 170.26L35.7993 169.504C36.3753 168.964 37.3713 168.616 38.2953 168.616C39.9633 168.616 40.8513 169.528 40.8513 171.148V175H39.8433V174.076C39.4473 174.652 38.6673 175.084 37.6593 175.084C36.3033 175.084 35.3913 174.328 35.3913 173.176C35.3913 171.868 36.5073 171.244 38.3793 171.244C38.9673 171.244 39.4473 171.304 39.8433 171.424C39.8433 170.212 39.4113 169.564 38.1753 169.564C37.5513 169.564 36.9273 169.792 36.3153 170.26ZM37.8993 174.172C38.3673 174.172 38.7873 174.04 39.1353 173.788C39.4833 173.536 39.7113 173.248 39.8433 172.948V172.312C39.4953 172.192 39.0513 172.132 38.5113 172.132C37.1433 172.132 36.4593 172.468 36.4593 173.14C36.4593 173.776 37.0353 174.172 37.8993 174.172ZM43.1334 177.4H42.1254V168.76H43.1334V169.54C43.5534 168.928 44.2254 168.616 45.1494 168.616C46.0614 168.616 46.7934 168.904 47.3334 169.492C47.8734 170.08 48.1374 170.836 48.1374 171.772C48.1374 172.732 47.8494 173.524 47.2734 174.16C46.6854 174.796 45.9414 175.108 45.0294 175.108C44.1894 175.108 43.5534 174.892 43.1334 174.472V177.4ZM45.0414 169.564C44.1294 169.564 43.4214 170.152 43.1334 170.86V173.188C43.4934 173.836 44.0934 174.16 44.9454 174.16C45.5574 174.16 46.0734 173.944 46.4694 173.512C46.8654 173.08 47.0694 172.528 47.0694 171.844C47.0694 170.452 46.2894 169.564 45.0414 169.564ZM50.5641 169.708H48.1761V168.76H53.9841V169.708H51.5721V175H50.5641V169.708Z" fill="#1A3341"/>
<path opacity="0.6" d="M7.72838 526.936L8.35238 527.632C7.71638 528.532 6.44438 529.108 5.08838 529.108C3.76838 529.108 2.71238 528.712 1.93238 527.932C1.15238 527.152 0.756375 526.108 0.756375 524.8C0.756375 523.564 1.15238 522.544 1.93238 521.716C2.71238 520.9 3.73238 520.492 5.00438 520.492C6.44438 520.492 7.62038 521.068 8.23238 521.884L7.52438 522.568C6.84038 521.884 6.00038 521.536 5.02838 521.536C4.05638 521.536 3.30038 521.836 2.73638 522.436C2.17238 523.036 1.89638 523.828 1.89638 524.8C1.89638 525.784 2.19638 526.576 2.79638 527.164C3.39638 527.764 4.18838 528.064 5.16038 528.064C6.20438 528.064 7.05638 527.692 7.72838 526.936ZM13.7057 527.212L14.3537 527.812C13.7777 528.676 12.9497 529.108 11.8577 529.108C10.8617 529.108 10.0577 528.808 9.44569 528.22C8.83369 527.632 8.53369 526.852 8.53369 525.868C8.53369 524.92 8.80969 524.14 9.37369 523.528C9.92569 522.916 10.7057 522.616 11.7137 522.616C12.5417 522.616 13.2377 522.88 13.7777 523.396C14.3177 523.912 14.5937 524.596 14.5937 525.448C14.5937 525.724 14.5697 525.976 14.5337 526.204H9.61369C9.67369 527.44 10.5857 528.16 11.8937 528.16C12.6257 528.16 13.3217 527.776 13.7057 527.212ZM11.6417 523.54C10.5017 523.54 9.75769 524.236 9.60169 525.292H13.5257C13.4657 524.188 12.7577 523.54 11.6417 523.54ZM21.2097 529H20.2017V526.3H16.6017V529H15.5937V522.76H16.6017V525.352H20.2017V522.76H21.2097V529ZM24.2198 523.708H21.8318V522.76H27.6398V523.708H25.2278V529H24.2198V523.708ZM30.5643 522.76H33.0723V529H32.0643V526.792H30.5403L28.6923 529H27.4683L29.4603 526.636C28.5003 526.456 27.8643 525.724 27.8643 524.764C27.8643 523.576 28.6923 522.76 30.5643 522.76ZM28.9323 524.788C28.9323 525.4 29.5083 525.832 30.4203 525.832H32.0643V523.72H30.4443C29.4363 523.72 28.9323 524.08 28.9323 524.788ZM39.7453 520.084L39.9253 521.008C39.5773 521.14 39.0253 521.248 38.2453 521.332C37.4653 521.416 36.9253 521.536 36.6253 521.68C35.7253 522.124 35.1973 522.952 35.0653 524.176L35.1133 524.188C35.6293 523.372 36.4693 522.964 37.6213 522.964C38.4973 522.964 39.2053 523.228 39.7453 523.744C40.2853 524.272 40.5493 525.004 40.5493 525.928C40.5493 526.828 40.2493 527.584 39.6613 528.196C39.0733 528.808 38.3053 529.12 37.3813 529.12C35.3533 529.12 34.0933 527.764 34.0933 525.376C34.0933 524.176 34.2493 523.216 34.5613 522.484C34.8613 521.764 35.4133 521.2 36.1933 520.804C36.6133 520.6 37.2373 520.444 38.0653 520.36C38.8933 520.276 39.4573 520.18 39.7453 520.084ZM35.1613 525.556V525.64C35.1613 526.408 35.3653 527.02 35.7853 527.476C36.1933 527.932 36.7213 528.16 37.3693 528.16C38.0053 528.16 38.5093 527.956 38.9053 527.536C39.2893 527.128 39.4813 526.612 39.4813 525.988C39.4813 524.728 38.7373 523.924 37.4053 523.924C36.2533 523.924 35.4133 524.656 35.1613 525.556ZM42.5475 531.4H41.5395V522.76H42.5475V523.54C42.9675 522.928 43.6395 522.616 44.5635 522.616C45.4755 522.616 46.2075 522.904 46.7475 523.492C47.2875 524.08 47.5515 524.836 47.5515 525.772C47.5515 526.732 47.2635 527.524 46.6875 528.16C46.0995 528.796 45.3555 529.108 44.4435 529.108C43.6035 529.108 42.9675 528.892 42.5475 528.472V531.4ZM44.4555 523.564C43.5435 523.564 42.8355 524.152 42.5475 524.86V527.188C42.9075 527.836 43.5075 528.16 44.3595 528.16C44.9715 528.16 45.4875 527.944 45.8835 527.512C46.2795 527.08 46.4835 526.528 46.4835 525.844C46.4835 524.452 45.7035 523.564 44.4555 523.564ZM51.0645 529H48.5445V522.76H49.5525V524.704H51.1605C52.8645 524.704 53.7165 525.412 53.7165 526.84C53.7165 528.1 52.9245 529 51.0645 529ZM51.0285 525.664H49.5525V528.04H51.0285C52.1805 528.04 52.6485 527.632 52.6485 526.852C52.6485 526.06 52.1085 525.664 51.0285 525.664Z" fill="#1A3341"/>
<path opacity="0.6" d="M29.3736 345.496L24.2736 352H23.3496V343.6H24.4416V350.104L29.5296 343.6H30.4656V352H29.3736V345.496ZM32.9878 352H31.9798V345.76H32.9878V348.316H34.2358C34.3558 347.512 34.7038 346.852 35.2798 346.36C35.8438 345.868 36.5518 345.616 37.3918 345.616C38.3398 345.616 39.1078 345.916 39.7078 346.528C40.2958 347.14 40.5958 347.92 40.5958 348.868C40.5958 349.816 40.2958 350.584 39.6958 351.196C39.0958 351.808 38.3278 352.108 37.3918 352.108C36.5158 352.108 35.7958 351.844 35.2198 351.328C34.6438 350.812 34.3078 350.128 34.2238 349.276H32.9878V352ZM35.2678 348.868C35.2678 349.54 35.4718 350.08 35.8798 350.5C36.2758 350.92 36.7918 351.124 37.4038 351.124C38.6518 351.124 39.5278 350.224 39.5278 348.868C39.5278 348.196 39.3358 347.644 38.9398 347.224C38.5438 346.804 38.0278 346.6 37.4038 346.6C36.7918 346.6 36.2878 346.816 35.8798 347.236C35.4718 347.656 35.2678 348.208 35.2678 348.868ZM47.2024 352H46.1944V349.3H42.5944V352H41.5864V345.76H42.5944V348.352H46.1944V345.76H47.2024V352ZM51.0645 352H48.5445V345.76H49.5525V347.704H51.1605C52.8645 347.704 53.7165 348.412 53.7165 349.84C53.7165 351.1 52.9245 352 51.0645 352ZM51.0285 348.664H49.5525V351.04H51.0285C52.1805 351.04 52.6485 350.632 52.6485 349.852C52.6485 349.06 52.1085 348.664 51.0285 348.664Z" fill="#1A3341"/>
<path d="M64 46H158.493C159.045 46 159.493 46.4477 159.493 47V63C159.493 63.5523 159.045 64 158.493 64H64V46Z" fill="url(#paint0_linear_4008_19574)"/>
<path d="M168.722 52.434L167.7 52.07C168.05 50.334 169.366 49.088 171.452 49.088C173.468 49.088 174.7 50.25 174.7 52.028C174.7 52.966 174.294 53.904 173.79 54.576C173.538 54.926 173.216 55.262 172.838 55.612C172.068 56.298 171.522 56.662 170.724 57.166L169.646 57.838H175.064V59H167.434V58.048L169.562 56.634C169.94 56.396 170.206 56.214 170.36 56.102C170.514 56.004 170.766 55.822 171.102 55.584C171.438 55.346 171.69 55.136 171.858 54.982C172.012 54.828 172.222 54.632 172.46 54.38C173.104 53.68 173.342 53.036 173.412 52.154C173.412 50.88 172.586 50.306 171.368 50.306C170.612 50.306 170.01 50.516 169.576 50.936C169.142 51.356 168.848 51.86 168.722 52.434ZM181.212 52.434L180.19 52.07C180.54 50.334 181.856 49.088 183.942 49.088C185.958 49.088 187.19 50.25 187.19 52.028C187.19 52.966 186.784 53.904 186.28 54.576C186.028 54.926 185.706 55.262 185.328 55.612C184.558 56.298 184.012 56.662 183.214 57.166L182.136 57.838H187.554V59H179.924V58.048L182.052 56.634C182.43 56.396 182.696 56.214 182.85 56.102C183.004 56.004 183.256 55.822 183.592 55.584C183.928 55.346 184.18 55.136 184.348 54.982C184.502 54.828 184.712 54.632 184.95 54.38C185.594 53.68 185.832 53.036 185.902 52.154C185.902 50.88 185.076 50.306 183.858 50.306C183.102 50.306 182.5 50.516 182.066 50.936C181.632 51.356 181.338 51.86 181.212 52.434ZM196.672 53.918C196.672 55.584 196.28 56.872 195.482 57.768C194.684 58.678 193.62 59.126 192.29 59.126C190.666 59.126 189.392 58.44 188.762 57.39L189.77 56.69C190.33 57.474 191.352 57.922 192.458 57.922C193.368 57.922 194.096 57.558 194.67 56.83C195.244 56.116 195.482 55.22 195.412 54.156C194.95 55.22 193.788 56.004 192.234 56.004C191.142 56.004 190.246 55.696 189.546 55.066C188.832 54.45 188.482 53.638 188.482 52.644C188.482 51.552 188.86 50.684 189.616 50.04C190.372 49.396 191.38 49.074 192.626 49.074C195.146 49.074 196.672 50.838 196.672 53.918ZM195.202 52.602C194.992 51.3 194.096 50.278 192.486 50.278C190.806 50.278 189.77 51.146 189.77 52.602C189.77 53.988 190.82 54.8 192.458 54.8C193.2 54.8 193.83 54.576 194.32 54.128C194.81 53.68 195.104 53.176 195.202 52.602ZM203.336 50.39H197.4V49.2H204.834V49.998L199.962 59H198.632L203.336 50.39Z" fill="#1A3341"/>
<path d="M64 70H734.387C734.939 70 735.387 70.4477 735.387 71V87C735.387 87.5523 734.939 88 734.387 88H64V70Z" fill="url(#paint1_linear_4008_19574)"/>
<path d="M743.49 75.804L743.042 74.754L746.402 73.144H747.2V83H745.996V74.642L743.49 75.804ZM748.985 78.366C748.985 76.672 749.405 75.37 750.231 74.446C751.057 73.536 752.093 73.074 753.339 73.074C754.977 73.074 756.265 73.816 756.811 74.992L755.859 75.636C755.285 74.726 754.431 74.278 753.283 74.278C752.415 74.278 751.687 74.614 751.099 75.286C750.511 75.972 750.217 76.896 750.231 78.086C750.777 77.064 752.051 76.448 753.451 76.448C754.585 76.448 755.495 76.742 756.153 77.344C756.811 77.946 757.147 78.744 757.147 79.724C757.147 80.718 756.783 81.544 756.041 82.174C755.299 82.804 754.375 83.126 753.269 83.126C750.623 83.126 748.985 81.404 748.985 78.366ZM750.385 79.556C750.651 80.942 751.701 81.922 753.255 81.922C754.011 81.922 754.641 81.726 755.131 81.32C755.621 80.928 755.859 80.41 755.859 79.78C755.859 78.394 754.879 77.652 753.381 77.652C752.555 77.652 751.869 77.848 751.337 78.24C750.791 78.632 750.483 79.066 750.385 79.556ZM763.333 76.434L762.311 76.07C762.661 74.334 763.977 73.088 766.063 73.088C768.079 73.088 769.311 74.25 769.311 76.028C769.311 76.966 768.905 77.904 768.401 78.576C768.149 78.926 767.827 79.262 767.449 79.612C766.679 80.298 766.133 80.662 765.335 81.166L764.257 81.838H769.675V83H762.045V82.048L764.173 80.634C764.551 80.396 764.817 80.214 764.971 80.102C765.125 80.004 765.377 79.822 765.713 79.584C766.049 79.346 766.301 79.136 766.469 78.982C766.623 78.828 766.833 78.632 767.071 78.38C767.715 77.68 767.953 77.036 768.023 76.154C768.023 74.88 767.197 74.306 765.979 74.306C765.223 74.306 764.621 74.516 764.187 74.936C763.753 75.356 763.459 75.86 763.333 76.434ZM777.408 83H776.19V80.998H770.198V80.186L776.33 73.2H777.408V79.864H779.228V80.998H777.408V83ZM776.19 75.16L771.878 79.864H776.19V75.16ZM785.526 74.39H779.59V73.2H787.024V73.998L782.152 83H780.822L785.526 74.39Z" fill="#1A3341"/>
<path d="M64 400H725.572C726.124 400 726.572 400.448 726.572 401V417C726.572 417.552 726.124 418 725.572 418H64V400Z" fill="url(#paint2_linear_4008_19574)"/>
<path d="M735.49 405.804L735.042 404.754L738.402 403.144H739.2V413H737.996V404.642L735.49 405.804ZM740.985 408.366C740.985 406.672 741.405 405.37 742.231 404.446C743.057 403.536 744.093 403.074 745.339 403.074C746.977 403.074 748.265 403.816 748.811 404.992L747.859 405.636C747.285 404.726 746.431 404.278 745.283 404.278C744.415 404.278 743.687 404.614 743.099 405.286C742.511 405.972 742.217 406.896 742.231 408.086C742.777 407.064 744.051 406.448 745.451 406.448C746.585 406.448 747.495 406.742 748.153 407.344C748.811 407.946 749.147 408.744 749.147 409.724C749.147 410.718 748.783 411.544 748.041 412.174C747.299 412.804 746.375 413.126 745.269 413.126C742.623 413.126 740.985 411.404 740.985 408.366ZM742.385 409.556C742.651 410.942 743.701 411.922 745.255 411.922C746.011 411.922 746.641 411.726 747.131 411.32C747.621 410.928 747.859 410.41 747.859 409.78C747.859 408.394 746.879 407.652 745.381 407.652C744.555 407.652 743.869 407.848 743.337 408.24C742.791 408.632 742.483 409.066 742.385 409.556ZM754.213 408.1C754.213 406.588 754.563 405.37 755.277 404.46C755.977 403.55 757.013 403.088 758.371 403.088C761.157 403.088 762.543 404.922 762.543 408.1C762.543 409.626 762.193 410.83 761.507 411.74C760.807 412.65 759.771 413.112 758.399 413.112C757.083 413.112 756.061 412.65 755.319 411.726C754.577 410.802 754.213 409.598 754.213 408.1ZM755.501 408.1C755.501 410.494 756.593 411.922 758.399 411.922C760.303 411.922 761.255 410.648 761.255 408.1C761.255 405.552 760.289 404.278 758.371 404.278C756.425 404.278 755.501 405.678 755.501 408.1ZM763.589 408.1C763.589 406.588 763.939 405.37 764.653 404.46C765.353 403.55 766.389 403.088 767.747 403.088C770.533 403.088 771.919 404.922 771.919 408.1C771.919 409.626 771.569 410.83 770.883 411.74C770.183 412.65 769.147 413.112 767.775 413.112C766.459 413.112 765.437 412.65 764.695 411.726C763.953 410.802 763.589 409.598 763.589 408.1ZM764.877 408.1C764.877 410.494 765.969 411.922 767.775 411.922C769.679 411.922 770.631 410.648 770.631 408.1C770.631 405.552 769.665 404.278 767.747 404.278C765.801 404.278 764.877 405.678 764.877 408.1ZM779.726 413H778.508V410.998H772.516V410.186L778.648 403.2H779.726V409.864H781.546V410.998H779.726V413ZM778.508 405.16L774.196 409.864H778.508V405.16Z" fill="#1A3341"/>
<path d="M64 424H668.276C668.829 424 669.276 424.448 669.276 425V441C669.276 441.552 668.829 442 668.276 442H64V424Z" fill="url(#paint3_linear_4008_19574)"/>
<path d="M677.49 429.804L677.042 428.754L680.402 427.144H681.2V437H679.996V428.642L677.49 429.804ZM689.747 437H688.529V434.998H682.537V434.186L688.669 427.2H689.747V433.864H691.567V434.998H689.747V437ZM688.529 429.16L684.217 433.864H688.529V429.16ZM696.309 432.366C696.309 430.672 696.729 429.37 697.555 428.446C698.381 427.536 699.417 427.074 700.663 427.074C702.301 427.074 703.589 427.816 704.135 428.992L703.183 429.636C702.609 428.726 701.755 428.278 700.607 428.278C699.739 428.278 699.011 428.614 698.423 429.286C697.835 429.972 697.541 430.896 697.555 432.086C698.101 431.064 699.375 430.448 700.775 430.448C701.909 430.448 702.819 430.742 703.477 431.344C704.135 431.946 704.471 432.744 704.471 433.724C704.471 434.718 704.107 435.544 703.365 436.174C702.623 436.804 701.699 437.126 700.593 437.126C697.947 437.126 696.309 435.404 696.309 432.366ZM697.709 433.556C697.975 434.942 699.025 435.922 700.579 435.922C701.335 435.922 701.965 435.726 702.455 435.32C702.945 434.928 703.183 434.41 703.183 433.78C703.183 432.394 702.203 431.652 700.705 431.652C699.879 431.652 699.193 431.848 698.661 432.24C698.115 432.632 697.807 433.066 697.709 433.556ZM705.368 429.804L704.92 428.754L708.28 427.144H709.078V437H707.874V428.642L705.368 429.804ZM717.625 437H716.407V434.998H710.415V434.186L716.547 427.2H717.625V433.864H719.445V434.998H717.625V437ZM716.407 429.16L712.095 433.864H716.407V429.16Z" fill="#1A3341"/>
<path d="M64 223H353.885C354.438 223 354.885 223.448 354.885 224V240C354.885 240.552 354.438 241 353.885 241H64V223Z" fill="url(#paint4_linear_4008_19574)"/>
<path d="M363.602 231.366C363.602 229.672 364.022 228.37 364.848 227.446C365.674 226.536 366.71 226.074 367.956 226.074C369.594 226.074 370.882 226.816 371.428 227.992L370.476 228.636C369.902 227.726 369.048 227.278 367.9 227.278C367.032 227.278 366.304 227.614 365.716 228.286C365.128 228.972 364.834 229.896 364.848 231.086C365.394 230.064 366.668 229.448 368.068 229.448C369.202 229.448 370.112 229.742 370.77 230.344C371.428 230.946 371.764 231.744 371.764 232.724C371.764 233.718 371.4 234.544 370.658 235.174C369.916 235.804 368.992 236.126 367.886 236.126C365.24 236.126 363.602 234.404 363.602 231.366ZM365.002 232.556C365.268 233.942 366.318 234.922 367.872 234.922C368.628 234.922 369.258 234.726 369.748 234.32C370.238 233.928 370.476 233.41 370.476 232.78C370.476 231.394 369.496 230.652 367.998 230.652C367.172 230.652 366.486 230.848 365.954 231.24C365.408 231.632 365.1 232.066 365.002 232.556ZM384.978 230.918C384.978 232.584 384.586 233.872 383.788 234.768C382.99 235.678 381.926 236.126 380.596 236.126C378.972 236.126 377.698 235.44 377.068 234.39L378.076 233.69C378.636 234.474 379.658 234.922 380.764 234.922C381.674 234.922 382.402 234.558 382.976 233.83C383.55 233.116 383.788 232.22 383.718 231.156C383.256 232.22 382.094 233.004 380.54 233.004C379.448 233.004 378.552 232.696 377.852 232.066C377.138 231.45 376.788 230.638 376.788 229.644C376.788 228.552 377.166 227.684 377.922 227.04C378.678 226.396 379.686 226.074 380.932 226.074C383.452 226.074 384.978 227.838 384.978 230.918ZM383.508 229.602C383.298 228.3 382.402 227.278 380.792 227.278C379.112 227.278 378.076 228.146 378.076 229.602C378.076 230.988 379.126 231.8 380.764 231.8C381.506 231.8 382.136 231.576 382.626 231.128C383.116 230.68 383.41 230.176 383.508 229.602ZM394.176 230.918C394.176 232.584 393.784 233.872 392.986 234.768C392.188 235.678 391.124 236.126 389.794 236.126C388.17 236.126 386.896 235.44 386.266 234.39L387.274 233.69C387.834 234.474 388.856 234.922 389.962 234.922C390.872 234.922 391.6 234.558 392.174 233.83C392.748 233.116 392.986 232.22 392.916 231.156C392.454 232.22 391.292 233.004 389.738 233.004C388.646 233.004 387.75 232.696 387.05 232.066C386.336 231.45 385.986 230.638 385.986 229.644C385.986 228.552 386.364 227.684 387.12 227.04C387.876 226.396 388.884 226.074 390.13 226.074C392.65 226.074 394.176 227.838 394.176 230.918ZM392.706 229.602C392.496 228.3 391.6 227.278 389.99 227.278C388.31 227.278 387.274 228.146 387.274 229.602C387.274 230.988 388.324 231.8 389.962 231.8C390.704 231.8 391.334 231.576 391.824 231.128C392.314 230.68 392.608 230.176 392.706 229.602ZM396.346 229.434L395.324 229.07C395.674 227.334 396.99 226.088 399.076 226.088C401.092 226.088 402.324 227.25 402.324 229.028C402.324 229.966 401.918 230.904 401.414 231.576C401.162 231.926 400.84 232.262 400.462 232.612C399.692 233.298 399.146 233.662 398.348 234.166L397.27 234.838H402.688V236H395.058V235.048L397.186 233.634C397.564 233.396 397.83 233.214 397.984 233.102C398.138 233.004 398.39 232.822 398.726 232.584C399.062 232.346 399.314 232.136 399.482 231.982C399.636 231.828 399.846 231.632 400.084 231.38C400.728 230.68 400.966 230.036 401.036 229.154C401.036 227.88 400.21 227.306 398.992 227.306C398.236 227.306 397.634 227.516 397.2 227.936C396.766 228.356 396.472 228.86 396.346 229.434Z" fill="#1A3341"/>
<path d="M64 247H825.472C826.024 247 826.472 247.448 826.472 248V264C826.472 264.552 826.024 265 825.472 265H64V247Z" fill="url(#paint5_linear_4008_19574)"/>
<path d="M834.49 252.804L834.042 251.754L837.402 250.144H838.2V260H836.996V251.642L834.49 252.804ZM843.849 254.414H844.283C844.913 254.414 845.431 254.26 845.865 253.966C846.285 253.672 846.495 253.28 846.495 252.818C846.495 251.768 845.669 251.236 844.031 251.236C842.463 251.236 841.609 251.81 841.609 252.818C841.609 253.728 842.547 254.414 843.849 254.414ZM844.255 255.52H843.905C843.149 255.52 842.519 255.688 842.029 256.01C841.539 256.332 841.287 256.738 841.287 257.228C841.287 258.292 842.267 258.964 844.045 258.964C845.851 258.964 846.817 258.32 846.817 257.242C846.817 256.164 845.781 255.52 844.255 255.52ZM847.013 259.37C846.299 259.874 845.305 260.126 844.059 260.126C842.813 260.126 841.819 259.874 841.091 259.384C840.363 258.894 839.999 258.222 839.999 257.354C839.999 256.22 840.741 255.324 841.931 254.932C840.853 254.582 840.321 253.728 840.321 252.734C840.321 251.11 841.693 250.074 844.045 250.074C846.411 250.074 847.783 251.11 847.783 252.734C847.783 253.672 847.265 254.386 846.229 254.862C847.475 255.24 848.091 256.052 848.091 257.298C848.091 258.18 847.727 258.88 847.013 259.37ZM854.207 253.056L853.157 252.58C853.675 251.068 855.033 250.074 857.063 250.074C858.029 250.074 858.827 250.298 859.443 250.746C860.059 251.194 860.367 251.796 860.367 252.538C860.367 253.672 859.765 254.512 858.645 254.834C859.723 254.904 860.591 255.716 860.591 257.172C860.591 258.096 860.255 258.824 859.583 259.342C858.911 259.86 858.057 260.126 857.007 260.126C854.865 260.126 853.381 259.104 852.891 257.494L854.025 257.004C854.627 258.278 855.649 258.922 857.091 258.922C858.449 258.922 859.303 258.292 859.303 257.186C859.303 256.108 858.463 255.562 856.783 255.562H855.691V254.4H856.559C858.085 254.4 859.079 253.714 859.079 252.776C859.079 251.81 858.281 251.264 857.007 251.264C855.509 251.264 854.599 252.034 854.207 253.056ZM863.169 255.492L862.161 255.226L862.735 250.2H868.895V251.39H863.813L863.449 254.022C863.939 253.658 864.681 253.476 865.675 253.476C866.823 253.476 867.719 253.784 868.377 254.386C869.021 255.002 869.343 255.786 869.343 256.752C869.343 257.718 868.979 258.53 868.265 259.16C867.537 259.804 866.627 260.126 865.549 260.126C863.715 260.126 862.189 259.258 861.559 257.732L862.679 257.256C863.085 258.194 864.135 258.936 865.549 258.936C867.159 258.936 868.055 258.012 868.055 256.794C868.055 255.492 867.005 254.652 865.339 254.652C864.443 254.652 863.715 254.932 863.169 255.492ZM877.168 260H875.95V257.998H869.958V257.186L876.09 250.2H877.168V256.864H878.988V257.998H877.168V260ZM875.95 252.16L871.638 256.864H875.95V252.16Z" fill="#1A3341"/>
<path d="M64 577H406.774C407.326 577 407.774 577.448 407.774 578V594C407.774 594.552 407.326 595 406.774 595H64V577Z" fill="url(#paint6_linear_4008_19574)"/>
<path d="M420.466 584.414H420.9C421.53 584.414 422.048 584.26 422.482 583.966C422.902 583.672 423.112 583.28 423.112 582.818C423.112 581.768 422.286 581.236 420.648 581.236C419.08 581.236 418.226 581.81 418.226 582.818C418.226 583.728 419.164 584.414 420.466 584.414ZM420.872 585.52H420.522C419.766 585.52 419.136 585.688 418.646 586.01C418.156 586.332 417.904 586.738 417.904 587.228C417.904 588.292 418.884 588.964 420.662 588.964C422.468 588.964 423.434 588.32 423.434 587.242C423.434 586.164 422.398 585.52 420.872 585.52ZM423.63 589.37C422.916 589.874 421.922 590.126 420.676 590.126C419.43 590.126 418.436 589.874 417.708 589.384C416.98 588.894 416.616 588.222 416.616 587.354C416.616 586.22 417.358 585.324 418.548 584.932C417.47 584.582 416.938 583.728 416.938 582.734C416.938 581.11 418.31 580.074 420.662 580.074C423.028 580.074 424.4 581.11 424.4 582.734C424.4 583.672 423.882 584.386 422.846 584.862C424.092 585.24 424.708 586.052 424.708 587.298C424.708 588.18 424.344 588.88 423.63 589.37ZM430.977 583.434L429.955 583.07C430.305 581.334 431.621 580.088 433.707 580.088C435.723 580.088 436.955 581.25 436.955 583.028C436.955 583.966 436.549 584.904 436.045 585.576C435.793 585.926 435.471 586.262 435.093 586.612C434.323 587.298 433.777 587.662 432.979 588.166L431.901 588.838H437.319V590H429.689V589.048L431.817 587.634C432.195 587.396 432.461 587.214 432.615 587.102C432.769 587.004 433.021 586.822 433.357 586.584C433.693 586.346 433.945 586.136 434.113 585.982C434.267 585.828 434.477 585.632 434.715 585.38C435.359 584.68 435.597 584.036 435.667 583.154C435.667 581.88 434.841 581.306 433.623 581.306C432.867 581.306 432.265 581.516 431.831 581.936C431.397 582.356 431.103 582.86 430.977 583.434ZM439.717 585.492L438.709 585.226L439.283 580.2H445.443V581.39H440.361L439.997 584.022C440.487 583.658 441.229 583.476 442.223 583.476C443.371 583.476 444.267 583.784 444.925 584.386C445.569 585.002 445.891 585.786 445.891 586.752C445.891 587.718 445.527 588.53 444.813 589.16C444.085 589.804 443.175 590.126 442.097 590.126C440.263 590.126 438.737 589.258 438.107 587.732L439.227 587.256C439.633 588.194 440.683 588.936 442.097 588.936C443.707 588.936 444.603 588.012 444.603 586.794C444.603 585.492 443.553 584.652 441.887 584.652C440.991 584.652 440.263 584.932 439.717 585.492ZM446.842 582.804L446.394 581.754L449.754 580.144H450.552V590H449.348V581.642L446.842 582.804Z" fill="#1A3341"/>
<path d="M64 601H920.965C921.517 601 921.965 601.448 921.965 602V618C921.965 618.552 921.517 619 920.965 619H64V601Z" fill="url(#paint7_linear_4008_19574)"/>
<path d="M931.722 607.434L930.7 607.07C931.05 605.334 932.366 604.088 934.452 604.088C936.468 604.088 937.7 605.25 937.7 607.028C937.7 607.966 937.294 608.904 936.79 609.576C936.538 609.926 936.216 610.262 935.838 610.612C935.068 611.298 934.522 611.662 933.724 612.166L932.646 612.838H938.064V614H930.434V613.048L932.562 611.634C932.94 611.396 933.206 611.214 933.36 611.102C933.514 611.004 933.766 610.822 934.102 610.584C934.438 610.346 934.69 610.136 934.858 609.982C935.012 609.828 935.222 609.632 935.46 609.38C936.104 608.68 936.342 608.036 936.412 607.154C936.412 605.88 935.586 605.306 934.368 605.306C933.612 605.306 933.01 605.516 932.576 605.936C932.142 606.356 931.848 606.86 931.722 607.434ZM939.034 609.1C939.034 607.588 939.384 606.37 940.098 605.46C940.798 604.55 941.834 604.088 943.192 604.088C945.978 604.088 947.364 605.922 947.364 609.1C947.364 610.626 947.014 611.83 946.328 612.74C945.628 613.65 944.592 614.112 943.22 614.112C941.904 614.112 940.882 613.65 940.14 612.726C939.398 611.802 939.034 610.598 939.034 609.1ZM940.322 609.1C940.322 611.494 941.414 612.922 943.22 612.922C945.124 612.922 946.076 611.648 946.076 609.1C946.076 606.552 945.11 605.278 943.192 605.278C941.246 605.278 940.322 606.678 940.322 609.1ZM958.081 605.39H952.145V604.2H959.579V604.998L954.707 614H953.377L958.081 605.39ZM961.291 607.056L960.241 606.58C960.759 605.068 962.117 604.074 964.147 604.074C965.113 604.074 965.911 604.298 966.527 604.746C967.143 605.194 967.451 605.796 967.451 606.538C967.451 607.672 966.849 608.512 965.729 608.834C966.807 608.904 967.675 609.716 967.675 611.172C967.675 612.096 967.339 612.824 966.667 613.342C965.995 613.86 965.141 614.126 964.091 614.126C961.949 614.126 960.465 613.104 959.975 611.494L961.109 611.004C961.711 612.278 962.733 612.922 964.175 612.922C965.533 612.922 966.387 612.292 966.387 611.186C966.387 610.108 965.547 609.562 963.867 609.562H962.775V608.4H963.643C965.169 608.4 966.163 607.714 966.163 606.776C966.163 605.81 965.365 605.264 964.091 605.264C962.593 605.264 961.683 606.034 961.291 607.056ZM969.792 607.056L968.742 606.58C969.26 605.068 970.618 604.074 972.648 604.074C973.614 604.074 974.412 604.298 975.028 604.746C975.644 605.194 975.952 605.796 975.952 606.538C975.952 607.672 975.35 608.512 974.23 608.834C975.308 608.904 976.176 609.716 976.176 611.172C976.176 612.096 975.84 612.824 975.168 613.342C974.496 613.86 973.642 614.126 972.592 614.126C970.45 614.126 968.966 613.104 968.476 611.494L969.61 611.004C970.212 612.278 971.234 612.922 972.676 612.922C974.034 612.922 974.888 612.292 974.888 611.186C974.888 610.108 974.048 609.562 972.368 609.562H971.276V608.4H972.144C973.67 608.4 974.664 607.714 974.664 606.776C974.664 605.81 973.866 605.264 972.592 605.264C971.094 605.264 970.184 606.034 969.792 607.056Z" fill="#1A3341"/>
<path d="M64 105H121.765C122.317 105 122.765 105.448 122.765 106V122C122.765 122.552 122.317 123 121.765 123H64V105Z" fill="url(#paint8_linear_4008_19574)"/>
<path d="M131.49 110.804L131.042 109.754L134.402 108.144H135.2V118H133.996V109.642L131.49 110.804ZM147.805 118H146.587V115.998H140.595V115.186L146.727 108.2H147.805V114.864H149.625V115.998H147.805V118ZM146.587 110.16L142.275 114.864H146.587V110.16ZM151.429 111.434L150.407 111.07C150.757 109.334 152.073 108.088 154.159 108.088C156.175 108.088 157.407 109.25 157.407 111.028C157.407 111.966 157.001 112.904 156.497 113.576C156.245 113.926 155.923 114.262 155.545 114.612C154.775 115.298 154.229 115.662 153.431 116.166L152.353 116.838H157.771V118H150.141V117.048L152.269 115.634C152.647 115.396 152.913 115.214 153.067 115.102C153.221 115.004 153.473 114.822 153.809 114.584C154.145 114.346 154.397 114.136 154.565 113.982C154.719 113.828 154.929 113.632 155.167 113.38C155.811 112.68 156.049 112.036 156.119 111.154C156.119 109.88 155.293 109.306 154.075 109.306C153.319 109.306 152.717 109.516 152.283 109.936C151.849 110.356 151.555 110.86 151.429 111.434ZM158.741 113.1C158.741 111.588 159.091 110.37 159.805 109.46C160.505 108.55 161.541 108.088 162.899 108.088C165.685 108.088 167.071 109.922 167.071 113.1C167.071 114.626 166.721 115.83 166.035 116.74C165.335 117.65 164.299 118.112 162.927 118.112C161.611 118.112 160.589 117.65 159.847 116.726C159.105 115.802 158.741 114.598 158.741 113.1ZM160.029 113.1C160.029 115.494 161.121 116.922 162.927 116.922C164.831 116.922 165.783 115.648 165.783 113.1C165.783 110.552 164.817 109.278 162.899 109.278C160.953 109.278 160.029 110.678 160.029 113.1Z" fill="#1A3341"/>
<path d="M64 129H684.437C684.989 129 685.437 129.448 685.437 130V146C685.437 146.552 684.989 147 684.437 147H64V129Z" fill="url(#paint9_linear_4008_19574)"/>
<path d="M693.49 134.804L693.042 133.754L696.402 132.144H697.2V142H695.996V133.642L693.49 134.804ZM705.747 142H704.529V139.998H698.537V139.186L704.669 132.2H705.747V138.864H707.567V139.998H705.747V142ZM704.529 134.16L700.217 138.864H704.529V134.16ZM720.457 136.918C720.457 138.584 720.065 139.872 719.267 140.768C718.469 141.678 717.405 142.126 716.075 142.126C714.451 142.126 713.177 141.44 712.547 140.39L713.555 139.69C714.115 140.474 715.137 140.922 716.243 140.922C717.153 140.922 717.881 140.558 718.455 139.83C719.029 139.116 719.267 138.22 719.197 137.156C718.735 138.22 717.573 139.004 716.019 139.004C714.927 139.004 714.031 138.696 713.331 138.066C712.617 137.45 712.267 136.638 712.267 135.644C712.267 134.552 712.645 133.684 713.401 133.04C714.157 132.396 715.165 132.074 716.411 132.074C718.931 132.074 720.457 133.838 720.457 136.918ZM718.987 135.602C718.777 134.3 717.881 133.278 716.271 133.278C714.591 133.278 713.555 134.146 713.555 135.602C713.555 136.988 714.605 137.8 716.243 137.8C716.985 137.8 717.615 137.576 718.105 137.128C718.595 136.68 718.889 136.176 718.987 135.602ZM721.507 137.366C721.507 135.672 721.927 134.37 722.753 133.446C723.579 132.536 724.615 132.074 725.861 132.074C727.499 132.074 728.787 132.816 729.333 133.992L728.381 134.636C727.807 133.726 726.953 133.278 725.805 133.278C724.937 133.278 724.209 133.614 723.621 134.286C723.033 134.972 722.739 135.896 722.753 137.086C723.299 136.064 724.573 135.448 725.973 135.448C727.107 135.448 728.017 135.742 728.675 136.344C729.333 136.946 729.669 137.744 729.669 138.724C729.669 139.718 729.305 140.544 728.563 141.174C727.821 141.804 726.897 142.126 725.791 142.126C723.145 142.126 721.507 140.404 721.507 137.366ZM722.907 138.556C723.173 139.942 724.223 140.922 725.777 140.922C726.533 140.922 727.163 140.726 727.653 140.32C728.143 139.928 728.381 139.41 728.381 138.78C728.381 137.394 727.401 136.652 725.903 136.652C725.077 136.652 724.391 136.848 723.859 137.24C723.313 137.632 723.005 138.066 722.907 138.556ZM730.677 137.1C730.677 135.588 731.027 134.37 731.741 133.46C732.441 132.55 733.477 132.088 734.835 132.088C737.621 132.088 739.007 133.922 739.007 137.1C739.007 138.626 738.657 139.83 737.971 140.74C737.271 141.65 736.235 142.112 734.863 142.112C733.547 142.112 732.525 141.65 731.783 140.726C731.041 139.802 730.677 138.598 730.677 137.1ZM731.965 137.1C731.965 139.494 733.057 140.922 734.863 140.922C736.767 140.922 737.719 139.648 737.719 137.1C737.719 134.552 736.753 133.278 734.835 133.278C732.889 133.278 731.965 134.678 731.965 137.1Z" fill="#1A3341"/>
<path d="M64 459H775.522C776.074 459 776.522 459.448 776.522 460V476C776.522 476.552 776.074 477 775.522 477H64V459Z" fill="url(#paint10_linear_4008_19574)"/>
<path d="M785.49 464.804L785.042 463.754L788.402 462.144H789.2V472H787.996V463.642L785.49 464.804ZM796.599 463.39H790.663V462.2H798.097V462.998L793.225 472H791.895L796.599 463.39ZM804.021 465.434L802.999 465.07C803.349 463.334 804.665 462.088 806.751 462.088C808.767 462.088 809.999 463.25 809.999 465.028C809.999 465.966 809.593 466.904 809.089 467.576C808.837 467.926 808.515 468.262 808.137 468.612C807.367 469.298 806.821 469.662 806.023 470.166L804.945 470.838H810.363V472H802.733V471.048L804.861 469.634C805.239 469.396 805.505 469.214 805.659 469.102C805.813 469.004 806.065 468.822 806.401 468.584C806.737 468.346 806.989 468.136 807.157 467.982C807.311 467.828 807.521 467.632 807.759 467.38C808.403 466.68 808.641 466.036 808.711 465.154C808.711 463.88 807.885 463.306 806.667 463.306C805.911 463.306 805.309 463.516 804.875 463.936C804.441 464.356 804.147 464.86 804.021 465.434ZM812.453 465.434L811.431 465.07C811.781 463.334 813.097 462.088 815.183 462.088C817.199 462.088 818.431 463.25 818.431 465.028C818.431 465.966 818.025 466.904 817.521 467.576C817.269 467.926 816.947 468.262 816.569 468.612C815.799 469.298 815.253 469.662 814.455 470.166L813.377 470.838H818.795V472H811.165V471.048L813.293 469.634C813.671 469.396 813.937 469.214 814.091 469.102C814.245 469.004 814.497 468.822 814.833 468.584C815.169 468.346 815.421 468.136 815.589 467.982C815.743 467.828 815.953 467.632 816.191 467.38C816.835 466.68 817.073 466.036 817.143 465.154C817.143 463.88 816.317 463.306 815.099 463.306C814.343 463.306 813.741 463.516 813.307 463.936C812.873 464.356 812.579 464.86 812.453 465.434ZM819.765 467.366C819.765 465.672 820.185 464.37 821.011 463.446C821.837 462.536 822.873 462.074 824.119 462.074C825.757 462.074 827.045 462.816 827.591 463.992L826.639 464.636C826.065 463.726 825.211 463.278 824.063 463.278C823.195 463.278 822.467 463.614 821.879 464.286C821.291 464.972 820.997 465.896 821.011 467.086C821.557 466.064 822.831 465.448 824.231 465.448C825.365 465.448 826.275 465.742 826.933 466.344C827.591 466.946 827.927 467.744 827.927 468.724C827.927 469.718 827.563 470.544 826.821 471.174C826.079 471.804 825.155 472.126 824.049 472.126C821.403 472.126 819.765 470.404 819.765 467.366ZM821.165 468.556C821.431 469.942 822.481 470.922 824.035 470.922C824.791 470.922 825.421 470.726 825.911 470.32C826.401 469.928 826.639 469.41 826.639 468.78C826.639 467.394 825.659 466.652 824.161 466.652C823.335 466.652 822.649 466.848 822.117 467.24C821.571 467.632 821.263 468.066 821.165 468.556Z" fill="#1A3341"/>
<path d="M64 483H415.588C416.141 483 416.588 483.448 416.588 484V500C416.588 500.552 416.141 501 415.588 501H64V483Z" fill="url(#paint11_linear_4008_19574)"/>
<path d="M429.466 490.414H429.9C430.53 490.414 431.048 490.26 431.482 489.966C431.902 489.672 432.112 489.28 432.112 488.818C432.112 487.768 431.286 487.236 429.648 487.236C428.08 487.236 427.226 487.81 427.226 488.818C427.226 489.728 428.164 490.414 429.466 490.414ZM429.872 491.52H429.522C428.766 491.52 428.136 491.688 427.646 492.01C427.156 492.332 426.904 492.738 426.904 493.228C426.904 494.292 427.884 494.964 429.662 494.964C431.468 494.964 432.434 494.32 432.434 493.242C432.434 492.164 431.398 491.52 429.872 491.52ZM432.63 495.37C431.916 495.874 430.922 496.126 429.676 496.126C428.43 496.126 427.436 495.874 426.708 495.384C425.98 494.894 425.616 494.222 425.616 493.354C425.616 492.22 426.358 491.324 427.548 490.932C426.47 490.582 425.938 489.728 425.938 488.734C425.938 487.11 427.31 486.074 429.662 486.074C432.028 486.074 433.4 487.11 433.4 488.734C433.4 489.672 432.882 490.386 431.846 490.862C433.092 491.24 433.708 492.052 433.708 493.298C433.708 494.18 433.344 494.88 432.63 495.37ZM445.619 496H444.401V493.998H438.409V493.186L444.541 486.2H445.619V492.864H447.439V493.998H445.619V496ZM444.401 488.16L440.089 492.864H444.401V488.16ZM448.123 491.366C448.123 489.672 448.543 488.37 449.369 487.446C450.195 486.536 451.231 486.074 452.477 486.074C454.115 486.074 455.403 486.816 455.949 487.992L454.997 488.636C454.423 487.726 453.569 487.278 452.421 487.278C451.553 487.278 450.825 487.614 450.237 488.286C449.649 488.972 449.355 489.896 449.369 491.086C449.915 490.064 451.189 489.448 452.589 489.448C453.723 489.448 454.633 489.742 455.291 490.344C455.949 490.946 456.285 491.744 456.285 492.724C456.285 493.718 455.921 494.544 455.179 495.174C454.437 495.804 453.513 496.126 452.407 496.126C449.761 496.126 448.123 494.404 448.123 491.366ZM449.523 492.556C449.789 493.942 450.839 494.922 452.393 494.922C453.149 494.922 453.779 494.726 454.269 494.32C454.759 493.928 454.997 493.41 454.997 492.78C454.997 491.394 454.017 490.652 452.519 490.652C451.693 490.652 451.007 490.848 450.475 491.24C449.929 491.632 449.621 492.066 449.523 492.556ZM462.908 487.39H456.972V486.2H464.406V486.998L459.534 496H458.204L462.908 487.39Z" fill="#1A3341"/>
<path d="M64 282H515.488C516.04 282 516.488 282.448 516.488 283V299C516.488 299.552 516.041 300 515.488 300H64V282Z" fill="url(#paint12_linear_4008_19574)"/>
<path d="M524.49 287.804L524.042 286.754L527.402 285.144H528.2V295H526.996V286.642L524.49 287.804ZM529.985 290.1C529.985 288.588 530.335 287.37 531.049 286.46C531.749 285.55 532.785 285.088 534.143 285.088C536.929 285.088 538.315 286.922 538.315 290.1C538.315 291.626 537.965 292.83 537.279 293.74C536.579 294.65 535.543 295.112 534.171 295.112C532.855 295.112 531.833 294.65 531.091 293.726C530.349 292.802 529.985 291.598 529.985 290.1ZM531.273 290.1C531.273 292.494 532.365 293.922 534.171 293.922C536.075 293.922 537.027 292.648 537.027 290.1C537.027 287.552 536.061 286.278 534.143 286.278C532.197 286.278 531.273 287.678 531.273 290.1ZM547.282 289.414H547.716C548.346 289.414 548.864 289.26 549.298 288.966C549.718 288.672 549.928 288.28 549.928 287.818C549.928 286.768 549.102 286.236 547.464 286.236C545.896 286.236 545.042 286.81 545.042 287.818C545.042 288.728 545.98 289.414 547.282 289.414ZM547.688 290.52H547.338C546.582 290.52 545.952 290.688 545.462 291.01C544.972 291.332 544.72 291.738 544.72 292.228C544.72 293.292 545.7 293.964 547.478 293.964C549.284 293.964 550.25 293.32 550.25 292.242C550.25 291.164 549.214 290.52 547.688 290.52ZM550.446 294.37C549.732 294.874 548.738 295.126 547.492 295.126C546.246 295.126 545.252 294.874 544.524 294.384C543.796 293.894 543.432 293.222 543.432 292.354C543.432 291.22 544.174 290.324 545.364 289.932C544.286 289.582 543.754 288.728 543.754 287.734C543.754 286.11 545.126 285.074 547.478 285.074C549.844 285.074 551.216 286.11 551.216 287.734C551.216 288.672 550.698 289.386 549.662 289.862C550.908 290.24 551.524 291.052 551.524 292.298C551.524 293.18 551.16 293.88 550.446 294.37ZM560.764 289.918C560.764 291.584 560.372 292.872 559.574 293.768C558.776 294.678 557.712 295.126 556.382 295.126C554.758 295.126 553.484 294.44 552.854 293.39L553.862 292.69C554.422 293.474 555.444 293.922 556.55 293.922C557.46 293.922 558.188 293.558 558.762 292.83C559.336 292.116 559.574 291.22 559.504 290.156C559.042 291.22 557.88 292.004 556.326 292.004C555.234 292.004 554.338 291.696 553.638 291.066C552.924 290.45 552.574 289.638 552.574 288.644C552.574 287.552 552.952 286.684 553.708 286.04C554.464 285.396 555.472 285.074 556.718 285.074C559.238 285.074 560.764 286.838 560.764 289.918ZM559.294 288.602C559.084 287.3 558.188 286.278 556.578 286.278C554.898 286.278 553.862 287.146 553.862 288.602C553.862 289.988 554.912 290.8 556.55 290.8C557.292 290.8 557.922 290.576 558.412 290.128C558.902 289.68 559.196 289.176 559.294 288.602ZM562.78 288.056L561.73 287.58C562.248 286.068 563.606 285.074 565.636 285.074C566.602 285.074 567.4 285.298 568.016 285.746C568.632 286.194 568.94 286.796 568.94 287.538C568.94 288.672 568.338 289.512 567.218 289.834C568.296 289.904 569.164 290.716 569.164 292.172C569.164 293.096 568.828 293.824 568.156 294.342C567.484 294.86 566.63 295.126 565.58 295.126C563.438 295.126 561.954 294.104 561.464 292.494L562.598 292.004C563.2 293.278 564.222 293.922 565.664 293.922C567.022 293.922 567.876 293.292 567.876 292.186C567.876 291.108 567.036 290.562 565.356 290.562H564.264V289.4H565.132C566.658 289.4 567.652 288.714 567.652 287.776C567.652 286.81 566.854 286.264 565.58 286.264C564.082 286.264 563.172 287.034 562.78 288.056Z" fill="#1A3341"/>
<path d="M64 306H871.015C871.567 306 872.015 306.448 872.015 307V323C872.015 323.552 871.567 324 871.015 324H64V306Z" fill="url(#paint13_linear_4008_19574)"/>
<path d="M880.49 311.804L880.042 310.754L883.402 309.144H884.2V319H882.996V310.642L880.49 311.804ZM894.133 313.918C894.133 315.584 893.741 316.872 892.943 317.768C892.145 318.678 891.081 319.126 889.751 319.126C888.127 319.126 886.853 318.44 886.223 317.39L887.231 316.69C887.791 317.474 888.813 317.922 889.919 317.922C890.829 317.922 891.557 317.558 892.131 316.83C892.705 316.116 892.943 315.22 892.873 314.156C892.411 315.22 891.249 316.004 889.695 316.004C888.603 316.004 887.707 315.696 887.007 315.066C886.293 314.45 885.943 313.638 885.943 312.644C885.943 311.552 886.321 310.684 887.077 310.04C887.833 309.396 888.841 309.074 890.087 309.074C892.607 309.074 894.133 310.838 894.133 313.918ZM892.663 312.602C892.453 311.3 891.557 310.278 889.947 310.278C888.267 310.278 887.231 311.146 887.231 312.602C887.231 313.988 888.281 314.8 889.919 314.8C890.661 314.8 891.291 314.576 891.781 314.128C892.271 313.68 892.565 313.176 892.663 312.602ZM906.003 319H904.785V316.998H898.793V316.186L904.925 309.2H906.003V315.864H907.823V316.998H906.003V319ZM904.785 311.16L900.473 315.864H904.785V311.16ZM914.121 310.39H908.185V309.2H915.619V309.998L910.747 319H909.417L914.121 310.39ZM924.513 313.918C924.513 315.584 924.121 316.872 923.323 317.768C922.525 318.678 921.461 319.126 920.131 319.126C918.507 319.126 917.233 318.44 916.603 317.39L917.611 316.69C918.171 317.474 919.193 317.922 920.299 317.922C921.209 317.922 921.937 317.558 922.511 316.83C923.085 316.116 923.323 315.22 923.253 314.156C922.791 315.22 921.629 316.004 920.075 316.004C918.983 316.004 918.087 315.696 917.387 315.066C916.673 314.45 916.323 313.638 916.323 312.644C916.323 311.552 916.701 310.684 917.457 310.04C918.213 309.396 919.221 309.074 920.467 309.074C922.987 309.074 924.513 310.838 924.513 313.918ZM923.043 312.602C922.833 311.3 921.937 310.278 920.327 310.278C918.647 310.278 917.611 311.146 917.611 312.602C917.611 313.988 918.661 314.8 920.299 314.8C921.041 314.8 921.671 314.576 922.161 314.128C922.651 313.68 922.945 313.176 923.043 312.602Z" fill="#1A3341"/>
<path d="M64 636H469.946C470.498 636 470.946 636.448 470.946 637V653C470.946 653.552 470.498 654 469.946 654H64V636Z" fill="url(#paint14_linear_4008_19574)"/>
<path d="M487.75 643.918C487.75 645.584 487.358 646.872 486.56 647.768C485.762 648.678 484.698 649.126 483.368 649.126C481.744 649.126 480.47 648.44 479.84 647.39L480.848 646.69C481.408 647.474 482.43 647.922 483.536 647.922C484.446 647.922 485.174 647.558 485.748 646.83C486.322 646.116 486.56 645.22 486.49 644.156C486.028 645.22 484.866 646.004 483.312 646.004C482.22 646.004 481.324 645.696 480.624 645.066C479.91 644.45 479.56 643.638 479.56 642.644C479.56 641.552 479.938 640.684 480.694 640.04C481.45 639.396 482.458 639.074 483.704 639.074C486.224 639.074 487.75 640.838 487.75 643.918ZM486.28 642.602C486.07 641.3 485.174 640.278 483.564 640.278C481.884 640.278 480.848 641.146 480.848 642.602C480.848 643.988 481.898 644.8 483.536 644.8C484.278 644.8 484.908 644.576 485.398 644.128C485.888 643.68 486.182 643.176 486.28 642.602ZM496.721 643.414H497.155C497.785 643.414 498.303 643.26 498.737 642.966C499.157 642.672 499.367 642.28 499.367 641.818C499.367 640.768 498.541 640.236 496.903 640.236C495.335 640.236 494.481 640.81 494.481 641.818C494.481 642.728 495.419 643.414 496.721 643.414ZM497.127 644.52H496.777C496.021 644.52 495.391 644.688 494.901 645.01C494.411 645.332 494.159 645.738 494.159 646.228C494.159 647.292 495.139 647.964 496.917 647.964C498.723 647.964 499.689 647.32 499.689 646.242C499.689 645.164 498.653 644.52 497.127 644.52ZM499.885 648.37C499.171 648.874 498.177 649.126 496.931 649.126C495.685 649.126 494.691 648.874 493.963 648.384C493.235 647.894 492.871 647.222 492.871 646.354C492.871 645.22 493.613 644.324 494.803 643.932C493.725 643.582 493.193 642.728 493.193 641.734C493.193 640.11 494.565 639.074 496.917 639.074C499.283 639.074 500.655 640.11 500.655 641.734C500.655 642.672 500.137 643.386 499.101 643.862C500.347 644.24 500.963 645.052 500.963 646.298C500.963 647.18 500.599 647.88 499.885 648.37ZM502.055 644.1C502.055 642.588 502.405 641.37 503.119 640.46C503.819 639.55 504.855 639.088 506.213 639.088C508.999 639.088 510.385 640.922 510.385 644.1C510.385 645.626 510.035 646.83 509.349 647.74C508.649 648.65 507.613 649.112 506.241 649.112C504.925 649.112 503.903 648.65 503.161 647.726C502.419 646.802 502.055 645.598 502.055 644.1ZM503.343 644.1C503.343 646.494 504.435 647.922 506.241 647.922C508.145 647.922 509.097 646.648 509.097 644.1C509.097 641.552 508.131 640.278 506.213 640.278C504.267 640.278 503.343 641.678 503.343 644.1ZM511.431 644.1C511.431 642.588 511.781 641.37 512.495 640.46C513.195 639.55 514.231 639.088 515.589 639.088C518.375 639.088 519.761 640.922 519.761 644.1C519.761 645.626 519.411 646.83 518.725 647.74C518.025 648.65 516.989 649.112 515.617 649.112C514.301 649.112 513.279 648.65 512.537 647.726C511.795 646.802 511.431 645.598 511.431 644.1ZM512.719 644.1C512.719 646.494 513.811 647.922 515.617 647.922C517.521 647.922 518.473 646.648 518.473 644.1C518.473 641.552 517.507 640.278 515.589 640.278C513.643 640.278 512.719 641.678 512.719 644.1Z" fill="#1A3341"/>
<path d="M64 660H1062C1062.55 660 1063 660.448 1063 661V677C1063 677.552 1062.55 678 1062 678H64V660Z" fill="url(#paint15_linear_4008_19574)"/>
<path d="M1072.72 666.434L1071.7 666.07C1072.05 664.334 1073.37 663.088 1075.45 663.088C1077.47 663.088 1078.7 664.25 1078.7 666.028C1078.7 666.966 1078.29 667.904 1077.79 668.576C1077.54 668.926 1077.22 669.262 1076.84 669.612C1076.07 670.298 1075.52 670.662 1074.72 671.166L1073.65 671.838H1079.06V673H1071.43V672.048L1073.56 670.634C1073.94 670.396 1074.21 670.214 1074.36 670.102C1074.51 670.004 1074.77 669.822 1075.1 669.584C1075.44 669.346 1075.69 669.136 1075.86 668.982C1076.01 668.828 1076.22 668.632 1076.46 668.38C1077.1 667.68 1077.34 667.036 1077.41 666.154C1077.41 664.88 1076.59 664.306 1075.37 664.306C1074.61 664.306 1074.01 664.516 1073.58 664.936C1073.14 665.356 1072.85 665.86 1072.72 666.434ZM1086.8 673H1085.58V670.998H1079.59V670.186L1085.72 663.2H1086.8V669.864H1088.62V670.998H1086.8V673ZM1085.58 665.16L1081.27 669.864H1085.58V665.16ZM1093.25 665.804L1092.8 664.754L1096.16 663.144H1096.96V673H1095.75V664.642L1093.25 665.804ZM1105.5 673H1104.29V670.998H1098.29V670.186L1104.43 663.2H1105.5V669.864H1107.32V670.998H1105.5V673ZM1104.29 665.16L1099.97 669.864H1104.29V665.16ZM1111.87 667.414H1112.31C1112.94 667.414 1113.45 667.26 1113.89 666.966C1114.31 666.672 1114.52 666.28 1114.52 665.818C1114.52 664.768 1113.69 664.236 1112.05 664.236C1110.49 664.236 1109.63 664.81 1109.63 665.818C1109.63 666.728 1110.57 667.414 1111.87 667.414ZM1112.28 668.52H1111.93C1111.17 668.52 1110.54 668.688 1110.05 669.01C1109.56 669.332 1109.31 669.738 1109.31 670.228C1109.31 671.292 1110.29 671.964 1112.07 671.964C1113.87 671.964 1114.84 671.32 1114.84 670.242C1114.84 669.164 1113.8 668.52 1112.28 668.52ZM1115.04 672.37C1114.32 672.874 1113.33 673.126 1112.08 673.126C1110.84 673.126 1109.84 672.874 1109.11 672.384C1108.39 671.894 1108.02 671.222 1108.02 670.354C1108.02 669.22 1108.76 668.324 1109.95 667.932C1108.88 667.582 1108.34 666.728 1108.34 665.734C1108.34 664.11 1109.72 663.074 1112.07 663.074C1114.43 663.074 1115.81 664.11 1115.81 665.734C1115.81 666.672 1115.29 667.386 1114.25 667.862C1115.5 668.24 1116.11 669.052 1116.11 670.298C1116.11 671.18 1115.75 671.88 1115.04 672.37Z" fill="#1A3341"/>
<path d="M64 164H249.578C250.13 164 250.578 164.448 250.578 165V181C250.578 181.552 250.13 182 249.578 182H64V164Z" fill="url(#paint16_linear_4008_19574)"/>
<path d="M266.364 177H265.146V174.998H259.154V174.186L265.286 167.2H266.364V173.864H268.184V174.998H266.364V177ZM265.146 169.16L260.834 173.864H265.146V169.16ZM274.354 172.492L273.346 172.226L273.92 167.2H280.08V168.39H274.998L274.634 171.022C275.124 170.658 275.866 170.476 276.86 170.476C278.008 170.476 278.904 170.784 279.562 171.386C280.206 172.002 280.528 172.786 280.528 173.752C280.528 174.718 280.164 175.53 279.45 176.16C278.722 176.804 277.812 177.126 276.734 177.126C274.9 177.126 273.374 176.258 272.744 174.732L273.864 174.256C274.27 175.194 275.32 175.936 276.734 175.936C278.344 175.936 279.24 175.012 279.24 173.794C279.24 172.492 278.19 171.652 276.524 171.652C275.628 171.652 274.9 171.932 274.354 172.492ZM281.59 172.1C281.59 170.588 281.94 169.37 282.654 168.46C283.354 167.55 284.39 167.088 285.748 167.088C288.534 167.088 289.92 168.922 289.92 172.1C289.92 173.626 289.57 174.83 288.884 175.74C288.184 176.65 287.148 177.112 285.776 177.112C284.46 177.112 283.438 176.65 282.696 175.726C281.954 174.802 281.59 173.598 281.59 172.1ZM282.878 172.1C282.878 174.494 283.97 175.922 285.776 175.922C287.68 175.922 288.632 174.648 288.632 172.1C288.632 169.552 287.666 168.278 285.748 168.278C283.802 168.278 282.878 169.678 282.878 172.1ZM292.086 170.434L291.064 170.07C291.414 168.334 292.73 167.088 294.816 167.088C296.832 167.088 298.064 168.25 298.064 170.028C298.064 170.966 297.658 171.904 297.154 172.576C296.902 172.926 296.58 173.262 296.202 173.612C295.432 174.298 294.886 174.662 294.088 175.166L293.01 175.838H298.428V177H290.798V176.048L292.926 174.634C293.304 174.396 293.57 174.214 293.724 174.102C293.878 174.004 294.13 173.822 294.466 173.584C294.802 173.346 295.054 173.136 295.222 172.982C295.376 172.828 295.586 172.632 295.824 172.38C296.468 171.68 296.706 171.036 296.776 170.154C296.776 168.88 295.95 168.306 294.732 168.306C293.976 168.306 293.374 168.516 292.94 168.936C292.506 169.356 292.212 169.86 292.086 170.434Z" fill="#1A3341"/>
<path d="M64 188H793.151C793.704 188 794.151 188.448 794.151 189V205C794.151 205.552 793.704 206 793.151 206H64V188Z" fill="url(#paint17_linear_4008_19574)"/>
<path d="M802.49 193.804L802.042 192.754L805.402 191.144H806.2V201H804.996V192.642L802.49 193.804ZM813.599 192.39H807.663V191.2H815.097V191.998L810.225 201H808.895L813.599 192.39ZM821.329 196.492L820.321 196.226L820.895 191.2H827.055V192.39H821.973L821.609 195.022C822.099 194.658 822.841 194.476 823.835 194.476C824.983 194.476 825.879 194.784 826.537 195.386C827.181 196.002 827.503 196.786 827.503 197.752C827.503 198.718 827.139 199.53 826.425 200.16C825.697 200.804 824.787 201.126 823.709 201.126C821.875 201.126 820.349 200.258 819.719 198.732L820.839 198.256C821.245 199.194 822.295 199.936 823.709 199.936C825.319 199.936 826.215 199.012 826.215 197.794C826.215 196.492 825.165 195.652 823.499 195.652C822.603 195.652 821.875 195.932 821.329 196.492ZM834.179 192.39H828.243V191.2H835.677V191.998L830.805 201H829.475L834.179 192.39ZM836.423 196.366C836.423 194.672 836.843 193.37 837.669 192.446C838.495 191.536 839.531 191.074 840.777 191.074C842.415 191.074 843.703 191.816 844.249 192.992L843.297 193.636C842.723 192.726 841.869 192.278 840.721 192.278C839.853 192.278 839.125 192.614 838.537 193.286C837.949 193.972 837.655 194.896 837.669 196.086C838.215 195.064 839.489 194.448 840.889 194.448C842.023 194.448 842.933 194.742 843.591 195.344C844.249 195.946 844.585 196.744 844.585 197.724C844.585 198.718 844.221 199.544 843.479 200.174C842.737 200.804 841.813 201.126 840.707 201.126C838.061 201.126 836.423 199.404 836.423 196.366ZM837.823 197.556C838.089 198.942 839.139 199.922 840.693 199.922C841.449 199.922 842.079 199.726 842.569 199.32C843.059 198.928 843.297 198.41 843.297 197.78C843.297 196.394 842.317 195.652 840.819 195.652C839.993 195.652 839.307 195.848 838.775 196.24C838.229 196.632 837.921 197.066 837.823 197.556Z" fill="#1A3341"/>
<path d="M64 518H493.451C494.004 518 494.451 518.448 494.451 519V535C494.451 535.552 494.004 536 493.451 536H64V518Z" fill="url(#paint18_linear_4008_19574)"/>
<path d="M502.49 523.804L502.042 522.754L505.402 521.144H506.2V531H504.996V522.642L502.49 523.804ZM507.985 526.1C507.985 524.588 508.335 523.37 509.049 522.46C509.749 521.55 510.785 521.088 512.143 521.088C514.929 521.088 516.315 522.922 516.315 526.1C516.315 527.626 515.965 528.83 515.279 529.74C514.579 530.65 513.543 531.112 512.171 531.112C510.855 531.112 509.833 530.65 509.091 529.726C508.349 528.802 507.985 527.598 507.985 526.1ZM509.273 526.1C509.273 528.494 510.365 529.922 512.171 529.922C514.075 529.922 515.027 528.648 515.027 526.1C515.027 523.552 514.061 522.278 512.143 522.278C510.197 522.278 509.273 523.678 509.273 526.1ZM528.18 531H526.962V528.998H520.97V528.186L527.102 521.2H528.18V527.864H530V528.998H528.18V531ZM526.962 523.16L522.65 527.864H526.962V523.16ZM530.573 523.804L530.125 522.754L533.485 521.144H534.283V531H533.079V522.642L530.573 523.804ZM537.188 524.434L536.166 524.07C536.516 522.334 537.832 521.088 539.918 521.088C541.934 521.088 543.166 522.25 543.166 524.028C543.166 524.966 542.76 525.904 542.256 526.576C542.004 526.926 541.682 527.262 541.304 527.612C540.534 528.298 539.988 528.662 539.19 529.166L538.112 529.838H543.53V531H535.9V530.048L538.028 528.634C538.406 528.396 538.672 528.214 538.826 528.102C538.98 528.004 539.232 527.822 539.568 527.584C539.904 527.346 540.156 527.136 540.324 526.982C540.478 526.828 540.688 526.632 540.926 526.38C541.57 525.68 541.808 525.036 541.878 524.154C541.878 522.88 541.052 522.306 539.834 522.306C539.078 522.306 538.476 522.516 538.042 522.936C537.608 523.356 537.314 523.86 537.188 524.434Z" fill="#1A3341"/>
<path d="M64 542H688.844C689.396 542 689.844 542.448 689.844 543V559C689.844 559.552 689.396 560 688.844 560H64V542Z" fill="url(#paint19_linear_4008_19574)"/>
<path d="M698.49 547.804L698.042 546.754L701.402 545.144H702.2V555H700.996V546.642L698.49 547.804ZM705.413 550.492L704.405 550.226L704.979 545.2H711.139V546.39H706.057L705.693 549.022C706.183 548.658 706.925 548.476 707.919 548.476C709.067 548.476 709.963 548.784 710.621 549.386C711.265 550.002 711.587 550.786 711.587 551.752C711.587 552.718 711.223 553.53 710.509 554.16C709.781 554.804 708.871 555.126 707.793 555.126C705.959 555.126 704.433 554.258 703.803 552.732L704.923 552.256C705.329 553.194 706.379 553.936 707.793 553.936C709.403 553.936 710.299 553.012 710.299 551.794C710.299 550.492 709.249 549.652 707.583 549.652C706.687 549.652 705.959 549.932 705.413 550.492ZM716.595 547.804L716.147 546.754L719.507 545.144H720.305V555H719.101V546.642L716.595 547.804ZM728.853 555H727.635V552.998H721.643V552.186L727.775 545.2H728.853V551.864H730.673V552.998H728.853V555ZM727.635 547.16L723.323 551.864H727.635V547.16ZM736.971 546.39H731.035V545.2H738.469V545.998L733.597 555H732.267L736.971 546.39Z" fill="#1A3341"/>
<path d="M64 341H556.624C557.176 341 557.624 341.448 557.624 342V358C557.624 358.552 557.176 359 556.624 359H64V341Z" fill="url(#paint20_linear_4008_19574)"/>
<path d="M566.49 346.804L566.042 345.754L569.402 344.144H570.2V354H568.996V345.642L566.49 346.804ZM571.873 346.804L571.425 345.754L574.785 344.144H575.583V354H574.379V345.642L571.873 346.804ZM589.574 348.918C589.574 350.584 589.182 351.872 588.384 352.768C587.586 353.678 586.522 354.126 585.192 354.126C583.568 354.126 582.294 353.44 581.664 352.39L582.672 351.69C583.232 352.474 584.254 352.922 585.36 352.922C586.27 352.922 586.998 352.558 587.572 351.83C588.146 351.116 588.384 350.22 588.314 349.156C587.852 350.22 586.69 351.004 585.136 351.004C584.044 351.004 583.148 350.696 582.448 350.066C581.734 349.45 581.384 348.638 581.384 347.644C581.384 346.552 581.762 345.684 582.518 345.04C583.274 344.396 584.282 344.074 585.528 344.074C588.048 344.074 589.574 345.838 589.574 348.918ZM588.104 347.602C587.894 346.3 586.998 345.278 585.388 345.278C583.708 345.278 582.672 346.146 582.672 347.602C582.672 348.988 583.722 349.8 585.36 349.8C586.102 349.8 586.732 349.576 587.222 349.128C587.712 348.68 588.006 348.176 588.104 347.602ZM597.386 354H596.168V351.998H590.176V351.186L596.308 344.2H597.386V350.864H599.206V351.998H597.386V354ZM596.168 346.16L591.856 350.864H596.168V346.16ZM608.038 348.918C608.038 350.584 607.646 351.872 606.848 352.768C606.05 353.678 604.986 354.126 603.656 354.126C602.032 354.126 600.758 353.44 600.128 352.39L601.136 351.69C601.696 352.474 602.718 352.922 603.824 352.922C604.734 352.922 605.462 352.558 606.036 351.83C606.61 351.116 606.848 350.22 606.778 349.156C606.316 350.22 605.154 351.004 603.6 351.004C602.508 351.004 601.612 350.696 600.912 350.066C600.198 349.45 599.848 348.638 599.848 347.644C599.848 346.552 600.226 345.684 600.982 345.04C601.738 344.396 602.746 344.074 603.992 344.074C606.512 344.074 608.038 345.838 608.038 348.918ZM606.568 347.602C606.358 346.3 605.462 345.278 603.852 345.278C602.172 345.278 601.136 346.146 601.136 347.602C601.136 348.988 602.186 349.8 603.824 349.8C604.566 349.8 605.196 349.576 605.686 349.128C606.176 348.68 606.47 348.176 606.568 347.602Z" fill="#1A3341"/>
<path d="M64 365H759.362C759.914 365 760.362 365.448 760.362 366V382C760.362 382.552 759.914 383 759.362 383H64V365Z" fill="url(#paint21_linear_4008_19574)"/>
<path d="M768.49 370.804L768.042 369.754L771.402 368.144H772.2V378H770.996V369.642L768.49 370.804ZM773.985 373.366C773.985 371.672 774.405 370.37 775.231 369.446C776.057 368.536 777.093 368.074 778.339 368.074C779.977 368.074 781.265 368.816 781.811 369.992L780.859 370.636C780.285 369.726 779.431 369.278 778.283 369.278C777.415 369.278 776.687 369.614 776.099 370.286C775.511 370.972 775.217 371.896 775.231 373.086C775.777 372.064 777.051 371.448 778.451 371.448C779.585 371.448 780.495 371.742 781.153 372.344C781.811 372.946 782.147 373.744 782.147 374.724C782.147 375.718 781.783 376.544 781.041 377.174C780.299 377.804 779.375 378.126 778.269 378.126C775.623 378.126 773.985 376.404 773.985 373.366ZM775.385 374.556C775.651 375.942 776.701 376.922 778.255 376.922C779.011 376.922 779.641 376.726 780.131 376.32C780.621 375.928 780.859 375.41 780.859 374.78C780.859 373.394 779.879 372.652 778.381 372.652C777.555 372.652 776.869 372.848 776.337 373.24C775.791 373.632 775.483 374.066 775.385 374.556ZM791.077 372.414H791.511C792.141 372.414 792.659 372.26 793.093 371.966C793.513 371.672 793.723 371.28 793.723 370.818C793.723 369.768 792.897 369.236 791.259 369.236C789.691 369.236 788.837 369.81 788.837 370.818C788.837 371.728 789.775 372.414 791.077 372.414ZM791.483 373.52H791.133C790.377 373.52 789.747 373.688 789.257 374.01C788.767 374.332 788.515 374.738 788.515 375.228C788.515 376.292 789.495 376.964 791.273 376.964C793.079 376.964 794.045 376.32 794.045 375.242C794.045 374.164 793.009 373.52 791.483 373.52ZM794.241 377.37C793.527 377.874 792.533 378.126 791.287 378.126C790.041 378.126 789.047 377.874 788.319 377.384C787.591 376.894 787.227 376.222 787.227 375.354C787.227 374.22 787.969 373.324 789.159 372.932C788.081 372.582 787.549 371.728 787.549 370.734C787.549 369.11 788.921 368.074 791.273 368.074C793.639 368.074 795.011 369.11 795.011 370.734C795.011 371.672 794.493 372.386 793.457 372.862C794.703 373.24 795.319 374.052 795.319 375.298C795.319 376.18 794.955 376.88 794.241 377.37ZM796.299 370.804L795.851 369.754L799.211 368.144H800.009V378H798.805V369.642L796.299 370.804ZM801.795 373.1C801.795 371.588 802.145 370.37 802.859 369.46C803.559 368.55 804.595 368.088 805.953 368.088C808.739 368.088 810.125 369.922 810.125 373.1C810.125 374.626 809.775 375.83 809.089 376.74C808.389 377.65 807.353 378.112 805.981 378.112C804.665 378.112 803.643 377.65 802.901 376.726C802.159 375.802 801.795 374.598 801.795 373.1ZM803.083 373.1C803.083 375.494 804.175 376.922 805.981 376.922C807.885 376.922 808.837 375.648 808.837 373.1C808.837 370.552 807.871 369.278 805.953 369.278C804.007 369.278 803.083 370.678 803.083 373.1Z" fill="#1A3341"/>
<path d="M64 695H402.366C402.918 695 403.366 695.448 403.366 696V712C403.366 712.552 402.918 713 402.366 713H64V695Z" fill="url(#paint22_linear_4008_19574)"/>
<path d="M415.466 702.414H415.9C416.53 702.414 417.048 702.26 417.482 701.966C417.902 701.672 418.112 701.28 418.112 700.818C418.112 699.768 417.286 699.236 415.648 699.236C414.08 699.236 413.226 699.81 413.226 700.818C413.226 701.728 414.164 702.414 415.466 702.414ZM415.872 703.52H415.522C414.766 703.52 414.136 703.688 413.646 704.01C413.156 704.332 412.904 704.738 412.904 705.228C412.904 706.292 413.884 706.964 415.662 706.964C417.468 706.964 418.434 706.32 418.434 705.242C418.434 704.164 417.398 703.52 415.872 703.52ZM418.63 707.37C417.916 707.874 416.922 708.126 415.676 708.126C414.43 708.126 413.436 707.874 412.708 707.384C411.98 706.894 411.616 706.222 411.616 705.354C411.616 704.22 412.358 703.324 413.548 702.932C412.47 702.582 411.938 701.728 411.938 700.734C411.938 699.11 413.31 698.074 415.662 698.074C418.028 698.074 419.4 699.11 419.4 700.734C419.4 701.672 418.882 702.386 417.846 702.862C419.092 703.24 419.708 704.052 419.708 705.298C419.708 706.18 419.344 706.88 418.63 707.37ZM424.745 700.804L424.297 699.754L427.657 698.144H428.455V708H427.251V699.642L424.745 700.804ZM431.669 703.492L430.661 703.226L431.235 698.2H437.395V699.39H432.313L431.949 702.022C432.439 701.658 433.181 701.476 434.175 701.476C435.323 701.476 436.219 701.784 436.877 702.386C437.521 703.002 437.843 703.786 437.843 704.752C437.843 705.718 437.479 706.53 436.765 707.16C436.037 707.804 435.127 708.126 434.049 708.126C432.215 708.126 430.689 707.258 430.059 705.732L431.179 705.256C431.585 706.194 432.635 706.936 434.049 706.936C435.659 706.936 436.555 706.012 436.555 704.794C436.555 703.492 435.505 702.652 433.839 702.652C432.943 702.652 432.215 702.932 431.669 703.492ZM440.333 703.492L439.325 703.226L439.899 698.2H446.059V699.39H440.977L440.613 702.022C441.103 701.658 441.845 701.476 442.839 701.476C443.987 701.476 444.883 701.784 445.541 702.386C446.185 703.002 446.507 703.786 446.507 704.752C446.507 705.718 446.143 706.53 445.429 707.16C444.701 707.804 443.791 708.126 442.713 708.126C440.879 708.126 439.353 707.258 438.723 705.732L439.843 705.256C440.249 706.194 441.299 706.936 442.713 706.936C444.323 706.936 445.219 706.012 445.219 704.794C445.219 703.492 444.169 702.652 442.503 702.652C441.607 702.652 440.879 702.932 440.333 703.492Z" fill="#1A3341"/>
<path d="M64 719H941.532C942.085 719 942.532 719.448 942.532 720V736C942.532 736.552 942.085 737 941.532 737H64V719Z" fill="url(#paint23_linear_4008_19574)"/>
<path d="M952.722 725.434L951.7 725.07C952.05 723.334 953.366 722.088 955.452 722.088C957.468 722.088 958.7 723.25 958.7 725.028C958.7 725.966 958.294 726.904 957.79 727.576C957.538 727.926 957.216 728.262 956.838 728.612C956.068 729.298 955.522 729.662 954.724 730.166L953.646 730.838H959.064V732H951.434V731.048L953.562 729.634C953.94 729.396 954.206 729.214 954.36 729.102C954.514 729.004 954.766 728.822 955.102 728.584C955.438 728.346 955.69 728.136 955.858 727.982C956.012 727.828 956.222 727.632 956.46 727.38C957.104 726.68 957.342 726.036 957.412 725.154C957.412 723.88 956.586 723.306 955.368 723.306C954.612 723.306 954.01 723.516 953.576 723.936C953.142 724.356 952.848 724.86 952.722 725.434ZM959.922 724.804L959.474 723.754L962.834 722.144H963.632V732H962.428V723.642L959.922 724.804ZM970.595 725.434L969.573 725.07C969.923 723.334 971.239 722.088 973.325 722.088C975.341 722.088 976.573 723.25 976.573 725.028C976.573 725.966 976.167 726.904 975.663 727.576C975.411 727.926 975.089 728.262 974.711 728.612C973.941 729.298 973.395 729.662 972.597 730.166L971.519 730.838H976.937V732H969.307V731.048L971.435 729.634C971.813 729.396 972.079 729.214 972.233 729.102C972.387 729.004 972.639 728.822 972.975 728.584C973.311 728.346 973.563 728.136 973.731 727.982C973.885 727.828 974.095 727.632 974.333 727.38C974.977 726.68 975.215 726.036 975.285 725.154C975.285 723.88 974.459 723.306 973.241 723.306C972.485 723.306 971.883 723.516 971.449 723.936C971.015 724.356 970.721 724.86 970.595 725.434ZM978.873 725.056L977.823 724.58C978.341 723.068 979.699 722.074 981.729 722.074C982.695 722.074 983.493 722.298 984.109 722.746C984.725 723.194 985.033 723.796 985.033 724.538C985.033 725.672 984.431 726.512 983.311 726.834C984.389 726.904 985.257 727.716 985.257 729.172C985.257 730.096 984.921 730.824 984.249 731.342C983.577 731.86 982.723 732.126 981.673 732.126C979.531 732.126 978.047 731.104 977.557 729.494L978.691 729.004C979.293 730.278 980.315 730.922 981.757 730.922C983.115 730.922 983.969 730.292 983.969 729.186C983.969 728.108 983.129 727.562 981.449 727.562H980.357V726.4H981.225C982.751 726.4 983.745 725.714 983.745 724.776C983.745 723.81 982.947 723.264 981.673 723.264C980.175 723.264 979.265 724.034 978.873 725.056ZM987.528 725.434L986.506 725.07C986.856 723.334 988.172 722.088 990.258 722.088C992.274 722.088 993.506 723.25 993.506 725.028C993.506 725.966 993.1 726.904 992.596 727.576C992.344 727.926 992.022 728.262 991.644 728.612C990.874 729.298 990.328 729.662 989.53 730.166L988.452 730.838H993.87V732H986.24V731.048L988.368 729.634C988.746 729.396 989.012 729.214 989.166 729.102C989.32 729.004 989.572 728.822 989.908 728.584C990.244 728.346 990.496 728.136 990.664 727.982C990.818 727.828 991.028 727.632 991.266 727.38C991.91 726.68 992.148 726.036 992.218 725.154C992.218 723.88 991.392 723.306 990.174 723.306C989.418 723.306 988.816 723.516 988.382 723.936C987.948 724.356 987.654 724.86 987.528 725.434Z" fill="#1A3341"/>
<path opacity="0.6" d="M7.16635 707.536H6.12234V704.98H7.01034C7.53835 704.152 8.12635 702.076 8.12635 698.62V697.6H13.8023V704.98H14.8583V707.536H13.8143V706H7.16635V707.536ZM12.7103 698.62H9.17035V699.4C9.17035 700.42 9.07435 701.476 8.88235 702.568C8.67835 703.66 8.45035 704.464 8.18635 704.98H12.7103V698.62ZM20.113 704.212L20.761 704.812C20.185 705.676 19.357 706.108 18.265 706.108C17.269 706.108 16.465 705.808 15.853 705.22C15.241 704.632 14.941 703.852 14.941 702.868C14.941 701.92 15.217 701.14 15.781 700.528C16.333 699.916 17.113 699.616 18.121 699.616C18.949 699.616 19.645 699.88 20.185 700.396C20.725 700.912 21.001 701.596 21.001 702.448C21.001 702.724 20.977 702.976 20.941 703.204H16.021C16.081 704.44 16.993 705.16 18.301 705.16C19.033 705.16 19.729 704.776 20.113 704.212ZM18.049 700.54C16.909 700.54 16.165 701.236 16.009 702.292H19.933C19.873 701.188 19.165 700.54 18.049 700.54ZM23.0091 706H22.0011V699.76H23.0091V702.556L26.1651 699.76H27.5211L24.2931 702.628L27.6771 706H26.3331L23.5251 703.252L23.0091 703.732V706ZM28.6072 701.26L28.0912 700.504C28.6672 699.964 29.6632 699.616 30.5872 699.616C32.2552 699.616 33.1432 700.528 33.1432 702.148V706H32.1352V705.076C31.7392 705.652 30.9592 706.084 29.9512 706.084C28.5952 706.084 27.6832 705.328 27.6832 704.176C27.6832 702.868 28.7992 702.244 30.6712 702.244C31.2592 702.244 31.7392 702.304 32.1352 702.424C32.1352 701.212 31.7032 700.564 30.4672 700.564C29.8432 700.564 29.2192 700.792 28.6072 701.26ZM30.1912 705.172C30.6592 705.172 31.0792 705.04 31.4272 704.788C31.7752 704.536 32.0032 704.248 32.1352 703.948V703.312C31.7872 703.192 31.3432 703.132 30.8032 703.132C29.4352 703.132 28.7512 703.468 28.7512 704.14C28.7512 704.776 29.3272 705.172 30.1912 705.172ZM39.7453 697.084L39.9253 698.008C39.5773 698.14 39.0253 698.248 38.2453 698.332C37.4653 698.416 36.9253 698.536 36.6253 698.68C35.7253 699.124 35.1973 699.952 35.0653 701.176L35.1133 701.188C35.6293 700.372 36.4693 699.964 37.6213 699.964C38.4973 699.964 39.2053 700.228 39.7453 700.744C40.2853 701.272 40.5493 702.004 40.5493 702.928C40.5493 703.828 40.2493 704.584 39.6613 705.196C39.0733 705.808 38.3053 706.12 37.3813 706.12C35.3533 706.12 34.0933 704.764 34.0933 702.376C34.0933 701.176 34.2493 700.216 34.5613 699.484C34.8613 698.764 35.4133 698.2 36.1933 697.804C36.6133 697.6 37.2373 697.444 38.0653 697.36C38.8933 697.276 39.4573 697.18 39.7453 697.084ZM35.1613 702.556V702.64C35.1613 703.408 35.3653 704.02 35.7853 704.476C36.1933 704.932 36.7213 705.16 37.3693 705.16C38.0053 705.16 38.5093 704.956 38.9053 704.536C39.2893 704.128 39.4813 703.612 39.4813 702.988C39.4813 701.728 38.7373 700.924 37.4053 700.924C36.2533 700.924 35.4133 701.656 35.1613 702.556ZM42.5475 708.4H41.5395V699.76H42.5475V700.54C42.9675 699.928 43.6395 699.616 44.5635 699.616C45.4755 699.616 46.2075 699.904 46.7475 700.492C47.2875 701.08 47.5515 701.836 47.5515 702.772C47.5515 703.732 47.2635 704.524 46.6875 705.16C46.0995 705.796 45.3555 706.108 44.4435 706.108C43.6035 706.108 42.9675 705.892 42.5475 705.472V708.4ZM44.4555 700.564C43.5435 700.564 42.8355 701.152 42.5475 701.86V704.188C42.9075 704.836 43.5075 705.16 44.3595 705.16C44.9715 705.16 45.4875 704.944 45.8835 704.512C46.2795 704.08 46.4835 703.528 46.4835 702.844C46.4835 701.452 45.7035 700.564 44.4555 700.564ZM51.0645 706H48.5445V699.76H49.5525V701.704H51.1605C52.8645 701.704 53.7165 702.412 53.7165 703.84C53.7165 705.1 52.9245 706 51.0645 706ZM51.0285 702.664H49.5525V705.04H51.0285C52.1805 705.04 52.6485 704.632 52.6485 703.852C52.6485 703.06 52.1085 702.664 51.0285 702.664Z" fill="#1A3341"/>
<line x1="64.5" y1="32" x2="64.5" y2="755" stroke="#ABBEC9"/>
<rect y="2" width="10" height="10" fill="url(#paint24_linear_4008_19574)"/>
<path d="M19.476 5.372L18.6 5.06C18.9 3.572 20.028 2.504 21.816 2.504C23.544 2.504 24.6 3.5 24.6 5.024C24.6 5.828 24.252 6.632 23.82 7.208C23.604 7.508 23.328 7.796 23.004 8.096C22.344 8.684 21.876 8.996 21.192 9.428L20.268 10.004H24.912V11H18.372V10.184L20.196 8.972C20.52 8.768 20.748 8.612 20.88 8.516C21.012 8.432 21.228 8.276 21.516 8.072C21.804 7.868 22.02 7.688 22.164 7.556C22.296 7.424 22.476 7.256 22.68 7.04C23.232 6.44 23.436 5.888 23.496 5.132C23.496 4.04 22.788 3.548 21.744 3.548C21.096 3.548 20.58 3.728 20.208 4.088C19.836 4.448 19.584 4.88 19.476 5.372ZM25.7437 6.8C25.7437 5.504 26.0437 4.46 26.6557 3.68C27.2557 2.9 28.1437 2.504 29.3077 2.504C31.6957 2.504 32.8837 4.076 32.8837 6.8C32.8837 8.108 32.5837 9.14 31.9957 9.92C31.3957 10.7 30.5077 11.096 29.3317 11.096C28.2037 11.096 27.3277 10.7 26.6917 9.908C26.0557 9.116 25.7437 8.084 25.7437 6.8ZM26.8477 6.8C26.8477 8.852 27.7837 10.076 29.3317 10.076C30.9637 10.076 31.7797 8.984 31.7797 6.8C31.7797 4.616 30.9517 3.524 29.3077 3.524C27.6397 3.524 26.8477 4.724 26.8477 6.8ZM34.7399 5.372L33.8639 5.06C34.1639 3.572 35.2919 2.504 37.0799 2.504C38.8079 2.504 39.8639 3.5 39.8639 5.024C39.8639 5.828 39.5159 6.632 39.0839 7.208C38.8679 7.508 38.5919 7.796 38.2679 8.096C37.6079 8.684 37.1399 8.996 36.4559 9.428L35.5319 10.004H40.1759V11H33.6359V10.184L35.4599 8.972C35.7839 8.768 36.0119 8.612 36.1439 8.516C36.2759 8.432 36.4919 8.276 36.7799 8.072C37.0679 7.868 37.2839 7.688 37.4279 7.556C37.5599 7.424 37.7399 7.256 37.9439 7.04C38.4959 6.44 38.6999 5.888 38.7599 5.132C38.7599 4.04 38.0519 3.548 37.0079 3.548C36.3599 3.548 35.8439 3.728 35.4719 4.088C35.0999 4.448 34.8479 4.88 34.7399 5.372ZM41.9676 5.372L41.0916 5.06C41.3916 3.572 42.5196 2.504 44.3076 2.504C46.0356 2.504 47.0916 3.5 47.0916 5.024C47.0916 5.828 46.7436 6.632 46.3116 7.208C46.0956 7.508 45.8196 7.796 45.4956 8.096C44.8356 8.684 44.3676 8.996 43.6836 9.428L42.7596 10.004H47.4036V11H40.8636V10.184L42.6876 8.972C43.0116 8.768 43.2396 8.612 43.3716 8.516C43.5036 8.432 43.7196 8.276 44.0076 8.072C44.2956 7.868 44.5116 7.688 44.6556 7.556C44.7876 7.424 44.9676 7.256 45.1716 7.04C45.7236 6.44 45.9276 5.888 45.9876 5.132C45.9876 4.04 45.2796 3.548 44.2356 3.548C43.5876 3.548 43.0716 3.728 42.6996 4.088C42.3276 4.448 42.0756 4.88 41.9676 5.372Z" fill="#76848D"/>
<rect x="84" y="2" width="10" height="10" fill="url(#paint25_linear_4008_19574)"/>
<path d="M103.476 5.372L102.6 5.06C102.9 3.572 104.028 2.504 105.816 2.504C107.544 2.504 108.6 3.5 108.6 5.024C108.6 5.828 108.252 6.632 107.82 7.208C107.604 7.508 107.328 7.796 107.004 8.096C106.344 8.684 105.876 8.996 105.192 9.428L104.268 10.004H108.912V11H102.372V10.184L104.196 8.972C104.52 8.768 104.748 8.612 104.88 8.516C105.012 8.432 105.228 8.276 105.516 8.072C105.804 7.868 106.02 7.688 106.164 7.556C106.296 7.424 106.476 7.256 106.68 7.04C107.232 6.44 107.436 5.888 107.496 5.132C107.496 4.04 106.788 3.548 105.744 3.548C105.096 3.548 104.58 3.728 104.208 4.088C103.836 4.448 103.584 4.88 103.476 5.372ZM109.744 6.8C109.744 5.504 110.044 4.46 110.656 3.68C111.256 2.9 112.144 2.504 113.308 2.504C115.696 2.504 116.884 4.076 116.884 6.8C116.884 8.108 116.584 9.14 115.996 9.92C115.396 10.7 114.508 11.096 113.332 11.096C112.204 11.096 111.328 10.7 110.692 9.908C110.056 9.116 109.744 8.084 109.744 6.8ZM110.848 6.8C110.848 8.852 111.784 10.076 113.332 10.076C114.964 10.076 115.78 8.984 115.78 6.8C115.78 4.616 114.952 3.524 113.308 3.524C111.64 3.524 110.848 4.724 110.848 6.8ZM118.74 5.372L117.864 5.06C118.164 3.572 119.292 2.504 121.08 2.504C122.808 2.504 123.864 3.5 123.864 5.024C123.864 5.828 123.516 6.632 123.084 7.208C122.868 7.508 122.592 7.796 122.268 8.096C121.608 8.684 121.14 8.996 120.456 9.428L119.532 10.004H124.176V11H117.636V10.184L119.46 8.972C119.784 8.768 120.012 8.612 120.144 8.516C120.276 8.432 120.492 8.276 120.78 8.072C121.068 7.868 121.284 7.688 121.428 7.556C121.56 7.424 121.74 7.256 121.944 7.04C122.496 6.44 122.7 5.888 122.76 5.132C122.76 4.04 122.052 3.548 121.008 3.548C120.36 3.548 119.844 3.728 119.472 4.088C119.1 4.448 118.848 4.88 118.74 5.372ZM125.836 5.048L124.936 4.64C125.38 3.344 126.544 2.492 128.284 2.492C129.112 2.492 129.796 2.684 130.324 3.068C130.852 3.452 131.116 3.968 131.116 4.604C131.116 5.576 130.6 6.296 129.64 6.572C130.564 6.632 131.308 7.328 131.308 8.576C131.308 9.368 131.02 9.992 130.444 10.436C129.868 10.88 129.136 11.108 128.236 11.108C126.4 11.108 125.128 10.232 124.708 8.852L125.68 8.432C126.196 9.524 127.072 10.076 128.308 10.076C129.472 10.076 130.204 9.536 130.204 8.588C130.204 7.664 129.484 7.196 128.044 7.196H127.108V6.2H127.852C129.16 6.2 130.012 5.612 130.012 4.808C130.012 3.98 129.328 3.512 128.236 3.512C126.952 3.512 126.172 4.172 125.836 5.048Z" fill="#76848D"/>
<defs>
<linearGradient id="paint0_linear_4008_19574" x1="68.5473" y1="64" x2="159.493" y2="64" gradientUnits="userSpaceOnUse">
<stop offset="0" stop-color="#CEE8EF"/>
<stop offset="1" stop-color="#CEE8EF"/>
</linearGradient>
<linearGradient id="paint1_linear_4008_19574" x1="735.387" y1="79" x2="64" y2="79" gradientUnits="userSpaceOnUse">
<stop offset="0" stop-color="#6D73F9"/>
<stop offset="1" stop-color="#9BB8F1"/>
</linearGradient>
<linearGradient id="paint2_linear_4008_19574" x1="95.5511" y1="418" x2="726.572" y2="418" gradientUnits="userSpaceOnUse">
<stop offset="0" stop-color="#CEE8EF"/>
<stop offset="1" stop-color="#CEE8EF"/>
</linearGradient>
<linearGradient id="paint3_linear_4008_19574" x1="669.276" y1="433" x2="64" y2="433" gradientUnits="userSpaceOnUse">
<stop offset="0" stop-color="#6D73F9"/>
<stop offset="1" stop-color="#9BB8F1"/>
</linearGradient>
<linearGradient id="paint4_linear_4008_19574" x1="77.8517" y1="241" x2="354.885" y2="241" gradientUnits="userSpaceOnUse">
<stop offset="0" stop-color="#CEE8EF"/>
<stop offset="1" stop-color="#CEE8EF"/>
</linearGradient>
<linearGradient id="paint5_linear_4008_19574" x1="826.472" y1="256" x2="64" y2="256" gradientUnits="userSpaceOnUse">
<stop offset="0" stop-color="#6D73F9"/>
<stop offset="1" stop-color="#9BB8F1"/>
</linearGradient>
<linearGradient id="paint6_linear_4008_19574" x1="80.3702" y1="595" x2="407.774" y2="595" gradientUnits="userSpaceOnUse">
<stop offset="0" stop-color="#CEE8EF"/>
<stop offset="1" stop-color="#CEE8EF"/>
</linearGradient>
<linearGradient id="paint7_linear_4008_19574" x1="921.965" y1="610" x2="64" y2="610" gradientUnits="userSpaceOnUse">
<stop offset="0" stop-color="#6D73F9"/>
<stop offset="1" stop-color="#9BB8F1"/>
</linearGradient>
<linearGradient id="paint8_linear_4008_19574" x1="66.7983" y1="123" x2="122.765" y2="123" gradientUnits="userSpaceOnUse">
<stop offset="0" stop-color="#CEE8EF"/>
<stop offset="1" stop-color="#CEE8EF"/>
</linearGradient>
<linearGradient id="paint9_linear_4008_19574" x1="685.437" y1="138" x2="64" y2="138" gradientUnits="userSpaceOnUse">
<stop offset="0" stop-color="#6D73F9"/>
<stop offset="1" stop-color="#9BB8F1"/>
</linearGradient>
<linearGradient id="paint10_linear_4008_19574" x1="97.9296" y1="477" x2="776.522" y2="477" gradientUnits="userSpaceOnUse">
<stop offset="0" stop-color="#CEE8EF"/>
<stop offset="1" stop-color="#CEE8EF"/>
</linearGradient>
<linearGradient id="paint11_linear_4008_19574" x1="416.588" y1="492" x2="64" y2="492" gradientUnits="userSpaceOnUse">
<stop offset="0" stop-color="#6D73F9"/>
<stop offset="1" stop-color="#9BB8F1"/>
</linearGradient>
<linearGradient id="paint12_linear_4008_19574" x1="85.5471" y1="300" x2="516.488" y2="300" gradientUnits="userSpaceOnUse">
<stop offset="0" stop-color="#CEE8EF"/>
<stop offset="1" stop-color="#CEE8EF"/>
</linearGradient>
<linearGradient id="paint13_linear_4008_19574" x1="872.015" y1="315" x2="64" y2="315" gradientUnits="userSpaceOnUse">
<stop offset="0" stop-color="#6D73F9"/>
<stop offset="1" stop-color="#9BB8F1"/>
</linearGradient>
<linearGradient id="paint14_linear_4008_19574" x1="83.3784" y1="654" x2="470.946" y2="654" gradientUnits="userSpaceOnUse">
<stop offset="0" stop-color="#CEE8EF"/>
<stop offset="1" stop-color="#CEE8EF"/>
</linearGradient>
<linearGradient id="paint15_linear_4008_19574" x1="1063" y1="669" x2="64" y2="669" gradientUnits="userSpaceOnUse">
<stop offset="0" stop-color="#6D73F9"/>
<stop offset="1" stop-color="#9BB8F1"/>
</linearGradient>
<linearGradient id="paint16_linear_4008_19574" x1="72.8847" y1="182" x2="250.578" y2="182" gradientUnits="userSpaceOnUse">
<stop offset="0" stop-color="#CEE8EF"/>
<stop offset="1" stop-color="#CEE8EF"/>
</linearGradient>
<linearGradient id="paint17_linear_4008_19574" x1="794.151" y1="197" x2="64" y2="197" gradientUnits="userSpaceOnUse">
<stop offset="0" stop-color="#6D73F9"/>
<stop offset="1" stop-color="#9BB8F1"/>
</linearGradient>
<linearGradient id="paint18_linear_4008_19574" x1="84.4977" y1="536" x2="494.451" y2="536" gradientUnits="userSpaceOnUse">
<stop offset="0" stop-color="#CEE8EF"/>
<stop offset="1" stop-color="#CEE8EF"/>
</linearGradient>
<linearGradient id="paint19_linear_4008_19574" x1="689.844" y1="551" x2="64" y2="551" gradientUnits="userSpaceOnUse">
<stop offset="0" stop-color="#6D73F9"/>
<stop offset="1" stop-color="#9BB8F1"/>
</linearGradient>
<linearGradient id="paint20_linear_4008_19574" x1="87.5059" y1="359" x2="557.624" y2="359" gradientUnits="userSpaceOnUse">
<stop offset="0" stop-color="#CEE8EF"/>
<stop offset="1" stop-color="#CEE8EF"/>
</linearGradient>
<linearGradient id="paint21_linear_4008_19574" x1="760.362" y1="374" x2="64" y2="374" gradientUnits="userSpaceOnUse">
<stop offset="0" stop-color="#6D73F9"/>
<stop offset="1" stop-color="#9BB8F1"/>
</linearGradient>
<linearGradient id="paint22_linear_4008_19574" x1="80.1603" y1="713" x2="403.366" y2="713" gradientUnits="userSpaceOnUse">
<stop offset="0" stop-color="#CEE8EF"/>
<stop offset="1" stop-color="#CEE8EF"/>
</linearGradient>
<linearGradient id="paint23_linear_4008_19574" x1="942.532" y1="728" x2="64" y2="728" gradientUnits="userSpaceOnUse">
<stop offset="0" stop-color="#6D73F9"/>
<stop offset="1" stop-color="#9BB8F1"/>
</linearGradient>
<linearGradient id="paint24_linear_4008_19574" x1="5" y1="2" x2="5" y2="12" gradientUnits="userSpaceOnUse">
<stop offset="0" stop-color="#CDE3E9"/>
<stop offset="1" stop-color="#D3E8ED"/>
</linearGradient>
<linearGradient id="paint25_linear_4008_19574" x1="89" y1="2" x2="89" y2="12" gradientUnits="userSpaceOnUse">
<stop offset="0" stop-color="#6D73F9"/>
<stop offset="1" stop-color="#9BB8F1"/>
</linearGradient>
</defs>
</svg>
