<svg width="448" height="540" viewBox="0 0 448 540" fill="none" xmlns="http://www.w3.org/2000/svg">
<rect x="48.5" y="0.5" width="79" height="79" fill="#F5E386" stroke="white"/>
<rect x="48.5" y="160.5" width="79" height="79" fill="#88C591" stroke="white"/>
<rect x="48.5" y="80.5" width="79" height="79" fill="#F5E386" stroke="white"/>
<rect x="48.5" y="240.5" width="79" height="79" fill="#88C591" stroke="white"/>
<rect x="48.5" y="320.5" width="79" height="79" fill="#88C591" stroke="white"/>
<rect x="128.5" y="0.5" width="79" height="79" fill="#F5E386" stroke="white"/>
<rect x="128.5" y="160.5" width="79" height="79" fill="#F5E386" stroke="white"/>
<rect x="128.5" y="80.5" width="79" height="79" fill="#F5E386" stroke="white"/>
<rect x="128.5" y="240.5" width="79" height="79" fill="#88C591" stroke="white"/>
<rect x="128.5" y="320.5" width="79" height="79" fill="#88C591" stroke="white"/>
<rect x="208.5" y="0.5" width="79" height="79" fill="#F87B7B" stroke="white"/>
<rect x="208.5" y="160.5" width="79" height="79" fill="#F5E386" stroke="white"/>
<rect x="208.5" y="80.5" width="79" height="79" fill="#F5E386" stroke="white"/>
<rect x="208.5" y="240.5" width="79" height="79" fill="#F5E386" stroke="white"/>
<rect x="208.5" y="320.5" width="79" height="79" fill="#88C591" stroke="white"/>
<rect x="288.5" y="0.5" width="79" height="79" fill="#F87B7B" stroke="white"/>
<rect x="288.5" y="160.5" width="79" height="79" fill="#F5E386" stroke="white"/>
<rect x="288.5" y="80.5" width="79" height="79" fill="#F87B7B" stroke="white"/>
<rect x="288.5" y="240.5" width="79" height="79" fill="#F5E386" stroke="white"/>
<rect x="288.5" y="320.5" width="79" height="79" fill="#F5E386" stroke="white"/>
<rect x="368.5" y="0.5" width="79" height="79" fill="#F87B7B" stroke="white"/>
<rect x="368.5" y="160.5" width="79" height="79" fill="#F87B7B" stroke="white"/>
<rect x="368.5" y="80.5" width="79" height="79" fill="#F87B7B" stroke="white"/>
<rect x="368.5" y="240.5" width="79" height="79" fill="#F87B7B" stroke="white"/>
<rect x="368.5" y="320.5" width="79" height="79" fill="#F87B7B" stroke="white"/>
<path d="M179.779 443H178.141V430.4H179.653L184.441 436.736L189.067 430.4H190.543V443H188.905V433.226L184.603 439.022H184.207L179.779 433.226V443ZM193.691 435.89L192.917 434.756C193.781 433.946 195.275 433.424 196.661 433.424C199.163 433.424 200.495 434.792 200.495 437.222V443H198.983V441.614C198.389 442.478 197.219 443.126 195.707 443.126C193.673 443.126 192.305 441.992 192.305 440.264C192.305 438.302 193.979 437.366 196.787 437.366C197.669 437.366 198.389 437.456 198.983 437.636C198.983 435.818 198.335 434.846 196.481 434.846C195.545 434.846 194.609 435.188 193.691 435.89ZM196.067 441.758C196.769 441.758 197.399 441.56 197.921 441.182C198.443 440.804 198.785 440.372 198.983 439.922V438.968C198.461 438.788 197.795 438.698 196.985 438.698C194.933 438.698 193.907 439.202 193.907 440.21C193.907 441.164 194.771 441.758 196.067 441.758ZM204.772 435.062H201.19V433.64H209.902V435.062H206.284V443H204.772V435.062ZM217.908 440.318L218.88 441.218C218.016 442.514 216.774 443.162 215.136 443.162C213.642 443.162 212.436 442.712 211.518 441.83C210.6 440.948 210.15 439.778 210.15 438.302C210.15 436.88 210.564 435.71 211.41 434.792C212.238 433.874 213.408 433.424 214.92 433.424C216.162 433.424 217.206 433.82 218.016 434.594C218.826 435.368 219.24 436.394 219.24 437.672C219.24 438.086 219.204 438.464 219.15 438.806H211.77C211.86 440.66 213.228 441.74 215.19 441.74C216.288 441.74 217.332 441.164 217.908 440.318ZM214.812 434.81C213.102 434.81 211.986 435.854 211.752 437.438H217.638C217.548 435.782 216.486 434.81 214.812 434.81ZM222.432 446.6H220.92V433.64H222.432V434.81C223.062 433.892 224.07 433.424 225.456 433.424C226.824 433.424 227.922 433.856 228.732 434.738C229.542 435.62 229.938 436.754 229.938 438.158C229.938 439.598 229.506 440.786 228.642 441.74C227.76 442.694 226.644 443.162 225.276 443.162C224.016 443.162 223.062 442.838 222.432 442.208V446.6ZM225.294 434.846C223.926 434.846 222.864 435.728 222.432 436.79V440.282C222.972 441.254 223.872 441.74 225.15 441.74C226.068 441.74 226.842 441.416 227.436 440.768C228.03 440.12 228.336 439.292 228.336 438.266C228.336 436.178 227.166 434.846 225.294 434.846ZM238.7 435.998L232.994 443H231.608V433.64H233.12V440.66L238.808 433.64H240.212V443H238.7V435.998ZM243.121 435.89L242.347 434.756C243.211 433.946 244.705 433.424 246.091 433.424C248.593 433.424 249.925 434.792 249.925 437.222V443H248.413V441.614C247.819 442.478 246.649 443.126 245.137 443.126C243.103 443.126 241.735 441.992 241.735 440.264C241.735 438.302 243.409 437.366 246.217 437.366C247.099 437.366 247.819 437.456 248.413 437.636C248.413 435.818 247.765 434.846 245.911 434.846C244.975 434.846 244.039 435.188 243.121 435.89ZM245.497 441.758C246.199 441.758 246.829 441.56 247.351 441.182C247.873 440.804 248.215 440.372 248.413 439.922V438.968C247.891 438.788 247.225 438.698 246.415 438.698C244.363 438.698 243.337 439.202 243.337 440.21C243.337 441.164 244.201 441.758 245.497 441.758ZM260.152 443H258.64V435.08H254.68V435.512C254.68 438.536 254.338 440.624 253.654 441.704C252.97 442.784 252.124 443.144 250.954 443V441.56C252.16 441.56 253.168 441.038 253.168 435.566V433.64H260.152V443ZM266.132 443H262.352V433.64H263.864V436.556H266.276C268.832 436.556 270.11 437.618 270.11 439.76C270.11 441.65 268.922 443 266.132 443ZM266.078 437.996H263.864V441.56H266.078C267.806 441.56 268.508 440.948 268.508 439.778C268.508 438.59 267.698 437.996 266.078 437.996ZM280.057 443H278.545V438.95H273.145V443H271.633V433.64H273.145V437.528H278.545V433.64H280.057V443ZM281.728 438.302C281.728 436.88 282.196 435.71 283.114 434.792C284.032 433.874 285.22 433.424 286.678 433.424C288.154 433.424 289.36 433.874 290.278 434.792C291.196 435.71 291.664 436.88 291.664 438.302C291.664 439.724 291.196 440.876 290.278 441.794C289.342 442.712 288.136 443.162 286.678 443.162C285.22 443.162 284.032 442.712 283.114 441.794C282.196 440.876 281.728 439.724 281.728 438.302ZM283.33 438.302C283.33 439.292 283.636 440.12 284.266 440.768C284.896 441.416 285.688 441.74 286.678 441.74C287.668 441.74 288.496 441.416 289.126 440.786C289.756 440.156 290.062 439.328 290.062 438.302C290.062 437.276 289.738 436.448 289.108 435.8C288.46 435.17 287.65 434.846 286.678 434.846C285.706 434.846 284.914 435.17 284.284 435.8C283.654 436.43 283.33 437.276 283.33 438.302ZM300.596 440.3L301.676 441.074C300.974 442.388 299.39 443.162 297.824 443.162C296.33 443.162 295.124 442.712 294.206 441.83C293.288 440.948 292.82 439.778 292.82 438.302C292.82 436.898 293.27 435.728 294.188 434.81C295.106 433.892 296.276 433.424 297.734 433.424C299.408 433.424 300.902 434.18 301.532 435.332L300.362 436.124C299.732 435.278 298.868 434.846 297.77 434.846C296.798 434.846 296.006 435.17 295.376 435.818C294.746 436.466 294.422 437.294 294.422 438.302C294.422 439.328 294.746 440.156 295.412 440.786C296.06 441.416 296.906 441.74 297.968 441.74C299.084 441.74 299.966 441.254 300.596 440.3ZM305.565 435.062H301.983V433.64H310.695V435.062H307.077V443H305.565V435.062ZM315.597 443H311.817V433.64H313.329V436.556H315.741C318.297 436.556 319.575 437.618 319.575 439.76C319.575 441.65 318.387 443 315.597 443ZM315.543 437.996H313.329V441.56H315.543C317.271 441.56 317.973 440.948 317.973 439.778C317.973 438.59 317.163 437.996 315.543 437.996Z" fill="#1A3341" fill-opacity="0.6"/>
<path d="M15 234.51L15 239.514L2.4 239.514L2.4 234.42C2.4 231.198 3.57 229.974 5.532 229.974C6.936 229.974 7.89 230.568 8.412 231.756C8.7 230.37 9.762 229.524 11.4 229.524C13.866 229.524 15 231.36 15 234.51ZM9.312 234.348L9.312 237.876L13.47 237.876L13.47 234.528C13.47 232.242 12.804 231.216 11.31 231.216C9.978 231.216 9.312 232.26 9.312 234.348ZM3.93 234.564L3.93 237.876L7.818 237.876L7.818 234.294C7.818 232.692 7.098 231.648 5.874 231.648C4.524 231.648 3.93 232.422 3.93 234.564ZM12.318 220.4L13.218 219.428C14.514 220.292 15.162 221.534 15.162 223.172C15.162 224.666 14.712 225.872 13.83 226.79C12.948 227.708 11.778 228.158 10.302 228.158C8.88 228.158 7.71 227.744 6.792 226.898C5.874 226.07 5.424 224.9 5.424 223.388C5.424 222.146 5.82 221.102 6.594 220.292C7.368 219.482 8.394 219.068 9.672 219.068C10.086 219.068 10.464 219.104 10.806 219.158L10.806 226.538C12.66 226.448 13.74 225.08 13.74 223.118C13.74 222.02 13.164 220.976 12.318 220.4ZM6.81 223.496C6.81 225.206 7.854 226.322 9.438 226.556L9.438 220.67C7.782 220.76 6.81 221.822 6.81 223.496ZM18.6 215.876L18.6 217.388L5.64 217.388L5.64 215.876L6.81 215.876C5.892 215.246 5.424 214.238 5.424 212.852C5.424 211.484 5.856 210.386 6.738 209.576C7.62 208.766 8.754 208.37 10.158 208.37C11.598 208.37 12.786 208.802 13.74 209.666C14.694 210.548 15.162 211.664 15.162 213.032C15.162 214.292 14.838 215.246 14.208 215.876L18.6 215.876ZM6.846 213.014C6.846 214.382 7.728 215.444 8.79 215.876L12.282 215.876C13.254 215.336 13.74 214.436 13.74 213.158C13.74 212.24 13.416 211.466 12.768 210.872C12.12 210.278 11.292 209.972 10.266 209.972C8.178 209.972 6.846 211.142 6.846 213.014ZM10.302 207.223C8.88 207.223 7.71 206.755 6.792 205.837C5.874 204.919 5.424 203.731 5.424 202.273C5.424 200.797 5.874 199.591 6.792 198.673C7.71 197.755 8.88 197.287 10.302 197.287C11.724 197.287 12.876 197.755 13.794 198.673C14.712 199.609 15.162 200.815 15.162 202.273C15.162 203.731 14.712 204.919 13.794 205.837C12.876 206.755 11.724 207.223 10.302 207.223ZM10.302 205.621C11.292 205.621 12.12 205.315 12.768 204.685C13.416 204.055 13.74 203.263 13.74 202.273C13.74 201.283 13.416 200.455 12.786 199.825C12.156 199.195 11.328 198.889 10.302 198.889C9.276 198.889 8.448 199.213 7.8 199.843C7.17 200.491 6.846 201.301 6.846 202.273C6.846 203.245 7.17 204.037 7.8 204.667C8.43 205.297 9.276 205.621 10.302 205.621ZM5.64 192.235L5.64 188.473L15 188.473L15 189.985L11.688 189.985L11.688 192.271L15 195.043L15 196.879L11.454 193.891C11.184 195.331 10.086 196.285 8.646 196.285C6.864 196.285 5.64 195.043 5.64 192.235ZM8.682 194.683C9.6 194.683 10.248 193.819 10.248 192.451L10.248 189.985L7.08 189.985L7.08 192.415C7.08 193.927 7.62 194.683 8.682 194.683ZM7.062 183.773L7.062 187.355L5.64 187.355L5.64 178.643L7.062 178.643L7.062 182.261L15 182.261L15 183.773L7.062 183.773ZM15 169.097L15 170.609L10.95 170.609L10.95 176.009L15 176.009L15 177.521L5.64 177.521L5.64 176.009L9.528 176.009L9.528 170.609L5.64 170.609L5.64 169.097L15 169.097ZM10.302 167.426C8.88 167.426 7.71 166.958 6.792 166.04C5.874 165.122 5.424 163.934 5.424 162.476C5.424 161 5.874 159.794 6.792 158.876C7.71 157.958 8.88 157.49 10.302 157.49C11.724 157.49 12.876 157.958 13.794 158.876C14.712 159.812 15.162 161.018 15.162 162.476C15.162 163.934 14.712 165.122 13.794 166.04C12.876 166.958 11.724 167.426 10.302 167.426ZM10.302 165.824C11.292 165.824 12.12 165.518 12.768 164.888C13.416 164.258 13.74 163.466 13.74 162.476C13.74 161.486 13.416 160.658 12.786 160.028C12.156 159.398 11.328 159.092 10.302 159.092C9.276 159.092 8.448 159.416 7.8 160.046C7.17 160.694 6.846 161.504 6.846 162.476C6.846 163.448 7.17 164.24 7.8 164.87C8.43 165.5 9.276 165.824 10.302 165.824ZM12.3 148.558L13.074 147.478C14.388 148.18 15.162 149.764 15.162 151.33C15.162 152.824 14.712 154.03 13.83 154.948C12.948 155.866 11.778 156.334 10.302 156.334C8.898 156.334 7.728 155.884 6.81 154.966C5.892 154.048 5.424 152.878 5.424 151.42C5.424 149.746 6.18 148.252 7.332 147.622L8.124 148.792C7.278 149.422 6.846 150.286 6.846 151.384C6.846 152.356 7.17 153.148 7.818 153.778C8.466 154.408 9.294 154.732 10.302 154.732C11.328 154.732 12.156 154.408 12.786 153.742C13.416 153.094 13.74 152.248 13.74 151.186C13.74 150.07 13.254 149.188 12.3 148.558ZM7.062 143.589L7.062 147.171L5.64 147.171L5.63999 138.459L7.062 138.459L7.062 142.077L15 142.077L15 143.589L7.062 143.589ZM15 133.558L15 137.338L5.63999 137.338L5.63999 135.826L8.556 135.826L8.556 133.414C8.556 130.858 9.61799 129.58 11.76 129.58C13.65 129.58 15 130.768 15 133.558ZM9.99599 133.612L9.99599 135.826L13.56 135.826L13.56 133.612C13.56 131.884 12.948 131.182 11.778 131.182C10.59 131.182 9.99599 131.992 9.99599 133.612Z" fill="#1A3341" fill-opacity="0.6"/>
<g opacity="0.8">
<rect opacity="0.9" y="486" width="10" height="10" fill="#F87B7B"/>
</g>
<path d="M18.432 490.8C18.432 489.588 18.84 488.556 19.668 487.728C20.496 486.9 21.504 486.492 22.704 486.492C23.892 486.492 24.9 486.9 25.728 487.716C26.556 488.532 26.964 489.564 26.964 490.8C26.964 492.024 26.556 493.044 25.728 493.872C24.9 494.7 23.892 495.108 22.704 495.108C21.504 495.108 20.496 494.7 19.668 493.884C18.84 493.068 18.432 492.036 18.432 490.8ZM19.572 490.8C19.572 491.736 19.884 492.516 20.496 493.128C21.108 493.752 21.84 494.064 22.704 494.064C23.592 494.064 24.336 493.752 24.936 493.14C25.524 492.528 25.824 491.748 25.824 490.8C25.824 489.852 25.524 489.072 24.912 488.46C24.3 487.848 23.556 487.536 22.704 487.536C21.828 487.536 21.096 487.848 20.484 488.46C19.872 489.072 19.572 489.852 19.572 490.8ZM33.4584 486.084L33.6384 487.008C33.2904 487.14 32.7384 487.248 31.9584 487.332C31.1784 487.416 30.6384 487.536 30.3384 487.68C29.4384 488.124 28.9104 488.952 28.7784 490.176L28.8264 490.188C29.3424 489.372 30.1824 488.964 31.3344 488.964C32.2104 488.964 32.9184 489.228 33.4584 489.744C33.9984 490.272 34.2624 491.004 34.2624 491.928C34.2624 492.828 33.9624 493.584 33.3744 494.196C32.7864 494.808 32.0184 495.12 31.0944 495.12C29.0664 495.12 27.8064 493.764 27.8064 491.376C27.8064 490.176 27.9624 489.216 28.2744 488.484C28.5744 487.764 29.1264 487.2 29.9064 486.804C30.3264 486.6 30.9504 486.444 31.7784 486.36C32.6064 486.276 33.1704 486.18 33.4584 486.084ZM28.8744 491.556V491.64C28.8744 492.408 29.0784 493.02 29.4984 493.476C29.9064 493.932 30.4344 494.16 31.0824 494.16C31.7184 494.16 32.2224 493.956 32.6184 493.536C33.0024 493.128 33.1944 492.612 33.1944 491.988C33.1944 490.728 32.4504 489.924 31.1184 489.924C29.9664 489.924 29.1264 490.656 28.8744 491.556ZM40.656 495H39.648V489.72H37.008V490.008C37.008 492.024 36.78 493.416 36.324 494.136C35.868 494.856 35.304 495.096 34.524 495V494.04C35.328 494.04 36 493.692 36 490.044V488.76H40.656V495ZM42.6026 490.26L42.0866 489.504C42.6626 488.964 43.6586 488.616 44.5826 488.616C46.2506 488.616 47.1386 489.528 47.1386 491.148V495H46.1306V494.076C45.7346 494.652 44.9546 495.084 43.9466 495.084C42.5906 495.084 41.6786 494.328 41.6786 493.176C41.6786 491.868 42.7946 491.244 44.6666 491.244C45.2546 491.244 45.7346 491.304 46.1306 491.424C46.1306 490.212 45.6986 489.564 44.4626 489.564C43.8386 489.564 43.2146 489.792 42.6026 490.26ZM44.1866 494.172C44.6546 494.172 45.0746 494.04 45.4226 493.788C45.7706 493.536 45.9986 493.248 46.1306 492.948V492.312C45.7826 492.192 45.3386 492.132 44.7986 492.132C43.4306 492.132 42.7466 492.468 42.7466 493.14C42.7466 493.776 43.3226 494.172 44.1866 494.172ZM53.3688 493.2L54.0888 493.716C53.6208 494.592 52.5648 495.108 51.5208 495.108C50.5248 495.108 49.7208 494.808 49.1088 494.22C48.4968 493.632 48.1848 492.852 48.1848 491.868C48.1848 490.932 48.4848 490.152 49.0968 489.54C49.7088 488.928 50.4888 488.616 51.4608 488.616C52.5768 488.616 53.5728 489.12 53.9928 489.888L53.2128 490.416C52.7928 489.852 52.2168 489.564 51.4848 489.564C50.8368 489.564 50.3088 489.78 49.8888 490.212C49.4688 490.644 49.2528 491.196 49.2528 491.868C49.2528 492.552 49.4688 493.104 49.9128 493.524C50.3448 493.944 50.9088 494.16 51.6168 494.16C52.3608 494.16 52.9488 493.836 53.3688 493.2ZM56.6813 489.708H54.2933V488.76H60.1013V489.708H57.6893V495H56.6813V489.708ZM63.3692 495H60.8492V488.76H61.8572V490.704H63.4652C65.1692 490.704 66.0212 491.412 66.0212 492.84C66.0212 494.1 65.2292 495 63.3692 495ZM63.3332 491.664H61.8572V494.04H63.3332C64.4852 494.04 64.9532 493.632 64.9532 492.852C64.9532 492.06 64.4132 491.664 63.3332 491.664ZM71.6423 495H70.6343V488.76H71.6423V491.556L74.7983 488.76H76.1543L72.9263 491.628L76.3103 495H74.9663L72.1583 492.252L71.6423 492.732V495ZM82.3162 495H81.3082V489.72H78.6682V490.008C78.6682 492.024 78.4402 493.416 77.9842 494.136C77.5282 494.856 76.9642 495.096 76.1842 495V494.04C76.9882 494.04 77.6602 493.692 77.6602 490.044V488.76H82.3162V495ZM84.7908 495H83.7828V488.76H84.7908V491.316H86.0388C86.1588 490.512 86.5068 489.852 87.0828 489.36C87.6468 488.868 88.3548 488.616 89.1948 488.616C90.1428 488.616 90.9108 488.916 91.5108 489.528C92.0988 490.14 92.3988 490.92 92.3988 491.868C92.3988 492.816 92.0988 493.584 91.4988 494.196C90.8988 494.808 90.1308 495.108 89.1948 495.108C88.3188 495.108 87.5988 494.844 87.0228 494.328C86.4468 493.812 86.1108 493.128 86.0268 492.276H84.7908V495ZM87.0708 491.868C87.0708 492.54 87.2748 493.08 87.6828 493.5C88.0788 493.92 88.5948 494.124 89.2068 494.124C90.4548 494.124 91.3308 493.224 91.3308 491.868C91.3308 491.196 91.1388 490.644 90.7428 490.224C90.3468 489.804 89.8308 489.6 89.2068 489.6C88.5948 489.6 88.0908 489.816 87.6828 490.236C87.2748 490.656 87.0708 491.208 87.0708 491.868ZM97.5533 488.76H98.5613V495H97.5533V492.372C97.0973 492.828 96.4613 493.056 95.6453 493.056C94.0013 493.056 93.1853 492.228 93.1853 490.572V488.76H94.1933V490.296C94.1933 491.556 94.7213 492.096 95.8253 492.096C96.5453 492.096 97.2293 491.712 97.5533 491.244V488.76ZM104.849 493.212L105.497 493.812C104.921 494.676 104.093 495.108 103.001 495.108C102.005 495.108 101.201 494.808 100.589 494.22C99.977 493.632 99.677 492.852 99.677 491.868C99.677 490.92 99.953 490.14 100.517 489.528C101.069 488.916 101.849 488.616 102.857 488.616C103.685 488.616 104.381 488.88 104.921 489.396C105.461 489.912 105.737 490.596 105.737 491.448C105.737 491.724 105.713 491.976 105.677 492.204H100.757C100.817 493.44 101.729 494.16 103.037 494.16C103.769 494.16 104.465 493.776 104.849 493.212ZM102.785 489.54C101.645 489.54 100.901 490.236 100.745 491.292H104.669C104.609 490.188 103.901 489.54 102.785 489.54ZM109.641 495H106.857V488.76H109.449C111.189 488.76 112.005 489.204 112.005 490.356C112.005 490.932 111.741 491.388 111.201 491.712C111.873 491.916 112.209 492.408 112.209 493.212C112.209 494.376 111.285 495 109.641 495ZM109.653 492.276H107.865V494.064H109.533C110.601 494.064 111.141 493.764 111.141 493.164C111.141 492.576 110.649 492.276 109.653 492.276ZM109.413 489.696H107.865V491.364H109.761C110.493 491.364 110.937 491.064 110.937 490.5C110.937 489.864 110.421 489.696 109.413 489.696ZM115.593 495H113.337V488.76H114.345V490.704H115.689C117.525 490.704 118.257 491.556 118.257 492.84C118.257 494.1 117.453 495 115.593 495ZM115.581 491.664H114.345V494.04H115.569C116.721 494.04 117.189 493.632 117.189 492.852C117.189 492.06 116.649 491.664 115.581 491.664ZM120.165 495H119.145V488.76H120.165V495ZM125.931 488.76H127.155L124.767 491.772L127.275 495H126.015L124.083 492.492L122.127 495H120.927L123.423 491.784L121.059 488.76H122.319L124.119 491.052L125.931 488.76ZM132.65 497.4H131.642V488.76H132.65V489.54C133.07 488.928 133.742 488.616 134.666 488.616C135.578 488.616 136.31 488.904 136.85 489.492C137.39 490.08 137.654 490.836 137.654 491.772C137.654 492.732 137.366 493.524 136.79 494.16C136.202 494.796 135.458 495.108 134.546 495.108C133.706 495.108 133.07 494.892 132.65 494.472V497.4ZM134.558 489.564C133.646 489.564 132.938 490.152 132.65 490.86V493.188C133.01 493.836 133.61 494.16 134.462 494.16C135.074 494.16 135.59 493.944 135.986 493.512C136.382 493.08 136.586 492.528 136.586 491.844C136.586 490.452 135.806 489.564 134.558 489.564ZM143.495 490.332L139.691 495H138.767V488.76H139.775V493.44L143.567 488.76H144.503V495H143.495V490.332ZM150.798 493.2L151.518 493.716C151.05 494.592 149.994 495.108 148.95 495.108C147.954 495.108 147.15 494.808 146.538 494.22C145.926 493.632 145.614 492.852 145.614 491.868C145.614 490.932 145.914 490.152 146.526 489.54C147.138 488.928 147.918 488.616 148.89 488.616C150.006 488.616 151.002 489.12 151.422 489.888L150.642 490.416C150.222 489.852 149.646 489.564 148.914 489.564C148.266 489.564 147.738 489.78 147.318 490.212C146.898 490.644 146.682 491.196 146.682 491.868C146.682 492.552 146.898 493.104 147.342 493.524C147.774 493.944 148.338 494.16 149.046 494.16C149.79 494.16 150.378 493.836 150.798 493.2ZM153.357 495H152.349V488.76H153.357V491.556L156.513 488.76H157.869L154.641 491.628L158.025 495H156.681L153.873 492.252L153.357 492.732V495ZM157.837 491.868C157.837 490.92 158.149 490.14 158.761 489.528C159.373 488.916 160.165 488.616 161.137 488.616C162.121 488.616 162.925 488.916 163.537 489.528C164.149 490.14 164.461 490.92 164.461 491.868C164.461 492.816 164.149 493.584 163.537 494.196C162.913 494.808 162.109 495.108 161.137 495.108C160.165 495.108 159.373 494.808 158.761 494.196C158.149 493.584 157.837 492.816 157.837 491.868ZM158.905 491.868C158.905 492.528 159.109 493.08 159.529 493.512C159.949 493.944 160.477 494.16 161.137 494.16C161.797 494.16 162.349 493.944 162.769 493.524C163.189 493.104 163.393 492.552 163.393 491.868C163.393 491.184 163.177 490.632 162.757 490.2C162.325 489.78 161.785 489.564 161.137 489.564C160.489 489.564 159.961 489.78 159.541 490.2C159.121 490.62 158.905 491.184 158.905 491.868ZM168.364 495H165.58V488.76H168.172C169.912 488.76 170.728 489.204 170.728 490.356C170.728 490.932 170.464 491.388 169.924 491.712C170.596 491.916 170.932 492.408 170.932 493.212C170.932 494.376 170.008 495 168.364 495ZM168.376 492.276H166.588V494.064H168.256C169.324 494.064 169.864 493.764 169.864 493.164C169.864 492.576 169.372 492.276 168.376 492.276ZM168.136 489.696H166.588V491.364H168.484C169.216 491.364 169.66 491.064 169.66 490.5C169.66 489.864 169.144 489.696 168.136 489.696Z" fill="#76848D"/>
<rect width="10" height="10" transform="translate(0 506)" fill="#F5E386"/>
<path d="M18.432 510.8C18.432 509.588 18.84 508.556 19.668 507.728C20.496 506.9 21.504 506.492 22.704 506.492C23.892 506.492 24.9 506.9 25.728 507.716C26.556 508.532 26.964 509.564 26.964 510.8C26.964 512.024 26.556 513.044 25.728 513.872C24.9 514.7 23.892 515.108 22.704 515.108C21.504 515.108 20.496 514.7 19.668 513.884C18.84 513.068 18.432 512.036 18.432 510.8ZM19.572 510.8C19.572 511.736 19.884 512.516 20.496 513.128C21.108 513.752 21.84 514.064 22.704 514.064C23.592 514.064 24.336 513.752 24.936 513.14C25.524 512.528 25.824 511.748 25.824 510.8C25.824 509.852 25.524 509.072 24.912 508.46C24.3 507.848 23.556 507.536 22.704 507.536C21.828 507.536 21.096 507.848 20.484 508.46C19.872 509.072 19.572 509.852 19.572 510.8ZM33.4584 506.084L33.6384 507.008C33.2904 507.14 32.7384 507.248 31.9584 507.332C31.1784 507.416 30.6384 507.536 30.3384 507.68C29.4384 508.124 28.9104 508.952 28.7784 510.176L28.8264 510.188C29.3424 509.372 30.1824 508.964 31.3344 508.964C32.2104 508.964 32.9184 509.228 33.4584 509.744C33.9984 510.272 34.2624 511.004 34.2624 511.928C34.2624 512.828 33.9624 513.584 33.3744 514.196C32.7864 514.808 32.0184 515.12 31.0944 515.12C29.0664 515.12 27.8064 513.764 27.8064 511.376C27.8064 510.176 27.9624 509.216 28.2744 508.484C28.5744 507.764 29.1264 507.2 29.9064 506.804C30.3264 506.6 30.9504 506.444 31.7784 506.36C32.6064 506.276 33.1704 506.18 33.4584 506.084ZM28.8744 511.556V511.64C28.8744 512.408 29.0784 513.02 29.4984 513.476C29.9064 513.932 30.4344 514.16 31.0824 514.16C31.7184 514.16 32.2224 513.956 32.6184 513.536C33.0024 513.128 33.1944 512.612 33.1944 511.988C33.1944 510.728 32.4504 509.924 31.1184 509.924C29.9664 509.924 29.1264 510.656 28.8744 511.556ZM40.656 515H39.648V509.72H37.008V510.008C37.008 512.024 36.78 513.416 36.324 514.136C35.868 514.856 35.304 515.096 34.524 515V514.04C35.328 514.04 36 513.692 36 510.044V508.76H40.656V515ZM42.6026 510.26L42.0866 509.504C42.6626 508.964 43.6586 508.616 44.5826 508.616C46.2506 508.616 47.1386 509.528 47.1386 511.148V515H46.1306V514.076C45.7346 514.652 44.9546 515.084 43.9466 515.084C42.5906 515.084 41.6786 514.328 41.6786 513.176C41.6786 511.868 42.7946 511.244 44.6666 511.244C45.2546 511.244 45.7346 511.304 46.1306 511.424C46.1306 510.212 45.6986 509.564 44.4626 509.564C43.8386 509.564 43.2146 509.792 42.6026 510.26ZM44.1866 514.172C44.6546 514.172 45.0746 514.04 45.4226 513.788C45.7706 513.536 45.9986 513.248 46.1306 512.948V512.312C45.7826 512.192 45.3386 512.132 44.7986 512.132C43.4306 512.132 42.7466 512.468 42.7466 513.14C42.7466 513.776 43.3226 514.172 44.1866 514.172ZM53.3688 513.2L54.0888 513.716C53.6208 514.592 52.5648 515.108 51.5208 515.108C50.5248 515.108 49.7208 514.808 49.1088 514.22C48.4968 513.632 48.1848 512.852 48.1848 511.868C48.1848 510.932 48.4848 510.152 49.0968 509.54C49.7088 508.928 50.4888 508.616 51.4608 508.616C52.5768 508.616 53.5728 509.12 53.9928 509.888L53.2128 510.416C52.7928 509.852 52.2168 509.564 51.4848 509.564C50.8368 509.564 50.3088 509.78 49.8888 510.212C49.4688 510.644 49.2528 511.196 49.2528 511.868C49.2528 512.552 49.4688 513.104 49.9128 513.524C50.3448 513.944 50.9088 514.16 51.6168 514.16C52.3608 514.16 52.9488 513.836 53.3688 513.2ZM56.6813 509.708H54.2933V508.76H60.1013V509.708H57.6893V515H56.6813V509.708ZM63.3692 515H60.8492V508.76H61.8572V510.704H63.4652C65.1692 510.704 66.0212 511.412 66.0212 512.84C66.0212 514.1 65.2292 515 63.3692 515ZM63.3332 511.664H61.8572V514.04H63.3332C64.4852 514.04 64.9532 513.632 64.9532 512.852C64.9532 512.06 64.4132 511.664 63.3332 511.664ZM72.8903 515.12C71.6063 515.12 70.6583 514.64 70.0703 513.692L70.8623 513.14C71.2103 513.776 71.9783 514.184 72.9023 514.184C73.8983 514.184 74.6063 513.776 74.6063 513.104C74.6063 512.552 74.1863 512.276 73.3583 512.276H71.8943V511.364H73.2863C73.8983 511.364 74.3783 511.004 74.3783 510.464C74.3783 509.876 73.7543 509.54 72.8543 509.54C72.0983 509.54 71.4743 509.828 71.0063 510.416L70.2623 509.924C70.6823 509.204 71.6423 508.604 72.9503 508.604C74.5223 508.604 75.4463 509.264 75.4463 510.308C75.4463 510.896 75.1943 511.352 74.7023 511.652C75.4223 512 75.6743 512.42 75.6743 513.08C75.6743 513.716 75.4103 514.208 74.8943 514.568C74.3783 514.94 73.7063 515.12 72.8903 515.12ZM82.4144 515H81.4064V512.3H77.8064V515H76.7984V508.76H77.8064V511.352H81.4064V508.76H82.4144V515ZM84.3565 510.26L83.8405 509.504C84.4165 508.964 85.4125 508.616 86.3365 508.616C88.0045 508.616 88.8925 509.528 88.8925 511.148V515H87.8845V514.076C87.4885 514.652 86.7085 515.084 85.7005 515.084C84.3445 515.084 83.4325 514.328 83.4325 513.176C83.4325 511.868 84.5485 511.244 86.4205 511.244C87.0085 511.244 87.4885 511.304 87.8845 511.424C87.8845 510.212 87.4525 509.564 86.2165 509.564C85.5925 509.564 84.9685 509.792 84.3565 510.26ZM85.9405 514.172C86.4085 514.172 86.8285 514.04 87.1765 513.788C87.5245 513.536 87.7525 513.248 87.8845 512.948V512.312C87.5365 512.192 87.0925 512.132 86.5525 512.132C85.1845 512.132 84.5005 512.468 84.5005 513.14C84.5005 513.776 85.0765 514.172 85.9405 514.172ZM94.3307 508.76H95.3387V515H94.3307V512.372C93.8747 512.828 93.2387 513.056 92.4227 513.056C90.7787 513.056 89.9627 512.228 89.9627 510.572V508.76H90.9707V510.296C90.9707 511.556 91.4987 512.096 92.6027 512.096C93.3227 512.096 94.0067 511.712 94.3307 511.244V508.76ZM101.53 510.332L97.7263 515H96.8023V508.76H97.8103V513.44L101.602 508.76H102.538V515H101.53V510.332ZM105.006 515H103.998V508.76H104.922L107.226 511.808L109.47 508.76H110.334V515H109.326V510.536L107.214 513.416L105.006 510.536V515ZM114.058 515H111.802V508.76H112.81V510.704H114.154C115.99 510.704 116.722 511.556 116.722 512.84C116.722 514.1 115.918 515 114.058 515ZM114.046 511.664H112.81V514.04H114.034C115.186 514.04 115.654 513.632 115.654 512.852C115.654 512.06 115.114 511.664 114.046 511.664ZM118.63 515H117.61V508.76H118.63V515ZM124.395 508.76H125.619L123.231 511.772L125.739 515H124.479L122.547 512.492L120.591 515H119.391L121.887 511.784L119.523 508.76H120.783L122.583 511.052L124.395 508.76ZM131.115 517.4H130.107V508.76H131.115V509.54C131.535 508.928 132.207 508.616 133.131 508.616C134.043 508.616 134.775 508.904 135.315 509.492C135.855 510.08 136.119 510.836 136.119 511.772C136.119 512.732 135.831 513.524 135.255 514.16C134.667 514.796 133.923 515.108 133.011 515.108C132.171 515.108 131.535 514.892 131.115 514.472V517.4ZM133.023 509.564C132.111 509.564 131.403 510.152 131.115 510.86V513.188C131.475 513.836 132.075 514.16 132.927 514.16C133.539 514.16 134.055 513.944 134.451 513.512C134.847 513.08 135.051 512.528 135.051 511.844C135.051 510.452 134.271 509.564 133.023 509.564ZM141.96 510.332L138.156 515H137.232V508.76H138.24V513.44L142.032 508.76H142.968V515H141.96V510.332ZM149.263 513.2L149.983 513.716C149.515 514.592 148.459 515.108 147.415 515.108C146.419 515.108 145.615 514.808 145.003 514.22C144.391 513.632 144.079 512.852 144.079 511.868C144.079 510.932 144.379 510.152 144.991 509.54C145.603 508.928 146.383 508.616 147.355 508.616C148.471 508.616 149.467 509.12 149.887 509.888L149.107 510.416C148.687 509.852 148.111 509.564 147.379 509.564C146.731 509.564 146.203 509.78 145.783 510.212C145.363 510.644 145.147 511.196 145.147 511.868C145.147 512.552 145.363 513.104 145.807 513.524C146.239 513.944 146.803 514.16 147.511 514.16C148.255 514.16 148.843 513.836 149.263 513.2ZM151.822 515H150.814V508.76H151.822V511.556L154.978 508.76H156.334L153.106 511.628L156.49 515H155.146L152.338 512.252L151.822 512.732V515ZM156.302 511.868C156.302 510.92 156.614 510.14 157.226 509.528C157.838 508.916 158.63 508.616 159.602 508.616C160.586 508.616 161.39 508.916 162.002 509.528C162.614 510.14 162.926 510.92 162.926 511.868C162.926 512.816 162.614 513.584 162.002 514.196C161.378 514.808 160.574 515.108 159.602 515.108C158.63 515.108 157.838 514.808 157.226 514.196C156.614 513.584 156.302 512.816 156.302 511.868ZM157.37 511.868C157.37 512.528 157.574 513.08 157.994 513.512C158.414 513.944 158.942 514.16 159.602 514.16C160.262 514.16 160.814 513.944 161.234 513.524C161.654 513.104 161.858 512.552 161.858 511.868C161.858 511.184 161.642 510.632 161.222 510.2C160.79 509.78 160.25 509.564 159.602 509.564C158.954 509.564 158.426 509.78 158.006 510.2C157.586 510.62 157.37 511.184 157.37 511.868ZM166.829 515H164.045V508.76H166.637C168.377 508.76 169.193 509.204 169.193 510.356C169.193 510.932 168.929 511.388 168.389 511.712C169.061 511.916 169.397 512.408 169.397 513.212C169.397 514.376 168.473 515 166.829 515ZM166.84 512.276H165.053V514.064H166.721C167.789 514.064 168.329 513.764 168.329 513.164C168.329 512.576 167.837 512.276 166.84 512.276ZM166.601 509.696H165.053V511.364H166.949C167.681 511.364 168.125 511.064 168.125 510.5C168.125 509.864 167.609 509.696 166.601 509.696Z" fill="#76848D"/>
<rect width="10" height="10" transform="translate(0 526)" fill="#88C591"/>
<path d="M18.432 530.8C18.432 529.588 18.84 528.556 19.668 527.728C20.496 526.9 21.504 526.492 22.704 526.492C23.892 526.492 24.9 526.9 25.728 527.716C26.556 528.532 26.964 529.564 26.964 530.8C26.964 532.024 26.556 533.044 25.728 533.872C24.9 534.7 23.892 535.108 22.704 535.108C21.504 535.108 20.496 534.7 19.668 533.884C18.84 533.068 18.432 532.036 18.432 530.8ZM19.572 530.8C19.572 531.736 19.884 532.516 20.496 533.128C21.108 533.752 21.84 534.064 22.704 534.064C23.592 534.064 24.336 533.752 24.936 533.14C25.524 532.528 25.824 531.748 25.824 530.8C25.824 529.852 25.524 529.072 24.912 528.46C24.3 527.848 23.556 527.536 22.704 527.536C21.828 527.536 21.096 527.848 20.484 528.46C19.872 529.072 19.572 529.852 19.572 530.8ZM33.4584 526.084L33.6384 527.008C33.2904 527.14 32.7384 527.248 31.9584 527.332C31.1784 527.416 30.6384 527.536 30.3384 527.68C29.4384 528.124 28.9104 528.952 28.7784 530.176L28.8264 530.188C29.3424 529.372 30.1824 528.964 31.3344 528.964C32.2104 528.964 32.9184 529.228 33.4584 529.744C33.9984 530.272 34.2624 531.004 34.2624 531.928C34.2624 532.828 33.9624 533.584 33.3744 534.196C32.7864 534.808 32.0184 535.12 31.0944 535.12C29.0664 535.12 27.8064 533.764 27.8064 531.376C27.8064 530.176 27.9624 529.216 28.2744 528.484C28.5744 527.764 29.1264 527.2 29.9064 526.804C30.3264 526.6 30.9504 526.444 31.7784 526.36C32.6064 526.276 33.1704 526.18 33.4584 526.084ZM28.8744 531.556V531.64C28.8744 532.408 29.0784 533.02 29.4984 533.476C29.9064 533.932 30.4344 534.16 31.0824 534.16C31.7184 534.16 32.2224 533.956 32.6184 533.536C33.0024 533.128 33.1944 532.612 33.1944 531.988C33.1944 530.728 32.4504 529.924 31.1184 529.924C29.9664 529.924 29.1264 530.656 28.8744 531.556ZM40.656 535H39.648V529.72H37.008V530.008C37.008 532.024 36.78 533.416 36.324 534.136C35.868 534.856 35.304 535.096 34.524 535V534.04C35.328 534.04 36 533.692 36 530.044V528.76H40.656V535ZM42.6026 530.26L42.0866 529.504C42.6626 528.964 43.6586 528.616 44.5826 528.616C46.2506 528.616 47.1386 529.528 47.1386 531.148V535H46.1306V534.076C45.7346 534.652 44.9546 535.084 43.9466 535.084C42.5906 535.084 41.6786 534.328 41.6786 533.176C41.6786 531.868 42.7946 531.244 44.6666 531.244C45.2546 531.244 45.7346 531.304 46.1306 531.424C46.1306 530.212 45.6986 529.564 44.4626 529.564C43.8386 529.564 43.2146 529.792 42.6026 530.26ZM44.1866 534.172C44.6546 534.172 45.0746 534.04 45.4226 533.788C45.7706 533.536 45.9986 533.248 46.1306 532.948V532.312C45.7826 532.192 45.3386 532.132 44.7986 532.132C43.4306 532.132 42.7466 532.468 42.7466 533.14C42.7466 533.776 43.3226 534.172 44.1866 534.172ZM53.3688 533.2L54.0888 533.716C53.6208 534.592 52.5648 535.108 51.5208 535.108C50.5248 535.108 49.7208 534.808 49.1088 534.22C48.4968 533.632 48.1848 532.852 48.1848 531.868C48.1848 530.932 48.4848 530.152 49.0968 529.54C49.7088 528.928 50.4888 528.616 51.4608 528.616C52.5768 528.616 53.5728 529.12 53.9928 529.888L53.2128 530.416C52.7928 529.852 52.2168 529.564 51.4848 529.564C50.8368 529.564 50.3088 529.78 49.8888 530.212C49.4688 530.644 49.2528 531.196 49.2528 531.868C49.2528 532.552 49.4688 533.104 49.9128 533.524C50.3448 533.944 50.9088 534.16 51.6168 534.16C52.3608 534.16 52.9488 533.836 53.3688 533.2ZM56.6813 529.708H54.2933V528.76H60.1013V529.708H57.6893V535H56.6813V529.708ZM63.3692 535H60.8492V528.76H61.8572V530.704H63.4652C65.1692 530.704 66.0212 531.412 66.0212 532.84C66.0212 534.1 65.2292 535 63.3692 535ZM63.3332 531.664H61.8572V534.04H63.3332C64.4852 534.04 64.9532 533.632 64.9532 532.852C64.9532 532.06 64.4132 531.664 63.3332 531.664ZM76.2503 535H75.2423V532.3H71.6423V535H70.6343V528.76H71.6423V531.352H75.2423V528.76H76.2503V535ZM82.5365 533.212L83.1845 533.812C82.6085 534.676 81.7805 535.108 80.6885 535.108C79.6925 535.108 78.8885 534.808 78.2765 534.22C77.6645 533.632 77.3645 532.852 77.3645 531.868C77.3645 530.92 77.6405 530.14 78.2045 529.528C78.7565 528.916 79.5365 528.616 80.5445 528.616C81.3725 528.616 82.0685 528.88 82.6085 529.396C83.1485 529.912 83.4245 530.596 83.4245 531.448C83.4245 531.724 83.4005 531.976 83.3645 532.204H78.4445C78.5045 533.44 79.4165 534.16 80.7245 534.16C81.4565 534.16 82.1525 533.776 82.5365 533.212ZM80.4725 529.54C79.3325 529.54 78.5885 530.236 78.4325 531.292H82.3565C82.2965 530.188 81.5885 529.54 80.4725 529.54ZM86.5661 535.12C85.2821 535.12 84.3341 534.64 83.7461 533.692L84.5381 533.14C84.8861 533.776 85.6541 534.184 86.5781 534.184C87.5741 534.184 88.2821 533.776 88.2821 533.104C88.2821 532.552 87.8621 532.276 87.0341 532.276H85.5701V531.364H86.9621C87.5741 531.364 88.0541 531.004 88.0541 530.464C88.0541 529.876 87.4301 529.54 86.5301 529.54C85.7741 529.54 85.1501 529.828 84.6821 530.416L83.9381 529.924C84.3581 529.204 85.3181 528.604 86.6261 528.604C88.1981 528.604 89.1221 529.264 89.1221 530.308C89.1221 530.896 88.8701 531.352 88.3781 531.652C89.0981 532 89.3501 532.42 89.3501 533.08C89.3501 533.716 89.0861 534.208 88.5701 534.568C88.0541 534.94 87.3821 535.12 86.5661 535.12ZM96.0902 535H95.0822V532.3H91.4822V535H90.4742V528.76H91.4822V531.352H95.0822V528.76H96.0902V535ZM98.0323 530.26L97.5163 529.504C98.0923 528.964 99.0883 528.616 100.012 528.616C101.68 528.616 102.568 529.528 102.568 531.148V535H101.56V534.076C101.164 534.652 100.384 535.084 99.3763 535.084C98.0203 535.084 97.1083 534.328 97.1083 533.176C97.1083 531.868 98.2243 531.244 100.096 531.244C100.684 531.244 101.164 531.304 101.56 531.424C101.56 530.212 101.128 529.564 99.8923 529.564C99.2683 529.564 98.6443 529.792 98.0323 530.26ZM99.6163 534.172C100.084 534.172 100.504 534.04 100.852 533.788C101.2 533.536 101.428 533.248 101.56 532.948V532.312C101.212 532.192 100.768 532.132 100.228 532.132C98.8603 532.132 98.1763 532.468 98.1763 533.14C98.1763 533.776 98.7523 534.172 99.6163 534.172ZM108.006 528.76H109.014V535H108.006V532.372C107.55 532.828 106.914 533.056 106.098 533.056C104.454 533.056 103.638 532.228 103.638 530.572V528.76H104.646V530.296C104.646 531.556 105.174 532.096 106.278 532.096C106.998 532.096 107.682 531.712 108.006 531.244V528.76ZM115.206 530.332L111.402 535H110.478V528.76H111.486V533.44L115.278 528.76H116.214V535H115.206V530.332ZM119.341 529.708H116.953V528.76H122.761V529.708H120.349V535H119.341V529.708ZM128.099 533.212L128.747 533.812C128.171 534.676 127.343 535.108 126.251 535.108C125.255 535.108 124.451 534.808 123.839 534.22C123.227 533.632 122.927 532.852 122.927 531.868C122.927 530.92 123.203 530.14 123.767 529.528C124.319 528.916 125.099 528.616 126.107 528.616C126.935 528.616 127.631 528.88 128.171 529.396C128.711 529.912 128.987 530.596 128.987 531.448C128.987 531.724 128.963 531.976 128.927 532.204H124.007C124.067 533.44 124.979 534.16 126.287 534.16C127.019 534.16 127.715 533.776 128.099 533.212ZM126.035 529.54C124.895 529.54 124.151 530.236 123.995 531.292H127.919C127.859 530.188 127.151 529.54 126.035 529.54ZM135.39 535H134.382V529.72H131.742V530.008C131.742 532.024 131.514 533.416 131.058 534.136C130.602 534.856 130.038 535.096 129.258 535V534.04C130.062 534.04 130.734 533.692 130.734 530.044V528.76H135.39V535ZM139.377 535H136.857V528.76H137.865V530.704H139.473C141.177 530.704 142.029 531.412 142.029 532.84C142.029 534.1 141.237 535 139.377 535ZM139.341 531.664H137.865V534.04H139.341C140.493 534.04 140.961 533.632 140.961 532.852C140.961 532.06 140.421 531.664 139.341 531.664ZM148.661 535H147.653V532.3H144.053V535H143.045V528.76H144.053V531.352H147.653V528.76H148.661V535ZM152.379 535H150.123V528.76H151.131V530.704H152.475C154.311 530.704 155.043 531.556 155.043 532.84C155.043 534.1 154.239 535 152.379 535ZM152.367 531.664H151.131V534.04H152.355C153.507 534.04 153.975 533.632 153.975 532.852C153.975 532.06 153.435 531.664 152.367 531.664ZM156.951 535H155.931V528.76H156.951V535ZM162.716 528.76H163.94L161.552 531.772L164.06 535H162.8L160.868 532.492L158.912 535H157.712L160.208 531.784L157.844 528.76H159.104L160.904 531.052L162.716 528.76ZM169.435 537.4H168.427V528.76H169.435V529.54C169.855 528.928 170.527 528.616 171.451 528.616C172.363 528.616 173.095 528.904 173.635 529.492C174.175 530.08 174.439 530.836 174.439 531.772C174.439 532.732 174.151 533.524 173.575 534.16C172.987 534.796 172.243 535.108 171.331 535.108C170.491 535.108 169.855 534.892 169.435 534.472V537.4ZM171.343 529.564C170.431 529.564 169.723 530.152 169.435 530.86V533.188C169.795 533.836 170.395 534.16 171.247 534.16C171.859 534.16 172.375 533.944 172.771 533.512C173.167 533.08 173.371 532.528 173.371 531.844C173.371 530.452 172.591 529.564 171.343 529.564ZM180.28 530.332L176.476 535H175.552V528.76H176.56V533.44L180.352 528.76H181.288V535H180.28V530.332ZM187.584 533.2L188.304 533.716C187.836 534.592 186.78 535.108 185.736 535.108C184.74 535.108 183.936 534.808 183.324 534.22C182.712 533.632 182.4 532.852 182.4 531.868C182.4 530.932 182.7 530.152 183.312 529.54C183.924 528.928 184.704 528.616 185.676 528.616C186.792 528.616 187.788 529.12 188.208 529.888L187.428 530.416C187.008 529.852 186.432 529.564 185.7 529.564C185.052 529.564 184.524 529.78 184.104 530.212C183.684 530.644 183.468 531.196 183.468 531.868C183.468 532.552 183.684 533.104 184.128 533.524C184.56 533.944 185.124 534.16 185.832 534.16C186.576 534.16 187.164 533.836 187.584 533.2ZM190.142 535H189.134V528.76H190.142V531.556L193.298 528.76H194.654L191.426 531.628L194.81 535H193.466L190.658 532.252L190.142 532.732V535ZM194.622 531.868C194.622 530.92 194.934 530.14 195.546 529.528C196.158 528.916 196.95 528.616 197.922 528.616C198.906 528.616 199.71 528.916 200.322 529.528C200.934 530.14 201.246 530.92 201.246 531.868C201.246 532.816 200.934 533.584 200.322 534.196C199.698 534.808 198.894 535.108 197.922 535.108C196.95 535.108 196.158 534.808 195.546 534.196C194.934 533.584 194.622 532.816 194.622 531.868ZM195.69 531.868C195.69 532.528 195.894 533.08 196.314 533.512C196.734 533.944 197.262 534.16 197.922 534.16C198.582 534.16 199.134 533.944 199.554 533.524C199.974 533.104 200.178 532.552 200.178 531.868C200.178 531.184 199.962 530.632 199.542 530.2C199.11 529.78 198.57 529.564 197.922 529.564C197.274 529.564 196.746 529.78 196.326 530.2C195.906 530.62 195.69 531.184 195.69 531.868ZM205.149 535H202.365V528.76H204.957C206.697 528.76 207.513 529.204 207.513 530.356C207.513 530.932 207.249 531.388 206.709 531.712C207.381 531.916 207.717 532.408 207.717 533.212C207.717 534.376 206.793 535 205.149 535ZM205.161 532.276H203.373V534.064H205.041C206.109 534.064 206.649 533.764 206.649 533.164C206.649 532.576 206.157 532.276 205.161 532.276ZM204.921 529.696H203.373V531.364H205.269C206.001 531.364 206.445 531.064 206.445 530.5C206.445 529.864 205.929 529.696 204.921 529.696Z" fill="#76848D"/>
</svg>
