<svg width="1120" height="342" viewBox="0 0 1120 342" fill="none" xmlns="http://www.w3.org/2000/svg">
<path d="M31.0986 127.056L30.0486 126.58C30.5666 125.068 31.9246 124.074 33.9546 124.074C34.9206 124.074 35.7186 124.298 36.3346 124.746C36.9506 125.194 37.2586 125.796 37.2586 126.538C37.2586 127.672 36.6566 128.512 35.5366 128.834C36.6146 128.904 37.4826 129.716 37.4826 131.172C37.4826 132.096 37.1466 132.824 36.4746 133.342C35.8026 133.86 34.9486 134.126 33.8986 134.126C31.7566 134.126 30.2726 133.104 29.7826 131.494L30.9166 131.004C31.5186 132.278 32.5406 132.922 33.9826 132.922C35.3406 132.922 36.1946 132.292 36.1946 131.186C36.1946 130.108 35.3546 129.562 33.6746 129.562H32.5826V128.4H33.4506C34.9766 128.4 35.9706 127.714 35.9706 126.776C35.9706 125.81 35.1726 125.264 33.8986 125.264C32.4006 125.264 31.4906 126.034 31.0986 127.056ZM39.5713 134C39.0533 134.056 38.6613 133.762 38.6613 133.258C38.6613 132.768 38.9693 132.46 39.5153 132.46C40.1313 132.46 40.5373 132.88 40.5373 133.664C40.5373 135.064 39.7673 135.778 38.7453 136.016L38.4513 135.358C38.7593 135.274 39.0393 135.106 39.2913 134.84C39.5293 134.574 39.6273 134.294 39.5713 134ZM41.5558 129.1C41.5558 127.588 41.9058 126.37 42.6198 125.46C43.3198 124.55 44.3558 124.088 45.7138 124.088C48.4998 124.088 49.8858 125.922 49.8858 129.1C49.8858 130.626 49.5358 131.83 48.8498 132.74C48.1498 133.65 47.1138 134.112 45.7418 134.112C44.4258 134.112 43.4038 133.65 42.6618 132.726C41.9198 131.802 41.5558 130.598 41.5558 129.1ZM42.8438 129.1C42.8438 131.494 43.9358 132.922 45.7418 132.922C47.6458 132.922 48.5978 131.648 48.5978 129.1C48.5978 126.552 47.6318 125.278 45.7138 125.278C43.7678 125.278 42.8438 126.678 42.8438 129.1Z" fill="#1A3341"/>
<path d="M16 146C16 144.895 16.8954 144 18 144H62C63.1046 144 64 144.895 64 146V182H16V146Z" fill="url(#paint0_linear_4001_9090)"/>
<path opacity="0.2" d="M28 144H52V182H28V144Z" fill="url(#paint1_linear_4001_9090)"/>
<path opacity="0.04" d="M52 144H62C63.1046 144 64 144.895 64 146V182H52V144Z" fill="#0D262C"/>
<path opacity="0.5" d="M16 146C16 144.895 16.8954 144 18 144H28V182H16V146Z" fill="url(#paint2_linear_4001_9090)"/>
<path d="M72 185C72 186.105 72.8954 187 74 187H118C119.105 187 120 186.105 120 185V182H72V185Z" fill="url(#paint3_linear_4001_9090)"/>
<path opacity="0.2" d="M84 187H108V182H84V187Z" fill="url(#paint4_linear_4001_9090)"/>
<path opacity="0.04" d="M108 187H118C119.105 187 120 186.105 120 185V182H108V187Z" fill="#0D262C"/>
<path opacity="0.5" d="M72 185C72 186.105 72.8954 187 74 187H84V182H72V185Z" fill="url(#paint5_linear_4001_9090)"/>
<path d="M90.406 201.492H83.91V200.442H90.406V201.492ZM91.6544 201.1C91.6544 199.588 92.0044 198.37 92.7184 197.46C93.4184 196.55 94.4544 196.088 95.8124 196.088C98.5984 196.088 99.9844 197.922 99.9844 201.1C99.9844 202.626 99.6344 203.83 98.9484 204.74C98.2484 205.65 97.2124 206.112 95.8404 206.112C94.5244 206.112 93.5024 205.65 92.7604 204.726C92.0184 203.802 91.6544 202.598 91.6544 201.1ZM92.9424 201.1C92.9424 203.494 94.0344 204.922 95.8404 204.922C97.7444 204.922 98.6964 203.648 98.6964 201.1C98.6964 198.552 97.7304 197.278 95.8124 197.278C93.8664 197.278 92.9424 198.678 92.9424 201.1ZM101.968 206C101.45 206.056 101.058 205.762 101.058 205.258C101.058 204.768 101.366 204.46 101.912 204.46C102.528 204.46 102.934 204.88 102.934 205.664C102.934 207.064 102.164 207.778 101.142 208.016L100.848 207.358C101.156 207.274 101.436 207.106 101.688 206.84C101.926 206.574 102.024 206.294 101.968 206ZM103.841 198.804L103.393 197.754L106.753 196.144H107.551V206H106.347V197.642L103.841 198.804Z" fill="#2A3C3C"/>
<path d="M90.406 201.492H83.91V200.442H90.406V201.492ZM91.6544 201.1C91.6544 199.588 92.0044 198.37 92.7184 197.46C93.4184 196.55 94.4544 196.088 95.8124 196.088C98.5984 196.088 99.9844 197.922 99.9844 201.1C99.9844 202.626 99.6344 203.83 98.9484 204.74C98.2484 205.65 97.2124 206.112 95.8404 206.112C94.5244 206.112 93.5024 205.65 92.7604 204.726C92.0184 203.802 91.6544 202.598 91.6544 201.1ZM92.9424 201.1C92.9424 203.494 94.0344 204.922 95.8404 204.922C97.7444 204.922 98.6964 203.648 98.6964 201.1C98.6964 198.552 97.7304 197.278 95.8124 197.278C93.8664 197.278 92.9424 198.678 92.9424 201.1ZM101.968 206C101.45 206.056 101.058 205.762 101.058 205.258C101.058 204.768 101.366 204.46 101.912 204.46C102.528 204.46 102.934 204.88 102.934 205.664C102.934 207.064 102.164 207.778 101.142 208.016L100.848 207.358C101.156 207.274 101.436 207.106 101.688 206.84C101.926 206.574 102.024 206.294 101.968 206ZM103.841 198.804L103.393 197.754L106.753 196.144H107.551V206H106.347V197.642L103.841 198.804Z" fill="#1A3341"/>
<path d="M424 216C424 217.105 424.895 218 426 218H470C471.105 218 472 217.105 472 216V182H424V216Z" fill="url(#paint6_linear_4001_9090)"/>
<path opacity="0.2" d="M436 218H460V182H436V218Z" fill="url(#paint7_linear_4001_9090)"/>
<path opacity="0.04" d="M460 218H470C471.105 218 472 217.105 472 216V182H460V218Z" fill="#0D262C"/>
<path opacity="0.5" d="M424 216C424 217.105 424.895 218 426 218H436V182H424V216Z" fill="url(#paint8_linear_4001_9090)"/>
<path d="M441.64 232.492H435.144V231.442H441.64V232.492ZM444.009 230.434L442.987 230.07C443.337 228.334 444.653 227.088 446.739 227.088C448.755 227.088 449.987 228.25 449.987 230.028C449.987 230.966 449.581 231.904 449.077 232.576C448.825 232.926 448.503 233.262 448.125 233.612C447.355 234.298 446.809 234.662 446.011 235.166L444.933 235.838H450.351V237H442.721V236.048L444.849 234.634C445.227 234.396 445.493 234.214 445.647 234.102C445.801 234.004 446.053 233.822 446.389 233.584C446.725 233.346 446.977 233.136 447.145 232.982C447.299 232.828 447.509 232.632 447.747 232.38C448.391 231.68 448.629 231.036 448.699 230.154C448.699 228.88 447.873 228.306 446.655 228.306C445.899 228.306 445.297 228.516 444.863 228.936C444.429 229.356 444.135 229.86 444.009 230.434ZM452.259 237C451.741 237.056 451.349 236.762 451.349 236.258C451.349 235.768 451.657 235.46 452.203 235.46C452.819 235.46 453.225 235.88 453.225 236.664C453.225 238.064 452.455 238.778 451.433 239.016L451.139 238.358C451.447 238.274 451.727 238.106 451.979 237.84C452.217 237.574 452.315 237.294 452.259 237ZM459.858 228.39H453.922V227.2H461.356V227.998L456.484 237H455.154L459.858 228.39Z" fill="#1A3341"/>
<path d="M480 239C480 240.105 480.895 241 482 241H526C527.105 241 528 240.105 528 239V182H480V239Z" fill="url(#paint9_linear_4001_9090)"/>
<path opacity="0.2" d="M492 241H516V182H492V241Z" fill="url(#paint10_linear_4001_9090)"/>
<path opacity="0.04" d="M516 241H526C527.105 241 528 240.105 528 239V182H516V241Z" fill="#0D262C"/>
<path opacity="0.5" d="M480 239C480 240.105 480.895 241 482 241H492V182H480V239Z" fill="url(#paint11_linear_4001_9090)"/>
<path d="M496.82 255.492H490.324V254.442H496.82V255.492ZM504.83 260H503.612V257.998H497.62V257.186L503.752 250.2H504.83V256.864H506.65V257.998H504.83V260ZM503.612 252.16L499.3 256.864H503.612V252.16ZM508.273 260C507.755 260.056 507.363 259.762 507.363 259.258C507.363 258.768 507.671 258.46 508.217 258.46C508.833 258.46 509.239 258.88 509.239 259.664C509.239 261.064 508.469 261.778 507.447 262.016L507.153 261.358C507.461 261.274 507.741 261.106 507.993 260.84C508.231 260.574 508.329 260.294 508.273 260ZM511.685 255.492L510.677 255.226L511.251 250.2H517.411V251.39H512.329L511.965 254.022C512.455 253.658 513.197 253.476 514.191 253.476C515.339 253.476 516.235 253.784 516.893 254.386C517.537 255.002 517.859 255.786 517.859 256.752C517.859 257.718 517.495 258.53 516.781 259.16C516.053 259.804 515.143 260.126 514.065 260.126C512.231 260.126 510.705 259.258 510.075 257.732L511.195 257.256C511.601 258.194 512.651 258.936 514.065 258.936C515.675 258.936 516.571 258.012 516.571 256.794C516.571 255.492 515.521 254.652 513.855 254.652C512.959 254.652 512.231 254.932 511.685 255.492Z" fill="#2A3C3C"/>
<path d="M496.82 255.492H490.324V254.442H496.82V255.492ZM504.83 260H503.612V257.998H497.62V257.186L503.752 250.2H504.83V256.864H506.65V257.998H504.83V260ZM503.612 252.16L499.3 256.864H503.612V252.16ZM508.273 260C507.755 260.056 507.363 259.762 507.363 259.258C507.363 258.768 507.671 258.46 508.217 258.46C508.833 258.46 509.239 258.88 509.239 259.664C509.239 261.064 508.469 261.778 507.447 262.016L507.153 261.358C507.461 261.274 507.741 261.106 507.993 260.84C508.231 260.574 508.329 260.294 508.273 260ZM511.685 255.492L510.677 255.226L511.251 250.2H517.411V251.39H512.329L511.965 254.022C512.455 253.658 513.197 253.476 514.191 253.476C515.339 253.476 516.235 253.784 516.893 254.386C517.537 255.002 517.859 255.786 517.859 256.752C517.859 257.718 517.495 258.53 516.781 259.16C516.053 259.804 515.143 260.126 514.065 260.126C512.231 260.126 510.705 259.258 510.075 257.732L511.195 257.256C511.601 258.194 512.651 258.936 514.065 258.936C515.675 258.936 516.571 258.012 516.571 256.794C516.571 255.492 515.521 254.652 513.855 254.652C512.959 254.652 512.231 254.932 511.685 255.492Z" fill="#1A3341"/>
<path d="M152 239C152 240.105 152.895 241 154 241H198C199.105 241 200 240.105 200 239V182H152V239Z" fill="url(#paint12_linear_4001_9090)"/>
<path opacity="0.2" d="M164 241H188V182H164V241Z" fill="url(#paint13_linear_4001_9090)"/>
<path opacity="0.04" d="M188 241H198C199.105 241 200 240.105 200 239V182H188V241Z" fill="#0D262C"/>
<path opacity="0.5" d="M152 239C152 240.105 152.895 241 154 241H164V182H152V239Z" fill="url(#paint14_linear_4001_9090)"/>
<path d="M168.82 255.492H162.324V254.442H168.82V255.492ZM176.83 260H175.612V257.998H169.62V257.186L175.752 250.2H176.83V256.864H178.65V257.998H176.83V260ZM175.612 252.16L171.3 256.864H175.612V252.16ZM180.273 260C179.755 260.056 179.363 259.762 179.363 259.258C179.363 258.768 179.671 258.46 180.217 258.46C180.833 258.46 181.239 258.88 181.239 259.664C181.239 261.064 180.469 261.778 179.447 262.016L179.153 261.358C179.461 261.274 179.741 261.106 179.993 260.84C180.231 260.574 180.329 260.294 180.273 260ZM183.685 255.492L182.677 255.226L183.251 250.2H189.411V251.39H184.329L183.965 254.022C184.455 253.658 185.197 253.476 186.191 253.476C187.339 253.476 188.235 253.784 188.893 254.386C189.537 255.002 189.859 255.786 189.859 256.752C189.859 257.718 189.495 258.53 188.781 259.16C188.053 259.804 187.143 260.126 186.065 260.126C184.231 260.126 182.705 259.258 182.075 257.732L183.195 257.256C183.601 258.194 184.651 258.936 186.065 258.936C187.675 258.936 188.571 258.012 188.571 256.794C188.571 255.492 187.521 254.652 185.855 254.652C184.959 254.652 184.231 254.932 183.685 255.492Z" fill="#1A3341"/>
<path d="M208 283C208 284.105 208.895 285 210 285H254C255.105 285 256 284.105 256 283V182H208V283Z" fill="url(#paint15_linear_4001_9090)"/>
<path opacity="0.2" d="M220 285H244V182H220V285Z" fill="url(#paint16_linear_4001_9090)"/>
<path opacity="0.04" d="M244 285H254C255.105 285 256 284.105 256 283V182H244V285Z" fill="#0D262C"/>
<path opacity="0.5" d="M208 283C208 284.105 208.895 285 210 285H220V182H208V283Z" fill="url(#paint17_linear_4001_9090)"/>
<path d="M225.681 299.492H219.185V298.442H225.681V299.492ZM232.544 295.39H226.608V294.2H234.042V294.998L229.17 304H227.84L232.544 295.39ZM234.878 304C234.36 304.056 233.968 303.762 233.968 303.258C233.968 302.768 234.276 302.46 234.822 302.46C235.438 302.46 235.844 302.88 235.844 303.664C235.844 305.064 235.074 305.778 234.052 306.016L233.758 305.358C234.066 305.274 234.346 305.106 234.598 304.84C234.836 304.574 234.934 304.294 234.878 304ZM245.011 298.918C245.011 300.584 244.619 301.872 243.821 302.768C243.023 303.678 241.959 304.126 240.629 304.126C239.005 304.126 237.731 303.44 237.101 302.39L238.109 301.69C238.669 302.474 239.691 302.922 240.797 302.922C241.707 302.922 242.435 302.558 243.009 301.83C243.583 301.116 243.821 300.22 243.751 299.156C243.289 300.22 242.127 301.004 240.573 301.004C239.481 301.004 238.585 300.696 237.885 300.066C237.171 299.45 236.821 298.638 236.821 297.644C236.821 296.552 237.199 295.684 237.955 295.04C238.711 294.396 239.719 294.074 240.965 294.074C243.485 294.074 245.011 295.838 245.011 298.918ZM243.541 297.602C243.331 296.3 242.435 295.278 240.825 295.278C239.145 295.278 238.109 296.146 238.109 297.602C238.109 298.988 239.159 299.8 240.797 299.8C241.539 299.8 242.169 299.576 242.659 299.128C243.149 298.68 243.443 298.176 243.541 297.602Z" fill="#2A3C3C"/>
<path d="M225.681 299.492H219.185V298.442H225.681V299.492ZM232.544 295.39H226.608V294.2H234.042V294.998L229.17 304H227.84L232.544 295.39ZM234.878 304C234.36 304.056 233.968 303.762 233.968 303.258C233.968 302.768 234.276 302.46 234.822 302.46C235.438 302.46 235.844 302.88 235.844 303.664C235.844 305.064 235.074 305.778 234.052 306.016L233.758 305.358C234.066 305.274 234.346 305.106 234.598 304.84C234.836 304.574 234.934 304.294 234.878 304ZM245.011 298.918C245.011 300.584 244.619 301.872 243.821 302.768C243.023 303.678 241.959 304.126 240.629 304.126C239.005 304.126 237.731 303.44 237.101 302.39L238.109 301.69C238.669 302.474 239.691 302.922 240.797 302.922C241.707 302.922 242.435 302.558 243.009 301.83C243.583 301.116 243.821 300.22 243.751 299.156C243.289 300.22 242.127 301.004 240.573 301.004C239.481 301.004 238.585 300.696 237.885 300.066C237.171 299.45 236.821 298.638 236.821 297.644C236.821 296.552 237.199 295.684 237.955 295.04C238.711 294.396 239.719 294.074 240.965 294.074C243.485 294.074 245.011 295.838 245.011 298.918ZM243.541 297.602C243.331 296.3 242.435 295.278 240.825 295.278C239.145 295.278 238.109 296.146 238.109 297.602C238.109 298.988 239.159 299.8 240.797 299.8C241.539 299.8 242.169 299.576 242.659 299.128C243.149 298.68 243.443 298.176 243.541 297.602Z" fill="#1A3341"/>
<path d="M560 204C560 205.105 560.895 206 562 206H606C607.105 206 608 205.105 608 204V182H560V204Z" fill="url(#paint18_linear_4001_9090)"/>
<path opacity="0.2" d="M572 206H596V182H572V206Z" fill="url(#paint19_linear_4001_9090)"/>
<path opacity="0.04" d="M596 206H606C607.105 206 608 205.105 608 204V182H596V206Z" fill="#0D262C"/>
<path opacity="0.5" d="M560 204C560 205.105 560.895 206 562 206H572V182H560V204Z" fill="url(#paint20_linear_4001_9090)"/>
<path d="M578.495 220.492H571.999V219.442H578.495V220.492ZM579.631 217.804L579.183 216.754L582.543 215.144H583.341V225H582.137V216.642L579.631 217.804ZM586.065 225C585.547 225.056 585.155 224.762 585.155 224.258C585.155 223.768 585.463 223.46 586.009 223.46C586.625 223.46 587.031 223.88 587.031 224.664C587.031 226.064 586.261 226.778 585.239 227.016L584.945 226.358C585.253 226.274 585.533 226.106 585.785 225.84C586.023 225.574 586.121 225.294 586.065 225ZM591.913 219.414H592.347C592.977 219.414 593.495 219.26 593.929 218.966C594.349 218.672 594.559 218.28 594.559 217.818C594.559 216.768 593.733 216.236 592.095 216.236C590.527 216.236 589.673 216.81 589.673 217.818C589.673 218.728 590.611 219.414 591.913 219.414ZM592.319 220.52H591.969C591.213 220.52 590.583 220.688 590.093 221.01C589.603 221.332 589.351 221.738 589.351 222.228C589.351 223.292 590.331 223.964 592.109 223.964C593.915 223.964 594.881 223.32 594.881 222.242C594.881 221.164 593.845 220.52 592.319 220.52ZM595.077 224.37C594.363 224.874 593.369 225.126 592.123 225.126C590.877 225.126 589.883 224.874 589.155 224.384C588.427 223.894 588.063 223.222 588.063 222.354C588.063 221.22 588.805 220.324 589.995 219.932C588.917 219.582 588.385 218.728 588.385 217.734C588.385 216.11 589.757 215.074 592.109 215.074C594.475 215.074 595.847 216.11 595.847 217.734C595.847 218.672 595.329 219.386 594.293 219.862C595.539 220.24 596.155 221.052 596.155 222.298C596.155 223.18 595.791 223.88 595.077 224.37Z" fill="#1A3341"/>
<path d="M616 205C616 206.105 616.895 207 618 207H662C663.105 207 664 206.105 664 205V182H616V205Z" fill="url(#paint21_linear_4001_9090)"/>
<path opacity="0.2" d="M628 207H652V182H628V207Z" fill="url(#paint22_linear_4001_9090)"/>
<path opacity="0.04" d="M652 207H662C663.105 207 664 206.105 664 205V182H652V207Z" fill="#0D262C"/>
<path opacity="0.5" d="M616 205C616 206.105 616.895 207 618 207H628V182H616V205Z" fill="url(#paint23_linear_4001_9090)"/>
<path d="M634.495 221.492H627.999V220.442H634.495V221.492ZM635.631 218.804L635.183 217.754L638.543 216.144H639.341V226H638.137V217.642L635.631 218.804ZM642.065 226C641.547 226.056 641.155 225.762 641.155 225.258C641.155 224.768 641.463 224.46 642.009 224.46C642.625 224.46 643.031 224.88 643.031 225.664C643.031 227.064 642.261 227.778 641.239 228.016L640.945 227.358C641.253 227.274 641.533 227.106 641.785 226.84C642.023 226.574 642.121 226.294 642.065 226ZM652.197 220.918C652.197 222.584 651.805 223.872 651.007 224.768C650.209 225.678 649.145 226.126 647.815 226.126C646.191 226.126 644.917 225.44 644.287 224.39L645.295 223.69C645.855 224.474 646.877 224.922 647.983 224.922C648.893 224.922 649.621 224.558 650.195 223.83C650.769 223.116 651.007 222.22 650.937 221.156C650.475 222.22 649.313 223.004 647.759 223.004C646.667 223.004 645.771 222.696 645.071 222.066C644.357 221.45 644.007 220.638 644.007 219.644C644.007 218.552 644.385 217.684 645.141 217.04C645.897 216.396 646.905 216.074 648.151 216.074C650.671 216.074 652.197 217.838 652.197 220.918ZM650.727 219.602C650.517 218.3 649.621 217.278 648.011 217.278C646.331 217.278 645.295 218.146 645.295 219.602C645.295 220.988 646.345 221.8 647.983 221.8C648.725 221.8 649.355 221.576 649.845 221.128C650.335 220.68 650.629 220.176 650.727 219.602Z" fill="#2A3C3C"/>
<path d="M634.495 221.492H627.999V220.442H634.495V221.492ZM635.631 218.804L635.183 217.754L638.543 216.144H639.341V226H638.137V217.642L635.631 218.804ZM642.065 226C641.547 226.056 641.155 225.762 641.155 225.258C641.155 224.768 641.463 224.46 642.009 224.46C642.625 224.46 643.031 224.88 643.031 225.664C643.031 227.064 642.261 227.778 641.239 228.016L640.945 227.358C641.253 227.274 641.533 227.106 641.785 226.84C642.023 226.574 642.121 226.294 642.065 226ZM652.197 220.918C652.197 222.584 651.805 223.872 651.007 224.768C650.209 225.678 649.145 226.126 647.815 226.126C646.191 226.126 644.917 225.44 644.287 224.39L645.295 223.69C645.855 224.474 646.877 224.922 647.983 224.922C648.893 224.922 649.621 224.558 650.195 223.83C650.769 223.116 651.007 222.22 650.937 221.156C650.475 222.22 649.313 223.004 647.759 223.004C646.667 223.004 645.771 222.696 645.071 222.066C644.357 221.45 644.007 220.638 644.007 219.644C644.007 218.552 644.385 217.684 645.141 217.04C645.897 216.396 646.905 216.074 648.151 216.074C650.671 216.074 652.197 217.838 652.197 220.918ZM650.727 219.602C650.517 218.3 649.621 217.278 648.011 217.278C646.331 217.278 645.295 218.146 645.295 219.602C645.295 220.988 646.345 221.8 647.983 221.8C648.725 221.8 649.355 221.576 649.845 221.128C650.335 220.68 650.629 220.176 650.727 219.602Z" fill="#1A3341"/>
<path d="M288 226C288 227.105 288.895 228 290 228H334C335.105 228 336 227.105 336 226V182H288V226Z" fill="url(#paint24_linear_4001_9090)"/>
<path opacity="0.2" d="M300 228H324V182H300V228Z" fill="url(#paint25_linear_4001_9090)"/>
<path opacity="0.04" d="M324 228H334C335.105 228 336 227.105 336 226V182H324V228Z" fill="#0D262C"/>
<path opacity="0.5" d="M288 226C288 227.105 288.895 228 290 228H300V182H288V226Z" fill="url(#paint26_linear_4001_9090)"/>
<path d="M305.203 242.492H298.707V241.442H305.203V242.492ZM307.417 240.056L306.367 239.58C306.885 238.068 308.243 237.074 310.273 237.074C311.239 237.074 312.037 237.298 312.653 237.746C313.269 238.194 313.577 238.796 313.577 239.538C313.577 240.672 312.975 241.512 311.855 241.834C312.933 241.904 313.801 242.716 313.801 244.172C313.801 245.096 313.465 245.824 312.793 246.342C312.121 246.86 311.267 247.126 310.217 247.126C308.075 247.126 306.591 246.104 306.101 244.494L307.235 244.004C307.837 245.278 308.859 245.922 310.301 245.922C311.659 245.922 312.513 245.292 312.513 244.186C312.513 243.108 311.673 242.562 309.993 242.562H308.901V241.4H309.769C311.295 241.4 312.289 240.714 312.289 239.776C312.289 238.81 311.491 238.264 310.217 238.264C308.719 238.264 307.809 239.034 307.417 240.056ZM315.89 247C315.372 247.056 314.98 246.762 314.98 246.258C314.98 245.768 315.288 245.46 315.834 245.46C316.45 245.46 316.856 245.88 316.856 246.664C316.856 248.064 316.086 248.778 315.064 249.016L314.77 248.358C315.078 248.274 315.358 248.106 315.61 247.84C315.848 247.574 315.946 247.294 315.89 247ZM319.302 242.492L318.294 242.226L318.868 237.2H325.028V238.39H319.946L319.582 241.022C320.072 240.658 320.814 240.476 321.808 240.476C322.956 240.476 323.852 240.784 324.51 241.386C325.154 242.002 325.476 242.786 325.476 243.752C325.476 244.718 325.112 245.53 324.398 246.16C323.67 246.804 322.76 247.126 321.682 247.126C319.848 247.126 318.322 246.258 317.692 244.732L318.812 244.256C319.218 245.194 320.268 245.936 321.682 245.936C323.292 245.936 324.188 245.012 324.188 243.794C324.188 242.492 323.138 241.652 321.472 241.652C320.576 241.652 319.848 241.932 319.302 242.492Z" fill="#1A3341"/>
<path d="M344 249C344 250.105 344.895 251 346 251H390C391.105 251 392 250.105 392 249V182H344V249Z" fill="url(#paint27_linear_4001_9090)"/>
<path opacity="0.2" d="M356 251H380V182H356V251Z" fill="url(#paint28_linear_4001_9090)"/>
<path opacity="0.04" d="M380 251H390C391.105 251 392 250.105 392 249V182H380V251Z" fill="#0D262C"/>
<path opacity="0.5" d="M344 249C344 250.105 344.895 251 346 251H356V182H344V249Z" fill="url(#paint29_linear_4001_9090)"/>
<path d="M361.203 265.492H354.707V264.442H361.203V265.492ZM363.879 265.492L362.871 265.226L363.445 260.2H369.605V261.39H364.523L364.159 264.022C364.649 263.658 365.391 263.476 366.385 263.476C367.533 263.476 368.429 263.784 369.087 264.386C369.731 265.002 370.053 265.786 370.053 266.752C370.053 267.718 369.689 268.53 368.975 269.16C368.247 269.804 367.337 270.126 366.259 270.126C364.425 270.126 362.899 269.258 362.269 267.732L363.389 267.256C363.795 268.194 364.845 268.936 366.259 268.936C367.869 268.936 368.765 268.012 368.765 266.794C368.765 265.492 367.715 264.652 366.049 264.652C365.153 264.652 364.425 264.932 363.879 265.492ZM372.054 270C371.536 270.056 371.144 269.762 371.144 269.258C371.144 268.768 371.452 268.46 371.998 268.46C372.614 268.46 373.02 268.88 373.02 269.664C373.02 271.064 372.25 271.778 371.228 272.016L370.934 271.358C371.242 271.274 371.522 271.106 371.774 270.84C372.012 270.574 372.11 270.294 372.054 270ZM375.004 263.056L373.954 262.58C374.472 261.068 375.83 260.074 377.86 260.074C378.826 260.074 379.624 260.298 380.24 260.746C380.856 261.194 381.164 261.796 381.164 262.538C381.164 263.672 380.562 264.512 379.442 264.834C380.52 264.904 381.388 265.716 381.388 267.172C381.388 268.096 381.052 268.824 380.38 269.342C379.708 269.86 378.854 270.126 377.804 270.126C375.662 270.126 374.178 269.104 373.688 267.494L374.822 267.004C375.424 268.278 376.446 268.922 377.888 268.922C379.246 268.922 380.1 268.292 380.1 267.186C380.1 266.108 379.26 265.562 377.58 265.562H376.488V264.4H377.356C378.882 264.4 379.876 263.714 379.876 262.776C379.876 261.81 379.078 261.264 377.804 261.264C376.306 261.264 375.396 262.034 375.004 263.056Z" fill="#2A3C3C"/>
<path d="M361.203 265.492H354.707V264.442H361.203V265.492ZM363.879 265.492L362.871 265.226L363.445 260.2H369.605V261.39H364.523L364.159 264.022C364.649 263.658 365.391 263.476 366.385 263.476C367.533 263.476 368.429 263.784 369.087 264.386C369.731 265.002 370.053 265.786 370.053 266.752C370.053 267.718 369.689 268.53 368.975 269.16C368.247 269.804 367.337 270.126 366.259 270.126C364.425 270.126 362.899 269.258 362.269 267.732L363.389 267.256C363.795 268.194 364.845 268.936 366.259 268.936C367.869 268.936 368.765 268.012 368.765 266.794C368.765 265.492 367.715 264.652 366.049 264.652C365.153 264.652 364.425 264.932 363.879 265.492ZM372.054 270C371.536 270.056 371.144 269.762 371.144 269.258C371.144 268.768 371.452 268.46 371.998 268.46C372.614 268.46 373.02 268.88 373.02 269.664C373.02 271.064 372.25 271.778 371.228 272.016L370.934 271.358C371.242 271.274 371.522 271.106 371.774 270.84C372.012 270.574 372.11 270.294 372.054 270ZM375.004 263.056L373.954 262.58C374.472 261.068 375.83 260.074 377.86 260.074C378.826 260.074 379.624 260.298 380.24 260.746C380.856 261.194 381.164 261.796 381.164 262.538C381.164 263.672 380.562 264.512 379.442 264.834C380.52 264.904 381.388 265.716 381.388 267.172C381.388 268.096 381.052 268.824 380.38 269.342C379.708 269.86 378.854 270.126 377.804 270.126C375.662 270.126 374.178 269.104 373.688 267.494L374.822 267.004C375.424 268.278 376.446 268.922 377.888 268.922C379.246 268.922 380.1 268.292 380.1 267.186C380.1 266.108 379.26 265.562 377.58 265.562H376.488V264.4H377.356C378.882 264.4 379.876 263.714 379.876 262.776C379.876 261.81 379.078 261.264 377.804 261.264C376.306 261.264 375.396 262.034 375.004 263.056Z" fill="#1A3341"/>
<path d="M716.601 109H715.383V106.998H709.391V106.186L715.523 99.2H716.601V105.864H718.421V106.998H716.601V109ZM715.383 101.16L711.071 105.864H715.383V101.16ZM720.043 109C719.525 109.056 719.133 108.762 719.133 108.258C719.133 107.768 719.441 107.46 719.987 107.46C720.603 107.46 721.009 107.88 721.009 108.664C721.009 110.064 720.239 110.778 719.217 111.016L718.923 110.358C719.231 110.274 719.511 110.106 719.763 109.84C720.001 109.574 720.099 109.294 720.043 109ZM730.175 103.918C730.175 105.584 729.783 106.872 728.985 107.768C728.187 108.678 727.123 109.126 725.793 109.126C724.169 109.126 722.895 108.44 722.265 107.39L723.273 106.69C723.833 107.474 724.855 107.922 725.961 107.922C726.871 107.922 727.599 107.558 728.173 106.83C728.747 106.116 728.985 105.22 728.915 104.156C728.453 105.22 727.291 106.004 725.737 106.004C724.645 106.004 723.749 105.696 723.049 105.066C722.335 104.45 721.985 103.638 721.985 102.644C721.985 101.552 722.363 100.684 723.119 100.04C723.875 99.396 724.883 99.074 726.129 99.074C728.649 99.074 730.175 100.838 730.175 103.918ZM728.705 102.602C728.495 101.3 727.599 100.278 725.989 100.278C724.309 100.278 723.273 101.146 723.273 102.602C723.273 103.988 724.323 104.8 725.961 104.8C726.703 104.8 727.333 104.576 727.823 104.128C728.313 103.68 728.607 103.176 728.705 102.602Z" fill="#1A3341"/>
<path d="M696 121C696 119.895 696.895 119 698 119H742C743.105 119 744 119.895 744 121V182H696V121Z" fill="url(#paint30_linear_4001_9090)"/>
<path opacity="0.2" d="M708 119H732V182H708V119Z" fill="url(#paint31_linear_4001_9090)"/>
<path opacity="0.04" d="M732 119H742C743.105 119 744 119.895 744 121V182H732V119Z" fill="#0D262C"/>
<path opacity="0.5" d="M696 121C696 119.895 696.895 119 698 119H708V182H696V121Z" fill="url(#paint32_linear_4001_9090)"/>
<path d="M849.475 101.492L848.467 101.226L849.041 96.2H855.201V97.39H850.119L849.755 100.022C850.245 99.658 850.987 99.476 851.981 99.476C853.129 99.476 854.025 99.784 854.683 100.386C855.327 101.002 855.649 101.786 855.649 102.752C855.649 103.718 855.285 104.53 854.571 105.16C853.843 105.804 852.933 106.126 851.855 106.126C850.021 106.126 848.495 105.258 847.865 103.732L848.985 103.256C849.391 104.194 850.441 104.936 851.855 104.936C853.465 104.936 854.361 104.012 854.361 102.794C854.361 101.492 853.311 100.652 851.645 100.652C850.749 100.652 850.021 100.932 849.475 101.492ZM857.649 106C857.131 106.056 856.739 105.762 856.739 105.258C856.739 104.768 857.047 104.46 857.593 104.46C858.209 104.46 858.615 104.88 858.615 105.664C858.615 107.064 857.845 107.778 856.823 108.016L856.529 107.358C856.837 107.274 857.117 107.106 857.369 106.84C857.607 106.574 857.705 106.294 857.649 106ZM859.522 98.804L859.074 97.754L862.434 96.144H863.232V106H862.028V97.642L859.522 98.804Z" fill="#1A3341"/>
<path d="M832 118C832 116.895 832.895 116 834 116H878C879.105 116 880 116.895 880 118V182H832V118Z" fill="url(#paint33_linear_4001_9090)"/>
<path opacity="0.2" d="M844 116H868V182H844V116Z" fill="url(#paint34_linear_4001_9090)"/>
<path opacity="0.04" d="M868 116H878C879.105 116 880 116.895 880 118V182H868V116Z" fill="#0D262C"/>
<path opacity="0.5" d="M832 118C832 116.895 832.895 116 834 116H844V182H832V118Z" fill="url(#paint35_linear_4001_9090)"/>
<path d="M767.794 88.366C767.794 86.672 768.214 85.37 769.04 84.446C769.866 83.536 770.902 83.074 772.148 83.074C773.786 83.074 775.074 83.816 775.62 84.992L774.668 85.636C774.094 84.726 773.24 84.278 772.092 84.278C771.224 84.278 770.496 84.614 769.908 85.286C769.32 85.972 769.026 86.896 769.04 88.086C769.586 87.064 770.86 86.448 772.26 86.448C773.394 86.448 774.304 86.742 774.962 87.344C775.62 87.946 775.956 88.744 775.956 89.724C775.956 90.718 775.592 91.544 774.85 92.174C774.108 92.804 773.184 93.126 772.078 93.126C769.432 93.126 767.794 91.404 767.794 88.366ZM769.194 89.556C769.46 90.942 770.51 91.922 772.064 91.922C772.82 91.922 773.45 91.726 773.94 91.32C774.43 90.928 774.668 90.41 774.668 89.78C774.668 88.394 773.688 87.652 772.19 87.652C771.364 87.652 770.678 87.848 770.146 88.24C769.6 88.632 769.292 89.066 769.194 89.556ZM777.902 93C777.384 93.056 776.992 92.762 776.992 92.258C776.992 91.768 777.3 91.46 777.846 91.46C778.462 91.46 778.868 91.88 778.868 92.664C778.868 94.064 778.098 94.778 777.076 95.016L776.782 94.358C777.09 94.274 777.37 94.106 777.622 93.84C777.86 93.574 777.958 93.294 777.902 93ZM779.775 85.804L779.327 84.754L782.687 83.144H783.485V93H782.281V84.642L779.775 85.804Z" fill="#1A3341"/>
<path d="M752 105C752 103.895 752.895 103 754 103H798C799.105 103 800 103.895 800 105V182H752V105Z" fill="url(#paint36_linear_4001_9090)"/>
<path opacity="0.2" d="M764 103H788V182H764V103Z" fill="url(#paint37_linear_4001_9090)"/>
<path opacity="0.04" d="M788 103H798C799.105 103 800 103.895 800 105V182H788V103Z" fill="#0D262C"/>
<path opacity="0.5" d="M752 105C752 103.895 752.895 103 754 103H764V182H752V105Z" fill="url(#paint38_linear_4001_9090)"/>
<path d="M902.269 87.366C902.269 85.672 902.689 84.37 903.515 83.446C904.341 82.536 905.377 82.074 906.623 82.074C908.261 82.074 909.549 82.816 910.095 83.992L909.143 84.636C908.569 83.726 907.715 83.278 906.567 83.278C905.699 83.278 904.971 83.614 904.383 84.286C903.795 84.972 903.501 85.896 903.515 87.086C904.061 86.064 905.335 85.448 906.735 85.448C907.869 85.448 908.779 85.742 909.437 86.344C910.095 86.946 910.431 87.744 910.431 88.724C910.431 89.718 910.067 90.544 909.325 91.174C908.583 91.804 907.659 92.126 906.553 92.126C903.907 92.126 902.269 90.404 902.269 87.366ZM903.669 88.556C903.935 89.942 904.985 90.922 906.539 90.922C907.295 90.922 907.925 90.726 908.415 90.32C908.905 89.928 909.143 89.41 909.143 88.78C909.143 87.394 908.163 86.652 906.665 86.652C905.839 86.652 905.153 86.848 904.621 87.24C904.075 87.632 903.767 88.066 903.669 88.556ZM912.378 92C911.86 92.056 911.468 91.762 911.468 91.258C911.468 90.768 911.776 90.46 912.322 90.46C912.938 90.46 913.344 90.88 913.344 91.664C913.344 93.064 912.574 93.778 911.552 94.016L911.258 93.358C911.566 93.274 911.846 93.106 912.098 92.84C912.336 92.574 912.434 92.294 912.378 92ZM915.482 85.434L914.46 85.07C914.81 83.334 916.126 82.088 918.212 82.088C920.228 82.088 921.46 83.25 921.46 85.028C921.46 85.966 921.054 86.904 920.55 87.576C920.298 87.926 919.976 88.262 919.598 88.612C918.828 89.298 918.282 89.662 917.484 90.166L916.406 90.838H921.824V92H914.194V91.048L916.322 89.634C916.7 89.396 916.966 89.214 917.12 89.102C917.274 89.004 917.526 88.822 917.862 88.584C918.198 88.346 918.45 88.136 918.618 87.982C918.772 87.828 918.982 87.632 919.22 87.38C919.864 86.68 920.102 86.036 920.172 85.154C920.172 83.88 919.346 83.306 918.128 83.306C917.372 83.306 916.77 83.516 916.336 83.936C915.902 84.356 915.608 84.86 915.482 85.434Z" fill="#1A3341"/>
<path d="M888 104C888 102.895 888.895 102 890 102H934C935.105 102 936 102.895 936 104V182H888V104Z" fill="url(#paint39_linear_4001_9090)"/>
<path opacity="0.2" d="M900 102H924V182H900V102Z" fill="url(#paint40_linear_4001_9090)"/>
<path opacity="0.04" d="M924 102H934C935.105 102 936 102.895 936 104V182H924V102Z" fill="#0D262C"/>
<path opacity="0.5" d="M888 104C888 102.895 888.895 102 890 102H900V182H888V104Z" fill="url(#paint41_linear_4001_9090)"/>
<path d="M1044.6 113H1043.38V110.998H1037.39V110.186L1043.52 103.2H1044.6V109.864H1046.42V110.998H1044.6V113ZM1043.38 105.16L1039.07 109.864H1043.38V105.16ZM1048.04 113C1047.52 113.056 1047.13 112.762 1047.13 112.258C1047.13 111.768 1047.44 111.46 1047.99 111.46C1048.6 111.46 1049.01 111.88 1049.01 112.664C1049.01 114.064 1048.24 114.778 1047.22 115.016L1046.92 114.358C1047.23 114.274 1047.51 114.106 1047.76 113.84C1048 113.574 1048.1 113.294 1048.04 113ZM1053.89 107.414H1054.33C1054.96 107.414 1055.47 107.26 1055.91 106.966C1056.33 106.672 1056.54 106.28 1056.54 105.818C1056.54 104.768 1055.71 104.236 1054.07 104.236C1052.51 104.236 1051.65 104.81 1051.65 105.818C1051.65 106.728 1052.59 107.414 1053.89 107.414ZM1054.3 108.52H1053.95C1053.19 108.52 1052.56 108.688 1052.07 109.01C1051.58 109.332 1051.33 109.738 1051.33 110.228C1051.33 111.292 1052.31 111.964 1054.09 111.964C1055.89 111.964 1056.86 111.32 1056.86 110.242C1056.86 109.164 1055.82 108.52 1054.3 108.52ZM1057.06 112.37C1056.34 112.874 1055.35 113.126 1054.1 113.126C1052.86 113.126 1051.86 112.874 1051.13 112.384C1050.41 111.894 1050.04 111.222 1050.04 110.354C1050.04 109.22 1050.78 108.324 1051.97 107.932C1050.9 107.582 1050.36 106.728 1050.36 105.734C1050.36 104.11 1051.74 103.074 1054.09 103.074C1056.45 103.074 1057.83 104.11 1057.83 105.734C1057.83 106.672 1057.31 107.386 1056.27 107.862C1057.52 108.24 1058.13 109.052 1058.13 110.298C1058.13 111.18 1057.77 111.88 1057.06 112.37Z" fill="#1A3341"/>
<path d="M1024 125C1024 123.895 1024.9 123 1026 123H1070C1071.1 123 1072 123.895 1072 125V182H1024V125Z" fill="url(#paint42_linear_4001_9090)"/>
<path opacity="0.2" d="M1036 123H1060V182H1036V123Z" fill="url(#paint43_linear_4001_9090)"/>
<path opacity="0.04" d="M1060 123H1070C1071.1 123 1072 123.895 1072 125V182H1060V123Z" fill="#0D262C"/>
<path opacity="0.5" d="M1024 125C1024 123.895 1024.9 123 1026 123H1036V182H1024V125Z" fill="url(#paint44_linear_4001_9090)"/>
<path d="M983.834 96.492L982.826 96.226L983.4 91.2H989.56V92.39H984.478L984.114 95.022C984.604 94.658 985.346 94.476 986.34 94.476C987.488 94.476 988.384 94.784 989.042 95.386C989.686 96.002 990.008 96.786 990.008 97.752C990.008 98.718 989.644 99.53 988.93 100.16C988.202 100.804 987.292 101.126 986.214 101.126C984.38 101.126 982.854 100.258 982.224 98.732L983.344 98.256C983.75 99.194 984.8 99.936 986.214 99.936C987.824 99.936 988.72 99.012 988.72 97.794C988.72 96.492 987.67 95.652 986.004 95.652C985.108 95.652 984.38 95.932 983.834 96.492ZM992.009 101C991.491 101.056 991.099 100.762 991.099 100.258C991.099 99.768 991.407 99.46 991.953 99.46C992.569 99.46 992.975 99.88 992.975 100.664C992.975 102.064 992.205 102.778 991.183 103.016L990.889 102.358C991.197 102.274 991.477 102.106 991.729 101.84C991.967 101.574 992.065 101.294 992.009 101ZM995.421 96.492L994.413 96.226L994.987 91.2H1001.15V92.39H996.065L995.701 95.022C996.191 94.658 996.933 94.476 997.927 94.476C999.075 94.476 999.971 94.784 1000.63 95.386C1001.27 96.002 1001.6 96.786 1001.6 97.752C1001.6 98.718 1001.23 99.53 1000.52 100.16C999.789 100.804 998.879 101.126 997.801 101.126C995.967 101.126 994.441 100.258 993.811 98.732L994.931 98.256C995.337 99.194 996.387 99.936 997.801 99.936C999.411 99.936 1000.31 99.012 1000.31 97.794C1000.31 96.492 999.257 95.652 997.591 95.652C996.695 95.652 995.967 95.932 995.421 96.492Z" fill="#1A3341"/>
<path d="M968 113C968 111.895 968.895 111 970 111H1014C1015.1 111 1016 111.895 1016 113V182H968V113Z" fill="url(#paint45_linear_4001_9090)"/>
<path opacity="0.2" d="M980 111H1004V182H980V111Z" fill="url(#paint46_linear_4001_9090)"/>
<path opacity="0.04" d="M1004 111H1014C1015.1 111 1016 111.895 1016 113V182H1004V111Z" fill="#0D262C"/>
<path opacity="0.5" d="M968 113C968 111.895 968.895 111 970 111H980V182H968V113Z" fill="url(#paint47_linear_4001_9090)"/>
<line x1="-4.37114e-08" y1="182.5" x2="1120" y2="182.5" stroke="#ABBEC9"/>
<rect y="2" width="10" height="10" fill="url(#paint48_linear_4001_9090)"/>
<path d="M19.98 7.904V11H18.888V2.6H22.152C24.444 2.6 25.596 3.476 25.596 5.24C25.596 5.996 25.32 6.632 24.768 7.136C24.204 7.652 23.328 7.904 22.14 7.904H19.98ZM22.2 3.62H19.98V6.896H22.116C23.7 6.896 24.468 6.272 24.468 5.228C24.468 4.16 23.712 3.62 22.2 3.62ZM25.5999 7.868C25.5999 6.92 25.9119 6.14 26.5239 5.528C27.1359 4.916 27.9279 4.616 28.8999 4.616C29.8839 4.616 30.6879 4.916 31.2999 5.528C31.9119 6.14 32.2239 6.92 32.2239 7.868C32.2239 8.816 31.9119 9.584 31.2999 10.196C30.6759 10.808 29.8719 11.108 28.8999 11.108C27.9279 11.108 27.1359 10.808 26.5239 10.196C25.9119 9.584 25.5999 8.816 25.5999 7.868ZM26.6679 7.868C26.6679 8.528 26.8719 9.08 27.2919 9.512C27.7119 9.944 28.2399 10.16 28.8999 10.16C29.5599 10.16 30.1119 9.944 30.5319 9.524C30.9519 9.104 31.1559 8.552 31.1559 7.868C31.1559 7.184 30.9399 6.632 30.5199 6.2C30.0879 5.78 29.5479 5.564 28.8999 5.564C28.2519 5.564 27.7239 5.78 27.3039 6.2C26.8839 6.62 26.6679 7.184 26.6679 7.868ZM38.0585 9.2L38.7785 9.716C38.3105 10.592 37.2545 11.108 36.2105 11.108C35.2145 11.108 34.4105 10.808 33.7985 10.22C33.1865 9.632 32.8745 8.852 32.8745 7.868C32.8745 6.932 33.1745 6.152 33.7865 5.54C34.3985 4.928 35.1785 4.616 36.1505 4.616C37.2665 4.616 38.2625 5.12 38.6825 5.888L37.9025 6.416C37.4825 5.852 36.9065 5.564 36.1745 5.564C35.5265 5.564 34.9985 5.78 34.5785 6.212C34.1585 6.644 33.9425 7.196 33.9425 7.868C33.9425 8.552 34.1585 9.104 34.6025 9.524C35.0345 9.944 35.5985 10.16 36.3065 10.16C37.0505 10.16 37.6385 9.836 38.0585 9.2ZM43.9853 9.2L44.7053 9.716C44.2373 10.592 43.1813 11.108 42.1373 11.108C41.1413 11.108 40.3373 10.808 39.7253 10.22C39.1133 9.632 38.8013 8.852 38.8013 7.868C38.8013 6.932 39.1013 6.152 39.7133 5.54C40.3253 4.928 41.1053 4.616 42.0773 4.616C43.1933 4.616 44.1893 5.12 44.6093 5.888L43.8293 6.416C43.4093 5.852 42.8333 5.564 42.1013 5.564C41.4533 5.564 40.9253 5.78 40.5053 6.212C40.0853 6.644 39.8693 7.196 39.8693 7.868C39.8693 8.552 40.0853 9.104 40.5293 9.524C40.9613 9.944 41.5253 10.16 42.2333 10.16C42.9773 10.16 43.5653 9.836 43.9853 9.2ZM50.1441 6.332L46.3401 11H45.4161V4.76H46.4241V9.44L50.2161 4.76H51.1521V11H50.1441V6.332ZM54.9754 4.76H57.4834V11H56.4754V8.792H54.9514L53.1034 11H51.8794L53.8714 8.636C52.9114 8.456 52.2754 7.724 52.2754 6.764C52.2754 5.576 53.1034 4.76 54.9754 4.76ZM53.3434 6.788C53.3434 7.4 53.9194 7.832 54.8314 7.832H56.4754V5.72H54.8554C53.8474 5.72 53.3434 6.08 53.3434 6.788Z" fill="#76848D"/>
<rect x="95" y="2" width="10" height="10" fill="#737AF9"/>
<path d="M113.888 2.6H119.888V3.62H114.98V6.032H117.476C119.456 6.032 120.512 6.884 120.512 8.432C120.512 10.16 119.3 11 117.152 11H113.888V2.6ZM117.308 7.052H114.98V9.98H117.236C118.664 9.98 119.384 9.464 119.384 8.444C119.384 7.52 118.688 7.052 117.308 7.052ZM126.358 9.212L127.006 9.812C126.43 10.676 125.602 11.108 124.51 11.108C123.514 11.108 122.71 10.808 122.098 10.22C121.486 9.632 121.186 8.852 121.186 7.868C121.186 6.92 121.462 6.14 122.026 5.528C122.578 4.916 123.358 4.616 124.366 4.616C125.194 4.616 125.89 4.88 126.43 5.396C126.97 5.912 127.246 6.596 127.246 7.448C127.246 7.724 127.222 7.976 127.186 8.204H122.266C122.326 9.44 123.238 10.16 124.546 10.16C125.278 10.16 125.974 9.776 126.358 9.212ZM124.294 5.54C123.154 5.54 122.41 6.236 122.254 7.292H126.178C126.118 6.188 125.41 5.54 124.294 5.54ZM133.529 11H132.521V5.72H129.881V6.008C129.881 8.024 129.653 9.416 129.197 10.136C128.741 10.856 128.177 11.096 127.397 11V10.04C128.201 10.04 128.873 9.692 128.873 6.044V4.76H133.529V11ZM135.356 6.26L134.84 5.504C135.416 4.964 136.412 4.616 137.336 4.616C139.004 4.616 139.892 5.528 139.892 7.148V11H138.884V10.076C138.488 10.652 137.708 11.084 136.7 11.084C135.344 11.084 134.432 10.328 134.432 9.176C134.432 7.868 135.548 7.244 137.42 7.244C138.008 7.244 138.488 7.304 138.884 7.424C138.884 6.212 138.452 5.564 137.216 5.564C136.592 5.564 135.968 5.792 135.356 6.26ZM136.94 10.172C137.408 10.172 137.828 10.04 138.176 9.788C138.524 9.536 138.752 9.248 138.884 8.948V8.312C138.536 8.192 138.092 8.132 137.552 8.132C136.184 8.132 135.5 8.468 135.5 9.14C135.5 9.776 136.076 10.172 136.94 10.172ZM142.174 13.4H141.166V4.76H142.174V5.54C142.594 4.928 143.266 4.616 144.19 4.616C145.102 4.616 145.834 4.904 146.374 5.492C146.914 6.08 147.178 6.836 147.178 7.772C147.178 8.732 146.89 9.524 146.314 10.16C145.726 10.796 144.982 11.108 144.07 11.108C143.23 11.108 142.594 10.892 142.174 10.472V13.4ZM144.082 5.564C143.17 5.564 142.462 6.152 142.174 6.86V9.188C142.534 9.836 143.134 10.16 143.986 10.16C144.598 10.16 145.114 9.944 145.51 9.512C145.906 9.08 146.11 8.528 146.11 7.844C146.11 6.452 145.33 5.564 144.082 5.564ZM148.057 13.376L148.453 12.5C148.549 12.536 148.633 12.56 148.717 12.56C149.185 12.56 149.509 12.236 149.929 11.24L150.121 10.772L147.097 4.76H148.285L150.625 9.5L152.389 4.76H153.493L151.117 10.904C150.709 11.912 150.325 12.596 149.977 12.968C149.617 13.34 149.209 13.52 148.753 13.52C148.489 13.52 148.261 13.472 148.057 13.376ZM158.629 9.2L159.349 9.716C158.881 10.592 157.825 11.108 156.781 11.108C155.785 11.108 154.981 10.808 154.369 10.22C153.757 9.632 153.445 8.852 153.445 7.868C153.445 6.932 153.745 6.152 154.357 5.54C154.969 4.928 155.749 4.616 156.721 4.616C157.837 4.616 158.833 5.12 159.253 5.888L158.473 6.416C158.053 5.852 157.477 5.564 156.745 5.564C156.097 5.564 155.569 5.78 155.149 6.212C154.729 6.644 154.513 7.196 154.513 7.868C154.513 8.552 154.729 9.104 155.173 9.524C155.605 9.944 156.169 10.16 156.877 10.16C157.621 10.16 158.209 9.836 158.629 9.2ZM162.58 11H160.06V4.76H161.068V6.704H162.676C164.38 6.704 165.232 7.412 165.232 8.84C165.232 10.1 164.44 11 162.58 11ZM162.544 7.664H161.068V10.04H162.544C163.696 10.04 164.164 9.632 164.164 8.852C164.164 8.06 163.624 7.664 162.544 7.664Z" fill="#76848D"/>
<path d="M50.5564 318.372L49.6804 318.06C49.9804 316.572 51.1084 315.504 52.8964 315.504C54.6244 315.504 55.6804 316.5 55.6804 318.024C55.6804 318.828 55.3324 319.632 54.9004 320.208C54.6844 320.508 54.4084 320.796 54.0844 321.096C53.4244 321.684 52.9564 321.996 52.2724 322.428L51.3484 323.004H55.9924V324H49.4524V323.184L51.2764 321.972C51.6004 321.768 51.8284 321.612 51.9604 321.516C52.0924 321.432 52.3084 321.276 52.5964 321.072C52.8844 320.868 53.1004 320.688 53.2444 320.556C53.3764 320.424 53.5564 320.256 53.7604 320.04C54.3124 319.44 54.5164 318.888 54.5764 318.132C54.5764 317.04 53.8684 316.548 52.8244 316.548C52.1764 316.548 51.6604 316.728 51.2884 317.088C50.9164 317.448 50.6644 317.88 50.5564 318.372ZM56.824 319.8C56.824 318.504 57.124 317.46 57.736 316.68C58.336 315.9 59.224 315.504 60.388 315.504C62.776 315.504 63.964 317.076 63.964 319.8C63.964 321.108 63.664 322.14 63.076 322.92C62.476 323.7 61.588 324.096 60.412 324.096C59.284 324.096 58.408 323.7 57.772 322.908C57.136 322.116 56.824 321.084 56.824 319.8ZM57.928 319.8C57.928 321.852 58.864 323.076 60.412 323.076C62.044 323.076 62.86 321.984 62.86 319.8C62.86 317.616 62.032 316.524 60.388 316.524C58.72 316.524 57.928 317.724 57.928 319.8ZM65.8203 318.372L64.9443 318.06C65.2443 316.572 66.3723 315.504 68.1603 315.504C69.8883 315.504 70.9443 316.5 70.9443 318.024C70.9443 318.828 70.5963 319.632 70.1643 320.208C69.9483 320.508 69.6723 320.796 69.3483 321.096C68.6883 321.684 68.2203 321.996 67.5363 322.428L66.6123 323.004H71.2563V324H64.7163V323.184L66.5403 321.972C66.8643 321.768 67.0923 321.612 67.2243 321.516C67.3563 321.432 67.5723 321.276 67.8603 321.072C68.1483 320.868 68.3643 320.688 68.5083 320.556C68.6403 320.424 68.8203 320.256 69.0243 320.04C69.5763 319.44 69.7803 318.888 69.8403 318.132C69.8403 317.04 69.1323 316.548 68.0883 316.548C67.4403 316.548 66.9243 316.728 66.5523 317.088C66.1803 317.448 65.9283 317.88 65.8203 318.372ZM73.048 318.372L72.172 318.06C72.472 316.572 73.6 315.504 75.388 315.504C77.116 315.504 78.172 316.5 78.172 318.024C78.172 318.828 77.824 319.632 77.392 320.208C77.176 320.508 76.9 320.796 76.576 321.096C75.916 321.684 75.448 321.996 74.764 322.428L73.84 323.004H78.484V324H71.944V323.184L73.768 321.972C74.092 321.768 74.32 321.612 74.452 321.516C74.584 321.432 74.8 321.276 75.088 321.072C75.376 320.868 75.592 320.688 75.736 320.556C75.868 320.424 76.048 320.256 76.252 320.04C76.804 319.44 77.008 318.888 77.068 318.132C77.068 317.04 76.36 316.548 75.316 316.548C74.668 316.548 74.152 316.728 73.78 317.088C73.408 317.448 73.156 317.88 73.048 318.372ZM57.4256 333.8C57.4256 332.588 57.8336 331.556 58.6616 330.728C59.4896 329.9 60.4976 329.492 61.6976 329.492C62.8856 329.492 63.8936 329.9 64.7216 330.716C65.5496 331.532 65.9576 332.564 65.9576 333.8C65.9576 334.988 65.5136 336.044 64.6256 336.944L65.4656 337.952L64.7216 338.576L63.8576 337.532C63.1736 337.916 62.4536 338.108 61.6976 338.108C60.4736 338.108 59.4536 337.7 58.6496 336.884C57.8336 336.08 57.4256 335.048 57.4256 333.8ZM58.5656 333.8C58.5656 334.748 58.8656 335.528 59.4656 336.14C60.0656 336.752 60.8096 337.064 61.6976 337.064C62.2376 337.064 62.7296 336.932 63.1976 336.656L62.4776 335.792L63.1736 335.18L63.9416 336.104C64.5296 335.492 64.8176 334.724 64.8176 333.8C64.8176 332.852 64.5176 332.072 63.9176 331.46C63.3176 330.848 62.5736 330.536 61.6976 330.536C60.8096 330.536 60.0656 330.836 59.4656 331.448C58.8656 332.06 58.5656 332.852 58.5656 333.8ZM66.692 331.832L66.308 330.932L69.188 329.552H69.872V338H68.84V330.836L66.692 331.832Z" fill="#76848D"/>
<path d="M192.119 333.8C192.119 332.588 192.527 331.556 193.355 330.728C194.183 329.9 195.191 329.492 196.391 329.492C197.579 329.492 198.587 329.9 199.415 330.716C200.243 331.532 200.651 332.564 200.651 333.8C200.651 334.988 200.207 336.044 199.319 336.944L200.159 337.952L199.415 338.576L198.551 337.532C197.867 337.916 197.147 338.108 196.391 338.108C195.167 338.108 194.147 337.7 193.343 336.884C192.527 336.08 192.119 335.048 192.119 333.8ZM193.259 333.8C193.259 334.748 193.559 335.528 194.159 336.14C194.759 336.752 195.503 337.064 196.391 337.064C196.931 337.064 197.423 336.932 197.891 336.656L197.171 335.792L197.867 335.18L198.635 336.104C199.223 335.492 199.511 334.724 199.511 333.8C199.511 332.852 199.211 332.072 198.611 331.46C198.011 330.848 197.267 330.536 196.391 330.536C195.503 330.536 194.759 330.836 194.159 331.448C193.559 332.06 193.259 332.852 193.259 333.8ZM202.441 332.372L201.565 332.06C201.865 330.572 202.993 329.504 204.781 329.504C206.509 329.504 207.565 330.5 207.565 332.024C207.565 332.828 207.217 333.632 206.785 334.208C206.569 334.508 206.293 334.796 205.969 335.096C205.309 335.684 204.841 335.996 204.157 336.428L203.233 337.004H207.877V338H201.337V337.184L203.161 335.972C203.485 335.768 203.713 335.612 203.845 335.516C203.977 335.432 204.193 335.276 204.481 335.072C204.769 334.868 204.985 334.688 205.129 334.556C205.261 334.424 205.441 334.256 205.645 334.04C206.197 333.44 206.401 332.888 206.461 332.132C206.461 331.04 205.753 330.548 204.709 330.548C204.061 330.548 203.545 330.728 203.173 331.088C202.801 331.448 202.549 331.88 202.441 332.372Z" fill="#76848D"/>
<path d="M328.09 333.8C328.09 332.588 328.498 331.556 329.326 330.728C330.154 329.9 331.162 329.492 332.362 329.492C333.55 329.492 334.558 329.9 335.386 330.716C336.214 331.532 336.622 332.564 336.622 333.8C336.622 334.988 336.178 336.044 335.29 336.944L336.13 337.952L335.386 338.576L334.522 337.532C333.838 337.916 333.118 338.108 332.362 338.108C331.138 338.108 330.118 337.7 329.314 336.884C328.498 336.08 328.09 335.048 328.09 333.8ZM329.23 333.8C329.23 334.748 329.53 335.528 330.13 336.14C330.73 336.752 331.474 337.064 332.362 337.064C332.902 337.064 333.394 336.932 333.862 336.656L333.142 335.792L333.838 335.18L334.606 336.104C335.194 335.492 335.482 334.724 335.482 333.8C335.482 332.852 335.182 332.072 334.582 331.46C333.982 330.848 333.238 330.536 332.362 330.536C331.474 330.536 330.73 330.836 330.13 331.448C329.53 332.06 329.23 332.852 329.23 333.8ZM338.28 332.048L337.38 331.64C337.824 330.344 338.988 329.492 340.728 329.492C341.556 329.492 342.24 329.684 342.768 330.068C343.296 330.452 343.56 330.968 343.56 331.604C343.56 332.576 343.044 333.296 342.084 333.572C343.008 333.632 343.752 334.328 343.752 335.576C343.752 336.368 343.464 336.992 342.888 337.436C342.312 337.88 341.58 338.108 340.68 338.108C338.844 338.108 337.572 337.232 337.152 335.852L338.124 335.432C338.64 336.524 339.516 337.076 340.752 337.076C341.916 337.076 342.648 336.536 342.648 335.588C342.648 334.664 341.928 334.196 340.488 334.196H339.552V333.2H340.296C341.604 333.2 342.456 332.612 342.456 331.808C342.456 330.98 341.772 330.512 340.68 330.512C339.396 330.512 338.616 331.172 338.28 332.048Z" fill="#76848D"/>
<path d="M463.762 333.8C463.762 332.588 464.17 331.556 464.998 330.728C465.826 329.9 466.834 329.492 468.034 329.492C469.222 329.492 470.23 329.9 471.058 330.716C471.886 331.532 472.294 332.564 472.294 333.8C472.294 334.988 471.85 336.044 470.962 336.944L471.802 337.952L471.058 338.576L470.194 337.532C469.51 337.916 468.79 338.108 468.034 338.108C466.81 338.108 465.79 337.7 464.986 336.884C464.17 336.08 463.762 335.048 463.762 333.8ZM464.902 333.8C464.902 334.748 465.202 335.528 465.802 336.14C466.402 336.752 467.146 337.064 468.034 337.064C468.574 337.064 469.066 336.932 469.534 336.656L468.814 335.792L469.51 335.18L470.278 336.104C470.866 335.492 471.154 334.724 471.154 333.8C471.154 332.852 470.854 332.072 470.254 331.46C469.654 330.848 468.91 330.536 468.034 330.536C467.146 330.536 466.402 330.836 465.802 331.448C465.202 332.06 464.902 332.852 464.902 333.8ZM478.92 338H477.876V336.284H472.74V335.588L477.996 329.6H478.92V335.312H480.48V336.284H478.92V338ZM477.876 331.28L474.18 335.312H477.876V331.28Z" fill="#76848D"/>
<path d="M594.527 318.372L593.651 318.06C593.951 316.572 595.079 315.504 596.867 315.504C598.595 315.504 599.651 316.5 599.651 318.024C599.651 318.828 599.303 319.632 598.871 320.208C598.655 320.508 598.379 320.796 598.055 321.096C597.395 321.684 596.927 321.996 596.243 322.428L595.319 323.004H599.963V324H593.423V323.184L595.247 321.972C595.571 321.768 595.799 321.612 595.931 321.516C596.063 321.432 596.279 321.276 596.567 321.072C596.855 320.868 597.071 320.688 597.215 320.556C597.347 320.424 597.527 320.256 597.731 320.04C598.283 319.44 598.487 318.888 598.547 318.132C598.547 317.04 597.839 316.548 596.795 316.548C596.147 316.548 595.631 316.728 595.259 317.088C594.887 317.448 594.635 317.88 594.527 318.372ZM600.795 319.8C600.795 318.504 601.095 317.46 601.707 316.68C602.307 315.9 603.195 315.504 604.359 315.504C606.747 315.504 607.935 317.076 607.935 319.8C607.935 321.108 607.635 322.14 607.047 322.92C606.447 323.7 605.559 324.096 604.383 324.096C603.255 324.096 602.379 323.7 601.743 322.908C601.107 322.116 600.795 321.084 600.795 319.8ZM601.899 319.8C601.899 321.852 602.835 323.076 604.383 323.076C606.015 323.076 606.831 321.984 606.831 319.8C606.831 317.616 606.003 316.524 604.359 316.524C602.691 316.524 601.899 317.724 601.899 319.8ZM609.791 318.372L608.915 318.06C609.215 316.572 610.343 315.504 612.131 315.504C613.859 315.504 614.915 316.5 614.915 318.024C614.915 318.828 614.567 319.632 614.135 320.208C613.919 320.508 613.643 320.796 613.319 321.096C612.659 321.684 612.191 321.996 611.507 322.428L610.583 323.004H615.227V324H608.687V323.184L610.511 321.972C610.835 321.768 611.063 321.612 611.195 321.516C611.327 321.432 611.543 321.276 611.831 321.072C612.119 320.868 612.335 320.688 612.479 320.556C612.611 320.424 612.791 320.256 612.995 320.04C613.547 319.44 613.751 318.888 613.811 318.132C613.811 317.04 613.103 316.548 612.059 316.548C611.411 316.548 610.895 316.728 610.523 317.088C610.151 317.448 609.899 317.88 609.791 318.372ZM616.887 318.048L615.987 317.64C616.431 316.344 617.595 315.492 619.335 315.492C620.163 315.492 620.847 315.684 621.375 316.068C621.903 316.452 622.167 316.968 622.167 317.604C622.167 318.576 621.651 319.296 620.691 319.572C621.615 319.632 622.359 320.328 622.359 321.576C622.359 322.368 622.071 322.992 621.495 323.436C620.919 323.88 620.187 324.108 619.287 324.108C617.451 324.108 616.179 323.232 615.759 321.852L616.731 321.432C617.247 322.524 618.123 323.076 619.359 323.076C620.523 323.076 621.255 322.536 621.255 321.588C621.255 320.664 620.535 320.196 619.095 320.196H618.159V319.2H618.903C620.211 319.2 621.063 318.612 621.063 317.808C621.063 316.98 620.379 316.512 619.287 316.512C618.003 316.512 617.223 317.172 616.887 318.048ZM601.426 333.8C601.426 332.588 601.834 331.556 602.662 330.728C603.49 329.9 604.498 329.492 605.698 329.492C606.886 329.492 607.894 329.9 608.722 330.716C609.55 331.532 609.958 332.564 609.958 333.8C609.958 334.988 609.514 336.044 608.626 336.944L609.466 337.952L608.722 338.576L607.858 337.532C607.174 337.916 606.454 338.108 605.698 338.108C604.474 338.108 603.454 337.7 602.65 336.884C601.834 336.08 601.426 335.048 601.426 333.8ZM602.566 333.8C602.566 334.748 602.866 335.528 603.466 336.14C604.066 336.752 604.81 337.064 605.698 337.064C606.238 337.064 606.73 336.932 607.198 336.656L606.478 335.792L607.174 335.18L607.942 336.104C608.53 335.492 608.818 334.724 608.818 333.8C608.818 332.852 608.518 332.072 607.918 331.46C607.318 330.848 606.574 330.536 605.698 330.536C604.81 330.536 604.066 330.836 603.466 331.448C602.866 332.06 602.566 332.852 602.566 333.8ZM610.692 331.832L610.308 330.932L613.188 329.552H613.872V338H612.84V330.836L610.692 331.832Z" fill="#76848D"/>
<path d="M736.119 333.8C736.119 332.588 736.527 331.556 737.355 330.728C738.183 329.9 739.191 329.492 740.391 329.492C741.579 329.492 742.587 329.9 743.415 330.716C744.243 331.532 744.651 332.564 744.651 333.8C744.651 334.988 744.207 336.044 743.319 336.944L744.159 337.952L743.415 338.576L742.551 337.532C741.867 337.916 741.147 338.108 740.391 338.108C739.167 338.108 738.147 337.7 737.343 336.884C736.527 336.08 736.119 335.048 736.119 333.8ZM737.259 333.8C737.259 334.748 737.559 335.528 738.159 336.14C738.759 336.752 739.503 337.064 740.391 337.064C740.931 337.064 741.423 336.932 741.891 336.656L741.171 335.792L741.867 335.18L742.635 336.104C743.223 335.492 743.511 334.724 743.511 333.8C743.511 332.852 743.211 332.072 742.611 331.46C742.011 330.848 741.267 330.536 740.391 330.536C739.503 330.536 738.759 330.836 738.159 331.448C737.559 332.06 737.259 332.852 737.259 333.8ZM746.441 332.372L745.565 332.06C745.865 330.572 746.993 329.504 748.781 329.504C750.509 329.504 751.565 330.5 751.565 332.024C751.565 332.828 751.217 333.632 750.785 334.208C750.569 334.508 750.293 334.796 749.969 335.096C749.309 335.684 748.841 335.996 748.157 336.428L747.233 337.004H751.877V338H745.337V337.184L747.161 335.972C747.485 335.768 747.713 335.612 747.845 335.516C747.977 335.432 748.193 335.276 748.481 335.072C748.769 334.868 748.985 334.688 749.129 334.556C749.261 334.424 749.441 334.256 749.645 334.04C750.197 333.44 750.401 332.888 750.461 332.132C750.461 331.04 749.753 330.548 748.709 330.548C748.061 330.548 747.545 330.728 747.173 331.088C746.801 331.448 746.549 331.88 746.441 332.372Z" fill="#76848D"/>
<path d="M872.09 333.8C872.09 332.588 872.498 331.556 873.326 330.728C874.154 329.9 875.162 329.492 876.362 329.492C877.55 329.492 878.558 329.9 879.386 330.716C880.214 331.532 880.622 332.564 880.622 333.8C880.622 334.988 880.178 336.044 879.29 336.944L880.13 337.952L879.386 338.576L878.522 337.532C877.838 337.916 877.118 338.108 876.362 338.108C875.138 338.108 874.118 337.7 873.314 336.884C872.498 336.08 872.09 335.048 872.09 333.8ZM873.23 333.8C873.23 334.748 873.53 335.528 874.13 336.14C874.73 336.752 875.474 337.064 876.362 337.064C876.902 337.064 877.394 336.932 877.862 336.656L877.142 335.792L877.838 335.18L878.606 336.104C879.194 335.492 879.482 334.724 879.482 333.8C879.482 332.852 879.182 332.072 878.582 331.46C877.982 330.848 877.238 330.536 876.362 330.536C875.474 330.536 874.73 330.836 874.13 331.448C873.53 332.06 873.23 332.852 873.23 333.8ZM882.28 332.048L881.38 331.64C881.824 330.344 882.988 329.492 884.728 329.492C885.556 329.492 886.24 329.684 886.768 330.068C887.296 330.452 887.56 330.968 887.56 331.604C887.56 332.576 887.044 333.296 886.084 333.572C887.008 333.632 887.752 334.328 887.752 335.576C887.752 336.368 887.464 336.992 886.888 337.436C886.312 337.88 885.58 338.108 884.68 338.108C882.844 338.108 881.572 337.232 881.152 335.852L882.124 335.432C882.64 336.524 883.516 337.076 884.752 337.076C885.916 337.076 886.648 336.536 886.648 335.588C886.648 334.664 885.928 334.196 884.488 334.196H883.552V333.2H884.296C885.604 333.2 886.456 332.612 886.456 331.808C886.456 330.98 885.772 330.512 884.68 330.512C883.396 330.512 882.616 331.172 882.28 332.048Z" fill="#76848D"/>
<path d="M1007.76 333.8C1007.76 332.588 1008.17 331.556 1009 330.728C1009.83 329.9 1010.83 329.492 1012.03 329.492C1013.22 329.492 1014.23 329.9 1015.06 330.716C1015.89 331.532 1016.29 332.564 1016.29 333.8C1016.29 334.988 1015.85 336.044 1014.96 336.944L1015.8 337.952L1015.06 338.576L1014.19 337.532C1013.51 337.916 1012.79 338.108 1012.03 338.108C1010.81 338.108 1009.79 337.7 1008.99 336.884C1008.17 336.08 1007.76 335.048 1007.76 333.8ZM1008.9 333.8C1008.9 334.748 1009.2 335.528 1009.8 336.14C1010.4 336.752 1011.15 337.064 1012.03 337.064C1012.57 337.064 1013.07 336.932 1013.53 336.656L1012.81 335.792L1013.51 335.18L1014.28 336.104C1014.87 335.492 1015.15 334.724 1015.15 333.8C1015.15 332.852 1014.85 332.072 1014.25 331.46C1013.65 330.848 1012.91 330.536 1012.03 330.536C1011.15 330.536 1010.4 330.836 1009.8 331.448C1009.2 332.06 1008.9 332.852 1008.9 333.8ZM1022.92 338H1021.88V336.284H1016.74V335.588L1022 329.6H1022.92V335.312H1024.48V336.284H1022.92V338ZM1021.88 331.28L1018.18 335.312H1021.88V331.28Z" fill="#76848D"/>
<defs>
<linearGradient id="paint0_linear_4001_9090" x1="40" y1="144" x2="40" y2="182" gradientUnits="userSpaceOnUse">
<stop offset="0" stop-color="#CDE3E9"/>
<stop offset="1" stop-color="#D3E8ED"/>
</linearGradient>
<linearGradient id="paint1_linear_4001_9090" x1="40" y1="144" x2="40" y2="182" gradientUnits="userSpaceOnUse">
<stop offset="0" stop-color="white" stop-opacity="0"/>
<stop offset="0.739583" stop-color="white"/>
</linearGradient>
<linearGradient id="paint2_linear_4001_9090" x1="22" y1="69.9" x2="22" y2="182" gradientUnits="userSpaceOnUse">
<stop offset="0" stop-color="white" stop-opacity="0.05"/>
<stop offset="0.75" stop-color="white" stop-opacity="0.8"/>
</linearGradient>
<linearGradient id="paint3_linear_4001_9090" x1="96" y1="187" x2="96" y2="182" gradientUnits="userSpaceOnUse">
<stop offset="0" stop-color="#6D73F9"/>
<stop offset="1" stop-color="#9BB8F1"/>
</linearGradient>
<linearGradient id="paint4_linear_4001_9090" x1="96" y1="187" x2="96" y2="182" gradientUnits="userSpaceOnUse">
<stop offset="0" stop-color="white" stop-opacity="0"/>
<stop offset="0.739583" stop-color="white"/>
</linearGradient>
<linearGradient id="paint5_linear_4001_9090" x1="78" y1="196.75" x2="78" y2="182" gradientUnits="userSpaceOnUse">
<stop offset="0" stop-color="white" stop-opacity="0.05"/>
<stop offset="0.75" stop-color="white" stop-opacity="0.8"/>
</linearGradient>
<linearGradient id="paint6_linear_4001_9090" x1="448" y1="218" x2="448" y2="182" gradientUnits="userSpaceOnUse">
<stop offset="0" stop-color="#CDE3E9"/>
<stop offset="1" stop-color="#D3E8ED"/>
</linearGradient>
<linearGradient id="paint7_linear_4001_9090" x1="448" y1="218" x2="448" y2="182" gradientUnits="userSpaceOnUse">
<stop offset="0" stop-color="white" stop-opacity="0"/>
<stop offset="0.739583" stop-color="white"/>
</linearGradient>
<linearGradient id="paint8_linear_4001_9090" x1="430" y1="288.2" x2="430" y2="182" gradientUnits="userSpaceOnUse">
<stop offset="0" stop-color="white" stop-opacity="0.05"/>
<stop offset="0.75" stop-color="white" stop-opacity="0.8"/>
</linearGradient>
<linearGradient id="paint9_linear_4001_9090" x1="504" y1="241" x2="504" y2="182" gradientUnits="userSpaceOnUse">
<stop offset="0" stop-color="#6D73F9"/>
<stop offset="1" stop-color="#9BB8F1"/>
</linearGradient>
<linearGradient id="paint10_linear_4001_9090" x1="504" y1="241" x2="504" y2="182" gradientUnits="userSpaceOnUse">
<stop offset="0" stop-color="white" stop-opacity="0"/>
<stop offset="0.739583" stop-color="white"/>
</linearGradient>
<linearGradient id="paint11_linear_4001_9090" x1="486" y1="356.05" x2="486" y2="182" gradientUnits="userSpaceOnUse">
<stop offset="0" stop-color="white" stop-opacity="0.05"/>
<stop offset="0.75" stop-color="white" stop-opacity="0.8"/>
</linearGradient>
<linearGradient id="paint12_linear_4001_9090" x1="176" y1="241" x2="176" y2="182" gradientUnits="userSpaceOnUse">
<stop offset="0" stop-color="#CDE3E9"/>
<stop offset="1" stop-color="#D3E8ED"/>
</linearGradient>
<linearGradient id="paint13_linear_4001_9090" x1="176" y1="241" x2="176" y2="182" gradientUnits="userSpaceOnUse">
<stop offset="0" stop-color="white" stop-opacity="0"/>
<stop offset="0.739583" stop-color="white"/>
</linearGradient>
<linearGradient id="paint14_linear_4001_9090" x1="158" y1="356.05" x2="158" y2="182" gradientUnits="userSpaceOnUse">
<stop offset="0" stop-color="white" stop-opacity="0.05"/>
<stop offset="0.75" stop-color="white" stop-opacity="0.8"/>
</linearGradient>
<linearGradient id="paint15_linear_4001_9090" x1="232" y1="285" x2="232" y2="182" gradientUnits="userSpaceOnUse">
<stop offset="0" stop-color="#6D73F9"/>
<stop offset="1" stop-color="#9BB8F1"/>
</linearGradient>
<linearGradient id="paint16_linear_4001_9090" x1="232" y1="285" x2="232" y2="182" gradientUnits="userSpaceOnUse">
<stop offset="0" stop-color="white" stop-opacity="0"/>
<stop offset="0.739583" stop-color="white"/>
</linearGradient>
<linearGradient id="paint17_linear_4001_9090" x1="214" y1="485.85" x2="214" y2="182" gradientUnits="userSpaceOnUse">
<stop offset="0" stop-color="white" stop-opacity="0.05"/>
<stop offset="0.75" stop-color="white" stop-opacity="0.8"/>
</linearGradient>
<linearGradient id="paint18_linear_4001_9090" x1="584" y1="206" x2="584" y2="182" gradientUnits="userSpaceOnUse">
<stop offset="0" stop-color="#CDE3E9"/>
<stop offset="1" stop-color="#D3E8ED"/>
</linearGradient>
<linearGradient id="paint19_linear_4001_9090" x1="584" y1="206" x2="584" y2="182" gradientUnits="userSpaceOnUse">
<stop offset="0" stop-color="white" stop-opacity="0"/>
<stop offset="0.739583" stop-color="white"/>
</linearGradient>
<linearGradient id="paint20_linear_4001_9090" x1="566" y1="252.8" x2="566" y2="182" gradientUnits="userSpaceOnUse">
<stop offset="0" stop-color="white" stop-opacity="0.05"/>
<stop offset="0.75" stop-color="white" stop-opacity="0.8"/>
</linearGradient>
<linearGradient id="paint21_linear_4001_9090" x1="640" y1="207" x2="640" y2="182" gradientUnits="userSpaceOnUse">
<stop offset="0" stop-color="#6D73F9"/>
<stop offset="1" stop-color="#9BB8F1"/>
</linearGradient>
<linearGradient id="paint22_linear_4001_9090" x1="640" y1="207" x2="640" y2="182" gradientUnits="userSpaceOnUse">
<stop offset="0" stop-color="white" stop-opacity="0"/>
<stop offset="0.739583" stop-color="white"/>
</linearGradient>
<linearGradient id="paint23_linear_4001_9090" x1="622" y1="255.75" x2="622" y2="182" gradientUnits="userSpaceOnUse">
<stop offset="0" stop-color="white" stop-opacity="0.05"/>
<stop offset="0.75" stop-color="white" stop-opacity="0.8"/>
</linearGradient>
<linearGradient id="paint24_linear_4001_9090" x1="312" y1="228" x2="312" y2="182" gradientUnits="userSpaceOnUse">
<stop offset="0" stop-color="#CDE3E9"/>
<stop offset="1" stop-color="#D3E8ED"/>
</linearGradient>
<linearGradient id="paint25_linear_4001_9090" x1="312" y1="228" x2="312" y2="182" gradientUnits="userSpaceOnUse">
<stop offset="0" stop-color="white" stop-opacity="0"/>
<stop offset="0.739583" stop-color="white"/>
</linearGradient>
<linearGradient id="paint26_linear_4001_9090" x1="294" y1="317.7" x2="294" y2="182" gradientUnits="userSpaceOnUse">
<stop offset="0" stop-color="white" stop-opacity="0.05"/>
<stop offset="0.75" stop-color="white" stop-opacity="0.8"/>
</linearGradient>
<linearGradient id="paint27_linear_4001_9090" x1="368" y1="251" x2="368" y2="182" gradientUnits="userSpaceOnUse">
<stop offset="0" stop-color="#6D73F9"/>
<stop offset="1" stop-color="#9BB8F1"/>
</linearGradient>
<linearGradient id="paint28_linear_4001_9090" x1="368" y1="251" x2="368" y2="182" gradientUnits="userSpaceOnUse">
<stop offset="0" stop-color="white" stop-opacity="0"/>
<stop offset="0.739583" stop-color="white"/>
</linearGradient>
<linearGradient id="paint29_linear_4001_9090" x1="350" y1="385.55" x2="350" y2="182" gradientUnits="userSpaceOnUse">
<stop offset="0" stop-color="white" stop-opacity="0.05"/>
<stop offset="0.75" stop-color="white" stop-opacity="0.8"/>
</linearGradient>
<linearGradient id="paint30_linear_4001_9090" x1="720" y1="119" x2="720" y2="182" gradientUnits="userSpaceOnUse">
<stop offset="0" stop-color="#CDE3E9"/>
<stop offset="1" stop-color="#D3E8ED"/>
</linearGradient>
<linearGradient id="paint31_linear_4001_9090" x1="720" y1="119" x2="720" y2="182" gradientUnits="userSpaceOnUse">
<stop offset="0" stop-color="white" stop-opacity="0"/>
<stop offset="0.739583" stop-color="white"/>
</linearGradient>
<linearGradient id="paint32_linear_4001_9090" x1="702" y1="-3.85" x2="702" y2="182" gradientUnits="userSpaceOnUse">
<stop offset="0" stop-color="white" stop-opacity="0.05"/>
<stop offset="0.75" stop-color="white" stop-opacity="0.8"/>
</linearGradient>
<linearGradient id="paint33_linear_4001_9090" x1="856" y1="116" x2="856" y2="182" gradientUnits="userSpaceOnUse">
<stop offset="0" stop-color="#CDE3E9"/>
<stop offset="1" stop-color="#D3E8ED"/>
</linearGradient>
<linearGradient id="paint34_linear_4001_9090" x1="856" y1="116" x2="856" y2="182" gradientUnits="userSpaceOnUse">
<stop offset="0" stop-color="white" stop-opacity="0"/>
<stop offset="0.739583" stop-color="white"/>
</linearGradient>
<linearGradient id="paint35_linear_4001_9090" x1="838" y1="-12.7" x2="838" y2="182" gradientUnits="userSpaceOnUse">
<stop offset="0" stop-color="white" stop-opacity="0.05"/>
<stop offset="0.75" stop-color="white" stop-opacity="0.8"/>
</linearGradient>
<linearGradient id="paint36_linear_4001_9090" x1="776" y1="103" x2="776" y2="182" gradientUnits="userSpaceOnUse">
<stop offset="0" stop-color="#6D73F9"/>
<stop offset="1" stop-color="#9BB8F1"/>
</linearGradient>
<linearGradient id="paint37_linear_4001_9090" x1="776" y1="103" x2="776" y2="182" gradientUnits="userSpaceOnUse">
<stop offset="0" stop-color="white" stop-opacity="0"/>
<stop offset="0.739583" stop-color="white"/>
</linearGradient>
<linearGradient id="paint38_linear_4001_9090" x1="758" y1="-51.05" x2="758" y2="182" gradientUnits="userSpaceOnUse">
<stop offset="0" stop-color="white" stop-opacity="0.05"/>
<stop offset="0.75" stop-color="white" stop-opacity="0.8"/>
</linearGradient>
<linearGradient id="paint39_linear_4001_9090" x1="912" y1="102" x2="912" y2="182" gradientUnits="userSpaceOnUse">
<stop offset="0" stop-color="#6D73F9"/>
<stop offset="1" stop-color="#9BB8F1"/>
</linearGradient>
<linearGradient id="paint40_linear_4001_9090" x1="912" y1="102" x2="912" y2="182" gradientUnits="userSpaceOnUse">
<stop offset="0" stop-color="white" stop-opacity="0"/>
<stop offset="0.739583" stop-color="white"/>
</linearGradient>
<linearGradient id="paint41_linear_4001_9090" x1="894" y1="-54" x2="894" y2="182" gradientUnits="userSpaceOnUse">
<stop offset="0" stop-color="white" stop-opacity="0.05"/>
<stop offset="0.75" stop-color="white" stop-opacity="0.8"/>
</linearGradient>
<linearGradient id="paint42_linear_4001_9090" x1="1048" y1="123" x2="1048" y2="182" gradientUnits="userSpaceOnUse">
<stop offset="0" stop-color="#6D73F9"/>
<stop offset="1" stop-color="#9BB8F1"/>
</linearGradient>
<linearGradient id="paint43_linear_4001_9090" x1="1048" y1="123" x2="1048" y2="182" gradientUnits="userSpaceOnUse">
<stop offset="0" stop-color="white" stop-opacity="0"/>
<stop offset="0.739583" stop-color="white"/>
</linearGradient>
<linearGradient id="paint44_linear_4001_9090" x1="1030" y1="7.95" x2="1030" y2="182" gradientUnits="userSpaceOnUse">
<stop offset="0" stop-color="white" stop-opacity="0.05"/>
<stop offset="0.75" stop-color="white" stop-opacity="0.8"/>
</linearGradient>
<linearGradient id="paint45_linear_4001_9090" x1="992" y1="111" x2="992" y2="182" gradientUnits="userSpaceOnUse">
<stop offset="0" stop-color="#CDE3E9"/>
<stop offset="1" stop-color="#D3E8ED"/>
</linearGradient>
<linearGradient id="paint46_linear_4001_9090" x1="992" y1="111" x2="992" y2="182" gradientUnits="userSpaceOnUse">
<stop offset="0" stop-color="white" stop-opacity="0"/>
<stop offset="0.739583" stop-color="white"/>
</linearGradient>
<linearGradient id="paint47_linear_4001_9090" x1="974" y1="-27.45" x2="974" y2="182" gradientUnits="userSpaceOnUse">
<stop offset="0" stop-color="white" stop-opacity="0.05"/>
<stop offset="0.75" stop-color="white" stop-opacity="0.8"/>
</linearGradient>
<linearGradient id="paint48_linear_4001_9090" x1="0.476191" y1="12" x2="10" y2="12" gradientUnits="userSpaceOnUse">
<stop offset="0" stop-color="#CEE8EF"/>
<stop offset="1" stop-color="#CEE8EF"/>
</linearGradient>
</defs>
</svg>
