<svg width="336" height="167" viewBox="0 0 336 167" fill="none" xmlns="http://www.w3.org/2000/svg">
<path d="M42.5345 33.7221C32.0281 33.7221 23.5637 48.2348 14 48.2348V143H326V18C319.885 18 305.146 30.0939 296.209 30.0939H267.689C260.634 30.0939 247.136 20.7211 239.454 20.7211C231.771 20.7211 219.252 37.9549 211.076 43.3972C202.899 48.8395 192.238 52.7699 183.301 53.9793C174.365 55.1887 164.161 49.4442 155.129 47.0254C146.097 44.6066 136.152 34.3268 126.65 34.3268C117.148 34.3268 109.674 47.0254 98.6627 47.0254C87.7603 47.0254 80.6698 37.2378 70.6119 37.2378C63.5689 37.2378 53.8729 33.7221 42.5345 33.7221Z" fill="url(#paint0_linear_4001_19850)" fill-opacity="0.3"/>
<path d="M10.0215 48.598C19.7187 48.598 28.3013 34.1088 38.9543 34.1088C50.451 34.1088 60.2823 37.6188 67.4237 37.6188C77.622 37.6188 84.8115 47.3906 95.866 47.3906C107.031 47.3906 114.61 34.7125 124.244 34.7125C133.879 34.7125 143.962 44.9757 153.12 47.3906C162.279 49.8055 172.625 55.5407 181.686 54.3333C190.747 53.1259 201.558 49.2017 209.849 43.7682C218.139 38.3347 230.833 21.1289 238.622 21.1289C246.412 21.1289 260.098 30.4865 267.252 30.4865C274.406 30.4865 287.109 30.4865 296.17 30.4865C305.231 30.4865 320.177 18.4121 326.377 18.4121" stroke="#737AF9" stroke-width="3.00718"/>
<line x1="1" y1="142.5" x2="336" y2="142.5" stroke="#ABBEC9"/>
<path d="M6.08712 154.2C6.08712 153.336 6.28712 152.64 6.69512 152.12C7.09513 151.6 7.68713 151.336 8.46312 151.336C10.0551 151.336 10.8471 152.384 10.8471 154.2C10.8471 155.072 10.6471 155.76 10.2551 156.28C9.85512 156.8 9.26313 157.064 8.47913 157.064C7.72713 157.064 7.14313 156.8 6.71913 156.272C6.29513 155.744 6.08712 155.056 6.08712 154.2ZM6.82313 154.2C6.82313 155.568 7.44713 156.384 8.47913 156.384C9.56713 156.384 10.1111 155.656 10.1111 154.2C10.1111 152.744 9.55913 152.016 8.46312 152.016C7.35113 152.016 6.82313 152.816 6.82313 154.2ZM11.3806 152.888L11.1246 152.288L13.0446 151.368H13.5006V157H12.8126V152.224L11.3806 152.888ZM1.01806 161.248L0.434062 161.04C0.634062 160.048 1.38606 159.336 2.57806 159.336C3.73006 159.336 4.43406 160 4.43406 161.016C4.43406 161.552 4.20206 162.088 3.91406 162.472C3.77006 162.672 3.58606 162.864 3.37006 163.064C2.93006 163.456 2.61806 163.664 2.16206 163.952L1.54606 164.336H4.64206V165H0.282062V164.456L1.49806 163.648C1.71406 163.512 1.86606 163.408 1.95406 163.344C2.04206 163.288 2.18606 163.184 2.37806 163.048C2.57006 162.912 2.71406 162.792 2.81006 162.704C2.89806 162.616 3.01806 162.504 3.15406 162.36C3.52206 161.96 3.65806 161.592 3.69806 161.088C3.69806 160.36 3.22606 160.032 2.53006 160.032C2.09806 160.032 1.75406 160.152 1.50606 160.392C1.25806 160.632 1.09006 160.92 1.01806 161.248ZM5.1965 162.2C5.1965 161.336 5.3965 160.64 5.8045 160.12C6.2045 159.6 6.7965 159.336 7.5725 159.336C9.1645 159.336 9.9565 160.384 9.9565 162.2C9.9565 163.072 9.7565 163.76 9.3645 164.28C8.9645 164.8 8.3725 165.064 7.5885 165.064C6.8365 165.064 6.2525 164.8 5.8285 164.272C5.4045 163.744 5.1965 163.056 5.1965 162.2ZM5.9325 162.2C5.9325 163.568 6.5565 164.384 7.5885 164.384C8.6765 164.384 9.2205 163.656 9.2205 162.2C9.2205 160.744 8.6685 160.016 7.5725 160.016C6.4605 160.016 5.9325 160.816 5.9325 162.2ZM11.194 161.248L10.61 161.04C10.81 160.048 11.562 159.336 12.754 159.336C13.906 159.336 14.61 160 14.61 161.016C14.61 161.552 14.378 162.088 14.09 162.472C13.946 162.672 13.762 162.864 13.546 163.064C13.106 163.456 12.794 163.664 12.338 163.952L11.722 164.336H14.818V165H10.458V164.456L11.674 163.648C11.89 163.512 12.042 163.408 12.13 163.344C12.218 163.288 12.362 163.184 12.554 163.048C12.746 162.912 12.89 162.792 12.986 162.704C13.074 162.616 13.194 162.504 13.33 162.36C13.698 161.96 13.834 161.592 13.874 161.088C13.874 160.36 13.402 160.032 12.706 160.032C12.274 160.032 11.93 160.152 11.682 160.392C11.434 160.632 11.266 160.92 11.194 161.248ZM15.9244 161.032L15.3244 160.76C15.6204 159.896 16.3964 159.328 17.5564 159.328C18.1084 159.328 18.5644 159.456 18.9164 159.712C19.2684 159.968 19.4444 160.312 19.4444 160.736C19.4444 161.384 19.1004 161.864 18.4604 162.048C19.0764 162.088 19.5724 162.552 19.5724 163.384C19.5724 163.912 19.3804 164.328 18.9964 164.624C18.6124 164.92 18.1244 165.072 17.5244 165.072C16.3004 165.072 15.4524 164.488 15.1724 163.568L15.8204 163.288C16.1644 164.016 16.7484 164.384 17.5724 164.384C18.3484 164.384 18.8364 164.024 18.8364 163.392C18.8364 162.776 18.3564 162.464 17.3964 162.464H16.7724V161.8H17.2684C18.1404 161.8 18.7084 161.408 18.7084 160.872C18.7084 160.32 18.2524 160.008 17.5244 160.008C16.6684 160.008 16.1484 160.448 15.9244 161.032Z" fill="#76848D"/>
<path d="M149.005 154.2C149.005 153.336 149.205 152.64 149.613 152.12C150.013 151.6 150.605 151.336 151.381 151.336C152.973 151.336 153.765 152.384 153.765 154.2C153.765 155.072 153.565 155.76 153.173 156.28C152.773 156.8 152.181 157.064 151.397 157.064C150.645 157.064 150.061 156.8 149.637 156.272C149.213 155.744 149.005 155.056 149.005 154.2ZM149.741 154.2C149.741 155.568 150.365 156.384 151.397 156.384C152.485 156.384 153.029 155.656 153.029 154.2C153.029 152.744 152.477 152.016 151.381 152.016C150.269 152.016 149.741 152.816 149.741 154.2ZM154.363 154.352C154.363 153.384 154.603 152.64 155.075 152.112C155.547 151.592 156.139 151.328 156.851 151.328C157.787 151.328 158.523 151.752 158.835 152.424L158.291 152.792C157.963 152.272 157.475 152.016 156.819 152.016C156.323 152.016 155.907 152.208 155.571 152.592C155.235 152.984 155.067 153.512 155.075 154.192C155.387 153.608 156.115 153.256 156.915 153.256C157.563 153.256 158.083 153.424 158.459 153.768C158.835 154.112 159.027 154.568 159.027 155.128C159.027 155.696 158.819 156.168 158.395 156.528C157.971 156.888 157.443 157.072 156.811 157.072C155.299 157.072 154.363 156.088 154.363 154.352ZM155.163 155.032C155.315 155.824 155.915 156.384 156.803 156.384C157.235 156.384 157.595 156.272 157.875 156.04C158.155 155.816 158.291 155.52 158.291 155.16C158.291 154.368 157.731 153.944 156.875 153.944C156.403 153.944 156.011 154.056 155.707 154.28C155.395 154.504 155.219 154.752 155.163 155.032Z" fill="#76848D"/>
<path d="M33.216 154.2C33.216 153.336 33.416 152.64 33.824 152.12C34.224 151.6 34.816 151.336 35.592 151.336C37.184 151.336 37.976 152.384 37.976 154.2C37.976 155.072 37.776 155.76 37.384 156.28C36.984 156.8 36.392 157.064 35.608 157.064C34.856 157.064 34.272 156.8 33.848 156.272C33.424 155.744 33.216 155.056 33.216 154.2ZM33.952 154.2C33.952 155.568 34.576 156.384 35.608 156.384C36.696 156.384 37.24 155.656 37.24 154.2C37.24 152.744 36.688 152.016 35.592 152.016C34.48 152.016 33.952 152.816 33.952 154.2ZM39.2135 153.248L38.6295 153.04C38.8295 152.048 39.5815 151.336 40.7735 151.336C41.9255 151.336 42.6295 152 42.6295 153.016C42.6295 153.552 42.3975 154.088 42.1095 154.472C41.9655 154.672 41.7815 154.864 41.5655 155.064C41.1255 155.456 40.8135 155.664 40.3575 155.952L39.7415 156.336H42.8375V157H38.4775V156.456L39.6935 155.648C39.9095 155.512 40.0615 155.408 40.1495 155.344C40.2375 155.288 40.3815 155.184 40.5735 155.048C40.7655 154.912 40.9095 154.792 41.0055 154.704C41.0935 154.616 41.2135 154.504 41.3495 154.36C41.7175 153.96 41.8535 153.592 41.8935 153.088C41.8935 152.36 41.4215 152.032 40.7255 152.032C40.2935 152.032 39.9495 152.152 39.7015 152.392C39.4535 152.632 39.2855 152.92 39.2135 153.248Z" fill="#76848D"/>
<path d="M177.38 154.2C177.38 153.336 177.58 152.64 177.988 152.12C178.388 151.6 178.98 151.336 179.756 151.336C181.348 151.336 182.14 152.384 182.14 154.2C182.14 155.072 181.94 155.76 181.548 156.28C181.148 156.8 180.556 157.064 179.772 157.064C179.02 157.064 178.436 156.8 178.012 156.272C177.588 155.744 177.38 155.056 177.38 154.2ZM178.116 154.2C178.116 155.568 178.74 156.384 179.772 156.384C180.86 156.384 181.404 155.656 181.404 154.2C181.404 152.744 180.852 152.016 179.756 152.016C178.644 152.016 178.116 152.816 178.116 154.2ZM185.946 152.08H182.554V151.4H186.802V151.856L184.018 157H183.258L185.946 152.08Z" fill="#76848D"/>
<path d="M62.1965 154.2C62.1965 153.336 62.3965 152.64 62.8045 152.12C63.2045 151.6 63.7965 151.336 64.5725 151.336C66.1645 151.336 66.9565 152.384 66.9565 154.2C66.9565 155.072 66.7565 155.76 66.3645 156.28C65.9645 156.8 65.3725 157.064 64.5885 157.064C63.8365 157.064 63.2525 156.8 62.8285 156.272C62.4045 155.744 62.1965 155.056 62.1965 154.2ZM62.9325 154.2C62.9325 155.568 63.5565 156.384 64.5885 156.384C65.6765 156.384 66.2205 155.656 66.2205 154.2C66.2205 152.744 65.6685 152.016 64.5725 152.016C63.4605 152.016 62.9325 152.816 62.9325 154.2ZM68.106 153.032L67.506 152.76C67.802 151.896 68.578 151.328 69.738 151.328C70.29 151.328 70.746 151.456 71.098 151.712C71.45 151.968 71.626 152.312 71.626 152.736C71.626 153.384 71.282 153.864 70.642 154.048C71.258 154.088 71.754 154.552 71.754 155.384C71.754 155.912 71.562 156.328 71.178 156.624C70.794 156.92 70.306 157.072 69.706 157.072C68.482 157.072 67.634 156.488 67.354 155.568L68.002 155.288C68.346 156.016 68.93 156.384 69.754 156.384C70.53 156.384 71.018 156.024 71.018 155.392C71.018 154.776 70.538 154.464 69.578 154.464H68.954V153.8H69.45C70.322 153.8 70.89 153.408 70.89 152.872C70.89 152.32 70.434 152.008 69.706 152.008C68.85 152.008 68.33 152.448 68.106 153.032Z" fill="#76848D"/>
<path d="M205.997 154.2C205.997 153.336 206.197 152.64 206.605 152.12C207.005 151.6 207.597 151.336 208.373 151.336C209.965 151.336 210.757 152.384 210.757 154.2C210.757 155.072 210.557 155.76 210.165 156.28C209.765 156.8 209.173 157.064 208.389 157.064C207.637 157.064 207.053 156.8 206.629 156.272C206.205 155.744 205.997 155.056 205.997 154.2ZM206.733 154.2C206.733 155.568 207.357 156.384 208.389 156.384C209.477 156.384 210.021 155.656 210.021 154.2C210.021 152.744 209.469 152.016 208.373 152.016C207.261 152.016 206.733 152.816 206.733 154.2ZM213.563 153.808H213.811C214.171 153.808 214.467 153.72 214.715 153.552C214.955 153.384 215.075 153.16 215.075 152.896C215.075 152.296 214.603 151.992 213.667 151.992C212.771 151.992 212.283 152.32 212.283 152.896C212.283 153.416 212.819 153.808 213.563 153.808ZM213.795 154.44H213.595C213.163 154.44 212.803 154.536 212.523 154.72C212.243 154.904 212.099 155.136 212.099 155.416C212.099 156.024 212.659 156.408 213.675 156.408C214.707 156.408 215.259 156.04 215.259 155.424C215.259 154.808 214.667 154.44 213.795 154.44ZM215.371 156.64C214.963 156.928 214.395 157.072 213.683 157.072C212.971 157.072 212.403 156.928 211.987 156.648C211.571 156.368 211.363 155.984 211.363 155.488C211.363 154.84 211.787 154.328 212.467 154.104C211.851 153.904 211.547 153.416 211.547 152.848C211.547 151.92 212.331 151.328 213.675 151.328C215.027 151.328 215.811 151.92 215.811 152.848C215.811 153.384 215.515 153.792 214.923 154.064C215.635 154.28 215.987 154.744 215.987 155.456C215.987 155.96 215.779 156.36 215.371 156.64Z" fill="#76848D"/>
<path d="M90.9777 154.2C90.9777 153.336 91.1777 152.64 91.5857 152.12C91.9858 151.6 92.5778 151.336 93.3537 151.336C94.9458 151.336 95.7378 152.384 95.7378 154.2C95.7378 155.072 95.5378 155.76 95.1458 156.28C94.7457 156.8 94.1538 157.064 93.3698 157.064C92.6178 157.064 92.0338 156.8 91.6098 156.272C91.1858 155.744 90.9777 155.056 90.9777 154.2ZM91.7138 154.2C91.7138 155.568 92.3378 156.384 93.3698 156.384C94.4578 156.384 95.0017 155.656 95.0017 154.2C95.0017 152.744 94.4498 152.016 93.3537 152.016C92.2418 152.016 91.7138 152.816 91.7138 154.2ZM100.199 157H99.5033V155.856H96.0793V155.392L99.5833 151.4H100.199V155.208H101.239V155.856H100.199V157ZM99.5033 152.52L97.0393 155.208H99.5033V152.52Z" fill="#76848D"/>
<path d="M232.997 154.2C232.997 153.336 233.197 152.64 233.605 152.12C234.005 151.6 234.597 151.336 235.373 151.336C236.965 151.336 237.757 152.384 237.757 154.2C237.757 155.072 237.557 155.76 237.165 156.28C236.765 156.8 236.173 157.064 235.389 157.064C234.637 157.064 234.053 156.8 233.629 156.272C233.205 155.744 232.997 155.056 232.997 154.2ZM233.733 154.2C233.733 155.568 234.357 156.384 235.389 156.384C236.477 156.384 237.021 155.656 237.021 154.2C237.021 152.744 236.469 152.016 235.373 152.016C234.261 152.016 233.733 152.816 233.733 154.2ZM243.011 154.096C243.011 155.048 242.787 155.784 242.331 156.296C241.875 156.816 241.267 157.072 240.507 157.072C239.579 157.072 238.851 156.68 238.491 156.08L239.067 155.68C239.387 156.128 239.971 156.384 240.603 156.384C241.123 156.384 241.539 156.176 241.867 155.76C242.195 155.352 242.331 154.84 242.291 154.232C242.027 154.84 241.363 155.288 240.475 155.288C239.851 155.288 239.339 155.112 238.939 154.752C238.531 154.4 238.331 153.936 238.331 153.368C238.331 152.744 238.547 152.248 238.979 151.88C239.411 151.512 239.987 151.328 240.699 151.328C242.139 151.328 243.011 152.336 243.011 154.096ZM242.171 153.344C242.051 152.6 241.539 152.016 240.619 152.016C239.659 152.016 239.067 152.512 239.067 153.344C239.067 154.136 239.667 154.6 240.603 154.6C241.027 154.6 241.387 154.472 241.667 154.216C241.947 153.96 242.115 153.672 242.171 153.344Z" fill="#76848D"/>
<path d="M119.15 154.2C119.15 153.336 119.35 152.64 119.758 152.12C120.158 151.6 120.75 151.336 121.526 151.336C123.118 151.336 123.91 152.384 123.91 154.2C123.91 155.072 123.71 155.76 123.318 156.28C122.918 156.8 122.326 157.064 121.542 157.064C120.79 157.064 120.206 156.8 119.782 156.272C119.358 155.744 119.15 155.056 119.15 154.2ZM119.886 154.2C119.886 155.568 120.51 156.384 121.542 156.384C122.63 156.384 123.174 155.656 123.174 154.2C123.174 152.744 122.622 152.016 121.526 152.016C120.414 152.016 119.886 152.816 119.886 154.2ZM125.323 154.424L124.747 154.272L125.075 151.4H128.595V152.08H125.691L125.483 153.584C125.763 153.376 126.187 153.272 126.755 153.272C127.411 153.272 127.923 153.448 128.299 153.792C128.667 154.144 128.851 154.592 128.851 155.144C128.851 155.696 128.643 156.16 128.235 156.52C127.819 156.888 127.299 157.072 126.683 157.072C125.635 157.072 124.763 156.576 124.403 155.704L125.043 155.432C125.275 155.968 125.875 156.392 126.683 156.392C127.603 156.392 128.115 155.864 128.115 155.168C128.115 154.424 127.515 153.944 126.563 153.944C126.051 153.944 125.635 154.104 125.323 154.424Z" fill="#76848D"/>
<path d="M263.023 152.888L262.767 152.288L264.687 151.368H265.143V157H264.455V152.224L263.023 152.888ZM266.163 154.2C266.163 153.336 266.363 152.64 266.771 152.12C267.171 151.6 267.763 151.336 268.539 151.336C270.131 151.336 270.923 152.384 270.923 154.2C270.923 155.072 270.723 155.76 270.331 156.28C269.931 156.8 269.339 157.064 268.555 157.064C267.803 157.064 267.219 156.8 266.795 156.272C266.371 155.744 266.163 155.056 266.163 154.2ZM266.899 154.2C266.899 155.568 267.523 156.384 268.555 156.384C269.643 156.384 270.187 155.656 270.187 154.2C270.187 152.744 269.635 152.016 268.539 152.016C267.427 152.016 266.899 152.816 266.899 154.2Z" fill="#76848D"/>
<path d="M295.164 152.888L294.908 152.288L296.828 151.368H297.284V157H296.596V152.224L295.164 152.888ZM298.24 152.888L297.984 152.288L299.904 151.368H300.36V157H299.672V152.224L298.24 152.888Z" fill="#76848D"/>
<path d="M322.293 152.888L322.037 152.288L323.957 151.368H324.413V157H323.725V152.224L322.293 152.888ZM326.073 153.248L325.489 153.04C325.689 152.048 326.441 151.336 327.633 151.336C328.785 151.336 329.489 152 329.489 153.016C329.489 153.552 329.257 154.088 328.969 154.472C328.825 154.672 328.641 154.864 328.425 155.064C327.985 155.456 327.673 155.664 327.217 155.952L326.601 156.336H329.697V157H325.337V156.456L326.553 155.648C326.769 155.512 326.921 155.408 327.009 155.344C327.097 155.288 327.241 155.184 327.433 155.048C327.625 154.912 327.769 154.792 327.865 154.704C327.953 154.616 328.073 154.504 328.209 154.36C328.577 153.96 328.713 153.592 328.753 153.088C328.753 152.36 328.281 152.032 327.585 152.032C327.153 152.032 326.809 152.152 326.561 152.392C326.313 152.632 326.145 152.92 326.073 153.248Z" fill="#76848D"/>
<circle cx="13.0283" cy="48.4843" r="4.21005" fill="#6D73F9" stroke="white" stroke-width="1.20287"/>
<path d="M4.40085 31.2887L3.7946 31.1287L4.13983 28.1059H7.84468V28.8216H4.78818L4.56925 30.4046C4.86396 30.1857 5.31022 30.0762 5.90805 30.0762C6.5985 30.0762 7.13739 30.2615 7.53313 30.6235C7.92046 30.994 8.11412 31.4655 8.11412 32.0465C8.11412 32.6275 7.8952 33.1159 7.46577 33.4948C7.02793 33.8821 6.48062 34.0758 5.83227 34.0758C4.72924 34.0758 3.81144 33.5537 3.43254 32.6359L4.10615 32.3497C4.35033 32.9138 4.98184 33.3601 5.83227 33.3601C6.80058 33.3601 7.33947 32.8043 7.33947 32.0718C7.33947 31.2887 6.70796 30.7835 5.70597 30.7835C5.16708 30.7835 4.72924 30.9519 4.40085 31.2887ZM9.42687 30.051L8.8122 29.832C9.0227 28.788 9.81419 28.0386 11.0688 28.0386C12.2813 28.0386 13.0223 28.7374 13.0223 29.8068C13.0223 30.3709 12.7781 30.9351 12.4749 31.3392C12.3234 31.5497 12.1297 31.7518 11.9024 31.9623C11.4393 32.3749 11.1109 32.5938 10.6309 32.897L9.98259 33.3011H13.2412V34H8.65222V33.4274L9.93207 32.577C10.1594 32.4339 10.3194 32.3244 10.412 32.257C10.5046 32.1981 10.6562 32.0886 10.8583 31.9455C11.0604 31.8024 11.2119 31.676 11.313 31.5834C11.4056 31.4908 11.5319 31.3729 11.675 31.2214C12.0624 30.8004 12.2055 30.413 12.2476 29.8826C12.2476 29.1163 11.7508 28.7711 11.0183 28.7711C10.5636 28.7711 10.2015 28.8974 9.94049 29.15C9.67947 29.4026 9.50265 29.7057 9.42687 30.051ZM14.3889 34C14.0773 34.0337 13.8416 33.8569 13.8416 33.5537C13.8416 33.259 14.0268 33.0738 14.3552 33.0738C14.7257 33.0738 14.9699 33.3264 14.9699 33.7979C14.9699 34.6399 14.5068 35.0694 13.8921 35.2125L13.7153 34.8168C13.9005 34.7662 14.0689 34.6652 14.2205 34.5052C14.3636 34.3452 14.4226 34.1768 14.3889 34ZM15.5824 31.2129C15.5824 30.1941 15.835 29.411 16.3318 28.8553C16.8286 28.308 17.4517 28.0301 18.2011 28.0301C19.1862 28.0301 19.9609 28.4764 20.2893 29.1837L19.7167 29.571C19.3715 29.0237 18.8578 28.7543 18.1674 28.7543C17.6454 28.7543 17.2075 28.9564 16.8539 29.3605C16.5002 29.7731 16.3234 30.3288 16.3318 31.0445C16.6602 30.4299 17.4264 30.0594 18.2684 30.0594C18.9505 30.0594 19.4978 30.2362 19.8935 30.5983C20.2893 30.9603 20.4914 31.4403 20.4914 32.0297C20.4914 32.6275 20.2724 33.1243 19.8262 33.5032C19.3799 33.8821 18.8242 34.0758 18.159 34.0758C16.5676 34.0758 15.5824 33.0401 15.5824 31.2129ZM16.4244 31.9287C16.5844 32.7622 17.2159 33.3517 18.1506 33.3517C18.6052 33.3517 18.9842 33.2338 19.2789 32.9896C19.5736 32.7538 19.7167 32.4423 19.7167 32.0634C19.7167 31.2298 19.1273 30.7835 18.2263 30.7835C17.7296 30.7835 17.317 30.9014 16.997 31.1372C16.6686 31.3729 16.4834 31.6339 16.4244 31.9287Z" fill="#2A3C3C"/>
<path d="M4.40085 31.2887L3.7946 31.1287L4.13983 28.1059H7.84468V28.8216H4.78818L4.56925 30.4046C4.86396 30.1857 5.31022 30.0762 5.90805 30.0762C6.5985 30.0762 7.13739 30.2615 7.53313 30.6235C7.92046 30.994 8.11412 31.4655 8.11412 32.0465C8.11412 32.6275 7.8952 33.1159 7.46577 33.4948C7.02793 33.8821 6.48062 34.0758 5.83227 34.0758C4.72924 34.0758 3.81144 33.5537 3.43254 32.6359L4.10615 32.3497C4.35033 32.9138 4.98184 33.3601 5.83227 33.3601C6.80058 33.3601 7.33947 32.8043 7.33947 32.0718C7.33947 31.2887 6.70796 30.7835 5.70597 30.7835C5.16708 30.7835 4.72924 30.9519 4.40085 31.2887ZM9.42687 30.051L8.8122 29.832C9.0227 28.788 9.81419 28.0386 11.0688 28.0386C12.2813 28.0386 13.0223 28.7374 13.0223 29.8068C13.0223 30.3709 12.7781 30.9351 12.4749 31.3392C12.3234 31.5497 12.1297 31.7518 11.9024 31.9623C11.4393 32.3749 11.1109 32.5938 10.6309 32.897L9.98259 33.3011H13.2412V34H8.65222V33.4274L9.93207 32.577C10.1594 32.4339 10.3194 32.3244 10.412 32.257C10.5046 32.1981 10.6562 32.0886 10.8583 31.9455C11.0604 31.8024 11.2119 31.676 11.313 31.5834C11.4056 31.4908 11.5319 31.3729 11.675 31.2214C12.0624 30.8004 12.2055 30.413 12.2476 29.8826C12.2476 29.1163 11.7508 28.7711 11.0183 28.7711C10.5636 28.7711 10.2015 28.8974 9.94049 29.15C9.67947 29.4026 9.50265 29.7057 9.42687 30.051ZM14.3889 34C14.0773 34.0337 13.8416 33.8569 13.8416 33.5537C13.8416 33.259 14.0268 33.0738 14.3552 33.0738C14.7257 33.0738 14.9699 33.3264 14.9699 33.7979C14.9699 34.6399 14.5068 35.0694 13.8921 35.2125L13.7153 34.8168C13.9005 34.7662 14.0689 34.6652 14.2205 34.5052C14.3636 34.3452 14.4226 34.1768 14.3889 34ZM15.5824 31.2129C15.5824 30.1941 15.835 29.411 16.3318 28.8553C16.8286 28.308 17.4517 28.0301 18.2011 28.0301C19.1862 28.0301 19.9609 28.4764 20.2893 29.1837L19.7167 29.571C19.3715 29.0237 18.8578 28.7543 18.1674 28.7543C17.6454 28.7543 17.2075 28.9564 16.8539 29.3605C16.5002 29.7731 16.3234 30.3288 16.3318 31.0445C16.6602 30.4299 17.4264 30.0594 18.2684 30.0594C18.9505 30.0594 19.4978 30.2362 19.8935 30.5983C20.2893 30.9603 20.4914 31.4403 20.4914 32.0297C20.4914 32.6275 20.2724 33.1243 19.8262 33.5032C19.3799 33.8821 18.8242 34.0758 18.159 34.0758C16.5676 34.0758 15.5824 33.0401 15.5824 31.2129ZM16.4244 31.9287C16.5844 32.7622 17.2159 33.3517 18.1506 33.3517C18.6052 33.3517 18.9842 33.2338 19.2789 32.9896C19.5736 32.7538 19.7167 32.4423 19.7167 32.0634C19.7167 31.2298 19.1273 30.7835 18.2263 30.7835C17.7296 30.7835 17.317 30.9014 16.997 31.1372C16.6686 31.3729 16.4834 31.6339 16.4244 31.9287Z" fill="#1A3341"/>
<circle cx="41.8974" cy="33.4482" r="4.21005" fill="#6D73F9" stroke="white" stroke-width="1.20287"/>
<path d="M34.3803 18.2887L33.774 18.1287L34.1193 15.1059H37.8241V15.8216H34.7676L34.5487 17.4046C34.8434 17.1857 35.2897 17.0762 35.8875 17.0762C36.5779 17.0762 37.1168 17.2615 37.5126 17.6235C37.8999 17.994 38.0936 18.4655 38.0936 19.0465C38.0936 19.6275 37.8746 20.1159 37.4452 20.4948C37.0074 20.8821 36.4601 21.0758 35.8117 21.0758C34.7087 21.0758 33.7909 20.5537 33.412 19.6359L34.0856 19.3497C34.3298 19.9138 34.9613 20.3601 35.8117 20.3601C36.78 20.3601 37.3189 19.8043 37.3189 19.0718C37.3189 18.2887 36.6874 17.7835 35.6854 17.7835C35.1465 17.7835 34.7087 17.9519 34.3803 18.2887ZM39.3137 16.8236L38.6822 16.5373C38.9937 15.628 39.8105 15.0301 41.0314 15.0301C41.6124 15.0301 42.0923 15.1649 42.4628 15.4343C42.8333 15.7038 43.0185 16.0658 43.0185 16.5121C43.0185 17.1941 42.6565 17.6993 41.9829 17.893C42.6312 17.9351 43.1533 18.4234 43.1533 19.2991C43.1533 19.8549 42.9512 20.2927 42.547 20.6043C42.1428 20.9158 41.6292 21.0758 40.9977 21.0758C39.7094 21.0758 38.8169 20.4611 38.5222 19.4928L39.2042 19.1981C39.5663 19.9643 40.181 20.3517 41.0482 20.3517C41.865 20.3517 42.3786 19.9727 42.3786 19.3076C42.3786 18.6592 41.8734 18.3308 40.863 18.3308H40.2062V17.632H40.7283C41.6461 17.632 42.2439 17.2194 42.2439 16.6552C42.2439 16.0742 41.7639 15.7459 40.9977 15.7459C40.0968 15.7459 39.5495 16.209 39.3137 16.8236ZM44.4094 21C44.0979 21.0337 43.8621 20.8569 43.8621 20.5537C43.8621 20.259 44.0474 20.0738 44.3758 20.0738C44.7462 20.0738 44.9904 20.3264 44.9904 20.7979C44.9904 21.6399 44.5273 22.0694 43.9126 22.2125L43.7358 21.8168C43.9211 21.7662 44.0895 21.6652 44.241 21.5052C44.3842 21.3452 44.4431 21.1768 44.4094 21ZM45.603 18.2129C45.603 17.1941 45.8556 16.411 46.3524 15.8553C46.8492 15.308 47.4722 15.0301 48.2216 15.0301C49.2068 15.0301 49.9814 15.4764 50.3098 16.1837L49.7373 16.571C49.392 16.0237 48.8784 15.7543 48.188 15.7543C47.6659 15.7543 47.2281 15.9564 46.8744 16.3605C46.5208 16.7731 46.344 17.3288 46.3524 18.0445C46.6808 17.4299 47.447 17.0594 48.289 17.0594C48.971 17.0594 49.5183 17.2362 49.9141 17.5983C50.3098 17.9603 50.5119 18.4403 50.5119 19.0297C50.5119 19.6275 50.293 20.1243 49.8467 20.5032C49.4005 20.8821 48.8447 21.0758 48.1795 21.0758C46.5881 21.0758 45.603 20.0401 45.603 18.2129ZM46.445 18.9287C46.605 19.7622 47.2365 20.3517 48.1711 20.3517C48.6258 20.3517 49.0047 20.2338 49.2994 19.9896C49.5941 19.7538 49.7373 19.4423 49.7373 19.0634C49.7373 18.2298 49.1479 17.7835 48.2469 17.7835C47.7501 17.7835 47.3375 17.9014 47.0176 18.1372C46.6892 18.3729 46.5039 18.6339 46.445 18.9287Z" fill="#2A3C3C"/>
<path d="M34.3803 18.2887L33.774 18.1287L34.1193 15.1059H37.8241V15.8216H34.7676L34.5487 17.4046C34.8434 17.1857 35.2897 17.0762 35.8875 17.0762C36.5779 17.0762 37.1168 17.2615 37.5126 17.6235C37.8999 17.994 38.0936 18.4655 38.0936 19.0465C38.0936 19.6275 37.8746 20.1159 37.4452 20.4948C37.0074 20.8821 36.4601 21.0758 35.8117 21.0758C34.7087 21.0758 33.7909 20.5537 33.412 19.6359L34.0856 19.3497C34.3298 19.9138 34.9613 20.3601 35.8117 20.3601C36.78 20.3601 37.3189 19.8043 37.3189 19.0718C37.3189 18.2887 36.6874 17.7835 35.6854 17.7835C35.1465 17.7835 34.7087 17.9519 34.3803 18.2887ZM39.3137 16.8236L38.6822 16.5373C38.9937 15.628 39.8105 15.0301 41.0314 15.0301C41.6124 15.0301 42.0923 15.1649 42.4628 15.4343C42.8333 15.7038 43.0185 16.0658 43.0185 16.5121C43.0185 17.1941 42.6565 17.6993 41.9829 17.893C42.6312 17.9351 43.1533 18.4234 43.1533 19.2991C43.1533 19.8549 42.9512 20.2927 42.547 20.6043C42.1428 20.9158 41.6292 21.0758 40.9977 21.0758C39.7094 21.0758 38.8169 20.4611 38.5222 19.4928L39.2042 19.1981C39.5663 19.9643 40.181 20.3517 41.0482 20.3517C41.865 20.3517 42.3786 19.9727 42.3786 19.3076C42.3786 18.6592 41.8734 18.3308 40.863 18.3308H40.2062V17.632H40.7283C41.6461 17.632 42.2439 17.2194 42.2439 16.6552C42.2439 16.0742 41.7639 15.7459 40.9977 15.7459C40.0968 15.7459 39.5495 16.209 39.3137 16.8236ZM44.4094 21C44.0979 21.0337 43.8621 20.8569 43.8621 20.5537C43.8621 20.259 44.0474 20.0738 44.3758 20.0738C44.7462 20.0738 44.9904 20.3264 44.9904 20.7979C44.9904 21.6399 44.5273 22.0694 43.9126 22.2125L43.7358 21.8168C43.9211 21.7662 44.0895 21.6652 44.241 21.5052C44.3842 21.3452 44.4431 21.1768 44.4094 21ZM45.603 18.2129C45.603 17.1941 45.8556 16.411 46.3524 15.8553C46.8492 15.308 47.4722 15.0301 48.2216 15.0301C49.2068 15.0301 49.9814 15.4764 50.3098 16.1837L49.7373 16.571C49.392 16.0237 48.8784 15.7543 48.188 15.7543C47.6659 15.7543 47.2281 15.9564 46.8744 16.3605C46.5208 16.7731 46.344 17.3288 46.3524 18.0445C46.6808 17.4299 47.447 17.0594 48.289 17.0594C48.971 17.0594 49.5183 17.2362 49.9141 17.5983C50.3098 17.9603 50.5119 18.4403 50.5119 19.0297C50.5119 19.6275 50.293 20.1243 49.8467 20.5032C49.4005 20.8821 48.8447 21.0758 48.1795 21.0758C46.5881 21.0758 45.603 20.0401 45.603 18.2129ZM46.445 18.9287C46.605 19.7622 47.2365 20.3517 48.1711 20.3517C48.6258 20.3517 49.0047 20.2338 49.2994 19.9896C49.5941 19.7538 49.7373 19.4423 49.7373 19.0634C49.7373 18.2298 49.1479 17.7835 48.2469 17.7835C47.7501 17.7835 47.3375 17.9014 47.0176 18.1372C46.6892 18.3729 46.5039 18.6339 46.445 18.9287Z" fill="#1A3341"/>
<circle cx="70.165" cy="38.2597" r="4.21005" fill="#6D73F9" stroke="white" stroke-width="1.20287"/>
<path d="M62.6023 22.2887L61.9961 22.1287L62.3413 19.1059H66.0461V19.8216H62.9896L62.7707 21.4046C63.0654 21.1857 63.5117 21.0762 64.1095 21.0762C64.8 21.0762 65.3388 21.2615 65.7346 21.6235C66.1219 21.994 66.3156 22.4655 66.3156 23.0465C66.3156 23.6275 66.0967 24.1159 65.6672 24.4948C65.2294 24.8821 64.6821 25.0758 64.0337 25.0758C62.9307 25.0758 62.0129 24.5537 61.634 23.6359L62.3076 23.3497C62.5518 23.9138 63.1833 24.3601 64.0337 24.3601C65.002 24.3601 65.5409 23.8043 65.5409 23.0718C65.5409 22.2887 64.9094 21.7835 63.9074 21.7835C63.3685 21.7835 62.9307 21.9519 62.6023 22.2887ZM67.5357 20.8236L66.9042 20.5373C67.2157 19.628 68.0325 19.0301 69.2534 19.0301C69.8344 19.0301 70.3143 19.1649 70.6848 19.4343C71.0553 19.7038 71.2406 20.0658 71.2406 20.5121C71.2406 21.1941 70.8785 21.6993 70.2049 21.893C70.8532 21.9351 71.3753 22.4234 71.3753 23.2991C71.3753 23.8549 71.1732 24.2927 70.769 24.6043C70.3649 24.9158 69.8512 25.0758 69.2197 25.0758C67.9314 25.0758 67.0389 24.4611 66.7442 23.4928L67.4262 23.1981C67.7883 23.9643 68.403 24.3517 69.2702 24.3517C70.087 24.3517 70.6006 23.9727 70.6006 23.3076C70.6006 22.6592 70.0954 22.3308 69.085 22.3308H68.4282V21.632H68.9503C69.8681 21.632 70.4659 21.2194 70.4659 20.6552C70.4659 20.0742 69.986 19.7459 69.2197 19.7459C68.3188 19.7459 67.7715 20.209 67.5357 20.8236ZM72.6314 25C72.3199 25.0337 72.0841 24.8569 72.0841 24.5537C72.0841 24.259 72.2694 24.0738 72.5978 24.0738C72.9683 24.0738 73.2124 24.3264 73.2124 24.7979C73.2124 25.6399 72.7493 26.0694 72.1347 26.2125L71.9578 25.8168C72.1431 25.7662 72.3115 25.6652 72.463 25.5052C72.6062 25.3452 72.6651 25.1768 72.6314 25ZM74.4986 21.051L73.8839 20.832C74.0944 19.788 74.8859 19.0386 76.1405 19.0386C77.353 19.0386 78.094 19.7374 78.094 20.8068C78.094 21.3709 77.8498 21.9351 77.5467 22.3392C77.3951 22.5497 77.2015 22.7518 76.9741 22.9623C76.511 23.3749 76.1826 23.5938 75.7027 23.897L75.0543 24.3011H78.3129V25H73.724V24.4274L75.0038 23.577C75.2312 23.4339 75.3911 23.3244 75.4838 23.257C75.5764 23.1981 75.7279 23.0886 75.93 22.9455C76.1321 22.8024 76.2837 22.676 76.3847 22.5834C76.4773 22.4908 76.6036 22.3729 76.7468 22.2214C77.1341 21.8004 77.2772 21.413 77.3193 20.8826C77.3193 20.1163 76.8226 19.7711 76.09 19.7711C75.6353 19.7711 75.2733 19.8974 75.0122 20.15C74.7512 20.4026 74.5744 20.7057 74.4986 21.051Z" fill="#2A3C3C"/>
<path d="M62.6023 22.2887L61.9961 22.1287L62.3413 19.1059H66.0461V19.8216H62.9896L62.7707 21.4046C63.0654 21.1857 63.5117 21.0762 64.1095 21.0762C64.8 21.0762 65.3388 21.2615 65.7346 21.6235C66.1219 21.994 66.3156 22.4655 66.3156 23.0465C66.3156 23.6275 66.0967 24.1159 65.6672 24.4948C65.2294 24.8821 64.6821 25.0758 64.0337 25.0758C62.9307 25.0758 62.0129 24.5537 61.634 23.6359L62.3076 23.3497C62.5518 23.9138 63.1833 24.3601 64.0337 24.3601C65.002 24.3601 65.5409 23.8043 65.5409 23.0718C65.5409 22.2887 64.9094 21.7835 63.9074 21.7835C63.3685 21.7835 62.9307 21.9519 62.6023 22.2887ZM67.5357 20.8236L66.9042 20.5373C67.2157 19.628 68.0325 19.0301 69.2534 19.0301C69.8344 19.0301 70.3143 19.1649 70.6848 19.4343C71.0553 19.7038 71.2406 20.0658 71.2406 20.5121C71.2406 21.1941 70.8785 21.6993 70.2049 21.893C70.8532 21.9351 71.3753 22.4234 71.3753 23.2991C71.3753 23.8549 71.1732 24.2927 70.769 24.6043C70.3649 24.9158 69.8512 25.0758 69.2197 25.0758C67.9314 25.0758 67.0389 24.4611 66.7442 23.4928L67.4262 23.1981C67.7883 23.9643 68.403 24.3517 69.2702 24.3517C70.087 24.3517 70.6006 23.9727 70.6006 23.3076C70.6006 22.6592 70.0954 22.3308 69.085 22.3308H68.4282V21.632H68.9503C69.8681 21.632 70.4659 21.2194 70.4659 20.6552C70.4659 20.0742 69.986 19.7459 69.2197 19.7459C68.3188 19.7459 67.7715 20.209 67.5357 20.8236ZM72.6314 25C72.3199 25.0337 72.0841 24.8569 72.0841 24.5537C72.0841 24.259 72.2694 24.0738 72.5978 24.0738C72.9683 24.0738 73.2124 24.3264 73.2124 24.7979C73.2124 25.6399 72.7493 26.0694 72.1347 26.2125L71.9578 25.8168C72.1431 25.7662 72.3115 25.6652 72.463 25.5052C72.6062 25.3452 72.6651 25.1768 72.6314 25ZM74.4986 21.051L73.8839 20.832C74.0944 19.788 74.8859 19.0386 76.1405 19.0386C77.353 19.0386 78.094 19.7374 78.094 20.8068C78.094 21.3709 77.8498 21.9351 77.5467 22.3392C77.3951 22.5497 77.2015 22.7518 76.9741 22.9623C76.511 23.3749 76.1826 23.5938 75.7027 23.897L75.0543 24.3011H78.3129V25H73.724V24.4274L75.0038 23.577C75.2312 23.4339 75.3911 23.3244 75.4838 23.257C75.5764 23.1981 75.7279 23.0886 75.93 22.9455C76.1321 22.8024 76.2837 22.676 76.3847 22.5834C76.4773 22.4908 76.6036 22.3729 76.7468 22.2214C77.1341 21.8004 77.2772 21.413 77.3193 20.8826C77.3193 20.1163 76.8226 19.7711 76.09 19.7711C75.6353 19.7711 75.2733 19.8974 75.0122 20.15C74.7512 20.4026 74.5744 20.7057 74.4986 21.051Z" fill="#1A3341"/>
<circle cx="99.0341" cy="47.2812" r="4.21005" fill="#6D73F9" stroke="white" stroke-width="1.20287"/>
<path d="M91.4009 31.2887L90.7946 31.1287L91.1398 28.1059H94.8447V28.8216H91.7882L91.5693 30.4046C91.864 30.1857 92.3102 30.0762 92.9081 30.0762C93.5985 30.0762 94.1374 30.2615 94.5331 30.6235C94.9205 30.994 95.1141 31.4655 95.1141 32.0465C95.1141 32.6275 94.8952 33.1159 94.4658 33.4948C94.0279 33.8821 93.4806 34.0758 92.8323 34.0758C91.7292 34.0758 90.8114 33.5537 90.4325 32.6359L91.1061 32.3497C91.3503 32.9138 91.9818 33.3601 92.8323 33.3601C93.8006 33.3601 94.3395 32.8043 94.3395 32.0718C94.3395 31.2887 93.708 30.7835 92.706 30.7835C92.1671 30.7835 91.7292 30.9519 91.4009 31.2887ZM96.4269 30.051L95.8122 29.832C96.0227 28.788 96.8142 28.0386 98.0688 28.0386C99.2813 28.0386 100.022 28.7374 100.022 29.8068C100.022 30.3709 99.7781 30.9351 99.4749 31.3392C99.3234 31.5497 99.1297 31.7518 98.9024 31.9623C98.4393 32.3749 98.1109 32.5938 97.6309 32.897L96.9826 33.3011H100.241V34H95.6522V33.4274L96.9321 32.577C97.1594 32.4339 97.3194 32.3244 97.412 32.257C97.5046 32.1981 97.6562 32.0886 97.8583 31.9455C98.0604 31.8024 98.2119 31.676 98.313 31.5834C98.4056 31.4908 98.5319 31.3729 98.675 31.2214C99.0624 30.8004 99.2055 30.413 99.2476 29.8826C99.2476 29.1163 98.7508 28.7711 98.0183 28.7711C97.5636 28.7711 97.2015 28.8974 96.9405 29.15C96.6795 29.4026 96.5026 29.7057 96.4269 30.051ZM101.389 34C101.077 34.0337 100.842 33.8569 100.842 33.5537C100.842 33.259 101.027 33.0738 101.355 33.0738C101.726 33.0738 101.97 33.3264 101.97 33.7979C101.97 34.6399 101.507 35.0694 100.892 35.2125L100.715 34.8168C100.901 34.7662 101.069 34.6652 101.22 34.5052C101.364 34.3452 101.423 34.1768 101.389 34ZM102.582 31.2129C102.582 30.1941 102.835 29.411 103.332 28.8553C103.829 28.308 104.452 28.0301 105.201 28.0301C106.186 28.0301 106.961 28.4764 107.289 29.1837L106.717 29.571C106.371 29.0237 105.858 28.7543 105.167 28.7543C104.645 28.7543 104.208 28.9564 103.854 29.3605C103.5 29.7731 103.323 30.3288 103.332 31.0445C103.66 30.4299 104.426 30.0594 105.268 30.0594C105.95 30.0594 106.498 30.2362 106.894 30.5983C107.289 30.9603 107.491 31.4403 107.491 32.0297C107.491 32.6275 107.272 33.1243 106.826 33.5032C106.38 33.8821 105.824 34.0758 105.159 34.0758C103.568 34.0758 102.582 33.0401 102.582 31.2129ZM103.424 31.9287C103.584 32.7622 104.216 33.3517 105.151 33.3517C105.605 33.3517 105.984 33.2338 106.279 32.9896C106.574 32.7538 106.717 32.4423 106.717 32.0634C106.717 31.2298 106.127 30.7835 105.226 30.7835C104.73 30.7835 104.317 30.9014 103.997 31.1372C103.669 31.3729 103.483 31.6339 103.424 31.9287Z" fill="#2A3C3C"/>
<path d="M91.4009 31.2887L90.7946 31.1287L91.1398 28.1059H94.8447V28.8216H91.7882L91.5693 30.4046C91.864 30.1857 92.3102 30.0762 92.9081 30.0762C93.5985 30.0762 94.1374 30.2615 94.5331 30.6235C94.9205 30.994 95.1141 31.4655 95.1141 32.0465C95.1141 32.6275 94.8952 33.1159 94.4658 33.4948C94.0279 33.8821 93.4806 34.0758 92.8323 34.0758C91.7292 34.0758 90.8114 33.5537 90.4325 32.6359L91.1061 32.3497C91.3503 32.9138 91.9818 33.3601 92.8323 33.3601C93.8006 33.3601 94.3395 32.8043 94.3395 32.0718C94.3395 31.2887 93.708 30.7835 92.706 30.7835C92.1671 30.7835 91.7292 30.9519 91.4009 31.2887ZM96.4269 30.051L95.8122 29.832C96.0227 28.788 96.8142 28.0386 98.0688 28.0386C99.2813 28.0386 100.022 28.7374 100.022 29.8068C100.022 30.3709 99.7781 30.9351 99.4749 31.3392C99.3234 31.5497 99.1297 31.7518 98.9024 31.9623C98.4393 32.3749 98.1109 32.5938 97.6309 32.897L96.9826 33.3011H100.241V34H95.6522V33.4274L96.9321 32.577C97.1594 32.4339 97.3194 32.3244 97.412 32.257C97.5046 32.1981 97.6562 32.0886 97.8583 31.9455C98.0604 31.8024 98.2119 31.676 98.313 31.5834C98.4056 31.4908 98.5319 31.3729 98.675 31.2214C99.0624 30.8004 99.2055 30.413 99.2476 29.8826C99.2476 29.1163 98.7508 28.7711 98.0183 28.7711C97.5636 28.7711 97.2015 28.8974 96.9405 29.15C96.6795 29.4026 96.5026 29.7057 96.4269 30.051ZM101.389 34C101.077 34.0337 100.842 33.8569 100.842 33.5537C100.842 33.259 101.027 33.0738 101.355 33.0738C101.726 33.0738 101.97 33.3264 101.97 33.7979C101.97 34.6399 101.507 35.0694 100.892 35.2125L100.715 34.8168C100.901 34.7662 101.069 34.6652 101.22 34.5052C101.364 34.3452 101.423 34.1768 101.389 34ZM102.582 31.2129C102.582 30.1941 102.835 29.411 103.332 28.8553C103.829 28.308 104.452 28.0301 105.201 28.0301C106.186 28.0301 106.961 28.4764 107.289 29.1837L106.717 29.571C106.371 29.0237 105.858 28.7543 105.167 28.7543C104.645 28.7543 104.208 28.9564 103.854 29.3605C103.5 29.7731 103.323 30.3288 103.332 31.0445C103.66 30.4299 104.426 30.0594 105.268 30.0594C105.95 30.0594 106.498 30.2362 106.894 30.5983C107.289 30.9603 107.491 31.4403 107.491 32.0297C107.491 32.6275 107.272 33.1243 106.826 33.5032C106.38 33.8821 105.824 34.0758 105.159 34.0758C103.568 34.0758 102.582 33.0401 102.582 31.2129ZM103.424 31.9287C103.584 32.7622 104.216 33.3517 105.151 33.3517C105.605 33.3517 105.984 33.2338 106.279 32.9896C106.574 32.7538 106.717 32.4423 106.717 32.0634C106.717 31.2298 106.127 30.7835 105.226 30.7835C104.73 30.7835 104.317 30.9014 103.997 31.1372C103.669 31.3729 103.483 31.6339 103.424 31.9287Z" fill="#1A3341"/>
<circle cx="127.903" cy="34.0498" r="4.21005" fill="#6D73F9" stroke="white" stroke-width="1.20287"/>
<path d="M120.532 21.2887L119.926 21.1287L120.271 18.1059H123.976V18.8216H120.92L120.701 20.4046C120.996 20.1857 121.442 20.0762 122.04 20.0762C122.73 20.0762 123.269 20.2615 123.665 20.6235C124.052 20.994 124.246 21.4655 124.246 22.0465C124.246 22.6275 124.027 23.1159 123.597 23.4948C123.159 23.8821 122.612 24.0758 121.964 24.0758C120.861 24.0758 119.943 23.5537 119.564 22.6359L120.238 22.3497C120.482 22.9138 121.113 23.3601 121.964 23.3601C122.932 23.3601 123.471 22.8043 123.471 22.0718C123.471 21.2887 122.84 20.7835 121.838 20.7835C121.299 20.7835 120.861 20.9519 120.532 21.2887ZM125.466 19.8236L124.834 19.5373C125.146 18.628 125.963 18.0301 127.184 18.0301C127.765 18.0301 128.244 18.1649 128.615 18.4343C128.985 18.7038 129.171 19.0658 129.171 19.5121C129.171 20.1941 128.809 20.6993 128.135 20.893C128.783 20.9351 129.305 21.4234 129.305 22.2991C129.305 22.8549 129.103 23.2927 128.699 23.6043C128.295 23.9158 127.781 24.0758 127.15 24.0758C125.862 24.0758 124.969 23.4611 124.674 22.4928L125.356 22.1981C125.718 22.9643 126.333 23.3517 127.2 23.3517C128.017 23.3517 128.531 22.9727 128.531 22.3076C128.531 21.6592 128.026 21.3308 127.015 21.3308H126.358V20.632H126.88C127.798 20.632 128.396 20.2194 128.396 19.6552C128.396 19.0742 127.916 18.7459 127.15 18.7459C126.249 18.7459 125.702 19.209 125.466 19.8236ZM130.562 24C130.25 24.0337 130.014 23.8569 130.014 23.5537C130.014 23.259 130.199 23.0738 130.528 23.0738C130.898 23.0738 131.143 23.3264 131.143 23.7979C131.143 24.6399 130.679 25.0694 130.065 25.2125L129.888 24.8168C130.073 24.7662 130.242 24.6652 130.393 24.5052C130.536 24.3452 130.595 24.1768 130.562 24ZM132.614 21.2887L132.008 21.1287L132.353 18.1059H136.058V18.8216H133.001L132.782 20.4046C133.077 20.1857 133.523 20.0762 134.121 20.0762C134.812 20.0762 135.35 20.2615 135.746 20.6235C136.134 20.994 136.327 21.4655 136.327 22.0465C136.327 22.6275 136.108 23.1159 135.679 23.4948C135.241 23.8821 134.694 24.0758 134.045 24.0758C132.942 24.0758 132.025 23.5537 131.646 22.6359L132.319 22.3497C132.563 22.9138 133.195 23.3601 134.045 23.3601C135.014 23.3601 135.553 22.8043 135.553 22.0718C135.553 21.2887 134.921 20.7835 133.919 20.7835C133.38 20.7835 132.942 20.9519 132.614 21.2887Z" fill="#2A3C3C"/>
<path d="M120.532 21.2887L119.926 21.1287L120.271 18.1059H123.976V18.8216H120.92L120.701 20.4046C120.996 20.1857 121.442 20.0762 122.04 20.0762C122.73 20.0762 123.269 20.2615 123.665 20.6235C124.052 20.994 124.246 21.4655 124.246 22.0465C124.246 22.6275 124.027 23.1159 123.597 23.4948C123.159 23.8821 122.612 24.0758 121.964 24.0758C120.861 24.0758 119.943 23.5537 119.564 22.6359L120.238 22.3497C120.482 22.9138 121.113 23.3601 121.964 23.3601C122.932 23.3601 123.471 22.8043 123.471 22.0718C123.471 21.2887 122.84 20.7835 121.838 20.7835C121.299 20.7835 120.861 20.9519 120.532 21.2887ZM125.466 19.8236L124.834 19.5373C125.146 18.628 125.963 18.0301 127.184 18.0301C127.765 18.0301 128.244 18.1649 128.615 18.4343C128.985 18.7038 129.171 19.0658 129.171 19.5121C129.171 20.1941 128.809 20.6993 128.135 20.893C128.783 20.9351 129.305 21.4234 129.305 22.2991C129.305 22.8549 129.103 23.2927 128.699 23.6043C128.295 23.9158 127.781 24.0758 127.15 24.0758C125.862 24.0758 124.969 23.4611 124.674 22.4928L125.356 22.1981C125.718 22.9643 126.333 23.3517 127.2 23.3517C128.017 23.3517 128.531 22.9727 128.531 22.3076C128.531 21.6592 128.026 21.3308 127.015 21.3308H126.358V20.632H126.88C127.798 20.632 128.396 20.2194 128.396 19.6552C128.396 19.0742 127.916 18.7459 127.15 18.7459C126.249 18.7459 125.702 19.209 125.466 19.8236ZM130.562 24C130.25 24.0337 130.014 23.8569 130.014 23.5537C130.014 23.259 130.199 23.0738 130.528 23.0738C130.898 23.0738 131.143 23.3264 131.143 23.7979C131.143 24.6399 130.679 25.0694 130.065 25.2125L129.888 24.8168C130.073 24.7662 130.242 24.6652 130.393 24.5052C130.536 24.3452 130.595 24.1768 130.562 24ZM132.614 21.2887L132.008 21.1287L132.353 18.1059H136.058V18.8216H133.001L132.782 20.4046C133.077 20.1857 133.523 20.0762 134.121 20.0762C134.812 20.0762 135.35 20.2615 135.746 20.6235C136.134 20.994 136.327 21.4655 136.327 22.0465C136.327 22.6275 136.108 23.1159 135.679 23.4948C135.241 23.8821 134.694 24.0758 134.045 24.0758C132.942 24.0758 132.025 23.5537 131.646 22.6359L132.319 22.3497C132.563 22.9138 133.195 23.3601 134.045 23.3601C135.014 23.3601 135.553 22.8043 135.553 22.0718C135.553 21.2887 134.921 20.7835 133.919 20.7835C133.38 20.7835 132.942 20.9519 132.614 21.2887Z" fill="#1A3341"/>
<circle cx="156.772" cy="47.8828" r="4.21005" fill="#6D73F9" stroke="white" stroke-width="1.20287"/>
<path d="M149.401 32.2887L148.795 32.1287L149.14 29.1059H152.845V29.8216H149.788L149.569 31.4046C149.864 31.1857 150.31 31.0762 150.908 31.0762C151.598 31.0762 152.137 31.2615 152.533 31.6235C152.92 31.994 153.114 32.4655 153.114 33.0465C153.114 33.6275 152.895 34.1159 152.466 34.4948C152.028 34.8821 151.481 35.0758 150.832 35.0758C149.729 35.0758 148.811 34.5537 148.433 33.6359L149.106 33.3497C149.35 33.9138 149.982 34.3601 150.832 34.3601C151.801 34.3601 152.339 33.8043 152.339 33.0718C152.339 32.2887 151.708 31.7835 150.706 31.7835C150.167 31.7835 149.729 31.9519 149.401 32.2887ZM154.427 31.051L153.812 30.832C154.023 29.788 154.814 29.0386 156.069 29.0386C157.281 29.0386 158.022 29.7374 158.022 30.8068C158.022 31.3709 157.778 31.9351 157.475 32.3392C157.323 32.5497 157.13 32.7518 156.902 32.9623C156.439 33.3749 156.111 33.5938 155.631 33.897L154.983 34.3011H158.241V35H153.652V34.4274L154.932 33.577C155.159 33.4339 155.319 33.3244 155.412 33.257C155.505 33.1981 155.656 33.0886 155.858 32.9455C156.06 32.8024 156.212 32.676 156.313 32.5834C156.406 32.4908 156.532 32.3729 156.675 32.2214C157.062 31.8004 157.206 31.413 157.248 30.8826C157.248 30.1163 156.751 29.7711 156.018 29.7711C155.564 29.7711 155.202 29.8974 154.94 30.15C154.679 30.4026 154.503 30.7057 154.427 31.051ZM159.389 35C159.077 35.0337 158.842 34.8569 158.842 34.5537C158.842 34.259 159.027 34.0738 159.355 34.0738C159.726 34.0738 159.97 34.3264 159.97 34.7979C159.97 35.6399 159.507 36.0694 158.892 36.2125L158.715 35.8168C158.901 35.7662 159.069 35.6652 159.22 35.5052C159.364 35.3452 159.423 35.1768 159.389 35ZM160.582 32.2129C160.582 31.1941 160.835 30.411 161.332 29.8553C161.829 29.308 162.452 29.0301 163.201 29.0301C164.186 29.0301 164.961 29.4764 165.289 30.1837L164.717 30.571C164.371 30.0237 163.858 29.7543 163.167 29.7543C162.645 29.7543 162.208 29.9564 161.854 30.3605C161.5 30.7731 161.323 31.3288 161.332 32.0445C161.66 31.4299 162.426 31.0594 163.268 31.0594C163.95 31.0594 164.498 31.2362 164.894 31.5983C165.289 31.9603 165.491 32.4403 165.491 33.0297C165.491 33.6275 165.272 34.1243 164.826 34.5032C164.38 34.8821 163.824 35.0758 163.159 35.0758C161.568 35.0758 160.582 34.0401 160.582 32.2129ZM161.424 32.9287C161.584 33.7622 162.216 34.3517 163.151 34.3517C163.605 34.3517 163.984 34.2338 164.279 33.9896C164.574 33.7538 164.717 33.4423 164.717 33.0634C164.717 32.2298 164.127 31.7835 163.226 31.7835C162.73 31.7835 162.317 31.9014 161.997 32.1372C161.669 32.3729 161.483 32.6339 161.424 32.9287Z" fill="#2A3C3C"/>
<path d="M149.401 32.2887L148.795 32.1287L149.14 29.1059H152.845V29.8216H149.788L149.569 31.4046C149.864 31.1857 150.31 31.0762 150.908 31.0762C151.598 31.0762 152.137 31.2615 152.533 31.6235C152.92 31.994 153.114 32.4655 153.114 33.0465C153.114 33.6275 152.895 34.1159 152.466 34.4948C152.028 34.8821 151.481 35.0758 150.832 35.0758C149.729 35.0758 148.811 34.5537 148.433 33.6359L149.106 33.3497C149.35 33.9138 149.982 34.3601 150.832 34.3601C151.801 34.3601 152.339 33.8043 152.339 33.0718C152.339 32.2887 151.708 31.7835 150.706 31.7835C150.167 31.7835 149.729 31.9519 149.401 32.2887ZM154.427 31.051L153.812 30.832C154.023 29.788 154.814 29.0386 156.069 29.0386C157.281 29.0386 158.022 29.7374 158.022 30.8068C158.022 31.3709 157.778 31.9351 157.475 32.3392C157.323 32.5497 157.13 32.7518 156.902 32.9623C156.439 33.3749 156.111 33.5938 155.631 33.897L154.983 34.3011H158.241V35H153.652V34.4274L154.932 33.577C155.159 33.4339 155.319 33.3244 155.412 33.257C155.505 33.1981 155.656 33.0886 155.858 32.9455C156.06 32.8024 156.212 32.676 156.313 32.5834C156.406 32.4908 156.532 32.3729 156.675 32.2214C157.062 31.8004 157.206 31.413 157.248 30.8826C157.248 30.1163 156.751 29.7711 156.018 29.7711C155.564 29.7711 155.202 29.8974 154.94 30.15C154.679 30.4026 154.503 30.7057 154.427 31.051ZM159.389 35C159.077 35.0337 158.842 34.8569 158.842 34.5537C158.842 34.259 159.027 34.0738 159.355 34.0738C159.726 34.0738 159.97 34.3264 159.97 34.7979C159.97 35.6399 159.507 36.0694 158.892 36.2125L158.715 35.8168C158.901 35.7662 159.069 35.6652 159.22 35.5052C159.364 35.3452 159.423 35.1768 159.389 35ZM160.582 32.2129C160.582 31.1941 160.835 30.411 161.332 29.8553C161.829 29.308 162.452 29.0301 163.201 29.0301C164.186 29.0301 164.961 29.4764 165.289 30.1837L164.717 30.571C164.371 30.0237 163.858 29.7543 163.167 29.7543C162.645 29.7543 162.208 29.9564 161.854 30.3605C161.5 30.7731 161.323 31.3288 161.332 32.0445C161.66 31.4299 162.426 31.0594 163.268 31.0594C163.95 31.0594 164.498 31.2362 164.894 31.5983C165.289 31.9603 165.491 32.4403 165.491 33.0297C165.491 33.6275 165.272 34.1243 164.826 34.5032C164.38 34.8821 163.824 35.0758 163.159 35.0758C161.568 35.0758 160.582 34.0401 160.582 32.2129ZM161.424 32.9287C161.584 33.7622 162.216 34.3517 163.151 34.3517C163.605 34.3517 163.984 34.2338 164.279 33.9896C164.574 33.7538 164.717 33.4423 164.717 33.0634C164.717 32.2298 164.127 31.7835 163.226 31.7835C162.73 31.7835 162.317 31.9014 161.997 32.1372C161.669 32.3729 161.483 32.6339 161.424 32.9287Z" fill="#1A3341"/>
<circle cx="185.64" cy="54.499" r="4.21005" fill="#6D73F9" stroke="white" stroke-width="1.20287"/>
<path d="M179.54 38.2887L178.933 38.1287L179.279 35.1059H182.984V35.8216H179.927L179.708 37.4046C180.003 37.1857 180.449 37.0762 181.047 37.0762C181.737 37.0762 182.276 37.2615 182.672 37.6235C183.059 37.994 183.253 38.4655 183.253 39.0465C183.253 39.6275 183.034 40.1159 182.605 40.4948C182.167 40.8821 181.619 41.0758 180.971 41.0758C179.868 41.0758 178.95 40.5537 178.571 39.6359L179.245 39.3497C179.489 39.9138 180.121 40.3601 180.971 40.3601C181.939 40.3601 182.478 39.8043 182.478 39.0718C182.478 38.2887 181.847 37.7835 180.845 37.7835C180.306 37.7835 179.868 37.9519 179.54 38.2887ZM184.566 37.051L183.951 36.832C184.162 35.788 184.953 35.0386 186.208 35.0386C187.42 35.0386 188.161 35.7374 188.161 36.8068C188.161 37.3709 187.917 37.9351 187.614 38.3392C187.462 38.5497 187.269 38.7518 187.041 38.9623C186.578 39.3749 186.25 39.5938 185.77 39.897L185.121 40.3011H188.38V41H183.791V40.4274L185.071 39.577C185.298 39.4339 185.458 39.3244 185.551 39.257C185.643 39.1981 185.795 39.0886 185.997 38.9455C186.199 38.8024 186.351 38.676 186.452 38.5834C186.544 38.4908 186.671 38.3729 186.814 38.2214C187.201 37.8004 187.344 37.413 187.386 36.8826C187.386 36.1163 186.89 35.7711 186.157 35.7711C185.702 35.7711 185.34 35.8974 185.079 36.15C184.818 36.4026 184.642 36.7057 184.566 37.051ZM189.528 41C189.216 41.0337 188.98 40.8569 188.98 40.5537C188.98 40.259 189.166 40.0738 189.494 40.0738C189.865 40.0738 190.109 40.3264 190.109 40.7979C190.109 41.6399 189.646 42.0694 189.031 42.2125L188.854 41.8168C189.039 41.7662 189.208 41.6652 189.359 41.5052C189.502 41.3452 189.561 41.1768 189.528 41ZM190.654 36.6721L190.384 36.0406L192.405 35.0722H192.885V41H192.161V35.9732L190.654 36.6721Z" fill="#2A3C3C"/>
<path d="M179.54 38.2887L178.933 38.1287L179.279 35.1059H182.984V35.8216H179.927L179.708 37.4046C180.003 37.1857 180.449 37.0762 181.047 37.0762C181.737 37.0762 182.276 37.2615 182.672 37.6235C183.059 37.994 183.253 38.4655 183.253 39.0465C183.253 39.6275 183.034 40.1159 182.605 40.4948C182.167 40.8821 181.619 41.0758 180.971 41.0758C179.868 41.0758 178.95 40.5537 178.571 39.6359L179.245 39.3497C179.489 39.9138 180.121 40.3601 180.971 40.3601C181.939 40.3601 182.478 39.8043 182.478 39.0718C182.478 38.2887 181.847 37.7835 180.845 37.7835C180.306 37.7835 179.868 37.9519 179.54 38.2887ZM184.566 37.051L183.951 36.832C184.162 35.788 184.953 35.0386 186.208 35.0386C187.42 35.0386 188.161 35.7374 188.161 36.8068C188.161 37.3709 187.917 37.9351 187.614 38.3392C187.462 38.5497 187.269 38.7518 187.041 38.9623C186.578 39.3749 186.25 39.5938 185.77 39.897L185.121 40.3011H188.38V41H183.791V40.4274L185.071 39.577C185.298 39.4339 185.458 39.3244 185.551 39.257C185.643 39.1981 185.795 39.0886 185.997 38.9455C186.199 38.8024 186.351 38.676 186.452 38.5834C186.544 38.4908 186.671 38.3729 186.814 38.2214C187.201 37.8004 187.344 37.413 187.386 36.8826C187.386 36.1163 186.89 35.7711 186.157 35.7711C185.702 35.7711 185.34 35.8974 185.079 36.15C184.818 36.4026 184.642 36.7057 184.566 37.051ZM189.528 41C189.216 41.0337 188.98 40.8569 188.98 40.5537C188.98 40.259 189.166 40.0738 189.494 40.0738C189.865 40.0738 190.109 40.3264 190.109 40.7979C190.109 41.6399 189.646 42.0694 189.031 42.2125L188.854 41.8168C189.039 41.7662 189.208 41.6652 189.359 41.5052C189.502 41.3452 189.561 41.1768 189.528 41ZM190.654 36.6721L190.384 36.0406L192.405 35.0722H192.885V41H192.161V35.9732L190.654 36.6721Z" fill="#1A3341"/>
<circle cx="214.511" cy="43.0713" r="4.21005" fill="#6D73F9" stroke="white" stroke-width="1.20287"/>
<path d="M207.796 24.2887L207.189 24.1287L207.535 21.1059H211.239V21.8216H208.183L207.964 23.4046C208.259 23.1857 208.705 23.0762 209.303 23.0762C209.993 23.0762 210.532 23.2615 210.928 23.6235C211.315 23.994 211.509 24.4655 211.509 25.0465C211.509 25.6275 211.29 26.1159 210.86 26.4948C210.423 26.8821 209.875 27.0758 209.227 27.0758C208.124 27.0758 207.206 26.5537 206.827 25.6359L207.501 25.3497C207.745 25.9138 208.377 26.3601 209.227 26.3601C210.195 26.3601 210.734 25.8043 210.734 25.0718C210.734 24.2887 210.103 23.7835 209.101 23.7835C208.562 23.7835 208.124 23.9519 207.796 24.2887ZM212.822 23.051L212.207 22.832C212.417 21.788 213.209 21.0386 214.463 21.0386C215.676 21.0386 216.417 21.7374 216.417 22.8068C216.417 23.3709 216.173 23.9351 215.87 24.3392C215.718 24.5497 215.524 24.7518 215.297 24.9623C214.834 25.3749 214.506 25.5938 214.026 25.897L213.377 26.3011H216.636V27H212.047V26.4274L213.327 25.577C213.554 25.4339 213.714 25.3244 213.807 25.257C213.899 25.1981 214.051 25.0886 214.253 24.9455C214.455 24.8024 214.607 24.676 214.708 24.5834C214.8 24.4908 214.927 24.3729 215.07 24.2214C215.457 23.8004 215.6 23.413 215.642 22.8826C215.642 22.1163 215.146 21.7711 214.413 21.7711C213.958 21.7711 213.596 21.8974 213.335 22.15C213.074 22.4026 212.897 22.7057 212.822 23.051ZM217.784 27C217.472 27.0337 217.236 26.8569 217.236 26.5537C217.236 26.259 217.422 26.0738 217.75 26.0738C218.12 26.0738 218.365 26.3264 218.365 26.7979C218.365 27.6399 217.901 28.0694 217.287 28.2125L217.11 27.8168C217.295 27.7662 217.464 27.6652 217.615 27.5052C217.758 27.3452 217.817 27.1768 217.784 27ZM222.354 21.8216H218.783V21.1059H223.255V21.5859L220.324 27H219.524L222.354 21.8216Z" fill="#2A3C3C"/>
<path d="M207.796 24.2887L207.189 24.1287L207.535 21.1059H211.239V21.8216H208.183L207.964 23.4046C208.259 23.1857 208.705 23.0762 209.303 23.0762C209.993 23.0762 210.532 23.2615 210.928 23.6235C211.315 23.994 211.509 24.4655 211.509 25.0465C211.509 25.6275 211.29 26.1159 210.86 26.4948C210.423 26.8821 209.875 27.0758 209.227 27.0758C208.124 27.0758 207.206 26.5537 206.827 25.6359L207.501 25.3497C207.745 25.9138 208.377 26.3601 209.227 26.3601C210.195 26.3601 210.734 25.8043 210.734 25.0718C210.734 24.2887 210.103 23.7835 209.101 23.7835C208.562 23.7835 208.124 23.9519 207.796 24.2887ZM212.822 23.051L212.207 22.832C212.417 21.788 213.209 21.0386 214.463 21.0386C215.676 21.0386 216.417 21.7374 216.417 22.8068C216.417 23.3709 216.173 23.9351 215.87 24.3392C215.718 24.5497 215.524 24.7518 215.297 24.9623C214.834 25.3749 214.506 25.5938 214.026 25.897L213.377 26.3011H216.636V27H212.047V26.4274L213.327 25.577C213.554 25.4339 213.714 25.3244 213.807 25.257C213.899 25.1981 214.051 25.0886 214.253 24.9455C214.455 24.8024 214.607 24.676 214.708 24.5834C214.8 24.4908 214.927 24.3729 215.07 24.2214C215.457 23.8004 215.6 23.413 215.642 22.8826C215.642 22.1163 215.146 21.7711 214.413 21.7711C213.958 21.7711 213.596 21.8974 213.335 22.15C213.074 22.4026 212.897 22.7057 212.822 23.051ZM217.784 27C217.472 27.0337 217.236 26.8569 217.236 26.5537C217.236 26.259 217.422 26.0738 217.75 26.0738C218.12 26.0738 218.365 26.3264 218.365 26.7979C218.365 27.6399 217.901 28.0694 217.287 28.2125L217.11 27.8168C217.295 27.7662 217.464 27.6652 217.615 27.5052C217.758 27.3452 217.817 27.1768 217.784 27ZM222.354 21.8216H218.783V21.1059H223.255V21.5859L220.324 27H219.524L222.354 21.8216Z" fill="#1A3341"/>
<circle cx="243.378" cy="20.8183" r="4.21005" fill="#6D73F9" stroke="white" stroke-width="1.20287"/>
<path d="M235.302 7.28872L234.696 7.12874L235.041 4.10592H238.746V4.82163H235.69L235.471 6.40461C235.765 6.18569 236.212 6.07623 236.809 6.07623C237.5 6.07623 238.039 6.26147 238.434 6.62354C238.822 6.99402 239.015 7.46555 239.015 8.04653C239.015 8.62752 238.797 9.11589 238.367 9.49479C237.929 9.88212 237.382 10.0758 236.734 10.0758C235.631 10.0758 234.713 9.55373 234.334 8.63594L235.007 8.34966C235.252 8.91381 235.883 9.36007 236.734 9.36007C237.702 9.36007 238.241 8.80434 238.241 8.07179C238.241 7.28872 237.609 6.78352 236.607 6.78352C236.068 6.78352 235.631 6.95192 235.302 7.28872ZM243.721 10H242.989V8.79592H239.385V8.30756L243.073 4.10592H243.721V8.1139H244.816V8.79592H243.721V10ZM242.989 5.28474L240.396 8.1139H242.989V5.28474ZM245.792 10C245.48 10.0337 245.244 9.85686 245.244 9.55373C245.244 9.25903 245.43 9.07379 245.758 9.07379C246.129 9.07379 246.373 9.32639 246.373 9.79792C246.373 10.6399 245.91 11.0694 245.295 11.2125L245.118 10.8168C245.303 10.7662 245.472 10.6652 245.623 10.5052C245.767 10.3452 245.825 10.1768 245.792 10ZM247.844 7.28872L247.238 7.12874L247.583 4.10592H251.288V4.82163H248.232L248.013 6.40461C248.307 6.18569 248.754 6.07623 249.351 6.07623C250.042 6.07623 250.581 6.26147 250.976 6.62354C251.364 6.99402 251.557 7.46555 251.557 8.04653C251.557 8.62752 251.339 9.11589 250.909 9.49479C250.471 9.88212 249.924 10.0758 249.276 10.0758C248.173 10.0758 247.255 9.55373 246.876 8.63594L247.549 8.34966C247.794 8.91381 248.425 9.36007 249.276 9.36007C250.244 9.36007 250.783 8.80434 250.783 8.07179C250.783 7.28872 250.151 6.78352 249.149 6.78352C248.61 6.78352 248.173 6.95192 247.844 7.28872Z" fill="#2A3C3C"/>
<path d="M235.302 7.28872L234.696 7.12874L235.041 4.10592H238.746V4.82163H235.69L235.471 6.40461C235.765 6.18569 236.212 6.07623 236.809 6.07623C237.5 6.07623 238.039 6.26147 238.434 6.62354C238.822 6.99402 239.015 7.46555 239.015 8.04653C239.015 8.62752 238.797 9.11589 238.367 9.49479C237.929 9.88212 237.382 10.0758 236.734 10.0758C235.631 10.0758 234.713 9.55373 234.334 8.63594L235.007 8.34966C235.252 8.91381 235.883 9.36007 236.734 9.36007C237.702 9.36007 238.241 8.80434 238.241 8.07179C238.241 7.28872 237.609 6.78352 236.607 6.78352C236.068 6.78352 235.631 6.95192 235.302 7.28872ZM243.721 10H242.989V8.79592H239.385V8.30756L243.073 4.10592H243.721V8.1139H244.816V8.79592H243.721V10ZM242.989 5.28474L240.396 8.1139H242.989V5.28474ZM245.792 10C245.48 10.0337 245.244 9.85686 245.244 9.55373C245.244 9.25903 245.43 9.07379 245.758 9.07379C246.129 9.07379 246.373 9.32639 246.373 9.79792C246.373 10.6399 245.91 11.0694 245.295 11.2125L245.118 10.8168C245.303 10.7662 245.472 10.6652 245.623 10.5052C245.767 10.3452 245.825 10.1768 245.792 10ZM247.844 7.28872L247.238 7.12874L247.583 4.10592H251.288V4.82163H248.232L248.013 6.40461C248.307 6.18569 248.754 6.07623 249.351 6.07623C250.042 6.07623 250.581 6.26147 250.976 6.62354C251.364 6.99402 251.557 7.46555 251.557 8.04653C251.557 8.62752 251.339 9.11589 250.909 9.49479C250.471 9.88212 249.924 10.0758 249.276 10.0758C248.173 10.0758 247.255 9.55373 246.876 8.63594L247.549 8.34966C247.794 8.91381 248.425 9.36007 249.276 9.36007C250.244 9.36007 250.783 8.80434 250.783 8.07179C250.783 7.28872 250.151 6.78352 249.149 6.78352C248.61 6.78352 248.173 6.95192 247.844 7.28872Z" fill="#1A3341"/>
<circle cx="272.249" cy="30.4404" r="4.21005" fill="#6D73F9" stroke="white" stroke-width="1.20287"/>
<path d="M264.372 16.2887L263.766 16.1287L264.111 13.1059H267.816V13.8216H264.759L264.54 15.4046C264.835 15.1857 265.281 15.0762 265.879 15.0762C266.57 15.0762 267.109 15.2615 267.504 15.6235C267.892 15.994 268.085 16.4655 268.085 17.0465C268.085 17.6275 267.866 18.1159 267.437 18.4948C266.999 18.8821 266.452 19.0758 265.803 19.0758C264.7 19.0758 263.783 18.5537 263.404 17.6359L264.077 17.3497C264.322 17.9138 264.953 18.3601 265.803 18.3601C266.772 18.3601 267.311 17.8043 267.311 17.0718C267.311 16.2887 266.679 15.7835 265.677 15.7835C265.138 15.7835 264.7 15.9519 264.372 16.2887ZM269.305 14.8236L268.674 14.5373C268.986 13.628 269.802 13.0301 271.023 13.0301C271.604 13.0301 272.084 13.1649 272.455 13.4343C272.825 13.7038 273.01 14.0658 273.01 14.5121C273.01 15.1941 272.648 15.6993 271.975 15.893C272.623 15.9351 273.145 16.4234 273.145 17.2991C273.145 17.8549 272.943 18.2927 272.539 18.6043C272.135 18.9158 271.621 19.0758 270.989 19.0758C269.701 19.0758 268.809 18.4611 268.514 17.4928L269.196 17.1981C269.558 17.9643 270.173 18.3517 271.04 18.3517C271.857 18.3517 272.37 17.9727 272.37 17.3076C272.37 16.6592 271.865 16.3308 270.855 16.3308H270.198V15.632H270.72C271.638 15.632 272.236 15.2194 272.236 14.6552C272.236 14.0742 271.756 13.7459 270.989 13.7459C270.089 13.7459 269.541 14.209 269.305 14.8236ZM274.401 19C274.09 19.0337 273.854 18.8569 273.854 18.5537C273.854 18.259 274.039 18.0738 274.368 18.0738C274.738 18.0738 274.982 18.3264 274.982 18.7979C274.982 19.6399 274.519 20.0694 273.904 20.2125L273.728 19.8168C273.913 19.7662 274.081 19.6652 274.233 19.5052C274.376 19.3452 274.435 19.1768 274.401 19ZM277.919 15.6404H278.18C278.559 15.6404 278.87 15.5478 279.131 15.3709C279.384 15.1941 279.51 14.9583 279.51 14.6805C279.51 14.049 279.013 13.729 278.028 13.729C277.085 13.729 276.571 14.0742 276.571 14.6805C276.571 15.2278 277.136 15.6404 277.919 15.6404ZM278.163 16.3056H277.952C277.498 16.3056 277.119 16.4066 276.824 16.6003C276.529 16.7939 276.378 17.0381 276.378 17.3328C276.378 17.9727 276.967 18.3769 278.037 18.3769C279.123 18.3769 279.704 17.9896 279.704 17.3412C279.704 16.6929 279.081 16.3056 278.163 16.3056ZM279.822 18.6211C279.392 18.9242 278.794 19.0758 278.045 19.0758C277.296 19.0758 276.698 18.9242 276.26 18.6295C275.822 18.3348 275.603 17.9306 275.603 17.4086C275.603 16.7266 276.049 16.1877 276.765 15.9519C276.117 15.7414 275.797 15.2278 275.797 14.63C275.797 13.6532 276.622 13.0301 278.037 13.0301C279.46 13.0301 280.285 13.6532 280.285 14.63C280.285 15.1941 279.973 15.6235 279.35 15.9098C280.1 16.1372 280.47 16.6255 280.47 17.3749C280.47 17.9054 280.251 18.3264 279.822 18.6211Z" fill="#2A3C3C"/>
<path d="M264.372 16.2887L263.766 16.1287L264.111 13.1059H267.816V13.8216H264.759L264.54 15.4046C264.835 15.1857 265.281 15.0762 265.879 15.0762C266.57 15.0762 267.109 15.2615 267.504 15.6235C267.892 15.994 268.085 16.4655 268.085 17.0465C268.085 17.6275 267.866 18.1159 267.437 18.4948C266.999 18.8821 266.452 19.0758 265.803 19.0758C264.7 19.0758 263.783 18.5537 263.404 17.6359L264.077 17.3497C264.322 17.9138 264.953 18.3601 265.803 18.3601C266.772 18.3601 267.311 17.8043 267.311 17.0718C267.311 16.2887 266.679 15.7835 265.677 15.7835C265.138 15.7835 264.7 15.9519 264.372 16.2887ZM269.305 14.8236L268.674 14.5373C268.986 13.628 269.802 13.0301 271.023 13.0301C271.604 13.0301 272.084 13.1649 272.455 13.4343C272.825 13.7038 273.01 14.0658 273.01 14.5121C273.01 15.1941 272.648 15.6993 271.975 15.893C272.623 15.9351 273.145 16.4234 273.145 17.2991C273.145 17.8549 272.943 18.2927 272.539 18.6043C272.135 18.9158 271.621 19.0758 270.989 19.0758C269.701 19.0758 268.809 18.4611 268.514 17.4928L269.196 17.1981C269.558 17.9643 270.173 18.3517 271.04 18.3517C271.857 18.3517 272.37 17.9727 272.37 17.3076C272.37 16.6592 271.865 16.3308 270.855 16.3308H270.198V15.632H270.72C271.638 15.632 272.236 15.2194 272.236 14.6552C272.236 14.0742 271.756 13.7459 270.989 13.7459C270.089 13.7459 269.541 14.209 269.305 14.8236ZM274.401 19C274.09 19.0337 273.854 18.8569 273.854 18.5537C273.854 18.259 274.039 18.0738 274.368 18.0738C274.738 18.0738 274.982 18.3264 274.982 18.7979C274.982 19.6399 274.519 20.0694 273.904 20.2125L273.728 19.8168C273.913 19.7662 274.081 19.6652 274.233 19.5052C274.376 19.3452 274.435 19.1768 274.401 19ZM277.919 15.6404H278.18C278.559 15.6404 278.87 15.5478 279.131 15.3709C279.384 15.1941 279.51 14.9583 279.51 14.6805C279.51 14.049 279.013 13.729 278.028 13.729C277.085 13.729 276.571 14.0742 276.571 14.6805C276.571 15.2278 277.136 15.6404 277.919 15.6404ZM278.163 16.3056H277.952C277.498 16.3056 277.119 16.4066 276.824 16.6003C276.529 16.7939 276.378 17.0381 276.378 17.3328C276.378 17.9727 276.967 18.3769 278.037 18.3769C279.123 18.3769 279.704 17.9896 279.704 17.3412C279.704 16.6929 279.081 16.3056 278.163 16.3056ZM279.822 18.6211C279.392 18.9242 278.794 19.0758 278.045 19.0758C277.296 19.0758 276.698 18.9242 276.26 18.6295C275.822 18.3348 275.603 17.9306 275.603 17.4086C275.603 16.7266 276.049 16.1877 276.765 15.9519C276.117 15.7414 275.797 15.2278 275.797 14.63C275.797 13.6532 276.622 13.0301 278.037 13.0301C279.46 13.0301 280.285 13.6532 280.285 14.63C280.285 15.1941 279.973 15.6235 279.35 15.9098C280.1 16.1372 280.47 16.6255 280.47 17.3749C280.47 17.9054 280.251 18.3264 279.822 18.6211Z" fill="#1A3341"/>
<circle cx="300.515" cy="30.4404" r="4.21005" fill="#6D73F9" stroke="white" stroke-width="1.20287"/>
<path d="M292.372 16.2887L291.766 16.1287L292.111 13.1059H295.816V13.8216H292.759L292.54 15.4046C292.835 15.1857 293.281 15.0762 293.879 15.0762C294.57 15.0762 295.109 15.2615 295.504 15.6235C295.892 15.994 296.085 16.4655 296.085 17.0465C296.085 17.6275 295.866 18.1159 295.437 18.4948C294.999 18.8821 294.452 19.0758 293.803 19.0758C292.7 19.0758 291.783 18.5537 291.404 17.6359L292.077 17.3497C292.322 17.9138 292.953 18.3601 293.803 18.3601C294.772 18.3601 295.311 17.8043 295.311 17.0718C295.311 16.2887 294.679 15.7835 293.677 15.7835C293.138 15.7835 292.7 15.9519 292.372 16.2887ZM297.305 14.8236L296.674 14.5373C296.986 13.628 297.802 13.0301 299.023 13.0301C299.604 13.0301 300.084 13.1649 300.455 13.4343C300.825 13.7038 301.01 14.0658 301.01 14.5121C301.01 15.1941 300.648 15.6993 299.975 15.893C300.623 15.9351 301.145 16.4234 301.145 17.2991C301.145 17.8549 300.943 18.2927 300.539 18.6043C300.135 18.9158 299.621 19.0758 298.989 19.0758C297.701 19.0758 296.809 18.4611 296.514 17.4928L297.196 17.1981C297.558 17.9643 298.173 18.3517 299.04 18.3517C299.857 18.3517 300.37 17.9727 300.37 17.3076C300.37 16.6592 299.865 16.3308 298.855 16.3308H298.198V15.632H298.72C299.638 15.632 300.236 15.2194 300.236 14.6552C300.236 14.0742 299.756 13.7459 298.989 13.7459C298.089 13.7459 297.541 14.209 297.305 14.8236ZM302.401 19C302.09 19.0337 301.854 18.8569 301.854 18.5537C301.854 18.259 302.039 18.0738 302.368 18.0738C302.738 18.0738 302.982 18.3264 302.982 18.7979C302.982 19.6399 302.519 20.0694 301.904 20.2125L301.728 19.8168C301.913 19.7662 302.081 19.6652 302.233 19.5052C302.376 19.3452 302.435 19.1768 302.401 19ZM305.919 15.6404H306.18C306.559 15.6404 306.87 15.5478 307.131 15.3709C307.384 15.1941 307.51 14.9583 307.51 14.6805C307.51 14.049 307.013 13.729 306.028 13.729C305.085 13.729 304.571 14.0742 304.571 14.6805C304.571 15.2278 305.136 15.6404 305.919 15.6404ZM306.163 16.3056H305.952C305.498 16.3056 305.119 16.4066 304.824 16.6003C304.529 16.7939 304.378 17.0381 304.378 17.3328C304.378 17.9727 304.967 18.3769 306.037 18.3769C307.123 18.3769 307.704 17.9896 307.704 17.3412C307.704 16.6929 307.081 16.3056 306.163 16.3056ZM307.822 18.6211C307.392 18.9242 306.794 19.0758 306.045 19.0758C305.296 19.0758 304.698 18.9242 304.26 18.6295C303.822 18.3348 303.603 17.9306 303.603 17.4086C303.603 16.7266 304.049 16.1877 304.765 15.9519C304.117 15.7414 303.797 15.2278 303.797 14.63C303.797 13.6532 304.622 13.0301 306.037 13.0301C307.46 13.0301 308.285 13.6532 308.285 14.63C308.285 15.1941 307.973 15.6235 307.35 15.9098C308.1 16.1372 308.47 16.6255 308.47 17.3749C308.47 17.9054 308.251 18.3264 307.822 18.6211Z" fill="#2A3C3C"/>
<path d="M292.372 16.2887L291.766 16.1287L292.111 13.1059H295.816V13.8216H292.759L292.54 15.4046C292.835 15.1857 293.281 15.0762 293.879 15.0762C294.57 15.0762 295.109 15.2615 295.504 15.6235C295.892 15.994 296.085 16.4655 296.085 17.0465C296.085 17.6275 295.866 18.1159 295.437 18.4948C294.999 18.8821 294.452 19.0758 293.803 19.0758C292.7 19.0758 291.783 18.5537 291.404 17.6359L292.077 17.3497C292.322 17.9138 292.953 18.3601 293.803 18.3601C294.772 18.3601 295.311 17.8043 295.311 17.0718C295.311 16.2887 294.679 15.7835 293.677 15.7835C293.138 15.7835 292.7 15.9519 292.372 16.2887ZM297.305 14.8236L296.674 14.5373C296.986 13.628 297.802 13.0301 299.023 13.0301C299.604 13.0301 300.084 13.1649 300.455 13.4343C300.825 13.7038 301.01 14.0658 301.01 14.5121C301.01 15.1941 300.648 15.6993 299.975 15.893C300.623 15.9351 301.145 16.4234 301.145 17.2991C301.145 17.8549 300.943 18.2927 300.539 18.6043C300.135 18.9158 299.621 19.0758 298.989 19.0758C297.701 19.0758 296.809 18.4611 296.514 17.4928L297.196 17.1981C297.558 17.9643 298.173 18.3517 299.04 18.3517C299.857 18.3517 300.37 17.9727 300.37 17.3076C300.37 16.6592 299.865 16.3308 298.855 16.3308H298.198V15.632H298.72C299.638 15.632 300.236 15.2194 300.236 14.6552C300.236 14.0742 299.756 13.7459 298.989 13.7459C298.089 13.7459 297.541 14.209 297.305 14.8236ZM302.401 19C302.09 19.0337 301.854 18.8569 301.854 18.5537C301.854 18.259 302.039 18.0738 302.368 18.0738C302.738 18.0738 302.982 18.3264 302.982 18.7979C302.982 19.6399 302.519 20.0694 301.904 20.2125L301.728 19.8168C301.913 19.7662 302.081 19.6652 302.233 19.5052C302.376 19.3452 302.435 19.1768 302.401 19ZM305.919 15.6404H306.18C306.559 15.6404 306.87 15.5478 307.131 15.3709C307.384 15.1941 307.51 14.9583 307.51 14.6805C307.51 14.049 307.013 13.729 306.028 13.729C305.085 13.729 304.571 14.0742 304.571 14.6805C304.571 15.2278 305.136 15.6404 305.919 15.6404ZM306.163 16.3056H305.952C305.498 16.3056 305.119 16.4066 304.824 16.6003C304.529 16.7939 304.378 17.0381 304.378 17.3328C304.378 17.9727 304.967 18.3769 306.037 18.3769C307.123 18.3769 307.704 17.9896 307.704 17.3412C307.704 16.6929 307.081 16.3056 306.163 16.3056ZM307.822 18.6211C307.392 18.9242 306.794 19.0758 306.045 19.0758C305.296 19.0758 304.698 18.9242 304.26 18.6295C303.822 18.3348 303.603 17.9306 303.603 17.4086C303.603 16.7266 304.049 16.1877 304.765 15.9519C304.117 15.7414 303.797 15.2278 303.797 14.63C303.797 13.6532 304.622 13.0301 306.037 13.0301C307.46 13.0301 308.285 13.6532 308.285 14.63C308.285 15.1941 307.973 15.6235 307.35 15.9098C308.1 16.1372 308.47 16.6255 308.47 17.3749C308.47 17.9054 308.251 18.3264 307.822 18.6211Z" fill="#1A3341"/>
<circle cx="326.384" cy="17.8115" r="4.21005" fill="#6D73F9" stroke="white" stroke-width="1.20287"/>
<path d="M317.15 5.28872L316.544 5.12874L316.889 2.10592H320.594V2.82163H317.537L317.318 4.40461C317.613 4.18569 318.059 4.07623 318.657 4.07623C319.348 4.07623 319.887 4.26147 320.282 4.62354C320.67 4.99402 320.863 5.46555 320.863 6.04653C320.863 6.62752 320.644 7.11589 320.215 7.49479C319.777 7.88212 319.23 8.07578 318.581 8.07578C317.478 8.07578 316.561 7.55373 316.182 6.63594L316.855 6.34966C317.1 6.91381 317.731 7.36007 318.581 7.36007C319.55 7.36007 320.089 6.80434 320.089 6.07179C320.089 5.28872 319.457 4.78352 318.455 4.78352C317.916 4.78352 317.478 4.95192 317.15 5.28872ZM325.569 8H324.837V6.79592H321.233V6.30756L324.921 2.10592H325.569V6.1139H326.664V6.79592H325.569V8ZM324.837 3.28474L322.243 6.1139H324.837V3.28474ZM327.64 8C327.328 8.03368 327.092 7.85686 327.092 7.55373C327.092 7.25903 327.278 7.07379 327.606 7.07379C327.976 7.07379 328.221 7.32639 328.221 7.79792C328.221 8.63993 327.758 9.06935 327.143 9.2125L326.966 8.81675C327.151 8.76623 327.32 8.66519 327.471 8.50521C327.614 8.34522 327.673 8.17682 327.64 8ZM328.833 5.21294C328.833 4.19411 329.086 3.41104 329.583 2.85531C330.079 2.30801 330.702 2.03014 331.452 2.03014C332.437 2.03014 333.212 2.47641 333.54 3.1837L332.967 3.57102C332.622 3.02372 332.109 2.75427 331.418 2.75427C330.896 2.75427 330.458 2.95635 330.105 3.36052C329.751 3.77311 329.574 4.32883 329.583 5.04454C329.911 4.42987 330.677 4.05939 331.519 4.05939C332.201 4.05939 332.749 4.23621 333.144 4.59828C333.54 4.96034 333.742 5.44029 333.742 6.02969C333.742 6.62752 333.523 7.12431 333.077 7.50321C332.631 7.88212 332.075 8.07578 331.41 8.07578C329.818 8.07578 328.833 7.04011 328.833 5.21294ZM329.675 5.92865C329.835 6.76224 330.467 7.35165 331.401 7.35165C331.856 7.35165 332.235 7.23377 332.53 6.98959C332.824 6.75382 332.967 6.44228 332.967 6.06337C332.967 5.22978 332.378 4.78352 331.477 4.78352C330.98 4.78352 330.568 4.9014 330.248 5.13716C329.919 5.37293 329.734 5.63395 329.675 5.92865Z" fill="#2A3C3C"/>
<path d="M317.15 5.28872L316.544 5.12874L316.889 2.10592H320.594V2.82163H317.537L317.318 4.40461C317.613 4.18569 318.059 4.07623 318.657 4.07623C319.348 4.07623 319.887 4.26147 320.282 4.62354C320.67 4.99402 320.863 5.46555 320.863 6.04653C320.863 6.62752 320.644 7.11589 320.215 7.49479C319.777 7.88212 319.23 8.07578 318.581 8.07578C317.478 8.07578 316.561 7.55373 316.182 6.63594L316.855 6.34966C317.1 6.91381 317.731 7.36007 318.581 7.36007C319.55 7.36007 320.089 6.80434 320.089 6.07179C320.089 5.28872 319.457 4.78352 318.455 4.78352C317.916 4.78352 317.478 4.95192 317.15 5.28872ZM325.569 8H324.837V6.79592H321.233V6.30756L324.921 2.10592H325.569V6.1139H326.664V6.79592H325.569V8ZM324.837 3.28474L322.243 6.1139H324.837V3.28474ZM327.64 8C327.328 8.03368 327.092 7.85686 327.092 7.55373C327.092 7.25903 327.278 7.07379 327.606 7.07379C327.976 7.07379 328.221 7.32639 328.221 7.79792C328.221 8.63993 327.758 9.06935 327.143 9.2125L326.966 8.81675C327.151 8.76623 327.32 8.66519 327.471 8.50521C327.614 8.34522 327.673 8.17682 327.64 8ZM328.833 5.21294C328.833 4.19411 329.086 3.41104 329.583 2.85531C330.079 2.30801 330.702 2.03014 331.452 2.03014C332.437 2.03014 333.212 2.47641 333.54 3.1837L332.967 3.57102C332.622 3.02372 332.109 2.75427 331.418 2.75427C330.896 2.75427 330.458 2.95635 330.105 3.36052C329.751 3.77311 329.574 4.32883 329.583 5.04454C329.911 4.42987 330.677 4.05939 331.519 4.05939C332.201 4.05939 332.749 4.23621 333.144 4.59828C333.54 4.96034 333.742 5.44029 333.742 6.02969C333.742 6.62752 333.523 7.12431 333.077 7.50321C332.631 7.88212 332.075 8.07578 331.41 8.07578C329.818 8.07578 328.833 7.04011 328.833 5.21294ZM329.675 5.92865C329.835 6.76224 330.467 7.35165 331.401 7.35165C331.856 7.35165 332.235 7.23377 332.53 6.98959C332.824 6.75382 332.967 6.44228 332.967 6.06337C332.967 5.22978 332.378 4.78352 331.477 4.78352C330.98 4.78352 330.568 4.9014 330.248 5.13716C329.919 5.37293 329.734 5.63395 329.675 5.92865Z" fill="#1A3341"/>
<defs>
<linearGradient id="paint0_linear_4001_19850" x1="170" y1="18" x2="170" y2="143" gradientUnits="userSpaceOnUse">
<stop offset="0" stop-color="#6D73F9"/>
<stop offset="1" stop-color="white"/>
</linearGradient>
</defs>
</svg>
