<svg width="335" height="721" viewBox="0 0 335 721" fill="none" xmlns="http://www.w3.org/2000/svg">
<rect y="2" width="10" height="10" fill="url(#paint0_linear_7006_19193)"/>
<path d="M19.98 7.904V11H18.888V2.6H22.152C24.444 2.6 25.596 3.476 25.596 5.24C25.596 5.996 25.32 6.632 24.768 7.136C24.204 7.652 23.328 7.904 22.14 7.904H19.98ZM22.2 3.62H19.98V6.896H22.116C23.7 6.896 24.468 6.272 24.468 5.228C24.468 4.16 23.712 3.62 22.2 3.62ZM25.5999 7.868C25.5999 6.92 25.9119 6.14 26.5239 5.528C27.1359 4.916 27.9279 4.616 28.8999 4.616C29.8839 4.616 30.6879 4.916 31.2999 5.528C31.9119 6.14 32.2239 6.92 32.2239 7.868C32.2239 8.816 31.9119 9.584 31.2999 10.196C30.6759 10.808 29.8719 11.108 28.8999 11.108C27.9279 11.108 27.1359 10.808 26.5239 10.196C25.9119 9.584 25.5999 8.816 25.5999 7.868ZM26.6679 7.868C26.6679 8.528 26.8719 9.08 27.2919 9.512C27.7119 9.944 28.2399 10.16 28.8999 10.16C29.5599 10.16 30.1119 9.944 30.5319 9.524C30.9519 9.104 31.1559 8.552 31.1559 7.868C31.1559 7.184 30.9399 6.632 30.5199 6.2C30.0879 5.78 29.5479 5.564 28.8999 5.564C28.2519 5.564 27.7239 5.78 27.3039 6.2C26.8839 6.62 26.6679 7.184 26.6679 7.868ZM38.0585 9.2L38.7785 9.716C38.3105 10.592 37.2545 11.108 36.2105 11.108C35.2145 11.108 34.4105 10.808 33.7985 10.22C33.1865 9.632 32.8745 8.852 32.8745 7.868C32.8745 6.932 33.1745 6.152 33.7865 5.54C34.3985 4.928 35.1785 4.616 36.1505 4.616C37.2665 4.616 38.2625 5.12 38.6825 5.888L37.9025 6.416C37.4825 5.852 36.9065 5.564 36.1745 5.564C35.5265 5.564 34.9985 5.78 34.5785 6.212C34.1585 6.644 33.9425 7.196 33.9425 7.868C33.9425 8.552 34.1585 9.104 34.6025 9.524C35.0345 9.944 35.5985 10.16 36.3065 10.16C37.0505 10.16 37.6385 9.836 38.0585 9.2ZM43.9853 9.2L44.7053 9.716C44.2373 10.592 43.1813 11.108 42.1373 11.108C41.1413 11.108 40.3373 10.808 39.7253 10.22C39.1133 9.632 38.8013 8.852 38.8013 7.868C38.8013 6.932 39.1013 6.152 39.7133 5.54C40.3253 4.928 41.1053 4.616 42.0773 4.616C43.1933 4.616 44.1893 5.12 44.6093 5.888L43.8293 6.416C43.4093 5.852 42.8333 5.564 42.1013 5.564C41.4533 5.564 40.9253 5.78 40.5053 6.212C40.0853 6.644 39.8693 7.196 39.8693 7.868C39.8693 8.552 40.0853 9.104 40.5293 9.524C40.9613 9.944 41.5253 10.16 42.2333 10.16C42.9773 10.16 43.5653 9.836 43.9853 9.2ZM50.1441 6.332L46.3401 11H45.4161V4.76H46.4241V9.44L50.2161 4.76H51.1521V11H50.1441V6.332ZM54.9754 4.76H57.4834V11H56.4754V8.792H54.9514L53.1034 11H51.8794L53.8714 8.636C52.9114 8.456 52.2754 7.724 52.2754 6.764C52.2754 5.576 53.1034 4.76 54.9754 4.76ZM53.3434 6.788C53.3434 7.4 53.9194 7.832 54.8314 7.832H56.4754V5.72H54.8554C53.8474 5.72 53.3434 6.08 53.3434 6.788Z" fill="#76848D"/>
<rect y="26" width="10" height="10" fill="#737AF9"/>
<path d="M18.888 26.6H24.888V27.62H19.98V30.032H22.476C24.456 30.032 25.512 30.884 25.512 32.432C25.512 34.16 24.3 35 22.152 35H18.888V26.6ZM22.308 31.052H19.98V33.98H22.236C23.664 33.98 24.384 33.464 24.384 32.444C24.384 31.52 23.688 31.052 22.308 31.052ZM31.3579 33.212L32.0059 33.812C31.4299 34.676 30.6019 35.108 29.5099 35.108C28.5139 35.108 27.7099 34.808 27.0979 34.22C26.4859 33.632 26.1859 32.852 26.1859 31.868C26.1859 30.92 26.4619 30.14 27.0259 29.528C27.5779 28.916 28.3579 28.616 29.3659 28.616C30.1939 28.616 30.8899 28.88 31.4299 29.396C31.9699 29.912 32.2459 30.596 32.2459 31.448C32.2459 31.724 32.2219 31.976 32.1859 32.204H27.2659C27.3259 33.44 28.2379 34.16 29.5459 34.16C30.2779 34.16 30.9739 33.776 31.3579 33.212ZM29.2939 29.54C28.1539 29.54 27.4099 30.236 27.2539 31.292H31.1779C31.1179 30.188 30.4099 29.54 29.2939 29.54ZM38.5293 35H37.5213V29.72H34.8813V30.008C34.8813 32.024 34.6533 33.416 34.1973 34.136C33.7413 34.856 33.1773 35.096 32.3973 35V34.04C33.2013 34.04 33.8733 33.692 33.8733 30.044V28.76H38.5293V35ZM40.3559 30.26L39.8399 29.504C40.4159 28.964 41.4119 28.616 42.3359 28.616C44.0039 28.616 44.8919 29.528 44.8919 31.148V35H43.8839V34.076C43.4879 34.652 42.7079 35.084 41.6999 35.084C40.3439 35.084 39.4319 34.328 39.4319 33.176C39.4319 31.868 40.5479 31.244 42.4199 31.244C43.0079 31.244 43.4879 31.304 43.8839 31.424C43.8839 30.212 43.4519 29.564 42.2159 29.564C41.5919 29.564 40.9679 29.792 40.3559 30.26ZM41.9399 34.172C42.4079 34.172 42.8279 34.04 43.1759 33.788C43.5239 33.536 43.7519 33.248 43.8839 32.948V32.312C43.5359 32.192 43.0919 32.132 42.5519 32.132C41.1839 32.132 40.4999 32.468 40.4999 33.14C40.4999 33.776 41.0759 34.172 41.9399 34.172ZM47.1741 37.4H46.1661V28.76H47.1741V29.54C47.5941 28.928 48.2661 28.616 49.1901 28.616C50.1021 28.616 50.8341 28.904 51.3741 29.492C51.9141 30.08 52.1781 30.836 52.1781 31.772C52.1781 32.732 51.8901 33.524 51.3141 34.16C50.7261 34.796 49.9821 35.108 49.0701 35.108C48.2301 35.108 47.5941 34.892 47.1741 34.472V37.4ZM49.0821 29.564C48.1701 29.564 47.4621 30.152 47.1741 30.86V33.188C47.5341 33.836 48.1341 34.16 48.9861 34.16C49.5981 34.16 50.1141 33.944 50.5101 33.512C50.9061 33.08 51.1101 32.528 51.1101 31.844C51.1101 30.452 50.3301 29.564 49.0821 29.564ZM53.0573 37.376L53.4533 36.5C53.5493 36.536 53.6333 36.56 53.7173 36.56C54.1853 36.56 54.5093 36.236 54.9293 35.24L55.1213 34.772L52.0973 28.76H53.2853L55.6253 33.5L57.3893 28.76H58.4933L56.1173 34.904C55.7093 35.912 55.3253 36.596 54.9773 36.968C54.6173 37.34 54.2093 37.52 53.7533 37.52C53.4893 37.52 53.2613 37.472 53.0573 37.376ZM63.6292 33.2L64.3492 33.716C63.8812 34.592 62.8252 35.108 61.7812 35.108C60.7852 35.108 59.9812 34.808 59.3692 34.22C58.7572 33.632 58.4452 32.852 58.4452 31.868C58.4452 30.932 58.7452 30.152 59.3572 29.54C59.9692 28.928 60.7492 28.616 61.7212 28.616C62.8372 28.616 63.8332 29.12 64.2532 29.888L63.4732 30.416C63.0532 29.852 62.4772 29.564 61.7452 29.564C61.0972 29.564 60.5692 29.78 60.1492 30.212C59.7292 30.644 59.5132 31.196 59.5132 31.868C59.5132 32.552 59.7292 33.104 60.1732 33.524C60.6052 33.944 61.1692 34.16 61.8772 34.16C62.6212 34.16 63.2092 33.836 63.6292 33.2ZM67.58 35H65.06V28.76H66.068V30.704H67.676C69.38 30.704 70.232 31.412 70.232 32.84C70.232 34.1 69.44 35 67.58 35ZM67.544 31.664H66.068V34.04H67.544C68.696 34.04 69.164 33.632 69.164 32.852C69.164 32.06 68.624 31.664 67.544 31.664Z" fill="#76848D"/>
<path d="M20.948 226.492H14.452V225.442H20.948V226.492ZM27.8104 222.39H21.8744V221.2H29.3084V221.998L24.4364 231H23.1064L27.8104 222.39ZM30.1448 231C29.6268 231.056 29.2348 230.762 29.2348 230.258C29.2348 229.768 29.5428 229.46 30.0888 229.46C30.7048 229.46 31.1108 229.88 31.1108 230.664C31.1108 232.064 30.3408 232.778 29.3188 233.016L29.0248 232.358C29.3328 232.274 29.6128 232.106 29.8648 231.84C30.1028 231.574 30.2008 231.294 30.1448 231ZM33.5573 226.492L32.5493 226.226L33.1233 221.2H39.2833V222.39H34.2013L33.8373 225.022C34.3273 224.658 35.0693 224.476 36.0633 224.476C37.2113 224.476 38.1073 224.784 38.7653 225.386C39.4093 226.002 39.7313 226.786 39.7313 227.752C39.7313 228.718 39.3673 229.53 38.6533 230.16C37.9253 230.804 37.0153 231.126 35.9373 231.126C34.1033 231.126 32.5773 230.258 31.9473 228.732L33.0673 228.256C33.4733 229.194 34.5233 229.936 35.9373 229.936C37.5473 229.936 38.4433 229.012 38.4433 227.794C38.4433 226.492 37.3933 225.652 35.7273 225.652C34.8313 225.652 34.1033 225.932 33.5573 226.492Z" fill="#1A3341"/>
<path d="M11 210.333C11 211.254 11.7462 212 12.6667 212H41.3333C42.2538 212 43 211.254 43 210.333V137H11V210.333Z" fill="url(#paint1_linear_7006_19193)"/>
<path opacity="0.2" d="M21 212H33V137H21V212Z" fill="url(#paint2_linear_7006_19193)"/>
<path opacity="0.04" d="M33 212H41.3333C42.2538 212 43 211.254 43 210.333V137H33V212Z" fill="#0D262C"/>
<path opacity="0.5" d="M11 210.333C11 211.254 11.7462 212 12.6667 212H21V137H11V210.333Z" fill="url(#paint3_linear_7006_19193)"/>
<path d="M96.2576 238.492H89.7616V237.442H96.2576V238.492ZM101.37 237.414H101.804C102.434 237.414 102.952 237.26 103.386 236.966C103.806 236.672 104.016 236.28 104.016 235.818C104.016 234.768 103.19 234.236 101.552 234.236C99.984 234.236 99.13 234.81 99.13 235.818C99.13 236.728 100.068 237.414 101.37 237.414ZM101.776 238.52H101.426C100.67 238.52 100.04 238.688 99.55 239.01C99.06 239.332 98.808 239.738 98.808 240.228C98.808 241.292 99.788 241.964 101.566 241.964C103.372 241.964 104.338 241.32 104.338 240.242C104.338 239.164 103.302 238.52 101.776 238.52ZM104.534 242.37C103.82 242.874 102.826 243.126 101.58 243.126C100.334 243.126 99.34 242.874 98.612 242.384C97.884 241.894 97.52 241.222 97.52 240.354C97.52 239.22 98.262 238.324 99.452 237.932C98.374 237.582 97.842 236.728 97.842 235.734C97.842 234.11 99.214 233.074 101.566 233.074C103.932 233.074 105.304 234.11 105.304 235.734C105.304 236.672 104.786 237.386 103.75 237.862C104.996 238.24 105.612 239.052 105.612 240.298C105.612 241.18 105.248 241.88 104.534 242.37ZM107.642 243C107.124 243.056 106.732 242.762 106.732 242.258C106.732 241.768 107.04 241.46 107.586 241.46C108.202 241.46 108.608 241.88 108.608 242.664C108.608 244.064 107.838 244.778 106.816 245.016L106.522 244.358C106.83 244.274 107.11 244.106 107.362 243.84C107.6 243.574 107.698 243.294 107.642 243ZM115.24 234.39H109.304V233.2H116.738V233.998L111.866 243H110.536L115.24 234.39Z" fill="#1A3341"/>
<path d="M87 222.333C87 223.254 87.7462 224 88.6667 224H117.333C118.254 224 119 223.254 119 222.333V137H87V222.333Z" fill="url(#paint4_linear_7006_19193)"/>
<path opacity="0.2" d="M97 224H109V137H97V224Z" fill="url(#paint5_linear_7006_19193)"/>
<path opacity="0.04" d="M109 224H117.333C118.254 224 119 223.254 119 222.333V137H109V224Z" fill="#0D262C"/>
<path opacity="0.5" d="M87 222.333C87 223.254 87.7462 224 88.6667 224H97V137H87V222.333Z" fill="url(#paint6_linear_7006_19193)"/>
<path d="M179.553 199.492H173.057V198.442H179.553V199.492ZM187.564 204H186.346V201.998H180.354V201.186L186.486 194.2H187.564V200.864H189.384V201.998H187.564V204ZM186.346 196.16L182.034 200.864H186.346V196.16ZM191.006 204C190.488 204.056 190.096 203.762 190.096 203.258C190.096 202.768 190.404 202.46 190.95 202.46C191.566 202.46 191.972 202.88 191.972 203.664C191.972 205.064 191.202 205.778 190.18 206.016L189.886 205.358C190.194 205.274 190.474 205.106 190.726 204.84C190.964 204.574 191.062 204.294 191.006 204ZM196.855 198.414H197.289C197.919 198.414 198.437 198.26 198.871 197.966C199.291 197.672 199.501 197.28 199.501 196.818C199.501 195.768 198.675 195.236 197.037 195.236C195.469 195.236 194.615 195.81 194.615 196.818C194.615 197.728 195.553 198.414 196.855 198.414ZM197.261 199.52H196.911C196.155 199.52 195.525 199.688 195.035 200.01C194.545 200.332 194.293 200.738 194.293 201.228C194.293 202.292 195.273 202.964 197.051 202.964C198.857 202.964 199.823 202.32 199.823 201.242C199.823 200.164 198.787 199.52 197.261 199.52ZM200.019 203.37C199.305 203.874 198.311 204.126 197.065 204.126C195.819 204.126 194.825 203.874 194.097 203.384C193.369 202.894 193.005 202.222 193.005 201.354C193.005 200.22 193.747 199.324 194.937 198.932C193.859 198.582 193.327 197.728 193.327 196.734C193.327 195.11 194.699 194.074 197.051 194.074C199.417 194.074 200.789 195.11 200.789 196.734C200.789 197.672 200.271 198.386 199.235 198.862C200.481 199.24 201.097 200.052 201.097 201.298C201.097 202.18 200.733 202.88 200.019 203.37Z" fill="#1A3341"/>
<path d="M171 183.333C171 184.254 171.746 185 172.667 185H201.333C202.254 185 203 184.254 203 183.333V137H171V183.333Z" fill="url(#paint7_linear_7006_19193)"/>
<path opacity="0.2" d="M181 185H193V137H181V185Z" fill="url(#paint8_linear_7006_19193)"/>
<path opacity="0.04" d="M193 185H201.333C202.254 185 203 184.254 203 183.333V137H193V185Z" fill="#0D262C"/>
<path opacity="0.5" d="M171 183.333C171 184.254 171.746 185 172.667 185H181V137H171V183.333Z" fill="url(#paint9_linear_7006_19193)"/>
<path d="M261.12 39.414H261.554C262.184 39.414 262.702 39.26 263.136 38.966C263.556 38.672 263.766 38.28 263.766 37.818C263.766 36.768 262.94 36.236 261.302 36.236C259.734 36.236 258.88 36.81 258.88 37.818C258.88 38.728 259.818 39.414 261.12 39.414ZM261.526 40.52H261.176C260.42 40.52 259.79 40.688 259.3 41.01C258.81 41.332 258.558 41.738 258.558 42.228C258.558 43.292 259.538 43.964 261.316 43.964C263.122 43.964 264.088 43.32 264.088 42.242C264.088 41.164 263.052 40.52 261.526 40.52ZM264.284 44.37C263.57 44.874 262.576 45.126 261.33 45.126C260.084 45.126 259.09 44.874 258.362 44.384C257.634 43.894 257.27 43.222 257.27 42.354C257.27 41.22 258.012 40.324 259.202 39.932C258.124 39.582 257.592 38.728 257.592 37.734C257.592 36.11 258.964 35.074 261.316 35.074C263.682 35.074 265.054 36.11 265.054 37.734C265.054 38.672 264.536 39.386 263.5 39.862C264.746 40.24 265.362 41.052 265.362 42.298C265.362 43.18 264.998 43.88 264.284 44.37ZM267.392 45C266.874 45.056 266.482 44.762 266.482 44.258C266.482 43.768 266.79 43.46 267.336 43.46C267.952 43.46 268.358 43.88 268.358 44.664C268.358 46.064 267.588 46.778 266.566 47.016L266.272 46.358C266.58 46.274 266.86 46.106 267.112 45.84C267.35 45.574 267.448 45.294 267.392 45ZM270.496 38.434L269.474 38.07C269.824 36.334 271.14 35.088 273.226 35.088C275.242 35.088 276.474 36.25 276.474 38.028C276.474 38.966 276.068 39.904 275.564 40.576C275.312 40.926 274.99 41.262 274.612 41.612C273.842 42.298 273.296 42.662 272.498 43.166L271.42 43.838H276.838V45H269.208V44.048L271.336 42.634C271.714 42.396 271.98 42.214 272.134 42.102C272.288 42.004 272.54 41.822 272.876 41.584C273.212 41.346 273.464 41.136 273.632 40.982C273.786 40.828 273.996 40.632 274.234 40.38C274.878 39.68 275.116 39.036 275.186 38.154C275.186 36.88 274.36 36.306 273.142 36.306C272.386 36.306 271.784 36.516 271.35 36.936C270.916 37.356 270.622 37.86 270.496 38.434Z" fill="#1A3341"/>
<path d="M251 56.6667C251 55.7462 251.746 55 252.667 55H281.333C282.254 55 283 55.7462 283 56.6667V137H251V56.6667Z" fill="url(#paint10_linear_7006_19193)"/>
<path opacity="0.2" d="M261 54.9999H273V137H261V54.9999Z" fill="url(#paint11_linear_7006_19193)"/>
<path opacity="0.04" d="M273 54.9999H281.333C282.254 54.9999 283 55.7461 283 56.6665V137H273V54.9999Z" fill="#0D262C"/>
<path opacity="0.5" d="M251 56.6667C251 55.7462 251.746 55 252.667 55H261V137H251V56.6667Z" fill="url(#paint12_linear_7006_19193)"/>
<path d="M59.9705 182.492H53.4745V181.442H59.9705V182.492ZM62.3389 180.434L61.3169 180.07C61.6669 178.334 62.9829 177.088 65.0689 177.088C67.0849 177.088 68.3169 178.25 68.3169 180.028C68.3169 180.966 67.9109 181.904 67.4069 182.576C67.1549 182.926 66.8329 183.262 66.4549 183.612C65.6849 184.298 65.1389 184.662 64.3409 185.166L63.2629 185.838H68.6809V187H61.0509V186.048L63.1789 184.634C63.5569 184.396 63.8229 184.214 63.9769 184.102C64.1309 184.004 64.3829 183.822 64.7189 183.584C65.0549 183.346 65.3069 183.136 65.4749 182.982C65.6289 182.828 65.8389 182.632 66.0769 182.38C66.7209 181.68 66.9589 181.036 67.0289 180.154C67.0289 178.88 66.2029 178.306 64.9849 178.306C64.2289 178.306 63.6269 178.516 63.1929 178.936C62.7589 179.356 62.4649 179.86 62.3389 180.434ZM70.5891 187C70.0711 187.056 69.6791 186.762 69.6791 186.258C69.6791 185.768 69.9871 185.46 70.5331 185.46C71.1491 185.46 71.5551 185.88 71.5551 186.664C71.5551 188.064 70.7851 188.778 69.7631 189.016L69.4691 188.358C69.7771 188.274 70.0571 188.106 70.3091 187.84C70.5471 187.574 70.6451 187.294 70.5891 187ZM80.7216 181.918C80.7216 183.584 80.3296 184.872 79.5316 185.768C78.7336 186.678 77.6696 187.126 76.3396 187.126C74.7156 187.126 73.4416 186.44 72.8116 185.39L73.8196 184.69C74.3796 185.474 75.4016 185.922 76.5076 185.922C77.4176 185.922 78.1456 185.558 78.7196 184.83C79.2936 184.116 79.5316 183.22 79.4616 182.156C78.9996 183.22 77.8376 184.004 76.2836 184.004C75.1916 184.004 74.2956 183.696 73.5956 183.066C72.8816 182.45 72.5316 181.638 72.5316 180.644C72.5316 179.552 72.9096 178.684 73.6656 178.04C74.4216 177.396 75.4296 177.074 76.6756 177.074C79.1956 177.074 80.7216 178.838 80.7216 181.918ZM79.2516 180.602C79.0416 179.3 78.1456 178.278 76.5356 178.278C74.8556 178.278 73.8196 179.146 73.8196 180.602C73.8196 181.988 74.8696 182.8 76.5076 182.8C77.2496 182.8 77.8796 182.576 78.3696 182.128C78.8596 181.68 79.1536 181.176 79.2516 180.602Z" fill="#1A3341"/>
<path d="M51 166.333C51 167.254 51.7462 168 52.6667 168H81.3333C82.2538 168 83 167.254 83 166.333V137H51V166.333Z" fill="url(#paint13_linear_7006_19193)"/>
<path opacity="0.2" d="M61 168H73V137H61V168Z" fill="url(#paint14_linear_7006_19193)"/>
<path opacity="0.04" d="M73 168H81.3333C82.2538 168 83 167.254 83 166.333V137H73V168Z" fill="#0D262C"/>
<path opacity="0.5" d="M51 166.333C51 167.254 51.7462 168 52.6667 168H61V137H51V166.333Z" fill="url(#paint15_linear_7006_19193)"/>
<path d="M141.461 192.492H134.965V191.442H141.461V192.492ZM149.471 197H148.253V194.998H142.261V194.186L148.393 187.2H149.471V193.864H151.291V194.998H149.471V197ZM148.253 189.16L143.941 193.864H148.253V189.16ZM152.913 197C152.395 197.056 152.003 196.762 152.003 196.258C152.003 195.768 152.311 195.46 152.857 195.46C153.473 195.46 153.879 195.88 153.879 196.664C153.879 198.064 153.109 198.778 152.087 199.016L151.793 198.358C152.101 198.274 152.381 198.106 152.633 197.84C152.871 197.574 152.969 197.294 152.913 197ZM154.786 189.804L154.338 188.754L157.698 187.144H158.496V197H157.292V188.642L154.786 189.804Z" fill="#1A3341"/>
<path d="M131 176.333C131 177.254 131.746 178 132.667 178H161.333C162.254 178 163 177.254 163 176.333V137H131V176.333Z" fill="url(#paint16_linear_7006_19193)"/>
<path opacity="0.2" d="M141 178H153V137H141V178Z" fill="url(#paint17_linear_7006_19193)"/>
<path opacity="0.04" d="M153 178H161.333C162.254 178 163 177.254 163 176.333V137H153V178Z" fill="#0D262C"/>
<path opacity="0.5" d="M131 176.333C131 177.254 131.746 178 132.667 178H141V137H131V176.333Z" fill="url(#paint18_linear_7006_19193)"/>
<path d="M219.95 187.492H213.454V186.442H219.95V187.492ZM222.164 185.056L221.114 184.58C221.632 183.068 222.99 182.074 225.02 182.074C225.986 182.074 226.784 182.298 227.4 182.746C228.016 183.194 228.324 183.796 228.324 184.538C228.324 185.672 227.722 186.512 226.602 186.834C227.68 186.904 228.548 187.716 228.548 189.172C228.548 190.096 228.212 190.824 227.54 191.342C226.868 191.86 226.014 192.126 224.964 192.126C222.822 192.126 221.338 191.104 220.848 189.494L221.982 189.004C222.584 190.278 223.606 190.922 225.048 190.922C226.406 190.922 227.26 190.292 227.26 189.186C227.26 188.108 226.42 187.562 224.74 187.562H223.648V186.4H224.516C226.042 186.4 227.036 185.714 227.036 184.776C227.036 183.81 226.238 183.264 224.964 183.264C223.466 183.264 222.556 184.034 222.164 185.056ZM230.637 192C230.119 192.056 229.727 191.762 229.727 191.258C229.727 190.768 230.035 190.46 230.581 190.46C231.197 190.46 231.603 190.88 231.603 191.664C231.603 193.064 230.833 193.778 229.811 194.016L229.517 193.358C229.825 193.274 230.105 193.106 230.357 192.84C230.595 192.574 230.693 192.294 230.637 192ZM232.621 187.366C232.621 185.672 233.041 184.37 233.867 183.446C234.693 182.536 235.729 182.074 236.975 182.074C238.613 182.074 239.901 182.816 240.447 183.992L239.495 184.636C238.921 183.726 238.067 183.278 236.919 183.278C236.051 183.278 235.323 183.614 234.735 184.286C234.147 184.972 233.853 185.896 233.867 187.086C234.413 186.064 235.687 185.448 237.087 185.448C238.221 185.448 239.131 185.742 239.789 186.344C240.447 186.946 240.783 187.744 240.783 188.724C240.783 189.718 240.419 190.544 239.677 191.174C238.935 191.804 238.011 192.126 236.905 192.126C234.259 192.126 232.621 190.404 232.621 187.366ZM234.021 188.556C234.287 189.942 235.337 190.922 236.891 190.922C237.647 190.922 238.277 190.726 238.767 190.32C239.257 189.928 239.495 189.41 239.495 188.78C239.495 187.394 238.515 186.652 237.017 186.652C236.191 186.652 235.505 186.848 234.973 187.24C234.427 187.632 234.119 188.066 234.021 188.556Z" fill="#1A3341"/>
<path d="M211 171.333C211 172.254 211.746 173 212.667 173H241.333C242.254 173 243 172.254 243 171.333V137H211V171.333Z" fill="url(#paint19_linear_7006_19193)"/>
<path opacity="0.2" d="M221 173H233V137H221V173Z" fill="url(#paint20_linear_7006_19193)"/>
<path opacity="0.04" d="M233 173H241.333C242.254 173 243 172.254 243 171.333V137H233V173Z" fill="#0D262C"/>
<path opacity="0.5" d="M211 171.333C211 172.254 211.746 173 212.667 173H221V137H211V171.333Z" fill="url(#paint21_linear_7006_19193)"/>
<path d="M294.247 14.804L293.799 13.754L297.159 12.144H297.957V22H296.753V13.642L294.247 14.804ZM299.742 17.1C299.742 15.588 300.092 14.37 300.806 13.46C301.506 12.55 302.542 12.088 303.9 12.088C306.686 12.088 308.072 13.922 308.072 17.1C308.072 18.626 307.722 19.83 307.036 20.74C306.336 21.65 305.3 22.112 303.928 22.112C302.612 22.112 301.59 21.65 300.848 20.726C300.106 19.802 299.742 18.598 299.742 17.1ZM301.03 17.1C301.03 19.494 302.122 20.922 303.928 20.922C305.832 20.922 306.784 19.648 306.784 17.1C306.784 14.552 305.818 13.278 303.9 13.278C301.954 13.278 301.03 14.678 301.03 17.1ZM310.056 22C309.538 22.056 309.146 21.762 309.146 21.258C309.146 20.768 309.454 20.46 310 20.46C310.616 20.46 311.022 20.88 311.022 21.664C311.022 23.064 310.252 23.778 309.23 24.016L308.936 23.358C309.244 23.274 309.524 23.106 309.776 22.84C310.014 22.574 310.112 22.294 310.056 22ZM313.468 17.492L312.46 17.226L313.034 12.2H319.194V13.39H314.112L313.748 16.022C314.238 15.658 314.98 15.476 315.974 15.476C317.122 15.476 318.018 15.784 318.676 16.386C319.32 17.002 319.642 17.786 319.642 18.752C319.642 19.718 319.278 20.53 318.564 21.16C317.836 21.804 316.926 22.126 315.848 22.126C314.014 22.126 312.488 21.258 311.858 19.732L312.978 19.256C313.384 20.194 314.434 20.936 315.848 20.936C317.458 20.936 318.354 20.012 318.354 18.794C318.354 17.492 317.304 16.652 315.638 16.652C314.742 16.652 314.014 16.932 313.468 17.492Z" fill="#1A3341"/>
<path d="M291 33.6667C291 32.7462 291.746 32 292.667 32H321.333C322.254 32 323 32.7462 323 33.6667V137H291V33.6667Z" fill="url(#paint22_linear_7006_19193)"/>
<path opacity="0.2" d="M301 31.9999H313V137H301V31.9999Z" fill="url(#paint23_linear_7006_19193)"/>
<path opacity="0.04" d="M313 31.9999H321.333C322.254 31.9999 323 32.7461 323 33.6665V137H313V31.9999Z" fill="#0D262C"/>
<path opacity="0.5" d="M291 33.6667C291 32.7462 291.746 32 292.667 32H301V137H291V33.6667Z" fill="url(#paint24_linear_7006_19193)"/>
<line x1="-4.37114e-08" y1="136.5" x2="335" y2="136.5" stroke="#ABBEC9"/>
<path d="M41.1307 269.8C41.1307 268.504 41.4307 267.46 42.0427 266.68C42.6427 265.9 43.5307 265.504 44.6947 265.504C47.0827 265.504 48.2707 267.076 48.2707 269.8C48.2707 271.108 47.9707 272.14 47.3827 272.92C46.7827 273.7 45.8947 274.096 44.7187 274.096C43.5907 274.096 42.7147 273.7 42.0787 272.908C41.4427 272.116 41.1307 271.084 41.1307 269.8ZM42.2347 269.8C42.2347 271.852 43.1707 273.076 44.7187 273.076C46.3507 273.076 47.1667 271.984 47.1667 269.8C47.1667 267.616 46.3387 266.524 44.6947 266.524C43.0267 266.524 42.2347 267.724 42.2347 269.8ZM49.0709 267.832L48.6869 266.932L51.5669 265.552H52.2509V274H51.2189V266.836L49.0709 267.832ZM33.5271 282.372L32.6511 282.06C32.9511 280.572 34.0791 279.504 35.8671 279.504C37.5951 279.504 38.6511 280.5 38.6511 282.024C38.6511 282.828 38.3031 283.632 37.8711 284.208C37.6551 284.508 37.3791 284.796 37.0551 285.096C36.3951 285.684 35.9271 285.996 35.2431 286.428L34.3191 287.004H38.9631V288H32.4231V287.184L34.2471 285.972C34.5711 285.768 34.7991 285.612 34.9311 285.516C35.0631 285.432 35.2791 285.276 35.5671 285.072C35.8551 284.868 36.0711 284.688 36.2151 284.556C36.3471 284.424 36.5271 284.256 36.7311 284.04C37.2831 283.44 37.4871 282.888 37.5471 282.132C37.5471 281.04 36.8391 280.548 35.7951 280.548C35.1471 280.548 34.6311 280.728 34.2591 281.088C33.8871 281.448 33.6351 281.88 33.5271 282.372ZM39.7948 283.8C39.7948 282.504 40.0948 281.46 40.7068 280.68C41.3068 279.9 42.1948 279.504 43.3588 279.504C45.7468 279.504 46.9348 281.076 46.9348 283.8C46.9348 285.108 46.6348 286.14 46.0468 286.92C45.4468 287.7 44.5588 288.096 43.3828 288.096C42.2548 288.096 41.3788 287.7 40.7428 286.908C40.1068 286.116 39.7948 285.084 39.7948 283.8ZM40.8988 283.8C40.8988 285.852 41.8348 287.076 43.3828 287.076C45.0148 287.076 45.8308 285.984 45.8308 283.8C45.8308 281.616 45.0028 280.524 43.3588 280.524C41.6908 280.524 40.8988 281.724 40.8988 283.8ZM48.791 282.372L47.915 282.06C48.215 280.572 49.343 279.504 51.131 279.504C52.859 279.504 53.915 280.5 53.915 282.024C53.915 282.828 53.567 283.632 53.135 284.208C52.919 284.508 52.643 284.796 52.319 285.096C51.659 285.684 51.191 285.996 50.507 286.428L49.583 287.004H54.227V288H47.687V287.184L49.511 285.972C49.835 285.768 50.063 285.612 50.195 285.516C50.327 285.432 50.543 285.276 50.831 285.072C51.119 284.868 51.335 284.688 51.479 284.556C51.611 284.424 51.791 284.256 51.995 284.04C52.547 283.44 52.751 282.888 52.811 282.132C52.811 281.04 52.103 280.548 51.059 280.548C50.411 280.548 49.895 280.728 49.523 281.088C49.151 281.448 48.899 281.88 48.791 282.372ZM55.8867 282.048L54.9867 281.64C55.4307 280.344 56.5947 279.492 58.3347 279.492C59.1627 279.492 59.8467 279.684 60.3747 280.068C60.9027 280.452 61.1667 280.968 61.1667 281.604C61.1667 282.576 60.6507 283.296 59.6907 283.572C60.6147 283.632 61.3587 284.328 61.3587 285.576C61.3587 286.368 61.0707 286.992 60.4947 287.436C59.9187 287.88 59.1867 288.108 58.2867 288.108C56.4507 288.108 55.1787 287.232 54.7587 285.852L55.7307 285.432C56.2467 286.524 57.1227 287.076 58.3587 287.076C59.5227 287.076 60.2547 286.536 60.2547 285.588C60.2547 284.664 59.5347 284.196 58.0947 284.196H57.1587V283.2H57.9027C59.2107 283.2 60.0627 282.612 60.0627 281.808C60.0627 280.98 59.3787 280.512 58.2867 280.512C57.0027 280.512 56.2227 281.172 55.8867 282.048Z" fill="#76848D"/>
<path d="M115.824 269.8C115.824 268.504 116.124 267.46 116.736 266.68C117.336 265.9 118.224 265.504 119.388 265.504C121.776 265.504 122.964 267.076 122.964 269.8C122.964 271.108 122.664 272.14 122.076 272.92C121.476 273.7 120.588 274.096 119.412 274.096C118.284 274.096 117.408 273.7 116.772 272.908C116.136 272.116 115.824 271.084 115.824 269.8ZM116.928 269.8C116.928 271.852 117.864 273.076 119.412 273.076C121.044 273.076 121.86 271.984 121.86 269.8C121.86 267.616 121.032 266.524 119.388 266.524C117.72 266.524 116.928 267.724 116.928 269.8ZM124.82 268.372L123.944 268.06C124.244 266.572 125.372 265.504 127.16 265.504C128.888 265.504 129.944 266.5 129.944 268.024C129.944 268.828 129.596 269.632 129.164 270.208C128.948 270.508 128.672 270.796 128.348 271.096C127.688 271.684 127.22 271.996 126.536 272.428L125.612 273.004H130.256V274H123.716V273.184L125.54 271.972C125.864 271.768 126.092 271.612 126.224 271.516C126.356 271.432 126.572 271.276 126.86 271.072C127.148 270.868 127.364 270.688 127.508 270.556C127.64 270.424 127.82 270.256 128.024 270.04C128.576 269.44 128.78 268.888 128.84 268.132C128.84 267.04 128.132 266.548 127.088 266.548C126.44 266.548 125.924 266.728 125.552 267.088C125.18 267.448 124.928 267.88 124.82 268.372Z" fill="#76848D"/>
<path d="M199.795 269.8C199.795 268.504 200.095 267.46 200.707 266.68C201.307 265.9 202.195 265.504 203.359 265.504C205.747 265.504 206.935 267.076 206.935 269.8C206.935 271.108 206.635 272.14 206.047 272.92C205.447 273.7 204.559 274.096 203.383 274.096C202.255 274.096 201.379 273.7 200.743 272.908C200.107 272.116 199.795 271.084 199.795 269.8ZM200.899 269.8C200.899 271.852 201.835 273.076 203.383 273.076C205.015 273.076 205.831 271.984 205.831 269.8C205.831 267.616 205.003 266.524 203.359 266.524C201.691 266.524 200.899 267.724 200.899 269.8ZM208.659 268.048L207.759 267.64C208.203 266.344 209.367 265.492 211.107 265.492C211.935 265.492 212.619 265.684 213.147 266.068C213.675 266.452 213.939 266.968 213.939 267.604C213.939 268.576 213.423 269.296 212.463 269.572C213.387 269.632 214.131 270.328 214.131 271.576C214.131 272.368 213.843 272.992 213.267 273.436C212.691 273.88 211.959 274.108 211.059 274.108C209.223 274.108 207.951 273.232 207.531 271.852L208.503 271.432C209.019 272.524 209.895 273.076 211.131 273.076C212.295 273.076 213.027 272.536 213.027 271.588C213.027 270.664 212.307 270.196 210.867 270.196H209.931V269.2H210.675C211.983 269.2 212.835 268.612 212.835 267.808C212.835 266.98 212.151 266.512 211.059 266.512C209.775 266.512 208.995 267.172 208.659 268.048Z" fill="#76848D"/>
<path d="M279.467 269.8C279.467 268.504 279.767 267.46 280.379 266.68C280.979 265.9 281.867 265.504 283.031 265.504C285.419 265.504 286.607 267.076 286.607 269.8C286.607 271.108 286.307 272.14 285.719 272.92C285.119 273.7 284.231 274.096 283.055 274.096C281.927 274.096 281.051 273.7 280.415 272.908C279.779 272.116 279.467 271.084 279.467 269.8ZM280.571 269.8C280.571 271.852 281.507 273.076 283.055 273.076C284.687 273.076 285.503 271.984 285.503 269.8C285.503 267.616 284.675 266.524 283.031 266.524C281.363 266.524 280.571 267.724 280.571 269.8ZM293.299 274H292.255V272.284H287.119V271.588L292.375 265.6H293.299V271.312H294.859V272.284H293.299V274ZM292.255 267.28L288.559 271.312H292.255V267.28Z" fill="#76848D"/>
<path d="M24.0345 363.918C24.0345 365.584 23.6425 366.872 22.8445 367.768C22.0465 368.678 20.9825 369.126 19.6525 369.126C18.0285 369.126 16.7545 368.44 16.1245 367.39L17.1325 366.69C17.6925 367.474 18.7145 367.922 19.8205 367.922C20.7305 367.922 21.4585 367.558 22.0325 366.83C22.6065 366.116 22.8445 365.22 22.7745 364.156C22.3125 365.22 21.1505 366.004 19.5965 366.004C18.5045 366.004 17.6085 365.696 16.9085 365.066C16.1945 364.45 15.8445 363.638 15.8445 362.644C15.8445 361.552 16.2225 360.684 16.9785 360.04C17.7345 359.396 18.7425 359.074 19.9885 359.074C22.5085 359.074 24.0345 360.838 24.0345 363.918ZM22.5645 362.602C22.3545 361.3 21.4585 360.278 19.8485 360.278C18.1685 360.278 17.1325 361.146 17.1325 362.602C17.1325 363.988 18.1825 364.8 19.8205 364.8C20.5625 364.8 21.1925 364.576 21.6825 364.128C22.1725 363.68 22.4665 363.176 22.5645 362.602ZM26.0224 369C25.5044 369.056 25.1124 368.762 25.1124 368.258C25.1124 367.768 25.4204 367.46 25.9664 367.46C26.5824 367.46 26.9884 367.88 26.9884 368.664C26.9884 370.064 26.2184 370.778 25.1964 371.016L24.9024 370.358C25.2104 370.274 25.4904 370.106 25.7424 369.84C25.9804 369.574 26.0784 369.294 26.0224 369ZM28.0069 364.366C28.0069 362.672 28.4269 361.37 29.2529 360.446C30.0789 359.536 31.1149 359.074 32.3609 359.074C33.9989 359.074 35.2869 359.816 35.8329 360.992L34.8809 361.636C34.3069 360.726 33.4529 360.278 32.3049 360.278C31.4369 360.278 30.7089 360.614 30.1209 361.286C29.5329 361.972 29.2389 362.896 29.2529 364.086C29.7989 363.064 31.0729 362.448 32.4729 362.448C33.6069 362.448 34.5169 362.742 35.1749 363.344C35.8329 363.946 36.1689 364.744 36.1689 365.724C36.1689 366.718 35.8049 367.544 35.0629 368.174C34.3209 368.804 33.3969 369.126 32.2909 369.126C29.6449 369.126 28.0069 367.404 28.0069 364.366ZM29.4069 365.556C29.6729 366.942 30.7229 367.922 32.2769 367.922C33.0329 367.922 33.6629 367.726 34.1529 367.32C34.6429 366.928 34.8809 366.41 34.8809 365.78C34.8809 364.394 33.9009 363.652 32.4029 363.652C31.5769 363.652 30.8909 363.848 30.3589 364.24C29.8129 364.632 29.5049 365.066 29.4069 365.556Z" fill="#1A3341"/>
<path d="M10 380.667C10 379.746 10.7462 379 11.6667 379H40.3333C41.2538 379 42 379.746 42 380.667V475H10V380.667Z" fill="url(#paint25_linear_7006_19193)"/>
<path opacity="0.2" d="M20 379H32V475H20V379Z" fill="url(#paint26_linear_7006_19193)"/>
<path opacity="0.04" d="M32 379H40.3333C41.2538 379 42 379.746 42 380.667V475H32V379Z" fill="#0D262C"/>
<path opacity="0.5" d="M10 380.667C10 379.746 10.7462 379 11.6667 379H20V475H10V380.667Z" fill="url(#paint27_linear_7006_19193)"/>
<path d="M94.3289 354.804L93.8809 353.754L97.2409 352.144H98.0389V362H96.8349V353.642L94.3289 354.804ZM99.8243 357.1C99.8243 355.588 100.174 354.37 100.888 353.46C101.588 352.55 102.624 352.088 103.982 352.088C106.768 352.088 108.154 353.922 108.154 357.1C108.154 358.626 107.804 359.83 107.118 360.74C106.418 361.65 105.382 362.112 104.01 362.112C102.694 362.112 101.672 361.65 100.93 360.726C100.188 359.802 99.8243 358.598 99.8243 357.1ZM101.112 357.1C101.112 359.494 102.204 360.922 104.01 360.922C105.914 360.922 106.866 359.648 106.866 357.1C106.866 354.552 105.9 353.278 103.982 353.278C102.036 353.278 101.112 354.678 101.112 357.1ZM110.138 362C109.62 362.056 109.228 361.762 109.228 361.258C109.228 360.768 109.536 360.46 110.082 360.46C110.698 360.46 111.104 360.88 111.104 361.664C111.104 363.064 110.334 363.778 109.312 364.016L109.018 363.358C109.326 363.274 109.606 363.106 109.858 362.84C110.096 362.574 110.194 362.294 110.138 362ZM113.088 355.056L112.038 354.58C112.556 353.068 113.914 352.074 115.944 352.074C116.91 352.074 117.708 352.298 118.324 352.746C118.94 353.194 119.248 353.796 119.248 354.538C119.248 355.672 118.646 356.512 117.526 356.834C118.604 356.904 119.472 357.716 119.472 359.172C119.472 360.096 119.136 360.824 118.464 361.342C117.792 361.86 116.938 362.126 115.888 362.126C113.746 362.126 112.262 361.104 111.772 359.494L112.906 359.004C113.508 360.278 114.53 360.922 115.972 360.922C117.33 360.922 118.184 360.292 118.184 359.186C118.184 358.108 117.344 357.562 115.664 357.562H114.572V356.4H115.44C116.966 356.4 117.96 355.714 117.96 354.776C117.96 353.81 117.162 353.264 115.888 353.264C114.39 353.264 113.48 354.034 113.088 355.056Z" fill="#1A3341"/>
<path d="M91 373.667C91 372.746 91.7462 372 92.6667 372H121.333C122.254 372 123 372.746 123 373.667V475H91V373.667Z" fill="url(#paint28_linear_7006_19193)"/>
<path opacity="0.2" d="M101 372H113V475H101V372Z" fill="url(#paint29_linear_7006_19193)"/>
<path opacity="0.04" d="M113 372H121.333C122.254 372 123 372.746 123 373.667V475H113V372Z" fill="#0D262C"/>
<path opacity="0.5" d="M91 373.667C91 372.746 91.7462 372 92.6667 372H101V475H91V373.667Z" fill="url(#paint30_linear_7006_19193)"/>
<path d="M173.98 349.804L173.532 348.754L176.892 347.144H177.69V357H176.486V348.642L173.98 349.804ZM179.476 352.1C179.476 350.588 179.826 349.37 180.54 348.46C181.24 347.55 182.276 347.088 183.634 347.088C186.42 347.088 187.806 348.922 187.806 352.1C187.806 353.626 187.456 354.83 186.77 355.74C186.07 356.65 185.034 357.112 183.662 357.112C182.346 357.112 181.324 356.65 180.582 355.726C179.84 354.802 179.476 353.598 179.476 352.1ZM180.764 352.1C180.764 354.494 181.856 355.922 183.662 355.922C185.566 355.922 186.518 354.648 186.518 352.1C186.518 349.552 185.552 348.278 183.634 348.278C181.688 348.278 180.764 349.678 180.764 352.1ZM189.789 357C189.271 357.056 188.879 356.762 188.879 356.258C188.879 355.768 189.187 355.46 189.733 355.46C190.349 355.46 190.755 355.88 190.755 356.664C190.755 358.064 189.985 358.778 188.963 359.016L188.669 358.358C188.977 358.274 189.257 358.106 189.509 357.84C189.747 357.574 189.845 357.294 189.789 357ZM195.638 351.414H196.072C196.702 351.414 197.22 351.26 197.654 350.966C198.074 350.672 198.284 350.28 198.284 349.818C198.284 348.768 197.458 348.236 195.82 348.236C194.252 348.236 193.398 348.81 193.398 349.818C193.398 350.728 194.336 351.414 195.638 351.414ZM196.044 352.52H195.694C194.938 352.52 194.308 352.688 193.818 353.01C193.328 353.332 193.076 353.738 193.076 354.228C193.076 355.292 194.056 355.964 195.834 355.964C197.64 355.964 198.606 355.32 198.606 354.242C198.606 353.164 197.57 352.52 196.044 352.52ZM198.802 356.37C198.088 356.874 197.094 357.126 195.848 357.126C194.602 357.126 193.608 356.874 192.88 356.384C192.152 355.894 191.788 355.222 191.788 354.354C191.788 353.22 192.53 352.324 193.72 351.932C192.642 351.582 192.11 350.728 192.11 349.734C192.11 348.11 193.482 347.074 195.834 347.074C198.2 347.074 199.572 348.11 199.572 349.734C199.572 350.672 199.054 351.386 198.018 351.862C199.264 352.24 199.88 353.052 199.88 354.298C199.88 355.18 199.516 355.88 198.802 356.37Z" fill="#1A3341"/>
<path d="M171 368.667C171 367.746 171.746 367 172.667 367H201.333C202.254 367 203 367.746 203 368.667V475H171V368.667Z" fill="url(#paint31_linear_7006_19193)"/>
<path opacity="0.2" d="M181 367H193V475H181V367Z" fill="url(#paint32_linear_7006_19193)"/>
<path opacity="0.04" d="M193 367H201.333C202.254 367 203 367.746 203 368.667V475H193V367Z" fill="#0D262C"/>
<path opacity="0.5" d="M171 368.667C171 367.746 171.746 367 172.667 367H181V475H171V368.667Z" fill="url(#paint33_linear_7006_19193)"/>
<path d="M255.888 347.804L255.44 346.754L258.8 345.144H259.598V355H258.394V346.642L255.888 347.804ZM261.271 347.804L260.823 346.754L264.183 345.144H264.981V355H263.777V346.642L261.271 347.804ZM267.704 355C267.186 355.056 266.794 354.762 266.794 354.258C266.794 353.768 267.102 353.46 267.648 353.46C268.264 353.46 268.67 353.88 268.67 354.664C268.67 356.064 267.9 356.778 266.878 357.016L266.584 356.358C266.892 356.274 267.172 356.106 267.424 355.84C267.662 355.574 267.76 355.294 267.704 355ZM269.689 350.1C269.689 348.588 270.039 347.37 270.753 346.46C271.453 345.55 272.489 345.088 273.847 345.088C276.633 345.088 278.019 346.922 278.019 350.1C278.019 351.626 277.669 352.83 276.983 353.74C276.283 354.65 275.247 355.112 273.875 355.112C272.559 355.112 271.537 354.65 270.795 353.726C270.053 352.802 269.689 351.598 269.689 350.1ZM270.977 350.1C270.977 352.494 272.069 353.922 273.875 353.922C275.779 353.922 276.731 352.648 276.731 350.1C276.731 347.552 275.765 346.278 273.847 346.278C271.901 346.278 270.977 347.678 270.977 350.1Z" fill="#1A3341"/>
<path d="M251 366.667C251 365.746 251.746 365 252.667 365H281.333C282.254 365 283 365.746 283 366.667V475H251V366.667Z" fill="url(#paint34_linear_7006_19193)"/>
<path opacity="0.2" d="M261 365H273V475H261V365Z" fill="url(#paint35_linear_7006_19193)"/>
<path opacity="0.04" d="M273 365H281.333C282.254 365 283 365.746 283 366.667V475H273V365Z" fill="#0D262C"/>
<path opacity="0.5" d="M251 366.667C251 365.746 251.746 365 252.667 365H261V475H251V366.667Z" fill="url(#paint36_linear_7006_19193)"/>
<path d="M54.6844 322.804L54.2364 321.754L57.5964 320.144H58.3944V330H57.1904V321.642L54.6844 322.804ZM61.1458 323.056L60.0958 322.58C60.6138 321.068 61.9718 320.074 64.0018 320.074C64.9678 320.074 65.7658 320.298 66.3818 320.746C66.9978 321.194 67.3058 321.796 67.3058 322.538C67.3058 323.672 66.7038 324.512 65.5838 324.834C66.6618 324.904 67.5298 325.716 67.5298 327.172C67.5298 328.096 67.1938 328.824 66.5218 329.342C65.8498 329.86 64.9958 330.126 63.9458 330.126C61.8038 330.126 60.3198 329.104 59.8298 327.494L60.9638 327.004C61.5658 328.278 62.5878 328.922 64.0298 328.922C65.3878 328.922 66.2418 328.292 66.2418 327.186C66.2418 326.108 65.4018 325.562 63.7218 325.562H62.6298V324.4H63.4978C65.0238 324.4 66.0178 323.714 66.0178 322.776C66.0178 321.81 65.2198 321.264 63.9458 321.264C62.4478 321.264 61.5378 322.034 61.1458 323.056ZM69.6184 330C69.1004 330.056 68.7084 329.762 68.7084 329.258C68.7084 328.768 69.0164 328.46 69.5624 328.46C70.1784 328.46 70.5844 328.88 70.5844 329.664C70.5844 331.064 69.8144 331.778 68.7924 332.016L68.4984 331.358C68.8064 331.274 69.0864 331.106 69.3384 330.84C69.5764 330.574 69.6744 330.294 69.6184 330ZM73.0309 325.492L72.0229 325.226L72.5969 320.2H78.7569V321.39H73.6749L73.3109 324.022C73.8009 323.658 74.5429 323.476 75.5369 323.476C76.6849 323.476 77.5809 323.784 78.2389 324.386C78.8829 325.002 79.2049 325.786 79.2049 326.752C79.2049 327.718 78.8409 328.53 78.1269 329.16C77.3989 329.804 76.4889 330.126 75.4109 330.126C73.5769 330.126 72.0509 329.258 71.4209 327.732L72.5409 327.256C72.9469 328.194 73.9969 328.936 75.4109 328.936C77.0209 328.936 77.9169 328.012 77.9169 326.794C77.9169 325.492 76.8669 324.652 75.2009 324.652C74.3049 324.652 73.5769 324.932 73.0309 325.492Z" fill="#1A3341"/>
<path d="M51 341.667C51 340.746 51.7462 340 52.6667 340H81.3333C82.2538 340 83 340.746 83 341.667V475H51V341.667Z" fill="url(#paint37_linear_7006_19193)"/>
<path opacity="0.2" d="M61 340H73V475H61V340Z" fill="url(#paint38_linear_7006_19193)"/>
<path opacity="0.04" d="M73 340H81.3333C82.2538 340 83 340.746 83 341.667V475H73V340Z" fill="#0D262C"/>
<path opacity="0.5" d="M51 341.667C51 340.746 51.7462 340 52.6667 340H61V475H51V341.667Z" fill="url(#paint39_linear_7006_19193)"/>
<path d="M134.452 329.804L134.004 328.754L137.364 327.144H138.162V337H136.958V328.642L134.452 329.804ZM141.067 330.434L140.045 330.07C140.395 328.334 141.711 327.088 143.797 327.088C145.813 327.088 147.045 328.25 147.045 330.028C147.045 330.966 146.639 331.904 146.135 332.576C145.883 332.926 145.561 333.262 145.183 333.612C144.413 334.298 143.867 334.662 143.069 335.166L141.991 335.838H147.409V337H139.779V336.048L141.907 334.634C142.285 334.396 142.551 334.214 142.705 334.102C142.859 334.004 143.111 333.822 143.447 333.584C143.783 333.346 144.035 333.136 144.203 332.982C144.357 332.828 144.567 332.632 144.805 332.38C145.449 331.68 145.687 331.036 145.757 330.154C145.757 328.88 144.931 328.306 143.713 328.306C142.957 328.306 142.355 328.516 141.921 328.936C141.487 329.356 141.193 329.86 141.067 330.434ZM149.318 337C148.8 337.056 148.408 336.762 148.408 336.258C148.408 335.768 148.716 335.46 149.262 335.46C149.878 335.46 150.284 335.88 150.284 336.664C150.284 338.064 149.514 338.778 148.492 339.016L148.198 338.358C148.506 338.274 148.786 338.106 149.038 337.84C149.276 337.574 149.374 337.294 149.318 337ZM155.166 331.414H155.6C156.23 331.414 156.748 331.26 157.182 330.966C157.602 330.672 157.812 330.28 157.812 329.818C157.812 328.768 156.986 328.236 155.348 328.236C153.78 328.236 152.926 328.81 152.926 329.818C152.926 330.728 153.864 331.414 155.166 331.414ZM155.572 332.52H155.222C154.466 332.52 153.836 332.688 153.346 333.01C152.856 333.332 152.604 333.738 152.604 334.228C152.604 335.292 153.584 335.964 155.362 335.964C157.168 335.964 158.134 335.32 158.134 334.242C158.134 333.164 157.098 332.52 155.572 332.52ZM158.33 336.37C157.616 336.874 156.622 337.126 155.376 337.126C154.13 337.126 153.136 336.874 152.408 336.384C151.68 335.894 151.316 335.222 151.316 334.354C151.316 333.22 152.058 332.324 153.248 331.932C152.17 331.582 151.638 330.728 151.638 329.734C151.638 328.11 153.01 327.074 155.362 327.074C157.728 327.074 159.1 328.11 159.1 329.734C159.1 330.672 158.582 331.386 157.546 331.862C158.792 332.24 159.408 333.052 159.408 334.298C159.408 335.18 159.044 335.88 158.33 336.37Z" fill="#1A3341"/>
<path d="M131 348.667C131 347.746 131.746 347 132.667 347H161.333C162.254 347 163 347.746 163 348.667V475H131V348.667Z" fill="url(#paint40_linear_7006_19193)"/>
<path opacity="0.2" d="M141 347H153V475H141V347Z" fill="url(#paint41_linear_7006_19193)"/>
<path opacity="0.04" d="M153 347H161.333C162.254 347 163 347.746 163 348.667V475H153V347Z" fill="#0D262C"/>
<path opacity="0.5" d="M131 348.667C131 347.746 131.746 347 132.667 347H141V475H131V348.667Z" fill="url(#paint42_linear_7006_19193)"/>
<path d="M221.085 376.414H221.519C222.149 376.414 222.667 376.26 223.101 375.966C223.521 375.672 223.731 375.28 223.731 374.818C223.731 373.768 222.905 373.236 221.267 373.236C219.699 373.236 218.845 373.81 218.845 374.818C218.845 375.728 219.783 376.414 221.085 376.414ZM221.491 377.52H221.141C220.385 377.52 219.755 377.688 219.265 378.01C218.775 378.332 218.523 378.738 218.523 379.228C218.523 380.292 219.503 380.964 221.281 380.964C223.087 380.964 224.053 380.32 224.053 379.242C224.053 378.164 223.017 377.52 221.491 377.52ZM224.249 381.37C223.535 381.874 222.541 382.126 221.295 382.126C220.049 382.126 219.055 381.874 218.327 381.384C217.599 380.894 217.235 380.222 217.235 379.354C217.235 378.22 217.977 377.324 219.167 376.932C218.089 376.582 217.557 375.728 217.557 374.734C217.557 373.11 218.929 372.074 221.281 372.074C223.647 372.074 225.019 373.11 225.019 374.734C225.019 375.672 224.501 376.386 223.465 376.862C224.711 377.24 225.327 378.052 225.327 379.298C225.327 380.18 224.963 380.88 224.249 381.37ZM227.357 382C226.839 382.056 226.447 381.762 226.447 381.258C226.447 380.768 226.755 380.46 227.301 380.46C227.917 380.46 228.323 380.88 228.323 381.664C228.323 383.064 227.553 383.778 226.531 384.016L226.237 383.358C226.545 383.274 226.825 383.106 227.077 382.84C227.315 382.574 227.413 382.294 227.357 382ZM230.308 375.056L229.258 374.58C229.776 373.068 231.134 372.074 233.164 372.074C234.13 372.074 234.928 372.298 235.544 372.746C236.16 373.194 236.468 373.796 236.468 374.538C236.468 375.672 235.866 376.512 234.746 376.834C235.824 376.904 236.692 377.716 236.692 379.172C236.692 380.096 236.356 380.824 235.684 381.342C235.012 381.86 234.158 382.126 233.108 382.126C230.966 382.126 229.482 381.104 228.992 379.494L230.126 379.004C230.728 380.278 231.75 380.922 233.192 380.922C234.55 380.922 235.404 380.292 235.404 379.186C235.404 378.108 234.564 377.562 232.884 377.562H231.792V376.4H232.66C234.186 376.4 235.18 375.714 235.18 374.776C235.18 373.81 234.382 373.264 233.108 373.264C231.61 373.264 230.7 374.034 230.308 375.056Z" fill="#1A3341"/>
<path d="M211 393.667C211 392.746 211.746 392 212.667 392H241.333C242.254 392 243 392.746 243 393.667V475H211V393.667Z" fill="url(#paint43_linear_7006_19193)"/>
<path opacity="0.2" d="M221 392H233V475H221V392Z" fill="url(#paint44_linear_7006_19193)"/>
<path opacity="0.04" d="M233 392H241.333C242.254 392 243 392.746 243 393.667V475H233V392Z" fill="#0D262C"/>
<path opacity="0.5" d="M211 393.667C211 392.746 211.746 392 212.667 392H221V475H211V393.667Z" fill="url(#paint45_linear_7006_19193)"/>
<path d="M296.359 345.804L295.911 344.754L299.271 343.144H300.069V353H298.865V344.642L296.359 345.804ZM301.743 345.804L301.295 344.754L304.655 343.144H305.453V353H304.249V344.642L301.743 345.804ZM308.176 353C307.658 353.056 307.266 352.762 307.266 352.258C307.266 351.768 307.574 351.46 308.12 351.46C308.736 351.46 309.142 351.88 309.142 352.664C309.142 354.064 308.372 354.778 307.35 355.016L307.056 354.358C307.364 354.274 307.644 354.106 307.896 353.84C308.134 353.574 308.232 353.294 308.176 353ZM311.281 346.434L310.259 346.07C310.609 344.334 311.925 343.088 314.011 343.088C316.027 343.088 317.259 344.25 317.259 346.028C317.259 346.966 316.853 347.904 316.349 348.576C316.097 348.926 315.775 349.262 315.397 349.612C314.627 350.298 314.081 350.662 313.283 351.166L312.205 351.838H317.623V353H309.993V352.048L312.121 350.634C312.499 350.396 312.765 350.214 312.919 350.102C313.073 350.004 313.325 349.822 313.661 349.584C313.997 349.346 314.249 349.136 314.417 348.982C314.571 348.828 314.781 348.632 315.019 348.38C315.663 347.68 315.901 347.036 315.971 346.154C315.971 344.88 315.145 344.306 313.927 344.306C313.171 344.306 312.569 344.516 312.135 344.936C311.701 345.356 311.407 345.86 311.281 346.434Z" fill="#1A3341"/>
<path d="M291 364.667C291 363.746 291.746 363 292.667 363H321.333C322.254 363 323 363.746 323 364.667V475H291V364.667Z" fill="url(#paint46_linear_7006_19193)"/>
<path opacity="0.2" d="M301 363H313V475H301V363Z" fill="url(#paint47_linear_7006_19193)"/>
<path opacity="0.04" d="M313 363H321.333C322.254 363 323 363.746 323 364.667V475H313V363Z" fill="#0D262C"/>
<path opacity="0.5" d="M291 364.667C291 363.746 291.746 363 292.667 363H301V475H291V364.667Z" fill="url(#paint48_linear_7006_19193)"/>
<path d="M38.7244 488.8C38.7244 487.504 39.0244 486.46 39.6364 485.68C40.2364 484.9 41.1244 484.504 42.2884 484.504C44.6764 484.504 45.8644 486.076 45.8644 488.8C45.8644 490.108 45.5644 491.14 44.9764 491.92C44.3764 492.7 43.4884 493.096 42.3124 493.096C41.1844 493.096 40.3084 492.7 39.6724 491.908C39.0364 491.116 38.7244 490.084 38.7244 488.8ZM39.8284 488.8C39.8284 490.852 40.7644 492.076 42.3124 492.076C43.9444 492.076 44.7604 490.984 44.7604 488.8C44.7604 486.616 43.9324 485.524 42.2884 485.524C40.6204 485.524 39.8284 486.724 39.8284 488.8ZM47.9847 489.136L47.1207 488.908L47.6127 484.6H52.8927V485.62H48.5367L48.2247 487.876C48.6447 487.564 49.2807 487.408 50.1327 487.408C51.1167 487.408 51.8847 487.672 52.4487 488.188C53.0007 488.716 53.2767 489.388 53.2767 490.216C53.2767 491.044 52.9647 491.74 52.3527 492.28C51.7287 492.832 50.9487 493.108 50.0247 493.108C48.4527 493.108 47.1447 492.364 46.6047 491.056L47.5647 490.648C47.9127 491.452 48.8127 492.088 50.0247 492.088C51.4047 492.088 52.1727 491.296 52.1727 490.252C52.1727 489.136 51.2727 488.416 49.8447 488.416C49.0767 488.416 48.4527 488.656 47.9847 489.136Z" fill="#76848D"/>
<path d="M119.508 488.8C119.508 487.504 119.808 486.46 120.42 485.68C121.02 484.9 121.908 484.504 123.072 484.504C125.46 484.504 126.648 486.076 126.648 488.8C126.648 490.108 126.348 491.14 125.76 491.92C125.16 492.7 124.272 493.096 123.096 493.096C121.968 493.096 121.092 492.7 120.456 491.908C119.82 491.116 119.508 490.084 119.508 488.8ZM120.612 488.8C120.612 490.852 121.548 492.076 123.096 492.076C124.728 492.076 125.544 490.984 125.544 488.8C125.544 486.616 124.716 485.524 123.072 485.524C121.404 485.524 120.612 486.724 120.612 488.8ZM127.544 489.028C127.544 487.576 127.904 486.46 128.612 485.668C129.32 484.888 130.208 484.492 131.276 484.492C132.68 484.492 133.784 485.128 134.252 486.136L133.436 486.688C132.944 485.908 132.212 485.524 131.228 485.524C130.484 485.524 129.86 485.812 129.356 486.388C128.852 486.976 128.6 487.768 128.612 488.788C129.08 487.912 130.172 487.384 131.372 487.384C132.344 487.384 133.124 487.636 133.688 488.152C134.252 488.668 134.54 489.352 134.54 490.192C134.54 491.044 134.228 491.752 133.592 492.292C132.956 492.832 132.164 493.108 131.216 493.108C128.948 493.108 127.544 491.632 127.544 489.028ZM128.744 490.048C128.972 491.236 129.872 492.076 131.204 492.076C131.852 492.076 132.392 491.908 132.812 491.56C133.232 491.224 133.436 490.78 133.436 490.24C133.436 489.052 132.596 488.416 131.312 488.416C130.604 488.416 130.016 488.584 129.56 488.92C129.092 489.256 128.828 489.628 128.744 490.048Z" fill="#76848D"/>
<path d="M200.07 488.8C200.07 487.504 200.37 486.46 200.982 485.68C201.582 484.9 202.47 484.504 203.634 484.504C206.022 484.504 207.21 486.076 207.21 488.8C207.21 490.108 206.91 491.14 206.322 491.92C205.722 492.7 204.834 493.096 203.658 493.096C202.53 493.096 201.654 492.7 201.018 491.908C200.382 491.116 200.07 490.084 200.07 488.8ZM201.174 488.8C201.174 490.852 202.11 492.076 203.658 492.076C205.29 492.076 206.106 490.984 206.106 488.8C206.106 486.616 205.278 485.524 203.634 485.524C201.966 485.524 201.174 486.724 201.174 488.8ZM212.918 485.62H207.83V484.6H214.202V485.284L210.026 493H208.886L212.918 485.62Z" fill="#76848D"/>
<path d="M279.496 488.8C279.496 487.504 279.796 486.46 280.408 485.68C281.008 484.9 281.896 484.504 283.06 484.504C285.448 484.504 286.636 486.076 286.636 488.8C286.636 490.108 286.336 491.14 285.748 491.92C285.148 492.7 284.26 493.096 283.084 493.096C281.956 493.096 281.08 492.7 280.444 491.908C279.808 491.116 279.496 490.084 279.496 488.8ZM280.6 488.8C280.6 490.852 281.536 492.076 283.084 492.076C284.716 492.076 285.532 490.984 285.532 488.8C285.532 486.616 284.704 485.524 283.06 485.524C281.392 485.524 280.6 486.724 280.6 488.8ZM290.844 488.212H291.216C291.756 488.212 292.2 488.08 292.572 487.828C292.932 487.576 293.112 487.24 293.112 486.844C293.112 485.944 292.404 485.488 291 485.488C289.656 485.488 288.924 485.98 288.924 486.844C288.924 487.624 289.728 488.212 290.844 488.212ZM291.192 489.16H290.892C290.244 489.16 289.704 489.304 289.284 489.58C288.864 489.856 288.648 490.204 288.648 490.624C288.648 491.536 289.488 492.112 291.012 492.112C292.56 492.112 293.388 491.56 293.388 490.636C293.388 489.712 292.5 489.16 291.192 489.16ZM293.556 492.46C292.944 492.892 292.092 493.108 291.024 493.108C289.956 493.108 289.104 492.892 288.48 492.472C287.856 492.052 287.544 491.476 287.544 490.732C287.544 489.76 288.18 488.992 289.2 488.656C288.276 488.356 287.82 487.624 287.82 486.772C287.82 485.38 288.996 484.492 291.012 484.492C293.04 484.492 294.216 485.38 294.216 486.772C294.216 487.576 293.772 488.188 292.884 488.596C293.952 488.92 294.48 489.616 294.48 490.684C294.48 491.44 294.168 492.04 293.556 492.46Z" fill="#76848D"/>
<line x1="-4.37114e-08" y1="474.5" x2="335" y2="474.5" stroke="#ABBEC9"/>
<path d="M14.8348 559.804L14.3868 558.754L17.7468 557.144H18.5448V567H17.3408V558.642L14.8348 559.804ZM21.4502 560.434L20.4282 560.07C20.7782 558.334 22.0942 557.088 24.1802 557.088C26.1962 557.088 27.4282 558.25 27.4282 560.028C27.4282 560.966 27.0222 561.904 26.5182 562.576C26.2662 562.926 25.9442 563.262 25.5662 563.612C24.7962 564.298 24.2502 564.662 23.4522 565.166L22.3742 565.838H27.7922V567H20.1622V566.048L22.2902 564.634C22.6682 564.396 22.9342 564.214 23.0882 564.102C23.2422 564.004 23.4942 563.822 23.8302 563.584C24.1662 563.346 24.4182 563.136 24.5862 562.982C24.7402 562.828 24.9502 562.632 25.1882 562.38C25.8322 561.68 26.0702 561.036 26.1402 560.154C26.1402 558.88 25.3142 558.306 24.0962 558.306C23.3402 558.306 22.7382 558.516 22.3042 558.936C21.8702 559.356 21.5762 559.86 21.4502 560.434ZM29.7005 567C29.1825 567.056 28.7905 566.762 28.7905 566.258C28.7905 565.768 29.0985 565.46 29.6445 565.46C30.2605 565.46 30.6665 565.88 30.6665 566.664C30.6665 568.064 29.8965 568.778 28.8745 569.016L28.5805 568.358C28.8885 568.274 29.1685 568.106 29.4205 567.84C29.6585 567.574 29.7565 567.294 29.7005 567ZM32.805 560.434L31.783 560.07C32.133 558.334 33.449 557.088 35.535 557.088C37.551 557.088 38.783 558.25 38.783 560.028C38.783 560.966 38.377 561.904 37.873 562.576C37.621 562.926 37.299 563.262 36.921 563.612C36.151 564.298 35.605 564.662 34.807 565.166L33.729 565.838H39.147V567H31.517V566.048L33.645 564.634C34.023 564.396 34.289 564.214 34.443 564.102C34.597 564.004 34.849 563.822 35.185 563.584C35.521 563.346 35.773 563.136 35.941 562.982C36.095 562.828 36.305 562.632 36.543 562.38C37.187 561.68 37.425 561.036 37.495 560.154C37.495 558.88 36.669 558.306 35.451 558.306C34.695 558.306 34.093 558.516 33.659 558.936C33.225 559.356 32.931 559.86 32.805 560.434Z" fill="#1A3341"/>
<path d="M11 578.667C11 577.746 11.7462 577 12.6667 577H41.3333C42.2538 577 43 577.746 43 578.667V699H11V578.667Z" fill="url(#paint49_linear_7006_19193)"/>
<path opacity="0.2" d="M21 577H33V699H21V577Z" fill="url(#paint50_linear_7006_19193)"/>
<path opacity="0.04" d="M33 577H41.3333C42.2538 577 43 577.746 43 578.667V699H33V577Z" fill="#0D262C"/>
<path opacity="0.5" d="M11 578.667C11 577.746 11.7462 577 12.6667 577H21V699H11V578.667Z" fill="url(#paint51_linear_7006_19193)"/>
<path d="M95.1219 554.804L94.6739 553.754L98.0339 552.144H98.8319V562H97.6279V553.642L95.1219 554.804ZM101.737 555.434L100.715 555.07C101.065 553.334 102.381 552.088 104.467 552.088C106.483 552.088 107.715 553.25 107.715 555.028C107.715 555.966 107.309 556.904 106.805 557.576C106.553 557.926 106.231 558.262 105.853 558.612C105.083 559.298 104.537 559.662 103.739 560.166L102.661 560.838H108.079V562H100.449V561.048L102.577 559.634C102.955 559.396 103.221 559.214 103.375 559.102C103.529 559.004 103.781 558.822 104.117 558.584C104.453 558.346 104.705 558.136 104.873 557.982C105.027 557.828 105.237 557.632 105.475 557.38C106.119 556.68 106.357 556.036 106.427 555.154C106.427 553.88 105.601 553.306 104.383 553.306C103.627 553.306 103.025 553.516 102.591 553.936C102.157 554.356 101.863 554.86 101.737 555.434ZM109.988 562C109.47 562.056 109.078 561.762 109.078 561.258C109.078 560.768 109.386 560.46 109.932 560.46C110.548 560.46 110.954 560.88 110.954 561.664C110.954 563.064 110.184 563.778 109.162 564.016L108.868 563.358C109.176 563.274 109.456 563.106 109.708 562.84C109.946 562.574 110.044 562.294 109.988 562ZM117.586 553.39H111.65V552.2H119.084V552.998L114.212 562H112.882L117.586 553.39Z" fill="#1A3341"/>
<path d="M91 573.667C91 572.746 91.7462 572 92.6667 572H121.333C122.254 572 123 572.746 123 573.667V699H91V573.667Z" fill="url(#paint52_linear_7006_19193)"/>
<path opacity="0.2" d="M101 572H113V699H101V572Z" fill="url(#paint53_linear_7006_19193)"/>
<path opacity="0.04" d="M113 572H121.333C122.254 572 123 572.746 123 573.667V699H113V572Z" fill="#0D262C"/>
<path opacity="0.5" d="M91 573.667C91 572.746 91.7462 572 92.6667 572H101V699H91V573.667Z" fill="url(#paint54_linear_7006_19193)"/>
<path d="M174.247 576.804L173.799 575.754L177.159 574.144H177.957V584H176.753V575.642L174.247 576.804ZM179.742 579.1C179.742 577.588 180.092 576.37 180.806 575.46C181.506 574.55 182.542 574.088 183.9 574.088C186.686 574.088 188.072 575.922 188.072 579.1C188.072 580.626 187.722 581.83 187.036 582.74C186.336 583.65 185.3 584.112 183.928 584.112C182.612 584.112 181.59 583.65 180.848 582.726C180.106 581.802 179.742 580.598 179.742 579.1ZM181.03 579.1C181.03 581.494 182.122 582.922 183.928 582.922C185.832 582.922 186.784 581.648 186.784 579.1C186.784 576.552 185.818 575.278 183.9 575.278C181.954 575.278 181.03 576.678 181.03 579.1ZM190.056 584C189.538 584.056 189.146 583.762 189.146 583.258C189.146 582.768 189.454 582.46 190 582.46C190.616 582.46 191.022 582.88 191.022 583.664C191.022 585.064 190.252 585.778 189.23 586.016L188.936 585.358C189.244 585.274 189.524 585.106 189.776 584.84C190.014 584.574 190.112 584.294 190.056 584ZM193.468 579.492L192.46 579.226L193.034 574.2H199.194V575.39H194.112L193.748 578.022C194.238 577.658 194.98 577.476 195.974 577.476C197.122 577.476 198.018 577.784 198.676 578.386C199.32 579.002 199.642 579.786 199.642 580.752C199.642 581.718 199.278 582.53 198.564 583.16C197.836 583.804 196.926 584.126 195.848 584.126C194.014 584.126 192.488 583.258 191.858 581.732L192.978 581.256C193.384 582.194 194.434 582.936 195.848 582.936C197.458 582.936 198.354 582.012 198.354 580.794C198.354 579.492 197.304 578.652 195.638 578.652C194.742 578.652 194.014 578.932 193.468 579.492Z" fill="#1A3341"/>
<path d="M171 595.667C171 594.746 171.746 594 172.667 594H201.333C202.254 594 203 594.746 203 595.667V699H171V595.667Z" fill="url(#paint55_linear_7006_19193)"/>
<path opacity="0.2" d="M181 594H193V699H181V594Z" fill="url(#paint56_linear_7006_19193)"/>
<path opacity="0.04" d="M193 594H201.333C202.254 594 203 594.746 203 595.667V699H193V594Z" fill="#0D262C"/>
<path opacity="0.5" d="M171 595.667C171 594.746 171.746 594 172.667 594H181V699H171V595.667Z" fill="url(#paint57_linear_7006_19193)"/>
<path d="M254.363 579.804L253.915 578.754L257.275 577.144H258.073V587H256.869V578.642L254.363 579.804ZM259.859 582.1C259.859 580.588 260.209 579.37 260.923 578.46C261.623 577.55 262.659 577.088 264.017 577.088C266.803 577.088 268.189 578.922 268.189 582.1C268.189 583.626 267.839 584.83 267.153 585.74C266.453 586.65 265.417 587.112 264.045 587.112C262.729 587.112 261.707 586.65 260.965 585.726C260.223 584.802 259.859 583.598 259.859 582.1ZM261.147 582.1C261.147 584.494 262.239 585.922 264.045 585.922C265.949 585.922 266.901 584.648 266.901 582.1C266.901 579.552 265.935 578.278 264.017 578.278C262.071 578.278 261.147 579.678 261.147 582.1ZM270.172 587C269.654 587.056 269.262 586.762 269.262 586.258C269.262 585.768 269.57 585.46 270.116 585.46C270.732 585.46 271.138 585.88 271.138 586.664C271.138 588.064 270.368 588.778 269.346 589.016L269.052 588.358C269.36 588.274 269.64 588.106 269.892 587.84C270.13 587.574 270.228 587.294 270.172 587ZM273.277 580.434L272.255 580.07C272.605 578.334 273.921 577.088 276.007 577.088C278.023 577.088 279.255 578.25 279.255 580.028C279.255 580.966 278.849 581.904 278.345 582.576C278.093 582.926 277.771 583.262 277.393 583.612C276.623 584.298 276.077 584.662 275.279 585.166L274.201 585.838H279.619V587H271.989V586.048L274.117 584.634C274.495 584.396 274.761 584.214 274.915 584.102C275.069 584.004 275.321 583.822 275.657 583.584C275.993 583.346 276.245 583.136 276.413 582.982C276.567 582.828 276.777 582.632 277.015 582.38C277.659 581.68 277.897 581.036 277.967 580.154C277.967 578.88 277.141 578.306 275.923 578.306C275.167 578.306 274.565 578.516 274.131 578.936C273.697 579.356 273.403 579.86 273.277 580.434Z" fill="#1A3341"/>
<path d="M251 598.667C251 597.746 251.746 597 252.667 597H281.333C282.254 597 283 597.746 283 598.667V699H251V598.667Z" fill="url(#paint58_linear_7006_19193)"/>
<path opacity="0.2" d="M261 597H273V699H261V597Z" fill="url(#paint59_linear_7006_19193)"/>
<path opacity="0.04" d="M273 597H281.333C282.254 597 283 597.746 283 598.667V699H273V597Z" fill="#0D262C"/>
<path opacity="0.5" d="M251 598.667C251 597.746 251.746 597 252.667 597H261V699H251V598.667Z" fill="url(#paint60_linear_7006_19193)"/>
<path d="M54.8348 559.804L54.3868 558.754L57.7468 557.144H58.5448V567H57.3408V558.642L54.8348 559.804ZM61.4502 560.434L60.4282 560.07C60.7782 558.334 62.0942 557.088 64.1802 557.088C66.1962 557.088 67.4282 558.25 67.4282 560.028C67.4282 560.966 67.0222 561.904 66.5182 562.576C66.2662 562.926 65.9442 563.262 65.5662 563.612C64.7962 564.298 64.2502 564.662 63.4522 565.166L62.3742 565.838H67.7922V567H60.1622V566.048L62.2902 564.634C62.6682 564.396 62.9342 564.214 63.0882 564.102C63.2422 564.004 63.4942 563.822 63.8302 563.584C64.1662 563.346 64.4182 563.136 64.5862 562.982C64.7402 562.828 64.9502 562.632 65.1882 562.38C65.8322 561.68 66.0702 561.036 66.1402 560.154C66.1402 558.88 65.3142 558.306 64.0962 558.306C63.3402 558.306 62.7382 558.516 62.3042 558.936C61.8702 559.356 61.5762 559.86 61.4502 560.434ZM69.7005 567C69.1825 567.056 68.7905 566.762 68.7905 566.258C68.7905 565.768 69.0985 565.46 69.6445 565.46C70.2605 565.46 70.6665 565.88 70.6665 566.664C70.6665 568.064 69.8965 568.778 68.8745 569.016L68.5805 568.358C68.8885 568.274 69.1685 568.106 69.4205 567.84C69.6585 567.574 69.7565 567.294 69.7005 567ZM72.805 560.434L71.783 560.07C72.133 558.334 73.449 557.088 75.535 557.088C77.551 557.088 78.783 558.25 78.783 560.028C78.783 560.966 78.377 561.904 77.873 562.576C77.621 562.926 77.299 563.262 76.921 563.612C76.151 564.298 75.605 564.662 74.807 565.166L73.729 565.838H79.147V567H71.517V566.048L73.645 564.634C74.023 564.396 74.289 564.214 74.443 564.102C74.597 564.004 74.849 563.822 75.185 563.584C75.521 563.346 75.773 563.136 75.941 562.982C76.095 562.828 76.305 562.632 76.543 562.38C77.187 561.68 77.425 561.036 77.495 560.154C77.495 558.88 76.669 558.306 75.451 558.306C74.695 558.306 74.093 558.516 73.659 558.936C73.225 559.356 72.931 559.86 72.805 560.434Z" fill="#1A3341"/>
<path d="M51 578.667C51 577.746 51.7462 577 52.6667 577H81.3333C82.2538 577 83 577.746 83 578.667V699H51V578.667Z" fill="url(#paint61_linear_7006_19193)"/>
<path opacity="0.2" d="M61 577H73V699H61V577Z" fill="url(#paint62_linear_7006_19193)"/>
<path opacity="0.04" d="M73 577H81.3333C82.2538 577 83 577.746 83 578.667V699H73V577Z" fill="#0D262C"/>
<path opacity="0.5" d="M51 578.667C51 577.746 51.7462 577 52.6667 577H61V699H51V578.667Z" fill="url(#paint63_linear_7006_19193)"/>
<path d="M134.302 527.804L133.854 526.754L137.214 525.144H138.012V535H136.808V526.642L134.302 527.804ZM141.225 530.492L140.217 530.226L140.791 525.2H146.951V526.39H141.869L141.505 529.022C141.995 528.658 142.737 528.476 143.731 528.476C144.879 528.476 145.775 528.784 146.433 529.386C147.077 530.002 147.399 530.786 147.399 531.752C147.399 532.718 147.035 533.53 146.321 534.16C145.593 534.804 144.683 535.126 143.605 535.126C141.771 535.126 140.245 534.258 139.615 532.732L140.735 532.256C141.141 533.194 142.191 533.936 143.605 533.936C145.215 533.936 146.111 533.012 146.111 531.794C146.111 530.492 145.061 529.652 143.395 529.652C142.499 529.652 141.771 529.932 141.225 530.492ZM149.4 535C148.882 535.056 148.49 534.762 148.49 534.258C148.49 533.768 148.798 533.46 149.344 533.46C149.96 533.46 150.366 533.88 150.366 534.664C150.366 536.064 149.596 536.778 148.574 537.016L148.28 536.358C148.588 536.274 148.868 536.106 149.12 535.84C149.358 535.574 149.456 535.294 149.4 535ZM158.146 535H156.928V532.998H150.936V532.186L157.068 525.2H158.146V531.864H159.966V532.998H158.146V535ZM156.928 527.16L152.616 531.864H156.928V527.16Z" fill="#1A3341"/>
<path d="M131 546.667C131 545.746 131.746 545 132.667 545H161.333C162.254 545 163 545.746 163 546.667V699H131V546.667Z" fill="url(#paint64_linear_7006_19193)"/>
<path opacity="0.2" d="M141 545H153V699H141V545Z" fill="url(#paint65_linear_7006_19193)"/>
<path opacity="0.04" d="M153 545H161.333C162.254 545 163 545.746 163 546.667V699H153V545Z" fill="#0D262C"/>
<path opacity="0.5" d="M131 546.667C131 545.746 131.746 545 132.667 545H141V699H131V546.667Z" fill="url(#paint66_linear_7006_19193)"/>
<path d="M214.384 547.804L213.936 546.754L217.296 545.144H218.094V555H216.89V546.642L214.384 547.804ZM220.845 548.056L219.795 547.58C220.313 546.068 221.671 545.074 223.701 545.074C224.667 545.074 225.465 545.298 226.081 545.746C226.697 546.194 227.005 546.796 227.005 547.538C227.005 548.672 226.403 549.512 225.283 549.834C226.361 549.904 227.229 550.716 227.229 552.172C227.229 553.096 226.893 553.824 226.221 554.342C225.549 554.86 224.695 555.126 223.645 555.126C221.503 555.126 220.019 554.104 219.529 552.494L220.663 552.004C221.265 553.278 222.287 553.922 223.729 553.922C225.087 553.922 225.941 553.292 225.941 552.186C225.941 551.108 225.101 550.562 223.421 550.562H222.329V549.4H223.197C224.723 549.4 225.717 548.714 225.717 547.776C225.717 546.81 224.919 546.264 223.645 546.264C222.147 546.264 221.237 547.034 220.845 548.056ZM229.318 555C228.8 555.056 228.408 554.762 228.408 554.258C228.408 553.768 228.716 553.46 229.262 553.46C229.878 553.46 230.284 553.88 230.284 554.664C230.284 556.064 229.514 556.778 228.492 557.016L228.198 556.358C228.506 556.274 228.786 556.106 229.038 555.84C229.276 555.574 229.374 555.294 229.318 555ZM238.064 555H236.846V552.998H230.854V552.186L236.986 545.2H238.064V551.864H239.884V552.998H238.064V555ZM236.846 547.16L232.534 551.864H236.846V547.16Z" fill="#1A3341"/>
<path d="M211 566.667C211 565.746 211.746 565 212.667 565H241.333C242.254 565 243 565.746 243 566.667V699H211V566.667Z" fill="url(#paint67_linear_7006_19193)"/>
<path opacity="0.2" d="M221 565H233V699H221V565Z" fill="url(#paint68_linear_7006_19193)"/>
<path opacity="0.04" d="M233 565H241.333C242.254 565 243 565.746 243 566.667V699H233V565Z" fill="#0D262C"/>
<path opacity="0.5" d="M211 566.667C211 565.746 211.746 565 212.667 565H221V699H211V566.667Z" fill="url(#paint69_linear_7006_19193)"/>
<path d="M296.646 564.804L296.198 563.754L299.558 562.144H300.356V572H299.152V563.642L296.646 564.804ZM302.03 564.804L301.582 563.754L304.942 562.144H305.74V572H304.536V563.642L302.03 564.804ZM308.463 572C307.945 572.056 307.553 571.762 307.553 571.258C307.553 570.768 307.861 570.46 308.407 570.46C309.023 570.46 309.429 570.88 309.429 571.664C309.429 573.064 308.659 573.778 307.637 574.016L307.343 573.358C307.651 573.274 307.931 573.106 308.183 572.84C308.421 572.574 308.519 572.294 308.463 572ZM316.062 563.39H310.126V562.2H317.56V562.998L312.688 572H311.358L316.062 563.39Z" fill="#1A3341"/>
<path d="M291 583.667C291 582.746 291.746 582 292.667 582H321.333C322.254 582 323 582.746 323 583.667V699H291V583.667Z" fill="url(#paint70_linear_7006_19193)"/>
<path opacity="0.2" d="M301 582H313V699H301V582Z" fill="url(#paint71_linear_7006_19193)"/>
<path opacity="0.04" d="M313 582H321.333C322.254 582 323 582.746 323 583.667V699H313V582Z" fill="#0D262C"/>
<path opacity="0.5" d="M291 583.667C291 582.746 291.746 582 292.667 582H301V699H291V583.667Z" fill="url(#paint72_linear_7006_19193)"/>
<path d="M39.4959 712.8C39.4959 711.504 39.7959 710.46 40.4079 709.68C41.0079 708.9 41.8959 708.504 43.0599 708.504C45.4479 708.504 46.6359 710.076 46.6359 712.8C46.6359 714.108 46.3359 715.14 45.7479 715.92C45.1479 716.7 44.2599 717.096 43.0839 717.096C41.9559 717.096 41.0799 716.7 40.4439 715.908C39.8079 715.116 39.4959 714.084 39.4959 712.8ZM40.5999 712.8C40.5999 714.852 41.5359 716.076 43.0839 716.076C44.7159 716.076 45.5319 714.984 45.5319 712.8C45.5319 710.616 44.7039 709.524 43.0599 709.524C41.3919 709.524 40.5999 710.724 40.5999 712.8ZM54.5162 712.644C54.5162 714.072 54.1802 715.176 53.4962 715.944C52.8122 716.724 51.9002 717.108 50.7602 717.108C49.3682 717.108 48.2762 716.52 47.7362 715.62L48.6002 715.02C49.0802 715.692 49.9562 716.076 50.9042 716.076C51.6842 716.076 52.3082 715.764 52.8002 715.14C53.2922 714.528 53.4962 713.76 53.4362 712.848C53.0402 713.76 52.0442 714.432 50.7122 714.432C49.7762 714.432 49.0082 714.168 48.4082 713.628C47.7962 713.1 47.4962 712.404 47.4962 711.552C47.4962 710.616 47.8202 709.872 48.4682 709.32C49.1162 708.768 49.9802 708.492 51.0482 708.492C53.2082 708.492 54.5162 710.004 54.5162 712.644ZM53.2562 711.516C53.0762 710.4 52.3082 709.524 50.9282 709.524C49.4882 709.524 48.6002 710.268 48.6002 711.516C48.6002 712.704 49.5002 713.4 50.9042 713.4C51.5402 713.4 52.0802 713.208 52.5002 712.824C52.9202 712.44 53.1722 712.008 53.2562 711.516Z" fill="#76848D"/>
<path d="M121.035 710.832L120.651 709.932L123.531 708.552H124.215V717H123.183V709.836L121.035 710.832ZM125.745 712.8C125.745 711.504 126.045 710.46 126.657 709.68C127.257 708.9 128.145 708.504 129.309 708.504C131.697 708.504 132.885 710.076 132.885 712.8C132.885 714.108 132.585 715.14 131.997 715.92C131.397 716.7 130.509 717.096 129.333 717.096C128.205 717.096 127.329 716.7 126.693 715.908C126.057 715.116 125.745 714.084 125.745 712.8ZM126.849 712.8C126.849 714.852 127.785 716.076 129.333 716.076C130.965 716.076 131.781 714.984 131.781 712.8C131.781 710.616 130.953 709.524 129.309 709.524C127.641 709.524 126.849 710.724 126.849 712.8Z" fill="#76848D"/>
<path d="M202.746 710.832L202.362 709.932L205.242 708.552H205.926V717H204.894V709.836L202.746 710.832ZM207.36 710.832L206.976 709.932L209.856 708.552H210.54V717H209.508V709.836L207.36 710.832Z" fill="#76848D"/>
<path d="M281.439 710.832L281.055 709.932L283.935 708.552H284.619V717H283.587V709.836L281.439 710.832ZM287.109 711.372L286.233 711.06C286.533 709.572 287.661 708.504 289.449 708.504C291.177 708.504 292.233 709.5 292.233 711.024C292.233 711.828 291.885 712.632 291.453 713.208C291.237 713.508 290.961 713.796 290.637 714.096C289.977 714.684 289.509 714.996 288.825 715.428L287.901 716.004H292.545V717H286.005V716.184L287.829 714.972C288.153 714.768 288.381 714.612 288.513 714.516C288.645 714.432 288.861 714.276 289.149 714.072C289.437 713.868 289.653 713.688 289.797 713.556C289.929 713.424 290.109 713.256 290.313 713.04C290.865 712.44 291.069 711.888 291.129 711.132C291.129 710.04 290.421 709.548 289.377 709.548C288.729 709.548 288.213 709.728 287.841 710.088C287.469 710.448 287.217 710.88 287.109 711.372Z" fill="#76848D"/>
<line x1="-4.37114e-08" y1="698.5" x2="335" y2="698.5" stroke="#ABBEC9"/>
<defs>
<linearGradient id="paint0_linear_7006_19193" x1="0.476191" y1="12" x2="10" y2="12" gradientUnits="userSpaceOnUse">
<stop stop-color="#CEE8EF"/>
<stop offset="1" stop-color="#CEE8EF"/>
</linearGradient>
<linearGradient id="paint1_linear_7006_19193" x1="27" y1="212" x2="27" y2="137" gradientUnits="userSpaceOnUse">
<stop stop-color="#CDE3E9"/>
<stop offset="1" stop-color="#D3E8ED"/>
</linearGradient>
<linearGradient id="paint2_linear_7006_19193" x1="27" y1="212" x2="27" y2="137" gradientUnits="userSpaceOnUse">
<stop stop-color="white" stop-opacity="0"/>
<stop offset="0.739583" stop-color="white"/>
</linearGradient>
<linearGradient id="paint3_linear_7006_19193" x1="16" y1="358.25" x2="16" y2="137" gradientUnits="userSpaceOnUse">
<stop stop-color="white" stop-opacity="0.05"/>
<stop offset="0.75" stop-color="white" stop-opacity="0.8"/>
</linearGradient>
<linearGradient id="paint4_linear_7006_19193" x1="103" y1="224" x2="103" y2="137" gradientUnits="userSpaceOnUse">
<stop stop-color="#CDE3E9"/>
<stop offset="1" stop-color="#D3E8ED"/>
</linearGradient>
<linearGradient id="paint5_linear_7006_19193" x1="103" y1="224" x2="103" y2="137" gradientUnits="userSpaceOnUse">
<stop stop-color="white" stop-opacity="0"/>
<stop offset="0.739583" stop-color="white"/>
</linearGradient>
<linearGradient id="paint6_linear_7006_19193" x1="92" y1="393.65" x2="92" y2="137" gradientUnits="userSpaceOnUse">
<stop stop-color="white" stop-opacity="0.05"/>
<stop offset="0.75" stop-color="white" stop-opacity="0.8"/>
</linearGradient>
<linearGradient id="paint7_linear_7006_19193" x1="187" y1="185" x2="187" y2="137" gradientUnits="userSpaceOnUse">
<stop stop-color="#CDE3E9"/>
<stop offset="1" stop-color="#D3E8ED"/>
</linearGradient>
<linearGradient id="paint8_linear_7006_19193" x1="187" y1="185" x2="187" y2="137" gradientUnits="userSpaceOnUse">
<stop stop-color="white" stop-opacity="0"/>
<stop offset="0.739583" stop-color="white"/>
</linearGradient>
<linearGradient id="paint9_linear_7006_19193" x1="176" y1="278.6" x2="176" y2="137" gradientUnits="userSpaceOnUse">
<stop stop-color="white" stop-opacity="0.05"/>
<stop offset="0.75" stop-color="white" stop-opacity="0.8"/>
</linearGradient>
<linearGradient id="paint10_linear_7006_19193" x1="267" y1="55" x2="267" y2="137" gradientUnits="userSpaceOnUse">
<stop stop-color="#CDE3E9"/>
<stop offset="1" stop-color="#D3E8ED"/>
</linearGradient>
<linearGradient id="paint11_linear_7006_19193" x1="267" y1="54.9999" x2="267" y2="137" gradientUnits="userSpaceOnUse">
<stop stop-color="white" stop-opacity="0"/>
<stop offset="0.739583" stop-color="white"/>
</linearGradient>
<linearGradient id="paint12_linear_7006_19193" x1="256" y1="-104.9" x2="256" y2="137" gradientUnits="userSpaceOnUse">
<stop stop-color="white" stop-opacity="0.05"/>
<stop offset="0.75" stop-color="white" stop-opacity="0.8"/>
</linearGradient>
<linearGradient id="paint13_linear_7006_19193" x1="67" y1="168" x2="67" y2="137" gradientUnits="userSpaceOnUse">
<stop stop-color="#6D73F9"/>
<stop offset="1" stop-color="#9BB8F1"/>
</linearGradient>
<linearGradient id="paint14_linear_7006_19193" x1="67" y1="168" x2="67" y2="137" gradientUnits="userSpaceOnUse">
<stop stop-color="white" stop-opacity="0"/>
<stop offset="0.739583" stop-color="white"/>
</linearGradient>
<linearGradient id="paint15_linear_7006_19193" x1="56" y1="228.45" x2="56" y2="137" gradientUnits="userSpaceOnUse">
<stop stop-color="white" stop-opacity="0.05"/>
<stop offset="0.75" stop-color="white" stop-opacity="0.8"/>
</linearGradient>
<linearGradient id="paint16_linear_7006_19193" x1="147" y1="178" x2="147" y2="137" gradientUnits="userSpaceOnUse">
<stop stop-color="#6D73F9"/>
<stop offset="1" stop-color="#9BB8F1"/>
</linearGradient>
<linearGradient id="paint17_linear_7006_19193" x1="147" y1="178" x2="147" y2="137" gradientUnits="userSpaceOnUse">
<stop stop-color="white" stop-opacity="0"/>
<stop offset="0.739583" stop-color="white"/>
</linearGradient>
<linearGradient id="paint18_linear_7006_19193" x1="136" y1="257.95" x2="136" y2="137" gradientUnits="userSpaceOnUse">
<stop stop-color="white" stop-opacity="0.05"/>
<stop offset="0.75" stop-color="white" stop-opacity="0.8"/>
</linearGradient>
<linearGradient id="paint19_linear_7006_19193" x1="227" y1="173" x2="227" y2="137" gradientUnits="userSpaceOnUse">
<stop stop-color="#6D73F9"/>
<stop offset="1" stop-color="#9BB8F1"/>
</linearGradient>
<linearGradient id="paint20_linear_7006_19193" x1="227" y1="173" x2="227" y2="137" gradientUnits="userSpaceOnUse">
<stop stop-color="white" stop-opacity="0"/>
<stop offset="0.739583" stop-color="white"/>
</linearGradient>
<linearGradient id="paint21_linear_7006_19193" x1="216" y1="243.2" x2="216" y2="137" gradientUnits="userSpaceOnUse">
<stop stop-color="white" stop-opacity="0.05"/>
<stop offset="0.75" stop-color="white" stop-opacity="0.8"/>
</linearGradient>
<linearGradient id="paint22_linear_7006_19193" x1="307" y1="32" x2="307" y2="137" gradientUnits="userSpaceOnUse">
<stop stop-color="#6D73F9"/>
<stop offset="1" stop-color="#9BB8F1"/>
</linearGradient>
<linearGradient id="paint23_linear_7006_19193" x1="307" y1="31.9999" x2="307" y2="137" gradientUnits="userSpaceOnUse">
<stop stop-color="white" stop-opacity="0"/>
<stop offset="0.739583" stop-color="white"/>
</linearGradient>
<linearGradient id="paint24_linear_7006_19193" x1="296" y1="-172.75" x2="296" y2="137" gradientUnits="userSpaceOnUse">
<stop stop-color="white" stop-opacity="0.05"/>
<stop offset="0.75" stop-color="white" stop-opacity="0.8"/>
</linearGradient>
<linearGradient id="paint25_linear_7006_19193" x1="26" y1="379" x2="26" y2="475" gradientUnits="userSpaceOnUse">
<stop stop-color="#CDE3E9"/>
<stop offset="1" stop-color="#D3E8ED"/>
</linearGradient>
<linearGradient id="paint26_linear_7006_19193" x1="26" y1="379" x2="26" y2="475" gradientUnits="userSpaceOnUse">
<stop stop-color="white" stop-opacity="0"/>
<stop offset="0.739583" stop-color="white"/>
</linearGradient>
<linearGradient id="paint27_linear_7006_19193" x1="15" y1="191.8" x2="15" y2="475" gradientUnits="userSpaceOnUse">
<stop stop-color="white" stop-opacity="0.05"/>
<stop offset="0.75" stop-color="white" stop-opacity="0.8"/>
</linearGradient>
<linearGradient id="paint28_linear_7006_19193" x1="107" y1="372" x2="107" y2="475" gradientUnits="userSpaceOnUse">
<stop stop-color="#CDE3E9"/>
<stop offset="1" stop-color="#D3E8ED"/>
</linearGradient>
<linearGradient id="paint29_linear_7006_19193" x1="107" y1="372" x2="107" y2="475" gradientUnits="userSpaceOnUse">
<stop stop-color="white" stop-opacity="0"/>
<stop offset="0.739583" stop-color="white"/>
</linearGradient>
<linearGradient id="paint30_linear_7006_19193" x1="96" y1="171.15" x2="96" y2="475" gradientUnits="userSpaceOnUse">
<stop stop-color="white" stop-opacity="0.05"/>
<stop offset="0.75" stop-color="white" stop-opacity="0.8"/>
</linearGradient>
<linearGradient id="paint31_linear_7006_19193" x1="187" y1="367" x2="187" y2="475" gradientUnits="userSpaceOnUse">
<stop stop-color="#CDE3E9"/>
<stop offset="1" stop-color="#D3E8ED"/>
</linearGradient>
<linearGradient id="paint32_linear_7006_19193" x1="187" y1="367" x2="187" y2="475" gradientUnits="userSpaceOnUse">
<stop stop-color="white" stop-opacity="0"/>
<stop offset="0.739583" stop-color="white"/>
</linearGradient>
<linearGradient id="paint33_linear_7006_19193" x1="176" y1="156.4" x2="176" y2="475" gradientUnits="userSpaceOnUse">
<stop stop-color="white" stop-opacity="0.05"/>
<stop offset="0.75" stop-color="white" stop-opacity="0.8"/>
</linearGradient>
<linearGradient id="paint34_linear_7006_19193" x1="267" y1="365" x2="267" y2="475" gradientUnits="userSpaceOnUse">
<stop stop-color="#CDE3E9"/>
<stop offset="1" stop-color="#D3E8ED"/>
</linearGradient>
<linearGradient id="paint35_linear_7006_19193" x1="267" y1="365" x2="267" y2="475" gradientUnits="userSpaceOnUse">
<stop stop-color="white" stop-opacity="0"/>
<stop offset="0.739583" stop-color="white"/>
</linearGradient>
<linearGradient id="paint36_linear_7006_19193" x1="256" y1="150.5" x2="256" y2="475" gradientUnits="userSpaceOnUse">
<stop stop-color="white" stop-opacity="0.05"/>
<stop offset="0.75" stop-color="white" stop-opacity="0.8"/>
</linearGradient>
<linearGradient id="paint37_linear_7006_19193" x1="67" y1="340" x2="67" y2="475" gradientUnits="userSpaceOnUse">
<stop stop-color="#6D73F9"/>
<stop offset="1" stop-color="#9BB8F1"/>
</linearGradient>
<linearGradient id="paint38_linear_7006_19193" x1="67" y1="340" x2="67" y2="475" gradientUnits="userSpaceOnUse">
<stop stop-color="white" stop-opacity="0"/>
<stop offset="0.739583" stop-color="white"/>
</linearGradient>
<linearGradient id="paint39_linear_7006_19193" x1="56" y1="76.75" x2="56" y2="475" gradientUnits="userSpaceOnUse">
<stop stop-color="white" stop-opacity="0.05"/>
<stop offset="0.75" stop-color="white" stop-opacity="0.8"/>
</linearGradient>
<linearGradient id="paint40_linear_7006_19193" x1="147" y1="347" x2="147" y2="475" gradientUnits="userSpaceOnUse">
<stop stop-color="#6D73F9"/>
<stop offset="1" stop-color="#9BB8F1"/>
</linearGradient>
<linearGradient id="paint41_linear_7006_19193" x1="147" y1="347" x2="147" y2="475" gradientUnits="userSpaceOnUse">
<stop stop-color="white" stop-opacity="0"/>
<stop offset="0.739583" stop-color="white"/>
</linearGradient>
<linearGradient id="paint42_linear_7006_19193" x1="136" y1="97.4" x2="136" y2="475" gradientUnits="userSpaceOnUse">
<stop stop-color="white" stop-opacity="0.05"/>
<stop offset="0.75" stop-color="white" stop-opacity="0.8"/>
</linearGradient>
<linearGradient id="paint43_linear_7006_19193" x1="227" y1="392" x2="227" y2="475" gradientUnits="userSpaceOnUse">
<stop stop-color="#6D73F9"/>
<stop offset="1" stop-color="#9BB8F1"/>
</linearGradient>
<linearGradient id="paint44_linear_7006_19193" x1="227" y1="392" x2="227" y2="475" gradientUnits="userSpaceOnUse">
<stop stop-color="white" stop-opacity="0"/>
<stop offset="0.739583" stop-color="white"/>
</linearGradient>
<linearGradient id="paint45_linear_7006_19193" x1="216" y1="230.15" x2="216" y2="475" gradientUnits="userSpaceOnUse">
<stop stop-color="white" stop-opacity="0.05"/>
<stop offset="0.75" stop-color="white" stop-opacity="0.8"/>
</linearGradient>
<linearGradient id="paint46_linear_7006_19193" x1="307" y1="363" x2="307" y2="475" gradientUnits="userSpaceOnUse">
<stop stop-color="#6D73F9"/>
<stop offset="1" stop-color="#9BB8F1"/>
</linearGradient>
<linearGradient id="paint47_linear_7006_19193" x1="307" y1="363" x2="307" y2="475" gradientUnits="userSpaceOnUse">
<stop stop-color="white" stop-opacity="0"/>
<stop offset="0.739583" stop-color="white"/>
</linearGradient>
<linearGradient id="paint48_linear_7006_19193" x1="296" y1="144.6" x2="296" y2="475" gradientUnits="userSpaceOnUse">
<stop stop-color="white" stop-opacity="0.05"/>
<stop offset="0.75" stop-color="white" stop-opacity="0.8"/>
</linearGradient>
<linearGradient id="paint49_linear_7006_19193" x1="27" y1="577" x2="27" y2="699" gradientUnits="userSpaceOnUse">
<stop stop-color="#CDE3E9"/>
<stop offset="1" stop-color="#D3E8ED"/>
</linearGradient>
<linearGradient id="paint50_linear_7006_19193" x1="27" y1="577" x2="27" y2="699" gradientUnits="userSpaceOnUse">
<stop stop-color="white" stop-opacity="0"/>
<stop offset="0.739583" stop-color="white"/>
</linearGradient>
<linearGradient id="paint51_linear_7006_19193" x1="16" y1="339.1" x2="16" y2="699" gradientUnits="userSpaceOnUse">
<stop stop-color="white" stop-opacity="0.05"/>
<stop offset="0.75" stop-color="white" stop-opacity="0.8"/>
</linearGradient>
<linearGradient id="paint52_linear_7006_19193" x1="107" y1="572" x2="107" y2="699" gradientUnits="userSpaceOnUse">
<stop stop-color="#CDE3E9"/>
<stop offset="1" stop-color="#D3E8ED"/>
</linearGradient>
<linearGradient id="paint53_linear_7006_19193" x1="107" y1="572" x2="107" y2="699" gradientUnits="userSpaceOnUse">
<stop stop-color="white" stop-opacity="0"/>
<stop offset="0.739583" stop-color="white"/>
</linearGradient>
<linearGradient id="paint54_linear_7006_19193" x1="96" y1="324.35" x2="96" y2="699" gradientUnits="userSpaceOnUse">
<stop stop-color="white" stop-opacity="0.05"/>
<stop offset="0.75" stop-color="white" stop-opacity="0.8"/>
</linearGradient>
<linearGradient id="paint55_linear_7006_19193" x1="187" y1="594" x2="187" y2="699" gradientUnits="userSpaceOnUse">
<stop stop-color="#CDE3E9"/>
<stop offset="1" stop-color="#D3E8ED"/>
</linearGradient>
<linearGradient id="paint56_linear_7006_19193" x1="187" y1="594" x2="187" y2="699" gradientUnits="userSpaceOnUse">
<stop stop-color="white" stop-opacity="0"/>
<stop offset="0.739583" stop-color="white"/>
</linearGradient>
<linearGradient id="paint57_linear_7006_19193" x1="176" y1="389.25" x2="176" y2="699" gradientUnits="userSpaceOnUse">
<stop stop-color="white" stop-opacity="0.05"/>
<stop offset="0.75" stop-color="white" stop-opacity="0.8"/>
</linearGradient>
<linearGradient id="paint58_linear_7006_19193" x1="267" y1="597" x2="267" y2="699" gradientUnits="userSpaceOnUse">
<stop stop-color="#CDE3E9"/>
<stop offset="1" stop-color="#D3E8ED"/>
</linearGradient>
<linearGradient id="paint59_linear_7006_19193" x1="267" y1="597" x2="267" y2="699" gradientUnits="userSpaceOnUse">
<stop stop-color="white" stop-opacity="0"/>
<stop offset="0.739583" stop-color="white"/>
</linearGradient>
<linearGradient id="paint60_linear_7006_19193" x1="256" y1="398.1" x2="256" y2="699" gradientUnits="userSpaceOnUse">
<stop stop-color="white" stop-opacity="0.05"/>
<stop offset="0.75" stop-color="white" stop-opacity="0.8"/>
</linearGradient>
<linearGradient id="paint61_linear_7006_19193" x1="67" y1="577" x2="67" y2="699" gradientUnits="userSpaceOnUse">
<stop stop-color="#6D73F9"/>
<stop offset="1" stop-color="#9BB8F1"/>
</linearGradient>
<linearGradient id="paint62_linear_7006_19193" x1="67" y1="577" x2="67" y2="699" gradientUnits="userSpaceOnUse">
<stop stop-color="white" stop-opacity="0"/>
<stop offset="0.739583" stop-color="white"/>
</linearGradient>
<linearGradient id="paint63_linear_7006_19193" x1="56" y1="339.1" x2="56" y2="699" gradientUnits="userSpaceOnUse">
<stop stop-color="white" stop-opacity="0.05"/>
<stop offset="0.75" stop-color="white" stop-opacity="0.8"/>
</linearGradient>
<linearGradient id="paint64_linear_7006_19193" x1="147" y1="545" x2="147" y2="699" gradientUnits="userSpaceOnUse">
<stop stop-color="#6D73F9"/>
<stop offset="1" stop-color="#9BB8F1"/>
</linearGradient>
<linearGradient id="paint65_linear_7006_19193" x1="147" y1="545" x2="147" y2="699" gradientUnits="userSpaceOnUse">
<stop stop-color="white" stop-opacity="0"/>
<stop offset="0.739583" stop-color="white"/>
</linearGradient>
<linearGradient id="paint66_linear_7006_19193" x1="136" y1="244.7" x2="136" y2="699" gradientUnits="userSpaceOnUse">
<stop stop-color="white" stop-opacity="0.05"/>
<stop offset="0.75" stop-color="white" stop-opacity="0.8"/>
</linearGradient>
<linearGradient id="paint67_linear_7006_19193" x1="227" y1="565" x2="227" y2="699" gradientUnits="userSpaceOnUse">
<stop stop-color="#6D73F9"/>
<stop offset="1" stop-color="#9BB8F1"/>
</linearGradient>
<linearGradient id="paint68_linear_7006_19193" x1="227" y1="565" x2="227" y2="699" gradientUnits="userSpaceOnUse">
<stop stop-color="white" stop-opacity="0"/>
<stop offset="0.739583" stop-color="white"/>
</linearGradient>
<linearGradient id="paint69_linear_7006_19193" x1="216" y1="303.7" x2="216" y2="699" gradientUnits="userSpaceOnUse">
<stop stop-color="white" stop-opacity="0.05"/>
<stop offset="0.75" stop-color="white" stop-opacity="0.8"/>
</linearGradient>
<linearGradient id="paint70_linear_7006_19193" x1="307" y1="582" x2="307" y2="699" gradientUnits="userSpaceOnUse">
<stop stop-color="#6D73F9"/>
<stop offset="1" stop-color="#9BB8F1"/>
</linearGradient>
<linearGradient id="paint71_linear_7006_19193" x1="307" y1="582" x2="307" y2="699" gradientUnits="userSpaceOnUse">
<stop stop-color="white" stop-opacity="0"/>
<stop offset="0.739583" stop-color="white"/>
</linearGradient>
<linearGradient id="paint72_linear_7006_19193" x1="296" y1="353.85" x2="296" y2="699" gradientUnits="userSpaceOnUse">
<stop stop-color="white" stop-opacity="0.05"/>
<stop offset="0.75" stop-color="white" stop-opacity="0.8"/>
</linearGradient>
</defs>
</svg>
