<svg width="1160" height="312" viewBox="0 0 1160 312" fill="none" xmlns="http://www.w3.org/2000/svg">
<g>
<rect width="1160" height="312" fill="white"/>
<line x1="20" y1="245.5" x2="1140" y2="245.5" stroke="#ABBEC9"/>
<path d="M1079.44 255.832L1079.05 254.932L1081.93 253.552H1082.62V262H1081.59V254.836L1079.44 255.832ZM1085.11 256.372L1084.23 256.06C1084.53 254.572 1085.66 253.504 1087.45 253.504C1089.18 253.504 1090.23 254.5 1090.23 256.024C1090.23 256.828 1089.89 257.632 1089.45 258.208C1089.24 258.508 1088.96 258.796 1088.64 259.096C1087.98 259.684 1087.51 259.996 1086.83 260.428L1085.9 261.004H1090.55V262H1084.01V261.184L1085.83 259.972C1086.15 259.768 1086.38 259.612 1086.51 259.516C1086.65 259.432 1086.86 259.276 1087.15 259.072C1087.44 258.868 1087.65 258.688 1087.8 258.556C1087.93 258.424 1088.11 258.256 1088.31 258.04C1088.87 257.44 1089.07 256.888 1089.13 256.132C1089.13 255.04 1088.42 254.548 1087.38 254.548C1086.73 254.548 1086.21 254.728 1085.84 255.088C1085.47 255.448 1085.22 255.88 1085.11 256.372Z" fill="#76848D"/>
<path d="M988.746 255.832L988.362 254.932L991.242 253.552H991.926V262H990.894V254.836L988.746 255.832ZM993.36 255.832L992.976 254.932L995.856 253.552H996.54V262H995.508V254.836L993.36 255.832Z" fill="#76848D"/>
<path d="M896.535 255.832L896.151 254.932L899.031 253.552H899.715V262H898.683V254.836L896.535 255.832ZM901.245 257.8C901.245 256.504 901.545 255.46 902.157 254.68C902.757 253.9 903.645 253.504 904.809 253.504C907.197 253.504 908.385 255.076 908.385 257.8C908.385 259.108 908.085 260.14 907.497 260.92C906.897 261.7 906.009 262.096 904.833 262.096C903.705 262.096 902.829 261.7 902.193 260.908C901.557 260.116 901.245 259.084 901.245 257.8ZM902.349 257.8C902.349 259.852 903.285 261.076 904.833 261.076C906.465 261.076 907.281 259.984 907.281 257.8C907.281 255.616 906.453 254.524 904.809 254.524C903.141 254.524 902.349 255.724 902.349 257.8Z" fill="#76848D"/>
<path d="M802.496 257.8C802.496 256.504 802.796 255.46 803.408 254.68C804.008 253.9 804.896 253.504 806.06 253.504C808.448 253.504 809.636 255.076 809.636 257.8C809.636 259.108 809.336 260.14 808.748 260.92C808.148 261.7 807.26 262.096 806.084 262.096C804.956 262.096 804.08 261.7 803.444 260.908C802.808 260.116 802.496 259.084 802.496 257.8ZM803.6 257.8C803.6 259.852 804.536 261.076 806.084 261.076C807.716 261.076 808.532 259.984 808.532 257.8C808.532 255.616 807.704 254.524 806.06 254.524C804.392 254.524 803.6 255.724 803.6 257.8ZM817.516 257.644C817.516 259.072 817.18 260.176 816.496 260.944C815.812 261.724 814.9 262.108 813.76 262.108C812.368 262.108 811.276 261.52 810.736 260.62L811.6 260.02C812.08 260.692 812.956 261.076 813.904 261.076C814.684 261.076 815.308 260.764 815.8 260.14C816.292 259.528 816.496 258.76 816.436 257.848C816.04 258.76 815.044 259.432 813.712 259.432C812.776 259.432 812.008 259.168 811.408 258.628C810.796 258.1 810.496 257.404 810.496 256.552C810.496 255.616 810.82 254.872 811.468 254.32C812.116 253.768 812.98 253.492 814.048 253.492C816.208 253.492 817.516 255.004 817.516 257.644ZM816.256 256.516C816.076 255.4 815.308 254.524 813.928 254.524C812.488 254.524 811.6 255.268 811.6 256.516C811.6 257.704 812.5 258.4 813.904 258.4C814.54 258.4 815.08 258.208 815.5 257.824C815.92 257.44 816.172 257.008 816.256 256.516Z" fill="#76848D"/>
<path d="M710.496 257.8C710.496 256.504 710.796 255.46 711.408 254.68C712.008 253.9 712.896 253.504 714.06 253.504C716.448 253.504 717.636 255.076 717.636 257.8C717.636 259.108 717.336 260.14 716.748 260.92C716.148 261.7 715.26 262.096 714.084 262.096C712.956 262.096 712.08 261.7 711.444 260.908C710.808 260.116 710.496 259.084 710.496 257.8ZM711.6 257.8C711.6 259.852 712.536 261.076 714.084 261.076C715.716 261.076 716.532 259.984 716.532 257.8C716.532 255.616 715.704 254.524 714.06 254.524C712.392 254.524 711.6 255.724 711.6 257.8ZM721.844 257.212H722.216C722.756 257.212 723.2 257.08 723.572 256.828C723.932 256.576 724.112 256.24 724.112 255.844C724.112 254.944 723.404 254.488 722 254.488C720.656 254.488 719.924 254.98 719.924 255.844C719.924 256.624 720.728 257.212 721.844 257.212ZM722.192 258.16H721.892C721.244 258.16 720.704 258.304 720.284 258.58C719.864 258.856 719.648 259.204 719.648 259.624C719.648 260.536 720.488 261.112 722.012 261.112C723.56 261.112 724.388 260.56 724.388 259.636C724.388 258.712 723.5 258.16 722.192 258.16ZM724.556 261.46C723.944 261.892 723.092 262.108 722.024 262.108C720.956 262.108 720.104 261.892 719.48 261.472C718.856 261.052 718.544 260.476 718.544 259.732C718.544 258.76 719.18 257.992 720.2 257.656C719.276 257.356 718.82 256.624 718.82 255.772C718.82 254.38 719.996 253.492 722.012 253.492C724.04 253.492 725.216 254.38 725.216 255.772C725.216 256.576 724.772 257.188 723.884 257.596C724.952 257.92 725.48 258.616 725.48 259.684C725.48 260.44 725.168 261.04 724.556 261.46Z" fill="#76848D"/>
<path d="M619.07 257.8C619.07 256.504 619.37 255.46 619.982 254.68C620.582 253.9 621.47 253.504 622.634 253.504C625.022 253.504 626.21 255.076 626.21 257.8C626.21 259.108 625.91 260.14 625.322 260.92C624.722 261.7 623.834 262.096 622.658 262.096C621.53 262.096 620.654 261.7 620.018 260.908C619.382 260.116 619.07 259.084 619.07 257.8ZM620.174 257.8C620.174 259.852 621.11 261.076 622.658 261.076C624.29 261.076 625.106 259.984 625.106 257.8C625.106 255.616 624.278 254.524 622.634 254.524C620.966 254.524 620.174 255.724 620.174 257.8ZM631.918 254.62H626.83V253.6H633.202V254.284L629.026 262H627.886L631.918 254.62Z" fill="#76848D"/>
<path d="M526.508 257.8C526.508 256.504 526.808 255.46 527.42 254.68C528.02 253.9 528.908 253.504 530.072 253.504C532.46 253.504 533.648 255.076 533.648 257.8C533.648 259.108 533.348 260.14 532.76 260.92C532.16 261.7 531.272 262.096 530.096 262.096C528.968 262.096 528.092 261.7 527.456 260.908C526.82 260.116 526.508 259.084 526.508 257.8ZM527.612 257.8C527.612 259.852 528.548 261.076 530.096 261.076C531.728 261.076 532.544 259.984 532.544 257.8C532.544 255.616 531.716 254.524 530.072 254.524C528.404 254.524 527.612 255.724 527.612 257.8ZM534.544 258.028C534.544 256.576 534.904 255.46 535.612 254.668C536.32 253.888 537.208 253.492 538.276 253.492C539.68 253.492 540.784 254.128 541.252 255.136L540.436 255.688C539.944 254.908 539.212 254.524 538.228 254.524C537.484 254.524 536.86 254.812 536.356 255.388C535.852 255.976 535.6 256.768 535.612 257.788C536.08 256.912 537.172 256.384 538.372 256.384C539.344 256.384 540.124 256.636 540.688 257.152C541.252 257.668 541.54 258.352 541.54 259.192C541.54 260.044 541.228 260.752 540.592 261.292C539.956 261.832 539.164 262.108 538.216 262.108C535.948 262.108 534.544 260.632 534.544 258.028ZM535.744 259.048C535.972 260.236 536.872 261.076 538.204 261.076C538.852 261.076 539.392 260.908 539.812 260.56C540.232 260.224 540.436 259.78 540.436 259.24C540.436 258.052 539.596 257.416 538.312 257.416C537.604 257.416 537.016 257.584 536.56 257.92C536.092 258.256 535.828 258.628 535.744 259.048Z" fill="#76848D"/>
<path d="M433.224 257.8C433.224 256.504 433.524 255.46 434.136 254.68C434.736 253.9 435.624 253.504 436.788 253.504C439.176 253.504 440.364 255.076 440.364 257.8C440.364 259.108 440.064 260.14 439.476 260.92C438.876 261.7 437.988 262.096 436.812 262.096C435.684 262.096 434.808 261.7 434.172 260.908C433.536 260.116 433.224 259.084 433.224 257.8ZM434.328 257.8C434.328 259.852 435.264 261.076 436.812 261.076C438.444 261.076 439.26 259.984 439.26 257.8C439.26 255.616 438.432 254.524 436.788 254.524C435.12 254.524 434.328 255.724 434.328 257.8ZM442.485 258.136L441.621 257.908L442.113 253.6H447.393V254.62H443.037L442.725 256.876C443.145 256.564 443.781 256.408 444.633 256.408C445.617 256.408 446.385 256.672 446.949 257.188C447.501 257.716 447.777 258.388 447.777 259.216C447.777 260.044 447.465 260.74 446.853 261.28C446.229 261.832 445.449 262.108 444.525 262.108C442.953 262.108 441.645 261.364 441.105 260.056L442.065 259.648C442.413 260.452 443.313 261.088 444.525 261.088C445.905 261.088 446.673 260.296 446.673 259.252C446.673 258.136 445.773 257.416 444.345 257.416C443.577 257.416 442.953 257.656 442.485 258.136Z" fill="#76848D"/>
<path d="M342.467 257.8C342.467 256.504 342.767 255.46 343.379 254.68C343.979 253.9 344.867 253.504 346.031 253.504C348.419 253.504 349.607 255.076 349.607 257.8C349.607 259.108 349.307 260.14 348.719 260.92C348.119 261.7 347.231 262.096 346.055 262.096C344.927 262.096 344.051 261.7 343.415 260.908C342.779 260.116 342.467 259.084 342.467 257.8ZM343.571 257.8C343.571 259.852 344.507 261.076 346.055 261.076C347.687 261.076 348.503 259.984 348.503 257.8C348.503 255.616 347.675 254.524 346.031 254.524C344.363 254.524 343.571 255.724 343.571 257.8ZM356.299 262H355.255V260.284H350.119V259.588L355.375 253.6H356.299V259.312H357.859V260.284H356.299V262ZM355.255 255.28L351.559 259.312H355.255V255.28Z" fill="#76848D"/>
<path d="M249.295 257.8C249.295 256.504 249.595 255.46 250.207 254.68C250.807 253.9 251.695 253.504 252.859 253.504C255.247 253.504 256.435 255.076 256.435 257.8C256.435 259.108 256.135 260.14 255.547 260.92C254.947 261.7 254.059 262.096 252.883 262.096C251.755 262.096 250.879 261.7 250.243 260.908C249.607 260.116 249.295 259.084 249.295 257.8ZM250.399 257.8C250.399 259.852 251.335 261.076 252.883 261.076C254.515 261.076 255.331 259.984 255.331 257.8C255.331 255.616 254.503 254.524 252.859 254.524C251.191 254.524 250.399 255.724 250.399 257.8ZM258.159 256.048L257.259 255.64C257.703 254.344 258.867 253.492 260.607 253.492C261.435 253.492 262.119 253.684 262.647 254.068C263.175 254.452 263.439 254.968 263.439 255.604C263.439 256.576 262.923 257.296 261.963 257.572C262.887 257.632 263.631 258.328 263.631 259.576C263.631 260.368 263.343 260.992 262.767 261.436C262.191 261.88 261.459 262.108 260.559 262.108C258.723 262.108 257.451 261.232 257.031 259.852L258.003 259.432C258.519 260.524 259.395 261.076 260.631 261.076C261.795 261.076 262.527 260.536 262.527 259.588C262.527 258.664 261.807 258.196 260.367 258.196H259.431V257.2H260.175C261.483 257.2 262.335 256.612 262.335 255.808C262.335 254.98 261.651 254.512 260.559 254.512C259.275 254.512 258.495 255.172 258.159 256.048Z" fill="#76848D"/>
<path d="M157.324 257.8C157.324 256.504 157.624 255.46 158.236 254.68C158.836 253.9 159.724 253.504 160.888 253.504C163.276 253.504 164.464 255.076 164.464 257.8C164.464 259.108 164.164 260.14 163.576 260.92C162.976 261.7 162.088 262.096 160.912 262.096C159.784 262.096 158.908 261.7 158.272 260.908C157.636 260.116 157.324 259.084 157.324 257.8ZM158.428 257.8C158.428 259.852 159.364 261.076 160.912 261.076C162.544 261.076 163.36 259.984 163.36 257.8C163.36 255.616 162.532 254.524 160.888 254.524C159.22 254.524 158.428 255.724 158.428 257.8ZM166.32 256.372L165.444 256.06C165.744 254.572 166.872 253.504 168.66 253.504C170.388 253.504 171.444 254.5 171.444 256.024C171.444 256.828 171.096 257.632 170.664 258.208C170.448 258.508 170.172 258.796 169.848 259.096C169.188 259.684 168.72 259.996 168.036 260.428L167.112 261.004H171.756V262H165.216V261.184L167.04 259.972C167.364 259.768 167.592 259.612 167.724 259.516C167.856 259.432 168.072 259.276 168.36 259.072C168.648 258.868 168.864 258.688 169.008 258.556C169.14 258.424 169.32 258.256 169.524 258.04C170.076 257.44 170.28 256.888 170.34 256.132C170.34 255.04 169.632 254.548 168.588 254.548C167.94 254.548 167.424 254.728 167.052 255.088C166.68 255.448 166.428 255.88 166.32 256.372Z" fill="#76848D"/>
<path d="M87.6307 257.8C87.6307 256.504 87.9307 255.46 88.5427 254.68C89.1427 253.9 90.0307 253.504 91.1947 253.504C93.5827 253.504 94.7707 255.076 94.7707 257.8C94.7707 259.108 94.4707 260.14 93.8827 260.92C93.2827 261.7 92.3947 262.096 91.2187 262.096C90.0907 262.096 89.2147 261.7 88.5787 260.908C87.9427 260.116 87.6307 259.084 87.6307 257.8ZM88.7347 257.8C88.7347 259.852 89.6707 261.076 91.2187 261.076C92.8507 261.076 93.6667 259.984 93.6667 257.8C93.6667 255.616 92.8387 254.524 91.1947 254.524C89.5267 254.524 88.7347 255.724 88.7347 257.8ZM95.5709 255.832L95.1869 254.932L98.0669 253.552H98.7509V262H97.7189V254.836L95.5709 255.832ZM80.0271 270.372L79.1511 270.06C79.4511 268.572 80.5791 267.504 82.3671 267.504C84.0951 267.504 85.1511 268.5 85.1511 270.024C85.1511 270.828 84.8031 271.632 84.3711 272.208C84.1551 272.508 83.8791 272.796 83.5551 273.096C82.8951 273.684 82.4271 273.996 81.7431 274.428L80.8191 275.004H85.4631V276H78.9231V275.184L80.7471 273.972C81.0711 273.768 81.2991 273.612 81.4311 273.516C81.5631 273.432 81.7791 273.276 82.0671 273.072C82.3551 272.868 82.5711 272.688 82.7151 272.556C82.8471 272.424 83.0271 272.256 83.2311 272.04C83.7831 271.44 83.9871 270.888 84.0471 270.132C84.0471 269.04 83.3391 268.548 82.2951 268.548C81.6471 268.548 81.1311 268.728 80.7591 269.088C80.3871 269.448 80.1351 269.88 80.0271 270.372ZM86.2948 271.8C86.2948 270.504 86.5948 269.46 87.2068 268.68C87.8068 267.9 88.6948 267.504 89.8588 267.504C92.2468 267.504 93.4348 269.076 93.4348 271.8C93.4348 273.108 93.1348 274.14 92.5468 274.92C91.9468 275.7 91.0588 276.096 89.8828 276.096C88.7548 276.096 87.8788 275.7 87.2428 274.908C86.6068 274.116 86.2948 273.084 86.2948 271.8ZM87.3988 271.8C87.3988 273.852 88.3348 275.076 89.8828 275.076C91.5148 275.076 92.3308 273.984 92.3308 271.8C92.3308 269.616 91.5028 268.524 89.8588 268.524C88.1908 268.524 87.3988 269.724 87.3988 271.8ZM95.291 270.372L94.415 270.06C94.715 268.572 95.843 267.504 97.631 267.504C99.359 267.504 100.415 268.5 100.415 270.024C100.415 270.828 100.067 271.632 99.635 272.208C99.419 272.508 99.143 272.796 98.819 273.096C98.159 273.684 97.691 273.996 97.007 274.428L96.083 275.004H100.727V276H94.187V275.184L96.011 273.972C96.335 273.768 96.563 273.612 96.695 273.516C96.827 273.432 97.043 273.276 97.331 273.072C97.619 272.868 97.835 272.688 97.979 272.556C98.111 272.424 98.291 272.256 98.495 272.04C99.047 271.44 99.251 270.888 99.311 270.132C99.311 269.04 98.603 268.548 97.559 268.548C96.911 268.548 96.395 268.728 96.023 269.088C95.651 269.448 95.399 269.88 95.291 270.372ZM102.387 270.048L101.487 269.64C101.931 268.344 103.095 267.492 104.835 267.492C105.663 267.492 106.347 267.684 106.875 268.068C107.403 268.452 107.667 268.968 107.667 269.604C107.667 270.576 107.151 271.296 106.191 271.572C107.115 271.632 107.859 272.328 107.859 273.576C107.859 274.368 107.571 274.992 106.995 275.436C106.419 275.88 105.687 276.108 104.787 276.108C102.951 276.108 101.679 275.232 101.259 273.852L102.231 273.432C102.747 274.524 103.623 275.076 104.859 275.076C106.023 275.076 106.755 274.536 106.755 273.588C106.755 272.664 106.035 272.196 104.595 272.196H103.659V271.2H104.403C105.711 271.2 106.563 270.612 106.563 269.808C106.563 268.98 105.879 268.512 104.787 268.512C103.503 268.512 102.723 269.172 102.387 270.048Z" fill="#76848D"/>
<line x1="77" y1="39.5" x2="1140" y2="39.5002" stroke="#CEE0ED"/>
<line x1="77" y1="136.5" x2="1140" y2="136.5" stroke="#CEE0ED"/>
<path d="M97 34.0668C105.483 32.7165 132.358 29.3799 149.324 35.8617C170.53 43.9639 192.461 37.2061 214.728 45.3084C236.995 53.4106 242.392 52.297 252.996 55.3353C263.599 58.3736 285.035 64.4503 298.819 64.4503C312.604 64.4503 318.737 65.4631 328.28 68.5015C337.823 71.5398 341.004 71.5398 361.15 71.5398C381.297 71.5398 376.853 75.5909 388.517 71.5398C400.18 67.4887 400.383 64.4503 406.745 66.4759C413.107 68.5015 426.499 68.5015 437.103 66.4759C447.706 64.4503 461.196 73.2574 470.739 70.2191C480.282 67.1807 491.985 76.2286 508.113 74.5782C537.803 71.5398 542.78 78.2768 552.568 82.3724C570.715 89.9654 574.279 87.7443 587.003 91.7955C599.727 95.8466 616.692 94.8338 627.296 93.821C637.899 92.8083 652.492 88.4491 662.035 88.4491C671.578 88.4491 678.192 79.3341 682.433 76.2957C686.675 73.2574 689.051 66.1679 699.655 66.1679C710.258 66.1679 718.233 62.1168 725.655 61.104C733.077 60.0912 730.148 56.3481 739.691 62.4248C749.235 68.5015 760.135 68.1186 767.862 69.6031C780.009 71.9366 786.27 73.0018 795.385 79.3341C807.049 87.4364 813.446 90.7827 822.989 91.7955C832.532 92.8083 839.363 103.949 854.208 103.949C869.053 103.949 864.574 104.962 886.018 104.962C904.044 104.962 913.587 108 923.13 108C932.673 108 937.975 103.949 946.458 99.8977C954.94 95.8466 967.664 86.1089 983.569 95.8466C999.475 105.584 1009.02 106.987 1018.56 104.962C1028.1 102.936 1034.27 95.8466 1041.89 95.8466C1052.49 95.8466 1072.64 83.6932 1079 74.5782" stroke="#737AF9" stroke-width="4" stroke-linecap="round" stroke-linejoin="round"/>
<path d="M97 61.0687C100.541 58.0458 109.324 52 116.124 52C124.623 52 128.873 53.0076 139.497 57.0382C150.122 61.0687 158.621 67.1145 170.308 67.1145C181.995 67.1145 192.619 69.1298 201.118 70.1374C209.618 71.145 223.429 70.1374 231.929 74.1679C240.428 78.1985 246.803 79.2061 262.74 81.2214C278.676 83.2366 280.801 85.2519 291.425 85.2519C302.05 85.2519 309.487 85.2519 315.861 89.2824C322.236 93.313 329.673 93.313 336.047 93.313C342.422 93.313 350.921 93.313 358.358 89.2824C365.795 85.2519 391.294 79.0176 404.043 81.2214C416.277 83.336 426.354 82.0405 431.666 79.0176C436.978 75.9947 440.166 76.8139 446.54 79.0176C452.915 81.2214 461.414 79.2061 468.851 83.2366C476.288 87.2672 482.663 87.2672 493.287 87.2672C503.912 87.2672 515.599 85.2519 525.16 89.2824C534.722 93.313 543.222 100.366 547.471 102.382C551.721 104.397 558.096 108.427 569.783 108.427C581.469 108.427 593.156 109.435 599.531 109.435C605.905 109.435 619.717 105.405 625.029 109.435C630.341 113.466 639.903 112.458 648.403 111.45C656.902 110.443 666.464 111.45 672.839 111.45C679.213 111.45 678.151 105.405 680.276 102.382C682.4 99.3588 688.568 89.7787 690.9 85.2519C695.15 77.0024 700.462 77.0024 707.899 75.1756C715.336 73.3488 720.648 73.1603 728.085 67.1145C735.522 61.0687 737.647 64.0916 740.834 67.1145C744.022 70.1374 757.833 74.9871 763.145 77.0024C768.458 79.0176 772.707 81.2214 776.957 85.2519C781.207 89.2824 793.956 96.3359 800.33 102.382C806.705 108.427 832.745 126.268 838.578 129.588C843.89 132.611 846.015 134.626 851.327 136.641C861.192 140.383 872.576 135.634 881.075 138.656C889.575 141.679 894.887 138.656 903.386 138.656C911.886 138.656 912.948 135.634 919.323 138.656C925.698 141.679 932.072 138.656 941.634 138.656C951.196 138.656 950.134 134.626 953.321 129.588C956.508 124.55 965.008 115.481 969.257 115.481C973.507 115.481 979.882 115.481 989.444 119.511C999.945 123.938 1001.13 125.557 1010.69 125.557C1020.25 125.557 1025.57 127.573 1031.94 119.511C1038.32 111.45 1045.75 102.382 1053.19 102.382C1060.63 102.382 1072.31 93.313 1075.5 89.2824C1078.69 85.2519 1079.75 82.8597 1084 77.0024" stroke="#CDD3FB" stroke-width="4" stroke-linecap="round" stroke-linejoin="round"/>
<path d="M96 161C108.746 161 136.787 161 146.984 161C159.73 161 166.103 165.37 183.098 161.987C197.968 159.026 201.154 163.961 213.9 163.961C226.646 163.961 236.206 167.908 254.263 167.908C272.319 167.908 294.625 170.869 306.309 170.869C317.992 170.869 333.925 169.882 344.547 169.882C363.666 169.882 400.841 180.737 429.52 179.75C458.198 178.763 544.234 183.698 571.85 181.724C590.942 180.36 597.342 184.685 632.393 185.671C667.445 186.658 699.31 186.658 714.18 186.658C729.05 186.658 729.05 182.711 758.791 186.658C788.532 190.606 818.272 191.593 849.075 191.593C879.878 191.593 915.991 192.579 944.67 192.579C973.348 192.579 1011.59 191.593 1026.46 192.579C1038.54 193.381 1042.39 194 1058.32 194C1074.25 194 1079.56 192.579 1087 192.579" stroke="#7BC3F8" stroke-width="4" stroke-linecap="round" stroke-linejoin="round"/>
<path d="M21.476 39.372L20.6 39.06C20.9 37.572 22.028 36.504 23.816 36.504C25.544 36.504 26.6 37.5 26.6 39.024C26.6 39.828 26.252 40.632 25.82 41.208C25.604 41.508 25.328 41.796 25.004 42.096C24.344 42.684 23.876 42.996 23.192 43.428L22.268 44.004H26.912V45H20.372V44.184L22.196 42.972C22.52 42.768 22.748 42.612 22.88 42.516C23.012 42.432 23.228 42.276 23.516 42.072C23.804 41.868 24.02 41.688 24.164 41.556C24.296 41.424 24.476 41.256 24.68 41.04C25.232 40.44 25.436 39.888 25.496 39.132C25.496 38.04 24.788 37.548 23.744 37.548C23.096 37.548 22.58 37.728 22.208 38.088C21.836 38.448 21.584 38.88 21.476 39.372ZM31.2213 40.8C31.2213 39.504 31.5213 38.46 32.1333 37.68C32.7333 36.9 33.6213 36.504 34.7853 36.504C37.1733 36.504 38.3613 38.076 38.3613 40.8C38.3613 42.108 38.0613 43.14 37.4733 43.92C36.8733 44.7 35.9853 45.096 34.8093 45.096C33.6813 45.096 32.8053 44.7 32.1693 43.908C31.5333 43.116 31.2213 42.084 31.2213 40.8ZM32.3253 40.8C32.3253 42.852 33.2613 44.076 34.8093 44.076C36.4413 44.076 37.2573 42.984 37.2573 40.8C37.2573 38.616 36.4293 37.524 34.7853 37.524C33.1173 37.524 32.3253 38.724 32.3253 40.8ZM39.2576 40.8C39.2576 39.504 39.5576 38.46 40.1696 37.68C40.7696 36.9 41.6576 36.504 42.8216 36.504C45.2096 36.504 46.3976 38.076 46.3976 40.8C46.3976 42.108 46.0976 43.14 45.5096 43.92C44.9096 44.7 44.0216 45.096 42.8456 45.096C41.7176 45.096 40.8416 44.7 40.2056 43.908C39.5696 43.116 39.2576 42.084 39.2576 40.8ZM40.3616 40.8C40.3616 42.852 41.2976 44.076 42.8456 44.076C44.4776 44.076 45.2936 42.984 45.2936 40.8C45.2936 38.616 44.4656 37.524 42.8216 37.524C41.1536 37.524 40.3616 38.724 40.3616 40.8ZM47.2938 40.8C47.2938 39.504 47.5938 38.46 48.2058 37.68C48.8058 36.9 49.6938 36.504 50.8578 36.504C53.2458 36.504 54.4338 38.076 54.4338 40.8C54.4338 42.108 54.1338 43.14 53.5458 43.92C52.9458 44.7 52.0578 45.096 50.8818 45.096C49.7538 45.096 48.8778 44.7 48.2418 43.908C47.6058 43.116 47.2938 42.084 47.2938 40.8ZM48.3978 40.8C48.3978 42.852 49.3338 44.076 50.8818 44.076C52.5138 44.076 53.3298 42.984 53.3298 40.8C53.3298 38.616 52.5018 37.524 50.8578 37.524C49.1898 37.524 48.3978 38.724 48.3978 40.8Z" fill="#76848D"/>
<path d="M20.42 135.832L20.036 134.932L22.916 133.552H23.6V142H22.568V134.836L20.42 135.832ZM28.608 137.8C28.608 136.504 28.908 135.46 29.52 134.68C30.12 133.9 31.008 133.504 32.172 133.504C34.56 133.504 35.748 135.076 35.748 137.8C35.748 139.108 35.448 140.14 34.86 140.92C34.26 141.7 33.372 142.096 32.196 142.096C31.068 142.096 30.192 141.7 29.556 140.908C28.92 140.116 28.608 139.084 28.608 137.8ZM29.712 137.8C29.712 139.852 30.648 141.076 32.196 141.076C33.828 141.076 34.644 139.984 34.644 137.8C34.644 135.616 33.816 134.524 32.172 134.524C30.504 134.524 29.712 135.724 29.712 137.8ZM36.6443 137.8C36.6443 136.504 36.9443 135.46 37.5563 134.68C38.1563 133.9 39.0443 133.504 40.2083 133.504C42.5963 133.504 43.7843 135.076 43.7843 137.8C43.7843 139.108 43.4843 140.14 42.8963 140.92C42.2963 141.7 41.4083 142.096 40.2323 142.096C39.1043 142.096 38.2283 141.7 37.5923 140.908C36.9563 140.116 36.6443 139.084 36.6443 137.8ZM37.7483 137.8C37.7483 139.852 38.6843 141.076 40.2323 141.076C41.8643 141.076 42.6803 139.984 42.6803 137.8C42.6803 135.616 41.8523 134.524 40.2083 134.524C38.5403 134.524 37.7483 135.724 37.7483 137.8ZM44.6805 137.8C44.6805 136.504 44.9805 135.46 45.5925 134.68C46.1925 133.9 47.0805 133.504 48.2445 133.504C50.6325 133.504 51.8205 135.076 51.8205 137.8C51.8205 139.108 51.5205 140.14 50.9325 140.92C50.3325 141.7 49.4445 142.096 48.2685 142.096C47.1405 142.096 46.2645 141.7 45.6285 140.908C44.9925 140.116 44.6805 139.084 44.6805 137.8ZM45.7845 137.8C45.7845 139.852 46.7205 141.076 48.2685 141.076C49.9005 141.076 50.7165 139.984 50.7165 137.8C50.7165 135.616 49.8885 134.524 48.2445 134.524C46.5765 134.524 45.7845 135.724 45.7845 137.8Z" fill="#76848D"/>
</g>
<defs>
<filter id="filter0_i_237_46714" x="0" y="0" width="1160" height="312" filterUnits="userSpaceOnUse" color-interpolation-filters="sRGB">
<feFlood flood-opacity="0" result="BackgroundImageFix"/>
<feBlend mode="normal" in="SourceGraphic" in2="BackgroundImageFix" result="shape"/>
<feColorMatrix in="SourceAlpha" type="matrix" values="0 0 0 0 0 0 0 0 0 0 0 0 0 0 0 0 0 0 127 0" result="hardAlpha"/>
<feOffset/>
<feGaussianBlur stdDeviation="6"/>
<feComposite in2="hardAlpha" operator="arithmetic" k2="-1" k3="1"/>
<feColorMatrix type="matrix" values="0 0 0 0 0 0 0 0 0 0 0 0 0 0 0 0 0 0 0.08 0"/>
<feBlend mode="normal" in2="shape" result="effect1_innerShadow_237_46714"/>
</filter>
</defs>
</svg>
