<svg width="1120" height="193" viewBox="0 0 1120 193" fill="none" xmlns="http://www.w3.org/2000/svg">
<rect x="973" y="8" width="147" height="165" fill="#F2FAFC"/>
<rect x="973" y="8" width="147" height="165" fill="url(#paint0_radial_4003_31130)" fill-opacity="0.2"/>
<path d="M1022.24 28.536H1021.19V25.98H1022.08C1022.61 25.152 1023.2 23.076 1023.2 19.62V18.6H1028.87V25.98H1029.93V28.536L1028.88 28.536V27H1022.24V28.536ZM1027.78 19.62H1024.24V20.4C1024.24 21.42 1024.14 22.476 1023.95 23.568C1023.75 24.66 1023.52 25.464 1023.26 25.98H1027.78V19.62ZM1035.18 25.212L1035.83 25.812C1035.25 26.676 1034.43 27.108 1033.33 27.108C1032.34 27.108 1031.53 26.808 1030.92 26.22C1030.31 25.632 1030.01 24.852 1030.01 23.868C1030.01 22.92 1030.29 22.14 1030.85 21.528C1031.4 20.916 1032.18 20.616 1033.19 20.616C1034.02 20.616 1034.71 20.88 1035.25 21.396C1035.79 21.912 1036.07 22.596 1036.07 23.448C1036.07 23.724 1036.05 23.976 1036.01 24.204L1031.09 24.204C1031.15 25.44 1032.06 26.16 1033.37 26.16C1034.1 26.16 1034.8 25.776 1035.18 25.212ZM1033.12 21.54C1031.98 21.54 1031.23 22.236 1031.08 23.292L1035 23.292C1034.94 22.188 1034.23 21.54 1033.12 21.54ZM1041.13 29.4H1040.12V27.12H1040.05C1039 27.12 1038.19 26.82 1037.6 26.22C1037 25.62 1036.7 24.84 1036.7 23.892C1036.7 22.992 1037 22.236 1037.6 21.6C1038.2 20.964 1039.01 20.652 1040.03 20.652H1040.12V18.24H1041.13V20.652H1041.22C1042.22 20.652 1043.03 20.952 1043.65 21.564C1044.26 22.176 1044.56 22.956 1044.56 23.892C1044.56 24.84 1044.26 25.62 1043.67 26.22C1043.07 26.82 1042.24 27.12 1041.2 27.12H1041.13V29.4ZM1037.77 23.892C1037.77 25.284 1038.57 26.16 1040.05 26.16H1040.12V21.612H1040.03C1038.58 21.612 1037.77 22.536 1037.77 23.892ZM1041.2 21.612H1041.13V26.16H1041.2C1042.7 26.16 1043.49 25.296 1043.49 23.892C1043.49 22.56 1042.65 21.612 1041.2 21.612ZM1050.26 22.332L1046.45 27H1045.53V20.76H1046.54V25.44L1050.33 20.76H1051.26V27H1050.26V22.332ZM1058.04 27H1052.6V20.76H1053.61V26.04H1057.1V20.76H1058.11V26.04H1058.99V28.512H1058.04V27ZM1064.48 22.332L1060.67 27H1059.75V20.76H1060.76V25.44L1064.55 20.76H1065.49V27H1064.48V22.332ZM1068.49 21.708H1066.1V20.76H1071.91V21.708H1069.5V27H1068.49V21.708ZM1011.73 39H1010.72V33.708H1007.19V39H1006.19V32.76H1011.73V39ZM1017.9 37.212L1018.55 37.812C1017.97 38.676 1017.14 39.108 1016.05 39.108C1015.05 39.108 1014.25 38.808 1013.64 38.22C1013.03 37.632 1012.73 36.852 1012.73 35.868C1012.73 34.92 1013 34.14 1013.57 33.528C1014.12 32.916 1014.9 32.616 1015.91 32.616C1016.73 32.616 1017.43 32.88 1017.97 33.396C1018.51 33.912 1018.79 34.596 1018.79 35.448C1018.79 35.724 1018.76 35.976 1018.73 36.204H1013.81C1013.87 37.44 1014.78 38.16 1016.09 38.16C1016.82 38.16 1017.51 37.776 1017.9 37.212ZM1015.83 33.54C1014.69 33.54 1013.95 34.236 1013.79 35.292H1017.72C1017.66 34.188 1016.95 33.54 1015.83 33.54ZM1020.79 41.4H1019.79V32.76H1020.79V33.54C1021.21 32.928 1021.89 32.616 1022.81 32.616C1023.72 32.616 1024.45 32.904 1024.99 33.492C1025.53 34.08 1025.8 34.836 1025.8 35.772C1025.8 36.732 1025.51 37.524 1024.93 38.16C1024.35 38.796 1023.6 39.108 1022.69 39.108C1021.85 39.108 1021.21 38.892 1020.79 38.472V41.4ZM1022.7 33.564C1021.79 33.564 1021.08 34.152 1020.79 34.86V37.188C1021.15 37.836 1021.75 38.16 1022.61 38.16C1023.22 38.16 1023.73 37.944 1024.13 37.512C1024.53 37.08 1024.73 36.528 1024.73 35.844C1024.73 34.452 1023.95 33.564 1022.7 33.564ZM1031.62 37.212L1032.26 37.812C1031.69 38.676 1030.86 39.108 1029.77 39.108C1028.77 39.108 1027.97 38.808 1027.36 38.22C1026.74 37.632 1026.44 36.852 1026.44 35.868C1026.44 34.92 1026.72 34.14 1027.28 33.528C1027.84 32.916 1028.62 32.616 1029.62 32.616C1030.45 32.616 1031.15 32.88 1031.69 33.396C1032.23 33.912 1032.5 34.596 1032.5 35.448C1032.5 35.724 1032.48 35.976 1032.44 36.204H1027.52C1027.58 37.44 1028.5 38.16 1029.8 38.16C1030.54 38.16 1031.23 37.776 1031.62 37.212ZM1029.55 33.54C1028.41 33.54 1027.67 34.236 1027.51 35.292H1031.44C1031.38 34.188 1030.67 33.54 1029.55 33.54ZM1036.29 39H1033.5V32.76H1036.1C1037.84 32.76 1038.65 33.204 1038.65 34.356C1038.65 34.932 1038.39 35.388 1037.85 35.712C1038.52 35.916 1038.86 36.408 1038.86 37.212C1038.86 38.376 1037.93 39 1036.29 39ZM1036.3 36.276H1034.51V38.064H1036.18C1037.25 38.064 1037.79 37.764 1037.79 37.164C1037.79 36.576 1037.3 36.276 1036.3 36.276ZM1036.06 33.696H1034.51V35.364H1036.41C1037.14 35.364 1037.58 35.064 1037.58 34.5C1037.58 33.864 1037.07 33.696 1036.06 33.696ZM1039.52 35.868C1039.52 34.92 1039.83 34.14 1040.44 33.528C1041.05 32.916 1041.84 32.616 1042.82 32.616C1043.8 32.616 1044.6 32.916 1045.22 33.528C1045.83 34.14 1046.14 34.92 1046.14 35.868C1046.14 36.816 1045.83 37.584 1045.22 38.196C1044.59 38.808 1043.79 39.108 1042.82 39.108C1041.84 39.108 1041.05 38.808 1040.44 38.196C1039.83 37.584 1039.52 36.816 1039.52 35.868ZM1040.58 35.868C1040.58 36.528 1040.79 37.08 1041.21 37.512C1041.63 37.944 1042.16 38.16 1042.82 38.16C1043.48 38.16 1044.03 37.944 1044.45 37.524C1044.87 37.104 1045.07 36.552 1045.07 35.868C1045.07 35.184 1044.86 34.632 1044.44 34.2C1044 33.78 1043.46 33.564 1042.82 33.564C1042.17 33.564 1041.64 33.78 1041.22 34.2C1040.8 34.62 1040.58 35.184 1040.58 35.868ZM1049.39 39.12C1048.11 39.12 1047.16 38.64 1046.57 37.692L1047.37 37.14C1047.71 37.776 1048.48 38.184 1049.41 38.184C1050.4 38.184 1051.11 37.776 1051.11 37.104C1051.11 36.552 1050.69 36.276 1049.86 36.276H1048.4V35.364H1049.79C1050.4 35.364 1050.88 35.004 1050.88 34.464C1050.88 33.876 1050.26 33.54 1049.36 33.54C1048.6 33.54 1047.98 33.828 1047.51 34.416L1046.77 33.924C1047.19 33.204 1048.15 32.604 1049.45 32.604C1051.03 32.604 1051.95 33.264 1051.95 34.308C1051.95 34.896 1051.7 35.352 1051.21 35.652C1051.93 36 1052.18 36.42 1052.18 37.08C1052.18 37.716 1051.91 38.208 1051.4 38.568C1050.88 38.94 1050.21 39.12 1049.39 39.12ZM1052.83 35.868C1052.83 34.92 1053.15 34.14 1053.76 33.528C1054.37 32.916 1055.16 32.616 1056.13 32.616C1057.12 32.616 1057.92 32.916 1058.53 33.528C1059.15 34.14 1059.46 34.92 1059.46 35.868C1059.46 36.816 1059.15 37.584 1058.53 38.196C1057.91 38.808 1057.11 39.108 1056.13 39.108C1055.16 39.108 1054.37 38.808 1053.76 38.196C1053.15 37.584 1052.83 36.816 1052.83 35.868ZM1053.9 35.868C1053.9 36.528 1054.11 37.08 1054.53 37.512C1054.95 37.944 1055.47 38.16 1056.13 38.16C1056.79 38.16 1057.35 37.944 1057.77 37.524C1058.19 37.104 1058.39 36.552 1058.39 35.868C1058.39 35.184 1058.17 34.632 1057.75 34.2C1057.32 33.78 1056.78 33.564 1056.13 33.564C1055.49 33.564 1054.96 33.78 1054.54 34.2C1054.12 34.62 1053.9 35.184 1053.9 35.868ZM1064.5 32.76H1065.51V39H1064.5V36.372C1064.04 36.828 1063.41 37.056 1062.59 37.056C1060.95 37.056 1060.13 36.228 1060.13 34.572V32.76H1061.14V34.296C1061.14 35.556 1061.67 36.096 1062.77 36.096C1063.49 36.096 1064.18 35.712 1064.5 35.244V32.76ZM1072.47 39H1071.46V36.3H1067.86V39H1066.85V32.76H1067.86V35.352H1071.46V32.76H1072.47V39ZM1076.07 39L1073.81 39V32.76H1074.82V34.704H1076.16C1078 34.704 1078.73 35.556 1078.73 36.84C1078.73 38.1 1077.93 39 1076.07 39ZM1076.05 35.664H1074.82V38.04H1076.04C1077.19 38.04 1077.66 37.632 1077.66 36.852C1077.66 36.06 1077.12 35.664 1076.05 35.664ZM1080.64 39H1079.62V32.76H1080.64V39ZM1086.28 32.76H1087.51L1085.12 35.772L1087.63 39H1086.37L1084.44 36.492L1082.48 39H1081.28L1083.78 35.784L1081.41 32.76H1082.67L1084.47 35.052L1086.28 32.76ZM1016.19 51H1015.19V44.76H1016.11L1018.41 47.808L1020.66 44.76H1021.52V51H1020.51V46.536L1018.4 49.416L1016.19 46.536V51ZM1022.52 47.868C1022.52 46.92 1022.84 46.14 1023.45 45.528C1024.06 44.916 1024.85 44.616 1025.82 44.616C1026.81 44.616 1027.61 44.916 1028.22 45.528C1028.84 46.14 1029.15 46.92 1029.15 47.868C1029.15 48.816 1028.84 49.584 1028.22 50.196C1027.6 50.808 1026.8 51.108 1025.82 51.108C1024.85 51.108 1024.06 50.808 1023.45 50.196C1022.84 49.584 1022.52 48.816 1022.52 47.868ZM1023.59 47.868C1023.59 48.528 1023.8 49.08 1024.22 49.512C1024.64 49.944 1025.16 50.16 1025.82 50.16C1026.48 50.16 1027.04 49.944 1027.46 49.524C1027.88 49.104 1028.08 48.552 1028.08 47.868C1028.08 47.184 1027.86 46.632 1027.44 46.2C1027.01 45.78 1026.47 45.564 1025.82 45.564C1025.18 45.564 1024.65 45.78 1024.23 46.2C1023.81 46.62 1023.59 47.184 1023.59 47.868ZM1037.6 51H1030.15V44.76H1031.15V50.04H1033.4V44.76H1034.41V50.04H1036.65V44.76H1037.66V50.04H1038.53V52.512H1037.6V51ZM1044.91 51H1043.9V48.3H1040.3V51H1039.3V44.76H1040.3V47.352H1043.9V44.76H1044.91V51ZM1045.91 47.868C1045.91 46.92 1046.22 46.14 1046.83 45.528C1047.44 44.916 1048.23 44.616 1049.21 44.616C1050.19 44.616 1050.99 44.916 1051.61 45.528C1052.22 46.14 1052.53 46.92 1052.53 47.868C1052.53 48.816 1052.22 49.584 1051.61 50.196C1050.98 50.808 1050.18 51.108 1049.21 51.108C1048.23 51.108 1047.44 50.808 1046.83 50.196C1046.22 49.584 1045.91 48.816 1045.91 47.868ZM1046.97 47.868C1046.97 48.528 1047.18 49.08 1047.6 49.512C1048.02 49.944 1048.55 50.16 1049.21 50.16C1049.87 50.16 1050.42 49.944 1050.84 49.524C1051.26 49.104 1051.46 48.552 1051.46 47.868C1051.46 47.184 1051.25 46.632 1050.83 46.2C1050.39 45.78 1049.85 45.564 1049.21 45.564C1048.56 45.564 1048.03 45.78 1047.61 46.2C1047.19 46.62 1046.97 47.184 1046.97 47.868ZM1058.36 49.2L1059.08 49.716C1058.62 50.592 1057.56 51.108 1056.52 51.108C1055.52 51.108 1054.72 50.808 1054.1 50.22C1053.49 49.632 1053.18 48.852 1053.18 47.868C1053.18 46.932 1053.48 46.152 1054.09 45.54C1054.7 44.928 1055.48 44.616 1056.46 44.616C1057.57 44.616 1058.57 45.12 1058.99 45.888L1058.21 46.416C1057.79 45.852 1057.21 45.564 1056.48 45.564C1055.83 45.564 1055.3 45.78 1054.88 46.212C1054.46 46.644 1054.25 47.196 1054.25 47.868C1054.25 48.552 1054.46 49.104 1054.91 49.524C1055.34 49.944 1055.9 50.16 1056.61 50.16C1057.36 50.16 1057.94 49.836 1058.36 49.2ZM1061.56 45.708H1059.17V44.76H1064.98V45.708H1062.56V51H1061.56V45.708ZM1070.19 49.212L1070.84 49.812C1070.27 50.676 1069.44 51.108 1068.35 51.108C1067.35 51.108 1066.55 50.808 1065.93 50.22C1065.32 49.632 1065.02 48.852 1065.02 47.868C1065.02 46.92 1065.3 46.14 1065.86 45.528C1066.41 44.916 1067.19 44.616 1068.2 44.616C1069.03 44.616 1069.73 44.88 1070.27 45.396C1070.81 45.912 1071.08 46.596 1071.08 47.448C1071.08 47.724 1071.06 47.976 1071.02 48.204H1066.1C1066.16 49.44 1067.07 50.16 1068.38 50.16C1069.11 50.16 1069.81 49.776 1070.19 49.212ZM1068.13 45.54C1066.99 45.54 1066.25 46.236 1066.09 47.292H1070.01C1069.95 46.188 1069.25 45.54 1068.13 45.54ZM1076.81 46.332L1073.01 51H1072.08V44.76H1073.09V49.44L1076.88 44.76H1077.82V51H1076.81V46.332ZM1073.04 42.072H1073.99C1074 42.66 1074.39 43.056 1075.06 43.056C1075.69 43.056 1076.09 42.66 1076.09 42.072H1077.04C1077.03 43.164 1076.17 43.86 1075.06 43.86C1073.86 43.86 1073.05 43.176 1073.04 42.072Z" fill="#7DA4C1"/>
<path d="M986.092 87.496L980.992 94H980.068V85.6H981.16V92.104L986.248 85.6H987.184V94H986.092V87.496ZM990.955 94.12C989.671 94.12 988.723 93.64 988.135 92.692L988.927 92.14C989.275 92.776 990.043 93.184 990.967 93.184C991.963 93.184 992.671 92.776 992.671 92.104C992.671 91.552 992.251 91.276 991.423 91.276H989.959V90.364H991.351C991.963 90.364 992.443 90.004 992.443 89.464C992.443 88.876 991.819 88.54 990.919 88.54C990.163 88.54 989.539 88.828 989.071 89.416L988.327 88.924C988.747 88.204 989.707 87.604 991.015 87.604C992.587 87.604 993.511 88.264 993.511 89.308C993.511 89.896 993.259 90.352 992.767 90.652C993.487 91 993.739 91.42 993.739 92.08C993.739 92.716 993.475 93.208 992.959 93.568C992.443 93.94 991.771 94.12 990.955 94.12ZM1000.07 85.084L1000.25 86.008C999.903 86.14 999.351 86.248 998.571 86.332C997.791 86.416 997.251 86.536 996.951 86.68C996.051 87.124 995.523 87.952 995.391 89.176L995.439 89.188C995.955 88.372 996.795 87.964 997.947 87.964C998.823 87.964 999.531 88.228 1000.07 88.744C1000.61 89.272 1000.87 90.004 1000.87 90.928C1000.87 91.828 1000.57 92.584 999.987 93.196C999.399 93.808 998.631 94.12 997.707 94.12C995.679 94.12 994.419 92.764 994.419 90.376C994.419 89.176 994.575 88.216 994.887 87.484C995.187 86.764 995.739 86.2 996.519 85.804C996.939 85.6 997.563 85.444 998.391 85.36C999.219 85.276 999.783 85.18 1000.07 85.084ZM995.487 90.556V90.64C995.487 91.408 995.691 92.02 996.111 92.476C996.519 92.932 997.047 93.16 997.695 93.16C998.331 93.16 998.835 92.956 999.231 92.536C999.615 92.128 999.807 91.612 999.807 90.988C999.807 89.728 999.063 88.924 997.731 88.924C996.579 88.924 995.739 89.656 995.487 90.556ZM1004.12 94H1001.86V87.76H1002.87V89.704H1004.22C1006.05 89.704 1006.78 90.556 1006.78 91.84C1006.78 93.1 1005.98 94 1004.12 94ZM1004.11 90.664H1002.87V93.04H1004.1C1005.25 93.04 1005.72 92.632 1005.72 91.852C1005.72 91.06 1005.18 90.664 1004.11 90.664ZM1008.69 94H1007.67V87.76H1008.69V94ZM1011.7 88.708H1009.31V87.76H1015.12V88.708H1012.71V94H1011.7V88.708ZM1015.16 90.868C1015.16 89.92 1015.48 89.14 1016.09 88.528C1016.7 87.916 1017.49 87.616 1018.46 87.616C1019.45 87.616 1020.25 87.916 1020.86 88.528C1021.48 89.14 1021.79 89.92 1021.79 90.868C1021.79 91.816 1021.48 92.584 1020.86 93.196C1020.24 93.808 1019.44 94.108 1018.46 94.108C1017.49 94.108 1016.7 93.808 1016.09 93.196C1015.48 92.584 1015.16 91.816 1015.16 90.868ZM1016.23 90.868C1016.23 91.528 1016.44 92.08 1016.86 92.512C1017.28 92.944 1017.8 93.16 1018.46 93.16C1019.12 93.16 1019.68 92.944 1020.1 92.524C1020.52 92.104 1020.72 91.552 1020.72 90.868C1020.72 90.184 1020.5 89.632 1020.08 89.2C1019.65 88.78 1019.11 88.564 1018.46 88.564C1017.82 88.564 1017.29 88.78 1016.87 89.2C1016.45 89.62 1016.23 90.184 1016.23 90.868ZM1023.79 94H1022.79V87.76H1023.79V90.556L1026.95 87.76H1028.31L1025.08 90.628L1028.46 94H1027.12L1024.31 91.252L1023.79 91.732V94ZM1038 94H1037V88.708H1033.47V94H1032.46V87.76H1038V94ZM1044.17 92.212L1044.82 92.812C1044.24 93.676 1043.42 94.108 1042.32 94.108C1041.33 94.108 1040.52 93.808 1039.91 93.22C1039.3 92.632 1039 91.852 1039 90.868C1039 89.92 1039.28 89.14 1039.84 88.528C1040.39 87.916 1041.17 87.616 1042.18 87.616C1043.01 87.616 1043.7 87.88 1044.24 88.396C1044.78 88.912 1045.06 89.596 1045.06 90.448C1045.06 90.724 1045.04 90.976 1045 91.204H1040.08C1040.14 92.44 1041.05 93.16 1042.36 93.16C1043.09 93.16 1043.79 92.776 1044.17 92.212ZM1042.11 88.54C1040.97 88.54 1040.22 89.236 1040.07 90.292H1043.99C1043.93 89.188 1043.22 88.54 1042.11 88.54ZM1047.07 96.4H1046.06V87.76H1047.07V88.54C1047.49 87.928 1048.16 87.616 1049.08 87.616C1050 87.616 1050.73 87.904 1051.27 88.492C1051.81 89.08 1052.07 89.836 1052.07 90.772C1052.07 91.732 1051.78 92.524 1051.21 93.16C1050.62 93.796 1049.88 94.108 1048.96 94.108C1048.12 94.108 1047.49 93.892 1047.07 93.472V96.4ZM1048.98 88.564C1048.06 88.564 1047.36 89.152 1047.07 89.86V92.188C1047.43 92.836 1048.03 93.16 1048.88 93.16C1049.49 93.16 1050.01 92.944 1050.4 92.512C1050.8 92.08 1051 91.528 1051 90.844C1051 89.452 1050.22 88.564 1048.98 88.564ZM1057.89 92.212L1058.54 92.812C1057.96 93.676 1057.13 94.108 1056.04 94.108C1055.05 94.108 1054.24 93.808 1053.63 93.22C1053.02 92.632 1052.72 91.852 1052.72 90.868C1052.72 89.92 1052.99 89.14 1053.56 88.528C1054.11 87.916 1054.89 87.616 1055.9 87.616C1056.73 87.616 1057.42 87.88 1057.96 88.396C1058.5 88.912 1058.78 89.596 1058.78 90.448C1058.78 90.724 1058.75 90.976 1058.72 91.204H1053.8C1053.86 92.44 1054.77 93.16 1056.08 93.16C1056.81 93.16 1057.51 92.776 1057.89 92.212ZM1055.83 88.54C1054.69 88.54 1053.94 89.236 1053.79 90.292H1057.71C1057.65 89.188 1056.94 88.54 1055.83 88.54ZM1062.56 94H1059.78V87.76H1062.37C1064.11 87.76 1064.93 88.204 1064.93 89.356C1064.93 89.932 1064.66 90.388 1064.12 90.712C1064.79 90.916 1065.13 91.408 1065.13 92.212C1065.13 93.376 1064.21 94 1062.56 94ZM1062.57 91.276H1060.79V93.064H1062.45C1063.52 93.064 1064.06 92.764 1064.06 92.164C1064.06 91.576 1063.57 91.276 1062.57 91.276ZM1062.33 88.696H1060.79V90.364H1062.68C1063.41 90.364 1063.86 90.064 1063.86 89.5C1063.86 88.864 1063.34 88.696 1062.33 88.696ZM1065.79 90.868C1065.79 89.92 1066.1 89.14 1066.71 88.528C1067.33 87.916 1068.12 87.616 1069.09 87.616C1070.07 87.616 1070.88 87.916 1071.49 88.528C1072.1 89.14 1072.41 89.92 1072.41 90.868C1072.41 91.816 1072.1 92.584 1071.49 93.196C1070.87 93.808 1070.06 94.108 1069.09 94.108C1068.12 94.108 1067.33 93.808 1066.71 93.196C1066.1 92.584 1065.79 91.816 1065.79 90.868ZM1066.86 90.868C1066.86 91.528 1067.06 92.08 1067.48 92.512C1067.9 92.944 1068.43 93.16 1069.09 93.16C1069.75 93.16 1070.3 92.944 1070.72 92.524C1071.14 92.104 1071.35 91.552 1071.35 90.868C1071.35 90.184 1071.13 89.632 1070.71 89.2C1070.28 88.78 1069.74 88.564 1069.09 88.564C1068.44 88.564 1067.91 88.78 1067.49 89.2C1067.07 89.62 1066.86 90.184 1066.86 90.868ZM1075.67 94.12C1074.38 94.12 1073.44 93.64 1072.85 92.692L1073.64 92.14C1073.99 92.776 1074.76 93.184 1075.68 93.184C1076.68 93.184 1077.38 92.776 1077.38 92.104C1077.38 91.552 1076.96 91.276 1076.14 91.276H1074.67V90.364H1076.06C1076.68 90.364 1077.16 90.004 1077.16 89.464C1077.16 88.876 1076.53 88.54 1075.63 88.54C1074.88 88.54 1074.25 88.828 1073.78 89.416L1073.04 88.924C1073.46 88.204 1074.42 87.604 1075.73 87.604C1077.3 87.604 1078.22 88.264 1078.22 89.308C1078.22 89.896 1077.97 90.352 1077.48 90.652C1078.2 91 1078.45 91.42 1078.45 92.08C1078.45 92.716 1078.19 93.208 1077.67 93.568C1077.16 93.94 1076.48 94.12 1075.67 94.12ZM1079.11 90.868C1079.11 89.92 1079.42 89.14 1080.03 88.528C1080.64 87.916 1081.44 87.616 1082.41 87.616C1083.39 87.616 1084.2 87.916 1084.81 88.528C1085.42 89.14 1085.73 89.92 1085.73 90.868C1085.73 91.816 1085.42 92.584 1084.81 93.196C1084.18 93.808 1083.38 94.108 1082.41 94.108C1081.44 94.108 1080.64 93.808 1080.03 93.196C1079.42 92.584 1079.11 91.816 1079.11 90.868ZM1080.18 90.868C1080.18 91.528 1080.38 92.08 1080.8 92.512C1081.22 92.944 1081.75 93.16 1082.41 93.16C1083.07 93.16 1083.62 92.944 1084.04 92.524C1084.46 92.104 1084.66 91.552 1084.66 90.868C1084.66 90.184 1084.45 89.632 1084.03 89.2C1083.6 88.78 1083.06 88.564 1082.41 88.564C1081.76 88.564 1081.23 88.78 1080.81 89.2C1080.39 89.62 1080.18 90.184 1080.18 90.868ZM1090.77 87.76H1091.78V94H1090.77V91.372C1090.32 91.828 1089.68 92.056 1088.87 92.056C1087.22 92.056 1086.41 91.228 1086.41 89.572V87.76H1087.41V89.296C1087.41 90.556 1087.94 91.096 1089.05 91.096C1089.77 91.096 1090.45 90.712 1090.77 90.244V87.76ZM1098.74 94H1097.73V91.3H1094.13V94H1093.13V87.76H1094.13V90.352H1097.73V87.76H1098.74V94ZM1102.34 94H1100.08V87.76H1101.09V89.704H1102.44C1104.27 89.704 1105 90.556 1105 91.84C1105 93.1 1104.2 94 1102.34 94ZM1102.33 90.664H1101.09V93.04H1102.32C1103.47 93.04 1103.94 92.632 1103.94 91.852C1103.94 91.06 1103.4 90.664 1102.33 90.664ZM1106.91 94H1105.89V87.76H1106.91V94ZM1112.56 87.76H1113.78L1111.39 90.772L1113.9 94H1112.64L1110.71 91.492L1108.75 94H1107.55L1110.05 90.784L1107.69 87.76H1108.95L1110.75 90.052L1112.56 87.76ZM1016.19 106H1015.19V99.76H1016.11L1018.41 102.808L1020.66 99.76H1021.52V106H1020.51V101.536L1018.4 104.416L1016.19 101.536V106ZM1022.52 102.868C1022.52 101.92 1022.84 101.14 1023.45 100.528C1024.06 99.916 1024.85 99.616 1025.82 99.616C1026.81 99.616 1027.61 99.916 1028.22 100.528C1028.84 101.14 1029.15 101.92 1029.15 102.868C1029.15 103.816 1028.84 104.584 1028.22 105.196C1027.6 105.808 1026.8 106.108 1025.82 106.108C1024.85 106.108 1024.06 105.808 1023.45 105.196C1022.84 104.584 1022.52 103.816 1022.52 102.868ZM1023.59 102.868C1023.59 103.528 1023.8 104.08 1024.22 104.512C1024.64 104.944 1025.16 105.16 1025.82 105.16C1026.48 105.16 1027.04 104.944 1027.46 104.524C1027.88 104.104 1028.08 103.552 1028.08 102.868C1028.08 102.184 1027.86 101.632 1027.44 101.2C1027.01 100.78 1026.47 100.564 1025.82 100.564C1025.18 100.564 1024.65 100.78 1024.23 101.2C1023.81 101.62 1023.59 102.184 1023.59 102.868ZM1037.6 106H1030.15V99.76H1031.15V105.04H1033.4V99.76H1034.41V105.04H1036.65V99.76H1037.66V105.04H1038.53V107.512H1037.6V106ZM1044.91 106H1043.9V103.3H1040.3V106H1039.3V99.76H1040.3V102.352H1043.9V99.76H1044.91V106ZM1045.91 102.868C1045.91 101.92 1046.22 101.14 1046.83 100.528C1047.44 99.916 1048.23 99.616 1049.21 99.616C1050.19 99.616 1050.99 99.916 1051.61 100.528C1052.22 101.14 1052.53 101.92 1052.53 102.868C1052.53 103.816 1052.22 104.584 1051.61 105.196C1050.98 105.808 1050.18 106.108 1049.21 106.108C1048.23 106.108 1047.44 105.808 1046.83 105.196C1046.22 104.584 1045.91 103.816 1045.91 102.868ZM1046.97 102.868C1046.97 103.528 1047.18 104.08 1047.6 104.512C1048.02 104.944 1048.55 105.16 1049.21 105.16C1049.87 105.16 1050.42 104.944 1050.84 104.524C1051.26 104.104 1051.46 103.552 1051.46 102.868C1051.46 102.184 1051.25 101.632 1050.83 101.2C1050.39 100.78 1049.85 100.564 1049.21 100.564C1048.56 100.564 1048.03 100.78 1047.61 101.2C1047.19 101.62 1046.97 102.184 1046.97 102.868ZM1058.36 104.2L1059.08 104.716C1058.62 105.592 1057.56 106.108 1056.52 106.108C1055.52 106.108 1054.72 105.808 1054.1 105.22C1053.49 104.632 1053.18 103.852 1053.18 102.868C1053.18 101.932 1053.48 101.152 1054.09 100.54C1054.7 99.928 1055.48 99.616 1056.46 99.616C1057.57 99.616 1058.57 100.12 1058.99 100.888L1058.21 101.416C1057.79 100.852 1057.21 100.564 1056.48 100.564C1055.83 100.564 1055.3 100.78 1054.88 101.212C1054.46 101.644 1054.25 102.196 1054.25 102.868C1054.25 103.552 1054.46 104.104 1054.91 104.524C1055.34 104.944 1055.9 105.16 1056.61 105.16C1057.36 105.16 1057.94 104.836 1058.36 104.2ZM1061.56 100.708H1059.17V99.76H1064.98V100.708H1062.56V106H1061.56V100.708ZM1070.19 104.212L1070.84 104.812C1070.27 105.676 1069.44 106.108 1068.35 106.108C1067.35 106.108 1066.55 105.808 1065.93 105.22C1065.32 104.632 1065.02 103.852 1065.02 102.868C1065.02 101.92 1065.3 101.14 1065.86 100.528C1066.41 99.916 1067.19 99.616 1068.2 99.616C1069.03 99.616 1069.73 99.88 1070.27 100.396C1070.81 100.912 1071.08 101.596 1071.08 102.448C1071.08 102.724 1071.06 102.976 1071.02 103.204H1066.1C1066.16 104.44 1067.07 105.16 1068.38 105.16C1069.11 105.16 1069.81 104.776 1070.19 104.212ZM1068.13 100.54C1066.99 100.54 1066.25 101.236 1066.09 102.292H1070.01C1069.95 101.188 1069.25 100.54 1068.13 100.54ZM1076.81 101.332L1073.01 106H1072.08V99.76H1073.09V104.44L1076.88 99.76H1077.82V106H1076.81V101.332ZM1073.04 97.072H1073.99C1074 97.66 1074.39 98.056 1075.06 98.056C1075.69 98.056 1076.09 97.66 1076.09 97.072H1077.04C1077.03 98.164 1076.17 98.86 1075.06 98.86C1073.86 98.86 1073.05 98.176 1073.04 97.072Z" fill="#7DA4C1"/>
<path d="M53.5466 183.372L52.6706 183.06C52.9706 181.572 54.0986 180.504 55.8866 180.504C57.6146 180.504 58.6706 181.5 58.6706 183.024C58.6706 183.828 58.3226 184.632 57.8906 185.208C57.6746 185.508 57.3986 185.796 57.0746 186.096C56.4146 186.684 55.9466 186.996 55.2626 187.428L54.3386 188.004H58.9826V189H52.4426V188.184L54.2666 186.972C54.5906 186.768 54.8186 186.612 54.9506 186.516C55.0826 186.432 55.2986 186.276 55.5866 186.072C55.8746 185.868 56.0906 185.688 56.2346 185.556C56.3666 185.424 56.5466 185.256 56.7506 185.04C57.3026 184.44 57.5066 183.888 57.5666 183.132C57.5666 182.04 56.8586 181.548 55.8146 181.548C55.1666 181.548 54.6506 181.728 54.2786 182.088C53.9066 182.448 53.6546 182.88 53.5466 183.372ZM59.8143 184.8C59.8143 183.504 60.1143 182.46 60.7263 181.68C61.3263 180.9 62.2143 180.504 63.3783 180.504C65.7663 180.504 66.9543 182.076 66.9543 184.8C66.9543 186.108 66.6543 187.14 66.0663 187.92C65.4663 188.7 64.5783 189.096 63.4023 189.096C62.2743 189.096 61.3983 188.7 60.7623 187.908C60.1263 187.116 59.8143 186.084 59.8143 184.8ZM60.9183 184.8C60.9183 186.852 61.8543 188.076 63.4023 188.076C65.0343 188.076 65.8503 186.984 65.8503 184.8C65.8503 182.616 65.0223 181.524 63.3783 181.524C61.7103 181.524 60.9183 182.724 60.9183 184.8ZM67.7545 182.832L67.3705 181.932L70.2505 180.552H70.9345V189H69.9025V181.836L67.7545 182.832ZM72.4649 185.028C72.4649 183.576 72.8249 182.46 73.5329 181.668C74.2409 180.888 75.1289 180.492 76.1969 180.492C77.6009 180.492 78.7049 181.128 79.1729 182.136L78.3569 182.688C77.8649 181.908 77.1329 181.524 76.1489 181.524C75.4049 181.524 74.7809 181.812 74.2769 182.388C73.7729 182.976 73.5209 183.768 73.5329 184.788C74.0009 183.912 75.0929 183.384 76.2929 183.384C77.2649 183.384 78.0449 183.636 78.6089 184.152C79.1729 184.668 79.4609 185.352 79.4609 186.192C79.4609 187.044 79.1489 187.752 78.5129 188.292C77.8769 188.832 77.0849 189.108 76.1369 189.108C73.8689 189.108 72.4649 187.632 72.4649 185.028ZM73.6649 186.048C73.8929 187.236 74.7929 188.076 76.1249 188.076C76.7729 188.076 77.3129 187.908 77.7329 187.56C78.1529 187.224 78.3569 186.78 78.3569 186.24C78.3569 185.052 77.5169 184.416 76.2329 184.416C75.5249 184.416 74.9369 184.584 74.4809 184.92C74.0129 185.256 73.7489 185.628 73.6649 186.048Z" fill="#76848D"/>
<path d="M544.652 183.372L543.776 183.06C544.076 181.572 545.204 180.504 546.992 180.504C548.72 180.504 549.776 181.5 549.776 183.024C549.776 183.828 549.428 184.632 548.996 185.208C548.78 185.508 548.504 185.796 548.18 186.096C547.52 186.684 547.052 186.996 546.368 187.428L545.444 188.004H550.088V189H543.548V188.184L545.372 186.972C545.696 186.768 545.924 186.612 546.056 186.516C546.188 186.432 546.404 186.276 546.692 186.072C546.98 185.868 547.196 185.688 547.34 185.556C547.472 185.424 547.652 185.256 547.856 185.04C548.408 184.44 548.612 183.888 548.672 183.132C548.672 182.04 547.964 181.548 546.92 181.548C546.272 181.548 545.756 181.728 545.384 182.088C545.012 182.448 544.76 182.88 544.652 183.372ZM550.92 184.8C550.92 183.504 551.22 182.46 551.832 181.68C552.432 180.9 553.32 180.504 554.484 180.504C556.872 180.504 558.06 182.076 558.06 184.8C558.06 186.108 557.76 187.14 557.172 187.92C556.572 188.7 555.684 189.096 554.508 189.096C553.38 189.096 552.504 188.7 551.868 187.908C551.232 187.116 550.92 186.084 550.92 184.8ZM552.024 184.8C552.024 186.852 552.96 188.076 554.508 188.076C556.14 188.076 556.956 186.984 556.956 184.8C556.956 182.616 556.128 181.524 554.484 181.524C552.816 181.524 552.024 182.724 552.024 184.8ZM559.916 183.372L559.04 183.06C559.34 181.572 560.468 180.504 562.256 180.504C563.984 180.504 565.04 181.5 565.04 183.024C565.04 183.828 564.692 184.632 564.26 185.208C564.044 185.508 563.768 185.796 563.444 186.096C562.784 186.684 562.316 186.996 561.632 187.428L560.708 188.004H565.352V189H558.812V188.184L560.636 186.972C560.96 186.768 561.188 186.612 561.32 186.516C561.452 186.432 561.668 186.276 561.956 186.072C562.244 185.868 562.46 185.688 562.604 185.556C562.736 185.424 562.916 185.256 563.12 185.04C563.672 184.44 563.876 183.888 563.936 183.132C563.936 182.04 563.228 181.548 562.184 181.548C561.536 181.548 561.02 181.728 560.648 182.088C560.276 182.448 560.024 182.88 559.916 183.372ZM566.184 184.8C566.184 183.504 566.484 182.46 567.096 181.68C567.696 180.9 568.584 180.504 569.748 180.504C572.136 180.504 573.324 182.076 573.324 184.8C573.324 186.108 573.024 187.14 572.436 187.92C571.836 188.7 570.948 189.096 569.772 189.096C568.644 189.096 567.768 188.7 567.132 187.908C566.496 187.116 566.184 186.084 566.184 184.8ZM567.288 184.8C567.288 186.852 568.224 188.076 569.772 188.076C571.404 188.076 572.22 186.984 572.22 184.8C572.22 182.616 571.392 181.524 569.748 181.524C568.08 181.524 567.288 182.724 567.288 184.8Z" fill="#76848D"/>
<path d="M299.035 183.372L298.159 183.06C298.459 181.572 299.587 180.504 301.375 180.504C303.103 180.504 304.159 181.5 304.159 183.024C304.159 183.828 303.811 184.632 303.379 185.208C303.163 185.508 302.887 185.796 302.563 186.096C301.903 186.684 301.435 186.996 300.751 187.428L299.827 188.004H304.471V189H297.931V188.184L299.755 186.972C300.079 186.768 300.307 186.612 300.439 186.516C300.571 186.432 300.787 186.276 301.075 186.072C301.363 185.868 301.579 185.688 301.723 185.556C301.855 185.424 302.035 185.256 302.239 185.04C302.791 184.44 302.995 183.888 303.055 183.132C303.055 182.04 302.347 181.548 301.303 181.548C300.655 181.548 300.139 181.728 299.767 182.088C299.395 182.448 299.143 182.88 299.035 183.372ZM305.303 184.8C305.303 183.504 305.603 182.46 306.215 181.68C306.815 180.9 307.703 180.504 308.867 180.504C311.255 180.504 312.443 182.076 312.443 184.8C312.443 186.108 312.143 187.14 311.555 187.92C310.955 188.7 310.067 189.096 308.891 189.096C307.763 189.096 306.887 188.7 306.251 187.908C305.615 187.116 305.303 186.084 305.303 184.8ZM306.407 184.8C306.407 186.852 307.343 188.076 308.891 188.076C310.523 188.076 311.339 186.984 311.339 184.8C311.339 182.616 310.511 181.524 308.867 181.524C307.199 181.524 306.407 182.724 306.407 184.8ZM313.243 182.832L312.859 181.932L315.739 180.552H316.423V189H315.391V181.836L313.243 182.832ZM321.265 184.212H321.637C322.177 184.212 322.621 184.08 322.993 183.828C323.353 183.576 323.533 183.24 323.533 182.844C323.533 181.944 322.825 181.488 321.421 181.488C320.077 181.488 319.345 181.98 319.345 182.844C319.345 183.624 320.149 184.212 321.265 184.212ZM321.613 185.16H321.313C320.665 185.16 320.125 185.304 319.705 185.58C319.285 185.856 319.069 186.204 319.069 186.624C319.069 187.536 319.909 188.112 321.433 188.112C322.981 188.112 323.809 187.56 323.809 186.636C323.809 185.712 322.921 185.16 321.613 185.16ZM323.977 188.46C323.365 188.892 322.513 189.108 321.445 189.108C320.377 189.108 319.525 188.892 318.901 188.472C318.277 188.052 317.965 187.476 317.965 186.732C317.965 185.76 318.601 184.992 319.621 184.656C318.697 184.356 318.241 183.624 318.241 182.772C318.241 181.38 319.417 180.492 321.433 180.492C323.461 180.492 324.637 181.38 324.637 182.772C324.637 183.576 324.193 184.188 323.305 184.596C324.373 184.92 324.901 185.616 324.901 186.684C324.901 187.44 324.589 188.04 323.977 188.46Z" fill="#76848D"/>
<path d="M789.556 183.372L788.68 183.06C788.98 181.572 790.108 180.504 791.896 180.504C793.624 180.504 794.68 181.5 794.68 183.024C794.68 183.828 794.332 184.632 793.9 185.208C793.684 185.508 793.408 185.796 793.084 186.096C792.424 186.684 791.956 186.996 791.272 187.428L790.348 188.004H794.992V189H788.452V188.184L790.276 186.972C790.6 186.768 790.828 186.612 790.96 186.516C791.092 186.432 791.308 186.276 791.596 186.072C791.884 185.868 792.1 185.688 792.244 185.556C792.376 185.424 792.556 185.256 792.76 185.04C793.312 184.44 793.516 183.888 793.576 183.132C793.576 182.04 792.868 181.548 791.824 181.548C791.176 181.548 790.66 181.728 790.288 182.088C789.916 182.448 789.664 182.88 789.556 183.372ZM795.824 184.8C795.824 183.504 796.124 182.46 796.736 181.68C797.336 180.9 798.224 180.504 799.388 180.504C801.776 180.504 802.964 182.076 802.964 184.8C802.964 186.108 802.664 187.14 802.076 187.92C801.476 188.7 800.588 189.096 799.412 189.096C798.284 189.096 797.408 188.7 796.772 187.908C796.136 187.116 795.824 186.084 795.824 184.8ZM796.928 184.8C796.928 186.852 797.864 188.076 799.412 188.076C801.044 188.076 801.86 186.984 801.86 184.8C801.86 182.616 801.032 181.524 799.388 181.524C797.72 181.524 796.928 182.724 796.928 184.8ZM804.82 183.372L803.944 183.06C804.244 181.572 805.372 180.504 807.16 180.504C808.888 180.504 809.944 181.5 809.944 183.024C809.944 183.828 809.596 184.632 809.164 185.208C808.948 185.508 808.672 185.796 808.348 186.096C807.688 186.684 807.22 186.996 806.536 187.428L805.612 188.004H810.256V189H803.716V188.184L805.54 186.972C805.864 186.768 806.092 186.612 806.224 186.516C806.356 186.432 806.572 186.276 806.86 186.072C807.148 185.868 807.364 185.688 807.508 185.556C807.64 185.424 807.82 185.256 808.024 185.04C808.576 184.44 808.78 183.888 808.84 183.132C808.84 182.04 808.132 181.548 807.088 181.548C806.44 181.548 805.924 181.728 805.552 182.088C805.18 182.448 804.928 182.88 804.82 183.372ZM812.048 183.372L811.172 183.06C811.472 181.572 812.6 180.504 814.388 180.504C816.116 180.504 817.172 181.5 817.172 183.024C817.172 183.828 816.824 184.632 816.392 185.208C816.176 185.508 815.9 185.796 815.576 186.096C814.916 186.684 814.448 186.996 813.764 187.428L812.84 188.004H817.484V189H810.944V188.184L812.768 186.972C813.092 186.768 813.32 186.612 813.452 186.516C813.584 186.432 813.8 186.276 814.088 186.072C814.376 185.868 814.592 185.688 814.736 185.556C814.868 185.424 815.048 185.256 815.252 185.04C815.804 184.44 816.008 183.888 816.068 183.132C816.068 182.04 815.36 181.548 814.316 181.548C813.668 181.548 813.152 181.728 812.78 182.088C812.408 182.448 812.156 182.88 812.048 183.372Z" fill="#76848D"/>
<path d="M176.609 183.372L175.733 183.06C176.033 181.572 177.161 180.504 178.949 180.504C180.677 180.504 181.733 181.5 181.733 183.024C181.733 183.828 181.385 184.632 180.953 185.208C180.737 185.508 180.461 185.796 180.137 186.096C179.477 186.684 179.009 186.996 178.325 187.428L177.401 188.004H182.045V189H175.505V188.184L177.329 186.972C177.653 186.768 177.881 186.612 178.013 186.516C178.145 186.432 178.361 186.276 178.649 186.072C178.937 185.868 179.153 185.688 179.297 185.556C179.429 185.424 179.609 185.256 179.813 185.04C180.365 184.44 180.569 183.888 180.629 183.132C180.629 182.04 179.921 181.548 178.877 181.548C178.229 181.548 177.713 181.728 177.341 182.088C176.969 182.448 176.717 182.88 176.609 183.372ZM182.877 184.8C182.877 183.504 183.177 182.46 183.789 181.68C184.389 180.9 185.277 180.504 186.441 180.504C188.829 180.504 190.017 182.076 190.017 184.8C190.017 186.108 189.717 187.14 189.129 187.92C188.529 188.7 187.641 189.096 186.465 189.096C185.337 189.096 184.461 188.7 183.825 187.908C183.189 187.116 182.877 186.084 182.877 184.8ZM183.981 184.8C183.981 186.852 184.917 188.076 186.465 188.076C188.097 188.076 188.913 186.984 188.913 184.8C188.913 182.616 188.085 181.524 186.441 181.524C184.773 181.524 183.981 182.724 183.981 184.8ZM190.817 182.832L190.433 181.932L193.313 180.552H193.997V189H192.965V181.836L190.817 182.832ZM200.339 181.62H195.251V180.6H201.623V181.284L197.447 189H196.307L200.339 181.62Z" fill="#76848D"/>
<path d="M666.363 183.372L665.487 183.06C665.787 181.572 666.915 180.504 668.703 180.504C670.431 180.504 671.487 181.5 671.487 183.024C671.487 183.828 671.139 184.632 670.707 185.208C670.491 185.508 670.215 185.796 669.891 186.096C669.231 186.684 668.763 186.996 668.079 187.428L667.155 188.004H671.799V189H665.259V188.184L667.083 186.972C667.407 186.768 667.635 186.612 667.767 186.516C667.899 186.432 668.115 186.276 668.403 186.072C668.691 185.868 668.907 185.688 669.051 185.556C669.183 185.424 669.363 185.256 669.567 185.04C670.119 184.44 670.323 183.888 670.383 183.132C670.383 182.04 669.675 181.548 668.631 181.548C667.983 181.548 667.467 181.728 667.095 182.088C666.723 182.448 666.471 182.88 666.363 183.372ZM672.631 184.8C672.631 183.504 672.931 182.46 673.543 181.68C674.143 180.9 675.031 180.504 676.195 180.504C678.583 180.504 679.771 182.076 679.771 184.8C679.771 186.108 679.471 187.14 678.883 187.92C678.283 188.7 677.395 189.096 676.219 189.096C675.091 189.096 674.215 188.7 673.579 187.908C672.943 187.116 672.631 186.084 672.631 184.8ZM673.735 184.8C673.735 186.852 674.671 188.076 676.219 188.076C677.851 188.076 678.667 186.984 678.667 184.8C678.667 182.616 677.839 181.524 676.195 181.524C674.527 181.524 673.735 182.724 673.735 184.8ZM681.627 183.372L680.751 183.06C681.051 181.572 682.179 180.504 683.967 180.504C685.695 180.504 686.751 181.5 686.751 183.024C686.751 183.828 686.403 184.632 685.971 185.208C685.755 185.508 685.479 185.796 685.155 186.096C684.495 186.684 684.027 186.996 683.343 187.428L682.419 188.004H687.063V189H680.523V188.184L682.347 186.972C682.671 186.768 682.899 186.612 683.031 186.516C683.163 186.432 683.379 186.276 683.667 186.072C683.955 185.868 684.171 185.688 684.315 185.556C684.447 185.424 684.627 185.256 684.831 185.04C685.383 184.44 685.587 183.888 685.647 183.132C685.647 182.04 684.939 181.548 683.895 181.548C683.247 181.548 682.731 181.728 682.359 182.088C681.987 182.448 681.735 182.88 681.627 183.372ZM687.799 182.832L687.415 181.932L690.295 180.552H690.979V189H689.947V181.836L687.799 182.832Z" fill="#76848D"/>
<path d="M420.035 183.372L419.159 183.06C419.459 181.572 420.587 180.504 422.375 180.504C424.103 180.504 425.159 181.5 425.159 183.024C425.159 183.828 424.811 184.632 424.379 185.208C424.163 185.508 423.887 185.796 423.563 186.096C422.903 186.684 422.435 186.996 421.751 187.428L420.827 188.004H425.471V189H418.931V188.184L420.755 186.972C421.079 186.768 421.307 186.612 421.439 186.516C421.571 186.432 421.787 186.276 422.075 186.072C422.363 185.868 422.579 185.688 422.723 185.556C422.855 185.424 423.035 185.256 423.239 185.04C423.791 184.44 423.995 183.888 424.055 183.132C424.055 182.04 423.347 181.548 422.303 181.548C421.655 181.548 421.139 181.728 420.767 182.088C420.395 182.448 420.143 182.88 420.035 183.372ZM426.303 184.8C426.303 183.504 426.603 182.46 427.215 181.68C427.815 180.9 428.703 180.504 429.867 180.504C432.255 180.504 433.443 182.076 433.443 184.8C433.443 186.108 433.143 187.14 432.555 187.92C431.955 188.7 431.067 189.096 429.891 189.096C428.763 189.096 427.887 188.7 427.251 187.908C426.615 187.116 426.303 186.084 426.303 184.8ZM427.407 184.8C427.407 186.852 428.343 188.076 429.891 188.076C431.523 188.076 432.339 186.984 432.339 184.8C432.339 182.616 431.511 181.524 429.867 181.524C428.199 181.524 427.407 182.724 427.407 184.8ZM434.243 182.832L433.859 181.932L436.739 180.552H437.423V189H436.391V181.836L434.243 182.832ZM445.937 184.644C445.937 186.072 445.601 187.176 444.917 187.944C444.233 188.724 443.321 189.108 442.181 189.108C440.789 189.108 439.697 188.52 439.157 187.62L440.021 187.02C440.501 187.692 441.377 188.076 442.325 188.076C443.105 188.076 443.729 187.764 444.221 187.14C444.713 186.528 444.917 185.76 444.857 184.848C444.461 185.76 443.465 186.432 442.133 186.432C441.197 186.432 440.429 186.168 439.829 185.628C439.217 185.1 438.917 184.404 438.917 183.552C438.917 182.616 439.241 181.872 439.889 181.32C440.537 180.768 441.401 180.492 442.469 180.492C444.629 180.492 445.937 182.004 445.937 184.644ZM444.677 183.516C444.497 182.4 443.729 181.524 442.349 181.524C440.909 181.524 440.021 182.268 440.021 183.516C440.021 184.704 440.921 185.4 442.325 185.4C442.961 185.4 443.501 185.208 443.921 184.824C444.341 184.44 444.593 184.008 444.677 183.516Z" fill="#76848D"/>
<path d="M909.527 183.372L908.651 183.06C908.951 181.572 910.079 180.504 911.867 180.504C913.595 180.504 914.651 181.5 914.651 183.024C914.651 183.828 914.303 184.632 913.871 185.208C913.655 185.508 913.379 185.796 913.055 186.096C912.395 186.684 911.927 186.996 911.243 187.428L910.319 188.004H914.963V189H908.423V188.184L910.247 186.972C910.571 186.768 910.799 186.612 910.931 186.516C911.063 186.432 911.279 186.276 911.567 186.072C911.855 185.868 912.071 185.688 912.215 185.556C912.347 185.424 912.527 185.256 912.731 185.04C913.283 184.44 913.487 183.888 913.547 183.132C913.547 182.04 912.839 181.548 911.795 181.548C911.147 181.548 910.631 181.728 910.259 182.088C909.887 182.448 909.635 182.88 909.527 183.372ZM915.795 184.8C915.795 183.504 916.095 182.46 916.707 181.68C917.307 180.9 918.195 180.504 919.359 180.504C921.747 180.504 922.935 182.076 922.935 184.8C922.935 186.108 922.635 187.14 922.047 187.92C921.447 188.7 920.559 189.096 919.383 189.096C918.255 189.096 917.379 188.7 916.743 187.908C916.107 187.116 915.795 186.084 915.795 184.8ZM916.899 184.8C916.899 186.852 917.835 188.076 919.383 188.076C921.015 188.076 921.831 186.984 921.831 184.8C921.831 182.616 921.003 181.524 919.359 181.524C917.691 181.524 916.899 182.724 916.899 184.8ZM924.791 183.372L923.915 183.06C924.215 181.572 925.343 180.504 927.131 180.504C928.859 180.504 929.915 181.5 929.915 183.024C929.915 183.828 929.567 184.632 929.135 185.208C928.919 185.508 928.643 185.796 928.319 186.096C927.659 186.684 927.191 186.996 926.507 187.428L925.583 188.004H930.227V189H923.687V188.184L925.511 186.972C925.835 186.768 926.063 186.612 926.195 186.516C926.327 186.432 926.543 186.276 926.831 186.072C927.119 185.868 927.335 185.688 927.479 185.556C927.611 185.424 927.791 185.256 927.995 185.04C928.547 184.44 928.751 183.888 928.811 183.132C928.811 182.04 928.103 181.548 927.059 181.548C926.411 181.548 925.895 181.728 925.523 182.088C925.151 182.448 924.899 182.88 924.791 183.372ZM931.887 183.048L930.987 182.64C931.431 181.344 932.595 180.492 934.335 180.492C935.163 180.492 935.847 180.684 936.375 181.068C936.903 181.452 937.167 181.968 937.167 182.604C937.167 183.576 936.651 184.296 935.691 184.572C936.615 184.632 937.359 185.328 937.359 186.576C937.359 187.368 937.071 187.992 936.495 188.436C935.919 188.88 935.187 189.108 934.287 189.108C932.451 189.108 931.179 188.232 930.759 186.852L931.731 186.432C932.247 187.524 933.123 188.076 934.359 188.076C935.523 188.076 936.255 187.536 936.255 186.588C936.255 185.664 935.535 185.196 934.095 185.196H933.159V184.2H933.903C935.211 184.2 936.063 183.612 936.063 182.808C936.063 181.98 935.379 181.512 934.287 181.512C933.003 181.512 932.223 182.172 931.887 183.048Z" fill="#76848D"/>
<path d="M1032.7 183.372L1031.82 183.06C1032.12 181.572 1033.25 180.504 1035.04 180.504C1036.77 180.504 1037.82 181.5 1037.82 183.024C1037.82 183.828 1037.47 184.632 1037.04 185.208C1036.83 185.508 1036.55 185.796 1036.23 186.096C1035.57 186.684 1035.1 186.996 1034.41 187.428L1033.49 188.004H1038.13V189H1031.59V188.184L1033.42 186.972C1033.74 186.768 1033.97 186.612 1034.1 186.516C1034.23 186.432 1034.45 186.276 1034.74 186.072C1035.03 185.868 1035.24 185.688 1035.39 185.556C1035.52 185.424 1035.7 185.256 1035.9 185.04C1036.45 184.44 1036.66 183.888 1036.72 183.132C1036.72 182.04 1036.01 181.548 1034.97 181.548C1034.32 181.548 1033.8 181.728 1033.43 182.088C1033.06 182.448 1032.81 182.88 1032.7 183.372ZM1038.97 184.8C1038.97 183.504 1039.27 182.46 1039.88 181.68C1040.48 180.9 1041.37 180.504 1042.53 180.504C1044.92 180.504 1046.11 182.076 1046.11 184.8C1046.11 186.108 1045.81 187.14 1045.22 187.92C1044.62 188.7 1043.73 189.096 1042.55 189.096C1041.43 189.096 1040.55 188.7 1039.91 187.908C1039.28 187.116 1038.97 186.084 1038.97 184.8ZM1040.07 184.8C1040.07 186.852 1041.01 188.076 1042.55 188.076C1044.19 188.076 1045 186.984 1045 184.8C1045 182.616 1044.17 181.524 1042.53 181.524C1040.86 181.524 1040.07 182.724 1040.07 184.8ZM1047.96 183.372L1047.09 183.06C1047.39 181.572 1048.51 180.504 1050.3 180.504C1052.03 180.504 1053.09 181.5 1053.09 183.024C1053.09 183.828 1052.74 184.632 1052.31 185.208C1052.09 185.508 1051.81 185.796 1051.49 186.096C1050.83 186.684 1050.36 186.996 1049.68 187.428L1048.75 188.004H1053.4V189H1046.86V188.184L1048.68 186.972C1049.01 186.768 1049.23 186.612 1049.37 186.516C1049.5 186.432 1049.71 186.276 1050 186.072C1050.29 185.868 1050.51 185.688 1050.65 185.556C1050.78 185.424 1050.96 185.256 1051.17 185.04C1051.72 184.44 1051.92 183.888 1051.98 183.132C1051.98 182.04 1051.27 181.548 1050.23 181.548C1049.58 181.548 1049.07 181.728 1048.69 182.088C1048.32 182.448 1048.07 182.88 1047.96 183.372ZM1060.03 189H1058.98V187.284H1053.85V186.588L1059.1 180.6H1060.03V186.312H1061.59V187.284H1060.03V189ZM1058.98 182.28L1055.29 186.312H1058.98V182.28Z" fill="#76848D"/>
<line x1="27" y1="72.5" x2="1120" y2="72.5" stroke="#ABBEC9"/>
<line x1="27" y1="39.5" x2="1120" y2="39.5" stroke="#CEE0ED"/>
<line x1="27" y1="137.5" x2="1120" y2="137.5" stroke="#CEE0ED"/>
<line x1="27" y1="172.5" x2="1120" y2="172.5" stroke="#CEE0ED"/>
<line x1="27" y1="7.5" x2="1120" y2="7.5" stroke="#CEE0ED"/>
<line x1="27" y1="106.5" x2="1120" y2="106.5" stroke="#CEE0ED"/>
<path d="M63 123C88.9387 120.833 162.131 117.1 227.09 117.5C308.29 118 306.598 117.5 348.889 120C417.384 124.049 444.374 120.841 479.147 109.5C528.204 93.5 556.117 83.5 584.029 77.5C614.267 71 648.291 54 715.978 54C765.036 54 802.252 63 819.169 71C831.657 76.9056 888.526 118 896.985 123C905.443 128 939.276 149 979.876 152.5C1016.37 155.646 1028.93 152.5 1056 157" stroke="#0085D0" stroke-width="3" stroke-linecap="round" stroke-linejoin="round"/>
<path d="M61 123.377C86.9461 121.199 160.159 117.445 225.137 117.847C306.359 118.35 304.667 117.847 346.971 120.361C415.485 124.432 442.482 121.206 477.265 109.803C526.337 93.7158 554.257 83.6612 582.177 77.6284C612.424 71.0929 646.457 54 714.164 54C763.236 54 800.463 63.0492 817.384 71.0929C829.875 77.0308 886.762 118.35 895.222 123.377C903.683 128.404 927.373 146 966.292 146C1011.98 146 1029.65 141.5 1057 143.5" stroke="#737AF9" stroke-width="3" stroke-linecap="round" stroke-linejoin="round"/>
<path d="M61 122.623C86.946 120.468 160.159 116.755 225.137 117.153C306.359 117.65 304.667 117.153 346.97 119.639C415.485 123.666 442.482 120.476 477.264 109.197C526.336 93.2841 554.256 83.3388 582.177 77.3716C612.424 70.9071 646.457 54 714.163 54C763.235 54 800.462 62.9508 817.383 70.9071C829.874 76.7804 886.76 117.65 895.221 122.623C903.682 127.596 931.355 145 970.274 145C1015.96 145 1022.98 137.044 1059 133.563" stroke="#CDD3FB" stroke-width="3" stroke-linecap="round" stroke-linejoin="round"/>
<path d="M11.3821 167.62H6.29414V166.6H12.6661V167.284L8.49014 175H7.35014L11.3821 167.62ZM13.3056 170.8C13.3056 169.504 13.6056 168.46 14.2176 167.68C14.8176 166.9 15.7056 166.504 16.8696 166.504C19.2576 166.504 20.4456 168.076 20.4456 170.8C20.4456 172.108 20.1456 173.14 19.5576 173.92C18.9576 174.7 18.0696 175.096 16.8936 175.096C15.7656 175.096 14.8896 174.7 14.2536 173.908C13.6176 173.116 13.3056 172.084 13.3056 170.8ZM14.4096 170.8C14.4096 172.852 15.3456 174.076 16.8936 174.076C18.5256 174.076 19.3416 172.984 19.3416 170.8C19.3416 168.616 18.5136 167.524 16.8696 167.524C15.2016 167.524 14.4096 168.724 14.4096 170.8Z" fill="#76848D"/>
<path d="M8.30792 135.212H8.67992C9.21992 135.212 9.66392 135.08 10.0359 134.828C10.3959 134.576 10.5759 134.24 10.5759 133.844C10.5759 132.944 9.86792 132.488 8.46392 132.488C7.11992 132.488 6.38792 132.98 6.38792 133.844C6.38792 134.624 7.19192 135.212 8.30792 135.212ZM8.65592 136.16H8.35592C7.70792 136.16 7.16792 136.304 6.74792 136.58C6.32792 136.856 6.11192 137.204 6.11192 137.624C6.11192 138.536 6.95192 139.112 8.47592 139.112C10.0239 139.112 10.8519 138.56 10.8519 137.636C10.8519 136.712 9.96392 136.16 8.65592 136.16ZM11.0199 139.46C10.4079 139.892 9.55592 140.108 8.48792 140.108C7.41992 140.108 6.56792 139.892 5.94392 139.472C5.31992 139.052 5.00792 138.476 5.00792 137.732C5.00792 136.76 5.64392 135.992 6.66392 135.656C5.73992 135.356 5.28392 134.624 5.28392 133.772C5.28392 132.38 6.45992 131.492 8.47592 131.492C10.5039 131.492 11.6799 132.38 11.6799 133.772C11.6799 134.576 11.2359 135.188 10.3479 135.596C11.4159 135.92 11.9439 136.616 11.9439 137.684C11.9439 138.44 11.6319 139.04 11.0199 139.46ZM12.8798 135.8C12.8798 134.504 13.1798 133.46 13.7918 132.68C14.3918 131.9 15.2798 131.504 16.4438 131.504C18.8318 131.504 20.0198 133.076 20.0198 135.8C20.0198 137.108 19.7198 138.14 19.1318 138.92C18.5318 139.7 17.6438 140.096 16.4678 140.096C15.3398 140.096 14.4638 139.7 13.8278 138.908C13.1918 138.116 12.8798 137.084 12.8798 135.8ZM13.9838 135.8C13.9838 137.852 14.9198 139.076 16.4678 139.076C18.0998 139.076 18.9158 137.984 18.9158 135.8C18.9158 133.616 18.0878 132.524 16.4438 132.524C14.7758 132.524 13.9838 133.724 13.9838 135.8Z" fill="#76848D"/>
<path d="M11.9799 103.644C11.9799 105.072 11.6439 106.176 10.9599 106.944C10.2759 107.724 9.36392 108.108 8.22392 108.108C6.83192 108.108 5.73992 107.52 5.19992 106.62L6.06392 106.02C6.54392 106.692 7.41992 107.076 8.36792 107.076C9.14792 107.076 9.77192 106.764 10.2639 106.14C10.7559 105.528 10.9599 104.76 10.8999 103.848C10.5039 104.76 9.50792 105.432 8.17592 105.432C7.23992 105.432 6.47192 105.168 5.87192 104.628C5.25992 104.1 4.95992 103.404 4.95992 102.552C4.95992 101.616 5.28392 100.872 5.93192 100.32C6.57992 99.768 7.44392 99.492 8.51192 99.492C10.6719 99.492 11.9799 101.004 11.9799 103.644ZM10.7199 102.516C10.5399 101.4 9.77192 100.524 8.39192 100.524C6.95192 100.524 6.06392 101.268 6.06392 102.516C6.06392 103.704 6.96392 104.4 8.36792 104.4C9.00392 104.4 9.54392 104.208 9.96392 103.824C10.3839 103.44 10.6359 103.008 10.7199 102.516ZM12.8798 103.8C12.8798 102.504 13.1798 101.46 13.7918 100.68C14.3918 99.9 15.2798 99.504 16.4438 99.504C18.8318 99.504 20.0198 101.076 20.0198 103.8C20.0198 105.108 19.7198 106.14 19.1318 106.92C18.5318 107.7 17.6438 108.096 16.4678 108.096C15.3398 108.096 14.4638 107.7 13.8278 106.908C13.1918 106.116 12.8798 105.084 12.8798 103.8ZM13.9838 103.8C13.9838 105.852 14.9198 107.076 16.4678 107.076C18.0998 107.076 18.9158 105.984 18.9158 103.8C18.9158 101.616 18.0878 100.524 16.4438 100.524C14.7758 100.524 13.9838 101.724 13.9838 103.8Z" fill="#76848D"/>
<path d="M11.9799 103.644C11.9799 105.072 11.6439 106.176 10.9599 106.944C10.2759 107.724 9.36392 108.108 8.22392 108.108C6.83192 108.108 5.73992 107.52 5.19992 106.62L6.06392 106.02C6.54392 106.692 7.41992 107.076 8.36792 107.076C9.14792 107.076 9.77192 106.764 10.2639 106.14C10.7559 105.528 10.9599 104.76 10.8999 103.848C10.5039 104.76 9.50792 105.432 8.17592 105.432C7.23992 105.432 6.47192 105.168 5.87192 104.628C5.25992 104.1 4.95992 103.404 4.95992 102.552C4.95992 101.616 5.28392 100.872 5.93192 100.32C6.57992 99.768 7.44392 99.492 8.51192 99.492C10.6719 99.492 11.9799 101.004 11.9799 103.644ZM10.7199 102.516C10.5399 101.4 9.77192 100.524 8.39192 100.524C6.95192 100.524 6.06392 101.268 6.06392 102.516C6.06392 103.704 6.96392 104.4 8.36792 104.4C9.00392 104.4 9.54392 104.208 9.96392 103.824C10.3839 103.44 10.6359 103.008 10.7199 102.516ZM12.8798 103.8C12.8798 102.504 13.1798 101.46 13.7918 100.68C14.3918 99.9 15.2798 99.504 16.4438 99.504C18.8318 99.504 20.0198 101.076 20.0198 103.8C20.0198 105.108 19.7198 106.14 19.1318 106.92C18.5318 107.7 17.6438 108.096 16.4678 108.096C15.3398 108.096 14.4638 107.7 13.8278 106.908C13.1918 106.116 12.8798 105.084 12.8798 103.8ZM13.9838 103.8C13.9838 105.852 14.9198 107.076 16.4678 107.076C18.0998 107.076 18.9158 105.984 18.9158 103.8C18.9158 101.616 18.0878 100.524 16.4438 100.524C14.7758 100.524 13.9838 101.724 13.9838 103.8Z" fill="#76848D"/>
<path d="M0.516562 68.832L0.132562 67.932L3.01256 66.552H3.69656V75H2.66456V67.836L0.516562 68.832ZM5.22694 70.8C5.22694 69.504 5.52694 68.46 6.13894 67.68C6.73894 66.9 7.62694 66.504 8.79094 66.504C11.1789 66.504 12.3669 68.076 12.3669 70.8C12.3669 72.108 12.0669 73.14 11.4789 73.92C10.8789 74.7 9.99094 75.096 8.81494 75.096C7.68694 75.096 6.81094 74.7 6.17494 73.908C5.53894 73.116 5.22694 72.084 5.22694 70.8ZM6.33094 70.8C6.33094 72.852 7.26694 74.076 8.81494 74.076C10.4469 74.076 11.2629 72.984 11.2629 70.8C11.2629 68.616 10.4349 67.524 8.79094 67.524C7.12294 67.524 6.33094 68.724 6.33094 70.8ZM13.2632 70.8C13.2632 69.504 13.5632 68.46 14.1752 67.68C14.7752 66.9 15.6632 66.504 16.8272 66.504C19.2152 66.504 20.4032 68.076 20.4032 70.8C20.4032 72.108 20.1032 73.14 19.5152 73.92C18.9152 74.7 18.0272 75.096 16.8512 75.096C15.7232 75.096 14.8472 74.7 14.2112 73.908C13.5752 73.116 13.2632 72.084 13.2632 70.8ZM14.3672 70.8C14.3672 72.852 15.3032 74.076 16.8512 74.076C18.4832 74.076 19.2992 72.984 19.2992 70.8C19.2992 68.616 18.4712 67.524 16.8272 67.524C15.1592 67.524 14.3672 68.724 14.3672 70.8Z" fill="#76848D"/>
<path d="M1.7275 35.832L1.3435 34.932L4.2235 33.552H4.9075V42H3.8755V34.836L1.7275 35.832ZM6.34188 35.832L5.95788 34.932L8.83788 33.552H9.52188V42H8.48988V34.836L6.34188 35.832ZM11.0523 37.8C11.0523 36.504 11.3523 35.46 11.9643 34.68C12.5643 33.9 13.4523 33.504 14.6163 33.504C17.0043 33.504 18.1923 35.076 18.1923 37.8C18.1923 39.108 17.8923 40.14 17.3043 40.92C16.7043 41.7 15.8163 42.096 14.6403 42.096C13.5123 42.096 12.6363 41.7 12.0003 40.908C11.3643 40.116 11.0523 39.084 11.0523 37.8ZM12.1563 37.8C12.1563 39.852 13.0923 41.076 14.6403 41.076C16.2723 41.076 17.0883 39.984 17.0883 37.8C17.0883 35.616 16.2603 34.524 14.6163 34.524C12.9483 34.524 12.1563 35.724 12.1563 37.8Z" fill="#76848D"/>
<path d="M0.420859 3.832L0.0368593 2.932L2.91686 1.552H3.60086V10H2.56886V2.836L0.420859 3.832ZM6.09123 4.372L5.21523 4.06C5.51523 2.572 6.64323 1.504 8.43123 1.504C10.1592 1.504 11.2152 2.5 11.2152 4.024C11.2152 4.828 10.8672 5.632 10.4352 6.208C10.2192 6.508 9.94323 6.796 9.61923 7.096C8.95923 7.684 8.49123 7.996 7.80723 8.428L6.88323 9.004H11.5272V10H4.98723V9.184L6.81123 7.972C7.13523 7.768 7.36323 7.612 7.49523 7.516C7.62723 7.432 7.84323 7.276 8.13123 7.072C8.41923 6.868 8.63523 6.688 8.77923 6.556C8.91123 6.424 9.09123 6.256 9.29523 6.04C9.84723 5.44 10.0512 4.888 10.1112 4.132C10.1112 3.04 9.40323 2.548 8.35923 2.548C7.71123 2.548 7.19523 2.728 6.82323 3.088C6.45123 3.448 6.19923 3.88 6.09123 4.372ZM12.3589 5.8C12.3589 4.504 12.6589 3.46 13.2709 2.68C13.8709 1.9 14.7589 1.504 15.9229 1.504C18.3109 1.504 19.4989 3.076 19.4989 5.8C19.4989 7.108 19.1989 8.14 18.6109 8.92C18.0109 9.7 17.1229 10.096 15.9469 10.096C14.8189 10.096 13.9429 9.7 13.3069 8.908C12.6709 8.116 12.3589 7.084 12.3589 5.8ZM13.4629 5.8C13.4629 7.852 14.3989 9.076 15.9469 9.076C17.5789 9.076 18.3949 7.984 18.3949 5.8C18.3949 3.616 17.5669 2.524 15.9229 2.524C14.2549 2.524 13.4629 3.724 13.4629 5.8Z" fill="#76848D"/>
<path d="M27.42 56.832L27.036 55.932L29.916 54.552H30.6V63H29.568V55.836L27.42 56.832ZM39.1144 58.644C39.1144 60.072 38.7784 61.176 38.0944 61.944C37.4104 62.724 36.4984 63.108 35.3584 63.108C33.9664 63.108 32.8744 62.52 32.3344 61.62L33.1984 61.02C33.6784 61.692 34.5544 62.076 35.5024 62.076C36.2824 62.076 36.9064 61.764 37.3984 61.14C37.8904 60.528 38.0944 59.76 38.0344 58.848C37.6384 59.76 36.6424 60.432 35.3104 60.432C34.3744 60.432 33.6064 60.168 33.0064 59.628C32.3944 59.1 32.0944 58.404 32.0944 57.552C32.0944 56.616 32.4184 55.872 33.0664 55.32C33.7144 54.768 34.5784 54.492 35.6464 54.492C37.8064 54.492 39.1144 56.004 39.1144 58.644ZM37.8544 57.516C37.6744 56.4 36.9064 55.524 35.5264 55.524C34.0864 55.524 33.1984 56.268 33.1984 57.516C33.1984 58.704 34.0984 59.4 35.5024 59.4C36.1384 59.4 36.6784 59.208 37.0984 58.824C37.5184 58.44 37.7704 58.008 37.8544 57.516ZM43.3263 58.212H43.6983C44.2383 58.212 44.6823 58.08 45.0543 57.828C45.4143 57.576 45.5943 57.24 45.5943 56.844C45.5943 55.944 44.8863 55.488 43.4823 55.488C42.1383 55.488 41.4063 55.98 41.4063 56.844C41.4063 57.624 42.2103 58.212 43.3263 58.212ZM43.6743 59.16H43.3743C42.7263 59.16 42.1863 59.304 41.7663 59.58C41.3463 59.856 41.1303 60.204 41.1303 60.624C41.1303 61.536 41.9703 62.112 43.4943 62.112C45.0423 62.112 45.8703 61.56 45.8703 60.636C45.8703 59.712 44.9823 59.16 43.6743 59.16ZM46.0383 62.46C45.4263 62.892 44.5743 63.108 43.5063 63.108C42.4383 63.108 41.5863 62.892 40.9623 62.472C40.3383 62.052 40.0263 61.476 40.0263 60.732C40.0263 59.76 40.6623 58.992 41.6823 58.656C40.7583 58.356 40.3023 57.624 40.3023 56.772C40.3023 55.38 41.4783 54.492 43.4943 54.492C45.5223 54.492 46.6983 55.38 46.6983 56.772C46.6983 57.576 46.2543 58.188 45.3663 58.596C46.4343 58.92 46.9623 59.616 46.9623 60.684C46.9623 61.44 46.6503 62.04 46.0383 62.46ZM47.8982 58.8C47.8982 57.504 48.1982 56.46 48.8102 55.68C49.4102 54.9 50.2982 54.504 51.4622 54.504C53.8502 54.504 55.0382 56.076 55.0382 58.8C55.0382 60.108 54.7382 61.14 54.1502 61.92C53.5502 62.7 52.6622 63.096 51.4862 63.096C50.3582 63.096 49.4822 62.7 48.8462 61.908C48.2102 61.116 47.8982 60.084 47.8982 58.8ZM49.0022 58.8C49.0022 60.852 49.9382 62.076 51.4862 62.076C53.1182 62.076 53.9342 60.984 53.9342 58.8C53.9342 56.616 53.1062 55.524 51.4622 55.524C49.7942 55.524 49.0022 56.724 49.0022 58.8ZM65.0881 58.056H59.7121V57.168H65.0881V58.056ZM65.0881 60.204H59.7121V59.316H65.0881V60.204ZM69.6698 56.832L69.2858 55.932L72.1658 54.552H72.8498V63H71.8178V55.836L69.6698 56.832ZM74.3802 58.8C74.3802 57.504 74.6802 56.46 75.2922 55.68C75.8922 54.9 76.7802 54.504 77.9442 54.504C80.3322 54.504 81.5202 56.076 81.5202 58.8C81.5202 60.108 81.2202 61.14 80.6322 61.92C80.0322 62.7 79.1442 63.096 77.9682 63.096C76.8402 63.096 75.9642 62.7 75.3282 61.908C74.6922 61.116 74.3802 60.084 74.3802 58.8ZM75.4842 58.8C75.4842 60.852 76.4202 62.076 77.9682 62.076C79.6002 62.076 80.4162 60.984 80.4162 58.8C80.4162 56.616 79.5882 55.524 77.9442 55.524C76.2762 55.524 75.4842 56.724 75.4842 58.8ZM82.4165 58.8C82.4165 57.504 82.7165 56.46 83.3285 55.68C83.9285 54.9 84.8165 54.504 85.9805 54.504C88.3685 54.504 89.5565 56.076 89.5565 58.8C89.5565 60.108 89.2565 61.14 88.6685 61.92C88.0685 62.7 87.1805 63.096 86.0045 63.096C84.8765 63.096 84.0005 62.7 83.3645 61.908C82.7285 61.116 82.4165 60.084 82.4165 58.8ZM83.5205 58.8C83.5205 60.852 84.4565 62.076 86.0045 62.076C87.6365 62.076 88.4525 60.984 88.4525 58.8C88.4525 56.616 87.6245 55.524 85.9805 55.524C84.3125 55.524 83.5205 56.724 83.5205 58.8Z" fill="#3C525E"/>
<defs>
<radialGradient id="paint0_radial_4003_31130" cx="0" cy="0" r="1" gradientUnits="userSpaceOnUse" gradientTransform="translate(1120 173) rotate(-131.698) scale(220.984 291.395)">
<stop offset="0" stop-color="#C4FFF1"/>
<stop offset="0.625" stop-color="#A9D2B7" stop-opacity="0"/>
</radialGradient>
</defs>
</svg>
