<svg width="311" height="650" viewBox="0 0 311 650" fill="none" xmlns="http://www.w3.org/2000/svg">
<path d="M116 31C136.298 31 156.234 36.3723 173.783 46.5713C191.333 56.7702 205.87 71.4324 215.919 89.0683L203.929 95.9001C195.086 80.3805 182.293 67.4778 166.849 58.5027C151.406 49.5277 133.862 44.8 116 44.8V31Z" fill="url(#paint0_linear_6003_19546)"/>
<path d="M215.646 88.5912C225.967 106.507 231.268 126.874 230.99 147.549L217.191 147.363C217.436 129.169 212.771 111.246 203.688 95.4803L215.646 88.5912Z" fill="url(#paint1_linear_6003_19546)"/>
<path d="M231 146C231 168.745 224.255 190.979 211.619 209.891C198.983 228.802 181.022 243.542 160.009 252.246C138.995 260.95 115.872 263.228 93.5646 258.79C71.2568 254.353 50.7657 243.4 34.6827 227.317C18.5997 211.234 7.64698 190.743 3.20968 168.435C-1.22762 146.128 1.04979 123.005 9.75386 101.991C18.4579 80.9779 33.1978 63.0173 52.1095 50.381C71.0211 37.7446 93.2552 31 116 31L116 44.8C95.9846 44.8 76.4186 50.7353 59.7763 61.8553C43.1341 72.9752 30.163 88.7805 22.5034 107.272C14.8438 125.764 12.8397 146.112 16.7445 165.743C20.6493 185.374 30.2877 203.406 44.4408 217.559C58.5938 231.712 76.626 241.351 96.2568 245.255C115.888 249.16 136.236 247.156 154.728 239.497C173.219 231.837 189.025 218.866 200.145 202.224C211.265 185.581 217.2 166.015 217.2 146L231 146Z" fill="url(#paint2_linear_6003_19546)"/>
<path d="M185.03 9.492L184.022 9.226L184.596 4.2H190.756V5.39H185.674L185.31 8.022C185.8 7.658 186.542 7.476 187.536 7.476C188.684 7.476 189.58 7.784 190.238 8.386C190.882 9.002 191.204 9.786 191.204 10.752C191.204 11.718 190.84 12.53 190.126 13.16C189.398 13.804 188.488 14.126 187.41 14.126C185.576 14.126 184.05 13.258 183.42 11.732L184.54 11.256C184.946 12.194 185.996 12.936 187.41 12.936C189.02 12.936 189.916 12.012 189.916 10.794C189.916 9.492 188.866 8.652 187.2 8.652C186.304 8.652 185.576 8.932 185.03 9.492ZM193.205 14C192.687 14.056 192.295 13.762 192.295 13.258C192.295 12.768 192.603 12.46 193.149 12.46C193.765 12.46 194.171 12.88 194.171 13.664C194.171 15.064 193.401 15.778 192.379 16.016L192.085 15.358C192.393 15.274 192.673 15.106 192.925 14.84C193.163 14.574 193.261 14.294 193.205 14ZM196.155 7.056L195.105 6.58C195.623 5.068 196.981 4.074 199.011 4.074C199.977 4.074 200.775 4.298 201.391 4.746C202.007 5.194 202.315 5.796 202.315 6.538C202.315 7.672 201.713 8.512 200.593 8.834C201.671 8.904 202.539 9.716 202.539 11.172C202.539 12.096 202.203 12.824 201.531 13.342C200.859 13.86 200.005 14.126 198.955 14.126C196.813 14.126 195.329 13.104 194.839 11.494L195.973 11.004C196.575 12.278 197.597 12.922 199.039 12.922C200.397 12.922 201.251 12.292 201.251 11.186C201.251 10.108 200.411 9.562 198.731 9.562H197.639V8.4H198.507C200.033 8.4 201.027 7.714 201.027 6.776C201.027 5.81 200.229 5.264 198.955 5.264C197.457 5.264 196.547 6.034 196.155 7.056ZM203.578 6.804L203.13 5.754L206.49 4.144H207.288V14H206.084V5.642L203.578 6.804Z" fill="#1A3341"/>
<path d="M184.98 34H183.888V25.6H184.98V29.656L189.228 25.6H190.656L186.696 29.404L190.944 34H189.504L185.88 30.124L184.98 30.988V34ZM190.659 30.868C190.659 29.92 190.971 29.14 191.583 28.528C192.195 27.916 192.987 27.616 193.959 27.616C194.943 27.616 195.747 27.916 196.359 28.528C196.971 29.14 197.283 29.92 197.283 30.868C197.283 31.816 196.971 32.584 196.359 33.196C195.735 33.808 194.931 34.108 193.959 34.108C192.987 34.108 192.195 33.808 191.583 33.196C190.971 32.584 190.659 31.816 190.659 30.868ZM191.727 30.868C191.727 31.528 191.931 32.08 192.351 32.512C192.771 32.944 193.299 33.16 193.959 33.16C194.619 33.16 195.171 32.944 195.591 32.524C196.011 32.104 196.215 31.552 196.215 30.868C196.215 30.184 195.999 29.632 195.579 29.2C195.147 28.78 194.607 28.564 193.959 28.564C193.311 28.564 192.783 28.78 192.363 29.2C191.943 29.62 191.727 30.184 191.727 30.868ZM203.897 34H202.889V31.3H199.289V34H198.281V27.76H199.289V30.352H202.889V27.76H203.897V34ZM206.247 34H205.239V27.76H206.247V30.556L209.403 27.76H210.759L207.531 30.628L210.915 34H209.571L206.763 31.252L206.247 31.732V34ZM211.404 36.376L211.8 35.5C211.896 35.536 211.98 35.56 212.064 35.56C212.532 35.56 212.856 35.236 213.276 34.24L213.468 33.772L210.444 27.76H211.632L213.972 32.5L215.736 27.76H216.84L214.464 33.904C214.056 34.912 213.672 35.596 213.324 35.968C212.964 36.34 212.556 36.52 212.1 36.52C211.836 36.52 211.608 36.472 211.404 36.376ZM218.406 36.4H217.398V27.76H218.406V28.54C218.826 27.928 219.498 27.616 220.422 27.616C221.334 27.616 222.066 27.904 222.606 28.492C223.146 29.08 223.41 29.836 223.41 30.772C223.41 31.732 223.122 32.524 222.546 33.16C221.958 33.796 221.214 34.108 220.302 34.108C219.462 34.108 218.826 33.892 218.406 33.472V36.4ZM220.314 28.564C219.402 28.564 218.694 29.152 218.406 29.86V32.188C218.766 32.836 219.366 33.16 220.218 33.16C220.83 33.16 221.346 32.944 221.742 32.512C222.138 32.08 222.342 31.528 222.342 30.844C222.342 29.452 221.562 28.564 220.314 28.564ZM229.239 32.2L229.959 32.716C229.491 33.592 228.435 34.108 227.391 34.108C226.395 34.108 225.591 33.808 224.979 33.22C224.367 32.632 224.055 31.852 224.055 30.868C224.055 29.932 224.355 29.152 224.967 28.54C225.579 27.928 226.359 27.616 227.331 27.616C228.447 27.616 229.443 28.12 229.863 28.888L229.083 29.416C228.663 28.852 228.087 28.564 227.355 28.564C226.707 28.564 226.179 28.78 225.759 29.212C225.339 29.644 225.123 30.196 225.123 30.868C225.123 31.552 225.339 32.104 225.783 32.524C226.215 32.944 226.779 33.16 227.487 33.16C228.231 33.16 228.819 32.836 229.239 32.2Z" fill="#1A3341" fill-opacity="0.6"/>
<path d="M244.49 90.804L244.042 89.754L247.402 88.144H248.2V98H246.996V89.642L244.49 90.804ZM250.923 98C250.405 98.056 250.013 97.762 250.013 97.258C250.013 96.768 250.321 96.46 250.867 96.46C251.483 96.46 251.889 96.88 251.889 97.664C251.889 99.064 251.119 99.778 250.097 100.016L249.803 99.358C250.111 99.274 250.391 99.106 250.643 98.84C250.881 98.574 250.979 98.294 250.923 98ZM261.056 92.918C261.056 94.584 260.664 95.872 259.866 96.768C259.068 97.678 258.004 98.126 256.674 98.126C255.05 98.126 253.776 97.44 253.146 96.39L254.154 95.69C254.714 96.474 255.736 96.922 256.842 96.922C257.752 96.922 258.48 96.558 259.054 95.83C259.628 95.116 259.866 94.22 259.796 93.156C259.334 94.22 258.172 95.004 256.618 95.004C255.526 95.004 254.63 94.696 253.93 94.066C253.216 93.45 252.866 92.638 252.866 91.644C252.866 90.552 253.244 89.684 254 89.04C254.756 88.396 255.764 88.074 257.01 88.074C259.53 88.074 261.056 89.838 261.056 92.918ZM259.586 91.602C259.376 90.3 258.48 89.278 256.87 89.278C255.19 89.278 254.154 90.146 254.154 91.602C254.154 92.988 255.204 93.8 256.842 93.8C257.584 93.8 258.214 93.576 258.704 93.128C259.194 92.68 259.488 92.176 259.586 91.602ZM265.97 92.414H266.404C267.034 92.414 267.552 92.26 267.986 91.966C268.406 91.672 268.616 91.28 268.616 90.818C268.616 89.768 267.79 89.236 266.152 89.236C264.584 89.236 263.73 89.81 263.73 90.818C263.73 91.728 264.668 92.414 265.97 92.414ZM266.376 93.52H266.026C265.27 93.52 264.64 93.688 264.15 94.01C263.66 94.332 263.408 94.738 263.408 95.228C263.408 96.292 264.388 96.964 266.166 96.964C267.972 96.964 268.938 96.32 268.938 95.242C268.938 94.164 267.902 93.52 266.376 93.52ZM269.134 97.37C268.42 97.874 267.426 98.126 266.18 98.126C264.934 98.126 263.94 97.874 263.212 97.384C262.484 96.894 262.12 96.222 262.12 95.354C262.12 94.22 262.862 93.324 264.052 92.932C262.974 92.582 262.442 91.728 262.442 90.734C262.442 89.11 263.814 88.074 266.166 88.074C268.532 88.074 269.904 89.11 269.904 90.734C269.904 91.672 269.386 92.386 268.35 92.862C269.596 93.24 270.212 94.052 270.212 95.298C270.212 96.18 269.848 96.88 269.134 97.37Z" fill="#1A3341"/>
<path d="M247.912 114.12C246.184 114.12 244.816 113.448 244.156 112.392L244.972 111.792C245.668 112.668 246.64 113.1 247.9 113.1C249.208 113.1 250.132 112.452 250.132 111.528C250.132 110.724 249.292 110.22 247.984 110.22H246.508V109.2H247.912C248.452 109.2 248.908 109.068 249.28 108.816C249.652 108.564 249.832 108.252 249.832 107.856C249.832 106.944 248.92 106.5 247.708 106.5C246.664 106.5 245.836 106.908 245.2 107.724L244.372 107.136C245.164 106.032 246.316 105.48 247.84 105.48C248.74 105.48 249.484 105.684 250.072 106.104C250.648 106.524 250.936 107.1 250.936 107.832C250.936 108.6 250.42 109.236 249.64 109.62C250.66 109.872 251.236 110.664 251.236 111.528C251.236 112.32 250.924 112.944 250.288 113.412C249.652 113.88 248.86 114.12 247.912 114.12ZM252.85 109.26L252.334 108.504C252.91 107.964 253.906 107.616 254.83 107.616C256.498 107.616 257.386 108.528 257.386 110.148V114H256.378V113.076C255.982 113.652 255.202 114.084 254.194 114.084C252.838 114.084 251.926 113.328 251.926 112.176C251.926 110.868 253.042 110.244 254.914 110.244C255.502 110.244 255.982 110.304 256.378 110.424C256.378 109.212 255.946 108.564 254.71 108.564C254.086 108.564 253.462 108.792 252.85 109.26ZM254.434 113.172C254.902 113.172 255.322 113.04 255.67 112.788C256.018 112.536 256.246 112.248 256.378 111.948V111.312C256.03 111.192 255.586 111.132 255.046 111.132C253.678 111.132 252.994 111.468 252.994 112.14C252.994 112.776 253.57 113.172 254.434 113.172ZM264.204 114H263.196V108.708H259.668V114H258.66V107.76H264.204V114ZM266.556 116.4H265.548V107.76H266.556V108.54C266.976 107.928 267.648 107.616 268.572 107.616C269.484 107.616 270.216 107.904 270.756 108.492C271.296 109.08 271.56 109.836 271.56 110.772C271.56 111.732 271.272 112.524 270.696 113.16C270.108 113.796 269.364 114.108 268.452 114.108C267.612 114.108 266.976 113.892 266.556 113.472V116.4ZM268.464 108.564C267.552 108.564 266.844 109.152 266.556 109.86V112.188C266.916 112.836 267.516 113.16 268.368 113.16C268.98 113.16 269.496 112.944 269.892 112.512C270.288 112.08 270.492 111.528 270.492 110.844C270.492 109.452 269.712 108.564 268.464 108.564ZM272.205 110.868C272.205 109.92 272.517 109.14 273.129 108.528C273.741 107.916 274.533 107.616 275.505 107.616C276.489 107.616 277.293 107.916 277.905 108.528C278.517 109.14 278.829 109.92 278.829 110.868C278.829 111.816 278.517 112.584 277.905 113.196C277.281 113.808 276.477 114.108 275.505 114.108C274.533 114.108 273.741 113.808 273.129 113.196C272.517 112.584 272.205 111.816 272.205 110.868ZM273.273 110.868C273.273 111.528 273.477 112.08 273.897 112.512C274.317 112.944 274.845 113.16 275.505 113.16C276.165 113.16 276.717 112.944 277.137 112.524C277.557 112.104 277.761 111.552 277.761 110.868C277.761 110.184 277.545 109.632 277.125 109.2C276.693 108.78 276.153 108.564 275.505 108.564C274.857 108.564 274.329 108.78 273.909 109.2C273.489 109.62 273.273 110.184 273.273 110.868ZM284.663 112.2L285.383 112.716C284.915 113.592 283.859 114.108 282.815 114.108C281.819 114.108 281.015 113.808 280.403 113.22C279.791 112.632 279.479 111.852 279.479 110.868C279.479 109.932 279.779 109.152 280.391 108.54C281.003 107.928 281.783 107.616 282.755 107.616C283.871 107.616 284.867 108.12 285.287 108.888L284.507 109.416C284.087 108.852 283.511 108.564 282.779 108.564C282.131 108.564 281.603 108.78 281.183 109.212C280.763 109.644 280.547 110.196 280.547 110.868C280.547 111.552 280.763 112.104 281.207 112.524C281.639 112.944 282.203 113.16 282.911 113.16C283.655 113.16 284.243 112.836 284.663 112.2ZM295.008 114H289.572V107.76H290.58V113.04H294.072V107.76H295.08V113.04H295.956V115.512H295.008V114ZM301.541 112.212L302.189 112.812C301.613 113.676 300.785 114.108 299.693 114.108C298.697 114.108 297.893 113.808 297.281 113.22C296.669 112.632 296.369 111.852 296.369 110.868C296.369 109.92 296.645 109.14 297.209 108.528C297.761 107.916 298.541 107.616 299.549 107.616C300.377 107.616 301.073 107.88 301.613 108.396C302.153 108.912 302.429 109.596 302.429 110.448C302.429 110.724 302.405 110.976 302.369 111.204H297.449C297.509 112.44 298.421 113.16 299.729 113.16C300.461 113.16 301.157 112.776 301.541 112.212ZM299.477 108.54C298.337 108.54 297.593 109.236 297.437 110.292H301.361C301.301 109.188 300.593 108.54 299.477 108.54ZM309.045 114H308.037V111.3H304.437V114H303.429V107.76H304.437V110.352H308.037V107.76H309.045V114Z" fill="#1A3341" fill-opacity="0.6"/>
<path d="M0.49 254.804L0.042 253.754L3.402 252.144H4.2V262H2.996V253.642L0.49 254.804ZM7.41344 257.492L6.40544 257.226L6.97944 252.2H13.1394V253.39H8.05744L7.69344 256.022C8.18344 255.658 8.92544 255.476 9.91944 255.476C11.0674 255.476 11.9634 255.784 12.6214 256.386C13.2654 257.002 13.5874 257.786 13.5874 258.752C13.5874 259.718 13.2234 260.53 12.5094 261.16C11.7814 261.804 10.8714 262.126 9.79344 262.126C7.95944 262.126 6.43344 261.258 5.80344 259.732L6.92344 259.256C7.32944 260.194 8.37944 260.936 9.79344 260.936C11.4034 260.936 12.2994 260.012 12.2994 258.794C12.2994 257.492 11.2494 256.652 9.58344 256.652C8.68744 256.652 7.95944 256.932 7.41344 257.492ZM15.5881 262C15.0701 262.056 14.6781 261.762 14.6781 261.258C14.6781 260.768 14.9861 260.46 15.5321 260.46C16.1481 260.46 16.5541 260.88 16.5541 261.664C16.5541 263.064 15.7841 263.778 14.7621 264.016L14.4681 263.358C14.7761 263.274 15.0561 263.106 15.3081 262.84C15.5461 262.574 15.6441 262.294 15.5881 262ZM19.0006 257.492L17.9926 257.226L18.5666 252.2H24.7266V253.39H19.6446L19.2806 256.022C19.7706 255.658 20.5126 255.476 21.5066 255.476C22.6546 255.476 23.5506 255.784 24.2086 256.386C24.8526 257.002 25.1746 257.786 25.1746 258.752C25.1746 259.718 24.8106 260.53 24.0966 261.16C23.3686 261.804 22.4586 262.126 21.3806 262.126C19.5466 262.126 18.0206 261.258 17.3906 259.732L18.5106 259.256C18.9166 260.194 19.9666 260.936 21.3806 260.936C22.9906 260.936 23.8866 260.012 23.8866 258.794C23.8866 257.492 22.8366 256.652 21.1706 256.652C20.2746 256.652 19.5466 256.932 19.0006 257.492ZM32.9993 262H31.7813V259.998H25.7893V259.186L31.9213 252.2H32.9993V258.864H34.8193V259.998H32.9993V262ZM31.7813 254.16L27.4693 258.864H31.7813V254.16Z" fill="#1A3341"/>
<path d="M3.912 282.12C2.184 282.12 0.816 281.448 0.156 280.392L0.972 279.792C1.668 280.668 2.64 281.1 3.9 281.1C5.208 281.1 6.132 280.452 6.132 279.528C6.132 278.724 5.292 278.22 3.984 278.22H2.508V277.2H3.912C4.452 277.2 4.908 277.068 5.28 276.816C5.652 276.564 5.832 276.252 5.832 275.856C5.832 274.944 4.92 274.5 3.708 274.5C2.664 274.5 1.836 274.908 1.2 275.724L0.372 275.136C1.164 274.032 2.316 273.48 3.84 273.48C4.74 273.48 5.484 273.684 6.072 274.104C6.648 274.524 6.936 275.1 6.936 275.832C6.936 276.6 6.42 277.236 5.64 277.62C6.66 277.872 7.236 278.664 7.236 279.528C7.236 280.32 6.924 280.944 6.288 281.412C5.652 281.88 4.86 282.12 3.912 282.12ZM8.84981 277.26L8.33381 276.504C8.90981 275.964 9.90581 275.616 10.8298 275.616C12.4978 275.616 13.3858 276.528 13.3858 278.148V282H12.3778V281.076C11.9818 281.652 11.2018 282.084 10.1938 282.084C8.83781 282.084 7.92581 281.328 7.92581 280.176C7.92581 278.868 9.04181 278.244 10.9138 278.244C11.5018 278.244 11.9818 278.304 12.3778 278.424C12.3778 277.212 11.9458 276.564 10.7098 276.564C10.0858 276.564 9.46181 276.792 8.84981 277.26ZM10.4338 281.172C10.9018 281.172 11.3218 281.04 11.6698 280.788C12.0178 280.536 12.2458 280.248 12.3778 279.948V279.312C12.0298 279.192 11.5858 279.132 11.0458 279.132C9.67781 279.132 8.99381 279.468 8.99381 280.14C8.99381 280.776 9.56981 281.172 10.4338 281.172ZM20.204 282H19.196V276.708H15.668V282H14.66V275.76H20.204V282ZM22.5558 284.4H21.5478V275.76H22.5558V276.54C22.9758 275.928 23.6478 275.616 24.5718 275.616C25.4838 275.616 26.2158 275.904 26.7558 276.492C27.2958 277.08 27.5598 277.836 27.5598 278.772C27.5598 279.732 27.2718 280.524 26.6958 281.16C26.1078 281.796 25.3638 282.108 24.4518 282.108C23.6118 282.108 22.9758 281.892 22.5558 281.472V284.4ZM24.4638 276.564C23.5518 276.564 22.8438 277.152 22.5558 277.86V280.188C22.9158 280.836 23.5158 281.16 24.3678 281.16C24.9798 281.16 25.4958 280.944 25.8918 280.512C26.2878 280.08 26.4918 279.528 26.4918 278.844C26.4918 277.452 25.7118 276.564 24.4638 276.564ZM28.2048 278.868C28.2048 277.92 28.5168 277.14 29.1288 276.528C29.7408 275.916 30.5328 275.616 31.5048 275.616C32.4888 275.616 33.2928 275.916 33.9048 276.528C34.5168 277.14 34.8288 277.92 34.8288 278.868C34.8288 279.816 34.5168 280.584 33.9048 281.196C33.2808 281.808 32.4768 282.108 31.5048 282.108C30.5328 282.108 29.7408 281.808 29.1288 281.196C28.5168 280.584 28.2048 279.816 28.2048 278.868ZM29.2728 278.868C29.2728 279.528 29.4768 280.08 29.8968 280.512C30.3168 280.944 30.8448 281.16 31.5048 281.16C32.1648 281.16 32.7168 280.944 33.1368 280.524C33.5568 280.104 33.7608 279.552 33.7608 278.868C33.7608 278.184 33.5448 277.632 33.1248 277.2C32.6928 276.78 32.1528 276.564 31.5048 276.564C30.8568 276.564 30.3288 276.78 29.9088 277.2C29.4888 277.62 29.2728 278.184 29.2728 278.868ZM40.6633 280.2L41.3833 280.716C40.9153 281.592 39.8593 282.108 38.8153 282.108C37.8193 282.108 37.0153 281.808 36.4033 281.22C35.7913 280.632 35.4793 279.852 35.4793 278.868C35.4793 277.932 35.7793 277.152 36.3913 276.54C37.0033 275.928 37.7833 275.616 38.7553 275.616C39.8713 275.616 40.8673 276.12 41.2873 276.888L40.5073 277.416C40.0873 276.852 39.5113 276.564 38.7793 276.564C38.1313 276.564 37.6033 276.78 37.1833 277.212C36.7633 277.644 36.5473 278.196 36.5473 278.868C36.5473 279.552 36.7633 280.104 37.2073 280.524C37.6393 280.944 38.2033 281.16 38.9113 281.16C39.6553 281.16 40.2433 280.836 40.6633 280.2ZM1.74 302H0.732V295.76H1.74V298.556L4.896 295.76H6.252L3.024 298.628L6.408 302H5.064L2.256 299.252L1.74 299.732V302ZM6.09994 298.868C6.09994 297.92 6.41194 297.14 7.02394 296.528C7.63594 295.916 8.42794 295.616 9.39994 295.616C10.3839 295.616 11.1879 295.916 11.7999 296.528C12.4119 297.14 12.7239 297.92 12.7239 298.868C12.7239 299.816 12.4119 300.584 11.7999 301.196C11.1759 301.808 10.3719 302.108 9.39994 302.108C8.42794 302.108 7.63594 301.808 7.02394 301.196C6.41194 300.584 6.09994 299.816 6.09994 298.868ZM7.16794 298.868C7.16794 299.528 7.37194 300.08 7.79194 300.512C8.21194 300.944 8.73994 301.16 9.39994 301.16C10.0599 301.16 10.6119 300.944 11.0319 300.524C11.4519 300.104 11.6559 299.552 11.6559 298.868C11.6559 298.184 11.4399 297.632 11.0199 297.2C10.5879 296.78 10.0479 296.564 9.39994 296.564C8.75194 296.564 8.22394 296.78 7.80394 297.2C7.38394 297.62 7.16794 298.184 7.16794 298.868ZM15.1561 296.708H12.7681V295.76H18.5761V296.708H16.1641V302H15.1561V296.708ZM23.932 297.332L20.128 302H19.204V295.76H20.212V300.44L24.004 295.76H24.94V302H23.932V297.332ZM27.2873 304.4H26.2793V295.76H27.2873V296.54C27.7073 295.928 28.3793 295.616 29.3033 295.616C30.2153 295.616 30.9473 295.904 31.4873 296.492C32.0273 297.08 32.2913 297.836 32.2913 298.772C32.2913 299.732 32.0033 300.524 31.4273 301.16C30.8393 301.796 30.0953 302.108 29.1833 302.108C28.3433 302.108 27.7073 301.892 27.2873 301.472V304.4ZM29.1953 296.564C28.2833 296.564 27.5753 297.152 27.2873 297.86V300.188C27.6473 300.836 28.2473 301.16 29.0993 301.16C29.7113 301.16 30.2273 300.944 30.6233 300.512C31.0193 300.08 31.2233 299.528 31.2233 298.844C31.2233 297.452 30.4433 296.564 29.1953 296.564ZM32.9363 298.868C32.9363 297.92 33.2483 297.14 33.8603 296.528C34.4723 295.916 35.2643 295.616 36.2363 295.616C37.2203 295.616 38.0243 295.916 38.6363 296.528C39.2483 297.14 39.5603 297.92 39.5603 298.868C39.5603 299.816 39.2483 300.584 38.6363 301.196C38.0123 301.808 37.2083 302.108 36.2363 302.108C35.2643 302.108 34.4723 301.808 33.8603 301.196C33.2483 300.584 32.9363 299.816 32.9363 298.868ZM34.0043 298.868C34.0043 299.528 34.2083 300.08 34.6283 300.512C35.0483 300.944 35.5763 301.16 36.2363 301.16C36.8963 301.16 37.4483 300.944 37.8683 300.524C38.2883 300.104 38.4923 299.552 38.4923 298.868C38.4923 298.184 38.2763 297.632 37.8563 297.2C37.4243 296.78 36.8843 296.564 36.2363 296.564C35.5883 296.564 35.0603 296.78 34.6403 297.2C34.2203 297.62 34.0043 298.184 34.0043 298.868ZM43.3429 302H40.5589V295.76H43.1509C44.8909 295.76 45.7069 296.204 45.7069 297.356C45.7069 297.932 45.4429 298.388 44.9029 298.712C45.5749 298.916 45.9109 299.408 45.9109 300.212C45.9109 301.376 44.9869 302 43.3429 302ZM43.3549 299.276H41.5669V301.064H43.2349C44.3029 301.064 44.8429 300.764 44.8429 300.164C44.8429 299.576 44.3509 299.276 43.3549 299.276ZM43.1149 296.696H41.5669V298.364H43.4629C44.1949 298.364 44.6389 298.064 44.6389 297.5C44.6389 296.864 44.1229 296.696 43.1149 296.696ZM46.5713 298.868C46.5713 297.92 46.8833 297.14 47.4953 296.528C48.1073 295.916 48.8993 295.616 49.8713 295.616C50.8553 295.616 51.6593 295.916 52.2713 296.528C52.8833 297.14 53.1953 297.92 53.1953 298.868C53.1953 299.816 52.8833 300.584 52.2713 301.196C51.6473 301.808 50.8433 302.108 49.8713 302.108C48.8993 302.108 48.1073 301.808 47.4953 301.196C46.8833 300.584 46.5713 299.816 46.5713 298.868ZM47.6393 298.868C47.6393 299.528 47.8433 300.08 48.2633 300.512C48.6833 300.944 49.2113 301.16 49.8713 301.16C50.5313 301.16 51.0833 300.944 51.5033 300.524C51.9233 300.104 52.1273 299.552 52.1273 298.868C52.1273 298.184 51.9113 297.632 51.4913 297.2C51.0593 296.78 50.5193 296.564 49.8713 296.564C49.2233 296.564 48.6953 296.78 48.2753 297.2C47.8553 297.62 47.6393 298.184 47.6393 298.868ZM55.2019 302H54.1939V295.76H55.2019V298.556L58.3579 295.76H59.7139L56.4859 298.628L59.8699 302H58.5259L55.7179 299.252L55.2019 299.732V302Z" fill="#1A3341" fill-opacity="0.6"/>
<path d="M90.1755 136.152V139H70.6875V136.44L79.9355 131.096C81.7488 130.051 83.0928 129.208 83.9675 128.568C84.8422 127.907 85.4288 127.299 85.7275 126.744C86.0475 126.189 86.2075 125.528 86.2075 124.76V124.44C86.2075 123.203 85.6848 122.253 84.6395 121.592C83.6155 120.931 82.1328 120.6 80.1915 120.6C78.1862 120.6 76.6608 120.952 75.6155 121.656C74.5915 122.36 74.0795 123.384 74.0795 124.728V125.368H70.8795V124.696C70.8795 122.413 71.6795 120.664 73.2795 119.448C74.8795 118.232 77.1622 117.624 80.1275 117.624C83.0288 117.624 85.3008 118.221 86.9435 119.416C88.5862 120.611 89.4075 122.253 89.4075 124.344V124.664C89.4075 125.795 89.1835 126.787 88.7355 127.64C88.2875 128.493 87.5088 129.357 86.3995 130.232C85.3115 131.107 83.7115 132.152 81.5995 133.368L76.7355 136.152H90.1755ZM104.444 139.384C102.31 139.384 100.422 139 98.7797 138.232C97.1584 137.464 95.8891 136.387 94.9717 135C94.0757 133.613 93.6277 132.024 93.6277 130.232V126.808C93.6277 124.995 94.0757 123.395 94.9717 122.008C95.8891 120.621 97.1584 119.544 98.7797 118.776C100.422 118.008 102.31 117.624 104.444 117.624C106.556 117.624 108.422 118.008 110.044 118.776C111.665 119.544 112.924 120.621 113.82 122.008C114.716 123.395 115.164 124.995 115.164 126.808V130.232C115.164 132.045 114.716 133.645 113.82 135.032C112.924 136.397 111.665 137.464 110.044 138.232C108.422 139 106.556 139.384 104.444 139.384ZM104.444 136.408C106.79 136.408 108.636 135.864 109.98 134.776C111.324 133.688 111.996 132.184 111.996 130.264V126.776C111.996 124.877 111.313 123.373 109.948 122.264C108.604 121.155 106.758 120.6 104.412 120.6C102.044 120.6 100.177 121.155 98.8117 122.264C97.4677 123.352 96.7957 124.856 96.7957 126.776V130.264C96.7957 132.184 97.4677 133.688 98.8117 134.776C100.177 135.864 102.054 136.408 104.444 136.408ZM138.568 136.152V139H119.08V136.44L128.328 131.096C130.141 130.051 131.485 129.208 132.36 128.568C133.235 127.907 133.821 127.299 134.12 126.744C134.44 126.189 134.6 125.528 134.6 124.76V124.44C134.6 123.203 134.077 122.253 133.032 121.592C132.008 120.931 130.525 120.6 128.584 120.6C126.579 120.6 125.053 120.952 124.008 121.656C122.984 122.36 122.472 123.384 122.472 124.728V125.368H119.272V124.696C119.272 122.413 120.072 120.664 121.672 119.448C123.272 118.232 125.555 117.624 128.52 117.624C131.421 117.624 133.693 118.221 135.336 119.416C136.979 120.611 137.8 122.253 137.8 124.344V124.664C137.8 125.795 137.576 126.787 137.128 127.64C136.68 128.493 135.901 129.357 134.792 130.232C133.704 131.107 132.104 132.152 129.992 133.368L125.128 136.152H138.568ZM161.764 136.152V139H142.276V136.44L151.524 131.096C153.338 130.051 154.682 129.208 155.556 128.568C156.431 127.907 157.018 127.299 157.316 126.744C157.636 126.189 157.796 125.528 157.796 124.76V124.44C157.796 123.203 157.274 122.253 156.228 121.592C155.204 120.931 153.722 120.6 151.78 120.6C149.775 120.6 148.25 120.952 147.204 121.656C146.18 122.36 145.668 123.384 145.668 124.728V125.368H142.468V124.696C142.468 122.413 143.268 120.664 144.868 119.448C146.468 118.232 148.751 117.624 151.716 117.624C154.618 117.624 156.89 118.221 158.532 119.416C160.175 120.611 160.996 122.253 160.996 124.344V124.664C160.996 125.795 160.772 126.787 160.324 127.64C159.876 128.493 159.098 129.357 157.988 130.232C156.9 131.107 155.3 132.152 153.188 133.368L148.324 136.152H161.764Z" fill="#1A3341" fill-opacity="0.6"/>
<path d="M89.9205 160.808H86.2805V159.744H89.8925C89.7105 158.358 88.7725 157.658 87.3725 157.658C86.3225 157.658 85.5385 158.05 85.0205 158.82L84.1245 158.19C84.8945 157.098 85.9865 156.552 87.4005 156.552C88.5625 156.552 89.4725 156.888 90.1585 157.574C90.8305 158.26 91.1665 159.184 91.1665 160.346C91.1665 161.452 90.8305 162.362 90.1585 163.062C89.4865 163.776 88.5625 164.126 87.4005 164.126C85.8465 164.126 84.7685 163.622 84.1385 162.614L85.0205 161.956C85.5105 162.67 86.2805 163.02 87.3025 163.02C88.7725 163.02 89.7945 162.11 89.9205 160.808ZM93.504 164H92.328V156.72H93.504V159.982L97.186 156.72H98.768L95.002 160.066L98.95 164H97.382L94.106 160.794L93.504 161.354V164ZM98.5906 160.346C98.5906 159.24 98.9546 158.33 99.6686 157.616C100.383 156.902 101.307 156.552 102.441 156.552C103.589 156.552 104.527 156.902 105.241 157.616C105.955 158.33 106.319 159.24 106.319 160.346C106.319 161.452 105.955 162.348 105.241 163.062C104.513 163.776 103.575 164.126 102.441 164.126C101.307 164.126 100.383 163.776 99.6686 163.062C98.9546 162.348 98.5906 161.452 98.5906 160.346ZM99.8366 160.346C99.8366 161.116 100.075 161.76 100.565 162.264C101.055 162.768 101.671 163.02 102.441 163.02C103.211 163.02 103.855 162.768 104.345 162.278C104.835 161.788 105.073 161.144 105.073 160.346C105.073 159.548 104.821 158.904 104.331 158.4C103.827 157.91 103.197 157.658 102.441 157.658C101.685 157.658 101.069 157.91 100.579 158.4C100.089 158.89 99.8366 159.548 99.8366 160.346ZM114.036 164H112.86V160.85H108.66V164H107.484V156.72H108.66V159.744H112.86V156.72H114.036V164ZM115.195 160.346C115.195 159.24 115.559 158.33 116.273 157.616C116.987 156.902 117.911 156.552 119.045 156.552C120.193 156.552 121.131 156.902 121.845 157.616C122.559 158.33 122.923 159.24 122.923 160.346C122.923 161.452 122.559 162.348 121.845 163.062C121.117 163.776 120.179 164.126 119.045 164.126C117.911 164.126 116.987 163.776 116.273 163.062C115.559 162.348 115.195 161.452 115.195 160.346ZM116.441 160.346C116.441 161.116 116.679 161.76 117.169 162.264C117.659 162.768 118.275 163.02 119.045 163.02C119.815 163.02 120.459 162.768 120.949 162.278C121.439 161.788 121.677 161.144 121.677 160.346C121.677 159.548 121.425 158.904 120.935 158.4C120.431 157.91 119.801 157.658 119.045 157.658C118.289 157.658 117.673 157.91 117.183 158.4C116.693 158.89 116.441 159.548 116.441 160.346ZM125.264 164H124.088V156.72H125.166L127.854 160.276L130.472 156.72H131.48V164H130.304V158.792L127.84 162.152L125.264 158.792V164ZM138.57 158.554L134.132 164H133.054V156.72H134.23V162.18L138.654 156.72H139.746V164H138.57V158.554ZM144.206 156.72H147.132V164H145.956V161.424H144.178L142.022 164H140.594L142.918 161.242C141.798 161.032 141.056 160.178 141.056 159.058C141.056 157.672 142.022 156.72 144.206 156.72ZM142.302 159.086C142.302 159.8 142.974 160.304 144.038 160.304H145.956V157.84H144.066C142.89 157.84 142.302 158.26 142.302 159.086Z" fill="#318F73"/>
<path d="M101.688 189.864V192H87.0722V190.08L94.0082 186.072C95.3682 185.288 96.3762 184.656 97.0322 184.176C97.6882 183.68 98.1282 183.224 98.3522 182.808C98.5922 182.392 98.7122 181.896 98.7122 181.32V181.08C98.7122 180.152 98.3202 179.44 97.5362 178.944C96.7682 178.448 95.6562 178.2 94.2002 178.2C92.6962 178.2 91.5522 178.464 90.7682 178.992C90.0002 179.52 89.6162 180.288 89.6162 181.296V181.776H87.2162V181.272C87.2162 179.56 87.8162 178.248 89.0162 177.336C90.2162 176.424 91.9282 175.968 94.1522 175.968C96.3282 175.968 98.0322 176.416 99.2642 177.312C100.496 178.208 101.112 179.44 101.112 181.008V181.248C101.112 182.096 100.944 182.84 100.608 183.48C100.272 184.12 99.6882 184.768 98.8562 185.424C98.0402 186.08 96.8402 186.864 95.2562 187.776L91.6082 189.864H101.688ZM119.085 189.864V192H104.469V190.08L111.405 186.072C112.765 185.288 113.773 184.656 114.429 184.176C115.085 183.68 115.525 183.224 115.749 182.808C115.989 182.392 116.109 181.896 116.109 181.32V181.08C116.109 180.152 115.717 179.44 114.933 178.944C114.165 178.448 113.053 178.2 111.597 178.2C110.093 178.2 108.949 178.464 108.165 178.992C107.397 179.52 107.013 180.288 107.013 181.296V181.776H104.613V181.272C104.613 179.56 105.213 178.248 106.413 177.336C107.613 176.424 109.325 175.968 111.549 175.968C113.725 175.968 115.429 176.416 116.661 177.312C117.893 178.208 118.509 179.44 118.509 181.008V181.248C118.509 182.096 118.341 182.84 118.005 183.48C117.669 184.12 117.085 184.768 116.253 185.424C115.437 186.08 114.237 186.864 112.653 187.776L109.005 189.864H119.085ZM125.947 188.976V189.336L123.787 195.432H121.579L123.331 188.976H125.947ZM142.043 183.888C143.035 184.224 143.779 184.688 144.275 185.28C144.787 185.872 145.043 186.584 145.043 187.416V187.68C145.043 190.752 142.291 192.288 136.787 192.288C131.283 192.288 128.531 190.752 128.531 187.68V187.416C128.531 186.584 128.779 185.872 129.275 185.28C129.787 184.688 130.539 184.224 131.531 183.888C130.779 183.552 130.211 183.12 129.827 182.592C129.443 182.048 129.251 181.432 129.251 180.744V180.48C129.251 179.584 129.563 178.792 130.187 178.104C130.811 177.416 131.691 176.888 132.827 176.52C133.963 176.152 135.283 175.968 136.787 175.968C138.291 175.968 139.611 176.152 140.747 176.52C141.883 176.888 142.763 177.416 143.387 178.104C144.011 178.792 144.323 179.584 144.323 180.48V180.744C144.323 181.432 144.131 182.048 143.747 182.592C143.363 183.12 142.795 183.552 142.043 183.888ZM131.603 180.672C131.603 181.488 132.019 182.088 132.851 182.472C133.699 182.856 135.011 183.048 136.787 183.048C138.547 183.048 139.843 182.856 140.675 182.472C141.523 182.088 141.947 181.488 141.947 180.672V180.48C141.947 178.912 140.227 178.128 136.787 178.128C133.331 178.128 131.603 178.912 131.603 180.48V180.672ZM142.667 187.584C142.667 186.736 142.203 186.128 141.275 185.76C140.363 185.376 138.867 185.184 136.787 185.184C134.707 185.184 133.203 185.376 132.275 185.76C131.363 186.128 130.907 186.736 130.907 187.584V187.776C130.907 188.592 131.379 189.192 132.323 189.576C133.267 189.944 134.755 190.128 136.787 190.128C138.819 190.128 140.307 189.944 141.251 189.576C142.195 189.192 142.667 188.592 142.667 187.776V187.584Z" fill="#318F73"/>
<path d="M113.828 360.006C136.264 359.777 158.277 366.117 177.155 378.244L169.696 389.854C153.084 379.183 133.713 373.604 113.969 373.805L113.828 360.006Z" fill="url(#paint3_linear_6003_19546)"/>
<path d="M177.076 378.193C189.789 386.345 200.772 396.921 209.397 409.318C218.023 421.714 224.122 435.688 227.347 450.442L213.866 453.389C211.027 440.406 205.66 428.108 198.07 417.2C190.479 406.291 180.814 396.984 169.627 389.81L177.076 378.193Z" fill="url(#paint4_linear_6003_19546)"/>
<path d="M226.895 448.457C232.399 471.66 230.554 496.001 221.614 518.11C212.675 540.218 197.083 559 176.998 571.857C156.913 584.713 133.328 591.008 109.508 589.869C85.6874 588.73 62.8105 580.214 44.0437 565.5C25.2769 550.786 11.5486 530.601 4.75916 507.741C-2.03025 484.88 -1.54488 460.475 6.14804 437.902C13.841 415.33 28.3609 395.707 47.6979 381.751C67.0349 367.794 90.2323 360.195 114.079 360.004L114.189 373.803C93.2044 373.971 72.7907 380.659 55.7742 392.941C38.7576 405.222 25.9801 422.49 19.2103 442.354C12.4405 462.218 12.0134 483.695 17.9881 503.812C23.9627 523.929 36.0437 541.691 52.5585 554.64C69.0732 567.588 89.205 575.082 110.167 576.085C131.128 577.087 151.883 571.548 169.558 560.234C187.233 548.92 200.954 532.392 208.82 512.936C216.687 493.481 218.311 472.061 213.468 451.642L226.895 448.457Z" fill="url(#paint5_linear_6003_19546)"/>
<path d="M154.722 320.434L153.7 320.07C154.05 318.334 155.366 317.088 157.452 317.088C159.468 317.088 160.7 318.25 160.7 320.028C160.7 320.966 160.294 321.904 159.79 322.576C159.538 322.926 159.216 323.262 158.838 323.612C158.068 324.298 157.522 324.662 156.724 325.166L155.646 325.838H161.064V327H153.434V326.048L155.562 324.634C155.94 324.396 156.206 324.214 156.36 324.102C156.514 324.004 156.766 323.822 157.102 323.584C157.438 323.346 157.69 323.136 157.858 322.982C158.012 322.828 158.222 322.632 158.46 322.38C159.104 321.68 159.342 321.036 159.412 320.154C159.412 318.88 158.586 318.306 157.368 318.306C156.612 318.306 156.01 318.516 155.576 318.936C155.142 319.356 154.848 319.86 154.722 320.434ZM162.972 327C162.454 327.056 162.062 326.762 162.062 326.258C162.062 325.768 162.37 325.46 162.916 325.46C163.532 325.46 163.938 325.88 163.938 326.664C163.938 328.064 163.168 328.778 162.146 329.016L161.852 328.358C162.16 328.274 162.44 328.106 162.692 327.84C162.93 327.574 163.028 327.294 162.972 327ZM166.077 320.434L165.055 320.07C165.405 318.334 166.721 317.088 168.807 317.088C170.823 317.088 172.055 318.25 172.055 320.028C172.055 320.966 171.649 321.904 171.145 322.576C170.893 322.926 170.571 323.262 170.193 323.612C169.423 324.298 168.877 324.662 168.079 325.166L167.001 325.838H172.419V327H164.789V326.048L166.917 324.634C167.295 324.396 167.561 324.214 167.715 324.102C167.869 324.004 168.121 323.822 168.457 323.584C168.793 323.346 169.045 323.136 169.213 322.982C169.367 322.828 169.577 322.632 169.815 322.38C170.459 321.68 170.697 321.036 170.767 320.154C170.767 318.88 169.941 318.306 168.723 318.306C167.967 318.306 167.365 318.516 166.931 318.936C166.497 319.356 166.203 319.86 166.077 320.434ZM173.277 319.804L172.829 318.754L176.189 317.144H176.987V327H175.783V318.642L173.277 319.804Z" fill="#1A3341"/>
<path d="M154.98 347H153.888V338.6H154.98V342.656L159.228 338.6H160.656L156.696 342.404L160.944 347H159.504L155.88 343.124L154.98 343.988V347ZM160.659 343.868C160.659 342.92 160.971 342.14 161.583 341.528C162.195 340.916 162.987 340.616 163.959 340.616C164.943 340.616 165.747 340.916 166.359 341.528C166.971 342.14 167.283 342.92 167.283 343.868C167.283 344.816 166.971 345.584 166.359 346.196C165.735 346.808 164.931 347.108 163.959 347.108C162.987 347.108 162.195 346.808 161.583 346.196C160.971 345.584 160.659 344.816 160.659 343.868ZM161.727 343.868C161.727 344.528 161.931 345.08 162.351 345.512C162.771 345.944 163.299 346.16 163.959 346.16C164.619 346.16 165.171 345.944 165.591 345.524C166.011 345.104 166.215 344.552 166.215 343.868C166.215 343.184 165.999 342.632 165.579 342.2C165.147 341.78 164.607 341.564 163.959 341.564C163.311 341.564 162.783 341.78 162.363 342.2C161.943 342.62 161.727 343.184 161.727 343.868ZM173.897 347H172.889V344.3H169.289V347H168.281V340.76H169.289V343.352H172.889V340.76H173.897V347ZM176.247 347H175.239V340.76H176.247V343.556L179.403 340.76H180.759L177.531 343.628L180.915 347H179.571L176.763 344.252L176.247 344.732V347ZM181.404 349.376L181.8 348.5C181.896 348.536 181.98 348.56 182.064 348.56C182.532 348.56 182.856 348.236 183.276 347.24L183.468 346.772L180.444 340.76H181.632L183.972 345.5L185.736 340.76H186.84L184.464 346.904C184.056 347.912 183.672 348.596 183.324 348.968C182.964 349.34 182.556 349.52 182.1 349.52C181.836 349.52 181.608 349.472 181.404 349.376ZM188.406 349.4H187.398V340.76H188.406V341.54C188.826 340.928 189.498 340.616 190.422 340.616C191.334 340.616 192.066 340.904 192.606 341.492C193.146 342.08 193.41 342.836 193.41 343.772C193.41 344.732 193.122 345.524 192.546 346.16C191.958 346.796 191.214 347.108 190.302 347.108C189.462 347.108 188.826 346.892 188.406 346.472V349.4ZM190.314 341.564C189.402 341.564 188.694 342.152 188.406 342.86V345.188C188.766 345.836 189.366 346.16 190.218 346.16C190.83 346.16 191.346 345.944 191.742 345.512C192.138 345.08 192.342 344.528 192.342 343.844C192.342 342.452 191.562 341.564 190.314 341.564ZM199.239 345.2L199.959 345.716C199.491 346.592 198.435 347.108 197.391 347.108C196.395 347.108 195.591 346.808 194.979 346.22C194.367 345.632 194.055 344.852 194.055 343.868C194.055 342.932 194.355 342.152 194.967 341.54C195.579 340.928 196.359 340.616 197.331 340.616C198.447 340.616 199.443 341.12 199.863 341.888L199.083 342.416C198.663 341.852 198.087 341.564 197.355 341.564C196.707 341.564 196.179 341.78 195.759 342.212C195.339 342.644 195.123 343.196 195.123 343.868C195.123 344.552 195.339 345.104 195.783 345.524C196.215 345.944 196.779 346.16 197.487 346.16C198.231 346.16 198.819 345.836 199.239 345.2Z" fill="#1A3341" fill-opacity="0.6"/>
<path d="M231.568 380.056L230.518 379.58C231.036 378.068 232.394 377.074 234.424 377.074C235.39 377.074 236.188 377.298 236.804 377.746C237.42 378.194 237.728 378.796 237.728 379.538C237.728 380.672 237.126 381.512 236.006 381.834C237.084 381.904 237.952 382.716 237.952 384.172C237.952 385.096 237.616 385.824 236.944 386.342C236.272 386.86 235.418 387.126 234.368 387.126C232.226 387.126 230.742 386.104 230.252 384.494L231.386 384.004C231.988 385.278 233.01 385.922 234.452 385.922C235.81 385.922 236.664 385.292 236.664 384.186C236.664 383.108 235.824 382.562 234.144 382.562H233.052V381.4H233.92C235.446 381.4 236.44 380.714 236.44 379.776C236.44 378.81 235.642 378.264 234.368 378.264C232.87 378.264 231.96 379.034 231.568 380.056ZM240.041 387C239.523 387.056 239.131 386.762 239.131 386.258C239.131 385.768 239.439 385.46 239.985 385.46C240.601 385.46 241.007 385.88 241.007 386.664C241.007 388.064 240.237 388.778 239.215 389.016L238.921 388.358C239.229 388.274 239.509 388.106 239.761 387.84C239.999 387.574 240.097 387.294 240.041 387ZM242.025 382.1C242.025 380.588 242.375 379.37 243.089 378.46C243.789 377.55 244.825 377.088 246.183 377.088C248.969 377.088 250.355 378.922 250.355 382.1C250.355 383.626 250.005 384.83 249.319 385.74C248.619 386.65 247.583 387.112 246.211 387.112C244.895 387.112 243.873 386.65 243.131 385.726C242.389 384.802 242.025 383.598 242.025 382.1ZM243.313 382.1C243.313 384.494 244.405 385.922 246.211 385.922C248.115 385.922 249.067 384.648 249.067 382.1C249.067 379.552 248.101 378.278 246.183 378.278C244.237 378.278 243.313 379.678 243.313 382.1ZM251.401 382.1C251.401 380.588 251.751 379.37 252.465 378.46C253.165 377.55 254.201 377.088 255.559 377.088C258.345 377.088 259.731 378.922 259.731 382.1C259.731 383.626 259.381 384.83 258.695 385.74C257.995 386.65 256.959 387.112 255.587 387.112C254.271 387.112 253.249 386.65 252.507 385.726C251.765 384.802 251.401 383.598 251.401 382.1ZM252.689 382.1C252.689 384.494 253.781 385.922 255.587 385.922C257.491 385.922 258.443 384.648 258.443 382.1C258.443 379.552 257.477 378.278 255.559 378.278C253.613 378.278 252.689 379.678 252.689 382.1Z" fill="#1A3341"/>
<path d="M233.912 407.12C232.184 407.12 230.816 406.448 230.156 405.392L230.972 404.792C231.668 405.668 232.64 406.1 233.9 406.1C235.208 406.1 236.132 405.452 236.132 404.528C236.132 403.724 235.292 403.22 233.984 403.22H232.508V402.2H233.912C234.452 402.2 234.908 402.068 235.28 401.816C235.652 401.564 235.832 401.252 235.832 400.856C235.832 399.944 234.92 399.5 233.708 399.5C232.664 399.5 231.836 399.908 231.2 400.724L230.372 400.136C231.164 399.032 232.316 398.48 233.84 398.48C234.74 398.48 235.484 398.684 236.072 399.104C236.648 399.524 236.936 400.1 236.936 400.832C236.936 401.6 236.42 402.236 235.64 402.62C236.66 402.872 237.236 403.664 237.236 404.528C237.236 405.32 236.924 405.944 236.288 406.412C235.652 406.88 234.86 407.12 233.912 407.12ZM238.85 402.26L238.334 401.504C238.91 400.964 239.906 400.616 240.83 400.616C242.498 400.616 243.386 401.528 243.386 403.148V407H242.378V406.076C241.982 406.652 241.202 407.084 240.194 407.084C238.838 407.084 237.926 406.328 237.926 405.176C237.926 403.868 239.042 403.244 240.914 403.244C241.502 403.244 241.982 403.304 242.378 403.424C242.378 402.212 241.946 401.564 240.71 401.564C240.086 401.564 239.462 401.792 238.85 402.26ZM240.434 406.172C240.902 406.172 241.322 406.04 241.67 405.788C242.018 405.536 242.246 405.248 242.378 404.948V404.312C242.03 404.192 241.586 404.132 241.046 404.132C239.678 404.132 238.994 404.468 238.994 405.14C238.994 405.776 239.57 406.172 240.434 406.172ZM250.204 407H249.196V401.708H245.668V407H244.66V400.76H250.204V407ZM252.556 409.4H251.548V400.76H252.556V401.54C252.976 400.928 253.648 400.616 254.572 400.616C255.484 400.616 256.216 400.904 256.756 401.492C257.296 402.08 257.56 402.836 257.56 403.772C257.56 404.732 257.272 405.524 256.696 406.16C256.108 406.796 255.364 407.108 254.452 407.108C253.612 407.108 252.976 406.892 252.556 406.472V409.4ZM254.464 401.564C253.552 401.564 252.844 402.152 252.556 402.86V405.188C252.916 405.836 253.516 406.16 254.368 406.16C254.98 406.16 255.496 405.944 255.892 405.512C256.288 405.08 256.492 404.528 256.492 403.844C256.492 402.452 255.712 401.564 254.464 401.564ZM258.205 403.868C258.205 402.92 258.517 402.14 259.129 401.528C259.741 400.916 260.533 400.616 261.505 400.616C262.489 400.616 263.293 400.916 263.905 401.528C264.517 402.14 264.829 402.92 264.829 403.868C264.829 404.816 264.517 405.584 263.905 406.196C263.281 406.808 262.477 407.108 261.505 407.108C260.533 407.108 259.741 406.808 259.129 406.196C258.517 405.584 258.205 404.816 258.205 403.868ZM259.273 403.868C259.273 404.528 259.477 405.08 259.897 405.512C260.317 405.944 260.845 406.16 261.505 406.16C262.165 406.16 262.717 405.944 263.137 405.524C263.557 405.104 263.761 404.552 263.761 403.868C263.761 403.184 263.545 402.632 263.125 402.2C262.693 401.78 262.153 401.564 261.505 401.564C260.857 401.564 260.329 401.78 259.909 402.2C259.489 402.62 259.273 403.184 259.273 403.868ZM270.663 405.2L271.383 405.716C270.915 406.592 269.859 407.108 268.815 407.108C267.819 407.108 267.015 406.808 266.403 406.22C265.791 405.632 265.479 404.852 265.479 403.868C265.479 402.932 265.779 402.152 266.391 401.54C267.003 400.928 267.783 400.616 268.755 400.616C269.871 400.616 270.867 401.12 271.287 401.888L270.507 402.416C270.087 401.852 269.511 401.564 268.779 401.564C268.131 401.564 267.603 401.78 267.183 402.212C266.763 402.644 266.547 403.196 266.547 403.868C266.547 404.552 266.763 405.104 267.207 405.524C267.639 405.944 268.203 406.16 268.911 406.16C269.655 406.16 270.243 405.836 270.663 405.2ZM281.008 407H275.572V400.76H276.58V406.04H280.072V400.76H281.08V406.04H281.956V408.512H281.008V407ZM287.541 405.212L288.189 405.812C287.613 406.676 286.785 407.108 285.693 407.108C284.697 407.108 283.893 406.808 283.281 406.22C282.669 405.632 282.369 404.852 282.369 403.868C282.369 402.92 282.645 402.14 283.209 401.528C283.761 400.916 284.541 400.616 285.549 400.616C286.377 400.616 287.073 400.88 287.613 401.396C288.153 401.912 288.429 402.596 288.429 403.448C288.429 403.724 288.405 403.976 288.369 404.204H283.449C283.509 405.44 284.421 406.16 285.729 406.16C286.461 406.16 287.157 405.776 287.541 405.212ZM285.477 401.54C284.337 401.54 283.593 402.236 283.437 403.292H287.361C287.301 402.188 286.593 401.54 285.477 401.54ZM295.045 407H294.037V404.3H290.437V407H289.429V400.76H290.437V403.352H294.037V400.76H295.045V407Z" fill="#1A3341" fill-opacity="0.6"/>
<path d="M1.722 596.434L0.7 596.07C1.05 594.334 2.366 593.088 4.452 593.088C6.468 593.088 7.7 594.25 7.7 596.028C7.7 596.966 7.294 597.904 6.79 598.576C6.538 598.926 6.216 599.262 5.838 599.612C5.068 600.298 4.522 600.662 3.724 601.166L2.646 601.838H8.064V603H0.434V602.048L2.562 600.634C2.94 600.396 3.206 600.214 3.36 600.102C3.514 600.004 3.766 599.822 4.102 599.584C4.438 599.346 4.69 599.136 4.858 598.982C5.012 598.828 5.222 598.632 5.46 598.38C6.104 597.68 6.342 597.036 6.412 596.154C6.412 594.88 5.586 594.306 4.368 594.306C3.612 594.306 3.01 594.516 2.576 594.936C2.142 595.356 1.848 595.86 1.722 596.434ZM9.03427 598.1C9.03427 596.588 9.38427 595.37 10.0983 594.46C10.7983 593.55 11.8343 593.088 13.1923 593.088C15.9783 593.088 17.3643 594.922 17.3643 598.1C17.3643 599.626 17.0143 600.83 16.3283 601.74C15.6283 602.65 14.5923 603.112 13.2203 603.112C11.9043 603.112 10.8823 602.65 10.1403 601.726C9.39827 600.802 9.03427 599.598 9.03427 598.1ZM10.3223 598.1C10.3223 600.494 11.4143 601.922 13.2203 601.922C15.1243 601.922 16.0763 600.648 16.0763 598.1C16.0763 595.552 15.1103 594.278 13.1923 594.278C11.2463 594.278 10.3223 595.678 10.3223 598.1ZM19.3479 603C18.8299 603.056 18.4379 602.762 18.4379 602.258C18.4379 601.768 18.7459 601.46 19.2919 601.46C19.9079 601.46 20.3139 601.88 20.3139 602.664C20.3139 604.064 19.5439 604.778 18.5219 605.016L18.2279 604.358C18.5359 604.274 18.8159 604.106 19.0679 603.84C19.3059 603.574 19.4039 603.294 19.3479 603ZM26.9464 594.39H21.0104V593.2H28.4444V593.998L23.5724 603H22.2424L26.9464 594.39ZM34.8044 594.39H28.8684V593.2H36.3024V593.998L31.4304 603H30.1004L34.8044 594.39Z" fill="#1A3341"/>
<path d="M3.912 623.12C2.184 623.12 0.816 622.448 0.156 621.392L0.972 620.792C1.668 621.668 2.64 622.1 3.9 622.1C5.208 622.1 6.132 621.452 6.132 620.528C6.132 619.724 5.292 619.22 3.984 619.22H2.508V618.2H3.912C4.452 618.2 4.908 618.068 5.28 617.816C5.652 617.564 5.832 617.252 5.832 616.856C5.832 615.944 4.92 615.5 3.708 615.5C2.664 615.5 1.836 615.908 1.2 616.724L0.372 616.136C1.164 615.032 2.316 614.48 3.84 614.48C4.74 614.48 5.484 614.684 6.072 615.104C6.648 615.524 6.936 616.1 6.936 616.832C6.936 617.6 6.42 618.236 5.64 618.62C6.66 618.872 7.236 619.664 7.236 620.528C7.236 621.32 6.924 621.944 6.288 622.412C5.652 622.88 4.86 623.12 3.912 623.12ZM8.84981 618.26L8.33381 617.504C8.90981 616.964 9.90581 616.616 10.8298 616.616C12.4978 616.616 13.3858 617.528 13.3858 619.148V623H12.3778V622.076C11.9818 622.652 11.2018 623.084 10.1938 623.084C8.83781 623.084 7.92581 622.328 7.92581 621.176C7.92581 619.868 9.04181 619.244 10.9138 619.244C11.5018 619.244 11.9818 619.304 12.3778 619.424C12.3778 618.212 11.9458 617.564 10.7098 617.564C10.0858 617.564 9.46181 617.792 8.84981 618.26ZM10.4338 622.172C10.9018 622.172 11.3218 622.04 11.6698 621.788C12.0178 621.536 12.2458 621.248 12.3778 620.948V620.312C12.0298 620.192 11.5858 620.132 11.0458 620.132C9.67781 620.132 8.99381 620.468 8.99381 621.14C8.99381 621.776 9.56981 622.172 10.4338 622.172ZM20.204 623H19.196V617.708H15.668V623H14.66V616.76H20.204V623ZM22.5558 625.4H21.5478V616.76H22.5558V617.54C22.9758 616.928 23.6478 616.616 24.5718 616.616C25.4838 616.616 26.2158 616.904 26.7558 617.492C27.2958 618.08 27.5598 618.836 27.5598 619.772C27.5598 620.732 27.2718 621.524 26.6958 622.16C26.1078 622.796 25.3638 623.108 24.4518 623.108C23.6118 623.108 22.9758 622.892 22.5558 622.472V625.4ZM24.4638 617.564C23.5518 617.564 22.8438 618.152 22.5558 618.86V621.188C22.9158 621.836 23.5158 622.16 24.3678 622.16C24.9798 622.16 25.4958 621.944 25.8918 621.512C26.2878 621.08 26.4918 620.528 26.4918 619.844C26.4918 618.452 25.7118 617.564 24.4638 617.564ZM28.2048 619.868C28.2048 618.92 28.5168 618.14 29.1288 617.528C29.7408 616.916 30.5328 616.616 31.5048 616.616C32.4888 616.616 33.2928 616.916 33.9048 617.528C34.5168 618.14 34.8288 618.92 34.8288 619.868C34.8288 620.816 34.5168 621.584 33.9048 622.196C33.2808 622.808 32.4768 623.108 31.5048 623.108C30.5328 623.108 29.7408 622.808 29.1288 622.196C28.5168 621.584 28.2048 620.816 28.2048 619.868ZM29.2728 619.868C29.2728 620.528 29.4768 621.08 29.8968 621.512C30.3168 621.944 30.8448 622.16 31.5048 622.16C32.1648 622.16 32.7168 621.944 33.1368 621.524C33.5568 621.104 33.7608 620.552 33.7608 619.868C33.7608 619.184 33.5448 618.632 33.1248 618.2C32.6928 617.78 32.1528 617.564 31.5048 617.564C30.8568 617.564 30.3288 617.78 29.9088 618.2C29.4888 618.62 29.2728 619.184 29.2728 619.868ZM40.6633 621.2L41.3833 621.716C40.9153 622.592 39.8593 623.108 38.8153 623.108C37.8193 623.108 37.0153 622.808 36.4033 622.22C35.7913 621.632 35.4793 620.852 35.4793 619.868C35.4793 618.932 35.7793 618.152 36.3913 617.54C37.0033 616.928 37.7833 616.616 38.7553 616.616C39.8713 616.616 40.8673 617.12 41.2873 617.888L40.5073 618.416C40.0873 617.852 39.5113 617.564 38.7793 617.564C38.1313 617.564 37.6033 617.78 37.1833 618.212C36.7633 618.644 36.5473 619.196 36.5473 619.868C36.5473 620.552 36.7633 621.104 37.2073 621.524C37.6393 621.944 38.2033 622.16 38.9113 622.16C39.6553 622.16 40.2433 621.836 40.6633 621.2ZM1.74 643H0.732V636.76H1.74V639.556L4.896 636.76H6.252L3.024 639.628L6.408 643H5.064L2.256 640.252L1.74 640.732V643ZM6.09994 639.868C6.09994 638.92 6.41194 638.14 7.02394 637.528C7.63594 636.916 8.42794 636.616 9.39994 636.616C10.3839 636.616 11.1879 636.916 11.7999 637.528C12.4119 638.14 12.7239 638.92 12.7239 639.868C12.7239 640.816 12.4119 641.584 11.7999 642.196C11.1759 642.808 10.3719 643.108 9.39994 643.108C8.42794 643.108 7.63594 642.808 7.02394 642.196C6.41194 641.584 6.09994 640.816 6.09994 639.868ZM7.16794 639.868C7.16794 640.528 7.37194 641.08 7.79194 641.512C8.21194 641.944 8.73994 642.16 9.39994 642.16C10.0599 642.16 10.6119 641.944 11.0319 641.524C11.4519 641.104 11.6559 640.552 11.6559 639.868C11.6559 639.184 11.4399 638.632 11.0199 638.2C10.5879 637.78 10.0479 637.564 9.39994 637.564C8.75194 637.564 8.22394 637.78 7.80394 638.2C7.38394 638.62 7.16794 639.184 7.16794 639.868ZM15.1561 637.708H12.7681V636.76H18.5761V637.708H16.1641V643H15.1561V637.708ZM23.932 638.332L20.128 643H19.204V636.76H20.212V641.44L24.004 636.76H24.94V643H23.932V638.332ZM27.2873 645.4H26.2793V636.76H27.2873V637.54C27.7073 636.928 28.3793 636.616 29.3033 636.616C30.2153 636.616 30.9473 636.904 31.4873 637.492C32.0273 638.08 32.2913 638.836 32.2913 639.772C32.2913 640.732 32.0033 641.524 31.4273 642.16C30.8393 642.796 30.0953 643.108 29.1833 643.108C28.3433 643.108 27.7073 642.892 27.2873 642.472V645.4ZM29.1953 637.564C28.2833 637.564 27.5753 638.152 27.2873 638.86V641.188C27.6473 641.836 28.2473 642.16 29.0993 642.16C29.7113 642.16 30.2273 641.944 30.6233 641.512C31.0193 641.08 31.2233 640.528 31.2233 639.844C31.2233 638.452 30.4433 637.564 29.1953 637.564ZM32.9363 639.868C32.9363 638.92 33.2483 638.14 33.8603 637.528C34.4723 636.916 35.2643 636.616 36.2363 636.616C37.2203 636.616 38.0243 636.916 38.6363 637.528C39.2483 638.14 39.5603 638.92 39.5603 639.868C39.5603 640.816 39.2483 641.584 38.6363 642.196C38.0123 642.808 37.2083 643.108 36.2363 643.108C35.2643 643.108 34.4723 642.808 33.8603 642.196C33.2483 641.584 32.9363 640.816 32.9363 639.868ZM34.0043 639.868C34.0043 640.528 34.2083 641.08 34.6283 641.512C35.0483 641.944 35.5763 642.16 36.2363 642.16C36.8963 642.16 37.4483 641.944 37.8683 641.524C38.2883 641.104 38.4923 640.552 38.4923 639.868C38.4923 639.184 38.2763 638.632 37.8563 638.2C37.4243 637.78 36.8843 637.564 36.2363 637.564C35.5883 637.564 35.0603 637.78 34.6403 638.2C34.2203 638.62 34.0043 639.184 34.0043 639.868ZM43.3429 643H40.5589V636.76H43.1509C44.8909 636.76 45.7069 637.204 45.7069 638.356C45.7069 638.932 45.4429 639.388 44.9029 639.712C45.5749 639.916 45.9109 640.408 45.9109 641.212C45.9109 642.376 44.9869 643 43.3429 643ZM43.3549 640.276H41.5669V642.064H43.2349C44.3029 642.064 44.8429 641.764 44.8429 641.164C44.8429 640.576 44.3509 640.276 43.3549 640.276ZM43.1149 637.696H41.5669V639.364H43.4629C44.1949 639.364 44.6389 639.064 44.6389 638.5C44.6389 637.864 44.1229 637.696 43.1149 637.696ZM46.5713 639.868C46.5713 638.92 46.8833 638.14 47.4953 637.528C48.1073 636.916 48.8993 636.616 49.8713 636.616C50.8553 636.616 51.6593 636.916 52.2713 637.528C52.8833 638.14 53.1953 638.92 53.1953 639.868C53.1953 640.816 52.8833 641.584 52.2713 642.196C51.6473 642.808 50.8433 643.108 49.8713 643.108C48.8993 643.108 48.1073 642.808 47.4953 642.196C46.8833 641.584 46.5713 640.816 46.5713 639.868ZM47.6393 639.868C47.6393 640.528 47.8433 641.08 48.2633 641.512C48.6833 641.944 49.2113 642.16 49.8713 642.16C50.5313 642.16 51.0833 641.944 51.5033 641.524C51.9233 641.104 52.1273 640.552 52.1273 639.868C52.1273 639.184 51.9113 638.632 51.4913 638.2C51.0593 637.78 50.5193 637.564 49.8713 637.564C49.2233 637.564 48.6953 637.78 48.2753 638.2C47.8553 638.62 47.6393 639.184 47.6393 639.868ZM55.2019 643H54.1939V636.76H55.2019V639.556L58.3579 636.76H59.7139L56.4859 639.628L59.8699 643H58.5259L55.7179 640.252L55.2019 640.732V643Z" fill="#1A3341" fill-opacity="0.6"/>
<path d="M88.613 465.152V468H69.125V465.44L78.373 460.096C80.1863 459.051 81.5303 458.208 82.405 457.568C83.2797 456.907 83.8663 456.299 84.165 455.744C84.485 455.189 84.645 454.528 84.645 453.76V453.44C84.645 452.203 84.1223 451.253 83.077 450.592C82.053 449.931 80.5703 449.6 78.629 449.6C76.6237 449.6 75.0983 449.952 74.053 450.656C73.029 451.36 72.517 452.384 72.517 453.728V454.368H69.317V453.696C69.317 451.413 70.117 449.664 71.717 448.448C73.317 447.232 75.5997 446.624 78.565 446.624C81.4663 446.624 83.7383 447.221 85.381 448.416C87.0237 449.611 87.845 451.253 87.845 453.344V453.664C87.845 454.795 87.621 455.787 87.173 456.64C86.725 457.493 85.9463 458.357 84.837 459.232C83.749 460.107 82.149 461.152 80.037 462.368L75.173 465.152H88.613ZM102.881 468.384C100.748 468.384 98.8599 468 97.2172 467.232C95.5959 466.464 94.3266 465.387 93.4092 464C92.5132 462.613 92.0652 461.024 92.0652 459.232V455.808C92.0652 453.995 92.5132 452.395 93.4092 451.008C94.3266 449.621 95.5959 448.544 97.2172 447.776C98.8599 447.008 100.748 446.624 102.881 446.624C104.993 446.624 106.86 447.008 108.481 447.776C110.103 448.544 111.361 449.621 112.257 451.008C113.153 452.395 113.601 453.995 113.601 455.808V459.232C113.601 461.045 113.153 462.645 112.257 464.032C111.361 465.397 110.103 466.464 108.481 467.232C106.86 468 104.993 468.384 102.881 468.384ZM102.881 465.408C105.228 465.408 107.073 464.864 108.417 463.776C109.761 462.688 110.433 461.184 110.433 459.264V455.776C110.433 453.877 109.751 452.373 108.385 451.264C107.041 450.155 105.196 449.6 102.849 449.6C100.481 449.6 98.6146 450.155 97.2492 451.264C95.9052 452.352 95.2332 453.856 95.2332 455.776V459.264C95.2332 461.184 95.9052 462.688 97.2492 463.776C98.6146 464.864 100.492 465.408 102.881 465.408ZM137.006 465.152V468H117.518V465.44L126.766 460.096C128.579 459.051 129.923 458.208 130.798 457.568C131.672 456.907 132.259 456.299 132.558 455.744C132.878 455.189 133.038 454.528 133.038 453.76V453.44C133.038 452.203 132.515 451.253 131.47 450.592C130.446 449.931 128.963 449.6 127.022 449.6C125.016 449.6 123.491 449.952 122.446 450.656C121.422 451.36 120.91 452.384 120.91 453.728V454.368H117.71V453.696C117.71 451.413 118.51 449.664 120.11 448.448C121.71 447.232 123.992 446.624 126.958 446.624C129.859 446.624 132.131 447.221 133.774 448.416C135.416 449.611 136.238 451.253 136.238 453.344V453.664C136.238 454.795 136.014 455.787 135.566 456.64C135.118 457.493 134.339 458.357 133.23 459.232C132.142 460.107 130.542 461.152 128.43 462.368L123.566 465.152H137.006ZM151.978 455.328C154.815 455.413 156.98 455.979 158.474 457.024C159.988 458.048 160.746 459.477 160.746 461.312V461.728C160.746 463.883 159.882 465.536 158.154 466.688C156.426 467.819 153.908 468.384 150.602 468.384C147.38 468.363 144.884 467.797 143.114 466.688C141.364 465.579 140.49 464.011 140.49 461.984V461.76H143.658V461.984C143.658 463.051 144.276 463.893 145.514 464.512C146.751 465.109 148.458 465.408 150.634 465.408C152.916 465.408 154.644 465.109 155.818 464.512C156.991 463.893 157.578 462.987 157.578 461.792V461.408C157.578 459.168 155.295 458.048 150.73 458.048H147.274V455.232L155.178 449.856H140.874V447.008H160.234V449.856L151.978 455.328Z" fill="#1A3341"/>
<path d="M88.9205 489.808H85.2805V488.744H88.8925C88.7105 487.358 87.7725 486.658 86.3725 486.658C85.3225 486.658 84.5385 487.05 84.0205 487.82L83.1245 487.19C83.8945 486.098 84.9865 485.552 86.4005 485.552C87.5625 485.552 88.4725 485.888 89.1585 486.574C89.8305 487.26 90.1665 488.184 90.1665 489.346C90.1665 490.452 89.8305 491.362 89.1585 492.062C88.4865 492.776 87.5625 493.126 86.4005 493.126C84.8465 493.126 83.7685 492.622 83.1385 491.614L84.0205 490.956C84.5105 491.67 85.2805 492.02 86.3025 492.02C87.7725 492.02 88.7945 491.11 88.9205 489.808ZM92.504 493H91.328V485.72H92.504V488.982L96.186 485.72H97.768L94.002 489.066L97.95 493H96.382L93.106 489.794L92.504 490.354V493ZM97.5906 489.346C97.5906 488.24 97.9546 487.33 98.6686 486.616C99.3826 485.902 100.307 485.552 101.441 485.552C102.589 485.552 103.527 485.902 104.241 486.616C104.955 487.33 105.319 488.24 105.319 489.346C105.319 490.452 104.955 491.348 104.241 492.062C103.513 492.776 102.575 493.126 101.441 493.126C100.307 493.126 99.3826 492.776 98.6686 492.062C97.9546 491.348 97.5906 490.452 97.5906 489.346ZM98.8366 489.346C98.8366 490.116 99.0746 490.76 99.5646 491.264C100.055 491.768 100.671 492.02 101.441 492.02C102.211 492.02 102.855 491.768 103.345 491.278C103.835 490.788 104.073 490.144 104.073 489.346C104.073 488.548 103.821 487.904 103.331 487.4C102.827 486.91 102.197 486.658 101.441 486.658C100.685 486.658 100.069 486.91 99.5786 487.4C99.0886 487.89 98.8366 488.548 98.8366 489.346ZM113.036 493H111.86V489.85H107.66V493H106.484V485.72H107.66V488.744H111.86V485.72H113.036V493ZM114.195 489.346C114.195 488.24 114.559 487.33 115.273 486.616C115.987 485.902 116.911 485.552 118.045 485.552C119.193 485.552 120.131 485.902 120.845 486.616C121.559 487.33 121.923 488.24 121.923 489.346C121.923 490.452 121.559 491.348 120.845 492.062C120.117 492.776 119.179 493.126 118.045 493.126C116.911 493.126 115.987 492.776 115.273 492.062C114.559 491.348 114.195 490.452 114.195 489.346ZM115.441 489.346C115.441 490.116 115.679 490.76 116.169 491.264C116.659 491.768 117.275 492.02 118.045 492.02C118.815 492.02 119.459 491.768 119.949 491.278C120.439 490.788 120.677 490.144 120.677 489.346C120.677 488.548 120.425 487.904 119.935 487.4C119.431 486.91 118.801 486.658 118.045 486.658C117.289 486.658 116.673 486.91 116.183 487.4C115.693 487.89 115.441 488.548 115.441 489.346ZM124.264 493H123.088V485.72H124.166L126.854 489.276L129.472 485.72H130.48V493H129.304V487.792L126.84 491.152L124.264 487.792V493ZM137.57 487.554L133.132 493H132.054V485.72H133.23V491.18L137.654 485.72H138.746V493H137.57V487.554ZM143.206 485.72H146.132V493H144.956V490.424H143.178L141.022 493H139.594L141.918 490.242C140.798 490.032 140.056 489.178 140.056 488.058C140.056 486.672 141.022 485.72 143.206 485.72ZM141.302 488.086C141.302 488.8 141.974 489.304 143.038 489.304H144.956V486.84H143.066C141.89 486.84 141.302 487.26 141.302 488.086Z" fill="#318F73"/>
<path d="M102.118 518.864V521H87.5019V519.08L94.4379 515.072C95.7979 514.288 96.8059 513.656 97.4619 513.176C98.1179 512.68 98.5579 512.224 98.7819 511.808C99.0219 511.392 99.1419 510.896 99.1419 510.32V510.08C99.1419 509.152 98.7499 508.44 97.9659 507.944C97.1979 507.448 96.0859 507.2 94.6299 507.2C93.1259 507.2 91.9819 507.464 91.1979 507.992C90.4299 508.52 90.0459 509.288 90.0459 510.296V510.776H87.6459V510.272C87.6459 508.56 88.2459 507.248 89.4459 506.336C90.6459 505.424 92.3579 504.968 94.5819 504.968C96.7579 504.968 98.4619 505.416 99.6939 506.312C100.926 507.208 101.542 508.44 101.542 510.008V510.248C101.542 511.096 101.374 511.84 101.038 512.48C100.702 513.12 100.118 513.768 99.2859 514.424C98.4699 515.08 97.2699 515.864 95.6859 516.776L92.0379 518.864H102.118ZM112.579 510.8C114.947 510.8 116.803 511.24 118.147 512.12C119.507 513 120.187 514.216 120.187 515.768V516.152C120.187 517.784 119.523 519.048 118.195 519.944C116.867 520.84 114.995 521.288 112.579 521.288C110.147 521.288 108.267 520.912 106.939 520.16C105.627 519.408 104.971 518.336 104.971 516.944V516.752H107.371V516.944C107.371 517.6 107.827 518.12 108.739 518.504C109.651 518.872 110.907 519.056 112.507 519.056C114.155 519.056 115.451 518.8 116.395 518.288C117.339 517.776 117.811 517.072 117.811 516.176V515.792C117.811 514.928 117.331 514.248 116.371 513.752C115.427 513.256 114.115 513.008 112.435 513.008C110.963 513.008 109.755 513.2 108.811 513.584C107.867 513.952 107.371 514.44 107.323 515.048H104.971L105.499 505.256H119.179V507.392H107.611L107.371 512.024C108.603 511.208 110.339 510.8 112.579 510.8ZM126.54 517.976V518.336L124.38 524.432H122.172L123.924 517.976H126.54ZM136.157 504.968C137.821 504.968 139.261 505.208 140.477 505.688C141.709 506.168 142.645 506.856 143.285 507.752C143.941 508.648 144.269 509.704 144.269 510.92V514.904C144.269 516.904 143.557 518.472 142.133 519.608C140.725 520.728 138.765 521.288 136.253 521.288C134.749 521.288 133.437 521.088 132.317 520.688C131.197 520.288 130.333 519.72 129.725 518.984C129.133 518.232 128.837 517.352 128.837 516.344V516.152H131.213V516.344C131.213 517.192 131.661 517.856 132.557 518.336C133.453 518.816 134.685 519.056 136.253 519.056C138.077 519.056 139.469 518.704 140.429 518C141.405 517.296 141.893 516.28 141.893 514.952V513.464C140.501 514.584 138.533 515.144 135.989 515.144C133.605 515.144 131.773 514.744 130.493 513.944C129.213 513.128 128.573 511.952 128.573 510.416V510.08C128.573 508.48 129.245 507.232 130.589 506.336C131.949 505.424 133.805 504.968 136.157 504.968ZM136.013 512.936C137.405 512.936 138.613 512.776 139.637 512.456C140.661 512.12 141.413 511.648 141.893 511.04V510.896C141.893 509.744 141.389 508.84 140.381 508.184C139.373 507.528 137.957 507.2 136.133 507.2C134.501 507.2 133.229 507.44 132.317 507.92C131.405 508.4 130.949 509.088 130.949 509.984V510.32C130.949 512.064 132.637 512.936 136.013 512.936Z" fill="#318F73"/>
<defs>
<linearGradient id="paint0_linear_6003_19546" x1="73.5" y1="11.5" x2="251.5" y2="142.5" gradientUnits="userSpaceOnUse">
<stop stop-color="#D2F38D"/>
<stop offset="1" stop-color="#E2FDA9"/>
</linearGradient>
<linearGradient id="paint1_linear_6003_19546" x1="141.5" y1="11.5" x2="281.5" y2="186" gradientUnits="userSpaceOnUse">
<stop stop-color="#9AE8A6"/>
<stop offset="1" stop-color="#97E1A2"/>
</linearGradient>
<linearGradient id="paint2_linear_6003_19546" x1="207.5" y1="275" x2="-184.5" y2="-301.5" gradientUnits="userSpaceOnUse">
<stop stop-color="#56BE83"/>
<stop offset="1" stop-color="#A4EB7A"/>
</linearGradient>
<linearGradient id="paint3_linear_6003_19546" x1="72.5" y1="340.5" x2="218" y2="427" gradientUnits="userSpaceOnUse">
<stop stop-color="#D2F38D"/>
<stop offset="1" stop-color="#E2FDA9"/>
</linearGradient>
<linearGradient id="paint4_linear_6003_19546" x1="140.5" y1="340.5" x2="280.5" y2="515" gradientUnits="userSpaceOnUse">
<stop stop-color="#B4E4BC"/>
<stop offset="1" stop-color="#A9EDB4"/>
</linearGradient>
<linearGradient id="paint5_linear_6003_19546" x1="259" y1="642" x2="-48" y2="56" gradientUnits="userSpaceOnUse">
<stop stop-color="#56BE83"/>
<stop offset="1" stop-color="#A4EB7A"/>
</linearGradient>
</defs>
</svg>
