<svg width="1102" height="928" viewBox="0 0 1102 928" fill="none" xmlns="http://www.w3.org/2000/svg">
<circle cx="551.5" cy="421.123" r="251.509" stroke="#96D1DE"/>
<line x1="550.5" y1="928" x2="550.5" y2="6.08429e-09" stroke="#96D1DE"/>
<path d="M1101.75 735.054L0.75053 106.64" stroke="#96D1DE"/>
<path d="M0.75048 735.054L1101.75 106.64" stroke="#96D1DE"/>
<path d="M331.299 293.505C308.862 332.22 297.028 376.166 296.991 420.913C296.954 465.66 308.715 509.626 331.089 548.377" stroke="#5BDFAF" stroke-width="6"/>
<path d="M551.92 166.615C507.173 166.541 463.198 178.266 424.427 200.607C385.657 222.949 353.462 255.117 331.089 293.869" stroke="#129364" stroke-width="6"/>
<path d="M771.949 293.935C749.587 255.176 717.402 222.998 678.638 200.645C639.875 178.292 595.903 166.554 551.156 166.614" stroke="#92D75B" stroke-width="6"/>
<path d="M771.796 548.577C794.204 509.845 806.005 465.89 806.009 421.143C806.012 376.397 794.218 332.44 771.816 293.705" stroke="#B7E2F4" stroke-width="6"/>
<path d="M551.133 675.632C595.861 675.696 639.817 663.972 678.571 641.64C717.326 619.308 749.511 587.156 771.883 548.425" stroke="#3196B6" stroke-width="6"/>
<path d="M330.933 548.107C353.25 586.871 385.388 619.068 424.111 641.456C462.833 663.844 506.771 675.632 551.5 675.632" stroke="#58C7CE" stroke-width="6"/>
<path d="M812.927 420.769L803.009 413.33V428.208L812.927 420.769Z" fill="#B7E2F4"/>
<path d="M290.072 420.769L299.991 413.33V428.208L290.072 420.769Z" fill="#5BDFAF"/>
<path d="M682.214 647.171L683.697 634.862L670.812 642.301L682.214 647.171Z" fill="#3196B6"/>
<path d="M420.787 194.364L432.188 199.235L419.304 206.674L420.787 194.364Z" fill="#129364"/>
<path d="M420.787 647.173L432.188 642.302L419.304 634.863L420.787 647.173Z" fill="#58C7CE"/>
<path d="M682.214 194.367L683.697 206.676L670.812 199.237L682.214 194.367Z" fill="#92D75B"/>
</svg>
